<?xml version="1.0" standalone="no"?>
<!DOCTYPE svg PUBLIC "-//W3C//DTD SVG 1.1//EN" "http://www.w3.org/Graphics/SVG/1.1/DTD/svg11.dtd" >
<svg xmlns="http://www.w3.org/2000/svg" xmlns:xlink="http://www.w3.org/1999/xlink" version="1.1">
<metadata></metadata>
<defs>
<font id="kfgqpc_uthman_taha_naskhRg" horiz-adv-x="804" >
<font-face units-per-em="2048" ascent="1638" descent="-410" />
<missing-glyph horiz-adv-x="401" />
<glyph horiz-adv-x="0" />
<glyph horiz-adv-x="682" />
<glyph unicode=" "  horiz-adv-x="401" />
<glyph unicode="&#x09;" horiz-adv-x="401" />
<glyph unicode="&#xa0;" horiz-adv-x="401" />
<glyph unicode="!" horiz-adv-x="382" d="M98 832.5q0 24.5 3.5 48.5t12.5 43.5t25.5 31.5t43.5 12q26 0 43 -12t26.5 -31.5t13 -43.5t3.5 -48.5t-2.5 -47.5t-3.5 -40q-5 -31 -9 -55.5t-8.5 -46.5t-9 -42t-8.5 -44t-7.5 -52t-7 -64t-5.5 -83t-4 -108h-42q-2 61 -4.5 107.5t-6 83t-7 64.5l-6.5 52q-5 24 -9.5 44 t-8.5 42t-8.5 46.5t-7.5 55.5q-2 17 -4 40t-2 47.5zM110 112q0 33 22 55t54 22q15 0 29.5 -6t25 -16.5t16.5 -24.5t6 -30t-6 -30t-16.5 -24.5t-25 -16.5t-29.5 -6q-32 0 -54 22.5t-22 54.5z" />
<glyph unicode="&#x22;" horiz-adv-x="423" d="M75 1051q-2 20 1 38.5t13 32.5t31 14q20 0 30 -14t13 -32.5t1.5 -38.5t-2.5 -33q-10 -69 -17 -130.5t-9 -130.5h-32q-3 69 -10 130.5t-16 130.5q-1 13 -3 33zM270 1051q-1 20 2 38.5t13 32.5t30 14q22 0 31.5 -14t12.5 -32.5t1.5 -38.5t-2.5 -33q-9 -69 -17 -130.5 t-9 -130.5h-33q-1 69 -9 130.5t-17 130.5q-2 13 -3 33z" />
<glyph unicode="#" horiz-adv-x="1163" d="M90 412v85h193l71 325h-264v85h281l74 341h82l-71 -341h345l72 341h83l-71 -341h180v-85h-198l-69 -325h267v-85h-286l-73 -341h-83l72 341h-346l-72 -341h-83l72 341h-176zM368 497h345l70 325h-344z" />
<glyph unicode="$" horiz-adv-x="819" d="M65 285q0 22 16 37t40 15t39.5 -17.5t30 -44t32 -56t46.5 -53.5v472q-39 25 -72.5 52t-58.5 57t-39.5 63.5t-14.5 71.5q0 45 15 81.5t40.5 67t58.5 52t71 35.5v123h61v-106q14 2 29.5 4t30.5 0q13 0 26 -1t28 -3v106h63v-121q36 -11 70.5 -28t60.5 -38t41.5 -45.5 t15.5 -49.5q0 -23 -18 -40.5t-42 -17.5q-21 0 -37 12t-30 30.5t-28.5 41t-32.5 43.5v-368q46 -27 87.5 -58t73.5 -66.5t50.5 -77t18.5 -90.5q0 -52 -18.5 -96.5t-49.5 -80t-73.5 -61.5t-88.5 -40v-160h-63v147q-10 -2 -18.5 -2h-18.5q-19 0 -38.5 1.5t-38.5 5.5v-152h-61 v169q-43 13 -80 33.5t-64.5 45t-43.5 52.5t-16 55zM192 934q0 -36 20.5 -65.5t56.5 -57.5v251q-39 -21 -58 -54t-19 -74zM330 133q25 -9 64 -9q13 0 25.5 2t24.5 4v397q-27 17 -56 35.5t-58 35.5v-465zM330 766q27 -17 55.5 -33.5t58.5 -33.5v375q-27 12 -67 12 q-12 0 -24 -0.5t-23 -1.5v-318zM507 153q49 24 82 67.5t33 105.5q0 45 -32 83t-83 76v-332z" />
<glyph unicode="%" horiz-adv-x="1260" d="M222 -26l731 1304h124l-732 -1304h-123zM351 1128q0 -24 9.5 -46t25 -38t37.5 -25t46 -9q25 0 46.5 9t37.5 25t25 38t9 46q0 25 -9 46.5t-25 37t-37.5 25t-46.5 9.5q-24 0 -46 -9.5t-37.5 -25t-25 -37t-9.5 -46.5zM711 116q0 -24 9 -46t25 -38t38 -25.5t46 -9.5t46 9.5 t37.5 25.5t25 38t9.5 46t-9.5 46t-25 37.5t-37.5 25t-46 9.5t-46 -9.5t-38 -25t-25 -37.5t-9 -46z" />
<glyph unicode="&#x26;" horiz-adv-x="1269" d="M66 354q0 59 18 114.5t51.5 102t81.5 80.5t109 51q-49 41 -72.5 89.5t-25.5 96.5q-3 44 10.5 84t42 73t71 54.5t96.5 27.5q48 6 90.5 -6t74 -38t50 -63.5t18.5 -83.5q0 -38 -14 -70t-37.5 -59.5t-55 -48.5t-66.5 -36q33 -22 67 -54t68 -70.5t68 -81.5t66 -89 q56 77 106 159t94 165q7 13 2.5 20.5t-17.5 10t-32 2.5h-40v44h296v-44q-25 0 -50 -1.5t-46.5 -5t-37 -10t-21.5 -16.5q-18 -39 -41.5 -84.5t-52 -93.5t-61 -97t-66.5 -96q12 -17 29.5 -49.5t39.5 -67t48 -65.5t55 -47q21 -11 41.5 -9t40 11t38.5 21.5t37 22.5l20 -38 q-25 -19 -61 -43t-76.5 -40t-82.5 -16t-80 29q-33 27 -65 74t-67 116q-34 -43 -70.5 -79.5t-75.5 -64.5t-80.5 -46t-85.5 -23q-72 -6 -135 13.5t-110.5 58t-75.5 94t-28 122.5zM223 404q0 -53 20 -97t56 -74.5t83 -45t101 -8.5q34 4 68.5 23t63.5 42.5t51.5 46t31.5 33.5 q-34 50 -66.5 93t-69.5 83t-80 78t-99 79q-41 -14 -71.5 -39.5t-50.5 -59t-29 -73t-9 -81.5zM343 896q0 -32 9 -58.5t24.5 -45t36.5 -27t44 -3.5q23 3 43.5 19t36 40.5t24.5 55t9 63.5q0 32 -9 59t-24.5 45t-36 26.5t-43.5 3.5t-44 -21t-36.5 -40t-24.5 -54.5t-9 -62.5z" />
<glyph unicode="'" horiz-adv-x="308" d="M68 1105q-3 26 3 51.5t25 43.5t60 19q40 -1 59 -19t25 -43.5t3 -51.5t-7 -44q-19 -87 -33 -174q-7 -44 -13 -87t-9 -87h-51q-2 44 -8 87t-14 87l-33 174q-4 18 -7 44z" />
<glyph unicode="(" horiz-adv-x="692" d="M91 526q-2 122 24 241.5t79.5 233.5t134 220t188.5 202l52 -40q-159 -199 -232.5 -414.5t-70.5 -446.5q3 -222 76 -430t227 -402l-52 -35q-108 94 -187.5 197t-132 213t-79 226t-27.5 235z" />
<glyph unicode=")" horiz-adv-x="692" d="M123 -310q154 194 227 402t76 430q3 231 -70.5 446.5t-232.5 414.5l52 40q108 -96 188.5 -202t134 -220t79 -233.5t24.5 -241.5q-2 -119 -28 -235t-78.5 -226t-132 -213t-187.5 -197z" />
<glyph unicode="*" horiz-adv-x="578" d="M23 936q0 18 7 27t17.5 12.5t21.5 3t18 -1.5q30 -7 65.5 -14.5t67.5 -11.5q2 7 4 12t5 10q-25 22 -55.5 40.5t-56.5 35.5q-6 4 -14.5 11.5t-13 18t-3 22t13.5 23.5t23.5 13.5t21.5 -3t17 -13t11 -14.5q18 -28 37 -58.5t39 -54.5q7 2 12.5 5t11.5 3q-4 34 -11.5 68.5 t-14.5 66.5q-1 7 -1.5 18t3 21.5t12 17.5t25.5 7q18 0 27 -7t13 -17.5t3.5 -21.5t-2.5 -18q-7 -32 -15 -66.5t-9 -68.5q4 0 10 -3t11 -5q20 24 39.5 54.5t36.5 58.5q4 6 11 14.5t17 13t22 3t24 -13.5t13 -23.5t-3.5 -22t-12.5 -18t-14 -11.5q-27 -17 -57 -35.5t-56 -40.5 q5 -5 6.5 -10t3.5 -12q32 4 67 11.5t65 14.5q8 1 19.5 1.5t21.5 -3t18 -12.5t8 -27q0 -17 -8 -26t-18 -12.5t-21.5 -3.5t-19.5 1q-30 8 -65 15.5t-67 11.5q-2 -7 -3.5 -12.5t-6.5 -9.5q26 -22 56 -40.5t57 -34.5q6 -6 14 -13.5t13 -17t3.5 -21t-13.5 -23.5 q-12 -13 -24 -14.5t-22 3.5t-17 13t-11 15q-17 27 -36.5 56.5t-39.5 56.5q-5 -4 -11 -6.5t-10 -3.5q1 -33 9 -67.5t15 -66.5q2 -7 2.5 -18t-3.5 -21t-13 -17.5t-27 -7.5q-17 0 -25.5 7.5t-12 17.5t-3 21t1.5 18q7 32 14.5 66.5t11.5 67.5q-11 2 -24 10q-20 -27 -39 -56.5 t-37 -56.5q-4 -7 -11.5 -15t-17 -13t-21 -3.5t-23.5 14.5q-12 12 -13.5 23.5t3 21t13 17t14.5 13.5q26 16 56.5 34.5t55.5 40.5q-6 9 -9 22q-32 -4 -67.5 -11.5t-65.5 -15.5q-7 -1 -18 -1t-21.5 3.5t-17.5 12.5t-7 26zM254 936q0 -13 9.5 -22.5t22.5 -9.5q15 0 24.5 9.5 t9.5 22.5q0 14 -9.5 24t-24.5 10q-13 0 -22.5 -10t-9.5 -24z" />
<glyph unicode="+" horiz-adv-x="781" d="M73 368v87h270v268h85v-268h269v-87h-269v-269h-85v269h-270z" />
<glyph unicode="," horiz-adv-x="372" d="M91.5 121q2.5 20 13.5 39t28 30q28 16 58.5 11t52.5 -27q21 -22 31.5 -50.5t11.5 -59.5t-5 -62t-17 -57q-19 -39 -47 -69.5t-67 -49.5q-17 -10 -32 -13t-20 6q-5 6 2 13.5t18 16.5q22 14 43.5 35.5t36.5 47.5q14 26 20.5 54t-2.5 57q-24 -12 -49.5 -9.5t-44.5 15.5 t-26.5 32.5t-5 39.5z" />
<glyph unicode="-" d="M82 375v87h638v-87h-638z" />
<glyph unicode="." horiz-adv-x="400" d="M82 136q0 51 27 72t79 21q54 0 80 -21t26 -72q0 -52 -26 -74t-80 -22q-52 0 -79 22t-27 74z" />
<glyph unicode="/" horiz-adv-x="554" d="M42 -338l391 1498h66l-392 -1498h-65z" />
<glyph unicode="0" horiz-adv-x="800" d="M65 567q0 90 2.5 188.5t31 181.5t95 137t194.5 55q127 1 195.5 -53t100 -137t36.5 -182.5t5 -189.5t-5 -189.5t-36.5 -182.5t-100 -137t-195.5 -53q-128 1 -194.5 55t-95 137t-31 181.5t-2.5 188.5zM178 567q0 -59 1 -134.5t19.5 -143t62.5 -114t130 -47.5 q85 -1 130.5 44t66 112t23.5 144t3 139q0 63 -3 139.5t-23.5 143.5t-66 112t-130.5 44q-86 -1 -130 -47.5t-62.5 -114t-19.5 -143t-1 -134.5z" />
<glyph unicode="1" horiz-adv-x="547" d="M75 882q44 19 85 48t77.5 62t68 68t55.5 66h83v-563v-563h-68h-69v439.5v439.5q-51 -38 -106.5 -70t-116.5 -52z" />
<glyph unicode="2" horiz-adv-x="906" d="M103 1v128q0 2 18.5 20.5t49 47.5t69.5 66t80.5 76t82.5 78t75 71t57.5 55.5t29.5 31.5q62 76 78 157.5t-11 142.5q-28 61 -75.5 87.5t-101.5 25.5q-37 -2 -73.5 -15t-68.5 -36.5t-57 -56.5t-38 -73q-24 11 -48.5 24t-48.5 24q13 65 46 115.5t78.5 84.5t100 52.5 t110.5 19.5q59 2 116 -16.5t101.5 -56t73 -95t31.5 -134.5q2 -57 -14.5 -113.5t-46 -111t-68 -105.5t-80.5 -97q-42 -47 -85 -87.5t-80 -73.5t-66 -57.5t-43 -38.5h519l-36 -140h-675z" />
<glyph unicode="3" horiz-adv-x="793" d="M82 221l110 72q16 -42 43 -71t60 -46.5t69.5 -24t70.5 -1.5q35 4 64.5 19t50 39.5t28 58.5t-1.5 76q-9 35 -32 68t-59.5 57.5t-86 36t-110.5 2.5l-1 126q45 -8 92.5 -2t88.5 26t70.5 55t40.5 85q8 42 0.5 75t-26 57.5t-46 39t-58.5 19.5q-32 4 -65.5 -2t-64.5 -23 t-56.5 -45t-42.5 -69l-115 68q22 51 56.5 90.5t77 66.5t89.5 41t95 15q47 0 92 -13.5t83 -42t65.5 -72t41.5 -103.5q10 -47 5.5 -95t-23.5 -92t-52.5 -81t-79.5 -61q48 -25 81 -62t51.5 -80t23.5 -90.5t-2 -93.5q-11 -63 -38.5 -109t-67 -75.5t-87 -43.5t-98.5 -14 q-51 1 -101.5 15.5t-95.5 42t-81 68.5t-58 93z" />
<glyph unicode="4" horiz-adv-x="953" d="M80 278l19 127l490 721h114v-712h161l-33 -136h-128v-278h-132v278h-491zM240 414h331v493z" />
<glyph unicode="5" horiz-adv-x="876" d="M100 215l128 58q33 -63 89 -94t116 -31q47 0 87.5 16.5t70 45.5t46 69t16.5 87q-2 110 -59 173.5t-161 64.5q-49 0 -100 -15.5t-95 -43.5l-125 3l95 574h553l-41 -141h-414l-51 -288q45 31 93 45t95 13q72 -1 136.5 -31.5t112.5 -82.5t76 -122t27 -149q-2 -79 -32 -146.5 t-80 -117t-115.5 -77.5t-137.5 -29q-95 -1 -184.5 50t-145.5 169z" />
<glyph unicode="6" horiz-adv-x="880" d="M86 583q3 113 26 212t68.5 172t117 116t171.5 44q121 2 189.5 -52t114.5 -158l-103 -68q-27 72 -83.5 105.5t-109.5 33.5q-73 0 -122 -33.5t-78.5 -85t-41.5 -113.5t-12 -119q23 32 53.5 51t60.5 29t55 13t38 4q91 2 158 -29t110.5 -84t63.5 -122.5t17 -142.5 q-2 -68 -25 -131.5t-66.5 -113.5t-108 -80t-149.5 -30q-119 0 -188.5 54.5t-105 139t-44.5 187.5t-6 201zM217 366q2 -46 19.5 -84.5t46 -67t66.5 -44t81 -15.5q96 0 154.5 60t62.5 151q3 62 -15.5 105.5t-50 70t-72 38t-82.5 11.5q-100 -2 -157 -61.5t-53 -163.5z" />
<glyph unicode="7" horiz-adv-x="884" d="M93 978l34 148h650l-14 -139q-56 -130 -125 -254.5t-130 -246.5t-103.5 -243t-47.5 -243h-148q5 127 50.5 260.5t108.5 261.5q62 128 129.5 244.5t114.5 211.5h-519z" />
<glyph unicode="8" horiz-adv-x="818" d="M68 282q-5 84 34.5 164t128.5 126q-82 45 -109.5 109.5t-26.5 135.5q1 64 23.5 120.5t62 98.5t94 66t118.5 24q67 0 123 -25t96.5 -68.5t62 -101.5t19.5 -124q-1 -33 -7.5 -67t-21.5 -65t-40.5 -57.5t-65.5 -45.5q93 -49 132 -132t29 -168q-7 -66 -38 -117t-76.5 -86 t-101.5 -52.5t-115 -16.5q-58 1 -114 20.5t-100.5 55t-73.5 87.5t-33 119zM210 332q-3 -31 6 -67t31.5 -67t58.5 -52t87 -21q42 0 78.5 16.5t62.5 45t39.5 66t10.5 79.5q-3 45 -20 79t-43 57t-58 34.5t-66 11.5q-33 1 -64.5 -10t-57.5 -34t-43.5 -57.5t-21.5 -80.5zM221 812 q8 -91 59 -136.5t114 -45.5q32 0 62 11.5t55 34t41.5 57t20.5 79.5q3 32 -5.5 66t-30 62.5t-57 46.5t-87.5 18q-51 0 -85.5 -18t-54.5 -46t-27.5 -62.5t-4.5 -66.5z" />
<glyph unicode="9" horiz-adv-x="880" d="M84 214l102 68q15 -36 38.5 -62t51.5 -43t57.5 -25t56.5 -8q80 0 131.5 34t81 87t40 116t7.5 120q-23 -32 -53 -51t-60 -29t-55 -13t-38 -3q-91 -3 -156 28t-106 84t-60 122.5t-17 142.5q2 68 22 130.5t60 111t102 77.5t147 29q119 0 189.5 -53.5t106.5 -137t46 -185.5 t8 -199q-2 -113 -22.5 -213t-66 -174.5t-119 -118.5t-179.5 -45q-121 -1 -194 53t-121 157zM238 772q-3 -62 13.5 -105.5t46 -70t67.5 -38.5t80 -11q100 2 156.5 61.5t51.5 163.5q-3 46 -20.5 83.5t-46.5 64.5t-67 42t-81 15q-96 0 -146.5 -57t-53.5 -148z" />
<glyph unicode=":" horiz-adv-x="438" d="M131 121q0 18 7 33.5t18.5 27.5t27.5 18.5t34 6.5t34.5 -6.5t28 -18.5t18.5 -27.5t7 -33.5t-7 -34t-18.5 -27.5t-28 -18.5t-34.5 -7t-34 7t-27.5 18.5t-18.5 27.5t-7 34zM131 605q0 18 7 34t18.5 27.5t27.5 18.5t34 7t34.5 -7t28 -18.5t18.5 -27.5t7 -34t-7 -33.5 t-18.5 -27.5t-28 -19t-34.5 -7t-34 7t-27.5 19t-18.5 27.5t-7 33.5z" />
<glyph unicode=";" horiz-adv-x="452" d="M100 190.5q0 -23.5 11.5 -45.5t34.5 -34q24 -15 54 -15t56 18q13 -33 9.5 -66.5t-18.5 -65.5q-14 -30 -37 -58t-47 -48q-11 -11 -17.5 -20t-1.5 -15q6 -10 23.5 -4.5t36.5 17.5q41 27 70.5 66t46.5 85q11 32 14.5 68.5t-1.5 72t-20 68t-41 54.5q-28 24 -64.5 25.5 t-67.5 -18.5q-20 -15 -30.5 -38t-10.5 -46.5zM133 734q0 19 7.5 36t20 30t29.5 20t37 7t37 -7t30 -20t20 -30t7 -36t-7 -36t-20 -30t-30 -20t-37 -7t-37 7t-29.5 20t-20 30t-7.5 36z" />
<glyph unicode="&#x3c;" horiz-adv-x="1161" d="M120 582v149l889 385v-112l-797 -347l797 -346v-112z" />
<glyph unicode="=" d="M83 281v89h639v-89h-639zM83 458v87h639v-87h-639z" />
<glyph unicode="&#x3e;" horiz-adv-x="1161" d="M120 199v112l797 346l-797 347v112l889 -385v-149z" />
<glyph unicode="[" horiz-adv-x="576" d="M79 -173v1314h394v-97h-252v-1120h252v-97h-394z" />
<glyph unicode="\" horiz-adv-x="554" d="M42 1160h66l391 -1498h-65z" />
<glyph unicode="]" horiz-adv-x="576" d="M79 1043v97h394v-1313h-393v96h252v1120h-253z" />
<glyph unicode="_" horiz-adv-x="1268" d="M75 29q0 50 10.5 98.5t28 94t41 89t49.5 82.5q4 6 8.5 5t8.5 -5.5t5.5 -10.5t-0.5 -10q-35 -69 -58.5 -145.5t-18.5 -154.5q4 -74 36.5 -125.5t82.5 -83.5t111 -46.5t123 -15.5q63 -1 120.5 8.5t112.5 27t109 42t108 53.5q15 8 40.5 24.5t50 35t43 36t20.5 28.5 q-2 11 -16 19.5t-39 18.5q-15 6 -43.5 11.5t-62.5 9.5t-70 8t-67.5 6t-54 3.5t-29.5 1.5q0 8 4 25.5t11 36.5t16.5 35.5t20.5 22.5q25 10 64.5 26.5t78 38t67 47.5t31.5 55q2 18 -1 35t-9 34t-13.5 32.5t-14.5 30.5q-23 -55 -64.5 -85.5t-90.5 -30.5q-27 0 -51.5 13.5 t-42.5 35t-28.5 48.5t-10.5 54q0 22 5.5 51.5t16 61t26 61.5t35 53.5t43 38t50.5 14.5q37 0 72 -29.5t63.5 -70.5t48.5 -85.5t27 -74.5q10 -43 13.5 -89t-2.5 -92t-23 -91.5t-49 -87.5q84 -15 124.5 -57.5t36.5 -108.5q-4 -61 -38 -117t-87.5 -104.5t-123 -88.5t-144.5 -69 t-151.5 -44.5t-143.5 -15.5q-90 0 -166 23t-131.5 70.5t-86.5 120.5t-31 172zM326 -618l81 115q4 6 7 6t7 -4l120 -91l82 105q6 8 12 3l127 -106q7 -5 0 -14l-76 -106q-5 -6 -8 -6.5t-11 5.5l-119 93l-78 -107q-7 -9 -15 -3l-127 98q-7 5 -2 12zM612 1114l74 102q6 14 16 4 l121 -88l74 107q6 10 14 2l127 -91q6 -6 0 -16l-69 -102q-11 -8 -19 -2l-121 86l-71 -103q-4 -4 -8.5 -5t-8.5 -1l-127 94q-10 5 -2 13zM766 645q8 -23 27.5 -37.5t44 -19.5t49.5 1t43 24q3 2 5 7.5t-1 16.5q-8 16 -20 29.5t-27 26.5q-35 26 -70 23q-22 -5 -34.5 -27.5 t-16.5 -43.5z" />
<glyph unicode="{" horiz-adv-x="672" d="M88 388v56q54 6 89.5 23.5t56.5 44.5t29 61t8 72t-6 78.5t-13 79.5q-10 49 -3 97.5t26.5 93.5t50.5 83.5t72 67.5t89 45.5t101 17.5v-47q-58 -12 -97 -32t-63 -46.5t-35 -59t-13.5 -68t1.5 -74.5t11 -78q11 -62 2.5 -123.5t-35.5 -114t-71.5 -92t-103.5 -57.5 q59 -18 103.5 -57.5t71.5 -92.5t35.5 -114.5t-2.5 -122.5q-7 -40 -11 -78.5t-1.5 -74t13.5 -68t35 -59t63 -46.5t97 -32v-47q-53 1 -101 17.5t-89 45.5t-72 67.5t-50.5 83.5t-26.5 93.5t3 97.5q7 39 13 79.5t6 78.5t-8 72t-29 61t-56.5 45t-89.5 23z" />
<glyph unicode="}" horiz-adv-x="677" d="M88 -329q57 12 96.5 32t63.5 46.5t35 59t13.5 68t-1.5 74t-11 78.5q-11 61 -2.5 122.5t35 114.5t71 92.5t104.5 57.5q-60 18 -104.5 57.5t-71 92t-35 114t2.5 123.5q7 39 11 78t1.5 74.5t-13.5 68t-35 59t-63.5 46.5t-96.5 32v47q79 -1 147 -37t114.5 -93.5t67.5 -129.5 t7 -145q-7 -39 -13 -79.5t-6 -78.5t8 -72t28.5 -61t56 -44.5t90.5 -23.5v-56q-54 -5 -90 -23t-56.5 -45t-28.5 -61t-8 -72t6 -78.5t13 -79.5q14 -73 -7 -145t-67.5 -129.5t-114.5 -93.5t-147 -37v47z" />
<glyph unicode="&#xab;" horiz-adv-x="578" d="M79 586q0 115 35.5 224t104.5 206l46 -17q-42 -97 -62.5 -200.5t-20.5 -212.5t20.5 -213.5t62.5 -201.5l-46 -15q-69 94 -104.5 204.5t-35.5 225.5zM286 584q0 115 35.5 224t104.5 206l46 -17q-42 -97 -62.5 -200.5t-20.5 -212.5t20.5 -213.5t62.5 -201.5l-46 -15 q-69 94 -104.5 204.5t-35.5 225.5z" />
<glyph unicode="&#xad;" d="M82 375v87h638v-87h-638z" />
<glyph unicode="&#xb0;" horiz-adv-x="466" d="M53 980q0 40 14.5 75.5t39.5 61.5t58.5 41.5t71.5 15.5t72 -15.5t59 -41.5t39.5 -61.5t14.5 -75.5t-14.5 -75t-39.5 -61.5t-59 -41.5t-72 -15t-71.5 15t-58.5 41.5t-39.5 61.5t-14.5 75zM119 980q0 -26 9 -48t25 -39t37.5 -26.5t46.5 -9.5t46.5 9.5t37.5 26.5t25.5 39 t9.5 48t-9.5 48.5t-25.5 39.5t-37.5 26.5t-46.5 9.5t-46.5 -9.5t-37.5 -26.5t-25 -39.5t-9 -48.5z" />
<glyph unicode="&#xb6;" horiz-adv-x="1039" d="M16.5 1163.5q0.5 75.5 30.5 148t89.5 129t148.5 91t207 34.5h380h143v-97h-143v-1677h-98v1677h-186v-1677h-96v969q-120 0 -209 34.5t-148.5 91t-89 129t-29 148z" />
<glyph unicode="&#xb7;" horiz-adv-x="532" d="M169 791q0 51 27 72.5t69 21.5q45 0 71 -21.5t26 -72.5q0 -52 -26 -74t-71 -22q-42 0 -69 22t-27 74z" />
<glyph unicode="&#xbb;" horiz-adv-x="585" d="M109 169q42 97 62.5 201.5t20.5 213.5t-20.5 212.5t-62.5 200.5l46 17q69 -97 104.5 -206t35.5 -224t-35.5 -225.5t-104.5 -204.5zM316 171q42 97 62.5 201.5t20.5 213.5t-20.5 212.5t-62.5 200.5l46 17q69 -97 104.5 -206t35.5 -224t-35.5 -225.5t-104.5 -204.5z" />
<glyph unicode="&#xd7;" horiz-adv-x="1094" d="M93 853l109 110l339 -339l337 336l107 -107l-337 -336l337 -337l-110 -109l-336 336l-337 -336l-107 107l337 337z" />
<glyph unicode="&#xf7;" horiz-adv-x="1081" d="M96 431v102h891v-102h-891zM439 198q0 21 8 40t21.5 33t32.5 22t40 8t40 -8t33 -22t22 -33t8 -40t-8 -40t-22 -32.5t-33 -21.5t-40 -8q-43 0 -72.5 29.5t-29.5 72.5zM439 765q0 21 8 40t21.5 33t32.5 22t40 8t40 -8t33 -22t22 -33t8 -40t-8 -40t-22 -32.5t-33 -21.5 t-40 -8q-43 0 -72.5 29.5t-29.5 72.5z" />
<glyph unicode="&#x2000;" horiz-adv-x="783" />
<glyph unicode="&#x2001;" horiz-adv-x="1566" />
<glyph unicode="&#x2002;" horiz-adv-x="783" />
<glyph unicode="&#x2003;" horiz-adv-x="1566" />
<glyph unicode="&#x2004;" horiz-adv-x="522" />
<glyph unicode="&#x2005;" horiz-adv-x="391" />
<glyph unicode="&#x2006;" horiz-adv-x="261" />
<glyph unicode="&#x2007;" horiz-adv-x="261" />
<glyph unicode="&#x2008;" horiz-adv-x="195" />
<glyph unicode="&#x2009;" horiz-adv-x="313" />
<glyph unicode="&#x200a;" horiz-adv-x="87" />
<glyph unicode="&#x2010;" d="M82 375v87h638v-87h-638z" />
<glyph unicode="&#x2011;" d="M82 375v87h638v-87h-638z" />
<glyph unicode="&#x2012;" d="M82 375v87h638v-87h-638z" />
<glyph unicode="&#x2013;" horiz-adv-x="1190" d="M82 375v87h1024v-87h-1024z" />
<glyph unicode="&#x2014;" horiz-adv-x="2214" d="M82 375v87h2048v-87h-2048z" />
<glyph unicode="&#x2018;" horiz-adv-x="438" d="M89 1213.5q4 39.5 15 74.5q19 51 51 93t77 71q20 13 38.5 19.5t26.5 -5.5q6 -6 -1.5 -16t-19.5 -22q-26 -22 -50.5 -52t-40.5 -63q-16 -34 -20 -70.5t10 -72.5q29 20 61.5 19.5t58.5 -16.5q25 -14 37.5 -37.5t12.5 -49t-11.5 -50.5t-33.5 -42q-33 -21 -72.5 -19t-70.5 28 q-29 24 -45.5 58.5t-21.5 73.5t-1 78.5z" />
<glyph unicode="&#x2019;" horiz-adv-x="424" d="M86 1361.5q0 25.5 11.5 50.5t33.5 42q33 21 72.5 19t70.5 -28q29 -24 45.5 -58.5t21.5 -73.5t1 -79t-15 -74q-19 -51 -51 -93t-77 -71q-20 -13 -38.5 -19.5t-26.5 5.5q-6 6 1.5 16t19.5 22q26 22 50.5 52t40.5 63q16 34 20 70.5t-10 72.5q-29 -20 -61.5 -19.5t-58.5 16.5 q-25 14 -37.5 37.5t-12.5 49z" />
<glyph unicode="&#x201c;" horiz-adv-x="832" d="M89 1213.5q4 39.5 15 74.5q19 51 51 93t77 71q20 13 38.5 19.5t26.5 -5.5q6 -6 -1.5 -16t-19.5 -22q-26 -22 -50.5 -52t-40.5 -63q-16 -34 -20 -70.5t10 -72.5q29 20 61.5 19.5t58.5 -16.5q25 -14 37.5 -37.5t12.5 -49t-11.5 -50.5t-33.5 -42q-33 -21 -72.5 -19t-70.5 28 q-29 24 -45.5 58.5t-21.5 73.5t-1 78.5zM499 1213.5q4 39.5 15 74.5q19 51 51 93t77 71q20 13 38.5 19.5t26.5 -5.5q6 -6 -1.5 -16t-19.5 -22q-26 -22 -50.5 -52t-40.5 -63q-16 -34 -20 -70.5t10 -72.5q29 20 61.5 19.5t58.5 -16.5q25 -14 37.5 -37.5t12.5 -49t-11.5 -50.5 t-33.5 -42q-33 -21 -72.5 -19t-70.5 28q-29 24 -45.5 58.5t-21.5 73.5t-1 78.5z" />
<glyph unicode="&#x201d;" horiz-adv-x="827" d="M65 1363.5q0 25.5 11.5 50.5t33.5 42q33 21 72.5 19t70.5 -28q29 -24 45.5 -58.5t21.5 -73.5t1 -78.5t-15 -74.5q-19 -51 -51 -93t-77 -71q-20 -13 -38.5 -19.5t-26.5 5.5q-6 6 1.5 16t19.5 22q26 22 50.5 52t40.5 63q16 34 20 70.5t-10 72.5q-29 -20 -61.5 -19.5 t-58.5 16.5q-25 14 -37.5 37.5t-12.5 49zM475 1363.5q0 25.5 11.5 50.5t33.5 42q33 21 72.5 19t70.5 -28q29 -24 45.5 -58.5t21.5 -73.5t1 -78.5t-15 -74.5q-19 -51 -51 -93t-77 -71q-20 -13 -38.5 -19.5t-26.5 5.5q-6 6 1.5 16t19.5 22q26 22 50.5 52t40.5 63 q16 34 20 70.5t-10 72.5q-29 -20 -61.5 -19.5t-58.5 16.5q-25 14 -37.5 37.5t-12.5 49z" />
<glyph unicode="&#x202f;" horiz-adv-x="313" />
<glyph unicode="&#x2039;" horiz-adv-x="484" d="M71 577l309 381l30 -12l-194 -369l194 -369l-30 -12z" />
<glyph unicode="&#x203a;" horiz-adv-x="469" d="M71 208l194 369l-194 369l30 12l309 -381l-309 -381z" />
<glyph unicode="&#x205f;" horiz-adv-x="391" />
<glyph unicode="&#x25fc;" horiz-adv-x="500" d="M0 0z" />
</font>
</defs>
</svg>
