<svg xmlns="http://www.w3.org/2000/svg" xmlns:xlink="http://www.w3.org/1999/xlink" version="1.1"><metadata/><defs><font id="almaraiextrabold" horiz-adv-x="1099"><font-face ascent="1638" descent="-410" units-per-em="2048"/><glyph horiz-adv-x="0"/><glyph horiz-adv-x="682"/><glyph horiz-adv-x="376"/><glyph horiz-adv-x="376"/><glyph horiz-adv-x="376"/><glyph d="M104 152q0 66 47 111.5t113 45.5q68 0 114 -46t46 -111q0 -68 -46 -115t-114 -47q-66 0 -113 47t-47 115zM125 352v1114h262v-1005l-133 -109h-129z" horiz-adv-x="526" unicode="!"/><glyph d="M141 999v467h265v-356l-138 -111h-127zM526 999v467h265v-356l-138 -111h-127z" horiz-adv-x="931" unicode="&quot;"/><glyph d="M43 375v211h258l39 202h-229v213h268l72 375h217l-70 -375h174l72 375h215l-72 -375h219v-213h-260l-41 -202h236v-211h-275l-71 -375h-220l72 375h-170l-71 -375h-213l67 375h-217zM516 586h174l41 202h-174z" horiz-adv-x="1247" unicode="#"/><glyph d="M188 283v102q96 -31 203 -51q100 -16 209 -21v273q-2 2 -31 12q-203 78 -282 164q-86 90 -86 221q0 145 106 236q104 88 293 106v141h129v-139q53 -4 137 -31.5t117 -50.5v-241q-147 59 -254 67v-246q236 -86 318 -166q88 -88 88 -225q0 -150 -101 -244 q-109 -98 -305 -114v-189h-129v185q-156 8 -283 51zM512 991q0 -29 12 -51q21 -34 76 -57v188q-45 -4 -63 -20q-25 -18 -25 -60zM729 326q33 4 51 12q41 27 41 88q0 39 -22 61q-17 21 -70 48v-209z" horiz-adv-x="1323" unicode="$"/><glyph d="M37 989q0 184 86 307q92 127 266 127q168 0 262 -125q90 -119 90 -307t-92 -301q-90 -113 -258 -112q-176 0 -268 118q-86 111 -86 293zM250 989q0 -109 31 -182q35 -78 108 -78q76 0 111 82q27 78 26 178q0 80 -22 178q-37 105 -115 105q-80 0 -115 -98 q-25 -90 -24 -185zM334 0l811 1378h246l-811 -1378h-246zM1006 358q0 186 86 308q94 127 266 127q166 0 260 -125q92 -117 92 -308q0 -190 -92 -301q-90 -113 -260 -112q-174 0 -266 119q-86 109 -86 292zM1221 358q0 -109 28 -182q33 -78 109 -78q74 0 108 82q31 80 31 178 q0 84 -24 179q-37 104 -115 104t-113 -98q-25 -84 -24 -185z" horiz-adv-x="1748" unicode="%"/><glyph d="M104 414q0 137 79 249.5t220 180.5q-127 147 -127 284q0 166 138 271q119 90 286 90q190 0 310 -119q102 -102 102 -252q0 -238 -252 -362l154 -185q59 39 86 105h299q-16 -180 -193 -320l307 -356h-426l-102 125q-199 -156 -405 -156q-213 0 -342 125q-133 131 -134 320 zM442 422q0 -68 43 -116t105 -48q111 0 209 100l-213 256q-143 -82 -144 -192zM584 1141q0 -76 106 -185q133 82 133 179q0 51 -33.5 83.5t-87.5 32.5q-51 0 -84.5 -31.5t-33.5 -78.5z" horiz-adv-x="1511" unicode="&amp;"/><glyph d="M141 999v467h265v-356l-138 -111h-127z" horiz-adv-x="546" unicode="'"/><glyph d="M152 616q0 240 69 455q72 225 215 395h84l115 -92q-106 -166 -158 -364q-51 -188 -51 -392q0 -227 68 -440q47 -145 141 -305l-115 -90h-84q-143 164 -215 385q-70 211 -69 448z" horiz-adv-x="727" unicode="("/><glyph d="M94 -127q94 158 142 305q68 213 67 440q0 203 -51 392q-53 199 -158 364l113 92h86q143 -170 215 -395q70 -213 70 -455q0 -238 -70 -448q-72 -221 -215 -385h-86z" horiz-adv-x="727" unicode=")"/><glyph d="M242 1094l65 194l252 -96l-6 274h211l-8 -274l252 96l69 -194l-260 -84l164 -215l-166 -123l-160 225l-157 -225l-166 123l168 215z" horiz-adv-x="1318" unicode="*"/><glyph d="M94 391v223h342v344h221v-344h340v-223h-340v-338h-221v338h-342z" horiz-adv-x="1093" unicode="+"/><glyph d="M104 150q0 68 46.5 113.5t111.5 45.5q72 0 118 -51t46 -129q0 -170 -154 -342h-86l-49 41q41 59 62 100q22 45 30 68q-125 25 -125 154z" horiz-adv-x="542" unicode=","/><glyph d="M76 391v264h506v-264h-506z" horiz-adv-x="657" unicode="-"/><glyph d="M104 152q0 66 47 111.5t113 45.5q68 0 114 -46t46 -111q0 -68 -46 -115t-114 -47q-66 0 -113 47t-47 115z" horiz-adv-x="526" unicode="."/><glyph d="M18 0l514 1378h285l-514 -1378h-285z" horiz-adv-x="837" unicode="/"/><glyph d="M76 713q0 330 125 547q133 233 385 233q287 0 424 -301q92 -205 92 -479q0 -322 -123 -520q-135 -219 -389 -220q-256 0 -389 213q-125 201 -125 527zM391 711q0 -190 45 -336q46 -142 148 -142q115 0 159 152q45 147 45 326q0 168 -34 325q-43 197 -168 197 q-117 0 -158 -184q-37 -156 -37 -338z" horiz-adv-x="1175" unicode="0"/><glyph d="M66 1098l426 368h256v-1329l-160 -137h-156v1102l-223 -184z" horiz-adv-x="888" unicode="1"/><glyph d="M66 0v264l145 139l133 144q182 193 246.5 297t64.5 205q0 156 -192 155q-92 0 -193 -67l-151 217q195 129 397 129q211 0 322 -129q94 -109 94 -289q0 -117 -55.5 -230.5t-202.5 -295.5q-86 -111 -96 -119l-150 -156h535v-102l-127 -162h-770z" horiz-adv-x="1030" unicode="2"/><glyph d="M113 121v125q160 -29 258 -29q313 0 311 186q0 96 -78 156q-53 41 -123.5 56.5t-220.5 17.5v239h236q66 0 103.5 43t37.5 113q0 182 -227 182q-92 0 -238 -45v260q172 59 285 60q217 0 354 -117q131 -113 131 -293q0 -250 -254 -330q147 -33 229 -123t82 -219 q0 -209 -176 -327q-137 -94 -323 -96h-25q-135 0 -272 28z" horiz-adv-x="1064" unicode="3"/><glyph d="M47 332v205l571 929h289v-872h154v-262h-154v-189l-159 -143h-144v332h-557zM332 594h272v459z" horiz-adv-x="1107" unicode="4"/><glyph d="M98 129v125q160 -29 258 -29q174 0 244 49.5t70 174.5q0 129 -63.5 183t-213.5 54q-80 0 -246 -20q-23 -4 -36 -4l45 804h716v-264h-430l-14 -280q35 2 61 2q248 0 379 -150q115 -129 115 -348q0 -225 -176 -344q-139 -94 -346 -94q-135 0 -273 28z" horiz-adv-x="1058" unicode="5"/><glyph d="M104 543v41q0 387 138 622q156 264 458 264q70 0 160 -28l101 -185v-45q-10 0 -56 9q-100 14 -157 14q-193 0 -284.5 -116t-101.5 -374q133 139 297 140q201 0 314 -135q98 -115 98 -291q0 -238 -133 -363q-119 -113 -324 -112q-262 0 -399 182q-111 147 -111 377z M412 465q0 -229 182 -229q74 0 121 58t47 152q0 90 -50.5 143.5t-136.5 53.5q-76 0 -119.5 -48t-43.5 -130z" horiz-adv-x="1140" unicode="6"/><glyph d="M61 1202v264h965v-196l-442 -1147l-154 -123h-233l479 1202h-615z" horiz-adv-x="1087" unicode="7"/><glyph d="M84 377q0 213 297 381q-246 141 -246 366q0 197 152 293q115 74 295 74q195 0 317 -102q119 -98 119 -263q0 -223 -256 -370q141 -70 205 -133q96 -100 96 -248q0 -207 -170 -316q-133 -86 -320 -86q-217 0 -354 113q-135 109 -135 291zM395 395q0 -168 183 -166 q184 0 184 164q0 148 -184 250q-182 -96 -183 -248zM451 1122q0 -68 32 -129q31 -59 101 -110q119 86 118 241q0 137 -124 138q-53 0 -84 -25q-43 -35 -43 -115z" horiz-adv-x="1148" unicode="8"/><glyph d="M76 995q0 240 131 367q117 117 323 117q227 0 359 -168q127 -160 127 -502q0 -356 -94 -549q-115 -231 -375 -272q-37 -4 -72 -4q-86 0 -190 24l-90 113v133q84 -31 182 -31q227 0 319 154q31 51 42.5 112.5t19.5 219.5q-53 -66 -111 -99q-82 -47 -178 -47 q-195 0 -303 144q-90 117 -90 288zM383 1012q0 -92 46 -147.5t122 -55.5q68 0 115 54t47 130q0 229 -158 230q-172 0 -172 -211z" unicode="9"/><glyph d="M104 152q0 66 46 111.5t114 45.5q66 0 113 -46t47 -111q0 -68 -47 -115t-113 -47t-113 47t-47 115zM104 621q0 66 47 112.5t113 46.5q68 0 114 -47t46 -112q0 -68 -46 -114t-114 -46q-66 0 -113 46t-47 114z" horiz-adv-x="526" unicode=":"/><glyph d="M102 621q0 66 46.5 112.5t113.5 46.5q66 0 113 -47t47 -112q0 -68 -47 -115t-113 -47q-68 0 -114 47t-46 115zM104 150q0 68 45.5 113.5t112.5 45.5q72 0 118 -51t46 -129q0 -170 -154 -342h-86l-49 41q41 59 62 100q22 45 30 68q-125 25 -125 154z" horiz-adv-x="542" unicode=";"/><glyph d="M84 600v143l903 471v-243l-586 -289l586 -256v-244z" horiz-adv-x="1073" unicode="&lt;"/><glyph d="M94 199v223h903v-223h-903zM94 561v221h903v-221h-903z" horiz-adv-x="1093" unicode="="/><glyph d="M84 182v244l586 256l-586 289v243l903 -471v-143z" horiz-adv-x="1073" unicode="&gt;"/><glyph d="M94 989q12 262 174 397q141 117 373 117q246 0 391 -135q123 -119 123 -299q0 -123 -56.5 -198.5t-226.5 -176.5q-74 -45 -94 -116q-6 -23 -8 -91h-326l2 107q2 117 66 197q33 41 133 106q82 55 107.5 89t25.5 89q0 57 -40 93t-103 36q-170 0 -178 -215h-363zM457 164 q0 66 45.5 112t113.5 46q66 0 113 -46.5t47 -111.5q0 -68 -47 -115t-113 -47q-68 0 -113.5 47t-45.5 115z" horiz-adv-x="1230" unicode="?"/><glyph d="M98 645q0 342 242 563q211 193 506 193q346 0 551 -205q186 -186 186 -483q0 -203 -100 -353t-266 -149q-119 0 -218 96q-74 -94 -200 -94q-172 0 -267 141q-74 113 -73 267q0 188 121 301q106 100 266 100q86 0 158 -25l63 50h131v-553q0 -61 51 -62q57 0 91 66.5 t34 177.5q0 266 -160 407q-137 121 -370 121q-199 0 -344 -141q-172 -164 -172 -426q0 -317 235 -494q98 -59 266 -59h9q14 -2 20 -2q147 0 248 41v-84l-105 -129q-113 -31 -225 -31q-340 0 -526 252q-152 205 -152 514zM705 618q0 -92 43 -148t116 -56q35 0 80 18v371 q-45 10 -80 10q-74 0 -116.5 -52t-42.5 -143z" horiz-adv-x="1681" unicode="@"/><glyph d="M-8 0l549 1466h389l549 -1466h-398l-94 268h-508l-94 -268h-393zM567 543h332l-70 198q-61 180 -94 330q-41 -160 -100 -334z" horiz-adv-x="1470" unicode="A"/><glyph d="M135 0v1466h705q215 0 325 -55q188 -94 189 -313q0 -199 -193 -297q86 -31 127 -64q135 -102 135 -299q0 -244 -196 -362q-125 -76 -342 -76h-750zM518 301h301q217 0 217 168q0 170 -225 170h-293v-338zM518 889h273q190 0 190 141q0 143 -201 144h-262v-285z" horiz-adv-x="1495" unicode="B"/><glyph d="M72 735q0 322 194 541q203 227 547 227q287 0 477 -178q164 -154 178 -377h-372q-23 100 -70 152q-80 88 -219 88q-172 0 -266 -137q-80 -121 -80 -318q0 -227 102 -348q90 -106 240 -106q154 0 233 112q43 61 60 180h383q-14 -229 -158 -395q-182 -213 -520 -213 q-360 0 -559 250q-170 211 -170 522z" horiz-adv-x="1527" unicode="C"/><glyph d="M135 0v1466h627q322 0 502 -163q223 -201 223 -560q0 -371 -209 -573q-174 -170 -518 -170h-625zM518 315h211q180 0 266 93q102 113 103 323q0 240 -142 348q-96 72 -254 72h-184v-836z" horiz-adv-x="1556" unicode="D"/><glyph d="M135 0v1466h1174v-315h-791v-244h723v-301h-723v-291h809v-315h-1192z" horiz-adv-x="1409" unicode="E"/><glyph d="M135 0v1466h1084v-315h-701v-287h606v-299h-606v-565h-383z" horiz-adv-x="1255" unicode="F"/><glyph d="M72 729q0 369 233 586q203 188 510 188q279 0 463 -168q160 -145 182 -366h-370q-49 219 -281 219q-168 0 -258 -120t-90 -343q0 -446 364 -446q268 0 308 245h-267v273h617v-797h-246q-20 94 -20 135v10v15q-156 -197 -441 -197q-338 0 -534 240q-170 209 -170 526z" horiz-adv-x="1595" unicode="G"/><glyph d="M135 0v1466h383v-530h498v530h383v-1466h-383v606h-498v-606h-383z" horiz-adv-x="1531" unicode="H"/><glyph d="M135 0v1466h383v-1466h-383z" horiz-adv-x="651" unicode="I"/><glyph d="M12 518v64h350v-39q0 -154 25 -199q34 -65 126 -65h3q76 0 107.5 43t31.5 147v997h383v-981q0 -238 -104 -362q-137 -160 -406 -160q-322 0 -448 217q-68 117 -68 338z" horiz-adv-x="1150" unicode="J"/><glyph d="M135 0v1466h383v-366v-109v-100q80 111 135 174l353 401h473l-545 -575l612 -891h-475l-395 614l-158 -161v-453h-383z" horiz-adv-x="1507" unicode="K"/><glyph d="M135 0v1466h383v-1136h688v-330h-1071z" horiz-adv-x="1263" unicode="L"/><glyph d="M135 0v1466h549l158 -510q70 -223 119 -510q68 328 124 519l150 501h541v-1466h-363v330q0 317 19 786q-78 -330 -158 -581l-170 -535h-293l-172 520q-76 227 -160 596q18 -418 19 -737v-379h-363z" horiz-adv-x="1908" unicode="M"/><glyph d="M135 0v1466h387l365 -620q106 -184 164 -307q-16 215 -17 379v548h373v-1466h-373l-395 666l-84 149q-23 37 -61 125q14 -162 14 -373v-567h-373z" horiz-adv-x="1538" unicode="N"/><glyph d="M72 733q0 367 217 574q209 196 512 196q342 0 545 -241q174 -211 174 -529q0 -367 -226 -581q-197 -188 -493 -189q-348 0 -553 242q-176 209 -176 528zM461 735q0 -227 102 -350q90 -106 238 -106q156 0 244 121.5t88 340.5q0 223 -103 342q-88 105 -231 105 q-166 0 -258 -139q-80 -119 -80 -314z" horiz-adv-x="1591" unicode="O"/><glyph d="M135 0v1466h604q291 0 420 -88q201 -135 201 -409q0 -223 -152 -361q-131 -119 -387 -119h-303v-489h-383zM518 791h252q217 0 217 180q0 176 -231 178l-238 2v-360z" horiz-adv-x="1413" unicode="P"/><glyph d="M72 731q0 360 233 580q200 192 493 192h3q332 0 536 -243q176 -211 176 -517q-2 -342 -182 -528l193 -211l-187 -170l-198 217l-6 6l-7 -4q-139 -90 -346 -90q-336 0 -536 242q-172 209 -172 526zM461 735q0 -221 100 -348q89 -108 227 -108h3q55 0 102 16l31 10l-2 2 l-172 178l182 168l147 -164q45 86 47 246q0 227 -100 348q-86 104 -231 105q-156 0 -245 -121t-89 -332z" horiz-adv-x="1585" unicode="Q"/><glyph d="M131 0v1466h723q223 0 340 -69q199 -117 199 -355q0 -123 -61.5 -219t-166.5 -139q92 -25 148 -111q37 -57 50 -117.5t32 -273.5q14 -135 37 -168l12 -14h-391q-18 43 -43 307q-16 133 -73.5 185.5t-186.5 52.5h-236v-545h-383zM514 819h270q231 0 232 176 q0 170 -236 170h-266v-346z" horiz-adv-x="1533" unicode="R"/><glyph d="M35 494h385q12 -233 285 -234q223 0 223 150q0 70 -58.5 103.5t-289.5 98.5q-281 80 -377 162q-113 96 -113 279q0 217 180 342q157 108 400 108h4q293 0 446 -141q133 -123 137 -336h-364q-8 180 -236 180q-198 0 -198 -128q0 -60 53 -87q45 -23 289 -84 q231 -59 336 -125q180 -111 180 -331q0 -242 -191 -373q-166 -115 -436 -115q-328 0 -500 158q-152 137 -155 373z" horiz-adv-x="1380" unicode="S"/><glyph d="M35 1137v329h1255v-329h-438v-1137h-381v1137h-436z" horiz-adv-x="1327" unicode="T"/><glyph d="M113 598v868h383v-897q0 -154 62.5 -222t201.5 -68q129 0 188.5 68.5t59.5 221.5v897h381v-872q0 -293 -121 -438q-160 -193 -516 -193q-379 0 -539 217q-100 137 -100 418z" horiz-adv-x="1501" unicode="U"/><glyph d="M-8 1466h401l133 -426q113 -358 156 -663q47 307 158 661l133 428h401l-477 -1466h-440z" horiz-adv-x="1366" unicode="V"/><glyph d="M-6 1466h385l110 -473q66 -289 103 -598q41 317 102 592l111 479h364l103 -450q72 -319 108 -621q43 346 115 643l100 428h385l-403 -1466h-383l-115 494q-31 125 -61 323q-20 125 -35 199q-10 -63 -31 -195q-23 -156 -59 -321l-111 -500h-389z" horiz-adv-x="1974" unicode="W"/><glyph d="M-27 0l525 772l-480 694h451l145 -241q66 -109 111 -211q45 102 102 194l154 258h426l-469 -694l520 -772h-465l-180 293q-59 96 -104 199q-41 -92 -111 -203l-182 -289h-443z" horiz-adv-x="1433" unicode="X"/><glyph d="M-49 1466h434l170 -311q70 -127 129 -283q72 182 139 306l162 288h428l-541 -915v-551h-383v551z" horiz-adv-x="1361" unicode="Y"/><glyph d="M49 0v309l594 678q43 51 160 154h-43q-63 -2 -86 -2q-121 -2 -142 -2h-438v329h1202v-295l-565 -643q-47 -53 -199 -209q205 10 306 11h487v-330h-1276z" horiz-adv-x="1370" unicode="Z"/><glyph d="M141 -209v1675h480v-227h-207v-1221h207v-227h-480z" horiz-adv-x="761" unicode="["/><glyph d="M18 1378h285l514 -1378h-285z" horiz-adv-x="837" unicode="\"/><glyph d="M141 18h207v1221h-207v227h480v-1675h-480v227z" horiz-adv-x="761" unicode="]"/><glyph d="M23 754l317 723h422l317 -723h-334l-194 467l-195 -467h-333z" unicode="^"/><glyph d="M-8 -174h801v-131h-801v131z" horiz-adv-x="786" unicode="_"/><glyph d="M190 1505h365l178 -295h-219z" unicode="`"/><glyph d="M49 297q0 195 172 274q74 33 303 76l242 45v64q-4 116 -159 116h-3q-86 0 -126 -29.5t-52 -105.5h-330q18 354 512 355q262 0 393 -95q61 -47 84 -105t23 -177q0 -20 -2 -127v-23l-2 -176v-96q0 -25 -2 -78v-45q0 -115 43 -170h-354q-16 51 -19 100q-98 -129 -348 -129 q-186 0 -287 99q-88 86 -88 227zM403 307q0 -125 142 -125q119 0 184 84q37 45 39 144l2 75l-160 -34q-125 -29 -166 -57.5t-41 -86.5z" horiz-adv-x="1202" unicode="a"/><glyph d="M121 0v1466h348v-526q125 156 311 156q219 0 344 -172q109 -147 109 -379q0 -279 -148 -436q-129 -137 -329 -138q-184 0 -299 154v-125h-336zM459 543q0 -133 56 -210t157 -77q96 0 152.5 77t56.5 210q0 127 -57.5 202.5t-153.5 75.5t-153.5 -75.5t-57.5 -202.5z" horiz-adv-x="1294" unicode="b"/><glyph d="M59 522q0 276 174 432q154 137 390 138q240 0 383 -127q127 -113 139 -287h-338q-27 160 -178 160q-215 0 -215 -314q0 -293 209 -293q166 0 194 187h336q-31 -227 -188 -344q-137 -102 -344 -103q-270 0 -426 172q-135 150 -136 379z" horiz-adv-x="1204" unicode="c"/><glyph d="M63 539q0 268 142 419q123 135 313 136q199 0 307 -154v526h351v-1466h-351v125q-92 -154 -288 -154q-229 0 -361 174q-113 154 -113 394zM418 537q0 -281 209 -281q100 0 156.5 75t56.5 206q0 133 -57.5 208.5t-155.5 75.5q-100 0 -154.5 -74.5t-54.5 -209.5z" horiz-adv-x="1294" unicode="d"/><glyph d="M59 522q0 268 181 430q156 139 387 140q281 0 432 -185q133 -162 133 -424v-32h-791q4 -115 67.5 -179.5t172.5 -64.5q133 0 203 119h327q-25 -94 -94 -174q-158 -180 -436 -181q-252 0 -408 140q-174 156 -174 411zM406 649h444q-27 207 -219 207q-195 0 -225 -207z" horiz-adv-x="1249" unicode="e"/><glyph d="M-2 834v229h168v49q0 190 95 273t312 83q58 0 164 -6v-245q-51 4 -90 4q-82 0 -106.5 -18.5t-24.5 -76.5v-63h207v-229h-207v-834h-350v834h-168z" horiz-adv-x="751" unicode="f"/><glyph d="M63 567q0 254 142 400q123 125 315 125q190 0 299 -164v135h336v-922q0 -215 -72 -323q-131 -195 -465 -195q-477 0 -520 342h348q33 -117 177 -117q109 0 152.5 53.5t43.5 184.5v117q-111 -150 -307 -150q-221 0 -342 158q-106 137 -107 356zM406 571q0 -121 56 -191.5 t154 -70.5q96 0 152.5 70t56.5 190q0 121 -56.5 189.5t-154.5 68.5q-96 0 -152 -68.5t-56 -187.5z" horiz-adv-x="1273" unicode="g"/><glyph d="M121 0v1466h348v-542q125 168 336 168q215 0 315 -144q63 -94 64 -278v-670h-348v606q0 104 -33 146q-45 55 -135 55q-117 0 -170 -94q-29 -49 -29 -181v-532h-348z" horiz-adv-x="1294" unicode="h"/><glyph d="M121 0v1063h348v-1063h-348zM135 1346q0 68 46 113.5t114 45.5q66 0 113 -46t47 -113q0 -66 -47.5 -113t-112.5 -47q-68 0 -114 47t-46 113z" horiz-adv-x="587" unicode="i"/><glyph d="M-59 -82q18 2 75 2q82 2 97 57q8 27 8 170v916h348v-1051q0 -147 -31 -221q-70 -156 -352 -156q-51 0 -145 5v278zM135 1346q0 68 46 113.5t112 45.5q68 0 115 -46t47 -113q0 -66 -47.5 -113t-114.5 -47q-66 0 -112 47t-46 113z" horiz-adv-x="587" unicode="j"/><glyph d="M121 0v1466h348v-766q41 61 76 99l248 264h403l-391 -397l444 -666h-418l-264 430l-98 -90v-340h-348z" horiz-adv-x="1228" unicode="k"/><glyph d="M121 0v1466h348v-1466h-348z" horiz-adv-x="587" unicode="l"/><glyph d="M121 0v1063h336v-141q119 170 327 170q211 0 299 -170q129 170 338 170q184 0 285 -115q86 -102 86 -270v-707h-348v616q0 190 -148 191q-100 0 -143 -82q-23 -43 -23 -141v-584h-348v631q0 176 -141 176q-172 0 -172 -223v-584h-348z" horiz-adv-x="1902" unicode="m"/><glyph d="M121 0v1063h336v-141q127 170 348 170q213 0 311 -142q63 -94 64 -291v-659h-351v602q0 84 -16 125q-33 80 -145 80q-123 0 -172 -94q-27 -49 -27 -146v-567h-348z" horiz-adv-x="1290" unicode="n"/><glyph d="M59 532q0 266 177 424q154 135 385 136q270 0 428 -174q135 -150 135 -383q0 -268 -176 -426q-154 -138 -385 -138q-268 0 -426 176q-137 154 -138 385zM414 532q0 -307 209 -307q208 0 208 307q0 306 -213 306q-98 0 -151 -80t-53 -226z" horiz-adv-x="1243" unicode="o"/><glyph d="M121 -358v1421h336v-125q113 154 311 154q223 0 352 -177q113 -154 113 -391q0 -268 -141 -422q-121 -131 -312 -131q-195 0 -311 152v-481h-348zM459 522q0 -133 55 -206.5t156 -73.5q209 0 209 280q0 285 -209 285q-100 0 -155.5 -75t-55.5 -210z" horiz-adv-x="1294" unicode="p"/><glyph d="M63 522q0 276 146 432q125 137 321 138q207 0 310 -152v123h336v-1421h-349v483q-117 -156 -307 -156q-223 0 -348 172q-109 147 -109 381zM418 516q0 -274 207 -274q213 0 213 282q0 283 -215 283q-98 0 -151.5 -77t-53.5 -214z" horiz-adv-x="1294" unicode="q"/><glyph d="M121 0v1063h336v-182q61 211 342 211q33 0 82 -23l-2 -287q-76 23 -144 23q-266 0 -266 -342v-463h-348z" horiz-adv-x="899" unicode="r"/><glyph d="M18 332h342q8 -74 50.5 -103.5t140.5 -29.5q164 0 164 108q0 47 -39 68.5t-184 54.5q-227 49 -310 94q-131 74 -131 238q0 160 127 245t361 85q289 0 411 -138q74 -79 82 -190h-321q-8 61 -48 87t-131 26q-139 0 -139 -86q0 -45 44 -65.5t204 -51.5q231 -45 324.5 -120 t93.5 -216q0 -184 -154 -283q-135 -84 -358 -84q-283 0 -418 133q-66 66 -85 104t-26 124z" horiz-adv-x="1116" unicode="s"/><glyph d="M-16 834v229h178v225l348 182v-407h252v-229h-252v-439q0 -147 133 -147q78 0 123 31l61 -250q-100 -43 -292 -43q-238 0 -318 102q-35 45 -45 98.5t-10 175.5v472h-178z" horiz-adv-x="770" unicode="t"/><glyph d="M113 397v666h348v-567q0 -137 26 -177q41 -63 140 -63q121 0 172 100q22 45 22 162v10v535h350v-1063h-350v143q-100 -172 -332 -172q-203 0 -305 133q-71 91 -71 288v5z" horiz-adv-x="1290" unicode="u"/><glyph d="M-16 1063h368l109 -369q61 -201 88 -383q23 145 86 367l115 385h352l-352 -1063h-406z" horiz-adv-x="1085" unicode="v"/><glyph d="M-14 1063h360l94 -352q43 -160 82 -404q41 256 80 418l80 338h324l90 -375q45 -182 73 -381q35 229 74 375l100 381h357l-332 -1063h-354l-105 406q-37 141 -67 352q-35 -221 -68 -352l-100 -406h-355z" horiz-adv-x="1687" unicode="w"/><glyph d="M-35 0l373 563l-338 500h385l82 -133q18 -27 68 -129q55 104 75 139l74 123h373l-336 -500l379 -563h-383l-115 178q-20 35 -67 144q-41 -88 -78 -146l-109 -176h-383z" horiz-adv-x="1067" unicode="x"/><glyph d="M-18 1063h370l148 -471q27 -88 57 -248q41 182 66 260l139 459h356l-385 -1073q-80 -221 -172 -291t-303 -70q-113 0 -256 25l55 276q45 -16 117 -16q113 0 143 47q33 47 33 105q0 12 -6 26z" horiz-adv-x="1103" unicode="y"/><glyph d="M51 0v264l361 371q41 43 190 164h-49h-76h-383v264h934v-264l-369 -387q-23 -23 -81 -72q-37 -31 -95 -76q47 -4 68 -4l102 4h416v-264h-1018z" horiz-adv-x="1091" unicode="z"/><glyph d="M33 510v240q242 0 241 157v11v292q0 143 82 201q55 37 146 49q14 4 51 8q10 0 14 2l119 -149v-86q-39 -2 -61 -6q-16 -6 -33 -19q-45 -31 -45 -106v-258q-8 -176 -221 -209v-12q221 -33 221 -199v-10v-258q0 -129 131 -129h8v-88l-119 -150q-6 2 -18 2q-31 4 -45 6 q-92 14 -148 51q-82 55 -82 201v291q0 168 -241 168z" horiz-adv-x="782" unicode="{"/><glyph d="M141 57v1352h174v-1352h-174z" horiz-adv-x="456" unicode="|"/><glyph d="M94 29h10q131 0 132 129v258v10q0 166 219 199v12q-213 33 -219 209v258q0 76 -46 106q-20 14 -49 21q-23 4 -47 4v86l119 149q6 -2 23 -4q29 -2 40 -6q94 -12 148 -49q84 -57 84 -201v-292q-2 -6 -2 -11q0 -158 242 -157v-240q-240 0 -240 -168v-291q0 -145 -84 -201 q-55 -37 -156 -53q-18 -2 -53 -6l-121 150v88z" horiz-adv-x="782" unicode="}"/><glyph d="M203 625q125 317 338 317q68 0 243 -72q125 -49 158 -49q78 0 143 127l185 -153q-72 -172 -150 -244t-196 -72q-72 0 -246 74q-109 45 -154 45q-71 0 -139 -127z" horiz-adv-x="1466" unicode="~"/><glyph d="M164 -41l96 616h172l96 -610v-368h-364v362zM172 897q0 68 46 114t114 46q66 0 113 -46t47 -114q0 -66 -47.5 -113t-112.5 -47q-68 0 -114 47t-46 113z" horiz-adv-x="737" unicode="¡"/><glyph d="M188 700q0 254 105 390q94 121 278 145v164h179v-156q59 0 141 -18q80 -18 119 -37l-88 -230q-43 20 -95 35q-57 14 -100 15q-121 0 -170 -78q-45 -68 -45 -221q0 -295 225 -295q51 0 117 14q35 6 107 27q14 4 24 6v-123l-129 -160q-6 0 -27 -2q-53 -4 -79 -4v-190h-179 v194q-184 25 -278 146q-104 131 -105 378z" horiz-adv-x="1191" unicode="¢"/><glyph d="M188 0v252q82 41 123 88q43 53 43 154v86h-164v225h164v196q0 213 113 318q100 90 285 90q100 0 154.5 -15.5t137.5 -66.5v-233q-152 59 -264 59q-51 0 -82 -27q-33 -35 -32 -118v-203h305v-225h-305v-84q0 -131 -29 -191q68 16 160 17q209 0 366 -68v-117l-108 -137 q-168 53 -387 53q-217 0 -480 -53z" horiz-adv-x="1353" unicode="£"/><glyph d="M113 983l151 150l121 -119q82 47 178 47q94 0 182 -49l119 121l154 -146l-121 -121q47 -86 47 -184q0 -96 -47 -184l117 -117l-150 -150l-119 119q-90 -45 -182 -45q-109 0 -182 43l-117 -115l-149 150l118 117q-47 88 -47 182q0 92 47 182zM399 682q0 -68 50 -117 q49 -49 114 -49q70 0 121 49q49 47 49 117q0 72 -49 119q-51 47 -121 47q-66 0 -114 -47q-50 -51 -50 -119z" horiz-adv-x="1130" unicode="¤"/><glyph d="M57 1378h281l209 -534l213 534h278l-297 -700h172v-176h-217v-125h217v-178h-217v-78l-151 -121h-144v199h-223v178h223v125h-223v176h170z" horiz-adv-x="1093" unicode="¥"/><glyph d="M141 57v566h174v-566h-174zM141 844v565h174v-565h-174z" horiz-adv-x="456" unicode="¦"/><glyph d="M111 627q0 219 211 291q-82 88 -82 200q0 162 139 262q123 86 299 86q205 0 323 -120q105 -107 109 -271h-289q-6 141 -141 142q-125 0 -125 -105q0 -43 33 -70.5t147 -80.5q258 -123 328 -168q150 -98 149 -261q0 -102 -53 -180t-147 -112q102 -94 102 -226 q0 -180 -141 -282q-121 -90 -309 -90q-223 0 -349 118q-106 104 -106 273v12v8h289q14 -154 164 -153q135 0 135 114q0 57 -47.5 93t-233.5 118q-256 113 -319 183q-86 94 -86 219zM395 659q0 -45 48.5 -77.5t252.5 -132.5l25 -13q35 -16 41 -20q47 -23 82 -33q84 23 84 104 q0 37 -23.5 60.5t-99.5 60.5l-62 31q-188 100 -262 123q-86 -14 -86 -103z" horiz-adv-x="1318" unicode="§"/><glyph d="M133 1346q0 68 46 113.5t114 45.5q66 0 113 -46t47 -113q0 -66 -47.5 -113t-112.5 -47q-68 0 -114 47t-46 113zM528 1346q0 68 46 113.5t112 45.5q68 0 115 -46t47 -113q0 -66 -47 -113t-115 -47q-66 0 -112 47t-46 113z" unicode="¨"/><glyph d="M94 688q0 193 96 359q94 162 256 256q167 96 357 96t358 -96q160 -94 254 -256q96 -168 96 -359q0 -188 -96 -356q-92 -160 -254 -254q-166 -96 -358 -96q-193 0 -357 96q-164 94 -256 254q-96 166 -96 356zM236 688q0 -233 167 -399q166 -168 400 -168q236 0 401 168 q166 164 166 399q0 238 -166 404q-163 165 -401 165q-236 0 -400 -165q-168 -168 -167 -404zM430 690q0 205 98 320q104 123 301 123q139 0 299 -78l-73 -168q-106 55 -211 55q-70 0 -115 -45q-66 -68 -65 -209q0 -172 84 -229q41 -23 96 -23q51 0 104 10q74 14 135 48v-105 l-100 -127q-53 -16 -143 -16q-201 0 -305 123q-104 117 -105 321z" horiz-adv-x="1605" unicode="©"/><glyph d="M90 616v132h698v-132h-698zM115 1047q0 109 102 153q25 10 94 23q33 6 58 10l153 31q0 51 -18.5 69.5t-67.5 18.5q-86 0 -98 -74h-197q8 205 295 205q152 0 226 -53q63 -45 63 -154q0 -16 -2 -84v-96v-52q0 -104 27 -165h-215q-6 25 -11 49q-78 -63 -190 -64 q-102 0 -160.5 48.5t-58.5 134.5zM326 1051q0 -61 75 -62q113 0 119 119l2 39l-92 -21q-61 -14 -82.5 -29.5t-21.5 -45.5z" horiz-adv-x="878" unicode="ª"/><glyph d="M76 532v27l280 414h119l129 -107l-211 -319l211 -322l-129 -106h-119zM590 532v27l280 414h119l129 -107l-211 -319l211 -322l-129 -106h-119z" horiz-adv-x="1191" unicode="«"/><glyph d="M74 315v332h952v-647h-371v315h-581z" unicode="¬"/><glyph d="M0 389v305h557v-305h-557z" horiz-adv-x="557" unicode="­"/><glyph d="M94 688q0 193 96 359q94 162 256 256q167 96 357 96t358 -96q160 -94 254 -256q96 -168 96 -359q0 -188 -96 -356q-92 -160 -254 -254q-166 -96 -358 -96q-193 0 -357 96q-164 94 -256 254q-96 166 -96 356zM236 688q0 -233 167 -399q166 -168 400 -168q236 0 401 168 q166 164 166 399q0 238 -166 404q-163 165 -401 165q-236 0 -400 -165q-168 -168 -167 -404zM492 272v832h348q123 0 206.5 -82t83.5 -201q0 -143 -131 -209l140 -264l-90 -76h-95l-153 301h-86v-301h-223zM715 727h90q57 0 92 37q23 27 23 63q0 55 -25 88q-29 33 -88 33 h-92v-221z" horiz-adv-x="1605" unicode="®"/><glyph d="M213 1528v170h674v-170h-674z" unicode="¯"/><glyph d="M84 1065q0 137 96 235q100 98 238 99q139 0 237 -99q94 -98 95 -235q0 -139 -95 -236q-98 -96 -237 -96q-137 0 -238 96q-96 97 -96 236zM281 1065q0 -63 38 -111q43 -47 99 -47q55 0 96 47q43 49 43 111q0 63 -43 113q-39 47 -96 47t-99 -47q-38 -47 -38 -113z" horiz-adv-x="835" unicode="°"/><glyph d="M125 0v240h1071v-240h-1071zM125 653v242h416v414h239v-414h416v-242h-416v-356h-239v356h-416z" horiz-adv-x="1318" unicode="±"/><glyph d="M61 586v16q0 141 103 238q68 63 285 188q70 41 94 69.5t24 67.5q0 96 -118 97q-131 0 -138 -170h-229v20q0 164 98.5 255t276.5 91q170 0 268 -86q86 -74 86 -186q0 -127 -115 -213q-37 -29 -170 -101t-168 -102q98 6 172 6h293v-190h-762z" horiz-adv-x="894" unicode="²"/><glyph d="M55 879q0 8 2 26h232v-4v-8q0 -133 147 -133q143 0 144 100q0 102 -156 103q-25 0 -64 -2v155q23 -4 43 -4q164 0 164 82q0 84 -123 84q-131 0 -133 -125h-231q4 145 99 225t265 80q172 0 269 -78q84 -66 84 -170q0 -113 -109 -161q141 -49 141 -191q0 -129 -105.5 -207 t-279.5 -78q-203 0 -305 99q-84 84 -84 207z" horiz-adv-x="892" unicode="³"/><glyph d="M367 1210l180 295h362l-321 -295h-221z" unicode="´"/><glyph d="M55 -377v1432h322v-539q0 -123 26 -174q53 -94 150 -94q172 0 172 274v533h322v-1055h-322v131q-55 -152 -178 -151q-106 0 -170 124v-481h-322z" unicode="µ"/><glyph d="M106 1083q0 229 183 326q106 57 321 57h559v-147h-100v-1677h-188v1677h-168v-1677h-187v1067h-28q-186 0 -295 116q-96 102 -97 258z" horiz-adv-x="1318" unicode="¶"/><glyph d="M131 524v375h379v-375h-379z" horiz-adv-x="643" unicode="·"/><glyph d="M299 -410l41 91q106 -37 176 -37q96 0 96 73q0 74 -90 74q-31 0 -78 -16l-47 45l117 180h104l-79 -131q53 10 84 10q82 0 132 -42t50 -109q0 -84 -70.5 -136.5t-183.5 -52.5q-121 0 -252 51z" unicode="¸"/><glyph d="M172 1104v166q137 4 205 49q55 37 69 125h203v-858h-256v518h-119h-102z" horiz-adv-x="894" unicode="¹"/><glyph d="M90 616v132h698v-132h-698zM115 1174q0 137 90 223t233 86q145 0 235.5 -85t90.5 -222q0 -139 -90.5 -225.5t-233.5 -86.5q-156 0 -245 97q-80 86 -80 213zM328 1174q0 -160 112 -160q111 0 111 160q0 159 -113 159q-111 0 -110 -159z" horiz-adv-x="878" unicode="º"/><glyph d="M76 225l211 322l-211 319l129 107h119l280 -414v-27l-280 -413h-119zM582 866l129 107h120l279 -414v-27l-279 -413h-120l-127 106l209 322z" horiz-adv-x="1185" unicode="»"/><glyph d="M33 1135l315 243h199v-737l-123 -102h-123v567l-156 -113zM324 0l811 1378h243l-811 -1378h-243zM950 139v127l410 565h227v-532h99v-160h-99v-57l-112 -82h-136v139h-389zM1149 299h190v260z" horiz-adv-x="1720" unicode="¼"/><glyph d="M33 1135l315 243h199v-737l-123 -102h-123v567l-156 -113zM326 0l811 1378h245l-813 -1378h-243zM1094 0l2 188l114 97q57 49 127 108q29 23 39 33q104 100 105 160q0 10 -2 20t-15 27q-4 4 -6 8q-31 29 -78 29q-39 0 -120 -52q-10 -6 -17 -10l-115 142q147 102 310 102 q117 0 194.5 -68.5t77.5 -171.5q0 -113 -121 -225q-12 -10 -59 -53l-94 -82l-52 -45h359v-88l-103 -119h-546z" horiz-adv-x="1789" unicode="½"/><glyph d="M33 637v88q109 -35 162 -35q106 0 149 41q27 25 27 66q0 51 -59.5 83.5t-155.5 32.5h-15v150h105q94 0 94 78q0 43 -39 68.5t-102 25.5q-31 0 -119 -23v160q106 33 176 33q139 0 227 -64.5t95 -171.5q-4 -55 -25 -92q-43 -70 -147 -94q86 -10 147 -65q63 -57 63 -132 q0 -109 -94 -179t-239 -70q-117 0 -177 18zM371 0l813 1378h243l-811 -1378h-245zM1004 139v127l407 565h229v-532h99v-160h-99v-57l-112 -82h-135v139h-389zM1204 299h189v260z" horiz-adv-x="1771" unicode="¾"/><glyph d="M74 -6q0 152 98 244q57 51 188 133q94 57 101 202h323v-32q0 -145 -45 -230q-35 -68 -157 -147q-78 -51 -105.5 -87t-27.5 -87q0 -57 40.5 -95t106.5 -38q176 0 176 213v4h361q-10 -258 -172 -396q-143 -119 -373 -118q-244 0 -389 137q-125 119 -125 297zM451 915 q0 68 46.5 114t112.5 46q68 0 114 -46t46 -114q0 -66 -46 -112.5t-114 -46.5q-66 0 -112.5 47t-46.5 112z" horiz-adv-x="1226" unicode="¿"/><glyph d="M-8 0l549 1466h389l549 -1466h-398l-94 268h-508l-94 -268h-393zM301 1880h395l207 -283h-250zM567 543h332l-70 198q-61 180 -94 330q-41 -160 -100 -334z" horiz-adv-x="1470" unicode="À"/><glyph d="M-8 0l549 1466h389l549 -1466h-398l-94 268h-508l-94 -268h-393zM559 1597l209 283h393l-352 -283h-250zM567 543h332l-70 198q-61 180 -94 330q-41 -160 -100 -334z" horiz-adv-x="1470" unicode="Á"/><glyph d="M-8 0l549 1466h389l549 -1466h-398l-94 268h-508l-94 -268h-393zM340 1597l244 283h305l241 -283h-266l-133 152l-133 -152h-258zM567 543h332l-70 198q-61 180 -94 330q-41 -160 -100 -334z" horiz-adv-x="1470" unicode="Â"/><glyph d="M-8 0l549 1466h389l549 -1466h-398l-94 268h-508l-94 -268h-393zM346 1602q33 268 232 268q63 0 241 -68q43 -16 74 -16q72 0 86 90h160q-29 -137 -66 -186q-63 -84 -155 -84q-82 0 -211 49q-88 35 -119 35q-66 0 -84 -88h-158zM567 543h332l-70 198q-61 180 -94 330 q-41 -160 -100 -334z" horiz-adv-x="1470" unicode="Ã"/><glyph d="M-8 0l549 1466h389l549 -1466h-398l-94 268h-508l-94 -268h-393zM356 1743q0 68 46 114t114 46t114 -46.5t46 -113.5q0 -66 -47 -113t-113 -47t-113 47t-47 113zM567 543h332l-70 198q-61 180 -94 330q-41 -160 -100 -334zM795 1743q0 68 46.5 114t112.5 46 q68 0 114 -46.5t46 -113.5q0 -66 -46 -113t-114 -47q-66 0 -112.5 47t-46.5 113z" horiz-adv-x="1470" unicode="Ä"/><glyph d="M-8 0l549 1466h389l549 -1466h-398l-94 268h-508l-94 -268h-393zM455 1778q0 92 81.5 156.5t198.5 64.5t199 -64.5t82 -156.5t-82 -157t-199 -65t-198.5 65t-81.5 157zM567 543h332l-70 198q-61 180 -94 330q-41 -160 -100 -334zM616 1778q0 -45 35 -77t84 -32t84 32 t35 77t-35 76.5t-84 31.5t-84 -31.5t-35 -76.5z" horiz-adv-x="1470" unicode="Å"/><glyph d="M-35 0l688 1466h1336v-315h-684v-244h639v-301h-639v-291h702v-315h-1065v260h-450l-117 -260h-410zM606 535h336v628h-63z" horiz-adv-x="2088" unicode="Æ"/><glyph d="M72 735q0 322 194 541q203 227 547 227q287 0 477 -178q164 -154 178 -377h-372q-23 100 -70 152q-80 88 -219 88q-172 0 -266 -137q-80 -121 -80 -318q0 -227 102 -348q90 -106 240 -106q154 0 233 112q43 61 60 180h383q-20 -303 -234 -469q-180 -139 -448 -139h-6 l-58 -92q55 12 86 12q80 0 131 -43t51 -110q0 -82 -71.5 -135.5t-181.5 -53.5q-121 0 -252 51l41 93q106 -39 174 -39q98 0 98 73q0 76 -90 76q-31 0 -80 -16l-45 43l100 147q-293 43 -452 244q-170 211 -170 522z" horiz-adv-x="1527" unicode="Ç"/><glyph d="M135 0v1466h1174v-315h-791v-244h723v-301h-723v-291h809v-315h-1192zM315 1880h394l209 -283h-252z" horiz-adv-x="1409" unicode="È"/><glyph d="M135 0v1466h1174v-315h-791v-244h723v-301h-723v-291h809v-315h-1192zM520 1597l209 283h393l-350 -283h-252z" horiz-adv-x="1409" unicode="É"/><glyph d="M135 0v1466h1174v-315h-791v-244h723v-301h-723v-291h809v-315h-1192zM328 1597l243 283h306l241 -283h-266l-133 152l-133 -152h-258z" horiz-adv-x="1409" unicode="Ê"/><glyph d="M135 0v1466h1174v-315h-791v-244h723v-301h-723v-291h809v-315h-1192zM338 1743q0 68 46 114t114 46q66 0 112.5 -46.5t46.5 -113.5q0 -66 -47 -113t-112 -47q-68 0 -114 47t-46 113zM776 1743q0 68 47 114t113 46q68 0 114 -46.5t46 -113.5q0 -66 -46 -113t-114 -47 q-66 0 -113 47t-47 113z" horiz-adv-x="1409" unicode="Ë"/><glyph d="M-63 1880h387l178 -283h-244zM133 0v1466h383v-1466h-383z" horiz-adv-x="651" unicode="Ì"/><glyph d="M135 0v1466h383v-1466h-383zM150 1597l178 283h387l-322 -283h-243z" horiz-adv-x="651" unicode="Í"/><glyph d="M-41 1597l215 283h305l211 -283h-258l-110 152l-113 -152h-250zM133 0v1466h383v-1466h-383z" horiz-adv-x="651" unicode="Î"/><glyph d="M-25 1743q0 68 46 114t114 46q66 0 113 -46.5t47 -113.5q0 -66 -47 -113t-113 -47q-68 0 -114 47t-46 113zM135 0v1466h383v-1466h-383zM365 1743q0 68 45.5 114t113.5 46t114 -46.5t46 -113.5q0 -66 -47 -113t-113 -47t-112.5 47t-46.5 113z" horiz-adv-x="651" unicode="Ï"/><glyph d="M10 653v219h125v594h625q322 0 504 -163q223 -201 223 -560q0 -371 -209 -573q-176 -170 -518 -170h-625v653h-125zM518 315h211q180 0 264 93q104 113 105 323q0 240 -142 348q-96 72 -256 72h-182v-279h322v-219h-322v-338z" horiz-adv-x="1556" unicode="Ð"/><glyph d="M135 0v1466h387l365 -620q106 -184 164 -307q-16 215 -17 379v548h373v-1466h-373l-395 666l-84 149q-23 37 -61 125q14 -162 14 -373v-567h-373zM389 1602q33 268 232 268q66 0 241 -68q43 -16 74 -16q72 0 86 90h160q-27 -137 -66 -186q-63 -84 -155 -84q-82 0 -211 49 q-88 35 -119 35q-63 0 -84 -88h-158z" horiz-adv-x="1538" unicode="Ñ"/><glyph d="M72 733q0 367 217 574q209 196 512 196q342 0 545 -241q174 -211 174 -529q0 -367 -226 -581q-197 -188 -493 -189q-348 0 -553 242q-176 209 -176 528zM399 1880h394l208 -283h-251zM461 735q0 -227 102 -350q90 -106 238 -106q156 0 244 121.5t88 340.5q0 223 -103 342 q-88 105 -231 105q-166 0 -258 -139q-80 -119 -80 -314z" horiz-adv-x="1591" unicode="Ò"/><glyph d="M72 733q0 367 217 574q209 196 512 196q342 0 545 -241q174 -211 174 -529q0 -367 -226 -581q-197 -188 -493 -189q-348 0 -553 242q-176 209 -176 528zM461 735q0 -227 102 -350q90 -106 238 -106q156 0 244 121.5t88 340.5q0 223 -103 342q-88 105 -231 105 q-166 0 -258 -139q-80 -119 -80 -314zM598 1597l209 283h393l-352 -283h-250z" horiz-adv-x="1591" unicode="Ó"/><glyph d="M72 733q0 367 217 574q209 196 512 196q342 0 545 -241q174 -211 174 -529q0 -367 -226 -581q-197 -188 -493 -189q-348 0 -553 242q-176 209 -176 528zM401 1597l244 283h305l242 -283h-266l-133 152l-134 -152h-258zM461 735q0 -227 102 -350q90 -106 238 -106 q156 0 244 121.5t88 340.5q0 223 -103 342q-88 105 -231 105q-166 0 -258 -139q-80 -119 -80 -314z" horiz-adv-x="1591" unicode="Ô"/><glyph d="M72 733q0 367 217 574q209 196 512 196q342 0 545 -241q174 -211 174 -529q0 -367 -226 -581q-197 -188 -493 -189q-348 0 -553 242q-176 209 -176 528zM414 1602q35 268 231 268q66 0 244 -68q41 -16 74 -16q72 0 84 90h159q-27 -137 -65 -186q-63 -84 -156 -84 q-82 0 -209 49q-90 35 -121 35q-63 0 -82 -88h-159zM461 735q0 -227 102 -350q90 -106 238 -106q156 0 244 121.5t88 340.5q0 223 -103 342q-88 105 -231 105q-166 0 -258 -139q-80 -119 -80 -314z" horiz-adv-x="1591" unicode="Õ"/><glyph d="M72 733q0 367 217 574q209 196 512 196q342 0 545 -241q174 -211 174 -529q0 -367 -226 -581q-197 -188 -493 -189q-348 0 -553 242q-176 209 -176 528zM422 1743q0 68 46 114t114 46q66 0 112.5 -46.5t46.5 -113.5q0 -66 -47 -113t-112 -47q-68 0 -114 47t-46 113z M461 735q0 -227 102 -350q90 -106 238 -106q156 0 244 121.5t88 340.5q0 223 -103 342q-88 105 -231 105q-166 0 -258 -139q-80 -119 -80 -314zM860 1743q0 68 46 114t114 46q66 0 113 -46.5t47 -113.5q0 -66 -47.5 -113t-112.5 -47q-68 0 -114 47t-46 113z" horiz-adv-x="1591" unicode="Ö"/><glyph d="M61 250l238 237l-233 238l159 158l236 -234l235 234l160 -158l-235 -238l239 -237l-160 -162l-239 240l-240 -240z" horiz-adv-x="923" unicode="×"/><glyph d="M49 43l176 193q-152 207 -151 497q0 367 227 582q197 188 498 188q260 0 446 -145l164 180l135 -123l-170 -190q147 -199 148 -496q0 -362 -228 -577q-195 -188 -489 -189q-266 0 -449 141l-168 -184zM461 729q0 -113 35 -215l503 600q-82 74 -200 74q-168 0 -258 -139 q-80 -121 -80 -320zM598 350q76 -72 211 -71q154 0 239 126.5t85 356.5q0 106 -31 184z" horiz-adv-x="1591" unicode="Ø"/><glyph d="M113 598v868h383v-897q0 -154 62.5 -222t201.5 -68q129 0 188.5 68.5t59.5 221.5v897h381v-872q0 -293 -121 -438q-160 -193 -516 -193q-379 0 -539 217q-100 137 -100 418zM346 1880h393l209 -283h-252z" horiz-adv-x="1501" unicode="Ù"/><glyph d="M113 598v868h383v-897q0 -154 62.5 -222t201.5 -68q129 0 188.5 68.5t59.5 221.5v897h381v-872q0 -293 -121 -438q-160 -193 -516 -193q-379 0 -539 217q-100 137 -100 418zM551 1597l209 283h393l-350 -283h-252z" horiz-adv-x="1501" unicode="Ú"/><glyph d="M113 598v868h383v-897q0 -154 62.5 -222t201.5 -68q129 0 188.5 68.5t59.5 221.5v897h381v-872q0 -293 -121 -438q-160 -193 -516 -193q-379 0 -539 217q-100 137 -100 418zM354 1597l244 283h305l242 -283h-266l-134 152l-133 -152h-258z" horiz-adv-x="1501" unicode="Û"/><glyph d="M113 598v868h383v-897q0 -154 62.5 -222t201.5 -68q129 0 188.5 68.5t59.5 221.5v897h381v-872q0 -293 -121 -438q-160 -193 -516 -193q-379 0 -539 217q-100 137 -100 418zM375 1743q0 68 46 114t114 46t113.5 -46.5t45.5 -113.5q0 -66 -47 -113t-112 -47q-66 0 -113 47 t-47 113zM813 1743q0 68 47 114t113 46q68 0 114 -46.5t46 -113.5q0 -66 -46.5 -113t-113.5 -47q-66 0 -113 47t-47 113z" horiz-adv-x="1501" unicode="Ü"/><glyph d="M-49 1466h434l170 -311q70 -127 129 -283q72 182 139 306l162 288h428l-541 -915v-551h-383v551zM483 1597l209 283h393l-350 -283h-252z" horiz-adv-x="1361" unicode="Ý"/><glyph d="M133 0v1466h385v-202h221q291 0 420 -86q201 -135 201 -408q0 -225 -150 -362q-133 -119 -387 -119h-307v-289h-383zM516 590h252q219 0 219 180q0 182 -233 182h-238v-362z" horiz-adv-x="1423" unicode="Þ"/><glyph d="M121 0v924q0 244 78 358q135 205 450 205q236 0 371 -123q119 -104 119 -268q0 -201 -181 -285q121 -29 191 -125t70 -237q0 -209 -146 -351q-123 -119 -328 -118q-80 0 -172 20v264q47 -8 80 -8q96 0 153.5 60.5t57.5 160.5q0 219 -258 219h-24h-9v207q27 -2 41 -2 q190 0 191 162q0 68 -46 109.5t-122 41.5q-100 0 -141 -69q-27 -45 -27 -154v-991h-348z" horiz-adv-x="1273" unicode="ß"/><glyph d="M49 297q0 195 172 274q74 33 303 76l242 45v64q-4 117 -162 116q-86 0 -126 -29.5t-52 -105.5h-330q18 354 512 355q262 0 393 -95q61 -47 84 -105t23 -177q0 -20 -2 -127v-23l-2 -176v-96q0 -25 -2 -78v-45q0 -115 43 -170h-354q-16 51 -19 100q-98 -129 -348 -129 q-186 0 -287 99q-88 86 -88 227zM250 1505h364l179 -295h-220zM403 307q0 -125 142 -125q119 0 184 84q37 45 39 144l2 75l-160 -34q-125 -29 -166 -57.5t-41 -86.5z" horiz-adv-x="1202" unicode="à"/><glyph d="M49 297q0 195 172 274q74 33 303 76l242 45v64q-4 117 -162 116q-86 0 -126 -29.5t-52 -105.5h-330q18 354 512 355q262 0 393 -95q61 -47 84 -105t23 -177q0 -20 -2 -127v-23l-2 -176v-96q0 -25 -2 -78v-45q0 -115 43 -170h-354q-16 51 -19 100q-98 -129 -348 -129 q-186 0 -287 99q-88 86 -88 227zM403 307q0 -125 142 -125q119 0 184 84q37 45 39 144l2 75l-160 -34q-125 -29 -166 -57.5t-41 -86.5zM455 1210l180 295h364l-323 -295h-221z" horiz-adv-x="1202" unicode="á"/><glyph d="M49 297q0 195 172 274q74 33 303 76l242 45v64q-4 117 -162 116q-86 0 -126 -29.5t-52 -105.5h-330q18 354 512 355q262 0 393 -95q61 -47 84 -105t23 -177q0 -20 -2 -127v-23l-2 -176v-96q0 -25 -2 -78v-45q0 -115 43 -170h-354q-16 51 -19 100q-98 -129 -348 -129 q-186 0 -287 99q-88 86 -88 227zM238 1210l235 295h305l234 -295h-264l-127 166l-127 -166h-256zM403 307q0 -125 142 -125q119 0 184 84q37 45 39 144l2 75l-160 -34q-125 -29 -166 -57.5t-41 -86.5z" horiz-adv-x="1202" unicode="â"/><glyph d="M49 297q0 195 172 274q74 33 303 76l242 45v64q-4 117 -162 116q-86 0 -126 -29.5t-52 -105.5h-330q18 354 512 355q262 0 393 -95q61 -47 84 -105t23 -177q0 -20 -2 -127v-23l-2 -176v-96q0 -25 -2 -78v-45q0 -115 43 -170h-354q-16 51 -19 100q-98 -129 -348 -129 q-186 0 -287 99q-88 86 -88 227zM262 1225q23 127 51 174q59 92 162 92q68 0 217 -68q37 -14 68 -14q57 0 71 84h152q-25 -145 -72 -201.5t-143 -56.5q-78 0 -178 41q-76 33 -107 33q-55 0 -71 -84h-150zM403 307q0 -125 142 -125q119 0 184 84q37 45 39 144l2 75l-160 -34 q-125 -29 -166 -57.5t-41 -86.5z" horiz-adv-x="1202" unicode="ã"/><glyph d="M49 297q0 195 172 274q74 33 303 76l242 45v64q-4 117 -162 116q-86 0 -126 -29.5t-52 -105.5h-330q18 354 512 355q262 0 393 -95q61 -47 84 -105t23 -177q0 -20 -2 -127v-23l-2 -176v-96q0 -25 -2 -78v-45q0 -115 43 -170h-354q-16 51 -19 100q-98 -129 -348 -129 q-186 0 -287 99q-88 86 -88 227zM233 1372q0 68 46 114t114 46q66 0 113 -46t47 -114q0 -66 -47 -113t-113 -47q-68 0 -114 47.5t-46 112.5zM403 307q0 -125 142 -125q119 0 184 84q37 45 39 144l2 75l-160 -34q-125 -29 -166 -57.5t-41 -86.5zM672 1372q0 68 45.5 114 t113.5 46q66 0 113 -46t47 -114q0 -66 -47 -113t-113 -47q-68 0 -113.5 47.5t-45.5 112.5z" horiz-adv-x="1202" unicode="ä"/><glyph d="M49 297q0 195 172 274q74 33 303 76l242 45v64q-4 117 -162 116q-86 0 -126 -29.5t-52 -105.5h-330q18 354 512 355q262 0 393 -95q61 -47 84 -105t23 -177q0 -20 -2 -127v-23l-2 -176v-96q0 -25 -2 -78v-45q0 -115 43 -170h-354q-16 51 -19 100q-98 -129 -348 -129 q-186 0 -287 99q-88 86 -88 227zM346 1382q0 92 82 157t199 65t198.5 -64.5t81.5 -157.5q0 -92 -82 -156.5t-198 -64.5q-117 0 -199 64.5t-82 156.5zM403 307q0 -125 142 -125q119 0 184 84q37 45 39 144l2 75l-160 -34q-125 -29 -166 -57.5t-41 -86.5zM508 1382 q0 -45 35 -76.5t84 -31.5t83.5 31.5t34.5 76.5t-34.5 77t-83.5 32t-84 -32t-35 -77z" horiz-adv-x="1202" unicode="å"/><glyph d="M49 295q0 127 75 198.5t253 114.5l407 99v47q-2 119 -172 118q-164 0 -182 -139h-336q16 358 514 359q262 0 369 -127q125 127 330 127q266 0 417 -185q131 -160 131 -411v-43h-768q6 -248 216 -248q143 0 206 125h328q-47 -176 -201 -275q-135 -84 -315 -84 q-272 0 -401 160q-166 -160 -467 -160q-403 0 -404 324zM403 309q0 -131 156 -131q106 0 165.5 59.5t59.5 163.5v119l-217 -63q-164 -47 -164 -148zM1087 639h426q-18 217 -210 217q-193 0 -216 -217z" horiz-adv-x="1910" unicode="æ"/><glyph d="M59 526q0 270 181 428q156 137 391 138q233 0 381 -131q127 -113 135 -283h-338q-20 160 -178 160q-217 0 -217 -312q0 -295 217 -295q164 0 186 187h336q-18 -197 -166 -324q-129 -111 -352 -121l-64 -102q51 10 86 10q80 0 132.5 -42t52.5 -107q0 -86 -70 -139.5 t-184 -53.5q-123 0 -254 51l41 91q102 -37 170 -37q106 0 106 75q0 76 -96 76q-31 0 -74 -18l-49 43l98 153q-147 25 -237 82q-233 156 -234 471z" horiz-adv-x="1204" unicode="ç"/><glyph d="M59 522q0 268 181 430q156 139 387 140q281 0 432 -185q133 -162 133 -424v-32h-791q4 -115 67.5 -179.5t172.5 -64.5q133 0 203 119h327q-25 -94 -94 -174q-158 -180 -436 -181q-252 0 -408 140q-174 156 -174 411zM272 1505h365l178 -295h-219zM406 649h444 q-27 207 -219 207q-195 0 -225 -207z" horiz-adv-x="1249" unicode="è"/><glyph d="M59 522q0 268 181 430q156 139 387 140q281 0 432 -185q133 -162 133 -424v-32h-791q4 -115 67.5 -179.5t172.5 -64.5q133 0 203 119h327q-25 -94 -94 -174q-158 -180 -436 -181q-252 0 -408 140q-174 156 -174 411zM406 649h444q-27 207 -219 207q-195 0 -225 -207z M477 1210l180 295h365l-324 -295h-221z" horiz-adv-x="1249" unicode="é"/><glyph d="M59 522q0 268 181 430q156 139 387 140q281 0 432 -185q133 -162 133 -424v-32h-791q4 -115 67.5 -179.5t172.5 -64.5q133 0 203 119h327q-25 -94 -94 -174q-158 -180 -436 -181q-252 0 -408 140q-174 156 -174 411zM266 1210l238 295h305l233 -295h-266l-125 166 l-127 -166h-258zM406 649h444q-27 207 -219 207q-195 0 -225 -207z" horiz-adv-x="1249" unicode="ê"/><glyph d="M59 522q0 268 181 430q156 139 387 140q281 0 432 -185q133 -162 133 -424v-32h-791q4 -115 67.5 -179.5t172.5 -64.5q133 0 203 119h327q-25 -94 -94 -174q-158 -180 -436 -181q-252 0 -408 140q-174 156 -174 411zM274 1362q0 66 46 113t114 47q66 0 113 -47.5 t47 -112.5q0 -68 -47 -114t-113 -46q-68 0 -114 46t-46 114zM406 649h444q-27 207 -219 207q-195 0 -225 -207zM713 1362q0 66 46.5 113t112.5 47q68 0 114 -47.5t46 -112.5q0 -68 -46 -114t-114 -46q-66 0 -112.5 46t-46.5 114z" horiz-adv-x="1249" unicode="ë"/><glyph d="M-59 1505h356l166 -295h-213zM117 0v1063h350v-1063h-350z" horiz-adv-x="589" unicode="ì"/><glyph d="M121 0v1063h348v-1063h-348zM125 1210l164 295h358l-309 -295h-213z" horiz-adv-x="587" unicode="í"/><glyph d="M-72 1210l215 295h306l210 -295h-258l-110 166l-113 -166h-250zM121 0v1063h348v-1063h-348z" horiz-adv-x="587" unicode="î"/><glyph d="M-51 1362q0 66 46 113t114 47q66 0 112.5 -47.5t46.5 -112.5q0 -68 -47 -114t-112 -46q-68 0 -114 46t-46 114zM121 0v1063h348v-1063h-348zM334 1362q0 66 47 113t113 47q68 0 113.5 -47.5t45.5 -112.5q0 -68 -46 -114t-113 -46q-66 0 -113 46t-47 114z" horiz-adv-x="587" unicode="ï"/><glyph d="M59 530q0 246 154 408q131 137 315 137q102 0 195 -65q-45 119 -111 221l-168 -70l-63 113l160 69l-84 109l182 107l113 -127l168 67l77 -108l-159 -66q68 -90 178 -274q94 -158 131 -268.5t37 -237.5q0 -279 -172 -436q-152 -139 -385 -140q-272 0 -430 174 q-137 152 -138 387zM414 532q0 -307 209 -307t208 310q1 303 -210 303q-98 0 -152.5 -80t-54.5 -226z" horiz-adv-x="1243" unicode="ð"/><glyph d="M121 0v1063h336v-141q127 170 348 170q213 0 311 -142q63 -94 64 -291v-659h-351v602q0 84 -16 125q-33 80 -145 80q-123 0 -172 -94q-27 -49 -27 -146v-567h-348zM274 1225q23 127 52 174q59 92 163 92q66 0 218 -68q35 -14 65 -14q57 0 74 84h149 q-25 -145 -71.5 -201.5t-143.5 -56.5q-78 0 -176 41q-78 33 -108 33q-55 0 -70 -84h-152z" horiz-adv-x="1290" unicode="ñ"/><glyph d="M59 532q0 266 177 424q154 135 385 136q270 0 428 -174q135 -150 135 -383q0 -268 -176 -426q-154 -138 -385 -138q-268 0 -426 176q-137 154 -138 385zM248 1505h362l181 -295h-220zM414 532q0 -307 209 -307t208 310q0 303 -213 303q-98 0 -151 -80t-53 -226z" horiz-adv-x="1243" unicode="ò"/><glyph d="M59 532q0 266 177 424q154 135 385 136q270 0 428 -174q135 -150 135 -383q0 -268 -176 -426q-154 -138 -385 -138q-268 0 -426 176q-137 154 -138 385zM414 532q0 -307 209 -307t208 310q0 303 -213 303q-98 0 -151 -80t-53 -226zM459 1210l180 295h365l-324 -295h-221z" horiz-adv-x="1243" unicode="ó"/><glyph d="M59 532q0 266 177 424q154 135 385 136q270 0 428 -174q135 -150 135 -383q0 -268 -176 -426q-154 -138 -385 -138q-268 0 -426 176q-137 154 -138 385zM242 1210l237 295h303l234 -295h-264l-127 166l-125 -166h-258zM414 532q0 -307 209 -307t208 310q0 303 -213 303 q-98 0 -151 -80t-53 -226z" horiz-adv-x="1243" unicode="ô"/><glyph d="M59 532q0 266 177 424q154 135 385 136q270 0 428 -174q135 -150 135 -383q0 -268 -176 -426q-154 -138 -385 -138q-268 0 -426 176q-137 154 -138 385zM283 1225q23 127 51 174q59 92 164 92q66 0 217 -68q35 -14 65 -14q57 0 74 84h150q-25 -145 -72 -201.5t-144 -56.5 q-78 0 -176 41q-78 33 -108 33q-55 0 -70 -84h-151zM414 532q0 -307 209 -307t208 310q0 303 -213 303q-98 0 -151 -80t-53 -226z" horiz-adv-x="1243" unicode="õ"/><glyph d="M59 532q0 266 177 424q154 135 385 136q270 0 428 -174q135 -150 135 -383q0 -268 -176 -426q-154 -138 -385 -138q-268 0 -426 176q-137 154 -138 385zM244 1362q0 66 45.5 113t113.5 47t114 -47.5t46 -112.5q0 -68 -47 -114t-113 -46t-112.5 46t-46.5 114zM414 532 q0 -307 209 -307t208 310q0 303 -213 303q-98 0 -151 -80t-53 -226zM682 1362q0 66 47 113t113 47q68 0 113.5 -47.5t45.5 -112.5q0 -68 -46 -114t-113 -46q-66 0 -113 46t-47 114z" horiz-adv-x="1243" unicode="ö"/><glyph d="M84 391v223h903v-223h-903zM377 123q0 68 46 115t114 47q66 0 112.5 -47.5t46.5 -114.5q0 -66 -47 -113t-112 -47q-68 0 -114 47t-46 113zM377 883q0 68 46 114.5t114 46.5q66 0 112.5 -47t46.5 -114q0 -66 -47 -112t-112 -46q-68 0 -114 46t-46 112z" horiz-adv-x="1073" unicode="÷"/><glyph d="M59 532q0 266 177 424q152 135 382 136q182 0 318 -80l113 127l118 -103l-110 -129q127 -158 127 -372q0 -266 -176 -426q-152 -137 -381 -138q-174 0 -310 78l-122 -141l-119 102l119 140q-135 164 -136 382zM401 504q1 -70 17 -109l327 414q-2 2 -8 4q-8 6 -10 8 q-51 31 -104 31q-143 0 -199 -154q-23 -63 -23 -194zM504 248q45 -37 123 -37q98 0 157 84q57 84 58 260q0 56 -8 111z" horiz-adv-x="1243" unicode="ø"/><glyph d="M113 397v666h348v-567q0 -137 26 -177q41 -63 140 -63q121 0 172 100q23 47 22 172v535h350v-1063h-350v143q-100 -172 -332 -172q-203 0 -305 133q-72 92 -71 293zM270 1505h363l180 -295h-221z" horiz-adv-x="1290" unicode="ù"/><glyph d="M113 397v666h348v-567q0 -137 26 -177q41 -63 140 -63q121 0 172 100q23 47 22 172v535h350v-1063h-350v143q-100 -172 -332 -172q-203 0 -305 133q-72 92 -71 293zM467 1210l180 295h365l-324 -295h-221z" horiz-adv-x="1290" unicode="ú"/><glyph d="M113 397v666h348v-567q0 -137 26 -177q41 -63 140 -63q121 0 172 100q23 47 22 172v535h350v-1063h-350v143q-100 -172 -332 -172q-203 0 -305 133q-72 92 -71 293zM256 1210l238 295h305l233 -295h-266l-125 166l-127 -166h-258z" horiz-adv-x="1290" unicode="û"/><glyph d="M113 397v666h348v-567q0 -137 26 -177q41 -63 140 -63q121 0 172 100q23 47 22 172v535h350v-1063h-350v143q-100 -172 -332 -172q-203 0 -305 133q-72 92 -71 293zM272 1362q0 66 47 113t113 47q68 0 114 -47.5t46 -112.5q0 -68 -46 -114t-114 -46q-66 0 -113 46 t-47 114zM713 1362q0 66 45.5 113t111.5 47q68 0 115 -47.5t47 -112.5q0 -68 -47 -114t-115 -46q-66 0 -111.5 46t-45.5 114z" horiz-adv-x="1290" unicode="ü"/><glyph d="M-18 1063h370l148 -471q27 -88 57 -248q41 182 66 260l139 459h356l-385 -1073q-80 -221 -172 -291t-303 -70q-113 0 -256 25l55 276q45 -16 117 -16q113 0 143 47q33 47 33 105q0 12 -6 26zM383 1210l178 295h365l-324 -295h-219z" horiz-adv-x="1103" unicode="ý"/><glyph d="M121 -358v1824h348v-528q111 154 301 154q221 0 350 -177q113 -154 113 -391q0 -268 -141 -422q-121 -131 -312 -131q-195 0 -311 152v-481h-348zM459 524q0 -133 55 -207.5t156 -74.5q209 0 209 282q0 287 -209 287q-100 0 -155.5 -76t-55.5 -211z" horiz-adv-x="1294" unicode="þ"/><glyph d="M-18 1063h370l148 -471q27 -88 57 -248q41 182 66 260l139 459h356l-385 -1073q-80 -221 -172 -291t-303 -70q-113 0 -256 25l55 276q45 -16 117 -16q113 0 143 47q33 47 33 105q0 12 -6 26zM182 1362q0 66 46 113t114 47t114 -47.5t46 -112.5q0 -68 -47 -114t-113 -46 t-113 46t-47 114zM621 1362q0 66 46.5 113t112.5 47q68 0 114 -47.5t46 -112.5q0 -68 -46 -114t-114 -46q-66 0 -112.5 46t-46.5 114z" horiz-adv-x="1103" unicode="ÿ"/><glyph horiz-adv-x="999"/><glyph horiz-adv-x="1999"/><glyph horiz-adv-x="999"/><glyph horiz-adv-x="1999"/><glyph horiz-adv-x="666"/><glyph horiz-adv-x="499"/><glyph horiz-adv-x="333"/><glyph horiz-adv-x="333"/><glyph horiz-adv-x="249"/><glyph horiz-adv-x="399"/><glyph horiz-adv-x="111"/><glyph d="M76 391v264h506v-264h-506z" horiz-adv-x="657" unicode="‐"/><glyph d="M76 391v264h506v-264h-506z" horiz-adv-x="657" unicode="‑"/><glyph d="M76 391v264h506v-264h-506z" horiz-adv-x="657" unicode="‒"/><glyph d="M76 391v264h811v-264h-811z" horiz-adv-x="962" unicode="–"/><glyph d="M76 391v264h1775v-264h-1775z" horiz-adv-x="1927" unicode="—"/><glyph d="M111 1124q0 170 153 342h86l49 -41q-41 -59 -61 -100q-23 -47 -33 -68q70 -16 103 -67q25 -35 24 -92q0 -49 -31 -90q-47 -66 -127 -66q-72 0 -117.5 51t-45.5 131z" horiz-adv-x="526" unicode="‘"/><glyph d="M102 1311q0 49 31 90q47 66 127 65q72 0 118 -51t46 -131q0 -168 -154 -342h-84l-51 43q39 53 62 100l8 15q16 33 22 51q-70 16 -102 70q-23 37 -23 90z" horiz-adv-x="526" unicode="’"/><glyph d="M102 152q0 49 31 90q47 66 127 65q72 0 118 -51t46 -131q0 -170 -154 -342h-84l-51 41q41 59 62 100q22 45 30 68q-70 16 -102 69q-23 37 -23 91z" horiz-adv-x="526" unicode="‚"/><glyph d="M111 1124q0 170 153 342h86l49 -41q-41 -59 -61 -100q-23 -47 -33 -68q29 -6 49 -18q33 -16 54 -49q25 -35 24 -92q0 -49 -31 -90q-47 -66 -127 -66q-72 0 -117.5 51t-45.5 131zM537 1124q0 170 151 342h86l51 -41q-43 -59 -63 -100q-20 -47 -31 -68q125 -27 125 -153 q0 -68 -45 -115t-113 -47q-70 0 -115.5 51t-45.5 131z" horiz-adv-x="952" unicode="“"/><glyph d="M102 1311q0 49 31 90q47 66 127 65q72 0 118 -51t46 -131q0 -168 -154 -342h-84l-51 43q39 53 62 100l8 15q16 33 22 51q-70 16 -102 70q-23 37 -23 90zM528 1311q0 49 29 90q47 66 129 65q72 0 118 -51t46 -131q0 -168 -154 -342h-86l-49 43q37 53 62 100l6 15 q16 33 24 51q-70 16 -100 68q-25 37 -25 92z" horiz-adv-x="952" unicode="”"/><glyph d="M102 152q0 49 31 90q47 66 127 65q72 0 118 -51t46 -131q0 -170 -154 -342h-84l-51 41q41 59 62 100q22 45 30 68q-70 16 -102 69q-23 37 -23 91zM528 152q0 49 29 90q47 66 129 65q72 0 118 -51t46 -131q0 -170 -154 -342h-86l-49 41q41 59 62 100q20 45 30 68 q-70 16 -100 67q-25 37 -25 93z" horiz-adv-x="952" unicode="„"/><glyph d="M176 414q0 113 80 191.5t193 78.5t191.5 -79t78.5 -191q0 -115 -79 -194t-191 -79q-113 0 -193 80t-80 193z" horiz-adv-x="892" unicode="•"/><glyph d="M51 152q0 66 47 111.5t113 45.5q68 0 115 -46t47 -111q0 -68 -47 -115t-115 -47q-66 0 -113 47t-47 115zM520 152q0 66 47 111.5t115 45.5q66 0 112 -46t46 -111q0 -68 -46 -115t-112 -47q-68 0 -115 47t-47 115zM1069 152q0 66 47 111.5t113 45.5q68 0 114 -46t46 -111 q0 -68 -47.5 -115t-112.5 -47q-66 0 -113 47t-47 115z" horiz-adv-x="1439" unicode="…"/><glyph horiz-adv-x="399"/><glyph d="M76 532v27l280 414h119l129 -107l-211 -319l211 -322l-129 -106h-119z" horiz-adv-x="677" unicode="‹"/><glyph d="M76 225l211 322l-211 319l129 107h119l280 -414v-27l-280 -413h-119z" horiz-adv-x="677" unicode="›"/><glyph horiz-adv-x="499"/><glyph d="M188 449v178h105q-4 14 -4 67q0 27 2 31h-103v174h119q35 254 172 381t365 127q139 0 239 -55v-258q-143 59 -241 59q-72 0 -119 -33q-84 -55 -105 -221h324v-174h-338q-2 -10 -2 -41q0 -35 2 -57h338v-178h-324q25 -113 94.5 -161t207.5 -48q100 0 204 28v-114 l-129 -160q-78 -12 -151 -12q-213 0 -346 106q-141 119 -187 361h-123z" horiz-adv-x="1312" unicode="€"/><glyph d="M29 1229v149h542v-149h-188v-463l-84 -68h-84v531h-186zM608 698v680h248l145 -471l156 471h240v-612l-84 -68h-84v494l-160 -494h-145l-150 494h-4v-494h-162z" horiz-adv-x="1490" unicode="™"/><glyph d="M0 0v1065h1065v-1065h-1065z" horiz-adv-x="1064" unicode="◼"/></font>
</defs>
</svg>
