<?xml version="1.0" standalone="no"?>
<!DOCTYPE svg PUBLIC "-//W3C//DTD SVG 1.1//EN" "http://www.w3.org/Graphics/SVG/1.1/DTD/svg11.dtd" >
<svg xmlns="http://www.w3.org/2000/svg" xmlns:xlink="http://www.w3.org/1999/xlink" version="1.1">
<metadata></metadata>
<defs>
<font id="almaraibold" horiz-adv-x="1118" >
<font-face units-per-em="2048" ascent="1638" descent="-410" />
<missing-glyph horiz-adv-x="376" />
<glyph horiz-adv-x="0" />
<glyph horiz-adv-x="682" />
<glyph unicode=" "  horiz-adv-x="376" />
<glyph unicode="&#x09;" horiz-adv-x="376" />
<glyph unicode="&#xa0;" horiz-adv-x="376" />
<glyph unicode="!" horiz-adv-x="546" d="M141 123q0 55 38 93t93 38t94.5 -38t39.5 -93t-39 -94t-95 -39q-53 0 -92 39t-39 94zM156 352v1114h223v-1024l-113 -90h-110z" />
<glyph unicode="&#x22;" horiz-adv-x="821" d="M141 999v467h209v-381l-106 -86h-103zM471 999v467h209v-381l-107 -86h-102z" />
<glyph unicode="#" horiz-adv-x="1247" d="M41 391v174h266l49 242h-247v174h278l74 395h192l-75 -395h202l76 395h186l-75 -395h237v-174h-270l-49 -242h254v-174h-285l-76 -391h-190l74 391h-197l-74 -391h-188l71 391h-233zM496 565h200l49 242h-200z" />
<glyph unicode="$" horiz-adv-x="1259" d="M188 254v86q184 -61 361 -61h18v335q-207 74 -284 156q-82 82 -82 215q0 137 98 223q100 88 268 103v155h129v-151q143 -18 254 -78v-193q-143 57 -254 68v-317q209 -74 287 -150q88 -82 88 -217q0 -143 -96 -229q-98 -90 -279 -111v-201h-129v197q-154 2 -276 43z M444 989q0 -47 23 -76q24 -38 100 -67v262q-59 -6 -94 -37q-29 -33 -29 -82zM696 289q59 8 92 39q39 33 39 96q0 49 -30 82q-25 28 -101 57v-274z" />
<glyph unicode="%" horiz-adv-x="1640" d="M37 973q0 195 82 311q84 129 248 129q156 0 245 -123q86 -121 86 -315q0 -195 -86 -307q-86 -111 -243 -111q-166 0 -250 117q-82 111 -82 299zM209 973q0 -123 31 -195q37 -90 127 -90q88 0 129 90q31 76 30 195q0 139 -39 223q-42 86 -120 86q-82 0 -121 -86 q-37 -82 -37 -223zM311 0l813 1378h199l-811 -1378h-201zM940 381q0 193 82 311q88 127 248 127q158 0 246 -123q88 -125 88 -315q0 -193 -88 -307q-86 -111 -244 -111q-166 0 -250 117q-82 111 -82 301zM1112 381q0 -117 31 -197q37 -90 127 -90t129 92q31 72 31 195 q0 137 -39 221q-39 86 -121 86t-119 -86q-39 -80 -39 -221z" />
<glyph unicode="&#x26;" horiz-adv-x="1452" d="M111 410q0 143 69.5 235t245.5 184q-104 121 -135 179.5t-31 130.5q0 156 123 254q109 84 258 84q172 0 272 -97q86 -84 86 -213q0 -111 -50 -187.5t-185 -168.5l233 -291q61 115 62 225q0 11 -2 27h229v-20q0 -246 -139 -420l268 -332h-325l-111 137q-123 -94 -206 -128 t-187 -34q-227 0 -361 136q-115 119 -114 299zM377 444q0 -90 66.5 -161.5t150.5 -71.5q94 0 240 108l-275 347l-94 -62q-88 -68 -88 -160zM526 1161q0 -55 88 -164l23 -28q121 68 121 174q0 117 -117 117q-115 0 -115 -99z" />
<glyph unicode="'" horiz-adv-x="491" d="M141 999v467h209v-381l-106 -86h-103z" />
<glyph unicode="(" horiz-adv-x="688" d="M152 616q0 244 69 455q70 223 215 395h72l86 -69q-113 -168 -172 -383q-51 -195 -51 -396q0 -227 67 -440q49 -154 156 -328l-86 -67h-72q-145 166 -215 385q-70 209 -69 448z" />
<glyph unicode=")" horiz-adv-x="688" d="M94 -150q102 162 156 328q68 213 67 440q0 211 -51 396q-59 215 -172 383l86 69h74q139 -166 215 -395q68 -215 68 -455q0 -236 -68 -448q-76 -225 -215 -385h-74z" />
<glyph unicode="*" horiz-adv-x="782" d="M47 1165l43 140l219 -72v233h144v-233l219 72l45 -140l-219 -71l135 -189l-117 -88l-135 191l-135 -189l-117 86l135 189z" />
<glyph unicode="+" horiz-adv-x="1077" d="M94 391v187h352v354h185v-354h352v-187h-352v-348h-185v348h-352z" />
<glyph unicode="," horiz-adv-x="557" d="M141 143q0 43 21 76q37 57 108 57q61 0 102.5 -47t41.5 -116q0 -168 -146 -326h-63l-49 39q47 68 67 113q23 40 31 75q-57 8 -86 47q-27 31 -27 82z" />
<glyph unicode="-" horiz-adv-x="657" d="M76 391v211h506v-211h-506z" />
<glyph unicode="." horiz-adv-x="546" d="M141 123q0 55 38 93t93 38t94.5 -38t39.5 -93t-39 -94t-95 -39q-53 0 -92 39t-39 94z" />
<glyph unicode="/" horiz-adv-x="780" d="M18 0l514 1378h230l-514 -1378h-230z" />
<glyph unicode="0" horiz-adv-x="1132" d="M76 719q0 336 121 553q126 227 368 227q236 -2 365 -221q127 -217 127 -557q0 -344 -127 -545q-125 -199 -363 -199q-246 0 -370 209q-121 205 -121 533zM326 719q0 -219 47 -361q55 -168 192 -168q242 1 242 527q0 219 -45 366q-61 203 -197 205q-121 0 -180 -162 q-59 -164 -59 -407z" />
<glyph unicode="1" horiz-adv-x="813" d="M66 1130l397 336h209v-1355l-127 -111h-123v1182l-238 -201z" />
<glyph unicode="2" horiz-adv-x="1009" d="M66 0v209l151 156l148 167q170 188 219 261q104 150 104 264q0 90 -58.5 146.5t-152.5 56.5q-111 0 -225 -80l-125 176q195 127 393 127q199 0 303 -117q92 -100 92 -268q0 -125 -59 -246t-207 -301q-166 -201 -184 -219l-121 -123h600v-82l-102 -127h-776z" />
<glyph unicode="3" horiz-adv-x="1021" d="M113 109v94q143 -27 245 -27q348 0 349 213q0 111 -97 186q-61 47 -129.5 63.5t-212.5 20.5v191h207q78 0 129 54t51 136q0 104 -70.5 163t-193.5 59q-78 0 -215 -35v207q156 49 256 49q215 0 342 -113q123 -109 123 -289q0 -264 -254 -333q150 -31 229 -127 q84 -102 84 -230q0 -211 -176 -325q-135 -88 -325 -89q-133 0 -262 33z" />
<glyph unicode="4" horiz-adv-x="1097" d="M47 344v180l580 942h239v-909h185v-213h-185v-231l-125 -113h-118v344h-576zM279 557h344v582z" />
<glyph unicode="5" horiz-adv-x="919" d="M0 115v96q141 -29 246 -29q182 0 258 49q90 57 90 201q0 145 -76 209t-248 64q-72 0 -225 -17q-20 -2 -35 -4l43 782h682v-209h-450l-21 -366q68 10 111 10q233 0 360 -147q109 -127 109 -334q0 -221 -166 -340q-133 -94 -336 -94q-133 0 -262 32z" />
<glyph unicode="6" horiz-adv-x="1099" d="M102 567v58q0 377 144 606q158 248 459 248q49 0 122 -13l88 -106v-96q-10 2 -36 6q-98 18 -150 18q-127 0 -227.5 -76.5t-141.5 -207.5q-31 -97 -43 -242q129 170 301 170q207 0 318 -150q92 -121 92 -305q0 -238 -129 -373q-119 -125 -321 -124q-258 0 -383 202 q-92 152 -93 385zM342 494q0 -141 60.5 -223.5t166.5 -82.5q92 0 150.5 80t58.5 205q0 119 -58 191.5t-155 70.5q-88 0 -155.5 -72.5t-67.5 -168.5z" />
<glyph unicode="7" horiz-adv-x="1052" d="M61 1245v221h930v-176l-465 -1179l-135 -111h-176l506 1245h-660z" />
<glyph unicode="8" horiz-adv-x="1120" d="M86 362q0 228 315 394q-256 154 -256 385q0 188 142 280q109 72 278 72q188 0 303 -100q111 -96 111 -254q0 -219 -258 -381q154 -76 221 -150q94 -104 94 -250q0 -158 -114 -262q-135 -123 -363 -123q-211 0 -344 109q-129 104 -129 280zM338 381q0 -207 225 -207 q229 0 230 205q-1 170 -230 289q-125 -66 -175 -129.5t-50 -157.5zM395 1139q0 -80 41 -152q41 -74 133 -133q160 109 160 289q0 172 -166 172q-76 -2 -121 -45q-47 -49 -47 -131z" />
<glyph unicode="9" horiz-adv-x="1075" d="M76 991q0 238 127 371q117 123 319 123q469 0 469 -686q0 -254 -44 -407.5t-146 -258.5q-145 -147 -381 -147q-55 0 -146 16l-79 98v97q78 -16 155 -17q229 0 320.5 108.5t101.5 395.5q-49 -61 -104 -96q-82 -51 -191 -51q-205 0 -313 149q-88 121 -88 305zM322 997 q0 -115 57 -188.5t145 -73.5q94 0 155.5 70t61.5 176q0 293 -206 293q-96 0 -154.5 -76t-58.5 -201z" />
<glyph unicode=":" horiz-adv-x="546" d="M141 123q0 55 39 93t94 38t93.5 -38t38.5 -93t-39 -94t-93 -39q-55 0 -94 39t-39 94zM141 551q0 55 39 94t92 39q55 0 94.5 -39t39.5 -94q0 -53 -39 -92t-95 -39q-53 0 -92 39t-39 92z" />
<glyph unicode=";" horiz-adv-x="557" d="M139 549q0 55 38 94t93 39t94 -39t39 -94t-39 -94t-94 -39t-93 38t-38 95zM141 143q0 43 21 76q37 57 108 57q61 0 102.5 -47t41.5 -116q0 -168 -146 -326h-63l-49 39q47 68 67 113q23 40 31 75q-57 8 -86 47q-27 31 -27 82z" />
<glyph unicode="&#x3c;" horiz-adv-x="1058" d="M86 610v123l889 463v-203l-633 -313l633 -277v-200z" />
<glyph unicode="=" horiz-adv-x="1077" d="M94 199v184h889v-184h-889zM94 571v185h889v-185h-889z" />
<glyph unicode="&#x3e;" horiz-adv-x="1058" d="M86 203v200l633 277l-633 313v203l889 -463v-123z" />
<glyph unicode="?" horiz-adv-x="1228" d="M129 958q4 229 94 351q133 180 395 180q240 0 379 -146q121 -127 121 -321q0 -125 -50 -206t-191 -181q-94 -66 -114 -102t-20 -138h-249v47q2 104 47 184.5t153 168.5q88 72 115 113.5t27 111.5q0 98 -60.5 164.5t-150.5 66.5q-96 0 -159 -74.5t-63 -191.5v-27h-274z M492 123q0 55 39 93t92 38q57 0 95 -38t38 -93t-39 -94t-94 -39q-53 0 -92 39t-39 94z" />
<glyph unicode="@" horiz-adv-x="1662" d="M94 639q0 342 238 565q209 197 502 197q350 0 552 -211q180 -190 181 -490q0 -203 -97 -346q-98 -145 -262 -145q-117 0 -194 84q-88 -82 -215 -82q-174 0 -269 137q-76 109 -75 264q0 205 125 318q104 90 258 92q88 0 168 -37l75 62h95v-596q0 -55 61 -56q70 0 111 74 t41 203q0 279 -166 428q-145 129 -389 129q-215 0 -373 -152q-176 -172 -176 -440q0 -281 172 -444q152 -141 391 -142q104 0 209 23v-68l-80 -100q-102 -23 -197 -23q-340 0 -528 248q-158 205 -158 508zM653 616q0 -113 53.5 -176t149.5 -63q61 0 115 33v421 q-57 18 -113 19q-92 0 -148.5 -64.5t-56.5 -169.5z" />
<glyph unicode="A" horiz-adv-x="1452" d="M53 0l520 1466h334l508 -1466h-311l-96 295h-549l-99 -295h-307zM543 547h383l-191 573z" />
<glyph unicode="B" horiz-adv-x="1427" d="M154 0v1466h653q223 0 346 -108q133 -115 133 -279q0 -94 -46 -162.5t-155 -138.5q242 -143 242 -356q0 -193 -145 -316q-127 -106 -369 -106h-659zM455 252h360q223 0 223 188q0 190 -223 191h-360v-379zM455 883h329q211 0 211 166q0 165 -208 165h-3h-329v-331z" />
<glyph unicode="C" horiz-adv-x="1452" d="M88 731q0 373 205 578q178 180 465 180q340 0 514 -227q86 -113 98 -285h-287q-59 254 -313 254q-190 0 -293 -152q-88 -133 -88 -354q0 -250 111 -381q96 -113 260 -113q141 0 225 74t98 211h293q-14 -266 -205 -412q-164 -127 -419 -127q-328 0 -508 230 q-156 199 -156 524z" />
<glyph unicode="D" horiz-adv-x="1452" d="M154 0v1466h573q322 0 463 -170q178 -213 178 -563q0 -352 -178 -563q-143 -170 -463 -170h-573zM455 252h272q340 0 340 481t-340 481h-272v-962z" />
<glyph unicode="E" horiz-adv-x="1335" d="M154 0v1466h1058v-252h-757v-331h702v-252h-702v-379h794v-252h-1095z" />
<glyph unicode="F" horiz-adv-x="1232" d="M154 0v1466h1030v-252h-729v-331h643v-252h-643v-631h-301z" />
<glyph unicode="G" horiz-adv-x="1564" d="M84 731q0 362 221 574q193 184 490 184q283 0 458 -150q152 -127 177 -335h-283q-84 227 -352 227q-205 0 -314 -148q-96 -131 -96 -346q0 -238 133 -379q114 -122 284 -122h3q182 0 299 133q59 70 72 178h-334v252h588v-799h-181l-37 209q-162 -231 -440 -232 q-324 0 -518 238q-170 209 -170 516z" />
<glyph unicode="H" horiz-adv-x="1484" d="M154 0v1466h301v-548h579v548h303v-1466h-301v666h-581v-666h-301z" />
<glyph unicode="I" horiz-adv-x="602" d="M154 0v1466h301v-1466h-301z" />
<glyph unicode="J" horiz-adv-x="1124" d="M49 422v133h301v-129q0 -190 164 -190q162 0 162 170v1060h303v-1060q0 -219 -139 -330q-123 -98 -334 -99q-207 0 -336 117q-121 113 -121 328z" />
<glyph unicode="K" horiz-adv-x="1456" d="M154 0v1466h301v-645l573 645h356l-585 -630l647 -836h-361l-479 647l-151 -158v-489h-301z" />
<glyph unicode="L" horiz-adv-x="1185" d="M154 0v1466h301v-1214h702v-252h-1003z" />
<glyph unicode="M" horiz-adv-x="1728" d="M154 0v1466h450l266 -1167l256 1167h455v-1466h-301v1141l-260 -1141h-301l-264 1141v-1141h-301z" />
<glyph unicode="N" horiz-adv-x="1492" d="M154 0v1466h309l581 -997v997h302v-1466h-302l-589 1014v-1014h-301z" />
<glyph unicode="O" horiz-adv-x="1572" d="M84 733q0 338 205 557q189 199 502 199q311 0 499 -199q205 -215 205 -557q0 -338 -205 -557q-186 -199 -499 -199q-315 0 -502 199q-205 219 -205 557zM385 733q0 -242 125 -379q108 -118 278 -118h3q197 0 307 153q96 133 96 344q0 242 -125 379q-108 119 -278 119 q-197 0 -310 -154q-96 -133 -96 -344z" />
<glyph unicode="P" horiz-adv-x="1343" d="M154 0v1466h647q246 0 366 -133q106 -117 107 -321q0 -240 -135 -373q-119 -117 -308 -117h-376v-522h-301zM455 774h280q238 0 238 219q0 221 -238 221h-280v-440z" />
<glyph unicode="Q" horiz-adv-x="1576" d="M84 733q0 338 205 557q186 199 502 199q313 0 499 -199q205 -221 205 -557q0 -303 -162 -508l-14 -16l186 -184l-159 -156l-197 194q-152 -84 -361 -86q-309 0 -499 199q-205 217 -205 557zM385 733q0 -244 125 -379q108 -118 278 -118h3q82 0 155 28l-170 172l160 156 l178 -178l6 12q74 125 74 309q0 240 -125 377q-109 119 -278 119q-197 0 -310 -154q-96 -133 -96 -344z" />
<glyph unicode="R" horiz-adv-x="1445" d="M154 0v1466h786q186 0 285 -100q110 -112 110 -294q0 -269 -250 -365q141 -55 172 -138q23 -59 33 -395q2 -84 64 -119v-55h-324q-45 84 -45 248q0 41 2 100v60q0 174 -186 174h-346v-582h-301zM455 834h364q115 0 160 36q55 47 55 156q0 104 -55 150q-46 38 -154 38h-6 h-364v-380z" />
<glyph unicode="S" horiz-adv-x="1341" d="M63 453h293q16 -233 330 -234q139 0 218 50t79 139q0 86 -62.5 133t-213.5 75l-205 39q-223 41 -318.5 130t-95.5 257q0 227 166 344q143 102 389 103q297 0 447 -135q129 -119 131 -330h-283q-14 223 -307 223q-117 0 -185.5 -47t-68.5 -127q0 -78 57.5 -116.5 t220.5 -69.5l230 -43q203 -39 295 -133.5t92 -266.5q0 -236 -180 -358q-156 -109 -420 -109q-301 0 -459 140q-137 121 -150 336z" />
<glyph unicode="T" horiz-adv-x="1236" d="M35 1214v252h1173v-252h-426v-1214h-301v1214h-446z" />
<glyph unicode="U" horiz-adv-x="1462" d="M154 496v970h301v-970q0 -260 280 -260q279 0 279 260v970h303v-970q0 -240 -143 -369q-164 -150 -439 -150q-274 0 -438 150q-143 129 -143 369z" />
<glyph unicode="V" horiz-adv-x="1335" d="M45 1466h303l326 -1106l319 1106h305l-503 -1466h-254z" />
<glyph unicode="W" horiz-adv-x="1898" d="M27 1466h319l227 -1099l228 1099h297l237 -1101l219 1101h320l-406 -1466h-270l-248 1143l-237 -1143h-273z" />
<glyph unicode="X" horiz-adv-x="1341" d="M45 0l463 739l-447 727h359l256 -483l270 483h348l-452 -718l473 -748h-359l-282 508l-279 -508h-350z" />
<glyph unicode="Y" horiz-adv-x="1316" d="M37 1466h336l299 -647l280 647h336l-463 -923v-543h-301v543z" />
<glyph unicode="Z" horiz-adv-x="1228" d="M59 0v252l750 962h-750v252h1102v-252l-749 -962h749v-252h-1102z" />
<glyph unicode="[" horiz-adv-x="761" d="M141 -209v1675h480v-184h-261v-1307h261v-184h-480z" />
<glyph unicode="\" horiz-adv-x="780" d="M18 1378h230l514 -1378h-230z" />
<glyph unicode="]" horiz-adv-x="761" d="M141 -25h262v1307h-262v184h480v-1675h-480v184z" />
<glyph unicode="^" horiz-adv-x="1173" d="M123 543l332 854h252l344 -854h-228l-243 602l-232 -602h-225z" />
<glyph unicode="_" horiz-adv-x="786" d="M-6 -174h801v-131h-801v131z" />
<glyph unicode="`" horiz-adv-x="1005" d="M203 1522h254l139 -301h-139z" />
<glyph unicode="a" d="M55 289q0 205 164 291q70 37 277 73l221 41l-2 78q-2 109 -164 109q-104 0 -146.5 -32t-52.5 -116h-270q25 375 463 375q242 0 348 -86q96 -82 96 -248v-606q0 -73 66 -96v-72h-307q-31 39 -33 111q-113 -133 -328 -134q-158 0 -254 97q-78 78 -78 215zM338 322 q0 -117 151 -117q219 0 226 239l2 80l-207 -47q-88 -20 -131 -59q-41 -39 -41 -96z" />
<glyph unicode="b" horiz-adv-x="1236" d="M127 0v1466h283v-503q100 145 297 145q219 0 346 -176q112 -155 112 -385q0 -270 -145 -430q-127 -139 -313 -140q-199 0 -297 144v-121h-283zM408 541q0 -152 63.5 -240t173.5 -88q109 0 173.5 89t64.5 239q0 152 -64.5 241.5t-173.5 89.5t-173 -89t-64 -242z" />
<glyph unicode="c" horiz-adv-x="1114" d="M63 528q0 295 154 447q133 133 361 133q217 0 344 -125q108 -111 122 -295h-268q-25 106 -71 149.5t-130 43.5q-127 0 -176 -90q-53 -104 -53 -256q0 -154 60.5 -243t166.5 -89q84 0 130.5 44t72.5 146h268q-20 -205 -163 -317q-125 -100 -310 -101q-258 0 -391 166 q-117 143 -117 387z" />
<glyph unicode="d" horiz-adv-x="1236" d="M59 541q0 272 144 430q125 137 313 137q199 0 299 -152v510h283v-1466h-283v121q-98 -143 -297 -144q-215 0 -346 181q-113 154 -113 383zM342 543q0 -147 64.5 -238.5t173.5 -91.5t173 90t64 240q0 152 -65.5 243t-171.5 91t-172 -92.5t-66 -241.5z" />
<glyph unicode="e" horiz-adv-x="1144" d="M59 526q0 289 152 447q133 135 350 135q166 0 291 -82t178 -229q43 -115 43 -277q0 -20 -2 -51h-729q6 -131 41 -186q59 -90 186 -90q158 0 211 131h279q-47 -160 -183.5 -253.5t-318.5 -93.5q-248 0 -381 166q-117 145 -117 383zM346 655h432q-20 238 -219 238 q-186 0 -213 -238z" />
<glyph unicode="f" horiz-adv-x="669" d="M29 877v186h153v131q0 272 275 272q66 0 164 -6v-211q-41 6 -80 6q-76 0 -76 -86v-106h164v-186h-164v-877h-283v877h-153z" />
<glyph unicode="g" horiz-adv-x="1224" d="M63 524q0 268 146 439q127 145 307 145q176 0 299 -170v147h268v-1075q0 -252 -157 -360q-133 -88 -365 -88q-242 0 -368 104q-104 84 -109 203h291q35 -127 200 -127q104 0 177 65q63 57 63 179v161q-78 -96 -145.5 -133t-163.5 -37q-211 0 -334 173q-109 147 -109 374z M346 532q0 -145 62.5 -233t164.5 -88q106 0 177 90q65 83 65 230q0 166 -76 260q-66 81 -166 81q-102 0 -164.5 -94t-62.5 -246z" />
<glyph unicode="h" horiz-adv-x="1212" d="M127 0v1466h283v-534q115 176 317 176q143 0 242 -84q113 -92 112 -293v-731h-282v674q0 194 -170 194h-2q-96 0 -156.5 -59t-60.5 -154v-655h-283z" />
<glyph unicode="i" horiz-adv-x="559" d="M131 0v1085h283v-1085h-283zM137 1325q0 55 39 94t94 39t93 -39t38 -94t-37.5 -93t-93.5 -38q-55 0 -94 38t-39 93z" />
<glyph unicode="j" horiz-adv-x="563" d="M4 -203q23 -8 51 -8q82 0 82 86v1210h281v-1273q0 -135 -57.5 -192.5t-190.5 -57.5q-72 0 -166 10v225zM137 1325q0 55 39 94t94 39t93 -39t38 -94t-37.5 -93t-93.5 -38q-55 0 -94 38t-39 93z" />
<glyph unicode="k" horiz-adv-x="1126" d="M127 0v1466h283v-802l354 421h321l-370 -409l395 -676h-330l-260 479l-110 -123v-356h-283z" />
<glyph unicode="l" horiz-adv-x="559" d="M131 0v1466h283v-1466h-283z" />
<glyph unicode="m" horiz-adv-x="1796" d="M127 0v1085h281v-131q125 154 297 154q211 0 294 -160q123 160 318 160q164 0 255 -89t91 -247v-772h-281v727q0 141 -153 141q-90 0 -141.5 -56t-51.5 -157v-655h-282v727q0 141 -152 141q-90 0 -141 -56t-51 -157v-655h-283z" />
<glyph unicode="n" horiz-adv-x="1230" d="M127 0v1085h283v-153q115 176 323 176q186 0 283 -111q82 -98 82 -266v-731h-281v674q0 194 -180 194h-2q-102 0 -163.5 -58t-61.5 -155v-655h-283z" />
<glyph unicode="o" horiz-adv-x="1224" d="M70 543q0 281 161 432q142 133 375 133q268 0 412 -172q125 -147 125 -393q0 -283 -162 -434q-141 -131 -375 -132q-268 0 -411 170q-125 150 -125 396zM352 543q0 -164 78 -258q70 -80 176 -80q115 0 185.5 93t70.5 245q0 162 -80 256q-70 82 -176 82 q-115 0 -184.5 -93.5t-69.5 -244.5z" />
<glyph unicode="p" horiz-adv-x="1236" d="M125 -438v1523h283v-155q98 178 301 178q96 0 189 -47t149 -123q116 -161 116 -399q0 -264 -145 -424q-125 -137 -309 -138q-201 0 -301 154v-569h-283zM406 541q0 -147 65.5 -237.5t171.5 -90.5t172 90t66 238q0 150 -66 240.5t-172 90.5t-171.5 -91t-65.5 -240z" />
<glyph unicode="q" horiz-adv-x="1236" d="M61 535q0 242 117 403q55 76 147.5 123t190.5 47q201 0 301 -178v155h283v-1523h-283v569q-100 -154 -301 -154q-213 0 -342 177q-113 154 -113 381zM344 541q0 -145 65.5 -236.5t172.5 -91.5q106 0 171.5 90t65.5 238q0 150 -66.5 240.5t-170.5 90.5q-106 0 -172 -91 t-66 -240z" />
<glyph unicode="r" horiz-adv-x="782" d="M127 0v1085h283v-206q53 229 303 229h55l2 -279q-51 10 -106 11q-139 0 -193 -52q-61 -57 -61 -206v-582h-283z" />
<glyph unicode="s" d="M43 311h281q12 -68 58 -90t171 -22q211 0 211 100q0 59 -94 88l-336 102q-129 39 -176 91q-61 63 -62 172q0 178 135 274q119 82 312 82q233 0 368 -104q117 -93 119 -238h-287q-2 66 -47 93.5t-155 27.5q-162 0 -162 -94q0 -55 98 -82l357 -101q213 -59 213 -270 q0 -166 -129 -268q-121 -94 -349 -95q-279 0 -399 82q-119 78 -127 252z" />
<glyph unicode="t" horiz-adv-x="770" d="M29 899v186h139v181l283 161v-342h190v-186h-190v-604q0 -59 21.5 -82t78.5 -23q47 0 121 37q6 4 10 6l33 -192q-129 -63 -271 -64q-276 0 -276 254v668h-139z" />
<glyph unicode="u" horiz-adv-x="1228" d="M117 352v733h282v-673q0 -195 181 -195q102 0 164.5 57.5t62.5 155.5v655h280v-1085h-280v154q-115 -176 -326 -177q-186 0 -282 111q-82 96 -82 264z" />
<glyph unicode="v" horiz-adv-x="1112" d="M25 1085h299l233 -794l221 794h295l-373 -1085h-297z" />
<glyph unicode="w" horiz-adv-x="1564" d="M10 1085h293l172 -759l164 759h283l161 -759l166 759h291l-307 -1085h-291l-164 766l-172 -766h-289z" />
<glyph unicode="x" horiz-adv-x="1114" d="M29 0l362 547l-354 538h338l176 -327l176 327h338l-356 -538l364 -547h-338l-184 338l-184 -338h-338z" />
<glyph unicode="y" d="M18 1085h310l241 -790l224 790h288l-446 -1282q-47 -137 -125 -189t-231 -52q-141 0 -197 37l43 190q74 -18 123 -18q72 0 123 48t51 113v23z" />
<glyph unicode="z" horiz-adv-x="1005" d="M43 0v227l537 631h-502v227h846v-227l-533 -631h551v-227h-899z" />
<glyph unicode="{" horiz-adv-x="782" d="M35 526v207q242 0 241 160v8v309q0 143 82 201q68 41 185 53q14 2 45 4q10 2 16 2l84 -106v-70q-39 0 -76 -6q-49 -6 -73 -22q-45 -33 -45 -107v-313q-2 -178 -222 -209v-12q221 -31 222 -205v-4v-312q0 -78 45 -106q23 -18 77 -25q35 -6 72 -6v-69l-84 -107q-6 0 -20 2 q-27 2 -41 4q-117 12 -185 53q-82 57 -82 201v307q0 168 -241 168z" />
<glyph unicode="|" horiz-adv-x="436" d="M141 57v1352h154v-1352h-154z" />
<glyph unicode="}" horiz-adv-x="782" d="M96 -33q41 0 76 6q51 6 76 25q43 31 43 106v312v4q0 174 221 205v12q-215 31 -221 209v313q0 74 -43 107q-25 18 -82 24q-45 4 -70 4v70l84 106q6 0 21 -2q27 -2 41 -4q121 -12 184 -53q84 -59 84 -201v-309v-14q0 -154 240 -154v-207q-240 0 -240 -168v-307 q0 -141 -84 -201q-66 -43 -188 -55l-13 -2q-27 -2 -43 -2l-86 107v69z" />
<glyph unicode="~" horiz-adv-x="1173" d="M121 563q16 293 258 293q98 0 168 -51l115 -86q66 -47 120 -47q102 0 105 131h157q-18 -293 -258 -293q-98 0 -168 51l-116 86q-63 47 -119 47q-102 0 -107 -131h-155z" />
<glyph unicode="&#xa1;" horiz-adv-x="669" d="M133 49l84 621h135l82 -621v-424h-301v424zM147 934q0 55 38.5 93t93.5 38t94 -38t39 -93t-39 -94t-94 -39t-93.5 39t-38.5 94z" />
<glyph unicode="&#xa2;" horiz-adv-x="1161" d="M188 700q0 258 101 390q94 123 268 145v164h156v-156q66 0 141 -20q63 -12 109 -35l-70 -191q-43 18 -98 35q-51 14 -105 15q-123 0 -182 -74q-63 -80 -64 -268q0 -199 78 -277q59 -55 166 -57q59 0 135 14q74 16 140 39v-102l-101 -125q-61 -20 -149 -27v-188h-156v194 q-176 23 -268 146q-100 125 -101 378z" />
<glyph unicode="&#xa3;" horiz-adv-x="1337" d="M188 0v201q80 31 129 86q47 59 48 168v139h-175v182h175v248q0 188 108 287q100 92 279 92q150 0 278 -74v-192q-141 63 -260 63q-72 0 -113 -39q-47 -47 -47 -147v-238h328v-182h-328v-137q0 -133 -37 -205q86 14 183 14q221 0 393 -69v-91l-86 -106q-186 57 -393 57 q-211 0 -482 -57z" />
<glyph unicode="&#xa4;" horiz-adv-x="1095" d="M113 993l123 123l120 -121q88 55 191 56q104 0 190 -56l121 121l125 -121l-123 -121q55 -88 55 -192q0 -106 -55 -193l119 -118l-121 -121l-121 119q-90 -53 -190 -54q-113 0 -193 54l-118 -119l-121 123l118 119q-53 84 -53 190q0 98 53 190zM354 682q0 -82 56 -137 q57 -57 137 -58q80 0 141 58q57 57 57 137q0 78 -57 139q-61 57 -141 58q-80 0 -137 -58q-56 -59 -56 -139z" />
<glyph unicode="&#xa5;" horiz-adv-x="1081" d="M57 1378h234l250 -610l252 610h231l-313 -710h196v-156h-248v-135h248v-156h-248v-125l-120 -96h-115v221h-252v156h252v135h-252v156h195z" />
<glyph unicode="&#xa6;" horiz-adv-x="436" d="M141 57v566h154v-566h-154zM141 844v565h154v-565h-154z" />
<glyph unicode="&#xa7;" d="M66 575q0 86 36.5 149.5t128.5 133.5l21 14l-27 25q-98 96 -98 223q0 160 135 260q115 86 285 86q252 0 350 -153q47 -74 53 -207h-254q-20 156 -157 156q-129 0 -129 -103q0 -45 35.5 -78.5t144.5 -93.5l256 -141q195 -109 194 -307q0 -190 -188 -277q141 -100 141 -270 q0 -184 -137 -293q-119 -92 -303 -92q-420 0 -422 405h262v-14v-6q4 -84 39 -119q43 -43 125 -43q68 0 111 35t43 88q0 76 -86 125l-402 233q-158 92 -157 264zM305 649q0 -82 107 -141l295 -160q92 66 92 131q0 82 -123 148l-287 151q-84 -49 -84 -129z" />
<glyph unicode="&#xa8;" horiz-adv-x="1005" d="M174 1350q0 55 38 93t93 38t94 -38t39 -93t-39 -94t-94 -39q-53 0 -92 38.5t-39 94.5zM557 1350q0 55 39 93t92 38q57 0 95 -38t38 -93t-39 -94t-94 -39q-53 0 -92 38.5t-39 94.5z" />
<glyph unicode="&#xa9;" horiz-adv-x="1605" d="M94 688q0 195 96 359t256 256q171 96 357 96q188 0 358 -96q158 -92 254 -256t96 -359q0 -193 -96 -356q-92 -158 -254 -254q-164 -96 -358 -96q-193 0 -357 96q-164 94 -256 254q-96 164 -96 356zM217 688q0 -238 172 -414q174 -170 414 -170q242 0 416 170 q170 174 170 414q0 242 -170 416q-170 170 -416 170q-244 0 -414 -170q-172 -176 -172 -416zM440 690q0 197 101 316q104 121 293 120q131 0 270 -69l-66 -144q-100 51 -196 52q-90 0 -144 -62q-63 -74 -63 -215q0 -160 70 -227q49 -49 137 -49q51 0 102 12q72 14 121 39 v-82l-92 -113q-45 -18 -135 -18q-193 0 -297 121q-100 119 -101 319z" />
<glyph unicode="&#xaa;" horiz-adv-x="751" d="M70 975q0 172 192 205l66 12q84 14 106 27q31 14 31 47q0 63 -98 63q-109 0 -119 -90h-158q4 227 272 227q266 0 267 -200v-363q0 -43 39 -78v-20h-185q-18 23 -18 63q-88 -92 -197 -92q-90 0 -144 54.5t-54 144.5zM82 526v158h569v-158h-569zM238 991q0 -78 92 -78 q133 0 133 152v45q-20 -10 -70 -18l-59 -13q-96 -18 -96 -88z" />
<glyph unicode="&#xab;" horiz-adv-x="1042" d="M76 535v22l282 416h88l95 -78l-228 -348l228 -350l-95 -78h-88zM502 535v22l282 416h88l95 -78l-226 -348l226 -350l-95 -78h-88z" />
<glyph unicode="&#xac;" horiz-adv-x="1173" d="M80 428v156h1014v-582h-156v426h-858z" />
<glyph unicode="&#xad;" horiz-adv-x="669" d="M53 416v272h547v-272h-547z" />
<glyph unicode="&#xae;" horiz-adv-x="1605" d="M94 688q0 195 96 359t256 256q171 96 357 96q188 0 358 -96q158 -92 254 -256t96 -359q0 -193 -96 -356q-92 -158 -254 -254q-164 -96 -358 -96q-193 0 -357 96q-164 94 -256 254q-96 164 -96 356zM217 688q0 -238 172 -414q174 -170 414 -170q242 0 416 170 q170 174 170 414q0 242 -170 416q-170 170 -416 170q-244 0 -414 -170q-172 -176 -172 -416zM494 272v832h331q127 0 209 -80t82 -203q0 -143 -131 -209l145 -276l-79 -64h-84l-156 301h-127v-301h-190zM684 719h121q57 0 98 37q31 35 31 78q0 53 -25 84q-30 40 -108 40 h-117v-239z" />
<glyph unicode="&#xaf;" horiz-adv-x="1013" d="M0 1526v160h1014v-160h-1014z" />
<glyph unicode="&#xb0;" horiz-adv-x="802" d="M86 1081q0 131 92 224q94 94 225 94q133 0 224 -94q92 -92 92 -224q0 -131 -92 -223q-88 -92 -224 -92q-133 0 -225 92t-92 223zM244 1081q0 -70 47 -123q45 -51 112 -51q66 0 111 51q47 53 47 123q0 74 -47 127q-47 51 -111 52q-66 0 -112 -52q-47 -53 -47 -127z" />
<glyph unicode="&#xb1;" horiz-adv-x="1173" d="M113 -4v240h948v-240h-948zM113 657v240h354v352h240v-352h354v-240h-354v-354h-240v354h-354z" />
<glyph unicode="&#xb2;" horiz-adv-x="706" d="M33 571q6 129 46 193.5t163 146.5q150 100 188.5 144.5t38.5 111.5q0 129 -121 129t-121 -141q0 -10 2 -35h-184q-2 27 -2 37q0 287 313 287q303 0 303 -268q0 -92 -42 -152.5t-162 -142.5q-129 -90 -174 -146h374v-164h-622z" />
<glyph unicode="&#xb3;" horiz-adv-x="706" d="M31 831h184q8 -131 129 -131q55 0 91 34t36 87q0 127 -174 127h-29v125q16 -2 29 -2q145 0 145 117q0 106 -106 106q-61 0 -87 -32.5t-28 -114.5h-178q8 135 57 199q80 98 242 98q133 0 212 -64.5t79 -171.5q0 -113 -105 -178q133 -66 134 -209q0 -127 -87.5 -201.5 t-234.5 -74.5q-145 0 -227 75.5t-82 210.5z" />
<glyph unicode="&#xb4;" horiz-adv-x="1005" d="M412 1221l141 301h252l-252 -301h-141z" />
<glyph unicode="&#xb5;" horiz-adv-x="1222" d="M141 -438v1523h283v-647q0 -221 168 -221q90 0 146.5 59.5t56.5 153.5v655h282v-759q0 -88 12.5 -118t49.5 -30q16 0 39 8v-174q-61 -35 -142 -35q-127 0 -190 109q-106 -109 -234 -109q-119 0 -202 76v-491h-269z" />
<glyph unicode="&#xb6;" d="M41 995q0 172 102 312q117 160 314 159h608v-145h-88v-1704h-197v1704h-125v-1704h-196v920q-199 10 -316 153q-102 125 -102 305z" />
<glyph unicode="&#xb7;" horiz-adv-x="559" d="M129 602v248h250v-248h-250z" />
<glyph unicode="&#xb8;" horiz-adv-x="1005" d="M219 -385l39 104q141 -61 209 -61q49 0 82 23.5t33 60.5q0 70 -101 70q-49 0 -100 -25l111 213h86l-60 -125q41 12 86 12q152 0 152 -143q0 -186 -258 -186q-115 0 -279 57z" />
<glyph unicode="&#xb9;" horiz-adv-x="706" d="M82 1151v125h4q225 0 272 149h129v-854h-190v580h-215z" />
<glyph unicode="&#xba;" horiz-adv-x="737" d="M47 1120q0 172 96 264q87 82 226 82q150 0 235.5 -92t85.5 -254q0 -160 -86 -252t-235 -92q-150 0 -236 92.5t-86 251.5zM68 526v158h604v-158h-604zM215 1120q0 -92 42 -149.5t112 -57.5t111.5 57.5t41.5 149.5q0 94 -42.5 151.5t-110.5 57.5q-70 0 -112 -57.5 t-42 -151.5z" />
<glyph unicode="&#xbb;" horiz-adv-x="1052" d="M76 197l227 350l-227 348l94 78h90l281 -416v-22l-281 -416h-90zM512 197l227 350l-227 348l94 78h88l283 -416v-22l-283 -416h-88z" />
<glyph unicode="&#xbc;" horiz-adv-x="1560" d="M33 1159l282 219h164v-760l-98 -79h-96v618l-160 -117zM256 0l811 1378h201l-813 -1378h-199zM846 158v118l403 558h181v-533h98v-143h-98v-95l-89 -63h-106v158h-389zM1012 301h223v309z" />
<glyph unicode="&#xbd;" horiz-adv-x="1646" d="M33 1159l282 219h164v-760l-98 -79h-96v618l-160 -117zM274 0l811 1378h201l-813 -1378h-199zM999 0l2 154l105 92q8 8 35 30q250 215 250 312q0 111 -115 110q-49 -4 -141 -59l-93 117q139 92 271 92q117 0 189.5 -63.5t72.5 -168.5q0 -82 -51 -155.5t-209 -218.5 q-12 -12 -23 -21l-57 -55h364v-78l-77 -88h-523z" />
<glyph unicode="&#xbe;" horiz-adv-x="1640" d="M33 631v67q102 -31 166 -30q100 0 147 39q37 25 37 77q0 55 -49 95q-70 51 -195 51v117h97q51 0 84.5 31.5t33.5 80.5q0 47 -41 76t-108 29q-39 0 -123 -21v127q104 33 172 33q123 0 205 -63.5t82 -161.5q0 -72 -46 -125.5t-120 -67.5q94 -12 149 -74q55 -59 56 -131 q0 -109 -87 -174t-231 -65q-111 0 -170 18zM340 0l811 1378h201l-811 -1378h-201zM924 158v118l403 558h180v-533h101v-143h-101v-95l-86 -63h-106v158h-391zM1090 301h225v309z" />
<glyph unicode="&#xbf;" horiz-adv-x="1228" d="M102 53q0 127 51.5 208t192.5 181q94 68 113.5 103t19.5 137h250v-45q-2 -104 -48 -184t-153 -168q-90 -74 -116.5 -116t-26.5 -110q0 -100 60.5 -165.5t152.5 -65.5q94 0 157.5 72.5t63.5 181.5v37h275q-4 -229 -95 -350q-133 -178 -395 -179q-238 0 -379 146 q-123 127 -123 317zM471 963q0 55 39 94t94 39t93 -38t38 -95q0 -53 -38 -92.5t-93 -39.5q-53 0 -93 39t-40 93z" />
<glyph unicode="&#xc0;" horiz-adv-x="1452" d="M53 0l520 1466h334l508 -1466h-311l-96 295h-549l-99 -295h-307zM446 1882h252l142 -301h-142zM543 547h383l-191 573z" />
<glyph unicode="&#xc1;" horiz-adv-x="1452" d="M53 0l520 1466h334l508 -1466h-311l-96 295h-549l-99 -295h-307zM543 547h383l-191 573zM633 1581l139 301h254l-254 -301h-139z" />
<glyph unicode="&#xc2;" horiz-adv-x="1452" d="M53 0l520 1466h334l508 -1466h-311l-96 295h-549l-99 -295h-307zM414 1581l217 301h215l207 -301h-156l-164 201l-166 -201h-153zM543 547h383l-191 573z" />
<glyph unicode="&#xc3;" horiz-adv-x="1452" d="M53 0l520 1466h334l508 -1466h-311l-96 295h-549l-99 -295h-307zM389 1608q10 250 189 250q43 0 112 -25l144 -51q35 -12 69 -13q57 0 72 97h125q-14 -256 -189 -256q-45 0 -112 24l-144 54q-37 12 -63 12q-63 0 -78 -92h-125zM543 547h383l-191 573z" />
<glyph unicode="&#xc4;" horiz-adv-x="1452" d="M53 0l520 1466h334l508 -1466h-311l-96 295h-549l-99 -295h-307zM440 1724q0 55 39 94.5t92 39.5q55 0 94.5 -39t39.5 -95q0 -53 -39 -92t-95 -39q-53 0 -92 39t-39 92zM543 547h383l-191 573zM752 1724q0 55 39 94.5t94 39.5t93 -39t38 -95q0 -55 -38 -93t-93 -38 q-53 0 -93 39t-40 92z" />
<glyph unicode="&#xc5;" horiz-adv-x="1452" d="M53 0l520 1466h334l508 -1466h-311l-96 295h-549l-99 -295h-307zM543 547h383l-191 573zM553 1729q0 76 53 128t129 52t128 -52.5t52 -127.5q0 -76 -53 -128.5t-127 -52.5q-76 0 -129 52.5t-53 128.5zM649 1729q0 -35 25.5 -59.5t60.5 -24.5t59.5 24.5t24.5 59.5 t-24.5 59t-59.5 24t-60.5 -24.5t-25.5 -58.5z" />
<glyph unicode="&#xc6;" horiz-adv-x="2011" d="M2 0l528 1466h1373v-252h-736v-331h680v-252h-680v-379h775v-252h-1078v305h-448l-105 -305h-309zM502 557h362v657h-133z" />
<glyph unicode="&#xc7;" horiz-adv-x="1452" d="M88 731q0 373 205 578q178 180 465 180q340 0 514 -227q86 -113 98 -285h-287q-59 254 -313 254q-188 0 -291 -152q-90 -133 -90 -352q0 -250 111 -381q96 -115 260 -115q141 0 225 74t98 211h293q-14 -260 -198 -407q-160 -128 -408 -132l-47 -102q41 12 84 12 q154 0 154 -143q0 -186 -259 -186q-115 0 -278 57l37 104q135 -61 211 -61q49 0 81.5 23.5t32.5 60.5q0 70 -102 70q-49 0 -98 -25l98 193q-227 20 -371 155q-225 207 -225 596z" />
<glyph unicode="&#xc8;" horiz-adv-x="1337" d="M154 0v1466h1058v-252h-757v-331h702v-252h-702v-379h794v-252h-1095zM414 1882h254l139 -301h-139z" />
<glyph unicode="&#xc9;" horiz-adv-x="1337" d="M154 0v1466h1058v-252h-757v-331h702v-252h-702v-379h794v-252h-1095zM565 1581l142 301h254l-254 -301h-142z" />
<glyph unicode="&#xca;" horiz-adv-x="1337" d="M154 0v1466h1058v-252h-757v-331h702v-252h-702v-379h794v-252h-1095zM369 1581l215 301h217l207 -301h-156l-166 201l-164 -201h-153z" />
<glyph unicode="&#xcb;" horiz-adv-x="1337" d="M154 0v1466h1058v-252h-757v-331h702v-252h-702v-379h794v-252h-1095zM410 1724q0 55 38 94.5t93 39.5t94 -39t39 -95q0 -53 -39 -92t-94 -39t-93 39t-38 92zM721 1724q0 55 39 94.5t94 39.5t93 -39t38 -95q0 -55 -39 -93t-92 -38q-55 0 -94 39t-39 92z" />
<glyph unicode="&#xcc;" horiz-adv-x="602" d="M6 1882h254l139 -301h-139zM154 0v1466h301v-1466h-301z" />
<glyph unicode="&#xcd;" horiz-adv-x="602" d="M154 0v1466h301v-1466h-301zM242 1581l137 301h252l-250 -301h-139z" />
<glyph unicode="&#xce;" horiz-adv-x="602" d="M-8 1581l217 301h215l207 -301h-156l-164 201l-166 -201h-153zM154 0v1466h301v-1466h-301z" />
<glyph unicode="&#xcf;" horiz-adv-x="602" d="M-6 1724q0 55 39 94.5t92 39.5q55 0 94 -39t39 -95q0 -53 -39 -92t-94 -39q-53 0 -92 39t-39 92zM154 0v1466h301v-1466h-301zM305 1724q0 55 39 94.5t94 39.5t93 -39t38 -95q0 -55 -37.5 -93t-93.5 -38q-55 0 -94 39t-39 92z" />
<glyph unicode="&#xd0;" horiz-adv-x="1452" d="M0 682v160h156v624h573q326 0 463 -170q178 -219 178 -563t-178 -563q-137 -170 -463 -170h-573v682h-156zM457 252h270q184 0 260 108q92 133 92 373t-92 373q-76 109 -260 108h-270v-372h301v-160h-301v-430z" />
<glyph unicode="&#xd1;" horiz-adv-x="1492" d="M154 0v1466h309l581 -997v997h302v-1466h-302l-589 1014v-1014h-301zM408 1608q12 250 190 250q41 0 111 -25l143 -51q37 -12 70 -13q59 0 71 97h127q-14 -256 -184 -256q-51 0 -117 24l-143 54q-37 12 -64 12q-63 0 -77 -92h-127z" />
<glyph unicode="&#xd2;" horiz-adv-x="1572" d="M70 733q0 338 204 557q189 199 502 199q311 0 500 -199q205 -215 205 -557q0 -338 -205 -557q-186 -199 -500 -199q-315 0 -502 199q-205 219 -204 557zM371 733q0 -242 125 -379q109 -119 280 -118q197 0 307 153q96 133 97 344q0 242 -125 379q-109 119 -279 119 q-197 0 -309 -154q-96 -133 -96 -344zM500 1882h254l141 -301h-141z" />
<glyph unicode="&#xd3;" horiz-adv-x="1572" d="M70 733q0 338 204 557q189 199 502 199q311 0 500 -199q205 -215 205 -557q0 -338 -205 -557q-186 -199 -500 -199q-315 0 -502 199q-205 219 -204 557zM371 733q0 -242 125 -379q109 -119 280 -118q197 0 307 153q96 133 97 344q0 242 -125 379q-109 119 -279 119 q-197 0 -309 -154q-96 -133 -96 -344zM659 1581l142 301h254l-254 -301h-142z" />
<glyph unicode="&#xd4;" horiz-adv-x="1572" d="M70 733q0 338 204 557q189 199 502 199q311 0 500 -199q205 -215 205 -557q0 -338 -205 -557q-186 -199 -500 -199q-315 0 -502 199q-205 219 -204 557zM371 733q0 -242 125 -379q109 -119 280 -118q197 0 307 153q96 133 97 344q0 242 -125 379q-109 119 -279 119 q-197 0 -309 -154q-96 -133 -96 -344zM457 1581l215 301h217l207 -301h-158l-164 201l-166 -201h-151z" />
<glyph unicode="&#xd5;" horiz-adv-x="1572" d="M70 733q0 338 204 557q189 199 502 199q311 0 500 -199q205 -215 205 -557q0 -338 -205 -557q-186 -199 -500 -199q-315 0 -502 199q-205 219 -204 557zM371 733q0 -242 125 -379q109 -119 280 -118q197 0 307 153q96 133 97 344q0 242 -125 379q-109 119 -279 119 q-197 0 -309 -154q-96 -133 -96 -344zM432 1608q12 250 191 250q43 0 110 -25l146 -51q35 -12 67 -13q59 0 72 97h127q-14 -256 -184 -256q-49 0 -117 24l-144 54q-37 12 -63 12q-63 0 -78 -92h-127z" />
<glyph unicode="&#xd6;" horiz-adv-x="1572" d="M70 733q0 338 204 557q189 199 502 199q311 0 500 -199q205 -215 205 -557q0 -338 -205 -557q-186 -199 -500 -199q-315 0 -502 199q-205 219 -204 557zM371 733q0 -242 125 -379q109 -119 280 -118q197 0 307 153q96 133 97 344q0 242 -125 379q-109 119 -279 119 q-197 0 -309 -154q-96 -133 -96 -344zM477 1724q0 55 39 94.5t92 39.5q55 0 94 -39t39 -95q0 -53 -38.5 -92t-94.5 -39q-53 0 -92 39t-39 92zM825 1724q0 55 39 94.5t94 39.5t93.5 -39t38.5 -95q0 -55 -38 -93t-94 -38q-53 0 -93 39t-40 92z" />
<glyph unicode="&#xd7;" horiz-adv-x="899" d="M66 733l127 127l256 -256l258 256l127 -127l-259 -256l252 -252l-127 -127l-251 250l-250 -250l-127 127l250 252z" />
<glyph unicode="&#xd8;" horiz-adv-x="1572" d="M53 14l187 205q-168 211 -168 514q0 336 204 557q186 199 500 199q283 0 465 -164l164 182l104 -92l-176 -192q150 -211 150 -490q0 -338 -205 -557q-186 -199 -502 -199q-260 0 -440 144l-180 -201zM373 735q-1 -170 65 -297l615 678q-104 115 -277 115 q-195 0 -307 -154q-96 -133 -96 -342zM524 328q102 -92 254 -92q195 0 307 151q96 133 97 342q-1 155 -52 268z" />
<glyph unicode="&#xd9;" horiz-adv-x="1462" d="M154 496v970h301v-970q0 -260 280 -260q279 0 279 260v970h303v-970q0 -240 -143 -369q-164 -150 -439 -150q-274 0 -438 150q-143 129 -143 369zM461 1882h252l141 -301h-141z" />
<glyph unicode="&#xda;" horiz-adv-x="1462" d="M154 496v970h301v-970q0 -260 280 -260q279 0 279 260v970h303v-970q0 -240 -143 -369q-164 -150 -439 -150q-274 0 -438 150q-143 129 -143 369zM618 1581l142 301h254l-254 -301h-142z" />
<glyph unicode="&#xdb;" horiz-adv-x="1462" d="M154 496v970h301v-970q0 -260 280 -260q279 0 279 260v970h303v-970q0 -240 -143 -369q-164 -150 -439 -150q-274 0 -438 150q-143 129 -143 369zM416 1581l215 301h217l207 -301h-158l-164 201l-164 -201h-153z" />
<glyph unicode="&#xdc;" horiz-adv-x="1462" d="M154 496v970h301v-970q0 -260 280 -260q279 0 279 260v970h303v-970q0 -240 -143 -369q-164 -150 -439 -150q-274 0 -438 150q-143 129 -143 369zM449 1724q0 55 38 94.5t93 39.5t94 -39t39 -95q0 -53 -39 -92t-94 -39q-53 0 -92 39t-39 92zM770 1724q0 55 39 94.5 t94 39.5t93 -39t38 -95q0 -55 -38 -93t-93 -38q-53 0 -93 39t-40 92z" />
<glyph unicode="&#xdd;" horiz-adv-x="1316" d="M37 1466h336l299 -647l280 647h336l-463 -923v-543h-301v543zM563 1581l139 301h254l-254 -301h-139z" />
<glyph unicode="&#xde;" horiz-adv-x="1343" d="M154 0v1466h301v-241h346q233 0 348 -113q125 -123 125 -344q0 -240 -135 -373q-117 -113 -308 -112h-376v-283h-301zM455 532h280q238 0 238 222q0 219 -238 219h-280v-441z" />
<glyph unicode="&#xdf;" horiz-adv-x="1220" d="M127 0v1053q0 231 123 331q129 104 354 105q215 0 344 -119q113 -104 113 -258q0 -207 -176 -272q264 -55 264 -351q0 -250 -137 -389q-119 -123 -303 -123q-59 0 -144 13v225h15h10q125 2 186 51q90 70 90 199q0 115 -73.5 182.5t-200.5 67.5q-9 0 -27 -2v190h27 q84 2 135 51.5t51 130.5q0 82 -51 129.5t-141 47.5q-176 0 -176 -170v-1092h-283z" />
<glyph unicode="&#xe0;" d="M55 289q0 205 164 291q70 37 277 73l221 41l-2 78q-2 109 -164 109q-104 0 -146.5 -32t-52.5 -116h-270q25 375 463 375q242 0 348 -86q96 -82 96 -248v-606q0 -73 66 -96v-72h-307q-31 39 -33 111q-113 -133 -328 -134q-158 0 -254 97q-78 78 -78 215zM266 1522h254 l142 -301h-142zM338 322q0 -117 151 -117q219 0 226 239l2 80l-207 -47q-88 -20 -131 -59q-41 -39 -41 -96z" />
<glyph unicode="&#xe1;" d="M55 289q0 205 164 291q70 37 277 73l221 41l-2 78q-2 109 -164 109q-104 0 -146.5 -32t-52.5 -116h-270q25 375 463 375q242 0 348 -86q96 -82 96 -248v-606q0 -73 66 -96v-72h-307q-31 39 -33 111q-113 -133 -328 -134q-158 0 -254 97q-78 78 -78 215zM338 322 q0 -117 151 -117q219 0 226 239l2 80l-207 -47q-88 -20 -131 -59q-41 -39 -41 -96zM432 1221l141 301h254l-254 -301h-141z" />
<glyph unicode="&#xe2;" d="M55 289q0 205 164 291q70 37 277 73l221 41l-2 78q-2 109 -164 109q-104 0 -146.5 -32t-52.5 -116h-270q25 375 463 375q242 0 348 -86q96 -82 96 -248v-606q0 -73 66 -96v-72h-307q-31 39 -33 111q-113 -133 -328 -134q-158 0 -254 97q-78 78 -78 215zM229 1221l215 301 h218l206 -301h-157l-164 200l-164 -200h-154zM338 322q0 -117 151 -117q219 0 226 239l2 80l-207 -47q-88 -20 -131 -59q-41 -39 -41 -96z" />
<glyph unicode="&#xe3;" d="M55 289q0 205 164 291q70 37 277 73l221 41l-2 78q-2 109 -164 109q-104 0 -146.5 -32t-52.5 -116h-270q25 375 463 375q242 0 348 -86q96 -82 96 -248v-606q0 -73 66 -96v-72h-307q-31 39 -33 111q-113 -133 -328 -134q-158 0 -254 97q-78 78 -78 215zM193 1247 q12 250 190 250q39 0 111 -24l145 -52q37 -14 68 -14q59 0 71 98h127q-14 -256 -190 -256q-45 0 -111 25l-143 53q-37 12 -64 12q-63 0 -78 -92h-126zM338 322q0 -117 151 -117q219 0 226 239l2 80l-207 -47q-88 -20 -131 -59q-41 -39 -41 -96z" />
<glyph unicode="&#xe4;" d="M55 289q0 205 164 291q70 37 277 73l221 41l-2 78q-2 109 -164 109q-104 0 -146.5 -32t-52.5 -116h-270q25 375 463 375q242 0 348 -86q96 -82 96 -248v-606q0 -73 66 -96v-72h-307q-31 39 -33 111q-113 -133 -328 -134q-158 0 -254 97q-78 78 -78 215zM260 1354 q0 55 38 94t93 39t94 -39t39 -94q0 -53 -39 -92t-94 -39t-93 38.5t-38 92.5zM338 322q0 -117 151 -117q219 0 226 239l2 80l-207 -47q-88 -20 -131 -59q-41 -39 -41 -96zM571 1354q0 55 39.5 94t94.5 39t93 -39t38 -94q0 -53 -39 -92t-92 -39q-55 0 -94.5 38.5t-39.5 92.5z " />
<glyph unicode="&#xe5;" d="M55 289q0 205 164 291q70 37 277 73l221 41l-2 78q-2 109 -164 109q-104 0 -146.5 -32t-52.5 -116h-270q25 375 463 375q242 0 348 -86q96 -82 96 -248v-606q0 -73 66 -96v-72h-307q-31 39 -33 111q-113 -133 -328 -134q-158 0 -254 97q-78 78 -78 215zM338 322 q0 -117 151 -117q219 0 226 239l2 80l-207 -47q-88 -20 -131 -59q-41 -39 -41 -96zM367 1368q0 76 53 128t131 52q74 0 126 -52t52 -128t-53 -129t-127 -53q-76 0 -129 53t-53 129zM463 1368q0 -35 25.5 -60.5t60.5 -25.5t59.5 25.5t24.5 60.5t-24.5 59.5t-57.5 24.5 q-37 0 -62.5 -24.5t-25.5 -59.5z" />
<glyph unicode="&#xe6;" horiz-adv-x="1798" d="M55 289q0 252 211 311q121 33 314 66l137 22q-4 106 -42 149.5t-124 43.5q-104 0 -146.5 -31t-52.5 -117h-270q25 375 465 375q236 0 354 -102q133 102 318 102q164 0 287.5 -83t179.5 -228q41 -115 40 -277q0 -18 -2 -51h-727q4 -133 41 -186q59 -90 185 -90 q160 0 213 131h278q-47 -160 -183 -253.5t-319 -93.5q-252 0 -401 189q-80 -104 -170 -147.5t-225 -43.5q-184 0 -279 95q-82 80 -82 219zM338 319q0 -117 151 -116q205 0 226 241l4 70l-217 -45q-86 -18 -123 -51q-41 -39 -41 -99zM999 655h435q-20 238 -222 238 q-186 0 -213 -238z" />
<glyph unicode="&#xe7;" horiz-adv-x="1114" d="M63 528q0 293 154 447q133 133 361 133q217 0 344 -125q109 -111 122 -295h-268q-25 106 -71 149.5t-130 43.5q-127 0 -176 -90q-53 -104 -53 -256q0 -154 61.5 -243t165.5 -89q82 0 129.5 44t73.5 146h268q-20 -199 -155 -311q-119 -99 -297 -105l-47 -102q41 12 84 12 q154 0 153 -143q0 -186 -258 -186q-115 0 -278 57l39 104q133 -61 209 -61q49 0 81.5 23.5t32.5 60.5q0 70 -100 70q-51 0 -100 -25l98 193q-442 49 -443 548z" />
<glyph unicode="&#xe8;" horiz-adv-x="1144" d="M59 526q0 289 152 447q133 135 350 135q166 0 291 -82t178 -229q43 -115 43 -277q0 -20 -2 -51h-729q6 -131 41 -186q59 -90 186 -90q158 0 211 131h279q-47 -160 -183.5 -253.5t-318.5 -93.5q-248 0 -381 166q-117 145 -117 383zM285 1522h254l139 -301h-139zM346 655 h432q-20 238 -219 238q-186 0 -213 -238z" />
<glyph unicode="&#xe9;" horiz-adv-x="1144" d="M59 526q0 289 152 447q133 135 350 135q166 0 291 -82t178 -229q43 -115 43 -277q0 -20 -2 -51h-729q6 -131 41 -186q59 -90 186 -90q158 0 211 131h279q-47 -160 -183.5 -253.5t-318.5 -93.5q-248 0 -381 166q-117 145 -117 383zM346 655h432q-20 238 -219 238 q-186 0 -213 -238zM465 1221l139 301h254l-254 -301h-139z" />
<glyph unicode="&#xea;" horiz-adv-x="1144" d="M59 526q0 289 152 447q133 135 350 135q166 0 291 -82t178 -229q43 -115 43 -277q0 -20 -2 -51h-729q6 -131 41 -186q59 -90 186 -90q158 0 211 131h279q-47 -160 -183.5 -253.5t-318.5 -93.5q-248 0 -381 166q-117 145 -117 383zM260 1221l215 301h217l207 -301h-156 l-165 200l-164 -200h-154zM346 655h432q-20 238 -219 238q-186 0 -213 -238z" />
<glyph unicode="&#xeb;" horiz-adv-x="1144" d="M59 526q0 289 152 447q133 135 350 135q166 0 291 -82t178 -229q43 -115 43 -277q0 -20 -2 -51h-729q6 -131 41 -186q59 -90 186 -90q158 0 211 131h279q-47 -160 -183.5 -253.5t-318.5 -93.5q-248 0 -381 166q-117 145 -117 383zM258 1354q0 55 39 94t92 39q55 0 94 -39 t39 -94q0 -53 -39 -92t-94 -39q-53 0 -92 38.5t-39 92.5zM346 655h432q-20 238 -219 238q-186 0 -213 -238zM569 1354q0 55 39 94t94 39t93.5 -39t38.5 -94q0 -53 -38 -92t-94 -39q-53 0 -93 38.5t-40 92.5z" />
<glyph unicode="&#xec;" horiz-adv-x="559" d="M-35 1522h254l139 -301h-139zM133 0v1085h283v-1085h-283z" />
<glyph unicode="&#xed;" horiz-adv-x="559" d="M131 0v1085h283v-1085h-283zM186 1221l140 301h254l-254 -301h-140z" />
<glyph unicode="&#xee;" horiz-adv-x="559" d="M-41 1221l217 301h215l207 -301h-156l-163 200l-166 -200h-154zM131 0v1085h283v-1085h-283z" />
<glyph unicode="&#xef;" horiz-adv-x="559" d="M-20 1354q0 55 39 94t92 39q55 0 94 -39t39 -94q0 -53 -39 -92t-94 -39q-53 0 -92 38.5t-39 92.5zM133 0v1085h281v-1085h-281zM291 1354q0 55 39 94t94 39t93 -39t38 -94q0 -53 -38 -92t-93 -39t-94 38.5t-39 92.5z" />
<glyph unicode="&#xf0;" horiz-adv-x="1224" d="M70 551q0 324 227 463q121 74 252 73q63 0 164 -34q-83 117 -183 176l-153 -92l-86 73l141 88q-66 39 -182 97l135 96q74 -29 174 -86q4 0 23 -10l8 -4l176 104l100 -68l-168 -100q444 -299 445 -774q0 -289 -162 -442q-139 -133 -375 -134q-266 0 -411 175 q-125 152 -125 399zM354 541q0 -162 78 -256q68 -80 174 -80q115 0 183.5 92t68.5 244q0 162 -78 254q-68 82 -174 82q-113 0 -182.5 -93.5t-69.5 -242.5z" />
<glyph unicode="&#xf1;" horiz-adv-x="1230" d="M127 0v1085h283v-153q115 176 323 176q186 0 283 -111q82 -98 82 -266v-731h-281v674q0 195 -182 194q-102 0 -163.5 -58t-61.5 -155v-655h-283zM250 1247q12 250 190 250q39 0 111 -24l145 -52q37 -14 68 -14q59 0 72 98h127q-14 -256 -191 -256q-45 0 -110 25l-144 53 q-37 12 -63 12q-63 0 -78 -92h-127z" />
<glyph unicode="&#xf2;" horiz-adv-x="1224" d="M70 543q0 281 161 432q142 133 375 133q268 0 412 -172q125 -147 125 -393q0 -283 -162 -434q-141 -131 -375 -132q-268 0 -411 170q-125 150 -125 396zM324 1522h251l142 -301h-142zM352 543q0 -164 78 -258q70 -80 176 -80q115 0 185.5 93t70.5 245q0 162 -80 256 q-70 82 -176 82q-115 0 -184.5 -93.5t-69.5 -244.5z" />
<glyph unicode="&#xf3;" horiz-adv-x="1224" d="M70 543q0 281 161 432q142 133 375 133q268 0 412 -172q125 -147 125 -393q0 -283 -162 -434q-141 -131 -375 -132q-268 0 -411 170q-125 150 -125 396zM352 543q0 -164 78 -258q70 -80 176 -80q115 0 185.5 93t70.5 245q0 162 -80 256q-70 82 -176 82 q-115 0 -184.5 -93.5t-69.5 -244.5zM492 1221l139 301h254l-254 -301h-139z" />
<glyph unicode="&#xf4;" horiz-adv-x="1224" d="M70 543q0 281 161 432q142 133 375 133q268 0 412 -172q125 -147 125 -393q0 -283 -162 -434q-141 -131 -375 -132q-268 0 -411 170q-125 150 -125 396zM287 1221l217 301h215l207 -301h-156l-164 200l-166 -200h-153zM352 543q0 -164 78 -258q70 -80 176 -80 q115 0 185.5 93t70.5 245q0 162 -80 256q-70 82 -176 82q-115 0 -184.5 -93.5t-69.5 -244.5z" />
<glyph unicode="&#xf5;" horiz-adv-x="1224" d="M70 543q0 281 161 432q142 133 375 133q268 0 412 -172q125 -147 125 -393q0 -283 -162 -434q-141 -131 -375 -132q-268 0 -411 170q-125 150 -125 396zM258 1247q10 250 188 250q41 0 113 -24l143 -52q37 -14 70 -14q57 0 72 98h125q-14 -256 -189 -256q-45 0 -112 25 l-144 53q-37 12 -63 12q-63 0 -78 -92h-125zM352 543q0 -164 78 -258q70 -80 176 -80q115 0 185.5 93t70.5 245q0 162 -80 256q-70 82 -176 82q-115 0 -184.5 -93.5t-69.5 -244.5z" />
<glyph unicode="&#xf6;" horiz-adv-x="1224" d="M70 543q0 281 161 432q142 133 375 133q268 0 412 -172q125 -147 125 -393q0 -283 -162 -434q-141 -131 -375 -132q-268 0 -411 170q-125 150 -125 396zM307 1354q0 55 39 94t92 39q55 0 94 -39t39 -94q0 -53 -38.5 -92t-94.5 -39q-53 0 -92 38.5t-39 92.5zM352 543 q0 -164 78 -258q70 -80 176 -80q115 0 185.5 93t70.5 245q0 162 -80 256q-70 82 -176 82q-115 0 -184.5 -93.5t-69.5 -244.5zM618 1354q0 55 39.5 94t94.5 39t93 -39t38 -94q0 -53 -38 -92t-93 -39t-94.5 38.5t-39.5 92.5z" />
<glyph unicode="&#xf7;" horiz-adv-x="1058" d="M86 391v187h889v-187h-889zM397 131q0 55 39 94t94 39t93.5 -39t38.5 -94t-38 -93t-94 -38q-55 0 -94 39t-39 92zM397 838q0 55 39 93t94 38t93.5 -38t38.5 -93t-38 -94t-94 -39q-55 0 -94 38.5t-39 94.5z" />
<glyph unicode="&#xf8;" horiz-adv-x="1226" d="M29 16l151 154q-109 143 -108 373q0 281 161 432q143 133 375 133q229 0 369 -127l135 139l86 -82l-143 -145q92 -141 92 -350q0 -283 -162 -434q-141 -131 -375 -132q-209 0 -348 109l-147 -152zM354 543q0 -90 27 -168l410 418q-70 88 -183 88t-183.5 -93.5 t-70.5 -244.5zM444 270q74 -66 166 -65q115 0 184.5 92t69.5 244q0 78 -18 139z" />
<glyph unicode="&#xf9;" horiz-adv-x="1228" d="M117 352v733h282v-673q0 -195 181 -195q102 0 164.5 57.5t62.5 155.5v655h280v-1085h-280v154q-115 -176 -326 -177q-186 0 -282 111q-82 96 -82 264zM322 1522h251l142 -301h-142z" />
<glyph unicode="&#xfa;" horiz-adv-x="1228" d="M117 352v733h282v-673q0 -195 181 -195q102 0 164.5 57.5t62.5 155.5v655h280v-1085h-280v154q-115 -176 -326 -177q-186 0 -282 111q-82 96 -82 264zM481 1221l140 301h253l-253 -301h-140z" />
<glyph unicode="&#xfb;" horiz-adv-x="1228" d="M117 352v733h282v-673q0 -195 181 -195q102 0 164.5 57.5t62.5 155.5v655h280v-1085h-280v154q-115 -176 -326 -177q-186 0 -282 111q-82 96 -82 264zM276 1221l216 301h217l206 -301h-157l-164 200l-164 -200h-154z" />
<glyph unicode="&#xfc;" horiz-adv-x="1228" d="M117 352v733h282v-673q0 -195 181 -195q102 0 164.5 57.5t62.5 155.5v655h280v-1085h-280v154q-115 -176 -326 -177q-186 0 -282 111q-82 96 -82 264zM315 1354q0 55 39 94t92 39q55 0 94.5 -39t39.5 -94q0 -53 -39 -92t-95 -39q-53 0 -92 38.5t-39 92.5zM627 1354 q0 55 39 94t94 39t93 -39t38 -94q0 -53 -38 -92t-93 -39t-94 38.5t-39 92.5z" />
<glyph unicode="&#xfd;" d="M18 1085h310l241 -790l224 790h288l-446 -1282q-47 -137 -125 -189t-231 -52q-141 0 -197 37l43 190q74 -18 123 -18q72 0 123 48t51 113v23zM422 1221l141 301h254l-254 -301h-141z" />
<glyph unicode="&#xfe;" horiz-adv-x="1243" d="M131 -438v1904h283v-536q98 178 301 178q96 0 189 -47t149 -123q117 -162 116 -403q0 -260 -145 -420q-125 -137 -309 -138q-201 0 -301 154v-569h-283zM412 541q0 -147 65.5 -237.5t171.5 -90.5t172 90t66 238q0 150 -66 240.5t-172 90.5t-171.5 -91t-65.5 -240z" />
<glyph unicode="&#xff;" d="M18 1085h310l241 -790l224 790h288l-446 -1282q-47 -137 -125 -189t-231 -52q-141 0 -197 37l43 190q74 -18 123 -18q72 0 123 48t51 113v23zM258 1354q0 55 39 94t92 39q55 0 94 -39t39 -94q0 -53 -39 -92t-94 -39q-53 0 -92 38.5t-39 92.5zM569 1354q0 55 39 94t94 39 t93.5 -39t38.5 -94q0 -53 -38 -92t-94 -39q-55 0 -94 38.5t-39 92.5z" />
<glyph unicode="&#x2000;" horiz-adv-x="954" />
<glyph unicode="&#x2001;" horiz-adv-x="1909" />
<glyph unicode="&#x2002;" horiz-adv-x="954" />
<glyph unicode="&#x2003;" horiz-adv-x="1909" />
<glyph unicode="&#x2004;" horiz-adv-x="636" />
<glyph unicode="&#x2005;" horiz-adv-x="477" />
<glyph unicode="&#x2006;" horiz-adv-x="318" />
<glyph unicode="&#x2007;" horiz-adv-x="318" />
<glyph unicode="&#x2008;" horiz-adv-x="238" />
<glyph unicode="&#x2009;" horiz-adv-x="381" />
<glyph unicode="&#x200a;" horiz-adv-x="106" />
<glyph unicode="&#x2010;" horiz-adv-x="657" d="M76 391v211h506v-211h-506z" />
<glyph unicode="&#x2011;" horiz-adv-x="657" d="M76 391v211h506v-211h-506z" />
<glyph unicode="&#x2012;" horiz-adv-x="657" d="M76 391v211h506v-211h-506z" />
<glyph unicode="&#x2013;" horiz-adv-x="962" d="M76 391v211h811v-211h-811z" />
<glyph unicode="&#x2014;" horiz-adv-x="1927" d="M76 391v211h1775v-211h-1775z" />
<glyph unicode="&#x2018;" horiz-adv-x="481" d="M106 1139q0 162 146 327h63l50 -41q-51 -74 -68 -110q-23 -41 -31 -78q57 -6 90 -51q23 -31 23 -80q0 -37 -21 -74q-39 -57 -108 -57q-61 0 -102.5 48t-41.5 116z" />
<glyph unicode="&#x2019;" horiz-adv-x="481" d="M106 1333q0 41 23 76q37 57 109 57q59 0 100 -47t41 -119q0 -154 -143 -325h-66l-49 41q41 55 69 112q19 39 31 76q-53 6 -88 47q-27 37 -27 82z" />
<glyph unicode="&#x201a;" horiz-adv-x="481" d="M106 141q0 41 23 74q37 57 109 57q61 0 101 -46t40 -117q0 -154 -143 -326h-66l-49 41q39 53 69 110q21 43 31 78q-53 6 -88 47q-27 37 -27 82z" />
<glyph unicode="&#x201c;" horiz-adv-x="851" d="M109 1139q0 162 145 327h63l50 -41q-51 -74 -68 -110q-23 -41 -31 -78q29 -4 49 -14q23 -12 41 -37q23 -31 23 -80q0 -37 -21 -74q-39 -57 -108 -57q-61 0 -102 48t-41 116zM479 1139q0 162 146 327h63l49 -41q-51 -74 -67 -110q-23 -41 -31 -78q27 -4 47 -14 q23 -12 39 -33q27 -33 27 -82q0 -39 -21 -76q-41 -57 -108 -57q-61 0 -102.5 47t-41.5 117z" />
<glyph unicode="&#x201d;" horiz-adv-x="851" d="M106 1333q0 41 23 76q37 57 109 57q59 0 100 -47t41 -119q0 -154 -143 -325h-66l-49 41q41 55 69 112q19 39 31 76q-53 6 -88 47q-27 37 -27 82zM477 1333q0 39 21 76q41 57 108 57q59 0 101.5 -47t42.5 -116q0 -162 -146 -328h-63l-49 41q45 59 67 112q21 35 33 76 q-59 6 -92 51q-23 35 -23 78z" />
<glyph unicode="&#x201e;" horiz-adv-x="851" d="M106 141q0 41 23 74q37 57 109 57q61 0 101 -46t40 -117q0 -154 -143 -326h-66l-49 41q39 53 69 110q21 43 31 78q-53 6 -88 47q-27 37 -27 82zM477 143q0 37 21 72q41 57 108 57q61 0 102.5 -46t41.5 -115q0 -162 -146 -328h-63l-49 41q43 59 67 110q21 39 33 78 q-59 6 -92 51q-23 33 -23 80z" />
<glyph unicode="&#x2022;" horiz-adv-x="999" d="M236 385q0 111 76.5 188.5t185.5 77.5q111 0 188.5 -77.5t77.5 -188.5t-78 -188.5t-188 -77.5q-109 0 -185.5 77.5t-76.5 188.5z" />
<glyph unicode="&#x2026;" horiz-adv-x="1318" d="M156 125q0 55 38 93t93 38t93 -38t38 -93t-38 -93t-93 -38t-93 38t-38 93zM532 125q0 55 38.5 93t93.5 38t93 -38t38 -93t-38 -93t-93 -38t-93.5 38t-38.5 93zM909 125q0 55 38 93t93 38t93 -38t38 -93t-37.5 -93t-93.5 -38q-55 0 -93 38t-38 93z" />
<glyph unicode="&#x202f;" horiz-adv-x="381" />
<glyph unicode="&#x2039;" horiz-adv-x="616" d="M76 535v22l282 416h88l95 -78l-228 -348l228 -350l-95 -78h-88z" />
<glyph unicode="&#x203a;" horiz-adv-x="616" d="M76 197l227 350l-227 348l94 78h90l281 -416v-22l-281 -416h-90z" />
<glyph unicode="&#x205f;" horiz-adv-x="477" />
<glyph unicode="&#x20ac;" horiz-adv-x="1310" d="M188 461v153h121q-4 31 -4 80q0 29 2 43h-119v154h134q37 246 170 379t354 133q139 0 239 -64v-209q-131 66 -235 66q-98 0 -166 -61q-84 -72 -115 -244h365v-154h-377q-4 -14 -4 -53q0 -45 4 -70h377v-153h-361q29 -141 109 -204.5t229 -63.5q109 0 211 30v-96 l-102 -127q-84 -18 -172 -18q-213 0 -344 118q-135 123 -178 361h-138z" />
<glyph unicode="&#x2122;" horiz-adv-x="1435" d="M29 1251v127h518v-127h-187v-493l-75 -60h-70v553h-186zM596 698v680h215l156 -493l166 493h208v-620l-75 -60h-72v506h-2l-170 -506h-121l-162 506h-2v-506h-141z" />
<glyph unicode="&#x25fc;" horiz-adv-x="1085" d="M0 0v1085h1085v-1085h-1085z" />
</font>
</defs>
</svg>
