<?xml version="1.0" standalone="no"?>
<!DOCTYPE svg PUBLIC "-//W3C//DTD SVG 1.1//EN" "http://www.w3.org/Graphics/SVG/1.1/DTD/svg11.dtd" >
<svg xmlns="http://www.w3.org/2000/svg" xmlns:xlink="http://www.w3.org/1999/xlink" version="1.1">
<metadata></metadata>
<defs>
<font id="almarairegular" horiz-adv-x="546" >
<font-face units-per-em="1000" ascent="800" descent="-200" />
<missing-glyph horiz-adv-x="184" />
<glyph unicode="&#xfedf;&#xfb51;" horiz-adv-x="666" d="M171 723q53 81 118 81q32 0 54.5 -20t22.5 -48q0 -35 -30 -58t-75 -23q-40 0 -100 20q-33 11 -42 11q-26 0 -59 -30l-23 18q36 60 85 60q22 0 49 -11zM210 711q39 -13 65 -13q53 0 53 36q0 31 -38 31q-42 0 -80 -54zM597 716v-621q0 -34 -21 -60q-28 -35 -70 -35h-437 l-35 43v28h268l-172 522h85l173 -522h86q18 0 29 13q8 11 8 25v607h86z" />
<glyph unicode="&#xfee0;&#xfb51;" horiz-adv-x="644" d="M172 723q53 81 118 81q32 0 54.5 -20t22.5 -48q0 -35 -30 -58t-75 -23q-40 0 -100 20q-33 11 -42 11q-26 0 -59 -30l-23 18q36 60 85 60q22 0 49 -11zM211 711q39 -13 65 -13q53 0 53 36q0 31 -38 31q-42 0 -80 -54zM598 716v-621q0 -14 -4 -24h54v-71h-39l-29 35h-3 q-14 -17 -32 -26t-38 -9h-437l-35 43v28h268l-172 522h85l173 -522h86q17 0 28 12q9 10 9 26v607h86z" />
<glyph unicode="&#xfb58;&#xfbfd;" horiz-adv-x="1044" d="M974 460v-365q0 -39 -26 -66q-27 -29 -64 -29h-173q-2 -114 -74 -177q-71 -62 -191 -62h-111q-118 0 -189 59q-77 66 -77 189v131l43 34h42v-163q0 -99 52 -139t181 -40q123 0 173 31q63 38 66 137h-76l-35 43v28h337q37 0 37 38v351h85zM794 -104q21 0 35.5 -14.5 t14.5 -34.5q0 -21 -14.5 -35.5t-35.5 -14.5q-20 0 -34.5 14.5t-14.5 35.5q0 20 14.5 34.5t34.5 14.5zM916 -104q20 0 34.5 -14.5t14.5 -34.5q0 -21 -14.5 -35.5t-34.5 -14.5t-34.5 14.5t-14.5 35.5q0 20 14.5 34.5t34.5 14.5zM855 -205q20 0 33.5 -13.5t13.5 -33.5 q0 -19 -13.5 -33t-33.5 -14q-19 0 -33 14t-14 33q0 20 14 33.5t33 13.5z" />
<glyph unicode="&#xfb59;&#xfbfd;" horiz-adv-x="1021" d="M974 460v-365q0 -12 -2 -24h53v-71h-39l-29 35h-3q-28 -35 -70 -35h-173q-2 -105 -63 -167q-72 -72 -202 -72h-111q-125 0 -196 66q-70 65 -70 182v131l43 34h42v-163q0 -99 52 -139t181 -40q123 0 173 31q63 38 66 137h-76l-35 43v28h337q37 0 37 38v351h85zM804 -104 q20 0 34.5 -14.5t14.5 -34.5q0 -21 -14.5 -35.5t-34.5 -14.5q-21 0 -35.5 14.5t-14.5 35.5q0 20 14.5 34.5t35.5 14.5zM925 -104q21 0 35 -14.5t14 -34.5q0 -21 -14 -35.5t-35 -14.5q-20 0 -34.5 14.5t-14.5 35.5q0 20 14.5 34.5t34.5 14.5zM864 -205q19 0 32.5 -13.5 t13.5 -33.5q0 -19 -13.5 -33t-32.5 -14q-20 0 -33.5 14t-13.5 33q0 20 13.5 33.5t33.5 13.5z" />
<glyph unicode="&#xfb58;&#xfef2;" horiz-adv-x="1044" d="M974 460v-365q0 -39 -26 -66q-27 -29 -64 -29h-173q-2 -114 -74 -177q-71 -62 -191 -62h-111q-118 0 -189 59q-77 66 -77 189v131l43 34h42v-163q0 -99 52 -139t181 -40q123 0 173 31q63 38 66 137h-76l-35 43v28h337q37 0 37 38v351h85zM794 -104q21 0 35.5 -14.5 t14.5 -34.5q0 -21 -14.5 -35.5t-35.5 -14.5q-20 0 -34.5 14.5t-14.5 35.5q0 20 14.5 34.5t34.5 14.5zM916 -104q20 0 34.5 -14.5t14.5 -34.5q0 -21 -14.5 -35.5t-34.5 -14.5t-34.5 14.5t-14.5 35.5q0 20 14.5 34.5t34.5 14.5zM855 -205q20 0 33.5 -13.5t13.5 -33.5 q0 -19 -13.5 -33t-33.5 -14q-19 0 -33 14t-14 33q0 20 14 33.5t33 13.5zM329 -297q21 0 35 -14.5t14 -35.5q0 -20 -14 -34.5t-35 -14.5q-20 0 -34.5 14.5t-14.5 34.5q0 21 14.5 35.5t34.5 14.5zM451 -297q20 0 34.5 -14.5t14.5 -35.5q0 -20 -14.5 -34.5t-34.5 -14.5 q-21 0 -35.5 14.5t-14.5 34.5q0 21 14.5 35.5t35.5 14.5z" />
<glyph unicode="&#xfb59;&#xfef2;" horiz-adv-x="1021" d="M974 460v-365q0 -12 -2 -24h53v-71h-39l-29 35h-3q-28 -35 -70 -35h-173q-2 -105 -63 -167q-72 -72 -202 -72h-111q-125 0 -196 66q-70 65 -70 182v131l43 34h42v-163q0 -99 52 -139t181 -40q123 0 173 31q63 38 66 137h-76l-35 43v28h337q37 0 37 38v351h85zM804 -104 q20 0 34.5 -14.5t14.5 -34.5q0 -21 -14.5 -35.5t-34.5 -14.5q-21 0 -35.5 14.5t-14.5 35.5q0 20 14.5 34.5t35.5 14.5zM925 -104q21 0 35 -14.5t14 -34.5q0 -21 -14 -35.5t-35 -14.5q-20 0 -34.5 14.5t-14.5 35.5q0 20 14.5 34.5t34.5 14.5zM869 -205q19 0 33 -13.5 t14 -33.5q0 -19 -14 -33t-33 -14t-33 14t-14 33q0 20 14 33.5t33 13.5zM329 -297q21 0 35 -14.5t14 -35.5q0 -20 -14 -34.5t-35 -14.5q-20 0 -34.5 14.5t-14.5 34.5q0 21 14.5 35.5t34.5 14.5zM451 -297q20 0 34.5 -14.5t14.5 -35.5q0 -20 -14.5 -34.5t-34.5 -14.5 q-21 0 -35.5 14.5t-14.5 34.5q0 21 14.5 35.5t35.5 14.5z" />
<glyph unicode="&#xfb58;&#xfe8a;" horiz-adv-x="1067" d="M113 321q-21 27 -21 66t23 62.5t61 23.5q23 0 48 -8v-41q-18 5 -35 5q-52 0 -52 -53q0 -19 13 -35q16 -20 43 -20h64v-17l-20 -24h-168v41h44zM997 460v-365q0 -39 -26 -66q-27 -29 -64 -29h-173q-2 -114 -74 -177q-71 -62 -191 -62h-111q-118 0 -189 59q-77 66 -77 189 v131l43 34h42v-163q0 -99 52 -139t181 -40q123 0 173 31q63 38 66 137h-76l-35 43v28h337q37 0 37 38v351h85zM817 -104q21 0 35.5 -14.5t14.5 -34.5q0 -21 -14.5 -35.5t-35.5 -14.5q-20 0 -34.5 14.5t-14.5 35.5q0 20 14.5 34.5t34.5 14.5zM939 -104q20 0 34.5 -14.5 t14.5 -34.5q0 -21 -14.5 -35.5t-34.5 -14.5t-34.5 14.5t-14.5 35.5q0 20 14.5 34.5t34.5 14.5zM877 -205q20 0 33.5 -13.5t13.5 -33.5q0 -19 -13.5 -33t-33.5 -14q-19 0 -33 14t-14 33q0 20 14 33.5t33 13.5z" />
<glyph unicode="&#xfb59;&#xfe8a;" horiz-adv-x="1044" d="M113 321q-21 27 -21 66t23 62.5t61 23.5q23 0 48 -8v-41q-18 5 -35 5q-52 0 -52 -53q0 -19 13 -35q16 -20 43 -20h64v-17l-20 -24h-168v41h44zM997 460v-365q0 -13 -2 -24h53v-71h-39l-29 35h-3q-28 -35 -70 -35h-173q-2 -105 -63 -167q-72 -72 -202 -72h-111 q-125 0 -196 66q-70 65 -70 182v131l43 34h42v-163q0 -99 52 -139t181 -40q123 0 173 31q63 38 66 137h-76l-35 43v28h337q37 0 37 38v351h85zM827 -104q20 0 34.5 -14.5t14.5 -34.5q0 -21 -14.5 -35.5t-34.5 -14.5q-21 0 -35.5 14.5t-14.5 35.5q0 20 14.5 34.5t35.5 14.5z M948 -104q21 0 35 -14.5t14 -34.5q0 -21 -14 -35.5t-35 -14.5q-20 0 -34.5 14.5t-14.5 35.5q0 20 14.5 34.5t34.5 14.5zM887 -205q19 0 32.5 -13.5t13.5 -33.5q0 -19 -13.5 -33t-32.5 -14q-20 0 -33.5 14t-13.5 33q0 20 13.5 33.5t33.5 13.5z" />
<glyph unicode="&#xfb90;&#xfe8a;" horiz-adv-x="1060" d="M928 731v-78l-251 -149q109 -29 187 -96q140 -116 140 -313q0 -37 -23 -63q-26 -32 -66 -32h-181q-3 -115 -74 -177t-191 -62h-111q-118 0 -189 59q-77 66 -77 189v131l43 34h42v-163q0 -99 52 -139t181 -40q123 0 173 30q63 39 66 138h-76l-35 43v28h343q39 0 39 34 q0 71 -32 139t-85 111q-80 63 -200 79q-6 0 -6 7v99zM113 321q-21 27 -21 66t23 62.5t61 23.5q23 0 48 -8v-41q-18 5 -35 5q-52 0 -52 -53q0 -19 13 -35q16 -20 43 -20h64v-17l-20 -24h-168v41h44z" />
<glyph unicode="&#xfb91;&#xfe8a;" horiz-adv-x="1032" d="M928 731v-78l-251 -149q154 -41 245 -156q83 -105 83 -239q0 -24 -3 -38h33v-71h-20l-28 35h-3q-28 -35 -70 -35h-180q-3 -116 -76 -179q-71 -60 -189 -60h-111q-126 0 -198 68q-68 64 -68 180v131l43 34h42v-163q0 -99 52 -139t181 -40q123 0 173 30q63 39 66 138h-76 l-35 43v28h343q39 0 39 34q0 45 -17.5 99t-42.5 90q-80 116 -257 140q-6 0 -6 7v99zM113 321q-21 27 -21 66t23 62.5t61 23.5q23 0 48 -8v-41q-18 5 -35 5q-52 0 -52 -53q0 -19 13 -35q16 -20 43 -20h64v-17l-20 -24h-168v41h44z" />
<glyph unicode="&#xfb94;&#xfef0;" horiz-adv-x="1037" d="M574 664l331 191v-75l-331 -191v75zM905 731v-78l-251 -149q160 -43 247 -158q80 -103 80 -251q0 -37 -23 -63q-26 -32 -66 -32h-181q-3 -115 -74 -177t-191 -62h-111q-118 0 -189 59q-77 66 -77 189v131l43 34h42v-163q0 -99 52 -139t181 -40q123 0 173 30q63 39 66 138 h-76l-35 43v28h343q39 0 39 33q0 64 -27 129t-71 105q-82 78 -219 96q-6 0 -6 7v99z" />
<glyph unicode="&#xfb95;&#xfef0;" horiz-adv-x="1009" d="M574 664l331 191v-75l-331 -191v75zM905 731v-78l-251 -149q154 -41 245 -156q83 -105 83 -239q0 -24 -3 -38h33v-71h-20l-28 35h-3q-28 -35 -70 -35h-180q-3 -116 -76 -179q-71 -60 -189 -60h-111q-126 0 -198 68q-68 64 -68 180v131l43 34h42v-163q0 -99 52 -139 t181 -40q123 0 173 30q63 39 66 138h-76l-35 43v28h343q38 0 38 34q0 45 -16.5 99t-42.5 90q-80 116 -257 140q-6 0 -6 7v99z" />
<glyph unicode="&#xfb94;&#xfef2;" horiz-adv-x="1037" d="M574 664l331 191v-75l-331 -191v75zM905 731v-78l-251 -149q160 -43 247 -158q80 -103 80 -251q0 -37 -23 -63q-26 -32 -66 -32h-181q-3 -115 -74 -177t-191 -62h-111q-118 0 -189 59q-77 66 -77 189v131l43 34h42v-163q0 -99 52 -139t181 -40q123 0 173 30q63 39 66 138 h-76l-35 43v28h343q39 0 39 33q0 64 -27 129t-71 105q-82 78 -219 96q-6 0 -6 7v99zM329 -297q21 0 35 -14.5t14 -35.5q0 -20 -14 -34.5t-35 -14.5q-20 0 -34.5 14.5t-14.5 34.5q0 21 14.5 35.5t34.5 14.5zM451 -297q20 0 34.5 -14.5t14.5 -35.5q0 -20 -14.5 -34.5 t-34.5 -14.5q-21 0 -35.5 14.5t-14.5 34.5q0 21 14.5 35.5t35.5 14.5z" />
<glyph unicode="&#xfb95;&#xfef2;" horiz-adv-x="1009" d="M574 664l331 191v-75l-331 -191v75zM905 731v-78l-251 -149q154 -41 245 -156q83 -105 83 -239q0 -24 -3 -38h33v-71h-20l-28 35h-3q-28 -35 -70 -35h-180q-3 -116 -76 -179q-71 -60 -189 -60h-111q-126 0 -198 68q-68 64 -68 180v131l43 34h42v-163q0 -99 52 -139 t181 -40q123 0 173 30q63 39 66 138h-76l-35 43v28h343q38 0 38 34q0 45 -16.5 99t-42.5 90q-80 116 -257 140q-6 0 -6 7v99zM329 -297q21 0 35 -14.5t14 -35.5q0 -20 -14 -34.5t-35 -14.5q-20 0 -34.5 14.5t-14.5 34.5q0 21 14.5 35.5t34.5 14.5zM451 -297q20 0 34.5 -14.5 t14.5 -35.5q0 -20 -14.5 -34.5t-34.5 -14.5q-21 0 -35.5 14.5t-14.5 34.5q0 21 14.5 35.5t35.5 14.5z" />
<glyph unicode="&#xfb94;&#xfe8a;" horiz-adv-x="1060" d="M597 664l331 191v-75l-331 -191v75zM928 731v-78l-251 -149q160 -43 247 -158q80 -103 80 -251q0 -37 -23 -63q-26 -32 -66 -32h-181q-3 -115 -74 -177t-191 -62h-111q-118 0 -189 59q-77 66 -77 189v131l43 34h42v-163q0 -99 52 -139t181 -40q123 0 173 30q63 39 66 138 h-76l-35 43v28h343q39 0 39 33q0 64 -27 129t-71 105q-82 78 -219 96q-6 0 -6 7v99zM113 321q-21 27 -21 66t23 62.5t61 23.5q23 0 48 -8v-41q-18 5 -35 5q-52 0 -52 -53q0 -19 13 -35q16 -20 43 -20h64v-17l-20 -24h-168v41h44z" />
<glyph unicode="&#xfb95;&#xfe8a;" horiz-adv-x="1032" d="M597 664l331 191v-75l-331 -191v75zM928 731v-78l-251 -149q154 -41 245 -156q83 -105 83 -239q0 -24 -3 -38h33v-71h-20l-28 35h-3q-28 -35 -70 -35h-180q-3 -116 -76 -179q-71 -60 -189 -60h-111q-126 0 -198 68q-68 64 -68 180v131l43 34h42v-163q0 -99 52 -139 t181 -40q123 0 173 30q63 39 66 138h-76l-35 43v28h343q39 0 39 34q0 45 -17 99t-43 90q-80 116 -257 140q-6 0 -6 7v99zM113 321q-21 27 -21 66t23 62.5t61 23.5q23 0 48 -8v-41q-18 5 -35 5q-52 0 -52 -53q0 -19 13 -35q16 -20 43 -20h64v-17l-20 -24h-168v41h44z" />
<glyph unicode="&#xfbfe;&#xfe8a;" horiz-adv-x="1067" d="M113 321q-21 27 -21 66t23 62.5t61 23.5q23 0 48 -8v-41q-18 5 -35 5q-52 0 -52 -53q0 -19 13 -35q16 -20 43 -20h64v-17l-20 -24h-168v41h44zM997 460v-365q0 -39 -26 -66q-27 -29 -64 -29h-173q-2 -114 -74 -177q-71 -62 -191 -62h-111q-118 0 -189 59q-77 66 -77 189 v131l43 34h42v-163q0 -99 52 -139t181 -40q123 0 173 31q63 38 66 137h-76l-35 43v28h337q37 0 37 38v351h85zM817 -104q21 0 35.5 -14.5t14.5 -34.5q0 -21 -14.5 -35.5t-35.5 -14.5q-20 0 -34.5 14.5t-14.5 35.5q0 20 14.5 34.5t34.5 14.5zM939 -104q20 0 34.5 -14.5 t14.5 -34.5q0 -21 -14.5 -35.5t-34.5 -14.5t-34.5 14.5t-14.5 35.5q0 20 14.5 34.5t34.5 14.5z" />
<glyph unicode="&#xfbff;&#xfe8a;" horiz-adv-x="1044" d="M113 321q-21 27 -21 66t23 62.5t61 23.5q23 0 48 -8v-41q-18 5 -35 5q-52 0 -52 -53q0 -19 13 -35q16 -20 43 -20h64v-17l-20 -24h-168v41h44zM997 460v-365q0 -13 -2 -24h53v-71h-39l-29 35h-3q-28 -35 -70 -35h-173q-2 -105 -63 -167q-72 -72 -202 -72h-111 q-125 0 -196 66q-70 65 -70 182v131l43 34h42v-163q0 -99 52 -139t181 -40q123 0 173 31q63 38 66 137h-76l-35 43v28h337q37 0 37 38v351h85zM827 -104q20 0 34.5 -14.5t14.5 -34.5q0 -21 -14.5 -35.5t-34.5 -14.5q-21 0 -35.5 14.5t-14.5 35.5q0 20 14.5 34.5t35.5 14.5z M948 -104q21 0 35 -14.5t14 -34.5q0 -21 -14 -35.5t-35 -14.5q-20 0 -34.5 14.5t-14.5 35.5q0 20 14.5 34.5t34.5 14.5z" />
<glyph unicode="&#xfb90;&#xfef0;" horiz-adv-x="1023" arabic-form="isolated" d="M905 731v-78l-251 -149q135 -38 223 -149q91 -113 91 -260q0 -40 -28 -68q-26 -27 -62 -27h-167q-3 -115 -74 -177t-191 -62h-111q-118 0 -189 59q-77 66 -77 189v131l43 34h42v-163q0 -99 52 -139t181 -40q123 0 173 30q63 39 66 138h-76l-35 43v28h328q38 0 38 34 q0 131 -101 229q-86 83 -200 100q-6 0 -6 7v99z" />
<glyph unicode="&#xfb90;&#xfef2;" horiz-adv-x="1023" arabic-form="isolated" d="M905 731v-78l-251 -149q135 -38 223 -149q91 -113 91 -260q0 -40 -28 -68q-26 -27 -62 -27h-167q-3 -115 -74 -177t-191 -62h-111q-118 0 -189 59q-77 66 -77 189v131l43 34h42v-163q0 -99 52 -139t181 -40q123 0 173 30q63 39 66 138h-76l-35 43v28h328q38 0 38 34 q0 131 -101 229q-86 83 -200 100q-6 0 -6 7v99zM329 -297q21 0 35 -14.5t14 -35.5q0 -20 -14 -34.5t-35 -14.5q-20 0 -34.5 14.5t-14.5 34.5q0 21 14.5 35.5t34.5 14.5zM451 -297q20 0 34.5 -14.5t14.5 -35.5q0 -20 -14.5 -34.5t-34.5 -14.5q-21 0 -35.5 14.5t-14.5 34.5 q0 21 14.5 35.5t35.5 14.5z" />
<glyph unicode="&#xfbfe;&#xfbfd;" horiz-adv-x="1044" arabic-form="isolated" d="M974 460v-365q0 -39 -26 -66q-27 -29 -64 -29h-173q-2 -114 -74 -177q-71 -62 -191 -62h-111q-118 0 -189 59q-77 66 -77 189v131l43 34h42v-163q0 -99 52 -139t181 -40q123 0 173 31q63 38 66 137h-76l-35 43v28h337q37 0 37 38v351h85zM794 -104q21 0 35.5 -14.5 t14.5 -34.5q0 -21 -14.5 -35.5t-35.5 -14.5q-20 0 -34.5 14.5t-14.5 35.5q0 20 14.5 34.5t34.5 14.5zM916 -104q20 0 34.5 -14.5t14.5 -34.5q0 -21 -14.5 -35.5t-34.5 -14.5t-34.5 14.5t-14.5 35.5q0 20 14.5 34.5t34.5 14.5z" />
<glyph unicode="&#xfef3;&#xfef2;" horiz-adv-x="1021" arabic-form="isolated" d="M974 460v-365q0 -39 -26 -66q-27 -29 -64 -29h-173q-2 -114 -74 -177q-71 -62 -191 -62h-111q-118 0 -189 59q-77 66 -77 189v131l43 34h42v-163q0 -99 52 -139t181 -40q123 0 173 31q63 38 66 137h-76l-35 43v28h337q37 0 37 38v351h85zM794 -104q21 0 35.5 -14.5 t14.5 -34.5q0 -21 -14.5 -35.5t-35.5 -14.5q-20 0 -34.5 14.5t-14.5 35.5q0 20 14.5 34.5t34.5 14.5zM916 -104q20 0 34.5 -14.5t14.5 -34.5q0 -21 -14.5 -35.5t-34.5 -14.5t-34.5 14.5t-14.5 35.5q0 20 14.5 34.5t34.5 14.5zM329 -297q21 0 35 -14.5t14 -35.5 q0 -20 -14 -34.5t-35 -14.5q-20 0 -34.5 14.5t-14.5 34.5q0 21 14.5 35.5t34.5 14.5zM451 -297q20 0 34.5 -14.5t14.5 -35.5q0 -20 -14.5 -34.5t-34.5 -14.5q-21 0 -35.5 14.5t-14.5 34.5q0 21 14.5 35.5t35.5 14.5z" />
<glyph unicode="&#xfb91;&#xfef0;" horiz-adv-x="995" arabic-form="final" d="M905 731v-78l-251 -149q132 -37 222 -146q92 -114 92 -258q0 -15 -3 -29h34v-71h-20l-28 35h-3q-28 -35 -70 -35h-167q-3 -116 -76 -179q-71 -60 -189 -60h-111q-126 0 -198 68q-68 64 -68 180v130l43 35h42v-163q0 -99 52 -139t181 -40q123 0 173 30q63 39 66 138h-76 l-35 43v28h329q38 0 38 34q0 130 -102 229q-86 84 -200 100q-6 0 -6 7v99z" />
<glyph unicode="&#xfb91;&#xfef2;" horiz-adv-x="995" arabic-form="final" d="M905 731v-78l-251 -149q132 -37 222 -146q92 -115 92 -258q0 -15 -3 -29h34v-71h-20l-28 35h-3q-28 -35 -70 -35h-167q-3 -116 -76 -179q-71 -60 -189 -60h-111q-126 0 -198 68q-68 64 -68 180v131l43 34h42v-163q0 -99 52 -139t181 -40q123 0 173 30q63 39 66 138h-76 l-35 43v28h329q38 0 38 34q0 131 -102 230q-86 83 -200 99q-6 0 -6 7v99zM329 -297q21 0 35 -14.5t14 -35.5q0 -20 -14 -34.5t-35 -14.5q-20 0 -34.5 14.5t-14.5 34.5q0 21 14.5 35.5t34.5 14.5zM451 -297q20 0 34.5 -14.5t14.5 -35.5q0 -20 -14.5 -34.5t-34.5 -14.5 q-21 0 -35.5 14.5t-14.5 34.5q0 21 14.5 35.5t35.5 14.5z" />
<glyph unicode="&#xfbff;&#xfbfd;" horiz-adv-x="1021" arabic-form="final" d="M974 460v-365q0 -12 -2 -24h53v-71h-39l-29 35h-3q-28 -35 -70 -35h-173q-2 -105 -63 -167q-72 -72 -202 -72h-111q-125 0 -196 66q-70 65 -70 182v131l43 34h42v-163q0 -99 52 -139t181 -40q123 0 173 31q63 38 66 137h-76l-35 43v28h337q37 0 37 38v351h85zM804 -104 q20 0 34.5 -14.5t14.5 -34.5q0 -21 -14.5 -35.5t-34.5 -14.5q-21 0 -35.5 14.5t-14.5 35.5q0 20 14.5 34.5t35.5 14.5zM925 -104q21 0 35 -14.5t14 -34.5q0 -21 -14 -35.5t-35 -14.5q-20 0 -34.5 14.5t-14.5 35.5q0 20 14.5 34.5t34.5 14.5z" />
<glyph unicode="&#xfef4;&#xfef2;" horiz-adv-x="1021" arabic-form="final" d="M974 460v-365q0 -12 -2 -24h53v-71h-39l-29 35h-3q-28 -35 -70 -35h-173q-2 -105 -63 -167q-72 -72 -202 -72h-111q-125 0 -196 66q-70 65 -70 182v131l43 34h42v-163q0 -99 52 -139t181 -40q123 0 173 31q63 38 66 137h-76l-35 43v28h337q37 0 37 38v351h85zM804 -104 q20 0 34.5 -14.5t14.5 -34.5q0 -21 -14.5 -35.5t-34.5 -14.5q-21 0 -35.5 14.5t-14.5 35.5q0 20 14.5 34.5t35.5 14.5zM925 -104q21 0 35 -14.5t14 -34.5q0 -21 -14 -35.5t-35 -14.5q-20 0 -34.5 14.5t-14.5 35.5q0 20 14.5 34.5t34.5 14.5zM329 -297q21 0 35 -14.5 t14 -35.5q0 -20 -14 -34.5t-35 -14.5q-20 0 -34.5 14.5t-14.5 34.5q0 21 14.5 35.5t34.5 14.5zM451 -297q20 0 34.5 -14.5t14.5 -35.5q0 -20 -14.5 -34.5t-34.5 -14.5q-21 0 -35.5 14.5t-14.5 34.5q0 21 14.5 35.5t35.5 14.5z" />
<glyph unicode="&#x627;&#xfedf;&#xfee0;&#x650;&#xfeea;" horiz-adv-x="1340" arabic-form="isolated" d="M740 1090v-191l-22 -18h-22v209h44zM840 842v-110q0 -19 -12 -32q-13 -15 -35 -15h-47l-13 14h-1q-3 -4 -8 -8q-10 -6 -20 -6h-61q-21 0 -34 14q-13 13 -13 33v68l22 18h21v-83q0 -6 3 -9q5 -6 11 -6h29q6 0 11 5q3 4 3 10v83h44v-98h43q7 0 10 5q4 4 4 10v107h43z M1271 762v-752l-44 -35h-41v787h85zM1049 613v-518q0 -41 -27 -68t-63 -27h-181l-33 35h-3q-11 -14 -29 -25q-20 -10 -41 -10h-188q-46 0 -73 35q-66 -46 -135 -46q-85 0 -146 54q-75 66 -75 188q0 109 72 181q64 65 157 65q53 0 107 -24l43 35h42v-379q0 -18 10 -28 q9 -10 20 -10h134q16 0 26 11q11 10 11 27v504h86v-518q0 -12 -3 -24h166q18 0 29 12q9 10 9 26v504h85zM391 383q-44 22 -89 22q-76 0 -123 -60q-39 -49 -39 -116q0 -78 41 -124q38 -44 97 -44q54 0 113 29v293z" />
<glyph unicode="&#x631;&#xfef3;&#xfe8e;&#x644;" horiz-adv-x="1656" arabic-form="isolated" d="M711 716v-707q0 -120 -73 -185q-71 -63 -192 -63h-111q-119 0 -190 61q-76 65 -76 187v209l43 35h42v-242q0 -100 52.5 -139.5t184.5 -39.5q124 0 175 34q60 41 60 145v705h85zM957 716v-607q0 -16 11 -27t27 -11h148q17 0 28 12q10 10 10 26v351h85v-365q0 -37 -24 -64 q-27 -31 -66 -31h-213q-32 0 -57 21q-34 29 -34 74v621h85zM1587 460v-451q0 -111 -63 -175q-49 -50 -132 -66q-31 -6 -70 -6q-25 0 -46 1l-33 41v32q29 -4 63 -4q196 0 196 180v448h85zM1010 -104q20 0 34.5 -14.5t14.5 -34.5q0 -21 -14.5 -35.5t-34.5 -14.5 q-21 0 -35 14.5t-14 35.5q0 20 14.5 34.5t34.5 14.5zM1131 -104q21 0 35.5 -14.5t14.5 -34.5q0 -21 -14.5 -35.5t-35.5 -14.5q-20 0 -34.5 14.5t-14.5 35.5q0 20 14.5 34.5t34.5 14.5z" />
<glyph unicode="&#xfedf;&#xfe82;" horiz-adv-x="666" arabic-form="isolated" d="M37 681q36 61 84 61q27 0 68 -20q13 -7 22 -10q21 -8 36 -8q28 0 52 27l23 -18q-42 -57 -86 -57q-20 0 -45 9q-8 4 -31 15q-27 14 -43 14q-24 0 -57 -30zM597 716v-621q0 -34 -21 -60q-28 -35 -70 -35h-437l-35 43v28h268l-172 522h85l173 -522h86q18 0 29 13q8 11 8 25 v607h86z" />
<glyph unicode="&#xfee0;&#xfe82;" horiz-adv-x="644" arabic-form="final" d="M38 681q36 61 84 61q27 0 68 -20q13 -7 22 -10q21 -8 36 -8q28 0 52 27l23 -18q-42 -57 -86 -57q-20 0 -45 9q-8 4 -31 15q-27 14 -43 14q-24 0 -57 -30zM598 716v-621q0 -14 -4 -24h54v-71h-39l-29 35h-3q-14 -17 -32 -26t-38 -9h-437l-35 43v28h268l-172 522h85 l173 -522h86q17 0 28 12q9 10 9 26v607h86z" />
<glyph unicode="&#xfedf;&#xfe84;" horiz-adv-x="666" arabic-form="isolated" d="M106 697q-21 27 -21 66t23 62.5t61 23.5q24 0 48 -8v-41q-18 5 -35 5q-52 0 -52 -53q0 -19 13 -35q16 -20 43 -20h64v-17l-19 -24h-169v41h44zM597 716v-621q0 -34 -21 -60q-28 -35 -70 -35h-437l-35 43v28h268l-172 522h85l173 -522h86q18 0 29 13q8 11 8 25v607h86z " />
<glyph unicode="&#xfee0;&#xfe84;" horiz-adv-x="644" arabic-form="final" d="M107 697q-21 27 -21 66t23 62.5t61 23.5q24 0 48 -8v-41q-18 5 -35 5q-52 0 -52 -53q0 -19 13 -35q16 -20 43 -20h64v-17l-19 -24h-169v41h44zM598 716v-621q0 -14 -4 -24h54v-71h-39l-29 35h-3q-14 -17 -32 -26t-38 -9h-437l-35 43v28h268l-172 522h85l173 -522h86 q17 0 28 12q9 10 9 26v607h86z" />
<glyph unicode="&#xfedf;&#xfe88;" horiz-adv-x="666" arabic-form="isolated" d="M598 716v-621q0 -35 -21 -60q-28 -35 -70 -35h-437l-35 43v28h268l-172 522h85l173 -522h86q18 0 29 13q8 11 8 25v607h86zM347 -260q-21 27 -21 66t23 62.5t61 23.5q23 0 48 -8v-41q-18 5 -35 5q-52 0 -52 -53q0 -19 12 -35q16 -20 44 -20h64v-17l-20 -24h-168v41h44z " />
<glyph unicode="&#xfee0;&#xfe88;" horiz-adv-x="644" arabic-form="final" d="M598 716v-621q0 -14 -4 -24h54v-71h-39l-29 35h-3q-14 -17 -32 -26q-19 -9 -38 -9h-437l-35 43v28h268l-172 522h85l173 -522h86q17 0 28 12q9 10 9 26v607h86zM347 -260q-21 27 -21 66t23 62.5t61 23.5q23 0 48 -8v-41q-18 5 -35 5q-52 0 -52 -53q0 -19 12 -35 q16 -20 44 -20h64v-17l-20 -24h-168v41h44z" />
<glyph unicode="&#xfedf;&#xfe8e;" horiz-adv-x="666" arabic-form="isolated" d="M597 716v-621q0 -34 -21 -60q-28 -35 -70 -35h-437l-35 43v28h268l-172 522h85l173 -522h86q18 0 29 13q8 11 8 25v607h86z" />
<glyph unicode="&#xfee0;&#xfe8e;" horiz-adv-x="644" arabic-form="final" d="M598 716v-621q0 -14 -4 -24h54v-71h-39l-29 35h-3q-14 -17 -32 -26t-38 -9h-437l-35 43v28h268l-172 522h85l173 -522h86q17 0 28 12q9 10 9 26v607h86z" />
<glyph unicode="&#x671;" horiz-adv-x="202" arabic-form="final" d="M64 861q54 81 119 81q32 0 54.5 -20t22.5 -48q0 -35 -30.5 -58t-75.5 -23q-39 0 -99 20q-33 11 -43 11q-25 0 -58 -29l-23 17q36 60 84 60q23 0 49 -11zM104 849q39 -13 64 -13q54 0 54 36q0 31 -38 31q-42 0 -80 -54zM154 716v-607q0 -16 10 -27q11 -11 28 -11h13v-71 h-46q-32 0 -57 21q-33 29 -33 74v621h85z" />
<glyph unicode="&#x67e;" horiz-adv-x="935" arabic-form="final" d="M888 460v-365q0 -13 -3 -24h54v-71h-36l-33 35h-2q-28 -35 -70 -35h-572q-56 0 -99 37q-58 48 -58 128v188l43 35h42v-223q0 -39 27 -66q29 -28 69 -28h515q17 0 29 12q9 10 9 26v351h85zM418 -104q20 0 34.5 -14.5t14.5 -34.5q0 -21 -14.5 -35.5t-34.5 -14.5t-34.5 14.5 t-14.5 35.5q0 20 14.5 34.5t34.5 14.5zM539 -104q21 0 35.5 -14.5t14.5 -34.5q0 -21 -14.5 -35.5t-35.5 -14.5q-20 0 -34.5 14.5t-14.5 35.5q0 20 14.5 34.5t34.5 14.5zM479 -205q19 0 33 -13.5t14 -33.5q0 -19 -14 -33t-33 -14q-20 0 -33.5 14t-13.5 33q0 20 13.5 33.5 t33.5 13.5z" />
<glyph unicode="&#x67e;" horiz-adv-x="330" arabic-form="initial" d="M261 460v-365q0 -37 -24 -64q-27 -31 -67 -31h-174v71h142q17 0 28 12q10 10 10 26v351h85zM81 -104q20 0 34.5 -14.5t14.5 -34.5q0 -21 -14.5 -35.5t-34.5 -14.5q-21 0 -35.5 14.5t-14.5 35.5q0 20 14.5 34.5t35.5 14.5zM202 -104q21 0 35 -14.5t14 -34.5 q0 -21 -14 -35.5t-35 -14.5q-20 0 -34.5 14.5t-14.5 35.5q0 20 14.5 34.5t34.5 14.5zM141 -205q20 0 33.5 -13.5t13.5 -33.5q0 -19 -13.5 -33t-33.5 -14q-19 0 -32.5 14t-13.5 33q0 20 13.5 33.5t32.5 13.5z" />
<glyph unicode="&#x67e;" horiz-adv-x="308" arabic-form="medial" d="M261 460v-365q0 -12 -3 -24h53v-71h-39l-29 35h-3q-27 -35 -70 -35h-174v71h142q16 0 26 10q12 11 12 28v351h85zM90 -104q20 0 34.5 -14.5t14.5 -34.5q0 -21 -14.5 -35.5t-34.5 -14.5t-34.5 14.5t-14.5 35.5q0 20 14.5 34.5t34.5 14.5zM211 -104q21 0 35.5 -14.5 t14.5 -34.5q0 -21 -14.5 -35.5t-35.5 -14.5q-20 0 -34.5 14.5t-14.5 35.5q0 20 14.5 34.5t34.5 14.5zM151 -205q19 0 33 -13.5t14 -33.5q0 -19 -14 -33t-33 -14q-20 0 -33.5 14t-13.5 33q0 20 13.5 33.5t33.5 13.5z" />
<glyph unicode="&#x679;" horiz-adv-x="935" arabic-form="final" d="M433 594l-2 -96q55 67 119 67q38 0 60 -24t22 -64v-33q0 -21 -12 -36q-16 -20 -44 -20h-214v41h26v165h45zM587 476q0 26 -14 38q-11 9 -28 9q-29 0 -61 -26q-33 -27 -52 -68h136q19 0 19 19v28zM888 460v-365q0 -13 -3 -24h54v-71h-36l-33 35h-2q-28 -35 -70 -35h-572 q-56 0 -99 37q-58 48 -58 128v188l43 35h42v-223q0 -39 27 -66q29 -28 69 -28h515q17 0 29 12q9 10 9 26v351h85z" />
<glyph unicode="&#x679;" horiz-adv-x="330" arabic-form="initial" d="M69 785v-96q54 67 119 67q37 0 59.5 -24t22.5 -64v-33q0 -21 -13 -36q-16 -20 -43 -20h-214v41h26v165h43zM225 667q0 26 -14 38q-11 9 -29 9q-28 0 -61 -26q-33 -27 -52 -68h137q19 0 19 19v28zM261 460v-365q0 -37 -24 -64q-27 -31 -67 -31h-174v71h142q17 0 28 12 q10 10 10 26v351h85z" />
<glyph unicode="&#x679;" horiz-adv-x="308" arabic-form="medial" d="M69 785v-96q54 67 119 67q37 0 59.5 -24t22.5 -64v-33q0 -21 -13 -36q-16 -20 -43 -20h-214v41h26v165h43zM225 667q0 26 -14 38q-11 9 -29 9q-28 0 -61 -26q-33 -27 -52 -68h137q19 0 19 19v28zM261 460v-365q0 -12 -3 -24h53v-71h-39l-29 35h-3q-27 -35 -70 -35h-174 v71h142q16 0 26 10q12 11 12 28v351h85z" />
<glyph unicode="&#x6a4;" horiz-adv-x="961" arabic-form="final" d="M725 776q19 0 33 -14t14 -33t-14 -33t-33 -14t-33 14t-14 33t14 33t33 14zM664 680q21 0 35 -14.5t14 -34.5q0 -21 -14 -35.5t-35 -14.5q-20 0 -34.5 14.5t-14.5 35.5q0 20 14.5 34.5t34.5 14.5zM786 680q20 0 34.5 -14.5t14.5 -34.5q0 -21 -14.5 -35.5t-34.5 -14.5 q-21 0 -35.5 14.5t-14.5 35.5q0 20 14.5 34.5t35.5 14.5zM572 71q-63 68 -63 170q0 97 53 159q61 72 162 72q90 0 150 -59q66 -65 66 -172q0 -100 -63 -170h87v-71h-143h-12q-59 0 -83 8h-3q-24 -8 -84 -8h-12h-401q-60 0 -104 41q-53 49 -53 124v188l43 35h42v-223 q0 -38 26 -65q28 -29 70 -29h322zM855 240q0 74 -35.5 117t-95.5 43q-63 0 -97 -45q-32 -42 -32 -117q0 -70 37 -117t92 -50q65 3 102 64q29 47 29 105z" />
<glyph unicode="&#x6a4;" horiz-adv-x="630" arabic-form="initial" d="M386 776q19 0 33 -14t14 -33t-14 -33t-33 -14t-33 14t-14 33t14 33t33 14zM325 680q21 0 35 -14.5t14 -34.5q0 -21 -14 -35.5t-35 -14.5q-20 0 -34.5 14.5t-14.5 35.5q0 20 14.5 34.5t34.5 14.5zM447 680q20 0 34.5 -14.5t14.5 -34.5q0 -21 -14.5 -35.5t-34.5 -14.5 q-21 0 -35.5 14.5t-14.5 35.5q0 20 14.5 34.5t35.5 14.5zM220 71q-38 35 -56 87q-14 42 -14 83q0 107 64 170q63 61 171 61q82 0 131 -42q57 -48 59 -140v-195q0 -39 -27 -67q-26 -28 -63 -28h-489v71h224zM489 290q0 56 -33 86q-26 24 -71 24q-83 0 -122 -58 q-28 -40 -28 -104q1 -68 44 -116q45 -51 119 -51h54q37 0 37 38v181z" />
<glyph unicode="&#x6a4;" horiz-adv-x="602" arabic-form="medial" d="M370 776q20 0 33.5 -14t13.5 -33t-13.5 -33t-33.5 -14q-19 0 -33 14t-14 33t14 33t33 14zM309 680q21 0 35.5 -14.5t14.5 -34.5q0 -21 -14.5 -35.5t-35.5 -14.5q-20 0 -34.5 14.5t-14.5 35.5q0 20 14.5 34.5t34.5 14.5zM431 680q20 0 34.5 -14.5t14.5 -34.5 q0 -21 -14.5 -35.5t-34.5 -14.5t-34.5 14.5t-14.5 35.5q0 20 14.5 34.5t34.5 14.5zM213 71q-63 69 -63 170q0 97 53 159q61 72 162 72q81 0 138 -48q78 -65 78 -183q0 -100 -63 -170h87v-71h-144h-11q-59 0 -83 8h-4q-24 -8 -83 -8h-12h-272v71h217zM365 400 q-61 0 -95.5 -43t-34.5 -119q0 -69 37.5 -117t92.5 -50q55 2 92.5 50t37.5 117q0 76 -34.5 119t-95.5 43z" />
<glyph unicode="&#x686;" horiz-adv-x="625" arabic-form="final" d="M180 443q72 29 172 29q124 0 189 -77q56 -66 56 -173v-127q0 -12 -3 -24h35v-71h-21l-29 35h-2q-16 -19 -36 -28q-17 -7 -34 -7h-208q-84 0 -126 -48q-32 -35 -32 -103q0 -73 42.5 -115t117.5 -42q15 0 33 2v-28l-36 -44h-4q-101 0 -161 50q-77 64 -77 179q0 220 256 220 h162q38 0 38 38v116q0 78 -41 123q-45 50 -131 50q-71 0 -160 -22v67zM329 -105q21 0 35.5 -14.5t14.5 -35.5q0 -20 -14.5 -34.5t-35.5 -14.5q-20 0 -34.5 14.5t-14.5 34.5q0 21 14.5 35.5t34.5 14.5zM451 -105q20 0 34.5 -14.5t14.5 -35.5q0 -20 -14.5 -34.5t-34.5 -14.5 t-34.5 14.5t-14.5 34.5q0 21 14.5 35.5t34.5 14.5zM390 -206q20 0 33.5 -14t13.5 -33q0 -20 -13.5 -33.5t-33.5 -13.5q-19 0 -33 13.5t-14 33.5q0 19 14 33t33 14z" />
<glyph unicode="&#x686;" horiz-adv-x="602" arabic-form="initial" d="M129 443q92 29 172 29q124 0 189 -77q56 -66 56 -173v-127q0 -34 -21 -60q-26 -35 -69 -35h-460v71h427q38 0 38 38v116q0 78 -41 123q-45 50 -131 50q-52 0 -160 -22v67zM187 -104q21 0 35.5 -14.5t14.5 -34.5q0 -21 -14.5 -35.5t-35.5 -14.5q-20 0 -34.5 14.5 t-14.5 35.5q0 20 14.5 34.5t34.5 14.5zM309 -104q20 0 34.5 -14.5t14.5 -34.5q0 -21 -14.5 -35.5t-34.5 -14.5t-34.5 14.5t-14.5 35.5q0 20 14.5 34.5t34.5 14.5zM248 -205q20 0 33.5 -13.5t13.5 -33.5q0 -19 -13.5 -33t-33.5 -14q-19 0 -33 14t-14 33q0 20 14 33.5t33 13.5 z" />
<glyph unicode="&#x686;" horiz-adv-x="575" arabic-form="medial" d="M129 443q92 29 172 29q124 0 189 -77q56 -66 56 -173v-127q0 -12 -3 -24h35v-71h-21l-28 35h-3q-28 -35 -70 -35h-460v71h427q38 0 38 38v116q0 78 -41 123q-45 50 -131 50q-52 0 -160 -22v67zM187 -104q21 0 35.5 -14.5t14.5 -34.5q0 -21 -14.5 -35.5t-35.5 -14.5 q-20 0 -34.5 14.5t-14.5 35.5q0 20 14.5 34.5t34.5 14.5zM309 -104q20 0 34.5 -14.5t14.5 -34.5q0 -21 -14.5 -35.5t-34.5 -14.5t-34.5 14.5t-14.5 35.5q0 20 14.5 34.5t34.5 14.5zM248 -205q20 0 33.5 -13.5t13.5 -33.5q0 -19 -13.5 -33t-33.5 -14q-19 0 -33 14t-14 33 q0 20 14 33.5t33 13.5z" />
<glyph unicode="&#x688;" horiz-adv-x="479" arabic-form="final" d="M183 785v-96q54 67 119 67q37 0 59.5 -24t22.5 -64v-33q0 -21 -13 -36q-16 -20 -43 -20h-214v41h26v165h43zM339 667q0 26 -15 38q-10 9 -28 9q-28 0 -61 -26q-33 -27 -52 -68h137q19 0 19 19v28zM140 466q36 6 77 6q111 0 179 -67q61 -62 61 -157v-153q0 -13 -2 -24h28 v-71h-15l-28 35h-3q-8 -10 -18 -18q-24 -17 -52 -17h-328v71h296q37 0 37 38v127q0 71 -43 118q-46 48 -142 49q-28 0 -47 -4v67z" />
<glyph unicode="&#x698;" horiz-adv-x="380" arabic-form="final" d="M235 776q19 0 33 -13.5t14 -33.5q0 -19 -14 -33t-33 -14q-20 0 -33.5 14t-13.5 33q0 20 13.5 33.5t33.5 13.5zM174 680q20 0 34.5 -14.5t14.5 -34.5q0 -21 -14.5 -35.5t-34.5 -14.5t-34.5 14.5t-14.5 35.5q0 20 14.5 34.5t34.5 14.5zM296 680q20 0 34.5 -14.5t14.5 -34.5 q0 -21 -14.5 -35.5t-34.5 -14.5q-21 0 -35.5 14.5t-14.5 35.5q0 20 14.5 34.5t35.5 14.5zM333 460v-389h51v-71h-51q-3 -109 -68 -171q-43 -40 -111 -57q-41 -10 -86 -10q-25 0 -46 1l-33 41v32q29 -4 63 -4q196 0 196 180v448h85z" />
<glyph unicode="&#x691;" horiz-adv-x="380" arabic-form="final" d="M138 788l-1 -97q54 67 119 67q37 0 59.5 -23.5t22.5 -63.5v-33q0 -21 -12 -37q-17 -20 -44 -20h-214v41h26v166h44zM293 669q0 47 -45 47q-29 0 -60.5 -26.5t-50.5 -67.5h137q19 0 19 19v28zM333 460v-389h51v-71h-51q-3 -111 -70 -172q-50 -46 -129 -60q-32 -6 -66 -6 q-25 0 -46 1l-33 41v32q29 -4 63 -4q196 0 196 180v448h85z" />
<glyph unicode="&#x6a9;" horiz-adv-x="915" arabic-form="final" d="M811 731v-78l-251 -149q159 -43 248 -158q80 -104 80 -246q0 -18 -3 -29h34v-71h-20l-29 35h-2q-28 -35 -70 -35h-572q-53 0 -95 33q-62 49 -62 132v184l54 44h31v-228q0 -37 25 -64q28 -30 71 -30h515q38 0 38 34q0 45 -17 99t-43 90q-80 116 -256 140q-6 0 -6 7v99z " />
<glyph unicode="&#x6a9;" horiz-adv-x="580" arabic-form="initial" d="M448 731v-78l-251 -149q156 -42 246 -156q82 -104 82 -240q0 -48 -25 -78t-65 -30h-439v71h406q39 0 39 40q-5 104 -61 183q-80 116 -256 140q-6 0 -6 7v99z" />
<glyph unicode="&#x6a9;" horiz-adv-x="552" arabic-form="medial" d="M448 731v-78l-251 -149q156 -42 246 -156q82 -104 82 -240q0 -23 -3 -37h34v-71h-20l-29 35h-2q-30 -35 -70 -35h-439v71h406q39 0 39 40q-5 104 -61 183q-80 116 -256 140q-6 0 -6 7v99z" />
<glyph unicode="&#x6af;" horiz-adv-x="915" arabic-form="final" d="M482 664l330 191v-75l-330 -191v75zM811 731v-78l-251 -149q159 -43 248 -158q80 -104 80 -246q0 -18 -3 -29h34v-71h-20l-29 35h-2q-28 -35 -70 -35h-572q-53 0 -95 33q-62 49 -62 132v184l54 44h31v-228q0 -37 25 -64q28 -30 71 -30h515q38 0 38 34q0 45 -17 99t-43 90 q-80 116 -256 140q-6 0 -6 7v99z" />
<glyph unicode="&#x6af;" horiz-adv-x="580" arabic-form="initial" d="M118 664l330 191v-75l-330 -191v75zM448 731v-78l-251 -149q156 -42 246 -156q82 -104 82 -240q0 -48 -25 -78t-65 -30h-439v71h406q39 0 39 40q-5 104 -61 183q-80 116 -256 140q-6 0 -6 7v99z" />
<glyph unicode="&#x6af;" horiz-adv-x="571" arabic-form="medial" d="M118 664l330 191v-75l-330 -191v75zM448 731v-78l-251 -149q156 -42 246 -156q82 -104 82 -240q0 -23 -3 -37h34v-71h-20l-29 35h-2q-30 -35 -70 -35h-439v71h406q39 0 39 40q-5 104 -61 183q-80 116 -256 140q-6 0 -6 7v99z" />
<glyph unicode="&#x6ba;" horiz-adv-x="758" arabic-form="final" d="M711 460v-389h51v-71h-51q-3 -119 -80 -182q-71 -57 -185 -57h-111q-111 0 -181 53q-85 65 -85 195v209l43 35h42v-242q0 -100 52.5 -139.5t183.5 -39.5q125 0 176 34q60 41 60 145v449h85z" />
<glyph unicode="&#x6c0;" horiz-adv-x="523" arabic-form="final" d="M250 595q-21 27 -21 65q0 39 23 63t62 24q23 0 48 -9v-41q-19 5 -36 5q-51 0 -51 -52q0 -20 12 -36q16 -19 43 -19h64v-17l-19 -24h-169v41h44zM476 487v-378q0 -18 10 -28q9 -10 20 -10h20v-71h-42q-46 0 -73 35q-65 -46 -140 -46q-105 0 -166 82q-50 67 -50 160 q0 109 72 181q64 65 157 65q53 0 107 -24l43 34h42zM391 383q-44 22 -89 22q-76 0 -123 -60q-39 -49 -39 -116q0 -80 38 -126q37 -42 100 -42q54 0 113 29v293z" />
<glyph unicode="&#x6c1;" horiz-adv-x="750" arabic-form="final" d="M703 460v-351q0 -18 10 -28q8 -9 20 -10h20v-71h-45q-40 0 -67 31q-24 28 -24 64v284q-113 -29 -162 -145q-35 -80 -35 -195v-39h-68q-144 0 -230 93q-76 81 -76 203q0 36 7 76h77q-2 -28 -2 -54q0 -109 58 -178q56 -65 149 -69q2 180 99 285q98 104 255 104h14z" />
<glyph unicode="&#x6c1;" horiz-adv-x="399" arabic-form="initial" d="M330 460v-365q0 -39 -26 -66q-26 -29 -64 -29h-40q-46 -57 -46 -103q0 -31 33 -31h68v-62h-72q-39 0 -64 23t-25 60q0 57 44 113h-142v71h211q21 0 32 17q6 9 6 21v351h85z" />
<glyph unicode="&#x6c1;" horiz-adv-x="478" arabic-form="medial" d="M482 71v-71h-21q-12 -1 -19 -9q-11 -11 -11 -29v-310h-14q-186 0 -280 140q-66 99 -69 208h-72v71h153v-53q0 -107 55 -186q53 -75 142 -98v243q0 35 23 63q27 31 67 31h46z" />
<glyph unicode="&#x6be;" horiz-adv-x="766" arabic-form="final" d="M263 449q107 50 216 50q260 0 260 -300v-105q0 -12 -3 -23h33v-71h-19l-29 35h-3q-9 -11 -20 -19q-23 -16 -49 -16h-232q-57 0 -78 7h-4q-20 -7 -79 -7h-166l-35 43v28h156q-23 26 -35 61q-15 39 -15 83q0 71 31 120q26 40 71 58v56zM653 185q0 146 -58 199 q-45 40 -134 40q-65 -1 -122 -18q78 -1 123 -47q51 -51 51 -144q0 -39 -11 -75q-14 -42 -39 -69h153q13 0 23 8q14 11 14 30v76zM438 216q0 59 -27.5 94t-74.5 35q-48 0 -75 -34t-27 -95q0 -59 28.5 -98t73.5 -41q44 2 73 41.5t29 97.5z" />
<glyph unicode="&#x6be;" horiz-adv-x="783" arabic-form="initial" d="M243 449q108 50 221 50q117 0 182 -58q81 -74 81 -242v-104q0 -35 -22 -62q-27 -33 -67 -33h-241q-57 0 -78 7h-4q-20 -7 -79 -7h-240v71h194q-23 26 -35 62q-14 39 -14 82q0 71 30 119q27 41 72 59v56zM642 185q0 129 -44 183q-45 56 -151 56q-70 0 -128 -18 q78 -1 123 -47q51 -51 51 -144q0 -39 -12 -75q-13 -42 -38 -69h162q13 0 23 8q14 11 14 30v76zM418 216q0 59 -27.5 94t-75.5 35q-52 0 -79 -39q-23 -34 -23 -93q1 -53 25 -90q28 -44 77 -46q45 2 74 41.5t29 97.5z" />
<glyph unicode="&#x6be;" horiz-adv-x="756" arabic-form="medial" d="M243 449q107 49 222 49q262 0 262 -299v-105q0 -12 -2 -23h35v-71h-22l-28 35h-3q-8 -10 -18 -18q-24 -17 -51 -17h-241q-57 0 -78 7h-4q-20 -7 -79 -7h-240v71h194q-23 26 -36 63q-13 38 -13 81q0 75 33 123q25 37 69 55v56zM642 185q0 129 -45 183q-47 56 -152 56 q-66 0 -126 -18q96 -1 141 -70q33 -48 33 -121q0 -38 -11 -73q-13 -42 -39 -71h162q18 0 29 14q8 10 8 24v76zM418 216q0 59 -27.5 94t-75.5 35t-75 -34t-27 -95q0 -59 29 -98t73 -41q45 2 74 41t29 98z" />
<glyph unicode="&#x6d2;" horiz-adv-x="684" arabic-form="final" d="M822 71v-71h-586q-43 0 -66 -21q-19 -19 -19 -49q0 -20 11 -32q16 -18 47 -18h465v-28l-35 -43h-428q-66 0 -102 29q-40 32 -40 92q0 64 47 102q47 39 124 39h582z" />
<glyph unicode="&#x6d3;" horiz-adv-x="679" arabic-form="final" d="M139 312q-20 27 -20 65q0 40 23 63.5t61 23.5q23 0 48 -8v-41q-19 5 -36 5q-51 0 -51 -53q0 -20 12 -36q16 -19 43 -19h64v-17l-19 -24h-168v41h43zM844 71v-71h-586q-43 0 -66 -21q-19 -19 -19 -49q0 -20 11 -32q16 -18 47 -18h465v-28l-35 -43h-428q-66 0 -102 29 q-40 32 -40 92q0 64 47 102q47 39 124 39h582z" />
<glyph unicode="&#x649;" horiz-adv-x="330" arabic-form="initial" d="M261 460v-365q0 -37 -24 -64q-27 -31 -67 -31h-174v71h142q17 0 28 12q10 10 10 26v351h85z" />
<glyph unicode="&#x649;" horiz-adv-x="308" arabic-form="medial" d="M261 460v-365q0 -12 -3 -24h53v-71h-39l-29 35h-3q-27 -35 -70 -35h-174v71h142q16 0 26 10q12 11 12 28v351h85z" />
<glyph unicode="&#x6cc;" horiz-adv-x="754" arabic-form="isolated" d="M154 11q0 -99 52.5 -138.5t183.5 -39.5q112 0 163 21q74 31 74 109q0 52 -27 77t-108 48q-100 29 -139 65q-47 45 -47 126q0 101 61 151q51 42 139 42q57 0 119 -19v-66q-67 16 -108 16q-128 0 -128 -124q0 -48 27.5 -74t106.5 -49q100 -30 139 -69q46 -46 46 -126 q0 -110 -93 -162q-68 -38 -169 -38h-111q-125 0 -197 67q-69 64 -69 181v130l43 35h42v-163z" />
<glyph unicode="&#x6cc;" horiz-adv-x="669" arabic-form="final" d="M154 174v-163q0 -99 52 -139t181 -40q124 0 173 31q63 38 66 137h-76l-35 43v28h223v-71h-27q-3 -121 -83 -184q-70 -55 -182 -55h-111q-125 0 -197 67q-69 65 -69 181v130l43 35h42z" />
<glyph unicode="&#x6cc;" horiz-adv-x="330" arabic-form="initial" d="M261 460v-365q0 -37 -24 -64q-27 -31 -67 -31h-174v71h142q17 0 28 12q10 10 10 26v351h85zM81 -104q20 0 34.5 -14.5t14.5 -34.5q0 -21 -14.5 -35.5t-34.5 -14.5q-21 0 -35.5 14.5t-14.5 35.5q0 20 14.5 34.5t35.5 14.5zM202 -104q21 0 35 -14.5t14 -34.5 q0 -21 -14 -35.5t-35 -14.5q-20 0 -34.5 14.5t-14.5 35.5q0 20 14.5 34.5t34.5 14.5z" />
<glyph unicode="&#x6cc;" horiz-adv-x="308" arabic-form="medial" d="M261 460v-365q0 -12 -3 -24h53v-71h-39l-29 35h-3q-27 -35 -70 -35h-174v71h142q16 0 26 10q12 11 12 28v351h85zM90 -104q20 0 34.5 -14.5t14.5 -34.5q0 -21 -14.5 -35.5t-34.5 -14.5t-34.5 14.5t-14.5 35.5q0 20 14.5 34.5t34.5 14.5zM211 -104q21 0 35.5 -14.5 t14.5 -34.5q0 -21 -14.5 -35.5t-35.5 -14.5q-20 0 -34.5 14.5t-14.5 35.5q0 20 14.5 34.5t34.5 14.5z" />
<glyph unicode="&#xfdfa;" horiz-adv-x="618" arabic-form="isolated" d="M324 690q-2 -5 -8 -5t-6 12q0 8 3 12h2q-2 -4 -2 -7q0 -9 7 -9q4 0 4 7q0 3 -1 9l4 4q2 -7 2 -17q2 -2 4 -2q4 0 4 4q0 2 -1 6q-2 5 -2 7q0 4 2 5h1q0 -2 2 -7q3 -5 3 -12q0 -10 -10 -10q-5 0 -8 3zM218 659l-4 2q34 15 41 27q-13 7 -13 13q0 14 17 14q8 0 8 -10 q0 -7 -3 -14l6 -2l-2 -6q-3 1 -7 2q-1 1 -2 1q-11 -15 -41 -27zM501 243q23 4 67 27q1 0 2 1l3 -3l-8 -34q-45 -29 -101 -29q-53 0 -68 31q-9 -29 -35 -29q-27 0 -34 27q-45 -47 -78 -47q-10 0 -21 3v-44q0 -35 40 -35q37 0 136 37q4 2 8 3q50 19 61 19q19 0 19 -23 q0 -27 -38 -55l-4 6q24 20 24 35q0 7 -7 7q-5 0 -13 -2q-16 -5 -60 -21q-92 -35 -128 -35q-25 0 -37 14q2 -28 11 -38q37 -17 37 -21q0 -7 -5.5 -15t-9.5 -8q-5 0 -16 6q-20 10 -36 10q-18 0 -55 -21q-39 -21 -57 -21q-20 0 -32.5 19.5t-12.5 50.5t17.5 56.5t44.5 34.5h2 l2 -4q-21 -8 -36.5 -33.5t-15.5 -52.5q0 -43 29 -43q24 0 65 23q34 19 51 22q-4 17 -4 48v88q-22 15 -37 48q-3 -2 -15 -21q-37 -62 -62 -62q-20 0 -32.5 20t-12.5 51q0 30 17.5 56t44.5 35h2l1 -5q-20 -7 -35.5 -33t-15.5 -53q0 -42 29 -42q22 0 43 31q2 4 10 18 q21 32 31 32q8 0 15 -16l1 -1q8 -18 16 -24v115l-56 -1q-99 0 -99 40q0 36 37 54q8 4 26 12q46 19 46 46l-1 187q0 13 18 29h2l1 -219q0 -33 26 -49v38q0 16 19 28h2v-75h5q8 -1 12 -1q71 0 140 31v24q0 14 20 28h1l1 -42q20 11 27 11q6 0 6 -6q0 -3 -3 -11q-1 -4 -1 -9 q0 -14 13 -21q32 75 74 75q19 0 33 -12.5t14 -29.5q0 -27 -29 -47.5t-68 -20.5q-15 0 -26 5q-3 -4 -8 -11l-4 -6h-3q1 11 5 23q-16 13 -20 39l-10 -6v-70l123 3q44 0 44 -27q0 -12 -10 -25l-4 1q0 22 -30 22l-123 -3v-68q0 -44 60 -44q-14 21 -14 41q0 23 15.5 40t35.5 17 q27 0 55 -23l-2 -9q-19 5 -35 5q-35 0 -50 -25q2 -24 28 -41zM452 515h-4l-5 169q-2 3 -2 6q0 13 10 23h3q20 -29 20 -58q0 -1 -1 -2h-1l-10 10l4 -112q0 -25 -14 -36zM247 702q3 -3 11 -7q1 4 1 7q0 5 -4 5q-3 0 -8 -5zM267 618q-3 -6 -8 -29q-12 -59 -29 -59q-25 0 -25 62 q0 19 3 34h1l2 -3q-1 -9 -1 -15q0 -52 20 -52q11 0 23 50q11 46 24 46q5 0 5 -11q0 -8 -2 -24q-3 -12 -3 -24q0 -36 18 -36q35 0 35 56q0 24 -4 44q2 13 14 23h2q7 -18 6 -75v-12q0 -37 25 -37q24 0 34 21q-1 13 -12 46q-13 37 -13 40q0 4 6 15q2 3 3 4h2l2 -2q1 -2 2 -2 q18 -23 19 -29l-1 -1l-8 3q2 -11 8 -29q7 -24 7 -37q0 -22 -13 -38.5t-32 -16.5q-34 0 -43 33q-11 -33 -37 -33q-33 0 -33 58q0 14 3 30zM251 460l7 12l20 8q57 21 96 29l-6 -12q-34 -5 -102 -32zM547 461q-6 24 -23 24q-30 0 -58 -49h12q45 0 69 25zM208 375v36 q-35 10 -44 45q-12 -19 -55 -34q-34 -12 -39 -24q9 -24 99 -24zM229 406v-31q32 0 102 3q33 1 55 1v58q-66 -31 -142 -31h-15zM346 250q8 -11 20 -11q27 0 24 58v10q0 21 -1 43l-161 -4v-127q10 -5 21 -5q34 0 77 48q6 6 10 6t8 -12q2 -4 2 -6zM252 269l6 11q6 3 21 8 q57 22 96 30l-7 -12q-32 -5 -94 -29q-14 -5 -22 -8zM126 309h3q-6 -17 -6 -29q0 -11 5 -11t7 7h1q0 -22 -14 -22q-9 0 -9 17q0 23 13 38zM340 175l14 14l21 -19l-21 -22l-14 15l-15 -15l-19 22l19 19zM552 85q-5 3 -21 5q-33 5 -33 26q0 19 12 34t27 15q35 0 35 -54 q0 -46 -34 -84.5t-74 -38.5q-20 0 -34 14t-14 35q0 32 26 54l3 -6q-14 -12 -14 -31q0 -37 34 -37q23 0 47.5 19t39.5 49zM554 116q-1 0 -3 5q-9 17 -19 17q-15 0 -15 -11q0 -5 18 -8q13 -2 19 -3zM124 96q-4 -3 -7 -3q-5 0 -5 9q0 10 9 10q6 0 13 -11q3 16 13 16q8 0 8 -7 q0 -3 -2 -8v-4h-1q-1 5 -4 6q-8 0 -10 -27l-2 -2q0 21 -12 21zM335 51v2q5 -2 11 -2q10 0 20 7q-12 6 -20 6q-3 0 -5 -1l-2 1q0 11 15 11q3 0 10 -2q8 -3 13 -4q6 0 6 -2q0 -7 -10 -14.5t-21 -7.5q-9 0 -17 6zM386 22l8 7q5 -6 5 -19q0 -11 -12 -11q-7 0 -11 6q-4 -6 -11 -6 t-10 6q-12 -7 -36 -7q-12 0 -27 2v2h11q44 0 55 17h2q0 -9 7 -9q8 0 8 11h2q0 -11 13 -11q-2 11 -4 12z" />
<glyph unicode="&#x622;" horiz-adv-x="202" arabic-form="final" d="M-27 817q36 60 84 60q26 0 67 -20q14 -6 23 -10q20 -8 36 -8q27 0 51 27l23 -17q-42 -57 -85 -57q-20 0 -45 9q-9 3 -31 15q-27 13 -43 13q-24 0 -57 -29zM154 716v-607q0 -16 10 -27q11 -11 28 -11h13v-71h-46q-32 0 -57 21q-33 29 -33 74v621h85z" />
<glyph unicode="&#x623;" horiz-adv-x="202" arabic-form="final" d="M51 832q-21 27 -21 66t23 62.5t61 23.5q24 0 48 -8v-41q-18 5 -35 5q-52 0 -52 -53q0 -19 13 -35q16 -20 43 -20h64v-17l-20 -24h-168v41h44zM154 716v-607q0 -16 10 -27q11 -11 28 -11h13v-71h-46q-31 0 -56 21q-34 29 -34 74v621h85z" />
<glyph unicode="&#x624;" horiz-adv-x="505" arabic-form="final" d="M237 595q-21 27 -21 65q0 39 23 63t61 24q24 0 48 -9v-41q-18 5 -35 5q-52 0 -52 -52q0 -20 13 -36q16 -19 43 -19h64v-17l-19 -24h-169v41h44zM281 0q-114 0 -175 76q-51 63 -51 162q0 113 68 176q61 58 161 58q78 0 130 -39q63 -49 63 -143v-219h32v-71h-32 q-4 -105 -63 -165q-45 -46 -117 -63q-41 -10 -86 -10q-24 0 -46 1l-33 41v32q30 -4 63 -4q191 0 196 168h-110zM391 290q0 51 -30 81q-29 29 -77 29q-67 0 -105.5 -45t-38.5 -125q0 -71 39 -115t101 -44h111v219z" />
<glyph unicode="&#x625;" horiz-adv-x="188" arabic-form="final" d="M154 716v-607q0 -16 10 -27q11 -11 28 -11h13v-71h-46q-31 0 -56 21q-34 29 -34 74v621h85zM75 -260q-21 27 -21 66t23 62.5t61 23.5q23 0 48 -8v-41q-18 5 -35 5q-52 0 -52 -53q0 -19 13 -35q16 -20 43 -20h64v-17l-20 -24h-168v41h44z" />
<glyph unicode="&#x626;" horiz-adv-x="782" arabic-form="isolated" d="M113 321q-21 27 -21 66t23 62.5t61 23.5q23 0 48 -8v-41q-18 5 -35 5q-52 0 -52 -53q0 -19 13 -35q16 -20 43 -20h64v-17l-20 -24h-168v41h44zM182 11q0 -99 52.5 -138.5t183.5 -39.5q111 0 163 21q73 31 73 109q0 52 -27 77.5t-107 47.5q-101 28 -139 65q-47 44 -47 127 q0 100 61 150q51 42 139 42q57 0 119 -19v-66q-68 16 -109 16q-128 0 -128 -124q0 -48 28 -73.5t107 -49.5q100 -30 139 -69q46 -46 46 -126q0 -110 -93 -162q-68 -38 -170 -38h-111q-125 0 -196 67q-69 64 -69 181v130l43 35h42v-163z" />
<glyph unicode="&#x626;" horiz-adv-x="687" arabic-form="final" d="M113 321q-21 27 -21 66t23 62.5t61 23.5q23 0 48 -8v-41q-18 5 -35 5q-52 0 -52 -53q0 -19 13 -35q16 -20 43 -20h64v-17l-20 -24h-168v41h44zM177 174v-163q0 -99 52.5 -139t180.5 -40q124 0 173 30q63 39 66 138h-76l-35 43v28h218v-71h-22q-3 -121 -83 -184 q-70 -55 -182 -55h-111q-125 0 -197 67q-69 65 -69 181v130l43 35h42z" />
<glyph unicode="&#x626;" horiz-adv-x="330" arabic-form="initial" d="M148 627q-20 26 -20 63q0 41 22.5 65t61.5 24q23 0 48 -8v-41q-19 5 -36 5q-51 0 -51 -53q0 -20 12 -36q16 -19 43 -19h64v-17l-19 -24h-168v41h43zM261 460v-365q0 -37 -24 -64q-27 -31 -67 -31h-174v71h142q17 0 28 12q10 10 10 26v351h85z" />
<glyph unicode="&#x626;" horiz-adv-x="308" arabic-form="medial" d="M145 627q-21 26 -21 63q0 41 23 65t62 24q23 0 48 -8v-41q-19 5 -36 5q-51 0 -51 -53q0 -20 12 -36q16 -19 43 -19h64v-17l-19 -24h-169v41h44zM261 460v-365q0 -12 -3 -24h53v-71h-39l-29 35h-3q-27 -35 -70 -35h-174v71h142q16 0 26 10q12 11 12 28v351h85z" />
<glyph unicode="&#x627;" horiz-adv-x="202" arabic-form="final" d="M154 716v-607q0 -16 10 -27q11 -11 28 -11h13v-71h-46q-32 0 -56 21q-34 29 -34 74v621h85z" />
<glyph unicode="&#x628;" horiz-adv-x="935" arabic-form="final" d="M888 460v-365q0 -13 -3 -24h54v-71h-36l-33 35h-2q-28 -35 -70 -35h-572q-56 0 -99 37q-58 48 -58 128v188l43 35h42v-223q0 -39 27 -66q29 -28 69 -28h515q17 0 29 12q9 10 9 26v351h85zM479 -104q20 0 34.5 -14.5t14.5 -34.5q0 -21 -14.5 -35.5t-34.5 -14.5 q-21 0 -35.5 14.5t-14.5 35.5q0 20 14.5 34.5t35.5 14.5z" />
<glyph unicode="&#x628;" horiz-adv-x="330" arabic-form="initial" d="M261 460v-365q0 -37 -24 -64q-27 -31 -67 -31h-174v71h142q17 0 28 12q10 10 10 26v351h85zM193 -104q20 0 34.5 -14.5t14.5 -34.5q0 -21 -14.5 -35.5t-34.5 -14.5t-34.5 14.5t-14.5 35.5q0 20 14.5 34.5t34.5 14.5z" />
<glyph unicode="&#x628;" horiz-adv-x="308" arabic-form="medial" d="M261 460v-365q0 -12 -3 -24h53v-71h-39l-29 35h-3q-27 -35 -70 -35h-174v71h142q16 0 26 10q12 11 12 28v351h85zM211 -104q21 0 35.5 -14.5t14.5 -34.5q0 -21 -14.5 -35.5t-35.5 -14.5q-20 0 -34.5 14.5t-14.5 35.5q0 20 14.5 34.5t34.5 14.5z" />
<glyph unicode="&#x629;" horiz-adv-x="523" arabic-form="final" d="M305 680q20 0 34.5 -14.5t14.5 -34.5q0 -21 -14.5 -35.5t-34.5 -14.5t-34.5 14.5t-14.5 35.5q0 20 14.5 34.5t34.5 14.5zM426 680q21 0 35.5 -14.5t14.5 -34.5q0 -21 -14.5 -35.5t-35.5 -14.5q-20 0 -34.5 14.5t-14.5 35.5q0 20 14.5 34.5t34.5 14.5zM476 487v-378 q0 -18 10 -28q9 -10 20 -10h20v-71h-42q-46 0 -73 35q-65 -46 -140 -46q-105 0 -166 82q-50 67 -50 160q0 109 72 181q64 65 157 65q53 0 107 -24l43 34h42zM391 383q-44 22 -89 22q-76 0 -123 -60q-39 -49 -39 -116q0 -80 38 -126q37 -42 100 -42q54 0 113 29v293z" />
<glyph unicode="&#x62a;" horiz-adv-x="935" arabic-form="final" d="M419 487q20 0 34.5 -14.5t14.5 -35.5q0 -20 -14.5 -34.5t-34.5 -14.5q-21 0 -35 14.5t-14 34.5q0 21 14 35.5t35 14.5zM540 487q21 0 35.5 -14.5t14.5 -35.5q0 -20 -14.5 -34.5t-35.5 -14.5q-20 0 -34.5 14.5t-14.5 34.5q0 21 14.5 35.5t34.5 14.5zM888 460v-365 q0 -13 -3 -24h54v-71h-36l-33 35h-2q-28 -35 -70 -35h-572q-56 0 -99 37q-58 48 -58 128v188l43 35h42v-223q0 -39 27 -66q29 -28 69 -28h515q17 0 29 12q9 10 9 26v351h85z" />
<glyph unicode="&#x62a;" horiz-adv-x="339" arabic-form="initial" d="M99 680q21 0 35 -14.5t14 -34.5q0 -21 -14 -35.5t-35 -14.5q-20 0 -34.5 14.5t-14.5 35.5q0 20 14.5 34.5t34.5 14.5zM221 680q20 0 34.5 -14.5t14.5 -34.5q0 -21 -14.5 -35.5t-34.5 -14.5q-21 0 -35.5 14.5t-14.5 35.5q0 20 14.5 34.5t35.5 14.5zM261 460v-365 q0 -37 -24 -64q-27 -31 -67 -31h-174v71h142q17 0 28 12q10 10 10 26v351h85z" />
<glyph unicode="&#x62a;" horiz-adv-x="308" arabic-form="medial" d="M99 680q21 0 35 -14.5t14 -34.5q0 -21 -14 -35.5t-35 -14.5q-20 0 -34.5 14.5t-14.5 35.5q0 20 14.5 34.5t34.5 14.5zM221 680q20 0 34.5 -14.5t14.5 -34.5q0 -21 -14.5 -35.5t-34.5 -14.5q-21 0 -35.5 14.5t-14.5 35.5q0 20 14.5 34.5t35.5 14.5zM261 460v-365 q0 -12 -3 -24h53v-71h-39l-29 35h-3q-27 -35 -70 -35h-174v71h142q16 0 26 10q12 11 12 28v351h85z" />
<glyph unicode="&#x62b;" horiz-adv-x="935" arabic-form="final" d="M479 583q20 0 33.5 -14t13.5 -33q0 -20 -14 -33.5t-33 -13.5t-33 13.5t-14 33.5q0 19 14 33t33 14zM418 487q21 0 35.5 -14.5t14.5 -35.5q0 -20 -14.5 -34.5t-35.5 -14.5q-20 0 -34.5 14.5t-14.5 34.5q0 21 14.5 35.5t34.5 14.5zM540 487q20 0 34.5 -14.5t14.5 -35.5 q0 -20 -14.5 -34.5t-34.5 -14.5t-34.5 14.5t-14.5 34.5q0 21 14.5 35.5t34.5 14.5zM888 460v-365q0 -13 -3 -24h54v-71h-36l-33 35h-2q-28 -35 -70 -35h-572q-56 0 -99 37q-58 48 -58 128v188l43 35h42v-223q0 -39 27 -66q29 -28 69 -28h515q17 0 29 12q9 10 9 26v351h85z " />
<glyph unicode="&#x62b;" horiz-adv-x="339" arabic-form="initial" d="M160 776q19 0 33 -13.5t14 -33.5q0 -19 -14 -33t-33 -14t-33 14t-14 33q0 20 13.5 33.5t33.5 13.5zM99 680q21 0 35 -14.5t14 -34.5q0 -21 -14 -35.5t-35 -14.5q-20 0 -34.5 14.5t-14.5 35.5q0 20 14.5 34.5t34.5 14.5zM221 680q20 0 34.5 -14.5t14.5 -34.5 q0 -21 -14.5 -35.5t-34.5 -14.5q-21 0 -35.5 14.5t-14.5 35.5q0 20 14.5 34.5t35.5 14.5zM261 460v-365q0 -37 -24 -64q-27 -31 -67 -31h-174v71h142q17 0 28 12q10 10 10 26v351h85z" />
<glyph unicode="&#x62b;" horiz-adv-x="308" arabic-form="medial" d="M160 776q19 0 33 -13.5t14 -33.5q0 -19 -14 -33t-33 -14t-33 14t-14 33q0 20 13.5 33.5t33.5 13.5zM99 680q21 0 35 -14.5t14 -34.5q0 -21 -14 -35.5t-35 -14.5q-20 0 -34.5 14.5t-14.5 35.5q0 20 14.5 34.5t34.5 14.5zM221 680q20 0 34.5 -14.5t14.5 -34.5 q0 -21 -14.5 -35.5t-34.5 -14.5q-21 0 -35.5 14.5t-14.5 35.5q0 20 14.5 34.5t35.5 14.5zM261 460v-365q0 -12 -3 -24h53v-71h-39l-29 35h-3q-27 -35 -70 -35h-174v71h142q16 0 26 10q12 11 12 28v351h85z" />
<glyph unicode="&#x62c;" horiz-adv-x="610" arabic-form="final" d="M180 443q97 29 158 29q124 0 189 -76q56 -65 56 -174v-127q0 -13 -3 -24h35v-71h-21l-29 35h-3q-28 -35 -70 -35h-193q-94 0 -135 -58q-23 -32 -24 -84q4 -164 197 -164q62 0 131 16v-28l-32 -40q-57 -19 -115 -20q-103 0 -172 46q-93 62 -94 189q2 102 62 156 q65 58 194 58h149q37 0 37 38v116q0 77 -35 121q-42 52 -136 52q-58 0 -146 -22v67zM343 -104q21 0 35 -14.5t14 -34.5q0 -21 -14 -35.5t-35 -14.5q-20 0 -34.5 14.5t-14.5 35.5q0 20 14.5 34.5t34.5 14.5z" />
<glyph unicode="&#x62c;" horiz-adv-x="602" arabic-form="initial" d="M129 443q92 29 172 29q124 0 189 -77q56 -66 56 -173v-127q0 -34 -21 -60q-26 -35 -69 -35h-460v71h427q38 0 38 38v116q0 78 -41 123q-45 50 -131 50q-52 0 -160 -22v67zM248 -104q21 0 35.5 -14.5t14.5 -34.5q0 -21 -14.5 -35.5t-35.5 -14.5q-20 0 -34.5 14.5 t-14.5 35.5q0 20 14.5 34.5t34.5 14.5z" />
<glyph unicode="&#x62c;" horiz-adv-x="575" arabic-form="medial" d="M129 443q92 29 172 29q124 0 189 -77q56 -66 56 -173v-127q0 -12 -3 -24h35v-71h-21l-28 35h-3q-28 -35 -70 -35h-460v71h427q38 0 38 38v116q0 78 -41 123q-45 50 -131 50q-52 0 -160 -22v67zM248 -104q21 0 35.5 -14.5t14.5 -34.5q0 -21 -14.5 -35.5t-35.5 -14.5 q-20 0 -34.5 14.5t-14.5 35.5q0 20 14.5 34.5t34.5 14.5z" />
<glyph unicode="&#x62d;" horiz-adv-x="625" arabic-form="final" d="M180 443q92 29 172 29q123 0 189 -77q55 -66 55 -173v-127q0 -12 -2 -24h35v-71h-22l-28 35h-3q-9 -11 -22 -21q-22 -14 -47 -14h-208q-84 0 -127 -48q-31 -34 -32 -94q3 -164 197 -164q62 0 131 16v-32l-35 -44q-41 -11 -108 -11q-127 0 -199 64q-70 61 -71 170 q2 92 49 143q66 71 207 71h162q38 0 38 38v116q0 78 -40 123q-46 50 -132 50q-52 0 -159 -22v67z" />
<glyph unicode="&#x62d;" horiz-adv-x="602" arabic-form="initial" d="M129 443q92 29 172 29q124 0 189 -77q56 -66 56 -173v-127q0 -34 -21 -60q-26 -35 -69 -35h-460v71h427q38 0 38 38v116q0 78 -41 123q-45 50 -131 50q-52 0 -160 -22v67z" />
<glyph unicode="&#x62d;" horiz-adv-x="575" arabic-form="medial" d="M129 443q92 29 172 29q124 0 189 -77q56 -66 56 -173v-127q0 -12 -3 -24h35v-71h-21l-28 35h-3q-28 -35 -70 -35h-460v71h427q38 0 38 38v116q0 78 -41 123q-45 50 -131 50q-52 0 -160 -22v67z" />
<glyph unicode="&#x62e;" horiz-adv-x="625" arabic-form="final" d="M335 680q21 0 35.5 -14.5t14.5 -34.5q0 -21 -14.5 -35.5t-35.5 -14.5q-20 0 -34.5 14.5t-14.5 35.5q0 20 14.5 34.5t34.5 14.5zM180 443q92 29 171 29q124 0 190 -77q55 -65 55 -173v-127q0 -12 -2 -24h35v-71h-22l-28 35h-3q-9 -12 -22 -21q-22 -14 -47 -14h-208 q-84 0 -127 -48q-31 -34 -32 -94q3 -164 198 -164q61 0 130 16v-32l-35 -44q-41 -11 -107 -11q-128 0 -200 63q-70 62 -71 171q2 92 49 143q67 71 207 71h162q38 0 38 38v116q0 78 -40 123q-46 50 -132 50q-52 0 -159 -22v67z" />
<glyph unicode="&#x62e;" horiz-adv-x="602" arabic-form="initial" d="M312 680q21 0 35 -14.5t14 -34.5q0 -21 -14 -35.5t-35 -14.5q-20 0 -34.5 14.5t-14.5 35.5q0 20 14.5 34.5t34.5 14.5zM129 443q92 29 172 29q124 0 189 -77q56 -66 56 -173v-127q0 -34 -21 -60q-26 -35 -69 -35h-460v71h427q38 0 38 38v116q0 78 -41 123q-45 50 -131 50 q-52 0 -160 -22v67z" />
<glyph unicode="&#x62e;" horiz-adv-x="575" arabic-form="medial" d="M312 680q21 0 35 -14.5t14 -34.5q0 -21 -14 -35.5t-35 -14.5q-20 0 -34.5 14.5t-14.5 35.5q0 20 14.5 34.5t34.5 14.5zM129 443q92 29 172 29q124 0 189 -77q56 -66 56 -173v-127q0 -12 -3 -24h35v-71h-21l-28 35h-3q-28 -35 -70 -35h-460v71h427q38 0 38 38v116 q0 78 -41 123q-45 50 -131 50q-52 0 -160 -22v67z" />
<glyph unicode="&#x62f;" horiz-adv-x="479" arabic-form="final" d="M140 466q36 6 77 6q111 0 179 -67q61 -62 61 -157v-153q0 -13 -2 -24h28v-71h-15l-28 35h-3q-8 -10 -18 -18q-24 -17 -52 -17h-328v71h296q37 0 37 38v127q0 71 -43 118q-46 48 -142 49q-28 0 -47 -4v67z" />
<glyph unicode="&#x630;" horiz-adv-x="479" arabic-form="final" d="M191 680q20 0 34.5 -14.5t14.5 -34.5q0 -21 -14.5 -35.5t-34.5 -14.5t-34.5 14.5t-14.5 35.5q0 20 14.5 34.5t34.5 14.5zM140 466q36 6 77 6q111 0 179 -67q61 -62 61 -157v-153q0 -13 -2 -24h28v-71h-15l-28 35h-3q-8 -10 -18 -18q-24 -17 -52 -17h-328v71h296 q37 0 37 38v127q0 71 -43 118q-46 48 -142 49q-28 0 -47 -4v67z" />
<glyph unicode="&#x631;" horiz-adv-x="380" arabic-form="final" d="M332 460v-389h51v-71h-51q-3 -125 -89 -187q-69 -51 -179 -51q-17 0 -43 1l-33 41v32q29 -4 63 -4q196 0 196 180v448h85z" />
<glyph unicode="&#x632;" horiz-adv-x="380" arabic-form="final" d="M290 680q20 0 34.5 -14.5t14.5 -34.5q0 -21 -14.5 -35.5t-34.5 -14.5t-34.5 14.5t-14.5 35.5q0 20 14.5 34.5t34.5 14.5zM332 460v-389h51v-71h-51q-3 -104 -63 -166q-49 -50 -134 -66q-32 -6 -68 -6q-24 0 -46 1l-33 41v32q29 -4 63 -4q196 0 196 180v448h85z" />
<glyph unicode="&#x633;" horiz-adv-x="1354" arabic-form="final" d="M1307 460v-365q0 -13 -3 -24h53v-71h-39l-29 35h-2q-28 -35 -70 -35h-197l-29 35h-2q-28 -35 -70 -35h-208q-3 -126 -89 -189q-69 -50 -176 -50h-111q-113 0 -183 55q-83 65 -83 193v209l43 35h42v-242q0 -100 52.5 -139.5t183.5 -39.5q125 0 175 34q61 41 61 145v334h85 v-274h175q38 0 38 38v294h85v-308q0 -13 -3 -24h178q38 0 38 38v351h85z" />
<glyph unicode="&#x633;" horiz-adv-x="1016" arabic-form="initial" d="M947 460v-365q0 -39 -26.5 -67t-63.5 -28h-193l-32 35h-3q-28 -35 -70 -35h-192l-33 35h-3q-28 -35 -70 -35h-265v71h232q38 0 38 38v236h85v-250q0 -13 -2 -24h177q38 0 38 38v294h85v-308q0 -13 -3 -24h178q38 0 38 38v351h85z" />
<glyph unicode="&#x633;" horiz-adv-x="994" arabic-form="medial" d="M947 460v-365q0 -13 -3 -24h54v-71h-40l-28 35h-3q-28 -35 -70 -35h-197l-28 35h-3q-28 -35 -70 -35h-197l-28 35h-3q-28 -35 -70 -35h-265v71h232q38 0 38 38v236h85v-250q0 -13 -2 -24h177q38 0 38 38v294h85v-308q0 -13 -3 -24h178q38 0 38 38v351h85z" />
<glyph unicode="&#x634;" horiz-adv-x="1354" arabic-form="final" d="M968 776q19 0 33 -14t14 -33t-14 -33t-33 -14t-33 14t-14 33t14 33t33 14zM907 680q21 0 35 -14.5t14 -34.5q0 -21 -14 -35.5t-35 -14.5q-20 0 -34.5 14.5t-14.5 35.5q0 20 14.5 34.5t34.5 14.5zM1029 680q20 0 34.5 -14.5t14.5 -34.5q0 -21 -14.5 -35.5t-34.5 -14.5 q-21 0 -35 14.5t-14 35.5q0 20 14 34.5t35 14.5zM1307 460v-365q0 -13 -3 -24h53v-71h-39l-29 35h-2q-28 -35 -70 -35h-197l-29 35h-2q-28 -35 -70 -35h-208q-3 -126 -89 -189q-69 -50 -176 -50h-111q-113 0 -183 55q-83 65 -83 193v209l43 35h42v-242q0 -100 52.5 -139.5 t183.5 -39.5q125 0 175 34q61 41 61 145v334h85v-274h175q38 0 38 38v294h85v-308q0 -13 -3 -24h178q38 0 38 38v351h85z" />
<glyph unicode="&#x634;" horiz-adv-x="1016" arabic-form="initial" d="M608 776q20 0 33.5 -14t13.5 -33t-13.5 -33t-33.5 -14q-19 0 -33 14t-14 33t14 33t33 14zM547 680q21 0 35.5 -14.5t14.5 -34.5q0 -21 -14.5 -35.5t-35.5 -14.5q-20 0 -34.5 14.5t-14.5 35.5q0 20 14.5 34.5t34.5 14.5zM669 680q20 0 34.5 -14.5t14.5 -34.5 q0 -21 -14.5 -35.5t-34.5 -14.5t-34.5 14.5t-14.5 35.5q0 20 14.5 34.5t34.5 14.5zM947 460v-365q0 -39 -26.5 -67t-63.5 -28h-193l-32 35h-3q-28 -35 -70 -35h-192l-33 35h-3q-28 -35 -70 -35h-265v71h232q38 0 38 38v236h85v-250q0 -13 -2 -24h177q38 0 38 38v294h85v-308 q0 -13 -3 -24h178q38 0 38 38v351h85z" />
<glyph unicode="&#x634;" horiz-adv-x="994" arabic-form="medial" d="M607 776q20 0 33.5 -14t13.5 -33t-13.5 -33t-33.5 -14q-19 0 -33 14t-14 33t14 33t33 14zM547 680q20 0 34.5 -14.5t14.5 -34.5q0 -21 -14.5 -35.5t-34.5 -14.5q-21 0 -35.5 14.5t-14.5 35.5q0 20 14.5 34.5t35.5 14.5zM668 680q20 0 34.5 -14.5t14.5 -34.5 q0 -21 -14.5 -35.5t-34.5 -14.5t-34.5 14.5t-14.5 35.5q0 20 14.5 34.5t34.5 14.5zM947 460v-365q0 -13 -3 -24h54v-71h-40l-28 35h-3q-28 -35 -70 -35h-197l-28 35h-3q-28 -35 -70 -35h-197l-28 35h-3q-28 -35 -70 -35h-265v71h232q38 0 38 38v236h85v-250q0 -13 -2 -24 h177q38 0 38 38v294h85v-308q0 -13 -3 -24h178q38 0 38 38v351h85z" />
<glyph unicode="&#x635;" horiz-adv-x="1356" arabic-form="final" d="M710 240q136 232 361 232q118 0 191 -74q66 -67 66 -170v-133q0 -13 -3 -24h35v-71h-21l-29 35h-3q-28 -35 -70 -35h-526q-3 -113 -73 -176q-71 -63 -192 -63h-111q-119 0 -190 61q-76 65 -76 187v209l43 35h42v-242q0 -100 52.5 -139.5t184.5 -39.5q124 0 175 34 q60 41 60 145l-1 449h85v-220zM1242 237q0 85 -65 129q-48 33 -120 33q-92 0 -170 -60q-109 -84 -177 -268h495q37 0 37 38v128z" />
<glyph unicode="&#x635;" horiz-adv-x="934" arabic-form="initial" d="M261 241q137 232 357 232q121 0 194 -75q66 -67 66 -170v-133q0 -42 -29 -70q-26 -25 -61 -25h-792v71h180v389h85v-219zM793 237q-1 81 -60 125q-50 37 -125 37q-81 0 -153 -47q-120 -80 -194 -281h494q38 0 38 38v128z" />
<glyph unicode="&#x635;" horiz-adv-x="906" arabic-form="medial" d="M259 240q138 232 362 232q119 0 191 -74q65 -67 65 -170v-133q0 -13 -3 -24h35v-71h-21l-28 35h-3q-28 -35 -70 -35h-791v71h180l-1 389h85zM792 237q-1 80 -59 124q-48 38 -126 38t-146 -43q-126 -79 -202 -285h495q38 0 38 38v128z" />
<glyph unicode="&#x636;" horiz-adv-x="1356" arabic-form="final" d="M1011 680q21 0 35.5 -14.5t14.5 -34.5q0 -21 -14.5 -35.5t-35.5 -14.5q-20 0 -34.5 14.5t-14.5 35.5q0 20 14.5 34.5t34.5 14.5zM710 240q136 232 361 232q118 0 191 -74q66 -67 66 -170v-133q0 -13 -3 -24h35v-71h-21l-29 35h-3q-28 -35 -70 -35h-526q-3 -113 -73 -176 q-71 -63 -192 -63h-111q-119 0 -190 61q-76 65 -76 187v209l43 35h42v-242q0 -100 52.5 -139.5t184.5 -39.5q124 0 175 34q60 41 60 145l-1 449h85v-220zM1242 237q0 85 -65 129q-48 33 -120 33q-92 0 -170 -60q-109 -84 -177 -268h495q37 0 37 38v128z" />
<glyph unicode="&#x636;" horiz-adv-x="934" arabic-form="initial" d="M562 680q20 0 34.5 -14.5t14.5 -34.5q0 -21 -14.5 -35.5t-34.5 -14.5q-21 0 -35.5 14.5t-14.5 35.5q0 20 14.5 34.5t35.5 14.5zM261 241q137 232 357 232q121 0 194 -75q66 -67 66 -170v-133q0 -42 -29 -70q-26 -25 -61 -25h-792v71h180v389h85v-219zM793 237 q-1 81 -60 125q-50 37 -125 37q-81 0 -153 -47q-120 -80 -194 -281h494q38 0 38 38v128z" />
<glyph unicode="&#x636;" horiz-adv-x="906" arabic-form="medial" d="M561 680q20 0 34.5 -14.5t14.5 -34.5q0 -21 -14.5 -35.5t-34.5 -14.5q-21 0 -35 14.5t-14 35.5q0 20 14 34.5t35 14.5zM259 240q138 232 362 232q119 0 191 -74q65 -67 65 -170v-133q0 -13 -3 -24h35v-71h-21l-28 35h-3q-28 -35 -70 -35h-791v71h180l-1 389h85zM792 237 q-1 80 -59 124q-48 38 -126 38t-146 -43q-126 -79 -202 -285h495q38 0 38 38v128z" />
<glyph unicode="&#x637;" horiz-adv-x="952" arabic-form="final" d="M306 716v-476q137 232 360 232q120 0 192 -74q66 -67 66 -170v-133q0 -13 -3 -24h35v-71h-22l-28 35h-3q-28 -35 -70 -35h-743l-35 43v28h167v645h84zM838 237q0 62 -37 105q-51 57 -148 57q-91 0 -169 -59q-110 -84 -178 -269h495q37 0 37 38v128z" />
<glyph unicode="&#x637;" horiz-adv-x="933" arabic-form="initial" d="M260 716v-475q136 231 361 231q118 0 191 -74q65 -67 65 -170v-133q0 -34 -21 -61q-28 -34 -69 -34h-791v71h180v645h84zM792 237q-1 80 -59 124q-50 38 -126 38q-91 0 -169 -58q-109 -82 -178 -270h494q38 0 38 38v128z" />
<glyph unicode="&#x637;" horiz-adv-x="906" arabic-form="medial" d="M260 716v-476q136 232 359 232q120 0 193 -73q66 -67 66 -171v-133q0 -13 -3 -24h35v-71h-21l-29 35h-3q-28 -35 -70 -35h-791v71h180v645h84zM792 237q0 83 -62 127q-48 35 -123 35q-85 0 -160 -52q-116 -82 -187 -276h495q37 0 37 38v128z" />
<glyph unicode="&#x638;" horiz-adv-x="952" arabic-form="final" d="M306 716v-476q137 232 360 232q120 0 192 -74q66 -67 66 -170v-133q0 -13 -3 -24h35v-71h-22l-28 35h-3q-28 -35 -70 -35h-743l-35 43v28h167v645h84zM607 680q20 0 34.5 -14.5t14.5 -34.5q0 -21 -14.5 -35.5t-34.5 -14.5t-34.5 14.5t-14.5 35.5q0 20 14.5 34.5 t34.5 14.5zM838 237q0 62 -37 105q-51 57 -148 57q-91 0 -169 -59q-110 -84 -178 -269h495q37 0 37 38v128z" />
<glyph unicode="&#x638;" horiz-adv-x="933" arabic-form="initial" d="M260 716v-475q136 231 361 231q118 0 191 -74q65 -67 65 -170v-133q0 -34 -21 -61q-28 -34 -69 -34h-791v71h180v645h84zM561 680q21 0 35.5 -14.5t14.5 -34.5q0 -21 -14.5 -35.5t-35.5 -14.5q-20 0 -34.5 14.5t-14.5 35.5q0 20 14.5 34.5t34.5 14.5zM792 237 q-1 80 -59 124q-50 38 -126 38q-91 0 -169 -58q-109 -82 -178 -270h494q38 0 38 38v128z" />
<glyph unicode="&#x638;" horiz-adv-x="906" arabic-form="medial" d="M260 716v-476q136 232 359 232q120 0 193 -73q66 -67 66 -171v-133q0 -13 -3 -24h35v-71h-21l-29 35h-3q-28 -35 -70 -35h-791v71h180v645h84zM561 680q21 0 35.5 -14.5t14.5 -34.5q0 -21 -14.5 -35.5t-35.5 -14.5q-20 0 -34.5 14.5t-14.5 35.5q0 20 14.5 34.5t34.5 14.5 zM792 237q0 83 -62 127q-48 35 -123 35q-85 0 -160 -52q-116 -82 -187 -276h495q37 0 37 38v128z" />
<glyph unicode="&#x639;" horiz-adv-x="610" arabic-form="final" d="M96 297q35 88 117 137q66 38 137 38t137 -38q83 -49 117 -137l-10 -24q-69 -29 -112 -79q-46 -52 -58 -123h190v-71h-203q-31 0 -58 29h-3q-25 -27 -51 -29q-101 -6 -137 -62q-21 -31 -22 -80q2 -89 66 -131q50 -33 131 -33q62 0 131 16v-28l-39 -48q-38 -11 -100 -11 q-116 0 -185 49q-88 61 -89 185q0 82 40 132q56 72 181 82q-10 61 -50 115q-45 56 -120 87zM511 307q-32 48 -75 72q-40 21 -86 21t-82 -19q-44 -22 -79 -74q52 -23 90 -65q46 -52 70 -130h2q25 81 73 133q37 40 87 62z" />
<glyph unicode="&#x639;" horiz-adv-x="618" arabic-form="initial" d="M215 71q-65 67 -65 172q0 112 74 176q62 53 160 53q53 0 111 -17v-67q-59 15 -103 15q-74 0 -115.5 -45.5t-41.5 -125.5q0 -65 44 -115q41 -46 95 -46h202v-28l-35 -43h-545v71h219z" />
<glyph unicode="&#x639;" horiz-adv-x="649" arabic-form="medial" d="M135 297q35 88 117 137q66 38 137 38t136 -38q83 -49 117 -137l-9 -24q-69 -29 -113 -79q-45 -52 -57 -123h189v-71h-203q-30 0 -58 29h-3q-27 -29 -58 -29h-334v71h319q-11 61 -50 115q-45 56 -120 87zM550 307q-33 48 -75 72q-40 21 -86 21t-83 -19q-44 -22 -78 -74 q52 -23 89 -65q46 -52 70 -130h3q25 81 72 133q38 40 88 62z" />
<glyph unicode="&#x63a;" horiz-adv-x="610" arabic-form="final" d="M350 680q20 0 34.5 -14.5t14.5 -34.5q0 -21 -14.5 -35.5t-34.5 -14.5t-34.5 14.5t-14.5 35.5q0 20 14.5 34.5t34.5 14.5zM96 297q35 88 117 137q66 38 137 38t137 -38q83 -49 117 -137l-10 -24q-69 -28 -112 -79q-46 -52 -58 -123h190v-71h-203q-31 0 -58 29h-3 q-25 -27 -51 -29q-101 -6 -137 -62q-20 -31 -22 -80q2 -90 66 -132q50 -32 132 -32q61 0 130 16v-28l-39 -48q-38 -11 -100 -11q-116 0 -185 49q-88 61 -89 185q0 82 40 132q56 72 181 82q-10 61 -50 115q-45 56 -120 87zM511 307q-32 48 -75 72q-40 21 -86 21t-82 -19 q-44 -22 -79 -74q52 -23 90 -65q46 -52 70 -130h2q25 81 73 133q37 40 87 62z" />
<glyph unicode="&#x63a;" horiz-adv-x="618" arabic-form="initial" d="M385 680q20 0 34.5 -14.5t14.5 -34.5q0 -21 -14.5 -35.5t-34.5 -14.5t-34.5 14.5t-14.5 35.5q0 20 14.5 34.5t34.5 14.5zM215 71q-65 67 -65 172q0 112 74 176q62 53 160 53q53 0 111 -17v-67q-59 15 -103 15q-74 0 -115.5 -45.5t-41.5 -125.5q0 -65 44 -115 q41 -46 95 -46h202v-28l-35 -43h-545v71h219z" />
<glyph unicode="&#x63a;" horiz-adv-x="649" arabic-form="medial" d="M389 680q20 0 34.5 -14.5t14.5 -34.5q0 -21 -14.5 -35.5t-34.5 -14.5q-21 0 -35.5 14.5t-14.5 35.5q0 20 14.5 34.5t35.5 14.5zM135 297q35 88 117 137q66 38 137 38t136 -38q83 -49 117 -137l-9 -24q-69 -29 -113 -79q-45 -52 -57 -123h189v-71h-203q-30 0 -58 29h-3 q-27 -29 -58 -29h-334v71h319q-11 61 -50 115q-45 56 -120 87zM550 307q-33 48 -75 72q-40 21 -86 21t-83 -19q-44 -22 -78 -74q52 -23 89 -65q46 -52 70 -130h3q25 81 72 133q38 40 88 62z" />
<glyph unicode="&#x641;" horiz-adv-x="961" arabic-form="final" d="M724 680q21 0 35.5 -14.5t14.5 -34.5q0 -21 -14.5 -35.5t-35.5 -14.5q-20 0 -34.5 14.5t-14.5 35.5q0 20 14.5 34.5t34.5 14.5zM572 71q-63 68 -63 170q0 97 53 159q61 72 162 72q90 0 150 -59q66 -65 66 -172q0 -100 -63 -170h87v-71h-143h-12q-59 0 -83 8h-3 q-24 -8 -84 -8h-12h-401q-60 0 -104 41q-53 49 -53 124v188l43 35h42v-223q0 -38 26 -65q28 -29 70 -29h322zM855 240q0 74 -35.5 117t-95.5 43q-63 0 -97 -45q-32 -42 -32 -117q0 -70 37 -117t92 -50q65 3 102 64q29 47 29 105z" />
<glyph unicode="&#x641;" horiz-adv-x="630" arabic-form="initial" d="M385 680q21 0 35.5 -14.5t14.5 -34.5q0 -21 -14.5 -35.5t-35.5 -14.5q-20 0 -34.5 14.5t-14.5 35.5q0 20 14.5 34.5t34.5 14.5zM220 71q-38 35 -56 87q-14 42 -14 83q0 107 64 170q63 61 171 61q82 0 131 -42q57 -48 59 -140v-195q0 -39 -27 -67q-26 -28 -63 -28h-489v71 h224zM489 290q0 56 -33 86q-26 24 -71 24q-83 0 -122 -58q-28 -40 -28 -104q1 -68 44 -116q45 -51 119 -51h54q37 0 37 38v181z" />
<glyph unicode="&#x641;" horiz-adv-x="602" arabic-form="medial" d="M370 680q20 0 34.5 -14.5t14.5 -34.5q0 -21 -14.5 -35.5t-34.5 -14.5q-21 0 -35 14.5t-14 35.5q0 20 14 34.5t35 14.5zM213 71q-63 69 -63 170q0 97 53 159q61 72 162 72q81 0 138 -48q78 -65 78 -183q0 -100 -63 -170h87v-71h-144h-11q-59 0 -83 8h-4q-24 -8 -83 -8h-12 h-272v71h217zM365 400q-61 0 -95.5 -43t-34.5 -119q0 -69 37.5 -117t92.5 -50q55 2 92.5 50t37.5 117q0 76 -34.5 119t-95.5 43z" />
<glyph unicode="&#x642;" horiz-adv-x="740" arabic-form="final" d="M462 680q21 0 35 -14.5t14 -34.5q0 -21 -14 -35.5t-35 -14.5q-20 0 -34.5 14.5t-14.5 35.5q0 20 14.5 34.5t34.5 14.5zM584 680q20 0 34.5 -14.5t14.5 -34.5q0 -21 -14.5 -35.5t-34.5 -14.5q-21 0 -35.5 14.5t-14.5 35.5q0 20 14.5 34.5t35.5 14.5zM515 0q-106 0 -168 69 q-58 64 -58 169q0 117 74 181q60 53 156 53q79 0 129 -39q63 -49 63 -143v-219h32v-71h-32q-3 -123 -85 -186q-70 -53 -180 -53h-111q-124 0 -195 65t-71 183v141l43 35h42v-174q0 -99 52.5 -138.5t183.5 -39.5q121 0 171 31q62 38 65 136h-111zM626 290q0 53 -34 85 q-29 25 -73 25q-70 0 -109 -48q-35 -45 -35 -122q0 -70 37 -114q38 -45 103 -45h111v219z" />
<glyph unicode="&#x642;" horiz-adv-x="630" arabic-form="initial" d="M326 680q20 0 34.5 -14.5t14.5 -34.5q0 -21 -14.5 -35.5t-34.5 -14.5q-21 0 -35.5 14.5t-14.5 35.5q0 20 14.5 34.5t35.5 14.5zM447 680q21 0 35 -14.5t14 -34.5q0 -21 -14 -35.5t-35 -14.5q-20 0 -34.5 14.5t-14.5 35.5q0 20 14.5 34.5t34.5 14.5zM220 71q-38 35 -56 87 q-14 42 -14 83q0 107 64 170q63 61 171 61q82 0 131 -42q57 -48 59 -140v-195q0 -39 -27 -67q-26 -28 -63 -28h-489v71h224zM489 290q0 56 -33 86q-26 24 -71 24q-83 0 -122 -58q-28 -40 -28 -104q1 -68 44 -116q45 -51 119 -51h54q37 0 37 38v181z" />
<glyph unicode="&#x642;" horiz-adv-x="602" arabic-form="medial" d="M310 680q20 0 34.5 -14.5t14.5 -34.5q0 -21 -14.5 -35.5t-34.5 -14.5t-34.5 14.5t-14.5 35.5q0 20 14.5 34.5t34.5 14.5zM431 680q21 0 35.5 -14.5t14.5 -34.5q0 -21 -14.5 -35.5t-35.5 -14.5q-20 0 -34.5 14.5t-14.5 35.5q0 20 14.5 34.5t34.5 14.5zM213 71 q-63 69 -63 170q0 97 53 159q61 72 162 72q81 0 138 -48q78 -65 78 -183q0 -100 -63 -170h87v-71h-144h-11q-59 0 -83 8h-4q-24 -8 -83 -8h-12h-272v71h217zM365 400q-61 0 -95.5 -43t-34.5 -119q0 -69 37.5 -117t92.5 -50q55 2 92.5 50t37.5 117q0 76 -34.5 119t-95.5 43z " />
<glyph unicode="&#x643;" horiz-adv-x="934" arabic-form="final" d="M888 716v-621q0 -13 -3 -24h52v-71h-38l-29 35h-2q-28 -35 -70 -35h-572q-53 0 -95 33q-62 49 -62 132v188l43 35h42v-223q0 -35 23 -61q29 -33 73 -33h515q18 0 29 13q9 11 9 25v607h85zM411 388q-28 41 -28 89q0 59 36 92t100 33q25 0 49 -5v-46q-21 7 -43 7 q-84 0 -84 -81q0 -40 19.5 -64.5t50.5 -24.5h112v-22l-21 -26h-270v48h79z" />
<glyph unicode="&#x643;" horiz-adv-x="580" arabic-form="initial" d="M448 731v-78l-251 -149q156 -42 246 -156q82 -104 82 -240q0 -48 -25 -78t-65 -30h-439v71h406q39 0 39 40q-5 104 -61 183q-80 116 -256 140q-6 0 -6 7v99z" />
<glyph unicode="&#x643;" horiz-adv-x="552" arabic-form="medial" d="M448 731v-78l-251 -149q156 -42 246 -156q82 -104 82 -240q0 -23 -3 -37h34v-71h-20l-29 35h-2q-30 -35 -70 -35h-439v71h406q39 0 39 40q-5 104 -61 183q-80 116 -256 140q-6 0 -6 7v99z" />
<glyph unicode="&#x644;" horiz-adv-x="758" arabic-form="final" d="M711 716v-645h51v-71h-51q-3 -113 -73 -176q-71 -63 -192 -63h-111q-119 0 -190 61q-76 65 -76 187v209l43 35h42v-242q0 -100 52.5 -139.5t183.5 -39.5q125 0 176 34q60 41 60 145v705h85z" />
<glyph unicode="&#x644;" horiz-adv-x="330" arabic-form="initial" d="M261 716v-621q0 -39 -26 -66q-27 -29 -65 -29h-174v71h142q19 0 29 13q9 11 9 25v607h85z" />
<glyph unicode="&#x644;" horiz-adv-x="308" arabic-form="medial" d="M261 716v-621q0 -12 -3 -24h53v-71h-35l-33 35h-3q-27 -35 -70 -35h-174v71h142q19 0 30 15q8 10 8 23v607h85z" />
<glyph unicode="&#x645;" horiz-adv-x="582" arabic-form="final" d="M187 71q-54 57 -54 161q3 118 71 182q60 55 158 57q82 0 132 -41q60 -48 60 -140v-181q0 -18 10 -28q8 -9 19 -10h3v-71h-25q-17 0 -32 6q-22 7 -40 29q-27 -18 -63 -27q-34 -8 -102 -8h-146q-38 0 -38 -38v-300l-43 -35h-42v350q0 41 29 69q27 25 62 25h41zM468 290 q0 45 -25 76q-30 34 -83 34q-63 0 -102.5 -45.5t-39.5 -118.5q0 -79 39 -122.5t111 -43.5q61 0 100 24v196z" />
<glyph unicode="&#x645;" horiz-adv-x="643" arabic-form="initial" d="M176 290q0 102 72 150q47 31 125 31q95 0 159 -65t64 -182q0 -109 -64 -184q-60 -70 -152 -70q-86 0 -140 65q-27 -35 -72 -35h-172v71h142q16 0 27 11t11 27v181zM261 94q52 -53 115 -53q60 0 97.5 49.5t37.5 128.5q0 88 -44 139q-37 42 -98 42q-46 0 -75 -27 q-33 -31 -33 -83v-196z" />
<glyph unicode="&#x645;" horiz-adv-x="601" arabic-form="medial" d="M193 71q-41 67 -41 153q0 121 68 187q61 58 161 60q72 0 119 -31q72 -48 72 -150v-181q0 -14 7 -24q9 -13 24 -14h2v-71h-25q-45 0 -72 35q-54 -65 -137 -65q-87 0 -151 65h-2l-28 -35h-194v71h197zM487 290q0 52 -33 83q-29 27 -75 27q-64 0 -103 -47.5t-39 -124.5 q0 -81 41 -135q39 -52 98 -52q58 0 111 53v196z" />
<glyph unicode="&#x646;" horiz-adv-x="758" arabic-form="final" d="M376 472q20 0 34.5 -14.5t14.5 -34.5q0 -21 -14.5 -35.5t-34.5 -14.5t-34.5 14.5t-14.5 35.5q0 20 14.5 34.5t34.5 14.5zM706 460v-389h51v-71h-51q-3 -119 -80 -182q-71 -57 -185 -57h-111q-111 0 -181 53q-85 65 -85 195v209l43 35h42v-242q0 -100 52.5 -139.5 t183.5 -39.5q125 0 176 34q60 41 60 145v449h85z" />
<glyph unicode="&#x646;" horiz-adv-x="330" arabic-form="initial" d="M218 680q21 0 35.5 -14.5t14.5 -34.5q0 -21 -14.5 -35.5t-35.5 -14.5q-20 0 -34.5 14.5t-14.5 35.5q0 20 14.5 34.5t34.5 14.5zM261 460v-365q0 -37 -24 -64q-27 -31 -67 -31h-174v71h142q17 0 28 12q10 10 10 26v351h85z" />
<glyph unicode="&#x646;" horiz-adv-x="308" arabic-form="medial" d="M218 680q21 0 35.5 -14.5t14.5 -34.5q0 -21 -14.5 -35.5t-35.5 -14.5q-20 0 -34.5 14.5t-14.5 35.5q0 20 14.5 34.5t34.5 14.5zM261 460v-365q0 -12 -3 -24h53v-71h-39l-29 35h-3q-27 -35 -70 -35h-174v71h142q16 0 26 10q12 11 12 28v351h85z" />
<glyph unicode="&#x647;" horiz-adv-x="523" arabic-form="final" d="M476 487v-378q0 -18 10 -28q9 -10 20 -10h20v-71h-42q-46 0 -73 35q-65 -46 -140 -46q-105 0 -166 82q-50 67 -50 160q0 109 72 181q64 65 157 65q53 0 107 -24l43 34h42zM391 383q-44 22 -89 22q-76 0 -123 -60q-39 -49 -39 -116q0 -80 38 -126q37 -42 100 -42 q54 0 113 29v293z" />
<glyph unicode="&#x647;" horiz-adv-x="783" arabic-form="initial" d="M243 449q108 50 221 50q117 0 182 -58q81 -74 81 -242v-104q0 -35 -22 -62q-27 -33 -67 -33h-241q-57 0 -78 7h-4q-20 -7 -79 -7h-240v71h194q-23 26 -35 62q-14 39 -14 82q0 71 30 119q27 41 72 59v56zM642 185q0 129 -44 183q-45 56 -151 56q-70 0 -128 -18 q78 -1 123 -47q51 -51 51 -144q0 -39 -12 -75q-13 -42 -38 -69h162q13 0 23 8q14 11 14 30v76zM418 216q0 59 -27.5 94t-75.5 35q-52 0 -79 -39q-23 -34 -23 -93q1 -53 25 -90q28 -44 77 -46q45 2 74 41.5t29 97.5z" />
<glyph unicode="&#x647;" horiz-adv-x="756" arabic-form="medial" d="M243 449q107 49 222 49q262 0 262 -299v-105q0 -12 -2 -23h35v-71h-22l-28 35h-3q-8 -10 -18 -18q-24 -17 -51 -17h-241q-57 0 -78 7h-4q-20 -7 -79 -7h-240v71h194q-23 26 -36 63q-13 38 -13 81q0 75 33 123q25 37 69 55v56zM642 185q0 129 -45 183q-47 56 -152 56 q-66 0 -126 -18q96 -1 141 -70q33 -48 33 -121q0 -38 -11 -73q-13 -42 -39 -71h162q18 0 29 14q8 10 8 24v76zM418 216q0 59 -27.5 94t-75.5 35t-75 -34t-27 -95q0 -59 29 -98t73 -41q45 2 74 41t29 98z" />
<glyph unicode="&#x648;" horiz-adv-x="505" arabic-form="final" d="M281 0q-114 0 -175 76q-51 63 -51 162q0 113 68 176q61 58 161 58q78 0 130 -39q63 -49 63 -143v-219h32v-71h-32q-4 -105 -63 -165q-45 -46 -117 -63q-41 -10 -86 -10q-24 0 -46 1l-33 41v32q30 -4 63 -4q191 0 196 168h-110zM391 290q0 51 -30 81q-29 29 -77 29 q-67 0 -105.5 -45t-38.5 -125q0 -71 39 -115t101 -44h111v219z" />
<glyph unicode="&#x649;" horiz-adv-x="754" arabic-form="isolated" d="M154 11q0 -99 52.5 -138.5t183.5 -39.5q112 0 163 21q74 31 74 109q0 52 -27 77t-107 48q-101 29 -140 65q-47 44 -47 126q0 101 61 151q51 42 139 42q57 0 119 -19v-66q-67 16 -108 16q-128 0 -128 -124q0 -49 28 -74t107 -49q99 -30 139 -69q45 -46 45 -126 q0 -110 -93 -162q-68 -38 -169 -38h-111q-125 0 -197 67q-69 64 -69 181v130l43 35h42v-163z" />
<glyph unicode="&#x649;" horiz-adv-x="669" arabic-form="final" d="M154 174v-163q0 -99 52 -139t181 -40q124 0 173 31q63 38 66 137h-76l-35 43v28h223v-71h-27q-3 -121 -83 -184q-70 -55 -182 -55h-111q-125 0 -197 67q-69 65 -69 181v130l43 35h42z" />
<glyph unicode="&#x64a;" horiz-adv-x="669" arabic-form="final" d="M154 174v-163q0 -99 52 -139t181 -40q124 0 173 31q63 38 66 137h-76l-35 43v28h223v-71h-27q-3 -121 -83 -184q-70 -55 -182 -55h-111q-125 0 -197 67q-69 65 -69 181v130l43 35h42zM329 -297q20 0 34.5 -14.5t14.5 -35.5q0 -20 -14.5 -34.5t-34.5 -14.5t-34.5 14.5 t-14.5 34.5q0 21 14.5 35.5t34.5 14.5zM451 -297q20 0 34.5 -14.5t14.5 -35.5q0 -20 -14.5 -34.5t-34.5 -14.5q-21 0 -35.5 14.5t-14.5 34.5q0 21 14.5 35.5t35.5 14.5z" />
<glyph unicode="&#x64a;" horiz-adv-x="330" arabic-form="initial" d="M261 460v-365q0 -37 -24 -64q-27 -31 -67 -31h-174v71h142q17 0 28 12q10 10 10 26v351h85zM81 -104q20 0 34.5 -14.5t14.5 -34.5q0 -21 -14.5 -35.5t-34.5 -14.5q-21 0 -35.5 14.5t-14.5 35.5q0 20 14.5 34.5t35.5 14.5zM202 -104q21 0 35 -14.5t14 -34.5 q0 -21 -14 -35.5t-35 -14.5q-20 0 -34.5 14.5t-14.5 35.5q0 20 14.5 34.5t34.5 14.5z" />
<glyph unicode="&#x64a;" horiz-adv-x="308" arabic-form="medial" d="M261 460v-365q0 -12 -3 -24h53v-71h-39l-29 35h-3q-27 -35 -70 -35h-174v71h142q16 0 26 10q12 11 12 28v351h85zM90 -104q20 0 34.5 -14.5t14.5 -34.5q0 -21 -14.5 -35.5t-34.5 -14.5t-34.5 14.5t-14.5 35.5q0 20 14.5 34.5t34.5 14.5zM211 -104q21 0 35.5 -14.5 t14.5 -34.5q0 -21 -14.5 -35.5t-35.5 -14.5q-20 0 -34.5 14.5t-14.5 35.5q0 20 14.5 34.5t34.5 14.5z" />
<glyph horiz-adv-x="0" />
<glyph horiz-adv-x="184" />
<glyph unicode=" "  horiz-adv-x="184" />
<glyph unicode="&#x09;" horiz-adv-x="184" />
<glyph unicode="&#xa0;" horiz-adv-x="184" />
<glyph unicode="!" horiz-adv-x="199" d="M141 716v-509l-43 -35h-42v544h85zM100 93q21 0 35 -14t14 -35q0 -20 -14 -34.5t-35 -14.5q-20 0 -34.5 14.5t-14.5 34.5q0 21 14.5 35t34.5 14z" />
<glyph unicode="&#x22;" horiz-adv-x="340" d="M140 716v-199l-35 -29h-36v228h71zM271 716v-199l-36 -29h-36v228h72z" />
<glyph unicode="#" horiz-adv-x="609" d="M502 672l-38 -206h125v-63h-137l-29 -139h134v-63h-145l-38 -201h-79l39 201h-112l-38 -201h-76l37 201h-124v63h135l29 139h-131v63h142l38 206h78l-38 -206h114l39 206h75zM375 403h-113l-29 -139h113z" />
<glyph unicode="$" horiz-adv-x="580" d="M322 716v-82q64 -8 124 -35v-67q-64 28 -124 33v-194q87 -31 124 -64q41 -39 41 -102q0 -64 -44 -104q-43 -39 -121 -50v-106h-64v102q-70 0 -131 17l-35 44v32q65 -25 149 -25q10 0 17 1v200q-86 29 -121 64q-39 38 -39 104q0 61 44 101q42 39 116 47v84h64zM258 393 v170q-41 -7 -61 -29q-18 -20 -18 -51q0 -34 17 -54t62 -36zM322 292v-171q47 7 68 34q16 20 16 50q0 31 -18 51q-19 20 -66 36z" />
<glyph unicode="%" horiz-adv-x="741" d="M167 684q70 0 110 -59q40 -61 40 -158q0 -99 -39 -154q-40 -53 -110 -53q-74 0 -113 56q-37 54 -37 150q0 98 38 155q38 63 111 63zM609 673l-397 -673h-72l396 673h73zM167 631q-42 0 -63 -35q-25 -41 -25 -130q0 -65 14 -101q21 -52 74 -52q50 0 73 49q17 39 17 104 q0 91 -29 133q-22 32 -61 32zM572 415q70 0 110 -59q40 -61 40 -158q0 -98 -39 -154q-40 -53 -110 -53q-74 0 -113 56q-37 54 -37 150q0 99 38 156q38 62 111 62zM572 362q-42 0 -63 -35q-25 -41 -25 -130q0 -65 15 -101q20 -52 73 -52q50 0 73 49q17 39 17 104 q0 91 -29 133q-22 32 -61 32z" />
<glyph unicode="&#x26;" horiz-adv-x="655" d="M492 330h78q-1 -71 -64 -171l128 -159h-106l-71 88q-48 -47 -75 -64q-55 -35 -129 -35q-97 0 -148 60q-43 52 -43 135q0 128 148 209q-46 58 -62.5 91.5t-16.5 68.5q0 70 55 115q47 40 113 40q74 0 120 -49q39 -43 39 -105q0 -53 -29.5 -90.5t-105.5 -80.5l131 -160 q2 3 8 15q30 57 30 92zM280 435l13 8q88 55 88 112q0 36 -24.5 60t-60.5 24q-39 0 -62 -23t-23 -62q0 -27 11 -46t58 -73zM253 342q-39 -14 -74 -62.5t-35 -88.5q0 -54 33.5 -89.5t84.5 -35.5q71 0 149 80z" />
<glyph unicode="'" horiz-adv-x="209" d="M140 716v-199l-35 -29h-36v228h71z" />
<glyph unicode="(" horiz-adv-x="313" d="M241 716l27 -21q-61 -85 -92 -197q-26 -93 -26 -196q0 -111 34 -215q27 -88 84 -172l-27 -21h-28q-70 80 -105 188q-34 103 -34 219q0 117 34 222q35 110 105 193h28z" />
<glyph unicode=")" horiz-adv-x="313" d="M73 716h28q70 -83 105 -193q34 -105 34 -222q0 -116 -34 -219q-35 -108 -105 -188h-28l-27 21q56 84 84 172q33 104 33 215q0 103 -25 196q-31 112 -92 197z" />
<glyph unicode="*" horiz-adv-x="382" d="M157 716h61l-4 -111l104 38l18 -58l-106 -30l69 -86l-50 -36l-61 92l-62 -92l-49 36l68 86l-106 30l19 58l104 -38z" />
<glyph unicode="+" horiz-adv-x="517" d="M224 14v177h-178v70h178v179h69v-179h178v-70h-178v-177h-69z" />
<glyph unicode="," horiz-adv-x="210" d="M103 -4l-1 -1h-1q-20 0 -33.5 13.5t-14.5 33.5q0 15 7 28q13 24 42 24q25 0 41 -20t16 -52q0 -73 -66 -149h-19l-24 19q21 27 37 61q11 21 16 43z" />
<glyph unicode="-" horiz-adv-x="321" d="M284 263v-72h-247v72h247z" />
<glyph unicode="." horiz-adv-x="199" d="M100 93q21 0 35 -14t14 -35q0 -20 -14 -34.5t-35 -14.5q-20 0 -34.5 14.5t-14.5 34.5q0 21 14.5 35t34.5 14z" />
<glyph unicode="/" horiz-adv-x="350" d="M340 673l-250 -673h-81l251 673h80z" />
<glyph unicode="0" horiz-adv-x="528" d="M264 -13q-133 0 -190 139q-37 89 -37 221q0 166 58 274q57 108 169 108q109 0 167 -105q61 -107 61 -274q0 -157 -50 -252q-59 -111 -178 -111zM405 348q0 305 -141 305q-140 0 -140 -303q0 -127 23 -191q33 -95 117 -95q141 0 141 284z" />
<glyph unicode="1" horiz-adv-x="355" d="M286 716v-678l-43 -38h-42v614l-124 -104l-45 56l178 150h76z" />
<glyph unicode="2" horiz-adv-x="482" d="M66 664q94 61 190 61q94 0 141 -55q41 -48 41 -128q0 -63 -32 -123q-29 -51 -102 -138l-141 -160l-41 -50h328v-28l-35 -43h-383v72l76 91l154 179q46 55 65 92q26 50 26 97q0 52 -31 84t-83 32q-61 0 -127 -47z" />
<glyph unicode="3" horiz-adv-x="475" d="M90 705q65 20 106 20q100 0 160 -52q57 -50 57 -134q0 -141 -125 -169q72 -12 113.5 -61t41.5 -121q0 -104 -81 -158q-62 -41 -155 -41q-60 0 -120 17l-32 40v31q69 -15 121 -15q181 0 181 122q0 66 -55 111q-31 25 -65.5 34.5t-101.5 10.5v65h85q48 0 78.5 31.5 t30.5 81.5q0 59 -39 93.5t-106 34.5q-33 0 -94 -13v72z" />
<glyph unicode="4" horiz-adv-x="530" d="M401 716v-465h106v-77h-106v-136l-43 -38h-42v174h-293v75l286 467h92zM316 604l-209 -353h209v353z" />
<glyph unicode="5" horiz-adv-x="474" d="M386 716v-72h-233l-12 -221q46 7 73 7q111 0 171 -68q52 -59 52 -157q0 -110 -77 -166q-61 -45 -160 -45q-60 0 -120 18l-32 39v31q69 -14 121 -14q93 0 136 30q48 33 48 109q0 152 -179 152q-42 0 -122 -9l20 366h314z" />
<glyph unicode="6" horiz-adv-x="513" d="M132 358q64 83 151 83q101 0 154 -73q42 -59 42 -149q0 -110 -63 -174q-58 -57 -152 -57q-213 0 -213 280v38q0 182 72 296q77 123 222 123q18 0 44 -2l34 -42v-31q-40 6 -66 6q-193 0 -225 -298zM393 223q0 63 -33.5 104.5t-85.5 41.5q-56 0 -103 -47q-41 -41 -41 -89 q0 -74 38 -122q37 -46 98 -46q56 0 91.5 43.5t35.5 114.5z" />
<glyph unicode="7" horiz-adv-x="495" d="M465 716v-63l-238 -606l-58 -47h-52l260 644h-347v72h435z" />
<glyph unicode="8" horiz-adv-x="531" d="M205 365q-129 86 -129 199q0 86 62 129q49 35 126 35q91 0 142 -47q49 -44 49 -121q0 -59 -26.5 -99t-100.5 -93q161 -76 161 -202q0 -92 -80 -141q-61 -38 -145 -38q-100 0 -162 49q-61 48 -61 132q0 125 164 197zM268 399q102 64 102 165q0 48 -28 76.5t-76 28.5 q-53 0 -80 -32q-25 -28 -25 -74q0 -47 24 -86q26 -44 83 -78zM267 340q-75 -36 -105.5 -72.5t-30.5 -91.5q0 -56 36 -87.5t99 -31.5t99.5 32t36.5 86q0 52 -31 90t-104 75z" />
<glyph unicode="9" horiz-adv-x="512" d="M385 355q-58 -82 -151 -82q-101 0 -154 73q-43 59 -43 150q0 110 64 173q57 58 151 58q139 0 188 -126q31 -76 31 -217q0 -393 -279 -393q-25 0 -65 4l-32 41v30q40 -6 68 -6q120 0 169 65.5t53 229.5zM251 650q-65 0 -101 -55q-27 -43 -27 -103q0 -64 34 -105.5 t86 -41.5q60 0 97 39t37 101q0 165 -126 165z" />
<glyph unicode=":" horiz-adv-x="200" d="M100 280q21 0 35 -14t14 -35q0 -20 -14 -34.5t-35 -14.5q-20 0 -34.5 14.5t-14.5 34.5q0 21 14.5 35t34.5 14zM101 93q20 0 34.5 -14t14.5 -35q0 -20 -14.5 -34.5t-34.5 -14.5q-21 0 -35.5 14.5t-14.5 34.5q0 21 14.5 35t35.5 14z" />
<glyph unicode=";" horiz-adv-x="210" d="M103 -4l-1 -1h-1q-20 0 -33.5 13.5t-14.5 33.5q0 15 7 28q13 24 42 24q25 0 41 -20t16 -52q0 -73 -66 -149h-19l-24 19q21 27 37 61q11 21 16 43zM101 182q-20 0 -34.5 14.5t-14.5 35.5q0 20 14.5 34.5t35.5 14.5q20 0 34 -14.5t14 -34.5q0 -21 -14 -35.5t-35 -14.5z" />
<glyph unicode="&#x3c;" horiz-adv-x="508" d="M466 573v-75l-334 -166l334 -146v-76l-425 195v47z" />
<glyph unicode="=" horiz-adv-x="517" d="M471 286h-425v68h425v-68zM471 97h-425v69h425v-69z" />
<glyph unicode="&#x3e;" horiz-adv-x="508" d="M41 573l425 -221v-47l-425 -195v76l334 146l-334 166v75z" />
<glyph unicode="?" d="M324 195h-88v54q0 49 28 85q17 23 74 75q74 66 74 130q0 50 -34.5 80.5t-90.5 30.5q-67 0 -97.5 -36.5t-30.5 -115.5h-83q0 229 215 229q103 0 160 -58q49 -50 49 -131q0 -49 -21 -87t-77 -88q-50 -45 -64 -67t-14 -55v-46zM282 110q20 0 34.5 -14t14.5 -35 q0 -20 -14.5 -34.5t-34.5 -14.5q-21 0 -35 14.5t-14 34.5q0 21 14 35t35 14z" />
<glyph unicode="@" horiz-adv-x="803" d="M465 -48q-44 -8 -86 -8q-168 0 -258 118q-75 97 -75 247q0 177 124 287q98 87 233 87q170 0 269 -104q88 -93 88 -240q0 -101 -44 -168q-46 -70 -127 -70q-56 0 -85 34q-43 -33 -103 -33q-91 0 -139 61q-40 51 -40 132q0 101 59 157q48 44 123 47q46 0 89 -24l46 37h25 v-317q0 -22 38 -22q39 0 63 42t24 111q0 142 -87 220q-75 68 -199 68q-115 0 -197 -81q-89 -88 -89 -222q0 -152 88 -234q78 -73 209 -73q37 0 77 6v-26zM492 422q-38 14 -71 14q-57 0 -92 -38t-35 -100q0 -63 32 -99t88 -36q45 0 78 26v233z" />
<glyph unicode="A" horiz-adv-x="655" d="M466 215h-276l-76 -215h-97l255 716h118l251 -716h-101zM440 292l-110 325l-117 -325h227z" />
<glyph unicode="B" horiz-adv-x="655" d="M78 0v716h291q100 0 155 -50q57 -52 57 -132q0 -110 -100 -156q131 -50 131 -174q0 -86 -55 -144q-57 -60 -157 -60h-322zM169 408h177q70 0 104 25q39 29 39 88t-39 89q-34 25 -104 25h-177v-227zM169 81h223q61 0 95 32.5t34 90.5t-34 90.5t-95 32.5h-223v-246z" />
<glyph unicode="C" horiz-adv-x="709" d="M650 497h-94q-15 72 -52 105q-48 44 -140 44q-112 0 -173 -88q-53 -77 -53 -202q0 -141 71 -219q63 -67 162 -67q121 0 167 89q21 41 33 109h94q-33 -279 -293 -279q-140 0 -221 82q-104 105 -104 282q0 172 100 283q82 91 226 91q234 0 277 -230z" />
<glyph unicode="D" horiz-adv-x="709" d="M87 0v716h276q145 0 223 -108q68 -95 68 -250q0 -178 -88 -274q-77 -84 -203 -84h-276zM178 81h169q216 0 216 277t-216 277h-169v-554z" />
<glyph unicode="E" horiz-adv-x="655" d="M179 326v-245h422v-81h-513v716h496v-81h-405v-228h390v-81h-390z" />
<glyph unicode="F" horiz-adv-x="600" d="M179 326v-326h-91v716h480v-81h-389v-228h342v-81h-342z" />
<glyph unicode="G" horiz-adv-x="764" d="M696 377v-377h-58l-23 101q-102 -112 -244 -112q-156 0 -248 115q-80 101 -80 252q0 197 129 303q84 68 215 68q155 0 238 -94q45 -51 61 -132h-93q-15 68 -70 106.5t-138 38.5q-121 0 -191 -88q-60 -77 -60 -197q0 -140 76 -221q66 -70 181 -70q104 0 168 68 q56 60 56 146v12h-218v81h299z" />
<glyph unicode="H" horiz-adv-x="709" d="M541 326h-369v-326h-91v716h91v-309h369v309h91v-716h-91v326z" />
<glyph unicode="I" horiz-adv-x="273" d="M191 716v-716h-93v716h93z" />
<glyph unicode="J" horiz-adv-x="491" d="M327 716h91v-526q0 -91 -53 -145q-56 -56 -151 -56q-96 0 -150 58q-47 50 -47 131v52h93v-35q0 -129 107 -129q59 0 88 44q22 34 22 113v493z" />
<glyph unicode="K" horiz-adv-x="655" d="M169 251v-251h-91v716h91v-362l357 362h118l-293 -292l295 -424h-108l-252 367z" />
<glyph unicode="L" d="M170 716v-635h353v-81h-444v716h91z" />
<glyph unicode="M" horiz-adv-x="818" d="M460 0h-96l-204 600v-600h-86v716h126l213 -623l208 623h127v-716h-87v600z" />
<glyph unicode="N" horiz-adv-x="709" d="M634 716v-716h-102l-371 581v-581h-86v716h99l374 -585v585h86z" />
<glyph unicode="O" horiz-adv-x="764" d="M383 727q166 0 262 -115q83 -100 83 -254q0 -177 -107 -280q-94 -89 -238 -89q-167 0 -263 115q-83 100 -83 254q0 177 108 280q93 89 238 89zM382 646q-122 0 -193 -89q-61 -78 -61 -199q0 -139 79 -219q69 -69 175 -69q123 0 194 89q61 78 61 199q0 139 -79 219 q-69 69 -176 69z" />
<glyph unicode="P" horiz-adv-x="655" d="M180 303v-303h-91v716h296q113 0 170 -62q50 -54 50 -148q0 -95 -61 -151q-56 -52 -139 -52h-225zM180 384h191q65 0 102 33t37 93q0 59 -37 92t-102 33h-191v-251z" />
<glyph unicode="Q" horiz-adv-x="764" d="M563 35q-75 -45 -181 -46q-166 0 -262 115q-83 100 -83 254q0 177 108 280q93 89 238 89q166 0 262 -115q83 -100 83 -254q0 -167 -101 -274l-9 -9l89 -88l-47 -44zM556 136l3 3q78 78 78 219q0 139 -79 219q-69 69 -176 69q-122 0 -193 -89q-61 -78 -61 -199 q0 -139 79 -219q69 -69 175 -69q63 0 116 26h1l-91 86l52 49z" />
<glyph unicode="R" horiz-adv-x="709" d="M182 308v-308h-91v716h329q114 0 170 -56q49 -49 49 -136q0 -61 -26.5 -101t-87.5 -70q49 -19 72 -51q23 -33 26 -135q2 -75 9.5 -100.5t33.5 -43.5v-23h-110q-22 46 -22 97l1 112q0 11 -9 34t-17 33q-27 32 -92 32h-235zM182 389h221q141 0 141 123t-141 123h-221v-246z " />
<glyph unicode="S" horiz-adv-x="655" d="M585 510h-86q-3 140 -179 140q-72 0 -116 -32.5t-44 -85.5q0 -40 26.5 -63.5t91.5 -40.5l170 -44q162 -43 162 -180q0 -99 -79 -161q-70 -54 -201 -54q-166 0 -241 100q-40 54 -42 145h86v-2q0 -78 53.5 -120.5t149.5 -42.5q88 0 131 29q51 35 51 98q0 80 -131 113 l-178 46q-140 36 -140 165q0 102 77 158q67 49 177 49q156 0 223 -91q39 -53 39 -115v-11z" />
<glyph unicode="T" horiz-adv-x="600" d="M348 635v-635h-91v635h-236v81h561v-81h-234z" />
<glyph unicode="U" horiz-adv-x="709" d="M542 716h91v-491q0 -116 -85 -180q-73 -56 -191 -56q-136 0 -210 71q-64 63 -64 165v491h91v-491q0 -74 48 -114.5t135 -40.5q92 0 142 46q43 41 43 109v491z" />
<glyph unicode="V" horiz-adv-x="655" d="M385 0h-99l-257 716h98l211 -606l198 606h97z" />
<glyph unicode="W" horiz-adv-x="927" d="M731 0h-100l-165 588l-161 -588h-100l-183 716h102l135 -581l159 581h98l163 -581l132 581h101z" />
<glyph unicode="X" horiz-adv-x="655" d="M384 367l254 -367h-114l-194 299l-197 -299h-111l254 367l-238 349h111l183 -281l185 281h109z" />
<glyph unicode="Y" horiz-adv-x="655" d="M380 281v-281h-91v281l-276 435h112l211 -349l204 349h109z" />
<glyph unicode="Z" horiz-adv-x="600" d="M571 716v-83l-428 -552h430v-81h-545v81l430 554h-403v81h516z" />
<glyph unicode="[" horiz-adv-x="372" d="M303 716v-67h-158v-684h158v-67h-234v818h234z" />
<glyph unicode="\" horiz-adv-x="350" d="M90 673l250 -673h-80l-251 673h81z" />
<glyph unicode="]" horiz-adv-x="372" d="M303 716v-818h-234v67h158v684h-158v67h234z" />
<glyph unicode="^" horiz-adv-x="460" d="M193 696h72l152 -373h-68l-120 295l-118 -295h-68z" />
<glyph unicode="_" horiz-adv-x="384" d="M387 -85v-64h-391v64h391z" />
<glyph unicode="`" horiz-adv-x="491" d="M238 727l94 -146h-59l-146 146h111z" />
<glyph unicode="a" d="M525 69v-66q-34 -12 -53 -12q-80 0 -87 73q-55 -75 -175 -75q-83 0 -129 46q-40 40 -40 103q0 72 51 111q29 22 121 43l168 38l1 43q0 77 -116 77q-111 0 -119 -90h-83q3 68 34 104q53 61 172 61q193 0 193 -140v-287q0 -38 33 -38q4 0 21 6q6 2 8 3zM382 263l-132 -34 q-71 -18 -97.5 -37t-26.5 -53q0 -79 102 -79q72 0 122 47q32 29 32 66v90z" />
<glyph unicode="b" d="M53 716h81v-271q57 80 160 80q109 0 168 -80q52 -70 52 -185q0 -133 -69 -207q-60 -64 -155 -64q-107 0 -163 81v-70h-74v716zM279 449q-66 0 -105.5 -53.5t-39.5 -141.5q0 -92 45 -144q39 -44 100 -44q68 0 108.5 51t40.5 137q0 94 -46 148q-40 47 -103 47z" />
<glyph unicode="c" horiz-adv-x="491" d="M462 342h-82q-15 108 -122 108q-67 0 -105 -53t-38 -147q0 -93 45 -142q38 -43 102 -43q103 0 123 112h83q-8 -96 -69 -145q-53 -43 -139 -43q-113 0 -176 80q-54 69 -54 181q0 134 71 210q61 65 158 65q112 0 168 -75q29 -39 35 -108z" />
<glyph unicode="d" d="M487 716v-716h-82v71q-49 -83 -152 -83q-113 0 -174 82q-53 72 -53 190q0 129 69 202q59 63 153 63q104 0 157 -78v269h82zM262 449q-68 0 -109.5 -53.5t-41.5 -141.5q0 -91 48 -143q41 -46 104 -46q65 0 103.5 51t38.5 138q0 95 -44 148q-39 47 -99 47z" />
<glyph unicode="e" d="M503 233h-379q1 -66 28 -105q43 -63 124 -63q100 0 135 95h82q-16 -81 -74 -126t-146 -45q-117 0 -179 80q-55 70 -55 185q0 133 72 207q63 64 163 64q73 0 128.5 -35t79.5 -96q21 -52 21 -158v-3zM415 300q0 67 -39.5 108.5t-101.5 41.5q-63 0 -102.5 -40.5 t-44.5 -109.5h288z" />
<glyph unicode="f" horiz-adv-x="273" d="M253 514v-66h-85v-448h-81v448h-69v66h69v88q0 55 31.5 86t88.5 31q22 0 46 -5v-68h-9q-11 1 -19 1q-57 0 -57 -52v-81h85z" />
<glyph unicode="g" d="M404 514h76v-430q0 -167 -54 -232q-54 -66 -177 -66q-96 0 -150 46q-48 41 -54 109h84q6 -40 30 -59q35 -27 94 -27q80 0 114 48q29 41 29 140v33q-64 -87 -154 -87q-88 0 -149 66q-65 71 -65 194q0 132 68 210q60 66 151 66q98 0 157 -88v77zM256 450 q-66 0 -104.5 -52.5t-38.5 -143.5q0 -95 44 -145q37 -44 100 -44q66 0 102.5 50t36.5 139q0 98 -42 150q-37 46 -98 46z" />
<glyph unicode="h" d="M69 716h81v-274q37 46 74 64.5t92 18.5q75 0 118 -37.5t43 -102.5v-385h-81v352q0 54 -33 79q-31 23 -73 23q-63 0 -101.5 -47t-38.5 -125v-282h-81v716z" />
<glyph unicode="i" horiz-adv-x="218" d="M146 514v-514h-81v514h81zM107 715q21 0 35.5 -14.5t14.5 -34.5q0 -21 -14.5 -35.5t-35.5 -14.5q-20 0 -34.5 14.5t-14.5 35.5q0 20 14.5 34.5t34.5 14.5z" />
<glyph unicode="j" horiz-adv-x="218" d="M68 514h82v-621q0 -107 -142 -107q-15 0 -26 3v69h15h4q39 0 53 14t14 53v589zM107 711q21 0 35 -14.5t14 -34.5t-14 -34.5t-35 -14.5q-20 0 -34.5 14.5t-14.5 34.5t14.5 34.5t34.5 14.5z" />
<glyph unicode="k" horiz-adv-x="491" d="M138 716v-420l218 218h106l-179 -177l210 -337h-101l-174 279l-80 -78v-201h-81v716h81z" />
<glyph unicode="l" horiz-adv-x="218" d="M149 716v-716h-82v716h82z" />
<glyph unicode="m" horiz-adv-x="818" d="M69 514h76v-74q60 85 158 85q95 0 138 -76q37 43 71.5 59.5t85.5 16.5q150 0 150 -141v-384h-82v352q0 102 -96 102q-50 0 -85 -39t-35 -93v-322h-82v352q0 102 -95 102q-51 0 -86.5 -38.5t-35.5 -93.5v-322h-82v514z" />
<glyph unicode="n" d="M69 514h76v-87q62 98 170 98q75 0 119 -37.5t44 -100.5v-387h-81v354q0 46 -28.5 73t-77.5 27q-64 0 -102 -47t-38 -125v-282h-82v514z" />
<glyph unicode="o" d="M270 525q116 0 177 -81q54 -70 54 -190q0 -134 -70 -204q-60 -61 -162 -61q-118 0 -180 79q-54 69 -54 186q0 136 71 209q61 62 164 62zM270 450q-70 0 -110 -52.5t-40 -143.5q0 -95 45 -145q39 -44 104 -44q69 0 107.5 50t38.5 139q0 98 -44 150q-38 46 -101 46z" />
<glyph unicode="p" d="M53 -214v728h76v-79q57 90 164 90q109 0 168 -84q52 -73 52 -192q0 -127 -68 -198q-59 -62 -153 -62q-95 0 -157 69v-272h-82zM279 449q-65 0 -104.5 -53t-39.5 -142q0 -92 45 -144q38 -44 99 -44q68 0 108.5 51.5t40.5 136.5q0 94 -46 148q-41 47 -103 47z" />
<glyph unicode="q" d="M487 -214h-82v281q-55 -78 -158 -78q-110 0 -170 78q-51 69 -51 181q0 135 69 212q60 66 155 66q105 0 164 -83v71h73v-728zM261 449q-67 0 -108.5 -53.5t-41.5 -141.5q0 -91 47 -143q40 -45 104 -45q65 0 104 51t39 137q0 95 -44 149q-39 46 -100 46z" />
<glyph unicode="r" horiz-adv-x="327" d="M68 514h76v-94q45 106 142 106q12 0 29 -3v-84q-80 -1 -110 -23q-55 -40 -55 -149v-267h-82v514z" />
<glyph unicode="s" horiz-adv-x="491" d="M434 373h-90q-4 77 -103 77q-51 0 -80.5 -19.5t-29.5 -52.5q0 -50 95 -72l79 -18q77 -18 111 -51t34 -90q0 -73 -57 -115.5t-154 -42.5q-106 0 -161 50q-46 41 -49 109h93q8 -35 22 -51q27 -32 101 -32q55 0 87.5 20.5t32.5 54.5q0 51 -79 70l-77 18q-88 21 -123 50 q-40 33 -40 95q0 70 53.5 111t143.5 41q94 0 146 -47q45 -41 45 -105z" />
<glyph unicode="t" horiz-adv-x="297" d="M270 514v-66h-105v-342q0 -18 12.5 -30.5t32.5 -12.5q19 0 58 9l9 -72q-62 -11 -94 -11q-99 0 -99 81v378h-70v66h70v105l81 37v-142h105z" />
<glyph unicode="u" d="M473 0h-81v81q-55 -92 -164 -92q-75 0 -119.5 37.5t-44.5 100.5v387h81v-354q0 -45 29 -72t78 -27q64 0 102 46.5t38 125.5v281h81v-514z" />
<glyph unicode="v" horiz-adv-x="491" d="M280 0h-89l-181 514h93l136 -416l146 416h92z" />
<glyph unicode="w" horiz-adv-x="709" d="M544 0h-93l-105 404l-99 -404h-92l-149 514h90l106 -400l98 400h100l101 -400l102 400h92z" />
<glyph unicode="x" horiz-adv-x="491" d="M287 266l178 -266h-95l-129 198l-131 -198h-93l182 262l-173 252h94l124 -186l124 186h92z" />
<glyph unicode="y" horiz-adv-x="491" d="M382 514h88l-229 -622q-40 -106 -133 -106q-44 0 -77 20l16 71q25 -10 49 -10q48 0 67 50l31 82l-174 515h88l131 -400z" />
<glyph unicode="z" horiz-adv-x="491" d="M435 514v-73l-306 -369h319v-72h-418v74l307 368h-286v72h384z" />
<glyph unicode="{" horiz-adv-x="382" d="M313 719l22 -29v-24q-16 0 -46 -3q-43 -4 -58 -14q-22 -16 -22 -52v-184q0 -86 -107 -102v-6q107 -16 107 -102v-183q0 -37 22 -52q16 -11 58 -15q23 -2 46 -3v-24l-22 -29q-17 0 -29 1q-74 6 -110 29q-40 27 -40 98v159q0 83 -118 83v82q118 0 118 77v5v160q0 70 40 98 q34 22 110 29q12 1 29 1z" />
<glyph unicode="|" horiz-adv-x="200" d="M69 688h62v-660h-62v660z" />
<glyph unicode="}" horiz-adv-x="382" d="M46 690l23 29q17 0 28 -1q77 -7 110 -29q41 -28 41 -98v-160q-1 -3 -1 -5q0 -77 118 -77v-82q-117 0 -117 -83v-159q0 -71 -41 -98q-35 -23 -110 -29q-11 -1 -28 -1l-23 29v24q24 1 46 3q42 4 58 15q22 15 22 52v183q0 86 108 102v6q-108 16 -108 102v184q0 36 -22 52 q-15 10 -58 14q-30 3 -46 3v24z" />
<glyph unicode="~" horiz-adv-x="491" d="M405 404h52v-19q0 -55 -28 -88.5t-75 -33.5q-39 0 -80 26l-95 61q-22 14 -43 14q-29 0 -44 -34q-5 -13 -8 -42h-52q8 142 106 142q27 0 53 -15l115 -68q28 -17 49 -17q50 0 50 62v12z" />
<glyph unicode="&#xa1;" horiz-adv-x="327" d="M119 -201v331l21 219h39l21 -219v-331h-81zM155 520q21 0 35.5 -14.5t14.5 -35.5q0 -20 -14.5 -34.5t-35.5 -14.5q-20 0 -34.5 14.5t-14.5 34.5q0 21 14.5 35.5t34.5 14.5z" />
<glyph unicode="&#xa2;" horiz-adv-x="550" d="M328 683v-76q34 -1 68 -10q29 -7 49 -17l-25 -71q-27 11 -50 17q-30 8 -52 8q-64 0 -97 -36q-42 -45 -42 -155q0 -108 42 -152q33 -34 93 -34q33 0 70 8q43 9 74 21v-37l-35 -44q-37 -17 -95 -22v-92h-63v95q-83 12 -127 71q-46 63 -46 185q0 124 47 190q42 59 126 71v80 h63z" />
<glyph unicode="&#xa3;" horiz-adv-x="645" d="M184 512q0 78 52 125q49 45 131 45q70 0 129 -32v-71q-63 33 -125 33q-47 0 -74 -26q-29 -29 -29 -87v-136h173v-63h-173v-97q0 -67 -24 -110q53 6 102 6q115 0 207 -35v-28l-30 -36q-103 30 -200 30q-98 0 -231 -30v70q42 10 66 40q26 34 26 92v98h-91v63h91v149z" />
<glyph unicode="&#xa4;" horiz-adv-x="516" d="M114 431l-59 59l45 45l59 -59q46 31 99 31t98 -31l59 59l46 -44l-60 -59q31 -47 31 -99q0 -56 -31 -99l58 -59l-44 -44l-59 59q-46 -31 -98 -31q-56 0 -99 32l-59 -59l-44 44l58 59q-30 44 -30 98q0 51 30 98zM148 333q0 -47 32 -78q32 -33 78 -33q47 0 79 33 q33 32 33 78q0 47 -33 79q-32 33 -79 33q-46 0 -78 -33q-32 -32 -32 -79z" />
<glyph unicode="&#xa5;" horiz-adv-x="521" d="M493 673l-163 -354h110v-63h-139v-72h139v-63h-139v-87l-41 -34h-41v121h-138v63h138v72h-138v63h108l-161 354h88l144 -340l145 340h88z" />
<glyph unicode="&#xa6;" horiz-adv-x="200" d="M69 412v276h62v-276h-62zM131 304v-276h-62v276h62z" />
<glyph unicode="&#xa7;" d="M456 514h-82q-1 63 -16 86q-27 40 -79 40q-38 0 -63 -23.5t-25 -59.5q0 -39 56 -76l143 -92q59 -38 83 -74.5t24 -89.5q0 -113 -106 -153q51 -60 51 -117q0 -76 -59 -123q-51 -41 -124 -41q-62 0 -107.5 29.5t-64.5 81.5q-11 31 -11 85h84v-3q0 -117 100 -117 q42 0 68 23.5t26 60.5q0 49 -54 86l-167 116q-90 62 -90 154t103 147q-43 48 -43 99q0 74 59 121q51 42 122 42q82 0 130 -55q42 -47 42 -119v-28zM348 104q71 38 71 101q0 60 -71 109l-158 107q-69 -45 -69 -99q0 -30 12.5 -49.5t51.5 -47.5z" />
<glyph unicode="&#xa8;" horiz-adv-x="491" d="M155 715q21 0 35.5 -14.5t14.5 -34.5q0 -21 -14.5 -35.5t-35.5 -14.5q-20 0 -34.5 14.5t-14.5 35.5q0 20 14.5 34.5t34.5 14.5zM326 715q21 0 35.5 -14.5t14.5 -34.5q0 -21 -14.5 -35.5t-35.5 -14.5q-20 0 -34.5 14.5t-14.5 35.5q0 20 14.5 34.5t34.5 14.5z" />
<glyph unicode="&#xa9;" horiz-adv-x="784" d="M392 683q93 0 175 -47q78 -46 124 -125q47 -82 47 -175q0 -92 -47 -174q-45 -78 -124 -124q-81 -47 -175 -47t-174 47q-80 46 -125 124q-47 81 -47 174q0 94 47 175q46 79 125 125q81 47 174 47zM392 632q-122 0 -209 -86q-87 -87 -87 -210q0 -122 87 -208 q86 -87 209 -87t210 87q86 86 86 208q0 123 -86 210q-88 86 -210 86zM471 133q-20 -8 -64 -8q-91 0 -140 59q-47 56 -47 153q0 95 50 151q51 59 140 59q59 0 117 -29l-29 -58q-48 25 -88 25q-55 0 -86 -39q-30 -39 -30 -110q0 -72 28 -110t88 -38q20 0 49 6q23 5 50 15v-29z " />
<glyph unicode="&#xaa;" horiz-adv-x="401" d="M348 348v-50h-273v50h273zM365 436v-43q-22 -8 -34 -8q-51 0 -56 48q-35 -49 -112 -49q-49 0 -78.5 26t-29.5 70q0 46 33 71q24 18 77 27l108 24v28q0 49 -74 49q-71 0 -76 -57h-53q2 44 21 67q34 39 111 39q124 0 124 -90v-184q0 -25 21 -25q2 0 13 5q4 1 5 2zM273 560 l-84 -22q-80 -14 -80 -58q0 -50 66 -50q46 0 78 30q20 19 20 42v58z" />
<glyph unicode="&#xab;" horiz-adv-x="426" d="M202 475l27 -23l-120 -185l121 -186l-28 -23h-26l-139 204v8l139 205h26zM361 475l28 -23l-121 -185l121 -186l-27 -23h-27l-139 204v8l139 205h26z" />
<glyph unicode="&#xac;" horiz-adv-x="573" d="M39 285h495v-283h-69v215h-426v68z" />
<glyph unicode="&#xad;" horiz-adv-x="327" d="M278 306v-70h-233v70h233z" />
<glyph unicode="&#xae;" horiz-adv-x="784" d="M392 683q93 0 175 -47q78 -46 124 -125q47 -82 47 -175q0 -92 -47 -174q-45 -78 -124 -124q-81 -47 -175 -47t-174 47q-80 46 -125 124q-47 81 -47 174q0 94 47 175q46 79 125 125q81 47 174 47zM392 632q-122 0 -209 -86q-87 -87 -87 -210q0 -122 87 -208 q86 -87 209 -87t210 87q86 86 86 208q0 123 -86 210q-88 86 -210 86zM242 539h152q65 0 103.5 -37.5t38.5 -100.5q0 -70 -64 -102l75 -141l-32 -25h-37l-75 147h-87v-147h-74v406zM388 473h-72v-126h77q32 0 52 18q18 18 18 47q0 23 -11 38q-16 23 -64 23z" />
<glyph unicode="&#xaf;" horiz-adv-x="479" d="M479 824v-63h-479v63h479z" />
<glyph unicode="&#xb0;" horiz-adv-x="373" d="M41 537q0 60 43 103q42 43 102 43t103 -43q42 -43 42 -103q0 -59 -42 -102q-43 -42 -103 -42q-61 0 -102 42q-43 43 -43 102zM98 537q0 -39 25 -67q26 -28 63 -28q36 0 63 28q26 28 26 67q0 40 -26 69q-27 28 -63 28t-63 -28q-25 -29 -25 -69z" />
<glyph unicode="&#xb1;" horiz-adv-x="573" d="M524 419v-68h-203v-204h-69v204h-203v68h203v203h69v-203h203zM524 68v-68h-475v68h475z" />
<glyph unicode="&#xb2;" horiz-adv-x="345" d="M317 336v-57h-298q4 72 28.5 109t95.5 74l58 31q58 31 58 78q0 31 -24 52t-60 21q-51 0 -73 -38q-10 -18 -13 -59h-61q5 149 149 149q63 0 103.5 -34.5t40.5 -88.5q0 -80 -95 -128l-62 -31q-54 -28 -72 -78h225z" />
<glyph unicode="&#xb3;" horiz-adv-x="345" d="M133 473v49q63 1 85.5 13t22.5 46q0 65 -74 65q-52 0 -71 -34q-9 -17 -9 -53h-61q2 139 140 139q63 0 100 -31t37 -85q0 -57 -55 -82q69 -23 69 -97q0 -58 -41.5 -93.5t-110.5 -35.5q-143 0 -149 139h61q4 -88 90 -88q41 0 64.5 21t23.5 57q0 47 -44 64q-15 6 -78 6z" />
<glyph unicode="&#xb4;" horiz-adv-x="491" d="M267 727h110l-146 -146h-59z" />
<glyph unicode="&#xb5;" horiz-adv-x="570" d="M469 514h81l-109 -514h-74l18 82q-87 -94 -186 -94q-51 0 -82 25l-49 -227h-81l155 728h81l-75 -353q-3 -15 -3 -28q0 -33 24 -53t63 -20q64 0 112 47.5t65 126.5z" />
<glyph unicode="&#xb6;" horiz-adv-x="527" d="M513 716v-63h-57v-827h-62v827h-81v-827h-63v428q-75 4 -123 44q-80 66 -80 182q0 107 71 176q62 60 149 60h246z" />
<glyph unicode="&#xb7;" horiz-adv-x="273" d="M207 419v-123h-122v123h122z" />
<glyph unicode="&#xb8;" horiz-adv-x="491" d="M243 0h38l-22 -55q15 2 26 2q79 0 79 -65q0 -43 -32.5 -67.5t-88.5 -24.5q-47 0 -123 33l21 40l2 -1q5 -3 6 -3q56 -29 88 -29q23 0 38 12.5t15 31.5q0 37 -45 37q-15 0 -31 -8l-11 7z" />
<glyph unicode="&#xb9;" horiz-adv-x="345" d="M157 570h-97v44l15 2q54 5 70.5 18.5t30.5 61.5h42v-417h-61v291z" />
<glyph unicode="&#xba;" horiz-adv-x="358" d="M308 348v-50h-258v50h258zM179 727q66 0 102.5 -44t36.5 -125q0 -80 -36.5 -124t-102.5 -44q-67 0 -103.5 44t-36.5 124q0 81 36.5 125t103.5 44zM178 676q-38 0 -60 -31.5t-22 -86.5t22 -86t61 -31q38 0 60 31t22 86t-22 86.5t-61 31.5z" />
<glyph unicode="&#xbb;" horiz-adv-x="439" d="M65 475h26l139 -205v-8l-139 -204h-26l-28 23l121 186l-121 185zM238 475h26l138 -205v-8l-138 -204h-27l-27 23l121 186l-121 185z" />
<glyph unicode="&#xbc;" horiz-adv-x="674" d="M196 673v-383l-34 -27h-33v330l-78 -58l-35 44l120 94h60zM556 673l-396 -673h-73l397 673h72zM610 410v-263h48v-58h-48v-67l-29 -22h-37v89h-189l-1 52l195 269h61zM544 326l-128 -179h128v179z" />
<glyph unicode="&#xbd;" horiz-adv-x="723" d="M196 673v-383l-34 -27h-33v330l-78 -58l-35 44l120 94h60zM574 673l-396 -673h-72l396 673h72zM461 372q61 41 118 41q54 0 84 -30t30 -82q0 -38 -26 -79t-94 -110l-22 -22l-30 -32h179v-32l-23 -26h-241v56l45 43q60 54 99 99q30 35 39 54q10 20 10 42q0 62 -58 62 q-39 0 -76 -28z" />
<glyph unicode="&#xbe;" horiz-adv-x="727" d="M42 667q43 17 83 17q53 0 86 -30t33 -78q0 -36 -23 -63.5t-56 -30.5q48 -4 76 -41q22 -28 22 -63q0 -112 -148 -112q-46 0 -77 11l-22 27v23q46 -14 87 -14t66.5 17.5t25.5 46.5q0 37 -35 61q-38 26 -94 26v39h43q30 0 47 15q25 23 25 56q0 60 -70 60q-31 0 -69 -10v43z M618 673l-397 -673h-72l396 673h73zM662 410v-263h49v-58h-49v-67l-29 -22h-36v89h-190v52l195 269h60zM597 326l-128 -179h128v179z" />
<glyph unicode="&#xbf;" horiz-adv-x="600" d="M270 319h88v-53q0 -68 -64 -126l-39 -34q-74 -67 -74 -130q0 -51 35 -81.5t92 -30.5q80 0 110 57q17 32 17 96h83q-1 -90 -32 -142q-52 -88 -183 -88q-103 0 -160 58q-50 50 -50 131q0 49 21.5 87.5t77.5 88.5q51 46 64.5 67t13.5 54v46zM306 510q20 0 34.5 -14.5 t14.5 -35.5q0 -20 -14.5 -34.5t-34.5 -14.5q-21 0 -35 14.5t-14 34.5q0 21 14 35.5t35 14.5z" />
<glyph unicode="&#xc0;" horiz-adv-x="655" d="M466 215h-276l-76 -215h-97l255 716h118l251 -716h-101zM440 292l-110 325l-117 -325h227zM298 922l95 -145h-59l-147 145h111z" />
<glyph unicode="&#xc1;" horiz-adv-x="655" d="M466 215h-276l-76 -215h-97l255 716h118l251 -716h-101zM440 292l-110 325l-117 -325h227zM396 922h111l-147 -145h-59z" />
<glyph unicode="&#xc2;" horiz-adv-x="655" d="M466 215h-276l-76 -215h-97l255 716h118l251 -716h-101zM440 292l-110 325l-117 -325h227zM283 923h92l95 -147h-62l-79 94l-78 -94h-63z" />
<glyph unicode="&#xc3;" horiz-adv-x="655" d="M466 215h-276l-76 -215h-97l255 716h118l251 -716h-101zM440 292l-110 325l-117 -325h227zM427 900h56q-14 -102 -87 -102q-21 0 -64 17q-52 20 -68 20q-22 0 -32 -36h-57q17 101 84 101q23 0 46 -9l41 -16q27 -11 45 -11q24 0 36 36z" />
<glyph unicode="&#xc4;" horiz-adv-x="655" d="M466 215h-276l-76 -215h-97l255 716h118l251 -716h-101zM440 292l-110 325l-117 -325h227zM248 892q21 0 35 -14.5t14 -34.5t-14 -34.5t-35 -14.5q-20 0 -34.5 14.5t-14.5 34.5t14.5 34.5t34.5 14.5zM411 892q20 0 34.5 -14.5t14.5 -34.5t-14.5 -34.5t-34.5 -14.5 q-21 0 -35.5 14.5t-14.5 34.5t14.5 34.5t35.5 14.5z" />
<glyph unicode="&#xc5;" horiz-adv-x="655" d="M466 215h-276l-76 -215h-97l255 716h118l251 -716h-101zM440 292l-110 325l-117 -325h227zM329 936q36 0 61 -25t25 -61t-25 -61t-61 -25t-61 25.5t-25 60.5q0 36 25 61t61 25zM329 893q-18 0 -31 -12.5t-13 -30.5t13 -30.5t31 -12.5t31 12.5t13 30.5t-12.5 30.5 t-31.5 12.5z" />
<glyph unicode="&#xc6;" horiz-adv-x="982" d="M460 210h-265l-83 -210h-101l294 716h610v-81h-364v-228h345v-81h-345v-245h382v-81h-473v210zM460 290v345h-98l-136 -345h234z" />
<glyph unicode="&#xc7;" horiz-adv-x="709" d="M378 -11l-18 -44q16 2 27 2q78 0 78 -65q0 -43 -32.5 -67.5t-88.5 -24.5q-48 0 -123 33l21 40q5 -3 8 -5q56 -28 88 -28q23 0 38 12.5t15 31.5q0 37 -45 37q-15 0 -31 -8l-11 7l36 80q-91 7 -151 49q-67 47 -104.5 130t-37.5 186q0 176 100 284q81 88 227 88 q233 0 276 -230h-94q-15 72 -52 105q-48 44 -140 44q-112 0 -173 -88q-53 -77 -53 -202q0 -141 71 -219q63 -67 162 -67q121 0 167 89q21 41 33 109h94q-33 -274 -287 -279z" />
<glyph unicode="&#xc8;" horiz-adv-x="655" d="M179 326v-245h422v-81h-513v716h496v-81h-405v-228h390v-81h-390zM313 922l95 -145h-59l-146 145h110z" />
<glyph unicode="&#xc9;" horiz-adv-x="655" d="M179 326v-245h422v-81h-513v716h496v-81h-405v-228h390v-81h-390zM360 922h110l-146 -145h-59z" />
<glyph unicode="&#xca;" horiz-adv-x="655" d="M179 326v-245h422v-81h-513v716h496v-81h-405v-228h390v-81h-390zM292 923h92l95 -147h-62l-79 94l-78 -94h-63z" />
<glyph unicode="&#xcb;" horiz-adv-x="655" d="M179 326v-245h422v-81h-513v716h496v-81h-405v-228h390v-81h-390zM260 892q21 0 35.5 -14.5t14.5 -34.5t-14.5 -34.5t-35.5 -14.5q-20 0 -34.5 14.5t-14.5 34.5t14.5 34.5t34.5 14.5zM423 892q20 0 34.5 -14.5t14.5 -34.5t-14.5 -34.5t-34.5 -14.5t-34.5 14.5t-14.5 34.5 t14.5 34.5t34.5 14.5z" />
<glyph unicode="&#xcc;" horiz-adv-x="273" d="M189 716v-716h-91v716h91zM112 922l94 -145h-59l-146 145h111z" />
<glyph unicode="&#xcd;" horiz-adv-x="273" d="M189 716v-716h-91v716h91zM196 922h111l-146 -145h-59z" />
<glyph unicode="&#xce;" horiz-adv-x="273" d="M189 716v-716h-91v716h91zM93 923h93l95 -147h-62l-79 94l-78 -94h-63z" />
<glyph unicode="&#xcf;" horiz-adv-x="273" d="M189 716v-716h-91v716h91zM59 892q21 0 35.5 -14.5t14.5 -34.5t-14.5 -34.5t-35.5 -14.5q-20 0 -34.5 14.5t-14.5 34.5t14.5 34.5t34.5 14.5zM222 892q20 0 34.5 -14.5t14.5 -34.5t-14.5 -34.5t-34.5 -14.5q-21 0 -35 14.5t-14 34.5t14 34.5t35 14.5z" />
<glyph unicode="&#xd0;" horiz-adv-x="709" d="M88 333h-68v65h68v318h276q145 0 223 -108q68 -95 68 -250q0 -178 -88 -274q-77 -84 -203 -84h-276v333zM179 333v-252h169q106 0 161 72q55 70 55 205t-55 205q-55 72 -161 72h-169v-237h167v-65h-167z" />
<glyph unicode="&#xd1;" horiz-adv-x="709" d="M634 716v-716h-103l-370 581v-581h-86v716h99l374 -585v585h86zM459 900h57q-15 -102 -88 -102q-17 0 -57 14l-47 17q-15 6 -28 6q-22 0 -32 -36h-57q17 101 84 101q23 0 46 -9l41 -16q27 -11 45 -11q25 0 36 36z" />
<glyph unicode="&#xd2;" horiz-adv-x="764" d="M351 922l95 -145h-59l-146 145h110zM383 727q166 0 262 -115q83 -100 83 -254q0 -177 -107 -280q-94 -89 -238 -89q-167 0 -263 115q-83 100 -83 254q0 177 108 280q93 89 238 89zM382 646q-122 0 -193 -89q-61 -78 -61 -199q0 -139 79 -219q69 -69 175 -69q123 0 194 89 q61 78 61 199q0 139 -79 219q-69 69 -176 69z" />
<glyph unicode="&#xd3;" horiz-adv-x="764" d="M411 922h110l-146 -145h-59zM383 727q166 0 262 -115q83 -100 83 -254q0 -177 -107 -280q-94 -89 -238 -89q-167 0 -263 115q-83 100 -83 254q0 177 108 280q93 89 238 89zM382 646q-122 0 -193 -89q-61 -78 -61 -199q0 -139 79 -219q69 -69 175 -69q123 0 194 89 q61 78 61 199q0 139 -79 219q-69 69 -176 69z" />
<glyph unicode="&#xd4;" horiz-adv-x="764" d="M336 923h93l95 -147h-63l-79 94l-77 -94h-63zM383 727q166 0 262 -115q83 -100 83 -254q0 -177 -107 -280q-94 -89 -238 -89q-167 0 -263 115q-83 100 -83 254q0 177 108 280q93 89 238 89zM382 646q-122 0 -193 -89q-61 -78 -61 -199q0 -139 79 -219q69 -69 175 -69 q123 0 194 89q61 78 61 199q0 139 -79 219q-69 69 -176 69z" />
<glyph unicode="&#xd5;" horiz-adv-x="764" d="M483 900h57q-14 -102 -87 -102q-20 0 -84 24q-33 13 -48 13q-23 0 -33 -36h-56q17 101 83 101q23 0 46 -9l41 -16q28 -11 46 -11q24 0 35 36zM383 727q166 0 262 -115q83 -100 83 -254q0 -177 -107 -280q-94 -89 -238 -89q-167 0 -263 115q-83 100 -83 254q0 177 108 280 q93 89 238 89zM382 646q-122 0 -193 -89q-61 -78 -61 -199q0 -139 79 -219q69 -69 175 -69q123 0 194 89q61 78 61 199q0 139 -79 219q-69 69 -176 69z" />
<glyph unicode="&#xd6;" horiz-adv-x="764" d="M383 727q166 0 262 -115q83 -100 83 -254q0 -177 -107 -280q-94 -89 -238 -89q-167 0 -263 115q-83 100 -83 254q0 177 108 280q93 89 238 89zM382 646q-122 0 -193 -89q-61 -78 -61 -199q0 -139 79 -219q69 -69 175 -69q123 0 194 89q61 78 61 199q0 139 -79 219 q-69 69 -176 69zM301 894q20 0 34.5 -14.5t14.5 -34.5q0 -21 -14.5 -35t-34.5 -14t-34.5 14t-14.5 35q0 20 14.5 34.5t34.5 14.5zM464 894q20 0 34.5 -14.5t14.5 -34.5q0 -21 -14.5 -35t-34.5 -14q-21 0 -35.5 14t-14.5 35q0 20 14.5 34.5t35.5 14.5z" />
<glyph unicode="&#xd7;" horiz-adv-x="426" d="M350 408l44 -44l-137 -138l129 -129l-44 -44l-129 129l-129 -129l-44 44l129 129l-137 138l44 44l137 -137z" />
<glyph unicode="&#xd8;" horiz-adv-x="764" d="M645 612q84 -102 84 -255q0 -176 -108 -279q-94 -89 -238 -89q-142 0 -233 84l-78 -85l-38 35l81 89q-77 99 -77 247q0 177 108 279q93 89 238 89q132 0 224 -77l80 87l39 -35zM585 547l-376 -410q69 -67 174 -67q123 0 193 89q62 78 62 199q0 109 -53 189zM176 178 l374 408q-67 60 -167 60q-123 0 -193 -89q-61 -78 -61 -199q0 -103 47 -180z" />
<glyph unicode="&#xd9;" horiz-adv-x="709" d="M327 922l94 -145h-59l-146 145h111zM542 716h91v-491q0 -116 -85 -180q-73 -56 -191 -56q-136 0 -210 71q-64 63 -64 165v491h91v-491q0 -74 48 -114.5t135 -40.5q92 0 142 46q43 41 43 109v491z" />
<glyph unicode="&#xda;" horiz-adv-x="709" d="M379 922h111l-146 -145h-59zM542 716h91v-491q0 -116 -85 -180q-73 -56 -191 -56q-136 0 -210 71q-64 63 -64 165v491h91v-491q0 -74 48 -114.5t135 -40.5q92 0 142 46q43 41 43 109v491z" />
<glyph unicode="&#xdb;" horiz-adv-x="709" d="M311 923h93l95 -147h-62l-79 94l-78 -94h-63zM542 716h91v-491q0 -116 -85 -180q-73 -56 -191 -56q-136 0 -210 71q-64 63 -64 165v491h91v-491q0 -74 48 -114.5t135 -40.5q92 0 142 46q43 41 43 109v491z" />
<glyph unicode="&#xdc;" horiz-adv-x="709" d="M542 716h91v-491q0 -116 -85 -180q-73 -56 -191 -56q-136 0 -210 71q-64 63 -64 165v491h91v-491q0 -74 48 -114.5t135 -40.5q92 0 142 46q43 41 43 109v491zM277 892q20 0 34.5 -14.5t14.5 -34.5t-14.5 -34.5t-34.5 -14.5t-34.5 14.5t-14.5 34.5t14.5 34.5t34.5 14.5z M440 892q20 0 34.5 -14.5t14.5 -34.5t-14.5 -34.5t-34.5 -14.5q-21 0 -35.5 14.5t-14.5 34.5t14.5 34.5t35.5 14.5z" />
<glyph unicode="&#xdd;" horiz-adv-x="654" d="M379 281v-281h-91v281l-275 435h112l210 -349l204 349h109zM383 922h110l-146 -145h-59z" />
<glyph unicode="&#xde;" horiz-adv-x="654" d="M180 185v-185h-91v716h91v-118h205q109 0 168 -63q51 -55 51 -145q0 -97 -63 -154q-55 -51 -136 -51h-225zM180 266h191q64 0 99.5 33t35.5 93q0 59 -35.5 92t-99.5 33h-191v-251z" />
<glyph unicode="&#xdf;" horiz-adv-x="600" d="M297 346v81q67 1 105 29.5t38 77.5q0 46 -32.5 75.5t-82.5 29.5q-55 0 -87.5 -30t-32.5 -80v-529h-81v529q0 88 51 133q63 54 156 54t147 -56q48 -49 48 -123q0 -100 -108 -141q138 -46 138 -176q0 -114 -68 -176q-59 -55 -154 -55q-21 0 -41 4v77h16q86 0 126 45 q36 41 36 100q0 67 -44 103q-35 28 -107 28h-23z" />
<glyph unicode="&#xe0;" d="M245 727l95 -146h-59l-146 146h110zM525 69v-66q-34 -12 -53 -12q-80 0 -87 73q-55 -75 -175 -75q-83 0 -129 46q-40 40 -40 103q0 72 51 111q29 22 121 43l168 38l1 43q0 77 -116 77q-111 0 -119 -90h-83q3 68 34 104q53 61 172 61q193 0 193 -140v-287q0 -38 33 -38 q4 0 21 6q6 2 8 3zM382 263l-132 -34q-71 -18 -97.5 -37t-26.5 -53q0 -79 102 -79q72 0 122 47q32 29 32 66v90z" />
<glyph unicode="&#xe1;" d="M325 727h111l-146 -146h-60zM525 69v-66q-34 -12 -53 -12q-80 0 -87 73q-55 -75 -175 -75q-83 0 -129 46q-40 40 -40 103q0 72 51 111q29 22 121 43l168 38l1 43q0 77 -116 77q-111 0 -119 -90h-83q3 68 34 104q53 61 172 61q193 0 193 -140v-287q0 -38 33 -38q4 0 21 6 q6 2 8 3zM382 263l-132 -34q-71 -18 -97.5 -37t-26.5 -53q0 -79 102 -79q72 0 122 47q32 29 32 66v90z" />
<glyph unicode="&#xe2;" d="M237 728h93l94 -148h-62l-79 94l-77 -94h-63zM525 69v-66q-34 -12 -53 -12q-80 0 -87 73q-55 -75 -175 -75q-83 0 -129 46q-40 40 -40 103q0 72 51 111q29 22 121 43l168 38l1 43q0 77 -116 77q-111 0 -119 -90h-83q3 68 34 104q53 61 172 61q193 0 193 -140v-287 q0 -38 33 -38q4 0 21 6q6 2 8 3zM382 263l-132 -34q-71 -18 -97.5 -37t-26.5 -53q0 -79 102 -79q72 0 122 47q32 29 32 66v90z" />
<glyph unicode="&#xe3;" d="M379 704h57q-15 -102 -86 -102q-20 0 -45 9l-55 21q-19 8 -33 8q-23 0 -33 -37h-56q17 102 84 102q22 0 45 -10l41 -16q28 -11 46 -11q24 0 35 36zM525 69v-66q-34 -12 -53 -12q-80 0 -87 73q-55 -75 -175 -75q-83 0 -129 46q-40 40 -40 103q0 72 51 111q29 22 121 43 l168 38l1 43q0 77 -116 77q-111 0 -119 -90h-83q3 68 34 104q53 61 172 61q193 0 193 -140v-287q0 -38 33 -38q4 0 21 6q6 2 8 3zM382 263l-132 -34q-71 -18 -97.5 -37t-26.5 -53q0 -79 102 -79q72 0 122 47q32 29 32 66v90z" />
<glyph unicode="&#xe4;" d="M200 700q20 0 34.5 -14.5t14.5 -34.5t-14.5 -34.5t-34.5 -14.5q-21 0 -35.5 14.5t-14.5 34.5t14.5 34.5t35.5 14.5zM362 700q21 0 35 -14.5t14 -34.5t-14 -34.5t-35 -14.5q-20 0 -34.5 14.5t-14.5 34.5t14.5 34.5t34.5 14.5zM525 69v-66q-34 -12 -53 -12q-80 0 -87 73 q-55 -75 -175 -75q-83 0 -129 46q-40 40 -40 103q0 72 51 111q29 22 121 43l168 38l1 43q0 77 -116 77q-111 0 -119 -90h-83q3 68 34 104q53 61 172 61q193 0 193 -140v-287q0 -38 33 -38q4 0 21 6q6 2 8 3zM382 263l-132 -34q-71 -18 -97.5 -37t-26.5 -53q0 -79 102 -79 q72 0 122 47q32 29 32 66v90z" />
<glyph unicode="&#xe5;" d="M287 741q36 0 61 -25t25 -61t-25 -61t-61 -25t-61 25t-25 61q0 35 25 60.5t61 25.5zM287 698q-18 0 -31 -12.5t-13 -30.5t13 -31t31 -13t31 13t13 30q0 19 -12.5 31.5t-31.5 12.5zM525 69v-66q-34 -12 -53 -12q-80 0 -87 73q-55 -75 -175 -75q-83 0 -129 46 q-40 40 -40 103q0 72 51 111q29 22 121 43l168 38l1 43q0 77 -116 77q-111 0 -119 -90h-83q3 68 34 104q53 61 172 61q193 0 193 -140v-287q0 -38 33 -38q4 0 21 6q6 2 8 3zM382 263l-132 -34q-71 -18 -97.5 -37t-26.5 -53q0 -79 102 -79q72 0 122 47q32 29 32 66v90z" />
<glyph unicode="&#xe6;" horiz-adv-x="881" d="M239 295l147 19l-4 59q-4 77 -116 77q-111 0 -119 -90h-83q3 68 34 104q53 61 171 61q128 0 169 -73q66 73 172 73q72 0 127.5 -34.5t80.5 -96.5q21 -51 21 -158v-3h-379q1 -66 27 -105q43 -63 124 -63q100 0 135 95h82q-15 -81 -73.5 -126t-147.5 -45q-128 0 -191 98 q-86 -98 -205 -98q-83 0 -130 46q-40 39 -40 103q0 72 51 110q44 34 147 47zM382 247l-132 -20q-124 -19 -124 -89q0 -78 102 -78q72 0 122 47q32 29 32 66v74zM751 300q-1 68 -40 109t-102 41t-102.5 -40.5t-44.5 -109.5h289z" />
<glyph unicode="&#xe7;" horiz-adv-x="491" d="M264 -11l-18 -43q16 1 27 1q78 0 78 -65q0 -43 -32 -67.5t-89 -24.5q-47 0 -122 33l20 40q65 -33 96 -33q23 0 38 13t15 32q0 36 -44 36q-15 0 -31 -7l-12 6l36 81q-98 13 -151 90q-45 67 -45 169q0 134 71 210q61 65 158 65q112 0 168 -75q29 -39 35 -108h-82 q-15 108 -122 108q-67 0 -105 -53t-38 -147q0 -93 45 -142q38 -43 102 -43q103 0 123 112h83q-8 -94 -67 -144q-53 -42 -137 -44z" />
<glyph unicode="&#xe8;" d="M263 727l95 -146h-59l-146 146h110zM503 233h-379q1 -66 28 -105q43 -63 124 -63q100 0 135 95h82q-16 -81 -74 -126t-146 -45q-117 0 -179 80q-55 70 -55 185q0 133 72 207q63 64 163 64q73 0 128.5 -35t79.5 -96q21 -52 21 -158v-3zM415 300q0 67 -39.5 108.5 t-101.5 41.5q-63 0 -102.5 -40.5t-44.5 -109.5h288z" />
<glyph unicode="&#xe9;" d="M330 727h110l-146 -146h-59zM503 233h-379q1 -66 28 -105q43 -63 124 -63q100 0 135 95h82q-16 -81 -74 -126t-146 -45q-117 0 -179 80q-55 70 -55 185q0 133 72 207q63 64 163 64q73 0 128.5 -35t79.5 -96q21 -52 21 -158v-3zM415 300q0 67 -39.5 108.5t-101.5 41.5 q-63 0 -102.5 -40.5t-44.5 -109.5h288z" />
<glyph unicode="&#xea;" d="M234 728h93l95 -148h-62l-79 94l-78 -94h-63zM503 233h-379q1 -66 28 -105q43 -63 124 -63q100 0 135 95h82q-16 -81 -74 -126t-146 -45q-117 0 -179 80q-55 70 -55 185q0 133 72 207q63 64 163 64q73 0 128.5 -35t79.5 -96q21 -52 21 -158v-3zM415 300q0 67 -39.5 108.5 t-101.5 41.5q-63 0 -102.5 -40.5t-44.5 -109.5h288z" />
<glyph unicode="&#xeb;" d="M503 233h-379q1 -66 28 -105q43 -63 124 -63q100 0 135 95h82q-16 -81 -74 -126t-146 -45q-117 0 -179 80q-55 70 -55 185q0 133 72 207q63 64 163 64q73 0 128.5 -35t79.5 -96q21 -52 21 -158v-3zM415 300q0 67 -39.5 108.5t-101.5 41.5q-63 0 -102.5 -40.5 t-44.5 -109.5h288zM200 702q20 0 34.5 -14.5t14.5 -34.5q0 -21 -14.5 -35t-34.5 -14q-21 0 -35.5 14t-14.5 35q0 20 14.5 34.5t35.5 14.5zM362 702q21 0 35 -14.5t14 -34.5q0 -21 -14 -35t-35 -14q-20 0 -34.5 14t-14.5 35q0 20 14.5 34.5t34.5 14.5z" />
<glyph unicode="&#xec;" horiz-adv-x="273" d="M174 514v-514h-82v514h82zM106 727l94 -146h-59l-146 146h111z" />
<glyph unicode="&#xed;" horiz-adv-x="273" d="M173 514v-514h-81v514h81zM197 727h111l-146 -146h-59z" />
<glyph unicode="&#xee;" horiz-adv-x="273" d="M174 514v-514h-82v514h82zM87 728h93l95 -148h-62l-79 94l-78 -94h-63z" />
<glyph unicode="&#xef;" horiz-adv-x="273" d="M174 514v-514h-82v514h82zM50 693q21 0 35.5 -14.5t14.5 -34.5q0 -21 -14.5 -35.5t-35.5 -14.5q-20 0 -34.5 14.5t-14.5 35.5q0 20 14.5 34.5t34.5 14.5zM213 693q20 0 34.5 -14.5t14.5 -34.5q0 -21 -14.5 -35.5t-34.5 -14.5q-21 0 -35 14.5t-14 35.5q0 20 14 34.5 t35 14.5z" />
<glyph unicode="&#xf0;" d="M214 602l-95 -44l-35 38l85 39q-37 26 -82 51l43 43q56 -27 110 -61l94 44l39 -37l-86 -40q93 -72 143 -147q71 -107 71 -233q0 -135 -69 -205q-61 -61 -163 -61q-118 0 -180 79q-54 69 -54 186q0 167 104 235q53 35 118 35q25 0 53 -9q-50 49 -96 87zM270 450 q-70 0 -110 -52.5t-40 -143.5q0 -95 45 -145q39 -44 104 -44q69 0 107.5 50t38.5 139q0 98 -44 150q-38 46 -101 46z" />
<glyph unicode="&#xf1;" d="M69 514h76v-87q62 98 170 98q75 0 119 -37.5t44 -100.5v-387h-81v354q0 46 -28.5 73t-77.5 27q-64 0 -102 -47t-38 -125v-282h-82v514zM372 704h56q-14 -102 -86 -102q-20 0 -45 9l-40 16q-33 13 -47 13q-23 0 -33 -37h-57q17 102 84 102q22 0 46 -10l41 -16 q27 -11 45 -11q24 0 36 36z" />
<glyph unicode="&#xf2;" d="M250 727l94 -146h-59l-146 146h111zM270 525q116 0 177 -81q54 -70 54 -190q0 -134 -70 -204q-60 -61 -162 -61q-118 0 -180 79q-54 69 -54 186q0 136 71 209q61 62 164 62zM270 450q-70 0 -110 -52.5t-40 -143.5q0 -95 45 -145q39 -44 104 -44q69 0 107.5 50t38.5 139 q0 98 -44 150q-38 46 -101 46z" />
<glyph unicode="&#xf3;" d="M325 727h110l-146 -146h-59zM270 525q116 0 177 -81q54 -70 54 -190q0 -134 -70 -204q-60 -61 -162 -61q-118 0 -180 79q-54 69 -54 186q0 136 71 209q61 62 164 62zM270 450q-70 0 -110 -52.5t-40 -143.5q0 -95 45 -145q39 -44 104 -44q69 0 107.5 50t38.5 139 q0 98 -44 150q-38 46 -101 46z" />
<glyph unicode="&#xf4;" d="M221 728h93l95 -148h-63l-79 94l-77 -94h-63zM270 525q116 0 177 -81q54 -70 54 -190q0 -134 -70 -204q-60 -61 -162 -61q-118 0 -180 79q-54 69 -54 186q0 136 71 209q61 62 164 62zM270 450q-70 0 -110 -52.5t-40 -143.5q0 -95 45 -145q39 -44 104 -44q69 0 107.5 50 t38.5 139q0 98 -44 150q-38 46 -101 46z" />
<glyph unicode="&#xf5;" d="M270 525q116 0 177 -81q54 -70 54 -190q0 -134 -70 -204q-60 -61 -162 -61q-118 0 -180 79q-54 69 -54 186q0 136 71 209q61 62 164 62zM270 450q-70 0 -110 -52.5t-40 -143.5q0 -95 45 -145q39 -44 104 -44q69 0 107.5 50t38.5 139q0 98 -44 150q-38 46 -101 46z M368 704h57q-15 -102 -86 -102q-21 0 -45 9l-41 16q-33 13 -47 13q-22 0 -33 -37h-57q17 102 84 102q22 0 46 -10l41 -16q27 -11 46 -11q23 0 35 36z" />
<glyph unicode="&#xf6;" d="M270 525q116 0 177 -81q54 -70 54 -190q0 -134 -70 -204q-60 -61 -162 -61q-118 0 -180 79q-54 69 -54 186q0 136 71 209q61 62 164 62zM270 450q-70 0 -110 -52.5t-40 -143.5q0 -95 45 -145q39 -44 104 -44q69 0 107.5 50t38.5 139q0 98 -44 150q-38 46 -101 46z M185 698q20 0 34.5 -14t14.5 -35q0 -20 -14.5 -34.5t-34.5 -14.5q-21 0 -35.5 14.5t-14.5 34.5t14.5 34.5t35.5 14.5zM347 698q21 0 35.5 -14t14.5 -35q0 -20 -14.5 -34.5t-35.5 -14.5q-20 0 -34.5 14.5t-14.5 34.5t14.5 34.5t34.5 14.5z" />
<glyph unicode="&#xf7;" horiz-adv-x="508" d="M253 432q21 0 35 -14.5t14 -34.5t-14 -34.5t-35 -14.5q-20 0 -34.5 14.5t-14.5 34.5t14.5 34.5t34.5 14.5zM466 261v-70h-425v70h425zM253 119q21 0 35 -14.5t14 -34.5q0 -21 -14 -35.5t-35 -14.5q-20 0 -34.5 14.5t-14.5 35.5q0 20 14.5 34.5t34.5 14.5z" />
<glyph unicode="&#xf8;" horiz-adv-x="600" d="M431 464l55 63l32 -27l-61 -69q44 -68 44 -177q0 -134 -69 -204q-60 -61 -162 -61q-94 0 -156 54l-62 -69l-31 27l65 73q-51 71 -51 180q0 136 71 208q62 63 164 63q99 0 161 -61zM144 140l231 261q-41 49 -105 49q-69 0 -109 -52.5t-40 -143.5q0 -69 23 -114zM397 363 l-228 -258q41 -40 101 -40q68 0 107 50t39 139q0 64 -19 109z" />
<glyph unicode="&#xf9;" d="M238 727l95 -146h-59l-146 146h110zM473 0h-73v81q-66 -92 -172 -92q-75 0 -119.5 37.5t-44.5 100.5v387h81v-354q0 -45 29 -72t78 -27q64 0 102 46.5t38 125.5v281h81v-514z" />
<glyph unicode="&#xfa;" d="M318 727h111l-146 -146h-59zM473 0h-73v81q-66 -92 -172 -92q-75 0 -119.5 37.5t-44.5 100.5v387h81v-354q0 -45 29 -72t78 -27q64 0 102 46.5t38 125.5v281h81v-514z" />
<glyph unicode="&#xfb;" d="M223 728h93l95 -148h-63l-79 94l-77 -94h-63zM473 0h-73v81q-66 -92 -172 -92q-75 0 -119.5 37.5t-44.5 100.5v387h81v-354q0 -45 29 -72t78 -27q64 0 102 46.5t38 125.5v281h81v-514z" />
<glyph unicode="&#xfc;" d="M473 0h-73v81q-66 -92 -172 -92q-75 0 -119.5 37.5t-44.5 100.5v387h81v-354q0 -45 29 -72t78 -27q64 0 102 46.5t38 125.5v281h81v-514zM187 700q21 0 35 -14.5t14 -34.5t-14 -34.5t-35 -14.5q-20 0 -34.5 14.5t-14.5 34.5t14.5 34.5t34.5 14.5zM350 700 q20 0 34.5 -14.5t14.5 -34.5t-14.5 -34.5t-34.5 -14.5q-21 0 -35.5 14.5t-14.5 34.5t14.5 34.5t35.5 14.5z" />
<glyph unicode="&#xfd;" horiz-adv-x="491" d="M303 727h110l-146 -146h-59zM382 514h88l-229 -622q-40 -106 -133 -106q-44 0 -77 20l16 71q25 -10 49 -10q48 0 67 50l31 82l-174 515h88l131 -400z" />
<glyph unicode="&#xfe;" horiz-adv-x="545" d="M134 444q56 81 159 81q109 0 168 -84q52 -73 52 -192q0 -127 -68 -198q-59 -62 -153 -62q-99 0 -158 71v-274h-81v915h81v-257zM279 449q-65 0 -104.5 -53t-39.5 -142q0 -92 45 -144q38 -44 99 -44q68 0 108.5 51.5t40.5 136.5q0 94 -46 148q-41 47 -103 47z" />
<glyph unicode="&#xff;" horiz-adv-x="491" d="M158 702q20 0 34.5 -14.5t14.5 -34.5q0 -21 -14.5 -35t-34.5 -14q-21 0 -35 14t-14 35q0 20 14 34.5t35 14.5zM320 702q21 0 35.5 -14.5t14.5 -34.5q0 -21 -14.5 -35t-35.5 -14q-20 0 -34.5 14t-14.5 35q0 20 14.5 34.5t34.5 14.5zM382 514h88l-229 -622 q-40 -106 -133 -106q-44 0 -77 20l16 71q25 -10 49 -10q48 0 67 50l31 82l-174 515h88l131 -400z" />
<glyph unicode="&#x192;" horiz-adv-x="255" d="M150 448v-555q0 -107 -142 -107q-15 0 -26 3v69h15h5q38 0 52 14t14 53v523h-68v66h68v88q0 55 32 86t89 31q22 0 46 -5v-68q-17 1 -30 1q-55 0 -55 -52v-81h85v-66h-85z" />
<glyph unicode="&#x2c9;" horiz-adv-x="491" d="M380 688v-69h-269v69h269z" />
<glyph unicode="&#x387;" horiz-adv-x="273" d="M207 419v-123h-122v123h122z" />
<glyph unicode="&#x60c;" horiz-adv-x="210" d="M107 94h1h1q20 0 33.5 -13t14.5 -34q0 -14 -7 -27q-13 -25 -42 -25q-25 0 -41 20.5t-16 52.5q0 73 65 149h20l24 -20q-22 -26 -38 -60q-10 -21 -15 -43z" />
<glyph unicode="&#x615;" horiz-adv-x="0" d="M69 792v-96q54 66 119 66q38 0 60 -23.5t22 -63.5v-33q0 -21 -12 -37q-16 -19 -44 -19h-214v41h26v165h43zM225 674q0 26 -14 38q-11 9 -28 9q-29 -1 -61 -26q-33 -27 -52 -68h136q19 0 19 18v29z" />
<glyph unicode="&#x61b;" horiz-adv-x="210" d="M107 289h1h1q20 0 33.5 -13.5t14.5 -33.5q0 -15 -7 -27q-13 -25 -42 -25q-25 0 -41 20.5t-16 51.5q0 73 65 149h20l24 -19q-22 -27 -38 -61q-10 -20 -15 -42zM109 93q20 0 34 -14t14 -35q0 -20 -14 -34.5t-35 -14.5q-20 0 -34.5 14.5t-14.5 34.5q0 21 14.5 35t35.5 14z " />
<glyph unicode="&#x61f;" horiz-adv-x="405" d="M235 184q2 31 2 54q0 62 -18.5 94t-89.5 91q-50 42 -69.5 75t-19.5 75q0 75 60 115q48 33 114 33q128 0 158 -150l-59 -20q-17 92 -92 92q-40 0 -69 -21t-29 -50t15.5 -51.5t64.5 -64.5q4 -4 8 -7q59 -52 79 -90t20 -100q0 -20 -2 -44l-39 -31h-34zM271 93q21 0 35 -14 t14 -35q0 -20 -14 -34.5t-35 -14.5q-20 0 -34.5 14.5t-14.5 34.5q0 21 14.5 35t34.5 14z" />
<glyph unicode="&#x621;" horiz-adv-x="496" d="M158 31q-27 19 -46 45q-44 62 -44 157q0 110 64 171q57 54 153 54q40 0 85 -10v-70q-43 10 -76 10q-140 0 -140 -160q0 -70 35.5 -109t99.5 -39h15q102 14 161 14h10v-30l-35 -43q-85 0 -178 -28q-96 -29 -170 -79l-37 59q34 25 103 58z" />
<glyph unicode="&#x622;" horiz-adv-x="223" d="M-27 817q36 60 84 60q26 0 67 -20q14 -6 23 -10q20 -8 36 -8q27 0 51 27l23 -17q-42 -57 -85 -57q-20 0 -45 9q-9 3 -31 15q-27 13 -43 13q-24 0 -57 -29zM154 716v-706l-43 -35h-42v741h85z" />
<glyph unicode="&#x623;" horiz-adv-x="223" d="M51 832q-21 27 -21 66t23 62.5t61 23.5q24 0 48 -8v-41q-18 5 -35 5q-52 0 -52 -53q0 -19 13 -35q16 -20 43 -20h64v-17l-20 -24h-168v41h44zM154 716v-706l-43 -35h-42v741h85z" />
<glyph unicode="&#x624;" horiz-adv-x="532" d="M237 595q-21 27 -21 65q0 39 23 63t61 24q24 0 48 -9v-41q-18 5 -35 5q-52 0 -52 -52q0 -20 13 -36q16 -19 43 -19h64v-17l-19 -24h-169v41h44zM391 10q-52 -19 -109 -19q-108 0 -171 76q-56 67 -56 171q0 105 59 168q63 66 170 66q81 0 132 -41q61 -49 61 -141v-281 q-1 -128 -84 -193q-42 -33 -101 -46q-39 -8 -81 -8q-24 0 -46 1l-33 41v32q30 -4 63 -4q195 0 196 178zM391 290q0 62 -44 93q-25 17 -63 17q-67 0 -105.5 -45t-38.5 -125q0 -76 44 -120q39 -41 104 -41q57 0 103 18v203z" />
<glyph unicode="&#x625;" horiz-adv-x="196" d="M154 716v-706l-43 -35h-42v741h85zM38 -260q-21 27 -21 66t23 62.5t61 23.5q23 0 48 -8v-41q-18 5 -35 5q-52 0 -52 -53q0 -19 13 -35q16 -20 43 -20h64v-17l-20 -24h-168v41h44z" />
<glyph unicode="&#x626;" horiz-adv-x="782" d="M113 321q-21 27 -21 66t23 62.5t61 23.5q23 0 48 -8v-41q-18 5 -35 5q-52 0 -52 -53q0 -19 13 -35q16 -20 43 -20h64v-17l-20 -24h-168v41h44zM182 11q0 -99 52.5 -138.5t183.5 -39.5q111 0 163 21q73 31 73 109q0 52 -27 77.5t-107 47.5q-101 28 -139 65q-47 44 -47 127 q0 100 61 150q51 42 139 42q57 0 119 -19v-66q-68 16 -109 16q-128 0 -128 -124q0 -48 28 -73.5t107 -49.5q100 -30 139 -69q46 -46 46 -126q0 -110 -93 -162q-68 -38 -170 -38h-111q-125 0 -196 67q-69 64 -69 181v130l43 35h42v-163z" />
<glyph unicode="&#x627;" horiz-adv-x="223" d="M154 716v-706l-43 -35h-42v741h85z" />
<glyph unicode="&#x628;" horiz-adv-x="957" d="M888 460v-365q0 -36 -22 -62q-28 -33 -68 -33h-572q-58 0 -100 38q-57 49 -57 127v188l43 35h42v-223q0 -39 28 -66q27 -28 68 -28h515q38 0 38 38v351h85zM479 -104q20 0 34.5 -14.5t14.5 -34.5q0 -21 -14.5 -35.5t-34.5 -14.5q-21 0 -35.5 14.5t-14.5 35.5 q0 20 14.5 34.5t35.5 14.5z" />
<glyph unicode="&#x629;" horiz-adv-x="531" d="M305 680q20 0 34.5 -14.5t14.5 -34.5q0 -21 -14.5 -35.5t-34.5 -14.5t-34.5 14.5t-14.5 35.5q0 20 14.5 34.5t34.5 14.5zM426 680q21 0 35.5 -14.5t14.5 -34.5q0 -21 -14.5 -35.5t-35.5 -14.5q-20 0 -34.5 14.5t-14.5 35.5q0 20 14.5 34.5t34.5 14.5zM476 487v-315 q0 -81 -46 -128q-51 -53 -154 -53q-90 0 -146 46q-75 62 -75 187q0 113 69 186q64 67 160 67q53 0 107 -24l43 34h42zM391 383q-44 22 -89 22q-79 0 -124 -62q-38 -50 -38 -120q0 -77 36 -119t100 -42q60 0 88 31q27 30 27 80v210z" />
<glyph unicode="&#x62a;" horiz-adv-x="957" d="M419 487q20 0 34.5 -14.5t14.5 -35.5q0 -20 -14.5 -34.5t-34.5 -14.5q-21 0 -35 14.5t-14 34.5q0 21 14 35.5t35 14.5zM540 487q21 0 35.5 -14.5t14.5 -35.5q0 -20 -14.5 -34.5t-35.5 -14.5q-20 0 -34.5 14.5t-14.5 34.5q0 21 14.5 35.5t34.5 14.5zM888 460v-365 q0 -36 -22 -62q-28 -33 -68 -33h-572q-58 0 -100 38q-57 49 -57 127v188l43 35h42v-223q0 -39 28 -66q27 -28 68 -28h515q38 0 38 38v351h85z" />
<glyph unicode="&#x62b;" horiz-adv-x="957" d="M479 583q20 0 33.5 -14t13.5 -33q0 -20 -14 -33.5t-33 -13.5t-33 13.5t-14 33.5q0 19 14 33t33 14zM418 487q21 0 35.5 -14.5t14.5 -35.5q0 -20 -14.5 -34.5t-35.5 -14.5q-20 0 -34.5 14.5t-14.5 34.5q0 21 14.5 35.5t34.5 14.5zM540 487q20 0 34.5 -14.5t14.5 -35.5 q0 -20 -14.5 -34.5t-34.5 -14.5t-34.5 14.5t-14.5 34.5q0 21 14.5 35.5t34.5 14.5zM888 460v-365q0 -36 -22 -62q-28 -33 -68 -33h-572q-58 0 -100 38q-57 49 -57 127v188l43 35h42v-223q0 -39 28 -66q27 -28 68 -28h515q38 0 38 38v351h85z" />
<glyph unicode="&#x62c;" horiz-adv-x="638" d="M180 443q72 29 158 29q124 0 189 -77q56 -66 56 -173v-127q0 -39 -27 -67q-26 -28 -63 -28h-194q-84 0 -127 -48q-31 -34 -32 -94q3 -164 197 -164q62 0 131 16v-28l-32 -40q-57 -19 -115 -20q-90 0 -155 36q-110 60 -111 199q2 92 49 143q66 71 207 71h149q37 0 37 38 v116q0 80 -36 123q-43 50 -135 50q-58 0 -146 -22v67zM325 -104q20 0 34.5 -14.5t14.5 -34.5q0 -21 -14.5 -35.5t-34.5 -14.5q-21 0 -35.5 14.5t-14.5 35.5q0 20 14.5 34.5t35.5 14.5z" />
<glyph unicode="&#x62d;" horiz-adv-x="652" d="M180 443q92 29 172 29q123 0 189 -77q55 -66 55 -173v-127q0 -39 -26 -67t-63 -28h-208q-84 0 -127 -48q-31 -34 -32 -94q3 -164 197 -164q62 0 131 16v-32l-35 -44q-41 -11 -108 -11q-127 0 -199 64q-70 61 -71 170q2 92 49 143q66 71 207 71h162q38 0 38 38v116 q0 78 -40 123q-46 50 -132 50q-52 0 -159 -22v67z" />
<glyph unicode="&#x62e;" horiz-adv-x="652" d="M335 680q21 0 35.5 -14.5t14.5 -34.5q0 -21 -14.5 -35.5t-35.5 -14.5q-20 0 -34.5 14.5t-14.5 35.5q0 20 14.5 34.5t34.5 14.5zM180 443q92 29 171 29q124 0 190 -77q55 -65 55 -173v-127q0 -39 -26 -67t-63 -28h-208q-84 0 -127 -48q-31 -34 -32 -94q3 -164 198 -164 q61 0 130 16v-32l-35 -44q-41 -11 -107 -11q-128 0 -200 63q-70 62 -71 171q2 92 49 143q67 71 207 71h162q38 0 38 38v116q0 78 -40 123q-46 50 -132 50q-52 0 -159 -22v67z" />
<glyph unicode="&#x62f;" horiz-adv-x="517" d="M140 466q36 6 77 6q111 0 179 -67q61 -62 61 -157v-153q0 -39 -25 -66q-26 -29 -64 -29h-329v71h296q37 0 37 38v127q0 71 -43 118q-46 48 -142 49q-28 0 -47 -4v67z" />
<glyph unicode="&#x630;" horiz-adv-x="517" d="M191 680q20 0 34.5 -14.5t14.5 -34.5q0 -21 -14.5 -35.5t-34.5 -14.5t-34.5 14.5t-14.5 35.5q0 20 14.5 34.5t34.5 14.5zM140 466q36 6 77 6q111 0 179 -67q61 -62 61 -157v-153q0 -39 -25 -66q-26 -29 -64 -29h-329v71h296q37 0 37 38v127q0 71 -43 118q-46 48 -142 49 q-28 0 -47 -4v67z" />
<glyph unicode="&#x631;" horiz-adv-x="402" d="M332 460v-451q0 -111 -63 -175q-49 -50 -132 -66q-32 -6 -70 -6q-24 0 -46 1l-33 41v32q29 -4 63 -4q196 0 196 180v448h85z" />
<glyph unicode="&#x632;" horiz-adv-x="409" d="M290 680q20 0 34.5 -14.5t14.5 -34.5q0 -21 -14.5 -35.5t-34.5 -14.5t-34.5 14.5t-14.5 35.5q0 20 14.5 34.5t34.5 14.5zM332 460v-451q0 -120 -73 -184q-54 -49 -141 -60q-24 -3 -51 -3q-24 0 -46 1l-33 41v32q29 -4 63 -4q196 0 196 180v448h85z" />
<glyph unicode="&#x633;" horiz-adv-x="1376" d="M1307 460v-365q0 -39 -26.5 -67t-63.5 -28h-193l-33 35h-2q-28 -35 -70 -35h-208q-2 -110 -70 -173q-71 -66 -195 -66h-111q-134 0 -205 75q-61 65 -61 173v209l43 35h42v-242q0 -100 52.5 -139.5t183.5 -39.5q125 0 175 34q61 41 61 145v334h85v-274h175q38 0 38 38v294 h85v-308q0 -13 -3 -24h178q38 0 38 38v351h85z" />
<glyph unicode="&#x634;" horiz-adv-x="1376" d="M968 776q19 0 33 -14t14 -33t-14 -33t-33 -14t-33 14t-14 33t14 33t33 14zM907 680q21 0 35 -14.5t14 -34.5q0 -21 -14 -35.5t-35 -14.5q-20 0 -34.5 14.5t-14.5 35.5q0 20 14.5 34.5t34.5 14.5zM1029 680q20 0 34.5 -14.5t14.5 -34.5q0 -21 -14.5 -35.5t-34.5 -14.5 q-21 0 -35 14.5t-14 35.5q0 20 14 34.5t35 14.5zM1307 460v-365q0 -39 -26.5 -67t-63.5 -28h-193l-33 35h-2q-28 -35 -70 -35h-208q-2 -110 -70 -173q-71 -66 -195 -66h-111q-134 0 -205 75q-61 65 -61 173v209l43 35h42v-242q0 -100 52.5 -139.5t183.5 -39.5q125 0 175 34 q61 41 61 145v334h85v-274h175q38 0 38 38v294h85v-308q0 -13 -3 -24h178q38 0 38 38v351h85z" />
<glyph unicode="&#x635;" horiz-adv-x="1383" d="M710 240q137 232 361 232q119 0 191 -74q66 -67 66 -170v-133q0 -39 -26 -66q-26 -29 -64 -29h-527q-3 -113 -73 -176q-71 -63 -192 -63h-111q-119 0 -190 61q-76 65 -76 187v209l43 35h42v-242q0 -100 52.5 -139.5t184.5 -39.5q124 0 175 34q60 41 60 145l-1 449h85 v-220zM1242 237q0 64 -40 107q-51 55 -145 55q-86 0 -161 -53q-116 -82 -186 -275h495q37 0 37 38v128z" />
<glyph unicode="&#x636;" horiz-adv-x="1383" d="M1011 680q21 0 35.5 -14.5t14.5 -34.5q0 -21 -14.5 -35.5t-35.5 -14.5q-20 0 -34.5 14.5t-14.5 35.5q0 20 14.5 34.5t34.5 14.5zM710 240q137 232 361 232q119 0 191 -74q66 -67 66 -170v-133q0 -39 -26 -66q-26 -29 -64 -29h-527q-3 -113 -73 -176q-71 -63 -192 -63 h-111q-119 0 -190 61q-76 65 -76 187v209l43 35h42v-242q0 -100 52.5 -139.5t184.5 -39.5q124 0 175 34q60 41 60 145l-1 449h85v-220zM1242 237q0 64 -40 107q-51 55 -145 55q-86 0 -161 -53q-116 -82 -186 -275h495q37 0 37 38v128z" />
<glyph unicode="&#x637;" horiz-adv-x="979" d="M306 716v-475q138 231 361 231q118 0 191 -74q65 -67 65 -170v-133q0 -44 -32 -73q-25 -22 -58 -22h-743l-35 43v28h167v645h84zM838 237q-1 83 -64 128q-47 34 -121 34q-94 0 -173 -62q-106 -82 -174 -266h494q38 0 38 38v128z" />
<glyph unicode="&#x638;" horiz-adv-x="979" d="M306 716v-475q138 231 361 231q118 0 191 -74q65 -67 65 -170v-133q0 -44 -32 -73q-25 -22 -58 -22h-743l-35 43v28h167v645h84zM607 680q20 0 34.5 -14.5t14.5 -34.5q0 -21 -14.5 -35.5t-34.5 -14.5t-34.5 14.5t-14.5 35.5q0 20 14.5 34.5t34.5 14.5zM838 237 q-1 83 -64 128q-47 34 -121 34q-94 0 -173 -62q-106 -82 -174 -266h494q38 0 38 38v128z" />
<glyph unicode="&#x639;" horiz-adv-x="556" d="M178 49q-90 74 -90 194q0 111 73 175q63 54 160 54q53 0 111 -17v-67q-56 15 -103 15q-71 0 -113.5 -44t-42.5 -118q0 -69 41 -120q39 -50 96 -50h204v-28l-35 -43h-180q-84 0 -127 -48q-31 -34 -32 -94q3 -164 197 -164q62 0 131 16v-28l-39 -48q-38 -11 -100 -11 q-99 0 -163 35q-110 60 -111 199q2 92 49 143q29 31 74 49z" />
<glyph unicode="&#x63a;" horiz-adv-x="556" d="M322 680q20 0 34.5 -14.5t14.5 -34.5q0 -21 -14.5 -35.5t-34.5 -14.5t-34.5 14.5t-14.5 35.5q0 20 14.5 34.5t34.5 14.5zM178 49q-90 74 -90 194q0 111 73 175q63 54 160 54q53 0 111 -17v-67q-56 15 -103 15q-71 0 -113.5 -44t-42.5 -118q0 -69 41 -120q39 -50 96 -50 h204v-28l-35 -43h-180q-84 0 -127 -48q-31 -34 -32 -94q3 -164 198 -164q61 0 130 16v-28l-39 -48q-38 -11 -100 -11q-99 0 -163 35q-110 60 -111 199q2 92 49 143q29 31 74 49z" />
<glyph unicode="&#x640;" horiz-adv-x="178" d="M181 71v-71h-185v71h185z" />
<glyph unicode="&#x641;" horiz-adv-x="989" d="M745 680q20 0 34.5 -14.5t14.5 -34.5q0 -21 -14.5 -35.5t-34.5 -14.5q-21 0 -35.5 14.5t-14.5 35.5q0 20 14.5 34.5t35.5 14.5zM579 71q-70 66 -70 170q0 118 75 180q63 51 161 51q86 0 136 -48q52 -48 53 -134v-198q0 -40 -30 -68q-26 -24 -60 -24h-618q-50 0 -91 30 q-66 49 -66 135v188l43 35h42v-223q0 -42 32 -70q26 -24 64 -24h329zM849 290q0 52 -28 81t-76 29q-72 0 -111 -42.5t-39 -119.5t51 -124q44 -43 112 -43h53q38 0 38 38v181z" />
<glyph unicode="&#x642;" horiz-adv-x="766" d="M462 680q21 0 35 -14.5t14 -34.5q0 -21 -14 -35.5t-35 -14.5q-20 0 -34.5 14.5t-14.5 35.5q0 20 14.5 34.5t34.5 14.5zM584 680q20 0 34.5 -14.5t14.5 -34.5q0 -21 -14.5 -35.5t-34.5 -14.5q-21 0 -35.5 14.5t-14.5 35.5q0 20 14.5 34.5t35.5 14.5zM626 10 q-52 -19 -112 -19q-109 0 -173 82q-52 68 -52 165q0 98 53 159q62 75 177 75q76 0 126 -37q66 -49 66 -145v-281q0 -93 -44 -153q-70 -95 -221 -95h-111q-115 0 -186 57q-80 65 -80 191v141l43 35h42v-174q0 -99 52.5 -138.5t183.5 -39.5q125 0 175 33q61 41 61 144z M626 290q0 53 -34 85q-29 25 -73 25q-65 0 -104 -42q-40 -45 -40 -128q0 -73 40 -117t107 -44q58 0 104 18v203z" />
<glyph unicode="&#x643;" horiz-adv-x="957" d="M888 716v-621q0 -40 -28 -68q-27 -27 -62 -27h-572q-65 0 -111 47q-46 49 -46 118v188l43 35h42v-223q0 -41 30 -68q28 -26 66 -26h515q17 0 28 11q10 11 10 27v607h85zM411 388q-28 41 -28 90q0 58 36.5 91t99.5 33q25 0 49 -5v-46q-21 7 -43 7q-84 0 -84 -80 q0 -40 19.5 -65t50.5 -25h112v-22l-21 -26h-270v48h79z" />
<glyph unicode="&#x644;" horiz-adv-x="780" d="M711 716v-707q0 -120 -73 -185q-71 -63 -192 -63h-111q-119 0 -190 61q-76 65 -76 187v209l43 35h42v-242q0 -100 52.5 -139.5t183.5 -39.5q125 0 176 34q60 41 60 145v705h85z" />
<glyph unicode="&#x645;" horiz-adv-x="609" d="M187 71q-54 56 -54 155q0 116 68 183q61 60 161 62q84 0 134 -42q58 -48 58 -139v-195q0 -40 -28 -68q-26 -27 -62 -27h-286q-38 0 -38 -38v-300l-43 -35h-42v350q0 38 27 66t64 28h41zM468 290q0 45 -25 76q-30 34 -83 34q-63 0 -102.5 -45.5t-39.5 -118.5 q0 -78 39 -124q35 -41 86 -41h88q37 0 37 38v181z" />
<glyph unicode="&#x646;" horiz-adv-x="780" d="M381 472q20 0 34.5 -14.5t14.5 -34.5q0 -21 -14.5 -35.5t-34.5 -14.5t-34.5 14.5t-14.5 35.5q0 20 14.5 34.5t34.5 14.5zM711 460v-451q0 -120 -73 -185q-71 -63 -192 -63h-111q-119 0 -190 61q-76 65 -76 187v209l43 35h42v-242q0 -100 52.5 -139.5t183.5 -39.5 q125 0 176 34q60 41 60 145v449h85z" />
<glyph unicode="&#x647;" horiz-adv-x="531" d="M476 487v-315q0 -81 -46 -128q-51 -53 -154 -53q-90 0 -146 46q-75 62 -75 187q0 113 69 186q64 67 160 67q53 0 107 -24l43 34h42zM391 383q-44 22 -89 22q-79 0 -124 -62q-38 -50 -38 -120q0 -77 36 -119t100 -42q60 0 88 31q27 30 27 80v210z" />
<glyph unicode="&#x648;" horiz-adv-x="532" d="M391 10q-52 -19 -109 -19q-108 0 -171 76q-56 67 -56 171q0 105 59 168q63 66 170 66q81 0 132 -41q61 -49 61 -141v-281q-1 -128 -84 -193q-42 -33 -101 -46q-39 -8 -81 -8q-24 0 -46 1l-33 41v32q30 -4 63 -4q195 0 196 178zM391 290q0 62 -44 93q-25 17 -63 17 q-67 0 -105.5 -45t-38.5 -125q0 -76 44 -120q39 -41 104 -41q57 0 103 18v203z" />
<glyph unicode="&#x649;" horiz-adv-x="754" d="M154 11q0 -99 52.5 -138.5t183.5 -39.5q112 0 163 21q74 31 74 109q0 52 -27 77t-107 48q-101 29 -140 65q-47 44 -47 126q0 101 61 151q51 42 139 42q57 0 119 -19v-66q-67 16 -108 16q-128 0 -128 -124q0 -49 28 -74t107 -49q99 -30 139 -69q45 -46 45 -126 q0 -110 -93 -162q-68 -38 -169 -38h-111q-125 0 -197 67q-69 64 -69 181v130l43 35h42v-163z" />
<glyph unicode="&#x64a;" horiz-adv-x="754" d="M154 11q0 -99 52.5 -138.5t183.5 -39.5q112 0 163 21q74 31 74 109q0 52 -27 77t-108 48q-100 29 -139 65q-47 45 -47 126q0 101 61 151q51 42 139 42q57 0 119 -19v-66q-67 16 -108 16q-128 0 -128 -124q0 -48 27.5 -73.5t106.5 -49.5q100 -30 139 -69q46 -46 46 -126 q0 -110 -93 -162q-68 -38 -169 -38h-111q-125 0 -197 67q-69 64 -69 181v130l43 35h42v-163zM329 -297q20 0 34.5 -14.5t14.5 -35.5q0 -20 -14.5 -34.5t-34.5 -14.5t-34.5 14.5t-14.5 34.5q0 21 14.5 35.5t34.5 14.5zM451 -297q20 0 34.5 -14.5t14.5 -35.5 q0 -20 -14.5 -34.5t-34.5 -14.5q-21 0 -35.5 14.5t-14.5 34.5q0 21 14.5 35.5t35.5 14.5z" />
<glyph unicode="&#x64b;" horiz-adv-x="0" d="M216 693l-199 -55l-17 22v17l216 60v-44zM216 601l-199 -55l-17 22v17l216 59v-43z" />
<glyph unicode="&#x64c;" horiz-adv-x="0" d="M219 584q-35 27 -35 66q0 33 22.5 55.5t56.5 22.5q32 0 53.5 -22t21.5 -56q0 -45 -41.5 -78.5t-96.5 -33.5q-66 0 -108 46l-49 -44h-26l-17 15l101 89q32 -63 95 -63q12 0 23 3zM262 602q32 17 32 48q0 40 -32 40q-34 0 -34 -40q0 -37 34 -48z" />
<glyph unicode="&#x64d;" horiz-adv-x="0" d="M216 -134l-199 -55l-17 22v17l216 59v-43zM216 -226l-199 -55l-17 22v17l216 59v-43z" />
<glyph unicode="&#x64e;" horiz-adv-x="0" d="M216 622l-199 -55l-17 22v17l216 60v-44z" />
<glyph unicode="&#x64f;" horiz-adv-x="0" d="M98 591q-31 24 -31 64q0 32 23 54.5t56 22.5q32 0 53.5 -22t21.5 -56q0 -69 -81 -95l-123 -34l-17 22v17zM145 606q32 16 32 48q0 39 -32 39q-34 0 -34 -39q0 -38 34 -48z" />
<glyph unicode="&#x650;" horiz-adv-x="0" d="M216 -160l-199 -55l-17 22v17l216 60v-44z" />
<glyph unicode="&#x651;" horiz-adv-x="0" d="M244 709v-110q0 -19 -12 -32q-13 -15 -35 -15h-47l-13 14h-1q-3 -4 -8 -8q-9 -6 -20 -6h-61q-21 0 -34 14q-13 13 -13 33v68l22 18h21v-83q0 -6 3 -9q5 -6 12 -6h28q7 0 11 5q3 4 3 10v83h44v-98h43q7 0 10 5q4 4 4 10v107h43z" />
<glyph unicode="&#x652;" horiz-adv-x="0" d="M77 701q33 0 55 -23t22 -56t-20.5 -53t-56.5 -20q-35 0 -56 20t-21 53t22.5 56t54.5 23zM77 586q35 0 35 39q0 16 -10 27t-25 11q-14 0 -24.5 -11t-10.5 -27q0 -39 35 -39z" />
<glyph unicode="&#x653;" horiz-adv-x="0" d="M20 602q36 60 84 60q26 0 67 -20q14 -7 23 -10q20 -8 36 -8q28 0 51 27l23 -17q-42 -58 -85 -58q-20 0 -45 10q-9 3 -31 14q-27 14 -43 14q-24 0 -57 -30z" />
<glyph unicode="&#x654;" horiz-adv-x="0" d="M41 619q-21 27 -21 66t23 62.5t61 23.5q23 0 48 -8v-41q-18 5 -35 5q-52 0 -52 -53q0 -19 13 -35q16 -20 43 -20h64v-17l-20 -24h-168v41h44z" />
<glyph unicode="&#x655;" horiz-adv-x="0" d="M43 -227q-21 26 -21 63q0 88 86 88q23 0 46 -7v-41q-20 5 -36 5q-51 0 -51 -53q0 -20 13 -36q16 -19 43 -19h64v-17l-19 -24h-168v41h43z" />
<glyph unicode="&#x656;" horiz-adv-x="0" d="M0 -75h44v-191l-22 -18h-22v209z" />
<glyph unicode="&#x657;" horiz-adv-x="0" d="M57 593h1h1q20 0 33.5 -13t14.5 -34q0 -14 -7 -27q-13 -25 -42 -25q-25 0 -41 20.5t-16 52.5q0 73 65 149h20l24 -20q-22 -26 -38 -60q-10 -21 -15 -43z" />
<glyph unicode="&#x658;" horiz-adv-x="0" d="M44 680v-86q0 -43 58 -43q59 0 59 42v144h44v-147q0 -34 -28.5 -55.5t-73.5 -21.5q-103 0 -103 75v74l22 18h22z" />
<glyph unicode="&#x660;" horiz-adv-x="252" d="M129 325l79 -80v-36l-78 -80l-98 97z" />
<glyph unicode="&#x661;" horiz-adv-x="269" d="M177 674v-639l-43 -35h-42v674h85z" />
<glyph unicode="&#x662;" horiz-adv-x="532" d="M92 460q0 118 67 176q58 50 159 50q78 0 145 -25v-76q-67 23 -124 23q-77 0 -119.5 -40t-42.5 -112v-421l-43 -35h-42v460z" />
<glyph unicode="&#x663;" horiz-adv-x="748" d="M177 674v-261q36 -13 86 -13q96 0 96 82v192h76v-191q0 -40 -7 -60q43 -21 96 -22q56 0 76 22q17 19 17 59v192h76v-186q0 -50 -12 -82q-11 -28 -33 -47q-40 -34 -108 -34q-97 0 -146 38q-49 -38 -116 -38q-47 0 -101 16v-306l-43 -35h-42v674h85z" />
<glyph unicode="&#x664;" horiz-adv-x="506" d="M182 363q-41 17 -65 57.5t-24 90.5q0 89 64 136q52 40 132 40q52 0 121 -24v-71q-58 17 -100 17q-61 0 -96.5 -30t-35.5 -81q0 -44 30.5 -72t77.5 -28h112v-28l-35 -44q-111 0 -165 -36q-49 -36 -49 -97q0 -50 28 -82q37 -40 127 -40h137v-28l-35 -43h-134q-94 0 -150 50 q-58 50 -58 133q0 67 38 119q32 42 80 61z" />
<glyph unicode="&#x665;" horiz-adv-x="532" d="M235 587h65q98 -34 152 -159q41 -93 41 -193q0 -121 -62 -184q-57 -60 -161 -60q-118 0 -175 76q-47 61 -47 166q0 119 51 221q51 104 136 133zM278 516h-16q-62 -23 -100 -125q-29 -74 -29 -140q0 -188 137 -188t137 173q0 85 -36 171q-37 88 -93 109z" />
<glyph unicode="&#x666;" horiz-adv-x="532" d="M69 661q67 25 144 25q116 0 175 -65q52 -58 52 -161v-425l-44 -35h-42v456q0 72 -42.5 112t-118.5 40q-57 0 -124 -23v76z" />
<glyph unicode="&#x667;" horiz-adv-x="506" d="M477 679l-135 -558q-11 -45 -24 -73q-15 -30 -34 -42q-1 -1 -3 -2q-4 -3 -7 -4h-43q-5 2 -11 6q-17 13 -32 44q-12 27 -24 71l-134 558h91l132 -595l132 595h92z" />
<glyph unicode="&#x668;" horiz-adv-x="506" d="M231 679h43q3 -1 7 -4q2 -1 3 -2q19 -13 34 -42q13 -28 24 -74l135 -557h-92l-132 594l-132 -594h-91l134 557q11 45 26 75q14 29 30 41q6 4 11 6z" />
<glyph unicode="&#x669;" horiz-adv-x="517" d="M261 288q-83 0 -138 36q-77 51 -77 157q0 92 54 146q58 59 152 59q82 0 135 -47q57 -51 57 -143v-461l-44 -35h-41v288h-98zM359 499q0 50 -30 81q-30 30 -77 30q-54 0 -87.5 -33.5t-33.5 -86.5q0 -60 37 -93t105 -33h86v135z" />
<glyph unicode="&#x66a;" horiz-adv-x="519" d="M121 690l66 -67v-30l-66 -67l-82 81zM487 673l-397 -673h-72l396 673h73zM396 162l67 -67v-31l-66 -66l-83 81z" />
<glyph unicode="&#x66b;" horiz-adv-x="209" d="M104 17h-1h-1q-20 0 -33.5 13t-14.5 34q0 14 7 27q13 25 42 25q25 0 41 -20.5t16 -52.5q0 -72 -66 -149h-19l-24 19q21 27 37 61q11 21 16 43z" />
<glyph unicode="&#x66c;" horiz-adv-x="209" d="M136 217l23 -19q-19 -25 -37 -61q-10 -21 -15 -43h3q19 0 33 -14t14 -34q0 -12 -7 -26q-13 -25 -42 -25q-25 0 -41 20.5t-16 52.5q0 73 65 149h20z" />
<glyph unicode="&#x66d;" horiz-adv-x="433" d="M247 682v-149l125 53l19 -62l-136 -32l88 -117l-51 -36l-76 119l-76 -120l-52 38l89 116l-136 32l19 62l125 -53v123l31 26h31z" />
<glyph unicode="&#x66e;" horiz-adv-x="957" d="M888 460v-365q0 -36 -22 -62q-28 -33 -68 -33h-572q-58 0 -100 38q-57 49 -57 127v188l43 35h42v-223q0 -39 28 -66q27 -28 68 -28h515q38 0 38 38v351h85z" />
<glyph unicode="&#x66f;" horiz-adv-x="766" d="M626 10q-52 -19 -112 -19q-109 0 -173 82q-52 68 -52 165q0 98 53 159q62 75 177 75q76 0 126 -37q66 -49 66 -145v-281q0 -93 -44 -153q-70 -95 -221 -95h-111q-115 0 -186 57q-80 65 -80 191v141l43 35h42v-174q0 -99 52.5 -138.5t183.5 -39.5q125 0 175 33 q61 41 61 144zM626 290q0 53 -34 85q-29 25 -73 25q-65 0 -104 -42q-40 -45 -40 -128q0 -73 40 -117t107 -44q58 0 104 18v203z" />
<glyph unicode="&#x670;" horiz-adv-x="0" d="M0 760h44v-191l-22 -18h-22v209z" />
<glyph unicode="&#x671;" horiz-adv-x="223" d="M64 861q54 81 119 81q32 0 54.5 -20t22.5 -48q0 -35 -30.5 -58t-75.5 -23q-39 0 -99 20q-33 11 -43 11q-25 0 -58 -29l-23 17q36 60 84 60q23 0 49 -11zM104 849q39 -13 64 -13q54 0 54 36q0 31 -38 31q-42 0 -80 -54zM154 716v-706l-43 -35h-42v741h85z" />
<glyph unicode="&#x674;" horiz-adv-x="0" d="M41 619q-21 27 -21 66t23 62.5t61 23.5q23 0 48 -8v-41q-18 5 -35 5q-52 0 -52 -53q0 -19 13 -35q16 -20 43 -20h64v-17l-20 -24h-168v41h44z" />
<glyph unicode="&#x679;" horiz-adv-x="1003" d="M433 594l-2 -96q55 67 119 67q38 0 60 -24t22 -64v-33q0 -21 -12 -36q-16 -20 -44 -20h-214v41h26v165h45zM587 476q0 26 -14 38q-11 9 -28 9q-29 0 -61 -26q-33 -27 -52 -68h136q19 0 19 19v28zM888 460v-365q0 -36 -22 -62q-28 -33 -68 -33h-572q-58 0 -100 38 q-57 49 -57 127v188l43 35h42v-223q0 -39 28 -66q27 -28 68 -28h515q38 0 38 38v351h85z" />
<glyph unicode="&#x67e;" horiz-adv-x="957" d="M888 460v-365q0 -36 -22 -62q-28 -33 -68 -33h-572q-58 0 -100 38q-57 49 -57 127v188l43 35h42v-223q0 -39 28 -66q27 -28 68 -28h515q38 0 38 38v351h85zM418 -104q20 0 34.5 -14.5t14.5 -34.5q0 -21 -14.5 -35.5t-34.5 -14.5t-34.5 14.5t-14.5 35.5q0 20 14.5 34.5 t34.5 14.5zM539 -104q21 0 35.5 -14.5t14.5 -34.5q0 -21 -14.5 -35.5t-35.5 -14.5q-20 0 -34.5 14.5t-14.5 35.5q0 20 14.5 34.5t34.5 14.5zM479 -205q19 0 33 -13.5t14 -33.5q0 -19 -14 -33t-33 -14q-20 0 -33.5 14t-13.5 33q0 20 13.5 33.5t33.5 13.5z" />
<glyph unicode="&#x686;" horiz-adv-x="651" d="M180 443q92 29 172 29q124 0 189 -77q56 -66 56 -173v-127q0 -39 -27 -67q-26 -28 -63 -28h-208q-84 0 -126 -48q-32 -35 -32 -103q0 -73 42.5 -115t117.5 -42q15 0 33 2v-28l-36 -44h-4q-101 0 -161 50q-77 64 -77 178q0 221 256 221h162q38 0 38 38v116q0 78 -41 123 q-45 50 -131 50q-52 0 -160 -22v67zM329 -105q21 0 35.5 -14.5t14.5 -35.5q0 -20 -14.5 -34.5t-35.5 -14.5q-20 0 -34.5 14.5t-14.5 34.5q0 21 14.5 35.5t34.5 14.5zM451 -105q20 0 34.5 -14.5t14.5 -35.5q0 -20 -14.5 -34.5t-34.5 -14.5t-34.5 14.5t-14.5 34.5 q0 21 14.5 35.5t34.5 14.5zM390 -206q20 0 33.5 -14t13.5 -33q0 -20 -13.5 -33.5t-33.5 -13.5q-19 0 -33 13.5t-14 33.5q0 19 14 33t33 14z" />
<glyph unicode="&#x688;" horiz-adv-x="517" d="M183 785v-96q54 67 119 67q37 0 59.5 -24t22.5 -64v-33q0 -21 -13 -36q-16 -20 -43 -20h-214v41h26v165h43zM339 667q0 26 -15 38q-10 9 -28 9q-28 0 -61 -26q-33 -27 -52 -68h137q19 0 19 19v28zM140 466q36 6 77 6q111 0 179 -67q61 -62 61 -157v-153q0 -39 -25 -66 q-26 -29 -64 -29h-329v71h296q37 0 37 38v127q0 71 -43 118q-46 48 -142 49q-28 0 -47 -4v67z" />
<glyph unicode="&#x691;" horiz-adv-x="402" d="M137 788l-1 -97q54 67 119 67q37 0 59.5 -23.5t22.5 -63.5v-33q0 -21 -12 -37q-17 -20 -44 -20h-214v41h26v166h44zM292 669q0 47 -45 47q-29 0 -60.5 -26.5t-50.5 -67.5h137q19 0 19 19v28zM332 460v-451q0 -127 -82 -192q-50 -39 -122 -50q-28 -5 -61 -5q-25 0 -46 1 l-33 41v32q29 -4 63 -4q196 0 196 180v448h85z" />
<glyph unicode="&#x698;" horiz-adv-x="402" d="M234 776q19 0 33 -13.5t14 -33.5q0 -19 -14 -33t-33 -14q-20 0 -33.5 14t-13.5 33q0 20 13.5 33.5t33.5 13.5zM173 680q20 0 34.5 -14.5t14.5 -34.5q0 -21 -14.5 -35.5t-34.5 -14.5t-34.5 14.5t-14.5 35.5q0 20 14.5 34.5t34.5 14.5zM295 680q20 0 34.5 -14.5t14.5 -34.5 q0 -21 -14.5 -35.5t-34.5 -14.5q-21 0 -35.5 14.5t-14.5 35.5q0 20 14.5 34.5t35.5 14.5zM332 460v-451q0 -125 -80 -190q-47 -39 -117 -51q-32 -6 -68 -6q-25 0 -46 1l-33 41v32q29 -4 63 -4q196 0 196 180v448h85z" />
<glyph unicode="&#x6a1;" horiz-adv-x="989" d="M579 71q-70 66 -70 170q0 118 75 180q63 51 161 51q86 0 136 -48q52 -48 53 -134v-198q0 -40 -30 -68q-26 -24 -60 -24h-618q-50 0 -91 30q-66 49 -66 135v188l43 35h42v-223q0 -42 32 -70q26 -24 64 -24h329zM849 290q0 52 -28 81t-76 29q-72 0 -111 -42.5t-39 -119.5 t51 -124q44 -43 112 -43h53q38 0 38 38v181z" />
<glyph unicode="&#x6a4;" horiz-adv-x="989" d="M745 776q20 0 33.5 -13.5t13.5 -33.5q0 -19 -13.5 -33t-33.5 -14q-19 0 -33 14t-14 33q0 20 14 33.5t33 13.5zM684 680q21 0 35.5 -14.5t14.5 -34.5q0 -21 -14.5 -35.5t-35.5 -14.5q-20 0 -34.5 14.5t-14.5 35.5q0 20 14.5 34.5t34.5 14.5zM806 680q20 0 34.5 -14.5 t14.5 -34.5q0 -21 -14.5 -35.5t-34.5 -14.5t-34.5 14.5t-14.5 35.5q0 20 14.5 34.5t34.5 14.5zM579 71q-70 66 -70 170q0 118 75 180q63 51 161 51q86 0 136 -48q52 -48 53 -134v-198q0 -40 -30 -68q-26 -24 -60 -24h-618q-50 0 -91 30q-66 49 -66 135v188l43 35h42v-223 q0 -42 32 -70q26 -24 64 -24h329zM849 290q0 52 -28 81t-76 29q-72 0 -111 -42.5t-39 -119.5t51 -124q44 -43 112 -43h53q38 0 38 38v181z" />
<glyph unicode="&#x6a9;" horiz-adv-x="944" d="M812 731v-78l-251 -149q103 -27 181 -90q147 -116 147 -319q0 -37 -23 -63q-27 -32 -66 -32h-574q-59 0 -104 41q-53 48 -53 124v184l54 44h31v-228q0 -41 31 -69q27 -25 65 -25h516q38 0 38 34q0 44 -17 98.5t-43 90.5q-80 117 -256 140q-6 0 -6 7v99z" />
<glyph unicode="&#x6af;" horiz-adv-x="944" d="M482 664l330 191v-75l-330 -191v75zM812 731v-78l-251 -149q103 -27 181 -90q147 -116 147 -319q0 -37 -23 -63q-27 -32 -66 -32h-574q-59 0 -104 41q-53 48 -53 124v184l54 44h31v-228q0 -41 31 -69q27 -25 65 -25h516q38 0 38 34q0 44 -17 98.5t-43 90.5 q-80 117 -256 140q-6 0 -6 7v99z" />
<glyph unicode="&#x6ba;" horiz-adv-x="780" d="M711 460v-451q0 -120 -73 -185q-71 -63 -192 -63h-111q-119 0 -190 61q-76 65 -76 187v209l43 35h42v-242q0 -100 52.5 -139.5t183.5 -39.5q125 0 176 34q60 41 60 145v449h85z" />
<glyph unicode="&#x6be;" horiz-adv-x="794" d="M263 449q108 50 215 50q261 0 261 -300v-104q0 -35 -23 -62q-27 -33 -67 -33h-232q-57 0 -78 7h-4q-20 -7 -79 -7h-166l-35 43v28h156q-23 26 -36 62q-14 39 -14 82q0 71 31 119q26 41 71 59v56zM653 185q0 146 -58 199q-45 40 -134 40q-65 -1 -122 -18q78 -1 123 -47 q51 -51 51 -144q0 -39 -11 -75q-14 -42 -39 -69h153q13 0 23 8q14 11 14 30v76zM438 216q0 59 -27.5 94t-74.5 35q-53 0 -80 -39q-22 -34 -22 -93q0 -53 24 -90q28 -44 78 -46q44 2 73 41.5t29 97.5z" />
<glyph unicode="&#x6c0;" horiz-adv-x="531" d="M250 595q-21 27 -21 65q0 39 23 63t62 24q23 0 48 -9v-41q-19 5 -36 5q-51 0 -51 -52q0 -20 12 -36q16 -19 43 -19h64v-17l-19 -24h-169v41h44zM476 487v-315q0 -81 -46 -128q-51 -53 -154 -53q-90 0 -146 46q-75 62 -75 187q0 113 69 186q64 67 160 67q53 0 107 -24 l43 34h42zM391 383q-44 22 -89 22q-79 0 -124 -62q-38 -50 -38 -120q0 -77 36 -119t100 -42q60 0 88 31q27 30 27 80v210z" />
<glyph unicode="&#x6c1;" horiz-adv-x="531" d="M476 487v-315q0 -81 -46 -128q-51 -53 -154 -53q-90 0 -146 46q-75 62 -75 187q0 113 69 186q64 67 160 67q53 0 107 -24l43 34h42zM391 383q-44 22 -89 22q-79 0 -124 -62q-38 -50 -38 -120q0 -77 36 -119t100 -42q60 0 88 31q27 30 27 80v210z" />
<glyph unicode="&#x6c2;" horiz-adv-x="531" d="M250 595q-21 26 -21 63q0 41 23 65t62 24q23 0 48 -9v-41q-19 5 -36 5q-51 0 -51 -52q0 -20 12 -36q16 -19 43 -19h64v-17l-19 -24h-169v41h44zM476 487v-315q0 -81 -46 -128q-51 -53 -154 -53q-90 0 -146 46q-75 62 -75 187q0 113 69 186q64 67 160 67q53 0 107 -24 l43 34h42zM391 383q-44 22 -89 22q-79 0 -124 -62q-38 -50 -38 -120q0 -77 36 -119t100 -42q60 0 88 31q27 30 27 80v210z" />
<glyph unicode="&#x6c3;" horiz-adv-x="531" d="M305 680q20 0 34.5 -14.5t14.5 -34.5q0 -21 -14.5 -35.5t-34.5 -14.5t-34.5 14.5t-14.5 35.5q0 20 14.5 34.5t34.5 14.5zM426 680q21 0 35.5 -14.5t14.5 -34.5q0 -21 -14.5 -35.5t-35.5 -14.5q-20 0 -34.5 14.5t-14.5 35.5q0 20 14.5 34.5t34.5 14.5zM476 487v-315 q0 -81 -46 -128q-51 -53 -154 -53q-90 0 -146 46q-75 62 -75 187q0 113 69 186q64 67 160 67q53 0 107 -24l43 34h42zM391 383q-44 22 -89 22q-79 0 -124 -62q-38 -50 -38 -120q0 -77 36 -119t100 -42q60 0 88 31q27 30 27 80v210z" />
<glyph unicode="&#x6cc;" horiz-adv-x="754" d="M154 11q0 -99 52.5 -138.5t183.5 -39.5q112 0 163 21q74 31 74 109q0 52 -27 77t-108 48q-100 29 -139 65q-47 45 -47 126q0 101 61 151q51 42 139 42q57 0 119 -19v-66q-67 16 -108 16q-128 0 -128 -124q0 -48 27.5 -74t106.5 -49q100 -30 139 -69q46 -46 46 -126 q0 -110 -93 -162q-68 -38 -169 -38h-111q-125 0 -197 67q-69 64 -69 181v130l43 35h42v-163z" />
<glyph unicode="&#x6d2;" horiz-adv-x="656" d="M459 487v-35q0 -101 -63 -149q-35 -27 -115 -60q-85 -35 -111 -52q-47 -30 -47 -66q1 -54 60 -54h464v-28l-35 -43h-439q-57 0 -94 33.5t-37 85.5q0 58 40 95.5t150 82.5q69 29 96 48q26 18 36 41t10 66v35h85z" />
<glyph unicode="&#x6d3;" horiz-adv-x="656" d="M154 528q-20 26 -20 65t23 62.5t61 23.5q24 0 48 -8v-41q-19 5 -36 5q-51 0 -51 -53q0 -19 12 -35q16 -19 43 -19h64v-18l-19 -23h-168v41h43zM459 487v-35q0 -101 -63 -149q-35 -27 -115 -60q-85 -35 -111 -52q-47 -30 -47 -66q1 -54 60 -54h464v-28l-35 -43h-439 q-57 0 -94 33.5t-37 85.5q0 58 40 95.5t150 82.5q69 29 96 48q26 18 36 41t10 66v35h85z" />
<glyph unicode="&#x6d4;" horiz-adv-x="161" d="M164 71v-71h-168v71h168z" />
<glyph unicode="&#x6f0;" horiz-adv-x="252" d="M129 325l79 -80v-36l-78 -80l-98 97z" />
<glyph unicode="&#x6f1;" horiz-adv-x="269" d="M177 674v-639l-43 -35h-42v674h85z" />
<glyph unicode="&#x6f2;" horiz-adv-x="532" d="M92 460q0 118 67 176q58 50 159 50q78 0 145 -25v-76q-67 23 -124 23q-77 0 -119.5 -40t-42.5 -112v-421l-43 -35h-42v460z" />
<glyph unicode="&#x6f3;" horiz-adv-x="748" d="M177 674v-261q36 -13 86 -13q96 0 96 82v192h76v-191q0 -40 -7 -60q43 -21 96 -22q56 0 76 22q17 19 17 59v192h76v-186q0 -50 -12 -82q-11 -28 -33 -47q-40 -34 -108 -34q-97 0 -146 38q-49 -38 -116 -38q-47 0 -101 16v-306l-43 -35h-42v674h85z" />
<glyph unicode="&#x6f4;" horiz-adv-x="568" d="M177 532q64 141 216 141q35 0 69 -9v-71q-23 4 -48 4q-82 0 -145 -51t-90 -139q80 -34 185 -34q69 0 149 14v-28l-34 -46q-48 -13 -110 -13q-121 0 -192 40v-300l-54 -40h-31v674h85v-142z" />
<glyph unicode="&#x6f5;" horiz-adv-x="576" d="M292 47h-5q-28 -30 -43 -41q-27 -18 -63 -18q-64 0 -99.5 54t-35.5 150q0 216 185 400l-17 16l15 57l15 15q143 -92 219 -225q71 -124 71 -264q0 -89 -33 -144q-37 -60 -107 -60q-58 0 -102 60zM286 116h9q33 -44 65 -44q42 0 65.5 36t23.5 100q0 97 -42 185.5 t-117 146.5q-59 -30 -116 -146q-43 -93 -43 -188q0 -134 88 -134q33 0 67 44z" />
<glyph unicode="&#x6f6;" horiz-adv-x="502" d="M209 325q-49 14 -79 62t-30 110q0 94 62 146q53 43 136 43q44 0 82 -12v-71q-30 5 -60 6q-61 0 -96.5 -32t-35.5 -88q0 -52 29.5 -82.5t80.5 -30.5q1 0 5 1q89 22 162 25v-23l-50 -61q-61 -6 -112 -31q-56 -28 -97 -78q-56 -68 -83 -174l-43 -35h-50q16 128 73 219 q45 71 106 106z" />
<glyph unicode="&#x6f7;" horiz-adv-x="506" d="M477 679l-135 -558q-11 -45 -24 -73q-15 -30 -34 -42q-1 -1 -3 -2q-4 -3 -7 -4h-43q-5 2 -11 6q-17 13 -32 44q-12 27 -24 71l-134 558h91l132 -595l132 595h92z" />
<glyph unicode="&#x6f8;" horiz-adv-x="506" d="M231 679h43q3 -1 7 -4q2 -1 3 -2q19 -13 34 -42q13 -28 24 -74l135 -557h-92l-132 594l-132 -594h-91l134 557q11 45 26 75q14 29 30 41q6 4 11 6z" />
<glyph unicode="&#x6f9;" horiz-adv-x="517" d="M261 288q-83 0 -138 36q-77 51 -77 157q0 92 54 146q58 59 152 59q82 0 135 -47q57 -51 57 -143v-461l-44 -35h-41v288h-98zM359 499q0 50 -30 81q-30 30 -77 30q-54 0 -87.5 -33.5t-33.5 -86.5q0 -60 37 -93t105 -33h86v135z" />
<glyph unicode="&#x2000;" horiz-adv-x="545" />
<glyph unicode="&#x2001;" horiz-adv-x="1090" />
<glyph unicode="&#x2002;" horiz-adv-x="545" />
<glyph unicode="&#x2003;" horiz-adv-x="1090" />
<glyph unicode="&#x2004;" horiz-adv-x="363" />
<glyph unicode="&#x2005;" horiz-adv-x="272" />
<glyph unicode="&#x2006;" horiz-adv-x="181" />
<glyph unicode="&#x2007;" horiz-adv-x="181" />
<glyph unicode="&#x2008;" horiz-adv-x="136" />
<glyph unicode="&#x2009;" horiz-adv-x="218" />
<glyph unicode="&#x200a;" horiz-adv-x="60" />
<glyph unicode="&#x2010;" horiz-adv-x="321" d="M284 263v-72h-247v72h247z" />
<glyph unicode="&#x2011;" horiz-adv-x="321" d="M284 263v-72h-247v72h247z" />
<glyph unicode="&#x2012;" horiz-adv-x="321" d="M284 263v-72h-247v72h247z" />
<glyph unicode="&#x2013;" horiz-adv-x="470" d="M433 263v-72h-396v72h396z" />
<glyph unicode="&#x2014;" horiz-adv-x="941" d="M904 263v-72h-867v72h867z" />
<glyph unicode="&#x2018;" horiz-adv-x="210" d="M136 716l24 -20q-22 -26 -38 -60q-10 -21 -15 -43h3q19 0 33 -14t14 -34q0 -12 -7 -26q-13 -25 -42 -25q-25 0 -41 20.5t-16 52.5q0 73 65 149h20z" />
<glyph unicode="&#x2019;" horiz-adv-x="210" d="M104 617h-2q-20 0 -33.5 13t-14.5 34q0 14 7 27q13 25 42 25q25 0 41 -20.5t16 -52.5q0 -72 -66 -149h-19l-24 20q21 27 37 60q11 21 16 43z" />
<glyph unicode="&#x201a;" horiz-adv-x="210" d="M104 17h-1h-1q-20 0 -33.5 13t-14.5 34q0 14 7 27q13 25 42 25q25 0 41 -20.5t16 -52.5q0 -72 -66 -149h-19l-24 19q21 27 37 61q11 21 16 43z" />
<glyph unicode="&#x201c;" horiz-adv-x="360" d="M136 716l24 -20q-22 -26 -38 -60q-10 -21 -15 -43h3q19 0 33 -14t14 -34q0 -12 -7 -26q-13 -25 -42 -25q-25 0 -41 20.5t-16 52.5q0 73 65 149h20zM286 716l24 -20q-21 -26 -37 -60q-11 -21 -16 -43q11 0 17 -2q10 -3 16 -9q16 -13 17 -36q0 -14 -7 -27q-13 -25 -42 -25 q-25 0 -41 20.5t-16 52.5q0 72 66 149h19z" />
<glyph unicode="&#x201d;" horiz-adv-x="360" d="M104 617h-2q-20 0 -33.5 13t-14.5 34q0 14 7 27q13 25 42 25q25 0 41 -20.5t16 -52.5q0 -72 -66 -149h-19l-24 20q21 27 37 60q11 21 16 43zM254 617h-3q-19 0 -33 14t-14 34q0 12 7 26q13 25 42 25q25 0 41 -20.5t16 -52.5q0 -72 -66 -149h-19l-24 20q21 27 37 60 q11 21 16 43z" />
<glyph unicode="&#x201e;" horiz-adv-x="360" d="M104 17h-1h-1q-20 0 -33.5 13t-14.5 34q0 14 7 27q13 25 42 25q25 0 41 -20.5t16 -52.5q0 -72 -66 -149h-19l-24 19q21 27 37 61q11 21 16 43zM254 17h-3q-19 0 -33 14t-14 33q0 13 7 27q13 25 42 25q25 0 41 -20.5t16 -52.5q0 -72 -66 -149h-19l-24 19q21 27 37 61 q11 21 16 43z" />
<glyph unicode="&#x2022;" horiz-adv-x="366" d="M183 271q40 0 69 -29t29 -69q0 -41 -29 -70t-69 -29q-41 0 -70 29t-29 70q0 40 29 69t70 29z" />
<glyph unicode="&#x2026;" horiz-adv-x="499" d="M100 93q21 0 35 -14t14 -35q0 -20 -14 -34.5t-35 -14.5q-20 0 -34.5 14.5t-14.5 34.5q0 21 14.5 35t34.5 14zM248 93q20 0 34.5 -14t14.5 -35q0 -20 -14.5 -34.5t-34.5 -14.5q-21 0 -35 14.5t-14 34.5q0 21 14 35t35 14zM399 93q21 0 35 -14t14 -35q0 -20 -14 -34.5 t-35 -14.5q-20 0 -34.5 14.5t-14.5 34.5q0 21 14.5 35t34.5 14z" />
<glyph unicode="&#x202f;" horiz-adv-x="218" />
<glyph unicode="&#x2039;" horiz-adv-x="267" d="M202 475l27 -23l-120 -185l121 -186l-28 -23h-26l-139 204v8l139 205h26z" />
<glyph unicode="&#x203a;" horiz-adv-x="267" d="M65 475h26l139 -205v-8l-139 -204h-26l-28 23l121 186l-121 185z" />
<glyph unicode="&#x2044;" horiz-adv-x="524" d="M492 673l-397 -673h-72l396 673h73z" />
<glyph unicode="&#x205f;" horiz-adv-x="272" />
<glyph unicode="&#x20ac;" horiz-adv-x="639" d="M166 430q16 116 80 184q65 69 168 69q67 0 118 -36v-74q-57 34 -112 34q-63 0 -108 -46q-43 -46 -60 -131h199v-63h-206q-2 -9 -2 -32q0 -25 2 -41h206v-63h-197q16 -87 61 -125t131 -38q63 0 101 17v-38l-35 -43q-45 -13 -95 -13q-103 0 -168 65q-62 61 -82 175h-75v63 h68q-2 30 -2 43q0 18 2 30h-68v63h74z" />
<glyph unicode="&#x2122;" horiz-adv-x="669" d="M254 673v-50h-91v-257l-32 -25h-27v282h-90v50h240zM623 673v-307l-31 -25h-27v253h-1l-90 -253h-46l-86 253h-1v-253h-56v332h85l83 -254l88 254h82z" />
<glyph unicode="&#x2153;" horiz-adv-x="694" d="M196 673v-383l-34 -27h-33v330l-78 -58l-35 44l120 94h60zM556 673l-396 -673h-73l397 673h72zM454 398q43 17 84 17q52 0 85.5 -30t33.5 -78q0 -36 -23 -63.5t-56 -30.5q48 -5 76 -41q21 -29 21 -63q0 -113 -148 -113q-46 0 -76 11l-23 28v23q47 -14 87 -14 q41 0 66.5 17.5t25.5 45.5q0 37 -35 62q-37 25 -93 25v40h42q31 0 48 15q24 23 24 56q0 59 -70 59q-30 0 -69 -9v43z" />
<glyph unicode="&#x2154;" horiz-adv-x="765" d="M38 637q61 41 119 41q54 0 84 -30t30 -83q0 -37 -26 -78t-94 -110q-15 -15 -22 -23l-31 -32h180v-32l-23 -25h-241v56l45 42q60 56 99 100q30 35 39 53q10 21 10 43q0 62 -59 62q-38 0 -76 -28zM641 673l-396 -673h-72l396 673h72zM526 398q43 17 84 17q52 0 85 -30 t33 -78q0 -36 -23 -63.5t-56 -30.5q48 -5 76 -41q22 -29 22 -63q0 -113 -148 -113q-46 0 -77 11l-22 28v23q47 -14 87 -14q41 0 66.5 17.5t25.5 45.5q0 37 -35 62q-38 25 -94 25v40h43q30 0 47 15q25 23 25 56q0 59 -70 59q-30 0 -69 -9v43z" />
<glyph unicode="&#x215b;" horiz-adv-x="712" d="M196 673v-383l-34 -27h-33v330l-78 -58l-35 44l120 94h60zM556 673l-396 -673h-73l397 673h72zM511 208q-29 15 -50 38q-32 36 -32 71q0 49 33 72t86 23q55 0 89 -25q32 -23 32 -69q0 -34 -21 -62q-12 -16 -55 -43l-4 -4q47 -19 73 -47q29 -30 29 -69q-1 -38 -32 -66 q-38 -34 -111 -34q-62 0 -102 27q-39 26 -39 77q0 34 27 63t77 48zM551 232q29 15 45 40q13 19 13 44q0 23 -14 36q-16 15 -45 15q-31 0 -47 -16q-13 -14 -13 -37q0 -24 13 -43q19 -26 48 -39zM550 188q-41 -17 -57 -33q-21 -22 -21 -52q0 -58 78 -58q77 0 77 59 q0 50 -77 84z" />
<glyph unicode="&#x215c;" horiz-adv-x="770" d="M42 667q43 17 83 17q53 0 86 -30t33 -78q0 -36 -23 -63.5t-56 -30.5q48 -4 76 -41q22 -28 22 -63q0 -112 -148 -112q-46 0 -77 11l-22 27v23q46 -14 87 -14t66.5 17.5t25.5 46.5q0 37 -35 61q-38 26 -94 26v39h43q30 0 47 15q25 23 25 56q0 60 -70 60q-31 0 -69 -10v43z M613 673l-397 -673h-72l396 673h73zM569 208q-29 15 -50 38q-32 36 -32 71q0 49 33 72t86 23q55 0 89 -25q32 -23 32 -69q0 -34 -21 -62q-12 -16 -55 -43l-4 -4q47 -19 73 -47q29 -30 29 -69q-1 -38 -32 -66q-38 -34 -111 -34q-62 0 -102 27q-39 26 -39 77q0 34 27 63t77 48 zM609 232q29 15 45 40q13 19 13 44q0 23 -14 36q-16 15 -45 15q-31 0 -47 -16q-13 -14 -13 -37q0 -24 13 -43q19 -26 48 -39zM608 188q-41 -17 -57 -33q-21 -22 -21 -52q0 -58 78 -58q77 0 77 59q0 50 -77 84z" />
<glyph unicode="&#x215d;" horiz-adv-x="782" d="M242 673v-51h-154l-7 -112q27 5 50 5q64 0 102 -37.5t38 -99.5q-1 -59 -40 -93.5t-104 -34.5q-39 0 -84 11l-27 33v19q47 -12 88 -12q105 0 105 79q0 87 -102 87q-35 0 -85 -9l13 215h207zM625 673l-396 -673h-73l397 673h72zM582 208q-30 15 -50 38q-32 36 -32 71 q0 49 32 72q34 23 87 23q54 0 89 -25q32 -23 32 -69q0 -34 -22 -62q-11 -16 -54 -43q-3 -2 -5 -4q48 -19 74 -47q28 -30 28 -69q0 -38 -32 -66q-38 -34 -110 -34q-63 0 -103 27q-39 26 -39 77q0 34 27 63t78 48zM621 232q30 15 46 40q13 19 13 44q0 23 -15 36q-15 15 -45 15 q-31 0 -46 -16q-14 -14 -14 -37q0 -24 13 -43q20 -26 48 -39zM620 188q-41 -17 -56 -33q-21 -22 -21 -52q0 -58 77 -58q78 0 78 59q0 50 -78 84z" />
<glyph unicode="&#x215e;" horiz-adv-x="722" d="M559 673l-396 -673h-73l397 673h72zM282 672v-49l-140 -330l-43 -34h-40l155 356h-202v57h270zM522 208q-29 15 -50 38q-31 36 -31 71q0 49 32 72q34 23 86 23q55 0 90 -25q31 -23 31 -69q0 -34 -21 -62q-11 -16 -54 -43q-3 -2 -5 -4q48 -19 73 -47q29 -30 29 -69 q-1 -38 -32 -66q-38 -34 -111 -34q-62 0 -102 27q-39 26 -39 77q0 34 27 63t77 48zM562 232q30 15 46 40q13 19 13 44q0 23 -15 36q-15 15 -45 15q-31 0 -46 -16q-14 -14 -14 -37q0 -24 13 -43q19 -26 48 -39zM561 188q-41 -17 -56 -33q-22 -22 -22 -52q0 -58 78 -58 q77 0 77 59q0 51 -77 84z" />
<glyph unicode="&#x2212;" horiz-adv-x="517" d="M471 191h-425v70h425v-70z" />
<glyph unicode="&#x2264;" horiz-adv-x="509" d="M466 573v-75l-334 -166l334 -146v-76l-425 195v47zM467 71v-71h-425v71h425z" />
<glyph unicode="&#x2265;" horiz-adv-x="509" d="M41 573l425 -221v-47l-425 -195v76l334 146l-334 166v75zM467 71v-71h-425v71h425z" />
<glyph unicode="&#x25cc;" horiz-adv-x="545" d="M271 511q25 0 25 -25t-25 -25t-25 25t25 25zM191 495q25 0 25 -25t-25 -25t-25 25t25 25zM352 495q25 0 25 -25t-25 -25t-25 25t25 25zM123 449q25 0 25 -25q0 -24 -25 -24t-25 24q0 25 25 25zM420 449q25 0 25 -25q0 -24 -25 -24t-25 24q0 25 25 25zM78 381q24 0 24 -25 t-24 -25q-25 0 -25 25t25 25zM464 381q25 0 25 -25t-25 -25t-25 25t25 25zM62 301q25 0 25 -25t-25 -25t-25 25t25 25zM483 299q25 0 25 -25t-25 -25t-25 25t25 25zM78 221q24 0 24 -24q0 -25 -24 -25q-25 0 -25 25q0 24 25 24zM464 218q25 0 25 -25t-25 -25t-25 25t25 25z M123 152q25 0 25 -24q0 -25 -25 -25t-25 25q0 24 25 24zM420 149q25 0 25 -25t-25 -25t-25 25t25 25zM191 104q25 0 25 -25t-25 -25t-25 25t25 25zM352 104q25 0 25 -25t-25 -25t-25 25t25 25zM271 87q25 0 25 -24q0 -25 -25 -25t-25 25q0 24 25 24z" />
<glyph unicode="&#x25fc;" horiz-adv-x="515" d="M0 515h515v-515h-515v515z" />
<glyph unicode="&#xe004;" horiz-adv-x="0" d="M139 692q54 81 119 81q32 0 54.5 -19.5t22.5 -48.5q0 -34 -30 -57t-76 -23q-39 0 -99 20q-33 11 -43 11q-25 0 -58 -30l-23 18q36 60 85 60q22 0 48 -12zM179 680q39 -13 64 -13q54 0 54 37q0 31 -38 31q-42 0 -80 -55z" />
<glyph unicode="&#xe005;" horiz-adv-x="0" d="M144 935v-191l-22 -18h-22v209h44zM244 688v-110q0 -19 -12 -33q-13 -14 -35 -14h-47l-13 14h-1q-3 -4 -8 -8q-9 -6 -20 -6h-61q-21 0 -34 14q-13 13 -13 33v68l22 18h21v-84q0 -5 3 -8q5 -6 12 -6h28q7 0 11 4q3 5 3 10v84h44v-98h43q7 0 10 5q4 3 4 9v108h43z" />
<glyph unicode="&#xe006;" horiz-adv-x="0" d="M110 810q-31 24 -31 64q0 33 23 55.5t57 22.5q32 0 53 -22.5t21 -55.5q0 -70 -81 -95l-122 -34l-18 21v17zM157 825q33 17 33 49q0 39 -33 39q-34 0 -34 -40q0 -37 34 -48zM244 682v-110q0 -19 -12 -33q-13 -14 -35 -14h-47l-13 14h-1q-3 -4 -8 -8q-9 -6 -20 -6h-61 q-21 0 -34 14q-13 12 -13 33v68l22 18h21v-84q0 -5 3 -8q5 -6 12 -6h28q7 0 11 4q3 5 3 10v84h44v-98h43q7 0 10 5q4 3 4 9v108h43z" />
<glyph unicode="&#xe007;" horiz-adv-x="0" d="M211 796q-38 23 -38 68q0 33 23 55t56 22q32 0 53.5 -21.5t21.5 -54.5q0 -47 -40.5 -81.5t-97.5 -34.5q-64 0 -106 46l-40 -36l-31 3l-12 12l92 82q32 -64 96 -64q12 0 23 4zM253 814q31 18 31 50q0 39 -33 39q-34 0 -34 -40q0 -15 11 -30t25 -19zM294 682v-110 q0 -19 -12 -33q-13 -14 -35 -14h-47l-13 14h-1q-3 -4 -8 -8q-10 -6 -21 -6h-60q-21 0 -34 14q-13 12 -13 33v68l21 18h22v-84q0 -5 3 -8q5 -6 11 -6h29q6 0 10 4q4 5 4 10v84h44v-98h43q6 0 10 5q4 4 4 9v108h43z" />
<glyph unicode="&#xe008;" horiz-adv-x="0" d="M230 843v-43l-199 -55l-17 21v17zM244 682v-110q0 -19 -12 -33q-13 -14 -35 -14h-47l-13 14h-1q-3 -4 -8 -8q-9 -6 -20 -6h-61q-21 0 -34 14q-13 12 -13 33v68l22 18h21v-84q0 -5 3 -8q5 -6 12 -6h28q7 0 11 4q3 5 3 10v84h44v-98h43q7 0 10 5q4 3 4 9v108h43z" />
<glyph unicode="&#xe009;" horiz-adv-x="0" d="M232 935v-43l-210 -58l-17 21v17zM230 843v-43l-199 -55l-17 21v17zM244 682v-110q0 -19 -12 -33q-13 -14 -35 -14h-47l-13 14h-1q-3 -4 -8 -8q-9 -6 -20 -6h-61q-21 0 -34 14q-13 12 -13 33v68l22 18h21v-84q0 -5 3 -8q5 -6 12 -6h28q7 0 11 4q3 5 3 10v84h44v-98h43 q7 0 10 5q4 3 4 9v108h43z" />
<glyph unicode="&#xe00a;" horiz-adv-x="0" d="M244 842v-111q0 -18 -12 -32q-13 -15 -35 -15h-47l-13 14h-1q-3 -3 -8 -7q-9 -7 -20 -7h-61q-21 0 -34 14q-13 13 -13 33v69l22 18h21v-84q0 -5 3 -9q5 -5 12 -5h28q7 0 11 4q3 4 3 10v84h44v-98h43q7 0 10 5q4 3 4 9v108h43zM230 576l-199 -54l-17 21v17l216 60v-44z " />
<glyph unicode="&#xe00b;" horiz-adv-x="0" d="M244 951v-110q0 -19 -12 -32q-13 -15 -35 -15h-47l-13 14h-1q-3 -4 -8 -8q-9 -6 -20 -6h-61q-21 0 -34 14q-13 13 -13 33v68l22 18h21v-83q0 -5 3 -9q5 -6 12 -6h28q7 0 11 5q3 4 3 10v83h44v-98h43q7 0 10 5q4 4 4 10v107h43zM231 688l-199 -55l-18 22v17l217 59v-43z M231 596l-199 -55l-18 22v17l217 59v-43z" />
<glyph unicode="&#xe00c;" horiz-adv-x="0" d="M49 99q21 0 35.5 -14.5t14.5 -35.5q0 -20 -14.5 -34.5t-35.5 -14.5q-20 0 -34.5 14.5t-14.5 34.5q0 21 14.5 35.5t34.5 14.5z" />
<glyph unicode="&#xe00f;" horiz-adv-x="1656" d="M711 716v-707q0 -120 -73 -185q-71 -63 -192 -63h-111q-119 0 -190 61q-76 65 -76 187v209l43 35h42v-242q0 -100 52.5 -139.5t184.5 -39.5q124 0 175 34q60 41 60 145v705h85zM957 716v-607q0 -16 11 -27t27 -11h148q17 0 28 12q10 10 10 26v351h85v-365q0 -37 -24 -64 q-27 -31 -66 -31h-213q-32 0 -57 21q-34 29 -34 74v621h85zM1587 460v-451q0 -111 -63 -175q-49 -50 -132 -66q-31 -6 -70 -6q-25 0 -46 1l-33 41v32q29 -4 63 -4q196 0 196 180v448h85zM1010 -104q20 0 34.5 -14.5t14.5 -34.5q0 -21 -14.5 -35.5t-34.5 -14.5 q-21 0 -35 14.5t-14 35.5q0 20 14.5 34.5t34.5 14.5zM1131 -104q21 0 35.5 -14.5t14.5 -34.5q0 -21 -14.5 -35.5t-35.5 -14.5q-20 0 -34.5 14.5t-14.5 35.5q0 20 14.5 34.5t34.5 14.5z" />
<glyph unicode="&#xe010;" horiz-adv-x="618" d="M324 690q-2 -5 -8 -5t-6 12q0 8 3 12h2q-2 -4 -2 -7q0 -9 7 -9q4 0 4 7q0 3 -1 9l4 4q2 -7 2 -17q2 -2 4 -2q4 0 4 4q0 2 -1 6q-2 5 -2 7q0 4 2 5h1q0 -2 2 -7q3 -5 3 -12q0 -10 -10 -10q-5 0 -8 3zM218 659l-4 2q34 15 41 27q-13 7 -13 13q0 14 17 14q8 0 8 -10 q0 -7 -3 -14l6 -2l-2 -6q-3 1 -7 2q-1 1 -2 1q-11 -15 -41 -27zM501 243q23 4 67 27q1 0 2 1l3 -3l-8 -34q-45 -29 -101 -29q-53 0 -68 31q-9 -29 -35 -29q-27 0 -34 27q-45 -47 -78 -47q-10 0 -21 3v-44q0 -35 40 -35q37 0 136 37q4 2 8 3q50 19 61 19q19 0 19 -23 q0 -27 -38 -55l-4 6q24 20 24 35q0 7 -7 7q-5 0 -13 -2q-16 -5 -60 -21q-92 -35 -128 -35q-25 0 -37 14q2 -28 11 -38q37 -17 37 -21q0 -7 -5.5 -15t-9.5 -8q-5 0 -16 6q-20 10 -36 10q-18 0 -55 -21q-39 -21 -57 -21q-20 0 -32.5 19.5t-12.5 50.5t17.5 56.5t44.5 34.5h2 l2 -4q-21 -8 -36.5 -33.5t-15.5 -52.5q0 -43 29 -43q24 0 65 23q34 19 51 22q-4 17 -4 48v88q-22 15 -37 48q-3 -2 -15 -21q-37 -62 -62 -62q-20 0 -32.5 20t-12.5 51q0 30 17.5 56t44.5 35h2l1 -5q-20 -7 -35.5 -33t-15.5 -53q0 -42 29 -42q22 0 43 31q2 4 10 18 q21 32 31 32q8 0 15 -16l1 -1q8 -18 16 -24v115l-56 -1q-99 0 -99 40q0 36 37 54q8 4 26 12q46 19 46 46l-1 187q0 13 18 29h2l1 -219q0 -33 26 -49v38q0 16 19 28h2v-75h5q8 -1 12 -1q71 0 140 31v24q0 14 20 28h1l1 -42q20 11 27 11q6 0 6 -6q0 -3 -3 -11q-1 -4 -1 -9 q0 -14 13 -21q32 75 74 75q19 0 33 -12.5t14 -29.5q0 -27 -29 -47.5t-68 -20.5q-15 0 -26 5q-3 -4 -8 -11l-4 -6h-3q1 11 5 23q-16 13 -20 39l-10 -6v-70l123 3q44 0 44 -27q0 -12 -10 -25l-4 1q0 22 -30 22l-123 -3v-68q0 -44 60 -44q-14 21 -14 41q0 23 15.5 40t35.5 17 q27 0 55 -23l-2 -9q-19 5 -35 5q-35 0 -50 -25q2 -24 28 -41zM452 515h-4l-5 169q-2 3 -2 6q0 13 10 23h3q20 -29 20 -58q0 -1 -1 -2h-1l-10 10l4 -112q0 -25 -14 -36zM247 702q3 -3 11 -7q1 4 1 7q0 5 -4 5q-3 0 -8 -5zM267 618q-3 -6 -8 -29q-12 -59 -29 -59q-25 0 -25 62 q0 19 3 34h1l2 -3q-1 -9 -1 -15q0 -52 20 -52q11 0 23 50q11 46 24 46q5 0 5 -11q0 -8 -2 -24q-3 -12 -3 -24q0 -36 18 -36q35 0 35 56q0 24 -4 44q2 13 14 23h2q7 -18 6 -75v-12q0 -37 25 -37q24 0 34 21q-1 13 -12 46q-13 37 -13 40q0 4 6 15q2 3 3 4h2l2 -2q1 -2 2 -2 q18 -23 19 -29l-1 -1l-8 3q2 -11 8 -29q7 -24 7 -37q0 -22 -13 -38.5t-32 -16.5q-34 0 -43 33q-11 -33 -37 -33q-33 0 -33 58q0 14 3 30zM251 460l7 12l20 8q57 21 96 29l-6 -12q-34 -5 -102 -32zM547 461q-6 24 -23 24q-30 0 -58 -49h12q45 0 69 25zM208 375v36 q-35 10 -44 45q-12 -19 -55 -34q-34 -12 -39 -24q9 -24 99 -24zM229 406v-31q32 0 102 3q33 1 55 1v58q-66 -31 -142 -31h-15zM346 250q8 -11 20 -11q27 0 24 58v10q0 21 -1 43l-161 -4v-127q10 -5 21 -5q34 0 77 48q6 6 10 6t8 -12q2 -4 2 -6zM252 269l6 11q6 3 21 8 q57 22 96 30l-7 -12q-32 -5 -94 -29q-14 -5 -22 -8zM126 309h3q-6 -17 -6 -29q0 -11 5 -11t7 7h1q0 -22 -14 -22q-9 0 -9 17q0 23 13 38zM340 175l14 14l21 -19l-21 -22l-14 15l-15 -15l-19 22l19 19zM552 85q-5 3 -21 5q-33 5 -33 26q0 19 12 34t27 15q35 0 35 -54 q0 -46 -34 -84.5t-74 -38.5q-20 0 -34 14t-14 35q0 32 26 54l3 -6q-14 -12 -14 -31q0 -37 34 -37q23 0 47.5 19t39.5 49zM554 116q-1 0 -3 5q-9 17 -19 17q-15 0 -15 -11q0 -5 18 -8q13 -2 19 -3zM124 96q-4 -3 -7 -3q-5 0 -5 9q0 10 9 10q6 0 13 -11q3 16 13 16q8 0 8 -7 q0 -3 -2 -8v-4h-1q-1 5 -4 6q-8 0 -10 -27l-2 -2q0 21 -12 21zM335 51v2q5 -2 11 -2q10 0 20 7q-12 6 -20 6q-3 0 -5 -1l-2 1q0 11 15 11q3 0 10 -2q8 -3 13 -4q6 0 6 -2q0 -7 -10 -14.5t-21 -7.5q-9 0 -17 6zM386 22l8 7q5 -6 5 -19q0 -11 -12 -11q-7 0 -11 6q-4 -6 -11 -6 t-10 6q-12 -7 -36 -7q-12 0 -27 2v2h11q44 0 55 17h2q0 -9 7 -9q8 0 8 11h2q0 -11 13 -11q-2 11 -4 12z" />
<glyph unicode="&#xe015;" horiz-adv-x="669" d="M154 174v-163q0 -99 52 -139t181 -40q124 0 173 31q63 38 66 137h-76l-35 43v28h223v-71h-27q-3 -121 -83 -184q-70 -55 -182 -55h-111q-125 0 -197 67q-69 65 -69 181v130l43 35h42z" />
<glyph unicode="&#xe016;" horiz-adv-x="669" d="M154 174v-163q0 -99 52 -139t181 -40q124 0 173 31q63 38 66 137h-76l-35 43v28h223v-71h-27q-3 -121 -83 -184q-70 -55 -182 -55h-111q-125 0 -197 67q-69 65 -69 181v130l43 35h42zM329 -297q20 0 34.5 -14.5t14.5 -35.5q0 -20 -14.5 -34.5t-34.5 -14.5t-34.5 14.5 t-14.5 34.5q0 21 14.5 35.5t34.5 14.5zM451 -297q20 0 34.5 -14.5t14.5 -35.5q0 -20 -14.5 -34.5t-34.5 -14.5q-21 0 -35.5 14.5t-14.5 34.5q0 21 14.5 35.5t35.5 14.5z" />
<glyph unicode="&#xe017;" horiz-adv-x="687" d="M113 321q-21 27 -21 66t23 62.5t61 23.5q23 0 48 -8v-41q-18 5 -35 5q-52 0 -52 -53q0 -19 13 -35q16 -20 43 -20h64v-17l-20 -24h-168v41h44zM177 174v-163q0 -99 52.5 -139t180.5 -40q124 0 173 30q63 39 66 138h-76l-35 43v28h218v-71h-22q-3 -121 -83 -184 q-70 -55 -182 -55h-111q-125 0 -197 67q-69 65 -69 181v130l43 35h42z" />
<glyph unicode="&#xe018;" horiz-adv-x="935" d="M888 460v-365q0 -13 -3 -24h54v-71h-36l-33 35h-2q-28 -35 -70 -35h-572q-56 0 -99 37q-58 48 -58 128v188l43 35h42v-223q0 -39 27 -66q29 -28 69 -28h515q17 0 29 12q9 10 9 26v351h85z" />
<glyph unicode="&#xe019;" horiz-adv-x="308" d="M261 460v-365q0 -12 -3 -24h53v-71h-39l-29 35h-3q-27 -35 -70 -35h-174v71h142q16 0 26 10q12 11 12 28v351h85z" />
<glyph unicode="&#xe01f;" horiz-adv-x="715" d="M148 673h43q54 0 95 -97q30 -70 30 -125q0 -72 -38.5 -113t-106.5 -41q-69 0 -107 40.5t-38 113.5q0 106 56 175q14 18 35 32.5t31 14.5zM609 673l-396 -673h-72l396 673h72zM176 624h-10q-35 -14 -56.5 -60.5t-21.5 -108.5q0 -106 83 -106q33 0 53 17q29 24 30 90 q0 59 -24 109q-21 46 -54 59zM539 403h23q16 -3 31 -30q14 -24 21 -54l77 -319h-65l-75 334l-75 -334h-65l76 319q9 32 21 54q15 27 31 30z" />
<glyph unicode="&#xe020;" horiz-adv-x="589" d="M492 673l-397 -673h-72l396 673h73zM133 673v-379l-30 -24h-37v403h67zM421 403h23q17 -3 31 -30q15 -24 22 -54l76 -319h-65l-75 334l-75 -334h-65l77 319q8 32 20 54q15 27 31 30z" />
<glyph unicode="&#xe021;" horiz-adv-x="641" d="M492 673l-397 -673h-72l396 673h73zM133 673v-379l-30 -24h-37v403h67zM354 256q0 157 156 157q57 0 104 -18v-57q-46 16 -84 16q-51 0 -80.5 -28t-29.5 -77v-225l-30 -24h-36v256z" />
<glyph unicode="&#xe022;" horiz-adv-x="611" d="M492 673l-397 -673h-72l396 673h73zM133 673v-379l-30 -24h-37v403h67zM417 211q-50 36 -50 96q0 50 35 81t93 31q39 0 73 -15v-46q-25 10 -54 10q-36 0 -58 -17t-22 -45q0 -61 79 -61h47v-25l-27 -28h-17q-36 0 -62 -18q-34 -23 -34 -56q0 -28 18 -43q19 -17 57 -17h96 v-23l-28 -35h-80q-58 0 -94 26q-41 30 -41 83q0 39 26 69q18 22 43 33z" />
<glyph unicode="&#xe023;" horiz-adv-x="827" d="M492 673l-397 -673h-72l396 673h73zM133 673v-379l-30 -24h-37v403h67zM464 405v-147q21 -4 38 -4q41 0 56 17q13 14 13 45v88h58v-92q-1 -21 -5 -38l-1 -4q31 -15 62 -15q36 0 51 16q14 15 14 46v87h56v-91q0 -35 -8 -56q-7 -20 -22 -33q-28 -23 -75 -23q-64 0 -101 26 q-34 -26 -79 -26q-25 0 -57 7v-184l-30 -24h-37v405h67z" />
<glyph unicode="&#xe024;" horiz-adv-x="668" d="M305 675l-77 -319q-7 -30 -21 -54q-15 -27 -31 -30h-23q-16 3 -31 30q-12 22 -21 54l-76 319h65l75 -334l75 334h65zM570 673l-396 -673h-72l396 673h72zM500 403h23q16 -3 31 -30q14 -24 22 -54l76 -319h-65l-75 334l-75 -334h-65l76 319q9 32 21 54q15 27 31 30z" />
<glyph unicode="&#xe025;" horiz-adv-x="765" d="M112 675v-147q22 -4 38 -4q42 0 57 17q13 14 13 45v88h58v-92q-2 -20 -5 -37l-1 -5q31 -15 62 -15q36 0 51 16q14 15 14 46v87h56v-90q0 -36 -8 -57q-7 -20 -23 -33q-27 -23 -74 -23q-64 0 -101 26q-34 -26 -80 -26q-24 0 -57 7v-183l-30 -25h-36v405h66zM662 673 l-396 -673h-72l396 673h72zM592 403h23q16 -3 31 -30q14 -24 21 -54l77 -319h-65l-75 334l-75 -334h-65l76 319q9 32 21 54q15 27 31 30z" />
<glyph unicode="&#xe026;" horiz-adv-x="768" d="M112 675v-147q22 -4 38 -4q42 0 57 17q13 14 13 45v88h58v-92q-2 -20 -5 -37l-1 -5q31 -15 62 -15q36 0 51 16q14 15 14 46v87h56v-90q0 -36 -8 -57q-7 -20 -23 -33q-27 -23 -74 -23q-64 0 -101 26q-34 -26 -80 -26q-24 0 -57 7v-183l-30 -25h-36v405h66zM649 673 l-397 -673h-72l396 673h73zM574 211q-50 36 -50 96q0 50 35 81t93 31q39 0 73 -15v-46q-25 10 -54 10q-37 0 -58.5 -17t-21.5 -45q0 -61 79 -61h47v-25l-27 -28h-17q-36 0 -62 -18q-34 -23 -34 -56q0 -28 18 -43q19 -17 57 -17h96v-23l-28 -35h-80q-58 0 -94 26 q-41 30 -41 83q0 39 26 69q18 22 43 33z" />
<glyph unicode="&#xe027;" horiz-adv-x="847" d="M51 525q0 157 157 157q56 0 103 -17v-57q-46 15 -84 15q-51 0 -80.5 -28t-29.5 -77v-224l-30 -25h-36v256zM515 673l-397 -673h-72l396 673h73zM486 405v-147q22 -4 38 -4q42 0 56 17q14 14 14 45v88h57v-92q-1 -21 -4 -38l-1 -4q31 -15 62 -15q36 0 51 16q13 15 13 46 v87h57v-91q0 -35 -8 -56q-8 -20 -23 -33q-27 -23 -74 -23q-64 0 -102 26q-34 -26 -78 -26q-26 0 -58 7v-184l-30 -24h-36v405h66z" />
<glyph unicode="&#xe028;" horiz-adv-x="0" d="M49 99q21 0 35.5 -14.5t14.5 -35.5q0 -20 -14.5 -34.5t-35.5 -14.5q-20 0 -34.5 14.5t-14.5 34.5q0 21 14.5 35.5t34.5 14.5z" />
<glyph unicode="&#xe030;" horiz-adv-x="935" d="M888 460v-365q0 -13 -3 -24h54v-71h-36l-33 35h-2q-28 -35 -70 -35h-572q-56 0 -99 37q-58 48 -58 128v188l43 35h42v-223q0 -39 27 -66q29 -28 69 -28h515q17 0 29 12q9 10 9 26v351h85z" />
<glyph unicode="&#xe031;" horiz-adv-x="308" d="M261 460v-365q0 -12 -3 -24h53v-71h-39l-29 35h-3q-27 -35 -70 -35h-174v71h142q16 0 26 10q12 11 12 28v351h85z" />
<glyph unicode="&#xe032;" horiz-adv-x="330" d="M261 460v-365q0 -37 -24 -64q-27 -31 -67 -31h-174v71h142q17 0 28 12q10 10 10 26v351h85z" />
<glyph unicode="&#xe033;" horiz-adv-x="961" d="M572 71q-63 68 -63 170q0 97 53 159q61 72 162 72q90 0 150 -59q66 -65 66 -172q0 -100 -63 -170h87v-71h-143h-12q-59 0 -83 8h-3q-24 -8 -84 -8h-12h-401q-60 0 -104 41q-53 49 -53 124v188l43 35h42v-223q0 -38 26 -65q28 -29 70 -29h322zM855 240q0 74 -35.5 117 t-95.5 43q-63 0 -97 -45q-32 -42 -32 -117q0 -70 37 -117t92 -50q65 3 102 64q29 47 29 105z" />
<glyph unicode="&#xe034;" horiz-adv-x="602" d="M213 71q-63 69 -63 170q0 97 53 159q61 72 162 72q81 0 138 -48q78 -65 78 -183q0 -100 -63 -170h87v-71h-144h-11q-59 0 -83 8h-4q-24 -8 -83 -8h-12h-272v71h217zM365 400q-61 0 -95.5 -43t-34.5 -119q0 -69 37.5 -117t92.5 -50q55 2 92.5 50t37.5 117q0 76 -34.5 119 t-95.5 43z" />
<glyph unicode="&#xe035;" horiz-adv-x="630" d="M220 71q-38 35 -56 87q-14 42 -14 83q0 107 64 170q63 61 171 61q82 0 131 -42q57 -48 59 -140v-195q0 -39 -27 -67q-26 -28 -63 -28h-489v71h224zM489 290q0 56 -33 86q-26 24 -71 24q-83 0 -122 -58q-28 -40 -28 -104q1 -68 44 -116q45 -51 119 -51h54q37 0 37 38v181z " />
<glyph unicode="&#xe036;" horiz-adv-x="740" d="M515 0q-106 0 -168 69q-58 64 -58 169q0 117 74 181q60 53 156 53q79 0 129 -39q63 -49 63 -143v-219h32v-71h-32q-3 -123 -85 -186q-70 -53 -180 -53h-111q-124 0 -195 65t-71 183v141l43 35h42v-174q0 -99 52.5 -138.5t183.5 -39.5q121 0 171 31q62 38 65 136h-111z M626 290q0 53 -34 85q-29 25 -73 25q-70 0 -109 -48q-35 -45 -35 -122q0 -70 37 -114q38 -45 103 -45h111v219z" />
<glyph unicode="&#xe053;" horiz-adv-x="682" d="M669 674v-78q-73 0 -129 -44q-61 -47 -114 -146q-102 190 -240 190h-9v-561l-43 -35h-42v674h89q79 0 133 -30q42 -24 111 -111q70 87 112 111q53 30 132 30z" />
<glyph unicode="&#xe054;" horiz-adv-x="633" d="M470 604v-104l-382 -429h513v-28l-35 -43h-466q-40 0 -63.5 21t-23.5 58t35 75z" />
<glyph unicode="&#xe060;" horiz-adv-x="1123" d="M740 1090v-191l-22 -18h-22v209h44zM840 842v-110q0 -19 -12 -32q-13 -15 -35 -15h-47l-13 14h-1q-3 -4 -8 -8q-10 -6 -20 -6h-61q-21 0 -34 14q-13 13 -13 33v68l22 18h21v-83q0 -6 3 -9q5 -6 11 -6h29q6 0 11 5q3 4 3 10v83h44v-98h43q7 0 10 5q4 4 4 10v107h43z M1049 613v-518q0 -41 -27 -68t-63 -27h-181l-33 35h-3q-11 -14 -29 -25q-20 -10 -41 -10h-188q-46 0 -73 35q-66 -46 -135 -46q-85 0 -146 54q-75 66 -75 188q0 109 72 181q64 65 157 65q53 0 107 -24l43 35h42v-379q0 -18 10 -28q9 -10 20 -10h134q16 0 26 11q11 10 11 27 v504h86v-518q0 -12 -3 -24h166q18 0 29 12q9 10 9 26v504h85zM391 383q-44 22 -89 22q-76 0 -123 -60q-39 -49 -39 -116q0 -78 41 -124q38 -44 97 -44q54 0 113 29v293z" />
<glyph unicode="&#xea26;" horiz-adv-x="719" d="M290 539q-68 45 -68 126q0 55 36 91.5t90 36.5q57 0 92.5 -37t35.5 -96q0 -31 -14 -60q-17 -35 -52 -58q109 -54 178 -141q83 -105 83 -238q0 -127 -86 -216q-87 -89 -252 -89l-26 32v26q133 0 212 65q81 66 81 182q0 97 -50 174q-32 49 -71 81.5t-129 83.5 q-240 -129 -240 -293q0 -60 30.5 -106t80.5 -61v-25l-20 -24q-76 27 -111 75q-45 62 -46 147q0 89 49 162q37 52 69.5 79t127.5 83zM350 578q61 28 61 83q0 30 -17.5 50t-43.5 20q-27 0 -44 -20t-17 -50q0 -55 61 -83zM424 111q-29 -11 -67 -12q-52 0 -89 31q-48 42 -48 119 q0 64 36 102q38 40 103 40q48 0 79 -25q37 -30 37 -85v-171q0 -69 -57 -106q-44 -29 -105 -29q-10 0 -24 1l-22 28v25q18 -2 39 -2q52 0 84.5 23t33.5 61zM410 274q0 32 -22 47q-12 9 -31 9q-35 0 -54 -23t-19 -65q0 -86 76 -86q26 0 50 10v108z" />
<glyph unicode="&#xfbb2;" horiz-adv-x="0" d="M49 654q21 0 35.5 -14.5t14.5 -35.5q0 -20 -14.5 -34.5t-35.5 -14.5q-20 0 -34.5 14.5t-14.5 34.5q0 21 14.5 35.5t34.5 14.5z" />
<glyph unicode="&#xfbb3;" horiz-adv-x="0" d="M49 -90q21 0 35.5 -14t14.5 -35q0 -20 -14.5 -34.5t-35.5 -14.5q-20 0 -34.5 14.5t-14.5 34.5q0 21 14.5 35t34.5 14z" />
<glyph unicode="&#xfbb4;" horiz-adv-x="0" d="M49 668q21 0 35.5 -14.5t14.5 -35.5q0 -20 -14.5 -34.5t-35.5 -14.5q-20 0 -34.5 14.5t-14.5 34.5q0 21 14.5 35.5t34.5 14.5zM171 668q20 0 34.5 -14.5t14.5 -35.5q0 -20 -14.5 -34.5t-34.5 -14.5q-21 0 -35 14.5t-14 34.5q0 21 14 35.5t35 14.5z" />
<glyph unicode="&#xfbb5;" horiz-adv-x="0" d="M49 -101q21 0 35.5 -14.5t14.5 -35.5q0 -20 -14.5 -34.5t-35.5 -14.5q-20 0 -34.5 14.5t-14.5 34.5q0 21 14.5 35.5t34.5 14.5zM171 -101q20 0 34.5 -14.5t14.5 -35.5q0 -20 -14.5 -34.5t-34.5 -14.5q-21 0 -35 14.5t-14 34.5q0 21 14 35.5t35 14.5z" />
<glyph unicode="&#xfbb6;" horiz-adv-x="0" d="M110 769q19 0 33 -14t14 -33q0 -20 -14 -33.5t-33 -13.5t-33 13.5t-14 33.5q0 19 14 33t33 14zM49 672q21 0 35.5 -14t14.5 -35q0 -20 -14.5 -34.5t-35.5 -14.5q-20 0 -34.5 14.5t-14.5 34.5q0 21 14.5 35t34.5 14zM171 672q20 0 34.5 -14t14.5 -35q0 -20 -14.5 -34.5 t-34.5 -14.5q-21 0 -35 14.5t-14 34.5q0 21 14 35t35 14z" />
<glyph unicode="&#xfbb7;" horiz-adv-x="0" d="M110 -90q19 0 33 -13.5t14 -33.5q0 -19 -14 -33t-33 -14t-33 14t-14 33t14 33t33 14zM49 -186q21 0 35.5 -14.5t14.5 -34.5q0 -21 -14.5 -35.5t-35.5 -14.5q-20 0 -34.5 14.5t-14.5 35.5q0 20 14.5 34.5t34.5 14.5zM171 -186q20 0 34.5 -14.5t14.5 -34.5 q0 -21 -14.5 -35.5t-34.5 -14.5q-21 0 -35 14.5t-14 35.5q0 20 14 34.5t35 14.5z" />
<glyph unicode="&#xfbb9;" horiz-adv-x="0" d="M49 -108q21 0 35.5 -14.5t14.5 -35.5q0 -20 -14.5 -34.5t-35.5 -14.5q-20 0 -34.5 14.5t-14.5 34.5q0 21 14.5 35.5t34.5 14.5zM171 -108q20 0 34.5 -14.5t14.5 -35.5q0 -20 -14.5 -34.5t-34.5 -14.5q-21 0 -35 14.5t-14 34.5q0 21 14 35.5t35 14.5zM110 -209 q19 0 33 -14t14 -33q0 -20 -14 -33.5t-33 -13.5t-33 13.5t-14 33.5q0 19 14 33t33 14z" />
<glyph unicode="&#xfd3e;" horiz-adv-x="550" d="M391 716l27 -21q-79 -111 -106 -257h65l-56 -55l-46 46l-47 -46l-57 55h65q28 160 126 278h29zM113 380l56 -56l-44 -46l44 -44l-56 -57v64l-76 29v18l76 28v64zM438 380v-64l75 -28v-18l-75 -29v-64l-57 55l45 46l-45 46zM275 335l54 -55l-54 -54l-54 54zM321 175 l56 -55h-62q22 -92 93 -205l-27 -21h-28q-84 97 -116 226h-66l57 55l47 -46z" />
<glyph unicode="&#xfd3f;" horiz-adv-x="550" d="M159 716h29q98 -118 126 -278h65l-58 -55l-46 46l-47 -46l-55 55h65q-27 145 -106 257zM112 380l57 -56l-45 -46l45 -46l-57 -55v64l-75 29v18l75 28v64zM437 380v-64l76 -28v-18l-76 -29v-64l-56 57l44 44l-44 46zM275 335l54 -55l-54 -54l-54 54zM321 175l58 -55h-66 q-33 -130 -116 -226h-28l-28 21q72 111 94 205h-62l55 55l47 -46z" />
<glyph unicode="&#xfdfd;" horiz-adv-x="2711" d="M1690 608q26 36 48 36q13 0 13 -13q0 -17 -17 -32.5t-35 -15.5q-5 0 -16 1q-9 1 -13 1q-25 0 -53 -30q-25 -28 -42 -37l36 -68l-2 -2l-30 24q6 -33 17 -101q22 -130 22 -152q0 -74 -71 -92q-70 -17 -96 -30t-70 -54q-35 -33 -66 -33q-20 0 -33.5 16.5t-13.5 40.5 q0 50 37 113q-35 -12 -64 -12q-37 0 -66 19q-4 -39 -25 -39q-23 0 -69 39q-31 -41 -64 -42q2 -14 2 -25q0 -68 -91 -119q-70 -40 -131 -40q-48 0 -76.5 30.5t-28.5 81.5q0 31 11 64q-10 -6 -26 -10q-70 -17 -96 -30t-70 -54q-35 -33 -66 -33q-20 0 -33.5 16.5t-13.5 40.5 q0 53 49 136q-28 -11 -49 -15q1 -8 1 -15q0 -9 -4 -19l-1 1q-1 9 -8 29q-18 -3 -32 -3q-61 0 -103 68q-6 9 -12 9q-16 0 -91 -60q32 -30 32 -64v-10v-9q-12 -3 -17 -3q-41 0 -60 45q-38 -34 -38 -59q0 -18 20 -115q8 -43 8 -75q0 -27 -6 -63h-3q-3 50 -22 143 q-16 78 -16 108q0 57 45 92l18 15q47 44 100 79q32 21 44 21q10 0 16 -12q21 -43 36.5 -56t47.5 -13q10 0 21 1q-2 6 -5 17q-9 28 -9 42q0 29 16.5 49t40.5 20q21 0 84 -22q46 -17 68 -22q34 -8 69 -8l1 -2l-20 -35q-13 2 -24 2q-17 0 -40 -12q-61 -31 -98 -45q-1 -4 -7 -15 q-39 -75 -39 -112q0 -38 31 -38q21 0 41 17q58 52 88.5 69t88.5 31q40 9 53.5 19t13.5 30q0 52 -47 294l-6 7l11 42h2l14 -26q12 8 50 54q25 29 56 29h13q26 36 48 36q13 0 13 -13q0 -17 -17 -32.5t-35 -15.5q-5 0 -16 1q-9 1 -13 1q-25 0 -53 -30q-25 -28 -42 -37l36 -68 l-2 -2l-30 24q6 -33 17 -101q22 -130 22 -152q0 -48 -29 -72q-13 -37 -13 -66q0 -34 26.5 -56.5t67.5 -22.5q60 0 136 42q64 35 64 62t-26 68l11 40h1q17 -30 22 -30q23 0 42 12.5t51 49.5q14 16 26 16q16 0 55 -35q21 -18 66 -18q51 0 149 49l-44 14q-21 7 -37 7 q-18 0 -22 -10l-48 4q11 52 55 52q17 0 40 -8l62 -20q50 -17 153 -24l1 -1l-28 -36q-27 6 -39 6q-33 0 -87 -22l-88 -37q-34 -65 -34 -103t31 -38q21 0 41 17q58 52 88.5 69t88.5 31q40 9 53.5 19t13.5 30q0 52 -47 294l-6 7l11 42h2l14 -26q12 8 50 54q25 29 56 29h13z M2210 608q26 36 48 36q13 0 13 -13q0 -17 -16.5 -32.5t-34.5 -15.5q-5 0 -16 1q-9 1 -13 1q-26 0 -53 -30q-40 -43 -65 -43l-1 1q26 14 70 66q25 29 55 29h13zM1995 526h-2q3 11 3 19q0 24 -32 62l2 18q0 4 2 4q7 0 21.5 -27.5t14.5 -42.5q0 -16 -9 -33zM863 615q-4 3 -9 3 q-12 0 -19 -12q19 0 28 9zM1733 615q-4 3 -9 3q-12 0 -19 -12q19 0 28 9zM2254 615q-5 3 -9 3q-12 0 -19 -12q18 0 28 9zM1398 559v-2q-61 -45 -222 -92.5t-253 -47.5h-3v3q189 41 478 139zM641 538q-61 -81 -168 -81q-18 0 -47 3v2q132 17 215 80v-4zM818 109h-2q2 11 2 24 q0 25 -6 58l-48 302l-6 7l11 42h1l54 -101l-2 -2l-29 24q42 -264 42 -288v-1q0 -31 -17 -65zM1692 439l-29 24q42 -264 42 -288v-1q0 -31 -17 -65h-2q2 11 2 24q0 25 -6 58l-48 302l-6 7l11 42h1l54 -101zM2215 123l-2 -1q1 10 1 23q0 25 -5 60l-49 288l-6 7l11 42h2 l54 -101l-2 -2l-29 24l14 -86q27 -164 27 -188v-2q0 -30 -16 -64zM1965 487l-6 2l-1 2q4 20 13 20q5 0 5 -8q0 -47 12 -47q10 0 10 20q0 12 -5 30l8 16q5 -9 7 -33q0 -28 16 -28q4 0 8 3q0 6 -6 20q-7 16 -7 24q0 9 7 16l1 -1q0 -14 8 -34q6 -14 6 -20q0 -24 -21 -25 q-11 0 -16 11q-8 -17 -17 -17q-22 0 -22 49zM1850 429q-18 -42 -73 -68q-25 -12 -61 -18v1q34 12 75.5 40.5t48.5 44.5q-25 0 -25 23q0 13 9 21q0 23 13 23q7 0 17 -6q35 -22 35 -45q0 -16 -21 -16h-9h-9zM1299 405q0 14 10 39.5t15 25.5q1 0 1 -1v-3v-5q0 -1 -1 -5 q-1 -1 -1 -2q0 -3 15 -13q8 -7 8 -20q0 -38 -29 -38q-18 0 -18 22zM1846 448v2q0 15 -7 15q-10 0 -10 -11q0 -2 11 -4zM1877 445q-9 12 -22 19q1 -2 1 -8q0 -4 -1 -9q9 -2 22 -2zM2298 395q-27 2 -27 22q0 12 10 12q28 0 42 -52q10 68 34 68q15 0 15 -20q0 -6 -3 -6h-2 q-3 2 -8 2q-17 0 -32 -66q-2 -11 -3 -14l-6 -2q-3 32 -20 56zM1869 362h2q2 -9 8 -30q5 -16 7 -25q23 22 39 41v-2q0 -3 -1 -8q0 -4 -1 -6q-3 -20 -15 -33q-6 -7 -13 -14q-1 0 -2 -1q1 -3 7 -29q22 -97 57 -97q51 0 51 51q0 53 -16 161v1q-1 1 -1 2q0 2 8 23q5 13 9 24h2 q18 -128 22 -166q5 -46 17.5 -64t38.5 -18q27 0 42 21l-31 196l-9 8l15 42h1l44 -86l-2 -1l-21 13l18 -113q4 -26 4 -36q0 -34 -20.5 -58.5t-47.5 -24.5q-43 0 -58 48q-18 -63 -68 -63q-46 0 -67 92q-7 -21 -29.5 -36.5t-46.5 -15.5q-21 0 -21 20q0 44 63 100l7 7q5 4 6 5 l-8 29v1q0 4 5 22l2 6q2 9 3 14zM547 400l-1 1q5 20 14 20q4 0 4 -7q0 -47 12 -47q11 0 11 20q0 11 -5 30l7 15q6 -8 8 -32q0 -29 15 -29q5 0 9 4q0 6 -6 20l-1 2q-5 11 -5 16q-1 3 -1 6q0 9 7 16l1 -1q0 -14 8 -34q6 -14 6 -20q0 -24 -21 -26q-11 0 -17 12q-7 -17 -17 -17 q-21 0 -21 49zM1315 430q-5 -9 -5 -17t8 -8q18 0 18 9t-21 16zM1454 392l-6 2l-1 1q4 20 13 20q5 0 5 -7q0 -47 12 -47q10 0 10 20q0 12 -5 30l8 15q5 -8 7 -32q0 -29 16 -29q4 0 8 4q0 6 -6 20q-7 16 -7 24q0 9 7 16l1 -1q0 -15 9 -34q5 -14 5 -20q0 -24 -21 -26 q-11 0 -16 12q-8 -17 -17 -17q-22 0 -22 49zM2449 389q0 -1 -1 -3v-5q0 -1 -1 -4v-3q0 -3 14 -13q9 -6 9 -20q0 -38 -29 -38q-19 0 -19 22q0 14 10 40t15 26q2 0 2 -2zM89 377v-3q-1 -3 -1 -5q0 -1 -1 -4v-3q0 -3 14 -13q9 -6 9 -20q0 -38 -29 -38q-19 0 -19 22q0 14 10 40 t16 26q1 0 1 -2zM2475 159q-23 -39 -46 -39q-22 0 -48 39q-14 22 -22 22q-6 0 -25 -22q-6 -8 -10 -12q-36 -41 -36 -45q27 -24 27 -50q0 -53 -36 -53q-24 0 -43.5 15.5t-26.5 40.5h-2q-28 -102 -215 -168q-37 -14 -157 -38q-18 -4 -29 -6v4l56 22q225 91 287 140 q37 28 49 59l10 25q3 9 5 9q35 7 50 19t65 71q25 31 34 31q8 0 27 -29q4 -7 7 -11q17 -24 34 -24q27 0 47 37q10 19 16 19q5 0 5 -5q0 -2 -2 -8q-1 -7 -1 -11q0 -16 18 -16q20 0 35 36q5 14 12 14q3 0 3 -7q0 -31 34 -31q15 0 28 10q-3 11 -26 54q-30 55 -30 68l-10 2l11 40 h1l51 -45l-2 -3l-25 4q2 -9 18 -37q30 -54 30 -79q0 -61 -45 -61q-25 0 -48 31q-15 -42 -43 -42q-20 0 -32 30zM2438 351q-5 -10 -5 -17q0 -9 8 -9q18 0 18 9t-21 17zM78 339q-5 -10 -5 -17q0 -9 9 -9q18 0 18 9t-22 17zM391 225q56 10 141 50q-12 9 -58.5 22.5t-64.5 13.5 q-34 0 -34 -21q0 -5 16 -65zM852 229l26 37l36 -41l-25 -35zM1817 201v-3h7q43 0 59 32q-1 3 -3 12q-3 14 -7 23q-56 -52 -56 -64zM1106 217q24 -16 39 -17q-8 24 -22 24q-8 0 -17 -7zM274 129l14 27l45 -28l-20 -40l-40 25l-12 -27l-42 28l18 38zM2619 98l46 -27l-14 -36 l-47 25zM1947 92q-1 -1 -2 -3q-2 -6 -5 -7q-93 -48 -170 -48q-11 0 -20 1v1q24 7 64 17q73 19 133 39zM2295 41q-23 32 -58 32q-2 0 -8 -1q4 -7 13 -14q23 -20 40 -20q4 0 13 3zM133 -24v1q27 8 64 18q74 19 133 39q0 -1 -2 -4q-2 -5 -5 -7q-92 -48 -170 -48q-11 0 -20 1z M2428 -38v1q24 7 65 18q74 19 132 38q0 -1 -1 -2q-3 -6 -6 -8q-92 -48 -170 -48q-11 0 -20 1z" />
</font>
</defs>
</svg>
