<?xml version="1.0" standalone="no"?>
<!DOCTYPE svg PUBLIC "-//W3C//DTD SVG 1.1//EN" "http://www.w3.org/Graphics/SVG/1.1/DTD/svg11.dtd" >
<svg xmlns="http://www.w3.org/2000/svg" xmlns:xlink="http://www.w3.org/1999/xlink" version="1.1">
<metadata></metadata>
<defs>
<font id="almarairegular" horiz-adv-x="1118" >
<font-face units-per-em="2048" ascent="1638" descent="-410" />
<missing-glyph horiz-adv-x="376" />
<glyph horiz-adv-x="0" />
<glyph horiz-adv-x="0" />
<glyph horiz-adv-x="682" />
<glyph unicode="&#xd;" horiz-adv-x="681" />
<glyph unicode=" "  horiz-adv-x="376" />
<glyph unicode="&#x09;" horiz-adv-x="376" />
<glyph unicode="&#xa0;" horiz-adv-x="376" />
<glyph unicode="!" horiz-adv-x="407" d="M104 90q0 43 30 71.5t71 28.5q43 0 71.5 -28.5t28.5 -71.5q0 -41 -28.5 -70.5t-71.5 -29.5q-41 0 -71 29.5t-30 70.5zM115 352v1114h174v-1042l-88 -72h-86z" />
<glyph unicode="&#x22;" horiz-adv-x="696" d="M141 999v467h146v-407l-72 -60h-74zM408 999v467h147v-407l-74 -60h-73z" />
<glyph unicode="#" horiz-adv-x="1247" d="M43 412v129h276l60 284h-268v129h290l78 422h160l-78 -422h234l79 422h154l-78 -422h256v-129h-280l-60 -284h275v-129h-297l-78 -412h-162l80 412h-229l-78 -412h-156l76 412h-254zM477 541h232l59 284h-231z" />
<glyph unicode="$" horiz-adv-x="1187" d="M188 221v66q133 -51 306 -51q20 0 34 2v409q-176 59 -247 131q-80 78 -80 213q0 125 90 207q86 80 237 96v172h131v-168q131 -16 254 -71v-137q-131 57 -254 67v-397q178 -63 254 -131q84 -80 84 -209q0 -131 -90 -213q-88 -80 -248 -103v-217h-131v209q-143 0 -268 35z M367 989q0 -70 34 -110q35 -41 127 -74v348q-84 -14 -125 -59q-37 -41 -36 -105zM659 248q96 14 140 69q33 41 32 103q0 63 -36 104q-40 41 -136 74v-350z" />
<glyph unicode="%" horiz-adv-x="1517" d="M37 954q0 201 78 318q77 129 227 129q143 0 225 -121q82 -125 82 -324q0 -203 -80 -315q-82 -109 -225 -109q-152 0 -231 115q-76 111 -76 307zM162 954q0 -133 28 -206q43 -106 152 -107q102 0 150 100q35 80 34 213q0 186 -59 273q-45 65 -125 65q-86 0 -129 -71 q-51 -84 -51 -267zM287 0l811 1378h149l-813 -1378h-147zM866 403q0 203 78 320q77 127 227 127q143 0 226 -121q82 -125 82 -323q0 -201 -80 -316q-82 -109 -225 -108q-152 0 -232 114q-76 111 -76 307zM991 403q0 -133 31 -206q41 -106 149 -107q102 0 150 100 q35 80 35 213q0 186 -60 273q-45 65 -125 65q-86 0 -129 -71q-51 -84 -51 -267z" />
<glyph unicode="&#x26;" horiz-adv-x="1341" d="M127 377q0 262 303 428q-94 119 -128 187.5t-34 140.5q0 143 113 235q96 82 231 82q152 0 246 -100q80 -88 80 -215q0 -109 -60.5 -186t-215.5 -165l268 -327q4 6 16 30q62 117 62 189h159q-2 -145 -131 -350l262 -326h-217l-145 180q-98 -96 -154 -131 q-113 -72 -264 -72q-199 0 -303 123q-88 106 -88 277zM295 391q0 -111 68.5 -183.5t173.5 -72.5q145 0 305 164l-324 401q-80 -29 -151.5 -128t-71.5 -181zM432 1135q0 -55 22.5 -94t118.5 -150l27 16q180 113 180 230q0 74 -50 123t-124 49q-80 0 -127 -47.5t-47 -126.5z " />
<glyph unicode="'" horiz-adv-x="428" d="M141 999v467h146v-407l-72 -60h-74z" />
<glyph unicode="(" horiz-adv-x="641" d="M152 616q0 240 69 455q72 225 215 395h58l55 -43q-125 -174 -189 -403q-53 -190 -53 -402q0 -227 70 -440q55 -180 172 -352l-55 -43h-58q-143 164 -215 385q-70 211 -69 448z" />
<glyph unicode=")" horiz-adv-x="641" d="M94 -174q115 172 172 352q68 213 68 440q0 211 -51 402q-63 229 -189 403l56 43h57q143 -170 215 -395q70 -215 70 -455q0 -238 -70 -448q-72 -221 -215 -385h-57z" />
<glyph unicode="*" horiz-adv-x="782" d="M80 1198l39 119l213 -78l-10 227h124l-8 -227l213 78l37 -119l-217 -61l141 -176l-102 -74l-125 188l-127 -188l-100 74l139 176z" />
<glyph unicode="+" horiz-adv-x="1058" d="M94 391v144h365v366h141v-366h365v-144h-365v-362h-141v362h-365z" />
<glyph unicode="," horiz-adv-x="430" d="M102 -221q43 55 76 125q23 43 33 88l-2 -2h-2q-41 0 -68.5 27.5t-29.5 68.5q0 31 14 57q27 49 86 50q51 0 84 -41t33 -107q0 -150 -136 -305h-38z" />
<glyph unicode="-" horiz-adv-x="657" d="M76 391v148h506v-148h-506z" />
<glyph unicode="." horiz-adv-x="407" d="M104 90q0 43 30 71.5t71 28.5q43 0 71.5 -28.5t28.5 -71.5q0 -41 -28.5 -70.5t-71.5 -29.5q-41 0 -71 29.5t-30 70.5z" />
<glyph unicode="/" horiz-adv-x="716" d="M18 0l514 1378h164l-512 -1378h-166z" />
<glyph unicode="0" horiz-adv-x="1081" d="M76 711q0 340 119 561q117 221 346 221q223 0 342 -215q125 -219 125 -561q0 -322 -103 -516q-120 -228 -364 -228q-272 0 -389 285q-76 182 -76 453zM254 717q0 -260 47 -391q68 -195 240 -195q288 0 288 582q0 625 -288 624q-287 0 -287 -620z" />
<glyph unicode="1" horiz-adv-x="727" d="M66 1159l364 307h156v-1388l-88 -78h-86v1257l-254 -213z" />
<glyph unicode="2" horiz-adv-x="987" d="M66 0v147l155 187l316 366q94 113 133 189q53 102 53 198q0 106 -63.5 172t-170.5 66q-125 0 -260 -96l-94 131q193 125 389 125q193 0 289 -113q84 -98 84 -262q0 -129 -66 -252q-59 -104 -208 -283l-289 -327l-84 -103h672v-57l-72 -88h-784z" />
<glyph unicode="3" horiz-adv-x="972" d="M113 94v64q141 -31 247 -31q371 0 371 250q0 135 -113 227q-63 51 -133.5 70.5t-208.5 21.5v133h175q98 0 160.5 64.5t62.5 167.5q0 121 -80 191.5t-217 70.5q-68 0 -193 -27v148q133 41 217 41q205 0 328 -107q117 -102 117 -274q0 -289 -256 -346q147 -25 232 -125.5 t85 -247.5q0 -213 -166 -324q-127 -84 -317 -84q-123 0 -246 35z" />
<glyph unicode="4" horiz-adv-x="1085" d="M47 356v154l586 956h188v-952h217v-158h-217v-278l-88 -78h-86v356h-600zM219 514h428v723z" />
<glyph unicode="5" horiz-adv-x="970" d="M98 104v64q141 -29 248 -29q190 0 279 62q98 68 98 223q0 311 -367 311q-86 0 -250 -18l41 749h644v-147h-478l-24 -453q94 14 149 15q227 0 350 -140q106 -121 107 -321q0 -225 -158 -340q-125 -92 -327 -92q-123 0 -246 37z" />
<glyph unicode="6" horiz-adv-x="1050" d="M104 549v78q0 373 148 606q158 252 455 252q37 0 90 -4l69 -86v-64q-82 12 -135 12q-395 0 -461 -610q131 170 310 170q207 0 315 -149q86 -121 86 -305q0 -225 -129 -357q-119 -117 -311 -117q-436 0 -437 574zM266 477q0 -152 78 -250q76 -94 201 -94q115 0 187.5 89.5 t72.5 234.5q0 129 -68.5 214t-175.5 85q-115 0 -211 -97q-84 -84 -84 -182z" />
<glyph unicode="7" horiz-adv-x="1013" d="M61 1319v147h891v-129l-487 -1241l-119 -96h-106l532 1319h-711z" />
<glyph unicode="8" horiz-adv-x="1087" d="M84 344q0 257 336 404q-264 176 -264 407q0 176 127 264q100 72 258 72q186 0 290 -96q100 -90 101 -248q0 -121 -54.5 -203t-205.5 -190q330 -156 329 -414q0 -188 -163 -289q-125 -78 -297 -78q-205 0 -332 101q-125 98 -125 270zM268 360q0 -115 74 -179t203 -64 t203.5 65.5t74.5 175.5q0 106 -63 184t-213 154q-154 -74 -216.5 -148.5t-62.5 -187.5zM330 1153q0 -96 49 -176q53 -90 170 -160q209 131 209 338q0 98 -57.5 156.5t-155.5 58.5q-109 0 -164 -65q-51 -57 -51 -152z" />
<glyph unicode="9" horiz-adv-x="1048" d="M76 1016q0 225 131 354q117 119 309 119q285 0 385 -258q63 -156 64 -445q0 -805 -572 -804q-51 0 -133 8l-65 84v61q82 -12 139 -12q246 0 346 134t108 470q-119 -168 -309 -168q-207 0 -315 150q-88 121 -88 307zM252 1008q0 -131 69.5 -216t176.5 -85 q123 0 198.5 79.5t75.5 206.5q0 338 -258 338q-133 0 -207 -112q-55 -88 -55 -211z" />
<glyph unicode=":" horiz-adv-x="409" d="M104 90q0 43 30 71.5t73 28.5q41 0 70.5 -28.5t29.5 -71.5q0 -41 -29.5 -70.5t-70.5 -29.5q-43 0 -73 29.5t-30 70.5zM104 473q0 43 30 71.5t71 28.5q43 0 71.5 -28.5t28.5 -71.5q0 -41 -28.5 -70.5t-71.5 -29.5q-41 0 -71 29.5t-30 70.5z" />
<glyph unicode=";" horiz-adv-x="430" d="M102 -221q43 55 76 125q23 43 33 88l-2 -2h-2q-41 0 -68.5 27.5t-29.5 68.5q0 31 14 57q27 49 86 50q51 0 84 -41t33 -107q0 -150 -136 -305h-38zM106 475q0 41 30 70.5t73 29.5q41 0 69.5 -29.5t28.5 -70.5q0 -43 -28.5 -72.5t-71.5 -29.5q-41 0 -71 29.5t-30 72.5z" />
<glyph unicode="&#x3c;" horiz-adv-x="1040" d="M84 625v96l870 453v-154l-684 -340l684 -299v-156z" />
<glyph unicode="=" horiz-adv-x="1058" d="M94 199v141h871v-141h-871zM94 586v139h871v-139h-871z" />
<glyph unicode="&#x3e;" horiz-adv-x="1040" d="M84 225v156l684 299l-684 340v154l870 -453v-96z" />
<glyph unicode="?" d="M156 1020q0 469 440 469q211 0 328 -119q100 -102 100 -268q0 -100 -43 -178t-158 -181q-102 -92 -130.5 -137t-28.5 -112v-95h-181v111q0 100 58 174q35 47 151 154q152 135 152 266q0 102 -71 164.5t-185 62.5q-137 0 -199.5 -74.5t-62.5 -236.5h-170zM477 125 q0 43 29 71.5t72 28.5q41 0 70.5 -28.5t29.5 -71.5q0 -41 -30 -70.5t-70 -29.5q-43 0 -72 29.5t-29 70.5z" />
<glyph unicode="@" horiz-adv-x="1644" d="M94 633q0 362 254 588q201 178 477 178q348 0 551 -213q180 -190 180 -492q0 -207 -90 -344q-94 -143 -260 -143q-115 0 -174 69q-88 -68 -211 -67q-186 0 -284 125q-82 104 -82 270q0 207 120 322q98 90 252 96q94 0 183 -49l94 76h51v-650q0 -45 78 -45q80 0 129 86 t49 228q0 291 -178 450q-154 139 -408 139q-236 0 -403 -165q-182 -180 -182 -455q0 -311 180 -479q160 -150 428 -150q76 0 158 12v-53l-54 -65q-90 -16 -176 -17q-344 0 -528 242q-154 199 -154 506zM602 610q0 -129 65.5 -202.5t180.5 -73.5q92 0 160 53v477 q-78 29 -146 29q-117 0 -188.5 -78t-71.5 -205z" />
<glyph unicode="A" horiz-adv-x="1341" d="M35 0l522 1466h242l514 -1466h-207l-152 440h-565l-156 -440h-198zM436 598h465l-225 666z" />
<glyph unicode="B" horiz-adv-x="1341" d="M160 0v1466h596q205 0 317 -102q117 -106 117 -270q0 -225 -205 -320q268 -102 268 -356q0 -176 -112 -295q-117 -123 -322 -123h-659zM346 166h457q125 0 194.5 66.5t69.5 185.5t-69.5 185.5t-194.5 66.5h-457v-504zM346 836h363q143 0 213 51q79 58 79 177 q0 124 -79 185q-70 51 -213 51h-363v-464z" />
<glyph unicode="C" horiz-adv-x="1452" d="M96 723q0 352 205 580q168 186 463 186q479 0 567 -471h-192q-31 147 -107 215q-98 90 -287 90q-229 0 -354 -180q-108 -157 -108 -409q0 -294 145 -453q129 -137 332 -138q248 0 342 183q43 84 67 223h193q-68 -571 -600 -572q-287 0 -453 168q-213 215 -213 578z" />
<glyph unicode="D" horiz-adv-x="1452" d="M178 0v1466h565q297 0 457 -221q139 -195 139 -512q0 -365 -180 -561q-158 -172 -416 -172h-565zM365 166h346q442 0 442 567t-442 567h-346v-1134z" />
<glyph unicode="E" horiz-adv-x="1341" d="M180 0v1466h1016v-166h-829v-466h798v-166h-798v-502h864v-166h-1051z" />
<glyph unicode="F" horiz-adv-x="1228" d="M180 0v1466h983v-166h-796v-466h700v-166h-700v-668h-187z" />
<glyph unicode="G" horiz-adv-x="1564" d="M88 729q0 403 264 621q172 139 441 139q317 0 487 -193q92 -104 125 -270h-191q-31 139 -143.5 218t-282.5 79q-248 0 -391 -180q-123 -158 -123 -404q0 -287 156 -452q135 -143 371 -144q213 0 344 140q115 123 115 299v24h-447v166h612v-772h-118l-47 207 q-209 -229 -500 -230q-319 0 -508 236q-164 207 -164 516z" />
<glyph unicode="H" horiz-adv-x="1452" d="M166 0v1466h186v-632h756v632h186v-1466h-186v668h-756v-668h-186z" />
<glyph unicode="I" horiz-adv-x="559" d="M201 0v1466h190v-1466h-190z" />
<glyph unicode="J" horiz-adv-x="1005" d="M35 365v106h190v-72q0 -264 219 -264q121 0 181 90q45 70 45 232v1009h186v-1077q0 -186 -108 -297q-115 -115 -310 -115q-197 0 -307 119q-96 102 -96 269z" />
<glyph unicode="K" horiz-adv-x="1341" d="M160 0v1466h186v-741l731 741h242l-600 -598l604 -868h-221l-516 752l-240 -238v-514h-186z" />
<glyph unicode="L" d="M162 0v1466h186v-1300h723v-166h-909z" />
<glyph unicode="M" horiz-adv-x="1675" d="M152 0v1466h258l436 -1276l426 1276h260v-1466h-178v1229l-412 -1229h-197l-417 1229v-1229h-176z" />
<glyph unicode="N" horiz-adv-x="1452" d="M154 0v1466h202l766 -1198v1198h176v-1466h-208l-760 1190v-1190h-176z" />
<glyph unicode="O" horiz-adv-x="1564" d="M76 733q0 362 221 574q190 182 487 182q340 0 537 -236q170 -205 170 -520q0 -362 -219 -573q-193 -182 -488 -183q-342 0 -538 236q-170 205 -170 520zM262 733q0 -285 162 -448q141 -141 358 -142q252 0 398 183q125 160 125 407q0 285 -162 449q-142 141 -361 141 q-250 0 -395 -182q-125 -160 -125 -408z" />
<glyph unicode="P" horiz-adv-x="1341" d="M182 0v1466h606q231 0 349 -127q102 -111 102 -303q0 -195 -125 -309q-115 -106 -285 -106h-460v-621h-187zM369 786h391q133 0 208.5 68t75.5 190q0 121 -75.5 188.5t-208.5 67.5h-391v-514z" />
<glyph unicode="Q" horiz-adv-x="1564" d="M76 733q0 362 221 574q190 182 487 182q340 0 537 -236q170 -205 170 -520q0 -342 -207 -561l-18 -18l182 -181l-96 -90l-199 189q-154 -92 -371 -95q-340 0 -536 236q-170 205 -170 520zM262 733q0 -285 162 -448q141 -141 358 -142q129 0 238 54h2l-186 176l106 100 l197 -194l6 6q160 160 160 448q0 285 -162 449q-141 141 -361 141q-250 0 -395 -182q-125 -160 -125 -408z" />
<glyph unicode="R" horiz-adv-x="1452" d="M186 0v1466h674q233 0 348 -114q100 -100 101 -279q0 -125 -54.5 -207t-179.5 -143q100 -39 148 -105q47 -68 53 -276q4 -154 19.5 -206t68.5 -89v-47h-225q-45 94 -45 199l2 229q0 23 -18.5 70t-35.5 67q-55 66 -188 66h-481v-631h-187zM373 797h452q289 0 289 252 q0 251 -287 251h-2h-452v-503z" />
<glyph unicode="S" horiz-adv-x="1341" d="M96 479h176v-4q0 -160 110 -247t306 -87q180 0 268 60q104 72 105 200q0 164 -268 232l-365 94q-287 74 -287 338q0 209 158 324q137 100 363 100q319 0 456 -186q80 -109 80 -236v-23h-176q-6 287 -367 287q-147 0 -237 -66.5t-90 -174.5q0 -82 54 -130.5t187 -82.5 l349 -91q331 -88 331 -366q0 -205 -162 -332q-143 -111 -411 -111q-340 0 -494 205q-82 111 -86 297z" />
<glyph unicode="T" horiz-adv-x="1228" d="M43 1300v166h1149v-166h-479v-1300h-187v1300h-483z" />
<glyph unicode="U" horiz-adv-x="1452" d="M170 461v1005h186v-1005q0 -152 98.5 -235t276.5 -83q188 0 291 95q88 84 88 223v1005h186v-1005q0 -238 -174 -369q-150 -115 -391 -115q-279 0 -430 146q-131 129 -131 338z" />
<glyph unicode="V" horiz-adv-x="1341" d="M59 1466h201l432 -1241l406 1241h198l-508 -1466h-202z" />
<glyph unicode="W" horiz-adv-x="1898" d="M45 1466h209l276 -1190l326 1190h201l334 -1190l270 1190h207l-371 -1466h-205l-338 1204l-329 -1204h-205z" />
<glyph unicode="X" horiz-adv-x="1341" d="M45 0l520 752l-487 714h227l375 -575l379 575h223l-496 -714l521 -752h-234l-397 612l-404 -612h-227z" />
<glyph unicode="Y" horiz-adv-x="1341" d="M27 1466h229l432 -714l418 714h223l-551 -891v-575h-186v575z" />
<glyph unicode="Z" horiz-adv-x="1228" d="M57 0v166l881 1134h-825v166h1056v-170l-876 -1130h881v-166h-1117z" />
<glyph unicode="[" horiz-adv-x="761" d="M141 -209v1675h480v-137h-324v-1401h324v-137h-480z" />
<glyph unicode="\" horiz-adv-x="716" d="M18 1378h166l512 -1378h-164z" />
<glyph unicode="]" horiz-adv-x="761" d="M141 -72h324v1401h-324v137h480v-1675h-480v137z" />
<glyph unicode="^" horiz-adv-x="942" d="M88 662l307 763h148l311 -763h-139l-246 604l-242 -604h-139z" />
<glyph unicode="_" horiz-adv-x="786" d="M-8 -174h801v-131h-801v131z" />
<glyph unicode="`" horiz-adv-x="1005" d="M260 1489h227l193 -299h-121z" />
<glyph unicode="a" d="M84 283q0 147 104 227q59 45 248 88l344 78l2 88q0 158 -237 158q-227 0 -244 -185h-170q6 139 70 213q109 125 352 125q395 0 395 -287v-587q0 -78 68 -78q8 0 43 12q12 4 16 6v-135q-67 -24 -105 -24h-3q-164 0 -179 149q-113 -154 -358 -154q-170 0 -264 95 q-82 82 -82 211zM258 285q0 -162 209 -162q147 0 250 96q66 59 65 135v185l-270 -70q-145 -37 -199.5 -76t-54.5 -108z" />
<glyph unicode="b" d="M109 0v1466h165v-555q117 164 328 164q223 0 344 -164q106 -143 107 -379q0 -272 -142 -423q-123 -131 -317 -132q-219 0 -334 166v-143h-151zM274 520q0 -188 93 -295q80 -90 204 -90q139 0 222.5 104.5t83.5 280.5q0 193 -95 303q-82 97 -211 97q-135 0 -216 -110 t-81 -290z" />
<glyph unicode="c" horiz-adv-x="1005" d="M61 512q0 274 146 430q125 133 323 133q229 0 344 -153q60 -81 72 -222h-168q-31 221 -250 222q-137 0 -214.5 -108.5t-77.5 -301.5q0 -190 92 -291q78 -88 209 -88q211 0 251 229h170q-16 -197 -141 -296q-109 -88 -285 -89q-231 0 -360 164q-111 141 -111 371z" />
<glyph unicode="d" d="M53 532q0 264 142 414q121 129 313 129q213 0 321 -160v551h168v-1466h-168v145q-100 -170 -311 -170q-231 0 -356 168q-109 147 -109 389zM227 520q0 -186 99 -293q84 -94 213 -94q133 0 211.5 104.5t78.5 282.5q0 195 -90 303q-79 97 -202 97q-139 0 -224.5 -110 t-85.5 -290z" />
<glyph unicode="e" d="M80 520q0 272 147 424q129 131 334 131q150 0 263.5 -71.5t162.5 -196.5q43 -106 43 -324v-6h-776q2 -135 57 -215q88 -129 254 -129q205 0 277 195h168q-33 -166 -152 -258.5t-299 -92.5q-240 0 -366 164q-113 143 -113 379zM260 614h590q0 137 -81 222.5t-208 85.5 q-129 0 -210 -83t-91 -225z" />
<glyph unicode="f" horiz-adv-x="559" d="M37 918v135h141v180q0 113 64.5 176.5t181.5 63.5q45 0 94 -11v-139h-18q-23 2 -39 2q-117 0 -117 -106v-166h174v-135h-174v-918h-166v918h-141z" />
<glyph unicode="g" d="M57 510q0 270 140 430q123 135 309 135q201 0 321 -180v158h156v-881q0 -342 -111 -475q-111 -135 -362 -135q-197 0 -307 94q-98 84 -111 223h172q12 -82 62 -121q72 -55 192 -55q164 0 234 98q59 84 59 287v68q-131 -178 -315 -179q-180 0 -306 136q-133 145 -133 397z M231 520q0 -195 91 -297q76 -90 204 -90q135 0 210 102.5t75 284.5q0 201 -86 307q-76 95 -201 95q-135 0 -214 -107.5t-79 -294.5z" />
<glyph unicode="h" d="M141 0v1466h166v-561q76 94 152 132t188 38q154 0 242 -76.5t88 -210.5v-788h-166v721q0 111 -68 162q-63 47 -149 47q-129 0 -208 -96.5t-79 -255.5v-578h-166z" />
<glyph unicode="i" horiz-adv-x="446" d="M119 1364q0 41 29.5 70.5t70.5 29.5q43 0 73 -29.5t30 -70.5q0 -43 -30 -72.5t-73 -29.5q-41 0 -70.5 29.5t-29.5 72.5zM133 0v1053h166v-1053h-166z" />
<glyph unicode="j" horiz-adv-x="446" d="M-37 -291h31h8q80 0 108.5 29t28.5 108v1207h168v-1272q0 -219 -291 -219q-31 0 -53 6v141zM119 1356q0 41 29.5 70.5t70.5 29.5q43 0 71.5 -29.5t28.5 -70.5t-28.5 -71t-71.5 -30q-41 0 -70.5 30t-29.5 71z" />
<glyph unicode="k" horiz-adv-x="1005" d="M117 0v1466h166v-860l446 447h217l-366 -363l430 -690h-207l-357 571l-163 -159v-412h-166z" />
<glyph unicode="l" horiz-adv-x="446" d="M137 0v1466h168v-1466h-168z" />
<glyph unicode="m" horiz-adv-x="1675" d="M141 0v1053h156v-152q123 174 324 174q195 0 282 -155q76 88 146.5 121.5t175.5 33.5q307 0 307 -289v-786h-168v721q0 209 -197 209q-102 0 -173.5 -80t-71.5 -191v-659h-168v721q0 209 -195 209q-104 0 -177 -79t-73 -192v-659h-168z" />
<glyph unicode="n" d="M141 0v1053h156v-179q127 201 348 201q154 0 244 -76.5t90 -205.5v-793h-166v725q0 94 -58.5 149.5t-158.5 55.5q-131 0 -209 -96.5t-78 -255.5v-578h-168z" />
<glyph unicode="o" d="M217 948q125 127 336 127q238 0 362 -166q111 -143 111 -389q0 -274 -143 -418q-123 -125 -332 -125q-242 0 -369 162q-110 140 -110 377q0 283 145 432zM246 520q0 -195 92 -297q80 -90 213 -90q141 0 220 102.5t79 284.5q0 201 -90 307q-78 95 -207 95 q-143 0 -225 -107.5t-82 -294.5z" />
<glyph unicode="p" d="M109 -438v1491h155v-162q117 184 336 184q223 0 344 -172q106 -150 107 -393q0 -260 -140 -406q-121 -127 -313 -127q-195 0 -322 142v-557h-167zM276 520q0 -188 93 -295q78 -90 202 -90q139 0 222.5 105.5t83.5 279.5q0 193 -95 303q-84 97 -211 97q-133 0 -214 -109 t-81 -291z" />
<glyph unicode="q" d="M53 508q0 276 142 434q123 135 317 135q215 0 336 -170v146h149v-1491h-168v575q-113 -160 -323 -160q-225 0 -348 160q-104 141 -105 371zM227 520q0 -186 97 -293q82 -92 213 -92q133 0 212.5 104.5t79.5 280.5q0 195 -90 305q-79 95 -204 95q-137 0 -222.5 -110 t-85.5 -290z" />
<glyph unicode="r" horiz-adv-x="669" d="M139 0v1053h156v-193q92 217 291 217q25 0 59 -6v-172q-164 -2 -225 -47q-113 -82 -113 -305v-547h-168z" />
<glyph unicode="s" horiz-adv-x="1005" d="M59 303h191q16 -72 45 -104q55 -66 207 -66q113 0 179.5 42t66.5 112q0 104 -162 143l-158 37q-180 43 -252 102q-82 68 -82 195q0 143 109.5 227t294.5 84q193 0 299 -96q92 -84 92 -215h-184q-8 158 -211 158q-104 0 -165 -40t-61 -108q0 -102 195 -147l162 -37 q158 -37 227.5 -104.5t69.5 -184.5q0 -150 -117 -237t-316 -87q-217 0 -329 103q-94 84 -101 223z" />
<glyph unicode="t" horiz-adv-x="608" d="M29 918v135h143v215l166 75v-290h215v-135h-215v-701q0 -37 25.5 -62.5t66.5 -25.5q39 0 119 18l18 -147q-127 -23 -192 -23q-203 0 -203 166v775h-143z" />
<glyph unicode="u" d="M131 260v793h166v-725q0 -92 59.5 -147.5t159.5 -55.5q131 0 209 95t78 257v576h166v-1053h-166v166q-113 -188 -336 -189q-154 0 -245 77t-91 206z" />
<glyph unicode="v" horiz-adv-x="1005" d="M20 1053h191l278 -852l299 852h189l-404 -1053h-182z" />
<glyph unicode="w" horiz-adv-x="1452" d="M12 1053h185l217 -820l200 820h205l207 -820l209 820h188l-309 -1053h-190l-215 827l-203 -827h-189z" />
<glyph unicode="x" horiz-adv-x="1005" d="M35 0l373 537l-355 516h193l254 -381l254 381h188l-354 -508l364 -545h-194l-264 406l-269 -406h-190z" />
<glyph unicode="y" horiz-adv-x="1005" d="M41 1053h180l268 -820l293 820h181l-469 -1274q-82 -217 -273 -217q-90 0 -158 41l33 145q51 -20 101 -20q98 0 137 102l63 168z" />
<glyph unicode="z" horiz-adv-x="1005" d="M61 0v152l629 753h-586v148h787v-150l-627 -756h654v-147h-857z" />
<glyph unicode="{" horiz-adv-x="782" d="M33 547v168q242 0 241 157v11v327q0 143 82 201q70 45 226 59q24 3 59 3l45 -60v-49q-33 0 -94 -6q-88 -8 -119 -29q-45 -33 -45 -106v-377q0 -176 -219 -209v-12q219 -33 219 -209v-375q0 -76 45 -107q33 -23 119 -30q47 -4 94 -6v-50l-45 -59q-35 0 -59 2 q-152 12 -226 59q-82 55 -82 201v326q0 170 -241 170z" />
<glyph unicode="|" horiz-adv-x="409" d="M141 57v1352h127v-1352h-127z" />
<glyph unicode="}" horiz-adv-x="782" d="M94 -102q49 2 94 6q86 8 119 30q45 31 45 107v375q0 176 221 209v12q-221 33 -221 209v377q0 74 -45 106q-31 20 -119 29q-61 6 -94 6v49l47 60q35 0 58 -3q158 -14 225 -59q84 -57 84 -201v-327q-2 -6 -2 -11q0 -158 242 -157v-168q-240 0 -240 -170v-326 q0 -145 -84 -201q-72 -47 -225 -59q-23 -2 -58 -2l-47 59v50z" />
<glyph unicode="~" horiz-adv-x="1005" d="M66 590q16 291 217 291q55 0 108 -31l236 -139q57 -35 100 -35q102 0 102 127v24h107v-39q0 -113 -57.5 -181t-153.5 -68q-80 0 -164 53l-194 125q-45 29 -88 28q-59 0 -91 -69q-10 -27 -16 -86h-106z" />
<glyph unicode="&#xa1;" horiz-adv-x="669" d="M217 963q0 43 29.5 72.5t70.5 29.5q43 0 73 -29.5t30 -72.5q0 -41 -30 -71t-73 -30q-41 0 -70.5 30t-29.5 71zM244 266l43 449h80l43 -449v-678h-166v678z" />
<glyph unicode="&#xa2;" horiz-adv-x="1126" d="M188 700q0 254 97 390q86 121 258 145v164h129v-156q70 -2 139 -20q59 -14 100 -35l-51 -146q-55 23 -102 35q-61 16 -107 17q-131 0 -198 -74q-86 -92 -86 -318q0 -221 86 -311q68 -70 190 -69q68 0 143 16q88 18 152 43v-76l-72 -90q-76 -35 -194 -45v-188h-129v194 q-170 25 -260 146q-94 129 -95 378z" />
<glyph unicode="&#xa3;" horiz-adv-x="1320" d="M188 0v143q86 20 136 82q53 70 53 189v200h-187v129h187v306q0 160 106 256q100 92 269 92q143 0 264 -66v-145q-129 68 -256 67q-96 0 -152 -53q-59 -59 -59 -178v-279h354v-129h-354v-198q0 -137 -49 -226q109 12 209 13q236 0 424 -72v-57l-62 -74q-211 61 -409 61 q-201 0 -474 -61z" />
<glyph unicode="&#xa4;" horiz-adv-x="1056" d="M113 1004l92 92l121 -121q94 63 202 63q109 0 201 -63l121 121l94 -90l-123 -121q63 -96 64 -203q0 -115 -64 -203l119 -121l-90 -90l-121 121q-94 -63 -201 -63q-115 0 -202 65l-121 -121l-90 90l118 121q-61 90 -61 201q0 105 61 201zM303 682q0 -96 66 -160 q66 -68 159 -67q96 0 162 67q68 66 68 160q0 96 -68 162q-66 68 -162 67q-94 0 -159 -67q-66 -66 -66 -162z" />
<glyph unicode="&#xa5;" horiz-adv-x="1067" d="M57 1378h181l294 -696l297 696h181l-334 -725h225v-129h-285v-147h285v-129h-285v-178l-84 -70h-83v248h-283v129h283v147h-283v129h221z" />
<glyph unicode="&#xa6;" horiz-adv-x="409" d="M141 57v566h127v-566h-127zM141 844v565h127v-565h-127z" />
<glyph unicode="&#xa7;" d="M88 629q0 188 211 301q-88 98 -88 203q0 152 121 247q104 86 250 86q168 0 266 -112q86 -96 86 -244v-57h-168q-2 129 -33 176q-55 82 -162 82q-78 0 -129 -48.5t-51 -121.5q0 -80 115 -156l293 -188q121 -78 170 -153t49 -183q0 -231 -217 -314q104 -123 104 -239 q0 -156 -121 -252q-104 -84 -254 -84q-127 0 -220 60.5t-132 166.5q-23 63 -22 174h172v-6q0 -240 204 -239q86 0 139.5 48t53.5 124q0 100 -111 176l-342 237q-184 127 -184 316zM248 659q0 -61 25.5 -101t105.5 -97l334 -248q145 78 145 207q0 123 -145 223l-324 219 q-141 -92 -141 -203z" />
<glyph unicode="&#xa8;" horiz-adv-x="1005" d="M217 1364q0 41 29.5 70.5t70.5 29.5q43 0 73 -29.5t30 -70.5q0 -43 -30 -72.5t-73 -29.5q-41 0 -70.5 29.5t-29.5 72.5zM567 1364q0 41 30 70.5t71 29.5q43 0 72.5 -29.5t29.5 -70.5q0 -43 -29.5 -72.5t-72.5 -29.5q-41 0 -71 29.5t-30 72.5z" />
<glyph unicode="&#xa9;" horiz-adv-x="1605" d="M94 688q0 193 96 359q94 162 256 256q167 96 357 96t358 -96q160 -94 254 -256q96 -168 96 -359q0 -188 -96 -356q-92 -160 -254 -254q-166 -96 -358 -96q-193 0 -357 96q-164 94 -256 254q-96 166 -96 356zM197 688q0 -250 178 -426q176 -178 428 -178t430 178 q176 176 176 426q0 252 -176 430q-180 176 -430 176t-428 -176q-178 -178 -178 -430zM451 690q0 195 102 309q104 121 287 121q121 0 239 -59l-59 -119q-98 51 -180 51q-113 0 -176 -80q-61 -80 -62 -225q0 -147 57 -225t181 -78q41 0 100 12q47 10 102 31v-59l-77 -97 q-41 -16 -131 -16q-186 0 -287 121q-96 115 -96 313z" />
<glyph unicode="&#xaa;" horiz-adv-x="821" d="M113 983q0 94 67 145q49 37 158 56l221 49v57q0 100 -151 101q-145 0 -156 -117h-109q4 90 43 137q70 80 228 80q254 0 254 -184v-377q0 -51 43 -51q4 0 26 10q9 2 11 4v-88q-45 -16 -70 -17q-104 0 -115 99q-72 -100 -229 -101q-100 0 -160.5 53.5t-60.5 143.5zM154 610 v103h559v-103h-559zM223 983q0 -102 135 -102q94 0 160 61q41 39 41 86v119l-172 -45q-164 -29 -164 -119z" />
<glyph unicode="&#xab;" horiz-adv-x="872" d="M76 537v16l284 420h54l55 -47l-246 -379l248 -381l-57 -47h-54zM401 537v16l285 420h53l58 -47l-248 -379l248 -381l-56 -47h-55z" />
<glyph unicode="&#xac;" horiz-adv-x="1173" d="M80 444v140h1014v-580h-142v440h-872z" />
<glyph unicode="&#xad;" horiz-adv-x="669" d="M92 483v144h477v-144h-477z" />
<glyph unicode="&#xae;" horiz-adv-x="1605" d="M94 688q0 193 96 359q94 162 256 256q167 96 357 96t358 -96q160 -94 254 -256q96 -168 96 -359q0 -188 -96 -356q-92 -160 -254 -254q-166 -96 -358 -96q-193 0 -357 96q-164 94 -256 254q-96 166 -96 356zM197 688q0 -250 178 -426q176 -178 428 -178t430 178 q176 176 176 426q0 252 -176 430q-180 176 -430 176t-428 -176q-178 -178 -178 -430zM496 272v832h311q133 0 212 -77t79 -206q0 -143 -131 -209l153 -288l-65 -52h-76l-154 301h-178v-301h-151zM647 711h158q66 0 106 37q37 37 37 96q0 47 -22 78q-33 47 -131 47h-148v-258 z" />
<glyph unicode="&#xaf;" horiz-adv-x="980" d="M0 1559v129h981v-129h-981z" />
<glyph unicode="&#xb0;" horiz-adv-x="763" d="M84 1100q0 123 88 211q86 88 209 88t211 -88q86 -88 86 -211q0 -121 -86 -209q-88 -86 -211 -86q-125 0 -209 86q-88 88 -88 209zM201 1100q0 -80 51 -137q53 -57 129 -58q74 0 129 58q53 57 53 137q0 82 -53 141q-55 57 -129 57t-129 -57q-51 -59 -51 -141z" />
<glyph unicode="&#xb1;" horiz-adv-x="1173" d="M100 0v139h973v-139h-973zM100 719v139h416v416h141v-416h416v-139h-416v-418h-141v418h-416z" />
<glyph unicode="&#xb2;" horiz-adv-x="706" d="M39 571q8 147 58 223t196 152l119 64q119 63 118 159q0 63 -49 106.5t-123 43.5q-104 0 -149 -78q-20 -37 -27 -121h-125q10 305 305 305q129 0 212 -70.5t83 -180.5q0 -164 -194 -263l-127 -63q-111 -57 -148 -160h461v-117h-610z" />
<glyph unicode="&#xb3;" horiz-adv-x="706" d="M33 846h125q8 -180 184 -180q84 0 132 43t48 116q0 96 -90 131q-31 13 -160 13v100q129 2 175.5 26.5t46.5 94.5q0 133 -152 133q-106 0 -145 -70q-18 -35 -19 -108h-125q4 285 287 285q129 0 205 -63.5t76 -174.5q0 -117 -113 -168q141 -47 141 -199q0 -119 -85 -191.5 t-226 -72.5q-293 0 -305 285z" />
<glyph unicode="&#xb4;" horiz-adv-x="1005" d="M352 1190l195 299h225l-299 -299h-121z" />
<glyph unicode="&#xb5;" horiz-adv-x="1167" d="M-27 -438l318 1491h166l-154 -723q-6 -31 -6 -58q0 -68 49 -108.5t129 -40.5q131 0 229.5 97t133.5 259l123 574h165l-223 -1053h-151l36 168q-178 -193 -380 -193q-104 0 -168 52l-101 -465h-166z" />
<glyph unicode="&#xb6;" horiz-adv-x="1079" d="M96 983q0 219 146 360q127 123 305 123h504v-129h-117v-1693h-127v1693h-166v-1693h-129v876q-154 8 -252 90q-164 135 -164 373z" />
<glyph unicode="&#xb7;" horiz-adv-x="559" d="M174 606v252h250v-252h-250z" />
<glyph unicode="&#xb8;" horiz-adv-x="1005" d="M246 -362l43 81l4 -2q10 -6 12 -6q115 -59 180 -59q47 0 78 25.5t31 64.5q0 76 -92 76q-31 0 -64 -17l-22 15l82 184h77l-45 -113q31 4 54 4q162 0 161 -133q0 -88 -66.5 -138t-180.5 -50q-96 0 -252 68z" />
<glyph unicode="&#xb9;" horiz-adv-x="706" d="M123 1167v90l31 5q111 10 144.5 37.5t61.5 125.5h86v-854h-124v596h-199z" />
<glyph unicode="&#xba;" horiz-adv-x="733" d="M80 1143q0 166 75 256t212 90q135 0 209.5 -90t74.5 -256q0 -164 -74.5 -254t-209.5 -90q-137 0 -212 90t-75 254zM102 610v103h529v-103h-529zM197 1143q0 -113 45 -176.5t125 -63.5q78 0 123 63.5t45 176.5t-45 177t-125 64q-78 0 -123 -64.5t-45 -176.5z" />
<glyph unicode="&#xbb;" horiz-adv-x="899" d="M76 166l248 381l-248 379l57 47h53l285 -420v-16l-285 -418h-53zM430 166l248 381l-248 379l57 47h54l282 -420v-16l-282 -418h-56z" />
<glyph unicode="&#xbc;" horiz-adv-x="1380" d="M33 1186l246 192h122v-784l-69 -55h-68v675l-160 -118zM178 0l813 1378h148l-811 -1378h-150zM725 289l399 551h125v-539h99v-119h-99v-137l-59 -45h-76v182h-387zM852 301h262v367z" />
<glyph unicode="&#xbd;" horiz-adv-x="1480" d="M33 1186l246 192h122v-784l-69 -55h-68v675l-160 -118zM217 0l811 1378h148l-811 -1378h-148zM893 0v115l92 88q123 111 203 203q61 72 80 110q20 41 20 86q0 127 -119 127q-80 0 -155 -57l-70 90q125 84 242 84q111 0 172 -61.5t61 -168.5q0 -78 -53 -161.5t-192 -225.5 q-31 -31 -46 -45l-61 -65h367v-66l-48 -53h-493z" />
<glyph unicode="&#xbe;" horiz-adv-x="1488" d="M33 623v47q94 -29 178 -29t136 36t52 95q0 76 -71 125q-78 53 -193 53v80h88q61 0 96 31q51 47 52 115q0 123 -144 122q-63 0 -141 -20v88q88 35 170 35q109 0 176.5 -61.5t67.5 -159.5q0 -74 -47 -130.5t-115 -62.5q98 -8 156 -84q45 -57 45 -129q0 -229 -303 -229 q-94 0 -158 22zM305 0l811 1378h150l-813 -1378h-148zM834 182v107l399 551h123v-539h100v-119h-100v-137l-60 -45h-73v182h-389zM961 301h262v367z" />
<glyph unicode="&#xbf;" horiz-adv-x="1228" d="M190 -49q0 100 44.5 179t158.5 181q104 94 132 137.5t28 110.5v94h180v-108q0 -139 -131 -258l-80 -70q-152 -137 -151 -266q0 -104 71.5 -167t188.5 -63q164 0 225 117q35 66 35 197h170q-2 -184 -66 -291q-106 -180 -374 -180q-211 0 -328 119q-102 102 -103 268z M526 942q0 43 29 72.5t72 29.5q41 0 70.5 -29.5t29.5 -72.5q0 -41 -29.5 -70.5t-70.5 -29.5q-43 0 -72 29.5t-29 70.5z" />
<glyph unicode="&#xc0;" horiz-adv-x="1341" d="M35 0l522 1466h242l514 -1466h-207l-152 440h-565l-156 -440h-198zM383 1888h227l195 -297h-121zM436 598h465l-225 666z" />
<glyph unicode="&#xc1;" horiz-adv-x="1341" d="M35 0l522 1466h242l514 -1466h-207l-152 440h-565l-156 -440h-198zM436 598h465l-225 666zM616 1591l195 297h227l-301 -297h-121z" />
<glyph unicode="&#xc2;" horiz-adv-x="1341" d="M35 0l522 1466h242l514 -1466h-207l-152 440h-565l-156 -440h-198zM385 1589l195 301h188l195 -301h-127l-162 193l-160 -193h-129zM436 598h465l-225 666z" />
<glyph unicode="&#xc3;" horiz-adv-x="1341" d="M35 0l522 1466h242l514 -1466h-207l-152 440h-565l-156 -440h-198zM358 1636q35 207 172 207q47 0 95 -18l84 -33q55 -23 92 -23q48 0 73 74h115q-29 -209 -178 -209q-43 0 -131 35q-106 41 -139 41q-45 0 -66 -74h-117zM436 598h465l-225 666z" />
<glyph unicode="&#xc4;" horiz-adv-x="1341" d="M35 0l522 1466h242l514 -1466h-207l-152 440h-565l-156 -440h-198zM408 1726q0 41 29.5 71t70.5 30q43 0 71.5 -30t28.5 -71t-28.5 -70.5t-71.5 -29.5q-41 0 -70.5 30t-29.5 70zM436 598h465l-225 666zM739 1726q0 41 30 71t73 30q41 0 70.5 -30t29.5 -71t-29.5 -70.5 t-70.5 -29.5q-43 0 -73 30t-30 70z" />
<glyph unicode="&#xc5;" horiz-adv-x="1341" d="M35 0l522 1466h242l514 -1466h-207l-152 440h-565l-156 -440h-198zM436 598h465l-225 666zM498 1741q0 74 51 125t125 51t125 -51t51 -125t-51 -125t-125 -51t-125 52t-51 124zM584 1741q0 -37 26.5 -62.5t63.5 -25.5t63.5 25.5t26.5 62.5t-25.5 62.5t-64.5 25.5 q-37 0 -63.5 -25.5t-26.5 -62.5z" />
<glyph unicode="&#xc6;" horiz-adv-x="2011" d="M23 0l602 1466h1249v-166h-746v-466h707v-166h-707v-502h783v-166h-969v430h-543l-170 -430h-206zM463 594h479v706h-201z" />
<glyph unicode="&#xc7;" horiz-adv-x="1452" d="M96 727q0 360 205 582q166 180 465 180q477 0 565 -471h-192q-31 147 -107 215q-98 90 -287 90q-229 0 -354 -180q-109 -158 -108 -414q0 -289 145 -448q129 -137 332 -138q248 0 342 183q43 84 67 223h193q-68 -562 -588 -572l-37 -90q33 4 56 4q160 0 159 -133 q0 -88 -66.5 -138t-180.5 -50q-98 0 -252 68l43 81q10 -6 16 -10q115 -57 180 -57q47 0 78 25.5t31 64.5q0 76 -92 76q-31 0 -64 -17l-22 15l73 164q-186 14 -309 100q-137 96 -214 266t-77 381z" />
<glyph unicode="&#xc8;" horiz-adv-x="1341" d="M180 0v1466h1016v-166h-829v-466h798v-166h-798v-502h864v-166h-1051zM416 1888h225l195 -297h-121z" />
<glyph unicode="&#xc9;" horiz-adv-x="1341" d="M180 0v1466h1016v-166h-829v-466h798v-166h-798v-502h864v-166h-1051zM543 1591l194 297h226l-299 -297h-121z" />
<glyph unicode="&#xca;" horiz-adv-x="1341" d="M180 0v1466h1016v-166h-829v-466h798v-166h-798v-502h864v-166h-1051zM403 1589l195 301h188l195 -301h-127l-162 193l-160 -193h-129z" />
<glyph unicode="&#xcb;" horiz-adv-x="1341" d="M180 0v1466h1016v-166h-829v-466h798v-166h-798v-502h864v-166h-1051zM432 1726q0 41 29.5 71t70.5 30q43 0 73 -30t30 -71t-30 -70.5t-73 -29.5q-41 0 -70.5 30t-29.5 70zM766 1726q0 41 29.5 71t70.5 30t71 -30t30 -71t-30 -70.5t-71 -29.5t-70.5 30t-29.5 70z" />
<glyph unicode="&#xcc;" horiz-adv-x="559" d="M2 1888h227l193 -297h-121zM201 0v1466h186v-1466h-186z" />
<glyph unicode="&#xcd;" horiz-adv-x="559" d="M201 0v1466h186v-1466h-186zM209 1591l192 297h228l-299 -297h-121z" />
<glyph unicode="&#xce;" horiz-adv-x="559" d="M-2 1589l192 301h191l194 -301h-126l-162 193l-160 -193h-129zM201 0v1466h186v-1466h-186z" />
<glyph unicode="&#xcf;" horiz-adv-x="559" d="M20 1726q0 41 30 71t71 30q43 0 72.5 -30t29.5 -71t-29.5 -70.5t-72.5 -29.5q-41 0 -71 30t-30 70zM201 0v1466h186v-1466h-186zM354 1726q0 41 29 71t72 30q41 0 70.5 -30t29.5 -71t-29.5 -70.5t-70.5 -29.5q-43 0 -72 30t-29 70z" />
<glyph unicode="&#xd0;" horiz-adv-x="1452" d="M41 682v133h139v651h565q297 0 457 -221q139 -195 139 -512q0 -365 -180 -561q-158 -172 -416 -172h-565v682h-139zM367 166h346q217 0 329 147q113 143 113 420q0 276 -113 420q-113 147 -329 147h-346v-485h342v-133h-342v-516z" />
<glyph unicode="&#xd1;" horiz-adv-x="1452" d="M154 0v1466h202l766 -1198v1198h176v-1466h-211l-757 1190v-1190h-176zM424 1636q35 207 172 207q47 0 94 -18l84 -33q55 -23 92 -23q51 0 74 74h117q-31 -209 -180 -209q-35 0 -117 29l-96 35q-31 12 -58 12q-45 0 -65 -74h-117z" />
<glyph unicode="&#xd2;" horiz-adv-x="1564" d="M76 733q0 362 221 574q190 182 487 182q340 0 537 -236q170 -205 170 -520q0 -362 -219 -573q-193 -182 -488 -183q-342 0 -538 236q-170 205 -170 520zM262 733q0 -285 162 -448q141 -141 358 -142q252 0 398 183q125 160 125 407q0 285 -162 449q-142 141 -361 141 q-250 0 -395 -182q-125 -160 -125 -408zM494 1888h225l194 -297h-120z" />
<glyph unicode="&#xd3;" horiz-adv-x="1564" d="M76 733q0 362 221 574q190 182 487 182q340 0 537 -236q170 -205 170 -520q0 -362 -219 -573q-193 -182 -488 -183q-342 0 -538 236q-170 205 -170 520zM262 733q0 -285 162 -448q141 -141 358 -142q252 0 398 183q125 160 125 407q0 285 -162 449q-142 141 -361 141 q-250 0 -395 -182q-125 -160 -125 -408zM647 1591l195 297h225l-299 -297h-121z" />
<glyph unicode="&#xd4;" horiz-adv-x="1564" d="M76 733q0 362 221 574q190 182 487 182q340 0 537 -236q170 -205 170 -520q0 -362 -219 -573q-193 -182 -488 -183q-342 0 -538 236q-170 205 -170 520zM262 733q0 -285 162 -448q141 -141 358 -142q252 0 398 183q125 160 125 407q0 285 -162 449q-142 141 -361 141 q-250 0 -395 -182q-125 -160 -125 -408zM496 1589l192 301h191l194 -301h-129l-162 193l-157 -193h-129z" />
<glyph unicode="&#xd5;" horiz-adv-x="1564" d="M76 733q0 362 221 574q190 182 487 182q340 0 537 -236q170 -205 170 -520q0 -362 -219 -573q-193 -182 -488 -183q-342 0 -538 236q-170 205 -170 520zM262 733q0 -285 162 -448q141 -141 358 -142q252 0 398 183q125 160 125 407q0 285 -162 449q-142 141 -361 141 q-250 0 -395 -182q-125 -160 -125 -408zM475 1636q35 207 170 207q47 0 94 -18l84 -33q57 -23 95 -23q48 0 71 74h117q-29 -209 -178 -209q-41 0 -172 49q-68 27 -99 27q-47 0 -67 -74h-115z" />
<glyph unicode="&#xd6;" horiz-adv-x="1564" d="M76 733q0 362 221 574q190 182 487 182q340 0 537 -236q170 -205 170 -520q0 -362 -219 -573q-193 -182 -488 -183q-342 0 -538 236q-170 205 -170 520zM262 733q0 -285 162 -448q141 -141 358 -142q252 0 398 183q125 160 125 407q0 285 -162 449q-142 141 -361 141 q-250 0 -395 -182q-125 -160 -125 -408zM516 1731q0 41 29.5 70.5t70.5 29.5t71 -29.5t30 -70.5q0 -43 -30 -72t-71 -29t-70.5 29t-29.5 72zM848 1731q0 41 29.5 70.5t72.5 29.5q41 0 71 -29.5t30 -70.5q0 -43 -30 -72t-71 -29q-43 0 -72.5 29t-29.5 72z" />
<glyph unicode="&#xd7;" horiz-adv-x="872" d="M66 745l90 91l280 -281l281 281l90 -91l-281 -282l265 -264l-91 -90l-264 264l-264 -264l-90 90l264 264z" />
<glyph unicode="&#xd8;" horiz-adv-x="1564" d="M70 47l166 182q-158 203 -158 506q0 362 221 572q190 182 487 182q270 0 459 -158l164 178l80 -71l-168 -185q172 -209 172 -522q0 -360 -221 -571q-193 -182 -488 -183q-291 0 -477 173l-160 -175zM264 733q0 -210 96 -368l766 835q-137 123 -342 123q-252 0 -395 -182 q-125 -160 -125 -408zM428 281q141 -137 356 -138q252 0 396 183q127 160 127 407q0 223 -109 387z" />
<glyph unicode="&#xd9;" horiz-adv-x="1452" d="M170 461v1005h186v-1005q0 -152 98.5 -235t276.5 -83q188 0 291 95q88 84 88 223v1005h186v-1005q0 -238 -174 -369q-150 -115 -391 -115q-279 0 -430 146q-131 129 -131 338zM442 1888h228l192 -297h-121z" />
<glyph unicode="&#xda;" horiz-adv-x="1452" d="M170 461v1005h186v-1005q0 -152 98.5 -235t276.5 -83q188 0 291 95q88 84 88 223v1005h186v-1005q0 -238 -174 -369q-150 -115 -391 -115q-279 0 -430 146q-131 129 -131 338zM584 1591l192 297h228l-299 -297h-121z" />
<glyph unicode="&#xdb;" horiz-adv-x="1452" d="M170 461v1005h186v-1005q0 -152 98.5 -235t276.5 -83q188 0 291 95q88 84 88 223v1005h186v-1005q0 -238 -174 -369q-150 -115 -391 -115q-279 0 -430 146q-131 129 -131 338zM444 1589l193 301h190l195 -301h-127l-162 193l-160 -193h-129z" />
<glyph unicode="&#xdc;" horiz-adv-x="1452" d="M170 461v1005h186v-1005q0 -152 98.5 -235t276.5 -83q188 0 291 95q88 84 88 223v1005h186v-1005q0 -238 -174 -369q-150 -115 -391 -115q-279 0 -430 146q-131 129 -131 338zM467 1726q0 41 29.5 71t70.5 30t71 -30t30 -71t-30 -70.5t-71 -29.5t-70.5 30t-29.5 70z M799 1726q0 41 29.5 71t72.5 30q41 0 70.5 -30t29.5 -71t-29.5 -70.5t-70.5 -29.5q-43 0 -72.5 30t-29.5 70z" />
<glyph unicode="&#xdd;" horiz-adv-x="1339" d="M27 1466h229l430 -714l418 714h223l-551 -891v-575h-186v575zM590 1591l194 297h226l-299 -297h-121z" />
<glyph unicode="&#xde;" horiz-adv-x="1339" d="M182 0v1466h187v-241h419q223 0 345 -129q104 -113 104 -297q0 -199 -129 -316q-113 -104 -279 -104h-460v-379h-187zM369 545h391q131 0 203.5 67.5t72.5 190.5q0 121 -72.5 188.5t-203.5 67.5h-391v-514z" />
<glyph unicode="&#xdf;" horiz-adv-x="1228" d="M254 0v1083q0 180 104 273q129 111 320 110q190 0 301 -114q98 -100 98 -252q0 -205 -221 -289q283 -94 283 -360q0 -233 -140 -361q-121 -113 -315 -113q-43 0 -84 9v157h33q176 0 258 93q74 84 74 204q0 137 -91 211q-72 57 -219 58h-47v165q137 2 215 60.5t78 159.5 q0 94 -66.5 154.5t-168.5 60.5q-113 0 -179.5 -61.5t-66.5 -164.5v-1083h-166z" />
<glyph unicode="&#xe0;" d="M84 283q0 147 104 227q59 45 248 88l344 78l2 88q0 158 -237 158q-227 0 -244 -185h-170q6 139 70 213q109 125 352 125q395 0 395 -287v-587q0 -78 68 -78q8 0 43 12q12 4 16 6v-135q-70 -25 -108 -24q-164 0 -179 149q-113 -154 -358 -154q-170 0 -264 95 q-82 82 -82 211zM258 285q0 -162 209 -162q147 0 250 96q66 59 65 135v185l-270 -70q-145 -37 -199.5 -76t-54.5 -108zM276 1489h226l194 -299h-121z" />
<glyph unicode="&#xe1;" d="M84 283q0 147 104 227q59 45 248 88l344 78l2 88q0 158 -237 158q-227 0 -244 -185h-170q6 139 70 213q109 125 352 125q395 0 395 -287v-587q0 -78 68 -78q8 0 43 12q12 4 16 6v-135q-70 -25 -108 -24q-164 0 -179 149q-113 -154 -358 -154q-170 0 -264 95 q-82 82 -82 211zM258 285q0 -162 209 -162q147 0 250 96q66 59 65 135v185l-270 -70q-145 -37 -199.5 -76t-54.5 -108zM471 1190l195 299h227l-299 -299h-123z" />
<glyph unicode="&#xe2;" d="M84 283q0 147 104 227q59 45 248 88l344 78l2 88q0 158 -237 158q-227 0 -244 -185h-170q6 139 70 213q109 125 352 125q395 0 395 -287v-587q0 -78 68 -78q8 0 43 12q12 4 16 6v-135q-70 -25 -108 -24q-164 0 -179 149q-113 -154 -358 -154q-170 0 -264 95 q-82 82 -82 211zM258 285q0 -162 209 -162q147 0 250 96q66 59 65 135v185l-270 -70q-145 -37 -199.5 -76t-54.5 -108zM293 1188l192 303h191l192 -303h-127l-161 192l-158 -192h-129z" />
<glyph unicode="&#xe3;" d="M84 283q0 147 104 227q59 45 248 88l344 78l2 88q0 158 -237 158q-227 0 -244 -185h-170q6 139 70 213q109 125 352 125q395 0 395 -287v-587q0 -78 68 -78q8 0 43 12q12 4 16 6v-135q-70 -25 -108 -24q-164 0 -179 149q-113 -154 -358 -154q-170 0 -264 95 q-82 82 -82 211zM258 285q0 -162 209 -162q147 0 250 96q66 59 65 135v185l-270 -70q-145 -37 -199.5 -76t-54.5 -108zM262 1235q35 209 172 209q45 0 92 -21l84 -32q57 -23 95 -23q48 0 71 74h117q-31 -209 -176 -209q-41 0 -92 18l-113 43q-39 16 -68 17q-47 0 -67 -76 h-115z" />
<glyph unicode="&#xe4;" d="M84 283q0 147 104 227q59 45 248 88l344 78l2 88q0 158 -237 158q-227 0 -244 -185h-170q6 139 70 213q109 125 352 125q395 0 395 -287v-587q0 -78 68 -78q8 0 43 12q12 4 16 6v-135q-70 -25 -108 -24q-164 0 -179 149q-113 -154 -358 -154q-170 0 -264 95 q-82 82 -82 211zM258 285q0 -162 209 -162q147 0 250 96q66 59 65 135v185l-270 -70q-145 -37 -199.5 -76t-54.5 -108zM307 1333q0 41 30 71t73 30q41 0 70.5 -30t29.5 -71t-29.5 -70.5t-70.5 -29.5q-43 0 -73 29.5t-30 70.5zM641 1333q0 41 29.5 71t70.5 30q43 0 72 -30 t29 -71t-29 -70.5t-72 -29.5q-41 0 -70.5 29.5t-29.5 70.5z" />
<glyph unicode="&#xe5;" d="M84 283q0 147 104 227q59 45 248 88l344 78l2 88q0 158 -237 158q-227 0 -244 -185h-170q6 139 70 213q109 125 352 125q395 0 395 -287v-587q0 -78 68 -78q8 0 43 12q12 4 16 6v-135q-70 -25 -108 -24q-164 0 -179 149q-113 -154 -358 -154q-170 0 -264 95 q-82 82 -82 211zM258 285q0 -162 209 -162q147 0 250 96q66 59 65 135v185l-270 -70q-145 -37 -199.5 -76t-54.5 -108zM412 1341q0 72 51 124.5t125 52.5t125 -51.5t51 -125.5t-51 -125t-125 -51t-125 51.5t-51 124.5zM498 1341q0 -37 26.5 -63.5t63.5 -26.5t63.5 27 t26.5 61q0 39 -25.5 65t-64.5 26q-37 0 -63.5 -26t-26.5 -63z" />
<glyph unicode="&#xe6;" horiz-adv-x="1804" d="M84 283q0 147 104 225q90 69 301 96l302 39l-9 121q-8 158 -237 158q-227 0 -244 -185h-170q6 139 70 213q109 125 350 125q262 0 346 -149q135 150 352 149q147 0 261 -70.5t165 -197.5q43 -104 43 -324v-6h-776q2 -135 55 -215q88 -129 254 -129q205 0 277 195h168 q-31 -166 -151 -258.5t-302 -92.5q-262 0 -391 201q-176 -201 -420 -201q-170 0 -266 95q-82 80 -82 211zM258 283q0 -160 209 -160q147 0 250 96q66 59 65 135v152l-270 -41q-254 -39 -254 -182zM946 614h592q-2 139 -82 223.5t-209 84.5t-210 -83t-91 -225z" />
<glyph unicode="&#xe7;" horiz-adv-x="1005" d="M61 512q0 274 146 430q125 133 323 133q229 0 344 -153q59 -80 72 -222h-168q-31 221 -250 222q-137 0 -214.5 -108.5t-77.5 -301.5q0 -190 92 -291q78 -88 209 -88q211 0 251 229h170q-16 -193 -137 -294q-108 -87 -280 -91l-37 -88q33 2 55 2q160 0 160 -133 q0 -88 -65.5 -138t-182.5 -50q-96 0 -250 68l41 81q133 -68 197 -67q47 0 77.5 26.5t30.5 65.5q0 74 -90 74q-31 0 -63 -15l-25 13l74 166q-201 27 -309 184q-92 137 -93 346z" />
<glyph unicode="&#xe8;" d="M80 520q0 272 147 424q129 131 334 131q150 0 263.5 -71.5t162.5 -196.5q43 -106 43 -324v-6h-776q2 -135 57 -215q88 -129 254 -129q205 0 277 195h168q-33 -166 -152 -258.5t-299 -92.5q-240 0 -366 164q-113 143 -113 379zM260 614h590q0 137 -81 222.5t-208 85.5 q-129 0 -210 -83t-91 -225zM313 1489h226l194 -299h-121z" />
<glyph unicode="&#xe9;" d="M80 520q0 272 147 424q129 131 334 131q150 0 263.5 -71.5t162.5 -196.5q43 -106 43 -324v-6h-776q2 -135 57 -215q88 -129 254 -129q205 0 277 195h168q-33 -166 -152 -258.5t-299 -92.5q-240 0 -366 164q-113 143 -113 379zM260 614h590q0 137 -81 222.5t-208 85.5 q-129 0 -210 -83t-91 -225zM481 1190l195 299h225l-299 -299h-121z" />
<glyph unicode="&#xea;" d="M80 520q0 272 147 424q129 131 334 131q150 0 263.5 -71.5t162.5 -196.5q43 -106 43 -324v-6h-776q2 -135 57 -215q88 -129 254 -129q205 0 277 195h168q-33 -166 -152 -258.5t-299 -92.5q-240 0 -366 164q-113 143 -113 379zM260 614h590q0 137 -81 222.5t-208 85.5 q-129 0 -210 -83t-91 -225zM287 1188l192 303h191l194 -303h-127l-162 192l-159 -192h-129z" />
<glyph unicode="&#xeb;" d="M80 520q0 272 147 424q129 131 334 131q150 0 263.5 -71.5t162.5 -196.5q43 -106 43 -324v-6h-776q2 -135 57 -215q88 -129 254 -129q205 0 277 195h168q-33 -166 -152 -258.5t-299 -92.5q-240 0 -366 164q-113 143 -113 379zM260 614h590q0 137 -81 222.5t-208 85.5 q-129 0 -210 -83t-91 -225zM307 1337q0 41 30 71t73 30q41 0 70.5 -30t29.5 -71q0 -43 -29.5 -71.5t-70.5 -28.5q-43 0 -73 28.5t-30 71.5zM641 1337q0 41 29.5 71t70.5 30q43 0 72 -30t29 -71q0 -43 -29 -71.5t-72 -28.5q-41 0 -70.5 28.5t-29.5 71.5z" />
<glyph unicode="&#xec;" horiz-adv-x="559" d="M-10 1489h227l193 -299h-121zM188 0v1053h168v-1053h-168z" />
<glyph unicode="&#xed;" horiz-adv-x="559" d="M188 0v1053h166v-1053h-166zM211 1190l192 299h228l-299 -299h-121z" />
<glyph unicode="&#xee;" horiz-adv-x="559" d="M-14 1188l192 303h191l194 -303h-127l-162 192l-159 -192h-129zM188 0v1053h168v-1053h-168z" />
<glyph unicode="&#xef;" horiz-adv-x="559" d="M2 1319q0 41 29.5 70.5t70.5 29.5q43 0 73 -29.5t30 -70.5q0 -43 -30 -72.5t-73 -29.5q-41 0 -70.5 29.5t-29.5 72.5zM188 0v1053h168v-1053h-168zM336 1319q0 41 28.5 70.5t71.5 29.5q41 0 71 -29.5t30 -70.5q0 -43 -30 -72.5t-71 -29.5q-43 0 -71.5 29.5t-28.5 72.5z " />
<glyph unicode="&#xf0;" d="M72 520q0 342 213 481q109 72 241 72q51 0 109 -18q-103 100 -197 178l-194 -90l-72 78l174 79q-76 53 -168 105l88 88q115 -55 226 -125l192 90l80 -76l-176 -82q190 -147 293 -301q145 -219 145 -477q0 -276 -141 -420q-125 -125 -334 -125q-242 0 -369 162 q-111 141 -110 381zM246 520q0 -195 92 -297q80 -90 213 -90q141 0 220 102.5t79 284.5q0 201 -90 307q-78 95 -207 95q-143 0 -225 -107.5t-82 -294.5z" />
<glyph unicode="&#xf1;" d="M141 0v1053h156v-179q127 201 348 201q154 0 244 -76.5t90 -205.5v-793h-166v725q0 94 -58.5 149.5t-158.5 55.5q-131 0 -209 -96.5t-78 -255.5v-578h-168zM246 1235q35 209 172 209q45 0 94 -21l84 -32q55 -23 92 -23q49 0 74 74h115q-29 -209 -177 -209q-41 0 -92 18 l-82 33q-68 27 -96 27q-47 0 -68 -76h-116z" />
<glyph unicode="&#xf2;" d="M72 520q0 279 145 428q125 127 336 127q238 0 362 -166q111 -143 111 -389q0 -274 -143 -418q-123 -125 -332 -125q-242 0 -369 162q-111 141 -110 381zM246 520q0 -195 92 -297q80 -90 213 -90q141 0 220 102.5t79 284.5q0 201 -90 307q-78 95 -207 95 q-143 0 -225 -107.5t-82 -294.5zM285 1489h227l193 -299h-121z" />
<glyph unicode="&#xf3;" d="M72 520q0 279 145 428q125 127 336 127q238 0 362 -166q111 -143 111 -389q0 -274 -143 -418q-123 -125 -332 -125q-242 0 -369 162q-111 141 -110 381zM246 520q0 -195 92 -297q80 -90 213 -90q141 0 220 102.5t79 284.5q0 201 -90 307q-78 95 -207 95 q-143 0 -225 -107.5t-82 -294.5zM471 1190l195 299h225l-299 -299h-121z" />
<glyph unicode="&#xf4;" d="M72 520q0 279 145 428q125 127 336 127q238 0 362 -166q111 -143 111 -389q0 -274 -143 -418q-123 -125 -332 -125q-242 0 -369 162q-111 141 -110 381zM246 520q0 -195 92 -297q80 -90 213 -90q141 0 220 102.5t79 284.5q0 201 -90 307q-78 95 -207 95 q-143 0 -225 -107.5t-82 -294.5zM260 1188l193 303h190l195 -303h-129l-162 192l-158 -192h-129z" />
<glyph unicode="&#xf5;" d="M72 520q0 279 145 428q125 127 336 127q238 0 362 -166q111 -143 111 -389q0 -274 -143 -418q-123 -125 -332 -125q-242 0 -369 162q-111 141 -110 381zM238 1235q35 209 172 209q45 0 94 -21l84 -32q55 -23 94 -23q47 0 72 74h116q-31 -209 -176 -209q-43 0 -92 18 l-84 33q-68 27 -96 27q-45 0 -68 -76h-116zM246 520q0 -195 92 -297q80 -90 213 -90q141 0 220 102.5t79 284.5q0 201 -90 307q-78 95 -207 95q-143 0 -225 -107.5t-82 -294.5z" />
<glyph unicode="&#xf6;" d="M72 520q0 279 145 428q125 127 336 127q238 0 362 -166q111 -143 111 -389q0 -274 -143 -418q-123 -125 -332 -125q-242 0 -369 162q-111 141 -110 381zM246 520q0 -195 92 -297q80 -90 213 -90q141 0 220 102.5t79 284.5q0 201 -90 307q-78 95 -207 95 q-143 0 -225 -107.5t-82 -294.5zM276 1329q0 41 30 71t73 30q41 0 70.5 -29t29.5 -72q0 -41 -29.5 -70.5t-70.5 -29.5q-43 0 -73 29.5t-30 70.5zM610 1329q0 41 30 71t71 30q43 0 72.5 -29t29.5 -72q0 -41 -29.5 -70.5t-72.5 -29.5q-41 0 -71 29.5t-30 70.5z" />
<glyph unicode="&#xf7;" horiz-adv-x="1040" d="M84 391v144h870v-144h-870zM418 143q0 41 29.5 71t70.5 30q43 0 71.5 -30t28.5 -71q0 -43 -28.5 -72.5t-71.5 -29.5q-41 0 -70.5 29.5t-29.5 72.5zM418 784q0 41 29.5 71t70.5 30q43 0 71.5 -30t28.5 -71t-28.5 -70.5t-71.5 -29.5q-41 0 -70.5 29.5t-29.5 70.5z" />
<glyph unicode="&#xf8;" horiz-adv-x="1228" d="M43 2l133 150q-104 145 -104 368q0 279 145 426q127 129 336 129q203 0 330 -125l112 129l66 -55l-125 -141q90 -139 90 -363q0 -274 -141 -418q-123 -125 -332 -125q-193 0 -320 111l-127 -141zM248 520q0 -141 47 -233l473 534q-84 100 -215 101q-141 0 -223 -107.5 t-82 -294.5zM346 215q84 -82 207 -82q139 0 219 102.5t80 284.5q0 131 -39 223z" />
<glyph unicode="&#xf9;" d="M131 260v793h166v-725q0 -92 59.5 -147.5t159.5 -55.5q131 0 209 95t78 257v576h166v-1053h-150v166q-135 -188 -352 -189q-154 0 -245 77t-91 206zM262 1489h225l195 -299h-121z" />
<glyph unicode="&#xfa;" d="M131 260v793h166v-725q0 -92 59.5 -147.5t159.5 -55.5q131 0 209 95t78 257v576h166v-1053h-150v166q-135 -188 -352 -189q-154 0 -245 77t-91 206zM459 1190l192 299h228l-299 -299h-121z" />
<glyph unicode="&#xfb;" d="M131 260v793h166v-725q0 -92 59.5 -147.5t159.5 -55.5q131 0 209 95t78 257v576h166v-1053h-150v166q-135 -188 -352 -189q-154 0 -245 77t-91 206zM264 1188l193 303h190l195 -303h-129l-162 192l-158 -192h-129z" />
<glyph unicode="&#xfc;" d="M131 260v793h166v-725q0 -92 59.5 -147.5t159.5 -55.5q131 0 209 95t78 257v576h166v-1053h-150v166q-135 -188 -352 -189q-154 0 -245 77t-91 206zM283 1333q0 41 29.5 71t70.5 30q43 0 71.5 -30t28.5 -71t-28.5 -70.5t-71.5 -29.5q-41 0 -70.5 29.5t-29.5 70.5z M614 1333q0 41 30 71t73 30q41 0 70.5 -30t29.5 -71t-29.5 -70.5t-70.5 -29.5q-43 0 -73 29.5t-30 70.5z" />
<glyph unicode="&#xfd;" horiz-adv-x="1005" d="M41 1053h180l268 -820l293 820h181l-469 -1274q-82 -217 -273 -217q-90 0 -158 41l33 145q51 -20 101 -20q98 0 137 102l63 168zM426 1190l195 299h225l-299 -299h-121z" />
<glyph unicode="&#xfe;" horiz-adv-x="1116" d="M109 -438v1874h165v-527q115 166 326 166q223 0 344 -172q106 -150 107 -393q0 -260 -140 -406q-121 -127 -313 -127q-203 0 -324 146v-561h-165zM276 520q0 -188 93 -295q78 -90 202 -90q139 0 222.5 105.5t83.5 279.5q0 193 -95 303q-84 97 -211 97q-133 0 -214 -109 t-81 -291z" />
<glyph unicode="&#xff;" horiz-adv-x="1005" d="M41 1053h180l268 -820l293 820h181l-469 -1274q-82 -217 -273 -217q-90 0 -158 41l33 145q51 -20 101 -20q98 0 137 102l63 168zM223 1337q0 41 29 71t72 30q41 0 70.5 -30t29.5 -71q0 -43 -29.5 -71.5t-70.5 -28.5q-43 0 -72 28.5t-29 71.5zM555 1337q0 41 29.5 71 t70.5 30q43 0 73 -30t30 -71q0 -43 -30 -71.5t-73 -28.5q-41 0 -70.5 28.5t-29.5 71.5z" />
<glyph unicode="&#x2000;" horiz-adv-x="958" />
<glyph unicode="&#x2001;" horiz-adv-x="1917" />
<glyph unicode="&#x2002;" horiz-adv-x="958" />
<glyph unicode="&#x2003;" horiz-adv-x="1917" />
<glyph unicode="&#x2004;" horiz-adv-x="639" />
<glyph unicode="&#x2005;" horiz-adv-x="479" />
<glyph unicode="&#x2006;" horiz-adv-x="319" />
<glyph unicode="&#x2007;" horiz-adv-x="319" />
<glyph unicode="&#x2008;" horiz-adv-x="239" />
<glyph unicode="&#x2009;" horiz-adv-x="383" />
<glyph unicode="&#x200a;" horiz-adv-x="106" />
<glyph unicode="&#x2010;" horiz-adv-x="657" d="M76 391v148h506v-148h-506z" />
<glyph unicode="&#x2011;" horiz-adv-x="657" d="M76 391v148h506v-148h-506z" />
<glyph unicode="&#x2012;" horiz-adv-x="657" d="M76 391v148h506v-148h-506z" />
<glyph unicode="&#x2013;" horiz-adv-x="962" d="M76 391v148h811v-148h-811z" />
<glyph unicode="&#x2014;" horiz-adv-x="1927" d="M76 391v148h1775v-148h-1775z" />
<glyph unicode="&#x2018;" horiz-adv-x="430" d="M104 1161q0 150 134 305h41l49 -41q-45 -53 -78 -122q-20 -43 -31 -89h6q39 0 68 -28.5t29 -69.5q0 -25 -15 -53q-27 -51 -86 -51q-51 0 -84 42t-33 107z" />
<glyph unicode="&#x2019;" horiz-adv-x="430" d="M104 1053q43 55 76 123q23 43 33 88h-4q-41 0 -68.5 26.5t-29.5 69.5q0 29 14 55q27 51 86 51q51 0 84 -42t33 -107q0 -147 -135 -305h-39z" />
<glyph unicode="&#x201a;" horiz-adv-x="430" d="M104 -178q43 55 76 125q23 43 33 88h-2h-2q-41 0 -68.5 26.5t-29.5 69.5q0 29 14 55q27 51 86 52q51 0 84 -42t33 -108q0 -147 -135 -305h-39z" />
<glyph unicode="&#x201c;" horiz-adv-x="737" d="M104 1161q0 150 134 305h41l49 -41q-45 -53 -78 -122q-20 -43 -31 -89h6q39 0 68 -28.5t29 -69.5q0 -25 -15 -53q-27 -51 -86 -51q-51 0 -84 42t-33 107zM412 1161q0 147 135 305h39l49 -41q-43 -53 -76 -122q-23 -43 -33 -89q23 0 35 -4q20 -6 33 -18q33 -27 35 -74 q0 -29 -15 -55q-27 -51 -86 -51q-51 0 -83.5 42t-32.5 107z" />
<glyph unicode="&#x201d;" horiz-adv-x="737" d="M104 1053q43 55 76 123q23 43 33 88h-4q-41 0 -68.5 26.5t-29.5 69.5q0 29 14 55q27 51 86 51q51 0 84 -42t33 -107q0 -147 -135 -305h-39zM412 1053q43 55 75 123q23 43 33 88h-6q-39 0 -67.5 28.5t-28.5 69.5q0 25 14 53q27 51 86 51q51 0 84 -42t33 -107 q0 -147 -135 -305h-39z" />
<glyph unicode="&#x201e;" horiz-adv-x="737" d="M104 -178q43 55 76 125q23 43 33 88h-2h-2q-41 0 -68.5 26.5t-29.5 69.5q0 29 14 55q27 51 86 52q51 0 84 -42t33 -108q0 -147 -135 -305h-39zM412 -178q43 55 75 125q23 43 33 88h-6q-39 0 -67.5 28.5t-28.5 67.5q0 27 14 55q27 51 86 52q51 0 84 -42t33 -108 q0 -147 -135 -305h-39z" />
<glyph unicode="&#x2022;" horiz-adv-x="749" d="M172 354q0 82 59.5 141.5t143.5 59.5q82 0 141 -59.5t59 -141.5q0 -84 -59 -143t-141 -59q-84 0 -143.5 59t-59.5 143z" />
<glyph unicode="&#x2026;" horiz-adv-x="1021" d="M104 90q0 43 30 71.5t71 28.5q43 0 71.5 -28.5t28.5 -71.5q0 -41 -28.5 -70.5t-71.5 -29.5q-41 0 -71 29.5t-30 70.5zM408 90q0 43 28.5 71.5t71.5 28.5q41 0 70.5 -28.5t29.5 -71.5q0 -41 -29.5 -70.5t-70.5 -29.5q-43 0 -71.5 29.5t-28.5 70.5zM717 90q0 43 29.5 71.5 t70.5 28.5q43 0 72 -28.5t29 -71.5q0 -41 -29 -70.5t-72 -29.5q-41 0 -70.5 29.5t-29.5 70.5z" />
<glyph unicode="&#x202f;" horiz-adv-x="383" />
<glyph unicode="&#x2039;" horiz-adv-x="546" d="M76 537v16l284 420h54l55 -47l-246 -379l248 -381l-57 -47h-54z" />
<glyph unicode="&#x203a;" horiz-adv-x="546" d="M76 166l248 381l-248 379l57 47h53l285 -420v-16l-285 -418h-53z" />
<glyph unicode="&#x205f;" horiz-adv-x="479" />
<glyph unicode="&#x20ac;" horiz-adv-x="1308" d="M188 473v129h140q-4 61 -4 88q0 37 4 62h-140v129h152q33 238 164 376q133 141 344 142q137 0 242 -74v-151q-117 70 -230 69q-129 0 -221 -94q-88 -94 -123 -268h408v-129h-422q-4 -18 -4 -66q0 -51 4 -84h422v-129h-404q33 -178 125 -256t268 -78q129 0 207 35v-78 l-71 -88q-92 -27 -195 -26q-211 0 -344 133q-127 125 -168 358h-154z" />
<glyph unicode="&#x2122;" horiz-adv-x="1370" d="M29 1276v102h491v-102h-186v-526l-66 -52h-55v578h-184zM584 698v680h174l170 -520l180 520h168v-628l-64 -52h-55v519h-2l-184 -519h-94l-177 519h-2v-519h-114z" />
<glyph unicode="&#x25fc;" horiz-adv-x="1054" d="M0 0v1055h1055v-1055h-1055z" />
</font>
</defs>
</svg>
