<?xml version="1.0" standalone="no"?>
<!DOCTYPE svg PUBLIC "-//W3C//DTD SVG 1.1//EN" "http://www.w3.org/Graphics/SVG/1.1/DTD/svg11.dtd" >
<svg xmlns="http://www.w3.org/2000/svg" xmlns:xlink="http://www.w3.org/1999/xlink" version="1.1">
<metadata></metadata>
<defs>
<font id="amiriregular" horiz-adv-x="0" >
<font-face units-per-em="1000" ascent="800" descent="-200" />
<missing-glyph horiz-adv-x="292" />
<glyph unicode="&#x640;&#x640;" horiz-adv-x="371" d="M186 -4q-117 0 -186 4q-8 0 -13 15l-12 44q-4 16 2 24t23 7q86 -3 186 -3t185 3q17 1 23.5 -6.5t1.5 -24.5l-12 -44q-4 -15 -12 -15q-69 -4 -186 -4z" />
<glyph unicode="&#x640;&#x640;&#x640;" horiz-adv-x="556" d="M557 0q-169 -13 -279 -13q-109 0 -278 13q-8 0 -13 15l-12 44q-9 34 25 31q156 -12 278 -12q123 0 279 12q17 1 23 -7t2 -24l-13 -44q-5 -15 -12 -15z" />
<glyph unicode="&#x640;&#x640;&#x640;&#x640;" horiz-adv-x="742" d="M742 0q-169 -13 -371 -13t-371 13q-8 0 -13 15l-12 44q-9 34 25 31q156 -12 371 -12t371 12q17 1 23.5 -7t2.5 -24l-13 -44q-4 -15 -13 -15z" />
<glyph unicode="&#x640;&#x640;&#x640;&#x640;&#x640;" horiz-adv-x="927" d="M928 0q-169 -13 -464 -13t-464 13q-8 0 -13 15l-12 44q-9 34 25 31q156 -12 464 -12t464 12q17 1 23 -7t2 -24l-13 -44q-4 -15 -12 -15z" />
<glyph unicode="&#x640;&#x640;&#x640;&#x640;&#x640;&#x640;" horiz-adv-x="1113" d="M1113 90q27 2 27 -19q0 -7 -1 -12l-13 -44q-4 -15 -13 -15q-143 -20 -556 -20q-354 0 -557 20q-8 0 -13 15l-12 44q-2 10 -2 13q1 21 27 18q135 -19 557 -19q357 0 556 19z" />
<glyph unicode="&#x640;&#x640;&#x640;&#x640;&#x640;&#x640;&#x640;" horiz-adv-x="1298" d="M1299 90q26 1 26 -19q0 -8 -1 -12l-13 -44q-3 -15 -12 -15q-291 -29 -650 -29q-342 0 -649 29q-8 0 -13 15l-12 44q-2 10 -2 13q1 21 27 18q296 -28 650 -28q368 0 649 28z" />
<glyph unicode="ff" horiz-adv-x="546" d="M489 629q-72 0 -72 -137v-70h113q5 0 5 -11q0 -15 -14 -29h-104v-269q0 -56 5 -72q2 -7 26.5 -11.5t39.5 -4.5q3 -4 3.5 -14t-3.5 -14q-100 5 -109 5q-3 0 -103 -5q-4 4 -3.5 14t3.5 14q14 0 36.5 4.5t24.5 11.5q5 16 5 72v269h-174v-269q0 -56 5 -72q2 -7 26.5 -11.5 t39.5 -4.5q3 -4 3.5 -14t-3.5 -14q-100 5 -109 5q-3 0 -103 -5q-4 4 -3.5 14t3.5 14q14 0 36.5 4.5t24.5 11.5q5 16 5 72v269h-56q-3 0 -3 9q0 5 9.5 18t18.5 13h31v6q0 79 65.5 149t135.5 70q41 0 73 -11t44 -24q21 28 55.5 48.5t69.5 20.5q25 0 41 -13q5 -10 5 -26 q0 -19 -11 -31t-23 -12q-21 0 -33 16q-12 14 -26 14zM357 542q1 2 2 4.5t2 4t1 2.5t-1 4q-3 9 -10.5 18.5t-28.5 21.5t-49 12q-55 0 -80 -49t-25 -123v-15h174v33q0 37 15 87z" />
<glyph unicode="fi" horiz-adv-x="519" d="M282 409q100 0 146 14l2 1h3q4 0 5 -8.5t0 -12.5q-5 -39 -5 -70v-220q0 -56 5 -72q2 -7 24.5 -11.5t36.5 -4.5q3 -4 3.5 -14t-3.5 -14q-100 5 -104 5t-104 -5q-4 4 -3.5 14t3.5 14q14 0 37 4.5t25 11.5q5 16 5 72v185q0 31 -14 53q-11 18 -71 18h-104v-256q0 -56 5 -72 q2 -7 26.5 -11.5t39.5 -4.5q3 -4 3.5 -14t-3.5 -14q-100 5 -109 5q-3 0 -103 -5q-4 4 -3.5 14t3.5 14q14 0 36.5 4.5t24.5 11.5q5 16 5 72v256h-57q-2 0 -2 9q0 5 9.5 18t18.5 13h31v15q0 57 26.5 116t74 100t101.5 41q62 0 107 -47q32 -32 32 -63q0 -16 -12.5 -28 t-30.5 -12q-31 0 -45 35q-15 38 -16 39q-22 30 -61 30q-41 0 -71 -55.5t-30 -123.5v-47h113z" />
<glyph unicode="ffi" horiz-adv-x="795" d="M633 113v190q0 29 -12 46q-10 14 -71 14h-101q-6 0 -6 -6v-225q0 -57 8 -87q2 -7 24 -13.5t31 -6.5q3 0 4 -11.5t-1 -16.5q-97 5 -105 5q-2 0 -102 -5q-4 4 -4 15q0 13 4 13q12 0 33 6.5t23 13.5q9 34 9 87q2 137 2 224q0 7 -5 7h-187q-6 0 -6 -6v-225q0 -57 8 -87 q2 -7 23.5 -13.5t30.5 -6.5q3 0 4 -11.5t-1 -16.5q-98 5 -104 5q-3 0 -103 -5q-4 4 -4 15q0 13 4 13q12 0 33.5 6.5t23.5 13.5q9 34 9 87q2 137 2 224q0 7 -5 7h-52q-3 0 -3 6q0 10 5.5 25t9.5 15h40q5 0 5 6v13q0 101 65 169t140 68q47 0 79.5 -22.5t44.5 -43.5 q61 80 137 80q44 0 88 -23q53 -28 53 -58q0 -20 -12 -33t-32 -13q-29 0 -41 21q-26 43 -46 57q-18 11 -40 11q-43 0 -68.5 -54t-21.5 -123v-50q0 -5 5 -5h109q110 0 146 14q1 0 3 1l2 2q5 0 5 -21v-2q-5 -39 -5 -70v-201q0 -57 8 -87q2 -7 25 -13.5t33 -6.5q3 0 4 -11.5 t-1 -16.5q-97 5 -104 5t-107 -5q-4 4 -4 16t4 12q12 0 35 6.5t25 13.5q7 28 7 68zM268 627q-46 0 -71.5 -47t-25.5 -116v-50q0 -5 5 -5h188q5 0 5 6v4q0 56 12 95q2 5 2 14q0 5 -4 17l-5 11q-6 12 -13 22t-19 22t-31.5 19.5t-42.5 7.5z" />
<glyph unicode="fl" horiz-adv-x="541" d="M94 113q1 156 1 243q0 7 -4 7h-52q-3 0 -3 6q0 10 5.5 25t9.5 15h40q4 0 4 6v13q0 103 61.5 177t133.5 74q15 0 47.5 -11.5t44.5 -11.5q14 0 30 5.5t27 10.5l11 6h3q9 0 12 -16q-11 -31 -11 -85v-445q0 -57 8 -87q2 -7 25 -13.5t33 -6.5q3 0 4 -11.5t-1 -16.5 q-97 5 -104 5t-107 -5q-4 4 -4 16t4 12q12 0 35 6.5t25 13.5q7 28 7 68v376q0 52 -11 76q-10 22 -42.5 49t-65.5 27q-42 0 -66 -53t-24 -124v-50q0 -5 5 -5h108q5 0 5 -7q0 -15 -12 -39h-100q-6 0 -6 -6v-225q2 -69 7 -87q2 -7 25.5 -13.5t33.5 -6.5q3 0 4 -11.5t-1 -16.5 q-97 5 -104 5t-107 -5q-4 4 -4 16t4 12q12 0 35 6.5t25 13.5q6 24 6 68z" />
<glyph unicode="ffl" horiz-adv-x="813" d="M651 113v376q0 55 -10 76q-10 22 -43 49t-66 27q-42 0 -66 -53t-24 -124v-50q0 -5 5 -5h109q5 0 5 -7q0 -15 -12 -39h-101q-6 0 -6 -6l2 -225q0 -57 8 -87q2 -7 24 -13.5t31 -6.5q3 0 4 -11.5t-1 -16.5q-98 5 -105 5q-2 0 -102 -5q-4 4 -4 15q0 13 4 13q12 0 33 6.5 t23 13.5q9 34 9 87v224q0 7 -5 7h-186q-7 0 -7 -6l2 -225q0 -57 8 -87q2 -7 23.5 -13.5t30.5 -6.5q3 0 4 -11.5t-1 -16.5q-97 5 -104 5q-3 0 -103 -5q-4 4 -4 15q0 13 4 13q12 0 33.5 6.5t23.5 13.5q9 34 9 87v224q0 7 -5 7h-52q-3 0 -3 6q0 10 5.5 25t9.5 15h40q5 0 5 6v13 q0 101 65 169t140 68q47 0 79.5 -22.5t44.5 -43.5q58 80 137 80q15 0 47.5 -11.5t44.5 -11.5q14 0 30.5 5.5t27.5 10.5l11 6h3q8 0 11 -16q-10 -31 -10 -85v-445q0 -61 7 -87q2 -7 25.5 -13.5t33.5 -6.5q3 0 4 -11.5t-1 -16.5q-98 5 -105 5q-6 0 -106 -5q-4 4 -4 16t4 12 q12 0 35 6.5t25 13.5q6 24 6 68zM378 545l-6 11q-5 12 -12 22t-19 22t-31.5 19.5t-42.5 7.5q-46 0 -71.5 -47t-25.5 -116v-50q0 -5 5 -5h188q3 0 5 10q4 69 12 95q2 5 2 14q0 5 -4 17z" />
<glyph unicode="fb" horiz-adv-x="798" d="M380 490q0 51 -11 75q-10 22 -42.5 49t-65.5 27q-42 0 -66 -53t-24 -124v-50q0 -5 5 -5h108q5 0 5 -7q0 -15 -12 -39h-100q-6 0 -6 -6l1 -225q0 -57 8 -87q2 -7 23.5 -13.5t30.5 -6.5q3 0 4 -11.5t-1 -16.5q-97 5 -104 5q-3 0 -103 -5q-4 4 -4 15q0 13 4 13 q12 0 33.5 6.5t23.5 13.5q9 34 9 87q1 137 1 224q0 7 -5 7h-52q-3 0 -3 6q0 10 5.5 25t9.5 15h40q5 0 5 6v13q0 103 61 177t133 74q15 0 47.5 -11.5t44.5 -11.5q14 0 30 5.5t27 10.5l11 6h3q9 0 12 -16q-11 -31 -11 -85v-192q0 -11 3 -11q1 0 3 1q20 15 57 34t61 19 q82 0 130.5 -63t48.5 -137q0 -97 -69 -166t-172 -69q-21 0 -73 15q-1 0 -4 1t-4 1q-35 12 -55 4q-3 0 -8 8.5t-5 12.5q12 27 12 72v383zM532 370q-17 0 -40.5 -9t-31.5 -17q-5 -5 -5 -11v-237q0 -30 28.5 -50t62.5 -20q51 0 90.5 51t39.5 112q0 84 -39 132.5t-105 48.5z" />
<glyph unicode="ffb" horiz-adv-x="1070" d="M651 489q0 55 -10 76q-10 22 -43 49t-66 27q-42 0 -66 -53t-24 -124v-50q0 -5 5 -5h109q5 0 5 -7q0 -15 -12 -39h-101q-6 0 -6 -6l2 -225q0 -57 8 -87q2 -7 24 -13.5t31 -6.5q3 0 4 -11.5t-1 -16.5q-98 5 -105 5q-2 0 -102 -5q-4 4 -4 15q0 13 4 13q12 0 33 6.5t23 13.5 q9 34 9 87v224q0 7 -5 7h-186q-7 0 -7 -6l2 -225q0 -57 8 -87q2 -7 23.5 -13.5t30.5 -6.5q3 0 4 -11.5t-1 -16.5q-97 5 -104 5q-3 0 -103 -5q-4 4 -4 15q0 13 4 13q12 0 33.5 6.5t23.5 13.5q9 34 9 87v224q0 7 -5 7h-52q-3 0 -3 6q0 10 5.5 25t9.5 15h40q5 0 5 6v13 q0 101 65 169t140 68q47 0 79.5 -22.5t44.5 -43.5q58 80 137 80q15 0 47.5 -11.5t44.5 -11.5q14 0 30.5 5.5t27.5 10.5l11 6h3q8 0 11 -16q-10 -31 -10 -85v-192v-2q0 -9 2 -9q1 0 3 1q20 15 57.5 34t61.5 19q82 0 130 -62.5t48 -137.5q0 -97 -69 -166t-172 -69 q-20 0 -72 15q-1 0 -3.5 1t-3.5 1q-36 11 -57 4q-3 0 -7.5 8.5t-4.5 12.5q11 24 11 72v382zM804 370q-17 0 -41 -9t-32 -17q-4 -4 -4 -11v-237q0 -30 28 -50t62 -20q51 0 90.5 51t39.5 112q0 84 -38.5 132.5t-104.5 48.5zM378 545l-6 11q-5 12 -12 22t-19 22t-31.5 19.5 t-42.5 7.5q-46 0 -71.5 -47t-25.5 -116v-50q0 -5 5 -5h188q3 0 5 10q4 69 12 95q2 5 2 14q0 5 -4 17z" />
<glyph unicode="fk" horiz-adv-x="788" d="M379 488q0 53 -10 77q-9 21 -42 48.5t-66 27.5q-42 0 -66 -53t-24 -124v-50q0 -5 5 -5h108q5 0 5 -7q0 -15 -12 -39h-100q-6 0 -6 -6l1 -225q0 -57 8 -87q2 -7 23.5 -13.5t30.5 -6.5q3 0 4 -11.5t-1 -16.5q-97 5 -104 5q-3 0 -103 -5q-4 4 -4 15q0 13 4 13q12 0 33.5 6.5 t23.5 13.5q9 34 9 87q1 137 1 224q0 7 -5 7h-52q-3 0 -3 6q0 10 5.5 25t9.5 15h40q5 0 5 6v13q0 103 61 177t133 74q15 0 47.5 -11.5t44.5 -11.5q14 0 30 5.5t27 10.5l11 6h3q9 0 12 -16q-12 -31 -12 -85v-348q16 6 80 60q12 10 28.5 23.5t25.5 21t18.5 15.5t13.5 13t4 8 q0 12 -47 17q-4 5 -3 15.5t5 12.5q47 -5 94 -5q51 0 86 5q3 -5 2.5 -15t-2.5 -13q-13 0 -37 -6.5t-38 -16.5q-113 -82 -159 -121q27 -29 70 -77t69.5 -76.5t36.5 -37.5q35 -29 90 -27q2 -3 2.5 -11t-1.5 -12q-14 -6 -63 -6q-39 0 -73 14t-48 29q-83 90 -139 151l-15 9v-86 q0 -56 5 -72q2 -7 25 -11.5t37 -4.5q3 -4 3.5 -14t-3.5 -14q-100 5 -105 5q-4 0 -104 -5q-4 4 -3.5 14t3.5 14q14 0 37 4.5t25 11.5q5 16 5 72v375z" />
<glyph unicode="ffk" horiz-adv-x="1059" d="M650 489q0 57 -9 76q-9 21 -42.5 48.5t-66.5 27.5q-42 0 -66 -53t-24 -124v-50q0 -5 5 -5h109q5 0 5 -7q0 -15 -12 -39h-101q-6 0 -6 -6l2 -225q0 -57 8 -87q2 -7 24 -13.5t31 -6.5q3 0 4 -11.5t-1 -16.5q-98 5 -105 5q-2 0 -102 -5q-4 4 -4 15q0 13 4 13q12 0 33 6.5 t23 13.5q7 27 9 87v224q0 7 -5 7h-186q-7 0 -7 -6l2 -225q0 -57 8 -87q2 -7 23.5 -13.5t30.5 -6.5q3 0 4 -11.5t-1 -16.5q-97 5 -104 5q-3 0 -103 -5q-4 4 -4 15q0 13 4 13q12 0 33.5 6.5t23.5 13.5q7 27 9 87v224q0 7 -5 7h-52q-3 0 -3 6q0 10 5.5 25t9.5 15h40q5 0 5 6v13 q0 101 65 169t140 68q47 0 79.5 -22.5t44.5 -43.5q58 80 137 80q15 0 48 -11.5t44 -11.5q14 0 30.5 5.5t27.5 10.5l11 6h3q8 0 11 -16q-11 -31 -11 -85v-348q16 6 80 60q12 10 28.5 23.5t25.5 21t18.5 15.5t13.5 13t4 8q0 12 -47 17q-4 5 -3 15.5t5 12.5q47 -5 93 -5 q51 0 86 5q3 -5 2.5 -15t-2.5 -13q-13 0 -37 -6.5t-38 -16.5q-106 -77 -158 -121q27 -29 70 -77t69.5 -76.5t36.5 -37.5q35 -29 89 -27q2 -3 2.5 -11t-1.5 -12q-14 -6 -63 -6q-39 0 -72.5 14t-47.5 29q-84 90 -140 151l-14 9v-86v-12q0 -46 4 -60q2 -7 25 -11.5t37 -4.5 q3 -4 3.5 -14t-3.5 -14q-100 5 -104 5t-104 -5q-4 4 -3.5 14t3.5 14q14 0 37 4.5t25 11.5q4 14 4 60v12v376zM377 545q0 1 -3 7.5t-6.5 13t-9.5 15.5t-14.5 16.5t-19 14.5t-25.5 11t-32 4q-46 0 -71.5 -47t-25.5 -116v-50q0 -5 5 -5h188q3 0 5 10q4 69 11 95q2 5 2 14 q0 5 -4 17z" />
<glyph unicode="fh" horiz-adv-x="792" d="M378 486q0 55 -11 79q-10 22 -42.5 49t-65.5 27q-42 0 -66 -53t-24 -124v-50q0 -5 5 -5h108q5 0 5 -7q0 -15 -12 -39h-100q-6 0 -6 -6l1 -225q0 -57 8 -87q2 -7 22.5 -14.5t28.5 -7.5q3 0 4 -10.5t-1 -15.5l-98 5q-3 0 -103 -5q-4 4 -4 15t4 11q11 0 31.5 7.5t22.5 14.5 q9 34 9 87q1 137 1 224q0 7 -5 7h-52q-3 0 -3 6q0 10 5.5 25t9.5 15h40q5 0 5 6v13q0 103 61 177t133 74q15 0 47.5 -11.5t44.5 -11.5q14 0 30 5.5t27 10.5l11 6h3q9 0 12 -16q-11 -31 -11 -85v-221q0 -2 3 -2q1 0 3 2q21 22 61 47t71 25q75 0 100.5 -47t25.5 -160v-108 q0 -56 5 -72q2 -7 24.5 -11.5t36.5 -4.5q3 -4 3.5 -14t-3.5 -14q-100 5 -104 5t-104 -5q-4 4 -3.5 14t3.5 14q14 0 37 4.5t25 11.5q5 16 5 72v98q0 92 -20 126t-76 34q-24 0 -58.5 -22.5t-34.5 -31.5v-204q0 -56 5 -72q2 -7 25 -11.5t37 -4.5q3 -4 3.5 -14t-3.5 -14 q-100 5 -105 5q-3 0 -103 -5q-4 4 -3.5 14t3.5 14q14 0 36.5 4.5t24.5 11.5q5 16 5 72v373z" />
<glyph unicode="ffh" horiz-adv-x="1066" d="M651 486q0 58 -10 79q-9 21 -42.5 48.5t-66.5 27.5q-42 0 -66 -53t-24 -124v-50q0 -5 5 -5h109q5 0 5 -7q0 -15 -12 -39h-101q-6 0 -6 -6l2 -225q0 -57 8 -87q2 -7 24 -13.5t31 -6.5q3 0 4 -11.5t-1 -16.5q-98 5 -105 5q-2 0 -102 -5q-4 4 -4 15q0 13 4 13q12 0 33 6.5 t23 13.5q7 27 9 87v224q0 7 -5 7h-186q-7 0 -7 -6l2 -225q0 -57 8 -87q2 -7 23.5 -13.5t30.5 -6.5q3 0 4 -11.5t-1 -16.5q-97 5 -104 5q-3 0 -103 -5q-4 4 -4 15q0 13 4 13q12 0 33.5 6.5t23.5 13.5q7 27 9 87v224q0 7 -5 7h-52q-3 0 -3 6q0 10 5.5 25t9.5 15h40q5 0 5 6v13 q0 101 65 169t140 68q47 0 79.5 -22.5t44.5 -43.5q58 80 137 80q15 0 48 -11.5t44 -11.5q14 0 30.5 5.5t27.5 10.5l11 6h3q8 0 11 -16q-10 -31 -10 -85v-221q0 -2 2 -2q1 0 3 2q21 22 61 47t71 25q75 0 100.5 -47t25.5 -160v-108q0 -56 5 -72q2 -7 25 -11.5t37 -4.5 q3 -4 3.5 -14t-3.5 -14q-100 5 -105 5q-3 0 -103 -5q-4 4 -3.5 14t3.5 14q14 0 36.5 4.5t24.5 11.5q5 16 5 72v98q0 92 -20 126t-76 34q-24 0 -58 -22.5t-34 -31.5v-204v-12q0 -46 4 -60q2 -7 25 -11.5t37 -4.5q3 -4 3.5 -14t-3.5 -14q-100 5 -105 5q-3 0 -103 -5 q-4 4 -3.5 14t3.5 14q14 0 36.5 4.5t24.5 11.5q5 16 5 72v373zM377 545q0 1 -3 7.5t-6.5 13t-9.5 15.5t-14.5 16.5t-19 14.5t-25.5 11t-32 4q-46 0 -71.5 -47t-25.5 -116v-50q0 -5 5 -5h188q3 0 5 10q4 69 11 95q2 5 2 14q0 5 -4 17z" />
<glyph unicode="fj" horiz-adv-x="501" d="M358 303q0 30 -11 46q-10 14 -72 14h-100q-6 0 -6 -6l1 -225q0 -57 8 -87q2 -7 22.5 -14.5t28.5 -7.5q3 0 4 -10.5t-1 -15.5l-98 5q-3 0 -103 -5q-4 4 -4 15t4 11q11 0 31.5 7.5t22.5 14.5q9 34 9 87q1 137 1 224q0 7 -5 7h-52q-3 0 -3 6q0 10 5.5 25t9.5 15h40q5 0 5 6 v13q0 103 61 177t133 74q47 0 94 -25.5t47 -55.5q0 -20 -12 -33t-32 -13q-29 0 -41 21q-26 43 -46 57q-18 11 -40 11q-42 0 -66 -53t-24 -124v-50q0 -5 5 -5h108q105 0 147 14q1 0 3 1l2 2q4 0 4 -20v-3q-4 -31 -4 -70v-267q0 -67 -16.5 -120.5t-44 -87t-53.5 -53t-55 -31.5 q-9 6 -13 15q-2 5 0 7q25 18 40.5 33.5t32.5 43.5t25 70.5t8 100.5v259z" />
<glyph unicode="ffj" horiz-adv-x="775" d="M633 303q0 27 -13 46q-10 14 -71 14h-101q-6 0 -6 -6l2 -225q0 -57 8 -87q2 -7 24 -13.5t31 -6.5q3 0 4 -11.5t-1 -16.5q-98 5 -105 5q-2 0 -102 -5q-4 4 -4 15q0 13 4 13q12 0 33 6.5t23 13.5q9 34 9 87v224q0 7 -5 7h-187q-6 0 -6 -6l2 -225q0 -57 8 -87 q2 -7 23.5 -13.5t30.5 -6.5q3 0 4 -11.5t-1 -16.5q-97 5 -104 5q-3 0 -103 -5q-4 4 -4 15q0 13 4 13q12 0 33.5 6.5t23.5 13.5q9 34 9 87v224q0 7 -5 7h-52q-3 0 -3 6q0 10 5.5 25t9.5 15h40q5 0 5 6v13q0 101 65 169t140 68q47 0 79.5 -22.5t44.5 -43.5q61 80 137 80 q47 0 94 -25.5t47 -55.5q0 -20 -12 -33t-32 -13q-29 0 -41 21q-26 43 -46 57q-18 11 -40 11q-43 0 -68.5 -54t-21.5 -123v-50q0 -5 5 -5h109q104 0 146 14l3 1l3 2q4 0 4 -20v-3q-4 -31 -4 -70v-267q0 -67 -16.5 -120.5t-44 -87t-53.5 -53t-55 -31.5q-9 6 -13 15q-2 5 0 7 q25 18 41 33.5t33 43.5t25 70.5t8 100.5v259zM378 545l-6 11q-5 12 -12 22t-19 22t-31.5 19.5t-42.5 7.5q-46 0 -71.5 -47t-25.5 -116v-50q0 -5 5 -5h188q5 0 5 6v4q0 56 12 95q2 5 2 14q0 5 -4 17z" />
<glyph unicode="&#x671;" horiz-adv-x="217" arabic-form="isolated" d="M89 670q21 49 27 2l23 -245q37 -331 -9 -420q-7 -12 -11 -6q-4 5 -4 17q1 84 -12 189q0 4 -21 190l-22 181q-2 20 4 34zM73 875q38 54 54 68q28 25 54 25q39 0 46 -33q6 -29 -15 -62q-57 -77 -130 -72q-35 3 -65 23q-12 7 -22 -3l-9 -7q-9 -7 -12 -6q-6 5 -2 14 q42 81 76 63q7 -4 25 -10zM111 895q-11 -12 -18 -24q43 -7 88 15q4 21 -4 29q-5 7 -17 7q-23 0 -49 -27z" />
<glyph unicode="&#x671;" horiz-adv-x="278" arabic-form="final" d="M126 720q5 7 7 6q5 0 8 -21q18 -155 24 -265q12 -235 13 -252q7 -92 100 -98q27 -2 21 -36q-9 -54 -21 -54q-131 0 -140 122q-8 113 -11 206q-3 104 -12 168t-24 147q-3 15 3 25zM102 875q38 54 54 68q28 25 54 25q38 0 46 -33q6 -29 -15 -62q-57 -77 -130 -72 q-35 3 -65 23q-12 7 -22 -3l-9 -7q-9 -7 -12 -6q-6 5 -2 14q42 81 76 63q7 -4 25 -10zM140 895q-10 -12 -18 -24q43 -7 88 15q4 21 -4 29q-5 7 -17 7q-23 0 -49 -27z" />
<glyph unicode="&#x67b;" horiz-adv-x="926" arabic-form="isolated" d="M821 372q27 -30 38 -91q10 -57 -2 -112q-12 -54 -40 -70q-162 -94 -400 -106q-240 -12 -322 90q-53 66 -16 153q14 33 54 78q5 7 13 5q5 -1 7 -8q2 -6 -3 -11q-18 -20 -29 -43q-10 -22 -5 -41q35 -130 290 -125q257 5 419 98q-3 39 -48 96q-1 2 2 24q1 1 1 3q5 24 22 60 q6 14 19 0zM472 -137q2 4 9 2q38 -13 70 -42q5 -5 2 -9l-32 -50q26 -12 50 -34q4 -4 1 -8l-47 -76q-3 -5 -10 1q-11 9 -70 44q-5 3 -2 6l36 54l-54 33q-4 3 -1 6z" />
<glyph unicode="&#x67b;" horiz-adv-x="883" arabic-form="final" d="M120 254q7 10 15 2q7 -8 0 -18q-36 -49 -28 -84q33 -140 303 -132q182 6 335 69q30 12 41 59q3 14 18 13q11 -2 11 -21q1 -47 69 -52q25 -1 22 -32q-6 -58 -22 -58q-45 0 -81 46q-2 3 -13 -5q-178 -120 -424 -120q-244 0 -292 120q-22 58 0 121q22 62 46 92zM423 -161 q2 4 9 2q38 -13 70 -42q5 -5 2 -9l-32 -50q26 -12 50 -34q4 -4 1 -8l-47 -76q-3 -5 -10 1q-11 9 -70 44q-5 3 -2 6l36 54l-54 33q-4 3 -1 6z" />
<glyph unicode="&#x67b;" horiz-adv-x="190" arabic-form="initial" d="M60 211l28 62q8 18 18 1q40 -75 15 -176q-24 -98 -121 -98q-10 0 -21 51q-5 25 5 35q5 4 16 4q59 -3 89 32q2 2 0 7q-6 28 -27 58q-8 11 -2 24zM67 -112q2 4 9 2q38 -13 70 -42q5 -5 2 -9l-32 -50q26 -12 50 -34q4 -4 1 -8l-47 -76q-3 -5 -10 1q-11 9 -70 44q-5 3 -2 6 l36 54q-18 10 -54 33q-4 3 -1 6z" />
<glyph unicode="&#x67b;" horiz-adv-x="244" arabic-form="medial" d="M244 90q18 -5 19 -11q2 -8 0 -24q-7 -55 -19 -55q-54 0 -108 61q-46 -55 -136 -61q-10 0 -13 15l-8 42q-3 9 4 21q6 10 17 12q110 9 148 66q5 8 14 8t9 -9q0 -8 2 -12q33 -45 71 -53zM111 -112q2 4 9 2q38 -13 70 -42q5 -5 2 -9l-32 -50q26 -12 50 -34q4 -4 1 -8l-47 -76 q-3 -5 -10 1q-11 9 -70 44q-5 3 -2 6l36 54q-18 10 -54 33q-4 3 -1 6z" />
<glyph unicode="&#x67e;" horiz-adv-x="926" arabic-form="isolated" d="M821 372q27 -30 38 -91q10 -57 -2 -112q-12 -54 -40 -70q-162 -94 -400 -106q-240 -12 -322 90q-53 66 -16 153q14 33 54 78q5 7 13 5q5 -1 7 -8q2 -6 -3 -11q-18 -20 -29 -43q-10 -22 -5 -41q35 -130 290 -125q257 5 419 98q-3 39 -48 96q-1 2 2 24q1 1 1 3q5 24 22 60 q6 14 19 0zM465 -233q-2 -3 -8 -2q-42 14 -71 41q-4 4 -1 9l48 76q2 3 9 -2q2 -1 7.5 -4.5t18.5 -11.5t24 -15l35 55q3 5 10 -1q11 -9 70 -44q4 -3 1 -6l-49 -73q-2 -3 -7 -1h-1q-33 12 -53 27zM534 -337q-2 -3 -8 -2q-42 14 -71 41q-4 4 -1 9l47 76q3 4 10 -2q11 -9 70 -44 q5 -3 2 -6z" />
<glyph unicode="&#x67e;" horiz-adv-x="883" arabic-form="final" d="M120 254q7 10 15 2q7 -8 0 -18q-36 -49 -28 -84q33 -140 303 -132q182 6 335 69q30 12 41 59q3 14 18 13q11 -2 11 -21q1 -47 69 -52q25 -1 22 -32q-6 -58 -22 -58q-45 0 -81 46q-2 3 -13 -5q-178 -120 -424 -120q-244 0 -292 120q-22 58 0 121q22 62 46 92zM410 -262 q-2 -3 -8 -2q-42 14 -71 41q-4 4 -1 9l48 76q2 3 9 -2q2 -1 7.5 -4.5t18.5 -11.5t24 -15l35 55q3 5 10 -1q11 -9 70 -44q4 -3 1 -6l-49 -73q-2 -3 -7 -1h-1q-33 12 -53 27zM479 -366q-2 -3 -8 -2q-42 14 -71 41q-4 4 -1 9l47 76q3 4 10 -2q11 -9 70 -44q5 -3 2 -6z" />
<glyph unicode="&#x67e;" horiz-adv-x="190" arabic-form="initial" d="M60 211l28 62q8 18 18 1q40 -75 15 -176q-24 -98 -121 -98q-10 0 -21 51q-5 25 5 35q5 4 16 4q59 -3 89 32q2 2 0 7q-6 28 -27 58q-8 11 -2 24zM84 -257q-2 -3 -8 -2q-42 14 -71 41q-4 4 -1 9l48 76q2 3 9 -2q2 -1 7.5 -4.5t18.5 -11.5t24 -15l35 55q3 5 10 -1 q11 -9 70 -44q4 -3 1 -6l-49 -73q-2 -3 -7 -1h-1q-33 12 -53 27zM153 -361q-2 -3 -8 -2q-42 14 -71 41q-4 4 -1 9l47 76q3 4 10 -2q11 -9 70 -44q5 -3 2 -6z" />
<glyph unicode="&#x67e;" horiz-adv-x="244" arabic-form="medial" d="M244 90q18 -5 19 -11q2 -8 0 -24q-7 -55 -19 -55q-54 0 -108 61q-46 -55 -136 -61q-10 0 -13 15l-8 42q-3 9 4 21q6 10 17 12q110 9 148 66q5 8 14 8t9 -9q0 -8 2 -12q33 -45 71 -53zM103 -208q-2 -3 -8 -2q-42 14 -71 41q-4 4 -1 9l48 76q2 3 9 -2q2 -1 7.5 -4.5 t18.5 -11.5t24 -15l35 55q3 5 10 -1q11 -9 70 -44q4 -3 1 -6l-49 -73q-2 -3 -7 -1h-1q-33 12 -53 27zM172 -312q-2 -3 -8 -2q-42 14 -71 41q-4 4 -1 9l47 76q3 4 10 -2q11 -9 70 -44q5 -3 2 -6z" />
<glyph unicode="&#x680;" horiz-adv-x="926" arabic-form="isolated" d="M821 372q27 -30 38 -91q10 -57 -2 -112q-12 -54 -40 -70q-162 -94 -400 -106q-240 -12 -322 90q-53 66 -16 153q14 33 54 78q5 7 13 5q5 -1 7 -8q2 -6 -3 -11q-18 -20 -29 -43q-10 -22 -5 -41q35 -130 290 -125q257 5 419 98q-3 39 -48 96q-1 2 2 24q1 1 1 3q5 24 22 60 q6 14 19 0zM423 -88q2 3 8 2q30 -9 60 -33l37 54q2 3 8 2q40 -14 71 -42q4 -4 1 -9l-45 -72q34 -14 58 -36q4 -4 1 -9l-48 -76q-2 -3 -9 2q-4 4 -57 35l-38 -59q-3 -5 -10 1q-11 9 -70 44q-4 3 -1 6l48 72q-43 27 -62 39q-4 3 -1 6zM506 -236l36 53v1q-3 2 -49 30l-35 -56 q22 -9 48 -28z" />
<glyph unicode="&#x680;" horiz-adv-x="883" arabic-form="final" d="M120 254q7 10 15 2q7 -8 0 -18q-36 -49 -28 -84q33 -140 303 -132q182 6 335 69q30 12 41 59q3 14 18 13q11 -2 11 -21q1 -47 69 -52q25 -1 22 -32q-6 -58 -22 -58q-45 0 -81 46q-2 3 -13 -5q-178 -120 -424 -120q-244 0 -292 120q-22 58 0 121q22 62 46 92zM369 -117 q2 3 8 2q30 -9 60 -33l37 54q2 3 8 2q40 -14 71 -42q4 -4 1 -9l-45 -72q34 -14 58 -36q4 -4 1 -9l-48 -76q-2 -3 -9 2q-4 4 -57 35l-38 -59q-3 -5 -10 1q-11 9 -70 44q-4 3 -1 6l48 72q-43 27 -62 39q-4 3 -1 6zM452 -265l36 53v1q-3 2 -49 30l-35 -56q22 -9 48 -28z" />
<glyph unicode="&#x680;" horiz-adv-x="190" arabic-form="initial" d="M42 -112q2 3 8 2q30 -9 60 -33l37 54q2 3 8 2q40 -14 71 -42q4 -4 1 -9l-45 -72q34 -14 58 -36q4 -4 1 -9l-48 -76q-2 -3 -9 2q-4 4 -57 35l-38 -59q-3 -5 -10 1q-11 9 -70 44q-4 3 -1 6l48 72q-43 27 -62 39q-4 3 -1 6zM60 211l28 62q8 18 18 1q40 -75 15 -176 q-24 -98 -121 -98q-10 0 -21 51q-5 25 5 35q5 4 16 4q59 -3 89 32q2 2 0 7q-6 28 -27 58q-8 11 -2 24zM125 -260l36 53v1q-3 2 -49 30l-35 -56q22 -9 48 -28z" />
<glyph unicode="&#x680;" horiz-adv-x="244" arabic-form="medial" d="M62 -64q2 3 8 2q30 -9 60 -33l37 54q2 3 8 2q40 -14 71 -42q4 -4 1 -9l-45 -72q34 -14 58 -36q4 -4 1 -9l-48 -76q-2 -3 -9 2q-4 4 -57 35l-38 -59q-3 -5 -10 1q-11 9 -70 44q-4 3 -1 6l48 72q-43 27 -62 39q-4 3 -1 6zM244 90q18 -5 19 -11q2 -8 0 -24q-7 -55 -19 -55 q-54 0 -108 61q-46 -55 -136 -61q-10 0 -13 15l-8 42q-3 9 4 21q6 10 17 12q110 9 148 66q5 8 14 8t9 -9q0 -8 2 -12q33 -45 71 -53zM145 -212l36 53v1q-3 2 -49 30l-35 -56q22 -9 48 -28z" />
<glyph unicode="&#x67a;" horiz-adv-x="926" arabic-form="isolated" d="M821 372q27 -30 38 -91q10 -57 -2 -112q-12 -54 -40 -70q-162 -94 -400 -106q-240 -12 -322 90q-53 66 -16 153q14 33 54 78q5 7 13 5q5 -1 7 -8q2 -6 -3 -11q-18 -20 -29 -43q-10 -22 -5 -41q35 -130 290 -125q257 5 419 98q-3 39 -48 96q-1 2 2 24q1 1 1 3q5 24 22 60 q6 14 19 0zM425 576q2 4 9 2q38 -13 70 -42q5 -5 2 -9l-32 -50q26 -12 50 -34q4 -4 1 -8l-47 -76q-3 -5 -10 1q-11 9 -70 44q-5 3 -2 6l36 54q-18 10 -54 33q-4 3 -1 6z" />
<glyph unicode="&#x67a;" horiz-adv-x="883" arabic-form="final" d="M120 254q7 10 15 2q7 -8 0 -18q-36 -49 -28 -84q33 -140 303 -132q182 6 335 69q30 12 41 59q3 14 18 13q11 -2 11 -21q1 -47 69 -52q25 -1 22 -32q-6 -58 -22 -58q-45 0 -81 46q-2 3 -13 -5q-178 -120 -424 -120q-244 0 -292 120q-22 58 0 121q22 62 46 92zM425 576 q2 4 9 2q38 -13 70 -42q5 -5 2 -9l-32 -50q26 -12 50 -34q4 -4 1 -8l-47 -76q-3 -5 -10 1q-11 9 -70 44q-5 3 -2 6l36 54q-18 10 -54 33q-4 3 -1 6z" />
<glyph unicode="&#x67a;" horiz-adv-x="190" arabic-form="initial" d="M60 211l28 62q8 18 18 1q40 -75 15 -176q-24 -98 -121 -98q-10 0 -21 51q-5 25 5 35q5 4 16 4q59 -3 89 32q2 2 0 7q-6 28 -27 58q-8 11 -2 24zM49 591q2 4 9 2q38 -13 70 -42q5 -5 2 -9l-32 -50q26 -12 50 -34q4 -4 1 -8l-47 -76q-3 -5 -10 1q-11 9 -70 44q-5 3 -2 6 l36 54l-54 33q-4 3 -1 6z" />
<glyph unicode="&#x67a;" horiz-adv-x="244" arabic-form="medial" d="M244 90q18 -5 19 -11q2 -8 0 -24q-7 -55 -19 -55q-54 0 -108 61q-46 -55 -136 -61q-10 0 -13 15l-8 42q-3 9 4 21q6 10 17 12q110 9 148 66q5 8 14 8t9 -9q0 -8 2 -12q33 -45 71 -53zM86 576q2 4 9 2q38 -13 70 -42q5 -5 2 -9l-32 -50q26 -12 50 -34q4 -4 1 -8l-47 -76 q-3 -5 -10 1q-11 9 -70 44q-5 3 -2 6l36 54q-18 10 -54 33q-4 3 -1 6z" />
<glyph unicode="&#x67f;" horiz-adv-x="926" arabic-form="isolated" d="M821 372q27 -30 38 -91q10 -57 -2 -112q-12 -54 -40 -70q-162 -94 -400 -106q-240 -12 -322 90q-53 66 -16 153q14 33 54 78q5 7 13 5q5 -1 7 -8q2 -6 -3 -11q-18 -20 -29 -43q-10 -22 -5 -41q35 -130 290 -125q257 5 419 98q-3 39 -48 96q-1 2 2 24q1 1 1 3q5 24 22 60 q6 14 19 0zM376 600q2 3 8 2q30 -9 60 -33l37 54q2 3 8 2q40 -14 71 -42q4 -4 1 -9l-45 -72q34 -14 58 -36q4 -4 1 -9l-48 -76q-2 -3 -9 2q-4 4 -57 35l-38 -59q-3 -5 -10 1q-11 9 -70 44q-4 3 -1 6l48 72q-43 27 -62 39q-4 3 -1 6zM459 452l36 53v1q-3 2 -49 30l-35 -56 q22 -9 48 -28z" />
<glyph unicode="&#x67f;" horiz-adv-x="883" arabic-form="final" d="M120 254q7 10 15 2q7 -8 0 -18q-36 -49 -28 -84q33 -140 303 -132q182 6 335 69q30 12 41 59q3 14 18 13q11 -2 11 -21q1 -47 69 -52q25 -1 22 -32q-6 -58 -22 -58q-45 0 -81 46q-2 3 -13 -5q-178 -120 -424 -120q-244 0 -292 120q-22 58 0 121q22 62 46 92zM376 600 q2 3 8 2q30 -9 60 -33l37 54q2 3 8 2q40 -14 71 -42q4 -4 1 -9l-45 -72q34 -14 58 -36q4 -4 1 -9l-48 -76q-2 -3 -9 2q-4 4 -57 35l-38 -59q-3 -5 -10 1q-11 9 -70 44q-4 3 -1 6l48 72q-43 27 -62 39q-4 3 -1 6zM459 452l36 53v1q-3 2 -49 30l-35 -56q22 -9 48 -28z" />
<glyph unicode="&#x67f;" horiz-adv-x="190" arabic-form="initial" d="M-2 566q2 3 8 2q30 -9 60 -33l37 54q2 3 8 2q40 -14 71 -42q4 -4 1 -9l-45 -72q34 -14 58 -36q4 -4 1 -9l-48 -76q-2 -3 -9 2q-4 4 -57 35l-38 -59q-3 -5 -10 1q-11 9 -70 44q-4 3 -1 6l48 72q-43 27 -62 39q-4 3 -1 6zM60 211l28 62q8 18 18 1q40 -75 15 -176 q-24 -98 -121 -98q-10 0 -21 51q-5 25 5 35q5 4 16 4q59 -3 89 32q2 2 0 7q-6 28 -27 58q-8 11 -2 24zM81 418l36 53v1q-3 2 -49 30l-35 -56q22 -9 48 -28z" />
<glyph unicode="&#x67f;" horiz-adv-x="244" arabic-form="medial" d="M28 537q2 3 8 2q30 -9 60 -33l37 54q2 3 8 2q40 -14 71 -42q4 -4 1 -9l-45 -72q34 -14 58 -36q4 -4 1 -9l-48 -76q-2 -3 -9 2q-4 4 -57 35l-38 -59q-3 -5 -10 1q-11 9 -70 44q-4 3 -1 6l48 72q-43 27 -62 39q-4 3 -1 6zM244 90q18 -5 19 -11q2 -8 0 -24q-7 -55 -19 -55 q-54 0 -108 61q-46 -55 -136 -61q-10 0 -13 15l-8 42q-3 9 4 21q6 10 17 12q110 9 148 66q5 8 14 8t9 -9q0 -8 2 -12q33 -45 71 -53zM111 389l36 53v1q-3 2 -49 30l-35 -56q22 -9 48 -28z" />
<glyph unicode="&#x679;" horiz-adv-x="926" arabic-form="isolated" d="M821 372q27 -30 38 -91q10 -57 -2 -112q-12 -54 -40 -70q-162 -94 -400 -106q-240 -12 -322 90q-53 66 -16 153q14 33 54 78q5 7 13 5q5 -1 7 -8q2 -6 -3 -11q-18 -20 -29 -43q-10 -22 -5 -41q35 -130 290 -125q257 5 419 98q-3 39 -48 96q-1 2 2 24q1 1 1 3q5 24 22 60 q6 14 19 0zM428 628q4 2 6.5 -1t3.5 -11q20 -147 10 -202q34 36 61 56q29 22 52 13q24 -10 34 -35q11 -27 -27 -74q-8 -10 -63 -27q-57 -17 -116 -20q-27 5 -43 19q-18 16 -20 22q-1 7 2 7q35 -4 76 -1l26 26q3 74 -16 196q0 5 5 16q7 15 9 16zM508 437q-23 -9 -76 -60 q66 9 132 41q-16 33 -56 19z" />
<glyph unicode="&#x679;" horiz-adv-x="883" arabic-form="final" d="M120 254q7 10 15 2q7 -8 0 -18q-36 -49 -28 -84q33 -140 303 -132q182 6 335 69q30 12 41 59q3 14 18 13q11 -2 11 -21q1 -47 69 -52q25 -1 22 -32q-6 -58 -22 -58q-45 0 -81 46q-2 3 -13 -5q-178 -120 -424 -120q-244 0 -292 120q-22 58 0 121q22 62 46 92zM428 628 q4 2 6.5 -1t3.5 -11q20 -147 10 -202q34 36 61 56q29 22 52 13q24 -10 34 -35q11 -27 -27 -74q-8 -10 -63 -27q-57 -17 -116 -20q-27 5 -43 19q-18 16 -20 22q-1 7 2 7q35 -4 76 -1l26 26q3 74 -16 196q0 5 5 16q7 15 9 16zM508 437q-23 -9 -76 -60q66 9 132 41 q-16 33 -56 19z" />
<glyph unicode="&#x679;" horiz-adv-x="190" arabic-form="initial" d="M52 643q4 2 6.5 -1t3.5 -11q20 -147 10 -202q34 36 61 56q29 22 52 13q24 -10 34 -35q11 -27 -27 -74q-8 -11 -63 -27q-57 -17 -116 -20q-27 5 -43 19q-18 16 -20 22q-1 7 2 7q35 -4 76 -1l26 26q3 74 -16 196q0 5 5 16q7 15 9 16zM60 211l28 62q8 18 18 1 q40 -75 15 -176q-24 -98 -121 -98q-10 0 -21 51q-5 25 5 35q5 4 16 4q59 -3 89 32q2 2 0 7q-6 28 -27 58q-8 11 -2 24zM132 452q-23 -9 -76 -60q66 9 132 41q-16 33 -56 19z" />
<glyph unicode="&#x679;" horiz-adv-x="244" arabic-form="medial" d="M89 628q4 2 6.5 -1t3.5 -11q20 -147 10 -202q34 36 61 56q29 22 52 13q24 -10 34 -35q11 -27 -27 -74q-7 -10 -63 -27q-57 -17 -116 -20q-27 5 -43 19q-18 16 -20 22q-1 7 2 7q35 -4 76 -1l26 26q3 74 -16 196q0 5 5 16q7 15 9 16zM244 90q18 -5 19 -11q2 -8 0 -24 q-7 -55 -19 -55q-54 0 -108 61q-46 -55 -136 -61q-10 0 -13 15l-8 42q-3 9 4 21q6 10 17 12q110 9 148 66q5 8 14 8t9 -9q0 -8 2 -12q33 -45 71 -53zM169 437q-23 -9 -76 -60q66 9 132 41q-16 33 -56 19z" />
<glyph unicode="&#x6a4;" horiz-adv-x="983" arabic-form="isolated" d="M796 504q40 12 79 -49t45 -174q3 -41 -9 -69q-27 -62 -124 -113q-93 -49 -223 -78q-128 -29 -231 -29q-253 -2 -269 157q-3 30 7 78q11 51 43 96q4 6 11 6t9 -7t-2 -12q-72 -114 0 -166q104 -75 329 -48q187 23 369 116q55 27 62 63q-5 25 -26 42q-2 2 -6 -5 q-27 -52 -68 -58q-80 -12 -94 64q-9 51 57 153q17 26 41 33zM665 740q2 3 8 2q42 -14 71 -41q4 -4 1 -9l-48 -76q-2 -3 -9 2q-2 1 -7.5 4.5t-18.5 11.5t-24 15l-35 -56q-3 -4 -10 2q-11 9 -70 44q-4 3 -1 6l49 72q2 3 8 2q33 -12 53 -27zM596 844q2 3 8 2q42 -14 71 -41 q5 -5 2 -9l-48 -76q-3 -4 -10 2q-11 9 -70 44q-5 3 -2 6zM807 363q10 9 -1 18q-36 30 -56 -6q-4 -9 1 -14q28 -24 56 2z" />
<glyph unicode="&#x6a4;" horiz-adv-x="1005" arabic-form="final" d="M785 282q64 94 107 55q54 -49 36 -155q-5 -32 -31 -82q39 -16 109 -10q10 0 15 -4q9 -6 9 -26q0 -58 -24 -60q-107 -8 -174 25q-61 -41 -159 -71q-214 -64 -402 -39q-98 14 -153 53q-55 40 -55 102q0 61 60 159q5 6 10 6q7 0 10 -5q3 -6 -1 -13q-40 -70 -23 -103 q57 -105 256 -102q232 4 378 61q-36 27 -24 85q12 60 56 124zM719 569q2 3 8 2q42 -14 71 -41q4 -4 1 -9l-48 -76q-2 -3 -9 2q-2 1 -7.5 4.5t-18.5 11.5t-24 15l-35 -56q-3 -4 -10 2q-11 9 -70 44q-4 3 -1 6l49 72q2 3 8 2q33 -12 53 -27zM840 249q-20 2 -37.5 -17 t-31.5 -59q4 -15 20 -31q13 -13 28 -18q14 -5 37 7q24 12 31 25q-3 89 -47 93zM650 673q2 3 8 2q42 -14 71 -41q5 -5 2 -9l-48 -76q-3 -4 -10 2q-11 9 -70 44q-5 3 -2 6z" />
<glyph unicode="&#x6a4;" horiz-adv-x="295" arabic-form="initial" d="M115 409q13 0 32 -16q90 -78 85 -198q-3 -63 -31 -100q-74 -95 -201 -95q-13 0 -19 23q-5 20 0 45q4 20 19 22q125 9 188 72q-3 31 -9 39q-7 11 -12 9q-4 -1 -5 -4q-17 -44 -52 -52q-110 -24 -101 85q4 52 40 112q34 58 66 58zM143 642q2 3 8 2q42 -14 71 -41q4 -4 1 -9 l-48 -76q-2 -3 -9 2q-2 1 -7.5 4.5t-18.5 11.5t-24 15l-35 -56q-3 -4 -10 2q-11 9 -70 44q-4 3 -1 6l49 72q2 3 8 2q33 -12 53 -27zM74 746q2 3 8 2q42 -14 71 -41q5 -5 2 -9l-48 -76q-3 -4 -10 2q-11 9 -70 44q-5 3 -2 6zM82 301q-22 -1 -27 -39q0 -6 1 -6q20 -6 41 -3 q20 3 27 13q-23 37 -42 35z" />
<glyph unicode="&#x6a4;" horiz-adv-x="378" arabic-form="medial" d="M283 379q3 0 9 -2q24 -15 31 -55q13 -76 -17 -143q-17 -35 -36 -64q64 -24 108 -25q10 0 12 -25q6 -63 -12 -65q-80 -9 -206 58q-38 -19 -95 -38q-60 -20 -77 -20q-12 0 -18 22q-5 19 0 44q4 22 18 24q53 8 106 26q-7 44 12 95q32 85 112 144q32 24 53 24zM231 667 q2 3 8 2q42 -14 71 -41q4 -4 1 -9l-48 -76q-2 -3 -9 2q-2 1 -7.5 4.5t-18.5 11.5t-24 15l-35 -56q-3 -4 -10 2q-11 9 -70 44q-4 3 -1 6l49 72q2 3 8 2q33 -12 53 -27zM238 273q-48 5 -87 -51q-11 -14 11 -44t51 -30t66 39q3 75 -41 86zM162 771q2 3 8 2q42 -14 71 -41 q5 -5 2 -9l-48 -76q-3 -4 -10 2q-11 9 -70 44q-5 3 -2 6z" />
<glyph unicode="&#x6a6;" horiz-adv-x="983" arabic-form="isolated" d="M796 504q40 12 79 -49t45 -174q3 -41 -9 -69q-27 -62 -124 -113q-93 -49 -223 -78q-128 -29 -231 -29q-253 -2 -269 157q-3 30 7 78q11 51 43 96q4 6 11 6t9 -7t-2 -12q-72 -114 0 -166q104 -75 329 -48q187 23 369 116q55 27 62 63q-5 25 -26 42q-2 2 -6 -5 q-27 -52 -68 -58q-80 -12 -94 64q-9 51 57 153q17 26 41 33zM550 835q2 3 8 2q30 -9 60 -33l37 54q2 3 8 2q40 -14 71 -42q4 -4 1 -9l-45 -72q34 -14 58 -36q4 -4 1 -9l-48 -76q-2 -3 -9 2q-4 4 -57 35l-38 -59q-3 -5 -10 1q-11 9 -70 44q-4 3 -1 6l48 72q-43 27 -62 39 q-4 3 -1 6zM633 687l36 53v1q-3 2 -49 30l-35 -56q22 -9 48 -28zM807 363q10 9 -1 18q-36 30 -56 -6q-4 -9 1 -14q28 -24 56 2z" />
<glyph unicode="&#x6a6;" horiz-adv-x="1005" arabic-form="final" d="M785 282q64 94 107 55q54 -49 36 -155q-5 -32 -31 -82q39 -16 109 -10q10 0 15 -4q9 -6 9 -26q0 -58 -24 -60q-107 -8 -174 25q-61 -41 -159 -71q-214 -64 -402 -39q-98 14 -153 53q-55 40 -55 102q0 61 60 159q5 6 10 6q7 0 10 -5q3 -6 -1 -13q-40 -70 -23 -103 q57 -105 256 -102q232 4 378 61q-36 27 -24 85q12 60 56 124zM604 664q2 3 8 2q30 -9 60 -33l37 54q2 3 8 2q40 -14 71 -42q4 -4 1 -9l-45 -72q34 -14 58 -36q4 -4 1 -9l-48 -76q-2 -3 -9 2q-4 4 -57 35l-38 -59q-3 -5 -10 1q-11 9 -70 44q-4 3 -1 6l48 72q-43 27 -62 39 q-4 3 -1 6zM840 249q-20 2 -37.5 -17t-31.5 -59q4 -15 20 -31q13 -13 28 -18q14 -5 37 7q24 12 31 25q-3 89 -47 93zM687 516l36 53v1q-3 2 -49 30l-35 -56q22 -9 48 -28z" />
<glyph unicode="&#x6a6;" horiz-adv-x="295" arabic-form="initial" d="M115 409q13 0 32 -16q90 -78 85 -198q-3 -63 -31 -100q-74 -95 -201 -95q-13 0 -19 23q-5 20 0 45q4 20 19 22q125 9 188 72q-3 31 -9 39q-7 11 -12 9q-4 -1 -5 -4q-17 -44 -52 -52q-110 -24 -101 85q4 52 40 112q34 58 66 58zM28 737q2 3 8 2q30 -9 60 -33l37 54 q2 3 8 2q40 -14 71 -42q4 -4 1 -9l-45 -72q34 -14 58 -36q4 -4 1 -9l-48 -76q-2 -3 -9 2q-4 4 -57 35l-38 -59q-3 -5 -10 1q-11 9 -70 44q-4 3 -1 6l48 72q-43 27 -62 39q-4 3 -1 6zM111 589l36 53v1q-3 2 -49 30l-35 -56q22 -9 48 -28zM82 301q-22 -1 -27 -39q0 -6 1 -6 q20 -6 41 -3q20 3 27 13q-23 37 -42 35z" />
<glyph unicode="&#x6a6;" horiz-adv-x="378" arabic-form="medial" d="M283 379q3 0 9 -2q24 -15 31 -55q13 -76 -17 -143q-17 -35 -36 -64q64 -24 108 -25q10 0 12 -25q6 -63 -12 -65q-80 -9 -206 58q-38 -19 -95 -38q-60 -20 -77 -20q-12 0 -18 22q-5 19 0 44q4 22 18 24q53 8 106 26q-7 44 12 95q32 85 112 144q32 24 53 24zM116 762 q2 3 8 2q30 -9 60 -33l37 54q2 3 8 2q40 -14 71 -42q4 -4 1 -9l-45 -72q34 -14 58 -36q4 -4 1 -9l-48 -76q-2 -3 -9 2q-4 4 -57 35l-38 -59q-3 -5 -10 1q-11 9 -70 44q-4 3 -1 6l48 72q-43 27 -62 39q-4 3 -1 6zM238 273q-48 5 -87 -51q-11 -14 11 -44t51 -30t66 39 q3 75 -41 86zM199 614l36 53v1q-3 2 -49 30l-35 -56q22 -9 48 -28z" />
<glyph unicode="&#x684;" horiz-adv-x="661" arabic-form="isolated" d="M633 226l-24 -54q-4 -8 -11 -9q-240 -31 -335 -94q-187 -123 -147 -297q22 -96 144 -150q67 -29 209 -38q133 -8 266 3q16 2 20 -4t0 -13q-3 -5 -13 -9q-61 -18 -95 -39q-47 -29 -64 -31q-294 -25 -424 69q-131 95 -84 298q47 205 242 297q-133 33 -202 -7q-7 -3 -12 -2 t-5 7q2 25 10 49q18 52 96 57q39 1 123 -15q84 -17 143 -15q69 2 144 15q15 2 19.5 -2.5t-0.5 -15.5zM375 -49q2 4 9 2q38 -13 70 -42q5 -5 2 -9l-32 -50q26 -12 50 -34q4 -4 1 -8l-47 -76q-3 -5 -10 1q-11 9 -70 44q-5 3 -2 6l36 54l-54 33q-4 3 -1 6z" />
<glyph unicode="&#x684;" horiz-adv-x="639" arabic-form="final" d="M209 260q41 0 118 -13q150 -26 284 0q29 6 17 -20l-23 -52q-4 -8 -11 -9q-63 -8 -122 -20q6 -23 27 -36q46 -29 141 -20q19 2 23 -22q4 -23 -3 -45q-7 -21 -20 -23q-184 -10 -205 69q-9 35 -3 69q-106 -25 -170 -67q-81 -53 -119 -133q-40 -83 -28 -156q18 -119 139 -179 q82 -39 347 -17q37 3 70.5 6t46.5 4l14 1q22 1 22 -9q0 -11 -27 -20q-43 -13 -82 -39q-45 -30 -48 -31q-7 -3 -17 -5q-306 -34 -425 56q-102 76 -91 226q20 272 250 383q-125 30 -213 -14q-6 -3 -12 0t-6 7q3 107 126 109zM375 -98q2 4 9 2q38 -13 70 -42q5 -5 2 -9l-32 -50 q26 -12 50 -34q4 -4 1 -8l-47 -76q-3 -5 -10 1q-11 9 -70 44q-5 3 -2 6l36 54q-18 10 -54 33q-4 3 -1 6z" />
<glyph unicode="&#x684;" horiz-adv-x="655" arabic-form="initial" d="M6 218q8 32 40 63q34 32 71 32t174 -57q44 -19 127 -35q77 -15 158 -9q11 1 14.5 -3.5t-1.5 -14.5l-28 -61q-6 -12 -21 -9q-113 19 -214 -11q-124 -41 -198 -77q-72 -36 -128 -36q-6 0 -10 10q-11 30 -5 55q6 23 15 25q141 10 265 73q-132 76 -243 41q-8 -3 -13 2 q-5 4 -3 12zM282 -40q2 4 9 2q38 -13 70 -42q5 -5 2 -9l-32 -50q26 -12 50 -34q4 -4 1 -8l-47 -76q-3 -5 -10 1q-11 9 -70 44q-5 3 -2 6l36 54q-18 10 -54 33q-4 3 -1 6z" />
<glyph unicode="&#x684;" horiz-adv-x="610" arabic-form="medial" d="M139 312q22 1 145 -48q65 -26 149 -38q87 -12 162 -2q7 1 9.5 -3t0.5 -12q-10 -42 -21 -70q-3 -8 -12 -7q-30 3 -87 5q-14 -29 25 -41t100 -6q20 1 25 -15.5t-6 -52.5q-6 -20 -19 -22q-74 -10 -125 7q-67 24 -42 110q2 5 3.5 11t1.5 7q-96 -6 -191 -35q-38 -11 -129 -56 q-90 -44 -128 -44q-13 0 -21 20q-7 19 -3 42q6 25 24 28q84 15 138 38q70 32 94 39q5 1 7.5 3.5t1.5 4.5q0 4 -8 7q-75 31 -119 36t-82 -17q-9 -4 -16 -3t-4 15q25 93 127 99zM277 -34q2 4 9 2q38 -13 70 -42q5 -5 2 -9l-32 -50q26 -12 50 -34q4 -4 1 -8l-47 -76 q-3 -5 -10 1q-11 9 -70 44q-5 3 -2 6l36 54q-18 10 -54 33q-4 3 -1 6z" />
<glyph unicode="&#x683;" horiz-adv-x="661" arabic-form="isolated" d="M633 226l-24 -54q-4 -8 -11 -9q-240 -31 -335 -94q-187 -123 -147 -297q22 -96 144 -150q67 -29 209 -38q133 -8 266 3q16 2 20 -4t0 -13q-3 -5 -13 -9q-61 -18 -95 -39q-47 -29 -64 -31q-294 -25 -424 69q-131 95 -84 298q47 205 242 297q-133 33 -202 -7q-7 -3 -12 -2 t-5 7q2 25 10 49q18 52 96 57q39 1 123 -15q84 -17 143 -15q69 2 144 15q15 2 19.5 -2.5t-0.5 -15.5zM451 -69q2 3 8 2q42 -14 71 -41q4 -4 1 -9l-48 -76q-2 -3 -9 2q-4 4 -57 35l-38 -59q-3 -5 -10 1q-11 9 -70 44q-4 3 -1 6l49 73q2 3 8 2q30 -9 60 -33z" />
<glyph unicode="&#x683;" horiz-adv-x="639" arabic-form="final" d="M209 260q41 0 118 -13q150 -26 284 0q29 6 17 -20l-23 -52q-4 -8 -11 -9q-63 -8 -122 -20q6 -23 27 -36q46 -29 141 -20q19 2 23 -22q4 -23 -3 -45q-7 -21 -20 -23q-184 -10 -205 69q-9 35 -3 69q-106 -25 -170 -67q-81 -53 -119 -133q-40 -83 -28 -156q18 -119 139 -179 q82 -39 347 -17q37 3 70.5 6t46.5 4l14 1q22 1 22 -9q0 -11 -27 -20q-43 -13 -82 -39q-45 -30 -48 -31q-7 -3 -17 -5q-306 -34 -425 56q-102 76 -91 226q20 272 250 383q-125 30 -213 -14q-6 -3 -12 0t-6 7q3 107 126 109zM427 -99q2 3 8 2q42 -14 71 -41q4 -4 1 -9l-48 -76 q-2 -3 -9 2q-4 4 -57 35l-38 -59q-3 -5 -10 1q-11 9 -70 44q-4 3 -1 6l49 73q2 3 8 2q30 -9 60 -33z" />
<glyph unicode="&#x683;" horiz-adv-x="655" arabic-form="initial" d="M6 218q8 32 40 63q34 32 71 32t174 -57q44 -19 127 -35q77 -15 158 -9q11 1 14.5 -3.5t-1.5 -14.5l-28 -61q-6 -12 -21 -9q-113 19 -214 -11q-124 -41 -198 -77q-72 -36 -128 -36q-6 0 -10 10q-11 30 -5 55q6 23 15 25q141 10 265 73q-132 76 -243 41q-8 -3 -13 2 q-5 4 -3 12zM334 -41q2 3 8 2q42 -14 71 -41q4 -4 1 -9l-48 -76q-2 -3 -9 2q-4 4 -57 35l-38 -59q-3 -5 -10 1q-11 9 -70 44q-4 3 -1 6l49 73q2 3 8 2q30 -9 60 -33z" />
<glyph unicode="&#x683;" horiz-adv-x="610" arabic-form="medial" d="M139 312q22 1 145 -48q65 -26 149 -38q87 -12 162 -2q7 1 9.5 -3t0.5 -12q-10 -42 -21 -70q-3 -8 -12 -7q-30 3 -87 5q-14 -29 25 -41t100 -6q20 1 25 -15.5t-6 -52.5q-6 -20 -19 -22q-74 -10 -125 7q-67 24 -42 110q2 5 3.5 11t1.5 7q-96 -6 -191 -35q-38 -11 -129 -56 q-90 -44 -128 -44q-13 0 -21 20q-7 19 -3 42q6 25 24 28q84 15 138 38q70 32 94 39q5 1 7.5 3.5t1.5 4.5q0 4 -8 7q-75 31 -119 36t-82 -17q-9 -4 -16 -3t-4 15q25 93 127 99zM329 -35q2 3 8 2q42 -14 71 -41q4 -4 1 -9l-48 -76q-2 -3 -9 2q-4 4 -57 35l-38 -59q-3 -5 -10 1 q-11 9 -70 44q-4 3 -1 6l49 73q2 3 8 2q30 -9 60 -33z" />
<glyph unicode="&#x686;" horiz-adv-x="661" arabic-form="isolated" d="M633 226l-24 -54q-4 -8 -11 -9q-240 -31 -335 -94q-187 -123 -147 -297q22 -96 144 -150q67 -29 209 -38q133 -8 266 3q16 2 20 -4t0 -13q-3 -5 -13 -9q-61 -18 -95 -39q-47 -29 -64 -31q-294 -25 -424 69q-131 95 -84 298q47 205 242 297q-133 33 -202 -7q-7 -3 -12 -2 t-5 7q2 25 10 49q18 52 96 57q39 1 123 -15q84 -17 143 -15q69 2 144 15q15 2 19.5 -2.5t-0.5 -15.5zM362 -165q-2 -3 -8 -2q-42 14 -71 41q-4 4 -1 9l48 76q2 3 9 -2q2 -1 7.5 -4.5t18.5 -11.5t24 -15l35 55q3 5 10 -1q11 -9 70 -44q4 -3 1 -6l-49 -73q-2 -3 -7 -1h-1 q-33 12 -53 27zM431 -269q-2 -3 -8 -2q-42 14 -71 41q-4 4 -1 9l47 76q3 4 10 -2q11 -9 70 -44q5 -3 2 -6z" />
<glyph unicode="&#x686;" horiz-adv-x="639" arabic-form="final" d="M209 260q41 0 118 -13q150 -26 284 0q29 6 17 -20l-23 -52q-4 -8 -11 -9q-63 -8 -122 -20q6 -23 27 -36q46 -29 141 -20q19 2 23 -22q4 -23 -3 -45q-7 -21 -20 -23q-184 -10 -205 69q-9 35 -3 69q-106 -25 -170 -67q-81 -53 -119 -133q-40 -83 -28 -156q18 -119 139 -179 q82 -39 347 -17q37 3 70.5 6t46.5 4l14 1q22 1 22 -9q0 -11 -27 -20q-43 -13 -82 -39q-45 -30 -48 -31q-7 -3 -17 -5q-306 -34 -425 56q-102 76 -91 226q20 272 250 383q-125 30 -213 -14q-6 -3 -12 0t-6 7q3 107 126 109zM362 -218q-2 -3 -8 -2q-42 14 -71 41q-4 4 -1 9 l48 76q2 3 9 -2q2 -1 7.5 -4.5t18.5 -11.5t24 -15l35 55q3 5 10 -1q11 -9 70 -44q4 -3 1 -6l-49 -73q-2 -3 -7 -1h-1q-33 12 -53 27zM431 -322q-2 -3 -8 -2q-42 14 -71 41q-4 4 -1 9l47 76q3 4 10 -2q11 -9 70 -44q5 -3 2 -6z" />
<glyph unicode="&#x686;" horiz-adv-x="655" arabic-form="initial" d="M6 218q8 32 40 63q34 32 71 32t174 -57q44 -19 127 -35q77 -15 158 -9q11 1 14.5 -3.5t-1.5 -14.5l-28 -61q-6 -12 -21 -9q-113 19 -214 -11q-124 -41 -198 -77q-72 -36 -128 -36q-6 0 -10 10q-11 30 -5 55q6 23 15 25q141 10 265 73q-132 76 -243 41q-8 -3 -13 2 q-5 4 -3 12zM269 -185q-2 -3 -8 -2q-42 14 -71 41q-4 4 -1 9l48 76q2 3 9 -2q2 -1 7.5 -4.5t18.5 -11.5t24 -15l35 55q3 5 10 -1q11 -9 70 -44q4 -3 1 -6l-49 -73q-2 -3 -7 -1h-1q-33 12 -53 27zM338 -289q-2 -3 -8 -2q-42 14 -71 41q-4 4 -1 9l47 76q3 4 10 -2 q11 -9 70 -44q5 -3 2 -6z" />
<glyph unicode="&#x686;" horiz-adv-x="610" arabic-form="medial" d="M139 312q22 1 145 -48q65 -26 149 -38q87 -12 162 -2q7 1 9.5 -3t0.5 -12q-10 -42 -21 -70q-3 -8 -12 -7q-30 3 -87 5q-14 -29 25 -41t100 -6q20 1 25 -15.5t-6 -52.5q-6 -20 -19 -22q-74 -10 -125 7q-67 24 -42 110q2 5 3.5 11t1.5 7q-96 -6 -191 -35q-38 -11 -129 -56 q-90 -44 -128 -44q-13 0 -21 20q-7 19 -3 42q6 25 24 28q84 15 138 38q70 32 94 39q5 1 7.5 3.5t1.5 4.5q0 4 -8 7q-75 31 -119 36t-82 -17q-9 -4 -16 -3t-4 15q25 93 127 99zM264 -179q-2 -3 -8 -2q-42 14 -71 41q-4 4 -1 9l48 76q2 3 9 -2q2 -1 7.5 -4.5t18.5 -11.5 t24 -15l35 55q3 5 10 -1q11 -9 70 -44q4 -3 1 -6l-49 -73q-2 -3 -7 -1h-1q-33 12 -53 27zM333 -283q-2 -3 -8 -2q-42 14 -71 41q-4 4 -1 9l47 76q3 4 10 -2q11 -9 70 -44q5 -3 2 -6z" />
<glyph unicode="&#x687;" horiz-adv-x="661" arabic-form="isolated" d="M633 226l-24 -54q-4 -8 -11 -9q-240 -31 -335 -94q-187 -123 -147 -297q22 -96 144 -150q67 -29 209 -38q133 -8 266 3q16 2 20 -4t0 -13q-3 -5 -13 -9q-61 -18 -95 -39q-47 -29 -64 -31q-294 -25 -424 69q-131 95 -84 298q47 205 242 297q-133 33 -202 -7q-7 -3 -12 -2 t-5 7q2 25 10 49q18 52 96 57q39 1 123 -15q84 -17 143 -15q69 2 144 15q15 2 19.5 -2.5t-0.5 -15.5zM320 -39q2 3 8 2q30 -9 60 -33l37 54q2 3 8 2q40 -14 71 -42q4 -4 1 -9l-45 -72q34 -14 58 -36q4 -4 1 -9l-48 -76q-2 -3 -9 2q-4 4 -57 35l-38 -59q-3 -5 -10 1 q-11 9 -70 44q-4 3 -1 6l48 72q-43 27 -62 39q-4 3 -1 6zM403 -187l36 53v1q-3 2 -49 30l-35 -56q22 -9 48 -28z" />
<glyph unicode="&#x687;" horiz-adv-x="639" arabic-form="final" d="M209 260q41 0 118 -13q150 -26 284 0q29 6 17 -20l-23 -52q-4 -8 -11 -9q-63 -8 -122 -20q6 -23 27 -36q46 -29 141 -20q19 2 23 -22q4 -23 -3 -45q-7 -21 -20 -23q-184 -10 -205 69q-9 35 -3 69q-106 -25 -170 -67q-81 -53 -119 -133q-40 -83 -28 -156q18 -119 139 -179 q82 -39 347 -17q37 3 70.5 6t46.5 4l14 1q22 1 22 -9q0 -11 -27 -20q-43 -13 -82 -39q-45 -30 -48 -31q-7 -3 -17 -5q-306 -34 -425 56q-102 76 -91 226q20 272 250 383q-125 30 -213 -14q-6 -3 -12 0t-6 7q3 107 126 109zM320 -73q2 3 8 2q30 -9 60 -33l37 54q2 3 8 2 q40 -14 71 -42q4 -4 1 -9l-45 -72q34 -14 58 -36q4 -4 1 -9l-48 -76q-2 -3 -9 2q-4 4 -57 35l-38 -59q-3 -5 -10 1q-11 9 -70 44q-4 3 -1 6l48 72q-43 27 -62 39q-4 3 -1 6zM403 -221l36 53v1q-3 2 -49 30l-35 -56q22 -9 48 -28z" />
<glyph unicode="&#x687;" horiz-adv-x="655" arabic-form="initial" d="M6 218q8 32 40 63q34 32 71 32t174 -57q44 -19 127 -35q77 -15 158 -9q11 1 14.5 -3.5t-1.5 -14.5l-28 -61q-6 -12 -21 -9q-113 19 -214 -11q-124 -41 -198 -77q-72 -36 -128 -36q-6 0 -10 10q-11 30 -5 55q6 23 15 25q141 10 265 73q-132 76 -243 41q-8 -3 -13 2 q-5 4 -3 12zM227 -40q2 3 8 2q30 -9 60 -33l37 54q2 3 8 2q40 -14 71 -42q4 -4 1 -9l-45 -72q34 -14 58 -36q4 -4 1 -9l-48 -76q-2 -3 -9 2q-4 4 -57 35l-38 -59q-3 -5 -10 1q-11 9 -70 44q-4 3 -1 6l48 72q-43 27 -62 39q-4 3 -1 6zM310 -188l36 53v1q-3 2 -49 30l-35 -56 q22 -9 48 -28z" />
<glyph unicode="&#x687;" horiz-adv-x="610" arabic-form="medial" d="M139 312q22 1 145 -48q65 -26 149 -38q87 -12 162 -2q7 1 9.5 -3t0.5 -12q-10 -42 -21 -70q-3 -8 -12 -7q-30 3 -87 5q-14 -29 25 -41t100 -6q20 1 25 -15.5t-6 -52.5q-6 -20 -19 -22q-74 -10 -125 7q-67 24 -42 110q2 5 3.5 11t1.5 7q-96 -6 -191 -35q-38 -11 -129 -56 q-90 -44 -128 -44q-13 0 -21 20q-7 19 -3 42q6 25 24 28q84 15 138 38q70 32 94 39q5 1 7.5 3.5t1.5 4.5q0 4 -8 7q-75 31 -119 36t-82 -17q-9 -4 -16 -3t-4 15q25 93 127 99zM223 -34q2 3 8 2q30 -9 60 -33l37 54q2 3 8 2q40 -14 71 -42q4 -4 1 -9l-45 -72q34 -14 58 -36 q4 -4 1 -9l-48 -76q-2 -3 -9 2q-4 4 -57 35l-38 -59q-3 -5 -10 1q-11 9 -70 44q-4 3 -1 6l48 72q-43 27 -62 39q-4 3 -1 6zM306 -182l36 53v1q-3 2 -49 30l-35 -56q22 -9 48 -28z" />
<glyph unicode="&#x68d;" horiz-adv-x="450" arabic-form="isolated" d="M170 322q15 46 29 63q9 10 23 2q132 -73 155 -197q12 -71 -5 -122q-6 -15 -21 -24q-93 -48 -210 -50q-40 -1 -54 25t-2 77q3 11 12 13q7 0 15 -7q20 -16 75 -9q120 15 159 38q3 2 2 12q-18 100 -163 156q-20 8 -15 23zM280 -89q2 3 8 2q42 -14 71 -41q4 -4 1 -9l-48 -76 q-2 -3 -9 2q-4 4 -57 35l-38 -59q-3 -5 -10 1q-11 9 -70 44q-4 3 -1 6l49 73q2 3 8 2q30 -9 60 -33z" />
<glyph unicode="&#x68d;" horiz-adv-x="471" arabic-form="final" d="M471 90q16 -5 20 -26q5 -24 -1 -44t-19 -20q-65 4 -89 109l-8 34q-3 8 -6 -1q-32 -85 -80 -104q-62 -26 -168 -18q-83 6 -43 131q5 15 15 16t14 -13q9 -29 27 -33q97 -21 175 10q38 15 51 56q1 6 -14 107q-4 29 -17 124q-3 22 3 34q20 42 23 50t10 7q8 -2 9 -10 q23 -205 53 -334q15 -68 45 -75zM280 -64q2 3 8 2q42 -14 71 -41q4 -4 1 -9l-48 -76q-2 -3 -9 2q-4 4 -57 35l-38 -59q-3 -5 -10 1q-11 9 -70 44q-4 3 -1 6l49 73q2 3 8 2q30 -9 60 -33z" />
<glyph unicode="&#x68c;" horiz-adv-x="450" arabic-form="isolated" d="M170 322q15 46 29 63q9 10 23 2q132 -73 155 -197q12 -71 -5 -122q-6 -15 -21 -24q-93 -48 -210 -50q-40 -1 -54 25t-2 77q3 11 12 13q7 0 15 -7q20 -16 75 -9q120 15 159 38q3 2 2 12q-18 100 -163 156q-20 8 -15 23zM239 667q2 3 8 2q42 -14 71 -41q4 -4 1 -9l-48 -76 q-2 -3 -9 2q-4 4 -57 35l-38 -59q-3 -5 -10 1q-11 9 -70 44q-4 3 -1 6l49 73q2 3 8 2q30 -9 60 -33z" />
<glyph unicode="&#x68c;" horiz-adv-x="471" arabic-form="final" d="M471 90q16 -5 20 -26q5 -24 -1 -44t-19 -20q-65 4 -89 109l-8 34q-3 8 -6 -1q-32 -85 -80 -104q-62 -26 -168 -18q-83 6 -43 131q5 15 15 16t14 -13q9 -29 27 -33q97 -21 175 10q38 15 51 56q1 6 -14 107q-4 29 -17 124q-3 22 3 34q20 42 23 50t10 7q8 -2 9 -10 q23 -205 53 -334q15 -68 45 -75zM368 715q2 3 8 2q42 -14 71 -41q4 -4 1 -9l-48 -76q-2 -3 -9 2q-4 4 -57 35l-38 -59q-3 -5 -10 1q-11 9 -70 44q-4 3 -1 6l49 73q2 3 8 2q30 -9 60 -33z" />
<glyph unicode="&#x68e;" horiz-adv-x="450" arabic-form="isolated" d="M170 322q15 46 29 63q9 10 23 2q132 -73 155 -197q12 -71 -5 -122q-6 -15 -21 -24q-93 -48 -210 -50q-40 -1 -54 25t-2 77q3 11 12 13q7 0 15 -7q20 -16 75 -9q120 15 159 38q3 2 2 12q-18 100 -163 156q-20 8 -15 23zM235 667q2 3 8 2q42 -14 71 -41q4 -4 1 -9l-48 -76 q-2 -3 -9 2q-2 1 -7.5 4.5t-18.5 11.5t-24 15l-35 -56q-3 -4 -10 2q-11 9 -70 44q-4 3 -1 6l49 72q2 3 8 2q33 -12 53 -27zM166 771q2 3 8 2q42 -14 71 -41q5 -5 2 -9l-48 -76q-3 -4 -10 2q-11 9 -70 44q-5 3 -2 6z" />
<glyph unicode="&#x68e;" horiz-adv-x="471" arabic-form="final" d="M471 90q16 -5 20 -26q5 -24 -1 -44t-19 -20q-65 4 -89 109l-8 34q-3 8 -6 -1q-32 -85 -80 -104q-62 -26 -168 -18q-83 6 -43 131q5 15 15 16t14 -13q9 -29 27 -33q97 -21 175 10q38 15 51 56q1 6 -14 107q-4 29 -17 124q-3 22 3 34q20 42 23 50t10 7q8 -2 9 -10 q23 -205 53 -334q15 -68 45 -75zM364 715q2 3 8 2q42 -14 71 -41q4 -4 1 -9l-48 -76q-2 -3 -9 2q-2 1 -7.5 4.5t-18.5 11.5t-24 15l-35 -56q-3 -4 -10 2q-11 9 -70 44q-4 3 -1 6l49 72q2 3 8 2q33 -12 53 -27zM295 819q2 3 8 2q42 -14 71 -41q5 -5 2 -9l-48 -76q-3 -4 -10 2 q-11 9 -70 44q-5 3 -2 6z" />
<glyph unicode="&#x688;" horiz-adv-x="450" arabic-form="isolated" d="M170 322q15 46 29 63q9 10 23 2q132 -73 155 -197q12 -71 -5 -122q-6 -15 -21 -24q-93 -48 -210 -50q-40 -1 -54 25t-2 77q3 11 12 13q7 0 15 -7q20 -16 75 -9q120 15 159 38q3 2 2 12q-18 100 -163 156q-20 8 -15 23zM172 838q4 2 6.5 -1t3.5 -11q20 -147 10 -202 q34 36 61 56q29 22 52 13q24 -10 34 -35q11 -27 -27 -74q-8 -10 -63 -27q-57 -17 -116 -20q-27 5 -43 19q-18 16 -20 22q-1 7 2 7q35 -4 76 -1l26 26q3 74 -16 196q0 5 5 16q7 15 9 16zM252 647q-23 -9 -76 -60q66 9 132 41q-16 33 -56 19z" />
<glyph unicode="&#x688;" horiz-adv-x="471" arabic-form="final" d="M471 90q16 -5 20 -26q5 -24 -1 -44t-19 -20q-65 4 -89 109l-8 34q-3 8 -6 -1q-32 -85 -80 -104q-62 -26 -168 -18q-83 6 -43 131q5 15 15 16t14 -13q9 -29 27 -33q97 -21 175 10q38 15 51 56q1 6 -14 107q-4 29 -17 124q-3 22 3 34q20 42 23 50t10 7q8 -2 9 -10 q23 -205 53 -334q15 -68 45 -75zM301 887q4 2 6.5 -1t3.5 -11q20 -147 10 -202q34 36 61 56q29 22 52 13q24 -10 34 -35q11 -27 -27 -74q-7 -11 -63 -27q-57 -17 -116 -20q-27 5 -43 19q-18 16 -20 22q-1 7 2 7q35 -4 76 -1l26 26q3 74 -16 196q0 5 5 16q7 15 9 16zM381 696 q-23 -9 -76 -60q66 9 132 41q-16 33 -56 19z" />
<glyph unicode="&#x698;" horiz-adv-x="399" arabic-form="isolated" d="M246 279q1 3 3 5q5 2 15 -8q39 -40 58 -107q20 -69 14 -134q-12 -88 -70 -162q-58 -75 -152 -99q-24 -7 -48 1q-113 38 -145 58q-4 3 -4 6q0 4 3 7t9 1q67 -20 118 -14t114 47q95 61 139 144q4 6 2 16q-15 53 -78 131q-3 5 -2 8zM214 539q2 3 8 2q42 -14 71 -41 q4 -4 1 -9l-48 -76q-2 -3 -9 2q-2 1 -7.5 4.5t-18.5 11.5t-24 15l-35 -56q-3 -4 -10 2q-11 9 -70 44q-4 3 -1 6l49 72q2 3 8 2q33 -12 53 -27zM145 643q2 3 8 2q42 -14 71 -41q5 -5 2 -9l-48 -76q-3 -4 -10 2q-11 9 -70 44q-5 3 -2 6z" />
<glyph unicode="&#x698;" horiz-adv-x="343" arabic-form="final" d="M230 62l31 80q7 16 13 6q17 -30 32 -44q16 -14 38 -14q24 0 24 -44t-24 -46q-16 -2 -33 0q-3 0 -5 -6q-3 -96 -68 -181t-121 -91t-94 3q-43 10 -97 38q-8 3 -9 8q-2 7 2 9q4 3 10 1q65 -16 114 -6q100 21 187 117q36 40 45 81q1 26 -41 68q-8 8 -4 21zM204 478q2 3 8 2 q42 -14 71 -41q4 -4 1 -9l-48 -76q-2 -3 -9 2q-2 1 -7.5 4.5t-18.5 11.5t-24 15l-35 -56q-3 -4 -10 2q-11 9 -70 44q-4 3 -1 6l49 72q2 3 8 2q33 -12 53 -27zM135 582q2 3 8 2q42 -14 71 -41q5 -5 2 -9l-48 -76q-3 -4 -10 2q-11 9 -70 44q-5 3 -2 6z" />
<glyph unicode="&#x691;" horiz-adv-x="399" arabic-form="isolated" d="M246 279q1 3 3 5q5 2 15 -8q39 -40 58 -107q20 -69 14 -134q-12 -88 -70 -162q-58 -75 -152 -99q-24 -7 -48 1q-113 38 -145 58q-4 3 -4 6q0 4 3 7t9 1q67 -20 118 -14t114 47q95 61 139 144q4 6 2 16q-15 53 -78 131q-3 5 -2 8zM127 735q4 2 6.5 -1t3.5 -11 q20 -147 10 -202q34 36 61 56q29 22 52 13q24 -10 34 -35q11 -27 -27 -74q-7 -11 -63 -27q-57 -17 -116 -20q-27 5 -43 19q-18 16 -20 22q-1 7 2 7q35 -4 76 -1l26 26q3 74 -16 196q0 5 5 16q7 15 9 16zM207 544q-23 -9 -76 -60q66 9 132 41q-16 33 -56 19z" />
<glyph unicode="&#x691;" horiz-adv-x="343" arabic-form="final" d="M230 62l31 80q7 16 13 6q17 -30 32 -44q16 -14 38 -14q24 0 24 -44t-24 -46q-16 -2 -33 0q-3 0 -5 -6q-3 -96 -68 -181t-121 -91t-94 3q-43 10 -97 38q-8 3 -9 8q-2 7 2 9q4 3 10 1q65 -16 114 -6q100 21 187 117q36 40 45 81q1 26 -41 68q-8 8 -4 21zM141 601 q4 2 6.5 -1t3.5 -11q20 -147 10 -202q34 36 61 56q29 22 52 13q24 -10 34 -35q11 -27 -27 -74q-7 -11 -63 -27q-57 -17 -116 -20q-27 5 -43 19q-18 16 -20 22q-1 7 2 7q35 -4 76 -1l26 26q3 74 -16 196q0 5 5 16q7 15 9 16zM221 410q-23 -9 -76 -60q66 9 132 41 q-16 33 -56 19z" />
<glyph unicode="&#x6a9;" horiz-adv-x="1202" arabic-form="isolated" d="M800 160q3 3 2 7q-62 99 -209 173q-17 9 -18 62q-3 75 30 105q143 128 520 245q5 2 11 2t6 -6q0 -3 -1 -7l-20 -71q-4 -14 -13 -17q-430 -155 -499 -223q-4 -4 2 -7q211 -126 212 -251q0 -70 -30 -110q-42 -57 -229 -99q-128 -29 -231 -29q-252 -2 -269 158q-3 29 7 77 q11 51 43 96q4 6 11 6t9 -7t-2 -12q-72 -114 0 -166q104 -75 329 -48q247 30 339 122z" />
<glyph unicode="&#x6a9;" horiz-adv-x="1132" arabic-form="final" d="M804 165q-24 91 -206 176q-22 14 -26 66q-4 57 11 79q115 164 504 325q9 3 14 3q9 0 9 -10q0 -6 -1 -9l-15 -64q-3 -13 -15 -18q-349 -172 -468 -286q202 -102 349 -236q106 -95 171 -101q24 -3 24 -30q0 -18 -7 -39t-17 -21q-69 0 -209 138q-51 51 -95 83q3 -38 -2 -75 q-19 -129 -261 -183q-128 -29 -231 -29q-252 -2 -269 158q-3 29 7 77q11 51 43 96q4 6 11 6t9 -7t-2 -12q-72 -114 0 -166q104 -75 329 -48q261 31 343 127z" />
<glyph unicode="&#x6a9;" horiz-adv-x="659" arabic-form="initial" d="M0 90q163 -24 257 70q3 3 2 7q-62 99 -209 173q-17 9 -18 62q-3 75 30 105q143 128 519 245q5 2 12 2q6 0 6 -6l-1 -2q0 -3 -1 -5l-19 -71q-4 -14 -14 -17q-431 -155 -499 -223q-4 -4 2 -7q211 -126 212 -251q0 -71 -29 -110q-31 -42 -74 -52q-105 -26 -184 -11 q-13 3 -16 25q-3 24 -3 36q0 21 10 27q6 5 17 3z" />
<glyph unicode="&#x6a9;" horiz-adv-x="588" arabic-form="medial" d="M-5 91q2 0 21 -3q13 -2 63 -2q42 0 96 20q53 20 86 59q-24 91 -207 176q-20 13 -25 66q-5 59 10 79q115 164 505 325q9 3 14 3q8 0 8 -10q0 -6 -1 -9l-14 -64q-3 -11 -16 -18q-347 -171 -467 -286q202 -102 349 -236q106 -95 171 -101q24 -3 24 -30q0 -18 -7 -39t-17 -21 q-69 0 -209 138q-48 48 -96 83q3 -38 -2 -75q-22 -152 -234 -152q-37 0 -54 4q-20 5 -20 62q0 31 22 31z" />
<glyph unicode="&#x6af;" horiz-adv-x="1202" arabic-form="isolated" d="M800 160q3 3 2 7q-62 99 -209 173q-17 9 -18 62q-3 75 30 105q143 128 520 245q5 2 11 2t6 -6q0 -3 -1 -7l-20 -71q-4 -14 -13 -17q-430 -155 -499 -223q-4 -4 2 -7q211 -126 212 -251q0 -70 -30 -110q-42 -57 -229 -99q-128 -29 -231 -29q-252 -2 -269 158q-3 29 7 77 q11 51 43 96q4 6 11 6t9 -7t-2 -12q-72 -114 0 -166q104 -75 329 -48q247 30 339 122zM651 641q-9 -4 -8 1l4 10q7 12 26 31q14 14 22 18q165 78 444 160q5 1 5 -3q0 -6 -21 -30q-22 -25 -37 -29q-173 -46 -435 -158z" />
<glyph unicode="&#x6af;" horiz-adv-x="1132" arabic-form="final" d="M804 165q-24 91 -206 176q-22 14 -26 66q-4 57 11 79q115 164 504 325q9 3 14 3q9 0 9 -10q0 -6 -1 -9l-15 -64q-3 -13 -15 -18q-349 -172 -468 -286q202 -102 349 -236q106 -95 171 -101q24 -3 24 -30q0 -18 -7 -39t-17 -21q-69 0 -209 138q-51 51 -95 83q3 -38 -2 -75 q-19 -129 -261 -183q-128 -29 -231 -29q-252 -2 -269 158q-3 29 7 77q11 51 43 96q4 6 11 6t9 -7t-2 -12q-72 -114 0 -166q104 -75 329 -48q261 31 343 127zM652 677q-11 -6 -7 5q0 2 2 6q7 15 22 34q13 16 21 20q156 96 424 207q2 1 5 1q1 -1 1 -4q0 -5 -18 -32 q-18 -26 -34 -33q-171 -66 -416 -204z" />
<glyph unicode="&#x6af;" horiz-adv-x="659" arabic-form="initial" d="M0 90q163 -24 257 70q3 3 2 7q-62 99 -209 173q-17 9 -18 62q-3 75 30 105q143 128 519 245q5 2 12 2q6 0 6 -6l-1 -2q0 -3 -1 -5l-19 -71q-4 -14 -14 -17q-431 -155 -499 -223q-4 -4 2 -7q211 -126 212 -251q0 -71 -29 -110q-31 -42 -74 -52q-105 -26 -184 -11 q-13 3 -16 25q-3 24 -3 36q0 21 10 27q6 5 17 3zM107 641q-9 -4 -8 1l4 10q7 12 26 31q14 14 22 18q165 78 444 160q5 1 5 -3q0 -6 -21 -30q-22 -25 -37 -29q-173 -46 -435 -158z" />
<glyph unicode="&#x6af;" horiz-adv-x="588" arabic-form="medial" d="M-5 91q2 0 21 -3q13 -2 63 -2q42 0 96 20q53 20 86 59q-24 91 -207 176q-20 13 -25 66q-5 59 10 79q115 164 505 325q9 3 14 3q8 0 8 -10q0 -6 -1 -9l-14 -64q-3 -11 -16 -18q-347 -171 -467 -286q202 -102 349 -236q106 -95 171 -101q24 -3 24 -30q0 -18 -7 -39t-17 -21 q-69 0 -209 138q-48 48 -96 83q3 -38 -2 -75q-22 -152 -234 -152q-37 0 -54 4q-20 5 -20 62q0 31 22 31zM109 677q-11 -6 -7 5q0 2 2 6q7 15 22 34q13 16 21 20q156 96 424 207q2 1 5 1q1 -1 1 -4q0 -5 -18 -32q-18 -26 -34 -33q-171 -66 -416 -204z" />
<glyph unicode="&#x6b3;" horiz-adv-x="1202" arabic-form="isolated" d="M800 160q3 3 2 7q-62 99 -209 173q-17 9 -18 62q-3 75 30 105q143 128 520 245q5 2 11 2t6 -6q0 -3 -1 -7l-20 -71q-4 -14 -13 -17q-430 -155 -499 -223q-4 -4 2 -7q211 -126 212 -251q0 -70 -30 -110q-42 -57 -229 -99q-128 -29 -231 -29q-252 -2 -269 158q-3 29 7 77 q11 51 43 96q4 6 11 6t9 -7t-2 -12q-72 -114 0 -166q104 -75 329 -48q247 30 339 122zM651 641q-9 -4 -8 1l4 10q7 12 26 31q14 14 22 18q165 78 444 160q5 1 5 -3q0 -6 -21 -30q-22 -25 -37 -29q-173 -46 -435 -158zM438 -75q2 4 9 2q38 -13 70 -42q5 -5 2 -9l-32 -50 q26 -12 50 -34q4 -4 1 -8l-47 -76q-3 -5 -10 1q-11 9 -70 44q-5 3 -2 6l36 54l-54 33q-4 3 -1 6z" />
<glyph unicode="&#x6b3;" horiz-adv-x="1132" arabic-form="final" d="M804 165q-24 91 -206 176q-22 14 -26 66q-4 57 11 79q115 164 504 325q9 3 14 3q9 0 9 -10q0 -6 -1 -9l-15 -64q-3 -13 -15 -18q-349 -172 -468 -286q202 -102 349 -236q106 -95 171 -101q24 -3 24 -30q0 -18 -7 -39t-17 -21q-69 0 -209 138q-51 51 -95 83q3 -38 -2 -75 q-19 -129 -261 -183q-128 -29 -231 -29q-252 -2 -269 158q-3 29 7 77q11 51 43 96q4 6 11 6t9 -7t-2 -12q-72 -114 0 -166q104 -75 329 -48q261 31 343 127zM652 677q-11 -6 -7 5q0 2 2 6q7 15 22 34q13 16 21 20q156 96 424 207q2 1 5 1q1 -1 1 -4q0 -5 -18 -32 q-18 -26 -34 -33q-171 -66 -416 -204zM438 -75q2 4 9 2q38 -13 70 -42q5 -5 2 -9l-32 -50q26 -12 50 -34q4 -4 1 -8l-47 -76q-3 -5 -10 1q-11 9 -70 44q-5 3 -2 6l36 54l-54 33q-4 3 -1 6z" />
<glyph unicode="&#x6b3;" horiz-adv-x="659" arabic-form="initial" d="M0 90q163 -24 257 70q3 3 2 7q-62 99 -209 173q-17 9 -18 62q-3 75 30 105q143 128 519 245q5 2 12 2q6 0 6 -6l-1 -2q0 -3 -1 -5l-19 -71q-4 -14 -14 -17q-431 -155 -499 -223q-4 -4 2 -7q211 -126 212 -251q0 -71 -29 -110q-31 -42 -74 -52q-105 -26 -184 -11 q-13 3 -16 25q-3 24 -3 36q0 21 10 27q6 5 17 3zM107 641q-9 -4 -8 1l4 10q7 12 26 31q14 14 22 18q165 78 444 160q5 1 5 -3q0 -6 -21 -30q-22 -25 -37 -29q-173 -46 -435 -158zM116 -21q2 4 9 2q38 -13 70 -42q5 -5 2 -9l-32 -50q26 -12 50 -34q4 -4 1 -8l-47 -76 q-3 -5 -10 1q-11 9 -70 44q-5 3 -2 6l36 54l-54 33q-4 3 -1 6z" />
<glyph unicode="&#x6b3;" horiz-adv-x="588" arabic-form="medial" d="M-5 91q2 0 21 -3q13 -2 63 -2q42 0 96 20q53 20 86 59q-24 91 -207 176q-20 13 -25 66q-5 59 10 79q115 164 505 325q9 3 14 3q8 0 8 -10q0 -6 -1 -9l-14 -64q-3 -11 -16 -18q-347 -171 -467 -286q202 -102 349 -236q106 -95 171 -101q24 -3 24 -30q0 -18 -7 -39t-17 -21 q-69 0 -209 138q-48 48 -96 83q3 -38 -2 -75q-22 -152 -234 -152q-37 0 -54 4q-20 5 -20 62q0 31 22 31zM109 677q-11 -6 -7 5q0 2 2 6q7 15 22 34q13 16 21 20q156 96 424 207q2 1 5 1q1 -1 1 -4q0 -5 -18 -32q-18 -26 -34 -33q-171 -66 -416 -204zM355 -39q2 4 9 2 q38 -13 70 -42q5 -5 2 -9l-32 -50q26 -12 50 -34q4 -4 1 -8l-47 -76q-3 -5 -10 1q-11 9 -70 44q-5 3 -2 6l36 54l-54 33q-4 3 -1 6z" />
<glyph unicode="&#x6b1;" horiz-adv-x="1202" arabic-form="isolated" d="M800 160q3 3 2 7q-62 99 -209 173q-17 9 -18 62q-3 75 30 105q143 128 520 245q5 2 11 2t6 -6q0 -3 -1 -7l-20 -71q-4 -14 -13 -17q-430 -155 -499 -223q-4 -4 2 -7q211 -126 212 -251q0 -70 -30 -110q-42 -57 -229 -99q-128 -29 -231 -29q-252 -2 -269 158q-3 29 7 77 q11 51 43 96q4 6 11 6t9 -7t-2 -12q-72 -114 0 -166q104 -75 329 -48q247 30 339 122zM651 641q-9 -4 -8 1l4 10q7 12 26 31q14 14 22 18q165 78 444 160q5 1 5 -3q0 -6 -21 -30q-22 -25 -37 -29q-173 -46 -435 -158zM576 777q2 3 8 2q42 -14 71 -41q4 -4 1 -9l-48 -76 q-2 -3 -9 2q-4 4 -57 35l-38 -59q-3 -5 -10 1q-11 9 -70 44q-4 3 -1 6l49 73q2 3 8 2q30 -9 60 -33z" />
<glyph unicode="&#x6b1;" horiz-adv-x="1132" arabic-form="final" d="M804 165q-24 91 -206 176q-22 14 -26 66q-4 57 11 79q115 164 504 325q9 3 14 3q9 0 9 -10q0 -6 -1 -9l-15 -64q-3 -13 -15 -18q-349 -172 -468 -286q202 -102 349 -236q106 -95 171 -101q24 -3 24 -30q0 -18 -7 -39t-17 -21q-69 0 -209 138q-51 51 -95 83q3 -38 -2 -75 q-19 -129 -261 -183q-128 -29 -231 -29q-252 -2 -269 158q-3 29 7 77q11 51 43 96q4 6 11 6t9 -7t-2 -12q-72 -114 0 -166q104 -75 329 -48q261 31 343 127zM652 677q-11 -6 -7 5q0 2 2 6q7 15 22 34q13 16 21 20q156 96 424 207q2 1 5 1q1 -1 1 -4q0 -5 -18 -32 q-18 -26 -34 -33q-171 -66 -416 -204zM576 789q2 3 8 2q42 -14 71 -41q4 -4 1 -9l-48 -76q-2 -3 -9 2q-4 4 -57 35l-38 -59q-3 -5 -10 1q-11 9 -70 44q-4 3 -1 6l49 73q2 3 8 2q30 -9 60 -33z" />
<glyph unicode="&#x6b1;" horiz-adv-x="659" arabic-form="initial" d="M0 90q163 -24 257 70q3 3 2 7q-62 99 -209 173q-17 9 -18 62q-3 75 30 105q143 128 519 245q5 2 12 2q6 0 6 -6l-1 -2q0 -3 -1 -5l-19 -71q-4 -14 -14 -17q-431 -155 -499 -223q-4 -4 2 -7q211 -126 212 -251q0 -71 -29 -110q-31 -42 -74 -52q-105 -26 -184 -11 q-13 3 -16 25q-3 24 -3 36q0 21 10 27q6 5 17 3zM156 660q-9 -4 -8 1l4 10q7 12 26 31q14 14 22 18q165 78 444 160q5 1 5 -3q0 -6 -21 -30q-22 -25 -37 -29q-173 -46 -435 -158zM81 777q2 3 8 2q42 -14 71 -41q4 -4 1 -9l-48 -76q-2 -3 -9 2q-4 4 -57 35l-38 -59 q-3 -5 -10 1q-11 9 -70 44q-4 3 -1 6l49 73q2 3 8 2q30 -9 60 -33z" />
<glyph unicode="&#x6b1;" horiz-adv-x="588" arabic-form="medial" d="M-5 91q2 0 21 -3q13 -2 63 -2q42 0 96 20q53 20 86 59q-24 91 -207 176q-20 13 -25 66q-5 59 10 79q115 164 505 325q9 3 14 3q8 0 8 -10q0 -6 -1 -9l-14 -64q-3 -11 -16 -18q-347 -171 -467 -286q202 -102 349 -236q106 -95 171 -101q24 -3 24 -30q0 -18 -7 -39t-17 -21 q-69 0 -209 138q-48 48 -96 83q3 -38 -2 -75q-22 -152 -234 -152q-37 0 -54 4q-20 5 -20 62q0 31 22 31zM162 701q-11 -6 -7 5q0 2 2 6q7 15 22 34q13 16 21 20q156 96 424 207q2 1 5 1q1 -1 1 -4q0 -5 -18 -32q-18 -26 -34 -33q-171 -66 -416 -204zM81 789q2 3 8 2 q42 -14 71 -41q4 -4 1 -9l-48 -76q-2 -3 -9 2q-4 4 -57 35l-38 -59q-3 -5 -10 1q-11 9 -70 44q-4 3 -1 6l49 73q2 3 8 2q30 -9 60 -33z" />
<glyph unicode="&#x6ba;" horiz-adv-x="572" arabic-form="isolated" d="M438 460q37 -70 58 -158q22 -90 8 -179q-8 -48 -30 -82q-58 -91 -203 -105q-103 -10 -158 41q-53 51 -49 140q5 91 61 168q7 11 15 6q9 -5 -1 -20q-62 -104 -24 -169q37 -64 151 -64q133 2 211 87q2 2 2 9q1 46 -29 125q-32 82 -53 113q-7 10 -4 17l30 74q5 12 15 -3z " />
<glyph unicode="&#x6ba;" horiz-adv-x="615" arabic-form="final" d="M527 148q6 14 16 4q7 -7 31 -43q12 -19 41 -19q21 0 24 -21q3 -19 -7 -45q-9 -24 -17 -24h-31q-6 -117 -71 -216q-75 -114 -254 -120q-90 -3 -145 50q-54 53 -50 129q4 73 76 206q3 6 8 6q7 0 10 -4q4 -5 -1 -13q-49 -95 -46 -131q7 -133 160 -135q166 -1 251 91 q17 121 -19 201q-6 14 -5 17z" />
<glyph unicode="&#x6bb;" horiz-adv-x="572" arabic-form="isolated" d="M438 460q37 -70 58 -158q22 -90 8 -179q-8 -48 -30 -82q-58 -91 -203 -105q-103 -10 -158 41q-53 51 -49 140q5 91 61 168q7 11 15 6q9 -5 -1 -20q-62 -104 -24 -169q37 -64 151 -64q133 2 211 87q2 2 2 9q1 46 -29 125q-32 82 -53 113q-7 10 -4 17l30 74q5 12 15 -3z M236 789q4 2 6.5 -1t3.5 -11q20 -147 10 -202q34 36 61 56q29 22 52 13q24 -10 34 -35q11 -27 -27 -74q-8 -11 -63 -27q-57 -17 -116 -20q-27 5 -43 19q-18 16 -20 22q-1 7 2 7q35 -4 76 -1l26 26q3 74 -16 196q0 5 5 16q7 15 9 16zM316 598q-23 -9 -76 -60q66 9 132 41 q-16 33 -56 19z" />
<glyph unicode="&#x6bb;" horiz-adv-x="615" arabic-form="final" d="M527 148q6 14 16 4q7 -7 31 -43q12 -19 41 -19q21 0 24 -21q3 -19 -7 -45q-9 -24 -17 -24h-31q-6 -117 -71 -216q-75 -114 -254 -120q-90 -3 -145 50q-54 53 -50 129q4 73 76 206q3 6 8 6q7 0 10 -4q4 -5 -1 -13q-49 -95 -46 -131q7 -133 160 -135q166 -1 251 91 q17 121 -19 201q-6 14 -5 17zM299 496q4 2 6.5 -1t3.5 -11q20 -147 10 -202q34 36 61 56q29 22 52 13q24 -10 34 -35q11 -27 -27 -74q-7 -10 -63 -27q-57 -17 -116 -20q-27 5 -43 19q-18 16 -20 22q-1 7 2 7q35 -4 76 -1l26 26q3 74 -16 196q0 5 5 16q7 15 9 16zM379 305 q-23 -9 -76 -60q66 9 132 41q-16 33 -56 19z" />
<glyph unicode="&#x6bb;" horiz-adv-x="190" arabic-form="initial" d="M52 643q4 2 6.5 -1t3.5 -11q20 -147 10 -202q34 36 61 56q29 22 52 13q24 -10 34 -35q11 -27 -27 -74q-8 -11 -63 -27q-57 -17 -116 -20q-27 5 -43 19q-18 16 -20 22q-1 7 2 7q35 -4 76 -1l26 26q3 74 -16 196q0 5 5 16q7 15 9 16zM60 211l28 62q8 18 18 1 q40 -75 15 -176q-24 -98 -121 -98q-10 0 -21 51q-5 25 5 35q5 4 16 4q59 -3 89 32q2 2 0 7q-6 28 -27 58q-8 11 -2 24zM132 452q-23 -9 -76 -60q66 9 132 41q-16 33 -56 19z" />
<glyph unicode="&#x6bb;" horiz-adv-x="244" arabic-form="medial" d="M89 628q4 2 6.5 -1t3.5 -11q20 -147 10 -202q34 36 61 56q29 22 52 13q24 -10 34 -35q11 -27 -27 -74q-7 -10 -63 -27q-57 -17 -116 -20q-27 5 -43 19q-18 16 -20 22q-1 7 2 7q35 -4 76 -1l26 26q3 74 -16 196q0 5 5 16q7 15 9 16zM244 90q18 -5 19 -11q2 -8 0 -24 q-7 -55 -19 -55q-54 0 -108 61q-46 -55 -136 -61q-10 0 -13 15l-8 42q-3 9 4 21q6 10 17 12q110 9 148 66q5 8 14 8t9 -9q0 -8 2 -12q33 -45 71 -53zM169 437q-23 -9 -76 -60q66 9 132 41q-16 33 -56 19z" />
<glyph unicode="&#x6c0;" horiz-adv-x="369" arabic-form="isolated" d="M158 326q16 11 41 -3q64 -37 91 -96q27 -58 13 -121q-13 -60 -51 -95t-87 -35q-68 -2 -90 48q-22 49 -1 129q21 81 77 146q2 2 2 13q0 12 5 14zM254 548q-62 -12 -77 -17q-18 -6 -84 -35q-13 -6 -19 4q-12 18 39 49q-37 18 -42 42q-8 42 34 99t89 53q30 -3 27 -34 t-18 -52q-14 -20 -24 -5q-11 18 -30 19q-20 2 -31 -12q-12 -15 1 -26q33 -31 98 -33q7 0 30 5t29 5q8 0 12 -7q3 -7 1 -11q-20 -41 -35 -44zM253 111q12 9 -5 30q-47 58 -89 56q-21 0 -36 -29t-11 -45q9 -37 58 -37q51 0 83 25z" />
<glyph unicode="&#x6c0;" horiz-adv-x="379" arabic-form="final" d="M256 439q13 18 16 -8q0 -5 2 -20t6 -43t7 -55q14 -112 14 -117q8 -81 34 -97q15 -11 44 -9q18 0 21 -21q3 -22 -4 -45q-7 -22 -17 -24q-56 -4 -83 28q-28 34 -38 119q-28 -53 -58 -65q-22 -8 -61 -1q-42 8 -59 22q-19 16 -16 35q3 22 19 54q17 34 26 43q53 51 126 90 q-3 41 -3 61t9 32zM269 553q-62 -12 -77 -17q-18 -6 -84 -35q-13 -6 -19 4q-12 18 39 49q-38 18 -42 42q-8 42 34 99t89 53q30 -3 27 -34t-18 -52q-14 -20 -24 -5q-11 18 -30 19q-20 2 -31 -12q-12 -15 1 -26q33 -31 98 -33q7 0 30 5t29 5q9 0 12 -7q3 -6 1 -11 q-20 -41 -35 -44zM242 264q-78 -22 -112 -67q-4 -6 3 -10q43 -21 108 -6q5 1 11 7q-4 37 -10 76z" />
<glyph unicode="&#x6c1;" horiz-adv-x="369" arabic-form="isolated" d="M158 326q16 11 41 -3q64 -37 91 -96q27 -58 13 -121q-13 -60 -51 -95t-87 -35q-68 -2 -90 48q-22 49 -1 129q21 81 77 146q2 2 2 13q0 12 5 14zM253 111q12 9 -5 30q-47 58 -89 56q-21 0 -36 -29t-11 -45q9 -37 58 -37q51 0 83 25z" />
<glyph unicode="&#x6c1;" horiz-adv-x="408" arabic-form="final" d="M409 91q31 -1 29 -20q-5 -43 -7 -49q-7 -21 -23 -22q-58 -3 -105 21q-43 21 -78 69q-7 9 -20 -2q-19 -15 -48 -51q-57 -69 -68 -80q-6 -7 -12 -4t0 14q45 78 135 206q31 44 53 13q30 -42 67 -67q39 -27 77 -28z" />
<glyph unicode="&#x6c1;" horiz-adv-x="452" arabic-form="initial" d="M86 322q24 90 66 88q43 -2 135 -89q91 -86 100 -140q11 -67 -31 -117q-21 -25 -52 -22q-81 9 -171 43q-95 -85 -133 -85q-9 0 -16 16q-30 68 16 74q38 5 69 28q-28 22 -15 61q21 65 73 111q-10 16 -32 19q-12 2 -9 13zM234 237q-4 3 -4 -2q5 -32 -34 -83q116 -36 137 -24 q7 3 5 8q-20 48 -104 101zM159 165q33 17 33 26q-4 52 -31 58q-40 9 -75 -35q-10 -12 7 -23t66 -26z" />
<glyph unicode="&#x6c1;" horiz-adv-x="460" arabic-form="medial" d="M164 13q-4 -4 -7 -12q-44 -89 -3 -215q3 -9 0 -13l-36 -51q-7 -9 -11 -5q-86 104 -32 315q-34 -32 -75 -32q-9 0 -15 21q-5 15 -7 45q-2 23 22 24q84 5 149 116q9 15 19 9q9 -6 4 -15q-37 -64 -62 -132q-36 -101 -20 -151l1 -2q1 1 1 2q9 23 31 65q1 1 2 3.5t1 3.5 q49 95 110 137q64 44 125 34q21 -5 44 -35q24 -32 54 -35q11 -1 13 -24q2 -26 -2 -45q-2 -12 -4.5 -17t-6.5 -4q-46 3 -89 45q-28 28 -45 30q-102 11 -161 -62z" />
<glyph unicode="&#x6be;" horiz-adv-x="608" arabic-form="isolated" d="M205 58q-3 5 -4 11q-6 36 5 80q11 43 57 94q47 51 81 69t51 -47q3 -10 14 -16q92 -45 127 -81q9 -9 12 -38q3 -30 -6 -62q-10 -35 -31 -56q-20 -22 -123 -17q-68 3 -123 21q-49 -31 -119 -46q-21 -6 -32 0l-51 25q-12 6 -14 12t6 11t25 8q64 13 125 32zM312 226 q-14 0 -43 -24q-25 -21 -45 -59q-1 -2 -1 -7q8 -30 63 -42q46 19 59 37q11 15 0 56q-11 39 -33 39zM385 177q-8 -53 -43 -94q51 -10 142 -8q12 0 17 9q4 8 -1 14q-32 38 -115 79z" />
<glyph unicode="&#x6be;" horiz-adv-x="522" arabic-form="final" d="M208 11q-35 -11 -49 -13q-24 -4 -40 7l-56 41q-42 31 11 37q153 17 175 31q41 108 117 198q38 44 50 38q20 -9 23 -41q15 -151 -105 -243q68 -5 188 24q8 1 14 -10q12 -28 0 -63q-6 -15 -14 -17q-56 -12 -94 -9q33 -35 27 -117q-3 -38 -28 -70q-26 -34 -60 -34 q-54 -1 -86.5 50t-43.5 153l-29 4v34zM278 -32q18 -79 64 -100q38 -17 77 7q11 8 4 20q-37 54 -145 73zM368 234q-8 0 -14 -3q-60 -34 -80 -110q93 37 124 80q6 8 2 15q-10 18 -32 18z" />
<glyph unicode="&#x6be;" horiz-adv-x="452" arabic-form="initial" d="M55 104q-6 35 5 79q11 45 56 94q46 51 81 69t52 -47q3 -10 14 -16q90 -44 126 -81q10 -10 13 -37q3 -28 -7 -63t-31 -56q-20 -20 -107 -17q-81 3 -145 22q-53 -35 -112 -51q-5 -2 -9.5 2.5t-7.5 14.5q-21 70 16 73q35 3 56 14zM166 260q-14 0 -43 -24q-27 -23 -46 -59 q-1 -2 -1 -7q8 -30 64 -42q43 18 58 38q12 16 1 55t-33 39zM239 211q-7 -50 -44 -93q55 -10 142 -9q13 0 17 9q4 8 0 14q-32 38 -115 79z" />
<glyph unicode="&#x6be;" horiz-adv-x="390" arabic-form="medial" d="M284 350q21 -9 23 -41q10 -150 -95 -243q59 -5 179 24q7 1 13 -10q12 -28 0 -63q-6 -16 -13 -17q-57 -12 -95 -9q33 -35 27 -117q-3 -38 -28 -70q-26 -34 -60 -34q-54 -1 -86.5 50t-43.5 153l-28 4v48q-49 -25 -77 -25q-19 0 -28 67q-3 21 28 23q56 3 117 24 q41 108 117 198q38 44 50 38zM146 -32q18 -79 64 -100q39 -17 78 7q11 8 3 20q-37 54 -145 73zM236 234q-8 0 -14 -3q-60 -34 -80 -110q95 38 125 80q6 7 1 15q-11 18 -32 18z" />
<glyph unicode="&#x6d2;" horiz-adv-x="1159" arabic-form="isolated" d="M464 272q3 91 -23 93q-16 1 -45 -42q-2 -3 -5 -8t-9 -15.5t-12 -19.5q-22 -36 -46 -60q-25 -25 -95 -54q-73 -30 -97 -50q-11 -10 -4 -20q16 -22 60 -27q73 -9 392 5q305 13 496 13q28 0 16 -22l-22 -41q-14 -24 -30 -24q-194 0 -441 -11q-279 -12 -388 -11 q-117 2 -141 39q-10 15 -5 36q23 90 93 151q21 19 84 43q60 23 87 44q25 19 46 60q55 108 98 105q49 -3 16 -183q-3 -14 -14 -14t-11 13z" />
<glyph unicode="&#x6d2;" horiz-adv-x="571" arabic-form="final" d="M636 -182q14 1 18 -5t-2 -18l-22 -40q-12 -23 -30 -25q-263 -12 -389 -10q-117 2 -141 39q-10 15 -5 35q21 82 93 151q153 145 413 145q32 0 23 -45t-23 -45q-267 0 -439 -142q-11 -10 -4 -20q15 -22 60 -27q107 -11 448 7z" />
<glyph unicode="&#x6d3;" horiz-adv-x="1159" arabic-form="isolated" d="M239 556q0 6 5 7q11 4 82 -73q40 -44 52 -84q12 -39 3 -80q-2 -8 -3 -11q-1 -10 -9 -35q-12 -36 -37 -58q-1 -1 -4 -3q-28 -23 -99 -53q-73 -30 -97 -50q-11 -10 -4 -20q16 -22 60 -27q73 -9 392 5q305 13 496 13q28 0 16 -22l-22 -41q-14 -24 -30 -24q-194 0 -441 -11 q-279 -12 -388 -11q-117 2 -141 39q-10 15 -5 36q23 90 93 151q21 19 84 43q60 23 87 44q15 11 25 21q0 60 -97 150q-11 11 -13 14q-1 2 -3 13zM298 760q-62 -12 -77 -17q-18 -6 -84 -35q-13 -6 -19 4q-12 18 39 49q-37 18 -42 42q-8 42 34 99t89 53q30 -3 27 -34t-18 -52 q-14 -20 -24 -5q-11 18 -30 19q-20 2 -31 -12q-12 -15 1 -26q33 -31 98 -33q7 0 30 5t29 5q8 0 12 -7q3 -7 1 -11q-20 -41 -35 -44z" />
<glyph unicode="&#x6d3;" horiz-adv-x="517" arabic-form="final" d="M488 2q-64 15 -79 103q-3 7 -8 4l-4 -4q-14 -15 -27 -35q-32 -46 -46 -59q-26 -26 -95 -55q-73 -30 -97 -50q-11 -10 -4 -20q16 -22 60 -27q73 -9 392 5q305 13 496 13q28 0 16 -22l-22 -41q-14 -24 -30 -24q-194 0 -441 -11q-279 -12 -388 -11q-117 2 -141 39 q-10 15 -5 36q23 90 93 151q21 19 84 43q60 23 87 44q21 15 49 59q20 32 44 38h1q1 1 2 1q13 1 18 -11q1 -3 3 -11q2 -10 10 -23q24 -42 75 -45q15 -1 15 -20q0 -18 -17 -58q-5 -11 -12 -11q-14 -1 -29 2zM425 377q-62 -12 -77 -17q-18 -6 -84 -35q-13 -6 -19 4 q-12 18 39 49q-38 18 -42 42q-8 42 34 99t89 53q30 -3 27 -34t-18 -52q-14 -20 -24 -5q-11 18 -30 19q-20 2 -31 -12q-12 -15 1 -26q33 -31 98 -33q7 0 30 5t29 5q9 0 12 -7q3 -6 1 -11q-20 -41 -35 -44z" />
<glyph unicode="&#x6ad;" horiz-adv-x="657" arabic-form="isolated" d="M492 782q22 -46 53 -70q8 -7 0 -19l-18 -30q-4 -7 -4 -10q71 -343 71 -429v-49q-2 -65 -29 -126q-24 -55 -338 -49q-90 2 -154 12q-7 2 -7 9q-4 55 -2 86q0 9 7 5q40 -16 134 -17q289 -6 351 37q6 36 -37 271t-51 267q-8 34 -12 47q-5 17 2 31l19 38q3 6 7 5q5 -2 8 -9z M291 574q4 0 6 -4q1 -3 0 -7l-21 -53q-5 -12 -11 -14q-27 -6 -39 -21q-6 -7 14 -16q16 -7 51 -12q68 -10 -2 -109q-22 -29 -42 -35q-18 -6 -70 -1q-42 4 -80 17q-11 5 -11 13q0 9 10 9q26 2 67 3q81 1 98 11q4 2 2 7q-1 3 -8 5l-29 7q-26 6 -38 20q-14 15 -9 32 q30 126 112 148zM284 784q2 3 8 2q42 -14 71 -41q4 -4 1 -9l-48 -76q-2 -3 -9 2q-2 1 -7.5 4.5t-18.5 11.5t-24 15l-35 -56q-3 -4 -10 2q-11 9 -70 44q-4 3 -1 6l49 72q2 3 8 2q33 -12 53 -27zM215 888q2 3 8 2q42 -14 71 -41q5 -5 2 -9l-48 -76q-3 -4 -10 2q-11 9 -70 44 q-5 3 -2 6z" />
<glyph unicode="&#x6ad;" horiz-adv-x="822" arabic-form="final" d="M690 709q11 18 13 -3q6 -78 15 -194q23 -287 39 -335q26 -74 66 -87q20 -6 24 -28t-5 -42t-19 -20q-98 0 -116 175q-16 -39 -50 -81q-32 -39 -68 -58q-116 -60 -255 -64q-205 -7 -257 90q-14 28 -14 54q3 98 63 170q4 6 12 6q6 0 8 -7q1 -6 -5 -15q-43 -67 -37 -98 q21 -103 214 -106q131 -1 272 53q49 20 76 59q8 11 9 43q1 33 -12 198l-14 164q-6 57 7 76zM442 577q4 0 6 -4q1 -3 0 -7l-21 -53q-5 -12 -11 -14q-27 -6 -39 -21q-6 -7 14 -16q16 -7 51 -12q68 -10 -2 -109q-22 -29 -42 -35q-18 -6 -70 -1q-42 4 -80 17q-11 5 -11 13 q0 9 10 9q26 2 67 3q81 1 98 11q4 2 2 7q-1 3 -8 5l-29 7q-26 6 -38 20q-14 15 -9 32q30 126 112 148zM435 787q2 3 8 2q42 -14 71 -41q4 -4 1 -9l-48 -76q-2 -3 -9 2q-2 1 -7.5 4.5t-18.5 11.5t-24 15l-35 -56q-3 -4 -10 2q-11 9 -70 44q-4 3 -1 6l49 72q2 3 8 2 q33 -12 53 -27zM366 891q2 3 8 2q42 -14 71 -41q5 -5 2 -9l-48 -76q-3 -4 -10 2q-11 9 -70 44q-5 3 -2 6z" />
<glyph unicode="&#x6ad;" horiz-adv-x="659" arabic-form="initial" d="M0 90q163 -24 257 70q3 3 2 7q-62 99 -209 173q-17 9 -18 62q-3 75 30 105q143 128 519 245q5 2 12 2q6 0 6 -6l-1 -2q0 -3 -1 -5l-19 -71q-4 -14 -14 -17q-431 -155 -499 -223q-4 -4 2 -7q211 -126 212 -251q0 -71 -29 -110q-31 -42 -74 -52q-105 -26 -184 -11 q-13 3 -16 25q-3 24 -3 36q0 21 10 27q6 5 17 3zM168 777q2 3 8 2q42 -14 71 -41q4 -4 1 -9l-48 -76q-2 -3 -9 2q-2 1 -7.5 4.5t-18.5 11.5t-24 15l-35 -56q-3 -4 -10 2q-11 9 -70 44q-4 3 -1 6l49 72q2 3 8 2q33 -12 53 -27zM99 881q2 3 8 2q42 -14 71 -41q5 -5 2 -9 l-48 -76q-3 -4 -10 2q-11 9 -70 44q-5 3 -2 6z" />
<glyph unicode="&#x6ad;" horiz-adv-x="588" arabic-form="medial" d="M-5 91q2 0 21 -3q13 -2 63 -2q42 0 96 20q53 20 86 59q-24 91 -207 176q-20 13 -25 66q-5 59 10 79q115 164 505 325q9 3 14 3q8 0 8 -10q0 -6 -1 -9l-14 -64q-3 -11 -16 -18q-347 -171 -467 -286q202 -102 349 -236q106 -95 171 -101q24 -3 24 -30q0 -18 -7 -39t-17 -21 q-69 0 -209 138q-48 48 -96 83q3 -38 -2 -75q-22 -152 -234 -152q-37 0 -54 4q-20 5 -20 62q0 31 22 31zM135 789q2 3 8 2q42 -14 71 -41q4 -4 1 -9l-48 -76q-2 -3 -9 2q-2 1 -7.5 4.5t-18.5 11.5t-24 15l-35 -56q-3 -4 -10 2q-11 9 -70 44q-4 3 -1 6l49 72q2 3 8 2 q33 -12 53 -27zM66 893q2 3 8 2q42 -14 71 -41q5 -5 2 -9l-48 -76q-3 -4 -10 2q-11 9 -70 44q-5 3 -2 6z" />
<glyph unicode="&#x6c7;" horiz-adv-x="400" arabic-form="isolated" d="M169 194q17 48 37.5 72.5t44.5 23.5q29 0 54 -40q23 -37 31 -89q8 -50 -15 -139t-88 -163q-66 -75 -105 -79q-40 -4 -106 6q-58 9 -95 24q-11 5 -10 12q2 8 13 6q78 -11 149 6q44 11 122 80q81 72 95 117q-5 42 -12 46q-38 -59 -97 -29t-18 146zM228 657q57 0 57 -96 q0 -76 -77 -203q-9 -14 -18 -9t-2 20q63 127 45 177q-9 23 -32 23q-18 0 -30 -28q-4 -10 -10 -7t-5 15q8 108 72 108zM260 157q-29 47 -62 4q25 -28 62 -4z" />
<glyph unicode="&#x6c7;" horiz-adv-x="345" arabic-form="final" d="M325 -11q-31 -179 -189 -249q-44 -20 -75 -21q-36 -2 -128 61q-11 8 -7 15t14 2q83 -43 209 29q107 61 146 169q0 3 -3 5q-74 2 -107 20q-35 20 -26 78q1 11 8 31q21 62 62 85t69 -16q28 -40 33 -108q2 0 7 0.5t8 0.5q15 0 18 -23q3 -22 -3 -45t-15 -23h-19q0 -3 -2 -11z M230 591q57 0 57 -96q0 -76 -77 -203q-9 -14 -18 -9t-2 20q63 127 45 177q-9 23 -32 23q-18 0 -30 -28q-4 -10 -10 -7t-5 15q8 108 72 108zM277 101q-20 42 -48 41q-17 -3 -27 -16q-5 -6 2 -14q16 -21 69 -19q6 0 4 8z" />
<glyph unicode="&#x6c6;" horiz-adv-x="400" arabic-form="isolated" d="M169 194q17 48 37.5 72.5t44.5 23.5q29 0 54 -40q23 -37 31 -89q8 -50 -15 -139t-88 -163q-66 -75 -105 -79q-40 -4 -106 6q-58 9 -95 24q-11 5 -10 12q2 8 13 6q78 -11 149 6q44 11 122 80q81 72 95 117q-5 42 -12 46q-38 -59 -97 -29t-18 146zM311 585l19 -27 q3 -6 3 -9q0 -5 -3 -10q-49 -81 -66 -140l-9 -7q-1 -1 -5 -1q-3 0 -8 5q-58 72 -89 150q-3 8 -3 12q0 9 9 12q13 5 19 -13q12 -33 52 -101q22 78 63 127q6 7 11 7q4 0 7 -5zM260 157q-29 47 -62 4q25 -28 62 -4z" />
<glyph unicode="&#x6c6;" horiz-adv-x="345" arabic-form="final" d="M325 -11q-31 -179 -189 -249q-44 -20 -75 -21q-36 -2 -128 61q-11 8 -7 15t14 2q83 -43 209 29q107 61 146 169q0 3 -3 5q-74 2 -107 20q-35 20 -26 78q1 11 8 31q21 62 62 85t69 -16q28 -40 33 -108q2 0 7 0.5t8 0.5q15 0 18 -23q3 -22 -3 -45t-15 -23h-19q0 -3 -2 -11z M308 522l19 -27q3 -6 3 -9q0 -6 -3 -10q-49 -81 -66 -140l-9 -7q-1 -1 -5 -1q-3 0 -8 5q-58 72 -89 150q-3 7 -3 12q0 9 9 12q13 5 19 -13q12 -33 52 -101q22 78 63 127q6 7 11 7q4 0 7 -5zM277 101q-20 42 -48 41q-17 -3 -27 -16q-5 -6 2 -14q16 -21 69 -19q6 0 4 8z" />
<glyph unicode="&#x6c8;" horiz-adv-x="400" arabic-form="isolated" d="M169 194q17 48 37.5 72.5t44.5 23.5q29 0 54 -40q23 -37 31 -89q8 -50 -15 -139t-88 -163q-66 -75 -105 -79q-40 -4 -106 6q-58 9 -95 24q-11 5 -10 12q2 8 13 6q78 -11 149 6q44 11 122 80q81 72 95 117q-5 42 -12 46q-38 -59 -97 -29t-18 146zM165 633q5 15 18 -1 q95 -106 65 -268q-1 -9 -10 -11q-4 -1 -6.5 2t-3.5 9q-14 105 -77 183q-8 9 -5 22zM260 157q-29 47 -62 4q25 -28 62 -4z" />
<glyph unicode="&#x6c8;" horiz-adv-x="345" arabic-form="final" d="M325 -11q-31 -179 -189 -249q-44 -20 -75 -21q-36 -2 -128 61q-11 8 -7 15t14 2q83 -43 209 29q107 61 146 169q0 3 -3 5q-74 2 -107 20q-35 20 -26 78q1 11 8 31q21 62 62 85t69 -16q28 -40 33 -108q2 0 7 0.5t8 0.5q15 0 18 -23q3 -22 -3 -45t-15 -23h-19q0 -3 -2 -11z M162 571q5 15 18 -1q95 -106 65 -268q-1 -9 -10 -11q-4 -1 -6.5 2t-3.5 9q-14 105 -77 183q-8 9 -5 22zM277 101q-20 42 -48 41q-17 -3 -27 -16q-5 -6 2 -14q16 -21 69 -19q6 0 4 8z" />
<glyph unicode="&#x677;" horiz-adv-x="498" arabic-form="isolated" d="M266 194q17 48 37.5 72.5t44.5 23.5q29 0 54 -40q23 -37 31 -89q8 -50 -15 -139t-88 -163q-66 -75 -105 -79q-40 -4 -106 6q-58 9 -95 24q-11 5 -10 12q2 8 13 6q78 -11 149 6q44 11 122 80q81 72 95 117q-5 42 -12 46q-38 -59 -97 -29t-18 146zM393 456q-62 -12 -77 -17 q-18 -6 -84 -35q-13 -6 -19 4q-12 18 39 49q-38 18 -42 42q-8 42 34 99t89 53q30 -3 27 -34t-18 -52q-14 -20 -24 -5q-11 18 -30 19q-20 2 -31 -12q-12 -15 1 -26q33 -31 98 -33q7 0 30 5t29 5q9 0 12 -7t1 -11q-20 -41 -35 -44zM103 680q57 0 57 -96q0 -76 -77 -203 q-9 -14 -18 -9t-2 20q63 128 45 177q-9 23 -32 23q-18 0 -30 -28q-4 -10 -10 -7t-5 15q7 108 72 108zM357 157q-29 47 -62 4q25 -28 62 -4z" />
<glyph unicode="&#x6cb;" horiz-adv-x="400" arabic-form="isolated" d="M169 194q17 48 37.5 72.5t44.5 23.5q29 0 54 -40q23 -37 31 -89q8 -50 -15 -139t-88 -163q-66 -75 -105 -79q-40 -4 -106 6q-58 9 -95 24q-11 5 -10 12q2 8 13 6q78 -11 149 6q44 11 122 80q81 72 95 117q-5 42 -12 46q-38 -59 -97 -29t-18 146zM230 520q2 3 8 2 q42 -14 71 -41q4 -4 1 -9l-48 -76q-2 -3 -9 2q-2 1 -7.5 4.5t-18.5 11.5t-24 15l-35 -56q-3 -4 -10 2q-11 9 -70 44q-4 3 -1 6l49 72q2 3 8 2q33 -12 53 -27zM161 624q2 3 8 2q42 -14 71 -41q5 -5 2 -9l-48 -76q-3 -4 -10 2q-11 9 -70 44q-5 3 -2 6zM260 157q-29 47 -62 4 q25 -28 62 -4z" />
<glyph unicode="&#x6cb;" horiz-adv-x="345" arabic-form="final" d="M325 -11q-31 -179 -189 -249q-44 -20 -75 -21q-36 -2 -128 61q-11 8 -7 15t14 2q83 -43 209 29q107 61 146 169q0 3 -3 5q-74 2 -107 20q-35 20 -26 78q1 11 8 31q21 62 62 85t69 -16q28 -40 33 -108q2 0 7 0.5t8 0.5q15 0 18 -23q3 -22 -3 -45t-15 -23h-19q0 -3 -2 -11z M227 458q2 3 8 2q42 -14 71 -41q4 -4 1 -9l-48 -76q-2 -3 -9 2q-2 1 -7.5 4.5t-18.5 11.5t-24 15l-35 -56q-3 -4 -10 2q-11 9 -70 44q-4 3 -1 6l49 72q2 3 8 2q33 -12 53 -27zM158 562q2 3 8 2q42 -14 71 -41q5 -5 2 -9l-48 -76q-3 -4 -10 2q-11 9 -70 44q-5 3 -2 6z M277 101q-20 42 -48 41q-17 -3 -27 -16q-5 -6 2 -14q16 -21 69 -19q6 0 4 8z" />
<glyph unicode="&#x6c5;" horiz-adv-x="400" arabic-form="isolated" d="M169 194q17 48 37.5 72.5t44.5 23.5q29 0 54 -40q23 -37 31 -89q8 -50 -15 -139q-1 -4 -3 -11t-3 -11h78q11 0 5 -10l-13 -23q-6 -9 -20 -9h-67q-25 -55 -65 -99q-66 -75 -105 -79q-40 -4 -106 6q-58 9 -95 24q-11 5 -10 12q2 8 13 6q78 -11 149 6q44 11 122 80 q29 26 46 44h-76q-11 0 -5 10l13 22q7 10 20 10h82q11 17 15 31q-5 42 -12 46q-38 -59 -97 -29t-18 146zM260 157q-29 47 -62 4q25 -28 62 -4z" />
<glyph unicode="&#x6c5;" horiz-adv-x="345" arabic-form="final" d="M325 -11q-8 -42 -19 -72h63q11 0 5 -10l-13 -23q-6 -9 -20 -9h-55q-50 -90 -150 -135q-44 -20 -75 -21q-36 -2 -128 61q-11 8 -7 15t14 2q83 -43 209 29q37 21 67 49h-69q-11 0 -5 10l13 22q7 10 20 10h79q27 37 41 78q0 3 -3 5q-74 2 -107 20q-35 20 -26 78q1 11 8 31 q21 62 62 85t69 -16q28 -40 33 -108q2 0 7 0.5t8 0.5q15 0 18 -23q3 -22 -3 -45t-15 -23h-19q0 -3 -2 -11zM277 101q-20 42 -48 41q-17 -3 -27 -16q-5 -6 2 -14q16 -21 69 -19q6 0 4 8z" />
<glyph unicode="&#x6c9;" horiz-adv-x="400" arabic-form="isolated" d="M169 194q17 48 37.5 72.5t44.5 23.5q29 0 54 -40q23 -37 31 -89q8 -50 -15 -139t-88 -163q-66 -75 -105 -79q-40 -4 -106 6q-58 9 -95 24q-11 5 -10 12q2 8 13 6q78 -11 149 6q44 11 122 80q81 72 95 117q-5 42 -12 46q-38 -59 -97 -29t-18 146zM319 405q-3 -5 -7 -5 q-4 -2 -11 5q-49 49 -77 119q-26 -57 -40 -105q-5 -18 -17 -15q-9 1 -11 11q0 1 2 11q25 86 73 160q3 6 7 6q3 0 4 -1l10 -6q25 -59 81 -133q4 -4 4 -8q0 -6 -2 -10zM260 157q-29 47 -62 4q25 -28 62 -4z" />
<glyph unicode="&#x6c9;" horiz-adv-x="345" arabic-form="final" d="M325 -11q-31 -179 -189 -249q-44 -20 -75 -21q-36 -2 -128 61q-11 8 -7 15t14 2q83 -43 209 29q107 61 146 169q0 3 -3 5q-74 2 -107 20q-35 20 -26 78q1 11 8 31q21 62 62 85t69 -16q28 -40 33 -108q2 0 7 0.5t8 0.5q15 0 18 -23q3 -22 -3 -45t-15 -23h-19q0 -3 -2 -11z M316 342q-3 -5 -7 -5q-5 -1 -11 5q-49 49 -77 119q-27 -57 -40 -105q-5 -18 -17 -15q-9 1 -11 11q0 1 2 11q25 86 73 160q3 6 7 6q3 0 4 -1l10 -6q25 -59 81 -133q4 -4 4 -8q0 -6 -2 -10zM277 101q-20 42 -48 41q-17 -3 -27 -16q-5 -6 2 -14q16 -21 69 -19q6 0 4 8z" />
<glyph unicode="&#x6d0;" horiz-adv-x="764" arabic-form="isolated" d="M671 288q-61 32 -152 -19q-60 -35 -83 -100q-4 -12 2 -26q21 -48 128 -54q108 -6 112 -45q10 -77 -45 -122q-144 -116 -327 -123q-219 -9 -242 162q-10 78 38 184q26 55 63 101q10 12 16 2q5 -9 -1 -18q-99 -139 -64 -226q45 -113 200 -110q190 3 308 97q10 7 1 14 q-17 14 -113 20q-98 6 -113 50q-16 45 2 99q36 108 141 183q51 38 91 41q91 6 64 -93q-8 -28 -26 -17zM339 -288q2 4 9 2q38 -13 70 -42q5 -5 2 -9l-32 -50q26 -12 50 -34q4 -4 1 -8l-47 -76q-3 -5 -10 1q-11 9 -70 44q-5 3 -2 6l36 54q-18 10 -54 33q-4 3 -1 6z" />
<glyph unicode="&#x6d0;" horiz-adv-x="585" arabic-form="final" d="M64 -116q3 49 26 110q24 63 44 90q8 9 16 5q10 -5 2 -17q-79 -144 -41 -218q54 -108 203 -100q173 8 301 115q10 15 -18 22t-89 12t-66 8q-49 27 -13 83q42 64 157 96q31 9 25 -32q-8 -58 -25 -58q-97 0 -98 -26q122 -4 162 -35q16 -13 20 -30q5 -18 -10 -55 q-15 -38 -28 -51q-127 -134 -324 -143q-122 -6 -194 60q-57 53 -50 164zM350 -428q2 4 9 2q38 -13 70 -42q5 -5 2 -9l-32 -50q26 -12 50 -34q4 -4 1 -8l-47 -76q-3 -5 -10 1q-11 9 -70 44q-5 3 -2 6l36 54q-18 10 -54 33q-4 3 -1 6z" />
<glyph unicode="&#x6d0;" horiz-adv-x="190" arabic-form="initial" d="M60 211l28 62q8 18 18 1q40 -75 15 -176q-24 -98 -121 -98q-10 0 -21 51q-5 25 5 35q5 4 16 4q59 -3 89 32q2 2 0 7q-6 28 -27 58q-8 11 -2 24zM67 -112q2 4 9 2q38 -13 70 -42q5 -5 2 -9l-32 -50q26 -12 50 -34q4 -4 1 -8l-47 -76q-3 -5 -10 1q-11 9 -70 44q-5 3 -2 6 l36 54q-18 10 -54 33q-4 3 -1 6z" />
<glyph unicode="&#x6d0;" horiz-adv-x="244" arabic-form="medial" d="M244 90q18 -5 19 -11q2 -8 0 -24q-7 -55 -19 -55q-54 0 -108 61q-46 -55 -136 -61q-10 0 -13 15l-8 42q-3 9 4 21q6 10 17 12q110 9 148 66q5 8 14 8t9 -9q0 -8 2 -12q33 -45 71 -53zM111 -112q2 4 9 2q38 -13 70 -42q5 -5 2 -9l-32 -50q26 -12 50 -34q4 -4 1 -8l-47 -76 q-3 -5 -10 1q-11 9 -70 44q-5 3 -2 6l36 54q-18 10 -54 33q-4 3 -1 6z" />
<glyph unicode="&#x649;" horiz-adv-x="190" arabic-form="initial" d="M60 211l28 62q8 18 18 1q40 -75 15 -176q-24 -98 -121 -98q-10 0 -21 51q-5 25 5 35q5 4 16 4q59 -3 89 32q2 2 0 7q-6 28 -27 58q-8 11 -2 24z" />
<glyph unicode="&#x649;" horiz-adv-x="244" arabic-form="medial" d="M244 90q18 -5 19 -11q2 -8 0 -24q-7 -55 -19 -55q-54 0 -108 61q-46 -55 -136 -61q-10 0 -13 15l-8 42q-3 9 4 21q6 10 17 12q110 9 148 66q5 8 14 8t9 -9q0 -8 2 -12q33 -45 71 -53z" />
<glyph unicode="&#xfbea;" horiz-adv-x="419" arabic-form="isolated" d="M77 720q5 7 7 6q5 0 8 -21q18 -155 24 -265q12 -235 13 -252q7 -92 100 -98q59 -3 89 32q2 2 0 7q-6 28 -27 58q-8 11 -2 24l28 62q8 18 18 1q40 -75 15 -176q-24 -98 -121 -98q-131 0 -140 122q-8 113 -11 206q-3 104 -12 168t-24 147q-3 15 3 25zM388 407 q-62 -12 -77 -17q-18 -6 -84 -35q-13 -6 -19 4q-12 18 39 49q-37 18 -42 42q-8 42 34 99t89 53q30 -3 27 -34t-18 -52q-14 -20 -24 -5q-11 18 -30 19q-20 2 -31 -12q-12 -15 1 -26q33 -31 98 -33q7 0 30 5t29 5q8 0 12 -7q3 -6 1 -11q-20 -41 -35 -44z" />
<glyph unicode="&#xfbeb;" horiz-adv-x="473" arabic-form="final" d="M77 720q5 7 7 6q5 0 8 -21q18 -155 24 -265q12 -235 13 -252q7 -92 100 -98q110 9 148 66q5 8 14 8t9 -9q0 -8 2 -12q33 -45 71 -53q18 -5 19 -11q2 -8 0 -24q-7 -55 -19 -55q-54 0 -108 61q-46 -55 -135 -61h-1q-131 0 -140 122q-8 113 -11 206q-3 104 -12 168t-24 147 q-3 15 3 25zM425 377q-62 -12 -77 -17q-18 -6 -84 -35q-13 -6 -19 4q-12 18 39 49q-38 18 -42 42q-8 42 34 99t89 53q30 -3 27 -34t-18 -52q-14 -20 -24 -5q-11 18 -30 19q-20 2 -31 -12q-12 -15 1 -26q33 -31 98 -33q7 0 30 5t29 5q9 0 12 -7q3 -6 1 -11q-20 -41 -35 -44z " />
<glyph unicode="&#xfbec;" horiz-adv-x="569" arabic-form="isolated" d="M256 439q13 18 16 -8q0 -5 2 -20t6 -43t7 -55q14 -112 14 -117q8 -81 34 -97q13 -9 38 -9h6h3q54 -3 86 32q2 2 0 7q-6 28 -27 58q-8 11 -2 24l28 62q8 18 18 1q40 -75 15 -176q-24 -98 -121 -98q-56 -4 -83 28q-28 34 -38 119q-28 -53 -58 -65q-22 -8 -61 -1 q-42 8 -59 22q-19 16 -16 35q3 22 19 54q17 34 26 43q53 51 126 90q-3 41 -3 61t9 32zM538 407q-62 -12 -77 -17q-18 -6 -84 -35q-13 -6 -19 4q-12 18 39 49q-37 18 -42 42q-8 42 34 99t89 53q30 -3 27 -34t-18 -52q-14 -20 -24 -5q-11 18 -30 19q-20 2 -31 -12 q-12 -15 1 -26q33 -31 98 -33q7 0 30 5t29 5q8 0 12 -7q3 -6 1 -11q-20 -41 -35 -44zM242 264q-78 -22 -112 -67q-4 -6 3 -10q43 -21 108 -6q5 1 11 7q-4 37 -10 76z" />
<glyph unicode="&#xfbed;" horiz-adv-x="623" arabic-form="final" d="M256 439q13 18 16 -8q0 -5 2 -20t6 -43t7 -55q14 -112 14 -117q8 -81 34 -97q15 -11 44 -9q110 9 148 66q5 8 14 8t9 -9q0 -8 2 -12q33 -45 71 -53q18 -5 19 -11q2 -8 0 -24q-7 -55 -19 -55q-54 0 -108 61q-46 -55 -136 -61q-56 -4 -83 28q-28 34 -38 119 q-28 -53 -58 -65q-22 -8 -61 -1q-42 8 -59 22q-19 16 -16 35q3 22 19 54q17 34 26 43q53 51 126 90q-3 41 -3 61t9 32zM575 377q-62 -12 -77 -17q-18 -6 -84 -35q-13 -6 -19 4q-12 18 39 49q-38 18 -42 42q-8 42 34 99t89 53q30 -3 27 -34t-18 -52q-14 -20 -24 -5 q-11 18 -30 19q-20 2 -31 -12q-12 -15 1 -26q33 -31 98 -33q7 0 30 5t29 5q9 0 12 -7q3 -6 1 -11q-20 -41 -35 -44zM242 264q-78 -22 -112 -67q-4 -6 3 -10q43 -21 108 -6q5 1 11 7q-4 37 -10 76z" />
<glyph unicode="&#xfbee;" horiz-adv-x="536" arabic-form="isolated" d="M325 -11q-31 -179 -189 -249q-44 -20 -75 -21q-36 -2 -128 61q-11 8 -7 15t14 2q83 -43 209 29q107 61 146 169q0 3 -3 5q-74 2 -107 20q-35 20 -26 78q1 11 8 31q21 62 62 85t69 -16q28 -40 33 -108q2 0 7 0.5t8 0.5q5 0 6 -1q54 -2 83 32q2 2 0 7q-6 28 -27 58 q-8 11 -2 24l28 62q8 18 18 1q40 -75 15 -176q-24 -98 -121 -98h-19q0 -3 -2 -11zM505 407q-62 -12 -77 -17q-18 -6 -84 -35q-13 -6 -19 4q-12 18 39 49q-38 18 -42 42q-8 42 34 99t89 53q30 -3 27 -34t-18 -52q-14 -20 -24 -5q-11 18 -30 19q-20 2 -31 -12q-12 -15 1 -26 q33 -31 98 -33q7 0 30 5t29 5q9 0 12 -7q3 -6 1 -11q-20 -41 -35 -44zM277 101q-20 42 -48 41q-17 -3 -27 -16q-5 -6 2 -14q16 -21 69 -19q6 0 4 8z" />
<glyph unicode="&#xfbef;" horiz-adv-x="589" arabic-form="final" d="M325 -11q-31 -179 -189 -249q-44 -20 -75 -21q-36 -2 -128 61q-11 8 -7 15t14 2q83 -43 209 29q107 61 146 169q0 3 -3 5q-74 2 -107 20q-35 20 -26 78q1 11 8 31q21 62 62 85t69 -16q28 -40 33 -108q2 0 7 0.5t8 0.5t5 -1q107 11 143 66q5 8 14 8t9 -9q0 -8 2 -12 q33 -45 71 -53q18 -5 19 -11q2 -8 0 -24q-7 -55 -19 -55q-54 0 -108 61q-46 -55 -135 -61h-20q0 -3 -2 -11zM542 377q-62 -12 -77 -17q-18 -6 -84 -35q-13 -6 -19 4q-12 18 39 49q-37 18 -42 42q-8 42 34 99t89 53q30 -3 27 -34t-18 -52q-14 -20 -24 -5q-11 18 -30 19 q-20 2 -31 -12q-12 -15 1 -26q33 -31 98 -33q7 0 30 5t29 5q8 0 12 -7q3 -6 1 -11q-20 -41 -35 -44zM277 101q-20 42 -48 41q-17 -3 -27 -16q-5 -6 2 -14q16 -21 69 -19q6 0 4 8z" />
<glyph unicode="&#xfbf0;" horiz-adv-x="536" arabic-form="isolated" d="M325 -11q-31 -179 -189 -249q-44 -20 -75 -21q-36 -2 -128 61q-11 8 -7 15t14 2q83 -43 209 29q107 61 146 169q0 3 -3 5q-74 2 -107 20q-35 20 -26 78q1 11 8 31q21 62 62 85t69 -16q28 -40 33 -108q2 0 7 0.5t8 0.5q5 0 6 -1q54 -2 83 32q2 2 0 7q-6 28 -27 58 q-8 11 -2 24l28 62q8 18 18 1q40 -75 15 -176q-24 -98 -121 -98h-19q0 -3 -2 -11zM505 407q-62 -12 -77 -17q-18 -6 -84 -35q-13 -6 -19 4q-12 18 39 49q-38 18 -42 42q-8 42 34 99t89 53q30 -3 27 -34t-18 -52q-14 -20 -24 -5q-11 18 -30 19q-20 2 -31 -12q-12 -15 1 -26 q33 -31 98 -33q7 0 30 5t29 5q9 0 12 -7q3 -6 1 -11q-20 -41 -35 -44zM230 591q57 0 57 -96q0 -76 -77 -203q-9 -14 -18 -9t-2 20q63 127 45 177q-9 23 -32 23q-18 0 -30 -28q-4 -10 -10 -7t-5 15q8 108 72 108zM277 101q-20 42 -48 41q-17 -3 -27 -16q-5 -6 2 -14 q16 -21 69 -19q6 0 4 8z" />
<glyph unicode="&#xfbf1;" horiz-adv-x="589" arabic-form="final" d="M325 -11q-31 -179 -189 -249q-44 -20 -75 -21q-36 -2 -128 61q-11 8 -7 15t14 2q83 -43 209 29q107 61 146 169q0 3 -3 5q-74 2 -107 20q-35 20 -26 78q1 11 8 31q21 62 62 85t69 -16q28 -40 33 -108q2 0 7 0.5t8 0.5t5 -1q107 11 143 66q5 8 14 8t9 -9q0 -8 2 -12 q33 -45 71 -53q18 -5 19 -11q2 -8 0 -24q-7 -55 -19 -55q-54 0 -108 61q-46 -55 -135 -61h-20q0 -3 -2 -11zM542 377q-62 -12 -77 -17q-18 -6 -84 -35q-13 -6 -19 4q-12 18 39 49q-37 18 -42 42q-8 42 34 99t89 53q30 -3 27 -34t-18 -52q-14 -20 -24 -5q-11 18 -30 19 q-20 2 -31 -12q-12 -15 1 -26q33 -31 98 -33q7 0 30 5t29 5q8 0 12 -7q3 -6 1 -11q-20 -41 -35 -44zM230 591q57 0 57 -96q0 -76 -77 -203q-9 -14 -18 -9t-2 20q63 127 45 177q-9 23 -32 23q-18 0 -30 -28q-4 -10 -10 -7t-5 15q8 108 72 108zM277 101q-20 42 -48 41 q-17 -3 -27 -16q-5 -6 2 -14q16 -21 69 -19q6 0 4 8z" />
<glyph unicode="&#xfbf2;" horiz-adv-x="536" arabic-form="isolated" d="M325 -11q-31 -179 -189 -249q-44 -20 -75 -21q-36 -2 -128 61q-11 8 -7 15t14 2q83 -43 209 29q107 61 146 169q0 3 -3 5q-74 2 -107 20q-35 20 -26 78q1 11 8 31q21 62 62 85t69 -16q28 -40 33 -108q2 0 7 0.5t8 0.5q5 0 6 -1q54 -2 83 32q2 2 0 7q-6 28 -27 58 q-8 11 -2 24l28 62q8 18 18 1q40 -75 15 -176q-24 -98 -121 -98h-19q0 -3 -2 -11zM308 522l19 -27q7 24 29 54q42 57 89 53q30 -3 27 -34t-18 -52q-14 -20 -24 -5q-11 18 -30 19q-20 2 -31 -12q-12 -15 1 -26q33 -31 98 -33q7 0 30 5t29 5q9 0 12 -7q3 -6 1 -11 q-20 -41 -35 -44q-62 -12 -77 -17q-18 -6 -84 -35q-13 -6 -19 4q-12 18 39 49q-38 18 -42 42q-1 5 -1 16q-45 -75 -60 -130l-9 -7q-1 -1 -5 -1q-3 0 -8 5q-58 72 -89 150q-3 7 -3 12q0 9 9 12q13 5 19 -13q12 -33 52 -101q22 78 63 127q6 7 11 7q4 0 7 -5zM277 101 q-20 42 -48 41q-17 -3 -27 -16q-5 -6 2 -14q16 -21 69 -19q6 0 4 8z" />
<glyph unicode="&#xfbf3;" horiz-adv-x="589" arabic-form="final" d="M325 -11q-31 -179 -189 -249q-44 -20 -75 -21q-36 -2 -128 61q-11 8 -7 15t14 2q83 -43 209 29q107 61 146 169q0 3 -3 5q-74 2 -107 20q-35 20 -26 78q1 11 8 31q21 62 62 85t69 -16q28 -40 33 -108q2 0 7 0.5t8 0.5t5 -1q107 11 143 66q5 8 14 8t9 -9q0 -8 2 -12 q33 -45 71 -53q18 -5 19 -11q2 -8 0 -24q-7 -55 -19 -55q-54 0 -108 61q-46 -55 -135 -61h-20q0 -3 -2 -11zM542 377q-62 -12 -77 -17q-18 -6 -84 -35q-13 -6 -19 4q-12 18 39 49q-37 18 -42 42q-8 42 34 99t89 53q30 -3 27 -34t-18 -52q-14 -20 -24 -5q-11 18 -30 19 q-20 2 -31 -12q-12 -15 1 -26q33 -31 98 -33q7 0 30 5t29 5q8 0 12 -7q3 -6 1 -11q-20 -41 -35 -44zM308 522l19 -27q3 -6 3 -9q0 -6 -3 -10q-49 -81 -66 -140l-9 -7q-1 -1 -5 -1q-3 0 -8 5q-58 72 -89 150q-3 7 -3 12q0 9 9 12q13 5 19 -13q12 -33 52 -101q22 78 63 127 q6 7 11 7q4 0 7 -5zM277 101q-20 42 -48 41q-17 -3 -27 -16q-5 -6 2 -14q16 -21 69 -19q6 0 4 8z" />
<glyph unicode="&#xfbf4;" horiz-adv-x="536" arabic-form="isolated" d="M325 -11q-31 -179 -189 -249q-44 -20 -75 -21q-36 -2 -128 61q-11 8 -7 15t14 2q83 -43 209 29q107 61 146 169q0 3 -3 5q-74 2 -107 20q-35 20 -26 78q1 11 8 31q21 62 62 85t69 -16q28 -40 33 -108q2 0 7 0.5t8 0.5q5 0 6 -1q54 -2 83 32q2 2 0 7q-6 28 -27 58 q-8 11 -2 24l28 62q8 18 18 1q40 -75 15 -176q-24 -98 -121 -98h-19q0 -3 -2 -11zM505 407q-62 -12 -77 -17q-18 -6 -84 -35q-13 -6 -19 4q-12 18 39 49q-38 18 -42 42q-8 42 34 99t89 53q30 -3 27 -34t-18 -52q-14 -20 -24 -5q-11 18 -30 19q-20 2 -31 -12q-12 -15 1 -26 q33 -31 98 -33q7 0 30 5t29 5q9 0 12 -7q3 -6 1 -11q-20 -41 -35 -44zM162 571q5 15 18 -1q95 -106 65 -268q-1 -9 -10 -11q-4 -1 -6.5 2t-3.5 9q-14 105 -77 183q-8 9 -5 22zM277 101q-20 42 -48 41q-17 -3 -27 -16q-5 -6 2 -14q16 -21 69 -19q6 0 4 8z" />
<glyph unicode="&#xfbf5;" horiz-adv-x="589" arabic-form="final" d="M325 -11q-31 -179 -189 -249q-44 -20 -75 -21q-36 -2 -128 61q-11 8 -7 15t14 2q83 -43 209 29q107 61 146 169q0 3 -3 5q-74 2 -107 20q-35 20 -26 78q1 11 8 31q21 62 62 85t69 -16q28 -40 33 -108q2 0 7 0.5t8 0.5t5 -1q107 11 143 66q5 8 14 8t9 -9q0 -8 2 -12 q33 -45 71 -53q18 -5 19 -11q2 -8 0 -24q-7 -55 -19 -55q-54 0 -108 61q-46 -55 -135 -61h-20q0 -3 -2 -11zM542 377q-62 -12 -77 -17q-18 -6 -84 -35q-13 -6 -19 4q-12 18 39 49q-37 18 -42 42q-8 42 34 99t89 53q30 -3 27 -34t-18 -52q-14 -20 -24 -5q-11 18 -30 19 q-20 2 -31 -12q-12 -15 1 -26q33 -31 98 -33q7 0 30 5t29 5q8 0 12 -7q3 -6 1 -11q-20 -41 -35 -44zM162 571q5 15 18 -1q95 -106 65 -268q-1 -9 -10 -11q-4 -1 -6.5 2t-3.5 9q-14 105 -77 183q-8 9 -5 22zM277 101q-20 42 -48 41q-17 -3 -27 -16q-5 -6 2 -14q16 -21 69 -19 q6 0 4 8z" />
<glyph unicode="&#xfbf6;" horiz-adv-x="734" arabic-form="isolated" d="M451 130h1v1q2 2 24 6q80 17 126 69q3 53 -23 95q-28 44 -58 69q-8 7 -4 22l25 76q6 19 17 8q22 -21 43 -67q23 -52 30 -94q8 -48 -6 -98q-14 -51 -43 -83l-5 -5q62 -9 87 -33q15 -14 11 -45q-9 -66 -26 -88q-18 -24 -54 -51q-175 -132 -349 -127q-75 3 -124 43t-61 102 t10 146q22 83 68 143q9 10 15 3q7 -8 1 -18q-62 -93 -57 -165q9 -159 182 -159q174 0 346 148q3 3 -1 7q-29 30 -163 33q-33 -3 -35 -3q-9 0 -4 9l23 47zM610 651q-62 -12 -77 -17q-18 -6 -84 -35q-13 -6 -19 4q-12 18 39 49q-37 18 -42 42q-8 42 34 99t89 53q30 -3 27 -34 t-18 -52q-14 -20 -24 -5q-11 18 -30 19q-20 2 -31 -12q-12 -15 1 -26q33 -31 98 -33q7 0 30 5t29 5q8 0 12 -7q3 -6 1 -11q-20 -41 -35 -44zM339 -302q2 4 9 2q38 -13 70 -42q5 -5 2 -9l-32 -50q26 -12 50 -34q4 -4 1 -8l-47 -76q-3 -5 -10 1q-11 9 -70 44q-5 3 -2 6l36 54 q-18 10 -54 33q-4 3 -1 6z" />
<glyph unicode="&#xfbf7;" horiz-adv-x="729" arabic-form="final" d="M436 -95q-39 10 -42 38v5q-3 39 32 97q36 59 89 101q53 43 90 44q23 1 51 -46q27 -46 74 -54q30 -6 23 -34q-14 -58 -23 -56q-27 1 -54 14q-26 12 -52 50t-49 40q-22 1 -73 -27q-41 -23 -53 -41q-1 -1 -1 -3t-1 -3q-9 -27 25 -47q32 -19 79 -25q101 -12 125 -21t34 -32 q9 -21 6 -49q-3 -24 -16 -44q-25 -35 -126 -83t-225 -61q-217 -24 -274 123q-19 52 -3 140q16 87 74 178q4 6 11 6t10 -6q2 -5 -11 -29q-59 -105 -49 -179q14 -96 133 -134q43 -12 96 -8q160 13 326 97h1l1 1q0 3 -5 8q-6 6 -86 15q-81 9 -137 25zM594 407q-62 -12 -77 -17 q-18 -6 -84 -35q-13 -6 -19 4q-12 18 39 49q-37 18 -42 42q-8 42 34 99t89 53q30 -3 27 -34t-18 -52q-14 -20 -24 -5q-11 18 -30 19q-20 2 -31 -12q-12 -15 1 -26q33 -31 98 -33q7 0 30 5t29 5q8 0 12 -7q3 -6 1 -11q-20 -41 -35 -44zM352 -425q2 4 9 2q38 -13 70 -42 q5 -5 2 -9l-32 -50q26 -12 50 -34q4 -4 1 -8l-47 -76q-3 -5 -10 1q-11 9 -70 44q-5 3 -2 6l36 54l-54 33q-4 3 -1 6z" />
<glyph unicode="&#xfbf8;" horiz-adv-x="471" arabic-form="initial" d="M165 138q2 0 4 -2q75 -57 150 -55q3 0 3 4q0 5 -15 23q-3 5 -2 10l24 69q1 6 6 6q4 0 6 -5q18 -45 12 -89q-8 -60 -30 -79q-16 -15 -27 -16q-61 -10 -143 42q-1 0 -5 2q-1 0 -4.5 2.5t-11 8.5t-14.5 11q-61 -69 -118 -70q-21 0 -27 44q-6 43 27 47q88 10 125 59 q10 13 26 1l5 -5q5 -4 9 -8zM374 419q-62 -12 -77 -17q-18 -6 -84 -35q-13 -6 -19 4q-12 18 39 49q-37 18 -42 42q-8 42 34 99t89 53q30 -3 27 -34t-18 -52q-14 -20 -24 -5q-11 18 -30 19q-20 2 -31 -12q-12 -15 1 -26q33 -31 98 -33q7 0 30 5t29 5q8 0 12 -7q3 -6 1 -11 q-20 -41 -35 -44zM33 -88q2 4 9 2q38 -13 70 -42q5 -5 2 -9l-32 -50q26 -12 50 -34q4 -4 1 -8l-47 -76q-3 -5 -10 1q-11 9 -70 44q-5 3 -2 6l36 54q-18 10 -54 33q-4 3 -1 6z" />
<glyph unicode="&#xfbf9;" horiz-adv-x="734" arabic-form="isolated" d="M451 130h1v1q2 2 24 6q80 17 126 69q3 53 -23 95q-28 44 -58 69q-8 7 -4 22l25 76q6 19 17 8q22 -21 43 -67q23 -52 30 -94q8 -48 -6 -98q-14 -51 -43 -83l-5 -5q62 -9 87 -33q15 -14 11 -45q-9 -66 -26 -88q-18 -24 -54 -51q-175 -132 -349 -127q-75 3 -124 43t-61 102 t10 146q22 83 68 143q9 10 15 3q7 -8 1 -18q-62 -93 -57 -165q9 -159 182 -159q174 0 346 148q3 3 -1 7q-29 30 -163 33q-33 -3 -35 -3q-9 0 -4 9l23 47zM610 651q-62 -12 -77 -17q-18 -6 -84 -35q-13 -6 -19 4q-12 18 39 49q-37 18 -42 42q-8 42 34 99t89 53q30 -3 27 -34 t-18 -52q-14 -20 -24 -5q-11 18 -30 19q-20 2 -31 -12q-12 -15 1 -26q33 -31 98 -33q7 0 30 5t29 5q8 0 12 -7q3 -6 1 -11q-20 -41 -35 -44z" />
<glyph unicode="&#xfbfa;" horiz-adv-x="729" arabic-form="final" d="M436 -95q-39 10 -42 38v5q-3 39 32 97q36 59 89 101q53 43 90 44q23 1 51 -46q27 -46 74 -54q30 -6 23 -34q-14 -58 -23 -56q-27 1 -54 14q-26 12 -52 50t-49 40q-22 1 -73 -27q-41 -23 -53 -41q-1 -1 -1 -3t-1 -3q-9 -27 25 -47q32 -19 79 -25q101 -12 125 -21t34 -32 q9 -21 6 -49q-3 -24 -16 -44q-25 -35 -126 -83t-225 -61q-217 -24 -274 123q-19 52 -3 140q16 87 74 178q4 6 11 6t10 -6q2 -5 -11 -29q-59 -105 -49 -179q14 -96 133 -134q43 -12 96 -8q160 13 326 97h1l1 1q0 3 -5 8q-6 6 -86 15q-81 9 -137 25zM594 407q-62 -12 -77 -17 q-18 -6 -84 -35q-13 -6 -19 4q-12 18 39 49q-37 18 -42 42q-8 42 34 99t89 53q30 -3 27 -34t-18 -52q-14 -20 -24 -5q-11 18 -30 19q-20 2 -31 -12q-12 -15 1 -26q33 -31 98 -33q7 0 30 5t29 5q8 0 12 -7q3 -6 1 -11q-20 -41 -35 -44z" />
<glyph unicode="&#xfbfb;" horiz-adv-x="471" arabic-form="initial" d="M165 138q2 0 4 -2q75 -57 150 -55q3 0 3 4q0 5 -15 23q-3 5 -2 10l24 69q1 6 6 6q4 0 6 -5q18 -45 12 -89q-8 -60 -30 -79q-16 -15 -27 -16q-61 -10 -143 42q-1 0 -5 2q-1 0 -4.5 2.5t-11 8.5t-14.5 11q-61 -69 -118 -70q-21 0 -27 44q-6 43 27 47q88 10 125 59 q10 13 26 1l5 -5q5 -4 9 -8zM374 419q-62 -12 -77 -17q-18 -6 -84 -35q-13 -6 -19 4q-12 18 39 49q-37 18 -42 42q-8 42 34 99t89 53q30 -3 27 -34t-18 -52q-14 -20 -24 -5q-11 18 -30 19q-20 2 -31 -12q-12 -15 1 -26q33 -31 98 -33q7 0 30 5t29 5q8 0 12 -7q3 -6 1 -11 q-20 -41 -35 -44z" />
<glyph unicode="&#x6cc;" horiz-adv-x="764" arabic-form="isolated" d="M671 288q-61 32 -152 -19q-60 -35 -83 -100q-4 -12 2 -26q21 -48 128 -54q108 -6 112 -45q10 -77 -45 -122q-144 -116 -327 -123q-219 -9 -242 162q-10 78 38 184q26 55 63 101q10 12 16 2q5 -9 -1 -18q-99 -139 -64 -226q45 -113 200 -110q190 3 308 97q10 7 1 14 q-17 14 -113 20q-98 6 -113 50q-16 45 2 99q36 108 141 183q51 38 91 41q91 6 64 -93q-8 -28 -26 -17z" />
<glyph unicode="&#x6cc;" horiz-adv-x="585" arabic-form="final" d="M64 -116q3 49 26 110q24 63 44 90q8 9 16 5q10 -5 2 -17q-79 -144 -41 -218q54 -108 203 -100q173 8 301 115q10 15 -18 22t-89 12t-66 8q-49 27 -13 83q42 64 157 96q31 9 25 -32q-8 -58 -25 -58q-97 0 -98 -26q122 -4 162 -35q16 -13 20 -30q5 -18 -10 -55 q-15 -38 -28 -51q-127 -134 -324 -143q-122 -6 -194 60q-57 53 -50 164z" />
<glyph unicode="&#x6cc;" horiz-adv-x="190" arabic-form="initial" d="M60 211l28 62q8 18 18 1q40 -75 15 -176q-24 -98 -121 -98q-10 0 -21 51q-5 25 5 35q5 4 16 4q59 -3 89 32q2 2 0 7q-6 28 -27 58q-8 11 -2 24zM149 -113q2 3 8 2q42 -14 71 -41q4 -4 1 -9l-48 -76q-2 -3 -9 2q-4 4 -57 35l-38 -59q-3 -5 -10 1q-11 9 -70 44q-4 3 -1 6 l49 73q2 3 8 2q30 -9 60 -33z" />
<glyph unicode="&#x6cc;" horiz-adv-x="244" arabic-form="medial" d="M244 90q18 -5 19 -11q2 -8 0 -24q-7 -55 -19 -55q-54 0 -108 61q-46 -55 -136 -61q-10 0 -13 15l-8 42q-3 9 4 21q6 10 17 12q110 9 148 66q5 8 14 8t9 -9q0 -8 2 -12q33 -45 71 -53zM168 -64q2 3 8 2q42 -14 71 -41q4 -4 1 -9l-48 -76q-2 -3 -9 2q-4 4 -57 35l-38 -59 q-3 -5 -10 1q-11 9 -70 44q-4 3 -1 6l49 73q2 3 8 2q30 -9 60 -33z" />
<glyph unicode="&#xfc00;" horiz-adv-x="647" arabic-form="isolated" d="M88 216q0 1 2 2.5t2 2.5q8 11 12 15h4q18 16 52 35q117 67 154 104q39 39 57 87q19 51 33 76q15 27 37 27q21 0 39 -27q27 -42 21 -180q0 -13 -10 -13t-12 14q-12 110 -51 110q-9 0 -19 -13q-7 -9 -28 -50q-47 -97 -176 -168q-3 -2 -9 -5q274 -13 409 6q4 1 8 -1 q2 -4 1 -8q-10 -43 -14 -52q-6 -14 -16 -15q-246 -30 -372 -155q-81 -80 -84 -177q-6 -164 134 -217q116 -44 339 -33q95 6 140 12q11 2 11 -8q0 -11 -6 -13q-112 -49 -183 -65q-68 -15 -119 -14q-202 6 -280 80q-79 75 -75 205q6 155 121 292q37 43 95 79l-242 2 q-15 3 -3 22q14 21 28 43zM505 713q-62 -12 -77 -17q-18 -6 -84 -35q-13 -6 -19 4q-12 18 39 49q-38 18 -42 42q-8 42 34 99t89 53q30 -3 27 -34t-18 -52q-14 -20 -24 -5q-11 18 -30 19q-20 2 -31 -12q-12 -15 1 -26q33 -31 98 -33q7 0 30 5t29 5q9 0 12 -7q3 -6 1 -11 q-20 -41 -35 -44zM383 -117q2 3 8 2q40 -14 71 -42q4 -4 1 -8l-47 -76q-3 -5 -10 1q-11 9 -70 44q-5 3 -2 6z" />
<glyph unicode="&#xfc01;" horiz-adv-x="647" arabic-form="isolated" d="M88 216q0 1 2 2.5t2 2.5q8 11 12 15h4q18 16 52 35q117 67 154 104q39 39 57 87q19 51 33 76q15 27 37 27q21 0 39 -27q27 -42 21 -180q0 -13 -10 -13t-12 14q-12 110 -51 110q-9 0 -19 -13q-7 -9 -28 -50q-47 -97 -176 -168q-3 -2 -9 -5q274 -13 409 6q4 1 8 -1 q2 -4 1 -8q-10 -43 -14 -52q-6 -14 -16 -15q-246 -30 -372 -155q-81 -80 -84 -177q-6 -164 134 -217q116 -44 339 -33q95 6 140 12q11 2 11 -8q0 -11 -6 -13q-112 -49 -183 -65q-68 -15 -119 -14q-202 6 -280 80q-79 75 -75 205q6 155 121 292q37 43 95 79l-242 2 q-15 3 -3 22q14 21 28 43zM505 713q-62 -12 -77 -17q-18 -6 -84 -35q-13 -6 -19 4q-12 18 39 49q-38 18 -42 42q-8 42 34 99t89 53q30 -3 27 -34t-18 -52q-14 -20 -24 -5q-11 18 -30 19q-20 2 -31 -12q-12 -15 1 -26q33 -31 98 -33q7 0 30 5t29 5q9 0 12 -7q3 -6 1 -11 q-20 -41 -35 -44z" />
<glyph unicode="&#xfc02;" horiz-adv-x="594" arabic-form="isolated" d="M119 128q20 55 30 68q0 3 2 5q18 18 78 56q149 94 228 93q36 0 63 -21t11 -54q-7 -14 -29 -44q-30 -39 -39 -7t-46 36q-64 6 -197 -70q1 0 4.5 -1.5t5.5 -2.5q67 -24 125 -68q18 -13 10 -36q-4 -14 -8.5 -25.5t-6.5 -18.5l-3 -7q-8 -18 -19 -17q-107 14 -190 -9 q-50 -13 -73 -38q-2 -8 8 -66l22 -142q14 -88 17 -121q6 -83 -11 -137q-5 -12 -14 -11q-13 1 -10 27q6 64 -40 299q-15 87 3 146q19 61 44 89t69 49l-12 4q-12 4 -18 7q-9 4 -4 17zM495 568q-62 -12 -77 -17q-18 -6 -84 -35q-13 -6 -19 4q-12 18 39 49q-38 18 -42 42 q-8 42 34 99t89 53q30 -3 27 -34t-18 -52q-14 -20 -24 -5q-11 18 -30 19q-20 2 -31 -12q-12 -15 1 -26q33 -31 98 -33q7 0 30 5t29 5q9 0 12 -7t1 -11q-20 -41 -35 -44z" />
<glyph unicode="&#xfc03;" horiz-adv-x="734" arabic-form="isolated" d="M451 130h1v1q2 2 24 6q80 17 126 69q3 53 -23 95q-28 44 -58 69q-8 7 -4 22l25 76q6 19 17 8q22 -21 43 -67q23 -52 30 -94q8 -48 -6 -98q-14 -51 -43 -83l-5 -5q62 -9 87 -33q15 -14 11 -45q-9 -66 -26 -88q-18 -24 -54 -51q-175 -132 -349 -127q-75 3 -124 43t-61 102 t10 146q22 83 68 143q9 10 15 3q7 -8 1 -18q-62 -93 -57 -165q9 -159 182 -159q174 0 346 148q3 3 -1 7q-29 30 -163 33q-33 -3 -35 -3q-9 0 -4 9l23 47zM610 651q-62 -12 -77 -17q-18 -6 -84 -35q-13 -6 -19 4q-12 18 39 49q-37 18 -42 42q-8 42 34 99t89 53q30 -3 27 -34 t-18 -52q-14 -20 -24 -5q-11 18 -30 19q-20 2 -31 -12q-12 -15 1 -26q33 -31 98 -33q7 0 30 5t29 5q8 0 12 -7q3 -6 1 -11q-20 -41 -35 -44z" />
<glyph unicode="&#xfc04;" horiz-adv-x="734" arabic-form="isolated" d="M451 130h1v1q2 2 24 6q80 17 126 69q3 53 -23 95q-28 44 -58 69q-8 7 -4 22l25 76q6 19 17 8q22 -21 43 -67q23 -52 30 -94q8 -48 -6 -98q-14 -51 -43 -83l-5 -5q62 -9 87 -33q15 -14 11 -45q-9 -66 -26 -88q-18 -24 -54 -51q-175 -132 -349 -127q-75 3 -124 43t-61 102 t10 146q22 83 68 143q9 10 15 3q7 -8 1 -18q-62 -93 -57 -165q9 -159 182 -159q174 0 346 148q3 3 -1 7q-29 30 -163 33q-33 -3 -35 -3q-9 0 -4 9l23 47zM610 651q-62 -12 -77 -17q-18 -6 -84 -35q-13 -6 -19 4q-12 18 39 49q-37 18 -42 42q-8 42 34 99t89 53q30 -3 27 -34 t-18 -52q-14 -20 -24 -5q-11 18 -30 19q-20 2 -31 -12q-12 -15 1 -26q33 -31 98 -33q7 0 30 5t29 5q8 0 12 -7q3 -6 1 -11q-20 -41 -35 -44zM391 -303q2 3 8 2q42 -14 71 -41q4 -4 1 -9l-48 -76q-2 -3 -9 2q-4 4 -57 35l-38 -59q-3 -5 -10 1q-11 9 -70 44q-4 3 -1 6l49 73 q2 3 8 2q30 -9 60 -33z" />
<glyph unicode="&#xfc05;" horiz-adv-x="647" arabic-form="isolated" d="M88 216q0 1 2 2.5t2 2.5q8 11 12 15h4q18 16 52 35q117 67 154 104q39 39 57 87q19 51 33 76q15 27 37 27q21 0 39 -27q27 -42 21 -180q0 -13 -10 -13t-12 14q-12 110 -51 110q-9 0 -19 -13q-7 -9 -28 -50q-47 -97 -176 -168q-3 -2 -9 -5q274 -13 409 6q4 1 8 -1 q2 -4 1 -8q-10 -43 -14 -52q-6 -14 -16 -15q-246 -30 -372 -155q-81 -80 -84 -177q-6 -164 134 -217q116 -44 339 -33q95 6 140 12q11 2 11 -8q0 -11 -6 -13q-112 -49 -183 -65q-68 -15 -119 -14q-202 6 -280 80q-79 75 -75 205q6 155 121 292q37 43 95 79l-242 2 q-15 3 -3 22q14 21 28 43zM383 -117q2 3 8 2q40 -14 71 -42q4 -4 1 -8l-47 -76q-3 -5 -10 1q-11 9 -70 44q-5 3 -2 6zM549 67q2 3 8 2q40 -14 71 -42q4 -4 1 -8l-47 -76q-3 -5 -10 1q-11 9 -70 44q-5 3 -2 6z" />
<glyph unicode="&#xfc06;" horiz-adv-x="647" arabic-form="isolated" d="M88 216q0 1 2 2.5t2 2.5q8 11 12 15h4q18 16 52 35q117 67 154 104q39 39 57 87q19 51 33 76q15 27 37 27q21 0 39 -27q27 -42 21 -180q0 -13 -10 -13t-12 14q-12 110 -51 110q-9 0 -19 -13q-7 -9 -28 -50q-47 -97 -176 -168q-3 -2 -9 -5q274 -13 409 6q4 1 8 -1 q2 -4 1 -8q-10 -43 -14 -52q-6 -14 -16 -15q-246 -30 -372 -155q-81 -80 -84 -177q-6 -164 134 -217q116 -44 339 -33q95 6 140 12q11 2 11 -8q0 -11 -6 -13q-112 -49 -183 -65q-68 -15 -119 -14q-202 6 -280 80q-79 75 -75 205q6 155 121 292q37 43 95 79l-242 2 q-15 3 -3 22q14 21 28 43zM549 67q2 3 8 2q40 -14 71 -42q4 -4 1 -8l-47 -76q-3 -5 -10 1q-11 9 -70 44q-5 3 -2 6z" />
<glyph unicode="&#xfc07;" horiz-adv-x="647" arabic-form="isolated" d="M88 216q0 1 2 2.5t2 2.5q8 11 12 15h4q18 16 52 35q117 67 154 104q39 39 57 87q19 51 33 76q15 27 37 27q21 0 39 -27q27 -42 21 -180q0 -13 -10 -13t-12 14q-12 110 -51 110q-9 0 -19 -13q-7 -9 -28 -50q-47 -97 -176 -168q-3 -2 -9 -5q274 -13 409 6q4 1 8 -1 q2 -4 1 -8q-10 -43 -14 -52q-6 -14 -16 -15q-246 -30 -372 -155q-81 -80 -84 -177q-6 -164 134 -217q116 -44 339 -33q95 6 140 12q11 2 11 -8q0 -11 -6 -13q-112 -49 -183 -65q-68 -15 -119 -14q-202 6 -280 80q-79 75 -75 205q6 155 121 292q37 43 95 79l-242 2 q-15 3 -3 22q14 21 28 43zM144 601q2 3 8 2q40 -14 71 -42q4 -4 1 -8l-47 -76q-3 -5 -10 1q-11 9 -70 44q-5 3 -2 6zM549 67q2 3 8 2q40 -14 71 -42q4 -4 1 -8l-47 -76q-3 -5 -10 1q-11 9 -70 44q-5 3 -2 6z" />
<glyph unicode="&#xfc08;" horiz-adv-x="594" arabic-form="isolated" d="M119 128q20 55 30 68q0 3 2 5q18 18 78 56q149 94 228 93q36 0 63 -21t11 -54q-7 -14 -29 -44q-30 -39 -39 -7t-46 36q-64 6 -197 -70q1 0 4.5 -1.5t5.5 -2.5q67 -24 125 -68q18 -13 10 -36q-4 -14 -8.5 -25.5t-6.5 -18.5l-3 -7q-8 -18 -19 -17q-107 14 -190 -9 q-50 -13 -73 -38q-2 -8 8 -66l22 -142q14 -88 17 -121q6 -83 -11 -137q-5 -12 -14 -11q-13 1 -10 27q6 64 -40 299q-15 87 3 146q19 61 44 89t69 49l-12 4q-12 4 -18 7q-9 4 -4 17zM481 -111q2 3 8 2q40 -14 71 -42q4 -4 1 -8l-47 -76q-3 -5 -10 1q-11 9 -70 44q-5 3 -2 6z " />
<glyph unicode="&#xfc09;" horiz-adv-x="734" arabic-form="isolated" d="M451 130h1v1q2 2 24 6q80 17 126 69q3 53 -23 95q-28 44 -58 69q-8 7 -4 22l25 76q6 19 17 8q22 -21 43 -67q23 -52 30 -94q8 -48 -6 -98q-14 -51 -43 -83l-5 -5q62 -9 87 -33q15 -14 11 -45q-9 -66 -26 -88q-18 -24 -54 -51q-175 -132 -349 -127q-75 3 -124 43t-61 102 t10 146q22 83 68 143q9 10 15 3q7 -8 1 -18q-62 -93 -57 -165q9 -159 182 -159q174 0 346 148q3 3 -1 7q-29 30 -163 33q-33 -3 -35 -3q-9 0 -4 9l23 47zM627 -229q2 3 8 2q40 -14 71 -42q4 -4 1 -8l-47 -76q-3 -5 -10 1q-11 9 -70 44q-5 3 -2 6z" />
<glyph unicode="&#xfc0a;" horiz-adv-x="734" arabic-form="isolated" d="M451 130h1v1q2 2 24 6q80 17 126 69q3 53 -23 95q-28 44 -58 69q-8 7 -4 22l25 76q6 19 17 8q22 -21 43 -67q23 -52 30 -94q8 -48 -6 -98q-14 -51 -43 -83l-5 -5q62 -9 87 -33q15 -14 11 -45q-9 -66 -26 -88q-18 -24 -54 -51q-175 -132 -349 -127q-75 3 -124 43t-61 102 t10 146q22 83 68 143q9 10 15 3q7 -8 1 -18q-62 -93 -57 -165q9 -159 182 -159q174 0 346 148q3 3 -1 7q-29 30 -163 33q-33 -3 -35 -3q-9 0 -4 9l23 47zM391 -303q2 3 8 2q42 -14 71 -41q4 -4 1 -9l-48 -76q-2 -3 -9 2q-4 4 -57 35l-38 -59q-3 -5 -10 1q-11 9 -70 44 q-4 3 -1 6l49 73q2 3 8 2q30 -9 60 -33zM627 -229q2 3 8 2q40 -14 71 -42q4 -4 1 -8l-47 -76q-3 -5 -10 1q-11 9 -70 44q-5 3 -2 6z" />
<glyph unicode="&#xfc0b;" horiz-adv-x="647" arabic-form="isolated" d="M88 216q0 1 2 2.5t2 2.5q8 11 12 15h4q18 16 52 35q117 67 154 104q39 39 57 87q19 51 33 76q15 27 37 27q21 0 39 -27q27 -42 21 -180q0 -13 -10 -13t-12 14q-12 110 -51 110q-9 0 -19 -13q-7 -9 -28 -50q-47 -97 -176 -168q-3 -2 -9 -5q274 -13 409 6q4 1 8 -1 q2 -4 1 -8q-10 -43 -14 -52q-6 -14 -16 -15q-246 -30 -372 -155q-81 -80 -84 -177q-6 -164 134 -217q116 -44 339 -33q95 6 140 12q11 2 11 -8q0 -11 -6 -13q-112 -49 -183 -65q-68 -15 -119 -14q-202 6 -280 80q-79 75 -75 205q6 155 121 292q37 43 95 79l-242 2 q-15 3 -3 22q14 21 28 43zM465 777q2 3 8 2q42 -14 71 -41q4 -4 1 -9l-48 -76q-2 -3 -9 2q-4 4 -57 35l-38 -59q-3 -5 -10 1q-11 9 -70 44q-4 3 -1 6l49 73q2 3 8 2q30 -9 60 -33zM383 -117q2 3 8 2q40 -14 71 -42q4 -4 1 -8l-47 -76q-3 -5 -10 1q-11 9 -70 44q-5 3 -2 6z " />
<glyph unicode="&#xfc0c;" horiz-adv-x="647" arabic-form="isolated" d="M88 216q0 1 2 2.5t2 2.5q8 11 12 15h4q18 16 52 35q117 67 154 104q39 39 57 87q19 51 33 76q15 27 37 27q21 0 39 -27q27 -42 21 -180q0 -13 -10 -13t-12 14q-12 110 -51 110q-9 0 -19 -13q-7 -9 -28 -50q-47 -97 -176 -168q-3 -2 -9 -5q274 -13 409 6q4 1 8 -1 q2 -4 1 -8q-10 -43 -14 -52q-6 -14 -16 -15q-246 -30 -372 -155q-81 -80 -84 -177q-6 -164 134 -217q116 -44 339 -33q95 6 140 12q11 2 11 -8q0 -11 -6 -13q-112 -49 -183 -65q-68 -15 -119 -14q-202 6 -280 80q-79 75 -75 205q6 155 121 292q37 43 95 79l-242 2 q-15 3 -3 22q14 21 28 43zM465 777q2 3 8 2q42 -14 71 -41q4 -4 1 -9l-48 -76q-2 -3 -9 2q-4 4 -57 35l-38 -59q-3 -5 -10 1q-11 9 -70 44q-4 3 -1 6l49 73q2 3 8 2q30 -9 60 -33z" />
<glyph unicode="&#xfc0d;" horiz-adv-x="647" arabic-form="isolated" d="M88 216q0 1 2 2.5t2 2.5q8 11 12 15h4q18 16 52 35q117 67 154 104q39 39 57 87q19 51 33 76q15 27 37 27q21 0 39 -27q27 -42 21 -180q0 -13 -10 -13t-12 14q-12 110 -51 110q-9 0 -19 -13q-7 -9 -28 -50q-47 -97 -176 -168q-3 -2 -9 -5q274 -13 409 6q4 1 8 -1 q2 -4 1 -8q-10 -43 -14 -52q-6 -14 -16 -15q-246 -30 -372 -155q-81 -80 -84 -177q-6 -164 134 -217q116 -44 339 -33q95 6 140 12q11 2 11 -8q0 -11 -6 -13q-112 -49 -183 -65q-68 -15 -119 -14q-202 6 -280 80q-79 75 -75 205q6 155 121 292q37 43 95 79l-242 2 q-15 3 -3 22q14 21 28 43zM465 777q2 3 8 2q42 -14 71 -41q4 -4 1 -9l-48 -76q-2 -3 -9 2q-4 4 -57 35l-38 -59q-3 -5 -10 1q-11 9 -70 44q-4 3 -1 6l49 73q2 3 8 2q30 -9 60 -33zM144 601q2 3 8 2q40 -14 71 -42q4 -4 1 -8l-47 -76q-3 -5 -10 1q-11 9 -70 44q-5 3 -2 6z " />
<glyph unicode="&#xfc0e;" horiz-adv-x="594" arabic-form="isolated" d="M119 128q20 55 30 68q0 3 2 5q18 18 78 56q149 94 228 93q36 0 63 -21t11 -54q-7 -14 -29 -44q-30 -39 -39 -7t-46 36q-64 6 -197 -70q1 0 4.5 -1.5t5.5 -2.5q67 -24 125 -68q18 -13 10 -36q-4 -14 -8.5 -25.5t-6.5 -18.5l-3 -7q-8 -18 -19 -17q-107 14 -190 -9 q-50 -13 -73 -38q-2 -8 8 -66l22 -142q14 -88 17 -121q6 -83 -11 -137q-5 -12 -14 -11q-13 1 -10 27q6 64 -40 299q-15 87 3 146q19 61 44 89t69 49l-12 4q-12 4 -18 7q-9 4 -4 17zM455 633q2 3 8 2q42 -14 71 -41q4 -4 1 -9l-48 -76q-2 -3 -9 2q-4 4 -57 35l-38 -59 q-3 -5 -10 1q-11 9 -70 44q-4 3 -1 6l49 73q2 3 8 2q30 -9 60 -33z" />
<glyph unicode="&#xfc0f;" horiz-adv-x="734" arabic-form="isolated" d="M451 130h1v1q2 2 24 6q80 17 126 69q3 53 -23 95q-28 44 -58 69q-8 7 -4 22l25 76q6 19 17 8q22 -21 43 -67q23 -52 30 -94q8 -48 -6 -98q-14 -51 -43 -83l-5 -5q62 -9 87 -33q15 -14 11 -45q-9 -66 -26 -88q-18 -24 -54 -51q-175 -132 -349 -127q-75 3 -124 43t-61 102 t10 146q22 83 68 143q9 10 15 3q7 -8 1 -18q-62 -93 -57 -165q9 -159 182 -159q174 0 346 148q3 3 -1 7q-29 30 -163 33q-33 -3 -35 -3q-9 0 -4 9l23 47zM551 715q2 3 8 2q42 -14 71 -41q4 -4 1 -9l-48 -76q-2 -3 -9 2q-4 4 -57 35l-38 -59q-3 -5 -10 1q-11 9 -70 44 q-4 3 -1 6l49 73q2 3 8 2q30 -9 60 -33z" />
<glyph unicode="&#xfc10;" horiz-adv-x="734" arabic-form="isolated" d="M451 130h1v1q2 2 24 6q80 17 126 69q3 53 -23 95q-28 44 -58 69q-8 7 -4 22l25 76q6 19 17 8q22 -21 43 -67q23 -52 30 -94q8 -48 -6 -98q-14 -51 -43 -83l-5 -5q62 -9 87 -33q15 -14 11 -45q-9 -66 -26 -88q-18 -24 -54 -51q-175 -132 -349 -127q-75 3 -124 43t-61 102 t10 146q22 83 68 143q9 10 15 3q7 -8 1 -18q-62 -93 -57 -165q9 -159 182 -159q174 0 346 148q3 3 -1 7q-29 30 -163 33q-33 -3 -35 -3q-9 0 -4 9l23 47zM391 -303q2 3 8 2q42 -14 71 -41q4 -4 1 -9l-48 -76q-2 -3 -9 2q-4 4 -57 35l-38 -59q-3 -5 -10 1q-11 9 -70 44 q-4 3 -1 6l49 73q2 3 8 2q30 -9 60 -33zM551 715q2 3 8 2q42 -14 71 -41q4 -4 1 -9l-48 -76q-2 -3 -9 2q-4 4 -57 35l-38 -59q-3 -5 -10 1q-11 9 -70 44q-4 3 -1 6l49 73q2 3 8 2q30 -9 60 -33z" />
<glyph unicode="&#xfc11;" horiz-adv-x="647" arabic-form="isolated" d="M88 216q0 1 2 2.5t2 2.5q8 11 12 15h4q18 16 52 35q117 67 154 104q39 39 57 87q19 51 33 76q15 27 37 27q21 0 39 -27q27 -42 21 -180q0 -13 -10 -13t-12 14q-12 110 -51 110q-9 0 -19 -13q-7 -9 -28 -50q-47 -97 -176 -168q-3 -2 -9 -5q274 -13 409 6q4 1 8 -1 q2 -4 1 -8q-10 -43 -14 -52q-6 -14 -16 -15q-246 -30 -372 -155q-81 -80 -84 -177q-6 -164 134 -217q116 -44 339 -33q95 6 140 12q11 2 11 -8q0 -11 -6 -13q-112 -49 -183 -65q-68 -15 -119 -14q-202 6 -280 80q-79 75 -75 205q6 155 121 292q37 43 95 79l-242 2 q-15 3 -3 22q14 21 28 43zM461 777q2 3 8 2q42 -14 71 -41q4 -4 1 -9l-48 -76q-2 -3 -9 2q-2 1 -7.5 4.5t-18.5 11.5t-24 15l-35 -56q-3 -4 -10 2q-11 9 -70 44q-4 3 -1 6l49 72q2 3 8 2q33 -12 53 -27zM392 881q2 3 8 2q42 -14 71 -41q5 -5 2 -9l-48 -76q-3 -4 -10 2 q-11 9 -70 44q-5 3 -2 6zM383 -117q2 3 8 2q40 -14 71 -42q4 -4 1 -8l-47 -76q-3 -5 -10 1q-11 9 -70 44q-5 3 -2 6z" />
<glyph unicode="&#xfc12;" horiz-adv-x="594" arabic-form="isolated" d="M119 128q20 55 30 68q0 3 2 5q18 18 78 56q149 94 228 93q36 0 63 -21t11 -54q-7 -14 -29 -44q-30 -39 -39 -7t-46 36q-64 6 -197 -70q1 0 4.5 -1.5t5.5 -2.5q67 -24 125 -68q18 -13 10 -36q-4 -14 -8.5 -25.5t-6.5 -18.5l-3 -7q-8 -18 -19 -17q-107 14 -190 -9 q-50 -13 -73 -38q-2 -8 8 -66l22 -142q14 -88 17 -121q6 -83 -11 -137q-5 -12 -14 -11q-13 1 -10 27q6 64 -40 299q-15 87 3 146q19 61 44 89t69 49l-12 4q-12 4 -18 7q-9 4 -4 17zM451 633q2 3 8 2q42 -14 71 -41q4 -4 1 -9l-48 -76q-2 -3 -9 2q-2 1 -7.5 4.5t-18.5 11.5 t-24 15l-35 -56q-3 -4 -10 2q-11 9 -70 44q-4 3 -1 6l49 72q2 3 8 2q33 -12 53 -27zM382 737q2 3 8 2q42 -14 71 -41q5 -5 2 -9l-48 -76q-3 -4 -10 2q-11 9 -70 44q-5 3 -2 6z" />
<glyph unicode="&#xfc13;" horiz-adv-x="734" arabic-form="isolated" d="M451 130h1v1q2 2 24 6q80 17 126 69q3 53 -23 95q-28 44 -58 69q-8 7 -4 22l25 76q6 19 17 8q22 -21 43 -67q23 -52 30 -94q8 -48 -6 -98q-14 -51 -43 -83l-5 -5q62 -9 87 -33q15 -14 11 -45q-9 -66 -26 -88q-18 -24 -54 -51q-175 -132 -349 -127q-75 3 -124 43t-61 102 t10 146q22 83 68 143q9 10 15 3q7 -8 1 -18q-62 -93 -57 -165q9 -159 182 -159q174 0 346 148q3 3 -1 7q-29 30 -163 33q-33 -3 -35 -3q-9 0 -4 9l23 47zM547 715q2 3 8 2q42 -14 71 -41q4 -4 1 -9l-48 -76q-2 -3 -9 2q-2 1 -7.5 4.5t-18.5 11.5t-24 15l-35 -56q-3 -4 -10 2 q-11 9 -70 44q-4 3 -1 6l49 72q2 3 8 2q33 -12 53 -27zM478 819q2 3 8 2q42 -14 71 -41q5 -5 2 -9l-48 -76q-3 -4 -10 2q-11 9 -70 44q-5 3 -2 6z" />
<glyph unicode="&#xfc14;" horiz-adv-x="734" arabic-form="isolated" d="M451 130h1v1q2 2 24 6q80 17 126 69q3 53 -23 95q-28 44 -58 69q-8 7 -4 22l25 76q6 19 17 8q22 -21 43 -67q23 -52 30 -94q8 -48 -6 -98q-14 -51 -43 -83l-5 -5q62 -9 87 -33q15 -14 11 -45q-9 -66 -26 -88q-18 -24 -54 -51q-175 -132 -349 -127q-75 3 -124 43t-61 102 t10 146q22 83 68 143q9 10 15 3q7 -8 1 -18q-62 -93 -57 -165q9 -159 182 -159q174 0 346 148q3 3 -1 7q-29 30 -163 33q-33 -3 -35 -3q-9 0 -4 9l23 47zM391 -303q2 3 8 2q42 -14 71 -41q4 -4 1 -9l-48 -76q-2 -3 -9 2q-4 4 -57 35l-38 -59q-3 -5 -10 1q-11 9 -70 44 q-4 3 -1 6l49 73q2 3 8 2q30 -9 60 -33zM547 715q2 3 8 2q42 -14 71 -41q4 -4 1 -9l-48 -76q-2 -3 -9 2q-2 1 -7.5 4.5t-18.5 11.5t-24 15l-35 -56q-3 -4 -10 2q-11 9 -70 44q-4 3 -1 6l49 72q2 3 8 2q33 -12 53 -27zM478 819q2 3 8 2q42 -14 71 -41q5 -5 2 -9l-48 -76 q-3 -4 -10 2q-11 9 -70 44q-5 3 -2 6z" />
<glyph unicode="&#xfc15;" horiz-adv-x="835" arabic-form="isolated" d="M196 233q274 -13 409 6q4 1 8 -1q2 -4 1 -8q-10 -43 -14 -52q-6 -14 -16 -15q-246 -30 -372 -155q-81 -80 -84 -177q-6 -164 134 -217q116 -44 339 -33q95 6 140 12q11 2 11 -8q0 -11 -6 -13q-112 -49 -183 -65q-68 -15 -119 -14q-202 6 -280 80q-79 75 -75 205 q6 155 121 292q37 43 95 79l-242 2q-15 3 -3 22q1 1 2.5 3t1.5 3h-2q11 25 31 60q148 118 389 188q9 3 1 7q-89 45 -130 53q-40 8 -82 -11q-8 -3 -11 -2t-2 6q18 86 92 92q39 3 125 -47q122 -70 278 -82q23 -2 13 -24l-19 -42q-8 -16 -23 -13q-72 15 -168 11 q-123 -5 -298 -87q-54 -25 -91 -54q19 0 29 -1zM707 0q2 3 8 2q40 -14 71 -42q4 -4 1 -8l-47 -76q-3 -5 -10 1q-11 9 -70 44q-5 3 -2 6z" />
<glyph unicode="&#xfc16;" horiz-adv-x="1178" arabic-form="isolated" d="M261 204q52 -61 120 -86q74 -27 141 -28q141 10 265 73q-132 76 -243 41q-8 -3 -13 2q-5 4 -3 12q8 32 40 63q34 32 71 32t174 -57q44 -19 127 -35q77 -15 158 -9q11 1 14.5 -3.5t-1.5 -14.5l-28 -61q-6 -12 -21 -9q-113 19 -214 -11q-124 -41 -198 -77q-72 -36 -128 -36 q-91 0 -164 40q-4 2 -4 -3q4 -106 -38 -141q-14 -11 -28 1q-61 55 -71 160q-53 -1 -110 -59q-11 -12 7 -130q55 -362 41 -417q-6 -24 -14 -28q-9 -5 -16 5t-7 29q-3 97 -39 310q-31 181 5 275q33 83 142 128q6 19 15 32q9 14 20 2zM804 -40q2 3 8 2q40 -14 71 -42q4 -4 1 -8 l-47 -76q-3 -5 -10 1q-11 9 -70 44q-5 3 -2 6z" />
<glyph unicode="&#xfc17;" horiz-adv-x="835" arabic-form="isolated" d="M196 233q274 -13 409 6q4 1 8 -1q2 -4 1 -8q-10 -43 -14 -52q-6 -14 -16 -15q-246 -30 -372 -155q-81 -80 -84 -177q-6 -164 134 -217q116 -44 339 -33q95 6 140 12q11 2 11 -8q0 -11 -6 -13q-112 -49 -183 -65q-68 -15 -119 -14q-202 6 -280 80q-79 75 -75 205 q6 155 121 292q37 43 95 79l-242 2q-15 3 -3 22q1 1 2.5 3t1.5 3h-2q11 25 31 60q148 118 389 188q9 3 1 7q-89 45 -130 53q-40 8 -82 -11q-8 -3 -11 -2t-2 6q18 86 92 92q39 3 125 -47q122 -70 278 -82q23 -2 13 -24l-19 -42q-8 -16 -23 -13q-72 15 -168 11 q-123 -5 -298 -87q-54 -25 -91 -54q19 0 29 -1zM383 -117q2 3 8 2q40 -14 71 -42q4 -4 1 -8l-47 -76q-3 -5 -10 1q-11 9 -70 44q-5 3 -2 6z" />
<glyph unicode="&#xfc18;" horiz-adv-x="1178" arabic-form="isolated" d="M261 204q52 -61 120 -86q74 -27 141 -28q141 10 265 73q-132 76 -243 41q-8 -3 -13 2q-5 4 -3 12q8 32 40 63q34 32 71 32t174 -57q44 -19 127 -35q77 -15 158 -9q11 1 14.5 -3.5t-1.5 -14.5l-28 -61q-6 -12 -21 -9q-113 19 -214 -11q-124 -41 -198 -77q-72 -36 -128 -36 q-91 0 -164 40q-4 2 -4 -3q4 -106 -38 -141q-14 -11 -28 1q-61 55 -71 160q-53 -1 -110 -59q-11 -12 7 -130q55 -362 41 -417q-6 -24 -14 -28q-9 -5 -16 5t-7 29q-3 97 -39 310q-31 181 5 275q33 83 142 128q6 19 15 32q9 14 20 2z" />
<glyph unicode="&#xfc19;" horiz-adv-x="835" arabic-form="isolated" d="M196 233q274 -13 409 6q4 1 8 -1q2 -4 1 -8q-10 -43 -14 -52q-6 -14 -16 -15q-246 -30 -372 -155q-81 -80 -84 -177q-6 -164 134 -217q116 -44 339 -33q95 6 140 12q11 2 11 -8q0 -11 -6 -13q-112 -49 -183 -65q-68 -15 -119 -14q-202 6 -280 80q-79 75 -75 205 q6 155 121 292q37 43 95 79l-242 2q-15 3 -3 22q1 1 2.5 3t1.5 3h-2q11 25 31 60q148 118 389 188q9 3 1 7q-89 45 -130 53q-40 8 -82 -11q-8 -3 -11 -2t-2 6q18 86 92 92q39 3 125 -47q122 -70 278 -82q23 -2 13 -24l-19 -42q-8 -16 -23 -13q-72 15 -168 11 q-123 -5 -298 -87q-54 -25 -91 -54q19 0 29 -1zM383 -117q2 3 8 2q40 -14 71 -42q4 -4 1 -8l-47 -76q-3 -5 -10 1q-11 9 -70 44q-5 3 -2 6zM707 712q2 3 8 2q40 -14 71 -42q4 -4 1 -8l-47 -76q-3 -5 -10 1q-11 9 -70 44q-5 3 -2 6z" />
<glyph unicode="&#xfc1a;" horiz-adv-x="835" arabic-form="isolated" d="M196 233q274 -13 409 6q4 1 8 -1q2 -4 1 -8q-10 -43 -14 -52q-6 -14 -16 -15q-246 -30 -372 -155q-81 -80 -84 -177q-6 -164 134 -217q116 -44 339 -33q95 6 140 12q11 2 11 -8q0 -11 -6 -13q-112 -49 -183 -65q-68 -15 -119 -14q-202 6 -280 80q-79 75 -75 205 q6 155 121 292q37 43 95 79l-242 2q-15 3 -3 22q1 1 2.5 3t1.5 3h-2q11 25 31 60q148 118 389 188q9 3 1 7q-89 45 -130 53q-40 8 -82 -11q-8 -3 -11 -2t-2 6q18 86 92 92q39 3 125 -47q122 -70 278 -82q23 -2 13 -24l-19 -42q-8 -16 -23 -13q-72 15 -168 11 q-123 -5 -298 -87q-54 -25 -91 -54q19 0 29 -1zM707 712q2 3 8 2q40 -14 71 -42q4 -4 1 -8l-47 -76q-3 -5 -10 1q-11 9 -70 44q-5 3 -2 6z" />
<glyph unicode="&#xfc1b;" horiz-adv-x="1178" arabic-form="isolated" d="M261 204q52 -61 120 -86q74 -27 141 -28q141 10 265 73q-132 76 -243 41q-8 -3 -13 2q-5 4 -3 12q8 32 40 63q34 32 71 32t174 -57q44 -19 127 -35q77 -15 158 -9q11 1 14.5 -3.5t-1.5 -14.5l-28 -61q-6 -12 -21 -9q-113 19 -214 -11q-124 -41 -198 -77q-72 -36 -128 -36 q-91 0 -164 40q-4 2 -4 -3q4 -106 -38 -141q-14 -11 -28 1q-61 55 -71 160q-53 -1 -110 -59q-11 -12 7 -130q55 -362 41 -417q-6 -24 -14 -28q-9 -5 -16 5t-7 29q-3 97 -39 310q-31 181 5 275q33 83 142 128q6 19 15 32q9 14 20 2zM804 523q2 3 8 2q40 -14 71 -42q4 -4 1 -8 l-47 -76q-3 -5 -10 1q-11 9 -70 44q-5 3 -2 6z" />
<glyph unicode="&#xfc1c;" horiz-adv-x="775" arabic-form="isolated" d="M196 233q274 -13 409 6q4 1 8 -1q2 -4 1 -8q-10 -43 -14 -52q-6 -14 -16 -15q-246 -30 -372 -155q-81 -80 -84 -177q-6 -164 134 -217q116 -44 339 -33q95 6 140 12q11 2 11 -8q0 -11 -6 -13q-112 -49 -183 -65q-68 -15 -119 -14q-202 6 -280 80q-79 75 -75 205 q6 155 121 292q37 43 95 79l-242 2q-15 3 -3 22q1 2 3.5 5.5t3.5 5.5q1 15 18 48q3 8 11 11q108 37 176 174q15 28 22 38q20 29 38 3q30 -48 59 -62q69 -35 118 14q22 23 53 87q7 13 16 7q8 -6 4 -16q-12 -30 -11 -37q10 -50 100 -50q7 0 8 8t-20 28q-5 5 -1 16l22 62 q6 16 17 2t15 -55q7 -78 -52 -139q-12 -12 -30 -10q-66 4 -91 56q-4 10 -11 -1q-43 -78 -98 -81q-38 -2 -60 19t-52 73q-7 11 -17 14q-11 3 -15 -7q-34 -84 -114 -152q3 0 11 -0.5t13 -0.5zM383 -117q2 3 8 2q40 -14 71 -42q4 -4 1 -8l-47 -76q-3 -5 -10 1q-11 9 -70 44 q-5 3 -2 6z" />
<glyph unicode="&#xfc1d;" horiz-adv-x="775" arabic-form="isolated" d="M196 233q274 -13 409 6q4 1 8 -1q2 -4 1 -8q-10 -43 -14 -52q-6 -14 -16 -15q-246 -30 -372 -155q-81 -80 -84 -177q-6 -164 134 -217q116 -44 339 -33q95 6 140 12q11 2 11 -8q0 -11 -6 -13q-112 -49 -183 -65q-68 -15 -119 -14q-202 6 -280 80q-79 75 -75 205 q6 155 121 292q37 43 95 79l-242 2q-15 3 -3 22q1 2 3.5 5.5t3.5 5.5q1 15 18 48q3 8 11 11q108 37 176 174q15 28 22 38q20 29 38 3q30 -48 59 -62q69 -35 118 14q22 23 53 87q7 13 16 7q8 -6 4 -16q-12 -30 -11 -37q10 -50 100 -50q7 0 8 8t-20 28q-5 5 -1 16l22 62 q6 16 17 2t15 -55q7 -78 -52 -139q-12 -12 -30 -10q-66 4 -91 56q-4 10 -11 -1q-43 -78 -98 -81q-38 -2 -60 19t-52 73q-7 11 -17 14q-11 3 -15 -7q-34 -84 -114 -152q3 0 11 -0.5t13 -0.5z" />
<glyph unicode="&#xfc1e;" horiz-adv-x="775" arabic-form="isolated" d="M196 233q274 -13 409 6q4 1 8 -1q2 -4 1 -8q-10 -43 -14 -52q-6 -14 -16 -15q-246 -30 -372 -155q-81 -80 -84 -177q-6 -164 134 -217q116 -44 339 -33q95 6 140 12q11 2 11 -8q0 -11 -6 -13q-112 -49 -183 -65q-68 -15 -119 -14q-202 6 -280 80q-79 75 -75 205 q6 155 121 292q37 43 95 79l-242 2q-15 3 -3 22q1 2 3.5 5.5t3.5 5.5q1 15 18 48q3 8 11 11q108 37 176 174q15 28 22 38q20 29 38 3q30 -48 59 -62q69 -35 118 14q22 23 53 87q7 13 16 7q8 -6 4 -16q-12 -30 -11 -37q10 -50 100 -50q7 0 8 8t-20 28q-5 5 -1 16l22 62 q6 16 17 2t15 -55q7 -78 -52 -139q-12 -12 -30 -10q-66 4 -91 56q-4 10 -11 -1q-43 -78 -98 -81q-38 -2 -60 19t-52 73q-7 11 -17 14q-11 3 -15 -7q-34 -84 -114 -152q3 0 11 -0.5t13 -0.5zM144 601q2 3 8 2q40 -14 71 -42q4 -4 1 -8l-47 -76q-3 -5 -10 1q-11 9 -70 44 q-5 3 -2 6z" />
<glyph unicode="&#xfc1f;" horiz-adv-x="910" arabic-form="isolated" d="M439 188q35 0 81 -63q24 -32 42 -35h1h2q56 6 87 37t51 109q3 10 12 9q10 -1 7 -13q-10 -44 -7 -57q3 -12 30 -27q28 -15 64 -17h1q2 2 -1 9q-3 8 -18 28q-3 3 -1 9l29 84q3 10 9 4q36 -36 18 -126q-8 -37 -25 -65q-18 -29 -30 -31q-69 -6 -124 50q-48 -93 -102 -93h-1 h-2q-50 0 -89 64q-32 54 -99 43q-59 -10 -101 -38q2 -1 6.5 -2.5t6.5 -2.5q67 -24 125 -68q18 -13 10 -36q-4 -14 -8.5 -25.5t-6.5 -18.5l-3 -7q-8 -18 -19 -17q-107 14 -190 -9q-50 -13 -73 -38q-2 -8 8 -66l22 -142q14 -88 17 -121q6 -83 -11 -137q-5 -12 -14 -11 q-13 1 -10 27q6 64 -40 299q-15 87 3 146q19 61 44 89t69 49q-1 0 -2.5 0.5l-4.5 1.5t-5 2q-12 4 -18 7q-9 4 -4 17q19 51 28 65q0 1 2 5q7 10 45 34q122 78 189 78z" />
<glyph unicode="&#xfc20;" horiz-adv-x="953" arabic-form="isolated" d="M196 233q274 -13 409 6q4 1 8 -1q2 -4 1 -8q-10 -43 -14 -52q-6 -14 -16 -15q-246 -30 -372 -155q-81 -80 -84 -177q-6 -164 134 -217q116 -44 339 -33q95 6 140 12q11 2 11 -8q0 -11 -6 -13q-112 -49 -183 -65q-68 -15 -119 -14q-202 6 -280 80q-79 75 -75 205 q6 155 121 292q37 43 95 79l-242 2q-15 3 -3 22q1 3 4.5 8t5.5 7q1 12 13 44q1 3 6 6q100 50 163 105q56 49 84 111q3 9 14 9q10 0 17 -12q30 -54 98 -70q74 82 163 143q90 62 143 62q28 0 73 -36t46 -62q1 -27 -46 -91q-46 -63 -73 -73q-160 -61 -340 -30q-3 -5 -11 -15.5 t-11 -16.5q-9 -14 -16 -10q-13 8 10 47q-61 26 -85 68q-48 -67 -132 -134h10zM686 489q-88 -18 -186 -114q213 -12 307 51q-19 26 -53 48t-68 15z" />
<glyph unicode="&#xfc21;" horiz-adv-x="1098" arabic-form="isolated" d="M439 188q35 0 81 -63q24 -32 42 -35h3q37 -2 60 3q105 143 212 218q40 28 85 30q43 1 91 -45q24 -22 21 -51t-24 -77q-21 -49 -32 -58q-109 -100 -363 -112q-6 -12 -10 -25q-4 -12 -11 -29q-5 -11 -15 -7q-17 6 1 63h-15h-1h-2q-50 0 -89 64q-32 54 -99 43 q-59 -10 -101 -38q2 -1 6.5 -2.5t6.5 -2.5q67 -24 125 -68q18 -13 10 -36q-4 -14 -8.5 -25.5t-6.5 -18.5l-3 -7q-8 -18 -19 -17q-107 14 -190 -9q-50 -13 -73 -38q-2 -8 8 -66l22 -142q14 -88 17 -121q6 -83 -11 -137q-5 -12 -14 -11q-13 1 -10 27q6 64 -40 299 q-15 87 3 146q19 61 44 89t69 49q-1 0 -2.5 0.5l-4.5 1.5t-5 2q-12 4 -18 7q-9 4 -4 17q19 51 28 65q0 1 2 5q7 10 45 34q122 78 189 78zM964 193q-74 47 -123 35q-79 -19 -171 -134q218 31 295 90q6 5 -1 9z" />
<glyph unicode="&#xfc22;" horiz-adv-x="953" arabic-form="isolated" d="M196 233q274 -13 409 6q4 1 8 -1q2 -4 1 -8q-10 -43 -14 -52q-6 -14 -16 -15q-246 -30 -372 -155q-81 -80 -84 -177q-6 -164 134 -217q116 -44 339 -33q95 6 140 12q11 2 11 -8q0 -11 -6 -13q-112 -49 -183 -65q-68 -15 -119 -14q-202 6 -280 80q-79 75 -75 205 q6 155 121 292q37 43 95 79l-242 2q-15 3 -3 22q1 3 4.5 8t5.5 7q1 12 13 44q1 3 6 6q100 50 163 105q56 49 84 111q3 9 14 9q10 0 17 -12q30 -54 98 -70q74 82 163 143q90 62 143 62q28 0 73 -36t46 -62q1 -27 -46 -91q-46 -63 -73 -73q-160 -61 -340 -30q-3 -5 -11 -15.5 t-11 -16.5q-9 -14 -16 -10q-13 8 10 47q-61 26 -85 68q-48 -67 -132 -134h10zM686 489q-88 -18 -186 -114q213 -12 307 51q-19 26 -53 48t-68 15zM383 -117q2 3 8 2q40 -14 71 -42q4 -4 1 -8l-47 -76q-3 -5 -10 1q-11 9 -70 44q-5 3 -2 6zM541 745q2 3 8 2q40 -14 71 -42 q4 -4 1 -8l-47 -76q-3 -5 -10 1q-11 9 -70 44q-5 3 -2 6z" />
<glyph unicode="&#xfc23;" horiz-adv-x="953" arabic-form="isolated" d="M196 233q274 -13 409 6q4 1 8 -1q2 -4 1 -8q-10 -43 -14 -52q-6 -14 -16 -15q-246 -30 -372 -155q-81 -80 -84 -177q-6 -164 134 -217q116 -44 339 -33q95 6 140 12q11 2 11 -8q0 -11 -6 -13q-112 -49 -183 -65q-68 -15 -119 -14q-202 6 -280 80q-79 75 -75 205 q6 155 121 292q37 43 95 79l-242 2q-15 3 -3 22q1 3 4.5 8t5.5 7q1 12 13 44q1 3 6 6q100 50 163 105q56 49 84 111q3 9 14 9q10 0 17 -12q30 -54 98 -70q74 82 163 143q90 62 143 62q28 0 73 -36t46 -62q1 -27 -46 -91q-46 -63 -73 -73q-160 -61 -340 -30q-3 -5 -11 -15.5 t-11 -16.5q-9 -14 -16 -10q-13 8 10 47q-61 26 -85 68q-48 -67 -132 -134h10zM686 489q-88 -18 -186 -114q213 -12 307 51q-19 26 -53 48t-68 15zM541 745q2 3 8 2q40 -14 71 -42q4 -4 1 -8l-47 -76q-3 -5 -10 1q-11 9 -70 44q-5 3 -2 6z" />
<glyph unicode="&#xfc24;" horiz-adv-x="953" arabic-form="isolated" d="M196 233q274 -13 409 6q4 1 8 -1q2 -4 1 -8q-10 -43 -14 -52q-6 -14 -16 -15q-246 -30 -372 -155q-81 -80 -84 -177q-6 -164 134 -217q116 -44 339 -33q95 6 140 12q11 2 11 -8q0 -11 -6 -13q-112 -49 -183 -65q-68 -15 -119 -14q-202 6 -280 80q-79 75 -75 205 q6 155 121 292q37 43 95 79l-242 2q-15 3 -3 22q1 3 4.5 8t5.5 7q1 12 13 44q1 3 6 6q100 50 163 105q56 49 84 111q3 9 14 9q10 0 17 -12q30 -54 98 -70q74 82 163 143q90 62 143 62q28 0 73 -36t46 -62q1 -27 -46 -91q-46 -63 -73 -73q-160 -61 -340 -30q-3 -5 -11 -15.5 t-11 -16.5q-9 -14 -16 -10q-13 8 10 47q-61 26 -85 68q-48 -67 -132 -134h10zM686 489q-88 -18 -186 -114q213 -12 307 51q-19 26 -53 48t-68 15zM144 601q2 3 8 2q40 -14 71 -42q4 -4 1 -8l-47 -76q-3 -5 -10 1q-11 9 -70 44q-5 3 -2 6zM541 745q2 3 8 2q40 -14 71 -42 q4 -4 1 -8l-47 -76q-3 -5 -10 1q-11 9 -70 44q-5 3 -2 6z" />
<glyph unicode="&#xfc25;" horiz-adv-x="1098" arabic-form="isolated" d="M439 188q35 0 81 -63q24 -32 42 -35h3q37 -2 60 3q105 143 212 218q40 28 85 30q43 1 91 -45q24 -22 21 -51t-24 -77q-21 -49 -32 -58q-109 -100 -363 -112q-6 -12 -10 -25q-4 -12 -11 -29q-5 -11 -15 -7q-17 6 1 63h-15h-1h-2q-50 0 -89 64q-32 54 -99 43 q-59 -10 -101 -38q2 -1 6.5 -2.5t6.5 -2.5q67 -24 125 -68q18 -13 10 -36q-4 -14 -8.5 -25.5t-6.5 -18.5l-3 -7q-8 -18 -19 -17q-107 14 -190 -9q-50 -13 -73 -38q-2 -8 8 -66l22 -142q14 -88 17 -121q6 -83 -11 -137q-5 -12 -14 -11q-13 1 -10 27q6 64 -40 299 q-15 87 3 146q19 61 44 89t69 49q-1 0 -2.5 0.5l-4.5 1.5t-5 2q-12 4 -18 7q-9 4 -4 17q19 51 28 65q0 1 2 5q7 10 45 34q122 78 189 78zM964 193q-74 47 -123 35q-79 -19 -171 -134q218 31 295 90q6 5 -1 9zM695 547q2 3 8 2q40 -14 71 -42q4 -4 1 -8l-47 -76q-3 -5 -10 1 q-11 9 -70 44q-5 3 -2 6z" />
<glyph unicode="&#xfc26;" horiz-adv-x="1207" arabic-form="isolated" d="M209 260q41 0 118 -13q150 -26 284 0q29 6 17 -20l-23 -52q-4 -8 -11 -9q-63 -8 -122 -20q6 -23 27 -36q46 -29 141 -20h2q23 1 64 6l56 54q3 14 4 38q1 20 1 77q0 39 -8 170q-9 144 -15 179t-5 40q10 27 26 54q5 6 8 5q4 -1 7 -8q27 -61 43 -78q9 -9 0 -20l-20 -25 q-6 -8 -5 -21q13 -192 13 -221q0 -95 -13 -160q145 116 217 136q38 11 61 2q36 -13 65 -68q6 -11 1 -29q-18 -63 -51 -114q-24 -36 -98 -54q-186 -43 -353 -53q-184 -10 -205 69q-9 35 -3 69q-106 -25 -170 -67q-81 -53 -119 -133q-40 -83 -28 -156q18 -119 139 -179 q82 -39 347 -17q37 3 70.5 6t46.5 4l14 1q22 1 22 -9q0 -11 -27 -20q-43 -13 -82 -39q-45 -30 -48 -31q-7 -3 -17 -5q-306 -34 -425 56q-102 76 -91 226q20 272 250 383q-125 30 -213 -14q-6 -3 -12 0t-6 7q3 107 126 109zM980 226q-10 0 -21 -3q-99 -31 -192 -123 q198 17 308 57q7 2 3 7q-41 60 -98 62z" />
<glyph unicode="&#xfc27;" horiz-adv-x="1090" arabic-form="isolated" d="M261 204q52 -61 120 -86q74 -27 141 -28q25 1 66 6l56 54q3 14 4 38q1 20 1 77q0 39 -8 170q-9 144 -15 179t-5 40q10 27 26 54q5 6 8 5q4 -1 7 -8q27 -61 43 -78q9 -9 0 -20l-20 -25q-6 -8 -5 -21q13 -192 13 -221q0 -95 -13 -160q145 116 217 136q38 11 61 2 q36 -13 65 -68q6 -11 1 -29q-18 -63 -51 -114q-24 -36 -98 -54q-184 -43 -352 -53h-1q-91 0 -164 40q-4 2 -4 -3q4 -106 -38 -141q-14 -11 -28 1q-61 55 -71 160q-53 -1 -110 -59q-11 -12 7 -130q55 -362 41 -417q-6 -24 -14 -28q-9 -5 -16 5t-7 29q-3 97 -39 310 q-31 181 5 275q33 83 142 128q6 19 15 32q9 14 20 2zM862 226q-10 0 -21 -3q-99 -31 -192 -123q198 17 308 57q7 2 3 7q-41 60 -98 62z" />
<glyph unicode="&#xfc28;" horiz-adv-x="1090" arabic-form="isolated" d="M261 204q52 -61 120 -86q74 -27 141 -28q25 1 66 6l56 54q3 14 4 38q1 20 1 77q0 39 -8 170q-9 144 -15 179t-5 40q10 27 26 54q5 6 8 5q4 -1 7 -8q27 -61 43 -78q9 -9 0 -20l-20 -25q-6 -8 -5 -21q13 -192 13 -221q0 -95 -13 -160q145 116 217 136q38 11 61 2 q36 -13 65 -68q6 -11 1 -29q-18 -63 -51 -114q-24 -36 -98 -54q-184 -43 -352 -53h-1q-91 0 -164 40q-4 2 -4 -3q4 -106 -38 -141q-14 -11 -28 1q-61 55 -71 160q-53 -1 -110 -59q-11 -12 7 -130q55 -362 41 -417q-6 -24 -14 -28q-9 -5 -16 5t-7 29q-3 97 -39 310 q-31 181 5 275q33 83 142 128q6 19 15 32q9 14 20 2zM862 226q-10 0 -21 -3q-99 -31 -192 -123q198 17 308 57q7 2 3 7q-41 60 -98 62zM880 547q2 3 8 2q40 -14 71 -42q4 -4 1 -8l-47 -76q-3 -5 -10 1q-11 9 -70 44q-5 3 -2 6z" />
<glyph unicode="&#xfc29;" horiz-adv-x="681" arabic-form="isolated" d="M196 233q274 -13 409 6q4 1 8 -1q2 -4 1 -8q-10 -43 -14 -52q-6 -14 -16 -15q-246 -30 -372 -155q-81 -80 -84 -177q-6 -164 134 -217q116 -44 339 -33q95 6 140 12q11 2 11 -8q0 -11 -6 -13q-112 -49 -183 -65q-68 -15 -119 -14q-202 6 -280 80q-79 75 -75 205 q6 155 121 292q37 43 95 79l-242 2q-15 3 -3 22q36 55 44 63h4q-1 1 -1 2q-1 3 5 9q37 45 172 100q-36 29 -51 54t3 73q18 47 72 94q55 47 101 43q67 -6 109 -67q5 -7 2 -12q-4 -6 -11 -3q-63 20 -101 19q-93 -3 -131 -63q45 -71 112 -77q92 -9 213 46q5 2 9 -2 q7 -8 -29 -65q-6 -9 -16 -12q-256 -70 -316 -91l-109 -48q24 -2 55 -3zM383 -117q2 3 8 2q40 -14 71 -42q4 -4 1 -8l-47 -76q-3 -5 -10 1q-11 9 -70 44q-5 3 -2 6z" />
<glyph unicode="&#xfc2a;" horiz-adv-x="1000" arabic-form="isolated" d="M261 204q52 -61 120 -86q74 -27 141 -28q1 0 8.5 3.5t25.5 11t35 14.5q-46 38 -35 91q25 131 158 187q24 10 65 -11q42 -22 71 -55q10 -12 3 -21q-8 -9 -20 -4q-58 24 -131 7q-71 -16 -89 -58q-7 -16 22 -42q28 -25 56 -30q81 -12 185 55q18 11 39 23q14 8 19 5.5 t2 -15.5l-20 -80q-3 -8 -18 -14q-62 -22 -146 -57l-221 -96q-4 -4 -9 -4q-91 0 -164 40q-4 2 -4 -3q4 -106 -38 -141q-14 -11 -28 1q-61 55 -71 160q-53 -1 -110 -59q-11 -12 7 -130q55 -362 41 -417q-6 -24 -14 -28q-9 -5 -16 5t-7 29q-3 97 -39 310q-31 181 5 275 q33 83 142 128q6 19 15 32q9 14 20 2z" />
<glyph unicode="&#xfc2b;" horiz-adv-x="681" arabic-form="isolated" d="M196 233q274 -13 409 6q4 1 8 -1q2 -4 1 -8q-10 -43 -14 -52q-6 -14 -16 -15q-246 -30 -372 -155q-81 -80 -84 -177q-6 -164 134 -217q116 -44 339 -33q95 6 140 12q11 2 11 -8q0 -11 -6 -13q-112 -49 -183 -65q-68 -15 -119 -14q-202 6 -280 80q-79 75 -75 205 q6 155 121 292q37 43 95 79l-242 2q-15 3 -3 22q36 55 44 63h4q-1 1 -1 2q-1 3 5 9q37 45 172 100q-36 29 -51 54t3 73q18 47 72 94q55 47 101 43q67 -6 109 -67q5 -7 2 -12q-4 -6 -11 -3q-63 20 -101 19q-93 -3 -131 -63q45 -71 112 -77q92 -9 213 46q5 2 9 -2 q7 -8 -29 -65q-6 -9 -16 -12q-256 -70 -316 -91l-109 -48q24 -2 55 -3zM383 -117q2 3 8 2q40 -14 71 -42q4 -4 1 -8l-47 -76q-3 -5 -10 1q-11 9 -70 44q-5 3 -2 6zM329 784q2 3 8 2q40 -14 71 -42q4 -4 1 -8l-47 -76q-3 -5 -10 1q-11 9 -70 44q-5 3 -2 6z" />
<glyph unicode="&#xfc2c;" horiz-adv-x="1000" arabic-form="isolated" d="M261 204q52 -61 120 -86q74 -27 141 -28q1 0 8.5 3.5t25.5 11t35 14.5q-46 38 -35 91q25 131 158 187q24 10 65 -11q42 -22 71 -55q10 -12 3 -21q-8 -9 -20 -4q-58 24 -131 7q-71 -16 -89 -58q-7 -16 22 -42q28 -25 56 -30q81 -12 185 55q18 11 39 23q14 8 19 5.5 t2 -15.5l-20 -80q-3 -8 -18 -14q-62 -22 -146 -57l-221 -96q-4 -4 -9 -4q-91 0 -164 40q-4 2 -4 -3q4 -106 -38 -141q-14 -11 -28 1q-61 55 -71 160q-53 -1 -110 -59q-11 -12 7 -130q55 -362 41 -417q-6 -24 -14 -28q-9 -5 -16 5t-7 29q-3 97 -39 310q-31 181 5 275 q33 83 142 128q6 19 15 32q9 14 20 2zM652 596q2 3 8 2q40 -14 71 -42q4 -4 1 -8l-47 -76q-3 -5 -10 1q-11 9 -70 44q-5 3 -2 6z" />
<glyph unicode="&#xfc2d;" horiz-adv-x="722" arabic-form="isolated" d="M313 354q-4 23 -18 40q-13 15 -23 2q-46 -67 -93 -61q-76 10 -37 152q26 92 80 107q24 7 57 -32q56 -67 61 -187q1 -42 -20 -83q-20 -38 -52 -62q220 -7 337 9q4 1 8 -1q2 -4 1 -8q-10 -43 -14 -52q-6 -14 -16 -15q-246 -30 -372 -155q-81 -80 -84 -177q-6 -164 134 -217 q116 -44 339 -33q95 6 140 12q11 2 11 -8q0 -11 -6 -13q-112 -49 -183 -65q-68 -15 -119 -14q-202 6 -280 80q-79 75 -75 205q6 155 121 292q37 43 95 79l-242 2q-15 3 -3 22q34 51 44 63l1 2q1 2 2 2q13 15 18 19q10 6 26 9q152 29 162 86zM383 -117q2 3 8 2q40 -14 71 -42 q4 -4 1 -8l-47 -76q-3 -5 -10 1q-11 9 -70 44q-5 3 -2 6zM164 796q2 3 8 2q40 -14 71 -42q4 -4 1 -8l-47 -76q-3 -5 -10 1q-11 9 -70 44q-5 3 -2 6zM168 477q6 -34 31 -36q25 0 33 24q-21 23 -37 24q-17 1 -27 -12z" />
<glyph unicode="&#xfc2e;" horiz-adv-x="722" arabic-form="isolated" d="M313 354q-4 23 -18 40q-13 15 -23 2q-46 -67 -93 -61q-76 10 -37 152q26 92 80 107q24 7 57 -32q56 -67 61 -187q1 -42 -20 -83q-20 -38 -52 -62q220 -7 337 9q4 1 8 -1q2 -4 1 -8q-10 -43 -14 -52q-6 -14 -16 -15q-246 -30 -372 -155q-81 -80 -84 -177q-6 -164 134 -217 q116 -44 339 -33q95 6 140 12q11 2 11 -8q0 -11 -6 -13q-112 -49 -183 -65q-68 -15 -119 -14q-202 6 -280 80q-79 75 -75 205q6 155 121 292q37 43 95 79l-242 2q-15 3 -3 22q34 51 44 63l1 2q1 2 2 2q13 15 18 19q10 6 26 9q152 29 162 86zM164 796q2 3 8 2q40 -14 71 -42 q4 -4 1 -8l-47 -76q-3 -5 -10 1q-11 9 -70 44q-5 3 -2 6zM168 477q6 -34 31 -36q25 0 33 24q-21 23 -37 24q-17 1 -27 -12z" />
<glyph unicode="&#xfc2f;" horiz-adv-x="722" arabic-form="isolated" d="M313 354q-4 23 -18 40q-13 15 -23 2q-46 -67 -93 -61q-76 10 -37 152q26 92 80 107q24 7 57 -32q56 -67 61 -187q1 -42 -20 -83q-20 -38 -52 -62q220 -7 337 9q4 1 8 -1q2 -4 1 -8q-10 -43 -14 -52q-6 -14 -16 -15q-246 -30 -372 -155q-81 -80 -84 -177q-6 -164 134 -217 q116 -44 339 -33q95 6 140 12q11 2 11 -8q0 -11 -6 -13q-112 -49 -183 -65q-68 -15 -119 -14q-202 6 -280 80q-79 75 -75 205q6 155 121 292q37 43 95 79l-242 2q-15 3 -3 22q34 51 44 63l1 2q1 2 2 2q13 15 18 19q10 6 26 9q152 29 162 86zM500 444q2 3 8 2q40 -14 71 -42 q4 -4 1 -8l-47 -76q-3 -5 -10 1q-11 9 -70 44q-5 3 -2 6zM164 796q2 3 8 2q40 -14 71 -42q4 -4 1 -8l-47 -76q-3 -5 -10 1q-11 9 -70 44q-5 3 -2 6zM168 477q6 -34 31 -36q25 0 33 24q-21 23 -37 24q-17 1 -27 -12z" />
<glyph unicode="&#xfc30;" horiz-adv-x="817" arabic-form="isolated" d="M261 204q52 -61 120 -86q74 -27 141 -28q125 9 188 72q-3 31 -9 39q-7 11 -12 9q-4 -1 -5 -4q-17 -44 -52 -52q-110 -24 -101 85q4 52 40 112q34 58 66 58q13 0 32 -16q90 -78 85 -198q-3 -63 -31 -100q-74 -95 -201 -95q-91 0 -164 40q-4 2 -4 -3q4 -106 -38 -141 q-14 -11 -28 1q-61 55 -71 160q-53 -1 -110 -59q-11 -12 7 -130q55 -362 41 -417q-6 -24 -14 -28q-9 -5 -16 5t-7 29q-3 97 -39 310q-31 181 5 275q33 83 142 128q6 19 15 32q9 14 20 2zM584 620q2 3 8 2q40 -14 71 -42q4 -4 1 -8l-47 -76q-3 -5 -10 1q-11 9 -70 44 q-5 3 -2 6zM604 301q-22 -1 -27 -39q0 -6 1 -6q20 -6 41 -3q20 3 27 13q-23 37 -42 35z" />
<glyph unicode="&#xfc31;" horiz-adv-x="713" arabic-form="isolated" d="M590 437q53 -74 51 -165q0 -37 -10 -75q-12 -44 -37 -71q49 -9 71 -30q15 -14 11 -45q-9 -66 -26 -88q-18 -24 -54 -51q-175 -132 -349 -127q-75 3 -124 43t-61 102t10 146q22 83 68 143q9 10 15 3q7 -8 1 -18q-62 -93 -57 -165q9 -159 182 -159q174 0 346 148q3 3 -1 7 q-31 33 -194 34q-6 0 -5 6q0 3 1 5q6 22 24 55q3 6 10 7q121 18 152 67q11 17 -4 45q-12 24 -28 33q-21 -42 -44 -54q-57 -30 -91 21q-28 42 -1 110q42 106 94 107q25 1 50 -34zM460 757q2 3 8 2q40 -14 71 -42q4 -4 1 -8l-47 -76q-3 -5 -10 1q-11 9 -70 44q-5 3 -2 6z M494 372q-11 0 -26 -18q-6 -8 6 -17q29 -22 60 6q4 4 0 8q-26 21 -40 21z" />
<glyph unicode="&#xfc32;" horiz-adv-x="713" arabic-form="isolated" d="M590 437q53 -74 51 -165q0 -37 -10 -75q-12 -44 -37 -71q49 -9 71 -30q15 -14 11 -45q-9 -66 -26 -88q-18 -24 -54 -51q-175 -132 -349 -127q-75 3 -124 43t-61 102t10 146q22 83 68 143q9 10 15 3q7 -8 1 -18q-62 -93 -57 -165q9 -159 182 -159q174 0 346 148q3 3 -1 7 q-31 33 -194 34q-6 0 -5 6q0 3 1 5q6 22 24 55q3 6 10 7q121 18 152 67q11 17 -4 45q-12 24 -28 33q-21 -42 -44 -54q-57 -30 -91 21q-28 42 -1 110q42 106 94 107q25 1 50 -34zM391 -303q2 3 8 2q42 -14 71 -41q4 -4 1 -9l-48 -76q-2 -3 -9 2q-4 4 -57 35l-38 -59 q-3 -5 -10 1q-11 9 -70 44q-4 3 -1 6l49 73q2 3 8 2q30 -9 60 -33zM460 757q2 3 8 2q40 -14 71 -42q4 -4 1 -8l-47 -76q-3 -5 -10 1q-11 9 -70 44q-5 3 -2 6zM494 372q-11 0 -26 -18q-6 -8 6 -17q29 -22 60 6q4 4 0 8q-26 21 -40 21z" />
<glyph unicode="&#xfc33;" horiz-adv-x="722" arabic-form="isolated" d="M313 354q-4 23 -18 40q-13 15 -23 2q-46 -67 -93 -61q-76 10 -37 152q26 92 80 107q24 7 57 -32q56 -67 61 -187q1 -42 -20 -83q-20 -38 -52 -62q220 -7 337 9q4 1 8 -1q2 -4 1 -8q-10 -43 -14 -52q-6 -14 -16 -15q-246 -30 -372 -155q-81 -80 -84 -177q-6 -164 134 -217 q116 -44 339 -33q95 6 140 12q11 2 11 -8q0 -11 -6 -13q-112 -49 -183 -65q-68 -15 -119 -14q-202 6 -280 80q-79 75 -75 205q6 155 121 292q37 43 95 79l-242 2q-15 3 -3 22q34 51 44 63l1 2q1 2 2 2q13 15 18 19q10 6 26 9q152 29 162 86zM219 818q2 3 8 2q42 -14 71 -41 q4 -4 1 -9l-48 -76q-2 -3 -9 2q-4 4 -57 35l-38 -59q-3 -5 -10 1q-11 9 -70 44q-4 3 -1 6l49 73q2 3 8 2q30 -9 60 -33zM168 477q6 -34 31 -36q25 0 33 24q-21 23 -37 24q-17 1 -27 -12z" />
<glyph unicode="&#xfc34;" horiz-adv-x="817" arabic-form="isolated" d="M261 204q52 -61 120 -86q74 -27 141 -28q125 9 188 72q-3 31 -9 39q-7 11 -12 9q-4 -1 -5 -4q-17 -44 -52 -52q-110 -24 -101 85q4 52 40 112q34 58 66 58q13 0 32 -16q90 -78 85 -198q-3 -63 -31 -100q-74 -95 -201 -95q-91 0 -164 40q-4 2 -4 -3q4 -106 -38 -141 q-14 -11 -28 1q-61 55 -71 160q-53 -1 -110 -59q-11 -12 7 -130q55 -362 41 -417q-6 -24 -14 -28q-9 -5 -16 5t-7 29q-3 97 -39 310q-31 181 5 275q33 83 142 128q6 19 15 32q9 14 20 2zM669 642q2 3 8 2q42 -14 71 -41q4 -4 1 -9l-48 -76q-2 -3 -9 2q-4 4 -57 35l-38 -59 q-3 -5 -10 1q-11 9 -70 44q-4 3 -1 6l49 73q2 3 8 2q30 -9 60 -33zM604 301q-22 -1 -27 -39q0 -6 1 -6q20 -6 41 -3q20 3 27 13q-23 37 -42 35z" />
<glyph unicode="&#xfc35;" horiz-adv-x="713" arabic-form="isolated" d="M590 437q53 -74 51 -165q0 -37 -10 -75q-12 -44 -37 -71q49 -9 71 -30q15 -14 11 -45q-9 -66 -26 -88q-18 -24 -54 -51q-175 -132 -349 -127q-75 3 -124 43t-61 102t10 146q22 83 68 143q9 10 15 3q7 -8 1 -18q-62 -93 -57 -165q9 -159 182 -159q174 0 346 148q3 3 -1 7 q-31 33 -194 34q-6 0 -5 6q0 3 1 5q6 22 24 55q3 6 10 7q121 18 152 67q11 17 -4 45q-12 24 -28 33q-21 -42 -44 -54q-57 -30 -91 21q-28 42 -1 110q42 106 94 107q25 1 50 -34zM510 779q2 3 8 2q42 -14 71 -41q4 -4 1 -9l-48 -76q-2 -3 -9 2q-4 4 -57 35l-38 -59 q-3 -5 -10 1q-11 9 -70 44q-4 3 -1 6l49 73q2 3 8 2q30 -9 60 -33zM494 372q-11 0 -26 -18q-6 -8 6 -17q29 -22 60 6q4 4 0 8q-26 21 -40 21z" />
<glyph unicode="&#xfc36;" horiz-adv-x="713" arabic-form="isolated" d="M590 437q53 -74 51 -165q0 -37 -10 -75q-12 -44 -37 -71q49 -9 71 -30q15 -14 11 -45q-9 -66 -26 -88q-18 -24 -54 -51q-175 -132 -349 -127q-75 3 -124 43t-61 102t10 146q22 83 68 143q9 10 15 3q7 -8 1 -18q-62 -93 -57 -165q9 -159 182 -159q174 0 346 148q3 3 -1 7 q-31 33 -194 34q-6 0 -5 6q0 3 1 5q6 22 24 55q3 6 10 7q121 18 152 67q11 17 -4 45q-12 24 -28 33q-21 -42 -44 -54q-57 -30 -91 21q-28 42 -1 110q42 106 94 107q25 1 50 -34zM391 -303q2 3 8 2q42 -14 71 -41q4 -4 1 -9l-48 -76q-2 -3 -9 2q-4 4 -57 35l-38 -59 q-3 -5 -10 1q-11 9 -70 44q-4 3 -1 6l49 73q2 3 8 2q30 -9 60 -33zM510 779q2 3 8 2q42 -14 71 -41q4 -4 1 -9l-48 -76q-2 -3 -9 2q-4 4 -57 35l-38 -59q-3 -5 -10 1q-11 9 -70 44q-4 3 -1 6l49 73q2 3 8 2q30 -9 60 -33zM494 372q-11 0 -26 -18q-6 -8 6 -17q29 -22 60 6 q4 4 0 8q-26 21 -40 21z" />
<glyph unicode="&#xfc37;" horiz-adv-x="775" arabic-form="isolated" d="M132 395q162 -46 220 -115q49 -59 49 -116q0 -195 -211 -175h-2q-47 5 -77 38q-54 56 -51 257q2 120 -8 205q-13 117 -22 158q-9 35 -3 44l29 46q9 13 13 -2q24 -88 29 -325q1 6 5 16q35 80 241 198q161 92 314 154q14 5 19.5 1t2.5 -17l-15 -63q-3 -14 -16 -19 q-114 -41 -291 -139q-181 -100 -226 -146zM188 94q107 -17 183 53q6 5 3 9q-69 107 -260 158q-10 1 -15 14q3 -146 21 -185q19 -40 67 -49h1z" />
<glyph unicode="&#xfc38;" horiz-adv-x="812" arabic-form="isolated" d="M748 814l-19 -45q-6 -16 -30 -20q-407 -60 -544 -131q-17 -9 -7 -19q81 -77 113 -119q62 -86 44 -173q-14 -48 -44 -77q225 -8 344 9q4 1 8 -1q2 -4 1 -8q-10 -43 -14 -52q-6 -14 -16 -15q-246 -30 -372 -155q-81 -80 -84 -177q-6 -164 134 -217q116 -44 339 -33 q95 6 140 12q11 2 11 -8q0 -11 -6 -13q-112 -49 -183 -65q-68 -15 -119 -14q-202 6 -280 80q-79 75 -75 205q6 155 121 292q37 43 95 79l-242 2q-15 3 -3 22q32 49 43 62q1 1 2 2.5t2 2.5q13 15 18 19q13 6 26 9q104 21 132 45q-15 55 -120 160q-5 5 -10 4l-18 -12 q-7 -4 -18 10l-50 59q-9 11 -5 32q9 50 41 91q144 104 628 182q15 2 19 -4t-2 -21zM383 -117q2 3 8 2q40 -14 71 -42q4 -4 1 -8l-47 -76q-3 -5 -10 1q-11 9 -70 44q-5 3 -2 6z" />
<glyph unicode="&#xfc39;" horiz-adv-x="812" arabic-form="isolated" d="M748 814l-19 -45q-6 -16 -30 -20q-407 -60 -544 -131q-17 -9 -7 -19q81 -77 113 -119q62 -86 44 -173q-14 -48 -44 -77q225 -8 344 9q4 1 8 -1q2 -4 1 -8q-10 -43 -14 -52q-6 -14 -16 -15q-246 -30 -372 -155q-81 -80 -84 -177q-6 -164 134 -217q116 -44 339 -33 q95 6 140 12q11 2 11 -8q0 -11 -6 -13q-112 -49 -183 -65q-68 -15 -119 -14q-202 6 -280 80q-79 75 -75 205q6 155 121 292q37 43 95 79l-242 2q-15 3 -3 22q32 49 43 62q1 1 2 2.5t2 2.5q13 15 18 19q13 6 26 9q104 21 132 45q-15 55 -120 160q-5 5 -10 4l-18 -12 q-7 -4 -18 10l-50 59q-9 11 -5 32q9 50 41 91q144 104 628 182q15 2 19 -4t-2 -21z" />
<glyph unicode="&#xfc3a;" horiz-adv-x="812" arabic-form="isolated" d="M748 814l-19 -45q-6 -16 -30 -20q-407 -60 -544 -131q-17 -9 -7 -19q81 -77 113 -119q62 -86 44 -173q-14 -48 -44 -77q225 -8 344 9q4 1 8 -1q2 -4 1 -8q-10 -43 -14 -52q-6 -14 -16 -15q-246 -30 -372 -155q-81 -80 -84 -177q-6 -164 134 -217q116 -44 339 -33 q95 6 140 12q11 2 11 -8q0 -11 -6 -13q-112 -49 -183 -65q-68 -15 -119 -14q-202 6 -280 80q-79 75 -75 205q6 155 121 292q37 43 95 79l-242 2q-15 3 -3 22q32 49 43 62q1 1 2 2.5t2 2.5q13 15 18 19q13 6 26 9q104 21 132 45q-15 55 -120 160q-5 5 -10 4l-18 -12 q-7 -4 -18 10l-50 59q-9 11 -5 32q9 50 41 91q144 104 628 182q15 2 19 -4t-2 -21zM500 444q2 3 8 2q40 -14 71 -42q4 -4 1 -8l-47 -76q-3 -5 -10 1q-11 9 -70 44q-5 3 -2 6z" />
<glyph unicode="&#xfc3b;" horiz-adv-x="1189" arabic-form="isolated" d="M523 31q31 -244 -51 -307q-108 -83 -207 -84q-99 -2 -156 54q-56 55 -43 152q14 99 87 196q5 6 12 6q6 0 9 -6t-3 -15q-84 -122 -51 -199q39 -90 179 -81q116 8 206 96l-48 680q-3 35 1 50l19 60q13 17 19 -16l1 -4l19 -190v1l1 2q35 80 241 198q161 92 314 154 q14 5 19.5 1t2.5 -17l-15 -63q-3 -14 -16 -19q-114 -41 -291 -139q-181 -100 -226 -146q162 -46 220 -115q49 -59 49 -116q0 -195 -213 -175q-2 0 -6 2q-55 15 -80 92zM526 314q22 -204 76 -220q107 -17 183 53q6 5 3 9q-69 107 -260 158h-2z" />
<glyph unicode="&#xfc3c;" horiz-adv-x="783" arabic-form="isolated" d="M119 128q18 50 26 62q3 6 7 9l1 1q1 0 1 0.5t1 0.5q1 1 2 1t2 1q108 41 132 69q-2 94 -125 212q-5 5 -15 2l-31 -10q-7 -3 -14 7l-57 82q-6 8 -1 25q20 69 58 107q16 16 61 40q129 70 538 137q11 2 15 -3t0 -16l-19 -63q-3 -12 -17 -14q-365 -60 -473 -96 q-55 -17 -77 -38q211 -215 185 -367q-7 -39 -42 -83q-7 -10 -22 -18q55 -24 100 -58q18 -13 10 -36q-4 -14 -8.5 -25.5t-6.5 -18.5l-3 -7q-8 -18 -19 -17q-107 14 -190 -9q-50 -13 -73 -38q-2 -8 8 -66l22 -142q14 -88 17 -121q6 -83 -11 -137q-5 -12 -14 -11q-13 1 -10 27 q6 64 -40 299q-15 87 3 146q19 61 44 89t69 49l-12 4q-12 4 -18 7q-9 4 -4 17z" />
<glyph unicode="&#xfc3d;" horiz-adv-x="981" arabic-form="isolated" d="M901 937q10 4 14 0t3 -15l-8 -69q-2 -11 -14 -15q-355 -130 -535 -243q-8 -6 2 -13q83 -61 129 -103q128 -119 113 -260q-5 -40 -32 -64q-14 -13 -29 -23l30 -3q64 -7 91 -33q15 -14 11 -45q-9 -66 -26 -88q-18 -24 -54 -51q-175 -132 -349 -127q-75 3 -124 43t-61 102 t10 146q22 83 68 143q9 10 15 3q7 -8 1 -18q-62 -93 -57 -165q9 -159 182 -159q174 0 346 148q3 3 -1 7q-31 33 -194 34q-9 0 -4 8l3 6l-3 3v2v3l24 54q38 14 123 56q3 1 3 6q-9 127 -174 232q-6 3 -7 -1l-18 -38q-2 -5 -7 -1q-34 23 -53 40t-26 36q-13 34 5 94q18 59 40 78 q150 128 563 290z" />
<glyph unicode="&#xfc3e;" horiz-adv-x="981" arabic-form="isolated" d="M901 937q10 4 14 0t3 -15l-8 -69q-2 -11 -14 -15q-355 -130 -535 -243q-8 -6 2 -13q83 -61 129 -103q128 -119 113 -260q-5 -40 -32 -64q-14 -13 -29 -23l30 -3q64 -7 91 -33q15 -14 11 -45q-9 -66 -26 -88q-18 -24 -54 -51q-175 -132 -349 -127q-75 3 -124 43t-61 102 t10 146q22 83 68 143q9 10 15 3q7 -8 1 -18q-62 -93 -57 -165q9 -159 182 -159q174 0 346 148q3 3 -1 7q-31 33 -194 34q-9 0 -4 8l3 6l-3 3v2v3l24 54q38 14 123 56q3 1 3 6q-9 127 -174 232q-6 3 -7 -1l-18 -38q-2 -5 -7 -1q-34 23 -53 40t-26 36q-13 34 5 94q18 59 40 78 q150 128 563 290zM391 -303q2 3 8 2q42 -14 71 -41q4 -4 1 -9l-48 -76q-2 -3 -9 2q-4 4 -57 35l-38 -59q-3 -5 -10 1q-11 9 -70 44q-4 3 -1 6l49 73q2 3 8 2q30 -9 60 -33z" />
<glyph unicode="&#xfc3f;" horiz-adv-x="697" arabic-form="isolated" d="M298 322q-8 116 -31 274l-12 41q-1 11 4 20q1 1 4.5 7t9 15t11.5 19q3 6 9 6q5 0 7 -8q11 -40 44 -75q10 -10 1 -20l-21 -29q-4 -6 -3 -21q29 -215 4 -276q-10 -26 -41 -46q212 -6 321 10q4 1 8 -1q2 -4 1 -8q-10 -43 -14 -52q-6 -14 -16 -15q-246 -30 -372 -155 q-81 -80 -84 -177q-6 -164 134 -217q116 -44 339 -33q95 6 140 12q11 2 11 -8q0 -11 -6 -13q-112 -49 -183 -65q-68 -15 -119 -14q-202 6 -280 80q-79 75 -75 205q6 155 121 292q37 43 95 79l-242 2q-15 3 -3 22q40 59 44 63q2 2 3 4q4 4 9.5 11.5t8.5 10.5q9 11 26 11 q76 1 118 12q30 7 29 37zM383 -117q2 3 8 2q40 -14 71 -42q4 -4 1 -8l-47 -76q-3 -5 -10 1q-11 9 -70 44q-5 3 -2 6z" />
<glyph unicode="&#xfc40;" horiz-adv-x="697" arabic-form="isolated" d="M298 322q-8 116 -31 274l-12 41q-1 11 4 20q1 1 4.5 7t9 15t11.5 19q3 6 9 6q5 0 7 -8q11 -40 44 -75q10 -10 1 -20l-21 -29q-4 -6 -3 -21q29 -215 4 -276q-10 -26 -41 -46q212 -6 321 10q4 1 8 -1q2 -4 1 -8q-10 -43 -14 -52q-6 -14 -16 -15q-246 -30 -372 -155 q-81 -80 -84 -177q-6 -164 134 -217q116 -44 339 -33q95 6 140 12q11 2 11 -8q0 -11 -6 -13q-112 -49 -183 -65q-68 -15 -119 -14q-202 6 -280 80q-79 75 -75 205q6 155 121 292q37 43 95 79l-242 2q-15 3 -3 22q40 59 44 63q2 2 3 4q4 4 9.5 11.5t8.5 10.5q9 11 26 11 q76 1 118 12q30 7 29 37z" />
<glyph unicode="&#xfc41;" horiz-adv-x="697" arabic-form="isolated" d="M298 322q-8 116 -31 274l-12 41q-1 11 4 20q1 1 4.5 7t9 15t11.5 19q3 6 9 6q5 0 7 -8q11 -40 44 -75q10 -10 1 -20l-21 -29q-4 -6 -3 -21q29 -215 4 -276q-10 -26 -41 -46q212 -6 321 10q4 1 8 -1q2 -4 1 -8q-10 -43 -14 -52q-6 -14 -16 -15q-246 -30 -372 -155 q-81 -80 -84 -177q-6 -164 134 -217q116 -44 339 -33q95 6 140 12q11 2 11 -8q0 -11 -6 -13q-112 -49 -183 -65q-68 -15 -119 -14q-202 6 -280 80q-79 75 -75 205q6 155 121 292q37 43 95 79l-242 2q-15 3 -3 22q40 59 44 63q2 2 3 4q4 4 9.5 11.5t8.5 10.5q9 11 26 11 q76 1 118 12q30 7 29 37zM500 444q2 3 8 2q40 -14 71 -42q4 -4 1 -8l-47 -76q-3 -5 -10 1q-11 9 -70 44q-5 3 -2 6z" />
<glyph unicode="&#xfc42;" horiz-adv-x="441" arabic-form="isolated" d="M119 128q23 64 34 72q1 0 1 0.5t1 0.5q7 5 24 10q52 12 72 41q-1 47 -10 124q-7 64 -24 166q-17 104 -22 120q-12 46 -8 54l22 45q8 16 14 0q15 -37 58 -69q11 -9 5 -20q-10 -18 -16 -27q-4 -5 -9 -13t-6 -10l26 -224q6 -66 -5 -134q-3 -26 -15 -54l-14 -30 q59 -25 108 -62q18 -13 10 -36q-4 -14 -8.5 -25.5t-6.5 -18.5l-3 -7q-8 -18 -19 -17q-107 14 -190 -9q-50 -13 -73 -38q-2 -8 8 -66l22 -142q14 -88 17 -121q6 -83 -11 -137q-5 -12 -14 -11q-13 1 -10 27q6 64 -40 299q-15 87 3 146q19 61 44 89t69 49l-12 4q-12 4 -18 7 q-9 4 -4 17z" />
<glyph unicode="&#xfc43;" horiz-adv-x="718" arabic-form="isolated" d="M451 130q1 0 4 0.5t4 0.5q4 2 24 10t36 16q6 3 5 12q-14 107 -39 239q-23 122 -31 174l-13 55q-3 14 -1 19q9 25 16 46q3 9 10 9t11 -10q19 -46 47 -71q11 -9 0 -23l-21 -31q4 -21 29 -167q28 -163 25 -209q-3 -44 -14 -68q20 -2 31 -3q64 -7 91 -33q15 -14 11 -45 q-9 -66 -26 -88q-18 -24 -54 -51q-175 -132 -349 -127q-75 3 -124 43t-61 102t10 146q22 83 68 143q9 10 15 3q7 -8 1 -18q-62 -93 -57 -165q9 -159 182 -159q174 0 346 148q3 3 -1 7q-31 33 -194 34q-3 0 -5 2h-1q-3 18 3 33q5 12 19 21q1 0 1 1z" />
<glyph unicode="&#xfc44;" horiz-adv-x="718" arabic-form="isolated" d="M451 130q1 0 4 0.5t4 0.5q4 2 24 10t36 16q6 3 5 12q-14 107 -39 239q-23 122 -31 174l-13 55q-3 14 -1 19q9 25 16 46q3 9 10 9t11 -10q19 -46 47 -71q11 -9 0 -23l-21 -31q4 -21 29 -167q28 -163 25 -209q-3 -44 -14 -68q20 -2 31 -3q64 -7 91 -33q15 -14 11 -45 q-9 -66 -26 -88q-18 -24 -54 -51q-175 -132 -349 -127q-75 3 -124 43t-61 102t10 146q22 83 68 143q9 10 15 3q7 -8 1 -18q-62 -93 -57 -165q9 -159 182 -159q174 0 346 148q3 3 -1 7q-31 33 -194 34q-3 0 -5 2h-1q-3 18 3 33q5 12 19 21q1 0 1 1zM391 -303q2 3 8 2 q42 -14 71 -41q4 -4 1 -9l-48 -76q-2 -3 -9 2q-4 4 -57 35l-38 -59q-3 -5 -10 1q-11 9 -70 44q-4 3 -1 6l49 73q2 3 8 2q30 -9 60 -33z" />
<glyph unicode="&#xfc45;" horiz-adv-x="664" arabic-form="isolated" d="M196 233q274 -13 409 6q4 1 8 -1q2 -4 1 -8q-10 -43 -14 -52q-6 -14 -16 -15q-246 -30 -372 -155q-81 -80 -84 -177q-6 -164 134 -217q116 -44 339 -33q95 6 140 12q11 2 11 -8q0 -11 -6 -13q-112 -49 -183 -65q-68 -15 -119 -14q-202 6 -280 80q-79 75 -75 205 q6 155 121 292q37 43 95 79l-242 2q-15 3 -3 22q36 55 44 63h4q7 15 28 34q85 80 225 130l-19 28q-9 14 -3 28q28 58 47 79q13 15 25 7q76 -41 107 -72q9 -9 3 -29q-9 -26 -49 -77q-6 -7 -40 -15q-169 -36 -268 -114q5 -1 15.5 -1.5t16.5 -0.5zM383 -117q2 3 8 2 q40 -14 71 -42q4 -4 1 -8l-47 -76q-3 -5 -10 1q-11 9 -70 44q-5 3 -2 6z" />
<glyph unicode="&#xfc46;" horiz-adv-x="664" arabic-form="isolated" d="M196 233q274 -13 409 6q4 1 8 -1q2 -4 1 -8q-10 -43 -14 -52q-6 -14 -16 -15q-246 -30 -372 -155q-81 -80 -84 -177q-6 -164 134 -217q116 -44 339 -33q95 6 140 12q11 2 11 -8q0 -11 -6 -13q-112 -49 -183 -65q-68 -15 -119 -14q-202 6 -280 80q-79 75 -75 205 q6 155 121 292q37 43 95 79l-242 2q-15 3 -3 22q36 55 44 63h4q7 15 28 34q85 80 225 130l-19 28q-9 14 -3 28q28 58 47 79q13 15 25 7q76 -41 107 -72q9 -9 3 -29q-9 -26 -49 -77q-6 -7 -40 -15q-169 -36 -268 -114q5 -1 15.5 -1.5t16.5 -0.5z" />
<glyph unicode="&#xfc47;" horiz-adv-x="664" arabic-form="isolated" d="M196 233q274 -13 409 6q4 1 8 -1q2 -4 1 -8q-10 -43 -14 -52q-6 -14 -16 -15q-246 -30 -372 -155q-81 -80 -84 -177q-6 -164 134 -217q116 -44 339 -33q95 6 140 12q11 2 11 -8q0 -11 -6 -13q-112 -49 -183 -65q-68 -15 -119 -14q-202 6 -280 80q-79 75 -75 205 q6 155 121 292q37 43 95 79l-242 2q-15 3 -3 22q36 55 44 63h4q7 15 28 34q85 80 225 130l-19 28q-9 14 -3 28q28 58 47 79q13 15 25 7q76 -41 107 -72q9 -9 3 -29q-9 -26 -49 -77q-6 -7 -40 -15q-169 -36 -268 -114q5 -1 15.5 -1.5t16.5 -0.5zM144 601q2 3 8 2 q40 -14 71 -42q4 -4 1 -8l-47 -76q-3 -5 -10 1q-11 9 -70 44q-5 3 -2 6z" />
<glyph unicode="&#xfc48;" horiz-adv-x="911" arabic-form="isolated" d="M261 204q52 -61 120 -86q74 -27 141 -28q46 1 88 56q14 19 65 110q35 62 80 62q68 -2 93 -166q2 -11 -3 -17l-55 -69q-7 -10 -19 -7q-77 22 -136 72q-47 -131 -113 -131q-91 0 -164 40q-4 2 -4 -3q4 -106 -38 -141q-14 -11 -28 1q-61 55 -71 160q-53 -1 -110 -59 q-11 -12 7 -130q55 -362 41 -417q-6 -24 -14 -28q-9 -5 -16 5t-7 29q-3 97 -39 310q-31 181 5 275q33 83 142 128q6 19 15 32q9 14 20 2zM683 220q35 -34 90 -46q1 43 -29 57t-61 -11z" />
<glyph unicode="&#xfc49;" horiz-adv-x="862" arabic-form="isolated" d="M451 130h2l-1 2v2q12 25 23 36q65 62 147 97l-26 20q-12 9 -5 27q25 62 46 89q10 11 25 8q46 -7 87 -39q53 -41 50 -71q-6 -55 -31 -74q-10 -8 -53 -14q-111 -15 -180 -65q-14 -10 -22 -15q19 0 61 -4q64 -7 91 -33q15 -14 11 -45q-9 -66 -26 -88q-18 -24 -54 -51 q-175 -132 -349 -127q-75 3 -124 43t-61 102t10 146q22 83 68 143q9 10 15 3q7 -8 1 -18q-62 -93 -57 -165q9 -159 182 -159q174 0 346 148q3 3 -1 7q-31 33 -194 34q-9 0 -4 8z" />
<glyph unicode="&#xfc4a;" horiz-adv-x="862" arabic-form="isolated" d="M451 130h2l-1 2v2q12 25 23 36q65 62 147 97l-26 20q-12 9 -5 27q25 62 46 89q10 11 25 8q46 -7 87 -39q53 -41 50 -71q-6 -55 -31 -74q-10 -8 -53 -14q-111 -15 -180 -65q-14 -10 -22 -15q19 0 61 -4q64 -7 91 -33q15 -14 11 -45q-9 -66 -26 -88q-18 -24 -54 -51 q-175 -132 -349 -127q-75 3 -124 43t-61 102t10 146q22 83 68 143q9 10 15 3q7 -8 1 -18q-62 -93 -57 -165q9 -159 182 -159q174 0 346 148q3 3 -1 7q-31 33 -194 34q-9 0 -4 8zM391 -303q2 3 8 2q42 -14 71 -41q4 -4 1 -9l-48 -76q-2 -3 -9 2q-4 4 -57 35l-38 -59 q-3 -5 -10 1q-11 9 -70 44q-4 3 -1 6l49 73q2 3 8 2q30 -9 60 -33z" />
<glyph unicode="&#xfc4b;" horiz-adv-x="647" arabic-form="isolated" d="M88 216q0 1 2 2.5t2 2.5q8 11 12 15h4q18 16 52 35q117 67 154 104q39 39 57 87q19 51 33 76q15 27 37 27q21 0 39 -27q27 -42 21 -180q0 -13 -10 -13t-12 14q-12 110 -51 110q-9 0 -19 -13q-7 -9 -28 -50q-47 -97 -176 -168q-3 -2 -9 -5q274 -13 409 6q4 1 8 -1 q2 -4 1 -8q-10 -43 -14 -52q-6 -14 -16 -15q-246 -30 -372 -155q-81 -80 -84 -177q-6 -164 134 -217q116 -44 339 -33q95 6 140 12q11 2 11 -8q0 -11 -6 -13q-112 -49 -183 -65q-68 -15 -119 -14q-202 6 -280 80q-79 75 -75 205q6 155 121 292q37 43 95 79l-242 2 q-15 3 -3 22q14 21 28 43zM383 -117q2 3 8 2q40 -14 71 -42q4 -4 1 -8l-47 -76q-3 -5 -10 1q-11 9 -70 44q-5 3 -2 6zM415 755q2 3 8 2q40 -14 71 -42q4 -4 1 -8l-47 -76q-3 -5 -10 1q-11 9 -70 44q-5 3 -2 6z" />
<glyph unicode="&#xfc4c;" horiz-adv-x="647" arabic-form="isolated" d="M88 216q0 1 2 2.5t2 2.5q8 11 12 15h4q18 16 52 35q117 67 154 104q39 39 57 87q19 51 33 76q15 27 37 27q21 0 39 -27q27 -42 21 -180q0 -13 -10 -13t-12 14q-12 110 -51 110q-9 0 -19 -13q-7 -9 -28 -50q-47 -97 -176 -168q-3 -2 -9 -5q274 -13 409 6q4 1 8 -1 q2 -4 1 -8q-10 -43 -14 -52q-6 -14 -16 -15q-246 -30 -372 -155q-81 -80 -84 -177q-6 -164 134 -217q116 -44 339 -33q95 6 140 12q11 2 11 -8q0 -11 -6 -13q-112 -49 -183 -65q-68 -15 -119 -14q-202 6 -280 80q-79 75 -75 205q6 155 121 292q37 43 95 79l-242 2 q-15 3 -3 22q14 21 28 43zM415 755q2 3 8 2q40 -14 71 -42q4 -4 1 -8l-47 -76q-3 -5 -10 1q-11 9 -70 44q-5 3 -2 6z" />
<glyph unicode="&#xfc4d;" horiz-adv-x="647" arabic-form="isolated" d="M88 216q0 1 2 2.5t2 2.5q8 11 12 15h4q18 16 52 35q117 67 154 104q39 39 57 87q19 51 33 76q15 27 37 27q21 0 39 -27q27 -42 21 -180q0 -13 -10 -13t-12 14q-12 110 -51 110q-9 0 -19 -13q-7 -9 -28 -50q-47 -97 -176 -168q-3 -2 -9 -5q274 -13 409 6q4 1 8 -1 q2 -4 1 -8q-10 -43 -14 -52q-6 -14 -16 -15q-246 -30 -372 -155q-81 -80 -84 -177q-6 -164 134 -217q116 -44 339 -33q95 6 140 12q11 2 11 -8q0 -11 -6 -13q-112 -49 -183 -65q-68 -15 -119 -14q-202 6 -280 80q-79 75 -75 205q6 155 121 292q37 43 95 79l-242 2 q-15 3 -3 22q14 21 28 43zM144 601q2 3 8 2q40 -14 71 -42q4 -4 1 -8l-47 -76q-3 -5 -10 1q-11 9 -70 44q-5 3 -2 6zM415 755q2 3 8 2q40 -14 71 -42q4 -4 1 -8l-47 -76q-3 -5 -10 1q-11 9 -70 44q-5 3 -2 6z" />
<glyph unicode="&#xfc4e;" horiz-adv-x="594" arabic-form="isolated" d="M119 128q20 55 30 68q0 3 2 5q18 18 78 56q149 94 228 93q36 0 63 -21t11 -54q-7 -14 -29 -44q-30 -39 -39 -7t-46 36q-64 6 -197 -70q1 0 4.5 -1.5t5.5 -2.5q67 -24 125 -68q18 -13 10 -36q-4 -14 -8.5 -25.5t-6.5 -18.5l-3 -7q-8 -18 -19 -17q-107 14 -190 -9 q-50 -13 -73 -38q-2 -8 8 -66l22 -142q14 -88 17 -121q6 -83 -11 -137q-5 -12 -14 -11q-13 1 -10 27q6 64 -40 299q-15 87 3 146q19 61 44 89t69 49l-12 4q-12 4 -18 7q-9 4 -4 17zM405 611q2 3 8 2q40 -14 71 -42q4 -4 1 -8l-47 -76q-3 -5 -10 1q-11 9 -70 44q-5 3 -2 6z " />
<glyph unicode="&#xfc4f;" horiz-adv-x="734" arabic-form="isolated" d="M451 130h1v1q2 2 24 6q80 17 126 69q3 53 -23 95q-28 44 -58 69q-8 7 -4 22l25 76q6 19 17 8q22 -21 43 -67q23 -52 30 -94q8 -48 -6 -98q-14 -51 -43 -83l-5 -5q62 -9 87 -33q15 -14 11 -45q-9 -66 -26 -88q-18 -24 -54 -51q-175 -132 -349 -127q-75 3 -124 43t-61 102 t10 146q22 83 68 143q9 10 15 3q7 -8 1 -18q-62 -93 -57 -165q9 -159 182 -159q174 0 346 148q3 3 -1 7q-29 30 -163 33q-33 -3 -35 -3q-9 0 -4 9l23 47zM520 693q2 3 8 2q40 -14 71 -42q4 -4 1 -8l-47 -76q-3 -5 -10 1q-11 9 -70 44q-5 3 -2 6z" />
<glyph unicode="&#xfc50;" horiz-adv-x="734" arabic-form="isolated" d="M451 130h1v1q2 2 24 6q80 17 126 69q3 53 -23 95q-28 44 -58 69q-8 7 -4 22l25 76q6 19 17 8q22 -21 43 -67q23 -52 30 -94q8 -48 -6 -98q-14 -51 -43 -83l-5 -5q62 -9 87 -33q15 -14 11 -45q-9 -66 -26 -88q-18 -24 -54 -51q-175 -132 -349 -127q-75 3 -124 43t-61 102 t10 146q22 83 68 143q9 10 15 3q7 -8 1 -18q-62 -93 -57 -165q9 -159 182 -159q174 0 346 148q3 3 -1 7q-29 30 -163 33q-33 -3 -35 -3q-9 0 -4 9l23 47zM391 -303q2 3 8 2q42 -14 71 -41q4 -4 1 -9l-48 -76q-2 -3 -9 2q-4 4 -57 35l-38 -59q-3 -5 -10 1q-11 9 -70 44 q-4 3 -1 6l49 73q2 3 8 2q30 -9 60 -33zM520 693q2 3 8 2q40 -14 71 -42q4 -4 1 -8l-47 -76q-3 -5 -10 1q-11 9 -70 44q-5 3 -2 6z" />
<glyph unicode="&#xfc51;" horiz-adv-x="696" arabic-form="isolated" d="M196 233q274 -13 409 6q4 1 8 -1q2 -4 1 -8q-10 -43 -14 -52q-6 -14 -16 -15q-246 -30 -372 -155q-81 -80 -84 -177q-6 -164 134 -217q116 -44 339 -33q95 6 140 12q11 2 11 -8q0 -11 -6 -13q-112 -49 -183 -65q-68 -15 -119 -14q-202 6 -280 80q-79 75 -75 205 q6 155 121 292q37 43 95 79l-242 2q-15 3 -3 22q35 54 43 62q1 7 16 25q16 28 35 38q52 26 83 40q63 28 99 48q-35 15 -26 61q5 29 23 67q19 40 42 60q-3 11 -36 13q-8 5 -6 12q17 51 28 60q11 8 27 8q30 0 122 -81t98 -128q11 -85 -13 -120q-15 -23 -45 -17q-61 13 -157 39 q-13 -8 -229 -112q-19 -9 -28 -12q22 -2 60 -3zM383 -117q2 3 8 2q40 -14 71 -42q4 -4 1 -8l-47 -76q-3 -5 -10 1q-11 9 -70 44q-5 3 -2 6zM478 513q-3 2 -4 -3l-1 -7q-1 -50 -18 -79q103 -28 117 -30q4 -1 5.5 2.5t-0.5 9.5q-15 44 -99 107zM398 521q-36 -2 -56 -30 q-1 -24 13 -34q15 -10 60 -22q18 9 27.5 16.5t8.5 12.5q-6 29 -19.5 43.5t-33.5 13.5z" />
<glyph unicode="&#xfc52;" horiz-adv-x="974" arabic-form="isolated" d="M261 204q52 -61 120 -86q74 -27 141 -28q38 5 69 28q-28 22 -15 61q21 65 73 111q-10 16 -32 19q-12 2 -9 13q24 90 66 88q43 -2 135 -89q91 -86 100 -140q11 -67 -31 -117q-21 -25 -52 -22q-81 9 -171 43q-95 -85 -133 -85q-91 0 -164 40q-4 2 -4 -3q4 -106 -38 -141 q-14 -11 -28 1q-61 55 -71 160q-53 -1 -110 -59q-11 -12 7 -130q55 -362 41 -417q-6 -24 -14 -28q-9 -5 -16 5t-7 29q-3 97 -39 310q-31 181 5 275q33 83 142 128q6 19 15 32q9 14 20 2zM756 237q-4 3 -4 -2q5 -32 -34 -83q116 -36 137 -24q7 3 5 8q-20 48 -104 101z M681 165q33 17 33 26q-4 52 -31 58q-40 9 -75 -35q-10 -12 7 -23t66 -26z" />
<glyph unicode="&#xfc53;" horiz-adv-x="1028" arabic-form="isolated" d="M451 130q2 4 2 5q9 33 35 53q25 20 101 50q27 10 45 21q-36 26 -23 68q21 64 74 111q-8 15 -22 16q-7 2 -9 4q-2 3 0 8q12 45 28.5 67.5t37.5 21.5q41 -1 134 -90q92 -87 101 -140q10 -66 -31 -116q-21 -25 -52 -22q-80 8 -161 39q-80 -52 -193 -84q-10 -3 -11 -7 q0 -1 -0.5 -1t-0.5 -1q37 0 68 -4q64 -7 91 -33q15 -14 11 -45q-9 -66 -26 -88q-18 -24 -54 -51q-175 -132 -349 -127q-75 3 -124 43t-61 102t10 146q22 83 68 143q9 10 15 3q7 -8 1 -18q-62 -93 -57 -165q9 -159 182 -159q174 0 346 148q3 3 -1 7q-31 33 -194 34q-9 0 -4 8 zM802 381q-4 4 -4 -1q0 -46 -22 -84q104 -35 125 -24q7 4 5 9q-15 36 -104 100zM731 308q29 18 29 28q-4 52 -32 58q-39 9 -74 -35q-11 -12 7 -24t70 -27z" />
<glyph unicode="&#xfc54;" horiz-adv-x="1028" arabic-form="isolated" d="M451 130q2 4 2 5q9 33 35 53q25 20 101 50q27 10 45 21q-36 26 -23 68q21 64 74 111q-8 15 -22 16q-7 2 -9 4q-2 3 0 8q12 45 28.5 67.5t37.5 21.5q41 -1 134 -90q92 -87 101 -140q10 -66 -31 -116q-21 -25 -52 -22q-80 8 -161 39q-80 -52 -193 -84q-10 -3 -11 -7 q0 -1 -0.5 -1t-0.5 -1q37 0 68 -4q64 -7 91 -33q15 -14 11 -45q-9 -66 -26 -88q-18 -24 -54 -51q-175 -132 -349 -127q-75 3 -124 43t-61 102t10 146q22 83 68 143q9 10 15 3q7 -8 1 -18q-62 -93 -57 -165q9 -159 182 -159q174 0 346 148q3 3 -1 7q-31 33 -194 34q-9 0 -4 8 zM391 -303q2 3 8 2q42 -14 71 -41q4 -4 1 -9l-48 -76q-2 -3 -9 2q-4 4 -57 35l-38 -59q-3 -5 -10 1q-11 9 -70 44q-4 3 -1 6l49 73q2 3 8 2q30 -9 60 -33zM802 381q-4 4 -4 -1q0 -46 -22 -84q104 -35 125 -24q7 4 5 9q-15 36 -104 100zM731 308q29 18 29 28q-4 52 -32 58 q-39 9 -74 -35q-11 -12 7 -24t70 -27z" />
<glyph unicode="&#xfc55;" horiz-adv-x="647" arabic-form="isolated" d="M88 216q0 1 2 2.5t2 2.5q8 11 12 15h4q18 16 52 35q117 67 154 104q39 39 57 87q19 51 33 76q15 27 37 27q21 0 39 -27q27 -42 21 -180q0 -13 -10 -13t-12 14q-12 110 -51 110q-9 0 -19 -13q-7 -9 -28 -50q-47 -97 -176 -168q-3 -2 -9 -5q274 -13 409 6q4 1 8 -1 q2 -4 1 -8q-10 -43 -14 -52q-6 -14 -16 -15q-246 -30 -372 -155q-81 -80 -84 -177q-6 -164 134 -217q116 -44 339 -33q95 6 140 12q11 2 11 -8q0 -11 -6 -13q-112 -49 -183 -65q-68 -15 -119 -14q-202 6 -280 80q-79 75 -75 205q6 155 121 292q37 43 95 79l-242 2 q-15 3 -3 22q14 21 28 43zM543 66q2 3 8 2q42 -14 71 -41q4 -4 1 -9l-48 -76q-2 -3 -9 2q-4 4 -57 35l-38 -59q-3 -5 -10 1q-11 9 -70 44q-4 3 -1 6l49 73q2 3 8 2q30 -9 60 -33zM383 -117q2 3 8 2q40 -14 71 -42q4 -4 1 -8l-47 -76q-3 -5 -10 1q-11 9 -70 44q-5 3 -2 6z " />
<glyph unicode="&#xfc56;" horiz-adv-x="647" arabic-form="isolated" d="M88 216q0 1 2 2.5t2 2.5q8 11 12 15h4q18 16 52 35q117 67 154 104q39 39 57 87q19 51 33 76q15 27 37 27q21 0 39 -27q27 -42 21 -180q0 -13 -10 -13t-12 14q-12 110 -51 110q-9 0 -19 -13q-7 -9 -28 -50q-47 -97 -176 -168q-3 -2 -9 -5q274 -13 409 6q4 1 8 -1 q2 -4 1 -8q-10 -43 -14 -52q-6 -14 -16 -15q-246 -30 -372 -155q-81 -80 -84 -177q-6 -164 134 -217q116 -44 339 -33q95 6 140 12q11 2 11 -8q0 -11 -6 -13q-112 -49 -183 -65q-68 -15 -119 -14q-202 6 -280 80q-79 75 -75 205q6 155 121 292q37 43 95 79l-242 2 q-15 3 -3 22q14 21 28 43zM543 66q2 3 8 2q42 -14 71 -41q4 -4 1 -9l-48 -76q-2 -3 -9 2q-4 4 -57 35l-38 -59q-3 -5 -10 1q-11 9 -70 44q-4 3 -1 6l49 73q2 3 8 2q30 -9 60 -33z" />
<glyph unicode="&#xfc57;" horiz-adv-x="647" arabic-form="isolated" d="M88 216q0 1 2 2.5t2 2.5q8 11 12 15h4q18 16 52 35q117 67 154 104q39 39 57 87q19 51 33 76q15 27 37 27q21 0 39 -27q27 -42 21 -180q0 -13 -10 -13t-12 14q-12 110 -51 110q-9 0 -19 -13q-7 -9 -28 -50q-47 -97 -176 -168q-3 -2 -9 -5q274 -13 409 6q4 1 8 -1 q2 -4 1 -8q-10 -43 -14 -52q-6 -14 -16 -15q-246 -30 -372 -155q-81 -80 -84 -177q-6 -164 134 -217q116 -44 339 -33q95 6 140 12q11 2 11 -8q0 -11 -6 -13q-112 -49 -183 -65q-68 -15 -119 -14q-202 6 -280 80q-79 75 -75 205q6 155 121 292q37 43 95 79l-242 2 q-15 3 -3 22q14 21 28 43zM543 66q2 3 8 2q42 -14 71 -41q4 -4 1 -9l-48 -76q-2 -3 -9 2q-4 4 -57 35l-38 -59q-3 -5 -10 1q-11 9 -70 44q-4 3 -1 6l49 73q2 3 8 2q30 -9 60 -33zM144 601q2 3 8 2q40 -14 71 -42q4 -4 1 -8l-47 -76q-3 -5 -10 1q-11 9 -70 44q-5 3 -2 6z" />
<glyph unicode="&#xfc58;" horiz-adv-x="594" arabic-form="isolated" d="M119 128q20 55 30 68q0 3 2 5q18 18 78 56q149 94 228 93q36 0 63 -21t11 -54q-7 -14 -29 -44q-30 -39 -39 -7t-46 36q-64 6 -197 -70q1 0 4.5 -1.5t5.5 -2.5q67 -24 125 -68q18 -13 10 -36q-4 -14 -8.5 -25.5t-6.5 -18.5l-3 -7q-8 -18 -19 -17q-107 14 -190 -9 q-50 -13 -73 -38q-2 -8 8 -66l22 -142q14 -88 17 -121q6 -83 -11 -137q-5 -12 -14 -11q-13 1 -10 27q6 64 -40 299q-15 87 3 146q19 61 44 89t69 49l-12 4q-12 4 -18 7q-9 4 -4 17zM533 -63q2 3 8 2q42 -14 71 -41q4 -4 1 -9l-48 -76q-2 -3 -9 2q-4 4 -57 35l-38 -59 q-3 -5 -10 1q-11 9 -70 44q-4 3 -1 6l49 73q2 3 8 2q30 -9 60 -33z" />
<glyph unicode="&#xfc59;" horiz-adv-x="734" arabic-form="isolated" d="M451 130h1v1q2 2 24 6q80 17 126 69q3 53 -23 95q-28 44 -58 69q-8 7 -4 22l25 76q6 19 17 8q22 -21 43 -67q23 -52 30 -94q8 -48 -6 -98q-14 -51 -43 -83l-5 -5q62 -9 87 -33q15 -14 11 -45q-9 -66 -26 -88q-18 -24 -54 -51q-175 -132 -349 -127q-75 3 -124 43t-61 102 t10 146q22 83 68 143q9 10 15 3q7 -8 1 -18q-62 -93 -57 -165q9 -159 182 -159q174 0 346 148q3 3 -1 7q-29 30 -163 33q-33 -3 -35 -3q-9 0 -4 9l23 47zM679 -157q2 3 8 2q42 -14 71 -41q4 -4 1 -9l-48 -76q-2 -3 -9 2q-4 4 -57 35l-38 -59q-3 -5 -10 1q-11 9 -70 44 q-4 3 -1 6l49 73q2 3 8 2q30 -9 60 -33z" />
<glyph unicode="&#xfc5a;" horiz-adv-x="734" arabic-form="isolated" d="M451 130h1v1q2 2 24 6q80 17 126 69q3 53 -23 95q-28 44 -58 69q-8 7 -4 22l25 76q6 19 17 8q22 -21 43 -67q23 -52 30 -94q8 -48 -6 -98q-14 -51 -43 -83l-5 -5q62 -9 87 -33q15 -14 11 -45q-9 -66 -26 -88q-18 -24 -54 -51q-175 -132 -349 -127q-75 3 -124 43t-61 102 t10 146q22 83 68 143q9 10 15 3q7 -8 1 -18q-62 -93 -57 -165q9 -159 182 -159q174 0 346 148q3 3 -1 7q-29 30 -163 33q-33 -3 -35 -3q-9 0 -4 9l23 47zM391 -303q2 3 8 2q42 -14 71 -41q4 -4 1 -9l-48 -76q-2 -3 -9 2q-4 4 -57 35l-38 -59q-3 -5 -10 1q-11 9 -70 44 q-4 3 -1 6l49 73q2 3 8 2q30 -9 60 -33zM679 -157q2 3 8 2q42 -14 71 -41q4 -4 1 -9l-48 -76q-2 -3 -9 2q-4 4 -57 35l-38 -59q-3 -5 -10 1q-11 9 -70 44q-4 3 -1 6l49 73q2 3 8 2q30 -9 60 -33z" />
<glyph unicode="&#xfc5b;" horiz-adv-x="450" arabic-form="isolated" d="M170 322q15 46 29 63q9 10 23 2q132 -73 155 -197q12 -71 -5 -122q-6 -15 -21 -24q-93 -48 -210 -50q-40 -1 -54 25t-2 77q3 11 12 13q7 0 15 -7q20 -16 75 -9q120 15 159 38q3 2 2 12q-18 100 -163 156q-20 8 -15 23zM130 1162q5 15 18 -1q95 -106 65 -268 q-1 -9 -10 -11q-4 -1 -6.5 2t-3.5 9q-14 105 -77 183q-8 9 -5 22zM189 645q2 3 8 2q40 -14 71 -42q4 -4 1 -8l-47 -76q-3 -5 -10 1q-11 9 -70 44q-5 3 -2 6z" />
<glyph unicode="&#xfc5c;" horiz-adv-x="399" arabic-form="isolated" d="M246 279q1 3 3 5q5 2 15 -8q39 -40 58 -107q20 -69 14 -134q-12 -88 -70 -162q-58 -75 -152 -99q-24 -7 -48 1q-113 38 -145 58q-4 3 -4 6q0 4 3 7t9 1q67 -20 118 -14t114 47q95 61 139 144q4 6 2 16q-15 53 -78 131q-3 5 -2 8zM120 1162q5 15 18 -1q95 -106 65 -268 q-1 -9 -10 -11q-4 -1 -6.5 2t-3.5 9q-14 105 -77 183q-8 9 -5 22z" />
<glyph unicode="&#xfc5d;" horiz-adv-x="764" arabic-form="isolated" d="M671 288q-61 32 -152 -19q-60 -35 -83 -100q-4 -12 2 -26q21 -48 128 -54q108 -6 112 -45q10 -77 -45 -122q-144 -116 -327 -123q-219 -9 -242 162q-10 78 38 184q26 55 63 101q10 12 16 2q5 -9 -1 -18q-99 -139 -64 -226q45 -113 200 -110q190 3 308 97q10 7 1 14 q-17 14 -113 20q-98 6 -113 50q-16 45 2 99q36 108 141 183q51 38 91 41q91 6 64 -93q-8 -28 -26 -17zM218 532q5 15 18 -1q95 -106 65 -268q-1 -9 -10 -11q-4 -1 -6.5 2t-3.5 9q-14 105 -77 183q-8 9 -5 22z" />
<glyph unicode="&#xfc5e;" horiz-adv-x="292" arabic-form="isolated" d="M299 983q3 23 15 21q15 -2 14 -21q-3 -52 -20 -89q-20 -43 -56 -46q-23 -1 -44 24q-12 -23 -38 -37q-25 -13 -49 -3q-58 24 -13 140q4 11 12 13q3 1 9 -1q11 -5 7 -22q-17 -59 14 -63q38 -5 60 81q5 17 16 14q13 -3 10 -15q-6 -34 7 -46q7 -5 17 -5q33 0 39 55zM244 1240 q12 3 21 -7q7 -10 7 -29q0 -22 -15 -56q12 -8 20 -12q7 -3 2 -13l-10 -20q-4 -8 -32 8q-45 -59 -81 -78q-17 -10 -22 -2q-4 7 16 21q36 25 70 70q-49 24 -31 62q21 47 55 56zM164 1157q4 1 4.5 -1.5t-1.5 -8.5l-8 -24q-4 -15 -21 -10q-16 5 -23 27t-3 44q11 43 46 81 q83 91 118 73q12 -6 14 -23q1 -17 -10 -36q-11 -16 -24 -3q-24 24 -58 -1q-33 -23 -45 -44q-17 -26 -18 -41q-2 -17 8 -25q10 -10 21 -8zM239 1187q-6 10 -21 4q-16 -6 -10 -12q9 -11 31 -22q6 19 0 30z" />
<glyph unicode="&#xfc5f;" horiz-adv-x="292" arabic-form="isolated" d="M299 983q3 23 15 21q15 -2 14 -21q-3 -52 -20 -89q-20 -43 -56 -46q-23 -1 -44 24q-12 -23 -38 -37q-25 -13 -49 -3q-58 24 -13 140q4 11 12 13q3 1 9 -1q11 -5 7 -22q-17 -59 14 -63q38 -5 60 81q5 17 16 14q13 -3 10 -15q-6 -34 7 -46q7 -5 17 -5q33 0 39 55zM336 -461 q10 7 16.5 9t8 -2.5t-1.5 -14.5l-10 -31q-5 -15 -17 -23l-175 -107q-11 -6 -14.5 -4t-2.5 13l3 19q3 14 16 24zM333 -361q14 9 19.5 7t1.5 -15l-7 -26q-5 -17 -21 -26l-177 -103q-33 -19 -21 10l9 19q7 15 15 20z" />
<glyph unicode="&#xfc60;" horiz-adv-x="292" arabic-form="isolated" d="M299 983q3 23 15 21q15 -2 14 -21q-3 -52 -20 -89q-20 -43 -56 -46q-23 -1 -44 24q-12 -23 -38 -37q-25 -13 -49 -3q-58 24 -13 140q4 11 12 13q3 1 9 -1q11 -5 7 -22q-17 -59 14 -63q38 -5 60 81q5 17 16 14q13 -3 10 -15q-6 -34 7 -46q7 -5 17 -5q33 0 39 55zM125 1074 l180 80q9 4 13 2t3 -10l-4 -34q-2 -11 -9 -14l-176 -61q-11 -4 -16 -1t-3 12l2 14q1 8 10 12z" />
<glyph unicode="&#xfc61;" horiz-adv-x="292" arabic-form="isolated" d="M299 983q3 23 15 21q15 -2 14 -21q-3 -52 -20 -89q-20 -43 -56 -46q-23 -1 -44 24q-12 -23 -38 -37q-25 -13 -49 -3q-58 24 -13 140q4 11 12 13q3 1 9 -1q11 -5 7 -22q-17 -59 14 -63q38 -5 60 81q5 17 16 14q13 -3 10 -15q-6 -34 7 -46q7 -5 17 -5q33 0 39 55zM243 1282 q15 5 26 -9q8 -11 10 -36q1 -21 -20 -70l25 -15q8 -5 2 -17l-12 -24q-7 -11 -40 9q-52 -69 -102 -97q-22 -11 -27 -3q-6 9 20 27q48 34 88 87q-61 30 -39 78q27 58 69 70zM236 1215q-8 14 -25 5t-13 -14q13 -15 39 -28q7 22 -1 37z" />
<glyph unicode="&#xfc62;" horiz-adv-x="292" arabic-form="isolated" d="M299 983q3 23 15 21q15 -2 14 -21q-3 -52 -20 -89q-20 -43 -56 -46q-23 -1 -44 24q-12 -23 -38 -37q-25 -13 -49 -3q-58 24 -13 140q4 11 12 13q3 1 9 -1q11 -5 7 -22q-17 -59 14 -63q38 -5 60 81q5 17 16 14q13 -3 10 -15q-6 -34 7 -46q7 -5 17 -5q33 0 39 55zM354 -317 q13 8 17.5 5.5t0.5 -15.5l-10 -32q-3 -13 -22 -24l-194 -112q-9 -6 -14 -3q-4 3 -4 12v17q0 8 18 23z" />
<glyph unicode="&#xfc63;" horiz-adv-x="292" arabic-form="isolated" d="M299 983q3 23 15 21q15 -2 14 -21q-3 -52 -20 -89q-20 -43 -56 -46q-23 -1 -44 24q-12 -23 -38 -37q-25 -13 -49 -3q-58 24 -13 140q4 11 12 13q3 1 9 -1q11 -5 7 -22q-17 -59 14 -63q38 -5 60 81q5 17 16 14q13 -3 10 -15q-6 -34 7 -46q7 -5 17 -5q33 0 39 55zM123 1298 q5 15 18 -1q95 -106 65 -268q-1 -9 -10 -11q-4 -1 -6.5 2t-3.5 9q-14 105 -77 183q-8 9 -5 22z" />
<glyph unicode="&#xfc64;" horiz-adv-x="550" arabic-form="final" d="M-75 -148q-7 4 -8 9q-1 4 3 8q2 3 10 1q96 -28 171 1q129 51 187 155q0 1 1 3q1 1 1 2q0 37 -51 100q-2 4 -1 6l29 102q4 14 27 -23q4 -6 5 -9q12 -7 16 -7q62 -6 91 20q19 15 41 80q3 11 13 9t11 -16q0 -4 1.5 -14.5t4 -29t4.5 -37.5q7 -65 22 -90q15 -26 47 -32 q33 -6 25 -38q-12 -52 -24 -52q-64 0 -85 60q-12 36 -16 83q-1 14 -2.5 29t-2 21.5t-0.5 7.5q0 4 -3 0q0 -1 -1 -3q-30 -76 -113 -84q1 -2 1 -5q4 -30 -9 -94q-13 -63 -77 -136q-63 -72 -119 -78q-101 -11 -199 51zM503 504q-62 -12 -77 -17q-18 -6 -84 -35q-13 -6 -19 4 q-12 18 39 49q-38 18 -42 42q-8 42 34 99t89 53q30 -3 27 -34t-18 -52q-14 -20 -24 -5q-11 18 -30 19q-20 2 -31 -12q-12 -15 1 -26q33 -31 98 -33q7 0 30 5t29 5q9 0 12 -7t1 -11q-20 -41 -35 -44z" />
<glyph unicode="&#xfc65;" horiz-adv-x="550" arabic-form="final" d="M-75 -148q-7 4 -8 9q-1 4 3 8q2 3 10 1q96 -28 171 1q129 51 187 155q0 1 1 3q1 1 1 2q0 37 -51 100q-2 4 -1 6l29 102q4 14 27 -23q4 -6 5 -9q12 -7 16 -7q62 -6 91 20q19 15 41 80q3 11 13 9t11 -16q0 -4 1.5 -14.5t4 -29t4.5 -37.5q7 -65 22 -90q15 -26 47 -32 q33 -6 25 -38q-12 -52 -24 -52q-64 0 -85 60q-12 36 -16 83q-1 14 -2.5 29t-2 21.5t-0.5 7.5q0 4 -3 0q0 -1 -1 -3q-30 -76 -113 -84q1 -2 1 -5q4 -30 -9 -94q-13 -63 -77 -136q-63 -72 -119 -78q-101 -11 -199 51zM503 504q-62 -12 -77 -17q-18 -6 -84 -35q-13 -6 -19 4 q-12 18 39 49q-38 18 -42 42q-8 42 34 99t89 53q30 -3 27 -34t-18 -52q-14 -20 -24 -5q-11 18 -30 19q-20 2 -31 -12q-12 -15 1 -26q33 -31 98 -33q7 0 30 5t29 5q9 0 12 -7t1 -11q-20 -41 -35 -44zM157 517q2 3 8 2q40 -14 71 -42q4 -4 1 -8l-47 -76q-3 -5 -10 1 q-11 9 -70 44q-5 3 -2 6z" />
<glyph unicode="&#xfc66;" horiz-adv-x="561" arabic-form="final" d="M175 6q17 46 27 63q0 5 2 7q7 10 45 34q121 78 189 78q34 0 81 -63q24 -32 42 -35q56 -10 21 -78q-6 -12 -21 -12q-50 0 -89 64q-32 54 -99 43q-57 -9 -101 -38q2 -1 6.5 -2.5l7.5 -2.5q67 -24 125 -68q18 -13 10 -36q-4 -14 -8.5 -25.5t-6.5 -18.5l-3 -7q-8 -18 -19 -17 q-107 14 -190 -9q-50 -13 -73 -38q-2 -8 8 -66l22 -142q14 -88 17 -121q6 -83 -11 -137q-5 -12 -14 -11q-13 1 -10 27q6 64 -40 299q-15 87 3 146q19 61 44 89t69 49q-1 0 -2.5 0.5l-4.5 1.5t-5 2q-12 4 -18 7q-9 4 -4 17zM476 407q-62 -12 -77 -17q-18 -6 -84 -35 q-13 -6 -19 4q-12 18 39 49q-37 18 -42 42q-8 42 34 99t89 53q30 -3 27 -34t-18 -52q-14 -20 -24 -5q-11 18 -30 19q-20 2 -31 -12q-12 -15 1 -26q33 -31 98 -33q7 0 30 5t29 5q8 0 12 -7q3 -6 1 -11q-20 -41 -35 -44z" />
<glyph unicode="&#xfc67;" horiz-adv-x="761" arabic-form="final" d="M536 235q3 -5 9 -17q1 0 3 -0.5t3 -0.5q77 -14 116 73q6 14 15 12q10 -2 11 -15q12 -131 27 -162t41 -35q27 -4 21 -48t-21 -42q-43 6 -63 41q-18 32 -38 161q-2 6 -4 1q-32 -60 -89 -68h-4q1 -5 1 -15q3 -81 -20 -147q-24 -69 -95 -120t-183 -54q-170 -5 -203 103 q-20 67 1 139q20 71 60 135q4 6 9 6q6 0 8 -5t-1 -12q-72 -132 -42 -193q41 -88 173 -80q95 6 165 41q67 34 90 76q0 1 4 15q2 9 -9 66q-11 54 -30 87q-2 5 0 13l17 63q2 7 5 7q1 2 4 -1q8 -6 19 -24zM700 448q-62 -12 -77 -17q-18 -6 -84 -35q-13 -6 -19 4q-12 18 39 49 q-37 18 -42 42q-8 42 34 99t89 53q30 -3 27 -34t-18 -52q-14 -20 -24 -5q-11 18 -30 19q-20 2 -31 -12q-12 -15 1 -26q33 -31 98 -33q7 0 30 5t29 5q8 0 12 -7q3 -7 1 -11q-20 -41 -35 -44zM295 476q2 3 8 2q40 -14 71 -42q4 -4 1 -8l-47 -76q-3 -5 -10 1q-11 9 -70 44 q-5 3 -2 6z" />
<glyph unicode="&#xfc68;" horiz-adv-x="729" arabic-form="final" d="M436 -95q-39 10 -42 38v5q-3 39 32 97q36 59 89 101q53 43 90 44q23 1 51 -46q27 -46 74 -54q30 -6 23 -34q-14 -58 -23 -56q-27 1 -54 14q-26 12 -52 50t-49 40q-22 1 -73 -27q-41 -23 -53 -41q-1 -1 -1 -3t-1 -3q-9 -27 25 -47q32 -19 79 -25q101 -12 125 -21t34 -32 q9 -21 6 -49q-3 -24 -16 -44q-25 -35 -126 -83t-225 -61q-217 -24 -274 123q-19 52 -3 140q16 87 74 178q4 6 11 6t10 -6q2 -5 -11 -29q-59 -105 -49 -179q14 -96 133 -134q43 -12 96 -8q160 13 326 97h1l1 1q0 3 -5 8q-6 6 -86 15q-81 9 -137 25zM594 407q-62 -12 -77 -17 q-18 -6 -84 -35q-13 -6 -19 4q-12 18 39 49q-37 18 -42 42q-8 42 34 99t89 53q30 -3 27 -34t-18 -52q-14 -20 -24 -5q-11 18 -30 19q-20 2 -31 -12q-12 -15 1 -26q33 -31 98 -33q7 0 30 5t29 5q8 0 12 -7q3 -6 1 -11q-20 -41 -35 -44z" />
<glyph unicode="&#xfc69;" horiz-adv-x="729" arabic-form="final" d="M436 -95q-39 10 -42 38v5q-3 39 32 97q36 59 89 101q53 43 90 44q23 1 51 -46q27 -46 74 -54q30 -6 23 -34q-14 -58 -23 -56q-27 1 -54 14q-26 12 -52 50t-49 40q-22 1 -73 -27q-41 -23 -53 -41q-1 -1 -1 -3t-1 -3q-9 -27 25 -47q32 -19 79 -25q101 -12 125 -21t34 -32 q9 -21 6 -49q-3 -24 -16 -44q-25 -35 -126 -83t-225 -61q-217 -24 -274 123q-19 52 -3 140q16 87 74 178q4 6 11 6t10 -6q2 -5 -11 -29q-59 -105 -49 -179q14 -96 133 -134q43 -12 96 -8q160 13 326 97h1l1 1q0 3 -5 8q-6 6 -86 15q-81 9 -137 25zM594 407q-62 -12 -77 -17 q-18 -6 -84 -35q-13 -6 -19 4q-12 18 39 49q-37 18 -42 42q-8 42 34 99t89 53q30 -3 27 -34t-18 -52q-14 -20 -24 -5q-11 18 -30 19q-20 2 -31 -12q-12 -15 1 -26q33 -31 98 -33q7 0 30 5t29 5q8 0 12 -7q3 -6 1 -11q-20 -41 -35 -44zM404 -426q2 3 8 2q42 -14 71 -41 q4 -4 1 -9l-48 -76q-2 -3 -9 2q-4 4 -57 35l-38 -59q-3 -5 -10 1q-11 9 -70 44q-4 3 -1 6l49 73q2 3 8 2q30 -9 60 -33z" />
<glyph unicode="&#xfc6a;" horiz-adv-x="550" arabic-form="final" d="M-75 -148q-7 4 -8 9q-1 4 3 8q2 3 10 1q96 -28 171 1q129 51 187 155q0 1 1 3q1 1 1 2q0 37 -51 100q-2 4 -1 6l29 102q4 14 27 -23q4 -6 5 -9q12 -7 16 -7q62 -6 91 20q19 15 41 80q3 11 13 9t11 -16q0 -4 1.5 -14.5t4 -29t4.5 -37.5q7 -65 22 -90q15 -26 47 -32 q33 -6 25 -38q-12 -52 -24 -52q-64 0 -85 60q-12 36 -16 83q-1 14 -2.5 29t-2 21.5t-0.5 7.5q0 4 -3 0q0 -1 -1 -3q-30 -76 -113 -84q1 -2 1 -5q4 -30 -9 -94q-13 -63 -77 -136q-63 -72 -119 -78q-101 -11 -199 51zM408 -127q2 3 8 2q40 -14 71 -42q4 -4 1 -8l-47 -76 q-3 -5 -10 1q-11 9 -70 44q-5 3 -2 6z" />
<glyph unicode="&#xfc6b;" horiz-adv-x="550" arabic-form="final" d="M-75 -148q-7 4 -8 9q-1 4 3 8q2 3 10 1q96 -28 171 1q129 51 187 155q0 1 1 3q1 1 1 2q0 37 -51 100q-2 4 -1 6l29 102q4 14 27 -23q4 -6 5 -9q12 -7 16 -7q62 -6 91 20q19 15 41 80q3 11 13 9t11 -16q0 -4 1.5 -14.5t4 -29t4.5 -37.5q7 -65 22 -90q15 -26 47 -32 q33 -6 25 -38q-12 -52 -24 -52q-64 0 -85 60q-12 36 -16 83q-1 14 -2.5 29t-2 21.5t-0.5 7.5q0 4 -3 0q0 -1 -1 -3q-30 -76 -113 -84q1 -2 1 -5q4 -30 -9 -94q-13 -63 -77 -136q-63 -72 -119 -78q-101 -11 -199 51zM408 -127q2 3 8 2q40 -14 71 -42q4 -4 1 -8l-47 -76 q-3 -5 -10 1q-11 9 -70 44q-5 3 -2 6zM157 517q2 3 8 2q40 -14 71 -42q4 -4 1 -8l-47 -76q-3 -5 -10 1q-11 9 -70 44q-5 3 -2 6z" />
<glyph unicode="&#xfc6c;" horiz-adv-x="561" arabic-form="final" d="M175 6q17 46 27 63q0 5 2 7q7 10 45 34q121 78 189 78q34 0 81 -63q24 -32 42 -35q56 -10 21 -78q-6 -12 -21 -12q-50 0 -89 64q-32 54 -99 43q-57 -9 -101 -38q2 -1 6.5 -2.5l7.5 -2.5q67 -24 125 -68q18 -13 10 -36q-4 -14 -8.5 -25.5t-6.5 -18.5l-3 -7q-8 -18 -19 -17 q-107 14 -190 -9q-50 -13 -73 -38q-2 -8 8 -66l22 -142q14 -88 17 -121q6 -83 -11 -137q-5 -12 -14 -11q-13 1 -10 27q6 64 -40 299q-15 87 3 146q19 61 44 89t69 49q-1 0 -2.5 0.5l-4.5 1.5t-5 2q-12 4 -18 7q-9 4 -4 17zM425 -225q2 3 8 2q40 -14 71 -42q4 -4 1 -8 l-47 -76q-3 -5 -10 1q-11 9 -70 44q-5 3 -2 6z" />
<glyph unicode="&#xfc6d;" horiz-adv-x="761" arabic-form="final" d="M536 235q3 -5 9 -17q1 0 3 -0.5t3 -0.5q77 -14 116 73q6 14 15 12q10 -2 11 -15q12 -131 27 -162t41 -35q27 -4 21 -48t-21 -42q-43 6 -63 41q-18 32 -38 161q-2 6 -4 1q-32 -60 -89 -68h-4q1 -5 1 -15q3 -81 -20 -147q-24 -69 -95 -120t-183 -54q-170 -5 -203 103 q-20 67 1 139q20 71 60 135q4 6 9 6q6 0 8 -5t-1 -12q-72 -132 -42 -193q41 -88 173 -80q95 6 165 41q67 34 90 76q0 1 4 15q2 9 -9 66q-11 54 -30 87q-2 5 0 13l17 63q2 7 5 7q1 2 4 -1q8 -6 19 -24zM605 -127q2 3 8 2q40 -14 71 -42q4 -4 1 -8l-47 -76q-3 -5 -10 1 q-11 9 -70 44q-5 3 -2 6zM295 476q2 3 8 2q40 -14 71 -42q4 -4 1 -8l-47 -76q-3 -5 -10 1q-11 9 -70 44q-5 3 -2 6z" />
<glyph unicode="&#xfc6e;" horiz-adv-x="729" arabic-form="final" d="M436 -95q-39 10 -42 38v5q-3 39 32 97q36 59 89 101q53 43 90 44q23 1 51 -46q27 -46 74 -54q30 -6 23 -34q-14 -58 -23 -56q-27 1 -54 14q-26 12 -52 50t-49 40q-22 1 -73 -27q-41 -23 -53 -41q-1 -1 -1 -3t-1 -3q-9 -27 25 -47q32 -19 79 -25q101 -12 125 -21t34 -32 q9 -21 6 -49q-3 -24 -16 -44q-25 -35 -126 -83t-225 -61q-217 -24 -274 123q-19 52 -3 140q16 87 74 178q4 6 11 6t10 -6q2 -5 -11 -29q-59 -105 -49 -179q14 -96 133 -134q43 -12 96 -8q160 13 326 97h1l1 1q0 3 -5 8q-6 6 -86 15q-81 9 -137 25zM601 -332q2 3 8 2 q40 -14 71 -42q4 -4 1 -8l-47 -76q-3 -5 -10 1q-11 9 -70 44q-5 3 -2 6z" />
<glyph unicode="&#xfc6f;" horiz-adv-x="729" arabic-form="final" d="M436 -95q-39 10 -42 38v5q-3 39 32 97q36 59 89 101q53 43 90 44q23 1 51 -46q27 -46 74 -54q30 -6 23 -34q-14 -58 -23 -56q-27 1 -54 14q-26 12 -52 50t-49 40q-22 1 -73 -27q-41 -23 -53 -41q-1 -1 -1 -3t-1 -3q-9 -27 25 -47q32 -19 79 -25q101 -12 125 -21t34 -32 q9 -21 6 -49q-3 -24 -16 -44q-25 -35 -126 -83t-225 -61q-217 -24 -274 123q-19 52 -3 140q16 87 74 178q4 6 11 6t10 -6q2 -5 -11 -29q-59 -105 -49 -179q14 -96 133 -134q43 -12 96 -8q160 13 326 97h1l1 1q0 3 -5 8q-6 6 -86 15q-81 9 -137 25zM404 -426q2 3 8 2 q42 -14 71 -41q4 -4 1 -9l-48 -76q-2 -3 -9 2q-4 4 -57 35l-38 -59q-3 -5 -10 1q-11 9 -70 44q-4 3 -1 6l49 73q2 3 8 2q30 -9 60 -33zM601 -332q2 3 8 2q40 -14 71 -42q4 -4 1 -8l-47 -76q-3 -5 -10 1q-11 9 -70 44q-5 3 -2 6z" />
<glyph unicode="&#xfc70;" horiz-adv-x="550" arabic-form="final" d="M-75 -148q-7 4 -8 9q-1 4 3 8q2 3 10 1q96 -28 171 1q129 51 187 155q0 1 1 3q1 1 1 2q0 37 -51 100q-2 4 -1 6l29 102q4 14 27 -23q4 -6 5 -9q12 -7 16 -7q62 -6 91 20q19 15 41 80q3 11 13 9t11 -16q0 -4 1.5 -14.5t4 -29t4.5 -37.5q7 -65 22 -90q15 -26 47 -32 q33 -6 25 -38q-12 -52 -24 -52q-64 0 -85 60q-12 36 -16 83q-1 14 -2.5 29t-2 21.5t-0.5 7.5q0 4 -3 0q0 -1 -1 -3q-30 -76 -113 -84q1 -2 1 -5q4 -30 -9 -94q-13 -63 -77 -136q-63 -72 -119 -78q-101 -11 -199 51zM468 569q2 3 8 2q42 -14 71 -41q4 -4 1 -9l-48 -76 q-2 -3 -9 2q-4 4 -57 35l-38 -59q-3 -5 -10 1q-11 9 -70 44q-4 3 -1 6l49 73q2 3 8 2q30 -9 60 -33z" />
<glyph unicode="&#xfc71;" horiz-adv-x="550" arabic-form="final" d="M-75 -148q-7 4 -8 9q-1 4 3 8q2 3 10 1q96 -28 171 1q129 51 187 155q0 1 1 3q1 1 1 2q0 37 -51 100q-2 4 -1 6l29 102q4 14 27 -23q4 -6 5 -9q12 -7 16 -7q62 -6 91 20q19 15 41 80q3 11 13 9t11 -16q0 -4 1.5 -14.5t4 -29t4.5 -37.5q7 -65 22 -90q15 -26 47 -32 q33 -6 25 -38q-12 -52 -24 -52q-64 0 -85 60q-12 36 -16 83q-1 14 -2.5 29t-2 21.5t-0.5 7.5q0 4 -3 0q0 -1 -1 -3q-30 -76 -113 -84q1 -2 1 -5q4 -30 -9 -94q-13 -63 -77 -136q-63 -72 -119 -78q-101 -11 -199 51zM468 569q2 3 8 2q42 -14 71 -41q4 -4 1 -9l-48 -76 q-2 -3 -9 2q-4 4 -57 35l-38 -59q-3 -5 -10 1q-11 9 -70 44q-4 3 -1 6l49 73q2 3 8 2q30 -9 60 -33zM157 517q2 3 8 2q40 -14 71 -42q4 -4 1 -8l-47 -76q-3 -5 -10 1q-11 9 -70 44q-5 3 -2 6z" />
<glyph unicode="&#xfc72;" horiz-adv-x="561" arabic-form="final" d="M175 6q17 46 27 63q0 5 2 7q7 10 45 34q121 78 189 78q34 0 81 -63q24 -32 42 -35q56 -10 21 -78q-6 -12 -21 -12q-50 0 -89 64q-32 54 -99 43q-57 -9 -101 -38q2 -1 6.5 -2.5l7.5 -2.5q67 -24 125 -68q18 -13 10 -36q-4 -14 -8.5 -25.5t-6.5 -18.5l-3 -7q-8 -18 -19 -17 q-107 14 -190 -9q-50 -13 -73 -38q-2 -8 8 -66l22 -142q14 -88 17 -121q6 -83 -11 -137q-5 -12 -14 -11q-13 1 -10 27q6 64 -40 299q-15 87 3 146q19 61 44 89t69 49q-1 0 -2.5 0.5l-4.5 1.5t-5 2q-12 4 -18 7q-9 4 -4 17zM436 471q2 3 8 2q42 -14 71 -41q4 -4 1 -9l-48 -76 q-2 -3 -9 2q-4 4 -57 35l-38 -59q-3 -5 -10 1q-11 9 -70 44q-4 3 -1 6l49 73q2 3 8 2q30 -9 60 -33z" />
<glyph unicode="&#xfc73;" horiz-adv-x="761" arabic-form="final" d="M536 235q3 -5 9 -17q1 0 3 -0.5t3 -0.5q77 -14 116 73q6 14 15 12q10 -2 11 -15q12 -131 27 -162t41 -35q27 -4 21 -48t-21 -42q-43 6 -63 41q-18 32 -38 161q-2 6 -4 1q-32 -60 -89 -68h-4q1 -5 1 -15q3 -81 -20 -147q-24 -69 -95 -120t-183 -54q-170 -5 -203 103 q-20 67 1 139q20 71 60 135q4 6 9 6q6 0 8 -5t-1 -12q-72 -132 -42 -193q41 -88 173 -80q95 6 165 41q67 34 90 76q0 1 4 15q2 9 -9 66q-11 54 -30 87q-2 5 0 13l17 63q2 7 5 7q1 2 4 -1q8 -6 19 -24zM660 512q2 3 8 2q42 -14 71 -41q4 -4 1 -9l-48 -76q-2 -3 -9 2 q-4 4 -57 35l-38 -59q-3 -5 -10 1q-11 9 -70 44q-4 3 -1 6l49 73q2 3 8 2q30 -9 60 -33zM295 476q2 3 8 2q40 -14 71 -42q4 -4 1 -8l-47 -76q-3 -5 -10 1q-11 9 -70 44q-5 3 -2 6z" />
<glyph unicode="&#xfc74;" horiz-adv-x="729" arabic-form="final" d="M436 -95q-39 10 -42 38v5q-3 39 32 97q36 59 89 101q53 43 90 44q23 1 51 -46q27 -46 74 -54q30 -6 23 -34q-14 -58 -23 -56q-27 1 -54 14q-26 12 -52 50t-49 40q-22 1 -73 -27q-41 -23 -53 -41q-1 -1 -1 -3t-1 -3q-9 -27 25 -47q32 -19 79 -25q101 -12 125 -21t34 -32 q9 -21 6 -49q-3 -24 -16 -44q-25 -35 -126 -83t-225 -61q-217 -24 -274 123q-19 52 -3 140q16 87 74 178q4 6 11 6t10 -6q2 -5 -11 -29q-59 -105 -49 -179q14 -96 133 -134q43 -12 96 -8q160 13 326 97h1l1 1q0 3 -5 8q-6 6 -86 15q-81 9 -137 25zM559 471q2 3 8 2 q42 -14 71 -41q4 -4 1 -9l-48 -76q-2 -3 -9 2q-4 4 -57 35l-38 -59q-3 -5 -10 1q-11 9 -70 44q-4 3 -1 6l49 73q2 3 8 2q30 -9 60 -33z" />
<glyph unicode="&#xfc75;" horiz-adv-x="729" arabic-form="final" d="M436 -95q-39 10 -42 38v5q-3 39 32 97q36 59 89 101q53 43 90 44q23 1 51 -46q27 -46 74 -54q30 -6 23 -34q-14 -58 -23 -56q-27 1 -54 14q-26 12 -52 50t-49 40q-22 1 -73 -27q-41 -23 -53 -41q-1 -1 -1 -3t-1 -3q-9 -27 25 -47q32 -19 79 -25q101 -12 125 -21t34 -32 q9 -21 6 -49q-3 -24 -16 -44q-25 -35 -126 -83t-225 -61q-217 -24 -274 123q-19 52 -3 140q16 87 74 178q4 6 11 6t10 -6q2 -5 -11 -29q-59 -105 -49 -179q14 -96 133 -134q43 -12 96 -8q160 13 326 97h1l1 1q0 3 -5 8q-6 6 -86 15q-81 9 -137 25zM404 -426q2 3 8 2 q42 -14 71 -41q4 -4 1 -9l-48 -76q-2 -3 -9 2q-4 4 -57 35l-38 -59q-3 -5 -10 1q-11 9 -70 44q-4 3 -1 6l49 73q2 3 8 2q30 -9 60 -33zM559 471q2 3 8 2q42 -14 71 -41q4 -4 1 -9l-48 -76q-2 -3 -9 2q-4 4 -57 35l-38 -59q-3 -5 -10 1q-11 9 -70 44q-4 3 -1 6l49 73q2 3 8 2 q30 -9 60 -33z" />
<glyph unicode="&#xfc76;" horiz-adv-x="550" arabic-form="final" d="M-75 -148q-7 4 -8 9q-1 4 3 8q2 3 10 1q96 -28 171 1q129 51 187 155q0 1 1 3q1 1 1 2q0 37 -51 100q-2 4 -1 6l29 102q4 14 27 -23q4 -6 5 -9q12 -7 16 -7q62 -6 91 20q19 15 41 80q3 11 13 9t11 -16q0 -4 1.5 -14.5t4 -29t4.5 -37.5q7 -65 22 -90q15 -26 47 -32 q33 -6 25 -38q-12 -52 -24 -52q-64 0 -85 60q-12 36 -16 83q-1 14 -2.5 29t-2 21.5t-0.5 7.5q0 4 -3 0q0 -1 -1 -3q-30 -76 -113 -84q1 -2 1 -5q4 -30 -9 -94q-13 -63 -77 -136q-63 -72 -119 -78q-101 -11 -199 51zM464 569q2 3 8 2q42 -14 71 -41q4 -4 1 -9l-48 -76 q-2 -3 -9 2q-2 1 -7.5 4.5t-18.5 11.5t-24 15l-35 -56q-3 -4 -10 2q-11 9 -70 44q-4 3 -1 6l49 72q2 3 8 2q33 -12 53 -27zM395 673q2 3 8 2q42 -14 71 -41q5 -5 2 -9l-48 -76q-3 -4 -10 2q-11 9 -70 44q-5 3 -2 6z" />
<glyph unicode="&#xfc77;" horiz-adv-x="550" arabic-form="final" d="M-75 -148q-7 4 -8 9q-1 4 3 8q2 3 10 1q96 -28 171 1q129 51 187 155q0 1 1 3q1 1 1 2q0 37 -51 100q-2 4 -1 6l29 102q4 14 27 -23q4 -6 5 -9q12 -7 16 -7q62 -6 91 20q19 15 41 80q3 11 13 9t11 -16q0 -4 1.5 -14.5t4 -29t4.5 -37.5q7 -65 22 -90q15 -26 47 -32 q33 -6 25 -38q-12 -52 -24 -52q-64 0 -85 60q-12 36 -16 83q-1 14 -2.5 29t-2 21.5t-0.5 7.5q0 4 -3 0q0 -1 -1 -3q-30 -76 -113 -84q1 -2 1 -5q4 -30 -9 -94q-13 -63 -77 -136q-63 -72 -119 -78q-101 -11 -199 51zM464 569q2 3 8 2q42 -14 71 -41q4 -4 1 -9l-48 -76 q-2 -3 -9 2q-2 1 -7.5 4.5t-18.5 11.5t-24 15l-35 -56q-3 -4 -10 2q-11 9 -70 44q-4 3 -1 6l49 72q2 3 8 2q33 -12 53 -27zM395 673q2 3 8 2q42 -14 71 -41q5 -5 2 -9l-48 -76q-3 -4 -10 2q-11 9 -70 44q-5 3 -2 6zM157 517q2 3 8 2q40 -14 71 -42q4 -4 1 -8l-47 -76 q-3 -5 -10 1q-11 9 -70 44q-5 3 -2 6z" />
<glyph unicode="&#xfc78;" horiz-adv-x="561" arabic-form="final" d="M175 6q17 46 27 63q0 5 2 7q7 10 45 34q121 78 189 78q34 0 81 -63q24 -32 42 -35q56 -10 21 -78q-6 -12 -21 -12q-50 0 -89 64q-32 54 -99 43q-57 -9 -101 -38q2 -1 6.5 -2.5l7.5 -2.5q67 -24 125 -68q18 -13 10 -36q-4 -14 -8.5 -25.5t-6.5 -18.5l-3 -7q-8 -18 -19 -17 q-107 14 -190 -9q-50 -13 -73 -38q-2 -8 8 -66l22 -142q14 -88 17 -121q6 -83 -11 -137q-5 -12 -14 -11q-13 1 -10 27q6 64 -40 299q-15 87 3 146q19 61 44 89t69 49q-1 0 -2.5 0.5l-4.5 1.5t-5 2q-12 4 -18 7q-9 4 -4 17zM432 471q2 3 8 2q42 -14 71 -41q4 -4 1 -9l-48 -76 q-2 -3 -9 2q-2 1 -7.5 4.5t-18.5 11.5t-24 15l-35 -56q-3 -4 -10 2q-11 9 -70 44q-4 3 -1 6l49 72q2 3 8 2q33 -12 53 -27zM363 575q2 3 8 2q42 -14 71 -41q5 -5 2 -9l-48 -76q-3 -4 -10 2q-11 9 -70 44q-5 3 -2 6z" />
<glyph unicode="&#xfc79;" horiz-adv-x="761" arabic-form="final" d="M536 235q3 -5 9 -17q1 0 3 -0.5t3 -0.5q77 -14 116 73q6 14 15 12q10 -2 11 -15q12 -131 27 -162t41 -35q27 -4 21 -48t-21 -42q-43 6 -63 41q-18 32 -38 161q-2 6 -4 1q-32 -60 -89 -68h-4q1 -5 1 -15q3 -81 -20 -147q-24 -69 -95 -120t-183 -54q-170 -5 -203 103 q-20 67 1 139q20 71 60 135q4 6 9 6q6 0 8 -5t-1 -12q-72 -132 -42 -193q41 -88 173 -80q95 6 165 41q67 34 90 76q0 1 4 15q2 9 -9 66q-11 54 -30 87q-2 5 0 13l17 63q2 7 5 7q1 2 4 -1q8 -6 19 -24zM656 512q2 3 8 2q42 -14 71 -41q4 -4 1 -9l-48 -76q-2 -3 -9 2 q-2 1 -7.5 4.5t-18.5 11.5t-24 15l-35 -56q-3 -4 -10 2q-11 9 -70 44q-4 3 -1 6l49 72q2 3 8 2q33 -12 53 -27zM587 616q2 3 8 2q42 -14 71 -41q5 -5 2 -9l-48 -76q-3 -4 -10 2q-11 9 -70 44q-5 3 -2 6zM295 476q2 3 8 2q40 -14 71 -42q4 -4 1 -8l-47 -76q-3 -5 -10 1 q-11 9 -70 44q-5 3 -2 6z" />
<glyph unicode="&#xfc7a;" horiz-adv-x="729" arabic-form="final" d="M436 -95q-39 10 -42 38v5q-3 39 32 97q36 59 89 101q53 43 90 44q23 1 51 -46q27 -46 74 -54q30 -6 23 -34q-14 -58 -23 -56q-27 1 -54 14q-26 12 -52 50t-49 40q-22 1 -73 -27q-41 -23 -53 -41q-1 -1 -1 -3t-1 -3q-9 -27 25 -47q32 -19 79 -25q101 -12 125 -21t34 -32 q9 -21 6 -49q-3 -24 -16 -44q-25 -35 -126 -83t-225 -61q-217 -24 -274 123q-19 52 -3 140q16 87 74 178q4 6 11 6t10 -6q2 -5 -11 -29q-59 -105 -49 -179q14 -96 133 -134q43 -12 96 -8q160 13 326 97h1l1 1q0 3 -5 8q-6 6 -86 15q-81 9 -137 25zM555 471q2 3 8 2 q42 -14 71 -41q4 -4 1 -9l-48 -76q-2 -3 -9 2q-2 1 -7.5 4.5t-18.5 11.5t-24 15l-35 -56q-3 -4 -10 2q-11 9 -70 44q-4 3 -1 6l49 72q2 3 8 2q33 -12 53 -27zM486 575q2 3 8 2q42 -14 71 -41q5 -5 2 -9l-48 -76q-3 -4 -10 2q-11 9 -70 44q-5 3 -2 6z" />
<glyph unicode="&#xfc7b;" horiz-adv-x="729" arabic-form="final" d="M436 -95q-39 10 -42 38v5q-3 39 32 97q36 59 89 101q53 43 90 44q23 1 51 -46q27 -46 74 -54q30 -6 23 -34q-14 -58 -23 -56q-27 1 -54 14q-26 12 -52 50t-49 40q-22 1 -73 -27q-41 -23 -53 -41q-1 -1 -1 -3t-1 -3q-9 -27 25 -47q32 -19 79 -25q101 -12 125 -21t34 -32 q9 -21 6 -49q-3 -24 -16 -44q-25 -35 -126 -83t-225 -61q-217 -24 -274 123q-19 52 -3 140q16 87 74 178q4 6 11 6t10 -6q2 -5 -11 -29q-59 -105 -49 -179q14 -96 133 -134q43 -12 96 -8q160 13 326 97h1l1 1q0 3 -5 8q-6 6 -86 15q-81 9 -137 25zM404 -426q2 3 8 2 q42 -14 71 -41q4 -4 1 -9l-48 -76q-2 -3 -9 2q-4 4 -57 35l-38 -59q-3 -5 -10 1q-11 9 -70 44q-4 3 -1 6l49 73q2 3 8 2q30 -9 60 -33zM555 471q2 3 8 2q42 -14 71 -41q4 -4 1 -9l-48 -76q-2 -3 -9 2q-2 1 -7.5 4.5t-18.5 11.5t-24 15l-35 -56q-3 -4 -10 2q-11 9 -70 44 q-4 3 -1 6l49 72q2 3 8 2q33 -12 53 -27zM486 575q2 3 8 2q42 -14 71 -41q5 -5 2 -9l-48 -76q-3 -4 -10 2q-11 9 -70 44q-5 3 -2 6z" />
<glyph unicode="&#xfc7c;" horiz-adv-x="902" arabic-form="final" d="M642 211q32 85 112 144q32 24 53 24q3 0 9 -2q24 -15 31 -55q13 -76 -17 -143q-17 -35 -36 -64q42 -26 108 -25q11 0 12 -25q6 -65 -12 -65q-98 0 -204 57q-106 -49 -170 -95q30 -2 46 -4q64 -7 91 -33q15 -14 11 -45q-9 -66 -26 -88q-18 -24 -54 -51 q-175 -132 -349 -127q-75 3 -124 43t-61 102t10 146q22 83 68 143q9 10 15 3q7 -8 1 -18q-62 -93 -57 -165q9 -159 182 -159q174 0 346 148q3 3 -1 7q-31 33 -194 34q-3 0 -5 2t1 6l16 37l8 20q74 77 196 138q-30 45 -6 110zM762 273q-48 5 -87 -51q-12 -15 10 -44 q23 -30 52 -30t66 39q3 75 -41 86zM745 645q2 3 8 2q40 -14 71 -42q4 -4 1 -8l-47 -76q-3 -5 -10 1q-11 9 -70 44q-5 3 -2 6z" />
<glyph unicode="&#xfc7d;" horiz-adv-x="902" arabic-form="final" d="M642 211q32 85 112 144q32 24 53 24q3 0 9 -2q24 -15 31 -55q13 -76 -17 -143q-17 -35 -36 -64q42 -26 108 -25q11 0 12 -25q6 -65 -12 -65q-98 0 -204 57q-106 -49 -170 -95q30 -2 46 -4q64 -7 91 -33q15 -14 11 -45q-9 -66 -26 -88q-18 -24 -54 -51 q-175 -132 -349 -127q-75 3 -124 43t-61 102t10 146q22 83 68 143q9 10 15 3q7 -8 1 -18q-62 -93 -57 -165q9 -159 182 -159q174 0 346 148q3 3 -1 7q-31 33 -194 34q-3 0 -5 2t1 6l16 37l8 20q74 77 196 138q-30 45 -6 110zM391 -474q2 3 8 2q42 -14 71 -41q4 -4 1 -9 l-48 -76q-2 -3 -9 2q-4 4 -57 35l-38 -59q-3 -5 -10 1q-11 9 -70 44q-4 3 -1 6l49 73q2 3 8 2q30 -9 60 -33zM762 273q-48 5 -87 -51q-12 -15 10 -44q23 -30 52 -30t66 39q3 75 -41 86zM745 645q2 3 8 2q40 -14 71 -42q4 -4 1 -8l-47 -76q-3 -5 -10 1q-11 9 -70 44 q-5 3 -2 6z" />
<glyph unicode="&#xfc7e;" horiz-adv-x="902" arabic-form="final" d="M642 211q32 85 112 144q32 24 53 24q3 0 9 -2q24 -15 31 -55q13 -76 -17 -143q-17 -35 -36 -64q42 -26 108 -25q11 0 12 -25q6 -65 -12 -65q-98 0 -204 57q-106 -49 -170 -95q30 -2 46 -4q64 -7 91 -33q15 -14 11 -45q-9 -66 -26 -88q-18 -24 -54 -51 q-175 -132 -349 -127q-75 3 -124 43t-61 102t10 146q22 83 68 143q9 10 15 3q7 -8 1 -18q-62 -93 -57 -165q9 -159 182 -159q174 0 346 148q3 3 -1 7q-31 33 -194 34q-3 0 -5 2t1 6l16 37l8 20q74 77 196 138q-30 45 -6 110zM759 667q2 3 8 2q42 -14 71 -41q4 -4 1 -9 l-48 -76q-2 -3 -9 2q-4 4 -57 35l-38 -59q-3 -5 -10 1q-11 9 -70 44q-4 3 -1 6l49 73q2 3 8 2q30 -9 60 -33zM762 273q-48 5 -87 -51q-12 -15 10 -44q23 -30 52 -30t66 39q3 75 -41 86z" />
<glyph unicode="&#xfc7f;" horiz-adv-x="902" arabic-form="final" d="M642 211q32 85 112 144q32 24 53 24q3 0 9 -2q24 -15 31 -55q13 -76 -17 -143q-17 -35 -36 -64q42 -26 108 -25q11 0 12 -25q6 -65 -12 -65q-98 0 -204 57q-106 -49 -170 -95q30 -2 46 -4q64 -7 91 -33q15 -14 11 -45q-9 -66 -26 -88q-18 -24 -54 -51 q-175 -132 -349 -127q-75 3 -124 43t-61 102t10 146q22 83 68 143q9 10 15 3q7 -8 1 -18q-62 -93 -57 -165q9 -159 182 -159q174 0 346 148q3 3 -1 7q-31 33 -194 34q-3 0 -5 2t1 6l16 37l8 20q74 77 196 138q-30 45 -6 110zM391 -474q2 3 8 2q42 -14 71 -41q4 -4 1 -9 l-48 -76q-2 -3 -9 2q-4 4 -57 35l-38 -59q-3 -5 -10 1q-11 9 -70 44q-4 3 -1 6l49 73q2 3 8 2q30 -9 60 -33zM759 667q2 3 8 2q42 -14 71 -41q4 -4 1 -9l-48 -76q-2 -3 -9 2q-4 4 -57 35l-38 -59q-3 -5 -10 1q-11 9 -70 44q-4 3 -1 6l49 73q2 3 8 2q30 -9 60 -33zM762 273 q-48 5 -87 -51q-12 -15 10 -44q23 -30 52 -30t66 39q3 75 -41 86z" />
<glyph unicode="&#xfc80;" horiz-adv-x="717" arabic-form="final" d="M188 94h2q115 -23 202 56q-33 124 -269 198q-14 5 -14 39q0 33 5 48q38 104 244 222q158 91 315 154q14 5 19 1.5t2 -17.5l-14 -63q-3 -14 -16 -19q-116 -42 -288 -137q-179 -99 -222 -143q159 -59 293 -162q85 -66 99 -79q106 -94 171 -102q36 -4 15 -71q-6 -19 -15 -19 q-65 0 -209 139q-45 45 -96 82q3 -29 -2 -75q-21 -129 -154 -154q-35 -8 -66 -3h-2q-47 5 -77 38q-54 56 -51 257q2 120 -8 205q-13 117 -22 158q-9 35 -3 44l29 46q9 13 13 -2q28 -101 29 -363q1 -186 22 -229q19 -40 67 -49h1z" />
<glyph unicode="&#xfc81;" horiz-adv-x="1131" arabic-form="final" d="M523 31q31 -244 -51 -307q-108 -83 -207 -84q-99 -2 -156 54q-56 55 -43 152q14 99 87 196q5 6 12 6q6 0 9 -6t-3 -15q-84 -122 -51 -199q39 -90 179 -81q116 8 206 96l-48 680q-3 35 1 50l19 60q13 17 19 -16l1 -4l26 -265q21 -236 79 -254q116 -23 204 56 q-33 124 -269 198q-14 5 -14 39q0 33 5 48q38 104 244 222q158 91 315 154q14 5 19 1.5t2 -17.5l-14 -63q-3 -14 -16 -19q-116 -42 -288 -137q-179 -99 -222 -143q159 -59 293 -162q85 -66 99 -79q106 -94 171 -102q36 -4 15 -71q-6 -19 -15 -19q-65 0 -209 139 q-45 45 -96 82q3 -29 -2 -75q-21 -129 -154 -154q-36 -8 -67 -3q-1 0 -2 0.5t-2 0.5q-58 14 -83 93z" />
<glyph unicode="&#xfc82;" horiz-adv-x="693" arabic-form="final" d="M135 61q23 64 34 72q1 1 2 1q5 3 9 3q79 10 149 60q-24 79 -111 168l-132 133q-20 23 -16 35q28 65 63 102q17 17 48 31q191 87 650 164q17 3 8 -15l-30 -64q-7 -12 -14 -13q-204 -34 -393 -78q-189 -43 -277 -80q-10 -11 12 -28q122 -91 259 -216l172 -160 q98 -83 126 -86q36 -6 15 -75q-5 -15 -15 -15q-64 -1 -187 132q-120 130 -176 167q24 -75 17 -107q-8 -34 -58 -83l-6 -6q47 -22 87 -52q18 -13 10 -36q-4 -14 -8.5 -25.5t-6.5 -18.5l-3 -7q-8 -18 -19 -17q-107 14 -190 -9q-50 -13 -73 -38q-2 -8 8 -66l22 -142 q14 -88 17 -121q6 -83 -11 -137q-5 -12 -14 -11q-13 1 -10 27q6 64 -40 299q-15 87 3 146q19 61 44 89t69 49l-12 4q-12 4 -18 7q-9 4 -4 17z" />
<glyph unicode="&#xfc83;" horiz-adv-x="959" arabic-form="final" d="M451 31h1q121 45 135 80q-31 100 -258 259q-15 10 -15 11q-6 9 -11 43q-5 33 1 53q5 18 35 57q28 35 48 47q136 84 633 205q11 2 14.5 -1t1.5 -13l-15 -58q-6 -21 -29 -27q-522 -125 -648 -211q-1 -1 -1 -2q0 -3 4 -4q172 -96 356 -239q151 -117 257 -141q36 -8 27 -41 q-13 -49 -27 -49q-40 0 -129 57q-82 51 -153 109q-3 2 -99 70q30 -88 25 -130q-6 -51 -38 -84q96 -16 114 -64q6 -14 -13 -61t-39 -64q-73 -62 -158 -100q-88 -40 -172 -46q-134 -11 -191 66q-81 109 -22 267q15 41 34 72q6 10 15 4t-2 -24q-12 -21 -20 -47 q-36 -121 40 -188q76 -69 212 -43q113 22 226 93q39 25 45 31q-41 32 -193 38q-8 -2 -8 5q-1 2 -1 8l8 52q1 10 10 10z" />
<glyph unicode="&#xfc84;" horiz-adv-x="959" arabic-form="final" d="M451 31h1q121 45 135 80q-31 100 -258 259q-15 10 -15 11q-6 9 -11 43q-5 33 1 53q5 18 35 57q28 35 48 47q136 84 633 205q11 2 14.5 -1t1.5 -13l-15 -58q-6 -21 -29 -27q-522 -125 -648 -211q-1 -1 -1 -2q0 -3 4 -4q172 -96 356 -239q151 -117 257 -141q36 -8 27 -41 q-13 -49 -27 -49q-40 0 -129 57q-82 51 -153 109q-3 2 -99 70q30 -88 25 -130q-6 -51 -38 -84q96 -16 114 -64q6 -14 -13 -61t-39 -64q-73 -62 -158 -100q-88 -40 -172 -46q-134 -11 -191 66q-81 109 -22 267q15 41 34 72q6 10 15 4t-2 -24q-12 -21 -20 -47 q-36 -121 40 -188q76 -69 212 -43q113 22 226 93q39 25 45 31q-41 32 -193 38q-8 -2 -8 5q-1 2 -1 8l8 52q1 10 10 10zM397 -403q2 3 8 2q42 -14 71 -41q4 -4 1 -9l-48 -76q-2 -3 -9 2q-4 4 -57 35l-38 -59q-3 -5 -10 1q-11 9 -70 44q-4 3 -1 6l49 73q2 3 8 2q30 -9 60 -33z " />
<glyph unicode="&#xfc85;" horiz-adv-x="483" arabic-form="final" d="M153 -12q23 64 34 72q4 2 7 2l4 2q116 42 110 205q-5 141 -16 244q-10 87 -14 154q0 11 6 23l21 41q15 32 20 -13l24 -225q24 -225 24 -226q30 -169 110 -177q45 -5 17 -77q-5 -13 -17 -13q-112 0 -149 239q-8 -126 -65 -189l-4 -4q66 -25 124 -68q18 -13 10 -36 q-4 -14 -8.5 -25.5t-6.5 -18.5l-3 -7q-8 -18 -19 -17q-107 14 -190 -9q-50 -13 -73 -38q-2 -8 8 -66l22 -142q14 -88 17 -121q6 -83 -11 -137q-5 -12 -14 -11q-13 1 -10 27q6 64 -40 299q-15 87 3 146q19 61 44 89t69 49l-12 4q-12 4 -18 7q-9 4 -4 17z" />
<glyph unicode="&#xfc86;" horiz-adv-x="665" arabic-form="final" d="M447 -67q16 14 19 17q26 26 41 64q20 51 11 179q0 10 -23 173l-28 192q-3 17 -1 42q1 20 20 85q2 6 11 7t10 -6q41 -313 60 -398q39 -169 98 -198q37 -19 24 -65q-7 -28 -24 -25q-61 7 -114 137q-6 -112 -48 -185q97 -15 123 -36q28 -23 30 -33q3 -39 -10 -75 q-13 -37 -42 -59q-87 -69 -184 -97q-101 -30 -200 -10q-69 15 -112 64q-108 122 51 394q3 7 10 7t10 -5q4 -5 -1 -13q-54 -94 -64 -148q-10 -57 21 -117q31 -59 94 -77q129 -34 290 37q64 29 97 65q-34 21 -175 45z" />
<glyph unicode="&#xfc87;" horiz-adv-x="665" arabic-form="final" d="M447 -67q16 14 19 17q26 26 41 64q20 51 11 179q0 10 -23 173l-28 192q-3 17 -1 42q1 20 20 85q2 6 11 7t10 -6q41 -313 60 -398q39 -169 98 -198q37 -19 24 -65q-7 -28 -24 -25q-61 7 -114 137q-6 -112 -48 -185q97 -15 123 -36q28 -23 30 -33q3 -39 -10 -75 q-13 -37 -42 -59q-87 -69 -184 -97q-101 -30 -200 -10q-69 15 -112 64q-108 122 51 394q3 7 10 7t10 -5q4 -5 -1 -13q-54 -94 -64 -148q-10 -57 21 -117q31 -59 94 -77q129 -34 290 37q64 29 97 65q-34 21 -175 45zM363 -455q2 3 8 2q42 -14 71 -41q4 -4 1 -9l-48 -76 q-2 -3 -9 2q-4 4 -57 35l-38 -59q-3 -5 -10 1q-11 9 -70 44q-4 3 -1 6l49 73q2 3 8 2q30 -9 60 -33z" />
<glyph unicode="&#xfc88;" horiz-adv-x="693" arabic-form="final" d="M77 720q5 7 7 6q5 0 8 -21q18 -155 24 -265q12 -235 13 -252q7 -92 100 -98q94 3 115 48q44 89 108 112q6 3 9 -2q36 -54 96 -102q61 -49 136 -56q19 -1 19 -25q0 -65 -19 -65q-68 0 -141 50q-5 -56 -12 -63q-8 -8 -19 -8q-113 9 -187 99q-3 4 -7 -1q-50 -75 -98 -77 q-131 0 -140 122q-8 113 -11 206q-3 104 -12 168t-24 147q-3 15 3 25zM448 176q-2 3 -7 2q-30 -7 -43 -25q-5 -7 1 -11q38 -32 86 -46q7 -2 8.5 -0.5t-2.5 6.5q-19 24 -43 74z" />
<glyph unicode="&#xfc89;" horiz-adv-x="986" arabic-form="final" d="M261 204q52 -61 120 -86q74 -27 141 -28q94 3 115 48q44 89 108 112q6 3 9 -2q36 -54 96 -102q61 -49 136 -56q19 -1 19 -25q0 -65 -19 -65q-68 0 -141 50q-5 -56 -12 -63q-8 -8 -19 -8q-113 9 -187 99q-3 4 -7 -1q-49 -74 -97 -77h-1q-91 0 -164 40q-4 2 -4 -3 q4 -106 -38 -141q-14 -11 -28 1q-61 55 -71 160q-53 -1 -110 -59q-11 -12 7 -130q55 -362 41 -417q-6 -24 -14 -28q-9 -5 -16 5t-7 29q-3 97 -39 310q-31 181 5 275q33 83 142 128q6 19 15 32q9 14 20 2zM741 176q-2 3 -7 2q-30 -7 -43 -25q-5 -7 1 -11q38 -32 86 -46 q7 -2 8.5 -0.5t-2.5 6.5q-19 24 -43 74z" />
<glyph unicode="&#xfc8a;" horiz-adv-x="550" arabic-form="final" d="M-75 -148q-7 4 -8 9q-1 4 3 8q2 3 10 1q96 -28 171 1q129 51 187 155q0 1 1 3q1 1 1 2q0 37 -51 100q-2 4 -1 6l29 102q4 14 27 -23q4 -6 5 -9q12 -7 16 -7q62 -6 91 20q19 15 41 80q3 11 13 9t11 -16q0 -4 1.5 -14.5t4 -29t4.5 -37.5q7 -65 22 -90q15 -26 47 -32 q33 -6 25 -38q-12 -52 -24 -52q-64 0 -85 60q-12 36 -16 83q-1 14 -2.5 29t-2 21.5t-0.5 7.5q0 4 -3 0q0 -1 -1 -3q-30 -76 -113 -84q1 -2 1 -5q4 -30 -9 -94q-13 -63 -77 -136q-63 -72 -119 -78q-101 -11 -199 51zM413 547q2 3 8 2q40 -14 71 -42q4 -4 1 -8l-47 -76 q-3 -5 -10 1q-11 9 -70 44q-5 3 -2 6z" />
<glyph unicode="&#xfc8b;" horiz-adv-x="550" arabic-form="final" d="M-75 -148q-7 4 -8 9q-1 4 3 8q2 3 10 1q96 -28 171 1q129 51 187 155q0 1 1 3q1 1 1 2q0 37 -51 100q-2 4 -1 6l29 102q4 14 27 -23q4 -6 5 -9q12 -7 16 -7q62 -6 91 20q19 15 41 80q3 11 13 9t11 -16q0 -4 1.5 -14.5t4 -29t4.5 -37.5q7 -65 22 -90q15 -26 47 -32 q33 -6 25 -38q-12 -52 -24 -52q-64 0 -85 60q-12 36 -16 83q-1 14 -2.5 29t-2 21.5t-0.5 7.5q0 4 -3 0q0 -1 -1 -3q-30 -76 -113 -84q1 -2 1 -5q4 -30 -9 -94q-13 -63 -77 -136q-63 -72 -119 -78q-101 -11 -199 51zM157 517q2 3 8 2q40 -14 71 -42q4 -4 1 -8l-47 -76 q-3 -5 -10 1q-11 9 -70 44q-5 3 -2 6zM413 547q2 3 8 2q40 -14 71 -42q4 -4 1 -8l-47 -76q-3 -5 -10 1q-11 9 -70 44q-5 3 -2 6z" />
<glyph unicode="&#xfc8c;" horiz-adv-x="561" arabic-form="final" d="M175 6q17 46 27 63q0 5 2 7q7 10 45 34q121 78 189 78q34 0 81 -63q24 -32 42 -35q56 -10 21 -78q-6 -12 -21 -12q-50 0 -89 64q-32 54 -99 43q-57 -9 -101 -38q2 -1 6.5 -2.5l7.5 -2.5q67 -24 125 -68q18 -13 10 -36q-4 -14 -8.5 -25.5t-6.5 -18.5l-3 -7q-8 -18 -19 -17 q-107 14 -190 -9q-50 -13 -73 -38q-2 -8 8 -66l22 -142q14 -88 17 -121q6 -83 -11 -137q-5 -12 -14 -11q-13 1 -10 27q6 64 -40 299q-15 87 3 146q19 61 44 89t69 49q-1 0 -2.5 0.5l-4.5 1.5t-5 2q-12 4 -18 7q-9 4 -4 17zM386 449q2 3 8 2q40 -14 71 -42q4 -4 1 -8l-47 -76 q-3 -5 -10 1q-11 9 -70 44q-5 3 -2 6z" />
<glyph unicode="&#xfc8d;" horiz-adv-x="761" arabic-form="final" d="M536 235q3 -5 9 -17q1 0 3 -0.5t3 -0.5q77 -14 116 73q6 14 15 12q10 -2 11 -15q12 -131 27 -162t41 -35q27 -4 21 -48t-21 -42q-43 6 -63 41q-18 32 -38 161q-2 6 -4 1q-32 -60 -89 -68h-4q1 -5 1 -15q3 -81 -20 -147q-24 -69 -95 -120t-183 -54q-170 -5 -203 103 q-20 67 1 139q20 71 60 135q4 6 9 6q6 0 8 -5t-1 -12q-72 -132 -42 -193q41 -88 173 -80q95 6 165 41q67 34 90 76q0 1 4 15q2 9 -9 66q-11 54 -30 87q-2 5 0 13l17 63q2 7 5 7q1 2 4 -1q8 -6 19 -24zM295 476q2 3 8 2q40 -14 71 -42q4 -4 1 -8l-47 -76q-3 -5 -10 1 q-11 9 -70 44q-5 3 -2 6zM610 490q2 3 8 2q40 -14 71 -42q4 -4 1 -8l-47 -76q-3 -5 -10 1q-11 9 -70 44q-5 3 -2 6z" />
<glyph unicode="&#xfc8e;" horiz-adv-x="729" arabic-form="final" d="M436 -95q-39 10 -42 38v5q-3 39 32 97q36 59 89 101q53 43 90 44q23 1 51 -46q27 -46 74 -54q30 -6 23 -34q-14 -58 -23 -56q-27 1 -54 14q-26 12 -52 50t-49 40q-22 1 -73 -27q-41 -23 -53 -41q-1 -1 -1 -3t-1 -3q-9 -27 25 -47q32 -19 79 -25q101 -12 125 -21t34 -32 q9 -21 6 -49q-3 -24 -16 -44q-25 -35 -126 -83t-225 -61q-217 -24 -274 123q-19 52 -3 140q16 87 74 178q4 6 11 6t10 -6q2 -5 -11 -29q-59 -105 -49 -179q14 -96 133 -134q43 -12 96 -8q160 13 326 97h1l1 1q0 3 -5 8q-6 6 -86 15q-81 9 -137 25zM504 449q2 3 8 2 q40 -14 71 -42q4 -4 1 -8l-47 -76q-3 -5 -10 1q-11 9 -70 44q-5 3 -2 6z" />
<glyph unicode="&#xfc8f;" horiz-adv-x="729" arabic-form="final" d="M436 -95q-39 10 -42 38v5q-3 39 32 97q36 59 89 101q53 43 90 44q23 1 51 -46q27 -46 74 -54q30 -6 23 -34q-14 -58 -23 -56q-27 1 -54 14q-26 12 -52 50t-49 40q-22 1 -73 -27q-41 -23 -53 -41q-1 -1 -1 -3t-1 -3q-9 -27 25 -47q32 -19 79 -25q101 -12 125 -21t34 -32 q9 -21 6 -49q-3 -24 -16 -44q-25 -35 -126 -83t-225 -61q-217 -24 -274 123q-19 52 -3 140q16 87 74 178q4 6 11 6t10 -6q2 -5 -11 -29q-59 -105 -49 -179q14 -96 133 -134q43 -12 96 -8q160 13 326 97h1l1 1q0 3 -5 8q-6 6 -86 15q-81 9 -137 25zM404 -426q2 3 8 2 q42 -14 71 -41q4 -4 1 -9l-48 -76q-2 -3 -9 2q-4 4 -57 35l-38 -59q-3 -5 -10 1q-11 9 -70 44q-4 3 -1 6l49 73q2 3 8 2q30 -9 60 -33zM504 449q2 3 8 2q40 -14 71 -42q4 -4 1 -8l-47 -76q-3 -5 -10 1q-11 9 -70 44q-5 3 -2 6z" />
<glyph unicode="&#xfc90;" horiz-adv-x="585" arabic-form="final" d="M64 -116q3 49 26 110q24 63 44 90q8 9 16 5q10 -5 2 -17q-79 -144 -41 -218q54 -108 203 -100q173 8 301 115q10 15 -18 22t-89 12t-66 8q-49 27 -13 83q42 64 157 96q31 9 25 -32q-8 -58 -25 -58q-97 0 -98 -26q122 -4 162 -35q16 -13 20 -30q5 -18 -10 -55 q-15 -38 -28 -51q-127 -134 -324 -143q-122 -6 -194 60q-57 53 -50 164zM218 361q5 15 18 -1q95 -106 65 -268q-1 -9 -10 -11q-4 -1 -6.5 2t-3.5 9q-14 105 -77 183q-8 9 -5 22z" />
<glyph unicode="&#xfc91;" horiz-adv-x="550" arabic-form="final" d="M-75 -148q-7 4 -8 9q-1 4 3 8q2 3 10 1q96 -28 171 1q129 51 187 155q0 1 1 3q1 1 1 2q0 37 -51 100q-2 4 -1 6l29 102q4 14 27 -23q4 -6 5 -9q12 -7 16 -7q62 -6 91 20q19 15 41 80q3 11 13 9t11 -16q0 -4 1.5 -14.5t4 -29t4.5 -37.5q7 -65 22 -90q15 -26 47 -32 q33 -6 25 -38q-12 -52 -24 -52q-64 0 -85 60q-12 36 -16 83q-1 14 -2.5 29t-2 21.5t-0.5 7.5q0 4 -3 0q0 -1 -1 -3q-30 -76 -113 -84q1 -2 1 -5q4 -30 -9 -94q-13 -63 -77 -136q-63 -72 -119 -78q-101 -11 -199 51zM460 -79q2 3 8 2q42 -14 71 -41q4 -4 1 -9l-48 -76 q-2 -3 -9 2q-4 4 -57 35l-38 -59q-3 -5 -10 1q-11 9 -70 44q-4 3 -1 6l49 73q2 3 8 2q30 -9 60 -33z" />
<glyph unicode="&#xfc92;" horiz-adv-x="550" arabic-form="final" d="M-75 -148q-7 4 -8 9q-1 4 3 8q2 3 10 1q96 -28 171 1q129 51 187 155q0 1 1 3q1 1 1 2q0 37 -51 100q-2 4 -1 6l29 102q4 14 27 -23q4 -6 5 -9q12 -7 16 -7q62 -6 91 20q19 15 41 80q3 11 13 9t11 -16q0 -4 1.5 -14.5t4 -29t4.5 -37.5q7 -65 22 -90q15 -26 47 -32 q33 -6 25 -38q-12 -52 -24 -52q-64 0 -85 60q-12 36 -16 83q-1 14 -2.5 29t-2 21.5t-0.5 7.5q0 4 -3 0q0 -1 -1 -3q-30 -76 -113 -84q1 -2 1 -5q4 -30 -9 -94q-13 -63 -77 -136q-63 -72 -119 -78q-101 -11 -199 51zM460 -79q2 3 8 2q42 -14 71 -41q4 -4 1 -9l-48 -76 q-2 -3 -9 2q-4 4 -57 35l-38 -59q-3 -5 -10 1q-11 9 -70 44q-4 3 -1 6l49 73q2 3 8 2q30 -9 60 -33zM157 517q2 3 8 2q40 -14 71 -42q4 -4 1 -8l-47 -76q-3 -5 -10 1q-11 9 -70 44q-5 3 -2 6z" />
<glyph unicode="&#xfc93;" horiz-adv-x="561" arabic-form="final" d="M175 6q17 46 27 63q0 5 2 7q7 10 45 34q121 78 189 78q34 0 81 -63q24 -32 42 -35q56 -10 21 -78q-6 -12 -21 -12q-50 0 -89 64q-32 54 -99 43q-57 -9 -101 -38q2 -1 6.5 -2.5l7.5 -2.5q67 -24 125 -68q18 -13 10 -36q-4 -14 -8.5 -25.5t-6.5 -18.5l-3 -7q-8 -18 -19 -17 q-107 14 -190 -9q-50 -13 -73 -38q-2 -8 8 -66l22 -142q14 -88 17 -121q6 -83 -11 -137q-5 -12 -14 -11q-13 1 -10 27q6 64 -40 299q-15 87 3 146q19 61 44 89t69 49q-1 0 -2.5 0.5l-4.5 1.5t-5 2q-12 4 -18 7q-9 4 -4 17zM465 -226q2 3 8 2q42 -14 71 -41q4 -4 1 -9 l-48 -76q-2 -3 -9 2q-4 4 -57 35l-38 -59q-3 -5 -10 1q-11 9 -70 44q-4 3 -1 6l49 73q2 3 8 2q30 -9 60 -33z" />
<glyph unicode="&#xfc94;" horiz-adv-x="761" arabic-form="final" d="M536 235q3 -5 9 -17q1 0 3 -0.5t3 -0.5q77 -14 116 73q6 14 15 12q10 -2 11 -15q12 -131 27 -162t41 -35q27 -4 21 -48t-21 -42q-43 6 -63 41q-18 32 -38 161q-2 6 -4 1q-32 -60 -89 -68h-4q1 -5 1 -15q3 -81 -20 -147q-24 -69 -95 -120t-183 -54q-170 -5 -203 103 q-20 67 1 139q20 71 60 135q4 6 9 6q6 0 8 -5t-1 -12q-72 -132 -42 -193q41 -88 173 -80q95 6 165 41q67 34 90 76q0 1 4 15q2 9 -9 66q-11 54 -30 87q-2 5 0 13l17 63q2 7 5 7q1 2 4 -1q8 -6 19 -24zM657 -79q2 3 8 2q42 -14 71 -41q4 -4 1 -9l-48 -76q-2 -3 -9 2 q-4 4 -57 35l-38 -59q-3 -5 -10 1q-11 9 -70 44q-4 3 -1 6l49 73q2 3 8 2q30 -9 60 -33zM295 476q2 3 8 2q40 -14 71 -42q4 -4 1 -8l-47 -76q-3 -5 -10 1q-11 9 -70 44q-5 3 -2 6z" />
<glyph unicode="&#xfc95;" horiz-adv-x="729" arabic-form="final" d="M436 -95q-39 10 -42 38v5q-3 39 32 97q36 59 89 101q53 43 90 44q23 1 51 -46q27 -46 74 -54q30 -6 23 -34q-14 -58 -23 -56q-27 1 -54 14q-26 12 -52 50t-49 40q-22 1 -73 -27q-41 -23 -53 -41q-1 -1 -1 -3t-1 -3q-9 -27 25 -47q32 -19 79 -25q101 -12 125 -21t34 -32 q9 -21 6 -49q-3 -24 -16 -44q-25 -35 -126 -83t-225 -61q-217 -24 -274 123q-19 52 -3 140q16 87 74 178q4 6 11 6t10 -6q2 -5 -11 -29q-59 -105 -49 -179q14 -96 133 -134q43 -12 96 -8q160 13 326 97h1l1 1q0 3 -5 8q-6 6 -86 15q-81 9 -137 25zM708 -333q2 3 8 2 q42 -14 71 -41q4 -4 1 -9l-48 -76q-2 -3 -9 2q-4 4 -57 35l-38 -59q-3 -5 -10 1q-11 9 -70 44q-4 3 -1 6l49 73q2 3 8 2q30 -9 60 -33z" />
<glyph unicode="&#xfc96;" horiz-adv-x="729" arabic-form="final" d="M436 -95q-39 10 -42 38v5q-3 39 32 97q36 59 89 101q53 43 90 44q23 1 51 -46q27 -46 74 -54q30 -6 23 -34q-14 -58 -23 -56q-27 1 -54 14q-26 12 -52 50t-49 40q-22 1 -73 -27q-41 -23 -53 -41q-1 -1 -1 -3t-1 -3q-9 -27 25 -47q32 -19 79 -25q101 -12 125 -21t34 -32 q9 -21 6 -49q-3 -24 -16 -44q-25 -35 -126 -83t-225 -61q-217 -24 -274 123q-19 52 -3 140q16 87 74 178q4 6 11 6t10 -6q2 -5 -11 -29q-59 -105 -49 -179q14 -96 133 -134q43 -12 96 -8q160 13 326 97h1l1 1q0 3 -5 8q-6 6 -86 15q-81 9 -137 25zM404 -426q2 3 8 2 q42 -14 71 -41q4 -4 1 -9l-48 -76q-2 -3 -9 2q-4 4 -57 35l-38 -59q-3 -5 -10 1q-11 9 -70 44q-4 3 -1 6l49 73q2 3 8 2q30 -9 60 -33zM708 -333q2 3 8 2q42 -14 71 -41q4 -4 1 -9l-48 -76q-2 -3 -9 2q-4 4 -57 35l-38 -59q-3 -5 -10 1q-11 9 -70 44q-4 3 -1 6l49 73 q2 3 8 2q30 -9 60 -33z" />
</font>
</defs>
</svg>
