<?xml version="1.0" standalone="no"?>
<!DOCTYPE svg PUBLIC "-//W3C//DTD SVG 1.1//EN" "http://www.w3.org/Graphics/SVG/1.1/DTD/svg11.dtd" >
<svg xmlns="http://www.w3.org/2000/svg" xmlns:xlink="http://www.w3.org/1999/xlink" version="1.1">
<metadata></metadata>
<defs>
<font id="amiri_typewriterbold" horiz-adv-x="872" >
<font-face units-per-em="2048" ascent="1638" descent="-410" />
<missing-glyph horiz-adv-x="500" />
<glyph horiz-adv-x="0" />
<glyph unicode="&#xd;" />
<glyph unicode=" " />
<glyph unicode="!" d="M305 108q0 54 38.5 92t92.5 38q55 0 93 -38.5t38 -91.5q0 -55 -38 -94t-93 -39q-54 0 -92.5 38.5t-38.5 94.5zM314 1008h244l-29 -637h-184z" />
<glyph unicode="&#x22;" d="M188 1079h218l-28 -407h-163zM465 1079h220l-28 -407h-164z" />
<glyph unicode="#" d="M51 211v151h107l38 286h-91v153h112l26 207h190l-27 -207h139l28 207h189l-28 -207h89v-153h-109l-36 -286h91v-151h-112l-27 -211h-189l27 211h-139l-28 -211h-189l26 211h-87zM348 362h139l38 286h-140z" />
<glyph unicode="$" d="M61 115l111 128q51 -45 103 -69t115 -29v303q-156 52 -224.5 122t-68.5 173q0 119 78.5 194.5t214.5 90.5v217h117v-216q166 -15 287 -114l-112 -118q-77 64 -175 71v-254q157 -51 230.5 -121.5t73.5 -195.5t-80 -211.5t-224 -104.5v-217h-117v213q-102 7 -186.5 45 t-142.5 93zM302 771q0 -39 17 -63.5t71 -48.5v208q-42 -8 -65 -34t-23 -62zM507 150q90 20 91 119q0 45 -19 75.5t-72 56.5v-251z" />
<glyph unicode="%" d="M4 806q0 102 56 165t154 63q96 0 151 -62.5t55 -165.5q0 -105 -55 -167t-151 -62q-99 0 -154.5 62t-55.5 167zM124 9l494 1032l122 -51l-496 -1032zM156 806q0 -57 12 -86t46 -29q33 0 44.5 27.5t11.5 87.5q0 63 -11.5 88.5t-44.5 25.5q-35 0 -46.5 -27.5t-11.5 -86.5z M451 218q0 102 56 165t153 63q96 0 151.5 -61.5t55.5 -166.5t-55.5 -166t-151.5 -61q-99 0 -154 61t-55 166zM602 218q0 -55 12.5 -84t45.5 -29t45 27.5t12 85.5q0 63 -11.5 89.5t-45.5 26.5q-35 0 -46.5 -28t-11.5 -88z" />
<glyph unicode="&#x26;" d="M54 288q0 116 57.5 183.5t164.5 94.5v5q-172 45 -171 219q0 68 38.5 123t107.5 87t155 32q90 0 157 -26t125 -89l-124 -106q-33 35 -62 49.5t-70 14.5q-51 0 -78.5 -30.5t-27.5 -84.5q0 -57 37 -93.5t96 -36.5h381v-147h-96v-381q-52 -55 -134 -91t-201 -36 q-112 0 -192 40t-121.5 111.5t-41.5 161.5zM279 305q0 -74 37 -118.5t106 -44.5q35 0 64 11t46 30v300h-86q-81 0 -124 -52t-43 -126z" />
<glyph unicode="'" d="M327 1079h217l-26 -407h-163z" />
<glyph unicode="(" d="M562 1929l102 -73q-655 -910 -1 -1775l-100 -75q-710 938 -1 1923z" />
<glyph unicode=")" d="M202 1852l99 77q723 -929 27 -1923l-103 71q643 918 -23 1775z" />
<glyph unicode="*" d="M113 465l57 181l199 -92l-32 218h197l-31 -219l198 93l59 -181l-216 -40l154 -159l-159 -115l-104 195l-101 -196l-158 115l151 161z" />
<glyph unicode="+" d="M121 366v176h219v227h191v-227h221v-176h-221v-226h-191v226h-219z" />
<glyph unicode="," d="M273 -295l75 308q-32 20 -50.5 54.5t-18.5 76.5q0 65 45 110.5t112 45.5q69 0 114 -45.5t45 -112.5q0 -41 -13 -80.5t-50 -119.5l-105 -237h-154z" />
<glyph unicode="-" d="M157 366v178h558v-178h-558z" />
<glyph unicode="." d="M275 138q0 66 47 114t114 48t114.5 -48t47.5 -114q0 -67 -47.5 -115t-114.5 -48t-114 48t-47 115z" />
<glyph unicode="/" d="M42 -80l611 1268l177 -83l-609 -1268z" />
<glyph unicode="0" d="M73 506q0 252 92 390t271 138t271.5 -138t92.5 -390q0 -253 -92.5 -392t-271.5 -139t-271 139t-92 392zM295 506q0 -199 34.5 -282t106.5 -83q74 0 107 83t33 282q0 196 -34.5 278.5t-105.5 82.5q-72 0 -106.5 -84t-34.5 -277zM340 502q0 39 27 66.5t68 27.5 q40 0 68 -27.5t28 -66.5q0 -41 -28 -68.5t-68 -27.5q-41 0 -68 27.5t-27 68.5z" />
<glyph unicode="1" d="M84 810l326 198h204v-834h187v-174h-654v174h243v608l-208 -131z" />
<glyph unicode="2" d="M58 861q60 83 143.5 128t199.5 45q111 0 189.5 -39.5t118.5 -105.5t40 -145q0 -83 -38 -160t-124.5 -172t-244.5 -236h430l-25 -176h-668v163q179 173 267.5 269.5t128.5 164t40 127.5q0 63 -35 97.5t-101 34.5q-57 0 -99 -24t-82 -77z" />
<glyph unicode="3" d="M26 126l130 121q83 -96 209 -96q77 0 123.5 39.5t46.5 109.5q0 151 -170 151h-92l27 157h64q70 0 111 34t41 98q0 57 -40.5 89.5t-106.5 32.5q-109 0 -200 -87l-118 122q141 137 344 137q105 0 183 -35t119.5 -94t41.5 -130q0 -93 -54.5 -152.5t-152.5 -88.5 q238 -32 239 -250q0 -86 -47.5 -156.5t-136 -111.5t-206.5 -41q-111 0 -201 39.5t-154 111.5z" />
<glyph unicode="4" d="M65 212v152l280 670l194 -73l-237 -577h181l26 243h195v-243h100v-172h-100v-212h-220l-1 212h-418z" />
<glyph unicode="5" d="M57 126l132 121q36 -47 83.5 -71.5t101.5 -24.5q80 0 128 49t48 127q0 173 -137 173q-63 0 -122 -33h-156v541h614l-26 -165h-368v-218q71 33 148 34q79 0 143.5 -40t102.5 -114.5t38 -172.5q0 -102 -49.5 -183.5t-140 -127.5t-206.5 -46q-106 0 -191 40t-143 111z" />
<glyph unicode="6" d="M73 455q0 170 53 301t152 204.5t232 73.5q124 0 218 -66l-87 -139q-58 41 -128 40q-84 0 -138.5 -74.5t-61.5 -209.5q44 45 99.5 68t110.5 23q80 0 144 -39t101.5 -115.5t37.5 -179.5q0 -102 -44.5 -185.5t-125.5 -132.5t-188 -49q-189 0 -282 134.5t-93 345.5zM313 441 q1 -156 32.5 -228.5t105.5 -72.5q62 0 93.5 52t31.5 137q0 100 -28.5 144.5t-83.5 44.5q-41 0 -80 -20.5t-71 -56.5z" />
<glyph unicode="7" d="M99 835v173h675v-156l-390 -875l-218 68l375 790h-442z" />
<glyph unicode="8" d="M63 268q0 84 48.5 148.5t135.5 102.5q-80 51 -112.5 102.5t-32.5 133.5q0 84 43.5 147t120 97.5t172.5 34.5q97 0 172.5 -33t118 -93t42.5 -142q0 -70 -37.5 -120.5t-118.5 -97.5q195 -99 195 -275q0 -80 -43.5 -148t-128.5 -109t-206 -41q-118 0 -201.5 40t-125.5 106.5 t-42 146.5zM292 282q0 -65 37 -103.5t109 -38.5q71 0 106.5 38.5t35.5 96.5q0 49 -19.5 80.5t-59 54t-113.5 48.5q-96 -61 -96 -176zM320 755q0 -53 35 -88t112 -64q48 35 67 70t19 80q0 57 -29.5 90.5t-85.5 33.5q-57 0 -87.5 -31.5t-30.5 -90.5z" />
<glyph unicode="9" d="M64 670q0 108 48 190t131 128t187 46q181 0 276 -109t95 -294q0 -193 -65.5 -327t-200 -218.5t-347.5 -129.5l-48 162q180 45 280.5 120t133.5 192q-47 -41 -96 -61.5t-109 -20.5q-79 0 -144 40.5t-103 114t-38 167.5zM295 678q0 -88 34.5 -128.5t90.5 -40.5q74 0 144 58 q1 109 -9.5 173t-39.5 96.5t-86 32.5q-64 0 -99 -47t-35 -144z" />
<glyph unicode=":" d="M172 251.5q0 96.5 97 96.5t97 -96.5t-97 -96.5t-97 96.5zM178 775.5q0 96.5 97 97t97 -96.5t-97 -97t-97 96.5z" />
<glyph unicode=";" d="M278 -288l71 298q-31 20 -48 53.5t-17 73.5q0 64 43.5 106.5t108.5 42.5q66 0 108.5 -43.5t42.5 -107.5q0 -38 -13 -78.5t-46 -114.5l-101 -230h-149zM284 631q0 63 44 108t108 45t107.5 -45t43.5 -108t-43.5 -107t-107.5 -44t-108 44.5t-44 106.5z" />
<glyph unicode="&#x3c;" d="M102 374v164l568 353l102 -158l-472 -276l472 -271l-105 -164z" />
<glyph unicode="=" d="M106 211v179h660v-179h-660zM106 515v180h660v-180h-660z" />
<glyph unicode="&#x3e;" d="M102 179l471 278l-471 269l102 165l568 -352v-165l-567 -352z" />
<glyph unicode="?" d="M81 877q134 157 349 157q107 0 182.5 -33.5t114 -89t38.5 -121.5q0 -60 -21 -102t-51.5 -69t-80.5 -61q-60 -39 -89 -71.5t-29 -85.5v-30h-209v38q0 68 22 114.5t52.5 75t76.5 60.5q47 32 68 54.5t21 55.5q0 39 -32 61t-84 22q-49 0 -96 -22.5t-86 -66.5zM262 108 q0 54 38.5 92t92.5 38q53 0 92.5 -38.5t39.5 -91.5q0 -54 -38.5 -93.5t-93.5 -39.5q-54 0 -92.5 38.5t-38.5 94.5z" />
<glyph unicode="@" d="M-3 865q99 87 200 128t220 41q246 0 350 -156.5t104 -447.5q0 -195 -19.5 -317t-70 -186t-140.5 -64q-79 0 -121.5 56t-52.5 145h-6q-26 -60 -78.5 -97.5t-125.5 -37.5q-122 0 -178.5 90t-56.5 241q0 185 77.5 288t232.5 103q60 0 123 -16t121 -48v-436q0 -79 13.5 -112 t44.5 -33q28 0 41 39t16.5 121.5t3.5 250.5q0 161 -24.5 264t-88 156.5t-176.5 53.5q-81 0 -158.5 -31t-158.5 -102zM228 260q0 -102 15.5 -144.5t56.5 -42.5q42 0 59.5 29t22.5 74v318q-26 13 -55 13q-39 0 -60 -23t-30 -75.5t-9 -148.5z" />
<glyph unicode="A" d="M-16 0l308 1008h290l308 -1008h-256l-52 218h-296l-52 -218h-250zM324 390h218l-109 446z" />
<glyph unicode="B" d="M81 0v1008h320q173 0 279.5 -60.5t106.5 -197.5q0 -86 -52.5 -141t-132.5 -75q96 -16 162 -72t66 -167q0 -161 -114 -228t-300 -67h-335zM320 174h87q83 0 130.5 28t47.5 103q0 76 -43 108t-125 32h-97v-271zM320 605h81q76 0 111 28.5t35 92.5q0 59 -37 86t-117 27h-73 v-234z" />
<glyph unicode="C" d="M49 506q0 164 61.5 283.5t169 182t241.5 62.5q104 0 179.5 -27.5t142.5 -83.5l-116 -141q-92 74 -201 74q-103 0 -166 -87t-63 -263t62.5 -261t171.5 -85q67 0 115 23t103 67l107 -138q-134 -137 -338 -137q-138 0 -243.5 61t-165.5 181t-60 289z" />
<glyph unicode="D" d="M76 0v1008h254q228 0 366.5 -107t138.5 -392q0 -509 -487 -509h-272zM314 173h51q109 0 166.5 75t57.5 261q0 187 -58 256.5t-166 69.5h-51v-662z" />
<glyph unicode="E" d="M135 0v1008h659l-25 -170h-395v-243h349v-166h-349v-257h420v-172h-659z" />
<glyph unicode="F" d="M157 0v1008h662l-24 -170h-398v-267h352v-171h-352v-400h-240z" />
<glyph unicode="G" d="M33 506q0 167 61.5 286.5t168 180.5t239.5 61q103 0 179.5 -33t140.5 -92l-126 -130q-48 42 -89 61t-94 19q-109 0 -171.5 -86.5t-62.5 -267.5q0 -195 46.5 -275t149.5 -80q68 0 126 30v231h-127l-23 166h375v-500q-166 -102 -352 -102q-215 0 -328 136t-113 395z" />
<glyph unicode="H" d="M76 0v1008h238v-387h244v387h239v-1008h-239v425h-244v-425h-238z" />
<glyph unicode="I" d="M109 0v176h208v657h-208v175h654v-175h-208v-657h208v-176h-654z" />
<glyph unicode="J" d="M57 73l90 147q52 -35 97 -49.5t104 -14.5q80 0 130 51.5t50 153.5v472h-308v175h546v-646q0 -177 -106.5 -280.5t-298.5 -103.5q-93 0 -164 23.5t-140 71.5z" />
<glyph unicode="K" d="M86 0v1008h238v-1008h-238zM332 538l274 470h250l-285 -453l313 -555h-275z" />
<glyph unicode="L" d="M135 0v1008h239v-819h436l-23 -189h-652z" />
<glyph unicode="M" d="M25 0l56 1008h246l112 -652l106 652h246l57 -1008h-210l-11 432q-1 32 -2 87q0 73 4.5 142t10.5 145l-114 -634h-180l-124 634q16 -167 16 -301l-1 -78l-7 -427h-205z" />
<glyph unicode="N" d="M76 0v1008h298l256 -807q-35 224 -35 421v386h202v-1008h-290l-264 810q15 -111 25 -213.5t10 -217.5v-379h-202z" />
<glyph unicode="O" d="M33 505q0 246 104 387.5t299 141.5q196 0 299.5 -140.5t103.5 -388.5q0 -246 -104 -388t-299 -142q-196 0 -299.5 140.5t-103.5 389.5zM278 505q0 -186 37 -270.5t121 -84.5q86 0 122.5 84t36.5 271q0 186 -37 270t-122 84q-84 0 -121 -84t-37 -270z" />
<glyph unicode="P" d="M90 0v1008h317q209 0 320 -82.5t111 -246.5q0 -170 -107 -256.5t-292 -86.5h-110v-336h-239zM329 507h94q81 0 125.5 42.5t44.5 129.5q0 159 -182 159h-82v-331z" />
<glyph unicode="Q" d="M47 505q0 247 100 388t294 141q195 0 294.5 -139.5t99.5 -389.5q0 -339 -211 -447q122 -20 189.5 -72.5t108.5 -170.5l-195 -67q-35 83 -71.5 132t-92.5 74.5t-141 25.5q-186 0 -280.5 137t-94.5 388zM294 505q0 -189 32.5 -272t114.5 -83q58 0 89 37t44 113.5t13 204.5 q0 127 -13 203.5t-45 113t-88 36.5q-57 0 -89 -37t-45 -113.5t-13 -202.5z" />
<glyph unicode="R" d="M84 0v1008h317q208 0 311.5 -76t103.5 -231q0 -102 -54.5 -171t-146.5 -105l263 -425h-270l-218 385h-67v-385h-239zM323 550h88q79 0 119 36t40 115q0 73 -41.5 106t-127.5 33h-78v-290z" />
<glyph unicode="S" d="M17 121l121 133q114 -101 269 -101h3q76 0 121.5 32.5t45.5 90.5q0 55 -38.5 86.5t-143.5 63.5q-177 54 -251 126.5t-74 187.5q0 90 50 157t136.5 102t192.5 35q222 0 361 -131l-112 -129q-51 42 -110 63t-121 21q-70 0 -110 -25.5t-40 -73.5q0 -32 18 -54t60.5 -40.5 t126.5 -45.5q154 -47 229 -120t75 -204q0 -94 -49.5 -167t-142 -113t-218.5 -40q-250 0 -399 146z" />
<glyph unicode="T" d="M32 824v184h816l-24 -184h-270v-824h-238v824h-284z" />
<glyph unicode="U" d="M61 337v671h240v-582q0 -97 10 -155.5t40 -88t85 -29.5t85 29.5t40 88t10 155.5v582h240v-671q0 -105 -42 -187t-126.5 -128.5t-206.5 -46.5q-183 0 -279 97.5t-96 264.5z" />
<glyph unicode="V" d="M0 1008h253l188 -822l189 822h244l-291 -1008h-294z" />
<glyph unicode="W" d="M-4 1008h222l35 -804l83 687h206l77 -687l50 804h208l-118 -1008h-247l-74 721l-82 -721h-251z" />
<glyph unicode="X" d="M6 0l285 535l-263 473h257l151 -323l156 323h251l-267 -463l292 -545h-257l-178 384l-174 -384h-253z" />
<glyph unicode="Y" d="M-12 1008h262l191 -434l191 434h252l-329 -630v-378h-238v377z" />
<glyph unicode="Z" d="M57 0v179l478 644h-426v185h697v-181l-469 -637h480l-25 -190h-735z" />
<glyph unicode="[" d="M227 -179v1376h448v-172h-232v-1034h232v-170h-448z" />
<glyph unicode="\" d="M42 1105l179 83l609 -1268l-179 -83z" />
<glyph unicode="]" d="M198 -7h231v1032h-231v172h448v-1376h-448v172z" />
<glyph unicode="^" d="M57 766l275 461h209l275 -461h-224l-157 290l-151 -290h-227z" />
<glyph unicode="_" d="M73 -90h727v-180h-727v180z" />
<glyph unicode="`" d="M237 1041l89 173l317 -193l-63 -117z" />
<glyph unicode="a" d="M51 218q0 125 99 194t277 69h104v28q0 119 -153 119q-39 0 -98 -11t-114 -30l-53 153q74 28 155 43t146 15q337 0 338 -273v-303q0 -42 11.5 -62t39.5 -31l-48 -151q-70 7 -116.5 31t-72.5 71q-44 -51 -111 -78t-142 -27q-119 0 -190.5 68t-71.5 175zM288 234 q0 -45 27 -69.5t76 -24.5q39 0 79 22.5t61 61.5v126h-57q-186 0 -186 -116z" />
<glyph unicode="b" d="M102 0v1079l230 25v-410q36 49 87.5 76.5t109.5 27.5q144 0 214.5 -107.5t70.5 -302.5q0 -121 -36 -214t-106 -146t-167 -53q-58 0 -107.5 25t-83.5 70l-9 -70h-203zM332 212q45 -70 113 -70q132 0 132 243q0 135 -30.5 189t-89.5 54q-71 0 -125 -90v-326z" />
<glyph unicode="c" d="M100 381q0 121 49.5 215.5t140.5 148t213 53.5q86 0 154.5 -24t127.5 -73l-99 -138q-84 58 -173 58q-173 0 -173 -240q0 -121 45 -172.5t127 -51.5q43 0 84 16.5t87 48.5l102 -145q-55 -47 -127.5 -74.5t-158.5 -27.5q-124 0 -213.5 51t-137.5 142.5t-48 212.5z" />
<glyph unicode="d" d="M58 388q0 119 38 212.5t107.5 145.5t162.5 52q105 0 175 -72v378l230 -25v-1079h-204l-12 84q-35 -49 -88.5 -79t-124.5 -30q-140 0 -212 110.5t-72 302.5zM295 387q0 -134 31.5 -188.5t87.5 -54.5q73 0 127 89v333q-25 32 -52 48t-62 16q-62 0 -97 -59t-35 -184z" />
<glyph unicode="e" d="M67 385q0 116 44.5 210t129.5 148.5t202 54.5q111 0 192.5 -47t126 -136.5t44.5 -213.5q0 -48 -5 -83h-500q22 -176 186 -176q99 0 198 64l91 -125q-57 -49 -135 -77.5t-173 -28.5q-129 0 -219.5 52t-136 144t-45.5 214zM298 458h284q-3 186 -139 186q-62 0 -100 -45.5 t-45 -140.5z" />
<glyph unicode="f" d="M111 564v160h162v111q0 119 84 194t236 75q149 -1 265 -50l-64 -150q-74 29 -164 29q-68 0 -98 -24.5t-30 -81.5v-103h251l-26 -160h-225v-564h-229v564h-162z" />
<glyph unicode="g" d="M45 -74h204q0 -36 13.5 -56.5t51.5 -31t111 -10.5q102 0 140 23.5t38 65.5q0 35 -28 56t-84 21h-122q-119 0 -178.5 43t-59.5 110q0 44 22.5 82.5t63.5 64.5q-73 39 -105 92t-32 129q0 86 43.5 149.5t122 98t179.5 34.5h24q101 0 173 23q82 25 166 76l52 -169 q-76 -31 -222 -31q76 -33 113 -79.5t37 -119.5q0 -74 -41 -133t-115 -92.5t-171 -33.5q-48 0 -91 9q-12 -6 -18 -18t-6 -25q0 -22 16.5 -34.5t67.5 -12.5h128q87 0 154 -29t103.5 -80t36.5 -115q0 -121 -105.5 -188.5t-307.5 -67.5q-144 0 -226 30t-115 83.5t-33 135.5z M313 518q0 -63 32 -98t85 -35q57 0 87.5 34.5t30.5 101.5q0 126 -118 126q-55 0 -86 -35t-31 -94z" />
<glyph unicode="h" d="M102 0v1079l230 23v-407q97 103 226 103q102 0 157.5 -60t55.5 -171v-567h-230v503q0 70 -16 97.5t-58 27.5q-35 0 -68 -24t-67 -70v-534h-230z" />
<glyph unicode="i" d="M125 0v157h218v458h-211v157h441v-615h198v-157h-646zM298 1047q0 55 38.5 92t98.5 37q59 0 97 -37t38 -92q0 -57 -38 -93.5t-97 -36.5q-60 0 -98.5 37.5t-38.5 92.5z" />
<glyph unicode="j" d="M102 -147q124 28 200 68.5t115.5 109.5t39.5 178v406h-277v157h506v-548q0 -164 -61 -272.5t-181 -173t-307 -101.5zM401 1047q0 55 38.5 92t98.5 37q58 0 96.5 -37t38.5 -92t-38.5 -92.5t-96.5 -37.5q-61 0 -99 36.5t-38 93.5z" />
<glyph unicode="k" d="M102 0v1079l230 25v-1104h-230zM340 423l255 349h240l-255 -342l275 -430h-262z" />
<glyph unicode="l" d="M48 922v157h457v-836q0 -86 98 -86q54 0 111 23l54 -154q-93 -51 -223 -51q-135 0 -202.5 78t-67.5 219v650h-227z" />
<glyph unicode="m" d="M39 0v772h167l16 -74q38 52 75 76t87 24q45 0 75.5 -22.5t43.5 -68.5q78 91 168 91h2q83 0 121.5 -54.5t38.5 -172.5v-571h-196v545q0 42 -8 58t-30 16q-41 0 -80 -50v-569h-163v545q0 42 -8 58t-30 16q-41 0 -80 -50v-569h-199z" />
<glyph unicode="n" d="M102 0v772h200l16 -89q52 58 110 86.5t130 28.5q100 0 156.5 -61t56.5 -170v-567h-230v500q0 73 -16 100.5t-58 27.5q-35 0 -68 -22.5t-67 -66.5v-539h-230z" />
<glyph unicode="o" d="M61 387q0 124 44.5 216t129.5 143.5t201 51.5q176 0 275.5 -111t99.5 -299q0 -195 -98.5 -304t-276.5 -109q-177 0 -276 108.5t-99 303.5zM298 387q0 -128 33.5 -185.5t104.5 -57.5t104.5 58t33.5 186q0 125 -33.5 182.5t-104.5 57.5t-104.5 -57.5t-33.5 -183.5z" />
<glyph unicode="p" d="M102 -323v1095h203l11 -86q45 57 101 84.5t112 27.5q146 0 214 -106.5t68 -303.5q0 -119 -35.5 -213t-102.5 -147t-158 -53q-112 0 -183 80v-353zM332 212q25 -35 51.5 -51.5t61.5 -16.5q64 0 96.5 57.5t32.5 183.5q0 137 -29 190t-87 53q-72 0 -126 -90v-326z" />
<glyph unicode="q" d="M61 388q0 119 36.5 212.5t106 145.5t167.5 52q56 0 105 -22.5t84 -65.5l10 62h201v-1095l-230 25v363q-76 -90 -198 -90q-144 0 -213 109t-69 304zM298 387q0 -135 30 -188.5t88 -53.5q74 0 125 88v333q-23 32 -50 48t-61 16q-65 0 -98.5 -58.5t-33.5 -184.5z" />
<glyph unicode="r" d="M109 0v154h102v465h-102v153h278l40 -173q42 99 106.5 147.5t157.5 48.5q70 0 128 -23l-43 -323h-145v143q-64 -12 -113.5 -70t-76.5 -147v-221h152v-154h-484z" />
<glyph unicode="s" d="M70 92l115 129q105 -81 226 -81q60 0 94 18t34 54q0 26 -13.5 42t-51.5 31.5t-118 37.5q-116 31 -177 85t-61 150q0 106 88 173t246 67q183 0 313 -94l-92 -135q-106 65 -214 65q-57 0 -83.5 -14.5t-26.5 -45.5q0 -20 14 -34t52.5 -28.5t115.5 -36.5q83 -23 136 -50.5 t82 -74t29 -119.5q0 -81 -49.5 -139.5t-132.5 -87.5t-183 -29q-108 0 -195 30.5t-148 86.5z" />
<glyph unicode="t" d="M84 614v158h162v167l229 28v-195h249l-23 -158h-226v-351q0 -57 26.5 -81.5t84.5 -24.5q73 0 135 35l76 -147q-109 -70 -253 -70q-148 0 -223 75.5t-75 212.5v351h-162z" />
<glyph unicode="u" d="M102 215v557h230v-528q0 -54 19.5 -76.5t58.5 -22.5q35 0 71.5 22.5t59.5 62.5v542h230v-772h-201l-10 90q-38 -55 -102 -85t-135 -30q-109 0 -165 63.5t-56 176.5z" />
<glyph unicode="v" d="M42 772h249l150 -596l157 596h232l-257 -772h-271z" />
<glyph unicode="w" d="M4 772h211l51 -628l80 531h195l71 -531l52 628h204l-110 -772h-253l-67 519l-70 -519h-249z" />
<glyph unicode="x" d="M32 0l265 406l-240 366h257l124 -247l119 247h244l-227 -358l266 -414h-260l-153 289l-146 -289h-249z" />
<glyph unicode="y" d="M41 772h243l149 -625l163 625h236l-258 -772q-52 -156 -155 -235t-277 -89l-26 163q111 15 164 49.5t85 111.5h-80z" />
<glyph unicode="z" d="M105 0v163l384 436h-352v173h618v-161l-378 -437h385l-22 -174h-635z" />
<glyph unicode="{" d="M153 416v186q202 0 202 124l-2 18l-21 208q-3 35 -3 50q0 119 82.5 169t267.5 50v-160q-73 0 -107 -19.5t-28 -71.5l22 -215q1 -13 1 -37q0 -96 -59 -144.5t-168 -64.5q115 -17 172 -64t57 -143q0 -10 -3 -39l-22 -215q-6 -51 29 -71.5t106 -20.5v-160q-186 0 -268 51 t-82 170q0 15 3 47l21 209l2 19q0 67 -53 95.5t-149 28.5z" />
<glyph unicode="|" d="M329 -153v1331h213v-1331h-213z" />
<glyph unicode="}" d="M193 -44q73 0 107 20t29 72l-22 215q-1 13 -2 37q0 96 59 144.5t170 64.5q-115 17 -172 63.5t-57 142.5q0 26 2 40l22 215q6 51 -29 71t-107 20v160q186 0 268.5 -50.5t82.5 -170.5q0 -15 -3 -46l-22 -210l-1 -18q0 -124 202 -124v-186q-202 0 -202 -124l1 -19l22 -208 q3 -35 3 -49q0 -119 -83 -169.5t-268 -50.5v160z" />
<glyph unicode="~" d="M32 395q52 108 112.5 169t150.5 61q54 0 94 -22.5t86 -63.5q33 -31 57.5 -45t50.5 -14q39 0 69 27t60 86l128 -56q-51 -112 -112 -172t-151 -60q-52 0 -90.5 22t-88.5 64q-36 31 -60 45.5t-49 14.5q-39 0 -69 -28t-60 -86z" />
<glyph unicode="&#xa0;" />
<glyph unicode="&#xa1;" d="M305 611q0 55 38.5 94t92.5 39q55 0 93 -39t38 -94q0 -52 -38 -91t-93 -39q-54 0 -92.5 38.5t-38.5 91.5zM314 -298l31 647h183l32 -647h-246z" />
<glyph unicode="&#xa2;" d="M115 381q0 158 77.5 268t214.5 138v219h163v-216q105 -17 188 -88l-99 -138q-38 31 -73 44t-74 13q-79 0 -118 -57t-39 -183q0 -124 40 -174t115 -50q38 0 70 13t74 44l104 -147q-84 -67 -188 -84v-217h-164v221q-138 28 -214.5 132.5t-76.5 261.5z" />
<glyph unicode="&#xa3;" d="M61 0v166q54 17 79.5 41t33.5 58.5t8 95.5v103h-106v121h106v145q0 89 38.5 157t113.5 107.5t179 39.5q98 0 171.5 -36.5t126.5 -112.5l-141 -101q-29 42 -61 59.5t-77 17.5q-124 0 -123 -137v-139h266v-121h-266v-111q0 -61 -20.5 -105t-72.5 -74h472l-26 -174h-701z " />
<glyph unicode="&#xa4;" d="M45 206l116 118q-45 73 -45 173q0 102 44 173l-115 117l103 103l118 -118q70 42 172 42q99 0 170 -42l116 116l103 -103l-113 -115q47 -77 46 -173q0 -97 -48 -174l115 -115l-103 -102l-116 114q-71 -41 -170 -41q-100 0 -173 41l-117 -117zM294 497q0 -79 37 -121 t107 -42t105.5 42.5t35.5 120.5q0 77 -36 119.5t-105 42.5q-70 0 -107 -42.5t-37 -119.5z" />
<glyph unicode="&#xa5;" d="M12 1008h244l183 -415h6l179 415h237l-258 -496h144v-119h-194v-99h194v-120h-194v-174h-230v174h-192v120h192v99h-192v119h139z" />
<glyph unicode="&#xa6;" d="M329 -153v530h213v-530h-213zM329 648v530h213v-530h-213z" />
<glyph unicode="&#xa7;" d="M113 446q0 58 33 105t87 80q-84 67 -85 166q0 68 39.5 122t110.5 84.5t166 30.5q77 0 149 -22t130 -60l-80 -133q-89 55 -189 55q-51 0 -78 -18t-27 -50q0 -25 12.5 -41t47.5 -32t109 -39q112 -35 166.5 -87t54.5 -140q0 -60 -31.5 -107t-83.5 -81q81 -64 82 -166 q0 -68 -40 -122t-113.5 -83.5t-169.5 -29.5q-163 0 -281 81l77 141q99 -63 192 -62q54 0 84.5 19t30.5 49q0 25 -11.5 41t-48 33.5t-113.5 40.5q-111 35 -165.5 86t-54.5 139zM314 480q0 -32 16 -51.5t56.5 -38t132.5 -50.5q39 54 39 96q0 31 -16 50t-58 37.5t-132 49.5 q-38 -44 -38 -93z" />
<glyph unicode="&#xa8;" d="M148 1044q0 48 35 81.5t85 33.5q51 0 85.5 -33.5t34.5 -81.5q0 -49 -35 -83.5t-85 -34.5t-85 34.5t-35 83.5zM484 1044q0 48 35.5 81.5t85.5 33.5q49 0 84 -33.5t35 -81.5q0 -49 -34 -83.5t-85 -34.5q-50 0 -85.5 34.5t-35.5 83.5z" />
<glyph unicode="&#xa9;" d="M13 616q0 137 51 248.5t147 175.5t227 64t226 -64t145 -175.5t50 -248.5t-50 -246.5t-145 -172.5t-226 -63q-134 0 -230 63t-145.5 173t-49.5 246zM134 616q0 -169 76 -275.5t228 -106.5q150 0 226 107t76 275q0 170 -75.5 278t-226.5 108q-152 0 -228 -107.5t-76 -278.5 zM205 618q0 132 68.5 209t177.5 77q54 0 94 -16.5t74 -52.5l-71 -88q-20 16 -39 24t-42 8q-45 0 -71.5 -38.5t-26.5 -122.5q0 -158 98 -159q49 0 94 40l66 -96q-79 -71 -175 -71q-116 0 -181.5 74.5t-65.5 211.5z" />
<glyph unicode="&#xaa;" d="M122 644q0 100 83 157t233 57h77v17q0 49 -27 67.5t-94 18.5q-31 0 -76.5 -8.5t-93.5 -24.5l-48 131q64 22 129.5 33.5t117.5 11.5q147 0 212.5 -55.5t65.5 -167.5v-238q0 -31 10 -47t33 -23l-43 -128q-64 7 -102.5 26t-60.5 58q-36 -42 -86.5 -64.5t-108.5 -22.5 q-99 0 -160 56t-61 146zM145 0v157h602v-157h-602zM329 651q0 -74 72 -74q32 0 62 18.5t52 50.5v91h-47q-76 0 -107.5 -20.5t-31.5 -65.5z" />
<glyph unicode="&#xab;" d="M76 345v145l247 318l132 -82l-169 -309l169 -309l-132 -83zM416 345v145l248 318l133 -82l-167 -309l167 -309l-133 -83z" />
<glyph unicode="&#xac;" d="M121 375v176h631v-400h-189v224h-442z" />
<glyph unicode="&#xad;" d="M196 366v178h480v-178h-480z" />
<glyph unicode="&#xae;" d="M36 704q0 112 52.5 203.5t144 144t205.5 52.5q112 0 202.5 -52.5t142.5 -144t52 -203.5q0 -111 -52 -201t-142.5 -142.5t-202.5 -52.5q-113 0 -205 52.5t-144.5 142.5t-52.5 201zM148 704q0 -84 38 -152t103.5 -107t148.5 -39q81 0 146.5 39t102 106.5t36.5 152.5 q0 84 -36.5 153t-102 109t-146.5 40q-83 0 -148.5 -40t-103.5 -109t-38 -153zM281 510v413h126q195 0 195 -128q0 -41 -22.5 -70t-61.5 -43l112 -172h-121l-90 150h-34v-150h-104zM385 744h34q76 0 75 54q0 47 -77 47h-32v-101z" />
<glyph unicode="&#xaf;" d="M214 957v158h445v-158h-445z" />
<glyph unicode="&#xb0;" d="M103 858q0 74 37 130t97 86t125 30t125.5 -30t97.5 -86t37 -130t-37 -131t-97.5 -87.5t-125.5 -30.5q-64 0 -124.5 30.5t-97.5 87.5t-37 131zM262 858q0 -51 27.5 -82.5t72.5 -31.5q47 0 74.5 31.5t27.5 82.5q0 52 -27.5 82.5t-74.5 30.5q-46 0 -73 -30.5t-27 -82.5z" />
<glyph unicode="&#xb1;" d="M121 0v174h631v-174h-631zM121 410v175h219v226h192v-226h220v-175h-220v-156h-192v156h-219z" />
<glyph unicode="&#xb2;" d="M211 837q87 96 227 96q97 0 151.5 -43.5t54.5 -107.5q0 -62 -44.5 -107t-163.5 -98h226l-19 -119h-415v106q105 58 156.5 92.5t69 57t17.5 48.5q0 23 -16 37.5t-44 14.5t-50 -11.5t-47 -40.5z" />
<glyph unicode="&#xb3;" d="M196 529l95 80q33 -25 63.5 -35t70.5 -10q36 0 55 12.5t19 34.5q0 41 -73 40h-76l18 95h58q26 0 40.5 9.5t14.5 23.5q0 39 -56 40q-36 0 -65.5 -9.5t-64.5 -33.5l-83 83q93 74 233 74q96 0 149.5 -35.5t53.5 -93.5q0 -42 -24.5 -66t-75.5 -36q64 -10 93 -34.5t29 -74.5 q0 -67 -64.5 -105.5t-175.5 -38.5q-70 0 -131.5 20t-102.5 60z" />
<glyph unicode="&#xb4;" d="M230 1022l317 192l90 -173l-345 -137z" />
<glyph unicode="&#xb5;" d="M97 -321v1093h229v-439q0 -71 4 -108t21.5 -57t54.5 -20q36 0 68.5 22t57.5 61v541h230v-499q0 -129 17 -273l-206 -20q-13 48 -19 112q-33 -54 -75.5 -84t-91.5 -30q-41 0 -68 14.5t-57 55.5q28 -58 40 -104t12 -111v-131z" />
<glyph unicode="&#xb6;" d="M28 695q0 141 94.5 227t271.5 86h451v-1313l-192 -16v1173h-121v-1157l-192 -16v706q-154 13 -233 94t-79 216z" />
<glyph unicode="&#xb7;" d="M275 497q0 67 47 114.5t114 47.5t114.5 -47.5t47.5 -114.5t-47.5 -114t-114.5 -47t-114 47t-47 114z" />
<glyph unicode="&#xb8;" d="M243 -337l52 106q49 -25 93 -25q77 0 77 45q0 28 -32 38t-101 10l20 186h128v-93q74 -9 112 -46.5t38 -97.5q0 -74 -60 -120.5t-157 -46.5q-49 0 -93.5 12.5t-76.5 31.5z" />
<glyph unicode="&#xb9;" d="M260 810l215 115h138v-467h-163v307l-115 -60z" />
<glyph unicode="&#xba;" d="M113 774q0 95 39.5 169.5t113 117.5t170.5 43q99 0 171.5 -43t112 -118t39.5 -169q0 -97 -39.5 -173t-112 -117.5t-171.5 -41.5q-150 0 -236.5 91t-86.5 241zM135 0v157h602v-157h-602zM316 774q0 -99 30.5 -143.5t89.5 -44.5q60 0 90.5 44.5t30.5 143.5q0 188 -121 187 q-120 1 -120 -187z" />
<glyph unicode="&#xbb;" d="M76 108l167 309l-167 309l132 82l247 -318v-145l-247 -320zM416 108l169 309l-169 309l132 82l249 -318v-145l-249 -320z" />
<glyph unicode="&#xbc;" d="M-25 891l215 115h138v-467h-163v307l-115 -59zM20 365l778 372l60 -110l-777 -373zM420 81v96l176 303l138 -47l-144 -243h96l22 115h127v-115h64v-109h-64v-81h-152v81h-263z" />
<glyph unicode="&#xbd;" d="M-29 891l215 115h138v-467h-163v307l-115 -59zM14 365l778 372l60 -110l-777 -373zM451 379q87 96 227 96q97 0 151.5 -43.5t54.5 -107.5q0 -62 -44.5 -107t-163.5 -98h226l-19 -119h-415v106q105 58 156.5 92.5t69 57t17.5 48.5q0 23 -16 37.5t-44 14.5t-50 -11.5 t-47 -40.5z" />
<glyph unicode="&#xbe;" d="M-21 611l95 80q32 -25 63 -35t71 -10q36 0 55 12t19 34q0 41 -73 41h-76l18 94h58q26 0 40.5 9.5t14.5 24.5q0 39 -56 39q-35 0 -64 -9.5t-66 -32.5l-83 83q93 74 233 74q96 0 149.5 -35.5t53.5 -94.5q0 -42 -24.5 -66t-75.5 -35q64 -10 93 -35t29 -74 q0 -67 -64.5 -105.5t-175.5 -38.5q-70 0 -131.5 19.5t-102.5 60.5zM27 365l778 372l60 -110l-777 -373zM416 81v96l176 303l138 -47l-144 -243h96l22 115h127v-115h64v-109h-64v-81h-152v81h-263z" />
<glyph unicode="&#xbf;" d="M89 -79q0 58 20 100.5t50 68.5t79 61q61 42 91 77t30 90v31h208v-48q0 -67 -22 -114t-52.5 -75t-76.5 -60q-47 -33 -67 -55t-20 -55q0 -39 32 -61t84 -22q102 0 182 87l145 -112q-134 -157 -350 -157q-106 0 -181 33.5t-113.5 89t-38.5 121.5zM330 611q0 55 38.5 94 t92.5 39t93 -39t39 -94q0 -52 -39 -91t-93 -39t-92.5 38.5t-38.5 91.5z" />
<glyph unicode="&#xc0;" d="M-16 0l308 1008h290l308 -1008h-256l-52 218h-296l-52 -218h-250zM236 1214l87 172l313 -178l-54 -116zM324 390h218l-109 446z" />
<glyph unicode="&#xc1;" d="M-16 0l308 1008h290l308 -1008h-256l-52 218h-296l-52 -218h-250zM236 1208l314 178l86 -172l-345 -122zM324 390h218l-109 446z" />
<glyph unicode="&#xc2;" d="M-16 0l308 1008h290l308 -1008h-256l-52 218h-296l-52 -218h-250zM160 1182l206 189h140l205 -189l-81 -94l-194 123l-193 -123zM324 390h218l-109 446z" />
<glyph unicode="&#xc3;" d="M-16 0l308 1008h290l308 -1008h-256l-52 218h-296l-52 -218h-250zM160 1162q31 77 78 124t110 47q33 0 57 -10t52 -29q19 -13 32 -19.5t27 -6.5q23 0 39.5 14.5t36.5 47.5l115 -55q-31 -77 -79.5 -123.5t-109.5 -46.5q-32 0 -55.5 10t-50.5 29q-36 26 -60 26 q-26 0 -42 -14.5t-35 -49.5zM324 390h218l-109 446z" />
<glyph unicode="&#xc4;" d="M-16 0l308 1008h290l308 -1008h-256l-52 218h-296l-52 -218h-250zM149 1224q0 49 34.5 83t84.5 34q51 0 85 -33.5t34 -83.5q0 -49 -34 -82.5t-85 -33.5q-50 0 -84.5 33.5t-34.5 82.5zM324 390h218l-109 446zM484 1224q0 48 36 82.5t85 34.5q51 0 85 -33.5t34 -83.5 q0 -49 -34 -82.5t-85 -33.5q-49 0 -85 34t-36 82z" />
<glyph unicode="&#xc5;" d="M-16 0l308 1008h290l308 -1008h-256l-52 218h-296l-52 -218h-250zM234 1249q0 80 55.5 135t145.5 55q92 0 147 -55t55 -135t-56 -136.5t-146 -56.5t-145.5 56.5t-55.5 136.5zM324 390h218l-109 446zM371 1249q0 -36 17.5 -55t46.5 -19q31 0 48 19t17 55q0 35 -17 53 t-48 18q-29 0 -46.5 -18t-17.5 -53z" />
<glyph unicode="&#xc6;" d="M-17 0l254 1008h585l-25 -162h-265l48 -256h228v-160h-199l53 -269h215v-161h-386l-36 222h-203l-41 -222h-228zM278 385h152l-74 463z" />
<glyph unicode="&#xc7;" d="M49 506q0 164 61.5 283.5t169 182t241.5 62.5q105 0 180 -27.5t142 -83.5l-116 -141q-92 74 -201 74q-103 0 -166 -87t-63 -263t62.5 -261t171.5 -85q67 0 115 23t103 67l107 -138q-121 -124 -301 -135v-47q75 -9 112.5 -46.5t37.5 -97.5q0 -74 -59.5 -120.5 t-156.5 -46.5q-49 0 -94 12.5t-77 31.5l53 106q49 -25 93 -25q77 0 77 45q0 28 -32 38t-102 10l16 147q-172 29 -273 164.5t-101 357.5z" />
<glyph unicode="&#xc8;" d="M135 0v1008h659l-25 -170h-395v-243h349v-166h-349v-257h420v-172h-659zM265 1214l87 172l313 -178l-54 -116z" />
<glyph unicode="&#xc9;" d="M135 0v1008h659l-25 -170h-395v-243h349v-166h-349v-257h420v-172h-659zM265 1208l314 178l86 -172l-345 -122z" />
<glyph unicode="&#xca;" d="M135 0v1008h659l-25 -170h-395v-243h349v-166h-349v-257h420v-172h-659zM189 1182l206 189h140l205 -189l-81 -94l-194 123l-193 -123z" />
<glyph unicode="&#xcb;" d="M135 0v1008h659l-25 -170h-395v-243h349v-166h-349v-257h420v-172h-659zM178 1224q0 49 34.5 83t84.5 34q51 0 85 -33.5t34 -83.5q0 -49 -34 -82.5t-85 -33.5q-50 0 -84.5 33.5t-34.5 82.5zM513 1224q0 48 36 82.5t85 34.5q51 0 85 -33.5t34 -83.5q0 -49 -34 -82.5 t-85 -33.5q-49 0 -85 34t-36 82z" />
<glyph unicode="&#xcc;" d="M109 0v176h208v657h-208v175h654v-175h-208v-657h208v-176h-654zM236 1214l87 172l313 -178l-54 -116z" />
<glyph unicode="&#xcd;" d="M109 0v176h208v657h-208v175h654v-175h-208v-657h208v-176h-654zM236 1208l314 178l86 -172l-345 -122z" />
<glyph unicode="&#xce;" d="M109 0v176h208v657h-208v175h654v-175h-208v-657h208v-176h-654zM160 1182l206 189h140l205 -189l-81 -94l-194 123l-193 -123z" />
<glyph unicode="&#xcf;" d="M109 0v176h208v657h-208v175h654v-175h-208v-657h208v-176h-654zM149 1224q0 49 34.5 83t84.5 34q51 0 85 -33.5t34 -83.5q0 -49 -34 -82.5t-85 -33.5q-50 0 -84.5 33.5t-34.5 82.5zM484 1224q0 48 36 82.5t85 34.5q51 0 85 -33.5t34 -83.5q0 -49 -34 -82.5t-85 -33.5 q-49 0 -85 34t-36 82z" />
<glyph unicode="&#xd0;" d="M13 441v145h82v422h254q228 0 366 -107t138 -392q0 -509 -487 -509h-271v441h-82zM333 173h51q107 0 164.5 74t57.5 262q0 129 -28 200.5t-76 98.5t-118 27h-51v-249h174v-145h-174v-268z" />
<glyph unicode="&#xd1;" d="M76 0v1008h298l256 -807q-35 224 -35 421v386h202v-1008h-290l-264 810q15 -111 25 -213.5t10 -217.5v-379h-202zM174 1162q31 77 78 124t110 47q33 0 57 -10t52 -29q19 -13 32 -19.5t27 -6.5q23 0 39.5 14.5t36.5 47.5l115 -55q-31 -77 -79.5 -123.5t-109.5 -46.5 q-32 0 -55.5 10t-50.5 29q-36 26 -60 26q-26 0 -42 -14.5t-35 -49.5z" />
<glyph unicode="&#xd2;" d="M33 505q0 246 104 387.5t299 141.5q196 0 299.5 -140.5t103.5 -388.5q0 -246 -104 -388t-299 -142q-196 0 -299.5 140.5t-103.5 389.5zM236 1214l87 172l313 -178l-54 -116zM278 505q0 -186 37 -270.5t121 -84.5q86 0 122.5 84t36.5 271q0 186 -37 270t-122 84 q-84 0 -121 -84t-37 -270z" />
<glyph unicode="&#xd3;" d="M33 505q0 246 104 387.5t299 141.5q196 0 299.5 -140.5t103.5 -388.5q0 -246 -104 -388t-299 -142q-196 0 -299.5 140.5t-103.5 389.5zM236 1208l314 178l86 -172l-345 -122zM278 505q0 -186 37 -270.5t121 -84.5q86 0 122.5 84t36.5 271q0 186 -37 270t-122 84 q-84 0 -121 -84t-37 -270z" />
<glyph unicode="&#xd4;" d="M33 505q0 246 104 387.5t299 141.5q196 0 299.5 -140.5t103.5 -388.5q0 -246 -104 -388t-299 -142q-196 0 -299.5 140.5t-103.5 389.5zM160 1182l206 189h140l205 -189l-81 -94l-194 123l-193 -123zM278 505q0 -186 37 -270.5t121 -84.5q86 0 122.5 84t36.5 271 q0 186 -37 270t-122 84q-84 0 -121 -84t-37 -270z" />
<glyph unicode="&#xd5;" d="M33 505q0 246 104 387.5t299 141.5q196 0 299.5 -140.5t103.5 -388.5q0 -246 -104 -388t-299 -142q-196 0 -299.5 140.5t-103.5 389.5zM160 1162q31 77 78 124t110 47q33 0 57 -10t52 -29q19 -13 32 -19.5t27 -6.5q23 0 39.5 14.5t36.5 47.5l115 -55 q-31 -77 -79.5 -123.5t-109.5 -46.5q-32 0 -55.5 10t-50.5 29q-36 26 -60 26q-26 0 -42 -14.5t-35 -49.5zM278 505q0 -186 37 -270.5t121 -84.5q86 0 122.5 84t36.5 271q0 186 -37 270t-122 84q-84 0 -121 -84t-37 -270z" />
<glyph unicode="&#xd6;" d="M33 505q0 246 104 387.5t299 141.5q196 0 299.5 -140.5t103.5 -388.5q0 -246 -104 -388t-299 -142q-196 0 -299.5 140.5t-103.5 389.5zM149 1224q0 49 34.5 83t84.5 34q51 0 85 -33.5t34 -83.5q0 -49 -34 -82.5t-85 -33.5q-50 0 -84.5 33.5t-34.5 82.5zM278 505 q0 -186 37 -270.5t121 -84.5q86 0 122.5 84t36.5 271q0 186 -37 270t-122 84q-84 0 -121 -84t-37 -270zM484 1224q0 48 36 82.5t85 34.5q51 0 85 -33.5t34 -83.5q0 -49 -34 -82.5t-85 -33.5q-49 0 -85 34t-36 82z" />
<glyph unicode="&#xd7;" d="M142 279l171 167l-171 168l127 126l167 -170l167 170l127 -126l-170 -168l170 -167l-127 -126l-167 170l-167 -170z" />
<glyph unicode="&#xd8;" d="M33 505q0 246 104 387.5t299 141.5q35 0 74 -7l43 141l161 -48l-50 -160q85 -64 130 -181t45 -274q0 -246 -104 -388t-299 -142q-36 0 -75 8l-41 -141l-162 47l50 160q-84 65 -129.5 182.5t-45.5 273.5zM269 505q0 -179 33 -264l181 617q-29 6 -47 6q-88 0 -127.5 -85 t-39.5 -274zM393 151q17 -6 43 -6q90 0 128.5 85.5t38.5 274.5q0 180 -32 260z" />
<glyph unicode="&#xd9;" d="M61 337v671h240v-582q0 -97 10 -155.5t40 -88t85 -29.5t85 29.5t40 88t10 155.5v582h240v-671q0 -105 -42 -187t-126.5 -128.5t-206.5 -46.5q-183 0 -279 97.5t-96 264.5zM236 1214l87 172l313 -178l-54 -116z" />
<glyph unicode="&#xda;" d="M61 337v671h240v-582q0 -97 10 -155.5t40 -88t85 -29.5t85 29.5t40 88t10 155.5v582h240v-671q0 -105 -42 -187t-126.5 -128.5t-206.5 -46.5q-183 0 -279 97.5t-96 264.5zM236 1208l314 178l86 -172l-345 -122z" />
<glyph unicode="&#xdb;" d="M61 337v671h240v-582q0 -97 10 -155.5t40 -88t85 -29.5t85 29.5t40 88t10 155.5v582h240v-671q0 -105 -42 -187t-126.5 -128.5t-206.5 -46.5q-183 0 -279 97.5t-96 264.5zM160 1182l206 189h140l205 -189l-81 -94l-194 123l-193 -123z" />
<glyph unicode="&#xdc;" d="M61 337v671h240v-582q0 -97 10 -155.5t40 -88t85 -29.5t85 29.5t40 88t10 155.5v582h240v-671q0 -105 -42 -187t-126.5 -128.5t-206.5 -46.5q-183 0 -279 97.5t-96 264.5zM149 1224q0 49 34.5 83t84.5 34q51 0 85 -33.5t34 -83.5q0 -49 -34 -82.5t-85 -33.5 q-50 0 -84.5 33.5t-34.5 82.5zM484 1224q0 48 36 82.5t85 34.5q51 0 85 -33.5t34 -83.5q0 -49 -34 -82.5t-85 -33.5q-49 0 -85 34t-36 82z" />
<glyph unicode="&#xdd;" d="M-12 1008h262l191 -434l191 434h252l-329 -630v-378h-238v377zM236 1208l314 178l86 -172l-345 -122z" />
<glyph unicode="&#xde;" d="M86 0v1008h240v-163h80q208 0 320 -83t112 -247q0 -174 -104 -260t-296 -86h-112v-169h-240zM326 342h96q83 0 125.5 40t42.5 131q0 83 -44 122.5t-133 39.5h-87v-333z" />
<glyph unicode="&#xdf;" d="M87 0v772q0 158 86 245t250 87q92 0 158 -30t101 -81.5t35 -115.5q0 -48 -19 -80t-57 -71q-28 -29 -41.5 -50.5t-13.5 -47.5q0 -29 22 -52t67 -57q51 -38 83.5 -70t56.5 -82.5t24 -122.5q0 -125 -81.5 -197t-210.5 -72q-102 0 -185 45l73 154q47 -22 83 -21q42 0 63.5 23 t21.5 67q0 51 -25 83.5t-76 70.5q-39 32 -62 54t-39 56t-16 80q0 47 15.5 81t44.5 76q26 39 37.5 65t11.5 58q0 36 -20 55.5t-57 19.5q-52 0 -76 -39t-24 -121v-782h-230z" />
<glyph unicode="&#xe0;" d="M51 218q0 125 99 194t277 69h104v28q0 119 -153 119q-39 0 -98 -11t-114 -30l-53 153q74 28 155 43t146 15q337 0 338 -273v-303q0 -42 11.5 -62t39.5 -31l-48 -151q-70 7 -116.5 31t-72.5 71q-44 -51 -111 -78t-142 -27q-119 0 -190.5 68t-71.5 175zM227 1041l89 173 l317 -193l-63 -117zM288 234q0 -45 27 -69.5t76 -24.5q39 0 79 22.5t61 61.5v126h-57q-186 0 -186 -116z" />
<glyph unicode="&#xe1;" d="M51 218q0 125 99 194t277 69h104v28q0 119 -153 119q-39 0 -98 -11t-114 -30l-53 153q74 28 155 43t146 15q337 0 338 -273v-303q0 -42 11.5 -62t39.5 -31l-48 -151q-70 7 -116.5 31t-72.5 71q-44 -51 -111 -78t-142 -27q-119 0 -190.5 68t-71.5 175zM220 1022l317 192 l90 -173l-345 -137zM288 234q0 -45 27 -69.5t76 -24.5q39 0 79 22.5t61 61.5v126h-57q-186 0 -186 -116z" />
<glyph unicode="&#xe2;" d="M51 218q0 125 99 194t277 69h104v28q0 119 -153 119q-39 0 -98 -11t-114 -30l-53 153q74 28 155 43t146 15q337 0 338 -273v-303q0 -42 11.5 -62t39.5 -31l-48 -151q-70 7 -116.5 31t-72.5 71q-44 -51 -111 -78t-142 -27q-119 0 -190.5 68t-71.5 175zM150 983l206 202 h140l205 -202l-81 -95l-194 137l-193 -137zM288 234q0 -45 27 -69.5t76 -24.5q39 0 79 22.5t61 61.5v126h-57q-186 0 -186 -116z" />
<glyph unicode="&#xe3;" d="M51 218q0 125 99 194t277 69h104v28q0 119 -153 119q-39 0 -98 -11t-114 -30l-53 153q74 28 155 43t146 15q337 0 338 -273v-303q0 -42 11.5 -62t39.5 -31l-48 -151q-70 7 -116.5 31t-72.5 71q-44 -51 -111 -78t-142 -27q-119 0 -190.5 68t-71.5 175zM150 980 q31 77 78 124.5t110 47.5q33 0 57 -10.5t52 -29.5q19 -13 32 -19.5t27 -6.5q23 0 39 14.5t37 48.5l115 -56q-31 -77 -79 -123.5t-110 -46.5q-32 0 -55.5 10.5t-51.5 29.5q-36 26 -59 26q-26 0 -42 -14.5t-35 -49.5zM288 234q0 -45 27 -69.5t76 -24.5q39 0 79 22.5t61 61.5 v126h-57q-186 0 -186 -116z" />
<glyph unicode="&#xe4;" d="M51 218q0 125 99 194t277 69h104v28q0 119 -153 119q-39 0 -98 -11t-114 -30l-53 153q74 28 155 43t146 15q337 0 338 -273v-303q0 -42 11.5 -62t39.5 -31l-48 -151q-70 7 -116.5 31t-72.5 71q-44 -51 -111 -78t-142 -27q-119 0 -190.5 68t-71.5 175zM138 1044 q0 48 35 81.5t85 33.5q51 0 85.5 -33.5t34.5 -81.5q0 -49 -35 -83.5t-85 -34.5t-85 34.5t-35 83.5zM288 234q0 -45 27 -69.5t76 -24.5q39 0 79 22.5t61 61.5v126h-57q-186 0 -186 -116zM474 1044q0 48 35.5 81.5t85.5 33.5q49 0 84 -33.5t35 -81.5q0 -49 -34 -83.5 t-85 -34.5q-50 0 -85.5 34.5t-35.5 83.5z" />
<glyph unicode="&#xe5;" d="M51 218q0 125 99 194t277 69h104v28q0 119 -153 119q-39 0 -98 -11t-114 -30l-53 153q74 28 155 43t146 15q337 0 338 -273v-303q0 -42 11.5 -62t39.5 -31l-48 -151q-70 7 -116.5 31t-72.5 71q-44 -51 -111 -78t-142 -27q-119 0 -190.5 68t-71.5 175zM224 1067 q0 79 55.5 135t145.5 56q91 0 146.5 -55.5t55.5 -135.5t-56 -136.5t-146 -56.5q-60 0 -105.5 26t-70.5 70.5t-25 96.5zM288 234q0 -45 27 -69.5t76 -24.5q39 0 79 22.5t61 61.5v126h-57q-186 0 -186 -116zM361 1067q0 -36 17.5 -55t46.5 -19q31 0 48 19t17 55q0 35 -17.5 53 t-47.5 18q-29 0 -46.5 -18t-17.5 -53z" />
<glyph unicode="&#xe6;" d="M-9 221q0 125 73 189.5t221 64.5h60v34q0 147 -130 147q-35 0 -63 -8t-72 -29l-52 127q61 28 109 40t101 12q76 0 124 -27t77 -76q28 48 73.5 75.5t109.5 27.5q133 0 191.5 -99.5t58.5 -297.5q0 -38 -4 -72h-350q19 -202 141 -203q33 0 63 12t63 35l87 -115 q-97 -83 -226 -83q-154 0 -233 122q-44 -65 -89 -93.5t-116 -28.5q-100 0 -158.5 68.5t-58.5 177.5zM183 231q0 -51 17.5 -78.5t49.5 -27.5q29 0 54 22t48 68q-7 73 -7 137h-31q-70 0 -100.5 -30.5t-30.5 -90.5zM518 454h181q-1 108 -18.5 154t-66.5 46q-45 0 -68 -45 t-28 -155z" />
<glyph unicode="&#xe7;" d="M100 381q0 121 49.5 215.5t140.5 148t213 53.5q86 0 154.5 -24t127.5 -73l-99 -138q-84 58 -173 58q-173 0 -173 -240q0 -121 45 -172.5t127 -51.5q44 0 84.5 16.5t86.5 48.5l102 -145q-103 -89 -248 -100v-47q74 -9 111.5 -46.5t37.5 -97.5q0 -74 -59.5 -120.5 t-156.5 -46.5q-49 0 -93.5 12.5t-76.5 31.5l52 106q49 -25 93 -25q77 0 77 45q0 28 -32 38t-102 10l16 147q-142 28 -223 133t-81 264z" />
<glyph unicode="&#xe8;" d="M67 385q0 116 44.5 210t129.5 148.5t202 54.5q111 0 192.5 -47t126 -136.5t44.5 -213.5q0 -48 -5 -83h-500q22 -176 186 -176q99 0 198 64l91 -125q-57 -49 -135 -77.5t-173 -28.5q-129 0 -219.5 52t-136 144t-45.5 214zM247 1041l89 173l317 -193l-63 -117zM298 458h284 q-3 186 -139 186q-62 0 -100 -45.5t-45 -140.5z" />
<glyph unicode="&#xe9;" d="M67 385q0 116 44.5 210t129.5 148.5t202 54.5q111 0 192.5 -47t126 -136.5t44.5 -213.5q0 -48 -5 -83h-500q22 -176 186 -176q99 0 198 64l91 -125q-57 -49 -135 -77.5t-173 -28.5q-129 0 -219.5 52t-136 144t-45.5 214zM240 1022l317 192l90 -173l-345 -137zM298 458 h284q-3 186 -139 186q-62 0 -100 -45.5t-45 -140.5z" />
<glyph unicode="&#xea;" d="M67 385q0 116 44.5 210t129.5 148.5t202 54.5q111 0 192.5 -47t126 -136.5t44.5 -213.5q0 -48 -5 -83h-500q22 -176 186 -176q99 0 198 64l91 -125q-57 -49 -135 -77.5t-173 -28.5q-129 0 -219.5 52t-136 144t-45.5 214zM170 983l206 202h140l205 -202l-81 -95l-194 137 l-193 -137zM298 458h284q-3 186 -139 186q-62 0 -100 -45.5t-45 -140.5z" />
<glyph unicode="&#xeb;" d="M67 385q0 116 44.5 210t129.5 148.5t202 54.5q111 0 192.5 -47t126 -136.5t44.5 -213.5q0 -48 -5 -83h-500q22 -176 186 -176q99 0 198 64l91 -125q-57 -49 -135 -77.5t-173 -28.5q-129 0 -219.5 52t-136 144t-45.5 214zM158 1044q0 48 35 81.5t85 33.5q51 0 85.5 -33.5 t34.5 -81.5q0 -49 -35 -83.5t-85 -34.5t-85 34.5t-35 83.5zM298 458h284q-3 186 -139 186q-62 0 -100 -45.5t-45 -140.5zM494 1044q0 48 35.5 81.5t85.5 33.5q49 0 84 -33.5t35 -81.5q0 -49 -34 -83.5t-85 -34.5q-50 0 -85.5 34.5t-35.5 83.5z" />
<glyph unicode="&#xec;" d="M125 0v157h218v458h-211v157h441v-615h198v-157h-646zM236 1041l89 173l317 -193l-63 -117z" />
<glyph unicode="&#xed;" d="M125 0v157h218v458h-211v157h441v-615h198v-157h-646zM229 1022l317 192l90 -173l-345 -137z" />
<glyph unicode="&#xee;" d="M125 0v157h218v458h-211v157h441v-615h198v-157h-646zM159 983l206 202h140l205 -202l-81 -95l-194 137l-193 -137z" />
<glyph unicode="&#xef;" d="M125 0v157h218v458h-211v157h441v-615h198v-157h-646zM147 1044q0 48 35 81.5t85 33.5q51 0 85.5 -33.5t34.5 -81.5q0 -49 -35 -83.5t-85 -34.5t-85 34.5t-35 83.5zM483 1044q0 48 35.5 81.5t85.5 33.5q49 0 84 -33.5t35 -81.5q0 -49 -34 -83.5t-85 -34.5 q-50 0 -85.5 34.5t-35.5 83.5z" />
<glyph unicode="&#xf0;" d="M58 340q0 105 43 187t114 128t156 46q63 0 107.5 -18.5t85.5 -55.5q-48 142 -154 219l-81 -83l-146 67l85 87q-58 22 -133 35l45 150q124 -17 213 -54l106 111l117 -102l-77 -78q138 -89 203.5 -233t65.5 -343q0 -121 -44 -218.5t-130.5 -153.5t-206.5 -56 q-105 0 -189 44t-132 126.5t-48 194.5zM292 343q0 -103 36.5 -152t103.5 -49q74 0 109 56t35 174q-1 72 -2 105q-55 63 -144 62q-65 0 -101.5 -49t-36.5 -147z" />
<glyph unicode="&#xf1;" d="M102 0v772h200l16 -89q52 58 110 86.5t130 28.5q100 0 156.5 -61t56.5 -170v-567h-230v500q0 73 -16 100.5t-58 27.5q-35 0 -68 -22.5t-67 -66.5v-539h-230zM161 980q31 77 78 124.5t110 47.5q33 0 57 -10.5t52 -29.5q19 -13 32 -19.5t27 -6.5q23 0 39 14.5t37 48.5 l115 -56q-31 -77 -79 -123.5t-110 -46.5q-32 0 -55.5 10.5t-51.5 29.5q-36 26 -59 26q-26 0 -42 -14.5t-35 -49.5z" />
<glyph unicode="&#xf2;" d="M61 387q0 124 44.5 216t129.5 143.5t201 51.5q176 0 275.5 -111t99.5 -299q0 -195 -98.5 -304t-276.5 -109q-177 0 -276 108.5t-99 303.5zM237 1041l89 173l317 -193l-63 -117zM298 387q0 -128 33.5 -185.5t104.5 -57.5t104.5 58t33.5 186q0 125 -33.5 182.5t-104.5 57.5 t-104.5 -57.5t-33.5 -183.5z" />
<glyph unicode="&#xf3;" d="M61 387q0 124 44.5 216t129.5 143.5t201 51.5q176 0 275.5 -111t99.5 -299q0 -195 -98.5 -304t-276.5 -109q-177 0 -276 108.5t-99 303.5zM230 1022l317 192l90 -173l-345 -137zM298 387q0 -128 33.5 -185.5t104.5 -57.5t104.5 58t33.5 186q0 125 -33.5 182.5 t-104.5 57.5t-104.5 -57.5t-33.5 -183.5z" />
<glyph unicode="&#xf4;" d="M61 387q0 124 44.5 216t129.5 143.5t201 51.5q176 0 275.5 -111t99.5 -299q0 -195 -98.5 -304t-276.5 -109q-177 0 -276 108.5t-99 303.5zM160 983l206 202h140l205 -202l-81 -95l-194 137l-193 -137zM298 387q0 -128 33.5 -185.5t104.5 -57.5t104.5 58t33.5 186 q0 125 -33.5 182.5t-104.5 57.5t-104.5 -57.5t-33.5 -183.5z" />
<glyph unicode="&#xf5;" d="M61 387q0 124 44.5 216t129.5 143.5t201 51.5q176 0 275.5 -111t99.5 -299q0 -195 -98.5 -304t-276.5 -109q-177 0 -276 108.5t-99 303.5zM160 980q31 77 78 124.5t110 47.5q33 0 57 -10.5t52 -29.5q19 -13 32 -19.5t27 -6.5q23 0 39 14.5t37 48.5l115 -56 q-31 -77 -79 -123.5t-110 -46.5q-32 0 -55.5 10.5t-51.5 29.5q-36 26 -59 26q-26 0 -42 -14.5t-35 -49.5zM298 387q0 -128 33.5 -185.5t104.5 -57.5t104.5 58t33.5 186q0 125 -33.5 182.5t-104.5 57.5t-104.5 -57.5t-33.5 -183.5z" />
<glyph unicode="&#xf6;" d="M61 387q0 124 44.5 216t129.5 143.5t201 51.5q176 0 275.5 -111t99.5 -299q0 -195 -98.5 -304t-276.5 -109q-177 0 -276 108.5t-99 303.5zM148 1044q0 48 35 81.5t85 33.5q51 0 85.5 -33.5t34.5 -81.5q0 -49 -35 -83.5t-85 -34.5t-85 34.5t-35 83.5zM298 387 q0 -128 33.5 -185.5t104.5 -57.5t104.5 58t33.5 186q0 125 -33.5 182.5t-104.5 57.5t-104.5 -57.5t-33.5 -183.5zM484 1044q0 48 35.5 81.5t85.5 33.5q49 0 84 -33.5t35 -81.5q0 -49 -34 -83.5t-85 -34.5q-50 0 -85.5 34.5t-35.5 83.5z" />
<glyph unicode="&#xf7;" d="M121 375v176h631v-176h-631zM305 151q0 55 38 94t93 39t93 -39t38 -94q0 -54 -38 -92.5t-93 -38.5t-93 38.5t-38 92.5zM305 774q0 55 38 93.5t93 38.5t93 -38.5t38 -93.5q0 -52 -38 -91t-93 -39t-93 38.5t-38 91.5z" />
<glyph unicode="&#xf8;" d="M61 387q0 124 44.5 216t129.5 143.5t201 51.5q16 0 45 -3l57 169l166 -49l-57 -173q80 -51 122 -142t42 -212q0 -195 -98.5 -304t-276.5 -109l-45 2l-54 -176l-168 49l58 178q-80 49 -123 140.5t-43 218.5zM294 387q0 -137 26 -191l139 435q-7 1 -23 1q-74 0 -108 -58 t-34 -187zM416 140h20q74 0 108.5 58t34.5 190q0 134 -25 183z" />
<glyph unicode="&#xf9;" d="M102 215v557h230v-528q0 -54 19.5 -76.5t58.5 -22.5q35 0 71.5 22.5t59.5 62.5v542h230v-772h-201l-10 90q-38 -55 -102 -85t-135 -30q-109 0 -165 63.5t-56 176.5zM237 1041l89 173l317 -193l-63 -117z" />
<glyph unicode="&#xfa;" d="M102 215v557h230v-528q0 -54 19.5 -76.5t58.5 -22.5q35 0 71.5 22.5t59.5 62.5v542h230v-772h-201l-10 90q-38 -55 -102 -85t-135 -30q-109 0 -165 63.5t-56 176.5zM230 1022l317 192l90 -173l-345 -137z" />
<glyph unicode="&#xfb;" d="M102 215v557h230v-528q0 -54 19.5 -76.5t58.5 -22.5q35 0 71.5 22.5t59.5 62.5v542h230v-772h-201l-10 90q-38 -55 -102 -85t-135 -30q-109 0 -165 63.5t-56 176.5zM160 983l206 202h140l205 -202l-81 -95l-194 137l-193 -137z" />
<glyph unicode="&#xfc;" d="M102 215v557h230v-528q0 -54 19.5 -76.5t58.5 -22.5q35 0 71.5 22.5t59.5 62.5v542h230v-772h-201l-10 90q-38 -55 -102 -85t-135 -30q-109 0 -165 63.5t-56 176.5zM148 1044q0 48 35 81.5t85 33.5q51 0 85.5 -33.5t34.5 -81.5q0 -49 -35 -83.5t-85 -34.5t-85 34.5 t-35 83.5zM484 1044q0 48 35.5 81.5t85.5 33.5q49 0 84 -33.5t35 -81.5q0 -49 -34 -83.5t-85 -34.5q-50 0 -85.5 34.5t-35.5 83.5z" />
<glyph unicode="&#xfd;" d="M41 772h243l149 -625l163 625h236l-258 -772q-52 -156 -155 -235t-277 -89l-26 163q111 15 164 49.5t85 111.5h-80zM230 1022l317 192l90 -173l-345 -137z" />
<glyph unicode="&#xfe;" d="M102 -323v1402l230 25v-409q35 49 85.5 76t111.5 27q145 0 213.5 -106.5t68.5 -303.5q0 -119 -35.5 -213t-102.5 -147t-158 -53q-112 0 -183 80v-353zM332 212q25 -35 51.5 -51.5t61.5 -16.5q64 0 96.5 57.5t32.5 183.5q0 137 -29 190t-87 53q-72 0 -126 -90v-326z" />
<glyph unicode="&#xff;" d="M41 772h243l149 -625l163 625h236l-258 -772q-52 -156 -155 -235t-277 -89l-26 163q111 15 164 49.5t85 111.5h-80zM148 1044q0 48 35 81.5t85 33.5q51 0 85.5 -33.5t34.5 -81.5q0 -49 -35 -83.5t-85 -34.5t-85 34.5t-35 83.5zM484 1044q0 48 35.5 81.5t85.5 33.5 q49 0 84 -33.5t35 -81.5q0 -49 -34 -83.5t-85 -34.5q-50 0 -85.5 34.5t-35.5 83.5z" />
<glyph unicode="&#x152;" d="M15 505q0 529 312 529q37 0 67.5 -6.5t70.5 -19.5h402l-24 -162h-264q48 -96 56 -256h176v-160h-174q-9 -161 -66 -269h297v-161h-409q-41 -13 -69 -19t-63 -6q-163 0 -237.5 134.5t-74.5 395.5zM217 505q0 -199 25.5 -283.5t86.5 -84.5q63 0 88 83.5t25 284.5 q0 140 -10 218t-35 113t-68 35q-44 0 -68 -36.5t-34 -115t-10 -214.5z" />
<glyph unicode="&#x153;" d="M-12 387q0 192 66.5 301.5t201.5 109.5q71 0 115.5 -31t71.5 -91q65 122 194 122q131 0 187.5 -98.5t56.5 -298.5q0 -38 -4 -72h-340q9 -105 42 -154t93 -49q32 0 60 11t62 36l87 -115q-97 -83 -221 -83q-148 0 -221 117q-28 -57 -71.5 -87t-111.5 -30 q-135 0 -201.5 106.5t-66.5 305.5zM179 387q0 -93 8 -145.5t27 -75t51 -22.5t50 22.5t26.5 75t8.5 146.5q0 131 -19.5 185.5t-65.5 54.5q-48 0 -67 -54.5t-19 -186.5zM535 454h173q-1 109 -17 154.5t-63 45.5q-43 0 -65 -45t-28 -155z" />
<glyph unicode="&#x2c6;" d="M160 983l206 202h140l205 -202l-81 -95l-194 137l-193 -137z" />
<glyph unicode="&#x2dc;" d="M160 980q31 77 78 124.5t110 47.5q33 0 57 -10.5t52 -29.5q19 -13 32 -19.5t27 -6.5q23 0 39 14.5t37 48.5l115 -56q-31 -77 -79 -123.5t-110 -46.5q-32 0 -55.5 10.5t-51.5 29.5q-36 26 -59 26q-26 0 -42 -14.5t-35 -49.5z" />
<glyph unicode="&#x2000;" horiz-adv-x="964" />
<glyph unicode="&#x2001;" horiz-adv-x="1929" />
<glyph unicode="&#x2002;" horiz-adv-x="964" />
<glyph unicode="&#x2003;" horiz-adv-x="1929" />
<glyph unicode="&#x2004;" horiz-adv-x="643" />
<glyph unicode="&#x2005;" horiz-adv-x="482" />
<glyph unicode="&#x2006;" horiz-adv-x="321" />
<glyph unicode="&#x2007;" horiz-adv-x="321" />
<glyph unicode="&#x2008;" horiz-adv-x="241" />
<glyph unicode="&#x2009;" horiz-adv-x="385" />
<glyph unicode="&#x200a;" horiz-adv-x="107" />
<glyph unicode="&#x2010;" d="M157 366v178h558v-178h-558z" />
<glyph unicode="&#x2011;" d="M157 366v178h558v-178h-558z" />
<glyph unicode="&#x2012;" d="M157 366v178h558v-178h-558z" />
<glyph unicode="&#x2013;" d="M39 366v178h794v-178h-794z" />
<glyph unicode="&#x2014;" d="M0 366v178h872v-178h-872z" />
<glyph unicode="&#x2018;" d="M295 779q0 32 10.5 66.5t36.5 85.5l103 216h131l-63 -257q55 -39 56 -111q0 -55 -39.5 -93t-97.5 -38t-97.5 38t-39.5 93z" />
<glyph unicode="&#x2019;" d="M295 648l63 258q-55 41 -56 109q0 55 39.5 93.5t97.5 38.5t97.5 -38.5t39.5 -93.5q0 -31 -10.5 -65t-36.5 -85l-103 -217h-131z" />
<glyph unicode="&#x201a;" d="M295 -265l64 258q-55 39 -55 110q0 55 39 93t98 38q58 0 97 -38t39 -93q0 -32 -10 -65.5t-36 -85.5l-105 -217h-131z" />
<glyph unicode="&#x201c;" d="M128 779q0 33 9.5 67.5t34.5 84.5l104 216h130l-63 -257q57 -41 57 -111q0 -55 -40 -93t-98 -38t-96 38t-38 93zM465 779q0 32 10.5 66.5t36.5 85.5l103 216h129l-62 -257q57 -42 57 -111q0 -53 -40 -92t-97 -39q-58 0 -97.5 38t-39.5 93z" />
<glyph unicode="&#x201d;" d="M128 662l61 257q-55 41 -55 109q0 55 40 93t96 38q58 0 97.5 -38t39.5 -93q0 -31 -10 -64t-36 -89l-104 -213h-129zM465 662l64 257q-58 41 -58 109q0 55 40 93t98 38t96.5 -38t38.5 -93q0 -32 -9 -66t-36 -87l-104 -213h-130z" />
<glyph unicode="&#x201e;" d="M128 -265l64 258q-58 41 -58 110q0 54 40 92.5t96 38.5q58 0 97.5 -38t39.5 -93q0 -33 -10 -66.5t-36 -84.5l-104 -217h-129zM465 -265l64 258q-58 41 -58 110q0 55 40 93t98 38t96.5 -38t38.5 -93q0 -33 -9 -67.5t-36 -83.5l-104 -217h-130z" />
<glyph unicode="&#x2022;" d="M230 497q0 89 58 147t148 58t148.5 -58t58.5 -148q0 -89 -58.5 -147t-148.5 -58q-88 0 -147 59t-59 147z" />
<glyph unicode="&#x202f;" horiz-adv-x="385" />
<glyph unicode="&#x2039;" d="M228 345v145l274 318l142 -93l-186 -298l186 -299l-142 -93z" />
<glyph unicode="&#x203a;" d="M228 118l185 299l-185 298l141 93l275 -318v-145l-275 -320z" />
<glyph unicode="&#x205f;" horiz-adv-x="482" />
<glyph unicode="&#x20ac;" d="M47 333l30 122h89v102h-118l31 121h104q36 169 143 262.5t267 93.5q82 0 137 -19t112 -57l-86 -142q-41 28 -73 38.5t-78 10.5q-153 0 -192 -187h299l-30 -121h-285v-102h263l-30 -122h-221q16 -99 61.5 -143.5t127.5 -44.5q105 0 203 67v-183q-111 -54 -221 -54 q-166 0 -267 91.5t-133 266.5h-133z" />
<glyph unicode="&#x25fc;" horiz-adv-x="770" d="M0 0v770h770v-770h-770z" />
</font>
</defs>
</svg>
