<?xml version="1.0" standalone="no"?>
<!DOCTYPE svg PUBLIC "-//W3C//DTD SVG 1.1//EN" "http://www.w3.org/Graphics/SVG/1.1/DTD/svg11.dtd" >
<svg xmlns="http://www.w3.org/2000/svg" xmlns:xlink="http://www.w3.org/1999/xlink" version="1.1">
<metadata></metadata>
<defs>
<font id="amiri_typewriterregular" horiz-adv-x="870" >
<font-face units-per-em="2048" ascent="1638" descent="-410" />
<missing-glyph horiz-adv-x="500" />
<glyph horiz-adv-x="0" />
<glyph unicode="&#xd;" />
<glyph unicode=" " />
<glyph unicode="!" d="M338 82q0 41 27.5 68.5t68.5 27.5q43 0 70.5 -27.5t27.5 -68.5q0 -43 -27.5 -70.5t-70.5 -27.5q-41 0 -68.5 28.5t-27.5 69.5zM365 1001h137l-13 -671h-110z" />
<glyph unicode="&#x22;" d="M238 1075h153l-22 -379h-109zM481 1075h154l-23 -379h-106z" />
<glyph unicode="#" d="M78 248v92h127l45 324h-119v96h129l35 241h102l-32 -241h210l33 241h105l-33 -241h115v-96h-129l-41 -324h116v-92h-133l-28 -248h-105l33 248h-211l-35 -248h-102l33 248h-115zM307 340h211l45 324h-213z" />
<glyph unicode="$" d="M100 121l72 82q102 -102 231 -115v401q-131 43 -198.5 112t-67.5 167q0 59 31 113.5t90 89.5t145 45v217h101v-217q80 -8 148.5 -40t115.5 -77l-74 -78q-86 80 -190 92v-329q127 -43 202.5 -115t75.5 -195q0 -109 -72.5 -188.5t-205.5 -95.5v-211h-101v207 q-94 4 -170.5 43t-132.5 92zM268 768q0 -53 30 -88t105 -66v295q-61 -10 -98 -45t-37 -96zM504 94q147 29 145 178q0 63 -32.5 107.5t-112.5 77.5v-363z" />
<glyph unicode="%" d="M29 784q0 98 57 166t155.5 68t156 -67.5t57.5 -166.5q0 -63 -26 -116.5t-74 -85t-113.5 -31.5t-113.5 31.5t-73.5 85t-25.5 116.5zM47 23l686 1005l78 -51l-686 -1006zM139 784q0 -68 29 -108.5t74 -40.5q47 0 73.5 38t26.5 111q0 76 -26.5 112t-73.5 36q-45 0 -74 -39 t-29 -109zM420 227q0 96 58.5 164t156.5 68t155.5 -67.5t57.5 -164.5q0 -63 -25.5 -116.5t-75 -86t-112.5 -32.5q-66 0 -115 32.5t-74.5 86t-25.5 116.5zM532 227q0 -70 29 -109.5t74 -39.5q47 0 72.5 37t25.5 112q0 76 -26.5 111t-71.5 35q-47 0 -75 -37t-28 -109z" />
<glyph unicode="&#x26;" d="M80 285q0 113 58.5 183.5t166.5 94.5v4q-92 23 -133 79t-41 130q0 63 34 118.5t96.5 88.5t144.5 33q71 0 128.5 -22.5t112.5 -86.5l-72 -67q-39 43 -78.5 64.5t-93.5 21.5q-76 0 -114.5 -41t-38.5 -109q0 -43 24.5 -82t65.5 -61.5t90 -22.5h406v-98h-131v-393 q-43 -53 -117 -94t-185 -41q-109 0 -182.5 42t-107 110.5t-33.5 148.5zM199 289q0 -86 51 -145.5t156 -59.5q61 0 109 19.5t77 54.5v354h-180q-72 0 -120 -33t-70.5 -85t-22.5 -105z" />
<glyph unicode="'" d="M358 1075h154l-23 -379h-106z" />
<glyph unicode="(" d="M561 1929l103 -74q-655 -909 0 -1773l-101 -76q-711 938 -2 1923z" />
<glyph unicode=")" d="M203 1851l98 78q723 -930 27 -1923l-103 72q643 920 -22 1773z" />
<glyph unicode="*" d="M139 502l37 116l219 -92l-20 240h123l-23 -240l221 92l37 -116l-229 -53l160 -175l-101 -75l-125 204l-119 -208l-102 69l154 185z" />
<glyph unicode="+" d="M170 401v103h209v217h113v-217h213v-103h-213v-217h-113v217h-209z" />
<glyph unicode="," d="M299 -260l68 287q-20 16 -34 41.5t-14 54.5q0 49 34 83t83 34t84 -34t35 -81q0 -53 -29 -117l-116 -268h-111z" />
<glyph unicode="-" d="M182 403v105h508v-105h-508z" />
<glyph unicode="." d="M307 113q0 53 37 90t90 37q55 0 92 -37t37 -90q0 -55 -37 -92t-92 -37q-53 0 -90 36.5t-37 92.5z" />
<glyph unicode="/" d="M78 -106l620 1282l97 -46l-619 -1280z" />
<glyph unicode="0" d="M109 502q0 250 83.5 383t243.5 133t244 -133t84 -383q0 -252 -84 -385t-244 -133t-243.5 133t-83.5 385zM238 502q0 -420 198 -418q199 0 199 418t-199 418q-198 0 -198 -418zM342 502q0 39 26.5 66.5t67.5 27.5t68.5 -27.5t27.5 -66.5q0 -41 -27.5 -68.5t-68.5 -27.5 t-67.5 27.5t-26.5 68.5z" />
<glyph unicode="1" d="M137 815l299 186h109v-903h207v-98h-578v98h246v770l-227 -139z" />
<glyph unicode="2" d="M86 874q59 74 133 109t172 35q92 0 161 -37t105.5 -99.5t36.5 -142.5q0 -92 -43 -180t-137 -192.5t-268 -262.5h471l-15 -104h-596v98q197 188 292.5 295t131 181.5t35.5 158.5t-48 133t-132 49q-72 0 -119 -24.5t-96 -81.5z" />
<glyph unicode="3" d="M76 117l82 65q41 -47 99 -72.5t122 -25.5q104 0 163.5 54.5t59.5 150.5q0 190 -209 188h-82l15 98h59q80 0 134 44.5t54 130.5q0 80 -52 125t-136 45q-63 0 -111.5 -23t-101.5 -70l-66 74q123 117 285 117q92 0 162 -35t107.5 -91t37.5 -126q0 -86 -56 -150.5t-138 -80.5 q94 -6 159.5 -72t65.5 -174q0 -86 -43 -156t-123 -109.5t-180 -39.5q-88 0 -171 33.5t-136 99.5z" />
<glyph unicode="4" d="M104 244v90l293 684l103 -43l-267 -633h289l10 283h107v-283h129v-98h-129v-244h-119v244h-416z" />
<glyph unicode="5" d="M113 102l75 74q92 -92 215 -92q100 0 155.5 61.5t55.5 176.5q0 113 -50 163t-132 50q-39 0 -70.5 -7.5t-85.5 -25.5h-100v499h533l-19 -98h-395v-315q43 25 84 34t88 9q125 0 199.5 -83t74.5 -231q0 -98 -41 -173.5t-117.5 -117.5t-179.5 -42q-168 0 -290 118z" />
<glyph unicode="6" d="M115 473q0 166 45 289t128 189.5t199 66.5q109 0 199 -60l-47 -81q-72 43 -154 43q-115 0 -179 -107.5t-68 -294.5q47 70 106 101.5t135 31.5q78 0 143.5 -34.5t103.5 -105.5t38 -173q0 -109 -42 -189.5t-113.5 -122.5t-159.5 -42q-174 0 -254 127t-80 362zM240 410 q2 -170 52 -248t157 -78q92 0 141 65.5t49 184.5q0 219 -178 219q-70 0 -126 -39t-95 -104z" />
<glyph unicode="7" d="M141 899v102h592v-94l-399 -919l-113 32l389 879h-469z" />
<glyph unicode="8" d="M94 266q0 168 203 262q-84 39 -122 92.5t-38 135.5q0 86 45 145.5t114 88t140 28.5q78 0 145.5 -27.5t110.5 -85t43 -141.5q0 -72 -44 -125t-128 -102q102 -43 158.5 -111t56.5 -158q0 -82 -42 -146.5t-120.5 -101t-183 -36.5t-181.5 36.5t-117 101t-40 144.5zM223 266 q0 -86 54.5 -134t154.5 -48q102 0 158.5 50t56.5 132q0 64 -30.5 104t-83 63.5t-154.5 60.5q-156 -74 -156 -228zM256 756q0 -58 25.5 -89.5t67.5 -51t128 -48.5q74 43 106.5 85t32.5 106q0 76 -47 120t-133 44t-133 -43t-47 -123z" />
<glyph unicode="9" d="M96 686q0 104 43 178t117 113t164 39q166 0 247 -101.5t81 -283.5q0 -211 -54.5 -336t-167 -197.5t-313.5 -128.5l-29 94q213 57 322.5 155.5t111.5 270.5q-39 -53 -99 -87.5t-138 -34.5q-84 0 -147.5 38.5t-100.5 111.5t-37 169zM223 682q0 -111 46 -164t132 -53 q70 0 124.5 35t95.5 98q2 174 -45.5 247t-155.5 73q-96 0 -146.5 -59.5t-50.5 -176.5z" />
<glyph unicode=":" d="M172 252q0 96 97.5 96t97.5 -96t-97.5 -96t-97.5 96zM178 776q0 96 97.5 96t97.5 -96t-97.5 -96t-97.5 96z" />
<glyph unicode=";" d="M295 -262l70 289q-23 16 -35.5 41.5t-12.5 56.5q0 49 34 83t83 34t84 -35t35 -82q0 -51 -29 -117l-118 -270h-111zM317 627q0 47 34 81.5t83 34.5q51 0 85 -33.5t34 -82.5t-34 -84t-85 -35q-49 0 -83 35t-34 84z" />
<glyph unicode="&#x3c;" d="M127 393v125l559 346l59 -94l-512 -315l512 -318l-65 -90z" />
<glyph unicode="=" d="M154 262v105h565v-105h-565zM154 539v104h565v-104h-565z" />
<glyph unicode="&#x3e;" d="M127 137l514 318l-514 315l61 94l557 -346v-125l-552 -346z" />
<glyph unicode="?" d="M131 874q123 143 303 144q86 0 151.5 -32t101.5 -83t36 -110q0 -55 -18.5 -94.5t-45 -65t-71.5 -58.5q-43 -31 -68.5 -53t-43 -58t-17.5 -85v-49h-121v57q0 59 20.5 103.5t49 72t75.5 62.5q57 45 85 77.5t28 81.5q0 61 -48 96t-124 35q-53 0 -108.5 -26.5t-98.5 -79.5z M305 82q0 41 28.5 68.5t69.5 27.5t69 -27.5t28 -68.5q0 -43 -28 -70.5t-69 -27.5t-69.5 28.5t-28.5 69.5z" />
<glyph unicode="@" d="M12 858q94 82 196.5 121t205.5 39q254 0 346 -167t92 -437q0 -195 -17.5 -311.5t-63.5 -175t-132 -58.5q-57 0 -96 34t-58.5 83t-17.5 90h-6q-57 -141 -199 -144q-113 0 -166 90.5t-53 243.5q0 188 73.5 281.5t213.5 93.5q53 0 99 -11.5t106 -41.5v-430q0 -109 26.5 -150 t73.5 -41q43 0 62.5 53.5t23.5 136.5t4 232q0 166 -22.5 277.5t-90 177t-198.5 65.5q-84 0 -164 -28.5t-166 -104.5zM162 266q0 -115 25.5 -178t88.5 -63q47 0 77 21.5t43.5 45t29.5 62.5v376q-43 20 -92 21q-96 0 -134 -68.5t-38 -216.5z" />
<glyph unicode="A" d="M29 0l327 1001h160l326 -1001h-131l-80 256h-398l-79 -256h-125zM268 360h330l-166 535z" />
<glyph unicode="B" d="M139 0v1001h248q154 0 254 -58t100 -193q0 -90 -53 -144.5t-133 -75.5q229 -39 229 -241q0 -156 -107.5 -222.5t-266.5 -66.5h-271zM266 104h166q92 0 155.5 38t63.5 139q0 106 -57 148t-158 42h-170v-367zM266 575h160q184 0 186 166q0 82 -51 120t-145 38h-150v-324z " />
<glyph unicode="C" d="M92 502q0 164 57.5 280.5t155.5 176t215 59.5q94 0 161 -23.5t130 -74.5l-72 -82q-87 73 -208 73h-3q-135 0 -220 -98t-85 -311t83 -311.5t222 -98.5q76 0 129.5 21.5t102.5 60.5l65 -82q-112 -108 -296 -108h-3q-125 0 -223 60t-154.5 177t-56.5 281z" />
<glyph unicode="D" d="M121 0v1001h213q211 0 341 -105t130 -390t-131 -395.5t-324 -110.5h-229zM248 102h119q129 0 216 89.5t87 314.5q0 164 -45 250t-110.5 114.5t-149.5 28.5h-117v-797z" />
<glyph unicode="E" d="M182 0v1001h570l-15 -104h-430v-338h373v-102h-373v-355h459v-102h-584z" />
<glyph unicode="F" d="M201 0v1001h590l-15 -104h-448v-350h393v-103h-393v-444h-127z" />
<glyph unicode="G" d="M66 502q0 166 58 281.5t154.5 175t206.5 59.5q94 0 159 -26.5t126 -84.5l-76 -78q-47 43 -96 62.5t-113 19.5q-123 0 -203.5 -97t-80.5 -312q0 -213 66.5 -312.5t199.5 -99.5q106 0 190 47v305h-196l-15 107h338v-477q-76 -43 -152.5 -65.5t-174.5 -22.5q-185 0 -288 132 t-103 386z" />
<glyph unicode="H" d="M121 0v1001h127v-421h377v421h127v-1001h-127v475h-377v-475h-127z" />
<glyph unicode="I" d="M150 0v100h223v799h-223v102h573v-102h-223v-799h223v-100h-573z" />
<glyph unicode="J" d="M106 74l56 84q109 -68 217 -70q104 0 160.5 66.5t56.5 185.5v559h-297v102h424v-667q0 -147 -81 -248.5t-263 -101.5q-74 0 -144.5 22.5t-128.5 67.5z" />
<glyph unicode="K" d="M154 0v1001h125v-1001h-125zM287 535l393 466h145l-391 -458l420 -543h-160z" />
<glyph unicode="L" d="M199 0v1001h125v-888h456l-14 -113h-567z" />
<glyph unicode="M" d="M43 0l57 1001h176l162 -686l158 686h176l57 -1001h-122l-31 522q-8 137 -8 363l-168 -705h-127l-180 705q2 -51 2 -140q0 -133 -7 -223l-24 -522h-121z" />
<glyph unicode="N" d="M121 0v1001h172l358 -882l-4 51q-12 156 -12 292v38v501h117v-1001h-179l-352 881q0 -10 8.5 -127t8.5 -252v-502h-117z" />
<glyph unicode="O" d="M68 500q0 154 43 270.5t124.5 182t200.5 65.5q176 0 272.5 -140.5t96.5 -377.5q0 -234 -95.5 -375t-273.5 -141t-273 138t-95 378zM199 500q0 -205 57 -307.5t180 -102.5q125 0 181.5 102.5t56.5 307.5t-57.5 308t-180.5 103q-125 0 -181 -103t-56 -308z" />
<glyph unicode="P" d="M170 0v1001h254q184 0 285.5 -76.5t101.5 -230.5q0 -168 -104.5 -244.5t-282.5 -76.5h-129v-373h-125zM295 473h139q113 0 177.5 49t64.5 170q0 109 -63.5 159t-174.5 50h-143v-428z" />
<glyph unicode="Q" d="M66 500q0 154 42 270.5t125.5 182t202.5 65.5q176 0 273.5 -140.5t97.5 -377.5q0 -168 -49 -284t-160 -177q109 -23 168 -76t96 -162l-135 -53q-49 125 -115.5 181.5t-189.5 56.5q-113 0 -194 63.5t-121.5 178t-40.5 272.5zM199 500q0 -205 57 -307.5t180 -102.5 q125 0 181.5 102.5t56.5 307.5t-57.5 308t-180.5 103q-125 0 -181 -103t-56 -308z" />
<glyph unicode="R" d="M147 0v1001h256q186 0 281.5 -71.5t95.5 -208.5q0 -109 -66.5 -179.5t-176.5 -99.5l299 -442h-154l-272 428h-138v-428h-125zM272 528h148q113 0 170 45t57 148q0 94 -55 136t-172 42h-148v-371z" />
<glyph unicode="S" d="M63 111l74 86q55 -51 124 -80t155 -29q98 0 164.5 48t66.5 138q0 51 -18.5 85t-65.5 59.5t-133 50.5q-164 47 -242.5 112.5t-78.5 178.5q0 74 39.5 133t114.5 92t169 33q98 0 176 -28.5t144 -86.5l-76 -82q-102 90 -240 90q-86 0 -143 -37.5t-57 -109.5q0 -43 23.5 -74 t76.5 -57.5t151 -52.5q141 -41 217 -106.5t76 -194.5q0 -89 -43 -155.5t-126 -103t-197 -36.5q-109 0 -198 32.5t-153 94.5z" />
<glyph unicode="T" d="M57 893v108h756l-12 -108h-303v-893h-127v893h-314z" />
<glyph unicode="U" d="M104 324v677h127v-682q0 -113 52.5 -170t150.5 -57t151.5 57.5t53.5 169.5v682h129v-677q0 -100 -42 -178t-116.5 -120t-175.5 -42q-102 0 -176 43t-114 119.5t-40 177.5z" />
<glyph unicode="V" d="M37 1001h135l266 -858l273 858h125l-334 -1001h-131z" />
<glyph unicode="W" d="M6 1001h127l107 -864l120 748h154l117 -748l119 864h114l-149 -1001h-166l-117 756l-115 -756h-170z" />
<glyph unicode="X" d="M45 0l313 535l-286 466h145l219 -385l221 385h136l-283 -460l317 -541h-145l-250 453l-252 -453h-135z" />
<glyph unicode="Y" d="M33 1001h139l266 -501l271 501h131l-340 -614v-387h-127v385z" />
<glyph unicode="Z" d="M104 0v102l529 791h-475v108h610v-104l-524 -788h522l-14 -109h-648z" />
<glyph unicode="[" d="M268 -168v1354h365v-107h-248v-1142h248v-105h-365z" />
<glyph unicode="\" d="M78 1130l94 46l623 -1282l-99 -44z" />
<glyph unicode="]" d="M240 -63h249v1142h-249v107h364v-1354h-364v105z" />
<glyph unicode="^" d="M109 766l274 455h106l277 -455h-133l-199 344l-196 -344h-129z" />
<glyph unicode="_" d="M74 -158h727v-106h-727v106z" />
<glyph unicode="`" d="M268 1040l66 105l268 -174l-39 -68z" />
<glyph unicode="a" d="M100 219q0 119 92.5 182.5t266.5 63.5h112v63q0 82 -47 117t-135 35q-86 0 -199 -39l-32 92q135 47 252 49q139 0 211.5 -65.5t72.5 -181.5v-367q0 -45 15.5 -66.5t48.5 -31.5l-31 -86q-113 14 -139 108q-41 -51 -102.5 -79.5t-137.5 -28.5q-115 0 -181.5 64.5 t-66.5 170.5zM231 221q0 -145 148 -145q55 0 107.5 28.5t84.5 79.5v197h-110q-123 0 -176.5 -41t-53.5 -119z" />
<glyph unicode="b" d="M145 0v1075l123 15v-424q88 116 219 116q147 0 217 -104.5t70 -292.5q0 -180 -80 -290.5t-225 -110.5q-131 0 -207 96l-8 -80h-109zM268 182q31 -47 75 -72.5t99 -25.5q97 0 148 74.5t51 226.5q0 147 -45 222t-137 75q-57 0 -106.5 -34t-84.5 -87v-379z" />
<glyph unicode="c" d="M131 379q0 115 43 207t125 144t195 52q147 0 256 -90l-62 -80q-100 68 -196 68q-102 0 -165 -77t-63 -224t61.5 -219t168.5 -72q100 0 198 68l58 -80q-47 -43 -119 -67.5t-137 -24.5q-170 0 -266.5 107.5t-96.5 287.5z" />
<glyph unicode="d" d="M98 383q0 115 37 206t104.5 142t157.5 51q127 0 207 -92v400l123 -15v-1075h-109l-10 100q-43 -57 -98 -86.5t-119 -29.5q-145 0 -219 106.5t-74 292.5zM231 383q0 -147 47.5 -224t137.5 -77q109 0 188 123v381q-33 47 -77 71.5t-97 24.5q-96 0 -147.5 -75t-51.5 -224z " />
<glyph unicode="e" d="M115 383q0 115 41 206t116.5 142t176.5 51q145 0 228 -101t83 -275q0 -33 -2 -66h-514q4 -127 65.5 -190.5t155.5 -63.5q57 0 104 16.5t101 51.5l57 -80q-53 -43 -122.5 -66.5t-139.5 -23.5q-166 0 -258 108.5t-92 290.5zM244 432h397q0 121 -51 185.5t-141 64.5 q-89 0 -144 -63.5t-61 -186.5z" />
<glyph unicode="f" d="M137 608v99h180v151q0 102 80 167t201 65q111 0 209 -41l-41 -93q-74 33 -164 33q-160 0 -160 -127v-155h258l-12 -99h-246v-608h-125v608h-180z" />
<glyph unicode="g" d="M96 -78h111q0 -47 18.5 -75.5t63.5 -42t131 -13.5q125 0 182 32t57 93q0 51 -48 81t-122 30h-137q-94 0 -144 41t-50 104q0 37 22.5 72t63.5 61q-66 33 -97.5 85t-31.5 126q0 78 39 138.5t107.5 94t158.5 33.5q131 0 199.5 14.5t148.5 49.5l39 -115q-43 -14 -95.5 -17 t-129.5 -3q133 -61 133 -195q0 -117 -77 -188.5t-212 -71.5q-68 0 -113 16q-16 -12 -28.5 -33.5t-12.5 -39.5q0 -66 103 -68h137q76 0 138.5 -25.5t98 -73.5t35.5 -108q0 -113 -95 -172t-269 -59q-176 0 -250 54t-74 175zM240 516q0 -82 46 -130t136 -48q82 0 125 47t43 133 q0 174 -170 174q-90 0 -135 -47t-45 -129z" />
<glyph unicode="h" d="M145 0v1073l123 12v-426q45 57 109.5 90t134.5 33q215 0 215 -227v-555h-121v555q0 68 -31.5 98.5t-101.5 30.5q-59 0 -115.5 -38t-89.5 -89v-557h-123z" />
<glyph unicode="i" d="M176 0v96h236v574h-230v96h353v-670h215v-96h-574zM348 1038q0 39 24.5 62.5t63.5 23.5q41 0 65.5 -24.5t24.5 -61.5q0 -39 -24.5 -62.5t-65.5 -23.5q-39 0 -63.5 23.5t-24.5 62.5z" />
<glyph unicode="j" d="M139 -213q184 31 284.5 106.5t100.5 221.5v555h-317v96h440v-643q0 -184 -123 -287.5t-364 -142.5zM444 1038q0 39 25 62.5t66 23.5q38 0 63 -24.5t25 -61.5q0 -39 -25 -62.5t-63 -23.5q-39 0 -65 23.5t-26 62.5z" />
<glyph unicode="k" d="M154 0v1075l122 15v-1090h-122zM289 420l342 346h155l-344 -346l385 -420h-161z" />
<glyph unicode="l" d="M86 977v98h358v-887q0 -102 127 -102q59 0 127 27l33 -90q-74 -39 -180 -39q-102 0 -164.5 56t-62.5 155v782h-238z" />
<glyph unicode="m" d="M74 0v766h96l6 -90q35 51 74 78.5t92 27.5q109 0 139 -102q35 49 75 75.5t93 26.5q66 0 108 -46t42 -167v-569h-113v551q0 80 -10 107.5t-49 27.5q-74 0 -133 -90v-596h-115v551q0 80 -10.5 107.5t-49.5 27.5q-74 0 -133 -90v-596h-112z" />
<glyph unicode="n" d="M145 0v766h105l10 -107q45 57 113.5 90t138.5 33q215 0 215 -227v-555h-121v465q0 86 -9 131t-37 66.5t-85 21.5q-63 0 -118.5 -38t-88.5 -89v-557h-123z" />
<glyph unicode="o" d="M106 383q0 182 86.5 290.5t245.5 108.5q158 0 243 -106.5t85 -290.5q0 -180 -86 -290.5t-243.5 -110.5t-244 107.5t-86.5 291.5zM238 383q0 -152 49 -225.5t149 -73.5t150 74q49 76 49 227.5t-49 224t-148 72.5q-100 0 -150 -73.5t-50 -225.5z" />
<glyph unicode="p" d="M145 -307v1073h105l10 -107q43 59 101.5 91t127.5 32q277 0 277 -397q0 -182 -76 -291.5t-219 -109.5q-125 0 -203 88v-367zM268 182q31 -45 76 -70.5t98 -25.5q96 0 144.5 73.5t48.5 225.5t-42 224.5t-134 72.5q-58 0 -107 -34t-84 -87v-379z" />
<glyph unicode="q" d="M106 383q0 176 77 287.5t214 111.5q135 0 215 -100l11 84h104v-1073l-123 12v391q-81 -112 -215 -112h-2q-281 0 -281 393v6zM238 383q0 -150 44 -223.5t132 -73.5q59 0 107 33t83 86v381q-31 47 -76 71.5t-100 24.5h-2q-188 0 -188 -299z" />
<glyph unicode="r" d="M154 0v94h118v578h-118v94h211l22 -180q47 98 111.5 147t165.5 49q45 0 106 -16l-16 -260h-101v164h-6q-176 0 -252 -252v-324h156v-94h-397z" />
<glyph unicode="s" d="M109 86l67 82q47 -39 106.5 -61.5t125.5 -22.5q86 0 137 34t51 89q0 39 -13.5 62.5t-52 43t-118.5 39.5q-133 33 -197.5 80t-64.5 141q0 96 79.5 152.5t210.5 56.5q160 0 281 -84l-57 -84q-47 33 -99.5 50.5t-122.5 17.5q-163 0 -163 -95q0 -38 17 -59.5t59 -39 t124 -39.5q125 -33 186.5 -85.5t61.5 -150.5q0 -115 -92 -172t-227 -57q-180 0 -299 102z" />
<glyph unicode="t" d="M115 670v96h176v172l123 16v-188h266l-16 -96h-250v-455q0 -66 34.5 -97.5t110.5 -31.5q80 0 148 37l49 -84q-41 -27 -97.5 -41t-109.5 -14q-121 0 -189.5 63.5t-68.5 165.5v457h-176z" />
<glyph unicode="u" d="M145 209v557h123v-545q0 -74 31 -107.5t98 -33.5q61 0 117.5 35t89.5 88v563h123v-766h-104l-11 102q-45 -57 -111.5 -87.5t-133.5 -30.5q-109 0 -165.5 58t-56.5 167z" />
<glyph unicode="v" d="M86 766h131l221 -655l219 655h127l-278 -766h-141z" />
<glyph unicode="w" d="M27 766h123l100 -690l121 594h143l117 -594l96 690h119l-131 -766h-174l-101 561l-106 -561h-170z" />
<glyph unicode="x" d="M82 0l283 403l-250 363h145l178 -285l178 285h142l-248 -356l281 -410h-148l-211 330l-211 -330h-139z" />
<glyph unicode="y" d="M90 766h129l219 -674l217 674h127l-268 -770q-45 -131 -123 -211t-219 -92l-18 96q78 12 124 40t71.5 68t47.5 103h-41z" />
<glyph unicode="z" d="M147 0v92l426 567h-391v107h539v-96l-422 -566h426l-14 -104h-564z" />
<glyph unicode="{" d="M170 459v98q127 0 175 30.5t48 94.5q0 16 -2 29l-31 278q0 10 -2 29q0 109 83 154t214 45v-99q-193 0 -182 -117l31 -296q0 -12 2 -39q0 -70 -34 -107t-103 -49q72 -12 104.5 -48t32.5 -110q0 -25 -2 -39l-31 -297q-6 -63 44 -89.5t138 -26.5v-99q-131 0 -214 45t-83 154 q0 18 2 29l31 276q0 10 2 29q0 63 -48 94t-175 31z" />
<glyph unicode="|" d="M381 -147v1321h108v-1321h-108z" />
<glyph unicode="}" d="M217 -100q88 0 137 26.5t43 89.5l-28 297q-2 29 -2 39q0 74 35.5 109t117.5 47q-80 14 -115.5 51t-35.5 109v37l28 296q12 117 -180 117v99q131 0 213 -46.5t82 -152.5v-29l-31 -278q0 -6 -2 -23q0 -66 52.5 -98.5t170.5 -32.5v-98q-121 0 -172 -32t-51 -97q0 -14 2 -25 l31 -276v-29q0 -109 -82 -154t-213 -45v99z" />
<glyph unicode="~" d="M63 397q43 84 96.5 135.5t139.5 51.5q53 0 90 -22.5t84 -63.5q33 -31 56.5 -45.5t50.5 -14.5q78 0 143 123l88 -47q-43 -82 -97.5 -132t-140.5 -50q-49 0 -83.5 21.5t-83.5 60.5q-33 33 -57.5 48t-53.5 15q-43 0 -78 -32.5t-67 -92.5z" />
<glyph unicode="&#xa0;" />
<glyph unicode="&#xa1;" d="M338 627q0 43 27.5 70.5t68.5 27.5t69.5 -28.5t28.5 -69.5t-28.5 -69t-69.5 -28t-68.5 28t-27.5 69zM365 -287l18 666h104l19 -666h-141z" />
<glyph unicode="&#xa2;" d="M154 379q0 162 72.5 269.5t207.5 125.5v219h109v-219q98 -12 176 -74l-62 -82q-47 33 -84.5 47.5t-83.5 14.5q-96 0 -149 -76t-53 -225q0 -147 52 -219t150 -72q45 0 85 15.5t85 50.5l60 -86q-76 -63 -176 -76v-213h-111v213q-137 16 -207.5 118.5t-70.5 268.5z" />
<glyph unicode="&#xa3;" d="M109 0v98q53 16 78.5 44t32.5 62t7 89v184h-118v86h118v187q0 78 34 138t96.5 95t146.5 35q170 0 260 -127l-82 -62q-37 45 -79 65.5t-95 20.5q-78 0 -118 -45t-40 -131v-176h299v-86h-299v-178q0 -68 -18.5 -117t-71.5 -78h492l-15 -104h-628z" />
<glyph unicode="&#xa4;" d="M49 184l129 129q-51 82 -51 185q0 102 49 178l-127 133l80 78l127 -131q80 47 182 49q106 0 176 -49l129 129l80 -78l-127 -127q51 -80 54 -182q0 -98 -56 -185l129 -127l-80 -77l-131 127q-74 -47 -174 -48q-102 0 -180 48l-129 -130zM252 498q0 -98 48 -153.5 t138 -55.5t137.5 54t47.5 155q0 98 -47.5 153.5t-137.5 55.5t-138 -55.5t-48 -153.5z" />
<glyph unicode="&#xa5;" d="M57 1001h140l241 -460h4l244 460h129l-280 -499h172v-84h-207v-125h207v-86h-207v-207h-127v207h-203v86h203v125h-203v84h168z" />
<glyph unicode="&#xa6;" d="M381 -147v516h108v-516h-108zM381 657v517h108v-517h-108z" />
<glyph unicode="&#xa7;" d="M154 465q0 55 32.5 102t85.5 80q-86 66 -86 160q0 96 79 153.5t196 57.5q76 0 133 -20.5t111 -59.5l-60 -82q-47 33 -90 47.5t-102 14.5q-63 0 -101.5 -28t-38.5 -75q0 -35 14.5 -56.5t53.5 -41t113 -45.5q121 -39 172 -88t51 -133q0 -57 -32 -104.5t-85 -78.5 q86 -63 86 -157q0 -96 -78 -153.5t-202 -57.5q-141 0 -248 77l57 84q45 -33 91 -47t108 -14q63 0 103 27.5t40 74.5q0 33 -14.5 55.5t-51 41t-112.5 45.5q-121 41 -173 89t-52 132zM276 481q0 -41 18.5 -64.5t58.5 -41t145 -56.5q6 0 12 -3l14 -7q33 29 52.5 61.5t19.5 63.5 q0 41 -19.5 64.5t-63.5 42t-165 63.5q-35 -24 -53.5 -58t-18.5 -65z" />
<glyph unicode="&#xa8;" d="M205 1020q0 35 23.5 57.5t56.5 22.5t56.5 -22.5t23.5 -57.5q0 -33 -24 -55.5t-56 -22.5q-33 0 -56.5 22.5t-23.5 55.5zM508 1020q0 35 22.5 57.5t55.5 22.5t56.5 -22.5t23.5 -57.5q0 -33 -24 -55.5t-56 -22.5q-33 0 -55.5 21.5t-22.5 56.5z" />
<glyph unicode="&#xa9;" d="M43 633q0 127 47 229.5t136 162.5t212 60q121 0 210 -60t135 -162.5t46 -229.5t-46 -229.5t-135 -162t-210 -59.5q-123 0 -212 59.5t-136 163t-47 228.5zM125 633q0 -109 35 -194t105.5 -134t172.5 -49t172 49t105 134t35 193.5t-35 194.5t-105.5 136.5t-171.5 50.5 q-102 0 -172.5 -50.5t-105.5 -137.5t-35 -193zM207 635q0 86 31.5 148.5t86 94t117.5 31.5q56 0 93.5 -13t78.5 -44l-53 -68q-57 43 -112 43q-61 0 -99.5 -47t-38.5 -145q0 -92 37 -140.5t101 -48.5q70 0 124 52l48 -72q-78 -68 -179 -68q-106 0 -170.5 74t-64.5 203z" />
<glyph unicode="&#xaa;" d="M147 639q0 96 83 148.5t235 52.5h86v41q0 115 -145 114q-80 0 -179 -34l-32 83q117 43 227 46q119 0 180.5 -53.5t61.5 -151.5v-287q0 -33 11 -49.5t38 -24.5l-29 -78q-47 6 -75.5 27t-45.5 59q-35 -41 -86 -63.5t-108 -22.5q-98 0 -160 53.5t-62 139.5zM154 0v109h571 v-109h-571zM272 645q0 -55 32 -82.5t93 -27.5q43 0 83 21.5t71 57.5v142h-86q-193 0 -193 -111z" />
<glyph unicode="&#xab;" d="M119 383v88l256 303l74 -47l-197 -301l197 -299l-74 -47zM420 383v88l258 303l74 -47l-197 -301l197 -299l-74 -47z" />
<glyph unicode="&#xac;" d="M170 401v105h535v-311h-113v206h-422z" />
<glyph unicode="&#xad;" d="M209 403v105h455v-105h-455z" />
<glyph unicode="&#xae;" d="M68 715q0 100 49 185t134 135t185.5 50t184.5 -50t134 -135t50 -185.5t-50 -184.5t-134 -133t-184.5 -49t-185.5 49t-134 133t-49 185zM143 715q0 -84 39 -151.5t105.5 -107.5t148.5 -40t148.5 40t104.5 108.5t38 150.5q0 84 -38 152.5t-104.5 109.5t-148.5 41 t-148.5 -41t-105.5 -110.5t-39 -151.5zM293 514v412h123q178 0 178 -125q0 -43 -26.5 -73t-71.5 -42l125 -172h-97l-108 160h-41v-160h-82zM375 735h45q88 0 90 66q0 59 -92 59h-43v-125z" />
<glyph unicode="&#xaf;" d="M240 983v92h391v-92h-391z" />
<glyph unicode="&#xb0;" d="M94 862q0 70 34 121t88 79t115.5 28t116 -28t87 -79t32.5 -123q0 -70 -32.5 -121t-87 -77.5t-115.5 -26.5q-63 0 -116.5 26.5t-87.5 79t-34 121.5zM203 862q0 -68 38 -104.5t91 -36.5t91 36t38 103.5t-38 104t-91 36.5t-91 -34.5t-38 -104.5z" />
<glyph unicode="&#xb1;" d="M170 0v106h535v-106h-535zM170 463v102h209v217h115v-217h211v-102h-211v-225h-115v225h-209z" />
<glyph unicode="&#xb2;" d="M223 834q43 49 99.5 74.5t115.5 25.5q90 0 142.5 -42t52.5 -111q0 -48 -23.5 -82.5t-75 -68.5t-147.5 -83h260l-12 -88h-404v78q137 84 189.5 117.5t77 61.5t24.5 60.5t-22.5 51t-63.5 18.5q-80 0 -137 -70z" />
<glyph unicode="&#xb3;" d="M213 535l68 55q63 -57 157 -57q55 0 83 17.5t28 49.5q0 37 -26.5 52.5t-80.5 15.5h-65l10 63h51q92 0 92 60q0 63 -90 63q-80 0 -151 -55l-58 59q92 76 218 76q86 0 137 -34.5t51 -94.5q0 -41 -23.5 -64.5t-78.5 -31.5q63 -10 92.5 -36t29.5 -77q0 -68 -59 -106.5 t-166 -38.5q-63 0 -119.5 20.5t-99.5 63.5z" />
<glyph unicode="&#xb4;" d="M272 995l285 164l57 -104l-305 -123z" />
<glyph unicode="&#xb5;" d="M127 -307v1073h123v-430q0 -86 9 -137.5t37 -79t83 -27.5q63 0 114.5 32t88.5 83v559h123v-522q0 -113 38 -244l-114 -16q-10 18 -21.5 56t-13.5 66q-33 -55 -90.5 -88.5t-116.5 -33.5q-57 0 -89 16t-60 57q12 -94 12 -129v-223z" />
<glyph unicode="&#xb6;" d="M63 709q0 84 42 150.5t125 104t202 37.5h377v-1294l-113 -14v1206h-161v-1192l-113 -14v727q-115 0 -197 38t-122 103.5t-40 147.5z" />
<glyph unicode="&#xb7;" d="M307 498q0 53 37 90t90 37q55 0 92 -37t37 -90q0 -55 -37 -92t-92 -37q-53 0 -90 36.5t-37 92.5z" />
<glyph unicode="&#xb8;" d="M270 -311l39 69q43 -23 99 -22q86 0 86 59q0 37 -31 50.5t-94 13.5l12 164h84v-107q68 -6 101.5 -40t33.5 -81q0 -68 -51 -104.5t-125 -36.5q-43 0 -84 9t-70 26z" />
<glyph unicode="&#xb9;" d="M338 801l211 125h84v-467h-105v348l-139 -76z" />
<glyph unicode="&#xba;" d="M139 768q0 94 37 167t104.5 114t155.5 41q137 0 216 -87.5t79 -234.5q0 -94 -36 -167t-103.5 -114t-155.5 -41q-135 0 -216 88.5t-81 233.5zM152 0v109h571v-109h-571zM262 768q0 -115 45 -171t129 -56q82 0 127 56t45 171q0 113 -45 170t-127 57t-128 -56t-46 -171z" />
<glyph unicode="&#xbb;" d="M119 127l196 299l-196 301l74 47l256 -303v-88l-256 -303zM420 127l196 299l-196 301l74 47l258 -303v-88l-258 -303z" />
<glyph unicode="&#xbc;" d="M-4 879l211 122h84v-466h-105v348l-139 -76zM20 346l779 373l41 -80l-777 -371zM428 82v70l197 329l90 -37l-168 -276h141l8 125h99v-125h79v-86h-79v-82h-107v82h-260z" />
<glyph unicode="&#xbd;" d="M-8 879l211 122h84v-466h-105v348l-139 -76zM16 346l779 373l41 -80l-777 -371zM454 375q43 49 99.5 74.5t115.5 25.5q90 0 142.5 -42t52.5 -111q0 -48 -23.5 -82.5t-75 -68.5t-147.5 -83h260l-12 -88h-404v78q137 84 189.5 117.5t77 61.5t24.5 60.5t-22.5 51t-63.5 18.5 q-80 0 -137 -70z" />
<glyph unicode="&#xbe;" d="M-4 610l68 56q33 -29 73.5 -43.5t83.5 -14.5q55 0 83 17.5t28 50.5q0 37 -26.5 52t-80.5 15h-65l10 64h51q92 0 92 57q0 63 -90 66q-82 0 -151 -56l-58 62q92 76 218 76q86 0 137 -36t51 -95q0 -41 -23.5 -63.5t-78.5 -33.5q63 -10 92.5 -34.5t29.5 -75.5q0 -68 -59 -108 t-166 -40q-63 0 -119.5 20.5t-99.5 63.5zM34 346l779 373l41 -80l-777 -371zM430 82v70l197 329l90 -37l-168 -276h141l8 125h99v-125h79v-86h-79v-82h-107v82h-260z" />
<glyph unicode="&#xbf;" d="M154 -84q0 55 17 94t45 64.5t73 56.5q63 47 94 88t31 111v49h125v-55q0 -59 -20.5 -104.5t-50.5 -73t-77 -62.5q-57 -43 -84.5 -77t-27.5 -83q0 -61 48 -96t124 -35q55 0 109 26.5t97 82.5l86 -66q-123 -143 -305 -143q-86 0 -151.5 31.5t-99 83t-33.5 108.5zM375 627 q0 43 27.5 70.5t68.5 27.5t69.5 -28.5t28.5 -69.5t-28.5 -69t-69.5 -28t-68.5 28t-27.5 69z" />
<glyph unicode="&#xc0;" d="M29 0l327 1001h160l326 -1001h-131l-80 256h-398l-79 -256h-125zM268 360h330l-166 535zM268 1217l66 106l268 -158l-37 -67z" />
<glyph unicode="&#xc1;" d="M29 0l327 1001h160l326 -1001h-131l-80 256h-398l-79 -256h-125zM268 360h330l-166 535zM268 1165l289 152l53 -105l-309 -114z" />
<glyph unicode="&#xc2;" d="M29 0l327 1001h160l326 -1001h-131l-80 256h-398l-79 -256h-125zM199 1167l196 156h82l197 -156l-56 -61l-182 117l-182 -117zM268 360h330l-166 535z" />
<glyph unicode="&#xc3;" d="M29 0l327 1001h160l326 -1001h-131l-80 256h-398l-79 -256h-125zM197 1174q59 123 155 122q29 0 51.5 -10t49.5 -31q23 -16 38 -22t29 -6q23 0 40.5 14t37.5 49l78 -41q-55 -119 -156 -119q-26 0 -48.5 10.5t-51.5 28.5q-23 16 -38 23.5t-32 7.5q-23 0 -40 -15.5 t-38 -49.5zM268 360h330l-166 535z" />
<glyph unicode="&#xc4;" d="M29 0l327 1001h160l326 -1001h-131l-80 256h-398l-79 -256h-125zM205 1194q0 33 22.5 55.5t57.5 22.5q33 0 56.5 -22.5t23.5 -55.5t-24 -55.5t-56 -22.5q-35 0 -57.5 21.5t-22.5 56.5zM268 360h330l-166 535zM506 1194q0 33 22.5 55.5t57.5 22.5q33 0 55.5 -22.5 t22.5 -55.5t-23 -55.5t-55 -22.5q-35 0 -57.5 21.5t-22.5 56.5z" />
<glyph unicode="&#xc5;" d="M29 0l327 1001h160l326 -1001h-131l-80 256h-398l-79 -256h-125zM268 360h330l-166 535zM272 1221q0 63 47.5 106t116.5 43q70 0 115 -43t45 -106.5t-45 -105.5t-114.5 -42t-117 43t-47.5 105zM356 1221q0 -39 21.5 -60.5t58.5 -21.5t56.5 22.5t19.5 59.5 q0 39 -19.5 61.5t-56.5 22.5t-58.5 -22.5t-21.5 -61.5z" />
<glyph unicode="&#xc6;" d="M-16 0l292 1001h547l-14 -102h-344l74 -340h272v-102h-254l78 -355h248v-102h-351l-53 254h-297l-69 -254h-129zM215 360h242l-107 541z" />
<glyph unicode="&#xc7;" d="M92 502q0 164 57.5 280.5t155.5 176t215 59.5q92 0 160 -23.5t131 -74.5l-72 -82q-88 74 -211 73q-135 0 -220 -98t-85 -311t83 -311.5t222 -98.5q76 0 129.5 21.5t102.5 60.5l65 -82q-109 -104 -286 -108v-68q65 -4 100 -39t35 -82q0 -68 -52.5 -104.5t-125.5 -36.5 q-43 0 -83 9t-71 26l41 69q43 -23 96 -22q86 0 88 59q0 39 -30.5 51.5t-94.5 12.5l9 131q-104 16 -186.5 81.5t-127.5 174t-45 256.5z" />
<glyph unicode="&#xc8;" d="M182 0v1001h570l-15 -104h-430v-338h373v-102h-373v-355h459v-102h-584zM301 1217l66 106l268 -158l-37 -67z" />
<glyph unicode="&#xc9;" d="M182 0v1001h570l-15 -104h-430v-338h373v-102h-373v-355h459v-102h-584zM299 1165l289 152l53 -105l-309 -114z" />
<glyph unicode="&#xca;" d="M182 0v1001h570l-15 -104h-430v-338h373v-102h-373v-355h459v-102h-584zM230 1167l196 156h82l197 -156l-56 -61l-182 117l-182 -117z" />
<glyph unicode="&#xcb;" d="M182 0v1001h570l-15 -104h-430v-338h373v-102h-373v-355h459v-102h-584zM238 1194q0 33 22.5 55.5t57.5 22.5q33 0 56.5 -22.5t23.5 -55.5t-24 -55.5t-56 -22.5q-35 0 -57.5 21.5t-22.5 56.5zM539 1194q0 33 22.5 55.5t57.5 22.5q33 0 55.5 -22.5t22.5 -55.5t-23 -55.5 t-55 -22.5q-35 0 -57.5 21.5t-22.5 56.5z" />
<glyph unicode="&#xcc;" d="M150 0v100h223v799h-223v102h573v-102h-223v-799h223v-100h-573zM268 1217l66 106l268 -158l-37 -67z" />
<glyph unicode="&#xcd;" d="M150 0v100h223v799h-223v102h573v-102h-223v-799h223v-100h-573zM268 1165l289 152l53 -105l-309 -114z" />
<glyph unicode="&#xce;" d="M150 0v100h223v799h-223v102h573v-102h-223v-799h223v-100h-573zM199 1167l196 156h82l197 -156l-56 -61l-182 117l-182 -117z" />
<glyph unicode="&#xcf;" d="M150 0v100h223v799h-223v102h573v-102h-223v-799h223v-100h-573zM205 1194q0 33 22.5 55.5t57.5 22.5q33 0 56.5 -22.5t23.5 -55.5t-24 -55.5t-56 -22.5q-35 0 -57.5 21.5t-22.5 56.5zM506 1194q0 33 22.5 55.5t57.5 22.5q33 0 55.5 -22.5t22.5 -55.5t-23 -55.5 t-55 -22.5q-35 0 -57.5 21.5t-22.5 56.5z" />
<glyph unicode="&#xd0;" d="M29 465v96h106v440h213q209 0 339 -105t130 -390t-130 -395.5t-322 -110.5h-230v465h-106zM262 102h119q129 0 215 89.5t86 314.5q0 233 -85 313t-218 80h-117v-338h230v-96h-230v-363z" />
<glyph unicode="&#xd1;" d="M121 0v1001h172l358 -882l-4 51q-14 178 -12 330v501h117v-1001h-179l-352 881q0 -10 8.5 -127t8.5 -252v-502h-117zM197 1174q59 123 155 122q29 0 51.5 -10t49.5 -31q23 -16 38 -22t29 -6q23 0 40.5 14t37.5 49l78 -41q-55 -119 -156 -119q-26 0 -48.5 10.5t-51.5 28.5 q-23 16 -38 23.5t-32 7.5q-23 0 -40 -15.5t-38 -49.5z" />
<glyph unicode="&#xd2;" d="M68 500q0 154 43 270.5t124.5 182t200.5 65.5q176 0 272.5 -140.5t96.5 -377.5q0 -234 -95.5 -375t-273.5 -141t-273 138t-95 378zM199 500q0 -205 57 -307.5t180 -102.5q125 0 181.5 102.5t56.5 307.5t-57.5 308t-180.5 103q-125 0 -181 -103t-56 -308zM268 1217l66 106 l268 -158l-37 -67z" />
<glyph unicode="&#xd3;" d="M68 500q0 154 43 270.5t124.5 182t200.5 65.5q176 0 272.5 -140.5t96.5 -377.5q0 -234 -95.5 -375t-273.5 -141t-273 138t-95 378zM199 500q0 -205 57 -307.5t180 -102.5q125 0 181.5 102.5t56.5 307.5t-57.5 308t-180.5 103q-125 0 -181 -103t-56 -308zM268 1165 l289 152l53 -105l-309 -114z" />
<glyph unicode="&#xd4;" d="M68 500q0 154 43 270.5t124.5 182t200.5 65.5q176 0 272.5 -140.5t96.5 -377.5q0 -234 -95.5 -375t-273.5 -141t-273 138t-95 378zM199 500q0 -205 57 -307.5t180 -102.5q125 0 181.5 102.5t56.5 307.5t-57.5 308t-180.5 103q-125 0 -181 -103t-56 -308zM199 1167 l196 156h82l197 -156l-56 -61l-182 117l-182 -117z" />
<glyph unicode="&#xd5;" d="M68 500q0 154 43 270.5t124.5 182t200.5 65.5q176 0 272.5 -140.5t96.5 -377.5q0 -234 -95.5 -375t-273.5 -141t-273 138t-95 378zM197 1174q59 123 155 122q29 0 51.5 -10t49.5 -31q23 -16 38 -22t29 -6q23 0 40.5 14t37.5 49l78 -41q-55 -119 -156 -119 q-26 0 -48.5 10.5t-51.5 28.5q-23 16 -38 23.5t-32 7.5q-23 0 -40 -15.5t-38 -49.5zM199 500q0 -205 57 -307.5t180 -102.5q125 0 181.5 102.5t56.5 307.5t-57.5 308t-180.5 103q-125 0 -181 -103t-56 -308z" />
<glyph unicode="&#xd6;" d="M68 500q0 154 43 270.5t124.5 182t200.5 65.5q176 0 272.5 -140.5t96.5 -377.5q0 -234 -95.5 -375t-273.5 -141t-273 138t-95 378zM199 500q0 -205 57 -307.5t180 -102.5q125 0 181.5 102.5t56.5 307.5t-57.5 308t-180.5 103q-125 0 -181 -103t-56 -308zM205 1194 q0 33 22.5 55.5t57.5 22.5q33 0 56.5 -22.5t23.5 -55.5t-24 -55.5t-56 -22.5q-35 0 -57.5 21.5t-22.5 56.5zM506 1194q0 33 22.5 55.5t57.5 22.5q33 0 55.5 -22.5t22.5 -55.5t-23 -55.5t-55 -22.5q-35 0 -57.5 21.5t-22.5 56.5z" />
<glyph unicode="&#xd7;" d="M182 268l178 178l-178 179l74 77l180 -180l178 180l76 -77l-178 -179l178 -178l-76 -75l-178 178l-180 -178z" />
<glyph unicode="&#xd8;" d="M68 500q0 154 43 270.5t124.5 182t200.5 65.5q47 0 94 -12l48 161l108 -28l-55 -181q86 -61 130 -180t44 -278q0 -233 -95.5 -374.5t-273.5 -141.5q-51 0 -92 10l-47 -154l-109 29l56 172q-86 61 -131 179t-45 280zM201 500q0 -140 21.5 -226t66.5 -133l219 762 q-33 8 -72 8q-125 0 -180 -103t-55 -308zM365 98q33 -8 71 -8q123 0 179.5 102.5t56.5 307.5q0 141 -20.5 227t-65.5 131z" />
<glyph unicode="&#xd9;" d="M104 324v677h127v-682q0 -113 52.5 -170t150.5 -57t151.5 57.5t53.5 169.5v682h129v-677q0 -100 -42 -178t-116.5 -120t-175.5 -42q-102 0 -176 43t-114 119.5t-40 177.5zM268 1217l66 106l268 -158l-37 -67z" />
<glyph unicode="&#xda;" d="M104 324v677h127v-682q0 -113 52.5 -170t150.5 -57t151.5 57.5t53.5 169.5v682h129v-677q0 -100 -42 -178t-116.5 -120t-175.5 -42q-102 0 -176 43t-114 119.5t-40 177.5zM268 1165l289 152l53 -105l-309 -114z" />
<glyph unicode="&#xdb;" d="M104 324v677h127v-682q0 -113 52.5 -170t150.5 -57t151.5 57.5t53.5 169.5v682h129v-677q0 -100 -42 -178t-116.5 -120t-175.5 -42q-102 0 -176 43t-114 119.5t-40 177.5zM199 1167l196 156h82l197 -156l-56 -61l-182 117l-182 -117z" />
<glyph unicode="&#xdc;" d="M104 324v677h127v-682q0 -113 52.5 -170t150.5 -57t151.5 57.5t53.5 169.5v682h129v-677q0 -100 -42 -178t-116.5 -120t-175.5 -42q-102 0 -176 43t-114 119.5t-40 177.5zM205 1194q0 33 22.5 55.5t57.5 22.5q33 0 56.5 -22.5t23.5 -55.5t-24 -55.5t-56 -22.5 q-35 0 -57.5 21.5t-22.5 56.5zM506 1194q0 33 22.5 55.5t57.5 22.5q33 0 55.5 -22.5t22.5 -55.5t-23 -55.5t-55 -22.5q-35 0 -57.5 21.5t-22.5 56.5z" />
<glyph unicode="&#xdd;" d="M33 1001h139l266 -501l271 501h131l-340 -614v-387h-127v385zM272 1165l289 152l53 -105l-309 -114z" />
<glyph unicode="&#xde;" d="M156 0v1001h127v-170h143q184 0 283.5 -77.5t99.5 -237.5q0 -170 -103.5 -250t-279.5 -80h-143v-186h-127zM283 289h157q113 0 174.5 49t61.5 174q0 113 -62.5 166t-173.5 53h-157v-442z" />
<glyph unicode="&#xdf;" d="M139 0v774q0 154 78 235t215 81q113 0 182.5 -58.5t69.5 -150.5q0 -51 -24.5 -86t-69.5 -74q-37 -31 -54.5 -50.5t-17.5 -45.5q0 -37 26.5 -62.5t86.5 -62.5q57 -37 93 -67t61.5 -78t25.5 -111q0 -82 -36 -141.5t-98.5 -89t-135.5 -29.5q-111 0 -189 49l51 86 q27 -16 61 -25.5t64 -9.5q74 0 116 38t42 116q0 63 -36 100t-105 82q-47 31 -77 54.5t-50.5 56t-20.5 77.5q0 47 24.5 80t67.5 68q39 31 58.5 55.5t19.5 56.5q0 47 -32.5 85t-104.5 38q-84 0 -126 -49t-42 -158v-784h-123z" />
<glyph unicode="&#xe0;" d="M100 219q0 119 92.5 182.5t266.5 63.5h112v63q0 82 -47 117t-135 35q-86 0 -199 -39l-32 92q135 47 252 49q139 0 211.5 -65.5t72.5 -181.5v-367q0 -45 15.5 -66.5t48.5 -31.5l-31 -86q-113 14 -139 108q-41 -51 -102.5 -79.5t-137.5 -28.5q-115 0 -181.5 64.5 t-66.5 170.5zM231 221q0 -145 148 -145q55 0 107.5 28.5t84.5 79.5v197h-110q-123 0 -176.5 -41t-53.5 -119zM256 1040l66 105l268 -174l-39 -68z" />
<glyph unicode="&#xe1;" d="M100 219q0 119 92.5 182.5t266.5 63.5h112v63q0 82 -47 117t-135 35q-86 0 -199 -39l-32 92q135 47 252 49q139 0 211.5 -65.5t72.5 -181.5v-367q0 -45 15.5 -66.5t48.5 -31.5l-31 -86q-113 14 -139 108q-41 -51 -102.5 -79.5t-137.5 -28.5q-115 0 -181.5 64.5 t-66.5 170.5zM231 221q0 -145 148 -145q55 0 107.5 28.5t84.5 79.5v197h-110q-123 0 -176.5 -41t-53.5 -119zM260 995l285 164l57 -104l-305 -123z" />
<glyph unicode="&#xe2;" d="M100 219q0 119 92.5 182.5t266.5 63.5h112v63q0 82 -47 117t-135 35q-86 0 -199 -39l-32 92q135 47 252 49q139 0 211.5 -65.5t72.5 -181.5v-367q0 -45 15.5 -66.5t48.5 -31.5l-31 -86q-113 14 -139 108q-41 -51 -102.5 -79.5t-137.5 -28.5q-115 0 -181.5 64.5 t-66.5 170.5zM187 975l196 172h82l197 -172l-56 -60l-180 132l-182 -132zM231 221q0 -145 148 -145q55 0 107.5 28.5t84.5 79.5v197h-110q-123 0 -176.5 -41t-53.5 -119z" />
<glyph unicode="&#xe3;" d="M100 219q0 119 92.5 182.5t266.5 63.5h112v63q0 82 -47 117t-135 35q-86 0 -199 -39l-32 92q135 47 252 49q139 0 211.5 -65.5t72.5 -181.5v-367q0 -45 15.5 -66.5t48.5 -31.5l-31 -86q-113 14 -139 108q-41 -51 -102.5 -79.5t-137.5 -28.5q-115 0 -181.5 64.5 t-66.5 170.5zM187 999q29 57 65.5 90t87.5 33q31 0 52.5 -10t50.5 -31q25 -16 38 -23t27 -7q23 0 40.5 15t37.5 50l78 -39q-29 -59 -68 -89t-88 -30q-26 0 -48.5 10.5t-51.5 28.5q-23 16 -37 23.5t-31 7.5q-23 0 -40 -16.5t-38 -50.5zM231 221q0 -145 148 -145 q55 0 107.5 28.5t84.5 79.5v197h-110q-123 0 -176.5 -41t-53.5 -119z" />
<glyph unicode="&#xe4;" d="M100 219q0 119 92.5 182.5t266.5 63.5h112v63q0 82 -47 117t-135 35q-86 0 -199 -39l-32 92q135 47 252 49q139 0 211.5 -65.5t72.5 -181.5v-367q0 -45 15.5 -66.5t48.5 -31.5l-31 -86q-113 14 -139 108q-41 -51 -102.5 -79.5t-137.5 -28.5q-115 0 -181.5 64.5 t-66.5 170.5zM193 1020q0 35 23.5 57.5t56.5 22.5t56.5 -22.5t23.5 -57.5q0 -33 -24 -55.5t-56 -22.5q-33 0 -56.5 22.5t-23.5 55.5zM231 221q0 -145 148 -145q55 0 107.5 28.5t84.5 79.5v197h-110q-123 0 -176.5 -41t-53.5 -119zM496 1020q0 35 22.5 57.5t55.5 22.5 t56.5 -22.5t23.5 -57.5q0 -33 -24 -55.5t-56 -22.5q-33 0 -55.5 21.5t-22.5 56.5z" />
<glyph unicode="&#xe5;" d="M100 219q0 119 92.5 182.5t266.5 63.5h112v63q0 82 -47 117t-135 35q-86 0 -199 -39l-32 92q135 47 252 49q139 0 211.5 -65.5t72.5 -181.5v-367q0 -45 15.5 -66.5t48.5 -31.5l-31 -86q-113 14 -139 108q-41 -51 -102.5 -79.5t-137.5 -28.5q-115 0 -181.5 64.5 t-66.5 170.5zM231 221q0 -145 148 -145q55 0 107.5 28.5t84.5 79.5v197h-110q-123 0 -176.5 -41t-53.5 -119zM262 1048.5q0 63.5 46.5 106.5t115.5 43q70 0 116 -44t46 -105q0 -63 -46 -106.5t-116 -43.5t-116 43t-46 106.5zM346 1049q0 -39 20.5 -61.5t57.5 -22.5 q39 0 58.5 22.5t19.5 61t-20.5 60t-57.5 21.5t-57.5 -22.5t-20.5 -58.5z" />
<glyph unicode="&#xe6;" d="M-8 219q0 121 79 183.5t230 62.5h68v63q0 154 -131 152q-39 0 -71 -8t-83 -31l-33 92q102 49 199 49q82 0 129 -32.5t70 -96.5q20 59 67 94t117 35q127 0 188.5 -98t61.5 -278q0 -33 -2 -66h-392q10 -131 48 -192.5t116 -61.5q39 0 72 13.5t72 43.5l57 -84 q-47 -39 -95 -57t-110 -18q-74 0 -126 32.5t-89 96.5q-51 -70 -100 -99.5t-121 -29.5q-102 0 -161.5 64.5t-59.5 170.5zM125 227.5q0 -73.5 28.5 -111.5t77.5 -38q45 0 81 32.5t77 106.5q-20 66 -20 164h-62q-100 0 -141 -40t-41 -113.5zM489 434h275q-2 125 -34 185.5 t-101 60.5q-68 0 -99.5 -55.5t-40.5 -190.5z" />
<glyph unicode="&#xe7;" d="M131 379q0 115 43 207t125 144t195 52q147 0 256 -90l-62 -80q-100 68 -196 68q-102 0 -165 -77t-63 -224t61.5 -219t168.5 -72q100 0 198 68l58 -80q-43 -39 -103.5 -62.5t-124.5 -29.5v-68q68 -4 101.5 -39t33.5 -82q0 -68 -51 -104.5t-127 -36.5q-43 0 -83 9t-68 26 l39 69q43 -23 98 -22q86 0 86 59q0 39 -31 51.5t-94 12.5l8 129q-143 18 -223 121.5t-80 269.5z" />
<glyph unicode="&#xe8;" d="M115 383q0 115 41 206t116.5 142t176.5 51q145 0 228 -101t83 -275q0 -33 -2 -66h-514q4 -127 65.5 -190.5t155.5 -63.5q57 0 104 16.5t101 51.5l57 -80q-53 -43 -122.5 -66.5t-139.5 -23.5q-166 0 -258 108.5t-92 290.5zM244 432h397q0 121 -51 185.5t-141 64.5 q-89 0 -144 -63.5t-61 -186.5zM282 1040l66 105l268 -174l-39 -68z" />
<glyph unicode="&#xe9;" d="M115 383q0 115 41 206t116.5 142t176.5 51q145 0 228 -101t83 -275q0 -33 -2 -66h-514q4 -127 65.5 -190.5t155.5 -63.5q57 0 104 16.5t101 51.5l57 -80q-53 -43 -122.5 -66.5t-139.5 -23.5q-166 0 -258 108.5t-92 290.5zM244 432h397q0 121 -51 185.5t-141 64.5 q-89 0 -144 -63.5t-61 -186.5zM286 995l285 164l57 -104l-305 -123z" />
<glyph unicode="&#xea;" d="M115 383q0 115 41 206t116.5 142t176.5 51q145 0 228 -101t83 -275q0 -33 -2 -66h-514q4 -127 65.5 -190.5t155.5 -63.5q57 0 104 16.5t101 51.5l57 -80q-53 -43 -122.5 -66.5t-139.5 -23.5q-166 0 -258 108.5t-92 290.5zM213 975l196 172h82l197 -172l-56 -60l-180 132 l-182 -132zM244 432h397q0 121 -51 185.5t-141 64.5q-89 0 -144 -63.5t-61 -186.5z" />
<glyph unicode="&#xeb;" d="M115 383q0 115 41 206t116.5 142t176.5 51q145 0 228 -101t83 -275q0 -33 -2 -66h-514q4 -127 65.5 -190.5t155.5 -63.5q57 0 104 16.5t101 51.5l57 -80q-53 -43 -122.5 -66.5t-139.5 -23.5q-166 0 -258 108.5t-92 290.5zM219 1020q0 35 23.5 57.5t56.5 22.5t56.5 -22.5 t23.5 -57.5q0 -33 -24 -55.5t-56 -22.5q-33 0 -56.5 22.5t-23.5 55.5zM244 432h397q0 121 -51 185.5t-141 64.5q-89 0 -144 -63.5t-61 -186.5zM522 1020q0 35 22.5 57.5t55.5 22.5t56.5 -22.5t23.5 -57.5q0 -33 -24 -55.5t-56 -22.5q-33 0 -55.5 21.5t-22.5 56.5z" />
<glyph unicode="&#xec;" d="M176 0v96h236v574h-230v96h353v-670h215v-96h-574zM268 1040l66 105l268 -174l-39 -68z" />
<glyph unicode="&#xed;" d="M176 0v96h236v574h-230v96h353v-670h215v-96h-574zM272 995l285 164l57 -104l-305 -123z" />
<glyph unicode="&#xee;" d="M176 0v96h236v574h-230v96h353v-670h215v-96h-574zM199 975l196 172h82l197 -172l-56 -60l-180 132l-182 -132z" />
<glyph unicode="&#xef;" d="M176 0v96h236v574h-230v96h353v-670h215v-96h-574zM205 1020q0 35 23.5 57.5t56.5 22.5t56.5 -22.5t23.5 -57.5q0 -33 -24 -55.5t-56 -22.5q-33 0 -56.5 22.5t-23.5 55.5zM508 1020q0 35 22.5 57.5t55.5 22.5t56.5 -22.5t23.5 -57.5q0 -33 -24 -55.5t-56 -22.5 q-33 0 -55.5 21.5t-22.5 56.5z" />
<glyph unicode="&#xf0;" d="M96 342q0 104 43 185t114 126t155 45q141 0 227 -100q-18 92 -67.5 167t-118.5 126l-115 -117l-86 43l117 123q-72 33 -172 53l28 97q133 -29 217 -72l101 106l75 -63l-92 -94q129 -88 190.5 -230.5t61.5 -351.5q0 -123 -43 -213t-121 -139t-182 -49q-92 0 -168 42 t-120 122.5t-44 193.5zM221 348q0 -127 56.5 -195.5t148.5 -68.5q102 0 163.5 79t61.5 224q0 39 -6 96q-37 57 -94 88t-129 31q-86 0 -143.5 -64.5t-57.5 -189.5z" />
<glyph unicode="&#xf1;" d="M145 0v766h105l10 -107q45 57 113.5 90t138.5 33q215 0 215 -227v-555h-121v465q0 86 -9 131t-37 66.5t-85 21.5q-63 0 -118.5 -38t-88.5 -89v-557h-123zM199 999q29 57 65.5 90t87.5 33q31 0 52.5 -10t50.5 -31q25 -16 38 -23t27 -7q23 0 40.5 15t37.5 50l78 -39 q-29 -59 -68 -89t-88 -30q-26 0 -48.5 10.5t-51.5 28.5q-23 16 -37 23.5t-31 7.5q-23 0 -40 -16.5t-38 -50.5z" />
<glyph unicode="&#xf2;" d="M106 383q0 182 86.5 290.5t245.5 108.5q158 0 243 -106.5t85 -290.5q0 -180 -86 -290.5t-243.5 -110.5t-244 107.5t-86.5 291.5zM238 383q0 -152 49 -225.5t149 -73.5t150 74q49 76 49 227.5t-49 224t-148 72.5q-100 0 -150 -73.5t-50 -225.5zM268 1040l66 105l268 -174 l-39 -68z" />
<glyph unicode="&#xf3;" d="M106 383q0 182 86.5 290.5t245.5 108.5q158 0 243 -106.5t85 -290.5q0 -180 -86 -290.5t-243.5 -110.5t-244 107.5t-86.5 291.5zM238 383q0 -152 49 -225.5t149 -73.5t150 74q49 76 49 227.5t-49 224t-148 72.5q-100 0 -150 -73.5t-50 -225.5zM272 995l285 164l57 -104 l-305 -123z" />
<glyph unicode="&#xf4;" d="M106 383q0 182 86.5 290.5t245.5 108.5q158 0 243 -106.5t85 -290.5q0 -180 -86 -290.5t-243.5 -110.5t-244 107.5t-86.5 291.5zM199 975l196 172h82l197 -172l-56 -60l-180 132l-182 -132zM238 383q0 -152 49 -225.5t149 -73.5t150 74q49 76 49 227.5t-49 224t-148 72.5 q-100 0 -150 -73.5t-50 -225.5z" />
<glyph unicode="&#xf5;" d="M106 383q0 182 86.5 290.5t245.5 108.5q158 0 243 -106.5t85 -290.5q0 -180 -86 -290.5t-243.5 -110.5t-244 107.5t-86.5 291.5zM199 999q29 57 65.5 90t87.5 33q31 0 52.5 -10t50.5 -31q25 -16 38 -23t27 -7q23 0 40.5 15t37.5 50l78 -39q-29 -59 -68 -89t-88 -30 q-26 0 -48.5 10.5t-51.5 28.5q-23 16 -37 23.5t-31 7.5q-23 0 -40 -16.5t-38 -50.5zM238 383q0 -152 49 -225.5t149 -73.5t150 74q49 76 49 227.5t-49 224t-148 72.5q-100 0 -150 -73.5t-50 -225.5z" />
<glyph unicode="&#xf6;" d="M106 383q0 182 86.5 290.5t245.5 108.5q158 0 243 -106.5t85 -290.5q0 -180 -86 -290.5t-243.5 -110.5t-244 107.5t-86.5 291.5zM205 1020q0 35 23.5 57.5t56.5 22.5t56.5 -22.5t23.5 -57.5q0 -33 -24 -55.5t-56 -22.5q-33 0 -56.5 22.5t-23.5 55.5zM238 383 q0 -152 49 -225.5t149 -73.5t150 74q49 76 49 227.5t-49 224t-148 72.5q-100 0 -150 -73.5t-50 -225.5zM508 1020q0 35 22.5 57.5t55.5 22.5t56.5 -22.5t23.5 -57.5q0 -33 -24 -55.5t-56 -22.5q-33 0 -55.5 21.5t-22.5 56.5z" />
<glyph unicode="&#xf7;" d="M170 401v105h535v-105h-535zM338 170q0 41 28.5 68.5t69.5 27.5t70 -28.5t29 -67.5q0 -41 -29 -69.5t-70 -28.5t-69.5 27.5t-28.5 70.5zM338 739q0 41 28.5 69t69.5 28t70 -29t29 -68q0 -41 -29 -68.5t-70 -27.5q-43 0 -70.5 27.5t-27.5 68.5z" />
<glyph unicode="&#xf8;" d="M106 383q0 182 86.5 290.5t245.5 108.5q33 0 72 -8l53 176l103 -30l-60 -181q76 -47 118 -139t42 -215q0 -180 -86 -290.5t-244 -110.5q-43 0 -71 6l-56 -178l-100 28l59 187q-80 47 -121 138t-41 218zM238 383q0 -193 75 -258l172 553q-23 4 -47 4q-200 0 -200 -299z M387 88q23 -4 49 -4q199 2 199 301q0 193 -76 256z" />
<glyph unicode="&#xf9;" d="M145 209v557h123v-545q0 -74 31 -107.5t98 -33.5q61 0 117.5 35t89.5 88v563h123v-766h-104l-11 102q-45 -57 -111.5 -87.5t-133.5 -30.5q-109 0 -165.5 58t-56.5 167zM268 1040l66 105l268 -174l-39 -68z" />
<glyph unicode="&#xfa;" d="M145 209v557h123v-545q0 -74 31 -107.5t98 -33.5q61 0 117.5 35t89.5 88v563h123v-766h-104l-11 102q-45 -57 -111.5 -87.5t-133.5 -30.5q-109 0 -165.5 58t-56.5 167zM272 995l285 164l57 -104l-305 -123z" />
<glyph unicode="&#xfb;" d="M145 209v557h123v-545q0 -74 31 -107.5t98 -33.5q61 0 117.5 35t89.5 88v563h123v-766h-104l-11 102q-45 -57 -111.5 -87.5t-133.5 -30.5q-109 0 -165.5 58t-56.5 167zM199 975l196 172h82l197 -172l-56 -60l-180 132l-182 -132z" />
<glyph unicode="&#xfc;" d="M145 209v557h123v-545q0 -74 31 -107.5t98 -33.5q61 0 117.5 35t89.5 88v563h123v-766h-104l-11 102q-45 -57 -111.5 -87.5t-133.5 -30.5q-109 0 -165.5 58t-56.5 167zM205 1020q0 35 23.5 57.5t56.5 22.5t56.5 -22.5t23.5 -57.5q0 -33 -24 -55.5t-56 -22.5 q-33 0 -56.5 22.5t-23.5 55.5zM508 1020q0 35 22.5 57.5t55.5 22.5t56.5 -22.5t23.5 -57.5q0 -33 -24 -55.5t-56 -22.5q-33 0 -55.5 21.5t-22.5 56.5z" />
<glyph unicode="&#xfd;" d="M90 766h129l219 -674l217 674h127l-268 -770q-45 -131 -123 -211t-219 -92l-18 96q78 12 124 40t71.5 68t47.5 103h-41zM272 995l285 164l57 -104l-305 -123z" />
<glyph unicode="&#xfe;" d="M145 -307v1382l123 15v-420q43 53 100.5 82.5t120.5 29.5q279 0 277 -397q0 -182 -76 -291.5t-219 -109.5q-125 0 -203 88v-367zM268 182q31 -45 76 -70.5t98 -25.5q96 0 144.5 73.5t48.5 225.5t-42 224.5t-134 72.5q-58 0 -107 -34t-84 -87v-379z" />
<glyph unicode="&#xff;" d="M90 766h129l219 -674l217 674h127l-268 -770q-45 -131 -123 -211t-219 -92l-18 96q78 12 124 40t71.5 68t47.5 103h-41zM205 1020q0 35 23.5 57.5t56.5 22.5t56.5 -22.5t23.5 -57.5q0 -33 -24 -55.5t-56 -22.5q-33 0 -56.5 22.5t-23.5 55.5zM508 1020q0 35 22.5 57.5 t55.5 22.5t56.5 -22.5t23.5 -57.5q0 -33 -24 -55.5t-56 -22.5q-33 0 -55.5 21.5t-22.5 56.5z" />
<glyph unicode="&#x152;" d="M0 500q0 254 77 386t230 132q50 -1 105 -17h473l-17 -102h-354q84 -100 94 -340h226v-102h-226q-6 -246 -98 -355h387v-102h-489q-51 -16 -101 -16q-309 0 -307 516zM133 500q0 -217 43 -315.5t131 -98.5q92 0 134 96.5t42 317.5t-41 317t-135 96q-90 0 -132 -97 t-42 -316z" />
<glyph unicode="&#x153;" d="M-2 383q0 186 60.5 292.5t185.5 106.5q86 0 133 -38.5t72 -110.5q61 150 204 149q123 0 182.5 -97t59.5 -279q0 -33 -4 -66h-381q10 -131 47 -192.5t113 -61.5q39 0 68.5 13.5t70.5 43.5l55 -84q-47 -39 -93 -57t-105 -18q-80 0 -134.5 37.5t-82.5 109.5 q-29 -72 -77 -109.5t-128 -37.5q-125 0 -185.5 105.5t-60.5 293.5zM127 383q0 -158 30.5 -228.5t100.5 -70.5q47 0 75.5 28.5t41.5 94.5q12 68 12 178q0 156 -29.5 226.5t-99.5 70.5t-100.5 -71.5t-30.5 -227.5zM510 434h264q-2 127 -28.5 186.5t-96.5 59.5q-65 0 -98 -55.5 t-41 -190.5z" />
<glyph unicode="&#x2c6;" d="M199 975l196 172h82l197 -172l-56 -60l-180 132l-182 -132z" />
<glyph unicode="&#x2dc;" d="M199 999q29 57 65.5 90t87.5 33q31 0 52.5 -10t50.5 -31q25 -16 38 -23t27 -7q23 0 40.5 15t37.5 50l78 -39q-29 -59 -68 -89t-88 -30q-26 0 -48.5 10.5t-51.5 28.5q-23 16 -37 23.5t-31 7.5q-23 0 -40 -16.5t-38 -50.5z" />
<glyph unicode="&#x2000;" horiz-adv-x="964" />
<glyph unicode="&#x2001;" horiz-adv-x="1929" />
<glyph unicode="&#x2002;" horiz-adv-x="964" />
<glyph unicode="&#x2003;" horiz-adv-x="1929" />
<glyph unicode="&#x2004;" horiz-adv-x="643" />
<glyph unicode="&#x2005;" horiz-adv-x="482" />
<glyph unicode="&#x2006;" horiz-adv-x="321" />
<glyph unicode="&#x2007;" horiz-adv-x="321" />
<glyph unicode="&#x2008;" horiz-adv-x="241" />
<glyph unicode="&#x2009;" horiz-adv-x="385" />
<glyph unicode="&#x200a;" horiz-adv-x="107" />
<glyph unicode="&#x2010;" d="M182 403v105h508v-105h-508z" />
<glyph unicode="&#x2011;" d="M182 403v105h508v-105h-508z" />
<glyph unicode="&#x2012;" d="M182 403v105h508v-105h-508z" />
<glyph unicode="&#x2013;" d="M47 403v105h776v-105h-776z" />
<glyph unicode="&#x2014;" d="M0 403v105h872v-105h-872z" />
<glyph unicode="&#x2018;" d="M317 801q0 43 25 96l119 250h96l-59 -266q16 -12 27.5 -35t11.5 -45q0 -45 -33 -76t-78 -31t-77 31t-32 76z" />
<glyph unicode="&#x2019;" d="M313 694l62 267q-16 12 -28.5 33.5t-12.5 45.5q0 45 33.5 76t76.5 31q47 0 80 -31t33 -76q0 -20 -6 -39.5t-23 -56.5l-118 -250h-97z" />
<glyph unicode="&#x201a;" d="M313 -264l62 266q-16 12 -28.5 33.5t-12.5 46.5q0 43 33.5 74.5t76.5 31.5q47 0 79 -30.5t32 -75.5q0 -20 -5 -41t-22 -53l-118 -252h-97z" />
<glyph unicode="&#x201c;" d="M158 801q0 39 26 96l117 250h98l-59 -266q16 -12 27.5 -34t11.5 -46q0 -45 -33 -76t-78 -31t-77.5 31t-32.5 76zM473 801q0 43 27 96l118 250h97l-62 -266q16 -12 28.5 -35t12.5 -45q0 -43 -33.5 -75t-76.5 -32q-45 0 -78 31t-33 76z" />
<glyph unicode="&#x201d;" d="M158 692l57 269q-16 12 -27.5 33.5t-11.5 45.5q0 43 34 75t79 32q47 0 77.5 -31t30.5 -76q0 -20 -5 -40.5t-21 -55.5l-117 -252h-96zM471 692l59 269q-16 12 -26 33.5t-10 45.5q0 43 31.5 75t76.5 32t79 -32t34 -75q0 -20 -6.5 -40.5t-22.5 -55.5l-119 -252h-96z" />
<glyph unicode="&#x201e;" d="M158 -264l59 266q-16 12 -27.5 33.5t-11.5 46.5q0 43 34 74.5t77 31.5q47 0 79.5 -30.5t32.5 -75.5q0 -20 -6 -39.5t-20 -54.5l-121 -252h-96zM471 -264l59 266q-16 12 -26 33.5t-10 46.5q0 45 31.5 75.5t76.5 30.5t78 -30.5t33 -75.5q0 -39 -27 -94l-119 -252h-96z" />
<glyph unicode="&#x2022;" d="M258 497.5q0 75.5 50 126t128 50.5t128 -50.5t50 -127.5q0 -76 -51 -126.5t-127 -50.5t-127 51.5t-51 127z" />
<glyph unicode="&#x202f;" horiz-adv-x="385" />
<glyph unicode="&#x2039;" d="M272 383v88l254 303l72 -47l-195 -301l195 -299l-72 -47z" />
<glyph unicode="&#x203a;" d="M272 127l197 299l-197 301l74 47l252 -303v-88l-252 -303z" />
<glyph unicode="&#x205f;" horiz-adv-x="482" />
<glyph unicode="&#x20ac;" d="M51 352l23 86h102l2 135h-127l23 86h114q33 170 131.5 264.5t235.5 94.5q72 0 126 -16.5t105 -49.5l-61 -88q-80 49 -166 49q-98 0 -158.5 -61t-83.5 -193h359l-23 -86h-346v-135h318l-21 -86h-291q16 -137 74.5 -200.5t165.5 -63.5q63 0 115.5 20.5t89.5 53.5v-127 q-92 -51 -209 -51q-152 0 -244 94t-119 274h-135z" />
<glyph unicode="&#x25fc;" horiz-adv-x="768" d="M0 0v768h768v-768h-768z" />
</font>
</defs>
</svg>
