<?xml version="1.0" standalone="no"?>
<!DOCTYPE svg PUBLIC "-//W3C//DTD SVG 1.1//EN" "http://www.w3.org/Graphics/SVG/1.1/DTD/svg11.dtd" >
<svg xmlns="http://www.w3.org/2000/svg" xmlns:xlink="http://www.w3.org/1999/xlink" version="1.1">
<metadata></metadata>
<defs>
<font id="amiri_typewriterbold" horiz-adv-x="872" >
<font-face units-per-em="2048" ascent="1638" descent="-410" />
<missing-glyph horiz-adv-x="500" />
<glyph unicode=" " />
<glyph unicode="!" d="M529 371h-184l-31 637h244zM529 199.5q38 -38.5 38 -91.5q0 -55 -38 -94t-93 -39q-54 0 -92.5 38.5t-38.5 94.5q0 54 38.5 92t92.5 38q55 0 93 -38.5z" />
<glyph unicode="&#x22;" d="M188 1079h218l-28 -407h-163zM465 1079h220l-28 -407h-164z" />
<glyph unicode="#" d="M678 362h91v-151h-112l-27 -211h-189l27 211h-139l-28 -211h-189l26 211h-87v151h107l38 286h-91v153h112l26 207h190l-27 -207h139l28 207h189l-28 -207h89v-153h-109zM487 362l38 286h-140l-37 -286h139z" />
<glyph unicode="$" d="M507 1029q166 -15 287 -114l-112 -118q-77 64 -175 71v-254q157 -51 230.5 -121.5t73.5 -195.5t-80 -211.5t-224 -104.5v-217h-117v213q-102 7 -186.5 45t-142.5 93l111 128q51 -45 103 -69t115 -29v303q-156 52 -224.5 122t-68.5 173q0 119 78.5 194.5t214.5 90.5v217 h117v-216zM325 833q-23 -26 -23 -62q0 -39 17 -63.5t71 -48.5v208q-42 -8 -65 -34zM507 150q90 20 91 119q0 45 -19 75.5t-72 56.5v-251z" />
<glyph unicode="%" d="M740 990l-496 -1032l-120 51l494 1032zM365 971.5q55 -62.5 55 -165.5q0 -105 -55 -167t-151 -62q-99 0 -154.5 62t-55.5 167q0 102 56 165t154 63q96 0 151 -62.5zM167.5 892.5q-11.5 -27.5 -11.5 -86.5q0 -57 12 -86t46 -29q33 0 44.5 27.5t11.5 87.5q0 63 -11.5 88.5 t-44.5 25.5q-35 0 -46.5 -27.5zM811.5 384.5q55.5 -61.5 55.5 -166.5t-55.5 -166t-151.5 -61q-99 0 -154 61t-55 166q0 102 56 165t153 63q96 0 151.5 -61.5zM613.5 306q-11.5 -28 -11.5 -88q0 -55 12.5 -84t45.5 -29t45 27.5t12 85.5q0 63 -11.5 89.5t-45.5 26.5 q-35 0 -46.5 -28z" />
<glyph unicode="&#x26;" d="M563 1006q67 -26 125 -89l-124 -106q-33 35 -62 49.5t-70 14.5q-51 0 -78.5 -30.5t-27.5 -84.5q0 -57 37 -93.5t96 -36.5h381v-147h-96v-381q-52 -55 -134 -91t-201 -36q-112 0 -192 40t-121.5 111.5t-41.5 161.5q0 116 57.5 183.5t164.5 94.5v5q-172 45 -171 219 q0 68 38.5 123t107.5 87t155 32q90 0 157 -26zM446 483q-81 0 -124 -52t-43 -126t37 -118.5t106 -44.5q35 0 64 11t46 30v300h-86z" />
<glyph unicode="'" d="M327 1079h217l-26 -407h-163z" />
<glyph unicode="(" d="M664 1856q-655 -910 -1 -1775l-100 -75q-710 938 -1 1923z" />
<glyph unicode=")" d="M225 77q643 918 -23 1775l99 77q723 -929 27 -1923z" />
<glyph unicode="*" d="M503 553l198 93l59 -181l-216 -40l154 -159l-159 -115l-104 195l-101 -196l-158 115l151 161l-214 39l57 181l199 -92l-32 218h197z" />
<glyph unicode="+" d="M531 542h221v-176h-221v-226h-191v226h-219v176h219v227h191v-227z" />
<glyph unicode="," d="M550 254.5q45 -45.5 45 -112.5q0 -41 -13 -80.5t-50 -119.5l-105 -237h-154l75 308q-32 20 -50.5 54.5t-18.5 76.5q0 65 45 110.5t112 45.5q69 0 114 -45.5z" />
<glyph unicode="-" d="M157 544h558v-178h-558v178z" />
<glyph unicode="." d="M322 252q47 48 114 48t114.5 -48t47.5 -114q0 -67 -47.5 -115t-114.5 -48t-114 48t-47 115q0 66 47 114z" />
<glyph unicode="/" d="M42 -80l611 1268l177 -83l-609 -1268z" />
<glyph unicode="0" d="M707.5 896q92.5 -138 92.5 -390q0 -253 -92.5 -392t-271.5 -139t-271 139t-92 392q0 252 92 390t271 138t271.5 -138zM329.5 783q-34.5 -84 -34.5 -277q0 -199 34.5 -282t106.5 -83q74 0 107 83t33 282q0 196 -34.5 278.5t-105.5 82.5q-72 0 -106.5 -84zM503 568.5 q28 -27.5 28 -66.5q0 -41 -28 -68.5t-68 -27.5q-41 0 -68 27.5t-27 68.5q0 39 27 66.5t68 27.5q40 0 68 -27.5z" />
<glyph unicode="1" d="M801 174v-174h-654v174h243v608l-208 -131l-98 159l326 198h204v-834h187z" />
<glyph unicode="2" d="M590.5 994.5q78.5 -39.5 118.5 -105.5t40 -145q0 -83 -38 -160t-124.5 -172t-244.5 -236h430l-25 -176h-668v163q179 173 267.5 269.5t128.5 164t40 127.5q0 63 -35 97.5t-101 34.5q-57 0 -99 -24t-82 -77l-140 106q60 83 143.5 128t199.5 45q111 0 189.5 -39.5z" />
<glyph unicode="3" d="M578 999q78 -35 119.5 -94t41.5 -130q0 -93 -54.5 -152.5t-152.5 -88.5q238 -32 239 -250q0 -86 -47.5 -156.5t-136 -111.5t-206.5 -41q-111 0 -201 39.5t-154 111.5l130 121q83 -96 209 -96q77 0 123.5 39.5t46.5 109.5q0 151 -170 151h-92l27 157h64q70 0 111 34t41 98 q0 57 -40.5 89.5t-106.5 32.5q-109 0 -200 -87l-118 122q141 137 344 137q105 0 183 -35z" />
<glyph unicode="4" d="M804 212h-100v-212h-220l-1 212h-418v152l280 670l194 -73l-237 -577h181l26 243h195v-243h100v-172z" />
<glyph unicode="5" d="M723 843h-368v-218q71 33 148 34q79 0 143.5 -40t102.5 -114.5t38 -172.5q0 -102 -49.5 -183.5t-140 -127.5t-206.5 -46q-106 0 -191 40t-143 111l132 121q36 -47 83.5 -71.5t101.5 -24.5q80 0 128 49t48 127q0 173 -137 173q-63 0 -122 -33h-156v541h614z" />
<glyph unicode="6" d="M667 637q64 -39 101.5 -115.5t37.5 -179.5q0 -102 -44.5 -185.5t-125.5 -132.5t-188 -49q-189 0 -282 134.5t-93 345.5q0 170 53 301t152 204.5t232 73.5q124 0 218 -66l-87 -139q-58 41 -128 40q-84 0 -138.5 -74.5t-61.5 -209.5q44 45 99.5 68t110.5 23q80 0 144 -39z M544.5 192q31.5 52 31.5 137q0 100 -28.5 144.5t-83.5 44.5q-41 0 -80 -20.5t-71 -56.5q1 -156 32.5 -228.5t105.5 -72.5q62 0 93.5 52z" />
<glyph unicode="7" d="M166 45l375 790h-442v173h675v-156l-390 -875z" />
<glyph unicode="8" d="M733.5 645.5q-37.5 -50.5 -118.5 -97.5q195 -99 195 -275q0 -80 -43.5 -148t-128.5 -109t-206 -41q-118 0 -201.5 40t-125.5 106.5t-42 146.5q0 84 48.5 148.5t135.5 102.5q-80 51 -112.5 102.5t-32.5 133.5q0 84 43.5 147t120 97.5t172.5 34.5q97 0 172.5 -33t118 -93 t42.5 -142q0 -70 -37.5 -120.5zM355 667q35 -35 112 -64q48 35 67 70t19 80q0 57 -29.5 90.5t-85.5 33.5q-57 0 -87.5 -31.5t-30.5 -90.5q0 -53 35 -88zM560.5 355.5q-19.5 31.5 -59 54t-113.5 48.5q-96 -61 -96 -176q0 -65 37 -103.5t109 -38.5q71 0 106.5 38.5t35.5 96.5 q0 49 -19.5 80.5z" />
<glyph unicode="9" d="M706 925q95 -109 95 -294q0 -193 -65.5 -327t-200 -218.5t-347.5 -129.5l-48 162q180 45 280.5 120t133.5 192q-47 -41 -96 -61.5t-109 -20.5q-79 0 -144 40.5t-103 114t-38 167.5q0 108 48 190t131 128t187 46q181 0 276 -109zM329.5 549.5q34.5 -40.5 90.5 -40.5 q74 0 144 58q1 109 -9.5 173t-39.5 96.5t-86 32.5q-64 0 -99 -47t-35 -144q0 -88 34.5 -128.5z" />
<glyph unicode=":" d="M178 775.5q0 96.5 97 97t97 -96.5t-97 -97t-97 96.5zM269 155q-97 0 -97 96.5t97 96.5t97 -96.5t-97 -96.5z" />
<glyph unicode=";" d="M543.5 739q43.5 -45 43.5 -108t-43.5 -107t-107.5 -44t-108 44.5t-44 106.5q0 63 44 108t108 45t107.5 -45zM544.5 242.5q42.5 -43.5 42.5 -107.5q0 -38 -13 -78.5t-46 -114.5l-101 -230h-149l71 298q-31 20 -48 53.5t-17 73.5q0 64 43.5 106.5t108.5 42.5 q66 0 108.5 -43.5z" />
<glyph unicode="&#x3c;" d="M772 733l-472 -276l472 -271l-105 -164l-565 352v164l568 353z" />
<glyph unicode="=" d="M766 515h-660v180h660v-180zM766 211h-660v179h660v-179z" />
<glyph unicode="&#x3e;" d="M772 539v-165l-567 -352l-103 157l471 278l-471 269l102 165z" />
<glyph unicode="?" d="M612.5 1000.5q75.5 -33.5 114 -89t38.5 -121.5q0 -60 -21 -102t-51.5 -69t-80.5 -61q-60 -39 -89 -71.5t-29 -85.5v-30h-209v38q0 68 22 114.5t52.5 75t76.5 60.5q47 32 68 54.5t21 55.5q0 39 -32 61t-84 22q-49 0 -96 -22.5t-86 -66.5l-146 114q134 157 349 157 q107 0 182.5 -33.5zM485.5 199.5q39.5 -38.5 39.5 -91.5q0 -54 -38.5 -93.5t-93.5 -39.5q-54 0 -92.5 38.5t-38.5 94.5q0 54 38.5 92t92.5 38q53 0 92.5 -38.5z" />
<glyph unicode="@" d="M767 877.5q104 -156.5 104 -447.5q0 -195 -19.5 -317t-70 -186t-140.5 -64q-79 0 -121.5 56t-52.5 145h-6q-26 -60 -78.5 -97.5t-125.5 -37.5q-122 0 -178.5 90t-56.5 241q0 185 77.5 288t232.5 103q60 0 123 -16t121 -48v-436q0 -79 13.5 -112t44.5 -33q28 0 41 39 t16.5 121.5t3.5 250.5q0 161 -24.5 264t-88 156.5t-176.5 53.5q-81 0 -158.5 -31t-158.5 -102l-92 107q99 87 200 128t220 41q246 0 350 -156.5zM267 484q-21 -23 -30 -75.5t-9 -148.5q0 -102 15.5 -144.5t56.5 -42.5q42 0 59.5 29t22.5 74v318q-26 13 -55 13q-39 0 -60 -23 z" />
<glyph unicode="A" d="M286 218l-52 -218h-250l308 1008h290l308 -1008h-256l-52 218h-296zM542 390l-109 446l-109 -446h218z" />
<glyph unicode="B" d="M716 67q-114 -67 -300 -67h-335v1008h320q173 0 279.5 -60.5t106.5 -197.5q0 -86 -52.5 -141t-132.5 -75q96 -16 162 -72t66 -167q0 -161 -114 -228zM510 812q-37 27 -117 27h-73v-234h81q76 0 111 28.5t35 92.5q0 59 -37 86zM542 413q-43 32 -125 32h-97v-271h87 q83 0 130.5 28t47.5 103q0 76 -43 108z" />
<glyph unicode="C" d="M700.5 1006.5q75.5 -27.5 142.5 -83.5l-116 -141q-92 74 -201 74q-103 0 -166 -87t-63 -263t62.5 -261t171.5 -85q67 0 115 23t103 67l107 -138q-134 -137 -338 -137q-138 0 -243.5 61t-165.5 181t-60 289q0 164 61.5 283.5t169 182t241.5 62.5q104 0 179.5 -27.5z" />
<glyph unicode="D" d="M348 0h-272v1008h254q228 0 366.5 -107t138.5 -392q0 -509 -487 -509zM531 765.5q-58 69.5 -166 69.5h-51v-662h51q109 0 166.5 75t57.5 261q0 187 -58 256.5z" />
<glyph unicode="E" d="M374 595h349v-166h-349v-257h420v-172h-659v1008h659l-25 -170h-395v-243z" />
<glyph unicode="F" d="M397 571h352v-171h-352v-400h-240v1008h662l-24 -170h-398v-267z" />
<glyph unicode="G" d="M146 111q-113 136 -113 395q0 167 61.5 286.5t168 180.5t239.5 61q103 0 179.5 -33t140.5 -92l-126 -130q-48 42 -89 61t-94 19q-109 0 -171.5 -86.5t-62.5 -267.5q0 -195 46.5 -275t149.5 -80q68 0 126 30v231h-127l-23 166h375v-500q-166 -102 -352 -102 q-215 0 -328 136z" />
<glyph unicode="H" d="M558 425h-244v-425h-238v1008h238v-387h244v387h239v-1008h-239v425z" />
<glyph unicode="I" d="M763 833h-208v-657h208v-176h-654v176h208v657h-208v175h654v-175z" />
<glyph unicode="J" d="M766 362q0 -177 -106.5 -280.5t-298.5 -103.5q-93 0 -164 23.5t-140 71.5l90 147q52 -35 97 -49.5t104 -14.5q80 0 130 51.5t50 153.5v472h-308v175h546v-646z" />
<glyph unicode="K" d="M86 0v1008h238v-1008h-238zM606 1008h250l-285 -453l313 -555h-275l-277 538z" />
<glyph unicode="L" d="M135 1008h239v-819h436l-23 -189h-652v1008z" />
<glyph unicode="M" d="M848 0h-210l-11 432q-1 32 -2 87q0 73 4.5 142t10.5 145l-114 -634h-180l-124 634q16 -167 16 -301l-1 -78l-7 -427h-205l56 1008h246l112 -652l106 652h246z" />
<glyph unicode="N" d="M243 810q15 -111 25 -213.5t10 -217.5v-379h-202v1008h298l256 -807q-35 224 -35 421v386h202v-1008h-290z" />
<glyph unicode="O" d="M735 117q-104 -142 -299 -142q-196 0 -299.5 140.5t-103.5 389.5q0 246 104 387.5t299 141.5q196 0 299.5 -140.5t103.5 -388.5q0 -246 -104 -388zM558 775q-37 84 -122 84q-84 0 -121 -84t-37 -270t37 -270.5t121 -84.5q86 0 122.5 84t36.5 271q0 186 -37 270z" />
<glyph unicode="P" d="M731 422.5q-107 -86.5 -292 -86.5h-110v-336h-239v1008h317q209 0 320 -82.5t111 -246.5q0 -170 -107 -256.5zM411 838h-82v-331h94q81 0 125.5 42.5t44.5 129.5q0 159 -182 159z" />
<glyph unicode="Q" d="M624 58q122 -20 189.5 -72.5t108.5 -170.5l-195 -67q-35 83 -71.5 132t-92.5 74.5t-141 25.5q-186 0 -280.5 137t-94.5 388q0 247 100 388t294 141q195 0 294.5 -139.5t99.5 -389.5q0 -339 -211 -447zM574 708.5q-13 76.5 -45 113t-88 36.5q-57 0 -89 -37t-45 -113.5 t-13 -202.5q0 -189 32.5 -272t114.5 -83q58 0 89 37t44 113.5t13 204.5q0 127 -13 203.5z" />
<glyph unicode="R" d="M761.5 530q-54.5 -69 -146.5 -105l263 -425h-270l-218 385h-67v-385h-239v1008h317q208 0 311.5 -76t103.5 -231q0 -102 -54.5 -171zM528.5 807q-41.5 33 -127.5 33h-78v-290h88q79 0 119 36t40 115q0 73 -41.5 106z" />
<glyph unicode="S" d="M776.5 128q-49.5 -73 -142 -113t-218.5 -40q-250 0 -399 146l121 133q115 -102 272 -101q76 0 121.5 32.5t45.5 90.5q0 55 -38.5 86.5t-143.5 63.5q-177 54 -251 126.5t-74 187.5q0 90 50 157t136.5 102t192.5 35q222 0 361 -131l-112 -129q-51 42 -110 63t-121 21 q-70 0 -110 -25.5t-40 -73.5q0 -32 18 -54t60.5 -40.5t126.5 -45.5q154 -47 229 -120t75 -204q0 -94 -49.5 -167z" />
<glyph unicode="T" d="M554 0h-238v824h-284v184h816l-24 -184h-270v-824z" />
<glyph unicode="U" d="M811 337q0 -105 -42 -187t-126.5 -128.5t-206.5 -46.5q-183 0 -279 97.5t-96 264.5v671h240v-582q0 -97 10 -155.5t40 -88t85 -29.5t85 29.5t40 88t10 155.5v582h240v-671z" />
<glyph unicode="V" d="M630 1008h244l-291 -1008h-294l-289 1008h253l188 -822z" />
<glyph unicode="W" d="M759 0h-247l-74 721l-82 -721h-251l-109 1008h222l35 -804l83 687h206l77 -687l50 804h208z" />
<glyph unicode="X" d="M285 1008l151 -323l156 323h251l-267 -463l292 -545h-257l-178 384l-174 -384h-253l285 535l-263 473h257z" />
<glyph unicode="Y" d="M555 0h-238v377l-329 631h262l191 -434l191 434h252l-329 -630v-378z" />
<glyph unicode="Z" d="M817 190l-25 -190h-735v179l478 644h-426v185h697v-181l-469 -637h480z" />
<glyph unicode="[" d="M227 1197h448v-172h-232v-1034h232v-170h-448v1376z" />
<glyph unicode="\" d="M221 1188l609 -1268l-179 -83l-609 1268z" />
<glyph unicode="]" d="M646 -179h-448v172h231v1032h-231v172h448v-1376z" />
<glyph unicode="^" d="M816 766h-224l-157 290l-151 -290h-227l275 461h209z" />
<glyph unicode="_" d="M73 -90h727v-180h-727v180z" />
<glyph unicode="`" d="M237 1041l89 173l317 -193l-63 -117z" />
<glyph unicode="a" d="M763.5 160q11.5 -20 39.5 -31l-48 -151q-70 7 -116.5 31t-72.5 71q-44 -51 -111 -78t-142 -27q-119 0 -190.5 68t-71.5 175q0 125 99 194t277 69h104v28q0 119 -153 119q-39 0 -98 -11t-114 -30l-53 153q74 28 155 43t146 15q337 0 338 -273v-303q0 -42 11.5 -62z M470 162.5q40 22.5 61 61.5v126h-57q-186 0 -186 -116q0 -45 27 -69.5t76 -24.5q39 0 79 22.5z" />
<glyph unicode="b" d="M419.5 770.5q51.5 27.5 109.5 27.5q144 0 214.5 -107.5t70.5 -302.5q0 -121 -36 -214t-106 -146t-167 -53q-58 0 -107.5 25t-83.5 70l-9 -70h-203v1079l230 25v-410q36 49 87.5 76.5zM577 385q0 135 -30.5 189t-89.5 54q-71 0 -125 -90v-326q45 -70 113 -70 q132 0 132 243z" />
<glyph unicode="c" d="M596 173.5q41 16.5 87 48.5l102 -145q-55 -47 -127.5 -74.5t-158.5 -27.5q-124 0 -213.5 51t-137.5 142.5t-48 212.5t49.5 215.5t140.5 148t213 53.5q86 0 154.5 -24t127.5 -73l-99 -138q-84 58 -173 58q-173 0 -173 -240q0 -121 45 -172.5t127 -51.5q43 0 84 16.5z" />
<glyph unicode="d" d="M771 1079v-1079h-204l-12 84q-35 -49 -88.5 -79t-124.5 -30q-140 0 -212 110.5t-72 302.5q0 119 38 212.5t107.5 145.5t162.5 52q105 0 175 -72v378zM330 571q-35 -59 -35 -184q0 -134 31.5 -188.5t87.5 -54.5q73 0 127 89v333q-25 32 -52 48t-62 16q-62 0 -97 -59z" />
<glyph unicode="e" d="M487 142q99 0 198 64l91 -125q-57 -49 -135 -77.5t-173 -28.5q-129 0 -219.5 52t-136 144t-45.5 214q0 116 44.5 210t129.5 148.5t202 54.5q111 0 192.5 -47t126 -136.5t44.5 -213.5q0 -48 -5 -83h-500q22 -176 186 -176zM343 598.5q-38 -45.5 -45 -140.5h284 q-3 186 -139 186q-62 0 -100 -45.5z" />
<glyph unicode="f" d="M858 1054l-64 -150q-74 29 -164 29q-68 0 -98 -24.5t-30 -81.5v-103h251l-26 -160h-225v-564h-229v564h-162v160h162v111q0 119 84 194t236 75q149 -1 265 -50z" />
<glyph unicode="g" d="M840 727q-76 -31 -222 -31q76 -33 113 -79.5t37 -119.5q0 -74 -41 -133t-115 -92.5t-171 -33.5q-48 0 -91 9q-12 -6 -18 -18t-6 -25q0 -22 16.5 -34.5t67.5 -12.5h128q87 0 154 -29t103.5 -80t36.5 -115q0 -121 -105.5 -188.5t-307.5 -67.5q-144 0 -226 30t-115 83.5 t-33 135.5h204q0 -36 13.5 -56.5t51.5 -31t111 -10.5q102 0 140 23.5t38 65.5q0 35 -28 56t-84 21h-122q-119 0 -178.5 43t-59.5 110q0 44 22.5 82.5t63.5 64.5q-73 39 -105 92t-32 129q0 86 43.5 149.5t122 98t179.5 34.5q116 -3 197.5 22.5t165.5 76.5zM344 612 q-31 -35 -31 -94q0 -63 32 -98t85 -35q57 0 87.5 34.5t30.5 101.5q0 126 -118 126q-55 0 -86 -35z" />
<glyph unicode="h" d="M332 695q97 103 226 103q102 0 157.5 -60t55.5 -171v-567h-230v503q0 70 -16 97.5t-58 27.5q-35 0 -68 -24t-67 -70v-534h-230v1079l230 23v-407z" />
<glyph unicode="i" d="M532 1139q38 -37 38 -92q0 -57 -38 -93.5t-97 -36.5q-60 0 -98.5 37.5t-38.5 92.5t38.5 92t98.5 37q59 0 97 -37zM573 157h198v-157h-646v157h218v458h-211v157h441v-615z" />
<glyph unicode="j" d="M634.5 1139q38.5 -37 38.5 -92t-38.5 -92.5t-96.5 -37.5q-61 0 -99 36.5t-38 93.5q0 55 38.5 92t98.5 37q58 0 96.5 -37zM686 224q0 -164 -61 -272.5t-181 -173t-307 -101.5l-35 176q124 28 200 68.5t115.5 109.5t39.5 178v406h-277v157h506v-548z" />
<glyph unicode="k" d="M332 0h-230v1079l230 25v-1104zM580 430l275 -430h-262l-253 423l255 349h240z" />
<glyph unicode="l" d="M505 243q0 -86 98 -86q54 0 111 23l54 -154q-93 -51 -223 -51q-135 0 -202.5 78t-67.5 219v650h-227v157h457v-836z" />
<glyph unicode="m" d="M794.5 743.5q38.5 -54.5 38.5 -172.5v-571h-196v545q0 42 -8 58t-30 16q-41 0 -80 -50v-569h-163v545q0 42 -8 58t-30 16q-41 0 -80 -50v-569h-199v772h167l16 -74q38 52 75 76t87 24q45 0 75.5 -22.5t43.5 -68.5q79 92 170 91q83 0 121.5 -54.5z" />
<glyph unicode="n" d="M102 772h200l16 -89q52 58 110 86.5t130 28.5q100 0 156.5 -61t56.5 -170v-567h-230v500q0 73 -16 100.5t-58 27.5q-35 0 -68 -22.5t-67 -66.5v-539h-230v772z" />
<glyph unicode="o" d="M711.5 687q99.5 -111 99.5 -299q0 -195 -98.5 -304t-276.5 -109q-177 0 -276 108.5t-99 303.5q0 124 44.5 216t129.5 143.5t201 51.5q176 0 275.5 -111zM331.5 570.5q-33.5 -57.5 -33.5 -183.5q0 -128 33.5 -185.5t104.5 -57.5t104.5 58t33.5 186q0 125 -33.5 182.5 t-104.5 57.5t-104.5 -57.5z" />
<glyph unicode="p" d="M743 691.5q68 -106.5 68 -303.5q0 -119 -35.5 -213t-102.5 -147t-158 -53q-112 0 -183 80v-353l-230 -25v1095h203l11 -86q45 57 101 84.5t112 27.5q146 0 214 -106.5zM332 538v-326q25 -35 51.5 -51.5t61.5 -16.5q64 0 96.5 57.5t32.5 183.5q0 137 -29 190t-87 53 q-72 0 -126 -90z" />
<glyph unicode="q" d="M476 775.5q49 -22.5 84 -65.5l10 62h201v-1095l-230 25v363q-76 -90 -198 -90q-144 0 -213 109t-69 304q0 119 36.5 212.5t106 145.5t167.5 52q56 0 105 -22.5zM331.5 571.5q-33.5 -58.5 -33.5 -184.5q0 -135 30 -188.5t88 -53.5q74 0 125 88v333q-23 32 -50 48t-61 16 q-65 0 -98.5 -58.5z" />
<glyph unicode="r" d="M819 772l-43 -323h-145v143q-64 -12 -113.5 -70t-76.5 -147v-221h152v-154h-484v154h102v465h-102v153h278l40 -173q42 99 106.5 147.5t157.5 48.5q70 0 128 -23z" />
<glyph unicode="s" d="M505 158q34 18 34 54q0 26 -13.5 42t-51.5 31.5t-118 37.5q-116 31 -177 85t-61 150q0 106 88 173t246 67q183 0 313 -94l-92 -135q-106 65 -214 65q-57 0 -83.5 -14.5t-26.5 -45.5q0 -20 14 -34t52.5 -28.5t115.5 -36.5q83 -23 136 -50.5t82 -74t29 -119.5 q0 -81 -49.5 -139.5t-132.5 -87.5t-183 -29q-108 0 -195 30.5t-148 86.5l115 129q105 -81 226 -81q60 0 94 18z" />
<glyph unicode="t" d="M544 -25q-148 0 -223 75.5t-75 212.5v351h-162v158h162v167l229 28v-195h249l-23 -158h-226v-351q0 -57 26.5 -81.5t84.5 -24.5q73 0 135 35l76 -147q-109 -70 -253 -70z" />
<glyph unicode="u" d="M332 244q0 -54 19.5 -76.5t58.5 -22.5q35 0 71.5 22.5t59.5 62.5v542h230v-772h-201l-10 90q-38 -55 -102 -85t-135 -30q-109 0 -165 63.5t-56 176.5v557h230v-528z" />
<glyph unicode="v" d="M573 0h-271l-260 772h249l150 -596l157 596h232z" />
<glyph unicode="w" d="M505 0l-67 519l-70 -519h-249l-115 772h211l51 -628l80 531h195l71 -531l52 628h204l-110 -772h-253z" />
<glyph unicode="x" d="M32 0l265 406l-240 366h257l124 -247l119 247h244l-227 -358l266 -414h-260l-153 289l-146 -289h-249z" />
<glyph unicode="y" d="M574 0q-52 -156 -155 -235t-277 -89l-26 163q111 15 164 49.5t85 111.5h-80l-244 772h243l149 -625l163 625h236z" />
<glyph unicode="z" d="M762 174l-22 -174h-635v163l384 436h-352v173h618v-161l-378 -437h385z" />
<glyph unicode="{" d="M679 1061q-73 0 -107 -19.5t-28 -71.5l22 -215q1 -13 1 -37q0 -96 -59 -144.5t-168 -64.5q115 -17 172 -64t57 -143q0 -10 -3 -39l-22 -215q-6 -51 29 -71.5t106 -20.5v-160q-186 0 -268 51t-82 170q0 15 3 47l21 209l2 19q0 67 -53 95.5t-149 28.5v186q202 0 202 124 l-2 18l-21 208q-3 35 -3 50q0 119 82.5 169t267.5 50v-160z" />
<glyph unicode="|" d="M542 -153h-213v1331h213v-1331z" />
<glyph unicode="}" d="M461.5 1170.5q82.5 -50.5 82.5 -170.5q0 -15 -3 -46l-22 -210l-1 -18q0 -124 202 -124v-186q-202 0 -202 -124l1 -19l22 -208q3 -35 3 -49q0 -119 -83 -169.5t-268 -50.5v160q73 0 107 20t29 72l-22 215q-1 13 -2 37q0 96 59 144.5t170 64.5q-115 17 -172 63.5t-57 142.5 q0 26 2 40l22 215q6 51 -29 71t-107 20v160q186 0 268.5 -50.5z" />
<glyph unicode="~" d="M389 602.5q40 -22.5 86 -63.5q33 -31 57.5 -45t50.5 -14q39 0 69 27t60 86l128 -56q-51 -112 -112 -172t-151 -60q-52 0 -90.5 22t-88.5 64q-36 31 -60 45.5t-49 14.5q-39 0 -69 -28t-60 -86l-128 58q52 108 112.5 169t150.5 61q54 0 94 -22.5z" />
<glyph unicode="&#xa0;" />
<glyph unicode="&#xa1;" d="M529 705q38 -39 38 -94q0 -52 -38 -91t-93 -39q-54 0 -92.5 38.5t-38.5 91.5q0 55 38.5 94t92.5 39q55 0 93 -39zM560 -298h-246l31 647h183z" />
<glyph unicode="&#xa2;" d="M570 790q105 -17 188 -88l-99 -138q-38 31 -73 44t-74 13q-79 0 -118 -57t-39 -183q0 -124 40 -174t115 -50q38 0 70 13t74 44l104 -147q-84 -67 -188 -84v-217h-164v221q-138 28 -214.5 132.5t-76.5 261.5q0 158 77.5 268t214.5 138v219h163v-216z" />
<glyph unicode="&#xa3;" d="M684.5 997.5q73.5 -36.5 126.5 -112.5l-141 -101q-29 42 -61 59.5t-77 17.5q-124 0 -123 -137v-139h266v-121h-266v-111q0 -61 -20.5 -105t-72.5 -74h472l-26 -174h-701v166q54 17 79.5 41t33.5 58.5t8 95.5v103h-106v121h106v145q0 89 38.5 157t113.5 107.5t179 39.5 q98 0 171.5 -36.5z" />
<glyph unicode="&#xa4;" d="M266 772q70 42 172 42q99 0 170 -42l116 116l103 -103l-113 -115q47 -77 46 -173q0 -97 -48 -174l115 -115l-103 -102l-116 114q-71 -41 -170 -41q-100 0 -173 41l-117 -117l-103 103l116 118q-45 73 -45 173q0 102 44 173l-115 117l103 103zM331 616.5 q-37 -42.5 -37 -119.5q0 -79 37 -121t107 -42t105.5 42.5t35.5 120.5q0 77 -36 119.5t-105 42.5q-70 0 -107 -42.5z" />
<glyph unicode="&#xa5;" d="M603 512h144v-119h-194v-99h194v-120h-194v-174h-230v174h-192v120h192v99h-192v119h139l-258 496h244l183 -415h6l179 415h237z" />
<glyph unicode="&#xa6;" d="M542 648h-213v530h213v-530zM542 -153h-213v530h213v-530z" />
<glyph unicode="&#xa7;" d="M613 1012q72 -22 130 -60l-80 -133q-89 55 -189 55q-51 0 -78 -18t-27 -50q0 -25 12.5 -41t47.5 -32t109 -39q112 -35 166.5 -87t54.5 -140q0 -60 -31.5 -107t-83.5 -81q81 -64 82 -166q0 -68 -40 -122t-113.5 -83.5t-169.5 -29.5q-163 0 -281 81l77 141q99 -63 192 -62 q54 0 84.5 19t30.5 49q0 25 -11.5 41t-48 33.5t-113.5 40.5q-111 35 -165.5 86t-54.5 139q0 58 33 105t87 80q-84 67 -85 166q0 68 39.5 122t110.5 84.5t166 30.5q77 0 149 -22zM314 480q0 -32 16 -51.5t56.5 -38t132.5 -50.5q39 54 39 96q0 31 -16 50t-58 37.5t-132 49.5 q-38 -44 -38 -93z" />
<glyph unicode="&#xa8;" d="M183 960.5q-35 34.5 -35 83.5q0 48 35 81.5t85 33.5q51 0 85.5 -33.5t34.5 -81.5q0 -49 -35 -83.5t-85 -34.5t-85 34.5zM519.5 960.5q-35.5 34.5 -35.5 83.5q0 48 35.5 81.5t85.5 33.5q49 0 84 -33.5t35 -81.5q0 -49 -34 -83.5t-85 -34.5q-50 0 -85.5 34.5z" />
<glyph unicode="&#xa9;" d="M664 1040q95 -64 145 -175.5t50 -248.5t-50 -246.5t-145 -172.5t-226 -63q-134 0 -230 63t-145.5 173t-49.5 246q0 137 51 248.5t147 175.5t227 64t226 -64zM210 894.5q-76 -107.5 -76 -278.5q0 -169 76 -275.5t228 -106.5q150 0 226 107t76 275q0 170 -75.5 278 t-226.5 108q-152 0 -228 -107.5zM545 887.5q40 -16.5 74 -52.5l-71 -88q-20 16 -39 24t-42 8q-45 0 -71.5 -38.5t-26.5 -122.5q0 -158 98 -159q49 0 94 40l66 -96q-79 -71 -175 -71q-116 0 -181.5 74.5t-65.5 211.5q0 132 68.5 209t177.5 77q54 0 94 -16.5z" />
<glyph unicode="&#xaa;" d="M635.5 1048.5q65.5 -55.5 65.5 -167.5v-238q0 -31 10 -47t33 -23l-43 -128q-64 7 -102.5 26t-60.5 58q-36 -42 -86.5 -64.5t-108.5 -22.5q-99 0 -160 56t-61 146q0 100 83 157t233 57h77v17q0 49 -27 67.5t-94 18.5q-31 0 -76.5 -8.5t-93.5 -24.5l-48 131 q64 22 129.5 33.5t117.5 11.5q147 0 212.5 -55.5zM468 737q-76 0 -107.5 -20.5t-31.5 -65.5q0 -74 72 -74q32 0 62 18.5t52 50.5v91h-47zM747 0h-602v157h602v-157z" />
<glyph unicode="&#xab;" d="M323 25l-247 320v145l247 318l132 -82l-169 -309l169 -309zM664 25l-248 320v145l248 318l133 -82l-167 -309l167 -309z" />
<glyph unicode="&#xac;" d="M752 151h-189v224h-442v176h631v-400z" />
<glyph unicode="&#xad;" d="M196 544h480v-178h-480v178z" />
<glyph unicode="&#xae;" d="M640.5 1051.5q90.5 -52.5 142.5 -144t52 -203.5q0 -111 -52 -201t-142.5 -142.5t-202.5 -52.5q-113 0 -205 52.5t-144.5 142.5t-52.5 201q0 112 52.5 203.5t144 144t205.5 52.5q112 0 202.5 -52.5zM289.5 966q-65.5 -40 -103.5 -109t-38 -153t38 -152t103.5 -107 t148.5 -39q81 0 146.5 39t102 106.5t36.5 152.5q0 84 -36.5 153t-102 109t-146.5 40q-83 0 -148.5 -40zM602 795q0 -41 -22.5 -70t-61.5 -43l112 -172h-121l-90 150h-34v-150h-104v413h126q195 0 195 -128zM385 845v-101h34q76 0 75 54q0 47 -77 47h-32z" />
<glyph unicode="&#xaf;" d="M214 957v158h445v-158h-445z" />
<glyph unicode="&#xb0;" d="M487.5 1074q60.5 -30 97.5 -86t37 -130t-37 -131t-97.5 -87.5t-125.5 -30.5q-64 0 -124.5 30.5t-97.5 87.5t-37 131t37 130t97 86t125 30t125.5 -30zM289 940.5q-27 -30.5 -27 -82.5q0 -51 27.5 -82.5t72.5 -31.5q47 0 74.5 31.5t27.5 82.5q0 52 -27.5 82.5t-74.5 30.5 q-46 0 -73 -30.5z" />
<glyph unicode="&#xb1;" d="M532 585h220v-175h-220v-156h-192v156h-219v175h219v226h192v-226zM752 0h-631v174h631v-174z" />
<glyph unicode="&#xb2;" d="M599.5 675q-44.5 -45 -163.5 -98h226l-19 -119h-415v106q105 58 156.5 92.5t69 57t17.5 48.5q0 23 -16 37.5t-44 14.5t-50 -11.5t-47 -40.5l-103 75q87 96 227 96q97 0 151.5 -43.5t54.5 -107.5q0 -62 -44.5 -107z" />
<glyph unicode="&#xb3;" d="M594.5 897.5q53.5 -35.5 53.5 -93.5q0 -42 -24.5 -66t-75.5 -36q64 -10 93 -34.5t29 -74.5q0 -67 -64.5 -105.5t-175.5 -38.5q-70 0 -131.5 20t-102.5 60l95 80q33 -25 63.5 -35t70.5 -10q36 0 55 12.5t19 34.5q0 41 -73 40h-76l18 95h58q26 0 40.5 9.5t14.5 23.5 q0 39 -56 40q-36 0 -65.5 -9.5t-64.5 -33.5l-83 83q93 74 233 74q96 0 149.5 -35.5z" />
<glyph unicode="&#xb4;" d="M637 1041l-345 -137l-62 118l317 192z" />
<glyph unicode="&#xb5;" d="M762 273q0 -129 17 -273l-206 -20q-13 48 -19 112q-33 -54 -75.5 -84t-91.5 -30q-41 0 -68 14.5t-57 55.5q28 -58 40 -104t12 -111v-131l-217 -23v1093h229v-439q0 -71 4 -108t21.5 -57t54.5 -20q36 0 68.5 22t57.5 61v541h230v-499z" />
<glyph unicode="&#xb6;" d="M845 -305l-192 -16v1173h-121v-1157l-192 -16v706q-154 13 -233 94t-79 216q0 141 94.5 227t271.5 86h451v-1313z" />
<glyph unicode="&#xb7;" d="M322 611.5q47 47.5 114 47.5t114.5 -47.5t47.5 -114.5t-47.5 -114t-114.5 -47t-114 47t-47 114t47 114.5z" />
<glyph unicode="&#xb8;" d="M433 -173q-32 10 -101 10l20 186h128v-93q74 -9 112 -46.5t38 -97.5q0 -74 -60 -120.5t-157 -46.5q-49 0 -93.5 12.5t-76.5 31.5l52 106q49 -25 93 -25q77 0 77 45q0 28 -32 38z" />
<glyph unicode="&#xb9;" d="M450 765l-115 -60l-75 105l215 115h138v-467h-163v307z" />
<glyph unicode="&#xba;" d="M607.5 1061q72.5 -43 112 -118t39.5 -169q0 -97 -39.5 -173t-112 -117.5t-171.5 -41.5q-150 0 -236.5 91t-86.5 241q0 95 39.5 169.5t113 117.5t170.5 43q99 0 171.5 -43zM316 774q0 -99 30.5 -143.5t89.5 -44.5q60 0 90.5 44.5t30.5 143.5q0 188 -121 187 q-120 1 -120 -187zM737 0h-602v157h602v-157z" />
<glyph unicode="&#xbb;" d="M76 726l132 82l247 -318v-145l-247 -320l-132 83l167 309zM416 726l132 82l249 -318v-145l-249 -320l-132 83l169 309z" />
<glyph unicode="&#xbc;" d="M165 846l-115 -59l-75 104l215 115h138v-467h-163v307zM20 365l778 372l60 -110l-777 -373zM835 0h-152v81h-263v96l176 303l138 -47l-144 -243h96l22 115h127v-115h64v-109h-64v-81z" />
<glyph unicode="&#xbd;" d="M161 846l-115 -59l-75 104l215 115h138v-467h-163v307zM14 365l778 372l60 -110l-777 -373zM839.5 217q-44.5 -45 -163.5 -98h226l-19 -119h-415v106q105 58 156.5 92.5t69 57t17.5 48.5q0 23 -16 37.5t-44 14.5t-50 -11.5t-47 -40.5l-103 75q87 96 227 96 q97 0 151.5 -43.5t54.5 -107.5q0 -62 -44.5 -107z" />
<glyph unicode="&#xbe;" d="M377.5 979.5q53.5 -35.5 53.5 -94.5q0 -42 -24.5 -66t-75.5 -35q64 -10 93 -35t29 -74q0 -67 -64.5 -105.5t-175.5 -38.5q-70 0 -131.5 19.5t-102.5 60.5l95 80q32 -25 63 -35t71 -10q36 0 55 12t19 34q0 41 -73 41h-76l18 94h58q26 0 40.5 9.5t14.5 24.5q0 39 -56 39 q-35 0 -64 -9.5t-66 -32.5l-83 83q93 74 233 74q96 0 149.5 -35.5zM27 365l778 372l60 -110l-777 -373zM831 0h-152v81h-263v96l176 303l138 -47l-144 -243h96l22 115h127v-115h64v-109h-64v-81z" />
<glyph unicode="&#xbf;" d="M554 705q39 -39 39 -94q0 -52 -39 -91t-93 -39t-92.5 38.5t-38.5 91.5q0 55 38.5 94t92.5 39t93 -39zM567 301q0 -67 -22 -114t-52.5 -75t-76.5 -60q-47 -33 -67 -55t-20 -55q0 -39 32 -61t84 -22q102 0 182 87l145 -112q-134 -157 -350 -157q-106 0 -181 33.5t-113.5 89 t-38.5 121.5q0 58 20 100.5t50 68.5t79 61q61 42 91 77t30 90v31h208v-48z" />
<glyph unicode="&#xc0;" d="M286 218l-52 -218h-250l308 1008h290l308 -1008h-256l-52 218h-296zM542 390l-109 446l-109 -446h218zM636 1208l-54 -116l-346 122l87 172z" />
<glyph unicode="&#xc1;" d="M286 218l-52 -218h-250l308 1008h290l308 -1008h-256l-52 218h-296zM542 390l-109 446l-109 -446h218zM636 1214l-345 -122l-55 116l314 178z" />
<glyph unicode="&#xc2;" d="M286 218l-52 -218h-250l308 1008h290l308 -1008h-256l-52 218h-296zM542 390l-109 446l-109 -446h218zM711 1182l-81 -94l-194 123l-193 -123l-83 94l206 189h140z" />
<glyph unicode="&#xc3;" d="M286 218l-52 -218h-250l308 1008h290l308 -1008h-256l-52 218h-296zM542 390l-109 446l-109 -446h218zM462.5 1115q-23.5 10 -50.5 29q-36 26 -60 26q-26 0 -42 -14.5t-35 -49.5l-115 56q31 77 78 124t110 47q33 0 57 -10t52 -29q19 -13 32 -19.5t27 -6.5q23 0 39.5 14.5 t36.5 47.5l115 -55q-31 -77 -79.5 -123.5t-109.5 -46.5q-32 0 -55.5 10z" />
<glyph unicode="&#xc4;" d="M286 218l-52 -218h-250l308 1008h290l308 -1008h-256l-52 218h-296zM542 390l-109 446l-109 -446h218zM183.5 1141.5q-34.5 33.5 -34.5 82.5t34.5 83t84.5 34q51 0 85 -33.5t34 -83.5q0 -49 -34 -82.5t-85 -33.5q-50 0 -84.5 33.5zM520 1142q-36 34 -36 82t36 82.5 t85 34.5q51 0 85 -33.5t34 -83.5q0 -49 -34 -82.5t-85 -33.5q-49 0 -85 34z" />
<glyph unicode="&#xc5;" d="M286 218l-52 -218h-250l308 1008h290l308 -1008h-256l-52 218h-296zM542 390l-109 446l-109 -446h218zM582 1384q55 -55 55 -135t-56 -136.5t-146 -56.5t-145.5 56.5t-55.5 136.5t55.5 135t145.5 55q92 0 147 -55zM388.5 1302q-17.5 -18 -17.5 -53q0 -36 17.5 -55 t46.5 -19q31 0 48 19t17 55q0 35 -17 53t-48 18q-29 0 -46.5 -18z" />
<glyph unicode="&#xc6;" d="M252 222l-41 -222h-228l254 1008h585l-25 -162h-265l48 -256h228v-160h-199l53 -269h215v-161h-386l-36 222h-203zM430 385l-74 463l-78 -463h152z" />
<glyph unicode="&#xc7;" d="M667.5 -116.5q37.5 -37.5 37.5 -97.5q0 -74 -59.5 -120.5t-156.5 -46.5q-49 0 -94 12.5t-77 31.5l53 106q49 -25 93 -25q77 0 77 45q0 28 -32 38t-102 10l16 147q-172 29 -273 164.5t-101 357.5q0 164 61.5 283.5t169 182t241.5 62.5q105 0 180 -27.5t142 -83.5 l-116 -141q-92 74 -201 74q-103 0 -166 -87t-63 -263t62.5 -261t171.5 -85q67 0 115 23t103 67l107 -138q-121 -124 -301 -135v-47q75 -9 112.5 -46.5z" />
<glyph unicode="&#xc8;" d="M374 595h349v-166h-349v-257h420v-172h-659v1008h659l-25 -170h-395v-243zM665 1208l-54 -116l-346 122l87 172z" />
<glyph unicode="&#xc9;" d="M374 595h349v-166h-349v-257h420v-172h-659v1008h659l-25 -170h-395v-243zM665 1214l-345 -122l-55 116l314 178z" />
<glyph unicode="&#xca;" d="M374 595h349v-166h-349v-257h420v-172h-659v1008h659l-25 -170h-395v-243zM740 1182l-81 -94l-194 123l-193 -123l-83 94l206 189h140z" />
<glyph unicode="&#xcb;" d="M374 595h349v-166h-349v-257h420v-172h-659v1008h659l-25 -170h-395v-243zM212.5 1141.5q-34.5 33.5 -34.5 82.5t34.5 83t84.5 34q51 0 85 -33.5t34 -83.5q0 -49 -34 -82.5t-85 -33.5q-50 0 -84.5 33.5zM549 1142q-36 34 -36 82t36 82.5t85 34.5q51 0 85 -33.5t34 -83.5 q0 -49 -34 -82.5t-85 -33.5q-49 0 -85 34z" />
<glyph unicode="&#xcc;" d="M763 833h-208v-657h208v-176h-654v176h208v657h-208v175h654v-175zM636 1208l-54 -116l-346 122l87 172z" />
<glyph unicode="&#xcd;" d="M763 833h-208v-657h208v-176h-654v176h208v657h-208v175h654v-175zM636 1214l-345 -122l-55 116l314 178z" />
<glyph unicode="&#xce;" d="M763 833h-208v-657h208v-176h-654v176h208v657h-208v175h654v-175zM711 1182l-81 -94l-194 123l-193 -123l-83 94l206 189h140z" />
<glyph unicode="&#xcf;" d="M763 833h-208v-657h208v-176h-654v176h208v657h-208v175h654v-175zM183.5 1141.5q-34.5 33.5 -34.5 82.5t34.5 83t84.5 34q51 0 85 -33.5t34 -83.5q0 -49 -34 -82.5t-85 -33.5q-50 0 -84.5 33.5zM520 1142q-36 34 -36 82t36 82.5t85 34.5q51 0 85 -33.5t34 -83.5 q0 -49 -34 -82.5t-85 -33.5q-49 0 -85 34z" />
<glyph unicode="&#xd0;" d="M715 901q138 -107 138 -392q0 -509 -487 -509h-271v441h-82v145h82v422h254q228 0 366 -107zM548.5 247q57.5 74 57.5 262q0 129 -28 200.5t-76 98.5t-118 27h-51v-249h174v-145h-174v-268h51q107 0 164.5 74z" />
<glyph unicode="&#xd1;" d="M243 810q15 -111 25 -213.5t10 -217.5v-379h-202v1008h298l256 -807q-35 224 -35 421v386h202v-1008h-290zM476.5 1115q-23.5 10 -50.5 29q-36 26 -60 26q-26 0 -42 -14.5t-35 -49.5l-115 56q31 77 78 124t110 47q33 0 57 -10t52 -29q19 -13 32 -19.5t27 -6.5 q23 0 39.5 14.5t36.5 47.5l115 -55q-31 -77 -79.5 -123.5t-109.5 -46.5q-32 0 -55.5 10z" />
<glyph unicode="&#xd2;" d="M735 117q-104 -142 -299 -142q-196 0 -299.5 140.5t-103.5 389.5q0 246 104 387.5t299 141.5q196 0 299.5 -140.5t103.5 -388.5q0 -246 -104 -388zM558 775q-37 84 -122 84q-84 0 -121 -84t-37 -270t37 -270.5t121 -84.5q86 0 122.5 84t36.5 271q0 186 -37 270zM636 1208 l-54 -116l-346 122l87 172z" />
<glyph unicode="&#xd3;" d="M735 117q-104 -142 -299 -142q-196 0 -299.5 140.5t-103.5 389.5q0 246 104 387.5t299 141.5q196 0 299.5 -140.5t103.5 -388.5q0 -246 -104 -388zM558 775q-37 84 -122 84q-84 0 -121 -84t-37 -270t37 -270.5t121 -84.5q86 0 122.5 84t36.5 271q0 186 -37 270zM636 1214 l-345 -122l-55 116l314 178z" />
<glyph unicode="&#xd4;" d="M735 117q-104 -142 -299 -142q-196 0 -299.5 140.5t-103.5 389.5q0 246 104 387.5t299 141.5q196 0 299.5 -140.5t103.5 -388.5q0 -246 -104 -388zM558 775q-37 84 -122 84q-84 0 -121 -84t-37 -270t37 -270.5t121 -84.5q86 0 122.5 84t36.5 271q0 186 -37 270zM711 1182 l-81 -94l-194 123l-193 -123l-83 94l206 189h140z" />
<glyph unicode="&#xd5;" d="M735 117q-104 -142 -299 -142q-196 0 -299.5 140.5t-103.5 389.5q0 246 104 387.5t299 141.5q196 0 299.5 -140.5t103.5 -388.5q0 -246 -104 -388zM558 775q-37 84 -122 84q-84 0 -121 -84t-37 -270t37 -270.5t121 -84.5q86 0 122.5 84t36.5 271q0 186 -37 270z M462.5 1115q-23.5 10 -50.5 29q-36 26 -60 26q-26 0 -42 -14.5t-35 -49.5l-115 56q31 77 78 124t110 47q33 0 57 -10t52 -29q19 -13 32 -19.5t27 -6.5q23 0 39.5 14.5t36.5 47.5l115 -55q-31 -77 -79.5 -123.5t-109.5 -46.5q-32 0 -55.5 10z" />
<glyph unicode="&#xd6;" d="M735 117q-104 -142 -299 -142q-196 0 -299.5 140.5t-103.5 389.5q0 246 104 387.5t299 141.5q196 0 299.5 -140.5t103.5 -388.5q0 -246 -104 -388zM558 775q-37 84 -122 84q-84 0 -121 -84t-37 -270t37 -270.5t121 -84.5q86 0 122.5 84t36.5 271q0 186 -37 270z M183.5 1141.5q-34.5 33.5 -34.5 82.5t34.5 83t84.5 34q51 0 85 -33.5t34 -83.5q0 -49 -34 -82.5t-85 -33.5q-50 0 -84.5 33.5zM520 1142q-36 34 -36 82t36 82.5t85 34.5q51 0 85 -33.5t34 -83.5q0 -49 -34 -82.5t-85 -33.5q-49 0 -85 34z" />
<glyph unicode="&#xd7;" d="M730 614l-170 -168l170 -167l-127 -126l-167 170l-167 -170l-127 126l171 167l-171 168l127 126l167 -170l167 170z" />
<glyph unicode="&#xd8;" d="M794 779q45 -117 45 -274q0 -246 -104 -388t-299 -142q-36 0 -75 8l-41 -141l-162 47l50 160q-84 65 -129.5 182.5t-45.5 273.5q0 246 104 387.5t299 141.5q35 0 74 -7l43 141l161 -48l-50 -160q85 -64 130 -181zM308.5 779q-39.5 -85 -39.5 -274q0 -179 33 -264l181 617 q-29 6 -47 6q-88 0 -127.5 -85zM564.5 230.5q38.5 85.5 38.5 274.5q0 180 -32 260l-178 -614q17 -6 43 -6q90 0 128.5 85.5z" />
<glyph unicode="&#xd9;" d="M811 337q0 -105 -42 -187t-126.5 -128.5t-206.5 -46.5q-183 0 -279 97.5t-96 264.5v671h240v-582q0 -97 10 -155.5t40 -88t85 -29.5t85 29.5t40 88t10 155.5v582h240v-671zM636 1208l-54 -116l-346 122l87 172z" />
<glyph unicode="&#xda;" d="M811 337q0 -105 -42 -187t-126.5 -128.5t-206.5 -46.5q-183 0 -279 97.5t-96 264.5v671h240v-582q0 -97 10 -155.5t40 -88t85 -29.5t85 29.5t40 88t10 155.5v582h240v-671zM636 1214l-345 -122l-55 116l314 178z" />
<glyph unicode="&#xdb;" d="M811 337q0 -105 -42 -187t-126.5 -128.5t-206.5 -46.5q-183 0 -279 97.5t-96 264.5v671h240v-582q0 -97 10 -155.5t40 -88t85 -29.5t85 29.5t40 88t10 155.5v582h240v-671zM711 1182l-81 -94l-194 123l-193 -123l-83 94l206 189h140z" />
<glyph unicode="&#xdc;" d="M811 337q0 -105 -42 -187t-126.5 -128.5t-206.5 -46.5q-183 0 -279 97.5t-96 264.5v671h240v-582q0 -97 10 -155.5t40 -88t85 -29.5t85 29.5t40 88t10 155.5v582h240v-671zM183.5 1141.5q-34.5 33.5 -34.5 82.5t34.5 83t84.5 34q51 0 85 -33.5t34 -83.5q0 -49 -34 -82.5 t-85 -33.5q-50 0 -84.5 33.5zM520 1142q-36 34 -36 82t36 82.5t85 34.5q51 0 85 -33.5t34 -83.5q0 -49 -34 -82.5t-85 -33.5q-49 0 -85 34z" />
<glyph unicode="&#xdd;" d="M555 0h-238v377l-329 631h262l191 -434l191 434h252l-329 -630v-378zM636 1214l-345 -122l-55 116l314 178z" />
<glyph unicode="&#xde;" d="M326 845h80q208 0 320 -83t112 -247q0 -174 -104 -260t-296 -86h-112v-169h-240v1008h240v-163zM326 675v-333h96q83 0 125.5 40t42.5 131q0 83 -44 122.5t-133 39.5h-87z" />
<glyph unicode="&#xdf;" d="M581 1074q66 -30 101 -81.5t35 -115.5q0 -48 -19 -80t-57 -71q-28 -29 -41.5 -50.5t-13.5 -47.5q0 -29 22 -52t67 -57q51 -38 83.5 -70t56.5 -82.5t24 -122.5q0 -125 -81.5 -197t-210.5 -72q-102 0 -185 45l73 154q47 -22 83 -21q42 0 63.5 23t21.5 67q0 51 -25 83.5 t-76 70.5q-39 32 -62 54t-39 56t-16 80q0 47 15.5 81t44.5 76q26 39 37.5 65t11.5 58q0 36 -20 55.5t-57 19.5q-52 0 -76 -39t-24 -121v-782h-230v772q0 158 86 245t250 87q92 0 158 -30z" />
<glyph unicode="&#xe0;" d="M763.5 160q11.5 -20 39.5 -31l-48 -151q-70 7 -116.5 31t-72.5 71q-44 -51 -111 -78t-142 -27q-119 0 -190.5 68t-71.5 175q0 125 99 194t277 69h104v28q0 119 -153 119q-39 0 -98 -11t-114 -30l-53 153q74 28 155 43t146 15q337 0 338 -273v-303q0 -42 11.5 -62z M470 162.5q40 22.5 61 61.5v126h-57q-186 0 -186 -116q0 -45 27 -69.5t76 -24.5q39 0 79 22.5zM227 1041l89 173l317 -193l-63 -117z" />
<glyph unicode="&#xe1;" d="M763.5 160q11.5 -20 39.5 -31l-48 -151q-70 7 -116.5 31t-72.5 71q-44 -51 -111 -78t-142 -27q-119 0 -190.5 68t-71.5 175q0 125 99 194t277 69h104v28q0 119 -153 119q-39 0 -98 -11t-114 -30l-53 153q74 28 155 43t146 15q337 0 338 -273v-303q0 -42 11.5 -62z M470 162.5q40 22.5 61 61.5v126h-57q-186 0 -186 -116q0 -45 27 -69.5t76 -24.5q39 0 79 22.5zM627 1041l-345 -137l-62 118l317 192z" />
<glyph unicode="&#xe2;" d="M763.5 160q11.5 -20 39.5 -31l-48 -151q-70 7 -116.5 31t-72.5 71q-44 -51 -111 -78t-142 -27q-119 0 -190.5 68t-71.5 175q0 125 99 194t277 69h104v28q0 119 -153 119q-39 0 -98 -11t-114 -30l-53 153q74 28 155 43t146 15q337 0 338 -273v-303q0 -42 11.5 -62z M470 162.5q40 22.5 61 61.5v126h-57q-186 0 -186 -116q0 -45 27 -69.5t76 -24.5q39 0 79 22.5zM150 983l206 202h140l205 -202l-81 -95l-194 137l-193 -137z" />
<glyph unicode="&#xe3;" d="M763.5 160q11.5 -20 39.5 -31l-48 -151q-70 7 -116.5 31t-72.5 71q-44 -51 -111 -78t-142 -27q-119 0 -190.5 68t-71.5 175q0 125 99 194t277 69h104v28q0 119 -153 119q-39 0 -98 -11t-114 -30l-53 153q74 28 155 43t146 15q337 0 338 -273v-303q0 -42 11.5 -62z M470 162.5q40 22.5 61 61.5v126h-57q-186 0 -186 -116q0 -45 27 -69.5t76 -24.5q39 0 79 22.5zM452.5 933.5q-23.5 10.5 -51.5 29.5q-36 26 -59 26q-26 0 -42 -14.5t-35 -49.5l-115 55q31 77 78 124.5t110 47.5q33 0 57 -10.5t52 -29.5q19 -13 32 -19.5t27 -6.5 q23 0 39 14.5t37 48.5l115 -56q-31 -77 -79 -123.5t-110 -46.5q-32 0 -55.5 10.5z" />
<glyph unicode="&#xe4;" d="M763.5 160q11.5 -20 39.5 -31l-48 -151q-70 7 -116.5 31t-72.5 71q-44 -51 -111 -78t-142 -27q-119 0 -190.5 68t-71.5 175q0 125 99 194t277 69h104v28q0 119 -153 119q-39 0 -98 -11t-114 -30l-53 153q74 28 155 43t146 15q337 0 338 -273v-303q0 -42 11.5 -62z M470 162.5q40 22.5 61 61.5v126h-57q-186 0 -186 -116q0 -45 27 -69.5t76 -24.5q39 0 79 22.5zM173 960.5q-35 34.5 -35 83.5q0 48 35 81.5t85 33.5q51 0 85.5 -33.5t34.5 -81.5q0 -49 -35 -83.5t-85 -34.5t-85 34.5zM509.5 960.5q-35.5 34.5 -35.5 83.5q0 48 35.5 81.5 t85.5 33.5q49 0 84 -33.5t35 -81.5q0 -49 -34 -83.5t-85 -34.5q-50 0 -85.5 34.5z" />
<glyph unicode="&#xe5;" d="M763.5 160q11.5 -20 39.5 -31l-48 -151q-70 7 -116.5 31t-72.5 71q-44 -51 -111 -78t-142 -27q-119 0 -190.5 68t-71.5 175q0 125 99 194t277 69h104v28q0 119 -153 119q-39 0 -98 -11t-114 -30l-53 153q74 28 155 43t146 15q337 0 338 -273v-303q0 -42 11.5 -62z M470 162.5q40 22.5 61 61.5v126h-57q-186 0 -186 -116q0 -45 27 -69.5t76 -24.5q39 0 79 22.5zM571.5 1202.5q55.5 -55.5 55.5 -135.5t-56 -136.5t-146 -56.5q-60 0 -105.5 26t-70.5 70.5t-25 96.5q0 79 55.5 135t145.5 56q91 0 146.5 -55.5zM378.5 1120 q-17.5 -18 -17.5 -53q0 -36 17.5 -55t46.5 -19q31 0 48 19t17 55q0 35 -17.5 53t-47.5 18q-29 0 -46.5 -18z" />
<glyph unicode="&#xe6;" d="M813.5 698.5q58.5 -99.5 58.5 -297.5q0 -38 -4 -72h-350q19 -202 141 -203q33 0 63 12t63 35l87 -115q-97 -83 -226 -83q-154 0 -233 122q-44 -65 -89 -93.5t-116 -28.5q-100 0 -158.5 68.5t-58.5 177.5q0 125 73 189.5t221 64.5h60v34q0 147 -130 147q-35 0 -63 -8 t-72 -29l-52 127q61 28 109 40t101 12q76 0 124 -27t77 -76q28 48 73.5 75.5t109.5 27.5q133 0 191.5 -99.5zM546 609q-23 -45 -28 -155h181q-1 108 -18.5 154t-66.5 46q-45 0 -68 -45zM314 352q-70 0 -100.5 -30.5t-30.5 -90.5q0 -51 17.5 -78.5t49.5 -27.5q29 0 54 22 t48 68q-7 73 -7 137h-31z" />
<glyph unicode="&#xe7;" d="M648.5 -116.5q37.5 -37.5 37.5 -97.5q0 -74 -59.5 -120.5t-156.5 -46.5q-49 0 -93.5 12.5t-76.5 31.5l52 106q49 -25 93 -25q77 0 77 45q0 28 -32 38t-102 10l16 147q-142 28 -223 133t-81 264q0 121 49.5 215.5t140.5 148t213 53.5q86 0 154.5 -24t127.5 -73l-99 -138 q-84 58 -173 58q-173 0 -173 -240q0 -121 45 -172.5t127 -51.5q44 0 84.5 16.5t86.5 48.5l102 -145q-103 -89 -248 -100v-47q74 -9 111.5 -46.5z" />
<glyph unicode="&#xe8;" d="M487 142q99 0 198 64l91 -125q-57 -49 -135 -77.5t-173 -28.5q-129 0 -219.5 52t-136 144t-45.5 214q0 116 44.5 210t129.5 148.5t202 54.5q111 0 192.5 -47t126 -136.5t44.5 -213.5q0 -48 -5 -83h-500q22 -176 186 -176zM343 598.5q-38 -45.5 -45 -140.5h284 q-3 186 -139 186q-62 0 -100 -45.5zM247 1041l89 173l317 -193l-63 -117z" />
<glyph unicode="&#xe9;" d="M487 142q99 0 198 64l91 -125q-57 -49 -135 -77.5t-173 -28.5q-129 0 -219.5 52t-136 144t-45.5 214q0 116 44.5 210t129.5 148.5t202 54.5q111 0 192.5 -47t126 -136.5t44.5 -213.5q0 -48 -5 -83h-500q22 -176 186 -176zM343 598.5q-38 -45.5 -45 -140.5h284 q-3 186 -139 186q-62 0 -100 -45.5zM647 1041l-345 -137l-62 118l317 192z" />
<glyph unicode="&#xea;" d="M487 142q99 0 198 64l91 -125q-57 -49 -135 -77.5t-173 -28.5q-129 0 -219.5 52t-136 144t-45.5 214q0 116 44.5 210t129.5 148.5t202 54.5q111 0 192.5 -47t126 -136.5t44.5 -213.5q0 -48 -5 -83h-500q22 -176 186 -176zM343 598.5q-38 -45.5 -45 -140.5h284 q-3 186 -139 186q-62 0 -100 -45.5zM170 983l206 202h140l205 -202l-81 -95l-194 137l-193 -137z" />
<glyph unicode="&#xeb;" d="M487 142q99 0 198 64l91 -125q-57 -49 -135 -77.5t-173 -28.5q-129 0 -219.5 52t-136 144t-45.5 214q0 116 44.5 210t129.5 148.5t202 54.5q111 0 192.5 -47t126 -136.5t44.5 -213.5q0 -48 -5 -83h-500q22 -176 186 -176zM343 598.5q-38 -45.5 -45 -140.5h284 q-3 186 -139 186q-62 0 -100 -45.5zM193 960.5q-35 34.5 -35 83.5q0 48 35 81.5t85 33.5q51 0 85.5 -33.5t34.5 -81.5q0 -49 -35 -83.5t-85 -34.5t-85 34.5zM529.5 960.5q-35.5 34.5 -35.5 83.5q0 48 35.5 81.5t85.5 33.5q49 0 84 -33.5t35 -81.5q0 -49 -34 -83.5t-85 -34.5 q-50 0 -85.5 34.5z" />
<glyph unicode="&#xec;" d="M573 157h198v-157h-646v157h218v458h-211v157h441v-615zM236 1041l89 173l317 -193l-63 -117z" />
<glyph unicode="&#xed;" d="M573 157h198v-157h-646v157h218v458h-211v157h441v-615zM636 1041l-345 -137l-62 118l317 192z" />
<glyph unicode="&#xee;" d="M573 157h198v-157h-646v157h218v458h-211v157h441v-615zM159 983l206 202h140l205 -202l-81 -95l-194 137l-193 -137z" />
<glyph unicode="&#xef;" d="M573 157h198v-157h-646v157h218v458h-211v157h441v-615zM182 960.5q-35 34.5 -35 83.5q0 48 35 81.5t85 33.5q51 0 85.5 -33.5t34.5 -81.5q0 -49 -35 -83.5t-85 -34.5t-85 34.5zM518.5 960.5q-35.5 34.5 -35.5 83.5q0 48 35.5 81.5t85.5 33.5q49 0 84 -33.5t35 -81.5 q0 -49 -34 -83.5t-85 -34.5q-50 0 -85.5 34.5z" />
<glyph unicode="&#xf0;" d="M268 917q-58 22 -133 35l45 150q124 -17 213 -54l106 111l117 -102l-77 -78q138 -89 203.5 -233t65.5 -343q0 -121 -44 -218.5t-130.5 -153.5t-206.5 -56q-105 0 -189 44t-132 126.5t-48 194.5q0 105 43 187t114 128t156 46q63 0 107.5 -18.5t85.5 -55.5 q-48 142 -154 219l-81 -83l-146 67zM574 477q-55 63 -144 62q-65 0 -101.5 -49t-36.5 -147q0 -103 36.5 -152t103.5 -49q74 0 109 56t35 174q-1 72 -2 105z" />
<glyph unicode="&#xf1;" d="M102 772h200l16 -89q52 58 110 86.5t130 28.5q100 0 156.5 -61t56.5 -170v-567h-230v500q0 73 -16 100.5t-58 27.5q-35 0 -68 -22.5t-67 -66.5v-539h-230v772zM463.5 933.5q-23.5 10.5 -51.5 29.5q-36 26 -59 26q-26 0 -42 -14.5t-35 -49.5l-115 55q31 77 78 124.5 t110 47.5q33 0 57 -10.5t52 -29.5q19 -13 32 -19.5t27 -6.5q23 0 39 14.5t37 48.5l115 -56q-31 -77 -79 -123.5t-110 -46.5q-32 0 -55.5 10.5z" />
<glyph unicode="&#xf2;" d="M711.5 687q99.5 -111 99.5 -299q0 -195 -98.5 -304t-276.5 -109q-177 0 -276 108.5t-99 303.5q0 124 44.5 216t129.5 143.5t201 51.5q176 0 275.5 -111zM331.5 570.5q-33.5 -57.5 -33.5 -183.5q0 -128 33.5 -185.5t104.5 -57.5t104.5 58t33.5 186q0 125 -33.5 182.5 t-104.5 57.5t-104.5 -57.5zM237 1041l89 173l317 -193l-63 -117z" />
<glyph unicode="&#xf3;" d="M711.5 687q99.5 -111 99.5 -299q0 -195 -98.5 -304t-276.5 -109q-177 0 -276 108.5t-99 303.5q0 124 44.5 216t129.5 143.5t201 51.5q176 0 275.5 -111zM331.5 570.5q-33.5 -57.5 -33.5 -183.5q0 -128 33.5 -185.5t104.5 -57.5t104.5 58t33.5 186q0 125 -33.5 182.5 t-104.5 57.5t-104.5 -57.5zM637 1041l-345 -137l-62 118l317 192z" />
<glyph unicode="&#xf4;" d="M711.5 687q99.5 -111 99.5 -299q0 -195 -98.5 -304t-276.5 -109q-177 0 -276 108.5t-99 303.5q0 124 44.5 216t129.5 143.5t201 51.5q176 0 275.5 -111zM331.5 570.5q-33.5 -57.5 -33.5 -183.5q0 -128 33.5 -185.5t104.5 -57.5t104.5 58t33.5 186q0 125 -33.5 182.5 t-104.5 57.5t-104.5 -57.5zM160 983l206 202h140l205 -202l-81 -95l-194 137l-193 -137z" />
<glyph unicode="&#xf5;" d="M711.5 687q99.5 -111 99.5 -299q0 -195 -98.5 -304t-276.5 -109q-177 0 -276 108.5t-99 303.5q0 124 44.5 216t129.5 143.5t201 51.5q176 0 275.5 -111zM331.5 570.5q-33.5 -57.5 -33.5 -183.5q0 -128 33.5 -185.5t104.5 -57.5t104.5 58t33.5 186q0 125 -33.5 182.5 t-104.5 57.5t-104.5 -57.5zM462.5 933.5q-23.5 10.5 -51.5 29.5q-36 26 -59 26q-26 0 -42 -14.5t-35 -49.5l-115 55q31 77 78 124.5t110 47.5q33 0 57 -10.5t52 -29.5q19 -13 32 -19.5t27 -6.5q23 0 39 14.5t37 48.5l115 -56q-31 -77 -79 -123.5t-110 -46.5 q-32 0 -55.5 10.5z" />
<glyph unicode="&#xf6;" d="M711.5 687q99.5 -111 99.5 -299q0 -195 -98.5 -304t-276.5 -109q-177 0 -276 108.5t-99 303.5q0 124 44.5 216t129.5 143.5t201 51.5q176 0 275.5 -111zM331.5 570.5q-33.5 -57.5 -33.5 -183.5q0 -128 33.5 -185.5t104.5 -57.5t104.5 58t33.5 186q0 125 -33.5 182.5 t-104.5 57.5t-104.5 -57.5zM183 960.5q-35 34.5 -35 83.5q0 48 35 81.5t85 33.5q51 0 85.5 -33.5t34.5 -81.5q0 -49 -35 -83.5t-85 -34.5t-85 34.5zM519.5 960.5q-35.5 34.5 -35.5 83.5q0 48 35.5 81.5t85.5 33.5q49 0 84 -33.5t35 -81.5q0 -49 -34 -83.5t-85 -34.5 q-50 0 -85.5 34.5z" />
<glyph unicode="&#xf7;" d="M529 867.5q38 -38.5 38 -93.5q0 -52 -38 -91t-93 -39t-93 38.5t-38 91.5q0 55 38 93.5t93 38.5t93 -38.5zM752 375h-631v176h631v-176zM529 245q38 -39 38 -94q0 -54 -38 -92.5t-93 -38.5t-93 38.5t-38 92.5q0 55 38 94t93 39t93 -39z" />
<glyph unicode="&#xf8;" d="M769 600q42 -91 42 -212q0 -195 -98.5 -304t-276.5 -109l-45 2l-54 -176l-168 49l58 178q-80 49 -123 140.5t-43 218.5q0 124 44.5 216t129.5 143.5t201 51.5q16 0 45 -3l57 169l166 -49l-57 -173q80 -51 122 -142zM328 574q-34 -58 -34 -187q0 -137 26 -191l139 435 q-7 1 -23 1q-74 0 -108 -58zM544.5 198q34.5 58 34.5 190q0 134 -25 183l-138 -431h20q74 0 108.5 58z" />
<glyph unicode="&#xf9;" d="M332 244q0 -54 19.5 -76.5t58.5 -22.5q35 0 71.5 22.5t59.5 62.5v542h230v-772h-201l-10 90q-38 -55 -102 -85t-135 -30q-109 0 -165 63.5t-56 176.5v557h230v-528zM237 1041l89 173l317 -193l-63 -117z" />
<glyph unicode="&#xfa;" d="M332 244q0 -54 19.5 -76.5t58.5 -22.5q35 0 71.5 22.5t59.5 62.5v542h230v-772h-201l-10 90q-38 -55 -102 -85t-135 -30q-109 0 -165 63.5t-56 176.5v557h230v-528zM637 1041l-345 -137l-62 118l317 192z" />
<glyph unicode="&#xfb;" d="M332 244q0 -54 19.5 -76.5t58.5 -22.5q35 0 71.5 22.5t59.5 62.5v542h230v-772h-201l-10 90q-38 -55 -102 -85t-135 -30q-109 0 -165 63.5t-56 176.5v557h230v-528zM160 983l206 202h140l205 -202l-81 -95l-194 137l-193 -137z" />
<glyph unicode="&#xfc;" d="M332 244q0 -54 19.5 -76.5t58.5 -22.5q35 0 71.5 22.5t59.5 62.5v542h230v-772h-201l-10 90q-38 -55 -102 -85t-135 -30q-109 0 -165 63.5t-56 176.5v557h230v-528zM183 960.5q-35 34.5 -35 83.5q0 48 35 81.5t85 33.5q51 0 85.5 -33.5t34.5 -81.5q0 -49 -35 -83.5 t-85 -34.5t-85 34.5zM519.5 960.5q-35.5 34.5 -35.5 83.5q0 48 35.5 81.5t85.5 33.5q49 0 84 -33.5t35 -81.5q0 -49 -34 -83.5t-85 -34.5q-50 0 -85.5 34.5z" />
<glyph unicode="&#xfd;" d="M574 0q-52 -156 -155 -235t-277 -89l-26 163q111 15 164 49.5t85 111.5h-80l-244 772h243l149 -625l163 625h236zM637 1041l-345 -137l-62 118l317 192z" />
<glyph unicode="&#xfe;" d="M332 695q35 49 85.5 76t111.5 27q145 0 213.5 -106.5t68.5 -303.5q0 -119 -35.5 -213t-102.5 -147t-158 -53q-112 0 -183 80v-353l-230 -25v1402l230 25v-409zM332 538v-326q25 -35 51.5 -51.5t61.5 -16.5q64 0 96.5 57.5t32.5 183.5q0 137 -29 190t-87 53 q-72 0 -126 -90z" />
<glyph unicode="&#xff;" d="M574 0q-52 -156 -155 -235t-277 -89l-26 163q111 15 164 49.5t85 111.5h-80l-244 772h243l149 -625l163 625h236zM183 960.5q-35 34.5 -35 83.5q0 48 35 81.5t85 33.5q51 0 85.5 -33.5t34.5 -81.5q0 -49 -35 -83.5t-85 -34.5t-85 34.5zM519.5 960.5 q-35.5 34.5 -35.5 83.5q0 48 35.5 81.5t85.5 33.5q49 0 84 -33.5t35 -81.5q0 -49 -34 -83.5t-85 -34.5q-50 0 -85.5 34.5z" />
<glyph unicode="&#x131;" d="M573 157h198v-157h-646v157h218v458h-211v157h441v-615z" />
<glyph unicode="&#x152;" d="M394.5 1027.5q30.5 -6.5 70.5 -19.5h402l-24 -162h-264q48 -96 56 -256h176v-160h-174q-9 -161 -66 -269h297v-161h-409q-41 -13 -69 -19t-63 -6q-163 0 -237.5 134.5t-74.5 395.5q0 529 312 529q37 0 67.5 -6.5zM261 834.5q-24 -36.5 -34 -115t-10 -214.5 q0 -199 25.5 -283.5t86.5 -84.5q63 0 88 83.5t25 284.5q0 140 -10 218t-35 113t-68 35q-44 0 -68 -36.5z" />
<glyph unicode="&#x153;" d="M824.5 699.5q56.5 -98.5 56.5 -298.5q0 -38 -4 -72h-340q9 -105 42 -154t93 -49q32 0 60 11t62 36l87 -115q-97 -83 -221 -83q-148 0 -221 117q-28 -57 -71.5 -87t-111.5 -30q-135 0 -201.5 106.5t-66.5 305.5q0 192 66.5 301.5t201.5 109.5q71 0 115.5 -31t71.5 -91 q65 122 194 122q131 0 187.5 -98.5zM563 609q-22 -45 -28 -155h173q-1 109 -17 154.5t-63 45.5q-43 0 -65 -45zM198 573.5q-19 -54.5 -19 -186.5q0 -93 8 -145.5t27 -75t51 -22.5t50 22.5t26.5 75t8.5 146.5q0 131 -19.5 185.5t-65.5 54.5q-48 0 -67 -54.5z" />
<glyph unicode="&#x237;" d="M686 224q0 -164 -61 -272.5t-181 -173t-307 -101.5l-35 176q124 28 200 68.5t115.5 109.5t39.5 178v406h-277v157h506v-548z" />
<glyph unicode="&#x2c6;" d="M160 983l206 202h140l205 -202l-81 -95l-194 137l-193 -137z" />
<glyph unicode="&#x2da;" d="M581.5 1202.5q55.5 -55.5 55.5 -135.5t-56 -136.5t-146 -56.5q-60 0 -105.5 26t-70.5 70.5t-25 96.5q0 79 55.5 135t145.5 56q91 0 146.5 -55.5zM388.5 1120q-17.5 -18 -17.5 -53q0 -36 17.5 -55t46.5 -19q31 0 48 19t17 55q0 35 -17.5 53t-47.5 18q-29 0 -46.5 -18z" />
<glyph unicode="&#x2dc;" d="M462.5 933.5q-23.5 10.5 -51.5 29.5q-36 26 -59 26q-26 0 -42 -14.5t-35 -49.5l-115 55q31 77 78 124.5t110 47.5q33 0 57 -10.5t52 -29.5q19 -13 32 -19.5t27 -6.5q23 0 39 14.5t37 48.5l115 -56q-31 -77 -79 -123.5t-110 -46.5q-32 0 -55.5 10.5z" />
<glyph unicode="&#x300;" d="M-230 1022l-62 -118l-343 137l88 173z" />
<glyph unicode="&#x301;" d="M-236 1041l-344 -137l-63 118l317 192z" />
<glyph unicode="&#x302;" d="M-160 947l-81 -95l-194 124l-193 -124l-83 95l206 189h140z" />
<glyph unicode="&#x303;" d="M-409.5 933.5q-23.5 10.5 -51.5 29.5q-36 26 -59 26q-26 0 -42 -14.5t-35 -49.5l-115 55q31 77 78 124.5t110 47.5q33 0 57 -10.5t52 -29.5q19 -13 32 -19.5t27 -6.5q23 0 39 14.5t37 48.5l115 -56q-31 -77 -79 -123.5t-110 -46.5q-32 0 -55.5 10.5z" />
<glyph unicode="&#x304;" d="M-658 903v158h445v-158h-445z" />
<glyph unicode="&#x308;" d="M-689 960.5q-35 34.5 -35 83.5q0 48 35 81.5t85 33.5q51 0 85.5 -33.5t34.5 -81.5q0 -49 -35 -83.5t-85 -34.5t-85 34.5zM-352.5 960.5q-35.5 34.5 -35.5 83.5q0 48 35.5 81.5t85.5 33.5q49 0 84 -33.5t35 -81.5q0 -49 -34 -83.5t-85 -34.5q-50 0 -85.5 34.5z" />
<glyph unicode="&#x30a;" d="M-289.5 1148.5q55.5 -55.5 55.5 -135.5t-56 -136.5t-146 -56.5q-60 0 -105.5 26t-70.5 70.5t-25 96.5q0 79 55.5 135t145.5 56q91 0 146.5 -55.5zM-482.5 1066q-17.5 -18 -17.5 -53q0 -36 17.5 -55t46.5 -19q31 0 48 19t17 55q0 35 -17.5 53t-47.5 18q-29 0 -46.5 -18z " />
<glyph unicode="&#x327;" d="M-439 -173q-32 10 -101 10l20 186h128v-93q74 -9 112 -46.5t38 -97.5q0 -74 -60 -120.5t-157 -46.5q-49 0 -93.5 12.5t-76.5 31.5l52 106q49 -25 93 -25q77 0 77 45q0 28 -32 38z" />
<glyph unicode="&#x60c;" d="M222 595q-159 -143 -176 -287q-13 -117 88 -155.5t155 63.5q-77 -8 -87 65q-13 86 75 95q15 2 31 -1q104 -13 64 -180q-20 -108 -121.5 -151.5t-194.5 17.5t-91 211q3 189 217 362q37 31 56.5 14t-16.5 -53z" />
<glyph unicode="&#x61f;" d="M227 324v253q-466 124 -373 514q84 268 370.5 268t329.5 -299l2 -33q0 -96 -96 -96t-96 96q0 68 48 88q-47 120 -194 121q-186 0 -243 -176q-69 -293 327 -372l51 -10v-354h-126zM372 45q0 -73 -72.5 -73t-72.5 73t72.5 73t72.5 -73z" />
<glyph unicode="&#x621;" d="M184 -127q33 118 105 202q-94 100 -40 199q143 259 275 168q64 -44 76 -70q7 -20 -13 -64t-49 -61q-22 -10 -45 12q-48 32 -82 29q-13 -2 -35.5 -24.5t-18 -36.5t26.5 -28.5t53.5 -19t75 13t76 30.5t53 20t30.5 -6t3 -65t-16 -81q-10 -19 -81 -46t-394 -172z" />
<glyph unicode="&#x622;" d="M515 1170l7 -1134q1 -53 -53.5 -53t-57.5 53l-45 993q-1 21 11 34l106 117q32 35 32 -10zM22.5 1155q-7.5 15 -1 31t25 45t31.5 52t22 37q73 116 166 83q212 -52 378 -25q38 6 122 33q15 4 20.5 -5.5t3.5 -29.5q-3 -56 -44.5 -94.5t-85.5 -60.5t-176 -27t-300 44 q-10 4 -27.5 -4t-27.5 -17.5t-27 -31t-29.5 -34t-27.5 -12t-22.5 15.5z" />
<glyph unicode="&#x623;" d="M515 1170l7 -1134q1 -53 -53.5 -53t-57.5 53l-45 993q-1 21 11 34l106 117q32 35 32 -10zM441 1391q-81 58 -126 3q-21 -28 16 -59t85 -21q53 23 131 66q14 6 14 -6l-5 -78q0 -10 -9 -16q-101 -51 -317 -179q-10 -6 -10 2q-5 86 59 131q-75 53 -56 123q117 263 248 132 q13 -11 14 -24q-6 -37 -18 -59t-26 -15z" />
<glyph unicode="&#x624;" d="M774 56q-88 -162 -231 -78q-35 21 -65 66q-54 84 59 277q48 74 103 92q109 36 183 -52q34 -45 48.5 -148.5t-6.5 -246t-86 -238.5q-99 -141 -232 -191q-108 -36 -267 32t-217 115q-16 18 -12.5 25t7.5 12q15 10 29.5 7.5t65.5 -16t145.5 -16.5t172.5 14t153 74t116 116 q47 78 34 156zM766 154q-11 54 -43 83.5t-72 20.5t-70 -60q3 -38 26.5 -59.5t52.5 -23.5q70 -6 106 39zM702 821q-81 58 -126 3q-21 -28 16 -59t85 -21q53 23 131 66q14 6 14 -6l-5 -78q0 -10 -9 -16q-101 -51 -317 -179q-10 -6 -10 2q-5 86 59 131q-75 53 -56 123 q117 263 248 132q13 -11 14 -24q-6 -37 -18 -59t-26 -15z" />
<glyph unicode="&#x625;" d="M515 1170l7 -1134q1 -53 -53.5 -53t-57.5 53l-45 993q-1 21 11 34l106 117q32 35 32 -10zM525 -221q-81 58 -126 3q-21 -28 16 -59t85 -21q53 23 131 66q14 6 14 -6l-5 -78q0 -10 -9 -16q-101 -51 -317 -179q-10 -6 -10 2q-5 86 59 131q-75 53 -56 123q117 263 248 132 q13 -11 14 -24q-6 -37 -18 -59t-26 -15z" />
<glyph unicode="&#x626;" d="M802 -157q-145 -152 -295 -199q-87 -27 -210 -26.5t-219 50.5t-118 190q-19 181 38 373q24 74 44.5 114t43 36.5t21 -27t-18 -59.5t-26.5 -71q-35 -106 -7 -232q7 -32 32 -67q68 -93 227 -99t294.5 56.5t193.5 122.5q-49 24 -116 49t-97 37q-98 39 -42 189q10 26 10 28 q74 191 207 298q70 56 150 52q42 -2 58 -29.5t-5 -63t-52.5 -73t-44 -38.5t-33.5 4q-53 13 -163 -81q-36 -31 -53 -76q6 -17 126 -54.5t148 -52t45.5 -49.5t1.5 -81q-40 -112 -140 -221zM382 704q-81 58 -126 3q-21 -28 16 -59t85 -21q53 23 131 66q14 6 14 -6l-5 -78 q0 -10 -9 -16q-101 -51 -317 -179q-10 -6 -10 2q-5 86 59 131q-75 53 -56 123q117 263 248 132q13 -11 14 -24q-6 -37 -18 -59t-26 -15z" />
<glyph unicode="&#x627;" d="M515 1170l7 -1134q1 -53 -53.5 -53t-57.5 53l-45 993q-1 21 11 34l106 117q32 35 32 -10z" />
<glyph unicode="&#x628;" d="M221 -107q-221 3 -385 73q-97 48 -113 157q-6 113 17 193q10 39 44 33q23 -5 18 -59.5t12 -88.5q19 -33 104 -57q187 -53 403.5 -40t374.5 80q89 40 172 122q21 21 25 22t9.5 2.5t7.5 -2.5q51 -37 5 -144t-139 -170q-106 -58 -269 -89.5t-286 -31.5zM282 -505l-139 147 q110 109 150 149q69 -75 140 -149z" />
<glyph unicode="&#x629;" d="M641 10q-81 -76 -245 -74q-101 2 -167 52q-30 25 -40 65.5t5 76.5q20 69 54 149t54 126t26 60l-31 36q13 27 31.5 60.5t32.5 59.5q17 3 52 8.5t52 7.5q159 -284 194.5 -398t22.5 -158.5t-41 -70.5zM563 177q-52 87 -147 199q-61 -98 -104 -228q99 -59 201 -2q22 11 50 31 zM515 811l-139 147q110 109 150 149q69 -75 140 -149zM227 804l-139 147q110 109 150 149q69 -75 140 -149z" />
<glyph unicode="&#x62a;" d="M221 -107q-221 3 -385 73q-97 48 -113 157q-6 113 17 193q10 39 44 33q23 -5 18 -59.5t12 -88.5q19 -33 104 -57q187 -53 403.5 -40t374.5 80q89 40 172 122q21 21 25 22t9.5 2.5t7.5 -2.5q51 -37 5 -144t-139 -170q-106 -58 -269 -89.5t-286 -31.5zM456 656l-139 147 q110 109 150 149q69 -75 140 -149zM168 649l-139 147q110 109 150 149q69 -75 140 -149z" />
<glyph unicode="&#x62b;" d="M221 -107q-221 3 -385 73q-97 48 -113 157q-6 113 17 193q10 39 44 33q23 -5 18 -59.5t12 -88.5q19 -33 104 -57q187 -53 403.5 -40t374.5 80q89 40 172 122q21 21 25 22t9.5 2.5t7.5 -2.5q51 -37 5 -144t-139 -170q-106 -58 -269 -89.5t-286 -31.5zM315 766l-139 147 q110 109 150 149q69 -75 140 -149zM456 555l-139 147q110 109 150 149q69 -75 140 -149zM168 548l-139 147q110 109 150 149q69 -75 140 -149z" />
<glyph unicode="&#x62c;" d="M808 -936q-193 -47 -383 4q-90 24 -177 86q-137 107 -173.5 264t0.5 332.5t203 336.5q32 31 68 60q-186 25 -281 11q-21 -4 -27.5 -4t-10 -0.5t-7.5 0.5t-5.5 1t-5.5 2.5t-4 3.5q-23 15 -12 53q48 96 107 126t137 16q381 -40 771 -20q-32 -111 -62 -205 q-276 -26 -437.5 -87.5t-271.5 -191.5q-159 -197 6 -426q65 -90 213 -147.5t344 -24.5q90 15 162.5 41.5t82.5 29.5t20 3t15.5 -16t-35.5 -91.5t-91.5 -104t-145.5 -52.5zM592 -475l-139 147q110 109 150 149q69 -75 140 -149z" />
<glyph unicode="&#x62d;" d="M808 -936q-193 -47 -383 4q-90 24 -177 86q-137 107 -173.5 264t0.5 332.5t203 336.5q32 31 68 60q-186 25 -281 11q-21 -4 -27.5 -4t-10 -0.5t-7.5 0.5t-5.5 1t-5.5 2.5t-4 3.5q-23 15 -12 53q48 96 107 126t137 16q381 -40 771 -20q-32 -111 -62 -205 q-276 -26 -437.5 -87.5t-271.5 -191.5q-159 -197 6 -426q65 -90 213 -147.5t344 -24.5q90 15 162.5 41.5t82.5 29.5t20 3t15.5 -16t-35.5 -91.5t-91.5 -104t-145.5 -52.5z" />
<glyph unicode="&#x62e;" d="M808 -936q-193 -47 -383 4q-90 24 -177 86q-137 107 -173.5 264t0.5 332.5t203 336.5q32 31 68 60q-186 25 -281 11q-21 -4 -27.5 -4t-10 -0.5t-7.5 0.5t-5.5 1t-5.5 2.5t-4 3.5q-23 15 -12 53q48 96 107 126t137 16q381 -40 771 -20q-32 -111 -62 -205 q-276 -26 -437.5 -87.5t-271.5 -191.5q-159 -197 6 -426q65 -90 213 -147.5t344 -24.5q90 15 162.5 41.5t82.5 29.5t20 3t15.5 -16t-35.5 -91.5t-91.5 -104t-145.5 -52.5zM488 653l-139 147q110 109 150 149q69 -75 140 -149z" />
<glyph unicode="&#x62f;" d="M764 -18q-119 -51 -312 -45q-97 3 -150 30q-37 23 -45 90.5t3.5 105.5t33.5 36.5t25 -24.5q2 -11 42.5 -24t152.5 -12t188.5 16t81.5 16q-81 184 -210 396q-14 22 -9 38q34 85 63 131t40 45q23 -2 120.5 -212t89.5 -340.5t-66 -209.5q-18 -25 -48 -37z" />
<glyph unicode="&#x630;" d="M764 -18q-119 -51 -312 -45q-97 3 -150 30q-37 23 -45 90.5t3.5 105.5t33.5 36.5t25 -24.5q2 -11 42.5 -24t152.5 -12t188.5 16t81.5 16q-81 184 -210 396q-14 22 -9 38q34 85 63 131t40 45q23 -2 120.5 -212t89.5 -340.5t-66 -209.5q-18 -25 -48 -37zM535 853l-139 147 q110 109 150 149q69 -75 140 -149z" />
<glyph unicode="&#x631;" d="M87 -326q-45 27 -26.5 50.5t46.5 24.5t71 -0.5t64 0.5q205 7 357 91q2 1 18 10t20.5 11.5t19.5 11t21 12.5t19.5 12.5t20.5 14t18 14t36 35.5t24 38.5t-5 47.5q-8 75 -109 246q-9 18 -6 32q2 14 73 125q22 33 52 -18q82 -133 70 -322q-6 -104 -42 -205.5t-86 -152.5 t-98.5 -93t-123.5 -66.5t-209.5 3.5t-224.5 78z" />
<glyph unicode="&#x632;" d="M87 -326q-45 27 -26.5 50.5t46.5 24.5t71 -0.5t64 0.5q205 7 357 91q2 1 18 10t20.5 11.5t19.5 11t21 12.5t19.5 12.5t20.5 14t18 14t36 35.5t24 38.5t-5 47.5q-8 75 -109 246q-9 18 -6 32q2 14 73 125q22 33 52 -18q82 -133 70 -322q-6 -104 -42 -205.5t-86 -152.5 t-98.5 -93t-123.5 -66.5t-209.5 3.5t-224.5 78zM727 653l-139 147q110 109 150 149q69 -75 140 -149z" />
<glyph unicode="&#x633;" d="M277 -150q-9 135 -108 323q16 31 65 149q12 28 32 0q4 -6 10 -17q44 -99 95 -151q20 -19 69 -20.5t64 3t18 9.5t5.5 12.5t8.5 21.5t21.5 69t27.5 82q10 17 33 13t34 -10t10 -20.5t-6.5 -39.5t-7.5 -36t-9.5 -46t-10.5 -50q58 -42 191 -29q-3 26 -18.5 72.5t-20 61t0 22.5 t24 31t40.5 46.5t24 26.5q20 -33 30.5 -102.5t0 -154t-40.5 -130.5q-30 -47 -116 -42t-128.5 25.5t-51.5 41.5q-40 -62 -161 -63h-38q-19 -133 -55 -203t-88 -124q-106 -110 -351 -109t-300 161q-16 47 -22 102q-7 139 45 302q18 55 31.5 81.5t33.5 31t23.5 -10.5t1 -25.5 t-9 -25t-8.5 -20.5q-44 -131 -38 -220q4 -36 41.5 -81.5t81 -66t112.5 -24.5q133 -11 248.5 31t166.5 103z" />
<glyph unicode="&#x634;" d="M277 -150q-9 135 -108 323q16 31 65 149q12 28 32 0q4 -6 10 -17q44 -99 95 -151q20 -19 69 -20.5t64 3t18 9.5t5.5 12.5t8.5 21.5t21.5 69t27.5 82q10 17 33 13t34 -10t10 -20.5t-6.5 -39.5t-7.5 -36t-9.5 -46t-10.5 -50q58 -42 191 -29q-3 26 -18.5 72.5t-20 61t0 22.5 t24 31t40.5 46.5t24 26.5q20 -33 30.5 -102.5t0 -154t-40.5 -130.5q-30 -47 -116 -42t-128.5 25.5t-51.5 41.5q-40 -62 -161 -63h-38q-19 -133 -55 -203t-88 -124q-106 -110 -351 -109t-300 161q-16 47 -22 102q-7 139 45 302q18 55 31.5 81.5t33.5 31t23.5 -10.5t1 -25.5 t-9 -25t-8.5 -20.5q-44 -131 -38 -220q4 -36 41.5 -81.5t81 -66t112.5 -24.5q133 -11 248.5 31t166.5 103zM609 766l-139 147q110 109 150 149q69 -75 140 -149zM750 555l-139 147q110 109 150 149q69 -75 140 -149zM462 548l-139 147q110 109 150 149q69 -75 140 -149z" />
<glyph unicode="&#x635;" d="M83 -453q-92 -27 -217.5 -26.5t-214 55.5t-106.5 183q-25 158 55 350q17 39 33.5 64t37 10.5t5.5 -53.5q-34 -73 -47 -145.5t24 -155.5q18 -38 62.5 -68.5t105 -44t181.5 6.5q193 37 273 121q32 50 -47 207q-40 80 -42 89.5t4 24t19.5 59t21.5 61t25 -1.5t43 -54.5 t31 -43.5q229 338 453 303q106 -16 152 -89q29 -44 18 -91.5t-42 -117.5q-63 -111 -122 -149q-128 -79 -295 -67q-42 2 -127 18q-18 -163 -60 -247q-89 -161 -224 -198zM849 243q-44 87 -145 91t-227 -123q-31 -31 -54 -62q301 -28 426 94z" />
<glyph unicode="&#x636;" d="M83 -453q-92 -27 -217.5 -26.5t-214 55.5t-106.5 183q-25 158 55 350q17 39 33.5 64t37 10.5t5.5 -53.5q-34 -73 -47 -145.5t24 -155.5q18 -38 62.5 -68.5t105 -44t181.5 6.5q193 37 273 121q32 50 -47 207q-40 80 -42 89.5t4 24t19.5 59t21.5 61t25 -1.5t43 -54.5 t31 -43.5q229 338 453 303q106 -16 152 -89q29 -44 18 -91.5t-42 -117.5q-63 -111 -122 -149q-128 -79 -295 -67q-42 2 -127 18q-18 -163 -60 -247q-89 -161 -224 -198zM849 243q-44 87 -145 91t-227 -123q-31 -31 -54 -62q301 -28 426 94zM382 653l-139 147 q110 109 150 149q69 -75 140 -149z" />
<glyph unicode="&#x637;" d="M894 170q-115 -226 -530 -248q-199 -11 -363 18q-19 3 -73 59.5t-84 99.5q-9 16 -0.5 22.5t24.5 3.5q205 -36 313 -40q14 14 12 21q-11 359 -28.5 658t-16.5 304t4 9.5t5 7t8.5 8.5t28.5 26t47.5 46t28.5 -14q33 -468 25 -747q-1 -43 -19 -210q4 4 57 56q52 52 119 111 q163 143 332 112q87 -22 124.5 -116.5t-14.5 -186.5zM815 221q-5 24 -33.5 51t-73.5 31t-94 -5.5t-85.5 -23.5t-82.5 -42t-72 -47t-72 -55t-65 -50q391 -8 578 141z" />
<glyph unicode="&#x638;" d="M894 170q-115 -226 -530 -248q-199 -11 -363 18q-19 3 -73 59.5t-84 99.5q-9 16 -0.5 22.5t24.5 3.5q205 -36 313 -40q14 14 12 21q-11 359 -28.5 658t-16.5 304t4 9.5t5 7t8.5 8.5t28.5 26t47.5 46t28.5 -14q33 -468 25 -747q-1 -43 -19 -210q4 4 57 56q52 52 119 111 q163 143 332 112q87 -22 124.5 -116.5t-14.5 -186.5zM815 221q-5 24 -33.5 51t-73.5 31t-94 -5.5t-85.5 -23.5t-82.5 -42t-72 -47t-72 -55t-65 -50q391 -8 578 141zM529 698l-139 147q110 109 150 149q69 -75 140 -149z" />
<glyph unicode="&#x639;" d="M662 -740q-186 -41 -360 21q-103 37 -185 105q-101 95 -135 201t-40 193t20 206q38 166 189 343q1 2 -12 13q-182 147 -138 327q23 96 76 138q109 86 218 62q62 -12 99.5 -44t50.5 -50.5t-4 -22.5t-84 -2q-146 4 -248 -127q-7 -9 -12 -19q41 -62 118 -100 q47 -19 115 -1.5t164.5 60.5t119 51t33.5 9.5t15 -10.5q3 -15 -5.5 -48t-21.5 -94t-36 -73q-10 -5 -50 -22q-245 -106 -360 -224q-162 -162 -129 -359q10 -61 47.5 -121t133.5 -130q192 -140 561 -65q1 0 156 36q32 7 28.5 -13t-19 -38.5t-32.5 -37.5t-50 -55t-77 -60.5 t-146 -48.5z" />
<glyph unicode="&#x63a;" d="M662 -740q-186 -41 -360 21q-103 37 -185 105q-101 95 -135 201t-40 193t20 206q38 166 189 343q1 2 -12 13q-182 147 -138 327q23 96 76 138q109 86 218 62q62 -12 99.5 -44t50.5 -50.5t-4 -22.5t-84 -2q-146 4 -248 -127q-7 -9 -12 -19q41 -62 118 -100 q47 -19 115 -1.5t164.5 60.5t119 51t33.5 9.5t15 -10.5q3 -15 -5.5 -48t-21.5 -94t-36 -73q-10 -5 -50 -22q-245 -106 -360 -224q-162 -162 -129 -359q10 -61 47.5 -121t133.5 -130q192 -140 561 -65q1 0 156 36q32 7 28.5 -13t-19 -38.5t-32.5 -37.5t-50 -55t-77 -60.5 t-146 -48.5zM76 1208l-139 147q110 109 150 149q69 -75 140 -149z" />
<glyph unicode="&#x641;" d="M192 -100q-224 0 -342 64q-59 40 -78.5 71t-28 46t-32 71t-8 142.5t26.5 118.5t27 39t27.5 -8t10.5 -30t-3 -39q-12 -164 83 -226q39 -25 75 -35q212 -65 466 -18q157 34 241 61.5t174 72.5q11 11 3 58q-26 -17 -72 -23q-89 -11 -149 33q-83 74 -23 231q32 83 77 112 q90 56 168 -1q51 -36 80.5 -110t32.5 -168t-17.5 -170t-52.5 -104.5t-73 -47.5q-272 -141 -613 -140zM677 448q17 -15 57.5 -15.5t62.5 11.5q-30 54 -61 57.5t-53 -31.5q-8 -17 -6 -22zM701 753l-139 147q110 109 150 149q69 -75 140 -149z" />
<glyph unicode="&#x642;" d="M158 -376q-109 48 -154.5 167t-16 242t46 155t34 35.5t24 -11t-3.5 -42.5q-77 -208 58 -328q63 -56 131 -62q131 -17 290 30q57 18 131 66.5t120 102.5q12 19 -1 57q-174 -87 -265 -10q-33 28 -48 77t6 152.5t73 162.5q29 31 71 43q92 27 150 -54t81.5 -217.5t3.5 -262.5 q-51 -153 -194.5 -243t-295.5 -96t-241 36zM791 193q-11 32 -47.5 74t-68 38.5t-61 -50t-27.5 -73.5q4 -19 39.5 -29t84.5 -0.5t80 40.5zM815 656l-139 147q110 109 150 149q69 -75 140 -149zM527 649l-139 147q110 109 150 149q69 -75 140 -149z" />
<glyph unicode="&#x643;" d="M796 168l-75 856q0 4 0.5 13t0.5 17t5 20.5t83 109.5q16 22 32 17t17 -45t2 -94.5t4 -136.5t17 -378.5t15 -365.5q-4 -107 -53 -171q-20 -25 -59 -34q-187 -62 -439 -61t-351 36q-237 85 -187 305q17 78 51 142q12 22 29 26t23 -10t-3 -38q-33 -76 -18 -134 q35 -100 261 -132q266 -22 405.5 -0.5t239.5 58.5zM339 441q-82 6 -117 28q-3 14 27 26.5t47 17.5t47.5 13t117.5 40q-11 2 -87 16.5t-119 30.5q-35 16 -38 45.5t23.5 80.5t109.5 136.5t109 71.5q14 -8 10 -44q-22 -111 -24.5 -116.5t-14.5 -13.5q-31 -14 -66 -35 q7 -1 73.5 -13t97.5 -25t42 -36q27 -56 -57 -139.5t-181 -83.5z" />
<glyph unicode="&#x644;" d="M329 -474q-156 0 -278 109q-69 67 -80 199q-8 163 63 391q12 37 35.5 24t21 -36t-9.5 -54q-38 -155 -19 -253q11 -46 63 -84q103 -78 263 -58q118 15 191 48q152 67 222 135q2 1 1.5 8.5t-1.5 84t-22 452t-22 540.5q2 24 16.5 39.5t22 24t31.5 36t42.5 46.5t28 15 t8.5 -24q7 -668 7 -1175q-6 -131 -25 -182q-19 -50 -56 -84t-97 -72q-207 -131 -406 -130z" />
<glyph unicode="&#x645;" d="M550 -819q-3 9 -15 74.5t-56 220.5t-74 289q-52 231 43 336q28 167 101 261q51 66 142 50q49 -9 118.5 -69t109.5 -123q9 -21 2.5 -51.5t-13.5 -73t-20 -72.5q-15 -23 -72 -22t-145.5 -18t-133 -39.5t-46.5 -25t5.5 -69t51.5 -277t54 -359.5q-3 -54 -23 -56.5t-29 24.5z M549 140q60 31 177 48q-14 34 -48 56t-70 13q-32 -10 -59 -117z" />
<glyph unicode="&#x646;" d="M286 -394.5q-105 1.5 -196 55.5q-88 66 -100 189q-11 220 76 372q22 34 43 25q33 -15 6 -59q-49 -102 -41 -198q9 -96 119 -148q71 -34 190.5 -30.5t232 44t190.5 103.5q6 2 3 7q-21 115 -83 239q-17 20 9 60t52 82t34.5 47.5t18.5 -4.5t27 -63q35 -105 27 -317 q-3 -74 -21 -129q-46 -129 -154.5 -190t-218 -74t-214.5 -11.5zM467 542l-139 147q110 109 150 149q69 -75 140 -149z" />
<glyph unicode="&#x647;" d="M641 10q-81 -76 -245 -74q-101 2 -167 52q-30 25 -40 65.5t5 76.5q20 69 54 149t54 126t26 60l-31 36q13 27 31.5 60.5t32.5 59.5q17 3 52 8.5t52 7.5q159 -284 194.5 -398t22.5 -158.5t-41 -70.5zM563 177q-52 87 -147 199q-61 -98 -104 -228q99 -59 201 -2q22 11 50 31 z" />
<glyph unicode="&#x648;" d="M774 56q-88 -162 -231 -78q-35 21 -65 66q-54 84 59 277q48 74 103 92q109 36 183 -52q34 -45 48.5 -148.5t-6.5 -246t-86 -238.5q-99 -141 -232 -191q-108 -36 -267 32t-217 115q-16 18 -12.5 25t7.5 12q15 10 29.5 7.5t65.5 -16t145.5 -16.5t172.5 14t153 74t116 116 q47 78 34 156zM766 154q-11 54 -43 83.5t-72 20.5t-70 -60q3 -38 26.5 -59.5t52.5 -23.5q70 -6 106 39z" />
<glyph unicode="&#x649;" d="M802 -157q-145 -152 -295 -199q-87 -27 -210 -26.5t-219 50.5t-118 190q-19 181 38 373q24 74 44.5 114t43 36.5t21 -27t-18 -59.5t-26.5 -71q-35 -106 -7 -232q7 -32 32 -67q68 -93 227 -99t294.5 56.5t193.5 122.5q-49 24 -116 49t-97 37q-98 39 -42 189q10 26 10 28 q74 191 207 298q70 56 150 52q42 -2 58 -29.5t-5 -63t-52.5 -73t-44 -38.5t-33.5 4q-53 13 -163 -81q-36 -31 -53 -76q6 -17 126 -54.5t148 -52t45.5 -49.5t1.5 -81q-40 -112 -140 -221z" />
<glyph unicode="&#x64a;" d="M802 -157q-145 -152 -295 -199q-87 -27 -210 -26.5t-219 50.5t-118 190q-19 181 38 373q24 74 44.5 114t43 36.5t21 -27t-18 -59.5t-26.5 -71q-35 -106 -7 -232q7 -32 32 -67q68 -93 227 -99t294.5 56.5t193.5 122.5q-49 24 -116 49t-97 37q-98 39 -42 189q10 26 10 28 q74 191 207 298q70 56 150 52q42 -2 58 -29.5t-5 -63t-52.5 -73t-44 -38.5t-33.5 4q-53 13 -163 -81q-36 -31 -53 -76q6 -17 126 -54.5t148 -52t45.5 -49.5t1.5 -81q-40 -112 -140 -221zM482 -656l-139 147q110 109 150 149q69 -75 140 -149zM194 -663l-139 147 q110 109 150 149q69 -75 140 -149z" />
<glyph unicode="&#x64b;" d="M681 2085q38 26 60 19t8 -53l-21 -64q-13 -37 -40 -54l-358 -220q-23 -13 -44 -9t-15 43l6 39q7 35 41 58zM673 2290q33 21 55 15t12 -49l-15 -52q-12 -40 -50 -62l-362 -211q-40 -23 -62 -14q-21 9 -3 53l18 39q14 33 38 48z" />
<glyph unicode="&#x64c;" d="M540 1978q-65 50 -75.5 83.5t8.5 90.5t56.5 95t79 33t56.5 -53q25 -83 0 -176q27 -16 45.5 -28.5t15.5 -31.5l-14 -67q-13 -51 -73 -15q-22 14 -35 24q-93 -158 -276 -211q-61 -18 -71 26q-6 41 54 60q156 47 229 170zM588 2097q-1 23 -12 35.5t-37 -0.5q19 -18 49 -35z M433 2088q26 5 27 -26q0 -10 -3 -19l-17 -53q-15 -47 -65 -33q-42 15 -62.5 70t-2.5 132.5t102 168.5q194 213 286 169q36 -19 39 -65q4 -63 -28 -97q-35 -37 -77 2.5t-110 -9.5t-101 -100t-35 -81.5t14 -45.5t33 -13z" />
<glyph unicode="&#x64d;" d="M681 -932q38 26 60 19t8 -53l-21 -64q-13 -37 -40 -54l-358 -220q-23 -13 -44 -9t-15 43l6 39q7 35 41 58zM673 -727q33 21 55 15t12 -49l-15 -52q-12 -40 -50 -62l-362 -211q-40 -23 -62 -14q-21 9 -3 53l18 39q14 33 38 48z" />
<glyph unicode="&#x64e;" d="M716 2105q29 17 50 10.5t9 -48.5l-20 -67q-10 -31 -50 -57l-400 -230q-16 -8 -27 -9q-29 4 -31 41l1 35q3 31 42 59z" />
<glyph unicode="&#x64f;" d="M634 2363q45 5 74 -40q52 -82 4 -215q24 -13 36 -19q42 -17 19 -62l-23 -44q-17 -33 -42 -23.5t-53 24.5q-141 -182 -318 -271q-53 -26 -75 13q-22 41 36 73q173 101 277 229q-142 79 -104 169q63 149 169 166zM623 2151q0 36 -13 48t-26 20q-15 9 -30 -17q8 -20 69 -51z " />
<glyph unicode="&#x650;" d="M716 -725q29 17 50 10.5t9 -48.5l-20 -67q-10 -31 -50 -57l-400 -230q-16 -8 -27 -9q-29 4 -31 41l1 35q3 31 42 59z" />
<glyph unicode="&#x651;" d="M600 2015q8 56 44 54q37 -2 40 -45q0 -6 -1 -11q-7 -112 -42 -188q-43 -93 -124 -100q-48 -3 -90 40q-30 -43 -72 -66q-57 -29 -112 -8q-130 54 -34 305q18 45 56 33q3 -1 5 -1q32 -15 20 -61q-6 -23 -9 -41q-8 -65 29 -72q52 -7 89 96q10 27 19 60q11 43 44 39q2 0 3 -1 q33 -8 31 -37q0 -4 -1 -8v1q-3 -19 -3 -34q-1 -52 33 -57q4 0 8 -1q49 -1 63 79q3 11 4 24z" />
<glyph unicode="&#x652;" d="M457 1861q59 16 -2 78q-44 44 -108 45q-78 2 -81 -66q-1 -44 34 -56q71 -25 157 -1zM228 2022q12 22 24 38q78 103 191 28q8 -5 15 -11q88 -68 94 -164q6 -118 -72 -174q-58 -39 -141 -33q-13 1 -25 2q-137 22 -123 184q1 16 4 33q9 54 33 97z" />
<glyph unicode="&#x653;" d="M50.5 -38q-7.5 15 -1 31t25 45t31.5 52t22 37q73 116 166 83q212 -52 378 -25q38 6 122 33q15 4 20.5 -5.5t3.5 -29.5q-3 -56 -44.5 -94.5t-85.5 -60.5t-176 -27t-300 44q-10 4 -27.5 -4t-27.5 -17.5t-27 -31t-29.5 -34t-27.5 -12t-22.5 15.5z" />
<glyph unicode="&#x654;" d="M487 221q-81 58 -126 3q-21 -28 16 -59t85 -21q53 23 131 66q14 6 14 -6l-5 -78q0 -10 -9 -16q-101 -51 -317 -179q-10 -6 -10 2q-5 86 59 131q-75 53 -56 123q117 263 248 132q13 -11 14 -24q-6 -37 -18 -59t-26 -15z" />
<glyph unicode="&#x655;" d="M487 221q-81 58 -126 3q-21 -28 16 -59t85 -21q53 23 131 66q14 6 14 -6l-5 -78q0 -10 -9 -16q-101 -51 -317 -179q-10 -6 -10 2q-5 86 59 131q-75 53 -56 123q117 263 248 132q13 -11 14 -24q-6 -37 -18 -59t-26 -15z" />
<glyph unicode="&#x656;" d="M407 -747q21 55 63 4q199 -222 137 -561q-7 -30 -27 -32q-40 -6 -44 32q-27 209 -156 367q-21 27 -12 59z" />
<glyph unicode="&#x657;" d="M392 1702q-45 -5 -74 40q-52 82 -4 215q-24 13 -36 19q-42 17 -19 62l23 44q17 33 42 23.5t53 -24.5q141 182 318 271q53 26 75 -13q22 -41 -36 -73q-173 -101 -277 -229q142 -79 104 -169q-63 -149 -169 -166zM403 1914q0 -36 13 -48t26 -20q15 -9 30 17q-8 20 -69 51z " />
<glyph unicode="&#x658;" d="M289 2075q20 29 42 28q29 -3 23 -44q-19 -151 90 -165q31 -2 56 34q28 41 52 30q22 -12 9 -56q-59 -188 -186 -190q-142 -1 -154 139q-7 110 68 224z" />
<glyph unicode="&#x660;" d="M427 276l-197 206q107 105 214 211l198 -210z" />
<glyph unicode="&#x661;" d="M490 5q-50 368 -195 739q-6 21 41 143t54 124.5t14.5 -11.5t22.5 -49q122 -301 141 -672q7 -165 -25 -287q-13 -35 -30.5 -29t-22.5 42z" />
<glyph unicode="&#x662;" d="M498 -17q-3 10 -14 59t-19 74q-67 280 -279 640q-12 20 -12.5 23t-2 8.5t-0.5 8.5t1 11l30 178q8 37 26 25q8 -6 25 -23q69 -75 145 -99t148 8q71 31 92 77q13 26 26 28q30 4 22.5 -96t-69.5 -159t-180 -64q131 -288 138 -518q2 -216 -47 -218q-20 -1 -30 37z" />
<glyph unicode="&#x663;" d="M453 -47q-24 0 -30.5 22.5t-13.5 61.5q-7 40 -13 60q-70 336 -295 681q-7 19 -2 45.5t14.5 84t15.5 84.5l31 -3q122 -132 188 -136q66 -5 109 51q4 7 16 34q30 72 73 30q11 -12 6 -37l-7 -35t-3.5 -23t21.5 -26.5t56 -13t56 16.5t30 71q15 52 42 52t34 -34q4 -18 0 -42 q-27 -221 -143 -231q-95 -14 -158 42q-1 2 -3 -1q-19 -25 -80 -46q125 -269 102 -593q-12 -116 -46 -115z" />
<glyph unicode="&#x664;" d="M467 -41q-178 0 -314 125q-35 32 -30 68q14 108 167 302q-24 16 -67 42.5t-75 49.5q-24 21 -25.5 43.5t15.5 62.5q74 168 223 268q75 51 119.5 63.5t51.5 -1.5t-7 -54.5t-19.5 -58t-10.5 -32.5t-9.5 -25t-65.5 -31.5t-148 -85.5q30 -21 110.5 -68.5t89.5 -66.5 q19 -42 -5.5 -78.5t-81.5 -111t-85 -119.5q53 -45 160 -66q62 -15 144 -11.5t140 30.5l21 -51q-38 -86 -82 -123q-83 -73 -216 -71z" />
<glyph unicode="&#x665;" d="M734 271q-18 -135 -93.5 -220t-207.5 -82t-199 70q-86 88 -98 229q-11 105 10 299q48 343 239 426q82 36 151 -13q169 -106 196 -422q14 -167 2 -287zM610 272q38 47 36 94q-3 88 -10.5 146t-32.5 115q-52 94 -142 104q-147 15 -207 -146q-24 -65 -24 -235q1 -51 52 -94 q55 -63 164 -61q47 1 92.5 20.5t71.5 56.5z" />
<glyph unicode="&#x666;" d="M614 -33q-89 112 -124 329q-33 239 1 517q-10 0 -110 -5q-99 -5 -161 10q-85 21 -101 94q-20 105 20 112q17 3 54 -8t93.5 -14.5t154.5 -1.5t119.5 1.5t24.5 -1t5.5 -1t3.5 -2.5t2 -4.5t1.5 -5.5t0.5 -7.5v-9.5v-11.5v-14.5q-2 -310 62 -585q27 -108 79 -188 q10 -18 5 -33l-10 -30l-9 -27t-17.5 -58.5t-25.5 -75t-37 -10.5q-7 5 -31 30z" />
<glyph unicode="&#x667;" d="M692 1005q10 13 17 -2l53 -153q5 -14 -3 -22q-210 -273 -312 -822q-5 -27 -24 -27t-24 27q-127 584 -286 805q-7 8 -4 22l35 158q4 19 19 3q140 -162 260 -652q93 428 269 663z" />
<glyph unicode="&#x668;" d="M98 128q-7 24 -5.5 35t13.5 31q230 341 322 760q8 40 23 51.5t28 -4t17 -47.5q8 -30 28 -108q20 -79 58 -217.5t89.5 -256t77 -156.5t26.5 -42.5t1 -7.5v-7.5t-0.5 -9t-1.5 -9t-2 -10t-2 -10t-2.5 -10.5t-3.5 -15t-12.5 -54t-22 -80t-46.5 0q-116 129 -174 425 q-37 187 -53 242q-9 -32 -33.5 -133t-58 -225t-83.5 -205q-100 -163 -125 -109q-5 10 -10.5 27t-23 69t-24.5 76z" />
<glyph unicode="&#x669;" d="M604 -55.5q-13 5.5 -39 49.5t-46.5 102.5t-30.5 113.5t-15 114.5t-4.5 116.5t0.5 119q-46 -86 -150 -75q-165 18 -150 267q14 148 113 244q72 69 167 36q43 -15 71 -49q67 -77 63 -194q0 -21 -1.5 -99t2.5 -131q13 -224 101 -395q21 -41 20.5 -51t-75.5 -154 q-13 -20 -26 -14.5zM481 717q1 83 -50.5 116.5t-108 11.5t-70.5 -91q2 -36 26 -58t56.5 -26.5t65 -0.5t56 17.5t25.5 30.5z" />
<glyph unicode="&#x66a;" d="M273 913q97 0 97 -97t-97 -97t-97 97t97 97zM575.5 199q96.5 0 96.5 -97t-96.5 -97t-96.5 97t96.5 97zM799 981l-618 -1036l-108 64l618 1036z" />
<glyph unicode="&#x66e;" d="M221 -107q-221 3 -385 73q-97 48 -113 157q-6 113 17 193q10 39 44 33q23 -5 18 -59.5t12 -88.5q19 -33 104 -57q187 -53 403.5 -40t374.5 80q89 40 172 122q21 21 25 22t9.5 2.5t7.5 -2.5q51 -37 5 -144t-139 -170q-106 -58 -269 -89.5t-286 -31.5z" />
<glyph unicode="&#x66f;" d="M158 -376q-109 48 -154.5 167t-16 242t46 155t34 35.5t24 -11t-3.5 -42.5q-77 -208 58 -328q63 -56 131 -62q131 -17 290 30q57 18 131 66.5t120 102.5q12 19 -1 57q-174 -87 -265 -10q-33 28 -48 77t6 152.5t73 162.5q29 31 71 43q92 27 150 -54t81.5 -217.5t3.5 -262.5 q-51 -153 -194.5 -243t-295.5 -96t-241 36zM791 193q-11 32 -47.5 74t-68 38.5t-61 -50t-27.5 -73.5q4 -19 39.5 -29t84.5 -0.5t80 40.5z" />
<glyph unicode="&#x670;" d="M227 2383q21 55 63 4q199 -222 137 -561q-7 -30 -27 -32q-40 -6 -44 32q-27 209 -156 367q-21 27 -12 59z" />
<glyph unicode="&#x671;" d="M515 1170l7 -1134q1 -53 -53.5 -53t-57.5 53l-45 993q-1 21 11 34l106 117q32 35 32 -10zM607 1431q48 -66 -59 -177q-55 -58 -130 -61.5t-115 27.5q-15 11 -37 34q-4 -4 -36 -37t-32.5 -16t10.5 37q71 125 87 123q6 -5 10.5 -15.5t6.5 -13.5t7 -12q72 95 121 126.5 t98 20t69 -35.5zM349 1293q-8 -5 6.5 -11t67.5 -5.5t96 21t49 33.5q2 10 -15 31.5t-58.5 22.5t-71 -19t-74.5 -73z" />
<glyph unicode="&#x679;" d="M221 -107q-221 3 -385 73q-97 48 -113 157q-6 113 17 193q10 39 44 33q23 -5 18 -59.5t12 -88.5q19 -33 104 -57q187 -53 403.5 -40t374.5 80q89 40 172 122q21 21 25 22t9.5 2.5t7.5 -2.5q51 -37 5 -144t-139 -170q-106 -58 -269 -89.5t-286 -31.5zM219 762l-7 278 q19 11 39 24t39 25q10 -168 0 -263q111 124 163 126.5t69.5 -23.5t20.5 -56t-25 -89q-48 -92 -133 -109q-42 -10 -108.5 -9t-115.5 13q-8 2 -38 51t-17 49q1 0 35 -6.5t78 -10.5zM258 761q103 -5 187 29q31 12 46 27q0 39 -62 38q-31 -1 -86 -30.5t-85 -63.5z" />
<glyph unicode="&#x67e;" d="M221 -107q-221 3 -385 73q-97 48 -113 157q-6 113 17 193q10 39 44 33q23 -5 18 -59.5t12 -88.5q19 -33 104 -57q187 -53 403.5 -40t374.5 80q89 40 172 122q21 21 25 22t9.5 2.5t7.5 -2.5q51 -37 5 -144t-139 -170q-106 -58 -269 -89.5t-286 -31.5zM283 -691l-139 147 q110 109 150 149q69 -75 140 -149zM426 -472l-139 147q110 109 150 149q69 -75 140 -149zM138 -479l-139 147q110 109 150 149q69 -75 140 -149z" />
<glyph unicode="&#x686;" d="M808 -936q-193 -47 -383 4q-90 24 -177 86q-137 107 -173.5 264t0.5 332.5t203 336.5q32 31 68 60q-186 25 -281 11q-21 -4 -27.5 -4t-10 -0.5t-7.5 0.5t-5.5 1t-5.5 2.5t-4 3.5q-23 15 -12 53q48 96 107 126t137 16q381 -40 771 -20q-32 -111 -62 -205 q-276 -26 -437.5 -87.5t-271.5 -191.5q-159 -197 6 -426q65 -90 213 -147.5t344 -24.5q90 15 162.5 41.5t82.5 29.5t20 3t15.5 -16t-35.5 -91.5t-91.5 -104t-145.5 -52.5zM593 -661l-139 147q110 109 150 149q69 -75 140 -149zM736 -442l-139 147q110 109 150 149 q69 -75 140 -149zM448 -449l-139 147q110 109 150 149q69 -75 140 -149z" />
<glyph unicode="&#x688;" d="M764 -18q-119 -51 -312 -45q-97 3 -150 30q-37 23 -45 90.5t3.5 105.5t33.5 36.5t25 -24.5q2 -11 42.5 -24t152.5 -12t188.5 16t81.5 16q-81 184 -210 396q-14 22 -9 38q34 85 63 131t40 45q23 -2 120.5 -212t89.5 -340.5t-66 -209.5q-18 -25 -48 -37zM442 962l-7 278 q19 11 39 24t39 25q10 -168 0 -263q111 124 163 126.5t69.5 -23.5t20.5 -56t-25 -89q-48 -92 -133 -109q-42 -10 -108.5 -9t-115.5 13q-8 2 -38 51t-17 49q1 0 35 -6.5t78 -10.5zM481 961q103 -5 187 29q31 12 46 27q0 39 -62 38q-31 -1 -86 -30.5t-85 -63.5z" />
<glyph unicode="&#x68e;" d="M764 -18q-119 -51 -312 -45q-97 3 -150 30q-37 23 -45 90.5t3.5 105.5t33.5 36.5t25 -24.5q2 -11 42.5 -24t152.5 -12t188.5 16t81.5 16q-81 184 -210 396q-14 22 -9 38q34 85 63 131t40 45q23 -2 120.5 -212t89.5 -340.5t-66 -209.5q-18 -25 -48 -37zM538 966l-139 147 q110 109 150 149q69 -75 140 -149zM679 755l-139 147q110 109 150 149q69 -75 140 -149zM391 748l-139 147q110 109 150 149q69 -75 140 -149z" />
<glyph unicode="&#x691;" d="M87 -326q-45 27 -26.5 50.5t46.5 24.5t71 -0.5t64 0.5q205 7 357 91q2 1 18 10t20.5 11.5t19.5 11t21 12.5t19.5 12.5t20.5 14t18 14t36 35.5t24 38.5t-5 47.5q-8 75 -109 246q-9 18 -6 32q2 14 73 125q22 33 52 -18q82 -133 70 -322q-6 -104 -42 -205.5t-86 -152.5 t-98.5 -93t-123.5 -66.5t-209.5 3.5t-224.5 78zM634 762l-7 278q19 11 39 24t39 25q10 -168 0 -263q111 124 163 126.5t69.5 -23.5t20.5 -56t-25 -89q-48 -92 -133 -109q-42 -10 -108.5 -9t-115.5 13q-8 2 -38 51t-17 49q1 0 35 -6.5t78 -10.5zM673 761q103 -5 187 29 q31 12 46 27q0 39 -62 38q-31 -1 -86 -30.5t-85 -63.5z" />
<glyph unicode="&#x698;" d="M87 -326q-45 27 -26.5 50.5t46.5 24.5t71 -0.5t64 0.5q205 7 357 91q2 1 18 10t20.5 11.5t19.5 11t21 12.5t19.5 12.5t20.5 14t18 14t36 35.5t24 38.5t-5 47.5q-8 75 -109 246q-9 18 -6 32q2 14 73 125q22 33 52 -18q82 -133 70 -322q-6 -104 -42 -205.5t-86 -152.5 t-98.5 -93t-123.5 -66.5t-209.5 3.5t-224.5 78zM730 766l-139 147q110 109 150 149q69 -75 140 -149zM871 555l-139 147q110 109 150 149q69 -75 140 -149zM583 548l-139 147q110 109 150 149q69 -75 140 -149z" />
<glyph unicode="&#x6a1;" d="M192 -100q-224 0 -342 64q-59 40 -78.5 71t-28 46t-32 71t-8 142.5t26.5 118.5t27 39t27.5 -8t10.5 -30t-3 -39q-12 -164 83 -226q39 -25 75 -35q212 -65 466 -18q157 34 241 61.5t174 72.5q11 11 3 58q-26 -17 -72 -23q-89 -11 -149 33q-83 74 -23 231q32 83 77 112 q90 56 168 -1q51 -36 80.5 -110t32.5 -168t-17.5 -170t-52.5 -104.5t-73 -47.5q-272 -141 -613 -140zM677 448q17 -15 57.5 -15.5t62.5 11.5q-30 54 -61 57.5t-53 -31.5q-8 -17 -6 -22z" />
<glyph unicode="&#x6a4;" d="M192 -100q-224 0 -342 64q-59 40 -78.5 71t-28 46t-32 71t-8 142.5t26.5 118.5t27 39t27.5 -8t10.5 -30t-3 -39q-12 -164 83 -226q39 -25 75 -35q212 -65 466 -18q157 34 241 61.5t174 72.5q11 11 3 58q-26 -17 -72 -23q-89 -11 -149 33q-83 74 -23 231q32 83 77 112 q90 56 168 -1q51 -36 80.5 -110t32.5 -168t-17.5 -170t-52.5 -104.5t-73 -47.5q-272 -141 -613 -140zM677 448q17 -15 57.5 -15.5t62.5 11.5q-30 54 -61 57.5t-53 -31.5q-8 -17 -6 -22zM704 866l-139 147q110 109 150 149q69 -75 140 -149zM845 655l-139 147 q110 109 150 149q69 -75 140 -149zM557 648l-139 147q110 109 150 149q69 -75 140 -149z" />
<glyph unicode="&#x6a9;" d="M79 -27q-190 67 -162 298q4 57 18 77t19.5 22t24 -9t19.5 -21t0 -23q-4 -68 22 -92q45 -47 134 -65.5t222 -21.5q226 5 442 62q-102 257 -469 567q-20 38 -4.5 130t45.5 117q93 77 620 369q124 69 139 71t19 -9.5t3.5 -33.5t1 -65t-9.5 -58t-26 -22q-481 -260 -661 -383 q396 -303 433 -633l-13 -124q-5 -49 -67 -98q-116 -92 -455 -92q-193 1 -295 37z" />
<glyph unicode="&#x6af;" d="M79 -27q-190 67 -162 298q4 57 18 77t19.5 22t24 -9t19.5 -21t0 -23q-4 -68 22 -92q45 -47 134 -65.5t222 -21.5q226 5 442 62q-102 257 -469 567q-20 38 -4.5 130t45.5 117q93 77 620 369q124 69 139 71t19 -9.5t3.5 -33.5t1 -65t-9.5 -58t-26 -22q-481 -260 -661 -383 q396 -303 433 -633l-13 -124q-5 -49 -67 -98q-116 -92 -455 -92q-193 1 -295 37zM441 1117.5q-1 4.5 -3.5 30t-2 32t10.5 13.5q282 182 688 396q7 1 11.5 3t7 -6t3 -21.5t0.5 -29.5q1 -17 -6 -22q-96 -57 -335 -193t-300 -172t-67 -35.5t-7 5z" />
<glyph unicode="&#x6ba;" d="M286 -394.5q-105 1.5 -196 55.5q-88 66 -100 189q-11 220 76 372q22 34 43 25q33 -15 6 -59q-49 -102 -41 -198q9 -96 119 -148q71 -34 190.5 -30.5t232 44t190.5 103.5q6 2 3 7q-21 115 -83 239q-17 20 9 60t52 82t34.5 47.5t18.5 -4.5t27 -63q35 -105 27 -317 q-3 -74 -21 -129q-46 -129 -154.5 -190t-218 -74t-214.5 -11.5z" />
<glyph unicode="&#x6bb;" d="M286 -394.5q-105 1.5 -196 55.5q-88 66 -100 189q-11 220 76 372q22 34 43 25q33 -15 6 -59q-49 -102 -41 -198q9 -96 119 -148q71 -34 190.5 -30.5t232 44t190.5 103.5q6 2 3 7q-21 115 -83 239q-17 20 9 60t52 82t34.5 47.5t18.5 -4.5t27 -63q35 -105 27 -317 q-3 -74 -21 -129q-46 -129 -154.5 -190t-218 -74t-214.5 -11.5zM374 651l-7 278q19 11 39 24t39 25q10 -168 0 -263q111 124 163 126.5t69.5 -23.5t20.5 -56t-25 -89q-48 -92 -133 -109q-42 -10 -108.5 -9t-115.5 13q-8 2 -38 51t-17 49q1 0 35 -6.5t78 -10.5zM413 650 q103 -5 187 29q31 12 46 27q0 39 -62 38q-31 -1 -86 -30.5t-85 -63.5z" />
<glyph unicode="&#x6be;" d="M379 -5q-131 -72 -212 -16q-37 25 -50 49q-25 46 19 61q58 17 113 38q-101 104 -42 237q43 97 145 184q10 85 42 119q30 31 70 38q52 9 137 -59q206 -163 273 -279q80 -139 40 -305q-29 -100 -103 -119q-89 -23 -213 13q-102 29 -179 63q-19 -13 -40 -24zM559 164 q76 -30 158 -51q56 -14 93 -9q-22 84 -73.5 147.5t-111.5 121.5q-12 -120 -66 -209zM435 219q52 32 99 69q-6 43 -33.5 87t-42.5 60q-105 -41 -155 -111q-2 -25 42 -53t90 -52z" />
<glyph unicode="&#x6c0;" d="M641 10q-81 -76 -245 -74q-101 2 -167 52q-30 25 -40 65.5t5 76.5q20 69 54 149t54 126t26 60l-31 36q13 27 31.5 60.5t32.5 59.5q17 3 52 8.5t52 7.5q159 -284 194.5 -398t22.5 -158.5t-41 -70.5zM563 177q-52 87 -147 199q-61 -98 -104 -228q99 -59 201 -2q22 11 50 31 zM409 1076q-81 58 -126 3q-21 -28 16 -59t85 -21q53 23 131 66q14 6 14 -6l-5 -78q0 -10 -9 -16q-101 -51 -317 -179q-10 -6 -10 2q-5 86 59 131q-75 53 -56 123q117 263 248 132q13 -11 14 -24q-6 -37 -18 -59t-26 -15z" />
<glyph unicode="&#x6c1;" d="M641 10q-81 -76 -245 -74q-101 2 -167 52q-30 25 -40 65.5t5 76.5q20 69 54 149t54 126t26 60l-31 36q13 27 31.5 60.5t32.5 59.5q17 3 52 8.5t52 7.5q159 -284 194.5 -398t22.5 -158.5t-41 -70.5zM563 177q-52 87 -147 199q-61 -98 -104 -228q99 -59 201 -2q22 11 50 31 z" />
<glyph unicode="&#x6cc;" d="M802 -157q-145 -152 -295 -199q-87 -27 -210 -26.5t-219 50.5t-118 190q-19 181 38 373q24 74 44.5 114t43 36.5t21 -27t-18 -59.5t-26.5 -71q-35 -106 -7 -232q7 -32 32 -67q68 -93 227 -99t294.5 56.5t193.5 122.5q-49 24 -116 49t-97 37q-98 39 -42 189q10 26 10 28 q74 191 207 298q70 56 150 52q42 -2 58 -29.5t-5 -63t-52.5 -73t-44 -38.5t-33.5 4q-53 13 -163 -81q-36 -31 -53 -76q6 -17 126 -54.5t148 -52t45.5 -49.5t1.5 -81q-40 -112 -140 -221z" />
<glyph unicode="&#x6d2;" d="M673 404q-15 -49 -40 -48q-32 1 -35 50q-15 226 -95 65q-83 -154 -124 -188.5t-71 -48.5q-31 -15 -63 -28t-43 -18t-61.5 -23.5t-71.5 -38.5q85 -86 335.5 -93.5t392.5 34.5q58 18 65.5 9t5.5 -54t-16.5 -76.5t-29 -45t-57.5 -25.5q-139 -28 -321 -26.5t-310 50.5 q-5 1 -22.5 8t-42 17t-56 46t-25.5 116t27 117q62 108 251 179q29 10 61 23q73 29 121 122q108 207 188 196q88 -13 37 -319z" />
<glyph unicode="&#x6d3;" d="M673 404q-15 -49 -40 -48q-32 1 -35 50q-15 226 -95 65q-83 -154 -124 -188.5t-71 -48.5q-31 -15 -63 -28t-43 -18t-61.5 -23.5t-71.5 -38.5q85 -86 335.5 -93.5t392.5 34.5q58 18 65.5 9t5.5 -54t-16.5 -76.5t-29 -45t-57.5 -25.5q-139 -28 -321 -26.5t-310 50.5 q-5 1 -22.5 8t-42 17t-56 46t-25.5 116t27 117q62 108 251 179q29 10 61 23q73 29 121 122q108 207 188 196q88 -13 37 -319zM543 1059q-81 58 -126 3q-21 -28 16 -59t85 -21q53 23 131 66q14 6 14 -6l-5 -78q0 -10 -9 -16q-101 -51 -317 -179q-10 -6 -10 2q-5 86 59 131 q-75 53 -56 123q117 263 248 132q13 -11 14 -24q-6 -37 -18 -59t-26 -15z" />
<glyph unicode="&#x6f0;" d="M427 276l-197 206q107 105 214 211l198 -210z" />
<glyph unicode="&#x6f1;" d="M490 5q-50 368 -195 739q-6 21 41 143t54 124.5t14.5 -11.5t22.5 -49q122 -301 141 -672q7 -165 -25 -287q-13 -35 -30.5 -29t-22.5 42z" />
<glyph unicode="&#x6f2;" d="M498 -17q-3 10 -14 59t-19 74q-67 280 -279 640q-12 20 -12.5 23t-2 8.5t-0.5 8.5t1 11l30 178q8 37 26 25q8 -6 25 -23q69 -75 145 -99t148 8q71 31 92 77q13 26 26 28q30 4 22.5 -96t-69.5 -159t-180 -64q131 -288 138 -518q2 -216 -47 -218q-20 -1 -30 37z" />
<glyph unicode="&#x6f3;" d="M453 -47q-24 0 -30.5 22.5t-13.5 61.5q-7 40 -13 60q-70 336 -295 681q-7 19 -2 45.5t14.5 84t15.5 84.5l31 -3q122 -132 188 -136q66 -5 109 51q4 7 16 34q30 72 73 30q11 -12 6 -37l-7 -35t-3.5 -23t21.5 -26.5t56 -13t56 16.5t30 71q15 52 42 52t34 -34q4 -18 0 -42 q-27 -221 -143 -231q-95 -14 -158 42q-1 2 -3 -1q-19 -25 -80 -46q125 -269 102 -593q-12 -116 -46 -115z" />
<glyph unicode="&#x6f4;" d="M419 -50q-21 11 -27.5 36t-16 77.5t-17.5 79.5q-81 333 -269 638q-12 25 -6.5 55t12 71.5t15.5 73.5q6 30 26 8q92 -89 159 -219l33 -21q19 307 159 324q86 15 152 -38q26 -22 50 -77.5t-12 -55.5q-9 0 -20 3t-14 3q-153 78 -206 -69q-25 -85 -30 -112q100 -5 165.5 17.5 t98.5 88.5q9 19 23.5 27.5t26.5 -0.5q16 -14 11.5 -61.5t-28.5 -99t-68 -84.5q-106 -68 -235 -73q86 -270 75 -480q0 -2 -2 -28q-1 -26 -5 -40q-18 -61 -50 -44z" />
<glyph unicode="&#x6f5;" d="M258 12q-48 19 -81.5 75.5t-43.5 200t22.5 326t114.5 292.5q59 78 132.5 103.5t138.5 -22.5q74 -49 126 -159.5t66.5 -284.5t-1.5 -298t-63 -187t-116 -56q-53 2 -96 85q-9 18 -23 47q-6 -10 -21 -40q-16 -30 -29 -49q-45 -64 -126 -33zM558 224q62 2 70 63 q25 258 -66 394.5t-199 56.5q-133 -99 -120 -409q19 -94 83 -100q29 -3 49.5 25t30.5 58l55 2q21 -57 43.5 -74t53.5 -16z" />
<glyph unicode="&#x6f6;" d="M193 772q122 -85 240 -86q47 1 78 13q103 108 191 159q3 1 20 9t23 -1q6 -13 2.5 -33.5t-6 -46.5t-8.5 -72t-7.5 -51.5t-1.5 -6.5t-1.5 -5t-2 -4.5t-2.5 -4t-3.5 -4.5t-5 -5t-7 -7.5t-19.5 -20.5q-297 -280 -468 -630q-18 -27 -38.5 -30.5t-33.5 12t-12 36.5t5.5 43.5 t8 36t11.5 41.5t11 37q55 167 179 353q-62 21 -109 51t-92 91q-56 86 -34 189q33 240 239 217q67 -8 149 -66q40 -28 -3 -44q-8 -3 -31.5 -5.5t-30.5 -3.5q-70 -5 -135.5 -51t-105.5 -110z" />
<glyph unicode="&#x6f7;" d="M692 1005q10 13 17 -2l53 -153q5 -14 -3 -22q-210 -273 -312 -822q-5 -27 -24 -27t-24 27q-127 584 -286 805q-7 8 -4 22l35 158q4 19 19 3q140 -162 260 -652q93 428 269 663z" />
<glyph unicode="&#x6f8;" d="M98 128q-7 24 -5.5 35t13.5 31q230 341 322 760q8 40 23 51.5t28 -4t17 -47.5q8 -30 28 -108q20 -79 58 -217.5t89.5 -256t77 -156.5t26.5 -42.5t1 -7.5v-7.5t-0.5 -9t-1.5 -9t-2 -10t-2 -10t-2.5 -10.5t-3.5 -15t-12.5 -54t-22 -80t-46.5 0q-116 129 -174 425 q-37 187 -53 242q-9 -32 -33.5 -133t-58 -225t-83.5 -205q-100 -163 -125 -109q-5 10 -10.5 27t-23 69t-24.5 76z" />
<glyph unicode="&#x6f9;" d="M604 -55.5q-13 5.5 -39 49.5t-46.5 102.5t-30.5 113.5t-15 114.5t-4.5 116.5t0.5 119q-46 -86 -150 -75q-165 18 -150 267q14 148 113 244q72 69 167 36q43 -15 71 -49q67 -77 63 -194q0 -21 -1.5 -99t2.5 -131q13 -224 101 -395q21 -41 20.5 -51t-75.5 -154 q-13 -20 -26 -14.5zM481 717q1 83 -50.5 116.5t-108 11.5t-70.5 -91q2 -36 26 -58t56.5 -26.5t65 -0.5t56 17.5t25.5 30.5z" />
<glyph unicode="&#x2000;" horiz-adv-x="1252" />
<glyph unicode="&#x2001;" horiz-adv-x="2504" />
<glyph unicode="&#x2002;" horiz-adv-x="1252" />
<glyph unicode="&#x2003;" horiz-adv-x="2504" />
<glyph unicode="&#x2004;" horiz-adv-x="834" />
<glyph unicode="&#x2005;" horiz-adv-x="626" />
<glyph unicode="&#x2006;" horiz-adv-x="417" />
<glyph unicode="&#x2007;" horiz-adv-x="417" />
<glyph unicode="&#x2008;" horiz-adv-x="313" />
<glyph unicode="&#x2009;" horiz-adv-x="500" />
<glyph unicode="&#x200a;" horiz-adv-x="139" />
<glyph unicode="&#x2010;" d="M157 544h558v-178h-558v178z" />
<glyph unicode="&#x2011;" d="M157 544h558v-178h-558v178z" />
<glyph unicode="&#x2012;" d="M157 544h558v-178h-558v178z" />
<glyph unicode="&#x2013;" d="M39 544h794v-178h-794v178z" />
<glyph unicode="&#x2014;" d="M0 544h872v-178h-872v178z" />
<glyph unicode="&#x2018;" d="M529.5 686q-39.5 -38 -97.5 -38t-97.5 38t-39.5 93q0 32 10.5 66.5t36.5 85.5l103 216h131l-63 -257q55 -39 56 -111q0 -55 -39.5 -93z" />
<glyph unicode="&#x2019;" d="M341.5 1108.5q39.5 38.5 97.5 38.5t97.5 -38.5t39.5 -93.5q0 -31 -10.5 -65t-36.5 -85l-103 -217h-131l63 258q-55 41 -56 109q0 55 39.5 93.5z" />
<glyph unicode="&#x201a;" d="M343 196q39 38 98 38q58 0 97 -38t39 -93q0 -32 -10 -65.5t-36 -85.5l-105 -217h-131l64 258q-55 39 -55 110q0 55 39 93z" />
<glyph unicode="&#x201c;" d="M360 686q-40 -38 -98 -38t-96 38t-38 93q0 33 9.5 67.5t34.5 84.5l104 216h130l-63 -257q57 -41 57 -111q0 -55 -40 -93zM699 687q-40 -39 -97 -39q-58 0 -97.5 38t-39.5 93q0 32 10.5 66.5t36.5 85.5l103 216h129l-62 -257q57 -42 57 -111q0 -53 -40 -92z" />
<glyph unicode="&#x201d;" d="M174 1121q40 38 96 38q58 0 97.5 -38t39.5 -93q0 -31 -10 -64t-36 -89l-104 -213h-129l61 257q-55 41 -55 109q0 55 40 93zM511 1121q40 38 98 38t96.5 -38t38.5 -93q0 -32 -9 -66t-36 -87l-104 -213h-130l64 257q-58 41 -58 109q0 55 40 93z" />
<glyph unicode="&#x201e;" d="M174 195.5q40 38.5 96 38.5q58 0 97.5 -38t39.5 -93q0 -33 -10 -66.5t-36 -84.5l-104 -217h-129l64 258q-58 41 -58 110q0 54 40 92.5zM511 196q40 38 98 38t96.5 -38t38.5 -93q0 -33 -9 -67.5t-36 -83.5l-104 -217h-130l64 258q-58 41 -58 110q0 55 40 93z" />
<glyph unicode="&#x2022;" d="M289 350q-59 59 -59 147q0 89 58 147t148 58t148.5 -58t58.5 -148q0 -89 -58.5 -147t-148.5 -58q-88 0 -147 59z" />
<glyph unicode="&#x202f;" horiz-adv-x="500" />
<glyph unicode="&#x2039;" d="M502 25l-274 320v145l274 318l142 -93l-186 -298l186 -299z" />
<glyph unicode="&#x203a;" d="M228 715l141 93l275 -318v-145l-275 -320l-141 93l185 299z" />
<glyph unicode="&#x2044;" d="M-419 365l778 372l60 -110l-777 -373z" />
<glyph unicode="&#x205f;" horiz-adv-x="626" />
<glyph unicode="&#x2074;" d="M611 458h-152v81h-263v96l176 303l138 -47l-144 -243h96l22 115h127v-115h64v-109h-64v-81z" />
<glyph unicode="&#x20ac;" d="M730 1015q55 -19 112 -57l-86 -142q-41 28 -73 38.5t-78 10.5q-153 0 -192 -187h299l-30 -121h-285v-102h263l-30 -122h-221q16 -99 61.5 -143.5t127.5 -44.5q105 0 203 67v-183q-111 -54 -221 -54q-166 0 -267 91.5t-133 266.5h-133l30 122h89v102h-118l31 121h104 q36 169 143 262.5t267 93.5q82 0 137 -19z" />
<glyph unicode="&#x2212;" d="M752 365h-631v179h631v-179z" />
<glyph unicode="&#x2215;" d="M-419 365l778 372l60 -110l-777 -373z" />
<glyph unicode="&#x25fc;" horiz-adv-x="770" d="M0 770h770v-770h-770v770z" />
<glyph d="M430 -147l-139 147q110 109 150 149q69 -75 140 -149z" />
<glyph d="M574 -144l-139 147q110 109 150 149q69 -75 140 -149zM286 -151l-139 147q110 109 150 149q69 -75 140 -149z" />
<glyph d="M433 66l-139 147q110 109 150 149q69 -75 140 -149zM574 -145l-139 147q110 109 150 149q69 -75 140 -149zM286 -152l-139 147q110 109 150 149q69 -75 140 -149z" />
<glyph d="M431 -156l-139 147q110 109 150 149q69 -75 140 -149zM574 63l-139 147q110 109 150 149q69 -75 140 -149zM286 56l-139 147q110 109 150 149q69 -75 140 -149z" />
<glyph d="M430 -147l-139 147q110 109 150 149q69 -75 140 -149z" />
<glyph d="M574 -144l-139 147q110 109 150 149q69 -75 140 -149zM286 -151l-139 147q110 109 150 149q69 -75 140 -149z" />
<glyph d="M425 -107l-139 147q110 109 150 149q69 -75 140 -149zM566 -318l-139 147q110 109 150 149q69 -75 140 -149zM278 -325l-139 147q110 109 150 149q69 -75 140 -149z" />
<glyph d="M431 -333l-139 147q110 109 150 149q69 -75 140 -149zM574 -114l-139 147q110 109 150 149q69 -75 140 -149zM286 -121l-139 147q110 109 150 149q69 -75 140 -149z" />
<glyph d="M378 -79q-82 6 -117 28q-3 14 27 26.5t47 17.5t47.5 13t117.5 40q-11 2 -87 16.5t-119 30.5q-35 16 -38 45.5t23.5 80.5t109.5 136.5t109 71.5q14 -8 10 -44q-22 -111 -24.5 -116.5t-14.5 -13.5q-31 -14 -66 -35q7 -1 73.5 -13t97.5 -25t42 -36q27 -56 -57 -139.5 t-181 -83.5z" />
<glyph d="M515 1170l7 -1134q1 -53 -53.5 -53t-57.5 53l-45 993q-1 21 11 34l106 117q32 35 32 -10z" />
<glyph d="M221 -107q-221 3 -385 73q-97 48 -113 157q-6 113 17 193q10 39 44 33q23 -5 18 -59.5t12 -88.5q19 -33 104 -57q187 -53 403.5 -40t374.5 80q89 40 172 122q21 21 25 22t9.5 2.5t7.5 -2.5q51 -37 5 -144t-139 -170q-106 -58 -269 -89.5t-286 -31.5z" />
<glyph d="M808 -936q-193 -47 -383 4q-90 24 -177 86q-137 107 -173.5 264t0.5 332.5t203 336.5q32 31 68 60q-186 25 -281 11q-21 -4 -27.5 -4t-10 -0.5t-7.5 0.5t-5.5 1t-5.5 2.5t-4 3.5q-23 15 -12 53q48 96 107 126t137 16q381 -40 771 -20q-32 -111 -62 -205 q-276 -26 -437.5 -87.5t-271.5 -191.5q-159 -197 6 -426q65 -90 213 -147.5t344 -24.5q90 15 162.5 41.5t82.5 29.5t20 3t15.5 -16t-35.5 -91.5t-91.5 -104t-145.5 -52.5z" />
<glyph d="M764 -18q-119 -51 -312 -45q-97 3 -150 30q-37 23 -45 90.5t3.5 105.5t33.5 36.5t25 -24.5q2 -11 42.5 -24t152.5 -12t188.5 16t81.5 16q-81 184 -210 396q-14 22 -9 38q34 85 63 131t40 45q23 -2 120.5 -212t89.5 -340.5t-66 -209.5q-18 -25 -48 -37z" />
<glyph d="M87 -326q-45 27 -26.5 50.5t46.5 24.5t71 -0.5t64 0.5q205 7 357 91q2 1 18 10t20.5 11.5t19.5 11t21 12.5t19.5 12.5t20.5 14t18 14t36 35.5t24 38.5t-5 47.5q-8 75 -109 246q-9 18 -6 32q2 14 73 125q22 33 52 -18q82 -133 70 -322q-6 -104 -42 -205.5t-86 -152.5 t-98.5 -93t-123.5 -66.5t-209.5 3.5t-224.5 78z" />
<glyph d="M277 -150q-9 135 -108 323q16 31 65 149q12 28 32 0q4 -6 10 -17q44 -99 95 -151q20 -19 69 -20.5t64 3t18 9.5t5.5 12.5t8.5 21.5t21.5 69t27.5 82q10 17 33 13t34 -10t10 -20.5t-6.5 -39.5t-7.5 -36t-9.5 -46t-10.5 -50q58 -42 191 -29q-3 26 -18.5 72.5t-20 61t0 22.5 t24 31t40.5 46.5t24 26.5q20 -33 30.5 -102.5t0 -154t-40.5 -130.5q-30 -47 -116 -42t-128.5 25.5t-51.5 41.5q-40 -62 -161 -63h-38q-19 -133 -55 -203t-88 -124q-106 -110 -351 -109t-300 161q-16 47 -22 102q-7 139 45 302q18 55 31.5 81.5t33.5 31t23.5 -10.5t1 -25.5 t-9 -25t-8.5 -20.5q-44 -131 -38 -220q4 -36 41.5 -81.5t81 -66t112.5 -24.5q133 -11 248.5 31t166.5 103z" />
<glyph d="M83 -453q-92 -27 -217.5 -26.5t-214 55.5t-106.5 183q-25 158 55 350q17 39 33.5 64t37 10.5t5.5 -53.5q-34 -73 -47 -145.5t24 -155.5q18 -38 62.5 -68.5t105 -44t181.5 6.5q193 37 273 121q32 50 -47 207q-40 80 -42 89.5t4 24t19.5 59t21.5 61t25 -1.5t43 -54.5 t31 -43.5q229 338 453 303q106 -16 152 -89q29 -44 18 -91.5t-42 -117.5q-63 -111 -122 -149q-128 -79 -295 -67q-42 2 -127 18q-18 -163 -60 -247q-89 -161 -224 -198zM849 243q-44 87 -145 91t-227 -123q-31 -31 -54 -62q301 -28 426 94z" />
<glyph d="M894 170q-115 -226 -530 -248q-199 -11 -363 18q-19 3 -73 59.5t-84 99.5q-9 16 -0.5 22.5t24.5 3.5q205 -36 313 -40q14 14 12 21q-11 359 -28.5 658t-16.5 304t4 9.5t5 7t8.5 8.5t28.5 26t47.5 46t28.5 -14q33 -468 25 -747q-1 -43 -19 -210q4 4 57 56q52 52 119 111 q163 143 332 112q87 -22 124.5 -116.5t-14.5 -186.5zM815 221q-5 24 -33.5 51t-73.5 31t-94 -5.5t-85.5 -23.5t-82.5 -42t-72 -47t-72 -55t-65 -50q391 -8 578 141z" />
<glyph d="M662 -740q-186 -41 -360 21q-103 37 -185 105q-101 95 -135 201t-40 193t20 206q38 166 189 343q1 2 -12 13q-182 147 -138 327q23 96 76 138q109 86 218 62q62 -12 99.5 -44t50.5 -50.5t-4 -22.5t-84 -2q-146 4 -248 -127q-7 -9 -12 -19q41 -62 118 -100 q47 -19 115 -1.5t164.5 60.5t119 51t33.5 9.5t15 -10.5q3 -15 -5.5 -48t-21.5 -94t-36 -73q-10 -5 -50 -22q-245 -106 -360 -224q-162 -162 -129 -359q10 -61 47.5 -121t133.5 -130q192 -140 561 -65q1 0 156 36q32 7 28.5 -13t-19 -38.5t-32.5 -37.5t-50 -55t-77 -60.5 t-146 -48.5z" />
<glyph d="M192 -100q-224 0 -342 64q-59 40 -78.5 71t-28 46t-32 71t-8 142.5t26.5 118.5t27 39t27.5 -8t10.5 -30t-3 -39q-12 -164 83 -226q39 -25 75 -35q212 -65 466 -18q157 34 241 61.5t174 72.5q11 11 3 58q-26 -17 -72 -23q-89 -11 -149 33q-83 74 -23 231q32 83 77 112 q90 56 168 -1q51 -36 80.5 -110t32.5 -168t-17.5 -170t-52.5 -104.5t-73 -47.5q-272 -141 -613 -140zM677 448q17 -15 57.5 -15.5t62.5 11.5q-30 54 -61 57.5t-53 -31.5q-8 -17 -6 -22z" />
<glyph d="M158 -376q-109 48 -154.5 167t-16 242t46 155t34 35.5t24 -11t-3.5 -42.5q-77 -208 58 -328q63 -56 131 -62q131 -17 290 30q57 18 131 66.5t120 102.5q12 19 -1 57q-174 -87 -265 -10q-33 28 -48 77t6 152.5t73 162.5q29 31 71 43q92 27 150 -54t81.5 -217.5t3.5 -262.5 q-51 -153 -194.5 -243t-295.5 -96t-241 36zM791 193q-11 32 -47.5 74t-68 38.5t-61 -50t-27.5 -73.5q4 -19 39.5 -29t84.5 -0.5t80 40.5z" />
<glyph d="M796 168l-75 856q0 4 0.5 13t0.5 17t5 20.5t83 109.5q16 22 32 17t17 -45t2 -94.5t4 -136.5t17 -378.5t15 -365.5q-4 -107 -53 -171q-20 -25 -59 -34q-187 -62 -439 -61t-351 36q-237 85 -187 305q17 78 51 142q12 22 29 26t23 -10t-3 -38q-33 -76 -18 -134 q35 -100 261 -132q266 -22 405.5 -0.5t239.5 58.5z" />
<glyph d="M329 -474q-156 0 -278 109q-69 67 -80 199q-8 163 63 391q12 37 35.5 24t21 -36t-9.5 -54q-38 -155 -19 -253q11 -46 63 -84q103 -78 263 -58q118 15 191 48q152 67 222 135q2 1 1.5 8.5t-1.5 84t-22 452t-22 540.5q2 24 16.5 39.5t22 24t31.5 36t42.5 46.5t28 15 t8.5 -24q7 -668 7 -1175q-6 -131 -25 -182q-19 -50 -56 -84t-97 -72q-207 -131 -406 -130z" />
<glyph d="M550 -819q-3 9 -15 74.5t-56 220.5t-74 289q-52 231 43 336q28 167 101 261q51 66 142 50q49 -9 118.5 -69t109.5 -123q9 -21 2.5 -51.5t-13.5 -73t-20 -72.5q-15 -23 -72 -22t-145.5 -18t-133 -39.5t-46.5 -25t5.5 -69t51.5 -277t54 -359.5q-3 -54 -23 -56.5t-29 24.5z M549 140q60 31 177 48q-14 34 -48 56t-70 13q-32 -10 -59 -117z" />
<glyph d="M286 -394.5q-105 1.5 -196 55.5q-88 66 -100 189q-11 220 76 372q22 34 43 25q33 -15 6 -59q-49 -102 -41 -198q9 -96 119 -148q71 -34 190.5 -30.5t232 44t190.5 103.5q6 2 3 7q-21 115 -83 239q-17 20 9 60t52 82t34.5 47.5t18.5 -4.5t27 -63q35 -105 27 -317 q-3 -74 -21 -129q-46 -129 -154.5 -190t-218 -74t-214.5 -11.5z" />
<glyph d="M641 10q-81 -76 -245 -74q-101 2 -167 52q-30 25 -40 65.5t5 76.5q20 69 54 149t54 126t26 60l-31 36q13 27 31.5 60.5t32.5 59.5q17 3 52 8.5t52 7.5q159 -284 194.5 -398t22.5 -158.5t-41 -70.5zM563 177q-52 87 -147 199q-61 -98 -104 -228q99 -59 201 -2q22 11 50 31 z" />
<glyph d="M774 56q-88 -162 -231 -78q-35 21 -65 66q-54 84 59 277q48 74 103 92q109 36 183 -52q34 -45 48.5 -148.5t-6.5 -246t-86 -238.5q-99 -141 -232 -191q-108 -36 -267 32t-217 115q-16 18 -12.5 25t7.5 12q15 10 29.5 7.5t65.5 -16t145.5 -16.5t172.5 14t153 74t116 116 q47 78 34 156zM766 154q-11 54 -43 83.5t-72 20.5t-70 -60q3 -38 26.5 -59.5t52.5 -23.5q70 -6 106 39z" />
<glyph d="M802 -157q-145 -152 -295 -199q-87 -27 -210 -26.5t-219 50.5t-118 190q-19 181 38 373q24 74 44.5 114t43 36.5t21 -27t-18 -59.5t-26.5 -71q-35 -106 -7 -232q7 -32 32 -67q68 -93 227 -99t294.5 56.5t193.5 122.5q-49 24 -116 49t-97 37q-98 39 -42 189q10 26 10 28 q74 191 207 298q70 56 150 52q42 -2 58 -29.5t-5 -63t-52.5 -73t-44 -38.5t-33.5 4q-53 13 -163 -81q-36 -31 -53 -76q6 -17 126 -54.5t148 -52t45.5 -49.5t1.5 -81q-40 -112 -140 -221z" />
<glyph d="M729 67q-61 -65 -159 -95.5t-275.5 -39t-310.5 48.5q-47 24 -60 104t18 94q14 7 55 -5q179 -50 389 -43q99 2 192 26t118 35q-14 52 -54.5 106t-46.5 60.5t1 15.5t42 72q34 62 47.5 63.5t23 -9.5t15 -19.5t8.5 -14t9 -17.5t20.5 -42.5t20.5 -94.5q16 -165 -53 -245z" />
<glyph d="M617 54q-46 -17 -125.5 -45t-187.5 -45t-189.5 -10t-120.5 31q-87 53 -80 165q3 49 93.5 33.5t205.5 -15.5q270 -1 465 80q-61 27 -156 52q-135 35 -232 11q-53 -13 -66 0q-25 25 20 88q120 170 285 90q366 -177 443 -195q93 -22 102 -26q13 -7 -5 -26l-101 -103 q-23 -24 -46 -21q-96 13 -305 -64z" />
<glyph d="M101.5 -25q-21.5 -8 -55.5 -8t-67.5 24t-54.5 74.5t-6 94.5q15 32 55 9q144 -43 210 12q24 34 46 78.5t37 69.5q15 15 36 16t35 -17q8 -21 -14.5 -77.5t-26.5 -67.5q45 -32 185 -25q20 2 34 8q7 19 28.5 82t38.5 103q24 32 60 5q16 -12 13.5 -24.5t-6 -26.5t-6.5 -29.5 t-11 -54t-11 -53.5q67 -42 171 -30q-634 -111 16 1q-1 43 -33 142q-6 17 9 33.5t41 43.5t37 40q56 -105 31 -245q-15 -108 -37 -139q-40 -55 -100 -47q-178 7 -198 68q-7 -6 -31 -35t-61 -33q-186 -9 -227 58q-6 10 -13 25.5t-10 21.5q-53 -64 -73 -76.5t-41.5 -20.5z" />
<glyph d="M-27 7q-58 52 -51 141q7 37 15.5 39t21.5 0.5t42.5 -14t57.5 -18.5t73 2.5t80.5 36t81.5 89.5q22 34 69 -63q4 -8 5 -11q228 330 460 261q69 -20 111 -87q44 -75 -29 -192q-61 -108 -132 -164q-116 -79 -289 -58q-138 17 -199 132q-2 -2 -25 -28q-74 -84 -127 -95 q-107 -17 -165 29zM851 236q-41 74 -100 88q-29 7 -67 4q-132 -18 -255 -182q48 -29 210 -2q67 11 128.5 36t83.5 56z" />
<glyph d="M430 140q-84 74 -83 173q-2 144 78 227q50 51 118 64t133 -31.5t96 -89.5q1 -2 4 -6.5t4 -6.5t3.5 -6.5t3 -7l1.5 -7.5q4 -20 -42 -13q-110 16 -172 -4.5t-138 -80.5q84 -88 186 -131q61 -25 135 -9q-581 -161 179 49q29 6 29 -10q-1 -21 -12.5 -53t-24.5 -73.5 t-25 -65.5q-14 -23 -54.5 -40t-192.5 -54t-349.5 -36t-313.5 45q-39 17 -55 79.5t-13 95.5t19.5 37t33.5 0q224 -57 440 -47z" />
<glyph d="M526 -67q-350 -36 -533 33q-71 31 -73 143q0 11 -1 28.5t15.5 26.5t23.5 9t24 -5q384 -83 668 -13q77 19 132 45q0 45 -9 92q-100 -53 -202 -44q-53 6 -84 52q-14 21 -20 46q-20 68 -1.5 170t76.5 167q31 31 74.5 41.5t82.5 -2.5q79 -26 118 -103q32 -57 41.5 -111 t18.5 -108q20 -123 -12 -234q-59 -205 -339 -233zM745 448q-10 29 -34.5 65t-50.5 48q-32 9 -60 -9q-52 -34 -61 -106q39 -36 138 -17q39 7 68 19z" />
<glyph d="M832 149q-23 -63 -74.5 -106.5t-195.5 -79t-265 -33.5t-181.5 12t-120.5 35q-32 18 -54.5 57.5t-25 81.5t29.5 50q19 1 45 -5q290 -65 463.5 -42t300.5 97q-152 274 -475 557q-28 81 9 195q10 31 37 53q112 91 725 425q45 21 52 1q3 -9 3 -29.5t0.5 -52t-6 -58 t-34.5 -42.5q-476 -263 -668 -378q388 -285 436 -615q13 -84 -1 -123z" />
<glyph d="M711 -13q-175 -70 -525 -50q-105 6 -184 33q-70 27 -79 130q-4 28 12 47.5t50 12.5q297 -58 490 -35t278 54q-96 797 -101 832.5t9.5 60.5t57.5 97q15 27 34.5 27t23 -28t5.5 -54.5t30 -315.5q27 -289 44 -525q4 -122 -34 -197q-33 -62 -111 -89z" />
<glyph d="M457 30q-97 -118 -266 -110q-101 5 -213 55q-17 10 -62 101q-1 2 -8.5 38t8.5 48t28 12t33 -7q320 -100 416 -19q91 316 282 315q190 -1 192 -381q1 -43 -9 -64q-115 -234 -401 12zM759 99q-10 149 -82 176t-154 -80q116 -125 236 -96z" />
<glyph d="M110 -22q-148 16 -182 110q-15 42 -12 69q6 52 51 39l27 -6q104 -25 218 -15q-51 85 -5 189q43 97 145 184q11 85 42 119q29 31 70 38q52 9 137 -59q206 -163 273 -279q80 -139 40 -305q-29 -100 -103 -119q-89 -23 -213 13q-125 35 -212 78q-123 -62 -276 -56zM551 167 q79 -32 166 -54q56 -14 93 -9q-22 84 -73.5 147.5t-111.5 121.5q4 -112 -74 -206zM429 222q69 27 105 66q-6 43 -33.5 87t-42.5 60q-105 -41 -155 -111q-2 -25 42 -53q41 -26 84 -49z" />
<glyph d="M883 252q-10 -91 -70.5 -163t-165.5 -107t-310.5 -46t-348.5 42q-52 24 -67 108q-10 51 -5 76q10 36 74 18q20 -6 28 -7q521 -118 789 122q23 20 37 30q28 18 36 -15q6 -19 3 -58z" />
<glyph d="M701 -32q-125 -34 -317.5 -43.5t-373.5 44.5q-58 20 -78 79t-15 95t30 41q19 1 36 -2q253 -58 488 -50q119 7 197 29q-101 43 -121 98q-22 61 34 124q76 85 240 85q155 -2 207 -119q23 -49 -23 -138q-98 -187 -304 -243z" />
<glyph d="M679 -705q-23 -15 -59 17q-12 10 -16 13q-267 224 -225 632q-163 -54 -287 -24q-60 14 -81 29t-43 43q-51 65 -47 133q0 29 22 28t55 -10q176 -48 307 -26t251 149q18 19 34 31t31 -10q8 -17 -2.5 -40.5t-30 -67t-36.5 -86t-28.5 -89t-13.5 -82t0.5 -63.5t12 -64.5 t17 -57.5t20.5 -56.5t17 -47.5q0 233 81 384q53 89 123 112t114 10q21 -10 25 -14.5t8.5 -42.5t-13.5 -97q-15 -23 -53.5 -30.5t-86 -31.5t-79.5 -65t-30.5 -106t36 -130t61.5 -102t35 -53q6 -21 -11 -42.5t-49.5 -68t-58.5 -74.5z" />
<glyph d="M221 -107q-221 3 -385 73q-97 48 -113 157q-6 113 17 193q10 39 44 33q23 -5 18 -59.5t12 -88.5q19 -33 104 -57q187 -53 403.5 -40t374.5 80q89 40 172 122q21 21 25 22t9.5 2.5t7.5 -2.5q51 -37 5 -144t-139 -170q-106 -58 -269 -89.5t-286 -31.5z" />
<glyph d="M500 298q-167 166 -38 280q73 64 253 40q95 -13 154.5 -87t15.5 -142q-4 -5 -6.5 -9t-7.5 -9.5t-7 -8t-8.5 -8.5t-19 -18t-73.5 -60q45 -37 110 -78.5t80.5 -52.5t19 -33.5t-6.5 -41.5q-21 -45 -67.5 -64t-75.5 -3q-95 53 -227 170q-135 -91 -226 -201q-93 -120 -81 -259 q11 -90 73 -162q112 -133 299 -159q128 -19 318 15q75 12 117.5 24.5t54 14t18.5 -10.5q18 -27 -72 -133q-93 -100 -183 -127q-284 -85 -524 99q-82 69 -122 145q-96 184 -66 401q39 279 298 478z" />
<glyph d="M824 -494q-138 -127 -364 -125q-131 1 -241 61t-142 222q-40 172 62 376q21 43 43 75q16 21 36.5 7t-4.5 -52q-47 -88 -57 -149q-17 -108 49 -224q29 -50 104 -83t178.5 -31t213 38.5t179.5 89.5q-29 11 -94 34t-99 36q-136 57 -93 177q17 51 51 103q77 116 154 136 q34 9 63 8q22 0 28 -33t0 -69t-15 -54q-14 -17 -65 -7q-45 2 -70 -12t-29 -17t-15 -10t-13 -8q32 -17 139 -52.5t133 -50.5t35 -29q30 -47 -13 -150.5t-154 -206.5z" />
<glyph d="M101 -65q224 133 348.5 263t146.5 216q50 196 62 478q4 92 7 229t6.5 159t98.5 150q35 50 40 -38q1 -21 3 -182.5t4.5 -301.5t20.5 -333t89 -425q26 -85 -26 -112q-36 -21 -74 -7q-4 2 -22.5 12.5t-26.5 25.5q-19 60 -40 257.5t-23 212.5q-5 -21 -32 -139 q-58 -262 -111.5 -339.5t-142.5 -113.5q-134 -50 -320 -50q-30 0 -39 3q-17 5 31 35z" />
<glyph d="M525 265.5q-17 60.5 -50 136.5t-105 199t-171 241q-49 -23 -80.5 -2.5t-68 74.5t-42.5 93.5t29 76t99 51.5t119 -39q19 -19 35.5 -39t18.5 -22q229 -282 293 -713q1 -20 1 -40q2 -51 -29.5 -64t-48.5 47.5z" />
<glyph d="M726 157q-191 399 -535 740l-25 25q-46 -24 -98.5 27t-82.5 123q-21 65 34 129q22 29 50 43q59 29 105 -18q81 -81 258 -315q319 -420 356 -681q8 -57 1.5 -86t-20.5 -30.5t-24 10.5t-19 33z" />
<glyph d="M379 -74.5q-60 -2.5 -72 8.5t-1 60t15 73t12 49q88 66 148.5 120t106.5 116.5t64 187.5t16 281.5t-6.5 254.5t-5.5 137q4 25 39 68.5t59 66t38.5 13.5t18 -33t4.5 -45t1.5 -46t1.5 -38q6 -236 -25 -567q-12 -107 -79 -254q-28 -58 -88.5 -128.5t-117.5 -118.5q-8 -6 3 -3 q206 23 286 56q0 -72 -21 -129t-52 -87q-67 -28 -176 -34t-169 -8.5z" />
<glyph d="M337 62l-7 278q19 11 39 24t39 25q10 -168 0 -263q111 124 163 126.5t69.5 -23.5t20.5 -56t-25 -89q-48 -92 -133 -109q-42 -10 -108.5 -9t-115.5 13q-8 2 -38 51t-17 49q1 0 35 -6.5t78 -10.5zM376 61q103 -5 187 29q31 12 46 27q0 39 -62 38q-31 -1 -86 -30.5 t-85 -63.5z" />
<glyph d="M635 261q48 -66 -59 -177q-55 -58 -130 -61.5t-115 27.5q-15 11 -37 34q-4 -4 -36 -37t-32.5 -16t10.5 37q71 125 87 123q6 -5 10.5 -15.5t6.5 -13.5t7 -12q72 95 121 126.5t98 20t69 -35.5zM377 123q-8 -5 6.5 -11t67.5 -5.5t96 21t49 33.5q2 10 -15 31.5t-58.5 22.5 t-71 -19t-74.5 -73z" />
<glyph d="M79 -27q-190 67 -162 298q4 57 18 77t19.5 22t24 -9t19.5 -21t0 -23q-4 -68 22 -92q45 -47 134 -65.5t222 -21.5q226 5 442 62q-102 257 -469 567q-20 38 -4.5 130t45.5 117q93 77 620 369q124 69 139 71t19 -9.5t3.5 -33.5t1 -65t-9.5 -58t-26 -22q-481 -260 -661 -383 q396 -303 433 -633l-13 -124q-5 -49 -67 -98q-116 -92 -455 -92q-193 1 -295 37z" />
<glyph d="M80 -129.5q-1 4.5 -3.5 30t-2 32t10.5 13.5q282 182 688 396q7 1 11.5 3t7 -6t3 -21.5t0.5 -29.5q1 -17 -6 -22q-96 -57 -335 -193t-300 -172t-67 -35.5t-7 5z" />
<glyph d="M673 404q-15 -49 -40 -48q-32 1 -35 50q-15 226 -95 65q-83 -154 -124 -188.5t-71 -48.5q-31 -15 -63 -28t-43 -18t-61.5 -23.5t-71.5 -38.5q85 -86 335.5 -93.5t392.5 34.5q58 18 65.5 9t5.5 -54t-16.5 -76.5t-29 -45t-57.5 -25.5q-139 -28 -321 -26.5t-310 50.5 q-5 1 -22.5 8t-42 17t-56 46t-25.5 116t27 117q62 108 251 179q29 10 61 23q73 29 121 122q108 207 188 196q88 -13 37 -319z" />
<glyph d="M578 -325q-2 132 116 307q27 40 48 27q22 -13 -3 -58q-139 -238 -77 -340q-17 89 72 96q74 6 82 -83q7 -89 -58 -107q-78 -20 -128 27q-51 46 -52 131zM729 67q-61 -65 -159 -95.5t-275.5 -39t-310.5 48.5q-47 24 -60 104t18 94q14 7 55 -5q179 -50 389 -43q99 2 192 26 t118 35q-14 52 -54.5 106t-46.5 60.5t1 15.5t42 72q34 62 47.5 63.5t23 -9.5t15 -19.5t8.5 -14t9 -17.5t20.5 -42.5t20.5 -94.5q16 -165 -53 -245z" />
<glyph d="M379 -5q-131 -72 -212 -16q-37 25 -50 49q-25 46 19 61q58 17 113 38q-101 104 -42 237q43 97 145 184q10 85 42 119q30 31 70 38q52 9 137 -59q206 -163 273 -279q80 -139 40 -305q-29 -100 -103 -119q-89 -23 -213 13q-102 29 -179 63q-19 -13 -40 -24zM559 164 q76 -30 158 -51q56 -14 93 -9q-22 84 -73.5 147.5t-111.5 121.5q-12 -120 -66 -209zM435 219q52 32 99 69q-6 43 -33.5 87t-42.5 60q-105 -41 -155 -111q-2 -25 42 -53t90 -52z" />
<glyph d="M685 -454q-268 -16 -437 49q-5 2 -22.5 8.5t-42 16.5t-56 46t-25.5 116t27 117q60 106 208 162q14 6 42.5 16.5t61 23.5t60.5 39.5t61 83t43.5 69.5t22.5 30t38.5 48.5t78 47.5t94.5 -17q42 -34 35 -158q-2 -46 5 -56q21 -34 46.5 -41.5t105.5 -16.5q50 -13 39 -102 q-5 -41 -37 -58q-7 -4 -67 -1t-114 29q-40 23 -48 101.5t-47 104.5q-67 45 -140 -37q-39 -44 -67.5 -104.5t-54.5 -82.5t-49.5 -36t-39 -21.5t-47.5 -20.5t-43 -18t-61.5 -23.5t-71.5 -38.5q85 -86 335.5 -93.5t392.5 34.5q58 17 65.5 8.5t5.5 -53.5t-16.5 -76.5 t-28.5 -44.5t-58 -26q-85 -17 -194 -25z" />
<glyph d="M577 -180l-77 32q6 15 18 44q85 210 151 300q37 43 87 22q17 -6 74.5 -29.5t129.5 -38.5q31 -13 22 -58q-1 -9 -2 -45q-2 -85 -29 -92q-14 -5 -32.5 -0.5t-32 7.5t-54.5 16.5t-52 16.5q-10 -3 -67 -58.5t-136 -116.5z" />
<glyph d="M370 -21q-95 356 -221 663q-25 73 -14.5 159.5t39.5 126.5q54 76 132 76q52 1 79 -19.5t46 -38t55 -67t37 -51.5l31 62q75 152 138 195q15 8 24.5 0t9.5 -24q-24 -188 -31 -197q-16 -17 -42 -49q-73 -78 -117 -153q-24 -25 -39.5 -15.5t-24 20t-19.5 22t-14 15.5 q-54 69 -98 82.5t-71 -4.5q139 -306 168 -500q13 -94 7.5 -180t-16.5 -126q-34 -77 -59 3z" />
<glyph d="M572 -58q-20 -7 -61 3t-72.5 14t-82 6.5t-114.5 4t-91 4t-37.5 9t-9 22.5t11 42t11.5 35q158 515 84 755q-3 2 -1 8.5t2 9t3 9.5t4.5 10t5.5 9.5t5.5 8.5t5.5 8t9.5 13.5t33 52t38.5 57t14 15t5.5 2t4 -1t3.5 -3.5t3.5 -5t4 -7t12.5 -23t31 -86q44 -162 1 -369 q-59 -236 -136 -426q218 26 459 -10q36 -6 43.5 -24.5t-30.5 -44.5q-7 -5 -41.5 -31t-118.5 -67z" />
<glyph d="M896 148q42 -10 43 -48t-15 -53q-50 -34 -108 33q-31 39 -35 73l-40 876q-1 21 11 34l106 117q32 35 32 -10z" />
<glyph d="M810 40q-38 32 -62 149q-138 -81 -215 -83q-139 -4 -181 70q-24 44 -8 106q15 86 68 143q75 87 231 173q3 2 26 15.5t27 15.5q-1 7 -4 31.5t4 34.5t17.5 28.5t20.5 31.5q10 12 24 26t25.5 -3t33 -207t36.5 -278.5t39 -102.5q91 -61 95 -104q2 -20 -7.5 -43.5t-13.5 -27.5 l-6 -6t-8 -3q-85 -14 -142 34zM735 306q-7 78 -19 177q-38 -10 -99.5 -43t-109 -68t-46 -53t58.5 -30.5t123.5 -8.5t91.5 26z" />
<glyph d="M711 -13q-175 -70 -525 -50q-105 6 -184 33q-70 27 -79 130q-4 28 12 47.5t50 12.5q297 -58 490 -35t278 54q-96 797 -101 832.5t9.5 60.5t57.5 97q15 27 34.5 27t23 -28t5.5 -54.5t30 -315.5q27 -289 44 -525q4 -122 -34 -197q-33 -62 -111 -89z" />
<glyph d="M894 190q-114 -223 -530 -248q-166 -10 -343 18q-58 9 -73 60q-9 47 -24 119q-7 32 24 26q116 -20 233 -40q14 14 12 21q-11 359 -28.5 648t-16.5 294t4 9.5t5 7t8.5 8.5t28.5 26t47.5 46t28.5 -14q32 -452 25 -727q-1 -43 -19 -210q101 101 176 167q163 143 332 112 q82 -21 124.5 -116t-14.5 -207zM815 261q-5 24 -33.5 51t-73.5 31t-94 -5.5t-85.5 -23.5t-82.5 -42t-72 -47t-72 -55t-65 -50q391 -8 578 141z" />
<glyph d="M449 307l-115 -60l-75 105l215 115h138v-467h-163v307z" />
<glyph d="M599.5 217q-44.5 -45 -163.5 -98h226l-19 -119h-415v106q105 58 156.5 92.5t69 57t17.5 48.5q0 23 -16 37.5t-44 14.5t-50 -11.5t-47 -40.5l-103 75q87 96 227 96q97 0 151.5 -43.5t54.5 -107.5q0 -62 -44.5 -107z" />
<glyph d="M594.5 439.5q53.5 -35.5 53.5 -93.5q0 -42 -24.5 -66t-75.5 -36q64 -10 93 -34.5t29 -74.5q0 -67 -64.5 -105.5t-175.5 -38.5q-70 0 -131.5 20t-102.5 60l95 80q33 -25 63.5 -35t70.5 -10q36 0 55 12.5t19 34.5q0 41 -73 40h-76l18 95h58q26 0 40.5 9.5t14.5 23.5 q0 39 -56 40q-36 0 -65.5 -9.5t-64.5 -33.5l-83 83q93 74 233 74q96 0 149.5 -35.5z" />
<glyph d="M611 0h-152v81h-263v96l176 303l138 -47l-144 -243h96l22 115h127v-115h64v-109h-64v-81z" />
<glyph d="M449 846l-115 -59l-75 104l215 115h138v-467h-163v307z" />
<glyph d="M594.5 979.5q53.5 -35.5 53.5 -94.5q0 -42 -24.5 -66t-75.5 -35q64 -10 93 -35t29 -74q0 -67 -64.5 -105.5t-175.5 -38.5q-70 0 -131.5 19.5t-102.5 60.5l95 80q32 -25 63 -35t71 -10q36 0 55 12t19 34q0 41 -73 41h-76l18 94h58q26 0 40.5 9.5t14.5 24.5q0 39 -56 39 q-35 0 -64 -9.5t-66 -32.5l-83 83q93 74 233 74q96 0 149.5 -35.5z" />
<glyph d="M328 739q44 45 108 45t107.5 -45t43.5 -108t-43.5 -107t-107.5 -44t-108 44.5t-44 106.5q0 63 44 108zM328 234.5q44 44.5 108 44.5t107.5 -44.5t43.5 -105.5q0 -64 -43.5 -109t-107.5 -45t-108 45t-44 109q0 61 44 105.5z" />
<glyph d="M404.5 291q25.5 -96 84.5 -190t165 -210l-132 -121q-185 158 -280 335t-95 404t95 403.5t280 335.5l132 -121q-148 -163 -211.5 -302t-63.5 -316q0 -122 25.5 -218z" />
<glyph d="M429.5 825q-63.5 139 -211.5 302l132 121q185 -158 280.5 -335t95.5 -404t-95.5 -403.5t-280.5 -335.5l-132 121q106 116 165 210t84.5 190t25.5 218q0 177 -63.5 316z" />
<glyph d="M643 1214l-345 -122l-55 116l314 178z" />
<glyph d="M711 1182l-81 -94l-194 123l-193 -123l-83 94l206 189h140z" />
<glyph d="M190.5 1141.5q-34.5 33.5 -34.5 82.5t34.5 83t84.5 34q51 0 85 -33.5t34 -83.5q0 -49 -34 -82.5t-85 -33.5q-50 0 -84.5 33.5zM527 1142q-36 34 -36 82t36 82.5t85 34.5q51 0 85 -33.5t34 -83.5q0 -49 -34 -82.5t-85 -33.5q-49 0 -85 34z" />
<glyph d="M643 1208l-54 -116l-346 122l87 172z" />
<glyph d="M589 1384q55 -55 55 -135t-56 -136.5t-146 -56.5t-145.5 56.5t-55.5 136.5t55.5 135t145.5 55q92 0 147 -55zM395.5 1302q-17.5 -18 -17.5 -53q0 -36 17.5 -55t46.5 -19q31 0 48 19t17 55q0 35 -17 53t-48 18q-29 0 -46.5 -18z" />
<glyph d="M469.5 1115q-23.5 10 -50.5 29q-36 26 -60 26q-26 0 -42 -14.5t-35 -49.5l-115 56q31 77 78 124t110 47q33 0 57 -10t52 -29q19 -13 32 -19.5t27 -6.5q23 0 39.5 14.5t36.5 47.5l115 -55q-31 -77 -79.5 -123.5t-109.5 -46.5q-32 0 -55.5 10z" />
</font>
</defs>
</svg>
