<?xml version="1.0" standalone="no"?>
<!DOCTYPE svg PUBLIC "-//W3C//DTD SVG 1.1//EN" "http://www.w3.org/Graphics/SVG/1.1/DTD/svg11.dtd" >
<svg xmlns="http://www.w3.org/2000/svg" xmlns:xlink="http://www.w3.org/1999/xlink" version="1.1">
<metadata></metadata>
<defs>
<font id="amiribold" horiz-adv-x="0" >
<font-face units-per-em="1000" ascent="800" descent="-200" />
<missing-glyph horiz-adv-x="292" />
<glyph unicode="&#x640;&#x640;" horiz-adv-x="371" d="M186 -19q-118 0 -187 4q-20 2 -26 26l-13 44q-7 29 8 40q14 10 32 10q86 -3 186 -3q84 0 146 2q46 1 60 -2q11 -3 17 -17q6 -16 2 -30l-13 -44q-6 -25 -25 -26q-69 -4 -187 -4z" />
<glyph unicode="&#x640;&#x640;&#x640;" horiz-adv-x="556" d="M558 -15q-156 -12 -280 -12q-122 0 -278 12q-19 0 -27 26l-13 44q-7 24 5 38q12 13 36 12q169 -13 277 -13q109 0 278 13q30 2 39 -19q6 -13 1 -31l-13 -44q-6 -25 -25 -26z" />
<glyph unicode="&#x640;&#x640;&#x640;&#x640;" horiz-adv-x="742" d="M743 -15q-156 -12 -372 -12q-215 0 -371 12q-19 0 -27 26l-13 44q-6 25 6 38t35 12q169 -13 370 -13t370 13q24 2 35 -12q10 -13 6 -38l-13 -44q-7 -25 -26 -26z" />
<glyph unicode="&#x640;&#x640;&#x640;&#x640;&#x640;" horiz-adv-x="927" d="M929 -15q-156 -12 -465 -12q-308 0 -464 12q-19 0 -27 26l-13 44q-6 25 6 38t35 12q169 -13 463 -13t463 13q30 1 39 -19q6 -13 1 -31l-12 -44q-7 -25 -26 -26z" />
<glyph unicode="&#x640;&#x640;&#x640;&#x640;&#x640;&#x640;" horiz-adv-x="1113" d="M1112 105q17 1 30 -8q13 -10 13 -22q0 -11 -2 -21l-13 -43q-6 -25 -25 -26q-128 -19 -529 -19q-393 0 -586 19q-21 1 -27 26l-13 44q-7 31 8 41q18 12 34 9q133 -19 517 -19q396 0 593 19z" />
<glyph unicode="&#x640;&#x640;&#x640;&#x640;&#x640;&#x640;&#x640;" horiz-adv-x="1298" d="M1298 105q23 1 35 -12q12 -14 5 -38l-13 -44q-6 -24 -26 -26q-291 -29 -650 -29q-344 0 -649 29q-21 1 -27 26l-13 44q-9 30 12 44q10 8 29 6q307 -29 649 -29q358 0 648 29z" />
<glyph unicode="fb" horiz-adv-x="866" d="M530 562v-157v-4.5t0.5 -5t2 -3.5t3.5 1q56 45 97 45q85 0 144 -59.5t59 -148.5q0 -110 -79 -174t-183 -64q-29 0 -71.5 11.5t-51.5 11.5q-20 0 -36 -7q-3 0 -13 9.5t-10 14.5q11 28 11 116v290v6q0 87 -11 118q-12 32 -36.5 48.5t-54.5 14.5q-37 -3 -53 -26.5t-23 -69.5 q-6 -40 -4 -111h114q6 0 6 -13q0 -6 -7.5 -16.5t-15.5 -16.5h-94v-230v-13q0 -61 7 -79q5 -14 63 -18q4 -5 3.5 -18t-3.5 -18q-66 7 -134 7t-134 -7q-3 5 -3.5 18t3.5 18q58 4 63 18q8 20 8 92v230h-70q-5 2 -5 13q11 16 32 33h43v15q0 100 57 170t139 72q28 1 60 -14 q30 -12 50 -14q25 0 47 3.5t35.5 8t22.5 9.5t14 8l4 3q4 -1 9 -7t6 -10q-11 -61 -11 -100zM584 366q-32 0 -51 -21q-3 -3 -3 -9v-240q0 -26 17.5 -43.5t47.5 -17.5q44 0 72 49t28 107q0 175 -111 175z" />
<glyph unicode="ffb" horiz-adv-x="1173" d="M457 598q55 74 144 77q28 1 60 -14q30 -12 50 -14q25 0 47 3.5t35.5 8t22.5 9.5t14 8l4 3q4 -1 9 -7t6 -10q-11 -61 -11 -100v-157v-4.5t0.5 -5t2 -3.5t3.5 1q56 45 96 45q86 0 145 -59.5t59 -148.5q0 -110 -79 -174t-183 -64q-29 0 -71.5 11.5t-51.5 11.5q-20 0 -36 -7 q-3 0 -13.5 9.5t-10.5 14.5q12 31 12 116v290q0 91 -12 124q-12 32 -36.5 48.5t-54.5 14.5q-37 -3 -53 -26.5t-23 -69.5q-6 -40 -4 -111h115q5 0 5 -13q0 -7 -7 -17.5t-15 -15.5h-95v-230q0 -72 8 -92q5 -14 63 -18q4 -5 3.5 -18t-3.5 -18q-66 7 -134 7t-134 -7 q-3 5 -3.5 18t3.5 18q57 4 62 18q8 20 8 92v230h-180v-230v-13q0 -61 7 -79q5 -14 63 -18q4 -5 3.5 -18t-3.5 -18q-66 7 -134 7t-134 -7q-3 5 -3.5 18t3.5 18q58 4 63 18q8 20 8 92v230h-70q-5 2 -5 13q11 16 32 33h43q0 55 13.5 97t33 66.5t47 41t52 22.5t51.5 8 q123 7 163 -55zM892 366q-32 0 -51 -21q-3 -3 -3 -9v-240q0 -26 17 -43.5t47 -17.5q44 0 72.5 49t28.5 107q0 175 -111 175zM404 418v15q0 36 10 74q-12 2 -23 14.5t-22 31t-15 23.5q-30 36 -65 28q-36 -9 -54 -68.5t-14 -117.5h183z" />
<glyph unicode="fk" horiz-adv-x="893" d="M530 562l-1 -332q26 9 74 50q50 43 67.5 62.5t17.5 31.5q0 8 -22 14.5t-40 7.5q-2 7 -2 19.5t4 13.5q87 -4 128 -4q16 0 32 1t38 2t38 2q4 -8 3 -20t-6 -14q-61 -6 -96 -31q-9 -7 -27 -23t-48.5 -44t-53.5 -48q40 -47 81 -91.5t57 -62.5q25 -28 48 -42t36 -16.5t33 -2.5 q8 -14 0 -29q-32 -12 -99 -12q-85 0 -134 58q-67 72 -115 132l-13 12v-54q0 -72 8 -92q5 -14 63 -18q4 -5 3.5 -18t-3.5 -18q-67 7 -134 7t-134 -7q-3 5 -3.5 18t3.5 18q58 4 63 18q7 18 7 79v13v296v6q0 87 -11 118q-12 32 -36.5 48.5t-54.5 14.5q-37 -3 -53 -26.5 t-23 -69.5q-6 -40 -4 -111h114q6 0 6 -13q0 -6 -7.5 -16.5t-15.5 -16.5h-94v-230v-13q0 -61 7 -79q5 -14 63 -18q4 -5 3.5 -18t-3.5 -18q-66 7 -134 7t-134 -7q-3 5 -3.5 18t3.5 18q58 4 63 18q8 20 8 92v230h-70q-5 2 -5 13q11 16 32 33h43v15q0 100 57 170t139 72 q28 1 60 -14q30 -12 50 -14q25 0 47 3.5t35.5 8t22.5 9.5t14 8l4 3q4 -1 9 -7t6 -10q-11 -61 -11 -100z" />
<glyph unicode="ffk" horiz-adv-x="1201" d="M404 372h-180v-230v-13q0 -61 7 -79q5 -14 63 -18q4 -5 3.5 -18t-3.5 -18q-66 7 -134 7t-134 -7q-3 5 -3.5 18t3.5 18q58 4 63 18q8 20 8 92v230h-70q-5 2 -5 13q11 16 32 33h43q0 55 13.5 97t33 66.5t47 41t52 22.5t51.5 8q123 7 163 -55q55 74 144 77q28 1 60 -14 q30 -12 50 -14q25 0 47 3.5t35.5 8t22.5 9.5t14 8l4 3q4 -1 9 -7t6 -10q-11 -61 -11 -100l-1 -332q25 9 73 50q51 44 68.5 63.5t17.5 30.5q0 8 -22 14.5t-40 7.5q-2 7 -2 19.5t4 13.5q86 -4 127 -4q16 0 32.5 1t38.5 2t38 2q4 -8 3 -20t-6 -14q-63 -6 -97 -31q-9 -7 -27 -23 t-48.5 -44t-53.5 -48q39 -46 79.5 -89.5t59.5 -64.5q25 -28 48 -42t35.5 -16.5t32.5 -2.5q8 -14 0 -29q-32 -12 -98 -12q-85 0 -134 58q-67 72 -115 132l-13 12v-54q0 -72 8 -92q5 -14 62 -18q4 -5 3.5 -18t-3.5 -18q-67 7 -134 7q-66 0 -133 -7q-3 5 -3.5 18t3.5 18 q57 4 62 18q8 20 8 92v296q0 91 -12 124q-12 32 -36.5 48.5t-54.5 14.5q-37 -3 -53 -26.5t-23 -69.5q-6 -40 -4 -111h115q5 0 5 -13q0 -7 -7 -17.5t-15 -15.5h-95v-230q0 -72 8 -92q5 -14 63 -18q4 -5 3.5 -18t-3.5 -18q-66 7 -134 7t-134 -7q-3 5 -3.5 18t3.5 18 q57 4 62 18q8 20 8 92v230zM414 507q-12 2 -23 14.5t-22 31t-15 23.5q-30 36 -65 28q-36 -9 -54 -68.5t-14 -117.5h183v15q0 36 10 74z" />
<glyph unicode="fh" horiz-adv-x="886" d="M530 562v-199q0 -5 1 -6q2 0 7 5q22 26 64 50t74 24q79 0 106 -53.5t27 -177.5v-63v-13q0 -61 7 -79q5 -14 63 -18q4 -5 3.5 -18t-3.5 -18q-67 7 -134 7q-55 0 -122 -7q-3 5 -3.5 18t3.5 18q45 3 51 18q8 20 8 92v77q0 137 -66 137q-28 0 -57 -19t-29 -35v-160 q0 -72 8 -92q5 -14 56 -18q4 -5 3.5 -18t-3.5 -18q-66 7 -127 7q-67 0 -134 -7q-3 5 -3.5 18t3.5 18q58 4 63 18q7 18 7 79v13v296v6q0 87 -11 118q-12 32 -36.5 48.5t-54.5 14.5q-37 -3 -53 -26.5t-23 -69.5q-6 -40 -4 -111h114q6 0 6 -13q0 -6 -7.5 -16.5t-15.5 -16.5h-94 v-230v-13q0 -61 7 -79q5 -14 63 -18q4 -5 3.5 -18t-3.5 -18q-66 7 -134 7t-134 -7q-3 5 -3.5 18t3.5 18q58 4 63 18q8 20 8 92v230h-70q-5 2 -5 13q11 16 32 33h43v15q0 100 57 170t139 72q28 1 60 -14q30 -12 50 -14q25 0 47 3.5t35.5 8t22.5 9.5t14 8l4 3q4 -1 9 -7t6 -10 q-11 -61 -11 -100z" />
<glyph unicode="ffh" horiz-adv-x="1194" d="M404 372h-180v-230v-13q0 -61 7 -79q5 -14 63 -18q4 -5 3.5 -18t-3.5 -18q-66 7 -134 7t-134 -7q-3 5 -3.5 18t3.5 18q58 4 63 18q8 20 8 92v230h-70q-5 2 -5 13q11 16 32 33h43q0 55 13.5 97t33 66.5t47 41t52 22.5t51.5 8q123 7 163 -55q55 74 144 77q28 1 60 -14 q30 -12 50 -14q25 0 47 3.5t35.5 8t22.5 9.5t14 8l4 3q4 -1 9 -7t6 -10q-11 -61 -11 -100v-199q0 -5 1 -6q2 0 7 5q23 26 64.5 50t72.5 24q79 0 106 -53.5t27 -177.5v-63q0 -72 8 -92q5 -14 63 -18q4 -5 3.5 -18t-3.5 -18q-67 7 -134 7q-55 0 -122 -7q-3 5 -3.5 18t3.5 18 q44 3 50 18q8 20 8 92v77q0 137 -65 137q-28 0 -57 -19t-29 -35v-160q0 -72 8 -92q5 -14 55 -18q4 -5 3.5 -18t-3.5 -18q-67 7 -127 7q-66 0 -133 -7q-3 5 -3.5 18t3.5 18q57 4 62 18q8 20 8 92v296q0 91 -12 124q-12 32 -36.5 48.5t-54.5 14.5q-37 -3 -53 -26.5t-23 -69.5 q-6 -40 -4 -111h115q5 0 5 -13q0 -7 -7 -17.5t-15 -15.5h-95v-230q0 -72 8 -92q5 -14 63 -18q4 -5 3.5 -18t-3.5 -18q-66 7 -134 7t-134 -7q-3 5 -3.5 18t3.5 18q57 4 62 18q8 20 8 92v230zM414 507q-12 2 -23 14.5t-22 31t-15 23.5q-30 36 -65 28q-36 -9 -54 -68.5 t-14 -117.5h183v15q0 36 10 74z" />
<glyph unicode="fj" horiz-adv-x="596" d="M525 436q5 -1 11 -7.5t6 -9.5q-7 -20 -10 -56q-1 -21 -1 -61v-185q0 -148 -47 -217q-32 -46 -84.5 -79.5t-80.5 -33.5q-13 7 -13 17q0 6 1 7q5 2 12 7t23.5 24.5t29 45t22.5 72t10 102.5v192q0 65 -9 80q-12 23 -77 23h-94v-215v-13q0 -61 7 -79q5 -14 63 -18 q4 -5 3.5 -18t-3.5 -18q-66 7 -134 7t-134 -7q-3 5 -3.5 18t3.5 18q58 4 63 18q8 20 8 92v215h-70q-5 2 -5 13q11 16 32 33q33 0 43 3q1 137 63.5 207t162.5 70q45 0 85.5 -10t72.5 -35.5t36 -63.5q2 -26 -12 -47t-39 -20q-10 0 -18.5 2.5t-15 5.5t-12 9t-8.5 10t-7 11.5 t-5 10.5t-4 11t-3 9q-11 31 -27.5 44.5t-56.5 13.5q-31 0 -53 -44.5t-30 -96.5t-5 -90h114q126 0 190 33z" />
<glyph unicode="ffj" horiz-adv-x="905" d="M644 403q126 0 190 33q5 -1 11 -7.5t6 -9.5q-7 -20 -10 -56q-1 -21 -1 -61v-185q0 -148 -47 -217q-32 -46 -84.5 -79.5t-80.5 -33.5q-14 8 -14 17q0 6 1 7q5 3 12 7.5t23.5 24t29.5 45t23 72t10 102.5v192q0 63 -10 80q-12 23 -76 23h-95v-215q0 -72 8 -92q5 -14 63 -18 q4 -5 3.5 -18t-3.5 -18q-67 7 -134 7t-134 -7q-3 5 -3.5 18t3.5 18q57 4 62 18q8 20 8 92q0 129 -1 217h-180v-217v-13q0 -61 7 -79q5 -14 63 -18q4 -5 3.5 -18t-3.5 -18q-66 7 -134 7t-134 -7q-3 5 -3.5 18t3.5 18q58 4 63 18q8 20 8 92v217h-70q-5 2 -5 13q11 16 32 33h43 q0 67 19 117.5t50.5 76.5t62.5 39t65 15q122 7 163 -55q60 85 175 85q72 0 129.5 -27t63.5 -82q2 -26 -12 -47t-39 -20q-10 0 -18.5 2.5t-15 5.5t-12 9t-8.5 10t-7 11.5t-5 10.5t-4 11t-3 9q-11 31 -27.5 44.5t-56.5 13.5q-31 0 -53 -44.5t-30 -96.5t-5 -90h115zM416 507 q-12 1 -23.5 13.5t-23 31.5t-15.5 24q-30 36 -65 28q-36 -9 -54 -74t-14 -125h183q0 57 12 102z" />
<glyph unicode="&#x671;" horiz-adv-x="217" arabic-form="isolated" d="M99 692q20 43 26 -20l24 -244q30 -328 -14 -413q-10 -18 -19 -15q-10 3 -9 48q1 75 -35 348l-21 166q-3 21 6 41zM70 884q36 51 57 68q26 22 54 23q44 0 53 -38q8 -38 -16 -69q-59 -79 -136 -74q-35 3 -68 24q-9 4 -15 -2l-8 -7q-14 -11 -21 -7q-12 10 -5 24q45 87 87 66 q12 -6 18 -8zM111 895q-11 -12 -18 -24q43 -7 88 15q4 21 -4 29q-5 7 -17 7q-23 0 -49 -27z" />
<glyph unicode="&#x671;" horiz-adv-x="278" arabic-form="final" d="M128 725q20 35 25 -7q21 -186 24 -340q3 -156 6 -189q4 -78 95 -84q31 -2 35 -30q2 -14 -2 -37q-4 -24 -11 -39q-6 -14 -22 -14q-141 0 -150 136q-3 37 -8 211q-5 138 -34 289q-5 26 5 41zM99 884q36 51 57 68q26 22 54 23q44 0 53 -38q8 -38 -16 -69q-59 -79 -136 -74 q-35 3 -68 24q-9 4 -15 -2l-8 -7q-14 -11 -21 -7q-12 10 -5 24q45 87 87 66q12 -6 18 -8zM140 895q-10 -12 -18 -24q43 -7 88 15q4 21 -4 29q-5 7 -17 7q-23 0 -49 -27z" />
<glyph unicode="&#x67b;" horiz-adv-x="926" arabic-form="isolated" d="M92 74q-49 61 -16 155q14 40 52 82q14 15 24 5t-3 -24q-36 -38 -30 -71q19 -115 300 -115q241 0 394 87q-9 38 -44 68q-9 9 -4 24l29 88q9 28 31 -6q51 -79 32 -194q-10 -56 -43 -77q-166 -105 -399 -117q-236 -12 -323 95zM466 -133q6 8 17 5q43 -16 73 -43q9 -9 3 -19 l-28 -44q24 -12 45 -30q8 -8 3 -18l-48 -76q-7 -10 -18 -2t-72 45q-11 7 -4 17l32 47q-7 4 -23.5 14t-24.5 15q-10 6 -3 16z" />
<glyph unicode="&#x67b;" horiz-adv-x="883" arabic-form="final" d="M112 252q15 20 27 8q10 -10 -1 -27q-32 -46 -25 -75q31 -129 297 -121q190 6 340 67q26 10 32 42q3 20 20 20q16 0 16 -26q2 -32 67 -35q28 -1 34 -27q3 -10 0 -40q-6 -53 -35 -53q-44 0 -85 55q-185 -134 -430 -134q-255 0 -300 129q-23 66 1 131q23 58 42 86zM417 -157 q6 8 17 5q43 -16 73 -43q9 -9 3 -19l-28 -44q24 -12 45 -30q8 -8 3 -18l-48 -76q-7 -10 -18 -2q-10 8 -72 45q-11 7 -4 17l32 47q-7 4 -23.5 14t-24.5 15q-10 6 -3 16z" />
<glyph unicode="&#x67b;" horiz-adv-x="190" arabic-form="initial" d="M51 213l29 62q15 33 26 13q49 -83 23 -194q-25 -109 -129 -109q-20 0 -29 34q-8 29 -8 54q0 20 21 29q7 3 16 3q56 -1 84 23q-6 27 -23 45q-19 21 -10 40zM61 -108q6 8 17 5q43 -16 73 -43q9 -9 3 -19l-28 -44q24 -12 45 -30q8 -8 3 -18l-48 -76q-7 -10 -18 -2 q-10 7 -72 45q-11 7 -4 17l32 47q-7 4 -23.5 14t-24.5 15q-10 6 -3 16z" />
<glyph unicode="&#x67b;" horiz-adv-x="244" arabic-form="medial" d="M182 145q31 -38 62 -41q28 -3 32 -20q3 -12 0 -42q-2 -24 -11 -43q-6 -14 -21 -14q-56 0 -108 64q-62 -64 -136 -64q-21 0 -27 27l-9 41q-3 16 8 33q11 18 28 19q119 9 146 59q9 15 19 15q15 0 15 -17q0 -5 0.5 -9t1.5 -6v-2zM105 -108q6 8 17 5q43 -16 73 -43 q9 -9 3 -19l-28 -44q24 -12 45 -30q8 -8 3 -18l-48 -76q-7 -10 -18 -2q-10 7 -72 45q-11 7 -4 17l32 47q-7 4 -23.5 14t-24.5 15q-10 6 -3 16z" />
<glyph unicode="&#x67e;" horiz-adv-x="926" arabic-form="isolated" d="M92 74q-49 61 -16 155q14 40 52 82q14 15 24 5t-3 -24q-36 -38 -30 -71q19 -115 300 -115q241 0 394 87q-9 38 -44 68q-9 9 -4 24l29 88q9 28 31 -6q51 -79 32 -194q-10 -56 -43 -77q-166 -105 -399 -117q-236 -12 -323 95zM472 -237q-6 -8 -17 -5q-43 16 -73 43 q-9 7 -3 17l48 76q8 11 17 3q6 -5 46 -30l31 50q7 10 18 2q11 -7 72 -45q11 -8 4 -17l-49 -72q-12 -16 -66 20zM542 -348q-6 -8 -17 -5q-43 16 -73 43q-9 8 -3 18l47 76q7 10 19 2q11 -8 72 -45q10 -7 3 -16z" />
<glyph unicode="&#x67e;" horiz-adv-x="883" arabic-form="final" d="M112 252q15 20 27 8q10 -10 -1 -27q-32 -46 -25 -75q31 -129 297 -121q190 6 340 67q26 10 32 42q3 20 20 20q16 0 16 -26q2 -32 67 -35q28 -1 34 -27q3 -10 0 -40q-6 -53 -35 -53q-44 0 -85 55q-185 -134 -430 -134q-255 0 -300 129q-23 66 1 131q23 58 42 86zM417 -266 q-6 -8 -17 -5q-43 16 -73 43q-9 7 -3 17l48 76q8 11 17 3q6 -5 46 -30l31 50q7 10 18 2q10 -8 72 -45q11 -8 4 -17l-49 -72q-12 -16 -66 20zM487 -377q-6 -8 -17 -5q-43 16 -73 43q-9 7 -3 18l47 76q7 10 19 2q10 -7 72 -45q10 -7 3 -16z" />
<glyph unicode="&#x67e;" horiz-adv-x="190" arabic-form="initial" d="M51 213l29 62q15 33 26 13q49 -83 23 -194q-25 -109 -129 -109q-20 0 -29 34q-8 29 -8 54q0 20 21 29q7 3 16 3q56 -1 84 23q-6 27 -23 45q-19 21 -10 40zM91 -261q-6 -8 -17 -5q-43 16 -73 43q-9 7 -3 17l48 76q8 11 17 3q6 -5 46 -30l31 50q7 10 18 2q10 -7 72 -45 q11 -8 4 -17l-49 -72q-12 -16 -66 20zM161 -372q-6 -8 -17 -5q-43 16 -73 43q-9 8 -3 18l47 76q7 10 19 2q10 -8 72 -45q10 -7 3 -16z" />
<glyph unicode="&#x67e;" horiz-adv-x="244" arabic-form="medial" d="M182 145q31 -38 62 -41q28 -3 32 -20q3 -12 0 -42q-2 -24 -11 -43q-6 -14 -21 -14q-56 0 -108 64q-62 -64 -136 -64q-21 0 -27 27l-9 41q-3 16 8 33q11 18 28 19q119 9 146 59q9 15 19 15q15 0 15 -17q0 -5 0.5 -9t1.5 -6v-2zM110 -212q-6 -8 -17 -5q-43 16 -73 43 q-9 7 -3 17l48 76q8 11 17 3q6 -5 46 -30l31 50q7 10 18 2t72 -45q11 -8 4 -17l-49 -72q-12 -16 -66 20zM180 -323q-6 -8 -17 -5q-43 16 -73 43q-9 7 -3 18l47 76q7 10 19 2q11 -7 72 -45q10 -7 3 -16z" />
<glyph unicode="&#x680;" horiz-adv-x="926" arabic-form="isolated" d="M92 74q-49 61 -16 155q14 40 52 82q14 15 24 5t-3 -24q-36 -38 -30 -71q19 -115 300 -115q241 0 394 87q-9 38 -44 68q-9 9 -4 24l29 88q9 28 31 -6q51 -79 32 -194q-10 -56 -43 -77q-166 -105 -399 -117q-236 -12 -323 95zM521 -61q5 7 17 4q43 -16 73 -43q8 -8 3 -18 l-41 -64q28 -13 53 -35q8 -8 3 -18l-48 -76q-8 -11 -18 -2q-5 4 -53 34l-33 -54q-7 -10 -18 -2q-5 3 -73 45q-11 6 -3 17l44 66q-15 10 -55 34q-11 7 -4 17l49 72q6 8 17 5q28 -10 55 -29zM469 -205q24 -12 35 -20l27 41q-15 10 -35 22z" />
<glyph unicode="&#x680;" horiz-adv-x="883" arabic-form="final" d="M112 252q15 20 27 8q10 -10 -1 -27q-32 -46 -25 -75q31 -129 297 -121q190 6 340 67q26 10 32 42q3 20 20 20q16 0 16 -26q2 -32 67 -35q28 -1 34 -27q3 -10 0 -40q-6 -53 -35 -53q-44 0 -85 55q-142 -102 -315 -126q43 -16 73 -43q8 -8 3 -18l-41 -64q28 -13 53 -35 q8 -8 3 -18l-48 -76q-8 -11 -18 -2q-5 4 -53 34l-33 -54q-7 -10 -18 -2q-5 3 -73 45q-11 6 -3 17l44 66q-15 10 -55 34q-11 7 -4 17l49 72q6 8 17 5q28 -10 55 -29l32 47l1 1v1q-48 -6 -99 -6q-255 0 -300 129q-23 66 1 131q23 58 42 86zM415 -234q24 -12 35 -20l27 41 q-15 10 -35 22z" />
<glyph unicode="&#x680;" horiz-adv-x="190" arabic-form="initial" d="M140 -85q5 7 17 4q43 -16 73 -43q8 -8 3 -18l-41 -64q28 -13 53 -35q8 -8 3 -18l-48 -76q-8 -11 -18 -2q-5 4 -53 34l-33 -54q-7 -10 -18 -2q-5 3 -73 45q-11 6 -3 17l44 66q-15 10 -55 34q-11 7 -4 17l49 72q6 8 17 5q28 -10 55 -29zM51 213l29 62q15 33 26 13 q49 -83 23 -194q-25 -109 -129 -109q-20 0 -29 34q-8 29 -8 54q0 20 21 29q7 3 16 3q56 -1 84 23q-6 27 -23 45q-19 21 -10 40zM88 -229q24 -12 35 -20l27 41q-15 10 -35 22z" />
<glyph unicode="&#x680;" horiz-adv-x="244" arabic-form="medial" d="M160 -37q5 7 17 4q43 -16 73 -43q8 -8 3 -18l-41 -64q28 -13 53 -35q8 -8 3 -18l-48 -76q-8 -11 -18 -2q-5 4 -53 34l-33 -54q-7 -10 -18 -2q-5 3 -73 45q-11 6 -3 17l44 66q-15 10 -55 34q-11 7 -4 17l49 72q6 8 17 5q28 -10 55 -29zM182 145q31 -38 62 -41 q28 -3 32 -20q3 -12 0 -42q-2 -24 -11 -43q-6 -14 -21 -14q-56 0 -108 64q-62 -64 -136 -64q-21 0 -27 27l-9 41q-3 16 8 33q11 18 28 19q119 9 146 59q9 15 19 15q15 0 15 -17q0 -5 0.5 -9t1.5 -6v-2zM108 -181q24 -12 35 -20l27 41q-15 10 -35 22z" />
<glyph unicode="&#x67a;" horiz-adv-x="926" arabic-form="isolated" d="M92 74q-49 61 -16 155q14 40 52 82q14 15 24 5t-3 -24q-36 -38 -30 -71q19 -115 300 -115q241 0 394 87q-9 38 -44 68q-9 9 -4 24l29 88q9 28 31 -6q51 -79 32 -194q-10 -56 -43 -77q-166 -105 -399 -117q-236 -12 -323 95zM419 580q6 8 17 5q43 -16 73 -43q9 -9 3 -19 l-28 -44q24 -12 45 -30q8 -8 3 -18l-48 -76q-7 -10 -18 -2q-10 7 -72 45q-11 7 -4 17l32 47q-7 4 -23.5 14t-24.5 15q-10 6 -3 16z" />
<glyph unicode="&#x67a;" horiz-adv-x="883" arabic-form="final" d="M112 252q15 20 27 8q10 -10 -1 -27q-32 -46 -25 -75q31 -129 297 -121q190 6 340 67q26 10 32 42q3 20 20 20q16 0 16 -26q2 -32 67 -35q28 -1 34 -27q3 -10 0 -40q-6 -53 -35 -53q-44 0 -85 55q-185 -134 -430 -134q-255 0 -300 129q-23 66 1 131q23 58 42 86zM419 580 q6 8 17 5q43 -16 73 -43q9 -9 3 -19l-28 -44q24 -12 45 -30q8 -8 3 -18l-48 -76q-7 -10 -18 -2q-10 7 -72 45q-11 7 -4 17l32 47q-7 4 -23.5 14t-24.5 15q-10 6 -3 16z" />
<glyph unicode="&#x67a;" horiz-adv-x="190" arabic-form="initial" d="M51 213l29 62q15 33 26 13q49 -83 23 -194q-25 -109 -129 -109q-20 0 -29 34q-8 29 -8 54q0 20 21 29q7 3 16 3q56 -1 84 23q-6 27 -23 45q-19 21 -10 40zM43 595q6 8 17 5q43 -16 73 -43q9 -9 3 -19l-28 -44q24 -12 45 -30q8 -8 3 -18l-48 -76q-7 -10 -18 -2 q-10 8 -72 45q-11 7 -4 17l32 47q-7 4 -23.5 14t-24.5 15q-10 6 -3 16z" />
<glyph unicode="&#x67a;" horiz-adv-x="244" arabic-form="medial" d="M182 145q31 -38 62 -41q28 -3 32 -20q3 -12 0 -42q-2 -24 -11 -43q-6 -14 -21 -14q-56 0 -108 64q-62 -64 -136 -64q-21 0 -27 27l-9 41q-3 16 8 33q11 18 28 19q119 9 146 59q9 15 19 15q15 0 15 -17q0 -5 0.5 -9t1.5 -6v-2zM80 580q6 8 17 5q43 -16 73 -43q9 -9 3 -19 l-28 -44q24 -12 45 -30q8 -8 3 -18l-48 -76q-7 -10 -18 -2q-11 7 -72 45q-11 7 -4 17l32 47q-7 4 -23.5 14t-24.5 15q-10 6 -3 16z" />
<glyph unicode="&#x67f;" horiz-adv-x="926" arabic-form="isolated" d="M92 74q-49 61 -16 155q14 40 52 82q14 15 24 5t-3 -24q-36 -38 -30 -71q19 -115 300 -115q241 0 394 87q-9 38 -44 68q-9 9 -4 24l29 88q9 28 31 -6q51 -79 32 -194q-10 -56 -43 -77q-166 -105 -399 -117q-236 -12 -323 95zM474 627q5 7 17 4q43 -16 73 -43q8 -8 3 -18 l-41 -64q28 -13 53 -35q8 -8 3 -18l-48 -76q-8 -11 -18 -2q-5 4 -53 34l-33 -54q-7 -10 -18 -2q-5 3 -73 45q-11 6 -3 17l44 66q-15 10 -55 34q-11 7 -4 17l49 72q6 8 17 5q28 -10 55 -29zM422 483q24 -12 35 -20l27 41q-15 10 -35 22z" />
<glyph unicode="&#x67f;" horiz-adv-x="883" arabic-form="final" d="M112 252q15 20 27 8q10 -10 -1 -27q-32 -46 -25 -75q31 -129 297 -121q190 6 340 67q26 10 32 42q3 20 20 20q16 0 16 -26q2 -32 67 -35q28 -1 34 -27q3 -10 0 -40q-6 -53 -35 -53q-44 0 -85 55q-185 -134 -430 -134q-255 0 -300 129q-23 66 1 131q23 58 42 86zM474 627 q5 7 17 4q43 -16 73 -43q8 -8 3 -18l-41 -64q28 -13 53 -35q8 -8 3 -18l-48 -76q-8 -11 -18 -2q-5 4 -53 34l-33 -54q-7 -10 -18 -2q-5 3 -73 45q-11 6 -3 17l44 66q-15 10 -55 34q-11 7 -4 17l49 72q6 8 17 5q28 -10 55 -29zM422 483q24 -12 35 -20l27 41q-15 10 -35 22z " />
<glyph unicode="&#x67f;" horiz-adv-x="190" arabic-form="initial" d="M96 593q5 7 17 4q43 -16 73 -43q8 -8 3 -18l-41 -64q28 -13 53 -35q8 -8 3 -18l-48 -76q-8 -11 -18 -2q-5 4 -53 34l-33 -54q-7 -10 -18 -2q-5 3 -73 45q-11 6 -3 17l44 66q-15 10 -55 34q-11 7 -4 17l49 72q6 8 17 5q28 -10 55 -29zM51 213l29 62q15 33 26 13 q49 -83 23 -194q-25 -109 -129 -109q-20 0 -29 34q-8 29 -8 54q0 20 21 29q7 3 16 3q56 -1 84 23q-6 27 -23 45q-19 21 -10 40zM44 449q24 -12 35 -20l27 41q-15 10 -35 22z" />
<glyph unicode="&#x67f;" horiz-adv-x="244" arabic-form="medial" d="M126 564q5 7 17 4q43 -16 73 -43q8 -8 3 -18l-41 -64q28 -13 53 -35q8 -8 3 -18l-48 -76q-8 -11 -18 -2q-5 4 -53 34l-33 -54q-7 -10 -18 -2q-5 3 -73 45q-11 6 -3 17l44 66q-15 10 -55 34q-11 7 -4 17l49 72q6 8 17 5q28 -10 55 -29zM182 145q31 -38 62 -41 q28 -3 32 -20q3 -12 0 -42q-2 -24 -11 -43q-6 -14 -21 -14q-56 0 -108 64q-62 -64 -136 -64q-21 0 -27 27l-9 41q-3 16 8 33q11 18 28 19q119 9 146 59q9 15 19 15q15 0 15 -17q0 -5 0.5 -9t1.5 -6v-2zM74 420q24 -12 35 -20l27 41q-15 10 -35 22z" />
<glyph unicode="&#x679;" horiz-adv-x="926" arabic-form="isolated" d="M92 74q-49 61 -16 155q14 40 52 82q14 15 24 5t-3 -24q-36 -38 -30 -71q19 -115 300 -115q241 0 394 87q-9 38 -44 68q-9 9 -4 24l29 88q9 28 31 -6q51 -79 32 -194q-10 -56 -43 -77q-166 -105 -399 -117q-236 -12 -323 95zM425 635q16 7 20 -18q17 -125 13 -182 q22 22 52 44q29 21 54 11t37 -40q12 -31 -27 -81q-8 -10 -67 -29q-53 -17 -118 -20h-2q-28 4 -49 24t-21 30q1 8 12 8q41 -4 71 -1l23 23q3 68 -17 191q0 5 6 20q6 16 13 20zM511 431q-12 -5 -55 -43q49 10 98 33q-15 20 -43 10z" />
<glyph unicode="&#x679;" horiz-adv-x="883" arabic-form="final" d="M112 252q15 20 27 8q10 -10 -1 -27q-32 -46 -25 -75q31 -129 297 -121q190 6 340 67q26 10 32 42q3 20 20 20q16 0 16 -26q2 -32 67 -35q28 -1 34 -27q3 -10 0 -40q-6 -53 -35 -53q-44 0 -85 55q-185 -134 -430 -134q-255 0 -300 129q-23 66 1 131q23 58 42 86zM425 635 q16 7 20 -18q17 -125 13 -182q22 22 52 44q29 21 54 11t37 -40q12 -31 -27 -81q-8 -10 -67 -29q-53 -17 -118 -20h-2q-28 4 -49 24t-21 30q1 8 12 8q41 -4 71 -1l23 23q3 68 -17 191q0 5 6 20q6 16 13 20zM511 431q-12 -5 -55 -43q49 10 98 33q-15 20 -43 10z" />
<glyph unicode="&#x679;" horiz-adv-x="190" arabic-form="initial" d="M49 650q16 7 20 -18q17 -125 13 -182q22 22 52 44q29 21 54 11t37 -40q12 -31 -27 -81q-8 -10 -67 -29q-53 -17 -118 -20h-2q-28 4 -49 24q-21 19 -21 30q1 8 12 8q41 -4 71 -1l23 23q3 68 -17 191q0 5 6 20q6 16 13 20zM51 213l29 62q15 33 26 13q49 -83 23 -194 q-25 -109 -129 -109q-20 0 -29 34q-8 29 -8 54q0 20 21 29q7 3 16 3q56 -1 84 23q-6 27 -23 45q-19 21 -10 40zM135 446q-12 -5 -55 -43q49 10 98 33q-15 20 -43 10z" />
<glyph unicode="&#x679;" horiz-adv-x="244" arabic-form="medial" d="M182 145q31 -38 62 -41q28 -3 32 -20q3 -12 0 -42q-2 -24 -11 -43q-6 -14 -21 -14q-56 0 -108 64q-62 -64 -136 -64q-21 0 -27 27l-9 41q-3 16 8 33q11 18 28 19q119 9 146 59q9 15 19 15q15 0 15 -17q0 -5 0.5 -9t1.5 -6v-2zM86 635q16 7 20 -18q17 -125 13 -182 q22 22 52 44q29 21 54 11t37 -40q12 -31 -27 -81q-8 -10 -67 -29q-53 -17 -118 -20h-2q-28 4 -49 24t-21 30q1 8 12 8q41 -4 71 -1l23 23q3 68 -17 191q0 5 6 20q6 16 13 20zM172 431q-12 -5 -55 -43q49 10 98 33q-15 20 -43 10z" />
<glyph unicode="&#x6a4;" horiz-adv-x="983" arabic-form="isolated" d="M869 480q43 -72 51 -198q3 -46 -10 -76q-28 -66 -122 -119q-93 -53 -220 -81q-130 -29 -235 -29q-251 -1 -269 171q-4 36 10 90q13 50 31 72t28 15q11 -7 -3 -33q-50 -92 11 -136q101 -73 318 -46q194 24 364 115q50 26 53 51q0 12 -19 34q-20 -44 -73 -56 q-92 -17 -96 76q-2 70 60 163q29 45 59 44t62 -57zM658 744q6 9 18 5q43 -16 73 -43q8 -8 3 -18l-48 -76q-8 -11 -17 -3q-6 5 -46 30l-31 -49q-8 -10 -18 -3q-14 10 -73 46q-10 6 -3 16l48 72q12 17 66 -19zM588 856q6 8 17 5q43 -16 73 -43q8 -8 3 -18l-48 -76 q-7 -10 -18 -2t-72 45q-11 6 -4 16zM797 377q11 9 -1 19q-36 30 -56 -6q-4 -9 1 -14q29 -24 56 1z" />
<glyph unicode="&#x6a4;" horiz-adv-x="1005" arabic-form="final" d="M778 300q70 106 124 57q55 -50 31 -178q-6 -32 -24 -71q28 -6 97 -3q29 2 36 -26q3 -10 3 -19q-1 -72 -39 -75q-89 -7 -173 31q-215 -123 -466 -123q-316 0 -304 175q4 68 51 146q20 32 35 19q8 -7 -2 -28q-33 -62 -21 -84q52 -97 255 -94q196 3 355 57q-24 29 -14 89 q11 61 56 127zM712 573q6 9 18 5q43 -16 73 -43q8 -8 3 -18l-48 -76q-8 -11 -17 -3q-6 5 -46 30l-31 -49q-8 -11 -18 -3q-14 10 -73 46q-10 6 -3 16l48 72q12 17 66 -19zM642 685q6 8 17 5q43 -16 73 -43q8 -8 3 -18l-48 -76q-7 -10 -18 -2q-11 7 -72 45q-11 6 -4 16z M839 234q-42 3 -67 -61q15 -40 52 -40q36 0 58 28q-3 70 -43 73z" />
<glyph unicode="&#x6a4;" horiz-adv-x="295" arabic-form="initial" d="M102 443q30 0 50 -20q80 -82 80 -219q0 -80 -29 -118q-81 -104 -203 -101q-24 0 -32 31q-7 30 0 58q7 30 31 31q128 9 184 62q-3 34 -8 39q-6 7 -13 -5q-19 -32 -50 -40q-98 -24 -104 51q-8 88 25 159q33 72 69 72zM136 646q6 9 18 5q43 -16 73 -43q8 -8 3 -18l-48 -76 q-8 -11 -17 -3q-6 5 -46 30l-31 -49q-8 -10 -18 -3q-14 10 -73 46q-10 6 -3 16l48 72q12 17 66 -19zM66 758q6 8 17 5q43 -16 73 -43q8 -8 3 -18l-48 -76q-7 -10 -18 -2t-72 45q-11 6 -4 16zM77 320q-23 0 -26 -44q19 -6 39 -3q23 3 29 12q-23 35 -42 35z" />
<glyph unicode="&#x6a4;" horiz-adv-x="378" arabic-form="medial" d="M283 394q9 0 17 -4q29 -17 38 -65q13 -80 -19 -152q-10 -20 -27 -50q50 -17 87 -18q22 -1 26 -46t-6 -61q-8 -12 -19 -13q-84 -9 -209 56q-36 -17 -93 -36q-58 -20 -79 -20q-23 0 -30 29q-7 27 0 59q6 27 29 32q48 7 92 21q-3 46 14 90q33 87 118 151q34 27 61 27z M224 671q6 9 18 5q43 -16 73 -43q8 -8 3 -18l-48 -76q-8 -11 -17 -3q-6 5 -46 30l-31 -49q-8 -11 -18 -3q-14 10 -73 46q-10 6 -3 16l48 72q12 17 66 -19zM154 783q6 8 17 5q43 -16 73 -43q8 -8 3 -18l-48 -76q-7 -10 -18 -2q-11 7 -72 45q-11 6 -4 16zM235 259 q-52 1 -87 -46q40 -83 126 -20q0 65 -39 66z" />
<glyph unicode="&#x6a6;" horiz-adv-x="983" arabic-form="isolated" d="M869 480q43 -72 51 -198q3 -46 -10 -76q-28 -66 -122 -119q-93 -53 -220 -81q-130 -29 -235 -29q-251 -1 -269 171q-4 36 10 90q13 50 31 72t28 15q11 -7 -3 -33q-50 -92 11 -136q101 -73 318 -46q194 24 364 115q50 26 53 51q0 12 -19 34q-20 -44 -73 -56 q-92 -17 -96 76q-2 70 60 163q29 45 59 44t62 -57zM648 862q5 7 17 4q43 -16 73 -43q8 -8 3 -18l-41 -64q28 -13 53 -35q8 -8 3 -18l-48 -76q-8 -11 -18 -2q-5 4 -53 34l-33 -54q-7 -10 -18 -2q-5 3 -73 45q-11 6 -3 17l44 66q-15 10 -55 34q-11 7 -4 17l49 72q6 8 17 5 q28 -10 55 -29zM797 377q11 9 -1 19q-36 30 -56 -6q-4 -9 1 -14q29 -24 56 1zM596 718q24 -12 35 -20l27 41q-15 10 -35 22z" />
<glyph unicode="&#x6a6;" horiz-adv-x="1005" arabic-form="final" d="M778 300q70 106 124 57q55 -50 31 -178q-6 -32 -24 -71q28 -6 97 -3q29 2 36 -26q3 -10 3 -19q-1 -72 -39 -75q-89 -7 -173 31q-215 -123 -466 -123q-316 0 -304 175q4 68 51 146q20 32 35 19q8 -7 -2 -28q-33 -62 -21 -84q52 -97 255 -94q196 3 355 57q-24 29 -14 89 q11 61 56 127zM702 691q5 7 17 4q43 -16 73 -43q8 -8 3 -18l-41 -64q28 -13 53 -35q8 -8 3 -18l-48 -76q-8 -11 -18 -2q-5 4 -53 34l-33 -54q-7 -10 -18 -2q-5 3 -73 45q-11 6 -3 17l44 66q-15 10 -55 34q-11 7 -4 17l49 72q6 8 17 5q28 -10 55 -29zM839 234q-42 3 -67 -61 q15 -40 52 -40q36 0 58 28q-3 70 -43 73zM650 547q24 -12 35 -20l27 41q-15 10 -35 22z" />
<glyph unicode="&#x6a6;" horiz-adv-x="295" arabic-form="initial" d="M102 443q30 0 50 -20q80 -82 80 -219q0 -80 -29 -118q-81 -104 -203 -101q-24 0 -32 31q-7 30 0 58q7 30 31 31q128 9 184 62q-3 34 -8 39q-6 7 -13 -5q-19 -32 -50 -40q-98 -24 -104 51q-8 88 25 159q33 72 69 72zM126 764q5 7 17 4q43 -16 73 -43q8 -8 3 -18l-41 -64 q28 -13 53 -35q8 -8 3 -18l-48 -76q-8 -11 -18 -2q-5 4 -53 34l-33 -54q-7 -10 -18 -2q-5 3 -73 45q-11 6 -3 17l44 66q-15 10 -55 34q-11 7 -4 17l49 72q6 8 17 5q28 -10 55 -29zM77 320q-23 0 -26 -44q19 -6 39 -3q23 3 29 12q-23 35 -42 35zM74 620q24 -12 35 -20l27 41 q-15 10 -35 22z" />
<glyph unicode="&#x6a6;" horiz-adv-x="378" arabic-form="medial" d="M283 394q9 0 17 -4q29 -17 38 -65q13 -80 -19 -152q-10 -20 -27 -50q50 -17 87 -18q22 -1 26 -46t-6 -61q-8 -12 -19 -13q-84 -9 -209 56q-36 -17 -93 -36q-58 -20 -79 -20q-23 0 -30 29q-7 27 0 59q6 27 29 32q48 7 92 21q-3 46 14 90q33 87 118 151q34 27 61 27z M214 789q5 7 17 4q43 -16 73 -43q8 -8 3 -18l-41 -64q28 -13 53 -35q8 -8 3 -18l-48 -76q-8 -11 -18 -2q-5 4 -53 34l-33 -54q-7 -10 -18 -2q-5 3 -73 45q-11 6 -3 17l44 66q-15 10 -55 34q-11 7 -4 17l49 72q6 8 17 5q28 -10 55 -29zM235 259q-52 1 -87 -46q40 -83 126 -20 q0 65 -39 66zM162 645q24 -12 35 -20l27 41q-15 10 -35 22z" />
<glyph unicode="&#x684;" horiz-adv-x="661" arabic-form="isolated" d="M270 59q-94 -56 -130 -131q-37 -77 -25 -144q26 -149 202 -183q150 -30 397 1q40 5 40 -14q0 -14 -42 -28q-40 -13 -80 -42t-49 -33q-11 -5 -21 -6q-299 -36 -416 58q-94 75 -82 239q19 256 207 375q-92 14 -149 -15q-10 -5 -17 -2q-8 5 -7 23q3 115 130 118 q25 0 102 -13q132 -23 264 -1q26 4 36 -1.5t3 -21.5l-29 -69q-8 -20 -22 -21q-190 -16 -312 -89zM369 -45q6 8 17 5q43 -16 73 -43q9 -9 3 -19l-28 -44q24 -12 45 -30q8 -8 3 -18l-48 -76q-7 -10 -18 -2q-10 8 -72 45q-11 7 -4 17l32 47q-7 4 -23.5 14t-24.5 15q-10 6 -3 16 z" />
<glyph unicode="&#x684;" horiz-adv-x="639" arabic-form="final" d="M83 151q5 123 130 124q40 0 117 -13q132 -23 264 -1q26 4 36 -1.5t3 -21.5l-29 -69q-8 -17 -22 -18q-62 -6 -103 -18q28 -39 159 -28q31 3 39 -34q6 -27 -5 -56q-11 -30 -31 -30q-135 0 -176 36t-35 99q-88 -18 -160 -61q-94 -56 -130 -131q-37 -77 -25 -144 q26 -149 202 -183q154 -30 397 1q40 5 40 -14q0 -14 -42 -28q-40 -13 -80 -42t-49 -33q-11 -5 -21 -6q-299 -36 -416 58q-94 75 -82 239q19 256 207 375q-95 14 -164 -20q-13 -6 -19 -1t-5 21zM369 -94q6 8 17 5q43 -16 73 -43q9 -9 3 -19l-28 -44q24 -12 45 -30q8 -8 3 -18 l-48 -76q-7 -10 -18 -2q-10 7 -72 45q-11 7 -4 17l32 47q-7 4 -23.5 14t-24.5 15q-10 6 -3 16z" />
<glyph unicode="&#x684;" horiz-adv-x="655" arabic-form="initial" d="M6 222q9 35 46 70t71 35q38 0 165 -53q130 -54 287 -47q15 1 17 -9t-7 -30l-27 -62q-9 -18 -21 -17q-113 19 -216 -13q-108 -34 -181 -71q-79 -40 -140 -40q-16 0 -24 19q-14 36 -6 63q8 28 15 32t14 6q154 9 258 58q-142 64 -231 37q-14 -5 -19 0.5t-1 21.5zM276 -36 q6 8 17 5q43 -16 73 -43q9 -9 3 -19l-28 -44q24 -12 45 -30q8 -8 3 -18l-48 -76q-7 -10 -18 -2q-11 7 -72 45q-11 7 -4 17l32 47q-7 4 -23.5 14t-24.5 15q-10 6 -3 16z" />
<glyph unicode="&#x684;" horiz-adv-x="610" arabic-form="medial" d="M12 222q27 108 131 108q50 0 147 -47q50 -24 129 -35q86 -13 160 -4q17 2 23.5 -3t2.5 -19l-22 -74q-6 -17 -28 -16q-64 5 -69 5q-7 -20 28 -28q31 -7 97 -6q29 1 37.5 -20.5t-4.5 -64.5q-10 -30 -32 -33q-81 -10 -132 8q-69 25 -37 141q-82 -8 -151 -34 q-81 -31 -161 -71q-91 -45 -131 -44q-23 0 -34 27t-4 57t36 36q85 15 145 40q56 23 98 35q-141 47 -197 18q-19 -10 -28 -6q-10 4 -4 30zM271 -30q6 8 17 5q43 -16 73 -43q9 -9 3 -19l-28 -44q24 -12 45 -30q8 -8 3 -18l-48 -76q-7 -10 -18 -2q-10 7 -72 45q-11 7 -4 17 l32 47q-7 4 -23.5 14t-24.5 15q-10 6 -3 16z" />
<glyph unicode="&#x683;" horiz-adv-x="661" arabic-form="isolated" d="M270 59q-94 -56 -130 -131q-37 -77 -25 -144q26 -149 202 -183q150 -30 397 1q40 5 40 -14q0 -14 -42 -28q-40 -13 -80 -42t-49 -33q-11 -5 -21 -6q-299 -36 -416 58q-94 75 -82 239q19 256 207 375q-92 14 -149 -15q-10 -5 -17 -2q-8 5 -7 23q3 115 130 118 q25 0 102 -13q132 -23 264 -1q26 4 36 -1.5t3 -21.5l-29 -69q-8 -20 -22 -21q-190 -16 -312 -89zM444 -65q6 8 17 5q45 -17 74 -43q8 -8 3 -18l-48 -76q-8 -11 -18 -2q-5 4 -53 34l-33 -54q-7 -10 -18 -2q-5 3 -73 45q-11 6 -3 17l48 72q6 8 17 5q30 -10 56 -29z" />
<glyph unicode="&#x683;" horiz-adv-x="639" arabic-form="final" d="M83 151q5 123 130 124q40 0 117 -13q132 -23 264 -1q26 4 36 -1.5t3 -21.5l-29 -69q-8 -17 -22 -18q-62 -6 -103 -18q28 -39 159 -28q31 3 39 -34q6 -27 -5 -56q-11 -30 -31 -30q-135 0 -176 36t-35 99q-88 -18 -160 -61q-94 -56 -130 -131q-37 -77 -25 -144 q26 -149 202 -183q154 -30 397 1q40 5 40 -14q0 -14 -42 -28q-40 -13 -80 -42t-49 -33q-11 -5 -21 -6q-299 -36 -416 58q-94 75 -82 239q19 256 207 375q-95 14 -164 -20q-13 -6 -19 -1t-5 21zM420 -95q6 8 17 5q45 -17 74 -43q8 -8 3 -18l-48 -76q-8 -11 -18 -2 q-5 4 -53 34l-33 -54q-7 -10 -18 -2q-5 3 -73 45q-11 6 -3 17l48 72q6 8 17 5q30 -10 56 -29z" />
<glyph unicode="&#x683;" horiz-adv-x="655" arabic-form="initial" d="M6 222q9 35 46 70t71 35q38 0 165 -53q130 -54 287 -47q15 1 17 -9t-7 -30l-27 -62q-9 -18 -21 -17q-113 19 -216 -13q-108 -34 -181 -71q-79 -40 -140 -40q-16 0 -24 19q-14 36 -6 63q8 28 15 32t14 6q154 9 258 58q-142 64 -231 37q-14 -5 -19 0.5t-1 21.5zM327 -37 q6 8 17 5q45 -17 74 -43q8 -8 3 -18l-48 -76q-8 -11 -18 -2q-5 4 -53 34l-33 -54q-7 -10 -18 -2q-5 3 -73 45q-11 6 -3 17l48 72q6 8 17 5q30 -10 56 -29z" />
<glyph unicode="&#x683;" horiz-adv-x="610" arabic-form="medial" d="M12 222q27 108 131 108q50 0 147 -47q50 -24 129 -35q86 -13 160 -4q17 2 23.5 -3t2.5 -19l-22 -74q-6 -17 -28 -16q-64 5 -69 5q-7 -20 28 -28q31 -7 97 -6q29 1 37.5 -20.5t-4.5 -64.5q-10 -30 -32 -33q-81 -10 -132 8q-69 25 -37 141q-82 -8 -151 -34 q-81 -31 -161 -71q-91 -45 -131 -44q-23 0 -34 27t-4 57t36 36q85 15 145 40q56 23 98 35q-141 47 -197 18q-19 -10 -28 -6q-10 4 -4 30zM322 -31q6 8 17 5q45 -17 74 -43q8 -8 3 -18l-48 -76q-8 -11 -18 -2q-5 4 -53 34l-33 -54q-7 -10 -18 -2q-5 3 -73 45q-11 6 -3 17 l48 72q6 8 17 5q30 -10 56 -29z" />
<glyph unicode="&#x686;" horiz-adv-x="661" arabic-form="isolated" d="M270 59q-94 -56 -130 -131q-37 -77 -25 -144q26 -149 202 -183q150 -30 397 1q40 5 40 -14q0 -14 -42 -28q-40 -13 -80 -42t-49 -33q-11 -5 -21 -6q-299 -36 -416 58q-94 75 -82 239q19 256 207 375q-92 14 -149 -15q-10 -5 -17 -2q-8 5 -7 23q3 115 130 118 q25 0 102 -13q132 -23 264 -1q26 4 36 -1.5t3 -21.5l-29 -69q-8 -20 -22 -21q-190 -16 -312 -89zM369 -169q-6 -8 -17 -5q-43 16 -73 43q-9 7 -3 17l48 76q8 11 17 3q6 -5 46 -30l31 50q7 10 18 2q10 -7 72 -45q11 -8 4 -17l-49 -72q-12 -16 -66 20zM439 -280q-6 -8 -17 -5 q-43 16 -73 43q-9 8 -3 18l47 76q7 10 19 2q10 -8 72 -45q10 -7 3 -16z" />
<glyph unicode="&#x686;" horiz-adv-x="639" arabic-form="final" d="M83 151q5 123 130 124q40 0 117 -13q132 -23 264 -1q26 4 36 -1.5t3 -21.5l-29 -69q-8 -17 -22 -18q-62 -6 -103 -18q28 -39 159 -28q31 3 39 -34q6 -27 -5 -56q-11 -30 -31 -30q-135 0 -176 36t-35 99q-88 -18 -160 -61q-94 -56 -130 -131q-37 -77 -25 -144 q26 -149 202 -183q154 -30 397 1q40 5 40 -14q0 -14 -42 -28q-40 -13 -80 -42t-49 -33q-11 -5 -21 -6q-299 -36 -416 58q-94 75 -82 239q19 256 207 375q-95 14 -164 -20q-13 -6 -19 -1t-5 21zM369 -222q-6 -8 -17 -5q-43 16 -73 43q-9 7 -3 17l48 76q8 11 17 3q6 -5 46 -30 l31 50q7 10 18 2q10 -8 72 -45q11 -8 4 -17l-49 -72q-12 -16 -66 20zM439 -333q-6 -8 -17 -5q-43 16 -73 43q-9 7 -3 18l47 76q7 10 19 2q10 -7 72 -45q10 -7 3 -16z" />
<glyph unicode="&#x686;" horiz-adv-x="655" arabic-form="initial" d="M6 222q9 35 46 70t71 35q38 0 165 -53q130 -54 287 -47q15 1 17 -9t-7 -30l-27 -62q-9 -18 -21 -17q-113 19 -216 -13q-108 -34 -181 -71q-79 -40 -140 -40q-16 0 -24 19q-14 36 -6 63q8 28 15 32t14 6q154 9 258 58q-142 64 -231 37q-14 -5 -19 0.5t-1 21.5zM276 -189 q-6 -8 -17 -5q-43 16 -73 43q-9 7 -3 17l48 76q8 11 17 3q6 -5 46 -30l31 50q7 10 18 2q11 -7 72 -45q11 -8 4 -17l-49 -72q-12 -16 -66 20zM346 -300q-6 -8 -17 -5q-43 16 -73 43q-9 8 -3 18l47 76q7 10 19 2q11 -8 72 -45q10 -7 3 -16z" />
<glyph unicode="&#x686;" horiz-adv-x="610" arabic-form="medial" d="M12 222q27 108 131 108q50 0 147 -47q50 -24 129 -35q86 -13 160 -4q17 2 23.5 -3t2.5 -19l-22 -74q-6 -17 -28 -16q-64 5 -69 5q-7 -20 28 -28q31 -7 97 -6q29 1 37.5 -20.5t-4.5 -64.5q-10 -30 -32 -33q-81 -10 -132 8q-69 25 -37 141q-82 -8 -151 -34 q-81 -31 -161 -71q-91 -45 -131 -44q-23 0 -34 27t-4 57t36 36q85 15 145 40q56 23 98 35q-141 47 -197 18q-19 -10 -28 -6q-10 4 -4 30zM271 -183q-6 -8 -17 -5q-43 16 -73 43q-9 7 -3 17l48 76q8 11 17 3q6 -5 46 -30l31 50q7 10 18 2q10 -7 72 -45q11 -8 4 -17l-49 -72 q-12 -16 -66 20zM341 -294q-6 -8 -17 -5q-43 16 -73 43q-9 8 -3 18l47 76q7 10 19 2q10 -8 72 -45q10 -7 3 -16z" />
<glyph unicode="&#x687;" horiz-adv-x="661" arabic-form="isolated" d="M270 59q-94 -56 -130 -131q-37 -77 -25 -144q26 -149 202 -183q150 -30 397 1q40 5 40 -14q0 -14 -42 -28q-40 -13 -80 -42t-49 -33q-11 -5 -21 -6q-299 -36 -416 58q-94 75 -82 239q19 256 207 375q-92 14 -149 -15q-10 -5 -17 -2q-8 5 -7 23q3 115 130 118 q25 0 102 -13q132 -23 264 -1q26 4 36 -1.5t3 -21.5l-29 -69q-8 -20 -22 -21q-190 -16 -312 -89zM418 -12q5 7 17 4q43 -16 73 -43q8 -8 3 -18l-41 -64q28 -13 53 -35q8 -8 3 -18l-48 -76q-8 -11 -18 -2q-5 4 -53 34l-33 -54q-7 -10 -18 -2q-5 3 -73 45q-11 6 -3 17l44 66 q-15 10 -55 34q-11 7 -4 17l49 72q6 8 17 5q28 -10 55 -29zM366 -156q24 -12 35 -20l27 41q-15 10 -35 22z" />
<glyph unicode="&#x687;" horiz-adv-x="639" arabic-form="final" d="M83 151q5 123 130 124q40 0 117 -13q132 -23 264 -1q26 4 36 -1.5t3 -21.5l-29 -69q-8 -17 -22 -18q-62 -6 -103 -18q28 -39 159 -28q31 3 39 -34q6 -27 -5 -56q-11 -30 -31 -30q-135 0 -176 36t-35 99q-88 -18 -160 -61q-94 -56 -130 -131q-37 -77 -25 -144 q26 -149 202 -183q154 -30 397 1q40 5 40 -14q0 -14 -42 -28q-40 -13 -80 -42t-49 -33q-11 -5 -21 -6q-299 -36 -416 58q-94 75 -82 239q19 256 207 375q-95 14 -164 -20q-13 -6 -19 -1t-5 21zM418 -46q5 7 17 4q43 -16 73 -43q8 -8 3 -18l-41 -64q28 -13 53 -35q8 -8 3 -18 l-48 -76q-8 -11 -18 -2q-5 4 -53 34l-33 -54q-7 -10 -18 -2q-5 3 -73 45q-11 6 -3 17l44 66q-15 10 -55 34q-11 7 -4 17l49 72q6 8 17 5q28 -10 55 -29zM366 -190q24 -12 35 -20l27 41q-15 10 -35 22z" />
<glyph unicode="&#x687;" horiz-adv-x="655" arabic-form="initial" d="M6 222q9 35 46 70t71 35q38 0 165 -53q130 -54 287 -47q15 1 17 -9t-7 -30l-27 -62q-9 -18 -21 -17q-113 19 -216 -13q-108 -34 -181 -71q-79 -40 -140 -40q-16 0 -24 19q-14 36 -6 63q8 28 15 32t14 6q154 9 258 58q-142 64 -231 37q-14 -5 -19 0.5t-1 21.5zM325 -13 q5 7 17 4q43 -16 73 -43q8 -8 3 -18l-41 -64q28 -13 53 -35q8 -8 3 -18l-48 -76q-8 -11 -18 -2q-5 4 -53 34l-33 -54q-7 -10 -18 -2q-5 3 -73 45q-11 6 -3 17l44 66q-15 10 -55 34q-11 7 -4 17l49 72q6 8 17 5q28 -10 55 -29zM273 -157q24 -12 35 -20l27 41q-15 10 -35 22z " />
<glyph unicode="&#x687;" horiz-adv-x="610" arabic-form="medial" d="M12 222q27 108 131 108q50 0 147 -47q50 -24 129 -35q86 -13 160 -4q17 2 23.5 -3t2.5 -19l-22 -74q-6 -17 -28 -16q-64 5 -69 5q-7 -20 28 -28q31 -7 97 -6q29 1 37.5 -20.5t-4.5 -64.5q-10 -30 -32 -33q-81 -10 -132 8q-69 25 -37 141q-82 -8 -151 -34 q-81 -31 -161 -71q-91 -45 -131 -44q-23 0 -34 27t-4 57t36 36q85 15 145 40q56 23 98 35q-141 47 -197 18q-19 -10 -28 -6q-10 4 -4 30zM321 -7q5 7 17 4q43 -16 73 -43q8 -8 3 -18l-41 -64q28 -13 53 -35q8 -8 3 -18l-48 -76q-8 -11 -18 -2q-5 4 -53 34l-33 -54 q-7 -10 -18 -2q-5 3 -73 45q-11 6 -3 17l44 66q-15 10 -55 34q-11 7 -4 17l49 72q6 8 17 5q28 -10 55 -29zM269 -151q24 -12 35 -20l27 41q-15 10 -35 22z" />
<glyph unicode="&#x68d;" horiz-adv-x="450" arabic-form="isolated" d="M180 285q-20 9 -8 44q9 26 25 58q12 24 32 13q123 -72 150 -207q14 -76 -4 -126q-10 -33 -30 -41q-106 -43 -180 -47q-55 -4 -75 26t-4 94q6 25 19 25q9 0 17 -12t91 -2t130 33q-15 76 -163 142zM273 -85q6 8 17 5q45 -17 74 -43q8 -8 3 -18l-48 -76q-8 -11 -18 -2 q-5 4 -53 34l-33 -54q-7 -10 -18 -2q-5 3 -73 45q-11 6 -3 17l48 72q6 8 17 5q30 -10 56 -29z" />
<glyph unicode="&#x68d;" horiz-adv-x="471" arabic-form="final" d="M504 69q7 -28 0 -52q-11 -32 -33 -32q-77 2 -103 134q-32 -76 -76 -96q-39 -18 -132 -18q-137 0 -82 151q6 16 17 16q9 0 17 -19q7 -18 23 -21q94 -15 167 13q39 15 47 44q0 14 -13 104q-13 92 -15 113q-1 20 9 45l23 51q6 14 17 14q10 0 12 -16q30 -246 49 -317 q19 -73 40 -79q26 -8 33 -35zM273 -60q6 8 17 5q45 -17 74 -43q8 -8 3 -18l-48 -76q-8 -11 -18 -2q-5 4 -53 34l-33 -54q-7 -10 -18 -2q-5 3 -73 45q-11 6 -3 17l48 72q6 8 17 5q30 -10 56 -29z" />
<glyph unicode="&#x68c;" horiz-adv-x="450" arabic-form="isolated" d="M180 285q-20 9 -8 44q9 26 25 58q12 24 32 13q123 -72 150 -207q14 -76 -4 -126q-10 -33 -30 -41q-106 -43 -180 -47q-55 -4 -75 26t-4 94q6 25 19 25q9 0 17 -12t91 -2t130 33q-15 76 -163 142zM232 671q6 8 17 5q45 -17 74 -43q8 -8 3 -18l-48 -76q-8 -11 -18 -2 q-5 4 -53 34l-33 -54q-7 -10 -18 -2q-5 3 -73 45q-11 6 -3 17l48 72q6 8 17 5q30 -10 56 -29z" />
<glyph unicode="&#x68c;" horiz-adv-x="471" arabic-form="final" d="M504 69q7 -28 0 -52q-11 -32 -33 -32q-77 2 -103 134q-32 -76 -76 -96q-39 -18 -132 -18q-137 0 -82 151q6 16 17 16q9 0 17 -19q7 -18 23 -21q94 -15 167 13q39 15 47 44q0 14 -13 104q-13 92 -15 113q-1 20 9 45l23 51q6 14 17 14q10 0 12 -16q30 -246 49 -317 q19 -73 40 -79q26 -8 33 -35zM361 719q6 8 17 5q45 -17 74 -43q8 -8 3 -18l-48 -76q-8 -11 -18 -2q-5 4 -53 34l-33 -54q-7 -10 -18 -2q-5 3 -73 45q-11 6 -3 17l48 72q6 8 17 5q30 -10 56 -29z" />
<glyph unicode="&#x68e;" horiz-adv-x="450" arabic-form="isolated" d="M180 285q-20 9 -8 44q9 26 25 58q12 24 32 13q123 -72 150 -207q14 -76 -4 -126q-10 -33 -30 -41q-106 -43 -180 -47q-55 -4 -75 26t-4 94q6 25 19 25q9 0 17 -12t91 -2t130 33q-15 76 -163 142zM228 671q6 9 18 5q43 -16 73 -43q8 -8 3 -18l-48 -76q-8 -11 -17 -3 q-6 5 -46 30l-31 -49q-8 -11 -18 -3q-14 10 -73 46q-10 6 -3 16l48 72q12 17 66 -19zM158 783q6 8 17 5q43 -16 73 -43q8 -8 3 -18l-48 -76q-7 -10 -18 -2q-11 7 -72 45q-11 6 -4 16z" />
<glyph unicode="&#x68e;" horiz-adv-x="471" arabic-form="final" d="M504 69q7 -28 0 -52q-11 -32 -33 -32q-77 2 -103 134q-32 -76 -76 -96q-39 -18 -132 -18q-137 0 -82 151q6 16 17 16q9 0 17 -19q7 -18 23 -21q94 -15 167 13q39 15 47 44q0 14 -13 104q-13 92 -15 113q-1 20 9 45l23 51q6 14 17 14q10 0 12 -16q30 -246 49 -317 q19 -73 40 -79q26 -8 33 -35zM357 719q6 9 18 5q43 -16 73 -43q8 -8 3 -18l-48 -76q-8 -11 -17 -3q-6 5 -46 30l-31 -49q-7 -11 -18 -3q-14 10 -73 46q-10 6 -3 16l48 72q12 17 66 -19zM287 831q6 8 17 5q43 -16 73 -43q8 -8 3 -18l-48 -76q-7 -10 -18 -2q-10 7 -72 45 q-11 6 -4 16z" />
<glyph unicode="&#x688;" horiz-adv-x="450" arabic-form="isolated" d="M180 285q-20 9 -8 44q9 26 25 58q12 24 32 13q123 -72 150 -207q14 -76 -4 -126q-10 -33 -30 -41q-106 -43 -180 -47q-55 -4 -75 26t-4 94q6 25 19 25q9 0 17 -12t91 -2t130 33q-15 76 -163 142zM169 845q16 7 20 -18q17 -125 13 -182q22 22 52 44q29 21 54 11t37 -40 q12 -31 -27 -81q-8 -10 -67 -29q-53 -17 -118 -20h-2q-28 4 -49 24t-21 30q1 8 12 8q41 -4 71 -1l23 23q3 68 -17 191q0 5 6 20q6 16 13 20zM255 641q-12 -5 -55 -43q49 10 98 33q-15 20 -43 10z" />
<glyph unicode="&#x688;" horiz-adv-x="471" arabic-form="final" d="M504 69q7 -28 0 -52q-11 -32 -33 -32q-77 2 -103 134q-32 -76 -76 -96q-39 -18 -132 -18q-137 0 -82 151q6 16 17 16q9 0 17 -19q7 -18 23 -21q94 -15 167 13q39 15 47 44q0 14 -13 104q-13 92 -15 113q-1 20 9 45l23 51q6 14 17 14q10 0 12 -16q30 -246 49 -317 q19 -73 40 -79q26 -8 33 -35zM298 894q16 7 20 -18q17 -125 13 -182q22 22 52 44q29 21 54 11t37 -40q12 -31 -27 -81q-8 -10 -67 -29q-53 -17 -118 -20h-2q-28 4 -49 24q-21 19 -21 30q1 8 12 8q41 -4 71 -1l23 23q3 68 -17 191q0 5 6 20q6 16 13 20zM384 690 q-12 -5 -55 -43q49 10 98 33q-15 20 -43 10z" />
<glyph unicode="&#x698;" horiz-adv-x="399" arabic-form="isolated" d="M237 295q3 8 7 11q12 3 32 -23q34 -42 54 -113q46 -168 -60 -306q-62 -80 -152 -104q-33 -9 -56 2q-80 34 -138 62q-16 9 -11 20q6 12 22 8q68 -20 108 -10q43 11 110 51q118 71 143 138q1 2 1 6q-9 47 -85 126q-7 7 -4 19zM207 543q6 9 18 5q43 -16 73 -43q8 -8 3 -18 l-48 -76q-8 -11 -17 -3q-6 5 -46 30l-31 -49q-7 -11 -18 -3q-14 10 -73 46q-10 6 -3 16l48 72q12 17 66 -19zM137 655q6 8 17 5q43 -16 73 -43q8 -8 3 -18l-48 -76q-7 -10 -18 -2q-10 7 -72 45q-11 6 -4 16z" />
<glyph unicode="&#x698;" horiz-adv-x="343" arabic-form="final" d="M216 68l37 87q14 34 31 2q20 -37 22 -41q6 -9 38 -11q36 -2 38 -59q0 -59 -37 -61h-34q-7 -111 -69 -191q-60 -78 -121 -87q-62 -9 -122 17q-56 25 -75 36q-15 9 -9 19q5 11 21 6q58 -15 106 -3q85 21 152 91q66 69 71 101q2 13 -41 56q-17 17 -8 38zM197 482q6 9 18 5 q43 -16 73 -43q8 -8 3 -18l-48 -76q-8 -11 -17 -3q-6 5 -46 30l-31 -49q-7 -10 -18 -3q-14 10 -73 46q-10 6 -3 16l48 72q12 17 66 -19zM127 594q6 8 17 5q43 -16 73 -43q8 -8 3 -18l-48 -76q-7 -10 -18 -2q-10 8 -72 45q-11 6 -4 16z" />
<glyph unicode="&#x691;" horiz-adv-x="399" arabic-form="isolated" d="M237 295q3 8 7 11q12 3 32 -23q34 -42 54 -113q46 -168 -60 -306q-62 -80 -152 -104q-33 -9 -56 2q-80 34 -138 62q-16 9 -11 20q6 12 22 8q68 -20 108 -10q43 11 110 51q118 71 143 138q1 2 1 6q-9 47 -85 126q-7 7 -4 19zM124 742q16 7 20 -18q17 -125 13 -182 q22 22 52 44q29 21 54 11t37 -40q12 -31 -27 -81q-8 -10 -67 -29q-53 -17 -118 -20h-2q-28 4 -49 24q-21 19 -21 30q1 8 12 8q41 -4 71 -1l23 23q3 68 -17 191q0 5 6 20q6 16 13 20zM210 538q-12 -5 -55 -43q49 10 98 33q-15 20 -43 10z" />
<glyph unicode="&#x691;" horiz-adv-x="343" arabic-form="final" d="M216 68l37 87q14 34 31 2q20 -37 22 -41q6 -9 38 -11q36 -2 38 -59q0 -59 -37 -61h-34q-7 -111 -69 -191q-60 -78 -121 -87q-62 -9 -122 17q-56 25 -75 36q-15 9 -9 19q5 11 21 6q58 -15 106 -3q85 21 152 91q66 69 71 101q2 13 -41 56q-17 17 -8 38zM138 608 q16 7 20 -18q17 -125 13 -182q22 22 52 44q29 21 54 11t37 -40q12 -31 -27 -81q-8 -10 -67 -29q-53 -17 -118 -20h-2q-28 4 -49 24q-21 19 -21 30q1 8 12 8q41 -4 71 -1l23 23q3 68 -17 191q0 5 6 20q6 16 13 20zM224 404q-12 -5 -55 -43q49 10 98 33q-15 20 -43 10z" />
<glyph unicode="&#x6a9;" horiz-adv-x="1202" arabic-form="isolated" d="M792 166q-90 120 -190 159q-24 9 -27 83q-3 77 35 110q153 139 515 248q13 4 18.5 -0.5t1.5 -16.5l-24 -88q-6 -22 -23 -28q-385 -134 -482 -202q209 -113 209 -259q0 -164 -257 -223q-134 -30 -235 -30q-251 -1 -269 171q-4 36 10 90q14 51 31 73t28 14q11 -7 -3 -33 q-50 -92 11 -136q100 -72 318 -45q233 28 333 113z" />
<glyph unicode="&#x6a9;" horiz-adv-x="1132" arabic-form="final" d="M798 168q-21 73 -208 167q-20 33 -18 96q0 41 12 58q117 172 503 339q17 8 23 1.5t2 -25.5l-21 -87q-3 -15 -21 -24q-323 -161 -448 -266q183 -80 343 -225q99 -90 168 -98q55 -6 28 -91q-9 -28 -30 -28q-84 0 -219 143q-50 52 -79 74q0 -38 -3 -56q-22 -143 -262 -197 q-134 -30 -235 -30q-252 -2 -269 171q-4 36 10 90q14 51 31 73t28 14q11 -7 -3 -33q-50 -92 11 -136q100 -72 318 -45q226 27 339 115z" />
<glyph unicode="&#x6a9;" horiz-adv-x="659" arabic-form="initial" d="M2 105q159 -21 247 61q-90 120 -190 159q-24 9 -27 83q-3 76 34 110q152 139 516 248q13 4 18 0t1 -17l-24 -88q-6 -22 -23 -28q-385 -134 -482 -202q209 -113 209 -259q0 -150 -102 -176q-109 -27 -190 -12q-22 4 -27 35q-6 47 -4 54q11 37 44 32z" />
<glyph unicode="&#x6a9;" horiz-adv-x="588" arabic-form="medial" d="M-42 60q0 49 55 44q156 -12 241 64q-21 74 -207 167q-20 35 -19 96q0 40 13 58q120 175 503 339q15 7 22 2t2 -26l-20 -87q-4 -15 -21 -24q-323 -161 -448 -266q181 -79 342 -225q99 -90 168 -98q55 -6 28 -91q-9 -28 -30 -28q-83 0 -218 143q-47 48 -80 74q0 -38 -3 -56 q-25 -167 -239 -167q-35 0 -58 5q-31 7 -31 76z" />
<glyph unicode="&#x6af;" horiz-adv-x="1202" arabic-form="isolated" d="M792 166q-90 120 -190 159q-24 9 -27 83q-3 77 35 110q153 139 515 248q13 4 18.5 -0.5t1.5 -16.5l-24 -88q-6 -22 -23 -28q-385 -134 -482 -202q209 -113 209 -259q0 -164 -257 -223q-134 -30 -235 -30q-251 -1 -269 171q-4 36 10 90q14 51 31 73t28 14q11 -7 -3 -33 q-50 -92 11 -136q100 -72 318 -45q233 28 333 113zM656 628q-12 -6 -21 -1q-17 11 -2 32q32 44 56 55q165 79 445 161q10 3 22 -8q11 -10 -13 -39q-4 -5 -9 -10q-23 -27 -44 -33q-183 -49 -434 -157z" />
<glyph unicode="&#x6af;" horiz-adv-x="1132" arabic-form="final" d="M798 168q-21 73 -208 167q-20 33 -18 96q0 41 12 58q117 172 503 339q17 8 23 1.5t2 -25.5l-21 -87q-3 -15 -21 -24q-323 -161 -448 -266q183 -80 343 -225q99 -90 168 -98q55 -6 28 -91q-9 -28 -30 -28q-84 0 -219 143q-50 52 -79 74q0 -38 -3 -56q-22 -143 -262 -197 q-134 -30 -235 -30q-252 -2 -269 171q-4 36 10 90q14 51 31 73t28 14q11 -7 -3 -33q-50 -92 11 -136q100 -72 318 -45q226 27 339 115zM659 665q-11 -6 -20 -3q-20 8 -7 31q23 43 51 61q156 97 425 208q11 5 22 -5q12 -11 -9 -41q-2 -3 -4.5 -6t-2.5 -4q-22 -32 -41 -39 q-184 -72 -414 -202z" />
<glyph unicode="&#x6af;" horiz-adv-x="659" arabic-form="initial" d="M2 105q159 -21 247 61q-90 120 -190 159q-24 9 -27 83q-3 76 34 110q152 139 516 248q13 4 18 0t1 -17l-24 -88q-6 -22 -23 -28q-385 -134 -482 -202q209 -113 209 -259q0 -150 -102 -176q-109 -27 -190 -12q-22 4 -27 35q-6 47 -4 54q11 37 44 32zM112 628 q-12 -6 -21 -1q-17 11 -2 32q32 44 56 55q165 79 445 161q10 3 22 -8q11 -10 -13 -39q-4 -5 -9 -10q-23 -27 -44 -33q-183 -49 -434 -157z" />
<glyph unicode="&#x6af;" horiz-adv-x="588" arabic-form="medial" d="M-42 60q0 49 55 44q156 -12 241 64q-21 74 -207 167q-20 35 -19 96q0 40 13 58q120 175 503 339q15 7 22 2t2 -26l-20 -87q-4 -15 -21 -24q-323 -161 -448 -266q181 -79 342 -225q99 -90 168 -98q55 -6 28 -91q-9 -28 -30 -28q-83 0 -218 143q-47 48 -80 74q0 -38 -3 -56 q-25 -167 -239 -167q-35 0 -58 5q-31 7 -31 76zM116 665q-11 -6 -20 -3q-20 8 -7 31q23 43 51 61q156 97 425 208q11 5 22 -5q12 -11 -9 -41q-2 -3 -4.5 -6t-2.5 -4q-22 -32 -41 -39q-184 -72 -414 -202z" />
<glyph unicode="&#x6b3;" horiz-adv-x="1202" arabic-form="isolated" d="M792 166q-90 120 -190 159q-24 9 -27 83q-3 77 35 110q153 139 515 248q13 4 18.5 -0.5t1.5 -16.5l-24 -88q-6 -22 -23 -28q-385 -134 -482 -202q209 -113 209 -259q0 -164 -257 -223q-64 -14 -107 -20q33 -13 61 -38q9 -9 3 -19l-28 -44q24 -12 45 -30q8 -8 3 -18 l-48 -76q-7 -10 -18 -2t-72 45q-11 7 -4 17l32 47q-7 4 -23.5 14t-24.5 15q-10 6 -3 16l45 69q-49 -6 -96 -6q-251 -1 -269 171q-4 36 10 90q14 51 31 73t28 14q11 -7 -3 -33q-50 -92 11 -136q100 -72 318 -45q233 28 333 113zM656 628q-12 -6 -21 -1q-17 11 -2 32 q32 44 56 55q165 79 445 161q10 3 22 -8q11 -10 -13 -39q-4 -5 -9 -10q-23 -27 -44 -33q-183 -49 -434 -157z" />
<glyph unicode="&#x6b3;" horiz-adv-x="1132" arabic-form="final" d="M798 168q-21 73 -208 167q-20 33 -18 96q0 41 12 58q117 172 503 339q17 8 23 1.5t2 -25.5l-21 -87q-3 -15 -21 -24q-323 -161 -448 -266q183 -80 343 -225q99 -90 168 -98q55 -6 28 -91q-9 -28 -30 -28q-84 0 -219 143q-50 52 -79 74q0 -38 -3 -56q-22 -143 -262 -197 q-64 -14 -107 -20q33 -13 61 -38q9 -9 3 -19l-28 -44q24 -12 45 -30q8 -8 3 -18l-48 -76q-7 -10 -18 -2t-72 45q-11 7 -4 17l32 47q-7 4 -23.5 14t-24.5 15q-10 6 -3 16l45 69q-49 -6 -96 -6q-252 -2 -269 171q-4 36 10 90q14 51 31 73t28 14q11 -7 -3 -33q-50 -92 11 -136 q100 -72 318 -45q226 27 339 115zM659 665q-11 -6 -20 -3q-20 8 -7 31q23 43 51 61q156 97 425 208q11 5 22 -5q12 -11 -9 -41q-2 -3 -4.5 -6t-2.5 -4q-22 -32 -41 -39q-184 -72 -414 -202z" />
<glyph unicode="&#x6b3;" horiz-adv-x="659" arabic-form="initial" d="M2 105q159 -21 247 61q-90 120 -190 159q-24 9 -27 83q-3 76 34 110q152 139 516 248q13 4 18 0t1 -17l-24 -88q-6 -22 -23 -28q-385 -134 -482 -202q209 -113 209 -259q0 -150 -102 -176q-12 -3 -47 -10q40 -16 68 -41q9 -9 3 -19l-28 -44q24 -12 45 -30q8 -8 3 -18 l-48 -76q-7 -10 -18 -2t-72 45q-11 7 -4 17l32 47q-7 4 -23.5 14t-24.5 15q-10 6 -3 16l48 73q-69 -9 -121 1q-22 4 -27 35q-6 47 -4 54q11 37 44 32zM112 628q-12 -6 -21 -1q-17 11 -2 32q32 44 56 55q165 79 445 161q10 3 22 -8q11 -10 -13 -39q-4 -5 -9 -10 q-23 -27 -44 -33q-183 -49 -434 -157z" />
<glyph unicode="&#x6b3;" horiz-adv-x="588" arabic-form="medial" d="M-42 60q0 49 55 44q156 -12 241 64q-21 74 -207 167q-20 35 -19 96q0 40 13 58q120 175 503 339q15 7 22 2t2 -26l-20 -87q-4 -15 -21 -24q-323 -161 -448 -266q181 -79 342 -225q99 -90 168 -98q55 -6 28 -91q-9 -28 -30 -28q-83 0 -218 143q-47 48 -80 74q0 -38 -3 -56 q-25 -167 -239 -167q-35 0 -58 5q-31 7 -31 76zM116 665q-11 -6 -20 -3q-20 8 -7 31q23 43 51 61q156 97 425 208q11 5 22 -5q12 -11 -9 -41q-2 -3 -4.5 -6t-2.5 -4q-22 -32 -41 -39q-184 -72 -414 -202zM349 -35q6 8 17 5q43 -16 73 -43q9 -9 3 -19l-28 -44q24 -12 45 -30 q8 -8 3 -18l-48 -76q-7 -10 -18 -2q-10 8 -72 45q-11 7 -4 17l32 47q-7 4 -23.5 14t-24.5 15q-10 6 -3 16z" />
<glyph unicode="&#x6b1;" horiz-adv-x="1202" arabic-form="isolated" d="M792 166q-90 120 -190 159q-24 9 -27 83q-3 77 35 110q153 139 515 248q13 4 18.5 -0.5t1.5 -16.5l-24 -88q-6 -22 -23 -28q-385 -134 -482 -202q209 -113 209 -259q0 -164 -257 -223q-134 -30 -235 -30q-251 -1 -269 171q-4 36 10 90q14 51 31 73t28 14q11 -7 -3 -33 q-50 -92 11 -136q100 -72 318 -45q233 28 333 113zM656 628q-12 -6 -21 -1q-17 11 -2 32q32 44 56 55q165 79 445 161q10 3 22 -8q11 -10 -13 -39q-4 -5 -9 -10q-23 -27 -44 -33q-183 -49 -434 -157zM569 781q6 8 17 5q45 -17 74 -43q8 -8 3 -18l-48 -76q-8 -11 -18 -2 q-5 4 -53 34l-33 -54q-7 -10 -18 -2q-5 3 -73 45q-11 6 -3 17l48 72q6 8 17 5q30 -10 56 -29z" />
<glyph unicode="&#x6b1;" horiz-adv-x="1132" arabic-form="final" d="M798 168q-21 73 -208 167q-20 33 -18 96q0 41 12 58q117 172 503 339q17 8 23 1.5t2 -25.5l-21 -87q-3 -15 -21 -24q-323 -161 -448 -266q183 -80 343 -225q99 -90 168 -98q55 -6 28 -91q-9 -28 -30 -28q-84 0 -219 143q-50 52 -79 74q0 -38 -3 -56q-22 -143 -262 -197 q-134 -30 -235 -30q-252 -2 -269 171q-4 36 10 90q14 51 31 73t28 14q11 -7 -3 -33q-50 -92 11 -136q100 -72 318 -45q226 27 339 115zM569 793q6 8 17 5q45 -17 74 -43q8 -8 3 -18q13 13 20 17q156 97 425 208q11 5 22 -5q12 -11 -9 -41q-2 -3 -4.5 -6t-2.5 -4 q-22 -32 -41 -39q-184 -72 -414 -202q-11 -6 -20 -3q-14 6 -11 19l-13 -20q-8 -11 -18 -2q-5 4 -53 34l-33 -54q-7 -10 -18 -2q-5 3 -73 45q-11 6 -3 17l48 72q6 8 17 5q30 -10 56 -29z" />
<glyph unicode="&#x6b1;" horiz-adv-x="659" arabic-form="initial" d="M2 105q159 -21 247 61q-90 120 -190 159q-24 9 -27 83q-3 76 34 110q152 139 516 248q13 4 18 0t1 -17l-24 -88q-6 -22 -23 -28q-385 -134 -482 -202q209 -113 209 -259q0 -150 -102 -176q-109 -27 -190 -12q-22 4 -27 35q-6 47 -4 54q11 37 44 32zM74 781q6 8 17 5 q45 -17 74 -43q8 -8 3 -18l-27 -43q29 40 53 51q165 79 445 161q10 3 22 -8q11 -10 -13 -39q-4 -5 -9 -10q-23 -27 -44 -33q-183 -49 -434 -157q-11 -6 -21 -1q-13 9 -7 24l-13 -21q-8 -11 -18 -2q-5 4 -53 34l-33 -54q-7 -10 -18 -2q-5 3 -73 45q-11 6 -3 17l48 72 q6 8 17 5q30 -10 56 -29z" />
<glyph unicode="&#x6b1;" horiz-adv-x="588" arabic-form="medial" d="M-42 60q0 49 55 44q156 -12 241 64q-21 74 -207 167q-20 35 -19 96q0 40 13 58q120 175 503 339q15 7 22 2t2 -26l-20 -87q-4 -15 -21 -24q-323 -161 -448 -266q181 -79 342 -225q99 -90 168 -98q55 -6 28 -91q-9 -28 -30 -28q-83 0 -218 143q-47 48 -80 74q0 -38 -3 -56 q-25 -167 -239 -167q-35 0 -58 5q-31 7 -31 76zM74 793q6 8 17 5q45 -17 74 -43l1 -1q14 15 27 24q156 97 425 208q11 5 22 -5q12 -11 -9 -41q-2 -3 -4.5 -6t-2.5 -4q-22 -32 -41 -39q-184 -72 -414 -202q-11 -6 -20 -3q-7 3 -9 7l-20 -32q-8 -11 -18 -2q-5 4 -53 34 l-33 -54q-7 -10 -18 -2q-5 3 -73 45q-11 6 -3 17l48 72q6 8 17 5q30 -10 56 -29z" />
<glyph unicode="&#x6ba;" horiz-adv-x="572" arabic-form="isolated" d="M456 458q75 -152 53 -338q-6 -48 -32 -87q-64 -97 -204 -112q-97 -10 -154 44q-56 54 -55 142q2 92 58 174q12 17 20 9q10 -10 0 -26q-54 -95 -18 -155q35 -58 142 -57q133 2 208 81q-4 87 -84 221q-12 20 -6 31l37 84q14 32 35 -11z" />
<glyph unicode="&#x6ba;" horiz-adv-x="615" arabic-form="final" d="M518 154q12 26 32 12q9 -7 36 -49q6 -12 29 -12q24 0 34 -23q11 -25 -1 -56q-12 -32 -19 -36q-8 -5 -14 -5h-22q-6 -72 -52 -165q-81 -166 -282 -171q-85 -1 -143 53q-58 55 -53 136q4 81 73 206q10 18 19 12q10 -7 1 -23q-44 -88 -43 -125q7 -120 158 -121 q165 -2 248 83q13 108 -27 198q-8 15 3 36z" />
<glyph unicode="&#x6bb;" horiz-adv-x="572" arabic-form="isolated" d="M456 458q75 -152 53 -338q-6 -48 -32 -87q-64 -97 -204 -112q-97 -10 -154 44q-56 54 -55 142q2 92 58 174q12 17 20 9q10 -10 0 -26q-54 -95 -18 -155q35 -58 142 -57q133 2 208 81q-4 87 -84 221q-12 20 -6 31l37 84q14 32 35 -11zM233 796q16 7 20 -18 q17 -125 13 -182q22 22 52 44q29 21 54 11t37 -40q12 -31 -27 -81q-8 -10 -67 -29q-53 -17 -118 -20h-2q-28 4 -49 24q-21 19 -21 30q1 8 12 8q41 -4 71 -1l23 23q3 68 -17 191q0 5 6 20q6 16 13 20zM319 592q-12 -5 -55 -43q49 10 98 33q-15 20 -43 10z" />
<glyph unicode="&#x6bb;" horiz-adv-x="615" arabic-form="final" d="M518 154q12 26 32 12q9 -7 36 -49q6 -12 29 -12q24 0 34 -23q11 -25 -1 -56q-12 -32 -19 -36q-8 -5 -14 -5h-22q-6 -72 -52 -165q-81 -166 -282 -171q-85 -1 -143 53q-58 55 -53 136q4 81 73 206q10 18 19 12q10 -7 1 -23q-44 -88 -43 -125q7 -120 158 -121 q165 -2 248 83q13 108 -27 198q-8 15 3 36zM296 503q16 7 20 -18q17 -125 13 -182q22 22 52 44q29 21 54 11t37 -40q12 -31 -27 -81q-8 -10 -67 -29q-53 -17 -118 -20h-2q-28 4 -49 24q-21 19 -21 30q1 8 12 8q41 -4 71 -1l23 23q3 68 -17 191q0 5 6 20q6 16 13 20zM382 299 q-12 -5 -55 -43q49 10 98 33q-15 20 -43 10z" />
<glyph unicode="&#x6bb;" horiz-adv-x="190" arabic-form="initial" d="M49 650q16 7 20 -18q17 -125 13 -182q22 22 52 44q29 21 54 11t37 -40q12 -31 -27 -81q-8 -10 -67 -29q-53 -17 -118 -20h-2q-28 4 -49 24q-21 19 -21 30q1 8 12 8q41 -4 71 -1l23 23q3 68 -17 191q0 5 6 20q6 16 13 20zM51 213l29 62q15 33 26 13q49 -83 23 -194 q-25 -109 -129 -109q-20 0 -29 34q-8 29 -8 54q0 20 21 29q7 3 16 3q56 -1 84 23q-6 27 -23 45q-19 21 -10 40zM135 446q-12 -5 -55 -43q49 10 98 33q-15 20 -43 10z" />
<glyph unicode="&#x6bb;" horiz-adv-x="244" arabic-form="medial" d="M182 145q31 -38 62 -41q28 -3 32 -20q3 -12 0 -42q-2 -24 -11 -43q-6 -14 -21 -14q-56 0 -108 64q-62 -64 -136 -64q-21 0 -27 27l-9 41q-3 16 8 33q11 18 28 19q119 9 146 59q9 15 19 15q15 0 15 -17q0 -5 0.5 -9t1.5 -6v-2zM86 635q16 7 20 -18q17 -125 13 -182 q22 22 52 44q29 21 54 11t37 -40q12 -31 -27 -81q-8 -10 -67 -29q-53 -17 -118 -20h-2q-28 4 -49 24t-21 30q1 8 12 8q41 -4 71 -1l23 23q3 68 -17 191q0 5 6 20q6 16 13 20zM172 431q-12 -5 -55 -43q49 10 98 33q-15 20 -43 10z" />
<glyph unicode="&#x6c0;" horiz-adv-x="369" arabic-form="isolated" d="M149 337q26 17 57 -1q69 -40 93 -104t8 -132q-32 -137 -142 -139q-78 0 -98 56q-20 57 4 143q25 89 67 146q2 26 11 31zM255 541q-53 -10 -76 -18t-83 -34q-18 -8 -28 7q-14 23 30 53q-29 18 -34 41q-8 44 36 104q44 61 95 56q37 -3 34 -39q-3 -34 -15 -51t-15 -19 q-14 -10 -25 5q-11 16 -26 17q-16 1 -24 -8q-7 -9 0 -16q31 -29 93 -31q11 0 30 4q23 5 30 5q10 0 17 -10q5 -9 2 -18q-21 -43 -41 -48zM258 122q-37 58 -98 60q-27 2 -39 -21q-33 -60 52 -60q55 0 85 21z" />
<glyph unicode="&#x6c0;" horiz-adv-x="379" arabic-form="final" d="M259 464q23 30 28 -27l29 -240q5 -47 21 -70t42 -22q24 0 33 -22q9 -24 -2 -61t-31 -37q-62 0 -88 32q-25 31 -36 109q-38 -57 -53 -64q-14 -7 -51 -4q-48 3 -82 25q-22 14 -19 43t22 64q21 38 32 51q48 51 121 92q-8 79 4 94zM270 546q-53 -10 -76 -18t-83 -34 q-18 -8 -28 7q-14 23 30 53q-29 18 -34 41q-8 44 36 104q44 61 95 56q37 -3 34 -39q-3 -34 -15 -51t-15 -19q-14 -10 -25 5q-11 16 -26 17q-16 1 -24 -8q-7 -9 0 -16q31 -29 93 -31q11 0 30 4q23 5 30 5q10 0 17 -10q5 -9 2 -18q-21 -43 -41 -48zM234 261q-76 -24 -104 -64 q-4 -6 3 -10q50 -21 112 -4q-10 68 -11 78z" />
<glyph unicode="&#x6c1;" horiz-adv-x="369" arabic-form="isolated" d="M149 337q26 17 57 -1q69 -40 93 -104t8 -132q-32 -137 -142 -139q-78 0 -98 56q-20 57 4 143q25 89 67 146q2 26 11 31zM258 122q-37 58 -98 60q-27 2 -39 -21q-33 -60 52 -60q55 0 85 21z" />
<glyph unicode="&#x6c1;" horiz-adv-x="408" arabic-form="final" d="M421 105q17 -1 24 -6q19 -12 -1 -68q-15 -44 -49 -45q-115 -6 -184 90q-5 4 -9 3q-12 -10 -53 -60q-38 -46 -59 -69q-16 -18 -25 -12t0 21q47 79 95 149q52 75 68 91q29 29 51 0q30 -42 67 -67q38 -26 75 -27z" />
<glyph unicode="&#x6c1;" horiz-adv-x="452" arabic-form="initial" d="M136 79q-85 -94 -136 -94q-18 0 -29 24q-35 89 29 96q40 4 62 16q-30 24 -14 72q18 54 58 98q-5 3 -17 4t-15 12q-3 12 -2 19q26 99 76 99t147 -92q96 -92 107 -150q12 -73 -35 -128q-28 -32 -65 -28q-76 9 -166 52zM241 232q3 -37 -36 -73q91 -34 143 -36q9 0 5 11 q-15 46 -112 98zM162 176q33 16 33 22q-5 58 -31 62q-39 9 -70 -30q-10 -12 8 -23q30 -20 60 -31z" />
<glyph unicode="&#x6c1;" horiz-adv-x="460" arabic-form="medial" d="M175 3q-1 -1 -2.5 -3t-2.5 -3q-43 -79 -3 -206q5 -17 -1 -26l-41 -58q-14 -18 -29 0q-83 98 -44 291q-66 -32 -79 13q-8 28 -10 55q-1 24 20 35q6 2 16 4q74 5 143 106q17 26 34 15t-1 -43q-37 -65 -60 -122q-22 -55 -24 -130q16 41 41 82q45 83 101 125q62 47 131 36 q26 -6 50 -36q25 -31 47 -34t25 -32q3 -27 -2 -53q-5 -25 -12 -29q-8 -5 -15 -5q-49 3 -98 50q-23 23 -36 26q-95 9 -148 -58z" />
<glyph unicode="&#x6be;" horiz-adv-x="608" arabic-form="isolated" d="M187 67q-6 42 5 86q12 46 66 106q55 61 92 71q20 5 35 -10t24 -51q1 -3 7 -7q95 -46 130 -84q14 -16 17 -45t-8 -69t-35 -64q-25 -25 -133 -20q-64 3 -121 20q-51 -30 -116 -45q-26 -6 -42 2l-51 25q-20 11 -23 23q-2 7 0 12q4 15 33 21q1 0 5.5 1t14 3t18.5 4 q54 12 82 21zM285 110q39 17 47 29q8 13 -1 42q-9 30 -18 30q-11 0 -35 -21t-41 -53q7 -16 48 -27zM396 155q-9 -33 -28 -61q40 -5 84 -5h12t10 0.5t7 0.5h5h2q-26 30 -92 65z" />
<glyph unicode="&#x6be;" horiz-adv-x="522" arabic-form="final" d="M194 -9q-58 -17 -84 3l-56 40q-22 16 -24 32q-3 23 29 29q2 1 7 1.5t7 0.5q131 15 164 28q39 104 118 197q25 29 40 39q13 9 26 3q29 -14 33 -54q13 -137 -81 -230q52 3 146 25q20 4 31 -20q13 -34 -1 -73q-9 -22 -23 -26q-44 -9 -71 -10q18 -40 14 -104q-3 -40 -32 -78 t-70 -39q-118 0 -143 205l-30 4v27zM298 -51q16 -52 49 -66q32 -14 63 4q-30 42 -112 62zM387 209q-6 10 -15 10q-10 0 -11 -1q-44 -26 -63 -71q66 30 89 62z" />
<glyph unicode="&#x6be;" horiz-adv-x="452" arabic-form="initial" d="M39 113q-3 33 8 77q11 43 65 103q55 61 92 71q20 5 35 -10t24 -51q1 -4 6 -7q97 -47 131 -84q13 -14 16 -45t-7 -69q-10 -37 -36 -63q-25 -25 -112 -21t-147 21q-49 -32 -110 -49q-26 -6 -35 27q-21 69 12 87q5 3 25 5q15 1 33 8zM138 144q41 17 48 29q8 13 -1 43 q-9 29 -19 29t-34 -21q-25 -22 -41 -52q7 -18 47 -28zM249 190q-10 -37 -27 -62q40 -5 83 -5h12t10 0.5t7 0.5h5h2q-27 32 -92 66z" />
<glyph unicode="&#x6be;" horiz-adv-x="390" arabic-form="medial" d="M290 364q29 -13 32 -54q9 -137 -74 -229q61 3 143 23q19 4 27 -19q11 -39 -1 -73q-13 -22 -26 -26q-30 -7 -67 -9q15 -38 10 -92q-4 -50 -31 -91q-25 -39 -68 -39q-109 0 -134 204l-39 5v37q-36 -16 -63 -16q-25 0 -36 47q-1 4 -5 36q-3 25 24 34l18 3q49 3 116 26 q32 102 107 191q30 33 41 40q13 8 26 2zM149 -43q21 -59 64 -77q42 -18 79 5q-34 61 -143 72zM263 213q-15 23 -37 16q-46 -17 -75 -87q89 39 112 71z" />
<glyph unicode="&#x6d2;" horiz-adv-x="1159" arabic-form="isolated" d="M459 272q2 69 -19 78q-13 6 -31 -23q-4 -6 -9 -14t-13 -20.5t-13 -21.5q-23 -37 -48 -62q-24 -24 -100 -56t-93 -49q12 -15 56 -20q72 -9 392 5q348 14 495 13q52 0 28 -44l-21 -40q-17 -33 -43 -33q-194 0 -441 -11q-279 -12 -387 -11q-117 2 -144 46q-13 22 -7 47 q32 111 87 159q23 20 91 45q65 24 88 42q22 18 42 56q31 61 58.5 89t51.5 23q39 -9 31 -100q-3 -39 -16 -99q-4 -21 -18 -21q-17 0 -17 22z" />
<glyph unicode="&#x6d2;" horiz-adv-x="571" arabic-form="final" d="M571 105q50 -2 37 -63q-7 -37 -17 -47t-20 -10q-259 0 -429 -138l-1 -2q13 -16 48 -19q113 -12 446 6q17 0 23 -3q22 -12 7 -40l-22 -41q-17 -31 -43 -32q-280 -12 -392 -11q-122 2 -150 46q-13 22 -7 47q23 88 97 158q157 149 423 149z" />
<glyph unicode="&#x6d3;" horiz-adv-x="1159" arabic-form="isolated" d="M224 555q0 16 17 22t49 -26q9 -9 47 -52q72 -80 51 -176q-3 -15 -8 -35q-2 -4 -2 -5q0 -2 -2 -6t-2 -6q-11 -34 -39 -60q-26 -24 -107 -58q-76 -31 -95 -49q12 -15 56 -20q72 -9 392 5q376 16 495 13q50 -1 28 -44l-21 -40q-17 -33 -43 -33q-194 0 -441 -11 q-279 -12 -389 -11q-115 1 -142 46q-13 22 -7 47q32 111 87 159q24 21 89 45q61 23 85 40q12 8 23 19q-21 75 -98 132q-21 17 -21 37zM299 753q-53 -10 -76 -18t-83 -34q-18 -8 -28 7q-14 23 30 53q-29 18 -34 41q-8 44 36 104q44 61 95 56q37 -3 34 -39q-3 -34 -15 -51 t-15 -19q-14 -10 -25 5q-11 16 -26 17q-16 1 -24 -8q-7 -9 0 -16q31 -29 93 -31q11 0 30 4q23 5 30 5q10 0 17 -10q5 -9 2 -18q-21 -43 -41 -48z" />
<glyph unicode="&#x6d3;" horiz-adv-x="517" arabic-form="final" d="M148 5q23 20 91 45q62 23 87 42q23 18 47 55q25 38 41 44t27 -5q10 -10 13 -34q1 -4 5 -12q20 -36 73 -39q11 0 17 -6q9 -8 9 -27q0 -20 -17 -62q-7 -18 -23 -18q-17 -1 -33 2q-60 15 -78 97q-1 1 -4 3q-4 7 -30 -30l-9 -13q-17 -24 -38 -51q-17 -21 -96 -53 q-81 -33 -97 -49q12 -15 56 -20q72 -9 392 5q376 16 495 13q50 -1 28 -44l-21 -40q-17 -33 -43 -33q-194 0 -441 -11q-279 -12 -386 -11q-117 2 -145 46q-13 22 -7 47q30 110 87 159zM426 370q-53 -10 -76 -18t-83 -34q-18 -8 -28 7q-14 23 30 53q-29 18 -34 41 q-8 44 36 104q44 61 95 56q37 -3 34 -39q-3 -34 -15 -51t-15 -19q-14 -10 -25 5q-11 16 -26 17q-16 1 -24 -8q-7 -9 0 -16q31 -29 93 -31q11 0 30 4q23 5 30 5q10 0 17 -10q5 -9 2 -18q-21 -43 -41 -48z" />
<glyph unicode="&#x6ad;" horiz-adv-x="657" arabic-form="isolated" d="M470 804q14 29 34 -13q21 -43 50 -67q21 -17 4 -39l-24 -32q66 -355 65 -478q0 -66 -30 -132q-19 -42 -139 -53q-68 -6 -186 -4q-119 2 -174 11q-18 3 -18 15q-3 58 -2 103q0 19 17 14q70 -19 139 -20q276 -4 346 32q2 20 -88 507q-1 12 -20 60q-10 24 1 46zM289 580 q9 1 13 -6q5 -8 2 -14l-21 -53q-7 -15 -16 -18q-25 -6 -35 -18q15 -10 46 -15t40 -11q37 -27 -23 -111q-24 -32 -46 -38q-20 -6 -73 -1q-49 4 -82 17q-15 6 -15 16q0 11 4 15q5 5 21 6l73 2q55 1 76 9l-28 6q-25 6 -42 24q-16 18 -12 38q31 128 118 152zM277 788q6 9 18 5 q43 -16 73 -43q8 -8 3 -18l-48 -76q-8 -11 -17 -3q-6 5 -46 30l-31 -49q-7 -10 -18 -3q-14 10 -73 46q-10 6 -3 16l48 72q12 17 66 -19zM207 900q6 8 17 5q43 -16 73 -43q8 -8 3 -18l-48 -76q-7 -10 -18 -2q-10 8 -72 45q-11 6 -4 16z" />
<glyph unicode="&#x6ad;" horiz-adv-x="822" arabic-form="final" d="M823 -15q-108 0 -122 182q-81 -198 -366 -209q-220 -7 -260 100q-40 108 41 222q20 29 31 16t-3 -34q-41 -62 -36 -87q19 -91 210 -94q135 -2 267 52q56 23 73 53q6 11 7 39q2 34 -10 182q-3 43 -6.5 83t-5 56.5t-1.5 17.5q-7 66 5 85l34 51q15 22 24 21q11 -3 12 -42 q4 -78 17 -245q15 -200 36 -261q20 -58 53 -68q32 -10 38 -39q6 -28 -7 -55q-12 -26 -31 -26zM440 583q9 1 13 -6q5 -8 2 -14l-21 -53q-7 -15 -16 -18q-25 -6 -35 -18q15 -10 46 -15t40 -11q37 -27 -23 -111q-24 -32 -46 -38q-20 -6 -73 -1q-49 4 -82 17q-15 6 -15 16 q0 11 4 15t21 6l73 2q55 1 76 9l-28 6q-25 6 -42 24q-16 18 -12 38q31 128 118 152zM428 791q6 9 18 5q43 -16 73 -43q8 -8 3 -18l-48 -76q-8 -11 -17 -3q-6 5 -46 30l-31 -49q-8 -11 -18 -3q-14 10 -73 46q-10 6 -3 16l48 72q12 17 66 -19zM358 903q6 8 17 5q43 -16 73 -43 q8 -8 3 -18l-48 -76q-7 -10 -18 -2q-11 7 -72 45q-11 6 -4 16z" />
<glyph unicode="&#x6ad;" horiz-adv-x="659" arabic-form="initial" d="M2 105q159 -21 247 61q-90 120 -190 159q-24 9 -27 83q-3 76 34 110q152 139 516 248q13 4 18 0t1 -17l-24 -88q-6 -22 -23 -28q-385 -134 -482 -202q209 -113 209 -259q0 -150 -102 -176q-109 -27 -190 -12q-22 4 -27 35q-6 47 -4 54q11 37 44 32zM161 781q6 9 18 5 q43 -16 73 -43q8 -8 3 -18l-48 -76q-8 -11 -17 -3q-6 5 -46 30l-31 -49q-7 -11 -18 -3q-14 10 -73 46q-10 6 -3 16l48 72q12 17 66 -19zM91 893q6 8 17 5q43 -16 73 -43q8 -8 3 -18l-48 -76q-7 -10 -18 -2q-10 7 -72 45q-11 6 -4 16z" />
<glyph unicode="&#x6ad;" horiz-adv-x="588" arabic-form="medial" d="M-42 60q0 49 55 44q156 -12 241 64q-21 74 -207 167q-20 35 -19 96q0 40 13 58q120 175 503 339q15 7 22 2t2 -26l-20 -87q-4 -15 -21 -24q-323 -161 -448 -266q181 -79 342 -225q99 -90 168 -98q55 -6 28 -91q-9 -28 -30 -28q-83 0 -218 143q-47 48 -80 74q0 -38 -3 -56 q-25 -167 -239 -167q-35 0 -58 5q-31 7 -31 76zM128 793q6 9 18 5q43 -16 73 -43q8 -8 3 -18l-48 -76q-8 -11 -17 -3q-6 5 -46 30l-31 -49q-8 -11 -18 -3q-14 10 -73 46q-10 6 -3 16l48 72q12 17 66 -19zM58 905q6 8 17 5q43 -16 73 -43q8 -8 3 -18l-48 -76q-7 -10 -18 -2 q-11 7 -72 45q-11 6 -4 16z" />
<glyph unicode="&#x6c7;" horiz-adv-x="400" arabic-form="isolated" d="M165 204q20 54 41 80.5t45 25.5q35 -1 63 -46q26 -43 31 -99q5 -55 -18 -147q-22 -91 -87 -169t-109 -82q-36 -5 -106 10q-60 12 -104 29q-11 5 -8 17q3 13 19 10q60 -9 143 10q41 9 120 78q82 71 96 112q-1 3 -9 29q-42 -54 -101 -27q-67 30 -16 169zM228 664 q65 0 65 -103q-1 -79 -78 -207q-12 -21 -28 -12q-17 9 -6 31q61 124 45 170q-7 18 -23 18q-15 0 -25 -22q-8 -17 -20 -12q-10 4 -9 22q9 115 79 115zM260 157q-29 47 -62 4q25 -28 62 -4z" />
<glyph unicode="&#x6c7;" horiz-adv-x="345" arabic-form="final" d="M330 -15q-36 -190 -188 -258q-45 -20 -81 -20q-52 0 -135 70q-15 12 -10 22t25 2q89 -31 201 37t145 152q-75 3 -107 23q-39 24 -26 87q23 99 68 127q49 29 82 -13q24 -32 33 -108q36 2 41 -36q3 -26 -4 -54q-7 -29 -27 -31h-17zM230 598q65 0 65 -103q-1 -79 -78 -207 q-12 -21 -28 -12q-17 9 -6 31q61 124 45 170q-8 18 -23 18t-25 -22q-8 -17 -20 -12q-10 4 -9 22q9 115 79 115zM277 101q-20 42 -48 41q-16 -3 -24 -12q-8 -10 -1 -18q16 -21 69 -19q6 0 4 8z" />
<glyph unicode="&#x6c6;" horiz-adv-x="400" arabic-form="isolated" d="M165 204q20 54 41 80.5t45 25.5q35 -1 63 -46q26 -43 31 -99q5 -55 -18 -147q-22 -91 -87 -169t-109 -82q-36 -5 -106 10q-60 12 -104 29q-11 5 -8 17q3 13 19 10q60 -9 143 10q41 9 120 78q82 71 96 112q-1 3 -9 29q-42 -54 -101 -27q-67 30 -16 169zM317 589l19 -27 q9 -15 0 -27q-49 -81 -65 -138q-1 -2 -3 -4l-9 -7q-11 -7 -22 5q-60 76 -91 152q-11 27 10 33q20 6 29 -17q13 -35 42 -85q20 64 61 114q9 9 16 9q8 0 13 -8zM260 157q-29 47 -62 4q25 -28 62 -4z" />
<glyph unicode="&#x6c6;" horiz-adv-x="345" arabic-form="final" d="M330 -15q-36 -190 -188 -258q-45 -20 -81 -20q-52 0 -135 70q-15 12 -10 22t25 2q89 -31 201 37t145 152q-75 3 -107 23q-39 24 -26 87q23 99 68 127q49 29 82 -13q24 -32 33 -108q36 2 41 -36q3 -26 -4 -54q-7 -29 -27 -31h-17zM314 526l19 -27q9 -15 0 -27 q-49 -81 -65 -138q-1 -2 -3 -4l-9 -7q-11 -7 -22 5q-60 76 -91 152q-11 27 10 33q20 6 29 -17q13 -35 42 -85q20 64 61 114q9 9 16 9q8 0 13 -8zM277 101q-20 42 -48 41q-16 -3 -24 -12q-8 -10 -1 -18q16 -21 69 -19q6 0 4 8z" />
<glyph unicode="&#x6c8;" horiz-adv-x="400" arabic-form="isolated" d="M165 204q20 54 41 80.5t45 25.5q35 -1 63 -46q26 -43 31 -99q5 -55 -18 -147q-22 -91 -87 -169t-109 -82q-36 -5 -106 10q-60 12 -104 29q-11 5 -8 17q3 13 19 10q60 -9 143 10q41 9 120 78q82 71 96 112q-1 3 -9 29q-42 -54 -101 -27q-67 30 -16 169zM158 635 q10 27 31 2q96 -107 66 -274q-3 -15 -13 -16q-19 -3 -21 16q-14 103 -76 179q-11 14 -6 29zM260 157q-29 47 -62 4q25 -28 62 -4z" />
<glyph unicode="&#x6c8;" horiz-adv-x="345" arabic-form="final" d="M330 -15q-36 -190 -188 -258q-45 -20 -81 -20q-52 0 -135 70q-15 12 -10 22t25 2q89 -31 201 37t145 152q-75 3 -107 23q-39 24 -26 87q23 99 68 127q49 29 82 -13q24 -32 33 -108q36 2 41 -36q3 -26 -4 -54q-7 -29 -27 -31h-17zM155 573q10 27 31 2q96 -107 66 -274 q-3 -15 -13 -16q-19 -3 -21 16q-14 103 -76 179q-11 14 -6 29zM277 101q-20 42 -48 41q-16 -3 -24 -12q-8 -10 -1 -18q16 -21 69 -19q6 0 4 8z" />
<glyph unicode="&#x677;" horiz-adv-x="498" arabic-form="isolated" d="M262 204q20 54 41 80.5t45 25.5q35 -1 63 -46q26 -43 31 -99q4 -55 -18 -147q-22 -91 -87 -169t-109 -82q-36 -5 -106 10q-60 12 -104 29q-11 5 -8 17q3 13 19 10q60 -9 143 10q41 9 120 78q82 71 96 112q0 3 -9 29q-42 -54 -101 -27q-67 30 -16 169zM394 449 q-53 -10 -76 -18t-83 -34q-18 -8 -28 7q-14 23 30 53q-29 18 -34 41q-8 44 36 104q44 61 95 56q37 -3 34 -39q-3 -34 -15 -51t-15 -19q-14 -10 -25 5q-11 16 -26 17q-16 1 -24 -8q-7 -9 0 -16q31 -29 93 -31q11 0 30 4q23 5 30 5q10 0 17 -10q5 -9 2 -18q-21 -43 -41 -48z M103 687q65 0 65 -103q-2 -80 -78 -207q-12 -21 -28 -12q-17 9 -6 31q61 124 45 170q-7 18 -23 18q-15 0 -25 -22q-8 -17 -20 -12q-10 4 -9 22q9 115 79 115zM357 157q-29 47 -62 4q25 -28 62 -4z" />
<glyph unicode="&#x6cb;" horiz-adv-x="400" arabic-form="isolated" d="M165 204q20 54 41 80.5t45 25.5q35 -1 63 -46q26 -43 31 -99q5 -55 -18 -147q-22 -91 -87 -169t-109 -82q-36 -5 -106 10q-60 12 -104 29q-11 5 -8 17q3 13 19 10q60 -9 143 10q41 9 120 78q82 71 96 112q-1 3 -9 29q-42 -54 -101 -27q-67 30 -16 169zM223 524q6 9 18 5 q43 -16 73 -43q8 -8 3 -18l-48 -76q-8 -11 -17 -3q-6 5 -46 30l-31 -49q-7 -10 -18 -3q-14 10 -73 46q-10 6 -3 16l48 72q12 17 66 -19zM153 636q6 8 17 5q43 -16 73 -43q8 -8 3 -18l-48 -76q-7 -10 -18 -2q-10 8 -72 45q-11 6 -4 16zM260 157q-29 47 -62 4q25 -28 62 -4z " />
<glyph unicode="&#x6cb;" horiz-adv-x="345" arabic-form="final" d="M330 -15q-36 -190 -188 -258q-45 -20 -81 -20q-52 0 -135 70q-15 12 -10 22t25 2q89 -31 201 37t145 152q-75 3 -107 23q-39 24 -26 87q23 99 68 127q49 29 82 -13q24 -32 33 -108q36 2 41 -36q3 -26 -4 -54q-7 -29 -27 -31h-17zM220 462q6 9 18 5q43 -16 73 -43 q8 -8 3 -18l-48 -76q-8 -11 -17 -3q-6 5 -46 30l-31 -49q-8 -10 -18 -3q-14 10 -73 46q-10 6 -3 16l48 72q12 17 66 -19zM150 574q6 8 17 5q43 -16 73 -43q8 -8 3 -18l-48 -76q-7 -10 -18 -2t-72 45q-11 6 -4 16zM277 101q-20 42 -48 41q-16 -3 -24 -12q-8 -10 -1 -18 q16 -21 69 -19q6 0 4 8z" />
<glyph unicode="&#x6c5;" horiz-adv-x="400" arabic-form="isolated" d="M165 204q20 54 41 80.5t45 25.5q35 -1 63 -46q26 -43 31 -99q4 -49 -14 -131h95l-37 -91h-89q-22 -48 -60 -94q-65 -78 -109 -82q-36 -5 -106 10q-60 12 -104 29q-11 5 -8 17q3 13 19 10q60 -9 143 10q41 9 120 78q9 8 25 22h-82l37 91h8q-1 0 -1 0.5t-1 0.5 q-67 30 -16 169zM260 157q-29 47 -62 4q25 -28 62 -4zM291 34q-1 5 -9 28q-15 -19 -32 -28h41z" />
<glyph unicode="&#x6c5;" horiz-adv-x="345" arabic-form="final" d="M330 -15q-2 -12 -8 -34h80l-37 -91h-78q-50 -91 -145 -133q-45 -20 -81 -20q-52 0 -135 70q-15 12 -10 22t25 2q89 -31 201 37q7 4 19 12l15 10h-62l37 91h116q13 22 20 39q-75 3 -107 23q-39 24 -26 87q23 99 68 127q49 29 82 -13q24 -32 33 -108q36 2 41 -36 q3 -26 -4 -54q-7 -29 -27 -31h-17zM277 101q-20 42 -48 41q-16 -3 -24 -12q-8 -10 -1 -18q16 -21 69 -19q6 0 4 8z" />
<glyph unicode="&#x6c9;" horiz-adv-x="400" arabic-form="isolated" d="M165 204q20 54 41 80.5t45 25.5q35 -1 63 -46q26 -43 31 -99q5 -55 -18 -147q-22 -91 -87 -169t-109 -82q-36 -5 -106 10q-60 12 -104 29q-11 5 -8 17q3 13 19 10q60 -9 143 10q41 9 120 78q82 71 96 112q-1 3 -9 29q-42 -54 -101 -27q-67 30 -16 169zM191 417 q-6 -20 -23 -20q-18 0 -19 18q0 8 2 13q25 88 73 162q10 13 22 6q4 -2 9 -5q3 -2 4 -3q25 -60 79 -131q10 -12 3 -27l-16 -29q-5 -8 -12 -9q-8 -1 -17 8q-44 44 -72 106q-24 -55 -33 -89zM260 157q-29 47 -62 4q25 -28 62 -4z" />
<glyph unicode="&#x6c9;" horiz-adv-x="345" arabic-form="final" d="M330 -15q-36 -190 -188 -258q-45 -20 -81 -20q-52 0 -135 70q-15 12 -10 22t25 2q89 -31 201 37t145 152q-75 3 -107 23q-39 24 -26 87q23 99 68 127q49 29 82 -13q24 -32 33 -108q36 2 41 -36q3 -26 -4 -54q-7 -29 -27 -31h-17zM188 354q-6 -20 -23 -20t-19 18q0 8 2 13 q25 88 73 162q10 13 22 6q4 -2 9 -5q3 -2 4 -3q25 -60 79 -131q11 -12 3 -27l-16 -29q-5 -8 -12 -9q-8 -1 -17 8q-44 44 -72 106q-24 -55 -33 -89zM277 101q-20 42 -48 41q-16 -3 -24 -12q-8 -10 -1 -18q16 -21 69 -19q6 0 4 8z" />
<glyph unicode="&#x6d0;" horiz-adv-x="764" arabic-form="isolated" d="M665 275q-51 27 -139 -19q-71 -37 -86 -91q-2 -8 1 -16q18 -39 127 -45t115 -54q13 -95 -41 -139q-149 -119 -335 -126q-233 -9 -248 174q-7 92 41 192q27 55 59 96q15 20 26 9t-6 -35q-87 -128 -55 -212q41 -104 192 -101q178 3 293 90q-23 8 -98 13q-99 8 -116 58 q-18 52 2 109q44 124 136 191q77 56 137 41q58 -15 33 -109q-11 -40 -38 -26zM333 -284q6 8 17 5q43 -16 73 -43q9 -9 3 -19l-28 -44q24 -12 45 -30q8 -8 3 -18l-48 -76q-7 -10 -18 -2q-10 7 -72 45q-11 7 -4 17l32 47q-7 4 -23.5 14t-24.5 15q-10 6 -3 16z" />
<glyph unicode="&#x6d0;" horiz-adv-x="585" arabic-form="final" d="M60 -125q11 98 68 199q11 19 25 10q13 -9 2 -29q-73 -135 -37 -203q51 -99 195 -93q164 8 286 107q-24 8 -87 12q-66 5 -74 8q-25 10 -34 33q-15 42 13 83q47 70 165 102q19 5 33 -5q14 -9 9 -52q-4 -41 -16 -51t-50 -10q-40 0 -43 -7q142 -7 160 -71q6 -24 -11 -63 q-18 -41 -33 -57q-144 -145 -323 -153q-134 -6 -204 64q-57 57 -44 176zM344 -424q6 8 17 5q43 -16 73 -43q9 -9 3 -19l-28 -44q24 -12 45 -30q8 -8 3 -18l-48 -76q-7 -10 -18 -2q-11 7 -72 45q-11 7 -4 17l32 47q-7 4 -23.5 14t-24.5 15q-10 6 -3 16z" />
<glyph unicode="&#x6d0;" horiz-adv-x="190" arabic-form="initial" d="M51 213l29 62q15 33 26 13q49 -83 23 -194q-25 -109 -129 -109q-20 0 -29 34q-8 29 -8 54q0 20 21 29q7 3 16 3q56 -1 84 23q-6 27 -23 45q-19 21 -10 40zM61 -108q6 8 17 5q43 -16 73 -43q9 -9 3 -19l-28 -44q24 -12 45 -30q8 -8 3 -18l-48 -76q-7 -10 -18 -2 q-10 7 -72 45q-11 7 -4 17l32 47q-7 4 -23.5 14t-24.5 15q-10 6 -3 16z" />
<glyph unicode="&#x6d0;" horiz-adv-x="244" arabic-form="medial" d="M182 145q31 -38 62 -41q28 -3 32 -20q3 -12 0 -42q-2 -24 -11 -43q-6 -14 -21 -14q-56 0 -108 64q-62 -64 -136 -64q-21 0 -27 27l-9 41q-3 16 8 33q11 18 28 19q119 9 146 59q9 15 19 15q15 0 15 -17q0 -5 0.5 -9t1.5 -6v-2zM105 -108q6 8 17 5q43 -16 73 -43 q9 -9 3 -19l-28 -44q24 -12 45 -30q8 -8 3 -18l-48 -76q-7 -10 -18 -2q-10 7 -72 45q-11 7 -4 17l32 47q-7 4 -23.5 14t-24.5 15q-10 6 -3 16z" />
<glyph unicode="&#x649;" horiz-adv-x="190" arabic-form="initial" d="M51 213l29 62q15 33 26 13q49 -83 23 -194q-25 -109 -129 -109q-20 0 -29 34q-8 29 -8 54q0 20 21 29q7 3 16 3q56 -1 84 23q-6 27 -23 45q-19 21 -10 40z" />
<glyph unicode="&#x649;" horiz-adv-x="244" arabic-form="medial" d="M182 145q31 -38 62 -41q28 -3 32 -20q3 -12 0 -42q-2 -24 -11 -43q-6 -14 -21 -14q-56 0 -108 64q-62 -64 -136 -64q-21 0 -27 27l-9 41q-3 16 8 33q11 18 28 19q119 9 146 59q9 15 19 15q15 0 15 -17q0 -5 0.5 -9t1.5 -6v-2z" />
<glyph unicode="&#xfbea;" horiz-adv-x="419" arabic-form="isolated" d="M79 725q20 35 25 -7q21 -186 24 -340q3 -156 6 -189q4 -78 95 -84q56 -1 84 23q-6 27 -23 45q-19 21 -10 40l29 62q15 33 26 13q49 -83 23 -194q-25 -109 -129 -109q-141 0 -150 136q-3 37 -8 211q-5 138 -34 289q-5 26 5 41zM389 400q-53 -10 -76 -18t-83 -34 q-18 -8 -28 7q-14 23 30 53q-29 18 -34 41q-8 44 36 104q44 61 95 56q37 -3 34 -39q-3 -34 -15 -51t-15 -19q-14 -10 -25 5q-11 16 -26 17q-16 1 -24 -8q-7 -9 0 -16q31 -29 93 -31q11 0 30 4q23 5 30 5q10 0 17 -10q5 -9 2 -18q-21 -43 -41 -48z" />
<glyph unicode="&#xfbeb;" horiz-adv-x="473" arabic-form="final" d="M79 725q20 35 25 -7q21 -186 24 -340q3 -156 6 -189q4 -78 95 -84q119 9 146 59q9 15 19 15q15 0 15 -17q0 -5 0.5 -9t0.5 -6l1 -2q31 -38 62 -41q28 -3 32 -20q3 -12 0 -42q-2 -24 -11 -43q-6 -14 -21 -14q-56 0 -108 64q-62 -64 -136 -64q-141 0 -150 136q-3 37 -8 211 q-5 138 -34 289q-5 26 5 41zM426 370q-53 -10 -76 -18t-83 -34q-18 -8 -28 7q-14 23 30 53q-29 18 -34 41q-8 44 36 104q44 61 95 56q37 -3 34 -39q-3 -34 -15 -51t-15 -19q-14 -10 -25 5q-11 16 -26 17q-16 1 -24 -8q-7 -9 0 -16q31 -29 93 -31q11 0 30 4q23 5 30 5 q10 0 17 -10q5 -9 2 -18q-21 -43 -41 -48z" />
<glyph unicode="&#xfbec;" horiz-adv-x="569" arabic-form="isolated" d="M259 464q23 30 28 -27l29 -240q11 -92 61 -92h2h2q55 -1 82 23q-6 27 -23 45q-19 21 -10 40l29 62q15 33 26 13q49 -83 23 -194q-25 -109 -129 -109q-62 0 -88 32q-25 31 -36 109q-38 -57 -53 -64q-14 -7 -51 -4q-48 3 -82 25q-22 14 -19 43t22 64q21 38 32 51 q48 51 121 92q-8 79 4 94zM539 400q-53 -10 -76 -18t-83 -34q-18 -8 -28 7q-14 23 30 53q-29 18 -34 41q-8 44 36 104q44 61 95 56q37 -3 34 -39q-3 -34 -15 -51t-15 -19q-14 -10 -25 5q-11 16 -26 17q-16 1 -24 -8q-7 -9 0 -16q31 -29 93 -31q11 0 30 4q23 5 30 5 q10 0 17 -10q5 -9 2 -18q-21 -43 -41 -48zM234 261q-76 -24 -104 -64q-4 -6 3 -10q50 -21 112 -4q-10 68 -11 78z" />
<glyph unicode="&#xfbed;" horiz-adv-x="623" arabic-form="final" d="M259 464q23 30 28 -27l29 -240q5 -47 21 -70t42 -22q119 9 146 59q9 15 19 15q15 0 15 -17q0 -5 0.5 -9t0.5 -6l1 -2q31 -38 62 -41q28 -3 32 -20q3 -12 0 -42q-2 -24 -11 -43q-6 -14 -21 -14q-56 0 -108 64q-62 -64 -136 -64q-62 0 -88 32q-25 31 -36 109 q-38 -57 -53 -64q-14 -7 -51 -4q-48 3 -82 25q-22 14 -19 43t22 64q21 38 32 51q48 51 121 92q-8 79 4 94zM576 370q-53 -10 -76 -18t-83 -34q-18 -8 -28 7q-14 23 30 53q-29 18 -34 41q-8 44 36 104q44 61 95 56q37 -3 34 -39q-3 -34 -15 -51t-15 -19q-14 -10 -25 5 q-11 16 -26 17q-16 1 -24 -8q-7 -9 0 -16q31 -29 93 -31q11 0 30 4q23 5 30 5q10 0 17 -10q5 -9 2 -18q-21 -43 -41 -48zM234 261q-76 -24 -104 -64q-4 -6 3 -10q50 -21 112 -4q-10 68 -11 78z" />
<glyph unicode="&#xfbee;" horiz-adv-x="536" arabic-form="isolated" d="M330 -15q-36 -190 -188 -258q-45 -20 -81 -20q-52 0 -135 70q-15 12 -10 22t25 2q89 -31 201 37t145 152q-75 3 -107 23q-39 24 -26 87q23 99 68 127q49 29 82 -13q24 -32 33 -108q10 0 14 -1q53 0 79 23q-6 27 -23 45q-19 21 -10 40l29 62q15 33 26 13q49 -83 23 -194 q-25 -109 -128 -109h-17zM506 400q-53 -10 -76 -18t-83 -34q-18 -8 -28 7q-14 23 30 53q-29 18 -34 41q-8 44 36 104q44 61 95 56q37 -3 34 -39q-3 -34 -15 -51t-15 -19q-14 -10 -25 5q-11 16 -26 17q-16 1 -24 -8q-7 -9 0 -16q31 -29 93 -31q11 0 30 4q23 5 30 5 q10 0 17 -10q5 -9 2 -18q-21 -43 -41 -48zM277 101q-20 42 -48 41q-16 -3 -24 -12q-8 -10 -1 -18q16 -21 69 -19q6 0 4 8z" />
<glyph unicode="&#xfbef;" horiz-adv-x="589" arabic-form="final" d="M330 -15q-36 -190 -188 -258q-45 -20 -81 -20q-52 0 -135 70q-15 12 -10 22t25 2q89 -31 201 37t145 152q-75 3 -107 23q-39 24 -26 87q23 99 68 127q49 29 82 -13q24 -32 33 -108q8 0 12 -1q117 11 143 59q9 15 19 15q15 0 15 -17q0 -5 0.5 -9t1.5 -6v-2q31 -38 62 -41 q28 -3 32 -20q3 -12 0 -42q-2 -24 -11 -43q-6 -14 -21 -14q-56 0 -108 64q-62 -64 -135 -64h-17zM543 370q-53 -10 -76 -18t-83 -34q-18 -8 -28 7q-14 23 30 53q-29 18 -34 41q-8 44 36 104q44 61 95 56q37 -3 34 -39q-3 -34 -15 -51t-15 -19q-14 -10 -25 5q-11 16 -26 17 q-16 1 -24 -8q-7 -9 0 -16q31 -29 93 -31q11 0 30 4q23 5 30 5q10 0 17 -10q5 -9 2 -18q-21 -43 -41 -48zM277 101q-20 42 -48 41q-16 -3 -24 -12q-8 -10 -1 -18q16 -21 69 -19q6 0 4 8z" />
<glyph unicode="&#xfbf0;" horiz-adv-x="536" arabic-form="isolated" d="M330 -15q-36 -190 -188 -258q-45 -20 -81 -20q-52 0 -135 70q-15 12 -10 22t25 2q89 -31 201 37t145 152q-75 3 -107 23q-39 24 -26 87q23 99 68 127q49 29 82 -13q24 -32 33 -108q10 0 14 -1q53 0 79 23q-6 27 -23 45q-19 21 -10 40l29 62q15 33 26 13q49 -83 23 -194 q-25 -109 -128 -109h-17zM506 400q-53 -10 -76 -18t-83 -34q-18 -8 -28 7q-14 23 30 53q-29 18 -34 41q-8 44 36 104q44 61 95 56q37 -3 34 -39q-3 -34 -15 -51t-15 -19q-14 -10 -25 5q-11 16 -26 17q-16 1 -24 -8q-7 -9 0 -16q31 -29 93 -31q11 0 30 4q23 5 30 5 q10 0 17 -10q5 -9 2 -18q-21 -43 -41 -48zM230 598q65 0 65 -103q-1 -79 -78 -207q-12 -21 -28 -12q-17 9 -6 31q61 124 45 170q-8 18 -23 18t-25 -22q-8 -17 -20 -12q-10 4 -9 22q9 115 79 115zM277 101q-20 42 -48 41q-16 -3 -24 -12q-8 -10 -1 -18q16 -21 69 -19q6 0 4 8 z" />
<glyph unicode="&#xfbf1;" horiz-adv-x="589" arabic-form="final" d="M330 -15q-36 -190 -188 -258q-45 -20 -81 -20q-52 0 -135 70q-15 12 -10 22t25 2q89 -31 201 37t145 152q-75 3 -107 23q-39 24 -26 87q23 99 68 127q49 29 82 -13q24 -32 33 -108q8 0 12 -1q117 11 143 59q9 15 19 15q15 0 15 -17q0 -5 0.5 -9t1.5 -6v-2q31 -38 62 -41 q28 -3 32 -20q3 -12 0 -42q-2 -24 -11 -43q-6 -14 -21 -14q-56 0 -108 64q-62 -64 -135 -64h-17zM543 370q-53 -10 -76 -18t-83 -34q-18 -8 -28 7q-14 23 30 53q-29 18 -34 41q-8 44 36 104q44 61 95 56q37 -3 34 -39q-3 -34 -15 -51t-15 -19q-14 -10 -25 5q-11 16 -26 17 q-16 1 -24 -8q-7 -9 0 -16q31 -29 93 -31q11 0 30 4q23 5 30 5q10 0 17 -10q5 -9 2 -18q-21 -43 -41 -48zM230 598q65 0 65 -103q-1 -79 -78 -207q-12 -21 -28 -12q-17 9 -6 31q61 124 45 170q-8 18 -23 18t-25 -22q-8 -17 -20 -12q-10 4 -9 22q9 115 79 115zM277 101 q-20 42 -48 41q-16 -3 -24 -12q-8 -10 -1 -18q16 -21 69 -19q6 0 4 8z" />
<glyph unicode="&#xfbf2;" horiz-adv-x="536" arabic-form="isolated" d="M330 -15q-36 -190 -188 -258q-45 -20 -81 -20q-52 0 -135 70q-15 12 -10 22t25 2q89 -31 201 37t145 152q-75 3 -107 23q-39 24 -26 87q23 99 68 127q49 29 82 -13q24 -32 33 -108q10 0 14 -1q53 0 79 23q-6 27 -23 45q-19 21 -10 40l29 62q15 33 26 13q49 -83 23 -194 q-25 -109 -128 -109h-17zM314 526l11 -16q9 20 26 43q44 61 95 56q37 -3 34 -39q-3 -34 -15 -51t-15 -19q-14 -10 -25 5q-11 16 -26 17q-16 1 -24 -8q-7 -9 0 -16q31 -29 93 -31q11 0 30 4q23 5 30 5q10 0 17 -10q5 -9 2 -18q-21 -43 -41 -48q-53 -10 -76 -18t-83 -34 q-18 -8 -28 7q-14 23 30 53q-25 15 -33 36q-35 -64 -48 -110q-1 -2 -3 -4l-9 -7q-11 -7 -22 5q-60 76 -91 152q-11 27 10 33q20 6 29 -17q13 -35 42 -85q20 64 61 114q9 9 16 9q8 0 13 -8zM277 101q-20 42 -48 41q-16 -3 -24 -12q-8 -10 -1 -18q16 -21 69 -19q6 0 4 8z" />
<glyph unicode="&#xfbf3;" horiz-adv-x="589" arabic-form="final" d="M330 -15q-36 -190 -188 -258q-45 -20 -81 -20q-52 0 -135 70q-15 12 -10 22t25 2q89 -31 201 37t145 152q-75 3 -107 23q-39 24 -26 87q23 99 68 127q49 29 82 -13q24 -32 33 -108q8 0 12 -1q117 11 143 59q9 15 19 15q15 0 15 -17q0 -5 0.5 -9t1.5 -6v-2q31 -38 62 -41 q28 -3 32 -20q3 -12 0 -42q-2 -24 -11 -43q-6 -14 -21 -14q-56 0 -108 64q-62 -64 -135 -64h-17zM543 370q-53 -10 -76 -18t-83 -34q-18 -8 -28 7q-14 23 30 53q-29 18 -34 41q-8 44 36 104q44 61 95 56q37 -3 34 -39q-3 -34 -15 -51t-15 -19q-14 -10 -25 5q-11 16 -26 17 q-16 1 -24 -8q-7 -9 0 -16q31 -29 93 -31q11 0 30 4q23 5 30 5q10 0 17 -10q5 -9 2 -18q-21 -43 -41 -48zM314 526l19 -27q9 -15 0 -27q-49 -81 -65 -138q-1 -2 -3 -4l-9 -7q-11 -7 -22 5q-60 76 -91 152q-11 27 10 33q20 6 29 -17q13 -35 42 -85q20 64 61 114q9 9 16 9 q8 0 13 -8zM277 101q-20 42 -48 41q-16 -3 -24 -12q-8 -10 -1 -18q16 -21 69 -19q6 0 4 8z" />
<glyph unicode="&#xfbf4;" horiz-adv-x="536" arabic-form="isolated" d="M330 -15q-36 -190 -188 -258q-45 -20 -81 -20q-52 0 -135 70q-15 12 -10 22t25 2q89 -31 201 37t145 152q-75 3 -107 23q-39 24 -26 87q23 99 68 127q49 29 82 -13q24 -32 33 -108q10 0 14 -1q53 0 79 23q-6 27 -23 45q-19 21 -10 40l29 62q15 33 26 13q49 -83 23 -194 q-25 -109 -128 -109h-17zM506 400q-53 -10 -76 -18t-83 -34q-18 -8 -28 7q-14 23 30 53q-29 18 -34 41q-8 44 36 104q44 61 95 56q37 -3 34 -39q-3 -34 -15 -51t-15 -19q-14 -10 -25 5q-11 16 -26 17q-16 1 -24 -8q-7 -9 0 -16q31 -29 93 -31q11 0 30 4q23 5 30 5 q10 0 17 -10q5 -9 2 -18q-21 -43 -41 -48zM155 573q10 27 31 2q96 -107 66 -274q-3 -15 -13 -16q-19 -3 -21 16q-14 103 -76 179q-11 14 -6 29zM277 101q-20 42 -48 41q-16 -3 -24 -12q-8 -10 -1 -18q16 -21 69 -19q6 0 4 8z" />
<glyph unicode="&#xfbf5;" horiz-adv-x="589" arabic-form="final" d="M330 -15q-36 -190 -188 -258q-45 -20 -81 -20q-52 0 -135 70q-15 12 -10 22t25 2q89 -31 201 37t145 152q-75 3 -107 23q-39 24 -26 87q23 99 68 127q49 29 82 -13q24 -32 33 -108q8 0 12 -1q117 11 143 59q9 15 19 15q15 0 15 -17q0 -5 0.5 -9t1.5 -6v-2q31 -38 62 -41 q28 -3 32 -20q3 -12 0 -42q-2 -24 -11 -43q-6 -14 -21 -14q-56 0 -108 64q-62 -64 -135 -64h-17zM543 370q-53 -10 -76 -18t-83 -34q-18 -8 -28 7q-14 23 30 53q-29 18 -34 41q-8 44 36 104q44 61 95 56q37 -3 34 -39q-3 -34 -15 -51t-15 -19q-14 -10 -25 5q-11 16 -26 17 q-16 1 -24 -8q-7 -9 0 -16q31 -29 93 -31q11 0 30 4q23 5 30 5q10 0 17 -10q5 -9 2 -18q-21 -43 -41 -48zM155 573q10 27 31 2q96 -107 66 -274q-3 -15 -13 -16q-19 -3 -21 16q-14 103 -76 179q-11 14 -6 29zM277 101q-20 42 -48 41q-16 -3 -24 -12q-8 -10 -1 -18 q16 -21 69 -19q6 0 4 8z" />
<glyph unicode="&#xfbf6;" horiz-adv-x="734" arabic-form="isolated" d="M441 144q3 0 5 1q5 2 13 4q78 10 129 63q1 44 -23 84q-25 41 -53 62q-16 15 -9 38l25 77q10 31 36 17q23 -15 49 -69q57 -122 23 -223q-12 -36 -31 -60q41 -10 65 -31q19 -19 15 -58q-9 -70 -29 -95q-22 -29 -56 -54q-184 -141 -353 -129q-254 18 -179 309q21 80 68 141 q14 17 25 7q12 -11 -3 -32q-57 -86 -54 -156q7 -143 178 -144q171 -2 335 135q-37 20 -153 23q-11 -2 -35 -4q-6 0 -12 2q-17 8 -6 29l24 48zM611 644q-53 -10 -76 -18t-83 -34q-18 -8 -28 7q-14 23 30 53q-29 18 -34 41q-8 44 36 104q44 61 95 56q37 -3 34 -39 q-3 -34 -15 -51t-15 -19q-14 -10 -25 5q-11 16 -26 17q-16 1 -24 -8q-7 -9 0 -16q31 -29 93 -31q11 0 30 4q23 5 30 5q10 0 17 -10q5 -9 2 -18q-21 -43 -41 -48zM333 -298q6 8 17 5q43 -16 73 -43q9 -9 3 -19l-28 -44q24 -12 45 -30q8 -8 3 -18l-48 -76q-7 -10 -18 -2 q-10 7 -72 45q-11 7 -4 17l32 47q-7 4 -23.5 14t-24.5 15q-10 6 -3 16z" />
<glyph unicode="&#xfbf7;" horiz-adv-x="729" arabic-form="final" d="M432 -109q-32 12 -42 33q-3 6 -5 18v4q-3 39 37 106q40 66 92 108q55 44 88 44q36 0 67 -52q24 -41 58 -47q50 -9 40 -51q-3 -12 -6 -23t-4 -15l-1 -5q-11 -27 -27 -26q-70 4 -114 67q-25 36 -46 37t-66 -24q-44 -24 -50 -38q-4 -17 24 -32q29 -15 101 -26q68 -10 97 -20 q26 -9 38 -37q12 -29 8 -58q-5 -30 -18 -51q-26 -37 -127 -87q-99 -49 -226 -63q-228 -25 -284 133q-18 51 -3 137q15 87 77 186q10 18 27 9q16 -9 -3 -40q-66 -107 -49 -175q33 -141 219 -129q145 9 308 86q-23 5 -86 9q-77 6 -124 22zM595 400q-53 -10 -76 -18t-83 -34 q-18 -8 -28 7q-14 23 30 53q-29 18 -34 41q-8 44 36 104q44 61 95 56q37 -3 34 -39q-3 -34 -15 -51t-15 -19q-14 -10 -25 5q-11 16 -26 17q-16 1 -24 -8q-7 -9 0 -16q31 -29 93 -31q11 0 30 4q23 5 30 5q10 0 17 -10q5 -9 2 -18q-21 -43 -41 -48zM346 -421q6 8 17 5 q43 -16 73 -43q9 -9 3 -19l-28 -44q24 -12 45 -30q8 -8 3 -18l-48 -76q-7 -10 -18 -2t-72 45q-11 7 -4 17l32 47q-7 4 -23.5 14t-24.5 15q-10 6 -3 16z" />
<glyph unicode="&#xfbf8;" horiz-adv-x="471" arabic-form="initial" d="M136 40q-8 6 -11 10q-1 0 -8 5q-64 -68 -117 -70q-33 0 -42 57q-8 57 40 63q89 11 123 54q18 21 35 7q4 -3 9 -7.5t9 -7.5t7 -5l2 -2q58 -41 118 -47q0 7 -12 22q-12 14 -7 28l23 69q18 53 40 2q21 -55 15 -122q-9 -96 -67 -106q-73 -11 -157 50zM375 412 q-53 -10 -76 -18t-83 -34q-18 -8 -28 7q-14 23 30 53q-29 18 -34 41q-8 44 36 104q44 61 95 56q37 -3 34 -39q-3 -34 -15 -51t-15 -19q-14 -10 -25 5q-11 16 -26 17q-16 1 -24 -8q-7 -9 0 -16q31 -29 93 -31q11 0 30 4q23 5 30 5q10 0 17 -10q5 -9 2 -18q-21 -43 -41 -48z M27 -84q6 8 17 5q43 -16 73 -43q9 -9 3 -19l-28 -44q24 -12 45 -30q8 -8 3 -18l-48 -76q-7 -10 -18 -2q-10 7 -72 45q-11 7 -4 17l32 47q-7 4 -23.5 14t-24.5 15q-10 6 -3 16z" />
<glyph unicode="&#xfbf9;" horiz-adv-x="734" arabic-form="isolated" d="M441 144q3 0 5 1q5 2 13 4q78 10 129 63q1 44 -23 84q-25 41 -53 62q-16 15 -9 38l25 77q10 31 36 17q23 -15 49 -69q57 -122 23 -223q-12 -36 -31 -60q41 -10 65 -31q19 -19 15 -58q-9 -70 -29 -95q-22 -29 -56 -54q-184 -141 -353 -129q-254 18 -179 309q21 80 68 141 q14 17 25 7q12 -11 -3 -32q-57 -86 -54 -156q7 -143 178 -144q171 -2 335 135q-37 20 -153 23q-11 -2 -35 -4q-6 0 -12 2q-17 8 -6 29l24 48zM611 644q-53 -10 -76 -18t-83 -34q-18 -8 -28 7q-14 23 30 53q-29 18 -34 41q-8 44 36 104q44 61 95 56q37 -3 34 -39 q-3 -34 -15 -51t-15 -19q-14 -10 -25 5q-11 16 -26 17q-16 1 -24 -8q-7 -9 0 -16q31 -29 93 -31q11 0 30 4q23 5 30 5q10 0 17 -10q5 -9 2 -18q-21 -43 -41 -48z" />
<glyph unicode="&#xfbfa;" horiz-adv-x="729" arabic-form="final" d="M432 -109q-32 12 -42 33q-3 6 -5 18v4q-3 39 37 106q40 66 92 108q55 44 88 44q36 0 67 -52q24 -41 58 -47q50 -9 40 -51q-3 -12 -6 -23t-4 -15l-1 -5q-11 -27 -27 -26q-70 4 -114 67q-25 36 -46 37t-66 -24q-44 -24 -50 -38q-4 -17 24 -32q29 -15 101 -26q68 -10 97 -20 q26 -9 38 -37q12 -29 8 -58q-5 -30 -18 -51q-26 -37 -127 -87q-99 -49 -226 -63q-228 -25 -284 133q-18 51 -3 137q15 87 77 186q10 18 27 9q16 -9 -3 -40q-66 -107 -49 -175q33 -141 219 -129q145 9 308 86q-23 5 -86 9q-77 6 -124 22zM595 400q-53 -10 -76 -18t-83 -34 q-18 -8 -28 7q-14 23 30 53q-29 18 -34 41q-8 44 36 104q44 61 95 56q37 -3 34 -39q-3 -34 -15 -51t-15 -19q-14 -10 -25 5q-11 16 -26 17q-16 1 -24 -8q-7 -9 0 -16q31 -29 93 -31q11 0 30 4q23 5 30 5q10 0 17 -10q5 -9 2 -18q-21 -43 -41 -48z" />
<glyph unicode="&#xfbfb;" horiz-adv-x="471" arabic-form="initial" d="M136 40q-8 6 -11 10q-1 0 -8 5q-64 -68 -117 -70q-33 0 -42 57q-8 57 40 63q89 11 123 54q18 21 35 7q4 -3 9 -7.5t9 -7.5t7 -5l2 -2q58 -41 118 -47q0 7 -12 22q-12 14 -7 28l23 69q18 53 40 2q21 -55 15 -122q-9 -96 -67 -106q-73 -11 -157 50zM375 412 q-53 -10 -76 -18t-83 -34q-18 -8 -28 7q-14 23 30 53q-29 18 -34 41q-8 44 36 104q44 61 95 56q37 -3 34 -39q-3 -34 -15 -51t-15 -19q-14 -10 -25 5q-11 16 -26 17q-16 1 -24 -8q-7 -9 0 -16q31 -29 93 -31q11 0 30 4q23 5 30 5q10 0 17 -10q5 -9 2 -18q-21 -43 -41 -48z " />
<glyph unicode="&#x6cc;" horiz-adv-x="764" arabic-form="isolated" d="M665 275q-51 27 -139 -19q-71 -37 -86 -91q-2 -8 1 -16q18 -39 127 -45t115 -54q13 -95 -41 -139q-149 -119 -335 -126q-233 -9 -248 174q-7 92 41 192q27 55 59 96q15 20 26 9t-6 -35q-87 -128 -55 -212q41 -104 192 -101q178 3 293 90q-23 8 -98 13q-99 8 -116 58 q-18 52 2 109q44 124 136 191q77 56 137 41q58 -15 33 -109q-11 -40 -38 -26z" />
<glyph unicode="&#x6cc;" horiz-adv-x="585" arabic-form="final" d="M60 -125q11 98 68 199q11 19 25 10q13 -9 2 -29q-73 -135 -37 -203q51 -99 195 -93q164 8 286 107q-24 8 -87 12q-66 5 -74 8q-25 10 -34 33q-15 42 13 83q47 70 165 102q19 5 33 -5q14 -9 9 -52q-4 -41 -16 -51t-50 -10q-40 0 -43 -7q142 -7 160 -71q6 -24 -11 -63 q-18 -41 -33 -57q-144 -145 -323 -153q-134 -6 -204 64q-57 57 -44 176z" />
<glyph unicode="&#x6cc;" horiz-adv-x="190" arabic-form="initial" d="M51 213l29 62q15 33 26 13q49 -83 23 -194q-25 -109 -129 -109q-20 0 -29 34q-8 29 -8 54q0 20 21 29q7 3 16 3q56 -1 84 23q-6 27 -23 45q-19 21 -10 40zM142 -109q6 8 17 5q45 -17 74 -43q8 -8 3 -18l-48 -76q-8 -11 -18 -2q-5 4 -53 34l-33 -54q-7 -10 -18 -2 q-5 3 -73 45q-11 6 -3 17l48 72q6 8 17 5q30 -10 56 -29z" />
<glyph unicode="&#x6cc;" horiz-adv-x="244" arabic-form="medial" d="M182 145q31 -38 62 -41q28 -3 32 -20q3 -12 0 -42q-2 -24 -11 -43q-6 -14 -21 -14q-56 0 -108 64q-62 -64 -136 -64q-21 0 -27 27l-9 41q-3 16 8 33q11 18 28 19q119 9 146 59q9 15 19 15q15 0 15 -17q0 -5 0.5 -9t1.5 -6v-2zM161 -60q6 8 17 5q45 -17 74 -43q8 -8 3 -18 l-48 -76q-8 -11 -18 -2q-5 4 -53 34l-33 -54q-7 -10 -18 -2q-5 3 -73 45q-11 6 -3 17l48 72q6 8 17 5q30 -10 56 -29z" />
<glyph unicode="&#xfc00;" horiz-adv-x="647" arabic-form="isolated" d="M77 226l16 16l1 2q2 2 3 2q28 22 55 37q116 66 151 102q38 39 55 84q21 55 35 79q18 31 48 31q28 0 51 -33q30 -47 24 -189q0 -16 -15 -24q-6 -3 -11 -3q-21 0 -26 27q-9 80 -30 95q-7 4 -14 -6q-10 -14 -26 -46q-44 -88 -147 -154q235 -10 347 5q31 2 25 -20l-17 -64 q-4 -18 -26 -21q-226 -27 -354 -148q-84 -80 -87 -168q-4 -155 131 -202q134 -46 473 -28q21 2 21 -15q1 -12 -9 -17q-113 -49 -185 -71q-66 -21 -123 -19q-210 6 -291 87q-80 81 -70 214q19 235 176 356l-186 1q-52 0 -21 45l20 29l-4 3zM506 706q-53 -10 -76 -18t-83 -34 q-18 -8 -28 7q-14 23 30 53q-29 18 -34 41q-8 44 36 104q44 61 95 56q37 -3 34 -39q-3 -34 -15 -51t-15 -19q-14 -10 -25 5q-11 16 -26 17q-16 1 -24 -8q-7 -9 0 -16q31 -29 93 -31q11 0 30 4q23 5 30 5q10 0 17 -10q5 -9 2 -18q-21 -43 -41 -48zM377 -113q6 8 17 5 q43 -16 73 -43q8 -8 3 -18l-48 -76q-7 -10 -18 -2q-10 7 -72 45q-11 7 -4 17z" />
<glyph unicode="&#xfc01;" horiz-adv-x="647" arabic-form="isolated" d="M77 226l16 16l1 2q2 2 3 2q28 22 55 37q116 66 151 102q38 39 55 84q21 55 35 79q18 31 48 31q28 0 51 -33q30 -47 24 -189q0 -16 -15 -24q-6 -3 -11 -3q-21 0 -26 27q-9 80 -30 95q-7 4 -14 -6q-10 -14 -26 -46q-44 -88 -147 -154q235 -10 347 5q31 2 25 -20l-17 -64 q-4 -18 -26 -21q-226 -27 -354 -148q-84 -80 -87 -168q-4 -155 131 -202q134 -46 473 -28q21 2 21 -15q1 -12 -9 -17q-113 -49 -185 -71q-66 -21 -123 -19q-210 6 -291 87q-80 81 -70 214q19 235 176 356l-186 1q-52 0 -21 45l20 29l-4 3zM506 706q-53 -10 -76 -18t-83 -34 q-18 -8 -28 7q-14 23 30 53q-29 18 -34 41q-8 44 36 104q44 61 95 56q37 -3 34 -39q-3 -34 -15 -51t-15 -19q-14 -10 -25 5q-11 16 -26 17q-16 1 -24 -8q-7 -9 0 -16q31 -29 93 -31q11 0 30 4q23 5 30 5q10 0 17 -10q5 -9 2 -18q-21 -43 -41 -48z" />
<glyph unicode="&#xfc02;" horiz-adv-x="594" arabic-form="isolated" d="M118 97q-22 10 -13 37q21 59 28 67l3 3q2 4 4 7q23 23 81 59q151 96 236 95q39 0 71 -24q31 -24 21 -59q-5 -19 -29 -51q-22 -30 -34 -33q-28 -9 -37 22q-6 22 -34 25q-51 4 -160 -53q64 -29 109 -63q25 -19 14 -52q-4 -11 -8.5 -24.5t-6.5 -19t-2 -7.5q-12 -28 -35 -27 q-101 12 -184 -8q-55 -14 -70 -30q4 -36 24 -156q25 -146 26 -166q4 -64 -15 -142q-6 -21 -22 -18q-15 3 -12 49q3 45 -45 285q-15 81 4 149q19 67 41 94q21 25 45 41zM496 561q-53 -10 -76 -18t-83 -34q-18 -8 -28 7q-14 23 30 53q-29 18 -34 41q-8 44 36 104q44 61 95 56 q37 -3 34 -39q-3 -34 -15 -51t-15 -19q-14 -10 -25 5q-11 16 -26 17q-16 1 -24 -8q-7 -9 0 -16q31 -29 93 -31q11 0 30 4q23 5 30 5q10 0 17 -10q5 -9 2 -18q-21 -43 -41 -48z" />
<glyph unicode="&#xfc03;" horiz-adv-x="734" arabic-form="isolated" d="M441 144q3 0 5 1q5 2 13 4q78 10 129 63q1 44 -23 84q-25 41 -53 62q-16 15 -9 38l25 77q10 31 36 17q23 -15 49 -69q57 -122 23 -223q-12 -36 -31 -60q41 -10 65 -31q19 -19 15 -58q-9 -70 -29 -95q-22 -29 -56 -54q-184 -141 -353 -129q-254 18 -179 309q21 80 68 141 q14 17 25 7q12 -11 -3 -32q-57 -86 -54 -156q7 -143 178 -144q171 -2 335 135q-37 20 -153 23q-11 -2 -35 -4q-6 0 -12 2q-17 8 -6 29l24 48zM611 644q-53 -10 -76 -18t-83 -34q-18 -8 -28 7q-14 23 30 53q-29 18 -34 41q-8 44 36 104q44 61 95 56q37 -3 34 -39 q-3 -34 -15 -51t-15 -19q-14 -10 -25 5q-11 16 -26 17q-16 1 -24 -8q-7 -9 0 -16q31 -29 93 -31q11 0 30 4q23 5 30 5q10 0 17 -10q5 -9 2 -18q-21 -43 -41 -48z" />
<glyph unicode="&#xfc04;" horiz-adv-x="734" arabic-form="isolated" d="M441 144q3 0 5 1q5 2 13 4q78 10 129 63q1 44 -23 84q-25 41 -53 62q-16 15 -9 38l25 77q10 31 36 17q23 -15 49 -69q57 -122 23 -223q-12 -36 -31 -60q41 -10 65 -31q19 -19 15 -58q-9 -70 -29 -95q-22 -29 -56 -54q-184 -141 -353 -129q-254 18 -179 309q21 80 68 141 q14 17 25 7q12 -11 -3 -32q-57 -86 -54 -156q7 -143 178 -144q171 -2 335 135q-37 20 -153 23q-11 -2 -35 -4q-6 0 -12 2q-17 8 -6 29l24 48zM611 644q-53 -10 -76 -18t-83 -34q-18 -8 -28 7q-14 23 30 53q-29 18 -34 41q-8 44 36 104q44 61 95 56q37 -3 34 -39 q-3 -34 -15 -51t-15 -19q-14 -10 -25 5q-11 16 -26 17q-16 1 -24 -8q-7 -9 0 -16q31 -29 93 -31q11 0 30 4q23 5 30 5q10 0 17 -10q5 -9 2 -18q-21 -43 -41 -48zM384 -299q6 8 17 5q45 -17 74 -43q8 -8 3 -18l-48 -76q-8 -11 -18 -2q-5 4 -53 34l-33 -54q-7 -10 -18 -2 q-5 3 -73 45q-11 6 -3 17l48 72q6 8 17 5q30 -10 56 -29z" />
<glyph unicode="&#xfc05;" horiz-adv-x="647" arabic-form="isolated" d="M77 226l16 16l1 2q2 2 3 2q28 22 55 37q116 66 151 102q38 39 55 84q21 55 35 79q18 31 48 31q28 0 51 -33q30 -47 24 -189q0 -16 -15 -24q-6 -3 -11 -3q-21 0 -26 27q-9 80 -30 95q-7 4 -14 -6q-10 -14 -26 -46q-44 -88 -147 -154q235 -10 347 5q31 2 25 -20l-17 -64 q-4 -18 -26 -21q-226 -27 -354 -148q-84 -80 -87 -168q-4 -155 131 -202q134 -46 473 -28q21 2 21 -15q1 -12 -9 -17q-113 -49 -185 -71q-66 -21 -123 -19q-210 6 -291 87q-80 81 -70 214q19 235 176 356l-186 1q-52 0 -21 45l20 29l-4 3zM377 -113q6 8 17 5q43 -16 73 -43 q8 -8 3 -18l-48 -76q-7 -10 -18 -2q-10 7 -72 45q-11 7 -4 17zM543 71q6 8 17 5q43 -16 73 -43q8 -8 3 -18l-48 -76q-7 -10 -18 -2q-10 7 -72 45q-11 7 -4 17z" />
<glyph unicode="&#xfc06;" horiz-adv-x="647" arabic-form="isolated" d="M77 226l16 16l1 2q2 2 3 2q28 22 55 37q116 66 151 102q38 39 55 84q21 55 35 79q18 31 48 31q28 0 51 -33q30 -47 24 -189q0 -16 -15 -24q-6 -3 -11 -3q-21 0 -26 27q-9 80 -30 95q-7 4 -14 -6q-10 -14 -26 -46q-44 -88 -147 -154q235 -10 347 5q31 2 25 -20l-17 -64 q-4 -18 -26 -21q-226 -27 -354 -148q-84 -80 -87 -168q-4 -155 131 -202q134 -46 473 -28q21 2 21 -15q1 -12 -9 -17q-113 -49 -185 -71q-66 -21 -123 -19q-210 6 -291 87q-80 81 -70 214q19 235 176 356l-186 1q-52 0 -21 45l20 29l-4 3zM543 71q6 8 17 5q43 -16 73 -43 q8 -8 3 -18l-48 -76q-7 -10 -18 -2q-10 7 -72 45q-11 7 -4 17z" />
<glyph unicode="&#xfc07;" horiz-adv-x="647" arabic-form="isolated" d="M77 226l16 16l1 2q2 2 3 2q28 22 55 37q116 66 151 102q38 39 55 84q21 55 35 79q18 31 48 31q28 0 51 -33q30 -47 24 -189q0 -16 -15 -24q-6 -3 -11 -3q-21 0 -26 27q-9 80 -30 95q-7 4 -14 -6q-10 -14 -26 -46q-44 -88 -147 -154q235 -10 347 5q31 2 25 -20l-17 -64 q-4 -18 -26 -21q-226 -27 -354 -148q-84 -80 -87 -168q-4 -155 131 -202q134 -46 473 -28q21 2 21 -15q1 -12 -9 -17q-113 -49 -185 -71q-66 -21 -123 -19q-210 6 -291 87q-80 81 -70 214q19 235 176 356l-186 1q-52 0 -21 45l20 29l-4 3zM138 605q6 8 17 5q43 -16 73 -43 q8 -8 3 -18l-48 -76q-7 -10 -18 -2q-11 7 -72 45q-11 7 -4 17zM543 71q6 8 17 5q43 -16 73 -43q8 -8 3 -18l-48 -76q-7 -10 -18 -2q-10 7 -72 45q-11 7 -4 17z" />
<glyph unicode="&#xfc08;" horiz-adv-x="594" arabic-form="isolated" d="M118 97q-22 10 -13 37q21 59 28 67l3 3q2 4 4 7q23 23 81 59q151 96 236 95q39 0 71 -24q31 -24 21 -59q-5 -19 -29 -51q-22 -30 -34 -33q-28 -9 -37 22q-6 22 -34 25q-51 4 -160 -53q64 -29 109 -63q25 -19 14 -52q-4 -11 -8.5 -24.5t-6.5 -19t-2 -7.5q-12 -28 -35 -27 q-101 12 -184 -8q-55 -14 -70 -30q4 -36 24 -156q25 -146 26 -166q4 -64 -15 -142q-6 -21 -22 -18q-15 3 -12 49q3 45 -45 285q-15 81 4 149q19 67 41 94q21 25 45 41zM475 -107q6 8 17 5q43 -16 73 -43q8 -8 3 -18l-48 -76q-7 -10 -18 -2q-10 7 -72 45q-11 7 -4 17z" />
<glyph unicode="&#xfc09;" horiz-adv-x="734" arabic-form="isolated" d="M441 144q3 0 5 1q5 2 13 4q78 10 129 63q1 44 -23 84q-25 41 -53 62q-16 15 -9 38l25 77q10 31 36 17q23 -15 49 -69q57 -122 23 -223q-12 -36 -31 -60q41 -10 65 -31q19 -19 15 -58q-9 -70 -29 -95q-22 -29 -56 -54q-184 -141 -353 -129q-254 18 -179 309q21 80 68 141 q14 17 25 7q12 -11 -3 -32q-57 -86 -54 -156q7 -143 178 -144q171 -2 335 135q-37 20 -153 23q-11 -2 -35 -4q-6 0 -12 2q-17 8 -6 29l24 48zM621 -225q6 8 17 5q43 -16 73 -43q8 -8 3 -18l-48 -76q-7 -10 -18 -2q-10 7 -72 45q-11 7 -4 17z" />
<glyph unicode="&#xfc0a;" horiz-adv-x="734" arabic-form="isolated" d="M441 144q3 0 5 1q5 2 13 4q78 10 129 63q1 44 -23 84q-25 41 -53 62q-16 15 -9 38l25 77q10 31 36 17q23 -15 49 -69q57 -122 23 -223q-12 -36 -31 -60q41 -10 65 -31q19 -19 15 -58q-9 -70 -29 -95q-22 -29 -56 -54q-184 -141 -353 -129q-254 18 -179 309q21 80 68 141 q14 17 25 7q12 -11 -3 -32q-57 -86 -54 -156q7 -143 178 -144q171 -2 335 135q-37 20 -153 23q-11 -2 -35 -4q-6 0 -12 2q-17 8 -6 29l24 48zM384 -299q6 8 17 5q45 -17 74 -43q8 -8 3 -18l-48 -76q-8 -11 -18 -2q-5 4 -53 34l-33 -54q-7 -10 -18 -2q-5 3 -73 45 q-11 6 -3 17l48 72q6 8 17 5q30 -10 56 -29zM621 -225q6 8 17 5q43 -16 73 -43q8 -8 3 -18l-48 -76q-7 -10 -18 -2q-10 7 -72 45q-11 7 -4 17z" />
<glyph unicode="&#xfc0b;" horiz-adv-x="647" arabic-form="isolated" d="M77 226l16 16l1 2q2 2 3 2q28 22 55 37q116 66 151 102q38 39 55 84q21 55 35 79q18 31 48 31q28 0 51 -33q30 -47 24 -189q0 -16 -15 -24q-6 -3 -11 -3q-21 0 -26 27q-9 80 -30 95q-7 4 -14 -6q-10 -14 -26 -46q-44 -88 -147 -154q235 -10 347 5q31 2 25 -20l-17 -64 q-4 -18 -26 -21q-226 -27 -354 -148q-84 -80 -87 -168q-4 -155 131 -202q134 -46 473 -28q21 2 21 -15q1 -12 -9 -17q-113 -49 -185 -71q-66 -21 -123 -19q-210 6 -291 87q-80 81 -70 214q19 235 176 356l-186 1q-52 0 -21 45l20 29l-4 3zM458 781q6 8 17 5q45 -17 74 -43 q8 -8 3 -18l-48 -76q-8 -11 -18 -2q-5 4 -53 34l-33 -54q-7 -10 -18 -2q-5 3 -73 45q-11 6 -3 17l48 72q6 8 17 5q30 -10 56 -29zM377 -113q6 8 17 5q43 -16 73 -43q8 -8 3 -18l-48 -76q-7 -10 -18 -2q-10 7 -72 45q-11 7 -4 17z" />
<glyph unicode="&#xfc0c;" horiz-adv-x="647" arabic-form="isolated" d="M77 226l16 16l1 2q2 2 3 2q28 22 55 37q116 66 151 102q38 39 55 84q21 55 35 79q18 31 48 31q28 0 51 -33q30 -47 24 -189q0 -16 -15 -24q-6 -3 -11 -3q-21 0 -26 27q-9 80 -30 95q-7 4 -14 -6q-10 -14 -26 -46q-44 -88 -147 -154q235 -10 347 5q31 2 25 -20l-17 -64 q-4 -18 -26 -21q-226 -27 -354 -148q-84 -80 -87 -168q-4 -155 131 -202q134 -46 473 -28q21 2 21 -15q1 -12 -9 -17q-113 -49 -185 -71q-66 -21 -123 -19q-210 6 -291 87q-80 81 -70 214q19 235 176 356l-186 1q-52 0 -21 45l20 29l-4 3zM458 781q6 8 17 5q45 -17 74 -43 q8 -8 3 -18l-48 -76q-8 -11 -18 -2q-5 4 -53 34l-33 -54q-7 -10 -18 -2q-5 3 -73 45q-11 6 -3 17l48 72q6 8 17 5q30 -10 56 -29z" />
<glyph unicode="&#xfc0d;" horiz-adv-x="647" arabic-form="isolated" d="M77 226l16 16l1 2q2 2 3 2q28 22 55 37q116 66 151 102q38 39 55 84q21 55 35 79q18 31 48 31q28 0 51 -33q30 -47 24 -189q0 -16 -15 -24q-6 -3 -11 -3q-21 0 -26 27q-9 80 -30 95q-7 4 -14 -6q-10 -14 -26 -46q-44 -88 -147 -154q235 -10 347 5q31 2 25 -20l-17 -64 q-4 -18 -26 -21q-226 -27 -354 -148q-84 -80 -87 -168q-4 -155 131 -202q134 -46 473 -28q21 2 21 -15q1 -12 -9 -17q-113 -49 -185 -71q-66 -21 -123 -19q-210 6 -291 87q-80 81 -70 214q19 235 176 356l-186 1q-52 0 -21 45l20 29l-4 3zM458 781q6 8 17 5q45 -17 74 -43 q8 -8 3 -18l-48 -76q-8 -11 -18 -2q-5 4 -53 34l-33 -54q-7 -10 -18 -2q-5 3 -73 45q-11 6 -3 17l48 72q6 8 17 5q30 -10 56 -29zM138 605q6 8 17 5q43 -16 73 -43q8 -8 3 -18l-48 -76q-7 -10 -18 -2q-11 7 -72 45q-11 7 -4 17z" />
<glyph unicode="&#xfc0e;" horiz-adv-x="594" arabic-form="isolated" d="M118 97q-22 10 -13 37q21 59 28 67l3 3q2 4 4 7q23 23 81 59q151 96 236 95q39 0 71 -24q31 -24 21 -59q-5 -19 -29 -51q-22 -30 -34 -33q-28 -9 -37 22q-6 22 -34 25q-51 4 -160 -53q64 -29 109 -63q25 -19 14 -52q-4 -11 -8.5 -24.5t-6.5 -19t-2 -7.5q-12 -28 -35 -27 q-101 12 -184 -8q-55 -14 -70 -30q4 -36 24 -156q25 -146 26 -166q4 -64 -15 -142q-6 -21 -22 -18q-15 3 -12 49q3 45 -45 285q-15 81 4 149q19 67 41 94q21 25 45 41zM448 637q6 8 17 5q45 -17 74 -43q8 -8 3 -18l-48 -76q-8 -11 -18 -2q-5 4 -53 34l-33 -54q-7 -10 -18 -2 q-5 3 -73 45q-11 6 -3 17l48 72q6 8 17 5q30 -10 56 -29z" />
<glyph unicode="&#xfc0f;" horiz-adv-x="734" arabic-form="isolated" d="M441 144q3 0 5 1q5 2 13 4q78 10 129 63q1 44 -23 84q-25 41 -53 62q-16 15 -9 38l25 77q10 31 36 17q23 -15 49 -69q57 -122 23 -223q-12 -36 -31 -60q41 -10 65 -31q19 -19 15 -58q-9 -70 -29 -95q-22 -29 -56 -54q-184 -141 -353 -129q-254 18 -179 309q21 80 68 141 q14 17 25 7q12 -11 -3 -32q-57 -86 -54 -156q7 -143 178 -144q171 -2 335 135q-37 20 -153 23q-11 -2 -35 -4q-6 0 -12 2q-17 8 -6 29l24 48zM544 719q6 8 17 5q45 -17 74 -43q8 -8 3 -18l-48 -76q-8 -11 -18 -2q-5 4 -53 34l-33 -54q-7 -10 -18 -2q-5 3 -73 45q-11 6 -3 17 l48 72q6 8 17 5q30 -10 56 -29z" />
<glyph unicode="&#xfc10;" horiz-adv-x="734" arabic-form="isolated" d="M441 144q3 0 5 1q5 2 13 4q78 10 129 63q1 44 -23 84q-25 41 -53 62q-16 15 -9 38l25 77q10 31 36 17q23 -15 49 -69q57 -122 23 -223q-12 -36 -31 -60q41 -10 65 -31q19 -19 15 -58q-9 -70 -29 -95q-22 -29 -56 -54q-184 -141 -353 -129q-254 18 -179 309q21 80 68 141 q14 17 25 7q12 -11 -3 -32q-57 -86 -54 -156q7 -143 178 -144q171 -2 335 135q-37 20 -153 23q-11 -2 -35 -4q-6 0 -12 2q-17 8 -6 29l24 48zM384 -299q6 8 17 5q45 -17 74 -43q8 -8 3 -18l-48 -76q-8 -11 -18 -2q-5 4 -53 34l-33 -54q-7 -10 -18 -2q-5 3 -73 45 q-11 6 -3 17l48 72q6 8 17 5q30 -10 56 -29zM544 719q6 8 17 5q45 -17 74 -43q8 -8 3 -18l-48 -76q-8 -11 -18 -2q-5 4 -53 34l-33 -54q-7 -10 -18 -2q-5 3 -73 45q-11 6 -3 17l48 72q6 8 17 5q30 -10 56 -29z" />
<glyph unicode="&#xfc11;" horiz-adv-x="647" arabic-form="isolated" d="M77 226l16 16l1 2q2 2 3 2q28 22 55 37q116 66 151 102q38 39 55 84q21 55 35 79q18 31 48 31q28 0 51 -33q30 -47 24 -189q0 -16 -15 -24q-6 -3 -11 -3q-21 0 -26 27q-9 80 -30 95q-7 4 -14 -6q-10 -14 -26 -46q-44 -88 -147 -154q235 -10 347 5q31 2 25 -20l-17 -64 q-4 -18 -26 -21q-226 -27 -354 -148q-84 -80 -87 -168q-4 -155 131 -202q134 -46 473 -28q21 2 21 -15q1 -12 -9 -17q-113 -49 -185 -71q-66 -21 -123 -19q-210 6 -291 87q-80 81 -70 214q19 235 176 356l-186 1q-52 0 -21 45l20 29l-4 3zM454 781q6 9 18 5q43 -16 73 -43 q8 -8 3 -18l-48 -76q-8 -11 -17 -3q-6 5 -46 30l-31 -49q-8 -11 -18 -3q-14 10 -73 46q-10 6 -3 16l48 72q12 17 66 -19zM377 -113q6 8 17 5q43 -16 73 -43q8 -8 3 -18l-48 -76q-7 -10 -18 -2q-10 7 -72 45q-11 7 -4 17zM384 893q6 8 17 5q43 -16 73 -43q8 -8 3 -18l-48 -76 q-7 -10 -18 -2q-11 7 -72 45q-11 6 -4 16z" />
<glyph unicode="&#xfc12;" horiz-adv-x="594" arabic-form="isolated" d="M118 97q-22 10 -13 37q21 59 28 67l3 3q2 4 4 7q23 23 81 59q151 96 236 95q39 0 71 -24q31 -24 21 -59q-5 -19 -29 -51q-22 -30 -34 -33q-28 -9 -37 22q-6 22 -34 25q-51 4 -160 -53q64 -29 109 -63q25 -19 14 -52q-4 -11 -8.5 -24.5t-6.5 -19t-2 -7.5q-12 -28 -35 -27 q-101 12 -184 -8q-55 -14 -70 -30q4 -36 24 -156q25 -146 26 -166q4 -64 -15 -142q-6 -21 -22 -18q-15 3 -12 49q3 45 -45 285q-15 81 4 149q19 67 41 94q21 25 45 41zM444 637q6 9 18 5q43 -16 73 -43q8 -8 3 -18l-48 -76q-8 -11 -17 -3q-6 5 -46 30l-31 -49q-8 -11 -18 -3 q-14 10 -73 46q-10 6 -3 16l48 72q12 17 66 -19zM374 749q6 8 17 5q43 -16 73 -43q8 -8 3 -18l-48 -76q-7 -10 -18 -2q-11 7 -72 45q-11 6 -4 16z" />
<glyph unicode="&#xfc13;" horiz-adv-x="734" arabic-form="isolated" d="M441 144q3 0 5 1q5 2 13 4q78 10 129 63q1 44 -23 84q-25 41 -53 62q-16 15 -9 38l25 77q10 31 36 17q23 -15 49 -69q57 -122 23 -223q-12 -36 -31 -60q41 -10 65 -31q19 -19 15 -58q-9 -70 -29 -95q-22 -29 -56 -54q-184 -141 -353 -129q-254 18 -179 309q21 80 68 141 q14 17 25 7q12 -11 -3 -32q-57 -86 -54 -156q7 -143 178 -144q171 -2 335 135q-37 20 -153 23q-11 -2 -35 -4q-6 0 -12 2q-17 8 -6 29l24 48zM540 719q6 9 18 5q43 -16 73 -43q8 -8 3 -18l-48 -76q-8 -11 -17 -3q-6 5 -46 30l-31 -49q-8 -11 -18 -3q-14 10 -73 46 q-10 6 -3 16l48 72q12 17 66 -19zM470 831q6 8 17 5q43 -16 73 -43q8 -8 3 -18l-48 -76q-7 -10 -18 -2q-11 7 -72 45q-11 6 -4 16z" />
<glyph unicode="&#xfc14;" horiz-adv-x="734" arabic-form="isolated" d="M441 144q3 0 5 1q5 2 13 4q78 10 129 63q1 44 -23 84q-25 41 -53 62q-16 15 -9 38l25 77q10 31 36 17q23 -15 49 -69q57 -122 23 -223q-12 -36 -31 -60q41 -10 65 -31q19 -19 15 -58q-9 -70 -29 -95q-22 -29 -56 -54q-184 -141 -353 -129q-254 18 -179 309q21 80 68 141 q14 17 25 7q12 -11 -3 -32q-57 -86 -54 -156q7 -143 178 -144q171 -2 335 135q-37 20 -153 23q-11 -2 -35 -4q-6 0 -12 2q-17 8 -6 29l24 48zM384 -299q6 8 17 5q45 -17 74 -43q8 -8 3 -18l-48 -76q-8 -11 -18 -2q-5 4 -53 34l-33 -54q-7 -10 -18 -2q-5 3 -73 45 q-11 6 -3 17l48 72q6 8 17 5q30 -10 56 -29zM540 719q6 9 18 5q43 -16 73 -43q8 -8 3 -18l-48 -76q-8 -11 -17 -3q-6 5 -46 30l-31 -49q-8 -11 -18 -3q-14 10 -73 46q-10 6 -3 16l48 72q12 17 66 -19zM470 831q6 8 17 5q43 -16 73 -43q8 -8 3 -18l-48 -76q-7 -10 -18 -2 q-11 7 -72 45q-11 6 -4 16z" />
<glyph unicode="&#xfc15;" horiz-adv-x="835" arabic-form="isolated" d="M243 483q21 95 105 103q44 3 134 -48q121 -68 273 -80q17 -1 25 -14q8 -12 -1 -31l-19 -42q-12 -25 -39 -21q-67 15 -176 10t-280 -85q-36 -18 -52 -28q267 -12 381 4q31 2 25 -20l-17 -64q-4 -18 -26 -21q-226 -27 -354 -148q-84 -80 -87 -168q-4 -155 131 -202 q134 -46 473 -28q21 2 21 -15q1 -12 -9 -17q-113 -49 -185 -71q-66 -21 -123 -19q-210 6 -291 87q-80 81 -70 214q19 235 176 356l-186 1q-20 0 -27.5 7.5t-2.5 21.5h-2l9 20q20 44 32 64q146 115 371 184q-66 31 -101 39q-33 7 -74 -10q-11 -4 -18 -3q-19 3 -16 24zM701 4 q6 8 17 5q43 -16 73 -43q8 -8 3 -18l-48 -76q-7 -10 -18 -2q-10 8 -72 45q-11 7 -4 17z" />
<glyph unicode="&#xfc16;" horiz-adv-x="1178" arabic-form="isolated" d="M272 213q87 -102 249 -108q154 9 258 58q-142 64 -231 37q-14 -5 -19 0.5t-1 21.5q9 35 46 70t71 35q38 0 165 -53q130 -54 287 -47q15 1 17 -9t-7 -30l-27 -62q-9 -18 -21 -17q-113 19 -216 -13q-108 -34 -181 -71q-79 -40 -140 -40q-84 -1 -158 33q0 -95 -44 -130 q-20 -15 -39 1q-58 52 -72 152q-54 -7 -97 -52q-5 -22 10 -119q54 -361 41 -420q-9 -38 -30 -38q-20 0 -22 45q-1 62 -37 281q-35 214 2 305q37 92 147 142q21 61 49 28zM798 -36q6 8 17 5q43 -16 73 -43q8 -8 3 -18l-48 -76q-7 -10 -18 -2t-72 45q-11 7 -4 17z" />
<glyph unicode="&#xfc17;" horiz-adv-x="835" arabic-form="isolated" d="M243 483q21 95 105 103q44 3 134 -48q121 -68 273 -80q17 -1 25 -14q8 -12 -1 -31l-19 -42q-12 -25 -39 -21q-67 15 -176 10t-280 -85q-36 -18 -52 -28q267 -12 381 4q31 2 25 -20l-17 -64q-4 -18 -26 -21q-226 -27 -354 -148q-84 -80 -87 -168q-4 -155 131 -202 q134 -46 473 -28q21 2 21 -15q1 -12 -9 -17q-113 -49 -185 -71q-66 -21 -123 -19q-210 6 -291 87q-80 81 -70 214q19 235 176 356l-186 1q-20 0 -27.5 7.5t-2.5 21.5h-2l9 20q20 44 32 64q146 115 371 184q-66 31 -101 39q-33 7 -74 -10q-11 -4 -18 -3q-19 3 -16 24z M377 -113q6 8 17 5q43 -16 73 -43q8 -8 3 -18l-48 -76q-7 -10 -18 -2q-10 7 -72 45q-11 7 -4 17z" />
<glyph unicode="&#xfc18;" horiz-adv-x="1178" arabic-form="isolated" d="M272 213q87 -102 249 -108q154 9 258 58q-142 64 -231 37q-14 -5 -19 0.5t-1 21.5q9 35 46 70t71 35q38 0 165 -53q130 -54 287 -47q15 1 17 -9t-7 -30l-27 -62q-9 -18 -21 -17q-113 19 -216 -13q-108 -34 -181 -71q-79 -40 -140 -40q-84 -1 -158 33q0 -95 -44 -130 q-20 -15 -39 1q-58 52 -72 152q-54 -7 -97 -52q-5 -22 10 -119q54 -361 41 -420q-9 -38 -30 -38q-20 0 -22 45q-1 62 -37 281q-35 214 2 305q37 92 147 142q21 61 49 28z" />
<glyph unicode="&#xfc19;" horiz-adv-x="835" arabic-form="isolated" d="M243 483q21 95 105 103q44 3 134 -48q121 -68 273 -80q17 -1 25 -14q8 -12 -1 -31l-19 -42q-12 -25 -39 -21q-67 15 -176 10t-280 -85q-36 -18 -52 -28q267 -12 381 4q31 2 25 -20l-17 -64q-4 -18 -26 -21q-226 -27 -354 -148q-84 -80 -87 -168q-4 -155 131 -202 q134 -46 473 -28q21 2 21 -15q1 -12 -9 -17q-113 -49 -185 -71q-66 -21 -123 -19q-210 6 -291 87q-80 81 -70 214q19 235 176 356l-186 1q-20 0 -27.5 7.5t-2.5 21.5h-2l9 20q20 44 32 64q146 115 371 184q-66 31 -101 39q-33 7 -74 -10q-11 -4 -18 -3q-19 3 -16 24z M701 716q6 8 17 5q43 -16 73 -43q8 -8 3 -18l-48 -76q-7 -10 -18 -2q-10 8 -72 45q-11 7 -4 17zM377 -113q6 8 17 5q43 -16 73 -43q8 -8 3 -18l-48 -76q-7 -10 -18 -2q-10 7 -72 45q-11 7 -4 17z" />
<glyph unicode="&#xfc1a;" horiz-adv-x="835" arabic-form="isolated" d="M243 483q21 95 105 103q44 3 134 -48q121 -68 273 -80q17 -1 25 -14q8 -12 -1 -31l-19 -42q-12 -25 -39 -21q-67 15 -176 10t-280 -85q-36 -18 -52 -28q267 -12 381 4q31 2 25 -20l-17 -64q-4 -18 -26 -21q-226 -27 -354 -148q-84 -80 -87 -168q-4 -155 131 -202 q134 -46 473 -28q21 2 21 -15q1 -12 -9 -17q-113 -49 -185 -71q-66 -21 -123 -19q-210 6 -291 87q-80 81 -70 214q19 235 176 356l-186 1q-20 0 -27.5 7.5t-2.5 21.5h-2l9 20q20 44 32 64q146 115 371 184q-66 31 -101 39q-33 7 -74 -10q-11 -4 -18 -3q-19 3 -16 24z M701 716q6 8 17 5q43 -16 73 -43q8 -8 3 -18l-48 -76q-7 -10 -18 -2q-10 8 -72 45q-11 7 -4 17z" />
<glyph unicode="&#xfc1b;" horiz-adv-x="1178" arabic-form="isolated" d="M272 213q87 -102 249 -108q154 9 258 58q-142 64 -231 37q-14 -5 -19 0.5t-1 21.5q9 35 46 70t71 35q38 0 165 -53q130 -54 287 -47q15 1 17 -9t-7 -30l-27 -62q-9 -18 -21 -17q-113 19 -216 -13q-108 -34 -181 -71q-79 -40 -140 -40q-84 -1 -158 33q0 -95 -44 -130 q-20 -15 -39 1q-58 52 -72 152q-54 -7 -97 -52q-5 -22 10 -119q54 -361 41 -420q-9 -38 -30 -38q-20 0 -22 45q-1 62 -37 281q-35 214 2 305q37 92 147 142q21 61 49 28zM798 527q6 8 17 5q43 -16 73 -43q8 -8 3 -18l-48 -76q-7 -10 -18 -2q-11 7 -72 45q-11 7 -4 17z" />
<glyph unicode="&#xfc1c;" horiz-adv-x="775" arabic-form="isolated" d="M666 520q12 33 30 8q17 -24 20 -60q6 -93 -55 -155q-18 -18 -42 -15q-53 6 -85 51q-46 -73 -104 -76q-74 -3 -120 99q-8 15 -14 15t-10 -12q-32 -75 -84 -127q273 -14 392 3q31 2 25 -20l-17 -64q-4 -18 -26 -21q-226 -27 -354 -148q-84 -80 -87 -168q-4 -155 131 -202 q134 -46 473 -28q21 2 21 -15q1 -12 -9 -17q-113 -49 -185 -71q-66 -21 -123 -19q-210 6 -291 87q-80 81 -70 214q19 235 176 356l-186 1q-52 0 -21 45l1 2q0 11 9 31q1 2 10 21q7 16 20 21q110 36 173 168q21 40 35 53q21 20 38 -11q49 -73 103 -73q71 0 119 110 q8 17 21 11t4 -27q-8 -19 -8 -28q4 -44 88 -43q-6 9 -16 17t-2 29zM377 -113q6 8 17 5q43 -16 73 -43q8 -8 3 -18l-48 -76q-7 -10 -18 -2q-10 7 -72 45q-11 7 -4 17z" />
<glyph unicode="&#xfc1d;" horiz-adv-x="775" arabic-form="isolated" d="M666 520q12 33 30 8q17 -24 20 -60q6 -93 -55 -155q-18 -18 -42 -15q-53 6 -85 51q-46 -73 -104 -76q-74 -3 -120 99q-8 15 -14 15t-10 -12q-32 -75 -84 -127q273 -14 392 3q31 2 25 -20l-17 -64q-4 -18 -26 -21q-226 -27 -354 -148q-84 -80 -87 -168q-4 -155 131 -202 q134 -46 473 -28q21 2 21 -15q1 -12 -9 -17q-113 -49 -185 -71q-66 -21 -123 -19q-210 6 -291 87q-80 81 -70 214q19 235 176 356l-186 1q-52 0 -21 45l1 2q0 11 9 31q1 2 10 21q7 16 20 21q110 36 173 168q21 40 35 53q21 20 38 -11q49 -73 103 -73q71 0 119 110 q8 17 21 11t4 -27q-8 -19 -8 -28q4 -44 88 -43q-6 9 -16 17t-2 29z" />
<glyph unicode="&#xfc1e;" horiz-adv-x="775" arabic-form="isolated" d="M666 520q12 33 30 8q17 -24 20 -60q6 -93 -55 -155q-18 -18 -42 -15q-53 6 -85 51q-46 -73 -104 -76q-74 -3 -120 99q-8 15 -14 15t-10 -12q-32 -75 -84 -127q273 -14 392 3q31 2 25 -20l-17 -64q-4 -18 -26 -21q-226 -27 -354 -148q-84 -80 -87 -168q-4 -155 131 -202 q134 -46 473 -28q21 2 21 -15q1 -12 -9 -17q-113 -49 -185 -71q-66 -21 -123 -19q-210 6 -291 87q-80 81 -70 214q19 235 176 356l-186 1q-52 0 -21 45l1 2q0 11 9 31q1 2 10 21q7 16 20 21q110 36 173 168q21 40 35 53q21 20 38 -11q49 -73 103 -73q71 0 119 110 q8 17 21 11t4 -27q-8 -19 -8 -28q4 -44 88 -43q-6 9 -16 17t-2 29zM138 605q6 8 17 5q43 -16 73 -43q8 -8 3 -18l-48 -76q-7 -10 -18 -2q-11 7 -72 45q-11 7 -4 17z" />
<glyph unicode="&#xfc1f;" horiz-adv-x="910" arabic-form="isolated" d="M439 203q41 0 93 -70q19 -25 32 -28q45 4 82 35q36 30 52 100q4 16 19 13q14 -3 10 -19q-9 -42 -8 -50q4 -10 28 -23q20 -11 50 -17q-3 12 -12 19q-11 9 -6 22l26 81q11 36 33 9q36 -40 16 -139q-7 -37 -28 -71q-22 -36 -41 -37q-61 -6 -121 46q-44 -89 -99 -89h-1h-2 q-58 0 -102 72q-27 44 -96 35q-34 -4 -66 -17q64 -26 122 -68q25 -19 14 -52q-4 -11 -8.5 -24.5t-6.5 -19t-2 -7.5q-12 -28 -35 -27q-101 12 -184 -8q-55 -14 -70 -30q4 -36 24 -156q25 -146 26 -166q4 -64 -15 -142q-6 -21 -22 -18q-15 3 -12 49q3 45 -45 285q-15 81 4 149 q19 67 41 94q21 25 45 41q-22 10 -13 37q21 59 28 67l9 9q13 14 44 35q127 81 197 80z" />
<glyph unicode="&#xfc20;" horiz-adv-x="953" arabic-form="isolated" d="M771 601q31 0 77 -40q44 -39 46 -72q1 -33 -48 -100q-51 -69 -79 -79q-158 -60 -339 -32q-4 -6 -7 -11t-5.5 -8t-3.5 -4q-14 -15 -24 -8t7 43q-51 21 -82 62q-38 -57 -91 -105q260 -12 372 4q31 2 25 -20l-17 -64q-4 -18 -26 -21q-226 -27 -354 -148q-84 -80 -87 -168 q-4 -155 131 -202q134 -46 473 -28q21 2 21 -15q1 -12 -9 -17q-113 -49 -185 -71q-66 -21 -123 -19q-210 6 -291 87q-80 81 -70 214q19 235 176 356l-186 1q-52 0 -21 45l3 5q4 23 14 48q5 12 15 17q90 36 155 91q63 54 92 118q8 17 20 17q13 0 23 -19q24 -44 102 -63 q75 80 156 142q83 64 140 64zM795 430q-52 54 -107 45q-92 -13 -167 -87q190 -5 274 42z" />
<glyph unicode="&#xfc21;" horiz-adv-x="1098" arabic-form="isolated" d="M439 203q41 0 93 -70q19 -25 32 -28h5q47 0 62 2q171 245 288 248q45 1 97 -48q29 -29 25 -61q-4 -30 -28 -84q-23 -51 -35 -62q-110 -101 -363 -116q-11 -36 -18 -48q-12 -12 -25 -5q-14 8 -2 55q-3 -1 -8 -1q-58 0 -102 72q-27 44 -96 35q-34 -4 -66 -17 q64 -26 122 -68q25 -19 14 -52q-4 -11 -8.5 -24.5t-6.5 -19t-2 -7.5q-12 -28 -35 -27q-101 12 -184 -8q-55 -14 -70 -30q4 -36 24 -156q25 -146 26 -166q4 -64 -15 -142q-6 -21 -22 -18q-15 3 -12 49q3 45 -45 285q-15 81 4 149q19 67 41 94q21 25 45 41q-22 10 -13 37 q21 59 28 67l9 9q13 14 44 35q127 81 197 80zM955 188q-65 36 -111 25q-83 -20 -153 -100q198 29 264 75z" />
<glyph unicode="&#xfc22;" horiz-adv-x="953" arabic-form="isolated" d="M771 601q31 0 77 -40q44 -39 46 -72q1 -33 -48 -100q-51 -69 -79 -79q-158 -60 -339 -32q-4 -6 -7 -11t-5.5 -8t-3.5 -4q-14 -15 -24 -8t7 43q-51 21 -82 62q-38 -57 -91 -105q260 -12 372 4q31 2 25 -20l-17 -64q-4 -18 -26 -21q-226 -27 -354 -148q-84 -80 -87 -168 q-4 -155 131 -202q134 -46 473 -28q21 2 21 -15q1 -12 -9 -17q-113 -49 -185 -71q-66 -21 -123 -19q-210 6 -291 87q-80 81 -70 214q19 235 176 356l-186 1q-52 0 -21 45l3 5q4 23 14 48q5 12 15 17q90 36 155 91q63 54 92 118q8 17 20 17q13 0 23 -19q24 -44 102 -63 q75 80 156 142q83 64 140 64zM795 430q-52 54 -107 45q-92 -13 -167 -87q190 -5 274 42zM535 749q6 8 17 5q43 -16 73 -43q8 -8 3 -18l-48 -76q-7 -10 -18 -2q-10 7 -72 45q-11 7 -4 17zM377 -113q6 8 17 5q43 -16 73 -43q8 -8 3 -18l-48 -76q-7 -10 -18 -2q-10 7 -72 45 q-11 7 -4 17z" />
<glyph unicode="&#xfc23;" horiz-adv-x="953" arabic-form="isolated" d="M771 601q31 0 77 -40q44 -39 46 -72q1 -33 -48 -100q-51 -69 -79 -79q-158 -60 -339 -32q-4 -6 -7 -11t-5.5 -8t-3.5 -4q-14 -15 -24 -8t7 43q-51 21 -82 62q-38 -57 -91 -105q260 -12 372 4q31 2 25 -20l-17 -64q-4 -18 -26 -21q-226 -27 -354 -148q-84 -80 -87 -168 q-4 -155 131 -202q134 -46 473 -28q21 2 21 -15q1 -12 -9 -17q-113 -49 -185 -71q-66 -21 -123 -19q-210 6 -291 87q-80 81 -70 214q19 235 176 356l-186 1q-52 0 -21 45l3 5q4 23 14 48q5 12 15 17q90 36 155 91q63 54 92 118q8 17 20 17q13 0 23 -19q24 -44 102 -63 q75 80 156 142q83 64 140 64zM795 430q-52 54 -107 45q-92 -13 -167 -87q190 -5 274 42zM535 749q6 8 17 5q43 -16 73 -43q8 -8 3 -18l-48 -76q-7 -10 -18 -2q-10 7 -72 45q-11 7 -4 17z" />
<glyph unicode="&#xfc24;" horiz-adv-x="953" arabic-form="isolated" d="M771 601q31 0 77 -40q44 -39 46 -72q1 -33 -48 -100q-51 -69 -79 -79q-158 -60 -339 -32q-4 -6 -7 -11t-5.5 -8t-3.5 -4q-14 -15 -24 -8t7 43q-51 21 -82 62q-38 -57 -91 -105q260 -12 372 4q31 2 25 -20l-17 -64q-4 -18 -26 -21q-226 -27 -354 -148q-84 -80 -87 -168 q-4 -155 131 -202q134 -46 473 -28q21 2 21 -15q1 -12 -9 -17q-113 -49 -185 -71q-66 -21 -123 -19q-210 6 -291 87q-80 81 -70 214q19 235 176 356l-186 1q-52 0 -21 45l3 5q4 23 14 48q5 12 15 17q90 36 155 91q63 54 92 118q8 17 20 17q13 0 23 -19q24 -44 102 -63 q75 80 156 142q83 64 140 64zM795 430q-52 54 -107 45q-92 -13 -167 -87q190 -5 274 42zM535 749q6 8 17 5q43 -16 73 -43q8 -8 3 -18l-48 -76q-7 -10 -18 -2q-10 7 -72 45q-11 7 -4 17zM138 605q6 8 17 5q43 -16 73 -43q8 -8 3 -18l-48 -76q-7 -10 -18 -2q-11 7 -72 45 q-11 7 -4 17z" />
<glyph unicode="&#xfc25;" horiz-adv-x="1098" arabic-form="isolated" d="M439 203q41 0 93 -70q19 -25 32 -28h5q47 0 62 2q171 245 288 248q45 1 97 -48q29 -29 25 -61q-4 -30 -28 -84q-23 -51 -35 -62q-110 -101 -363 -116q-11 -36 -18 -48q-12 -12 -25 -5q-14 8 -2 55q-3 -1 -8 -1q-58 0 -102 72q-27 44 -96 35q-34 -4 -66 -17 q64 -26 122 -68q25 -19 14 -52q-4 -11 -8.5 -24.5t-6.5 -19t-2 -7.5q-12 -28 -35 -27q-101 12 -184 -8q-55 -14 -70 -30q4 -36 24 -156q25 -146 26 -166q4 -64 -15 -142q-6 -21 -22 -18q-15 3 -12 49q3 45 -45 285q-15 81 4 149q19 67 41 94q21 25 45 41q-22 10 -13 37 q21 59 28 67l9 9q13 14 44 35q127 81 197 80zM689 551q6 8 17 5q43 -16 73 -43q8 -8 3 -18l-48 -76q-7 -10 -18 -2q-10 7 -72 45q-11 7 -4 17zM955 188q-65 36 -111 25q-83 -20 -153 -100q198 29 264 75z" />
<glyph unicode="&#xfc26;" horiz-adv-x="1207" arabic-form="isolated" d="M83 151q5 123 130 124q40 0 117 -13q132 -23 264 -1q26 4 36 -1.5t3 -21.5l-29 -69q-8 -17 -22 -18q-62 -6 -103 -18q28 -39 159 -28h7q52 2 64 4l49 48q9 65 -3 243q-11 158 -20 212q-6 35 -5 38q3 21 27 65q16 28 31 -5q24 -52 38 -67q21 -24 6 -42l-25 -28 q-1 -2 -1 -11q14 -204 11 -255q-3 -61 -10 -108q136 114 205 132q82 22 132 -75q8 -15 2 -39q-19 -67 -52 -116q-32 -47 -98 -62q-174 -41 -351 -54h-4h-1q-134 0 -175 36t-35 99q-88 -18 -160 -61q-94 -56 -130 -131q-37 -77 -25 -144q26 -149 202 -183q154 -30 397 1 q40 5 40 -14q0 -14 -42 -28q-40 -13 -80 -42t-49 -33q-11 -5 -21 -6q-299 -36 -416 58q-94 75 -82 239q19 256 207 375q-95 14 -164 -20q-13 -6 -19 -1t-5 21zM980 214q-76 -2 -195 -98q189 19 290 51q-38 47 -95 47z" />
<glyph unicode="&#xfc27;" horiz-adv-x="1090" arabic-form="isolated" d="M272 213q87 -102 250 -108q56 2 69 4l49 48q9 65 -3 243q-11 158 -20 212q-6 35 -5 38q3 21 27 65q16 28 31 -5q24 -52 38 -67q21 -24 6 -42l-25 -28q-1 -2 -1 -11q14 -204 11 -255q-3 -61 -10 -108q136 114 205 132q82 22 132 -75q8 -15 2 -39q-19 -67 -52 -116 q-32 -47 -98 -62q-185 -44 -353 -54h-3q-84 -1 -158 33q0 -95 -44 -130q-20 -15 -39 1q-58 52 -72 152q-54 -7 -97 -52q-5 -22 10 -119q54 -361 41 -420q-9 -38 -30 -38q-20 0 -22 45q-1 62 -37 281q-35 214 2 305q37 92 147 142q21 61 49 28zM862 214q-76 -2 -195 -98 q189 19 290 51q-38 47 -95 47z" />
<glyph unicode="&#xfc28;" horiz-adv-x="1090" arabic-form="isolated" d="M272 213q87 -102 250 -108q56 2 69 4l49 48q9 65 -3 243q-11 158 -20 212q-6 35 -5 38q3 21 27 65q16 28 31 -5q24 -52 38 -67q21 -24 6 -42l-25 -28q-1 -2 -1 -11q14 -204 11 -255q-3 -61 -10 -108q136 114 205 132q82 22 132 -75q8 -15 2 -39q-19 -67 -52 -116 q-32 -47 -98 -62q-185 -44 -353 -54h-3q-84 -1 -158 33q0 -95 -44 -130q-20 -15 -39 1q-58 52 -72 152q-54 -7 -97 -52q-5 -22 10 -119q54 -361 41 -420q-9 -38 -30 -38q-20 0 -22 45q-1 62 -37 281q-35 214 2 305q37 92 147 142q21 61 49 28zM862 214q-76 -2 -195 -98 q189 19 290 51q-38 47 -95 47zM874 551q6 8 17 5q43 -16 73 -43q8 -8 3 -18l-48 -76q-7 -10 -18 -2q-11 7 -72 45q-11 7 -4 17z" />
<glyph unicode="&#xfc29;" horiz-adv-x="681" arabic-form="isolated" d="M596 467q15 6 27 -6q13 -13 -8 -50l-3 -3q-2 -4 -6.5 -12t-10.5 -17q-9 -14 -25 -18q-269 -74 -314 -90l-52 -23q271 -14 390 3q31 2 25 -20l-17 -64q-4 -18 -26 -21q-226 -27 -354 -148q-84 -80 -87 -168q-4 -155 131 -202q134 -46 473 -28q21 2 21 -15q1 -12 -9 -17 q-113 -49 -185 -71q-66 -21 -123 -19q-210 6 -291 87q-80 81 -70 214q19 235 176 356l-186 1q-52 0 -21 45l42 61q0 7 8 15q37 43 156 94q-24 21 -36 42q-18 33 1 85q20 52 78 102q59 50 110 45q74 -6 120 -72q10 -16 1 -30q-10 -14 -27 -8q-60 20 -95 19q-78 -3 -114 -49 q41 -58 96 -62q91 -8 205 44zM377 -113q6 8 17 5q43 -16 73 -43q8 -8 3 -18l-48 -76q-7 -10 -18 -2q-10 7 -72 45q-11 7 -4 17z" />
<glyph unicode="&#xfc2a;" horiz-adv-x="1000" arabic-form="isolated" d="M272 213q86 -101 247 -108q13 6 32 14t24 10q-53 44 -38 109q31 134 144 187q28 13 67 -5q38 -18 79 -60q21 -22 15 -35q-5 -12 -50 0q-46 13 -109 -2q-66 -15 -86 -59q-6 -11 28 -42q85 -73 244 28q8 5 20.5 12.5t16.5 10.5q54 34 39 -25l-20 -81q-3 -12 -25 -22 q-31 -13 -146 -59l-213 -93q-10 -8 -19 -8q-84 -1 -158 33q0 -95 -44 -130q-20 -15 -39 1q-58 52 -72 152q-54 -7 -97 -52q-5 -22 10 -119q54 -361 41 -420q-9 -38 -30 -38q-20 0 -22 45q-1 62 -37 281q-35 214 2 305q37 92 147 142q21 61 49 28z" />
<glyph unicode="&#xfc2b;" horiz-adv-x="681" arabic-form="isolated" d="M596 467q15 6 27 -6q13 -13 -8 -50l-3 -3q-2 -4 -6.5 -12t-10.5 -17q-9 -14 -25 -18q-269 -74 -314 -90l-52 -23q271 -14 390 3q31 2 25 -20l-17 -64q-4 -18 -26 -21q-226 -27 -354 -148q-84 -80 -87 -168q-4 -155 131 -202q134 -46 473 -28q21 2 21 -15q1 -12 -9 -17 q-113 -49 -185 -71q-66 -21 -123 -19q-210 6 -291 87q-80 81 -70 214q19 235 176 356l-186 1q-52 0 -21 45l42 61q0 7 8 15q37 43 156 94q-24 21 -36 42q-18 33 1 85q20 52 78 102q59 50 110 45q74 -6 120 -72q10 -16 1 -30q-10 -14 -27 -8q-60 20 -95 19q-78 -3 -114 -49 q41 -58 96 -62q91 -8 205 44zM323 788q6 8 17 5q43 -16 73 -43q8 -8 3 -18l-48 -76q-7 -10 -18 -2q-10 8 -72 45q-11 7 -4 17zM377 -113q6 8 17 5q43 -16 73 -43q8 -8 3 -18l-48 -76q-7 -10 -18 -2q-10 7 -72 45q-11 7 -4 17z" />
<glyph unicode="&#xfc2c;" horiz-adv-x="1000" arabic-form="isolated" d="M272 213q86 -101 247 -108q13 6 32 14t24 10q-53 44 -38 109q31 134 144 187q28 13 67 -5q38 -18 79 -60q21 -22 15 -35q-5 -12 -50 0q-46 13 -109 -2q-66 -15 -86 -59q-6 -11 28 -42q85 -73 244 28q8 5 20.5 12.5t16.5 10.5q54 34 39 -25l-20 -81q-3 -12 -25 -22 q-31 -13 -146 -59l-213 -93q-10 -8 -19 -8q-84 -1 -158 33q0 -95 -44 -130q-20 -15 -39 1q-58 52 -72 152q-54 -7 -97 -52q-5 -22 10 -119q54 -361 41 -420q-9 -38 -30 -38q-20 0 -22 45q-1 62 -37 281q-35 214 2 305q37 92 147 142q21 61 49 28zM646 600q6 8 17 5 q43 -16 73 -43q8 -8 3 -18l-48 -76q-7 -10 -18 -2t-72 45q-11 7 -4 17z" />
<glyph unicode="&#xfc2d;" horiz-adv-x="722" arabic-form="isolated" d="M303 355q-1 21 -20 41q-57 -80 -117 -63q-72 19 -28 167q30 102 80 118q33 11 72 -37q54 -66 58 -206q2 -49 -22 -90q-11 -21 -28 -41q201 -6 296 7q31 2 25 -20l-17 -64q-4 -18 -26 -21q-226 -27 -354 -148q-84 -80 -87 -168q-4 -155 131 -202q134 -46 473 -28 q21 2 21 -15q1 -12 -9 -17q-113 -49 -185 -71q-66 -21 -123 -19q-210 6 -291 87q-80 81 -70 214q19 235 176 356l-186 1q-52 0 -21 45l30 44q2 7 11 19q19 23 29 29q11 6 27 9q143 26 155 73zM158 800q6 8 17 5q43 -16 73 -43q8 -8 3 -18l-48 -76q-7 -10 -18 -2t-72 45 q-11 7 -4 17zM377 -113q6 8 17 5q43 -16 73 -43q8 -8 3 -18l-48 -76q-7 -10 -18 -2q-10 7 -72 45q-11 7 -4 17zM168 487q6 -34 31 -36q25 0 33 24q-20 21 -37 23t-27 -11z" />
<glyph unicode="&#xfc2e;" horiz-adv-x="722" arabic-form="isolated" d="M303 355q-1 21 -20 41q-57 -80 -117 -63q-72 19 -28 167q30 102 80 118q33 11 72 -37q54 -66 58 -206q2 -49 -22 -90q-11 -21 -28 -41q201 -6 296 7q31 2 25 -20l-17 -64q-4 -18 -26 -21q-226 -27 -354 -148q-84 -80 -87 -168q-4 -155 131 -202q134 -46 473 -28 q21 2 21 -15q1 -12 -9 -17q-113 -49 -185 -71q-66 -21 -123 -19q-210 6 -291 87q-80 81 -70 214q19 235 176 356l-186 1q-52 0 -21 45l30 44q2 7 11 19q19 23 29 29q11 6 27 9q143 26 155 73zM158 800q6 8 17 5q43 -16 73 -43q8 -8 3 -18l-48 -76q-7 -10 -18 -2t-72 45 q-11 7 -4 17zM168 487q6 -34 31 -36q25 0 33 24q-20 21 -37 23t-27 -11z" />
<glyph unicode="&#xfc2f;" horiz-adv-x="722" arabic-form="isolated" d="M303 355q-1 21 -20 41q-57 -80 -117 -63q-72 19 -28 167q30 102 80 118q33 11 72 -37q54 -66 58 -206q2 -49 -22 -90q-11 -21 -28 -41q201 -6 296 7q31 2 25 -20l-17 -64q-4 -18 -26 -21q-226 -27 -354 -148q-84 -80 -87 -168q-4 -155 131 -202q134 -46 473 -28 q21 2 21 -15q1 -12 -9 -17q-113 -49 -185 -71q-66 -21 -123 -19q-210 6 -291 87q-80 81 -70 214q19 235 176 356l-186 1q-52 0 -21 45l30 44q2 7 11 19q19 23 29 29q11 6 27 9q143 26 155 73zM158 800q6 8 17 5q43 -16 73 -43q8 -8 3 -18l-48 -76q-7 -10 -18 -2t-72 45 q-11 7 -4 17zM494 448q6 8 17 5q43 -16 73 -43q8 -8 3 -18l-48 -76q-7 -10 -18 -2t-72 45q-11 7 -4 17zM168 487q6 -34 31 -36q25 0 33 24q-20 21 -37 23t-27 -11z" />
<glyph unicode="&#xfc30;" horiz-adv-x="817" arabic-form="isolated" d="M272 213q87 -102 249 -108q128 9 184 62q-3 34 -8 39q-6 7 -13 -5q-19 -32 -50 -40q-98 -24 -104 51q-8 88 25 159q33 72 69 72q30 0 50 -20q80 -82 80 -219q0 -80 -29 -118q-81 -104 -203 -101q-84 -1 -158 33q0 -95 -44 -130q-20 -15 -39 1q-58 52 -72 152 q-54 -7 -97 -52q-5 -22 10 -119q54 -361 41 -420q-9 -38 -30 -38q-20 0 -22 45q-1 62 -37 281q-35 214 2 305q37 92 147 142q21 61 49 28zM578 624q6 8 17 5q43 -16 73 -43q8 -8 3 -18l-48 -76q-7 -10 -18 -2t-72 45q-11 7 -4 17zM599 320q-23 0 -26 -44q19 -6 39 -3 q23 3 29 12q-23 35 -42 35z" />
<glyph unicode="&#xfc31;" horiz-adv-x="713" arabic-form="isolated" d="M602 455q74 -111 33 -263q-10 -36 -24 -56q37 -9 59 -29q19 -19 15 -58q-9 -70 -29 -95q-22 -29 -56 -54q-184 -141 -353 -129q-254 18 -179 309q21 80 68 141q14 17 25 7q12 -11 -3 -32q-57 -86 -54 -156q7 -143 178 -144q171 -2 335 135q-42 23 -185 23q-14 0 -17 11 q-11 19 24 78q7 11 21 13q126 18 152 61q9 15 -26 62q-19 -37 -41 -49q-63 -36 -102 25q-31 50 0 124q47 115 97 116q35 2 62 -40zM454 761q6 8 17 5q43 -16 73 -43q8 -8 3 -18l-48 -76q-7 -10 -18 -2q-11 7 -72 45q-11 7 -4 17zM494 381q-12 0 -26 -17q-6 -8 6 -17 q29 -22 60 6q4 4 0 8q-24 20 -40 20z" />
<glyph unicode="&#xfc32;" horiz-adv-x="713" arabic-form="isolated" d="M602 455q74 -111 33 -263q-10 -36 -24 -56q37 -9 59 -29q19 -19 15 -58q-9 -70 -29 -95q-22 -29 -56 -54q-184 -141 -353 -129q-254 18 -179 309q21 80 68 141q14 17 25 7q12 -11 -3 -32q-57 -86 -54 -156q7 -143 178 -144q171 -2 335 135q-42 23 -185 23q-14 0 -17 11 q-11 19 24 78q7 11 21 13q126 18 152 61q9 15 -26 62q-19 -37 -41 -49q-63 -36 -102 25q-31 50 0 124q47 115 97 116q35 2 62 -40zM384 -299q6 8 17 5q45 -17 74 -43q8 -8 3 -18l-48 -76q-8 -11 -18 -2q-5 4 -53 34l-33 -54q-7 -10 -18 -2q-5 3 -73 45q-11 6 -3 17l48 72 q6 8 17 5q30 -10 56 -29zM454 761q6 8 17 5q43 -16 73 -43q8 -8 3 -18l-48 -76q-7 -10 -18 -2q-11 7 -72 45q-11 7 -4 17zM494 381q-12 0 -26 -17q-6 -8 6 -17q29 -22 60 6q4 4 0 8q-24 20 -40 20z" />
<glyph unicode="&#xfc33;" horiz-adv-x="722" arabic-form="isolated" d="M303 355q-1 21 -20 41q-57 -80 -117 -63q-72 19 -28 167q30 102 80 118q33 11 72 -37q54 -66 58 -206q2 -49 -22 -90q-11 -21 -28 -41q201 -6 296 7q31 2 25 -20l-17 -64q-4 -18 -26 -21q-226 -27 -354 -148q-84 -80 -87 -168q-4 -155 131 -202q134 -46 473 -28 q21 2 21 -15q1 -12 -9 -17q-113 -49 -185 -71q-66 -21 -123 -19q-210 6 -291 87q-80 81 -70 214q19 235 176 356l-186 1q-52 0 -21 45l30 44q2 7 11 19q19 23 29 29q11 6 27 9q143 26 155 73zM212 822q6 8 17 5q45 -17 74 -43q8 -8 3 -18l-48 -76q-8 -11 -18 -2q-5 4 -53 34 l-33 -54q-7 -10 -18 -2q-5 3 -73 45q-11 6 -3 17l48 72q6 8 17 5q30 -10 56 -29zM168 487q6 -34 31 -36q25 0 33 24q-20 21 -37 23t-27 -11z" />
<glyph unicode="&#xfc34;" horiz-adv-x="817" arabic-form="isolated" d="M272 213q87 -102 249 -108q128 9 184 62q-3 34 -8 39q-6 7 -13 -5q-19 -32 -50 -40q-98 -24 -104 51q-8 88 25 159q33 72 69 72q30 0 50 -20q80 -82 80 -219q0 -80 -29 -118q-81 -104 -203 -101q-84 -1 -158 33q0 -95 -44 -130q-20 -15 -39 1q-58 52 -72 152 q-54 -7 -97 -52q-5 -22 10 -119q54 -361 41 -420q-9 -38 -30 -38q-20 0 -22 45q-1 62 -37 281q-35 214 2 305q37 92 147 142q21 61 49 28zM662 646q6 8 17 5q45 -17 74 -43q8 -8 3 -18l-48 -76q-8 -11 -18 -2q-5 4 -53 34l-33 -54q-7 -10 -18 -2q-5 3 -73 45q-11 6 -3 17 l48 72q6 8 17 5q30 -10 56 -29zM599 320q-23 0 -26 -44q19 -6 39 -3q23 3 29 12q-23 35 -42 35z" />
<glyph unicode="&#xfc35;" horiz-adv-x="713" arabic-form="isolated" d="M602 455q74 -111 33 -263q-10 -36 -24 -56q37 -9 59 -29q19 -19 15 -58q-9 -70 -29 -95q-22 -29 -56 -54q-184 -141 -353 -129q-254 18 -179 309q21 80 68 141q14 17 25 7q12 -11 -3 -32q-57 -86 -54 -156q7 -143 178 -144q171 -2 335 135q-42 23 -185 23q-14 0 -17 11 q-11 19 24 78q7 11 21 13q126 18 152 61q9 15 -26 62q-19 -37 -41 -49q-63 -36 -102 25q-31 50 0 124q47 115 97 116q35 2 62 -40zM503 783q6 8 17 5q45 -17 74 -43q8 -8 3 -18l-48 -76q-8 -11 -18 -2q-5 4 -53 34l-33 -54q-7 -10 -18 -2q-5 3 -73 45q-11 6 -3 17l48 72 q6 8 17 5q30 -10 56 -29zM494 381q-12 0 -26 -17q-6 -8 6 -17q29 -22 60 6q4 4 0 8q-24 20 -40 20z" />
<glyph unicode="&#xfc36;" horiz-adv-x="713" arabic-form="isolated" d="M602 455q74 -111 33 -263q-10 -36 -24 -56q37 -9 59 -29q19 -19 15 -58q-9 -70 -29 -95q-22 -29 -56 -54q-184 -141 -353 -129q-254 18 -179 309q21 80 68 141q14 17 25 7q12 -11 -3 -32q-57 -86 -54 -156q7 -143 178 -144q171 -2 335 135q-42 23 -185 23q-14 0 -17 11 q-11 19 24 78q7 11 21 13q126 18 152 61q9 15 -26 62q-19 -37 -41 -49q-63 -36 -102 25q-31 50 0 124q47 115 97 116q35 2 62 -40zM384 -299q6 8 17 5q45 -17 74 -43q8 -8 3 -18l-48 -76q-8 -11 -18 -2q-5 4 -53 34l-33 -54q-7 -10 -18 -2q-5 3 -73 45q-11 6 -3 17l48 72 q6 8 17 5q30 -10 56 -29zM503 783q6 8 17 5q45 -17 74 -43q8 -8 3 -18l-48 -76q-8 -11 -18 -2q-5 4 -53 34l-33 -54q-7 -10 -18 -2q-5 3 -73 45q-11 6 -3 17l48 72q6 8 17 5q30 -10 56 -29zM494 381q-12 0 -26 -17q-6 -8 6 -17q29 -22 60 6q4 4 0 8q-24 20 -40 20z" />
<glyph unicode="&#xfc37;" horiz-adv-x="775" arabic-form="isolated" d="M83 739q25 -94 29 -287q52 83 224 184q210 123 302 156q53 20 41 -33l-14 -64q-6 -21 -25 -28q-119 -49 -280 -136q-157 -84 -213 -130q159 -43 211 -110q48 -63 48 -127q-2 -156 -108 -183q-44 -10 -100 -7q-1 0 -5 0.5t-6 0.5q-50 4 -86 42q-59 61 -56 267 q2 115 -10 219q-13 114 -19 142q-7 33 -6 41q2 9 4 13l29 46q5 10 14 13q18 6 26 -19zM185 108h5q97 -14 177 47q-70 93 -253 149q4 -123 17 -151q15 -34 54 -45z" />
<glyph unicode="&#xfc38;" horiz-adv-x="812" arabic-form="isolated" d="M762 808l-19 -45q-10 -22 -42 -28q-401 -60 -539 -130q79 -74 110 -116q66 -91 47 -185q-11 -34 -27 -60q206 -6 302 7q31 2 25 -20l-17 -64q-4 -18 -26 -21q-226 -27 -354 -148q-84 -80 -87 -168q-4 -155 131 -202q134 -46 473 -28q21 2 21 -15q1 -12 -9 -17 q-113 -49 -185 -71q-66 -21 -123 -19q-210 6 -291 87q-80 81 -70 214q19 235 176 356l-186 1q-52 0 -21 45l29 42q3 10 12 22q20 25 31 29q16 6 25 8q83 16 117 37q-22 53 -110 141l-12 -7q-18 -11 -38 12l-49 60q-14 17 -8 44q10 54 45 99q146 105 635 185q16 2 24 -1 q24 -10 10 -44zM377 -113q6 8 17 5q43 -16 73 -43q8 -8 3 -18l-48 -76q-7 -10 -18 -2q-10 7 -72 45q-11 7 -4 17z" />
<glyph unicode="&#xfc39;" horiz-adv-x="812" arabic-form="isolated" d="M762 808l-19 -45q-10 -22 -42 -28q-401 -60 -539 -130q79 -74 110 -116q66 -91 47 -185q-11 -34 -27 -60q206 -6 302 7q31 2 25 -20l-17 -64q-4 -18 -26 -21q-226 -27 -354 -148q-84 -80 -87 -168q-4 -155 131 -202q134 -46 473 -28q21 2 21 -15q1 -12 -9 -17 q-113 -49 -185 -71q-66 -21 -123 -19q-210 6 -291 87q-80 81 -70 214q19 235 176 356l-186 1q-52 0 -21 45l29 42q3 10 12 22q20 25 31 29q16 6 25 8q83 16 117 37q-22 53 -110 141l-12 -7q-18 -11 -38 12l-49 60q-14 17 -8 44q10 54 45 99q146 105 635 185q16 2 24 -1 q24 -10 10 -44z" />
<glyph unicode="&#xfc3a;" horiz-adv-x="812" arabic-form="isolated" d="M762 808l-19 -45q-10 -22 -42 -28q-401 -60 -539 -130q79 -74 110 -116q66 -91 47 -185q-11 -34 -27 -60q206 -6 302 7q31 2 25 -20l-17 -64q-4 -18 -26 -21q-226 -27 -354 -148q-84 -80 -87 -168q-4 -155 131 -202q134 -46 473 -28q21 2 21 -15q1 -12 -9 -17 q-113 -49 -185 -71q-66 -21 -123 -19q-210 6 -291 87q-80 81 -70 214q19 235 176 356l-186 1q-52 0 -21 45l29 42q3 10 12 22q20 25 31 29q16 6 25 8q83 16 117 37q-22 53 -110 141l-12 -7q-18 -11 -38 12l-49 60q-14 17 -8 44q10 54 45 99q146 105 635 185q16 2 24 -1 q24 -10 10 -44zM494 448q6 8 17 5q43 -16 73 -43q8 -8 3 -18l-48 -76q-7 -10 -18 -2t-72 45q-11 7 -4 17z" />
<glyph unicode="&#xfc3b;" horiz-adv-x="1189" arabic-form="isolated" d="M540 9q25 -232 -59 -297q-112 -85 -216 -86q-105 -2 -166 58q-62 60 -48 163q13 100 91 204q8 11 24 11q15 0 21 -14t-4 -29q-79 -115 -49 -185q36 -80 164 -73q105 6 192 88l-48 673q-3 34 2 55l19 63q9 11 18 13q22 3 28 -28l2 -10l16 -160q55 82 223 181 q210 123 302 156q53 20 41 -33l-14 -64q-6 -21 -25 -28q-119 -49 -280 -136q-157 -84 -213 -130q159 -43 211 -110q48 -63 48 -127q-2 -156 -108 -183q-43 -10 -106 -6h-6h-2q-1 0 -2.5 0.5t-2.5 1.5q-30 8 -53 32zM543 299q20 -169 64 -191q94 -13 174 47q-67 90 -238 144z " />
<glyph unicode="&#xfc3c;" horiz-adv-x="783" arabic-form="isolated" d="M118 97q-22 10 -13 37q21 59 28 67l2 2q5 10 18 14q96 36 124 61q-6 86 -120 195h-1l-31 -11q-17 -6 -31 13l-57 81q-10 14 -3 38q21 72 62 113q24 22 64 43q129 70 542 138q9 2 17 0q24 -6 15 -37l-19 -63q-6 -21 -28 -24q-363 -60 -471 -96q-42 -15 -60 -26 q204 -213 178 -367q-10 -46 -46 -90l-6 -6q51 -26 82 -50q25 -19 14 -52q-4 -11 -8.5 -24.5t-6.5 -19t-2 -7.5q-12 -28 -35 -27q-101 12 -184 -8q-55 -14 -70 -30q4 -36 24 -156q25 -146 26 -166q4 -64 -15 -142q-6 -21 -22 -18q-15 3 -12 49q3 45 -45 285q-15 81 4 149 q19 67 41 94q21 25 45 41z" />
<glyph unicode="&#xfc3d;" horiz-adv-x="981" arabic-form="isolated" d="M896 951q6 2 16 2q23 -1 20 -33l-7 -69q-3 -19 -24 -27q-342 -125 -523 -236q86 -63 124 -98q132 -123 117 -273q-5 -45 -36 -73l-2 -2q58 -7 89 -35q19 -19 15 -58q-9 -70 -29 -95q-22 -29 -56 -54q-184 -141 -353 -129q-254 18 -179 309q21 80 68 141q14 17 25 7 q12 -11 -3 -32q-57 -86 -54 -156q7 -143 178 -144q171 -2 335 135q-42 23 -185 23q-14 0 -17 11q-3 9 -1 16q-3 7 0 16l27 60q47 17 122 54q-12 114 -158 210l-12 -27q-6 -12 -21 -9q-9 3 -25 14q-53 36 -68 72q-15 37 5 102q19 62 45 85q148 127 567 293z" />
<glyph unicode="&#xfc3e;" horiz-adv-x="981" arabic-form="isolated" d="M896 951q6 2 16 2q23 -1 20 -33l-7 -69q-3 -19 -24 -27q-342 -125 -523 -236q86 -63 124 -98q132 -123 117 -273q-5 -45 -36 -73l-2 -2q58 -7 89 -35q19 -19 15 -58q-9 -70 -29 -95q-22 -29 -56 -54q-184 -141 -353 -129q-254 18 -179 309q21 80 68 141q14 17 25 7 q12 -11 -3 -32q-57 -86 -54 -156q7 -143 178 -144q171 -2 335 135q-42 23 -185 23q-14 0 -17 11q-3 9 -1 16q-3 7 0 16l27 60q47 17 122 54q-12 114 -158 210l-12 -27q-6 -12 -21 -9q-9 3 -25 14q-53 36 -68 72q-15 37 5 102q19 62 45 85q148 127 567 293zM384 -299 q6 8 17 5q45 -17 74 -43q8 -8 3 -18l-48 -76q-8 -11 -18 -2q-5 4 -53 34l-33 -54q-7 -10 -18 -2q-5 3 -73 45q-11 6 -3 17l48 72q6 8 17 5q30 -10 56 -29z" />
<glyph unicode="&#xfc3f;" horiz-adv-x="697" arabic-form="isolated" d="M288 321q-9 129 -30 272l-13 41q-3 16 5 29l35 55q18 23 29 -19q9 -33 41 -68q15 -17 1 -37l-21 -28q-8 -10 -7 -17q28 -215 3 -279q-5 -13 -16 -27q183 -4 279 8q31 2 25 -20l-17 -64q-4 -18 -26 -21q-226 -27 -354 -148q-84 -80 -87 -168q-4 -155 131 -202 q134 -46 473 -28q21 2 21 -15q1 -12 -9 -17q-113 -49 -185 -71q-66 -21 -123 -19q-210 6 -291 87q-80 81 -70 214q19 235 176 356l-186 1q-52 0 -21 45l34 50q14 23 32 43q11 13 34 14q67 1 115 11q24 4 22 22zM377 -113q6 8 17 5q43 -16 73 -43q8 -8 3 -18l-48 -76 q-7 -10 -18 -2q-10 7 -72 45q-11 7 -4 17z" />
<glyph unicode="&#xfc40;" horiz-adv-x="697" arabic-form="isolated" d="M288 321q-9 129 -30 272l-13 41q-3 16 5 29l35 55q18 23 29 -19q9 -33 41 -68q15 -17 1 -37l-21 -28q-8 -10 -7 -17q28 -215 3 -279q-5 -13 -16 -27q183 -4 279 8q31 2 25 -20l-17 -64q-4 -18 -26 -21q-226 -27 -354 -148q-84 -80 -87 -168q-4 -155 131 -202 q134 -46 473 -28q21 2 21 -15q1 -12 -9 -17q-113 -49 -185 -71q-66 -21 -123 -19q-210 6 -291 87q-80 81 -70 214q19 235 176 356l-186 1q-52 0 -21 45l34 50q14 23 32 43q11 13 34 14q67 1 115 11q24 4 22 22z" />
<glyph unicode="&#xfc41;" horiz-adv-x="697" arabic-form="isolated" d="M288 321q-9 129 -30 272l-13 41q-3 16 5 29l35 55q18 23 29 -19q9 -33 41 -68q15 -17 1 -37l-21 -28q-8 -10 -7 -17q28 -215 3 -279q-5 -13 -16 -27q183 -4 279 8q31 2 25 -20l-17 -64q-4 -18 -26 -21q-226 -27 -354 -148q-84 -80 -87 -168q-4 -155 131 -202 q134 -46 473 -28q21 2 21 -15q1 -12 -9 -17q-113 -49 -185 -71q-66 -21 -123 -19q-210 6 -291 87q-80 81 -70 214q19 235 176 356l-186 1q-52 0 -21 45l34 50q14 23 32 43q11 13 34 14q67 1 115 11q24 4 22 22zM494 448q6 8 17 5q43 -16 73 -43q8 -8 3 -18l-48 -76 q-7 -10 -18 -2t-72 45q-11 7 -4 17z" />
<glyph unicode="&#xfc42;" horiz-adv-x="441" arabic-form="isolated" d="M118 97q-22 10 -13 37q21 59 28 67l11 11q2 2 8 4q9 6 24 9q41 10 60 32q-4 106 -27 244q-21 132 -32 172q-9 34 -3 49l22 46q6 11 12 14q18 9 29 -16q13 -31 53 -62q22 -17 8 -41q-6 -11 -15 -24q-3 -5 -7.5 -12t-5.5 -9l26 -218q12 -112 -22 -195l-8 -18q53 -25 98 -58 q25 -19 14 -52q-4 -11 -8.5 -24.5t-6.5 -19t-2 -7.5q-12 -28 -35 -27q-101 12 -184 -8q-55 -14 -70 -30q4 -36 24 -156q25 -146 26 -166q4 -64 -15 -142q-6 -21 -22 -18q-15 3 -12 49q3 45 -45 285q-15 81 4 149q19 67 41 94q21 25 45 41z" />
<glyph unicode="&#xfc43;" horiz-adv-x="718" arabic-form="isolated" d="M441 144q5 1 15 1q2 1 18 8q22 9 35 15q-14 108 -39 238q-23 119 -31 173l-12 55q-3 19 0 27q4 11 7 21t5.5 18t3.5 11q5 14 22 14q19 0 26 -18q18 -44 43 -66q20 -18 2 -42l-17 -26q57 -321 54 -357q-3 -37 -8 -62q-1 -1 -2 -4.5t-1 -5.5q2 0 6 -0.5t6 -0.5 q64 -7 96 -36q19 -19 15 -58q-9 -70 -29 -95q-22 -29 -56 -54q-184 -141 -353 -129q-254 18 -179 309q21 80 68 141q14 17 25 7q12 -11 -3 -32q-57 -86 -54 -156q7 -143 178 -144q171 -2 335 135q-42 23 -185 23q-3 0 -9 2l-10 -1l-2 14q-3 20 5 40q7 18 20 26l1 1h1z" />
<glyph unicode="&#xfc44;" horiz-adv-x="718" arabic-form="isolated" d="M441 144q5 1 15 1q2 1 18 8q22 9 35 15q-14 108 -39 238q-23 119 -31 173l-12 55q-3 19 0 27q4 11 7 21t5.5 18t3.5 11q5 14 22 14q19 0 26 -18q18 -44 43 -66q20 -18 2 -42l-17 -26q57 -321 54 -357q-3 -37 -8 -62q-1 -1 -2 -4.5t-1 -5.5q2 0 6 -0.5t6 -0.5 q64 -7 96 -36q19 -19 15 -58q-9 -70 -29 -95q-22 -29 -56 -54q-184 -141 -353 -129q-254 18 -179 309q21 80 68 141q14 17 25 7q12 -11 -3 -32q-57 -86 -54 -156q7 -143 178 -144q171 -2 335 135q-42 23 -185 23q-3 0 -9 2l-10 -1l-2 14q-3 20 5 40q7 18 20 26l1 1h1z M384 -299q6 8 17 5q45 -17 74 -43q8 -8 3 -18l-48 -76q-8 -11 -18 -2q-5 4 -53 34l-33 -54q-7 -10 -18 -2q-5 3 -73 45q-11 6 -3 17l48 72q6 8 17 5q30 -10 56 -29z" />
<glyph unicode="&#xfc45;" horiz-adv-x="664" arabic-form="isolated" d="M435 335q-138 -30 -228 -87q269 -14 387 3q31 2 25 -20l-17 -64q-4 -18 -26 -21q-226 -27 -354 -148q-84 -80 -87 -168q-4 -155 131 -202q134 -46 473 -28q21 2 21 -15q1 -12 -9 -17q-113 -49 -185 -71q-66 -21 -123 -19q-210 6 -291 87q-80 81 -70 214q19 235 176 356 l-186 1q-52 0 -21 45l43 63l3 2q9 16 29 35q83 79 213 127l-9 12q-13 21 -4 42q28 60 48 82q21 23 44 11q74 -39 110 -75q15 -15 6 -45q-8 -27 -51 -80q-9 -13 -48 -20zM377 -113q6 8 17 5q43 -16 73 -43q8 -8 3 -18l-48 -76q-7 -10 -18 -2q-10 7 -72 45q-11 7 -4 17z" />
<glyph unicode="&#xfc46;" horiz-adv-x="664" arabic-form="isolated" d="M435 335q-138 -30 -228 -87q269 -14 387 3q31 2 25 -20l-17 -64q-4 -18 -26 -21q-226 -27 -354 -148q-84 -80 -87 -168q-4 -155 131 -202q134 -46 473 -28q21 2 21 -15q1 -12 -9 -17q-113 -49 -185 -71q-66 -21 -123 -19q-210 6 -291 87q-80 81 -70 214q19 235 176 356 l-186 1q-52 0 -21 45l43 63l3 2q9 16 29 35q83 79 213 127l-9 12q-13 21 -4 42q28 60 48 82q21 23 44 11q74 -39 110 -75q15 -15 6 -45q-8 -27 -51 -80q-9 -13 -48 -20z" />
<glyph unicode="&#xfc47;" horiz-adv-x="664" arabic-form="isolated" d="M435 335q-138 -30 -228 -87q269 -14 387 3q31 2 25 -20l-17 -64q-4 -18 -26 -21q-226 -27 -354 -148q-84 -80 -87 -168q-4 -155 131 -202q134 -46 473 -28q21 2 21 -15q1 -12 -9 -17q-113 -49 -185 -71q-66 -21 -123 -19q-210 6 -291 87q-80 81 -70 214q19 235 176 356 l-186 1q-52 0 -21 45l43 63l3 2q9 16 29 35q83 79 213 127l-9 12q-13 21 -4 42q28 60 48 82q21 23 44 11q74 -39 110 -75q15 -15 6 -45q-8 -27 -51 -80q-9 -13 -48 -20zM138 605q6 8 17 5q43 -16 73 -43q8 -8 3 -18l-48 -76q-7 -10 -18 -2q-11 7 -72 45q-11 7 -4 17z" />
<glyph unicode="&#xfc48;" horiz-adv-x="911" arabic-form="isolated" d="M272 213q87 -102 250 -108q54 3 90 56q28 44 60 102q39 70 83 70q74 -2 102 -184q3 -17 -6 -28l-49 -64q-13 -16 -35 -12q-81 20 -133 72q-42 -129 -110 -132h-2q-84 -1 -158 33q0 -95 -44 -130q-20 -15 -39 1q-58 52 -72 152q-54 -7 -97 -52q-5 -22 10 -119 q54 -361 41 -420q-9 -38 -30 -38q-20 0 -22 45q-1 62 -37 281q-35 214 2 305q37 92 147 142q21 61 49 28zM683 220q35 -34 90 -46q1 43 -29 57t-61 -11z" />
<glyph unicode="&#xfc49;" horiz-adv-x="862" arabic-form="isolated" d="M594 270l-7 5q-21 17 -10 44q24 62 49 93q15 18 38 14q49 -9 94 -43q58 -45 55 -84q-6 -60 -36 -84q-14 -10 -35 -13q-22 -3 -25 -3q-95 -13 -161 -54q3 -1 9 -1t9 -1q64 -7 96 -36q19 -19 15 -58q-9 -70 -29 -95q-22 -29 -56 -54q-184 -141 -353 -129q-254 18 -179 309 q21 80 68 141q14 17 25 7q12 -11 -3 -32q-57 -86 -54 -156q7 -143 178 -144q171 -2 335 135q-42 23 -185 23q-14 0 -17 11t0 18l22 52v1q17 34 27 45q57 54 130 89z" />
<glyph unicode="&#xfc4a;" horiz-adv-x="862" arabic-form="isolated" d="M594 270l-7 5q-21 17 -10 44q24 62 49 93q15 18 38 14q49 -9 94 -43q58 -45 55 -84q-6 -60 -36 -84q-14 -10 -35 -13q-22 -3 -25 -3q-95 -13 -161 -54q3 -1 9 -1t9 -1q64 -7 96 -36q19 -19 15 -58q-9 -70 -29 -95q-22 -29 -56 -54q-184 -141 -353 -129q-254 18 -179 309 q21 80 68 141q14 17 25 7q12 -11 -3 -32q-57 -86 -54 -156q7 -143 178 -144q171 -2 335 135q-42 23 -185 23q-14 0 -17 11t0 18l22 52v1q17 34 27 45q57 54 130 89zM384 -299q6 8 17 5q45 -17 74 -43q8 -8 3 -18l-48 -76q-8 -11 -18 -2q-5 4 -53 34l-33 -54q-7 -10 -18 -2 q-5 3 -73 45q-11 6 -3 17l48 72q6 8 17 5q30 -10 56 -29z" />
<glyph unicode="&#xfc4b;" horiz-adv-x="647" arabic-form="isolated" d="M77 226l16 16l1 2q2 2 3 2q28 22 55 37q116 66 151 102q38 39 55 84q21 55 35 79q18 31 48 31q28 0 51 -33q30 -47 24 -189q0 -16 -15 -24q-6 -3 -11 -3q-21 0 -26 27q-9 80 -30 95q-7 4 -14 -6q-10 -14 -26 -46q-44 -88 -147 -154q235 -10 347 5q31 2 25 -20l-17 -64 q-4 -18 -26 -21q-226 -27 -354 -148q-84 -80 -87 -168q-4 -155 131 -202q134 -46 473 -28q21 2 21 -15q1 -12 -9 -17q-113 -49 -185 -71q-66 -21 -123 -19q-210 6 -291 87q-80 81 -70 214q19 235 176 356l-186 1q-52 0 -21 45l20 29l-4 3zM409 759q6 8 17 5q43 -16 73 -43 q8 -8 3 -18l-48 -76q-7 -10 -18 -2q-10 7 -72 45q-11 7 -4 17zM377 -113q6 8 17 5q43 -16 73 -43q8 -8 3 -18l-48 -76q-7 -10 -18 -2q-10 7 -72 45q-11 7 -4 17z" />
<glyph unicode="&#xfc4c;" horiz-adv-x="647" arabic-form="isolated" d="M77 226l16 16l1 2q2 2 3 2q28 22 55 37q116 66 151 102q38 39 55 84q21 55 35 79q18 31 48 31q28 0 51 -33q30 -47 24 -189q0 -16 -15 -24q-6 -3 -11 -3q-21 0 -26 27q-9 80 -30 95q-7 4 -14 -6q-10 -14 -26 -46q-44 -88 -147 -154q235 -10 347 5q31 2 25 -20l-17 -64 q-4 -18 -26 -21q-226 -27 -354 -148q-84 -80 -87 -168q-4 -155 131 -202q134 -46 473 -28q21 2 21 -15q1 -12 -9 -17q-113 -49 -185 -71q-66 -21 -123 -19q-210 6 -291 87q-80 81 -70 214q19 235 176 356l-186 1q-52 0 -21 45l20 29l-4 3zM409 759q6 8 17 5q43 -16 73 -43 q8 -8 3 -18l-48 -76q-7 -10 -18 -2q-10 7 -72 45q-11 7 -4 17z" />
<glyph unicode="&#xfc4d;" horiz-adv-x="647" arabic-form="isolated" d="M77 226l16 16l1 2q2 2 3 2q28 22 55 37q116 66 151 102q38 39 55 84q21 55 35 79q18 31 48 31q28 0 51 -33q30 -47 24 -189q0 -16 -15 -24q-6 -3 -11 -3q-21 0 -26 27q-9 80 -30 95q-7 4 -14 -6q-10 -14 -26 -46q-44 -88 -147 -154q235 -10 347 5q31 2 25 -20l-17 -64 q-4 -18 -26 -21q-226 -27 -354 -148q-84 -80 -87 -168q-4 -155 131 -202q134 -46 473 -28q21 2 21 -15q1 -12 -9 -17q-113 -49 -185 -71q-66 -21 -123 -19q-210 6 -291 87q-80 81 -70 214q19 235 176 356l-186 1q-52 0 -21 45l20 29l-4 3zM409 759q6 8 17 5q43 -16 73 -43 q8 -8 3 -18l-48 -76q-7 -10 -18 -2q-10 7 -72 45q-11 7 -4 17zM138 605q6 8 17 5q43 -16 73 -43q8 -8 3 -18l-48 -76q-7 -10 -18 -2q-11 7 -72 45q-11 7 -4 17z" />
<glyph unicode="&#xfc4e;" horiz-adv-x="594" arabic-form="isolated" d="M118 97q-22 10 -13 37q21 59 28 67l3 3q2 4 4 7q23 23 81 59q151 96 236 95q39 0 71 -24q31 -24 21 -59q-5 -19 -29 -51q-22 -30 -34 -33q-28 -9 -37 22q-6 22 -34 25q-51 4 -160 -53q64 -29 109 -63q25 -19 14 -52q-4 -11 -8.5 -24.5t-6.5 -19t-2 -7.5q-12 -28 -35 -27 q-101 12 -184 -8q-55 -14 -70 -30q4 -36 24 -156q25 -146 26 -166q4 -64 -15 -142q-6 -21 -22 -18q-15 3 -12 49q3 45 -45 285q-15 81 4 149q19 67 41 94q21 25 45 41zM399 615q6 8 17 5q43 -16 73 -43q8 -8 3 -18l-48 -76q-7 -10 -18 -2q-10 7 -72 45q-11 7 -4 17z" />
<glyph unicode="&#xfc4f;" horiz-adv-x="734" arabic-form="isolated" d="M441 144q3 0 5 1q5 2 13 4q78 10 129 63q1 44 -23 84q-25 41 -53 62q-16 15 -9 38l25 77q10 31 36 17q23 -15 49 -69q57 -122 23 -223q-12 -36 -31 -60q41 -10 65 -31q19 -19 15 -58q-9 -70 -29 -95q-22 -29 -56 -54q-184 -141 -353 -129q-254 18 -179 309q21 80 68 141 q14 17 25 7q12 -11 -3 -32q-57 -86 -54 -156q7 -143 178 -144q171 -2 335 135q-37 20 -153 23q-11 -2 -35 -4q-6 0 -12 2q-17 8 -6 29l24 48zM514 697q6 8 17 5q43 -16 73 -43q8 -8 3 -18l-48 -76q-7 -10 -18 -2q-11 7 -72 45q-11 7 -4 17z" />
<glyph unicode="&#xfc50;" horiz-adv-x="734" arabic-form="isolated" d="M441 144q3 0 5 1q5 2 13 4q78 10 129 63q1 44 -23 84q-25 41 -53 62q-16 15 -9 38l25 77q10 31 36 17q23 -15 49 -69q57 -122 23 -223q-12 -36 -31 -60q41 -10 65 -31q19 -19 15 -58q-9 -70 -29 -95q-22 -29 -56 -54q-184 -141 -353 -129q-254 18 -179 309q21 80 68 141 q14 17 25 7q12 -11 -3 -32q-57 -86 -54 -156q7 -143 178 -144q171 -2 335 135q-37 20 -153 23q-11 -2 -35 -4q-6 0 -12 2q-17 8 -6 29l24 48zM384 -299q6 8 17 5q45 -17 74 -43q8 -8 3 -18l-48 -76q-8 -11 -18 -2q-5 4 -53 34l-33 -54q-7 -10 -18 -2q-5 3 -73 45 q-11 6 -3 17l48 72q6 8 17 5q30 -10 56 -29zM514 697q6 8 17 5q43 -16 73 -43q8 -8 3 -18l-48 -76q-7 -10 -18 -2q-11 7 -72 45q-11 7 -4 17z" />
<glyph unicode="&#xfc51;" horiz-adv-x="696" arabic-form="isolated" d="M197 248q277 -14 397 3q31 2 25 -20l-17 -64q-4 -18 -26 -21q-226 -27 -354 -148q-84 -80 -87 -168q-4 -155 131 -202q134 -46 473 -28q21 2 21 -15q1 -12 -9 -17q-113 -49 -185 -71q-66 -21 -123 -19q-210 6 -291 87q-80 81 -70 214q19 235 176 356l-186 1q-52 0 -21 45 l43 63q5 12 8 17q19 33 43 45q30 15 82 39q17 8 34.5 16t33 16t22.5 11q-22 25 -13 59q18 76 48 124q-2 1 -8.5 1.5t-9.5 0.5q-20 11 -15 30q18 56 33 67q16 12 36 12q38 0 127 -85q91 -86 98 -137q12 -88 -15 -130q-17 -28 -51 -23q-79 12 -158 39q-14 -8 -146 -71 q-42 -20 -56 -27h10zM377 -113q6 8 17 5q43 -16 73 -43q8 -8 3 -18l-48 -76q-7 -10 -18 -2q-10 7 -72 45q-11 7 -4 17zM477 498q0 -32 -18 -63q58 -20 109 -28q-14 33 -91 91zM447 463q-10 39 -42 47t-58 -21q2 -12 23 -23q20 -11 50 -17q27 9 27 14z" />
<glyph unicode="&#xfc52;" horiz-adv-x="974" arabic-form="isolated" d="M272 213q87 -102 250 -108q40 4 62 16q-30 24 -14 72q18 54 58 98q-5 3 -17 4t-15 12q-3 12 -2 19q26 99 76 99t147 -92q96 -92 107 -150q12 -73 -35 -128q-28 -32 -65 -28q-76 9 -166 52q-85 -94 -136 -94q-84 -1 -158 33q0 -95 -44 -130q-20 -15 -39 1q-58 52 -72 152 q-54 -7 -97 -52q-5 -22 10 -119q54 -361 41 -420q-9 -38 -30 -38q-20 0 -22 45q-1 62 -37 281q-35 214 2 305q37 92 147 142q21 61 49 28zM763 232q3 -37 -36 -73q91 -34 143 -36q9 0 5 11q-15 46 -112 98zM684 176q33 16 33 22q-5 58 -31 62q-39 9 -70 -30q-10 -12 8 -23 q30 -20 60 -31z" />
<glyph unicode="&#xfc53;" horiz-adv-x="1028" arabic-form="isolated" d="M441 144h1q23 44 88 74q35 17 98 42q-42 19 -25 70q19 57 69 105q-3 1 -12 3q-15 3 -18 14q-3 12 -2 18q26 99 76 99q49 0 143 -92q91 -90 102 -149q12 -73 -34 -128q-24 -29 -57 -26q-78 8 -164 40q-83 -47 -162 -68l30 -3q64 -7 96 -36q19 -19 15 -58q-9 -70 -29 -95 q-22 -29 -56 -54q-184 -141 -353 -129q-254 18 -179 309q21 80 68 141q14 17 25 7q12 -11 -3 -32q-57 -86 -54 -156q7 -143 178 -144q171 -2 335 135q-42 23 -185 23q-14 0 -17 11t0 18zM656 355q11 -21 77 -36q15 5 22 18q-4 38 -29 47q-40 6 -70 -29zM804 358 q-6 -30 -17 -54q82 -30 110 -25q-11 30 -93 79z" />
<glyph unicode="&#xfc54;" horiz-adv-x="1028" arabic-form="isolated" d="M441 144h1q23 44 88 74q35 17 98 42q-42 19 -25 70q19 57 69 105q-3 1 -12 3q-15 3 -18 14q-3 12 -2 18q26 99 76 99q49 0 143 -92q91 -90 102 -149q12 -73 -34 -128q-24 -29 -57 -26q-78 8 -164 40q-83 -47 -162 -68l30 -3q64 -7 96 -36q19 -19 15 -58q-9 -70 -29 -95 q-22 -29 -56 -54q-184 -141 -353 -129q-254 18 -179 309q21 80 68 141q14 17 25 7q12 -11 -3 -32q-57 -86 -54 -156q7 -143 178 -144q171 -2 335 135q-42 23 -185 23q-14 0 -17 11t0 18zM384 -299q6 8 17 5q45 -17 74 -43q8 -8 3 -18l-48 -76q-8 -11 -18 -2q-5 4 -53 34 l-33 -54q-7 -10 -18 -2q-5 3 -73 45q-11 6 -3 17l48 72q6 8 17 5q30 -10 56 -29zM656 355q11 -21 77 -36q15 5 22 18q-4 38 -29 47q-40 6 -70 -29zM804 358q-6 -30 -17 -54q82 -30 110 -25q-11 30 -93 79z" />
<glyph unicode="&#xfc55;" horiz-adv-x="647" arabic-form="isolated" d="M77 226l16 16l1 2q2 2 3 2q28 22 55 37q116 66 151 102q38 39 55 84q21 55 35 79q18 31 48 31q28 0 51 -33q30 -47 24 -189q0 -16 -15 -24q-6 -3 -11 -3q-21 0 -26 27q-9 80 -30 95q-7 4 -14 -6q-10 -14 -26 -46q-44 -88 -147 -154q235 -10 347 5q31 2 25 -20l-17 -64 q-4 -18 -26 -21q-226 -27 -354 -148q-84 -80 -87 -168q-4 -155 131 -202q134 -46 473 -28q21 2 21 -15q1 -12 -9 -17q-113 -49 -185 -71q-66 -21 -123 -19q-210 6 -291 87q-80 81 -70 214q19 235 176 356l-186 1q-52 0 -21 45l20 29l-4 3zM536 70q6 8 17 5q45 -17 74 -43 q8 -8 3 -18l-48 -76q-8 -11 -18 -2q-5 4 -53 34l-33 -54q-7 -10 -18 -2q-5 3 -73 45q-11 6 -3 17l48 72q6 8 17 5q30 -10 56 -29zM377 -113q6 8 17 5q43 -16 73 -43q8 -8 3 -18l-48 -76q-7 -10 -18 -2q-10 7 -72 45q-11 7 -4 17z" />
<glyph unicode="&#xfc56;" horiz-adv-x="647" arabic-form="isolated" d="M77 226l16 16l1 2q2 2 3 2q28 22 55 37q116 66 151 102q38 39 55 84q21 55 35 79q18 31 48 31q28 0 51 -33q30 -47 24 -189q0 -16 -15 -24q-6 -3 -11 -3q-21 0 -26 27q-9 80 -30 95q-7 4 -14 -6q-10 -14 -26 -46q-44 -88 -147 -154q235 -10 347 5q31 2 25 -20l-17 -64 q-4 -18 -26 -21q-226 -27 -354 -148q-84 -80 -87 -168q-4 -155 131 -202q134 -46 473 -28q21 2 21 -15q1 -12 -9 -17q-113 -49 -185 -71q-66 -21 -123 -19q-210 6 -291 87q-80 81 -70 214q19 235 176 356l-186 1q-52 0 -21 45l20 29l-4 3zM536 70q6 8 17 5q45 -17 74 -43 q8 -8 3 -18l-48 -76q-8 -11 -18 -2q-5 4 -53 34l-33 -54q-7 -10 -18 -2q-5 3 -73 45q-11 6 -3 17l48 72q6 8 17 5q30 -10 56 -29z" />
<glyph unicode="&#xfc57;" horiz-adv-x="647" arabic-form="isolated" d="M77 226l16 16l1 2q2 2 3 2q28 22 55 37q116 66 151 102q38 39 55 84q21 55 35 79q18 31 48 31q28 0 51 -33q30 -47 24 -189q0 -16 -15 -24q-6 -3 -11 -3q-21 0 -26 27q-9 80 -30 95q-7 4 -14 -6q-10 -14 -26 -46q-44 -88 -147 -154q235 -10 347 5q31 2 25 -20l-17 -64 q-4 -18 -26 -21q-226 -27 -354 -148q-84 -80 -87 -168q-4 -155 131 -202q134 -46 473 -28q21 2 21 -15q1 -12 -9 -17q-113 -49 -185 -71q-66 -21 -123 -19q-210 6 -291 87q-80 81 -70 214q19 235 176 356l-186 1q-52 0 -21 45l20 29l-4 3zM536 70q6 8 17 5q45 -17 74 -43 q8 -8 3 -18l-48 -76q-8 -11 -18 -2q-5 4 -53 34l-33 -54q-7 -10 -18 -2q-5 3 -73 45q-11 6 -3 17l48 72q6 8 17 5q30 -10 56 -29zM138 605q6 8 17 5q43 -16 73 -43q8 -8 3 -18l-48 -76q-7 -10 -18 -2q-11 7 -72 45q-11 7 -4 17z" />
<glyph unicode="&#xfc58;" horiz-adv-x="594" arabic-form="isolated" d="M118 97q-22 10 -13 37q21 59 28 67l3 3q2 4 4 7q23 23 81 59q151 96 236 95q39 0 71 -24q31 -24 21 -59q-5 -19 -29 -51q-22 -30 -34 -33q-28 -9 -37 22q-6 22 -34 25q-51 4 -160 -53q64 -29 109 -63q25 -19 14 -52q-4 -11 -8.5 -24.5t-6.5 -19t-2 -7.5q-12 -28 -35 -27 q-101 12 -184 -8q-55 -14 -70 -30q4 -36 24 -156q25 -146 26 -166q4 -64 -15 -142q-6 -21 -22 -18q-15 3 -12 49q3 45 -45 285q-15 81 4 149q19 67 41 94q21 25 45 41zM526 -59q6 8 17 5q45 -17 74 -43q8 -8 3 -18l-48 -76q-8 -11 -18 -2q-5 4 -53 34l-33 -54q-7 -10 -18 -2 q-5 3 -73 45q-11 6 -3 17l48 72q6 8 17 5q30 -10 56 -29z" />
<glyph unicode="&#xfc59;" horiz-adv-x="734" arabic-form="isolated" d="M441 144q3 0 5 1q5 2 13 4q78 10 129 63q1 44 -23 84q-25 41 -53 62q-16 15 -9 38l25 77q10 31 36 17q23 -15 49 -69q57 -122 23 -223q-12 -36 -31 -60q41 -10 65 -31q19 -19 15 -58q-9 -70 -29 -95q-22 -29 -56 -54q-184 -141 -353 -129q-254 18 -179 309q21 80 68 141 q14 17 25 7q12 -11 -3 -32q-57 -86 -54 -156q7 -143 178 -144q171 -2 335 135q-37 20 -153 23q-11 -2 -35 -4q-6 0 -12 2q-17 8 -6 29l24 48zM672 -153q6 8 17 5q45 -17 74 -43q8 -8 3 -18l-48 -76q-8 -11 -18 -2q-5 4 -53 34l-33 -54q-7 -10 -18 -2q-5 3 -73 45 q-11 6 -3 17l48 72q6 8 17 5q30 -10 56 -29z" />
<glyph unicode="&#xfc5a;" horiz-adv-x="734" arabic-form="isolated" d="M441 144q3 0 5 1q5 2 13 4q78 10 129 63q1 44 -23 84q-25 41 -53 62q-16 15 -9 38l25 77q10 31 36 17q23 -15 49 -69q57 -122 23 -223q-12 -36 -31 -60q41 -10 65 -31q19 -19 15 -58q-9 -70 -29 -95q-22 -29 -56 -54q-184 -141 -353 -129q-254 18 -179 309q21 80 68 141 q14 17 25 7q12 -11 -3 -32q-57 -86 -54 -156q7 -143 178 -144q171 -2 335 135q-37 20 -153 23q-11 -2 -35 -4q-6 0 -12 2q-17 8 -6 29l24 48zM384 -299q6 8 17 5q45 -17 74 -43q8 -8 3 -18l-48 -76q-8 -11 -18 -2q-5 4 -53 34l-33 -54q-7 -10 -18 -2q-5 3 -73 45 q-11 6 -3 17l48 72q6 8 17 5q30 -10 56 -29zM672 -153q6 8 17 5q45 -17 74 -43q8 -8 3 -18l-48 -76q-8 -11 -18 -2q-5 4 -53 34l-33 -54q-7 -10 -18 -2q-5 3 -73 45q-11 6 -3 17l48 72q6 8 17 5q30 -10 56 -29z" />
<glyph unicode="&#xfc5b;" horiz-adv-x="450" arabic-form="isolated" d="M180 285q-20 9 -8 44q9 26 25 58q12 24 32 13q123 -72 150 -207q14 -76 -4 -126q-10 -33 -30 -41q-106 -43 -180 -47q-55 -4 -75 26t-4 94q6 25 19 25q9 0 17 -12t91 -2t130 33q-15 76 -163 142zM123 1164q10 27 31 2q96 -107 66 -274q-3 -15 -13 -16q-19 -3 -21 16 q-14 103 -76 179q-11 14 -6 29zM183 649q6 8 17 5q43 -16 73 -43q8 -8 3 -18l-48 -76q-7 -10 -18 -2q-10 7 -72 45q-11 7 -4 17z" />
<glyph unicode="&#xfc5c;" horiz-adv-x="399" arabic-form="isolated" d="M237 295q3 8 7 11q12 3 32 -23q34 -42 54 -113q46 -168 -60 -306q-62 -80 -152 -104q-33 -9 -56 2q-80 34 -138 62q-16 9 -11 20q6 12 22 8q68 -20 108 -10q43 11 110 51q118 71 143 138q1 2 1 6q-9 47 -85 126q-7 7 -4 19zM113 1164q10 27 31 2q96 -107 66 -274 q-3 -15 -13 -16q-19 -3 -21 16q-14 103 -76 179q-11 14 -6 29z" />
<glyph unicode="&#xfc5d;" horiz-adv-x="764" arabic-form="isolated" d="M665 275q-51 27 -139 -19q-71 -37 -86 -91q-2 -8 1 -16q18 -39 127 -45t115 -54q13 -95 -41 -139q-149 -119 -335 -126q-233 -9 -248 174q-7 92 41 192q27 55 59 96q15 20 26 9t-6 -35q-87 -128 -55 -212q41 -104 192 -101q178 3 293 90q-23 8 -98 13q-99 8 -116 58 q-18 52 2 109q44 124 136 191q77 56 137 41q58 -15 33 -109q-11 -40 -38 -26zM211 534q10 27 31 2q96 -107 66 -274q-3 -15 -13 -16q-19 -3 -21 16q-14 103 -76 179q-11 14 -6 29z" />
<glyph unicode="&#xfc5e;" horiz-adv-x="292" arabic-form="isolated" d="M293 984q2 14 7 20.5t14 5.5q19 -2 20 -22q0 -1 -0.5 -2.5t-0.5 -2.5q-3 -53 -20 -92q-21 -46 -61 -49q-23 -1 -44 20q-16 -23 -35 -32q-29 -14 -54 -4q-63 27 -17 149q9 22 27 16q1 0 3 -1q16 -8 10 -30q-4 -14 -5 -20q-5 -32 14 -35q13 -2 24 10t20 37q6 18 9 29 q6 20 22 19h1q17 -4 15 -18v-3q-2 -12 -2 -17q0 -25 16 -28h4q24 0 31 38q2 8 2 12zM247 1247q19 5 28 -9q19 -30 -4 -87q11 -6 15 -9q11 -8 4 -22l-10 -20q-8 -15 -37 2q-45 -58 -79 -76q-22 -10 -31 1q-9 12 22 34q29 21 59 58q-46 27 -27 68q24 49 60 60zM157 1165 q6 1 9.5 -2t3.5 -11q0 -5 -1 -8l-8 -23q-7 -22 -28 -15q-20 7 -29 31q-9 23 -1 59q7 33 45 74q86 93 126 74q17 -9 18 -32q2 -24 -13 -40q-15 -17 -34 1q-18 17 -48 -4t-44 -44q-26 -39 -10 -55q8 -6 14 -5zM243 1187q-6 10 -20 4q-16 -6 -10 -12q9 -11 31 -22q6 18 -1 30z " />
<glyph unicode="&#xfc5f;" horiz-adv-x="292" arabic-form="isolated" d="M293 984q2 14 7 20.5t14 5.5q19 -2 20 -22q0 -1 -0.5 -2.5t-0.5 -2.5q-3 -53 -20 -92q-21 -46 -61 -49q-23 -1 -44 20q-16 -23 -35 -32q-29 -14 -54 -4q-63 27 -17 149q9 22 27 16q1 0 3 -1q16 -8 10 -30q-4 -14 -5 -20q-5 -32 14 -35q13 -2 24 10t20 37q6 18 9 29 q6 20 22 19h1q17 -4 15 -18v-3q-2 -12 -2 -17q0 -25 16 -28h4q24 0 31 38q2 8 2 12zM333 -455q18 12 29 9q12 -3 4 -26l-11 -31q-6 -17 -19 -26l-175 -108q-10 -6 -21 -4t-8 21l3 19q3 17 20 28zM329 -355q16 10 26 7t6 -23l-7 -26q-6 -19 -24 -30l-177 -103q-21 -11 -30 -7 q-11 5 -2 26l9 19q7 16 18 23z" />
<glyph unicode="&#xfc60;" horiz-adv-x="292" arabic-form="isolated" d="M293 984q2 14 7 20.5t14 5.5q19 -2 20 -22q0 -1 -0.5 -2.5t-0.5 -2.5q-3 -53 -20 -92q-21 -46 -61 -49q-23 -1 -44 20q-16 -23 -35 -32q-29 -14 -54 -4q-63 27 -17 149q9 22 27 16q1 0 3 -1q16 -8 10 -30q-4 -14 -5 -20q-5 -32 14 -35q13 -2 24 10t20 37q6 18 9 29 q6 20 22 19h1q17 -4 15 -18v-3q-2 -12 -2 -17q0 -25 16 -28h4q24 0 31 38q2 8 2 12zM123 1078l181 80q9 3 13 3q11 -1 9 -15l-4 -35q-3 -13 -12 -17h-1l-175 -62q-6 -2 -15 -2q-12 3 -11 19l2 13q2 12 13 16z" />
<glyph unicode="&#xfc61;" horiz-adv-x="292" arabic-form="isolated" d="M293 984q2 14 7 20.5t14 5.5q19 -2 20 -22q0 -1 -0.5 -2.5t-0.5 -2.5q-3 -53 -20 -92q-21 -46 -61 -49q-23 -1 -44 20q-16 -23 -35 -32q-29 -14 -54 -4q-63 27 -17 149q9 22 27 16q1 0 3 -1q16 -8 10 -30q-4 -14 -5 -20q-5 -32 14 -35q13 -2 24 10t20 37q6 18 9 29 q6 20 22 19h1q17 -4 15 -18v-3q-2 -12 -2 -17q0 -25 16 -28h4q24 0 31 38q2 8 2 12zM242 1287q20 5 31 -11q8 -11 10 -39q0 -23 -18 -68q6 -3 13 -7.5t9 -5.5q11 -8 4 -23l-12 -24q-7 -15 -44 5q-56 -71 -100 -96q-25 -13 -34 -1q-7 13 21 34q44 31 83 81q-59 32 -36 82 q29 61 73 73zM232 1213q-5 8 -19 2l-12 -6q7 -9 33 -23q3 18 -2 27z" />
<glyph unicode="&#xfc62;" horiz-adv-x="292" arabic-form="isolated" d="M293 984q2 14 7 20.5t14 5.5q19 -2 20 -22q0 -1 -0.5 -2.5t-0.5 -2.5q-3 -53 -20 -92q-21 -46 -61 -49q-23 -1 -44 20q-16 -23 -35 -32q-29 -14 -54 -4q-63 27 -17 149q9 22 27 16q1 0 3 -1q16 -8 10 -30q-4 -14 -5 -20q-5 -32 14 -35q13 -2 24 10t20 37q6 18 9 29 q6 20 22 19h1q17 -4 15 -18v-3q-2 -12 -2 -17q0 -25 16 -28h4q24 0 31 38q2 8 2 12zM350 -310q12 8 24 5q10 -3 4 -24l-9 -32q-5 -15 -25 -28l-195 -113q-7 -4 -13 -4q-13 1 -15 20v17q2 16 21 29z" />
<glyph unicode="&#xfc63;" horiz-adv-x="292" arabic-form="isolated" d="M293 984q2 14 7 20.5t14 5.5q19 -2 20 -22q0 -1 -0.5 -2.5t-0.5 -2.5q-3 -53 -20 -92q-21 -46 -61 -49q-23 -1 -44 20q-16 -23 -35 -32q-29 -14 -54 -4q-63 27 -17 149q9 22 27 16q1 0 3 -1q16 -8 10 -30q-4 -14 -5 -20q-5 -32 14 -35q13 -2 24 10t20 37q6 18 9 29 q6 20 22 19h1q17 -4 15 -18v-3q-2 -12 -2 -17q0 -25 16 -28h4q24 0 31 38q2 8 2 12zM116 1300q10 27 31 2q96 -107 66 -274q-3 -15 -13 -16q-19 -3 -21 16q-14 103 -76 179q-11 14 -6 29z" />
<glyph unicode="&#xfc64;" horiz-adv-x="550" arabic-form="final" d="M-80 -153q-15 11 -11 24t25 8q97 -20 161 5q131 50 185 149q-1 18 -52 89q-7 8 -4 19l28 102q17 60 52 -15q0 -2 2 -5t2 -4q6 -4 8 -5q57 -4 80 14t42 76q7 22 23 19t19 -23q1 -6 2.5 -17.5t3.5 -31.5t4 -36q8 -64 22 -84q15 -21 44 -27q28 -6 34 -31q2 -9 -4 -38 q-12 -50 -35 -50q-112 0 -112 191q-35 -70 -105 -76q2 -44 -9 -89q-15 -69 -76 -143t-124 -82q-103 -12 -205 61zM504 497q-53 -10 -76 -18t-83 -34q-18 -8 -28 7q-14 23 30 53q-29 18 -34 41q-8 44 36 104q44 61 95 56q37 -3 34 -39q-3 -34 -15 -51t-15 -19q-14 -10 -25 5 q-11 16 -26 17q-16 1 -24 -8q-7 -9 0 -16q31 -29 93 -31q11 0 30 4q23 5 30 5q10 0 17 -10q5 -9 2 -18q-21 -43 -41 -48z" />
<glyph unicode="&#xfc65;" horiz-adv-x="550" arabic-form="final" d="M-80 -153q-15 11 -11 24t25 8q97 -20 161 5q131 50 185 149q-1 18 -52 89q-7 8 -4 19l28 102q17 60 52 -15q0 -2 2 -5t2 -4q6 -4 8 -5q57 -4 80 14t42 76q7 22 23 19t19 -23q1 -6 2.5 -17.5t3.5 -31.5t4 -36q8 -64 22 -84q15 -21 44 -27q28 -6 34 -31q2 -9 -4 -38 q-12 -50 -35 -50q-112 0 -112 191q-35 -70 -105 -76q2 -44 -9 -89q-15 -69 -76 -143t-124 -82q-103 -12 -205 61zM504 497q-53 -10 -76 -18t-83 -34q-18 -8 -28 7q-14 23 30 53q-29 18 -34 41q-8 44 36 104q44 61 95 56q37 -3 34 -39q-3 -34 -15 -51t-15 -19q-14 -10 -25 5 q-11 16 -26 17q-16 1 -24 -8q-7 -9 0 -16q31 -29 93 -31q11 0 30 4q23 5 30 5q10 0 17 -10q5 -9 2 -18q-21 -43 -41 -48zM151 521q6 8 17 5q43 -16 73 -43q8 -8 3 -18l-48 -76q-7 -10 -18 -2q-10 7 -72 45q-11 7 -4 17z" />
<glyph unicode="&#xfc66;" horiz-adv-x="561" arabic-form="final" d="M174 -25q-22 10 -13 37q21 59 28 67q1 1 3 4q18 20 49 40q127 81 197 80q41 0 93 -70q19 -25 32 -28q47 -9 47 -45q0 -27 -13 -50q-14 -25 -36 -25q-58 0 -102 72q-27 44 -96 35q-33 -4 -66 -17q64 -25 123 -68q25 -19 14 -52q-4 -11 -8.5 -24.5t-6.5 -19t-2 -7.5 q-12 -28 -35 -27q-101 12 -184 -8q-55 -14 -70 -30q4 -36 24 -156q25 -146 26 -166q4 -64 -15 -142q-6 -21 -22 -18q-15 3 -12 49q3 45 -45 285q-15 81 4 149q19 67 41 94q21 25 45 41zM477 400q-53 -10 -76 -18t-83 -34q-18 -8 -28 7q-14 23 30 53q-29 18 -34 41 q-8 44 36 104q44 61 95 56q37 -3 34 -39q-3 -34 -15 -51t-15 -19q-14 -10 -25 5q-11 16 -26 17q-16 1 -24 -8q-7 -9 0 -16q31 -29 93 -31q11 0 30 4q23 5 30 5q10 0 17 -10q5 -9 2 -18q-21 -43 -41 -48z" />
<glyph unicode="&#xfc67;" horiz-adv-x="761" arabic-form="final" d="M759 -15q-52 8 -72 45q-21 39 -37 138q-32 -39 -78 -48q3 -52 -6 -93t-16 -58q-28 -75 -96 -129q-71 -56 -188 -56q-177 0 -210 116t63 277q10 16 22 9q13 -8 2 -28q-69 -128 -42 -180q37 -73 169 -71q81 1 158 39q75 37 92 69q12 45 -42 156q-5 10 -1 23l17 63 q9 30 26 16q18 -15 29 -41h5q65 -12 99 64q10 21 31 20q20 -1 23 -28q12 -123 26 -154q12 -26 31 -29q40 -6 32 -65q-6 -43 -21 -52q-10 -4 -16 -3zM701 441q-53 -10 -76 -18t-83 -34q-18 -8 -28 7q-14 23 30 53q-29 18 -34 41q-8 44 36 104q44 61 95 56q37 -3 34 -39 q-3 -34 -15 -51t-15 -19q-14 -10 -25 5q-11 16 -26 17q-16 1 -24 -8q-7 -9 0 -16q31 -29 93 -31q11 0 30 4q23 5 30 5q10 0 17 -10q5 -9 2 -18q-21 -43 -41 -48zM289 480q6 8 17 5q43 -16 73 -43q8 -8 3 -18l-48 -76q-7 -10 -18 -2q-10 8 -72 45q-11 7 -4 17z" />
<glyph unicode="&#xfc68;" horiz-adv-x="729" arabic-form="final" d="M432 -109q-32 12 -42 33q-3 6 -5 18v4q-3 39 37 106q40 66 92 108q55 44 88 44q36 0 67 -52q24 -41 58 -47q50 -9 40 -51q-3 -12 -6 -23t-4 -15l-1 -5q-11 -27 -27 -26q-70 4 -114 67q-25 36 -46 37t-66 -24q-44 -24 -50 -38q-4 -17 24 -32q29 -15 101 -26q68 -10 97 -20 q26 -9 38 -37q12 -29 8 -58q-5 -30 -18 -51q-26 -37 -127 -87q-99 -49 -226 -63q-228 -25 -284 133q-18 51 -3 137q15 87 77 186q10 18 27 9q16 -9 -3 -40q-66 -107 -49 -175q33 -141 219 -129q145 9 308 86q-23 5 -86 9q-77 6 -124 22zM595 400q-53 -10 -76 -18t-83 -34 q-18 -8 -28 7q-14 23 30 53q-29 18 -34 41q-8 44 36 104q44 61 95 56q37 -3 34 -39q-3 -34 -15 -51t-15 -19q-14 -10 -25 5q-11 16 -26 17q-16 1 -24 -8q-7 -9 0 -16q31 -29 93 -31q11 0 30 4q23 5 30 5q10 0 17 -10q5 -9 2 -18q-21 -43 -41 -48z" />
<glyph unicode="&#xfc69;" horiz-adv-x="729" arabic-form="final" d="M432 -109q-32 12 -42 33q-3 6 -5 18v4q-3 39 37 106q40 66 92 108q55 44 88 44q36 0 67 -52q24 -41 58 -47q50 -9 40 -51q-3 -12 -6 -23t-4 -15l-1 -5q-11 -27 -27 -26q-70 4 -114 67q-25 36 -46 37t-66 -24q-44 -24 -50 -38q-4 -17 24 -32q29 -15 101 -26q68 -10 97 -20 q26 -9 38 -37q12 -29 8 -58q-5 -30 -18 -51q-26 -37 -127 -87q-99 -49 -226 -63q-228 -25 -284 133q-18 51 -3 137q15 87 77 186q10 18 27 9q16 -9 -3 -40q-66 -107 -49 -175q33 -141 219 -129q145 9 308 86q-23 5 -86 9q-77 6 -124 22zM595 400q-53 -10 -76 -18t-83 -34 q-18 -8 -28 7q-14 23 30 53q-29 18 -34 41q-8 44 36 104q44 61 95 56q37 -3 34 -39q-3 -34 -15 -51t-15 -19q-14 -10 -25 5q-11 16 -26 17q-16 1 -24 -8q-7 -9 0 -16q31 -29 93 -31q11 0 30 4q23 5 30 5q10 0 17 -10q5 -9 2 -18q-21 -43 -41 -48zM397 -422q6 8 17 5 q45 -17 74 -43q8 -8 3 -18l-48 -76q-8 -11 -18 -2q-5 4 -53 34l-33 -54q-7 -10 -18 -2q-5 3 -73 45q-11 6 -3 17l48 72q6 8 17 5q30 -10 56 -29z" />
<glyph unicode="&#xfc6a;" horiz-adv-x="550" arabic-form="final" d="M-80 -153q-15 11 -11 24t25 8q97 -20 161 5q131 50 185 149q-1 18 -52 89q-7 8 -4 19l28 102q17 60 52 -15q0 -2 2 -5t2 -4q6 -4 8 -5q57 -4 80 14t42 76q7 22 23 19t19 -23q1 -6 2.5 -17.5t3.5 -31.5t4 -36q8 -64 22 -84q15 -21 44 -27q28 -6 34 -31q2 -9 -4 -38 q-12 -50 -35 -50q-112 0 -112 191q-35 -70 -105 -76q2 -44 -9 -89q-15 -69 -76 -143t-124 -82q-103 -12 -205 61zM402 -123q6 8 17 5q43 -16 73 -43q8 -8 3 -18l-48 -76q-7 -10 -18 -2q-11 7 -72 45q-11 7 -4 17z" />
<glyph unicode="&#xfc6b;" horiz-adv-x="550" arabic-form="final" d="M-80 -153q-15 11 -11 24t25 8q97 -20 161 5q131 50 185 149q-1 18 -52 89q-7 8 -4 19l28 102q17 60 52 -15q0 -2 2 -5t2 -4q6 -4 8 -5q57 -4 80 14t42 76q7 22 23 19t19 -23q1 -6 2.5 -17.5t3.5 -31.5t4 -36q8 -64 22 -84q15 -21 44 -27q28 -6 34 -31q2 -9 -4 -38 q-12 -50 -35 -50q-112 0 -112 191q-35 -70 -105 -76q2 -44 -9 -89q-15 -69 -76 -143t-124 -82q-103 -12 -205 61zM402 -123q6 8 17 5q43 -16 73 -43q8 -8 3 -18l-48 -76q-7 -10 -18 -2q-11 7 -72 45q-11 7 -4 17zM151 521q6 8 17 5q43 -16 73 -43q8 -8 3 -18l-48 -76 q-7 -10 -18 -2q-10 7 -72 45q-11 7 -4 17z" />
<glyph unicode="&#xfc6c;" horiz-adv-x="561" arabic-form="final" d="M174 -25q-22 10 -13 37q21 59 28 67q1 1 3 4q18 20 49 40q127 81 197 80q41 0 93 -70q19 -25 32 -28q47 -9 47 -45q0 -27 -13 -50q-14 -25 -36 -25q-58 0 -102 72q-27 44 -96 35q-33 -4 -66 -17q64 -25 123 -68q25 -19 14 -52q-4 -11 -8.5 -24.5t-6.5 -19t-2 -7.5 q-12 -28 -35 -27q-101 12 -184 -8q-55 -14 -70 -30q4 -36 24 -156q25 -146 26 -166q4 -64 -15 -142q-6 -21 -22 -18q-15 3 -12 49q3 45 -45 285q-15 81 4 149q19 67 41 94q21 25 45 41zM419 -221q6 8 17 5q43 -16 73 -43q8 -8 3 -18l-48 -76q-7 -10 -18 -2q-10 7 -72 45 q-11 7 -4 17z" />
<glyph unicode="&#xfc6d;" horiz-adv-x="761" arabic-form="final" d="M759 -15q-52 8 -72 45q-21 39 -37 138q-32 -39 -78 -48q3 -52 -6 -93t-16 -58q-28 -75 -96 -129q-71 -56 -188 -56q-177 0 -210 116t63 277q10 16 22 9q13 -8 2 -28q-69 -128 -42 -180q37 -73 169 -71q81 1 158 39q75 37 92 69q12 45 -42 156q-5 10 -1 23l17 63 q9 30 26 16q18 -15 29 -41h5q65 -12 99 64q10 21 31 20q20 -1 23 -28q12 -123 26 -154q12 -26 31 -29q40 -6 32 -65q-6 -43 -21 -52q-10 -4 -16 -3zM599 -123q6 8 17 5q43 -16 73 -43q8 -8 3 -18l-48 -76q-7 -10 -18 -2q-10 7 -72 45q-11 7 -4 17zM289 480q6 8 17 5 q43 -16 73 -43q8 -8 3 -18l-48 -76q-7 -10 -18 -2q-10 8 -72 45q-11 7 -4 17z" />
<glyph unicode="&#xfc6e;" horiz-adv-x="729" arabic-form="final" d="M432 -109q-32 12 -42 33q-3 6 -5 18v4q-3 39 37 106q40 66 92 108q55 44 88 44q36 0 67 -52q24 -41 58 -47q50 -9 40 -51q-3 -12 -6 -23t-4 -15l-1 -5q-11 -27 -27 -26q-70 4 -114 67q-25 36 -46 37t-66 -24q-44 -24 -50 -38q-4 -17 24 -32q29 -15 101 -26q68 -10 97 -20 q26 -9 38 -37q12 -29 8 -58q-5 -30 -18 -51q-26 -37 -127 -87q-99 -49 -226 -63q-228 -25 -284 133q-18 51 -3 137q15 87 77 186q10 18 27 9q16 -9 -3 -40q-66 -107 -49 -175q33 -141 219 -129q145 9 308 86q-23 5 -86 9q-77 6 -124 22zM595 -328q6 8 17 5q43 -16 73 -43 q8 -8 3 -18l-48 -76q-7 -10 -18 -2q-10 8 -72 45q-11 7 -4 17z" />
<glyph unicode="&#xfc6f;" horiz-adv-x="729" arabic-form="final" d="M432 -109q-32 12 -42 33q-3 6 -5 18v4q-3 39 37 106q40 66 92 108q55 44 88 44q36 0 67 -52q24 -41 58 -47q50 -9 40 -51q-3 -12 -6 -23t-4 -15l-1 -5q-11 -27 -27 -26q-70 4 -114 67q-25 36 -46 37t-66 -24q-44 -24 -50 -38q-4 -17 24 -32q29 -15 101 -26q68 -10 97 -20 q26 -9 38 -37q12 -29 8 -58q-5 -30 -18 -51q-26 -37 -127 -87q-99 -49 -226 -63q-228 -25 -284 133q-18 51 -3 137q15 87 77 186q10 18 27 9q16 -9 -3 -40q-66 -107 -49 -175q33 -141 219 -129q145 9 308 86q-23 5 -86 9q-77 6 -124 22zM397 -422q6 8 17 5q45 -17 74 -43 q8 -8 3 -18l-48 -76q-8 -11 -18 -2q-5 4 -53 34l-33 -54q-7 -10 -18 -2q-5 3 -73 45q-11 6 -3 17l48 72q6 8 17 5q30 -10 56 -29zM595 -328q6 8 17 5q43 -16 73 -43q8 -8 3 -18l-48 -76q-7 -10 -18 -2q-10 8 -72 45q-11 7 -4 17z" />
<glyph unicode="&#xfc70;" horiz-adv-x="550" arabic-form="final" d="M-80 -153q-15 11 -11 24t25 8q97 -20 161 5q131 50 185 149q-1 18 -52 89q-7 8 -4 19l28 102q17 60 52 -15q0 -2 2 -5t2 -4q6 -4 8 -5q57 -4 80 14t42 76q7 22 23 19t19 -23q1 -6 2.5 -17.5t3.5 -31.5t4 -36q8 -64 22 -84q15 -21 44 -27q28 -6 34 -31q2 -9 -4 -38 q-12 -50 -35 -50q-112 0 -112 191q-35 -70 -105 -76q2 -44 -9 -89q-15 -69 -76 -143t-124 -82q-103 -12 -205 61zM461 573q6 8 17 5q45 -17 74 -43q8 -8 3 -18l-48 -76q-8 -11 -18 -2q-5 4 -53 34l-33 -54q-7 -10 -18 -2q-5 3 -73 45q-11 6 -3 17l48 72q6 8 17 5 q30 -10 56 -29z" />
<glyph unicode="&#xfc71;" horiz-adv-x="550" arabic-form="final" d="M-80 -153q-15 11 -11 24t25 8q97 -20 161 5q131 50 185 149q-1 18 -52 89q-7 8 -4 19l28 102q17 60 52 -15q0 -2 2 -5t2 -4q6 -4 8 -5q57 -4 80 14t42 76q7 22 23 19t19 -23q1 -6 2.5 -17.5t3.5 -31.5t4 -36q8 -64 22 -84q15 -21 44 -27q28 -6 34 -31q2 -9 -4 -38 q-12 -50 -35 -50q-112 0 -112 191q-35 -70 -105 -76q2 -44 -9 -89q-15 -69 -76 -143t-124 -82q-103 -12 -205 61zM461 573q6 8 17 5q45 -17 74 -43q8 -8 3 -18l-48 -76q-8 -11 -18 -2q-5 4 -53 34l-33 -54q-7 -10 -18 -2q-5 3 -73 45q-11 6 -3 17l48 72q6 8 17 5 q30 -10 56 -29zM151 521q6 8 17 5q43 -16 73 -43q8 -8 3 -18l-48 -76q-7 -10 -18 -2q-10 7 -72 45q-11 7 -4 17z" />
<glyph unicode="&#xfc72;" horiz-adv-x="561" arabic-form="final" d="M174 -25q-22 10 -13 37q21 59 28 67q1 1 3 4q18 20 49 40q127 81 197 80q41 0 93 -70q19 -25 32 -28q47 -9 47 -45q0 -27 -13 -50q-14 -25 -36 -25q-58 0 -102 72q-27 44 -96 35q-33 -4 -66 -17q64 -25 123 -68q25 -19 14 -52q-4 -11 -8.5 -24.5t-6.5 -19t-2 -7.5 q-12 -28 -35 -27q-101 12 -184 -8q-55 -14 -70 -30q4 -36 24 -156q25 -146 26 -166q4 -64 -15 -142q-6 -21 -22 -18q-15 3 -12 49q3 45 -45 285q-15 81 4 149q19 67 41 94q21 25 45 41zM429 475q6 8 17 5q45 -17 74 -43q8 -8 3 -18l-48 -76q-8 -11 -18 -2q-5 4 -53 34 l-33 -54q-7 -10 -18 -2q-5 3 -73 45q-11 6 -3 17l48 72q6 8 17 5q30 -10 56 -29z" />
<glyph unicode="&#xfc73;" horiz-adv-x="761" arabic-form="final" d="M759 -15q-52 8 -72 45q-21 39 -37 138q-32 -39 -78 -48q3 -52 -6 -93t-16 -58q-28 -75 -96 -129q-71 -56 -188 -56q-177 0 -210 116t63 277q10 16 22 9q13 -8 2 -28q-69 -128 -42 -180q37 -73 169 -71q81 1 158 39q75 37 92 69q12 45 -42 156q-5 10 -1 23l17 63 q9 30 26 16q18 -15 29 -41h5q65 -12 99 64q10 21 31 20q20 -1 23 -28q12 -123 26 -154q12 -26 31 -29q40 -6 32 -65q-6 -43 -21 -52q-10 -4 -16 -3zM653 516q6 8 17 5q45 -17 74 -43q8 -8 3 -18l-48 -76q-8 -11 -18 -2q-5 4 -53 34l-33 -54q-7 -10 -18 -2q-5 3 -73 45 q-11 6 -3 17l48 72q6 8 17 5q30 -10 56 -29zM289 480q6 8 17 5q43 -16 73 -43q8 -8 3 -18l-48 -76q-7 -10 -18 -2q-10 8 -72 45q-11 7 -4 17z" />
<glyph unicode="&#xfc74;" horiz-adv-x="729" arabic-form="final" d="M432 -109q-32 12 -42 33q-3 6 -5 18v4q-3 39 37 106q40 66 92 108q55 44 88 44q36 0 67 -52q24 -41 58 -47q50 -9 40 -51q-3 -12 -6 -23t-4 -15l-1 -5q-11 -27 -27 -26q-70 4 -114 67q-25 36 -46 37t-66 -24q-44 -24 -50 -38q-4 -17 24 -32q29 -15 101 -26q68 -10 97 -20 q26 -9 38 -37q12 -29 8 -58q-5 -30 -18 -51q-26 -37 -127 -87q-99 -49 -226 -63q-228 -25 -284 133q-18 51 -3 137q15 87 77 186q10 18 27 9q16 -9 -3 -40q-66 -107 -49 -175q33 -141 219 -129q145 9 308 86q-23 5 -86 9q-77 6 -124 22zM552 475q6 8 17 5q45 -17 74 -43 q8 -8 3 -18l-48 -76q-8 -11 -18 -2q-5 4 -53 34l-33 -54q-7 -10 -18 -2q-5 3 -73 45q-11 6 -3 17l48 72q6 8 17 5q30 -10 56 -29z" />
<glyph unicode="&#xfc75;" horiz-adv-x="729" arabic-form="final" d="M432 -109q-32 12 -42 33q-3 6 -5 18v4q-3 39 37 106q40 66 92 108q55 44 88 44q36 0 67 -52q24 -41 58 -47q50 -9 40 -51q-3 -12 -6 -23t-4 -15l-1 -5q-11 -27 -27 -26q-70 4 -114 67q-25 36 -46 37t-66 -24q-44 -24 -50 -38q-4 -17 24 -32q29 -15 101 -26q68 -10 97 -20 q26 -9 38 -37q12 -29 8 -58q-5 -30 -18 -51q-26 -37 -127 -87q-99 -49 -226 -63q-228 -25 -284 133q-18 51 -3 137q15 87 77 186q10 18 27 9q16 -9 -3 -40q-66 -107 -49 -175q33 -141 219 -129q145 9 308 86q-23 5 -86 9q-77 6 -124 22zM397 -422q6 8 17 5q45 -17 74 -43 q8 -8 3 -18l-48 -76q-8 -11 -18 -2q-5 4 -53 34l-33 -54q-7 -10 -18 -2q-5 3 -73 45q-11 6 -3 17l48 72q6 8 17 5q30 -10 56 -29zM552 475q6 8 17 5q45 -17 74 -43q8 -8 3 -18l-48 -76q-8 -11 -18 -2q-5 4 -53 34l-33 -54q-7 -10 -18 -2q-5 3 -73 45q-11 6 -3 17l48 72 q6 8 17 5q30 -10 56 -29z" />
<glyph unicode="&#xfc76;" horiz-adv-x="550" arabic-form="final" d="M-80 -153q-15 11 -11 24t25 8q97 -20 161 5q131 50 185 149q-1 18 -52 89q-7 8 -4 19l28 102q17 60 52 -15q0 -2 2 -5t2 -4q6 -4 8 -5q57 -4 80 14t42 76q7 22 23 19t19 -23q1 -6 2.5 -17.5t3.5 -31.5t4 -36q8 -64 22 -84q15 -21 44 -27q28 -6 34 -31q2 -9 -4 -38 q-12 -50 -35 -50q-112 0 -112 191q-35 -70 -105 -76q2 -44 -9 -89q-15 -69 -76 -143t-124 -82q-103 -12 -205 61zM457 573q6 9 18 5q43 -16 73 -43q8 -8 3 -18l-48 -76q-8 -11 -17 -3q-6 5 -46 30l-31 -49q-7 -11 -18 -3q-14 10 -73 46q-10 6 -3 16l48 72q12 17 66 -19z M387 685q6 8 17 5q43 -16 73 -43q8 -8 3 -18l-48 -76q-7 -10 -18 -2q-10 7 -72 45q-11 6 -4 16z" />
<glyph unicode="&#xfc77;" horiz-adv-x="550" arabic-form="final" d="M-80 -153q-15 11 -11 24t25 8q97 -20 161 5q131 50 185 149q-1 18 -52 89q-7 8 -4 19l28 102q17 60 52 -15q0 -2 2 -5t2 -4q6 -4 8 -5q57 -4 80 14t42 76q7 22 23 19t19 -23q1 -6 2.5 -17.5t3.5 -31.5t4 -36q8 -64 22 -84q15 -21 44 -27q28 -6 34 -31q2 -9 -4 -38 q-12 -50 -35 -50q-112 0 -112 191q-35 -70 -105 -76q2 -44 -9 -89q-15 -69 -76 -143t-124 -82q-103 -12 -205 61zM457 573q6 9 18 5q43 -16 73 -43q8 -8 3 -18l-48 -76q-8 -11 -17 -3q-6 5 -46 30l-31 -49q-7 -11 -18 -3q-14 10 -73 46q-10 6 -3 16l48 72q12 17 66 -19z M151 521q6 8 17 5q43 -16 73 -43q8 -8 3 -18l-48 -76q-7 -10 -18 -2q-10 7 -72 45q-11 7 -4 17zM387 685q6 8 17 5q43 -16 73 -43q8 -8 3 -18l-48 -76q-7 -10 -18 -2q-10 7 -72 45q-11 6 -4 16z" />
<glyph unicode="&#xfc78;" horiz-adv-x="561" arabic-form="final" d="M174 -25q-22 10 -13 37q21 59 28 67q1 1 3 4q18 20 49 40q127 81 197 80q41 0 93 -70q19 -25 32 -28q47 -9 47 -45q0 -27 -13 -50q-14 -25 -36 -25q-58 0 -102 72q-27 44 -96 35q-33 -4 -66 -17q64 -25 123 -68q25 -19 14 -52q-4 -11 -8.5 -24.5t-6.5 -19t-2 -7.5 q-12 -28 -35 -27q-101 12 -184 -8q-55 -14 -70 -30q4 -36 24 -156q25 -146 26 -166q4 -64 -15 -142q-6 -21 -22 -18q-15 3 -12 49q3 45 -45 285q-15 81 4 149q19 67 41 94q21 25 45 41zM425 475q6 9 18 5q43 -16 73 -43q8 -8 3 -18l-48 -76q-8 -11 -17 -3q-6 5 -46 30 l-31 -49q-7 -11 -18 -3q-14 10 -73 46q-10 6 -3 16l48 72q12 17 66 -19zM355 587q6 8 17 5q43 -16 73 -43q8 -8 3 -18l-48 -76q-7 -10 -18 -2q-10 7 -72 45q-11 6 -4 16z" />
<glyph unicode="&#xfc79;" horiz-adv-x="761" arabic-form="final" d="M759 -15q-52 8 -72 45q-21 39 -37 138q-32 -39 -78 -48q3 -52 -6 -93t-16 -58q-28 -75 -96 -129q-71 -56 -188 -56q-177 0 -210 116t63 277q10 16 22 9q13 -8 2 -28q-69 -128 -42 -180q37 -73 169 -71q81 1 158 39q75 37 92 69q12 45 -42 156q-5 10 -1 23l17 63 q9 30 26 16q18 -15 29 -41h5q65 -12 99 64q10 21 31 20q20 -1 23 -28q12 -123 26 -154q12 -26 31 -29q40 -6 32 -65q-6 -43 -21 -52q-10 -4 -16 -3zM649 516q6 9 18 5q43 -16 73 -43q8 -8 3 -18l-48 -76q-8 -11 -17 -3q-6 5 -46 30l-31 -49q-7 -10 -18 -3q-14 10 -73 46 q-10 6 -3 16l48 72q12 17 66 -19zM289 480q6 8 17 5q43 -16 73 -43q8 -8 3 -18l-48 -76q-7 -10 -18 -2q-10 8 -72 45q-11 7 -4 17zM579 628q6 8 17 5q43 -16 73 -43q8 -8 3 -18l-48 -76q-7 -10 -18 -2q-10 8 -72 45q-11 6 -4 16z" />
<glyph unicode="&#xfc7a;" horiz-adv-x="729" arabic-form="final" d="M432 -109q-32 12 -42 33q-3 6 -5 18v4q-3 39 37 106q40 66 92 108q55 44 88 44q36 0 67 -52q24 -41 58 -47q50 -9 40 -51q-3 -12 -6 -23t-4 -15l-1 -5q-11 -27 -27 -26q-70 4 -114 67q-25 36 -46 37t-66 -24q-44 -24 -50 -38q-4 -17 24 -32q29 -15 101 -26q68 -10 97 -20 q26 -9 38 -37q12 -29 8 -58q-5 -30 -18 -51q-26 -37 -127 -87q-99 -49 -226 -63q-228 -25 -284 133q-18 51 -3 137q15 87 77 186q10 18 27 9q16 -9 -3 -40q-66 -107 -49 -175q33 -141 219 -129q145 9 308 86q-23 5 -86 9q-77 6 -124 22zM548 475q6 9 18 5q43 -16 73 -43 q8 -8 3 -18l-48 -76q-8 -11 -17 -3q-6 5 -46 30l-31 -49q-8 -11 -18 -3q-14 10 -73 46q-10 6 -3 16l48 72q12 17 66 -19zM478 587q6 8 17 5q43 -16 73 -43q8 -8 3 -18l-48 -76q-7 -10 -18 -2q-11 7 -72 45q-11 6 -4 16z" />
<glyph unicode="&#xfc7b;" horiz-adv-x="729" arabic-form="final" d="M432 -109q-32 12 -42 33q-3 6 -5 18v4q-3 39 37 106q40 66 92 108q55 44 88 44q36 0 67 -52q24 -41 58 -47q50 -9 40 -51q-3 -12 -6 -23t-4 -15l-1 -5q-11 -27 -27 -26q-70 4 -114 67q-25 36 -46 37t-66 -24q-44 -24 -50 -38q-4 -17 24 -32q29 -15 101 -26q68 -10 97 -20 q26 -9 38 -37q12 -29 8 -58q-5 -30 -18 -51q-26 -37 -127 -87q-99 -49 -226 -63q-228 -25 -284 133q-18 51 -3 137q15 87 77 186q10 18 27 9q16 -9 -3 -40q-66 -107 -49 -175q33 -141 219 -129q145 9 308 86q-23 5 -86 9q-77 6 -124 22zM397 -422q6 8 17 5q45 -17 74 -43 q8 -8 3 -18l-48 -76q-8 -11 -18 -2q-5 4 -53 34l-33 -54q-7 -10 -18 -2q-5 3 -73 45q-11 6 -3 17l48 72q6 8 17 5q30 -10 56 -29zM548 475q6 9 18 5q43 -16 73 -43q8 -8 3 -18l-48 -76q-8 -11 -17 -3q-6 5 -46 30l-31 -49q-8 -11 -18 -3q-14 10 -73 46q-10 6 -3 16l48 72 q12 17 66 -19zM478 587q6 8 17 5q43 -16 73 -43q8 -8 3 -18l-48 -76q-7 -10 -18 -2q-11 7 -72 45q-11 6 -4 16z" />
<glyph unicode="&#xfc7c;" horiz-adv-x="902" arabic-form="final" d="M441 -27h2q1 2 4 5q60 65 175 125q-22 40 5 113q33 87 118 151q35 27 61 27q9 0 17 -4q29 -17 38 -65q13 -80 -19 -152q-10 -20 -27 -50q39 -18 87 -18q21 0 26 -46q4 -45 -6 -61q-8 -13 -19 -13q-94 0 -208 56q-73 -33 -127 -68q2 -1 6 -1q64 -8 96 -36q19 -19 15 -58 q-9 -70 -29 -95q-22 -29 -56 -54q-184 -141 -353 -129q-254 18 -179 309q21 80 68 141q14 17 25 7q12 -11 -3 -32q-57 -86 -54 -156q7 -143 178 -144q171 -2 335 135q-42 23 -185 23q-14 0 -17 11t0 18zM739 649q6 8 17 5q43 -16 73 -43q8 -8 3 -18l-48 -76q-7 -10 -18 -2 q-10 7 -72 45q-11 7 -4 17zM758 259q-52 1 -87 -46q40 -83 126 -20q0 65 -39 66z" />
<glyph unicode="&#xfc7d;" horiz-adv-x="902" arabic-form="final" d="M441 -27h2q1 2 4 5q60 65 175 125q-22 40 5 113q33 87 118 151q35 27 61 27q9 0 17 -4q29 -17 38 -65q13 -80 -19 -152q-10 -20 -27 -50q39 -18 87 -18q21 0 26 -46q4 -45 -6 -61q-8 -13 -19 -13q-94 0 -208 56q-73 -33 -127 -68q2 -1 6 -1q64 -8 96 -36q19 -19 15 -58 q-9 -70 -29 -95q-22 -29 -56 -54q-184 -141 -353 -129q-254 18 -179 309q21 80 68 141q14 17 25 7q12 -11 -3 -32q-57 -86 -54 -156q7 -143 178 -144q171 -2 335 135q-42 23 -185 23q-14 0 -17 11t0 18zM384 -470q6 8 17 5q45 -17 74 -43q8 -8 3 -18l-48 -76q-8 -11 -18 -2 q-5 4 -53 34l-33 -54q-7 -10 -18 -2q-5 3 -73 45q-11 6 -3 17l48 72q6 8 17 5q30 -10 56 -29zM739 649q6 8 17 5q43 -16 73 -43q8 -8 3 -18l-48 -76q-7 -10 -18 -2q-10 7 -72 45q-11 7 -4 17zM758 259q-52 1 -87 -46q40 -83 126 -20q0 65 -39 66z" />
<glyph unicode="&#xfc7e;" horiz-adv-x="902" arabic-form="final" d="M441 -27h2q1 2 4 5q60 65 175 125q-22 40 5 113q33 87 118 151q35 27 61 27q9 0 17 -4q29 -17 38 -65q13 -80 -19 -152q-10 -20 -27 -50q39 -18 87 -18q21 0 26 -46q4 -45 -6 -61q-8 -13 -19 -13q-94 0 -208 56q-73 -33 -127 -68q2 -1 6 -1q64 -8 96 -36q19 -19 15 -58 q-9 -70 -29 -95q-22 -29 -56 -54q-184 -141 -353 -129q-254 18 -179 309q21 80 68 141q14 17 25 7q12 -11 -3 -32q-57 -86 -54 -156q7 -143 178 -144q171 -2 335 135q-42 23 -185 23q-14 0 -17 11t0 18zM752 671q6 8 17 5q45 -17 74 -43q8 -8 3 -18l-48 -76q-8 -11 -18 -2 q-5 4 -53 34l-33 -54q-7 -10 -18 -2q-5 3 -73 45q-11 6 -3 17l48 72q6 8 17 5q30 -10 56 -29zM758 259q-52 1 -87 -46q40 -83 126 -20q0 65 -39 66z" />
<glyph unicode="&#xfc7f;" horiz-adv-x="902" arabic-form="final" d="M441 -27h2q1 2 4 5q60 65 175 125q-22 40 5 113q33 87 118 151q35 27 61 27q9 0 17 -4q29 -17 38 -65q13 -80 -19 -152q-10 -20 -27 -50q39 -18 87 -18q21 0 26 -46q4 -45 -6 -61q-8 -13 -19 -13q-94 0 -208 56q-73 -33 -127 -68q2 -1 6 -1q64 -8 96 -36q19 -19 15 -58 q-9 -70 -29 -95q-22 -29 -56 -54q-184 -141 -353 -129q-254 18 -179 309q21 80 68 141q14 17 25 7q12 -11 -3 -32q-57 -86 -54 -156q7 -143 178 -144q171 -2 335 135q-42 23 -185 23q-14 0 -17 11t0 18zM384 -470q6 8 17 5q45 -17 74 -43q8 -8 3 -18l-48 -76q-8 -11 -18 -2 q-5 4 -53 34l-33 -54q-7 -10 -18 -2q-5 3 -73 45q-11 6 -3 17l48 72q6 8 17 5q30 -10 56 -29zM752 671q6 8 17 5q45 -17 74 -43q8 -8 3 -18l-48 -76q-8 -11 -18 -2q-5 4 -53 34l-33 -54q-7 -10 -18 -2q-5 3 -73 45q-11 6 -3 17l48 72q6 8 17 5q30 -10 56 -29zM758 259 q-52 1 -87 -46q40 -83 126 -20q0 65 -39 66z" />
<glyph unicode="&#xfc80;" horiz-adv-x="717" arabic-form="final" d="M83 739q24 -89 29 -290q43 109 234 221q191 111 307 155q53 20 41 -33l-15 -63q-4 -21 -25 -29q-111 -41 -271 -130q-157 -87 -216 -135q156 -49 289 -152q85 -66 100 -80q104 -92 162 -98q54 -8 29 -91q-11 -29 -31 -29q-69 0 -218 143q-40 39 -75 67q-4 -199 -183 -220 q-26 -3 -48 0h-5q-50 4 -86 42q-59 61 -56 267q2 115 -10 219q-13 114 -19 142q-7 33 -6 41q2 9 4 13l29 46q5 10 14 13q18 6 26 -19zM191 108q109 -19 190 48q-31 97 -253 177q-9 3 -15 9q5 -158 18 -189q16 -35 52 -44h2z" />
<glyph unicode="&#xfc81;" horiz-adv-x="1131" arabic-form="final" d="M540 9q25 -232 -59 -297q-112 -85 -216 -86q-105 -2 -166 58q-62 60 -48 163q13 100 91 204q8 11 24 11q15 0 21 -14t-4 -29q-79 -115 -49 -185q36 -80 164 -73q105 6 192 88l-48 673q-3 34 2 55l19 63q9 11 18 13q22 3 28 -28l2 -10l16 -162q47 108 233 217 q191 111 307 155q53 20 41 -33l-15 -63q-4 -21 -25 -29q-111 -41 -271 -130q-157 -87 -216 -135q156 -49 289 -152q85 -66 100 -80q104 -92 162 -98q54 -8 29 -91q-11 -29 -31 -29q-69 0 -218 143q-40 39 -75 67q-4 -199 -183 -220q-27 -3 -49 0h-5q-35 8 -60 34zM539 334 q19 -201 67 -226q108 -19 189 48q-31 97 -253 177l-1 1h-2z" />
<glyph unicode="&#xfc82;" horiz-adv-x="693" arabic-form="final" d="M134 30q-22 10 -13 37q21 59 28 67q2 2 3.5 4t3 3t2.5 2l2 2q5 4 11 5q4 2 7 2q71 10 133 51q-26 72 -103 151l-132 134q-27 30 -19 51q30 67 66 106q19 19 51 34q198 90 655 166q9 1 16 -2q19 -9 7 -34l-30 -64q-9 -18 -25 -21q-179 -30 -387 -78q-188 -43 -271 -76 q1 -1 3.5 -3t3.5 -3q124 -91 260 -217l172 -161l52 -37l1 -1h1l1 -1l1 -1h1l1 -1l1 -1h1l1 -1l2 -1q7 -5 25 -17l30 -20q53 -9 27 -95q-8 -25 -29 -25q-70 -1 -198 137q-80 87 -138 138q10 -43 2 -77q-8 -31 -52 -76q34 -17 72 -45q25 -19 14 -52q-4 -11 -8.5 -24.5 t-6.5 -19t-2 -7.5q-12 -28 -35 -27q-101 12 -184 -8q-55 -14 -70 -30q4 -36 24 -156q25 -146 26 -166q4 -64 -15 -142q-6 -21 -22 -18q-15 3 -12 49q3 45 -45 285q-15 81 4 149q19 67 41 94q21 25 45 41z" />
<glyph unicode="&#xfc83;" horiz-adv-x="959" arabic-form="final" d="M1051 768l-15 -57q-8 -30 -41 -38q-485 -116 -626 -198q170 -96 330 -221q163 -127 264 -149q33 -8 39 -34q3 -11 -5 -39q-12 -47 -37 -47q-45 0 -137 59q-95 60 -155 110q-34 27 -62 46q14 -50 14 -73v-15l-1 -7q-4 -41 -27 -74q83 -20 101 -66q8 -22 -13 -73 q-22 -54 -42 -71q-71 -60 -163 -101q-95 -42 -176 -48q-141 -10 -203 73q-87 115 -25 280q18 47 36 75q9 14 20 12t15 -4q20 -14 2 -43q-10 -16 -18 -44q-33 -113 37 -174q72 -63 195 -39q127 24 250 108q-51 21 -163 25h-6h-3q-21 3 -17 30l8 52q0 2 1 3q3 16 18 19h1 q103 39 124 67q-36 96 -250 246q-15 11 -19 15q-10 16 -14 49q-5 35 3 59q8 26 36 61q32 40 52 52q133 82 638 206h2q11 2 16 1q22 -6 16 -33z" />
<glyph unicode="&#xfc84;" horiz-adv-x="959" arabic-form="final" d="M1051 768l-15 -57q-8 -30 -41 -38q-485 -116 -626 -198q170 -96 330 -221q163 -127 264 -149q33 -8 39 -34q3 -11 -5 -39q-12 -47 -37 -47q-45 0 -137 59q-95 60 -155 110q-34 27 -62 46q14 -50 14 -73v-15l-1 -7q-4 -41 -27 -74q83 -20 101 -66q8 -22 -13 -73 q-22 -54 -42 -71q-71 -60 -163 -101q-95 -42 -176 -48q-141 -10 -203 73q-87 115 -25 280q18 47 36 75q9 14 20 12t15 -4q20 -14 2 -43q-10 -16 -18 -44q-33 -113 37 -174q72 -63 195 -39q127 24 250 108q-51 21 -163 25h-6h-3q-21 3 -17 30l8 52q0 2 1 3q3 16 18 19h1 q103 39 124 67q-36 96 -250 246q-15 11 -19 15q-10 16 -14 49q-5 35 3 59q8 26 36 61q32 40 52 52q133 82 638 206h2q11 2 16 1q22 -6 16 -33zM390 -399q6 8 17 5q45 -17 74 -43q8 -8 3 -18l-48 -76q-8 -11 -18 -2q-5 4 -53 34l-33 -54q-7 -10 -18 -2q-5 3 -73 45 q-11 6 -3 17l48 72q6 8 17 5q30 -10 56 -29z" />
<glyph unicode="&#xfc85;" horiz-adv-x="483" arabic-form="final" d="M152 -43q-22 10 -13 37q21 59 28 67l11 11q6 4 15 6q113 39 108 191q-1 76 -17 224q-15 143 -15 165q0 24 7 38l23 45q25 52 34 -3q1 -7 2 -16l24 -230q18 -189 24 -223q27 -157 100 -164q16 -3 17 -3q45 -14 13 -95q-9 -22 -30 -22q-107 1 -146 214q-12 -93 -50 -147 q58 -24 111 -63q25 -19 14 -52q-4 -11 -8.5 -24.5t-6.5 -19t-2 -7.5q-12 -28 -35 -27q-101 12 -184 -8q-55 -14 -70 -30q4 -36 24 -156q25 -146 26 -166q4 -64 -15 -142q-6 -21 -22 -18q-15 3 -12 49q3 45 -45 285q-15 81 4 149q19 67 41 94q21 25 45 41z" />
<glyph unicode="&#xfc86;" horiz-adv-x="665" arabic-form="final" d="M434 -61l32 32q1 0 3 -0.5t4 -0.5q27 36 33 66q12 69 2 156l-53 363q-5 27 1 47l21 86q5 20 20 20q8 1 13 -4.5t6 -15.5q26 -230 64 -392q39 -167 91 -192q49 -24 32 -83q-10 -40 -40 -36q-58 7 -108 119q-9 -84 -37 -141q89 -15 113 -33q29 -22 34 -30t6 -15 q3 -43 -13 -84q-17 -42 -44 -64q-88 -67 -191 -99q-217 -64 -325 58q-109 124 56 402q11 19 23 11q12 -7 1 -27q-95 -166 -38 -251q50 -74 145 -84q155 -17 324 97q-34 12 -170 35l-9 1q-1 0 -3.5 -1t-3.5 -1l8 52q1 0 1 0.5t1 0.5z" />
<glyph unicode="&#xfc87;" horiz-adv-x="665" arabic-form="final" d="M434 -61l32 32q1 0 3 -0.5t4 -0.5q27 36 33 66q12 69 2 156l-53 363q-5 27 1 47l21 86q5 20 20 20q8 1 13 -4.5t6 -15.5q26 -230 64 -392q39 -167 91 -192q49 -24 32 -83q-10 -40 -40 -36q-58 7 -108 119q-9 -84 -37 -141q89 -15 113 -33q29 -22 34 -30t6 -15 q3 -43 -13 -84q-17 -42 -44 -64q-88 -67 -191 -99q-217 -64 -325 58q-109 124 56 402q11 19 23 11q12 -7 1 -27q-95 -166 -38 -251q50 -74 145 -84q155 -17 324 97q-34 12 -170 35l-9 1q-1 0 -3.5 -1t-3.5 -1l8 52q1 0 1 0.5t1 0.5zM356 -451q6 8 17 5q45 -17 74 -43 q8 -8 3 -18l-48 -76q-8 -11 -18 -2q-5 4 -53 34l-33 -54q-7 -10 -18 -2q-5 3 -73 45q-11 6 -3 17l48 72q6 8 17 5q30 -10 56 -29z" />
<glyph unicode="&#xfc88;" horiz-adv-x="693" arabic-form="final" d="M79 725q20 35 25 -7q21 -186 24 -340q3 -156 6 -189q4 -78 95 -84q85 3 102 39q48 94 116 119q16 6 26 -7q36 -52 92 -98q56 -45 128 -53q32 -3 34 -40q0 -50 -10 -64q-11 -16 -24 -16q-65 0 -129 39q-5 -35 -8 -39q-15 -21 -35 -21q-111 9 -189 95q-48 -68 -98 -74h-5 q-141 0 -150 136q-3 37 -8 211q-5 138 -34 289q-5 26 5 41zM448 176q-2 3 -7 2q-30 -7 -43 -25q-5 -7 1 -11q38 -32 86 -46q7 -2 8.5 -0.5t-2.5 6.5q-19 24 -43 74z" />
<glyph unicode="&#xfc89;" horiz-adv-x="986" arabic-form="final" d="M272 213q87 -102 250 -108q86 3 102 39q48 94 116 119q16 6 26 -7q36 -52 92 -98q56 -45 128 -53q32 -3 34 -40q0 -50 -10 -64q-11 -16 -24 -16q-64 0 -129 39q-5 -35 -8 -39q-15 -21 -35 -21q-111 9 -189 95q-50 -68 -99 -74h-4q-84 -1 -158 33q0 -95 -44 -130 q-20 -15 -39 1q-58 52 -72 152q-54 -7 -97 -52q-5 -22 10 -119q54 -361 41 -420q-9 -38 -30 -38q-20 0 -22 45q-1 62 -37 281q-35 214 2 305q37 92 147 142q21 61 49 28zM741 176q-2 3 -7 2q-30 -7 -43 -25q-5 -7 1 -11q38 -32 86 -46q7 -2 8.5 -0.5t-2.5 6.5q-19 24 -43 74 z" />
<glyph unicode="&#xfc8a;" horiz-adv-x="550" arabic-form="final" d="M-80 -153q-15 11 -11 24t25 8q97 -20 161 5q131 50 185 149q-1 18 -52 89q-7 8 -4 19l28 102q17 60 52 -15q0 -2 2 -5t2 -4q6 -4 8 -5q57 -4 80 14t42 76q7 22 23 19t19 -23q1 -6 2.5 -17.5t3.5 -31.5t4 -36q8 -64 22 -84q15 -21 44 -27q28 -6 34 -31q2 -9 -4 -38 q-12 -50 -35 -50q-112 0 -112 191q-35 -70 -105 -76q2 -44 -9 -89q-15 -69 -76 -143t-124 -82q-103 -12 -205 61zM407 551q6 8 17 5q43 -16 73 -43q8 -8 3 -18l-48 -76q-7 -10 -18 -2q-10 7 -72 45q-11 7 -4 17z" />
<glyph unicode="&#xfc8b;" horiz-adv-x="550" arabic-form="final" d="M-80 -153q-15 11 -11 24t25 8q97 -20 161 5q131 50 185 149q-1 18 -52 89q-7 8 -4 19l28 102q17 60 52 -15q0 -2 2 -5t2 -4q6 -4 8 -5q57 -4 80 14t42 76q7 22 23 19t19 -23q1 -6 2.5 -17.5t3.5 -31.5t4 -36q8 -64 22 -84q15 -21 44 -27q28 -6 34 -31q2 -9 -4 -38 q-12 -50 -35 -50q-112 0 -112 191q-35 -70 -105 -76q2 -44 -9 -89q-15 -69 -76 -143t-124 -82q-103 -12 -205 61zM151 521q6 8 17 5q43 -16 73 -43q8 -8 3 -18l-48 -76q-7 -10 -18 -2q-10 7 -72 45q-11 7 -4 17zM407 551q6 8 17 5q43 -16 73 -43q8 -8 3 -18l-48 -76 q-7 -10 -18 -2q-10 7 -72 45q-11 7 -4 17z" />
<glyph unicode="&#xfc8c;" horiz-adv-x="561" arabic-form="final" d="M174 -25q-22 10 -13 37q21 59 28 67q1 1 3 4q18 20 49 40q127 81 197 80q41 0 93 -70q19 -25 32 -28q47 -9 47 -45q0 -27 -13 -50q-14 -25 -36 -25q-58 0 -102 72q-27 44 -96 35q-33 -4 -66 -17q64 -25 123 -68q25 -19 14 -52q-4 -11 -8.5 -24.5t-6.5 -19t-2 -7.5 q-12 -28 -35 -27q-101 12 -184 -8q-55 -14 -70 -30q4 -36 24 -156q25 -146 26 -166q4 -64 -15 -142q-6 -21 -22 -18q-15 3 -12 49q3 45 -45 285q-15 81 4 149q19 67 41 94q21 25 45 41zM380 453q6 8 17 5q43 -16 73 -43q8 -8 3 -18l-48 -76q-7 -10 -18 -2q-11 7 -72 45 q-11 7 -4 17z" />
<glyph unicode="&#xfc8d;" horiz-adv-x="761" arabic-form="final" d="M759 -15q-52 8 -72 45q-21 39 -37 138q-32 -39 -78 -48q3 -52 -6 -93t-16 -58q-28 -75 -96 -129q-71 -56 -188 -56q-177 0 -210 116t63 277q10 16 22 9q13 -8 2 -28q-69 -128 -42 -180q37 -73 169 -71q81 1 158 39q75 37 92 69q12 45 -42 156q-5 10 -1 23l17 63 q9 30 26 16q18 -15 29 -41h5q65 -12 99 64q10 21 31 20q20 -1 23 -28q12 -123 26 -154q12 -26 31 -29q40 -6 32 -65q-6 -43 -21 -52q-10 -4 -16 -3zM289 480q6 8 17 5q43 -16 73 -43q8 -8 3 -18l-48 -76q-7 -10 -18 -2q-10 8 -72 45q-11 7 -4 17zM604 494q6 8 17 5 q43 -16 73 -43q8 -8 3 -18l-48 -76q-7 -10 -18 -2t-72 45q-11 7 -4 17z" />
<glyph unicode="&#xfc8e;" horiz-adv-x="729" arabic-form="final" d="M432 -109q-32 12 -42 33q-3 6 -5 18v4q-3 39 37 106q40 66 92 108q55 44 88 44q36 0 67 -52q24 -41 58 -47q50 -9 40 -51q-3 -12 -6 -23t-4 -15l-1 -5q-11 -27 -27 -26q-70 4 -114 67q-25 36 -46 37t-66 -24q-44 -24 -50 -38q-4 -17 24 -32q29 -15 101 -26q68 -10 97 -20 q26 -9 38 -37q12 -29 8 -58q-5 -30 -18 -51q-26 -37 -127 -87q-99 -49 -226 -63q-228 -25 -284 133q-18 51 -3 137q15 87 77 186q10 18 27 9q16 -9 -3 -40q-66 -107 -49 -175q33 -141 219 -129q145 9 308 86q-23 5 -86 9q-77 6 -124 22zM498 453q6 8 17 5q43 -16 73 -43 q8 -8 3 -18l-48 -76q-7 -10 -18 -2q-11 7 -72 45q-11 7 -4 17z" />
<glyph unicode="&#xfc8f;" horiz-adv-x="729" arabic-form="final" d="M432 -109q-32 12 -42 33q-3 6 -5 18v4q-3 39 37 106q40 66 92 108q55 44 88 44q36 0 67 -52q24 -41 58 -47q50 -9 40 -51q-3 -12 -6 -23t-4 -15l-1 -5q-11 -27 -27 -26q-70 4 -114 67q-25 36 -46 37t-66 -24q-44 -24 -50 -38q-4 -17 24 -32q29 -15 101 -26q68 -10 97 -20 q26 -9 38 -37q12 -29 8 -58q-5 -30 -18 -51q-26 -37 -127 -87q-99 -49 -226 -63q-228 -25 -284 133q-18 51 -3 137q15 87 77 186q10 18 27 9q16 -9 -3 -40q-66 -107 -49 -175q33 -141 219 -129q145 9 308 86q-23 5 -86 9q-77 6 -124 22zM397 -422q6 8 17 5q45 -17 74 -43 q8 -8 3 -18l-48 -76q-8 -11 -18 -2q-5 4 -53 34l-33 -54q-7 -10 -18 -2q-5 3 -73 45q-11 6 -3 17l48 72q6 8 17 5q30 -10 56 -29zM498 453q6 8 17 5q43 -16 73 -43q8 -8 3 -18l-48 -76q-7 -10 -18 -2q-11 7 -72 45q-11 7 -4 17z" />
<glyph unicode="&#xfc90;" horiz-adv-x="585" arabic-form="final" d="M60 -125q11 98 68 199q11 19 25 10q13 -9 2 -29q-73 -135 -37 -203q51 -99 195 -93q164 8 286 107q-24 8 -87 12q-66 5 -74 8q-25 10 -34 33q-15 42 13 83q47 70 165 102q19 5 33 -5q14 -9 9 -52q-4 -41 -16 -51t-50 -10q-40 0 -43 -7q142 -7 160 -71q6 -24 -11 -63 q-18 -41 -33 -57q-144 -145 -323 -153q-134 -6 -204 64q-57 57 -44 176zM211 363q10 27 31 2q96 -107 66 -274q-3 -15 -13 -16q-19 -3 -21 16q-14 103 -76 179q-11 14 -6 29z" />
<glyph unicode="&#xfc91;" horiz-adv-x="550" arabic-form="final" d="M-80 -153q-15 11 -11 24t25 8q97 -20 161 5q131 50 185 149q-1 18 -52 89q-7 8 -4 19l28 102q17 60 52 -15q0 -2 2 -5t2 -4q6 -4 8 -5q57 -4 80 14t42 76q7 22 23 19t19 -23q1 -6 2.5 -17.5t3.5 -31.5t4 -36q8 -64 22 -84q15 -21 44 -27q28 -6 34 -31q2 -9 -4 -38 q-12 -50 -35 -50q-112 0 -112 191q-35 -70 -105 -76q2 -44 -9 -89q-15 -69 -76 -143t-124 -82q-103 -12 -205 61zM453 -75q6 8 17 5q45 -17 74 -43q8 -8 3 -18l-48 -76q-8 -11 -18 -2q-5 4 -53 34l-33 -54q-7 -10 -18 -2q-5 3 -73 45q-11 6 -3 17l48 72q6 8 17 5 q30 -10 56 -29z" />
<glyph unicode="&#xfc92;" horiz-adv-x="550" arabic-form="final" d="M-80 -153q-15 11 -11 24t25 8q97 -20 161 5q131 50 185 149q-1 18 -52 89q-7 8 -4 19l28 102q17 60 52 -15q0 -2 2 -5t2 -4q6 -4 8 -5q57 -4 80 14t42 76q7 22 23 19t19 -23q1 -6 2.5 -17.5t3.5 -31.5t4 -36q8 -64 22 -84q15 -21 44 -27q28 -6 34 -31q2 -9 -4 -38 q-12 -50 -35 -50q-112 0 -112 191q-35 -70 -105 -76q2 -44 -9 -89q-15 -69 -76 -143t-124 -82q-103 -12 -205 61zM453 -75q6 8 17 5q45 -17 74 -43q8 -8 3 -18l-48 -76q-8 -11 -18 -2q-5 4 -53 34l-33 -54q-7 -10 -18 -2q-5 3 -73 45q-11 6 -3 17l48 72q6 8 17 5 q30 -10 56 -29zM151 521q6 8 17 5q43 -16 73 -43q8 -8 3 -18l-48 -76q-7 -10 -18 -2q-10 7 -72 45q-11 7 -4 17z" />
<glyph unicode="&#xfc93;" horiz-adv-x="561" arabic-form="final" d="M174 -25q-22 10 -13 37q21 59 28 67q1 1 3 4q18 20 49 40q127 81 197 80q41 0 93 -70q19 -25 32 -28q47 -9 47 -45q0 -27 -13 -50q-14 -25 -36 -25q-58 0 -102 72q-27 44 -96 35q-33 -4 -66 -17q64 -25 123 -68q25 -19 14 -52q-4 -11 -8.5 -24.5t-6.5 -19t-2 -7.5 q-12 -28 -35 -27q-101 12 -184 -8q-55 -14 -70 -30q4 -36 24 -156q25 -146 26 -166q4 -64 -15 -142q-6 -21 -22 -18q-15 3 -12 49q3 45 -45 285q-15 81 4 149q19 67 41 94q21 25 45 41zM458 -222q6 8 17 5q45 -17 74 -43q8 -8 3 -18l-48 -76q-8 -11 -18 -2q-5 4 -53 34 l-33 -54q-7 -10 -18 -2q-5 3 -73 45q-11 6 -3 17l48 72q6 8 17 5q30 -10 56 -29z" />
<glyph unicode="&#xfc94;" horiz-adv-x="761" arabic-form="final" d="M759 -15q-52 8 -72 45q-21 39 -37 138q-32 -39 -78 -48q3 -52 -6 -93t-16 -58q-28 -75 -96 -129q-71 -56 -188 -56q-177 0 -210 116t63 277q10 16 22 9q13 -8 2 -28q-69 -128 -42 -180q37 -73 169 -71q81 1 158 39q75 37 92 69q12 45 -42 156q-5 10 -1 23l17 63 q9 30 26 16q18 -15 29 -41h5q65 -12 99 64q10 21 31 20q20 -1 23 -28q12 -123 26 -154q12 -26 31 -29q40 -6 32 -65q-6 -43 -21 -52q-10 -4 -16 -3zM650 -75q6 8 17 5q45 -17 74 -43q8 -8 3 -18l-48 -76q-8 -11 -18 -2q-5 4 -53 34l-33 -54q-7 -10 -18 -2q-5 3 -73 45 q-11 6 -3 17l48 72q6 8 17 5q30 -10 56 -29zM289 480q6 8 17 5q43 -16 73 -43q8 -8 3 -18l-48 -76q-7 -10 -18 -2q-10 8 -72 45q-11 7 -4 17z" />
<glyph unicode="&#xfc95;" horiz-adv-x="729" arabic-form="final" d="M432 -109q-32 12 -42 33q-3 6 -5 18v4q-3 39 37 106q40 66 92 108q55 44 88 44q36 0 67 -52q24 -41 58 -47q50 -9 40 -51q-3 -12 -6 -23t-4 -15l-1 -5q-11 -27 -27 -26q-70 4 -114 67q-25 36 -46 37t-66 -24q-44 -24 -50 -38q-4 -17 24 -32q29 -15 101 -26q68 -10 97 -20 q26 -9 38 -37q12 -29 8 -58q-5 -30 -18 -51q-26 -37 -127 -87q-99 -49 -226 -63q-228 -25 -284 133q-18 51 -3 137q15 87 77 186q10 18 27 9q16 -9 -3 -40q-66 -107 -49 -175q33 -141 219 -129q145 9 308 86q-23 5 -86 9q-77 6 -124 22zM701 -329q6 8 17 5q45 -17 74 -43 q8 -8 3 -18l-48 -76q-8 -11 -18 -2q-5 4 -53 34l-33 -54q-7 -10 -18 -2q-5 3 -73 45q-11 6 -3 17l48 72q6 8 17 5q30 -10 56 -29z" />
<glyph unicode="&#xfc96;" horiz-adv-x="729" arabic-form="final" d="M432 -109q-32 12 -42 33q-3 6 -5 18v4q-3 39 37 106q40 66 92 108q55 44 88 44q36 0 67 -52q24 -41 58 -47q50 -9 40 -51q-3 -12 -6 -23t-4 -15l-1 -5q-11 -27 -27 -26q-70 4 -114 67q-25 36 -46 37t-66 -24q-44 -24 -50 -38q-4 -17 24 -32q29 -15 101 -26q68 -10 97 -20 q26 -9 38 -37q12 -29 8 -58q-5 -30 -18 -51q-26 -37 -127 -87q-99 -49 -226 -63q-228 -25 -284 133q-18 51 -3 137q15 87 77 186q10 18 27 9q16 -9 -3 -40q-66 -107 -49 -175q33 -141 219 -129q145 9 308 86q-23 5 -86 9q-77 6 -124 22zM397 -422q6 8 17 5q45 -17 74 -43 q8 -8 3 -18l-48 -76q-8 -11 -18 -2q-5 4 -53 34l-33 -54q-7 -10 -18 -2q-5 3 -73 45q-11 6 -3 17l48 72q6 8 17 5q30 -10 56 -29zM701 -329q6 8 17 5q45 -17 74 -43q8 -8 3 -18l-48 -76q-8 -11 -18 -2q-5 4 -53 34l-33 -54q-7 -10 -18 -2q-5 3 -73 45q-11 6 -3 17l48 72 q6 8 17 5q30 -10 56 -29z" />
<glyph unicode="&#xfc97;" horiz-adv-x="643" arabic-form="initial" d="M-8 201q27 67 65 77v2l12 4q97 35 193 92q70 44 99 116q30 72 66 74q41 2 56 -77q11 -59 13 -129q0 -25 -17 -27q-8 -1 -13.5 5t-7.5 18q-9 58 -25 75q-17 19 -34 -3q-102 -136 -181 -185q69 -21 154 -33q109 -16 204 -7q25 2 32.5 -4.5t-0.5 -22.5l-40 -76 q-6 -10 -27 -9q-179 9 -294 -26q-18 -5 -109 -41q-99 -39 -138 -39q-25 0 -35 51q-10 50 19 65q7 4 58 7q52 3 197 40q-90 31 -225 25q-16 -1 -21.5 6.5t-0.5 21.5zM477 693q-53 -10 -76 -18t-83 -34q-18 -8 -28 7q-14 23 30 53q-29 18 -34 41q-8 44 36 104q44 61 95 56 q37 -3 34 -39q-3 -34 -15 -51t-15 -19q-14 -10 -25 5q-11 16 -26 17q-16 1 -24 -8q-7 -9 0 -16q31 -29 93 -31q11 0 30 4q23 5 30 5q10 0 17 -10q5 -9 2 -18q-21 -43 -41 -48zM212 -64q6 8 17 5q43 -16 73 -43q8 -8 3 -18l-48 -76q-7 -10 -18 -2t-72 45q-11 7 -4 17z" />
<glyph unicode="&#xfc98;" horiz-adv-x="643" arabic-form="initial" d="M-8 201q27 67 65 77v2l12 4q97 35 193 92q70 44 99 116q30 72 66 74q41 2 56 -77q11 -59 13 -129q0 -25 -17 -27q-8 -1 -13.5 5t-7.5 18q-9 58 -25 75q-17 19 -34 -3q-102 -136 -181 -185q69 -21 154 -33q109 -16 204 -7q25 2 32.5 -4.5t-0.5 -22.5l-40 -76 q-6 -10 -27 -9q-179 9 -294 -26q-18 -5 -109 -41q-99 -39 -138 -39q-25 0 -35 51q-10 50 19 65q7 4 58 7q52 3 197 40q-90 31 -225 25q-16 -1 -21.5 6.5t-0.5 21.5zM477 693q-53 -10 -76 -18t-83 -34q-18 -8 -28 7q-14 23 30 53q-29 18 -34 41q-8 44 36 104q44 61 95 56 q37 -3 34 -39q-3 -34 -15 -51t-15 -19q-14 -10 -25 5q-11 16 -26 17q-16 1 -24 -8q-7 -9 0 -16q31 -29 93 -31q11 0 30 4q23 5 30 5q10 0 17 -10q5 -9 2 -18q-21 -43 -41 -48z" />
<glyph unicode="&#xfc99;" horiz-adv-x="643" arabic-form="initial" d="M-8 201q27 67 65 77v2l12 4q97 35 193 92q70 44 99 116q30 72 66 74q41 2 56 -77q11 -59 13 -129q0 -25 -17 -27q-8 -1 -13.5 5t-7.5 18q-9 58 -25 75q-17 19 -34 -3q-102 -136 -181 -185q69 -21 154 -33q109 -16 204 -7q25 2 32.5 -4.5t-0.5 -22.5l-40 -76 q-6 -10 -27 -9q-179 9 -294 -26q-18 -5 -109 -41q-99 -39 -138 -39q-25 0 -35 51q-10 50 19 65q7 4 58 7q52 3 197 40q-90 31 -225 25q-16 -1 -21.5 6.5t-0.5 21.5zM477 693q-53 -10 -76 -18t-83 -34q-18 -8 -28 7q-14 23 30 53q-29 18 -34 41q-8 44 36 104q44 61 95 56 q37 -3 34 -39q-3 -34 -15 -51t-15 -19q-14 -10 -25 5q-11 16 -26 17q-16 1 -24 -8q-7 -9 0 -16q31 -29 93 -31q11 0 30 4q23 5 30 5q10 0 17 -10q5 -9 2 -18q-21 -43 -41 -48zM66 551q6 8 17 5q43 -16 73 -43q8 -8 3 -18l-48 -76q-7 -10 -18 -2q-11 7 -72 45q-11 7 -4 17z " />
<glyph unicode="&#xfc9a;" horiz-adv-x="438" arabic-form="initial" d="M218 359q-59 -33 -67 -62t1 -61q3 -9 1 -19q1 -2 2.5 -4.5t2.5 -3.5q23 -35 46 -48q12 -6 41 -14q35 -10 58 -21q24 -12 24 -38q-3 -76 -14 -96q-10 -19 -33 -7q-90 49 -115 49q-27 0 -79 -24q-55 -25 -86 -25q-23 0 -32 30q-10 31 -4 58q6 29 35 32q72 6 107 24 q-16 35 -19 71q-5 11 -7 33q-2 37 13 78q57 161 170 179q57 9 103 -37q18 -20 14 -38q-21 -75 -45 -84q-9 -3 -21 7q-52 45 -96 21zM313 600q-53 -10 -76 -18t-83 -34q-18 -8 -28 7q-14 23 30 53q-29 18 -34 41q-8 44 36 104q44 61 95 56q37 -3 34 -39q-3 -34 -15 -51 t-15 -19q-14 -10 -25 5q-11 16 -26 17q-16 1 -24 -8q-7 -9 0 -16q31 -29 93 -31q11 0 30 4q23 5 30 5q10 0 17 -10q5 -9 2 -18q-21 -43 -41 -48z" />
<glyph unicode="&#xfc9b;" horiz-adv-x="531" arabic-form="initial" d="M398 56q-18 38 -60 33q-59 -6 -103 -31q-45 -26 -74 -81q-30 -74 6 -186q5 -17 -1 -26l-41 -58q-14 -18 -29 0q-83 98 -44 291q-66 -32 -79 13q-8 28 -10 55q-1 24 20 35q6 2 16 4q74 5 143 106q17 26 34 15t-1 -43q-37 -65 -60 -122q-22 -55 -24 -130q26 61 51 97 q55 96 132 140q92 53 165 23q43 -16 45 -59t-35 -78q-26 -24 -44 -6q-5 5 -7 8zM448 449q-53 -10 -76 -18t-83 -34q-18 -8 -28 7q-14 23 30 53q-29 18 -34 41q-8 44 36 104q44 61 95 56q37 -3 34 -39q-3 -34 -15 -51t-15 -19q-14 -10 -25 5q-11 16 -26 17q-16 1 -24 -8 q-7 -9 0 -16q31 -29 93 -31q11 0 30 4q23 5 30 5q10 0 17 -10q5 -9 2 -18q-21 -43 -41 -48z" />
<glyph unicode="&#xfc9c;" horiz-adv-x="643" arabic-form="initial" d="M-8 201q27 67 65 77v2l12 4q97 35 193 92q70 44 99 116q30 72 66 74q41 2 56 -77q11 -59 13 -129q0 -25 -17 -27q-8 -1 -13.5 5t-7.5 18q-9 58 -25 75q-17 19 -34 -3q-102 -136 -181 -185q69 -21 154 -33q109 -16 204 -7q25 2 32.5 -4.5t-0.5 -22.5l-40 -76 q-6 -10 -27 -9q-179 9 -294 -26q-18 -5 -109 -41q-99 -39 -138 -39q-25 0 -35 51q-10 50 19 65q7 4 58 7q52 3 197 40q-90 31 -225 25q-16 -1 -21.5 6.5t-0.5 21.5zM492 -133q6 8 17 5q43 -16 73 -43q8 -8 3 -18l-48 -76q-7 -10 -18 -2q-11 7 -72 45q-11 7 -4 17zM212 -64 q6 8 17 5q43 -16 73 -43q8 -8 3 -18l-48 -76q-7 -10 -18 -2t-72 45q-11 7 -4 17z" />
<glyph unicode="&#xfc9d;" horiz-adv-x="643" arabic-form="initial" d="M-8 201q27 67 65 77v2l12 4q97 35 193 92q70 44 99 116q30 72 66 74q41 2 56 -77q11 -59 13 -129q0 -25 -17 -27q-8 -1 -13.5 5t-7.5 18q-9 58 -25 75q-17 19 -34 -3q-102 -136 -181 -185q69 -21 154 -33q109 -16 204 -7q25 2 32.5 -4.5t-0.5 -22.5l-40 -76 q-6 -10 -27 -9q-179 9 -294 -26q-18 -5 -109 -41q-99 -39 -138 -39q-25 0 -35 51q-10 50 19 65q7 4 58 7q52 3 197 40q-90 31 -225 25q-16 -1 -21.5 6.5t-0.5 21.5zM492 -133q6 8 17 5q43 -16 73 -43q8 -8 3 -18l-48 -76q-7 -10 -18 -2q-11 7 -72 45q-11 7 -4 17z" />
<glyph unicode="&#xfc9e;" horiz-adv-x="643" arabic-form="initial" d="M-8 201q27 67 65 77v2l12 4q97 35 193 92q70 44 99 116q30 72 66 74q41 2 56 -77q11 -59 13 -129q0 -25 -17 -27q-8 -1 -13.5 5t-7.5 18q-9 58 -25 75q-17 19 -34 -3q-102 -136 -181 -185q69 -21 154 -33q109 -16 204 -7q25 2 32.5 -4.5t-0.5 -22.5l-40 -76 q-6 -10 -27 -9q-179 9 -294 -26q-18 -5 -109 -41q-99 -39 -138 -39q-25 0 -35 51q-10 50 19 65q7 4 58 7q52 3 197 40q-90 31 -225 25q-16 -1 -21.5 6.5t-0.5 21.5zM492 -133q6 8 17 5q43 -16 73 -43q8 -8 3 -18l-48 -76q-7 -10 -18 -2q-11 7 -72 45q-11 7 -4 17zM66 551 q6 8 17 5q43 -16 73 -43q8 -8 3 -18l-48 -76q-7 -10 -18 -2q-11 7 -72 45q-11 7 -4 17z" />
<glyph unicode="&#xfc9f;" horiz-adv-x="438" arabic-form="initial" d="M218 359q-59 -33 -67 -62t1 -61q3 -9 1 -19q1 -2 2.5 -4.5t2.5 -3.5q23 -35 46 -48q12 -6 41 -14q35 -10 58 -21q24 -12 24 -38q-3 -76 -14 -96q-10 -19 -33 -7q-90 49 -115 49q-27 0 -79 -24q-55 -25 -86 -25q-23 0 -32 30q-10 31 -4 58q6 29 35 32q72 6 107 24 q-16 35 -19 71q-5 11 -7 33q-2 37 13 78q57 161 170 179q57 9 103 -37q18 -20 14 -38q-21 -75 -45 -84q-9 -3 -21 7q-52 45 -96 21zM295 -108q6 8 17 5q43 -16 73 -43q8 -8 3 -18l-48 -76q-7 -10 -18 -2q-10 8 -72 45q-11 7 -4 17z" />
<glyph unicode="&#xfca0;" horiz-adv-x="531" arabic-form="initial" d="M398 56q-18 38 -60 33q-59 -6 -103 -31q-45 -26 -74 -81q-30 -74 6 -186q5 -17 -1 -26l-41 -58q-14 -18 -29 0q-83 98 -44 291q-66 -32 -79 13q-8 28 -10 55q-1 24 20 35q6 2 16 4q74 5 143 106q17 26 34 15t-1 -43q-37 -65 -60 -122q-22 -55 -24 -130q26 61 51 97 q55 96 132 140q92 53 165 23q43 -16 45 -59t-35 -78q-26 -24 -44 -6q-5 5 -7 8zM375 -133q6 8 17 5q43 -16 73 -43q8 -8 3 -18l-48 -76q-7 -10 -18 -2q-10 7 -72 45q-11 7 -4 17z" />
<glyph unicode="&#xfca1;" horiz-adv-x="643" arabic-form="initial" d="M-8 201q27 67 65 77v2l12 4q97 35 193 92q70 44 99 116q30 72 66 74q41 2 56 -77q11 -59 13 -129q0 -25 -17 -27q-8 -1 -13.5 5t-7.5 18q-9 58 -25 75q-17 19 -34 -3q-102 -136 -181 -185q69 -21 154 -33q109 -16 204 -7q25 2 32.5 -4.5t-0.5 -22.5l-40 -76 q-6 -10 -27 -9q-179 9 -294 -26q-18 -5 -109 -41q-99 -39 -138 -39q-25 0 -35 51q-10 50 19 65q7 4 58 7q52 3 197 40q-90 31 -225 25q-16 -1 -21.5 6.5t-0.5 21.5zM429 768q6 8 17 5q45 -17 74 -43q8 -8 3 -18l-48 -76q-8 -11 -18 -2q-5 4 -53 34l-33 -54q-7 -10 -18 -2 q-5 3 -73 45q-11 6 -3 17l48 72q6 8 17 5q30 -10 56 -29zM212 -64q6 8 17 5q43 -16 73 -43q8 -8 3 -18l-48 -76q-7 -10 -18 -2t-72 45q-11 7 -4 17z" />
<glyph unicode="&#xfca2;" horiz-adv-x="643" arabic-form="initial" d="M-8 201q27 67 65 77v2l12 4q97 35 193 92q70 44 99 116q30 72 66 74q41 2 56 -77q11 -59 13 -129q0 -25 -17 -27q-8 -1 -13.5 5t-7.5 18q-9 58 -25 75q-17 19 -34 -3q-102 -136 -181 -185q69 -21 154 -33q109 -16 204 -7q25 2 32.5 -4.5t-0.5 -22.5l-40 -76 q-6 -10 -27 -9q-179 9 -294 -26q-18 -5 -109 -41q-99 -39 -138 -39q-25 0 -35 51q-10 50 19 65q7 4 58 7q52 3 197 40q-90 31 -225 25q-16 -1 -21.5 6.5t-0.5 21.5zM429 768q6 8 17 5q45 -17 74 -43q8 -8 3 -18l-48 -76q-8 -11 -18 -2q-5 4 -53 34l-33 -54q-7 -10 -18 -2 q-5 3 -73 45q-11 6 -3 17l48 72q6 8 17 5q30 -10 56 -29z" />
<glyph unicode="&#xfca3;" horiz-adv-x="643" arabic-form="initial" d="M-8 201q27 67 65 77v2l12 4q97 35 193 92q70 44 99 116q30 72 66 74q41 2 56 -77q11 -59 13 -129q0 -25 -17 -27q-8 -1 -13.5 5t-7.5 18q-9 58 -25 75q-17 19 -34 -3q-102 -136 -181 -185q69 -21 154 -33q109 -16 204 -7q25 2 32.5 -4.5t-0.5 -22.5l-40 -76 q-6 -10 -27 -9q-179 9 -294 -26q-18 -5 -109 -41q-99 -39 -138 -39q-25 0 -35 51q-10 50 19 65q7 4 58 7q52 3 197 40q-90 31 -225 25q-16 -1 -21.5 6.5t-0.5 21.5zM429 768q6 8 17 5q45 -17 74 -43q8 -8 3 -18l-48 -76q-8 -11 -18 -2q-5 4 -53 34l-33 -54q-7 -10 -18 -2 q-5 3 -73 45q-11 6 -3 17l48 72q6 8 17 5q30 -10 56 -29zM66 551q6 8 17 5q43 -16 73 -43q8 -8 3 -18l-48 -76q-7 -10 -18 -2q-11 7 -72 45q-11 7 -4 17z" />
<glyph unicode="&#xfca4;" horiz-adv-x="438" arabic-form="initial" d="M218 359q-59 -33 -67 -62t1 -61q3 -9 1 -19q1 -2 2.5 -4.5t2.5 -3.5q23 -35 46 -48q12 -6 41 -14q35 -10 58 -21q24 -12 24 -38q-3 -76 -14 -96q-10 -19 -33 -7q-90 49 -115 49q-27 0 -79 -24q-55 -25 -86 -25q-23 0 -32 30q-10 31 -4 58q6 29 35 32q72 6 107 24 q-16 35 -19 71q-5 11 -7 33q-2 37 13 78q57 161 170 179q57 9 103 -37q18 -20 14 -38q-21 -75 -45 -84q-9 -3 -21 7q-52 45 -96 21zM265 675q6 8 17 5q45 -17 74 -43q8 -8 3 -18l-48 -76q-8 -11 -18 -2q-5 4 -53 34l-33 -54q-7 -10 -18 -2q-5 3 -73 45q-11 6 -3 17l48 72 q6 8 17 5q30 -10 56 -29z" />
<glyph unicode="&#xfca5;" horiz-adv-x="531" arabic-form="initial" d="M398 56q-18 38 -60 33q-59 -6 -103 -31q-45 -26 -74 -81q-30 -74 6 -186q5 -17 -1 -26l-41 -58q-14 -18 -29 0q-83 98 -44 291q-66 -32 -79 13q-8 28 -10 55q-1 24 20 35q6 2 16 4q74 5 143 106q17 26 34 15t-1 -43q-37 -65 -60 -122q-22 -55 -24 -130q26 61 51 97 q55 96 132 140q92 53 165 23q43 -16 45 -59t-35 -78q-26 -24 -44 -6q-5 5 -7 8zM401 524q6 8 17 5q45 -17 74 -43q8 -8 3 -18l-48 -76q-8 -11 -18 -2q-5 4 -53 34l-33 -54q-7 -10 -18 -2q-5 3 -73 45q-11 6 -3 17l48 72q6 8 17 5q30 -10 56 -29z" />
<glyph unicode="&#xfca6;" horiz-adv-x="438" arabic-form="initial" d="M218 359q-59 -33 -67 -62t1 -61q3 -9 1 -19q1 -2 2.5 -4.5t2.5 -3.5q23 -35 46 -48q12 -6 41 -14q35 -10 58 -21q24 -12 24 -38q-3 -76 -14 -96q-10 -19 -33 -7q-90 49 -115 49q-27 0 -79 -24q-55 -25 -86 -25q-23 0 -32 30q-10 31 -4 58q6 29 35 32q72 6 107 24 q-16 35 -19 71q-5 11 -7 33q-2 37 13 78q57 161 170 179q57 9 103 -37q18 -20 14 -38q-21 -75 -45 -84q-9 -3 -21 7q-52 45 -96 21zM261 675q6 9 18 5q43 -16 73 -43q8 -8 3 -18l-48 -76q-8 -11 -17 -3q-6 5 -46 30l-31 -49q-7 -11 -18 -3q-14 10 -73 46q-10 6 -3 16l48 72 q12 17 66 -19zM191 787q6 8 17 5q43 -16 73 -43q8 -8 3 -18l-48 -76q-7 -10 -18 -2q-10 7 -72 45q-11 6 -4 16z" />
</font>
</defs>
</svg>
