<?xml version="1.0" standalone="no"?>
<!DOCTYPE svg PUBLIC "-//W3C//DTD SVG 1.1//EN" "http://www.w3.org/Graphics/SVG/1.1/DTD/svg11.dtd" >
<svg xmlns="http://www.w3.org/2000/svg" xmlns:xlink="http://www.w3.org/1999/xlink" version="1.1">
<metadata></metadata>
<defs>
<font id="amiri_quran_coloredregular" horiz-adv-x="1089" >
<font-face units-per-em="2048" ascent="1638" descent="-410" />
<missing-glyph horiz-adv-x="598" />
<glyph horiz-adv-x="0" />
<glyph horiz-adv-x="682" />
<glyph unicode="&#xd;" horiz-adv-x="681" />
<glyph unicode=" "  horiz-adv-x="598" />
<glyph unicode="&#x09;" horiz-adv-x="598" />
<glyph unicode="&#xa0;" horiz-adv-x="598" />
<glyph unicode="!" horiz-adv-x="550" d="M147 111q0 76 37 106q39 31 90 31t90 -31q37 -30 37 -106q0 -74 -37 -107q-38 -33 -90 -33t-90 33q-37 33 -37 107zM166 1462h219l-51 -1050h-117z" />
<glyph unicode="(" horiz-adv-x="937" d="M299 340q1 536 303 911q106 129 217 217l31 -43q-220 -179 -326 -553q-73 -258 -73 -532q0 -364 129 -694q103 -256 270 -402l-31 -35q-316 251 -446 652q-74 230 -74 479z" />
<glyph unicode=")" horiz-adv-x="937" d="M90 -756q165 145 268 402q129 330 129 694q0 276 -73 532q-107 377 -324 553l29 43q120 -95 219 -217q301 -371 301 -911q0 -249 -74 -479q-130 -401 -446 -652z" />
<glyph unicode="," horiz-adv-x="548" d="M84 -264q25 103 58 256q27 126 44 246h193l14 -23q-26 -106 -77 -239q-46 -120 -99 -240h-133z" />
<glyph unicode="-" horiz-adv-x="659" d="M82 469v160h496v-160h-496z" />
<glyph unicode="." horiz-adv-x="413" d="M96 90q0 66 64 96q26 13 49 13q69 0 96 -64q10 -21 10 -45q0 -69 -61 -102q-24 -11 -45 -11q-65 0 -98 62q-15 24 -15 51z" />
<glyph unicode="/" horiz-adv-x="704" d="M31 -367l508 1776l10 10q14 8 29 13q21 6 40 6q19 -2 25 -19l-498 -1755q-7 -14 -26 -29q-23 -16 -51 -16q-12 0 -23 4l-12 6z" />
<glyph unicode="0" d="M109 639q0 320 151 502q117 139 285 141q227 0 348 -235q88 -172 88 -408q0 -318 -150 -504q-119 -140 -286 -141q-215 0 -338 223q-98 177 -98 422zM285 639q0 -307 108 -475q63 -94 144 -96q149 0 221 227q47 153 47 354q0 314 -111 473q-63 85 -139 86 q-137 0 -215 -207q-55 -152 -55 -362z" />
<glyph unicode="1" d="M293 1110v2q1 8 4 10q2 1 55 26q10 5 28.5 12.5t26.5 11.5q34 16 51 25l48 24q5 3 20.5 9.5t23.5 10.5t22 10t16 7l28 14q17 8 19 10l8 2h4q15 -1 21 -33l-15 -114q-2 -52 -2 -78v-828q0 -112 11 -147q16 -27 129 -33q15 -18 4 -49q-1 -5 -4 -8q-197 10 -224 10 q-24 0 -213 -10q-14 14 -4 49q1 5 4 8q79 0 117 23q9 7 10 10q13 44 13 147v809q-2 74 -41 76q-33 0 -142 -41q-16 16 -18 35z" />
<glyph unicode="2" d="M135 29q327 363 477 583q93 137 97 275v24q0 139 -103 207q-56 35 -119 35q-156 0 -266 -143q-4 -6 -10.5 -16.5t-7.5 -12.5q-21 0 -37 27l-2 6q17 58 98 141q128 128 270 129q163 0 271 -129q76 -94 76 -205q-1 -161 -115 -303q-122 -150 -436 -502h397q91 0 147 109 q10 21 21 45q8 12 22 12q23 0 41 -12q-44 -105 -108 -299h-692q-16 10 -21 29z" />
<glyph unicode="3" d="M168 113q0 68 55 90q15 6 29 6q41 0 86 -57q16 -20 27 -31q53 -51 147 -51q122 0 188 112q48 82 48 199q0 147 -113 231q-68 50 -143 50q-16 0 -41 -5q-24 -5 -50 -12l-28 -8q-13 18 -13 39q0 4 1 8t2.5 7.5t1.5 4.5q277 63 307 250q4 20 4 45q0 114 -98 164 q-46 23 -99 23q-105 0 -211 -117q-8 -13 -12 -14q-19 8 -25 43q107 159 271 188q30 6 61 6q104 0 187 -82q75 -72 75 -174q0 -142 -163 -254q-9 -8 -23 -16q121 -16 207 -119q74 -89 74 -203q0 -215 -187 -346q-143 -100 -321 -100q-112 0 -203 47q-32 22 -39 61 q-2 10 -2 15z" />
<glyph unicode="4" d="M100 385l652 852q38 50 59 51q29 -2 31 -37v-788h119q18 0 24 -60q2 -16 2 -22q0 -25 -6 -33h-139v-350l-39 -8q-24 -2 -47 -2q-71 2 -72 16v344h-563q-19 13 -21 37zM236 463h448v586z" />
<glyph unicode="5" d="M168 113q0 68 55 90q15 6 29 6q41 0 86 -57q16 -20 27 -31q53 -51 147 -51q128 0 193 116q43 77 43 195q0 134 -101 223q-89 74 -219 74q-91 0 -160 -27q-5 -1 -8 -4q-14 1 -16 29l61 313q38 186 55 281h295q42 0 83 4q60 6 73 8l29 6q24 -18 24 -22q0 -35 -35 -105 q-11 -21 -24 -37q-113 -12 -234 -12h-168q-9 -42 -28 -147q-32 -164 -43 -213q96 38 213 39q200 0 309 -154q66 -95 66 -201q0 -215 -187 -346q-143 -100 -321 -100q-112 0 -203 47q-32 22 -39 61q-2 10 -2 15z" />
<glyph unicode="6" d="M145 440q1 323 193 531q158 174 414 282q61 25 122 41q22 -2 23 -57q-454 -147 -555 -537q115 84 236 91q234 0 325 -205q41 -90 41 -180q0 -187 -137 -312q-116 -106 -268 -106q-193 0 -310 176q-84 128 -84 276zM317 475q0 -194 84 -323q67 -98 154 -99q118 0 180 131 q39 83 39 185q0 219 -131 293q-53 30 -121 30q-124 -1 -196 -80q-9 -72 -9 -137z" />
<glyph unicode="7" d="M125 967q56 175 84 299h606q44 0 109 4q7 0 13.5 0.5t10 1t4.5 0.5q13 -5 13 -19q0 -13 -54 -123q-1 -2 -2.5 -5.5t-1.5 -4.5l-526 -1124q-7 -6 -21 -6q-51 0 -81 24l-7 13q100 152 234 412q139 268 237 479l97 202h-508q-81 0 -119 -84q-15 -37 -25 -69q-6 -13 -24 -13 q-20 0 -39 13z" />
<glyph unicode="8" d="M168 307q0 163 225 307q12 9 23 15q9 7 12 8q4 6 0 10q-119 69 -176 187q-29 64 -29 127q0 143 121 245q97 80 211 80q181 0 272 -121q58 -78 58 -174q0 -156 -197 -284q-7 -3 -29 -19q-7 -4 0 -12q162 -90 230 -221q33 -61 33 -121q0 -168 -144 -275q-105 -77 -237 -77 q-214 0 -316 139q-57 83 -57 186zM326 313q0 -154 110 -227q53 -33 109 -33q143 0 194 121q21 46 21 102q0 148 -215 289q-13 9 -41 25q-9 4 -12 4q-8 -2 -9 -2q-143 -89 -155 -242q-2 -24 -2 -37zM373 995q0 -145 172 -247q25 -16 35 -21q8 -2 12 -2h2q8 0 10 2 q134 90 135 246q0 125 -82 198q-52 46 -112 46q-93 0 -144 -101q-28 -55 -28 -121z" />
<glyph unicode="9" d="M147 877q0 185 138 311q116 106 268 106q193 0 307 -176q84 -128 84 -276q-2 -324 -192 -531q-158 -174 -414 -282q-59 -24 -123 -41q-20 1 -22 57q454 147 555 537q-114 -82 -236 -90q-235 0 -326 206q-39 88 -39 179zM317 913q0 -223 134 -297q49 -26 116 -26 q125 2 197 80q8 64 8 137q0 197 -84 326q-63 95 -151 96q-119 0 -181 -131q-39 -83 -39 -185z" />
<glyph unicode=":" horiz-adv-x="548" d="M147 111q0 76 37 106q39 31 88 31q53 0 92 -31q37 -30 37 -106q0 -74 -37 -107q-38 -33 -92 -33q-51 0 -88 33t-37 107zM147 987q0 79 37 109q38 30 88 30q54 0 92 -30q37 -30 37 -109q0 -73 -37 -106q-38 -33 -92 -33q-51 0 -88 33t-37 106z" />
<glyph unicode="[" horiz-adv-x="739" d="M299 -731v2140q1 26 20 41q7 4 19 4l305 12l6 -12v-6q-2 -24 -16 -31l-2 -2q-72 -22 -236 -45v-2064l135 -21q86 -19 101 -24q18 -12 18 -33q0 -8 -2 -10l-2 -6l-2 -3l-178 11q-60 2 -127 2q-33 6 -39 47z" />
<glyph unicode="\" horiz-adv-x="704" d="M61 1419q8 17 27 19q23 0 41 -6t29 -13q9 -7 10 -10l508 -1776l-4 -4q-6 -5 -10 -6q-11 -4 -23 -4q-29 2 -51 16q-22 18 -27 29z" />
<glyph unicode="]" horiz-adv-x="739" d="M90 -772q1 20 21 33q33 12 100 24l133 21v2064q-160 22 -233 45q-2 2 -5 2q-16 10 -16 31v6l6 12l305 -12q8 -1 21 -4q18 -15 18 -41v-2140q-7 -42 -39 -47q-67 0 -125 -2l-180 -11l-2 3l-2 6q-2 6 -2 10z" />
<glyph unicode="{" horiz-adv-x="813" d="M291 307v66q153 96 137 229q-7 54 -66 213q-57 157 -57 277q7 261 164 395q26 18 47 0q19 -25 2 -49q-137 -153 -129 -299q7 -78 64 -176q98 -167 71 -357q-29 -181 -151 -266q122 -91 151 -266q27 -195 -71 -357q-58 -98 -64 -178q-6 -145 131 -299q17 -25 -4 -47 q-24 -21 -47 -2q-159 137 -164 397q-2 128 57 277q59 159 66 213q15 134 -137 229z" />
<glyph unicode="|" horiz-adv-x="409" d="M154 -778l2 6v2206l2 12q3 3 8 4q41 14 74 14q14 -1 16 -12v-2208q-4 -17 -84 -32h-6q-10 2 -12 6v4z" />
<glyph unicode="}" horiz-adv-x="813" d="M291 74q29 176 151 266q-123 88 -151 266q-27 195 69 357q60 101 66 176q8 144 -131 299q-16 26 2 49q23 18 47 0q160 -137 166 -395q0 -118 -59 -277q-59 -162 -66 -213q-15 -134 139 -229v-66q-155 -96 -139 -229q11 -62 66 -213q61 -157 59 -277q-5 -261 -166 -397 q-25 -19 -47 2q-18 23 -2 47q139 155 131 299q-7 76 -66 178q-98 162 -69 357z" />
<glyph unicode="&#xab;" horiz-adv-x="962" d="M53 492q1 15 10 36q260 157 418 318q37 -12 45 -25q-15 -50 -213 -248q-46 -46 -84 -79q133 -120 252 -263q40 -50 45 -65q-8 -12 -41 -23q-2 -2 -4 -2q-174 172 -418 320q-10 16 -10 31zM414 492q1 15 10 36q260 157 418 318q37 -12 45 -25q-15 -50 -213 -248 q-46 -46 -84 -79q133 -120 252 -263q40 -50 45 -65q-8 -12 -41 -23q-2 -2 -4 -2q-174 172 -418 320q-10 16 -10 31z" />
<glyph unicode="&#xad;" horiz-adv-x="659" d="M82 469v160h496v-160h-496z" />
<glyph unicode="&#xbb;" horiz-adv-x="962" d="M82 166q15 50 213 248q53 53 84 80q-137 123 -252 262q-40 50 -45 65q8 12 41 23q2 2 4 2q169 -167 418 -318q10 -26 10 -36q0 -17 -10 -31q-254 -152 -418 -320q-37 12 -45 25zM442 166q15 51 209 246q55 55 86 82q-135 121 -248 260q-42 51 -47 67q7 12 39 23q2 2 4 2 q169 -167 418 -318q10 -26 10 -36q0 -17 -10 -31q-254 -152 -418 -320q-35 12 -43 25z" />
<glyph unicode="&#x2000;" horiz-adv-x="748" />
<glyph unicode="&#x2001;" horiz-adv-x="1496" />
<glyph unicode="&#x2002;" horiz-adv-x="748" />
<glyph unicode="&#x2003;" horiz-adv-x="1496" />
<glyph unicode="&#x2004;" horiz-adv-x="498" />
<glyph unicode="&#x2005;" horiz-adv-x="374" />
<glyph unicode="&#x2006;" horiz-adv-x="249" />
<glyph unicode="&#x2007;" horiz-adv-x="249" />
<glyph unicode="&#x2008;" horiz-adv-x="187" />
<glyph unicode="&#x2009;" horiz-adv-x="299" />
<glyph unicode="&#x200a;" horiz-adv-x="83" />
<glyph unicode="&#x2010;" horiz-adv-x="659" d="M82 469v160h496v-160h-496z" />
<glyph unicode="&#x2011;" horiz-adv-x="659" d="M82 469v160h496v-160h-496z" />
<glyph unicode="&#x2012;" horiz-adv-x="659" d="M82 469v160h496v-160h-496z" />
<glyph unicode="&#x2013;" horiz-adv-x="1187" d="M82 469v160h1024v-160h-1024z" />
<glyph unicode="&#x2014;" horiz-adv-x="2211" d="M82 469v160h2048v-160h-2048z" />
<glyph unicode="&#x202f;" horiz-adv-x="299" />
<glyph unicode="&#x205f;" horiz-adv-x="374" />
<glyph unicode="&#x25fc;" horiz-adv-x="1024" d="M0 0z" />
</font>
</defs>
</svg>
