<?xml version="1.0" standalone="no"?>
<!DOCTYPE svg PUBLIC "-//W3C//DTD SVG 1.1//EN" "http://www.w3.org/Graphics/SVG/1.1/DTD/svg11.dtd" >
<svg xmlns="http://www.w3.org/2000/svg" xmlns:xlink="http://www.w3.org/1999/xlink" version="1.1">
<metadata></metadata>
<defs>
<font id="amiribold" horiz-adv-x="219" >
<font-face units-per-em="1000" ascent="800" descent="-200" />
<missing-glyph horiz-adv-x="292" />
<glyph unicode="&#x640;&#x640;" horiz-adv-x="371" d="M186 -19q-54 0 -101 1t-86 3q-20 2 -26 26l-13 44q-7 29 8 40q14 10 32 10q86 -3 186 -3q50 0 86.5 0.5t59.5 1.5q46 1 60 -2q11 -3 17 -17q6 -16 2 -30l-13 -44q-6 -25 -25 -26q-39 -2 -86 -3t-101 -1z" />
<glyph unicode="&#x640;&#x640;&#x640;" horiz-adv-x="556" d="M558 -15q-156 -12 -280 -12q-122 0 -278 12q-19 0 -27 26l-13 44q-7 24 5 38t36 12q78 -6 147 -9.5t130 -3.5t130.5 3.5t147.5 9.5q30 2 39 -19q6 -13 1 -31l-13 -44q-6 -25 -25 -26z" />
<glyph unicode="&#x640;&#x640;&#x640;&#x640;" horiz-adv-x="742" d="M743 -15q-156 -12 -372 -12q-215 0 -371 12q-19 0 -27 26l-13 44q-6 25 6 38t35 12q78 -6 170.5 -9.5t199.5 -3.5t199.5 3.5t170.5 9.5q24 2 35 -12q10 -13 6 -38l-13 -44q-7 -25 -26 -26z" />
<glyph unicode="&#x640;&#x640;&#x640;&#x640;&#x640;" horiz-adv-x="927" d="M929 -15q-156 -12 -465 -12q-308 0 -464 12q-19 0 -27 26l-13 44q-6 25 6 38t35 12q78 -6 193.5 -9.5t269.5 -3.5t269.5 3.5t193.5 9.5q30 1 39 -19q6 -13 1 -31l-12 -44q-7 -25 -26 -26z" />
<glyph unicode="&#x640;&#x640;&#x640;&#x640;&#x640;&#x640;" horiz-adv-x="1113" d="M1112 105q17 1 30 -8q13 -10 13 -22q0 -7 -0.5 -12t-1.5 -9l-13 -43q-6 -25 -25 -26q-70 -10 -202.5 -14.5t-326.5 -4.5t-340.5 4.5t-245.5 14.5q-21 1 -27 26l-13 44q-7 31 8 41q8 5 16.5 8t17.5 1q63 -9 192.5 -14t324.5 -5t343.5 4.5t249.5 14.5z" />
<glyph unicode="&#x640;&#x640;&#x640;&#x640;&#x640;&#x640;&#x640;" horiz-adv-x="1298" d="M1298 105q23 1 35 -12q12 -14 5 -38l-13 -44q-6 -24 -26 -26q-151 -15 -313 -22t-337 -7t-337 7.5t-312 21.5q-21 1 -27 26l-13 44q-9 30 12 44q6 5 13.5 6t15.5 0q151 -14 313 -21.5t336 -7.5t336 7t312 22z" />
<glyph unicode="fb" horiz-adv-x="866" d="M530 562v-157q0 -4 1 -10t5 -2q8 6 24.5 17t36.5 19.5t36 8.5q57 0 103 -27t73 -74t27 -107q0 -58 -22.5 -102.5t-60.5 -75t-84.5 -45.5t-94.5 -15q-38 0 -71 11.5t-52 11.5q-13 0 -22 -2.5t-14 -4.5q-2 0 -12.5 9.5t-10.5 14.5q5 14 8 41t3 75v290v6q0 24 -1.5 59.5 t-9.5 58.5q-12 32 -37 48.5t-54 14.5q-40 -3 -55 -29.5t-21 -66.5q-4 -25 -4.5 -54t0.5 -57h114q3 0 4.5 -4.5t1.5 -8.5q0 -7 -7.5 -17.5t-15.5 -15.5h-94v-230v-6.5v-6.5q0 -26 1 -46t6 -33q3 -6 15.5 -10t27 -5.5t20.5 -2.5q4 -5 3.5 -18t-3.5 -18q-28 3 -65.5 5t-68.5 2 t-68 -2t-66 -5q-3 5 -3.5 18t3.5 18q7 1 21 2.5t27 5.5t15 10q6 15 7 38t1 54v230h-70q-4 2 -4.5 6t-0.5 7q8 11 15.5 18.5t16.5 14.5h43v15q0 67 26.5 121.5t71 87t98.5 33.5q20 0 33.5 -4t26.5 -10q11 -4 22.5 -8t27.5 -6q46 1 72.5 8.5t38 15.5t12.5 8q5 -1 9.5 -7 t5.5 -10l-2.5 -17t-5.5 -40t-3 -43zM584 366q-20 0 -32 -6.5t-19 -14.5q-3 -3 -3 -9v-240q0 -25 17 -43t48 -18t53.5 24t34.5 60t12 72q0 67 -15 105t-40 54t-56 16z" />
<glyph unicode="ffb" horiz-adv-x="1173" d="M457 598q26 35 63.5 55.5t80.5 21.5q20 0 33.5 -4t26.5 -10q11 -4 22.5 -8t27.5 -6q46 1 72.5 8.5t38 15.5t12.5 8q5 -1 9.5 -7t5.5 -10l-2.5 -17t-5.5 -40t-3 -43v-157q0 -4 1 -10t5 -2q8 6 24 17t36 19.5t36 8.5q57 0 103 -27t73.5 -74t27.5 -107q0 -58 -22.5 -102.5 t-60.5 -75t-84.5 -45.5t-94.5 -15q-38 0 -71 11.5t-52 11.5q-13 0 -22 -2.5t-14 -4.5q-2 0 -13 9.5t-11 14.5q5 14 8.5 41t3.5 75v290q0 15 -0.5 38t-3 46.5t-8.5 39.5q-12 32 -37 48.5t-54 14.5q-40 -3 -55 -29.5t-21 -66.5q-4 -25 -4.5 -54t0.5 -57h115q3 0 4 -4.5t1 -8.5 q0 -7 -7 -17.5t-15 -15.5h-95v-230q0 -31 1 -54t7 -38q3 -6 15.5 -10t27 -5.5t20.5 -2.5q4 -5 3.5 -18t-3.5 -18q-28 3 -65.5 5t-68.5 2t-68 -2t-66 -5q-3 5 -3.5 18t3.5 18q7 1 20.5 2.5t26.5 5.5t15 10q6 15 7 38t1 54v230h-180v-230v-6.5v-6.5q0 -26 1 -46t6 -33 q3 -6 15.5 -10t27 -5.5t20.5 -2.5q4 -5 3.5 -18t-3.5 -18q-28 3 -65.5 5t-68.5 2t-68 -2t-66 -5q-3 5 -3.5 18t3.5 18q7 1 21 2.5t27 5.5t15 10q6 15 7 38t1 54v230h-70q-4 2 -4.5 6t-0.5 7q8 11 15.5 18.5t16.5 14.5h43q0 71 19.5 116.5t49.5 70.5t64 35.5t64 12.5 q51 3 96.5 -9.5t66.5 -45.5zM892 366q-20 0 -32 -6.5t-19 -14.5q-3 -3 -3 -9v-240q0 -25 16.5 -43t47.5 -18t53.5 24t35 60t12.5 72q0 67 -15 105t-40 54t-56 16zM404 418v15q0 20 3 38.5t7 35.5q-13 3 -24 16t-19.5 28.5t-16.5 24.5q-16 20 -33.5 25.5t-31.5 2.5 q-19 -5 -33 -24.5t-22.5 -47.5t-11.5 -58t-1 -56h183z" />
<glyph unicode="fk" horiz-adv-x="893" d="M530 562l-1 -332q13 5 31 16.5t43 33.5q51 44 68 63.5t17 30.5q0 6 -11.5 11t-26.5 8t-24 3q-2 7 -2 19.5t4 13.5l14 -0.5t34.5 -1.5t42.5 -1.5t37 -0.5q26 0 50.5 2t57.5 3q5 -7 3.5 -19.5t-6.5 -14.5q-22 -2 -49.5 -9.5t-46.5 -21.5q-16 -11 -50 -43t-79 -72 q26 -30 43.5 -49.5t31 -34.5t28 -31t35.5 -39q27 -30 47.5 -42.5t37.5 -15.5t32 -3q5 -8 3 -17.5t-3 -11.5q-12 -4 -41.5 -8t-57.5 -4q-43 0 -77.5 16.5t-56.5 41.5l-18.5 20.5t-45.5 51t-51 60.5q-3 5 -8 8.5l-5 3.5v-54q0 -31 1 -54t7 -38q3 -6 15.5 -10t27 -5.5 t20.5 -2.5q4 -5 3.5 -18t-3.5 -18q-28 3 -65.5 5t-68.5 2t-68 -2t-66 -5q-3 5 -3.5 18t3.5 18q7 1 21 2.5t27 5.5t15 10q5 13 6 33t1 46v6.5v6.5v296v6q0 24 -1.5 59.5t-9.5 58.5q-12 32 -37 48.5t-54 14.5q-40 -3 -55 -29.5t-21 -66.5q-4 -25 -4.5 -54t0.5 -57h114 q3 0 4.5 -4.5t1.5 -8.5q0 -7 -7.5 -17.5t-15.5 -15.5h-94v-230v-6.5v-6.5q0 -26 1 -46t6 -33q3 -6 15.5 -10t27 -5.5t20.5 -2.5q4 -5 3.5 -18t-3.5 -18q-28 3 -65.5 5t-68.5 2t-68 -2t-66 -5q-3 5 -3.5 18t3.5 18q7 1 21 2.5t27 5.5t15 10q6 15 7 38t1 54v230h-70 q-4 2 -4.5 6t-0.5 7q8 11 15.5 18.5t16.5 14.5h43v15q0 67 26.5 121.5t71 87t98.5 33.5q20 0 33.5 -4t26.5 -10q11 -4 22.5 -8t27.5 -6q46 1 72.5 8.5t38 15.5t12.5 8q5 -1 9.5 -7t5.5 -10l-2.5 -17t-5.5 -40t-3 -43z" />
<glyph unicode="ffk" horiz-adv-x="1201" d="M404 372h-180v-230v-6.5v-6.5q0 -26 1 -46t6 -33q3 -6 15.5 -10t27 -5.5t20.5 -2.5q4 -5 3.5 -18t-3.5 -18q-28 3 -65.5 5t-68.5 2t-68 -2t-66 -5q-3 5 -3.5 18t3.5 18q7 1 21 2.5t27 5.5t15 10q6 15 7 38t1 54v230h-70q-4 2 -4.5 6t-0.5 7q8 11 15.5 18.5t16.5 14.5h43 q0 71 19.5 116.5t49.5 70.5t64 35.5t64 12.5q51 3 96.5 -9.5t66.5 -45.5q26 35 63.5 55.5t80.5 21.5q20 0 33.5 -4t26.5 -10q11 -4 22.5 -8t27.5 -6q46 1 72.5 8.5t38 15.5t12.5 8q5 -1 9.5 -7t5.5 -10l-2.5 -17t-5.5 -40t-3 -43l-1 -332q25 9 73 50q51 44 68.5 63.5 t17.5 30.5q0 6 -11.5 11t-26.5 8t-24 3q-2 7 -2 19.5t4 13.5l13.5 -0.5t34.5 -1.5t42.5 -1.5t36.5 -0.5q26 0 51 2t58 3q5 -7 3.5 -19.5t-6.5 -14.5q-22 -2 -50 -9.5t-47 -21.5q-16 -11 -50 -43t-79 -72q26 -30 43.5 -49.5t31.5 -34.5t28.5 -31t35.5 -39q27 -30 47.5 -42.5 t37 -15.5t31.5 -3q5 -8 3 -17.5t-3 -11.5q-12 -4 -41 -8t-57 -4q-43 0 -77.5 16.5t-56.5 41.5l-18.5 20.5t-45.5 51t-51 60.5q-3 5 -8 8.5l-5 3.5v-54q0 -31 1 -54t7 -38q3 -6 15.5 -10t26.5 -5.5t20 -2.5q4 -5 3.5 -18t-3.5 -18q-28 3 -65.5 5t-68.5 2t-67.5 -2t-65.5 -5 q-3 5 -3.5 18t3.5 18q7 1 20.5 2.5t26.5 5.5t15 10q6 15 7 38t1 54v296q0 15 -0.5 38t-3 46.5t-8.5 39.5q-12 32 -37 48.5t-54 14.5q-40 -3 -55 -29.5t-21 -66.5q-4 -25 -4.5 -54t0.5 -57h115q3 0 4 -4.5t1 -8.5q0 -7 -7 -17.5t-15 -15.5h-95v-230q0 -31 1 -54t7 -38 q3 -6 15.5 -10t27 -5.5t20.5 -2.5q4 -5 3.5 -18t-3.5 -18q-28 3 -65.5 5t-68.5 2t-68 -2t-66 -5q-3 5 -3.5 18t3.5 18q7 1 20.5 2.5t26.5 5.5t15 10q6 15 7 38t1 54v230zM414 507q-13 3 -24 16t-19.5 28.5t-16.5 24.5q-16 20 -33.5 25.5t-31.5 2.5q-19 -5 -33 -24.5 t-22.5 -47.5t-11.5 -58t-1 -56h183v15q0 20 3 38.5t7 35.5z" />
<glyph unicode="fh" horiz-adv-x="886" d="M530 562v-199q0 -5 1 -6q2 0 7 5q14 16 37.5 33t51 29t49.5 12q56 0 84.5 -25.5t38.5 -77t10 -128.5v-63v-6.5v-6.5q0 -26 1 -46t6 -33q3 -6 15.5 -10t27 -5.5t20.5 -2.5q4 -5 3.5 -18t-3.5 -18q-28 3 -65.5 5t-68.5 2t-62 -2t-60 -5q-3 5 -3.5 18t3.5 18q10 1 28.5 4.5 t22.5 13.5q6 15 7 38t1 54v77q0 35 -5.5 66.5t-20 51t-40.5 19.5q-19 0 -39 -9.5t-33.5 -22t-13.5 -22.5v-160q0 -27 1 -52t7 -40q3 -6 14 -10t23.5 -5.5t18.5 -2.5q4 -5 3.5 -18t-3.5 -18q-28 3 -62 5t-65 2t-68 -2t-66 -5q-3 5 -3.5 18t3.5 18q7 1 21 2.5t27 5.5t15 10 q5 13 6 33t1 46v6.5v6.5v296v6q0 24 -1.5 59.5t-9.5 58.5q-12 32 -37 48.5t-54 14.5q-40 -3 -55 -29.5t-21 -66.5q-4 -25 -4.5 -54t0.5 -57h114q3 0 4.5 -4.5t1.5 -8.5q0 -7 -7.5 -17.5t-15.5 -15.5h-94v-230v-6.5v-6.5q0 -26 1 -46t6 -33q3 -6 15.5 -10t27 -5.5t20.5 -2.5 q4 -5 3.5 -18t-3.5 -18q-28 3 -65.5 5t-68.5 2t-68 -2t-66 -5q-3 5 -3.5 18t3.5 18q7 1 21 2.5t27 5.5t15 10q6 15 7 38t1 54v230h-70q-4 2 -4.5 6t-0.5 7q8 11 15.5 18.5t16.5 14.5h43v15q0 67 26.5 121.5t71 87t98.5 33.5q20 0 33.5 -4t26.5 -10q11 -4 22.5 -8t27.5 -6 q46 1 72.5 8.5t38 15.5t12.5 8q5 -1 9.5 -7t5.5 -10l-2.5 -17t-5.5 -40t-3 -43z" />
<glyph unicode="ffh" horiz-adv-x="1194" d="M404 372h-180v-230v-6.5v-6.5q0 -26 1 -46t6 -33q3 -6 15.5 -10t27 -5.5t20.5 -2.5q4 -5 3.5 -18t-3.5 -18q-28 3 -65.5 5t-68.5 2t-68 -2t-66 -5q-3 5 -3.5 18t3.5 18q7 1 21 2.5t27 5.5t15 10q6 15 7 38t1 54v230h-70q-4 2 -4.5 6t-0.5 7q8 11 15.5 18.5t16.5 14.5h43 q0 71 19.5 116.5t49.5 70.5t64 35.5t64 12.5q51 3 96.5 -9.5t66.5 -45.5q26 35 63.5 55.5t80.5 21.5q20 0 33.5 -4t26.5 -10q11 -4 22.5 -8t27.5 -6q46 1 72.5 8.5t38 15.5t12.5 8q5 -1 9.5 -7t5.5 -10l-2.5 -17t-5.5 -40t-3 -43v-199q0 -5 1 -6q2 0 7 5q14 16 37.5 33 t50.5 29t49 12q56 0 84.5 -25.5t38.5 -77t10 -128.5v-63q0 -31 1 -54t7 -38q3 -6 15.5 -10t27 -5.5t20.5 -2.5q4 -5 3.5 -18t-3.5 -18q-28 3 -65.5 5t-68.5 2t-62 -2t-60 -5q-3 5 -3.5 18t3.5 18q10 1 28 4.5t22 13.5q6 15 7 38t1 54v77q0 35 -5.5 66.5t-19.5 51t-40 19.5 q-19 0 -39 -9.5t-33.5 -22t-13.5 -22.5v-160q0 -27 1 -52t7 -40q3 -6 13.5 -10t23 -5.5t18.5 -2.5q4 -5 3.5 -18t-3.5 -18q-28 3 -62 5t-65 2t-67.5 -2t-65.5 -5q-3 5 -3.5 18t3.5 18q7 1 20.5 2.5t26.5 5.5t15 10q6 15 7 38t1 54v296q0 15 -0.5 38t-3 46.5t-8.5 39.5 q-12 32 -37 48.5t-54 14.5q-40 -3 -55 -29.5t-21 -66.5q-4 -25 -4.5 -54t0.5 -57h115q3 0 4 -4.5t1 -8.5q0 -7 -7 -17.5t-15 -15.5h-95v-230q0 -31 1 -54t7 -38q3 -6 15.5 -10t27 -5.5t20.5 -2.5q4 -5 3.5 -18t-3.5 -18q-28 3 -65.5 5t-68.5 2t-68 -2t-66 -5q-3 5 -3.5 18 t3.5 18q7 1 20.5 2.5t26.5 5.5t15 10q6 15 7 38t1 54v230zM414 507q-13 3 -24 16t-19.5 28.5t-16.5 24.5q-16 20 -33.5 25.5t-31.5 2.5q-19 -5 -33 -24.5t-22.5 -47.5t-11.5 -58t-1 -56h183v15q0 20 3 38.5t7 35.5z" />
<glyph unicode="fj" horiz-adv-x="596" d="M525 436q5 -1 11 -8t6 -9q-2 -6 -5.5 -25.5t-4.5 -30.5q-1 -16 -1 -36v-25v-185q0 -61 -10 -119t-37 -98q-23 -33 -55.5 -58.5t-62.5 -40t-47 -14.5q-13 7 -13 17q0 6 1 7q2 1 16.5 12t33.5 38.5t33 76.5t14 124v192q0 5 -0.5 21.5t-2 34t-6.5 24.5q-5 11 -20.5 15.5 t-31.5 6t-25 1.5h-94v-215v-6.5v-6.5q0 -26 1 -46t6 -33q3 -6 15.5 -10t27 -5.5t20.5 -2.5q4 -5 3.5 -18t-3.5 -18q-28 3 -65.5 5t-68.5 2t-68 -2t-66 -5q-3 5 -3.5 18t3.5 18q7 1 21 2.5t27 5.5t15 10q6 15 7 38t1 54v215h-70q-4 2 -4.5 6t-0.5 7q8 11 15.5 18.5t16.5 14.5 q10 0 23 0.5t20 2.5q1 95 31 156.5t81 91t114 29.5q41 0 84.5 -10.5t74.5 -34.5t35 -64q2 -24 -11.5 -46t-39.5 -21q-27 1 -41.5 13.5t-21 28.5t-10.5 27q-10 27 -25 42.5t-59 15.5q-25 0 -42.5 -26t-28.5 -64t-15 -76.5t-2 -64.5h114q58 0 110 9.5t80 23.5z" />
<glyph unicode="ffj" horiz-adv-x="905" d="M644 403q58 0 110 9.5t80 23.5q5 -1 11 -8t6 -9q-2 -6 -5.5 -25.5t-4.5 -30.5q-1 -16 -1 -36v-25v-185q0 -61 -10 -119t-37 -98q-23 -33 -55.5 -58.5t-62.5 -40t-47 -14.5q-5 3 -9.5 8t-4.5 9q0 6 1 7q2 1 17 12t33.5 38.5t33 76.5t14.5 124v192q0 5 -0.5 21.5t-2.5 34 t-7 24.5q-5 11 -20 15.5t-31 6t-25 1.5h-95v-215q0 -31 1 -54t7 -38q3 -6 15.5 -10t27 -5.5t20.5 -2.5q4 -5 3.5 -18t-3.5 -18q-28 3 -65.5 5t-68.5 2t-68 -2t-66 -5q-3 5 -3.5 18t3.5 18q7 1 20.5 2.5t26.5 5.5t15 10q6 15 7 38t1 54v21v54.5t-0.5 71t-0.5 70.5h-180v-217 v-6.5v-6.5q0 -26 1 -46t6 -33q3 -6 15.5 -10t27 -5.5t20.5 -2.5q4 -5 3.5 -18t-3.5 -18q-28 3 -65.5 5t-68.5 2t-68 -2t-66 -5q-3 5 -3.5 18t3.5 18q7 1 21 2.5t27 5.5t15 10q6 15 7 38t1 54v217h-70q-4 2 -4.5 6t-0.5 7q8 11 15.5 18.5t16.5 14.5h43q0 71 19.5 118.5 t49.5 75t64 40t64 14.5q50 3 96 -10t67 -45q31 44 76.5 64.5t98.5 20.5q41 0 84 -10.5t74 -34.5t35 -64q2 -24 -11.5 -46t-39.5 -21q-27 1 -41.5 13.5t-21 28.5t-10.5 27q-10 27 -25 42.5t-59 15.5q-25 0 -42.5 -26t-28.5 -64t-15 -76.5t-2 -64.5h115zM416 507 q-14 1 -25 14.5t-20 29.5t-17 25q-16 20 -33.5 25.5t-31.5 2.5q-19 -5 -33 -26.5t-22.5 -52t-11.5 -62.5t-1 -58h183q0 57 12 102z" />
<glyph unicode="&#x671;" horiz-adv-x="217" arabic-form="isolated" d="M99 692q20 43 26 -20l24 -244q30 -328 -14 -413q-10 -18 -19 -15q-10 3 -9 48q1 38 -8 125.5t-27 222.5l-21 166q-3 21 6 41zM70 884q17 23 30.5 40.5t26.5 27.5q26 22 54 23q44 0 53 -38q8 -38 -16 -69q-59 -79 -136 -74q-35 3 -68 24q-9 4 -15 -2l-8 -7q-14 -11 -21 -7 q-12 10 -5 24q45 87 87 66q5 -2 9.5 -4t8.5 -4zM111 895q-10 -12 -18 -24q43 -7 88 15q4 20 -4 29q-5 6 -17 7q-23 0 -49 -27z" />
<glyph unicode="&#x671;" horiz-adv-x="278" arabic-form="final" d="M128 725q20 35 25 -7q21 -186 24 -340q3 -156 6 -189q4 -78 95 -84q31 -2 35 -30q1 -5 0.5 -14.5t-2.5 -22.5q-4 -24 -11 -39q-6 -14 -22 -14q-141 0 -150 136q-2 31 -4 84t-4 127q-2 68 -10.5 140t-23.5 149q-5 26 5 41zM99 884q17 23 30.5 40.5t26.5 27.5q26 22 54 23 q44 0 53 -38q8 -38 -16 -69q-59 -79 -136 -74q-35 3 -68 24q-9 4 -15 -2l-8 -7q-14 -11 -21 -7q-12 10 -5 24q45 87 87 66q5 -2 9.5 -4t8.5 -4zM140 895q-10 -12 -18 -24q43 -7 88 15q4 20 -4 29q-5 6 -17 7q-23 0 -49 -27z" />
<glyph unicode="&#x67b;" horiz-adv-x="926" arabic-form="isolated" d="M92 74q-49 61 -16 155q7 19 20 39.5t32 42.5q14 15 24 5q11 -10 -3 -24q-36 -38 -30 -71q19 -115 300 -115q119 0 217.5 21.5t176.5 65.5q-9 38 -44 68q-9 9 -4 24l29 88q9 28 31 -6q51 -79 32 -194q-10 -56 -43 -77q-82 -52 -181.5 -81.5t-217.5 -35.5q-236 -12 -323 95 zM466 -133q6 8 17 5q20 -7 38.5 -18t34.5 -25q9 -9 3 -19l-28 -44q24 -12 45 -30q8 -8 3 -18l-48 -76q-7 -10 -18 -2q-10 8 -72 45q-11 7 -4 17l32 47q-9 5 -21 12.5t-27 16.5q-10 6 -3 16z" />
<glyph unicode="&#x67b;" horiz-adv-x="883" arabic-form="final" d="M112 252q15 20 27 8q10 -10 -1 -27q-32 -46 -25 -75q31 -129 297 -121q190 6 340 67q26 10 32 42q3 20 20 20q16 0 16 -26q2 -32 67 -35q28 -1 34 -27q3 -10 0 -40q-6 -53 -35 -53q-44 0 -85 55q-185 -134 -430 -134q-255 0 -300 129q-23 66 1 131q23 58 42 86zM417 -157 q6 8 17 5q20 -7 38.5 -18t34.5 -25q9 -9 3 -19l-28 -44q24 -12 45 -30q8 -8 3 -18l-48 -76q-7 -10 -18 -2q-10 8 -72 45q-11 7 -4 17l32 47q-9 5 -21 12.5t-27 16.5q-10 6 -3 16z" />
<glyph unicode="&#x67b;" horiz-adv-x="190" arabic-form="initial" d="M51 213l29 62q15 33 26 13q49 -83 23 -194q-25 -109 -129 -109q-20 0 -29 34q-4 17 -6 30.5t-2 23.5q0 20 21 29q8 3 16 3q56 -1 84 23q-6 27 -23 45q-19 21 -10 40zM61 -108q6 8 17 5q20 -7 38.5 -18t34.5 -25q9 -9 3 -19l-28 -44q24 -12 45 -30q8 -8 3 -18l-48 -76 q-7 -10 -18 -2q-10 8 -72 45q-11 7 -4 17l32 47q-9 5 -21 12.5t-27 16.5q-10 6 -3 16z" />
<glyph unicode="&#x67b;" horiz-adv-x="244" arabic-form="medial" d="M182 145q31 -38 62 -41q28 -3 32 -20q3 -12 0 -42q-1 -15 -4.5 -25.5t-6.5 -17.5q-6 -14 -21 -14q-56 0 -108 64q-62 -64 -136 -64q-21 0 -27 27l-9 41q-3 16 8 33q11 18 28 19q119 9 146 59q9 15 19 15q15 0 15 -17q0 -8 1 -12t1 -5zM105 -108q6 8 17 5q20 -7 38.5 -18 t34.5 -25q9 -9 3 -19l-28 -44q24 -12 45 -30q8 -8 3 -18l-48 -76q-7 -10 -18 -2q-10 8 -72 45q-11 7 -4 17l32 47q-9 5 -21 12.5t-27 16.5q-10 6 -3 16z" />
<glyph unicode="&#x67e;" horiz-adv-x="926" arabic-form="isolated" d="M92 74q-49 61 -16 155q7 19 20 39.5t32 42.5q14 15 24 5q11 -10 -3 -24q-36 -38 -30 -71q19 -115 300 -115q119 0 217.5 21.5t176.5 65.5q-9 38 -44 68q-9 9 -4 24l29 88q9 28 31 -6q51 -79 32 -194q-10 -56 -43 -77q-82 -52 -181.5 -81.5t-217.5 -35.5q-236 -12 -323 95 zM472 -237q-6 -8 -17 -5q-20 8 -38.5 18.5t-34.5 24.5q-9 7 -3 17l48 76q8 11 17 3q5 -4 16.5 -11.5t29.5 -18.5l31 50q7 10 18 2q11 -7 72 -45q11 -8 4 -17l-49 -72q-12 -16 -66 20zM542 -348q-6 -8 -17 -5q-20 8 -38.5 18.5t-34.5 24.5q-9 8 -3 18l47 76q7 10 19 2 q11 -7 72 -45q10 -7 3 -16z" />
<glyph unicode="&#x67e;" horiz-adv-x="883" arabic-form="final" d="M112 252q15 20 27 8q10 -10 -1 -27q-32 -46 -25 -75q31 -129 297 -121q190 6 340 67q26 10 32 42q3 20 20 20q16 0 16 -26q2 -32 67 -35q28 -1 34 -27q3 -10 0 -40q-6 -53 -35 -53q-44 0 -85 55q-185 -134 -430 -134q-255 0 -300 129q-23 66 1 131q23 58 42 86zM417 -266 q-6 -8 -17 -5q-20 8 -38.5 18.5t-34.5 24.5q-9 7 -3 17l48 76q8 11 17 3q5 -4 16.5 -11.5t29.5 -18.5l31 50q7 10 18 2q11 -7 72 -45q11 -8 4 -17l-49 -72q-12 -16 -66 20zM487 -377q-6 -8 -17 -5q-20 8 -38.5 18.5t-34.5 24.5q-9 8 -3 18l47 76q7 10 19 2q11 -7 72 -45 q10 -7 3 -16z" />
<glyph unicode="&#x67e;" horiz-adv-x="190" arabic-form="initial" d="M51 213l29 62q15 33 26 13q49 -83 23 -194q-25 -109 -129 -109q-20 0 -29 34q-4 17 -6 30.5t-2 23.5q0 20 21 29q8 3 16 3q56 -1 84 23q-6 27 -23 45q-19 21 -10 40zM91 -261q-6 -8 -17 -5q-20 8 -38.5 18.5t-34.5 24.5q-9 7 -3 17l48 76q8 11 17 3q5 -4 16.5 -11.5 t29.5 -18.5l31 50q7 10 18 2q11 -7 72 -45q11 -8 4 -17l-49 -72q-12 -16 -66 20zM161 -372q-6 -8 -17 -5q-20 8 -38.5 18.5t-34.5 24.5q-9 8 -3 18l47 76q7 10 19 2q11 -7 72 -45q10 -7 3 -16z" />
<glyph unicode="&#x67e;" horiz-adv-x="244" arabic-form="medial" d="M182 145q31 -38 62 -41q28 -3 32 -20q3 -12 0 -42q-1 -15 -4.5 -25.5t-6.5 -17.5q-6 -14 -21 -14q-56 0 -108 64q-62 -64 -136 -64q-21 0 -27 27l-9 41q-3 16 8 33q11 18 28 19q119 9 146 59q9 15 19 15q15 0 15 -17q0 -8 1 -12t1 -5zM110 -212q-6 -8 -17 -5 q-20 8 -38.5 18.5t-34.5 24.5q-9 7 -3 17l48 76q8 11 17 3q5 -4 16.5 -11.5t29.5 -18.5l31 50q7 10 18 2q11 -7 72 -45q11 -8 4 -17l-49 -72q-12 -16 -66 20zM180 -323q-6 -8 -17 -5q-20 8 -38.5 18.5t-34.5 24.5q-9 8 -3 18l47 76q7 10 19 2q11 -7 72 -45q10 -7 3 -16z" />
<glyph unicode="&#x680;" horiz-adv-x="926" arabic-form="isolated" d="M92 74q-49 61 -16 155q7 19 20 39.5t32 42.5q14 15 24 5q11 -10 -3 -24q-36 -38 -30 -71q19 -115 300 -115q119 0 217.5 21.5t176.5 65.5q-9 38 -44 68q-9 9 -4 24l29 88q9 28 31 -6q51 -79 32 -194q-10 -56 -43 -77q-82 -52 -181.5 -81.5t-217.5 -35.5q-236 -12 -323 95 zM521 -61q5 7 17 4q20 -7 38.5 -18t34.5 -25q8 -8 3 -18l-41 -64q28 -13 53 -35q8 -8 3 -18l-48 -76q-8 -11 -18 -2q-4 4 -17.5 12.5t-35.5 21.5l-33 -54q-7 -10 -18 -2q-5 4 -23.5 15t-49.5 30q-11 6 -3 17l44 66q-9 6 -22.5 14.5t-32.5 19.5q-11 7 -4 17l49 72q6 8 17 5 q15 -5 28.5 -12.5t26.5 -16.5zM469 -205q9 -4 18 -9t17 -11l27 41q-7 5 -15.5 10t-19.5 12z" />
<glyph unicode="&#x680;" horiz-adv-x="883" arabic-form="final" d="M112 252q15 20 27 8q10 -10 -1 -27q-32 -46 -25 -75q31 -129 297 -121q190 6 340 67q26 10 32 42q3 20 20 20q16 0 16 -26q2 -32 67 -35q28 -1 34 -27q3 -10 0 -40q-6 -53 -35 -53q-44 0 -85 55q-185 -134 -430 -134q-255 0 -300 129q-23 66 1 131q23 58 42 86zM467 -90 q5 7 17 4q20 -7 38.5 -18t34.5 -25q8 -8 3 -18l-41 -64q28 -13 53 -35q8 -8 3 -18l-48 -76q-8 -11 -18 -2q-4 4 -17.5 12.5t-35.5 21.5l-33 -54q-7 -10 -18 -2q-5 4 -23.5 15t-49.5 30q-11 6 -3 17l44 66q-9 6 -22.5 14.5t-32.5 19.5q-11 7 -4 17l49 72q6 8 17 5 q15 -5 28.5 -12.5t26.5 -16.5zM415 -234q9 -4 18 -9t17 -11l27 41q-7 5 -15.5 10t-19.5 12z" />
<glyph unicode="&#x680;" horiz-adv-x="190" arabic-form="initial" d="M51 213l29 62q15 33 26 13q49 -83 23 -194q-25 -109 -129 -109q-20 0 -29 34q-4 17 -6 30.5t-2 23.5q0 20 21 29q8 3 16 3q56 -1 84 23q-6 27 -23 45q-19 21 -10 40zM140 -85q5 7 17 4q20 -7 38.5 -18t34.5 -25q8 -8 3 -18l-41 -64q28 -13 53 -35q8 -8 3 -18l-48 -76 q-8 -11 -18 -2q-4 4 -17.5 12.5t-35.5 21.5l-33 -54q-7 -10 -18 -2q-5 4 -23.5 15t-49.5 30q-11 6 -3 17l44 66q-9 6 -22.5 14.5t-32.5 19.5q-11 7 -4 17l49 72q6 8 17 5q15 -5 28.5 -12.5t26.5 -16.5zM88 -229q9 -4 18 -9t17 -11l27 41q-7 5 -15.5 10t-19.5 12z" />
<glyph unicode="&#x680;" horiz-adv-x="244" arabic-form="medial" d="M182 145q31 -38 62 -41q28 -3 32 -20q3 -12 0 -42q-1 -15 -4.5 -25.5t-6.5 -17.5q-6 -14 -21 -14q-56 0 -108 64q-62 -64 -136 -64q-21 0 -27 27l-9 41q-3 16 8 33q11 18 28 19q119 9 146 59q9 15 19 15q15 0 15 -17q0 -8 1 -12t1 -5zM160 -37q5 7 17 4q20 -7 38.5 -18 t34.5 -25q8 -8 3 -18l-41 -64q28 -13 53 -35q8 -8 3 -18l-48 -76q-8 -11 -18 -2q-4 4 -17.5 12.5t-35.5 21.5l-33 -54q-7 -10 -18 -2q-5 4 -23.5 15t-49.5 30q-11 6 -3 17l44 66q-9 6 -22.5 14.5t-32.5 19.5q-11 7 -4 17l49 72q6 8 17 5q15 -5 28.5 -12.5t26.5 -16.5z M108 -181q9 -4 18 -9t17 -11l27 41q-7 5 -15.5 10t-19.5 12z" />
<glyph unicode="&#x67a;" horiz-adv-x="926" arabic-form="isolated" d="M92 74q-49 61 -16 155q7 19 20 39.5t32 42.5q14 15 24 5q11 -10 -3 -24q-36 -38 -30 -71q19 -115 300 -115q119 0 217.5 21.5t176.5 65.5q-9 38 -44 68q-9 9 -4 24l29 88q9 28 31 -6q51 -79 32 -194q-10 -56 -43 -77q-82 -52 -181.5 -81.5t-217.5 -35.5q-236 -12 -323 95 zM419 580q6 8 17 5q20 -7 38.5 -18t34.5 -25q9 -9 3 -19l-28 -44q24 -12 45 -30q8 -8 3 -18l-48 -76q-7 -10 -18 -2q-10 8 -72 45q-11 7 -4 17l32 47q-9 5 -21 12.5t-27 16.5q-10 6 -3 16z" />
<glyph unicode="&#x67a;" horiz-adv-x="883" arabic-form="final" d="M112 252q15 20 27 8q10 -10 -1 -27q-32 -46 -25 -75q31 -129 297 -121q190 6 340 67q26 10 32 42q3 20 20 20q16 0 16 -26q2 -32 67 -35q28 -1 34 -27q3 -10 0 -40q-6 -53 -35 -53q-44 0 -85 55q-185 -134 -430 -134q-255 0 -300 129q-23 66 1 131q23 58 42 86zM419 580 q6 8 17 5q20 -7 38.5 -18t34.5 -25q9 -9 3 -19l-28 -44q24 -12 45 -30q8 -8 3 -18l-48 -76q-7 -10 -18 -2q-10 8 -72 45q-11 7 -4 17l32 47q-9 5 -21 12.5t-27 16.5q-10 6 -3 16z" />
<glyph unicode="&#x67a;" horiz-adv-x="190" arabic-form="initial" d="M51 213l29 62q15 33 26 13q49 -83 23 -194q-25 -109 -129 -109q-20 0 -29 34q-4 17 -6 30.5t-2 23.5q0 20 21 29q8 3 16 3q56 -1 84 23q-6 27 -23 45q-19 21 -10 40zM43 595q6 8 17 5q20 -7 38.5 -18t34.5 -25q9 -9 3 -19l-28 -44q24 -12 45 -30q8 -8 3 -18l-48 -76 q-7 -10 -18 -2q-10 8 -72 45q-11 7 -4 17l32 47q-9 5 -21 12.5t-27 16.5q-10 6 -3 16z" />
<glyph unicode="&#x67a;" horiz-adv-x="244" arabic-form="medial" d="M182 145q31 -38 62 -41q28 -3 32 -20q3 -12 0 -42q-1 -15 -4.5 -25.5t-6.5 -17.5q-6 -14 -21 -14q-56 0 -108 64q-62 -64 -136 -64q-21 0 -27 27l-9 41q-3 16 8 33q11 18 28 19q119 9 146 59q9 15 19 15q15 0 15 -17q0 -8 1 -12t1 -5zM80 580q6 8 17 5q20 -7 38.5 -18 t34.5 -25q9 -9 3 -19l-28 -44q24 -12 45 -30q8 -8 3 -18l-48 -76q-7 -10 -18 -2q-10 8 -72 45q-11 7 -4 17l32 47q-9 5 -21 12.5t-27 16.5q-10 6 -3 16z" />
<glyph unicode="&#x67f;" horiz-adv-x="926" arabic-form="isolated" d="M92 74q-49 61 -16 155q7 19 20 39.5t32 42.5q14 15 24 5q11 -10 -3 -24q-36 -38 -30 -71q19 -115 300 -115q119 0 217.5 21.5t176.5 65.5q-9 38 -44 68q-9 9 -4 24l29 88q9 28 31 -6q51 -79 32 -194q-10 -56 -43 -77q-82 -52 -181.5 -81.5t-217.5 -35.5q-236 -12 -323 95 zM474 627q5 7 17 4q20 -7 38.5 -18t34.5 -25q8 -8 3 -18l-41 -64q28 -13 53 -35q8 -8 3 -18l-48 -76q-8 -11 -18 -2q-4 4 -17.5 12.5t-35.5 21.5l-33 -54q-7 -10 -18 -2q-5 4 -23.5 15t-49.5 30q-11 6 -3 17l44 66q-9 6 -22.5 14.5t-32.5 19.5q-11 7 -4 17l49 72q6 8 17 5 q15 -5 28.5 -12.5t26.5 -16.5zM422 483q9 -4 18 -9t17 -11l27 41q-7 5 -15.5 10t-19.5 12z" />
<glyph unicode="&#x67f;" horiz-adv-x="883" arabic-form="final" d="M112 252q15 20 27 8q10 -10 -1 -27q-32 -46 -25 -75q31 -129 297 -121q190 6 340 67q26 10 32 42q3 20 20 20q16 0 16 -26q2 -32 67 -35q28 -1 34 -27q3 -10 0 -40q-6 -53 -35 -53q-44 0 -85 55q-185 -134 -430 -134q-255 0 -300 129q-23 66 1 131q23 58 42 86zM474 627 q5 7 17 4q20 -7 38.5 -18t34.5 -25q8 -8 3 -18l-41 -64q28 -13 53 -35q8 -8 3 -18l-48 -76q-8 -11 -18 -2q-4 4 -17.5 12.5t-35.5 21.5l-33 -54q-7 -10 -18 -2q-5 4 -23.5 15t-49.5 30q-11 6 -3 17l44 66q-9 6 -22.5 14.5t-32.5 19.5q-11 7 -4 17l49 72q6 8 17 5 q15 -5 28.5 -12.5t26.5 -16.5zM422 483q9 -4 18 -9t17 -11l27 41q-7 5 -15.5 10t-19.5 12z" />
<glyph unicode="&#x67f;" horiz-adv-x="190" arabic-form="initial" d="M51 213l29 62q15 33 26 13q49 -83 23 -194q-25 -109 -129 -109q-20 0 -29 34q-4 17 -6 30.5t-2 23.5q0 20 21 29q8 3 16 3q56 -1 84 23q-6 27 -23 45q-19 21 -10 40zM96 593q5 7 17 4q20 -7 38.5 -18t34.5 -25q8 -8 3 -18l-41 -64q28 -13 53 -35q8 -8 3 -18l-48 -76 q-8 -11 -18 -2q-4 4 -17.5 12.5t-35.5 21.5l-33 -54q-7 -10 -18 -2q-5 4 -23.5 15t-49.5 30q-11 6 -3 17l44 66q-9 6 -22.5 14.5t-32.5 19.5q-11 7 -4 17l49 72q6 8 17 5q15 -5 28.5 -12.5t26.5 -16.5zM44 449q9 -4 18 -9t17 -11l27 41q-7 5 -15.5 10t-19.5 12z" />
<glyph unicode="&#x67f;" horiz-adv-x="244" arabic-form="medial" d="M182 145q31 -38 62 -41q28 -3 32 -20q3 -12 0 -42q-1 -15 -4.5 -25.5t-6.5 -17.5q-6 -14 -21 -14q-56 0 -108 64q-62 -64 -136 -64q-21 0 -27 27l-9 41q-3 16 8 33q11 18 28 19q119 9 146 59q9 15 19 15q15 0 15 -17q0 -8 1 -12t1 -5zM126 564q5 7 17 4q20 -7 38.5 -18 t34.5 -25q8 -8 3 -18l-41 -64q28 -13 53 -35q8 -8 3 -18l-48 -76q-8 -11 -18 -2q-4 4 -17.5 12.5t-35.5 21.5l-33 -54q-7 -10 -18 -2q-5 4 -23.5 15t-49.5 30q-11 6 -3 17l44 66q-9 6 -22.5 14.5t-32.5 19.5q-11 7 -4 17l49 72q6 8 17 5q15 -5 28.5 -12.5t26.5 -16.5z M74 420q9 -4 18 -9t17 -11l27 41q-7 5 -15.5 10t-19.5 12z" />
<glyph unicode="&#x679;" horiz-adv-x="926" arabic-form="isolated" d="M92 74q-49 61 -16 155q7 19 20 39.5t32 42.5q14 15 24 5q11 -10 -3 -24q-36 -38 -30 -71q19 -115 300 -115q119 0 217.5 21.5t176.5 65.5q-9 38 -44 68q-9 9 -4 24l29 88q9 28 31 -6q51 -79 32 -194q-10 -56 -43 -77q-82 -52 -181.5 -81.5t-217.5 -35.5q-236 -12 -323 95 zM425 635q16 7 20 -18q8 -60 11.5 -105.5t1.5 -76.5q12 12 25 23t27 21q29 21 54 11t37 -40q12 -31 -27 -81q-4 -6 -21 -13t-46 -16q-28 -9 -58 -13.5t-60 -6.5h-2q-28 4 -49 24t-21 30q1 8 12 8q17 -1 35 -1.5t36 0.5l23 23q2 35 -2.5 83t-14.5 108q0 5 6 20q6 16 13 20z M511 431q-7 -3 -21 -14t-34 -29q49 10 98 33q-15 20 -43 10z" />
<glyph unicode="&#x679;" horiz-adv-x="883" arabic-form="final" d="M112 252q15 20 27 8q10 -10 -1 -27q-32 -46 -25 -75q31 -129 297 -121q190 6 340 67q26 10 32 42q3 20 20 20q16 0 16 -26q2 -32 67 -35q28 -1 34 -27q3 -10 0 -40q-6 -53 -35 -53q-44 0 -85 55q-185 -134 -430 -134q-255 0 -300 129q-23 66 1 131q23 58 42 86zM425 635 q16 7 20 -18q8 -60 11.5 -105.5t1.5 -76.5q12 12 25 23t27 21q29 21 54 11t37 -40q12 -31 -27 -81q-4 -6 -21 -13t-46 -16q-28 -9 -58 -13.5t-60 -6.5h-2q-28 4 -49 24t-21 30q1 8 12 8q17 -1 35 -1.5t36 0.5l23 23q2 35 -2.5 83t-14.5 108q0 5 6 20q6 16 13 20zM511 431 q-7 -3 -21 -14t-34 -29q49 10 98 33q-15 20 -43 10z" />
<glyph unicode="&#x679;" horiz-adv-x="190" arabic-form="initial" d="M51 213l29 62q15 33 26 13q49 -83 23 -194q-25 -109 -129 -109q-20 0 -29 34q-4 17 -6 30.5t-2 23.5q0 20 21 29q8 3 16 3q56 -1 84 23q-6 27 -23 45q-19 21 -10 40zM49 650q16 7 20 -18q8 -60 11.5 -105.5t1.5 -76.5q12 12 25 23t27 21q29 21 54 11t37 -40 q12 -31 -27 -81q-4 -6 -21 -13t-46 -16q-28 -9 -58 -13.5t-60 -6.5h-2q-28 4 -49 24t-21 30q1 8 12 8q17 -1 35 -1.5t36 0.5l23 23q2 35 -2.5 83t-14.5 108q0 5 6 20q6 16 13 20zM135 446q-7 -3 -21 -14t-34 -29q49 10 98 33q-15 20 -43 10z" />
<glyph unicode="&#x679;" horiz-adv-x="244" arabic-form="medial" d="M182 145q31 -38 62 -41q28 -3 32 -20q3 -12 0 -42q-1 -15 -4.5 -25.5t-6.5 -17.5q-6 -14 -21 -14q-56 0 -108 64q-62 -64 -136 -64q-21 0 -27 27l-9 41q-3 16 8 33q11 18 28 19q119 9 146 59q9 15 19 15q15 0 15 -17q0 -8 1 -12t1 -5zM86 635q16 7 20 -18 q8 -60 11.5 -105.5t1.5 -76.5q12 12 25 23t27 21q29 21 54 11t37 -40q12 -31 -27 -81q-4 -6 -21 -13t-46 -16q-28 -9 -58 -13.5t-60 -6.5h-2q-28 4 -49 24t-21 30q1 8 12 8q17 -1 35 -1.5t36 0.5l23 23q2 35 -2.5 83t-14.5 108q0 5 6 20q6 16 13 20zM172 431q-7 -3 -21 -14 t-34 -29q49 10 98 33q-15 20 -43 10z" />
<glyph unicode="&#x6a4;" horiz-adv-x="983" arabic-form="isolated" d="M869 480q23 -37 35 -86.5t16 -111.5q3 -46 -10 -76q-28 -66 -122 -119q-93 -53 -220 -81q-130 -29 -235 -29q-251 -1 -269 171q-2 20 0.5 42.5t9.5 47.5q13 50 31 72t28 15q11 -7 -3 -33q-50 -92 11 -136q101 -73 318 -46q194 24 364 115q50 26 53 51q0 12 -19 34 q-20 -44 -73 -56q-92 -17 -96 76q-2 70 60 163q29 45 59 44t62 -57zM797 377q11 9 -1 19q-36 30 -56 -6q-4 -9 1 -14q29 -24 56 1zM658 744q6 9 18 5q20 -7 38.5 -18t34.5 -25q8 -8 3 -18l-48 -76q-8 -11 -17 -3q-4 4 -16 11.5t-30 18.5l-31 -49q-7 -10 -18 -3 q-5 4 -23.5 15.5t-49.5 30.5q-10 6 -3 16l48 72q12 17 66 -19zM588 856q6 8 17 5q20 -7 38.5 -18t34.5 -25q8 -8 3 -18l-48 -76q-7 -10 -18 -2q-10 8 -72 45q-11 6 -4 16z" />
<glyph unicode="&#x6a4;" horiz-adv-x="1005" arabic-form="final" d="M778 300q70 106 124 57q55 -50 31 -178q-6 -32 -24 -71q17 -4 41.5 -4t55.5 1q29 2 36 -26q3 -10 3 -19q-1 -72 -39 -75q-89 -7 -173 31q-214 -123 -466 -123q-316 0 -304 175q4 68 51 146q20 32 35 19q8 -7 -2 -28q-33 -62 -21 -84q52 -97 255 -94q101 2 189.5 16.5 t165.5 40.5q-24 29 -14 89q11 61 56 127zM839 234q-42 3 -67 -61q15 -40 52 -40q36 0 58 28q-3 70 -43 73zM712 573q6 9 18 5q20 -7 38.5 -18t34.5 -25q8 -8 3 -18l-48 -76q-8 -11 -17 -3q-4 4 -16 11.5t-30 18.5l-31 -49q-7 -10 -18 -3q-5 4 -23.5 15.5t-49.5 30.5 q-10 6 -3 16l48 72q12 17 66 -19zM642 685q6 8 17 5q20 -7 38.5 -18t34.5 -25q8 -8 3 -18l-48 -76q-7 -10 -18 -2q-10 8 -72 45q-11 6 -4 16z" />
<glyph unicode="&#x6a4;" horiz-adv-x="295" arabic-form="initial" d="M102 443q30 0 50 -20q80 -82 80 -219q0 -80 -29 -118q-81 -104 -203 -101q-24 0 -32 31q-7 30 0 58q7 30 31 31q128 9 184 62q-3 34 -8 39q-6 7 -13 -5q-19 -32 -50 -40q-98 -24 -104 51q-8 88 25 159q33 72 69 72zM77 320q-23 0 -26 -44q8 -2 17.5 -3t21.5 0q23 3 29 12 q-23 35 -42 35zM136 646q6 9 18 5q20 -7 38.5 -18t34.5 -25q8 -8 3 -18l-48 -76q-8 -11 -17 -3q-4 4 -16 11.5t-30 18.5l-31 -49q-7 -10 -18 -3q-5 4 -23.5 15.5t-49.5 30.5q-10 6 -3 16l48 72q12 17 66 -19zM66 758q6 8 17 5q20 -7 38.5 -18t34.5 -25q8 -8 3 -18l-48 -76 q-7 -10 -18 -2q-10 8 -72 45q-11 6 -4 16z" />
<glyph unicode="&#x6a4;" horiz-adv-x="378" arabic-form="medial" d="M283 394q9 0 17 -4q29 -17 38 -65q13 -80 -19 -152q-6 -13 -12.5 -25t-14.5 -25q50 -16 87 -18q22 -1 26 -46t-6 -61q-8 -12 -19 -13q-84 -9 -209 56q-36 -16 -93 -36q-58 -20 -79 -20q-23 0 -30 29q-4 15 -3.5 30t3.5 29q6 27 29 32q48 7 92 21q-1 22 2 44.5t12 45.5 q33 87 118 151q35 27 61 27zM235 259q-52 1 -87 -46q40 -83 126 -20q0 65 -39 66zM224 671q6 9 18 5q20 -7 38.5 -18t34.5 -25q8 -8 3 -18l-48 -76q-8 -11 -17 -3q-4 4 -16 11.5t-30 18.5l-31 -49q-7 -10 -18 -3q-5 4 -23.5 15.5t-49.5 30.5q-10 6 -3 16l48 72q12 17 66 -19 zM154 783q6 8 17 5q20 -7 38.5 -18t34.5 -25q8 -8 3 -18l-48 -76q-7 -10 -18 -2q-10 8 -72 45q-11 6 -4 16z" />
<glyph unicode="&#x6a6;" horiz-adv-x="983" arabic-form="isolated" d="M869 480q23 -37 35 -86.5t16 -111.5q3 -46 -10 -76q-28 -66 -122 -119q-93 -53 -220 -81q-130 -29 -235 -29q-251 -1 -269 171q-2 20 0.5 42.5t9.5 47.5q13 50 31 72t28 15q11 -7 -3 -33q-50 -92 11 -136q101 -73 318 -46q194 24 364 115q50 26 53 51q0 12 -19 34 q-20 -44 -73 -56q-92 -17 -96 76q-2 70 60 163q29 45 59 44t62 -57zM797 377q11 9 -1 19q-36 30 -56 -6q-4 -9 1 -14q29 -24 56 1zM648 862q5 7 17 4q20 -7 38.5 -18t34.5 -25q8 -8 3 -18l-41 -64q28 -13 53 -35q8 -8 3 -18l-48 -76q-8 -11 -18 -2q-4 4 -17.5 12.5 t-35.5 21.5l-33 -54q-7 -10 -18 -2q-5 4 -23.5 15t-49.5 30q-11 6 -3 17l44 66q-9 6 -22.5 14.5t-32.5 19.5q-11 7 -4 17l49 72q6 8 17 5q15 -5 28.5 -12.5t26.5 -16.5zM596 718q9 -4 18 -9t17 -11l27 41q-7 5 -15.5 10t-19.5 12z" />
<glyph unicode="&#x6a6;" horiz-adv-x="1005" arabic-form="final" d="M778 300q70 106 124 57q55 -50 31 -178q-6 -32 -24 -71q17 -4 41.5 -4t55.5 1q29 2 36 -26q3 -10 3 -19q-1 -72 -39 -75q-89 -7 -173 31q-214 -123 -466 -123q-316 0 -304 175q4 68 51 146q20 32 35 19q8 -7 -2 -28q-33 -62 -21 -84q52 -97 255 -94q101 2 189.5 16.5 t165.5 40.5q-24 29 -14 89q11 61 56 127zM839 234q-42 3 -67 -61q15 -40 52 -40q36 0 58 28q-3 70 -43 73zM702 691q5 7 17 4q20 -7 38.5 -18t34.5 -25q8 -8 3 -18l-41 -64q28 -13 53 -35q8 -8 3 -18l-48 -76q-8 -11 -18 -2q-4 4 -17.5 12.5t-35.5 21.5l-33 -54 q-7 -10 -18 -2q-5 4 -23.5 15t-49.5 30q-11 6 -3 17l44 66q-9 6 -22.5 14.5t-32.5 19.5q-11 7 -4 17l49 72q6 8 17 5q15 -5 28.5 -12.5t26.5 -16.5zM650 547q9 -4 18 -9t17 -11l27 41q-7 5 -15.5 10t-19.5 12z" />
<glyph unicode="&#x6a6;" horiz-adv-x="295" arabic-form="initial" d="M102 443q30 0 50 -20q80 -82 80 -219q0 -80 -29 -118q-81 -104 -203 -101q-24 0 -32 31q-7 30 0 58q7 30 31 31q128 9 184 62q-3 34 -8 39q-6 7 -13 -5q-19 -32 -50 -40q-98 -24 -104 51q-8 88 25 159q33 72 69 72zM77 320q-23 0 -26 -44q8 -2 17.5 -3t21.5 0q23 3 29 12 q-23 35 -42 35zM126 764q5 7 17 4q20 -7 38.5 -18t34.5 -25q8 -8 3 -18l-41 -64q28 -13 53 -35q8 -8 3 -18l-48 -76q-8 -11 -18 -2q-4 4 -17.5 12.5t-35.5 21.5l-33 -54q-7 -10 -18 -2q-5 4 -23.5 15t-49.5 30q-11 6 -3 17l44 66q-9 6 -22.5 14.5t-32.5 19.5q-11 7 -4 17 l49 72q6 8 17 5q15 -5 28.5 -12.5t26.5 -16.5zM74 620q9 -4 18 -9t17 -11l27 41q-7 5 -15.5 10t-19.5 12z" />
<glyph unicode="&#x6a6;" horiz-adv-x="378" arabic-form="medial" d="M283 394q9 0 17 -4q29 -17 38 -65q13 -80 -19 -152q-6 -13 -12.5 -25t-14.5 -25q50 -16 87 -18q22 -1 26 -46t-6 -61q-8 -12 -19 -13q-84 -9 -209 56q-36 -16 -93 -36q-58 -20 -79 -20q-23 0 -30 29q-4 15 -3.5 30t3.5 29q6 27 29 32q48 7 92 21q-1 22 2 44.5t12 45.5 q33 87 118 151q35 27 61 27zM235 259q-52 1 -87 -46q40 -83 126 -20q0 65 -39 66zM214 789q5 7 17 4q20 -7 38.5 -18t34.5 -25q8 -8 3 -18l-41 -64q28 -13 53 -35q8 -8 3 -18l-48 -76q-8 -11 -18 -2q-4 4 -17.5 12.5t-35.5 21.5l-33 -54q-7 -10 -18 -2q-5 4 -23.5 15 t-49.5 30q-11 6 -3 17l44 66q-9 6 -22.5 14.5t-32.5 19.5q-11 7 -4 17l49 72q6 8 17 5q15 -5 28.5 -12.5t26.5 -16.5zM162 645q9 -4 18 -9t17 -11l27 41q-7 5 -15.5 10t-19.5 12z" />
<glyph unicode="&#x684;" horiz-adv-x="661" arabic-form="isolated" d="M270 59q-94 -56 -130 -131q-37 -77 -25 -144q26 -149 202 -183q150 -30 397 1q40 5 40 -14q0 -14 -42 -28q-40 -13 -80 -42t-49 -33q-10 -4 -21 -6q-299 -36 -416 58q-94 75 -82 239q19 256 207 375q-92 14 -149 -15q-11 -5 -17 -2q-8 5 -7 23q3 115 130 118 q11 0 36.5 -3t65.5 -10q65 -11 131 -11.5t133 10.5q53 9 39 -23l-29 -69q-8 -20 -22 -21q-190 -16 -312 -89zM369 -45q6 8 17 5q20 -7 38.5 -18t34.5 -25q9 -9 3 -19l-28 -44q24 -12 45 -30q8 -8 3 -18l-48 -76q-7 -10 -18 -2q-10 8 -72 45q-11 7 -4 17l32 47q-9 5 -21 12.5 t-27 16.5q-10 6 -3 16z" />
<glyph unicode="&#x684;" horiz-adv-x="639" arabic-form="final" d="M83 151q5 123 130 124q18 0 47.5 -3t69.5 -10q65 -11 131 -11.5t133 10.5q53 9 39 -23l-29 -69q-8 -17 -22 -18q-62 -6 -103 -18q28 -39 159 -28q31 3 39 -34q6 -27 -5 -56q-11 -30 -31 -30q-135 0 -176 36t-35 99q-88 -18 -160 -61q-94 -56 -130 -131q-37 -77 -25 -144 q26 -149 202 -183q154 -30 397 1q40 5 40 -14q0 -14 -42 -28q-40 -13 -80 -42t-49 -33q-10 -4 -21 -6q-299 -36 -416 58q-94 75 -82 239q19 256 207 375q-95 14 -164 -20q-25 -12 -24 20zM369 -94q6 8 17 5q20 -7 38.5 -18t34.5 -25q9 -9 3 -19l-28 -44q24 -12 45 -30 q8 -8 3 -18l-48 -76q-7 -10 -18 -2q-10 8 -72 45q-11 7 -4 17l32 47q-9 5 -21 12.5t-27 16.5q-10 6 -3 16z" />
<glyph unicode="&#x684;" horiz-adv-x="655" arabic-form="initial" d="M6 222q9 35 46 70t71 35q17 0 59 -13t106 -40q130 -54 287 -47q28 1 10 -39l-27 -62q-9 -18 -21 -17q-58 10 -112 6.5t-104 -19.5t-95.5 -33.5t-85.5 -37.5q-79 -40 -140 -40q-16 0 -24 19q-13 36 -6 63q8 28 15 32t14 6q154 9 258 58q-142 64 -231 37q-28 -10 -20 22z M276 -36q6 8 17 5q20 -7 38.5 -18t34.5 -25q9 -9 3 -19l-28 -44q24 -12 45 -30q8 -8 3 -18l-48 -76q-7 -10 -18 -2q-10 8 -72 45q-11 7 -4 17l32 47q-9 5 -21 12.5t-27 16.5q-10 6 -3 16z" />
<glyph unicode="&#x684;" horiz-adv-x="610" arabic-form="medial" d="M12 222q27 108 131 108q24 0 61 -11.5t86 -35.5q24 -11 56 -20t73 -15t81 -7t79 3q33 4 26 -22l-22 -74q-6 -17 -28 -16q-20 2 -37 3t-32 2q-13 -37 125 -34q58 1 33 -85q-10 -30 -32 -33q-81 -10 -132 8q-69 25 -37 141q-82 -8 -151 -34q-35 -13 -75.5 -30.5 t-85.5 -40.5q-91 -45 -131 -44q-23 0 -34 27t-4 57t36 36q85 15 145 40q31 13 55 21.5t43 13.5q-141 47 -197 18q-19 -10 -28 -6q-10 4 -4 30zM271 -30q6 8 17 5q20 -7 38.5 -18t34.5 -25q9 -9 3 -19l-28 -44q24 -12 45 -30q8 -8 3 -18l-48 -76q-7 -10 -18 -2q-10 8 -72 45 q-11 7 -4 17l32 47q-9 5 -21 12.5t-27 16.5q-10 6 -3 16z" />
<glyph unicode="&#x683;" horiz-adv-x="661" arabic-form="isolated" d="M270 59q-94 -56 -130 -131q-37 -77 -25 -144q26 -149 202 -183q150 -30 397 1q40 5 40 -14q0 -14 -42 -28q-40 -13 -80 -42t-49 -33q-10 -4 -21 -6q-299 -36 -416 58q-94 75 -82 239q19 256 207 375q-92 14 -149 -15q-11 -5 -17 -2q-8 5 -7 23q3 115 130 118 q11 0 36.5 -3t65.5 -10q65 -11 131 -11.5t133 10.5q53 9 39 -23l-29 -69q-8 -20 -22 -21q-190 -16 -312 -89zM444 -65q6 8 17 5q20 -7 39 -18t35 -25q8 -8 3 -18l-48 -76q-8 -11 -18 -2q-4 4 -17.5 12.5t-35.5 21.5l-33 -54q-7 -10 -18 -2q-5 4 -23.5 15t-49.5 30 q-11 6 -3 17l48 72q6 8 17 5q30 -10 56 -29z" />
<glyph unicode="&#x683;" horiz-adv-x="639" arabic-form="final" d="M83 151q5 123 130 124q18 0 47.5 -3t69.5 -10q65 -11 131 -11.5t133 10.5q53 9 39 -23l-29 -69q-8 -17 -22 -18q-62 -6 -103 -18q28 -39 159 -28q31 3 39 -34q6 -27 -5 -56q-11 -30 -31 -30q-135 0 -176 36t-35 99q-88 -18 -160 -61q-94 -56 -130 -131q-37 -77 -25 -144 q26 -149 202 -183q154 -30 397 1q40 5 40 -14q0 -14 -42 -28q-40 -13 -80 -42t-49 -33q-10 -4 -21 -6q-299 -36 -416 58q-94 75 -82 239q19 256 207 375q-95 14 -164 -20q-25 -12 -24 20zM420 -95q6 8 17 5q20 -7 39 -18t35 -25q8 -8 3 -18l-48 -76q-8 -11 -18 -2 q-4 4 -17.5 12.5t-35.5 21.5l-33 -54q-7 -10 -18 -2q-5 4 -23.5 15t-49.5 30q-11 6 -3 17l48 72q6 8 17 5q30 -10 56 -29z" />
<glyph unicode="&#x683;" horiz-adv-x="655" arabic-form="initial" d="M6 222q9 35 46 70t71 35q17 0 59 -13t106 -40q130 -54 287 -47q28 1 10 -39l-27 -62q-9 -18 -21 -17q-58 10 -112 6.5t-104 -19.5t-95.5 -33.5t-85.5 -37.5q-79 -40 -140 -40q-16 0 -24 19q-13 36 -6 63q8 28 15 32t14 6q154 9 258 58q-142 64 -231 37q-28 -10 -20 22z M327 -37q6 8 17 5q20 -7 39 -18t35 -25q8 -8 3 -18l-48 -76q-8 -11 -18 -2q-4 4 -17.5 12.5t-35.5 21.5l-33 -54q-7 -10 -18 -2q-5 4 -23.5 15t-49.5 30q-11 6 -3 17l48 72q6 8 17 5q30 -10 56 -29z" />
<glyph unicode="&#x683;" horiz-adv-x="610" arabic-form="medial" d="M12 222q27 108 131 108q24 0 61 -11.5t86 -35.5q24 -11 56 -20t73 -15t81 -7t79 3q33 4 26 -22l-22 -74q-6 -17 -28 -16q-20 2 -37 3t-32 2q-13 -37 125 -34q58 1 33 -85q-10 -30 -32 -33q-81 -10 -132 8q-69 25 -37 141q-82 -8 -151 -34q-35 -13 -75.5 -30.5 t-85.5 -40.5q-91 -45 -131 -44q-23 0 -34 27t-4 57t36 36q85 15 145 40q31 13 55 21.5t43 13.5q-141 47 -197 18q-19 -10 -28 -6q-10 4 -4 30zM322 -31q6 8 17 5q20 -7 39 -18t35 -25q8 -8 3 -18l-48 -76q-8 -11 -18 -2q-4 4 -17.5 12.5t-35.5 21.5l-33 -54q-7 -10 -18 -2 q-5 4 -23.5 15t-49.5 30q-11 6 -3 17l48 72q6 8 17 5q30 -10 56 -29z" />
<glyph unicode="&#x686;" horiz-adv-x="661" arabic-form="isolated" d="M270 59q-94 -56 -130 -131q-37 -77 -25 -144q26 -149 202 -183q150 -30 397 1q40 5 40 -14q0 -14 -42 -28q-40 -13 -80 -42t-49 -33q-10 -4 -21 -6q-299 -36 -416 58q-94 75 -82 239q19 256 207 375q-92 14 -149 -15q-11 -5 -17 -2q-8 5 -7 23q3 115 130 118 q11 0 36.5 -3t65.5 -10q65 -11 131 -11.5t133 10.5q53 9 39 -23l-29 -69q-8 -20 -22 -21q-190 -16 -312 -89zM369 -169q-6 -8 -17 -5q-20 8 -38.5 18.5t-34.5 24.5q-9 7 -3 17l48 76q8 11 17 3q5 -4 16.5 -11.5t29.5 -18.5l31 50q7 10 18 2q11 -7 72 -45q11 -8 4 -17 l-49 -72q-12 -16 -66 20zM439 -280q-6 -8 -17 -5q-20 8 -38.5 18.5t-34.5 24.5q-9 8 -3 18l47 76q7 10 19 2q11 -7 72 -45q10 -7 3 -16z" />
<glyph unicode="&#x686;" horiz-adv-x="639" arabic-form="final" d="M83 151q5 123 130 124q18 0 47.5 -3t69.5 -10q65 -11 131 -11.5t133 10.5q53 9 39 -23l-29 -69q-8 -17 -22 -18q-62 -6 -103 -18q28 -39 159 -28q31 3 39 -34q6 -27 -5 -56q-11 -30 -31 -30q-135 0 -176 36t-35 99q-88 -18 -160 -61q-94 -56 -130 -131q-37 -77 -25 -144 q26 -149 202 -183q154 -30 397 1q40 5 40 -14q0 -14 -42 -28q-40 -13 -80 -42t-49 -33q-10 -4 -21 -6q-299 -36 -416 58q-94 75 -82 239q19 256 207 375q-95 14 -164 -20q-25 -12 -24 20zM369 -222q-6 -8 -17 -5q-20 8 -38.5 18.5t-34.5 24.5q-9 7 -3 17l48 76q8 11 17 3 q5 -4 16.5 -11.5t29.5 -18.5l31 50q7 10 18 2q11 -7 72 -45q11 -8 4 -17l-49 -72q-12 -16 -66 20zM439 -333q-6 -8 -17 -5q-20 8 -38.5 18.5t-34.5 24.5q-9 8 -3 18l47 76q7 10 19 2q11 -7 72 -45q10 -7 3 -16z" />
<glyph unicode="&#x686;" horiz-adv-x="655" arabic-form="initial" d="M6 222q9 35 46 70t71 35q17 0 59 -13t106 -40q130 -54 287 -47q28 1 10 -39l-27 -62q-9 -18 -21 -17q-58 10 -112 6.5t-104 -19.5t-95.5 -33.5t-85.5 -37.5q-79 -40 -140 -40q-16 0 -24 19q-13 36 -6 63q8 28 15 32t14 6q154 9 258 58q-142 64 -231 37q-28 -10 -20 22z M276 -189q-6 -8 -17 -5q-20 8 -38.5 18.5t-34.5 24.5q-9 7 -3 17l48 76q8 11 17 3q5 -4 16.5 -11.5t29.5 -18.5l31 50q7 10 18 2q11 -7 72 -45q11 -8 4 -17l-49 -72q-12 -16 -66 20zM346 -300q-6 -8 -17 -5q-20 8 -38.5 18.5t-34.5 24.5q-9 8 -3 18l47 76q7 10 19 2 q11 -7 72 -45q10 -7 3 -16z" />
<glyph unicode="&#x686;" horiz-adv-x="610" arabic-form="medial" d="M12 222q27 108 131 108q24 0 61 -11.5t86 -35.5q24 -11 56 -20t73 -15t81 -7t79 3q33 4 26 -22l-22 -74q-6 -17 -28 -16q-20 2 -37 3t-32 2q-13 -37 125 -34q58 1 33 -85q-10 -30 -32 -33q-81 -10 -132 8q-69 25 -37 141q-82 -8 -151 -34q-35 -13 -75.5 -30.5 t-85.5 -40.5q-91 -45 -131 -44q-23 0 -34 27t-4 57t36 36q85 15 145 40q31 13 55 21.5t43 13.5q-141 47 -197 18q-19 -10 -28 -6q-10 4 -4 30zM271 -183q-6 -8 -17 -5q-20 8 -38.5 18.5t-34.5 24.5q-9 7 -3 17l48 76q8 11 17 3q5 -4 16.5 -11.5t29.5 -18.5l31 50q7 10 18 2 q11 -7 72 -45q11 -8 4 -17l-49 -72q-12 -16 -66 20zM341 -294q-6 -8 -17 -5q-20 8 -38.5 18.5t-34.5 24.5q-9 8 -3 18l47 76q7 10 19 2q11 -7 72 -45q10 -7 3 -16z" />
<glyph unicode="&#x687;" horiz-adv-x="661" arabic-form="isolated" d="M270 59q-94 -56 -130 -131q-37 -77 -25 -144q26 -149 202 -183q150 -30 397 1q40 5 40 -14q0 -14 -42 -28q-40 -13 -80 -42t-49 -33q-10 -4 -21 -6q-299 -36 -416 58q-94 75 -82 239q19 256 207 375q-92 14 -149 -15q-11 -5 -17 -2q-8 5 -7 23q3 115 130 118 q11 0 36.5 -3t65.5 -10q65 -11 131 -11.5t133 10.5q53 9 39 -23l-29 -69q-8 -20 -22 -21q-190 -16 -312 -89zM418 -12q5 7 17 4q20 -7 38.5 -18t34.5 -25q8 -8 3 -18l-41 -64q28 -13 53 -35q8 -8 3 -18l-48 -76q-8 -11 -18 -2q-4 4 -17.5 12.5t-35.5 21.5l-33 -54 q-7 -10 -18 -2q-5 4 -23.5 15t-49.5 30q-11 6 -3 17l44 66q-9 6 -22.5 14.5t-32.5 19.5q-11 7 -4 17l49 72q6 8 17 5q15 -5 28.5 -12.5t26.5 -16.5zM366 -156q9 -4 18 -9t17 -11l27 41q-7 5 -15.5 10t-19.5 12z" />
<glyph unicode="&#x687;" horiz-adv-x="639" arabic-form="final" d="M83 151q5 123 130 124q18 0 47.5 -3t69.5 -10q65 -11 131 -11.5t133 10.5q53 9 39 -23l-29 -69q-8 -17 -22 -18q-62 -6 -103 -18q28 -39 159 -28q31 3 39 -34q6 -27 -5 -56q-11 -30 -31 -30q-135 0 -176 36t-35 99q-88 -18 -160 -61q-94 -56 -130 -131q-37 -77 -25 -144 q26 -149 202 -183q154 -30 397 1q40 5 40 -14q0 -14 -42 -28q-40 -13 -80 -42t-49 -33q-10 -4 -21 -6q-299 -36 -416 58q-94 75 -82 239q19 256 207 375q-95 14 -164 -20q-25 -12 -24 20zM418 -46q5 7 17 4q20 -7 38.5 -18t34.5 -25q8 -8 3 -18l-41 -64q28 -13 53 -35 q8 -8 3 -18l-48 -76q-8 -11 -18 -2q-4 4 -17.5 12.5t-35.5 21.5l-33 -54q-7 -10 -18 -2q-5 4 -23.5 15t-49.5 30q-11 6 -3 17l44 66q-9 6 -22.5 14.5t-32.5 19.5q-11 7 -4 17l49 72q6 8 17 5q15 -5 28.5 -12.5t26.5 -16.5zM366 -190q9 -4 18 -9t17 -11l27 41q-7 5 -15.5 10 t-19.5 12z" />
<glyph unicode="&#x687;" horiz-adv-x="655" arabic-form="initial" d="M6 222q9 35 46 70t71 35q17 0 59 -13t106 -40q130 -54 287 -47q28 1 10 -39l-27 -62q-9 -18 -21 -17q-58 10 -112 6.5t-104 -19.5t-95.5 -33.5t-85.5 -37.5q-79 -40 -140 -40q-16 0 -24 19q-13 36 -6 63q8 28 15 32t14 6q154 9 258 58q-142 64 -231 37q-28 -10 -20 22z M325 -13q5 7 17 4q20 -7 38.5 -18t34.5 -25q8 -8 3 -18l-41 -64q28 -13 53 -35q8 -8 3 -18l-48 -76q-8 -11 -18 -2q-4 4 -17.5 12.5t-35.5 21.5l-33 -54q-7 -10 -18 -2q-5 4 -23.5 15t-49.5 30q-11 6 -3 17l44 66q-9 6 -22.5 14.5t-32.5 19.5q-11 7 -4 17l49 72q6 8 17 5 q15 -5 28.5 -12.5t26.5 -16.5zM273 -157q9 -4 18 -9t17 -11l27 41q-7 5 -15.5 10t-19.5 12z" />
<glyph unicode="&#x687;" horiz-adv-x="610" arabic-form="medial" d="M12 222q27 108 131 108q24 0 61 -11.5t86 -35.5q24 -11 56 -20t73 -15t81 -7t79 3q33 4 26 -22l-22 -74q-6 -17 -28 -16q-20 2 -37 3t-32 2q-13 -37 125 -34q58 1 33 -85q-10 -30 -32 -33q-81 -10 -132 8q-69 25 -37 141q-82 -8 -151 -34q-35 -13 -75.5 -30.5 t-85.5 -40.5q-91 -45 -131 -44q-23 0 -34 27t-4 57t36 36q85 15 145 40q31 13 55 21.5t43 13.5q-141 47 -197 18q-19 -10 -28 -6q-10 4 -4 30zM321 -7q5 7 17 4q20 -7 38.5 -18t34.5 -25q8 -8 3 -18l-41 -64q28 -13 53 -35q8 -8 3 -18l-48 -76q-8 -11 -18 -2 q-4 4 -17.5 12.5t-35.5 21.5l-33 -54q-7 -10 -18 -2q-5 4 -23.5 15t-49.5 30q-11 6 -3 17l44 66q-9 6 -22.5 14.5t-32.5 19.5q-11 7 -4 17l49 72q6 8 17 5q15 -5 28.5 -12.5t26.5 -16.5zM269 -151q9 -4 18 -9t17 -11l27 41q-7 5 -15.5 10t-19.5 12z" />
<glyph unicode="&#x68d;" horiz-adv-x="450" arabic-form="isolated" d="M180 285q-20 9 -8 44q6 17 12.5 31.5t12.5 26.5q12 24 32 13q123 -72 150 -207q7 -36 6.5 -67.5t-10.5 -58.5q-10 -33 -30 -41q-106 -43 -180 -47q-111 -8 -79 120q6 25 19 25q10 0 17 -12q8 -12 91 -2t130 33q-15 76 -163 142zM273 -85q6 8 17 5q20 -7 39 -18t35 -25 q8 -8 3 -18l-48 -76q-8 -11 -18 -2q-4 4 -17.5 12.5t-35.5 21.5l-33 -54q-7 -10 -18 -2q-5 4 -23.5 15t-49.5 30q-11 6 -3 17l48 72q6 8 17 5q30 -10 56 -29z" />
<glyph unicode="&#x68d;" horiz-adv-x="471" arabic-form="final" d="M504 69q7 -28 0 -52q-11 -32 -33 -32q-77 2 -103 134q-32 -76 -76 -96q-21 -10 -54 -14t-78 -4q-137 0 -82 151q6 16 17 16q9 0 17 -19q7 -18 23 -21q94 -15 167 13q39 15 47 44q0 5 -3 31.5t-10 72.5q-13 92 -15 113q-1 20 9 45l23 51q6 14 17 14q10 0 12 -16 q15 -122 27 -201t22 -116q19 -73 40 -79q26 -8 33 -35zM273 -60q6 8 17 5q20 -7 39 -18t35 -25q8 -8 3 -18l-48 -76q-8 -11 -18 -2q-4 4 -17.5 12.5t-35.5 21.5l-33 -54q-7 -10 -18 -2q-5 4 -23.5 15t-49.5 30q-11 6 -3 17l48 72q6 8 17 5q30 -10 56 -29z" />
<glyph unicode="&#x68c;" horiz-adv-x="450" arabic-form="isolated" d="M180 285q-20 9 -8 44q6 17 12.5 31.5t12.5 26.5q12 24 32 13q123 -72 150 -207q7 -36 6.5 -67.5t-10.5 -58.5q-10 -33 -30 -41q-106 -43 -180 -47q-111 -8 -79 120q6 25 19 25q10 0 17 -12q8 -12 91 -2t130 33q-15 76 -163 142zM232 671q6 8 17 5q20 -7 39 -18t35 -25 q8 -8 3 -18l-48 -76q-8 -11 -18 -2q-4 4 -17.5 12.5t-35.5 21.5l-33 -54q-7 -10 -18 -2q-5 4 -23.5 15t-49.5 30q-11 6 -3 17l48 72q6 8 17 5q30 -10 56 -29z" />
<glyph unicode="&#x68c;" horiz-adv-x="471" arabic-form="final" d="M504 69q7 -28 0 -52q-11 -32 -33 -32q-77 2 -103 134q-32 -76 -76 -96q-21 -10 -54 -14t-78 -4q-137 0 -82 151q6 16 17 16q9 0 17 -19q7 -18 23 -21q94 -15 167 13q39 15 47 44q0 5 -3 31.5t-10 72.5q-13 92 -15 113q-1 20 9 45l23 51q6 14 17 14q10 0 12 -16 q15 -122 27 -201t22 -116q19 -73 40 -79q26 -8 33 -35zM361 719q6 8 17 5q20 -7 39 -18t35 -25q8 -8 3 -18l-48 -76q-8 -11 -18 -2q-4 4 -17.5 12.5t-35.5 21.5l-33 -54q-7 -10 -18 -2q-5 4 -23.5 15t-49.5 30q-11 6 -3 17l48 72q6 8 17 5q30 -10 56 -29z" />
<glyph unicode="&#x68e;" horiz-adv-x="450" arabic-form="isolated" d="M180 285q-20 9 -8 44q6 17 12.5 31.5t12.5 26.5q12 24 32 13q123 -72 150 -207q7 -36 6.5 -67.5t-10.5 -58.5q-10 -33 -30 -41q-106 -43 -180 -47q-111 -8 -79 120q6 25 19 25q10 0 17 -12q8 -12 91 -2t130 33q-15 76 -163 142zM228 671q6 9 18 5q20 -7 38.5 -18 t34.5 -25q8 -8 3 -18l-48 -76q-8 -11 -17 -3q-4 4 -16 11.5t-30 18.5l-31 -49q-7 -10 -18 -3q-5 4 -23.5 15.5t-49.5 30.5q-10 6 -3 16l48 72q12 17 66 -19zM158 783q6 8 17 5q20 -7 38.5 -18t34.5 -25q8 -8 3 -18l-48 -76q-7 -10 -18 -2q-10 8 -72 45q-11 6 -4 16z" />
<glyph unicode="&#x68e;" horiz-adv-x="471" arabic-form="final" d="M504 69q7 -28 0 -52q-11 -32 -33 -32q-77 2 -103 134q-32 -76 -76 -96q-21 -10 -54 -14t-78 -4q-137 0 -82 151q6 16 17 16q9 0 17 -19q7 -18 23 -21q94 -15 167 13q39 15 47 44q0 5 -3 31.5t-10 72.5q-13 92 -15 113q-1 20 9 45l23 51q6 14 17 14q10 0 12 -16 q15 -122 27 -201t22 -116q19 -73 40 -79q26 -8 33 -35zM357 719q6 9 18 5q20 -7 38.5 -18t34.5 -25q8 -8 3 -18l-48 -76q-8 -11 -17 -3q-4 4 -16 11.5t-30 18.5l-31 -49q-7 -10 -18 -3q-5 4 -23.5 15.5t-49.5 30.5q-10 6 -3 16l48 72q12 17 66 -19zM287 831q6 8 17 5 q20 -7 38.5 -18t34.5 -25q8 -8 3 -18l-48 -76q-7 -10 -18 -2q-10 8 -72 45q-11 6 -4 16z" />
<glyph unicode="&#x688;" horiz-adv-x="450" arabic-form="isolated" d="M180 285q-20 9 -8 44q6 17 12.5 31.5t12.5 26.5q12 24 32 13q123 -72 150 -207q7 -36 6.5 -67.5t-10.5 -58.5q-10 -33 -30 -41q-106 -43 -180 -47q-111 -8 -79 120q6 25 19 25q10 0 17 -12q8 -12 91 -2t130 33q-15 76 -163 142zM169 845q16 7 20 -18q8 -60 11.5 -105.5 t1.5 -76.5q12 12 25 23t27 21q29 21 54 11t37 -40q12 -31 -27 -81q-4 -6 -21 -13t-46 -16q-28 -9 -58 -13.5t-60 -6.5h-2q-28 4 -49 24t-21 30q1 8 12 8q17 -1 35 -1.5t36 0.5l23 23q2 35 -2.5 83t-14.5 108q0 5 6 20q6 16 13 20zM255 641q-7 -3 -21 -14t-34 -29 q49 10 98 33q-15 20 -43 10z" />
<glyph unicode="&#x688;" horiz-adv-x="471" arabic-form="final" d="M504 69q7 -28 0 -52q-11 -32 -33 -32q-77 2 -103 134q-32 -76 -76 -96q-21 -10 -54 -14t-78 -4q-137 0 -82 151q6 16 17 16q9 0 17 -19q7 -18 23 -21q94 -15 167 13q39 15 47 44q0 5 -3 31.5t-10 72.5q-13 92 -15 113q-1 20 9 45l23 51q6 14 17 14q10 0 12 -16 q15 -122 27 -201t22 -116q19 -73 40 -79q26 -8 33 -35zM298 894q16 7 20 -18q8 -60 11.5 -105.5t1.5 -76.5q12 12 25 23t27 21q29 21 54 11t37 -40q12 -31 -27 -81q-4 -6 -21 -13t-46 -16q-28 -9 -58 -13.5t-60 -6.5h-2q-28 4 -49 24t-21 30q1 8 12 8q17 -1 35 -1.5t36 0.5 l23 23q2 35 -2.5 83t-14.5 108q0 5 6 20q6 16 13 20zM384 690q-7 -3 -21 -14t-34 -29q49 10 98 33q-15 20 -43 10z" />
<glyph unicode="&#x698;" horiz-adv-x="399" arabic-form="isolated" d="M237 295q2 9 7 11q11 3 32 -23q16 -19 30 -47t24 -66q47 -168 -60 -306q-62 -80 -152 -104q-33 -9 -56 2q-44 19 -78.5 34.5t-59.5 27.5q-16 9 -11 20q6 12 22 8q68 -20 108 -10q43 11 110 51q118 71 143 138q1 2 1 6q-9 47 -85 126q-7 7 -4 19zM207 543q6 9 18 5 q20 -7 38.5 -18t34.5 -25q8 -8 3 -18l-48 -76q-8 -11 -17 -3q-4 4 -16 11.5t-30 18.5l-31 -49q-7 -10 -18 -3q-5 4 -23.5 15.5t-49.5 30.5q-10 6 -3 16l48 72q12 17 66 -19zM137 655q6 8 17 5q20 -7 38.5 -18t34.5 -25q8 -8 3 -18l-48 -76q-7 -10 -18 -2q-10 8 -72 45 q-11 6 -4 16z" />
<glyph unicode="&#x698;" horiz-adv-x="343" arabic-form="final" d="M216 68l37 87q14 34 31 2q8 -16 13.5 -26t8.5 -15q6 -9 38 -11q36 -2 38 -59q0 -59 -37 -61h-34q-4 -56 -21.5 -104t-47.5 -87q-60 -78 -121 -87q-62 -9 -122 17q-31 14 -49 23l-26 13q-15 9 -9 19q5 11 21 6q58 -15 106 -3q85 21 152 91q66 69 71 101q2 13 -41 56 q-17 17 -8 38zM197 482q6 9 18 5q20 -7 38.5 -18t34.5 -25q8 -8 3 -18l-48 -76q-8 -11 -17 -3q-4 4 -16 11.5t-30 18.5l-31 -49q-7 -10 -18 -3q-5 4 -23.5 15.5t-49.5 30.5q-10 6 -3 16l48 72q12 17 66 -19zM127 594q6 8 17 5q20 -7 38.5 -18t34.5 -25q8 -8 3 -18l-48 -76 q-7 -10 -18 -2q-10 8 -72 45q-11 6 -4 16z" />
<glyph unicode="&#x691;" horiz-adv-x="399" arabic-form="isolated" d="M237 295q2 9 7 11q11 3 32 -23q16 -19 30 -47t24 -66q47 -168 -60 -306q-62 -80 -152 -104q-33 -9 -56 2q-44 19 -78.5 34.5t-59.5 27.5q-16 9 -11 20q6 12 22 8q68 -20 108 -10q43 11 110 51q118 71 143 138q1 2 1 6q-9 47 -85 126q-7 7 -4 19zM124 742q16 7 20 -18 q8 -60 11.5 -105.5t1.5 -76.5q12 12 25 23t27 21q29 21 54 11t37 -40q12 -31 -27 -81q-4 -6 -21 -13t-46 -16q-28 -9 -58 -13.5t-60 -6.5h-2q-28 4 -49 24t-21 30q1 8 12 8q17 -1 35 -1.5t36 0.5l23 23q2 35 -2.5 83t-14.5 108q0 5 6 20q6 16 13 20zM210 538q-7 -3 -21 -14 t-34 -29q49 10 98 33q-15 20 -43 10z" />
<glyph unicode="&#x691;" horiz-adv-x="343" arabic-form="final" d="M216 68l37 87q14 34 31 2q8 -16 13.5 -26t8.5 -15q6 -9 38 -11q36 -2 38 -59q0 -59 -37 -61h-34q-4 -56 -21.5 -104t-47.5 -87q-60 -78 -121 -87q-62 -9 -122 17q-31 14 -49 23l-26 13q-15 9 -9 19q5 11 21 6q58 -15 106 -3q85 21 152 91q66 69 71 101q2 13 -41 56 q-17 17 -8 38zM138 608q16 7 20 -18q8 -60 11.5 -105.5t1.5 -76.5q12 12 25 23t27 21q29 21 54 11t37 -40q12 -31 -27 -81q-4 -6 -21 -13t-46 -16q-28 -9 -58 -13.5t-60 -6.5h-2q-28 4 -49 24t-21 30q1 8 12 8q17 -1 35 -1.5t36 0.5l23 23q2 35 -2.5 83t-14.5 108q0 5 6 20 q6 16 13 20zM224 404q-7 -3 -21 -14t-34 -29q49 10 98 33q-15 20 -43 10z" />
<glyph unicode="&#x6a9;" horiz-adv-x="1202" arabic-form="isolated" d="M792 166q-90 120 -190 159q-24 9 -27 83q-3 77 35 110q76 69 204.5 131t310.5 117q27 8 20 -17l-24 -88q-6 -22 -23 -28q-193 -67 -314 -118t-168 -84q209 -113 209 -259q0 -164 -257 -223q-64 -14 -123 -22t-112 -8q-251 -1 -269 171q-2 20 0.5 42.5t9.5 47.5 q14 51 31 73t28 14q11 -7 -3 -33q-50 -92 11 -136q100 -72 318 -45q233 28 333 113z" />
<glyph unicode="&#x6a9;" horiz-adv-x="1132" arabic-form="final" d="M798 168q-21 74 -208 167q-19 33 -18 96q0 42 12 58q117 172 503 339q34 16 25 -24l-21 -87q-3 -15 -21 -24q-163 -81 -274.5 -147.5t-173.5 -118.5q183 -80 343 -225q99 -90 168 -98q55 -6 28 -91q-9 -28 -30 -28q-84 0 -219 143q-23 24 -42.5 42.5t-36.5 31.5 q0 -38 -3 -56q-22 -143 -262 -197q-64 -14 -123 -22t-112 -8q-252 -2 -269 171q-2 20 0.5 42.5t9.5 47.5q14 51 31 73t28 14q11 -7 -3 -33q-50 -92 11 -136q100 -72 318 -45q226 27 339 115z" />
<glyph unicode="&#x6a9;" horiz-adv-x="659" arabic-form="initial" d="M2 105q159 -21 247 61q-90 120 -190 159q-24 9 -27 83q-3 76 34 110q152 139 516 248q26 8 19 -17l-24 -88q-6 -22 -23 -28q-193 -67 -314 -118t-168 -84q209 -113 209 -259q0 -150 -102 -176q-109 -27 -190 -12q-22 4 -27 35q-3 23 -4 36.5t0 17.5q11 37 44 32z" />
<glyph unicode="&#x6a9;" horiz-adv-x="588" arabic-form="medial" d="M-42 60q0 49 55 44q77 -6 137.5 9.5t103.5 54.5q-21 74 -207 167q-20 35 -19 96q0 40 13 58q59 86 184.5 171.5t318.5 167.5q15 7 22 2t2 -26l-20 -87q-4 -15 -21 -24q-163 -81 -274.5 -147.5t-173.5 -118.5q182 -79 342 -225q99 -90 168 -98q55 -6 28 -91 q-9 -28 -30 -28q-83 0 -218 143q-47 48 -80 74q0 -38 -3 -56q-25 -167 -239 -167q-35 0 -58 5q-31 7 -31 76z" />
<glyph unicode="&#x6af;" horiz-adv-x="1202" arabic-form="isolated" d="M792 166q-90 120 -190 159q-24 9 -27 83q-3 77 35 110q76 69 204.5 131t310.5 117q27 8 20 -17l-24 -88q-6 -22 -23 -28q-193 -67 -314 -118t-168 -84q209 -113 209 -259q0 -164 -257 -223q-64 -14 -123 -22t-112 -8q-251 -1 -269 171q-2 20 0.5 42.5t9.5 47.5 q14 51 31 73t28 14q11 -7 -3 -33q-50 -92 11 -136q100 -72 318 -45q233 28 333 113zM656 628q-11 -6 -21 -1q-17 11 -2 32t29 35t27 20q85 41 196 81t249 80q10 3 22 -8q11 -10 -13 -39q-3 -4 -5.5 -6.5l-3.5 -3.5q-23 -27 -44 -33q-89 -24 -197.5 -63t-236.5 -94z" />
<glyph unicode="&#x6af;" horiz-adv-x="1132" arabic-form="final" d="M659 665q-11 -6 -20 -3q-20 8 -7 31q12 23 25 38t26 23q80 50 186 101.5t239 106.5q11 5 22 -5q12 -11 -9 -41q-2 -4 -4 -6t-3 -4q-22 -32 -41 -39q-86 -34 -189.5 -84t-224.5 -118zM798 168q-21 74 -208 167q-19 33 -18 96q0 42 12 58q117 172 503 339q34 16 25 -24 l-21 -87q-3 -15 -21 -24q-163 -81 -274.5 -147.5t-173.5 -118.5q183 -80 343 -225q99 -90 168 -98q55 -6 28 -91q-9 -28 -30 -28q-84 0 -219 143q-23 24 -42.5 42.5t-36.5 31.5q0 -38 -3 -56q-22 -143 -262 -197q-64 -14 -123 -22t-112 -8q-252 -2 -269 171q-2 20 0.5 42.5 t9.5 47.5q14 51 31 73t28 14q11 -7 -3 -33q-50 -92 11 -136q100 -72 318 -45q226 27 339 115z" />
<glyph unicode="&#x6af;" horiz-adv-x="659" arabic-form="initial" d="M2 105q159 -21 247 61q-90 120 -190 159q-24 9 -27 83q-3 76 34 110q152 139 516 248q26 8 19 -17l-24 -88q-6 -22 -23 -28q-193 -67 -314 -118t-168 -84q209 -113 209 -259q0 -150 -102 -176q-109 -27 -190 -12q-22 4 -27 35q-3 23 -4 36.5t0 17.5q11 37 44 32zM112 628 q-11 -6 -21 -1q-17 11 -2 32t29 35t27 20q85 41 196 81t249 80q10 3 22 -8q11 -10 -13 -39q-3 -4 -5.5 -6.5l-3.5 -3.5q-23 -27 -44 -33q-89 -24 -197.5 -63t-236.5 -94z" />
<glyph unicode="&#x6af;" horiz-adv-x="588" arabic-form="medial" d="M-42 60q0 49 55 44q77 -6 137.5 9.5t103.5 54.5q-21 74 -207 167q-20 35 -19 96q0 40 13 58q59 86 184.5 171.5t318.5 167.5q15 7 22 2t2 -26l-20 -87q-4 -15 -21 -24q-163 -81 -274.5 -147.5t-173.5 -118.5q182 -79 342 -225q99 -90 168 -98q55 -6 28 -91 q-9 -28 -30 -28q-83 0 -218 143q-47 48 -80 74q0 -38 -3 -56q-25 -167 -239 -167q-35 0 -58 5q-31 7 -31 76zM116 665q-11 -6 -20 -3q-20 8 -7 31q12 23 25 38t26 23q80 50 186 101.5t239 106.5q11 5 22 -5q12 -11 -9 -41q-2 -4 -4 -6t-3 -4q-22 -32 -41 -39 q-86 -34 -189.5 -84t-224.5 -118z" />
<glyph unicode="&#x6b3;" horiz-adv-x="1202" arabic-form="isolated" d="M432 -71q6 8 17 5q20 -7 38.5 -18t34.5 -25q9 -9 3 -19l-28 -44q24 -12 45 -30q8 -8 3 -18l-48 -76q-7 -10 -18 -2q-10 8 -72 45q-11 7 -4 17l32 47q-9 5 -21 12.5t-27 16.5q-10 6 -3 16zM792 166q-90 120 -190 159q-24 9 -27 83q-3 77 35 110q76 69 204.5 131t310.5 117 q27 8 20 -17l-24 -88q-6 -22 -23 -28q-193 -67 -314 -118t-168 -84q209 -113 209 -259q0 -164 -257 -223q-64 -14 -123 -22t-112 -8q-251 -1 -269 171q-2 20 0.5 42.5t9.5 47.5q14 51 31 73t28 14q11 -7 -3 -33q-50 -92 11 -136q100 -72 318 -45q233 28 333 113zM656 628 q-11 -6 -21 -1q-17 11 -2 32t29 35t27 20q85 41 196 81t249 80q10 3 22 -8q11 -10 -13 -39q-3 -4 -5.5 -6.5l-3.5 -3.5q-23 -27 -44 -33q-89 -24 -197.5 -63t-236.5 -94z" />
<glyph unicode="&#x6b3;" horiz-adv-x="1132" arabic-form="final" d="M659 665q-11 -6 -20 -3q-20 8 -7 31q12 23 25 38t26 23q80 50 186 101.5t239 106.5q11 5 22 -5q12 -11 -9 -41q-2 -4 -4 -6t-3 -4q-22 -32 -41 -39q-86 -34 -189.5 -84t-224.5 -118zM798 168q-21 74 -208 167q-19 33 -18 96q0 42 12 58q117 172 503 339q34 16 25 -24 l-21 -87q-3 -15 -21 -24q-163 -81 -274.5 -147.5t-173.5 -118.5q183 -80 343 -225q99 -90 168 -98q55 -6 28 -91q-9 -28 -30 -28q-84 0 -219 143q-23 24 -42.5 42.5t-36.5 31.5q0 -38 -3 -56q-22 -143 -262 -197q-64 -14 -123 -22t-112 -8q-252 -2 -269 171q-2 20 0.5 42.5 t9.5 47.5q14 51 31 73t28 14q11 -7 -3 -33q-50 -92 11 -136q100 -72 318 -45q226 27 339 115zM432 -71q6 8 17 5q20 -7 38.5 -18t34.5 -25q9 -9 3 -19l-28 -44q24 -12 45 -30q8 -8 3 -18l-48 -76q-7 -10 -18 -2q-10 8 -72 45q-11 7 -4 17l32 47q-9 5 -21 12.5t-27 16.5 q-10 6 -3 16z" />
<glyph unicode="&#x6b3;" horiz-adv-x="659" arabic-form="initial" d="M2 105q159 -21 247 61q-90 120 -190 159q-24 9 -27 83q-3 76 34 110q152 139 516 248q26 8 19 -17l-24 -88q-6 -22 -23 -28q-193 -67 -314 -118t-168 -84q209 -113 209 -259q0 -150 -102 -176q-109 -27 -190 -12q-22 4 -27 35q-3 23 -4 36.5t0 17.5q11 37 44 32zM112 628 q-11 -6 -21 -1q-17 11 -2 32t29 35t27 20q85 41 196 81t249 80q10 3 22 -8q11 -10 -13 -39q-3 -4 -5.5 -6.5l-3.5 -3.5q-23 -27 -44 -33q-89 -24 -197.5 -63t-236.5 -94zM110 -17q6 8 17 5q20 -7 38.5 -18t34.5 -25q9 -9 3 -19l-28 -44q24 -12 45 -30q8 -8 3 -18l-48 -76 q-7 -10 -18 -2q-10 8 -72 45q-11 7 -4 17l32 47q-9 5 -21 12.5t-27 16.5q-10 6 -3 16z" />
<glyph unicode="&#x6b3;" horiz-adv-x="588" arabic-form="medial" d="M-42 60q0 49 55 44q77 -6 137.5 9.5t103.5 54.5q-21 74 -207 167q-20 35 -19 96q0 40 13 58q59 86 184.5 171.5t318.5 167.5q15 7 22 2t2 -26l-20 -87q-4 -15 -21 -24q-163 -81 -274.5 -147.5t-173.5 -118.5q182 -79 342 -225q99 -90 168 -98q55 -6 28 -91 q-9 -28 -30 -28q-83 0 -218 143q-47 48 -80 74q0 -38 -3 -56q-25 -167 -239 -167q-35 0 -58 5q-31 7 -31 76zM349 -35q6 8 17 5q20 -7 38.5 -18t34.5 -25q9 -9 3 -19l-28 -44q24 -12 45 -30q8 -8 3 -18l-48 -76q-7 -10 -18 -2q-10 8 -72 45q-11 7 -4 17l32 47q-9 5 -21 12.5 t-27 16.5q-10 6 -3 16zM116 665q-11 -6 -20 -3q-20 8 -7 31q12 23 25 38t26 23q80 50 186 101.5t239 106.5q11 5 22 -5q12 -11 -9 -41q-2 -4 -4 -6t-3 -4q-22 -32 -41 -39q-86 -34 -189.5 -84t-224.5 -118z" />
<glyph unicode="&#x6b1;" horiz-adv-x="1202" arabic-form="isolated" d="M569 781q6 8 17 5q20 -7 39 -18t35 -25q8 -8 3 -18l-48 -76q-8 -11 -18 -2q-4 4 -17.5 12.5t-35.5 21.5l-33 -54q-7 -10 -18 -2q-5 4 -23.5 15t-49.5 30q-11 6 -3 17l48 72q6 8 17 5q30 -10 56 -29zM792 166q-90 120 -190 159q-24 9 -27 83q-3 77 35 110q76 69 204.5 131 t310.5 117q27 8 20 -17l-24 -88q-6 -22 -23 -28q-193 -67 -314 -118t-168 -84q209 -113 209 -259q0 -164 -257 -223q-64 -14 -123 -22t-112 -8q-251 -1 -269 171q-2 20 0.5 42.5t9.5 47.5q14 51 31 73t28 14q11 -7 -3 -33q-50 -92 11 -136q100 -72 318 -45q233 28 333 113z M656 628q-11 -6 -21 -1q-17 11 -2 32t29 35t27 20q85 41 196 81t249 80q10 3 22 -8q11 -10 -13 -39q-3 -4 -5.5 -6.5l-3.5 -3.5q-23 -27 -44 -33q-89 -24 -197.5 -63t-236.5 -94z" />
<glyph unicode="&#x6b1;" horiz-adv-x="1132" arabic-form="final" d="M569 793q6 8 17 5q20 -7 39 -18t35 -25q8 -8 3 -18l-48 -76q-8 -11 -18 -2q-4 4 -17.5 12.5t-35.5 21.5l-33 -54q-7 -10 -18 -2q-5 4 -23.5 15t-49.5 30q-11 6 -3 17l48 72q6 8 17 5q30 -10 56 -29zM659 665q-11 -6 -20 -3q-20 8 -7 31q12 23 25 38t26 23 q80 50 186 101.5t239 106.5q11 5 22 -5q12 -11 -9 -41q-2 -4 -4 -6t-3 -4q-22 -32 -41 -39q-86 -34 -189.5 -84t-224.5 -118zM798 168q-21 74 -208 167q-19 33 -18 96q0 42 12 58q117 172 503 339q34 16 25 -24l-21 -87q-3 -15 -21 -24q-163 -81 -274.5 -147.5 t-173.5 -118.5q183 -80 343 -225q99 -90 168 -98q55 -6 28 -91q-9 -28 -30 -28q-84 0 -219 143q-23 24 -42.5 42.5t-36.5 31.5q0 -38 -3 -56q-22 -143 -262 -197q-64 -14 -123 -22t-112 -8q-252 -2 -269 171q-2 20 0.5 42.5t9.5 47.5q14 51 31 73t28 14q11 -7 -3 -33 q-50 -92 11 -136q100 -72 318 -45q226 27 339 115z" />
<glyph unicode="&#x6b1;" horiz-adv-x="659" arabic-form="initial" d="M2 105q159 -21 247 61q-90 120 -190 159q-24 9 -27 83q-3 76 34 110q152 139 516 248q26 8 19 -17l-24 -88q-6 -22 -23 -28q-193 -67 -314 -118t-168 -84q209 -113 209 -259q0 -150 -102 -176q-109 -27 -190 -12q-22 4 -27 35q-3 23 -4 36.5t0 17.5q11 37 44 32zM74 781 q6 8 17 5q20 -7 39 -18t35 -25q8 -8 3 -18l-48 -76q-8 -11 -18 -2q-4 4 -17.5 12.5t-35.5 21.5l-33 -54q-7 -10 -18 -2q-5 4 -23.5 15t-49.5 30q-11 6 -3 17l48 72q6 8 17 5q30 -10 56 -29zM161 647q-11 -6 -21 -1q-17 11 -2 32t29 35t27 20q85 41 196 81t249 80q10 3 22 -8 q11 -10 -13 -39q-3 -4 -5.5 -6.5l-3.5 -3.5q-23 -27 -44 -33q-89 -24 -197.5 -63t-236.5 -94z" />
<glyph unicode="&#x6b1;" horiz-adv-x="588" arabic-form="medial" d="M-42 60q0 49 55 44q77 -6 137.5 9.5t103.5 54.5q-21 74 -207 167q-20 35 -19 96q0 40 13 58q59 86 184.5 171.5t318.5 167.5q15 7 22 2t2 -26l-20 -87q-4 -15 -21 -24q-163 -81 -274.5 -147.5t-173.5 -118.5q182 -79 342 -225q99 -90 168 -98q55 -6 28 -91 q-9 -28 -30 -28q-83 0 -218 143q-47 48 -80 74q0 -38 -3 -56q-25 -167 -239 -167q-35 0 -58 5q-31 7 -31 76zM74 793q6 8 17 5q20 -7 39 -18t35 -25q8 -8 3 -18l-48 -76q-8 -11 -18 -2q-4 4 -17.5 12.5t-35.5 21.5l-33 -54q-7 -10 -18 -2q-5 4 -23.5 15t-49.5 30 q-11 6 -3 17l48 72q6 8 17 5q30 -10 56 -29zM169 689q-11 -6 -20 -3q-20 8 -7 31q12 23 25 38t26 23q80 50 186 101.5t239 106.5q11 5 22 -5q12 -11 -9 -41q-2 -4 -4 -6t-3 -4q-22 -32 -41 -39q-86 -34 -189.5 -84t-224.5 -118z" />
<glyph unicode="&#x6ba;" horiz-adv-x="572" arabic-form="isolated" d="M456 458q75 -152 53 -338q-3 -23 -10.5 -45t-21.5 -42q-64 -97 -204 -112q-97 -10 -154 44q-56 54 -55 142q2 92 58 174q12 17 20 9q10 -10 0 -26q-54 -95 -18 -155q35 -58 142 -57q133 2 208 81q-4 87 -84 221q-12 20 -6 31l37 84q14 32 35 -11z" />
<glyph unicode="&#x6ba;" horiz-adv-x="615" arabic-form="final" d="M518 154q12 26 32 12q9 -7 36 -49q6 -12 29 -12q24 0 34 -23q11 -25 -1 -56q-12 -32 -19 -36q-8 -5 -14 -5h-22q-6 -72 -52 -165q-81 -166 -282 -171q-85 -1 -143 53q-58 55 -53 136q4 81 73 206q10 18 19 12q10 -7 1 -23q-44 -88 -43 -125q7 -120 158 -121 q165 -2 248 83q7 56 0 105.5t-27 92.5q-7 15 3 36z" />
<glyph unicode="&#x6bb;" horiz-adv-x="572" arabic-form="isolated" d="M456 458q75 -152 53 -338q-3 -23 -10.5 -45t-21.5 -42q-64 -97 -204 -112q-97 -10 -154 44q-56 54 -55 142q2 92 58 174q12 17 20 9q10 -10 0 -26q-54 -95 -18 -155q35 -58 142 -57q133 2 208 81q-4 87 -84 221q-12 20 -6 31l37 84q14 32 35 -11zM233 796q16 7 20 -18 q8 -60 11.5 -105.5t1.5 -76.5q12 12 25 23t27 21q29 21 54 11t37 -40q12 -31 -27 -81q-4 -6 -21 -13t-46 -16q-28 -9 -58 -13.5t-60 -6.5h-2q-28 4 -49 24t-21 30q1 8 12 8q17 -1 35 -1.5t36 0.5l23 23q2 35 -2.5 83t-14.5 108q0 5 6 20q6 16 13 20zM319 592q-7 -3 -21 -14 t-34 -29q49 10 98 33q-15 20 -43 10z" />
<glyph unicode="&#x6bb;" horiz-adv-x="615" arabic-form="final" d="M518 154q12 26 32 12q9 -7 36 -49q6 -12 29 -12q24 0 34 -23q11 -25 -1 -56q-12 -32 -19 -36q-8 -5 -14 -5h-22q-6 -72 -52 -165q-81 -166 -282 -171q-85 -1 -143 53q-58 55 -53 136q4 81 73 206q10 18 19 12q10 -7 1 -23q-44 -88 -43 -125q7 -120 158 -121 q165 -2 248 83q7 56 0 105.5t-27 92.5q-7 15 3 36zM296 503q16 7 20 -18q8 -60 11.5 -105.5t1.5 -76.5q12 12 25 23t27 21q29 21 54 11t37 -40q12 -31 -27 -81q-4 -6 -21 -13t-46 -16q-28 -9 -58 -13.5t-60 -6.5h-2q-28 4 -49 24t-21 30q1 8 12 8q17 -1 35 -1.5t36 0.5 l23 23q2 35 -2.5 83t-14.5 108q0 5 6 20q6 16 13 20zM382 299q-7 -3 -21 -14t-34 -29q49 10 98 33q-15 20 -43 10z" />
<glyph unicode="&#x6bb;" horiz-adv-x="190" arabic-form="initial" d="M51 213l29 62q15 33 26 13q49 -83 23 -194q-25 -109 -129 -109q-20 0 -29 34q-4 17 -6 30.5t-2 23.5q0 20 21 29q8 3 16 3q56 -1 84 23q-6 27 -23 45q-19 21 -10 40zM49 650q16 7 20 -18q8 -60 11.5 -105.5t1.5 -76.5q12 12 25 23t27 21q29 21 54 11t37 -40 q12 -31 -27 -81q-4 -6 -21 -13t-46 -16q-28 -9 -58 -13.5t-60 -6.5h-2q-28 4 -49 24t-21 30q1 8 12 8q17 -1 35 -1.5t36 0.5l23 23q2 35 -2.5 83t-14.5 108q0 5 6 20q6 16 13 20zM135 446q-7 -3 -21 -14t-34 -29q49 10 98 33q-15 20 -43 10z" />
<glyph unicode="&#x6bb;" horiz-adv-x="244" arabic-form="medial" d="M182 145q31 -38 62 -41q28 -3 32 -20q3 -12 0 -42q-1 -15 -4.5 -25.5t-6.5 -17.5q-6 -14 -21 -14q-56 0 -108 64q-62 -64 -136 -64q-21 0 -27 27l-9 41q-3 16 8 33q11 18 28 19q119 9 146 59q9 15 19 15q15 0 15 -17q0 -8 1 -12t1 -5zM86 635q16 7 20 -18 q8 -60 11.5 -105.5t1.5 -76.5q12 12 25 23t27 21q29 21 54 11t37 -40q12 -31 -27 -81q-4 -6 -21 -13t-46 -16q-28 -9 -58 -13.5t-60 -6.5h-2q-28 4 -49 24t-21 30q1 8 12 8q17 -1 35 -1.5t36 0.5l23 23q2 35 -2.5 83t-14.5 108q0 5 6 20q6 16 13 20zM172 431q-7 -3 -21 -14 t-34 -29q49 10 98 33q-15 20 -43 10z" />
<glyph unicode="&#x6c0;" horiz-adv-x="369" arabic-form="isolated" d="M149 337q26 17 57 -1q69 -40 93 -104t8 -132q-32 -137 -142 -139q-78 0 -98 56q-20 57 4 143q25 89 67 146q2 26 11 31zM258 122q-37 58 -98 60q-27 2 -39 -21q-33 -60 52 -60q55 0 85 21zM255 541q-53 -10 -76 -18t-83 -34q-18 -8 -28 7q-14 23 30 53q-29 18 -34 41 q-8 44 36 104q44 61 95 56q37 -3 34 -39q-1 -18 -5.5 -30.5t-9.5 -20.5q-12 -17 -15 -19q-14 -10 -25 5q-11 16 -26 17q-16 1 -24 -8q-7 -9 0 -16q31 -29 93 -31q11 0 30 4q11 2 18 3.5t12 1.5q10 0 17 -10q5 -9 2 -18q-21 -43 -41 -48z" />
<glyph unicode="&#x6c0;" horiz-adv-x="379" arabic-form="final" d="M270 546q-53 -10 -76 -18t-83 -34q-18 -8 -28 7q-14 23 30 53q-29 18 -34 41q-8 44 36 104q44 61 95 56q37 -3 34 -39q-1 -18 -5.5 -30.5t-9.5 -20.5q-12 -17 -15 -19q-14 -10 -25 5q-11 16 -26 17q-16 1 -24 -8q-7 -9 0 -16q31 -29 93 -31q11 0 30 4q11 2 18 3.5t12 1.5 q10 0 17 -10q5 -9 2 -18q-21 -43 -41 -48zM259 464q23 30 28 -27l29 -240q11 -93 63 -92q24 0 33 -22q9 -24 -2 -61t-31 -37q-62 0 -88 32q-25 31 -36 109q-38 -57 -53 -64q-14 -7 -51 -4q-48 3 -82 25q-22 14 -19 43t22 64q10 18 18 31t14 20q48 51 121 92q-8 79 4 94z M234 261q-76 -24 -104 -64q-4 -6 3 -10q50 -21 112 -4q-2 16 -5 35.5t-6 42.5z" />
<glyph unicode="&#x6c1;" horiz-adv-x="369" arabic-form="isolated" d="M149 337q26 17 57 -1q69 -40 93 -104t8 -132q-32 -137 -142 -139q-78 0 -98 56q-20 57 4 143q25 89 67 146q2 26 11 31zM258 122q-37 58 -98 60q-27 2 -39 -21q-33 -60 52 -60q55 0 85 21z" />
<glyph unicode="&#x6c1;" horiz-adv-x="408" arabic-form="final" d="M421 105q17 -1 24 -6q19 -12 -1 -68q-15 -44 -49 -45q-115 -6 -184 90q-4 5 -9 3q-5 -4 -18.5 -19t-34.5 -41q-21 -25 -36 -42.5t-23 -26.5q-16 -18 -25 -12t0 21q23 38 46.5 75t48.5 74q26 37 42.5 59.5t25.5 31.5q29 29 51 0q30 -42 67 -67q38 -26 75 -27z" />
<glyph unicode="&#x6c1;" horiz-adv-x="452" arabic-form="initial" d="M136 79q-85 -94 -136 -94q-18 0 -29 24q-35 89 29 96q21 2 36.5 6.5t25.5 9.5q-30 24 -14 72q8 25 22 49.5t36 48.5q-5 3 -17 4q-12 2 -15 12q-3 12 -2 19q26 99 76 99t147 -92q96 -92 107 -150q12 -73 -35 -128q-28 -32 -65 -28q-76 9 -166 52zM241 232q3 -37 -36 -73 q91 -34 143 -36q9 0 5 11q-15 46 -112 98zM162 176q33 17 33 22q-5 58 -31 62q-39 9 -70 -30q-10 -12 8 -23q14 -9 29 -17t31 -14z" />
<glyph unicode="&#x6c1;" horiz-adv-x="460" arabic-form="medial" d="M175 3q-10 -13 -15 -25q-3 -7 -4.5 -11t-2.5 -6q-10 -16 -23 -13q-35 5 -7 48q50 96 110 142q62 47 131 36q26 -6 50 -36q25 -31 47 -34t25 -32q3 -27 -2 -53q-5 -25 -12 -29q-8 -5 -15 -5q-49 3 -98 50q-23 23 -36 26q-95 9 -148 -58zM173 1q-48 -79 -6 -210 q5 -17 -1 -26l-41 -58q-14 -18 -29 0q-83 98 -44 291q-66 -32 -79 13q-8 28 -10 55q-1 24 20 35q6 2 16 4q74 5 143 106q17 26 34 15t-1 -43q-37 -65 -60 -122q-22 -55 -24 -130q14 33 29.5 62t34.5 53q12 17 25 2q12 -14 -7 -47z" />
<glyph unicode="&#x6be;" horiz-adv-x="608" arabic-form="isolated" d="M187 67q-3 20 -2 41.5t7 44.5q12 46 66 106q55 61 92 71q41 11 59 -61q1 -3 7 -7q95 -46 130 -84q14 -16 17 -45t-8 -69t-35 -64q-25 -25 -133 -20q-35 2 -65.5 7.5t-55.5 12.5q-51 -30 -116 -45q-26 -6 -42 2l-51 25q-20 11 -23 23q-2 7 0 12q5 15 33 21q2 1 12 2.5 t26 5.5q17 4 37.5 9t44.5 12zM285 110q39 17 47 29q8 13 -1 42q-9 30 -18 30q-11 0 -35 -21t-41 -53q7 -16 48 -27zM396 155q-9 -33 -28 -61q24 -3 45.5 -4t38.5 -1t26 0.5t10 0.5q-26 30 -92 65z" />
<glyph unicode="&#x6be;" horiz-adv-x="522" arabic-form="final" d="M194 -9q-58 -17 -84 3l-56 40q-22 16 -24 32q-3 23 29 29q3 1 6.5 1t7.5 1q67 8 108 15t56 13q20 54 50 103t68 94q14 16 23.5 25.5t16.5 13.5q13 9 26 3q29 -14 33 -54q13 -137 -81 -230q29 2 65.5 8.5t80.5 16.5q20 4 31 -20q13 -34 -1 -73q-9 -22 -23 -26 q-19 -4 -36.5 -6.5t-34.5 -3.5q18 -40 14 -104q-3 -40 -32 -78t-70 -39q-118 0 -143 205l-30 4v27zM298 -51q16 -52 49 -66q32 -14 63 4q-30 42 -112 62zM387 209q-6 10 -15 10q-10 0 -11 -1q-44 -26 -63 -71q66 30 89 62z" />
<glyph unicode="&#x6be;" horiz-adv-x="452" arabic-form="initial" d="M39 113q-3 33 8 77q11 43 65 103q55 61 92 71q41 11 59 -61q1 -4 6 -7q97 -47 131 -84q13 -14 16 -45t-7 -69q-5 -19 -14.5 -35t-21.5 -28q-25 -25 -112 -21q-87 5 -147 21q-25 -16 -53 -28.5t-57 -20.5q-26 -6 -35 27q-21 69 12 87q4 2 10.5 3t14.5 2q15 1 33 8z M138 144q41 17 48 29q8 13 -1 43q-9 29 -19 29t-34 -21q-25 -22 -41 -52q7 -18 47 -28zM249 190q-4 -16 -10.5 -32t-16.5 -30q24 -3 45 -4t38 -1t26 0.5t10 0.5q-13 15 -36 32t-56 34z" />
<glyph unicode="&#x6be;" horiz-adv-x="390" arabic-form="medial" d="M290 364q29 -13 32 -54q9 -137 -74 -229q28 2 64 7.5t79 15.5q19 4 27 -19q11 -39 -1 -73q-13 -22 -26 -26q-19 -4 -35.5 -6t-31.5 -3q15 -38 10 -92q-2 -26 -10 -48.5t-21 -42.5q-25 -39 -68 -39q-108 0 -134 204l-39 5v37q-36 -16 -63 -16q-25 0 -36 47q-1 6 -2 15 t-3 21q-3 25 24 34q5 2 9.5 2t8.5 1q23 2 52 8t64 18q17 53 43.5 100.5t63.5 90.5q30 33 41 40q13 8 26 2zM149 -43q21 -59 64 -77q42 -18 79 5q-34 61 -143 72zM263 213q-15 23 -37 16q-46 -16 -75 -87q44 19 72 36.5t40 34.5z" />
<glyph unicode="&#x6d2;" horiz-adv-x="1159" arabic-form="isolated" d="M459 272q2 69 -19 78q-13 6 -31 -23q-7 -10 -15.5 -24t-19.5 -32q-23 -37 -48 -62q-24 -24 -100 -56t-93 -49q12 -15 56 -20q38 -4 136.5 -3t255.5 8q164 7 288 10.5t207 2.5q52 0 28 -44l-21 -40q-17 -33 -43 -33q-85 0 -195.5 -2.5t-245.5 -8.5t-231.5 -9t-155.5 -2 q-117 2 -144 46q-13 22 -7 47q16 55 37.5 94.5t49.5 64.5q23 20 91 45q65 24 88 42q22 18 42 56q61 123 110 112q39 -9 31 -100q-1 -22 -5.5 -47t-10.5 -52q-4 -21 -18 -21q-17 0 -17 22z" />
<glyph unicode="&#x6d2;" horiz-adv-x="571" arabic-form="final" d="M571 105q50 -2 37 -63q-7 -37 -17 -47t-20 -10q-259 0 -429 -138l-1 -2q13 -16 48 -19q52 -5 163.5 -4t282.5 10q8 0 13.5 -0.5t9.5 -2.5q22 -12 7 -40l-22 -41q-17 -31 -43 -32q-136 -6 -233.5 -9t-158.5 -2q-122 2 -150 46q-13 22 -7 47q23 88 97 158q157 149 423 149z " />
<glyph unicode="&#x6d3;" horiz-adv-x="1159" arabic-form="isolated" d="M224 555q0 16 17 22t49 -26q6 -6 18 -19t29 -33q72 -80 51 -176q-3 -15 -5 -23.5t-3 -11.5q-9 -19 -18 -16q-5 2 -15 40q-20 78 -100 139q-21 17 -21 37zM299 753q-53 -10 -76 -18t-83 -34q-18 -8 -28 7q-14 23 30 53q-29 18 -34 41q-8 44 36 104q44 61 95 56 q37 -3 34 -39q-1 -18 -5.5 -30.5t-9.5 -20.5q-12 -17 -15 -19q-14 -10 -25 5q-11 16 -26 17q-16 1 -24 -8q-7 -9 0 -16q31 -29 93 -31q11 0 30 4q11 2 18 3.5t12 1.5q10 0 17 -10q5 -9 2 -18q-21 -43 -41 -48zM366 341q22 11 19 -24q-1 -16 -11 -46q-11 -34 -39 -60 q-26 -24 -107 -58q-40 -16 -63.5 -28.5t-31.5 -20.5q12 -15 56 -20q38 -4 136.5 -3t255.5 8q180 8 304 11.5t191 1.5q50 -1 28 -44l-21 -40q-17 -33 -43 -33q-85 0 -195.5 -2.5t-245.5 -8.5t-232.5 -9t-156.5 -2q-115 1 -142 46q-13 22 -7 47q16 55 37.5 94.5t49.5 64.5 q24 21 89 45q32 12 53.5 22.5t31.5 17.5q11 8 19 15t13 12q14 11 12 14z" />
<glyph unicode="&#x6d3;" horiz-adv-x="517" arabic-form="final" d="M148 5q23 20 91 45q33 12 55 23t32 19q11 8 22.5 22t24.5 33q25 38 41 44t27 -5q10 -10 13 -36t-13 -51q-17 -26 -38 -9q-5 8 -39 -43q-10 -14 -19.5 -27t-18.5 -24q-17 -21 -96 -53q-39 -16 -63.5 -28t-33.5 -21q12 -15 56 -20q38 -4 136.5 -3t255.5 8q180 8 304 11.5 t191 1.5q50 -1 28 -44l-21 -40q-17 -33 -43 -33q-85 0 -195.5 -2.5t-245.5 -8.5t-231.5 -9t-154.5 -2q-117 2 -145 46q-13 22 -7 47q30 110 87 159zM485 -10q-73 18 -83 132q-1 13 1.5 23.5t7.5 18.5q9 12 22 15q12 2 16 -13q5 -15 10 -26q20 -36 73 -39q11 0 17 -6 q9 -8 9 -27q0 -20 -17 -62q-7 -18 -23 -18q-17 -1 -33 2zM426 370q-53 -10 -76 -18t-83 -34q-18 -8 -28 7q-14 23 30 53q-29 18 -34 41q-8 44 36 104q44 61 95 56q37 -3 34 -39q-1 -18 -5.5 -30.5t-9.5 -20.5q-12 -17 -15 -19q-14 -10 -25 5q-11 16 -26 17q-16 1 -24 -8 q-7 -9 0 -16q31 -29 93 -31q11 0 30 4q11 2 18 3.5t12 1.5q10 0 17 -10q5 -9 2 -18q-21 -43 -41 -48z" />
<glyph unicode="&#x6ad;" horiz-adv-x="657" arabic-form="isolated" d="M470 804q14 29 34 -13q10 -20 22 -37t28 -30q21 -17 4 -39l-24 -32q33 -176 49.5 -295.5t15.5 -182.5q0 -66 -30 -132q-19 -42 -139 -53q-37 -3 -83.5 -4t-102.5 0t-99.5 3.5t-74.5 7.5q-18 3 -18 15l-2 52t0 51q0 19 17 14q34 -9 68.5 -14t70.5 -6q276 -4 346 32 q2 20 -88 507q-1 12 -20 60q-10 24 1 46zM289 580q9 1 13 -6q5 -8 2 -14l-21 -53q-7 -15 -16 -18q-25 -6 -35 -18q15 -10 46 -15t40 -11q37 -27 -23 -111q-24 -32 -46 -38q-20 -6 -73 -1q-25 2 -45.5 6.5t-36.5 10.5q-15 6 -15 16q0 11 4 15q5 5 21 6q8 1 26.5 1t46.5 1 q55 1 76 9l-28 6q-13 3 -23.5 9.5t-18.5 14.5q-16 18 -12 38q31 128 118 152zM277 788q6 9 18 5q20 -7 38.5 -18t34.5 -25q8 -8 3 -18l-48 -76q-8 -11 -17 -3q-4 4 -16 11.5t-30 18.5l-31 -49q-7 -10 -18 -3q-5 4 -23.5 15.5t-49.5 30.5q-10 6 -3 16l48 72q12 17 66 -19z M207 900q6 8 17 5q20 -7 38.5 -18t34.5 -25q8 -8 3 -18l-48 -76q-7 -10 -18 -2q-10 8 -72 45q-11 6 -4 16z" />
<glyph unicode="&#x6ad;" horiz-adv-x="822" arabic-form="final" d="M823 -15q-108 0 -122 182q-81 -198 -366 -209q-220 -7 -260 100q-40 108 41 222q20 29 31 16t-3 -34q-41 -62 -36 -87q19 -91 210 -94q135 -2 267 52q27 11 45.5 24t27.5 29q2 5 4 14.5t3 24.5t-1.5 60.5t-8.5 121.5t-9.5 115.5t-3.5 41.5q-7 66 5 85l34 51q15 23 24 21 q10 -3 12 -42q1 -13 5 -74.5t12 -170.5q8 -103 17 -168t19 -93q20 -58 53 -68q32 -10 38 -39q6 -28 -7 -55q-12 -26 -31 -26zM440 583q9 1 13 -6q5 -8 2 -14l-21 -53q-7 -15 -16 -18q-25 -6 -35 -18q15 -10 46 -15t40 -11q37 -27 -23 -111q-24 -32 -46 -38q-20 -6 -73 -1 q-25 2 -45.5 6.5t-36.5 10.5q-15 6 -15 16q0 11 4 15q5 5 21 6q8 1 26.5 1t46.5 1q55 1 76 9l-28 6q-13 3 -23.5 9.5t-18.5 14.5q-16 18 -12 38q31 128 118 152zM428 791q6 9 18 5q20 -7 38.5 -18t34.5 -25q8 -8 3 -18l-48 -76q-8 -11 -17 -3q-4 4 -16 11.5t-30 18.5 l-31 -49q-7 -10 -18 -3q-5 4 -23.5 15.5t-49.5 30.5q-10 6 -3 16l48 72q12 17 66 -19zM358 903q6 8 17 5q20 -7 38.5 -18t34.5 -25q8 -8 3 -18l-48 -76q-7 -10 -18 -2q-10 8 -72 45q-11 6 -4 16z" />
<glyph unicode="&#x6ad;" horiz-adv-x="659" arabic-form="initial" d="M2 105q159 -21 247 61q-90 120 -190 159q-24 9 -27 83q-3 76 34 110q152 139 516 248q26 8 19 -17l-24 -88q-6 -22 -23 -28q-193 -67 -314 -118t-168 -84q209 -113 209 -259q0 -150 -102 -176q-109 -27 -190 -12q-22 4 -27 35q-3 23 -4 36.5t0 17.5q11 37 44 32zM161 781 q6 9 18 5q20 -7 38.5 -18t34.5 -25q8 -8 3 -18l-48 -76q-8 -11 -17 -3q-4 4 -16 11.5t-30 18.5l-31 -49q-7 -10 -18 -3q-5 4 -23.5 15.5t-49.5 30.5q-10 6 -3 16l48 72q12 17 66 -19zM91 893q6 8 17 5q20 -7 38.5 -18t34.5 -25q8 -8 3 -18l-48 -76q-7 -10 -18 -2 q-10 8 -72 45q-11 6 -4 16z" />
<glyph unicode="&#x6ad;" horiz-adv-x="588" arabic-form="medial" d="M-42 60q0 49 55 44q77 -6 137.5 9.5t103.5 54.5q-21 74 -207 167q-20 35 -19 96q0 40 13 58q59 86 184.5 171.5t318.5 167.5q15 7 22 2t2 -26l-20 -87q-4 -15 -21 -24q-163 -81 -274.5 -147.5t-173.5 -118.5q182 -79 342 -225q99 -90 168 -98q55 -6 28 -91 q-9 -28 -30 -28q-83 0 -218 143q-47 48 -80 74q0 -38 -3 -56q-25 -167 -239 -167q-35 0 -58 5q-31 7 -31 76zM128 793q6 9 18 5q20 -7 38.5 -18t34.5 -25q8 -8 3 -18l-48 -76q-8 -11 -17 -3q-4 4 -16 11.5t-30 18.5l-31 -49q-7 -10 -18 -3q-5 4 -23.5 15.5t-49.5 30.5 q-10 6 -3 16l48 72q12 17 66 -19zM58 905q6 8 17 5q20 -7 38.5 -18t34.5 -25q8 -8 3 -18l-48 -76q-7 -10 -18 -2q-10 8 -72 45q-11 6 -4 16z" />
<glyph unicode="&#x6c7;" horiz-adv-x="400" arabic-form="isolated" d="M165 204q39 107 86 106q35 -1 63 -46q26 -43 31 -99q5 -55 -18 -147q-22 -91 -87 -169t-109 -82q-36 -5 -106 10q-34 7 -60.5 14.5t-43.5 14.5q-11 5 -8 17q3 13 19 10q60 -9 143 10q41 9 120 78q40 35 64.5 62.5t31.5 49.5q-1 5 -3.5 12.5l-5.5 16.5q-42 -54 -101 -27 q-67 30 -16 169zM260 157q-29 47 -62 4q25 -28 62 -4zM228 664q65 0 65 -103q-2 -80 -78 -207q-12 -21 -28 -12q-17 9 -6 31q61 124 45 170q-8 18 -23 18t-25 -22q-8 -17 -20 -12q-10 4 -9 22q9 115 79 115z" />
<glyph unicode="&#x6c7;" horiz-adv-x="345" arabic-form="final" d="M330 -15q-36 -190 -188 -258q-45 -20 -81 -20q-52 0 -135 70q-15 12 -10 22t25 2q89 -31 201 37t145 152q-75 3 -107 23q-39 24 -26 87q23 99 68 127q49 29 82 -13q24 -31 33 -108q36 2 41 -36q3 -26 -4 -54q-7 -29 -27 -31h-17zM277 101q-20 42 -48 41q-16 -3 -24 -12 q-8 -10 -1 -18q16 -21 69 -19q6 0 4 8zM230 598q65 0 65 -103q-2 -80 -78 -207q-12 -21 -28 -12q-17 9 -6 31q61 124 45 170q-8 18 -23 18t-25 -22q-8 -17 -20 -12q-10 4 -9 22q9 115 79 115z" />
<glyph unicode="&#x6c6;" horiz-adv-x="400" arabic-form="isolated" d="M165 204q39 107 86 106q35 -1 63 -46q26 -43 31 -99q5 -55 -18 -147q-22 -91 -87 -169t-109 -82q-36 -5 -106 10q-34 7 -60.5 14.5t-43.5 14.5q-11 5 -8 17q3 13 19 10q60 -9 143 10q41 9 120 78q40 35 64.5 62.5t31.5 49.5q-1 5 -3.5 12.5l-5.5 16.5q-42 -54 -101 -27 q-67 30 -16 169zM260 157q-29 47 -62 4q25 -28 62 -4zM317 589l19 -27q9 -15 0 -27q-49 -81 -65 -138q-1 -2 -3 -4l-9 -7q-11 -7 -22 5q-28 36 -51 74t-40 78q-11 27 10 33q20 6 29 -17q6 -16 16.5 -37.5t25.5 -47.5q11 33 26.5 61.5t34.5 52.5q9 9 16 9q8 0 13 -8z" />
<glyph unicode="&#x6c6;" horiz-adv-x="345" arabic-form="final" d="M330 -15q-36 -190 -188 -258q-45 -20 -81 -20q-52 0 -135 70q-15 12 -10 22t25 2q89 -31 201 37t145 152q-75 3 -107 23q-39 24 -26 87q23 99 68 127q49 29 82 -13q24 -31 33 -108q36 2 41 -36q3 -26 -4 -54q-7 -29 -27 -31h-17zM277 101q-20 42 -48 41q-16 -3 -24 -12 q-8 -10 -1 -18q16 -21 69 -19q6 0 4 8zM314 526l19 -27q9 -15 0 -27q-49 -81 -65 -138q-1 -2 -3 -4l-9 -7q-11 -7 -22 5q-28 36 -51 74t-40 78q-11 27 10 33q20 6 29 -17q6 -16 16.5 -37.5t25.5 -47.5q11 33 26.5 61.5t34.5 52.5q9 9 16 9q8 0 13 -8z" />
<glyph unicode="&#x6c8;" horiz-adv-x="400" arabic-form="isolated" d="M165 204q39 107 86 106q35 -1 63 -46q26 -43 31 -99q5 -55 -18 -147q-22 -91 -87 -169t-109 -82q-36 -5 -106 10q-34 7 -60.5 14.5t-43.5 14.5q-11 5 -8 17q3 13 19 10q60 -9 143 10q41 9 120 78q40 35 64.5 62.5t31.5 49.5q-1 5 -3.5 12.5l-5.5 16.5q-42 -54 -101 -27 q-67 30 -16 169zM260 157q-29 47 -62 4q25 -28 62 -4zM158 635q10 27 31 2q96 -107 66 -274q-3 -15 -13 -16q-19 -3 -21 16q-14 103 -76 179q-11 14 -6 29z" />
<glyph unicode="&#x6c8;" horiz-adv-x="345" arabic-form="final" d="M330 -15q-36 -190 -188 -258q-45 -20 -81 -20q-52 0 -135 70q-15 12 -10 22t25 2q89 -31 201 37t145 152q-75 3 -107 23q-39 24 -26 87q23 99 68 127q49 29 82 -13q24 -31 33 -108q36 2 41 -36q3 -26 -4 -54q-7 -29 -27 -31h-17zM277 101q-20 42 -48 41q-16 -3 -24 -12 q-8 -10 -1 -18q16 -21 69 -19q6 0 4 8zM155 573q10 27 31 2q96 -107 66 -274q-3 -15 -13 -16q-19 -3 -21 16q-14 103 -76 179q-11 14 -6 29z" />
<glyph unicode="&#x677;" horiz-adv-x="498" arabic-form="isolated" d="M262 204q39 107 86 106q35 -1 63 -46q26 -43 31 -99q5 -55 -18 -147q-22 -91 -87 -169t-109 -82q-36 -5 -106 10q-34 7 -60.5 14.5t-43.5 14.5q-11 5 -8 17q3 13 19 10q60 -9 143 10q41 9 120 78q40 35 64.5 62.5t31.5 49.5q-1 5 -3.5 12.5l-5.5 16.5q-42 -54 -101 -27 q-67 30 -16 169zM357 157q-29 47 -62 4q25 -28 62 -4zM394 449q-53 -10 -76 -18t-83 -34q-18 -8 -28 7q-14 23 30 53q-29 18 -34 41q-8 44 36 104q44 61 95 56q37 -3 34 -39q-1 -18 -5.5 -30.5t-9.5 -20.5q-12 -17 -15 -19q-14 -10 -25 5q-11 16 -26 17q-16 1 -24 -8 q-7 -9 0 -16q31 -29 93 -31q11 0 30 4q11 2 18 3.5t12 1.5q10 0 17 -10q5 -9 2 -18q-21 -43 -41 -48zM103 687q65 0 65 -103q-2 -80 -78 -207q-12 -21 -28 -12q-17 9 -6 31q61 124 45 170q-8 18 -23 18t-25 -22q-8 -17 -20 -12q-10 4 -9 22q9 115 79 115z" />
<glyph unicode="&#x6cb;" horiz-adv-x="400" arabic-form="isolated" d="M165 204q39 107 86 106q35 -1 63 -46q26 -43 31 -99q5 -55 -18 -147q-22 -91 -87 -169t-109 -82q-36 -5 -106 10q-34 7 -60.5 14.5t-43.5 14.5q-11 5 -8 17q3 13 19 10q60 -9 143 10q41 9 120 78q40 35 64.5 62.5t31.5 49.5q-1 5 -3.5 12.5l-5.5 16.5q-42 -54 -101 -27 q-67 30 -16 169zM260 157q-29 47 -62 4q25 -28 62 -4zM223 524q6 9 18 5q20 -7 38.5 -18t34.5 -25q8 -8 3 -18l-48 -76q-8 -11 -17 -3q-4 4 -16 11.5t-30 18.5l-31 -49q-7 -10 -18 -3q-5 4 -23.5 15.5t-49.5 30.5q-10 6 -3 16l48 72q12 17 66 -19zM153 636q6 8 17 5 q20 -7 38.5 -18t34.5 -25q8 -8 3 -18l-48 -76q-7 -10 -18 -2q-10 8 -72 45q-11 6 -4 16z" />
<glyph unicode="&#x6cb;" horiz-adv-x="345" arabic-form="final" d="M330 -15q-36 -190 -188 -258q-45 -20 -81 -20q-52 0 -135 70q-15 12 -10 22t25 2q89 -31 201 37t145 152q-75 3 -107 23q-39 24 -26 87q23 99 68 127q49 29 82 -13q24 -31 33 -108q36 2 41 -36q3 -26 -4 -54q-7 -29 -27 -31h-17zM277 101q-20 42 -48 41q-16 -3 -24 -12 q-8 -10 -1 -18q16 -21 69 -19q6 0 4 8zM220 462q6 9 18 5q20 -7 38.5 -18t34.5 -25q8 -8 3 -18l-48 -76q-8 -11 -17 -3q-4 4 -16 11.5t-30 18.5l-31 -49q-7 -10 -18 -3q-5 4 -23.5 15.5t-49.5 30.5q-10 6 -3 16l48 72q12 17 66 -19zM150 574q6 8 17 5q20 -7 38.5 -18 t34.5 -25q8 -8 3 -18l-48 -76q-7 -10 -18 -2q-10 8 -72 45q-11 6 -4 16z" />
<glyph unicode="&#x6c5;" horiz-adv-x="400" arabic-form="isolated" d="M165 204q39 107 86 106q35 -1 63 -46q26 -43 31 -99q5 -55 -18 -147q-22 -91 -87 -169t-109 -82q-36 -5 -106 10q-34 7 -60.5 14.5t-43.5 14.5q-11 5 -8 17q3 13 19 10q60 -9 143 10q41 9 120 78q40 35 64.5 62.5t31.5 49.5q-1 5 -3.5 12.5l-5.5 16.5q-42 -54 -101 -27 q-67 30 -16 169zM260 157q-29 47 -62 4q25 -28 62 -4zM175 34h251l-37 -91h-251z" />
<glyph unicode="&#x6c5;" horiz-adv-x="345" arabic-form="final" d="M330 -15q-36 -190 -188 -258q-45 -20 -81 -20q-52 0 -135 70q-15 12 -10 22t25 2q89 -31 201 37t145 152q-75 3 -107 23q-39 24 -26 87q23 99 68 127q49 29 82 -13q24 -31 33 -108q36 2 41 -36q3 -26 -4 -54q-7 -29 -27 -31h-17zM277 101q-20 42 -48 41q-16 -3 -24 -12 q-8 -10 -1 -18q16 -21 69 -19q6 0 4 8zM151 -49h251l-37 -91h-251z" />
<glyph unicode="&#x6c9;" horiz-adv-x="400" arabic-form="isolated" d="M165 204q39 107 86 106q35 -1 63 -46q26 -43 31 -99q5 -55 -18 -147q-22 -91 -87 -169t-109 -82q-36 -5 -106 10q-34 7 -60.5 14.5t-43.5 14.5q-11 5 -8 17q3 13 19 10q60 -9 143 10q41 9 120 78q40 35 64.5 62.5t31.5 49.5q-1 5 -3.5 12.5l-5.5 16.5q-42 -54 -101 -27 q-67 30 -16 169zM260 157q-29 47 -62 4q25 -28 62 -4zM191 417q-6 -20 -23 -20t-19 18q0 3 0.5 6t1.5 7q12 42 30 83t43 79q10 13 22 6q6 -4 9 -5.5t4 -2.5q12 -28 31.5 -61t47.5 -70q11 -12 3 -27l-16 -29q-5 -8 -12 -9q-8 -1 -17 8q-44 44 -72 106q-24 -55 -33 -89z" />
<glyph unicode="&#x6c9;" horiz-adv-x="345" arabic-form="final" d="M330 -15q-36 -190 -188 -258q-45 -20 -81 -20q-52 0 -135 70q-15 12 -10 22t25 2q89 -31 201 37t145 152q-75 3 -107 23q-39 24 -26 87q23 99 68 127q49 29 82 -13q24 -31 33 -108q36 2 41 -36q3 -26 -4 -54q-7 -29 -27 -31h-17zM277 101q-20 42 -48 41q-16 -3 -24 -12 q-8 -10 -1 -18q16 -21 69 -19q6 0 4 8zM188 354q-6 -20 -23 -20t-19 18q0 3 0.5 6t1.5 7q12 42 30 83t43 79q10 13 22 6q6 -4 9 -5.5t4 -2.5q12 -28 31.5 -61t47.5 -70q11 -12 3 -27l-16 -29q-5 -8 -12 -9q-8 -1 -17 8q-44 44 -72 106q-24 -55 -33 -89z" />
<glyph unicode="&#x6d0;" horiz-adv-x="764" arabic-form="isolated" d="M665 275q-51 27 -139 -19q-71 -37 -86 -91q-2 -8 1 -16q18 -39 127 -45t115 -54q13 -95 -41 -139q-149 -119 -335 -126q-233 -9 -248 174q-7 92 41 192q27 55 59 96q15 20 26 9t-6 -35q-87 -128 -55 -212q41 -104 192 -101q178 3 293 90q-23 8 -98 13q-99 8 -116 58 q-18 52 2 109q44 124 136 191q77 56 137 41q58 -15 33 -109q-11 -40 -38 -26zM333 -284q6 8 17 5q20 -7 38.5 -18t34.5 -25q9 -9 3 -19l-28 -44q24 -12 45 -30q8 -8 3 -18l-48 -76q-7 -10 -18 -2q-10 8 -72 45q-11 7 -4 17l32 47q-9 5 -21 12.5t-27 16.5q-10 6 -3 16z" />
<glyph unicode="&#x6d0;" horiz-adv-x="585" arabic-form="final" d="M60 -125q5 47 22 97t46 102q11 19 25 10q13 -9 2 -29q-73 -135 -37 -203q51 -99 195 -93q164 8 286 107q-24 8 -87 12q-31 2 -50 4t-24 4q-25 10 -34 33q-15 42 13 83q47 71 165 102q19 5 33 -5q14 -9 9 -52q-4 -41 -16 -51t-50 -10q-39 0 -43 -7q142 -7 160 -71 q6 -24 -11 -63q-18 -40 -33 -57q-144 -145 -323 -153q-134 -6 -204 64q-57 58 -44 176zM344 -424q6 8 17 5q20 -7 38.5 -18t34.5 -25q9 -9 3 -19l-28 -44q24 -12 45 -30q8 -8 3 -18l-48 -76q-7 -10 -18 -2q-10 8 -72 45q-11 7 -4 17l32 47q-9 5 -21 12.5t-27 16.5 q-10 6 -3 16z" />
<glyph unicode="&#x6d0;" horiz-adv-x="190" arabic-form="initial" d="M51 213l29 62q15 33 26 13q49 -83 23 -194q-25 -109 -129 -109q-20 0 -29 34q-4 17 -6 30.5t-2 23.5q0 20 21 29q8 3 16 3q56 -1 84 23q-6 27 -23 45q-19 21 -10 40zM61 -108q6 8 17 5q20 -7 38.5 -18t34.5 -25q9 -9 3 -19l-28 -44q24 -12 45 -30q8 -8 3 -18l-48 -76 q-7 -10 -18 -2q-10 8 -72 45q-11 7 -4 17l32 47q-9 5 -21 12.5t-27 16.5q-10 6 -3 16z" />
<glyph unicode="&#x6d0;" horiz-adv-x="244" arabic-form="medial" d="M182 145q31 -38 62 -41q28 -3 32 -20q3 -12 0 -42q-1 -15 -4.5 -25.5t-6.5 -17.5q-6 -14 -21 -14q-56 0 -108 64q-62 -64 -136 -64q-21 0 -27 27l-9 41q-3 16 8 33q11 18 28 19q119 9 146 59q9 15 19 15q15 0 15 -17q0 -8 1 -12t1 -5zM105 -108q6 8 17 5q20 -7 38.5 -18 t34.5 -25q9 -9 3 -19l-28 -44q24 -12 45 -30q8 -8 3 -18l-48 -76q-7 -10 -18 -2q-10 8 -72 45q-11 7 -4 17l32 47q-9 5 -21 12.5t-27 16.5q-10 6 -3 16z" />
<glyph unicode="&#x649;" horiz-adv-x="190" arabic-form="initial" d="M51 213l29 62q15 33 26 13q49 -83 23 -194q-25 -109 -129 -109q-20 0 -29 34q-4 17 -6 30.5t-2 23.5q0 20 21 29q8 3 16 3q56 -1 84 23q-6 27 -23 45q-19 21 -10 40z" />
<glyph unicode="&#x649;" horiz-adv-x="244" arabic-form="medial" d="M182 145q31 -38 62 -41q28 -3 32 -20q3 -12 0 -42q-1 -15 -4.5 -25.5t-6.5 -17.5q-6 -14 -21 -14q-56 0 -108 64q-62 -64 -136 -64q-21 0 -27 27l-9 41q-3 16 8 33q11 18 28 19q119 9 146 59q9 15 19 15q15 0 15 -17q0 -8 1 -12t1 -5z" />
<glyph unicode="&#xfbea;" horiz-adv-x="419" arabic-form="isolated" d="M79 725q20 35 25 -7q21 -186 24 -340q3 -156 6 -189q4 -78 95 -84q31 -2 35 -30q1 -5 0.5 -14.5t-2.5 -22.5q-4 -24 -11 -39q-6 -14 -22 -14q-141 0 -150 136q-2 31 -4 84t-4 127q-2 68 -10.5 140t-23.5 149q-5 26 5 41zM280 213l29 62q15 33 26 13q49 -83 23 -194 q-25 -109 -129 -109q-20 0 -29 34q-4 17 -6 30.5t-2 23.5q0 20 21 29q8 3 16 3q56 -1 84 23q-6 27 -23 45q-19 21 -10 40zM389 400q-53 -10 -76 -18t-83 -34q-18 -8 -28 7q-14 23 30 53q-29 18 -34 41q-8 44 36 104q44 61 95 56q37 -3 34 -39q-1 -18 -5.5 -30.5t-9.5 -20.5 q-12 -17 -15 -19q-14 -10 -25 5q-11 16 -26 17q-16 1 -24 -8q-7 -9 0 -16q31 -29 93 -31q11 0 30 4q11 2 18 3.5t12 1.5q10 0 17 -10q5 -9 2 -18q-21 -43 -41 -48z" />
<glyph unicode="&#xfbeb;" horiz-adv-x="473" arabic-form="final" d="M79 725q20 35 25 -7q21 -186 24 -340q3 -156 6 -189q4 -78 95 -84q31 -2 35 -30q1 -5 0.5 -14.5t-2.5 -22.5q-4 -24 -11 -39q-6 -14 -22 -14q-141 0 -150 136q-2 31 -4 84t-4 127q-2 68 -10.5 140t-23.5 149q-5 26 5 41zM411 145q31 -38 62 -41q28 -3 32 -20q3 -12 0 -42 q-1 -15 -4.5 -25.5t-6.5 -17.5q-6 -14 -21 -14q-56 0 -108 64q-62 -64 -136 -64q-21 0 -27 27l-9 41q-3 16 8 33q11 18 28 19q119 9 146 59q9 15 19 15q15 0 15 -17q0 -8 1 -12t1 -5zM426 370q-53 -10 -76 -18t-83 -34q-18 -8 -28 7q-14 23 30 53q-29 18 -34 41 q-8 44 36 104q44 61 95 56q37 -3 34 -39q-1 -18 -5.5 -30.5t-9.5 -20.5q-12 -17 -15 -19q-14 -10 -25 5q-11 16 -26 17q-16 1 -24 -8q-7 -9 0 -16q31 -29 93 -31q11 0 30 4q11 2 18 3.5t12 1.5q10 0 17 -10q5 -9 2 -18q-21 -43 -41 -48z" />
<glyph unicode="&#xfbec;" horiz-adv-x="569" arabic-form="isolated" d="M259 464q23 30 28 -27l29 -240q11 -93 63 -92q24 0 33 -22q9 -24 -2 -61t-31 -37q-62 0 -88 32q-25 31 -36 109q-38 -57 -53 -64q-14 -7 -51 -4q-48 3 -82 25q-22 14 -19 43t22 64q10 18 18 31t14 20q48 51 121 92q-8 79 4 94zM234 261q-76 -24 -104 -64q-4 -6 3 -10 q50 -21 112 -4q-2 16 -5 35.5t-6 42.5zM430 213l29 62q15 33 26 13q49 -83 23 -194q-25 -109 -129 -109q-20 0 -29 34q-4 17 -6 30.5t-2 23.5q0 20 21 29q8 3 16 3q56 -1 84 23q-6 27 -23 45q-19 21 -10 40zM539 400q-53 -10 -76 -18t-83 -34q-18 -8 -28 7q-14 23 30 53 q-29 18 -34 41q-8 44 36 104q44 61 95 56q37 -3 34 -39q-1 -18 -5.5 -30.5t-9.5 -20.5q-12 -17 -15 -19q-14 -10 -25 5q-11 16 -26 17q-16 1 -24 -8q-7 -9 0 -16q31 -29 93 -31q11 0 30 4q11 2 18 3.5t12 1.5q10 0 17 -10q5 -9 2 -18q-21 -43 -41 -48z" />
<glyph unicode="&#xfbed;" horiz-adv-x="623" arabic-form="final" d="M259 464q23 30 28 -27l29 -240q11 -93 63 -92q24 0 33 -22q9 -24 -2 -61t-31 -37q-62 0 -88 32q-25 31 -36 109q-38 -57 -53 -64q-14 -7 -51 -4q-48 3 -82 25q-22 14 -19 43t22 64q10 18 18 31t14 20q48 51 121 92q-8 79 4 94zM234 261q-76 -24 -104 -64q-4 -6 3 -10 q50 -21 112 -4q-2 16 -5 35.5t-6 42.5zM561 145q31 -38 62 -41q28 -3 32 -20q3 -12 0 -42q-1 -15 -4.5 -25.5t-6.5 -17.5q-6 -14 -21 -14q-56 0 -108 64q-62 -64 -136 -64q-21 0 -27 27l-9 41q-3 16 8 33q11 18 28 19q119 9 146 59q9 15 19 15q15 0 15 -17q0 -8 1 -12t1 -5z M576 370q-53 -10 -76 -18t-83 -34q-18 -8 -28 7q-14 23 30 53q-29 18 -34 41q-8 44 36 104q44 61 95 56q37 -3 34 -39q-1 -18 -5.5 -30.5t-9.5 -20.5q-12 -17 -15 -19q-14 -10 -25 5q-11 16 -26 17q-16 1 -24 -8q-7 -9 0 -16q31 -29 93 -31q11 0 30 4q11 2 18 3.5t12 1.5 q10 0 17 -10q5 -9 2 -18q-21 -43 -41 -48z" />
<glyph unicode="&#xfbee;" horiz-adv-x="536" arabic-form="isolated" d="M330 -15q-36 -190 -188 -258q-45 -20 -81 -20q-52 0 -135 70q-15 12 -10 22t25 2q89 -31 201 37t145 152q-75 3 -107 23q-39 24 -26 87q23 99 68 127q49 29 82 -13q24 -31 33 -108q36 2 41 -36q3 -26 -4 -54q-7 -29 -27 -31h-17zM277 101q-20 42 -48 41q-16 -3 -24 -12 q-8 -10 -1 -18q16 -21 69 -19q6 0 4 8zM397 213l29 62q15 33 26 13q49 -83 23 -194q-25 -109 -129 -109q-20 0 -29 34q-4 17 -6 30.5t-2 23.5q0 20 21 29q8 3 16 3q56 -1 84 23q-6 27 -23 45q-19 21 -10 40zM506 400q-53 -10 -76 -18t-83 -34q-18 -8 -28 7q-14 23 30 53 q-29 18 -34 41q-8 44 36 104q44 61 95 56q37 -3 34 -39q-1 -18 -5.5 -30.5t-9.5 -20.5q-12 -17 -15 -19q-14 -10 -25 5q-11 16 -26 17q-16 1 -24 -8q-7 -9 0 -16q31 -29 93 -31q11 0 30 4q11 2 18 3.5t12 1.5q10 0 17 -10q5 -9 2 -18q-21 -43 -41 -48z" />
<glyph unicode="&#xfbef;" horiz-adv-x="589" arabic-form="final" d="M330 -15q-36 -190 -188 -258q-45 -20 -81 -20q-52 0 -135 70q-15 12 -10 22t25 2q89 -31 201 37t145 152q-75 3 -107 23q-39 24 -26 87q23 99 68 127q49 29 82 -13q24 -31 33 -108q36 2 41 -36q3 -26 -4 -54q-7 -29 -27 -31h-17zM277 101q-20 42 -48 41q-16 -3 -24 -12 q-8 -10 -1 -18q16 -21 69 -19q6 0 4 8zM528 145q31 -38 62 -41q28 -3 32 -20q3 -12 0 -42q-1 -15 -4.5 -25.5t-6.5 -17.5q-6 -14 -21 -14q-56 0 -108 64q-62 -64 -136 -64q-21 0 -27 27l-9 41q-3 16 8 33q11 18 28 19q119 9 146 59q9 15 19 15q15 0 15 -17q0 -8 1 -12t1 -5z M543 370q-53 -10 -76 -18t-83 -34q-18 -8 -28 7q-14 23 30 53q-29 18 -34 41q-8 44 36 104q44 61 95 56q37 -3 34 -39q-1 -18 -5.5 -30.5t-9.5 -20.5q-12 -17 -15 -19q-14 -10 -25 5q-11 16 -26 17q-16 1 -24 -8q-7 -9 0 -16q31 -29 93 -31q11 0 30 4q11 2 18 3.5t12 1.5 q10 0 17 -10q5 -9 2 -18q-21 -43 -41 -48z" />
<glyph unicode="&#xfbf0;" horiz-adv-x="536" arabic-form="isolated" d="M330 -15q-36 -190 -188 -258q-45 -20 -81 -20q-52 0 -135 70q-15 12 -10 22t25 2q89 -31 201 37t145 152q-75 3 -107 23q-39 24 -26 87q23 99 68 127q49 29 82 -13q24 -31 33 -108q36 2 41 -36q3 -26 -4 -54q-7 -29 -27 -31h-17zM277 101q-20 42 -48 41q-16 -3 -24 -12 q-8 -10 -1 -18q16 -21 69 -19q6 0 4 8zM230 598q65 0 65 -103q-2 -80 -78 -207q-12 -21 -28 -12q-17 9 -6 31q61 124 45 170q-8 18 -23 18t-25 -22q-8 -17 -20 -12q-10 4 -9 22q9 115 79 115zM397 213l29 62q15 33 26 13q49 -83 23 -194q-25 -109 -129 -109q-20 0 -29 34 q-4 17 -6 30.5t-2 23.5q0 20 21 29q8 3 16 3q56 -1 84 23q-6 27 -23 45q-19 21 -10 40zM506 400q-53 -10 -76 -18t-83 -34q-18 -8 -28 7q-14 23 30 53q-29 18 -34 41q-8 44 36 104q44 61 95 56q37 -3 34 -39q-1 -18 -5.5 -30.5t-9.5 -20.5q-12 -17 -15 -19q-14 -10 -25 5 q-11 16 -26 17q-16 1 -24 -8q-7 -9 0 -16q31 -29 93 -31q11 0 30 4q11 2 18 3.5t12 1.5q10 0 17 -10q5 -9 2 -18q-21 -43 -41 -48z" />
<glyph unicode="&#xfbf1;" horiz-adv-x="589" arabic-form="final" d="M330 -15q-36 -190 -188 -258q-45 -20 -81 -20q-52 0 -135 70q-15 12 -10 22t25 2q89 -31 201 37t145 152q-75 3 -107 23q-39 24 -26 87q23 99 68 127q49 29 82 -13q24 -31 33 -108q36 2 41 -36q3 -26 -4 -54q-7 -29 -27 -31h-17zM277 101q-20 42 -48 41q-16 -3 -24 -12 q-8 -10 -1 -18q16 -21 69 -19q6 0 4 8zM230 598q65 0 65 -103q-2 -80 -78 -207q-12 -21 -28 -12q-17 9 -6 31q61 124 45 170q-8 18 -23 18t-25 -22q-8 -17 -20 -12q-10 4 -9 22q9 115 79 115zM528 145q31 -38 62 -41q28 -3 32 -20q3 -12 0 -42q-1 -15 -4.5 -25.5t-6.5 -17.5 q-6 -14 -21 -14q-56 0 -108 64q-62 -64 -136 -64q-21 0 -27 27l-9 41q-3 16 8 33q11 18 28 19q119 9 146 59q9 15 19 15q15 0 15 -17q0 -8 1 -12t1 -5zM543 370q-53 -10 -76 -18t-83 -34q-18 -8 -28 7q-14 23 30 53q-29 18 -34 41q-8 44 36 104q44 61 95 56q37 -3 34 -39 q-1 -18 -5.5 -30.5t-9.5 -20.5q-12 -17 -15 -19q-14 -10 -25 5q-11 16 -26 17q-16 1 -24 -8q-7 -9 0 -16q31 -29 93 -31q11 0 30 4q11 2 18 3.5t12 1.5q10 0 17 -10q5 -9 2 -18q-21 -43 -41 -48z" />
<glyph unicode="&#xfbf2;" horiz-adv-x="536" arabic-form="isolated" d="M330 -15q-36 -190 -188 -258q-45 -20 -81 -20q-52 0 -135 70q-15 12 -10 22t25 2q89 -31 201 37t145 152q-75 3 -107 23q-39 24 -26 87q23 99 68 127q49 29 82 -13q24 -31 33 -108q36 2 41 -36q3 -26 -4 -54q-7 -29 -27 -31h-17zM277 101q-20 42 -48 41q-16 -3 -24 -12 q-8 -10 -1 -18q16 -21 69 -19q6 0 4 8zM314 526l19 -27q9 -15 0 -27q-49 -81 -65 -138q-1 -2 -3 -4l-9 -7q-11 -7 -22 5q-28 36 -51 74t-40 78q-11 27 10 33q20 6 29 -17q6 -16 16.5 -37.5t25.5 -47.5q11 33 26.5 61.5t34.5 52.5q9 9 16 9q8 0 13 -8zM397 213l29 62 q15 33 26 13q49 -83 23 -194q-25 -109 -129 -109q-20 0 -29 34q-4 17 -6 30.5t-2 23.5q0 20 21 29q8 3 16 3q56 -1 84 23q-6 27 -23 45q-19 21 -10 40zM506 400q-53 -10 -76 -18t-83 -34q-18 -8 -28 7q-14 23 30 53q-29 18 -34 41q-8 44 36 104q44 61 95 56q37 -3 34 -39 q-1 -18 -5.5 -30.5t-9.5 -20.5q-12 -17 -15 -19q-14 -10 -25 5q-11 16 -26 17q-16 1 -24 -8q-7 -9 0 -16q31 -29 93 -31q11 0 30 4q11 2 18 3.5t12 1.5q10 0 17 -10q5 -9 2 -18q-21 -43 -41 -48z" />
<glyph unicode="&#xfbf3;" horiz-adv-x="589" arabic-form="final" d="M330 -15q-36 -190 -188 -258q-45 -20 -81 -20q-52 0 -135 70q-15 12 -10 22t25 2q89 -31 201 37t145 152q-75 3 -107 23q-39 24 -26 87q23 99 68 127q49 29 82 -13q24 -31 33 -108q36 2 41 -36q3 -26 -4 -54q-7 -29 -27 -31h-17zM277 101q-20 42 -48 41q-16 -3 -24 -12 q-8 -10 -1 -18q16 -21 69 -19q6 0 4 8zM314 526l19 -27q9 -15 0 -27q-49 -81 -65 -138q-1 -2 -3 -4l-9 -7q-11 -7 -22 5q-28 36 -51 74t-40 78q-11 27 10 33q20 6 29 -17q6 -16 16.5 -37.5t25.5 -47.5q11 33 26.5 61.5t34.5 52.5q9 9 16 9q8 0 13 -8zM528 145q31 -38 62 -41 q28 -3 32 -20q3 -12 0 -42q-1 -15 -4.5 -25.5t-6.5 -17.5q-6 -14 -21 -14q-56 0 -108 64q-62 -64 -136 -64q-21 0 -27 27l-9 41q-3 16 8 33q11 18 28 19q119 9 146 59q9 15 19 15q15 0 15 -17q0 -8 1 -12t1 -5zM543 370q-53 -10 -76 -18t-83 -34q-18 -8 -28 7q-14 23 30 53 q-29 18 -34 41q-8 44 36 104q44 61 95 56q37 -3 34 -39q-1 -18 -5.5 -30.5t-9.5 -20.5q-12 -17 -15 -19q-14 -10 -25 5q-11 16 -26 17q-16 1 -24 -8q-7 -9 0 -16q31 -29 93 -31q11 0 30 4q11 2 18 3.5t12 1.5q10 0 17 -10q5 -9 2 -18q-21 -43 -41 -48z" />
<glyph unicode="&#xfbf4;" horiz-adv-x="536" arabic-form="isolated" d="M330 -15q-36 -190 -188 -258q-45 -20 -81 -20q-52 0 -135 70q-15 12 -10 22t25 2q89 -31 201 37t145 152q-75 3 -107 23q-39 24 -26 87q23 99 68 127q49 29 82 -13q24 -31 33 -108q36 2 41 -36q3 -26 -4 -54q-7 -29 -27 -31h-17zM277 101q-20 42 -48 41q-16 -3 -24 -12 q-8 -10 -1 -18q16 -21 69 -19q6 0 4 8zM155 573q10 27 31 2q96 -107 66 -274q-3 -15 -13 -16q-19 -3 -21 16q-14 103 -76 179q-11 14 -6 29zM397 213l29 62q15 33 26 13q49 -83 23 -194q-25 -109 -129 -109q-20 0 -29 34q-4 17 -6 30.5t-2 23.5q0 20 21 29q8 3 16 3 q56 -1 84 23q-6 27 -23 45q-19 21 -10 40zM506 400q-53 -10 -76 -18t-83 -34q-18 -8 -28 7q-14 23 30 53q-29 18 -34 41q-8 44 36 104q44 61 95 56q37 -3 34 -39q-1 -18 -5.5 -30.5t-9.5 -20.5q-12 -17 -15 -19q-14 -10 -25 5q-11 16 -26 17q-16 1 -24 -8q-7 -9 0 -16 q31 -29 93 -31q11 0 30 4q11 2 18 3.5t12 1.5q10 0 17 -10q5 -9 2 -18q-21 -43 -41 -48z" />
<glyph unicode="&#xfbf5;" horiz-adv-x="589" arabic-form="final" d="M330 -15q-36 -190 -188 -258q-45 -20 -81 -20q-52 0 -135 70q-15 12 -10 22t25 2q89 -31 201 37t145 152q-75 3 -107 23q-39 24 -26 87q23 99 68 127q49 29 82 -13q24 -31 33 -108q36 2 41 -36q3 -26 -4 -54q-7 -29 -27 -31h-17zM277 101q-20 42 -48 41q-16 -3 -24 -12 q-8 -10 -1 -18q16 -21 69 -19q6 0 4 8zM155 573q10 27 31 2q96 -107 66 -274q-3 -15 -13 -16q-19 -3 -21 16q-14 103 -76 179q-11 14 -6 29zM528 145q31 -38 62 -41q28 -3 32 -20q3 -12 0 -42q-1 -15 -4.5 -25.5t-6.5 -17.5q-6 -14 -21 -14q-56 0 -108 64q-62 -64 -136 -64 q-21 0 -27 27l-9 41q-3 16 8 33q11 18 28 19q119 9 146 59q9 15 19 15q15 0 15 -17q0 -8 1 -12t1 -5zM543 370q-53 -10 -76 -18t-83 -34q-18 -8 -28 7q-14 23 30 53q-29 18 -34 41q-8 44 36 104q44 61 95 56q37 -3 34 -39q-1 -18 -5.5 -30.5t-9.5 -20.5q-12 -17 -15 -19 q-14 -10 -25 5q-11 16 -26 17q-16 1 -24 -8q-7 -9 0 -16q31 -29 93 -31q11 0 30 4q11 2 18 3.5t12 1.5q10 0 17 -10q5 -9 2 -18q-21 -43 -41 -48z" />
<glyph unicode="&#xfbf6;" horiz-adv-x="734" arabic-form="isolated" d="M441 144q34 4 67.5 3.5t65.5 -4.5q65 -7 96 -36q19 -19 15 -58q-4 -34 -11 -57.5t-18 -37.5q-10 -13 -24 -26.5t-32 -27.5q-93 -71 -181.5 -103t-171.5 -26q-254 18 -179 309q21 80 68 141q14 17 25 7q12 -11 -3 -32q-29 -44 -42 -83t-12 -73q7 -143 178 -144 q171 -2 335 135q-42 23 -185 23q-14 0 -17 11t0 18zM333 -298q6 8 17 5q20 -7 38.5 -18t34.5 -25q9 -9 3 -19l-28 -44q24 -12 45 -30q8 -8 3 -18l-48 -76q-7 -10 -18 -2q-10 8 -72 45q-11 7 -4 17l32 47q-9 5 -21 12.5t-27 16.5q-10 6 -3 16zM528 473q10 31 36 17 q23 -15 49 -69q57 -122 23 -223q-15 -43 -42 -73q-63 -70 -165 -75q-6 0 -12 2q-17 8 -6 29l29 59q7 7 19 9q78 10 129 63q1 44 -23 84q-12 20 -25 35.5t-28 26.5q-16 15 -9 38zM611 644q-53 -10 -76 -18t-83 -34q-18 -8 -28 7q-14 23 30 53q-29 18 -34 41q-8 44 36 104 q44 61 95 56q37 -3 34 -39q-1 -18 -5.5 -30.5t-9.5 -20.5q-12 -17 -15 -19q-14 -10 -25 5q-11 16 -26 17q-16 1 -24 -8q-7 -9 0 -16q31 -29 93 -31q11 0 30 4q11 2 18 3.5t12 1.5q10 0 17 -10q5 -9 2 -18q-21 -43 -41 -48z" />
<glyph unicode="&#xfbf7;" horiz-adv-x="729" arabic-form="final" d="M432 -109q-32 12 -42 33q-17 38 30 105q1 1 3.5 6t6.5 12q9 17 20 12q16 -6 5 -28q-10 -19 22 -36q16 -8 41.5 -14.5t59.5 -11.5q68 -10 97 -20q26 -9 38 -37q12 -29 8 -58q-4 -30 -18 -51q-26 -37 -127 -87q-99 -49 -226 -63q-228 -25 -284 133q-18 51 -3 137 q15 87 77 186q11 18 27 9t-3 -40q-66 -107 -49 -175q33 -141 219 -129q145 9 308 86q-23 5 -86 9q-40 3 -71 9t-53 13zM346 -421q6 8 17 5q20 -7 38.5 -18t34.5 -25q9 -9 3 -19l-28 -44q24 -12 45 -30q8 -8 3 -18l-48 -76q-7 -10 -18 -2q-10 8 -72 45q-11 7 -4 17l32 47 q-9 5 -21 12.5t-27 16.5q-10 6 -3 16zM669 152q24 -41 58 -47q50 -9 40 -51q-5 -21 -8 -31.5t-3 -11.5q-11 -27 -27 -26q-70 4 -114 67q-25 36 -46 37q-21 2 -66 -24q-46 -26 -50 -39q-19 -63 -39 -90q-9 -8 -15 -9q-13 -2 -14 19q-3 39 37 106q20 32 42.5 59t49.5 49 q55 44 88 44q36 0 67 -52zM595 400q-53 -10 -76 -18t-83 -34q-18 -8 -28 7q-14 23 30 53q-29 18 -34 41q-8 44 36 104q44 61 95 56q37 -3 34 -39q-1 -18 -5.5 -30.5t-9.5 -20.5q-12 -17 -15 -19q-14 -10 -25 5q-11 16 -26 17q-16 1 -24 -8q-7 -9 0 -16q31 -29 93 -31 q11 0 30 4q11 2 18 3.5t12 1.5q10 0 17 -10q5 -9 2 -18q-21 -43 -41 -48z" />
<glyph unicode="&#xfbf8;" horiz-adv-x="471" arabic-form="initial" d="M201 69q-28 -51 -59 -30q-6 5 -12.5 8.5t-12.5 7.5q-64 -68 -117 -70q-33 0 -42 57q-8 57 40 63q89 11 123 54q18 21 35 7q8 -6 14 -11t11 -9q43 -36 20 -77zM27 -84q6 8 17 5q20 -7 38.5 -18t34.5 -25q9 -9 3 -19l-28 -44q24 -12 45 -30q8 -8 3 -18l-48 -76 q-7 -10 -18 -2q-10 8 -72 45q-11 7 -4 17l32 47q-9 5 -21 12.5t-27 16.5q-10 6 -3 16zM136 40q-37 26 -17 76q30 54 59 32q59 -45 123 -51q0 7 -12 22q-12 14 -7 28l23 69q18 53 40 2q21 -55 15 -122q-9 -96 -67 -106q-73 -11 -157 50zM375 412q-53 -10 -76 -18t-83 -34 q-18 -8 -28 7q-14 23 30 53q-29 18 -34 41q-8 44 36 104q44 61 95 56q37 -3 34 -39q-1 -18 -5.5 -30.5t-9.5 -20.5q-12 -17 -15 -19q-14 -10 -25 5q-11 16 -26 17q-16 1 -24 -8q-7 -9 0 -16q31 -29 93 -31q11 0 30 4q11 2 18 3.5t12 1.5q10 0 17 -10q5 -9 2 -18 q-21 -43 -41 -48z" />
<glyph unicode="&#xfbf9;" horiz-adv-x="734" arabic-form="isolated" d="M441 144q34 4 67.5 3.5t65.5 -4.5q65 -7 96 -36q19 -19 15 -58q-4 -34 -11 -57.5t-18 -37.5q-10 -13 -24 -26.5t-32 -27.5q-93 -71 -181.5 -103t-171.5 -26q-254 18 -179 309q21 80 68 141q14 17 25 7q12 -11 -3 -32q-29 -44 -42 -83t-12 -73q7 -143 178 -144 q171 -2 335 135q-42 23 -185 23q-14 0 -17 11t0 18zM528 473q10 31 36 17q23 -15 49 -69q57 -122 23 -223q-15 -43 -42 -73q-63 -70 -165 -75q-6 0 -12 2q-17 8 -6 29l29 59q7 7 19 9q78 10 129 63q1 44 -23 84q-12 20 -25 35.5t-28 26.5q-16 15 -9 38zM611 644 q-53 -10 -76 -18t-83 -34q-18 -8 -28 7q-14 23 30 53q-29 18 -34 41q-8 44 36 104q44 61 95 56q37 -3 34 -39q-1 -18 -5.5 -30.5t-9.5 -20.5q-12 -17 -15 -19q-14 -10 -25 5q-11 16 -26 17q-16 1 -24 -8q-7 -9 0 -16q31 -29 93 -31q11 0 30 4q11 2 18 3.5t12 1.5 q10 0 17 -10q5 -9 2 -18q-21 -43 -41 -48z" />
<glyph unicode="&#xfbfa;" horiz-adv-x="729" arabic-form="final" d="M432 -109q-32 12 -42 33q-17 38 30 105q1 1 3.5 6t6.5 12q9 17 20 12q16 -6 5 -28q-10 -19 22 -36q16 -8 41.5 -14.5t59.5 -11.5q68 -10 97 -20q26 -9 38 -37q12 -29 8 -58q-4 -30 -18 -51q-26 -37 -127 -87q-99 -49 -226 -63q-228 -25 -284 133q-18 51 -3 137 q15 87 77 186q11 18 27 9t-3 -40q-66 -107 -49 -175q33 -141 219 -129q145 9 308 86q-23 5 -86 9q-40 3 -71 9t-53 13zM669 152q24 -41 58 -47q50 -9 40 -51q-5 -21 -8 -31.5t-3 -11.5q-11 -27 -27 -26q-70 4 -114 67q-25 36 -46 37q-21 2 -66 -24q-46 -26 -50 -39 q-19 -63 -39 -90q-9 -8 -15 -9q-13 -2 -14 19q-3 39 37 106q20 32 42.5 59t49.5 49q55 44 88 44q36 0 67 -52zM595 400q-53 -10 -76 -18t-83 -34q-18 -8 -28 7q-14 23 30 53q-29 18 -34 41q-8 44 36 104q44 61 95 56q37 -3 34 -39q-1 -18 -5.5 -30.5t-9.5 -20.5 q-12 -17 -15 -19q-14 -10 -25 5q-11 16 -26 17q-16 1 -24 -8q-7 -9 0 -16q31 -29 93 -31q11 0 30 4q11 2 18 3.5t12 1.5q10 0 17 -10q5 -9 2 -18q-21 -43 -41 -48z" />
<glyph unicode="&#xfbfb;" horiz-adv-x="471" arabic-form="initial" d="M201 69q-28 -51 -59 -30q-6 5 -12.5 8.5t-12.5 7.5q-64 -68 -117 -70q-33 0 -42 57q-8 57 40 63q89 11 123 54q18 21 35 7q8 -6 14 -11t11 -9q43 -36 20 -77zM136 40q-37 26 -17 76q30 54 59 32q59 -45 123 -51q0 7 -12 22q-12 14 -7 28l23 69q18 53 40 2q21 -55 15 -122 q-9 -96 -67 -106q-73 -11 -157 50zM375 412q-53 -10 -76 -18t-83 -34q-18 -8 -28 7q-14 23 30 53q-29 18 -34 41q-8 44 36 104q44 61 95 56q37 -3 34 -39q-1 -18 -5.5 -30.5t-9.5 -20.5q-12 -17 -15 -19q-14 -10 -25 5q-11 16 -26 17q-16 1 -24 -8q-7 -9 0 -16 q31 -29 93 -31q11 0 30 4q11 2 18 3.5t12 1.5q10 0 17 -10q5 -9 2 -18q-21 -43 -41 -48z" />
<glyph unicode="&#x6cc;" horiz-adv-x="764" arabic-form="isolated" d="M665 275q-51 27 -139 -19q-71 -37 -86 -91q-2 -8 1 -16q18 -39 127 -45t115 -54q13 -95 -41 -139q-149 -119 -335 -126q-233 -9 -248 174q-7 92 41 192q27 55 59 96q15 20 26 9t-6 -35q-87 -128 -55 -212q41 -104 192 -101q178 3 293 90q-23 8 -98 13q-99 8 -116 58 q-18 52 2 109q44 124 136 191q77 56 137 41q58 -15 33 -109q-11 -40 -38 -26z" />
<glyph unicode="&#x6cc;" horiz-adv-x="585" arabic-form="final" d="M60 -125q5 47 22 97t46 102q11 19 25 10q13 -9 2 -29q-73 -135 -37 -203q51 -99 195 -93q164 8 286 107q-24 8 -87 12q-31 2 -50 4t-24 4q-25 10 -34 33q-15 42 13 83q47 71 165 102q19 5 33 -5q14 -9 9 -52q-4 -41 -16 -51t-50 -10q-39 0 -43 -7q142 -7 160 -71 q6 -24 -11 -63q-18 -40 -33 -57q-144 -145 -323 -153q-134 -6 -204 64q-57 58 -44 176z" />
<glyph unicode="&#x6cc;" horiz-adv-x="190" arabic-form="initial" d="M51 213l29 62q15 33 26 13q49 -83 23 -194q-25 -109 -129 -109q-20 0 -29 34q-4 17 -6 30.5t-2 23.5q0 20 21 29q8 3 16 3q56 -1 84 23q-6 27 -23 45q-19 21 -10 40zM142 -109q6 8 17 5q20 -7 39 -18t35 -25q8 -8 3 -18l-48 -76q-8 -11 -18 -2q-4 4 -17.5 12.5 t-35.5 21.5l-33 -54q-7 -10 -18 -2q-5 4 -23.5 15t-49.5 30q-11 6 -3 17l48 72q6 8 17 5q30 -10 56 -29z" />
<glyph unicode="&#x6cc;" horiz-adv-x="244" arabic-form="medial" d="M182 145q31 -38 62 -41q28 -3 32 -20q3 -12 0 -42q-1 -15 -4.5 -25.5t-6.5 -17.5q-6 -14 -21 -14q-56 0 -108 64q-62 -64 -136 -64q-21 0 -27 27l-9 41q-3 16 8 33q11 18 28 19q119 9 146 59q9 15 19 15q15 0 15 -17q0 -8 1 -12t1 -5zM161 -60q6 8 17 5q20 -7 39 -18 t35 -25q8 -8 3 -18l-48 -76q-8 -11 -18 -2q-4 4 -17.5 12.5t-35.5 21.5l-33 -54q-7 -10 -18 -2q-5 4 -23.5 15t-49.5 30q-11 6 -3 17l48 72q6 8 17 5q30 -10 56 -29z" />
<glyph unicode="&#xfc00;" horiz-adv-x="647" arabic-form="isolated" d="M197 248q277 -14 397 3q31 2 25 -20l-17 -64q-4 -18 -26 -21q-226 -27 -354 -148q-84 -79 -87 -168q-4 -155 131 -202q134 -46 473 -28q21 2 21 -15q1 -12 -9 -17q-59 -25 -105 -42.5t-80 -28.5q-66 -21 -123 -19q-210 6 -291 87q-80 81 -70 214q19 235 176 356l-186 1 q-52 0 -21 45l43 63q6 8 103 4zM377 -113q6 8 17 5q20 -7 38.5 -18t34.5 -25q8 -8 3 -18l-48 -76q-7 -10 -18 -2q-10 8 -72 45q-11 7 -4 17zM77 226q24 29 75 57q57 32 95 57.5t56 44.5t32 40t23 44t17.5 43t17.5 36q18 31 48 31q29 0 51 -33q30 -47 24 -189q0 -16 -15 -24 q-6 -3 -11 -3q-21 0 -26 27q-9 80 -30 95q-7 4 -14 -6q-4 -5 -10.5 -16.5t-15.5 -29.5q-50 -101 -182 -175q-2 -1 -12 -7t-28 -17q-48 -29 -92 3l-13 9zM506 706q-53 -10 -76 -18t-83 -34q-18 -8 -28 7q-14 23 30 53q-29 18 -34 41q-8 44 36 104q44 61 95 56q37 -3 34 -39 q-1 -18 -5.5 -30.5t-9.5 -20.5q-12 -17 -15 -19q-14 -10 -25 5q-11 16 -26 17q-16 1 -24 -8q-7 -9 0 -16q31 -29 93 -31q11 0 30 4q11 2 18 3.5t12 1.5q10 0 17 -10q5 -9 2 -18q-21 -43 -41 -48z" />
<glyph unicode="&#xfc01;" horiz-adv-x="647" arabic-form="isolated" d="M197 248q277 -14 397 3q31 2 25 -20l-17 -64q-4 -18 -26 -21q-226 -27 -354 -148q-84 -79 -87 -168q-4 -155 131 -202q134 -46 473 -28q21 2 21 -15q1 -12 -9 -17q-59 -25 -105 -42.5t-80 -28.5q-66 -21 -123 -19q-210 6 -291 87q-80 81 -70 214q19 235 176 356l-186 1 q-52 0 -21 45l43 63q6 8 103 4zM77 226q24 29 75 57q57 32 95 57.5t56 44.5t32 40t23 44t17.5 43t17.5 36q18 31 48 31q29 0 51 -33q30 -47 24 -189q0 -16 -15 -24q-6 -3 -11 -3q-21 0 -26 27q-9 80 -30 95q-7 4 -14 -6q-4 -5 -10.5 -16.5t-15.5 -29.5q-50 -101 -182 -175 q-2 -1 -12 -7t-28 -17q-48 -29 -92 3l-13 9zM506 706q-53 -10 -76 -18t-83 -34q-18 -8 -28 7q-14 23 30 53q-29 18 -34 41q-8 44 36 104q44 61 95 56q37 -3 34 -39q-1 -18 -5.5 -30.5t-9.5 -20.5q-12 -17 -15 -19q-14 -10 -25 5q-11 16 -26 17q-16 1 -24 -8q-7 -9 0 -16 q31 -29 93 -31q11 0 30 4q11 2 18 3.5t12 1.5q10 0 17 -10q5 -9 2 -18q-21 -43 -41 -48z" />
<glyph unicode="&#xfc02;" horiz-adv-x="594" arabic-form="isolated" d="M118 97q-22 10 -13 37q21 59 28 67q4 5 7 7.5t4 3.5q15 13 59 -1q91 -30 161 -82q25 -19 14 -52q-7 -22 -11.5 -35t-5.5 -16q-12 -28 -35 -27q-49 6 -95 4.5t-89 -12.5q-55 -14 -70 -30q1 -7 6.5 -46t17.5 -110q12 -70 18.5 -111.5t7.5 -54.5q2 -34 -2 -69.5t-13 -72.5 q-6 -21 -22 -18q-15 3 -12 49q3 45 -45 285q-15 81 4 149q19 67 41 94q21 25 45 41zM549 282q-3 -11 -10.5 -23.5t-18.5 -27.5q-22 -30 -34 -33q-28 -9 -37 22q-6 22 -34 25q-60 6 -197 -74q-53 -31 -78 9q-10 19 0 31q9 9 29.5 24.5t51.5 34.5q151 96 236 95q40 0 71 -24 t21 -59zM496 561q-53 -10 -76 -18t-83 -34q-18 -8 -28 7q-14 23 30 53q-29 18 -34 41q-8 44 36 104q44 61 95 56q37 -3 34 -39q-1 -18 -5.5 -30.5t-9.5 -20.5q-12 -17 -15 -19q-14 -10 -25 5q-11 16 -26 17q-16 1 -24 -8q-7 -9 0 -16q31 -29 93 -31q11 0 30 4q11 2 18 3.5 t12 1.5q10 0 17 -10q5 -9 2 -18q-21 -43 -41 -48z" />
<glyph unicode="&#xfc03;" horiz-adv-x="734" arabic-form="isolated" d="M441 144q34 4 67.5 3.5t65.5 -4.5q65 -7 96 -36q19 -19 15 -58q-4 -34 -11 -57.5t-18 -37.5q-10 -13 -24 -26.5t-32 -27.5q-93 -71 -181.5 -103t-171.5 -26q-254 18 -179 309q21 80 68 141q14 17 25 7q12 -11 -3 -32q-29 -44 -42 -83t-12 -73q7 -143 178 -144 q171 -2 335 135q-42 23 -185 23q-14 0 -17 11t0 18zM528 473q10 31 36 17q23 -15 49 -69q57 -122 23 -223q-15 -43 -42 -73q-63 -70 -165 -75q-6 0 -12 2q-17 8 -6 29l29 59q7 7 19 9q78 10 129 63q1 44 -23 84q-12 20 -25 35.5t-28 26.5q-16 15 -9 38zM611 644 q-53 -10 -76 -18t-83 -34q-18 -8 -28 7q-14 23 30 53q-29 18 -34 41q-8 44 36 104q44 61 95 56q37 -3 34 -39q-1 -18 -5.5 -30.5t-9.5 -20.5q-12 -17 -15 -19q-14 -10 -25 5q-11 16 -26 17q-16 1 -24 -8q-7 -9 0 -16q31 -29 93 -31q11 0 30 4q11 2 18 3.5t12 1.5 q10 0 17 -10q5 -9 2 -18q-21 -43 -41 -48z" />
<glyph unicode="&#xfc04;" horiz-adv-x="734" arabic-form="isolated" d="M441 144q34 4 67.5 3.5t65.5 -4.5q65 -7 96 -36q19 -19 15 -58q-4 -34 -11 -57.5t-18 -37.5q-10 -13 -24 -26.5t-32 -27.5q-93 -71 -181.5 -103t-171.5 -26q-254 18 -179 309q21 80 68 141q14 17 25 7q12 -11 -3 -32q-29 -44 -42 -83t-12 -73q7 -143 178 -144 q171 -2 335 135q-42 23 -185 23q-14 0 -17 11t0 18zM384 -299q6 8 17 5q20 -7 39 -18t35 -25q8 -8 3 -18l-48 -76q-8 -11 -18 -2q-4 4 -17.5 12.5t-35.5 21.5l-33 -54q-7 -10 -18 -2q-5 4 -23.5 15t-49.5 30q-11 6 -3 17l48 72q6 8 17 5q30 -10 56 -29zM528 473q10 31 36 17 q23 -15 49 -69q57 -122 23 -223q-15 -43 -42 -73q-63 -70 -165 -75q-6 0 -12 2q-17 8 -6 29l29 59q7 7 19 9q78 10 129 63q1 44 -23 84q-12 20 -25 35.5t-28 26.5q-16 15 -9 38zM611 644q-53 -10 -76 -18t-83 -34q-18 -8 -28 7q-14 23 30 53q-29 18 -34 41q-8 44 36 104 q44 61 95 56q37 -3 34 -39q-1 -18 -5.5 -30.5t-9.5 -20.5q-12 -17 -15 -19q-14 -10 -25 5q-11 16 -26 17q-16 1 -24 -8q-7 -9 0 -16q31 -29 93 -31q11 0 30 4q11 2 18 3.5t12 1.5q10 0 17 -10q5 -9 2 -18q-21 -43 -41 -48z" />
<glyph unicode="&#xfc05;" horiz-adv-x="647" arabic-form="isolated" d="M197 248q277 -14 397 3q31 2 25 -20l-17 -64q-4 -18 -26 -21q-226 -27 -354 -148q-84 -79 -87 -168q-4 -155 131 -202q134 -46 473 -28q21 2 21 -15q1 -12 -9 -17q-59 -25 -105 -42.5t-80 -28.5q-66 -21 -123 -19q-210 6 -291 87q-80 81 -70 214q19 235 176 356l-186 1 q-52 0 -21 45l43 63q6 8 103 4zM377 -113q6 8 17 5q20 -7 38.5 -18t34.5 -25q8 -8 3 -18l-48 -76q-7 -10 -18 -2q-10 8 -72 45q-11 7 -4 17zM77 226q24 29 75 57q57 32 95 57.5t56 44.5t32 40t23 44t17.5 43t17.5 36q18 31 48 31q29 0 51 -33q30 -47 24 -189q0 -16 -15 -24 q-6 -3 -11 -3q-21 0 -26 27q-9 80 -30 95q-7 4 -14 -6q-4 -5 -10.5 -16.5t-15.5 -29.5q-50 -101 -182 -175q-2 -1 -12 -7t-28 -17q-48 -29 -92 3l-13 9zM543 71q6 8 17 5q20 -7 38.5 -18t34.5 -25q8 -8 3 -18l-48 -76q-7 -10 -18 -2q-10 8 -72 45q-11 7 -4 17z" />
<glyph unicode="&#xfc06;" horiz-adv-x="647" arabic-form="isolated" d="M197 248q277 -14 397 3q31 2 25 -20l-17 -64q-4 -18 -26 -21q-226 -27 -354 -148q-84 -79 -87 -168q-4 -155 131 -202q134 -46 473 -28q21 2 21 -15q1 -12 -9 -17q-59 -25 -105 -42.5t-80 -28.5q-66 -21 -123 -19q-210 6 -291 87q-80 81 -70 214q19 235 176 356l-186 1 q-52 0 -21 45l43 63q6 8 103 4zM77 226q24 29 75 57q57 32 95 57.5t56 44.5t32 40t23 44t17.5 43t17.5 36q18 31 48 31q29 0 51 -33q30 -47 24 -189q0 -16 -15 -24q-6 -3 -11 -3q-21 0 -26 27q-9 80 -30 95q-7 4 -14 -6q-4 -5 -10.5 -16.5t-15.5 -29.5q-50 -101 -182 -175 q-2 -1 -12 -7t-28 -17q-48 -29 -92 3l-13 9zM543 71q6 8 17 5q20 -7 38.5 -18t34.5 -25q8 -8 3 -18l-48 -76q-7 -10 -18 -2q-10 8 -72 45q-11 7 -4 17z" />
<glyph unicode="&#xfc07;" horiz-adv-x="647" arabic-form="isolated" d="M197 248q277 -14 397 3q31 2 25 -20l-17 -64q-4 -18 -26 -21q-226 -27 -354 -148q-84 -79 -87 -168q-4 -155 131 -202q134 -46 473 -28q21 2 21 -15q1 -12 -9 -17q-59 -25 -105 -42.5t-80 -28.5q-66 -21 -123 -19q-210 6 -291 87q-80 81 -70 214q19 235 176 356l-186 1 q-52 0 -21 45l43 63q6 8 103 4zM138 605q6 8 17 5q20 -7 38.5 -18t34.5 -25q8 -8 3 -18l-48 -76q-7 -10 -18 -2q-10 8 -72 45q-11 7 -4 17zM77 226q24 29 75 57q57 32 95 57.5t56 44.5t32 40t23 44t17.5 43t17.5 36q18 31 48 31q29 0 51 -33q30 -47 24 -189q0 -16 -15 -24 q-6 -3 -11 -3q-21 0 -26 27q-9 80 -30 95q-7 4 -14 -6q-4 -5 -10.5 -16.5t-15.5 -29.5q-50 -101 -182 -175q-2 -1 -12 -7t-28 -17q-48 -29 -92 3l-13 9zM543 71q6 8 17 5q20 -7 38.5 -18t34.5 -25q8 -8 3 -18l-48 -76q-7 -10 -18 -2q-10 8 -72 45q-11 7 -4 17z" />
<glyph unicode="&#xfc08;" horiz-adv-x="594" arabic-form="isolated" d="M118 97q-22 10 -13 37q21 59 28 67q4 5 7 7.5t4 3.5q15 13 59 -1q91 -30 161 -82q25 -19 14 -52q-7 -22 -11.5 -35t-5.5 -16q-12 -28 -35 -27q-49 6 -95 4.5t-89 -12.5q-55 -14 -70 -30q1 -7 6.5 -46t17.5 -110q12 -70 18.5 -111.5t7.5 -54.5q2 -34 -2 -69.5t-13 -72.5 q-6 -21 -22 -18q-15 3 -12 49q3 45 -45 285q-15 81 4 149q19 67 41 94q21 25 45 41zM549 282q-3 -11 -10.5 -23.5t-18.5 -27.5q-22 -30 -34 -33q-28 -9 -37 22q-6 22 -34 25q-60 6 -197 -74q-53 -31 -78 9q-10 19 0 31q9 9 29.5 24.5t51.5 34.5q151 96 236 95q40 0 71 -24 t21 -59zM475 -107q6 8 17 5q20 -7 38.5 -18t34.5 -25q8 -8 3 -18l-48 -76q-7 -10 -18 -2q-10 8 -72 45q-11 7 -4 17z" />
<glyph unicode="&#xfc09;" horiz-adv-x="734" arabic-form="isolated" d="M441 144q34 4 67.5 3.5t65.5 -4.5q65 -7 96 -36q19 -19 15 -58q-4 -34 -11 -57.5t-18 -37.5q-10 -13 -24 -26.5t-32 -27.5q-93 -71 -181.5 -103t-171.5 -26q-254 18 -179 309q21 80 68 141q14 17 25 7q12 -11 -3 -32q-29 -44 -42 -83t-12 -73q7 -143 178 -144 q171 -2 335 135q-42 23 -185 23q-14 0 -17 11t0 18zM528 473q10 31 36 17q23 -15 49 -69q57 -122 23 -223q-15 -43 -42 -73q-63 -70 -165 -75q-6 0 -12 2q-17 8 -6 29l29 59q7 7 19 9q78 10 129 63q1 44 -23 84q-12 20 -25 35.5t-28 26.5q-16 15 -9 38zM621 -225q6 8 17 5 q20 -7 38.5 -18t34.5 -25q8 -8 3 -18l-48 -76q-7 -10 -18 -2q-10 8 -72 45q-11 7 -4 17z" />
<glyph unicode="&#xfc0a;" horiz-adv-x="734" arabic-form="isolated" d="M441 144q34 4 67.5 3.5t65.5 -4.5q65 -7 96 -36q19 -19 15 -58q-4 -34 -11 -57.5t-18 -37.5q-10 -13 -24 -26.5t-32 -27.5q-93 -71 -181.5 -103t-171.5 -26q-254 18 -179 309q21 80 68 141q14 17 25 7q12 -11 -3 -32q-29 -44 -42 -83t-12 -73q7 -143 178 -144 q171 -2 335 135q-42 23 -185 23q-14 0 -17 11t0 18zM384 -299q6 8 17 5q20 -7 39 -18t35 -25q8 -8 3 -18l-48 -76q-8 -11 -18 -2q-4 4 -17.5 12.5t-35.5 21.5l-33 -54q-7 -10 -18 -2q-5 4 -23.5 15t-49.5 30q-11 6 -3 17l48 72q6 8 17 5q30 -10 56 -29zM528 473q10 31 36 17 q23 -15 49 -69q57 -122 23 -223q-15 -43 -42 -73q-63 -70 -165 -75q-6 0 -12 2q-17 8 -6 29l29 59q7 7 19 9q78 10 129 63q1 44 -23 84q-12 20 -25 35.5t-28 26.5q-16 15 -9 38zM621 -225q6 8 17 5q20 -7 38.5 -18t34.5 -25q8 -8 3 -18l-48 -76q-7 -10 -18 -2q-10 8 -72 45 q-11 7 -4 17z" />
<glyph unicode="&#xfc0b;" horiz-adv-x="647" arabic-form="isolated" d="M197 248q277 -14 397 3q31 2 25 -20l-17 -64q-4 -18 -26 -21q-226 -27 -354 -148q-84 -79 -87 -168q-4 -155 131 -202q134 -46 473 -28q21 2 21 -15q1 -12 -9 -17q-59 -25 -105 -42.5t-80 -28.5q-66 -21 -123 -19q-210 6 -291 87q-80 81 -70 214q19 235 176 356l-186 1 q-52 0 -21 45l43 63q6 8 103 4zM377 -113q6 8 17 5q20 -7 38.5 -18t34.5 -25q8 -8 3 -18l-48 -76q-7 -10 -18 -2q-10 8 -72 45q-11 7 -4 17zM77 226q24 29 75 57q57 32 95 57.5t56 44.5t32 40t23 44t17.5 43t17.5 36q18 31 48 31q29 0 51 -33q30 -47 24 -189q0 -16 -15 -24 q-6 -3 -11 -3q-21 0 -26 27q-9 80 -30 95q-7 4 -14 -6q-4 -5 -10.5 -16.5t-15.5 -29.5q-50 -101 -182 -175q-2 -1 -12 -7t-28 -17q-48 -29 -92 3l-13 9zM458 781q6 8 17 5q20 -7 39 -18t35 -25q8 -8 3 -18l-48 -76q-8 -11 -18 -2q-4 4 -17.5 12.5t-35.5 21.5l-33 -54 q-7 -10 -18 -2q-5 4 -23.5 15t-49.5 30q-11 6 -3 17l48 72q6 8 17 5q30 -10 56 -29z" />
<glyph unicode="&#xfc0c;" horiz-adv-x="647" arabic-form="isolated" d="M197 248q277 -14 397 3q31 2 25 -20l-17 -64q-4 -18 -26 -21q-226 -27 -354 -148q-84 -79 -87 -168q-4 -155 131 -202q134 -46 473 -28q21 2 21 -15q1 -12 -9 -17q-59 -25 -105 -42.5t-80 -28.5q-66 -21 -123 -19q-210 6 -291 87q-80 81 -70 214q19 235 176 356l-186 1 q-52 0 -21 45l43 63q6 8 103 4zM77 226q24 29 75 57q57 32 95 57.5t56 44.5t32 40t23 44t17.5 43t17.5 36q18 31 48 31q29 0 51 -33q30 -47 24 -189q0 -16 -15 -24q-6 -3 -11 -3q-21 0 -26 27q-9 80 -30 95q-7 4 -14 -6q-4 -5 -10.5 -16.5t-15.5 -29.5q-50 -101 -182 -175 q-2 -1 -12 -7t-28 -17q-48 -29 -92 3l-13 9zM458 781q6 8 17 5q20 -7 39 -18t35 -25q8 -8 3 -18l-48 -76q-8 -11 -18 -2q-4 4 -17.5 12.5t-35.5 21.5l-33 -54q-7 -10 -18 -2q-5 4 -23.5 15t-49.5 30q-11 6 -3 17l48 72q6 8 17 5q30 -10 56 -29z" />
<glyph unicode="&#xfc0d;" horiz-adv-x="647" arabic-form="isolated" d="M197 248q277 -14 397 3q31 2 25 -20l-17 -64q-4 -18 -26 -21q-226 -27 -354 -148q-84 -79 -87 -168q-4 -155 131 -202q134 -46 473 -28q21 2 21 -15q1 -12 -9 -17q-59 -25 -105 -42.5t-80 -28.5q-66 -21 -123 -19q-210 6 -291 87q-80 81 -70 214q19 235 176 356l-186 1 q-52 0 -21 45l43 63q6 8 103 4zM138 605q6 8 17 5q20 -7 38.5 -18t34.5 -25q8 -8 3 -18l-48 -76q-7 -10 -18 -2q-10 8 -72 45q-11 7 -4 17zM77 226q24 29 75 57q57 32 95 57.5t56 44.5t32 40t23 44t17.5 43t17.5 36q18 31 48 31q29 0 51 -33q30 -47 24 -189q0 -16 -15 -24 q-6 -3 -11 -3q-21 0 -26 27q-9 80 -30 95q-7 4 -14 -6q-4 -5 -10.5 -16.5t-15.5 -29.5q-50 -101 -182 -175q-2 -1 -12 -7t-28 -17q-48 -29 -92 3l-13 9zM458 781q6 8 17 5q20 -7 39 -18t35 -25q8 -8 3 -18l-48 -76q-8 -11 -18 -2q-4 4 -17.5 12.5t-35.5 21.5l-33 -54 q-7 -10 -18 -2q-5 4 -23.5 15t-49.5 30q-11 6 -3 17l48 72q6 8 17 5q30 -10 56 -29z" />
<glyph unicode="&#xfc0e;" horiz-adv-x="594" arabic-form="isolated" d="M118 97q-22 10 -13 37q21 59 28 67q4 5 7 7.5t4 3.5q15 13 59 -1q91 -30 161 -82q25 -19 14 -52q-7 -22 -11.5 -35t-5.5 -16q-12 -28 -35 -27q-49 6 -95 4.5t-89 -12.5q-55 -14 -70 -30q1 -7 6.5 -46t17.5 -110q12 -70 18.5 -111.5t7.5 -54.5q2 -34 -2 -69.5t-13 -72.5 q-6 -21 -22 -18q-15 3 -12 49q3 45 -45 285q-15 81 4 149q19 67 41 94q21 25 45 41zM549 282q-3 -11 -10.5 -23.5t-18.5 -27.5q-22 -30 -34 -33q-28 -9 -37 22q-6 22 -34 25q-60 6 -197 -74q-53 -31 -78 9q-10 19 0 31q9 9 29.5 24.5t51.5 34.5q151 96 236 95q40 0 71 -24 t21 -59zM448 637q6 8 17 5q20 -7 39 -18t35 -25q8 -8 3 -18l-48 -76q-8 -11 -18 -2q-4 4 -17.5 12.5t-35.5 21.5l-33 -54q-7 -10 -18 -2q-5 4 -23.5 15t-49.5 30q-11 6 -3 17l48 72q6 8 17 5q30 -10 56 -29z" />
<glyph unicode="&#xfc0f;" horiz-adv-x="734" arabic-form="isolated" d="M441 144q34 4 67.5 3.5t65.5 -4.5q65 -7 96 -36q19 -19 15 -58q-4 -34 -11 -57.5t-18 -37.5q-10 -13 -24 -26.5t-32 -27.5q-93 -71 -181.5 -103t-171.5 -26q-254 18 -179 309q21 80 68 141q14 17 25 7q12 -11 -3 -32q-29 -44 -42 -83t-12 -73q7 -143 178 -144 q171 -2 335 135q-42 23 -185 23q-14 0 -17 11t0 18zM528 473q10 31 36 17q23 -15 49 -69q57 -122 23 -223q-15 -43 -42 -73q-63 -70 -165 -75q-6 0 -12 2q-17 8 -6 29l29 59q7 7 19 9q78 10 129 63q1 44 -23 84q-12 20 -25 35.5t-28 26.5q-16 15 -9 38zM544 719q6 8 17 5 q20 -7 39 -18t35 -25q8 -8 3 -18l-48 -76q-8 -11 -18 -2q-4 4 -17.5 12.5t-35.5 21.5l-33 -54q-7 -10 -18 -2q-5 4 -23.5 15t-49.5 30q-11 6 -3 17l48 72q6 8 17 5q30 -10 56 -29z" />
<glyph unicode="&#xfc10;" horiz-adv-x="734" arabic-form="isolated" d="M441 144q34 4 67.5 3.5t65.5 -4.5q65 -7 96 -36q19 -19 15 -58q-4 -34 -11 -57.5t-18 -37.5q-10 -13 -24 -26.5t-32 -27.5q-93 -71 -181.5 -103t-171.5 -26q-254 18 -179 309q21 80 68 141q14 17 25 7q12 -11 -3 -32q-29 -44 -42 -83t-12 -73q7 -143 178 -144 q171 -2 335 135q-42 23 -185 23q-14 0 -17 11t0 18zM384 -299q6 8 17 5q20 -7 39 -18t35 -25q8 -8 3 -18l-48 -76q-8 -11 -18 -2q-4 4 -17.5 12.5t-35.5 21.5l-33 -54q-7 -10 -18 -2q-5 4 -23.5 15t-49.5 30q-11 6 -3 17l48 72q6 8 17 5q30 -10 56 -29zM528 473q10 31 36 17 q23 -15 49 -69q57 -122 23 -223q-15 -43 -42 -73q-63 -70 -165 -75q-6 0 -12 2q-17 8 -6 29l29 59q7 7 19 9q78 10 129 63q1 44 -23 84q-12 20 -25 35.5t-28 26.5q-16 15 -9 38zM544 719q6 8 17 5q20 -7 39 -18t35 -25q8 -8 3 -18l-48 -76q-8 -11 -18 -2q-4 4 -17.5 12.5 t-35.5 21.5l-33 -54q-7 -10 -18 -2q-5 4 -23.5 15t-49.5 30q-11 6 -3 17l48 72q6 8 17 5q30 -10 56 -29z" />
<glyph unicode="&#xfc11;" horiz-adv-x="647" arabic-form="isolated" d="M197 248q277 -14 397 3q31 2 25 -20l-17 -64q-4 -18 -26 -21q-226 -27 -354 -148q-84 -79 -87 -168q-4 -155 131 -202q134 -46 473 -28q21 2 21 -15q1 -12 -9 -17q-59 -25 -105 -42.5t-80 -28.5q-66 -21 -123 -19q-210 6 -291 87q-80 81 -70 214q19 235 176 356l-186 1 q-52 0 -21 45l43 63q6 8 103 4zM377 -113q6 8 17 5q20 -7 38.5 -18t34.5 -25q8 -8 3 -18l-48 -76q-7 -10 -18 -2q-10 8 -72 45q-11 7 -4 17zM77 226q24 29 75 57q57 32 95 57.5t56 44.5t32 40t23 44t17.5 43t17.5 36q18 31 48 31q29 0 51 -33q30 -47 24 -189q0 -16 -15 -24 q-6 -3 -11 -3q-21 0 -26 27q-9 80 -30 95q-7 4 -14 -6q-4 -5 -10.5 -16.5t-15.5 -29.5q-50 -101 -182 -175q-2 -1 -12 -7t-28 -17q-48 -29 -92 3l-13 9zM454 781q6 9 18 5q20 -7 38.5 -18t34.5 -25q8 -8 3 -18l-48 -76q-8 -11 -17 -3q-4 4 -16 11.5t-30 18.5l-31 -49 q-7 -10 -18 -3q-5 4 -23.5 15.5t-49.5 30.5q-10 6 -3 16l48 72q12 17 66 -19zM384 893q6 8 17 5q20 -7 38.5 -18t34.5 -25q8 -8 3 -18l-48 -76q-7 -10 -18 -2q-10 8 -72 45q-11 6 -4 16z" />
<glyph unicode="&#xfc12;" horiz-adv-x="594" arabic-form="isolated" d="M118 97q-22 10 -13 37q21 59 28 67q4 5 7 7.5t4 3.5q15 13 59 -1q91 -30 161 -82q25 -19 14 -52q-7 -22 -11.5 -35t-5.5 -16q-12 -28 -35 -27q-49 6 -95 4.5t-89 -12.5q-55 -14 -70 -30q1 -7 6.5 -46t17.5 -110q12 -70 18.5 -111.5t7.5 -54.5q2 -34 -2 -69.5t-13 -72.5 q-6 -21 -22 -18q-15 3 -12 49q3 45 -45 285q-15 81 4 149q19 67 41 94q21 25 45 41zM549 282q-3 -11 -10.5 -23.5t-18.5 -27.5q-22 -30 -34 -33q-28 -9 -37 22q-6 22 -34 25q-60 6 -197 -74q-53 -31 -78 9q-10 19 0 31q9 9 29.5 24.5t51.5 34.5q151 96 236 95q40 0 71 -24 t21 -59zM444 637q6 9 18 5q20 -7 38.5 -18t34.5 -25q8 -8 3 -18l-48 -76q-8 -11 -17 -3q-4 4 -16 11.5t-30 18.5l-31 -49q-7 -10 -18 -3q-5 4 -23.5 15.5t-49.5 30.5q-10 6 -3 16l48 72q12 17 66 -19zM374 749q6 8 17 5q20 -7 38.5 -18t34.5 -25q8 -8 3 -18l-48 -76 q-7 -10 -18 -2q-10 8 -72 45q-11 6 -4 16z" />
<glyph unicode="&#xfc13;" horiz-adv-x="734" arabic-form="isolated" d="M441 144q34 4 67.5 3.5t65.5 -4.5q65 -7 96 -36q19 -19 15 -58q-4 -34 -11 -57.5t-18 -37.5q-10 -13 -24 -26.5t-32 -27.5q-93 -71 -181.5 -103t-171.5 -26q-254 18 -179 309q21 80 68 141q14 17 25 7q12 -11 -3 -32q-29 -44 -42 -83t-12 -73q7 -143 178 -144 q171 -2 335 135q-42 23 -185 23q-14 0 -17 11t0 18zM528 473q10 31 36 17q23 -15 49 -69q57 -122 23 -223q-15 -43 -42 -73q-63 -70 -165 -75q-6 0 -12 2q-17 8 -6 29l29 59q7 7 19 9q78 10 129 63q1 44 -23 84q-12 20 -25 35.5t-28 26.5q-16 15 -9 38zM540 719q6 9 18 5 q20 -7 38.5 -18t34.5 -25q8 -8 3 -18l-48 -76q-8 -11 -17 -3q-4 4 -16 11.5t-30 18.5l-31 -49q-7 -10 -18 -3q-5 4 -23.5 15.5t-49.5 30.5q-10 6 -3 16l48 72q12 17 66 -19zM470 831q6 8 17 5q20 -7 38.5 -18t34.5 -25q8 -8 3 -18l-48 -76q-7 -10 -18 -2q-10 8 -72 45 q-11 6 -4 16z" />
<glyph unicode="&#xfc14;" horiz-adv-x="734" arabic-form="isolated" d="M441 144q34 4 67.5 3.5t65.5 -4.5q65 -7 96 -36q19 -19 15 -58q-4 -34 -11 -57.5t-18 -37.5q-10 -13 -24 -26.5t-32 -27.5q-93 -71 -181.5 -103t-171.5 -26q-254 18 -179 309q21 80 68 141q14 17 25 7q12 -11 -3 -32q-29 -44 -42 -83t-12 -73q7 -143 178 -144 q171 -2 335 135q-42 23 -185 23q-14 0 -17 11t0 18zM384 -299q6 8 17 5q20 -7 39 -18t35 -25q8 -8 3 -18l-48 -76q-8 -11 -18 -2q-4 4 -17.5 12.5t-35.5 21.5l-33 -54q-7 -10 -18 -2q-5 4 -23.5 15t-49.5 30q-11 6 -3 17l48 72q6 8 17 5q30 -10 56 -29zM528 473q10 31 36 17 q23 -15 49 -69q57 -122 23 -223q-15 -43 -42 -73q-63 -70 -165 -75q-6 0 -12 2q-17 8 -6 29l29 59q7 7 19 9q78 10 129 63q1 44 -23 84q-12 20 -25 35.5t-28 26.5q-16 15 -9 38zM540 719q6 9 18 5q20 -7 38.5 -18t34.5 -25q8 -8 3 -18l-48 -76q-8 -11 -17 -3q-4 4 -16 11.5 t-30 18.5l-31 -49q-7 -10 -18 -3q-5 4 -23.5 15.5t-49.5 30.5q-10 6 -3 16l48 72q12 17 66 -19zM470 831q6 8 17 5q20 -7 38.5 -18t34.5 -25q8 -8 3 -18l-48 -76q-7 -10 -18 -2q-10 8 -72 45q-11 6 -4 16z" />
<glyph unicode="&#xfc15;" horiz-adv-x="835" arabic-form="isolated" d="M197 248q277 -14 397 3q31 2 25 -20l-17 -64q-4 -18 -26 -21q-226 -27 -354 -148q-84 -79 -87 -168q-4 -155 131 -202q134 -46 473 -28q21 2 21 -15q1 -12 -9 -17q-59 -25 -105 -42.5t-80 -28.5q-66 -21 -123 -19q-210 6 -291 87q-80 81 -70 214q19 235 176 356l-186 1 q-52 0 -21 45l43 63q6 8 103 4zM243 483q21 95 105 103q44 3 134 -48q121 -68 273 -80q17 -1 25 -14q8 -12 -1 -31l-19 -42q-12 -25 -39 -21q-67 15 -176 10t-280 -85q-47 -22 -85 -49.5t-66 -60.5h-74l9 20q8 17 15.5 33t16.5 31q146 115 371 184q-66 31 -101 39 q-33 7 -74 -10q-10 -4 -18 -3q-19 3 -16 24zM701 4q6 8 17 5q20 -7 38.5 -18t34.5 -25q8 -8 3 -18l-48 -76q-7 -10 -18 -2q-10 8 -72 45q-11 7 -4 17z" />
<glyph unicode="&#xfc16;" horiz-adv-x="1178" arabic-form="isolated" d="M272 213q87 -102 250 -108q50 -2 39 -61t-39 -59q-44 -1 -83.5 8t-74.5 25q0 -95 -44 -130q-20 -15 -39 1q-58 52 -72 152q-54 -7 -97 -52q-5 -22 10 -119q54 -361 41 -420q-9 -38 -30 -38q-20 0 -22 45q-1 35 -10.5 105t-26.5 176q-35 214 2 305q37 92 147 142 q21 61 49 28zM528 222q9 35 46 70t71 35q17 0 59 -13t106 -40q130 -54 287 -47q28 1 10 -39l-27 -62q-9 -18 -21 -17q-58 10 -112 6.5t-104 -19.5t-95.5 -33.5t-85.5 -37.5q-79 -40 -140 -40q-16 0 -24 19q-13 36 -6 63q8 28 15 32t14 6q154 9 258 58q-142 64 -231 37 q-28 -10 -20 22zM798 -36q6 8 17 5q20 -7 38.5 -18t34.5 -25q8 -8 3 -18l-48 -76q-7 -10 -18 -2q-10 8 -72 45q-11 7 -4 17z" />
<glyph unicode="&#xfc17;" horiz-adv-x="835" arabic-form="isolated" d="M197 248q277 -14 397 3q31 2 25 -20l-17 -64q-4 -18 -26 -21q-226 -27 -354 -148q-84 -79 -87 -168q-4 -155 131 -202q134 -46 473 -28q21 2 21 -15q1 -12 -9 -17q-59 -25 -105 -42.5t-80 -28.5q-66 -21 -123 -19q-210 6 -291 87q-80 81 -70 214q19 235 176 356l-186 1 q-52 0 -21 45l43 63q6 8 103 4zM377 -113q6 8 17 5q20 -7 38.5 -18t34.5 -25q8 -8 3 -18l-48 -76q-7 -10 -18 -2q-10 8 -72 45q-11 7 -4 17zM243 483q21 95 105 103q44 3 134 -48q121 -68 273 -80q17 -1 25 -14q8 -12 -1 -31l-19 -42q-12 -25 -39 -21q-67 15 -176 10 t-280 -85q-47 -22 -85 -49.5t-66 -60.5h-74l9 20q8 17 15.5 33t16.5 31q146 115 371 184q-66 31 -101 39q-33 7 -74 -10q-10 -4 -18 -3q-19 3 -16 24z" />
<glyph unicode="&#xfc18;" horiz-adv-x="1178" arabic-form="isolated" d="M272 213q87 -102 250 -108q50 -2 39 -61t-39 -59q-44 -1 -83.5 8t-74.5 25q0 -95 -44 -130q-20 -15 -39 1q-58 52 -72 152q-54 -7 -97 -52q-5 -22 10 -119q54 -361 41 -420q-9 -38 -30 -38q-20 0 -22 45q-1 35 -10.5 105t-26.5 176q-35 214 2 305q37 92 147 142 q21 61 49 28zM528 222q9 35 46 70t71 35q17 0 59 -13t106 -40q130 -54 287 -47q28 1 10 -39l-27 -62q-9 -18 -21 -17q-58 10 -112 6.5t-104 -19.5t-95.5 -33.5t-85.5 -37.5q-79 -40 -140 -40q-16 0 -24 19q-13 36 -6 63q8 28 15 32t14 6q154 9 258 58q-142 64 -231 37 q-28 -10 -20 22z" />
<glyph unicode="&#xfc19;" horiz-adv-x="835" arabic-form="isolated" d="M197 248q277 -14 397 3q31 2 25 -20l-17 -64q-4 -18 -26 -21q-226 -27 -354 -148q-84 -79 -87 -168q-4 -155 131 -202q134 -46 473 -28q21 2 21 -15q1 -12 -9 -17q-59 -25 -105 -42.5t-80 -28.5q-66 -21 -123 -19q-210 6 -291 87q-80 81 -70 214q19 235 176 356l-186 1 q-52 0 -21 45l43 63q6 8 103 4zM377 -113q6 8 17 5q20 -7 38.5 -18t34.5 -25q8 -8 3 -18l-48 -76q-7 -10 -18 -2q-10 8 -72 45q-11 7 -4 17zM243 483q21 95 105 103q44 3 134 -48q121 -68 273 -80q17 -1 25 -14q8 -12 -1 -31l-19 -42q-12 -25 -39 -21q-67 15 -176 10 t-280 -85q-47 -22 -85 -49.5t-66 -60.5h-74l9 20q8 17 15.5 33t16.5 31q146 115 371 184q-66 31 -101 39q-33 7 -74 -10q-10 -4 -18 -3q-19 3 -16 24zM701 716q6 8 17 5q20 -7 38.5 -18t34.5 -25q8 -8 3 -18l-48 -76q-7 -10 -18 -2q-10 8 -72 45q-11 7 -4 17z" />
<glyph unicode="&#xfc1a;" horiz-adv-x="835" arabic-form="isolated" d="M197 248q277 -14 397 3q31 2 25 -20l-17 -64q-4 -18 -26 -21q-226 -27 -354 -148q-84 -79 -87 -168q-4 -155 131 -202q134 -46 473 -28q21 2 21 -15q1 -12 -9 -17q-59 -25 -105 -42.5t-80 -28.5q-66 -21 -123 -19q-210 6 -291 87q-80 81 -70 214q19 235 176 356l-186 1 q-52 0 -21 45l43 63q6 8 103 4zM243 483q21 95 105 103q44 3 134 -48q121 -68 273 -80q17 -1 25 -14q8 -12 -1 -31l-19 -42q-12 -25 -39 -21q-67 15 -176 10t-280 -85q-47 -22 -85 -49.5t-66 -60.5h-74l9 20q8 17 15.5 33t16.5 31q146 115 371 184q-66 31 -101 39 q-33 7 -74 -10q-10 -4 -18 -3q-19 3 -16 24zM701 716q6 8 17 5q20 -7 38.5 -18t34.5 -25q8 -8 3 -18l-48 -76q-7 -10 -18 -2q-10 8 -72 45q-11 7 -4 17z" />
<glyph unicode="&#xfc1b;" horiz-adv-x="1178" arabic-form="isolated" d="M272 213q87 -102 250 -108q50 -2 39 -61t-39 -59q-44 -1 -83.5 8t-74.5 25q0 -95 -44 -130q-20 -15 -39 1q-58 52 -72 152q-54 -7 -97 -52q-5 -22 10 -119q54 -361 41 -420q-9 -38 -30 -38q-20 0 -22 45q-1 35 -10.5 105t-26.5 176q-35 214 2 305q37 92 147 142 q21 61 49 28zM528 222q9 35 46 70t71 35q17 0 59 -13t106 -40q130 -54 287 -47q28 1 10 -39l-27 -62q-9 -18 -21 -17q-58 10 -112 6.5t-104 -19.5t-95.5 -33.5t-85.5 -37.5q-79 -40 -140 -40q-16 0 -24 19q-13 36 -6 63q8 28 15 32t14 6q154 9 258 58q-142 64 -231 37 q-28 -10 -20 22zM798 527q6 8 17 5q20 -7 38.5 -18t34.5 -25q8 -8 3 -18l-48 -76q-7 -10 -18 -2q-10 8 -72 45q-11 7 -4 17z" />
<glyph unicode="&#xfc1c;" horiz-adv-x="775" arabic-form="isolated" d="M197 248q277 -14 397 3q31 2 25 -20l-17 -64q-4 -18 -26 -21q-226 -27 -354 -148q-84 -79 -87 -168q-4 -155 131 -202q134 -46 473 -28q21 2 21 -15q1 -12 -9 -17q-59 -25 -105 -42.5t-80 -28.5q-66 -21 -123 -19q-210 6 -291 87q-80 81 -70 214q19 235 176 356l-186 1 q-52 0 -21 45l43 63q6 8 103 4zM377 -113q6 8 17 5q20 -7 38.5 -18t34.5 -25q8 -8 3 -18l-48 -76q-7 -10 -18 -2q-10 8 -72 45q-11 7 -4 17zM666 520q12 33 30 8q17 -24 20 -60q6 -93 -55 -155q-18 -18 -42 -15q-53 6 -85 51q-46 -73 -104 -76q-73 -3 -120 99q-7 15 -14 15 q-5 0 -10 -12q-58 -137 -189 -204q-23 -11 -33 -5q-21 10 -3 48q2 2 4 7.5t6 13.5q7 16 20 21q110 36 173 168q21 40 35 53q21 20 38 -11q49 -73 103 -73q71 0 119 110q8 17 21 11t4 -27q-4 -10 -6 -17t-2 -11q4 -44 88 -43q-6 9 -16 17t-2 29z" />
<glyph unicode="&#xfc1d;" horiz-adv-x="775" arabic-form="isolated" d="M197 248q277 -14 397 3q31 2 25 -20l-17 -64q-4 -18 -26 -21q-226 -27 -354 -148q-84 -79 -87 -168q-4 -155 131 -202q134 -46 473 -28q21 2 21 -15q1 -12 -9 -17q-59 -25 -105 -42.5t-80 -28.5q-66 -21 -123 -19q-210 6 -291 87q-80 81 -70 214q19 235 176 356l-186 1 q-52 0 -21 45l43 63q6 8 103 4zM666 520q12 33 30 8q17 -24 20 -60q6 -93 -55 -155q-18 -18 -42 -15q-53 6 -85 51q-46 -73 -104 -76q-73 -3 -120 99q-7 15 -14 15q-5 0 -10 -12q-58 -137 -189 -204q-23 -11 -33 -5q-21 10 -3 48q2 2 4 7.5t6 13.5q7 16 20 21 q110 36 173 168q21 40 35 53q21 20 38 -11q49 -73 103 -73q71 0 119 110q8 17 21 11t4 -27q-4 -10 -6 -17t-2 -11q4 -44 88 -43q-6 9 -16 17t-2 29z" />
<glyph unicode="&#xfc1e;" horiz-adv-x="775" arabic-form="isolated" d="M197 248q277 -14 397 3q31 2 25 -20l-17 -64q-4 -18 -26 -21q-226 -27 -354 -148q-84 -79 -87 -168q-4 -155 131 -202q134 -46 473 -28q21 2 21 -15q1 -12 -9 -17q-59 -25 -105 -42.5t-80 -28.5q-66 -21 -123 -19q-210 6 -291 87q-80 81 -70 214q19 235 176 356l-186 1 q-52 0 -21 45l43 63q6 8 103 4zM138 605q6 8 17 5q20 -7 38.5 -18t34.5 -25q8 -8 3 -18l-48 -76q-7 -10 -18 -2q-10 8 -72 45q-11 7 -4 17zM666 520q12 33 30 8q17 -24 20 -60q6 -93 -55 -155q-18 -18 -42 -15q-53 6 -85 51q-46 -73 -104 -76q-73 -3 -120 99q-7 15 -14 15 q-5 0 -10 -12q-58 -137 -189 -204q-23 -11 -33 -5q-21 10 -3 48q2 2 4 7.5t6 13.5q7 16 20 21q110 36 173 168q21 40 35 53q21 20 38 -11q49 -73 103 -73q71 0 119 110q8 17 21 11t4 -27q-4 -10 -6 -17t-2 -11q4 -44 88 -43q-6 9 -16 17t-2 29z" />
<glyph unicode="&#xfc1f;" horiz-adv-x="910" arabic-form="isolated" d="M439 203q41 0 93 -70q19 -25 32 -28q47 -9 47 -45q0 -27 -13 -50q-14 -25 -36 -25q-58 0 -102 72q-27 44 -96 35t-120 -48q-26 -20 -41 -3q-23 24 -11 40q13 18 50 42q127 81 197 80zM174 -25q-22 10 -13 37q21 59 28 67q4 5 7 7.5t4 3.5q15 13 59 -1q91 -30 161 -82 q25 -19 14 -52q-7 -22 -11.5 -35t-5.5 -16q-12 -28 -35 -27q-49 6 -95 4.5t-89 -12.5q-55 -14 -70 -30q1 -7 6.5 -46t17.5 -110q12 -70 18.5 -111.5t7.5 -54.5q2 -34 -2 -69.5t-13 -72.5q-6 -21 -22 -18q-15 3 -12 49q3 45 -45 285q-15 81 4 149q19 67 41 94q21 25 45 41z M805 266q11 36 33 9q36 -40 16 -139q-7 -37 -28 -71q-22 -36 -41 -37q-61 -6 -121 46q-44 -89 -99 -89q-21 0 -27 33q-16 82 26 87q45 4 82 35q36 30 52 100q4 16 19 13q14 -3 10 -19q-9 -42 -8 -50q4 -10 28 -23q11 -6 23.5 -10t26.5 -7q-3 12 -12 19q-11 9 -6 22z" />
<glyph unicode="&#xfc20;" horiz-adv-x="953" arabic-form="isolated" d="M197 248q277 -14 397 3q31 2 25 -20l-17 -64q-4 -18 -26 -21q-226 -27 -354 -148q-84 -79 -87 -168q-4 -155 131 -202q134 -46 473 -28q21 2 21 -15q1 -12 -9 -17q-59 -25 -105 -42.5t-80 -28.5q-66 -21 -123 -19q-210 6 -291 87q-80 81 -70 214q19 235 176 356l-186 1 q-52 0 -21 45l43 63q6 8 103 4zM771 601q31 0 77 -40q44 -39 46 -72q1 -33 -48 -100q-51 -69 -79 -79q-158 -60 -339 -32q-6 -10 -10 -15.5t-6 -7.5q-14 -15 -24 -8t7 43q-51 21 -82 62q-69 -102 -196 -187q-30 -19 -47 -13q-30 12 -2 82q5 12 15 17q90 36 155 91 q63 54 92 118q8 17 20 17q13 0 23 -19q24 -43 102 -63q36 38 75 74t81 68q83 64 140 64zM795 430q-52 54 -107 45q-92 -13 -167 -87q190 -5 274 42z" />
<glyph unicode="&#xfc21;" horiz-adv-x="1098" arabic-form="isolated" d="M439 203q41 0 93 -70q19 -25 32 -28q47 -9 47 -45q0 -27 -13 -50q-14 -25 -36 -25q-58 0 -102 72q-27 44 -96 35t-120 -48q-26 -20 -41 -3q-23 24 -11 40q13 18 50 42q127 81 197 80zM174 -25q-22 10 -13 37q21 59 28 67q4 5 7 7.5t4 3.5q15 13 59 -1q91 -30 161 -82 q25 -19 14 -52q-7 -22 -11.5 -35t-5.5 -16q-12 -28 -35 -27q-49 6 -95 4.5t-89 -12.5q-55 -14 -70 -30q1 -7 6.5 -46t17.5 -110q12 -70 18.5 -111.5t7.5 -54.5q2 -34 -2 -69.5t-13 -72.5q-6 -21 -22 -18q-15 3 -12 49q3 45 -45 285q-15 81 4 149q19 67 41 94q21 25 45 41z M631 107q171 245 288 248q45 1 97 -48q29 -29 25 -61q-2 -16 -9.5 -37t-18.5 -47q-23 -51 -35 -62q-110 -101 -363 -116q-10 -36 -18 -48q-12 -12 -25 -5q-14 8 -2 55q-32 4 -41 32q-27 88 40 87q20 0 35.5 0.5t26.5 1.5zM955 188q-65 36 -111 25q-83 -20 -153 -100 q198 29 264 75z" />
<glyph unicode="&#xfc22;" horiz-adv-x="953" arabic-form="isolated" d="M197 248q277 -14 397 3q31 2 25 -20l-17 -64q-4 -18 -26 -21q-226 -27 -354 -148q-84 -79 -87 -168q-4 -155 131 -202q134 -46 473 -28q21 2 21 -15q1 -12 -9 -17q-59 -25 -105 -42.5t-80 -28.5q-66 -21 -123 -19q-210 6 -291 87q-80 81 -70 214q19 235 176 356l-186 1 q-52 0 -21 45l43 63q6 8 103 4zM377 -113q6 8 17 5q20 -7 38.5 -18t34.5 -25q8 -8 3 -18l-48 -76q-7 -10 -18 -2q-10 8 -72 45q-11 7 -4 17zM771 601q31 0 77 -40q44 -39 46 -72q1 -33 -48 -100q-51 -69 -79 -79q-158 -60 -339 -32q-6 -10 -10 -15.5t-6 -7.5q-14 -15 -24 -8 t7 43q-51 21 -82 62q-69 -102 -196 -187q-30 -19 -47 -13q-30 12 -2 82q5 12 15 17q90 36 155 91q63 54 92 118q8 17 20 17q13 0 23 -19q24 -43 102 -63q36 38 75 74t81 68q83 64 140 64zM795 430q-52 54 -107 45q-92 -13 -167 -87q190 -5 274 42zM535 749q6 8 17 5 q20 -7 38.5 -18t34.5 -25q8 -8 3 -18l-48 -76q-7 -10 -18 -2q-10 8 -72 45q-11 7 -4 17z" />
<glyph unicode="&#xfc23;" horiz-adv-x="953" arabic-form="isolated" d="M197 248q277 -14 397 3q31 2 25 -20l-17 -64q-4 -18 -26 -21q-226 -27 -354 -148q-84 -79 -87 -168q-4 -155 131 -202q134 -46 473 -28q21 2 21 -15q1 -12 -9 -17q-59 -25 -105 -42.5t-80 -28.5q-66 -21 -123 -19q-210 6 -291 87q-80 81 -70 214q19 235 176 356l-186 1 q-52 0 -21 45l43 63q6 8 103 4zM771 601q31 0 77 -40q44 -39 46 -72q1 -33 -48 -100q-51 -69 -79 -79q-158 -60 -339 -32q-6 -10 -10 -15.5t-6 -7.5q-14 -15 -24 -8t7 43q-51 21 -82 62q-69 -102 -196 -187q-30 -19 -47 -13q-30 12 -2 82q5 12 15 17q90 36 155 91 q63 54 92 118q8 17 20 17q13 0 23 -19q24 -43 102 -63q36 38 75 74t81 68q83 64 140 64zM795 430q-52 54 -107 45q-92 -13 -167 -87q190 -5 274 42zM535 749q6 8 17 5q20 -7 38.5 -18t34.5 -25q8 -8 3 -18l-48 -76q-7 -10 -18 -2q-10 8 -72 45q-11 7 -4 17z" />
<glyph unicode="&#xfc24;" horiz-adv-x="953" arabic-form="isolated" d="M197 248q277 -14 397 3q31 2 25 -20l-17 -64q-4 -18 -26 -21q-226 -27 -354 -148q-84 -79 -87 -168q-4 -155 131 -202q134 -46 473 -28q21 2 21 -15q1 -12 -9 -17q-59 -25 -105 -42.5t-80 -28.5q-66 -21 -123 -19q-210 6 -291 87q-80 81 -70 214q19 235 176 356l-186 1 q-52 0 -21 45l43 63q6 8 103 4zM138 605q6 8 17 5q20 -7 38.5 -18t34.5 -25q8 -8 3 -18l-48 -76q-7 -10 -18 -2q-10 8 -72 45q-11 7 -4 17zM771 601q31 0 77 -40q44 -39 46 -72q1 -33 -48 -100q-51 -69 -79 -79q-158 -60 -339 -32q-6 -10 -10 -15.5t-6 -7.5q-14 -15 -24 -8 t7 43q-51 21 -82 62q-69 -102 -196 -187q-30 -19 -47 -13q-30 12 -2 82q5 12 15 17q90 36 155 91q63 54 92 118q8 17 20 17q13 0 23 -19q24 -43 102 -63q36 38 75 74t81 68q83 64 140 64zM795 430q-52 54 -107 45q-92 -13 -167 -87q190 -5 274 42zM535 749q6 8 17 5 q20 -7 38.5 -18t34.5 -25q8 -8 3 -18l-48 -76q-7 -10 -18 -2q-10 8 -72 45q-11 7 -4 17z" />
<glyph unicode="&#xfc25;" horiz-adv-x="1098" arabic-form="isolated" d="M439 203q41 0 93 -70q19 -25 32 -28q47 -9 47 -45q0 -27 -13 -50q-14 -25 -36 -25q-58 0 -102 72q-27 44 -96 35t-120 -48q-26 -20 -41 -3q-23 24 -11 40q13 18 50 42q127 81 197 80zM174 -25q-22 10 -13 37q21 59 28 67q4 5 7 7.5t4 3.5q15 13 59 -1q91 -30 161 -82 q25 -19 14 -52q-7 -22 -11.5 -35t-5.5 -16q-12 -28 -35 -27q-49 6 -95 4.5t-89 -12.5q-55 -14 -70 -30q1 -7 6.5 -46t17.5 -110q12 -70 18.5 -111.5t7.5 -54.5q2 -34 -2 -69.5t-13 -72.5q-6 -21 -22 -18q-15 3 -12 49q3 45 -45 285q-15 81 4 149q19 67 41 94q21 25 45 41z M631 107q171 245 288 248q45 1 97 -48q29 -29 25 -61q-2 -16 -9.5 -37t-18.5 -47q-23 -51 -35 -62q-110 -101 -363 -116q-10 -36 -18 -48q-12 -12 -25 -5q-14 8 -2 55q-32 4 -41 32q-27 88 40 87q20 0 35.5 0.5t26.5 1.5zM955 188q-65 36 -111 25q-83 -20 -153 -100 q198 29 264 75zM689 551q6 8 17 5q20 -7 38.5 -18t34.5 -25q8 -8 3 -18l-48 -76q-7 -10 -18 -2q-10 8 -72 45q-11 7 -4 17z" />
<glyph unicode="&#xfc26;" horiz-adv-x="1207" arabic-form="isolated" d="M83 151q5 123 130 124q18 0 47.5 -3t69.5 -10q65 -11 131 -11.5t133 10.5q53 9 39 -23l-29 -69q-8 -17 -22 -18q-62 -6 -103 -18q28 -39 159 -28q31 3 39 -34q6 -27 -5 -56q-11 -30 -31 -30q-135 0 -176 36t-35 99q-88 -18 -160 -61q-94 -56 -130 -131q-37 -77 -25 -144 q26 -149 202 -183q154 -30 397 1q40 5 40 -14q0 -14 -42 -28q-40 -13 -80 -42t-49 -33q-10 -4 -21 -6q-299 -36 -416 58q-94 75 -82 239q19 256 207 375q-95 14 -164 -20q-25 -12 -24 20zM758 157q9 65 -3 243q-6 89 -11.5 142t-8.5 70q-6 35 -5 38q3 21 27 65q16 28 31 -5 q13 -27 22.5 -43.5t15.5 -23.5q21 -24 6 -42l-25 -28q-1 -2 -1 -11q7 -100 10 -163.5t1 -91.5q-1 -28 -3.5 -55t-6.5 -53q136 114 205 132q82 22 132 -75q8 -15 2 -39q-10 -34 -23 -63.5t-29 -52.5q-32 -47 -98 -62q-186 -44 -356 -54q-21 0 -30 29q-4 15 -5.5 29.5 t1.5 29.5q6 31 34 32q26 1 43.5 2t25.5 2zM980 214q-76 -2 -195 -98q189 19 290 51q-38 47 -95 47z" />
<glyph unicode="&#xfc27;" horiz-adv-x="1090" arabic-form="isolated" d="M272 213q87 -102 250 -108q50 -2 39 -61t-39 -59q-44 -1 -83.5 8t-74.5 25q0 -95 -44 -130q-20 -15 -39 1q-58 52 -72 152q-54 -7 -97 -52q-5 -22 10 -119q54 -361 41 -420q-9 -38 -30 -38q-20 0 -22 45q-1 35 -10.5 105t-26.5 176q-35 214 2 305q37 92 147 142 q21 61 49 28zM640 157q9 65 -3 243q-6 89 -11.5 142t-8.5 70q-6 35 -5 38q3 21 27 65q16 28 31 -5q13 -27 22.5 -43.5t15.5 -23.5q21 -24 6 -42l-25 -28q-1 -2 -1 -11q7 -100 10 -163.5t1 -91.5q-1 -28 -3.5 -55t-6.5 -53q136 114 205 132q82 22 132 -75q8 -15 2 -39 q-10 -34 -23 -63.5t-29 -52.5q-32 -47 -98 -62q-186 -44 -356 -54q-21 0 -30 29q-4 15 -5.5 29.5t1.5 29.5q6 31 34 32q26 1 43.5 2t25.5 2zM862 214q-76 -2 -195 -98q189 19 290 51q-38 47 -95 47z" />
<glyph unicode="&#xfc28;" horiz-adv-x="1090" arabic-form="isolated" d="M272 213q87 -102 250 -108q50 -2 39 -61t-39 -59q-44 -1 -83.5 8t-74.5 25q0 -95 -44 -130q-20 -15 -39 1q-58 52 -72 152q-54 -7 -97 -52q-5 -22 10 -119q54 -361 41 -420q-9 -38 -30 -38q-20 0 -22 45q-1 35 -10.5 105t-26.5 176q-35 214 2 305q37 92 147 142 q21 61 49 28zM640 157q9 65 -3 243q-6 89 -11.5 142t-8.5 70q-6 35 -5 38q3 21 27 65q16 28 31 -5q13 -27 22.5 -43.5t15.5 -23.5q21 -24 6 -42l-25 -28q-1 -2 -1 -11q7 -100 10 -163.5t1 -91.5q-1 -28 -3.5 -55t-6.5 -53q136 114 205 132q82 22 132 -75q8 -15 2 -39 q-10 -34 -23 -63.5t-29 -52.5q-32 -47 -98 -62q-186 -44 -356 -54q-21 0 -30 29q-4 15 -5.5 29.5t1.5 29.5q6 31 34 32q26 1 43.5 2t25.5 2zM862 214q-76 -2 -195 -98q189 19 290 51q-38 47 -95 47zM874 551q6 8 17 5q20 -7 38.5 -18t34.5 -25q8 -8 3 -18l-48 -76 q-7 -10 -18 -2q-10 8 -72 45q-11 7 -4 17z" />
<glyph unicode="&#xfc29;" horiz-adv-x="681" arabic-form="isolated" d="M197 248q277 -14 397 3q31 2 25 -20l-17 -64q-4 -18 -26 -21q-226 -27 -354 -148q-84 -79 -87 -168q-4 -155 131 -202q134 -46 473 -28q21 2 21 -15q1 -12 -9 -17q-59 -25 -105 -42.5t-80 -28.5q-66 -21 -123 -19q-210 6 -291 87q-80 81 -70 214q19 235 176 356l-186 1 q-52 0 -21 45l43 63q6 8 103 4zM377 -113q6 8 17 5q20 -7 38.5 -18t34.5 -25q8 -8 3 -18l-48 -76q-7 -10 -18 -2q-10 8 -72 45q-11 7 -4 17zM596 467q15 6 27 -6q13 -13 -8 -50q-1 -1 -5.5 -9t-14.5 -23q-9 -14 -25 -18q-133 -37 -212 -59.5t-102 -30.5l-123 -55 q-33 -4 -40 17q-4 12 8 24q37 43 156 94q-24 21 -36 42q-18 33 1 85q20 53 78 102q59 50 110 45q74 -6 120 -72q10 -16 1 -30q-10 -14 -27 -8q-28 10 -51.5 15t-43.5 4q-78 -3 -114 -49q41 -58 96 -62q91 -8 205 44z" />
<glyph unicode="&#xfc2a;" horiz-adv-x="1000" arabic-form="isolated" d="M272 213q87 -102 250 -108q50 -2 39 -61t-39 -59q-44 -1 -83.5 8t-74.5 25q0 -95 -44 -130q-20 -15 -39 1q-58 52 -72 152q-54 -7 -97 -52q-5 -22 10 -119q54 -361 41 -420q-9 -38 -30 -38q-20 0 -22 45q-1 35 -10.5 105t-26.5 176q-35 214 2 305q37 92 147 142 q21 61 49 28zM945 248l-20 -81q-3 -12 -25 -22q-10 -4 -47 -19t-99 -40l-232 -101q-35 0 -45 49t39 70q20 8 34.5 14.5t24.5 10.5q-53 44 -38 109q31 134 144 187q28 13 67 -5q38 -18 79 -60q21 -22 15 -35q-5 -12 -50 0q-46 13 -109 -2q-66 -15 -86 -59q-6 -11 28 -42 q85 -73 244 28q11 7 20.5 13t16.5 10q54 34 39 -25z" />
<glyph unicode="&#xfc2b;" horiz-adv-x="681" arabic-form="isolated" d="M197 248q277 -14 397 3q31 2 25 -20l-17 -64q-4 -18 -26 -21q-226 -27 -354 -148q-84 -79 -87 -168q-4 -155 131 -202q134 -46 473 -28q21 2 21 -15q1 -12 -9 -17q-59 -25 -105 -42.5t-80 -28.5q-66 -21 -123 -19q-210 6 -291 87q-80 81 -70 214q19 235 176 356l-186 1 q-52 0 -21 45l43 63q6 8 103 4zM377 -113q6 8 17 5q20 -7 38.5 -18t34.5 -25q8 -8 3 -18l-48 -76q-7 -10 -18 -2q-10 8 -72 45q-11 7 -4 17zM596 467q15 6 27 -6q13 -13 -8 -50q-1 -1 -5.5 -9t-14.5 -23q-9 -14 -25 -18q-133 -37 -212 -59.5t-102 -30.5l-123 -55 q-33 -4 -40 17q-4 12 8 24q37 43 156 94q-24 21 -36 42q-18 33 1 85q20 53 78 102q59 50 110 45q74 -6 120 -72q10 -16 1 -30q-10 -14 -27 -8q-28 10 -51.5 15t-43.5 4q-78 -3 -114 -49q41 -58 96 -62q91 -8 205 44zM323 788q6 8 17 5q20 -7 38.5 -18t34.5 -25q8 -8 3 -18 l-48 -76q-7 -10 -18 -2q-10 8 -72 45q-11 7 -4 17z" />
<glyph unicode="&#xfc2c;" horiz-adv-x="1000" arabic-form="isolated" d="M272 213q87 -102 250 -108q50 -2 39 -61t-39 -59q-44 -1 -83.5 8t-74.5 25q0 -95 -44 -130q-20 -15 -39 1q-58 52 -72 152q-54 -7 -97 -52q-5 -22 10 -119q54 -361 41 -420q-9 -38 -30 -38q-20 0 -22 45q-1 35 -10.5 105t-26.5 176q-35 214 2 305q37 92 147 142 q21 61 49 28zM945 248l-20 -81q-3 -12 -25 -22q-10 -4 -47 -19t-99 -40l-232 -101q-35 0 -45 49t39 70q20 8 34.5 14.5t24.5 10.5q-53 44 -38 109q31 134 144 187q28 13 67 -5q38 -18 79 -60q21 -22 15 -35q-5 -12 -50 0q-46 13 -109 -2q-66 -15 -86 -59q-6 -11 28 -42 q85 -73 244 28q11 7 20.5 13t16.5 10q54 34 39 -25zM646 600q6 8 17 5q20 -7 38.5 -18t34.5 -25q8 -8 3 -18l-48 -76q-7 -10 -18 -2q-10 8 -72 45q-11 7 -4 17z" />
<glyph unicode="&#xfc2d;" horiz-adv-x="722" arabic-form="isolated" d="M197 248q277 -14 397 3q31 2 25 -20l-17 -64q-4 -18 -26 -21q-226 -27 -354 -148q-84 -79 -87 -168q-4 -155 131 -202q134 -46 473 -28q21 2 21 -15q1 -12 -9 -17q-59 -25 -105 -42.5t-80 -28.5q-66 -21 -123 -19q-210 6 -291 87q-80 81 -70 214q19 235 176 356l-186 1 q-52 0 -21 45l43 63q6 8 103 4zM377 -113q6 8 17 5q20 -7 38.5 -18t34.5 -25q8 -8 3 -18l-48 -76q-7 -10 -18 -2q-10 8 -72 45q-11 7 -4 17zM303 355q-1 21 -20 41q-57 -79 -117 -63q-72 19 -28 167q30 102 80 118q33 11 72 -37q54 -66 58 -206q2 -49 -22 -90 q-60 -111 -193 -107q-42 2 -51 22q-9 21 10 44t29 29q11 6 27 9q143 26 155 73zM168 487q6 -34 31 -36q25 0 33 24q-20 21 -37 23t-27 -11zM158 800q6 8 17 5q20 -7 38.5 -18t34.5 -25q8 -8 3 -18l-48 -76q-7 -10 -18 -2q-10 8 -72 45q-11 7 -4 17z" />
<glyph unicode="&#xfc2e;" horiz-adv-x="722" arabic-form="isolated" d="M197 248q277 -14 397 3q31 2 25 -20l-17 -64q-4 -18 -26 -21q-226 -27 -354 -148q-84 -79 -87 -168q-4 -155 131 -202q134 -46 473 -28q21 2 21 -15q1 -12 -9 -17q-59 -25 -105 -42.5t-80 -28.5q-66 -21 -123 -19q-210 6 -291 87q-80 81 -70 214q19 235 176 356l-186 1 q-52 0 -21 45l43 63q6 8 103 4zM303 355q-1 21 -20 41q-57 -79 -117 -63q-72 19 -28 167q30 102 80 118q33 11 72 -37q54 -66 58 -206q2 -49 -22 -90q-60 -111 -193 -107q-42 2 -51 22q-9 21 10 44t29 29q11 6 27 9q143 26 155 73zM168 487q6 -34 31 -36q25 0 33 24 q-20 21 -37 23t-27 -11zM158 800q6 8 17 5q20 -7 38.5 -18t34.5 -25q8 -8 3 -18l-48 -76q-7 -10 -18 -2q-10 8 -72 45q-11 7 -4 17z" />
<glyph unicode="&#xfc2f;" horiz-adv-x="722" arabic-form="isolated" d="M197 248q277 -14 397 3q31 2 25 -20l-17 -64q-4 -18 -26 -21q-226 -27 -354 -148q-84 -79 -87 -168q-4 -155 131 -202q134 -46 473 -28q21 2 21 -15q1 -12 -9 -17q-59 -25 -105 -42.5t-80 -28.5q-66 -21 -123 -19q-210 6 -291 87q-80 81 -70 214q19 235 176 356l-186 1 q-52 0 -21 45l43 63q6 8 103 4zM494 448q6 8 17 5q20 -7 38.5 -18t34.5 -25q8 -8 3 -18l-48 -76q-7 -10 -18 -2q-10 8 -72 45q-11 7 -4 17zM303 355q-1 21 -20 41q-57 -79 -117 -63q-72 19 -28 167q30 102 80 118q33 11 72 -37q54 -66 58 -206q2 -49 -22 -90 q-60 -111 -193 -107q-42 2 -51 22q-9 21 10 44t29 29q11 6 27 9q143 26 155 73zM168 487q6 -34 31 -36q25 0 33 24q-20 21 -37 23t-27 -11zM158 800q6 8 17 5q20 -7 38.5 -18t34.5 -25q8 -8 3 -18l-48 -76q-7 -10 -18 -2q-10 8 -72 45q-11 7 -4 17z" />
<glyph unicode="&#xfc30;" horiz-adv-x="817" arabic-form="isolated" d="M272 213q87 -102 250 -108q50 -2 39 -61t-39 -59q-44 -1 -83.5 8t-74.5 25q0 -95 -44 -130q-20 -15 -39 1q-58 52 -72 152q-54 -7 -97 -52q-5 -22 10 -119q54 -361 41 -420q-9 -38 -30 -38q-20 0 -22 45q-1 35 -10.5 105t-26.5 176q-35 214 2 305q37 92 147 142 q21 61 49 28zM624 443q30 0 50 -20q80 -82 80 -219q0 -80 -29 -118q-81 -104 -203 -101q-24 0 -32 31q-7 30 0 58q7 30 31 31q128 9 184 62q-3 34 -8 39q-6 7 -13 -5q-19 -32 -50 -40q-98 -24 -104 51q-8 88 25 159q33 72 69 72zM599 320q-23 0 -26 -44q8 -2 17.5 -3t21.5 0 q23 3 29 12q-23 35 -42 35zM578 624q6 8 17 5q20 -7 38.5 -18t34.5 -25q8 -8 3 -18l-48 -76q-7 -10 -18 -2q-10 8 -72 45q-11 7 -4 17z" />
<glyph unicode="&#xfc31;" horiz-adv-x="713" arabic-form="isolated" d="M441 144q34 4 67.5 3.5t65.5 -4.5q65 -7 96 -36q19 -19 15 -58q-4 -34 -11 -57.5t-18 -37.5q-10 -13 -24 -26.5t-32 -27.5q-93 -71 -181.5 -103t-171.5 -26q-254 18 -179 309q21 80 68 141q14 17 25 7q12 -11 -3 -32q-29 -44 -42 -83t-12 -73q7 -143 178 -144 q171 -2 335 135q-42 23 -185 23q-14 0 -17 11t0 18zM602 455q74 -111 33 -263q-36 -137 -201 -137q-46 3 5 88q7 11 21 13q126 18 152 61q9 15 -26 62q-9 -17 -19 -29.5t-22 -19.5q-63 -36 -102 25q-31 50 0 124q47 115 97 116q35 2 62 -40zM494 381q-12 0 -26 -17 q-6 -8 6 -17q29 -22 60 6q4 4 0 8q-24 20 -40 20zM454 761q6 8 17 5q20 -7 38.5 -18t34.5 -25q8 -8 3 -18l-48 -76q-7 -10 -18 -2q-10 8 -72 45q-11 7 -4 17z" />
<glyph unicode="&#xfc32;" horiz-adv-x="713" arabic-form="isolated" d="M441 144q34 4 67.5 3.5t65.5 -4.5q65 -7 96 -36q19 -19 15 -58q-4 -34 -11 -57.5t-18 -37.5q-10 -13 -24 -26.5t-32 -27.5q-93 -71 -181.5 -103t-171.5 -26q-254 18 -179 309q21 80 68 141q14 17 25 7q12 -11 -3 -32q-29 -44 -42 -83t-12 -73q7 -143 178 -144 q171 -2 335 135q-42 23 -185 23q-14 0 -17 11t0 18zM384 -299q6 8 17 5q20 -7 39 -18t35 -25q8 -8 3 -18l-48 -76q-8 -11 -18 -2q-4 4 -17.5 12.5t-35.5 21.5l-33 -54q-7 -10 -18 -2q-5 4 -23.5 15t-49.5 30q-11 6 -3 17l48 72q6 8 17 5q30 -10 56 -29zM602 455 q74 -111 33 -263q-36 -137 -201 -137q-46 3 5 88q7 11 21 13q126 18 152 61q9 15 -26 62q-9 -17 -19 -29.5t-22 -19.5q-63 -36 -102 25q-31 50 0 124q47 115 97 116q35 2 62 -40zM494 381q-12 0 -26 -17q-6 -8 6 -17q29 -22 60 6q4 4 0 8q-24 20 -40 20zM454 761q6 8 17 5 q20 -7 38.5 -18t34.5 -25q8 -8 3 -18l-48 -76q-7 -10 -18 -2q-10 8 -72 45q-11 7 -4 17z" />
<glyph unicode="&#xfc33;" horiz-adv-x="722" arabic-form="isolated" d="M197 248q277 -14 397 3q31 2 25 -20l-17 -64q-4 -18 -26 -21q-226 -27 -354 -148q-84 -79 -87 -168q-4 -155 131 -202q134 -46 473 -28q21 2 21 -15q1 -12 -9 -17q-59 -25 -105 -42.5t-80 -28.5q-66 -21 -123 -19q-210 6 -291 87q-80 81 -70 214q19 235 176 356l-186 1 q-52 0 -21 45l43 63q6 8 103 4zM303 355q-1 21 -20 41q-57 -79 -117 -63q-72 19 -28 167q30 102 80 118q33 11 72 -37q54 -66 58 -206q2 -49 -22 -90q-60 -111 -193 -107q-42 2 -51 22q-9 21 10 44t29 29q11 6 27 9q143 26 155 73zM168 487q6 -34 31 -36q25 0 33 24 q-20 21 -37 23t-27 -11zM212 822q6 8 17 5q20 -7 39 -18t35 -25q8 -8 3 -18l-48 -76q-8 -11 -18 -2q-4 4 -17.5 12.5t-35.5 21.5l-33 -54q-7 -10 -18 -2q-5 4 -23.5 15t-49.5 30q-11 6 -3 17l48 72q6 8 17 5q30 -10 56 -29z" />
<glyph unicode="&#xfc34;" horiz-adv-x="817" arabic-form="isolated" d="M272 213q87 -102 250 -108q50 -2 39 -61t-39 -59q-44 -1 -83.5 8t-74.5 25q0 -95 -44 -130q-20 -15 -39 1q-58 52 -72 152q-54 -7 -97 -52q-5 -22 10 -119q54 -361 41 -420q-9 -38 -30 -38q-20 0 -22 45q-1 35 -10.5 105t-26.5 176q-35 214 2 305q37 92 147 142 q21 61 49 28zM624 443q30 0 50 -20q80 -82 80 -219q0 -80 -29 -118q-81 -104 -203 -101q-24 0 -32 31q-7 30 0 58q7 30 31 31q128 9 184 62q-3 34 -8 39q-6 7 -13 -5q-19 -32 -50 -40q-98 -24 -104 51q-8 88 25 159q33 72 69 72zM599 320q-23 0 -26 -44q8 -2 17.5 -3t21.5 0 q23 3 29 12q-23 35 -42 35zM662 646q6 8 17 5q20 -7 39 -18t35 -25q8 -8 3 -18l-48 -76q-8 -11 -18 -2q-4 4 -17.5 12.5t-35.5 21.5l-33 -54q-7 -10 -18 -2q-5 4 -23.5 15t-49.5 30q-11 6 -3 17l48 72q6 8 17 5q30 -10 56 -29z" />
<glyph unicode="&#xfc35;" horiz-adv-x="713" arabic-form="isolated" d="M441 144q34 4 67.5 3.5t65.5 -4.5q65 -7 96 -36q19 -19 15 -58q-4 -34 -11 -57.5t-18 -37.5q-10 -13 -24 -26.5t-32 -27.5q-93 -71 -181.5 -103t-171.5 -26q-254 18 -179 309q21 80 68 141q14 17 25 7q12 -11 -3 -32q-29 -44 -42 -83t-12 -73q7 -143 178 -144 q171 -2 335 135q-42 23 -185 23q-14 0 -17 11t0 18zM602 455q74 -111 33 -263q-36 -137 -201 -137q-46 3 5 88q7 11 21 13q126 18 152 61q9 15 -26 62q-9 -17 -19 -29.5t-22 -19.5q-63 -36 -102 25q-31 50 0 124q47 115 97 116q35 2 62 -40zM494 381q-12 0 -26 -17 q-6 -8 6 -17q29 -22 60 6q4 4 0 8q-24 20 -40 20zM503 783q6 8 17 5q20 -7 39 -18t35 -25q8 -8 3 -18l-48 -76q-8 -11 -18 -2q-4 4 -17.5 12.5t-35.5 21.5l-33 -54q-7 -10 -18 -2q-5 4 -23.5 15t-49.5 30q-11 6 -3 17l48 72q6 8 17 5q30 -10 56 -29z" />
<glyph unicode="&#xfc36;" horiz-adv-x="713" arabic-form="isolated" d="M441 144q34 4 67.5 3.5t65.5 -4.5q65 -7 96 -36q19 -19 15 -58q-4 -34 -11 -57.5t-18 -37.5q-10 -13 -24 -26.5t-32 -27.5q-93 -71 -181.5 -103t-171.5 -26q-254 18 -179 309q21 80 68 141q14 17 25 7q12 -11 -3 -32q-29 -44 -42 -83t-12 -73q7 -143 178 -144 q171 -2 335 135q-42 23 -185 23q-14 0 -17 11t0 18zM384 -299q6 8 17 5q20 -7 39 -18t35 -25q8 -8 3 -18l-48 -76q-8 -11 -18 -2q-4 4 -17.5 12.5t-35.5 21.5l-33 -54q-7 -10 -18 -2q-5 4 -23.5 15t-49.5 30q-11 6 -3 17l48 72q6 8 17 5q30 -10 56 -29zM602 455 q74 -111 33 -263q-36 -137 -201 -137q-46 3 5 88q7 11 21 13q126 18 152 61q9 15 -26 62q-9 -17 -19 -29.5t-22 -19.5q-63 -36 -102 25q-31 50 0 124q47 115 97 116q35 2 62 -40zM494 381q-12 0 -26 -17q-6 -8 6 -17q29 -22 60 6q4 4 0 8q-24 20 -40 20zM503 783q6 8 17 5 q20 -7 39 -18t35 -25q8 -8 3 -18l-48 -76q-8 -11 -18 -2q-4 4 -17.5 12.5t-35.5 21.5l-33 -54q-7 -10 -18 -2q-5 4 -23.5 15t-49.5 30q-11 6 -3 17l48 72q6 8 17 5q30 -10 56 -29z" />
<glyph unicode="&#xfc37;" horiz-adv-x="775" arabic-form="isolated" d="M83 739q28 -102 29 -325q1 -112 6 -177t13 -84q17 -38 61 -46q43 -7 51 -74q5 -47 -32 -57q-9 -3 -24 -1q-50 4 -86 42q-59 61 -56 267q1 56 -1.5 110.5t-8.5 108.5t-10.5 90t-8.5 52q-7 33 -6 41q2 9 4 13l29 46q5 10 14 13q18 6 26 -19zM147 401q159 -43 211 -110 q48 -63 48 -127q-1 -156 -108 -183q-45 -10 -111 -6q-25 3 -36 33q-11 31 -1 61q13 43 40 39q97 -14 177 47q-34 46 -98 84t-159 66q-22 6 -22 56q0 21 2 36.5t6 25.5q39 95 240 213q102 60 177.5 99.5t124.5 56.5q53 20 41 -33l-14 -64q-6 -21 -25 -28 q-61 -25 -131.5 -59.5t-148.5 -76.5q-157 -84 -213 -130z" />
<glyph unicode="&#xfc38;" horiz-adv-x="812" arabic-form="isolated" d="M197 248q277 -14 397 3q31 2 25 -20l-17 -64q-4 -18 -26 -21q-226 -27 -354 -148q-84 -79 -87 -168q-4 -155 131 -202q134 -46 473 -28q21 2 21 -15q1 -12 -9 -17q-59 -25 -105 -42.5t-80 -28.5q-66 -21 -123 -19q-210 6 -291 87q-80 81 -70 214q19 235 176 356l-186 1 q-52 0 -21 45l43 63q6 8 103 4zM377 -113q6 8 17 5q20 -7 38.5 -18t34.5 -25q8 -8 3 -18l-48 -76q-7 -10 -18 -2q-10 8 -72 45q-11 7 -4 17zM762 808l-19 -45q-10 -22 -42 -28q-202 -30 -336.5 -62.5t-202.5 -67.5q79 -74 110 -116q66 -91 47 -185q-37 -132 -186 -126 q-43 2 -52 22q-9 21 11 45q20 25 31 29q6 2 12 4.5t13 3.5q43 8 72 17.5t45 19.5q-10 26 -37.5 61t-72.5 80l-12 -7q-18 -11 -38 12l-49 60q-14 17 -8 44q11 54 45 99q146 105 635 185q16 2 24 -1q24 -10 10 -44z" />
<glyph unicode="&#xfc39;" horiz-adv-x="812" arabic-form="isolated" d="M197 248q277 -14 397 3q31 2 25 -20l-17 -64q-4 -18 -26 -21q-226 -27 -354 -148q-84 -79 -87 -168q-4 -155 131 -202q134 -46 473 -28q21 2 21 -15q1 -12 -9 -17q-59 -25 -105 -42.5t-80 -28.5q-66 -21 -123 -19q-210 6 -291 87q-80 81 -70 214q19 235 176 356l-186 1 q-52 0 -21 45l43 63q6 8 103 4zM762 808l-19 -45q-10 -22 -42 -28q-202 -30 -336.5 -62.5t-202.5 -67.5q79 -74 110 -116q66 -91 47 -185q-37 -132 -186 -126q-43 2 -52 22q-9 21 11 45q20 25 31 29q6 2 12 4.5t13 3.5q43 8 72 17.5t45 19.5q-10 26 -37.5 61t-72.5 80 l-12 -7q-18 -11 -38 12l-49 60q-14 17 -8 44q11 54 45 99q146 105 635 185q16 2 24 -1q24 -10 10 -44z" />
<glyph unicode="&#xfc3a;" horiz-adv-x="812" arabic-form="isolated" d="M197 248q277 -14 397 3q31 2 25 -20l-17 -64q-4 -18 -26 -21q-226 -27 -354 -148q-84 -79 -87 -168q-4 -155 131 -202q134 -46 473 -28q21 2 21 -15q1 -12 -9 -17q-59 -25 -105 -42.5t-80 -28.5q-66 -21 -123 -19q-210 6 -291 87q-80 81 -70 214q19 235 176 356l-186 1 q-52 0 -21 45l43 63q6 8 103 4zM494 448q6 8 17 5q20 -7 38.5 -18t34.5 -25q8 -8 3 -18l-48 -76q-7 -10 -18 -2q-10 8 -72 45q-11 7 -4 17zM762 808l-19 -45q-10 -22 -42 -28q-202 -30 -336.5 -62.5t-202.5 -67.5q79 -74 110 -116q66 -91 47 -185q-37 -132 -186 -126 q-43 2 -52 22q-9 21 11 45q20 25 31 29q6 2 12 4.5t13 3.5q43 8 72 17.5t45 19.5q-10 26 -37.5 61t-72.5 80l-12 -7q-18 -11 -38 12l-49 60q-14 17 -8 44q11 54 45 99q146 105 635 185q16 2 24 -1q24 -10 10 -44z" />
<glyph unicode="&#xfc3b;" horiz-adv-x="1189" arabic-form="isolated" d="M540 9q25 -232 -59 -297q-112 -85 -216 -86q-105 -2 -166 58q-62 60 -48 163q13 100 91 204q8 11 24 11q15 0 21 -14t-4 -29q-79 -115 -49 -185q36 -80 164 -73q105 6 192 88l-48 673q-3 34 2 55l19 63q9 11 18 13q22 3 28 -28q0 -1 0.5 -3.5t1.5 -6.5l27 -266 q20 -219 70 -242q36 -16 36 -46q0 -9 -1 -13q-1 -3 -3.5 -11t-5.5 -21q-12 -45 -34 -41q-35 8 -60 34zM561 401q159 -43 211 -110q48 -63 48 -127q-1 -156 -108 -183q-45 -10 -111 -6q-25 3 -36 33q-11 31 -1 61q13 43 40 39q97 -14 177 47q-34 46 -98 84t-159 66 q-22 6 -22 56q0 21 2 36.5t6 25.5q39 95 240 213q102 60 177.5 99.5t124.5 56.5q53 20 41 -33l-14 -64q-6 -21 -25 -28q-61 -25 -131.5 -59.5t-148.5 -76.5q-157 -84 -213 -130z" />
<glyph unicode="&#xfc3c;" horiz-adv-x="783" arabic-form="isolated" d="M118 97q-22 10 -13 37q21 59 28 67q4 5 7 7.5t4 3.5q15 13 59 -1q91 -30 161 -82q25 -19 14 -52q-7 -22 -11.5 -35t-5.5 -16q-12 -28 -35 -27q-49 6 -95 4.5t-89 -12.5q-55 -14 -70 -30q1 -7 6.5 -46t17.5 -110q12 -70 18.5 -111.5t7.5 -54.5q2 -34 -2 -69.5t-13 -72.5 q-6 -21 -22 -18q-15 3 -12 49q3 45 -45 285q-15 81 4 149q19 67 41 94q21 25 45 41zM734 851l-19 -63q-6 -21 -28 -24q-363 -60 -471 -96q-19 -7 -34 -13t-26 -13q204 -213 178 -367q-4 -22 -15.5 -44.5t-30.5 -45.5q-22 -27 -78 -39q-13 -3 -25.5 -4t-23.5 0q-22 3 -30 26 q-3 9 0 25q3 17 22 24q96 36 124 61q-6 86 -120 195h-1l-31 -11q-17 -6 -31 13l-57 81q-10 14 -3 38q21 72 62 113q11 10 26.5 21t37.5 22q129 70 542 138q9 2 17 0q24 -6 15 -37z" />
<glyph unicode="&#xfc3d;" horiz-adv-x="981" arabic-form="isolated" d="M441 144q34 4 67.5 3.5t65.5 -4.5q65 -7 96 -36q19 -19 15 -58q-4 -34 -11 -57.5t-18 -37.5q-10 -13 -24 -26.5t-32 -27.5q-93 -71 -181.5 -103t-171.5 -26q-254 18 -179 309q21 80 68 141q14 17 25 7q12 -11 -3 -32q-29 -44 -42 -83t-12 -73q7 -143 178 -144 q171 -2 335 135q-42 23 -185 23q-14 0 -17 11t0 18zM896 951q5 2 9 2h7q23 -1 20 -33l-7 -69q-3 -19 -24 -27q-342 -125 -523 -236q42 -31 73.5 -55.5t50.5 -42.5q132 -123 117 -273q-5 -45 -36 -73q-58 -52 -147 -75q-10 -3 -18 6q-8 10 -4 22l27 60q47 17 122 54 q-12 114 -158 210l-12 -27q-6 -12 -21 -9q-2 1 -8.5 4t-16.5 10q-53 36 -68 72q-15 37 5 102q10 32 21.5 53.5t23.5 31.5q75 65 217 138t350 155z" />
<glyph unicode="&#xfc3e;" horiz-adv-x="981" arabic-form="isolated" d="M441 144q34 4 67.5 3.5t65.5 -4.5q65 -7 96 -36q19 -19 15 -58q-4 -34 -11 -57.5t-18 -37.5q-10 -13 -24 -26.5t-32 -27.5q-93 -71 -181.5 -103t-171.5 -26q-254 18 -179 309q21 80 68 141q14 17 25 7q12 -11 -3 -32q-29 -44 -42 -83t-12 -73q7 -143 178 -144 q171 -2 335 135q-42 23 -185 23q-14 0 -17 11t0 18zM384 -299q6 8 17 5q20 -7 39 -18t35 -25q8 -8 3 -18l-48 -76q-8 -11 -18 -2q-4 4 -17.5 12.5t-35.5 21.5l-33 -54q-7 -10 -18 -2q-5 4 -23.5 15t-49.5 30q-11 6 -3 17l48 72q6 8 17 5q30 -10 56 -29zM896 951q5 2 9 2h7 q23 -1 20 -33l-7 -69q-3 -19 -24 -27q-342 -125 -523 -236q42 -31 73.5 -55.5t50.5 -42.5q132 -123 117 -273q-5 -45 -36 -73q-58 -52 -147 -75q-10 -3 -18 6q-8 10 -4 22l27 60q47 17 122 54q-12 114 -158 210l-12 -27q-6 -12 -21 -9q-2 1 -8.5 4t-16.5 10q-53 36 -68 72 q-15 37 5 102q10 32 21.5 53.5t23.5 31.5q75 65 217 138t350 155z" />
<glyph unicode="&#xfc3f;" horiz-adv-x="697" arabic-form="isolated" d="M197 248q277 -14 397 3q31 2 25 -20l-17 -64q-4 -18 -26 -21q-226 -27 -354 -148q-84 -79 -87 -168q-4 -155 131 -202q134 -46 473 -28q21 2 21 -15q1 -12 -9 -17q-59 -25 -105 -42.5t-80 -28.5q-66 -21 -123 -19q-210 6 -291 87q-80 81 -70 214q19 235 176 356l-186 1 q-52 0 -21 45l43 63q6 8 103 4zM377 -113q6 8 17 5q20 -7 38.5 -18t34.5 -25q8 -8 3 -18l-48 -76q-7 -10 -18 -2q-10 8 -72 45q-11 7 -4 17zM288 321q-4 55 -11 123t-19 149l-13 41q-3 16 5 29l35 55q18 23 29 -19q9 -33 41 -68q15 -17 1 -37l-21 -28q-8 -10 -7 -17 q29 -214 3 -279q-33 -83 -197 -92q-35 -2 -43 5q-4 4 -7 7.5t-5 5.5q-11 23 38 78q11 13 34 14q35 1 64 4t51 7q24 4 22 22z" />
<glyph unicode="&#xfc40;" horiz-adv-x="697" arabic-form="isolated" d="M197 248q277 -14 397 3q31 2 25 -20l-17 -64q-4 -18 -26 -21q-226 -27 -354 -148q-84 -79 -87 -168q-4 -155 131 -202q134 -46 473 -28q21 2 21 -15q1 -12 -9 -17q-59 -25 -105 -42.5t-80 -28.5q-66 -21 -123 -19q-210 6 -291 87q-80 81 -70 214q19 235 176 356l-186 1 q-52 0 -21 45l43 63q6 8 103 4zM288 321q-4 55 -11 123t-19 149l-13 41q-3 16 5 29l35 55q18 23 29 -19q9 -33 41 -68q15 -17 1 -37l-21 -28q-8 -10 -7 -17q29 -214 3 -279q-33 -83 -197 -92q-35 -2 -43 5q-4 4 -7 7.5t-5 5.5q-11 23 38 78q11 13 34 14q35 1 64 4t51 7 q24 4 22 22z" />
<glyph unicode="&#xfc41;" horiz-adv-x="697" arabic-form="isolated" d="M197 248q277 -14 397 3q31 2 25 -20l-17 -64q-4 -18 -26 -21q-226 -27 -354 -148q-84 -79 -87 -168q-4 -155 131 -202q134 -46 473 -28q21 2 21 -15q1 -12 -9 -17q-59 -25 -105 -42.5t-80 -28.5q-66 -21 -123 -19q-210 6 -291 87q-80 81 -70 214q19 235 176 356l-186 1 q-52 0 -21 45l43 63q6 8 103 4zM494 448q6 8 17 5q20 -7 38.5 -18t34.5 -25q8 -8 3 -18l-48 -76q-7 -10 -18 -2q-10 8 -72 45q-11 7 -4 17zM288 321q-4 55 -11 123t-19 149l-13 41q-3 16 5 29l35 55q18 23 29 -19q9 -33 41 -68q15 -17 1 -37l-21 -28q-8 -10 -7 -17 q29 -214 3 -279q-33 -83 -197 -92q-35 -2 -43 5q-4 4 -7 7.5t-5 5.5q-11 23 38 78q11 13 34 14q35 1 64 4t51 7q24 4 22 22z" />
<glyph unicode="&#xfc42;" horiz-adv-x="441" arabic-form="isolated" d="M118 97q-22 10 -13 37q21 59 28 67q4 5 7 7.5t4 3.5q15 13 59 -1q91 -30 161 -82q25 -19 14 -52q-7 -22 -11.5 -35t-5.5 -16q-12 -28 -35 -27q-49 6 -95 4.5t-89 -12.5q-55 -14 -70 -30q1 -7 6.5 -46t17.5 -110q12 -70 18.5 -111.5t7.5 -54.5q2 -34 -2 -69.5t-13 -72.5 q-6 -21 -22 -18q-15 3 -12 49q3 45 -45 285q-15 81 4 149q19 67 41 94q21 25 45 41zM196 768q6 11 12 14q18 9 29 -16q13 -31 53 -62q22 -17 8 -41q-6 -10 -15 -24q-4 -7 -7.5 -12.5t-5.5 -8.5l26 -218q12 -112 -22 -195l-14 -33q-17 -42 -75 -27q-38 10 -49 35 q-11 33 40 45q41 10 60 32q-4 106 -27 244q-11 69 -19 112t-13 60q-9 34 -3 49z" />
<glyph unicode="&#xfc43;" horiz-adv-x="718" arabic-form="isolated" d="M441 144q34 4 67.5 3.5t65.5 -4.5q65 -7 96 -36q19 -19 15 -58q-4 -34 -11 -57.5t-18 -37.5q-10 -13 -24 -26.5t-32 -27.5q-93 -71 -181.5 -103t-171.5 -26q-254 18 -179 309q21 80 68 141q14 17 25 7q12 -11 -3 -32q-29 -44 -42 -83t-12 -73q7 -143 178 -144 q171 -2 335 135q-42 23 -185 23q-14 0 -17 11t0 18zM519 573q28 -157 42 -246.5t12 -110.5q-1 -21 -3.5 -36t-4.5 -26q-15 -63 -61 -81q-35 -13 -77 -17l-14 -1l-2 14q-3 20 5 40q7 18 20 26q6 4 15.5 8.5t22.5 9.5q14 5 22.5 9t12.5 6q-7 53 -16.5 112.5t-22.5 125.5 t-20.5 109.5t-10.5 63.5l-12 55q-1 8 -1.5 15t1.5 12q7 18 10.5 30.5t5.5 19.5q5 14 22 14q19 0 26 -18q8 -20 19 -37t24 -29q20 -18 2 -42z" />
<glyph unicode="&#xfc44;" horiz-adv-x="718" arabic-form="isolated" d="M441 144q34 4 67.5 3.5t65.5 -4.5q65 -7 96 -36q19 -19 15 -58q-4 -34 -11 -57.5t-18 -37.5q-10 -13 -24 -26.5t-32 -27.5q-93 -71 -181.5 -103t-171.5 -26q-254 18 -179 309q21 80 68 141q14 17 25 7q12 -11 -3 -32q-29 -44 -42 -83t-12 -73q7 -143 178 -144 q171 -2 335 135q-42 23 -185 23q-14 0 -17 11t0 18zM384 -299q6 8 17 5q20 -7 39 -18t35 -25q8 -8 3 -18l-48 -76q-8 -11 -18 -2q-4 4 -17.5 12.5t-35.5 21.5l-33 -54q-7 -10 -18 -2q-5 4 -23.5 15t-49.5 30q-11 6 -3 17l48 72q6 8 17 5q30 -10 56 -29zM519 573 q28 -157 42 -246.5t12 -110.5q-1 -21 -3.5 -36t-4.5 -26q-15 -63 -61 -81q-35 -13 -77 -17l-14 -1l-2 14q-3 20 5 40q7 18 20 26q6 4 15.5 8.5t22.5 9.5q14 5 22.5 9t12.5 6q-7 53 -16.5 112.5t-22.5 125.5t-20.5 109.5t-10.5 63.5l-12 55q-1 8 -1.5 15t1.5 12 q7 18 10.5 30.5t5.5 19.5q5 14 22 14q19 0 26 -18q8 -20 19 -37t24 -29q20 -18 2 -42z" />
<glyph unicode="&#xfc45;" horiz-adv-x="664" arabic-form="isolated" d="M197 248q277 -14 397 3q31 2 25 -20l-17 -64q-4 -18 -26 -21q-226 -27 -354 -148q-84 -79 -87 -168q-4 -155 131 -202q134 -46 473 -28q21 2 21 -15q1 -12 -9 -17q-59 -25 -105 -42.5t-80 -28.5q-66 -21 -123 -19q-210 6 -291 87q-80 81 -70 214q19 235 176 356l-186 1 q-52 0 -21 45l43 63q6 8 103 4zM377 -113q6 8 17 5q20 -7 38.5 -18t34.5 -25q8 -8 3 -18l-48 -76q-7 -10 -18 -2q-10 8 -72 45q-11 7 -4 17zM435 335q-182 -39 -282 -128q-31 -28 -55 -5q-25 28 28 79q83 79 213 127l-9 12q-13 21 -4 42q28 60 48 82q21 23 44 11 q38 -20 66 -39t44 -36q15 -15 6 -45q-8 -27 -51 -80q-9 -13 -48 -20z" />
<glyph unicode="&#xfc46;" horiz-adv-x="664" arabic-form="isolated" d="M197 248q277 -14 397 3q31 2 25 -20l-17 -64q-4 -18 -26 -21q-226 -27 -354 -148q-84 -79 -87 -168q-4 -155 131 -202q134 -46 473 -28q21 2 21 -15q1 -12 -9 -17q-59 -25 -105 -42.5t-80 -28.5q-66 -21 -123 -19q-210 6 -291 87q-80 81 -70 214q19 235 176 356l-186 1 q-52 0 -21 45l43 63q6 8 103 4zM435 335q-182 -39 -282 -128q-31 -28 -55 -5q-25 28 28 79q83 79 213 127l-9 12q-13 21 -4 42q28 60 48 82q21 23 44 11q38 -20 66 -39t44 -36q15 -15 6 -45q-8 -27 -51 -80q-9 -13 -48 -20z" />
<glyph unicode="&#xfc47;" horiz-adv-x="664" arabic-form="isolated" d="M197 248q277 -14 397 3q31 2 25 -20l-17 -64q-4 -18 -26 -21q-226 -27 -354 -148q-84 -79 -87 -168q-4 -155 131 -202q134 -46 473 -28q21 2 21 -15q1 -12 -9 -17q-59 -25 -105 -42.5t-80 -28.5q-66 -21 -123 -19q-210 6 -291 87q-80 81 -70 214q19 235 176 356l-186 1 q-52 0 -21 45l43 63q6 8 103 4zM138 605q6 8 17 5q20 -7 38.5 -18t34.5 -25q8 -8 3 -18l-48 -76q-7 -10 -18 -2q-10 8 -72 45q-11 7 -4 17zM435 335q-182 -39 -282 -128q-31 -28 -55 -5q-25 28 28 79q83 79 213 127l-9 12q-13 21 -4 42q28 60 48 82q21 23 44 11 q38 -20 66 -39t44 -36q15 -15 6 -45q-8 -27 -51 -80q-9 -13 -48 -20z" />
<glyph unicode="&#xfc48;" horiz-adv-x="911" arabic-form="isolated" d="M272 213q87 -102 250 -108q50 -2 39 -61t-39 -59q-44 -1 -83.5 8t-74.5 25q0 -95 -44 -130q-20 -15 -39 1q-58 52 -72 152q-54 -7 -97 -52q-5 -22 10 -119q54 -361 41 -420q-9 -38 -30 -38q-20 0 -22 45q-1 35 -10.5 105t-26.5 176q-35 214 2 305q37 92 147 142 q21 61 49 28zM755 333q74 -2 102 -184q3 -17 -6 -28l-49 -64q-13 -16 -35 -12q-81 20 -133 72q-42 -131 -112 -132q-20 0 -29 29t-9 53t21 34q4 2 8.5 3t8.5 1q54 3 90 56q5 8 20.5 33.5t39.5 68.5q39 70 83 70zM683 220q35 -34 90 -46q1 43 -29 57t-61 -11z" />
<glyph unicode="&#xfc49;" horiz-adv-x="862" arabic-form="isolated" d="M441 144q34 4 67.5 3.5t65.5 -4.5q65 -7 96 -36q19 -19 15 -58q-4 -34 -11 -57.5t-18 -37.5q-10 -13 -24 -26.5t-32 -27.5q-93 -71 -181.5 -103t-171.5 -26q-254 18 -179 309q21 80 68 141q14 17 25 7q12 -11 -3 -32q-29 -44 -42 -83t-12 -73q7 -143 178 -144 q171 -2 335 135q-42 23 -185 23q-14 0 -17 11t0 18zM594 270l-7 5q-21 17 -10 44q24 62 49 93q15 18 38 14q26 -4 49 -15t45 -28q58 -45 55 -84q-6 -60 -36 -84q-14 -10 -35 -13q-22 -3 -25 -3q-110 -15 -180 -67t-94 -15q-2 3 -3 8t-3 11q17 35 27 45q57 54 130 89z" />
<glyph unicode="&#xfc4a;" horiz-adv-x="862" arabic-form="isolated" d="M441 144q34 4 67.5 3.5t65.5 -4.5q65 -7 96 -36q19 -19 15 -58q-4 -34 -11 -57.5t-18 -37.5q-10 -13 -24 -26.5t-32 -27.5q-93 -71 -181.5 -103t-171.5 -26q-254 18 -179 309q21 80 68 141q14 17 25 7q12 -11 -3 -32q-29 -44 -42 -83t-12 -73q7 -143 178 -144 q171 -2 335 135q-42 23 -185 23q-14 0 -17 11t0 18zM384 -299q6 8 17 5q20 -7 39 -18t35 -25q8 -8 3 -18l-48 -76q-8 -11 -18 -2q-4 4 -17.5 12.5t-35.5 21.5l-33 -54q-7 -10 -18 -2q-5 4 -23.5 15t-49.5 30q-11 6 -3 17l48 72q6 8 17 5q30 -10 56 -29zM594 270l-7 5 q-21 17 -10 44q24 62 49 93q15 18 38 14q26 -4 49 -15t45 -28q58 -45 55 -84q-6 -60 -36 -84q-14 -10 -35 -13q-22 -3 -25 -3q-110 -15 -180 -67t-94 -15q-2 3 -3 8t-3 11q17 35 27 45q57 54 130 89z" />
<glyph unicode="&#xfc4b;" horiz-adv-x="647" arabic-form="isolated" d="M197 248q277 -14 397 3q31 2 25 -20l-17 -64q-4 -18 -26 -21q-226 -27 -354 -148q-84 -79 -87 -168q-4 -155 131 -202q134 -46 473 -28q21 2 21 -15q1 -12 -9 -17q-59 -25 -105 -42.5t-80 -28.5q-66 -21 -123 -19q-210 6 -291 87q-80 81 -70 214q19 235 176 356l-186 1 q-52 0 -21 45l43 63q6 8 103 4zM377 -113q6 8 17 5q20 -7 38.5 -18t34.5 -25q8 -8 3 -18l-48 -76q-7 -10 -18 -2q-10 8 -72 45q-11 7 -4 17zM77 226q24 29 75 57q57 32 95 57.5t56 44.5t32 40t23 44t17.5 43t17.5 36q18 31 48 31q29 0 51 -33q30 -47 24 -189q0 -16 -15 -24 q-6 -3 -11 -3q-21 0 -26 27q-9 80 -30 95q-7 4 -14 -6q-4 -5 -10.5 -16.5t-15.5 -29.5q-50 -101 -182 -175q-2 -1 -12 -7t-28 -17q-48 -29 -92 3l-13 9zM409 759q6 8 17 5q20 -7 38.5 -18t34.5 -25q8 -8 3 -18l-48 -76q-7 -10 -18 -2q-10 8 -72 45q-11 7 -4 17z" />
<glyph unicode="&#xfc4c;" horiz-adv-x="647" arabic-form="isolated" d="M197 248q277 -14 397 3q31 2 25 -20l-17 -64q-4 -18 -26 -21q-226 -27 -354 -148q-84 -79 -87 -168q-4 -155 131 -202q134 -46 473 -28q21 2 21 -15q1 -12 -9 -17q-59 -25 -105 -42.5t-80 -28.5q-66 -21 -123 -19q-210 6 -291 87q-80 81 -70 214q19 235 176 356l-186 1 q-52 0 -21 45l43 63q6 8 103 4zM77 226q24 29 75 57q57 32 95 57.5t56 44.5t32 40t23 44t17.5 43t17.5 36q18 31 48 31q29 0 51 -33q30 -47 24 -189q0 -16 -15 -24q-6 -3 -11 -3q-21 0 -26 27q-9 80 -30 95q-7 4 -14 -6q-4 -5 -10.5 -16.5t-15.5 -29.5q-50 -101 -182 -175 q-2 -1 -12 -7t-28 -17q-48 -29 -92 3l-13 9zM409 759q6 8 17 5q20 -7 38.5 -18t34.5 -25q8 -8 3 -18l-48 -76q-7 -10 -18 -2q-10 8 -72 45q-11 7 -4 17z" />
<glyph unicode="&#xfc4d;" horiz-adv-x="647" arabic-form="isolated" d="M197 248q277 -14 397 3q31 2 25 -20l-17 -64q-4 -18 -26 -21q-226 -27 -354 -148q-84 -79 -87 -168q-4 -155 131 -202q134 -46 473 -28q21 2 21 -15q1 -12 -9 -17q-59 -25 -105 -42.5t-80 -28.5q-66 -21 -123 -19q-210 6 -291 87q-80 81 -70 214q19 235 176 356l-186 1 q-52 0 -21 45l43 63q6 8 103 4zM138 605q6 8 17 5q20 -7 38.5 -18t34.5 -25q8 -8 3 -18l-48 -76q-7 -10 -18 -2q-10 8 -72 45q-11 7 -4 17zM77 226q24 29 75 57q57 32 95 57.5t56 44.5t32 40t23 44t17.5 43t17.5 36q18 31 48 31q29 0 51 -33q30 -47 24 -189q0 -16 -15 -24 q-6 -3 -11 -3q-21 0 -26 27q-9 80 -30 95q-7 4 -14 -6q-4 -5 -10.5 -16.5t-15.5 -29.5q-50 -101 -182 -175q-2 -1 -12 -7t-28 -17q-48 -29 -92 3l-13 9zM409 759q6 8 17 5q20 -7 38.5 -18t34.5 -25q8 -8 3 -18l-48 -76q-7 -10 -18 -2q-10 8 -72 45q-11 7 -4 17z" />
<glyph unicode="&#xfc4e;" horiz-adv-x="594" arabic-form="isolated" d="M118 97q-22 10 -13 37q21 59 28 67q4 5 7 7.5t4 3.5q15 13 59 -1q91 -30 161 -82q25 -19 14 -52q-7 -22 -11.5 -35t-5.5 -16q-12 -28 -35 -27q-49 6 -95 4.5t-89 -12.5q-55 -14 -70 -30q1 -7 6.5 -46t17.5 -110q12 -70 18.5 -111.5t7.5 -54.5q2 -34 -2 -69.5t-13 -72.5 q-6 -21 -22 -18q-15 3 -12 49q3 45 -45 285q-15 81 4 149q19 67 41 94q21 25 45 41zM549 282q-3 -11 -10.5 -23.5t-18.5 -27.5q-22 -30 -34 -33q-28 -9 -37 22q-6 22 -34 25q-60 6 -197 -74q-53 -31 -78 9q-10 19 0 31q9 9 29.5 24.5t51.5 34.5q151 96 236 95q40 0 71 -24 t21 -59zM399 615q6 8 17 5q20 -7 38.5 -18t34.5 -25q8 -8 3 -18l-48 -76q-7 -10 -18 -2q-10 8 -72 45q-11 7 -4 17z" />
<glyph unicode="&#xfc4f;" horiz-adv-x="734" arabic-form="isolated" d="M441 144q34 4 67.5 3.5t65.5 -4.5q65 -7 96 -36q19 -19 15 -58q-4 -34 -11 -57.5t-18 -37.5q-10 -13 -24 -26.5t-32 -27.5q-93 -71 -181.5 -103t-171.5 -26q-254 18 -179 309q21 80 68 141q14 17 25 7q12 -11 -3 -32q-29 -44 -42 -83t-12 -73q7 -143 178 -144 q171 -2 335 135q-42 23 -185 23q-14 0 -17 11t0 18zM528 473q10 31 36 17q23 -15 49 -69q57 -122 23 -223q-15 -43 -42 -73q-63 -70 -165 -75q-6 0 -12 2q-17 8 -6 29l29 59q7 7 19 9q78 10 129 63q1 44 -23 84q-12 20 -25 35.5t-28 26.5q-16 15 -9 38zM514 697q6 8 17 5 q20 -7 38.5 -18t34.5 -25q8 -8 3 -18l-48 -76q-7 -10 -18 -2q-10 8 -72 45q-11 7 -4 17z" />
<glyph unicode="&#xfc50;" horiz-adv-x="734" arabic-form="isolated" d="M441 144q34 4 67.5 3.5t65.5 -4.5q65 -7 96 -36q19 -19 15 -58q-4 -34 -11 -57.5t-18 -37.5q-10 -13 -24 -26.5t-32 -27.5q-93 -71 -181.5 -103t-171.5 -26q-254 18 -179 309q21 80 68 141q14 17 25 7q12 -11 -3 -32q-29 -44 -42 -83t-12 -73q7 -143 178 -144 q171 -2 335 135q-42 23 -185 23q-14 0 -17 11t0 18zM384 -299q6 8 17 5q20 -7 39 -18t35 -25q8 -8 3 -18l-48 -76q-8 -11 -18 -2q-4 4 -17.5 12.5t-35.5 21.5l-33 -54q-7 -10 -18 -2q-5 4 -23.5 15t-49.5 30q-11 6 -3 17l48 72q6 8 17 5q30 -10 56 -29zM528 473q10 31 36 17 q23 -15 49 -69q57 -122 23 -223q-15 -43 -42 -73q-63 -70 -165 -75q-6 0 -12 2q-17 8 -6 29l29 59q7 7 19 9q78 10 129 63q1 44 -23 84q-12 20 -25 35.5t-28 26.5q-16 15 -9 38zM514 697q6 8 17 5q20 -7 38.5 -18t34.5 -25q8 -8 3 -18l-48 -76q-7 -10 -18 -2q-10 8 -72 45 q-11 7 -4 17z" />
<glyph unicode="&#xfc51;" horiz-adv-x="696" arabic-form="isolated" d="M197 248q277 -14 397 3q31 2 25 -20l-17 -64q-4 -18 -26 -21q-226 -27 -354 -148q-84 -79 -87 -168q-4 -155 131 -202q134 -46 473 -28q21 2 21 -15q1 -12 -9 -17q-59 -25 -105 -42.5t-80 -28.5q-66 -21 -123 -19q-210 6 -291 87q-80 81 -70 214q19 235 176 356l-186 1 q-52 0 -21 45l43 63q6 8 103 4zM377 -113q6 8 17 5q20 -7 38.5 -18t34.5 -25q8 -8 3 -18l-48 -76q-7 -10 -18 -2q-10 8 -72 45q-11 7 -4 17zM547 307q-79 12 -158 39q-16 -9 -53 -26.5t-93 -44.5t-87.5 -41.5t-38.5 -16.5q-13 -4 -21 2q-12 11 6 42q19 33 43 45 q12 6 32.5 16t49.5 23q29 14 51.5 25t38.5 18q-22 25 -13 59q18 76 48 124q-3 1 -8 1t-10 1q-20 11 -15 30q18 56 33 67q17 12 36 12q38 0 127 -85q91 -86 98 -137q12 -88 -15 -130q-17 -28 -51 -23zM477 498q0 -31 -18 -63q58 -20 109 -28q-14 33 -91 91zM447 463 q-10 39 -42 47t-58 -21q2 -12 23 -23q11 -6 23.5 -10t26.5 -7q27 9 27 14z" />
<glyph unicode="&#xfc52;" horiz-adv-x="974" arabic-form="isolated" d="M272 213q87 -102 250 -108q50 -2 39 -61t-39 -59q-44 -1 -83.5 8t-74.5 25q0 -95 -44 -130q-20 -15 -39 1q-58 52 -72 152q-54 -7 -97 -52q-5 -22 10 -119q54 -361 41 -420q-9 -38 -30 -38q-20 0 -22 45q-1 35 -10.5 105t-26.5 176q-35 214 2 305q37 92 147 142 q21 61 49 28zM658 79q-85 -94 -136 -94q-18 0 -29 24q-35 89 29 96q21 2 36.5 6.5t25.5 9.5q-30 24 -14 72q8 25 22 49.5t36 48.5q-5 3 -17 4q-12 2 -15 12q-3 12 -2 19q26 99 76 99t147 -92q96 -92 107 -150q12 -73 -35 -128q-28 -32 -65 -28q-76 9 -166 52zM763 232 q3 -37 -36 -73q91 -34 143 -36q9 0 5 11q-15 46 -112 98zM684 176q33 17 33 22q-5 58 -31 62q-39 9 -70 -30q-10 -12 8 -23q14 -9 29 -17t31 -14z" />
<glyph unicode="&#xfc53;" horiz-adv-x="1028" arabic-form="isolated" d="M441 144q34 4 67.5 3.5t65.5 -4.5q65 -7 96 -36q19 -19 15 -58q-4 -34 -11 -57.5t-18 -37.5q-10 -13 -24 -26.5t-32 -27.5q-93 -71 -181.5 -103t-171.5 -26q-254 18 -179 309q21 80 68 141q14 17 25 7q12 -11 -3 -32q-29 -44 -42 -83t-12 -73q7 -143 178 -144 q171 -2 335 135q-42 23 -185 23q-14 0 -17 11t0 18zM640 470q26 99 76 99q49 0 143 -92q47 -46 72 -83t30 -66q12 -73 -34 -128q-24 -29 -57 -26q-37 4 -78.5 14t-85.5 26q-46 -26 -92 -44.5t-93 -29.5q-5 -2 -5 -9l-81 -3q18 54 95 90q19 9 43.5 19.5t54.5 22.5 q-42 19 -25 70q20 57 69 105q-3 2 -12 3q-15 3 -18 14q-3 12 -2 18zM656 355q11 -21 77 -36q15 5 22 18q-4 38 -29 47q-40 6 -70 -29zM804 358q-6 -30 -17 -54q82 -30 110 -25q-11 30 -93 79z" />
<glyph unicode="&#xfc54;" horiz-adv-x="1028" arabic-form="isolated" d="M441 144q34 4 67.5 3.5t65.5 -4.5q65 -7 96 -36q19 -19 15 -58q-4 -34 -11 -57.5t-18 -37.5q-10 -13 -24 -26.5t-32 -27.5q-93 -71 -181.5 -103t-171.5 -26q-254 18 -179 309q21 80 68 141q14 17 25 7q12 -11 -3 -32q-29 -44 -42 -83t-12 -73q7 -143 178 -144 q171 -2 335 135q-42 23 -185 23q-14 0 -17 11t0 18zM384 -299q6 8 17 5q20 -7 39 -18t35 -25q8 -8 3 -18l-48 -76q-8 -11 -18 -2q-4 4 -17.5 12.5t-35.5 21.5l-33 -54q-7 -10 -18 -2q-5 4 -23.5 15t-49.5 30q-11 6 -3 17l48 72q6 8 17 5q30 -10 56 -29zM640 470q26 99 76 99 q49 0 143 -92q47 -46 72 -83t30 -66q12 -73 -34 -128q-24 -29 -57 -26q-37 4 -78.5 14t-85.5 26q-46 -26 -92 -44.5t-93 -29.5q-5 -2 -5 -9l-81 -3q18 54 95 90q19 9 43.5 19.5t54.5 22.5q-42 19 -25 70q20 57 69 105q-3 2 -12 3q-15 3 -18 14q-3 12 -2 18zM656 355 q11 -21 77 -36q15 5 22 18q-4 38 -29 47q-40 6 -70 -29zM804 358q-6 -30 -17 -54q82 -30 110 -25q-11 30 -93 79z" />
<glyph unicode="&#xfc55;" horiz-adv-x="647" arabic-form="isolated" d="M197 248q277 -14 397 3q31 2 25 -20l-17 -64q-4 -18 -26 -21q-226 -27 -354 -148q-84 -79 -87 -168q-4 -155 131 -202q134 -46 473 -28q21 2 21 -15q1 -12 -9 -17q-59 -25 -105 -42.5t-80 -28.5q-66 -21 -123 -19q-210 6 -291 87q-80 81 -70 214q19 235 176 356l-186 1 q-52 0 -21 45l43 63q6 8 103 4zM377 -113q6 8 17 5q20 -7 38.5 -18t34.5 -25q8 -8 3 -18l-48 -76q-7 -10 -18 -2q-10 8 -72 45q-11 7 -4 17zM77 226q24 29 75 57q57 32 95 57.5t56 44.5t32 40t23 44t17.5 43t17.5 36q18 31 48 31q29 0 51 -33q30 -47 24 -189q0 -16 -15 -24 q-6 -3 -11 -3q-21 0 -26 27q-9 80 -30 95q-7 4 -14 -6q-4 -5 -10.5 -16.5t-15.5 -29.5q-50 -101 -182 -175q-2 -1 -12 -7t-28 -17q-48 -29 -92 3l-13 9zM536 70q6 8 17 5q20 -7 39 -18t35 -25q8 -8 3 -18l-48 -76q-8 -11 -18 -2q-4 4 -17.5 12.5t-35.5 21.5l-33 -54 q-7 -10 -18 -2q-5 4 -23.5 15t-49.5 30q-11 6 -3 17l48 72q6 8 17 5q30 -10 56 -29z" />
<glyph unicode="&#xfc56;" horiz-adv-x="647" arabic-form="isolated" d="M197 248q277 -14 397 3q31 2 25 -20l-17 -64q-4 -18 -26 -21q-226 -27 -354 -148q-84 -79 -87 -168q-4 -155 131 -202q134 -46 473 -28q21 2 21 -15q1 -12 -9 -17q-59 -25 -105 -42.5t-80 -28.5q-66 -21 -123 -19q-210 6 -291 87q-80 81 -70 214q19 235 176 356l-186 1 q-52 0 -21 45l43 63q6 8 103 4zM77 226q24 29 75 57q57 32 95 57.5t56 44.5t32 40t23 44t17.5 43t17.5 36q18 31 48 31q29 0 51 -33q30 -47 24 -189q0 -16 -15 -24q-6 -3 -11 -3q-21 0 -26 27q-9 80 -30 95q-7 4 -14 -6q-4 -5 -10.5 -16.5t-15.5 -29.5q-50 -101 -182 -175 q-2 -1 -12 -7t-28 -17q-48 -29 -92 3l-13 9zM536 70q6 8 17 5q20 -7 39 -18t35 -25q8 -8 3 -18l-48 -76q-8 -11 -18 -2q-4 4 -17.5 12.5t-35.5 21.5l-33 -54q-7 -10 -18 -2q-5 4 -23.5 15t-49.5 30q-11 6 -3 17l48 72q6 8 17 5q30 -10 56 -29z" />
<glyph unicode="&#xfc57;" horiz-adv-x="647" arabic-form="isolated" d="M197 248q277 -14 397 3q31 2 25 -20l-17 -64q-4 -18 -26 -21q-226 -27 -354 -148q-84 -79 -87 -168q-4 -155 131 -202q134 -46 473 -28q21 2 21 -15q1 -12 -9 -17q-59 -25 -105 -42.5t-80 -28.5q-66 -21 -123 -19q-210 6 -291 87q-80 81 -70 214q19 235 176 356l-186 1 q-52 0 -21 45l43 63q6 8 103 4zM138 605q6 8 17 5q20 -7 38.5 -18t34.5 -25q8 -8 3 -18l-48 -76q-7 -10 -18 -2q-10 8 -72 45q-11 7 -4 17zM77 226q24 29 75 57q57 32 95 57.5t56 44.5t32 40t23 44t17.5 43t17.5 36q18 31 48 31q29 0 51 -33q30 -47 24 -189q0 -16 -15 -24 q-6 -3 -11 -3q-21 0 -26 27q-9 80 -30 95q-7 4 -14 -6q-4 -5 -10.5 -16.5t-15.5 -29.5q-50 -101 -182 -175q-2 -1 -12 -7t-28 -17q-48 -29 -92 3l-13 9zM536 70q6 8 17 5q20 -7 39 -18t35 -25q8 -8 3 -18l-48 -76q-8 -11 -18 -2q-4 4 -17.5 12.5t-35.5 21.5l-33 -54 q-7 -10 -18 -2q-5 4 -23.5 15t-49.5 30q-11 6 -3 17l48 72q6 8 17 5q30 -10 56 -29z" />
<glyph unicode="&#xfc58;" horiz-adv-x="594" arabic-form="isolated" d="M118 97q-22 10 -13 37q21 59 28 67q4 5 7 7.5t4 3.5q15 13 59 -1q91 -30 161 -82q25 -19 14 -52q-7 -22 -11.5 -35t-5.5 -16q-12 -28 -35 -27q-49 6 -95 4.5t-89 -12.5q-55 -14 -70 -30q1 -7 6.5 -46t17.5 -110q12 -70 18.5 -111.5t7.5 -54.5q2 -34 -2 -69.5t-13 -72.5 q-6 -21 -22 -18q-15 3 -12 49q3 45 -45 285q-15 81 4 149q19 67 41 94q21 25 45 41zM549 282q-3 -11 -10.5 -23.5t-18.5 -27.5q-22 -30 -34 -33q-28 -9 -37 22q-6 22 -34 25q-60 6 -197 -74q-53 -31 -78 9q-10 19 0 31q9 9 29.5 24.5t51.5 34.5q151 96 236 95q40 0 71 -24 t21 -59zM526 -59q6 8 17 5q20 -7 39 -18t35 -25q8 -8 3 -18l-48 -76q-8 -11 -18 -2q-4 4 -17.5 12.5t-35.5 21.5l-33 -54q-7 -10 -18 -2q-5 4 -23.5 15t-49.5 30q-11 6 -3 17l48 72q6 8 17 5q30 -10 56 -29z" />
<glyph unicode="&#xfc59;" horiz-adv-x="734" arabic-form="isolated" d="M441 144q34 4 67.5 3.5t65.5 -4.5q65 -7 96 -36q19 -19 15 -58q-4 -34 -11 -57.5t-18 -37.5q-10 -13 -24 -26.5t-32 -27.5q-93 -71 -181.5 -103t-171.5 -26q-254 18 -179 309q21 80 68 141q14 17 25 7q12 -11 -3 -32q-29 -44 -42 -83t-12 -73q7 -143 178 -144 q171 -2 335 135q-42 23 -185 23q-14 0 -17 11t0 18zM528 473q10 31 36 17q23 -15 49 -69q57 -122 23 -223q-15 -43 -42 -73q-63 -70 -165 -75q-6 0 -12 2q-17 8 -6 29l29 59q7 7 19 9q78 10 129 63q1 44 -23 84q-12 20 -25 35.5t-28 26.5q-16 15 -9 38zM672 -153q6 8 17 5 q20 -7 39 -18t35 -25q8 -8 3 -18l-48 -76q-8 -11 -18 -2q-4 4 -17.5 12.5t-35.5 21.5l-33 -54q-7 -10 -18 -2q-5 4 -23.5 15t-49.5 30q-11 6 -3 17l48 72q6 8 17 5q30 -10 56 -29z" />
<glyph unicode="&#xfc5a;" horiz-adv-x="734" arabic-form="isolated" d="M441 144q34 4 67.5 3.5t65.5 -4.5q65 -7 96 -36q19 -19 15 -58q-4 -34 -11 -57.5t-18 -37.5q-10 -13 -24 -26.5t-32 -27.5q-93 -71 -181.5 -103t-171.5 -26q-254 18 -179 309q21 80 68 141q14 17 25 7q12 -11 -3 -32q-29 -44 -42 -83t-12 -73q7 -143 178 -144 q171 -2 335 135q-42 23 -185 23q-14 0 -17 11t0 18zM384 -299q6 8 17 5q20 -7 39 -18t35 -25q8 -8 3 -18l-48 -76q-8 -11 -18 -2q-4 4 -17.5 12.5t-35.5 21.5l-33 -54q-7 -10 -18 -2q-5 4 -23.5 15t-49.5 30q-11 6 -3 17l48 72q6 8 17 5q30 -10 56 -29zM528 473q10 31 36 17 q23 -15 49 -69q57 -122 23 -223q-15 -43 -42 -73q-63 -70 -165 -75q-6 0 -12 2q-17 8 -6 29l29 59q7 7 19 9q78 10 129 63q1 44 -23 84q-12 20 -25 35.5t-28 26.5q-16 15 -9 38zM672 -153q6 8 17 5q20 -7 39 -18t35 -25q8 -8 3 -18l-48 -76q-8 -11 -18 -2q-4 4 -17.5 12.5 t-35.5 21.5l-33 -54q-7 -10 -18 -2q-5 4 -23.5 15t-49.5 30q-11 6 -3 17l48 72q6 8 17 5q30 -10 56 -29z" />
<glyph unicode="&#xfc5b;" horiz-adv-x="450" arabic-form="isolated" d="M123 1164q10 27 31 2q96 -107 66 -274q-3 -15 -13 -16q-19 -3 -21 16q-14 103 -76 179q-11 14 -6 29zM180 285q-20 9 -8 44q6 17 12.5 31.5t12.5 26.5q12 24 32 13q123 -72 150 -207q7 -36 6.5 -67.5t-10.5 -58.5q-10 -33 -30 -41q-106 -43 -180 -47q-111 -8 -79 120 q6 25 19 25q10 0 17 -12q8 -12 91 -2t130 33q-15 76 -163 142zM183 649q6 8 17 5q20 -7 38.5 -18t34.5 -25q8 -8 3 -18l-48 -76q-7 -10 -18 -2q-10 8 -72 45q-11 7 -4 17z" />
<glyph unicode="&#xfc5c;" horiz-adv-x="399" arabic-form="isolated" d="M113 1164q10 27 31 2q96 -107 66 -274q-3 -15 -13 -16q-19 -3 -21 16q-14 103 -76 179q-11 14 -6 29zM237 295q2 9 7 11q11 3 32 -23q16 -19 30 -47t24 -66q47 -168 -60 -306q-62 -80 -152 -104q-33 -9 -56 2q-44 19 -78.5 34.5t-59.5 27.5q-16 9 -11 20q6 12 22 8 q68 -20 108 -10q43 11 110 51q118 71 143 138q1 2 1 6q-9 47 -85 126q-7 7 -4 19z" />
<glyph unicode="&#xfc5d;" horiz-adv-x="764" arabic-form="isolated" d="M211 534q10 27 31 2q96 -107 66 -274q-3 -15 -13 -16q-19 -3 -21 16q-14 103 -76 179q-11 14 -6 29zM665 275q-51 27 -139 -19q-71 -37 -86 -91q-2 -8 1 -16q18 -39 127 -45t115 -54q13 -95 -41 -139q-149 -119 -335 -126q-233 -9 -248 174q-7 92 41 192q27 55 59 96 q15 20 26 9t-6 -35q-87 -128 -55 -212q41 -104 192 -101q178 3 293 90q-23 8 -98 13q-99 8 -116 58q-18 52 2 109q44 124 136 191q77 56 137 41q58 -15 33 -109q-11 -40 -38 -26z" />
<glyph unicode="&#xfc5e;" horiz-adv-x="292" arabic-form="isolated" d="M247 1247q19 5 28 -9q19 -30 -4 -87q11 -6 15 -9q11 -8 4 -22l-10 -20q-8 -15 -37 2q-22 -28 -41.5 -47t-37.5 -29q-22 -10 -31 1q-9 12 22 34q29 21 59 58q-46 27 -27 68q24 50 60 60zM157 1165q13 3 13 -13q0 -5 -1 -8l-8 -23q-7 -22 -28 -15q-20 7 -29 31q-9 23 -1 59 q7 33 45 74q86 93 126 74q17 -9 18 -32q2 -24 -13 -40q-15 -17 -34 1q-18 17 -48 -4t-44 -44q-26 -39 -10 -55q8 -6 14 -5zM243 1187q-6 10 -20 4q-16 -6 -10 -12q4 -4 11.5 -10t19.5 -12q6 18 -1 30zM293 984q5 27 21 26q19 -2 20 -22q0 -1 -0.5 -2t-0.5 -3q-3 -53 -20 -92 q-21 -46 -61 -49q-23 -1 -44 20q-7 -10 -15.5 -18.5t-19.5 -13.5q-29 -14 -54 -4q-63 27 -17 149q9 22 27 16q1 0 1.5 -0.5t1.5 -0.5q16 -8 10 -30q-1 -5 -2.5 -10t-2.5 -10q-5 -32 14 -35q26 -3 44 47q2 7 4.5 14t4.5 15q6 20 22 19h1q17 -4 15 -18v-3q-1 -4 -1.5 -8.5 t-0.5 -8.5q0 -25 16 -28h4q24 0 31 38q1 3 1.5 6t0.5 6z" />
<glyph unicode="&#xfc5f;" horiz-adv-x="292" arabic-form="isolated" d="M333 -455q18 12 29 9q12 -3 4 -26l-11 -31q-6 -17 -19 -26l-175 -108q-10 -6 -21 -4t-8 21l3 19q3 17 20 28zM329 -355q16 10 26 7t6 -23l-7 -26q-6 -19 -24 -30l-177 -103q-21 -11 -30 -7q-11 5 -2 26l9 19q7 16 18 23zM293 984q5 27 21 26q19 -2 20 -22q0 -1 -0.5 -2 t-0.5 -3q-3 -53 -20 -92q-21 -46 -61 -49q-23 -1 -44 20q-7 -10 -15.5 -18.5t-19.5 -13.5q-29 -14 -54 -4q-63 27 -17 149q9 22 27 16q1 0 1.5 -0.5t1.5 -0.5q16 -8 10 -30q-1 -5 -2.5 -10t-2.5 -10q-5 -32 14 -35q26 -3 44 47q2 7 4.5 14t4.5 15q6 20 22 19h1q17 -4 15 -18 v-3q-1 -4 -1.5 -8.5t-0.5 -8.5q0 -25 16 -28h4q24 0 31 38q1 3 1.5 6t0.5 6z" />
<glyph unicode="&#xfc60;" horiz-adv-x="292" arabic-form="isolated" d="M123 1078l181 80q9 3 13 3q11 -1 9 -15l-4 -35q-3 -13 -12 -17h-1l-175 -62q-4 -1 -8 -1.5t-7 -0.5q-12 3 -11 19l2 13q2 12 13 16zM293 984q5 27 21 26q19 -2 20 -22q0 -1 -0.5 -2t-0.5 -3q-3 -53 -20 -92q-21 -46 -61 -49q-23 -1 -44 20q-7 -10 -15.5 -18.5 t-19.5 -13.5q-29 -14 -54 -4q-63 27 -17 149q9 22 27 16q1 0 1.5 -0.5t1.5 -0.5q16 -8 10 -30q-1 -5 -2.5 -10t-2.5 -10q-5 -32 14 -35q26 -3 44 47q2 7 4.5 14t4.5 15q6 20 22 19h1q17 -4 15 -18v-3q-1 -4 -1.5 -8.5t-0.5 -8.5q0 -25 16 -28h4q24 0 31 38q1 3 1.5 6t0.5 6z " />
<glyph unicode="&#xfc61;" horiz-adv-x="292" arabic-form="isolated" d="M242 1287q20 5 31 -11q5 -7 7 -17t3 -22q0 -23 -18 -68q8 -4 13 -7.5t9 -5.5q11 -8 4 -23l-12 -24q-7 -15 -44 5q-56 -71 -100 -96q-25 -13 -34 -1q-7 13 21 34q23 17 43.5 37t39.5 44q-59 32 -36 82q29 61 73 73zM232 1213q-5 8 -19 2q-4 -2 -7 -3t-5 -3q5 -5 13 -10.5 t20 -12.5q3 18 -2 27zM293 984q5 27 21 26q19 -2 20 -22q0 -1 -0.5 -2t-0.5 -3q-3 -53 -20 -92q-21 -46 -61 -49q-23 -1 -44 20q-7 -10 -15.5 -18.5t-19.5 -13.5q-29 -14 -54 -4q-63 27 -17 149q9 22 27 16q1 0 1.5 -0.5t1.5 -0.5q16 -8 10 -30q-1 -5 -2.5 -10t-2.5 -10 q-5 -32 14 -35q26 -3 44 47q2 7 4.5 14t4.5 15q6 20 22 19h1q17 -4 15 -18v-3q-1 -4 -1.5 -8.5t-0.5 -8.5q0 -25 16 -28h4q24 0 31 38q1 3 1.5 6t0.5 6z" />
<glyph unicode="&#xfc62;" horiz-adv-x="292" arabic-form="isolated" d="M350 -310q12 8 24 5q10 -3 4 -24l-9 -32q-5 -15 -25 -28l-195 -113q-7 -4 -13 -4q-13 1 -15 20v17q2 16 21 29zM293 984q5 27 21 26q19 -2 20 -22q0 -1 -0.5 -2t-0.5 -3q-3 -53 -20 -92q-21 -46 -61 -49q-23 -1 -44 20q-7 -10 -15.5 -18.5t-19.5 -13.5q-29 -14 -54 -4 q-63 27 -17 149q9 22 27 16q1 0 1.5 -0.5t1.5 -0.5q16 -8 10 -30q-1 -5 -2.5 -10t-2.5 -10q-5 -32 14 -35q26 -3 44 47q2 7 4.5 14t4.5 15q6 20 22 19h1q17 -4 15 -18v-3q-1 -4 -1.5 -8.5t-0.5 -8.5q0 -25 16 -28h4q24 0 31 38q1 3 1.5 6t0.5 6z" />
<glyph unicode="&#xfc63;" horiz-adv-x="292" arabic-form="isolated" d="M116 1300q10 27 31 2q96 -107 66 -274q-3 -15 -13 -16q-19 -3 -21 16q-14 103 -76 179q-11 14 -6 29zM293 984q5 27 21 26q19 -2 20 -22q0 -1 -0.5 -2t-0.5 -3q-3 -53 -20 -92q-21 -46 -61 -49q-23 -1 -44 20q-7 -10 -15.5 -18.5t-19.5 -13.5q-29 -14 -54 -4 q-63 27 -17 149q9 22 27 16q1 0 1.5 -0.5t1.5 -0.5q16 -8 10 -30q-1 -5 -2.5 -10t-2.5 -10q-5 -32 14 -35q26 -3 44 47q2 7 4.5 14t4.5 15q6 20 22 19h1q17 -4 15 -18v-3q-1 -4 -1.5 -8.5t-0.5 -8.5q0 -25 16 -28h4q24 0 31 38q1 3 1.5 6t0.5 6z" />
<glyph unicode="&#xfc64;" horiz-adv-x="550" arabic-form="final" d="M-80 -153q-15 11 -11 24t25 8q97 -20 161 5q131 50 185 149q-1 18 -52 89q-7 8 -4 19l28 102q17 60 52 -15q46 -102 21 -217q-15 -69 -76 -143t-124 -82q-103 -12 -205 61zM480 300q2 -10 4 -31.5t6 -53.5q8 -64 22 -84q15 -21 44 -27q28 -6 34 -31q2 -6 0.5 -15 t-4.5 -23q-12 -50 -35 -50q-112 0 -112 191q-39 -78 -123 -77q-53 0 -63 50q-7 41 9 59q24 27 45 12l9 -6q57 -4 80 14t42 76q7 22 23 19t19 -23zM504 497q-53 -10 -76 -18t-83 -34q-18 -8 -28 7q-14 23 30 53q-29 18 -34 41q-8 44 36 104q44 61 95 56q37 -3 34 -39 q-1 -18 -5.5 -30.5t-9.5 -20.5q-12 -17 -15 -19q-14 -10 -25 5q-11 16 -26 17q-16 1 -24 -8q-7 -9 0 -16q31 -29 93 -31q11 0 30 4q11 2 18 3.5t12 1.5q10 0 17 -10q5 -9 2 -18q-21 -43 -41 -48z" />
<glyph unicode="&#xfc65;" horiz-adv-x="550" arabic-form="final" d="M-80 -153q-15 11 -11 24t25 8q97 -20 161 5q131 50 185 149q-1 18 -52 89q-7 8 -4 19l28 102q17 60 52 -15q46 -102 21 -217q-15 -69 -76 -143t-124 -82q-103 -12 -205 61zM151 521q6 8 17 5q20 -7 38.5 -18t34.5 -25q8 -8 3 -18l-48 -76q-7 -10 -18 -2q-10 8 -72 45 q-11 7 -4 17zM480 300q2 -10 4 -31.5t6 -53.5q8 -64 22 -84q15 -21 44 -27q28 -6 34 -31q2 -6 0.5 -15t-4.5 -23q-12 -50 -35 -50q-112 0 -112 191q-39 -78 -123 -77q-53 0 -63 50q-7 41 9 59q24 27 45 12l9 -6q57 -4 80 14t42 76q7 22 23 19t19 -23zM504 497 q-53 -10 -76 -18t-83 -34q-18 -8 -28 7q-14 23 30 53q-29 18 -34 41q-8 44 36 104q44 61 95 56q37 -3 34 -39q-1 -18 -5.5 -30.5t-9.5 -20.5q-12 -17 -15 -19q-14 -10 -25 5q-11 16 -26 17q-16 1 -24 -8q-7 -9 0 -16q31 -29 93 -31q11 0 30 4q11 2 18 3.5t12 1.5 q10 0 17 -10q5 -9 2 -18q-21 -43 -41 -48z" />
<glyph unicode="&#xfc66;" horiz-adv-x="561" arabic-form="final" d="M174 -25q-22 10 -13 37q21 59 28 67q4 5 7 7.5t4 3.5q15 13 59 -1q91 -30 161 -82q25 -19 14 -52q-7 -22 -11.5 -35t-5.5 -16q-12 -28 -35 -27q-49 6 -95 4.5t-89 -12.5q-55 -14 -70 -30q1 -7 6.5 -46t17.5 -110q12 -70 18.5 -111.5t7.5 -54.5q2 -34 -2 -69.5t-13 -72.5 q-6 -21 -22 -18q-15 3 -12 49q3 45 -45 285q-15 81 4 149q19 67 41 94q21 25 45 41zM438 203q41 0 93 -70q19 -25 32 -28q47 -9 47 -45q0 -27 -13 -50q-14 -25 -36 -25q-58 0 -102 72q-27 44 -96 35t-120 -48q-26 -20 -41 -3q-23 24 -11 40q13 18 50 42q127 81 197 80z M477 400q-53 -10 -76 -18t-83 -34q-18 -8 -28 7q-14 23 30 53q-29 18 -34 41q-8 44 36 104q44 61 95 56q37 -3 34 -39q-1 -18 -5.5 -30.5t-9.5 -20.5q-12 -17 -15 -19q-14 -10 -25 5q-11 16 -26 17q-16 1 -24 -8q-7 -9 0 -16q31 -29 93 -31q11 0 30 4q11 2 18 3.5t12 1.5 q10 0 17 -10q5 -9 2 -18q-21 -43 -41 -48z" />
<glyph unicode="&#xfc67;" horiz-adv-x="761" arabic-form="final" d="M571 132q2 -34 1 -59.5t-6 -45.5q-4 -19 -8 -33.5t-8 -24.5q-13 -37 -37 -69t-59 -60q-71 -56 -188 -56q-177 0 -210 116t63 277q10 16 22 9q13 -8 2 -28q-69 -127 -42 -180q37 -73 169 -71q81 1 158 39q75 37 92 69q12 45 -42 156q-5 10 -1 23l17 63q9 30 26 16 q45 -39 51 -141zM289 480q6 8 17 5q20 -7 38.5 -18t34.5 -25q8 -8 3 -18l-48 -76q-7 -10 -18 -2q-10 8 -72 45q-11 7 -4 17zM759 -15q-52 8 -72 45q-10 18 -19.5 52.5t-17.5 85.5q-33 -40 -81 -48q-37 -4 -52 32q-11 27 -7 50q5 24 27 29h1q4 1 8 1.5t8 -0.5q65 -12 99 64 q10 21 31 20q20 -1 23 -28q6 -64 13 -102.5t13 -51.5q12 -26 31 -29q40 -6 32 -65q-6 -43 -21 -52q-4 -1 -7.5 -2.5t-8.5 -0.5zM701 441q-53 -10 -76 -18t-83 -34q-18 -8 -28 7q-14 23 30 53q-29 18 -34 41q-8 44 36 104q44 61 95 56q37 -3 34 -39q-1 -18 -5.5 -30.5 t-9.5 -20.5q-12 -17 -15 -19q-14 -10 -25 5q-11 16 -26 17q-16 1 -24 -8q-7 -9 0 -16q31 -29 93 -31q11 0 30 4q11 2 18 3.5t12 1.5q10 0 17 -10q5 -9 2 -18q-21 -43 -41 -48z" />
<glyph unicode="&#xfc68;" horiz-adv-x="729" arabic-form="final" d="M432 -109q-32 12 -42 33q-17 38 30 105q1 1 3.5 6t6.5 12q9 17 20 12q16 -6 5 -28q-10 -19 22 -36q16 -8 41.5 -14.5t59.5 -11.5q68 -10 97 -20q26 -9 38 -37q12 -29 8 -58q-4 -30 -18 -51q-26 -37 -127 -87q-99 -49 -226 -63q-228 -25 -284 133q-18 51 -3 137 q15 87 77 186q11 18 27 9t-3 -40q-66 -107 -49 -175q33 -141 219 -129q145 9 308 86q-23 5 -86 9q-40 3 -71 9t-53 13zM669 152q24 -41 58 -47q50 -9 40 -51q-5 -21 -8 -31.5t-3 -11.5q-11 -27 -27 -26q-70 4 -114 67q-25 36 -46 37q-21 2 -66 -24q-46 -26 -50 -39 q-19 -63 -39 -90q-9 -8 -15 -9q-13 -2 -14 19q-3 39 37 106q20 32 42.5 59t49.5 49q55 44 88 44q36 0 67 -52zM595 400q-53 -10 -76 -18t-83 -34q-18 -8 -28 7q-14 23 30 53q-29 18 -34 41q-8 44 36 104q44 61 95 56q37 -3 34 -39q-1 -18 -5.5 -30.5t-9.5 -20.5 q-12 -17 -15 -19q-14 -10 -25 5q-11 16 -26 17q-16 1 -24 -8q-7 -9 0 -16q31 -29 93 -31q11 0 30 4q11 2 18 3.5t12 1.5q10 0 17 -10q5 -9 2 -18q-21 -43 -41 -48z" />
<glyph unicode="&#xfc69;" horiz-adv-x="729" arabic-form="final" d="M432 -109q-32 12 -42 33q-17 38 30 105q1 1 3.5 6t6.5 12q9 17 20 12q16 -6 5 -28q-10 -19 22 -36q16 -8 41.5 -14.5t59.5 -11.5q68 -10 97 -20q26 -9 38 -37q12 -29 8 -58q-4 -30 -18 -51q-26 -37 -127 -87q-99 -49 -226 -63q-228 -25 -284 133q-18 51 -3 137 q15 87 77 186q11 18 27 9t-3 -40q-66 -107 -49 -175q33 -141 219 -129q145 9 308 86q-23 5 -86 9q-40 3 -71 9t-53 13zM397 -422q6 8 17 5q20 -7 39 -18t35 -25q8 -8 3 -18l-48 -76q-8 -11 -18 -2q-4 4 -17.5 12.5t-35.5 21.5l-33 -54q-7 -10 -18 -2q-5 4 -23.5 15t-49.5 30 q-11 6 -3 17l48 72q6 8 17 5q30 -10 56 -29zM669 152q24 -41 58 -47q50 -9 40 -51q-5 -21 -8 -31.5t-3 -11.5q-11 -27 -27 -26q-70 4 -114 67q-25 36 -46 37q-21 2 -66 -24q-46 -26 -50 -39q-19 -63 -39 -90q-9 -8 -15 -9q-13 -2 -14 19q-3 39 37 106q20 32 42.5 59t49.5 49 q55 44 88 44q36 0 67 -52zM595 400q-53 -10 -76 -18t-83 -34q-18 -8 -28 7q-14 23 30 53q-29 18 -34 41q-8 44 36 104q44 61 95 56q37 -3 34 -39q-1 -18 -5.5 -30.5t-9.5 -20.5q-12 -17 -15 -19q-14 -10 -25 5q-11 16 -26 17q-16 1 -24 -8q-7 -9 0 -16q31 -29 93 -31 q11 0 30 4q11 2 18 3.5t12 1.5q10 0 17 -10q5 -9 2 -18q-21 -43 -41 -48z" />
<glyph unicode="&#xfc6a;" horiz-adv-x="550" arabic-form="final" d="M-80 -153q-15 11 -11 24t25 8q97 -20 161 5q131 50 185 149q-1 18 -52 89q-7 8 -4 19l28 102q17 60 52 -15q46 -102 21 -217q-15 -69 -76 -143t-124 -82q-103 -12 -205 61zM480 300q2 -10 4 -31.5t6 -53.5q8 -64 22 -84q15 -21 44 -27q28 -6 34 -31q2 -6 0.5 -15 t-4.5 -23q-12 -50 -35 -50q-112 0 -112 191q-39 -78 -123 -77q-53 0 -63 50q-7 41 9 59q24 27 45 12l9 -6q57 -4 80 14t42 76q7 22 23 19t19 -23zM402 -123q6 8 17 5q20 -7 38.5 -18t34.5 -25q8 -8 3 -18l-48 -76q-7 -10 -18 -2q-10 8 -72 45q-11 7 -4 17z" />
<glyph unicode="&#xfc6b;" horiz-adv-x="550" arabic-form="final" d="M-80 -153q-15 11 -11 24t25 8q97 -20 161 5q131 50 185 149q-1 18 -52 89q-7 8 -4 19l28 102q17 60 52 -15q46 -102 21 -217q-15 -69 -76 -143t-124 -82q-103 -12 -205 61zM151 521q6 8 17 5q20 -7 38.5 -18t34.5 -25q8 -8 3 -18l-48 -76q-7 -10 -18 -2q-10 8 -72 45 q-11 7 -4 17zM480 300q2 -10 4 -31.5t6 -53.5q8 -64 22 -84q15 -21 44 -27q28 -6 34 -31q2 -6 0.5 -15t-4.5 -23q-12 -50 -35 -50q-112 0 -112 191q-39 -78 -123 -77q-53 0 -63 50q-7 41 9 59q24 27 45 12l9 -6q57 -4 80 14t42 76q7 22 23 19t19 -23zM402 -123q6 8 17 5 q20 -7 38.5 -18t34.5 -25q8 -8 3 -18l-48 -76q-7 -10 -18 -2q-10 8 -72 45q-11 7 -4 17z" />
<glyph unicode="&#xfc6c;" horiz-adv-x="561" arabic-form="final" d="M174 -25q-22 10 -13 37q21 59 28 67q4 5 7 7.5t4 3.5q15 13 59 -1q91 -30 161 -82q25 -19 14 -52q-7 -22 -11.5 -35t-5.5 -16q-12 -28 -35 -27q-49 6 -95 4.5t-89 -12.5q-55 -14 -70 -30q1 -7 6.5 -46t17.5 -110q12 -70 18.5 -111.5t7.5 -54.5q2 -34 -2 -69.5t-13 -72.5 q-6 -21 -22 -18q-15 3 -12 49q3 45 -45 285q-15 81 4 149q19 67 41 94q21 25 45 41zM438 203q41 0 93 -70q19 -25 32 -28q47 -9 47 -45q0 -27 -13 -50q-14 -25 -36 -25q-58 0 -102 72q-27 44 -96 35t-120 -48q-26 -20 -41 -3q-23 24 -11 40q13 18 50 42q127 81 197 80z M419 -221q6 8 17 5q20 -7 38.5 -18t34.5 -25q8 -8 3 -18l-48 -76q-7 -10 -18 -2q-10 8 -72 45q-11 7 -4 17z" />
<glyph unicode="&#xfc6d;" horiz-adv-x="761" arabic-form="final" d="M571 132q2 -34 1 -59.5t-6 -45.5q-4 -19 -8 -33.5t-8 -24.5q-13 -37 -37 -69t-59 -60q-71 -56 -188 -56q-177 0 -210 116t63 277q10 16 22 9q13 -8 2 -28q-69 -127 -42 -180q37 -73 169 -71q81 1 158 39q75 37 92 69q12 45 -42 156q-5 10 -1 23l17 63q9 30 26 16 q45 -39 51 -141zM289 480q6 8 17 5q20 -7 38.5 -18t34.5 -25q8 -8 3 -18l-48 -76q-7 -10 -18 -2q-10 8 -72 45q-11 7 -4 17zM759 -15q-52 8 -72 45q-10 18 -19.5 52.5t-17.5 85.5q-33 -40 -81 -48q-37 -4 -52 32q-11 27 -7 50q5 24 27 29h1q4 1 8 1.5t8 -0.5q65 -12 99 64 q10 21 31 20q20 -1 23 -28q6 -64 13 -102.5t13 -51.5q12 -26 31 -29q40 -6 32 -65q-6 -43 -21 -52q-4 -1 -7.5 -2.5t-8.5 -0.5zM599 -123q6 8 17 5q20 -7 38.5 -18t34.5 -25q8 -8 3 -18l-48 -76q-7 -10 -18 -2q-10 8 -72 45q-11 7 -4 17z" />
<glyph unicode="&#xfc6e;" horiz-adv-x="729" arabic-form="final" d="M432 -109q-32 12 -42 33q-17 38 30 105q1 1 3.5 6t6.5 12q9 17 20 12q16 -6 5 -28q-10 -19 22 -36q16 -8 41.5 -14.5t59.5 -11.5q68 -10 97 -20q26 -9 38 -37q12 -29 8 -58q-4 -30 -18 -51q-26 -37 -127 -87q-99 -49 -226 -63q-228 -25 -284 133q-18 51 -3 137 q15 87 77 186q11 18 27 9t-3 -40q-66 -107 -49 -175q33 -141 219 -129q145 9 308 86q-23 5 -86 9q-40 3 -71 9t-53 13zM669 152q24 -41 58 -47q50 -9 40 -51q-5 -21 -8 -31.5t-3 -11.5q-11 -27 -27 -26q-70 4 -114 67q-25 36 -46 37q-21 2 -66 -24q-46 -26 -50 -39 q-19 -63 -39 -90q-9 -8 -15 -9q-13 -2 -14 19q-3 39 37 106q20 32 42.5 59t49.5 49q55 44 88 44q36 0 67 -52zM595 -328q6 8 17 5q20 -7 38.5 -18t34.5 -25q8 -8 3 -18l-48 -76q-7 -10 -18 -2q-10 8 -72 45q-11 7 -4 17z" />
<glyph unicode="&#xfc6f;" horiz-adv-x="729" arabic-form="final" d="M432 -109q-32 12 -42 33q-17 38 30 105q1 1 3.5 6t6.5 12q9 17 20 12q16 -6 5 -28q-10 -19 22 -36q16 -8 41.5 -14.5t59.5 -11.5q68 -10 97 -20q26 -9 38 -37q12 -29 8 -58q-4 -30 -18 -51q-26 -37 -127 -87q-99 -49 -226 -63q-228 -25 -284 133q-18 51 -3 137 q15 87 77 186q11 18 27 9t-3 -40q-66 -107 -49 -175q33 -141 219 -129q145 9 308 86q-23 5 -86 9q-40 3 -71 9t-53 13zM397 -422q6 8 17 5q20 -7 39 -18t35 -25q8 -8 3 -18l-48 -76q-8 -11 -18 -2q-4 4 -17.5 12.5t-35.5 21.5l-33 -54q-7 -10 -18 -2q-5 4 -23.5 15t-49.5 30 q-11 6 -3 17l48 72q6 8 17 5q30 -10 56 -29zM669 152q24 -41 58 -47q50 -9 40 -51q-5 -21 -8 -31.5t-3 -11.5q-11 -27 -27 -26q-70 4 -114 67q-25 36 -46 37q-21 2 -66 -24q-46 -26 -50 -39q-19 -63 -39 -90q-9 -8 -15 -9q-13 -2 -14 19q-3 39 37 106q20 32 42.5 59t49.5 49 q55 44 88 44q36 0 67 -52zM595 -328q6 8 17 5q20 -7 38.5 -18t34.5 -25q8 -8 3 -18l-48 -76q-7 -10 -18 -2q-10 8 -72 45q-11 7 -4 17z" />
<glyph unicode="&#xfc70;" horiz-adv-x="550" arabic-form="final" d="M-80 -153q-15 11 -11 24t25 8q97 -20 161 5q131 50 185 149q-1 18 -52 89q-7 8 -4 19l28 102q17 60 52 -15q46 -102 21 -217q-15 -69 -76 -143t-124 -82q-103 -12 -205 61zM480 300q2 -10 4 -31.5t6 -53.5q8 -64 22 -84q15 -21 44 -27q28 -6 34 -31q2 -6 0.5 -15 t-4.5 -23q-12 -50 -35 -50q-112 0 -112 191q-39 -78 -123 -77q-53 0 -63 50q-7 41 9 59q24 27 45 12l9 -6q57 -4 80 14t42 76q7 22 23 19t19 -23zM461 573q6 8 17 5q20 -7 39 -18t35 -25q8 -8 3 -18l-48 -76q-8 -11 -18 -2q-4 4 -17.5 12.5t-35.5 21.5l-33 -54 q-7 -10 -18 -2q-5 4 -23.5 15t-49.5 30q-11 6 -3 17l48 72q6 8 17 5q30 -10 56 -29z" />
<glyph unicode="&#xfc71;" horiz-adv-x="550" arabic-form="final" d="M-80 -153q-15 11 -11 24t25 8q97 -20 161 5q131 50 185 149q-1 18 -52 89q-7 8 -4 19l28 102q17 60 52 -15q46 -102 21 -217q-15 -69 -76 -143t-124 -82q-103 -12 -205 61zM151 521q6 8 17 5q20 -7 38.5 -18t34.5 -25q8 -8 3 -18l-48 -76q-7 -10 -18 -2q-10 8 -72 45 q-11 7 -4 17zM480 300q2 -10 4 -31.5t6 -53.5q8 -64 22 -84q15 -21 44 -27q28 -6 34 -31q2 -6 0.5 -15t-4.5 -23q-12 -50 -35 -50q-112 0 -112 191q-39 -78 -123 -77q-53 0 -63 50q-7 41 9 59q24 27 45 12l9 -6q57 -4 80 14t42 76q7 22 23 19t19 -23zM461 573q6 8 17 5 q20 -7 39 -18t35 -25q8 -8 3 -18l-48 -76q-8 -11 -18 -2q-4 4 -17.5 12.5t-35.5 21.5l-33 -54q-7 -10 -18 -2q-5 4 -23.5 15t-49.5 30q-11 6 -3 17l48 72q6 8 17 5q30 -10 56 -29z" />
<glyph unicode="&#xfc72;" horiz-adv-x="561" arabic-form="final" d="M174 -25q-22 10 -13 37q21 59 28 67q4 5 7 7.5t4 3.5q15 13 59 -1q91 -30 161 -82q25 -19 14 -52q-7 -22 -11.5 -35t-5.5 -16q-12 -28 -35 -27q-49 6 -95 4.5t-89 -12.5q-55 -14 -70 -30q1 -7 6.5 -46t17.5 -110q12 -70 18.5 -111.5t7.5 -54.5q2 -34 -2 -69.5t-13 -72.5 q-6 -21 -22 -18q-15 3 -12 49q3 45 -45 285q-15 81 4 149q19 67 41 94q21 25 45 41zM438 203q41 0 93 -70q19 -25 32 -28q47 -9 47 -45q0 -27 -13 -50q-14 -25 -36 -25q-58 0 -102 72q-27 44 -96 35t-120 -48q-26 -20 -41 -3q-23 24 -11 40q13 18 50 42q127 81 197 80z M429 475q6 8 17 5q20 -7 39 -18t35 -25q8 -8 3 -18l-48 -76q-8 -11 -18 -2q-4 4 -17.5 12.5t-35.5 21.5l-33 -54q-7 -10 -18 -2q-5 4 -23.5 15t-49.5 30q-11 6 -3 17l48 72q6 8 17 5q30 -10 56 -29z" />
<glyph unicode="&#xfc73;" horiz-adv-x="761" arabic-form="final" d="M571 132q2 -34 1 -59.5t-6 -45.5q-4 -19 -8 -33.5t-8 -24.5q-13 -37 -37 -69t-59 -60q-71 -56 -188 -56q-177 0 -210 116t63 277q10 16 22 9q13 -8 2 -28q-69 -127 -42 -180q37 -73 169 -71q81 1 158 39q75 37 92 69q12 45 -42 156q-5 10 -1 23l17 63q9 30 26 16 q45 -39 51 -141zM289 480q6 8 17 5q20 -7 38.5 -18t34.5 -25q8 -8 3 -18l-48 -76q-7 -10 -18 -2q-10 8 -72 45q-11 7 -4 17zM759 -15q-52 8 -72 45q-10 18 -19.5 52.5t-17.5 85.5q-33 -40 -81 -48q-37 -4 -52 32q-11 27 -7 50q5 24 27 29h1q4 1 8 1.5t8 -0.5q65 -12 99 64 q10 21 31 20q20 -1 23 -28q6 -64 13 -102.5t13 -51.5q12 -26 31 -29q40 -6 32 -65q-6 -43 -21 -52q-4 -1 -7.5 -2.5t-8.5 -0.5zM653 516q6 8 17 5q20 -7 39 -18t35 -25q8 -8 3 -18l-48 -76q-8 -11 -18 -2q-4 4 -17.5 12.5t-35.5 21.5l-33 -54q-7 -10 -18 -2q-5 4 -23.5 15 t-49.5 30q-11 6 -3 17l48 72q6 8 17 5q30 -10 56 -29z" />
<glyph unicode="&#xfc74;" horiz-adv-x="729" arabic-form="final" d="M432 -109q-32 12 -42 33q-17 38 30 105q1 1 3.5 6t6.5 12q9 17 20 12q16 -6 5 -28q-10 -19 22 -36q16 -8 41.5 -14.5t59.5 -11.5q68 -10 97 -20q26 -9 38 -37q12 -29 8 -58q-4 -30 -18 -51q-26 -37 -127 -87q-99 -49 -226 -63q-228 -25 -284 133q-18 51 -3 137 q15 87 77 186q11 18 27 9t-3 -40q-66 -107 -49 -175q33 -141 219 -129q145 9 308 86q-23 5 -86 9q-40 3 -71 9t-53 13zM669 152q24 -41 58 -47q50 -9 40 -51q-5 -21 -8 -31.5t-3 -11.5q-11 -27 -27 -26q-70 4 -114 67q-25 36 -46 37q-21 2 -66 -24q-46 -26 -50 -39 q-19 -63 -39 -90q-9 -8 -15 -9q-13 -2 -14 19q-3 39 37 106q20 32 42.5 59t49.5 49q55 44 88 44q36 0 67 -52zM552 475q6 8 17 5q20 -7 39 -18t35 -25q8 -8 3 -18l-48 -76q-8 -11 -18 -2q-4 4 -17.5 12.5t-35.5 21.5l-33 -54q-7 -10 -18 -2q-5 4 -23.5 15t-49.5 30 q-11 6 -3 17l48 72q6 8 17 5q30 -10 56 -29z" />
<glyph unicode="&#xfc75;" horiz-adv-x="729" arabic-form="final" d="M432 -109q-32 12 -42 33q-17 38 30 105q1 1 3.5 6t6.5 12q9 17 20 12q16 -6 5 -28q-10 -19 22 -36q16 -8 41.5 -14.5t59.5 -11.5q68 -10 97 -20q26 -9 38 -37q12 -29 8 -58q-4 -30 -18 -51q-26 -37 -127 -87q-99 -49 -226 -63q-228 -25 -284 133q-18 51 -3 137 q15 87 77 186q11 18 27 9t-3 -40q-66 -107 -49 -175q33 -141 219 -129q145 9 308 86q-23 5 -86 9q-40 3 -71 9t-53 13zM397 -422q6 8 17 5q20 -7 39 -18t35 -25q8 -8 3 -18l-48 -76q-8 -11 -18 -2q-4 4 -17.5 12.5t-35.5 21.5l-33 -54q-7 -10 -18 -2q-5 4 -23.5 15t-49.5 30 q-11 6 -3 17l48 72q6 8 17 5q30 -10 56 -29zM669 152q24 -41 58 -47q50 -9 40 -51q-5 -21 -8 -31.5t-3 -11.5q-11 -27 -27 -26q-70 4 -114 67q-25 36 -46 37q-21 2 -66 -24q-46 -26 -50 -39q-19 -63 -39 -90q-9 -8 -15 -9q-13 -2 -14 19q-3 39 37 106q20 32 42.5 59t49.5 49 q55 44 88 44q36 0 67 -52zM552 475q6 8 17 5q20 -7 39 -18t35 -25q8 -8 3 -18l-48 -76q-8 -11 -18 -2q-4 4 -17.5 12.5t-35.5 21.5l-33 -54q-7 -10 -18 -2q-5 4 -23.5 15t-49.5 30q-11 6 -3 17l48 72q6 8 17 5q30 -10 56 -29z" />
<glyph unicode="&#xfc76;" horiz-adv-x="550" arabic-form="final" d="M-80 -153q-15 11 -11 24t25 8q97 -20 161 5q131 50 185 149q-1 18 -52 89q-7 8 -4 19l28 102q17 60 52 -15q46 -102 21 -217q-15 -69 -76 -143t-124 -82q-103 -12 -205 61zM480 300q2 -10 4 -31.5t6 -53.5q8 -64 22 -84q15 -21 44 -27q28 -6 34 -31q2 -6 0.5 -15 t-4.5 -23q-12 -50 -35 -50q-112 0 -112 191q-39 -78 -123 -77q-53 0 -63 50q-7 41 9 59q24 27 45 12l9 -6q57 -4 80 14t42 76q7 22 23 19t19 -23zM457 573q6 9 18 5q20 -7 38.5 -18t34.5 -25q8 -8 3 -18l-48 -76q-8 -11 -17 -3q-4 4 -16 11.5t-30 18.5l-31 -49 q-7 -10 -18 -3q-5 4 -23.5 15.5t-49.5 30.5q-10 6 -3 16l48 72q12 17 66 -19zM387 685q6 8 17 5q20 -7 38.5 -18t34.5 -25q8 -8 3 -18l-48 -76q-7 -10 -18 -2q-10 8 -72 45q-11 6 -4 16z" />
<glyph unicode="&#xfc77;" horiz-adv-x="550" arabic-form="final" d="M-80 -153q-15 11 -11 24t25 8q97 -20 161 5q131 50 185 149q-1 18 -52 89q-7 8 -4 19l28 102q17 60 52 -15q46 -102 21 -217q-15 -69 -76 -143t-124 -82q-103 -12 -205 61zM151 521q6 8 17 5q20 -7 38.5 -18t34.5 -25q8 -8 3 -18l-48 -76q-7 -10 -18 -2q-10 8 -72 45 q-11 7 -4 17zM480 300q2 -10 4 -31.5t6 -53.5q8 -64 22 -84q15 -21 44 -27q28 -6 34 -31q2 -6 0.5 -15t-4.5 -23q-12 -50 -35 -50q-112 0 -112 191q-39 -78 -123 -77q-53 0 -63 50q-7 41 9 59q24 27 45 12l9 -6q57 -4 80 14t42 76q7 22 23 19t19 -23zM457 573q6 9 18 5 q20 -7 38.5 -18t34.5 -25q8 -8 3 -18l-48 -76q-8 -11 -17 -3q-4 4 -16 11.5t-30 18.5l-31 -49q-7 -10 -18 -3q-5 4 -23.5 15.5t-49.5 30.5q-10 6 -3 16l48 72q12 17 66 -19zM387 685q6 8 17 5q20 -7 38.5 -18t34.5 -25q8 -8 3 -18l-48 -76q-7 -10 -18 -2q-10 8 -72 45 q-11 6 -4 16z" />
<glyph unicode="&#xfc78;" horiz-adv-x="561" arabic-form="final" d="M174 -25q-22 10 -13 37q21 59 28 67q4 5 7 7.5t4 3.5q15 13 59 -1q91 -30 161 -82q25 -19 14 -52q-7 -22 -11.5 -35t-5.5 -16q-12 -28 -35 -27q-49 6 -95 4.5t-89 -12.5q-55 -14 -70 -30q1 -7 6.5 -46t17.5 -110q12 -70 18.5 -111.5t7.5 -54.5q2 -34 -2 -69.5t-13 -72.5 q-6 -21 -22 -18q-15 3 -12 49q3 45 -45 285q-15 81 4 149q19 67 41 94q21 25 45 41zM438 203q41 0 93 -70q19 -25 32 -28q47 -9 47 -45q0 -27 -13 -50q-14 -25 -36 -25q-58 0 -102 72q-27 44 -96 35t-120 -48q-26 -20 -41 -3q-23 24 -11 40q13 18 50 42q127 81 197 80z M425 475q6 9 18 5q20 -7 38.5 -18t34.5 -25q8 -8 3 -18l-48 -76q-8 -11 -17 -3q-4 4 -16 11.5t-30 18.5l-31 -49q-7 -10 -18 -3q-5 4 -23.5 15.5t-49.5 30.5q-10 6 -3 16l48 72q12 17 66 -19zM355 587q6 8 17 5q20 -7 38.5 -18t34.5 -25q8 -8 3 -18l-48 -76q-7 -10 -18 -2 q-10 8 -72 45q-11 6 -4 16z" />
<glyph unicode="&#xfc79;" horiz-adv-x="761" arabic-form="final" d="M571 132q2 -34 1 -59.5t-6 -45.5q-4 -19 -8 -33.5t-8 -24.5q-13 -37 -37 -69t-59 -60q-71 -56 -188 -56q-177 0 -210 116t63 277q10 16 22 9q13 -8 2 -28q-69 -127 -42 -180q37 -73 169 -71q81 1 158 39q75 37 92 69q12 45 -42 156q-5 10 -1 23l17 63q9 30 26 16 q45 -39 51 -141zM289 480q6 8 17 5q20 -7 38.5 -18t34.5 -25q8 -8 3 -18l-48 -76q-7 -10 -18 -2q-10 8 -72 45q-11 7 -4 17zM759 -15q-52 8 -72 45q-10 18 -19.5 52.5t-17.5 85.5q-33 -40 -81 -48q-37 -4 -52 32q-11 27 -7 50q5 24 27 29h1q4 1 8 1.5t8 -0.5q65 -12 99 64 q10 21 31 20q20 -1 23 -28q6 -64 13 -102.5t13 -51.5q12 -26 31 -29q40 -6 32 -65q-6 -43 -21 -52q-4 -1 -7.5 -2.5t-8.5 -0.5zM649 516q6 9 18 5q20 -7 38.5 -18t34.5 -25q8 -8 3 -18l-48 -76q-8 -11 -17 -3q-4 4 -16 11.5t-30 18.5l-31 -49q-7 -10 -18 -3q-5 4 -23.5 15.5 t-49.5 30.5q-10 6 -3 16l48 72q12 17 66 -19zM579 628q6 8 17 5q20 -7 38.5 -18t34.5 -25q8 -8 3 -18l-48 -76q-7 -10 -18 -2q-10 8 -72 45q-11 6 -4 16z" />
<glyph unicode="&#xfc7a;" horiz-adv-x="729" arabic-form="final" d="M432 -109q-32 12 -42 33q-17 38 30 105q1 1 3.5 6t6.5 12q9 17 20 12q16 -6 5 -28q-10 -19 22 -36q16 -8 41.5 -14.5t59.5 -11.5q68 -10 97 -20q26 -9 38 -37q12 -29 8 -58q-4 -30 -18 -51q-26 -37 -127 -87q-99 -49 -226 -63q-228 -25 -284 133q-18 51 -3 137 q15 87 77 186q11 18 27 9t-3 -40q-66 -107 -49 -175q33 -141 219 -129q145 9 308 86q-23 5 -86 9q-40 3 -71 9t-53 13zM669 152q24 -41 58 -47q50 -9 40 -51q-5 -21 -8 -31.5t-3 -11.5q-11 -27 -27 -26q-70 4 -114 67q-25 36 -46 37q-21 2 -66 -24q-46 -26 -50 -39 q-19 -63 -39 -90q-9 -8 -15 -9q-13 -2 -14 19q-3 39 37 106q20 32 42.5 59t49.5 49q55 44 88 44q36 0 67 -52zM548 475q6 9 18 5q20 -7 38.5 -18t34.5 -25q8 -8 3 -18l-48 -76q-8 -11 -17 -3q-4 4 -16 11.5t-30 18.5l-31 -49q-7 -10 -18 -3q-5 4 -23.5 15.5t-49.5 30.5 q-10 6 -3 16l48 72q12 17 66 -19zM478 587q6 8 17 5q20 -7 38.5 -18t34.5 -25q8 -8 3 -18l-48 -76q-7 -10 -18 -2q-10 8 -72 45q-11 6 -4 16z" />
<glyph unicode="&#xfc7b;" horiz-adv-x="729" arabic-form="final" d="M432 -109q-32 12 -42 33q-17 38 30 105q1 1 3.5 6t6.5 12q9 17 20 12q16 -6 5 -28q-10 -19 22 -36q16 -8 41.5 -14.5t59.5 -11.5q68 -10 97 -20q26 -9 38 -37q12 -29 8 -58q-4 -30 -18 -51q-26 -37 -127 -87q-99 -49 -226 -63q-228 -25 -284 133q-18 51 -3 137 q15 87 77 186q11 18 27 9t-3 -40q-66 -107 -49 -175q33 -141 219 -129q145 9 308 86q-23 5 -86 9q-40 3 -71 9t-53 13zM397 -422q6 8 17 5q20 -7 39 -18t35 -25q8 -8 3 -18l-48 -76q-8 -11 -18 -2q-4 4 -17.5 12.5t-35.5 21.5l-33 -54q-7 -10 -18 -2q-5 4 -23.5 15t-49.5 30 q-11 6 -3 17l48 72q6 8 17 5q30 -10 56 -29zM669 152q24 -41 58 -47q50 -9 40 -51q-5 -21 -8 -31.5t-3 -11.5q-11 -27 -27 -26q-70 4 -114 67q-25 36 -46 37q-21 2 -66 -24q-46 -26 -50 -39q-19 -63 -39 -90q-9 -8 -15 -9q-13 -2 -14 19q-3 39 37 106q20 32 42.5 59t49.5 49 q55 44 88 44q36 0 67 -52zM548 475q6 9 18 5q20 -7 38.5 -18t34.5 -25q8 -8 3 -18l-48 -76q-8 -11 -17 -3q-4 4 -16 11.5t-30 18.5l-31 -49q-7 -10 -18 -3q-5 4 -23.5 15.5t-49.5 30.5q-10 6 -3 16l48 72q12 17 66 -19zM478 587q6 8 17 5q20 -7 38.5 -18t34.5 -25 q8 -8 3 -18l-48 -76q-7 -10 -18 -2q-10 8 -72 45q-11 6 -4 16z" />
<glyph unicode="&#xfc7c;" horiz-adv-x="902" arabic-form="final" d="M441 -27q34 4 67.5 3.5t65.5 -4.5q65 -7 96 -36q19 -19 15 -58q-4 -34 -11 -57.5t-18 -37.5q-10 -13 -24 -26.5t-32 -27.5q-93 -71 -181.5 -103t-171.5 -26q-254 18 -179 309q21 80 68 141q14 17 25 7q12 -11 -3 -32q-29 -44 -42 -83t-12 -73q7 -143 178 -144 q171 -2 335 135q-42 23 -185 23q-14 0 -17 11t0 18zM627 216q33 87 118 151q35 27 61 27q9 0 17 -4q29 -17 38 -65q13 -80 -19 -152q-6 -13 -12.5 -25t-14.5 -25q39 -18 87 -18q21 0 26 -46q4 -45 -6 -61q-8 -13 -19 -13q-94 0 -208 56q-154 -70 -229 -150q-4 -4 -10 -4h-24 q-19 0 -13 18l18 56q4 11 10 17q60 65 175 125q-22 40 5 113zM758 259q-52 1 -87 -46q40 -83 126 -20q0 65 -39 66zM739 649q6 8 17 5q20 -7 38.5 -18t34.5 -25q8 -8 3 -18l-48 -76q-7 -10 -18 -2q-10 8 -72 45q-11 7 -4 17z" />
<glyph unicode="&#xfc7d;" horiz-adv-x="902" arabic-form="final" d="M441 -27q34 4 67.5 3.5t65.5 -4.5q65 -7 96 -36q19 -19 15 -58q-4 -34 -11 -57.5t-18 -37.5q-10 -13 -24 -26.5t-32 -27.5q-93 -71 -181.5 -103t-171.5 -26q-254 18 -179 309q21 80 68 141q14 17 25 7q12 -11 -3 -32q-29 -44 -42 -83t-12 -73q7 -143 178 -144 q171 -2 335 135q-42 23 -185 23q-14 0 -17 11t0 18zM384 -470q6 8 17 5q20 -7 39 -18t35 -25q8 -8 3 -18l-48 -76q-8 -11 -18 -2q-4 4 -17.5 12.5t-35.5 21.5l-33 -54q-7 -10 -18 -2q-5 4 -23.5 15t-49.5 30q-11 6 -3 17l48 72q6 8 17 5q30 -10 56 -29zM627 216 q33 87 118 151q35 27 61 27q9 0 17 -4q29 -17 38 -65q13 -80 -19 -152q-6 -13 -12.5 -25t-14.5 -25q39 -18 87 -18q21 0 26 -46q4 -45 -6 -61q-8 -13 -19 -13q-94 0 -208 56q-154 -70 -229 -150q-4 -4 -10 -4h-24q-19 0 -13 18l18 56q4 11 10 17q60 65 175 125q-22 40 5 113 zM758 259q-52 1 -87 -46q40 -83 126 -20q0 65 -39 66zM739 649q6 8 17 5q20 -7 38.5 -18t34.5 -25q8 -8 3 -18l-48 -76q-7 -10 -18 -2q-10 8 -72 45q-11 7 -4 17z" />
<glyph unicode="&#xfc7e;" horiz-adv-x="902" arabic-form="final" d="M441 -27q34 4 67.5 3.5t65.5 -4.5q65 -7 96 -36q19 -19 15 -58q-4 -34 -11 -57.5t-18 -37.5q-10 -13 -24 -26.5t-32 -27.5q-93 -71 -181.5 -103t-171.5 -26q-254 18 -179 309q21 80 68 141q14 17 25 7q12 -11 -3 -32q-29 -44 -42 -83t-12 -73q7 -143 178 -144 q171 -2 335 135q-42 23 -185 23q-14 0 -17 11t0 18zM627 216q33 87 118 151q35 27 61 27q9 0 17 -4q29 -17 38 -65q13 -80 -19 -152q-6 -13 -12.5 -25t-14.5 -25q39 -18 87 -18q21 0 26 -46q4 -45 -6 -61q-8 -13 -19 -13q-94 0 -208 56q-154 -70 -229 -150q-4 -4 -10 -4h-24 q-19 0 -13 18l18 56q4 11 10 17q60 65 175 125q-22 40 5 113zM758 259q-52 1 -87 -46q40 -83 126 -20q0 65 -39 66zM752 671q6 8 17 5q20 -7 39 -18t35 -25q8 -8 3 -18l-48 -76q-8 -11 -18 -2q-4 4 -17.5 12.5t-35.5 21.5l-33 -54q-7 -10 -18 -2q-5 4 -23.5 15t-49.5 30 q-11 6 -3 17l48 72q6 8 17 5q30 -10 56 -29z" />
</font>
</defs>
</svg>
