<?xml version="1.0" standalone="no"?>
<!DOCTYPE svg PUBLIC "-//W3C//DTD SVG 1.1//EN" "http://www.w3.org/Graphics/SVG/1.1/DTD/svg11.dtd" >
<svg xmlns="http://www.w3.org/2000/svg" xmlns:xlink="http://www.w3.org/1999/xlink" version="1.1">
<metadata></metadata>
<defs>
<font id="amiriregular" horiz-adv-x="1089" >
<font-face units-per-em="2048" ascent="1638" descent="-410" />
<missing-glyph horiz-adv-x="598" />
<glyph horiz-adv-x="0" />
<glyph unicode="&#xd;" horiz-adv-x="681" />
<glyph unicode=" "  horiz-adv-x="598" />
<glyph unicode="&#x09;" horiz-adv-x="598" />
<glyph unicode="&#xa0;" horiz-adv-x="598" />
<glyph unicode="!" horiz-adv-x="481" d="M131 90q0 47 33 76q38 33 78 33q44 0 77 -33q31 -31 31 -76q0 -42 -31 -78q-30 -35 -77 -35q-43 0 -78 35q-33 33 -33 78zM150 1247q0 41 28 80q27 37 72 37q44 0 65 -37q23 -41 23 -80q0 -216 -70 -903q-12 -24 -32 -27q-20 10 -25 23q-61 686 -61 907z" />
<glyph unicode="&#x22;" horiz-adv-x="559" d="M78 1257q0 47 30 94.5t74 47.5q18 0 28 -5.5t23 -21.5q0 -46 -8.5 -180.5t-17.5 -208.5q-11 -22 -41 -37q-13 0 -19 12q-69 229 -69 299zM317 1257q0 47 30.5 94.5t74.5 47.5q18 0 28 -5.5t23 -21.5q0 -45 -9 -179.5t-18 -209.5q-11 -23 -40 -37q-13 0 -19 12 q-70 233 -70 299z" />
<glyph unicode="#" horiz-adv-x="958" d="M101 379q0 23 9.5 47.5t22.5 28.5h129l45 282h-137q-12 0 -13 23t7.5 47.5t21.5 28.5h136l32 200q3 10 4 12t6 7.5t13 6.5t22 1q18 0 27 -6l-37 -221h256l33 200q1 2 2 5.5t1.5 5l1.5 4.5t2.5 4t3.5 2.5t5 2.5t6.5 1.5t9 1t11.5 0.5q18 0 27 -6l-35 -221h127q14 0 16 -22 t-7 -46.5t-22 -30.5h-131l-45 -282h133q14 0 16 -22t-6.5 -46.5t-21.5 -30.5h-135l-33 -202q-2 -8 -15 -17.5t-34 -9.5q-9 0 -14.5 2t-6.5 4l-2 2l35 221h-256l-32 -202q-2 -9 -14 -18t-32 -9q-9 0 -14.5 2t-6.5 4l-1 2l35 221h-133q-12 0 -12 23zM328 455h256l45 282h-254z " />
<glyph unicode="$" horiz-adv-x="995" d="M102 330q6 6 22.5 11t27.5 5q17 0 22 -10q6 -27 15.5 -54.5t30.5 -71t60.5 -80.5t90.5 -58l82 495q-40 24 -63 38t-61.5 40t-61 46t-50.5 50t-43 58.5t-26 65t-11 75.5q0 148 113 243t264 95q39 0 55 -2l15 90q69 0 69 -14l-14 -86q22 -5 75 -19t91 -22q5 -20 8.5 -43 t5.5 -41t3.5 -43.5t2 -38.5t1.5 -38.5t1 -31.5v-37q-13 -8 -34 -8q-19 0 -29 10q-7 56 -44 119.5t-95 100.5l-76 -463q2 -1 6 -4.5t6 -4.5q14 -9 57.5 -35t66 -41t61 -42.5t60.5 -52t45.5 -56.5t34.5 -68t11 -75q0 -103 -58 -185t-149.5 -124.5t-195.5 -42.5q-20 0 -66 4 l-14 -88q-21 0 -45.5 4.5t-24.5 13.5l12 78q-46 7 -121.5 25t-87.5 20q-17 78 -31 174.5t-14 118.5zM293 999q0 -44 14.5 -80.5t44.5 -67t58 -51t73 -48.5l74 452q-36 8 -55 8q-60 0 -103 -19.5t-65 -53t-31.5 -68t-9.5 -72.5zM440 53q54 -6 58 -6q95 0 162 63t67 171 q0 40 -11.5 73t-25.5 54t-46 45t-51.5 35.5t-63.5 35.5q-7 4 -11 6z" />
<glyph unicode="%" horiz-adv-x="1333" d="M80 969q0 136 84.5 228.5t216.5 92.5q128 0 210.5 -94t82.5 -227q0 -81 -34.5 -153.5t-103 -119.5t-155.5 -47q-124 0 -212.5 94t-88.5 226zM127 -2l965 1249q21 25 41 25q21 0 32 -2t14 -3.5t8 -8.5t9 -11l-967 -1247q-7 -8 -27 -16.5t-38 -8.5q-26 0 -37 23zM209 991 q0 -68 24 -135.5t67 -111.5t91 -44q42 0 73 22.5t47.5 60.5t24 80t7.5 89q0 108 -47.5 198.5t-122.5 90.5q-43 0 -75.5 -22t-51.5 -59t-28 -79.5t-9 -89.5zM655 303q0 136 85.5 230t217.5 94q127 0 209 -95t82 -229q0 -127 -80.5 -222t-212.5 -95q-125 0 -213 92.5 t-88 224.5zM784 328q0 -106 57 -198.5t130 -92.5q42 0 72 22.5t45.5 60.5t22.5 79.5t7 89.5q0 69 -19.5 134t-59 110t-89.5 45q-56 0 -95 -38.5t-55 -93t-16 -118.5z" />
<glyph unicode="&#x26;" horiz-adv-x="1363" d="M106 315q0 56 19 106t48.5 87.5t76 74.5t89 62.5t99.5 54.5q-38 66 -57 103t-39 104t-20 131q0 115 84.5 195t209.5 80q133 0 211 -60t78 -166q0 -65 -23.5 -121t-70 -103t-91.5 -80.5t-112 -75.5q121 -204 295 -400q50 77 82.5 147.5t32.5 88.5q0 32 -72 32 q-4 0 -10 1.5t-8 1.5q-5 9 -4.5 25t6.5 22h157q31 0 64.5 1.5t79 4.5t78.5 4q4 -3 3.5 -30t-5.5 -27q-26 0 -74.5 -11.5t-65.5 -21.5q-3 -2 -28 -46t-74.5 -117.5t-103.5 -135.5q48 -50 64 -66.5t46.5 -44.5t48.5 -36.5t35 -8.5q29 0 62.5 33.5t42.5 58.5q16 0 31.5 -13 t15.5 -24q-5 -11 -11 -22.5t-25.5 -35.5t-42 -41.5t-60.5 -31.5t-81 -14q-53 0 -110 36t-88 72l-31 35q-76 -66 -173 -107.5t-191 -41.5q-177 0 -282.5 85.5t-105.5 235.5zM279 344q0 -68 23.5 -120t63.5 -83t89.5 -46t105.5 -15q62 0 133 30t117 80q-57 58 -139 168 t-136 190l-53 81q-52 -35 -80 -57t-61 -58t-48 -77.5t-15 -92.5zM469 1085q0 -126 102 -315q105 60 152 121.5t47 169.5q0 72 -39 125t-104 53q-66 0 -112 -43t-46 -111z" />
<glyph unicode="'" horiz-adv-x="319" d="M78 1257q0 47 30 94.5t74 47.5q18 0 28 -5.5t23 -21.5q0 -46 -8.5 -180.5t-17.5 -208.5q-11 -22 -41 -37q-13 0 -19 12q-69 229 -69 299z" />
<glyph unicode="(" horiz-adv-x="937" d="M299 340q0 537 303 911q109 132 217 217l31 -43q-219 -176 -326 -553q-73 -256 -73 -532q0 -366 129 -694q103 -257 270 -402l-31 -35q-317 249 -446 652q-74 230 -74 479z" />
<glyph unicode=")" horiz-adv-x="937" d="M90 -756q164 142 268 402q129 328 129 694q0 276 -73 532q-107 379 -324 553l29 43q114 -90 219 -217q301 -371 301 -911q0 -249 -74 -479q-129 -403 -446 -652z" />
<glyph unicode="*" horiz-adv-x="884" d="M72 913q-6 32 16 55.5t59 28.5q52 6 127 -6q69 -8 105 -4q18 7 22 17q5 13 -4 28q-18 30 -65 80.5t-72 95.5q-20 32 -18.5 65.5t28.5 47.5q31 14 58 1t45 -48q21 -45 32.5 -117t28.5 -106q11 -21 21 -23q12 -2 26 12q25 27 58 88.5t65 98.5q27 30 57 37t54 -15 q24 -25 20.5 -54t-33.5 -56q-36 -32 -100.5 -67.5t-91.5 -61.5q-1 -2 -3 -5.5t-5 -11.5t-2 -12q2 -12 18 -18q33 -16 101 -28.5t114 -33.5q36 -16 53.5 -42t4.5 -54q-15 -30 -46 -37t-63 12q-44 24 -97 75.5t-85 68.5l-5 2.5t-12 4t-12 -0.5q-4 -2 -6.5 -5.5t-3 -6t-1.5 -8 t-1 -7.5q-4 -34 4 -96q9 -83 4 -125q-5 -39 -25 -63.5t-51 -20.5q-32 4 -47.5 31.5t-7.5 64.5q9 49 42 116t40 103q2 19 -6 27q-7 10 -27 6q-34 -7 -96 -37t-113 -41q-38 -8 -69 3.5t-35 41.5z" />
<glyph unicode="+" horiz-adv-x="1083" d="M61 457q0 13 9 47.5t22 44.5h391v399q63 23 86 23q9 0 15.5 -3.5t9.5 -6.5l2 -3v-409h408q7 0 12.5 -7t5.5 -18q0 -24 -10 -49.5t-23 -38.5h-393v-403q-32 -23 -86 -23q-10 0 -18.5 6.5t-8.5 12.5v407h-409q-13 1 -13 21z" />
<glyph unicode="," horiz-adv-x="401" d="M35 -236q23 17 38 31t38.5 42.5t36 66t12.5 82.5q0 32 -33 76t-33 85q0 35 34 67t85 32q25 0 51 -15q35 -63 35 -139q0 -85 -79 -207t-157 -164q-10 0 -19 16t-9 27z" />
<glyph unicode="-" horiz-adv-x="753" d="M117 420q0 49 24 102q418 23 484 25q14 0 14 -19q0 -49 -27 -108q-89 -6 -483 -23q-7 0 -9.5 4.5t-2.5 18.5z" />
<glyph unicode="." horiz-adv-x="413" d="M96 90q0 44 34 76.5t79 32.5q44 0 75 -32t31 -77t-31 -79t-75 -34t-78.5 34.5t-34.5 78.5z" />
<glyph unicode="/" horiz-adv-x="704" d="M31 -367l508 1776q0 3 10 10t29 13q18 6 40 6q19 0 25 -19l-498 -1755q-3 -12 -26 -29q-22 -16 -51 -16q-11 0 -23 4q-9 3 -12 6z" />
<glyph unicode="0" d="M109 639q0 176 50.5 320.5t151 233.5t234.5 89q136 0 236.5 -89t150 -233t49.5 -321q0 -176 -50.5 -321t-151 -234.5t-234.5 -89.5q-132 0 -232.5 89t-152 234.5t-51.5 321.5zM285 639q0 -156 32 -286t90 -207.5t130 -77.5q86 0 148 81t91 210.5t29 289.5 q0 155 -31.5 282.5t-89 202t-129.5 74.5q-82 0 -144 -77.5t-94 -205.5t-32 -286z" />
<glyph unicode="1" d="M293 1110v2q0 8 4 10q69 31 157 73t137.5 65.5t51.5 23.5h4q14 0 21 -33q-17 -69 -17 -192v-828q0 -111 11 -147q4 -15 51.5 -24t77.5 -9q6 -8 6.5 -28.5t-6.5 -28.5q-205 10 -224 10q-8 0 -213 -10q-7 8 -6.5 28.5t6.5 28.5q30 0 76.5 9t50.5 24q13 43 13 147v809 q0 42 -9.5 59t-31.5 17q-29 0 -142 -41q-18 14 -18 35z" />
<glyph unicode="2" d="M135 29q318 352 477 583q58 85 77.5 151.5t19.5 147.5q0 103 -63.5 172.5t-158.5 69.5q-45 0 -88.5 -14.5t-73.5 -34t-57 -45.5t-41 -44t-24 -34q-11 0 -25 13t-14 20q5 17 23 47t52 69t76 73t99.5 57.5t117.5 23.5q142 0 244.5 -102t102.5 -232q0 -162 -115 -303 q-143 -176 -436 -502h397q58 0 96.5 36.5t71.5 117.5q5 12 22 12q25 0 41 -12q-49 -117 -108 -299h-692q-6 3 -13.5 13t-7.5 16z" />
<glyph unicode="3" d="M168 113q0 41 25.5 68.5t58.5 27.5q25 0 43.5 -12.5t41 -41t28.5 -34.5q51 -51 147 -51q42 0 82 17t75.5 52t57 97.5t21.5 144.5q0 118 -77.5 199.5t-178.5 81.5q-19 0 -41.5 -4.5t-48 -12t-29.5 -8.5q-13 16 -13 39q0 12 5 20q136 32 223.5 104t87.5 191 q0 80 -55.5 133.5t-141.5 53.5q-44 0 -86 -19t-66 -40.5t-46.5 -46t-24.5 -25.5q-9 0 -17 14.5t-8 28.5q53 81 139 137.5t193 56.5q40 0 84.5 -17.5t84.5 -48.5t66.5 -81.5t26.5 -108.5q0 -60 -34 -118t-72 -92t-80 -60q45 -6 92.5 -30t90.5 -62.5t70.5 -99t27.5 -130.5 q0 -99 -44 -184.5t-116 -142t-163 -88t-185 -31.5q-113 0 -203 47q-12 8 -26.5 31t-14.5 45z" />
<glyph unicode="4" d="M100 385l652 852q38 51 59 51q14 0 22.5 -12t8.5 -25v-788h119q9 0 17.5 -25.5t8.5 -56.5q0 -24 -6 -33h-139v-350q-8 -10 -86 -10q-72 0 -72 16v344h-563q-21 12 -21 37zM236 463h448v586z" />
<glyph unicode="5" d="M168 113q0 41 25.5 68.5t58.5 27.5q25 0 43.5 -12.5t41 -41t28.5 -34.5q51 -51 147 -51q42 0 82 17t75.5 51.5t57 97t21.5 145.5q0 50 -18 99.5t-54.5 95t-101 74t-146.5 28.5q-34 0 -89 -10t-79 -21q-6 0 -11 9t-5 20q20 103 62 316t54 278h295q36 0 82.5 4.5t74.5 9.5 l28 4q3 -2 8.5 -5.5t8 -5t5 -4.5t2.5 -7q0 -15 -17.5 -64.5t-41.5 -77.5q-110 -12 -234 -12h-168q-10 -50 -33.5 -174t-37.5 -186q39 16 104.5 27.5t108.5 11.5q113 0 200.5 -54t131 -134t43.5 -167q0 -99 -44 -184.5t-116 -142t-163 -88t-185 -31.5q-113 0 -203 47 q-12 8 -26.5 31t-14.5 45z" />
<glyph unicode="6" d="M145 440q0 155 49.5 292t143.5 239q101 112 252 200.5t284 122.5q12 0 17.5 -20.5t5.5 -36.5q-455 -144 -555 -537q51 42 117 66.5t119 24.5q80 0 145.5 -26.5t105.5 -67.5t67 -94t37.5 -102t10.5 -95q0 -169 -118.5 -293.5t-286.5 -124.5q-87 0 -163 40.5t-125.5 105 t-77.5 145t-28 161.5zM317 475q0 -70 15 -142.5t43.5 -136t75.5 -103.5t104 -40q95 0 157 90t62 226q0 66 -14.5 122.5t-43.5 102.5t-79 72t-115 26q-123 0 -196 -80q-9 -64 -9 -137z" />
<glyph unicode="7" d="M125 967q57 178 84 299h606q30 0 83 3t54 3q13 0 13 -19q0 -10 -6 -26t-12.5 -29t-19.5 -38.5t-20 -39.5l-526 -1124q-6 -6 -21 -6q-25 0 -56.5 12t-31.5 25q92 138 234 411.5t238 477.5l96 204h-508q-58 0 -89 -35t-55 -118q-3 -13 -24 -13q-22 0 -39 13z" />
<glyph unicode="8" d="M168 307q0 48 19.5 94t42.5 76.5t65 65.5t62.5 49t59.5 38q2 2 3.5 2.5t3.5 2t4 2.5q9 6 0 10q-77 45 -141 129.5t-64 184.5q0 128 100 226.5t232 98.5q139 0 234.5 -80t95.5 -215q0 -45 -15.5 -86.5t-36.5 -71t-55.5 -59.5t-59 -47t-59.5 -39q-13 -3 0 -12 q105 -59 184 -151t79 -191q0 -148 -113.5 -250t-267.5 -102q-165 0 -269 89.5t-104 235.5zM326 313q0 -117 67 -188.5t152 -71.5q98 0 156.5 61t58.5 162q0 47 -24.5 95t-56.5 82.5t-73.5 67t-63 46.5t-38.5 23q-8 4 -12 4q-7 0 -9 -2q-83 -52 -120 -118t-37 -161zM373 995 q0 -44 15.5 -83.5t34 -64.5t53.5 -52t52 -37.5t52 -30.5q4 -2 12 -2h2q6 0 10 2q135 87 135 246q0 94 -54 169t-140 75q-72 0 -122 -65.5t-50 -156.5z" />
<glyph unicode="9" d="M147 877q0 110 53.5 206t147.5 153.5t205 57.5q116 0 207.5 -69t137.5 -171t46 -212q0 -155 -49 -292t-143 -239q-101 -112 -252.5 -200.5t-284.5 -122.5q-12 0 -17 20.5t-5 36.5q455 144 555 537q-51 -41 -117 -65.5t-119 -24.5q-80 0 -145 26.5t-105 67.5t-67 94 t-37.5 102t-10.5 95zM317 913q0 -66 14 -122.5t43 -102.5t78.5 -72t114.5 -26q124 0 197 80q8 57 8 137q0 70 -14.5 142t-42.5 136t-74.5 104t-103.5 40q-95 0 -157.5 -90.5t-62.5 -225.5z" />
<glyph unicode=":" horiz-adv-x="450" d="M117 90q0 44 33 76.5t77 32.5t76.5 -32.5t32.5 -76.5q0 -45 -32.5 -79t-76.5 -34t-77 34t-33 79zM117 754q0 44 33 76t77 32t76.5 -32t32.5 -76q0 -45 -32.5 -79t-76.5 -34t-77 34t-33 79z" />
<glyph unicode=";" horiz-adv-x="462" d="M76 -236q24 18 38.5 31.5t39 42t37 66t12.5 82.5q0 32 -34 76.5t-34 84.5q0 35 34 67t85 32q25 0 51 -15q37 -66 37 -139q0 -85 -79 -207t-157 -164q-10 0 -20 16.5t-10 26.5zM123 754q0 44 33 76t77 32t76.5 -32t32.5 -76q0 -45 -32.5 -79t-76.5 -34t-77 34t-33 79z" />
<glyph unicode="&#x3c;" horiz-adv-x="983" d="M59 434q0 28 37 47l738 375q8 4 10 4q17 0 35 -94q1 -5 -1 -9.5t-4 -6.5l-2 -2l-653 -330l664 -336q6 -2 6 -12q0 -14 -12.5 -57.5t-20.5 -43.5q-2 0 -10 4l-750 381q-37 19 -37 80z" />
<glyph unicode="=" horiz-adv-x="1128" d="M135.5 266.5q1.5 22.5 14 50.5t26.5 33h807q13 -4 12.5 -25.5t-13 -49.5t-26.5 -35h-811q-11 4 -9.5 26.5zM135.5 554.5q1.5 22.5 14 51t26.5 33.5h807q13 -4 12.5 -26t-13 -50t-26.5 -35h-811q-11 4 -9.5 26.5z" />
<glyph unicode="&#x3e;" horiz-adv-x="985" d="M96 70q0 4 1.5 7t2.5 4l2 1l662 336l-649 330q-6 2 -6 16q0 26 11.5 61t18.5 35q3 0 11 -4l741 -375q33 -17 33 -47q0 -32 -6 -50.5t-27 -29.5l-752 -381q-8 -4 -10 -4q-8 0 -20.5 43t-12.5 58z" />
<glyph unicode="?" horiz-adv-x="710" d="M113 1196q0 52 16 74q28 14 96 14q40 0 91 -16t105 -48t98.5 -75t73 -104t28.5 -128q0 -102 -45.5 -171.5t-157.5 -133.5q-44 -27 -96 -68t-60 -57q-16 -31 -12 -110v-29q-12 -25 -33 -27q-16 6 -24 23q-17 73 -17 182q0 50 13.5 89.5t40.5 68t49.5 45.5t56.5 39 q7 4 10 6q38 23 57 36t45.5 34.5t39.5 39t22.5 42.5t9.5 53q0 75 -43.5 119.5t-103.5 44.5t-106.5 -21.5t-65.5 -21.5q-27 0 -57.5 27.5t-30.5 72.5zM127 90q0 44 33.5 76.5t77.5 32.5t76 -32.5t32 -76.5q0 -45 -32 -79t-76 -34t-77.5 34.5t-33.5 78.5z" />
<glyph unicode="@" horiz-adv-x="1495" d="M98 340q0 118 31.5 235t95 221t150.5 184.5t206.5 127.5t254.5 47q142 0 256 -52t185 -139t108.5 -195.5t37.5 -227.5q0 -151 -53.5 -278t-148.5 -202t-209 -75q-78 0 -122 42t-44 130q0 55 14 92q-17 -33 -45 -72.5t-66 -84t-84 -74t-87 -29.5q-89 0 -140 79.5 t-51 190.5q0 107 51.5 218.5t132 197t185.5 140t205 54.5q73 0 145 -26l-123 -631q-4 -16 -4 -51q0 -45 26 -67.5t68 -22.5q63 0 125.5 62.5t103.5 171.5t41 229q0 104 -31 198.5t-91 172t-159.5 123.5t-225.5 46q-119 0 -225 -43t-183.5 -116t-135 -167t-86 -199 t-28.5 -210q0 -166 75.5 -297.5t190.5 -198.5q77 -46 150 -57q0 -11 -26 -23t-46 -12q-46 0 -78 12q-144 53 -245 212t-101 364zM537 301q0 -195 102 -195q48 0 107 70.5t105.5 173t66.5 199.5l40 203q-23 26 -81 26q-76 0 -155.5 -70.5t-132 -183t-52.5 -223.5z" />
<glyph unicode="A" horiz-adv-x="1253" d="M-30 19.5q0 21.5 5 31.5q26 0 67 10.5t54 28.5q9 11 16.5 22t15.5 26.5t12.5 24t13.5 29t11.5 26t13 32t11.5 29.5q262 679 385 989q8 15 36.5 36t41.5 21q3 0 6 -1.5l5 -2.5l407 -1069q47 -122 51 -131q13 -30 64 -50t74 -20q6 -14 5.5 -31.5t-3.5 -25.5 q-200 10 -220 10q-41 0 -76 -1.5t-79 -4.5t-76 -4q-7 8 -6.5 28.5t8.5 28.5q23 0 61 8t50 19q8 8 8 28q0 26 -34 123.5t-68 182.5l-33 84q-7 8 -13 8q-20 2 -159 2h-39q-125 0 -215 -6l-11 -6q-57 -148 -90 -244q-28 -78 -28 -141q0 -21 33 -35.5t62 -18.5t44 -4 q4 -4 5.5 -26t-1.5 -31q-29 1 -63 4t-63.5 4.5t-68.5 1.5q-41 0 -72.5 -1.5t-70 -4.5t-72.5 -4q-5 4 -5 25.5zM399 596q0 -8 4 -8q102 -4 181 -4q76 0 168 6q2 0 3.5 2.5t2.5 5.5v2l-176 483z" />
<glyph unicode="B" horiz-adv-x="1191" d="M83.5 22.5q0.5 20.5 6.5 28.5q31 0 83 9t56 24q11 36 11 147v854q0 114 -11 150q-4 15 -55 23t-84 8q-6 8 -6.5 28.5t6.5 28.5q164 -8 238 -8q34 0 125.5 2t156.5 2q58 0 112.5 -9t108 -31t93.5 -55.5t65 -85.5t25 -118q0 -54 -21.5 -105.5t-54 -88t-65.5 -61.5t-62 -36 q-7 -3 0 -8q39 -2 87.5 -25.5t95.5 -63t78.5 -102.5t31.5 -133q0 -184 -133 -295q-125 -104 -420 -108h-461q-7 8 -6.5 28.5zM414 229q0 -119 16 -135q21 -23 57.5 -30t100.5 -7q49 0 91 7t85.5 27t74 51.5t49.5 85.5t19 124q0 312 -372 312h-121v-435zM414 739h166 q125 0 188 69.5t63 166.5q0 132 -83.5 205t-225.5 73q-92 0 -100 -18q-8 -20 -8 -125v-27v-344z" />
<glyph unicode="C" horiz-adv-x="1347" d="M96 643q0 139 51 265.5t139 220t215 149t271 55.5q241 0 424 -41q45 -277 45 -297q1 -9 -13 -16.5t-30 -7.5q-15 0 -24 6q-4 21 -8 36t-17 47.5t-29.5 57t-47 54.5t-68.5 49.5t-95.5 33t-126.5 13.5q-107 0 -200.5 -51.5t-155 -134.5t-96.5 -186.5t-35 -209.5 q0 -95 20 -185.5t62.5 -172t102.5 -142.5t146 -97t187 -36q156 0 264 97q91 82 123 233h9q30 0 55 -16q0 -39 -25.5 -155.5t-44.5 -133.5q-164 -90 -430 -90q-192 0 -346.5 90t-238 239t-83.5 326z" />
<glyph unicode="D" horiz-adv-x="1419" d="M83.5 22.5q0.5 20.5 6.5 28.5q31 0 83 9t56 24q11 36 11 147v854q0 114 -11 150q-4 15 -55 23t-84 8q-6 8 -6.5 28.5t6.5 28.5q164 -8 238 -8q38 0 140.5 1t147.5 1q161 0 294 -49.5t222 -136t138 -205.5t49 -258q0 -107 -21 -201t-74 -182.5t-134 -151.5t-209 -101 t-291 -38h-500q-7 8 -6.5 28.5zM416 229q0 -131 10 -143q20 -29 164 -29q109 0 203.5 35t168 103.5t116 179.5t42.5 252q0 132 -30.5 238.5t-82 177.5t-123.5 118.5t-152 68.5t-169 21q-133 0 -139 -20q-8 -29 -8 -125v-25v-852z" />
<glyph unicode="E" horiz-adv-x="1173" d="M83.5 22.5q0.5 20.5 6.5 28.5q31 0 83 9t56 24q11 36 11 147v854q0 114 -11 150q-4 15 -55 23t-84 8q-6 8 -6.5 28.5t6.5 28.5q164 -8 238 -8q90 0 310.5 6t332.5 6q8 -58 30.5 -153t26.5 -117q-10 -10 -35 -10t-28 14q-30 111 -85.5 148.5t-146.5 37.5h-172 q-133 0 -139 -20q-8 -29 -8 -121v-23v-372q0 -13 86 -13h104q49 0 77.5 1t53 7t35 11.5t21.5 23.5t15.5 32.5t13.5 49.5q3 12 5 19q3 14 29 14q25 0 35 -10v-377q-8 -8 -33 -8t-31 14q-21 80 -31.5 101.5t-25.5 31.5q-28 17 -211 17q-143 0 -143 -19v-381v-12 q0 -117 10 -125q19 -14 45.5 -17t97.5 -3h97q72 0 141.5 14.5t109.5 40.5q30 18 54.5 53t36.5 63.5t34 84.5q3 12 29 12q37 0 49 -12q-6 -17 -24 -65.5t-27 -75t-22 -66t-21 -70t-12 -55.5q-102 0 -322.5 4t-359.5 4q-49 0 -126 -3t-114 -3q-7 8 -6.5 28.5z" />
<glyph unicode="F" horiz-adv-x="1069" d="M83.5 22.5q0.5 20.5 6.5 28.5q31 0 83 9t56 24q11 36 11 147v854q0 114 -11 150q-4 15 -55 23t-84 8q-6 8 -6.5 28.5t6.5 28.5q164 -8 238 -8q90 0 310.5 6t332.5 6q8 -58 30.5 -153t26.5 -117q-10 -10 -35 -10t-28 14q-30 111 -85.5 148.5t-146.5 37.5h-172 q-133 0 -139 -20q-8 -29 -8 -121v-23v-372q0 -13 86 -13h104q49 0 77.5 1t53 7t35 11.5t21.5 23.5t15.5 32.5t13.5 49.5q3 12 5 19q3 14 29 14q25 0 35 -10v-377q-8 -8 -33 -8t-31 14q-21 80 -31.5 101.5t-25.5 31.5q-28 17 -211 17q-143 0 -143 -19v-375v-24q0 -94 8 -123 q4 -15 65 -24t95 -9q6 -8 6.5 -28.5t-6.5 -28.5q-205 10 -254 10t-125 -5t-113 -5q-7 8 -6.5 28.5z" />
<glyph unicode="G" horiz-adv-x="1439" d="M96 643q0 139 51 265.5t139 220t215 149t271 55.5q241 0 424 -41q45 -277 45 -297q1 -9 -13 -16.5t-30 -7.5q-15 0 -24 6q-4 21 -8 36t-17 47.5t-29.5 57t-47 54.5t-68.5 49.5t-95.5 33t-126.5 13.5q-107 0 -200.5 -51.5t-155 -134.5t-96.5 -186.5t-35 -209.5 q0 -95 20 -185.5t62 -172t102 -142.5t146 -97t188 -36q118 0 244 66q12 6 12 28v203v25q0 94 -8 123q-4 15 -54.5 23.5t-82.5 8.5q-6 8 -6.5 29t6.5 29q205 -10 233 -10q20 0 225 10q7 -8 6.5 -29t-6.5 -29q-31 0 -79 -8.5t-52 -23.5q-10 -33 -10 -148v-141 q0 -24 10.5 -49.5t10.5 -32.5q0 -9 -7 -15.5t-32 -19.5q-46 -24 -74 -36.5t-85.5 -31.5t-131.5 -27.5t-168 -8.5q-192 0 -346.5 90t-238 239t-83.5 326z" />
<glyph unicode="H" horiz-adv-x="1449" d="M83.5 25.5q0.5 23.5 6.5 31.5q31 0 83 9t56 24q11 36 11 148v841q0 114 -11 150q-4 15 -55 23t-84 8q-6 8 -6.5 31.5t6.5 31.5q164 -8 238 -8q69 0 233 8q7 -8 6.5 -31.5t-6.5 -31.5q-33 0 -84 -8t-55 -23q-8 -29 -8 -125v-25v-350l4 -4q294 -6 313 -6q35 0 305 6 q4 2 4 6v348q0 117 -10 150q-4 15 -54 23t-83 8q-6 8 -6.5 31.5t6.5 31.5q164 -8 235 -8q70 0 234 8q7 -8 6.5 -31.5t-6.5 -31.5q-33 0 -83 -8t-54 -23q-11 -36 -11 -150v-841q0 -112 11 -148q4 -15 55 -24t82 -9q6 -8 6.5 -31.5t-6.5 -31.5q-205 10 -234 10q-30 0 -235 -10 q-7 8 -6.5 31.5t6.5 31.5q31 0 82 9t55 24q10 33 10 148v397l-4 6q-24 1 -135 4.5t-170 3.5q-295 0 -315 -10l-2 -4v-397v-25q0 -94 8 -123q4 -15 56 -24t83 -9q6 -8 6.5 -31.5t-6.5 -31.5q-205 10 -233 10q-33 0 -238 -10q-7 8 -6.5 31.5z" />
<glyph unicode="I" horiz-adv-x="647" d="M83.5 22.5q0.5 20.5 6.5 28.5q31 0 83 9t56 24q11 36 11 147v854q0 114 -11 150q-4 15 -55 23t-84 8q-6 8 -6.5 28.5t6.5 28.5q164 -8 238 -8q69 0 233 8q7 -8 6.5 -28.5t-6.5 -28.5q-33 0 -84 -8t-55 -23q-8 -29 -8 -125v-25v-854v-24q0 -94 8 -123q4 -15 56 -24t83 -9 q6 -8 6.5 -28.5t-6.5 -28.5q-205 10 -233 10q-33 0 -238 -10q-7 8 -6.5 28.5z" />
<glyph unicode="J" horiz-adv-x="624" d="M-209 -373q0 48 25.5 80.5t70.5 32.5q17 0 37 -10.5t30 -19t30 -27.5q49 -43 90 -43q34 0 59.5 25.5t48 88t34 182.5t11.5 295v854q0 117 -10 150q-4 15 -54 23t-83 8q-6 8 -6.5 28.5t6.5 28.5q164 -8 235 -8q72 0 236 8q7 -8 6.5 -28.5t-6.5 -28.5q-33 0 -84 -8t-55 -23 q-11 -36 -11 -150v-843q0 -183 -34.5 -319t-98 -217.5t-147 -121t-187.5 -39.5q-24 0 -66.5 12t-60.5 25q-16 16 -16 45z" />
<glyph unicode="K" horiz-adv-x="1312" d="M83.5 25.5q0.5 23.5 6.5 31.5q31 0 83 9t56 24q11 36 11 148v841q0 114 -11 150q-4 15 -55 23t-84 8q-6 8 -6.5 31.5t6.5 31.5q164 -8 238 -8q69 0 233 8q7 -8 6.5 -31.5t-6.5 -31.5q-33 0 -84 -8t-55 -23q-8 -29 -8 -125v-25v-397q47 30 225 203q121 120 165.5 166.5 t88.5 103.5q29 39 29 64q0 43 -107 43h-6q-5 9 -5 28.5t5 32.5q185 -10 229 -10q17 0 217 10q4 -9 3.5 -35t-7.5 -26l-16 -1q-16 -1 -29 -2.5t-35 -6.5t-40.5 -12.5t-40 -20.5t-37.5 -31q-61 -66 -124.5 -131.5t-102 -102.5t-119.5 -114.5t-117 -112.5q-5 -7 0 -14 q37 -42 134.5 -156t141.5 -164.5t113 -124.5t123 -125q90 -83 219 -92q6 -11 3.5 -31t-5.5 -26q-221 0 -285 22q-75 26 -135 86q-68 68 -450 506q-4 6 -19 6q-8 0 -16 -4v-372v-25q0 -94 8 -123q4 -15 56 -24t83 -9q6 -8 6.5 -31.5t-6.5 -31.5q-205 10 -233 10 q-33 0 -238 -10q-7 8 -6.5 31.5z" />
<glyph unicode="L" horiz-adv-x="1126" d="M83.5 22.5q0.5 20.5 6.5 28.5q31 0 83 9t56 24q11 36 11 147v854q0 114 -11 150q-4 15 -55 23t-84 8q-6 8 -6.5 28.5t6.5 28.5q164 -8 238 -8q69 0 233 8q7 -8 6.5 -28.5t-6.5 -28.5q-33 0 -84 -8t-55 -23q-8 -29 -8 -125v-25v-854v-12q0 -123 10 -131q19 -14 45.5 -17 t97.5 -3h113q64 0 130.5 14t104.5 41q80 57 125 201q3 12 29 12q37 0 49 -12q-6 -17 -24 -65.5t-27 -75t-22 -66t-21 -70t-12 -55.5q-102 0 -322.5 4t-359.5 4q-49 0 -126 -3t-114 -3q-7 8 -6.5 28.5z" />
<glyph unicode="M" horiz-adv-x="1812" d="M48.5 18q-0.5 20 4.5 33q34 0 92 10t70 27q22 33 25 100q26 692 26 957q0 57 -8 80q-5 16 -58 28.5t-81 12.5q-3 0 -3 27t3 30q184 -8 207 -8q75 0 161 8q18 -54 91.5 -230.5t174.5 -416t158 -383.5q2 -4 9 -4q5 0 8 8q55 141 150 385t157 401l88 240q95 -6 158 -6 q149 0 223 6l6 -57q-29 0 -81.5 -11t-59.5 -24q-10 -23 -10 -78q2 -61 5.5 -214.5t8 -361.5t6.5 -296q4 -139 25 -195q6 -18 57 -26.5t82 -8.5q7 -12 7 -30.5t-3 -26.5q-200 10 -238 10q-41 0 -78 -1.5t-84.5 -4.5t-78.5 -4q-4 4 -4.5 24t4.5 33q24 0 69 7t62 16 q18 10 18 84q0 14 -2 57t-2 59q-14 503 -27 856q0 11 -4.5 25t-13.5 14q-4 0 -10 -14q-164 -412 -422 -1057q-10 -23 -35.5 -61t-40.5 -41q-3 -2 -14 2q-2 2 -4 2l-488 1167q-4 -192 -10 -442t-11 -410.5t-5 -164.5q0 -41 8 -62q8 -20 66.5 -28.5t93.5 -8.5q6 -13 5.5 -31 t-3.5 -26q-27 1 -66.5 4t-72.5 4.5t-72 1.5q-41 0 -76.5 -1.5t-80.5 -4.5t-77 -4q-4 4 -4.5 24z" />
<glyph unicode="N" horiz-adv-x="1550" d="M82 -6q-14 24 0 57q29 0 88 12.5t68 28.5q13 22 16.5 48.5t3.5 86.5v869q0 61 -3.5 88t-16.5 49q-9 16 -67.5 27.5t-88.5 11.5q-14 33 0 57q184 -8 205 -8q122 0 151 2q49 -77 360 -454.5t425 -536.5v758q0 61 -3.5 88.5t-17.5 50.5q-8 14 -64.5 26.5t-86.5 12.5 q-7 10 -7.5 29.5t3.5 27.5q160 -8 229 -8q31 0 215 8q14 -24 0 -57q-30 0 -89.5 -11.5t-68.5 -27.5q-13 -22 -15.5 -47.5t-2.5 -89.5v-813q0 -173 4 -277q-2 -12 -27 -12q-10 0 -30 12t-39 35l-873 1102v-910q0 -60 3.5 -87t17.5 -50q8 -14 64 -27.5t85 -13.5 q7 -10 7.5 -29.5t-3.5 -27.5q-200 10 -227 10q-41 0 -72.5 -1.5t-70 -4.5t-72.5 -4z" />
<glyph unicode="O" horiz-adv-x="1495" d="M98 655q0 184 88 340.5t237 247t322 90.5q131 0 250.5 -50.5t208.5 -139t142 -216t53 -272.5q0 -138 -53 -263.5t-141.5 -215.5t-209 -143t-250.5 -53q-131 0 -249.5 50.5t-206 138.5t-139.5 214.5t-52 271.5zM297 700q0 -94 20 -186.5t60.5 -176.5t97 -149t135 -103 t168.5 -38q87 0 158.5 33.5t119.5 89.5t81 130.5t48 154.5t15 163q0 93 -20 185.5t-61 176t-98 147.5t-135.5 101.5t-168.5 37.5q-87 0 -158.5 -33.5t-119 -88.5t-80.5 -129t-47.5 -153t-14.5 -162z" />
<glyph unicode="P" horiz-adv-x="1095" d="M83.5 22.5q0.5 20.5 6.5 28.5q31 0 82 9t55 24q11 36 11 147v854q0 114 -11 150q-4 15 -54 23t-83 8q-6 8 -6.5 28.5t6.5 28.5q164 -8 236 -8q34 0 126.5 2t157.5 2q109 0 204.5 -41t158.5 -125t63 -195q0 -182 -121.5 -292.5t-318.5 -110.5q-54 0 -86 16q-29 19 -29 45 q0 4 3 8t8 3q57 -15 75 -15q124 0 204.5 83t80.5 229q0 153 -84 241t-246 88q-92 0 -100 -18q-10 -25 -10 -152v-852q0 -114 10 -147q4 -15 55 -24t82 -9q6 -8 6.5 -28.5t-6.5 -28.5q-205 10 -233 10q-31 0 -236 -10q-7 8 -6.5 28.5z" />
<glyph unicode="Q" horiz-adv-x="1492" d="M98 655q0 184 88 340.5t237 247t322 90.5q131 0 250.5 -50.5t208.5 -139t142 -216t53 -272.5q0 -225 -132 -404t-335 -243q56 -27 119 -64.5t97 -56.5t91.5 -34t130.5 -15q99 0 141 12q27 0 37 -14q2 -2 2 -6q-100 -52 -173.5 -77t-157.5 -25q-59 0 -121 21.5 t-120.5 55.5t-116.5 70t-131 71.5t-144 53.5q-214 54 -351 232t-137 423zM297 700q0 -94 20 -186.5t60.5 -176.5t97 -149t135 -103t168.5 -38q87 0 158.5 33.5t119.5 89.5t81 130.5t48 154.5t15 163q0 93 -20 185.5t-61 176t-98 147.5t-135.5 101.5t-168.5 37.5 q-87 0 -158.5 -33.5t-119 -88.5t-80.5 -129t-47.5 -153t-14.5 -162z" />
<glyph unicode="R" horiz-adv-x="1241" d="M83.5 22.5q0.5 20.5 6.5 28.5q31 0 83 9t56 24q11 36 11 147l-2 854q0 114 -11 150q-4 15 -54 23t-83 8q-6 8 -6.5 28.5t6.5 28.5q164 -8 236 -8q34 0 126.5 2t157.5 2q70 0 140.5 -23t130.5 -64.5t97.5 -109.5t37.5 -149q0 -103 -84 -199.5t-189 -132.5 q116 -193 324 -469q44 -59 94 -87t131 -34q6 -11 3.5 -31t-5.5 -26q-194 0 -264 24q-23 8 -37.5 14t-42.5 26t-49 48q-78 103 -317 474q-16 24 -62 24h-104v-373v-24q0 -94 8 -123q4 -15 56 -24t83 -9q6 -8 6.5 -28.5t-6.5 -28.5q-205 10 -233 10q-33 0 -238 -10 q-7 8 -6.5 28.5zM412 1083l2 -417h106q123 0 216 80.5t93 207.5q0 139 -74.5 219t-232.5 80q-92 0 -100 -18q-10 -25 -10 -152z" />
<glyph unicode="S" horiz-adv-x="1003" d="M98 348q25 25 52 25q18 0 22 -19q6 -29 17.5 -61.5t37.5 -78.5t60.5 -81t91.5 -60.5t125 -25.5q101 0 170 66.5t69 179.5q0 35 -7 63.5t-22.5 52.5t-31 41t-44 36t-48 30.5t-56 31.5t-57.5 32q-51 30 -69 41t-65.5 42t-68.5 49.5t-55 53t-49.5 64t-28 69.5t-12.5 82 q0 77 33 144t88 111.5t126 69.5t146 25q44 0 83 -5t63 -10.5t72.5 -18.5t82.5 -21q15 -96 29 -285q1 -9 -13 -14.5t-28 -5.5q-15 0 -23 8q-5 40 -25.5 87t-54.5 92.5t-87 75.5t-113 30q-47 0 -85 -14t-62 -36.5t-40.5 -52t-23 -59.5t-6.5 -60q0 -33 7.5 -62.5t25.5 -55.5 t34 -44.5t47.5 -42t50 -35.5t58 -36.5t55.5 -34.5q14 -9 69.5 -43t81 -51t71 -54.5t68 -68t41 -75.5t18.5 -93q0 -106 -60.5 -191t-155.5 -130t-202 -45q-61 0 -119.5 8.5t-146.5 29t-95 21.5q-17 79 -29 180.5t-12 128.5z" />
<glyph unicode="T" horiz-adv-x="1251" d="M25 1012q25 115 51 344q18 9 47 -6q56 -27 110 -27h783q24 0 62.5 9.5t58.5 19.5q23 11 37 4q24 -210 53 -344q-17 -17 -39 -15q-22 0 -29 11q-23 111 -71 177t-119 66h-254v-1020q0 -114 10 -147q4 -15 55 -24t82 -9q6 -8 6.5 -28.5t-6.5 -28.5q-205 10 -233 10 q-33 0 -238 -10q-7 8 -6.5 28.5t6.5 28.5q31 0 83 9t56 24q11 36 11 147v1020h-258q-72 0 -121 -66.5t-72 -176.5q-7 -11 -29 -11q-19 -2 -36 15z" />
<glyph unicode="U" horiz-adv-x="1445" d="M52.5 1294.5q-0.5 20.5 6.5 28.5q164 -8 236 -8q69 0 233 8q7 -8 6.5 -28.5t-6.5 -28.5q-33 0 -83 -8t-54 -23q-10 -33 -10 -150v-493q0 -245 98 -369q92 -114 275 -114q379 0 387 440v541q0 61 -3.5 88.5t-17.5 50.5q-8 14 -60.5 26.5t-82.5 12.5q-7 10 -7.5 29.5 t3.5 27.5q160 -8 221 -8q31 0 215 8q14 -24 0 -57q-30 0 -88.5 -11.5t-67.5 -27.5q-13 -22 -16.5 -49t-3.5 -88v-539q0 -147 -37.5 -255.5t-107.5 -175t-164 -98.5t-213 -32q-218 0 -357 133q-147 141 -147 377v583q0 117 -10 150q-4 15 -54.5 23t-83.5 8q-6 8 -6.5 28.5z " />
<glyph unicode="V" horiz-adv-x="1275" d="M-15 1293q0 27 3 30q184 -8 231 -8q88 0 248 8q3 -9 2.5 -32.5t-6.5 -24.5q-9 0 -26 -3t-40 -9.5t-39 -20.5t-16 -33q0 -34 37 -135q248 -675 297 -807q7 15 59 142.5t128.5 317t131.5 329.5q35 87 35 139q0 22 -16.5 38.5t-40 24.5t-43 11.5t-31.5 3.5q-7 3 -7 27.5 t7 31.5q148 -8 209 -8q35 0 195 8q4 -7 2 -32t-7 -25q-22 0 -63 -13t-64 -39q-33 -39 -100 -202q-123 -313 -389 -949q-29 -67 -76 -67q-4 0 -7 6t-6.5 15.5t-4.5 11.5q-300 791 -381 999q-56 140 -92 193q-15 22 -57 33.5t-70 11.5q-3 0 -3 27z" />
<glyph unicode="W" horiz-adv-x="1798" d="M-11 1293q0 27 3 30q184 -8 244 -8q55 0 215 8q3 -9 2 -32.5t-7 -24.5q-9 0 -25.5 -3t-39 -9.5t-38 -20.5t-15.5 -33q0 -14 30 -131q26 -94 114.5 -384t117.5 -388q49 161 162 514t141 446q9 28 31 47t41 19q9 0 22 -31q2 -6 37.5 -117.5t78 -245t100.5 -313t104 -315.5 q185 655 209 748q22 86 22 139q0 22 -17 38.5t-41.5 24.5t-44.5 11.5t-32 3.5q-7 3 -7 26.5t7 30.5q148 -8 217 -8q28 0 188 8q4 -7 2.5 -32t-6.5 -25q-17 0 -58.5 -14.5t-68.5 -37.5q-34 -29 -71 -151q-52 -178 -141.5 -495t-145.5 -505q-7 -27 -31 -47t-45 -20 q-5 0 -11.5 12t-8.5 21l-326 987q-52 -169 -148.5 -467t-152.5 -486q-7 -27 -32 -47t-46 -20q-10 0 -18 33q-63 201 -165.5 532.5t-156.5 503.5q-4 13 -11 36.5t-10 33.5t-9.5 26.5t-11.5 25.5t-12.5 20t-17.5 20q-20 18 -55 28.5t-59 10.5q-3 0 -3 27z" />
<glyph unicode="X" horiz-adv-x="1335" d="M-18 25q2 21 6 26q34 0 107 21t108 67q68 88 128.5 168.5t140 189t122.5 167.5l-281 432q-34 54 -63 84t-70 55q-24 14 -57.5 22.5t-54.5 8.5q-8 0 -8 25t8 32q196 -8 251 -8q96 0 256 8q4 -9 3.5 -33t-7.5 -24q-13 0 -31 -3t-39 -9.5t-35.5 -20t-14.5 -31.5 q0 -22 24 -59l232 -357q24 31 70.5 92.5t71.5 94.5t58 77.5t54.5 75.5t35.5 54q9 14 9 32q0 11 -9 21.5t-41 20.5t-84 10q-6 1 -7.5 25t3.5 34q133 -10 207 -10q101 0 219 10q5 -7 4.5 -29t-8.5 -30q-15 0 -40.5 -4.5t-68 -24.5t-69.5 -51q-209 -249 -367 -463l394 -590 q26 -39 82.5 -59.5t113.5 -20.5q5 -9 4.5 -30.5t-2.5 -26.5q-27 1 -67 4t-71.5 4.5t-68.5 1.5q-50 0 -95 -1.5t-102 -4.5t-95 -4q-8 8 -8 32.5t8 24.5q28 0 72 16.5t44 41.5q0 7 -10 22l-305 471q-88 -116 -197 -272t-133 -199q0 -1 -3 -7t-5 -12.5t-2 -11.5q0 -21 37.5 -35 t116.5 -14q6 -8 6.5 -30.5t-2.5 -26.5q-185 10 -226 10q-47 0 -247 -10q-4 10 -2 31z" />
<glyph unicode="Y" horiz-adv-x="1193" d="M-28 1291q0 25 8 32q196 -8 249 -8q96 0 256 8q4 -9 3.5 -33t-7.5 -24q-35 0 -77 -15.5t-42 -48.5q0 -20 23 -59l279 -481q67 120 149.5 286.5t110.5 231.5q6 18 6 30t-10 23t-43.5 21t-85.5 10q-4 0 -6 27t1 32q185 -10 199 -10q47 0 81.5 1.5t74.5 4.5t65 4 q3 -9 1.5 -34t-5.5 -25q-14 0 -29.5 -1.5t-47 -8t-58.5 -24.5t-43 -46q-70 -123 -317 -582q-9 -16 -9 -51v-10l-2 -310v-24q0 -90 9 -123q4 -15 56 -24t83 -9q6 -8 6.5 -28.5t-6.5 -28.5q-205 10 -234 10q-32 0 -237 -10q-7 8 -6.5 28.5t6.5 28.5q31 0 83 9t56 24 q10 33 10 147v304q0 27 -14 55q-63 113 -147.5 262t-137.5 244q-31 54 -59.5 83.5t-71.5 55.5q-24 14 -57.5 22.5t-54.5 8.5q-8 0 -8 25z" />
<glyph unicode="Z" horiz-adv-x="1265" d="M70 29l850 1222h-488q-100 0 -169.5 -68.5t-102.5 -193.5q-5 -8 -23 -8q-13 0 -29.5 5.5t-21.5 10.5q47 123 66 340q100 -14 163 -14h390q167 0 419 18q7 -2 21 -17t14 -26q-2 -7 -213.5 -314t-421.5 -610l-211 -304h523q115 0 186 71q16 16 30 35t26 44t18.5 38.5t18 44 t13.5 35.5q3 6 27 6q31 0 49 -18q-16 -55 -38 -125.5t-34.5 -112.5t-23.5 -88h-1002q-17 0 -29.5 10t-6.5 19z" />
<glyph unicode="[" horiz-adv-x="739" d="M299 -731v2140q0 28 20 41q6 4 19 4l305 12l6 -12v-6q0 -23 -16 -31l-2 -2q-74 -23 -236 -45v-2064l135 -21q69 -13 101 -24q18 -10 18 -33q0 -8 -2 -10l-2 -6l-2 -3l-178 11q-43 2 -127 2q-33 3 -39 47z" />
<glyph unicode="\" horiz-adv-x="704" d="M61 1419q6 19 27 19q23 0 41 -6q19 -6 29 -13t10 -10l508 -1776l-4 -4q-4 -4 -10 -6q-12 -4 -23 -4q-29 0 -51 16q-24 18 -27 29z" />
<glyph unicode="]" horiz-adv-x="739" d="M90 -772q0 21 21 33q33 12 100 24l133 21v2064q-157 21 -233 45q-3 2 -5 2q-16 8 -16 31v6l6 12l305 -12q15 0 21 -4q18 -12 18 -41v-2140q-6 -44 -39 -47q-82 0 -125 -2l-180 -11l-2 3l-2 6q-2 2 -2 10z" />
<glyph unicode="^" horiz-adv-x="778" d="M123 879q28 50 72.5 124t77.5 132t69 129q13 26 31 26q17 0 30 -26q36 -70 69.5 -129t77.5 -132t73 -124q0 -14 -10.5 -23.5t-20.5 -9.5q-41 43 -95.5 107.5t-88.5 107.5l-35 43q-127 -162 -219 -258q-10 0 -20.5 9.5t-10.5 23.5z" />
<glyph unicode="_" horiz-adv-x="1009" d="M29 -66q8 93 28 93h899q9 0 9 -11q0 -15 -21 -90q-2 -5 -5 -8t-5 -4h-2h-889q-14 0 -14 20z" />
<glyph unicode="`" horiz-adv-x="681" d="M231 1309q0 7 1.5 14t7.5 18.5t22.5 19t40.5 7.5q13 0 26.5 -3.5t20 -7t8.5 -5.5q48 -61 120.5 -165.5t72.5 -113.5q0 -26 -16 -26q-11 0 -85.5 51.5t-146.5 116.5t-72 94z" />
<glyph unicode="a" horiz-adv-x="860" d="M74 213q0 57 32 102.5t68 59.5q41 15 123 42.5t142 49t85 33.5q16 6 20.5 15t4.5 36v53q0 71 -50.5 132t-121.5 61q-50 0 -75 -31t-36 -94q-17 -97 -94 -97q-31 0 -49.5 25.5t-18.5 58.5q0 7 5 25t10 25q61 57 163 110t199 53q88 0 153.5 -80t65.5 -194v-412 q0 -94 62 -94q10 0 20 2.5t17.5 6t12.5 7t9.5 7.5t5.5 4q9 0 9 -17q0 -21 -11 -39q-24 -22 -72 -48.5t-77 -26.5q-41 0 -76 41t-45 90q-29 -29 -115.5 -82t-132.5 -53q-98 0 -165.5 66t-67.5 163zM240 231q0 -56 39.5 -97.5t95.5 -41.5q49 0 111.5 32.5t62.5 49.5v272 q-154 -46 -187 -59q-122 -49 -122 -156z" />
<glyph unicode="b" horiz-adv-x="995" d="M7.5 1294.5q0.5 13.5 4.5 14.5q144 14 285 80q7 0 14.5 -11t7.5 -22q-22 -63 -22 -174v-394v-9t1.5 -8.5t3.5 -5t7 2.5q41 31 117 70t125 39q69 0 130 -25t103.5 -67t73 -95t45.5 -110.5t15 -112.5q0 -130 -64 -240t-178.5 -175.5t-253.5 -65.5q-40 0 -148 30q-3 1 -8 2 t-8 2q-45 15 -77 15q-20 0 -36 -6q-7 0 -16.5 17t-9.5 26q24 55 24 147v897q0 80 -10 105q-14 34 -123 34q-1 0 -2 13t-0.5 26.5zM297 197q0 -62 58 -103t128 -41q105 0 186 105t81 229q0 172 -80 271.5t-215 99.5q-35 0 -84 -19t-64 -34q-10 -10 -10 -23v-485z" />
<glyph unicode="c" horiz-adv-x="845" d="M78 387q0 105 46.5 199.5t118 156.5t156.5 98t164 36q109 0 180 -50q7 -7 14 -24t7 -31q0 -49 -22.5 -72.5t-53.5 -23.5q-19 0 -39.5 12.5t-43.5 33.5t-34 28q-34 23 -54.5 30.5t-57.5 7.5q-86 0 -156 -92t-70 -241q0 -167 90.5 -252.5t233.5 -85.5q73 0 127.5 32 t85.5 68q1 0 5 -3t7.5 -10t3.5 -14q0 -16 -12 -36q-17 -26 -40.5 -51.5t-60 -54t-87 -46.5t-105.5 -18q-117 0 -210.5 57.5t-143 149t-49.5 196.5z" />
<glyph unicode="d" horiz-adv-x="1028" d="M78 412q0 93 49 182t122 149.5t155.5 97t150.5 36.5q31 0 76 -7.5t61 -13.5q10 0 10 41v219q0 80 -10 105q-14 34 -123 34q-1 0 -2 13t-0.5 26.5t4.5 14.5q144 14 285 80q7 0 15 -11t8 -22q-23 -63 -23 -174v-856q0 -163 14 -197q2 -5 6 -9.5t10 -7.5t11.5 -5.5 t14.5 -4.5t14 -3t15 -2t13 -1.5t13 -1.5h10h10q6 -3 6 -24q0 -6 -4 -17.5t-10 -11.5q-29 -2 -66.5 -8.5t-70 -14.5t-60.5 -15.5t-46 -12.5l-17 -6q-8 0 -12.5 13t-4.5 26v69q-2 13 -6 12q-30 -32 -116 -76t-150 -44q-140 0 -246 124.5t-106 303.5zM246 461q0 -148 75.5 -250 t206.5 -102q65 0 119.5 26.5t54.5 52.5v506q0 35 -65.5 67t-147.5 32q-109 0 -176 -99.5t-67 -232.5z" />
<glyph unicode="e" horiz-adv-x="858" d="M80 399q0 97 36.5 187.5t94 153t127 100t135.5 37.5q68 0 123 -21t87 -52t53.5 -69.5t29.5 -71t8 -59.5q0 -46 -10.5 -69.5t-38.5 -24.5q-40 -3 -258.5 -8.5t-245.5 -5.5v-15q-1 -172 91 -268q96 -100 237 -100q73 0 130 34t89 70q1 0 5 -3t7.5 -10t3.5 -14 q0 -16 -12 -36q-17 -26 -40.5 -51.5t-60 -54t-87 -46.5t-105.5 -18q-175 0 -287 118t-112 297zM231 569h326q44 0 47 47q1 20 -8 49.5t-26.5 62t-52 55t-77.5 22.5q-47 0 -86 -24.5t-61.5 -59t-37.5 -69t-20.5 -59t-3.5 -24.5z" />
<glyph unicode="f" horiz-adv-x="614" d="M50.5 22.5q0.5 20.5 6.5 28.5q30 0 75.5 9t49.5 24q11 36 11 147v525h-117q-8 0 -8 18q0 5 22 31t29 33h74v39q0 104 36.5 203t90.5 166t113 108t106 41q22 0 34.5 -0.5t24 -5t15.5 -7l20 -12.5q7 -7 13.5 -24t6.5 -31q0 -80 -80 -80q-21 0 -59 20q-4 2 -12 6.5 t-10.5 5.5t-9 3.5t-12 3t-13.5 0.5q-48 0 -80 -50q-31 -48 -31 -134v-5v-247h238q8 0 8 -17v-6q0 -32 -27 -59h-219v-525q0 -114 10 -147q4 -15 54.5 -24t81.5 -9q6 -8 6.5 -28.5t-6.5 -28.5q-205 10 -224 10q-35 0 -67 -1.5t-74 -4.5t-70 -4q-7 8 -6.5 28.5z" />
<glyph unicode="g" horiz-adv-x="931" d="M45 -211q0 31 22.5 64t59.5 61.5t68 47.5t63 36q-63 21 -113.5 69.5t-50.5 116.5q23 27 79.5 69.5t92.5 65.5q-73 40 -119.5 111t-46.5 145q0 121 98 212.5t240 91.5q24 0 47.5 -3t44.5 -9t34 -10.5t33 -12.5t24 -10q37 -13 45 -15l215 31q18 -5 18 -21q0 -13 -15.5 -43 t-29.5 -38l-131 8q-8 0 -8 -6q13 -13 34 -68t21 -115q0 -109 -99.5 -201t-238.5 -92q-25 0 -61 6.5t-52 12.5q-30 -16 -51.5 -40.5t-21.5 -47.5q0 -20 34 -46t87 -26h235q120 0 214.5 -62.5t94.5 -146.5q0 -61 -42.5 -128t-112 -122.5t-167 -91.5t-198.5 -37h-6 q-82 0 -156 25q-77 26 -130.5 83.5t-53.5 135.5zM205 -152q0 -99 71 -162t195 -63q106 0 204.5 67t98.5 148q0 53 -68 103.5t-196 50.5q-168 0 -186 -10q-45 -27 -82 -63.5t-37 -70.5zM254 584q0 -99 52 -174.5t140 -75.5q79 0 124.5 68.5t45.5 158.5q0 103 -49 179.5 t-137 76.5q-82 0 -129 -70t-47 -163z" />
<glyph unicode="h" horiz-adv-x="1030" d="M36.5 22.5q0.5 20.5 6.5 28.5q30 0 75.5 9t49.5 24q10 33 10 147v885q0 80 -10 105q-14 34 -121 34q-1 0 -2 13t-0.5 26.5t4.5 14.5q141 14 283 80q7 0 14.5 -11t7.5 -22q-22 -63 -22 -174v-453q0 -4 6 -4q2 0 6 4q44 46 125.5 97t144.5 51q64 0 109.5 -17t74.5 -48 t45.5 -84.5t22.5 -118t6 -156.5v-222q0 -111 11 -147q4 -15 50.5 -24t76.5 -9q6 -8 6.5 -28.5t-6.5 -28.5q-205 10 -215 10q-35 0 -67 -1.5t-74 -4.5t-70 -4q-7 8 -6.5 28.5t6.5 28.5q30 0 75.5 9t49.5 24q10 33 10 147v201q0 188 -40.5 258t-156.5 70q-34 0 -80.5 -24 t-78 -50.5t-31.5 -36.5v-418q0 -114 10 -147q4 -15 50.5 -24t76.5 -9q6 -8 6.5 -28.5t-6.5 -28.5q-205 10 -215 10q-35 0 -67 -1.5t-74 -4.5t-70 -4q-7 8 -6.5 28.5z" />
<glyph unicode="i" horiz-adv-x="538" d="M65.5 22.5q0.5 20.5 6.5 28.5q30 0 76.5 9t50.5 24q10 33 10 147v373q0 80 -10 105q-14 34 -129 34q-4 4 -4.5 25t4.5 29q172 24 284 84q7 0 15 -12.5t8 -20.5q-15 -105 -15 -131v-486q0 -111 11 -147q4 -15 49.5 -24t75.5 -9q6 -8 6.5 -28.5t-6.5 -28.5q-205 10 -213 10 t-213 -10q-7 8 -6.5 28.5zM170 1186q0 41 29.5 70.5t70.5 29.5t71 -29.5t30 -70.5t-30 -71t-71 -30t-70.5 30t-29.5 71z" />
<glyph unicode="j" horiz-adv-x="477" d="M-36 -424.5q0 4.5 1 6.5q41 29 67.5 52.5t58.5 66t50 91.5t30.5 125.5t12.5 172.5v514q0 80 -10 105q-14 34 -131 34q-4 4 -4.5 25t4.5 29q176 24 287 84q7 0 14.5 -12.5t7.5 -20.5q-14 -98 -14 -131v-582q0 -110 -23.5 -204.5t-59 -157t-84 -113t-91 -77.5t-88.5 -46 q-19 12 -27 31q-1 3 -1 7.5zM131 1186q0 41 29.5 70.5t70.5 29.5t71 -29.5t30 -70.5t-30 -71t-71 -30t-70.5 30t-29.5 71z" />
<glyph unicode="k" horiz-adv-x="1034" d="M36.5 22.5q0.5 20.5 6.5 28.5q30 0 75.5 9t49.5 24q10 33 10 147v885q0 80 -10 105q-14 34 -121 34q-1 0 -2 13t-0.5 26.5t4.5 14.5q141 14 283 80q7 0 14.5 -11t7.5 -22q-22 -63 -22 -174v-713q33 11 166 123q24 20 58 48t52 43.5t37 32t27 26.5t8 16t-4 11.5t-11.5 9 t-15.5 6t-18.5 4t-18 2t-16 1.5t-10.5 1q-7 11 -6.5 32.5t8.5 24.5q95 -10 192 -10q104 0 176 10q6 -9 5.5 -30t-5.5 -27q-27 0 -75.5 -13.5t-77.5 -34.5q-41 -29 -144.5 -106t-179.5 -141q56 -60 144 -157.5t142 -157t75 -77.5q34 -30 86 -44q45 -12 85 -11h11 q3 -5 4.5 -22t-2.5 -25q-28 -12 -129 -12q-80 0 -148.5 28.5t-97.5 59.5q-172 184 -287 309q-4 4 -11.5 9t-12.5 8l-6 2v-177q0 -114 10 -147q4 -15 50.5 -24t76.5 -9q6 -8 6.5 -28.5t-6.5 -28.5q-205 10 -215 10q-35 0 -67 -1.5t-74 -4.5t-70 -4q-7 8 -6.5 28.5z" />
<glyph unicode="l" horiz-adv-x="509" d="M36.5 22.5q0.5 20.5 6.5 28.5q30 0 75.5 9t49.5 24q10 33 10 147v885q0 80 -10 105q-14 34 -121 34q-1 0 -2 13t-0.5 26.5t4.5 14.5q141 14 283 80q7 0 14.5 -11t7.5 -22q-22 -63 -22 -174v-951q0 -114 10 -147q4 -15 50.5 -24t76.5 -9q6 -8 6.5 -28.5t-6.5 -28.5 q-205 10 -215 10q-35 0 -67 -1.5t-74 -4.5t-70 -4q-7 8 -6.5 28.5z" />
<glyph unicode="m" horiz-adv-x="1579" d="M65.5 22.5q0.5 20.5 6.5 28.5q30 0 76.5 9t50.5 24q10 33 10 147v365q0 88 -10 113q-14 34 -129 34q-4 4 -4.5 25t4.5 29q172 24 284 84q7 0 15 -12.5t8 -20.5q-12 -84 -12 -105q0 -8 4 -8q2 0 6 4q41 36 68.5 58t86.5 51t109 29q92 0 147.5 -39t79.5 -127 q183 166 295 166q64 0 109.5 -17t74.5 -48t45.5 -84.5t22.5 -118t6 -156.5v-222q0 -111 11 -147q4 -15 49.5 -24t74.5 -9q6 -8 6.5 -28.5t-6.5 -28.5q-205 10 -213 10t-213 -10q-7 8 -6.5 28.5t6.5 28.5q30 0 76.5 9t50.5 24q9 33 9 123v24v215q0 82 -6.5 134.5t-26 96 t-57.5 63.5t-97 20q-44 0 -92.5 -26.5t-76 -53t-27.5 -35.5q0 -1 1 -11.5t1 -12.5q8 -52 8 -144v-246q0 -114 10 -147q4 -15 49.5 -24t75.5 -9q6 -8 6.5 -28.5t-6.5 -28.5q-205 10 -213 10t-213 -10q-7 8 -6.5 28.5t6.5 28.5q30 0 76.5 9t50.5 24q10 33 10 147v205 q0 183 -40.5 253.5t-147.5 70.5q-42 0 -87.5 -22.5t-72.5 -48.5t-27 -40v-418q0 -111 11 -147q4 -15 49.5 -24t75.5 -9q6 -8 6.5 -28.5t-6.5 -28.5q-205 10 -213 10t-213 -10q-7 8 -6.5 28.5z" />
<glyph unicode="n" horiz-adv-x="1062" d="M65.5 22.5q0.5 20.5 6.5 28.5q30 0 76.5 9t50.5 24q10 33 10 147v365q0 88 -10 113q-14 34 -129 34q-4 4 -4.5 25t4.5 29q172 24 284 84q7 0 15 -12.5t8 -20.5q-12 -84 -12 -115q0 -8 4 -8q2 0 6 4q44 46 125.5 97t144.5 51q64 0 109.5 -17t74.5 -48t45.5 -84.5 t22.5 -118t6 -156.5v-222q0 -114 10 -147q4 -15 49.5 -24t75.5 -9q6 -8 6.5 -28.5t-6.5 -28.5q-205 10 -213 10t-213 -10q-7 8 -6.5 28.5t6.5 28.5q30 0 76.5 9t50.5 24q11 36 11 147v201q0 188 -40.5 258t-156.5 70q-34 0 -81 -24t-78.5 -50.5t-31.5 -36.5v-418 q0 -111 11 -147q4 -15 49.5 -24t75.5 -9q6 -8 6.5 -28.5t-6.5 -28.5q-205 10 -213 10t-213 -10q-7 8 -6.5 28.5z" />
<glyph unicode="o" horiz-adv-x="1017" d="M82 426q0 193 122 323t304 130q195 0 311.5 -123t116.5 -314q0 -194 -121.5 -325t-302.5 -131q-195 0 -312.5 124.5t-117.5 315.5zM254 467q0 -101 31 -194t96 -157.5t151 -64.5q81 0 135 52t75.5 126.5t21.5 165.5q0 74 -19 147.5t-53.5 133.5t-88.5 97.5t-118 37.5 q-61 0 -107.5 -29t-72.5 -79t-38.5 -109t-12.5 -127z" />
<glyph unicode="p" horiz-adv-x="1019" d="M28.5 768q-0.5 21 4.5 29q174 24 286 84q7 0 14 -12.5t7 -20.5q0 -1 -7 -36.5t-7 -45.5q0 -8 4 -8q2 0 6 4q45 39 118.5 77t127.5 38q71 0 132 -26.5t102 -69t70 -97t42.5 -110.5t13.5 -109q0 -94 -41.5 -183.5t-107.5 -154t-150.5 -104t-167.5 -39.5q-68 0 -141 22 q-8 -10 -8 -26v-193q0 -116 10 -149q4 -15 50 -23t77 -8q6 -8 6.5 -30t-6.5 -30q-29 1 -71 4t-75.5 5t-68.5 2q-34 0 -67 -2t-73.5 -5t-70.5 -4q-7 8 -6.5 30t6.5 30q31 0 76 8t49 23q10 33 10 149v817q0 80 -10 105q-14 34 -129 34q-4 4 -4.5 25zM326 201q0 -48 33 -83.5 t73.5 -50t79.5 -14.5q79 0 140.5 51t91.5 126.5t30 158.5q0 172 -79.5 270.5t-198.5 98.5q-59 0 -114.5 -27.5t-55.5 -50.5v-479z" />
<glyph unicode="q" horiz-adv-x="993" d="M78 397q0 99 47 190t119.5 153.5t159.5 99.5t167 37q29 0 117.5 -26t122.5 -26q21 0 39 6q8 0 17.5 -17t9.5 -26q-25 -57 -25 -149v-854q0 -117 10 -150q4 -15 48.5 -22.5t76.5 -7.5q6 -8 6.5 -30t-6.5 -30q-16 1 -91.5 6t-121.5 5q-34 0 -67.5 -2t-74.5 -5t-71 -4 q-7 8 -6.5 30t6.5 30q32 0 77.5 7.5t49.5 22.5q10 33 10 150v295q0 10 -3.5 17.5t-10.5 2.5q-36 -31 -115 -72.5t-135 -41.5q-82 0 -151.5 39t-113 100t-67.5 132.5t-24 139.5zM246 469q0 -172 82 -267.5t211 -95.5q57 0 108 27.5t51 52.5v478q0 61 -57.5 101t-128.5 40 q-67 0 -120.5 -34.5t-83.5 -88t-46 -109t-16 -104.5z" />
<glyph unicode="r" horiz-adv-x="765" d="M65.5 22.5q0.5 20.5 6.5 28.5q30 0 76.5 9t50.5 24q10 33 10 147v373q0 80 -10 105q-14 34 -129 34q-4 4 -4.5 25t4.5 29q172 24 284 84q7 0 15 -12.5t8 -20.5q-2 -13 -8.5 -90.5t-6.5 -93.5q0 -4 2 -5.5t4 -1t3 1.5q34 75 103.5 145t131.5 70q38 0 73.5 -17t49.5 -42 q8 -24 8 -53q0 -49 -23.5 -77t-43.5 -28q-13 0 -25 6t-27.5 17.5t-21.5 15.5q-38 25 -74 25q-58 0 -109 -68.5t-51 -111.5v-310q0 -111 11 -147q4 -15 70 -24t102 -9q6 -8 6.5 -28.5t-6.5 -28.5q-205 10 -248 10q-20 0 -225 -10q-7 8 -6.5 28.5z" />
<glyph unicode="s" horiz-adv-x="737" d="M82 223q17 13 37 13q9 0 16 -5q21 -70 82 -129t135 -59q63 0 103.5 38t40.5 105q0 35 -12.5 63.5t-41.5 52.5t-51.5 38t-70 39t-68.5 37q-152 86 -152 215q0 106 87 174.5t202 68.5q45 0 112 -11.5t93 -14.5q20 -89 24 -219q0 -11 -20 -11q-21 0 -35 11 q-18 67 -63.5 124.5t-104.5 57.5q-69 0 -105 -34.5t-36 -90.5q0 -25 8 -47t16 -35.5t30.5 -31t33 -24.5t43.5 -25.5t43 -24.5q9 -5 35 -20t39 -23t37.5 -24t37.5 -27.5t30.5 -30t27 -35.5t16 -39t6.5 -45q0 -119 -91 -198t-216 -79q-41 0 -77 5.5t-82 17t-74 16.5 q-12 32 -23.5 100.5t-11.5 106.5z" />
<glyph unicode="t" horiz-adv-x="620" d="M41 801q0 5 22 30t29 33h74v125q14 16 46.5 51t53.5 58t23 26q5 5 12 7t12.5 0.5t5.5 -5.5v-262h259q10 0 10 -22q0 -31 -29 -60h-240v-524q0 -80 34 -122t100 -42t129 45q6 -3 6 -12q0 -23 -8 -31q-97 -110 -205 -110q-41 0 -76 10t-66 33.5t-49 67.5t-18 106v579h-117 q-8 0 -8 19z" />
<glyph unicode="u" horiz-adv-x="1028" d="M27.5 812.5q-0.5 19.5 5.5 27.5q166 7 274 41q7 0 15 -16t8 -25q-15 -30 -15 -138v-294q0 -160 48.5 -235t152.5 -75q64 0 123 37.5t59 73.5v430v8q0 72 -14 101q-22 40 -113 40q-5 5 -5.5 24.5t5.5 27.5q167 7 275 41q7 0 13.5 -20t6.5 -30q-12 -24 -12 -129v-419 q0 -99 12 -154q2 -7 6.5 -12.5t13.5 -9t16 -5.5t19.5 -3.5t18.5 -2.5t18.5 -1.5t14.5 -0.5h12q6 -3 6 -22q0 -6 -5 -18.5t-11 -12.5q-29 -2 -66.5 -8.5t-70 -14.5t-60.5 -15.5t-46 -12.5l-17 -6q-7 0 -12 10.5t-5 21.5v93l-4 10q-46 -49 -128.5 -91t-153.5 -42 q-61 0 -107.5 26t-73 65.5t-42.5 95t-21.5 105.5t-5.5 107v254q0 76 -17 109q-22 40 -112 40q-5 5 -5.5 24.5z" />
<glyph unicode="v" horiz-adv-x="944" d="M4 803q-11 29 0 57q29 -1 66.5 -4t68 -4.5t66.5 -1.5q34 0 64.5 1.5t69.5 4.5t67 4q4 -9 1 -33t-10 -24q-9 0 -22 -1.5t-31.5 -4.5t-31.5 -10.5t-13 -18.5q0 -4 2 -8l219 -541q102 267 178 455q13 32 13 63q0 30 -32.5 48t-84.5 18q-8 0 -8 24.5t8 32.5q20 -1 47.5 -4 t52.5 -4.5t62 -1.5q34 0 61 1.5t61 4.5t64 4q6 -9 3 -33t-9 -24q-24 0 -66.5 -17.5t-58.5 -52.5q-211 -503 -301 -721q-4 -11 -22.5 -23t-28.5 -12q-15 0 -19 9q-46 110 -111 274t-115 283t-99 219q-20 41 -107 41h-4z" />
<glyph unicode="w" horiz-adv-x="1441" d="M0 831.5q0 19.5 4 28.5q30 -1 66.5 -4t66.5 -4.5t66 -1.5q34 0 64.5 1.5t69 4.5t66.5 4q3 -9 2.5 -31.5t-6.5 -25.5q-10 0 -23 -1.5t-32.5 -5.5t-32 -14.5t-12.5 -25.5q0 -4 10 -31q71 -179 205 -492q24 61 55 139t47 117.5t31.5 80.5t22 59.5t6.5 23.5q0 12 -14.5 48 t-32.5 63q-27 39 -88 39q-7 5 -7 27t7 30q25 -1 80 -5.5t102 -4.5q7 0 207 10q4 -11 4 -31.5t-6 -25.5q-99 0 -99 -66q0 -7 5 -20q13 -43 182 -477q156 390 176 448q10 29 10 47q0 20 -11 33.5t-32.5 20.5t-36.5 9.5t-39 4.5q-6 5 -6.5 27t6.5 30q28 -1 77.5 -5.5t96.5 -4.5 q34 0 60.5 1.5t59.5 4.5t63 4q3 -3 2.5 -27t-8.5 -30q-26 0 -73 -18t-63 -56q-198 -496 -290 -717q-4 -12 -18 -23.5t-23 -11.5q-21 0 -25 9l-221 577l-217 -547q-3 -8 -18.5 -23.5t-30.5 -15.5t-19 9q-183 453 -323 772q-19 45 -109 45q-4 9 -4 28.5z" />
<glyph unicode="x" horiz-adv-x="950" d="M21.5 25q1.5 19 5.5 26q3 0 24 3.5t26.5 4.5t24.5 5t27.5 7t24 9t24.5 12.5t20 16t19 20.5q185 269 195 283l-232 346q-16 22 -56.5 33.5t-78.5 11.5q-2 0 -2.5 11.5t0.5 25.5t4 20q110 -10 199 -10q90 0 203 10q2 -5 2 -27t-7 -30q-79 0 -79 -35q0 -8 10 -25l131 -208 q17 27 57 83t62 92t22 54q0 33 -92 39h-6h-12q-3 2 -3.5 26.5t3.5 30.5q29 -1 66 -4t67.5 -4.5t66.5 -1.5q89 0 162 10q2 -8 1.5 -32.5t-3.5 -24.5q-126 -6 -156 -45q-30 -41 -77 -108t-80 -114t-41 -57l239 -354q53 -74 154 -74q2 0 2.5 -12.5t-0.5 -26.5t-4 -18 q-26 1 -62 4t-65 4.5t-62 1.5q-38 0 -72 -1.5t-77 -4.5t-72 -4q-4 10 -3.5 33.5t5.5 23.5q30 2 57 11t27 26q0 4 -4 12q-104 170 -157 250q-120 -175 -146 -217q-10 -16 -10 -37q0 -13 8 -21.5t25.5 -13t29 -6t34.5 -3.5q8 -1 11 -1q2 0 3 -12t0 -26t-5 -19q-28 1 -62.5 4 t-62.5 4.5t-63 1.5q-34 0 -62.5 -1.5t-63.5 -4.5t-62 -4q-3 12 -1.5 31z" />
<glyph unicode="y" horiz-adv-x="937" d="M-1 830q0 27 3 30q97 -10 201 -10q113 0 200 10q4 -9 1.5 -33t-9.5 -24q-9 0 -22 -1.5t-31.5 -4.5t-31.5 -10.5t-13 -18.5q0 -4 2 -8l213 -541q100 267 176 455q12 30 12 63q0 30 -31 48t-83 18q-8 0 -8 24.5t8 32.5q78 -10 180 -10q66 0 168 10q6 -9 3 -33t-9 -24 q-24 0 -67.5 -17.5t-59.5 -52.5q-127 -302 -299 -721q-10 -26 -34.5 -89.5t-38 -97.5t-38 -83t-49.5 -86q-35 -52 -80.5 -82.5t-93.5 -30.5q-86 0 -86 86q0 34 22 60q82 0 126.5 18.5t101.5 93.5q21 29 54.5 105t39.5 98q-16 41 -53 135.5t-53 135t-47 117.5t-52 126.5 t-50 115.5t-58 128q-20 41 -107 41h-4q-3 0 -3 27z" />
<glyph unicode="z" horiz-adv-x="892" d="M68 41q0 10 2 12l514 740l-281 2q-27 0 -50 -8.5t-36.5 -19.5t-26 -29.5t-17.5 -30.5t-12 -31t-9 -23q-8 -16 -43 -16q-23 0 -23 4q25 97 33 238q106 -17 178 -17h256q105 0 244 17q11 -16 6 -43v-7q-531 -753 -531 -759h281q85 0 141.5 53t77.5 127q2 12 14 12t28 -7.5 t24 -16.5q-59 -146 -90 -238h-650q-11 3 -20.5 16t-9.5 25z" />
<glyph unicode="{" horiz-adv-x="813" d="M291 307v66q155 94 137 229q-8 56 -66 213q-57 155 -57 277q6 261 164 395q25 22 47 0q21 -24 2 -49q-138 -153 -129 -299q6 -78 64 -176q99 -164 71 -357q-27 -180 -151 -266q124 -89 151 -266q27 -193 -71 -357q-58 -98 -64 -178q-9 -144 131 -299q18 -25 -4 -47 q-23 -23 -47 -2q-161 137 -164 397q-3 124 57 277q58 156 66 213q18 135 -137 229z" />
<glyph unicode="|" horiz-adv-x="409" d="M154 -778l2 6v2206l2 12q1 1 4 2t4 2q43 14 74 14q16 0 16 -12v-2208q0 -17 -84 -32h-6q-12 0 -12 6v4z" />
<glyph unicode="}" horiz-adv-x="813" d="M291 74q27 177 151 266q-124 86 -151 266q-28 196 69 357q60 102 66 176q9 144 -131 299q-19 25 2 49q22 22 47 0q160 -136 166 -395q0 -117 -59 -277q-58 -157 -66 -213q-18 -134 139 -229v-66q-157 -95 -139 -229q8 -57 66 -213q62 -157 59 -277q-3 -259 -166 -397 q-24 -21 -47 2q-21 21 -2 47q140 155 131 299q-6 76 -66 178q-97 161 -69 357z" />
<glyph unicode="~" horiz-adv-x="1138" d="M113 553q0 54 89 105t171 51q44 0 91.5 -10t69 -17.5t76.5 -28.5q132 -51 234 -51q14 0 28 2.5t24.5 5t24 9t21 10.5t21.5 14t19.5 14t21 16.5t20.5 16.5q18 -9 18 -35q0 -51 -82.5 -103t-173.5 -52q-66 0 -119.5 14t-123.5 41q-132 51 -232 51q-86 0 -182 -88 q-16 8 -16 35z" />
<glyph unicode="&#xa1;" horiz-adv-x="428" d="M106 748q0 45 31.5 78.5t75.5 33.5t78.5 -34t34.5 -78t-34 -76.5t-79 -32.5q-44 0 -75.5 32.5t-31.5 76.5zM119 -330q0 45 67 824q7 14 12.5 19.5t18.5 6.5q23 -9 29 -22q59 -655 59 -828q0 -45 -26.5 -80.5t-71.5 -35.5q-42 0 -65 36t-23 80z" />
<glyph unicode="&#xa2;" horiz-adv-x="890" d="M90 387q0 99 40.5 187.5t105.5 150t142 100.5t154 49l13 70h6q49 0 49 -12l-8 -55q99 -3 164 -50q7 -7 13.5 -24t6.5 -31q0 -49 -22.5 -72.5t-53.5 -23.5q-19 0 -39 12.5t-43 33.5t-34 28q-2 1 -6.5 4t-6.5 4l-102 -629q49 -12 100 -12q73 0 127.5 32t85.5 68q1 0 5 -3 t8 -10t4 -14q0 -14 -13 -36q-17 -26 -40.5 -51.5t-60 -54t-86.5 -46.5t-105 -18q-32 0 -48 2l-12 -76q-55 0 -55 14l12 72q-136 35 -218.5 145t-82.5 246zM246 455q0 -230 170 -308l102 637q-24 4 -47 4q-86 0 -155.5 -92t-69.5 -241z" />
<glyph unicode="&#xa3;" horiz-adv-x="952" d="M88 33q0 55 100 155q43 43 76 123.5t33 151.5q0 6 -21 149h-165q-9 9 11 40.5t34 31.5h108q-14 86 -14 115q-3 99 29.5 188.5t86.5 151t123.5 97.5t139.5 36q49 0 76.5 -10t66.5 -37q7 -7 14 -25.5t7 -32.5q0 -49 -22.5 -72.5t-53.5 -23.5q-15 0 -31 8.5t-26 17.5 t-27 26.5t-23 23.5q-23 21 -35.5 27t-33.5 6q-50 0 -82 -38t-44 -94t-12 -130q0 -76 27 -234h332q15 -11 11 -27t-13 -28t-17 -17h-301q4 -46 4 -67q0 -98 -61 -198t-117 -152q33 16 70 16q36 0 71 -14.5t61 -32.5t74.5 -32.5t108.5 -14.5q39 0 75 19t61.5 49t40 52t24.5 42 q1 0 7.5 -4.5t13 -13t6.5 -15.5q0 -10 -7 -31q-10 -27 -34.5 -63t-61 -75.5t-89 -66t-107.5 -26.5q-57 0 -111.5 18t-89 39t-75.5 39t-75 18q-27 0 -46 -19.5t-35.5 -49.5t-28.5 -41q-12 0 -22.5 15.5t-10.5 29.5z" />
<glyph unicode="&#xa4;" horiz-adv-x="1146" d="M156 307l108 103q-59 89 -59 204q0 130 76 232l-105 112q-8 8 4.5 25t36.5 33.5t47 23.5l105 -110q85 61 202 61q128 0 226 -82l116 111q8 8 25 -4.5t33.5 -36.5t23.5 -47l-118 -113q57 -91 57 -205q0 -123 -66 -217l109 -114q8 -8 -4.5 -25t-36.5 -33.5t-47 -23.5 l-105 108q-95 -69 -213 -69q-129 0 -227 79l-106 -100q-8 -8 -25 4.5t-33.5 36.5t-23.5 47zM350 639q0 -137 71 -236.5t167 -99.5q90 0 146.5 84t56.5 201q0 138 -70 238t-166 100q-90 0 -147.5 -85.5t-57.5 -201.5z" />
<glyph unicode="&#xa5;" horiz-adv-x="1343" d="M52 1247.5q0 24.5 7 32.5q34 -1 82 -4t86 -4.5t82 -1.5q56 0 256 10q4 -9 3.5 -33t-7.5 -24q-35 0 -77 -16.5t-42 -49.5q0 -20 23 -59l278 -475q73 131 159 299t106 219q6 18 6 28q0 8 -12.5 19t-49.5 22t-88 11q-4 0 -5.5 26.5t1.5 30.5q185 -10 205 -10q47 0 81.5 1.5 t74.5 4.5t65 4q3 -9 1.5 -33t-5.5 -24q-14 0 -29.5 -1.5t-47 -8t-58.5 -24.5t-43 -46q-35 -62 -316 -584q-10 -20 -10 -47h191q15 -11 11 -27.5t-13 -29t-17 -17.5h-172v-86h191q15 -11 11 -27.5t-13 -29t-17 -17.5h-174v-45q0 -114 10 -147q4 -15 55.5 -24t82.5 -9 q6 -8 6.5 -28.5t-6.5 -28.5q-205 10 -234 10q-32 0 -237 -10q-7 8 -6.5 28.5t6.5 28.5q31 0 83 9t56 24q10 33 10 147v45h-196q-9 9 8.5 41.5t31.5 32.5h156v86h-196q-9 9 8.5 41.5t31.5 32.5h154q-3 19 -12 37q-63 113 -147.5 262t-137.5 244q-31 53 -59.5 82t-71.5 55 q-25 14 -59 23.5t-54 9.5q-7 0 -7 24.5z" />
<glyph unicode="&#xa6;" horiz-adv-x="409" d="M150 209q-3 11 10 14q38 10 78 10q10 0 12 -2q4 -4 4 -6v-981q0 -10 -43 -20q-45 -10 -51 -10q-2 0 -4.5 1t-3.5 1l-2 2v991zM150 485v959q-3 13 10 16q38 10 78 10q8 0 12 -4t4 -6v-950q0 -11 -43 -21q-45 -10 -51 -10q-2 0 -4.5 1t-3.5 1z" />
<glyph unicode="&#xa7;" horiz-adv-x="880" d="M76 793q0 90 81.5 214.5t161.5 194.5q110 105 289 105q41 0 82 -17q12 -24 12 -53q0 -22 -23.5 -47t-47.5 -25q-12 0 -24 3t-18 5.5t-17.5 9t-14.5 7.5q-32 16 -63 16q-34 0 -69.5 -10.5t-64 -36.5t-28.5 -61q0 -61 74.5 -153.5t168.5 -178.5q46 -43 81.5 -82t73.5 -92 t58.5 -113t20.5 -121q0 -90 -82 -214t-162 -195q-105 -105 -289 -105q-40 0 -81 17q-13 26 -13 51q0 22 24 47t48 25q12 0 23.5 -3t17.5 -5.5t16.5 -8.5t14.5 -8q28 -14 63 -14q57 0 110.5 27.5t53.5 78.5q0 61 -75.5 154t-170.5 180q-231 213 -231 408zM184 881 q0 -196 224 -402q5 -4 32.5 -29.5t36.5 -33.5t34 -32.5t35 -37.5t29.5 -37t28.5 -41.5t20 -40.5t15 -46t4 -46q0 -25 -2 -35q22 37 31 54t18.5 49t9.5 67q0 194 -225 400q-5 4 -32.5 29.5t-36.5 33.5t-34 32.5t-35 37.5t-29.5 37t-28.5 41.5t-20 40.5t-15 46t-4 46 q0 20 2 30q-22 -35 -31 -51.5t-18 -47t-9 -64.5z" />
<glyph unicode="&#xa8;" horiz-adv-x="753" d="M100 1034q0 36 30 64t67 28t64.5 -28.5t27.5 -65.5q0 -36 -28.5 -63t-65.5 -27t-66 28t-29 64zM467 1034q0 36 29.5 64t66.5 28t64.5 -28.5t27.5 -65.5q0 -36 -28.5 -63t-65.5 -27t-65.5 27.5t-28.5 64.5z" />
<glyph unicode="&#xa9;" horiz-adv-x="1316" d="M113 684q0 148 72.5 274t198 199.5t273.5 73.5t274.5 -73.5t200.5 -199.5t74 -274t-74 -274t-200.5 -199.5t-274.5 -73.5t-273.5 73.5t-198 199.5t-72.5 274zM178 684q0 -131 64.5 -242t175 -176t241.5 -65t243 65t177.5 176t65.5 242t-65.5 242t-177.5 176t-243 65 t-241.5 -65t-175 -176t-64.5 -242zM375 672q0 123 79 209t201 86q128 0 226 -39q30 -113 30 -121q0 -7 -9.5 -13t-20.5 -6q-5 0 -15 5q-3 13 -12.5 28t-29 33.5t-57.5 30.5t-87 12q-81 0 -137 -61.5t-56 -145.5q0 -112 66 -173.5t145 -61.5q104 0 144 37q11 10 17.5 26.5 t9 27.5t3.5 11q37 0 39 -4q0 -10 -15 -65.5t-24 -59.5q-91 -39 -213 -39q-121 0 -202.5 82t-81.5 201z" />
<glyph unicode="&#xaa;" horiz-adv-x="688" d="M94 657q0 38 22 69.5t48 41.5q30 11 85 30.5t97 34.5t60 23q11 5 13.5 10.5t2.5 24.5v37q0 49 -32.5 87t-86.5 38q-34 0 -52 -18.5t-26 -59.5q-12 -68 -63 -68q-22 0 -34.5 18t-12.5 42q0 22 10 32q42 40 113 76.5t139 36.5q60 0 105.5 -55t45.5 -133v-285q0 -68 41 -68 q9 0 17.5 3t14 6t10.5 6l5 4q7 0 7 -10q0 -12 -9 -25q-15 -15 -49 -35t-55 -20q-29 0 -53.5 28t-30.5 62q-19 -19 -79 -55.5t-91 -36.5q-69 0 -115.5 45.5t-46.5 113.5zM209 670q0 -39 27 -69t65 -30q32 0 76.5 28t44.5 40v172q-106 -33 -127 -41q-86 -35 -86 -100z" />
<glyph unicode="&#xab;" horiz-adv-x="962" d="M53 492q0 14 10 36q252 152 418 318q36 -11 45 -25q-8 -30 -114 -144t-183 -183q77 -69 183 -183.5t114 -144.5q-9 -14 -45 -25q-171 171 -418 320q-10 15 -10 31zM414 492q0 14 10 36q252 152 418 318q36 -11 45 -25q-8 -30 -114 -144t-183 -183q77 -69 183 -183.5 t114 -144.5q-9 -14 -45 -25q-171 171 -418 320q-10 15 -10 31z" />
<glyph unicode="&#xac;" horiz-adv-x="1173" d="M90 748q11 92 31 92h911v-502q-2 -2 -15.5 -9t-37 -14.5t-41.5 -7.5q-21 3 -27 15v405h-809q-12 1 -12 21z" />
<glyph unicode="&#xad;" horiz-adv-x="0" />
<glyph unicode="&#xae;" horiz-adv-x="1316" d="M113 813q0 148 72.5 274t198 199.5t273.5 73.5t274.5 -73.5t200.5 -199.5t74 -274t-74 -274t-200.5 -199.5t-274.5 -73.5t-273.5 73.5t-198 199.5t-72.5 274zM178 813q0 -131 64.5 -242t175 -176t241.5 -65t243 65t177.5 176t65.5 242t-65.5 242t-177.5 176t-243 65 t-241.5 -65t-175 -176t-64.5 -242zM409 559q0 11 3 14q12 0 34 4t23 11q4 14 4 61v355q0 47 -4 61q-1 6 -22.5 10t-34.5 4q-3 3 -3 14.5t3 14.5q70 -4 114 -4q14 0 53 1t66 1q66 0 124 -40.5t58 -107.5q0 -44 -32.5 -83.5t-77.5 -55.5q52 -85 143 -198q21 -24 41.5 -34.5 t54.5 -13.5q3 -3 -2 -24v-4q-108 0 -135 10q-37 12 -55 37q-71 94 -141 203q-5 10 -25 10h-31v-156q0 -47 4 -61q1 -6 24 -10.5t36 -4.5q3 -3 3 -14t-3 -14q-70 4 -109 4q-40 0 -110 -4q-3 3 -3 14zM567 842h37q57 0 92 24.5t35 71.5q0 63 -25.5 98t-91.5 35q-39 0 -43 -8 q-4 -10 -4 -64v-157z" />
<glyph unicode="&#xaf;" horiz-adv-x="675" d="M103 1162.5q6 33.5 20 43.5h446q11 -7 8 -37t-18 -47h-448q-14 7 -8 40.5z" />
<glyph unicode="&#xb0;" horiz-adv-x="546" d="M76 1071q0 82 58 139.5t140 57.5t138.5 -57.5t56.5 -139.5t-56.5 -139.5t-138.5 -57.5t-140 57.5t-58 139.5zM150 1071q0 -51 36.5 -87t87.5 -36t86 36t35 87t-35 87t-86 36t-87.5 -36t-36.5 -87z" />
<glyph unicode="&#xb1;" horiz-adv-x="1095" d="M68 33q0 13 8.5 47.5t21.5 44.5h912q7 0 12.5 -7t5.5 -18q0 -24 -10 -49.5t-23 -38.5h-915q-12 1 -12 21zM68 631q0 13 8.5 47.5t21.5 44.5h391v399q63 23 86 23q9 0 15.5 -3t9.5 -6l2 -3v-410h408q7 0 12.5 -7t5.5 -18q0 -24 -10 -49.5t-23 -38.5h-393v-403 q-32 -23 -86 -23q-10 0 -18.5 6.5t-8.5 12.5v407h-409q-12 1 -12 21z" />
<glyph unicode="&#xb2;" horiz-adv-x="714" d="M78 532q4 4 117.5 121t162.5 183q97 134 97 225q0 64 -34.5 103.5t-96.5 39.5q-42 0 -78 -17.5t-53 -34t-43 -46.5q-6 -6 -21.5 10.5t-13.5 24.5q36 63 100.5 108t130.5 45q105 0 171.5 -60t66.5 -155q0 -90 -90 -200q-24 -28 -60.5 -66.5t-102.5 -104.5t-89 -90h241 q23 0 42 8.5t32 23.5t21 28t15 28.5t9 18.5t10 6q22 0 29 -10q-10 -24 -34 -100.5t-40 -112.5h-465q-9 0 -18 9t-6 15z" />
<glyph unicode="&#xb3;" horiz-adv-x="634" d="M78 575q0 30 17.5 48t43.5 18q16 0 27 -7t26.5 -26t20.5 -24q29 -29 78 -29q66 0 104.5 45.5t38.5 134.5q0 72 -43 122t-100 50q-16 0 -33 -3t-32 -7l-15 -4q-7 7 -10 20q-3 14 0 21q79 16 131.5 62t52.5 116q0 38 -31 70t-69 32q-69 0 -142 -73q-5 2 -9 9t-6 13.5 t-1 7.5q82 121 197 121q69 0 121.5 -40.5t52.5 -112.5q0 -59 -36.5 -103t-78.5 -63q21 0 50 -13.5t58 -37.5t49.5 -64t20.5 -86q0 -127 -94 -200.5t-231 -73.5q-35 0 -77.5 8.5t-56.5 21.5q-24 20 -24 47z" />
<glyph unicode="&#xb4;" horiz-adv-x="518" d="M100 1073q0 9 72.5 113.5t120.5 165.5q2 2 8.5 5.5t20 7t26.5 3.5q24 0 40.5 -7.5t22.5 -19t7.5 -18.5t1.5 -14q0 -29 -72 -94t-146 -116.5t-85 -51.5q-17 0 -17 26z" />
<glyph unicode="&#xb5;" horiz-adv-x="1081" d="M156 -381q0 65 13.5 360.5t29.5 428.5q0 24 -4.5 95t-4.5 93v33q0 16 0.5 60t0.5 81.5t-1 63.5q1 1 2 3q25 35 46 37q18 0 62 -27.5t44 -45.5q0 -104 -45 -309l-10 -46q0 -132 25 -225.5t75 -93.5q47 0 93 30.5t82 80.5t63 104.5t47 112.5v141v33q0 16 0.5 60t0.5 81.5 t-1 63.5q25 40 49 40q18 0 61 -27.5t43 -45.5q0 -33 -45 -309l-20 -103q0 -111 36.5 -184.5t102.5 -73.5q55 0 103 62q7 0 18 -19q6 -12 6 -22q-21 -67 -74 -113.5t-112 -46.5q-33 1 -59.5 37.5t-40 91.5t-20.5 94.5t-9 69.5q-52 -122 -134.5 -212.5t-177.5 -90.5 q-88 0 -125 221v-78q0 -359 33 -539q-1 -1 -4.5 -7t-5 -8.5t-5 -7.5t-6.5 -7t-7.5 -5.5t-9 -4.5t-9.5 -1q-18 0 -62 28t-44 46z" />
<glyph unicode="&#xb6;" horiz-adv-x="966" d="M68 938q0 79 30.5 148.5t79 116.5t109.5 74.5t123 27.5q60 0 97 -4.5t97 -4.5q59 0 119.5 3t91.5 5l31 3q7 -8 6.5 -31.5t-8.5 -28.5q-29 0 -68.5 -11t-46.5 -28q-4 -14 -4 -129v-401q4 -1 28 6t46 14l22 7q21 0 21 -13q-1 -14 -23.5 -41.5t-34.5 -32.5q-40 -17 -61 -20 v-367v-24q0 -94 8 -123q4 -15 54 -27t77 -12q3 0 3 -25t-3 -28q-51 2 -124 7t-144 5q-39 0 -279 -12q-4 8 -3.5 28t7.5 25q21 0 70 12t53 27q11 36 11 147v342q-74 0 -138 24.5t-108.5 64t-76.5 88t-47 97t-15 91.5zM530 231q0 -109 7 -147q2 -12 47 -12h2q51 0 53 12 q4 27 4 111v36l-2 353q-12 -1 -52.5 -4.5t-58.5 -4.5v-344zM530 655q16 0 62 3.5t51 7.5v546q-11 11 -57 11q-43 0 -56 -13v-555z" />
<glyph unicode="&#xb7;" horiz-adv-x="598" d="M184 528q0 47 34 81t81 34t82 -34t35 -81t-35 -82.5t-82 -35.5t-81 35t-34 83z" />
<glyph unicode="&#xb8;" horiz-adv-x="460" d="M98 -258q0 10 10 19.5t19 9.5q11 0 34 -13.5t40 -13.5q40 0 63 19t23 47q0 32 -19.5 49.5t-42.5 17.5q-21 0 -51 -12q-4 0 -13.5 9.5t-6.5 14.5q8 14 31 50.5t32 52.5h43l-37 -45h49q37 0 62.5 -30t25.5 -69q0 -69 -53 -110t-133 -41q-46 0 -70 16q0 1 -3 11.5t-3 17.5z " />
<glyph unicode="&#xb9;" horiz-adv-x="583" d="M78 1141q0 11 6 14q94 39 168 76.5t103 55.5t30 18h2q9 0 25 -48q-19 -83 -19 -161v-416q0 -54 17 -94q4 -9 45.5 -19t58.5 -10q4 0 4 -22.5t-4 -28.5q-25 1 -86 3.5t-106 2.5t-110.5 -2.5t-88.5 -3.5q-7 4 -7 26.5t7 22.5q22 0 64 9.5t46 19.5q13 35 13 92v360 q0 64 -8.5 83.5t-28.5 19.5q-16 0 -113 -33q-18 9 -18 35z" />
<glyph unicode="&#xba;" horiz-adv-x="774" d="M76 799q0 128 91 218.5t224 90.5q130 0 219.5 -88t89.5 -213q0 -126 -90 -219.5t-219 -93.5q-130 0 -222.5 90t-92.5 215zM213 821q0 -69 20.5 -130.5t66.5 -104.5t108 -43q52 0 88 37.5t50.5 89.5t14.5 112q0 69 -18.5 130t-62.5 105t-105 44q-55 0 -93 -37.5 t-53.5 -89.5t-15.5 -113z" />
<glyph unicode="&#xbb;" horiz-adv-x="962" d="M82 166q8 30 114 144.5t183 183.5q-77 69 -183 183t-114 144q9 14 45 25q166 -166 418 -318q10 -23 10 -36q0 -16 -10 -31q-247 -149 -418 -320q-36 11 -45 25zM442 166q8 30 113.5 145t181.5 183q-76 68 -181.5 182.5t-113.5 144.5q10 15 43 25q166 -166 418 -318 q10 -22 10 -36q0 -16 -10 -31q-247 -149 -418 -320q-33 10 -43 25z" />
<glyph unicode="&#xbc;" horiz-adv-x="1396" d="M68 1116q22 14 270 160q11 -3 19 -13t8 -20q-17 -98 -17 -176v-395q0 -56 14 -99q3 -9 43 -17.5t58 -8.5q6 -10 5.5 -25t-3.5 -20q-30 1 -79 3.5t-93 2.5t-100.5 -2.5t-83.5 -3.5q-7 5 -6.5 22t6.5 23q22 0 59 9t41 19q14 38 14 93v372q0 30 -9 50t-24 20q-10 0 -24 -4 t-36.5 -13t-35.5 -14q-16 8 -26 37zM350 -8l699 1280q1 3 8.5 7.5t22 8t30.5 0.5t16 -20l-690 -1264q-6 -12 -23.5 -22.5t-39.5 -6.5q-9 2 -14.5 6t-6.5 7zM762 244l409 547q18 22 41 22q8 0 13.5 -7t5.5 -15v-498h69q15 -13 19.5 -35t-6.5 -45h-76v-213q-6 -6 -61 -6 q-52 0 -64 10v209h-330q-18 4 -20 31zM885 301h227v309q-43 -54 -113.5 -153.5t-113.5 -155.5z" />
<glyph unicode="&#xbd;" horiz-adv-x="1499" d="M74 1116q22 14 270 160q11 -3 19 -13t8 -20q-17 -98 -17 -176v-395q0 -52 15 -99q3 -9 42.5 -17.5t57.5 -8.5q6 -11 4.5 -25t-4.5 -20q-30 1 -78 3.5t-92 2.5t-100.5 -2.5t-83.5 -3.5q-7 5 -6.5 22t6.5 23q22 0 58 9t40 19q16 43 16 93v372q0 30 -8.5 50t-23.5 20 q-10 0 -24 -4t-37 -13.5t-36 -13.5q-16 8 -26 37zM352 -8l699 1280q1 3 8.5 7.5t22 8t30.5 0.5t16 -20l-690 -1264q-6 -12 -23.5 -22.5t-39.5 -6.5q-9 2 -14.5 6t-6.5 7zM870 23q11 12 114.5 116t150.5 164q110 137 110 248q0 64 -34.5 103.5t-96.5 39.5q-42 0 -78 -17.5 t-53 -34t-43 -46.5q-6 -6 -21.5 10.5t-13.5 24.5q35 63 101 108t133 45q104 0 170.5 -60t66.5 -155q0 -88 -92 -200q-19 -22 -50 -55t-57 -60t-73 -74t-70 -71h240q23 0 42.5 8.5t32.5 23.5t21 27.5t16 28.5l9 18q2 3 10 6q19 0 27 -10q-10 -24 -34 -100.5t-40 -112.5h-463 q-9 0 -18.5 9.5t-6.5 15.5z" />
<glyph unicode="&#xbe;" horiz-adv-x="1398" d="M70 575q0 30 17.5 48t43.5 18q16 0 27 -7t26.5 -26t20.5 -24q29 -29 78 -29q66 0 104.5 45.5t38.5 134.5q0 72 -43 122t-100 50q-16 0 -33 -3t-32 -7l-15 -4q-7 7 -10 22q-4 11 0 19q80 16 133 62.5t53 115.5q0 38 -32.5 70t-70.5 32q-68 0 -141 -73q-5 2 -9 9t-6 13.5 t-1 7.5q82 121 196 121q69 0 121.5 -40.5t52.5 -112.5q0 -59 -36 -103t-78 -63q21 0 50 -13.5t59 -37.5t50.5 -64t20.5 -86q0 -127 -95.5 -200.5t-232.5 -73.5q-35 0 -77 8.5t-56 21.5q-24 20 -24 47zM360 -8l701 1280q1 3 8.5 7.5t22 8t30.5 0.5q17 -3 17 -20l-690 -1264 q-6 -12 -24 -22.5t-40 -6.5q-9 2 -15 6t-8 7zM764 244l410 547q18 22 40 22q8 0 13.5 -7t5.5 -15v-498h70q14 -13 18.5 -35t-6.5 -45h-78v-213q-6 -6 -59 -6q-52 0 -64 10v209h-330q-18 4 -20 31zM887 301h227v309q-43 -54 -113.5 -153.5t-113.5 -155.5z" />
<glyph unicode="&#xbf;" horiz-adv-x="688" d="M82 -76q0 102 45.5 171.5t157.5 133.5q43 27 95 68t60 57q17 33 13 111v29q5 10 7.5 14t8 7.5t14.5 4.5q20 -8 27 -22q16 -69 16 -183q0 -50 -13 -88.5t-41 -68.5t-48 -44.5t-57 -38.5q-7 -5 -11 -7q-40 -25 -57 -36t-45 -33t-40 -39t-22 -42t-10 -53q0 -75 44 -119.5 t104 -44.5t106.5 20.5t65.5 20.5q27 0 57.5 -27.5t30.5 -72.5q0 -47 -19 -74q-28 -14 -96 -14q-40 0 -91 15.5t-104 48t-97.5 75.5t-72.5 103.5t-28 127.5zM356 748q0 45 32.5 78.5t76.5 33.5t77 -34t33 -78t-33 -76.5t-77 -32.5t-76.5 32.5t-32.5 76.5z" />
<glyph unicode="&#xc0;" horiz-adv-x="1253" d="M-30 19.5q0 21.5 5 31.5q26 0 67 10.5t54 28.5q9 11 16.5 22t15.5 26.5t12.5 24t13.5 29t11.5 26t13 32t11.5 29.5q262 679 385 989q8 15 36.5 36t41.5 21q3 0 6 -1.5l5 -2.5l407 -1069q47 -122 51 -131q13 -30 64 -50t74 -20q6 -14 5.5 -31.5t-3.5 -25.5 q-200 10 -220 10q-41 0 -76 -1.5t-79 -4.5t-76 -4q-7 8 -6.5 28.5t8.5 28.5q23 0 61 8t50 19q8 8 8 28q0 26 -34 123.5t-68 182.5l-33 84q-7 8 -13 8q-20 2 -159 2h-39q-125 0 -215 -6l-11 -6q-57 -148 -90 -244q-28 -78 -28 -141q0 -21 33 -35.5t62 -18.5t44 -4 q4 -4 5.5 -26t-1.5 -31q-29 1 -63 4t-63.5 4.5t-68.5 1.5q-41 0 -72.5 -1.5t-70 -4.5t-72.5 -4q-5 4 -5 25.5zM340 1663q0 59 92 59q25 0 37 -6q50 -36 146 -133t96 -108q0 -5 -4.5 -12t-8.5 -7q-20 0 -106 36.5t-169 87.5t-83 83zM399 596q0 -8 4 -8q102 -4 181 -4 q76 0 168 6q2 0 3.5 2.5t2.5 5.5v2l-176 483z" />
<glyph unicode="&#xc1;" horiz-adv-x="1253" d="M-30 19.5q0 21.5 5 31.5q26 0 67 10.5t54 28.5q9 11 16.5 22t15.5 26.5t12.5 24t13.5 29t11.5 26t13 32t11.5 29.5q262 679 385 989q8 15 36.5 36t41.5 21q3 0 6 -1.5l5 -2.5l407 -1069q47 -122 51 -131q13 -30 64 -50t74 -20q6 -14 5.5 -31.5t-3.5 -25.5 q-200 10 -220 10q-41 0 -76 -1.5t-79 -4.5t-76 -4q-7 8 -6.5 28.5t8.5 28.5q23 0 61 8t50 19q8 8 8 28q0 26 -34 123.5t-68 182.5l-33 84q-7 8 -13 8q-20 2 -159 2h-39q-125 0 -215 -6l-11 -6q-57 -148 -90 -244q-28 -78 -28 -141q0 -21 33 -35.5t62 -18.5t44 -4 q4 -4 5.5 -26t-1.5 -31q-29 1 -63 4t-63.5 4.5t-68.5 1.5q-41 0 -72.5 -1.5t-70 -4.5t-72.5 -4q-5 4 -5 25.5zM399 596q0 -8 4 -8q102 -4 181 -4q76 0 168 6q2 0 3.5 2.5t2.5 5.5v2l-176 483zM537 1475q0 11 95.5 108t145.5 133q12 6 37 6q92 0 92 -59q0 -32 -83 -83 t-169 -87.5t-106 -36.5q-4 0 -8 7t-4 12z" />
<glyph unicode="&#xc2;" horiz-adv-x="1253" d="M-30 19.5q0 21.5 5 31.5q26 0 67 10.5t54 28.5q9 11 16.5 22t15.5 26.5t12.5 24t13.5 29t11.5 26t13 32t11.5 29.5q262 679 385 989q8 15 36.5 36t41.5 21q3 0 6 -1.5l5 -2.5l407 -1069q47 -122 51 -131q13 -30 64 -50t74 -20q6 -14 5.5 -31.5t-3.5 -25.5 q-200 10 -220 10q-41 0 -76 -1.5t-79 -4.5t-76 -4q-7 8 -6.5 28.5t8.5 28.5q23 0 61 8t50 19q8 8 8 28q0 26 -34 123.5t-68 182.5l-33 84q-7 8 -13 8q-20 2 -159 2h-39q-125 0 -215 -6l-11 -6q-57 -148 -90 -244q-28 -78 -28 -141q0 -21 33 -35.5t62 -18.5t44 -4 q4 -4 5.5 -26t-1.5 -31q-29 1 -63 4t-63.5 4.5t-68.5 1.5q-41 0 -72.5 -1.5t-70 -4.5t-72.5 -4q-5 4 -5 25.5zM399 596q0 -8 4 -8q102 -4 181 -4q76 0 168 6q2 0 3.5 2.5t2.5 5.5v2l-176 483zM420 1489q26 27 92 94t113 119q16 16 24 16q9 0 25 -16q41 -44 101 -106 t102 -107q0 -10 -6 -22.5t-13 -12.5l-209 127q-156 -96 -209 -127q-7 0 -13.5 12.5t-6.5 22.5z" />
<glyph unicode="&#xc3;" horiz-adv-x="1253" d="M-30 19.5q0 21.5 5 31.5q26 0 67 10.5t54 28.5q9 11 16.5 22t15.5 26.5t12.5 24t13.5 29t11.5 26t13 32t11.5 29.5q262 679 385 989q8 15 36.5 36t41.5 21q3 0 6 -1.5l5 -2.5l407 -1069q47 -122 51 -131q13 -30 64 -50t74 -20q6 -14 5.5 -31.5t-3.5 -25.5 q-200 10 -220 10q-41 0 -76 -1.5t-79 -4.5t-76 -4q-7 8 -6.5 28.5t8.5 28.5q23 0 61 8t50 19q8 8 8 28q0 26 -34 123.5t-68 182.5l-33 84q-7 8 -13 8q-20 2 -159 2h-39q-125 0 -215 -6l-11 -6q-57 -148 -90 -244q-28 -78 -28 -141q0 -21 33 -35.5t62 -18.5t44 -4 q4 -4 5.5 -26t-1.5 -31q-29 1 -63 4t-63.5 4.5t-68.5 1.5q-41 0 -72.5 -1.5t-70 -4.5t-72.5 -4q-5 4 -5 25.5zM375 1479q0 35 28 71q59 72 138 72q37 0 65.5 -10.5t67.5 -32.5q81 -47 123 -47q36 0 63.5 16t46 36.5t19.5 21.5q12 0 12 -21q0 -32 -29 -69q-61 -74 -137 -74 q-37 0 -65.5 10.5t-67.5 32.5q-31 18 -44 25t-36.5 15.5t-42.5 8.5q-28 0 -52 -11.5t-37 -24.5t-25 -26.5t-15 -15.5q-12 0 -12 23zM399 596q0 -8 4 -8q102 -4 181 -4q76 0 168 6q2 0 3.5 2.5t2.5 5.5v2l-176 483z" />
<glyph unicode="&#xc4;" horiz-adv-x="1253" d="M-30 19.5q0 21.5 5 31.5q26 0 67 10.5t54 28.5q9 11 16.5 22t15.5 26.5t12.5 24t13.5 29t11.5 26t13 32t11.5 29.5q262 679 385 989q8 15 36.5 36t41.5 21q3 0 6 -1.5l5 -2.5l407 -1069q47 -122 51 -131q13 -30 64 -50t74 -20q6 -14 5.5 -31.5t-3.5 -25.5 q-200 10 -220 10q-41 0 -76 -1.5t-79 -4.5t-76 -4q-7 8 -6.5 28.5t8.5 28.5q23 0 61 8t50 19q8 8 8 28q0 26 -34 123.5t-68 182.5l-33 84q-7 8 -13 8q-20 2 -159 2h-39q-125 0 -215 -6l-11 -6q-57 -148 -90 -244q-28 -78 -28 -141q0 -21 33 -35.5t62 -18.5t44 -4 q4 -4 5.5 -26t-1.5 -31q-29 1 -63 4t-63.5 4.5t-68.5 1.5q-41 0 -72.5 -1.5t-70 -4.5t-72.5 -4q-5 4 -5 25.5zM369 1556q0 41 29.5 71t70.5 30t70.5 -30t29.5 -71t-29.5 -70.5t-70.5 -29.5t-70.5 29.5t-29.5 70.5zM399 596q0 -8 4 -8q102 -4 181 -4q76 0 168 6q2 0 3.5 2.5 t2.5 5.5v2l-176 483zM731 1556q0 41 29.5 71t70.5 30t71 -30t30 -71t-30 -70.5t-71 -29.5t-70.5 29.5t-29.5 70.5z" />
<glyph unicode="&#xc5;" horiz-adv-x="1253" d="M-30 19.5q0 21.5 5 31.5q26 0 67 10.5t54 28.5q9 11 16.5 22t15.5 26.5t12.5 24t13.5 29t11.5 26t13 32t11.5 29.5q262 679 385 989q8 15 36.5 36t41.5 21q3 0 6 -1.5l5 -2.5l407 -1069q47 -122 51 -131q13 -30 64 -50t74 -20q6 -14 5.5 -31.5t-3.5 -25.5 q-200 10 -220 10q-41 0 -76 -1.5t-79 -4.5t-76 -4q-7 8 -6.5 28.5t8.5 28.5q23 0 61 8t50 19q8 8 8 28q0 26 -34 123.5t-68 182.5l-33 84q-7 8 -13 8q-20 2 -159 2h-39q-125 0 -215 -6l-11 -6q-57 -148 -90 -244q-28 -78 -28 -141q0 -21 33 -35.5t62 -18.5t44 -4 q4 -4 5.5 -26t-1.5 -31q-29 1 -63 4t-63.5 4.5t-68.5 1.5q-41 0 -72.5 -1.5t-70 -4.5t-72.5 -4q-5 4 -5 25.5zM399 596q0 -8 4 -8q102 -4 181 -4q76 0 168 6q2 0 3.5 2.5t2.5 5.5v2l-176 483zM465 1505q0 73 53 125.5t125 52.5t123 -52t51 -126t-51 -127t-123 -53t-125 53.5 t-53 126.5zM530 1505q0 -45 34 -78.5t79 -33.5q44 0 76.5 33t32.5 79t-32.5 78.5t-76.5 32.5q-45 0 -79 -33t-34 -78z" />
<glyph unicode="&#xc6;" horiz-adv-x="1792" d="M-32 19.5q0 21.5 5 31.5q18 0 54.5 12.5t58.5 26.5q61 41 150 184l555 893q14 23 14 41q0 24 -31.5 36.5t-58.5 12.5q-7 10 -5.5 33t5.5 27q98 -2 231 -2q90 0 309.5 6t331.5 6q8 -57 31 -149t29 -121q-10 -10 -37 -10q-26 0 -29 14q-30 111 -85.5 148.5t-145.5 37.5 h-172q-132 0 -138 -20q-10 -33 -10 -144v-372q0 -13 86 -13h107q132 0 161.5 18t51.5 104q4 14 6 22q3 14 31 14q22 0 32 -10v-377q-8 -8 -30 -8q-27 0 -33 14q-22 80 -31.5 101.5t-24.5 31.5q-28 17 -212 17q-144 0 -144 -19v-381q0 -127 12 -137q19 -14 45 -17t97 -3h96 q73 0 142.5 14.5t109.5 40.5q42 26 69 73t58 128q3 12 27 12q39 0 51 -12q-9 -25 -30.5 -83.5t-34 -93t-26 -79.5t-18.5 -76q-102 0 -322.5 4t-359.5 4q-59 0 -117 -1.5t-86 -2.5l-28 -2q-4 5 -4.5 19t1 26t3.5 12q25 0 74.5 15t56.5 32q14 52 14 172v240q-74 4 -178 4 q-50 0 -203 -10l-10 -6q-86 -142 -147 -240q-80 -119 -80 -154q0 -16 17 -27.5t42 -16.5t42.5 -7t27.5 -2q4 -4 5.5 -26t-1.5 -31q-29 1 -63 4t-63.5 4.5t-68.5 1.5q-53 0 -116.5 -4.5t-90.5 -5.5q-5 4 -5 25.5zM532 600q-1 -8 3 -8q51 -2 157 -2q90 0 168 4v539z" />
<glyph unicode="&#xc7;" horiz-adv-x="1347" d="M98 643q0 139 51 265.5t139 220t215 149t271 55.5q241 0 424 -41q45 -277 45 -297q1 -9 -13 -16.5t-30 -7.5q-15 0 -24 6q-4 21 -8 36t-17 47.5t-29.5 57t-47 54.5t-68.5 49.5t-95.5 33t-126.5 13.5q-107 0 -200.5 -51.5t-155 -134.5t-96.5 -186.5t-35 -209.5 q0 -95 20 -185.5t62.5 -172t102.5 -142.5t146 -97t187 -36q156 0 264 97q91 82 123 233q35 3 64 -16q0 -39 -25.5 -155.5t-44.5 -133.5q-154 -87 -403 -90l-33 -41h59q45 0 75 -35t30 -82q0 -81 -63.5 -129.5t-158.5 -48.5q-53 0 -81 20q-1 4 -4 14.5t-3 18.5q0 12 11 22.5 t22 10.5q13 0 39 -15.5t47 -15.5q47 0 75 23.5t28 56.5q0 38 -22.5 59t-49.5 21q-20 0 -62 -17q-4 0 -15.5 11t-8.5 18q10 17 35 54.5t35 54.5q-188 5 -338 96t-231 238t-81 321z" />
<glyph unicode="&#xc8;" horiz-adv-x="1173" d="M83.5 22.5q0.5 20.5 6.5 28.5q31 0 83 9t56 24q11 36 11 147v854q0 114 -11 150q-4 15 -55 23t-84 8q-6 8 -6.5 28.5t6.5 28.5q164 -8 238 -8q90 0 310.5 6t332.5 6q8 -58 30.5 -153t26.5 -117q-10 -10 -35 -10t-28 14q-30 111 -85.5 148.5t-146.5 37.5h-172 q-133 0 -139 -20q-8 -29 -8 -121v-23v-372q0 -13 86 -13h104q49 0 77.5 1t53 7t35 11.5t21.5 23.5t15.5 32.5t13.5 49.5q3 12 5 19q3 14 29 14q25 0 35 -10v-377q-8 -8 -33 -8t-31 14q-21 80 -31.5 101.5t-25.5 31.5q-28 17 -211 17q-143 0 -143 -19v-381v-12 q0 -117 10 -125q19 -14 45.5 -17t97.5 -3h97q72 0 141.5 14.5t109.5 40.5q30 18 54.5 53t36.5 63.5t34 84.5q3 12 29 12q37 0 49 -12q-6 -17 -24 -65.5t-27 -75t-22 -66t-21 -70t-12 -55.5q-102 0 -322.5 4t-359.5 4q-49 0 -126 -3t-114 -3q-7 8 -6.5 28.5zM315 1663 q0 59 93 59q24 0 36 -6q50 -36 146 -133t96 -108q0 -5 -4 -12t-8 -7q-20 0 -106.5 36.5t-169.5 87.5t-83 83z" />
<glyph unicode="&#xc9;" horiz-adv-x="1173" d="M83.5 22.5q0.5 20.5 6.5 28.5q31 0 83 9t56 24q11 36 11 147v854q0 114 -11 150q-4 15 -55 23t-84 8q-6 8 -6.5 28.5t6.5 28.5q164 -8 238 -8q90 0 310.5 6t332.5 6q8 -58 30.5 -153t26.5 -117q-10 -10 -35 -10t-28 14q-30 111 -85.5 148.5t-146.5 37.5h-172 q-133 0 -139 -20q-8 -29 -8 -121v-23v-372q0 -13 86 -13h104q49 0 77.5 1t53 7t35 11.5t21.5 23.5t15.5 32.5t13.5 49.5q3 12 5 19q3 14 29 14q25 0 35 -10v-377q-8 -8 -33 -8t-31 14q-21 80 -31.5 101.5t-25.5 31.5q-28 17 -211 17q-143 0 -143 -19v-381v-12 q0 -117 10 -125q19 -14 45.5 -17t97.5 -3h97q72 0 141.5 14.5t109.5 40.5q30 18 54.5 53t36.5 63.5t34 84.5q3 12 29 12q37 0 49 -12q-6 -17 -24 -65.5t-27 -75t-22 -66t-21 -70t-12 -55.5q-102 0 -322.5 4t-359.5 4q-49 0 -126 -3t-114 -3q-7 8 -6.5 28.5zM512 1475 q0 11 96 108t146 133q12 6 37 6q92 0 92 -59q0 -32 -83 -83t-169.5 -87.5t-106.5 -36.5q-4 0 -8 7t-4 12z" />
<glyph unicode="&#xca;" horiz-adv-x="1173" d="M83.5 22.5q0.5 20.5 6.5 28.5q31 0 83 9t56 24q11 36 11 147v854q0 114 -11 150q-4 15 -55 23t-84 8q-6 8 -6.5 28.5t6.5 28.5q164 -8 238 -8q90 0 310.5 6t332.5 6q8 -58 30.5 -153t26.5 -117q-10 -10 -35 -10t-28 14q-30 111 -85.5 148.5t-146.5 37.5h-172 q-133 0 -139 -20q-8 -29 -8 -121v-23v-372q0 -13 86 -13h104q49 0 77.5 1t53 7t35 11.5t21.5 23.5t15.5 32.5t13.5 49.5q3 12 5 19q3 14 29 14q25 0 35 -10v-377q-8 -8 -33 -8t-31 14q-21 80 -31.5 101.5t-25.5 31.5q-28 17 -211 17q-143 0 -143 -19v-381v-12 q0 -117 10 -125q19 -14 45.5 -17t97.5 -3h97q72 0 141.5 14.5t109.5 40.5q30 18 54.5 53t36.5 63.5t34 84.5q3 12 29 12q37 0 49 -12q-6 -17 -24 -65.5t-27 -75t-22 -66t-21 -70t-12 -55.5q-102 0 -322.5 4t-359.5 4q-49 0 -126 -3t-114 -3q-7 8 -6.5 28.5zM379 1489 q26 27 92 94t113 119q16 16 24 16q9 0 25 -16q41 -44 101 -106t102 -107q0 -10 -6 -22.5t-13 -12.5l-209 127q-156 -96 -209 -127q-7 0 -13.5 12.5t-6.5 22.5z" />
<glyph unicode="&#xcb;" horiz-adv-x="1173" d="M83.5 22.5q0.5 20.5 6.5 28.5q31 0 83 9t56 24q11 36 11 147v854q0 114 -11 150q-4 15 -55 23t-84 8q-6 8 -6.5 28.5t6.5 28.5q164 -8 238 -8q90 0 310.5 6t332.5 6q8 -58 30.5 -153t26.5 -117q-10 -10 -35 -10t-28 14q-30 111 -85.5 148.5t-146.5 37.5h-172 q-133 0 -139 -20q-8 -29 -8 -121v-23v-372q0 -13 86 -13h104q49 0 77.5 1t53 7t35 11.5t21.5 23.5t15.5 32.5t13.5 49.5q3 12 5 19q3 14 29 14q25 0 35 -10v-377q-8 -8 -33 -8t-31 14q-21 80 -31.5 101.5t-25.5 31.5q-28 17 -211 17q-143 0 -143 -19v-381v-12 q0 -117 10 -125q19 -14 45.5 -17t97.5 -3h97q72 0 141.5 14.5t109.5 40.5q30 18 54.5 53t36.5 63.5t34 84.5q3 12 29 12q37 0 49 -12q-6 -17 -24 -65.5t-27 -75t-22 -66t-21 -70t-12 -55.5q-102 0 -322.5 4t-359.5 4q-49 0 -126 -3t-114 -3q-7 8 -6.5 28.5zM311 1556 q0 41 30 71t71 30t70.5 -30t29.5 -71t-29.5 -70.5t-70.5 -29.5t-71 29.5t-30 70.5zM674 1556q0 41 29.5 71t70.5 30t70.5 -30t29.5 -71t-29.5 -70.5t-70.5 -29.5t-70.5 29.5t-29.5 70.5z" />
<glyph unicode="&#xcc;" horiz-adv-x="647" d="M74 1663q0 59 92 59q25 0 37 -6q50 -36 145.5 -133t95.5 -108q0 -5 -4 -12t-8 -7q-20 0 -106 36.5t-169 87.5t-83 83zM83.5 22.5q0.5 20.5 6.5 28.5q31 0 83 9t56 24q11 36 11 147v854q0 114 -11 150q-4 15 -55 23t-84 8q-6 8 -6.5 28.5t6.5 28.5q164 -8 238 -8 q69 0 233 8q7 -8 6.5 -28.5t-6.5 -28.5q-33 0 -84 -8t-55 -23q-8 -29 -8 -125v-25v-854v-24q0 -94 8 -123q4 -15 56 -24t83 -9q6 -8 6.5 -28.5t-6.5 -28.5q-205 10 -233 10q-33 0 -238 -10q-7 8 -6.5 28.5z" />
<glyph unicode="&#xcd;" horiz-adv-x="647" d="M83.5 22.5q0.5 20.5 6.5 28.5q31 0 83 9t56 24q11 36 11 147v854q0 114 -11 150q-4 15 -55 23t-84 8q-6 8 -6.5 28.5t6.5 28.5q164 -8 238 -8q69 0 233 8q7 -8 6.5 -28.5t-6.5 -28.5q-33 0 -84 -8t-55 -23q-8 -29 -8 -125v-25v-854v-24q0 -94 8 -123q4 -15 56 -24t83 -9 q6 -8 6.5 -28.5t-6.5 -28.5q-205 10 -233 10q-33 0 -238 -10q-7 8 -6.5 28.5zM231 1475q0 11 96 108t146 133q12 6 37 6q92 0 92 -59q0 -32 -83 -83t-169 -87.5t-106 -36.5q-4 0 -8.5 7t-4.5 12z" />
<glyph unicode="&#xce;" horiz-adv-x="647" d="M83.5 22.5q0.5 20.5 6.5 28.5q31 0 83 9t56 24q11 36 11 147v854q0 114 -11 150q-4 15 -55 23t-84 8q-6 8 -6.5 28.5t6.5 28.5q164 -8 238 -8q69 0 233 8q7 -8 6.5 -28.5t-6.5 -28.5q-33 0 -84 -8t-55 -23q-8 -29 -8 -125v-25v-854v-24q0 -94 8 -123q4 -15 56 -24t83 -9 q6 -8 6.5 -28.5t-6.5 -28.5q-205 10 -233 10q-33 0 -238 -10q-7 8 -6.5 28.5zM115 1444q31 33 69 71.5t68.5 70t66.5 71.5q16 16 25 16t25 -16q41 -44 100.5 -106t101.5 -107q0 -10 -5.5 -22.5t-12.5 -12.5l-209 127q-156 -96 -209 -127q-7 0 -13.5 12.5t-6.5 22.5z" />
<glyph unicode="&#xcf;" horiz-adv-x="647" d="M55 1556q0 41 30 71t71 30t70.5 -30t29.5 -71t-29.5 -70.5t-70.5 -29.5t-71 29.5t-30 70.5zM83.5 22.5q0.5 20.5 6.5 28.5q31 0 83 9t56 24q11 36 11 147v854q0 114 -11 150q-4 15 -55 23t-84 8q-6 8 -6.5 28.5t6.5 28.5q164 -8 238 -8q69 0 233 8q7 -8 6.5 -28.5 t-6.5 -28.5q-33 0 -84 -8t-55 -23q-8 -29 -8 -125v-25v-854v-24q0 -94 8 -123q4 -15 56 -24t83 -9q6 -8 6.5 -28.5t-6.5 -28.5q-205 10 -233 10q-33 0 -238 -10q-7 8 -6.5 28.5zM418 1556q0 41 29.5 71t70.5 30t70.5 -30t29.5 -71t-29.5 -70.5t-70.5 -29.5t-70.5 29.5 t-29.5 70.5z" />
<glyph unicode="&#xd0;" horiz-adv-x="1419" d="M83.5 22.5q0.5 20.5 6.5 28.5q31 0 83 9t56 24q11 36 11 147v392h-142q-4 0 -6 14.5t0 32.5t8 26h140v389q0 114 -11 150q-4 15 -55 23t-84 8q-6 8 -6.5 28.5t6.5 28.5q164 -8 238 -8q38 0 140.5 1t147.5 1q161 0 294 -49.5t222 -136t138 -205.5t49 -258q0 -107 -21 -201 t-74 -182.5t-134 -151.5t-209 -101t-291 -38h-500q-7 8 -6.5 28.5zM416 229q0 -131 10 -143q20 -29 164 -29q109 0 203.5 35t168 103.5t116 179.5t42.5 252q0 132 -30.5 238.5t-82 177.5t-123.5 118.5t-152 68.5t-169 21q-133 0 -139 -20q-8 -29 -8 -125v-25v-385h313 q6 0 6 -30t-6 -43h-313v-394z" />
<glyph unicode="&#xd1;" horiz-adv-x="1550" d="M82 -6q-14 24 0 57q29 0 88 12.5t68 28.5q13 22 16.5 48.5t3.5 86.5v869q0 61 -3.5 88t-16.5 49q-9 16 -67.5 27.5t-88.5 11.5q-14 33 0 57q184 -8 205 -8q122 0 151 2q49 -77 360 -454.5t425 -536.5v758q0 61 -3.5 88.5t-17.5 50.5q-8 14 -64.5 26.5t-86.5 12.5 q-7 10 -7.5 29.5t3.5 27.5q160 -8 229 -8q31 0 215 8q14 -24 0 -57q-30 0 -89.5 -11.5t-68.5 -27.5q-13 -22 -15.5 -47.5t-2.5 -89.5v-813q0 -173 4 -277q-2 -12 -27 -12q-10 0 -30 12t-39 35l-873 1102v-910q0 -60 3.5 -87t17.5 -50q8 -14 64 -27.5t85 -13.5 q7 -10 7.5 -29.5t-3.5 -27.5q-200 10 -227 10q-41 0 -72.5 -1.5t-70 -4.5t-72.5 -4zM461 1479q0 35 28 71q59 72 138 72q37 0 65.5 -10.5t67.5 -32.5q81 -47 123 -47q36 0 63.5 16t46 36.5t19.5 21.5q12 0 12 -21q0 -32 -29 -69q-61 -74 -137 -74q-37 0 -65.5 10.5 t-67.5 32.5q-31 18 -44 25t-36.5 15.5t-42.5 8.5q-28 0 -52 -11.5t-37 -24.5t-25 -26.5t-15 -15.5q-12 0 -12 23z" />
<glyph unicode="&#xd2;" horiz-adv-x="1495" d="M98 655q0 184 88 340.5t237 247t322 90.5q131 0 250.5 -50.5t208.5 -139t142 -216t53 -272.5q0 -138 -53 -263.5t-141.5 -215.5t-209 -143t-250.5 -53q-131 0 -249.5 50.5t-206 138.5t-139.5 214.5t-52 271.5zM297 700q0 -94 20 -186.5t60.5 -176.5t97 -149t135 -103 t168.5 -38q87 0 158.5 33.5t119.5 89.5t81 130.5t48 154.5t15 163q0 93 -20 185.5t-61 176t-98 147.5t-135.5 101.5t-168.5 37.5q-87 0 -158.5 -33.5t-119 -88.5t-80.5 -129t-47.5 -153t-14.5 -162zM465 1663q0 59 92 59q25 0 37 -6q50 -36 146 -133t96 -108q0 -5 -4.5 -12 t-8.5 -7q-20 0 -106 36.5t-169 87.5t-83 83z" />
<glyph unicode="&#xd3;" horiz-adv-x="1495" d="M98 655q0 184 88 340.5t237 247t322 90.5q131 0 250.5 -50.5t208.5 -139t142 -216t53 -272.5q0 -138 -53 -263.5t-141.5 -215.5t-209 -143t-250.5 -53q-131 0 -249.5 50.5t-206 138.5t-139.5 214.5t-52 271.5zM297 700q0 -94 20 -186.5t60.5 -176.5t97 -149t135 -103 t168.5 -38q87 0 158.5 33.5t119.5 89.5t81 130.5t48 154.5t15 163q0 93 -20 185.5t-61 176t-98 147.5t-135.5 101.5t-168.5 37.5q-87 0 -158.5 -33.5t-119 -88.5t-80.5 -129t-47.5 -153t-14.5 -162zM623 1475q0 11 95.5 108t145.5 133q12 6 37 6q92 0 92 -59q0 -32 -83 -83 t-169 -87.5t-106 -36.5q-4 0 -8 7t-4 12z" />
<glyph unicode="&#xd4;" horiz-adv-x="1495" d="M98 655q0 184 88 340.5t237 247t322 90.5q131 0 250.5 -50.5t208.5 -139t142 -216t53 -272.5q0 -138 -53 -263.5t-141.5 -215.5t-209 -143t-250.5 -53q-131 0 -249.5 50.5t-206 138.5t-139.5 214.5t-52 271.5zM297 700q0 -94 20 -186.5t60.5 -176.5t97 -149t135 -103 t168.5 -38q87 0 158.5 33.5t119.5 89.5t81 130.5t48 154.5t15 163q0 93 -20 185.5t-61 176t-98 147.5t-135.5 101.5t-168.5 37.5q-87 0 -158.5 -33.5t-119 -88.5t-80.5 -129t-47.5 -153t-14.5 -162zM522 1489q26 27 92 94t113 119q16 16 25 16q8 0 24 -16q41 -44 101 -106 t102 -107q0 -10 -5.5 -22.5t-12.5 -12.5l-209 127q-156 -96 -209 -127q-7 0 -14 12.5t-7 22.5z" />
<glyph unicode="&#xd5;" horiz-adv-x="1495" d="M98 655q0 184 88 340.5t237 247t322 90.5q131 0 250.5 -50.5t208.5 -139t142 -216t53 -272.5q0 -138 -53 -263.5t-141.5 -215.5t-209 -143t-250.5 -53q-131 0 -249.5 50.5t-206 138.5t-139.5 214.5t-52 271.5zM297 700q0 -94 20 -186.5t60.5 -176.5t97 -149t135 -103 t168.5 -38q87 0 158.5 33.5t119.5 89.5t81 130.5t48 154.5t15 163q0 93 -20 185.5t-61 176t-98 147.5t-135.5 101.5t-168.5 37.5q-87 0 -158.5 -33.5t-119 -88.5t-80.5 -129t-47.5 -153t-14.5 -162zM481 1477q0 34 29 71q59 72 137 72q37 0 65.5 -10.5t67.5 -32.5 q81 -47 123 -47q36 0 63.5 16t46 36.5t19.5 21.5q12 0 12 -21q0 -34 -28 -70q-60 -73 -137 -73q-57 0 -134 43q-3 2 -9 5q-78 41 -113 44q-28 0 -52 -11.5t-37 -24.5t-25 -26.5t-15 -15.5q-5 0 -9 8t-4 15z" />
<glyph unicode="&#xd6;" horiz-adv-x="1495" d="M98 655q0 184 88 340.5t237 247t322 90.5q131 0 250.5 -50.5t208.5 -139t142 -216t53 -272.5q0 -138 -53 -263.5t-141.5 -215.5t-209 -143t-250.5 -53q-131 0 -249.5 50.5t-206 138.5t-139.5 214.5t-52 271.5zM297 700q0 -94 20 -186.5t60.5 -176.5t97 -149t135 -103 t168.5 -38q87 0 158.5 33.5t119.5 89.5t81 130.5t48 154.5t15 163q0 93 -20 185.5t-61 176t-98 147.5t-135.5 101.5t-168.5 37.5q-87 0 -158.5 -33.5t-119 -88.5t-80.5 -129t-47.5 -153t-14.5 -162zM467 1556q0 41 29.5 71t70.5 30t71 -30t30 -71t-30 -70.5t-71 -29.5 t-70.5 29.5t-29.5 70.5zM829 1556q0 41 30 71t71 30t70.5 -30t29.5 -71t-29.5 -70.5t-70.5 -29.5t-71 29.5t-30 70.5z" />
<glyph unicode="&#xd7;" horiz-adv-x="927" d="M111 211q278 275 286 283l-286 288q0 22 17 49t30 27q10 0 14 -4q293 -285 297 -289l291 289q4 4 12 4q12 0 27.5 -31.5t15.5 -48.5l-278 -278l278 -289q0 -25 -13.5 -53.5t-29.5 -28.5q-10 0 -14 4q-291 293 -293 295l-299 -297q-4 -4 -12 -4q-12 0 -27.5 33.5 t-15.5 50.5z" />
<glyph unicode="&#xd8;" horiz-adv-x="1495" d="M98 655q0 184 88 340.5t237 247t322 90.5q180 0 328 -88l57 88q16 -4 39.5 -19.5t18.5 -23.5l-55 -86q124 -92 195 -234t71 -315q0 -138 -53 -263.5t-141.5 -215.5t-209 -143t-250.5 -53q-178 0 -331 92l-62 -99q-17 6 -39.5 22.5t-17.5 24.5l59 93q-120 91 -188 231.5 t-68 310.5zM297 700q0 -124 35.5 -245t101.5 -215l574 901q-125 125 -291 125q-87 0 -158.5 -33.5t-119 -88.5t-80.5 -129t-47.5 -153t-14.5 -162zM483 180q123 -133 295 -133q87 0 158.5 33.5t119.5 89.5t81 130.5t48 154.5t15 163q0 127 -37 250t-106 215z" />
<glyph unicode="&#xd9;" horiz-adv-x="1445" d="M52.5 1294.5q-0.5 20.5 6.5 28.5q164 -8 236 -8q69 0 233 8q7 -8 6.5 -28.5t-6.5 -28.5q-33 0 -83 -8t-54 -23q-10 -33 -10 -150v-493q0 -245 98 -369q92 -114 275 -114q379 0 387 440v541q0 61 -3.5 88.5t-17.5 50.5q-8 14 -60.5 26.5t-82.5 12.5q-7 10 -7.5 29.5 t3.5 27.5q160 -8 221 -8q31 0 215 8q14 -24 0 -57q-30 0 -88.5 -11.5t-67.5 -27.5q-13 -22 -16.5 -49t-3.5 -88v-539q0 -147 -37.5 -255.5t-107.5 -175t-164 -98.5t-213 -32q-218 0 -357 133q-147 141 -147 377v583q0 117 -10 150q-4 15 -54.5 23t-83.5 8q-6 8 -6.5 28.5z M471 1663q0 59 92 59q25 0 37 -6q50 -36 146 -133t96 -108q0 -5 -4.5 -12t-8.5 -7q-20 0 -106 36.5t-169 87.5t-83 83z" />
<glyph unicode="&#xda;" horiz-adv-x="1445" d="M52.5 1294.5q-0.5 20.5 6.5 28.5q164 -8 236 -8q69 0 233 8q7 -8 6.5 -28.5t-6.5 -28.5q-33 0 -83 -8t-54 -23q-10 -33 -10 -150v-493q0 -245 98 -369q92 -114 275 -114q379 0 387 440v541q0 61 -3.5 88.5t-17.5 50.5q-8 14 -60.5 26.5t-82.5 12.5q-7 10 -7.5 29.5 t3.5 27.5q160 -8 221 -8q31 0 215 8q14 -24 0 -57q-30 0 -88.5 -11.5t-67.5 -27.5q-13 -22 -16.5 -49t-3.5 -88v-539q0 -147 -37.5 -255.5t-107.5 -175t-164 -98.5t-213 -32q-218 0 -357 133q-147 141 -147 377v583q0 117 -10 150q-4 15 -54.5 23t-83.5 8q-6 8 -6.5 28.5z M668 1475q0 11 95.5 108t145.5 133q12 6 37 6q92 0 92 -59q0 -32 -83 -83t-169 -87.5t-106 -36.5q-4 0 -8 7t-4 12z" />
<glyph unicode="&#xdb;" horiz-adv-x="1445" d="M52.5 1294.5q-0.5 20.5 6.5 28.5q164 -8 236 -8q69 0 233 8q7 -8 6.5 -28.5t-6.5 -28.5q-33 0 -83 -8t-54 -23q-10 -33 -10 -150v-493q0 -245 98 -369q92 -114 275 -114q379 0 387 440v541q0 61 -3.5 88.5t-17.5 50.5q-8 14 -60.5 26.5t-82.5 12.5q-7 10 -7.5 29.5 t3.5 27.5q160 -8 221 -8q31 0 215 8q14 -24 0 -57q-30 0 -88.5 -11.5t-67.5 -27.5q-13 -22 -16.5 -49t-3.5 -88v-539q0 -147 -37.5 -255.5t-107.5 -175t-164 -98.5t-213 -32q-218 0 -357 133q-147 141 -147 377v583q0 117 -10 150q-4 15 -54.5 23t-83.5 8q-6 8 -6.5 28.5z M504 1489q26 27 92 94t113 119q16 16 24 16q9 0 25 -16q41 -44 101 -106t102 -107q0 -10 -6 -22.5t-13 -12.5l-209 127q-156 -96 -209 -127q-7 0 -13.5 12.5t-6.5 22.5z" />
<glyph unicode="&#xdc;" horiz-adv-x="1445" d="M52.5 1294.5q-0.5 20.5 6.5 28.5q164 -8 236 -8q69 0 233 8q7 -8 6.5 -28.5t-6.5 -28.5q-33 0 -83 -8t-54 -23q-10 -33 -10 -150v-493q0 -245 98 -369q92 -114 275 -114q379 0 387 440v541q0 61 -3.5 88.5t-17.5 50.5q-8 14 -60.5 26.5t-82.5 12.5q-7 10 -7.5 29.5 t3.5 27.5q160 -8 221 -8q31 0 215 8q14 -24 0 -57q-30 0 -88.5 -11.5t-67.5 -27.5q-13 -22 -16.5 -49t-3.5 -88v-539q0 -147 -37.5 -255.5t-107.5 -175t-164 -98.5t-213 -32q-218 0 -357 133q-147 141 -147 377v583q0 117 -10 150q-4 15 -54.5 23t-83.5 8q-6 8 -6.5 28.5z M449 1556q0 41 29.5 71t70.5 30t70.5 -30t29.5 -71t-29.5 -70.5t-70.5 -29.5t-70.5 29.5t-29.5 70.5zM811 1556q0 41 29.5 71t70.5 30t71 -30t30 -71t-30 -70.5t-71 -29.5t-70.5 29.5t-29.5 70.5z" />
<glyph unicode="&#xdd;" horiz-adv-x="1193" d="M-28 1291q0 25 8 32q196 -8 249 -8q96 0 256 8q4 -9 3.5 -33t-7.5 -24q-35 0 -77 -15.5t-42 -48.5q0 -20 23 -59l279 -481q67 120 149.5 286.5t110.5 231.5q6 18 6 30t-10 23t-43.5 21t-85.5 10q-4 0 -6 27t1 32q185 -10 199 -10q47 0 81.5 1.5t74.5 4.5t65 4 q3 -9 1.5 -34t-5.5 -25q-14 0 -29.5 -1.5t-47 -8t-58.5 -24.5t-43 -46q-70 -123 -317 -582q-9 -16 -9 -51v-10l-2 -310v-24q0 -90 9 -123q4 -15 56 -24t83 -9q6 -8 6.5 -28.5t-6.5 -28.5q-205 10 -234 10q-32 0 -237 -10q-7 8 -6.5 28.5t6.5 28.5q31 0 83 9t56 24 q10 33 10 147v304q0 27 -14 55q-63 113 -147.5 262t-137.5 244q-31 54 -59.5 83.5t-71.5 55.5q-24 14 -57.5 22.5t-54.5 8.5q-8 0 -8 25zM580 1475q0 11 95.5 108t145.5 133q12 6 37 6q92 0 92 -59q0 -32 -83 -83t-169 -87.5t-106 -36.5q-4 0 -8 7t-4 12z" />
<glyph unicode="&#xde;" horiz-adv-x="1095" d="M83.5 22.5q0.5 20.5 6.5 28.5q31 0 83 9t56 24q11 36 11 147v854q0 114 -11 150q-4 15 -55 23t-84 8q-6 8 -6.5 28.5t6.5 28.5q164 -8 238 -8q69 0 233 8q7 -8 6.5 -28.5t-6.5 -28.5q-33 0 -84 -8t-55 -23q-8 -29 -8 -125v-25v-124q34 23 87 37t87 17t61 3 q62 0 129 -24.5t125 -68.5t95.5 -114.5t37.5 -153.5q0 -182 -121 -291.5t-319 -109.5q-54 0 -86 16q-29 19 -29 43q0 4 3 8t8 3q57 -15 75 -15q124 0 204.5 84t80.5 230q0 147 -76 231t-201 84q-31 0 -79 -14t-68 -45q-14 -23 -14 -160v-490v-24q0 -94 8 -123q4 -15 56 -24 t83 -9q6 -8 6.5 -28.5t-6.5 -28.5q-205 10 -233 10q-33 0 -238 -10q-7 8 -6.5 28.5z" />
<glyph unicode="&#xdf;" horiz-adv-x="1073" d="M50.5 22.5q0.5 20.5 6.5 28.5q30 0 75.5 9t49.5 24q11 36 11 147v551h-117q-8 0 -8 19q0 5 21.5 30t29.5 33h74v13q0 119 51.5 238.5t132 195t158.5 75.5q73 0 135 -15t111.5 -46t77.5 -83t28 -120q0 -116 -119 -227q-18 -16 -55 -46.5t-54 -46t-33 -39t-16 -44.5 q0 -29 16 -56t48.5 -52t60.5 -41.5t72 -39.5q45 -23 75 -42.5t66 -51t55 -72.5t19 -90q0 -120 -76 -207t-188 -87q-85 0 -152 28t-84 58q0 4 1 13t1 13q3 44 18 67t48 23q13 0 25.5 -9t19 -17.5t19.5 -29t18 -28.5q35 -55 90 -55t90 44t35 118q0 32 -12 58t-40.5 49 t-50.5 36.5t-65 36.5q-38 21 -54.5 30t-49.5 30.5t-48.5 38.5t-35 43t-27.5 56t-8 66q0 30 15 59.5t31.5 48t50 51.5t50.5 52q94 101 94 238q0 100 -51.5 161.5t-144.5 61.5q-43 0 -76 -15.5t-53.5 -45t-34.5 -63t-20.5 -79t-8.5 -83.5t-2 -85v-719q0 -114 10 -147 q4 -15 54.5 -24t81.5 -9q6 -8 6.5 -28.5t-6.5 -28.5q-205 10 -224 10q-35 0 -67 -1.5t-74 -4.5t-70 -4q-7 8 -6.5 28.5z" />
<glyph unicode="&#xe0;" horiz-adv-x="860" d="M74 213q0 57 32 102.5t68 59.5q41 15 123 42.5t142 49t85 33.5q16 6 20.5 15t4.5 36v53q0 71 -50.5 132t-121.5 61q-50 0 -75 -31t-36 -94q-17 -97 -94 -97q-31 0 -49.5 25.5t-18.5 58.5q0 7 5 25t10 25q61 57 163 110t199 53q88 0 153.5 -80t65.5 -194v-412 q0 -94 62 -94q10 0 20 2.5t17.5 6t12.5 7t9.5 7.5t5.5 4q9 0 9 -17q0 -21 -11 -39q-24 -22 -72 -48.5t-77 -26.5q-41 0 -76 41t-45 90q-29 -29 -115.5 -82t-132.5 -53q-98 0 -165.5 66t-67.5 163zM184 1249q0 7 1.5 14t7.5 19t22.5 19.5t40.5 7.5q13 0 26.5 -4t20 -7.5 t8.5 -5.5q48 -61 120.5 -165t72.5 -113q0 -27 -17 -27q-11 0 -85 51.5t-146 116.5t-72 94zM240 231q0 -56 39.5 -97.5t95.5 -41.5q49 0 111.5 32.5t62.5 49.5v272q-154 -46 -187 -59q-122 -49 -122 -156z" />
<glyph unicode="&#xe1;" horiz-adv-x="860" d="M74 213q0 57 32 102.5t68 59.5q41 15 123 42.5t142 49t85 33.5q16 6 20.5 15t4.5 36v53q0 71 -50.5 132t-121.5 61q-50 0 -75 -31t-36 -94q-17 -97 -94 -97q-31 0 -49.5 25.5t-18.5 58.5q0 7 5 25t10 25q61 57 163 110t199 53q88 0 153.5 -80t65.5 -194v-412 q0 -94 62 -94q10 0 20 2.5t17.5 6t12.5 7t9.5 7.5t5.5 4q9 0 9 -17q0 -21 -11 -39q-24 -22 -72 -48.5t-77 -26.5q-41 0 -76 41t-45 90q-29 -29 -115.5 -82t-132.5 -53q-98 0 -165.5 66t-67.5 163zM240 231q0 -56 39.5 -97.5t95.5 -41.5q49 0 111.5 32.5t62.5 49.5v272 q-154 -46 -187 -59q-122 -49 -122 -156zM301 1014q0 9 72.5 113t120.5 165q2 2 8.5 5.5t20 7.5t26.5 4q24 0 40.5 -7.5t22.5 -19.5t7.5 -19t1.5 -14q0 -29 -72 -94t-146.5 -116.5t-85.5 -51.5q-16 0 -16 27z" />
<glyph unicode="&#xe2;" horiz-adv-x="860" d="M74 213q0 57 32 102.5t68 59.5q41 15 123 42.5t142 49t85 33.5q16 6 20.5 15t4.5 36v53q0 71 -50.5 132t-121.5 61q-50 0 -75 -31t-36 -94q-17 -97 -94 -97q-31 0 -49.5 25.5t-18.5 58.5q0 7 5 25t10 25q61 57 163 110t199 53q88 0 153.5 -80t65.5 -194v-412 q0 -94 62 -94q10 0 20 2.5t17.5 6t12.5 7t9.5 7.5t5.5 4q9 0 9 -17q0 -21 -11 -39q-24 -22 -72 -48.5t-77 -26.5q-41 0 -76 41t-45 90q-29 -29 -115.5 -82t-132.5 -53q-98 0 -165.5 66t-67.5 163zM233 1010q6 8 27 35t26.5 34.5t21.5 29t22.5 31t20.5 28.5t23 33t21 33 t25 40q11 18 22 18q12 0 23 -18q17 -27 33.5 -52t27.5 -41.5t30.5 -43t27.5 -37t33.5 -44.5t35.5 -46q0 -10 -7 -18.5t-15 -8.5l-189 154q-118 -99 -188 -154q-8 0 -14.5 8.5t-6.5 18.5zM240 231q0 -56 39.5 -97.5t95.5 -41.5q49 0 111.5 32.5t62.5 49.5v272 q-154 -46 -187 -59q-122 -49 -122 -156z" />
<glyph unicode="&#xe3;" horiz-adv-x="860" d="M74 213q0 57 32 102.5t68 59.5q41 15 123 42.5t142 49t85 33.5q16 6 20.5 15t4.5 36v53q0 71 -50.5 132t-121.5 61q-50 0 -75 -31t-36 -94q-17 -97 -94 -97q-31 0 -49.5 25.5t-18.5 58.5q0 7 5 25t10 25q61 57 163 110t199 53q88 0 153.5 -80t65.5 -194v-412 q0 -94 62 -94q10 0 20 2.5t17.5 6t12.5 7t9.5 7.5t5.5 4q9 0 9 -17q0 -21 -11 -39q-24 -22 -72 -48.5t-77 -26.5q-41 0 -76 41t-45 90q-29 -29 -115.5 -82t-132.5 -53q-98 0 -165.5 66t-67.5 163zM168 1030q0 36 25 74q56 72 122 72q49 0 123 -46q76 -49 115 -49q25 0 46 11 t32 24.5t21 27t14 15.5q12 0 12 -16q0 -35 -29 -78q-58 -74 -123 -74q-23 0 -46 7.5t-35.5 14.5t-38.5 23q-76 49 -119 49q-32 0 -54 -17t-34 -37.5t-15 -22.5q-16 0 -16 22zM240 231q0 -56 39.5 -97.5t95.5 -41.5q49 0 111.5 32.5t62.5 49.5v272q-154 -46 -187 -59 q-122 -49 -122 -156z" />
<glyph unicode="&#xe4;" horiz-adv-x="860" d="M74 213q0 57 32 102.5t68 59.5q41 15 123 42.5t142 49t85 33.5q16 6 20.5 15t4.5 36v53q0 71 -50.5 132t-121.5 61q-50 0 -75 -31t-36 -94q-17 -97 -94 -97q-31 0 -49.5 25.5t-18.5 58.5q0 7 5 25t10 25q61 57 163 110t199 53q88 0 153.5 -80t65.5 -194v-412 q0 -94 62 -94q10 0 20 2.5t17.5 6t12.5 7t9.5 7.5t5.5 4q9 0 9 -17q0 -21 -11 -39q-24 -22 -72 -48.5t-77 -26.5q-41 0 -76 41t-45 90q-29 -29 -115.5 -82t-132.5 -53q-98 0 -165.5 66t-67.5 163zM127 1092q0 36 29.5 64t66.5 28t64.5 -28.5t27.5 -65.5q0 -36 -28.5 -63.5 t-65.5 -27.5t-65.5 28t-28.5 65zM240 231q0 -56 39.5 -97.5t95.5 -41.5q49 0 111.5 32.5t62.5 49.5v272q-154 -46 -187 -59q-122 -49 -122 -156zM494 1092q0 36 29.5 64t66.5 28t64.5 -28.5t27.5 -65.5q0 -36 -28.5 -63.5t-65.5 -27.5t-65.5 28t-28.5 65z" />
<glyph unicode="&#xe5;" horiz-adv-x="860" d="M74 213q0 57 32 102.5t68 59.5q41 15 123 42.5t142 49t85 33.5q16 6 20.5 15t4.5 36v53q0 71 -50.5 132t-121.5 61q-50 0 -75 -31t-36 -94q-17 -97 -94 -97q-31 0 -49.5 25.5t-18.5 58.5q0 7 5 25t10 25q61 57 163 110t199 53q88 0 153.5 -80t65.5 -194v-412 q0 -94 62 -94q10 0 20 2.5t17.5 6t12.5 7t9.5 7.5t5.5 4q9 0 9 -17q0 -21 -11 -39q-24 -22 -72 -48.5t-77 -26.5q-41 0 -76 41t-45 90q-29 -29 -115.5 -82t-132.5 -53q-98 0 -165.5 66t-67.5 163zM240 231q0 -56 39.5 -97.5t95.5 -41.5q49 0 111.5 32.5t62.5 49.5v272 q-154 -46 -187 -59q-122 -49 -122 -156zM272 1174q0 73 52.5 125.5t124.5 52.5t123 -52t51 -126t-51 -127.5t-123 -53.5t-124.5 53.5t-52.5 127.5zM338 1174q0 -45 33 -78t78 -33q44 0 76 32.5t32 78.5t-32 78t-76 32q-45 0 -78 -32.5t-33 -77.5z" />
<glyph unicode="&#xe6;" horiz-adv-x="1304" d="M74 213q0 57 26.5 98t65.5 62q54 27 182.5 78t149.5 61q15 6 20 11.5t8 17.5q4 18 4 63q0 74 -42 133.5t-111 59.5q-50 0 -75 -32t-36 -95q-17 -95 -94 -95q-31 0 -49.5 25.5t-18.5 58.5q0 30 15 50q52 50 157.5 106.5t200.5 56.5q60 0 109 -35.5t78 -88.5q47 51 113 90 t143 39q68 0 123 -21t87 -52t53.5 -69.5t29.5 -71t8 -59.5q0 -46 -11 -69.5t-39 -24.5q-40 -3 -258 -8.5t-245 -5.5q-4 -183 90 -283t235 -100q73 0 131.5 34t89.5 70q1 0 5 -3t8 -10t4 -14q0 -16 -12 -36q-17 -26 -40.5 -51.5t-60 -54t-87 -46.5t-105.5 -18 q-98 0 -189.5 44t-140.5 126q-43 -45 -142 -107.5t-147 -62.5q-98 0 -165.5 66t-67.5 163zM240 231q0 -56 39.5 -97.5t95.5 -41.5q57 0 119.5 37.5t62.5 79.5q-23 49 -35 176q-4 46 -4 55q-30 -11 -90 -31l-66 -22q-56 -21 -89 -61t-33 -95zM678 569h326q44 0 47 47 q1 20 -8 49.5t-26.5 62t-52 55t-77.5 22.5q-47 0 -86 -24.5t-61.5 -59t-37.5 -69t-20.5 -59t-3.5 -24.5z" />
<glyph unicode="&#xe7;" horiz-adv-x="845" d="M78 387q0 105 46.5 199.5t118 156.5t156.5 98t164 36q109 0 180 -50q7 -7 14 -24t7 -31q0 -49 -22.5 -72.5t-53.5 -23.5q-19 0 -39.5 12.5t-43.5 33.5t-34 28q-34 23 -54.5 30.5t-57.5 7.5q-86 0 -156 -92t-70 -241q0 -167 90.5 -252.5t233.5 -85.5q73 0 127.5 32 t85.5 68q1 0 5 -3t7.5 -10t3.5 -14q0 -16 -12 -36q-36 -57 -105.5 -109.5t-162.5 -60.5l-25 -29h49q37 0 62.5 -29.5t25.5 -68.5q0 -69 -53 -110.5t-133 -41.5q-46 0 -70 16q0 1 -3 11.5t-3 17.5q0 10 10 19.5t19 9.5q11 0 34 -13.5t40 -13.5q40 0 63 19t23 47 q0 32 -19.5 49.5t-42.5 17.5q-21 0 -51 -12q-4 0 -13.5 10t-6.5 15q8 14 27 44.5t26 41.5q-112 4 -201.5 62t-137.5 148t-48 193z" />
<glyph unicode="&#xe8;" horiz-adv-x="858" d="M80 399q0 97 36.5 187.5t94 153t127 100t135.5 37.5q68 0 123 -21t87 -52t53.5 -69.5t29.5 -71t8 -59.5q0 -46 -10.5 -69.5t-38.5 -24.5q-40 -3 -258.5 -8.5t-245.5 -5.5q-4 -183 91.5 -283t236.5 -100q73 0 130 34t89 70q1 0 5 -3t7.5 -10t3.5 -14q0 -16 -12 -36 q-17 -26 -40.5 -51.5t-60 -54t-87 -46.5t-105.5 -18q-175 0 -287 118t-112 297zM215 1249q0 7 1.5 14t7.5 19t22.5 19.5t40.5 7.5q13 0 26.5 -4t20 -7.5t8.5 -5.5q48 -61 120.5 -165t72.5 -113q0 -27 -17 -27q-11 0 -85 51.5t-146 116.5t-72 94zM231 569h326q44 0 47 47 q1 20 -8 49.5t-26.5 62t-52 55t-77.5 22.5q-47 0 -86 -24.5t-61.5 -59t-37.5 -69t-20.5 -59t-3.5 -24.5z" />
<glyph unicode="&#xe9;" horiz-adv-x="858" d="M80 399q0 97 36.5 187.5t94 153t127 100t135.5 37.5q68 0 123 -21t87 -52t53.5 -69.5t29.5 -71t8 -59.5q0 -46 -10.5 -69.5t-38.5 -24.5q-40 -3 -258.5 -8.5t-245.5 -5.5q-4 -183 91.5 -283t236.5 -100q73 0 130 34t89 70q1 0 5 -3t7.5 -10t3.5 -14q0 -16 -12 -36 q-17 -26 -40.5 -51.5t-60 -54t-87 -46.5t-105.5 -18q-175 0 -287 118t-112 297zM231 569h326q44 0 47 47q1 20 -8 49.5t-26.5 62t-52 55t-77.5 22.5q-47 0 -86 -24.5t-61.5 -59t-37.5 -69t-20.5 -59t-3.5 -24.5zM352 1014q0 9 72.5 113t120.5 165q2 2 8.5 5.5t20 7.5t26.5 4 q24 0 40.5 -7.5t22.5 -19.5t7.5 -19t1.5 -14q0 -29 -72 -94t-146 -116.5t-85 -51.5q-17 0 -17 27z" />
<glyph unicode="&#xea;" horiz-adv-x="858" d="M80 399q0 97 36.5 187.5t94 153t127 100t135.5 37.5q68 0 123 -21t87 -52t53.5 -69.5t29.5 -71t8 -59.5q0 -46 -10.5 -69.5t-38.5 -24.5q-40 -3 -258.5 -8.5t-245.5 -5.5q-4 -183 91.5 -283t236.5 -100q73 0 130 34t89 70q1 0 5 -3t7.5 -10t3.5 -14q0 -16 -12 -36 q-17 -26 -40.5 -51.5t-60 -54t-87 -46.5t-105.5 -18q-175 0 -287 118t-112 297zM231 569h326q44 0 47 47q1 20 -8 49.5t-26.5 62t-52 55t-77.5 22.5q-47 0 -86 -24.5t-61.5 -59t-37.5 -69t-20.5 -59t-3.5 -24.5zM238 1010q52 69 71 93.5t51 71t64 99.5q11 18 22 18 q12 0 23 -18q17 -27 33.5 -52t27.5 -41.5t30.5 -43t27.5 -37t33.5 -44.5t35.5 -46q0 -10 -7 -18.5t-15 -8.5l-189 154q-118 -99 -188 -154q-8 0 -14 8.5t-6 18.5z" />
<glyph unicode="&#xeb;" horiz-adv-x="858" d="M80 399q0 97 36.5 187.5t94 153t127 100t135.5 37.5q68 0 123 -21t87 -52t53.5 -69.5t29.5 -71t8 -59.5q0 -46 -10.5 -69.5t-38.5 -24.5q-40 -3 -258.5 -8.5t-245.5 -5.5q-4 -183 91.5 -283t236.5 -100q73 0 130 34t89 70q1 0 5 -3t7.5 -10t3.5 -14q0 -16 -12 -36 q-17 -26 -40.5 -51.5t-60 -54t-87 -46.5t-105.5 -18q-175 0 -287 118t-112 297zM184 1092q0 36 30 64t67 28t64.5 -28.5t27.5 -65.5q0 -36 -28.5 -63.5t-65.5 -27.5t-66 28t-29 65zM231 569h326q44 0 47 47q1 20 -8 49.5t-26.5 62t-52 55t-77.5 22.5q-47 0 -86 -24.5 t-61.5 -59t-37.5 -69t-20.5 -59t-3.5 -24.5zM551 1092q0 36 29.5 64t66.5 28t64.5 -28.5t27.5 -65.5q0 -36 -28.5 -63.5t-65.5 -27.5t-65.5 28t-28.5 65z" />
<glyph unicode="&#xec;" horiz-adv-x="538" d="M41 1249q0 7 1.5 14t7.5 19t22.5 19.5t40.5 7.5q13 0 26.5 -4t20 -7.5t8.5 -5.5q48 -61 120 -165t72 -113q0 -27 -16 -27q-11 0 -85 51.5t-146 116.5t-72 94zM65.5 22.5q0.5 20.5 6.5 28.5q30 0 76.5 9t50.5 24q10 33 10 147v373q0 80 -10 105q-14 34 -129 34 q-4 4 -4.5 25t4.5 29q172 24 284 84q7 0 15 -12.5t8 -20.5q-15 -105 -15 -131v-486q0 -111 11 -147q4 -15 49.5 -24t75.5 -9q6 -8 6.5 -28.5t-6.5 -28.5q-205 10 -213 10t-213 -10q-7 8 -6.5 28.5z" />
<glyph unicode="&#xed;" horiz-adv-x="538" d="M65.5 22.5q0.5 20.5 6.5 28.5q30 0 76.5 9t50.5 24q10 33 10 147v373q0 80 -10 105q-14 34 -129 34q-4 4 -4.5 25t4.5 29q172 24 284 84q7 0 15 -12.5t8 -20.5q-15 -105 -15 -131v-486q0 -111 11 -147q4 -15 49.5 -24t75.5 -9q6 -8 6.5 -28.5t-6.5 -28.5q-205 10 -213 10 t-213 -10q-7 8 -6.5 28.5zM168 1014q0 9 72 113t120 165q2 2 9 5.5t20.5 7.5t26.5 4q24 0 40 -7.5t22 -19.5t7.5 -19t1.5 -14q0 -29 -72 -94t-146 -116.5t-85 -51.5q-16 0 -16 27z" />
<glyph unicode="&#xee;" horiz-adv-x="538" d="M65.5 22.5q0.5 20.5 6.5 28.5q30 0 76.5 9t50.5 24q10 33 10 147v373q0 80 -10 105q-14 34 -129 34q-4 4 -4.5 25t4.5 29q172 24 284 84q7 0 15 -12.5t8 -20.5q-15 -105 -15 -131v-486q0 -111 11 -147q4 -15 49.5 -24t75.5 -9q6 -8 6.5 -28.5t-6.5 -28.5q-205 10 -213 10 t-213 -10q-7 8 -6.5 28.5zM102 1010q6 8 27 35t26.5 34.5t21.5 29t22.5 31t20.5 28.5t23 33t21 33t25 40q11 18 22 18q12 0 23 -18q17 -27 33.5 -52t27.5 -41.5t30.5 -43t27.5 -37t33.5 -44.5t35.5 -46q0 -10 -7 -18.5t-15 -8.5l-189 154q-118 -99 -188 -154q-8 0 -14.5 8.5 t-6.5 18.5z" />
<glyph unicode="&#xef;" horiz-adv-x="542" d="M14 1092q0 39 31.5 68.5t71.5 29.5t69 -30t29 -70q0 -39 -30 -68t-70 -29t-70.5 29.5t-30.5 69.5zM65.5 22.5q0.5 20.5 6.5 28.5q30 0 76.5 9t50.5 24q10 33 10 147v373q0 80 -10 105q-14 34 -129 34q-4 4 -4.5 25t4.5 29q172 24 284 84q7 0 15 -12.5t8 -20.5 q-15 -105 -15 -131v-486q0 -111 11 -147q4 -15 49.5 -24t75.5 -9q6 -8 6.5 -28.5t-6.5 -28.5q-205 10 -213 10t-213 -10q-7 8 -6.5 28.5zM336 1092q0 39 31 68.5t71 29.5q39 0 68 -30t29 -70t-29.5 -68.5t-69.5 -28.5t-70 29.5t-30 69.5z" />
<glyph unicode="&#xf0;" horiz-adv-x="1032" d="M80 422q0 83 26 162.5t75.5 146t131 107.5t181.5 41q116 0 170 -33q-20 53 -38 91.5t-63.5 101t-105.5 114.5l-201 -135q-14 10 -29 32.5t-6 30.5l176 119q-95 70 -235 127q0 13 8.5 31t19.5 18q138 -30 281 -127l221 150q15 -9 30 -32.5t5 -31.5l-192 -131 q83 -63 159 -151q107 -125 168.5 -268t61.5 -291q0 -118 -34.5 -215.5t-92.5 -160.5t-131.5 -97.5t-153.5 -34.5q-198 0 -315 125t-117 311zM252 455q0 -100 32 -191.5t94 -152t140 -60.5q114 0 173 98t59 254q0 181 -39 254q-80 154 -242 154q-76 0 -126.5 -52t-70.5 -129 t-20 -175z" />
<glyph unicode="&#xf1;" horiz-adv-x="1062" d="M65.5 22.5q0.5 20.5 6.5 28.5q30 0 76.5 9t50.5 24q10 33 10 147v365q0 88 -10 113q-14 34 -129 34q-4 4 -4.5 25t4.5 29q172 24 284 84q7 0 15 -12.5t8 -20.5q-12 -84 -12 -115q0 -8 4 -8q2 0 6 4q44 46 125.5 97t144.5 51q64 0 109.5 -17t74.5 -48t45.5 -84.5 t22.5 -118t6 -156.5v-222q0 -114 10 -147q4 -15 49.5 -24t75.5 -9q6 -8 6.5 -28.5t-6.5 -28.5q-205 10 -213 10t-213 -10q-7 8 -6.5 28.5t6.5 28.5q30 0 76.5 9t50.5 24q11 36 11 147v201q0 188 -40.5 258t-156.5 70q-34 0 -81 -24t-78.5 -50.5t-31.5 -36.5v-418 q0 -111 11 -147q4 -15 49.5 -24t75.5 -9q6 -8 6.5 -28.5t-6.5 -28.5q-205 10 -213 10t-213 -10q-7 8 -6.5 28.5zM274 1034q0 36 25 74q56 72 123 72q51 0 123 -45q78 -50 114 -50q25 0 46 11t32 24.5t21 27t14 15.5q12 0 12 -16q0 -36 -28 -78q-58 -74 -123 -74 q-49 0 -121 45q-78 50 -119 50q-32 0 -53.5 -17.5t-33.5 -38t-15 -22.5q-8 0 -12.5 7.5t-4.5 14.5z" />
<glyph unicode="&#xf2;" horiz-adv-x="1017" d="M82 426q0 193 122 323t304 130q195 0 311.5 -123t116.5 -314q0 -194 -121.5 -325t-302.5 -131q-195 0 -312.5 124.5t-117.5 315.5zM254 467q0 -101 31 -194t96 -157.5t151 -64.5q81 0 135 52t75.5 126.5t21.5 165.5q0 74 -19 147.5t-53.5 133.5t-88.5 97.5t-118 37.5 q-61 0 -107.5 -29t-72.5 -79t-38.5 -109t-12.5 -127zM317 1249q0 7 1.5 14t7.5 19t22.5 19.5t40.5 7.5q13 0 26.5 -4t20 -7.5t8.5 -5.5q48 -61 120.5 -165t72.5 -113q0 -27 -16 -27q-11 0 -85.5 51.5t-146.5 116.5t-72 94z" />
<glyph unicode="&#xf3;" horiz-adv-x="1017" d="M82 426q0 193 122 323t304 130q195 0 311.5 -123t116.5 -314q0 -194 -121.5 -325t-302.5 -131q-195 0 -312.5 124.5t-117.5 315.5zM254 467q0 -101 31 -194t96 -157.5t151 -64.5q81 0 135 52t75.5 126.5t21.5 165.5q0 74 -19 147.5t-53.5 133.5t-88.5 97.5t-118 37.5 q-61 0 -107.5 -29t-72.5 -79t-38.5 -109t-12.5 -127zM428 1014q0 9 72.5 113t120.5 165q2 2 8.5 5.5t20 7.5t26.5 4q24 0 40.5 -7.5t22.5 -19.5t7.5 -19t1.5 -14q0 -29 -72 -94t-146.5 -116.5t-85.5 -51.5q-16 0 -16 27z" />
<glyph unicode="&#xf4;" horiz-adv-x="1017" d="M82 426q0 193 122 323t304 130q195 0 311.5 -123t116.5 -314q0 -194 -121.5 -325t-302.5 -131q-195 0 -312.5 124.5t-117.5 315.5zM254 467q0 -101 31 -194t96 -157.5t151 -64.5q81 0 135 52t75.5 126.5t21.5 165.5q0 74 -19 147.5t-53.5 133.5t-88.5 97.5t-118 37.5 q-61 0 -107.5 -29t-72.5 -79t-38.5 -109t-12.5 -127zM305 1010q6 8 27 35t26.5 34.5t21.5 29t22.5 31t20.5 28.5t23 33t21 33t25 40q11 18 22 18q12 0 23 -18q17 -27 33.5 -52t27.5 -41.5t30.5 -43t27.5 -37t33.5 -44.5t35.5 -46q0 -10 -7.5 -18.5t-15.5 -8.5l-188 154 q-118 -99 -188 -154q-8 0 -14.5 8.5t-6.5 18.5z" />
<glyph unicode="&#xf5;" horiz-adv-x="1017" d="M82 426q0 193 122 323t304 130q195 0 311.5 -123t116.5 -314q0 -194 -121.5 -325t-302.5 -131q-195 0 -312.5 124.5t-117.5 315.5zM254 467q0 -101 31 -194t96 -157.5t151 -64.5q81 0 135 52t75.5 126.5t21.5 165.5q0 74 -19 147.5t-53.5 133.5t-88.5 97.5t-118 37.5 q-61 0 -107.5 -29t-72.5 -79t-38.5 -109t-12.5 -127zM264 1032q0 36 25 74q56 72 123 72q51 0 123 -45q78 -50 114 -50q25 0 46 11t32 24.5t21 27t14 15.5q12 0 12 -16q0 -35 -29 -78q-58 -74 -122 -74q-49 0 -121 45q-76 49 -119 49q-32 0 -53.5 -17t-33.5 -37.5t-15 -22.5 q-8 0 -12.5 7.5t-4.5 14.5z" />
<glyph unicode="&#xf6;" horiz-adv-x="1017" d="M82 426q0 193 122 323t304 130q195 0 311.5 -123t116.5 -314q0 -194 -121.5 -325t-302.5 -131q-195 0 -312.5 124.5t-117.5 315.5zM231 1092q0 36 30 64t67 28t64.5 -28.5t27.5 -65.5q0 -36 -28.5 -63.5t-65.5 -27.5t-66 28t-29 65zM254 467q0 -101 31 -194t96 -157.5 t151 -64.5q81 0 135 52t75.5 126.5t21.5 165.5q0 74 -19 147.5t-53.5 133.5t-88.5 97.5t-118 37.5q-61 0 -107.5 -29t-72.5 -79t-38.5 -109t-12.5 -127zM598 1092q0 36 29.5 64t66.5 28t64.5 -28.5t27.5 -65.5q0 -36 -28.5 -63.5t-65.5 -27.5t-65.5 28t-28.5 65z" />
<glyph unicode="&#xf7;" horiz-adv-x="1196" d="M121 459q0 14 9 48t24 44h909q16 0 16 -25q0 -24 -9 -50t-21 -38h-918q-10 1 -10 21zM504 111q0 41 29.5 70.5t70.5 29.5t71 -29.5t30 -70.5t-30 -71t-71 -30t-70.5 30t-29.5 71zM504 877q0 41 29.5 70.5t70.5 29.5t71 -29.5t30 -70.5t-30 -71t-71 -30t-70.5 30t-29.5 71 z" />
<glyph unicode="&#xf8;" horiz-adv-x="1017" d="M84 426q0 193 122 323t304 130q115 0 207 -45l26 40q8 -3 16 -7t19 -10.5t17 -12.5t4 -10l-23 -37q77 -59 119.5 -151t42.5 -204q0 -194 -121.5 -325t-302.5 -131q-126 0 -221 53l-35 -55q-21 10 -39 22.5t-14 20.5l33 51q-74 60 -114 150t-40 198zM256 467 q0 -149 61 -262l336 526q-73 80 -166 80q-61 0 -107.5 -29t-72.5 -79t-38.5 -109t-12.5 -127zM358 141q74 -90 177 -90q61 0 107.5 29.5t72.5 79.5t38.5 109t12.5 126q0 156 -70 277z" />
<glyph unicode="&#xf9;" horiz-adv-x="1028" d="M27.5 812.5q-0.5 19.5 5.5 27.5q166 7 274 41q7 0 15 -16t8 -25q-15 -30 -15 -138v-294q0 -160 48.5 -235t152.5 -75q64 0 123 37.5t59 73.5v430v8q0 72 -14 101q-22 40 -113 40q-5 5 -5.5 24.5t5.5 27.5q167 7 275 41q7 0 13.5 -20t6.5 -30q-12 -24 -12 -129v-419 q0 -99 12 -154q2 -7 6.5 -12.5t13.5 -9t16 -5.5t19.5 -3.5t18.5 -2.5t18.5 -1.5t14.5 -0.5h12q6 -3 6 -22q0 -6 -5 -18.5t-11 -12.5q-29 -2 -66.5 -8.5t-70 -14.5t-60.5 -15.5t-46 -12.5l-17 -6q-7 0 -12 10.5t-5 21.5v93l-4 10q-46 -49 -128.5 -91t-153.5 -42 q-61 0 -107.5 26t-73 65.5t-42.5 95t-21.5 105.5t-5.5 107v254q0 76 -17 109q-22 40 -112 40q-5 5 -5.5 24.5zM258 1249q0 7 1.5 14t7.5 19t22.5 19.5t40.5 7.5q13 0 26.5 -4t20 -7.5t8.5 -5.5q48 -61 120.5 -165t72.5 -113q0 -27 -17 -27q-11 0 -85 51.5t-146 116.5t-72 94 z" />
<glyph unicode="&#xfa;" horiz-adv-x="1028" d="M27.5 812.5q-0.5 19.5 5.5 27.5q166 7 274 41q7 0 15 -16t8 -25q-15 -30 -15 -138v-294q0 -160 48.5 -235t152.5 -75q64 0 123 37.5t59 73.5v430v8q0 72 -14 101q-22 40 -113 40q-5 5 -5.5 24.5t5.5 27.5q167 7 275 41q7 0 13.5 -20t6.5 -30q-12 -24 -12 -129v-419 q0 -99 12 -154q2 -7 6.5 -12.5t13.5 -9t16 -5.5t19.5 -3.5t18.5 -2.5t18.5 -1.5t14.5 -0.5h12q6 -3 6 -22q0 -6 -5 -18.5t-11 -12.5q-29 -2 -66.5 -8.5t-70 -14.5t-60.5 -15.5t-46 -12.5l-17 -6q-7 0 -12 10.5t-5 21.5v93l-4 10q-46 -49 -128.5 -91t-153.5 -42 q-61 0 -107.5 26t-73 65.5t-42.5 95t-21.5 105.5t-5.5 107v254q0 76 -17 109q-22 40 -112 40q-5 5 -5.5 24.5zM440 1014q0 9 72.5 113t120.5 165q2 2 8.5 5.5t20 7.5t26.5 4q24 0 40.5 -7.5t22.5 -19.5t7.5 -19t1.5 -14q0 -29 -72 -94t-146 -116.5t-85 -51.5q-17 0 -17 27z " />
<glyph unicode="&#xfb;" horiz-adv-x="1028" d="M27.5 812.5q-0.5 19.5 5.5 27.5q166 7 274 41q7 0 15 -16t8 -25q-15 -30 -15 -138v-294q0 -160 48.5 -235t152.5 -75q64 0 123 37.5t59 73.5v430v8q0 72 -14 101q-22 40 -113 40q-5 5 -5.5 24.5t5.5 27.5q167 7 275 41q7 0 13.5 -20t6.5 -30q-12 -24 -12 -129v-419 q0 -99 12 -154q2 -7 6.5 -12.5t13.5 -9t16 -5.5t19.5 -3.5t18.5 -2.5t18.5 -1.5t14.5 -0.5h12q6 -3 6 -22q0 -6 -5 -18.5t-11 -12.5q-29 -2 -66.5 -8.5t-70 -14.5t-60.5 -15.5t-46 -12.5l-17 -6q-7 0 -12 10.5t-5 21.5v93l-4 10q-46 -49 -128.5 -91t-153.5 -42 q-61 0 -107.5 26t-73 65.5t-42.5 95t-21.5 105.5t-5.5 107v254q0 76 -17 109q-22 40 -112 40q-5 5 -5.5 24.5zM299 1010q52 69 71 93.5t51 71t64 99.5q11 18 23 18q11 0 22 -18q20 -32 37 -58.5t38 -55t32 -43.5t40.5 -53t41.5 -54q0 -10 -7.5 -18.5t-15.5 -8.5l-188 154 q-119 -99 -189 -154q-8 0 -14 8.5t-6 18.5z" />
<glyph unicode="&#xfc;" horiz-adv-x="1028" d="M27.5 812.5q-0.5 19.5 5.5 27.5q166 7 274 41q7 0 15 -16t8 -25q-15 -30 -15 -138v-294q0 -160 48.5 -235t152.5 -75q64 0 123 37.5t59 73.5v430v8q0 72 -14 101q-22 40 -113 40q-5 5 -5.5 24.5t5.5 27.5q167 7 275 41q7 0 13.5 -20t6.5 -30q-12 -24 -12 -129v-419 q0 -99 12 -154q2 -7 6.5 -12.5t13.5 -9t16 -5.5t19.5 -3.5t18.5 -2.5t18.5 -1.5t14.5 -0.5h12q6 -3 6 -22q0 -6 -5 -18.5t-11 -12.5q-29 -2 -66.5 -8.5t-70 -14.5t-60.5 -15.5t-46 -12.5l-17 -6q-7 0 -12 10.5t-5 21.5v93l-4 10q-46 -49 -128.5 -91t-153.5 -42 q-61 0 -107.5 26t-73 65.5t-42.5 95t-21.5 105.5t-5.5 107v254q0 76 -17 109q-22 40 -112 40q-5 5 -5.5 24.5zM211 1092q0 36 29.5 64t66.5 28t64.5 -28.5t27.5 -65.5q0 -36 -28.5 -63.5t-65.5 -27.5t-65.5 28t-28.5 65zM578 1092q0 36 29.5 64t66.5 28t64.5 -28.5 t27.5 -65.5q0 -36 -28.5 -63.5t-65.5 -27.5t-65.5 28t-28.5 65z" />
<glyph unicode="&#xfd;" horiz-adv-x="937" d="M-1 830q0 27 3 30q97 -10 201 -10q113 0 200 10q4 -9 1.5 -33t-9.5 -24q-9 0 -22 -1.5t-31.5 -4.5t-31.5 -10.5t-13 -18.5q0 -4 2 -8l213 -541q100 267 176 455q12 30 12 63q0 30 -31 48t-83 18q-8 0 -8 24.5t8 32.5q78 -10 180 -10q66 0 168 10q6 -9 3 -33t-9 -24 q-24 0 -67.5 -17.5t-59.5 -52.5q-127 -302 -299 -721q-10 -26 -34.5 -89.5t-38 -97.5t-38 -83t-49.5 -86q-35 -52 -80.5 -82.5t-93.5 -30.5q-86 0 -86 86q0 34 22 60q82 0 126.5 18.5t101.5 93.5q21 29 54.5 105t39.5 98q-16 41 -53 135.5t-53 135t-47 117.5t-52 126.5 t-50 115.5t-58 128q-20 41 -107 41h-4q-3 0 -3 27zM465 1014q0 9 72 113t120 165q2 2 9 5.5t20.5 7.5t26.5 4q24 0 40 -7.5t22 -19.5t7.5 -19t1.5 -14q0 -29 -72 -94t-146 -116.5t-85 -51.5q-16 0 -16 27z" />
<glyph unicode="&#xfe;" horiz-adv-x="989" d="M-0.5 -423q0.5 22 6.5 30q31 0 77 8t50 23q10 33 10 149v1329q0 80 -10 105q-14 34 -123 34q-1 0 -2 13t-0.5 26.5t4.5 14.5q144 14 285 80q7 0 14.5 -11t7.5 -22q-22 -63 -22 -174v-414q0 -10 4 -10q2 0 6 4q45 40 117.5 77.5t126.5 37.5q88 0 160 -39.5t114.5 -102.5 t65 -133t22.5 -137q0 -94 -42 -183.5t-108 -154t-151 -104t-168 -39.5q-66 0 -139 22q-8 -10 -8 -26v-193q0 -116 10 -149q4 -15 49 -23t76 -8q6 -8 6.5 -30t-6.5 -30q-16 1 -91.5 6t-121.5 5q-34 0 -67.5 -2t-74.5 -5t-71 -4q-7 8 -6.5 30zM297 201q0 -48 33 -83.5 t73.5 -50t79.5 -14.5q79 0 140.5 51t91.5 126.5t30 158.5q0 172 -80.5 270.5t-199.5 98.5q-59 0 -113.5 -27.5t-54.5 -50.5v-479z" />
<glyph unicode="&#xff;" horiz-adv-x="937" d="M-1 830q0 27 3 30q97 -10 201 -10q113 0 200 10q4 -9 1.5 -33t-9.5 -24q-9 0 -22 -1.5t-31.5 -4.5t-31.5 -10.5t-13 -18.5q0 -4 2 -8l213 -541q100 267 176 455q12 30 12 63q0 30 -31 48t-83 18q-8 0 -8 24.5t8 32.5q78 -10 180 -10q66 0 168 10q6 -9 3 -33t-9 -24 q-24 0 -67.5 -17.5t-59.5 -52.5q-127 -302 -299 -721q-10 -26 -34.5 -89.5t-38 -97.5t-38 -83t-49.5 -86q-35 -52 -80.5 -82.5t-93.5 -30.5q-86 0 -86 86q0 34 22 60q82 0 126.5 18.5t101.5 93.5q21 29 54.5 105t39.5 98q-16 41 -53 135.5t-53 135t-47 117.5t-52 126.5 t-50 115.5t-58 128q-20 41 -107 41h-4q-3 0 -3 27zM225 1092q0 36 30 64t67 28t64.5 -28.5t27.5 -65.5q0 -36 -29 -63.5t-66 -27.5t-65.5 28t-28.5 65zM592 1092q0 36 29.5 64t66.5 28t64.5 -28.5t27.5 -65.5q0 -36 -28.5 -63.5t-65.5 -27.5t-65.5 28t-28.5 65z" />
<glyph unicode="&#x152;" horiz-adv-x="2033" d="M98 655q0 183 88.5 340t235 247.5t313.5 90.5q37 0 119 -6q244 -14 332 -12q90 0 311.5 6t333.5 6q8 -58 30.5 -153t26.5 -117q-10 -10 -37 -10q-23 0 -26 14q-30 111 -86.5 148.5t-147.5 37.5h-172q-131 0 -137 -20q-10 -33 -10 -144v-372q0 -13 86 -13h106 q132 0 161.5 18t51.5 104q4 14 6 22q3 14 31 14q25 0 35 -10v-377q-8 -8 -33 -8q-27 0 -33 14q-22 81 -31 102t-24 31q-28 17 -213 17q-143 0 -143 -19v-381q0 -127 12 -137q19 -14 44.5 -17t96.5 -3h97q73 0 142.5 14.5t109.5 40.5q42 26 69 73t58 128q3 12 26 12 q39 0 51 -12q-8 -21 -30.5 -82.5t-34 -94.5t-25 -78.5t-18.5 -76.5q-102 0 -322.5 4t-359.5 4q-150 0 -236 -6q-124 -8 -227 -8q-130 0 -246 52t-199.5 141.5t-132.5 213.5t-49 262zM297 700q0 -94 20 -186.5t60 -176.5t96.5 -149t134.5 -103t168 -38q224 0 275 80 q22 34 33 75t12.5 73t1.5 100v614q0 122 -70 197q-46 48 -119.5 64t-193.5 16q-84 0 -154.5 -33t-118.5 -88.5t-81.5 -129.5t-48.5 -153.5t-15 -161.5z" />
<glyph unicode="&#x153;" horiz-adv-x="1554" d="M82 426q0 193 122 323t304 130q121 0 214 -49.5t148 -137.5q60 86 140.5 135.5t158.5 49.5q68 0 123 -21t87 -52t53.5 -69.5t29.5 -71t8 -59.5q0 -46 -10.5 -69.5t-38.5 -24.5q-125 -5 -503 -14q0 -85 20.5 -152.5t52.5 -110t76 -70.5t87 -39t89 -11q73 0 131.5 34 t89.5 70q1 0 5 -3t8 -10t4 -14q0 -14 -13 -36q-17 -26 -40.5 -51.5t-60 -54t-86.5 -46.5t-105 -18q-106 0 -191.5 45.5t-138.5 126.5q-58 -79 -145.5 -124.5t-188.5 -45.5q-195 0 -312.5 124.5t-117.5 315.5zM254 467q0 -101 31 -194t96 -157.5t151 -64.5q81 0 135 52 t75.5 126.5t21.5 165.5q0 74 -19 147.5t-53.5 133.5t-88.5 97.5t-118 37.5q-61 0 -107.5 -29t-72.5 -79t-38.5 -109t-12.5 -127zM928 569h325q44 0 47 47q1 20 -8 49.5t-26.5 62t-51.5 55t-77 22.5q-47 0 -86 -24.5t-61.5 -59t-37.5 -69t-20.5 -59t-3.5 -24.5z" />
<glyph unicode="&#x178;" horiz-adv-x="1193" d="M-28 1291q0 25 8 32q196 -8 249 -8q96 0 256 8q4 -9 3.5 -33t-7.5 -24q-35 0 -77 -15.5t-42 -48.5q0 -20 23 -59l279 -481q67 120 149.5 286.5t110.5 231.5q6 18 6 30t-10 23t-43.5 21t-85.5 10q-4 0 -6 27t1 32q185 -10 199 -10q47 0 81.5 1.5t74.5 4.5t65 4 q3 -9 1.5 -34t-5.5 -25q-14 0 -29.5 -1.5t-47 -8t-58.5 -24.5t-43 -46q-70 -123 -317 -582q-9 -16 -9 -51v-10l-2 -310v-24q0 -90 9 -123q4 -15 56 -24t83 -9q6 -8 6.5 -28.5t-6.5 -28.5q-205 10 -234 10q-32 0 -237 -10q-7 8 -6.5 28.5t6.5 28.5q31 0 83 9t56 24 q10 33 10 147v304q0 27 -14 55q-63 113 -147.5 262t-137.5 244q-31 54 -59.5 83.5t-71.5 55.5q-24 14 -57.5 22.5t-54.5 8.5q-8 0 -8 25zM356 1556q0 41 30 71t71 30t70.5 -30t29.5 -71t-29.5 -70.5t-70.5 -29.5t-71 29.5t-30 70.5zM719 1556q0 41 29.5 71t70.5 30t71 -30 t30 -71t-30 -70.5t-71 -29.5t-70.5 29.5t-29.5 70.5z" />
<glyph unicode="&#x2c6;" horiz-adv-x="618" d="M100 1061q6 8 27 35t26.5 34.5t21.5 29t22.5 31t20.5 28.5t23 33t21 33t25 40q11 18 22 18q12 0 23 -18q17 -27 33.5 -52t27.5 -41.5t30.5 -43t27.5 -37t33.5 -44.5t35.5 -46q0 -10 -7 -18.5t-15 -8.5l-189 154q-118 -99 -188 -154q-8 0 -14.5 8.5t-6.5 18.5z" />
<glyph unicode="&#x2dc;" horiz-adv-x="708" d="M100 1047q0 35 25 73q56 72 123 72q51 0 123 -45q76 -49 114 -49q25 0 46 11t32 24.5t21 27t14 15.5q12 0 12 -17q0 -36 -28 -78q-57 -73 -123 -73q-49 0 -121 45q-76 49 -119 49q-32 0 -53.5 -17.5t-33.5 -38t-15 -22.5q-8 0 -12.5 7.5t-4.5 15.5z" />
<glyph unicode="&#x2000;" horiz-adv-x="861" />
<glyph unicode="&#x2001;" horiz-adv-x="1722" />
<glyph unicode="&#x2002;" horiz-adv-x="861" />
<glyph unicode="&#x2003;" horiz-adv-x="1722" />
<glyph unicode="&#x2004;" horiz-adv-x="574" />
<glyph unicode="&#x2005;" horiz-adv-x="430" />
<glyph unicode="&#x2006;" horiz-adv-x="287" />
<glyph unicode="&#x2007;" horiz-adv-x="287" />
<glyph unicode="&#x2008;" horiz-adv-x="215" />
<glyph unicode="&#x2009;" horiz-adv-x="344" />
<glyph unicode="&#x200a;" horiz-adv-x="95" />
<glyph unicode="&#x2010;" horiz-adv-x="753" d="M117 420q0 49 24 102q418 23 484 25q14 0 14 -19q0 -49 -27 -108q-89 -6 -483 -23q-7 0 -9.5 4.5t-2.5 18.5z" />
<glyph unicode="&#x2011;" horiz-adv-x="753" d="M117 420q0 49 24 102q418 23 484 25q14 0 14 -19q0 -49 -27 -108q-89 -6 -483 -23q-7 0 -9.5 4.5t-2.5 18.5z" />
<glyph unicode="&#x2012;" horiz-adv-x="753" d="M117 420q0 49 24 102q418 23 484 25q14 0 14 -19q0 -49 -27 -108q-89 -6 -483 -23q-7 0 -9.5 4.5t-2.5 18.5z" />
<glyph unicode="&#x2013;" horiz-adv-x="1126" d="M121 418q0 5 1 19t3.5 35t8 36.5t13.5 15.5h850q13 0 13 -18q0 -13 -3 -29t-6 -27.5t-6.5 -23t-3.5 -12.5q-2 -5 -5 -9t-5 -5l-2 -1h-848q-10 -1 -10 19z" />
<glyph unicode="&#x2014;" horiz-adv-x="1710" d="M121 438q0 5 1 19t3.5 35.5t8 37t13.5 15.5h1432q12 0 12 -19q0 -36 -14 -92q-2 -5 -6 -8.5t-7 -4.5l-3 -1h-1430h-2.5t-4.5 4.5t-3 13.5z" />
<glyph unicode="&#x2018;" horiz-adv-x="419" d="M88 1094q0 63 25 123.5t61 102t75 73.5t67 47.5t36 15.5q31 0 47 -43q-50 -30 -86.5 -66t-52.5 -67t-22.5 -51.5t-6.5 -32.5q0 -13 6.5 -26.5t13 -22t20.5 -24.5t20 -23q39 -42 39 -76q0 -42 -49.5 -73t-108.5 -31q-15 0 -47 8q-17 24 -27 72t-10 94z" />
<glyph unicode="&#x2019;" horiz-adv-x="419" d="M70 967q50 30 86.5 66t52.5 67t22.5 51.5t6.5 32.5q0 13 -6.5 26.5t-13 22t-20.5 24.5t-20 23q-39 42 -39 76q0 42 49.5 73t108.5 31q15 0 47 -8q17 -24 27 -72t10 -94q0 -63 -25 -123.5t-61 -102t-75 -73.5t-67 -47.5t-36 -15.5q-31 0 -47 43z" />
<glyph unicode="&#x201a;" horiz-adv-x="419" d="M39 -197q50 30 86.5 66t52.5 67t22.5 51.5t6.5 32.5q0 13 -6.5 27t-12.5 22t-21 24.5t-20 23.5q-38 41 -38 76q0 42 49 73t108 31q15 0 47 -8q17 -24 27 -72t10 -94q0 -63 -25 -123.5t-61 -102t-75 -74t-67 -48t-36 -15.5q-31 0 -47 43z" />
<glyph unicode="&#x201c;" horiz-adv-x="757" d="M88 1094q0 63 25 123.5t61 102t75 73.5t67 47.5t36 15.5q31 0 47 -43q-50 -30 -86.5 -66t-52.5 -67t-22.5 -51.5t-6.5 -32.5q0 -13 6.5 -26.5t13 -22t20.5 -24.5t20 -23q39 -42 39 -76q0 -42 -49.5 -73t-108.5 -31q-15 0 -47 8q-17 24 -27 72t-10 94zM426 1094 q0 63 25 123.5t61 102t75 73.5t67 47.5t36 15.5q31 0 47 -43q-50 -30 -86.5 -66t-52.5 -67t-22.5 -51.5t-6.5 -32.5q0 -13 6.5 -26.5t13 -22t20.5 -24.5t20 -23q39 -42 39 -76q0 -42 -49.5 -73t-108.5 -31q-15 0 -47 8q-17 24 -27 72t-10 94z" />
<glyph unicode="&#x201d;" horiz-adv-x="757" d="M72 963q50 30 86.5 66t52.5 67t22.5 51.5t6.5 32.5q0 13 -6.5 26.5t-13 22t-20.5 24.5t-20 23q-39 42 -39 76q0 42 49.5 73t108.5 31q15 0 47 -8q17 -24 27 -72t10 -94q0 -63 -25 -123.5t-61 -102t-75 -73.5t-67 -47.5t-36 -15.5q-31 0 -47 43zM410 963q50 30 86.5 66 t52.5 67t22.5 51.5t6.5 32.5q0 13 -6.5 26.5t-13 22t-20.5 24.5t-20 23q-39 42 -39 76q0 42 49.5 73t108.5 31q15 0 47 -8q17 -24 27 -72t10 -94q0 -63 -25 -123.5t-61 -102t-75 -73.5t-67 -47.5t-36 -15.5q-31 0 -47 43z" />
<glyph unicode="&#x201e;" horiz-adv-x="757" d="M41 -201q50 30 86.5 66t52.5 67t22.5 51.5t6.5 32.5q0 13 -6.5 27t-12 22t-20.5 25t-20 23q-39 42 -39 75q0 42 49 73.5t108 31.5q15 0 47 -8q17 -24 27 -72t10 -94q0 -63 -25 -123.5t-61 -102t-75 -74t-67 -48t-36 -15.5q-31 0 -47 43zM379 -201q50 30 86.5 66t52.5 67 t22.5 51.5t6.5 32.5q0 13 -6.5 27t-12.5 22t-21 24.5t-20 23.5q-38 41 -38 75q0 42 49 73.5t108 31.5q15 0 47 -8q17 -24 27 -72t10 -94q0 -63 -25 -123.5t-61 -102t-75 -74t-67 -48t-36 -15.5q-31 0 -47 43z" />
<glyph unicode="&#x2022;" horiz-adv-x="749" d="M160 526q0 89 64 152t153 63t151 -63t62 -152q0 -90 -62 -153.5t-151 -63.5t-153 64t-64 153z" />
<glyph unicode="&#x2026;" horiz-adv-x="1675" d="M96 90q0 47 35 81t82 34t81 -34t34 -81q0 -48 -34 -83.5t-81 -35.5t-82 36t-35 83zM723 90q0 47 35 81t82 34t80.5 -34t33.5 -81q0 -48 -33.5 -83.5t-80.5 -35.5t-82 36t-35 83zM1348 90q0 47 35 81t83 34q47 0 80 -34t33 -81q0 -48 -33 -83.5t-80 -35.5t-82.5 36 t-35.5 83z" />
<glyph unicode="&#x202f;" horiz-adv-x="344" />
<glyph unicode="&#x2039;" horiz-adv-x="616" d="M59 481q0 37 17 56q117 70 223.5 151.5t137.5 110t50 47.5q48 -13 48 -37q0 -12 -18 -31t-105 -102q-25 -24 -93.5 -96t-82.5 -86l174 -181q21 -21 40 -39.5t30.5 -29t22 -20t15 -14.5t8.5 -10.5t5 -9t1 -8.5q0 -9 -6 -15.5t-12.5 -10t-16.5 -7t-12 -4.5q-3 5 -39 38 t-138 110t-234 162q-15 6 -15 26z" />
<glyph unicode="&#x203a;" horiz-adv-x="614" d="M86 809q0 9 6 15.5t12 10t15.5 7t11.5 4.5q18 -18 51 -48t139 -110.5t222 -150.5q16 -18 16 -56q0 -20 -14 -26q-116 -75 -212.5 -146.5t-139.5 -108.5t-60 -55q-45 12 -45 37q0 7 2.5 12.5t12 15.5t20.5 20t36 34t50 49l174 181q-14 14 -82.5 86t-93.5 96 q-90 87 -105.5 104t-15.5 29z" />
<glyph unicode="&#x205f;" horiz-adv-x="430" />
<glyph unicode="&#x20ac;" horiz-adv-x="1415" d="M72 477q-10 0 0 31q12 42 32 65h80q-2 14 -2 45q0 28 4 82h-114q-10 0 0 29q13 46 32 68h101q57 212 228 347.5t401 135.5q219 0 405 -41q43 -263 43 -283q0 -28 -39 -28q-21 0 -26 8q-4 19 -8 34t-16.5 45.5t-28.5 53.5t-45.5 51t-66 46.5t-91.5 31t-121 12.5 q-169 0 -290.5 -119.5t-160.5 -293.5h500q11 0 0 -33q-11 -39 -33 -64h-481q-2 -14 -2 -43q0 -26 4 -84h512q10 0 0 -30q-12 -42 -33 -66h-463q43 -183 166.5 -300.5t312.5 -117.5q302 0 371 308q12 0 27.5 -3.5t25.5 -7.5l9 -4q0 -36 -25 -148.5t-43 -129.5 q-155 -86 -412 -86q-240 0 -409.5 138t-216.5 351h-127z" />
<glyph unicode="&#x25fc;" horiz-adv-x="860" d="M0 0v860h860v-860h-860z" />
<glyph unicode="&#xfb01;" horiz-adv-x="1062" d="M50.5 22.5q0.5 20.5 6.5 28.5q30 0 75.5 9t49.5 24q11 36 11 147v525h-117q-4 0 -4 18q0 11 19.5 37.5t37.5 26.5h64v30q0 116 54 237t151.5 205.5t207.5 84.5q63 0 123 -29.5t96 -67.5q66 -66 66 -129q0 -33 -25.5 -57.5t-62.5 -24.5q-64 0 -92 72q-28 73 -33 80 q-23 32 -49 46.5t-76 14.5q-56 0 -104.5 -54.5t-75.5 -138.5t-27 -173v-96h232q209 0 299 28q1 0 5 1t5 1q8 0 10.5 -18t-0.5 -25q-10 -79 -10 -143v-451q0 -114 10 -147q4 -15 49.5 -24t75.5 -9q6 -8 6.5 -28.5t-6.5 -28.5q-205 10 -213 10t-213 -10q-7 8 -6.5 28.5 t6.5 28.5q30 0 76.5 9t50.5 24q10 33 10 147v379q0 63 -28 109q-21 37 -146 37h-213v-525q0 -114 10 -147q4 -15 54.5 -24t81.5 -9q6 -8 6.5 -28.5t-6.5 -28.5q-205 10 -224 10q-35 0 -67 -1.5t-74 -4.5t-70 -4q-7 8 -6.5 28.5z" />
<glyph unicode="&#xfb02;" horiz-adv-x="1107" d="M50 26.5q0 24.5 7 24.5q25 0 72 13t51 28q13 53 13 139q2 320 2 498q0 14 -9 14h-106q-6 0 -6 13q0 20 11.5 51t18.5 31h82q9 0 9 12v27q0 105 36 202.5t93 164.5t128.5 107t141.5 40q30 0 97 -24t91 -24q28 0 61.5 11.5t55.5 23t23 11.5h6q8 0 15 -11.5t9 -21.5 q-22 -63 -22 -174v-912q0 -117 16 -178q4 -15 51.5 -28t67.5 -13q7 0 8.5 -24t-2.5 -33q-200 10 -213 10q-14 0 -219 -10q-7 8 -7 32.5t7 24.5q25 0 72 13t51 28q14 57 14 139v770q0 26 -6.5 81t-15.5 75q-21 44 -87.5 100t-134.5 56q-59 0 -102 -54.5t-62.5 -135 t-19.5 -173.5v-102q0 -3 3.5 -6.5t6.5 -3.5h222q7 0 8.5 -2.5t1.5 -12.5q0 -28 -25 -80h-205q-4 0 -8 -3.5t-4 -8.5v-461q0 -10 1 -46t1.5 -50t3.5 -38.5t8 -43.5q4 -15 52.5 -28t68.5 -13q7 0 8.5 -24t-2.5 -33q-200 10 -213 10q-14 0 -219 -10q-7 8 -7 32.5z" />
<glyph unicode="&#xfb03;" horiz-adv-x="1628" d="M51 25q0 26 8 26q25 0 69 13t48 28q19 72 19 178q4 281 4 459q0 5 -3.5 9.5t-7.5 4.5h-106q-6 0 -6 13q0 20 11.5 51t18.5 31h82q11 0 11 12v27q0 105 39 198t100 154.5t135 97t145 35.5q51 0 98 -15.5t78 -39.5t50 -44t28 -36q59 77 133 120.5t148 43.5q89 0 180 -48 q109 -59 109 -118q0 -42 -24.5 -68.5t-65.5 -26.5q-60 0 -84 44l-10 16q-9 16 -11.5 20t-13 19.5t-17 21.5t-18 18.5t-22 18t-24 12.5t-28.5 10t-32 3q-59 0 -104 -54t-65.5 -136.5t-15.5 -172.5v-102q0 -3 4 -6.5t7 -3.5h223q228 0 299 28q1 0 5 3t5 3q10 0 10 -43v-4 q-10 -79 -10 -143v-412q0 -117 16 -178q4 -15 51.5 -28t67.5 -13q7 0 8.5 -24t-2.5 -33q-200 10 -213 10q-14 0 -219 -10q-7 8 -7 32.5t7 24.5q25 0 72 13t51 28q14 57 14 139v390q0 60 -24 94q-19 28 -146 28h-206q-5 0 -9 -4t-4 -8v-461q0 -114 17 -178q4 -15 48.5 -28 t63.5 -13q7 0 8.5 -24t-2.5 -33q-200 10 -215 10q-37 0 -68.5 -1.5t-72 -4.5t-68.5 -4q-8 8 -8 31q0 26 8 26q25 0 68 13t47 28q19 72 19 178q4 281 4 459q0 5 -3.5 9.5t-7.5 4.5h-383q-4 0 -8 -3.5t-4 -8.5v-461q0 -114 17 -178q4 -15 47.5 -28t62.5 -13q7 0 8.5 -24 t-2.5 -33q-200 10 -213 10q-37 0 -69 -1.5t-73 -4.5t-69 -4q-8 8 -8 31zM350 848q0 -3 3.5 -6.5t6.5 -3.5h385q11 0 11 12v8q0 115 24 195q4 10 4 28q0 11 -8 35q-1 2 -9 18.5t-17 33.5t-28 38.5t-41 38t-57 28t-75 11.5q-94 0 -146.5 -96.5t-52.5 -237.5v-102z" />
<glyph unicode="&#xfb04;" horiz-adv-x="1665" d="M53 25q0 26 8 26q25 0 69 13t48 28q19 72 19 178v459q0 5 -3.5 9.5t-7.5 4.5h-106q-6 0 -6 13q0 20 11.5 51t18.5 31h82q11 0 11 12v27q0 105 39 198t100 154.5t135 97t145 35.5q51 0 98 -15.5t78 -39.5t50 -44t28 -36q57 78 131.5 121t149.5 43q31 0 97 -24t91 -24 q28 0 62 11.5t56.5 23t23.5 11.5h6q15 0 22 -33q-20 -63 -20 -174v-912q0 -125 14 -178q4 -15 52.5 -28t68.5 -13q7 0 8.5 -24t-2.5 -33q-200 10 -215 10q-12 0 -217 -10q-8 8 -8 32.5t8 24.5q25 0 72 13t51 28q12 49 12 139v770q0 28 -5.5 82t-14.5 74q-21 44 -88 100 t-135 56q-59 0 -102 -54.5t-63 -135.5t-20 -173v-102q0 -3 3.5 -6.5t6.5 -3.5h224q7 0 8.5 -2.5t1.5 -12.5q0 -28 -25 -80h-206q-5 0 -9 -4t-4 -8l4 -461q0 -114 17 -178q4 -15 48.5 -28t63.5 -13q7 0 8.5 -24t-2.5 -33q-200 10 -215 10q-36 0 -68 -1.5t-72 -4.5t-68 -4 q-9 9 -9 31q0 9 3 17.5t6 8.5q24 0 67 13t47 28q19 72 19 178v459q0 5 -3.5 9.5t-7.5 4.5h-381q-14 0 -14 -12l4 -461q0 -114 17 -178q4 -15 47.5 -28t62.5 -13q7 0 8.5 -24t-2.5 -33q-200 10 -213 10q-37 0 -69 -1.5t-73 -4.5t-69 -4q-8 8 -8 31zM348 848q0 -3 3.5 -6.5 t6.5 -3.5h385q7 0 11 20q8 142 24 195q4 10 4 28q0 11 -8 35q-1 2 -9 18.5t-17 33.5t-28 38.5t-41 38t-57 28t-75 11.5q-94 0 -146.5 -96.5t-52.5 -237.5v-102z" />
</font>
</defs>
</svg>
