<?xml version="1.0" standalone="no"?>
<!DOCTYPE svg PUBLIC "-//W3C//DTD SVG 1.1//EN" "http://www.w3.org/Graphics/SVG/1.1/DTD/svg11.dtd" >
<svg xmlns="http://www.w3.org/2000/svg" xmlns:xlink="http://www.w3.org/1999/xlink" version="1.1">
<metadata></metadata>
<defs>
<font id="amirislanted" horiz-adv-x="219" >
<font-face units-per-em="1000" ascent="800" descent="-200" />
<missing-glyph horiz-adv-x="292" />
<glyph unicode="&#x640;&#x640;" horiz-adv-x="371" d="M187 -4q-116 0 -187 4q-8 0 -16 15l-19 44q-7 16 -2.5 24t21.5 7q85 -3 187 -3q99 0 184 3q17 1 25 -6.5t6 -24.5l-5 -44q-1 -15 -9 -15q-68 -4 -185 -4z" />
<glyph unicode="&#x640;&#x640;&#x640;" horiz-adv-x="556" d="M557 0q-167 -13 -277 -13q-109 0 -280 13q-8 0 -16 15l-19 44q-15 34 19 31q159 -12 280 -12q124 0 277 12q17 1 24.5 -7t6.5 -24l-6 -44q-2 -15 -9 -15z" />
<glyph unicode="&#x640;&#x640;&#x640;&#x640;" horiz-adv-x="742" d="M742 0q-167 -13 -369 -13t-373 13q-8 0 -16 15l-19 44q-15 34 19 31q159 -12 373 -12q216 0 369 12q35 2 32 -31l-6 -44q-2 -15 -10 -15z" />
<glyph unicode="&#x640;&#x640;&#x640;&#x640;&#x640;" horiz-adv-x="927" d="M928 0q-167 -13 -462 -13t-466 13q-8 0 -16 15l-19 44q-15 34 19 31q159 -12 466 -12q309 0 462 12q17 1 24.5 -7t6.5 -24l-6 -44q-1 -15 -9 -15z" />
<glyph unicode="&#x640;&#x640;&#x640;&#x640;&#x640;&#x640;" horiz-adv-x="1113" d="M1097 90q27 2 30 -19q2 -8 2 -12l-6 -44q-1 -15 -10 -15q-140 -20 -552 -20q-355 0 -561 20q-8 0 -16 15l-19 44q-5 12 -5 13q-1 11 4.5 15.5t19.5 2.5q138 -19 560 -19q357 0 553 19z" />
<glyph unicode="&#x640;&#x640;&#x640;&#x640;&#x640;&#x640;&#x640;" horiz-adv-x="1298" d="M1283 90q26 1 29 -19q2 -8 2 -12l-6 -44q0 -15 -9 -15q-286 -29 -645 -29q-343 0 -654 29q-8 0 -16 15l-19 44q-5 12 -5 13q-1 11 4.5 15.5t19.5 2.5q301 -28 655 -28q368 0 644 28z" />
<glyph unicode="fb" horiz-adv-x="706" d="M405 546q5 25 5 29q0 31 -26.5 51t-62.5 20q-97 0 -138 -243v-2q0 -4 3 -4h112q5 0 5 -11q0 -15 -11 -33h-114q-5 0 -6 -8l-54 -292q-23 -136 -82.5 -207.5t-128.5 -71.5q-34 0 -54 12t-25 28q-1 22 11 40t29 18q10 0 20 -15t22.5 -30t29.5 -15q35 0 64.5 70t40.5 133 l59 331v2q0 5 -3 5h-64q-2 0 -2 2q0 9 16 25.5t31 16.5h28q4 0 6 9q19 120 83.5 198.5t139.5 78.5q32 0 62 -10.5t31 -10.5q12 0 39.5 8t31.5 8q5 0 5 -16q-17 -32 -28 -85l-60 -299q46 76 93.5 111.5t77.5 35.5q33 0 50.5 -30t17.5 -81q0 -126 -81.5 -223t-164.5 -97 q-42 0 -66.5 30.5t-24.5 83.5q0 10 6 46zM549 371q-33 0 -85.5 -71t-67.5 -148q-12 -59 -1 -92.5t45 -33.5q38 0 73.5 51.5t54.5 113.5t19 104q0 76 -38 76z" />
<glyph unicode="ffb" horiz-adv-x="961" d="M665 575q-1 31 -27 51t-62 20q-98 0 -138 -243v-2q0 -4 2 -4h113q5 0 5 -11q0 -15 -11 -33h-114q-4 0 -6 -8l-47 -241q-16 -85 -50 -151t-73 -101.5t-74 -53t-61 -17.5q-60 0 -94 48q-50 -57 -119 -57q-59 0 -81 41q0 22 10 40.5t29 18.5q15 0 32 -30t39 -30 q30 0 62.5 62t42.5 116l5 30t4 25l52 301v2q0 5 -3 5h-64q-2 0 -2 2q0 9 16 25.5t31 16.5h28q4 0 6 9q22 114 97 187.5t149 73.5q37 0 66.5 -9t41.5 -20q17 17 56.5 31t67.5 14q32 0 62 -10.5t31 -10.5q12 0 39.5 8t31.5 8q5 0 5 -16q-18 -31 -29 -85l-60 -299 q46 76 93.5 111.5t77.5 35.5q33 0 50.5 -30t17.5 -81q0 -126 -81.5 -223t-164.5 -97q-42 0 -66.5 30.5t-24.5 83.5q0 10 6 46l77 392q5 25 6 29zM133 -173q48 0 98 61t73 171l50 287v2q0 5 -3 5h-173q-5 0 -6 -8l-54 -303q-17 -89 -44 -143q-1 -1 -1 -4q0 -2 1 -5v-3 q12 -60 59 -60zM803 371q-34 0 -86.5 -71t-67.5 -148q-12 -59 -0.5 -92.5t45.5 -33.5q38 0 73.5 51.5t54.5 113.5t19 104q0 76 -38 76zM342 630q-54 0 -95.5 -53t-57.5 -134q-2 -11 -3 -20t-3 -20v-2q0 -4 4 -4h173q4 0 6 9q21 105 54 164q1 1 1 5q0 2 -1 5v3q-3 17 -26 32 t-52 15z" />
<glyph unicode="fk" horiz-adv-x="725" d="M408 546q4 20 4 29q0 30 -27.5 50.5t-63.5 20.5q-97 0 -138 -243v-2q0 -4 3 -4h112q5 0 5 -11q0 -15 -11 -33h-114q-5 0 -6 -8l-54 -292q-23 -136 -82.5 -207.5t-128.5 -71.5q-34 0 -54 12t-25 28q-1 22 11 40t29 18q10 0 20 -15t22.5 -30t29.5 -15q35 0 64.5 70 t40.5 133l59 331v2q0 5 -3 5h-64q-2 0 -2 2q0 9 16 25.5t31 16.5h28q4 0 6 9q19 120 83.5 198.5t139.5 78.5q32 0 62 -10.5t31 -10.5q12 0 42 8t34 8q5 0 5 -16q-19 -31 -30 -85l-50 -263l11 13q10 13 25.5 28.5t35 31.5t44.5 27t49 11q29 0 51 -19.5t22 -47.5 q0 -116 -206 -152q64 -96 93.5 -126t59.5 -30q11 0 33 19.5t34 34.5q2 0 5.5 -7t3.5 -11q-11 -18 -51 -54t-68 -36q-22 0 -42.5 12t-39 36t-31 44t-30.5 53.5t-25 45.5l-36 -187q-18 -5 -34 -5q-15 0 -35 5zM562 379q-41 0 -89 -53t-58 -101q59 0 119.5 33t60.5 88 q0 33 -33 33z" />
<glyph unicode="ffk" horiz-adv-x="980" d="M687 662q12 0 42 8t34 8q5 0 5 -16q-19 -31 -30 -85l-50 -263l10 13q11 13 26.5 28.5t35 31.5t44.5 27t49 11q29 0 51 -19.5t22 -47.5q0 -116 -206 -152q64 -96 93.5 -126t59.5 -30q11 0 32.5 19.5t33.5 34.5q2 0 6 -7t4 -11q-11 -18 -51 -54t-68 -36q-22 0 -42.5 12 t-39 36t-31 44t-30.5 53.5t-25 45.5l-36 -187q-18 -5 -34 -5q-15 0 -35 5l106 546q4 20 4 29q0 30 -27.5 50.5t-63.5 20.5q-98 0 -138 -243v-2q0 -4 2 -4h113q5 0 5 -11q0 -15 -11 -33h-114q-4 0 -6 -8l-47 -241q-16 -85 -50 -151t-73 -101.5t-74 -53t-61 -17.5 q-60 0 -94 48q-50 -57 -119 -57q-59 0 -81 41q0 22 10 40.5t29 18.5q15 0 32 -30t39 -30q30 0 62.5 62t42.5 116l5 30t4 25l52 301v2q0 5 -3 5h-64q-2 0 -2 2q0 9 16 25.5t31 16.5h28q4 0 6 9q22 114 97 187.5t149 73.5q37 0 66.5 -9t41.5 -20q17 17 56.5 31t67.5 14 q32 0 62 -10.5t31 -10.5zM133 -173q48 0 98 61t73 171l50 287v2q0 5 -3 5h-173q-5 0 -6 -8l-54 -303q-17 -89 -44 -143q-1 -1 -1 -4q0 -2 1 -5v-3q12 -60 59 -60zM342 630q-54 0 -95.5 -53t-57.5 -134q-2 -11 -3 -20t-3 -20v-2q0 -4 4 -4h173q4 0 6 9q21 105 54 164q1 1 1 5 q0 2 -1 5v3q-3 17 -26 32t-52 15zM817 379q-41 0 -89 -53t-58 -101q59 0 119.5 33t60.5 88q0 33 -33 33z" />
<glyph unicode="fh" horiz-adv-x="734" d="M408 546q4 20 4 29q0 30 -27.5 50.5t-63.5 20.5q-97 0 -138 -243v-2q0 -4 3 -4h112q5 0 5 -11q0 -15 -11 -33h-114q-5 0 -6 -8l-54 -292q-23 -136 -82.5 -207.5t-128.5 -71.5q-34 0 -54 12t-25 28q-1 22 11 40t29 18q10 0 20 -15t22.5 -30t29.5 -15q35 0 64.5 70 t40.5 133l59 331v2q0 5 -3 5h-64q-2 0 -2 2q0 9 16 25.5t31 16.5h28q4 0 6 9q19 120 83.5 198.5t139.5 78.5q32 0 62 -10.5t31 -10.5q12 0 42.5 8t34.5 8q5 0 5 -16q-20 -31 -31 -85l-49 -255l-18 -90q22 40 87.5 116.5t106.5 76.5q54 0 54 -65q0 -41 -14 -106l-32 -150 q-4 -16 -4 -32q0 -24 10 -24q5 0 12 4t14 10t14.5 13t13 13t10.5 11l4 5q2 0 6 -7t4 -11q-12 -21 -55 -56.5t-73 -35.5q-15 0 -24 14.5t-9 36.5q0 23 7 52l34 161q7 32 7 53q0 42 -19 42q-31 0 -95 -79.5t-79 -157.5q-7 -35 -25 -116q-13 -4 -35 -4q-17 0 -33 4z" />
<glyph unicode="ffh" horiz-adv-x="989" d="M687 662q12 0 42.5 8t34.5 8q5 0 5 -16q-20 -31 -31 -85l-50 -255l-17 -90q22 40 87.5 116.5t106.5 76.5q54 0 54 -65q0 -41 -14 -106l-32 -150q-4 -16 -4 -32q0 -24 10 -24q5 0 12 4t14 10t14.5 13t13 13t9.5 11l5 5q2 0 6 -7t4 -11q-12 -21 -55 -56.5t-73 -35.5 q-15 0 -24 14.5t-9 36.5q0 23 7 52l34 161q7 32 7 53q0 42 -19 42q-31 0 -95.5 -79.5t-79.5 -157.5q-16 -80 -24 -116q-13 -4 -35 -4q-17 0 -33 4l105 546q4 20 4 29q0 30 -27.5 50.5t-63.5 20.5q-98 0 -138 -243v-2q0 -4 2 -4h113q5 0 5 -11q0 -15 -11 -33h-114q-4 0 -6 -8 l-47 -241q-16 -85 -50 -151t-73 -101.5t-74 -53t-61 -17.5q-60 0 -94 48q-50 -57 -119 -57q-59 0 -81 41q0 22 10 40.5t29 18.5q15 0 32 -30t39 -30q30 0 62.5 62t42.5 116l5 30t4 25l52 301v2q0 5 -3 5h-64q-2 0 -2 2q0 9 16 25.5t31 16.5h28q4 0 6 9q22 114 97 187.5 t149 73.5q37 0 66.5 -9t41.5 -20q17 17 56.5 31t67.5 14q32 0 62 -10.5t31 -10.5zM133 -173q48 0 98 61t73 171l50 287v2q0 5 -3 5h-173q-5 0 -6 -8l-54 -303q-17 -89 -44 -143q-1 -1 -1 -4q0 -2 1 -5v-3q12 -60 59 -60zM342 630q-54 0 -95.5 -53t-57.5 -134q-2 -11 -3 -20 t-3 -20v-2q0 -4 4 -4h173q4 0 6 9q21 105 54 164q1 1 1 5q0 2 -1 5v3q-3 17 -26 32t-52 15z" />
<glyph unicode="fj" horiz-adv-x="471" d="M420 322l-54 -278q-20 -100 -69 -165q-28 -37 -67 -66.5t-69 -41.5q-9 7 -9 19q49 28 86 89.5t53 141.5l53 265q3 12 3 27q0 44 -26 44l-143 -4q-5 0 -6 -8l-54 -292q-23 -136 -82.5 -207.5t-128.5 -71.5q-34 0 -54 12t-25 28q-1 22 11 40t29 18q10 0 20 -15t22.5 -30 t29.5 -15q35 0 64.5 70t40.5 133l59 331v2q0 5 -3 5h-64q-2 0 -2 2q0 9 16 25.5t31 16.5h28q4 0 6 9q19 120 83.5 198.5t139.5 78.5q55 0 84 -27q22 -21 31 -41q0 -23 -11.5 -42.5t-32.5 -19.5q-10 0 -18 5.5t-12.5 12t-11.5 18.5q-1 2 -6 10.5t-7 11.5t-6.5 10t-8.5 10.5 t-10 7.5t-12.5 5.5t-13.5 1.5q-31 0 -66.5 -64.5t-54.5 -178.5v-2q0 -4 3 -4q92 0 137 5q63 6 92 6q4 0 9 -5t5 -11q0 -7 -9 -70z" />
<glyph unicode="ffj" horiz-adv-x="725" d="M670 408q4 0 9 -5t5 -11q0 -7 -9 -70l-54 -278q-20 -100 -69 -165q-28 -37 -67 -66.5t-69 -41.5q-9 7 -9 19q49 28 86 89.5t53 141.5l53 265q3 12 3 27q0 44 -26 44l-148 -4q-5 0 -6 -8l-42 -241q-17 -85 -51 -151t-72.5 -101.5t-73.5 -53t-61 -17.5q-60 0 -94 48 q-50 -57 -119 -57q-59 0 -81 41q0 22 10 40.5t29 18.5q15 0 32 -30t39 -30q30 0 62.5 62t42.5 116l5 30t4 25l52 301v2q0 5 -3 5h-64q-2 0 -2 2q0 9 16 25.5t31 16.5h28q4 0 6 9q22 114 97 187.5t149 73.5q37 0 66.5 -9t41.5 -20q17 17 56.5 31t67.5 14q55 0 84 -27 q22 -21 31 -41q0 -23 -11.5 -42.5t-32.5 -19.5q-10 0 -18 5.5t-12.5 12t-11.5 18.5q-1 2 -6 10.5t-7 11.5t-6.5 10t-8.5 10.5t-10 7.5t-12.5 5.5t-13.5 1.5q-29 0 -54 -32.5t-40 -82.5t-21.5 -77.5t-10.5 -50.5v-2q0 -4 3 -4q97 0 142 5q63 6 92 6zM74 -113q12 -60 59 -60 q48 0 98 61t73 171l50 287v2q0 5 -3 5h-173q-5 0 -6 -8l-54 -303q-17 -89 -44 -143q-1 -1 -1 -4q0 -2 1 -5v-3zM342 630q-54 0 -95.5 -53t-57.5 -134q-2 -11 -3 -20t-3 -20v-2q0 -4 4 -4h173q4 0 6 9q21 105 54 164q1 1 1 5q0 2 -1 5v3q-3 17 -26 32t-52 15z" />
<glyph unicode="&#x671;" horiz-adv-x="217" arabic-form="isolated" d="M-29 670q12 49 27 2l66 -245q96 -330 65 -420q-5 -11 -10 -6t-7 17q-14 84 -45 189q0 1 -6 20.5t-20 68.5t-29 101l-54 181q-5 20 -2 34zM-81 875q28 54 42 68q23 25 49 25q38 0 52 -33q11 -29 -4 -62q-44 -77 -117 -72q-36 3 -69 23q-13 7 -22 -3l-8 -7q-7 -7 -10 -6 q-8 5 -5 14q28 81 65 63q10 -5 27 -10zM-47 895q-10 -16 -14 -24q44 -7 86 15q2 35 -28 36q-23 0 -44 -27z" />
<glyph unicode="&#x671;" horiz-adv-x="278" arabic-form="final" d="M-1 720q3 6 5 6q3 1 6 -4.5t7 -16.5q43 -148 70 -265q12 -53 26.5 -116t21.5 -93t10 -43q24 -92 117 -98q27 -2 27 -36q1 -54 -11 -54q-130 0 -162 122q-28 110 -47 206q-20 98 -41 168q-13 39 -50 147q-6 16 -2 25zM-52 875q28 54 42 68q23 25 49 25q39 0 52 -33 q11 -29 -4 -62q-44 -77 -117 -72q-36 3 -69 23q-13 7 -22 -3l-8 -7q-7 -7 -10 -6q-8 5 -5 14q28 81 65 63q9 -5 27 -10zM-18 895q-10 -16 -14 -24q44 -7 86 15q2 35 -28 36q-23 0 -44 -27z" />
<glyph unicode="&#x67b;" horiz-adv-x="926" arabic-form="isolated" d="M755 372q34 -31 54 -91q21 -58 18 -112q-1 -53 -27 -70q-147 -94 -382 -106q-237 -12 -338 90q-64 67 -43 153q8 32 41 78q4 7 12 5q5 -1 8 -8t-1 -11q-15 -19 -21 -43q-7 -21 2 -41q57 -129 312 -125q257 5 402 98q-11 39 -65 96q-2 2 -2 24v3q0 21 11 60q5 14 19 0z M496 -137q2 4 9 2q41 -14 77 -42q6 -4 4 -9l-23 -50q27 -11 56 -34q3 -4 2 -8l-34 -76q-2 -5 -10 1q-9 7 -78 44q-5 3 -3 6l27 54q-19 11 -60 33q-5 3 -2 6z" />
<glyph unicode="&#x67b;" horiz-adv-x="883" arabic-form="final" d="M75 254q6 10 15 2t3 -18q-27 -50 -13 -84q57 -140 326 -132q181 6 323 69q28 11 31 59q0 14 15 13q11 -2 15 -21q10 -47 78 -52q25 -1 28 -32q4 -58 -12 -58q-46 0 -89 46q-2 4 -12 -5q-157 -120 -403 -120q-244 0 -313 120q-33 58 -22 121q11 60 30 92zM451 -161 q2 4 9 2q40 -13 77 -42q6 -4 4 -9l-23 -50q27 -11 56 -34q4 -4 2 -8l-33 -76q-3 -4 -11 1q-8 7 -77 44q-6 3 -3 6l26 54l-60 33q-4 2 -2 6z" />
<glyph unicode="&#x67b;" horiz-adv-x="190" arabic-form="initial" d="M23 211l17 62q5 18 18 1q53 -77 46 -176q-8 -98 -104 -98q-10 0 -30 51q-9 27 -1 35q4 4 15 4q60 -3 83 32q2 2 -1 7q-11 29 -37 58q-11 12 -6 24zM87 -112q1 4 8 2q39 -13 78 -42q5 -5 3 -9l-23 -50q29 -11 56 -34q5 -3 3 -8l-34 -76q-2 -5 -10 1q-13 9 -78 44 q-5 4 -3 6l26 54q-27 15 -59 33q-5 3 -2 6z" />
<glyph unicode="&#x67b;" horiz-adv-x="244" arabic-form="medial" d="M228 90q18 -5 21 -11q4 -10 4 -24q3 -55 -9 -55q-55 0 -119 61q-35 -55 -125 -61q-10 0 -16 15l-15 42q-5 11 0 21t15 12q109 9 136 66q4 8 13 8t11 -9q2 -10 4 -12q41 -45 80 -53zM131 -112q1 4 8 2q39 -13 78 -42q5 -5 3 -9l-23 -50q29 -11 56 -34q5 -3 3 -8l-34 -76 q-2 -5 -10 1q-13 9 -78 44q-5 4 -3 6l26 54q-27 15 -59 33q-5 3 -2 6z" />
<glyph unicode="&#x67e;" horiz-adv-x="926" arabic-form="isolated" d="M755 372q34 -31 54 -91q21 -58 18 -112q-1 -53 -27 -70q-147 -94 -382 -106q-237 -12 -338 90q-64 67 -43 153q8 32 41 78q4 7 12 5q5 -1 8 -8t-1 -11q-15 -19 -21 -43q-7 -21 2 -41q57 -129 312 -125q257 5 402 98q-11 39 -65 96q-2 2 -2 24v3q0 21 11 60q5 14 19 0z M506 -233q-1 -3 -8 -2q-43 14 -78 41q-5 5 -2 9l34 76q2 3 10 -2l55 -31l25 55q3 4 11 -1q8 -7 77 -44q5 -3 2 -6l-36 -73q-1 -3 -6 -1h-2q-35 12 -57 27zM593 -337q-1 -3 -7 -2q-44 14 -78 41q-6 4 -3 9l34 76q1 4 10 -2q19 -12 78 -44q5 -3 3 -6z" />
<glyph unicode="&#x67e;" horiz-adv-x="883" arabic-form="final" d="M75 254q6 10 15 2t3 -18q-27 -50 -13 -84q57 -140 326 -132q181 6 323 69q28 11 31 59q0 14 15 13q11 -2 15 -21q10 -47 78 -52q25 -1 28 -32q4 -58 -12 -58q-46 0 -89 46q-2 4 -12 -5q-157 -120 -403 -120q-244 0 -313 120q-33 58 -22 121q11 60 30 92zM456 -262 q-1 -3 -7 -2q-43 14 -79 41q-5 5 -2 9l34 76q2 3 10 -2l55 -31l25 55q3 4 11 -1q8 -7 77 -44q5 -3 2 -6l-36 -73q-1 -3 -6 -1h-2q-35 12 -57 27zM544 -366q-2 -3 -8 -2q-44 14 -78 41q-5 4 -3 9l34 76q1 4 10 -2q19 -12 78 -44q5 -3 3 -6z" />
<glyph unicode="&#x67e;" horiz-adv-x="190" arabic-form="initial" d="M23 211l17 62q5 18 18 1q53 -77 46 -176q-8 -98 -104 -98q-10 0 -30 51q-9 27 -1 35q4 4 15 4q60 -3 83 32q2 2 -1 7q-11 29 -37 58q-11 12 -6 24zM129 -257q-1 -3 -7 -2q-43 14 -79 41q-5 5 -2 9l34 76q2 3 10 -2l55 -31l26 55q2 5 10 -1q9 -7 78 -44q4 -2 2 -6l-37 -73 q-1 -3 -6 -1h-1q-35 12 -58 27zM217 -361q-2 -3 -8 -2q-44 14 -78 41q-5 4 -3 9l34 76q1 4 10 -2q19 -12 78 -44q5 -4 3 -6z" />
<glyph unicode="&#x67e;" horiz-adv-x="244" arabic-form="medial" d="M228 90q18 -5 21 -11q4 -10 4 -24q3 -55 -9 -55q-55 0 -119 61q-35 -55 -125 -61q-10 0 -16 15l-15 42q-5 11 0 21t15 12q109 9 136 66q4 8 13 8t11 -9q2 -10 4 -12q41 -45 80 -53zM140 -208q-2 -3 -8 -2q-44 14 -78 41q-5 4 -3 9l35 76q1 3 9 -2t56 -31l25 55q2 5 10 -1 q19 -12 78 -44q5 -3 2 -6l-36 -73q-2 -2 -7 -1h-1q-37 13 -58 27zM227 -312q-1 -3 -8 -2q-45 15 -78 41q-5 5 -2 9l33 76q2 4 11 -2q8 -7 77 -44q6 -3 3 -6z" />
<glyph unicode="&#x680;" horiz-adv-x="926" arabic-form="isolated" d="M755 372q34 -31 54 -91q21 -58 18 -112q-1 -53 -27 -70q-147 -94 -382 -106q-237 -12 -338 90q-64 67 -43 153q8 32 41 78q4 7 12 5q5 -1 8 -8t-1 -11q-15 -19 -21 -43q-7 -21 2 -41q57 -129 312 -125q257 5 402 98q-11 39 -65 96q-2 2 -2 24v3q0 21 11 60q5 14 19 0z M439 -88q1 3 7 2q33 -10 66 -33l27 54q2 3 8 2q41 -13 79 -42q5 -5 2 -9l-32 -72q36 -15 64 -36q5 -4 3 -9l-35 -76q-1 -4 -9 2q-4 3 -63 35l-28 -59q-2 -5 -10 1q-13 9 -78 44q-5 3 -2 6l35 72q-38 22 -69 39q-4 3 -2 6zM548 -236l26 53v1q-4 3 -12 7t-20 10.5t-22 12.5 l-25 -56q24 -9 53 -28z" />
<glyph unicode="&#x680;" horiz-adv-x="883" arabic-form="final" d="M75 254q6 10 15 2t3 -18q-27 -50 -13 -84q57 -140 326 -132q181 6 323 69q28 11 31 59q0 14 15 13q11 -2 15 -21q10 -47 78 -52q25 -1 28 -32q4 -58 -12 -58q-46 0 -89 46q-2 4 -12 -5q-157 -120 -403 -120q-244 0 -313 120q-33 58 -22 121q11 60 30 92zM390 -117 q1 3 7 2q32 -9 66 -33l28 54q1 3 7 2q41 -13 79 -42q5 -5 2 -9l-32 -72q36 -15 64 -36q5 -4 3 -9l-35 -76q-1 -3 -9 2q-4 3 -63 35l-28 -59q-2 -5 -10 1q-19 12 -78 44q-5 3 -2 6l35 72q-41 24 -68 39q-5 3 -2 6zM499 -265l26 53v1q-4 3 -12 7t-20 10.5t-22 12.5l-25 -56 q24 -9 53 -28z" />
<glyph unicode="&#x680;" horiz-adv-x="190" arabic-form="initial" d="M62 -112q1 3 7 2q32 -9 66 -33l28 54q1 3 7 2q41 -13 79 -42q5 -5 2 -9l-32 -72q37 -15 64 -36q5 -4 3 -9l-35 -76q-1 -3 -9 2q-4 3 -63 35l-28 -59q-2 -5 -10 1q-19 12 -78 44q-4 2 -2 6l36 72q-6 3 -29 16.5t-40 22.5q-5 3 -2 6zM23 211l17 62q5 18 18 1 q53 -77 46 -176q-8 -98 -104 -98q-10 0 -30 51q-9 27 -1 35q4 4 15 4q60 -3 83 32q2 2 -1 7q-11 29 -37 58q-11 12 -6 24zM171 -260l26 53v1q-15 9 -54 30l-25 -56q24 -9 53 -28z" />
<glyph unicode="&#x680;" horiz-adv-x="244" arabic-form="medial" d="M73 -64q2 3 8 2q30 -9 66 -33l27 54q2 3 8 2q43 -14 78 -42q5 -4 3 -9l-32 -72q36 -15 64 -36q5 -5 2 -9l-34 -76q-2 -3 -9 2q-5 4 -64 35l-27 -59q-3 -5 -10 1q-13 9 -78 44q-5 3 -2 6l35 72q-38 22 -69 39q-4 3 -2 6zM228 90q18 -5 21 -11q4 -10 4 -24q3 -55 -9 -55 q-55 0 -119 61q-35 -55 -125 -61q-10 0 -16 15l-15 42q-5 11 0 21t15 12q109 9 136 66q4 8 13 8t11 -9q2 -10 4 -12q41 -45 80 -53zM182 -212l27 53v1q-4 3 -12 7t-20 10.5t-22 12.5l-26 -56q23 -8 53 -28z" />
<glyph unicode="&#x67a;" horiz-adv-x="926" arabic-form="isolated" d="M755 372q34 -31 54 -91q21 -58 18 -112q-1 -53 -27 -70q-147 -94 -382 -106q-237 -12 -338 90q-64 67 -43 153q8 32 41 78q4 7 12 5q5 -1 8 -8t-1 -11q-15 -19 -21 -43q-7 -21 2 -41q57 -129 312 -125q257 5 402 98q-11 39 -65 96q-2 2 -2 24v3q0 21 11 60q5 14 19 0z M323 576q2 4 9 2q40 -13 77 -42q7 -5 4 -9l-23 -50q27 -11 56 -34q4 -4 2 -8l-33 -76q-3 -5 -10 1q-13 9 -78 44q-6 3 -3 6l26 54q-20 10 -60 33q-4 3 -2 6z" />
<glyph unicode="&#x67a;" horiz-adv-x="883" arabic-form="final" d="M75 254q6 10 15 2t3 -18q-27 -50 -13 -84q57 -140 326 -132q181 6 323 69q28 11 31 59q0 14 15 13q11 -2 15 -21q10 -47 78 -52q25 -1 28 -32q4 -58 -12 -58q-46 0 -89 46q-2 4 -12 -5q-157 -120 -403 -120q-244 0 -313 120q-33 58 -22 121q11 60 30 92zM323 576q2 4 9 2 q40 -13 77 -42q7 -5 4 -9l-23 -50q27 -11 56 -34q4 -4 2 -8l-33 -76q-3 -5 -10 1q-13 9 -78 44q-6 3 -3 6l26 54q-20 10 -60 33q-4 3 -2 6z" />
<glyph unicode="&#x67a;" horiz-adv-x="190" arabic-form="initial" d="M23 211l17 62q5 18 18 1q53 -77 46 -176q-8 -98 -104 -98q-10 0 -30 51q-9 27 -1 35q4 4 15 4q60 -3 83 32q2 2 -1 7q-11 29 -37 58q-11 12 -6 24zM-55 591q1 4 8 2q39 -13 78 -42q5 -5 3 -9l-23 -50q29 -11 56 -34q5 -3 3 -8l-34 -76q-2 -5 -10 1q-19 12 -78 44 q-5 4 -3 6l27 54q-21 11 -60 33q-5 3 -2 6z" />
<glyph unicode="&#x67a;" horiz-adv-x="244" arabic-form="medial" d="M228 90q18 -5 21 -11q4 -10 4 -24q3 -55 -9 -55q-55 0 -119 61q-35 -55 -125 -61q-10 0 -16 15l-15 42q-5 11 0 21t15 12q109 9 136 66q4 8 13 8t11 -9q2 -10 4 -12q41 -45 80 -53zM-16 576q2 4 9 2q40 -13 77 -42q7 -5 4 -9l-23 -50q27 -11 56 -34q4 -4 2 -8l-33 -76 q-3 -5 -10 1q-13 9 -78 44q-6 3 -3 6l26 54q-19 10 -60 33q-4 3 -2 6z" />
<glyph unicode="&#x67f;" horiz-adv-x="926" arabic-form="isolated" d="M755 372q34 -31 54 -91q21 -58 18 -112q-1 -53 -27 -70q-147 -94 -382 -106q-237 -12 -338 90q-64 67 -43 153q8 32 41 78q4 7 12 5q5 -1 8 -8t-1 -11q-15 -19 -21 -43q-7 -21 2 -41q57 -129 312 -125q257 5 402 98q-11 39 -65 96q-2 2 -2 24v3q0 21 11 60q5 14 19 0z M270 600q2 3 8 2q30 -9 66 -33l27 54q2 3 8 2q43 -14 78 -42q5 -4 3 -9l-33 -72q36 -14 65 -36q5 -5 2 -9l-34 -76q-2 -3 -10 2q-4 4 -63 35l-27 -59q-3 -5 -10 1q-13 9 -78 44q-5 3 -2 6l35 72q-18 10 -69 39q-5 3 -2 6zM379 452l27 53v1q-6 4 -55 30l-25 -56q23 -8 53 -28 z" />
<glyph unicode="&#x67f;" horiz-adv-x="883" arabic-form="final" d="M75 254q6 10 15 2t3 -18q-27 -50 -13 -84q57 -140 326 -132q181 6 323 69q28 11 31 59q0 14 15 13q11 -2 15 -21q10 -47 78 -52q25 -1 28 -32q4 -58 -12 -58q-46 0 -89 46q-2 4 -12 -5q-157 -120 -403 -120q-244 0 -313 120q-33 58 -22 121q11 60 30 92zM270 600q2 3 8 2 q30 -9 66 -33l27 54q2 3 8 2q43 -14 78 -42q5 -4 3 -9l-33 -72q36 -14 65 -36q5 -5 2 -9l-34 -76q-2 -3 -10 2q-4 4 -63 35l-27 -59q-3 -5 -10 1q-13 9 -78 44q-5 3 -2 6l35 72q-18 10 -69 39q-5 3 -2 6zM379 452l27 53v1q-6 4 -55 30l-25 -56q23 -8 53 -28z" />
<glyph unicode="&#x67f;" horiz-adv-x="190" arabic-form="initial" d="M-102 566q2 3 8 2q30 -9 66 -33l27 54q2 3 8 2q43 -14 78 -42q5 -4 3 -9l-33 -72q36 -14 65 -36q5 -5 2 -9l-34 -76q-2 -3 -10 2q-4 4 -63 35l-27 -59q-3 -5 -10 1q-13 9 -78 44q-5 3 -2 6l35 72q-18 10 -69 39q-5 3 -2 6zM23 211l17 62q5 18 18 1q53 -77 46 -176 q-8 -98 -104 -98q-10 0 -30 51q-9 27 -1 35q4 4 15 4q60 -3 83 32q2 2 -1 7q-11 29 -37 58q-11 12 -6 24zM7 418l27 53v1q-6 4 -55 30l-25 -56q23 -8 53 -28z" />
<glyph unicode="&#x67f;" horiz-adv-x="244" arabic-form="medial" d="M-67 537q2 3 8 2q30 -9 66 -33l27 54q2 3 8 2q43 -14 78 -42q5 -4 3 -9l-32 -72q36 -15 64 -36q5 -5 3 -9l-35 -76q-2 -3 -9 2q-5 4 -64 35l-27 -59q-3 -5 -10 1q-13 9 -78 44q-5 3 -2 6l35 72q-38 22 -69 39q-4 2 -2 6zM228 90q18 -5 21 -11q4 -10 4 -24q3 -55 -9 -55 q-55 0 -119 61q-35 -55 -125 -61q-10 0 -16 15l-15 42q-5 11 0 21t15 12q109 9 136 66q4 8 13 8t11 -9q2 -10 4 -12q41 -45 80 -53zM42 389l27 53v1q-4 3 -12 7t-20 10.5t-22 12.5l-26 -56q23 -8 53 -28z" />
<glyph unicode="&#x679;" horiz-adv-x="926" arabic-form="isolated" d="M755 372q34 -31 54 -91q21 -58 18 -112q-1 -53 -27 -70q-147 -94 -382 -106q-237 -12 -338 90q-64 67 -43 153q8 32 41 78q4 7 12 5q5 -1 8 -8t-1 -11q-15 -19 -21 -43q-7 -21 2 -41q57 -129 312 -125q257 5 402 98q-11 39 -65 96q-2 2 -2 24v3q0 21 11 60q5 14 19 0z M317 628q4 2 7.5 -1t4.5 -11q46 -147 46 -202q27 35 51 56q25 22 50 13q26 -10 40 -35q16 -28 -14 -74q-6 -11 -58 -27q-54 -17 -113 -20q-28 5 -46 19q-20 15 -24 22q-3 7 1 7q35 -4 76 -1l21 26q-10 77 -50 196q0 7 2 16q5 16 6 16zM431 437q-22 -10 -65 -60q65 9 124 41 q-22 33 -59 19z" />
<glyph unicode="&#x679;" horiz-adv-x="883" arabic-form="final" d="M75 254q6 10 15 2t3 -18q-27 -50 -13 -84q57 -140 326 -132q181 6 323 69q28 11 31 59q0 14 15 13q11 -2 15 -21q10 -47 78 -52q25 -1 28 -32q4 -58 -12 -58q-46 0 -89 46q-2 4 -12 -5q-157 -120 -403 -120q-244 0 -313 120q-33 58 -22 121q11 60 30 92zM317 628 q4 2 7.5 -1t4.5 -11q46 -147 46 -202q27 35 51 56q25 22 50 13q26 -10 40 -35q16 -28 -14 -74q-6 -11 -58 -27q-54 -17 -113 -20q-28 5 -46 19q-20 15 -24 22q-3 7 1 7q35 -4 76 -1l21 26q-10 77 -50 196q0 7 2 16q5 16 6 16zM431 437q-22 -10 -65 -60q65 9 124 41 q-22 33 -59 19z" />
<glyph unicode="&#x679;" horiz-adv-x="190" arabic-form="initial" d="M-61 643q3 2 6.5 -1t5.5 -11q45 -144 45 -202q27 35 51 56q26 22 50 13q26 -10 40 -35q16 -27 -14 -74q-4 -10 -58 -27t-112 -20q-28 5 -47 19q-22 18 -24 22q-1 7 1 7q36 -4 76 -1l22 26q-9 72 -51 196q0 7 2 16q5 15 7 16zM23 211l17 62q5 18 18 1q53 -77 46 -176 q-8 -98 -104 -98q-10 0 -30 51q-9 27 -1 35q4 4 15 4q60 -3 83 32q2 2 -1 7q-11 29 -37 58q-11 12 -6 24zM52 452q-20 -9 -65 -60q63 9 125 41q-22 33 -60 19z" />
<glyph unicode="&#x679;" horiz-adv-x="244" arabic-form="medial" d="M-22 628q4 2 7 -1t5 -11q46 -147 46 -202q27 35 51 56q25 22 50 13q26 -10 40 -35q16 -28 -14 -74q-6 -11 -58 -27q-54 -17 -113 -20q-28 5 -46 19q-20 15 -24 22q-3 7 1 7q35 -4 76 -1l21 26q-10 77 -50 196q0 7 2 16q5 16 6 16zM228 90q18 -5 21 -11q4 -10 4 -24 q3 -55 -9 -55q-55 0 -119 61q-35 -55 -125 -61q-10 0 -16 15l-15 42q-5 11 0 21t15 12q109 9 136 66q4 8 13 8t11 -9q2 -10 4 -12q41 -45 80 -53zM92 437q-22 -10 -65 -60q65 9 124 41q-22 33 -59 19z" />
<glyph unicode="&#x6a4;" horiz-adv-x="983" arabic-form="isolated" d="M707 504q39 12 88 -49t75 -174q10 -39 4 -69q-16 -63 -104 -113q-84 -48 -210 -78q-122 -29 -226 -29q-253 -2 -296 157q-8 30 -7 78t26 96q2 6 10 6t10 -7q4 -7 0 -12q-51 -114 30 -166q116 -75 337 -48q184 23 349 116q50 28 51 63q-9 25 -34 42q-2 2 -4 -3 q-1 -1 -1 -2q-18 -52 -58 -58q-78 -12 -105 64q-18 51 30 153q12 26 35 33zM535 740q1 3 7 2q44 -14 78 -41q5 -4 3 -9l-35 -76q-1 -3 -9 2l-55 31l-26 -56q-1 -4 -10 2q-19 12 -78 44q-4 3 -2 6l37 72q1 3 7 2q37 -13 58 -27zM447 844q2 3 8 2q45 -15 78 -41q6 -4 4 -9 l-35 -76q-2 -5 -10 2q-13 9 -78 44q-5 4 -3 6zM743 363q9 9 -4 18q-42 30 -55 -6q-3 -8 3 -14q33 -24 56 2z" />
<glyph unicode="&#x6a4;" horiz-adv-x="1005" arabic-form="final" d="M735 282q47 94 98 55q62 -50 63 -155q0 -34 -17 -82q43 -16 111 -10q12 1 19.5 -6.5t9.5 -23.5q11 -59 -13 -60q-107 -8 -178 25q-56 -42 -147 -71q-202 -64 -395 -39q-101 14 -162 53q-63 40 -73 102q-11 60 32 159q3 6 9 6q8 0 10 -5q5 -6 2 -13q-28 -70 -5 -103 q75 -105 274 -102q232 5 367 61q-40 27 -39 85q2 59 34 124zM619 569q1 3 7 2q43 -14 79 -41q5 -5 2 -9l-34 -76q-2 -3 -10 2l-55 31l-25 -56q-2 -4 -11 2q-9 7 -78 44q-4 2 -2 6l37 72q1 3 7 2q35 -12 58 -27zM796 249q-20 2 -34.5 -17t-21.5 -59q7 -15 26 -31 q16 -13 31 -18q15 -4 36 7q22 12 26 25q-18 89 -63 93zM531 673q2 3 8 2q44 -14 78 -41q6 -4 4 -9l-35 -76q-1 -4 -10 2q-13 9 -78 44q-5 4 -3 6z" />
<glyph unicode="&#x6a4;" horiz-adv-x="295" arabic-form="initial" d="M43 409q13 0 35 -16q103 -78 120 -198q8 -64 -14 -100q-57 -95 -184 -95q-12 0 -23 23q-10 21 -8 45q1 20 15 22q124 9 175 72q-8 30 -15 39q-10 10 -14 9t-4 -4q-9 -44 -43 -52q-105 -24 -116 85q-4 52 20 112q24 58 56 58zM30 642q1 3 7 2q43 -14 79 -41q5 -5 2 -9 l-34 -76q-2 -3 -10 2l-55 31l-25 -56q-2 -4 -11 2q-8 7 -77 44q-5 3 -2 6l36 72q1 3 8 2q35 -12 57 -27zM-58 746q2 3 8 2q44 -14 78 -41q6 -4 4 -9l-35 -76q-1 -4 -10 2q-19 12 -78 44q-5 3 -3 6zM29 301q-23 -2 -20 -39q1 -6 2 -6q21 -6 41 -3t25 13q-29 37 -48 35z" />
<glyph unicode="&#x6a4;" horiz-adv-x="378" arabic-form="medial" d="M216 379q2 0 10 -2q25 -15 40 -55q27 -77 8 -143q-10 -34 -24 -64q68 -24 112 -25q11 0 17 -25q16 -63 -1 -65q-78 -9 -216 58q-35 -19 -89 -38q-55 -20 -73 -20q-12 0 -22 22q-8 17 -8 44q2 23 14 24q50 8 102 26q-16 43 -5 95q17 84 86 144q29 24 49 24zM113 667 q2 3 8 2q44 -14 78 -41q5 -4 3 -9l-35 -76q-1 -3 -9 2t-56 31l-25 -56q-1 -4 -10 2q-19 12 -78 44q-5 3 -2 6l36 72q2 3 8 2q37 -13 58 -27zM190 273q-50 5 -78 -51q-9 -14 19 -44q27 -30 56 -30q28 0 59 39q-10 75 -56 86zM26 771q2 3 8 2q45 -15 78 -41q5 -5 4 -9l-35 -76 q-3 -4 -10 2q-13 9 -78 44q-6 3 -3 6z" />
<glyph unicode="&#x6a6;" horiz-adv-x="983" arabic-form="isolated" d="M707 504q39 12 88 -49t75 -174q10 -39 4 -69q-16 -63 -104 -113q-84 -48 -210 -78q-122 -29 -226 -29q-253 -2 -296 157q-8 30 -7 78t26 96q2 6 10 6t10 -7q4 -7 0 -12q-51 -114 30 -166q116 -75 337 -48q184 23 349 116q50 28 51 63q-9 25 -34 42q-2 2 -4 -3 q-1 -1 -1 -2q-18 -52 -58 -58q-78 -12 -105 64q-18 51 30 153q12 26 35 33zM403 835q1 3 7 2q32 -9 66 -33l28 54q1 3 7 2q41 -13 79 -42q5 -5 2 -9l-32 -72q37 -15 64 -36q5 -4 3 -9l-35 -76q-1 -3 -9 2q-4 3 -63 35l-28 -59q-2 -5 -10 1q-19 12 -78 44q-4 3 -2 6l36 72 q-6 4 -29 17t-40 22q-5 3 -2 6zM512 687l27 53l-1 1q-15 9 -54 30l-25 -56q24 -9 53 -28zM743 363q9 9 -4 18q-42 30 -55 -6q-3 -8 3 -14q33 -24 56 2z" />
<glyph unicode="&#x6a6;" horiz-adv-x="1005" arabic-form="final" d="M735 282q47 94 98 55q62 -50 63 -155q0 -34 -17 -82q43 -16 111 -10q12 1 19.5 -6.5t9.5 -23.5q11 -59 -13 -60q-107 -8 -178 25q-56 -42 -147 -71q-202 -64 -395 -39q-101 14 -162 53q-63 40 -73 102q-11 60 32 159q3 6 9 6q8 0 10 -5q5 -6 2 -13q-28 -70 -5 -103 q75 -105 274 -102q232 5 367 61q-40 27 -39 85q2 59 34 124zM487 664q1 3 8 2q32 -10 65 -33l28 54q1 3 8 2q43 -14 78 -42q4 -5 3 -9l-33 -72q36 -14 65 -36q5 -5 2 -9l-34 -76q-2 -3 -10 2q-7 5 -63 35l-28 -59q-2 -5 -10 1q-9 7 -78 44q-4 2 -2 6l36 72q-7 3 -29.5 16.5 t-39.5 22.5q-5 3 -2 6zM796 249q-20 2 -34.5 -17t-21.5 -59q7 -15 26 -31q16 -13 31 -18q15 -4 36 7q22 12 26 25q-18 89 -63 93zM596 516l27 53l-1 1q-15 9 -54 30l-25 -56q24 -9 53 -28z" />
<glyph unicode="&#x6a6;" horiz-adv-x="295" arabic-form="initial" d="M43 409q13 0 35 -16q103 -78 120 -198q8 -64 -14 -100q-57 -95 -184 -95q-12 0 -23 23q-10 21 -8 45q1 20 15 22q124 9 175 72q-8 30 -15 39q-10 10 -14 9t-4 -4q-9 -44 -43 -52q-105 -24 -116 85q-4 52 20 112q24 58 56 58zM-102 737q2 3 8 2q30 -9 66 -33l27 54 q1 3 8 2q43 -14 78 -42q5 -4 3 -9l-33 -72q36 -14 65 -36q5 -5 2 -9l-34 -76q-2 -3 -10 2q-4 4 -63 35l-27 -59q-3 -4 -11 1q-8 7 -77 44q-5 3 -2 6l35 72q-18 11 -69 39q-5 3 -2 6zM7 589l27 53v1q-6 4 -55 30l-25 -56q24 -9 53 -28zM29 301q-23 -2 -20 -39q1 -6 2 -6 q21 -6 41 -3t25 13q-29 37 -48 35z" />
<glyph unicode="&#x6a6;" horiz-adv-x="378" arabic-form="medial" d="M216 379q2 0 10 -2q25 -15 40 -55q27 -77 8 -143q-10 -34 -24 -64q68 -24 112 -25q11 0 17 -25q16 -63 -1 -65q-78 -9 -216 58q-35 -19 -89 -38q-55 -20 -73 -20q-12 0 -22 22q-8 17 -8 44q2 23 14 24q50 8 102 26q-16 43 -5 95q17 84 86 144q29 24 49 24zM-18 762 q1 3 7 2q32 -9 66 -33l28 54q1 3 7 2q41 -13 79 -42q5 -5 2 -9l-32 -72q34 -13 64 -36q5 -4 3 -9l-35 -76q-1 -3 -9 2q-4 3 -63 35l-28 -59q-2 -5 -10 1q-19 12 -78 44q-5 3 -2 6l35 72q-41 24 -68 39q-5 3 -2 6zM190 273q-50 5 -78 -51q-9 -14 19 -44q27 -30 56 -30 q28 0 59 39q-10 75 -56 86zM91 614l26 53v1q-4 3 -12 7t-20 10.5t-22 12.5l-25 -56q24 -9 53 -28z" />
<glyph unicode="&#x684;" horiz-adv-x="661" arabic-form="isolated" d="M593 226l-14 -54q-3 -8 -10 -9q-235 -32 -318 -94q-166 -122 -95 -297q39 -96 171 -150q72 -29 215 -38q134 -8 266 3q15 2 21 -4q5 -6 2 -13q-2 -5 -12 -9q-57 -19 -88 -39q-41 -29 -58 -31q-289 -25 -436 69q-148 94 -137 298t190 297q-140 33 -201 -7q-7 -3 -12 -2 t-6 7q-3 25 1 49q9 52 86 57q39 1 126 -15q87 -17 146 -15q68 2 141 15q14 2 20 -2.5t2 -15.5zM384 -49q1 4 8 2q39 -13 78 -42q5 -5 3 -9l-23 -50q29 -11 56 -34q5 -3 3 -8l-34 -76q-3 -5 -10 1q-13 9 -78 44q-5 4 -3 6l26 54q-27 15 -59 33q-5 3 -2 6z" />
<glyph unicode="&#x684;" horiz-adv-x="639" arabic-form="final" d="M163 260q42 0 120 -13q155 -26 284 0q15 3 20 -2t1 -18l-14 -52q-3 -8 -9 -9q-62 -8 -119 -20q11 -24 34 -36q50 -29 144 -20q18 2 27 -22q8 -22 5 -45q-3 -21 -16 -23q-183 -10 -217 69q-15 35 -15 69q-101 -25 -159 -67q-72 -55 -95 -133q-25 -80 -1 -156 q39 -119 171 -179q90 -39 350 -17q37 3 69.5 6t46.5 4l13 1q21 1 24 -9q2 -11 -24 -20q-41 -14 -75 -39l-42 -31q-7 -3 -17 -5q-300 -34 -434 56q-116 77 -131 226q-29 272 182 383q-131 30 -210 -14q-6 -3 -12 0q-7 3 -8 7q-15 108 107 109zM392 -98q2 4 9 2q40 -13 77 -42 q6 -4 4 -9l-23 -50q27 -11 56 -34q4 -4 2 -8l-33 -76q-3 -4 -11 1q-8 7 -77 44q-6 3 -3 6l26 54q-19 10 -60 33q-4 3 -2 6z" />
<glyph unicode="&#x684;" horiz-adv-x="655" arabic-form="initial" d="M-32 218q2 32 28 63q29 32 66 32t184 -57q47 -19 133 -35q79 -15 160 -9q11 1 15 -3.5t1 -14.5l-17 -61q-4 -12 -20 -9q-115 19 -212 -11q-120 -42 -184 -77q-66 -36 -122 -36q-6 0 -12 10q-17 32 -14 55q1 24 10 25q139 10 252 73q-145 75 -250 41q-8 -3 -13 2 q-6 5 -5 12zM289 -40q2 4 9 2q41 -14 77 -42q6 -4 4 -9l-23 -50q27 -11 56 -34q4 -3 2 -8l-34 -76q-2 -5 -10 1q-19 12 -78 44q-4 3 -3 6l27 54q-20 10 -60 33q-5 3 -2 6z" />
<glyph unicode="&#x684;" horiz-adv-x="610" arabic-form="medial" d="M84 312q22 2 153 -48q69 -26 156 -38q90 -12 163 -2q6 1 9.5 -3t2.5 -12q-3 -43 -9 -70q-2 -8 -10 -7q-30 3 -88 5q-10 -29 32 -41q41 -12 101 -6q20 1 28 -15.5t3 -52.5q-1 -20 -15 -22q-72 -10 -126 7q-71 24 -62 110q2 9 2 18q-95 -6 -185 -35q-36 -12 -119 -56 q-82 -44 -120 -44q-13 0 -25 20q-10 19 -10 42q1 25 19 28q82 15 131 38q65 32 88 39q10 3 7 8q0 3 -9 7q-81 31 -125 36q-45 5 -79 -17q-9 -4 -16 -3t-7 15q10 93 110 99zM283 -34q1 4 9 2q41 -14 77 -42q6 -4 4 -9l-24 -50q29 -11 56 -34q5 -3 3 -8l-34 -76q-2 -5 -10 1 q-19 12 -78 44q-4 3 -3 6l27 54q-20 10 -60 33q-5 3 -2 6z" />
<glyph unicode="&#x683;" horiz-adv-x="661" arabic-form="isolated" d="M593 226l-14 -54q-3 -8 -10 -9q-235 -32 -318 -94q-166 -122 -95 -297q39 -96 171 -150q72 -29 215 -38q134 -8 266 3q15 2 21 -4q5 -6 2 -13q-2 -5 -12 -9q-57 -19 -88 -39q-41 -29 -58 -31q-289 -25 -436 69q-148 94 -137 298t190 297q-140 33 -201 -7q-7 -3 -12 -2 t-6 7q-3 25 1 49q9 52 86 57q39 1 126 -15q87 -17 146 -15q68 2 141 15q14 2 20 -2.5t2 -15.5zM463 -69q2 3 8 2q45 -15 78 -41q5 -4 3 -9l-35 -76q-1 -4 -9 2q-4 3 -63 35l-28 -59q-3 -5 -10 1q-13 9 -78 44q-5 3 -2 6l36 73q2 3 8 2q30 -9 66 -33z" />
<glyph unicode="&#x683;" horiz-adv-x="639" arabic-form="final" d="M163 260q42 0 120 -13q155 -26 284 0q15 3 20 -2t1 -18l-14 -52q-3 -8 -9 -9q-62 -8 -119 -20q11 -24 34 -36q50 -29 144 -20q18 2 27 -22q8 -22 5 -45q-3 -21 -16 -23q-183 -10 -217 69q-15 35 -15 69q-101 -25 -159 -67q-72 -55 -95 -133q-25 -80 -1 -156 q39 -119 171 -179q90 -39 350 -17q37 3 69.5 6t46.5 4l13 1q21 1 24 -9q2 -11 -24 -20q-41 -14 -75 -39l-42 -31q-7 -3 -17 -5q-300 -34 -434 56q-116 77 -131 226q-29 272 182 383q-131 30 -210 -14q-6 -3 -12 0q-7 3 -8 7q-15 108 107 109zM444 -99q2 3 8 2q44 -14 78 -41 q5 -4 3 -9l-35 -76q-1 -3 -9 2q-4 3 -63 35l-28 -59q-2 -5 -10 1q-19 12 -78 44q-4 2 -2 6l36 73q2 3 8 2q30 -9 66 -33z" />
<glyph unicode="&#x683;" horiz-adv-x="655" arabic-form="initial" d="M-32 218q2 32 28 63q29 32 66 32t184 -57q47 -19 133 -35q79 -15 160 -9q11 1 15 -3.5t1 -14.5l-17 -61q-4 -12 -20 -9q-115 19 -212 -11q-120 -42 -184 -77q-66 -36 -122 -36q-6 0 -12 10q-17 32 -14 55q1 24 10 25q139 10 252 73q-145 75 -250 41q-8 -3 -13 2 q-6 5 -5 12zM341 -41q2 3 8 2q45 -15 78 -41q5 -4 3 -9l-35 -76q-1 -4 -9 2q-4 3 -63 35l-28 -59q-2 -5 -10 1q-13 9 -78 44q-5 3 -2 6l36 73q2 3 8 2q30 -9 66 -33z" />
<glyph unicode="&#x683;" horiz-adv-x="610" arabic-form="medial" d="M84 312q22 2 153 -48q69 -26 156 -38q90 -12 163 -2q6 1 9.5 -3t2.5 -12q-3 -43 -9 -70q-2 -8 -10 -7q-30 3 -88 5q-10 -29 32 -41q41 -12 101 -6q20 1 28 -15.5t3 -52.5q-1 -20 -15 -22q-72 -10 -126 7q-71 24 -62 110q2 9 2 18q-95 -6 -185 -35q-36 -12 -119 -56 q-82 -44 -120 -44q-13 0 -25 20q-10 19 -10 42q1 25 19 28q82 15 131 38q65 32 88 39q10 3 7 8q0 3 -9 7q-81 31 -125 36q-45 5 -79 -17q-9 -4 -16 -3t-7 15q10 93 110 99zM335 -35q2 3 8 2q45 -15 78 -41q5 -4 3 -9l-35 -76q-1 -4 -9 2q-4 3 -63 35l-28 -59q-3 -5 -10 1 q-13 9 -78 44q-5 3 -2 6l36 73q2 3 8 2q30 -9 66 -33z" />
<glyph unicode="&#x686;" horiz-adv-x="661" arabic-form="isolated" d="M593 226l-14 -54q-3 -8 -10 -9q-235 -32 -318 -94q-166 -122 -95 -297q39 -96 171 -150q72 -29 215 -38q134 -8 266 3q15 2 21 -4q5 -6 2 -13q-2 -5 -12 -9q-57 -19 -88 -39q-41 -29 -58 -31q-289 -25 -436 69q-148 94 -137 298t190 297q-140 33 -201 -7q-7 -3 -12 -2 t-6 7q-3 25 1 49q9 52 86 57q39 1 126 -15q87 -17 146 -15q68 2 141 15q14 2 20 -2.5t2 -15.5zM391 -165q-1 -3 -8 -2q-43 14 -78 41q-5 5 -2 9l34 76q2 3 10 -2l55 -31l25 55q3 4 11 -1q8 -7 77 -44q5 -3 2 -6l-36 -73q-1 -3 -6 -1h-2q-35 12 -57 27zM478 -269q-1 -3 -7 -2 q-44 14 -78 41q-6 4 -3 9l34 76q1 4 10 -2q19 -12 78 -44q4 -3 3 -6z" />
<glyph unicode="&#x686;" horiz-adv-x="639" arabic-form="final" d="M163 260q42 0 120 -13q155 -26 284 0q15 3 20 -2t1 -18l-14 -52q-3 -8 -9 -9q-62 -8 -119 -20q11 -24 34 -36q50 -29 144 -20q18 2 27 -22q8 -22 5 -45q-3 -21 -16 -23q-183 -10 -217 69q-15 35 -15 69q-101 -25 -159 -67q-72 -55 -95 -133q-25 -80 -1 -156 q39 -119 171 -179q90 -39 350 -17q37 3 69.5 6t46.5 4l13 1q21 1 24 -9q2 -11 -24 -20q-41 -14 -75 -39l-42 -31q-7 -3 -17 -5q-300 -34 -434 56q-116 77 -131 226q-29 272 182 383q-131 30 -210 -14q-6 -3 -12 0q-7 3 -8 7q-15 108 107 109zM400 -218q-1 -3 -7 -2 q-44 14 -78 41q-5 4 -3 9l35 76q1 3 9 -2l55 -31l26 55q2 5 10 -1q19 -12 78 -44q4 -3 2 -6l-36 -73q-2 -3 -7 -1h-1q-37 13 -58 27zM488 -322q-2 -3 -8 -2q-45 15 -78 41q-5 4 -3 9l34 76q2 5 10 -2q13 -9 78 -44q5 -4 3 -6z" />
<glyph unicode="&#x686;" horiz-adv-x="655" arabic-form="initial" d="M-32 218q2 32 28 63q29 32 66 32t184 -57q47 -19 133 -35q79 -15 160 -9q11 1 15 -3.5t1 -14.5l-17 -61q-4 -12 -20 -9q-115 19 -212 -11q-120 -42 -184 -77q-66 -36 -122 -36q-6 0 -12 10q-17 32 -14 55q1 24 10 25q139 10 252 73q-145 75 -250 41q-8 -3 -13 2 q-6 5 -5 12zM302 -185q-2 -3 -8 -2q-44 14 -78 41q-5 4 -3 9l35 76q1 3 9 -2t56 -31l25 55q2 5 10 -1q19 -12 78 -44q5 -3 2 -6l-36 -73q-2 -2 -7 -1h-1q-37 13 -58 27zM389 -289q-2 -3 -8 -2q-45 15 -78 41q-5 4 -3 9l34 76q3 4 10 -2q13 -9 78 -44q6 -3 3 -6z" />
<glyph unicode="&#x686;" horiz-adv-x="610" arabic-form="medial" d="M84 312q22 2 153 -48q69 -26 156 -38q90 -12 163 -2q6 1 9.5 -3t2.5 -12q-3 -43 -9 -70q-2 -8 -10 -7q-30 3 -88 5q-10 -29 32 -41q41 -12 101 -6q20 1 28 -15.5t3 -52.5q-1 -20 -15 -22q-72 -10 -126 7q-71 24 -62 110q2 9 2 18q-95 -6 -185 -35q-36 -12 -119 -56 q-82 -44 -120 -44q-13 0 -25 20q-10 19 -10 42q1 25 19 28q82 15 131 38q65 32 88 39q10 3 7 8q0 3 -9 7q-81 31 -125 36q-45 5 -79 -17q-9 -4 -16 -3t-7 15q10 93 110 99zM296 -179q-2 -3 -8 -2q-44 14 -78 41q-5 4 -3 9l35 76q1 3 9 -2t56 -31l25 55q2 5 10 -1 q19 -12 78 -44q4 -2 2 -6l-36 -73q-2 -2 -7 -1h-1q-37 13 -58 27zM383 -283q-2 -3 -8 -2q-45 15 -78 41q-5 4 -3 9l34 76q3 4 10 -2q13 -9 78 -44q5 -4 3 -6z" />
<glyph unicode="&#x687;" horiz-adv-x="661" arabic-form="isolated" d="M593 226l-14 -54q-3 -8 -10 -9q-235 -32 -318 -94q-166 -122 -95 -297q39 -96 171 -150q72 -29 215 -38q134 -8 266 3q15 2 21 -4q5 -6 2 -13q-2 -5 -12 -9q-57 -19 -88 -39q-41 -29 -58 -31q-289 -25 -436 69q-148 94 -137 298t190 297q-140 33 -201 -7q-7 -3 -12 -2 t-6 7q-3 25 1 49q9 52 86 57q39 1 126 -15q87 -17 146 -15q68 2 141 15q14 2 20 -2.5t2 -15.5zM327 -39q1 3 8 2q32 -10 65 -33l28 54q1 3 7 2q44 -14 79 -42q5 -5 2 -9l-32 -72q36 -14 65 -36q5 -5 2 -9l-35 -76q-1 -3 -9 2q-4 3 -63 35l-28 -59q-2 -5 -10 1q-19 12 -78 44 q-4 3 -2 6l36 72q-6 4 -29 16.5t-40 22.5q-5 3 -2 6zM436 -187l27 53l-1 1q-15 9 -54 30l-25 -56q24 -9 53 -28z" />
<glyph unicode="&#x687;" horiz-adv-x="639" arabic-form="final" d="M163 260q42 0 120 -13q155 -26 284 0q15 3 20 -2t1 -18l-14 -52q-3 -8 -9 -9q-62 -8 -119 -20q11 -24 34 -36q50 -29 144 -20q18 2 27 -22q8 -22 5 -45q-3 -21 -16 -23q-183 -10 -217 69q-15 35 -15 69q-101 -25 -159 -67q-72 -55 -95 -133q-25 -80 -1 -156 q39 -119 171 -179q90 -39 350 -17q37 3 69.5 6t46.5 4l13 1q21 1 24 -9q2 -11 -24 -20q-41 -14 -75 -39l-42 -31q-7 -3 -17 -5q-300 -34 -434 56q-116 77 -131 226q-29 272 182 383q-131 30 -210 -14q-6 -3 -12 0q-7 3 -8 7q-15 108 107 109zM333 -73q1 3 8 2q32 -10 65 -33 l28 54q1 3 7 2q44 -14 79 -42q5 -5 2 -9l-32 -72q37 -15 64 -36q6 -5 3 -9l-35 -76q-1 -3 -9 2q-4 3 -63 35l-28 -59q-2 -5 -10 1q-19 12 -78 44q-4 3 -2 6l36 72q-6 4 -29 17t-40 22q-5 3 -2 6zM442 -221l27 53l-1 1q-15 9 -54 30l-25 -56q24 -9 53 -28z" />
<glyph unicode="&#x687;" horiz-adv-x="655" arabic-form="initial" d="M-32 218q2 32 28 63q29 32 66 32t184 -57q47 -19 133 -35q79 -15 160 -9q11 1 15 -3.5t1 -14.5l-17 -61q-4 -12 -20 -9q-115 19 -212 -11q-120 -42 -184 -77q-66 -36 -122 -36q-6 0 -12 10q-17 32 -14 55q1 24 10 25q139 10 252 73q-145 75 -250 41q-8 -3 -13 2 q-6 5 -5 12zM234 -40q2 3 8 2q30 -9 66 -33l27 54q1 3 8 2q43 -14 78 -42q5 -4 3 -9l-33 -72q36 -14 65 -36q5 -5 2 -9l-34 -76q-2 -3 -10 2q-4 4 -63 35l-27 -59q-3 -4 -11 1q-8 7 -77 44q-5 3 -2 6l35 72q-18 10 -69 39q-5 3 -2 6zM343 -188l27 53v1q-6 4 -55 30l-25 -56 q24 -9 53 -28z" />
<glyph unicode="&#x687;" horiz-adv-x="610" arabic-form="medial" d="M84 312q22 2 153 -48q69 -26 156 -38q90 -12 163 -2q6 1 9.5 -3t2.5 -12q-3 -43 -9 -70q-2 -8 -10 -7q-30 3 -88 5q-10 -29 32 -41q41 -12 101 -6q20 1 28 -15.5t3 -52.5q-1 -20 -15 -22q-72 -10 -126 7q-71 24 -62 110q2 9 2 18q-95 -6 -185 -35q-36 -12 -119 -56 q-82 -44 -120 -44q-13 0 -25 20q-10 19 -10 42q1 25 19 28q82 15 131 38q65 32 88 39q10 3 7 8q0 3 -9 7q-81 31 -125 36q-45 5 -79 -17q-9 -4 -16 -3t-7 15q10 93 110 99zM229 -34q1 3 8 2q32 -10 65 -33l28 54q1 3 8 2q43 -14 78 -42q5 -4 3 -9l-33 -72q36 -14 65 -36 q5 -5 2 -9l-34 -76q-2 -3 -10 2q-4 4 -63 35l-28 -59q-2 -5 -10 1q-8 7 -77 44q-5 2 -3 6l36 72q-18 10 -69 39q-5 3 -2 6zM338 -182l27 53v1q-6 4 -55 30l-25 -56q24 -9 53 -28z" />
<glyph unicode="&#x68d;" horiz-adv-x="450" arabic-form="isolated" d="M113 322q7 44 18 63q7 10 23 2q145 -73 189 -197q26 -70 17 -122q-3 -15 -17 -24q-84 -48 -201 -50q-40 -1 -58.5 25t-15.5 77q1 12 10 13q6 0 16 -7q22 -16 77 -9q118 15 152 38q3 1 0 12q-36 100 -191 156q-21 7 -19 23zM296 -89q1 3 7 2q43 -14 79 -41q5 -5 2 -9 l-34 -76q-2 -3 -10 2q-7 5 -63 35l-28 -59q-2 -5 -10 1q-8 7 -77 44q-5 2 -3 6l37 73q1 3 7 2q33 -10 66 -33z" />
<glyph unicode="&#x68d;" horiz-adv-x="471" arabic-form="final" d="M455 90q16 -4 25 -26q9 -26 6 -44q-1 -20 -15 -20q-66 4 -108 109l-14 34q-5 8 -6 -1q-17 -85 -62 -104q-57 -26 -165 -18q-84 6 -66 131q3 15 13 16q9 1 16 -13q14 -29 33 -33q101 -21 173 10q36 15 41 56q0 6 -33 107q-13 40 -25.5 80.5t-13.5 43.5q-6 22 -3 34 q12 40 14 50q3 8 9 7q8 -2 11 -10q62 -213 112 -334q28 -68 58 -75zM291 -64q2 3 8 2q44 -14 78 -41q5 -4 3 -9l-35 -76q-1 -3 -9 2q-4 3 -63 35l-28 -59q-2 -5 -10 1q-19 12 -78 44q-5 3 -2 6l36 73q2 3 8 2q30 -9 66 -33z" />
<glyph unicode="&#x68c;" horiz-adv-x="450" arabic-form="isolated" d="M113 322q7 44 18 63q7 10 23 2q145 -73 189 -197q26 -70 17 -122q-3 -15 -17 -24q-84 -48 -201 -50q-40 -1 -58.5 25t-15.5 77q1 12 10 13q6 0 16 -7q22 -16 77 -9q118 15 152 38q3 1 0 12q-36 100 -191 156q-21 7 -19 23zM121 667q2 3 8 2q44 -14 78 -41q5 -4 3 -9 l-35 -76q-1 -3 -9 2q-4 3 -63 35l-28 -59q-2 -5 -10 1q-19 12 -78 44q-5 3 -2 6l36 73q2 3 8 2q30 -9 66 -33z" />
<glyph unicode="&#x68c;" horiz-adv-x="471" arabic-form="final" d="M455 90q16 -4 25 -26q9 -26 6 -44q-1 -20 -15 -20q-66 4 -108 109l-14 34q-5 8 -6 -1q-17 -85 -62 -104q-57 -26 -165 -18q-84 6 -66 131q3 15 13 16q9 1 16 -13q14 -29 33 -33q101 -21 173 10q36 15 41 56q0 6 -33 107q-13 40 -25.5 80.5t-13.5 43.5q-6 22 -3 34 q12 40 14 50q3 8 9 7q8 -2 11 -10q62 -213 112 -334q28 -68 58 -75zM242 715q1 3 8 2q43 -14 78 -41q5 -5 2 -9l-34 -76q-2 -3 -10 2q-4 4 -63 35l-27 -59q-3 -4 -11 1q-8 7 -77 44q-5 3 -2 6l36 73q1 3 7 2q32 -9 66 -33z" />
<glyph unicode="&#x68e;" horiz-adv-x="450" arabic-form="isolated" d="M113 322q7 44 18 63q7 10 23 2q145 -73 189 -197q26 -70 17 -122q-3 -15 -17 -24q-84 -48 -201 -50q-40 -1 -58.5 25t-15.5 77q1 12 10 13q6 0 16 -7q22 -16 77 -9q118 15 152 38q3 1 0 12q-36 100 -191 156q-21 7 -19 23zM117 667q2 3 8 2q44 -14 78 -41q5 -4 3 -9 l-35 -76q-1 -3 -9 2t-56 31l-25 -56q-1 -4 -10 2q-19 12 -78 44q-5 3 -2 6l36 72q2 3 8 2q37 -13 58 -27zM30 771q2 3 8 2q45 -15 78 -41q5 -5 4 -9l-35 -76q-3 -4 -10 2q-13 9 -78 44q-6 3 -3 6z" />
<glyph unicode="&#x68e;" horiz-adv-x="471" arabic-form="final" d="M455 90q16 -4 25 -26q9 -26 6 -44q-1 -20 -15 -20q-66 4 -108 109l-14 34q-5 8 -6 -1q-17 -85 -62 -104q-57 -26 -165 -18q-84 6 -66 131q3 15 13 16q9 1 16 -13q14 -29 33 -33q101 -21 173 10q36 15 41 56q0 6 -33 107q-13 40 -25.5 80.5t-13.5 43.5q-6 22 -3 34 q12 40 14 50q3 8 9 7q8 -2 11 -10q62 -213 112 -334q28 -68 58 -75zM238 715q1 3 8 2q43 -14 78 -41q5 -5 2 -9l-34 -76q-2 -3 -10 2l-55 31l-25 -56q-2 -4 -11 2q-8 7 -77 44q-5 3 -2 6l36 72q1 3 8 2q35 -12 57 -27zM151 819q1 3 7 2q44 -14 78 -41q7 -5 4 -9l-35 -76 q-1 -4 -10 2q-19 12 -78 44q-5 3 -3 6z" />
<glyph unicode="&#x688;" horiz-adv-x="450" arabic-form="isolated" d="M113 322q7 44 18 63q7 10 23 2q145 -73 189 -197q26 -70 17 -122q-3 -15 -17 -24q-84 -48 -201 -50q-40 -1 -58.5 25t-15.5 77q1 12 10 13q6 0 16 -7q22 -16 77 -9q118 15 152 38q3 1 0 12q-36 100 -191 156q-21 7 -19 23zM24 838q4 2 7 -1.5t5 -10.5q46 -147 46 -202 q27 35 51 56q25 22 50 13q26 -10 40 -35q16 -28 -14 -74q-6 -11 -58 -27q-54 -17 -113 -20q-28 5 -46 19q-20 15 -24 22q-3 7 1 7q35 -4 76 -1l21 26q-10 77 -50 196q0 7 2 16q3 15 6 16zM138 647q-21 -10 -66 -60q65 9 125 41q-22 33 -59 19z" />
<glyph unicode="&#x688;" horiz-adv-x="471" arabic-form="final" d="M455 90q16 -4 25 -26q9 -26 6 -44q-1 -20 -15 -20q-66 4 -108 109l-14 34q-5 8 -6 -1q-17 -85 -62 -104q-57 -26 -165 -18q-84 6 -66 131q3 15 13 16q9 1 16 -13q14 -29 33 -33q101 -21 173 10q36 15 41 56q0 6 -33 107q-13 40 -25.5 80.5t-13.5 43.5q-6 22 -3 34 q12 40 14 50q3 8 9 7q8 -2 11 -10q62 -213 112 -334q28 -68 58 -75zM145 887q3 2 6.5 -1.5t5.5 -10.5q45 -144 45 -202q27 35 51 56q26 22 50 13q26 -10 40 -35q16 -27 -14 -74q-4 -10 -58 -27t-112 -20q-28 5 -47 19q-22 18 -24 22q-1 7 1 7q36 -4 76 -1l22 26 q-9 72 -51 196q0 7 2 16q5 15 7 16zM258 696q-20 -9 -65 -60q63 9 125 41q-22 33 -60 19z" />
<glyph unicode="&#x698;" horiz-adv-x="399" arabic-form="isolated" d="M197 279q0 3 2 5q4 3 16 -8q46 -40 77 -107q32 -69 38 -134q3 -89 -42 -162q-45 -75 -134 -99q-22 -7 -48 1q-117 37 -156 58q-4 3 -5 6q0 3 2 7q3 3 9 1q70 -20 120 -14q51 6 106 47q83 60 114 144q2 6 -1 16q-24 52 -101 131q-4 4 -4 8zM119 539q1 3 8 2q43 -14 78 -41 q5 -5 2 -9l-34 -76q-2 -3 -10 2l-55 31l-25 -56q-3 -4 -10 2q-13 9 -78 44q-5 3 -2 6l36 72q1 3 8 2q35 -12 57 -27zM32 643q1 3 7 2q44 -14 78 -41q7 -5 4 -9l-35 -76q-1 -4 -10 2q-19 12 -78 44q-4 3 -3 6z" />
<glyph unicode="&#x698;" horiz-adv-x="343" arabic-form="final" d="M219 62l17 80q4 16 12 6q21 -29 40 -44q17 -14 40 -14q24 0 32 -44q8 -45 -16 -46q-16 -2 -33 0q-4 0 -4 -6q15 -95 -36 -181q-50 -85 -105 -91q-54 -6 -95 3q-45 10 -103 38q-8 3 -11 8q-2 7 1 9q2 2 10 1q68 -16 115 -6q96 21 166 117q30 42 31 81q-3 26 -53 68 q-9 8 -8 21zM120 478q1 3 7 2q43 -14 79 -41q5 -5 2 -9l-34 -76q-2 -3 -10 2l-55 31l-25 -56q-2 -4 -11 2q-8 7 -77 44q-5 2 -3 6l37 72q1 3 7 2q35 -12 58 -27zM32 582q2 3 8 2q44 -14 78 -41q6 -4 4 -9l-35 -76q-1 -4 -10 2q-19 12 -78 44q-5 4 -3 6z" />
<glyph unicode="&#x691;" horiz-adv-x="399" arabic-form="isolated" d="M197 279q0 3 2 5q4 3 16 -8q46 -40 77 -107q32 -69 38 -134q3 -89 -42 -162q-45 -75 -134 -99q-22 -7 -48 1q-117 37 -156 58q-4 3 -5 6q0 3 2 7q3 3 9 1q70 -20 120 -14q51 6 106 47q83 60 114 144q2 6 -1 16q-24 52 -101 131q-4 4 -4 8zM-3 735q8 5 13 -12 q45 -149 45 -202q27 35 51 56q26 22 50 13q26 -10 40 -35q16 -28 -14 -74q-6 -11 -58 -27q-54 -17 -113 -20q-28 5 -46 19q-20 15 -24 22q-3 7 1 7q36 -4 76 -1l22 26q-12 80 -51 196q0 7 2 16q5 16 6 16zM111 544q-22 -10 -65 -60q64 9 124 41q-21 33 -59 19z" />
<glyph unicode="&#x691;" horiz-adv-x="343" arabic-form="final" d="M219 62l17 80q4 16 12 6q21 -29 40 -44q17 -14 40 -14q24 0 32 -44q8 -45 -16 -46q-16 -2 -33 0q-4 0 -4 -6q15 -95 -36 -181q-50 -85 -105 -91q-54 -6 -95 3q-45 10 -103 38q-8 3 -11 8q-2 7 1 9q2 2 10 1q68 -16 115 -6q96 21 166 117q30 42 31 81q-3 26 -53 68 q-9 8 -8 21zM35 601q3 2 6.5 -1.5t5.5 -10.5q46 -147 46 -202q27 35 51 56q25 22 50 13q26 -10 40 -35q15 -27 -14 -74q-6 -11 -58 -27q-54 -17 -113 -20q-28 5 -46 19q-20 15 -24 22q-2 7 1 7q35 -4 76 -1l21 26q-9 70 -50 196q-2 4 2 16q3 15 6 16zM149 410 q-21 -10 -66 -60q65 9 125 41q-22 33 -59 19z" />
<glyph unicode="&#x6a9;" horiz-adv-x="1202" arabic-form="isolated" d="M772 160q2 4 1 7q-80 100 -240 173q-19 9 -29 62q-16 75 12 105q120 128 476 245q5 2 11 2t7 -6v-7l-7 -71q-1 -14 -10 -17q-403 -154 -460 -223q-3 -4 3 -7q233 -126 257 -251q12 -69 -11 -110q-32 -57 -211 -99q-124 -29 -226 -29q-253 -2 -297 158q-8 30 -7 77 q1 48 26 96q2 6 10 6t10 -7q3 -7 1 -12q-52 -114 29 -166q117 -75 337 -48q242 30 318 122z" />
<glyph unicode="&#x6a9;" horiz-adv-x="1132" arabic-form="final" d="M775 165q-41 91 -237 176q-25 14 -38 66q-14 56 -3 79q87 164 447 325q9 3 13 3q10 0 11 -10q1 -3 1 -9l-4 -64q0 -13 -12 -18q-319 -171 -417 -286q220 -103 390 -236q122 -95 189 -101q25 -3 29 -30q4 -20 0 -39q-3 -21 -13 -21q-69 0 -233 138q-62 52 -110 83 q9 -36 11 -75q3 -129 -228 -183q-124 -29 -226 -29q-253 -2 -297 158q-8 30 -7 77q1 48 26 96q2 6 10 6t10 -7q3 -7 1 -12q-52 -114 29 -166q117 -75 337 -48q255 31 321 127z" />
<glyph unicode="&#x6a9;" horiz-adv-x="659" arabic-form="initial" d="M-16 90q168 -24 245 70q2 4 1 7q-80 100 -240 173q-19 9 -29 62q-17 75 12 105q121 128 475 245q5 2 12 2q6 0 7 -6v-2q0 -1 -0.5 -2.5t-0.5 -2.5l-6 -71q-1 -14 -11 -17q-403 -154 -460 -223q-3 -4 3 -7q233 -126 257 -251q12 -70 -10 -110q-23 -42 -65 -52 q-100 -26 -182 -11q-13 3 -20 25q-2 7 -4 14.5t-3.5 13.5t-2.5 8q-3 19 5 27q6 4 17 3z" />
<glyph unicode="&#x6a9;" horiz-adv-x="588" arabic-form="medial" d="M-21 91q1 0 21 -3q14 -2 64 -2q43 0 92 20q48 19 76 59q-41 91 -238 176q-23 13 -37 66q-15 58 -4 79q86 164 448 325q9 3 13 3q9 0 10 -10q1 -3 1 -9l-3 -64q0 -11 -13 -18q-317 -170 -416 -286q220 -103 390 -236q122 -95 189 -101q25 -3 29 -30q4 -20 0 -39 q-3 -21 -13 -21q-70 0 -233 138q-58 49 -111 83q9 -36 11 -75q2 -76 -49.5 -114t-157.5 -38q-36 0 -55 4q-20 5 -31 62q-4 31 17 31z" />
<glyph unicode="&#x6af;" horiz-adv-x="1202" arabic-form="isolated" d="M772 160q2 4 1 7q-80 100 -240 173q-19 9 -29 62q-16 75 12 105q120 128 476 245q5 2 11 2t7 -6v-7l-7 -71q-1 -14 -10 -17q-403 -154 -460 -223q-3 -4 3 -7q233 -126 257 -251q12 -69 -11 -110q-32 -57 -211 -99q-124 -29 -226 -29q-253 -2 -297 158q-8 30 -7 77 q1 48 26 96q2 6 10 6t10 -7q3 -7 1 -12q-52 -114 29 -166q117 -75 337 -48q242 30 318 122zM538 641q-7 -3 -8.5 -0.5t2.5 11.5q6 14 21 31q11 13 18 18q151 78 416 160q5 1 6 -3q0 -7 -16 -30q-17 -25 -32 -29q-166 -47 -407 -158z" />
<glyph unicode="&#x6af;" horiz-adv-x="1132" arabic-form="final" d="M775 165q-41 91 -237 176q-25 14 -38 66q-14 56 -3 79q87 164 447 325q9 3 13 3q10 0 11 -10q1 -3 1 -9l-4 -64q0 -13 -12 -18q-319 -171 -417 -286q220 -103 390 -236q122 -95 189 -101q25 -3 29 -30q4 -20 0 -39q-3 -21 -13 -21q-69 0 -233 138q-62 52 -110 83 q9 -36 11 -75q3 -129 -228 -183q-124 -29 -226 -29q-253 -2 -297 158q-8 30 -7 77q1 48 26 96q2 6 10 6t10 -7q3 -7 1 -12q-52 -114 29 -166q117 -75 337 -48q255 31 321 127zM533 677q-9 -6 -9 3q0 3 2 8q4 17 16 34q9 15 17 20q139 96 388 207q2 1 4 1q2 -2 2 -4 q1 -5 -12 -32q-13 -26 -28 -33q-159 -66 -380 -204z" />
<glyph unicode="&#x6af;" horiz-adv-x="659" arabic-form="initial" d="M-16 90q168 -24 245 70q2 4 1 7q-80 100 -240 173q-19 9 -29 62q-17 75 12 105q121 128 475 245q5 2 12 2q6 0 7 -6v-2q0 -1 -0.5 -2.5t-0.5 -2.5l-6 -71q-1 -14 -11 -17q-403 -154 -460 -223q-3 -4 3 -7q233 -126 257 -251q12 -70 -10 -110q-23 -42 -65 -52 q-100 -26 -182 -11q-13 3 -20 25q-2 7 -4 14.5t-3.5 13.5t-2.5 8q-3 19 5 27q6 4 17 3zM-6 641q-7 -3 -8.5 -0.5t2.5 11.5q6 14 21 31q11 13 18 18q151 78 416 160q5 1 6 -3q0 -7 -16 -30q-17 -25 -32 -29q-166 -47 -407 -158z" />
<glyph unicode="&#x6af;" horiz-adv-x="588" arabic-form="medial" d="M-21 91q1 0 21 -3q14 -2 64 -2q43 0 92 20q48 19 76 59q-41 91 -238 176q-23 13 -37 66q-15 58 -4 79q86 164 448 325q9 3 13 3q9 0 10 -10q1 -3 1 -9l-3 -64q0 -11 -13 -18q-317 -170 -416 -286q220 -103 390 -236q122 -95 189 -101q25 -3 29 -30q4 -20 0 -39 q-3 -21 -13 -21q-70 0 -233 138q-58 49 -111 83q9 -36 11 -75q2 -76 -49.5 -114t-157.5 -38q-36 0 -55 4q-20 5 -31 62q-4 31 17 31zM-10 677q-9 -6 -9 3q0 3 2 8q4 17 16 34q9 15 17 20q139 96 388 207q4 3 6 -3q1 -5 -12 -32q-13 -26 -28 -33q-159 -66 -380 -204z" />
<glyph unicode="&#x6b3;" horiz-adv-x="1202" arabic-form="isolated" d="M772 160q2 4 1 7q-80 100 -240 173q-19 9 -29 62q-16 75 12 105q120 128 476 245q5 2 11 2t7 -6v-7l-7 -71q-1 -14 -10 -17q-403 -154 -460 -223q-3 -4 3 -7q233 -126 257 -251q12 -69 -11 -110q-32 -57 -211 -99q-124 -29 -226 -29q-253 -2 -297 158q-8 30 -7 77 q1 48 26 96q2 6 10 6t10 -7q3 -7 1 -12q-52 -114 29 -166q117 -75 337 -48q242 30 318 122zM538 641q-7 -3 -8.5 -0.5t2.5 11.5q6 14 21 31q11 13 18 18q151 78 416 160q5 1 6 -3q0 -7 -16 -30q-17 -25 -32 -29q-166 -47 -407 -158zM451 -75q2 4 9 2q41 -14 77 -42 q6 -4 4 -9l-23 -50q27 -11 56 -34q4 -4 2 -8l-34 -76q-2 -5 -10 1q-8 7 -77 44q-6 3 -4 6l27 54l-60 33q-5 3 -2 6z" />
<glyph unicode="&#x6b3;" horiz-adv-x="1132" arabic-form="final" d="M775 165q-41 91 -237 176q-25 14 -38 66q-14 56 -3 79q87 164 447 325q9 3 13 3q10 0 11 -10q1 -3 1 -9l-4 -64q0 -13 -12 -18q-319 -171 -417 -286q220 -103 390 -236q122 -95 189 -101q25 -3 29 -30q4 -20 0 -39q-3 -21 -13 -21q-69 0 -233 138q-62 52 -110 83 q9 -36 11 -75q3 -129 -228 -183q-124 -29 -226 -29q-253 -2 -297 158q-8 30 -7 77q1 48 26 96q2 6 10 6t10 -7q3 -7 1 -12q-52 -114 29 -166q117 -75 337 -48q255 31 321 127zM533 677q-9 -6 -9 3q0 3 2 8q4 17 16 34q9 15 17 20q139 96 388 207q2 1 4 1q2 -2 2 -4 q1 -5 -12 -32q-13 -26 -28 -33q-159 -66 -380 -204zM451 -75q2 4 9 2q41 -14 77 -42q6 -4 4 -9l-23 -50q27 -11 56 -34q4 -4 2 -8l-34 -76q-2 -5 -10 1q-8 7 -77 44q-6 3 -4 6l27 54l-60 33q-5 3 -2 6z" />
<glyph unicode="&#x6b3;" horiz-adv-x="659" arabic-form="initial" d="M-16 90q168 -24 245 70q2 4 1 7q-80 100 -240 173q-19 9 -29 62q-17 75 12 105q121 128 475 245q5 2 12 2q6 0 7 -6v-2q0 -1 -0.5 -2.5t-0.5 -2.5l-6 -71q-1 -14 -11 -17q-403 -154 -460 -223q-3 -4 3 -7q233 -126 257 -251q12 -70 -10 -110q-23 -42 -65 -52 q-100 -26 -182 -11q-13 3 -20 25q-2 7 -4 14.5t-3.5 13.5t-2.5 8q-3 19 5 27q6 4 17 3zM-6 641q-7 -3 -8.5 -0.5t2.5 11.5q6 14 21 31q11 13 18 18q151 78 416 160q5 1 6 -3q0 -7 -16 -30q-17 -25 -32 -29q-166 -47 -407 -158zM120 -21q1 4 8 2q39 -13 78 -42q5 -5 3 -9 l-23 -50q29 -11 56 -34q5 -3 3 -8l-34 -76q-3 -5 -10 1q-13 9 -78 44q-5 4 -3 6l26 54q-27 15 -59 33q-5 3 -2 6z" />
<glyph unicode="&#x6b3;" horiz-adv-x="588" arabic-form="medial" d="M-21 91q1 0 21 -3q14 -2 64 -2q43 0 92 20q48 19 76 59q-41 91 -238 176q-23 13 -37 66q-15 58 -4 79q86 164 448 325q9 3 13 3q9 0 10 -10q1 -3 1 -9l-3 -64q0 -11 -13 -18q-317 -170 -416 -286q220 -103 390 -236q122 -95 189 -101q25 -3 29 -30q4 -20 0 -39 q-3 -21 -13 -21q-70 0 -233 138q-58 49 -111 83q9 -36 11 -75q2 -76 -49.5 -114t-157.5 -38q-36 0 -55 4q-20 5 -31 62q-4 31 17 31zM-10 677q-9 -6 -9 3q0 3 2 8q4 17 16 34q9 15 17 20q139 96 388 207q4 3 6 -3q1 -5 -12 -32q-13 -26 -28 -33q-159 -66 -380 -204zM362 -39 q1 4 9 2q41 -14 77 -42q5 -5 4 -9l-24 -50q29 -11 56 -34q5 -3 3 -8l-34 -76q-2 -5 -10 1q-19 12 -78 44q-5 4 -3 6l27 54q-21 11 -60 33q-5 3 -2 6z" />
<glyph unicode="&#x6b1;" horiz-adv-x="1202" arabic-form="isolated" d="M772 160q2 4 1 7q-80 100 -240 173q-19 9 -29 62q-16 75 12 105q120 128 476 245q5 2 11 2t7 -6v-7l-7 -71q-1 -14 -10 -17q-403 -154 -460 -223q-3 -4 3 -7q233 -126 257 -251q12 -69 -11 -110q-32 -57 -211 -99q-124 -29 -226 -29q-253 -2 -297 158q-8 30 -7 77 q1 48 26 96q2 6 10 6t10 -7q3 -7 1 -12q-52 -114 29 -166q117 -75 337 -48q242 30 318 122zM538 641q-7 -3 -8.5 -0.5t2.5 11.5q6 14 21 31q11 13 18 18q151 78 416 160q5 1 6 -3q0 -7 -16 -30q-17 -25 -32 -29q-166 -47 -407 -158zM439 777q1 3 8 2q45 -15 78 -41 q5 -5 2 -9l-34 -76q-2 -3 -9 2q-5 4 -64 35l-27 -59q-3 -5 -10 1q-13 9 -78 44q-5 3 -2 6l36 73q1 3 8 2q32 -10 65 -33z" />
<glyph unicode="&#x6b1;" horiz-adv-x="1132" arabic-form="final" d="M775 165q-41 91 -237 176q-25 14 -38 66q-14 56 -3 79q87 164 447 325q9 3 13 3q10 0 11 -10q1 -3 1 -9l-4 -64q0 -13 -12 -18q-319 -171 -417 -286q220 -103 390 -236q122 -95 189 -101q25 -3 29 -30q4 -20 0 -39q-3 -21 -13 -21q-69 0 -233 138q-62 52 -110 83 q9 -36 11 -75q3 -129 -228 -183q-124 -29 -226 -29q-253 -2 -297 158q-8 30 -7 77q1 48 26 96q2 6 10 6t10 -7q3 -7 1 -12q-52 -114 29 -166q117 -75 337 -48q255 31 321 127zM533 677q-9 -6 -9 3q0 3 2 8q4 17 16 34q9 15 17 20q139 96 388 207q2 1 4 1q2 -2 2 -4 q1 -5 -12 -32q-13 -26 -28 -33q-159 -66 -380 -204zM437 789q1 3 8 2q43 -14 78 -41q5 -5 2 -9l-34 -76q-2 -3 -10 2q-4 4 -63 35l-27 -59q-3 -4 -11 1q-8 7 -77 44q-5 3 -2 6l36 73q1 3 7 2q32 -9 66 -33z" />
<glyph unicode="&#x6b1;" horiz-adv-x="659" arabic-form="initial" d="M-16 90q168 -24 245 70q2 4 1 7q-80 100 -240 173q-19 9 -29 62q-17 75 12 105q121 128 475 245q5 2 12 2q6 0 7 -6v-2q0 -1 -0.5 -2.5t-0.5 -2.5l-6 -71q-1 -14 -11 -17q-403 -154 -460 -223q-3 -4 3 -7q233 -126 257 -251q12 -70 -10 -110q-23 -42 -65 -52 q-100 -26 -182 -11q-13 3 -20 25q-2 7 -4 14.5t-3.5 13.5t-2.5 8q-3 19 5 27q6 4 17 3zM40 660q-7 -3 -8.5 -0.5t2.5 11.5q5 11 20 31q13 14 19 18q154 79 416 160q5 1 5 -3q2 -6 -15 -30q-19 -25 -32 -29q-163 -45 -407 -158zM-56 777q1 3 8 2q45 -15 78 -41q5 -5 2 -9 l-34 -76q-2 -3 -9 2q-5 4 -64 35l-27 -59q-3 -5 -10 1q-13 9 -78 44q-5 3 -2 6l36 73q1 3 8 2q32 -10 65 -33z" />
<glyph unicode="&#x6b1;" horiz-adv-x="588" arabic-form="medial" d="M-21 91q1 0 21 -3q14 -2 64 -2q43 0 92 20q48 19 76 59q-41 91 -238 176q-23 13 -37 66q-15 58 -4 79q86 164 448 325q9 3 13 3q9 0 10 -10q1 -3 1 -9l-3 -64q0 -11 -13 -18q-317 -170 -416 -286q220 -103 390 -236q122 -95 189 -101q25 -3 29 -30q4 -20 0 -39 q-3 -21 -13 -21q-70 0 -233 138q-58 49 -111 83q9 -36 11 -75q2 -76 -49.5 -114t-157.5 -38q-36 0 -55 4q-20 5 -31 62q-4 31 17 31zM38 701q-6 -4 -7.5 -1.5t0.5 12.5q5 15 16 34q12 17 18 20q137 96 387 207q6 3 7 -3q1 -3 -12 -32q-13 -27 -29 -33q-159 -66 -380 -204z M-58 789q1 3 8 2q43 -14 78 -41q5 -5 2 -9l-34 -76q-2 -3 -10 2q-4 4 -63 35l-27 -59q-3 -4 -11 1q-8 7 -77 44q-5 3 -2 6l36 73q1 3 7 2q32 -9 66 -33z" />
<glyph unicode="&#x6ba;" horiz-adv-x="572" arabic-form="isolated" d="M357 460q49 -69 86 -158t39 -179q2 -47 -15 -82q-42 -91 -185 -105q-101 -11 -165 41q-62 50 -74 140q-11 91 32 168q3 7 8 7q2 1 6 -1q10 -6 2 -20q-44 -104 6 -169q49 -64 162 -64q133 2 196 87q2 2 0 9q-6 47 -51 125q-45 81 -73 113q-8 10 -7 17l17 74q4 12 16 -3z " />
<glyph unicode="&#x6ba;" horiz-adv-x="615" arabic-form="final" d="M501 148q3 15 15 4q9 -8 39 -43q15 -19 44 -19q21 0 28 -21q6 -20 1 -45q-4 -24 -13 -24h-31q15 -116 -33 -216q-56 -114 -233 -120q-89 -3 -154 50q-63 52 -72 129q-9 73 39 206q3 6 7 6q7 0 11 -4t1 -13q-32 -94 -23 -131q31 -133 184 -135q166 -1 235 91 q-4 120 -54 201q-9 14 -8 17z" />
<glyph unicode="&#x6bb;" horiz-adv-x="572" arabic-form="isolated" d="M357 460q49 -69 86 -158t39 -179q2 -47 -15 -82q-42 -91 -185 -105q-101 -11 -165 41q-62 50 -74 140q-11 91 32 168q3 7 8 7q2 1 6 -1q10 -6 2 -20q-44 -104 6 -169q49 -64 162 -64q133 2 196 87q2 2 0 9q-6 47 -51 125q-45 81 -73 113q-8 10 -7 17l17 74q4 12 16 -3z M97 789q3 2 6.5 -1.5t5.5 -10.5q46 -147 46 -202q29 38 51 56q25 22 49 13q25 -9 41 -35q15 -27 -14 -74q-6 -10 -59 -27q-54 -17 -112 -20q-29 5 -46 19q-20 15 -24 22q-3 7 0 7q36 -4 77 -1l21 26q-9 70 -50 196q-2 4 2 16q3 15 6 16zM211 598q-20 -8 -66 -60q65 9 125 41 q-22 33 -59 19z" />
<glyph unicode="&#x6bb;" horiz-adv-x="615" arabic-form="final" d="M501 148q3 15 15 4q9 -8 39 -43q15 -19 44 -19q21 0 28 -21q6 -20 1 -45q-4 -24 -13 -24h-31q15 -116 -33 -216q-56 -114 -233 -120q-89 -3 -154 50q-63 52 -72 129q-9 73 39 206q3 6 7 6q7 0 11 -4t1 -13q-32 -94 -23 -131q31 -133 184 -135q166 -1 235 91 q-4 120 -54 201q-9 14 -8 17zM212 496q3 2 6.5 -1t5.5 -11q45 -144 45 -202q27 35 51 56q26 22 50 13q26 -10 40 -35q16 -28 -14 -74q-4 -10 -58 -27t-112 -20q-28 5 -47 19q-22 18 -24 22q-1 7 1 7q36 -4 76 -1l22 26q-12 80 -51 196q0 7 2 16q5 15 7 16zM325 305 q-22 -10 -65 -60q63 9 125 41q-22 33 -60 19z" />
<glyph unicode="&#x6bb;" horiz-adv-x="190" arabic-form="initial" d="M-61 643q3 2 6.5 -1t5.5 -11q45 -144 45 -202q27 35 51 56q26 22 50 13q26 -10 40 -35q16 -27 -14 -74q-4 -10 -58 -27t-112 -20q-28 5 -47 19q-22 18 -24 22q-1 7 1 7q36 -4 76 -1l22 26q-9 72 -51 196q0 7 2 16q5 15 7 16zM23 211l17 62q5 18 18 1q53 -77 46 -176 q-8 -98 -104 -98q-10 0 -30 51q-9 27 -1 35q4 4 15 4q60 -3 83 32q2 2 -1 7q-11 29 -37 58q-11 12 -6 24zM52 452q-20 -9 -65 -60q63 9 125 41q-22 33 -60 19z" />
<glyph unicode="&#x6bb;" horiz-adv-x="244" arabic-form="medial" d="M-22 628q4 2 7 -1t5 -11q46 -147 46 -202q27 35 51 56q25 22 50 13q26 -10 40 -35q16 -28 -14 -74q-6 -11 -58 -27q-54 -17 -113 -20q-28 5 -46 19q-20 15 -24 22q-3 7 1 7q35 -4 76 -1l21 26q-10 77 -50 196q0 7 2 16q5 16 6 16zM228 90q18 -5 21 -11q4 -10 4 -24 q3 -55 -9 -55q-55 0 -119 61q-35 -55 -125 -61q-10 0 -16 15l-15 42q-5 11 0 21t15 12q109 9 136 66q4 8 13 8t11 -9q2 -10 4 -12q41 -45 80 -53zM92 437q-22 -10 -65 -60q65 9 124 41q-22 33 -59 19z" />
<glyph unicode="&#x6c0;" horiz-adv-x="369" arabic-form="isolated" d="M101 326q13 11 41 -3q70 -37 108 -96q37 -58 34 -121q-1 -59 -34 -95q-32 -35 -81 -35q-69 -2 -98 48q-30 48 -24 129q8 82 51 146q2 2 0 13q-2 12 3 14zM157 548q-62 -13 -74 -17q-19 -7 -77 -35q-12 -5 -20 4q-15 18 30 49q-40 18 -49 42q-16 42 16 99q33 57 80 53 q30 -3 33 -34t-9 -52q-10 -21 -23 -5q-14 18 -33 19q-21 2 -29 -12q-10 -14 5 -26q39 -31 104 -33q7 0 29 5q23 5 28 5q9 0 14 -7q4 -8 3 -11q-14 -41 -28 -44zM233 111q11 9 -10 30q-57 57 -99 56q-20 0 -31 -29q-9 -30 -3 -45q17 -37 65 -37q50 0 78 25z" />
<glyph unicode="&#x6c0;" horiz-adv-x="379" arabic-form="final" d="M179 439q9 19 17 -8q1 -6 5.5 -20t13.5 -43t17 -55q8 -27 16 -55.5t12.5 -42.5t5.5 -19q23 -81 52 -97q16 -11 45 -9q17 0 25 -21q7 -23 4 -45t-13 -24q-55 -4 -88 28q-33 34 -59 119q-19 -53 -46 -65q-21 -8 -61 -1q-43 8 -63 22q-22 16 -22 35q-2 21 9 54t19 43 q44 52 110 90q-11 44 -14 61q-3 20 3 32zM171 553q-60 -12 -74 -17q-19 -7 -77 -35q-12 -5 -20 4q-15 18 30 49q-40 18 -49 42q-16 42 16 99q33 57 80 53q30 -3 33 -34t-9 -52q-10 -21 -23 -5q-14 18 -33 19q-21 2 -29 -12q-9 -15 6 -26q37 -31 103 -33q7 0 29 5q23 5 29 5 q8 0 13 -7q4 -8 3 -11q-14 -41 -28 -44zM195 264q-73 -22 -100 -67q-3 -6 5 -10q46 -21 109 -6q6 1 10 7q-14 48 -24 76z" />
<glyph unicode="&#x6c1;" horiz-adv-x="369" arabic-form="isolated" d="M101 326q13 11 41 -3q70 -37 108 -96q37 -58 34 -121q-1 -59 -34 -95q-32 -35 -81 -35q-69 -2 -98 48q-30 48 -24 129q8 82 51 146q2 2 0 13q-2 12 3 14zM233 111q11 9 -10 30q-57 57 -99 56q-20 0 -31 -29q-9 -30 -3 -45q17 -37 65 -37q50 0 78 25z" />
<glyph unicode="&#x6c1;" horiz-adv-x="408" arabic-form="final" d="M393 91q30 -1 32 -20q3 -43 2 -49q-3 -21 -19 -22q-58 -3 -109 21q-45 21 -90 69q-9 9 -20 -2q-15 -15 -39 -51q-31 -49 -53 -80q-5 -7 -12 -4t-2 14q29 73 98 206q24 45 51 13q37 -42 79 -67q44 -27 82 -28z" />
<glyph unicode="&#x6c1;" horiz-adv-x="452" arabic-form="initial" d="M29 322q9 90 51 88q43 -2 150 -89q106 -86 125 -140q23 -67 -10 -117q-16 -25 -48 -22q-84 9 -179 43q-81 -85 -118 -85q-9 0 -19 16q-42 68 3 74q38 5 64 28q-31 22 -26 61q11 66 54 111q-13 16 -35 19q-14 2 -12 13zM192 237q-3 2 -3 0q-1 0 0 -2q9 -33 -20 -83 q123 -36 141 -24q7 4 4 8q-28 48 -122 101zM130 165q31 17 28 26q-13 52 -41 58q-42 9 -69 -35q-8 -12 11 -23q21 -11 71 -26z" />
<glyph unicode="&#x6c1;" horiz-adv-x="460" arabic-form="medial" d="M162 13q-3 -5 -6 -12q-28 -89 36 -215q4 -8 2 -13l-27 -51q-5 -10 -10 -5q-105 105 -88 315q-27 -32 -69 -32q-8 0 -19 21q-7 15 -15 45q-5 23 18 24q84 4 129 116q6 15 17 9q10 -6 7 -15q-25 -62 -39 -132q-18 -101 7 -151l1 -2q0 1 1 2q5 23 19 65q0 3 2 7 q32 95 86 137q56 44 119 34q21 -5 50 -35q31 -32 60 -35q13 -2 17 -24q7 -27 6 -45q0 -11 -1.5 -16.5t-5.5 -4.5q-46 3 -97 45q-33 28 -50 30q-104 11 -150 -62z" />
<glyph unicode="&#x6be;" horiz-adv-x="608" arabic-form="isolated" d="M195 58q-2 2 -6 11q-12 36 -9 80t40 94q38 51 69 69q32 18 59 -47q6 -11 17 -16q100 -45 141 -81q11 -8 19 -38q9 -32 5 -62q-4 -35 -21 -56q-16 -22 -120 -17q-69 3 -127 21q-44 -31 -111 -46q-20 -6 -32 0l-55 25q-40 20 11 31q62 13 120 32zM272 226q-14 0 -39 -24 q-21 -21 -34 -59v-7q14 -30 70 -42q43 19 53 37q9 16 -10 56q-18 39 -40 39zM354 177q1 -52 -27 -94q53 -10 144 -8q12 0 15 9q2 7 -3 14q-41 39 -129 79z" />
<glyph unicode="&#x6be;" horiz-adv-x="522" arabic-form="final" d="M206 11q-34 -11 -47 -13q-23 -4 -41 7l-63 41q-47 31 4 37q151 17 170 31q21 106 82 198q31 44 43 38q22 -10 31 -41q41 -153 -63 -243q70 -5 184 24q8 1 16 -10q17 -29 11 -63q-3 -15 -11 -17q-55 -12 -92 -9q40 -35 47 -117q3 -39 -15 -70q-22 -34 -54 -34 q-54 -1 -95.5 50t-70.5 153l-30 4zM284 -32q31 -79 81 -100q42 -17 76 7q10 8 1 20q-48 54 -158 73zM327 234q-8 0 -14 -3q-54 -33 -60 -110q85 37 110 80q5 8 -1 15q-14 18 -35 18z" />
<glyph unicode="&#x6be;" horiz-adv-x="452" arabic-form="initial" d="M37 104q-12 33 -9 79q3 45 39 94q37 51 69 69q33 19 60 -47q6 -11 17 -16q98 -44 140 -81q12 -10 20 -37q8 -29 4 -63q-4 -35 -21 -56q-17 -20 -104 -17q-82 3 -149 22q-47 -35 -103 -51q-11 -3 -20 17q-33 70 3 73q35 3 54 14zM120 260q-14 0 -39 -24q-22 -22 -35 -59 v-7q14 -30 71 -42q41 18 52 38q9 16 -9 55t-40 39zM202 211q1 -50 -28 -93q57 -10 144 -9q12 0 15 9q3 8 -2 14q-41 39 -129 79z" />
<glyph unicode="&#x6be;" horiz-adv-x="390" arabic-form="medial" d="M222 350q23 -9 31 -41q36 -150 -53 -243q61 -5 175 24q7 1 15 -10q17 -29 11 -63q-3 -16 -10 -17q-55 -12 -93 -9q40 -35 47 -117q3 -39 -15 -70q-22 -34 -54 -34q-54 -1 -95.5 50t-70.5 153l-29 4l-8 48q-44 -25 -73 -25q-19 0 -40 67q-6 21 24 23q54 3 113 24 q21 106 82 198q31 44 43 38zM152 -32q31 -79 81 -100q42 -17 77 7q9 8 0 20q-48 54 -158 73zM195 234q-8 0 -14 -3q-54 -33 -60 -110q87 37 111 80q4 7 -2 15q-14 18 -35 18z" />
<glyph unicode="&#x6d2;" horiz-adv-x="1159" arabic-form="isolated" d="M416 272q-14 92 -39 93q-9 1 -18 -9.5t-20 -32.5q-1 -2 -3.5 -8t-6.5 -15.5t-8 -19.5q-15 -34 -36 -60q-20 -24 -85 -54q-68 -30 -88 -50q-10 -10 -1 -20q21 -23 65 -27q75 -9 391 5q302 13 494 13q27 0 20 -22l-15 -41q-9 -24 -26 -24q-193 0 -439 -11 q-277 -12 -386 -11q-118 2 -148 39q-13 15 -11 36q6 90 66 151q19 19 76 43q56 23 80 44q22 20 35 60q36 108 80 105q50 -3 48 -183q0 -14 -12 -14q-10 0 -13 13z" />
<glyph unicode="&#x6d2;" horiz-adv-x="571" arabic-form="final" d="M668 -182q14 1 19 -5t1 -18l-15 -40q-7 -23 -25 -25q-261 -12 -388 -10q-116 1 -148 39q-11 15 -11 35q8 83 67 151q127 145 387 145q33 0 31 -45t-15 -45q-268 0 -414 -142q-10 -10 0 -20q18 -22 64 -27q110 -11 447 7z" />
<glyph unicode="&#x6d3;" horiz-adv-x="1159" arabic-form="isolated" d="M141 556q-2 6 4 7q10 4 95 -73q48 -45 66 -84q20 -39 18 -80q-1 -4 -1 -11q0 -11 -3 -35q-6 -35 -27 -58q-1 -1 -4 -3q-23 -23 -89 -53q-68 -30 -88 -50q-10 -10 -1 -20q21 -23 65 -27q75 -9 391 5q302 13 494 13q27 0 20 -22l-15 -41q-9 -24 -26 -24q-193 0 -439 -11 q-277 -12 -386 -11q-118 2 -148 39q-13 15 -11 36q6 90 66 151q19 19 76 43q56 23 80 44q14 12 21 21q-11 60 -123 150q-9 7 -16 14q-1 2 -5 13zM164 760q-60 -12 -74 -17q-17 -6 -78 -35q-11 -5 -20 4q-14 17 31 49q-41 18 -50 42q-14 43 17 99q32 57 80 53q30 -3 33 -34 q1 -31 -9 -52q-11 -19 -23 -5q-14 17 -34 19t-29 -12q-8 -15 6 -26q39 -31 104 -33q6 0 29 5q22 5 28 5q9 0 13 -7q5 -7 3 -11q-12 -41 -27 -44z" />
<glyph unicode="&#x6d3;" horiz-adv-x="517" arabic-form="final" d="M488 2q-67 15 -97 103q-7 7 -9 4l-4 -4q-8 -11 -20 -35q-23 -43 -36 -59q-21 -26 -85 -55q-68 -30 -88 -50q-10 -10 -1 -20q21 -23 65 -27q75 -9 391 5q302 13 494 13q27 0 20 -22l-15 -41q-9 -24 -26 -24q-193 0 -439 -11q-277 -12 -386 -11q-118 2 -148 39 q-13 15 -11 36q6 90 66 151q19 19 76 43q56 23 80 44q17 15 38 59q14 32 38 38q1 0 1 0.5t1 0.5q13 1 20 -11q3 -6 5 -11q6 -11 14 -23q32 -42 83 -45q16 -2 19 -20q3 -17 -7 -58q-3 -11 -10 -11q-14 -1 -29 2zM359 377q-60 -12 -74 -17t-78 -35q-12 -5 -20 4q-15 18 30 49 q-40 18 -49 42q-16 42 16 99q33 57 80 53q30 -3 33 -34t-9 -52q-10 -21 -23 -5q-14 18 -33 19q-21 2 -29 -12q-9 -15 6 -26q37 -31 103 -33q7 0 29 5q23 5 29 5q8 0 13 -7q4 -6 3 -11q-12 -41 -27 -44z" />
<glyph unicode="&#x6ad;" horiz-adv-x="657" arabic-form="isolated" d="M354 782q30 -47 65 -70q9 -6 4 -19l-13 -30q-2 -5 -2 -10q130 -341 147 -429l8 -49q11 -64 -7 -126q-14 -55 -329 -49q-90 2 -156 12q-8 2 -9 9q-13 55 -17 86q-1 4 1 5.5t5 -0.5q43 -16 137 -17q290 -6 345 37q0 37 -85 271q-91 251 -98 267q-18 42 -20 47q-8 17 -4 31 l12 38q3 6 7 5q5 -1 9 -9zM190 574q4 0 6 -4q2 -2 2 -7l-12 -53q-3 -12 -8 -14q-27 -6 -36 -21q-2 -4 2 -8t15 -8q16 -6 53 -12q71 -11 17 -109q-16 -29 -35 -35q-18 -6 -70 -1q-43 4 -83 17q-11 4 -14 13q-1 9 9 9q26 1 66 3q80 1 96 11q4 3 1 7q-1 3 -9 5l-30 7 q-27 6 -41 20q-17 15 -15 32q7 126 86 148zM146 784q1 3 7 2q43 -14 79 -41q5 -5 2 -9l-34 -76q-2 -3 -10 2l-55 31l-25 -56q-2 -4 -11 2q-8 7 -77 44q-5 3 -2 6l36 72q1 3 7 2q35 -12 58 -27zM58 888q2 3 8 2q44 -14 78 -41q6 -4 4 -9l-35 -76q-1 -4 -10 2q-19 12 -78 44 q-5 4 -3 6z" />
<glyph unicode="&#x6ad;" horiz-adv-x="822" arabic-form="final" d="M565 709q8 17 14 -3q10 -42 49 -194q72 -286 98 -335q38 -73 81 -87q20 -6 29 -28q8 -21 2 -42q-5 -20 -15 -20q-98 0 -147 175q-9 -41 -36 -81q-25 -40 -57 -58q-105 -59 -244 -64q-203 -7 -273 90q-19 28 -23 54q-15 98 33 170q3 6 11 6q5 0 9 -7q2 -7 -3 -15 q-31 -67 -19 -98q39 -103 232 -106q131 -1 263 53q45 19 66 59q5 12 1 43q-6 41 -47 198l-43 164q-16 58 -6 76zM340 577q5 0 7 -4t1 -7l-11 -53q-3 -13 -9 -14q-26 -6 -35 -21q-5 -8 17 -16q17 -7 53 -12q69 -10 17 -109q-17 -29 -36 -35q-17 -6 -70 -1q-44 4 -83 17 q-12 5 -13 13q-2 9 8 9q26 2 67 3q80 1 96 11q3 2 1 7q-2 3 -9 5l-30 7q-27 6 -42 20q-17 15 -15 32q9 126 86 148zM296 787q2 3 8 2q45 -15 78 -41q5 -4 3 -9l-35 -76q-1 -4 -9 2q-2 1 -9 5t-20 11t-27 15l-25 -56q-1 -4 -10 2q-13 9 -78 44q-5 3 -2 6l36 72q2 3 8 2 q37 -13 58 -27zM209 891q1 3 8 2q43 -14 78 -41q5 -5 3 -9l-34 -76q-2 -4 -11 2q-8 7 -77 44q-6 3 -3 6z" />
<glyph unicode="&#x6ad;" horiz-adv-x="659" arabic-form="initial" d="M-16 90q168 -24 245 70q2 4 1 7q-80 100 -240 173q-19 9 -29 62q-17 75 12 105q121 128 475 245q5 2 12 2q6 0 7 -6v-2q0 -1 -0.5 -2.5t-0.5 -2.5l-6 -71q-1 -14 -11 -17q-403 -154 -460 -223q-3 -4 3 -7q233 -126 257 -251q12 -70 -10 -110q-23 -42 -65 -52 q-100 -26 -182 -11q-13 3 -20 25q-2 7 -4 14.5t-3.5 13.5t-2.5 8q-3 19 5 27q6 4 17 3zM31 777q1 3 8 2q45 -15 78 -41q5 -5 2 -9l-34 -76q-2 -3 -9 2q-2 1 -9 5t-20 11t-27 15l-25 -56q-3 -4 -10 2q-13 9 -78 44q-5 3 -2 6l36 72q2 3 8 2q35 -12 57 -27zM-56 881q1 3 7 2 q43 -14 79 -41q5 -5 3 -9l-34 -76q-2 -4 -11 2q-19 12 -78 44q-4 3 -3 6z" />
<glyph unicode="&#x6ad;" horiz-adv-x="588" arabic-form="medial" d="M-21 91q1 0 21 -3q14 -2 64 -2q43 0 92 20q48 19 76 59q-41 91 -238 176q-23 13 -37 66q-15 58 -4 79q86 164 448 325q9 3 13 3q9 0 10 -10q1 -3 1 -9l-3 -64q0 -11 -13 -18q-317 -170 -416 -286q220 -103 390 -236q122 -95 189 -101q25 -3 29 -30q4 -20 0 -39 q-3 -21 -13 -21q-70 0 -233 138q-58 49 -111 83q9 -36 11 -75q2 -76 -49.5 -114t-157.5 -38q-36 0 -55 4q-20 5 -31 62q-4 31 17 31zM-4 789q1 3 8 2q43 -14 78 -41q5 -5 2 -9l-34 -76q-2 -3 -10 2l-55 31l-25 -56q-2 -4 -11 2q-8 7 -77 44q-5 3 -2 6l36 72q1 3 8 2 q35 -12 57 -27zM-91 893q1 3 7 2q44 -14 78 -41q6 -4 4 -9l-35 -76q-1 -4 -10 2q-19 12 -78 44q-5 3 -3 6z" />
<glyph unicode="&#x6c7;" horiz-adv-x="400" arabic-form="isolated" d="M135 194q9 49 25 73t40 23q28 0 61 -40q29 -36 47 -89q16 -54 9 -139q-6 -87 -59 -163q-52 -75 -91 -79q-40 -4 -107 6q-60 9 -99 24q-13 5 -13 12q2 8 12 6q81 -10 148 6q42 11 108 80q68 71 75 117q-12 42 -21 46q-27 -59 -91 -29q-65 30 -44 146zM112 657q57 0 74 -96 q13 -76 -41 -203q-6 -15 -17 -9q-9 5 -5 20q41 128 14 177q-14 23 -36 23q-19 0 -25 -28q-3 -10 -9 -7t-8 15q-8 79 23 99q12 9 30 9zM232 157q-36 47 -62 4q30 -28 62 -4z" />
<glyph unicode="&#x6c7;" horiz-adv-x="345" arabic-form="final" d="M327 -11q0 -179 -145 -249q-41 -20 -71 -21q-36 -2 -139 61q-13 8 -10 15t14 2q90 -43 204 29q97 62 116 169q0 3 -4 5q-74 2 -111 20q-39 20 -39 78q-1 11 2 31q11 62 47 85q38 23 72 -16q35 -40 52 -108q2 0 7 0.5t8 0.5q15 0 22 -23q7 -20 5 -45q-2 -23 -11 -23h-19 v-11zM126 591q57 0 74 -96q13 -76 -41 -203q-7 -14 -17 -9q-11 5 -5 20q40 127 13 177q-12 23 -36 23q-17 0 -25 -28q-3 -10 -9 -7q-7 4 -7 15q-9 78 23 99q12 9 30 9zM259 101q-27 42 -55 41q-17 -3 -24 -16q-4 -6 4 -14q21 -20 73 -19q5 0 2 8z" />
<glyph unicode="&#x6c6;" horiz-adv-x="400" arabic-form="isolated" d="M135 194q9 49 25 73t40 23q28 0 61 -40q29 -36 47 -89q16 -54 9 -139q-6 -87 -59 -163q-52 -75 -91 -79q-40 -4 -107 6q-60 9 -99 24q-13 5 -13 12q2 8 12 6q81 -10 148 6q42 11 108 80q68 71 75 117q-12 42 -21 46q-27 -59 -91 -29q-65 30 -44 146zM208 585l24 -27 q4 -8 4 -9q1 -3 -1 -10q-35 -78 -41 -140l-8 -7q-1 -1 -5 -1q-2 0 -9 5q-71 73 -115 150q-5 8 -5 12q-2 9 6 12q12 5 22 -13q18 -33 70 -101q8 78 40 127q4 7 10 7q3 0 8 -5zM232 157q-36 47 -62 4q30 -28 62 -4z" />
<glyph unicode="&#x6c6;" horiz-adv-x="345" arabic-form="final" d="M327 -11q0 -179 -145 -249q-41 -20 -71 -21q-36 -2 -139 61q-13 8 -10 15t14 2q90 -43 204 29q97 62 116 169q0 3 -4 5q-74 2 -111 20q-39 20 -39 78q-1 11 2 31q11 62 47 85q38 23 72 -16q35 -40 52 -108q2 0 7 0.5t8 0.5q15 0 22 -23q7 -20 5 -45q-2 -23 -11 -23h-19 v-11zM216 522l24 -27q4 -8 4 -9q2 -6 -1 -10q-35 -82 -41 -140l-8 -7q-1 -1 -5 -1q-2 0 -9 5q-71 73 -115 150q-5 8 -5 12q-2 9 7 12q11 5 21 -13q18 -33 70 -101q8 78 40 127q4 7 10 7q3 0 8 -5zM259 101q-27 42 -55 41q-17 -3 -24 -16q-4 -6 4 -14q21 -20 73 -19q5 0 2 8z " />
<glyph unicode="&#x6c8;" horiz-adv-x="400" arabic-form="isolated" d="M135 194q9 49 25 73t40 23q28 0 61 -40q29 -36 47 -89q16 -54 9 -139q-6 -87 -59 -163q-52 -75 -91 -79q-40 -4 -107 6q-60 9 -99 24q-13 5 -13 12q2 8 12 6q81 -10 148 6q42 11 108 80q68 71 75 117q-12 42 -21 46q-27 -59 -91 -29q-65 30 -44 146zM53 633q3 15 19 -1 q114 -106 112 -268q0 -9 -8 -11q-9 -1 -12 11q-32 104 -109 183q-11 9 -9 22zM232 157q-36 47 -62 4q30 -28 62 -4z" />
<glyph unicode="&#x6c8;" horiz-adv-x="345" arabic-form="final" d="M327 -11q0 -179 -145 -249q-41 -20 -71 -21q-36 -2 -139 61q-13 8 -10 15t14 2q90 -43 204 29q97 62 116 169q0 3 -4 5q-74 2 -111 20q-39 20 -39 78q-1 11 2 31q11 62 47 85q38 23 72 -16q35 -40 52 -108q2 0 7 0.5t8 0.5q15 0 22 -23q7 -20 5 -45q-2 -23 -11 -23h-19 v-11zM61 571q3 15 18 -1q115 -105 113 -268q0 -9 -8 -11q-9 -1 -12 11q-32 105 -110 183q-10 10 -8 22zM259 101q-27 42 -55 41q-17 -3 -24 -16q-4 -6 4 -14q21 -20 73 -19q5 0 2 8z" />
<glyph unicode="&#x677;" horiz-adv-x="498" arabic-form="isolated" d="M232 194q9 49 25 73t40 23q28 0 61 -40q29 -36 47 -89q16 -54 9 -139q-6 -87 -59 -163q-52 -75 -91 -79q-40 -4 -107 6q-60 9 -99 24q-13 5 -13 12q1 8 12 6q81 -10 148 6q42 11 108 80q68 71 75 117q-12 42 -21 46q-27 -59 -91 -29q-65 30 -44 146zM313 456 q-60 -12 -74 -17t-78 -35q-12 -5 -20 4q-15 18 30 49q-40 18 -49 42q-16 42 17 99q32 57 79 53q32 -3 33 -34q3 -31 -9 -52q-10 -21 -23 -5q-14 18 -33 19q-21 2 -29 -12q-9 -15 6 -26q37 -31 103 -33q7 0 30 5q22 5 28 5q8 0 13 -7q4 -6 3 -11q-12 -41 -27 -44zM-17 680 q57 0 74 -96q13 -76 -41 -203q-6 -15 -17 -9q-9 5 -5 20q40 126 14 177q-14 23 -36 23q-19 0 -25 -28q-3 -10 -9 -7t-8 15q-8 79 23 99q12 9 30 9zM329 157q-36 47 -62 4q30 -28 62 -4z" />
<glyph unicode="&#x6cb;" horiz-adv-x="400" arabic-form="isolated" d="M135 194q9 49 25 73t40 23q28 0 61 -40q29 -36 47 -89q16 -54 9 -139q-6 -87 -59 -163q-52 -75 -91 -79q-40 -4 -107 6q-60 9 -99 24q-13 5 -13 12q2 8 12 6q81 -10 148 6q42 11 108 80q68 71 75 117q-12 42 -21 46q-27 -59 -91 -29q-65 30 -44 146zM138 520q2 3 8 2 q44 -14 78 -41q5 -4 3 -9l-35 -76q-1 -3 -9 2t-56 31l-25 -56q-1 -4 -10 2q-19 12 -78 44q-5 3 -2 6l36 72q2 3 8 2q37 -13 58 -27zM51 624q1 3 8 2q43 -14 78 -41q5 -5 3 -9l-34 -76q-2 -4 -11 2q-8 7 -77 44q-6 3 -3 6zM232 157q-36 47 -62 4q30 -28 62 -4z" />
<glyph unicode="&#x6cb;" horiz-adv-x="345" arabic-form="final" d="M327 -11q0 -179 -145 -249q-41 -20 -71 -21q-36 -2 -139 61q-13 8 -10 15t14 2q90 -43 204 29q97 62 116 169q0 3 -4 5q-74 2 -111 20q-39 20 -39 78q-1 11 2 31q11 62 47 85q38 23 72 -16q35 -40 52 -108q2 0 7 0.5t8 0.5q15 0 22 -23q7 -20 5 -45q-2 -23 -11 -23h-19 v-11zM146 458q2 3 8 2q45 -15 78 -41q5 -4 3 -9l-35 -76q-1 -4 -9 2q-2 1 -9 5t-20 11t-27 15l-25 -56q-1 -4 -10 2q-13 9 -78 44q-5 3 -2 6l36 72q2 3 8 2q37 -13 58 -27zM59 562q1 3 8 2q43 -14 78 -41q5 -5 3 -9l-34 -76q-2 -4 -11 2q-8 7 -77 44q-6 3 -3 6zM259 101 q-27 42 -55 41q-17 -3 -24 -16q-4 -6 4 -14q21 -20 73 -19q5 0 2 8z" />
<glyph unicode="&#x6c5;" horiz-adv-x="400" arabic-form="isolated" d="M135 194q9 49 25 73t40 23q28 0 61 -40q29 -36 47 -89q16 -54 9 -139q0 -8 -2 -22h78q11 0 7 -10l-9 -23q-5 -9 -19 -9h-66q-15 -52 -48 -99q-52 -75 -91 -79q-40 -4 -107 6q-60 9 -99 24q-13 5 -13 12q2 8 12 6q81 -10 148 6q42 11 108 80q28 29 38 44h-76q-10 0 -6 10 l9 22q5 10 18 10h82q7 15 10 31q-12 42 -21 46q-27 -59 -91 -29q-65 30 -44 146zM232 157q-36 47 -62 4q30 -28 62 -4z" />
<glyph unicode="&#x6c5;" horiz-adv-x="345" arabic-form="final" d="M327 -11q0 -41 -7 -72h64q10 0 6 -10l-9 -23q-3 -9 -18 -9h-55q-33 -90 -126 -135q-41 -20 -71 -21q-36 -2 -139 61q-13 8 -10 15t14 2q90 -43 204 29q31 19 58 49h-69q-10 0 -7 10l9 22q5 10 19 10h78q21 39 28 78q0 3 -4 5q-74 2 -111 20q-39 20 -39 78q-1 11 2 31 q11 62 47 85q38 23 72 -16q35 -40 52 -108q2 0 7 0.5t8 0.5q15 0 22 -23q7 -20 5 -45q-2 -23 -11 -23h-19v-11zM259 101q-27 42 -55 41q-17 -3 -24 -16q-4 -6 4 -14q21 -20 73 -19q5 0 2 8z" />
<glyph unicode="&#x6c9;" horiz-adv-x="400" arabic-form="isolated" d="M135 194q9 49 25 73t40 23q28 0 61 -40q29 -36 47 -89q16 -54 9 -139q-6 -87 -59 -163q-52 -75 -91 -79q-40 -4 -107 6q-60 9 -99 24q-13 5 -13 12q2 8 12 6q81 -10 148 6q42 11 108 80q68 71 75 117q-12 42 -21 46q-27 -59 -91 -29q-65 30 -44 146zM248 405q-3 -5 -7 -5 q-4 -2 -11 5q-59 50 -98 119q-16 -56 -22 -105q-1 -8 -4.5 -12t-9.5 -3q-10 1 -13 11v7v4q9 84 45 160q2 6 6 6q3 0 4 -1l11 -6q38 -63 104 -133q4 -3 6 -8q0 -8 -1 -10zM232 157q-36 47 -62 4q30 -28 62 -4z" />
<glyph unicode="&#x6c9;" horiz-adv-x="345" arabic-form="final" d="M327 -11q0 -179 -145 -249q-41 -20 -71 -21q-36 -2 -139 61q-13 8 -10 15t14 2q90 -43 204 29q97 62 116 169q0 3 -4 5q-74 2 -111 20q-39 20 -39 78q-1 11 2 31q11 62 47 85q38 23 72 -16q35 -40 52 -108q2 0 7 0.5t8 0.5q15 0 22 -23q7 -20 5 -45q-2 -23 -11 -23h-19 v-11zM256 342q-3 -5 -6 -5q-5 -2 -12 5q-59 50 -98 119q-16 -56 -22 -105q-1 -8 -4.5 -12t-9.5 -3q-10 1 -13 11v7v4q9 84 45 160q2 6 6 6q3 0 4 -1l11 -6q35 -58 104 -133q4 -3 6 -8v-10zM259 101q-27 42 -55 41q-17 -3 -24 -16q-4 -6 4 -14q21 -20 73 -19q5 0 2 8z" />
<glyph unicode="&#x6d0;" horiz-adv-x="764" arabic-form="isolated" d="M620 288q-67 33 -148 -19q-54 -34 -66 -100q-2 -13 7 -26q28 -48 137 -54q110 -6 120 -45q24 -78 -23 -122q-125 -116 -306 -123q-217 -9 -270 162q-24 78 5 184q18 57 46 101q8 12 15 2q7 -8 2 -18q-73 -139 -24 -226q65 -113 220 -110q189 3 291 97q8 7 -2 14 q-19 14 -116 20q-99 6 -122 50q-23 45 -16 99q18 108 109 183q44 38 84 41q91 6 80 -93q-3 -28 -23 -17zM390 -288q1 4 8 2q39 -13 78 -42q5 -5 3 -9l-23 -50q29 -11 56 -34q5 -3 3 -8l-34 -76q-2 -5 -10 1q-19 12 -78 44q-5 4 -3 6l27 54q-21 10 -60 33q-5 3 -2 6z" />
<glyph unicode="&#x6d0;" horiz-adv-x="585" arabic-form="final" d="M84 -116q-5 52 7 110q12 61 28 90q6 9 15 5q11 -5 5 -17q-53 -144 -2 -218q72 -108 220 -100q172 8 281 115q7 15 -22 22q-30 8 -91 12q-63 5 -67 8q-53 27 -28 83q30 64 140 96q29 9 31 -32q2 -58 -15 -58q-32 0 -53 -2.5t-31 -8.5t-9 -15q122 -4 168 -35q18 -13 25 -30 q7 -18 0 -55q-9 -38 -19 -51q-103 -134 -299 -143q-121 -6 -205 60q-66 52 -79 164zM425 -428q2 4 9 2q39 -13 78 -42q5 -5 3 -9l-23 -50q27 -11 56 -34q4 -4 2 -8l-33 -76q-3 -5 -10 1q-13 9 -78 44q-6 3 -3 6l26 54q-20 10 -60 33q-4 3 -2 6z" />
<glyph unicode="&#x6d0;" horiz-adv-x="190" arabic-form="initial" d="M23 211l17 62q5 18 18 1q53 -77 46 -176q-8 -98 -104 -98q-10 0 -30 51q-9 27 -1 35q4 4 15 4q60 -3 83 32q2 2 -1 7q-11 29 -37 58q-11 12 -6 24zM87 -112q1 4 8 2q39 -13 78 -42q5 -5 3 -9l-23 -50q29 -11 56 -34q5 -3 3 -8l-34 -76q-2 -5 -10 1q-13 9 -78 44 q-5 4 -3 6l26 54q-27 15 -59 33q-5 3 -2 6z" />
<glyph unicode="&#x6d0;" horiz-adv-x="244" arabic-form="medial" d="M228 90q18 -5 21 -11q4 -10 4 -24q3 -55 -9 -55q-55 0 -119 61q-35 -55 -125 -61q-10 0 -16 15l-15 42q-5 11 0 21t15 12q109 9 136 66q4 8 13 8t11 -9q2 -10 4 -12q41 -45 80 -53zM131 -112q1 4 8 2q39 -13 78 -42q5 -5 3 -9l-23 -50q29 -11 56 -34q5 -3 3 -8l-34 -76 q-2 -5 -10 1q-13 9 -78 44q-5 4 -3 6l26 54q-27 15 -59 33q-5 3 -2 6z" />
<glyph unicode="&#x649;" horiz-adv-x="190" arabic-form="initial" d="M23 211l17 62q5 18 18 1q53 -77 46 -176q-8 -98 -104 -98q-10 0 -30 51q-9 27 -1 35q4 4 15 4q60 -3 83 32q2 2 -1 7q-11 29 -37 58q-11 12 -6 24z" />
<glyph unicode="&#x649;" horiz-adv-x="244" arabic-form="medial" d="M228 90q18 -5 21 -11q4 -10 4 -24q3 -55 -9 -55q-55 0 -119 61q-35 -55 -125 -61q-10 0 -16 15l-15 42q-5 11 0 21t15 12q109 9 136 66q4 8 13 8t11 -9q2 -10 4 -12q41 -45 80 -53z" />
<glyph unicode="&#xfbea;" horiz-adv-x="419" arabic-form="isolated" d="M-50 720q3 6 5 6q3 1 6 -4.5t7 -16.5q43 -148 70 -265q12 -53 26.5 -116t21.5 -93t10 -43q24 -92 117 -98q60 -3 83 32q2 2 -1 7q-11 29 -37 58q-10 12 -6 24l17 62q5 18 18 1q53 -77 46 -176q-8 -98 -104 -98q-130 0 -162 122q-28 110 -47 206q-20 98 -41 168 q-13 39 -50 147q-6 16 -2 25zM316 407q-60 -12 -74 -17q-17 -6 -78 -35q-11 -6 -19 4q-15 18 30 49q-42 19 -49 42q-16 42 16 99t80 53q30 -3 33 -34t-9 -52q-11 -19 -23 -5q-14 18 -33 19q-21 2 -29 -12q-10 -14 5 -26q39 -31 104 -33q7 0 29 5q23 5 28 5q9 0 14 -7 q4 -8 2 -11q-12 -41 -27 -44z" />
<glyph unicode="&#xfbeb;" horiz-adv-x="473" arabic-form="final" d="M-50 720q3 6 5 6q3 1 6 -4.5t7 -16.5q43 -148 70 -265q12 -53 26.5 -116t21.5 -93t10 -43q24 -92 117 -98q109 9 136 66q4 8 13 8q10 0 11 -9q2 -10 4 -12q41 -45 80 -53q18 -5 21 -11q4 -10 4 -24q3 -55 -9 -55q-55 0 -119 61q-35 -55 -124 -61h-1q-130 0 -162 122 q-28 110 -47 206q-20 98 -41 168q-13 39 -50 147q-6 16 -2 25zM359 377q-60 -12 -74 -17t-78 -35q-12 -5 -20 4q-15 18 30 49q-40 18 -49 42q-16 42 16 99q33 57 80 53q30 -3 33 -34t-9 -52q-10 -21 -23 -5q-14 18 -33 19q-21 2 -29 -12q-9 -15 6 -26q37 -31 103 -33 q7 0 29 5q23 5 29 5q8 0 13 -7q4 -6 3 -11q-12 -41 -27 -44z" />
<glyph unicode="&#xfbec;" horiz-adv-x="569" arabic-form="isolated" d="M179 439q9 19 17 -8q1 -6 5.5 -20t13.5 -43t17 -55q8 -27 16 -55.5t12.5 -42.5t5.5 -19q23 -81 52 -97q15 -9 39 -9h6h3q56 -3 80 32q2 2 -1 7q-11 29 -37 58q-10 12 -6 24l17 62q5 18 18 1q53 -77 46 -176q-8 -98 -104 -98q-55 -4 -88 28q-33 34 -59 119 q-19 -53 -46 -65q-21 -8 -61 -1q-43 8 -63 22q-22 16 -22 35q-2 21 9 54t19 43q44 52 110 90q-11 44 -14 61q-3 20 3 32zM466 407q-60 -12 -74 -17q-17 -6 -78 -35q-11 -6 -19 4q-15 18 30 49q-42 19 -49 42q-16 42 16 99t80 53q30 -3 33 -34t-9 -52q-11 -19 -23 -5 q-14 18 -33 19q-21 2 -29 -12q-10 -14 5 -26q39 -31 104 -33q7 0 29 5q23 5 28 5q9 0 14 -7q4 -8 2 -11q-12 -41 -27 -44zM195 264q-73 -22 -100 -67q-3 -6 5 -10q46 -21 109 -6q6 1 10 7q-14 48 -24 76z" />
<glyph unicode="&#xfbed;" horiz-adv-x="623" arabic-form="final" d="M179 439q9 19 17 -8q1 -6 5.5 -20t13.5 -43t17 -55q8 -27 16 -55.5t12.5 -42.5t5.5 -19q23 -81 52 -97q16 -11 45 -9q109 9 136 66q4 8 13 8q10 0 11 -9q2 -10 4 -12q41 -45 80 -53q18 -5 21 -11q4 -10 4 -24q3 -55 -9 -55q-55 0 -119 61q-35 -55 -125 -61q-55 -4 -88 28 q-33 34 -59 119q-19 -53 -46 -65q-21 -8 -61 -1q-43 8 -63 22q-22 16 -22 35q-2 21 9 54t19 43q44 52 110 90q-11 44 -14 61q-3 20 3 32zM509 377q-60 -12 -74 -17t-78 -35q-12 -5 -20 4q-15 18 30 49q-40 18 -49 42q-16 42 16 99q33 57 80 53q30 -3 33 -34t-9 -52 q-10 -21 -23 -5q-14 18 -33 19q-21 2 -29 -12q-9 -15 6 -26q37 -31 103 -33q7 0 29 5q23 5 29 5q8 0 13 -7q4 -6 3 -11q-12 -41 -27 -44zM195 264q-73 -22 -100 -67q-3 -6 5 -10q46 -21 109 -6q6 1 10 7q-14 48 -24 76z" />
<glyph unicode="&#xfbee;" horiz-adv-x="536" arabic-form="isolated" d="M327 -11q0 -179 -145 -249q-41 -20 -71 -21q-36 -2 -139 61q-13 8 -10 15t14 2q90 -43 204 29q97 62 116 169q0 3 -4 5q-74 2 -111 20q-39 20 -39 78q-1 11 2 31q11 62 47 85q38 23 72 -16q35 -40 52 -108q2 0 7 0.5t8 0.5q5 0 7 -1q53 -1 76 32q2 2 -1 7q-11 29 -37 58 q-11 12 -6 24l17 62q5 18 18 1q53 -77 46 -176q-8 -98 -104 -98h-19v-11zM433 407q-60 -12 -74 -17q-17 -6 -78 -35q-11 -6 -19 4q-15 18 30 49q-42 19 -49 42q-16 42 16 99t80 53q30 -3 33 -34t-9 -52q-11 -19 -23 -5q-14 18 -33 19q-21 2 -29 -12q-10 -14 5 -26 q39 -31 104 -33q7 0 29 5q23 5 28 5q9 0 14 -7q4 -8 2 -11q-12 -41 -27 -44zM259 101q-27 42 -55 41q-17 -3 -24 -16q-4 -6 4 -14q21 -20 73 -19q5 0 2 8z" />
<glyph unicode="&#xfbef;" horiz-adv-x="589" arabic-form="final" d="M327 -11q0 -179 -145 -249q-41 -20 -71 -21q-36 -2 -139 61q-13 8 -10 15t14 2q90 -43 204 29q97 62 116 169q0 3 -4 5q-74 2 -111 20q-39 20 -39 78q-1 11 2 31q11 62 47 85q38 23 72 -16q35 -40 52 -108q2 0 7 0.5t8 0.5t5 -1q106 11 131 66q4 8 13 8t11 -9 q2 -10 4 -12q41 -45 80 -53q18 -5 21 -11q4 -10 4 -24q3 -55 -9 -55q-55 0 -119 61q-35 -55 -124 -61h-20v-11zM476 377q-60 -12 -74 -17t-78 -35q-12 -5 -20 4q-15 18 30 49q-40 18 -49 42q-16 42 16 99q33 57 80 53q30 -3 33 -34t-9 -52q-10 -21 -23 -5q-14 18 -33 19 q-21 2 -29 -12q-9 -15 6 -26q37 -31 103 -33q7 0 29 5q23 5 29 5q8 0 13 -7q4 -6 3 -11q-12 -41 -27 -44zM259 101q-27 42 -55 41q-17 -3 -24 -16q-4 -6 4 -14q21 -20 73 -19q5 0 2 8z" />
<glyph unicode="&#xfbf0;" horiz-adv-x="536" arabic-form="isolated" d="M327 -11q0 -179 -145 -249q-41 -20 -71 -21q-36 -2 -139 61q-13 8 -10 15t14 2q90 -43 204 29q97 62 116 169q0 3 -4 5q-74 2 -111 20q-39 20 -39 78q-1 11 2 31q11 62 47 85q38 23 72 -16q35 -40 52 -108q2 0 7 0.5t8 0.5q5 0 7 -1q53 -1 76 32q2 2 -1 7q-11 29 -37 58 q-11 12 -6 24l17 62q5 18 18 1q53 -77 46 -176q-8 -98 -104 -98h-19v-11zM433 407q-60 -12 -74 -17q-17 -6 -78 -35q-11 -6 -19 4q-15 18 30 49q-42 19 -49 42q-16 42 16 99t80 53q30 -3 33 -34t-9 -52q-11 -19 -23 -5q-14 18 -33 19q-21 2 -29 -12q-10 -14 5 -26 q39 -31 104 -33q7 0 29 5q23 5 28 5q9 0 14 -7q4 -8 2 -11q-12 -41 -27 -44zM126 591q57 0 74 -96q13 -76 -41 -203q-7 -14 -17 -9q-11 5 -5 20q40 127 13 177q-12 23 -36 23q-17 0 -25 -28q-3 -10 -9 -7q-7 4 -7 15q-9 78 23 99q12 9 30 9zM259 101q-27 42 -55 41 q-17 -3 -24 -16q-4 -6 4 -14q21 -20 73 -19q5 0 2 8z" />
<glyph unicode="&#xfbf1;" horiz-adv-x="589" arabic-form="final" d="M327 -11q0 -179 -145 -249q-41 -20 -71 -21q-36 -2 -139 61q-13 8 -10 15t14 2q90 -43 204 29q97 62 116 169q0 3 -4 5q-74 2 -111 20q-39 20 -39 78q-1 11 2 31q11 62 47 85q38 23 72 -16q35 -40 52 -108q2 0 7 0.5t8 0.5t5 -1q106 11 131 66q4 8 13 8t11 -9 q2 -10 4 -12q41 -45 80 -53q18 -5 21 -11q4 -10 4 -24q3 -55 -9 -55q-55 0 -119 61q-35 -55 -124 -61h-20v-11zM476 377q-60 -12 -74 -17t-78 -35q-12 -5 -20 4q-15 18 30 49q-40 18 -49 42q-16 42 16 99q33 57 80 53q30 -3 33 -34t-9 -52q-10 -21 -23 -5q-14 18 -33 19 q-21 2 -29 -12q-9 -15 6 -26q37 -31 103 -33q7 0 29 5q23 5 29 5q8 0 13 -7q4 -6 3 -11q-12 -41 -27 -44zM126 591q57 0 74 -96q13 -76 -41 -203q-7 -14 -17 -9q-11 5 -5 20q40 127 13 177q-12 23 -36 23q-17 0 -25 -28q-3 -10 -9 -7q-7 4 -7 15q-9 78 23 99q12 9 30 9z M259 101q-27 42 -55 41q-17 -3 -24 -16q-4 -6 4 -14q21 -20 73 -19q5 0 2 8z" />
<glyph unicode="&#xfbf2;" horiz-adv-x="536" arabic-form="isolated" d="M327 -11q0 -179 -145 -249q-41 -20 -71 -21q-36 -2 -139 61q-13 8 -10 15t14 2q90 -43 204 29q97 62 116 169q0 3 -4 5q-74 2 -111 20q-39 20 -39 78q-1 11 2 31q11 62 47 85q38 23 72 -16q35 -40 52 -108q2 0 7 0.5t8 0.5q5 0 7 -1q53 -1 76 32q2 2 -1 7q-11 29 -37 58 q-11 12 -6 24l17 62q5 18 18 1q53 -77 46 -176q-8 -98 -104 -98h-19v-11zM216 522l23 -27q4 24 20 54q32 57 80 53q30 -3 33 -34t-9 -52q-11 -19 -23 -5q-14 18 -33 19q-21 2 -29 -12q-10 -14 5 -26q39 -31 104 -33q7 0 29 5q23 5 28 5q9 0 14 -7q4 -8 2 -11 q-12 -41 -27 -44q-60 -12 -74 -17q-17 -6 -78 -35q-11 -6 -19 4q-15 18 30 49q-42 19 -49 42q-2 6 -4 16q-31 -74 -37 -130l-8 -7q-1 -1 -5 -1q-2 0 -9 5q-71 73 -115 150q-5 8 -5 12q-2 9 7 12q11 5 21 -13q18 -33 70 -101q8 78 40 127q4 7 10 7q3 0 8 -5zM259 101 q-27 42 -55 41q-17 -3 -24 -16q-4 -6 4 -14q21 -20 73 -19q5 0 2 8z" />
<glyph unicode="&#xfbf3;" horiz-adv-x="589" arabic-form="final" d="M327 -11q0 -179 -145 -249q-41 -20 -71 -21q-36 -2 -139 61q-13 8 -10 15t14 2q90 -43 204 29q97 62 116 169q0 3 -4 5q-74 2 -111 20q-39 20 -39 78q-1 11 2 31q11 62 47 85q38 23 72 -16q35 -40 52 -108q2 0 7 0.5t8 0.5t5 -1q106 11 131 66q4 8 13 8t11 -9 q2 -10 4 -12q41 -45 80 -53q18 -5 21 -11q4 -10 4 -24q3 -55 -9 -55q-55 0 -119 61q-35 -55 -124 -61h-20v-11zM476 377q-60 -12 -74 -17t-78 -35q-12 -5 -20 4q-15 18 30 49q-40 18 -49 42q-16 42 16 99q33 57 80 53q30 -3 33 -34t-9 -52q-10 -21 -23 -5q-14 18 -33 19 q-21 2 -29 -12q-9 -15 6 -26q37 -31 103 -33q7 0 29 5q23 5 29 5q8 0 13 -7q4 -6 3 -11q-12 -41 -27 -44zM216 522l24 -27q4 -8 4 -9q2 -6 -1 -10q-35 -82 -41 -140l-8 -7q-1 -1 -5 -1q-2 0 -9 5q-71 73 -115 150q-5 8 -5 12q-2 9 7 12q11 5 21 -13q18 -33 70 -101 q8 78 40 127q4 7 10 7q3 0 8 -5zM259 101q-27 42 -55 41q-17 -3 -24 -16q-4 -6 4 -14q21 -20 73 -19q5 0 2 8z" />
<glyph unicode="&#xfbf4;" horiz-adv-x="536" arabic-form="isolated" d="M327 -11q0 -179 -145 -249q-41 -20 -71 -21q-36 -2 -139 61q-13 8 -10 15t14 2q90 -43 204 29q97 62 116 169q0 3 -4 5q-74 2 -111 20q-39 20 -39 78q-1 11 2 31q11 62 47 85q38 23 72 -16q35 -40 52 -108q2 0 7 0.5t8 0.5q5 0 7 -1q53 -1 76 32q2 2 -1 7q-11 29 -37 58 q-11 12 -6 24l17 62q5 18 18 1q53 -77 46 -176q-8 -98 -104 -98h-19v-11zM433 407q-60 -12 -74 -17q-17 -6 -78 -35q-11 -6 -19 4q-15 18 30 49q-42 19 -49 42q-16 42 16 99t80 53q30 -3 33 -34t-9 -52q-11 -19 -23 -5q-14 18 -33 19q-21 2 -29 -12q-10 -14 5 -26 q39 -31 104 -33q7 0 29 5q23 5 28 5q9 0 14 -7q4 -8 2 -11q-12 -41 -27 -44zM61 571q3 15 18 -1q115 -105 113 -268q0 -9 -8 -11q-9 -1 -12 11q-32 105 -110 183q-10 10 -8 22zM259 101q-27 42 -55 41q-17 -3 -24 -16q-4 -6 4 -14q21 -20 73 -19q5 0 2 8z" />
<glyph unicode="&#xfbf5;" horiz-adv-x="589" arabic-form="final" d="M327 -11q0 -179 -145 -249q-41 -20 -71 -21q-36 -2 -139 61q-13 8 -10 15t14 2q90 -43 204 29q97 62 116 169q0 3 -4 5q-74 2 -111 20q-39 20 -39 78q-1 11 2 31q11 62 47 85q38 23 72 -16q35 -40 52 -108q2 0 7 0.5t8 0.5t5 -1q106 11 131 66q4 8 13 8t11 -9 q2 -10 4 -12q41 -45 80 -53q18 -5 21 -11q4 -10 4 -24q3 -55 -9 -55q-55 0 -119 61q-35 -55 -124 -61h-20v-11zM476 377q-60 -12 -74 -17t-78 -35q-12 -5 -20 4q-15 18 30 49q-40 18 -49 42q-16 42 16 99q33 57 80 53q30 -3 33 -34t-9 -52q-10 -21 -23 -5q-14 18 -33 19 q-21 2 -29 -12q-9 -15 6 -26q37 -31 103 -33q7 0 29 5q23 5 29 5q8 0 13 -7q4 -6 3 -11q-12 -41 -27 -44zM61 571q3 15 18 -1q115 -105 113 -268q0 -9 -8 -11q-9 -1 -12 11q-32 105 -110 183q-10 10 -8 22zM259 101q-27 42 -55 41q-17 -3 -24 -16q-4 -6 4 -14q21 -20 73 -19 q5 0 2 8z" />
<glyph unicode="&#xfbf6;" horiz-adv-x="734" arabic-form="isolated" d="M428 130h1v1q2 2 23 6q76 17 114 69q-6 52 -40 95q-35 44 -70 69q-10 7 -8 22l11 76q3 19 16 8q24 -18 55 -67q34 -55 46 -94q17 -48 12 -98q-4 -49 -29 -83q-2 -4 -4 -5q63 -9 93 -33q17 -13 19 -45q3 -65 -10 -88q-15 -24 -45 -51q-152 -132 -327 -127q-76 3 -132 43 q-55 40 -79 102q-22 61 -15 146q7 84 42 143q7 11 15 3t4 -18q-45 -92 -28 -165q38 -159 210 -159q175 0 320 148q2 2 -2 7q-35 30 -169 33q-33 -3 -34 -3q-10 0 -6 9l15 47zM495 651q-60 -12 -74 -17q-17 -6 -78 -35q-11 -6 -19 4q-15 18 30 49q-42 19 -49 42q-16 42 16 99 t80 53q30 -3 33 -34t-9 -52q-11 -19 -23 -5q-14 18 -33 19q-21 2 -29 -12q-10 -14 5 -26q39 -31 104 -33q7 0 29 5q23 5 28 5q9 0 14 -7q4 -8 2 -11q-12 -41 -27 -44zM392 -302q2 4 9 2q41 -14 77 -42q6 -4 4 -9l-23 -50q27 -11 56 -34q4 -4 2 -8l-33 -76q-3 -4 -11 1 q-8 7 -77 44q-6 3 -3 6l26 54q-19 10 -60 33q-5 3 -2 6z" />
<glyph unicode="&#xfbf7;" horiz-adv-x="729" arabic-form="final" d="M453 -95q-41 11 -49 38q0 1 -0.5 2.5t-0.5 2.5q-10 40 15 97q26 59 71 101q46 42 82 44q23 1 60 -46q34 -46 83 -54q32 -6 29 -34q-3 -58 -13 -56q-28 1 -56 14q-29 12 -61 50q-34 39 -56 40q-23 1 -69 -27q-38 -23 -46 -41v-6q-4 -27 33 -47q35 -19 83 -25 q104 -12 129 -21q26 -9 40 -32q12 -20 14 -49q1 -25 -8 -44q-18 -35 -111 -83q-94 -48 -214 -61q-214 -24 -296 123q-28 52 -28 140q2 89 43 178q3 6 10 6t11 -6q3 -6 -6 -29q-41 -105 -18 -179q32 -96 157 -134q45 -12 97 -8q158 13 309 97q1 0 1 0.5t1 0.5q0 2 -6 8 q-7 6 -89 15t-141 25zM522 407q-60 -12 -74 -17q-17 -6 -78 -35q-11 -6 -19 4q-15 18 30 49q-42 19 -49 42q-16 42 16 99t80 53q30 -3 33 -34t-9 -52q-11 -19 -23 -5q-14 18 -33 19q-21 2 -29 -12q-10 -14 5 -26q39 -31 104 -33q7 0 29 5q23 5 28 5q9 0 14 -7q4 -8 2 -11 q-12 -41 -27 -44zM427 -425q1 4 9 2q41 -14 77 -42q6 -4 4 -9l-24 -50q29 -11 56 -34q5 -3 3 -8l-34 -76q-2 -5 -10 1q-19 12 -78 44q-4 3 -3 6l27 54q-6 3 -60 33q-5 3 -2 6z" />
<glyph unicode="&#xfbf8;" horiz-adv-x="471" arabic-form="initial" d="M145 46q-3 0 -5 2l-34 22q-49 -69 -106 -70q-20 0 -35 44q-13 43 19 47q85 10 115 59q8 14 25 1q2 -1 17 -13q2 0 4 -2q85 -56 160 -55q3 0 2 4q-2 6 -19 23q-4 4 -4 10l12 69q0 6 5 6q4 0 7 -5q25 -44 28 -89q2 -60 -17 -79q-13 -15 -24 -16q-59 -10 -150 42zM300 419 q-60 -12 -74 -17q-17 -6 -78 -35q-11 -6 -19 4q-16 17 30 49q-42 19 -49 42q-16 42 16 99t80 53q30 -3 33 -34q1 -31 -9 -52q-11 -19 -23 -5q-14 18 -34 19q-20 2 -28 -12q-10 -14 5 -26q39 -31 104 -33q7 0 29 5q23 5 28 5q9 0 13 -7q5 -7 3 -11q-12 -41 -27 -44zM49 -88 q1 4 8 2q39 -13 78 -42q5 -5 3 -9l-23 -50q27 -11 56 -34q4 -4 2 -8l-33 -76q-3 -5 -10 1q-13 9 -78 44q-6 3 -3 6l26 54q-19 10 -60 33q-4 3 -2 6z" />
<glyph unicode="&#xfbf9;" horiz-adv-x="734" arabic-form="isolated" d="M428 130h1v1q2 2 23 6q76 17 114 69q-6 52 -40 95q-35 44 -70 69q-10 7 -8 22l11 76q3 19 16 8q24 -18 55 -67q34 -55 46 -94q17 -48 12 -98q-4 -49 -29 -83q-2 -4 -4 -5q63 -9 93 -33q17 -13 19 -45q3 -65 -10 -88q-15 -24 -45 -51q-152 -132 -327 -127q-76 3 -132 43 q-55 40 -79 102q-22 61 -15 146q7 84 42 143q7 11 15 3t4 -18q-45 -92 -28 -165q38 -159 210 -159q175 0 320 148q2 2 -2 7q-35 30 -169 33q-33 -3 -34 -3q-10 0 -6 9l15 47zM495 651q-60 -12 -74 -17q-17 -6 -78 -35q-11 -6 -19 4q-15 18 30 49q-42 19 -49 42q-16 42 16 99 t80 53q30 -3 33 -34t-9 -52q-11 -19 -23 -5q-14 18 -33 19q-21 2 -29 -12q-10 -14 5 -26q39 -31 104 -33q7 0 29 5q23 5 28 5q9 0 14 -7q4 -8 2 -11q-12 -41 -27 -44z" />
<glyph unicode="&#xfbfa;" horiz-adv-x="729" arabic-form="final" d="M453 -95q-41 11 -49 38q0 1 -0.5 2.5t-0.5 2.5q-10 40 15 97q26 59 71 101q46 42 82 44q23 1 60 -46q34 -46 83 -54q32 -6 29 -34q-3 -58 -13 -56q-28 1 -56 14q-29 12 -61 50q-34 39 -56 40q-23 1 -69 -27q-38 -23 -46 -41v-6q-4 -27 33 -47q35 -19 83 -25 q104 -12 129 -21q26 -9 40 -32q12 -20 14 -49q1 -25 -8 -44q-18 -35 -111 -83q-94 -48 -214 -61q-214 -24 -296 123q-28 52 -28 140q2 89 43 178q3 6 10 6t11 -6q3 -6 -6 -29q-41 -105 -18 -179q32 -96 157 -134q45 -12 97 -8q158 13 309 97q1 0 1 0.5t1 0.5q0 2 -6 8 q-7 6 -89 15t-141 25zM522 407q-60 -12 -74 -17q-17 -6 -78 -35q-11 -6 -19 4q-15 18 30 49q-42 19 -49 42q-16 42 16 99t80 53q30 -3 33 -34t-9 -52q-11 -19 -23 -5q-14 18 -33 19q-21 2 -29 -12q-10 -14 5 -26q39 -31 104 -33q7 0 29 5q23 5 28 5q9 0 14 -7q4 -8 2 -11 q-12 -41 -27 -44z" />
<glyph unicode="&#xfbfb;" horiz-adv-x="471" arabic-form="initial" d="M145 46q-3 0 -5 2l-34 22q-49 -69 -106 -70q-20 0 -35 44q-13 43 19 47q85 10 115 59q8 14 25 1q2 -1 17 -13q2 0 4 -2q85 -56 160 -55q3 0 2 4q-2 6 -19 23q-4 4 -4 10l12 69q0 6 5 6q4 0 7 -5q25 -44 28 -89q2 -60 -17 -79q-13 -15 -24 -16q-59 -10 -150 42zM300 419 q-60 -12 -74 -17q-17 -6 -78 -35q-11 -6 -19 4q-16 17 30 49q-42 19 -49 42q-16 42 16 99t80 53q30 -3 33 -34q1 -31 -9 -52q-11 -19 -23 -5q-14 18 -34 19q-20 2 -28 -12q-10 -14 5 -26q39 -31 104 -33q7 0 29 5q23 5 28 5q9 0 13 -7q5 -7 3 -11q-12 -41 -27 -44z" />
<glyph unicode="&#x6cc;" horiz-adv-x="764" arabic-form="isolated" d="M620 288q-67 33 -148 -19q-54 -34 -66 -100q-2 -13 7 -26q28 -48 137 -54q110 -6 120 -45q24 -78 -23 -122q-125 -116 -306 -123q-217 -9 -270 162q-24 78 5 184q18 57 46 101q8 12 15 2q7 -8 2 -18q-73 -139 -24 -226q65 -113 220 -110q189 3 291 97q8 7 -2 14 q-19 14 -116 20q-99 6 -122 50q-23 45 -16 99q18 108 109 183q44 38 84 41q91 6 80 -93q-3 -28 -23 -17z" />
<glyph unicode="&#x6cc;" horiz-adv-x="585" arabic-form="final" d="M84 -116q-5 52 7 110q12 61 28 90q6 9 15 5q11 -5 5 -17q-53 -144 -2 -218q72 -108 220 -100q172 8 281 115q7 15 -22 22q-30 8 -91 12q-63 5 -67 8q-53 27 -28 83q30 64 140 96q29 9 31 -32q2 -58 -15 -58q-32 0 -53 -2.5t-31 -8.5t-9 -15q122 -4 168 -35q18 -13 25 -30 q7 -18 0 -55q-9 -38 -19 -51q-103 -134 -299 -143q-121 -6 -205 60q-66 52 -79 164z" />
<glyph unicode="&#x6cc;" horiz-adv-x="190" arabic-form="initial" d="M23 211l17 62q5 18 18 1q53 -77 46 -176q-8 -98 -104 -98q-10 0 -30 51q-9 27 -1 35q4 4 15 4q60 -3 83 32q2 2 -1 7q-11 29 -37 58q-11 12 -6 24zM169 -113q1 3 8 2q43 -14 78 -41q5 -5 2 -9l-34 -76q-2 -3 -10 2q-4 4 -63 35l-27 -59q-3 -4 -11 1q-8 7 -77 44 q-5 3 -2 6l36 73q1 3 7 2q32 -9 66 -33z" />
<glyph unicode="&#x6cc;" horiz-adv-x="244" arabic-form="medial" d="M228 90q18 -5 21 -11q4 -10 4 -24q3 -55 -9 -55q-55 0 -119 61q-35 -55 -125 -61q-10 0 -16 15l-15 42q-5 11 0 21t15 12q109 9 136 66q4 8 13 8t11 -9q2 -10 4 -12q41 -45 80 -53zM179 -64q2 3 8 2q44 -14 78 -41q5 -4 3 -9l-35 -76q-1 -3 -9 2q-4 3 -63 35l-28 -59 q-2 -5 -10 1q-19 12 -78 44q-5 3 -2 6l36 73q2 3 8 2q30 -9 66 -33z" />
<glyph unicode="&#xfc00;" horiz-adv-x="647" arabic-form="isolated" d="M50 216q0 1 1 2.5t2 2.5q6 11 9 15h5q12 13 45 35q104 66 136 104q32 39 42 87q10 52 19 76q11 27 32 27t44 -27q35 -43 53 -180q1 -13 -8 -13q-11 0 -14 14q-31 110 -71 110q-9 0 -16 -13q-5 -8 -20 -50q-29 -97 -146 -168q-3 -2 -8 -5q276 -13 408 6q6 0 8 -1 q2 -4 2 -8q-2 -41 -4 -52q-5 -14 -14 -15q-240 -30 -344 -155q-68 -80 -53 -177q23 -164 172 -217q124 -44 345 -33q95 6 138 12q11 2 12 -8q2 -11 -4 -13q-104 -49 -171 -65q-65 -15 -117 -14q-202 6 -294 80q-93 75 -111 205q-21 155 70 292q30 43 81 79l-243 2 q-14 3 -7 22q16 32 21 43zM379 713q-62 -13 -74 -17q-17 -6 -78 -35q-11 -6 -19 4q-15 18 30 49q-40 18 -49 42q-16 42 16 99q33 57 80 53q30 -3 33 -34t-9 -52q-10 -21 -23 -5q-14 18 -33 19q-21 2 -29 -12q-10 -14 5 -26q39 -31 104 -33q7 0 29 5q23 5 28 5q9 0 14 -7 q4 -8 3 -11q-14 -41 -28 -44zM404 -117q1 3 7 2q41 -13 79 -42q4 -4 2 -8l-34 -76q-2 -5 -10 1q-8 7 -77 44q-6 3 -3 6z" />
<glyph unicode="&#xfc01;" horiz-adv-x="647" arabic-form="isolated" d="M50 216q0 1 1 2.5t2 2.5q6 11 9 15h5q12 13 45 35q104 66 136 104q32 39 42 87q10 52 19 76q11 27 32 27t44 -27q35 -43 53 -180q1 -13 -8 -13q-11 0 -14 14q-31 110 -71 110q-9 0 -16 -13q-5 -8 -20 -50q-29 -97 -146 -168q-3 -2 -8 -5q276 -13 408 6q6 0 8 -1 q2 -4 2 -8q-2 -41 -4 -52q-5 -14 -14 -15q-240 -30 -344 -155q-68 -80 -53 -177q23 -164 172 -217q124 -44 345 -33q95 6 138 12q11 2 12 -8q2 -11 -4 -13q-104 -49 -171 -65q-65 -15 -117 -14q-202 6 -294 80q-93 75 -111 205q-21 155 70 292q30 43 81 79l-243 2 q-14 3 -7 22q16 32 21 43zM379 713q-62 -13 -74 -17q-17 -6 -78 -35q-11 -6 -19 4q-15 18 30 49q-40 18 -49 42q-16 42 16 99q33 57 80 53q30 -3 33 -34t-9 -52q-10 -21 -23 -5q-14 18 -33 19q-21 2 -29 -12q-10 -14 5 -26q39 -31 104 -33q7 0 29 5q23 5 28 5q9 0 14 -7 q4 -8 3 -11q-14 -41 -28 -44z" />
<glyph unicode="&#xfc02;" horiz-adv-x="594" arabic-form="isolated" d="M96 128q11 56 19 68q-2 4 1 5q16 19 68 56q133 94 211 93q37 0 67 -21q31 -22 21 -54q-6 -18 -22 -44q-23 -40 -37 -7q-15 32 -53 36q-66 6 -185 -70q2 0 5.5 -2t5.5 -2q72 -24 137 -68q20 -13 17 -36q-2 -13 -4.5 -25.5t-3.5 -18.5t-1 -7q-2 -9 -6 -13.5t-10 -3.5 q-111 14 -189 -9q-48 -13 -66 -38q0 -12 19 -66l47 -142q27 -78 39 -121q21 -84 13 -137q-3 -12 -12 -11q-13 2 -15 27q-5 62 -93 299q-30 86 -22 146t28 89q19 27 60 49l-12 4q-11 3 -20 7t-7 17zM395 568q-60 -12 -74 -17q-17 -6 -78 -35q-12 -6 -20 4q-15 18 31 49 q-41 18 -50 42q-14 43 17 99q32 57 79 53q32 -3 33 -34q3 -30 -8 -52q-12 -21 -23 -5q-14 17 -34 19t-29 -12q-9 -15 6 -26q39 -31 104 -33q6 0 29 5q22 5 28 5q8 0 13 -7q4 -6 3 -11q-12 -41 -27 -44z" />
<glyph unicode="&#xfc03;" horiz-adv-x="734" arabic-form="isolated" d="M428 130h1v1q2 2 23 6q76 17 114 69q-6 52 -40 95q-35 44 -70 69q-10 7 -8 22l11 76q3 19 16 8q24 -18 55 -67q34 -55 46 -94q17 -48 12 -98q-4 -49 -29 -83q-2 -4 -4 -5q63 -9 93 -33q17 -13 19 -45q3 -65 -10 -88q-15 -24 -45 -51q-152 -132 -327 -127q-76 3 -132 43 q-55 40 -79 102q-22 61 -15 146q7 84 42 143q7 11 15 3t4 -18q-45 -92 -28 -165q38 -159 210 -159q175 0 320 148q2 2 -2 7q-35 30 -169 33q-33 -3 -34 -3q-10 0 -6 9l15 47zM495 651q-60 -12 -74 -17q-17 -6 -78 -35q-11 -6 -19 4q-15 18 30 49q-42 19 -49 42q-16 42 16 99 t80 53q30 -3 33 -34t-9 -52q-11 -19 -23 -5q-14 18 -33 19q-21 2 -29 -12q-10 -14 5 -26q39 -31 104 -33q7 0 29 5q23 5 28 5q9 0 14 -7q4 -8 2 -11q-12 -41 -27 -44z" />
<glyph unicode="&#xfc04;" horiz-adv-x="734" arabic-form="isolated" d="M428 130h1v1q2 2 23 6q76 17 114 69q-6 52 -40 95q-35 44 -70 69q-10 7 -8 22l11 76q3 19 16 8q24 -18 55 -67q34 -55 46 -94q17 -48 12 -98q-4 -49 -29 -83q-2 -4 -4 -5q63 -9 93 -33q17 -13 19 -45q3 -65 -10 -88q-15 -24 -45 -51q-152 -132 -327 -127q-76 3 -132 43 q-55 40 -79 102q-22 61 -15 146q7 84 42 143q7 11 15 3t4 -18q-45 -92 -28 -165q38 -159 210 -159q175 0 320 148q2 2 -2 7q-35 30 -169 33q-33 -3 -34 -3q-10 0 -6 9l15 47zM495 651q-60 -12 -74 -17q-17 -6 -78 -35q-11 -6 -19 4q-15 18 30 49q-42 19 -49 42q-16 42 16 99 t80 53q30 -3 33 -34t-9 -52q-11 -19 -23 -5q-14 18 -33 19q-21 2 -29 -12q-10 -14 5 -26q39 -31 104 -33q7 0 29 5q23 5 28 5q9 0 14 -7q4 -8 2 -11q-12 -41 -27 -44zM444 -303q2 3 8 2q44 -14 78 -41q5 -4 3 -9l-35 -76q-1 -3 -9 2q-4 3 -63 35l-28 -59q-2 -5 -10 1 q-19 12 -78 44q-4 2 -2 6l36 73q2 3 8 2q30 -9 66 -33z" />
<glyph unicode="&#xfc05;" horiz-adv-x="647" arabic-form="isolated" d="M50 216q0 1 1 2.5t2 2.5q6 11 9 15h5q12 13 45 35q104 66 136 104q32 39 42 87q10 52 19 76q11 27 32 27t44 -27q35 -43 53 -180q1 -13 -8 -13q-11 0 -14 14q-31 110 -71 110q-9 0 -16 -13q-5 -8 -20 -50q-29 -97 -146 -168q-3 -2 -8 -5q276 -13 408 6q6 0 8 -1 q2 -4 2 -8q-2 -41 -4 -52q-5 -14 -14 -15q-240 -30 -344 -155q-68 -80 -53 -177q23 -164 172 -217q124 -44 345 -33q95 6 138 12q11 2 12 -8q2 -11 -4 -13q-104 -49 -171 -65q-65 -15 -117 -14q-202 6 -294 80q-93 75 -111 205q-21 155 70 292q30 43 81 79l-243 2 q-14 3 -7 22q16 32 21 43zM404 -117q1 3 7 2q41 -13 79 -42q4 -4 2 -8l-34 -76q-2 -5 -10 1q-8 7 -77 44q-6 3 -3 6zM537 67q2 3 8 2q43 -14 78 -42q5 -3 3 -8l-34 -76q-2 -5 -10 1q-19 12 -78 44q-5 4 -3 6z" />
<glyph unicode="&#xfc06;" horiz-adv-x="647" arabic-form="isolated" d="M50 216q0 1 1 2.5t2 2.5q6 11 9 15h5q12 13 45 35q104 66 136 104q32 39 42 87q10 52 19 76q11 27 32 27t44 -27q35 -43 53 -180q1 -13 -8 -13q-11 0 -14 14q-31 110 -71 110q-9 0 -16 -13q-5 -8 -20 -50q-29 -97 -146 -168q-3 -2 -8 -5q276 -13 408 6q6 0 8 -1 q2 -4 2 -8q-2 -41 -4 -52q-5 -14 -14 -15q-240 -30 -344 -155q-68 -80 -53 -177q23 -164 172 -217q124 -44 345 -33q95 6 138 12q11 2 12 -8q2 -11 -4 -13q-104 -49 -171 -65q-65 -15 -117 -14q-202 6 -294 80q-93 75 -111 205q-21 155 70 292q30 43 81 79l-243 2 q-14 3 -7 22q16 32 21 43zM537 67q2 3 8 2q43 -14 78 -42q5 -3 3 -8l-34 -76q-2 -5 -10 1q-19 12 -78 44q-5 4 -3 6z" />
<glyph unicode="&#xfc07;" horiz-adv-x="647" arabic-form="isolated" d="M50 216q0 1 1 2.5t2 2.5q6 11 9 15h5q12 13 45 35q104 66 136 104q32 39 42 87q10 52 19 76q11 27 32 27t44 -27q35 -43 53 -180q1 -13 -8 -13q-11 0 -14 14q-31 110 -71 110q-9 0 -16 -13q-5 -8 -20 -50q-29 -97 -146 -168q-3 -2 -8 -5q276 -13 408 6q6 0 8 -1 q2 -4 2 -8q-2 -41 -4 -52q-5 -14 -14 -15q-240 -30 -344 -155q-68 -80 -53 -177q23 -164 172 -217q124 -44 345 -33q95 6 138 12q11 2 12 -8q2 -11 -4 -13q-104 -49 -171 -65q-65 -15 -117 -14q-202 6 -294 80q-93 75 -111 205q-21 155 70 292q30 43 81 79l-243 2 q-14 3 -7 22q16 32 21 43zM537 67q2 3 8 2q43 -14 78 -42q5 -3 3 -8l-34 -76q-2 -5 -10 1q-19 12 -78 44q-5 4 -3 6zM38 601q1 3 8 2q43 -14 78 -42q5 -4 2 -8l-33 -76q-3 -5 -10 1q-13 9 -78 44q-5 4 -3 6z" />
<glyph unicode="&#xfc08;" horiz-adv-x="594" arabic-form="isolated" d="M96 128q11 56 19 68q-2 4 1 5q16 19 68 56q133 94 211 93q37 0 67 -21q31 -22 21 -54q-6 -18 -22 -44q-23 -40 -37 -7q-15 32 -53 36q-66 6 -185 -70q2 0 5.5 -2t5.5 -2q72 -24 137 -68q20 -13 17 -36q-2 -13 -4.5 -25.5t-3.5 -18.5t-1 -7q-2 -9 -6 -13.5t-10 -3.5 q-111 14 -189 -9q-48 -13 -66 -38q0 -12 19 -66l47 -142q27 -78 39 -121q21 -84 13 -137q-3 -12 -12 -11q-13 2 -15 27q-5 62 -93 299q-30 86 -22 146t28 89q19 27 60 49l-12 4q-11 3 -20 7t-7 17zM501 -111q1 3 7 2q41 -13 79 -42q4 -4 2 -8l-34 -76q-2 -5 -10 1 q-8 7 -77 44q-6 3 -4 6z" />
<glyph unicode="&#xfc09;" horiz-adv-x="734" arabic-form="isolated" d="M428 130h1v1q2 2 23 6q76 17 114 69q-6 52 -40 95q-35 44 -70 69q-10 7 -8 22l11 76q3 19 16 8q24 -18 55 -67q34 -55 46 -94q17 -48 12 -98q-4 -49 -29 -83q-2 -4 -4 -5q63 -9 93 -33q17 -13 19 -45q3 -65 -10 -88q-15 -24 -45 -51q-152 -132 -327 -127q-76 3 -132 43 q-55 40 -79 102q-22 61 -15 146q7 84 42 143q7 11 15 3t4 -18q-45 -92 -28 -165q38 -159 210 -159q175 0 320 148q2 2 -2 7q-35 30 -169 33q-33 -3 -34 -3q-10 0 -6 9l15 47zM667 -229q2 3 8 2q42 -13 78 -42q5 -3 3 -8l-34 -76q-2 -5 -10 1q-19 12 -78 44q-4 3 -3 6z" />
<glyph unicode="&#xfc0a;" horiz-adv-x="734" arabic-form="isolated" d="M428 130h1v1q2 2 23 6q76 17 114 69q-6 52 -40 95q-35 44 -70 69q-10 7 -8 22l11 76q3 19 16 8q24 -18 55 -67q34 -55 46 -94q17 -48 12 -98q-4 -49 -29 -83q-2 -4 -4 -5q63 -9 93 -33q17 -13 19 -45q3 -65 -10 -88q-15 -24 -45 -51q-152 -132 -327 -127q-76 3 -132 43 q-55 40 -79 102q-22 61 -15 146q7 84 42 143q7 11 15 3t4 -18q-45 -92 -28 -165q38 -159 210 -159q175 0 320 148q2 2 -2 7q-35 30 -169 33q-33 -3 -34 -3q-10 0 -6 9l15 47zM444 -303q2 3 8 2q44 -14 78 -41q5 -4 3 -9l-35 -76q-1 -3 -9 2q-4 3 -63 35l-28 -59q-2 -5 -10 1 q-19 12 -78 44q-4 2 -2 6l36 73q2 3 8 2q30 -9 66 -33zM667 -229q2 3 8 2q42 -13 78 -42q5 -3 3 -8l-34 -76q-2 -5 -10 1q-19 12 -78 44q-4 3 -3 6z" />
<glyph unicode="&#xfc0b;" horiz-adv-x="647" arabic-form="isolated" d="M50 216q0 1 1 2.5t2 2.5q6 11 9 15h5q12 13 45 35q104 66 136 104q32 39 42 87q10 52 19 76q11 27 32 27t44 -27q35 -43 53 -180q1 -13 -8 -13q-11 0 -14 14q-31 110 -71 110q-9 0 -16 -13q-5 -8 -20 -50q-29 -97 -146 -168q-3 -2 -8 -5q276 -13 408 6q6 0 8 -1 q2 -4 2 -8q-2 -41 -4 -52q-5 -14 -14 -15q-240 -30 -344 -155q-68 -80 -53 -177q23 -164 172 -217q124 -44 345 -33q95 6 138 12q11 2 12 -8q2 -11 -4 -13q-104 -49 -171 -65q-65 -15 -117 -14q-202 6 -294 80q-93 75 -111 205q-21 155 70 292q30 43 81 79l-243 2 q-14 3 -7 22q16 32 21 43zM328 777q1 3 8 2q45 -15 78 -41q5 -5 2 -9l-34 -76q-2 -3 -9 2q-5 4 -64 35l-27 -59q-3 -5 -10 1q-13 9 -78 44q-5 3 -2 6l36 73q1 3 8 2q32 -10 65 -33zM404 -117q1 3 7 2q41 -13 79 -42q4 -4 2 -8l-34 -76q-2 -5 -10 1q-8 7 -77 44q-6 3 -3 6z " />
<glyph unicode="&#xfc0c;" horiz-adv-x="647" arabic-form="isolated" d="M50 216q0 1 1 2.5t2 2.5q6 11 9 15h5q12 13 45 35q104 66 136 104q32 39 42 87q10 52 19 76q11 27 32 27t44 -27q35 -43 53 -180q1 -13 -8 -13q-11 0 -14 14q-31 110 -71 110q-9 0 -16 -13q-5 -8 -20 -50q-29 -97 -146 -168q-3 -2 -8 -5q276 -13 408 6q6 0 8 -1 q2 -4 2 -8q-2 -41 -4 -52q-5 -14 -14 -15q-240 -30 -344 -155q-68 -80 -53 -177q23 -164 172 -217q124 -44 345 -33q95 6 138 12q11 2 12 -8q2 -11 -4 -13q-104 -49 -171 -65q-65 -15 -117 -14q-202 6 -294 80q-93 75 -111 205q-21 155 70 292q30 43 81 79l-243 2 q-14 3 -7 22q16 32 21 43zM328 777q1 3 8 2q45 -15 78 -41q5 -5 2 -9l-34 -76q-2 -3 -9 2q-5 4 -64 35l-27 -59q-3 -5 -10 1q-13 9 -78 44q-5 3 -2 6l36 73q1 3 8 2q32 -10 65 -33z" />
<glyph unicode="&#xfc0d;" horiz-adv-x="647" arabic-form="isolated" d="M50 216q0 1 1 2.5t2 2.5q6 11 9 15h5q12 13 45 35q104 66 136 104q32 39 42 87q10 52 19 76q11 27 32 27t44 -27q35 -43 53 -180q1 -13 -8 -13q-11 0 -14 14q-31 110 -71 110q-9 0 -16 -13q-5 -8 -20 -50q-29 -97 -146 -168q-3 -2 -8 -5q276 -13 408 6q6 0 8 -1 q2 -4 2 -8q-2 -41 -4 -52q-5 -14 -14 -15q-240 -30 -344 -155q-68 -80 -53 -177q23 -164 172 -217q124 -44 345 -33q95 6 138 12q11 2 12 -8q2 -11 -4 -13q-104 -49 -171 -65q-65 -15 -117 -14q-202 6 -294 80q-93 75 -111 205q-21 155 70 292q30 43 81 79l-243 2 q-14 3 -7 22q16 32 21 43zM328 777q1 3 8 2q45 -15 78 -41q5 -5 2 -9l-34 -76q-2 -3 -9 2q-5 4 -64 35l-27 -59q-3 -5 -10 1q-13 9 -78 44q-5 3 -2 6l36 73q1 3 8 2q32 -10 65 -33zM38 601q1 3 8 2q43 -14 78 -42q5 -4 2 -8l-33 -76q-3 -5 -10 1q-13 9 -78 44q-5 4 -3 6z " />
<glyph unicode="&#xfc0e;" horiz-adv-x="594" arabic-form="isolated" d="M96 128q11 56 19 68q-2 4 1 5q16 19 68 56q133 94 211 93q37 0 67 -21q31 -22 21 -54q-6 -18 -22 -44q-23 -40 -37 -7q-15 32 -53 36q-66 6 -185 -70q2 0 5.5 -2t5.5 -2q72 -24 137 -68q20 -13 17 -36q-2 -13 -4.5 -25.5t-3.5 -18.5t-1 -7q-2 -9 -6 -13.5t-10 -3.5 q-111 14 -189 -9q-48 -13 -66 -38q0 -12 19 -66l47 -142q27 -78 39 -121q21 -84 13 -137q-3 -12 -12 -11q-13 2 -15 27q-5 62 -93 299q-30 86 -22 146t28 89q19 27 60 49l-12 4q-11 3 -20 7t-7 17zM343 633q2 3 8 2q44 -14 78 -41q5 -4 3 -9l-35 -76q-1 -3 -9 2q-4 3 -63 35 l-28 -59q-2 -5 -10 1q-19 12 -78 44q-5 3 -2 6l36 73q2 3 8 2q30 -9 66 -33z" />
<glyph unicode="&#xfc0f;" horiz-adv-x="734" arabic-form="isolated" d="M428 130h1v1q2 2 23 6q76 17 114 69q-6 52 -40 95q-35 44 -70 69q-10 7 -8 22l11 76q3 19 16 8q24 -18 55 -67q34 -55 46 -94q17 -48 12 -98q-4 -49 -29 -83q-2 -4 -4 -5q63 -9 93 -33q17 -13 19 -45q3 -65 -10 -88q-15 -24 -45 -51q-152 -132 -327 -127q-76 3 -132 43 q-55 40 -79 102q-22 61 -15 146q7 84 42 143q7 11 15 3t4 -18q-45 -92 -28 -165q38 -159 210 -159q175 0 320 148q2 2 -2 7q-35 30 -169 33q-33 -3 -34 -3q-10 0 -6 9l15 47zM425 715q1 3 8 2q43 -14 78 -41q5 -5 2 -9l-34 -76q-2 -3 -10 2q-4 4 -63 35l-27 -59q-3 -4 -11 1 q-8 7 -77 44q-5 3 -2 6l36 73q1 3 7 2q32 -9 66 -33z" />
<glyph unicode="&#xfc10;" horiz-adv-x="734" arabic-form="isolated" d="M428 130h1v1q2 2 23 6q76 17 114 69q-6 52 -40 95q-35 44 -70 69q-10 7 -8 22l11 76q3 19 16 8q24 -18 55 -67q34 -55 46 -94q17 -48 12 -98q-4 -49 -29 -83q-2 -4 -4 -5q63 -9 93 -33q17 -13 19 -45q3 -65 -10 -88q-15 -24 -45 -51q-152 -132 -327 -127q-76 3 -132 43 q-55 40 -79 102q-22 61 -15 146q7 84 42 143q7 11 15 3t4 -18q-45 -92 -28 -165q38 -159 210 -159q175 0 320 148q2 2 -2 7q-35 30 -169 33q-33 -3 -34 -3q-10 0 -6 9l15 47zM444 -303q2 3 8 2q44 -14 78 -41q5 -4 3 -9l-35 -76q-1 -3 -9 2q-4 3 -63 35l-28 -59q-2 -5 -10 1 q-19 12 -78 44q-4 2 -2 6l36 73q2 3 8 2q30 -9 66 -33zM425 715q1 3 8 2q43 -14 78 -41q5 -5 2 -9l-34 -76q-2 -3 -10 2q-4 4 -63 35l-27 -59q-3 -4 -11 1q-8 7 -77 44q-5 3 -2 6l36 73q1 3 7 2q32 -9 66 -33z" />
<glyph unicode="&#xfc11;" horiz-adv-x="647" arabic-form="isolated" d="M50 216q0 1 1 2.5t2 2.5q6 11 9 15h5q12 13 45 35q104 66 136 104q32 39 42 87q10 52 19 76q11 27 32 27t44 -27q35 -43 53 -180q1 -13 -8 -13q-11 0 -14 14q-31 110 -71 110q-9 0 -16 -13q-5 -8 -20 -50q-29 -97 -146 -168q-3 -2 -8 -5q276 -13 408 6q6 0 8 -1 q2 -4 2 -8q-2 -41 -4 -52q-5 -14 -14 -15q-240 -30 -344 -155q-68 -80 -53 -177q23 -164 172 -217q124 -44 345 -33q95 6 138 12q11 2 12 -8q2 -11 -4 -13q-104 -49 -171 -65q-65 -15 -117 -14q-202 6 -294 80q-93 75 -111 205q-21 155 70 292q30 43 81 79l-243 2 q-14 3 -7 22q16 32 21 43zM324 777q1 3 8 2q45 -15 78 -41q5 -5 2 -9l-34 -76q-2 -3 -9 2q-2 1 -9 5t-20 11t-27 15l-25 -56q-3 -4 -10 2q-13 9 -78 44q-5 3 -2 6l36 72q2 3 8 2q35 -12 57 -27zM237 881q1 3 7 2q43 -14 79 -41q5 -5 3 -9l-34 -76q-2 -4 -11 2q-19 12 -78 44 q-5 3 -3 6zM404 -117q1 3 7 2q41 -13 79 -42q4 -4 2 -8l-34 -76q-2 -5 -10 1q-8 7 -77 44q-6 3 -3 6z" />
<glyph unicode="&#xfc12;" horiz-adv-x="594" arabic-form="isolated" d="M96 128q11 56 19 68q-2 4 1 5q16 19 68 56q133 94 211 93q37 0 67 -21q31 -22 21 -54q-6 -18 -22 -44q-23 -40 -37 -7q-15 32 -53 36q-66 6 -185 -70q2 0 5.5 -2t5.5 -2q72 -24 137 -68q20 -13 17 -36q-2 -13 -4.5 -25.5t-3.5 -18.5t-1 -7q-2 -9 -6 -13.5t-10 -3.5 q-111 14 -189 -9q-48 -13 -66 -38q0 -12 19 -66l47 -142q27 -78 39 -121q21 -84 13 -137q-3 -12 -12 -11q-13 2 -15 27q-5 62 -93 299q-30 86 -22 146t28 89q19 27 60 49l-12 4q-11 3 -20 7t-7 17zM339 633q2 3 8 2q44 -14 78 -41q5 -4 3 -9l-35 -76q-1 -3 -9 2t-56 31 l-25 -56q-1 -4 -10 2q-19 12 -78 44q-5 3 -2 6l36 72q2 3 8 2q37 -13 58 -27zM252 737q2 3 8 2q45 -15 78 -41q5 -5 4 -9l-35 -76q-3 -4 -10 2q-13 9 -78 44q-6 3 -3 6z" />
<glyph unicode="&#xfc13;" horiz-adv-x="734" arabic-form="isolated" d="M428 130h1v1q2 2 23 6q76 17 114 69q-6 52 -40 95q-35 44 -70 69q-10 7 -8 22l11 76q3 19 16 8q24 -18 55 -67q34 -55 46 -94q17 -48 12 -98q-4 -49 -29 -83q-2 -4 -4 -5q63 -9 93 -33q17 -13 19 -45q3 -65 -10 -88q-15 -24 -45 -51q-152 -132 -327 -127q-76 3 -132 43 q-55 40 -79 102q-22 61 -15 146q7 84 42 143q7 11 15 3t4 -18q-45 -92 -28 -165q38 -159 210 -159q175 0 320 148q2 2 -2 7q-35 30 -169 33q-33 -3 -34 -3q-10 0 -6 9l15 47zM421 715q1 3 8 2q43 -14 78 -41q5 -5 2 -9l-34 -76q-2 -3 -10 2l-55 31l-25 -56q-2 -4 -11 2 q-8 7 -77 44q-5 3 -2 6l36 72q1 3 8 2q35 -12 57 -27zM334 819q1 3 7 2q44 -14 78 -41q7 -5 4 -9l-35 -76q-1 -4 -10 2q-19 12 -78 44q-4 3 -3 6z" />
<glyph unicode="&#xfc14;" horiz-adv-x="734" arabic-form="isolated" d="M428 130h1v1q2 2 23 6q76 17 114 69q-6 52 -40 95q-35 44 -70 69q-10 7 -8 22l11 76q3 19 16 8q24 -18 55 -67q34 -55 46 -94q17 -48 12 -98q-4 -49 -29 -83q-2 -4 -4 -5q63 -9 93 -33q17 -13 19 -45q3 -65 -10 -88q-15 -24 -45 -51q-152 -132 -327 -127q-76 3 -132 43 q-55 40 -79 102q-22 61 -15 146q7 84 42 143q7 11 15 3t4 -18q-45 -92 -28 -165q38 -159 210 -159q175 0 320 148q2 2 -2 7q-35 30 -169 33q-33 -3 -34 -3q-10 0 -6 9l15 47zM444 -303q2 3 8 2q44 -14 78 -41q5 -4 3 -9l-35 -76q-1 -3 -9 2q-4 3 -63 35l-28 -59q-2 -5 -10 1 q-19 12 -78 44q-4 2 -2 6l36 73q2 3 8 2q30 -9 66 -33zM421 715q1 3 8 2q43 -14 78 -41q5 -5 2 -9l-34 -76q-2 -3 -10 2l-55 31l-25 -56q-2 -4 -11 2q-8 7 -77 44q-5 3 -2 6l36 72q1 3 8 2q35 -12 57 -27zM334 819q1 3 7 2q44 -14 78 -41q7 -5 4 -9l-35 -76q-1 -4 -10 2 q-19 12 -78 44q-4 3 -3 6z" />
<glyph unicode="&#xfc15;" horiz-adv-x="835" arabic-form="isolated" d="M155 233q276 -13 408 6q6 0 8 -1q2 -4 2 -8q-2 -41 -4 -52q-5 -14 -14 -15q-240 -30 -344 -155q-68 -80 -53 -177q23 -164 172 -217q124 -44 345 -33q95 6 138 12q11 2 12 -8q2 -11 -4 -13q-104 -49 -171 -65q-65 -15 -117 -14q-202 6 -294 80q-93 75 -111 205 q-21 155 70 292q30 43 81 79l-243 2q-14 3 -7 22l3 6h-2q9 31 21 60q127 118 356 188q8 3 -1 7q-97 45 -139 53q-41 8 -80 -11q-13 -6 -14 4q3 86 76 92q39 3 133 -47q136 -70 293 -82q23 -2 17 -24l-11 -42q-6 -16 -21 -13q-75 15 -170 11q-121 -4 -283 -87 q-47 -24 -81 -54q18 0 29 -1zM707 0q1 3 8 2q43 -14 78 -42q5 -4 2 -8l-33 -76q-3 -5 -10 1q-13 9 -78 44q-5 4 -3 6z" />
<glyph unicode="&#xfc16;" horiz-adv-x="1178" arabic-form="isolated" d="M225 204q63 -62 135 -86q78 -27 146 -28q139 10 252 73q-145 75 -250 41q-8 -3 -13 2q-6 5 -5 12q2 32 28 63q29 32 66 32t184 -57q47 -19 133 -35q79 -15 160 -9q11 1 15 -3.5t1 -14.5l-17 -61q-4 -12 -20 -9q-115 19 -212 -11q-120 -42 -184 -77q-66 -36 -122 -36 q-91 0 -171 40q-4 2 -4 -3q24 -106 -13 -141q-11 -11 -28 1q-70 54 -99 160q-52 -1 -100 -59q-8 -13 30 -130q120 -363 115 -417q-1 -23 -9 -28q-9 -4 -17 5q-9 10 -12 29q-22 100 -94 310q-63 181 -43 275q18 84 119 128q3 19 9 32q8 14 20 2zM811 -40q2 3 8 2 q43 -14 78 -42q5 -3 3 -8l-34 -76q-3 -5 -10 1q-13 9 -78 44q-5 4 -3 6z" />
<glyph unicode="&#xfc17;" horiz-adv-x="835" arabic-form="isolated" d="M155 233q276 -13 408 6q6 0 8 -1q2 -4 2 -8q-2 -41 -4 -52q-5 -14 -14 -15q-240 -30 -344 -155q-68 -80 -53 -177q23 -164 172 -217q124 -44 345 -33q95 6 138 12q11 2 12 -8q2 -11 -4 -13q-104 -49 -171 -65q-65 -15 -117 -14q-202 6 -294 80q-93 75 -111 205 q-21 155 70 292q30 43 81 79l-243 2q-14 3 -7 22l3 6h-2q9 31 21 60q127 118 356 188q8 3 -1 7q-97 45 -139 53q-41 8 -80 -11q-13 -6 -14 4q3 86 76 92q39 3 133 -47q136 -70 293 -82q23 -2 17 -24l-11 -42q-6 -16 -21 -13q-75 15 -170 11q-121 -4 -283 -87 q-47 -24 -81 -54q18 0 29 -1zM404 -117q1 3 7 2q41 -13 79 -42q4 -4 2 -8l-34 -76q-2 -5 -10 1q-8 7 -77 44q-6 3 -3 6z" />
<glyph unicode="&#xfc18;" horiz-adv-x="1178" arabic-form="isolated" d="M225 204q63 -62 135 -86q78 -27 146 -28q139 10 252 73q-145 75 -250 41q-8 -3 -13 2q-6 5 -5 12q2 32 28 63q29 32 66 32t184 -57q47 -19 133 -35q79 -15 160 -9q11 1 15 -3.5t1 -14.5l-17 -61q-4 -12 -20 -9q-115 19 -212 -11q-120 -42 -184 -77q-66 -36 -122 -36 q-91 0 -171 40q-4 2 -4 -3q24 -106 -13 -141q-11 -11 -28 1q-70 54 -99 160q-52 -1 -100 -59q-8 -13 30 -130q120 -363 115 -417q-1 -23 -9 -28q-9 -4 -17 5q-9 10 -12 29q-22 100 -94 310q-63 181 -43 275q18 84 119 128q3 19 9 32q8 14 20 2z" />
<glyph unicode="&#xfc19;" horiz-adv-x="835" arabic-form="isolated" d="M155 233q276 -13 408 6q6 0 8 -1q2 -4 2 -8q-2 -41 -4 -52q-5 -14 -14 -15q-240 -30 -344 -155q-68 -80 -53 -177q23 -164 172 -217q124 -44 345 -33q95 6 138 12q11 2 12 -8q2 -11 -4 -13q-104 -49 -171 -65q-65 -15 -117 -14q-202 6 -294 80q-93 75 -111 205 q-21 155 70 292q30 43 81 79l-243 2q-14 3 -7 22l3 6h-2q9 31 21 60q127 118 356 188q8 3 -1 7q-97 45 -139 53q-41 8 -80 -11q-13 -6 -14 4q3 86 76 92q39 3 133 -47q136 -70 293 -82q23 -2 17 -24l-11 -42q-6 -16 -21 -13q-75 15 -170 11q-121 -4 -283 -87 q-47 -24 -81 -54q18 0 29 -1zM581 712q2 3 8 2q41 -13 79 -42q4 -4 2 -8l-34 -76q-2 -5 -10 1q-19 12 -78 44q-4 3 -3 6zM404 -117q1 3 7 2q41 -13 79 -42q4 -4 2 -8l-34 -76q-2 -5 -10 1q-8 7 -77 44q-6 3 -3 6z" />
<glyph unicode="&#xfc1a;" horiz-adv-x="835" arabic-form="isolated" d="M155 233q276 -13 408 6q6 0 8 -1q2 -4 2 -8q-2 -41 -4 -52q-5 -14 -14 -15q-240 -30 -344 -155q-68 -80 -53 -177q23 -164 172 -217q124 -44 345 -33q95 6 138 12q11 2 12 -8q2 -11 -4 -13q-104 -49 -171 -65q-65 -15 -117 -14q-202 6 -294 80q-93 75 -111 205 q-21 155 70 292q30 43 81 79l-243 2q-14 3 -7 22l3 6h-2q9 31 21 60q127 118 356 188q8 3 -1 7q-97 45 -139 53q-41 8 -80 -11q-13 -6 -14 4q3 86 76 92q39 3 133 -47q136 -70 293 -82q23 -2 17 -24l-11 -42q-6 -16 -21 -13q-75 15 -170 11q-121 -4 -283 -87 q-47 -24 -81 -54q18 0 29 -1zM581 712q2 3 8 2q41 -13 79 -42q4 -4 2 -8l-34 -76q-2 -5 -10 1q-19 12 -78 44q-4 3 -3 6z" />
<glyph unicode="&#xfc1b;" horiz-adv-x="1178" arabic-form="isolated" d="M225 204q63 -62 135 -86q78 -27 146 -28q139 10 252 73q-145 75 -250 41q-8 -3 -13 2q-6 5 -5 12q2 32 28 63q29 32 66 32t184 -57q47 -19 133 -35q79 -15 160 -9q11 1 15 -3.5t1 -14.5l-17 -61q-4 -12 -20 -9q-115 19 -212 -11q-120 -42 -184 -77q-66 -36 -122 -36 q-91 0 -171 40q-4 2 -4 -3q24 -106 -13 -141q-11 -11 -28 1q-70 54 -99 160q-52 -1 -100 -59q-8 -13 30 -130q120 -363 115 -417q-1 -23 -9 -28q-9 -4 -17 5q-9 10 -12 29q-22 100 -94 310q-63 181 -43 275q18 84 119 128q3 19 9 32q8 14 20 2zM712 523q1 3 7 2 q41 -13 79 -42q4 -4 2 -8l-33 -76q-3 -4 -11 1q-8 7 -77 44q-6 3 -3 6z" />
<glyph unicode="&#xfc1c;" horiz-adv-x="775" arabic-form="isolated" d="M155 233q276 -13 408 6q6 0 8 -1q2 -4 2 -8q-2 -41 -4 -52q-5 -14 -14 -15q-240 -30 -344 -155q-68 -80 -53 -177q23 -164 172 -217q124 -44 345 -33q95 6 138 12q11 2 12 -8q2 -11 -4 -13q-104 -49 -171 -65q-65 -15 -117 -14q-202 6 -294 80q-93 75 -111 205 q-21 155 70 292q30 43 81 79l-243 2q-14 3 -7 22q1 2 3 5.5t3 5.5q-1 15 9 48q1 7 9 11q103 37 145 174q12 30 16 38q14 29 37 3q39 -47 70 -62q76 -35 116 14q19 24 37 87q5 13 15 7t7 -16q-7 -27 -5 -37q19 -50 109 -50q7 0 7 8t-25 28q-7 5 -4 16l11 62q3 16 17 2 q14 -15 25 -55q21 -78 -28 -139q-10 -11 -28 -10q-67 4 -101 56q-6 11 -11 -1q-30 -78 -84 -81q-37 -2 -63 19q-28 23 -65 73q-8 11 -19 14t-14 -7q-19 -84 -87 -152q3 0 11 -0.5t13 -0.5zM404 -117q1 3 7 2q41 -13 79 -42q4 -4 2 -8l-34 -76q-2 -5 -10 1q-8 7 -77 44 q-6 3 -3 6z" />
<glyph unicode="&#xfc1d;" horiz-adv-x="775" arabic-form="isolated" d="M155 233q276 -13 408 6q6 0 8 -1q2 -4 2 -8q-2 -41 -4 -52q-5 -14 -14 -15q-240 -30 -344 -155q-68 -80 -53 -177q23 -164 172 -217q124 -44 345 -33q95 6 138 12q11 2 12 -8q2 -11 -4 -13q-104 -49 -171 -65q-65 -15 -117 -14q-202 6 -294 80q-93 75 -111 205 q-21 155 70 292q30 43 81 79l-243 2q-14 3 -7 22q1 2 3 5.5t3 5.5q-1 15 9 48q1 7 9 11q103 37 145 174q12 30 16 38q14 29 37 3q39 -47 70 -62q76 -35 116 14q19 24 37 87q5 13 15 7t7 -16q-7 -27 -5 -37q19 -50 109 -50q7 0 7 8t-25 28q-7 5 -4 16l11 62q3 16 17 2 q14 -15 25 -55q21 -78 -28 -139q-10 -11 -28 -10q-67 4 -101 56q-6 11 -11 -1q-30 -78 -84 -81q-37 -2 -63 19q-28 23 -65 73q-8 11 -19 14t-14 -7q-19 -84 -87 -152q3 0 11 -0.5t13 -0.5z" />
<glyph unicode="&#xfc1e;" horiz-adv-x="775" arabic-form="isolated" d="M155 233q276 -13 408 6q6 0 8 -1q2 -4 2 -8q-2 -41 -4 -52q-5 -14 -14 -15q-240 -30 -344 -155q-68 -80 -53 -177q23 -164 172 -217q124 -44 345 -33q95 6 138 12q11 2 12 -8q2 -11 -4 -13q-104 -49 -171 -65q-65 -15 -117 -14q-202 6 -294 80q-93 75 -111 205 q-21 155 70 292q30 43 81 79l-243 2q-14 3 -7 22q1 2 3 5.5t3 5.5q-1 15 9 48q1 7 9 11q103 37 145 174q12 30 16 38q14 29 37 3q39 -47 70 -62q76 -35 116 14q19 24 37 87q5 13 15 7t7 -16q-7 -27 -5 -37q19 -50 109 -50q7 0 7 8t-25 28q-7 5 -4 16l11 62q3 16 17 2 q14 -15 25 -55q21 -78 -28 -139q-10 -11 -28 -10q-67 4 -101 56q-6 11 -11 -1q-30 -78 -84 -81q-37 -2 -63 19q-28 23 -65 73q-8 11 -19 14t-14 -7q-19 -84 -87 -152q3 0 11 -0.5t13 -0.5zM38 601q1 3 8 2q43 -14 78 -42q5 -4 2 -8l-33 -76q-3 -5 -10 1q-13 9 -78 44 q-5 4 -3 6z" />
<glyph unicode="&#xfc1f;" horiz-adv-x="910" arabic-form="isolated" d="M406 188q35 0 92 -63q31 -32 48 -35h2h1q54 6 81 37q25 31 31 109q1 10 11 9q11 -2 9 -13q-3 -42 3 -57q6 -13 35 -27q31 -16 67 -17h1q1 1 -3 9q-5 10 -23 28q-3 3 -2 9l14 84q2 10 8 4q43 -36 40 -126q0 -33 -13 -65q-13 -30 -25 -31q-69 -6 -132 50q-31 -93 -86 -93 h-1h-2q-51 0 -100 64q-41 54 -107 43q-56 -10 -94 -38q2 -1 7 -2.5t7 -2.5q68 -23 137 -68q19 -13 16 -36q-5 -39 -9 -51q-2 -9 -6 -13.5t-10 -3.5q-110 14 -188 -9q-46 -13 -67 -38q0 -9 20 -66l47 -142q29 -85 38 -121q21 -84 13 -137q-2 -12 -12 -11q-12 1 -14 27 q-7 68 -93 299q-30 88 -23 146q8 61 29 89q20 28 60 49q-1 1 -13 4q-15 5 -19 7q-10 4 -7 17q10 51 16 65q0 1 2 5q4 10 39 34q107 78 175 78z" />
<glyph unicode="&#xfc20;" horiz-adv-x="953" arabic-form="isolated" d="M155 233q276 -13 408 6q6 0 8 -1q2 -4 2 -8q-2 -41 -4 -52q-5 -14 -14 -15q-240 -30 -344 -155q-68 -80 -53 -177q23 -164 172 -217q124 -44 345 -33q95 6 138 12q11 2 12 -8q2 -11 -4 -13q-104 -49 -171 -65q-65 -15 -117 -14q-202 6 -294 80q-93 75 -111 205 q-21 155 70 292q30 43 81 79l-243 2q-14 3 -7 22q3 5 7 15q0 16 6 44q1 3 5 6q92 50 145 105q47 48 64 111q2 9 12 9t19 -12q40 -54 111 -70q58 81 138 143q78 62 132 62q28 0 79 -36t57 -62q6 -28 -30 -91t-60 -73q-149 -61 -335 -30q-2 -4 -5.5 -10.5t-6 -12t-4.5 -9.5 q-6 -15 -14 -10q-15 8 1 47q-65 26 -97 68q-36 -67 -108 -134h10zM600 489q-85 -18 -166 -114q214 -12 298 51q-24 26 -62 48q-37 22 -70 15z" />
<glyph unicode="&#xfc21;" horiz-adv-x="1098" arabic-form="isolated" d="M406 188q35 0 92 -63q31 -32 48 -35h3q37 -2 60 3q79 143 173 218q36 28 80 30q42 1 99 -45q27 -22 30 -51q2 -32 -11 -77q-12 -49 -21 -58q-93 -100 -344 -112q-4 -18 -5 -25q-3 -17 -6 -29q-3 -11 -14 -7q-18 6 -10 63h-15h-1h-2q-51 0 -100 64q-41 54 -107 43 q-56 -10 -94 -38q2 -1 7 -2.5t7 -2.5q68 -23 137 -68q19 -13 16 -36q-5 -39 -9 -51q-2 -9 -6 -13.5t-10 -3.5q-110 14 -188 -9q-46 -13 -67 -38q0 -9 20 -66l47 -142q29 -85 38 -121q21 -84 13 -137q-2 -12 -12 -11q-12 1 -14 27q-7 68 -93 299q-30 88 -23 146q8 61 29 89 q20 28 60 49q-1 1 -13 4q-15 5 -19 7q-10 4 -7 17q10 51 16 65q0 1 2 5q4 10 39 34q107 78 175 78zM930 193q-82 47 -129 35q-76 -19 -148 -134q212 31 280 90q5 4 -3 9z" />
<glyph unicode="&#xfc22;" horiz-adv-x="953" arabic-form="isolated" d="M155 233q276 -13 408 6q6 0 8 -1q2 -4 2 -8q-2 -41 -4 -52q-5 -14 -14 -15q-240 -30 -344 -155q-68 -80 -53 -177q23 -164 172 -217q124 -44 345 -33q95 6 138 12q11 2 12 -8q2 -11 -4 -13q-104 -49 -171 -65q-65 -15 -117 -14q-202 6 -294 80q-93 75 -111 205 q-21 155 70 292q30 43 81 79l-243 2q-14 3 -7 22q3 5 7 15q0 16 6 44q1 3 5 6q92 50 145 105q47 48 64 111q2 9 12 9t19 -12q40 -54 111 -70q58 81 138 143q78 62 132 62q28 0 79 -36t57 -62q6 -28 -30 -91t-60 -73q-149 -61 -335 -30q-2 -4 -5.5 -10.5t-6 -12t-4.5 -9.5 q-6 -15 -14 -10q-15 8 1 47q-65 26 -97 68q-36 -67 -108 -134h10zM600 489q-85 -18 -166 -114q214 -12 298 51q-24 26 -62 48q-37 22 -70 15zM404 -117q1 3 7 2q41 -13 79 -42q4 -4 2 -8l-34 -76q-2 -5 -10 1q-8 7 -77 44q-6 3 -3 6zM410 745q1 3 7 2q41 -13 79 -42 q4 -4 2 -8l-33 -76q-3 -4 -11 1q-8 7 -77 44q-6 3 -3 6z" />
<glyph unicode="&#xfc23;" horiz-adv-x="953" arabic-form="isolated" d="M155 233q276 -13 408 6q6 0 8 -1q2 -4 2 -8q-2 -41 -4 -52q-5 -14 -14 -15q-240 -30 -344 -155q-68 -80 -53 -177q23 -164 172 -217q124 -44 345 -33q95 6 138 12q11 2 12 -8q2 -11 -4 -13q-104 -49 -171 -65q-65 -15 -117 -14q-202 6 -294 80q-93 75 -111 205 q-21 155 70 292q30 43 81 79l-243 2q-14 3 -7 22q3 5 7 15q0 16 6 44q1 3 5 6q92 50 145 105q47 48 64 111q2 9 12 9t19 -12q40 -54 111 -70q58 81 138 143q78 62 132 62q28 0 79 -36t57 -62q6 -28 -30 -91t-60 -73q-149 -61 -335 -30q-2 -4 -5.5 -10.5t-6 -12t-4.5 -9.5 q-6 -15 -14 -10q-15 8 1 47q-65 26 -97 68q-36 -67 -108 -134h10zM600 489q-85 -18 -166 -114q214 -12 298 51q-24 26 -62 48q-37 22 -70 15zM410 745q1 3 7 2q41 -13 79 -42q4 -4 2 -8l-33 -76q-3 -4 -11 1q-8 7 -77 44q-6 3 -3 6z" />
<glyph unicode="&#xfc24;" horiz-adv-x="953" arabic-form="isolated" d="M155 233q276 -13 408 6q6 0 8 -1q2 -4 2 -8q-2 -41 -4 -52q-5 -14 -14 -15q-240 -30 -344 -155q-68 -80 -53 -177q23 -164 172 -217q124 -44 345 -33q95 6 138 12q11 2 12 -8q2 -11 -4 -13q-104 -49 -171 -65q-65 -15 -117 -14q-202 6 -294 80q-93 75 -111 205 q-21 155 70 292q30 43 81 79l-243 2q-14 3 -7 22q3 5 7 15q0 16 6 44q1 3 5 6q92 50 145 105q47 48 64 111q2 9 12 9t19 -12q40 -54 111 -70q58 81 138 143q78 62 132 62q28 0 79 -36t57 -62q6 -28 -30 -91t-60 -73q-149 -61 -335 -30q-2 -4 -5.5 -10.5t-6 -12t-4.5 -9.5 q-6 -15 -14 -10q-15 8 1 47q-65 26 -97 68q-36 -67 -108 -134h10zM600 489q-85 -18 -166 -114q214 -12 298 51q-24 26 -62 48q-37 22 -70 15zM38 601q1 3 8 2q43 -14 78 -42q5 -4 2 -8l-33 -76q-3 -5 -10 1q-13 9 -78 44q-5 4 -3 6zM410 745q1 3 7 2q41 -13 79 -42 q4 -4 2 -8l-33 -76q-3 -4 -11 1q-8 7 -77 44q-6 3 -3 6z" />
<glyph unicode="&#xfc25;" horiz-adv-x="1098" arabic-form="isolated" d="M406 188q35 0 92 -63q31 -32 48 -35h3q37 -2 60 3q79 143 173 218q36 28 80 30q42 1 99 -45q27 -22 30 -51q2 -32 -11 -77q-12 -49 -21 -58q-93 -100 -344 -112q-4 -18 -5 -25q-3 -17 -6 -29q-3 -11 -14 -7q-18 6 -10 63h-15h-1h-2q-51 0 -100 64q-41 54 -107 43 q-56 -10 -94 -38q2 -1 7 -2.5t7 -2.5q68 -23 137 -68q19 -13 16 -36q-5 -39 -9 -51q-2 -9 -6 -13.5t-10 -3.5q-110 14 -188 -9q-46 -13 -67 -38q0 -9 20 -66l47 -142q29 -85 38 -121q21 -84 13 -137q-2 -12 -12 -11q-12 1 -14 27q-7 68 -93 299q-30 88 -23 146q8 61 29 89 q20 28 60 49q-1 1 -13 4q-15 5 -19 7q-10 4 -7 17q10 51 16 65q0 1 2 5q4 10 39 34q107 78 175 78zM930 193q-82 47 -129 35q-76 -19 -148 -134q212 31 280 90q5 4 -3 9zM599 547q1 3 7 2q41 -13 79 -42q3 -4 2 -8l-34 -76q-2 -5 -10 1q-9 7 -78 44q-5 3 -3 6z" />
<glyph unicode="&#xfc26;" horiz-adv-x="1207" arabic-form="isolated" d="M163 260q42 0 120 -13q155 -26 284 0q15 3 20 -2t1 -18l-14 -52q-3 -8 -9 -9q-62 -8 -119 -20q11 -24 34 -36q50 -29 144 -20h3q24 1 62 6l47 54q0 8 -3 38q-7 44 -13 77q-7 42 -38 170q-35 147 -46 179q-13 37 -12 40q5 26 16 54q3 6 7 5t9 -8q36 -59 56 -78 q12 -9 4 -20l-16 -25q-5 -8 -1 -21q48 -194 52 -221q17 -93 15 -160q125 116 193 136q37 11 61 2q39 -13 77 -68q8 -11 6 -29q-8 -64 -31 -114q-18 -37 -88 -54q-178 -43 -344 -53q-183 -10 -217 69q-15 35 -15 69q-101 -25 -159 -67q-72 -55 -95 -133q-25 -80 -1 -156 q39 -119 171 -179q90 -39 350 -17q37 3 69.5 6t46.5 4l13 1q21 1 24 -9q2 -11 -24 -20q-41 -14 -75 -39l-42 -31q-7 -3 -17 -5q-300 -34 -434 56q-116 77 -131 226q-29 272 182 383q-131 30 -210 -14q-6 -3 -12 0q-7 3 -8 7q-15 108 107 109zM940 226q-11 0 -20 -3 q-92 -31 -171 -123q195 17 298 57q7 2 2 7q-51 60 -109 62z" />
<glyph unicode="&#xfc27;" horiz-adv-x="1090" arabic-form="isolated" d="M225 204q63 -62 135 -86q78 -27 146 -28q24 1 65 6l47 54q0 8 -3 38q-7 44 -13 77q-7 42 -38 170q-35 147 -46 179q-13 37 -12 40q5 26 16 54q3 6 7 5t9 -8q36 -59 56 -78q12 -9 4 -20l-16 -25q-5 -8 -1 -21q48 -194 52 -221q17 -93 15 -160q125 116 193 136q37 11 61 2 q39 -13 77 -68q8 -11 6 -29q-8 -64 -31 -114q-18 -37 -88 -54q-179 -43 -343 -53h-1q-91 0 -171 40q-4 2 -4 -3q24 -106 -13 -141q-11 -11 -28 1q-70 54 -99 160q-52 -1 -100 -59q-8 -13 30 -130q120 -363 115 -417q-1 -23 -9 -28q-9 -4 -17 5q-9 10 -12 29q-22 100 -94 310 q-63 181 -43 275q18 84 119 128q3 19 9 32q8 14 20 2zM822 226q-11 0 -20 -3q-92 -31 -171 -123q195 17 298 57q7 2 2 7q-51 60 -109 62z" />
<glyph unicode="&#xfc28;" horiz-adv-x="1090" arabic-form="isolated" d="M225 204q63 -62 135 -86q78 -27 146 -28q24 1 65 6l47 54q0 8 -3 38q-7 44 -13 77q-7 42 -38 170q-35 147 -46 179q-13 37 -12 40q5 26 16 54q3 6 7 5t9 -8q36 -59 56 -78q12 -9 4 -20l-16 -25q-5 -8 -1 -21q48 -194 52 -221q17 -93 15 -160q125 116 193 136q37 11 61 2 q39 -13 77 -68q8 -11 6 -29q-8 -64 -31 -114q-18 -37 -88 -54q-179 -43 -343 -53h-1q-91 0 -171 40q-4 2 -4 -3q24 -106 -13 -141q-11 -11 -28 1q-70 54 -99 160q-52 -1 -100 -59q-8 -13 30 -130q120 -363 115 -417q-1 -23 -9 -28q-9 -4 -17 5q-9 10 -12 29q-22 100 -94 310 q-63 181 -43 275q18 84 119 128q3 19 9 32q8 14 20 2zM822 226q-11 0 -20 -3q-92 -31 -171 -123q195 17 298 57q7 2 2 7q-51 60 -109 62zM784 547q1 3 7 2q41 -13 79 -42q4 -4 2 -8l-34 -76q-2 -5 -10 1q-9 7 -78 44q-4 3 -3 6z" />
<glyph unicode="&#xfc29;" horiz-adv-x="681" arabic-form="isolated" d="M155 233q276 -13 408 6q6 0 8 -1q2 -4 2 -8q-2 -41 -4 -52q-5 -14 -14 -15q-240 -30 -344 -155q-68 -80 -53 -177q23 -164 172 -217q124 -44 345 -33q95 6 138 12q11 2 12 -8q2 -11 -4 -13q-104 -49 -171 -65q-65 -15 -117 -14q-202 6 -294 80q-93 75 -111 205 q-21 155 70 292q30 43 81 79l-243 2q-14 3 -7 22q25 53 33 63h4v1l-1 1q-1 3 3 9q30 45 155 100q-41 28 -61 54q-19 25 -10 73q11 49 56 94q46 48 93 43q69 -6 121 -67q7 -7 4 -12q-2 -6 -10 -3q-67 20 -105 19q-92 -3 -120 -63q59 -71 126 -77q94 -9 205 46q5 2 9 -2 q8 -8 -17 -65q-5 -9 -14 -12q-246 -70 -300 -91l-100 -48q19 -1 55 -3zM404 -117q1 3 7 2q41 -13 79 -42q4 -4 2 -8l-34 -76q-2 -5 -10 1q-8 7 -77 44q-6 3 -3 6z" />
<glyph unicode="&#xfc2a;" horiz-adv-x="1000" arabic-form="isolated" d="M225 204q63 -62 135 -86q78 -27 146 -28q1 0 8 3.5t23.5 11t32.5 14.5q-53 38 -51 91q1 131 125 187q22 10 67 -11q48 -23 81 -55q12 -12 6 -21t-19 -4q-62 24 -132 7q-69 -16 -79 -58q-4 -16 29 -42q33 -25 62 -30q82 -12 175 55q13 10 35 23q13 8 18.5 5.5t4.5 -15.5 l-6 -80q-1 -8 -16 -14q-62 -24 -136 -57l-203 -96q-4 -4 -9 -4q-91 0 -171 40q-4 2 -4 -3q24 -106 -13 -141q-11 -11 -28 1q-70 54 -99 160q-52 -1 -100 -59q-8 -13 30 -130q120 -363 115 -417q-1 -23 -9 -28q-9 -4 -17 5q-9 10 -12 29q-22 100 -94 310q-63 181 -43 275 q18 84 119 128q3 19 9 32q8 14 20 2z" />
<glyph unicode="&#xfc2b;" horiz-adv-x="681" arabic-form="isolated" d="M155 233q276 -13 408 6q6 0 8 -1q2 -4 2 -8q-2 -41 -4 -52q-5 -14 -14 -15q-240 -30 -344 -155q-68 -80 -53 -177q23 -164 172 -217q124 -44 345 -33q95 6 138 12q11 2 12 -8q2 -11 -4 -13q-104 -49 -171 -65q-65 -15 -117 -14q-202 6 -294 80q-93 75 -111 205 q-21 155 70 292q30 43 81 79l-243 2q-14 3 -7 22q25 53 33 63h4v1l-1 1q-1 3 3 9q30 45 155 100q-41 28 -61 54q-19 25 -10 73q11 49 56 94q46 48 93 43q69 -6 121 -67q7 -7 4 -12q-2 -6 -10 -3q-67 20 -105 19q-92 -3 -120 -63q59 -71 126 -77q94 -9 205 46q5 2 9 -2 q8 -8 -17 -65q-5 -9 -14 -12q-246 -70 -300 -91l-100 -48q19 -1 55 -3zM404 -117q1 3 7 2q41 -13 79 -42q4 -4 2 -8l-34 -76q-2 -5 -10 1q-8 7 -77 44q-6 3 -3 6zM191 784q1 3 7 2q41 -13 79 -42q4 -4 2 -8l-33 -76q-3 -4 -11 1q-8 7 -77 44q-6 3 -3 6z" />
<glyph unicode="&#xfc2c;" horiz-adv-x="1000" arabic-form="isolated" d="M225 204q63 -62 135 -86q78 -27 146 -28q1 0 8 3.5t23.5 11t32.5 14.5q-53 38 -51 91q1 131 125 187q22 10 67 -11q48 -23 81 -55q12 -12 6 -21t-19 -4q-62 24 -132 7q-69 -16 -79 -58q-4 -16 29 -42q33 -25 62 -30q82 -12 175 55q13 10 35 23q13 8 18.5 5.5t4.5 -15.5 l-6 -80q-1 -8 -16 -14q-62 -24 -136 -57l-203 -96q-4 -4 -9 -4q-91 0 -171 40q-4 2 -4 -3q24 -106 -13 -141q-11 -11 -28 1q-70 54 -99 160q-52 -1 -100 -59q-8 -13 30 -130q120 -363 115 -417q-1 -23 -9 -28q-9 -4 -17 5q-9 10 -12 29q-22 100 -94 310q-63 181 -43 275 q18 84 119 128q3 19 9 32q8 14 20 2zM547 596q1 3 8 2q43 -14 78 -42q4 -4 2 -8l-33 -76q-3 -5 -10 1q-13 9 -78 44q-6 3 -3 6z" />
<glyph unicode="&#xfc2d;" horiz-adv-x="722" arabic-form="isolated" d="M251 354q-8 21 -25 40q-15 15 -24 2q-34 -67 -82 -61q-78 10 -64 152q9 92 61 107q22 7 63 -32q69 -67 94 -187q9 -41 -5 -83q-14 -37 -42 -62q222 -8 336 9q6 0 8 -1q2 -4 2 -8q-2 -41 -4 -52q-5 -14 -14 -15q-240 -30 -344 -155q-68 -80 -53 -177q23 -164 172 -217 q124 -44 345 -33q95 6 138 12q11 2 12 -8q2 -11 -4 -13q-104 -49 -171 -65q-65 -15 -117 -14q-202 6 -294 80q-93 75 -111 205q-21 155 70 292q30 43 81 79l-243 2q-14 3 -7 22q26 54 33 63l1 2q1 2 2 2q9 14 14 19q11 6 25 9q146 29 147 86zM404 -117q1 3 7 2 q41 -13 79 -42q4 -4 2 -8l-34 -76q-2 -5 -10 1q-8 7 -77 44q-6 3 -3 6zM24 796q1 3 7 2q41 -13 79 -42q4 -4 2 -8l-33 -76q-3 -4 -11 1q-8 7 -77 44q-6 3 -3 6zM84 477q12 -34 37 -36q25 0 29 24q-24 22 -41 24t-25 -12z" />
<glyph unicode="&#xfc2e;" horiz-adv-x="722" arabic-form="isolated" d="M251 354q-8 21 -25 40q-15 15 -24 2q-34 -67 -82 -61q-78 10 -64 152q9 92 61 107q22 7 63 -32q69 -67 94 -187q9 -41 -5 -83q-14 -37 -42 -62q222 -8 336 9q6 0 8 -1q2 -4 2 -8q-2 -41 -4 -52q-5 -14 -14 -15q-240 -30 -344 -155q-68 -80 -53 -177q23 -164 172 -217 q124 -44 345 -33q95 6 138 12q11 2 12 -8q2 -11 -4 -13q-104 -49 -171 -65q-65 -15 -117 -14q-202 6 -294 80q-93 75 -111 205q-21 155 70 292q30 43 81 79l-243 2q-14 3 -7 22q26 54 33 63l1 2q1 2 2 2q9 14 14 19q11 6 25 9q146 29 147 86zM24 796q1 3 7 2q41 -13 79 -42 q4 -4 2 -8l-33 -76q-3 -4 -11 1q-8 7 -77 44q-6 3 -3 6zM84 477q12 -34 37 -36q25 0 29 24q-24 22 -41 24t-25 -12z" />
<glyph unicode="&#xfc2f;" horiz-adv-x="722" arabic-form="isolated" d="M251 354q-8 21 -25 40q-15 15 -24 2q-34 -67 -82 -61q-78 10 -64 152q9 92 61 107q22 7 63 -32q69 -67 94 -187q9 -41 -5 -83q-14 -37 -42 -62q222 -8 336 9q6 0 8 -1q2 -4 2 -8q-2 -41 -4 -52q-5 -14 -14 -15q-240 -30 -344 -155q-68 -80 -53 -177q23 -164 172 -217 q124 -44 345 -33q95 6 138 12q11 2 12 -8q2 -11 -4 -13q-104 -49 -171 -65q-65 -15 -117 -14q-202 6 -294 80q-93 75 -111 205q-21 155 70 292q30 43 81 79l-243 2q-14 3 -7 22q26 54 33 63l1 2q1 2 2 2q9 14 14 19q11 6 25 9q146 29 147 86zM422 444q1 3 7 2q41 -13 79 -42 q4 -4 2 -8l-33 -76q-3 -4 -11 1q-8 7 -77 44q-6 3 -3 6zM24 796q1 3 7 2q41 -13 79 -42q4 -4 2 -8l-33 -76q-3 -4 -11 1q-8 7 -77 44q-6 3 -3 6zM84 477q12 -34 37 -36q25 0 29 24q-24 22 -41 24t-25 -12z" />
<glyph unicode="&#xfc30;" horiz-adv-x="817" arabic-form="isolated" d="M225 204q63 -62 135 -86q78 -27 146 -28q124 9 175 72q-8 30 -15 39q-10 10 -14 9t-4 -4q-9 -44 -43 -52q-105 -24 -116 85q-4 52 20 112q24 58 56 58q13 0 35 -16q103 -78 120 -198q8 -64 -14 -100q-57 -95 -184 -95q-91 0 -171 40q-4 2 -4 -3q24 -106 -13 -141 q-11 -11 -28 1q-70 54 -99 160q-52 -1 -100 -59q-8 -13 30 -130q120 -363 115 -417q-1 -23 -9 -28q-9 -4 -17 5q-9 10 -12 29q-22 100 -94 310q-63 181 -43 275q18 84 119 128q3 19 9 32q8 14 20 2zM475 620q1 3 7 2q41 -13 79 -42q4 -4 2 -8l-33 -76q-3 -4 -11 1 q-8 7 -77 44q-6 3 -3 6zM551 301q-23 -2 -20 -39q1 -6 2 -6q21 -6 41 -3t25 13q-29 37 -48 35z" />
<glyph unicode="&#xfc31;" horiz-adv-x="713" arabic-form="isolated" d="M513 437q64 -72 80 -165q6 -35 3 -75t-24 -71q49 -9 76 -30q17 -13 19 -45q3 -65 -10 -88q-15 -24 -45 -51q-152 -132 -327 -127q-76 3 -132 43q-55 40 -79 102q-22 61 -15 146q7 84 42 143q7 11 15 3t4 -18q-45 -92 -28 -165q38 -159 210 -159q175 0 320 148q2 2 -2 7 q-37 33 -200 34q-8 0 -6 6v5q1 20 14 55q1 5 9 7q118 18 140 67q8 18 -12 45q-16 24 -34 33q-14 -42 -34 -54q-52 -30 -95 21q-35 41 -20 110q23 106 75 107q25 1 56 -34zM327 757q1 3 7 2q41 -13 79 -42q3 -3 2 -8l-34 -76q-2 -5 -10 1q-9 7 -78 44q-5 3 -3 6zM428 372 q-11 0 -22 -18q-4 -8 9 -17q32 -22 59 6q3 4 -2 8q-28 21 -44 21z" />
<glyph unicode="&#xfc32;" horiz-adv-x="713" arabic-form="isolated" d="M513 437q64 -72 80 -165q6 -35 3 -75t-24 -71q49 -9 76 -30q17 -13 19 -45q3 -65 -10 -88q-15 -24 -45 -51q-152 -132 -327 -127q-76 3 -132 43q-55 40 -79 102q-22 61 -15 146q7 84 42 143q7 11 15 3t4 -18q-45 -92 -28 -165q38 -159 210 -159q175 0 320 148q2 2 -2 7 q-37 33 -200 34q-8 0 -6 6v5q1 20 14 55q1 5 9 7q118 18 140 67q8 18 -12 45q-16 24 -34 33q-14 -42 -34 -54q-52 -30 -95 21q-35 41 -20 110q23 106 75 107q25 1 56 -34zM444 -303q2 3 8 2q44 -14 78 -41q5 -4 3 -9l-35 -76q-1 -3 -9 2q-4 3 -63 35l-28 -59q-2 -5 -10 1 q-19 12 -78 44q-4 2 -2 6l36 73q2 3 8 2q30 -9 66 -33zM327 757q1 3 7 2q41 -13 79 -42q3 -3 2 -8l-34 -76q-2 -5 -10 1q-9 7 -78 44q-5 3 -3 6zM428 372q-11 0 -22 -18q-4 -8 9 -17q32 -22 59 6q3 4 -2 8q-28 21 -44 21z" />
<glyph unicode="&#xfc33;" horiz-adv-x="722" arabic-form="isolated" d="M251 354q-8 21 -25 40q-15 15 -24 2q-34 -67 -82 -61q-78 10 -64 152q9 92 61 107q22 7 63 -32q69 -67 94 -187q9 -41 -5 -83q-14 -37 -42 -62q222 -8 336 9q6 0 8 -1q2 -4 2 -8q-2 -41 -4 -52q-5 -14 -14 -15q-240 -30 -344 -155q-68 -80 -53 -177q23 -164 172 -217 q124 -44 345 -33q95 6 138 12q11 2 12 -8q2 -11 -4 -13q-104 -49 -171 -65q-65 -15 -117 -14q-202 6 -294 80q-93 75 -111 205q-21 155 70 292q30 43 81 79l-243 2q-14 3 -7 22q26 54 33 63l1 2q1 2 2 2q9 14 14 19q11 6 25 9q146 29 147 86zM75 818q1 3 7 2q43 -14 79 -41 q5 -5 2 -9l-34 -76q-2 -3 -10 2q-4 4 -63 35l-27 -59q-3 -4 -11 1q-8 7 -77 44q-5 3 -2 6l36 73q1 3 7 2q32 -9 66 -33zM84 477q12 -34 37 -36q25 0 29 24q-24 22 -41 24t-25 -12z" />
<glyph unicode="&#xfc34;" horiz-adv-x="817" arabic-form="isolated" d="M225 204q63 -62 135 -86q78 -27 146 -28q124 9 175 72q-8 30 -15 39q-10 10 -14 9t-4 -4q-9 -44 -43 -52q-105 -24 -116 85q-4 52 20 112q24 58 56 58q13 0 35 -16q103 -78 120 -198q8 -64 -14 -100q-57 -95 -184 -95q-91 0 -171 40q-4 2 -4 -3q24 -106 -13 -141 q-11 -11 -28 1q-70 54 -99 160q-52 -1 -100 -59q-8 -13 30 -130q120 -363 115 -417q-1 -23 -9 -28q-9 -4 -17 5q-9 10 -12 29q-22 100 -94 310q-63 181 -43 275q18 84 119 128q3 19 9 32q8 14 20 2zM556 642q1 3 7 2q43 -14 79 -41q5 -5 2 -9l-34 -76q-2 -3 -10 2 q-4 4 -63 35l-27 -59q-3 -4 -11 1q-8 7 -77 44q-5 3 -2 6l36 73q1 3 7 2q32 -9 66 -33zM551 301q-23 -2 -20 -39q1 -6 2 -6q21 -6 41 -3t25 13q-29 37 -48 35z" />
<glyph unicode="&#xfc35;" horiz-adv-x="713" arabic-form="isolated" d="M513 437q64 -72 80 -165q6 -35 3 -75t-24 -71q49 -9 76 -30q17 -13 19 -45q3 -65 -10 -88q-15 -24 -45 -51q-152 -132 -327 -127q-76 3 -132 43q-55 40 -79 102q-22 61 -15 146q7 84 42 143q7 11 15 3t4 -18q-45 -92 -28 -165q38 -159 210 -159q175 0 320 148q2 2 -2 7 q-37 33 -200 34q-8 0 -6 6v5q1 20 14 55q1 5 9 7q118 18 140 67q8 18 -12 45q-16 24 -34 33q-14 -42 -34 -54q-52 -30 -95 21q-35 41 -20 110q23 106 75 107q25 1 56 -34zM373 779q1 3 7 2q43 -14 79 -41q5 -5 2 -9l-34 -76q-2 -3 -10 2q-7 5 -63 35l-28 -59q-2 -5 -10 1 q-9 7 -78 44q-4 2 -2 6l37 73q1 3 7 2q33 -10 66 -33zM428 372q-11 0 -22 -18q-4 -8 9 -17q32 -22 59 6q3 4 -2 8q-28 21 -44 21z" />
<glyph unicode="&#xfc36;" horiz-adv-x="713" arabic-form="isolated" d="M513 437q64 -72 80 -165q6 -35 3 -75t-24 -71q49 -9 76 -30q17 -13 19 -45q3 -65 -10 -88q-15 -24 -45 -51q-152 -132 -327 -127q-76 3 -132 43q-55 40 -79 102q-22 61 -15 146q7 84 42 143q7 11 15 3t4 -18q-45 -92 -28 -165q38 -159 210 -159q175 0 320 148q2 2 -2 7 q-37 33 -200 34q-8 0 -6 6v5q1 20 14 55q1 5 9 7q118 18 140 67q8 18 -12 45q-16 24 -34 33q-14 -42 -34 -54q-52 -30 -95 21q-35 41 -20 110q23 106 75 107q25 1 56 -34zM444 -303q2 3 8 2q44 -14 78 -41q5 -4 3 -9l-35 -76q-1 -3 -9 2q-4 3 -63 35l-28 -59q-2 -5 -10 1 q-19 12 -78 44q-4 2 -2 6l36 73q2 3 8 2q30 -9 66 -33zM373 779q1 3 7 2q43 -14 79 -41q5 -5 2 -9l-34 -76q-2 -3 -10 2q-7 5 -63 35l-28 -59q-2 -5 -10 1q-9 7 -78 44q-4 2 -2 6l37 73q1 3 7 2q33 -10 66 -33zM428 372q-11 0 -22 -18q-4 -8 9 -17q32 -22 59 6q3 4 -2 8 q-28 21 -44 21z" />
<glyph unicode="&#xfc37;" horiz-adv-x="775" arabic-form="isolated" d="M62 395q170 -45 241 -115q60 -60 69 -116q17 -97 -28.5 -141t-152.5 -34h-1q-48 5 -84 38q-63 55 -96 257q-20 121 -44 205q-35 122 -50 158q-15 35 -11 44l21 46q6 13 13 -2q43 -94 86 -325q1 6 3 16q21 80 206 198q145 92 287 154q25 10 25 -16l-4 -63q-2 -15 -13 -19 q-107 -42 -266 -139q-163 -99 -201 -146zM171 94q110 -17 174 53q6 4 1 9q-87 107 -287 158q-10 1 -18 14q30 -149 54 -185q25 -40 76 -49z" />
<glyph unicode="&#xfc38;" horiz-adv-x="812" arabic-form="isolated" d="M604 814l-11 -45q-3 -15 -26 -20q-395 -60 -521 -131q-16 -9 -4 -19q95 -77 134 -119q76 -85 75 -173q-4 -47 -31 -77q228 -7 343 9q6 0 8 -1q2 -4 2 -8q-2 -41 -4 -52q-5 -14 -14 -15q-240 -30 -344 -155q-68 -80 -53 -177q23 -164 172 -217q124 -44 345 -33 q95 6 138 12q11 2 12 -8q2 -11 -4 -13q-104 -49 -171 -65q-65 -15 -117 -14q-202 6 -294 80q-93 75 -111 205q-21 155 70 292q30 43 81 79l-243 2q-14 3 -7 22q27 54 33 62q0 1 1 2.5t2 2.5q9 14 14 19q14 6 25 9q101 22 124 45q-27 56 -148 160q-7 5 -11 4l-16 -12 q-6 -4 -20 10l-60 59q-11 11 -11 32q0 49 25 91q125 104 596 182q15 2 20 -4t1 -21zM404 -117q1 3 7 2q41 -13 79 -42q4 -4 2 -8l-34 -76q-2 -5 -10 1q-8 7 -77 44q-6 3 -3 6z" />
<glyph unicode="&#xfc39;" horiz-adv-x="812" arabic-form="isolated" d="M604 814l-11 -45q-3 -15 -26 -20q-395 -60 -521 -131q-16 -9 -4 -19q95 -77 134 -119q76 -85 75 -173q-4 -47 -31 -77q228 -7 343 9q6 0 8 -1q2 -4 2 -8q-2 -41 -4 -52q-5 -14 -14 -15q-240 -30 -344 -155q-68 -80 -53 -177q23 -164 172 -217q124 -44 345 -33 q95 6 138 12q11 2 12 -8q2 -11 -4 -13q-104 -49 -171 -65q-65 -15 -117 -14q-202 6 -294 80q-93 75 -111 205q-21 155 70 292q30 43 81 79l-243 2q-14 3 -7 22q27 54 33 62q0 1 1 2.5t2 2.5q9 14 14 19q14 6 25 9q101 22 124 45q-27 56 -148 160q-7 5 -11 4l-16 -12 q-6 -4 -20 10l-60 59q-11 11 -11 32q0 49 25 91q125 104 596 182q15 2 20 -4t1 -21z" />
<glyph unicode="&#xfc3a;" horiz-adv-x="812" arabic-form="isolated" d="M604 814l-11 -45q-3 -15 -26 -20q-395 -60 -521 -131q-16 -9 -4 -19q95 -77 134 -119q76 -85 75 -173q-4 -47 -31 -77q228 -7 343 9q6 0 8 -1q2 -4 2 -8q-2 -41 -4 -52q-5 -14 -14 -15q-240 -30 -344 -155q-68 -80 -53 -177q23 -164 172 -217q124 -44 345 -33 q95 6 138 12q11 2 12 -8q2 -11 -4 -13q-104 -49 -171 -65q-65 -15 -117 -14q-202 6 -294 80q-93 75 -111 205q-21 155 70 292q30 43 81 79l-243 2q-14 3 -7 22q27 54 33 62q0 1 1 2.5t2 2.5q9 14 14 19q14 6 25 9q101 22 124 45q-27 56 -148 160q-7 5 -11 4l-16 -12 q-6 -4 -20 10l-60 59q-11 11 -11 32q0 49 25 91q125 104 596 182q15 2 20 -4t1 -21zM422 444q1 3 7 2q41 -13 79 -42q4 -4 2 -8l-33 -76q-3 -4 -11 1q-8 7 -77 44q-6 3 -3 6z" />
<glyph unicode="&#xfc3b;" horiz-adv-x="1189" arabic-form="isolated" d="M518 31q73 -244 3 -307q-95 -83 -193 -84q-99 -2 -165 54q-65 54 -70 152q-3 101 53 196q3 6 11 6q5 0 10 -6q3 -6 -1 -15q-62 -123 -16 -199q56 -90 194 -81q114 7 189 96l-168 680q-9 35 -8 50l8 60q11 19 24 -20l52 -190q0 1 1 3q21 80 206 198q145 92 287 154 q25 10 25 -16l-4 -63q-2 -15 -13 -19q-107 -42 -266 -139q-163 -99 -201 -146q170 -45 241 -115q60 -60 69 -116q17 -97 -28.5 -141t-153.5 -34q-3 0 -7 2q-58 15 -96 92zM471 314q57 -203 114 -220q110 -17 174 53q6 4 1 9q-87 107 -287 158h-2z" />
<glyph unicode="&#xfc3c;" horiz-adv-x="783" arabic-form="isolated" d="M96 128q10 48 16 62q0 6 5 9q0 1 1 1l1 1l4 2q101 41 120 69q-18 95 -162 212q-6 5 -16 2l-29 -10q-7 -3 -15 7l-72 82q-7 8 -5 25q8 68 39 107q13 15 54 40q117 70 514 137q10 2 15 -3t3 -16l-8 -63q0 -12 -14 -14q-354 -60 -456 -96q-52 -17 -71 -38q250 -216 250 -367 q0 -39 -27 -83q-5 -10 -19 -18q55 -22 110 -58q20 -13 17 -36q-2 -13 -4.5 -25.5t-3.5 -18.5t-1 -7q-2 -9 -6 -13.5t-10 -3.5q-111 14 -189 -9q-48 -13 -66 -38q0 -12 19 -66l47 -142q27 -78 39 -121q21 -84 13 -137q-3 -12 -12 -11q-13 2 -15 27q-5 62 -93 299 q-30 86 -22 146t28 89q19 27 60 49l-12 4q-11 3 -20 7t-7 17z" />
<glyph unicode="&#xfc3d;" horiz-adv-x="981" arabic-form="isolated" d="M736 937q19 8 19 -15l5 -69q0 -11 -12 -15q-330 -129 -492 -243q-7 -6 4 -13q91 -58 148 -103q149 -119 158 -260q3 -39 -20 -64q-16 -16 -25 -23l30 -3q65 -7 97 -33q17 -13 19 -45q3 -65 -10 -88q-15 -24 -45 -51q-152 -132 -327 -127q-76 3 -132 43q-55 40 -79 102 q-22 61 -15 146q7 84 42 143q7 11 15 3t4 -18q-45 -92 -28 -165q38 -159 210 -159q175 0 320 148q2 2 -2 7q-37 33 -200 34q-9 0 -6 8l2 6l-3 3l-1 1v1v3l14 54q33 12 114 56q2 2 2 6q-32 127 -215 232q-7 3 -7 -1l-12 -38q0 -5 -6 -1q-37 22 -60 40q-21 17 -33 36 q-19 33 -11 94q7 59 26 78q128 128 512 290z" />
<glyph unicode="&#xfc3e;" horiz-adv-x="981" arabic-form="isolated" d="M736 937q19 8 19 -15l5 -69q0 -11 -12 -15q-330 -129 -492 -243q-7 -6 4 -13q91 -58 148 -103q149 -119 158 -260q3 -39 -20 -64q-16 -16 -25 -23l30 -3q65 -7 97 -33q17 -13 19 -45q3 -65 -10 -88q-15 -24 -45 -51q-152 -132 -327 -127q-76 3 -132 43q-55 40 -79 102 q-22 61 -15 146q7 84 42 143q7 11 15 3t4 -18q-45 -92 -28 -165q38 -159 210 -159q175 0 320 148q2 2 -2 7q-37 33 -200 34q-9 0 -6 8l2 6l-3 3l-1 1v1v3l14 54q33 12 114 56q2 2 2 6q-32 127 -215 232q-7 3 -7 -1l-12 -38q0 -5 -6 -1q-37 22 -60 40q-21 17 -33 36 q-19 33 -11 94q7 59 26 78q128 128 512 290zM444 -303q2 3 8 2q44 -14 78 -41q5 -4 3 -9l-35 -76q-1 -3 -9 2q-4 3 -63 35l-28 -59q-2 -5 -10 1q-19 12 -78 44q-4 2 -2 6l36 73q2 3 8 2q30 -9 66 -33z" />
<glyph unicode="&#xfc3f;" horiz-adv-x="697" arabic-form="isolated" d="M241 322q-28 115 -79 274l-19 41q-4 10 0 20q1 2 3.5 7.5t6.5 14.5t8 19q1 6 8 6q5 0 8 -8q19 -42 58 -75q11 -10 4 -20l-16 -29q-3 -7 1 -21q66 -214 53 -276q-6 -26 -33 -46q212 -6 319 10q6 0 8 -1q2 -4 2 -8q-2 -41 -4 -52q-5 -14 -14 -15q-240 -30 -344 -155 q-68 -80 -53 -177q23 -164 172 -217q124 -44 345 -33q95 6 138 12q11 2 12 -8q2 -11 -4 -13q-104 -49 -171 -65q-65 -15 -117 -14q-202 6 -294 80q-93 75 -111 205q-21 155 70 292q30 43 81 79l-243 2q-14 3 -7 22q29 57 33 63q2 2 3 4q12 19 14 22q8 11 24 11q75 1 116 12 q29 7 22 37zM404 -117q1 3 7 2q41 -13 79 -42q4 -4 2 -8l-34 -76q-2 -5 -10 1q-8 7 -77 44q-6 3 -3 6z" />
<glyph unicode="&#xfc40;" horiz-adv-x="697" arabic-form="isolated" d="M241 322q-28 115 -79 274l-19 41q-4 10 0 20q1 2 3.5 7.5t6.5 14.5t8 19q1 6 8 6q5 0 8 -8q19 -42 58 -75q11 -10 4 -20l-16 -29q-3 -7 1 -21q66 -214 53 -276q-6 -26 -33 -46q212 -6 319 10q6 0 8 -1q2 -4 2 -8q-2 -41 -4 -52q-5 -14 -14 -15q-240 -30 -344 -155 q-68 -80 -53 -177q23 -164 172 -217q124 -44 345 -33q95 6 138 12q11 2 12 -8q2 -11 -4 -13q-104 -49 -171 -65q-65 -15 -117 -14q-202 6 -294 80q-93 75 -111 205q-21 155 70 292q30 43 81 79l-243 2q-14 3 -7 22q29 57 33 63q2 2 3 4q12 19 14 22q8 11 24 11q75 1 116 12 q29 7 22 37z" />
<glyph unicode="&#xfc41;" horiz-adv-x="697" arabic-form="isolated" d="M241 322q-28 115 -79 274l-19 41q-4 10 0 20q1 2 3.5 7.5t6.5 14.5t8 19q1 6 8 6q5 0 8 -8q19 -42 58 -75q11 -10 4 -20l-16 -29q-3 -7 1 -21q66 -214 53 -276q-6 -26 -33 -46q212 -6 319 10q6 0 8 -1q2 -4 2 -8q-2 -41 -4 -52q-5 -14 -14 -15q-240 -30 -344 -155 q-68 -80 -53 -177q23 -164 172 -217q124 -44 345 -33q95 6 138 12q11 2 12 -8q2 -11 -4 -13q-104 -49 -171 -65q-65 -15 -117 -14q-202 6 -294 80q-93 75 -111 205q-21 155 70 292q30 43 81 79l-243 2q-14 3 -7 22q29 57 33 63q2 2 3 4q12 19 14 22q8 11 24 11q75 1 116 12 q29 7 22 37zM422 444q1 3 7 2q41 -13 79 -42q4 -4 2 -8l-33 -76q-3 -4 -11 1q-8 7 -77 44q-6 3 -3 6z" />
<glyph unicode="&#xfc42;" horiz-adv-x="441" arabic-form="isolated" d="M96 128q12 64 22 72q1 1 2 1q6 5 22 10q50 12 65 41q-6 29 -32 124q-18 62 -54 166q-34 103 -43 120q-20 46 -17 54l14 45q5 16 14 0q21 -37 70 -69q12 -8 9 -20q-4 -10 -12 -27q-2 -6 -6 -13.5t-5 -9.5l66 -224q18 -67 18 -134q2 -29 -5 -54l-9 -30q63 -24 119 -62 q20 -13 17 -36q-2 -13 -4.5 -25.5t-3.5 -18.5t-1 -7q-2 -9 -6 -13.5t-10 -3.5q-111 14 -189 -9q-48 -13 -66 -38q0 -12 19 -66l47 -142q27 -78 39 -121q21 -84 13 -137q-3 -12 -12 -11q-13 2 -15 27q-5 62 -93 299q-30 86 -22 146t28 89q19 27 60 49l-12 4q-11 3 -20 7 t-7 17z" />
<glyph unicode="&#xfc43;" horiz-adv-x="718" arabic-form="isolated" d="M428 130q2 0 4 0.5t4 0.5q4 2 22 10q24 10 33 16q6 3 3 12q-32 108 -81 239q-40 107 -62 174l-22 55q-7 13 -5 19q2 10 8 46q2 9 9 9q6 0 12 -10q29 -47 60 -71q12 -9 4 -23l-16 -31q6 -14 59 -167q56 -161 62 -209q4 -39 -2 -68q5 0 15.5 -1t15.5 -2q65 -7 97 -33 q17 -13 19 -45q3 -65 -10 -88q-15 -24 -45 -51q-152 -132 -327 -127q-76 3 -132 43q-55 40 -79 102q-22 61 -15 146q7 84 42 143q7 11 15 3t4 -18q-45 -92 -28 -165q38 -159 210 -159q175 0 320 148q2 2 -2 7q-37 33 -200 34q-4 0 -6 2h-1q-6 19 -2 33q2 12 15 21q1 0 1 1z " />
<glyph unicode="&#xfc44;" horiz-adv-x="718" arabic-form="isolated" d="M428 130q2 0 4 0.5t4 0.5q4 2 22 10q24 10 33 16q6 3 3 12q-32 108 -81 239q-40 107 -62 174l-22 55q-7 13 -5 19q2 10 8 46q2 9 9 9q6 0 12 -10q29 -47 60 -71q12 -9 4 -23l-16 -31q6 -14 59 -167q56 -161 62 -209q4 -39 -2 -68q5 0 15.5 -1t15.5 -2q65 -7 97 -33 q17 -13 19 -45q3 -65 -10 -88q-15 -24 -45 -51q-152 -132 -327 -127q-76 3 -132 43q-55 40 -79 102q-22 61 -15 146q7 84 42 143q7 11 15 3t4 -18q-45 -92 -28 -165q38 -159 210 -159q175 0 320 148q2 2 -2 7q-37 33 -200 34q-4 0 -6 2h-1q-6 19 -2 33q2 12 15 21q1 0 1 1z M444 -303q2 3 8 2q44 -14 78 -41q5 -4 3 -9l-35 -76q-1 -3 -9 2q-4 3 -63 35l-28 -59q-2 -5 -10 1q-19 12 -78 44q-4 2 -2 6l36 73q2 3 8 2q30 -9 66 -33z" />
<glyph unicode="&#xfc45;" horiz-adv-x="664" arabic-form="isolated" d="M155 233q276 -13 408 6q6 0 8 -1q2 -4 2 -8q-2 -41 -4 -52q-5 -14 -14 -15q-240 -30 -344 -155q-68 -80 -53 -177q23 -164 172 -217q124 -44 345 -33q95 6 138 12q11 2 12 -8q2 -11 -4 -13q-104 -49 -171 -65q-65 -15 -117 -14q-202 6 -294 80q-93 75 -111 205 q-21 155 70 292q30 43 81 79l-243 2q-14 3 -7 22q25 53 33 63h5q4 14 21 34q72 81 202 130l-23 28q-13 14 -8 28q17 59 33 79q10 15 23 7q83 -40 120 -72q11 -10 8 -29q-5 -28 -35 -77q-4 -7 -38 -15q-163 -36 -248 -114q5 -1 16 -1.5t17 -0.5zM404 -117q1 3 7 2 q41 -13 79 -42q4 -4 2 -8l-34 -76q-2 -5 -10 1q-8 7 -77 44q-6 3 -3 6z" />
<glyph unicode="&#xfc46;" horiz-adv-x="664" arabic-form="isolated" d="M155 233q276 -13 408 6q6 0 8 -1q2 -4 2 -8q-2 -41 -4 -52q-5 -14 -14 -15q-240 -30 -344 -155q-68 -80 -53 -177q23 -164 172 -217q124 -44 345 -33q95 6 138 12q11 2 12 -8q2 -11 -4 -13q-104 -49 -171 -65q-65 -15 -117 -14q-202 6 -294 80q-93 75 -111 205 q-21 155 70 292q30 43 81 79l-243 2q-14 3 -7 22q25 53 33 63h5q4 14 21 34q72 81 202 130l-23 28q-13 14 -8 28q17 59 33 79q10 15 23 7q83 -40 120 -72q11 -10 8 -29q-5 -28 -35 -77q-4 -7 -38 -15q-163 -36 -248 -114q5 -1 16 -1.5t17 -0.5z" />
<glyph unicode="&#xfc47;" horiz-adv-x="664" arabic-form="isolated" d="M155 233q276 -13 408 6q6 0 8 -1q2 -4 2 -8q-2 -41 -4 -52q-5 -14 -14 -15q-240 -30 -344 -155q-68 -80 -53 -177q23 -164 172 -217q124 -44 345 -33q95 6 138 12q11 2 12 -8q2 -11 -4 -13q-104 -49 -171 -65q-65 -15 -117 -14q-202 6 -294 80q-93 75 -111 205 q-21 155 70 292q30 43 81 79l-243 2q-14 3 -7 22q25 53 33 63h5q4 14 21 34q72 81 202 130l-23 28q-13 14 -8 28q17 59 33 79q10 15 23 7q83 -40 120 -72q11 -10 8 -29q-5 -28 -35 -77q-4 -7 -38 -15q-163 -36 -248 -114q5 -1 16 -1.5t17 -0.5zM38 601q1 3 8 2 q43 -14 78 -42q5 -4 2 -8l-33 -76q-3 -5 -10 1q-13 9 -78 44q-5 4 -3 6z" />
<glyph unicode="&#xfc48;" horiz-adv-x="911" arabic-form="isolated" d="M225 204q63 -62 135 -86q78 -27 146 -28q46 1 78 56q13 22 46 110q24 62 69 62q68 -2 122 -166q3 -11 0 -17l-43 -69q-5 -11 -17 -7q-81 22 -149 72q-24 -131 -90 -131q-91 0 -171 40q-4 2 -4 -3q24 -106 -13 -141q-11 -11 -28 1q-70 54 -99 160q-52 -1 -100 -59 q-8 -13 30 -130q120 -363 115 -417q-1 -23 -9 -28q-9 -4 -17 5q-9 10 -12 29q-22 100 -94 310q-63 181 -43 275q18 84 119 128q3 19 9 32q8 14 20 2zM644 220q41 -34 98 -46q-6 44 -39 57q-33 14 -59 -11z" />
<glyph unicode="&#xfc49;" horiz-adv-x="862" arabic-form="isolated" d="M428 130h2l-1 2q-1 1 -1 2q8 25 17 36q55 62 130 97l-30 20q-13 9 -9 27q15 64 30 89q8 11 24 8q48 -8 93 -39q60 -41 63 -71q3 -56 -18 -74q-8 -8 -51 -14q-109 -15 -168 -65q-12 -11 -19 -15q19 0 61 -4q65 -7 97 -33q17 -13 19 -45q3 -65 -10 -88q-15 -24 -45 -51 q-152 -132 -327 -127q-76 3 -132 43q-55 40 -79 102q-22 61 -15 146q7 84 42 143q7 11 15 3t4 -18q-45 -92 -28 -165q38 -159 210 -159q175 0 320 148q2 2 -2 7q-37 33 -200 34q-9 0 -6 8z" />
<glyph unicode="&#xfc4a;" horiz-adv-x="862" arabic-form="isolated" d="M428 130h2l-1 2q-1 1 -1 2q8 25 17 36q55 62 130 97l-30 20q-13 9 -9 27q15 64 30 89q8 11 24 8q48 -8 93 -39q60 -41 63 -71q3 -56 -18 -74q-8 -8 -51 -14q-109 -15 -168 -65q-12 -11 -19 -15q19 0 61 -4q65 -7 97 -33q17 -13 19 -45q3 -65 -10 -88q-15 -24 -45 -51 q-152 -132 -327 -127q-76 3 -132 43q-55 40 -79 102q-22 61 -15 146q7 84 42 143q7 11 15 3t4 -18q-45 -92 -28 -165q38 -159 210 -159q175 0 320 148q2 2 -2 7q-37 33 -200 34q-9 0 -6 8zM444 -303q2 3 8 2q44 -14 78 -41q5 -4 3 -9l-35 -76q-1 -3 -9 2q-4 3 -63 35 l-28 -59q-2 -5 -10 1q-19 12 -78 44q-4 2 -2 6l36 73q2 3 8 2q30 -9 66 -33z" />
<glyph unicode="&#xfc4b;" horiz-adv-x="647" arabic-form="isolated" d="M50 216q0 1 1 2.5t2 2.5q6 11 9 15h5q12 13 45 35q104 66 136 104q32 39 42 87q10 52 19 76q11 27 32 27t44 -27q35 -43 53 -180q1 -13 -8 -13q-11 0 -14 14q-31 110 -71 110q-9 0 -16 -13q-5 -8 -20 -50q-29 -97 -146 -168q-3 -2 -8 -5q276 -13 408 6q6 0 8 -1 q2 -4 2 -8q-2 -41 -4 -52q-5 -14 -14 -15q-240 -30 -344 -155q-68 -80 -53 -177q23 -164 172 -217q124 -44 345 -33q95 6 138 12q11 2 12 -8q2 -11 -4 -13q-104 -49 -171 -65q-65 -15 -117 -14q-202 6 -294 80q-93 75 -111 205q-21 155 70 292q30 43 81 79l-243 2 q-14 3 -7 22q16 32 21 43zM404 -117q1 3 7 2q41 -13 79 -42q4 -4 2 -8l-34 -76q-2 -5 -10 1q-8 7 -77 44q-6 3 -3 6zM282 755q1 3 8 2q43 -14 78 -42q4 -4 2 -8l-33 -76q-3 -5 -10 1q-13 9 -78 44q-6 3 -3 6z" />
<glyph unicode="&#xfc4c;" horiz-adv-x="647" arabic-form="isolated" d="M50 216q0 1 1 2.5t2 2.5q6 11 9 15h5q12 13 45 35q104 66 136 104q32 39 42 87q10 52 19 76q11 27 32 27t44 -27q35 -43 53 -180q1 -13 -8 -13q-11 0 -14 14q-31 110 -71 110q-9 0 -16 -13q-5 -8 -20 -50q-29 -97 -146 -168q-3 -2 -8 -5q276 -13 408 6q6 0 8 -1 q2 -4 2 -8q-2 -41 -4 -52q-5 -14 -14 -15q-240 -30 -344 -155q-68 -80 -53 -177q23 -164 172 -217q124 -44 345 -33q95 6 138 12q11 2 12 -8q2 -11 -4 -13q-104 -49 -171 -65q-65 -15 -117 -14q-202 6 -294 80q-93 75 -111 205q-21 155 70 292q30 43 81 79l-243 2 q-14 3 -7 22q16 32 21 43zM282 755q1 3 8 2q43 -14 78 -42q4 -4 2 -8l-33 -76q-3 -5 -10 1q-13 9 -78 44q-6 3 -3 6z" />
<glyph unicode="&#xfc4d;" horiz-adv-x="647" arabic-form="isolated" d="M50 216q0 1 1 2.5t2 2.5q6 11 9 15h5q12 13 45 35q104 66 136 104q32 39 42 87q10 52 19 76q11 27 32 27t44 -27q35 -43 53 -180q1 -13 -8 -13q-11 0 -14 14q-31 110 -71 110q-9 0 -16 -13q-5 -8 -20 -50q-29 -97 -146 -168q-3 -2 -8 -5q276 -13 408 6q6 0 8 -1 q2 -4 2 -8q-2 -41 -4 -52q-5 -14 -14 -15q-240 -30 -344 -155q-68 -80 -53 -177q23 -164 172 -217q124 -44 345 -33q95 6 138 12q11 2 12 -8q2 -11 -4 -13q-104 -49 -171 -65q-65 -15 -117 -14q-202 6 -294 80q-93 75 -111 205q-21 155 70 292q30 43 81 79l-243 2 q-14 3 -7 22q16 32 21 43zM38 601q1 3 8 2q43 -14 78 -42q5 -4 2 -8l-33 -76q-3 -5 -10 1q-13 9 -78 44q-5 4 -3 6zM282 755q1 3 8 2q43 -14 78 -42q4 -4 2 -8l-33 -76q-3 -5 -10 1q-13 9 -78 44q-6 3 -3 6z" />
<glyph unicode="&#xfc4e;" horiz-adv-x="594" arabic-form="isolated" d="M96 128q11 56 19 68q-2 4 1 5q16 19 68 56q133 94 211 93q37 0 67 -21q31 -22 21 -54q-6 -18 -22 -44q-23 -40 -37 -7q-15 32 -53 36q-66 6 -185 -70q2 0 5.5 -2t5.5 -2q72 -24 137 -68q20 -13 17 -36q-2 -13 -4.5 -25.5t-3.5 -18.5t-1 -7q-2 -9 -6 -13.5t-10 -3.5 q-111 14 -189 -9q-48 -13 -66 -38q0 -12 19 -66l47 -142q27 -78 39 -121q21 -84 13 -137q-3 -12 -12 -11q-13 2 -15 27q-5 62 -93 299q-30 86 -22 146t28 89q19 27 60 49l-12 4q-11 3 -20 7t-7 17zM297 611q2 3 8 2q43 -14 78 -42q5 -3 3 -8l-34 -76q-2 -5 -10 1 q-19 12 -78 44q-5 4 -3 6z" />
<glyph unicode="&#xfc4f;" horiz-adv-x="734" arabic-form="isolated" d="M428 130h1v1q2 2 23 6q76 17 114 69q-6 52 -40 95q-35 44 -70 69q-10 7 -8 22l11 76q3 19 16 8q24 -18 55 -67q34 -55 46 -94q17 -48 12 -98q-4 -49 -29 -83q-2 -4 -4 -5q63 -9 93 -33q17 -13 19 -45q3 -65 -10 -88q-15 -24 -45 -51q-152 -132 -327 -127q-76 3 -132 43 q-55 40 -79 102q-22 61 -15 146q7 84 42 143q7 11 15 3t4 -18q-45 -92 -28 -165q38 -159 210 -159q175 0 320 148q2 2 -2 7q-35 30 -169 33q-33 -3 -34 -3q-10 0 -6 9l15 47zM398 693q1 3 7 2q44 -14 79 -42q4 -4 2 -8l-33 -76q-3 -4 -11 1q-8 7 -77 44q-6 3 -3 6z" />
<glyph unicode="&#xfc50;" horiz-adv-x="734" arabic-form="isolated" d="M428 130h1v1q2 2 23 6q76 17 114 69q-6 52 -40 95q-35 44 -70 69q-10 7 -8 22l11 76q3 19 16 8q24 -18 55 -67q34 -55 46 -94q17 -48 12 -98q-4 -49 -29 -83q-2 -4 -4 -5q63 -9 93 -33q17 -13 19 -45q3 -65 -10 -88q-15 -24 -45 -51q-152 -132 -327 -127q-76 3 -132 43 q-55 40 -79 102q-22 61 -15 146q7 84 42 143q7 11 15 3t4 -18q-45 -92 -28 -165q38 -159 210 -159q175 0 320 148q2 2 -2 7q-35 30 -169 33q-33 -3 -34 -3q-10 0 -6 9l15 47zM444 -303q2 3 8 2q44 -14 78 -41q5 -4 3 -9l-35 -76q-1 -3 -9 2q-4 3 -63 35l-28 -59q-2 -5 -10 1 q-19 12 -78 44q-4 2 -2 6l36 73q2 3 8 2q30 -9 66 -33zM398 693q1 3 7 2q44 -14 79 -42q4 -4 2 -8l-33 -76q-3 -4 -11 1q-8 7 -77 44q-6 3 -3 6z" />
<glyph unicode="&#xfc51;" horiz-adv-x="696" arabic-form="isolated" d="M155 233q276 -13 408 6q6 0 8 -1q2 -4 2 -8q-2 -41 -4 -52q-5 -14 -14 -15q-240 -30 -344 -155q-68 -80 -53 -177q23 -164 172 -217q124 -44 345 -33q95 6 138 12q11 2 12 -8q2 -11 -4 -13q-104 -49 -171 -65q-65 -15 -117 -14q-202 6 -294 80q-93 75 -111 205 q-21 155 70 292q30 43 81 79l-243 2q-14 3 -7 22q28 56 33 62q0 8 11 25q11 28 28 38q52 28 76 40q56 27 91 48q-39 15 -37 61q0 23 11 67q12 41 32 60q-6 12 -39 13q-8 5 -8 12q7 51 18 60q9 8 25 8q30 0 137 -81q107 -82 120 -128q26 -85 8 -120q-10 -23 -42 -17 q-63 13 -163 39q-10 -7 -210 -112q-18 -9 -26 -12q21 -1 61 -3zM404 -117q1 3 7 2q41 -13 79 -42q4 -4 2 -8l-34 -76q-2 -5 -10 1q-8 7 -77 44q-6 3 -3 6zM388 513q-4 2 -4 -3v-7q8 -52 -4 -79q110 -29 123 -30q5 -1 5 4q0 3 -3 8q-22 44 -117 107zM306 521q-35 -2 -51 -30 q3 -24 19 -34q18 -10 64 -22q34 19 31 29q-23 58 -63 57z" />
<glyph unicode="&#xfc52;" horiz-adv-x="974" arabic-form="isolated" d="M225 204q63 -62 135 -86q78 -27 146 -28q38 5 64 28q-31 22 -26 61q11 66 54 111q-13 16 -35 19q-14 2 -12 13q9 90 51 88q43 -2 150 -89q106 -86 125 -140q23 -67 -10 -117q-16 -25 -48 -22q-84 9 -179 43q-81 -85 -118 -85q-91 0 -171 40q-4 2 -4 -3q24 -106 -13 -141 q-11 -11 -28 1q-70 54 -99 160q-52 -1 -100 -59q-8 -13 30 -130q120 -363 115 -417q-1 -23 -9 -28q-9 -4 -17 5q-9 10 -12 29q-22 100 -94 310q-63 181 -43 275q18 84 119 128q3 19 9 32q8 14 20 2zM714 237q-3 2 -3 0q-1 0 0 -2q9 -33 -20 -83q123 -36 141 -24q7 4 4 8 q-28 48 -122 101zM652 165q31 17 28 26q-13 52 -41 58q-42 9 -69 -35q-8 -12 11 -23q21 -11 71 -26z" />
<glyph unicode="&#xfc53;" horiz-adv-x="1028" arabic-form="isolated" d="M428 130q1 2 1 5q3 33 26 53q22 20 92 50q27 11 41 21q-41 26 -35 68q11 65 55 111q-11 15 -25 16q-12 2 -11 12q8 91 50 89q42 -1 150 -90t126 -140q21 -66 -11 -116q-16 -25 -48 -22q-81 8 -168 39q-71 -52 -178 -84q-9 -3 -10 -7v-2q37 0 68 -4q65 -7 97 -33 q17 -13 19 -45q3 -65 -10 -88q-15 -24 -45 -51q-152 -132 -327 -127q-76 3 -132 43q-55 40 -79 102q-22 61 -15 146q7 84 42 143q7 11 15 3t4 -18q-45 -92 -28 -165q38 -159 210 -159q175 0 320 148q2 2 -2 7q-37 33 -200 34q-9 0 -6 8zM735 381q-4 1 -4 -1q8 -46 -7 -84 q110 -34 129 -24q6 4 3 9q-20 36 -121 100zM677 308q25 18 24 28q-13 52 -42 58q-41 8 -68 -35q-9 -12 11 -24t75 -27z" />
<glyph unicode="&#xfc54;" horiz-adv-x="1028" arabic-form="isolated" d="M428 130q1 2 1 5q3 33 26 53q22 20 92 50q27 11 41 21q-41 26 -35 68q11 65 55 111q-11 15 -25 16q-12 2 -11 12q8 91 50 89q42 -1 150 -90t126 -140q21 -66 -11 -116q-16 -25 -48 -22q-81 8 -168 39q-71 -52 -178 -84q-9 -3 -10 -7v-2q37 0 68 -4q65 -7 97 -33 q17 -13 19 -45q3 -65 -10 -88q-15 -24 -45 -51q-152 -132 -327 -127q-76 3 -132 43q-55 40 -79 102q-22 61 -15 146q7 84 42 143q7 11 15 3t4 -18q-45 -92 -28 -165q38 -159 210 -159q175 0 320 148q2 2 -2 7q-37 33 -200 34q-9 0 -6 8zM444 -303q2 3 8 2q44 -14 78 -41 q5 -4 3 -9l-35 -76q-1 -3 -9 2q-4 3 -63 35l-28 -59q-2 -5 -10 1q-19 12 -78 44q-4 2 -2 6l36 73q2 3 8 2q30 -9 66 -33zM735 381q-4 1 -4 -1q8 -46 -7 -84q110 -34 129 -24q6 4 3 9q-20 36 -121 100zM677 308q25 18 24 28q-13 52 -42 58q-41 8 -68 -35q-9 -12 11 -24 t75 -27z" />
<glyph unicode="&#xfc55;" horiz-adv-x="647" arabic-form="isolated" d="M50 216q0 1 1 2.5t2 2.5q6 11 9 15h5q12 13 45 35q104 66 136 104q32 39 42 87q10 52 19 76q11 27 32 27t44 -27q35 -43 53 -180q1 -13 -8 -13q-11 0 -14 14q-31 110 -71 110q-9 0 -16 -13q-5 -8 -20 -50q-29 -97 -146 -168q-3 -2 -8 -5q276 -13 408 6q6 0 8 -1 q2 -4 2 -8q-2 -41 -4 -52q-5 -14 -14 -15q-240 -30 -344 -155q-68 -80 -53 -177q23 -164 172 -217q124 -44 345 -33q95 6 138 12q11 2 12 -8q2 -11 -4 -13q-104 -49 -171 -65q-65 -15 -117 -14q-202 6 -294 80q-93 75 -111 205q-21 155 70 292q30 43 81 79l-243 2 q-14 3 -7 22q16 32 21 43zM531 66q2 3 8 2q44 -14 78 -41q5 -4 3 -9l-35 -76q-1 -3 -9 2q-4 3 -63 35l-28 -59q-2 -5 -10 1q-19 12 -78 44q-5 3 -2 6l36 73q2 3 8 2q30 -9 66 -33zM404 -117q1 3 7 2q41 -13 79 -42q4 -4 2 -8l-34 -76q-2 -5 -10 1q-8 7 -77 44q-6 3 -3 6z " />
<glyph unicode="&#xfc56;" horiz-adv-x="647" arabic-form="isolated" d="M50 216q0 1 1 2.5t2 2.5q6 11 9 15h5q12 13 45 35q104 66 136 104q32 39 42 87q10 52 19 76q11 27 32 27t44 -27q35 -43 53 -180q1 -13 -8 -13q-11 0 -14 14q-31 110 -71 110q-9 0 -16 -13q-5 -8 -20 -50q-29 -97 -146 -168q-3 -2 -8 -5q276 -13 408 6q6 0 8 -1 q2 -4 2 -8q-2 -41 -4 -52q-5 -14 -14 -15q-240 -30 -344 -155q-68 -80 -53 -177q23 -164 172 -217q124 -44 345 -33q95 6 138 12q11 2 12 -8q2 -11 -4 -13q-104 -49 -171 -65q-65 -15 -117 -14q-202 6 -294 80q-93 75 -111 205q-21 155 70 292q30 43 81 79l-243 2 q-14 3 -7 22q16 32 21 43zM531 66q2 3 8 2q44 -14 78 -41q5 -4 3 -9l-35 -76q-1 -3 -9 2q-4 3 -63 35l-28 -59q-2 -5 -10 1q-19 12 -78 44q-5 3 -2 6l36 73q2 3 8 2q30 -9 66 -33z" />
<glyph unicode="&#xfc57;" horiz-adv-x="647" arabic-form="isolated" d="M50 216q0 1 1 2.5t2 2.5q6 11 9 15h5q12 13 45 35q104 66 136 104q32 39 42 87q10 52 19 76q11 27 32 27t44 -27q35 -43 53 -180q1 -13 -8 -13q-11 0 -14 14q-31 110 -71 110q-9 0 -16 -13q-5 -8 -20 -50q-29 -97 -146 -168q-3 -2 -8 -5q276 -13 408 6q6 0 8 -1 q2 -4 2 -8q-2 -41 -4 -52q-5 -14 -14 -15q-240 -30 -344 -155q-68 -80 -53 -177q23 -164 172 -217q124 -44 345 -33q95 6 138 12q11 2 12 -8q2 -11 -4 -13q-104 -49 -171 -65q-65 -15 -117 -14q-202 6 -294 80q-93 75 -111 205q-21 155 70 292q30 43 81 79l-243 2 q-14 3 -7 22q16 32 21 43zM531 66q2 3 8 2q44 -14 78 -41q5 -4 3 -9l-35 -76q-1 -3 -9 2q-4 3 -63 35l-28 -59q-2 -5 -10 1q-19 12 -78 44q-5 3 -2 6l36 73q2 3 8 2q30 -9 66 -33zM38 601q1 3 8 2q43 -14 78 -42q5 -4 2 -8l-33 -76q-3 -5 -10 1q-13 9 -78 44q-5 4 -3 6z" />
<glyph unicode="&#xfc58;" horiz-adv-x="594" arabic-form="isolated" d="M96 128q11 56 19 68q-2 4 1 5q16 19 68 56q133 94 211 93q37 0 67 -21q31 -22 21 -54q-6 -18 -22 -44q-23 -40 -37 -7q-15 32 -53 36q-66 6 -185 -70q2 0 5.5 -2t5.5 -2q72 -24 137 -68q20 -13 17 -36q-2 -13 -4.5 -25.5t-3.5 -18.5t-1 -7q-2 -9 -6 -13.5t-10 -3.5 q-111 14 -189 -9q-48 -13 -66 -38q0 -12 19 -66l47 -142q27 -78 39 -121q21 -84 13 -137q-3 -12 -12 -11q-13 2 -15 27q-5 62 -93 299q-30 86 -22 146t28 89q19 27 60 49l-12 4q-11 3 -20 7t-7 17zM544 -63q2 3 8 2q45 -15 78 -41q5 -4 3 -9l-35 -76q-1 -4 -9 2q-5 4 -64 35 l-27 -59q-3 -5 -10 1q-13 9 -78 44q-5 3 -2 6l36 73q1 3 8 2q32 -10 65 -33z" />
<glyph unicode="&#xfc59;" horiz-adv-x="734" arabic-form="isolated" d="M428 130h1v1q2 2 23 6q76 17 114 69q-6 52 -40 95q-35 44 -70 69q-10 7 -8 22l11 76q3 19 16 8q24 -18 55 -67q34 -55 46 -94q17 -48 12 -98q-4 -49 -29 -83q-2 -4 -4 -5q63 -9 93 -33q17 -13 19 -45q3 -65 -10 -88q-15 -24 -45 -51q-152 -132 -327 -127q-76 3 -132 43 q-55 40 -79 102q-22 61 -15 146q7 84 42 143q7 11 15 3t4 -18q-45 -92 -28 -165q38 -159 210 -159q175 0 320 148q2 2 -2 7q-35 30 -169 33q-33 -3 -34 -3q-10 0 -6 9l15 47zM707 -157q1 3 7 2q43 -14 79 -41q5 -5 2 -9l-34 -76q-2 -3 -10 2q-7 5 -63 35l-28 -59 q-2 -5 -10 1q-9 7 -78 44q-4 2 -2 6l37 73q1 3 7 2q33 -10 66 -33z" />
<glyph unicode="&#xfc5a;" horiz-adv-x="734" arabic-form="isolated" d="M428 130h1v1q2 2 23 6q76 17 114 69q-6 52 -40 95q-35 44 -70 69q-10 7 -8 22l11 76q3 19 16 8q24 -18 55 -67q34 -55 46 -94q17 -48 12 -98q-4 -49 -29 -83q-2 -4 -4 -5q63 -9 93 -33q17 -13 19 -45q3 -65 -10 -88q-15 -24 -45 -51q-152 -132 -327 -127q-76 3 -132 43 q-55 40 -79 102q-22 61 -15 146q7 84 42 143q7 11 15 3t4 -18q-45 -92 -28 -165q38 -159 210 -159q175 0 320 148q2 2 -2 7q-35 30 -169 33q-33 -3 -34 -3q-10 0 -6 9l15 47zM707 -157q1 3 7 2q43 -14 79 -41q5 -5 2 -9l-34 -76q-2 -3 -10 2q-7 5 -63 35l-28 -59 q-2 -5 -10 1q-9 7 -78 44q-4 2 -2 6l37 73q1 3 7 2q33 -10 66 -33zM444 -303q2 3 8 2q44 -14 78 -41q5 -4 3 -9l-35 -76q-1 -3 -9 2q-4 3 -63 35l-28 -59q-2 -5 -10 1q-19 12 -78 44q-4 2 -2 6l36 73q2 3 8 2q30 -9 66 -33z" />
<glyph unicode="&#xfc5b;" horiz-adv-x="450" arabic-form="isolated" d="M113 322q7 44 18 63q7 10 23 2q145 -73 189 -197q26 -70 17 -122q-3 -15 -17 -24q-84 -48 -201 -50q-40 -1 -58.5 25t-15.5 77q1 12 10 13q6 0 16 -7q22 -16 77 -9q118 15 152 38q3 1 0 12q-36 100 -191 156q-21 7 -19 23zM-75 1162q2 15 18 -1q113 -104 113 -268 q0 -9 -9 -11q-4 -1 -6.5 2t-4.5 9q-34 107 -110 183q-9 9 -9 22zM75 645q2 3 8 2q42 -13 78 -42q5 -3 3 -8l-34 -76q-2 -5 -10 1q-19 12 -78 44q-5 4 -3 6z" />
<glyph unicode="&#xfc5c;" horiz-adv-x="399" arabic-form="isolated" d="M197 279q0 3 2 5q4 3 16 -8q46 -40 77 -107q32 -69 38 -134q3 -89 -42 -162q-45 -75 -134 -99q-22 -7 -48 1q-117 37 -156 58q-4 3 -5 6q0 3 2 7q3 3 9 1q70 -20 120 -14q51 6 106 47q83 60 114 144q2 6 -1 16q-24 52 -101 131q-4 4 -4 8zM-85 1162q2 15 18 -1 q113 -104 113 -268q0 -9 -9 -11q-4 -1 -6.5 2t-4.5 9q-34 107 -110 183q-9 9 -9 22z" />
<glyph unicode="&#xfc5d;" horiz-adv-x="764" arabic-form="isolated" d="M620 288q-67 33 -148 -19q-54 -34 -66 -100q-2 -13 7 -26q28 -48 137 -54q110 -6 120 -45q24 -78 -23 -122q-125 -116 -306 -123q-217 -9 -270 162q-24 78 5 184q18 57 46 101q8 12 15 2q7 -8 2 -18q-73 -139 -24 -226q65 -113 220 -110q189 3 291 97q8 7 -2 14 q-19 14 -116 20q-99 6 -122 50q-23 45 -16 99q18 108 109 183q44 38 84 41q91 6 80 -93q-3 -28 -23 -17zM124 532q2 15 18 -1q115 -105 113 -268q0 -9 -8 -11q-9 -1 -12 11q-34 107 -110 183q-9 9 -9 22z" />
<glyph unicode="&#xfc5e;" horiz-adv-x="292" arabic-form="isolated" d="M126 983q-2 17 5 20q2 1 6 1q15 -2 18 -21q6 -52 -5 -89q-12 -43 -48 -46q-22 -2 -48 24q-8 -23 -31 -37q-23 -13 -49 -3q-62 24 -37 140q1 10 8 13q5 2 10 -1q12 -5 11 -22q-6 -59 25 -63q5 -1 13 1q27 9 33 80q1 8 4.5 12t9.5 2q13 -3 12 -15q0 -35 17 -47q5 -4 16 -4 q33 0 30 55zM25 1240q12 3 23 -7q9 -10 12 -29q3 -21 -5 -56q16 -10 22 -12q7 -4 4 -13l-6 -20q-3 -8 -34 8q-35 -59 -67 -78q-16 -10 -22 -2q-5 7 13 21q32 26 57 70q-52 23 -42 62q14 47 45 56zM-40 1157q4 1 5 -1.5t0 -8.5l-4 -24q-2 -15 -19 -10q-16 4 -28 27 q-11 21 -11 44q3 41 32 81q67 91 105 73q13 -6 18 -23q4 -17 -4 -36q-8 -15 -23 -3q-29 24 -58 -1q-29 -24 -37 -44q-12 -26 -11 -41q1 -16 13 -25q11 -10 22 -8zM30 1187q-9 10 -22 4q-14 -6 -8 -12q10 -10 35 -22q3 19 -5 30z" />
<glyph unicode="&#xfc5f;" horiz-adv-x="292" arabic-form="isolated" d="M126 983q-2 17 5 20q2 1 6 1q15 -2 18 -21q6 -52 -5 -89q-12 -43 -48 -46q-22 -2 -48 24q-8 -23 -31 -37q-23 -13 -49 -3q-62 24 -37 140q1 10 8 13q5 2 10 -1q12 -5 11 -22q-6 -59 25 -63q5 -1 13 1q27 9 33 80q1 8 4.5 12t9.5 2q13 -3 12 -15q0 -35 17 -47q5 -4 16 -4 q33 0 30 55zM417 -461q14 11 20.5 9t4.5 -17l-5 -31q-1 -15 -13 -23l-156 -107q-18 -11 -19 9v19q2 15 12 24zM397 -361q13 9 18 7t4 -15l-2 -26q-2 -17 -17 -26l-159 -103q-14 -10 -20 -7.5t-2 17.5l5 19q5 16 12 20z" />
<glyph unicode="&#xfc60;" horiz-adv-x="292" arabic-form="isolated" d="M126 983q-2 17 5 20q2 1 6 1q15 -2 18 -21q6 -52 -5 -89q-12 -43 -48 -46q-22 -2 -48 24q-8 -23 -31 -37q-23 -13 -49 -3q-62 24 -37 140q1 10 8 13q5 2 10 -1q12 -5 11 -22q-6 -59 25 -63q5 -1 13 1q27 9 33 80q1 8 4.5 12t9.5 2q13 -3 12 -15q0 -35 17 -47q5 -4 16 -4 q33 0 30 55zM-64 1074l166 80q15 7 17 -8l2 -34q0 -11 -7 -14l-165 -61q-21 -7 -21 11v14q0 9 8 12z" />
<glyph unicode="&#xfc61;" horiz-adv-x="292" arabic-form="isolated" d="M126 983q-2 17 5 20q2 1 6 1q15 -2 18 -21q6 -52 -5 -89q-12 -43 -48 -46q-22 -2 -48 24q-8 -23 -31 -37q-23 -13 -49 -3q-62 24 -37 140q1 10 8 13q5 2 10 -1q12 -5 11 -22q-6 -59 25 -63q5 -1 13 1q27 9 33 80q1 8 4.5 12t9.5 2q13 -3 12 -15q0 -35 17 -47q5 -4 16 -4 q33 0 30 55zM17 1282q14 5 28 -9q9 -11 16 -36q6 -21 -8 -70q26 -14 28 -15q8 -5 5 -17l-8 -24q-5 -11 -41 9q-41 -69 -85 -97q-20 -11 -27 -3t15 27q43 34 73 87q-66 30 -53 78q16 58 57 70zM22 1215q-10 13 -26 5q-15 -8 -11 -14q17 -15 44 -28q4 20 -7 37z" />
<glyph unicode="&#xfc62;" horiz-adv-x="292" arabic-form="isolated" d="M126 983q-2 17 5 20q2 1 6 1q15 -2 18 -21q6 -52 -5 -89q-12 -43 -48 -46q-22 -2 -48 24q-8 -23 -31 -37q-23 -13 -49 -3q-62 24 -37 140q1 10 8 13q5 2 10 -1q12 -5 11 -22q-6 -59 25 -63q5 -1 13 1q27 9 33 80q1 8 4.5 12t9.5 2q13 -3 12 -15q0 -35 17 -47q5 -4 16 -4 q33 0 30 55zM410 -317q11 8 16 5.5t4 -15.5l-5 -32q0 -12 -17 -24l-175 -112q-16 -11 -19 9l-3 17q-2 8 14 23z" />
<glyph unicode="&#xfc63;" horiz-adv-x="292" arabic-form="isolated" d="M126 983q-2 17 5 20q2 1 6 1q15 -2 18 -21q6 -52 -5 -89q-12 -43 -48 -46q-22 -2 -48 24q-8 -23 -31 -37q-23 -13 -49 -3q-62 24 -37 140q1 10 8 13q5 2 10 -1q12 -5 11 -22q-6 -59 25 -63q5 -1 13 1q27 9 33 80q1 8 4.5 12t9.5 2q13 -3 12 -15q0 -35 17 -47q5 -4 16 -4 q33 0 30 55zM-106 1298q2 15 18 -1q115 -105 113 -268q0 -9 -9 -11q-4 -1 -7 2t-4 9q-34 107 -110 183q-9 9 -9 22z" />
<glyph unicode="&#xfc64;" horiz-adv-x="550" arabic-form="final" d="M-49 -148q-8 5 -9 9q-2 5 1 8q2 3 10 1q101 -28 171 1q120 51 159 155l1 3l1 2q-7 37 -69 100q-2 5 -2 6l11 102q1 14 29 -21l2 -2q4 -6 7 -9q12 -7 17 -7q63 -6 87 20q18 16 27 80q2 10 12 9q10 -2 13 -16q1 -3 4.5 -14.5t9 -29.5t11.5 -37q18 -65 37 -90q20 -26 53 -32 q34 -6 32 -38q-3 -52 -15 -52q-65 0 -96 60q-19 40 -30 83q-4 14 -8 29t-5.5 21.5t-1.5 7.5q-2 6 -4 -3q-16 -76 -98 -84q0 -1 1 -2.5t1 -2.5q10 -33 7 -94q-1 -63 -53 -136q-50 -72 -105 -78q-100 -11 -208 51zM414 504q-60 -12 -74 -17q-17 -6 -78 -35q-11 -6 -19 4 q-16 17 30 49q-42 19 -49 42q-16 42 16 99t80 53q30 -3 33 -34q1 -31 -9 -52q-11 -19 -23 -5q-14 18 -34 19q-20 2 -28 -12q-10 -14 5 -26q39 -31 104 -33q7 0 29 5q23 5 28 5q9 0 13 -7q5 -7 3 -11q-12 -41 -27 -44z" />
<glyph unicode="&#xfc65;" horiz-adv-x="550" arabic-form="final" d="M-49 -148q-8 5 -9 9q-2 5 1 8q2 3 10 1q101 -28 171 1q120 51 159 155l1 3l1 2q-7 37 -69 100q-2 5 -2 6l11 102q1 14 29 -21l2 -2q4 -6 7 -9q12 -7 17 -7q63 -6 87 20q18 16 27 80q2 10 12 9q10 -2 13 -16q1 -3 4.5 -14.5t9 -29.5t11.5 -37q18 -65 37 -90q20 -26 53 -32 q34 -6 32 -38q-3 -52 -15 -52q-65 0 -96 60q-19 40 -30 83q-4 14 -8 29t-5.5 21.5t-1.5 7.5q-2 6 -4 -3q-16 -76 -98 -84q0 -1 1 -2.5t1 -2.5q10 -33 7 -94q-1 -63 -53 -136q-50 -72 -105 -78q-100 -11 -208 51zM414 504q-60 -12 -74 -17q-17 -6 -78 -35q-11 -6 -19 4 q-16 17 30 49q-42 19 -49 42q-16 42 16 99t80 53q30 -3 33 -34q1 -31 -9 -52q-11 -19 -23 -5q-14 18 -34 19q-20 2 -28 -12q-10 -14 5 -26q39 -31 104 -33q7 0 29 5q23 5 28 5q9 0 13 -7q5 -7 3 -11q-12 -41 -27 -44zM66 517q1 3 7 2q44 -14 79 -42q4 -4 2 -8l-33 -76 q-3 -5 -10 1q-13 9 -78 44q-6 3 -3 6z" />
<glyph unicode="&#xfc66;" horiz-adv-x="561" arabic-form="final" d="M174 6q7 43 16 63q-2 5 1 7q4 10 39 34q106 78 175 78q35 0 92 -63q31 -32 48 -35q58 -10 35 -78q-4 -12 -19 -12q-51 0 -100 64q-41 54 -107 43q-56 -10 -94 -38q2 -1 7 -2.5t8 -2.5q68 -23 137 -68q19 -13 16 -36q-5 -39 -9 -51q-2 -9 -6 -13.5t-10 -3.5 q-110 14 -188 -9q-46 -13 -67 -38q0 -9 20 -66l47 -142q29 -85 38 -121q21 -84 13 -137q-2 -12 -12 -11q-12 1 -14 27q-7 68 -93 299q-30 88 -23 146q8 61 29 89q20 28 60 49q-1 1 -13 4q-15 5 -19 7q-10 4 -7 17zM404 407q-60 -12 -74 -17q-17 -6 -78 -35q-11 -6 -19 4 q-15 18 30 49q-42 19 -49 42q-16 42 16 99t80 53q30 -3 33 -34t-9 -52q-11 -19 -23 -5q-14 18 -33 19q-21 2 -29 -12q-10 -14 5 -26q39 -31 104 -33q7 0 29 5q23 5 28 5q9 0 14 -7q4 -8 2 -11q-12 -41 -27 -44z" />
<glyph unicode="&#xfc67;" horiz-adv-x="761" arabic-form="final" d="M495 235q4 -5 12 -17q1 0 3 -0.5t3 -0.5q79 -14 103 73q3 14 13 12t13 -15q37 -133 56 -162q20 -31 47 -35t30 -48q2 -44 -14 -42q-44 6 -70 41q-25 34 -67 161q-2 6 -4 1q-21 -60 -77 -68h-4q2 -5 4 -15q17 -82 6 -147q-12 -69 -74 -120t-174 -54q-168 -5 -221 103 q-32 69 -23 139q7 72 36 135q3 6 8 6q6 0 9 -5q2 -6 1 -12q-49 -131 -8 -193q56 -88 187 -80q94 6 158 41q61 33 76 76l2 15q0 8 -21 66q-19 54 -45 87q-3 3 -3 13l6 63q2 7 4 7q1 1 4 -1q7 -5 24 -24zM621 448q-60 -12 -74 -17q-17 -6 -78 -35q-11 -5 -20 4q-14 17 31 49 q-41 18 -50 42q-14 43 17 99q32 57 80 53q30 -3 33 -34q1 -31 -9 -52q-11 -19 -23 -5q-14 17 -34 19t-29 -12q-8 -15 6 -26q39 -31 104 -33q6 0 29 5q22 5 28 5q10 0 13 -7q5 -7 3 -11q-12 -41 -27 -44zM211 476q2 3 8 2q43 -14 78 -42q5 -3 3 -8l-34 -76q-3 -5 -10 1 q-13 9 -78 44q-5 4 -3 6z" />
<glyph unicode="&#xfc68;" horiz-adv-x="729" arabic-form="final" d="M453 -95q-41 11 -49 38q0 1 -0.5 2.5t-0.5 2.5q-10 40 15 97q26 59 71 101q46 42 82 44q23 1 60 -46q34 -46 83 -54q32 -6 29 -34q-3 -58 -13 -56q-28 1 -56 14q-29 12 -61 50q-34 39 -56 40q-23 1 -69 -27q-38 -23 -46 -41v-6q-4 -27 33 -47q35 -19 83 -25 q104 -12 129 -21q26 -9 40 -32q12 -20 14 -49q1 -25 -8 -44q-18 -35 -111 -83q-94 -48 -214 -61q-214 -24 -296 123q-28 52 -28 140q2 89 43 178q3 6 10 6t11 -6q3 -6 -6 -29q-41 -105 -18 -179q32 -96 157 -134q45 -12 97 -8q158 13 309 97q1 0 1 0.5t1 0.5q0 2 -6 8 q-7 6 -89 15t-141 25zM522 407q-60 -12 -74 -17q-17 -6 -78 -35q-11 -6 -19 4q-15 18 30 49q-42 19 -49 42q-16 42 16 99t80 53q30 -3 33 -34t-9 -52q-11 -19 -23 -5q-14 18 -33 19q-21 2 -29 -12q-10 -14 5 -26q39 -31 104 -33q7 0 29 5q23 5 28 5q9 0 14 -7q4 -8 2 -11 q-12 -41 -27 -44z" />
<glyph unicode="&#xfc69;" horiz-adv-x="729" arabic-form="final" d="M453 -95q-41 11 -49 38q0 1 -0.5 2.5t-0.5 2.5q-10 40 15 97q26 59 71 101q46 42 82 44q23 1 60 -46q34 -46 83 -54q32 -6 29 -34q-3 -58 -13 -56q-28 1 -56 14q-29 12 -61 50q-34 39 -56 40q-23 1 -69 -27q-38 -23 -46 -41v-6q-4 -27 33 -47q35 -19 83 -25 q104 -12 129 -21q26 -9 40 -32q12 -20 14 -49q1 -25 -8 -44q-18 -35 -111 -83q-94 -48 -214 -61q-214 -24 -296 123q-28 52 -28 140q2 89 43 178q3 6 10 6t11 -6q3 -6 -6 -29q-41 -105 -18 -179q32 -96 157 -134q45 -12 97 -8q158 13 309 97q1 0 1 0.5t1 0.5q0 2 -6 8 q-7 6 -89 15t-141 25zM522 407q-60 -12 -74 -17q-17 -6 -78 -35q-11 -6 -19 4q-15 18 30 49q-42 19 -49 42q-16 42 16 99t80 53q30 -3 33 -34t-9 -52q-11 -19 -23 -5q-14 18 -33 19q-21 2 -29 -12q-10 -14 5 -26q39 -31 104 -33q7 0 29 5q23 5 28 5q9 0 14 -7q4 -8 2 -11 q-12 -41 -27 -44zM479 -426q2 3 8 2q45 -15 78 -41q5 -4 3 -9l-35 -76q-1 -4 -9 2q-5 4 -64 35l-27 -59q-3 -5 -10 1q-13 9 -78 44q-5 3 -2 6l36 73q1 3 8 2q32 -10 65 -33z" />
<glyph unicode="&#xfc6a;" horiz-adv-x="550" arabic-form="final" d="M-49 -148q-8 5 -9 9q-2 5 1 8q2 3 10 1q101 -28 171 1q120 51 159 155l1 3l1 2q-7 37 -69 100q-2 5 -2 6l11 102q1 14 29 -21l2 -2q4 -6 7 -9q12 -7 17 -7q63 -6 87 20q18 16 27 80q2 10 12 9q10 -2 13 -16q1 -3 4.5 -14.5t9 -29.5t11.5 -37q18 -65 37 -90q20 -26 53 -32 q34 -6 32 -38q-3 -52 -15 -52q-65 0 -96 60q-19 40 -30 83q-4 14 -8 29t-5.5 21.5t-1.5 7.5q-2 6 -4 -3q-16 -76 -98 -84q0 -1 1 -2.5t1 -2.5q10 -33 7 -94q-1 -63 -53 -136q-50 -72 -105 -78q-100 -11 -208 51zM430 -127q2 3 8 2q42 -13 78 -42q5 -3 3 -8l-34 -76 q-2 -5 -10 1q-19 12 -78 44q-5 3 -3 6z" />
<glyph unicode="&#xfc6b;" horiz-adv-x="550" arabic-form="final" d="M-49 -148q-8 5 -9 9q-2 5 1 8q2 3 10 1q101 -28 171 1q120 51 159 155l1 3l1 2q-7 37 -69 100q-2 5 -2 6l11 102q1 14 29 -21l2 -2q4 -6 7 -9q12 -7 17 -7q63 -6 87 20q18 16 27 80q2 10 12 9q10 -2 13 -16q1 -3 4.5 -14.5t9 -29.5t11.5 -37q18 -65 37 -90q20 -26 53 -32 q34 -6 32 -38q-3 -52 -15 -52q-65 0 -96 60q-19 40 -30 83q-4 14 -8 29t-5.5 21.5t-1.5 7.5q-2 6 -4 -3q-16 -76 -98 -84q0 -1 1 -2.5t1 -2.5q10 -33 7 -94q-1 -63 -53 -136q-50 -72 -105 -78q-100 -11 -208 51zM430 -127q2 3 8 2q42 -13 78 -42q5 -3 3 -8l-34 -76 q-2 -5 -10 1q-19 12 -78 44q-5 3 -3 6zM66 517q1 3 7 2q44 -14 79 -42q4 -4 2 -8l-33 -76q-3 -5 -10 1q-13 9 -78 44q-6 3 -3 6z" />
<glyph unicode="&#xfc6c;" horiz-adv-x="561" arabic-form="final" d="M174 6q7 43 16 63q-2 5 1 7q4 10 39 34q106 78 175 78q35 0 92 -63q31 -32 48 -35q58 -10 35 -78q-4 -12 -19 -12q-51 0 -100 64q-41 54 -107 43q-56 -10 -94 -38q2 -1 7 -2.5t8 -2.5q68 -23 137 -68q19 -13 16 -36q-5 -39 -9 -51q-2 -9 -6 -13.5t-10 -3.5 q-110 14 -188 -9q-46 -13 -67 -38q0 -9 20 -66l47 -142q29 -85 38 -121q21 -84 13 -137q-2 -12 -12 -11q-12 1 -14 27q-7 68 -93 299q-30 88 -23 146q8 61 29 89q20 28 60 49q-1 1 -13 4q-15 5 -19 7q-10 4 -7 17zM465 -225q1 3 7 2q41 -13 79 -42q4 -4 2 -8l-33 -76 q-3 -4 -11 1q-8 7 -77 44q-6 3 -3 6z" />
<glyph unicode="&#xfc6d;" horiz-adv-x="761" arabic-form="final" d="M495 235q4 -5 12 -17q1 0 3 -0.5t3 -0.5q79 -14 103 73q3 14 13 12t13 -15q37 -133 56 -162q20 -31 47 -35t30 -48q2 -44 -14 -42q-44 6 -70 41q-25 34 -67 161q-2 6 -4 1q-21 -60 -77 -68h-4q2 -5 4 -15q17 -82 6 -147q-12 -69 -74 -120t-174 -54q-168 -5 -221 103 q-32 69 -23 139q7 72 36 135q3 6 8 6q6 0 9 -5q2 -6 1 -12q-49 -131 -8 -193q56 -88 187 -80q94 6 158 41q61 33 76 76l2 15q0 8 -21 66q-19 54 -45 87q-3 3 -3 13l6 63q2 7 4 7q1 1 4 -1q7 -5 24 -24zM627 -127q2 3 8 2q42 -13 78 -42q5 -3 3 -8l-34 -76q-2 -5 -10 1 q-19 12 -78 44q-4 3 -3 6zM211 476q2 3 8 2q43 -14 78 -42q5 -3 3 -8l-34 -76q-3 -5 -10 1q-13 9 -78 44q-5 4 -3 6z" />
<glyph unicode="&#xfc6e;" horiz-adv-x="729" arabic-form="final" d="M453 -95q-41 11 -49 38q0 1 -0.5 2.5t-0.5 2.5q-10 40 15 97q26 59 71 101q46 42 82 44q23 1 60 -46q34 -46 83 -54q32 -6 29 -34q-3 -58 -13 -56q-28 1 -56 14q-29 12 -61 50q-34 39 -56 40q-23 1 -69 -27q-38 -23 -46 -41v-6q-4 -27 33 -47q35 -19 83 -25 q104 -12 129 -21q26 -9 40 -32q12 -20 14 -49q1 -25 -8 -44q-18 -35 -111 -83q-94 -48 -214 -61q-214 -24 -296 123q-28 52 -28 140q2 89 43 178q3 6 10 6t11 -6q3 -6 -6 -29q-41 -105 -18 -179q32 -96 157 -134q45 -12 97 -8q158 13 309 97q1 0 1 0.5t1 0.5q0 2 -6 8 q-7 6 -89 15t-141 25zM660 -332q1 3 7 2q41 -13 79 -42q4 -4 2 -8l-34 -76q-2 -5 -10 1q-9 7 -78 44q-4 3 -3 6z" />
<glyph unicode="&#xfc6f;" horiz-adv-x="729" arabic-form="final" d="M453 -95q-41 11 -49 38q0 1 -0.5 2.5t-0.5 2.5q-10 40 15 97q26 59 71 101q46 42 82 44q23 1 60 -46q34 -46 83 -54q32 -6 29 -34q-3 -58 -13 -56q-28 1 -56 14q-29 12 -61 50q-34 39 -56 40q-23 1 -69 -27q-38 -23 -46 -41v-6q-4 -27 33 -47q35 -19 83 -25 q104 -12 129 -21q26 -9 40 -32q12 -20 14 -49q1 -25 -8 -44q-18 -35 -111 -83q-94 -48 -214 -61q-214 -24 -296 123q-28 52 -28 140q2 89 43 178q3 6 10 6t11 -6q3 -6 -6 -29q-41 -105 -18 -179q32 -96 157 -134q45 -12 97 -8q158 13 309 97q1 0 1 0.5t1 0.5q0 2 -6 8 q-7 6 -89 15t-141 25zM479 -426q2 3 8 2q45 -15 78 -41q5 -4 3 -9l-35 -76q-1 -4 -9 2q-5 4 -64 35l-27 -59q-3 -5 -10 1q-13 9 -78 44q-5 3 -2 6l36 73q1 3 8 2q32 -10 65 -33zM660 -332q1 3 7 2q41 -13 79 -42q4 -4 2 -8l-34 -76q-2 -5 -10 1q-9 7 -78 44q-4 3 -3 6z" />
<glyph unicode="&#xfc70;" horiz-adv-x="550" arabic-form="final" d="M-49 -148q-8 5 -9 9q-2 5 1 8q2 3 10 1q101 -28 171 1q120 51 159 155l1 3l1 2q-7 37 -69 100q-2 5 -2 6l11 102q1 14 29 -21l2 -2q4 -6 7 -9q12 -7 17 -7q63 -6 87 20q18 16 27 80q2 10 12 9q10 -2 13 -16q1 -3 4.5 -14.5t9 -29.5t11.5 -37q18 -65 37 -90q20 -26 53 -32 q34 -6 32 -38q-3 -52 -15 -52q-65 0 -96 60q-19 40 -30 83q-4 14 -8 29t-5.5 21.5t-1.5 7.5q-2 6 -4 -3q-16 -76 -98 -84q0 -1 1 -2.5t1 -2.5q10 -33 7 -94q-1 -63 -53 -136q-50 -72 -105 -78q-100 -11 -208 51zM368 569q1 3 7 2q43 -14 79 -41q5 -5 2 -9l-34 -76 q-2 -3 -10 2q-7 5 -63 35l-28 -59q-2 -5 -10 1q-9 7 -78 44q-4 2 -2 6l37 73q1 3 7 2q33 -10 66 -33z" />
<glyph unicode="&#xfc71;" horiz-adv-x="550" arabic-form="final" d="M-49 -148q-8 5 -9 9q-2 5 1 8q2 3 10 1q101 -28 171 1q120 51 159 155l1 3l1 2q-7 37 -69 100q-2 5 -2 6l11 102q1 14 29 -21l2 -2q4 -6 7 -9q12 -7 17 -7q63 -6 87 20q18 16 27 80q2 10 12 9q10 -2 13 -16q1 -3 4.5 -14.5t9 -29.5t11.5 -37q18 -65 37 -90q20 -26 53 -32 q34 -6 32 -38q-3 -52 -15 -52q-65 0 -96 60q-19 40 -30 83q-4 14 -8 29t-5.5 21.5t-1.5 7.5q-2 6 -4 -3q-16 -76 -98 -84q0 -1 1 -2.5t1 -2.5q10 -33 7 -94q-1 -63 -53 -136q-50 -72 -105 -78q-100 -11 -208 51zM368 569q1 3 7 2q43 -14 79 -41q5 -5 2 -9l-34 -76 q-2 -3 -10 2q-7 5 -63 35l-28 -59q-2 -5 -10 1q-9 7 -78 44q-4 2 -2 6l37 73q1 3 7 2q33 -10 66 -33zM66 517q1 3 7 2q44 -14 79 -42q4 -4 2 -8l-33 -76q-3 -5 -10 1q-13 9 -78 44q-6 3 -3 6z" />
<glyph unicode="&#xfc72;" horiz-adv-x="561" arabic-form="final" d="M174 6q7 43 16 63q-2 5 1 7q4 10 39 34q106 78 175 78q35 0 92 -63q31 -32 48 -35q58 -10 35 -78q-4 -12 -19 -12q-51 0 -100 64q-41 54 -107 43q-56 -10 -94 -38q2 -1 7 -2.5t8 -2.5q68 -23 137 -68q19 -13 16 -36q-5 -39 -9 -51q-2 -9 -6 -13.5t-10 -3.5 q-110 14 -188 -9q-46 -13 -67 -38q0 -9 20 -66l47 -142q29 -85 38 -121q21 -84 13 -137q-2 -12 -12 -11q-12 1 -14 27q-7 68 -93 299q-30 88 -23 146q8 61 29 89q20 28 60 49q-1 1 -13 4q-15 5 -19 7q-10 4 -7 17zM353 471q1 3 8 2q43 -14 78 -41q5 -5 2 -9l-34 -76 q-2 -3 -10 2q-4 4 -63 35l-27 -59q-3 -5 -10 1q-13 9 -78 44q-5 3 -2 6l36 73q1 3 7 2q32 -9 66 -33z" />
<glyph unicode="&#xfc73;" horiz-adv-x="761" arabic-form="final" d="M495 235q4 -5 12 -17q1 0 3 -0.5t3 -0.5q79 -14 103 73q3 14 13 12t13 -15q37 -133 56 -162q20 -31 47 -35t30 -48q2 -44 -14 -42q-44 6 -70 41q-25 34 -67 161q-2 6 -4 1q-21 -60 -77 -68h-4q2 -5 4 -15q17 -82 6 -147q-12 -69 -74 -120t-174 -54q-168 -5 -221 103 q-32 69 -23 139q7 72 36 135q3 6 8 6q6 0 9 -5q2 -6 1 -12q-49 -131 -8 -193q56 -88 187 -80q94 6 158 41q61 33 76 76l2 15q0 8 -21 66q-19 54 -45 87q-3 3 -3 13l6 63q2 7 4 7q1 1 4 -1q7 -5 24 -24zM570 512q1 3 7 2q43 -14 79 -41q5 -5 2 -9l-34 -76q-2 -3 -10 2 q-4 4 -63 35l-28 -59q-2 -5 -10 1q-8 7 -77 44q-5 2 -3 6l37 73q1 3 7 2q33 -10 66 -33zM211 476q2 3 8 2q43 -14 78 -42q5 -3 3 -8l-34 -76q-3 -5 -10 1q-13 9 -78 44q-5 4 -3 6z" />
<glyph unicode="&#xfc74;" horiz-adv-x="729" arabic-form="final" d="M453 -95q-41 11 -49 38q0 1 -0.5 2.5t-0.5 2.5q-10 40 15 97q26 59 71 101q46 42 82 44q23 1 60 -46q34 -46 83 -54q32 -6 29 -34q-3 -58 -13 -56q-28 1 -56 14q-29 12 -61 50q-34 39 -56 40q-23 1 -69 -27q-38 -23 -46 -41v-6q-4 -27 33 -47q35 -19 83 -25 q104 -12 129 -21q26 -9 40 -32q12 -20 14 -49q1 -25 -8 -44q-18 -35 -111 -83q-94 -48 -214 -61q-214 -24 -296 123q-28 52 -28 140q2 89 43 178q3 6 10 6t11 -6q3 -6 -6 -29q-41 -105 -18 -179q32 -96 157 -134q45 -12 97 -8q158 13 309 97q1 0 1 0.5t1 0.5q0 2 -6 8 q-7 6 -89 15t-141 25zM476 471q1 3 8 2q43 -14 78 -41q5 -5 2 -9l-34 -76q-2 -3 -10 2q-4 4 -63 35l-27 -59q-3 -5 -10 1q-13 9 -78 44q-5 3 -2 6l36 73q1 3 7 2q32 -9 66 -33z" />
<glyph unicode="&#xfc75;" horiz-adv-x="729" arabic-form="final" d="M453 -95q-41 11 -49 38q0 1 -0.5 2.5t-0.5 2.5q-10 40 15 97q26 59 71 101q46 42 82 44q23 1 60 -46q34 -46 83 -54q32 -6 29 -34q-3 -58 -13 -56q-28 1 -56 14q-29 12 -61 50q-34 39 -56 40q-23 1 -69 -27q-38 -23 -46 -41v-6q-4 -27 33 -47q35 -19 83 -25 q104 -12 129 -21q26 -9 40 -32q12 -20 14 -49q1 -25 -8 -44q-18 -35 -111 -83q-94 -48 -214 -61q-214 -24 -296 123q-28 52 -28 140q2 89 43 178q3 6 10 6t11 -6q3 -6 -6 -29q-41 -105 -18 -179q32 -96 157 -134q45 -12 97 -8q158 13 309 97q1 0 1 0.5t1 0.5q0 2 -6 8 q-7 6 -89 15t-141 25zM479 -426q2 3 8 2q45 -15 78 -41q5 -4 3 -9l-35 -76q-1 -4 -9 2q-5 4 -64 35l-27 -59q-3 -5 -10 1q-13 9 -78 44q-5 3 -2 6l36 73q1 3 8 2q32 -10 65 -33zM476 471q1 3 8 2q43 -14 78 -41q5 -5 2 -9l-34 -76q-2 -3 -10 2q-4 4 -63 35l-27 -59 q-3 -5 -10 1q-13 9 -78 44q-5 3 -2 6l36 73q1 3 7 2q32 -9 66 -33z" />
<glyph unicode="&#xfc76;" horiz-adv-x="550" arabic-form="final" d="M-49 -148q-8 5 -9 9q-2 5 1 8q2 3 10 1q101 -28 171 1q120 51 159 155l1 3l1 2q-7 37 -69 100q-2 5 -2 6l11 102q1 14 29 -21l2 -2q4 -6 7 -9q12 -7 17 -7q63 -6 87 20q18 16 27 80q2 10 12 9q10 -2 13 -16q1 -3 4.5 -14.5t9 -29.5t11.5 -37q18 -65 37 -90q20 -26 53 -32 q34 -6 32 -38q-3 -52 -15 -52q-65 0 -96 60q-19 40 -30 83q-4 14 -8 29t-5.5 21.5t-1.5 7.5q-2 6 -4 -3q-16 -76 -98 -84q0 -1 1 -2.5t1 -2.5q10 -33 7 -94q-1 -63 -53 -136q-50 -72 -105 -78q-100 -11 -208 51zM364 569q1 3 7 2q43 -14 79 -41q5 -5 2 -9l-34 -76 q-2 -3 -10 2l-55 31l-25 -56q-2 -4 -11 2q-9 7 -78 44q-4 2 -2 6l37 72q1 3 7 2q35 -12 58 -27zM276 673q2 3 8 2q44 -14 78 -41q6 -4 4 -9l-35 -76q-1 -4 -10 2q-13 9 -78 44q-5 4 -3 6z" />
<glyph unicode="&#xfc77;" horiz-adv-x="550" arabic-form="final" d="M-49 -148q-8 5 -9 9q-2 5 1 8q2 3 10 1q101 -28 171 1q120 51 159 155l1 3l1 2q-7 37 -69 100q-2 5 -2 6l11 102q1 14 29 -21l2 -2q4 -6 7 -9q12 -7 17 -7q63 -6 87 20q18 16 27 80q2 10 12 9q10 -2 13 -16q1 -3 4.5 -14.5t9 -29.5t11.5 -37q18 -65 37 -90q20 -26 53 -32 q34 -6 32 -38q-3 -52 -15 -52q-65 0 -96 60q-19 40 -30 83q-4 14 -8 29t-5.5 21.5t-1.5 7.5q-2 6 -4 -3q-16 -76 -98 -84q0 -1 1 -2.5t1 -2.5q10 -33 7 -94q-1 -63 -53 -136q-50 -72 -105 -78q-100 -11 -208 51zM364 569q1 3 7 2q43 -14 79 -41q5 -5 2 -9l-34 -76 q-2 -3 -10 2l-55 31l-25 -56q-2 -4 -11 2q-9 7 -78 44q-4 2 -2 6l37 72q1 3 7 2q35 -12 58 -27zM276 673q2 3 8 2q44 -14 78 -41q6 -4 4 -9l-35 -76q-1 -4 -10 2q-13 9 -78 44q-5 4 -3 6zM66 517q1 3 7 2q44 -14 79 -42q4 -4 2 -8l-33 -76q-3 -5 -10 1q-13 9 -78 44 q-6 3 -3 6z" />
<glyph unicode="&#xfc78;" horiz-adv-x="561" arabic-form="final" d="M174 6q7 43 16 63q-2 5 1 7q4 10 39 34q106 78 175 78q35 0 92 -63q31 -32 48 -35q58 -10 35 -78q-4 -12 -19 -12q-51 0 -100 64q-41 54 -107 43q-56 -10 -94 -38q2 -1 7 -2.5t8 -2.5q68 -23 137 -68q19 -13 16 -36q-5 -39 -9 -51q-2 -9 -6 -13.5t-10 -3.5 q-110 14 -188 -9q-46 -13 -67 -38q0 -9 20 -66l47 -142q29 -85 38 -121q21 -84 13 -137q-2 -12 -12 -11q-12 1 -14 27q-7 68 -93 299q-30 88 -23 146q8 61 29 89q20 28 60 49q-1 1 -13 4q-15 5 -19 7q-10 4 -7 17zM349 471q1 3 8 2q43 -14 78 -41q5 -5 2 -9l-34 -76 q-2 -3 -10 2l-55 31l-25 -56q-3 -4 -10 2q-13 9 -78 44q-5 3 -2 6l36 72q1 3 8 2q35 -12 57 -27zM262 575q1 3 7 2q44 -14 78 -41q7 -5 4 -9l-35 -76q-1 -4 -10 2q-19 12 -78 44q-4 3 -3 6z" />
<glyph unicode="&#xfc79;" horiz-adv-x="761" arabic-form="final" d="M495 235q4 -5 12 -17q1 0 3 -0.5t3 -0.5q79 -14 103 73q3 14 13 12t13 -15q37 -133 56 -162q20 -31 47 -35t30 -48q2 -44 -14 -42q-44 6 -70 41q-25 34 -67 161q-2 6 -4 1q-21 -60 -77 -68h-4q2 -5 4 -15q17 -82 6 -147q-12 -69 -74 -120t-174 -54q-168 -5 -221 103 q-32 69 -23 139q7 72 36 135q3 6 8 6q6 0 9 -5q2 -6 1 -12q-49 -131 -8 -193q56 -88 187 -80q94 6 158 41q61 33 76 76l2 15q0 8 -21 66q-19 54 -45 87q-3 3 -3 13l6 63q2 7 4 7q1 1 4 -1q7 -5 24 -24zM566 512q1 3 7 2q43 -14 79 -41q5 -5 2 -9l-34 -76q-2 -3 -10 2l-55 31 l-25 -56q-2 -4 -11 2q-8 7 -77 44q-5 2 -3 6l37 72q1 3 7 2q35 -12 58 -27zM478 616q2 3 8 2q44 -14 78 -41q6 -4 4 -9l-35 -76q-1 -4 -10 2q-19 12 -78 44q-5 4 -3 6zM211 476q2 3 8 2q43 -14 78 -42q5 -3 3 -8l-34 -76q-3 -5 -10 1q-13 9 -78 44q-5 4 -3 6z" />
<glyph unicode="&#xfc7a;" horiz-adv-x="729" arabic-form="final" d="M453 -95q-41 11 -49 38q0 1 -0.5 2.5t-0.5 2.5q-10 40 15 97q26 59 71 101q46 42 82 44q23 1 60 -46q34 -46 83 -54q32 -6 29 -34q-3 -58 -13 -56q-28 1 -56 14q-29 12 -61 50q-34 39 -56 40q-23 1 -69 -27q-38 -23 -46 -41v-6q-4 -27 33 -47q35 -19 83 -25 q104 -12 129 -21q26 -9 40 -32q12 -20 14 -49q1 -25 -8 -44q-18 -35 -111 -83q-94 -48 -214 -61q-214 -24 -296 123q-28 52 -28 140q2 89 43 178q3 6 10 6t11 -6q3 -6 -6 -29q-41 -105 -18 -179q32 -96 157 -134q45 -12 97 -8q158 13 309 97q1 0 1 0.5t1 0.5q0 2 -6 8 q-7 6 -89 15t-141 25zM472 471q1 3 8 2q43 -14 78 -41q5 -5 2 -9l-34 -76q-2 -3 -10 2l-55 31l-25 -56q-3 -4 -10 2q-13 9 -78 44q-5 3 -2 6l36 72q1 3 8 2q35 -12 57 -27zM385 575q1 3 7 2q44 -14 78 -41q7 -5 4 -9l-35 -76q-1 -4 -10 2q-19 12 -78 44q-5 3 -3 6z" />
<glyph unicode="&#xfc7b;" horiz-adv-x="729" arabic-form="final" d="M453 -95q-41 11 -49 38q0 1 -0.5 2.5t-0.5 2.5q-10 40 15 97q26 59 71 101q46 42 82 44q23 1 60 -46q34 -46 83 -54q32 -6 29 -34q-3 -58 -13 -56q-28 1 -56 14q-29 12 -61 50q-34 39 -56 40q-23 1 -69 -27q-38 -23 -46 -41v-6q-4 -27 33 -47q35 -19 83 -25 q104 -12 129 -21q26 -9 40 -32q12 -20 14 -49q1 -25 -8 -44q-18 -35 -111 -83q-94 -48 -214 -61q-214 -24 -296 123q-28 52 -28 140q2 89 43 178q3 6 10 6t11 -6q3 -6 -6 -29q-41 -105 -18 -179q32 -96 157 -134q45 -12 97 -8q158 13 309 97q1 0 1 0.5t1 0.5q0 2 -6 8 q-7 6 -89 15t-141 25zM479 -426q2 3 8 2q45 -15 78 -41q5 -4 3 -9l-35 -76q-1 -4 -9 2q-5 4 -64 35l-27 -59q-3 -5 -10 1q-13 9 -78 44q-5 3 -2 6l36 73q1 3 8 2q32 -10 65 -33zM472 471q1 3 8 2q43 -14 78 -41q5 -5 2 -9l-34 -76q-2 -3 -10 2l-55 31l-25 -56q-3 -4 -10 2 q-13 9 -78 44q-5 3 -2 6l36 72q1 3 8 2q35 -12 57 -27zM385 575q1 3 7 2q44 -14 78 -41q7 -5 4 -9l-35 -76q-1 -4 -10 2q-19 12 -78 44q-5 3 -3 6z" />
<glyph unicode="&#xfc7c;" horiz-adv-x="902" arabic-form="final" d="M605 211q17 84 86 144q29 24 49 24q2 0 10 -2q25 -15 40 -55q27 -77 8 -143q-10 -34 -24 -64q47 -26 112 -25q11 0 17 -25q17 -65 -1 -65q-97 0 -214 57q-95 -47 -154 -95q30 -2 47 -4q65 -7 97 -33q17 -13 19 -45q3 -65 -10 -88q-15 -24 -45 -51q-152 -132 -327 -127 q-76 3 -132 43q-55 40 -79 102q-22 61 -15 146t43 143q6 11 14 3t4 -18q-45 -92 -28 -165q37 -159 210 -159q175 0 320 148q2 3 -2 7q-37 33 -200 34q-3 0 -5 2q-1 2 0 6l9 37l5 20q59 76 171 138q-38 46 -25 110zM714 273q-50 5 -78 -51q-10 -15 18 -44q27 -30 57 -30 q28 0 59 39q-10 75 -56 86zM631 645q2 3 8 2q42 -13 78 -42q5 -3 3 -8l-34 -76q-2 -5 -10 1q-19 12 -78 44q-5 4 -3 6z" />
<glyph unicode="&#xfc7d;" horiz-adv-x="902" arabic-form="final" d="M605 211q17 84 86 144q29 24 49 24q2 0 10 -2q25 -15 40 -55q27 -77 8 -143q-10 -34 -24 -64q47 -26 112 -25q11 0 17 -25q17 -65 -1 -65q-97 0 -214 57q-95 -47 -154 -95q30 -2 47 -4q65 -7 97 -33q17 -13 19 -45q3 -65 -10 -88q-15 -24 -45 -51q-152 -132 -327 -127 q-76 3 -132 43q-55 40 -79 102q-22 61 -15 146t43 143q6 11 14 3t4 -18q-45 -92 -28 -165q37 -159 210 -159q175 0 320 148q2 3 -2 7q-37 33 -200 34q-3 0 -5 2q-1 2 0 6l9 37l5 20q59 76 171 138q-38 46 -25 110zM475 -474q1 3 7 2q44 -14 78 -41q6 -5 3 -9l-35 -76 q-1 -3 -9 2q-4 3 -63 35l-28 -59q-2 -5 -10 1q-19 12 -78 44q-4 3 -2 6l36 73q2 3 8 2q30 -9 66 -33zM714 273q-50 5 -78 -51q-10 -15 18 -44q27 -30 57 -30q28 0 59 39q-10 75 -56 86zM631 645q2 3 8 2q42 -13 78 -42q5 -3 3 -8l-34 -76q-2 -5 -10 1q-19 12 -78 44 q-5 4 -3 6z" />
<glyph unicode="&#xfc7e;" horiz-adv-x="902" arabic-form="final" d="M605 211q17 84 86 144q29 24 49 24q2 0 10 -2q25 -15 40 -55q27 -77 8 -143q-10 -34 -24 -64q47 -26 112 -25q11 0 17 -25q17 -65 -1 -65q-97 0 -214 57q-95 -47 -154 -95q30 -2 47 -4q65 -7 97 -33q17 -13 19 -45q3 -65 -10 -88q-15 -24 -45 -51q-152 -132 -327 -127 q-76 3 -132 43q-55 40 -79 102q-22 61 -15 146t43 143q6 11 14 3t4 -18q-45 -92 -28 -165q37 -159 210 -159q175 0 320 148q2 3 -2 7q-37 33 -200 34q-3 0 -5 2q-1 2 0 6l9 37l5 20q59 76 171 138q-38 46 -25 110zM641 667q2 3 8 2q44 -14 78 -41q5 -4 3 -9l-35 -76 q-1 -3 -9 2q-4 3 -63 35l-28 -59q-2 -5 -10 1q-19 12 -78 44q-5 3 -2 6l36 73q2 3 8 2q30 -9 66 -33zM714 273q-50 5 -78 -51q-10 -15 18 -44q27 -30 57 -30q28 0 59 39q-10 75 -56 86z" />
<glyph unicode="&#xfc7f;" horiz-adv-x="902" arabic-form="final" d="M605 211q17 84 86 144q29 24 49 24q2 0 10 -2q25 -15 40 -55q27 -77 8 -143q-10 -34 -24 -64q47 -26 112 -25q11 0 17 -25q17 -65 -1 -65q-97 0 -214 57q-95 -47 -154 -95q30 -2 47 -4q65 -7 97 -33q17 -13 19 -45q3 -65 -10 -88q-15 -24 -45 -51q-152 -132 -327 -127 q-76 3 -132 43q-55 40 -79 102q-22 61 -15 146t43 143q6 11 14 3t4 -18q-45 -92 -28 -165q37 -159 210 -159q175 0 320 148q2 3 -2 7q-37 33 -200 34q-3 0 -5 2q-1 2 0 6l9 37l5 20q59 76 171 138q-38 46 -25 110zM641 667q2 3 8 2q44 -14 78 -41q5 -4 3 -9l-35 -76 q-1 -3 -9 2q-4 3 -63 35l-28 -59q-2 -5 -10 1q-19 12 -78 44q-5 3 -2 6l36 73q2 3 8 2q30 -9 66 -33zM475 -474q1 3 7 2q44 -14 78 -41q6 -5 3 -9l-35 -76q-1 -3 -9 2q-4 3 -63 35l-28 -59q-2 -5 -10 1q-19 12 -78 44q-4 3 -2 6l36 73q2 3 8 2q30 -9 66 -33zM714 273 q-50 5 -78 -51q-10 -15 18 -44q27 -30 57 -30q28 0 59 39q-10 75 -56 86z" />
<glyph unicode="&#xfc80;" horiz-adv-x="717" arabic-form="final" d="M171 94h2q119 -23 193 56q-55 124 -304 198q-15 4 -21 39q-6 33 -4 48q20 104 205 222q143 91 288 154q13 5 19 1.5t5 -17.5l-3 -63q0 -14 -13 -19q-108 -42 -264 -137q-162 -100 -196 -143q168 -58 321 -162q90 -61 113 -79q123 -94 189 -102q37 -4 28 -71 q-3 -19 -12 -19q-65 0 -234 139q-50 43 -110 82q8 -27 11 -75q3 -128 -127 -154q-33 -8 -65 -3h-2q-48 5 -84 38q-63 55 -96 257q-20 121 -44 205q-35 122 -50 158q-15 35 -11 44l21 46q6 13 13 -2q45 -99 93 -363q36 -188 63 -229q25 -40 75 -49h1z" />
<glyph unicode="&#xfc81;" horiz-adv-x="1131" arabic-form="final" d="M518 31q73 -244 3 -307q-95 -83 -193 -84q-99 -2 -165 54q-65 54 -70 152q-3 101 53 196q3 6 11 6q5 0 10 -6q3 -6 -1 -15q-62 -123 -16 -199q56 -90 194 -81q114 7 189 96l-168 680q-9 35 -8 50l8 60q11 19 24 -20l73 -265q61 -236 123 -254q121 -23 195 56 q-55 124 -304 198q-15 4 -21 39q-6 33 -4 48q20 104 205 222q143 91 288 154q13 5 19 1.5t5 -17.5l-3 -63q0 -14 -13 -19q-108 -42 -264 -137q-162 -100 -196 -143q168 -58 321 -162q90 -61 113 -79q123 -94 189 -102q37 -4 28 -71q-3 -19 -12 -19q-65 0 -234 139 q-50 43 -110 82q8 -27 11 -75q3 -128 -127 -154q-35 -8 -66 -3q-1 0 -3 1h-1q-59 13 -100 93z" />
<glyph unicode="&#xfc82;" horiz-adv-x="693" arabic-form="final" d="M124 61q12 64 22 72q0 1 2 1q3 3 8 3q77 10 138 60q-37 79 -140 168l-156 133q-25 23 -22 35q16 65 45 102q14 17 43 31q174 87 621 164q16 3 10 -15l-18 -64q-5 -12 -12 -13q-196 -34 -379 -78t-263 -80q-8 -11 17 -28q131 -87 297 -216l200 -160q113 -83 141 -86 q37 -6 28 -75q-2 -15 -12 -15q-64 -2 -210 132q-143 130 -206 167q38 -74 36 -107q-2 -34 -43 -83q-4 -4 -5 -6q50 -22 96 -52q21 -13 16 -36q-5 -39 -9 -51q-2 -9 -6 -13.5t-10 -3.5q-109 14 -188 -9q-48 -13 -66 -38q-2 -7 19 -66l47 -142q27 -78 39 -121q21 -84 13 -137 q-3 -12 -12 -11q-13 1 -15 27q-5 62 -93 299q-31 89 -22 146q8 62 28 89q20 28 60 49q-1 1 -13 4q-12 4 -19 7q-9 4 -7 17z" />
<glyph unicode="&#xfc83;" horiz-adv-x="959" arabic-form="final" d="M446 31h1q112 45 120 80q-47 99 -303 259l-17 11q-8 9 -19 43q-10 36 -8 53q1 17 25 57q22 36 40 47q120 84 596 205q11 2 15.5 -1t3.5 -13l-5 -58q-1 -21 -24 -27q-500 -125 -611 -211q-3 -3 4 -6q194 -98 398 -239q172 -117 282 -141q37 -8 34 -41q-4 -49 -18 -49 q-40 0 -139 57q-94 53 -172 109q-3 2 -112 70q46 -88 48 -130q3 -51 -23 -84q99 -16 125 -64q10 -14 -2 -61q-10 -48 -28 -64q-61 -61 -140 -100q-81 -40 -164 -46q-132 -10 -202 66q-100 109 -70 267q8 41 22 72q5 9 14 4q10 -6 2 -24q-8 -20 -11 -47q-15 -121 73 -188 q88 -69 219 -43q110 22 210 93q34 25 39 31q-46 32 -199 38q-7 -1 -10 5q-1 1 -1.5 4t-0.5 4l-1 52q0 10 9 10z" />
<glyph unicode="&#xfc84;" horiz-adv-x="959" arabic-form="final" d="M446 31h1q112 45 120 80q-47 99 -303 259l-17 11q-8 9 -19 43q-10 36 -8 53q1 17 25 57q22 36 40 47q120 84 596 205q11 2 15.5 -1t3.5 -13l-5 -58q-1 -21 -24 -27q-500 -125 -611 -211q-3 -3 4 -6q194 -98 398 -239q172 -117 282 -141q37 -8 34 -41q-4 -49 -18 -49 q-40 0 -139 57q-94 53 -172 109q-3 2 -112 70q46 -88 48 -130q3 -51 -23 -84q99 -16 125 -64q10 -14 -2 -61q-10 -48 -28 -64q-61 -61 -140 -100q-81 -40 -164 -46q-132 -10 -202 66q-100 109 -70 267q8 41 22 72q5 9 14 4q10 -6 2 -24q-8 -20 -11 -47q-15 -121 73 -188 q88 -69 219 -43q110 22 210 93q34 25 39 31q-46 32 -199 38q-7 -1 -10 5q-1 1 -1.5 4t-0.5 4l-1 52q0 10 9 10zM468 -403q2 3 8 2q45 -15 78 -41q4 -4 3 -9l-35 -76q-2 -3 -9 2q-5 4 -64 35l-27 -59q-3 -5 -10 1q-13 9 -78 44q-5 3 -2 6l36 73q1 3 8 2q32 -10 65 -33z" />
<glyph unicode="&#xfc85;" horiz-adv-x="483" arabic-form="final" d="M155 -12q12 65 21 72q4 2 7 2l4 2q109 42 74 205q-26 125 -59 244q-13 44 -42 154q-1 10 2 23l14 41q9 33 22 -13l64 -225q64 -223 64 -226q60 -169 141 -177q46 -4 31 -77q-3 -13 -15 -13q-112 0 -191 239q14 -127 -32 -189q-1 -3 -4 -4q72 -24 137 -68q20 -14 16 -36 q-5 -39 -9 -51q-2 -9 -6 -13.5t-10 -3.5q-109 14 -188 -9q-47 -13 -66 -38q-2 -7 19 -66l47 -142q27 -78 39 -121q21 -84 13 -137q-3 -12 -12 -11q-13 1 -15 27q-5 62 -93 299q-30 88 -23 146q10 63 29 89q20 28 60 49q-1 1 -13 4q-12 4 -19 7q-9 4 -7 17z" />
<glyph unicode="&#xfc86;" horiz-adv-x="665" arabic-form="final" d="M459 -67q4 4 9 9.5t7 7.5q21 27 30 64q11 50 -21 179q-3 15 -54 173l-61 192q-5 14 -9 42q-1 19 5 85q1 6 10 7q8 1 11 -6q98 -319 130 -398q69 -169 133 -198q40 -19 36 -65q-3 -28 -20 -25q-63 7 -138 137q14 -111 -15 -185q99 -15 129 -36q33 -23 36 -33q9 -37 3 -75 q-8 -38 -32 -59q-75 -69 -167 -97q-96 -30 -198 -10q-71 15 -123 64q-130 122 -19 394q3 7 9 7t11 -5q4 -4 1 -13q-37 -93 -38 -148q0 -57 42 -117q41 -59 108 -77q134 -34 283 37q59 29 86 65q-39 21 -183 45z" />
<glyph unicode="&#xfc87;" horiz-adv-x="665" arabic-form="final" d="M459 -67q4 4 9 9.5t7 7.5q21 27 30 64q11 50 -21 179q-3 15 -54 173l-61 192q-5 14 -9 42q-1 19 5 85q1 6 10 7q8 1 11 -6q98 -319 130 -398q69 -169 133 -198q40 -19 36 -65q-3 -28 -20 -25q-63 7 -138 137q14 -111 -15 -185q99 -15 129 -36q33 -23 36 -33q9 -37 3 -75 q-8 -38 -32 -59q-75 -69 -167 -97q-96 -30 -198 -10q-71 15 -123 64q-130 122 -19 394q3 7 9 7t11 -5q4 -4 1 -13q-37 -93 -38 -148q0 -57 42 -117q41 -59 108 -77q134 -34 283 37q59 29 86 65q-39 21 -183 45zM443 -455q2 3 8 2q45 -15 78 -41q5 -4 3 -9l-35 -76 q-1 -4 -9 2q-4 3 -63 35l-28 -59q-2 -5 -10 1q-13 9 -78 44q-5 3 -2 6l36 73q2 3 8 2q30 -9 66 -33z" />
<glyph unicode="&#xfc88;" horiz-adv-x="693" arabic-form="final" d="M-50 720q3 6 5 6q3 1 6 -4.5t7 -16.5q43 -148 70 -265q12 -53 26.5 -116t21.5 -93t10 -43q24 -92 117 -98q93 3 107 48q27 89 88 112q6 3 9 -2q47 -54 114 -102q70 -49 146 -56q19 -1 24 -25q10 -65 -8 -65q-68 0 -150 50q6 -55 -1 -63t-17 -8q-115 9 -205 99q-3 4 -7 -1 q-36 -76 -84 -77q-130 0 -162 122q-28 110 -47 206q-20 98 -41 168q-13 39 -50 147q-6 16 -2 25zM417 176q-2 4 -7 2q-29 -7 -39 -25q-4 -7 3 -11q43 -32 94 -46q7 -2 8.5 -0.5t-3.5 6.5q-26 28 -56 74z" />
<glyph unicode="&#xfc89;" horiz-adv-x="986" arabic-form="final" d="M225 204q63 -62 135 -86q78 -27 146 -28q93 3 107 48q27 89 88 112q6 3 9 -2q46 -54 114 -102q70 -49 146 -56q19 -1 24 -25q10 -65 -8 -65q-68 0 -150 50q6 -55 -1 -63t-17 -8q-115 9 -205 99q-3 4 -7 -1q-35 -74 -83 -77h-1q-91 0 -171 40q-4 2 -4 -3q24 -106 -13 -141 q-11 -11 -28 1q-70 54 -99 160q-52 -1 -100 -59q-8 -13 30 -130q120 -363 115 -417q-1 -23 -9 -28q-9 -4 -17 5q-9 10 -12 29q-22 100 -94 310q-63 181 -43 275q18 84 119 128q3 19 9 32q8 14 20 2zM710 176q-2 4 -7 2q-29 -7 -39 -25q-4 -7 3 -11q43 -32 94 -46 q7 -2 8.5 -0.5t-3.5 6.5q-26 28 -56 74z" />
<glyph unicode="&#xfc8a;" horiz-adv-x="550" arabic-form="final" d="M-49 -148q-8 5 -9 9q-2 5 1 8q2 3 10 1q101 -28 171 1q120 51 159 155l1 3l1 2q-7 37 -69 100q-2 5 -2 6l11 102q1 14 29 -21l2 -2q4 -6 7 -9q12 -7 17 -7q63 -6 87 20q18 16 27 80q2 10 12 9q10 -2 13 -16q1 -3 4.5 -14.5t9 -29.5t11.5 -37q18 -65 37 -90q20 -26 53 -32 q34 -6 32 -38q-3 -52 -15 -52q-65 0 -96 60q-19 40 -30 83q-4 14 -8 29t-5.5 21.5t-1.5 7.5q-2 6 -4 -3q-16 -76 -98 -84q0 -1 1 -2.5t1 -2.5q10 -33 7 -94q-1 -63 -53 -136q-50 -72 -105 -78q-100 -11 -208 51zM317 547q1 3 7 2q41 -13 79 -42q3 -4 2 -8l-34 -76 q-2 -5 -10 1q-9 7 -78 44q-5 3 -3 6z" />
<glyph unicode="&#xfc8b;" horiz-adv-x="550" arabic-form="final" d="M-49 -148q-8 5 -9 9q-2 5 1 8q2 3 10 1q101 -28 171 1q120 51 159 155l1 3l1 2q-7 37 -69 100q-2 5 -2 6l11 102q1 14 29 -21l2 -2q4 -6 7 -9q12 -7 17 -7q63 -6 87 20q18 16 27 80q2 10 12 9q10 -2 13 -16q1 -3 4.5 -14.5t9 -29.5t11.5 -37q18 -65 37 -90q20 -26 53 -32 q34 -6 32 -38q-3 -52 -15 -52q-65 0 -96 60q-19 40 -30 83q-4 14 -8 29t-5.5 21.5t-1.5 7.5q-2 6 -4 -3q-16 -76 -98 -84q0 -1 1 -2.5t1 -2.5q10 -33 7 -94q-1 -63 -53 -136q-50 -72 -105 -78q-100 -11 -208 51zM317 547q1 3 7 2q41 -13 79 -42q3 -4 2 -8l-34 -76 q-2 -5 -10 1q-9 7 -78 44q-5 3 -3 6zM66 517q1 3 7 2q44 -14 79 -42q4 -4 2 -8l-33 -76q-3 -5 -10 1q-13 9 -78 44q-6 3 -3 6z" />
<glyph unicode="&#xfc8c;" horiz-adv-x="561" arabic-form="final" d="M174 6q7 43 16 63q-2 5 1 7q4 10 39 34q106 78 175 78q35 0 92 -63q31 -32 48 -35q58 -10 35 -78q-4 -12 -19 -12q-51 0 -100 64q-41 54 -107 43q-56 -10 -94 -38q2 -1 7 -2.5t8 -2.5q68 -23 137 -68q19 -13 16 -36q-5 -39 -9 -51q-2 -9 -6 -13.5t-10 -3.5 q-110 14 -188 -9q-46 -13 -67 -38q0 -9 20 -66l47 -142q29 -85 38 -121q21 -84 13 -137q-2 -12 -12 -11q-12 1 -14 27q-7 68 -93 299q-30 88 -23 146q8 61 29 89q20 28 60 49q-1 1 -13 4q-15 5 -19 7q-10 4 -7 17zM307 449q1 3 7 2q44 -14 79 -42q4 -4 2 -8l-33 -76 q-3 -5 -10 1q-13 9 -78 44q-6 3 -3 6z" />
<glyph unicode="&#xfc8d;" horiz-adv-x="761" arabic-form="final" d="M495 235q4 -5 12 -17q1 0 3 -0.5t3 -0.5q79 -14 103 73q3 14 13 12t13 -15q37 -133 56 -162q20 -31 47 -35t30 -48q2 -44 -14 -42q-44 6 -70 41q-25 34 -67 161q-2 6 -4 1q-21 -60 -77 -68h-4q2 -5 4 -15q17 -82 6 -147q-12 -69 -74 -120t-174 -54q-168 -5 -221 103 q-32 69 -23 139q7 72 36 135q3 6 8 6q6 0 9 -5q2 -6 1 -12q-49 -131 -8 -193q56 -88 187 -80q94 6 158 41q61 33 76 76l2 15q0 8 -21 66q-19 54 -45 87q-3 3 -3 13l6 63q2 7 4 7q1 1 4 -1q7 -5 24 -24zM524 490q1 3 7 2q41 -13 79 -42q4 -4 2 -8l-34 -76q-2 -5 -10 1 q-8 7 -77 44q-6 3 -4 6zM211 476q2 3 8 2q43 -14 78 -42q5 -3 3 -8l-34 -76q-3 -5 -10 1q-13 9 -78 44q-5 4 -3 6z" />
<glyph unicode="&#xfc8e;" horiz-adv-x="729" arabic-form="final" d="M453 -95q-41 11 -49 38q0 1 -0.5 2.5t-0.5 2.5q-10 40 15 97q26 59 71 101q46 42 82 44q23 1 60 -46q34 -46 83 -54q32 -6 29 -34q-3 -58 -13 -56q-28 1 -56 14q-29 12 -61 50q-34 39 -56 40q-23 1 -69 -27q-38 -23 -46 -41v-6q-4 -27 33 -47q35 -19 83 -25 q104 -12 129 -21q26 -9 40 -32q12 -20 14 -49q1 -25 -8 -44q-18 -35 -111 -83q-94 -48 -214 -61q-214 -24 -296 123q-28 52 -28 140q2 89 43 178q3 6 10 6t11 -6q3 -6 -6 -29q-41 -105 -18 -179q32 -96 157 -134q45 -12 97 -8q158 13 309 97q1 0 1 0.5t1 0.5q0 2 -6 8 q-7 6 -89 15t-141 25zM425 449q1 3 7 2q44 -14 79 -42q4 -4 2 -8l-33 -76q-3 -5 -10 1q-13 9 -78 44q-6 3 -3 6z" />
<glyph unicode="&#xfc8f;" horiz-adv-x="729" arabic-form="final" d="M453 -95q-41 11 -49 38q0 1 -0.5 2.5t-0.5 2.5q-10 40 15 97q26 59 71 101q46 42 82 44q23 1 60 -46q34 -46 83 -54q32 -6 29 -34q-3 -58 -13 -56q-28 1 -56 14q-29 12 -61 50q-34 39 -56 40q-23 1 -69 -27q-38 -23 -46 -41v-6q-4 -27 33 -47q35 -19 83 -25 q104 -12 129 -21q26 -9 40 -32q12 -20 14 -49q1 -25 -8 -44q-18 -35 -111 -83q-94 -48 -214 -61q-214 -24 -296 123q-28 52 -28 140q2 89 43 178q3 6 10 6t11 -6q3 -6 -6 -29q-41 -105 -18 -179q32 -96 157 -134q45 -12 97 -8q158 13 309 97q1 0 1 0.5t1 0.5q0 2 -6 8 q-7 6 -89 15t-141 25zM479 -426q2 3 8 2q45 -15 78 -41q5 -4 3 -9l-35 -76q-1 -4 -9 2q-5 4 -64 35l-27 -59q-3 -5 -10 1q-13 9 -78 44q-5 3 -2 6l36 73q1 3 8 2q32 -10 65 -33zM425 449q1 3 7 2q44 -14 79 -42q4 -4 2 -8l-33 -76q-3 -5 -10 1q-13 9 -78 44q-6 3 -3 6z" />
<glyph unicode="&#xfc90;" horiz-adv-x="585" arabic-form="final" d="M84 -116q-5 52 7 110q12 61 28 90q6 9 15 5q11 -5 5 -17q-53 -144 -2 -218q72 -108 220 -100q172 8 281 115q7 15 -22 22q-30 8 -91 12q-63 5 -67 8q-53 27 -28 83q30 64 140 96q29 9 31 -32q2 -58 -15 -58q-32 0 -53 -2.5t-31 -8.5t-9 -15q122 -4 168 -35q18 -13 25 -30 q7 -18 0 -55q-9 -38 -19 -51q-103 -134 -299 -143q-121 -6 -205 60q-66 52 -79 164zM154 361q3 15 19 -1q114 -106 112 -268q0 -9 -8 -11q-9 -1 -12 11q-32 104 -109 183q-11 9 -9 22z" />
<glyph unicode="&#xfc91;" horiz-adv-x="550" arabic-form="final" d="M-49 -148q-8 5 -9 9q-2 5 1 8q2 3 10 1q101 -28 171 1q120 51 159 155l1 3l1 2q-7 37 -69 100q-2 5 -2 6l11 102q1 14 29 -21l2 -2q4 -6 7 -9q12 -7 17 -7q63 -6 87 20q18 16 27 80q2 10 12 9q10 -2 13 -16q1 -3 4.5 -14.5t9 -29.5t11.5 -37q18 -65 37 -90q20 -26 53 -32 q34 -6 32 -38q-3 -52 -15 -52q-65 0 -96 60q-19 40 -30 83q-4 14 -8 29t-5.5 21.5t-1.5 7.5q-2 6 -4 -3q-16 -76 -98 -84q0 -1 1 -2.5t1 -2.5q10 -33 7 -94q-1 -63 -53 -136q-50 -72 -105 -78q-100 -11 -208 51zM474 -79q1 3 8 2q43 -14 78 -41q5 -5 2 -9l-34 -76 q-2 -3 -10 2q-4 4 -63 35l-27 -59q-3 -4 -11 1q-8 7 -77 44q-5 3 -2 6l36 73q1 3 7 2q32 -9 66 -33z" />
<glyph unicode="&#xfc92;" horiz-adv-x="550" arabic-form="final" d="M-49 -148q-8 5 -9 9q-2 5 1 8q2 3 10 1q101 -28 171 1q120 51 159 155l1 3l1 2q-7 37 -69 100q-2 5 -2 6l11 102q1 14 29 -21l2 -2q4 -6 7 -9q12 -7 17 -7q63 -6 87 20q18 16 27 80q2 10 12 9q10 -2 13 -16q1 -3 4.5 -14.5t9 -29.5t11.5 -37q18 -65 37 -90q20 -26 53 -32 q34 -6 32 -38q-3 -52 -15 -52q-65 0 -96 60q-19 40 -30 83q-4 14 -8 29t-5.5 21.5t-1.5 7.5q-2 6 -4 -3q-16 -76 -98 -84q0 -1 1 -2.5t1 -2.5q10 -33 7 -94q-1 -63 -53 -136q-50 -72 -105 -78q-100 -11 -208 51zM474 -79q1 3 8 2q43 -14 78 -41q5 -5 2 -9l-34 -76 q-2 -3 -10 2q-4 4 -63 35l-27 -59q-3 -4 -11 1q-8 7 -77 44q-5 3 -2 6l36 73q1 3 7 2q32 -9 66 -33zM66 517q1 3 7 2q44 -14 79 -42q4 -4 2 -8l-33 -76q-3 -5 -10 1q-13 9 -78 44q-6 3 -3 6z" />
<glyph unicode="&#xfc93;" horiz-adv-x="561" arabic-form="final" d="M174 6q7 43 16 63q-2 5 1 7q4 10 39 34q106 78 175 78q35 0 92 -63q31 -32 48 -35q58 -10 35 -78q-4 -12 -19 -12q-51 0 -100 64q-41 54 -107 43q-56 -10 -94 -38q2 -1 7 -2.5t8 -2.5q68 -23 137 -68q19 -13 16 -36q-5 -39 -9 -51q-2 -9 -6 -13.5t-10 -3.5 q-110 14 -188 -9q-46 -13 -67 -38q0 -9 20 -66l47 -142q29 -85 38 -121q21 -84 13 -137q-2 -12 -12 -11q-12 1 -14 27q-7 68 -93 299q-30 88 -23 146q8 61 29 89q20 28 60 49q-1 1 -13 4q-15 5 -19 7q-10 4 -7 17zM505 -226q1 3 7 2q43 -14 79 -41q5 -5 2 -9l-34 -76 q-2 -3 -10 2q-4 4 -63 35l-27 -59q-3 -4 -11 1q-8 7 -77 44q-5 3 -2 6l36 73q1 3 7 2q32 -9 66 -33z" />
<glyph unicode="&#xfc94;" horiz-adv-x="761" arabic-form="final" d="M495 235q4 -5 12 -17q1 0 3 -0.5t3 -0.5q79 -14 103 73q3 14 13 12t13 -15q37 -133 56 -162q20 -31 47 -35t30 -48q2 -44 -14 -42q-44 6 -70 41q-25 34 -67 161q-2 6 -4 1q-21 -60 -77 -68h-4q2 -5 4 -15q17 -82 6 -147q-12 -69 -74 -120t-174 -54q-168 -5 -221 103 q-32 69 -23 139q7 72 36 135q3 6 8 6q6 0 9 -5q2 -6 1 -12q-49 -131 -8 -193q56 -88 187 -80q94 6 158 41q61 33 76 76l2 15q0 8 -21 66q-19 54 -45 87q-3 3 -3 13l6 63q2 7 4 7q1 1 4 -1q7 -5 24 -24zM671 -79q1 3 8 2q43 -14 78 -41q5 -5 2 -9l-34 -76q-2 -3 -10 2 q-4 4 -63 35l-27 -59q-3 -4 -11 1q-8 7 -77 44q-5 3 -2 6l36 73q1 3 7 2q32 -9 66 -33zM211 476q2 3 8 2q43 -14 78 -42q5 -3 3 -8l-34 -76q-3 -5 -10 1q-13 9 -78 44q-5 4 -3 6z" />
<glyph unicode="&#xfc95;" horiz-adv-x="729" arabic-form="final" d="M453 -95q-41 11 -49 38q0 1 -0.5 2.5t-0.5 2.5q-10 40 15 97q26 59 71 101q46 42 82 44q23 1 60 -46q34 -46 83 -54q32 -6 29 -34q-3 -58 -13 -56q-28 1 -56 14q-29 12 -61 50q-34 39 -56 40q-23 1 -69 -27q-38 -23 -46 -41v-6q-4 -27 33 -47q35 -19 83 -25 q104 -12 129 -21q26 -9 40 -32q12 -20 14 -49q1 -25 -8 -44q-18 -35 -111 -83q-94 -48 -214 -61q-214 -24 -296 123q-28 52 -28 140q2 89 43 178q3 6 10 6t11 -6q3 -6 -6 -29q-41 -105 -18 -179q32 -96 157 -134q45 -12 97 -8q158 13 309 97q1 0 1 0.5t1 0.5q0 2 -6 8 q-7 6 -89 15t-141 25zM767 -333q1 3 7 2q43 -14 79 -41q5 -5 2 -9l-34 -76q-2 -3 -10 2q-4 4 -63 35l-28 -59q-2 -5 -10 1q-8 7 -77 44q-5 2 -3 6l37 73q1 3 7 2q33 -10 66 -33z" />
<glyph unicode="&#xfc96;" horiz-adv-x="729" arabic-form="final" d="M453 -95q-41 11 -49 38q0 1 -0.5 2.5t-0.5 2.5q-10 40 15 97q26 59 71 101q46 42 82 44q23 1 60 -46q34 -46 83 -54q32 -6 29 -34q-3 -58 -13 -56q-28 1 -56 14q-29 12 -61 50q-34 39 -56 40q-23 1 -69 -27q-38 -23 -46 -41v-6q-4 -27 33 -47q35 -19 83 -25 q104 -12 129 -21q26 -9 40 -32q12 -20 14 -49q1 -25 -8 -44q-18 -35 -111 -83q-94 -48 -214 -61q-214 -24 -296 123q-28 52 -28 140q2 89 43 178q3 6 10 6t11 -6q3 -6 -6 -29q-41 -105 -18 -179q32 -96 157 -134q45 -12 97 -8q158 13 309 97q1 0 1 0.5t1 0.5q0 2 -6 8 q-7 6 -89 15t-141 25zM767 -333q1 3 7 2q43 -14 79 -41q5 -5 2 -9l-34 -76q-2 -3 -10 2q-4 4 -63 35l-28 -59q-2 -5 -10 1q-8 7 -77 44q-5 2 -3 6l37 73q1 3 7 2q33 -10 66 -33zM479 -426q2 3 8 2q45 -15 78 -41q5 -4 3 -9l-35 -76q-1 -4 -9 2q-5 4 -64 35l-27 -59 q-3 -5 -10 1q-13 9 -78 44q-5 3 -2 6l36 73q1 3 8 2q32 -10 65 -33z" />
<glyph unicode="&#xfc97;" horiz-adv-x="643" arabic-form="initial" d="M421 359q1 -9 -3 -13t-12 -1q-5 2 -8 12q-25 77 -50 94q-8 7 -17 5q-4 -1 -9 -8q-82 -144 -182 -204q90 -31 210 -47q127 -17 195 -9q9 1 13 -6t2 -15l-21 -53q-3 -10 -16 -8q-164 9 -293 -32q-21 -6 -101 -38q-91 -36 -129 -36q-12 0 -26 34q-21 54 11 56q30 1 125 26 q84 22 96 26q2 0 3 1t2 1q7 3 0 6q-45 20 -114 31q-63 10 -117 7q-5 0 -7 1.5t-1 5.5q1 16 15 42q6 10 10 14q0 1 0.5 1t0.5 1q8 10 30 19q105 43 173 91q63 44 83 125q17 64 42 64q50 2 95 -193zM353 700q-60 -12 -74 -17t-78 -35q-12 -5 -20 4q-15 18 30 49q-40 18 -49 42 q-16 42 17 99q32 57 79 53q30 -3 33 -34t-9 -52q-10 -21 -23 -5q-14 18 -33 19q-21 2 -29 -12q-9 -15 6 -26q37 -31 103 -33q7 0 30 5q22 5 28 5q8 0 13 -7q4 -6 3 -11q-12 -41 -27 -44zM230 -68q1 3 8 2q43 -14 78 -42q5 -4 2 -8l-33 -76q-3 -5 -10 1q-13 9 -78 44 q-5 4 -3 6z" />
<glyph unicode="&#xfc98;" horiz-adv-x="643" arabic-form="initial" d="M421 359q1 -9 -3 -13t-12 -1q-5 2 -8 12q-25 77 -50 94q-8 7 -17 5q-4 -1 -9 -8q-82 -144 -182 -204q90 -31 210 -47q127 -17 195 -9q9 1 13 -6t2 -15l-21 -53q-3 -10 -16 -8q-164 9 -293 -32q-21 -6 -101 -38q-91 -36 -129 -36q-12 0 -26 34q-21 54 11 56q30 1 125 26 q84 22 96 26q2 0 3 1t2 1q7 3 0 6q-45 20 -114 31q-63 10 -117 7q-5 0 -7 1.5t-1 5.5q1 16 15 42q6 10 10 14q0 1 0.5 1t0.5 1q8 10 30 19q105 43 173 91q63 44 83 125q17 64 42 64q50 2 95 -193zM353 700q-60 -12 -74 -17t-78 -35q-12 -5 -20 4q-15 18 30 49q-40 18 -49 42 q-16 42 17 99q32 57 79 53q30 -3 33 -34t-9 -52q-10 -21 -23 -5q-14 18 -33 19q-21 2 -29 -12q-9 -15 6 -26q37 -31 103 -33q7 0 30 5q22 5 28 5q8 0 13 -7q4 -6 3 -11q-12 -41 -27 -44z" />
<glyph unicode="&#xfc99;" horiz-adv-x="643" arabic-form="initial" d="M421 359q1 -9 -3 -13t-12 -1q-5 2 -8 12q-25 77 -50 94q-8 7 -17 5q-4 -1 -9 -8q-82 -144 -182 -204q90 -31 210 -47q127 -17 195 -9q9 1 13 -6t2 -15l-21 -53q-3 -10 -16 -8q-164 9 -293 -32q-21 -6 -101 -38q-91 -36 -129 -36q-12 0 -26 34q-21 54 11 56q30 1 125 26 q84 22 96 26q2 0 3 1t2 1q7 3 0 6q-45 20 -114 31q-63 10 -117 7q-5 0 -7 1.5t-1 5.5q1 16 15 42q6 10 10 14q0 1 0.5 1t0.5 1q8 10 30 19q105 43 173 91q63 44 83 125q17 64 42 64q50 2 95 -193zM353 700q-60 -12 -74 -17t-78 -35q-12 -5 -20 4q-15 18 30 49q-40 18 -49 42 q-16 42 17 99q32 57 79 53q30 -3 33 -34t-9 -52q-10 -21 -23 -5q-14 18 -33 19q-21 2 -29 -12q-9 -15 6 -26q37 -31 103 -33q7 0 30 5q22 5 28 5q8 0 13 -7q4 -6 3 -11q-12 -41 -27 -44zM-24 547q1 3 7 2q41 -13 79 -42q4 -4 2 -8l-34 -76q-2 -5 -10 1q-9 7 -78 44 q-4 3 -3 6z" />
<glyph unicode="&#xfc9a;" horiz-adv-x="438" arabic-form="initial" d="M94 241q0 -1 1.5 -5t1.5 -6q7 -12 23 -34q28 -34 55 -48q6 -3 51 -15q22 -5 49 -18q18 -8 21 -27q8 -46 6 -82q0 -16 -15 -8q-102 51 -131 51t-77 -24q-52 -25 -79 -25q-11 0 -23 22q-11 21 -11 45q1 22 18 23q80 7 114 34q-38 52 -44 106q-7 39 -1 76q27 154 128 169 q50 8 97 -33q15 -13 13 -24q-3 -40 -15 -68q-4 -9 -15 -1q-69 52 -116 23q-59 -36 -62 -74q-2 -31 11 -57zM205 607q-60 -12 -74 -17q-17 -6 -78 -35q-12 -6 -20 4q-15 18 31 49q-41 18 -50 42q-14 43 17 99q32 57 80 53q30 -3 33 -34q1 -31 -9 -52q-11 -19 -23 -5 q-14 17 -34 19t-29 -12q-8 -15 6 -26q39 -31 104 -33q6 0 29 5q22 5 28 5q10 0 13 -7q5 -7 3 -11q-12 -41 -27 -44z" />
</font>
</defs>
</svg>
