<?xml version="1.0" standalone="no"?>
<!DOCTYPE svg PUBLIC "-//W3C//DTD SVG 1.1//EN" "http://www.w3.org/Graphics/SVG/1.1/DTD/svg11.dtd" >
<svg xmlns="http://www.w3.org/2000/svg" xmlns:xlink="http://www.w3.org/1999/xlink" version="1.1">
<metadata></metadata>
<defs>
<font id="amiribold" horiz-adv-x="1089" >
<font-face units-per-em="2048" ascent="1638" descent="-410" />
<missing-glyph horiz-adv-x="598" />
<glyph horiz-adv-x="0" />
<glyph unicode="&#xd;" horiz-adv-x="681" />
<glyph unicode=" "  horiz-adv-x="598" />
<glyph unicode="&#x09;" horiz-adv-x="598" />
<glyph unicode="&#xa0;" horiz-adv-x="598" />
<glyph unicode="!" horiz-adv-x="538" d="M119 131q0 62 43 105t106 43q64 0 107 -46t43 -106q0 -61 -43 -104q-46 -46 -105 -46q-63 0 -106 46q-45 48 -45 108zM143 1239q0 59 39 98q37 37 94 37q49 0 86 -37t37 -100q0 -39 -30 -346q-9 -80 -27.5 -230t-26.5 -219q-6 -51 -41 -51q-41 0 -47 53q-30 230 -51 424 q-33 332 -33 371z" />
<glyph unicode="&#x22;" horiz-adv-x="661" d="M72 1235q0 56 36 111t89 55q22 0 34.5 -7t26.5 -26q0 -50 -12 -207t-23 -254q-16 -28 -47 -45q-13 0 -20 17q-32 111 -45.5 159t-26 107t-12.5 90zM391 1235q0 56 36 111t89 55q38 0 62 -33q0 -51 -11.5 -209.5t-21.5 -251.5q-15 -26 -49 -45q-14 0 -21 17 q-32 111 -45.5 159t-26 107t-12.5 90z" />
<glyph unicode="#" horiz-adv-x="948" d="M94 330q3 28 16.5 62t26.5 38h119l39 248h-137q-11 5 -9 33t15 62t26 38h125l37 225q9 27 58 27q17 0 26 -6l-39 -246h240l37 225q9 27 59 27q16 0 25 -6l-39 -246h123q13 -5 12.5 -32t-12.5 -61t-25 -40h-121l-39 -248h131q13 -4 11.5 -31.5t-14 -61.5t-25.5 -40h-123 l-37 -225q-2 -7 -21 -17t-40 -10q-9 0 -14.5 2t-6.5 4l-2 2l39 244h-242l-37 -225q-2 -7 -20 -17t-39 -10q-9 0 -14.5 2t-6.5 4l-1 2l38 244h-131q-11 5 -8 33zM334 430h244l38 248h-241z" />
<glyph unicode="$" horiz-adv-x="1034" d="M109 356q6 8 26 17.5t29 9.5q21 0 24 -16q12 -66 63.5 -146.5t123.5 -124.5l69 439q-8 6 -24 16t-19 12q-116 78 -147 105q-111 93 -128 216q-3 25 -3 52q0 96 60.5 177t153.5 125t193 44h37l8 53q78 0 78 -14l-8 -49q9 -1 207 -43q8 -77 20 -320q-8 -10 -20 -10h-4 q-50 0 -53 12q-10 72 -54.5 151t-109.5 116l-66 -396q25 -20 88 -59q17 -11 54.5 -33.5t58 -36t51.5 -37.5t48.5 -48.5t36 -59t26.5 -78t8 -96.5q0 -102 -60.5 -184.5t-156 -126t-201.5 -43.5q-24 0 -82 4l-10 -64q-21 0 -49.5 5t-28.5 14l8 53q-74 11 -202 39 q-13 56 -27 163t-18 162zM377 1036q0 -93 119 -196l57 362h-12q-66 0 -115 -39.5t-49 -126.5zM449 66q28 -7 49 -7q31 0 60 8.5t59 28t48.5 58.5t18.5 94q0 120 -166 237z" />
<glyph unicode="%" horiz-adv-x="1370" d="M78 975q0 127 90 217t221 90q137 0 226.5 -85.5t89.5 -213.5q0 -127 -91.5 -218t-222.5 -91q-138 0 -225.5 86.5t-87.5 214.5zM102 -16l1033 1280q30 26 79 26q13 0 22 -6t9 -14l-1032 -1280q-7 -10 -32 -20.5t-50 -10.5q-14 0 -21 6.5t-8 12.5v6zM268 999q0 -46 8 -91 t24 -84.5t43.5 -64t62.5 -24.5t58 20t33 55.5t13.5 68t3.5 75.5q0 64 -13.5 123t-46.5 102.5t-79 43.5q-28 0 -48.5 -14.5t-31.5 -36t-17.5 -54t-8 -59t-1.5 -60.5zM672 299q0 127 90 218t221 91q137 0 226 -85.5t89 -213.5q0 -127 -91 -218t-222 -91q-138 0 -225.5 85.5 t-87.5 213.5zM862 326q0 -63 13 -121t45.5 -101t78.5 -43q109 0 109 220q0 64 -13.5 122.5t-46.5 102t-79 43.5q-35 0 -58 -20t-32.5 -57t-13 -69.5t-3.5 -76.5z" />
<glyph unicode="&#x26;" horiz-adv-x="1390" d="M113 311q0 80 23.5 144t72 113t80.5 73t91 61q7 5 11 7l-22 31q-22 30 -27 38.5t-22 38.5t-22.5 49.5t-12 51t-6.5 63.5q0 136 85.5 222.5t225.5 86.5q154 0 254 -64t100 -167q0 -64 -26.5 -119t-71 -93.5t-90 -64t-97.5 -43.5q29 -39 140.5 -188.5t140.5 -188.5 q8 9 30 34.5t34.5 40t28 34.5t23 33t7.5 20q0 35 -78 35h-20q-6 9 -5.5 36t7.5 30l135 -2q74 -2 256 6q6 -3 5.5 -31t-9.5 -37q-2 0 -22 -1t-39 -3t-41.5 -8.5t-34.5 -16.5q-13 -10 -56 -57.5t-94.5 -105t-71.5 -78.5l10 -12q10 -12 18.5 -21.5t22.5 -24.5t26.5 -26.5 t26 -23t25.5 -17.5t21 -6q16 0 31.5 7t31.5 23t24.5 25.5t23.5 29.5t16 21q13 0 28 -11t23 -26q-4 -12 -31 -48t-66.5 -78.5t-92 -75.5t-95.5 -33q-39 0 -71.5 10t-60.5 31.5t-45 38t-44 47.5q-135 -129 -344 -129q-63 0 -126.5 22t-116 61t-85 101t-32.5 135zM373 440 q0 -51 16 -102t47 -95.5t83.5 -72t117.5 -27.5q72 0 127 47q-220 304 -315 437q-76 -69 -76 -187zM510 1053q0 -114 98 -240q129 66 129 213q0 27 -5 57t-16.5 62.5t-35 53t-55.5 20.5q-52 0 -83.5 -46.5t-31.5 -119.5z" />
<glyph unicode="'" horiz-adv-x="360" d="M66 1253q0 67 42.5 117.5t104.5 50.5q57 0 76 -43q-25 -317 -47 -438q-18 -27 -52 -39q-15 0 -24 12q-7 20 -26 69t-28.5 76t-22 66.5t-18 70.5t-5.5 58z" />
<glyph unicode="(" horiz-adv-x="937" d="M272 342q0 498 279 858q148 190 311 275l25 -56q-86 -73 -170 -243q-187 -371 -187 -834q0 -465 187 -836q84 -170 170 -243l-25 -56q-163 85 -311 275q-279 360 -279 860z" />
<glyph unicode=")" horiz-adv-x="937" d="M53 -737q86 73 170 243q187 371 187 836q0 463 -187 834q-84 170 -170 243l25 56q163 -85 311 -275q279 -360 279 -858q0 -500 -279 -860q-148 -190 -311 -275z" />
<glyph unicode="*" horiz-adv-x="880" d="M70 915q-5 35 17 68t65 43q18 4 33.5 5t35.5 -3.5t25.5 -6t29.5 -9.5q60 -21 93 -17q24 3 26 13q2 5 -6 20l-2 2q-18 31 -69.5 71.5t-77.5 84.5q-23 41 -13.5 81t39.5 56q30 17 68.5 5t62.5 -50q27 -45 23 -121q0 -65 14 -94q11 -21 21 -23q9 0 18 9q24 26 46.5 88.5 t55.5 99.5q31 33 73.5 35.5t64.5 -21.5q26 -26 27.5 -63t-29.5 -74q-34 -39 -102.5 -58.5t-92.5 -43.5q-12 -17 -12 -27q0 -8 14 -14q33 -16 100 -17.5t113 -21.5q41 -18 56 -57t1 -70q-16 -32 -51.5 -45t-79.5 4q-30 13 -52 35t-34 41.5t-30.5 41t-40.5 33.5q-2 1 -5.5 3 t-12.5 5t-11 -1q-6 -3 -8 -17q-4 -39 14 -92q1 -5 5 -20.5t5.5 -21t4.5 -23t1.5 -25.5t-1.5 -29q-4 -43 -37 -70t-66 -24q-35 6 -59.5 38t-20.5 75q5 52 48 107t49 89q1 21 -5 29q-2 5 -18 2q-35 -8 -90.5 -44t-104.5 -48q-43 -10 -77.5 12t-40.5 55z" />
<glyph unicode="+" horiz-adv-x="1083" d="M61 467q0 12 5.5 40t15.5 44h397l2 397q15 12 43 17.5t41 5.5q33 0 33 -19l-2 -401h408q8 0 13 -9.5t5 -19.5q0 -52 -29 -88h-395v-395q-36 -23 -94 -23q-9 0 -16 5.5t-7 11.5v401h-407q-13 0 -13 33z" />
<glyph unicode="," horiz-adv-x="446" d="M39 -266q45 29 93 89t48 124q0 21 -15 39t-33 31t-33 43.5t-15 74.5q0 16 7 37t22.5 46.5t48 43t76.5 17.5q41 0 88 -33q28 -54 28 -129q0 -135 -81 -254.5t-193 -175.5q-16 4 -28.5 20.5t-12.5 26.5z" />
<glyph unicode="-" horiz-adv-x="749" d="M113 420q0 53 28 115q418 20 484 22q5 0 7.5 -0.5t4.5 -4t2 -11.5q0 -53 -31 -121q-93 -6 -481 -23q-14 0 -14 23z" />
<glyph unicode="." horiz-adv-x="466" d="M84 131q0 60 44 104t105 44q62 0 107 -45.5t45 -106.5q0 -60 -44 -105t-105 -45q-63 0 -107.5 45t-44.5 109z" />
<glyph unicode="/" horiz-adv-x="704" d="M29 -401l518 1814q10 17 33 31q19 12 63 12q36 0 39 -14l-516 -1815q-3 -14 -31 -28q-30 -15 -69 -15q-11 0 -23 4q-9 3 -12 6z" />
<glyph unicode="0" d="M104 623q0 170 61.5 315t164 228t221.5 83q187 0 310.5 -168t123.5 -458q0 -171 -58 -316t-158 -229t-218 -84q-90 0 -171 43t-142.5 121.5t-97.5 198.5t-36 266zM365 604q0 -230 55 -378t133 -148q47 0 81 45t53.5 127t28.5 182t9 223q0 238 -45 374t-127 136 q-62 0 -105.5 -76t-63 -200t-19.5 -285z" />
<glyph unicode="1" d="M233 1063v2q0 18 5 20q97 41 213.5 93t179.5 80t65 28h4q8 0 15.5 -14t9.5 -25q-18 -57 -18 -186v-770q0 -148 16 -189q10 -27 127 -36q7 -11 6.5 -38t-6.5 -36q-136 14 -275 14q-137 0 -274 -14q-6 9 -6.5 36t6.5 38q119 9 129 36q16 41 16 189v674q0 64 -9 84t-34 20 q-17 0 -65.5 -14t-77.5 -31q-11 6 -19 17.5t-8 21.5z" />
<glyph unicode="2" d="M113 37q27 30 86.5 94t89 97.5t75.5 88t85 109t79 117.5q115 181 115 354q0 96 -64.5 163.5t-148.5 67.5q-39 0 -75 -13t-62 -33.5t-44 -38.5t-32.5 -37.5t-15.5 -20.5q-11 0 -27 14.5t-16 34.5q15 33 47 72t81 81t121 69.5t150 27.5q150 0 249 -90t99 -246 q0 -169 -151 -348q-218 -250 -375 -395h344q22 0 41.5 5t34 12t28 21t22 24t19 29t15 28.5t14 30.5t12.5 28q5 12 29 12q28 0 41 -10q-10 -42 -37 -127t-54.5 -168t-29.5 -90h-729q-11 11 -16 37z" />
<glyph unicode="3" d="M131 147q0 39 29 73t76 34q19 0 36.5 -7.5t37.5 -26.5t27 -27t28 -33q76 -88 139 -88q93 0 140.5 73.5t47.5 210.5q0 117 -60.5 202t-156.5 85q-52 0 -110 -16q-17 21 -17 47v8v10q49 9 95.5 24.5t94 41t76.5 66.5t29 91q0 96 -49 159t-137 63q-70 0 -133.5 -38.5 t-87.5 -66.5q-10 3 -16.5 21t-6.5 34q63 83 157 140t205 57q32 0 69 -7t79.5 -25.5t76.5 -46t56.5 -74t22.5 -103.5q0 -59 -26.5 -111.5t-66 -87.5t-71 -55.5t-56.5 -30.5q24 -1 56 -9.5t76 -30.5t80 -53.5t61.5 -86.5t25.5 -123q0 -102 -47.5 -189.5t-124 -143.5 t-171 -87.5t-191.5 -31.5q-89 0 -160.5 22t-107.5 51q-10 13 -17.5 41t-7.5 45z" />
<glyph unicode="4" d="M96 397q111 139 343.5 431.5t344.5 431.5q24 28 39 28q11 0 32.5 -19t21.5 -36v-750h92q11 0 18.5 -26t7.5 -68q0 -14 -4.5 -24t-8.5 -13l-5 -4h-100v-340q-54 -18 -138 -18q-114 0 -114 26v332h-508q-21 10 -21 49zM268 483h357v449z" />
<glyph unicode="5" d="M135 147q0 39 29 73t76 34q19 0 36.5 -7.5t37.5 -26.5t27 -27t28 -33q76 -88 141 -88q93 0 140.5 73.5t47.5 210.5q0 65 -27 123t-68 95.5t-89 59t-92 21.5q-119 0 -184 -26q-8 0 -14.5 14t-6.5 25q1 3 25.5 131t52.5 277t35 194h356q78 0 184 22q2 -1 5.5 -2t6 -2 t5.5 -3t5 -4.5t3.5 -6.5t1.5 -10q0 -23 -28.5 -89.5t-47.5 -103.5q-97 -9 -299 -14q-63 -2 -135 -2l-45 -236q110 27 213 27q98 0 190 -51.5t150.5 -141.5t58.5 -192q0 -103 -46 -193t-120 -150.5t-168 -95t-190 -34.5q-89 0 -162 22t-108 51q-10 13 -17.5 41t-7.5 45z" />
<glyph unicode="6" d="M129 483q0 154 66.5 293.5t166.5 245.5q117 124 253.5 188t258.5 80q22 -17 15 -53q-357 -147 -459 -477q84 51 164 51q76 0 140 -21.5t116 -67t81.5 -124.5t29.5 -184q0 -113 -61 -212.5t-158 -156.5t-203 -57q-109 0 -204 69t-150.5 183.5t-55.5 242.5zM391 442 q0 -67 9 -129t27 -118t52.5 -89.5t79.5 -33.5q60 0 99.5 80.5t39.5 212.5q0 67 -10.5 123.5t-32.5 103.5t-60 73.5t-89 26.5q-61 0 -100 -39q-15 -105 -15 -211z" />
<glyph unicode="7" d="M117 907q25 92 88 365l575 2q31 0 73 2t73.5 4t34.5 2q14 0 14 -31q0 -5 -2.5 -12.5t-8 -19.5t-10.5 -22.5t-15.5 -31t-18.5 -35.5l-543 -1146q-9 -7 -35 -7q-22 0 -55 12.5t-33 37.5q65 94 243.5 428.5t311.5 615.5h-463q-29 0 -52.5 -11.5t-38 -24.5t-29.5 -41 t-20.5 -43t-17.5 -48q-3 -8 -24 -10q-30 -3 -47 14z" />
<glyph unicode="8" d="M127 305q0 115 76.5 195t179.5 112q6 3 -4 11q-6 5 -29 24t-35.5 29.5t-36 33t-37.5 40.5t-32 45t-28.5 52.5t-17.5 58.5t-7 67q0 84 57.5 153t145 104.5t182.5 35.5t178 -31t138.5 -98t55.5 -158q0 -90 -63.5 -160.5t-157.5 -109.5q-3 -1 -3 -5t3 -6q36 -21 75.5 -51.5 t87.5 -78t79 -109.5t31 -125q0 -102 -63 -183t-160 -122t-205 -41q-81 0 -150.5 16.5t-129.5 51.5t-95 99t-35 150zM387 311q0 -45 9.5 -86t28.5 -76t52 -56t76 -21q71 0 110 46.5t39 117.5q0 44 -19 88.5t-41.5 75.5t-60 66.5t-55.5 49.5t-47 35q-10 8 -16 8h-4q-4 0 -6 -2 q-66 -81 -66 -246zM414 1024q0 -48 19 -92.5t49.5 -76t55.5 -51t48 -32.5q15 -10 24 -10q7 0 13 6q25 36 33 84.5t8 120.5q0 49 -12.5 95t-42.5 81t-72 35q-54 0 -88.5 -46.5t-34.5 -113.5z" />
<glyph unicode="9" d="M129 864q0 113 61.5 212.5t159 156.5t203.5 57q109 0 203.5 -69t149.5 -183.5t55 -242.5q0 -154 -66.5 -293.5t-167.5 -245.5q-117 -124 -253.5 -188t-258.5 -80q-20 15 -12 53q353 146 456 477q-81 -49 -163 -49q-76 0 -140 21.5t-116 66.5t-81.5 123.5t-29.5 183.5z M391 913q0 -90 18 -161t63 -118.5t112 -47.5q61 0 100 39q14 67 14 211q0 67 -9 129t-27 118t-52.5 89.5t-79.5 33.5q-60 0 -99.5 -80.5t-39.5 -212.5z" />
<glyph unicode=":" horiz-adv-x="522" d="M113 131q0 60 44 104t105 44q62 0 106 -45.5t44 -106.5t-43.5 -105.5t-104.5 -44.5q-63 0 -107 45t-44 109zM113 717q0 60 43.5 102.5t105.5 42.5t106 -45t44 -106t-43.5 -105.5t-104.5 -44.5q-63 0 -107 45.5t-44 110.5z" />
<glyph unicode=";" horiz-adv-x="507" d="M78 -266q45 29 93 89t48 124q0 18 -9.5 32t-23.5 26t-28 26.5t-23.5 41t-9.5 62.5q0 16 7 37t22.5 46.5t48 43t76.5 17.5q41 0 88 -33q26 -50 26 -129q0 -136 -80.5 -255t-191.5 -175q-16 4 -29.5 20.5t-13.5 26.5zM98 719q0 60 45 102.5t107 42.5q60 0 100.5 -42.5 t40.5 -102.5q0 -62 -40.5 -110t-100.5 -48q-62 0 -107 48.5t-45 109.5z" />
<glyph unicode="&#x3c;" horiz-adv-x="989" d="M59 434q0 28 37 47l746 375q8 4 10 4q13 0 35 -115q1 -5 -0.5 -9.5t-3.5 -6.5l-2 -2l-637 -309l639 -316q6 -2 6 -12q0 -15 -12.5 -68t-20.5 -53q-2 0 -10 4l-750 381q-37 19 -37 80z" />
<glyph unicode="=" horiz-adv-x="1116" d="M132 296q2 24 15 54t27 35h805q13 -4 12.5 -27.5t-13 -53t-26.5 -36.5h-811q-11 4 -9 28zM132 583.5q2 24.5 15 55t27 35.5h805q13 -4 12.5 -28t-13 -54t-26.5 -37h-811q-11 4 -9 28.5z" />
<glyph unicode="&#x3e;" horiz-adv-x="989" d="M102 90q0 4 2 7t4 4l1 1l636 316l-634 309q-1 1 -2.5 2t-3.5 6t-1 10q22 115 33 115q2 0 10 -4l748 -375q35 -17 35 -47q0 -62 -35 -80l-752 -381q-8 -4 -10 -4q-8 0 -19.5 52.5t-11.5 68.5z" />
<glyph unicode="?" horiz-adv-x="796" d="M109 1167q0 26 8.5 55t19.5 38q62 34 180 34q32 0 78 -9.5t105.5 -35t109.5 -63t84.5 -101.5t34.5 -143q0 -32 -7 -61.5t-16.5 -51.5t-29 -45t-33 -37t-40.5 -34t-41 -28.5t-44.5 -27t-40.5 -24.5q-13 -9 -42 -26.5t-47.5 -29.5t-40.5 -30t-34 -35q-10 -13 -10 -72v-12 q-4 -11 -13 -24t-16 -13q-22 0 -47 25q-13 32 -26 89t-13 111q0 42 13.5 77.5t40.5 64t49.5 46.5t56.5 40q211 139 211 221q0 36 -28 65t-78 29q-24 0 -53.5 -19t-53 -42.5t-55.5 -42.5t-60 -19q-55 0 -88.5 39.5t-33.5 91.5zM133 131q0 62 44 105t102 43q63 0 106 -43 t43 -105t-41 -108t-100 -46q-58 0 -106 44.5t-48 109.5z" />
<glyph unicode="@" horiz-adv-x="1533" d="M92 330q0 117 38 236t110.5 224t169 187t222.5 130t261 48q114 0 209 -30t161.5 -83t112 -125.5t67 -157t21.5 -179.5q0 -150 -61.5 -287.5t-164 -222t-216.5 -84.5q-82 0 -139.5 43t-57.5 129q0 33 9 57q-16 -31 -44 -67t-65.5 -73t-84 -61t-89.5 -24q-42 0 -74 10 t-61 36t-44.5 77.5t-15.5 126.5q0 143 93.5 295t238.5 252t283 100q53 0 120.5 -8.5t96.5 -18.5l-113 -606q-6 -24 -6 -49v-8q0 -19 0.5 -27.5t4.5 -25.5t14.5 -25t27.5 -8q38 0 83 36.5t84.5 96t66 146t26.5 175.5q0 83 -16.5 157t-53.5 139t-92 112t-137 74.5t-184 27.5 q-148 0 -281.5 -66t-225 -171t-145 -236.5t-53.5 -261.5q0 -165 77.5 -295.5t193.5 -198.5q33 -20 64 -32t46.5 -15.5t42.5 -7.5q0 -12 -27.5 -25.5t-52.5 -13.5q-39 0 -90 19q-147 54 -248.5 205t-101.5 354zM602 297q0 -53 22 -81t58 -28q64 0 123.5 99t91.5 262l41 203 q-15 16 -23.5 21t-27.5 5q-80 0 -146.5 -73t-102.5 -182.5t-36 -225.5z" />
<glyph unicode="A" horiz-adv-x="1349" d="M-26.5 21.5q-2.5 23.5 3.5 41.5q24 0 76.5 21t65.5 43q16 25 26 44.5t23.5 52t19.5 44.5l426 979q10 23 34 49.5t40 26.5q35 0 43 -12l410 -1014q15 -34 31.5 -81t23.5 -64q12 -28 36 -47.5t51 -26.5t43 -9.5t28 -2.5q7 -13 8.5 -40.5t-4.5 -33.5q-18 1 -117 8.5 t-151 7.5q-41 0 -97 -3t-121 -7.5t-84 -5.5q-8 8 -8 41t8 33q77 0 119 36q17 14 17 33q0 8 -30 84.5t-60 148.5l-29 72q-8 9 -14 9q-29 2 -156 2h-37q-137 0 -207 -2q-9 0 -14 -11q-49 -113 -72 -168q-45 -110 -45 -137q0 -32 61 -49.5t93 -17.5q8 -12 7.5 -39.5t-5.5 -34.5 q-140 16 -215 16q-79 0 -219 -16q-6 6 -8.5 29.5zM420 559q0 -6 4 -6q62 -6 166 -6q99 0 160 4q2 0 3.5 2t2.5 4v2l-166 393z" />
<glyph unicode="B" horiz-adv-x="1236" d="M69.5 30q-0.5 27 6.5 38q120 9 129 34q16 41 16 189v735q0 147 -16 188q-2 6 -8.5 10.5t-17 7.5t-20.5 5t-24 3.5t-23 2t-21 1.5t-15 1q-7 11 -6.5 39t6.5 37q90 -6 286 -6q38 0 141.5 3t166.5 3q58 0 113.5 -10.5t108.5 -35t93 -60t64 -90t24 -121.5q0 -56 -25.5 -106.5 t-64 -83.5t-70.5 -53t-57 -30q-10 -6 -10 -10q32 -4 72 -19t84.5 -44.5t81.5 -67t61 -91.5t24 -114q0 -96 -57.5 -182.5t-153.5 -143.5q-55 -33 -133 -48.5t-130 -16.5h-64h-88h-109h-358q-6 9 -6.5 36zM502 213q0 -88 14 -111q17 -24 127 -24q37 0 72 14.5t67.5 44.5 t52 85.5t19.5 129.5q0 60 -13 112.5t-40.5 99t-78 73.5t-118.5 27h-102v-447v-4zM502 741h102q77 0 124.5 62t47.5 172q0 264 -166 264q-25 0 -34.5 -0.5t-27 -2t-26 -6.5t-12.5 -13q-8 -20 -8 -99v-24v-353z" />
<glyph unicode="C" horiz-adv-x="1347" d="M80 643q0 189 93 348t252 250.5t347 91.5q240 0 416 -37q0 -2 33.5 -145t33.5 -158q0 -9 -16.5 -18.5t-34.5 -9.5q-20 0 -28 8q-8 29 -20.5 59t-42.5 70.5t-69.5 71t-106 52t-146.5 21.5q-82 0 -149 -29.5t-111.5 -80t-74.5 -120.5t-43.5 -147.5t-13.5 -164.5 q0 -121 25.5 -230.5t76 -201t135 -145.5t193.5 -54q155 0 248 86q38 34 73 94.5t50 99t19 54.5q43 0 69 -23q0 -30 -31 -163.5t-51 -141.5q-165 -58 -245 -75q-95 -19 -193 -19q-187 0 -344.5 84.5t-250.5 236t-93 336.5z" />
<glyph unicode="D" horiz-adv-x="1521" d="M69.5 30q-0.5 27 6.5 38q120 9 129 34q16 41 16 189v735q0 147 -16 188q-2 6 -8.5 10.5t-17 7.5t-20.5 5t-24 3.5t-23 2t-21 1.5t-15 1q-7 11 -6.5 39t6.5 37q90 -6 286 -6q48 0 158 2.5t150 3.5q351 0 559.5 -172.5t208.5 -476.5q0 -137 -40 -250t-111 -191.5 t-170 -132.5t-214.5 -79t-247.5 -25h-116h-463q-6 9 -6.5 36zM502 279q0 -115 14 -154q9 -21 47.5 -34t79.5 -13q244 0 359.5 139.5t115.5 431.5q0 285 -139 437.5t-369 152.5q-25 0 -34.5 -0.5t-27 -2t-26 -6.5t-12.5 -13q-8 -20 -8 -99v-24v-811v-4z" />
<glyph unicode="E" horiz-adv-x="1202" d="M69.5 30q-0.5 27 6.5 38q120 9 129 34q16 41 16 189v735q0 147 -16 188q-2 6 -8.5 10.5t-17 7.5t-20.5 5t-24 3.5t-23 2t-21 1.5t-15 1q-7 11 -6.5 39t6.5 37q90 -6 286 -6q37 0 170.5 2.5t287.5 5.5t194 4q6 -45 15.5 -94t23 -113.5t18.5 -87.5q-10 -10 -47 -10 q-25 0 -31 16q-38 98 -85.5 149.5t-131.5 51.5h-166q-25 0 -34.5 -0.5t-27 -2t-26 -6.5t-12.5 -13q-8 -20 -8 -99v-24v-359q0 -9 26 -14.5t60 -5.5h104q88 0 119.5 25t56.5 114q3 16 25 16q27 0 37 -10v-385q-6 -6 -35 -6q-26 0 -29 14q-27 104 -69 123q-38 15 -152 15 q-143 0 -143 -29v-309v-4q0 -115 14 -154q8 -20 47.5 -30.5t83.5 -10.5h131q121 0 187 66q56 56 108 190q3 12 27 12q16 0 36.5 -4t24.5 -8q-96 -268 -108 -344q-899 0 -977 -2q-6 9 -6.5 36z" />
<glyph unicode="F" horiz-adv-x="1097" d="M69.5 28q-0.5 27 6.5 38q119 9 129 36q16 41 16 189v735q0 147 -16 188q-2 6 -8.5 10.5t-17 7.5t-20.5 5t-24 3.5t-23 2t-21 1.5t-15 1q-7 11 -6.5 39t6.5 37q90 -6 286 -6q37 0 170.5 2.5t287.5 5.5t194 4q6 -45 15.5 -94t23 -113.5t18.5 -87.5q-10 -10 -47 -10 q-25 0 -31 16q-38 98 -85.5 149.5t-131.5 51.5h-166q-25 0 -34.5 -0.5t-27 -2t-26 -6.5t-12.5 -13q-8 -20 -8 -99v-24v-367q0 -9 26 -14.5t60 -5.5h104q88 0 119.5 25t56.5 114q3 16 25 16q27 0 37 -10v-383q-8 -8 -35 -8q-26 0 -29 14q-27 104 -69 123q-35 14 -152 14 q-143 0 -143 -28v-293v-27q0 -125 14 -162q10 -26 148 -36q7 -11 6.5 -38t-6.5 -36q-136 14 -306 14q-145 0 -282 -14q-6 9 -6.5 36z" />
<glyph unicode="G" horiz-adv-x="1443" d="M80 643q0 138 55 265.5t147.5 220.5t221 148.5t268.5 55.5q240 0 416 -37q0 -2 33.5 -145t33.5 -158q0 -9 -16.5 -18.5t-34.5 -9.5q-20 0 -28 8q-6 24 -16 48t-28.5 57.5t-48 61.5t-68 53t-95.5 39.5t-125 14.5q-86 0 -155 -31t-113 -82.5t-73.5 -123.5t-42 -150 t-12.5 -166q0 -95 16.5 -184.5t51.5 -169t84 -139t119.5 -94.5t152.5 -35q84 0 158 32q16 8 16 29v234v14q0 51 -10 88q-5 17 -22 28.5t-40 16.5t-39 6.5t-30 1.5q-8 0 -8.5 33t6.5 41q34 -1 96 -4.5t113 -5.5t96 -2q37 0 79 2t93 5.5t76 4.5q4 -13 4.5 -31t-1.5 -30.5 t-5 -12.5q-15 0 -53.5 -8.5t-53.5 -17.5q-9 -6 -16.5 -31.5t-7.5 -54.5v-213q0 -10 6 -33t6 -27q0 -25 -69 -51q-90 -33 -137 -49t-137 -33.5t-175 -17.5q-188 0 -345.5 84.5t-250 235.5t-92.5 337z" />
<glyph unicode="H" horiz-adv-x="1480" d="M69.5 28q-0.5 27 6.5 38q119 9 129 36q16 41 16 189v735q0 147 -16 188q-10 26 -129 35q-7 11 -6.5 38t6.5 36q117 -12 286 -12q166 0 283 12q6 -9 6.5 -36t-6.5 -38q-119 -9 -129 -35q-14 -37 -14 -161v-27v-285l2 -6q234 -6 244 -6q17 0 233 6q4 4 4 8l-2 283 q0 147 -16 188q-10 26 -127 35q-7 11 -6.5 38t6.5 36q117 -12 284 -12q166 0 283 12q6 -9 6.5 -36t-6.5 -38q-119 -9 -129 -35q-14 -37 -14 -161v-27v-735v-27q0 -125 14 -162q10 -27 129 -36q7 -11 6.5 -38t-6.5 -36q-137 14 -287 14q-144 0 -280 -14q-6 9 -6.5 36t6.5 38 q117 9 127 36q16 41 16 189v330l-4 10q-148 4 -231 4q-234 0 -246 -8v-9v-327v-27q0 -125 14 -162q10 -27 129 -36q7 -11 6.5 -38t-6.5 -36q-137 14 -287 14q-145 0 -282 -14q-6 9 -6.5 36z" />
<glyph unicode="I" horiz-adv-x="718" d="M69.5 28q-0.5 27 6.5 38q119 9 129 36q16 41 16 189v735q0 147 -16 188q-10 26 -129 35q-7 11 -6.5 38t6.5 36q117 -12 286 -12q166 0 283 12q6 -9 6.5 -36t-6.5 -38q-119 -9 -129 -35q-14 -37 -14 -161v-27v-735v-27q0 -125 14 -162q10 -27 129 -36q7 -11 6.5 -38 t-6.5 -36q-137 14 -287 14q-145 0 -282 -14q-6 9 -6.5 36z" />
<glyph unicode="J" horiz-adv-x="688" d="M-250 -313q0 51 37 92t84 41q30 0 55.5 -17t57.5 -49l12 -12l12.5 -12.5t11.5 -11t12 -10.5t11 -8t12 -7t11 -4t12 -2q19 0 34.5 7t28 22.5t22 33t16.5 47.5t12 56.5t8.5 68.5t5.5 75.5t2.5 85t1 90t0.5 97.5v756q0 147 -16 188q-10 26 -130 35q-7 11 -6.5 38t6.5 36 q117 -12 287 -12q166 0 283 12q6 -9 6.5 -36t-6.5 -38q-119 -9 -129 -35q-17 -44 -17 -188v-739q0 -341 -158 -532t-433 -191q-27 0 -62.5 12.5t-50.5 24.5q0 1 -10 16t-12.5 20.5t-6.5 20t-4 29.5z" />
<glyph unicode="K" horiz-adv-x="1437" d="M69.5 28q-0.5 27 6.5 38q119 9 129 36q16 41 16 189v735q0 147 -16 188q-10 26 -129 35q-7 11 -6.5 38t6.5 36q117 -12 286 -12q166 0 283 12q6 -9 6.5 -36t-6.5 -38q-119 -9 -129 -35q-14 -37 -14 -161v-27v-352q137 109 207 182q21 22 63.5 64.5t58 58.5t43.5 46 t49.5 56.5t45.5 59.5q20 27 20 65q0 45 -112 45q-7 12 -8.5 35.5t3.5 36.5q222 -12 261 -12q136 0 247 12q5 -10 4 -35.5t-8 -34.5q-154 -17 -225 -88q-227 -229 -377 -387q-15 -18 -6 -33l360 -485q41 -53 89.5 -92t86 -58t75.5 -29.5t54 -12.5t27 -2q6 -13 4.5 -40.5 t-4.5 -33.5q-114 -8 -262 -8q-105 0 -183 44t-122 105q-29 41 -174.5 234t-177.5 237q-8 8 -21 8q-12 0 -18 -12v-309v-27q0 -125 14 -162q10 -27 129 -36q7 -11 6.5 -38t-6.5 -36q-137 14 -287 14q-145 0 -282 -14q-6 9 -6.5 36z" />
<glyph unicode="L" horiz-adv-x="1157" d="M69.5 30q-0.5 27 6.5 38q120 9 129 34q16 41 16 189v735q0 147 -16 188q-10 26 -129 35q-7 11 -6.5 38t6.5 36q117 -12 286 -12q166 0 283 12q6 -9 6.5 -36t-6.5 -38q-119 -9 -129 -35q-14 -37 -14 -161v-27v-743v-4q0 -115 14 -154q8 -20 47.5 -30.5t83.5 -10.5h131 q121 0 187 66q56 56 108 190q3 12 27 12q16 0 36.5 -4t24.5 -8q-96 -268 -108 -344h-691q-63 0 -128 -0.5t-107.5 -1t-50.5 -0.5q-6 9 -6.5 36z" />
<glyph unicode="M" horiz-adv-x="1812" d="M34.5 25q-0.5 23 4.5 38q33 0 94 19.5t76 52.5q13 33 22 176q5 103 13 290t14.5 363t7.5 197q0 31 -10 45q-11 16 -55.5 29.5t-73.5 13.5q-8 13 -6 41.5t6 32.5q34 -1 72.5 -4t70 -4.5t72.5 -1.5q11 0 211 10q169 -377 377 -848q6 -4 8 -4q1 0 4.5 5t3.5 7 q150 369 236 609q14 38 30.5 94.5t26.5 93.5l10 37q54 -6 215 -6q30 0 69 2t88 5.5t77 4.5q7 -7 11 -35t-3 -41q-19 0 -55 -5.5t-49 -14.5q-16 -11 -22 -27.5t-5 -54.5q2 -45 12 -370t17 -472q0 -4 1 -25t1.5 -26.5t1.5 -23.5t2 -24.5t2.5 -21.5t3 -23t3.5 -19.5t5 -20.5 t6 -17q8 -19 53.5 -27.5t73.5 -8.5q6 -14 7 -36.5t-3 -37.5q-17 1 -118.5 8.5t-153.5 7.5q-54 0 -174.5 -7.5t-140.5 -8.5q-6 6 -8 34t3 40q32 0 81 9.5t61 28.5q16 26 16 70q0 86 -2 123l-20 696q0 54 -15 54q-4 0 -10 -15l-352 -952q-7 -20 -34.5 -52t-51.5 -32 q-7 0 -19 4l-445 1047q-21 -612 -26 -779v-16q0 -26 2 -63q3 -49 6 -60q8 -27 77 -45t98 -18q5 -11 6.5 -34.5t-2.5 -39.5q-23 1 -110 8.5t-138 7.5q-52 0 -133.5 -7t-116.5 -9q-6 10 -6.5 33z" />
<glyph unicode="N" horiz-adv-x="1519" d="M57.5 18.5q-0.5 18.5 1.5 33t4 14.5q32 0 91 14.5t69 38.5q10 23 17.5 82.5t7.5 117.5v709q0 49 -9 101t-28 79q-12 18 -58 29.5t-73 11.5q-8 0 -9.5 33.5t5.5 40.5q183 -12 225 -12q124 0 219 12q27 -55 103 -158.5t149 -193.5t201 -245t188 -230q4 14 4 82v374 q0 67 -6 151t-16 105q-10 24 -66 33.5t-96 9.5q-2 0 -4 14.5t-1.5 33t5.5 26.5q32 -1 112 -7.5t132 -6.5t145.5 6.5t106.5 7.5q4 -12 4 -37.5t-8 -38.5q-21 0 -48.5 -1.5t-69 -13t-48.5 -30.5q-7 -20 -13 -103.5t-6 -142.5v-679q0 -73 8 -281q-8 -8 -51 -8q-26 0 -61 47 l-815 1001v-725q0 -52 7 -110.5t15 -81.5q9 -25 71.5 -39t92.5 -14q8 -13 8 -38.5t-4 -37.5q-23 1 -112 8.5t-140 7.5t-129.5 -7t-114.5 -9q-5 8 -5.5 26.5z" />
<glyph unicode="O" horiz-adv-x="1519" d="M80 655q0 137 57 263.5t150.5 216.5t218 144t254.5 54t254.5 -54t218 -144t150.5 -216.5t57 -263.5q0 -183 -96.5 -339.5t-253 -246t-330.5 -89.5t-330.5 89.5t-253 246t-96.5 339.5zM399 725q0 -96 13 -186t43.5 -177t76 -152t115.5 -104.5t156 -39.5q85 0 149 46 t99.5 123.5t52 164.5t16.5 184q0 95 -13.5 186t-44.5 178.5t-76.5 153t-116 105.5t-156.5 40q-85 0 -148 -46.5t-98 -124.5t-51.5 -166t-16.5 -185z" />
<glyph unicode="P" horiz-adv-x="1169" d="M69.5 28q-0.5 27 6.5 38q119 9 129 36q16 41 16 189v735q0 147 -16 188q-2 6 -8.5 10.5t-17 7.5t-20.5 5t-24 3.5t-23 2t-21 1.5t-15 1q-7 11 -6.5 39t6.5 37q90 -6 286 -6q38 0 142 3t168 3q127 0 229.5 -41t165.5 -123t63 -192q0 -116 -58.5 -207t-149 -138t-193.5 -47 q-47 0 -85.5 16.5t-53.5 31.5t-15 49q0 14 9 14q27 -8 82 -8q74 0 121 72.5t47 187.5q0 122 -63.5 212.5t-160.5 90.5q-25 0 -34.5 -0.5t-27 -2t-26 -6.5t-12.5 -13q-8 -20 -8 -99v-24v-803v-27q0 -125 14 -162q10 -27 129 -36q7 -11 6.5 -38t-6.5 -36q-137 14 -287 14 q-145 0 -282 -14q-6 9 -6.5 36z" />
<glyph unicode="Q" horiz-adv-x="1519" d="M80 655q0 137 57 263.5t150.5 216.5t218 144t254.5 54t254.5 -54t218 -144t150.5 -216.5t57 -263.5q0 -219 -136 -396t-339 -245q47 -23 115 -61.5t102 -54.5t94 -30.5t133 -14.5q35 0 67.5 4t52 8t23.5 4q10 0 24 -8t21 -19l5 -10q-93 -48 -208.5 -83.5t-201.5 -35.5 q-61 0 -123.5 23t-118.5 59.5t-109.5 74.5t-117 75t-121.5 55q-222 58 -372 241t-150 414zM399 725q0 -96 13 -186t43.5 -177t76 -152t115.5 -104.5t156 -39.5q85 0 149 46t99.5 123.5t52 164.5t16.5 184q0 95 -13.5 186t-44.5 178.5t-76.5 153t-116 105.5t-156.5 40 q-85 0 -148 -46.5t-98 -124.5t-51.5 -166t-16.5 -185z" />
<glyph unicode="R" horiz-adv-x="1384" d="M69.5 28q-0.5 27 6.5 38q119 9 129 36q16 41 16 189v735q0 147 -16 188q-2 6 -8.5 10.5t-17 7.5t-20.5 5t-24 3.5t-23 2t-21 1.5t-15 1q-7 11 -6.5 39t6.5 37q90 -6 286 -6q38 0 142 3t168 3q194 0 315 -95t121 -270q0 -58 -28.5 -115.5t-71 -99t-87.5 -70t-83 -38.5 q64 -88 136 -181t112 -142l40 -50q41 -53 89.5 -92t86 -58t75.5 -29.5t54 -12.5t27 -2q6 -13 4.5 -40.5t-4.5 -33.5q-114 -8 -262 -8q-105 0 -183 44t-122 105l-324 434q-21 31 -37 31h-28v-307v-27q0 -125 14 -162q10 -27 129 -36q7 -11 6.5 -38t-6.5 -36q-137 14 -287 14 q-145 0 -282 -14q-6 9 -6.5 36zM502 676h90q89 0 154 73.5t65 186.5q0 64 -8.5 114.5t-30 95t-62.5 69t-100 24.5q-25 0 -34.5 -0.5t-27 -2t-26 -6.5t-12.5 -13q-8 -20 -8 -99v-24v-418z" />
<glyph unicode="S" horiz-adv-x="1040" d="M94 373q5 8 27 17t31 9q24 0 26 -14q7 -43 33.5 -96.5t67 -105t100 -86t123.5 -34.5q84 0 139 48t55 147q0 26 -9.5 52.5t-22 48t-37.5 47.5t-41.5 42t-49.5 41t-47 34.5t-49.5 33t-40.5 27.5q-122 83 -164 120q-118 107 -125 252q-1 11 -1 23q0 100 63.5 184t161 130 t201.5 46q42 0 90 -6t71.5 -10.5t90.5 -19.5t83 -19q14 -149 23 -332q-9 -12 -23 -12h-2q-53 0 -57 14q-5 35 -19 74.5t-37.5 80t-53.5 73t-71 53t-85 20.5q-69 0 -119.5 -41.5t-50.5 -132.5q0 -36 19.5 -74t45 -67.5t71 -66.5t74.5 -57.5t79 -53.5q9 -6 39.5 -26t42 -28 t39 -28.5t40 -32.5t35 -34.5t33.5 -40.5t26 -44.5t21.5 -52t12 -58t5.5 -67.5q0 -106 -63.5 -192t-163 -132t-209.5 -46q-160 0 -381 53q-13 59 -28 173t-19 167z" />
<glyph unicode="T" horiz-adv-x="1267" d="M16 979l54 367q12 6 24 6t35 -9t66 -18.5t106 -9.5h666q63 0 106 9.5t66 18.5t35 9t24 -6l53 -367q-4 -4 -23.5 -9t-33.5 -5q-18 0 -20 10q-16 100 -77.5 176t-135.5 76h-187v-936q0 -145 17 -189q10 -27 127 -36q7 -11 6.5 -38t-6.5 -36q-136 14 -285 14 q-147 0 -283 -14q-6 9 -6.5 36t6.5 38q117 9 127 36q17 44 17 189v936h-187q-74 0 -135.5 -76t-77.5 -176q-2 -10 -20 -10q-14 0 -34 5t-24 9z" />
<glyph unicode="U" horiz-adv-x="1458" d="M38.5 1287q0.5 27 6.5 36q117 -12 287 -12q163 0 280 12q6 -9 6.5 -36t-6.5 -38q-117 -9 -127 -35q-16 -41 -16 -188v-367q0 -118 9 -193.5t40 -148.5q82 -190 305 -190q62 0 118.5 28.5t103.5 85t74.5 154t27.5 223.5v340q0 66 -8.5 140t-20.5 104q-15 37 -149 47 q-7 11 -6.5 38t6.5 36q141 -12 250 -12q39 0 77 2t82.5 5.5t73.5 4.5q6 -9 6.5 -36t-6.5 -38l-16 -1q-15 -1 -24 -2t-26.5 -3t-29.5 -5t-25 -8t-21.5 -12t-11.5 -16q-12 -30 -20 -102.5t-8 -138.5v-390q0 -148 -44.5 -263.5t-121 -185t-173.5 -105t-208 -35.5 q-131 0 -241.5 44t-180.5 132q-113 142 -113 444v424q0 147 -16 188q-10 26 -127 35q-7 11 -6.5 38z" />
<glyph unicode="V" horiz-adv-x="1366" d="M-12.5 1287q0.5 27 6.5 36q117 -12 287 -12q165 0 282 12q6 -9 6.5 -36t-6.5 -38q-1 0 -11.5 -0.5t-15.5 -1t-17 -2t-19 -3.5t-17.5 -4.5t-17 -6.5t-13 -9t-9.5 -11.5t-3 -14.5q0 -41 49 -149l297 -674q245 614 265 669q2 7 11 31t13 36t10 31.5t8.5 34.5t2.5 27 q0 35 -162 47q-7 11 -6.5 38t6.5 36q141 -12 240 -12q52 0 128.5 5.5t94.5 6.5q6 -9 6.5 -36t-6.5 -38q-2 0 -17.5 -1t-25.5 -1.5t-27 -3t-29 -6t-23.5 -9.5t-17.5 -14q-11 -14 -22.5 -35.5t-18 -36t-20.5 -47.5t-20 -46q-91 -221 -222 -529.5t-194 -460.5 q-12 -27 -43.5 -54.5t-50.5 -27.5q-8 0 -12.5 3.5t-9.5 13t-7 12.5l-436 1014q-13 30 -37.5 87.5t-32.5 76.5q-16 33 -58.5 47.5t-78.5 17.5q-7 11 -6.5 38z" />
<glyph unicode="W" horiz-adv-x="1900" d="M-11.5 1286.5q0.5 26.5 7.5 36.5q117 -12 285 -12q165 0 282 12q6 -9 6.5 -36t-6.5 -38l-11 -1q-11 0 -15.5 -0.5t-16.5 -2t-19 -3.5t-17.5 -4.5t-16.5 -6.5t-12.5 -9t-9.5 -11.5t-3 -14.5q0 -33 47 -149l197 -545q219 618 266 747q11 31 28 52.5t34 21.5q13 0 24 -31 l342 -864q175 551 195 614q2 7 12.5 38.5t14.5 46t9 37.5t5 38q0 35 -156 47q-7 11 -6.5 38t6.5 36q141 -12 238 -12q52 0 128.5 5.5t94.5 6.5q6 -9 6.5 -36t-6.5 -38q-2 0 -17.5 -1t-25.5 -1.5t-27 -3t-28.5 -6t-23 -9.5t-17.5 -14q-49 -65 -82 -165q-98 -296 -328 -969 q-14 -39 -38 -71t-42 -32t-39 29l-329 830q-156 -460 -254 -748q-11 -31 -32.5 -71t-37.5 -40q-18 0 -39 29l-360 1014q-9 26 -21.5 55.5t-28.5 65t-20 43.5q-16 33 -57.5 47.5t-77.5 17.5q-8 11 -7.5 37.5z" />
<glyph unicode="X" horiz-adv-x="1419" d="M-18 28.5q0 27.5 8 37.5q13 0 33 2.5t56 10t71 28.5t57 51l356 485l-280 430q-11 16 -35.5 54.5t-41.5 61.5t-30 32q-19 13 -64.5 20.5t-72.5 7.5q-7 0 -7 33.5t7 40.5q245 -10 313 -10q87 0 287 10q4 -9 3.5 -41.5t-7.5 -32.5q-31 0 -67.5 -10.5t-37.5 -30.5 q0 -22 15 -45l223 -336q29 38 94.5 118t108.5 136.5t57 85.5q6 12 6 21q0 25 -47.5 43t-101.5 18q-8 0 -8.5 33.5t6.5 40.5q105 -12 266 -12q155 0 240 12q5 -9 4.5 -41.5t-7.5 -32.5q-14 0 -31.5 -2.5t-52 -11t-72 -32t-67.5 -58.5l-342 -408q128 -193 253.5 -376 t148.5 -209q37 -45 98.5 -65.5t99.5 -20.5q6 -14 6.5 -37.5t-6.5 -36.5q-240 12 -319 12q-67 0 -181.5 -5.5t-134.5 -6.5q-7 8 -6.5 41t8.5 33q27 0 70 16.5t43 40.5q0 11 -6 20l-266 404q-222 -294 -275 -381q-16 -26 -16 -35q0 -32 55 -48.5t111 -16.5q7 -10 9 -33.5 t-3 -40.5q-198 12 -264 12q-46 0 -89.5 -2t-93 -5.5t-73.5 -4.5q-8 9 -8 36.5z" />
<glyph unicode="Y" horiz-adv-x="1247" d="M-0.5 1287q0.5 27 6.5 36q117 -12 287 -12q165 0 282 12q6 -9 6.5 -36t-6.5 -38l-11 -1q-11 0 -15.5 -0.5t-16.5 -2t-19 -3.5t-17.5 -4.5t-17 -6.5t-13 -9t-9.5 -11.5t-3 -14.5t14 -33l240 -440h1q10 0 84 131q78 138 166 301q11 22 11 47q0 36 -148 47q-7 11 -6.5 38 t6.5 36q141 -12 226 -12q52 0 128.5 5.5t94.5 6.5q6 -9 6.5 -36t-6.5 -38q-1 0 -11 -0.5t-15.5 -1t-17 -2t-19.5 -3t-19.5 -4t-20 -6t-17.5 -8t-16 -11t-12 -13.5q-52 -79 -189.5 -303t-174.5 -301q-10 -23 -10 -39v-266v-27q0 -125 14 -162q10 -27 129 -36q7 -11 6.5 -38 t-6.5 -36q-137 14 -287 14q-144 0 -280 -14q-6 9 -6.5 36t6.5 38q117 9 127 36q16 41 16 189v276q0 17 -12 41q-23 48 -85.5 164.5t-113.5 208.5l-51 92q-11 19 -29.5 53.5t-32.5 57.5q-20 32 -62 47.5t-75 17.5q-7 11 -6.5 38z" />
<glyph unicode="Z" horiz-adv-x="1280" d="M41 43l793 1178h-367q-31 0 -58.5 -5t-49 -11t-41 -20t-32.5 -23.5t-27.5 -30.5t-22 -32t-18.5 -37.5t-15 -36.5t-14 -39.5t-13 -37.5q-4 -12 -24 -12q-50 0 -60 10q63 323 72 377q21 -5 120 -8t142 -4l281 2q254 3 464 18q6 -1 12.5 -25t6.5 -40q-2 -7 -196 -300 t-387 -582l-193 -290h430q120 0 190 70q63 63 107 176q3 12 28 12q16 0 36 -4t24 -8q-7 -23 -52.5 -155.5t-56.5 -182.5l-1028 -2q-12 0 -26 9t-21 19.5t-4 14.5z" />
<glyph unicode="[" horiz-adv-x="739" d="M219 -737v2150q0 31 31 45q4 2 8 2q230 0 410 33q9 0 12 -12v-6q0 -15 -18 -52l-3 -2q-42 -22 -184 -45q-10 -2 -23.5 -4.5t-17.5 -3.5v-2060q41 -8 53 -10q126 -22 172 -43q13 -6 19 -31q2 -8 2 -23q0 -13 -12 -16q-172 31 -410 31q-31 3 -37 36q0 2 -1 5.5t-1 5.5z" />
<glyph unicode="\" horiz-adv-x="704" d="M25 1442q3 14 36 14q47 0 66 -12q23 -14 33 -31l518 -1814l-4 -5q-4 -4 -10 -6q-12 -4 -23 -4q-42 0 -72 15q-25 12 -28 28z" />
<glyph unicode="]" horiz-adv-x="739" d="M59 -799q0 7 4 23q6 26 17 31q46 21 172 43q12 2 53 10v2060q-4 1 -17.5 3.5t-23.5 4.5q-142 23 -184 45q-2 0 -2 2q-19 40 -19 52q0 1 1 3t1 3q3 12 11 12q180 -33 409 -33q7 0 11 -2q28 -12 28 -45v-2150q0 -2 -1 -5.5t-1 -5.5q-6 -33 -37 -36q-237 0 -409 -31 q-13 3 -13 16z" />
<glyph unicode="^" horiz-adv-x="780" d="M76 874q39 60 74 118t55.5 93.5t62.5 109t66 116.5q14 26 39 26t39 -26q32 -56 81.5 -145.5t86.5 -152.5t86 -139q0 -16 -12 -26t-25 -10q-52 48 -116 116.5t-102 113.5l-38 44q-139 -165 -256 -274q-14 0 -27.5 10t-13.5 26z" />
<glyph unicode="_" horiz-adv-x="985" d="M16 -66q9 93 29 93h899q8 0 8 -11q0 -18 -20 -90q-2 -5 -5 -8t-5 -4h-2h-889q-15 0 -15 20z" />
<glyph unicode="`" horiz-adv-x="497" d="M88 1315q0 18 23 37.5t69 19.5q52 0 68 -16q34 -39 79.5 -105.5t76 -116.5t30.5 -55q0 -10 -11.5 -23.5t-21.5 -13.5q-12 0 -88 51t-150.5 119t-74.5 103z" />
<glyph unicode="a" horiz-adv-x="942" d="M61 227q0 56 32 101.5t73 58.5q16 5 371 141v95q0 78 -34 138t-85 60q-27 0 -47 -12.5t-33 -39t-20.5 -51t-16.5 -65.5q-20 -88 -111 -88q-41 0 -72.5 28.5t-31.5 68.5q0 28 29 81q39 39 153.5 96.5t227.5 57.5q127 0 214 -86t87 -219v-375q0 -39 13 -60.5t34 -21.5 q10 0 20 3t16 6t13 7t8 5q14 -7 14 -33q0 -18 -8 -31q-21 -20 -47.5 -40t-73 -42t-84.5 -22q-47 0 -92 31.5t-59 68.5q-24 -22 -102 -63t-125 -41q-110 0 -186.5 75t-76.5 168zM332 248q1 -59 39.5 -91t83.5 -32q33 0 57.5 15t24.5 26v280q-7 -3 -58.5 -25t-75.5 -38 q-37 -27 -55 -63q-16 -33 -16 -65v-7z" />
<glyph unicode="b" horiz-adv-x="1083" d="M-4.5 1293q1.5 16 6.5 20q62 6 124.5 16t107 20.5t80 20t55 15.5t20.5 6q8 -1 17.5 -13.5t11.5 -21.5q-21 -90 -21 -203v-324q1 -32 13 -24q37 30 94.5 61t101.5 31q175 0 295.5 -121.5t120.5 -304.5q0 -93 -30.5 -173t-83 -136.5t-121 -97.5t-145 -60.5t-155.5 -19.5 q-59 0 -145.5 23.5t-105.5 23.5q-39 0 -74 -15q-6 0 -27.5 20.5t-21.5 29.5q24 63 24 237v813q0 61 -14 96q-7 16 -49.5 25.5t-71.5 9.5q-4 0 -6 15t-0.5 31zM397 197q0 -53 35 -89t96 -36q60 0 109 49.5t73.5 122t24.5 147.5q0 192 -62.5 275.5t-166.5 83.5q-64 0 -103 -43 q-6 -6 -6 -19v-491z" />
<glyph unicode="c" horiz-adv-x="892" d="M61 399q0 90 43.5 180.5t114 160t167.5 113.5t198 44q141 0 202 -37q39 -43 39 -96q0 -47 -31.5 -86t-82.5 -39q-15 0 -29 5t-28 17t-21.5 19.5t-23 26t-19.5 22.5q-57 64 -135 64q-42 0 -75.5 -44t-50 -106.5t-16.5 -126.5q0 -81 18 -145.5t47 -105t67.5 -67.5 t77.5 -37.5t79 -10.5q54 0 100.5 17t71 36t51.5 47q10 -3 17.5 -15t7.5 -22q0 -28 -6 -37q-17 -25 -47 -54.5t-76 -62.5t-109.5 -55t-130.5 -22q-113 0 -207.5 48.5t-153.5 145t-59 223.5z" />
<glyph unicode="d" horiz-adv-x="1093" d="M63 399q0 97 37 181t95 140t129.5 96.5t139 58.5t124.5 18q48 0 80 -4q10 0 10 45v182q0 61 -14 96q-7 16 -49 25.5t-70 9.5q-4 0 -6 15t-0.5 31t6.5 20q62 6 124 16t106.5 20.5t79.5 20t54.5 15.5t20.5 6q8 -1 18.5 -14t12.5 -21q-23 -90 -23 -203v-938q0 -56 18 -76 q16 -18 86 -18h5q6 -6 6 -27q0 -20 -13 -39q-51 -5 -132 -22.5t-141.5 -32t-70.5 -14.5q-7 0 -12.5 13.5t-5.5 35.5v31q0 14 -6 10q-132 -92 -246 -92q-147 0 -255 120.5t-108 294.5zM348 485q0 -166 55 -269t148 -103q40 0 83.5 26t43.5 47v514q0 30 -48 60.5t-108 30.5 q-89 0 -131.5 -87t-42.5 -219z" />
<glyph unicode="e" horiz-adv-x="919" d="M63 399q0 124 63 239t166.5 186t215.5 71q93 0 164.5 -30.5t110 -78t57 -97t18.5 -97.5q0 -33 -15 -58t-38 -26q-193 -17 -481 -25q0 -80 21 -142t51.5 -97t70.5 -57.5t73 -29.5t64 -7q54 0 100.5 17t71 36t51.5 47q10 -3 17.5 -15t7.5 -22q0 -28 -6 -37 q-17 -25 -47 -54.5t-76 -62.5t-109.5 -55t-130.5 -22q-113 0 -207.5 48.5t-153.5 145t-59 223.5zM326 563h5q23 -1 113 5q104 6 140 12q26 2 26 32q0 80 -30.5 139.5t-92.5 59.5q-42 0 -75 -28.5t-50.5 -70.5t-26.5 -81t-9 -68z" />
<glyph unicode="f" horiz-adv-x="708" d="M45 758q22 32 66 67h88v62q0 98 43.5 194.5t107 164t134.5 109.5t128 42q51 0 127 -21q78 -40 78 -92q0 -54 -26.5 -95.5t-73.5 -41.5q-21 0 -41.5 8.5t-31.5 17t-32 26.5l-28 24q-36 28 -80 28q-25 0 -42.5 -47t-17.5 -117q0 -125 9 -262h233q12 0 12 -26 q0 -13 -15.5 -35t-31.5 -33h-192v-440v-27q0 -125 14 -162q10 -27 129 -36q7 -11 6.5 -38t-6.5 -36q-136 14 -274 14t-275 -14q-6 9 -6.5 36t6.5 38q119 9 129 36q17 44 17 189v440h-144q-10 4 -10 27z" />
<glyph unicode="g" horiz-adv-x="954" d="M47 -207q0 55 52.5 108.5t117.5 86.5q-50 13 -84.5 72t-34.5 124q0 26 50.5 67.5t115.5 78.5q-86 34 -136 103t-50 155q0 125 104.5 212t257.5 87q141 0 213 -51q7 -7 13 -7l249 25q23 -8 23 -23q0 -13 -17.5 -51.5t-31.5 -48.5q-53 5 -113 12q-12 0 -12 -6 q43 -56 43 -139q0 -125 -104.5 -213t-258.5 -88q-60 0 -104 8q-47 -37 -47 -61q0 -22 28 -35.5t66 -13.5h59q178 0 205 -2q65 -4 118.5 -29t84.5 -60.5t47.5 -70.5t16.5 -62q0 -117 -77.5 -211.5t-199 -145t-258.5 -50.5q-148 0 -242 64t-94 165zM268 -117 q0 -96 66.5 -151.5t173.5 -55.5q55 0 98 11t68 28t41.5 40t22 44t5.5 43q0 61 -62 95t-161 34h-221q-31 -35 -31 -88zM319 614q0 -61 13.5 -113.5t47.5 -91t83 -38.5q24 0 42 7t28.5 23t17 31t9 41t3 41.5t0.5 44.5v10q0 45 -6.5 85t-20.5 77t-41.5 58.5t-64.5 21.5t-61 -17 t-34 -49.5t-13 -60.5t-3 -70z" />
<glyph unicode="h" horiz-adv-x="1165" d="M26.5 28q-0.5 27 6.5 38q119 9 129 36q14 37 14 162v27v825q0 61 -14 96q-7 16 -49 25.5t-70 9.5q-4 0 -6 15t-0.5 31t6.5 20q62 6 124 16t106.5 20.5t79.5 20t54.5 15.5t20.5 6q8 -1 18.5 -14t12.5 -21q-23 -125 -23 -205v-408q0 -10 2 -12q5 0 15 10q46 53 132 102.5 t150 49.5q68 0 116 -19.5t78.5 -55.5t48 -96t24 -131t6.5 -171v-129v-27q0 -125 14 -162q10 -27 129 -36q7 -11 6.5 -38t-6.5 -36q-137 14 -274 14q-113 0 -250 -14q-6 9 -6.5 36t6.5 38q93 7 104 36q17 44 17 189v158q0 57 -6.5 104.5t-21.5 88.5t-42.5 64t-65.5 23 q-58 0 -117 -39.5t-59 -71.5v-327q0 -145 17 -189q10 -28 114 -36q7 -11 6.5 -38t-6.5 -36q-137 14 -260 14q-137 0 -274 -14q-6 9 -6.5 36z" />
<glyph unicode="i" horiz-adv-x="628" d="M52.5 28q-0.5 27 6.5 38q117 9 127 36q17 44 17 189v229q0 127 -19 164q-10 20 -56 30.5t-69 10.5q-5 3 -5 32t7 29q105 8 214.5 40.5t175.5 66.5q10 -3 22 -16.5t12 -18.5q-4 -12 -11 -52.5t-9 -62.5q-2 -43 -2 -125v-327q0 -148 16 -189q11 -28 113 -36q7 -11 6.5 -38 t-6.5 -36q-136 14 -260 14q-136 0 -273 -14q-6 9 -6.5 36zM168 1233q0 60 42.5 101.5t102.5 41.5t103 -41.5t43 -101.5t-43 -103t-103 -43t-102.5 43t-42.5 103z" />
<glyph unicode="j" horiz-adv-x="571" d="M-25 -401q0 12 2 14q10 5 24.5 15t49 49.5t60 91.5t46.5 147t21 211v393q0 129 -18 164q-10 20 -56 30.5t-69 10.5q-5 3 -5 32t7 29q104 8 213 40.5t176 66.5q10 -3 22.5 -16.5t12.5 -18.5q-5 -12 -12.5 -53t-8.5 -62q-2 -43 -2 -125v-378q0 -304 -96 -445 q-66 -94 -173.5 -162.5t-164.5 -68.5q-29 17 -29 35zM143 1233q0 61 44 104t106 43q61 0 104 -43t43 -104q0 -62 -43 -106t-104 -44t-105.5 44.5t-44.5 105.5z" />
<glyph unicode="k" horiz-adv-x="1179" d="M26.5 28q-0.5 27 6.5 38q119 9 129 36q14 37 14 162v27v825q0 61 -14 96q-7 16 -49 25.5t-70 9.5q-4 0 -6 15t-0.5 31t6.5 20q62 6 124 16t106.5 20.5t79.5 20t54.5 15.5t20.5 6q8 -1 18.5 -14t12.5 -21q-23 -125 -23 -205l-2 -680q52 18 152 102q102 89 138 129t36 64 q0 17 -45.5 30t-81.5 15q-5 13 -4 39t8 29q178 -9 262 -9q42 0 118 5t103 6q9 -15 6 -40t-12 -30q-126 -12 -196 -63q-19 -14 -56 -47t-100 -90.5t-109 -98.5q82 -96 167 -188t116 -127q40 -44 74 -71t65.5 -38t50.5 -13.5t50 -2.5q7 -21 5.5 -37t-5.5 -23q-25 -9 -86 -16.5 t-117 -7.5q-85 0 -157 32t-118 86q-137 148 -235 271q-4 5 -10.5 11t-11.5 10l-5 3v-110q0 -145 17 -189q10 -27 129 -36q7 -11 6.5 -38t-6.5 -36q-136 14 -275 14q-137 0 -274 -14q-6 9 -6.5 36z" />
<glyph unicode="l" horiz-adv-x="610" d="M26.5 28q-0.5 27 6.5 38q119 9 129 36q14 37 14 162v27v825q0 61 -14 96q-7 16 -49 25.5t-70 9.5q-4 0 -6 15t-0.5 31t6.5 20q62 6 124 16t106.5 20.5t79.5 20t54.5 15.5t20.5 6q8 -1 18.5 -14t12.5 -21q-23 -125 -23 -205v-860q0 -145 17 -189q10 -27 129 -36 q7 -11 6.5 -38t-6.5 -36q-136 14 -275 14q-137 0 -274 -14q-6 9 -6.5 36z" />
<glyph unicode="m" horiz-adv-x="1765" d="M52.5 28q-0.5 27 6.5 38q117 9 127 36q17 44 17 189v229q0 127 -19 164q-10 20 -56 30.5t-69 10.5q-5 3 -5 32t7 29q105 8 214.5 40.5t175.5 66.5q10 -3 22 -16.5t12 -18.5q-4 -11 -13 -62t-7 -53q0 -10 2 -12q4 0 14 10q46 53 130.5 102.5t148.5 49.5q97 0 155 -39 t93 -133q69 68 165 120t162 52q68 0 116 -19.5t78.5 -55.5t48 -96t24 -131t6.5 -171v-129v-27q0 -125 14 -162q10 -27 129 -36q7 -11 6.5 -38t-6.5 -36q-137 14 -274 14q-113 0 -250 -14q-6 9 -6.5 36t6.5 38q93 7 104 36q17 44 17 189v158q0 57 -6.5 104.5t-21.5 88.5 t-42.5 64t-65.5 23q-59 0 -123.5 -38t-64.5 -70v-13q8 -110 8 -188v-129q0 -145 17 -189q10 -27 125 -36q7 -11 6.5 -38t-6.5 -36q-136 14 -271 14q-118 0 -254 -14q-6 9 -6.5 36t6.5 38q98 7 109 36q14 37 14 162v27v158q0 280 -133 280q-58 0 -117 -39.5t-59 -71.5v-327 q0 -148 16 -189q11 -28 113 -36q7 -11 6.5 -38t-6.5 -36q-136 14 -260 14q-136 0 -273 -14q-6 9 -6.5 36z" />
<glyph unicode="n" horiz-adv-x="1191" d="M52.5 28q-0.5 27 6.5 38q117 9 127 36q17 44 17 189v229q0 127 -19 164q-10 20 -56 30.5t-69 10.5q-5 3 -5 32t7 29q105 8 214.5 40.5t175.5 66.5q9 0 21.5 -13.5t12.5 -21.5q-2 -7 -7 -35.5t-9 -53.5t-4 -26q0 -10 2 -12q4 0 14 10q46 53 130.5 102.5t148.5 49.5 q68 0 115.5 -19.5t78 -55.5t48 -96.5t24 -131t6.5 -170.5v-129q0 -145 17 -189q10 -27 129 -36q7 -11 6.5 -38t-6.5 -36q-136 14 -275 14q-113 0 -250 -14q-6 9 -6.5 36t6.5 38q94 7 105 36q14 37 14 162v27v158q0 280 -133 280q-58 0 -117 -39.5t-59 -71.5v-327 q0 -148 16 -189q11 -28 113 -36q7 -11 6.5 -38t-6.5 -36q-136 14 -260 14q-136 0 -273 -14q-6 9 -6.5 36z" />
<glyph unicode="o" horiz-adv-x="1062" d="M63 434q0 190 136 325.5t331 135.5q206 0 337.5 -126t131.5 -318q0 -125 -60.5 -231.5t-167.5 -170t-236 -63.5q-207 0 -339.5 128.5t-132.5 319.5zM348 473q0 -69 12.5 -137.5t36.5 -129.5t65 -98.5t93 -37.5q42 0 72.5 21.5t47.5 53.5t26.5 79.5t12.5 88t3 90.5 q0 70 -12.5 139.5t-37 131t-66 99.5t-93.5 38q-42 0 -72.5 -22t-47 -54.5t-26 -81t-12 -89t-2.5 -91.5z" />
<glyph unicode="p" horiz-adv-x="1105" d="M20.5 -400q-0.5 27 6.5 38q119 9 129 36q14 37 14 162v27v657q0 133 -16 164q-10 20 -56.5 30.5t-70.5 10.5q-5 3 -5 32t7 29q104 8 213 40.5t176 66.5q10 -3 22.5 -16.5t12.5 -18.5q-1 -2 -6.5 -14t-9 -25t-3.5 -28q0 -14 5 -14q2 0 3 1q46 49 105.5 84t103.5 35 q117 0 207.5 -61.5t137 -158t46.5 -208.5q0 -88 -29.5 -167t-79.5 -136t-113.5 -99t-132 -62.5t-134.5 -20.5q-24 0 -51.5 4.5t-45.5 9t-20 4.5q-6 0 -6 -33v-106q0 -148 16 -189q10 -27 129 -36q7 -11 6.5 -38t-6.5 -36q-137 14 -274 14t-274 -14q-6 9 -6.5 36zM430 193 q0 -57 40.5 -89t96.5 -32q27 0 58 19t61 56t50 102.5t20 147.5q0 353 -215 353q-34 0 -61 -12.5t-38.5 -24.5t-11.5 -19v-501z" />
<glyph unicode="q" horiz-adv-x="1067" d="M63 385q0 113 48 210.5t125.5 161.5t172.5 100t191 36q40 0 124.5 -23.5t111.5 -23.5q29 0 71 14q10 -3 29.5 -21t19.5 -28q-24 -60 -24 -229v-719q0 -148 16 -189q10 -27 127 -36q7 -11 6.5 -38t-6.5 -36q-136 14 -272 14q-138 0 -275 -14q-6 9 -6.5 36t6.5 38 q117 9 127 36q17 44 17 189v172q0 6 -0.5 10.5t-1.5 10t-3.5 5.5t-7.5 -2q-32 -24 -98.5 -49.5t-128.5 -25.5q-151 0 -260 119.5t-109 281.5zM348 485q0 -67 11 -129t33.5 -118.5t64 -90.5t96.5 -34q33 0 62 10.5t43 21t14 15.5v528q0 9 -9 24.5t-25.5 33t-47 30t-66.5 12.5 q-50 0 -86 -27t-54.5 -72.5t-27 -96t-8.5 -107.5z" />
<glyph unicode="r" horiz-adv-x="897" d="M52.5 28q-0.5 27 6.5 38q117 9 127 36q17 44 17 189v229q0 127 -19 164q-10 20 -56 30.5t-69 10.5q-5 3 -5 32t7 29q105 8 214.5 40.5t175.5 66.5q10 -3 22 -16.5t12 -18.5q-4 -12 -12 -74t-8 -84q0 -5 2.5 -7t5.5 -1.5t4 2.5q21 39 42 69t52 63t71 51t85 18 q87 0 125 -35q7 -11 14.5 -40t7.5 -58q0 -55 -35 -106.5t-83 -51.5q-13 0 -26.5 5.5t-20.5 10.5t-21 17.5t-18 15.5q-3 3 -15.5 14.5t-18 15.5t-17 8.5t-23.5 4.5q-55 0 -94 -59.5t-39 -101.5v-244q0 -148 16 -189q10 -26 148 -36q7 -11 6.5 -38t-6.5 -36q-137 14 -295 14 q-136 0 -273 -14q-6 9 -6.5 36z" />
<glyph unicode="s" horiz-adv-x="806" d="M76 621q0 72 35.5 127.5t92.5 86.5t119.5 46.5t125.5 15.5q42 0 79 -6t83.5 -18t60.5 -15q13 -57 28 -139.5t15 -106.5q0 -6 -12.5 -10t-24.5 -4q-15 0 -39 16q-45 201 -211 201q-52 0 -83.5 -27t-31.5 -79q0 -25 10 -46.5t23 -36t37.5 -30t41.5 -24t48 -22t45 -20.5 q97 -47 132 -78q83 -71 83 -192q0 -73 -31.5 -127.5t-87 -86t-124.5 -47t-150 -15.5q-31 0 -69 5.5t-61 11t-61 15.5t-43 11q-5 29 -10.5 130.5t-5.5 129.5q0 12 31 12q34 0 43 -18q20 -118 82 -168t135 -50q50 0 81.5 32.5t31.5 76.5q0 29 -11 51.5t-35 40.5t-45 29.5 t-58 29t-56 27.5q-102 55 -157.5 116.5t-55.5 154.5z" />
<glyph unicode="t" horiz-adv-x="681" d="M12 788q26 37 64 68h88v107q34 28 71 65t79 82t61 64q17 10 32 9.5t17 -9.5v-318h227q6 0 9.5 -9t3.5 -18q0 -13 -15 -34.5t-31 -32.5h-194v-496q0 -79 26 -115t82 -36q30 0 63 18t44 29q12 -12 12 -29q0 -7 -5.5 -20.5t-8.5 -16.5q-10 -12 -27 -26.5t-46 -35.5 t-66.5 -34.5t-73.5 -13.5q-50 0 -94 15t-82.5 47.5t-61 91.5t-22.5 139v483h-141q-11 4 -11 26z" />
<glyph unicode="u" horiz-adv-x="1130" d="M18 757q0 29 7 29q105 8 215 40.5t176 66.5q10 -3 21.5 -16.5t11.5 -18.5q-5 -12 -12.5 -53t-8.5 -62q-2 -43 -2 -125v-180q0 -169 34 -247t124 -78q41 0 84 25t43 48v334q0 127 -19 164q-10 20 -56 30.5t-69 10.5q-5 3 -5 32t7 29q104 8 213 40.5t176 66.5 q10 -3 22.5 -16.5t12.5 -18.5q-4 -12 -11 -52.5t-9 -62.5q-2 -43 -2 -125v-403q0 -56 18 -76q16 -18 86 -18h4q6 -6 6 -27t-12 -39q-51 -5 -132 -22.5t-141.5 -32t-70.5 -14.5q-7 0 -12.5 13.5t-5.5 35.5v31q0 14 -6 10q-24 -16 -57 -33t-97 -35t-127 -18q-70 0 -121.5 29 t-80 80.5t-41.5 113t-13 135.5v172q0 129 -18 164q-10 20 -56.5 30.5t-70.5 10.5q-5 3 -5 32z" />
<glyph unicode="v" horiz-adv-x="1064" d="M-7.5 850.5q0.5 26.5 7.5 36.5q128 -15 270 -15q130 0 252 15q8 -7 8 -37t-8 -39q-29 0 -74 -15t-45 -38q0 -18 5 -31l206 -393q92 203 158 350q21 42 21 74q0 17 -19 28.5t-47 16.5t-46 6.5t-30 1.5q-7 7 -7.5 36.5t5.5 39.5q111 -15 211 -15q91 0 207 15 q6 -8 6.5 -36.5t-6.5 -39.5q-20 0 -47.5 -4t-64.5 -20t-50 -42l-307 -655q-32 -62 -52 -87.5t-38 -25.5q-8 0 -25 17q-80 165 -358 741q-17 38 -59.5 57t-65.5 19q-8 13 -7.5 39.5z" />
<glyph unicode="w" horiz-adv-x="1576" d="M-7.5 850.5q0.5 26.5 7.5 36.5q128 -15 256 -15q144 0 266 15q8 -7 8 -37t-8 -39q-29 0 -74 -15t-45 -38q0 -18 5 -31l194 -383q131 295 131 326q0 29 -18 65q-20 37 -62 56.5t-63 19.5q-10 13 -9.5 39.5t7.5 36.5q81 -10 270 -15q129 0 252 15q8 -7 8 -37t-8 -39 q-29 0 -74 -15t-45 -38q0 -21 4 -31l168 -367q74 179 137 324q21 52 21 74q0 17 -19 28.5t-46.5 16.5t-45.5 6.5t-30 1.5q-7 7 -7.5 36.5t5.5 39.5q111 -15 211 -15q72 0 188 15q6 -8 6.5 -36.5t-6.5 -39.5q-107 0 -135 -61q-183 -421 -295 -662q-25 -53 -53.5 -82 t-44.5 -29q-8 0 -25 17q-157 403 -223 559q-27 -69 -76.5 -185.5t-84.5 -197.5l-36 -82q-24 -53 -53.5 -82t-46.5 -29q-8 0 -25 17q-185 399 -354 741q-19 38 -60.5 57t-64.5 19q-8 13 -7.5 39.5z" />
<glyph unicode="x" horiz-adv-x="1114" d="M9.5 27.5q-0.5 27.5 6.5 38.5q33 0 84.5 18t83.5 49q57 55 143.5 148t108.5 116q-32 42 -115.5 157t-146.5 194q-26 33 -70 48t-67 15q-10 13 -9.5 39.5t7.5 36.5q80 -10 276 -15q129 0 252 15q7 -7 7 -37t-7 -39q-30 0 -63 -10t-33 -33q0 -4 20 -29l127 -164 q154 165 154 183q0 17 -19 28.5t-46.5 16.5t-45.5 6.5t-30 1.5q-7 7 -7.5 36.5t5.5 39.5q111 -15 211 -15q125 0 241 15q6 -8 6.5 -36.5t-6.5 -39.5q-105 0 -166 -63q-106 -112 -231 -256q59 -73 146.5 -185t138.5 -176q26 -33 69.5 -49t65.5 -16q10 -14 8.5 -38.5 t-8.5 -35.5q-69 9 -277 14q-140 0 -254 -14q-7 8 -7 36.5t7 37.5q29 0 63 11t34 34q0 3 -3.5 7t-9 9.5t-8.5 9.5l-143 174q-10 -11 -36.5 -38t-44 -45t-37.5 -40.5t-32 -37.5q-16 -19 -16 -29q0 -17 19.5 -29t47 -17t46.5 -7t30 -2q7 -7 7.5 -35.5t-5.5 -38.5 q-103 14 -211 14q-146 0 -254 -14q-6 8 -6.5 35.5z" />
<glyph unicode="y" horiz-adv-x="1067" d="M-7.5 850.5q0.5 26.5 7.5 36.5q128 -15 270 -15q130 0 252 15q8 -7 8 -37t-8 -39q-29 0 -74 -15t-45 -38q0 -18 5 -31l206 -393q92 203 158 350q21 42 21 74q0 17 -19 28.5t-47 16.5t-46 6.5t-30 1.5q-7 7 -7.5 36.5t5.5 39.5q111 -15 211 -15q91 0 207 15 q6 -8 6.5 -36.5t-6.5 -39.5q-20 0 -47.5 -4t-64.5 -20t-50 -42q-205 -433 -330 -696q-11 -24 -32.5 -71t-32.5 -69t-29.5 -56.5t-38 -63.5t-43.5 -59q-132 -166 -254 -166q-60 0 -96.5 32t-36.5 74q0 64 45 94q129 0 200.5 30t129.5 126q13 21 23 39.5t15.5 30t15 34 t16.5 37.5l-332 674q-17 38 -59.5 57t-65.5 19q-8 13 -7.5 39.5z" />
<glyph unicode="z" horiz-adv-x="919" d="M57 35q0 15 9 33l448 694q-146 2 -209 2q-29 0 -54 -14t-40 -31t-30.5 -48.5t-21 -47.5l-16.5 -48q-1 -6 -15 -10t-30 -4q-24 0 -24 8q29 160 37 299q116 -12 188 -12h276q128 0 259 16q11 -16 6 -43v-6l-486 -731h228q35 0 67.5 14t55.5 35.5t42 49t30 54t16 50.5 q2 12 24 12q10 0 22.5 -4t19.5 -8t9 -6q-12 -35 -32 -107t-34 -127l-14 -55h-710q-21 17 -21 35z" />
<glyph unicode="{" horiz-adv-x="813" d="M264 313v54q170 99 144 233q-9 53 -68 207q-52 137 -49 285q6 276 172 405q47 38 72 6q28 -38 -7 -73q-131 -137 -125 -289q3 -51 70 -164q109 -177 72 -375q-30 -180 -172 -262q142 -82 172 -262q37 -198 -72 -375q-67 -113 -70 -164q-6 -152 125 -289q35 -35 7 -73 q-25 -32 -72 6q-166 129 -172 405q-3 148 49 285q59 154 68 207q26 134 -144 233z" />
<glyph unicode="|" horiz-adv-x="403" d="M147 -780q3 2 3 4v2220l2 10q1 1 4 3t4 3q38 10 78 10q16 0 16 -12l2 -2216q0 -10 -90 -28h-6q-13 0 -13 6z" />
<glyph unicode="}" horiz-adv-x="813" d="M264 78q30 180 172 262q-142 82 -172 262q-37 198 72 375q67 113 70 164q6 152 -125 289q-35 35 -7 73q25 32 72 -6q166 -129 172 -405q3 -148 -49 -285q-59 -154 -68 -207q-26 -134 144 -233v-54q-170 -99 -144 -233q9 -53 68 -207q52 -137 49 -285q-6 -276 -172 -405 q-47 -38 -72 -6q-28 38 7 73q131 137 125 289q-3 51 -70 164q-109 177 -72 375z" />
<glyph unicode="~" horiz-adv-x="1099" d="M96 535q0 62 80 129t166 67q97 0 248 -67q53 -23 76 -32t72 -21.5t91 -12.5q52 0 99.5 30.5t72.5 63.5q12 -4 15 -16q0 -63 -80 -131t-166 -68q-23 0 -47.5 3.5t-41.5 7.5t-45 14t-38 13.5t-41 16.5t-35 15q-3 1 -21 8.5t-22.5 9.5t-21.5 8.5t-24 9t-22.5 8t-25 7.5 t-24 5.5t-26 5t-25.5 2.5t-27 1q-52 0 -99.5 -30.5t-72.5 -63.5q-12 4 -15 17z" />
<glyph unicode="&#xa1;" horiz-adv-x="493" d="M98 737q0 61 43.5 105.5t104.5 44.5q63 0 107 -45.5t44 -110.5q0 -60 -43.5 -102.5t-105.5 -42.5t-106 45t-44 106zM117 -285q0 41 31.5 307t52.5 400q7 23 14.5 34t24.5 17q9 0 24 -9.5t23 -23.5q20 -114 53 -385t33 -342q0 -61 -38.5 -97t-94.5 -36q-49 0 -86 37 t-37 98z" />
<glyph unicode="&#xa2;" horiz-adv-x="962" d="M88 399q0 170 137.5 319.5t323.5 174.5l12 70q72 0 72 -17l-8 -49q131 -3 188 -37q39 -43 39 -96q0 -47 -32 -86t-83 -39q-15 0 -29 5t-28 17t-21.5 19.5t-23 26t-19.5 22.5q-2 3 -4.5 5.5t-6 5.5t-5.5 5l-92 -569q56 -26 121 -26q54 0 100.5 17t71 36t51.5 47 q10 -3 17.5 -15t7.5 -22q0 -27 -7 -37q-17 -25 -47 -54.5t-75.5 -62.5t-109 -55t-130.5 -22q-21 0 -31 2l-10 -60q-17 0 -42.5 5.5t-29.5 13.5l8 51q-138 32 -226.5 138.5t-88.5 266.5zM340 516q0 -193 100 -293l92 561q-24 9 -51 9q-42 0 -75 -44t-49.5 -106.5 t-16.5 -126.5z" />
<glyph unicode="&#xa3;" horiz-adv-x="954" d="M92 33q0 20 13.5 45.5t24.5 39.5t36.5 41.5t26.5 28.5q34 38 50.5 116t16.5 161q0 51 -27 149h-139q-9 9 9.5 46.5t31.5 37.5h76q-12 58 -12 70q0 98 41.5 193t105 162t140.5 108t147 41q48 0 77 -10.5t64 -32.5q6 -6 12.5 -28.5t6.5 -37.5q0 -52 -29 -84t-70 -32 q-38 0 -60 13t-42 38q-17 21 -26 31t-26 20t-34 10q-29 0 -49 -17.5t-30.5 -52t-14.5 -75.5t-4 -96q0 -13 1 -26t2 -24t4 -24.5t4.5 -22t5.5 -23t6 -21t7 -21.5t6.5 -19l7.5 -20t7 -19h307q14 -12 11 -30t-12.5 -33.5t-16.5 -20.5h-263q4 -32 4 -49q0 -100 -46.5 -187.5 t-96.5 -133.5q56 30 131 30q31 0 71 -21.5t85.5 -43t89.5 -21.5q27 0 48 9t36.5 28.5t20.5 28t16 29.5q6 3 16.5 -2t16.5 -13q10 -12 10 -39q-11 -30 -31 -66t-53.5 -79t-82.5 -71.5t-104 -28.5q-45 0 -89 18.5t-75 40.5t-77.5 40.5t-95.5 18.5q-18 0 -42 -14.5t-39.5 -28.5 t-42 -40.5l-30.5 -30.5q-12 0 -22.5 15.5t-10.5 29.5z" />
<glyph unicode="&#xa4;" horiz-adv-x="1124" d="M145 307l109 103q-59 89 -59 204q0 131 75 232l-104 112q-8 8 4.5 25t36.5 33.5t47 23.5l104 -110q85 61 203 61q127 0 225 -82l117 111q8 8 25 -4.5t33.5 -36.5t23.5 -47l-119 -113q58 -92 58 -205q0 -123 -66 -217l109 -114q8 -8 -4.5 -25t-36.5 -33.5t-47 -23.5 l-105 108q-95 -69 -213 -69q-129 0 -227 79l-107 -100q-8 -8 -25 4.5t-33.5 36.5t-23.5 47zM381 639q0 -136 57.5 -228t136.5 -92q73 0 117.5 77t44.5 192q0 137 -54.5 230t-133.5 93q-74 0 -121 -78.5t-47 -193.5z" />
<glyph unicode="&#xa5;" horiz-adv-x="1382" d="M56.5 1250q0.5 27 6.5 36q137 -14 285 -14q146 0 283 14q6 -9 6.5 -36t-6.5 -38q-123 -9 -123 -55q0 -7 14 -31l240 -442q7 -7 85.5 131.5t166.5 302.5q10 20 10 45q0 38 -147 49q-7 11 -6.5 38t6.5 36q165 -14 225 -14q51 0 125 6.5t100 7.5q6 -9 6.5 -36t-6.5 -38 q-118 -9 -147 -51q-51 -77 -190 -304t-175 -302q-4 -8 -4 -12h186q14 -12 10.5 -30t-13.5 -33.5t-17 -20.5h-172l-2 -76h194q14 -12 10.5 -30t-13.5 -33.5t-17 -20.5h-174v-8q0 -148 16 -189q10 -27 127 -36q7 -11 6.5 -38t-6.5 -36q-136 14 -284 14q-146 0 -283 -14 q-6 9 -6.5 36t6.5 38q117 9 127 36q16 41 16 189v8h-196q-9 9 8.5 46.5t30.5 37.5h157v76h-196q-9 9 8.5 46.5t30.5 37.5h155q0 8 -4 16q-18 43 -82 162t-119 217l-55 98q-13 23 -30 56t-31 55q-20 32 -61.5 47.5t-74.5 17.5q-7 11 -6.5 38z" />
<glyph unicode="&#xa6;" horiz-adv-x="419" d="M150 188q-3 14 10 17q31 8 80 8q10 0 12 -2q4 -4 4 -6v-961q0 -11 -43 -20q-48 -10 -53 -10q-2 0 -4.5 1t-3.5 1l-2 2v970zM150 465v979q-3 13 10 16q38 10 80 10q8 0 12 -4t4 -6v-971q0 -11 -43 -20q-39 -8 -53 -8h-8z" />
<glyph unicode="&#xa7;" horiz-adv-x="933" d="M72 754q0 55 32 125t78 130.5t91 108.5t77 70q119 119 291 119q35 0 100 -27q15 -30 15 -59q0 -35 -19 -57.5t-59 -22.5q-38 0 -82 39q-29 26 -78 26q-54 0 -102.5 -28t-48.5 -80q0 -96 256 -330q107 -100 142 -142q97 -117 97 -257q0 -55 -32 -125t-78 -131t-91 -109 t-77 -70q-118 -118 -291 -118q-42 0 -100 28q-15 26 -15 52q0 36 20 61t60 25q43 0 86 -43q23 -23 72 -23q54 0 102.5 28.5t48.5 80.5q0 32 -24.5 75.5t-70.5 93.5t-79.5 83t-81.5 77q-107 100 -143 144q-96 117 -96 256zM213 862q0 -59 18.5 -113.5t56 -104t69 -83 t83.5 -80.5q12 -11 50 -44.5t57 -51.5t50 -51t46.5 -58.5t28 -59.5t12.5 -66v-21q37 56 37 131q0 48 -14 94.5t-33.5 81t-53.5 75.5t-59.5 65.5t-66.5 62.5l-50 45t-57 52t-49.5 51t-47 60t-27.5 59.5t-13 66.5v20q-37 -55 -37 -131z" />
<glyph unicode="&#xa8;" horiz-adv-x="813" d="M78 1028q0 57 41 97t98 40t97 -40t40 -97t-40 -99t-97 -42t-98 42t-41 99zM455 1028q0 57 41 97t98 40t98 -40t41 -97t-41 -99t-98 -42t-98 42t-41 99z" />
<glyph unicode="&#xa9;" horiz-adv-x="1304" d="M106 623q0 148 73 273.5t198.5 198t273.5 72.5t274.5 -72.5t200.5 -198t74 -273.5t-74 -274t-200.5 -199.5t-274.5 -73.5t-273.5 73.5t-198.5 199.5t-73 274zM197 621q0 -189 132.5 -323t321.5 -134t323 134t134 323t-134 321.5t-323 132.5t-321.5 -132.5t-132.5 -321.5z M369 610q0 130 88 214.5t209 84.5q19 0 44.5 -3.5t43.5 -7.5t48 -10.5t38 -8.5q1 -3 8 -33t13.5 -59t6.5 -33q0 -3 -11.5 -8t-18.5 -5h-2q-7 0 -11 2q-28 115 -153 115q-81 0 -120.5 -69t-39.5 -168q0 -103 43.5 -173.5t126.5 -70.5q66 0 104 33q35 33 58 102q31 0 39 -8 q0 -12 -13.5 -67t-21.5 -58q-11 -4 -39.5 -15.5t-47.5 -18.5t-48 -13t-56 -6q-129 0 -208.5 76.5t-79.5 207.5z" />
<glyph unicode="&#xaa;" horiz-adv-x="772" d="M86 659q0 37 23.5 69.5t52.5 43.5q17 7 268 98v56q0 52 -24 90.5t-60 38.5q-37 0 -54 -27t-30 -82q-15 -57 -82 -57q-32 0 -54 17.5t-22 45.5q0 26 21 58q25 25 109.5 64.5t166.5 39.5q92 0 156 -60t64 -151v-250q0 -49 34 -49q9 0 19 4t18.5 9.5t9.5 5.5q4 -1 9.5 -12 t5.5 -17q0 -13 -8 -25q-24 -21 -70 -46t-86 -25q-35 0 -69 18t-44 43q-20 -14 -74 -38.5t-87 -24.5q-81 0 -137 50.5t-56 112.5zM283 674q1 -39 29 -60.5t61 -21.5q21 0 39 11.5t18 19.5v176q-67 -23 -98 -41q-49 -30 -49 -84z" />
<glyph unicode="&#xab;" horiz-adv-x="1003" d="M51 496q0 15 15 30q54 32 105 66.5t91 64.5t75.5 58.5t61.5 51.5t44 39.5t29.5 27.5t12.5 12q12 -2 31.5 -13t24.5 -24q-5 -8 -55 -68.5t-115.5 -136.5t-98.5 -108q33 -32 98.5 -108t115.5 -136t55 -68q-5 -13 -24.5 -25t-31.5 -14q-1 1 -12.5 12t-29.5 28t-44 40 t-61.5 51.5t-75.5 58.5t-91.5 65t-104.5 67q-15 15 -15 29zM426 496q0 16 14 30q54 32 105 66.5t91 64.5t75.5 58.5t61.5 51.5t44.5 39.5t30 27.5t12.5 12q12 -2 30 -13t23 -24q-5 -8 -54.5 -68.5t-115 -136.5t-98.5 -108q33 -32 98.5 -108t115 -136t54.5 -68 q-5 -13 -23.5 -25t-29.5 -14q-1 1 -12.5 12t-30 28t-44.5 40t-61.5 51.5t-75.5 58.5t-91.5 65t-104.5 67q-14 14 -14 29z" />
<glyph unicode="&#xac;" horiz-adv-x="1177" d="M92 743q11 97 31 97h917v-502q-1 -1 -21 -5.5t-49 -9t-48 -4.5q-9 0 -15 3.5t-8 7.5l-2 4v391h-793h-3t-5.5 4.5t-3.5 13.5z" />
<glyph unicode="&#xad;" horiz-adv-x="0" />
<glyph unicode="&#xae;" horiz-adv-x="1304" d="M106 725q0 148 73 273.5t198.5 198.5t273.5 73t274.5 -73t200.5 -198.5t74 -273.5t-74 -274t-200.5 -199.5t-274.5 -73.5t-273.5 73.5t-198.5 199.5t-73 274zM197 723q0 -189 132.5 -323t321.5 -134t323 134t134 323t-134 322t-323 133t-321.5 -133t-132.5 -322zM403 484 q0 12 3 16q11 0 30.5 4.5t22.5 11.5q6 16 6 74v293q0 57 -6 73q-5 13 -53 13q-3 5 -3 17t3 15q37 -2 120 -2q16 0 57 1t66 1q79 0 132 -39t53 -108q0 -44 -42 -81.5t-79 -47.5q25 -35 56 -72.5t49 -57.5l18 -20q26 -30 54 -48t40.5 -21.5t19.5 -3.5q7 -7 0 -29v-4 q-50 -4 -90 -4q-43 0 -73 17.5t-60 54.5l-119 161q-8 13 -14 13h-12v-121q0 -58 6 -74q3 -7 21.5 -11.5t29.5 -4.5q3 -5 3 -16.5t-3 -14.5q-33 4 -115 4q-85 0 -118 -4q-3 3 -3 15zM582 748h32q40 0 68.5 28t28.5 72q0 49 -23 83t-61 34q-37 0 -41 -9q-4 -10 -4 -51v-157z " />
<glyph unicode="&#xaf;" horiz-adv-x="937" d="M223 1112q0 5 1 15t3 27t7.5 28.5t13.5 11.5h430q8 0 8 -14q0 -35 -10 -72q-2 -5 -5.5 -8.5t-6.5 -4.5l-2 -1h-426h-3.5t-6 4.5t-3.5 13.5z" />
<glyph unicode="&#xb0;" horiz-adv-x="579" d="M68 1073q0 92 65.5 156.5t157.5 64.5t156.5 -64.5t64.5 -156.5t-64.5 -157.5t-156.5 -65.5t-157.5 65.5t-65.5 157.5zM162 1073q0 -54 37.5 -92.5t91.5 -38.5t91.5 38.5t37.5 92.5t-37.5 92.5t-91.5 38.5t-91.5 -38.5t-37.5 -92.5z" />
<glyph unicode="&#xb1;" horiz-adv-x="1163" d="M100 49q0 11 6.5 39.5t16.5 44.5h921q8 0 13.5 -8.5t5.5 -18.5q0 -49 -31 -88h-919q-13 0 -13 31zM100 643q0 11 6.5 39.5t16.5 44.5h397v399q15 12 43 17.5t41 5.5q33 0 33 -19v-403h407q8 0 13.5 -8.5t5.5 -18.5q0 -49 -31 -88h-395v-397q-31 -20 -94 -20q-9 0 -16 5 t-7 11v401h-407q-13 0 -13 31z" />
<glyph unicode="&#xb2;" horiz-adv-x="702" d="M76 537q61 68 86 95.5t65 76t86 108.5q95 122 95 234q0 58 -37 92.5t-90 34.5q-30 0 -58 -14.5t-43 -30.5t-29 -35l-14 -19q-5 0 -11 1.5t-13 9t-7 18.5q11 21 32 47.5t54 57t79.5 51t95.5 20.5q107 0 169 -54t62 -155q0 -73 -44 -136.5t-118 -131.5q-120 -108 -190 -158 h223q14 0 26.5 6t21 12.5t17.5 21.5t13 22.5t12 26t10 22.5q3 10 23 10t29 -6q-9 -38 -38.5 -135.5t-37.5 -120.5h-455q-6 6 -14 29z" />
<glyph unicode="&#xb3;" horiz-adv-x="675" d="M72 586q0 26 16.5 47.5t46.5 21.5q24 0 42 -15.5t38 -45.5q30 -49 90 -49q58 0 90.5 41t32.5 123q0 71 -41.5 124.5t-101.5 53.5q-46 0 -66 -6q-10 15 -10 28q0 17 4 25q27 4 54 12t56.5 23.5t47.5 43t18 62.5q0 51 -32.5 84t-86.5 33q-30 0 -61 -15.5t-46 -28.5t-22 -22 q-9 2 -19 11t-7 22q37 48 106 86.5t137 38.5q29 0 61 -9.5t62.5 -28t50 -52.5t19.5 -78q0 -35 -11.5 -63t-27.5 -45t-38.5 -29t-38.5 -17t-32 -8q15 -1 37.5 -7t52.5 -21.5t55 -37t42.5 -57t17.5 -77.5q0 -84 -56.5 -146.5t-134.5 -90.5t-161 -28q-55 0 -100 13t-66 30 q-18 27 -18 54z" />
<glyph unicode="&#xb4;" horiz-adv-x="471" d="M55 1079q0 5 30.5 55t76.5 116.5t80 105.5q16 16 67 16q46 0 69 -19.5t23 -37.5q0 -35 -74 -103t-149.5 -119t-87.5 -51q-10 0 -22.5 14t-12.5 23z" />
<glyph unicode="&#xb5;" horiz-adv-x="1021" d="M295 -350q0 53 16.5 350t32.5 432q0 24 -16.5 165t-16.5 163q0 64 6 88q16 45 52 45q20 0 88.5 -32t68.5 -50q0 -67 -28 -195q-22 -107 -37 -176q5 -35 15.5 -68.5t28 -68t46.5 -55.5t65 -21q89 0 158.5 64t69.5 143q-15 117 -15 223q0 35 -4 187q31 49 62 49 q20 0 92 -32t72 -50q0 -22 -6 -55.5t-11.5 -56.5t-19 -72t-17.5 -64q-8 -31 -23 -86l-24 -88q-2 -180 105 -180q78 0 137 104q8 0 20.5 -21t16.5 -34q4 -17 -4 -41q-14 -41 -27 -72t-34 -70.5t-47 -61t-54 -21.5q-46 1 -83 38.5t-58.5 92t-30.5 121.5q-33 -114 -93.5 -187 t-140.5 -73q-71 0 -136.5 95.5t-78.5 194.5q1 -7 5 -93t9.5 -177.5t17 -210t26.5 -199.5q-10 -15 -34.5 -32t-49.5 -17q-28 0 -74.5 42t-46.5 63z" />
<glyph unicode="&#xb6;" horiz-adv-x="1056" d="M66 938q0 80 25 145t64.5 105.5t92 67.5t104 38t103.5 11q59 0 107 -4.5t108 -4.5q59 0 119 3t90 5l30 3q7 -8 6.5 -38.5t-8.5 -35.5q-26 0 -55.5 -12t-36.5 -29q-4 -14 -4 -127v-377q4 -1 28 6t46 14l22 7q8 0 8 -17v-4q-2 -15 -18.5 -43.5t-26.5 -32.5q-40 -17 -61 -20 v-365v-30q0 -57 8 -82q9 -25 64.5 -39t83.5 -14q8 -13 8 -38.5t-4 -37.5q-252 14 -314 14q-55 0 -110.5 -2.5t-117 -6.5t-83.5 -5q-5 8 -5.5 26.5t1.5 33t4 14.5q30 0 79.5 14.5t59.5 38.5q13 29 13 98v14v342q-197 0 -313.5 94.5t-116.5 270.5zM596 236q0 -103 10 -132 q3 -10 45 -10t45 8q13 29 13 107v14v361q-12 -1 -53.5 -4.5t-59.5 -4.5v-339zM596 666q18 0 64 3t51 7v520q-10 10 -60 10q-43 0 -55 -12v-528z" />
<glyph unicode="&#xb7;" horiz-adv-x="598" d="M154 530q0 60 43 103t104 43q60 0 102.5 -43t42.5 -103q0 -61 -41 -106t-100 -45q-62 0 -106.5 45t-44.5 106z" />
<glyph unicode="&#xb8;" horiz-adv-x="907" d="M311 -240q0 15 6 15q62 -31 97 -31q47 0 67.5 17t20.5 42q0 68 -51 68q-19 0 -54 -14q-5 0 -14.5 10t-9.5 18q36 62 55 111h64l-25 -45q32 4 43 4q40 0 70 -30t30 -68q0 -73 -52 -120.5t-142 -47.5q-30 0 -58 9.5t-39 20.5q-8 12 -8 41z" />
<glyph unicode="&#xb9;" horiz-adv-x="581" d="M78 1124q0 13 2 15q62 26 139.5 62t124 58.5t47.5 22.5h2q5 0 18 -17.5t15 -23.5q-25 -96 -25 -170v-379q0 -32 5.5 -66t15.5 -44q10 -12 45 -19.5t49 -7.5q3 0 2.5 -24.5t-2.5 -26.5q-188 8 -201 8q-14 0 -202 -8q-5 4 -5 27.5t5 23.5q16 0 51.5 9t44.5 20q7 8 12.5 48 t5.5 62v328q0 94 -37 94q-14 0 -90 -33q-7 1 -14.5 15t-7.5 26z" />
<glyph unicode="&#xba;" horiz-adv-x="811" d="M70 801q0 127 96.5 216t236.5 89q148 0 243 -84t95 -211t-97 -218t-238 -91q-147 0 -241.5 85.5t-94.5 213.5zM274 825q0 -63 14 -120t49 -99.5t85 -42.5q30 0 52.5 14t34.5 34.5t19 52t9 57.5t2 59q0 63 -15 121.5t-51 102t-86 43.5q-30 0 -52 -14.5t-33.5 -35 t-18 -53.5t-8 -58.5t-1.5 -60.5z" />
<glyph unicode="&#xbb;" horiz-adv-x="1003" d="M90 184q5 8 54.5 68t115 136t98.5 108q-33 32 -98.5 108t-115 136.5t-54.5 68.5q5 13 23 24t30 13q1 -1 12.5 -12t30 -27.5t44.5 -39.5t61.5 -51.5t75.5 -58.5t91 -64.5t105 -66.5q15 -15 15 -30q0 -14 -15 -29q-53 -32 -104.5 -67t-91.5 -65t-75.5 -58.5t-61.5 -51.5 t-44.5 -40t-30 -28t-12.5 -12q-11 2 -29.5 14t-23.5 25zM465 184q5 8 54 68t114 136t98 108q-33 32 -98 108t-113.5 136.5t-54.5 68.5q5 13 23 24t30 13q1 -1 12.5 -12t30 -27.5t44.5 -39.5t61.5 -51.5t75.5 -58.5t91 -64.5t105 -66.5q14 -14 14 -30q0 -15 -14 -29 q-53 -32 -104.5 -67t-91.5 -65t-75.5 -58.5t-61.5 -51.5t-44.5 -40t-30 -28t-12.5 -12q-11 2 -29.5 14t-23.5 25z" />
<glyph unicode="&#xbc;" horiz-adv-x="1472" d="M66 1139q61 26 140 62t126.5 58.5t48.5 22.5q29 -35 31 -41q-23 -88 -23 -170v-379q0 -91 19 -110q10 -12 45 -19.5t49 -7.5q3 0 2.5 -24.5t-2.5 -26.5q-188 8 -199 8q-17 0 -205 -8q-4 4 -4 27.5t4 23.5q16 0 52 9t45 20q7 8 13.5 48.5t6.5 61.5v328q0 41 -10.5 67.5 t-28.5 26.5q-14 0 -90 -33q-7 1 -14.5 27.5t-5.5 28.5zM403 -49l691 1374q21 32 71 43q13 3 24 -1.5t13 -12.5l-690 -1377q-5 -11 -27 -25t-47 -20q-14 -3 -22.5 2t-10.5 11zM823 217q136 164 439 539q13 16 26 16q8 0 24.5 -13t16.5 -26v-457h49q39 -36 21 -92h-70v-180 q-41 -10 -94 -10q-80 0 -80 16v174h-307q-9 4 -17 13t-8 20zM950 276h205v248q-24 -28 -108.5 -131t-96.5 -117z" />
<glyph unicode="&#xbd;" horiz-adv-x="1495" d="M70 1139q61 26 139.5 62t125.5 58.5t48 22.5q26 -26 31 -41q-23 -88 -23 -170v-379q0 -32 5.5 -66t15.5 -44q10 -12 44 -19.5t48 -7.5q3 0 2.5 -24.5t-2.5 -26.5q-188 8 -199 8q-17 0 -205 -8q-4 4 -4 27.5t4 23.5q16 0 52 9t45 20q7 8 13.5 48.5t6.5 61.5v328 q0 41 -10.5 67.5t-28.5 26.5q-14 0 -90 -33q-7 1 -14 23t-4 33zM362 -49l691 1374q21 32 71 43q13 3 24 -1.5t13 -12.5l-690 -1377q-5 -11 -27 -25t-47 -20q-14 -3 -22.5 2t-10.5 11zM885 25q61 68 86 95.5t65 76t86 108.5q95 122 95 234q0 58 -37 92.5t-90 34.5 q-30 0 -58 -14.5t-43 -30.5t-29 -35l-14 -19q-5 0 -11 1.5t-13 9t-7 18.5q11 21 32 47.5t54 57t79.5 51t95.5 20.5q107 0 169 -54t62 -155q0 -73 -44 -136.5t-118 -131.5q-120 -108 -190 -158h223q14 0 26.5 6t21 12.5t17.5 21.5t13 22.5t12 26t10 22.5q3 10 23 10t29 -6 q-27 -108 -78 -256h-453q-7 7 -14 29z" />
<glyph unicode="&#xbe;" horiz-adv-x="1478" d="M68 586q0 26 16.5 47.5t46.5 21.5q42 0 82 -61q30 -49 88 -49t90.5 41t32.5 123q0 71 -41.5 124.5t-101.5 53.5q-46 0 -66 -6q-10 15 -10 28q0 17 4 25q27 4 54 12t56.5 23.5t47.5 43t18 62.5q0 51 -32.5 84t-86.5 33q-30 0 -61 -15.5t-46 -28.5t-22 -22q-9 2 -19 11 t-7 22q37 48 106 86.5t137 38.5q29 0 61 -9.5t62.5 -28t50 -52.5t19.5 -78q0 -35 -11.5 -63t-27.5 -45t-38.5 -29t-38.5 -17t-32 -8q15 -1 37.5 -7t52.5 -21.5t55 -37t42.5 -57t17.5 -77.5q0 -84 -56.5 -146.5t-134.5 -90.5t-161 -28q-55 0 -100 13t-66 30q-18 27 -18 54z M430 -49l690 1374q21 31 72 43q13 3 24 -1.5t13 -12.5l-690 -1377q-5 -11 -27 -25t-47 -20q-14 -3 -22.5 2t-10.5 11zM829 217q136 164 439 539q13 16 26 16q8 0 23.5 -13t15.5 -26v-457h51q39 -36 21 -92h-72v-180q-41 -10 -94 -10q-80 0 -80 16v174h-305q-9 4 -17 13 t-8 20zM956 276h203v248q-24 -28 -108 -131.5t-95 -116.5z" />
<glyph unicode="&#xbf;" horiz-adv-x="774" d="M63 -76q0 32 7 61.5t16.5 51.5t29 45t33 37t40.5 34t41 28.5t44.5 27t40.5 24.5q13 9 42 26.5t47.5 29.5t40.5 30t34 35q10 13 10 72v12q3 10 13.5 22.5t17.5 12.5q23 0 45 -22q14 -33 27.5 -90.5t13.5 -110.5q0 -42 -13.5 -77.5t-40.5 -63.5t-49.5 -46t-56.5 -40 q-213 -141 -213 -222q0 -36 29.5 -66t79.5 -30q24 0 53 19.5t52 43t54.5 43t59.5 19.5q55 0 90 -39.5t35 -91.5q0 -25 -10 -54t-21 -38q-63 -35 -180 -35q-32 0 -78 9.5t-105.5 35t-109.5 63t-84.5 101.5t-34.5 143zM367 733q0 63 41 109.5t100 46.5q58 0 104.5 -45.5 t46.5 -110.5q0 -62 -42.5 -103.5t-100.5 -41.5q-63 0 -106 42t-43 103z" />
<glyph unicode="&#xc0;" horiz-adv-x="1349" d="M-26.5 21.5q-2.5 23.5 3.5 41.5q24 0 76.5 21t65.5 43q16 25 26 44.5t23.5 52t19.5 44.5l426 979q10 23 34 49.5t40 26.5q35 0 43 -12l410 -1014q15 -34 31.5 -81t23.5 -64q12 -28 36 -47.5t51 -26.5t43 -9.5t28 -2.5q7 -13 8.5 -40.5t-4.5 -33.5q-18 1 -117 8.5 t-151 7.5q-41 0 -97 -3t-121 -7.5t-84 -5.5q-8 8 -8 41t8 33q77 0 119 36q17 14 17 33q0 8 -30 84.5t-60 148.5l-29 72q-8 9 -14 9q-29 2 -156 2h-37q-137 0 -207 -2q-9 0 -14 -11q-49 -113 -72 -168q-45 -110 -45 -137q0 -32 61 -49.5t93 -17.5q8 -12 7.5 -39.5t-5.5 -34.5 q-140 16 -215 16q-79 0 -219 -16q-6 6 -8.5 29.5zM377 1663q0 37 38 56.5t74 19.5q21 0 37 -8q65 -49 152.5 -137t87.5 -99q0 -10 -9.5 -24.5t-19.5 -14.5q-18 0 -104 35.5t-171 87t-85 84.5zM420 559q0 -6 4 -6q62 -6 166 -6q99 0 160 4q2 0 3.5 2t2.5 4v2l-166 393z" />
<glyph unicode="&#xc1;" horiz-adv-x="1349" d="M-26.5 21.5q-2.5 23.5 3.5 41.5q24 0 76.5 21t65.5 43q16 25 26 44.5t23.5 52t19.5 44.5l426 979q10 23 34 49.5t40 26.5q35 0 43 -12l410 -1014q15 -34 31.5 -81t23.5 -64q12 -28 36 -47.5t51 -26.5t43 -9.5t28 -2.5q7 -13 8.5 -40.5t-4.5 -33.5q-18 1 -117 8.5 t-151 7.5q-41 0 -97 -3t-121 -7.5t-84 -5.5q-8 8 -8 41t8 33q77 0 119 36q17 14 17 33q0 8 -30 84.5t-60 148.5l-29 72q-8 9 -14 9q-29 2 -156 2h-37q-137 0 -207 -2q-9 0 -14 -11q-49 -113 -72 -168q-45 -110 -45 -137q0 -32 61 -49.5t93 -17.5q8 -12 7.5 -39.5t-5.5 -34.5 q-140 16 -215 16q-79 0 -219 -16q-6 6 -8.5 29.5zM420 559q0 -6 4 -6q62 -6 166 -6q99 0 160 4q2 0 3.5 2t2.5 4v2l-166 393zM578 1495q0 11 88 99t153 137q16 8 35 8q37 0 75 -19.5t38 -56.5q0 -33 -85 -84.5t-171.5 -87t-104.5 -35.5q-10 0 -19 14.5t-9 24.5z" />
<glyph unicode="&#xc2;" horiz-adv-x="1349" d="M-26.5 21.5q-2.5 23.5 3.5 41.5q24 0 76.5 21t65.5 43q16 25 26 44.5t23.5 52t19.5 44.5l426 979q10 23 34 49.5t40 26.5q35 0 43 -12l410 -1014q15 -34 31.5 -81t23.5 -64q12 -28 36 -47.5t51 -26.5t43 -9.5t28 -2.5q7 -13 8.5 -40.5t-4.5 -33.5q-18 1 -117 8.5 t-151 7.5q-41 0 -97 -3t-121 -7.5t-84 -5.5q-8 8 -8 41t8 33q77 0 119 36q17 14 17 33q0 8 -30 84.5t-60 148.5l-29 72q-8 9 -14 9q-29 2 -156 2h-37q-137 0 -207 -2q-9 0 -14 -11q-49 -113 -72 -168q-45 -110 -45 -137q0 -32 61 -49.5t93 -17.5q8 -12 7.5 -39.5t-5.5 -34.5 q-140 16 -215 16q-79 0 -219 -16q-6 6 -8.5 29.5zM420 559q0 -6 4 -6q62 -6 166 -6q99 0 160 4q2 0 3.5 2t2.5 4v2l-166 393zM436 1495q27 21 144 129q32 30 90 96q18 21 26 21q6 0 27 -21q63 -68 84 -88q111 -108 149 -137q0 -28 -20 -35q-21 5 -109 48.5t-131 72.5 q-44 -29 -129 -72t-110 -49q-7 4 -14 14t-7 21z" />
<glyph unicode="&#xc3;" horiz-adv-x="1349" d="M-26.5 21.5q-2.5 23.5 3.5 41.5q24 0 76.5 21t65.5 43q16 25 26 44.5t23.5 52t19.5 44.5l426 979q10 23 34 49.5t40 26.5q35 0 43 -12l410 -1014q15 -34 31.5 -81t23.5 -64q12 -28 36 -47.5t51 -26.5t43 -9.5t28 -2.5q7 -13 8.5 -40.5t-4.5 -33.5q-18 1 -117 8.5 t-151 7.5q-41 0 -97 -3t-121 -7.5t-84 -5.5q-8 8 -8 41t8 33q77 0 119 36q17 14 17 33q0 8 -30 84.5t-60 148.5l-29 72q-8 9 -14 9q-29 2 -156 2h-37q-137 0 -207 -2q-9 0 -14 -11q-49 -113 -72 -168q-45 -110 -45 -137q0 -32 61 -49.5t93 -17.5q8 -12 7.5 -39.5t-5.5 -34.5 q-140 16 -215 16q-79 0 -219 -16q-6 6 -8.5 29.5zM326 1516q0 42 39 96q77 96 186 96q81 0 178 -57q111 -64 166 -64q37 0 70 14.5t50.5 32t33 35t20.5 19.5q7 0 11.5 -9t4.5 -18q0 -46 -36 -96q-80 -99 -187 -99q-81 0 -180 58q-37 22 -58 33t-52 21.5t-56 10.5 q-37 0 -70 -15t-50.5 -32.5t-33 -35t-20.5 -19.5q-7 0 -11.5 10t-4.5 19zM420 559q0 -6 4 -6q62 -6 166 -6q99 0 160 4q2 0 3.5 2t2.5 4v2l-166 393z" />
<glyph unicode="&#xc4;" horiz-adv-x="1349" d="M-26.5 21.5q-2.5 23.5 3.5 41.5q24 0 76.5 21t65.5 43q16 25 26 44.5t23.5 52t19.5 44.5l426 979q10 23 34 49.5t40 26.5q35 0 43 -12l410 -1014q15 -34 31.5 -81t23.5 -64q12 -28 36 -47.5t51 -26.5t43 -9.5t28 -2.5q7 -13 8.5 -40.5t-4.5 -33.5q-18 1 -117 8.5 t-151 7.5q-41 0 -97 -3t-121 -7.5t-84 -5.5q-8 8 -8 41t8 33q77 0 119 36q17 14 17 33q0 8 -30 84.5t-60 148.5l-29 72q-8 9 -14 9q-29 2 -156 2h-37q-137 0 -207 -2q-9 0 -14 -11q-49 -113 -72 -168q-45 -110 -45 -137q0 -32 61 -49.5t93 -17.5q8 -12 7.5 -39.5t-5.5 -34.5 q-140 16 -215 16q-79 0 -219 -16q-6 6 -8.5 29.5zM342 1595q0 57 39 95.5t96 38.5t96 -38.5t39 -95.5t-39 -97t-96 -40t-96 40t-39 97zM420 559q0 -6 4 -6q62 -6 166 -6q99 0 160 4q2 0 3.5 2t2.5 4v2l-166 393zM754 1595q0 57 39 95.5t96 38.5t96 -38.5t39 -95.5t-39 -97 t-96 -40t-96 40t-39 97z" />
<glyph unicode="&#xc5;" horiz-adv-x="1349" d="M-26.5 21.5q-2.5 23.5 3.5 41.5q24 0 76.5 21t65.5 43q16 25 26 44.5t23.5 52t19.5 44.5l426 979q8 20 29 44t39 30q-77 8 -129.5 65.5t-52.5 133.5q0 81 58 137.5t140 56.5t139.5 -56.5t57.5 -137.5q0 -80 -55 -138t-133 -61q21 -3 24 -10l410 -1014q15 -34 31.5 -81 t23.5 -64q12 -28 36 -47.5t51 -26.5t43 -9.5t28 -2.5q7 -13 8.5 -40.5t-4.5 -33.5q-18 1 -117 8.5t-151 7.5q-41 0 -97 -3t-121 -7.5t-84 -5.5q-8 8 -8 41t8 33q77 0 119 36q17 14 17 33q0 8 -30 84.5t-60 148.5l-29 72q-8 9 -14 9q-29 2 -156 2h-37q-137 0 -207 -2 q-9 0 -14 -11q-49 -113 -72 -168q-45 -110 -45 -137q0 -32 61 -49.5t93 -17.5q8 -12 7.5 -39.5t-5.5 -34.5q-140 16 -215 16q-79 0 -219 -16q-6 6 -8.5 29.5zM420 559q0 -6 4 -6q62 -6 166 -6q99 0 160 4q2 0 3.5 2t2.5 4v2l-166 393zM592 1520q0 -45 31 -77t75 -32 t75.5 32.5t31.5 76.5t-31.5 75t-75.5 31t-75 -31t-31 -75z" />
<glyph unicode="&#xc6;" horiz-adv-x="1800" d="M-46.5 22q-0.5 23 7.5 41q24 0 82 21t76 43q16 19 30 38.5t21 31t22 35.5t23 36l588 940q0 4 -2 6q-4 8 -15 14t-29 9t-29.5 4.5t-32 2.5t-21.5 1q-7 11 -6.5 39t6.5 37q90 -6 287 -6q37 0 170 2.5t286 5.5t193 4q6 -45 15.5 -94t23 -113.5t18.5 -87.5q-10 -10 -45 -10 q-27 0 -33 16q-38 99 -84.5 150t-130.5 51h-166q-25 0 -34.5 -0.5t-27 -2t-26 -6.5t-12.5 -13q-10 -25 -10 -123v-359q0 -9 26 -14.5t60 -5.5h106q88 0 119.5 25t56.5 114q3 16 23 16q29 0 39 -10v-385q-6 -6 -37 -6q-24 0 -27 14q-27 104 -69 123q-37 15 -154 15 q-143 0 -143 -29v-309q0 -117 16 -158q8 -20 46.5 -30.5t82.5 -10.5h133q121 0 187 66q53 53 106 190q3 12 29 12q47 0 59 -12q-92 -258 -106 -344h-680q-65 0 -132 -0.5t-111.5 -1t-53.5 -0.5q-6 9 -6.5 36t6.5 38q118 9 127 34q16 41 16 189v160h-115h-43q-126 0 -196 -2 q-9 0 -14 -11q-78 -119 -111 -174q-23 -36 -44.5 -79t-23.5 -54q-3 -18 13 -31.5t41 -20.5t44.5 -10t28.5 -3q7 -10 7.5 -39t-5.5 -35q-136 16 -221 16q-75 0 -219 -16q-5 7 -5.5 30zM516 559q-2 -6 2 -6q61 -6 152 -6q94 0 147 4v489z" />
<glyph unicode="&#xc7;" horiz-adv-x="1347" d="M82 643q0 189 93 348t252 250.5t347 91.5q240 0 416 -37q0 -2 33.5 -145t33.5 -158q0 -9 -16.5 -18.5t-34.5 -9.5q-20 0 -28 8q-8 29 -20.5 59t-42.5 70.5t-69.5 71t-106 52t-146.5 21.5q-82 0 -149 -29.5t-111.5 -80t-74.5 -120.5t-43.5 -147.5t-13.5 -164.5 q0 -121 25.5 -230.5t76 -201t135 -145.5t193.5 -54q155 0 248 86q38 34 73 94.5t50 99t19 54.5q43 0 69 -23q0 -30 -31 -163.5t-51 -141.5q-7 -2 -38 -13.5t-40.5 -14.5t-38.5 -12.5t-42.5 -13t-40 -11t-45.5 -10.5t-44.5 -7.5t-50.5 -6.5t-51 -3q-7 -8 -22 -39q36 4 49 4 q42 0 74 -31.5t32 -73.5q0 -77 -56.5 -128.5t-150.5 -51.5q-33 0 -62 11t-42 24q-8 12 -8 41q0 16 6 16q64 -32 102 -32q50 0 73.5 18.5t23.5 44.5q0 28 -13.5 50t-44.5 22q-12 0 -55 -15q-5 0 -17 11.5t-12 19.5q40 64 58 107q-183 5 -336 90t-243.5 235t-90.5 332z" />
<glyph unicode="&#xc8;" horiz-adv-x="1202" d="M69.5 30q-0.5 27 6.5 38q120 9 129 34q16 41 16 189v735q0 147 -16 188q-2 6 -8.5 10.5t-17 7.5t-20.5 5t-24 3.5t-23 2t-21 1.5t-15 1q-7 11 -6.5 39t6.5 37q90 -6 286 -6q37 0 170.5 2.5t287.5 5.5t194 4q6 -45 15.5 -94t23 -113.5t18.5 -87.5q-10 -10 -47 -10 q-25 0 -31 16q-38 98 -85.5 149.5t-131.5 51.5h-166q-25 0 -34.5 -0.5t-27 -2t-26 -6.5t-12.5 -13q-8 -20 -8 -99v-24v-359q0 -9 26 -14.5t60 -5.5h104q88 0 119.5 25t56.5 114q3 16 25 16q27 0 37 -10v-385q-6 -6 -35 -6q-26 0 -29 14q-27 104 -69 123q-38 15 -152 15 q-143 0 -143 -29v-309v-4q0 -115 14 -154q8 -20 47.5 -30.5t83.5 -10.5h131q121 0 187 66q56 56 108 190q3 12 27 12q16 0 36.5 -4t24.5 -8q-96 -268 -108 -344q-899 0 -977 -2q-6 9 -6.5 36zM358 1663q0 37 38 56.5t75 19.5q21 0 37 -8q65 -49 152.5 -137t87.5 -99 q0 -10 -9.5 -24.5t-19.5 -14.5q-18 0 -104.5 35.5t-171.5 87t-85 84.5z" />
<glyph unicode="&#xc9;" horiz-adv-x="1202" d="M69.5 30q-0.5 27 6.5 38q120 9 129 34q16 41 16 189v735q0 147 -16 188q-2 6 -8.5 10.5t-17 7.5t-20.5 5t-24 3.5t-23 2t-21 1.5t-15 1q-7 11 -6.5 39t6.5 37q90 -6 286 -6q37 0 170.5 2.5t287.5 5.5t194 4q6 -45 15.5 -94t23 -113.5t18.5 -87.5q-10 -10 -47 -10 q-25 0 -31 16q-38 98 -85.5 149.5t-131.5 51.5h-166q-25 0 -34.5 -0.5t-27 -2t-26 -6.5t-12.5 -13q-8 -20 -8 -99v-24v-359q0 -9 26 -14.5t60 -5.5h104q88 0 119.5 25t56.5 114q3 16 25 16q27 0 37 -10v-385q-6 -6 -35 -6q-26 0 -29 14q-27 104 -69 123q-38 15 -152 15 q-143 0 -143 -29v-309v-4q0 -115 14 -154q8 -20 47.5 -30.5t83.5 -10.5h131q121 0 187 66q56 56 108 190q3 12 27 12q16 0 36.5 -4t24.5 -8q-96 -268 -108 -344q-899 0 -977 -2q-6 9 -6.5 36zM459 1495q0 11 88 99t153 137q16 8 35 8q37 0 75 -19.5t38 -56.5 q0 -33 -85 -84.5t-171.5 -87t-104.5 -35.5q-10 0 -19 14.5t-9 24.5z" />
<glyph unicode="&#xca;" horiz-adv-x="1202" d="M69.5 30q-0.5 27 6.5 38q120 9 129 34q16 41 16 189v735q0 147 -16 188q-2 6 -8.5 10.5t-17 7.5t-20.5 5t-24 3.5t-23 2t-21 1.5t-15 1q-7 11 -6.5 39t6.5 37q90 -6 286 -6q37 0 170.5 2.5t287.5 5.5t194 4q6 -45 15.5 -94t23 -113.5t18.5 -87.5q-10 -10 -47 -10 q-25 0 -31 16q-38 98 -85.5 149.5t-131.5 51.5h-166q-25 0 -34.5 -0.5t-27 -2t-26 -6.5t-12.5 -13q-8 -20 -8 -99v-24v-359q0 -9 26 -14.5t60 -5.5h104q88 0 119.5 25t56.5 114q3 16 25 16q27 0 37 -10v-385q-6 -6 -35 -6q-26 0 -29 14q-27 104 -69 123q-38 15 -152 15 q-143 0 -143 -29v-309v-4q0 -115 14 -154q8 -20 47.5 -30.5t83.5 -10.5h131q121 0 187 66q56 56 108 190q3 12 27 12q16 0 36.5 -4t24.5 -8q-96 -268 -108 -344q-899 0 -977 -2q-6 9 -6.5 36zM338 1495q22 17 143 129q32 30 90 96q17 21 27 21q6 0 27 -21q63 -68 84 -88 q111 -108 149 -137q0 -28 -20 -35q-21 5 -109 48.5t-131 72.5q-43 -29 -129 -72t-111 -49q-7 3 -13.5 13.5t-6.5 21.5z" />
<glyph unicode="&#xcb;" horiz-adv-x="1202" d="M69.5 30q-0.5 27 6.5 38q120 9 129 34q16 41 16 189v735q0 147 -16 188q-2 6 -8.5 10.5t-17 7.5t-20.5 5t-24 3.5t-23 2t-21 1.5t-15 1q-7 11 -6.5 39t6.5 37q90 -6 286 -6q37 0 170.5 2.5t287.5 5.5t194 4q6 -45 15.5 -94t23 -113.5t18.5 -87.5q-10 -10 -47 -10 q-25 0 -31 16q-38 98 -85.5 149.5t-131.5 51.5h-166q-25 0 -34.5 -0.5t-27 -2t-26 -6.5t-12.5 -13q-8 -20 -8 -99v-24v-359q0 -9 26 -14.5t60 -5.5h104q88 0 119.5 25t56.5 114q3 16 25 16q27 0 37 -10v-385q-6 -6 -35 -6q-26 0 -29 14q-27 104 -69 123q-38 15 -152 15 q-143 0 -143 -29v-309v-4q0 -115 14 -154q8 -20 47.5 -30.5t83.5 -10.5h131q121 0 187 66q56 56 108 190q3 12 27 12q16 0 36.5 -4t24.5 -8q-96 -268 -108 -344q-899 0 -977 -2q-6 9 -6.5 36zM242 1595q0 57 39 95.5t96 38.5t96 -38.5t39 -95.5t-39 -97t-96 -40t-96 40 t-39 97zM653 1595q0 57 39 95.5t96 38.5t96.5 -38.5t39.5 -95.5t-39.5 -97t-96.5 -40t-96 40t-39 97z" />
<glyph unicode="&#xcc;" horiz-adv-x="718" d="M69.5 28q-0.5 27 6.5 38q119 9 129 36q16 41 16 189v735q0 147 -16 188q-10 26 -129 35q-7 11 -6.5 38t6.5 36q117 -12 286 -12q166 0 283 12q6 -9 6.5 -36t-6.5 -38q-119 -9 -129 -35q-14 -37 -14 -161v-27v-735v-27q0 -125 14 -162q10 -27 129 -36q7 -11 6.5 -38 t-6.5 -36q-137 14 -287 14q-145 0 -282 -14q-6 9 -6.5 36zM115 1663q0 37 38 56.5t74 19.5q21 0 37 -8q65 -49 152.5 -137t87.5 -99q0 -10 -9.5 -24.5t-19.5 -14.5q-18 0 -104 35.5t-171 87t-85 84.5z" />
<glyph unicode="&#xcd;" horiz-adv-x="718" d="M69.5 28q-0.5 27 6.5 38q119 9 129 36q16 41 16 189v735q0 147 -16 188q-10 26 -129 35q-7 11 -6.5 38t6.5 36q117 -12 286 -12q166 0 283 12q6 -9 6.5 -36t-6.5 -38q-119 -9 -129 -35q-14 -37 -14 -161v-27v-735v-27q0 -125 14 -162q10 -27 129 -36q7 -11 6.5 -38 t-6.5 -36q-137 14 -287 14q-145 0 -282 -14q-6 9 -6.5 36zM219 1495q0 11 88.5 98.5t153.5 137.5q16 8 35 8q36 0 74 -19.5t38 -56.5q0 -33 -85 -84.5t-171 -87t-104 -35.5q-10 0 -19.5 14.5t-9.5 24.5z" />
<glyph unicode="&#xce;" horiz-adv-x="718" d="M69.5 28q-0.5 27 6.5 38q119 9 129 36q16 41 16 189v735q0 147 -16 188q-10 26 -129 35q-7 11 -6.5 38t6.5 36q117 -12 286 -12q166 0 283 12q6 -9 6.5 -36t-6.5 -38q-119 -9 -129 -35q-14 -37 -14 -161v-27v-735v-27q0 -125 14 -162q10 -27 129 -36q7 -11 6.5 -38 t-6.5 -36q-137 14 -287 14q-145 0 -282 -14q-6 9 -6.5 36zM104 1495q27 21 144 129q32 30 90 96q17 21 27 21q5 0 26 -21q63 -68 84 -88q108 -105 150 -137q0 -28 -21 -35q-21 5 -108.5 48.5t-130.5 72.5q-43 -29 -129 -72t-111 -49q-7 4 -14 14t-7 21z" />
<glyph unicode="&#xcf;" horiz-adv-x="718" d="M16 1595q0 57 39.5 95.5t96.5 38.5t96 -38.5t39 -95.5t-39 -97t-96 -40t-96.5 40t-39.5 97zM69.5 28q-0.5 27 6.5 38q119 9 129 36q16 41 16 189v735q0 147 -16 188q-10 26 -129 35q-7 11 -6.5 38t6.5 36q117 -12 286 -12q166 0 283 12q6 -9 6.5 -36t-6.5 -38 q-119 -9 -129 -35q-14 -37 -14 -161v-27v-735v-27q0 -125 14 -162q10 -27 129 -36q7 -11 6.5 -38t-6.5 -36q-137 14 -287 14q-145 0 -282 -14q-6 9 -6.5 36zM428 1595q0 57 39 95.5t96 38.5t96 -38.5t39 -95.5t-39 -97t-96 -40t-96 40t-39 97z" />
<glyph unicode="&#xd0;" horiz-adv-x="1529" d="M60 632q-2 16 0 36t8 28h161v330q0 147 -16 188q-2 6 -8.5 10.5t-17 7.5t-20.5 5t-24 3.5t-23 2t-21 1.5t-15 1q-7 11 -6.5 39t6.5 37q90 -6 287 -6q48 0 157.5 2.5t149.5 3.5q351 0 559.5 -172.5t208.5 -476.5q0 -171 -61 -303t-168.5 -212.5t-247.5 -121.5t-305 -41 h-117h-463q-6 9 -6.5 36t6.5 38q120 9 129 34q16 41 16 189v325h-163q-4 0 -6 16zM510 279q0 -115 14 -154q9 -21 47.5 -34t79.5 -13q244 0 359.5 139.5t115.5 431.5q0 285 -139 437.5t-369 152.5q-25 0 -34.5 -0.5t-27 -2t-26 -6.5t-12.5 -13q-8 -20 -8 -99v-24v-398h256 q6 0 6 -33t-6 -47h-256v-333v-4z" />
<glyph unicode="&#xd1;" horiz-adv-x="1519" d="M57.5 18.5q-0.5 18.5 1.5 33t4 14.5q32 0 91 14.5t69 38.5q10 23 17.5 82.5t7.5 117.5v709q0 49 -9 101t-28 79q-12 18 -58 29.5t-73 11.5q-8 0 -9.5 33.5t5.5 40.5q183 -12 225 -12q124 0 219 12q27 -55 103 -158.5t149 -193.5t201 -245t188 -230q4 14 4 82v374 q0 67 -6 151t-16 105q-10 24 -66 33.5t-96 9.5q-2 0 -4 14.5t-1.5 33t5.5 26.5q32 -1 112 -7.5t132 -6.5t145.5 6.5t106.5 7.5q4 -12 4 -37.5t-8 -38.5q-21 0 -48.5 -1.5t-69 -13t-48.5 -30.5q-7 -20 -13 -103.5t-6 -142.5v-679q0 -73 8 -281q-8 -8 -51 -8q-26 0 -61 47 l-815 1001v-725q0 -52 7 -110.5t15 -81.5q9 -25 71.5 -39t92.5 -14q8 -13 8 -38.5t-4 -37.5q-23 1 -112 8.5t-140 7.5t-129.5 -7t-114.5 -9q-5 8 -5.5 26.5zM399 1516q0 42 39 96q77 96 187 96q81 0 178 -57q111 -64 166 -64q37 0 70 14.5t50.5 32t33 35t20.5 19.5 q7 0 11.5 -9t4.5 -18q0 -45 -37 -96q-80 -99 -186 -99q-81 0 -180 58q-37 22 -58 33t-52 21.5t-56 10.5q-37 0 -70 -15t-50.5 -32.5t-33 -35t-20.5 -19.5q-7 0 -12 10t-5 19z" />
<glyph unicode="&#xd2;" horiz-adv-x="1519" d="M80 655q0 137 57 263.5t150.5 216.5t218 144t254.5 54t254.5 -54t218 -144t150.5 -216.5t57 -263.5q0 -183 -96.5 -339.5t-253 -246t-330.5 -89.5t-330.5 89.5t-253 246t-96.5 339.5zM399 725q0 -96 13 -186t43.5 -177t76 -152t115.5 -104.5t156 -39.5q85 0 149 46 t99.5 123.5t52 164.5t16.5 184q0 95 -13.5 186t-44.5 178.5t-76.5 153t-116 105.5t-156.5 40q-85 0 -148 -46.5t-98 -124.5t-51.5 -166t-16.5 -185zM469 1663q0 37 38 56.5t75 19.5q20 0 36 -8q65 -49 152.5 -137t87.5 -99q0 -10 -9.5 -24.5t-19.5 -14.5q-18 0 -104 35.5 t-171 87t-85 84.5z" />
<glyph unicode="&#xd3;" horiz-adv-x="1519" d="M80 655q0 137 57 263.5t150.5 216.5t218 144t254.5 54t254.5 -54t218 -144t150.5 -216.5t57 -263.5q0 -183 -96.5 -339.5t-253 -246t-330.5 -89.5t-330.5 89.5t-253 246t-96.5 339.5zM399 725q0 -96 13 -186t43.5 -177t76 -152t115.5 -104.5t156 -39.5q85 0 149 46 t99.5 123.5t52 164.5t16.5 184q0 95 -13.5 186t-44.5 178.5t-76.5 153t-116 105.5t-156.5 40q-85 0 -148 -46.5t-98 -124.5t-51.5 -166t-16.5 -185zM637 1495q0 11 88.5 98.5t153.5 137.5q16 8 34 8q37 0 75 -19.5t38 -56.5q0 -33 -85 -84.5t-171 -87t-104 -35.5 q-10 0 -19.5 14.5t-9.5 24.5z" />
<glyph unicode="&#xd4;" horiz-adv-x="1519" d="M80 655q0 137 57 263.5t150.5 216.5t218 144t254.5 54t254.5 -54t218 -144t150.5 -216.5t57 -263.5q0 -183 -96.5 -339.5t-253 -246t-330.5 -89.5t-330.5 89.5t-253 246t-96.5 339.5zM399 725q0 -96 13 -186t43.5 -177t76 -152t115.5 -104.5t156 -39.5q85 0 149 46 t99.5 123.5t52 164.5t16.5 184q0 95 -13.5 186t-44.5 178.5t-76.5 153t-116 105.5t-156.5 40q-85 0 -148 -46.5t-98 -124.5t-51.5 -166t-16.5 -185zM504 1495q22 17 143 129q32 30 90 96q17 21 27 21q6 0 27 -21q70 -76 83 -88q108 -105 150 -137q0 -28 -20 -35 q-21 5 -109 48.5t-131 72.5q-43 -29 -129 -72t-111 -49q-7 3 -13.5 13.5t-6.5 21.5z" />
<glyph unicode="&#xd5;" horiz-adv-x="1519" d="M80 655q0 137 57 263.5t150.5 216.5t218 144t254.5 54t254.5 -54t218 -144t150.5 -216.5t57 -263.5q0 -183 -96.5 -339.5t-253 -246t-330.5 -89.5t-330.5 89.5t-253 246t-96.5 339.5zM393 1516q0 42 39 96q77 96 186 96q82 0 179 -57q111 -64 166 -64q37 0 70 14.5 t50.5 32t33 35t20.5 19.5q7 0 11.5 -9t4.5 -18q0 -45 -37 -96q-80 -99 -186 -99q-81 0 -180 58q-37 22 -58 33t-52 21.5t-56 10.5q-37 0 -70 -15t-50.5 -32.5t-33 -35t-20.5 -19.5q-7 0 -12 10t-5 19zM399 725q0 -96 13 -186t43.5 -177t76 -152t115.5 -104.5t156 -39.5 q85 0 149 46t99.5 123.5t52 164.5t16.5 184q0 95 -13.5 186t-44.5 178.5t-76.5 153t-116 105.5t-156.5 40q-85 0 -148 -46.5t-98 -124.5t-51.5 -166t-16.5 -185z" />
<glyph unicode="&#xd6;" horiz-adv-x="1519" d="M80 655q0 137 57 263.5t150.5 216.5t218 144t254.5 54t254.5 -54t218 -144t150.5 -216.5t57 -263.5q0 -183 -96.5 -339.5t-253 -246t-330.5 -89.5t-330.5 89.5t-253 246t-96.5 339.5zM399 725q0 -96 13 -186t43.5 -177t76 -152t115.5 -104.5t156 -39.5q85 0 149 46 t99.5 123.5t52 164.5t16.5 184q0 95 -13.5 186t-44.5 178.5t-76.5 153t-116 105.5t-156.5 40q-85 0 -148 -46.5t-98 -124.5t-51.5 -166t-16.5 -185zM418 1595q0 57 39 95.5t96 38.5t96 -38.5t39 -95.5t-39 -97t-96 -40t-96 40t-39 97zM829 1595q0 57 39.5 95.5t96.5 38.5 t96 -38.5t39 -95.5t-39 -97t-96 -40t-96.5 40t-39.5 97z" />
<glyph unicode="&#xd7;" horiz-adv-x="929" d="M109 213l282 283l-282 284q0 21 20.5 51.5t34.5 30.5q10 0 14 -4q289 -281 293 -285l287 285q4 4 12 4q13 0 32 -35.5t19 -52.5l-274 -274l274 -287q0 -25 -17 -55.5t-34 -30.5q-10 0 -14 4q-287 289 -289 291l-295 -295q-2 -2 -8 -2h-4q-13 0 -32 35.5t-19 52.5z" />
<glyph unicode="&#xd8;" horiz-adv-x="1517" d="M80 655q0 137 57 263.5t150.5 216.5t218 144t254.5 54q144 0 276 -63l45 82q1 0 4 -1t5 -1q72 -25 67 -39l-45 -82q147 -92 237.5 -245t90.5 -329q0 -183 -96.5 -339.5t-253 -246t-330.5 -89.5q-161 0 -305 75l-52 -92q-79 30 -75 45l53 92q-137 95 -219 241t-82 314z M399 725q0 -260 86 -436l473 846q-98 112 -245 112q-85 0 -148 -46.5t-98 -124.5t-51.5 -166t-16.5 -185zM537 203q103 -137 266 -137q85 0 149 46t99.5 123.5t52 164.5t16.5 184q0 290 -106 473z" />
<glyph unicode="&#xd9;" horiz-adv-x="1458" d="M38.5 1287q0.5 27 6.5 36q117 -12 287 -12q163 0 280 12q6 -9 6.5 -36t-6.5 -38q-117 -9 -127 -35q-16 -41 -16 -188v-367q0 -118 9 -193.5t40 -148.5q82 -190 305 -190q62 0 118.5 28.5t103.5 85t74.5 154t27.5 223.5v340q0 66 -8.5 140t-20.5 104q-15 37 -149 47 q-7 11 -6.5 38t6.5 36q141 -12 250 -12q39 0 77 2t82.5 5.5t73.5 4.5q6 -9 6.5 -36t-6.5 -38l-16 -1q-15 -1 -24 -2t-26.5 -3t-29.5 -5t-25 -8t-21.5 -12t-11.5 -16q-12 -30 -20 -102.5t-8 -138.5v-390q0 -148 -44.5 -263.5t-121 -185t-173.5 -105t-208 -35.5 q-131 0 -241.5 44t-180.5 132q-113 142 -113 444v424q0 147 -16 188q-10 26 -127 35q-7 11 -6.5 38zM526 1663q0 37 38 56.5t75 19.5q21 0 37 -8q65 -49 152 -136.5t87 -99.5q0 -10 -9 -24.5t-19 -14.5q-18 0 -104.5 35.5t-171.5 87t-85 84.5z" />
<glyph unicode="&#xda;" horiz-adv-x="1458" d="M38.5 1287q0.5 27 6.5 36q117 -12 287 -12q163 0 280 12q6 -9 6.5 -36t-6.5 -38q-117 -9 -127 -35q-16 -41 -16 -188v-367q0 -118 9 -193.5t40 -148.5q82 -190 305 -190q62 0 118.5 28.5t103.5 85t74.5 154t27.5 223.5v340q0 66 -8.5 140t-20.5 104q-15 37 -149 47 q-7 11 -6.5 38t6.5 36q141 -12 250 -12q39 0 77 2t82.5 5.5t73.5 4.5q6 -9 6.5 -36t-6.5 -38l-16 -1q-15 -1 -24 -2t-26.5 -3t-29.5 -5t-25 -8t-21.5 -12t-11.5 -16q-12 -30 -20 -102.5t-8 -138.5v-390q0 -148 -44.5 -263.5t-121 -185t-173.5 -105t-208 -35.5 q-131 0 -241.5 44t-180.5 132q-113 142 -113 444v424q0 147 -16 188q-10 26 -127 35q-7 11 -6.5 38zM623 1495q0 11 88 99t153 137q16 8 35 8q37 0 75 -19.5t38 -56.5q0 -33 -85 -84.5t-171.5 -87t-104.5 -35.5q-10 0 -19 14.5t-9 24.5z" />
<glyph unicode="&#xdb;" horiz-adv-x="1458" d="M38.5 1287q0.5 27 6.5 36q117 -12 287 -12q163 0 280 12q6 -9 6.5 -36t-6.5 -38q-117 -9 -127 -35q-16 -41 -16 -188v-367q0 -118 9 -193.5t40 -148.5q82 -190 305 -190q62 0 118.5 28.5t103.5 85t74.5 154t27.5 223.5v340q0 66 -8.5 140t-20.5 104q-15 37 -149 47 q-7 11 -6.5 38t6.5 36q141 -12 250 -12q39 0 77 2t82.5 5.5t73.5 4.5q6 -9 6.5 -36t-6.5 -38l-16 -1q-15 -1 -24 -2t-26.5 -3t-29.5 -5t-25 -8t-21.5 -12t-11.5 -16q-12 -30 -20 -102.5t-8 -138.5v-390q0 -148 -44.5 -263.5t-121 -185t-173.5 -105t-208 -35.5 q-131 0 -241.5 44t-180.5 132q-113 142 -113 444v424q0 147 -16 188q-10 26 -127 35q-7 11 -6.5 38zM528 1495q27 21 144 129q32 30 90 96q18 21 26 21q6 0 27 -21q63 -68 84 -88q108 -105 150 -137q0 -28 -21 -35q-21 5 -109 48.5t-131 72.5q-44 -29 -129 -72t-110 -49 q-7 4 -14 14t-7 21z" />
<glyph unicode="&#xdc;" horiz-adv-x="1458" d="M38.5 1287q0.5 27 6.5 36q117 -12 287 -12q163 0 280 12q6 -9 6.5 -36t-6.5 -38q-117 -9 -127 -35q-16 -41 -16 -188v-367q0 -118 9 -193.5t40 -148.5q82 -190 305 -190q62 0 118.5 28.5t103.5 85t74.5 154t27.5 223.5v340q0 66 -8.5 140t-20.5 104q-15 37 -149 47 q-7 11 -6.5 38t6.5 36q141 -12 250 -12q39 0 77 2t82.5 5.5t73.5 4.5q6 -9 6.5 -36t-6.5 -38l-16 -1q-15 -1 -24 -2t-26.5 -3t-29.5 -5t-25 -8t-21.5 -12t-11.5 -16q-12 -30 -20 -102.5t-8 -138.5v-390q0 -148 -44.5 -263.5t-121 -185t-173.5 -105t-208 -35.5 q-131 0 -241.5 44t-180.5 132q-113 142 -113 444v424q0 147 -16 188q-10 26 -127 35q-7 11 -6.5 38zM444 1595q0 57 39.5 95.5t96.5 38.5t96 -38.5t39 -95.5t-39 -97t-96 -40t-96.5 40t-39.5 97zM856 1595q0 57 39 95.5t96 38.5t96 -38.5t39 -95.5t-39 -97t-96 -40t-96 40 t-39 97z" />
<glyph unicode="&#xdd;" horiz-adv-x="1247" d="M-0.5 1287q0.5 27 6.5 36q117 -12 287 -12q165 0 282 12q6 -9 6.5 -36t-6.5 -38l-11 -1q-11 0 -15.5 -0.5t-16.5 -2t-19 -3.5t-17.5 -4.5t-17 -6.5t-13 -9t-9.5 -11.5t-3 -14.5t14 -33l240 -440q7 -7 85 131t166 301q11 22 11 47q0 36 -148 47q-7 11 -6.5 38t6.5 36 q141 -12 226 -12q52 0 128.5 5.5t94.5 6.5q6 -9 6.5 -36t-6.5 -38q-1 0 -11 -0.5t-15.5 -1t-17 -2t-19.5 -3t-19.5 -4t-20 -6t-17.5 -8t-16 -11t-12 -13.5q-52 -79 -189.5 -303t-174.5 -301q-10 -23 -10 -39v-266v-27q0 -125 14 -162q10 -27 129 -36q7 -11 6.5 -38t-6.5 -36 q-137 14 -287 14q-144 0 -280 -14q-6 9 -6.5 36t6.5 38q117 9 127 36q16 41 16 189v276q0 17 -12 41q-23 48 -85.5 164.5t-113.5 208.5l-51 92q-11 19 -29.5 53.5t-32.5 57.5q-20 32 -62 47.5t-75 17.5q-7 11 -6.5 38zM580 1495q0 11 88 99t153 137q16 8 35 8q37 0 75 -19.5 t38 -56.5q0 -33 -85 -84.5t-171.5 -87t-104.5 -35.5q-10 0 -19 14.5t-9 24.5z" />
<glyph unicode="&#xde;" horiz-adv-x="1165" d="M69.5 28q-0.5 27 6.5 38q119 9 129 36q16 41 16 189v735q0 147 -16 188q-10 26 -129 35q-7 11 -6.5 38t6.5 36q117 -12 286 -12q166 0 283 12q6 -9 6.5 -36t-6.5 -38q-119 -9 -129 -35q-14 -36 -14 -137v-43q102 4 170 4q194 0 322 -95.5t128 -260.5q0 -173 -117 -281 t-276 -108q-48 0 -86 15t-53 30t-15 49q0 14 9 14q27 -8 82 -8q74 0 124 73t50 187q0 122 -66.5 213.5t-163.5 91.5q-90 0 -100 -24q-4 -11 -6 -42t-2 -56v-25v-520v-27q0 -125 14 -162q10 -27 129 -36q7 -11 6.5 -38t-6.5 -36q-137 14 -287 14q-145 0 -282 -14 q-6 9 -6.5 36z" />
<glyph unicode="&#xdf;" horiz-adv-x="1179" d="M38.5 28q-0.5 27 6.5 38q117 9 127 36q16 41 16 189v471h-116q-11 4 -11 26q26 37 64 68h63v31q0 99 43.5 194.5t111.5 163.5t152 110t162 42q135 0 243 -78t108 -193q0 -34 -8.5 -62t-28 -53t-30 -36t-36.5 -35q-9 -9 -36 -31.5t-41.5 -35.5t-28 -32.5t-13.5 -35.5 q0 -26 24.5 -61.5t49 -60t68 -64t53.5 -48.5q34 -33 54 -55t43.5 -56.5t34.5 -72.5t11 -82q0 -73 -31.5 -136t-81.5 -103t-109.5 -63t-117.5 -23q-54 0 -106 15t-76 40q-16 32 -16 74q0 51 27 93t69 42q10 0 19.5 -2t17.5 -5t15.5 -9t13 -10t12 -13t9.5 -13t8.5 -14t7 -13.5 t6.5 -14t6 -11.5q35 -71 80 -71q63 0 63 96q0 16 -2.5 31.5t-10 31.5t-13 28.5t-19 30t-20 26.5t-25 28.5t-24.5 26t-27.5 27.5t-26.5 26q-13 13 -49.5 47t-54 53t-41.5 50t-34.5 62t-10.5 64q0 16 5 32t18.5 35t21 28.5t29 33.5t26.5 29q45 50 65.5 92t20.5 105 q0 62 -15.5 117t-53.5 95t-93 40q-63 0 -110 -92.5t-47 -237.5v-682q0 -148 16 -189q11 -30 86 -36q7 -11 6.5 -38t-6.5 -36q-137 14 -232 14q-138 0 -274 -14q-6 9 -6.5 36z" />
<glyph unicode="&#xe0;" horiz-adv-x="942" d="M61 227q0 56 32 101.5t73 58.5q16 5 371 141v95q0 78 -34 138t-85 60q-27 0 -47 -12.5t-33 -39t-20.5 -51t-16.5 -65.5q-20 -88 -111 -88q-41 0 -72.5 28.5t-31.5 68.5q0 28 29 81q39 39 153.5 96.5t227.5 57.5q127 0 214 -86t87 -219v-375q0 -39 13 -60.5t34 -21.5 q10 0 20 3t16 6t13 7t8 5q14 -7 14 -33q0 -18 -8 -31q-21 -20 -47.5 -40t-73 -42t-84.5 -22q-47 0 -92 31.5t-59 68.5q-24 -22 -102 -63t-125 -41q-110 0 -186.5 75t-76.5 168zM240 1292q0 18 23 38t69 20q50 0 67 -17q34 -39 80 -105.5t76.5 -116t30.5 -54.5 q0 -10 -11.5 -23.5t-21.5 -13.5q-12 0 -88 51t-150.5 118.5t-74.5 102.5zM332 248q1 -59 39.5 -91t83.5 -32q33 0 57.5 15t24.5 26v280q-7 -3 -58.5 -25t-75.5 -38q-38 -26 -55.5 -62.5t-15.5 -72.5z" />
<glyph unicode="&#xe1;" horiz-adv-x="942" d="M61 227q0 56 32 101.5t73 58.5q16 5 371 141v95q0 78 -34 138t-85 60q-27 0 -47 -12.5t-33 -39t-20.5 -51t-16.5 -65.5q-20 -88 -111 -88q-41 0 -72.5 28.5t-31.5 68.5q0 28 29 81q39 39 153.5 96.5t227.5 57.5q127 0 214 -86t87 -219v-375q0 -39 13 -60.5t34 -21.5 q10 0 20 3t16 6t13 7t8 5q14 -7 14 -33q0 -18 -8 -31q-21 -20 -47.5 -40t-73 -42t-84.5 -22q-47 0 -92 31.5t-59 68.5q-24 -22 -102 -63t-125 -41q-110 0 -186.5 75t-76.5 168zM332 248q1 -59 39.5 -91t83.5 -32q33 0 57.5 15t24.5 26v280q-7 -3 -58.5 -25t-75.5 -38 q-38 -26 -55.5 -62.5t-15.5 -72.5zM332 1057q0 5 30.5 54.5t76 116t79.5 105.5q17 17 68 17q46 0 69 -20t23 -38q0 -35 -74 -102.5t-149.5 -118.5t-87.5 -51q-10 0 -22.5 14t-12.5 23z" />
<glyph unicode="&#xe2;" horiz-adv-x="942" d="M61 227q0 56 32 101.5t73 58.5q16 5 371 141v95q0 78 -34 138t-85 60q-27 0 -47 -12.5t-33 -39t-20.5 -51t-16.5 -65.5q-20 -88 -111 -88q-41 0 -72.5 28.5t-31.5 68.5q0 28 29 81q39 39 153.5 96.5t227.5 57.5q127 0 214 -86t87 -219v-375q0 -39 13 -60.5t34 -21.5 q10 0 20 3t16 6t13 7t8 5q14 -7 14 -33q0 -18 -8 -31q-21 -20 -47.5 -40t-73 -42t-84.5 -22q-47 0 -92 31.5t-59 68.5q-24 -22 -102 -63t-125 -41q-110 0 -186.5 75t-76.5 168zM227 1067q47 47 131 156q49 65 78 114q11 19 27 19q4 0 7.5 -1.5t5 -3t5.5 -7t6 -7.5 q6 -8 29 -43t45 -61q88 -117 137 -166q0 -15 -5.5 -29.5t-12.5 -17.5q-16 5 -96.5 60t-120.5 89q-40 -34 -117 -87t-100 -62q-7 3 -13 17.5t-6 29.5zM332 248q1 -59 39.5 -91t83.5 -32q33 0 57.5 15t24.5 26v280q-7 -3 -58.5 -25t-75.5 -38q-38 -26 -55.5 -62.5t-15.5 -72.5 z" />
<glyph unicode="&#xe3;" horiz-adv-x="942" d="M61 227q0 56 32 101.5t73 58.5q16 5 371 141v95q0 78 -34 138t-85 60q-27 0 -47 -12.5t-33 -39t-20.5 -51t-16.5 -65.5q-20 -88 -111 -88q-41 0 -72.5 28.5t-31.5 68.5q0 28 29 81q39 39 153.5 96.5t227.5 57.5q127 0 214 -86t87 -219v-375q0 -39 13 -60.5t34 -21.5 q10 0 20 3t16 6t13 7t8 5q14 -7 14 -33q0 -18 -8 -31q-21 -20 -47.5 -40t-73 -42t-84.5 -22q-47 0 -92 31.5t-59 68.5q-24 -22 -102 -63t-125 -41q-110 0 -186.5 75t-76.5 168zM135 1077q0 43 31 103q64 98 149 98q63 0 148 -61q35 -27 75.5 -46.5t65.5 -19.5 q30 0 55.5 15.5t38 33.5t24 36t15.5 21q17 0 17 -24q0 -43 -33 -107q-66 -102 -152 -102q-27 0 -55.5 11t-44 20.5t-45.5 31.5q-87 68 -141 68q-30 0 -54.5 -15.5t-36 -34.5t-22 -37t-14.5 -21q-9 0 -15 10.5t-6 19.5zM332 248q1 -59 39.5 -91t83.5 -32q33 0 57.5 15 t24.5 26v280q-7 -3 -58.5 -25t-75.5 -38q-38 -26 -55.5 -62.5t-15.5 -72.5z" />
<glyph unicode="&#xe4;" horiz-adv-x="942" d="M61 227q0 56 32 101.5t73 58.5q16 5 371 141v95q0 78 -34 138t-85 60q-27 0 -47 -12.5t-33 -39t-20.5 -51t-16.5 -65.5q-20 -88 -111 -88q-41 0 -72.5 28.5t-31.5 68.5q0 28 29 81q39 39 153.5 96.5t227.5 57.5q127 0 214 -86t87 -219v-375q0 -39 13 -60.5t34 -21.5 q10 0 20 3t16 6t13 7t8 5q14 -7 14 -33q0 -18 -8 -31q-21 -20 -47.5 -40t-73 -42t-84.5 -22q-47 0 -92 31.5t-59 68.5q-24 -22 -102 -63t-125 -41q-110 0 -186.5 75t-76.5 168zM109 1165q0 57 41 97.5t98 40.5t97 -40.5t40 -97.5t-40 -99t-97 -42t-98 42t-41 99zM332 248 q1 -59 39.5 -91t83.5 -32q33 0 57.5 15t24.5 26v280q-7 -3 -58.5 -25t-75.5 -38q-38 -26 -55.5 -62.5t-15.5 -72.5zM485 1165q0 57 41.5 97.5t98.5 40.5t98 -40.5t41 -97.5t-41 -99t-98 -42t-98.5 42t-41.5 99z" />
<glyph unicode="&#xe5;" horiz-adv-x="942" d="M61 227q0 56 32 101.5t73 58.5q16 5 371 141v95q0 78 -34 138t-85 60q-27 0 -47 -12.5t-33 -39t-20.5 -51t-16.5 -65.5q-20 -88 -111 -88q-41 0 -72.5 28.5t-31.5 68.5q0 28 29 81q39 39 153.5 96.5t227.5 57.5q127 0 214 -86t87 -219v-375q0 -39 13 -60.5t34 -21.5 q10 0 20 3t16 6t13 7t8 5q14 -7 14 -33q0 -18 -8 -31q-21 -20 -47.5 -40t-73 -42t-84.5 -22q-47 0 -92 31.5t-59 68.5q-24 -22 -102 -63t-125 -41q-110 0 -186.5 75t-76.5 168zM291 1219q0 92 65.5 156.5t157.5 64.5t156.5 -64.5t64.5 -156.5q0 -93 -64.5 -158.5 t-156.5 -65.5t-157.5 66t-65.5 158zM332 248q1 -59 39.5 -91t83.5 -32q33 0 57.5 15t24.5 26v280q-7 -3 -58.5 -25t-75.5 -38q-38 -26 -55.5 -62.5t-15.5 -72.5zM385 1219q0 -54 37.5 -93t91.5 -39t91.5 39t37.5 93t-37.5 92.5t-91.5 38.5t-91.5 -38.5t-37.5 -92.5z" />
<glyph unicode="&#xe6;" horiz-adv-x="1390" d="M61 227q0 56 32 101.5t73 58.5q213 70 403 139q6 4 11.5 18t5.5 25q0 45 -4 68q-14 83 -61.5 133.5t-102.5 50.5q-27 0 -47 -12.5t-33 -39t-20.5 -51t-16.5 -65.5q-20 -88 -111 -88q-41 0 -72.5 28.5t-31.5 68.5q0 28 29 81q39 39 153.5 96.5t227.5 57.5q147 0 233 -109 q119 107 252 107q75 0 136.5 -20.5t99.5 -52.5t64.5 -73t37 -80.5t10.5 -76.5q0 -33 -15 -58t-38 -26q-194 -17 -479 -25q0 -80 20.5 -142t51 -97t70 -57.5t72.5 -29.5t64 -7q129 0 225 100q10 -3 16.5 -15t6.5 -22q0 -31 -4 -37q-17 -25 -47 -54.5t-76 -62.5t-109.5 -55 t-130.5 -22q-101 0 -184 37t-135 108q-74 -60 -167 -101.5t-146 -41.5q-110 0 -186.5 75t-76.5 168zM332 248q1 -59 39.5 -91t83.5 -32q39 0 88 27.5t49 52.5q-31 95 -31 182q0 28 2 59q-4 -1 -45 -14.5t-69 -25t-46 -23.5q-38 -26 -55.5 -62.5t-15.5 -72.5zM799 563 q13 -1 117.5 5.5t140.5 11.5q11 1 17 7.5t6.5 11t0.5 13.5q0 80 -29 139.5t-91 59.5q-42 0 -75 -28.5t-51 -70.5t-27 -81t-9 -68z" />
<glyph unicode="&#xe7;" horiz-adv-x="892" d="M61 399q0 90 43.5 180.5t114 160t167.5 113.5t198 44q141 0 202 -37q39 -43 39 -96q0 -47 -31.5 -86t-82.5 -39q-15 0 -29 5t-28 17t-21.5 19.5t-23 26t-19.5 22.5q-57 64 -135 64q-42 0 -75.5 -44t-50 -106.5t-16.5 -126.5q0 -81 18 -145.5t47 -105t67.5 -67.5 t77.5 -37.5t79 -10.5q54 0 100.5 17t71 36t51.5 47q10 -3 17.5 -15t7.5 -22q0 -28 -6 -37q-23 -33 -61 -69.5t-111.5 -76t-151.5 -46.5q-3 -5 -9 -16.5t-9 -16.5q32 4 43 4q40 0 70 -30t30 -68q0 -73 -52 -120.5t-142 -47.5q-30 0 -58 9.5t-39 20.5q-8 12 -8 41q0 15 6 15 q62 -31 97 -31q47 0 67.5 17t20.5 42q0 68 -52 68q-18 0 -53 -14q-5 0 -14.5 10t-9.5 18q29 50 49 97q-167 9 -281.5 122t-114.5 295z" />
<glyph unicode="&#xe8;" horiz-adv-x="919" d="M63 399q0 124 63 239t166.5 186t215.5 71q93 0 164.5 -30.5t110 -78t57 -97t18.5 -97.5q0 -33 -15 -58t-38 -26q-193 -17 -481 -25q0 -80 21 -142t51.5 -97t70.5 -57.5t73 -29.5t64 -7q54 0 100.5 17t71 36t51.5 47q10 -3 17.5 -15t7.5 -22q0 -28 -6 -37 q-17 -25 -47 -54.5t-76 -62.5t-109.5 -55t-130.5 -22q-113 0 -207.5 48.5t-153.5 145t-59 223.5zM254 1292q0 18 23 38t69 20q51 0 68 -17q34 -39 79.5 -105.5t76 -116t30.5 -54.5q0 -10 -11.5 -23.5t-21.5 -13.5q-12 0 -88 51t-150.5 118.5t-74.5 102.5zM326 563 q13 -1 117.5 5.5t140.5 11.5q26 2 26 32q0 80 -30.5 139.5t-92.5 59.5q-42 0 -75 -28.5t-50.5 -70.5t-26.5 -81t-9 -68z" />
<glyph unicode="&#xe9;" horiz-adv-x="919" d="M63 399q0 124 63 239t166.5 186t215.5 71q93 0 164.5 -30.5t110 -78t57 -97t18.5 -97.5q0 -33 -15 -58t-38 -26q-193 -17 -481 -25q0 -80 21 -142t51.5 -97t70.5 -57.5t73 -29.5t64 -7q54 0 100.5 17t71 36t51.5 47q10 -3 17.5 -15t7.5 -22q0 -28 -6 -37 q-17 -25 -47 -54.5t-76 -62.5t-109.5 -55t-130.5 -22q-113 0 -207.5 48.5t-153.5 145t-59 223.5zM326 563q13 -1 117.5 5.5t140.5 11.5q26 2 26 32q0 80 -30.5 139.5t-92.5 59.5q-42 0 -75 -28.5t-50.5 -70.5t-26.5 -81t-9 -68zM375 1057q0 5 30.5 54.5t76 116t79.5 105.5 q17 17 68 17q46 0 69 -20t23 -38q0 -35 -74 -102.5t-149.5 -118.5t-87.5 -51q-10 0 -22.5 14t-12.5 23z" />
<glyph unicode="&#xea;" horiz-adv-x="919" d="M63 399q0 124 63 239t166.5 186t215.5 71q93 0 164.5 -30.5t110 -78t57 -97t18.5 -97.5q0 -33 -15 -58t-38 -26q-193 -17 -481 -25q0 -80 21 -142t51.5 -97t70.5 -57.5t73 -29.5t64 -7q54 0 100.5 17t71 36t51.5 47q10 -3 17.5 -15t7.5 -22q0 -28 -6 -37 q-17 -25 -47 -54.5t-76 -62.5t-109.5 -55t-130.5 -22q-113 0 -207.5 48.5t-153.5 145t-59 223.5zM248 1067q47 47 131 156q49 65 78 114q11 19 26 19q4 0 6.5 -0.5t5 -3l3.5 -3.5t4.5 -5.5t5.5 -6.5q6 -8 29 -43t45 -61q88 -117 137 -166q0 -15 -6 -29.5t-13 -17.5 q-16 5 -96.5 60t-120.5 89q-40 -34 -117 -87t-100 -62q-7 3 -12.5 17.5t-5.5 29.5zM326 563q13 -1 117.5 5.5t140.5 11.5q26 2 26 32q0 80 -30.5 139.5t-92.5 59.5q-42 0 -75 -28.5t-50.5 -70.5t-26.5 -81t-9 -68z" />
<glyph unicode="&#xeb;" horiz-adv-x="919" d="M63 399q0 124 63 239t166.5 186t215.5 71q93 0 164.5 -30.5t110 -78t57 -97t18.5 -97.5q0 -33 -15 -58t-38 -26q-193 -17 -481 -25q0 -80 21 -142t51.5 -97t70.5 -57.5t73 -29.5t64 -7q54 0 100.5 17t71 36t51.5 47q10 -3 17.5 -15t7.5 -22q0 -28 -6 -37 q-17 -25 -47 -54.5t-76 -62.5t-109.5 -55t-130.5 -22q-113 0 -207.5 48.5t-153.5 145t-59 223.5zM147 1165q0 57 41.5 97.5t98.5 40.5t97 -40.5t40 -97.5t-40 -99t-97 -42t-98.5 42t-41.5 99zM326 563q13 -1 117.5 5.5t140.5 11.5q26 2 26 32q0 80 -30.5 139.5t-92.5 59.5 q-42 0 -75 -28.5t-50.5 -70.5t-26.5 -81t-9 -68zM524 1165q0 57 41.5 97.5t98.5 40.5t98 -40.5t41 -97.5t-41 -99t-98 -42t-98.5 42t-41.5 99z" />
<glyph unicode="&#xec;" horiz-adv-x="628" d="M59.5 28q-0.5 27 6.5 38q117 9 127 36q16 41 16 189v229q0 127 -19 164q-10 20 -55.5 30.5t-68.5 10.5q-5 3 -5 32t7 29q104 8 213 40.5t176 66.5q10 -3 22.5 -16.5t12.5 -18.5q-5 -12 -12.5 -53t-8.5 -62q-2 -43 -2 -125v-327q0 -148 16 -189q11 -28 113 -36 q7 -11 6.5 -38t-6.5 -36q-137 14 -260 14q-135 0 -272 -14q-6 9 -6.5 36zM119 1292q0 18 23 38t69 20q51 0 68 -17q34 -39 79.5 -105.5t76 -116t30.5 -54.5q0 -10 -11.5 -23.5t-21.5 -13.5q-12 0 -88 51t-150.5 118.5t-74.5 102.5z" />
<glyph unicode="&#xed;" horiz-adv-x="628" d="M59.5 28q-0.5 27 6.5 38q117 9 127 36q16 41 16 189v229q0 127 -19 164q-10 20 -55.5 30.5t-68.5 10.5q-5 3 -5 32t7 29q104 8 213 40.5t176 66.5q10 -3 22.5 -16.5t12.5 -18.5q-5 -12 -12.5 -53t-8.5 -62q-2 -43 -2 -125v-327q0 -148 16 -189q11 -28 113 -36 q7 -11 6.5 -38t-6.5 -36q-137 14 -260 14q-135 0 -272 -14q-6 9 -6.5 36zM190 1057q0 5 30.5 54.5t76.5 116t80 105.5q17 17 67 17q46 0 69.5 -20t23.5 -38q0 -35 -74.5 -102.5t-150 -118.5t-87.5 -51q-10 0 -22.5 14t-12.5 23z" />
<glyph unicode="&#xee;" horiz-adv-x="628" d="M59.5 28q-0.5 27 6.5 38q117 9 127 36q16 41 16 189v229q0 127 -19 164q-10 20 -55.5 30.5t-68.5 10.5q-5 3 -5 32t7 29q104 8 213 40.5t176 66.5q10 -3 22.5 -16.5t12.5 -18.5q-5 -12 -12.5 -53t-8.5 -62q-2 -43 -2 -125v-327q0 -148 16 -189q11 -28 113 -36 q7 -11 6.5 -38t-6.5 -36q-137 14 -260 14q-135 0 -272 -14q-6 9 -6.5 36zM82 1067q47 47 131 156q49 65 78 114q11 19 26 19q4 0 6.5 -0.5t5 -3l3.5 -3.5t4.5 -5.5t5.5 -6.5q6 -8 29 -43t45 -61q88 -117 137 -166q0 -15 -5.5 -29.5t-12.5 -17.5q-16 5 -97 60t-121 89 q-40 -34 -117 -87t-100 -62q-7 3 -12.5 17.5t-5.5 29.5z" />
<glyph unicode="&#xef;" horiz-adv-x="628" d="M-8 1165q0 57 41 97.5t98 40.5t97 -40.5t40 -97.5t-40 -99t-97 -42t-98 42t-41 99zM59.5 28q-0.5 27 6.5 38q117 9 127 36q16 41 16 189v229q0 127 -19 164q-10 20 -55.5 30.5t-68.5 10.5q-5 3 -5 32t7 29q104 8 213 40.5t176 66.5q10 -3 22.5 -16.5t12.5 -18.5 q-5 -12 -12.5 -53t-8.5 -62q-2 -43 -2 -125v-327q0 -148 16 -189q11 -28 113 -36q7 -11 6.5 -38t-6.5 -36q-137 14 -260 14q-135 0 -272 -14q-6 9 -6.5 36zM369 1165q0 57 41 97.5t98 40.5t98 -40.5t41 -97.5t-41 -99t-98 -42t-98 42t-41 99z" />
<glyph unicode="&#xf0;" horiz-adv-x="1079" d="M66 436q0 111 39 201.5t101.5 145.5t136.5 84.5t149 29.5q62 0 131 -16q-50 142 -156 256l-197 -133q-51 59 -41 69l177 121q-91 78 -211 131q-7 41 14 57q145 -23 305 -116l219 149q4 -4 6 -8q16 -16 29 -35t8 -24l-188 -129q96 -62 182 -158q209 -230 209 -543 q0 -228 -128 -379t-325 -151q-66 0 -130 16t-124 51t-105.5 86t-73 127t-27.5 168zM342 424q0 -160 60.5 -256t127.5 -96q48 0 82.5 33t53 90t26.5 120t8 136q0 184 -59 299q-44 61 -113 61q-51 0 -88.5 -34t-58 -92t-30 -123t-9.5 -138z" />
<glyph unicode="&#xf1;" horiz-adv-x="1191" d="M52.5 28q-0.5 27 6.5 38q117 9 127 36q17 44 17 189v229q0 127 -19 164q-10 20 -56 30.5t-69 10.5q-5 3 -5 32t7 29q105 8 214.5 40.5t175.5 66.5q9 0 21.5 -13.5t12.5 -21.5q-2 -7 -7 -35.5t-9 -53.5t-4 -26q0 -10 2 -12q4 0 14 10q46 53 130.5 102.5t148.5 49.5 q68 0 115.5 -19.5t78 -55.5t48 -96.5t24 -131t6.5 -170.5v-129q0 -145 17 -189q10 -27 129 -36q7 -11 6.5 -38t-6.5 -36q-136 14 -275 14q-113 0 -250 -14q-6 9 -6.5 36t6.5 38q94 7 105 36q14 37 14 162v27v158q0 280 -133 280q-58 0 -117 -39.5t-59 -71.5v-327 q0 -148 16 -189q11 -28 113 -36q7 -11 6.5 -38t-6.5 -36q-136 14 -260 14q-136 0 -273 -14q-6 9 -6.5 36zM287 1077q0 45 30 103q64 98 150 98q40 0 73 -15.5t74 -45.5q35 -27 76 -46.5t66 -19.5q30 0 55.5 15.5t38 33.5t24 36t15.5 21q16 0 16 -24q0 -43 -33 -107 q-66 -102 -151 -102q-27 0 -55.5 10.5t-45 21t-45.5 31.5q-87 68 -141 68q-30 0 -54.5 -15.5t-36 -34.5t-22 -37t-14.5 -21q-9 0 -14.5 10t-5.5 20z" />
<glyph unicode="&#xf2;" horiz-adv-x="1062" d="M63 434q0 190 136 325.5t331 135.5q206 0 337.5 -126t131.5 -318q0 -125 -60.5 -231.5t-167.5 -170t-236 -63.5q-207 0 -339.5 128.5t-132.5 319.5zM293 1292q0 18 23 38t69 20q51 0 68 -17q34 -39 79.5 -105.5t76 -116t30.5 -54.5q0 -10 -11.5 -23.5t-21.5 -13.5 q-12 0 -88 51t-150.5 118.5t-74.5 102.5zM348 473q0 -69 12.5 -137.5t36.5 -129.5t65 -98.5t93 -37.5q42 0 72.5 21.5t47.5 53.5t26.5 79.5t12.5 88t3 90.5q0 70 -12.5 139.5t-37 131t-66 99.5t-93.5 38q-42 0 -72.5 -22t-47 -54.5t-26 -81t-12 -89t-2.5 -91.5z" />
<glyph unicode="&#xf3;" horiz-adv-x="1062" d="M63 434q0 190 136 325.5t331 135.5q206 0 337.5 -126t131.5 -318q0 -125 -60.5 -231.5t-167.5 -170t-236 -63.5q-207 0 -339.5 128.5t-132.5 319.5zM348 473q0 -69 12.5 -137.5t36.5 -129.5t65 -98.5t93 -37.5q42 0 72.5 21.5t47.5 53.5t26.5 79.5t12.5 88t3 90.5 q0 70 -12.5 139.5t-37 131t-66 99.5t-93.5 38q-42 0 -72.5 -22t-47 -54.5t-26 -81t-12 -89t-2.5 -91.5zM446 1057q0 5 30.5 54.5t76.5 116t80 105.5q17 17 67 17q46 0 69.5 -20t23.5 -38q0 -35 -74.5 -102.5t-150 -118.5t-87.5 -51q-10 0 -22.5 14t-12.5 23z" />
<glyph unicode="&#xf4;" horiz-adv-x="1062" d="M63 434q0 190 136 325.5t331 135.5q206 0 337.5 -126t131.5 -318q0 -125 -60.5 -231.5t-167.5 -170t-236 -63.5q-207 0 -339.5 128.5t-132.5 319.5zM301 1067q47 47 131 156q49 65 78 114q11 19 27 19q4 0 7.5 -1.5t5 -3t5.5 -7t6 -7.5q6 -8 29 -43t45 -61 q88 -117 137 -166q0 -15 -5.5 -29.5t-12.5 -17.5q-16 5 -96.5 60t-120.5 89q-40 -34 -117.5 -87t-100.5 -62q-7 3 -12.5 17.5t-5.5 29.5zM348 473q0 -69 12.5 -137.5t36.5 -129.5t65 -98.5t93 -37.5q42 0 72.5 21.5t47.5 53.5t26.5 79.5t12.5 88t3 90.5q0 70 -12.5 139.5 t-37 131t-66 99.5t-93.5 38q-42 0 -72.5 -22t-47 -54.5t-26 -81t-12 -89t-2.5 -91.5z" />
<glyph unicode="&#xf5;" horiz-adv-x="1062" d="M63 434q0 190 136 325.5t331 135.5q206 0 337.5 -126t131.5 -318q0 -125 -60.5 -231.5t-167.5 -170t-236 -63.5q-207 0 -339.5 128.5t-132.5 319.5zM231 1077q0 43 31 103q64 98 150 98q40 0 73 -15.5t74 -45.5q35 -27 75.5 -46.5t65.5 -19.5q30 0 55.5 15.5t38.5 33.5 t24.5 36t15.5 21q16 0 16 -24q0 -43 -33 -107q-66 -102 -151 -102q-27 0 -55.5 10.5t-45 21t-45.5 31.5q-87 68 -141 68q-30 0 -54.5 -15.5t-36 -34.5t-22 -37t-14.5 -21q-9 0 -15 10.5t-6 19.5zM348 473q0 -69 12.5 -137.5t36.5 -129.5t65 -98.5t93 -37.5q42 0 72.5 21.5 t47.5 53.5t26.5 79.5t12.5 88t3 90.5q0 70 -12.5 139.5t-37 131t-66 99.5t-93.5 38q-42 0 -72.5 -22t-47 -54.5t-26 -81t-12 -89t-2.5 -91.5z" />
<glyph unicode="&#xf6;" horiz-adv-x="1062" d="M63 434q0 190 136 325.5t331 135.5q206 0 337.5 -126t131.5 -318q0 -125 -60.5 -231.5t-167.5 -170t-236 -63.5q-207 0 -339.5 128.5t-132.5 319.5zM195 1165q0 57 41 97.5t98 40.5t97 -40.5t40 -97.5t-40 -99t-97 -42t-98 42t-41 99zM348 473q0 -69 12.5 -137.5 t36.5 -129.5t65 -98.5t93 -37.5q42 0 72.5 21.5t47.5 53.5t26.5 79.5t12.5 88t3 90.5q0 70 -12.5 139.5t-37 131t-66 99.5t-93.5 38q-42 0 -72.5 -22t-47 -54.5t-26 -81t-12 -89t-2.5 -91.5zM571 1165q0 57 41.5 97.5t98.5 40.5t98 -40.5t41 -97.5t-41 -99t-98 -42t-98.5 42 t-41.5 99z" />
<glyph unicode="&#xf7;" horiz-adv-x="1183" d="M115 477q0 56 20 84h922q16 0 16 -26q0 -57 -26 -89h-920q-12 0 -12 31zM467 127q0 51 36 88t87 37t88 -37t37 -88t-37 -87t-88 -36t-87 36t-36 87zM467 864q0 51 36 87t87 36t88 -36t37 -87t-37 -88t-88 -37t-87 37t-36 88z" />
<glyph unicode="&#xf8;" horiz-adv-x="1062" d="M63 434q0 190 136 325.5t331 135.5q95 0 189 -33l26 47q1 0 4 -1t5 -1q2 -1 5 -2q12 -5 18.5 -7.5t16.5 -7.5t14 -9.5t3 -8.5l-25 -43q100 -57 156.5 -156.5t56.5 -221.5q0 -125 -60.5 -231.5t-167.5 -170t-236 -63.5q-109 0 -201 39l-31 -58q-67 25 -63 41l28 49 q-96 61 -150.5 159.5t-54.5 217.5zM348 473q0 -109 31 -217l262 467q-55 88 -133 88q-42 0 -72.5 -22t-47 -54.5t-26 -81t-12 -89t-2.5 -91.5zM416 168q55 -98 139 -98q42 0 72.5 21.5t47.5 53.5t26.5 79.5t12.5 88t3 90.5q0 126 -37 236z" />
<glyph unicode="&#xf9;" horiz-adv-x="1130" d="M18 757q0 29 7 29q105 8 215 40.5t176 66.5q10 -3 21.5 -16.5t11.5 -18.5q-5 -12 -12.5 -53t-8.5 -62q-2 -43 -2 -125v-180q0 -169 34 -247t124 -78q41 0 84 25t43 48v334q0 127 -19 164q-10 20 -56 30.5t-69 10.5q-5 3 -5 32t7 29q104 8 213 40.5t176 66.5 q10 -3 22.5 -16.5t12.5 -18.5q-4 -12 -11 -52.5t-9 -62.5q-2 -43 -2 -125v-403q0 -56 18 -76q16 -18 86 -18h4q6 -6 6 -27t-12 -39q-51 -5 -132 -22.5t-141.5 -32t-70.5 -14.5q-7 0 -12.5 13.5t-5.5 35.5v31q0 14 -6 10q-24 -16 -57 -33t-97 -35t-127 -18q-70 0 -121.5 29 t-80 80.5t-41.5 113t-13 135.5v172q0 129 -18 164q-10 20 -56.5 30.5t-70.5 10.5q-5 3 -5 32zM266 1292q0 18 23 38t69 20q51 0 68 -17q34 -39 79.5 -105.5t76 -116t30.5 -54.5q0 -10 -11 -23.5t-21 -13.5q-12 0 -88 51t-151 118.5t-75 102.5z" />
<glyph unicode="&#xfa;" horiz-adv-x="1130" d="M18 757q0 29 7 29q105 8 215 40.5t176 66.5q10 -3 21.5 -16.5t11.5 -18.5q-5 -12 -12.5 -53t-8.5 -62q-2 -43 -2 -125v-180q0 -169 34 -247t124 -78q41 0 84 25t43 48v334q0 127 -19 164q-10 20 -56 30.5t-69 10.5q-5 3 -5 32t7 29q104 8 213 40.5t176 66.5 q10 -3 22.5 -16.5t12.5 -18.5q-4 -12 -11 -52.5t-9 -62.5q-2 -43 -2 -125v-403q0 -56 18 -76q16 -18 86 -18h4q6 -6 6 -27t-12 -39q-51 -5 -132 -22.5t-141.5 -32t-70.5 -14.5q-7 0 -12.5 13.5t-5.5 35.5v31q0 14 -6 10q-24 -16 -57 -33t-97 -35t-127 -18q-70 0 -121.5 29 t-80 80.5t-41.5 113t-13 135.5v172q0 129 -18 164q-10 20 -56.5 30.5t-70.5 10.5q-5 3 -5 32zM496 1057q0 5 30.5 54.5t76 116t79.5 105.5q17 17 68 17q46 0 69 -20t23 -38q0 -35 -74.5 -102.5t-150 -118.5t-87.5 -51q-10 0 -22 13.5t-12 23.5z" />
<glyph unicode="&#xfb;" horiz-adv-x="1130" d="M18 757q0 29 7 29q105 8 215 40.5t176 66.5q10 -3 21.5 -16.5t11.5 -18.5q-5 -12 -12.5 -53t-8.5 -62q-2 -43 -2 -125v-180q0 -169 34 -247t124 -78q41 0 84 25t43 48v334q0 127 -19 164q-10 20 -56 30.5t-69 10.5q-5 3 -5 32t7 29q104 8 213 40.5t176 66.5 q10 -3 22.5 -16.5t12.5 -18.5q-4 -12 -11 -52.5t-9 -62.5q-2 -43 -2 -125v-403q0 -56 18 -76q16 -18 86 -18h4q6 -6 6 -27t-12 -39q-51 -5 -132 -22.5t-141.5 -32t-70.5 -14.5q-7 0 -12.5 13.5t-5.5 35.5v31q0 14 -6 10q-24 -16 -57 -33t-97 -35t-127 -18q-70 0 -121.5 29 t-80 80.5t-41.5 113t-13 135.5v172q0 129 -18 164q-10 20 -56.5 30.5t-70.5 10.5q-5 3 -5 32zM305 1067q47 47 131 156q49 65 78 114q11 19 27 19q4 0 7.5 -1.5t5 -3t5.5 -7t6 -7.5q6 -8 29 -43t45 -61q88 -117 137 -166q0 -15 -5.5 -29.5t-12.5 -17.5q-16 5 -96.5 60 t-120.5 89q-40 -34 -117 -87t-100 -62q-7 3 -13 17.5t-6 29.5z" />
<glyph unicode="&#xfc;" horiz-adv-x="1130" d="M18 757q0 29 7 29q105 8 215 40.5t176 66.5q10 -3 21.5 -16.5t11.5 -18.5q-5 -12 -12.5 -53t-8.5 -62q-2 -43 -2 -125v-180q0 -169 34 -247t124 -78q41 0 84 25t43 48v334q0 127 -19 164q-10 20 -56 30.5t-69 10.5q-5 3 -5 32t7 29q104 8 213 40.5t176 66.5 q10 -3 22.5 -16.5t12.5 -18.5q-4 -12 -11 -52.5t-9 -62.5q-2 -43 -2 -125v-403q0 -56 18 -76q16 -18 86 -18h4q6 -6 6 -27t-12 -39q-51 -5 -132 -22.5t-141.5 -32t-70.5 -14.5q-7 0 -12.5 13.5t-5.5 35.5v31q0 14 -6 10q-24 -16 -57 -33t-97 -35t-127 -18q-70 0 -121.5 29 t-80 80.5t-41.5 113t-13 135.5v172q0 129 -18 164q-10 20 -56.5 30.5t-70.5 10.5q-5 3 -5 32zM211 1165q0 57 41 97.5t98 40.5t97 -40.5t40 -97.5t-40 -99t-97 -42t-98 42t-41 99zM588 1165q0 57 41 97.5t98 40.5t98 -40.5t41 -97.5t-41 -99t-98 -42t-98 42t-41 99z" />
<glyph unicode="&#xfd;" horiz-adv-x="1067" d="M-7.5 850.5q0.5 26.5 7.5 36.5q128 -15 270 -15q130 0 252 15q8 -7 8 -37t-8 -39q-29 0 -74 -15t-45 -38q0 -18 5 -31l206 -393q92 203 158 350q21 42 21 74q0 17 -19 28.5t-47 16.5t-46 6.5t-30 1.5q-7 7 -7.5 36.5t5.5 39.5q111 -15 211 -15q91 0 207 15 q6 -8 6.5 -36.5t-6.5 -39.5q-20 0 -47.5 -4t-64.5 -20t-50 -42q-205 -433 -330 -696q-11 -24 -32.5 -71t-32.5 -69t-29.5 -56.5t-38 -63.5t-43.5 -59q-132 -166 -254 -166q-60 0 -96.5 32t-36.5 74q0 64 45 94q129 0 200.5 30t129.5 126q13 21 23 39.5t15.5 30t15 34 t16.5 37.5l-332 674q-17 38 -59.5 57t-65.5 19q-8 13 -7.5 39.5zM524 1057q0 5 30.5 54.5t76.5 116t80 105.5q17 17 67 17q46 0 69 -20t23 -38q0 -35 -74 -102.5t-149.5 -118.5t-87.5 -51q-10 0 -22.5 14t-12.5 23z" />
<glyph unicode="&#xfe;" horiz-adv-x="1069" d="M-16.5 -400q-0.5 27 6.5 38q119 9 129 36q16 41 16 189v1253q0 61 -14 96q-7 16 -49.5 25.5t-71.5 9.5q-4 0 -6 15t-0.5 31t6.5 20q62 6 124.5 16t107 20.5t80 20t55 15.5t20.5 6q8 -1 18.5 -14t12.5 -21q-23 -125 -23 -205v-371q3 -9 8 -4q46 50 106.5 85.5t104.5 35.5 q117 0 208.5 -61.5t138.5 -158t47 -208.5q0 -110 -46 -204t-118.5 -154t-158 -93.5t-169.5 -33.5q-24 0 -51 4.5t-44.5 9t-19.5 4.5q-6 0 -6 -33v-106q0 -145 17 -189q10 -27 127 -36q7 -11 6.5 -38t-6.5 -36q-137 14 -275 14t-274 -14q-6 9 -6.5 36zM395 193 q0 -57 39.5 -89t95.5 -32q27 0 58 19t61 56t50 102.5t20 147.5q0 353 -215 353q-34 0 -60.5 -12.5t-37.5 -24.5t-11 -19v-501z" />
<glyph unicode="&#xff;" horiz-adv-x="1067" d="M-7.5 850.5q0.5 26.5 7.5 36.5q128 -15 270 -15q130 0 252 15q8 -7 8 -37t-8 -39q-29 0 -74 -15t-45 -38q0 -18 5 -31l206 -393q92 203 158 350q21 42 21 74q0 17 -19 28.5t-47 16.5t-46 6.5t-30 1.5q-7 7 -7.5 36.5t5.5 39.5q111 -15 211 -15q91 0 207 15 q6 -8 6.5 -36.5t-6.5 -39.5q-20 0 -47.5 -4t-64.5 -20t-50 -42q-205 -433 -330 -696q-11 -24 -32.5 -71t-32.5 -69t-29.5 -56.5t-38 -63.5t-43.5 -59q-132 -166 -254 -166q-60 0 -96.5 32t-36.5 74q0 64 45 94q129 0 200.5 30t129.5 126q13 21 23 39.5t15.5 30t15 34 t16.5 37.5l-332 674q-17 38 -59.5 57t-65.5 19q-8 13 -7.5 39.5zM242 1165q0 57 41 97.5t98 40.5t97 -40.5t40 -97.5t-40 -99t-97 -42t-98 42t-41 99zM618 1165q0 57 41.5 97.5t98.5 40.5t98 -40.5t41 -97.5t-41 -99t-98 -42t-98.5 42t-41.5 99z" />
<glyph unicode="&#x152;" horiz-adv-x="2029" d="M80 655q0 137 56 262t148.5 214t216 141.5t253.5 52.5q114 0 260 -5t174 -5q37 0 170 2.5t286 5.5t193 4q6 -44 16.5 -95t23.5 -111t19 -89q-10 -10 -47 -10q-24 0 -30 16q-38 98 -85.5 149.5t-131.5 51.5h-166q-25 0 -34.5 -0.5t-27.5 -2t-26.5 -6.5t-12.5 -13 q-10 -25 -10 -123v-359q0 -9 26 -14.5t60 -5.5h107q88 0 119.5 25t56.5 114q3 16 24 16q27 0 37 -10v-385q-6 -6 -35 -6q-25 0 -28 14q-27 104 -70 123q-37 15 -152 15q-145 0 -145 -29v-309q0 -117 16 -158q8 -20 48 -30.5t84 -10.5h131q120 0 186 66q56 56 108 190 q3 12 27 12q16 0 37 -4t25 -8q-5 -13 -20.5 -56t-22.5 -63.5t-20 -59t-20.5 -63t-15 -53t-10.5 -49.5q-1 0 -270.5 -1t-431.5 -1h-418q-175 0 -330.5 86t-251.5 239.5t-96 335.5zM383 725q0 -95 14 -185t46 -175.5t79 -149.5t117.5 -102.5t157.5 -38.5q58 0 119 16t88 47 q43 52 43 162v664q0 131 -66 200q-76 80 -274 80q-85 0 -149.5 -46t-101.5 -123t-55 -165t-18 -184z" />
<glyph unicode="&#x153;" horiz-adv-x="1570" d="M63 434q0 190 136 325.5t331 135.5q208 0 342 -131q128 131 287 131q93 0 164.5 -30.5t110 -78t57 -97t18.5 -97.5q0 -33 -15 -58t-38 -26q-194 -17 -479 -25q0 -80 20.5 -142t51 -97t70 -57.5t72.5 -29.5t64 -7q130 0 226 100q10 -3 16 -15t6 -22q0 -28 -6 -37 q-17 -25 -46.5 -54t-75 -62.5t-108.5 -55.5t-130 -22q-177 0 -299 116q-132 -112 -303 -112q-207 0 -339.5 128.5t-132.5 319.5zM348 473q0 -69 12.5 -137.5t36.5 -129.5t65 -98.5t93 -37.5q42 0 72.5 21.5t47.5 53.5t26.5 79.5t12.5 88t3 90.5q0 70 -12.5 139.5t-37 131 t-66 99.5t-93.5 38q-42 0 -72.5 -22t-47 -54.5t-26 -81t-12 -89t-2.5 -91.5zM979 563q13 -1 117.5 5.5t140.5 11.5q25 2 25 32q0 80 -29.5 139.5t-91.5 59.5q-42 0 -75 -28.5t-51 -70.5t-27 -81t-9 -68z" />
<glyph unicode="&#x178;" horiz-adv-x="1247" d="M-0.5 1287q0.5 27 6.5 36q117 -12 287 -12q165 0 282 12q6 -9 6.5 -36t-6.5 -38l-11 -1q-11 0 -15.5 -0.5t-16.5 -2t-19 -3.5t-17.5 -4.5t-17 -6.5t-13 -9t-9.5 -11.5t-3 -14.5t14 -33l240 -440q7 -7 85 131t166 301q11 22 11 47q0 36 -148 47q-7 11 -6.5 38t6.5 36 q141 -12 226 -12q52 0 128.5 5.5t94.5 6.5q6 -9 6.5 -36t-6.5 -38q-1 0 -11 -0.5t-15.5 -1t-17 -2t-19.5 -3t-19.5 -4t-20 -6t-17.5 -8t-16 -11t-12 -13.5q-52 -79 -189.5 -303t-174.5 -301q-10 -23 -10 -39v-266v-27q0 -125 14 -162q10 -27 129 -36q7 -11 6.5 -38t-6.5 -36 q-137 14 -287 14q-144 0 -280 -14q-6 9 -6.5 36t6.5 38q117 9 127 36q16 41 16 189v276q0 17 -12 41q-23 48 -85.5 164.5t-113.5 208.5l-51 92q-11 19 -29.5 53.5t-32.5 57.5q-20 32 -62 47.5t-75 17.5q-7 11 -6.5 38zM307 1595q0 57 39 95.5t96 38.5t96.5 -38.5t39.5 -95.5 t-39.5 -97t-96.5 -40t-96 40t-39 97zM719 1595q0 57 39 95.5t96 38.5t96 -38.5t39 -95.5t-39 -97t-96 -40t-96 40t-39 97z" />
<glyph unicode="&#x2c6;" horiz-adv-x="491" d="M33 1040q47 47 131 156q46 61 78 115q10 18 26 18q3 0 5.5 -0.5t4 -1t4 -3t3 -3.5t4 -5t4.5 -5q6 -8 29.5 -43.5t44.5 -61.5q88 -117 137 -166q0 -15 -6 -29.5t-13 -17.5q-15 5 -96 60.5t-121 89.5q-40 -35 -117.5 -88t-99.5 -62q-7 3 -12.5 17.5t-5.5 29.5z" />
<glyph unicode="&#x2dc;" horiz-adv-x="708" d="M51 1061q0 42 31 102q64 99 149 99q62 0 148 -62q35 -27 75 -46t66 -19q30 0 55.5 15.5t38 33.5t24 36t15.5 21q17 0 17 -24q0 -43 -33 -107q-66 -102 -152 -102q-27 0 -55.5 11t-44 20.5t-45.5 31.5q-87 68 -141 68q-30 0 -54.5 -16t-36 -34.5t-22 -37t-14.5 -21.5 q-9 0 -15 11t-6 20z" />
<glyph unicode="&#x2000;" horiz-adv-x="870" />
<glyph unicode="&#x2001;" horiz-adv-x="1741" />
<glyph unicode="&#x2002;" horiz-adv-x="870" />
<glyph unicode="&#x2003;" horiz-adv-x="1741" />
<glyph unicode="&#x2004;" horiz-adv-x="580" />
<glyph unicode="&#x2005;" horiz-adv-x="435" />
<glyph unicode="&#x2006;" horiz-adv-x="290" />
<glyph unicode="&#x2007;" horiz-adv-x="290" />
<glyph unicode="&#x2008;" horiz-adv-x="217" />
<glyph unicode="&#x2009;" horiz-adv-x="348" />
<glyph unicode="&#x200a;" horiz-adv-x="96" />
<glyph unicode="&#x2010;" horiz-adv-x="749" d="M113 420q0 53 28 115q418 20 484 22q5 0 7.5 -0.5t4.5 -4t2 -11.5q0 -53 -31 -121q-93 -6 -481 -23q-14 0 -14 23z" />
<glyph unicode="&#x2011;" horiz-adv-x="749" d="M113 420q0 53 28 115q418 20 484 22q5 0 7.5 -0.5t4.5 -4t2 -11.5q0 -53 -31 -121q-93 -6 -481 -23q-14 0 -14 23z" />
<glyph unicode="&#x2012;" horiz-adv-x="749" d="M113 420q0 53 28 115q418 20 484 22q5 0 7.5 -0.5t4.5 -4t2 -11.5q0 -53 -31 -121q-93 -6 -481 -23q-14 0 -14 23z" />
<glyph unicode="&#x2013;" horiz-adv-x="1118" d="M117 406q0 6 1 23t3.5 43.5t8 45.5t13.5 19h850q13 0 13 -19q0 -41 -19 -117q-2 -5 -5 -8.5t-5 -4.5l-2 -1h-848q-10 -1 -10 19z" />
<glyph unicode="&#x2014;" horiz-adv-x="1886" d="M117 406q0 6 1 23t3.5 43.5t8 45.5t13.5 19h1620q13 0 13 -19q0 -41 -19 -117q-2 -5 -5 -8.5t-5 -4.5l-2 -1h-1618q-10 -1 -10 19z" />
<glyph unicode="&#x2018;" horiz-adv-x="419" d="M90 1096q0 63 25 123.5t61 102t75 73.5t67 47.5t36 15.5q15 0 30 -11.5t22 -31.5q-146 -87 -146 -176q0 -74 49 -131q5 -6 18.5 -21.5t18 -21.5t9.5 -18.5t5 -24.5q0 -44 -44.5 -82.5t-100.5 -38.5q-14 0 -43 9t-45 20q-37 53 -37 166z" />
<glyph unicode="&#x2019;" horiz-adv-x="419" d="M63 944q146 87 146 176q0 74 -49 131q-5 6 -18.5 21.5t-18 21.5t-9.5 18.5t-5 24.5q0 44 44.5 82.5t100.5 38.5q14 0 43 -8.5t45 -19.5q37 -53 37 -166q0 -63 -25 -123.5t-61 -102t-75 -74t-67 -48t-36 -15.5q-15 0 -30 11.5t-22 31.5z" />
<glyph unicode="&#x201a;" horiz-adv-x="419" d="M33 -217q145 86 145 176q0 74 -49 131q-5 6 -18.5 21.5t-18 21.5t-9.5 18.5t-5 24.5q0 44 44.5 82.5t100.5 38.5q14 0 43 -9t45 -20q37 -53 37 -166q0 -63 -25 -123.5t-61 -102t-75 -73.5t-67 -47.5t-36 -15.5q-35 0 -51 43z" />
<glyph unicode="&#x201c;" horiz-adv-x="765" d="M90 1096q0 63 25 123.5t61 102t75 73.5t67 47.5t36 15.5q15 0 30 -11.5t22 -31.5q-146 -87 -146 -176q0 -74 49 -131q5 -6 18.5 -21.5t18 -21.5t9.5 -18.5t5 -24.5q0 -44 -44.5 -82.5t-100.5 -38.5q-14 0 -43 9t-45 20q-37 53 -37 166zM436 1096q0 63 25 123.5t61 102 t75 73.5t67 47.5t36 15.5q15 0 30 -11.5t22 -31.5q-146 -87 -146 -176q0 -74 49 -131q6 -7 19 -21.5t18 -21.5t10 -19t5 -24q0 -44 -45 -82.5t-101 -38.5q-14 0 -43 9t-45 20q-37 53 -37 166z" />
<glyph unicode="&#x201d;" horiz-adv-x="765" d="M63 944q146 87 146 176q0 74 -49 131q-5 6 -18.5 21.5t-18 21.5t-9.5 18.5t-5 24.5q0 44 44.5 82.5t100.5 38.5q14 0 43 -8.5t45 -19.5q37 -53 37 -166q0 -63 -25 -123.5t-61 -102t-75 -74t-67 -48t-36 -15.5q-15 0 -30 11.5t-22 31.5zM410 944q145 86 145 176 q0 74 -49 131q-5 6 -18.5 21.5t-18 21.5t-9.5 18.5t-5 24.5q0 44 44.5 82.5t100.5 38.5q14 0 43 -8.5t45 -19.5q37 -53 37 -166q0 -63 -25 -123.5t-61 -102t-75 -74t-67 -48t-36 -15.5q-35 0 -51 43z" />
<glyph unicode="&#x201e;" horiz-adv-x="765" d="M33 -217q145 86 145 176q0 74 -49 131q-5 6 -18.5 21.5t-18 21.5t-9.5 18.5t-5 24.5q0 44 44.5 82.5t100.5 38.5q14 0 43 -9t45 -20q37 -53 37 -166q0 -63 -25 -123.5t-61 -102t-75 -73.5t-67 -47.5t-36 -15.5q-35 0 -51 43zM379 -217q145 86 145 176q0 74 -49 131 q-5 6 -18.5 21.5t-18 21.5t-9.5 18.5t-5 24.5q0 44 44.5 82.5t100.5 38.5q14 0 43 -9t45 -20q37 -53 37 -166q0 -63 -25 -123.5t-61 -102t-75 -73.5t-67 -47.5t-36 -15.5q-35 0 -51 43z" />
<glyph unicode="&#x2022;" horiz-adv-x="841" d="M141 526q0 116 83 199.5t198 83.5t196.5 -83.5t81.5 -199.5t-81.5 -198t-196.5 -82q-116 0 -198.5 82.5t-82.5 197.5z" />
<glyph unicode="&#x2026;" horiz-adv-x="1579" d="M84 131q0 60 44 104t105 44q62 0 107 -45.5t45 -106.5q0 -60 -44 -105t-105 -45q-63 0 -107.5 45t-44.5 109zM639 131q0 60 45 104t107 44t105.5 -45.5t43.5 -106.5t-43 -105.5t-104 -44.5q-63 0 -108.5 45t-45.5 109zM1196 131q0 60 44.5 104t105.5 44q62 0 105.5 -45.5 t43.5 -106.5t-43 -105.5t-104 -44.5q-63 0 -107.5 45t-44.5 109z" />
<glyph unicode="&#x202f;" horiz-adv-x="348" />
<glyph unicode="&#x2039;" horiz-adv-x="628" d="M51 496q0 15 15 30q54 32 105 66.5t91 64.5t75.5 58.5t61.5 51.5t44 39.5t29.5 27.5t12.5 12q12 -2 31.5 -13t24.5 -24q-5 -8 -55 -68.5t-115.5 -136.5t-98.5 -108q33 -32 98.5 -108t115.5 -136t55 -68q-5 -13 -24.5 -25t-31.5 -14q-1 1 -12.5 12t-29.5 28t-44 40 t-61.5 51.5t-75.5 58.5t-91.5 65t-104.5 67q-15 15 -15 29z" />
<glyph unicode="&#x203a;" horiz-adv-x="628" d="M90 184q5 8 54.5 68t115 136t98.5 108q-33 32 -98.5 108t-115 136.5t-54.5 68.5q5 13 23 24t30 13q1 -1 12.5 -12t30 -27.5t44.5 -39.5t61.5 -51.5t75.5 -58.5t91 -64.5t105 -66.5q15 -15 15 -30q0 -14 -15 -29q-53 -32 -104.5 -67t-91.5 -65t-75.5 -58.5t-61.5 -51.5 t-44.5 -40t-30 -28t-12.5 -12q-11 2 -29.5 14t-23.5 25z" />
<glyph unicode="&#x205f;" horiz-adv-x="435" />
<glyph unicode="&#x20ac;" horiz-adv-x="1431" d="M80 504q-9 9 9.5 46.5t31.5 37.5h37v33q0 55 8 96h-86q-9 9 9.5 46.5t31.5 37.5h63q61 210 241 346.5t409 136.5q238 0 411 -37q1 -3 33.5 -139.5t32.5 -151.5q0 -9 -16.5 -18.5t-34.5 -9.5q-19 0 -27 8q-7 28 -20 57t-42.5 68.5t-69 69t-105 50.5t-144.5 21 q-167 0 -264.5 -112t-122.5 -289h401q14 -12 10.5 -30t-13.5 -33.5t-17 -20.5h-389v-39q0 -28 4 -90h405q14 -12 10.5 -30t-13.5 -33.5t-17 -20.5h-373q17 -90 50.5 -166.5t84 -137.5t123.5 -95.5t160 -34.5q149 0 244 84q37 33 70.5 90.5t48 94t18.5 52.5q46 0 69 -20 q0 -29 -30.5 -158t-50.5 -137q-9 -3 -26 -9q-78 -27 -122.5 -40.5t-123 -27t-157.5 -13.5q-161 0 -303 67.5t-236 186t-122 264.5h-90z" />
<glyph unicode="&#x25fc;" horiz-adv-x="890" d="M0 0v891h891v-891h-891z" />
<glyph unicode="&#xfb01;" horiz-adv-x="1255" d="M45 758q22 32 66 67q68 0 88 6q1 142 36.5 252t98.5 178.5t146 103t182 34.5q67 0 131.5 -12.5t123.5 -37.5t97.5 -69.5t44.5 -103.5q5 -53 -24.5 -96t-80.5 -42q-21 1 -38.5 6t-30 11t-24 18t-18 20t-14 24t-10 22t-8 22.5t-6.5 18.5q-23 64 -56.5 91t-115.5 27 q-48 0 -86.5 -54t-59 -131t-29.5 -154.5t-5 -133.5h233q117 0 224 19t165 49q10 -3 22.5 -16.5t12.5 -18.5q-4 -12 -11 -52.5t-9 -62.5q-3 -64 -3 -125v-327q0 -145 17 -189q10 -28 115 -36q7 -11 6.5 -38t-6.5 -36q-137 14 -261 14q-138 0 -274 -14q-6 9 -6.5 36t6.5 38 q117 9 127 36q16 41 16 189v229q0 133 -16 164q-25 47 -160 47h-192v-440v-27q0 -125 14 -162q10 -27 129 -36q7 -11 6.5 -38t-6.5 -36q-136 14 -274 14t-275 -14q-6 9 -6.5 36t6.5 38q119 9 129 36q17 44 17 189v440h-144q-10 4 -10 27z" />
<glyph unicode="&#xfb02;" horiz-adv-x="1261" d="M45 788q23 34 66 68h88v31q0 205 116.5 347.5t284.5 147.5q57 2 123 -28q66 -26 102 -29q52 1 96.5 8t72 16.5t46.5 19t28 15.5l9 7q8 -1 18.5 -14t12.5 -21q-23 -125 -23 -205q-3 -59 -7 -155.5t-5 -326.5t12 -378q0 -145 17 -189q10 -27 129 -36q7 -11 6.5 -38 t-6.5 -36q-137 14 -275 14t-274 -14q-6 9 -6.5 36t6.5 38q119 9 129 36q14 37 14 162v27v606v12q0 182 -22 242q-24 65 -75 99.5t-112 29.5q-77 -6 -109 -54.5t-46 -142.5q-12 -83 -8 -227h233q12 0 12 -27q0 -13 -15.5 -34.5t-31.5 -32.5h-192v-471v-27q0 -125 14 -162 q10 -27 129 -36q7 -11 6.5 -38t-6.5 -36q-136 14 -274 14t-275 -14q-6 9 -6.5 36t6.5 38q119 9 129 36q17 44 17 189v471h-144q-10 4 -10 26z" />
<glyph unicode="&#xfb03;" horiz-adv-x="1886" d="M45 762q22 32 66 67h88q1 112 27.5 201t67.5 143.5t96 92t106.5 53t105.5 18.5q110 6 201.5 -21.5t132.5 -90.5q123 174 358 174q67 0 131.5 -12.5t123 -37.5t97 -69.5t44.5 -103.5q5 -53 -24.5 -96t-80.5 -42q-21 1 -38.5 6t-30 11t-24 18t-18 20t-14 24t-10 22t-8 22.5 t-6.5 18.5q-23 64 -56.5 91t-115.5 27q-48 0 -87 -54t-59 -131t-29.5 -155t-5.5 -133h236q117 0 224 19t165 49q10 -3 22.5 -16.5t12.5 -18.5q-5 -12 -12.5 -53t-8.5 -62q-2 -43 -2 -125v-327q0 -145 17 -189q11 -28 112 -36q7 -11 6.5 -38t-6.5 -36q-137 14 -260 14 q-135 0 -272 -14q-6 9 -6.5 36t6.5 38q117 9 127 36q16 41 16 189v229q0 129 -18 164q-25 47 -158 47h-194v-440q0 -148 16 -189q10 -27 129 -36q7 -11 6.5 -38t-6.5 -36q-137 14 -274 14q-139 0 -275 -14q-6 9 -6.5 36t6.5 38q117 9 127 36q16 41 16 189q0 264 -2 444h-368 v-444v-27q0 -125 14 -162q10 -27 129 -36q7 -11 6.5 -38t-6.5 -36q-136 14 -274 14t-275 -14q-6 9 -6.5 36t6.5 38q119 9 129 36q17 44 17 189v444h-144q-10 4 -10 27zM453 829h374q0 106 27 209q-25 1 -49 26.5t-48 65.5t-32 50q-62 72 -133 57q-50 -13 -84.5 -86.5 t-47 -160.5t-7.5 -161z" />
<glyph unicode="&#xfb04;" horiz-adv-x="1890" d="M45 788q23 34 66 68h88q1 112 28 198t67 137t96.5 84t106.5 46t105 16q112 6 203 -21t131 -91q54 72 130.5 113t164.5 44q57 2 123 -28q66 -26 102 -29q52 1 96.5 8t72 16.5t46.5 19t28 15.5l9 7q8 -1 18.5 -14t12.5 -21q-23 -125 -23 -205q-3 -59 -7 -155.5t-5 -326.5 t12 -378q0 -145 17 -189q10 -27 127 -36q7 -11 6.5 -38t-6.5 -36q-136 14 -275 14q-135 0 -272 -14q-6 9 -6.5 36t6.5 38q117 9 127 36q16 41 16 189v606q0 189 -24 254t-75 99.5t-112 29.5q-77 -6 -109 -54.5t-46 -142.5q-13 -89 -9 -227h236q10 0 10 -27q0 -13 -15 -34.5 t-30 -32.5h-195v-471q0 -145 17 -189q10 -27 129 -36q7 -11 6.5 -38t-6.5 -36q-137 14 -275 14t-274 -14q-6 9 -6.5 36t6.5 38q117 9 127 36q16 41 16 189v471h-368v-471v-27q0 -125 14 -162q10 -27 129 -36q7 -11 6.5 -38t-6.5 -36q-136 14 -274 14t-275 -14q-6 9 -6.5 36 t6.5 38q119 9 129 36q17 44 17 189v471h-144q-10 4 -10 26zM453 856h374v31q0 69 21 151q-24 4 -47 30t-45 63.5t-31 48.5q-62 72 -133 57q-73 -19 -110.5 -140.5t-28.5 -240.5z" />
</font>
</defs>
</svg>
