<?xml version="1.0" standalone="no"?>
<!DOCTYPE svg PUBLIC "-//W3C//DTD SVG 1.1//EN" "http://www.w3.org/Graphics/SVG/1.1/DTD/svg11.dtd" >
<svg xmlns="http://www.w3.org/2000/svg" xmlns:xlink="http://www.w3.org/1999/xlink" version="1.1">
<metadata></metadata>
<defs>
<font id="aref_ruqaaregular" horiz-adv-x="0" >
<font-face units-per-em="2048" ascent="1638" descent="-410" />
<missing-glyph horiz-adv-x="300" />
<glyph unicode=" "  horiz-adv-x="300" />
<glyph unicode="&#x09;" horiz-adv-x="300" />
<glyph unicode="&#xa0;" horiz-adv-x="300" />
<glyph unicode="!" horiz-adv-x="520" d="M101 174l182 188q6 7 13 7q6 0 12 -6l149 -144q7 -7 7 -13t-6 -12l-182 -188q-7 -6 -13 -6t-12 5l-149 144q-7 7 -7 13t6 12zM417 951q3 -39 3 -76q0 -105 -21 -187q-29 -112 -73 -201q-12 -24 -24 -50t-31 -41q-6 -5 -10 -5q-5 0 -5 7q-2 12 -2 15q20 121 20 234 q0 142 -32 269q-59 227 -144 394q-7 13 -27 46q-18 29 -18 42v3q27 72 60 143t64 145q78 -165 150.5 -334.5t89.5 -403.5z" />
<glyph unicode="&#x22;" horiz-adv-x="681" d="M199 885l-41 311q-4 37 -7.5 75t-3.5 75q0 33 15.5 55t54.5 22q23 0 45.5 -9t22.5 -32v-106l-43 -391h-43zM446 885l-45 395q-2 23 -6 51.5t-4 36.5q0 29 26.5 39t53.5 10q16 0 37.5 -9t21.5 -30v-49t-2 -47l-39 -397h-43z" />
<glyph unicode="#" horiz-adv-x="1464" d="M12 510l17 20h364l121 428h-348l-12 21l-9 43l17 20h375l110 400l23 6l45 -4l14 -21l-106 -381h424l110 400l23 6l45 -4l14 -21l-106 -381h305l12 -67l-25 -17h-315l-119 -428h324l12 -67l-24 -17h-336l-121 -434l-68 6l-8 29l111 399h-424l-121 -434l-68 6l-8 29 l111 399h-338l-13 21zM481 530h422l121 428h-424z" />
<glyph unicode="$" horiz-adv-x="974" d="M549 -203l-82 -16v233q-47 -8 -94 -8q-100 0 -190.5 46t-131.5 153l113 129l33 -2q31 -100 93 -168t165 -68h12v563q-162 72 -244 154t-82 219q0 104 44 180t119 121t163 60v225l82 16v-233h6q72 0 133.5 -13.5t114.5 -52.5t96 -121l-123 -108l-26 6q-23 88 -70 146.5 t-131 68.5v-514q20 -10 45 -20q154 -68 232.5 -151t78.5 -200q0 -98 -49 -179t-131 -139t-176 -89v-238zM297 1100q0 -80 49 -139.5t121 -104.5v469q-76 -18 -123 -80.5t-47 -144.5zM733 381q0 70 -55 133.5t-129 103.5v-505q80 29 132 100.5t52 167.5z" />
<glyph unicode="%" horiz-adv-x="1693" d="M467 1628q78 -20 147.5 -69.5t113.5 -118t44 -146.5q0 -70 -32.5 -138.5t-87 -125.5t-122 -92t-137.5 -35q-90 0 -150.5 45t-90 116t-29.5 142q0 94 50 173t129 142.5t165 106.5zM1481 1569l2 -27l-1272 -1544l-57 37l2 28l1261 1528h23zM365 1522q-70 -39 -95.5 -106.5 t-25.5 -137.5q0 -63 27.5 -129t79.5 -109t128 -43q74 0 112 36t51 88.5t13 103.5q0 74 -36.5 139.5t-101 108.5t-152.5 49zM1278 700q78 -20 147.5 -69t113.5 -118t44 -146q0 -70 -32.5 -138.5t-87 -126t-122 -92.5t-137.5 -35q-90 0 -150.5 45.5t-90 116t-29.5 142.5 q0 94 50 172.5t129 142t165 106.5zM1176 594q-70 -39 -95.5 -106.5t-25.5 -137.5q0 -63 27.5 -128.5t79.5 -108.5t128 -43q74 0 112 35.5t51 88t13 103.5q0 74 -36.5 139.5t-101 108.5t-152.5 49z" />
<glyph unicode="&#x26;" horiz-adv-x="1511" d="M668 729l4 88q86 -4 196.5 -5t212.5 -1h116t118 2t86 4l-6 -98q-63 10 -144.5 12t-156.5 2q8 -33 13 -64.5t5 -64.5q0 -102 -44 -194.5t-107 -173.5l6 -7q41 -43 97 -81.5t118 -38.5q74 0 120 42t74.5 106.5t42.5 129.5l43 -10q-12 -68 -36.5 -138.5t-64.5 -130 t-99.5 -95.5t-143.5 -36q-76 0 -144.5 35t-121.5 86l-10 8q-61 -49 -142.5 -85.5t-171.5 -36.5q-92 0 -184 23.5t-158 88.5q-59 59 -93 139t-34 164q0 94 34 161t105.5 125t184.5 128q-25 59 -39 123.5t-14 128.5q0 94 40 177t114.5 135.5t179.5 52.5q51 0 99 -24t78.5 -66 t30.5 -99q0 -68 -22.5 -124t-73.5 -103q-31 -29 -83 -64t-99 -62.5t-66 -35.5q145 -322 402 -584q41 59 59.5 131t18.5 146q0 47 -20.5 88t-53.5 74q-25 25 -57.5 28.5t-67.5 3.5t-70.5 -3t-70.5 -7zM512 891q86 53 132 96t63.5 91t17.5 114q0 37 -20.5 75t-52 64.5 t-64.5 26.5q-61 0 -89 -34t-36 -83t-8 -96q0 -66 15 -129.5t42 -124.5zM811 139q-123 137 -230.5 300t-179.5 331q-104 -70 -143 -148.5t-39 -175.5q0 -94 43 -182t120 -144.5t177 -56.5q158 0 252 76z" />
<glyph unicode="'" horiz-adv-x="430" d="M193 893l-37 395q-2 18 -3 36.5t-1 39.5q0 29 22.5 44t50.5 15q33 0 47.5 -19.5t14.5 -47.5q0 -16 -2 -39t-6 -43l-54 -381h-32z" />
<glyph unicode="(" horiz-adv-x="526" d="M504 -334v-49q-80 6 -140.5 51t-101.5 112.5t-67.5 145.5t-38.5 152q-20 123 -28.5 247t-8.5 248q0 119 9 238t32 233q20 98 60 200t108.5 175.5t175.5 91.5v-55q-78 -20 -129 -88t-82 -166t-45.5 -211.5t-18.5 -225.5t-4 -204q0 -104 4 -220t18.5 -229.5t44.5 -209 t81 -158t131 -78.5z" />
<glyph unicode=")" horiz-adv-x="530" d="M23 1452v55q104 -20 173.5 -92t112.5 -175t65.5 -222t30 -239t7.5 -222q0 -104 -6.5 -226t-26 -243t-61.5 -223.5t-113.5 -170t-181.5 -81.5v49q72 18 127 63.5t86 137.5q55 164 62 346t7 356q0 121 -8 242t-31 240q-14 78 -39.5 159.5t-72.5 149t-131 96.5z" />
<glyph unicode="*" horiz-adv-x="616" d="M358 918h-82q10 59 13.5 110t5.5 117q-41 -33 -81 -69t-77 -79l-43 72q53 27 96 54.5t82 54.5q-45 33 -87 58.5t-87 47.5l56 57q35 -33 67.5 -62.5t71.5 -57.5q0 49 -2 97t-15 99h82q-10 -51 -14 -97t-8 -97q78 61 139 127l51 -64q-49 -23 -93 -49.5t-87 -56.5 q47 -35 92 -65t88 -50l-53 -59q-55 61 -137 124q2 -53 6 -105t16 -107z" />
<glyph unicode="+" horiz-adv-x="1529" d="M803 565h641l-10 -82h-631v-620l-82 -15v635h-635l14 82h621v623l82 12v-635z" />
<glyph unicode="," horiz-adv-x="477" d="M158 -430l-39 29q53 72 94 143.5t41 132.5q0 23 -6 46.5t-21 39.5l-143 170q-14 18 -14 53q0 41 41 70t79 29q41 0 74 -42t56.5 -100.5t37 -114t13.5 -81.5q0 -76 -52 -162t-161 -213z" />
<glyph unicode="-" horiz-adv-x="722" d="M596 483h-483l14 82h481z" />
<glyph unicode="." horiz-adv-x="557" d="M141 106q0 57 40 97.5t98 40.5q57 0 97 -40t40 -98q0 -57 -40 -97t-97 -40t-97.5 40t-40.5 97z" />
<glyph unicode="/" horiz-adv-x="798" d="M823 1464l11 -22l-797 -1835l-66 16l-6 29l791 1818l22 5z" />
<glyph unicode="0" horiz-adv-x="1024" d="M594 1442q125 -78 200.5 -193.5t111.5 -249t36 -270.5q0 -123 -28.5 -255t-89 -245.5t-160 -185.5t-240.5 -72q-88 0 -150.5 44t-102.5 117t-62.5 159t-30.5 173t-8 157q0 184 67.5 360t198.5 307q51 51 120.5 89t137.5 65zM479 1311q-90 -55 -150.5 -145.5t-91 -196 t-30.5 -209.5q0 -88 9 -178t34 -174q20 -70 58 -139.5t90.5 -116t117.5 -46.5q94 0 152.5 46.5t90.5 119t44 155.5t12 157q0 139 -36 269t-103 251q-6 12 -36 55t-72 88.5t-89 63.5z" />
<glyph unicode="1" horiz-adv-x="1024" d="M631 1458l12 -24q-8 -137 -11 -274.5t-3 -274.5v-226t1 -240t2 -216.5t3 -157.5l-172 -55l-25 10q8 213 12.5 428t4.5 430q0 115 2 204t-16.5 140t-82.5 51h-170v56z" />
<glyph unicode="2" horiz-adv-x="1024" d="M967 164l-47 -160h-895v33q88 90 173 181t167 185q80 94 152.5 194.5t119.5 211.5t47 231q0 53 -21.5 117t-71.5 109t-138 45q-84 0 -153 -41t-128 -90l-41 39q84 92 193.5 161.5t238.5 69.5q90 0 160 -42t109.5 -113.5t39.5 -161.5q0 -82 -28.5 -157t-69.5 -147 q-90 -164 -217 -319.5t-256 -306.5q-4 -4 -4 -8q0 -8 9 -11.5t18 -3.5h632z" />
<glyph unicode="3" horiz-adv-x="1024" d="M494 782v-16q195 -16 307 -94t112 -232q0 -104 -46 -191t-123.5 -150.5t-174 -98.5t-198.5 -35q-88 0 -169 30t-151 83l-14 22l86 148h20q47 -78 116 -139.5t163 -61.5q92 0 159.5 47t103.5 123t36 164q0 66 -27.5 126t-72.5 107q-39 43 -101.5 62.5t-132.5 25t-131 5.5 l2 53q186 43 288.5 126t102.5 220q0 96 -65.5 149.5t-157.5 53.5q-59 0 -126 -36t-124 -73l-29 45q53 45 115 89t127.5 74t128.5 30q125 0 212 -71t87 -204q0 -98 -44 -175t-116.5 -128t-162.5 -78z" />
<glyph unicode="4" horiz-adv-x="1024" d="M739 1442l15 -12q0 -16 -1 -86t-1 -173.5v-222.5v-235.5v-212.5l14 -19h192l11 -14l-33 -76h-168l-16 -16v-121t2 -120t4 -77l-164 -67l-10 12q6 37 8 99.5t2 135v136.5l-14 18h-582v90l586 889zM594 498v700q0 16 -10 16q-6 0 -11 -4q-51 -59 -98 -127.5t-92 -138.5 q-29 -45 -71 -113.5t-83 -139t-69.5 -125t-28.5 -70.5l10 -15h441z" />
<glyph unicode="5" horiz-adv-x="1024" d="M256 1217v-386q63 31 132 53.5t138 22.5q121 0 208 -50t135.5 -139t48.5 -204q0 -156 -77 -277.5t-202 -190.5t-274 -69q-96 0 -185.5 39t-152.5 115l-2 25l90 114h22q23 -49 55.5 -99t78.5 -84t110 -34q115 0 190.5 57.5t112.5 149.5t37 197q0 84 -27.5 164.5t-89 134 t-168.5 53.5q-68 0 -129 -30.5t-110 -78.5l-27 23v670l14 14h686l-55 -160q-88 -2 -194.5 -4t-198.5 -4t-141 -2q-25 0 -25 -20z" />
<glyph unicode="6" horiz-adv-x="1024" d="M965 1409l-41 -111l-19 -8q-55 23 -119 23q-94 0 -175 -37t-144 -96q-121 -113 -161 -259.5t-42 -293.5l15 -2q82 66 177 106.5t201 40.5q94 0 163 -49t107 -126t38 -165q0 -90 -40 -172t-108.5 -146.5t-155 -102.5t-178.5 -38q-109 0 -183.5 47.5t-120.5 123 t-66.5 165.5t-20.5 178q0 193 68.5 374t206.5 319q63 68 141 125t166 93t178 36q23 0 56.5 -7.5t56.5 -17.5zM270 543q0 -70 11.5 -152t41 -156.5t82 -121.5t134.5 -47q131 0 197.5 85t66.5 201q0 76 -36 142.5t-98.5 107.5t-144.5 41q-41 0 -92 -16.5t-95 -38.5t-67 -45z " />
<glyph unicode="7" horiz-adv-x="1024" d="M1012 1380l-316 -516q-119 -197 -214 -405.5t-144 -433.5l-172 -41l-12 16q18 63 57 147t87 176.5t98 181.5t91 159l21 36q22 37 58 98.5t79 135.5t87 147.5t83 135.5l-12 24h-688l-15 19l43 161q14 -4 70.5 -7t130.5 -5t140.5 -3t101.5 -1h426v-25z" />
<glyph unicode="8" horiz-adv-x="1024" d="M639 788q109 -74 176.5 -130t98 -114.5t30.5 -140.5q0 -98 -42 -177t-113.5 -134t-159.5 -83.5t-180 -28.5q-74 0 -151 19t-130 73q-49 49 -67.5 114.5t-18.5 135.5q0 96 37 160.5t109.5 119.5t183.5 119v22q-55 39 -108.5 91.5t-87.5 116t-34 134.5q0 100 50.5 168 t128 114t159.5 79h19q158 0 255 -78t97 -205q0 -74 -37 -140.5t-95.5 -119.5t-119.5 -92v-23zM571 844q66 45 107 115.5t41 152.5q0 51 -30 106.5t-87 93.5t-145 38q-70 -45 -93.5 -92.5t-23.5 -106.5t35 -115.5t88 -104.5t108 -87zM487 684q-106 -55 -170.5 -129 t-64.5 -193q0 -72 28.5 -140t85 -112t136.5 -44q127 0 195.5 78.5t68.5 199.5q0 78 -35 134.5t-97.5 104.5t-146.5 101z" />
<glyph unicode="9" horiz-adv-x="1024" d="M438 23l-174 -41l-20 16q31 72 96.5 164t134.5 180l27 37q28 37 68 93t80 114.5t65 101.5l-10 12q-76 -39 -152 -63.5t-156 -24.5q-70 0 -143.5 44t-122.5 121t-49 175q0 80 17.5 148.5t62.5 124.5q31 37 92 77.5t130 76.5t120 59q223 0 332.5 -96.5t109.5 -260.5 q0 -86 -34.5 -178t-88 -181t-106.5 -169q-55 -80 -114.5 -171t-105 -182t-59.5 -177zM719 786q39 39 51 93.5t12 107.5q0 86 -36.5 162t-111.5 123t-185 47q-57 0 -99.5 -44t-64 -105.5t-21.5 -114.5q0 -78 31 -156t90 -128t145 -50q51 0 101.5 14t87.5 51z" />
<glyph unicode=":" horiz-adv-x="376" d="M72 815q0 47 34.5 82t83.5 35q47 0 81 -35t34 -82t-33.5 -82t-81.5 -35q-49 0 -83.5 35t-34.5 82zM72 92q0 47 34.5 82t83.5 35q47 0 81 -35t34 -82t-33.5 -82t-81.5 -35q-49 0 -83.5 35t-34.5 82z" />
<glyph unicode=";" horiz-adv-x="395" d="M59 819q0 47 35 82t84 35q47 0 81 -35t34 -82t-34 -82t-81 -35q-49 0 -84 35t-35 82zM143 -389l-30 27q37 49 66.5 112.5t29.5 118.5q0 23 -8 41t-19 37l-69 104q-8 12 -13.5 25.5t-5.5 27.5q0 18 3 39t16 33l4 4q29 23 65 23q27 0 52.5 -26.5t47 -67.5t34 -82t12.5 -72 q0 -61 -29 -121.5t-72 -116t-84 -106.5z" />
<glyph unicode="&#x3c;" horiz-adv-x="1454" d="M1356 1034l-4 -18l-1069 -494v-24l1063 -494l10 -20l-23 -47l-20 -11l-1229 574v24l1231 563l22 -6z" />
<glyph unicode="=" horiz-adv-x="1685" d="M1513 674h-1355l14 82h1354zM1513 270h-1355l14 82h1354z" />
<glyph unicode="&#x3e;" horiz-adv-x="1456" d="M102 1012l-4 20l21 49l20 6l1233 -563v-24l-1229 -574l-20 11l-17 49l9 18l1061 498v18z" />
<glyph unicode="?" horiz-adv-x="722" d="M332 432l-94 -65q-35 23 -60.5 61.5t-25.5 83.5q0 31 16 59.5t37 53.5q49 63 106.5 116.5t109.5 106.5t85 117.5t33 150.5q0 55 -29 110.5t-75 91.5t-97 36q-59 0 -112.5 -39t-53.5 -109q0 -37 18.5 -69.5t47.5 -55.5l-138 -82q-27 25 -42 64t-15 78q0 63 36 114.5t92 88 t121.5 56t127.5 19.5q117 0 190.5 -71.5t73.5 -190.5q0 -51 -17.5 -94t-43.5 -88q-37 -61 -94.5 -115.5t-115 -104.5t-97.5 -98.5t-40 -95.5q0 -66 56 -106v-23zM168 94q0 47 34 82t81 35q49 0 83.5 -35t34.5 -82t-34.5 -82t-83.5 -35q-47 0 -81 35t-34 82z" />
<glyph unicode="@" horiz-adv-x="1490" d="M967 760l86 45l8 -8q-6 -80 -7 -160t-1 -160q0 -41 1 -84t1 -84q0 -27 9 -60.5t50 -33.5q66 0 104.5 50t57 120t22.5 125q10 137 -41 245.5t-145 181.5t-215 101.5t-250 3.5q-82 -14 -156.5 -52t-140.5 -91q-70 -84 -106.5 -192.5t-37.5 -223t34.5 -222t111.5 -187.5 q66 -59 153 -99.5t189 -48.5l29 -30l-88 -86q-106 8 -197.5 53t-162 112.5t-115.5 145.5q-57 100 -72.5 212.5t8 222.5t80.5 204q53 88 135 171t183.5 144.5t212.5 81.5q135 27 265 -8t234.5 -118t161.5 -202.5t47 -261.5q-8 -96 -47 -177t-98 -140q-25 -27 -69 -56.5 t-92 -49t-83 -19.5q-45 0 -64.5 23.5t-25.5 60.5l-25 6q-59 -33 -125.5 -61.5t-138.5 -28.5q-90 0 -142 43t-74.5 108.5t-22.5 131.5q0 102 39.5 193t124.5 149.5t221 58.5q39 0 87 -12t87 -37zM932 283v329q0 29 -3 55.5t-24 45.5q-20 20 -49 33.5t-59 13.5q-90 0 -156 -55 q-27 -23 -56.5 -84.5t-31.5 -169.5q-2 -45 9 -90.5t38 -81.5q27 -35 71 -47.5t89 -12.5q49 0 93 20.5t79 43.5z" />
<glyph unicode="A" horiz-adv-x="1478" d="M1053 156l-111 385q-8 18 -22 18h-461q-12 0 -21 -16l-239 -508l-187 -39l-6 20q182 307 357.5 620.5t336.5 633.5q2 6 2 14q0 4 -5 12.5t-19 10.5l-184 30v56h397q16 -84 48 -212t71 -268.5t71 -263.5q35 -125 77 -260t97 -227q20 -33 55.5 -47.5t75.5 -14.5 q23 0 45.5 2t43.5 4l2 -53l-213 -61q-45 -12 -93 -12q-51 0 -75.5 54t-42.5 122zM737 1171l-237 -499q-2 -2 -2 -9.5v-9.5q0 -14 14 -14h385q14 0 14 14l-2 9q-2 8 -2 10l-143 499q-4 8 -14 9q-13 -1 -13 -9z" />
<glyph unicode="B" horiz-adv-x="1144" d="M686 774l-2 -16q225 -29 311 -112t86 -234q0 -119 -49 -199t-129 -127t-176 -67.5t-188 -20.5q-51 0 -120 1t-133.5 1t-108.5 1l-44 1l-2 21q20 31 30.5 40t13.5 27.5t3 75.5v1085q0 35 -26.5 54.5t-65.5 30t-78 20.5l2 35l15 14h505q86 0 170 -11.5t152 -41t107.5 -82.5 t39.5 -137q0 -100 -44 -167t-114.5 -112t-154.5 -80zM346 801q4 -14 21.5 -17.5t48.5 -3.5q109 0 202 34t150 107.5t57 194.5q0 86 -46 131t-120.5 62.5t-162.5 17.5q-23 0 -56.5 -1t-60.5 -8t-33 -30v-487zM346 135q0 -35 25.5 -45t128.5 -10q104 0 194 37t145.5 113.5 t55.5 195.5q0 92 -37 147.5t-97.5 85t-135 40t-152.5 10.5h-87t-40 -17v-557z" />
<glyph unicode="C" horiz-adv-x="1296" d="M1161 1081l-28 2q-51 139 -145.5 202t-221.5 63q-139 0 -235.5 -55.5t-156 -149.5t-86 -208t-26.5 -230q0 -94 27.5 -186.5t66.5 -164t72 -106.5q84 -84 163 -127t204 -43q104 0 200.5 40t182.5 97l34 -59q-111 -76 -233.5 -131.5t-255.5 -55.5q-121 0 -239.5 32 t-207.5 120q-106 109 -151 253t-45 294q0 147 40 290.5t146 249.5q113 113 261.5 168.5t308.5 55.5q135 0 248.5 -50.5t193.5 -181.5z" />
<glyph unicode="D" horiz-adv-x="1509" d="M131 4v21q31 23 37 51t8 86v1012q0 25 -1 49t-3 47q-2 27 -28.5 41t-62.5 22t-63 17v39l15 16h641q238 0 386 -45t227 -127t108.5 -195.5t29.5 -249.5q0 -195 -42 -335t-160 -267q-68 -74 -173.5 -113.5t-222 -54t-223.5 -14.5h-473zM348 1178v-830q2 -41 4 -91t10.5 -91 t22.5 -57q20 -20 70.5 -23.5t91.5 -3.5q207 0 341 58.5t210 157.5t105.5 222t29.5 252q0 63 -13.5 143t-46 159t-90.5 136q-74 72 -222 91.5t-349 19.5q-66 0 -95.5 -2t-39.5 -6t-16.5 -7t-9.5 -28.5t-3 -99.5z" />
<glyph unicode="E" horiz-adv-x="1060" d="M842 688q-59 4 -121 8t-121 4h-120.5t-102.5 -6t-41 -24v-285q0 -57 5 -123.5t26 -105.5q23 -39 62.5 -52.5t133.5 -13.5q37 0 70 1t80 3t126 8.5t203 16.5l11 -10l-27 -109h-795q-31 16 -42 55t-11 80v1008q0 23 -2 61.5t-16 69.5q-8 20 -46 37.5t-110 27.5l-2 41l14 15 l303 2q72 0 160 3l176 6t160 3h51.5t42.5 -2l-4 -102l-8 -15q-53 4 -124 7t-138.5 6.5t-113.5 5.5t-52 2h-82q-31 -6 -40 -54.5t-9 -101.5v-340q0 -27 39 -28t96 -1q82 0 184.5 4.5t184.5 10.5l12 -15z" />
<glyph unicode="F" horiz-adv-x="903" d="M178 737l4 330v101.5t-13 101.5t-54 55l-113 27v43l14 14h236h249t222 1t156 3v-108l-17 -17q-111 8 -221.5 24.5t-220.5 16.5q-20 0 -39 -10t-27 -37q-2 -10 -5 -27.5t-5 -62.5t-3 -137t-1 -254q0 -8 6 -17.5t21 -9.5q113 0 241.5 10.5t239.5 14.5l-2 -101l-10 -10 q-106 6 -233.5 8t-235.5 2q-8 0 -16.5 -6t-8.5 -16q0 -156 2 -325t8 -324l-188 -31q6 186 10 370.5t4 370.5z" />
<glyph unicode="G" horiz-adv-x="1353" d="M666 606l565 23q2 -70 3 -165t3 -185.5t3 -150.5l1 -60q-90 -23 -189.5 -47.5t-192.5 -40t-169 -15.5q-117 0 -226.5 41t-193.5 123q-104 104 -147 246.5t-43 288.5q0 152 41 298t147 252q115 115 268.5 166.5t315.5 51.5q133 0 239.5 -53.5t188.5 -178.5l-119 -117 l-24 2q-68 135 -160 190.5t-217 55.5q-143 0 -239.5 -54t-153 -146.5t-80 -205t-23.5 -229.5q0 -113 33 -223.5t101.5 -201.5t177 -145t258.5 -54q102 0 192 20q27 6 35 38t7 73t-1 71q0 16 2 54.5t-1 83.5t-16.5 77.5t-41.5 34.5q-68 6 -158 11.5t-174 7.5l-12 10v53z" />
<glyph unicode="H" horiz-adv-x="1445" d="M1434 29l-13 -29h-305l-22 43q4 150 7 321t3 320q0 8 -5 16.5t-20 8.5h-702q-27 0 -27 -25q0 -70 -1 -152.5t-1 -166.5q0 -88 2 -161t10 -151l-188 -57l-12 10q16 174 18 366.5t2 379.5q0 127 -1 255t-11 255q-2 29 -15.5 39t-44 19t-90.5 30l-2 39l15 14h331l11 -10 q-12 -70 -18.5 -169.5t-7.5 -208t-1 -202.5q0 -8 5 -16.5t20 -8.5h708q16 0 20.5 8.5t4.5 16.5q0 133 -3 283.5t-3 281.5l180 35l10 -12q-14 -186 -18 -370.5t-4 -371.5q0 -125 2 -248.5t6 -248.5q0 -27 21.5 -46.5t51 -29.5t54 -15t31.5 -5z" />
<glyph unicode="I" horiz-adv-x="573" d="M559 -2h-543v53q76 14 113 27.5t50.5 35t15.5 59.5t4 101v744q0 59 -1 118.5t-5 116.5q-2 31 -13.5 42.5t-49.5 19.5t-120 26v45l15 13h512l12 -13v-43l-137 -30q-41 -10 -45 -53q-8 -59 -9.5 -152.5t0.5 -193t2 -179.5q0 -102 1 -198.5t4 -190.5q2 -43 -0.5 -101.5 t10 -104.5t55.5 -58q23 -6 53.5 -14.5t54.5 -14.5l25 -6z" />
<glyph unicode="J" horiz-adv-x="542" d="M358 1245v-1059q0 -238 -97 -398.5t-304 -266.5l-29 37q59 37 107.5 84t81.5 117.5t50 176t17 261.5v1048q0 16 -7 44t-25 32l-148 37v43l14 12h512l15 -12l-4 -49l-140 -29q-18 -4 -30.5 -26.5t-12.5 -51.5z" />
<glyph unicode="K" horiz-adv-x="1214" d="M365 653l-19 -2q0 -150 2 -300t10 -300l-165 -59l-17 10v1217q0 16 -2 32.5t-8 30.5q-8 18 -44 33.5t-70 25t-40 9.5l4 34l17 15h323l15 -15q-10 -33 -17.5 -107.5t-10.5 -205.5t-3 -338l16 -2l588 668h184l-2 -19l-596 -602q-4 -4 -10 -11t-6 -11q0 -8 10 -19 q82 -82 180.5 -180t195.5 -193.5t178 -173t128 -118.5l-2 -23l-174 -63q-162 172 -330.5 335.5t-334.5 331.5z" />
<glyph unicode="L" horiz-adv-x="1011" d="M1008 98l-29 -108q-57 6 -155.5 9t-218.5 4t-242.5 1h-229.5v29q25 35 35 107.5t10 152.5v979q0 23 -10 43t-33 24q-20 4 -48 10.5t-48.5 10.5t-22.5 4l2 35l15 14h485l12 -12v-43l-24 -5q-25 -5 -55.5 -11.5t-53.5 -12.5q-18 -2 -26.5 -18.5t-10.5 -32.5 q-12 -223 -12 -473q0 -174 4 -349t10 -341q2 -8 10.5 -17.5t16.5 -9.5q80 0 180.5 4t194.5 10.5t156.5 11.5t66.5 5z" />
<glyph unicode="M" horiz-adv-x="1970" d="M1538 1413h211v-24q-41 -20 -46 -73.5t-5 -121.5q0 -252 5 -492.5t32 -492.5q4 -45 35.5 -80t82.5 -35q20 0 54.5 5t60.5 7v-49q-68 -25 -142.5 -47t-135.5 -22q-45 0 -87 16t-42 55v373q0 16 -2.5 77.5t-4.5 148.5t-5 178.5t-5 168t-4 117.5q0 31 -16 31q-12 0 -23 -16 l-586 -1135h-61q-57 139 -120.5 289.5t-126 300t-121 281t-107.5 229.5q-12 20 -23 20q-10 0 -22 -65.5t-25.5 -172t-26 -231.5t-23.5 -246.5t-18.5 -217t-11.5 -142.5l-153 -53l-15 6q59 301 111.5 604t93.5 606q2 6 2 12.5v12.5q0 29 -14 50.5t-43 29.5l-139 39l4 45 l14 14h361q57 -164 135 -350t167 -377.5t173 -374.5q4 -6 10 -17t12 -11q16 0 25 18z" />
<glyph unicode="N" horiz-adv-x="1499" d="M1346 1421l12 -16q-20 -348 -25.5 -702.5t-5.5 -702.5h-74q-35 41 -62.5 73.5t-74.5 90.5l-325 405q-156 195 -280 338.5t-200 229.5q-4 6 -10 12t-12 6q-10 0 -12.5 -13.5t-2.5 -21.5q0 -98 4.5 -227t11.5 -272.5t16 -290t18 -279.5l-144 -61l-18 18q12 244 19 487.5 t7 485.5q0 66 -1 132.5t-1 131.5q0 23 -3 35t-37.5 26.5t-133.5 36.5l-8 56l16 14h332q102 -135 213 -280.5t221.5 -288t215 -268t194.5 -222.5l10 -10t13 -6q8 0 10 7t2 9q0 78 -2 163t-7 198.5t-14.5 276.5t-25.5 397z" />
<glyph unicode="O" horiz-adv-x="1509" d="M84 651q0 199 47 339t160 263q66 70 153.5 109t187 55.5t193.5 16.5q115 0 229.5 -36t196.5 -120q63 -63 101.5 -152.5t54.5 -186.5t16 -194q0 -100 -11 -204.5t-73 -229.5q-49 -100 -149 -179t-236.5 -124t-298.5 -45q-158 0 -267 59.5t-176 159t-97.5 221t-30.5 248.5z M274 713q0 -143 34 -273.5t128 -234.5q92 -102 180.5 -130t147.5 -28q127 0 216 56.5t144.5 149.5t81 206.5t25.5 228.5q0 109 -25.5 225.5t-81 216t-145.5 161t-219 61.5q-133 0 -225.5 -55.5t-149.5 -147.5t-84 -205.5t-27 -230.5z" />
<glyph unicode="P" horiz-adv-x="1079" d="M352 45l-170 -57l-14 14q4 215 9 431t5 433q0 90 -3 181.5t-7 181.5q-4 61 -48 81.5t-104 28.5v37l15 15h526q252 0 362.5 -87t110.5 -251q0 -188 -131 -320q-68 -70 -170 -97.5t-203 -35.5q-29 -2 -74.5 -3t-81.5 -8t-36 -28q0 -25 3 -108.5t7 -193.5t4 -214zM483 1311 h-114q-10 0 -14.5 -7.5t-4.5 -15.5q-6 -135 -9 -296t-3 -294q0 -14 8 -19t14 -5q213 0 345.5 96t132.5 266q0 106 -49.5 166t-130.5 84.5t-175 24.5z" />
<glyph unicode="Q" horiz-adv-x="1515" d="M1479 -356l14 -41q-59 -25 -149.5 -54.5t-167.5 -29.5q-88 0 -163 40t-137.5 106.5t-116.5 145t-102 156.5q-106 0 -214.5 33t-184.5 117q-86 96 -130 228t-44 269q0 213 47 364.5t160 268.5q104 109 243.5 146t284.5 37q119 0 233.5 -33t202.5 -123q66 -63 103 -154.5 t52 -187.5t15 -182q0 -98 -4 -152.5t-12 -89.5t-23 -78q-23 -68 -48 -124t-91 -128q-70 -76 -169 -123t-195 -69l-9 -21q25 -45 61 -109.5t66 -105.5q16 -20 51 -53t96.5 -58.5t151.5 -25.5q16 0 50 5t70 12.5t59 13.5zM748 45q143 0 236 59.5t147.5 156.5t77 211t22.5 220 q0 121 -28.5 238t-86 212t-143.5 152.5t-203 57.5q-147 0 -243.5 -60.5t-152 -160t-78 -217t-22.5 -230.5q0 -137 40 -267t135 -229q59 -61 138 -102t161 -41z" />
<glyph unicode="R" horiz-adv-x="1122" d="M563 678l-4 -16l539 -607v-18l-203 -53q-72 92 -151.5 193.5t-152.5 194.5t-128 159.5t-78 89.5q-18 18 -41 18q0 -147 1 -295.5t9 -296.5l-170 -59l-22 18q12 223 15 446.5t3 446.5q0 12 -1 51t-2 92.5t-2 109.5t-1 99q0 33 -36 53.5t-73.5 29.5t-48.5 9l2 35l13 13h557 q188 0 302 -72t114 -215q0 -141 -59.5 -231.5t-159 -135.5t-222.5 -59zM342 758q0 -8 4 -19.5t14 -11.5q113 0 214.5 35t165 111.5t63.5 197.5q0 98 -52.5 150.5t-131 71t-158.5 18.5h-82q-23 0 -25 -54q-2 -39 -3 -100t-3 -128.5t-3 -128t-2 -99.5t-1 -43z" />
<glyph unicode="S" horiz-adv-x="991" d="M924 1241l-129 -115l-27 7q-27 102 -86 165.5t-164 63.5q-98 0 -162.5 -70.5t-64.5 -171.5q0 -80 45 -139t116.5 -104.5t151.5 -79.5q162 -70 244 -158t82 -211q0 -100 -50.5 -185t-132 -145.5t-180 -94.5t-196.5 -34q-106 0 -200.5 48.5t-137.5 160.5l117 135l34 -2 q33 -106 98.5 -177t174.5 -71q80 0 146.5 40t106.5 108t40 154q0 57 -36 111t-93.5 97t-118.5 70q-123 53 -207 108.5t-126 126t-42 171.5q0 129 62.5 215t162 130t209.5 44q76 0 141.5 -13.5t121 -55.5t100.5 -128z" />
<glyph unicode="T" horiz-adv-x="1128" d="M1124 1411v-98l-16 -15q-129 6 -207 10.5t-121 6.5l-64.5 3t-37.5 1q-20 0 -23.5 -118t-3.5 -304q0 -123 4 -276.5t10.5 -307t12.5 -278.5l-205 -55l-18 18q12 195 19 390.5t7 389.5v143t-1 159t-2 139.5t-1 83.5q0 12 -18 12q-37 0 -153 -4t-286 -11l-16 15v98l14 14 q59 -2 99.5 -5t77 -6t84 -5t118 -4t178.5 -2q115 0 258.5 7t278.5 13z" />
<glyph unicode="U" horiz-adv-x="1458" d="M358 1110l-16 -559q0 -172 49 -268.5t131 -136.5t180 -40q96 0 187.5 36t173.5 85q0 281 3 562.5t5 560.5l180 71l13 -14q-12 -88 -18.5 -207t-9.5 -253t-4 -271t-1 -262q0 -84 4 -156t24.5 -116t69.5 -44q31 0 59.5 7.5t59.5 9.5l8 -35l-10 -14q-51 -16 -112.5 -34 t-115 -30t-85.5 -12q-39 0 -53.5 22.5t-14.5 55v63.5l-16 12q-106 -70 -228.5 -115.5t-249.5 -45.5q-141 0 -219 44t-111.5 109.5t-45.5 124.5q-10 72 -13.5 174.5t-3.5 196.5q0 119 2 239.5t2 239.5v121q0 31 -23.5 51.5t-56 32.5t-61.5 17t-39 5l-4 41l16 15h346l15 -13 q-2 -10 -5 -48t-5.5 -85t-4.5 -86t-2 -51z" />
<glyph unicode="V" horiz-adv-x="1447" d="M1257 1393l177 34l12 -38q-49 -61 -96 -129t-86 -130.5t-66 -108.5t-37 -63q-111 -205 -218 -444.5t-195 -493.5l-140 -53l-20 15l-293 987q-23 72 -45.5 141.5t-52.5 136.5q-25 51 -67 66.5t-128 27.5l-2 56l14 12l359 21q121 -590 338 -1147q4 -6 9 -9.5t7 -5.5 q10 4 46 80t99 213l244 561q29 70 65.5 137.5t75.5 133.5z" />
<glyph unicode="W" horiz-adv-x="2150" d="M1976 1382l166 29v-43l-235 -385q-37 -59 -94.5 -168.5t-125 -245t-133 -275.5t-114.5 -261l-123 -56l-25 17q-49 279 -105.5 554t-117.5 550l-4 16t-10 8q-4 0 -9.5 -8t-9.5 -16l-57 -129q-55 -123 -124 -280t-134.5 -324.5t-114.5 -327.5l-131 -60l-22 11 q-35 197 -74 392t-86 388q-31 125 -63.5 248t-79.5 241q-16 43 -58.5 59.5t-89.5 24.5l-4 50l16 14l320 6q10 -49 28.5 -140t43 -207t52 -244t55.5 -253t52 -233q2 -12 15 -12q10 0 14 8q27 51 71 146t97 213t107.5 242t100.5 234.5t72 188.5l156 59l14 -12q0 -63 18.5 -179 t48.5 -261.5t60 -294.5q10 -43 21.5 -106.5t25 -126t26.5 -105.5t28 -43q14 0 19 5t7 9l164 348l223 496q33 72 64.5 131t58.5 108z" />
<glyph unicode="X" horiz-adv-x="1277" d="M1253 1376l-383 -422q-31 -35 -60.5 -73.5t-51 -66.5t-25.5 -36q0 -8 25.5 -52t64.5 -108.5t83 -134t83 -128t64 -87.5l123 -147q10 -10 36.5 -26.5t38.5 -20.5l11 -8v-33l-226 -56l-28 13q-27 29 -50.5 61.5t-44.5 65.5l-292 489h-25q-33 -39 -87 -112.5t-113.5 -160.5 t-109.5 -169t-79 -141l-193 -23v33l555 674q-2 0 -24.5 34.5t-56 93t-72.5 125t-77 132t-67 116.5q-33 59 -92 82t-123 39v51l15 13q27 2 80 4t113.5 6t105.5 6l301 -545h18q20 20 61.5 74.5t91.5 124.5t97 137.5t80 117.5t39 62l194 27v-31z" />
<glyph unicode="Y" horiz-adv-x="1212" d="M479 612l-305 605q-35 70 -75 89t-101 27v58l14 14h297l289 -666l9 -9t16 -7q6 0 28.5 31.5t53 82t61.5 105.5q6 10 37 63.5t73 125t83.5 141t68.5 112.5l174 35l8 -37q-113 -147 -206 -270t-174.5 -238.5t-167.5 -246.5l18 -590l-184 -60l-23 19q4 154 5 308t1 308z" />
<glyph unicode="Z" horiz-adv-x="1234" d="M1130 1360q-104 -147 -217.5 -318.5t-225.5 -341.5t-208 -319.5t-166 -255.5l13 14h878l19 -18l-37 -146q-98 10 -238.5 14.5t-302.5 7.5t-325.5 3h-311.5l-2 43l868 1241l-14 21q-287 0 -446.5 -7.5t-200.5 -11.5l-12 10v111l18 16q227 -14 454.5 -19t456.5 -5v-39z" />
<glyph unicode="[" horiz-adv-x="528" d="M506 1458l-244 -26v-1602l244 -27v-49q-82 0 -164 -1t-162 -9v1774q59 -8 151.5 -9.5t174.5 -1.5v-49z" />
<glyph unicode="\" horiz-adv-x="798" d="M762 -393l-797 1835l10 22l64 15l795 -1829l-7 -27z" />
<glyph unicode="]" horiz-adv-x="528" d="M266 1432l-243 26v49q84 0 175 1t150 10v-1774q-80 8 -161 9t-164 1v49l243 27v1602z" />
<glyph unicode="^" horiz-adv-x="1024" d="M557 1417l322 -327l-80 -54l-248 254l-293 -268l-47 25z" />
<glyph unicode="_" horiz-adv-x="1548" d="M1548 -233h-1548v81h1548v-81z" />
<glyph unicode="`" horiz-adv-x="1064" d="M476 1047l-332 315l96 74l27 -4l245 -322z" />
<glyph unicode="a" horiz-adv-x="1122" d="M788 883l109 63l10 -10q-12 -223 -12 -447q0 -47 -3 -112.5t1 -127t22.5 -102.5t59.5 -41q23 0 61.5 12.5t71.5 24.5l14 -49q-41 -25 -88 -52.5t-92 -47t-78 -19.5q-57 0 -81.5 35t-34.5 86l-31 8q-76 -49 -160 -89t-174 -40q-86 0 -143.5 37t-92 96.5t-50 130 t-15.5 140.5q0 109 27.5 211t86 185t150.5 131t223 48q49 0 109.5 -18t109.5 -53zM743 203v471q0 41 -4 77.5t-28 63.5q-27 29 -64 48.5t-76 19.5q-113 0 -194 -78q-35 -33 -71 -121t-40 -244q-2 -63 10.5 -127.5t47.5 -117.5q33 -51 89 -67.5t113 -16.5q59 0 115.5 28.5 t101.5 63.5z" />
<glyph unicode="b" horiz-adv-x="1069" d="M-29 1354l13 10l346 37l12 -15q-12 -125 -20.5 -249.5t-8.5 -251.5v-68l19 -10q82 61 172 106t194 45q96 0 160 -46t96.5 -120.5t32.5 -160.5q0 -68 -8 -135.5t-31 -133.5q-35 -109 -120 -195.5t-196.5 -136.5t-228.5 -50q-51 0 -107 20t-94 79.5t-38 172.5v975 q0 37 -11.5 49t-52.5 17t-129 18v43zM322 711q-2 -51 -5.5 -117t-3.5 -125q0 -115 13.5 -204t56.5 -138t133 -49q109 0 175.5 57.5t96 146.5t29.5 183q0 113 -19.5 179.5t-41.5 98.5q-20 31 -57 59.5t-97 28.5q-82 0 -151.5 -33.5t-128.5 -86.5z" />
<glyph unicode="c" horiz-adv-x="931" d="M889 233l22 -36q-94 -94 -207.5 -165t-250.5 -71q-125 0 -197 46t-105.5 120t-43 158t-9.5 159q0 154 66.5 274t183.5 187.5t268 67.5q100 0 165 -56.5t73 -144.5l-111 -108l-34 12q-14 102 -61.5 159.5t-112.5 57.5q-86 0 -145.5 -58.5t-90.5 -147.5t-31 -179 q0 -66 12.5 -137.5t43 -134t87 -101.5t146.5 -39t168 42t145 100z" />
<glyph unicode="d" horiz-adv-x="1128" d="M549 1352l10 8l334 41l16 -19v-1157q4 -45 18.5 -86t59.5 -41q16 0 55 13.5t70 25.5l16 -47q-59 -41 -131.5 -85t-132.5 -44q-59 0 -87.5 48t-33.5 102q-78 -53 -172 -100.5t-184 -47.5q-88 0 -146.5 37t-93 97.5t-50 132t-15.5 139.5q0 109 29.5 211t89 185t150.5 132 t216 49q45 0 87 -8t83 -23l15 9q0 55 -1 116.5t-3.5 113.5t-10.5 79q-10 37 -41.5 52t-70.5 18.5t-74 3.5zM743 195l9 440q0 55 -12.5 111.5t-53.5 93.5t-127 37t-143.5 -44.5t-92 -114t-49 -150.5t-14.5 -152q0 -72 22.5 -145.5t75 -123t144.5 -49.5q53 0 126.5 28 t114.5 69z" />
<glyph unicode="e" horiz-adv-x="946" d="M854 653l-578 -250q6 -63 34 -130.5t84.5 -112.5t146.5 -45q84 0 164.5 43t150.5 96l23 -4l26 -37q-63 -59 -138 -113.5t-158 -89.5t-171 -35q-102 0 -168.5 43t-103.5 114t-52.5 158t-15.5 173q0 90 22.5 176t82.5 156q76 88 181 136t222 48q133 0 212 -82t79 -201 q0 -18 -13.5 -26.5t-29.5 -16.5zM362 811q-59 -63 -76.5 -133t-17.5 -146q0 -8 1 -17t3 -19l9 -9l413 164q10 4 18.5 16.5t8.5 37.5q0 43 -22.5 88t-64.5 74.5t-99 29.5q-51 0 -95.5 -22.5t-77.5 -63.5z" />
<glyph unicode="f" horiz-adv-x="673" d="M20 889h216l12 12q0 53 6 124t31 126q47 109 132 164t181 55q84 0 127 -35t63 -75l-118 -111l-25 8q-4 23 -13 53.5t-33 54t-73 23.5q-43 0 -70.5 -53t-40 -141t-12.5 -193l9 -12h254l10 -15l-14 -45l-15 -12h-235l-13 -12v-227q0 -143 5.5 -285.5t15.5 -267.5l-162 -50 l-35 23q10 152 18.5 297t8.5 285v221l-12 16h-230l-10 14l8 46z" />
<glyph unicode="g" horiz-adv-x="1046" d="M729 106q-80 -45 -167 -87t-183 -42q-84 0 -151.5 50.5t-106.5 140.5t-39 209q0 182 62.5 311t169 196.5t237.5 67.5q63 0 125.5 -15t114.5 -54l104 59l29 -12q-4 -70 -7.5 -138.5t-6.5 -152.5t-4 -197.5t-1 -273.5q0 -59 -7 -156.5t-38 -187.5q-25 -68 -72 -118t-77 -73 q-78 -59 -158 -84.5t-174 -25.5q-68 0 -137.5 22.5t-145.5 92.5l101 126h28q18 -37 53 -72.5t75 -60t77 -24.5q109 0 177.5 65.5t102 176t38.5 243.5zM748 203v540q-4 72 -60.5 106t-122.5 34q-90 0 -149.5 -46t-94 -119t-49 -153t-14.5 -149q0 -92 37 -162t91 -109t106 -39 q47 0 97 16.5t93 39.5t66 41z" />
<glyph unicode="h" horiz-adv-x="1212" d="M1206 219l27 -20v-23q-68 -72 -148.5 -134t-173.5 -62q-72 0 -103.5 63t-31.5 139q0 55 2 126t4 135.5t2 101.5q0 78 -12 142.5t-50 102t-114 37.5q-84 0 -157.5 -39.5t-133.5 -82.5q0 -168 -2 -337t-2 -335l-147 -45l-12 20q10 203 18 405.5t10 405.5v271.5t-41 171.5 q-14 18 -65 31.5t-92 21.5v37l10 8l323 35l13 -15q-6 -131 -7 -277.5t-1 -287.5l16 -16q90 55 194.5 105t217.5 50q23 0 63.5 -14t69.5 -43q47 -43 48 -142.5t1 -222.5v-151q0 -31 -1 -74t5 -84t25.5 -68.5t60.5 -27.5q59 0 107 32.5t77 59.5z" />
<glyph unicode="i" horiz-adv-x="661" d="M422 1280q-2 -51 -38 -83t-85 -32t-84 35t-35 84q0 53 43 84t88 31q53 0 82 -36t29 -83zM393 803l-16 -430q0 -113 18.5 -176.5t71.5 -63.5q59 0 103 27.5t85 64.5l27 -20v-23q-35 -45 -81 -91t-98 -76.5t-110 -30.5q-43 0 -81 15t-60.5 64.5t-22.5 149.5l13 453 q0 80 -15.5 127t-56.5 47q-33 0 -80 -21.5t-84 -44.5l-26 37q70 55 148.5 104.5t137.5 49.5q70 0 98.5 -47t28.5 -115z" />
<glyph unicode="j" horiz-adv-x="595" d="M326 1399q47 0 82.5 -31t35.5 -80q0 -51 -35.5 -91t-89.5 -40q-51 0 -82.5 37t-31.5 86t36 84t85 35zM37 768l-27 37q43 33 93.5 68.5t100.5 60t95 24.5q74 0 97.5 -43t27.5 -94q6 -33 9 -104.5t4 -153.5t1 -150.5v-97.5v-67t-3 -120t-7 -126t-14 -86 q-45 -133 -153.5 -228.5t-248.5 -160.5l-32 33q115 68 178 138.5t84 145.5q12 47 20 114t12.5 136.5t6.5 129t2 91.5q0 186 -4.5 292t-13.5 155t-26.5 61.5t-45.5 12.5q-25 0 -71 -24t-85 -44z" />
<glyph unicode="k" horiz-adv-x="1056" d="M342 545l274 252q80 74 121 110.5t63.5 54t47.5 31.5l94 -59v-23q-115 -68 -224.5 -145.5t-211.5 -163.5q-10 -8 -23.5 -20.5t-13.5 -20.5t6 -16t10 -17q45 -57 101.5 -122.5t114 -124t106.5 -95t80 -36.5q51 0 89 22.5t71 56.5l38 -41q-25 -33 -64.5 -81t-89.5 -84.5 t-106 -36.5q-45 0 -77.5 21.5t-83.5 78.5l-30 40t-79 103.5t-106.5 133t-112.5 131.5l-25 -15v-452l-145 -41l-12 14q6 242 15 479.5t9 478.5q0 78 -4 148t-14 111q-14 47 -54 64t-122 26v43l10 8l328 47l-7 -14v-846h27z" />
<glyph unicode="l" horiz-adv-x="616" d="M592 229h22l23 -24q-35 -53 -82 -106.5t-104.5 -87.5t-124.5 -34q-51 0 -89 24t-58.5 86.5t-20.5 178.5l14 774q0 51 -1 109.5t-9 95.5q-6 33 -37 44t-70 13.5t-71 4.5v47l12 10l338 41l12 -14q-6 -215 -17.5 -430.5t-11.5 -430.5q0 -100 -1 -190t18.5 -146.5t81.5 -60.5 q51 0 94 31.5t82 64.5z" />
<glyph unicode="m" horiz-adv-x="1787" d="M784 -8q0 33 5.5 121t10.5 204.5t5 233.5q0 127 -33 197.5t-135 70.5q-47 0 -99.5 -19.5t-91 -42t-49.5 -28.5q-4 -111 -7 -221.5t-3 -222.5q0 -63 1 -128t3 -128l-137 -49l-29 16q2 141 8.5 282.5t6.5 280.5q0 78 -3.5 142.5t-19.5 103.5t-59 39q-25 0 -72 -19.5 t-82 -40.5l-24 39q61 49 132.5 94.5t147.5 47.5q78 0 102.5 -47.5t24.5 -104.5l16 -12q80 43 170.5 91t182.5 48q57 0 106 -28.5t78 -77.5l33 -5q39 20 92 47t114.5 46.5t120.5 19.5q45 0 87.5 -11t74.5 -44q41 -41 41 -133v-246v-268q0 -27 7.5 -58.5t30 -53.5t67.5 -22 q33 0 77 28t80 54h29l14 -43q-45 -41 -98 -84t-110.5 -70.5t-118.5 -27.5q-72 0 -106 50t-34 108q0 12 2.5 59t3.5 111.5t3 133.5t2 126q0 127 -37 197.5t-137 70.5q-76 0 -131.5 -22.5t-98.5 -46.5q-2 -70 -3 -140.5t-1 -142.5q0 -217 12 -430l-151 -57z" />
<glyph unicode="n" horiz-adv-x="1292" d="M399 37l-143 -49l-31 14q2 39 5 115t6.5 167t5.5 178t2 148q0 102 -12.5 169t-63.5 67q-33 0 -71 -21.5t-83 -50.5l-34 45q43 31 92 65t98 57.5t86 23.5q78 0 108.5 -41t38.5 -99l17 -12q86 53 187.5 100.5t199.5 47.5q45 0 87 -12.5t71 -47.5q20 -25 28 -89t10.5 -143 t2.5 -145q0 -154 1 -241.5t20.5 -123.5t76.5 -36q35 0 80 26.5t84 55.5h26l19 -43q-70 -70 -159 -126t-163 -56q-84 0 -115.5 53t-31.5 127l10 350q0 154 -38 242t-146 88q-70 0 -139.5 -40t-124.5 -85q-4 -111 -8.5 -238t-4.5 -239q0 -43 2 -91.5t4 -109.5z" />
<glyph unicode="o" horiz-adv-x="1099" d="M496 -29q-141 0 -226.5 62.5t-124.5 161t-47 206.5q0 106 19.5 213t93.5 187q72 80 175 115.5t210 35.5q152 0 240 -67.5t126.5 -174t38.5 -221.5q0 -100 -25.5 -196t-92.5 -172q-72 -82 -175 -116t-212 -34zM291 647q-8 -39 -12.5 -78t-4.5 -80q0 -63 12.5 -139 t42 -142.5t84 -109.5t138.5 -43t136 37t81 96.5t40 129t11 133.5q0 63 -10 135.5t-38 138.5t-82 106.5t-140 40.5q-82 0 -155.5 -55t-102.5 -170z" />
<glyph unicode="p" horiz-adv-x="1150" d="M416 -422l-166 -63l-21 22q4 35 6.5 101.5t3.5 146.5t2 161t1 146.5v100.5v452q0 47 -7.5 92t-24.5 76t-48 31q-33 0 -73 -18.5t-77 -41.5l-28 39q61 49 136 94.5t142 45.5q70 0 98.5 -43t34.5 -111l17 -8q84 66 177 108.5t199 42.5q104 0 166 -53t88.5 -132t26.5 -157 q0 -113 -38 -225.5t-108.5 -204.5t-169 -147.5t-216.5 -55.5q-59 0 -121 17l-21 -17q2 -47 4 -120.5t6.5 -149.5t10.5 -129zM399 135q37 -33 83 -54.5t98 -21.5q92 0 153.5 39t97 103.5t51 139.5t15.5 148q0 90 -25.5 166t-72.5 123t-113 47q-78 0 -145.5 -30.5 t-139.5 -87.5q0 -4 -1 -31t-2 -60.5t-2 -62.5t-1 -37q0 -84 1 -172t2 -147.5t1 -61.5z" />
<glyph unicode="q" horiz-adv-x="1040" d="M758 -498l-33 33q2 31 4 96.5t4 149.5t4 170t4 160l-14 10q-78 -57 -167 -96t-185 -39q-80 0 -136.5 36.5t-91 96t-50 129t-15.5 133.5q0 106 28.5 209.5t88 188.5t152.5 135.5t222 50.5q47 0 103.5 -17.5t99.5 -40.5l19 4l90 121l43 -8q-14 -178 -21.5 -384t-7.5 -409 q0 -186 6 -359t19 -310zM741 215v463q0 39 -4 80t-28 65q-27 29 -62 47.5t-76 18.5q-115 0 -181 -65.5t-93 -169t-27 -218.5q0 -84 23.5 -158.5t75 -119.5t135.5 -45q59 0 122.5 28.5t114.5 73.5z" />
<glyph unicode="r" horiz-adv-x="851" d="M721 694l-25 11q-8 43 -32.5 80.5t-75.5 37.5q-63 0 -102.5 -43t-55.5 -84q-14 -33 -16 -94t0 -130t2 -124q0 -154 6 -311l-143 -43l-31 18q10 109 17 236t7 250q0 80 -2 159.5t-20.5 133t-65.5 53.5q-35 0 -78 -20.5t-81 -43.5l-25 35q41 33 89 68t97.5 60.5t89.5 25.5 q70 0 105 -41t43 -107l20 -8q31 29 69 62.5t79 57t78 23.5q145 0 161 -161z" />
<glyph unicode="s" horiz-adv-x="776" d="M700 784l-112 -75l-25 14q-4 68 -33.5 114t-99.5 46q-72 0 -120 -47.5t-48 -118.5q0 -61 56.5 -105.5t168.5 -91.5q119 -51 177.5 -108.5t58.5 -128.5q0 -104 -58.5 -175t-147.5 -107t-179 -36q-92 0 -171 37t-130 133l100 146l29 -2q6 -94 71.5 -165t161.5 -71 q66 0 120 46t54 110q0 53 -30.5 90t-76.5 63.5t-95 46.5q-63 27 -123 62t-96.5 84t-36.5 117q0 92 53 157.5t135 100t166 34.5q53 0 105.5 -16t88 -53.5t37.5 -100.5z" />
<glyph unicode="t" horiz-adv-x="788" d="M248 1192l172 59l14 -10q-8 -88 -14 -169t-8 -171l12 -10h262l10 -8l-16 -54l-12 -10h-244l-12 -12v-387q0 -72 9 -143.5t41 -117.5t95 -46q39 0 90 27.5t96 56.5l25 -4l14 -31q-70 -66 -157.5 -123t-178.5 -57q-35 0 -76.5 13t-70.5 50q-20 29 -30.5 61.5t-13.5 102.5 t-3 207v389l-12 14h-230l-10 10l14 50l13 12h213l12 12v164t-4 125z" />
<glyph unicode="u" horiz-adv-x="1306" d="M1300 215l23 -39q-47 -41 -104.5 -86t-114.5 -75.5t-111 -30.5q-70 0 -102.5 42t-38.5 105l-16 2q-57 -35 -124 -70.5t-133.5 -59t-127.5 -23.5q-88 0 -134.5 38.5t-63.5 96t-17 114.5q0 25 1 72t3 98.5t3 96.5t1 67q0 94 -3 142.5t-10.5 70t-21.5 35.5q-16 18 -57 18 q-20 0 -65.5 -20.5t-80.5 -40.5l-26 41q41 31 89 65.5t97 59t92 24.5q78 0 104.5 -43t28.5 -142t2 -273q0 -104 7.5 -194.5t45 -146t132.5 -55.5q70 0 139 36t129 73q0 100 1 226t1 235v128t-2 89l158 72l26 -23q-25 -285 -24 -569q0 -61 4 -115.5t25.5 -88.5t70.5 -34 q41 0 90 28.5t88 57.5z" />
<glyph unicode="v" horiz-adv-x="1009" d="M846 942q6 4 16 4q29 0 61.5 -57.5t32.5 -147.5q0 -84 -34.5 -160.5t-77.5 -146.5q-70 -111 -153 -209t-173 -190l-34.5 -34.5t-26.5 -23.5h-49l-142 529q-23 88 -48 162.5t-52 121t-60 46.5t-63.5 -11.5t-65.5 -31.5l-18 49q55 39 126 79t130 40q53 0 84 -44.5 t54.5 -125t52.5 -191.5q12 -45 28.5 -117.5t35.5 -144.5t38.5 -121t36.5 -49q8 0 22.5 16.5t26.5 28.5q51 61 101 132t84 146.5t34 147.5q0 49 -24.5 102.5t-51.5 102.5q-2 2 -2 10t8 16z" />
<glyph unicode="w" horiz-adv-x="1640" d="M1368 852q-2 4 -2 12q0 12 4 15l117 71q2 2 12 2q27 0 46.5 -39t30.5 -86t11 -71q0 -84 -35.5 -163t-78.5 -151q-70 -113 -152 -216t-172 -199q-14 -14 -32.5 -28.5t-39.5 -14.5q-16 0 -32.5 14t-20.5 29q-12 37 -34.5 115.5t-49.5 179t-53.5 204t-48.5 191.5 q-2 6 -6.5 13t-12.5 7q-18 0 -22 -10q-86 -158 -184.5 -346t-182.5 -371l-86 -26l-14 12l-49 459q-16 147 -36 227t-39.5 113.5t-34.5 41t-24 7.5q-35 0 -82 -20.5t-88 -43.5l-18 41q41 29 88 61.5t96.5 55.5t89.5 23q55 0 87 -32t48.5 -77t24.5 -88q23 -123 34 -248 t26 -250l22 -4q88 158 174 318.5t166 322.5l107 53l24 -6q41 -193 86 -382t113 -371q4 -10 14 -20.5t23 -10.5q6 0 16 7t14 13q53 66 106.5 138.5t90.5 152.5t37 162q0 51 -24.5 108.5t-53.5 104.5z" />
<glyph unicode="x" horiz-adv-x="1003" d="M840 946l63 -59q6 -6 6 -8q0 -6 -6 -11q-86 -59 -179 -151t-173 -187q43 -92 94 -185t103.5 -154.5t97.5 -61.5q37 0 76 25.5t69 52.5h17l16 -39q-35 -39 -80 -84t-92 -77t-90 -32q-78 0 -142.5 109t-166.5 307h-15q-59 -92 -117.5 -190.5t-105.5 -216.5l-33 -9l-57 52 v16q66 106 140.5 210.5t150.5 203.5q-29 59 -61.5 124.5t-68.5 123t-73 93.5t-74 36q-33 0 -67.5 -16.5t-63.5 -35.5l-28 37q37 29 79.5 58.5t85.5 51t76 21.5q27 0 58.5 -8t52.5 -31q23 -23 54.5 -75t67 -114.5t64.5 -119.5l12 -2q37 49 86.5 109.5t101.5 123t97 113.5 q2 4 12 4q9 0 13 -4z" />
<glyph unicode="y" horiz-adv-x="1171" d="M213 -373l-4 23l90 114h27q33 -57 88 -107t125 -50q82 0 135 33.5t83.5 85t46 106.5t23.5 98q10 51 12.5 101.5t4.5 99.5l-13 10q-86 -53 -186 -105t-199 -52q-74 0 -116.5 32.5t-63 85t-27 110.5t-6.5 110q0 70 4.5 137t4.5 143q0 111 -15.5 174.5t-79.5 63.5 q-27 0 -68.5 -19.5t-76.5 -38.5l-22 39q10 8 42.5 29.5t74.5 46.5t87 43t80 18q66 0 97.5 -43t31.5 -100q0 -86 -4 -174t-4 -178q4 -94 11 -151.5t18.5 -89.5t27.5 -54q23 -29 58 -41t71 -12q74 0 145.5 36.5t129.5 69.5q2 53 3 108.5t1 110.5q0 111 -4 220.5t-12 216.5 l161 77l25 -8q-10 -156 -12 -311.5t-3 -295.5t-6.5 -253t-21.5 -186q-37 -133 -114 -216t-178 -122t-212 -39q-72 0 -145.5 30.5t-114.5 73.5z" />
<glyph unicode="z" horiz-adv-x="948" d="M823 946h13l28 -26q-84 -90 -183 -207t-203.5 -250t-207.5 -270l11 -17q100 -10 193 -16t155.5 -8t70.5 -2q88 0 138.5 52t85.5 107l45 -24l-84 -164q-31 -61 -76 -100t-123 -37q-10 0 -57 4t-104.5 11t-102.5 11l-240 23q-37 0 -69.5 -26.5t-57.5 -61.5h-12l-31 39 l604 780q-14 -2 -29.5 -3t-31.5 -1q-51 0 -120.5 19.5t-125.5 19.5q-57 0 -96 -40t-86 -106l-41 27l102 182q31 47 56.5 65.5t70.5 18.5q53 0 113.5 -15.5t124 -31.5t121.5 -16q45 0 80.5 18t68.5 45z" />
<glyph unicode="{" horiz-adv-x="641" d="M621 -315v-50q-59 0 -130 2.5t-108 10.5q-76 20 -104.5 80.5t-30.5 149.5t-2 192q0 72 -2 156.5t-12.5 156.5t-36.5 100q-29 33 -80.5 40t-98.5 7v54q59 0 100.5 6t73.5 35q33 29 43.5 93t10.5 152v183q0 166 13 256t52 130t114 48t198 8v-49q-45 0 -91.5 -3t-87.5 -13 q-39 -10 -58 -49.5t-26.5 -94.5t-8.5 -114.5t-1 -110.5q0 -205 -38 -335t-136 -165v-2q72 -25 107.5 -79t50 -124.5t15.5 -147.5t1 -147q0 -139 14.5 -216.5t47 -111.5t85 -41t126.5 -7z" />
<glyph unicode="|" horiz-adv-x="442" d="M262 -326l-82 -16v1837l82 16v-1837z" />
<glyph unicode="}" horiz-adv-x="641" d="M20 -358v49q41 0 85.5 2t78.5 10q43 10 65.5 48t32 92.5t10.5 113.5t1 111q0 68 1 143.5t15.5 147t51 127t106.5 79.5v2q-57 20 -101 82t-59 166q-16 125 -12 249t-14 245q-14 76 -52.5 105.5t-91.5 33.5t-117 4v49q121 -2 202 -7t122 -58q33 -41 43 -83t10 -109.5 v-184.5q0 -147 5.5 -240.5t27 -142.5t67.5 -67.5t128 -18.5v-53q-53 2 -111 -11q-61 -14 -86 -81.5t-29 -165t-4 -203.5q0 -164 -16.5 -253t-57 -128t-113.5 -46t-188 -7z" />
<glyph unicode="~" horiz-adv-x="1376" d="M700 596l152 -94q35 -20 73 -36.5t79 -16.5q61 0 97 39.5t66 97.5l43 -23q-31 -74 -88 -136t-141 -62q-57 0 -112.5 21.5t-102.5 51.5l-203 129q-37 23 -78 40.5t-86 17.5q-61 0 -100 -38t-84 -120l-45 25q45 90 104.5 154.5t149.5 64.5q68 0 140.5 -38t135.5 -77z" />
<glyph unicode="&#xa1;" horiz-adv-x="442" d="M111 905q0 47 34.5 82t83.5 35q47 0 81 -35t34 -82t-34 -82t-81 -35q-49 0 -83.5 35t-34.5 82zM197 623l32 -5l74 -759q4 -45 7 -89t3 -89q0 -31 -14 -63t-61 -32q-49 0 -76 28t-27 105q-2 27 1 59t5 60z" />
<glyph unicode="&#xa2;" horiz-adv-x="944" d="M539 -326l-82 -16v303h-19q-125 0 -196.5 46t-105.5 120t-43 158t-9 159q0 193 102.5 330t270.5 180v344l82 17v-346q31 4 63 4q100 0 164.5 -56.5t73.5 -144.5l-111 -108l-35 12q-12 96 -54 152.5t-101 62.5v-795h4q90 0 167.5 42t145.5 100l18 -5l23 -36 q-78 -76 -167 -138.5t-191 -85.5v-299zM254 508q0 -76 16.5 -160t60.5 -149.5t126 -89.5v774q-66 -20 -112 -80t-68.5 -138.5t-22.5 -156.5z" />
<glyph unicode="&#xa3;" horiz-adv-x="1329" d="M616 274q55 -37 126 -65.5t138.5 -45t112.5 -16.5q66 0 111 37t68.5 97.5t23.5 128.5q0 27 -2 59.5t-6 52.5l49 10q6 -27 8 -64.5t2 -53.5q0 -86 -15 -169t-75 -147q-45 -45 -89 -78.5t-110 -33.5q-125 0 -215 36.5t-145 81.5q-100 66 -177 99t-118 33q-68 0 -110.5 -42 t-66.5 -100.5t-40 -105.5l-41 35q8 98 78 215q35 57 90 89.5t102 80.5q31 31 55.5 96t43.5 143q-53 -2 -107.5 -3t-109.5 -3l16 92q66 -2 114 -4t103 -6q10 53 16 102q35 266 157 422t339 156q78 0 142.5 -38t64.5 -122q0 -61 -23.5 -88t-47.5 -32l-23 -5q-35 0 -54.5 16.5 t-19.5 73.5q0 49 -38 87t-91 38q-82 0 -128 -55t-69.5 -145.5t-40 -198t-41.5 -209.5l365 12l-8 -98q-92 2 -153.5 4t-113 3t-110.5 3q-6 -14 -10 -28q-16 -61 -52 -114.5t-75 -91.5t-72 -55l6 -12q82 0 141.5 -18.5t76.5 -27.5z" />
<glyph unicode="&#xa4;" horiz-adv-x="1208" d="M250 1087l98 -98q111 84 256 84q141 0 256 -84l98 98l97 -96l-101 -100q47 -51 66.5 -110.5t19.5 -139.5q0 -76 -19.5 -134t-66.5 -118l101 -100l-92 -92l-99 98q-57 -45 -117.5 -65.5t-142.5 -20.5t-142.5 20.5t-117.5 65.5l-98 -98l-92 92l100 100q-45 59 -65.5 117.5 t-20.5 134.5q0 80 20.5 139.5t65.5 110.5l-100 100zM610 952q-88 0 -161.5 -42t-116.5 -111.5t-43 -155.5t43 -157.5t114.5 -113.5t157.5 -42q88 0 159 42t114 112.5t43 156.5q0 84 -43 154.5t-113 113.5t-154 43z" />
<glyph unicode="&#xa5;" horiz-adv-x="1275" d="M512 612l-31 62h-293l15 82h237l-233 461q-35 70 -75 89t-101 27v58l14 14h297l289 -666l9 -9t15 -7q6 0 29 31.5t53.5 82t61.5 105.5q6 10 36.5 63.5t72.5 125t84 141t69 112.5l174 35l8 -37q-141 -184 -250.5 -329.5t-212.5 -296.5h269l-13 -82h-311q-14 -23 -31 -47 l4 -142h355l-13 -82h-340l13 -366l-185 -60l-22 19q2 102 4 203.5t2 203.5h-319l14 82h305v64.5v62.5z" />
<glyph unicode="&#xa6;" horiz-adv-x="425" d="M254 686l-82 -16v825l82 16v-825zM254 -326l-82 -16v825l82 17v-826z" />
<glyph unicode="&#xa7;" horiz-adv-x="952" d="M72 47l143 55l16 -10q4 -104 69 -181t173 -77q63 0 111.5 37t76 97.5t27.5 129.5q0 63 -38 106.5t-103.5 79t-149.5 76.5q-88 39 -154.5 82t-103.5 102.5t-37 147.5q0 72 30 136.5t69 121.5q-8 31 -14.5 61.5t-6.5 63.5q0 100 43 181t122 130.5t183 49.5 q51 0 106.5 -14.5t95.5 -49.5t40 -98q0 -10 -4 -33.5t-8 -42.5l-121 -43l-31 23q0 92 -35.5 144t-103.5 52q-78 0 -124 -67.5t-46 -157.5q0 -76 37 -118t100.5 -72.5t138.5 -75.5q49 -27 102.5 -53.5t99.5 -58.5t76 -77t30 -110q0 -160 -107 -279q20 -33 28.5 -71.5 t8.5 -79.5q0 -100 -50 -185.5t-133 -136.5t-186 -51q-82 0 -163.5 24.5t-139 83t-67.5 158.5zM745 340l7 8q20 29 28 61.5t8 65.5q0 45 -21.5 82t-51.5 68q-39 41 -106.5 73.5t-142.5 64.5t-139.5 65.5t-95.5 76.5q-20 -27 -34.5 -65.5t-14.5 -75.5q0 -66 45 -116t116 -90 t148.5 -73.5t146 -68.5t107.5 -76z" />
<glyph unicode="&#xa8;" horiz-adv-x="1064" d="M860 1219q-2 -51 -38 -83t-85 -32t-84 35t-35 84q0 53 43 83.5t88 30.5q53 0 82 -35.5t29 -82.5zM446 1219q-2 -51 -38 -83t-85 -32t-84 35t-35 84q0 53 43 83.5t88 30.5q53 0 82 -35.5t29 -82.5z" />
<glyph unicode="&#xa9;" horiz-adv-x="1294" d="M92 895q0 115 43 216t119 177t177 119t216 43t216.5 -43t177 -119t118.5 -177t43 -216t-43 -216t-118.5 -177t-177 -119t-216.5 -43t-216 43t-177 119t-119 177t-43 216zM143 895q0 -139 68 -254t182.5 -182.5t253.5 -67.5t254 67.5t182.5 182.5t67.5 254t-67.5 254 t-182.5 182.5t-254 67.5t-253.5 -67.5t-182.5 -182.5t-68 -254zM920 1094h-17q-31 70 -88 101.5t-133 31.5q-55 0 -109.5 -16.5t-95.5 -51.5q-55 -47 -75.5 -116.5t-20.5 -137.5q0 -70 34 -137.5t64 -91.5q51 -43 98.5 -64.5t122.5 -21.5q63 0 121 20.5t109 48.5l20 -28 q-66 -37 -139.5 -65.5t-153.5 -28.5q-74 0 -144.5 17t-123.5 60q-63 53 -91 125t-28 148q0 74 24.5 145.5t88.5 124.5q68 55 157 83t185 28q80 0 148.5 -24.5t115.5 -90.5z" />
<glyph unicode="&#xaa;" horiz-adv-x="749" d="M551 1126l80 41l8 -6q-4 -74 -7 -148.5t-3 -148.5q0 -39 2 -77.5t2 -77.5q0 -25 8 -55.5t47 -30.5q16 0 45 8t53 16l11 -33q-45 -25 -100.5 -51t-90.5 -26q-41 0 -59.5 23.5t-24.5 55.5l-22 5q-55 -33 -118 -58.5t-128 -25.5q-82 0 -131 40.5t-70.5 102t-21.5 121.5 q0 94 36.5 179t116.5 139.5t205 54.5q35 0 81 -12.5t81 -35.5zM518 684v307q0 27 -3 51.5t-21 40.5q-20 18 -46 30.5t-55 12.5q-82 0 -145 -51q-27 -20 -52.5 -76.5t-27.5 -158.5q-2 -41 7 -83t36 -77q25 -33 65.5 -44t81.5 -11q45 0 86 19.5t74 39.5z" />
<glyph unicode="&#xab;" horiz-adv-x="851" d="M336 487l393 385l64 -94l-306 -299l308 -348l-29 -57zM25 487l393 385l63 -94l-305 -299l307 -348l-28 -57z" />
<glyph unicode="&#xac;" horiz-adv-x="1591" d="M1352 838v-416h-82v334h-1153v82h1235z" />
<glyph unicode="&#xad;" />
<glyph unicode="&#xae;" horiz-adv-x="1294" d="M92 895q0 115 43 216t119 177t177 119t216 43t216.5 -43t177 -119t118.5 -177t43 -216t-43 -216t-118.5 -177t-177 -119t-216.5 -43t-216 43t-177 119t-119 177t-43 216zM143 895q0 -139 68 -254t182.5 -182.5t253.5 -67.5t254 67.5t182.5 182.5t67.5 254t-67.5 254 t-182.5 182.5t-254 67.5t-253.5 -67.5t-182.5 -182.5t-68 -254zM670 893l-2 -8l323 -303v-11l-123 -26q-57 61 -120.5 129.5t-114.5 122t-70 67.5q-6 4 -12 6t-12 2q0 -74 1 -147.5t5 -146.5l-103 -31l-12 10q8 111 9 223.5t1 223.5q0 8 -1 39.5t-2 69.5t-1 67 q0 16 -21.5 26.5t-44 14.5t-28.5 4l2 16l8 8h332q109 0 179.5 -34.5t70.5 -108.5q0 -106 -76.5 -154.5t-187.5 -58.5zM537 932q0 -14 12 -14q68 0 128 17t99 55t39 100q0 51 -32.5 76.5t-81 33.5t-93.5 8h-49q-14 0 -14 -26q-2 -25 -3 -66t-2 -83t-2 -70.5t-1 -30.5z" />
<glyph unicode="&#xaf;" horiz-adv-x="1064" d="M768 1137h-484l15 82h481z" />
<glyph unicode="&#xb0;" horiz-adv-x="679" d="M141 1178q0 84 58.5 141t140.5 57q84 0 141.5 -57t57.5 -141q0 -82 -57.5 -140.5t-141.5 -58.5q-82 0 -140.5 58.5t-58.5 140.5zM203 1178q0 -57 40 -97.5t97 -40.5t97 40t40 98q0 57 -40 97t-97 40t-97 -40t-40 -97z" />
<glyph unicode="&#xb1;" horiz-adv-x="1562" d="M817 565h641l-10 -82h-631v-555h643l-12 -82h-1348l15 82h620v555h-635l15 82h620v623l82 12v-635z" />
<glyph unicode="&#xb2;" horiz-adv-x="622" d="M639 659l-35 -104h-657v23q66 59 128 117.5t122 119.5q59 61 112 126t87 136.5t34 151.5q0 37 -16.5 78t-53 69.5t-98.5 28.5q-61 0 -113.5 -26.5t-95.5 -59.5l-28 27q61 59 142 104t175 45q96 0 161.5 -58.5t65.5 -148.5q0 -70 -40 -146.5t-102 -155.5t-136 -155.5 t-141 -146.5q-2 -2 -3 -4q0 -10 19 -10h465z" />
<glyph unicode="&#xb3;" horiz-adv-x="612" d="M295 1061v-10q139 -10 224 -59.5t85 -151.5q0 -92 -58.5 -162t-150.5 -109t-190 -39q-129 0 -236 74l-10 14l64 97h16q37 -51 87 -91t118 -40q100 0 159.5 64.5t59.5 152.5q0 43 -21.5 82t-54.5 69q-45 41 -122 50.5t-144 9.5v35q135 29 212 82t77 143q0 61 -47.5 96 t-116.5 35q-45 0 -93.5 -22.5t-91.5 -47.5l-20 29q59 45 131 85t141 40q88 0 153.5 -44t65.5 -134q0 -94 -69.5 -158.5t-167.5 -89.5z" />
<glyph unicode="&#xb4;" horiz-adv-x="1064" d="M498 1044l-37 64l246 322l26 4l97 -74z" />
<glyph unicode="&#xb5;" horiz-adv-x="1396" d="M1008 954l16 -22q-4 -63 -8 -134t-4 -118v-342q0 -35 6 -83t29.5 -84t70.5 -36q35 0 78 22.5t80 45.5l22 -4l17 -29q-41 -39 -92.5 -79t-106.5 -66.5t-112 -26.5q-80 0 -106 39t-36 102l-16 11q-59 -33 -127 -70t-132.5 -61.5t-115.5 -24.5q-49 0 -74.5 15.5t-52.5 45.5 l-12 -4q0 -100 9 -210.5t30 -207.5l-109 -41l-24 13q4 141 6 282.5t2 282.5v387q0 57 -7.5 126t-15.5 127t-12 83l170 53l18 -14v-551q0 -57 11.5 -118.5t52.5 -103.5t127 -42q55 0 131 34.5t131 94.5q2 49 3 108.5t2 110.5t1 72q0 90 -2 177t-6 175z" />
<glyph unicode="&#xb6;" horiz-adv-x="927" d="M602 27q0 78 3 162.5t5 162.5t4 134.5t2 74.5q0 20 -36.5 27.5t-82.5 8.5t-77 3q-131 10 -212 71.5t-117 147.5t-32 172q6 109 70 202t176.5 150.5t263.5 53.5l308 -6l14 -15v-37q-57 -8 -102.5 -28.5t-49.5 -81.5q-4 -90 -7 -181.5t-3 -181.5q0 -217 6 -433t8 -431 l-14 -14z" />
<glyph unicode="&#xb7;" horiz-adv-x="557" d="M141 526q0 57 40 97.5t98 40.5q57 0 97 -40t40 -98q0 -57 -40 -97t-97 -40t-97.5 40t-40.5 97z" />
<glyph unicode="&#xb8;" horiz-adv-x="1064" d="M491 12h74l-41 -96q20 -8 69.5 -33.5t77.5 -60.5q35 -43 44.5 -96.5t-31.5 -108.5q-33 -45 -88.5 -73.5t-118 -46t-117.5 -27.5l-12 30l10 21q41 16 84 37.5t63 48.5q29 39 12.5 71.5t-55.5 57t-77 35.5z" />
<glyph unicode="&#xb9;" horiz-adv-x="364" d="M266 1501l10 -16q-6 -88 -8 -177t-2 -180v-198.5t1 -202.5t3 -145l-127 -35l-18 6q4 139 8 278.5t4 278.5q0 76 2 133t-11 91t-60 34h-125v35z" />
<glyph unicode="&#xba;" horiz-adv-x="729" d="M326 535q-102 0 -165 38.5t-92.5 103t-35.5 136.5q0 70 14 139.5t68 120.5q53 53 130 75.5t154 22.5q53 0 104.5 -10t90.5 -43q57 -45 79.5 -113.5t22.5 -134.5q0 -63 -18.5 -126.5t-67.5 -112.5q-53 -51 -129.5 -73.5t-154.5 -22.5zM174 973q-12 -49 -12 -103 q0 -55 16.5 -120.5t61.5 -112.5t127 -47t123.5 41t57 100.5t15.5 114.5t-14 118.5t-56 109.5t-128 46q-59 0 -115 -37.5t-76 -109.5z" />
<glyph unicode="&#xbb;" horiz-adv-x="851" d="M516 487l-430 -413l-29 57l308 348l-306 299l64 94zM827 487l-430 -413l-28 57l307 348l-305 299l63 94z" />
<glyph unicode="&#xbc;" horiz-adv-x="1617" d="M1257 1423l7 -22l-895 -1409l-64 26v29l887 1393l22 2zM367 1440l10 -17q-12 -162 -12 -327q0 -84 1 -183.5t2 -186.5t3 -134l-125 -35l-17 6q6 127 8.5 257t2.5 259q0 70 1 123t-12.5 84t-58.5 31h-123v33zM1368 860l12 -6q0 -12 -1 -73.5t-2 -147.5t-1 -176v-162 l13 -10h139l6 -9l-25 -47h-120l-13 -8q0 -49 2 -109.5t4 -80.5l-118 -41l-7 6q6 33 6.5 99.5t0.5 123.5l-11 10h-417v56l421 532zM1264 295v420q0 10 -7 10q-4 0 -8 -4q-39 -35 -71.5 -77t-65.5 -83l-50 -67.5t-59.5 -82.5t-50 -75t-20.5 -43l6 -8h317z" />
<glyph unicode="&#xbd;" horiz-adv-x="1617" d="M1249 1423l6 -22l-895 -1409l-63 26v29l887 1393l22 2zM367 1440l10 -17q-12 -162 -12 -327q0 -84 1 -183.5t2 -186.5t3 -134l-125 -35l-17 6q6 127 8.5 257t2.5 259q0 70 1 123t-12.5 84t-58.5 31h-123v33zM1534 96l-35 -96h-645v20q63 53 125.5 107.5t120.5 112.5 q57 57 110.5 117.5t87 127t33.5 138.5q0 35 -16.5 72.5t-53 63t-98.5 25.5q-61 0 -110 -24.5t-92 -52.5l-29 22q59 53 138 96t173 43q96 0 159.5 -53t63.5 -137q0 -66 -38.5 -137.5t-101 -144t-134.5 -143.5t-137 -134l-4 -4q0 -6 7 -7.5t13 -1.5h455z" />
<glyph unicode="&#xbe;" horiz-adv-x="1617" d="M1339 1423l7 -22l-895 -1409l-64 26v29l887 1393l22 2zM367 1038v-10q145 -10 223 -57t78 -137q0 -84 -56.5 -148.5t-145.5 -100.5t-187 -36q-129 0 -232 67l-8 13l61 90h15q35 -47 85 -84t115 -37q100 0 157.5 60.5t57.5 140.5q0 39 -20.5 75.5t-50.5 63.5 q-43 39 -121 47t-143 8l2 33q133 27 206.5 75t73.5 132q0 59 -48 90t-112 31q-45 0 -92 -20.5t-88 -43.5l-20 27q57 39 127.5 77t140.5 38q86 0 150.5 -41t64.5 -123q0 -88 -68.5 -147.5t-164.5 -82.5zM1368 860l12 -6q0 -12 -1 -73.5t-2 -147.5t-1 -176v-162l13 -10h139 l6 -9l-25 -47h-120l-13 -8q0 -49 2 -109.5t4 -80.5l-118 -41l-7 6q6 33 6.5 99.5t0.5 123.5l-11 10h-417v56l421 532zM1264 295v420q0 10 -7 10q-4 0 -8 -4q-39 -35 -71.5 -77t-65.5 -83l-50 -67.5t-59.5 -82.5t-50 -75t-20.5 -43l6 -8h317z" />
<glyph unicode="&#xbf;" horiz-adv-x="722" d="M555 905q0 -47 -34 -82t-81 -35q-49 0 -83.5 35t-34.5 82t34.5 82t83.5 35q47 0 81 -35t34 -82zM391 567l94 66q35 -20 60.5 -59t25.5 -87q0 -31 -16 -59.5t-37 -52.5q-49 -63 -106.5 -116.5t-109.5 -107t-85 -118t-33 -150.5q0 -55 29 -109.5t75 -91t97 -36.5 q59 0 112.5 39t53.5 108q0 37 -18.5 70t-47.5 55l138 82q29 -25 43 -62.5t14 -78.5q0 -63 -36 -114.5t-92 -88.5t-121.5 -56.5t-127.5 -19.5q-117 0 -190.5 72t-73.5 190q0 51 17.5 94.5t43.5 88.5q37 61 94.5 115.5t115 104.5t97 98t39.5 95q0 66 -55 107v22z" />
<glyph unicode="&#xc0;" horiz-adv-x="1478" d="M1053 156l-111 385q-8 18 -22 18h-461q-12 0 -21 -16l-239 -508l-187 -39l-6 20q182 307 357.5 620.5t336.5 633.5q2 6 2 14q0 4 -5 12.5t-19 10.5l-184 30v56h397q16 -84 48 -212t71 -268.5t71 -263.5q35 -125 77 -260t97 -227q20 -33 55.5 -47.5t75.5 -14.5 q23 0 45.5 2t43.5 4l2 -53l-213 -61q-45 -12 -93 -12q-51 0 -75.5 54t-42.5 122zM737 1171l-237 -499q-2 -2 -2 -9.5v-9.5q0 -14 14 -14h385q14 0 14 14l-2 9q-2 8 -2 10l-143 499q-4 8 -14 9q-13 -1 -13 -9zM787 1493l-332 315l96 74l27 -4l245 -322z" />
<glyph unicode="&#xc1;" horiz-adv-x="1478" d="M1053 156l-111 385q-8 18 -22 18h-461q-12 0 -21 -16l-239 -508l-187 -39l-6 20q182 307 357.5 620.5t336.5 633.5q2 6 2 14q0 4 -5 12.5t-19 10.5l-184 30v56h397q16 -84 48 -212t71 -268.5t71 -263.5q35 -125 77 -260t97 -227q20 -33 55.5 -47.5t75.5 -14.5 q23 0 45.5 2t43.5 4l2 -53l-213 -61q-45 -12 -93 -12q-51 0 -75.5 54t-42.5 122zM737 1171l-237 -499q-2 -2 -2 -9.5v-9.5q0 -14 14 -14h385q14 0 14 14l-2 9q-2 8 -2 10l-143 499q-4 8 -14 9q-13 -1 -13 -9zM727 1490l-37 64l246 322l26 4l97 -74z" />
<glyph unicode="&#xc2;" horiz-adv-x="1478" d="M1053 156l-111 385q-8 18 -22 18h-461q-12 0 -21 -16l-239 -508l-187 -39l-6 20q182 307 357.5 620.5t336.5 633.5q2 6 2 14q0 4 -5 12.5t-19 10.5l-184 30v56h397q16 -84 48 -212t71 -268.5t71 -263.5q35 -125 77 -260t97 -227q20 -33 55.5 -47.5t75.5 -14.5 q23 0 45.5 2t43.5 4l2 -53l-213 -61q-45 -12 -93 -12q-51 0 -75.5 54t-42.5 122zM737 1171l-237 -499q-2 -2 -2 -9.5v-9.5q0 -14 14 -14h385q14 0 14 14l-2 9q-2 8 -2 10l-143 499q-4 8 -14 9q-13 -1 -13 -9zM733 1863l322 -327l-80 -54l-248 254l-293 -268l-47 25z" />
<glyph unicode="&#xc3;" horiz-adv-x="1478" d="M1053 156l-111 385q-8 18 -22 18h-461q-12 0 -21 -16l-239 -508l-187 -39l-6 20q182 307 357.5 620.5t336.5 633.5q2 6 2 14q0 4 -5 12.5t-19 10.5l-184 30v56h397q16 -84 48 -212t71 -268.5t71 -263.5q35 -125 77 -260t97 -227q20 -33 55.5 -47.5t75.5 -14.5 q23 0 45.5 2t43.5 4l2 -53l-213 -61q-45 -12 -93 -12q-51 0 -75.5 54t-42.5 122zM737 1171l-237 -499q-2 -2 -2 -9.5v-9.5q0 -14 14 -14h385q14 0 14 14l-2 9q-2 8 -2 10l-143 499q-4 8 -14 9q-13 -1 -13 -9zM717 1716l96 -43q23 -8 46.5 -14.5t47.5 -4.5q37 4 53.5 24.5 t30.5 55.5l27 -10q-2 -29 -16.5 -71t-39 -74.5t-57.5 -36.5t-66.5 3t-64.5 21l-129 62q-23 10 -49.5 16t-52.5 2q-37 -4 -56.5 -25.5t-37.5 -72.5l-29 10q8 37 24.5 82t42 80t60.5 39q41 6 86 -9.5t84 -33.5z" />
<glyph unicode="&#xc4;" horiz-adv-x="1478" d="M1053 156l-111 385q-8 18 -22 18h-461q-12 0 -21 -16l-239 -508l-187 -39l-6 20q182 307 357.5 620.5t336.5 633.5q2 6 2 14q0 4 -5 12.5t-19 10.5l-184 30v56h397q16 -84 48 -212t71 -268.5t71 -263.5q35 -125 77 -260t97 -227q20 -33 55.5 -47.5t75.5 -14.5 q23 0 45.5 2t43.5 4l2 -53l-213 -61q-45 -12 -93 -12q-51 0 -75.5 54t-42.5 122zM737 1171l-237 -499q-2 -2 -2 -9.5v-9.5q0 -14 14 -14h385q14 0 14 14l-2 9q-2 8 -2 10l-143 499q-4 8 -14 9q-13 -1 -13 -9zM1048 1665q-2 -51 -38 -83t-85 -32t-84 35t-35 84q0 53 43 83.5 t88 30.5q53 0 82 -35.5t29 -82.5zM634 1665q-2 -51 -38 -83t-85 -32t-84 35t-35 84q0 53 43 83.5t88 30.5q53 0 82 -35.5t29 -82.5z" />
<glyph unicode="&#xc5;" horiz-adv-x="1478" d="M1053 156l-111 385q-8 18 -22 18h-461q-12 0 -21 -16l-239 -508l-187 -39l-6 20q182 307 357.5 620.5t336.5 633.5q2 6 2 14q0 4 -5 12.5t-19 10.5l-184 30v56h397q16 -84 48 -212t71 -268.5t71 -263.5q35 -125 77 -260t97 -227q20 -33 55.5 -47.5t75.5 -14.5 q23 0 45.5 2t43.5 4l2 -53l-213 -61q-45 -12 -93 -12q-51 0 -75.5 54t-42.5 122zM737 1171l-237 -499q-2 -2 -2 -9.5v-9.5q0 -14 14 -14h385q14 0 14 14l-2 9q-2 8 -2 10l-143 499q-4 8 -14 9q-13 -1 -13 -9zM563 1543q0 84 58.5 141t140.5 57q84 0 141.5 -57t57.5 -141 q0 -82 -57.5 -140.5t-141.5 -58.5q-82 0 -140.5 58.5t-58.5 140.5zM625 1543q0 -57 40 -97.5t97 -40.5t97 40t40 98q0 57 -40 97t-97 40t-97 -40t-40 -97z" />
<glyph unicode="&#xc6;" horiz-adv-x="1632" d="M750 559h-291q-12 0 -21 -16l-239 -508l-187 -39l-6 20q182 307 358.5 622.5t337.5 635.5q2 6 3 14q0 4 -5.5 12.5t-19.5 10.5l-186 30v56h397q72 0 160 3l176 6t159 3h51.5t43.5 -2l-4 -102l-9 -15q-53 4 -123.5 7t-138 6.5t-113.5 5.5t-53 2h-82q-31 -6 -40 -54.5 t-9 -101.5v-340q0 -27 39 -28t96 -1q82 0 184.5 4.5t184.5 10.5l12 -15l-12 -98q-59 4 -120.5 8t-121.5 4h-120.5t-102.5 -6t-41 -24v-285q0 -57 5.5 -123.5t25.5 -105.5q23 -39 62.5 -52.5t134.5 -13.5q37 0 69.5 1t79.5 3t126 8.5t204 16.5l10 -10l-27 -109h-794 q-31 16 -42 55t-11 80v424zM750 1163q0 14 -4.5 15.5t-8.5 -7.5l-237 -499q-2 -2 -2 -9.5v-9.5q0 -14 14 -14h238v524z" />
<glyph unicode="&#xc7;" horiz-adv-x="1296" d="M1161 1081l-28 2q-51 139 -145.5 202t-221.5 63q-139 0 -235.5 -55.5t-156 -149.5t-86 -208t-26.5 -230q0 -94 27.5 -186.5t66.5 -164t72 -106.5q84 -84 163 -127t204 -43q104 0 200.5 40t182.5 97l34 -59q-111 -76 -233.5 -131.5t-255.5 -55.5q-121 0 -239.5 32 t-207.5 120q-106 109 -151 253t-45 294q0 147 40 290.5t146 249.5q113 113 261.5 168.5t308.5 55.5q135 0 248.5 -50.5t193.5 -181.5zM690 12h74l-41 -96q20 -8 69.5 -33.5t77.5 -60.5q35 -43 44.5 -96.5t-31.5 -108.5q-33 -45 -88.5 -73.5t-118 -46t-117.5 -27.5l-12 30 l10 21q41 16 84 37.5t63 48.5q29 39 12.5 71.5t-55.5 57t-77 35.5z" />
<glyph unicode="&#xc8;" horiz-adv-x="1060" d="M842 688q-59 4 -121 8t-121 4h-120.5t-102.5 -6t-41 -24v-285q0 -57 5 -123.5t26 -105.5q23 -39 62.5 -52.5t133.5 -13.5q37 0 70 1t80 3t126 8.5t203 16.5l11 -10l-27 -109h-795q-31 16 -42 55t-11 80v1008q0 23 -2 61.5t-16 69.5q-8 20 -46 37.5t-110 27.5l-2 41l14 15 l303 2q72 0 160 3l176 6t160 3h51.5t42.5 -2l-4 -102l-8 -15q-53 4 -124 7t-138.5 6.5t-113.5 5.5t-52 2h-82q-31 -6 -40 -54.5t-9 -101.5v-340q0 -27 39 -28t96 -1q82 0 184.5 4.5t184.5 10.5l12 -15zM619 1500l-332 315l96 74l27 -4l245 -322z" />
<glyph unicode="&#xc9;" horiz-adv-x="1060" d="M842 688q-59 4 -121 8t-121 4h-120.5t-102.5 -6t-41 -24v-285q0 -57 5 -123.5t26 -105.5q23 -39 62.5 -52.5t133.5 -13.5q37 0 70 1t80 3t126 8.5t203 16.5l11 -10l-27 -109h-795q-31 16 -42 55t-11 80v1008q0 23 -2 61.5t-16 69.5q-8 20 -46 37.5t-110 27.5l-2 41l14 15 l303 2q72 0 160 3l176 6t160 3h51.5t42.5 -2l-4 -102l-8 -15q-53 4 -124 7t-138.5 6.5t-113.5 5.5t-52 2h-82q-31 -6 -40 -54.5t-9 -101.5v-340q0 -27 39 -28t96 -1q82 0 184.5 4.5t184.5 10.5l12 -15zM457 1497l-37 64l246 322l26 4l97 -74z" />
<glyph unicode="&#xca;" horiz-adv-x="1060" d="M842 688q-59 4 -121 8t-121 4h-120.5t-102.5 -6t-41 -24v-285q0 -57 5 -123.5t26 -105.5q23 -39 62.5 -52.5t133.5 -13.5q37 0 70 1t80 3t126 8.5t203 16.5l11 -10l-27 -109h-795q-31 16 -42 55t-11 80v1008q0 23 -2 61.5t-16 69.5q-8 20 -46 37.5t-110 27.5l-2 41l14 15 l303 2q72 0 160 3l176 6t160 3h51.5t42.5 -2l-4 -102l-8 -15q-53 4 -124 7t-138.5 6.5t-113.5 5.5t-52 2h-82q-31 -6 -40 -54.5t-9 -101.5v-340q0 -27 39 -28t96 -1q82 0 184.5 4.5t184.5 10.5l12 -15zM565 1870l322 -327l-80 -54l-248 254l-293 -268l-47 25z" />
<glyph unicode="&#xcb;" horiz-adv-x="1060" d="M842 688q-59 4 -121 8t-121 4h-120.5t-102.5 -6t-41 -24v-285q0 -57 5 -123.5t26 -105.5q23 -39 62.5 -52.5t133.5 -13.5q37 0 70 1t80 3t126 8.5t203 16.5l11 -10l-27 -109h-795q-31 16 -42 55t-11 80v1008q0 23 -2 61.5t-16 69.5q-8 20 -46 37.5t-110 27.5l-2 41l14 15 l303 2q72 0 160 3l176 6t160 3h51.5t42.5 -2l-4 -102l-8 -15q-53 4 -124 7t-138.5 6.5t-113.5 5.5t-52 2h-82q-31 -6 -40 -54.5t-9 -101.5v-340q0 -27 39 -28t96 -1q82 0 184.5 4.5t184.5 10.5l12 -15zM880 1672q-2 -51 -38 -83t-85 -32t-84 35t-35 84q0 53 43 83.5t88 30.5 q53 0 82 -35.5t29 -82.5zM466 1672q-2 -51 -38 -83t-85 -32t-84 35t-35 84q0 53 43 83.5t88 30.5q53 0 82 -35.5t29 -82.5z" />
<glyph unicode="&#xcc;" horiz-adv-x="573" d="M559 -2h-543v53q76 14 113 27.5t50.5 35t15.5 59.5t4 101v744q0 59 -1 118.5t-5 116.5q-2 31 -13.5 42.5t-49.5 19.5t-120 26v45l15 13h512l12 -13v-43l-137 -30q-41 -10 -45 -53q-8 -59 -9.5 -152.5t0.5 -193t2 -179.5q0 -102 1 -198.5t4 -190.5q2 -43 -0.5 -101.5 t10 -104.5t55.5 -58q23 -6 53.5 -14.5t54.5 -14.5l25 -6zM347 1500l-332 315l96 74l27 -4l245 -322z" />
<glyph unicode="&#xcd;" horiz-adv-x="573" d="M559 -2h-543v53q76 14 113 27.5t50.5 35t15.5 59.5t4 101v744q0 59 -1 118.5t-5 116.5q-2 31 -13.5 42.5t-49.5 19.5t-120 26v45l15 13h512l12 -13v-43l-137 -30q-41 -10 -45 -53q-8 -59 -9.5 -152.5t0.5 -193t2 -179.5q0 -102 1 -198.5t4 -190.5q2 -43 -0.5 -101.5 t10 -104.5t55.5 -58q23 -6 53.5 -14.5t54.5 -14.5l25 -6zM185 1497l-37 64l246 322l26 4l97 -74z" />
<glyph unicode="&#xce;" horiz-adv-x="573" d="M559 -2h-543v53q76 14 113 27.5t50.5 35t15.5 59.5t4 101v744q0 59 -1 118.5t-5 116.5q-2 31 -13.5 42.5t-49.5 19.5t-120 26v45l15 13h512l12 -13v-43l-137 -30q-41 -10 -45 -53q-8 -59 -9.5 -152.5t0.5 -193t2 -179.5q0 -102 1 -198.5t4 -190.5q2 -43 -0.5 -101.5 t10 -104.5t55.5 -58q23 -6 53.5 -14.5t54.5 -14.5l25 -6zM293 1870l322 -327l-80 -54l-248 254l-293 -268l-47 25z" />
<glyph unicode="&#xcf;" horiz-adv-x="573" d="M559 -2h-543v53q76 14 113 27.5t50.5 35t15.5 59.5t4 101v744q0 59 -1 118.5t-5 116.5q-2 31 -13.5 42.5t-49.5 19.5t-120 26v45l15 13h512l12 -13v-43l-137 -30q-41 -10 -45 -53q-8 -59 -9.5 -152.5t0.5 -193t2 -179.5q0 -102 1 -198.5t4 -190.5q2 -43 -0.5 -101.5 t10 -104.5t55.5 -58q23 -6 53.5 -14.5t54.5 -14.5l25 -6zM609 1672q-2 -51 -38 -83t-85 -32t-84 35t-35 84q0 53 43 83.5t88 30.5q53 0 82 -35.5t29 -82.5zM195 1672q-2 -51 -38 -83t-85 -32t-84 35t-35 84q0 53 43 83.5t88 30.5q53 0 82 -35.5t29 -82.5z" />
<glyph unicode="&#xd0;" horiz-adv-x="1527" d="M150 4v21q31 23 37 51t8 86v534h-156l14 82h142v396q0 25 -1 49t-4 47q-2 27 -28.5 41t-62.5 22t-62 17v39l14 16h641q238 0 386.5 -45t227 -127t108.5 -195.5t30 -249.5q0 -195 -42 -335t-161 -267q-68 -74 -173 -113.5t-222 -54t-223 -14.5h-473zM643 696h-276v-348 q2 -41 4 -91t10 -91t22 -57q20 -20 70.5 -23.5t91.5 -3.5q207 0 341 58.5t210 157.5t105.5 222t29.5 252q0 63 -13 143t-46 159t-90 136q-74 72 -222.5 91.5t-349.5 19.5q-66 0 -95 -2t-40 -6q-10 -4 -16 -7t-9 -29t-3 -99v-400h288z" />
<glyph unicode="&#xd1;" horiz-adv-x="1499" d="M1346 1421l12 -16q-20 -348 -25.5 -702.5t-5.5 -702.5h-74q-35 41 -62.5 73.5t-74.5 90.5l-325 405q-156 195 -280 338.5t-200 229.5q-4 6 -10 12t-12 6q-10 0 -12.5 -13.5t-2.5 -21.5q0 -98 4.5 -227t11.5 -272.5t16 -290t18 -279.5l-144 -61l-18 18q12 244 19 487.5 t7 485.5q0 66 -1 132.5t-1 131.5q0 23 -3 35t-37.5 26.5t-133.5 36.5l-8 56l16 14h332q102 -135 213 -280.5t221.5 -288t215 -268t194.5 -222.5l10 -10t13 -6q8 0 10 7t2 9q0 78 -2 163t-7 198.5t-14.5 276.5t-25.5 397zM805 1723l96 -43q23 -8 46.5 -14.5t47.5 -4.5 q37 4 53.5 24.5t30.5 55.5l27 -10q-2 -29 -16.5 -71t-39 -74.5t-57.5 -36.5t-66.5 3t-64.5 21l-129 62q-23 10 -49.5 16t-52.5 2q-37 -4 -56.5 -25.5t-37.5 -72.5l-29 10q8 37 24.5 82t42 80t60.5 39q41 6 86 -9.5t84 -33.5z" />
<glyph unicode="&#xd2;" horiz-adv-x="1509" d="M84 651q0 199 47 339t160 263q66 70 153.5 109t187 55.5t193.5 16.5q115 0 229.5 -36t196.5 -120q63 -63 101.5 -152.5t54.5 -186.5t16 -194q0 -100 -11 -204.5t-73 -229.5q-49 -100 -149 -179t-236.5 -124t-298.5 -45q-158 0 -267 59.5t-176 159t-97.5 221t-30.5 248.5z M274 713q0 -143 34 -273.5t128 -234.5q92 -102 180.5 -130t147.5 -28q127 0 216 56.5t144.5 149.5t81 206.5t25.5 228.5q0 109 -25.5 225.5t-81 216t-145.5 161t-219 61.5q-133 0 -225.5 -55.5t-149.5 -147.5t-84 -205.5t-27 -230.5zM846 1520l-332 315l96 74l27 -4 l245 -322z" />
<glyph unicode="&#xd3;" horiz-adv-x="1544" d="M809 1564l-37 64l246 322l26 4l97 -74zM84 651q0 199 47 339t160 263q66 70 153.5 109t187 55.5t193.5 16.5q115 0 229.5 -36t196.5 -120q63 -63 101.5 -152.5t54.5 -186.5t16 -194q0 -100 -11 -204.5t-73 -229.5q-49 -100 -149 -179t-236.5 -124t-298.5 -45 q-158 0 -267 59.5t-176 159t-97.5 221t-30.5 248.5zM274 713q0 -143 34 -273.5t128 -234.5q92 -102 180.5 -130t147.5 -28q127 0 216 56.5t144.5 149.5t81 206.5t25.5 228.5q0 109 -25.5 225.5t-81 216t-145.5 161t-219 61.5q-133 0 -225.5 -55.5t-149.5 -147.5t-84 -205.5 t-27 -230.5z" />
<glyph unicode="&#xd4;" horiz-adv-x="1509" d="M84 651q0 199 47 339t160 263q66 70 153.5 109t187 55.5t193.5 16.5q115 0 229.5 -36t196.5 -120q63 -63 101.5 -152.5t54.5 -186.5t16 -194q0 -100 -11 -204.5t-73 -229.5q-49 -100 -149 -179t-236.5 -124t-298.5 -45q-158 0 -267 59.5t-176 159t-97.5 221t-30.5 248.5z M274 713q0 -143 34 -273.5t128 -234.5q92 -102 180.5 -130t147.5 -28q127 0 216 56.5t144.5 149.5t81 206.5t25.5 228.5q0 109 -25.5 225.5t-81 216t-145.5 161t-219 61.5q-133 0 -225.5 -55.5t-149.5 -147.5t-84 -205.5t-27 -230.5zM792 1890l322 -327l-80 -54l-248 254 l-293 -268l-47 25z" />
<glyph unicode="&#xd5;" horiz-adv-x="1509" d="M84 651q0 199 47 339t160 263q66 70 153.5 109t187 55.5t193.5 16.5q115 0 229.5 -36t196.5 -120q63 -63 101.5 -152.5t54.5 -186.5t16 -194q0 -100 -11 -204.5t-73 -229.5q-49 -100 -149 -179t-236.5 -124t-298.5 -45q-158 0 -267 59.5t-176 159t-97.5 221t-30.5 248.5z M274 713q0 -143 34 -273.5t128 -234.5q92 -102 180.5 -130t147.5 -28q127 0 216 56.5t144.5 149.5t81 206.5t25.5 228.5q0 109 -25.5 225.5t-81 216t-145.5 161t-219 61.5q-133 0 -225.5 -55.5t-149.5 -147.5t-84 -205.5t-27 -230.5zM776 1743l96 -43q23 -8 46.5 -14.5 t47.5 -4.5q37 4 53.5 24.5t30.5 55.5l27 -10q-2 -29 -16.5 -71t-39 -74.5t-57.5 -36.5t-66.5 3t-64.5 21l-129 62q-23 10 -49.5 16t-52.5 2q-37 -4 -56.5 -25.5t-37.5 -72.5l-29 10q8 37 24.5 82t42 80t60.5 39q41 6 86 -9.5t84 -33.5z" />
<glyph unicode="&#xd6;" horiz-adv-x="1509" d="M84 651q0 199 47 339t160 263q66 70 153.5 109t187 55.5t193.5 16.5q115 0 229.5 -36t196.5 -120q63 -63 101.5 -152.5t54.5 -186.5t16 -194q0 -100 -11 -204.5t-73 -229.5q-49 -100 -149 -179t-236.5 -124t-298.5 -45q-158 0 -267 59.5t-176 159t-97.5 221t-30.5 248.5z M274 713q0 -143 34 -273.5t128 -234.5q92 -102 180.5 -130t147.5 -28q127 0 216 56.5t144.5 149.5t81 206.5t25.5 228.5q0 109 -25.5 225.5t-81 216t-145.5 161t-219 61.5q-133 0 -225.5 -55.5t-149.5 -147.5t-84 -205.5t-27 -230.5zM1108 1692q-2 -51 -38 -83t-85 -32 t-84 35t-35 84q0 53 43 83.5t88 30.5q53 0 82 -35.5t29 -82.5zM694 1692q-2 -51 -38 -83t-85 -32t-84 35t-35 84q0 53 43 83.5t88 30.5q53 0 82 -35.5t29 -82.5z" />
<glyph unicode="&#xd7;" horiz-adv-x="1234" d="M616 580l453 452l51 -65l-446 -445l438 -440l-47 -68l-449 449l-450 -449l-47 68l438 440l-440 441l49 65z" />
<glyph unicode="&#xd8;" horiz-adv-x="1509" d="M84 651q0 199 47 339t160 263q66 70 153.5 109t187 55.5t193.5 16.5q49 0 100.5 -6.5t98.5 -20.5l90 205l23 4l45 -10l10 -23l-88 -205q86 -39 147 -100q63 -63 101.5 -152.5t54.5 -186.5t16 -194q0 -100 -11 -204.5t-73 -229.5q-49 -100 -149 -179t-237.5 -124 t-297.5 -45q-84 0 -157 19l-103 -234l-65 16l-6 29l94 217q-121 51 -194.5 152.5t-106.5 229.5t-33 259zM274 713q0 -143 34 -273.5t128 -234.5q23 -25 47 -47l492 1134q-45 29 -98.5 44.5t-116.5 15.5q-133 0 -225.5 -55.5t-149.5 -147.5t-84 -205.5t-27 -230.5zM1231 688 q0 96 -19.5 197.5t-60.5 193.5t-109 160l-491 -1133q61 -37 116.5 -48t96.5 -11q127 0 216 56.5t144.5 149.5t81 206.5t25.5 228.5z" />
<glyph unicode="&#xd9;" horiz-adv-x="1458" d="M358 1110l-16 -559q0 -172 49 -268.5t131 -136.5t180 -40q96 0 187.5 36t173.5 85q0 281 3 562.5t5 560.5l180 71l13 -14q-12 -88 -18.5 -207t-9.5 -253t-4 -271t-1 -262q0 -84 4 -156t24.5 -116t69.5 -44q31 0 59.5 7.5t59.5 9.5l8 -35l-10 -14q-51 -16 -112.5 -34 t-115 -30t-85.5 -12q-39 0 -53.5 22.5t-14.5 55v63.5l-16 12q-106 -70 -228.5 -115.5t-249.5 -45.5q-141 0 -219 44t-111.5 109.5t-45.5 124.5q-10 72 -13.5 174.5t-3.5 196.5q0 119 2 239.5t2 239.5v121q0 31 -23.5 51.5t-56 32.5t-61.5 17t-39 5l-4 41l16 15h346l15 -13 q-2 -10 -5 -48t-5.5 -85t-4.5 -86t-2 -51zM818 1500l-332 315l96 74l27 -4l245 -322z" />
<glyph unicode="&#xda;" horiz-adv-x="1458" d="M358 1110l-16 -559q0 -172 49 -268.5t131 -136.5t180 -40q96 0 187.5 36t173.5 85q0 281 3 562.5t5 560.5l180 71l13 -14q-12 -88 -18.5 -207t-9.5 -253t-4 -271t-1 -262q0 -84 4 -156t24.5 -116t69.5 -44q31 0 59.5 7.5t59.5 9.5l8 -35l-10 -14q-51 -16 -112.5 -34 t-115 -30t-85.5 -12q-39 0 -53.5 22.5t-14.5 55v63.5l-16 12q-106 -70 -228.5 -115.5t-249.5 -45.5q-141 0 -219 44t-111.5 109.5t-45.5 124.5q-10 72 -13.5 174.5t-3.5 196.5q0 119 2 239.5t2 239.5v121q0 31 -23.5 51.5t-56 32.5t-61.5 17t-39 5l-4 41l16 15h346l15 -13 q-2 -10 -5 -48t-5.5 -85t-4.5 -86t-2 -51zM656 1497l-37 64l246 322l26 4l97 -74z" />
<glyph unicode="&#xdb;" horiz-adv-x="1458" d="M358 1110l-16 -559q0 -172 49 -268.5t131 -136.5t180 -40q96 0 187.5 36t173.5 85q0 281 3 562.5t5 560.5l180 71l13 -14q-12 -88 -18.5 -207t-9.5 -253t-4 -271t-1 -262q0 -84 4 -156t24.5 -116t69.5 -44q31 0 59.5 7.5t59.5 9.5l8 -35l-10 -14q-51 -16 -112.5 -34 t-115 -30t-85.5 -12q-39 0 -53.5 22.5t-14.5 55v63.5l-16 12q-106 -70 -228.5 -115.5t-249.5 -45.5q-141 0 -219 44t-111.5 109.5t-45.5 124.5q-10 72 -13.5 174.5t-3.5 196.5q0 119 2 239.5t2 239.5v121q0 31 -23.5 51.5t-56 32.5t-61.5 17t-39 5l-4 41l16 15h346l15 -13 q-2 -10 -5 -48t-5.5 -85t-4.5 -86t-2 -51zM764 1870l322 -327l-80 -54l-248 254l-293 -268l-47 25z" />
<glyph unicode="&#xdc;" horiz-adv-x="1458" d="M358 1110l-16 -559q0 -172 49 -268.5t131 -136.5t180 -40q96 0 187.5 36t173.5 85q0 281 3 562.5t5 560.5l180 71l13 -14q-12 -88 -18.5 -207t-9.5 -253t-4 -271t-1 -262q0 -84 4 -156t24.5 -116t69.5 -44q31 0 59.5 7.5t59.5 9.5l8 -35l-10 -14q-51 -16 -112.5 -34 t-115 -30t-85.5 -12q-39 0 -53.5 22.5t-14.5 55v63.5l-16 12q-106 -70 -228.5 -115.5t-249.5 -45.5q-141 0 -219 44t-111.5 109.5t-45.5 124.5q-10 72 -13.5 174.5t-3.5 196.5q0 119 2 239.5t2 239.5v121q0 31 -23.5 51.5t-56 32.5t-61.5 17t-39 5l-4 41l16 15h346l15 -13 q-2 -10 -5 -48t-5.5 -85t-4.5 -86t-2 -51zM1079 1672q-2 -51 -38 -83t-85 -32t-84 35t-35 84q0 53 43 83.5t88 30.5q53 0 82 -35.5t29 -82.5zM665 1672q-2 -51 -38 -83t-85 -32t-84 35t-35 84q0 53 43 83.5t88 30.5q53 0 82 -35.5t29 -82.5z" />
<glyph unicode="&#xdd;" horiz-adv-x="1212" d="M479 612l-305 605q-35 70 -75 89t-101 27v58l14 14h297l289 -666l9 -9t16 -7q6 0 28.5 31.5t53 82t61.5 105.5q6 10 37 63.5t73 125t83.5 141t68.5 112.5l174 35l8 -37q-113 -147 -206 -270t-174.5 -238.5t-167.5 -246.5l18 -590l-184 -60l-23 19q4 154 5 308t1 308z M592 1497l-37 64l246 322l26 4l97 -74z" />
<glyph unicode="&#xde;" horiz-adv-x="1079" d="M358 1378q-4 -18 -6 -56t-3 -78t-3 -68h215q252 0 362.5 -87.5t110.5 -250.5q0 -188 -131 -320q-68 -70 -170 -97.5t-203 -35.5q-29 -2 -74.5 -3t-81.5 -8t-36 -28q0 -25 3 -54.5t7 -85.5t4 -161l-170 -57l-14 14q4 215 9 431t5 433q0 90 -3 181.5t-7 181.5 q-4 61 -48 81.5t-104 28.5v37l15 15h309zM483 1096h-118q-10 0 -14.5 -7.5t-4.5 -15.5q-6 -135 -9 -296t-3 -294q0 -14 8 -19t14 -5q143 0 251 43t169.5 125t61.5 194q0 106 -49.5 166t-130.5 84.5t-175 24.5z" />
<glyph unicode="&#xdf;" horiz-adv-x="927" d="M20 889h125l13 12q0 53 6 124t31 126q47 109 132 164t181 55q84 0 127 -35t63 -75l-118 -111l-25 8q-4 23 -13.5 53.5t-33 54t-72.5 23.5q-43 0 -70.5 -53t-40 -141t-12.5 -193l9 -12h495l10 -15l-14 -45l-170 -299q53 -41 110.5 -95t97.5 -126.5t40 -169.5 q0 -131 -67.5 -236.5t-189.5 -168t-288 -62.5l-10 49q88 16 165 59.5t134 104t80 127.5q45 131 -21 248q-43 76 -106.5 138.5t-108.5 97.5v49l156 272h-313l-13 -12v-227q0 -143 5 -285.5t16 -267.5l-162 -50l-35 23q10 152 18.5 297t8.5 285v221l-13 16h-139l-10 14l8 46z " />
<glyph unicode="&#xe0;" horiz-adv-x="1122" d="M788 883l109 63l10 -10q-12 -223 -12 -447q0 -47 -3 -112.5t1 -127t22.5 -102.5t59.5 -41q23 0 61.5 12.5t71.5 24.5l14 -49q-41 -25 -88 -52.5t-92 -47t-78 -19.5q-57 0 -81.5 35t-34.5 86l-31 8q-76 -49 -160 -89t-174 -40q-86 0 -143.5 37t-92 96.5t-50 130 t-15.5 140.5q0 109 27.5 211t86 185t150.5 131t223 48q49 0 109.5 -18t109.5 -53zM743 203v471q0 41 -4 77.5t-28 63.5q-27 29 -64 48.5t-76 19.5q-113 0 -194 -78q-35 -33 -71 -121t-40 -244q-2 -63 10.5 -127.5t47.5 -117.5q33 -51 89 -67.5t113 -16.5q59 0 115.5 28.5 t101.5 63.5zM627 1125l-332 315l96 74l27 -4l245 -322z" />
<glyph unicode="&#xe1;" horiz-adv-x="1122" d="M788 883l109 63l10 -10q-12 -223 -12 -447q0 -47 -3 -112.5t1 -127t22.5 -102.5t59.5 -41q23 0 61.5 12.5t71.5 24.5l14 -49q-41 -25 -88 -52.5t-92 -47t-78 -19.5q-57 0 -81.5 35t-34.5 86l-31 8q-76 -49 -160 -89t-174 -40q-86 0 -143.5 37t-92 96.5t-50 130 t-15.5 140.5q0 109 27.5 211t86 185t150.5 131t223 48q49 0 109.5 -18t109.5 -53zM743 203v471q0 41 -4 77.5t-28 63.5q-27 29 -64 48.5t-76 19.5q-113 0 -194 -78q-35 -33 -71 -121t-40 -244q-2 -63 10.5 -127.5t47.5 -117.5q33 -51 89 -67.5t113 -16.5q59 0 115.5 28.5 t101.5 63.5zM465 1122l-37 64l246 322l26 4l97 -74z" />
<glyph unicode="&#xe2;" horiz-adv-x="1122" d="M788 883l109 63l10 -10q-12 -223 -12 -447q0 -47 -3 -112.5t1 -127t22.5 -102.5t59.5 -41q23 0 61.5 12.5t71.5 24.5l14 -49q-41 -25 -88 -52.5t-92 -47t-78 -19.5q-57 0 -81.5 35t-34.5 86l-31 8q-76 -49 -160 -89t-174 -40q-86 0 -143.5 37t-92 96.5t-50 130 t-15.5 140.5q0 109 27.5 211t86 185t150.5 131t223 48q49 0 109.5 -18t109.5 -53zM743 203v471q0 41 -4 77.5t-28 63.5q-27 29 -64 48.5t-76 19.5q-113 0 -194 -78q-35 -33 -71 -121t-40 -244q-2 -63 10.5 -127.5t47.5 -117.5q33 -51 89 -67.5t113 -16.5q59 0 115.5 28.5 t101.5 63.5zM573 1495l322 -327l-80 -54l-248 254l-293 -268l-47 25z" />
<glyph unicode="&#xe3;" horiz-adv-x="1122" d="M788 883l109 63l10 -10q-12 -223 -12 -447q0 -47 -3 -112.5t1 -127t22.5 -102.5t59.5 -41q23 0 61.5 12.5t71.5 24.5l14 -49q-41 -25 -88 -52.5t-92 -47t-78 -19.5q-57 0 -81.5 35t-34.5 86l-31 8q-76 -49 -160 -89t-174 -40q-86 0 -143.5 37t-92 96.5t-50 130 t-15.5 140.5q0 109 27.5 211t86 185t150.5 131t223 48q49 0 109.5 -18t109.5 -53zM743 203v471q0 41 -4 77.5t-28 63.5q-27 29 -64 48.5t-76 19.5q-113 0 -194 -78q-35 -33 -71 -121t-40 -244q-2 -63 10.5 -127.5t47.5 -117.5q33 -51 89 -67.5t113 -16.5q59 0 115.5 28.5 t101.5 63.5zM557 1348l96 -43q23 -8 46.5 -14.5t47.5 -4.5q37 4 53.5 24.5t30.5 55.5l27 -10q-2 -29 -16.5 -71t-39 -74.5t-57.5 -36.5t-66.5 3t-64.5 21l-129 62q-23 10 -49.5 16t-52.5 2q-37 -4 -56.5 -25.5t-37.5 -72.5l-29 10q8 37 24.5 82t42 80t60.5 39q41 6 86 -9.5 t84 -33.5z" />
<glyph unicode="&#xe4;" horiz-adv-x="1122" d="M788 883l109 63l10 -10q-12 -223 -12 -447q0 -47 -3 -112.5t1 -127t22.5 -102.5t59.5 -41q23 0 61.5 12.5t71.5 24.5l14 -49q-41 -25 -88 -52.5t-92 -47t-78 -19.5q-57 0 -81.5 35t-34.5 86l-31 8q-76 -49 -160 -89t-174 -40q-86 0 -143.5 37t-92 96.5t-50 130 t-15.5 140.5q0 109 27.5 211t86 185t150.5 131t223 48q49 0 109.5 -18t109.5 -53zM743 203v471q0 41 -4 77.5t-28 63.5q-27 29 -64 48.5t-76 19.5q-113 0 -194 -78q-35 -33 -71 -121t-40 -244q-2 -63 10.5 -127.5t47.5 -117.5q33 -51 89 -67.5t113 -16.5q59 0 115.5 28.5 t101.5 63.5zM889 1297q-2 -51 -38 -83t-85 -32t-84 35t-35 84q0 53 43 83.5t88 30.5q53 0 82 -35.5t29 -82.5zM475 1297q-2 -51 -38 -83t-85 -32t-84 35t-35 84q0 53 43 83.5t88 30.5q53 0 82 -35.5t29 -82.5z" />
<glyph unicode="&#xe5;" horiz-adv-x="1122" d="M788 883l109 63l10 -10q-12 -223 -12 -447q0 -47 -3 -112.5t1 -127t22.5 -102.5t59.5 -41q23 0 61.5 12.5t71.5 24.5l14 -49q-41 -25 -88 -52.5t-92 -47t-78 -19.5q-57 0 -81.5 35t-34.5 86l-31 8q-76 -49 -160 -89t-174 -40q-86 0 -143.5 37t-92 96.5t-50 130 t-15.5 140.5q0 109 27.5 211t86 185t150.5 131t223 48q49 0 109.5 -18t109.5 -53zM743 203v471q0 41 -4 77.5t-28 63.5q-27 29 -64 48.5t-76 19.5q-113 0 -194 -78q-35 -33 -71 -121t-40 -244q-2 -63 10.5 -127.5t47.5 -117.5q33 -51 89 -67.5t113 -16.5q59 0 115.5 28.5 t101.5 63.5zM362 1256q0 84 58.5 141t140.5 57q84 0 141.5 -57t57.5 -141q0 -82 -57.5 -140.5t-141.5 -58.5q-82 0 -140.5 58.5t-58.5 140.5zM424 1256q0 -57 40 -97.5t97 -40.5t97 40t40 98q0 57 -40 97t-97 40t-97 -40t-40 -97z" />
<glyph unicode="&#xe6;" horiz-adv-x="1540" d="M1448 653l-578 -250q6 -63 34 -130.5t84 -112.5t147 -45q84 0 164.5 43t150.5 96l23 -4l26 -37q-63 -59 -138 -113.5t-158 -89.5t-171 -35q-104 0 -169.5 45.5t-104.5 114.5q-78 -57 -175.5 -108.5t-199.5 -51.5q-86 0 -143.5 37t-92 96.5t-50 130t-15.5 140.5 q0 109 27.5 211t86 185t150.5 131t223 48q43 0 96.5 -13t99.5 -40t69 -67q74 72 169 108.5t197 36.5q133 0 212 -82t79 -201q0 -18 -13.5 -26.5t-29.5 -16.5zM956 811q-59 -63 -76.5 -133t-17.5 -146q0 -8 1 -17t3 -19l8 -9l414 164q10 4 18.5 16.5t8.5 37.5q0 43 -22.5 88 t-64.5 74.5t-100 29.5q-51 0 -95 -22.5t-77 -63.5zM743 713q-2 29 -8 55.5t-24 46.5q-27 29 -64 48.5t-76 19.5q-113 0 -194 -78q-35 -33 -71 -121t-40 -244q-2 -63 10.5 -127.5t47.5 -117.5q33 -51 89 -67.5t113 -16.5t108.5 25.5t96.5 58.5q-20 61 -29.5 129.5t-9.5 138.5 q0 66 12 129.5t39 120.5z" />
<glyph unicode="&#xe7;" horiz-adv-x="931" d="M889 233l22 -36q-94 -94 -207.5 -165t-250.5 -71q-125 0 -197 46t-105.5 120t-43 158t-9.5 159q0 154 66.5 274t183.5 187.5t268 67.5q100 0 165 -56.5t73 -144.5l-111 -108l-34 12q-14 102 -61.5 159.5t-112.5 57.5q-86 0 -145.5 -58.5t-90.5 -147.5t-31 -179 q0 -66 12.5 -137.5t43 -134t87 -101.5t146.5 -39t168 42t145 100zM475 -8h74l-41 -96q20 -8 69.5 -33.5t77.5 -60.5q35 -43 44.5 -96.5t-31.5 -108.5q-33 -45 -88.5 -73.5t-118 -46t-117.5 -27.5l-12 30l10 21q41 16 84 37.5t63 48.5q29 39 12.5 71.5t-55.5 57t-77 35.5z " />
<glyph unicode="&#xe8;" horiz-adv-x="897" d="M854 653l-578 -250q6 -63 34 -130.5t84.5 -112.5t146.5 -45q84 0 164.5 43t150.5 96l23 -4l26 -37q-63 -59 -138 -113.5t-158 -89.5t-171 -35q-102 0 -168.5 43t-103.5 114t-52.5 158t-15.5 173q0 90 22.5 176t82.5 156q76 88 181 136t222 48q133 0 212 -82t79 -201 q0 -18 -13.5 -26.5t-29.5 -16.5zM362 811q-59 -63 -76.5 -133t-17.5 -146q0 -8 1 -17t3 -19l9 -9l413 164q10 4 18.5 16.5t8.5 37.5q0 43 -22.5 88t-64.5 74.5t-99 29.5q-51 0 -95.5 -22.5t-77.5 -63.5zM555 1151l-332 315l96 74l27 -4l245 -322z" />
<glyph unicode="&#xe9;" horiz-adv-x="897" d="M854 653l-578 -250q6 -63 34 -130.5t84.5 -112.5t146.5 -45q84 0 164.5 43t150.5 96l23 -4l26 -37q-63 -59 -138 -113.5t-158 -89.5t-171 -35q-102 0 -168.5 43t-103.5 114t-52.5 158t-15.5 173q0 90 22.5 176t82.5 156q76 88 181 136t222 48q133 0 212 -82t79 -201 q0 -18 -13.5 -26.5t-29.5 -16.5zM362 811q-59 -63 -76.5 -133t-17.5 -146q0 -8 1 -17t3 -19l9 -9l413 164q10 4 18.5 16.5t8.5 37.5q0 43 -22.5 88t-64.5 74.5t-99 29.5q-51 0 -95.5 -22.5t-77.5 -63.5zM393 1146l-37 64l246 322l26 4l97 -74z" />
<glyph unicode="&#xea;" horiz-adv-x="897" d="M854 653l-578 -250q6 -63 34 -130.5t84.5 -112.5t146.5 -45q84 0 164.5 43t150.5 96l23 -4l26 -37q-63 -59 -138 -113.5t-158 -89.5t-171 -35q-102 0 -168.5 43t-103.5 114t-52.5 158t-15.5 173q0 90 22.5 176t82.5 156q76 88 181 136t222 48q133 0 212 -82t79 -201 q0 -18 -13.5 -26.5t-29.5 -16.5zM362 811q-59 -63 -76.5 -133t-17.5 -146q0 -8 1 -17t3 -19l9 -9l413 164q10 4 18.5 16.5t8.5 37.5q0 43 -22.5 88t-64.5 74.5t-99 29.5q-51 0 -95.5 -22.5t-77.5 -63.5zM501 1519l322 -327l-80 -54l-248 254l-293 -268l-47 25z" />
<glyph unicode="&#xeb;" horiz-adv-x="897" d="M854 653l-578 -250q6 -63 34 -130.5t84.5 -112.5t146.5 -45q84 0 164.5 43t150.5 96l23 -4l26 -37q-63 -59 -138 -113.5t-158 -89.5t-171 -35q-102 0 -168.5 43t-103.5 114t-52.5 158t-15.5 173q0 90 22.5 176t82.5 156q76 88 181 136t222 48q133 0 212 -82t79 -201 q0 -18 -13.5 -26.5t-29.5 -16.5zM362 811q-59 -63 -76.5 -133t-17.5 -146q0 -8 1 -17t3 -19l9 -9l413 164q10 4 18.5 16.5t8.5 37.5q0 43 -22.5 88t-64.5 74.5t-99 29.5q-51 0 -95.5 -22.5t-77.5 -63.5zM817 1260q-2 -51 -38 -83t-85 -32t-84 35t-35 84q0 53 43 83.5 t88 30.5q53 0 82 -35.5t29 -82.5zM403 1260q-2 -51 -38 -83t-85 -32t-84 35t-35 84q0 53 43 83.5t88 30.5q53 0 82 -35.5t29 -82.5z" />
<glyph unicode="&#xec;" horiz-adv-x="528" d="M393 803l-16 -430q0 -113 18.5 -176.5t71.5 -63.5q59 0 103 27.5t85 64.5l27 -20v-23q-35 -45 -81 -91t-98 -76.5t-110 -30.5q-43 0 -81 15t-60.5 64.5t-22.5 149.5l13 453q0 80 -15.5 127t-56.5 47q-33 0 -80 -21.5t-84 -44.5l-26 37q70 55 148.5 104.5t137.5 49.5 q70 0 98.5 -47t28.5 -115zM189 1135l-332 315l96 74l27 -4l245 -322z" />
<glyph unicode="&#xed;" horiz-adv-x="528" d="M393 803l-16 -430q0 -113 18.5 -176.5t71.5 -63.5q59 0 103 27.5t85 64.5l27 -20v-23q-35 -45 -81 -91t-98 -76.5t-110 -30.5q-43 0 -81 15t-60.5 64.5t-22.5 149.5l13 453q0 80 -15.5 127t-56.5 47q-33 0 -80 -21.5t-84 -44.5l-26 37q70 55 148.5 104.5t137.5 49.5 q70 0 98.5 -47t28.5 -115zM240 1132l-37 64l246 322l26 4l97 -74z" />
<glyph unicode="&#xee;" horiz-adv-x="528" d="M393 803l-16 -430q0 -113 18.5 -176.5t71.5 -63.5q59 0 103 27.5t85 64.5l27 -20v-23q-35 -45 -81 -91t-98 -76.5t-110 -30.5q-43 0 -81 15t-60.5 64.5t-22.5 149.5l13 453q0 80 -15.5 127t-56.5 47q-33 0 -80 -21.5t-84 -44.5l-26 37q70 55 148.5 104.5t137.5 49.5 q70 0 98.5 -47t28.5 -115zM241 1521l322 -327l-80 -54l-248 254l-293 -268l-47 25z" />
<glyph unicode="&#xef;" horiz-adv-x="528" d="M393 803l-16 -430q0 -113 18.5 -176.5t71.5 -63.5q59 0 103 27.5t85 64.5l27 -20v-23q-35 -45 -81 -91t-98 -76.5t-110 -30.5q-43 0 -81 15t-60.5 64.5t-22.5 149.5l13 453q0 80 -15.5 127t-56.5 47q-33 0 -80 -21.5t-84 -44.5l-26 37q70 55 148.5 104.5t137.5 49.5 q70 0 98.5 -47t28.5 -115zM557 1244q-2 -51 -38 -83t-85 -32t-84 35t-35 84q0 53 43 83.5t88 30.5q53 0 82 -35.5t29 -82.5zM143 1244q-2 -51 -38 -83t-85 -32t-84 35t-35 84q0 53 43 83.5t88 30.5q53 0 82 -35.5t29 -82.5z" />
<glyph unicode="&#xf0;" horiz-adv-x="944" d="M324 1401q100 -35 196 -113l230 121l26 -80l-188 -100q96 -94 167.5 -223t94.5 -277q16 -102 18 -209.5t-25.5 -209t-99.5 -185.5q-90 -106 -219 -129q-88 -14 -168 -7t-143 62q-41 37 -71.5 90.5t-49 111.5t-26.5 105q-20 131 11.5 256t122.5 215.5t244 114.5q33 4 71 5 t95 -5l6 10q-57 135 -122 226l-250 -133l-27 79l221 117q-61 66 -143 113zM707 297q16 82 13 167t-15 167q-18 125 -62 237q-39 10 -82 15.5t-84 -0.5q-88 -14 -142 -66.5t-79 -125.5t-28 -152.5t8 -149.5q6 -37 25.5 -92t55 -109.5t90 -87t130.5 -20.5q80 12 119 78.5 t51 138.5z" />
<glyph unicode="&#xf1;" horiz-adv-x="1292" d="M399 37l-143 -49l-31 14q2 39 5 115t6.5 167t5.5 178t2 148q0 102 -12.5 169t-63.5 67q-33 0 -71 -21.5t-83 -50.5l-34 45q43 31 92 65t98 57.5t86 23.5q78 0 108.5 -41t38.5 -99l17 -12q86 53 187.5 100.5t199.5 47.5q45 0 87 -12.5t71 -47.5q20 -25 28 -89t10.5 -143 t2.5 -145q0 -154 1 -241.5t20.5 -123.5t76.5 -36q35 0 80 26.5t84 55.5h26l19 -43q-70 -70 -159 -126t-163 -56q-84 0 -115.5 53t-31.5 127l10 350q0 154 -38 242t-146 88q-70 0 -139.5 -40t-124.5 -85q-4 -111 -8.5 -238t-4.5 -239q0 -43 2 -91.5t4 -109.5zM645 1270 l96 -43q23 -8 46.5 -14.5t47.5 -4.5q37 4 53.5 24.5t30.5 55.5l27 -10q-2 -29 -16.5 -71t-39 -74.5t-57.5 -36.5t-66.5 3t-64.5 21l-129 62q-23 10 -49.5 16t-52.5 2q-37 -4 -56.5 -25.5t-37.5 -72.5l-29 10q8 37 24.5 82t42 80t60.5 39q41 6 86 -9.5t84 -33.5z" />
<glyph unicode="&#xf2;" horiz-adv-x="1026" d="M496 -29q-141 0 -226.5 62.5t-124.5 161t-47 206.5q0 106 19.5 213t93.5 187q72 80 175 115.5t210 35.5q152 0 240 -67.5t126.5 -174t38.5 -221.5q0 -100 -25.5 -196t-92.5 -172q-72 -82 -175 -116t-212 -34zM291 647q-8 -39 -12.5 -78t-4.5 -80q0 -63 12.5 -139 t42 -142.5t84 -109.5t138.5 -43t136 37t81 96.5t40 129t11 133.5q0 63 -10 135.5t-38 138.5t-82 106.5t-140 40.5q-82 0 -155.5 -55t-102.5 -170zM580 1108l-332 315l96 74l27 -4l245 -322z" />
<glyph unicode="&#xf3;" horiz-adv-x="1026" d="M496 -29q-141 0 -226.5 62.5t-124.5 161t-47 206.5q0 106 19.5 213t93.5 187q72 80 175 115.5t210 35.5q152 0 240 -67.5t126.5 -174t38.5 -221.5q0 -100 -25.5 -196t-92.5 -172q-72 -82 -175 -116t-212 -34zM291 647q-8 -39 -12.5 -78t-4.5 -80q0 -63 12.5 -139 t42 -142.5t84 -109.5t138.5 -43t136 37t81 96.5t40 129t11 133.5q0 63 -10 135.5t-38 138.5t-82 106.5t-140 40.5q-82 0 -155.5 -55t-102.5 -170zM418 1105l-37 64l246 322l26 4l97 -74z" />
<glyph unicode="&#xf4;" horiz-adv-x="1026" d="M496 -29q-141 0 -226.5 62.5t-124.5 161t-47 206.5q0 106 19.5 213t93.5 187q72 80 175 115.5t210 35.5q152 0 240 -67.5t126.5 -174t38.5 -221.5q0 -100 -25.5 -196t-92.5 -172q-72 -82 -175 -116t-212 -34zM291 647q-8 -39 -12.5 -78t-4.5 -80q0 -63 12.5 -139 t42 -142.5t84 -109.5t138.5 -43t136 37t81 96.5t40 129t11 133.5q0 63 -10 135.5t-38 138.5t-82 106.5t-140 40.5q-82 0 -155.5 -55t-102.5 -170zM526 1507l322 -327l-80 -54l-248 254l-293 -268l-47 25z" />
<glyph unicode="&#xf5;" horiz-adv-x="1099" d="M496 -29q-141 0 -226.5 62.5t-124.5 161t-47 206.5q0 106 19.5 213t93.5 187q72 80 175 115.5t210 35.5q152 0 240 -67.5t126.5 -174t38.5 -221.5q0 -100 -25.5 -196t-92.5 -172q-72 -82 -175 -116t-212 -34zM291 647q-8 -39 -12.5 -78t-4.5 -80q0 -63 12.5 -139 t42 -142.5t84 -109.5t138.5 -43t136 37t81 96.5t40 129t11 133.5q0 63 -10 135.5t-38 138.5t-82 106.5t-140 40.5q-82 0 -155.5 -55t-102.5 -170zM547 1270l96 -43q23 -8 46.5 -14.5t47.5 -4.5q37 4 53.5 24.5t30.5 55.5l27 -10q-2 -29 -16.5 -71t-39 -74.5t-57.5 -36.5 t-66.5 3t-64.5 21l-129 62q-23 10 -49.5 16t-52.5 2q-37 -4 -56.5 -25.5t-37.5 -72.5l-29 10q8 37 24.5 82t42 80t60.5 39q41 6 86 -9.5t84 -33.5z" />
<glyph unicode="&#xf6;" horiz-adv-x="1099" d="M496 -29q-141 0 -226.5 62.5t-124.5 161t-47 206.5q0 106 19.5 213t93.5 187q72 80 175 115.5t210 35.5q152 0 240 -67.5t126.5 -174t38.5 -221.5q0 -100 -25.5 -196t-92.5 -172q-72 -82 -175 -116t-212 -34zM291 647q-8 -39 -12.5 -78t-4.5 -80q0 -63 12.5 -139 t42 -142.5t84 -109.5t138.5 -43t136 37t81 96.5t40 129t11 133.5q0 63 -10 135.5t-38 138.5t-82 106.5t-140 40.5q-82 0 -155.5 -55t-102.5 -170zM878 1219q-2 -51 -38 -83t-85 -32t-84 35t-35 84q0 53 43 83.5t88 30.5q53 0 82 -35.5t29 -82.5zM464 1219q-2 -51 -38 -83 t-85 -32t-84 35t-35 84q0 53 43 83.5t88 30.5q53 0 82 -35.5t29 -82.5z" />
<glyph unicode="&#xf7;" horiz-adv-x="1687" d="M965 1053q-2 -51 -38 -83t-85 -32t-84 35t-35 84q0 53 43 83.5t88 30.5q53 0 82 -35.5t29 -82.5zM1511 483h-1347l14 82h1346zM965 -4q-2 -51 -38 -83t-85 -32t-84 35t-35 84q0 53 43 84t88 31q53 0 82 -36t29 -83z" />
<glyph unicode="&#xf8;" horiz-adv-x="1064" d="M496 -29q-74 0 -134 19l-75 -174l-66 16l-4 29l70 162q-94 57 -137.5 160.5t-51.5 217.5q0 106 19.5 213t93.5 187q72 80 175 115.5t210 35.5q47 0 90 -8l59 139l21 4l45 -10l12 -22l-57 -133q86 -35 137 -102.5t74.5 -153.5t23.5 -177q0 -100 -25.5 -196t-92.5 -172 q-72 -82 -175 -116t-212 -34zM291 647q-8 -39 -12.5 -78t-4.5 -80q0 -74 16.5 -162.5t59.5 -156.5l297 684q-45 18 -98 18q-82 0 -155.5 -55t-102.5 -170zM819 451q0 57 -8 123.5t-30.5 128t-63.5 104.5l-307 -707q29 -20 63.5 -32.5t77.5 -12.5q84 0 136 37t81 96.5 t40 129.5t11 133z" />
<glyph unicode="&#xf9;" horiz-adv-x="1296" d="M1300 215l23 -39q-47 -41 -104.5 -86t-114.5 -75.5t-111 -30.5q-70 0 -102.5 42t-38.5 105l-16 2q-57 -35 -124 -70.5t-133.5 -59t-127.5 -23.5q-88 0 -134.5 38.5t-63.5 96t-17 114.5q0 25 1 72t3 98.5t3 96.5t1 67q0 94 -3 142.5t-10.5 70t-21.5 35.5q-16 18 -57 18 q-20 0 -65.5 -20.5t-80.5 -40.5l-26 41q41 31 89 65.5t97 59t92 24.5q78 0 104.5 -43t28.5 -142t2 -273q0 -104 7.5 -194.5t45 -146t132.5 -55.5q70 0 139 36t129 73q0 100 1 226t1 235v128t-2 89l158 72l26 -23q-25 -285 -24 -569q0 -61 4 -115.5t25.5 -88.5t70.5 -34 q41 0 90 28.5t88 57.5zM715 1129l-332 315l96 74l27 -4l245 -322z" />
<glyph unicode="&#xfa;" horiz-adv-x="1296" d="M1300 215l23 -39q-47 -41 -104.5 -86t-114.5 -75.5t-111 -30.5q-70 0 -102.5 42t-38.5 105l-16 2q-57 -35 -124 -70.5t-133.5 -59t-127.5 -23.5q-88 0 -134.5 38.5t-63.5 96t-17 114.5q0 25 1 72t3 98.5t3 96.5t1 67q0 94 -3 142.5t-10.5 70t-21.5 35.5q-16 18 -57 18 q-20 0 -65.5 -20.5t-80.5 -40.5l-26 41q41 31 89 65.5t97 59t92 24.5q78 0 104.5 -43t28.5 -142t2 -273q0 -104 7.5 -194.5t45 -146t132.5 -55.5q70 0 139 36t129 73q0 100 1 226t1 235v128t-2 89l158 72l26 -23q-25 -285 -24 -569q0 -61 4 -115.5t25.5 -88.5t70.5 -34 q41 0 90 28.5t88 57.5zM574 1126l-37 64l246 322l26 4l97 -74z" />
<glyph unicode="&#xfb;" horiz-adv-x="1296" d="M1300 215l23 -39q-47 -41 -104.5 -86t-114.5 -75.5t-111 -30.5q-70 0 -102.5 42t-38.5 105l-16 2q-57 -35 -124 -70.5t-133.5 -59t-127.5 -23.5q-88 0 -134.5 38.5t-63.5 96t-17 114.5q0 25 1 72t3 98.5t3 96.5t1 67q0 94 -3 142.5t-10.5 70t-21.5 35.5q-16 18 -57 18 q-20 0 -65.5 -20.5t-80.5 -40.5l-26 41q41 31 89 65.5t97 59t92 24.5q78 0 104.5 -43t28.5 -142t2 -273q0 -104 7.5 -194.5t45 -146t132.5 -55.5q70 0 139 36t129 73q0 100 1 226t1 235v128t-2 89l158 72l26 -23q-25 -285 -24 -569q0 -61 4 -115.5t25.5 -88.5t70.5 -34 q41 0 90 28.5t88 57.5zM661 1519l322 -327l-80 -54l-248 254l-293 -268l-47 25z" />
<glyph unicode="&#xfc;" horiz-adv-x="1296" d="M1300 215l23 -39q-47 -41 -104.5 -86t-114.5 -75.5t-111 -30.5q-70 0 -102.5 42t-38.5 105l-16 2q-57 -35 -124 -70.5t-133.5 -59t-127.5 -23.5q-88 0 -134.5 38.5t-63.5 96t-17 114.5q0 25 1 72t3 98.5t3 96.5t1 67q0 94 -3 142.5t-10.5 70t-21.5 35.5q-16 18 -57 18 q-20 0 -65.5 -20.5t-80.5 -40.5l-26 41q41 31 89 65.5t97 59t92 24.5q78 0 104.5 -43t28.5 -142t2 -273q0 -104 7.5 -194.5t45 -146t132.5 -55.5q70 0 139 36t129 73q0 100 1 226t1 235v128t-2 89l158 72l26 -23q-25 -285 -24 -569q0 -61 4 -115.5t25.5 -88.5t70.5 -34 q41 0 90 28.5t88 57.5zM977 1242q-2 -51 -38 -83t-85 -32t-84 35t-35 84q0 53 43 83.5t88 30.5q53 0 82 -35.5t29 -82.5zM563 1242q-2 -51 -38 -83t-85 -32t-84 35t-35 84q0 53 43 83.5t88 30.5q53 0 82 -35.5t29 -82.5z" />
<glyph unicode="&#xfd;" horiz-adv-x="1130" d="M213 -373l-4 23l90 114h27q33 -57 88 -107t125 -50q82 0 135 33.5t83.5 85t46 106.5t23.5 98q10 51 12.5 101.5t4.5 99.5l-13 10q-86 -53 -186 -105t-199 -52q-74 0 -116.5 32.5t-63 85t-27 110.5t-6.5 110q0 70 4.5 137t4.5 143q0 111 -15.5 174.5t-79.5 63.5 q-27 0 -68.5 -19.5t-76.5 -38.5l-22 39q10 8 42.5 29.5t74.5 46.5t87 43t80 18q66 0 97.5 -43t31.5 -100q0 -86 -4 -174t-4 -178q4 -94 11 -151.5t18.5 -89.5t27.5 -54q23 -29 58 -41t71 -12q74 0 145.5 36.5t129.5 69.5q2 53 3 108.5t1 110.5q0 111 -4 220.5t-12 216.5 l161 77l25 -8q-10 -156 -12 -311.5t-3 -295.5t-6.5 -253t-21.5 -186q-37 -133 -114 -216t-178 -122t-212 -39q-72 0 -145.5 30.5t-114.5 73.5zM572 1116l-37 64l246 322l26 4l97 -74z" />
<glyph unicode="&#xfe;" horiz-adv-x="1112" d="M408 -422l-166 -63l-21 22q4 35 6 101.5t3 146.5t2 161t1 146.5v100.5v452q0 47 -7 92t-24.5 76t-47.5 31q-33 0 -73 -18.5t-77 -41.5l-29 39q61 49 136 94.5t143 45.5q55 0 94 -39t41 -146q2 -47 2 -86v-55l17 -8q84 66 175 108.5t197 42.5q104 0 166 -53t88.5 -132 t26.5 -157q0 -113 -38 -225.5t-108.5 -204.5t-169 -147.5t-217.5 -55.5q-31 0 -58.5 4.5t-55.5 12.5l-21 -17q2 -47 3 -77.5t4.5 -63.5t7.5 -86zM391 -37q37 -33 83 -54.5t97 -21.5q92 0 153.5 39t97.5 103.5t51.5 139.5t15.5 148q0 90 -25.5 166t-73 123t-112.5 47 q-78 0 -145.5 -30.5t-139.5 -87.5q0 -4 -1 -38t-1 -77t-1 -78t-1 -43q0 -84 1 -161t1 -125v-50z" />
<glyph unicode="&#xff;" horiz-adv-x="1130" d="M213 -373l-4 23l90 114h27q33 -57 88 -107t125 -50q82 0 135 33.5t83.5 85t46 106.5t23.5 98q10 51 12.5 101.5t4.5 99.5l-13 10q-86 -53 -186 -105t-199 -52q-74 0 -116.5 32.5t-63 85t-27 110.5t-6.5 110q0 70 4.5 137t4.5 143q0 111 -15.5 174.5t-79.5 63.5 q-27 0 -68.5 -19.5t-76.5 -38.5l-22 39q10 8 42.5 29.5t74.5 46.5t87 43t80 18q66 0 97.5 -43t31.5 -100q0 -86 -4 -174t-4 -178q4 -94 11 -151.5t18.5 -89.5t27.5 -54q23 -29 58 -41t71 -12q74 0 145.5 36.5t129.5 69.5q2 53 3 108.5t1 110.5q0 111 -4 220.5t-12 216.5 l161 77l25 -8q-10 -156 -12 -311.5t-3 -295.5t-6.5 -253t-21.5 -186q-37 -133 -114 -216t-178 -122t-212 -39q-72 0 -145.5 30.5t-114.5 73.5zM934 1239q-2 -51 -38 -83t-85 -32t-84 35t-35 84q0 53 43 83.5t88 30.5q53 0 82 -35.5t29 -82.5zM520 1239q-2 -51 -38 -83 t-85 -32t-84 35t-35 84q0 53 43 83.5t88 30.5q53 0 82 -35.5t29 -82.5z" />
<glyph unicode="&#x131;" horiz-adv-x="661" d="M393 803l-16 -430q0 -113 18.5 -176.5t71.5 -63.5q59 0 103 27.5t85 64.5l27 -20v-23q-35 -45 -81 -91t-98 -76.5t-110 -30.5q-43 0 -81 15t-60.5 64.5t-22.5 149.5l13 453q0 80 -15.5 127t-56.5 47q-33 0 -80 -21.5t-84 -44.5l-26 37q70 55 148.5 104.5t137.5 49.5 q70 0 98.5 -47t28.5 -115z" />
<glyph unicode="&#x152;" horiz-adv-x="2041" d="M1823 688q-59 4 -121 8t-121 4h-120.5t-102.5 -6t-41 -24v-285q0 -57 5 -123.5t26 -105.5q23 -39 62.5 -52.5t133.5 -13.5q37 0 70 1t80 3t125.5 8.5t203.5 16.5l11 -10l-27 -109h-1081q-129 -37 -271 -37q-158 0 -267 59.5t-176 159t-97.5 221t-30.5 248.5q0 199 47 339 t160 263q66 70 153.5 109t187 55.5t193.5 16.5q59 0 119 -9.5t117 -29.5l239 2q72 0 160 3l176 6t160 3h51.5t42.5 -2l-4 -102l-8 -15q-53 4 -124 7t-138.5 6.5t-113.5 5.5t-52 2h-82q-31 -6 -40 -54.5t-9 -101.5v-340q0 -27 39 -28t96 -1q82 0 184.5 4.5t184.5 10.5l12 -15 zM274 713q0 -143 34 -273.5t128 -234.5q92 -102 180.5 -130t147.5 -28q150 0 246 77t149 193v744q-53 123 -150.5 207t-248.5 84q-133 0 -225.5 -55.5t-149.5 -147.5t-84 -205.5t-27 -230.5z" />
<glyph unicode="&#x153;" horiz-adv-x="1669" d="M1577 653l-578 -250q6 -63 34 -130.5t84.5 -112.5t146.5 -45q84 0 164.5 43t150.5 96l23 -4l26 -37q-63 -59 -138 -113.5t-158 -89.5t-171 -35q-102 0 -167.5 43t-102.5 111l-8 -8q-72 -82 -175.5 -116t-211.5 -34q-141 0 -226.5 62.5t-124.5 161t-47 206.5 q0 106 19.5 213t93.5 187q72 80 175 115.5t210 35.5q121 0 199.5 -45t126.5 -116l4 4q76 88 181 136t222 48q133 0 212 -82t79 -201q0 -18 -13.5 -26.5t-29.5 -16.5zM1085 811q-59 -63 -76.5 -133t-17.5 -146q0 -8 1 -17t3 -19l9 -9l413 164q10 4 18.5 16.5t8.5 37.5 q0 43 -22.5 88t-64.5 74.5t-100 29.5q-51 0 -95 -22.5t-77 -63.5zM291 647q-8 -39 -12.5 -78t-4.5 -80q0 -63 12.5 -139t42 -142.5t84 -109.5t138.5 -43t136 37t81 96.5t40 129t11 133.5q0 63 -10 135.5t-38 138.5t-82 106.5t-140 40.5q-82 0 -155.5 -55t-102.5 -170z" />
<glyph unicode="&#x237;" horiz-adv-x="589" d="M37 768l-27 37q43 33 93.5 68.5t100.5 60t95 24.5q74 0 97.5 -43t27.5 -94q6 -33 9 -104.5t4 -153.5t1 -150.5v-97.5v-67t-3 -120t-7 -126t-14 -86q-45 -133 -153.5 -228.5t-248.5 -160.5l-32 33q115 68 178 138.5t84 145.5q12 47 20 114t12.5 136.5t6.5 129t2 91.5 q0 186 -4.5 292t-13.5 155t-26.5 61.5t-45.5 12.5q-25 0 -71 -24t-85 -44z" />
<glyph unicode="&#x2da;" horiz-adv-x="1024" d="M313 1178q0 84 58.5 141t140.5 57q84 0 141.5 -57t57.5 -141q0 -82 -57.5 -140.5t-141.5 -58.5q-82 0 -140.5 58.5t-58.5 140.5zM375 1178q0 -57 40 -97.5t97 -40.5t97 40t40 98q0 57 -40 97t-97 40t-97 -40t-40 -97z" />
<glyph unicode="&#x2dc;" horiz-adv-x="1024" d="M510 1270l96 -43q23 -8 46.5 -14.5t47.5 -4.5q37 4 53.5 24.5t30.5 55.5l27 -10q-2 -29 -16.5 -71t-39 -74.5t-57.5 -36.5t-66.5 3t-64.5 21l-129 62q-23 10 -49.5 16t-52.5 2q-37 -4 -56.5 -25.5t-37.5 -72.5l-29 10q8 37 24.5 82t42 80t60.5 39q41 6 86 -9.5t84 -33.5z " />
<glyph unicode="&#x300;" d="M66 1047l-332 315l96 74l27 -4l245 -322z" />
<glyph unicode="&#x301;" d="M-96 1044l-37 64l246 322l26 4l97 -74z" />
<glyph unicode="&#x302;" d="M12 1417l322 -327l-80 -54l-248 254l-293 -268l-47 25z" />
<glyph unicode="&#x303;" d="M-4 1270l96 -43q23 -8 46.5 -14.5t47.5 -4.5q37 4 53.5 24.5t30.5 55.5l27 -10q-2 -29 -16.5 -71t-39 -74.5t-57.5 -36.5t-66.5 3t-64.5 21l-129 62q-23 10 -49.5 16t-52.5 2q-37 -4 -56.5 -25.5t-37.5 -72.5l-29 10q8 37 24.5 82t42 80t60.5 39q41 6 86 -9.5t84 -33.5z " />
<glyph unicode="&#x304;" d="M236 1137h-484l15 82h481z" />
<glyph unicode="&#x308;" d="M328 1219q-2 -51 -38 -83t-85 -32t-84 35t-35 84q0 53 43 83.5t88 30.5q53 0 82 -35.5t29 -82.5zM-86 1219q-2 -51 -38 -83t-85 -32t-84 35t-35 84q0 53 43 83.5t88 30.5q53 0 82 -35.5t29 -82.5z" />
<glyph unicode="&#x30a;" d="M-199 1178q0 84 58.5 141t140.5 57q84 0 141.5 -57t57.5 -141q0 -82 -57.5 -140.5t-141.5 -58.5q-82 0 -140.5 58.5t-58.5 140.5zM-137 1178q0 -57 40 -97.5t97 -40.5t97 40t40 98q0 57 -40 97t-97 40t-97 -40t-40 -97z" />
<glyph unicode="&#x327;" d="M-41 12h74l-41 -96q20 -8 69.5 -33.5t77.5 -60.5q35 -43 44.5 -96.5t-31.5 -108.5q-33 -45 -88.5 -73.5t-118 -46t-117.5 -27.5l-12 30l10 21q41 16 84 37.5t63 48.5q29 39 12.5 71.5t-55.5 57t-77 35.5z" />
<glyph unicode="&#x60c;" horiz-adv-x="570" d="M275 2q-83 -16 -142 103.5t131 686.5l1 4l63 63q-5 -32 -57 -228t-18.5 -321.5t166.5 -2.5q20 8 26 2q5 -5 4 -16q-13 -280 -174 -291z" />
<glyph unicode="&#x61b;" horiz-adv-x="570" d="M115 174l181 188q6 7 13 7q6 0 13 -6l149 -144q7 -7 7 -13t-6 -12l-182 -188q-6 -6 -13 -6q-6 0 -13 5l-148 144q-7 6 -7 13q0 6 6 12zM275 471q-83 -16 -142 103.5t131 686.5l1 4l63 63q-5 -32 -57 -228t-18.5 -321.5t166.5 -2.5q20 8 26 2q5 -5 4 -16 q-13 -280 -174 -291z" />
<glyph unicode="&#x61f;" horiz-adv-x="707" d="M657 1548q-18 -66 -39.5 -131t-48.5 -127q-6 -13 -26 -21q-6 -3 -10 -3q-10 0 -11 15q-12 144 -168 151h-13q-91 0 -158 -51q15 -77 62 -128t94 -98q71 -73 130 -160t72 -216q-5 -121 -45.5 -208.5t-82.5 -170.5q-4 -6 -14 -7q-2 -1 -3 -1q-5 0 -5 5q0 3 1 6 q22 72 22 138q0 77 -29 145q-55 126 -136 201q-52 47 -96.5 102.5t-72.5 125.5q-7 37 -7 76q0 136 82 300q97 198 294 198q13 0 26 -1q61 -4 100.5 -37.5t65.5 -75.5q3 -6 4.5 -13t11.5 -14zM218 174l181 188q6 7 13 7q6 0 13 -6l149 -144q7 -7 7 -13t-6 -12l-182 -188 q-6 -6 -13 -6q-6 0 -13 5l-148 144q-7 6 -7 13q0 6 6 12z" />
<glyph unicode="&#x621;" horiz-adv-x="883" d="M666 667q-52 -14 -94.5 -30t-87.5 -55q26 -44 77 -61t88.5 -37.5t43.5 -59.5q1 -4 1 -8q0 -40 -59 -120q-53 -72 -105.5 -144t-131.5 -115q-48 -27 -138 -33q-49 -3 -87 -3q-31 0 -55 2q-18 2 -18 9q0 9 27 26q49 31 125.5 66.5t148.5 65.5t77 32q25 11 28 21v4 q0 19 -38 28q-69 16 -108 52q-50 43 -50 87q0 10 3 21q14 54 50 112q67 108 179.5 210t205.5 134q14 5 22 5q13 0 13 -11q0 -3 -1 -5q-5 -26 -28 -65t-52 -77.5t-36 -50.5z" />
<glyph unicode="&#x622;" horiz-adv-x="509" d="M150 1165l151 240l58 -870l-151 -240zM600 1730l-90 -115q-75 -48 -200 -73q-38 -8 -75 -8q-84 0 -160 40q-9 4 -17 4q-10 0 -18 -5q-17 -11 -31 -19q-30 -18 -81 -72q-17 -18 -22 -18q-1 0 -1 2q0 11 34 70q54 94 161 148q5 2 10 2q11 0 26 -7q81 -41 170 -41q40 0 82 8 q134 27 204 89q3 3 5 3q3 0 3 -8z" />
<glyph unicode="&#x623;" horiz-adv-x="509" d="M150 1165l151 240l58 -870l-151 -240zM322 1839q-13 -28 -44 -41t-54 -45q18 -21 49 -29t55 -23q27 -18 27 -47q0 -17 -8 -36q-23 -55 -79 -95q-48 -35 -100.5 -43t-107.5 -17q47 21 96 42t94 46q14 9 14 16q0 3 -4 6q-18 10 -39.5 19.5t-38.5 19.5q-38 20 -38 56 q0 38 44 95q84 109 125 140q17 13 53 29z" />
<glyph unicode="&#x624;" horiz-adv-x="1007" d="M470 17q-93 -17 -189 -17q-20 0 -41 1q-117 4 -229 16q-11 0 -11 12q0 11 9 17q159 88 338 156.5t356 140.5q91 36 156 109q5 7 5 18q0 8 -2 18q-6 25 -17 41q-36 -9 -76 -9q-15 0 -30 2q-57 4 -83 34q-23 25 -23 58q0 30 19 67q34 66 65 137t80 126q16 18 37 18 q10 0 21 -4q35 -13 53 -31q95 -97 95 -233v-13q-5 -145 -77.5 -283.5t-195 -246t-260.5 -134.5zM865 1461q-13 -28 -44 -41t-54 -45q18 -21 49 -29t55 -23q27 -18 27 -47q0 -17 -8 -36q-23 -55 -79 -95q-48 -35 -100.5 -43t-107.5 -17q47 21 96 42t94 46q14 9 14 16 q0 3 -4 6q-18 10 -39.5 19.5t-38.5 19.5q-38 20 -38 56q0 38 44 95q84 109 125 140q17 13 53 29z" />
<glyph unicode="&#x625;" horiz-adv-x="509" d="M150 1165l151 240l58 -870l-151 -240zM338 174q-13 -28 -44 -41t-54 -45q18 -21 49 -29t55 -23q27 -18 27 -47q0 -17 -8 -36q-23 -55 -79 -95q-48 -35 -100.5 -43t-107.5 -17q47 21 96 42t94 46q14 9 14 16q0 3 -4 6q-18 10 -39.5 19.5t-38.5 19.5q-38 20 -38 56 q0 38 44 95q84 109 125 140q17 13 53 29z" />
<glyph unicode="&#x626;" horiz-adv-x="1261" d="M160 48q-133 73 -151 203q-6 40 -6 82q0 91 28 188q40 141 113.5 270.5t125.5 201.5q4 5 9 5q2 0 5 -1q4 -1 4 -6q0 -3 -2 -8q-30 -63 -76 -147.5t-74 -172.5q-21 -68 -21 -134q0 -20 2 -39q8 -85 87 -146q69 -54 190 -62q33 -2 66 -2q84 0 161 15q239 43 435 170 q-104 10 -189.5 46.5t-109.5 119.5q-5 19 -5 41q0 80 71 207q91 162 156 224q28 28 71.5 61.5t97.5 36.5q6 0 20 -3q10 -2 10 -10q0 -4 -2 -8q-26 -55 -47 -112.5t-51 -106.5q-15 4 -31 4q-28 0 -60 -11q-53 -19 -76 -53q-11 -16 -11 -33q0 -20 15 -42q27 -41 150 -75 q42 -12 88 -18.5t73 -35.5q33 -35 33 -82q0 -56 -48 -130q-65 -101 -192.5 -206t-278.5 -178.5t-305 -95.5q-40 -6 -76 -6q-109 0 -199 49zM660 1488q-13 -28 -44 -41t-54 -45q18 -21 49 -29t55 -23q27 -18 27 -47q0 -17 -8 -36q-23 -55 -79 -95q-48 -35 -100.5 -43 t-107.5 -17q47 21 96 42t94 46q14 9 14 16q0 3 -4 6q-18 10 -39.5 19.5t-38.5 19.5q-38 20 -38 56q0 38 44 95q84 109 125 140q17 13 53 29z" />
<glyph unicode="&#x627;" horiz-adv-x="509" d="M150 1165l151 240l58 -870l-151 -240z" />
<glyph unicode="&#x628;" horiz-adv-x="1641" d="M1431 440q-65 -136 -248 -248.5t-388 -160.5q-121 -29 -232 -29q-79 0 -154 15q-180 34 -239 194q-20 54 -20 113q0 83 41 176q70 156 145 274q13 18 27 18q5 0 10 -2q11 -5 11 -18q0 -9 -6 -23q-84 -157 -84 -258q0 -19 3 -35q18 -108 110 -156q87 -47 219 -47q7 0 14 1 q141 2 288 38q146 35 275 98l128 63v4q0 38 -20 109q-22 73 -43 135l157 232l49 -150q17 -53 17 -110q0 -108 -60 -233zM792 -254q-42 -54 -84 -106l-84 -104l-144 135q41 53 83.5 105t84.5 105z" />
<glyph unicode="&#x629;" horiz-adv-x="506" d="M283 546q-22 15 -43 15q-48 0 -88 -81q-58 -118 -63 -141q-1 -3 -1 -5q0 -12 28 -25q36 -16 73 -16q26 0 52 8q64 17 109 45q11 7 11 25q0 26 -21 76q-37 85 -57 99zM444 345q-25 -114 -78 -208t-182 -127q-43 -11 -76 -11q-106 0 -106 117q0 2 1 3q1 157 61 335 q87 255 172 335q55 53 100 53q23 0 43 -14q59 -41 81 -175q8 -50 8 -104q0 -94 -24 -204zM430 1066q-99 -18 -197 -36.5t-196 -36.5l122 244q214 38 394 73z" />
<glyph unicode="&#x62a;" horiz-adv-x="1641" d="M1431 440q-65 -136 -248 -248.5t-388 -160.5q-121 -29 -232 -29q-79 0 -154 15q-180 34 -239 194q-20 54 -20 113q0 83 41 176q70 156 145 274q13 18 27 18q5 0 10 -2q11 -5 11 -18q0 -9 -6 -23q-84 -157 -84 -258q0 -19 3 -35q18 -108 110 -156q87 -47 219 -47q7 0 14 1 q141 2 288 38q146 35 275 98l128 63v4q0 38 -20 109q-22 73 -43 135l157 232l49 -150q17 -53 17 -110q0 -108 -60 -233zM947 958q-99 -18 -197 -36.5t-196 -36.5l122 244q214 38 394 73z" />
<glyph unicode="&#x62b;" horiz-adv-x="1641" d="M1431 440q-65 -136 -248 -248.5t-388 -160.5q-121 -29 -232 -29q-79 0 -154 15q-180 34 -239 194q-20 54 -20 113q0 83 41 176q70 156 145 274q13 18 27 18q5 0 10 -2q11 -5 11 -18q0 -9 -6 -23q-84 -157 -84 -258q0 -19 3 -35q18 -108 110 -156q87 -47 219 -47q7 0 14 1 q141 2 288 38q146 35 275 98l128 63v4q0 38 -20 109q-22 73 -43 135l157 232l49 -150q17 -53 17 -110q0 -108 -60 -233zM1115 1188q-30 -63 -69.5 -121.5t-80.5 -111.5q-7 -9 -14 -9q-9 0 -17 20q-43 106 -95 106h-6q-56 -7 -108.5 -66.5t-95 -136.5t-61.5 -103l-1 89l2 3 q26 51 78.5 141t116.5 175q63 84 133 133q29 19 58 19q43 0 88 -41q40 -39 72 -97z" />
<glyph unicode="&#x62c;" horiz-adv-x="1400" d="M792 815q-26 77 -138 77q-20 0 -43 -2q-151 -17 -196 -54q22 -58 58 -108.5t60 -104.5q62 45 134 94t125 98zM1327 -379q-125 -151 -330.5 -246.5t-410.5 -109.5q-31 -2 -60 -2q-170 0 -310 69q-164 80 -206 280q-11 55 -11 112q0 174 101 376q134 270 272 397 q-86 96 -86 226q0 43 10 90q37 189 139 262q67 47 205 69q47 7 90 7q82 0 147 -27t65 -102q0 -41 -20 -97q-56 -158 -96 -216q-51 -70 -113 -128t-122 -111q-43 -38 -142.5 -128t-189.5 -196.5t-138 -211.5q-22 -47 -22 -87q0 -48 33 -86q104 -117 249.5 -167t304.5 -55 q27 -1 54 -1q132 0 265 22q160 27 294 61q18 5 25 5q4 0 4 -2q0 -1 -1 -3zM945 75q-42 -54 -84 -106l-84 -104l-144 135q41 53 83.5 105t84.5 105z" />
<glyph unicode="&#x62d;" horiz-adv-x="1400" d="M792 815q-26 77 -138 77q-20 0 -43 -2q-151 -17 -196 -54q22 -58 58 -108.5t60 -104.5q62 45 134 94t125 98zM1327 -379q-125 -151 -330.5 -246.5t-410.5 -109.5q-31 -2 -60 -2q-170 0 -310 69q-164 80 -206 280q-11 55 -11 112q0 174 101 376q134 270 272 397 q-86 96 -86 226q0 43 10 90q37 189 139 262q67 47 205 69q47 7 90 7q82 0 147 -27t65 -102q0 -41 -20 -97q-56 -158 -96 -216q-51 -70 -113 -128t-122 -111q-43 -38 -142.5 -128t-189.5 -196.5t-138 -211.5q-22 -47 -22 -87q0 -48 33 -86q104 -117 249.5 -167t304.5 -55 q27 -1 54 -1q132 0 265 22q160 27 294 61q18 5 25 5q4 0 4 -2q0 -1 -1 -3z" />
<glyph unicode="&#x62e;" horiz-adv-x="1400" d="M792 815q-26 77 -138 77q-20 0 -43 -2q-151 -17 -196 -54q22 -58 58 -108.5t60 -104.5q62 45 134 94t125 98zM1327 -379q-125 -151 -330.5 -246.5t-410.5 -109.5q-31 -2 -60 -2q-170 0 -310 69q-164 80 -206 280q-11 55 -11 112q0 174 101 376q134 270 272 397 q-86 96 -86 226q0 43 10 90q37 189 139 262q67 47 205 69q47 7 90 7q82 0 147 -27t65 -102q0 -41 -20 -97q-56 -158 -96 -216q-51 -70 -113 -128t-122 -111q-43 -38 -142.5 -128t-189.5 -196.5t-138 -211.5q-22 -47 -22 -87q0 -48 33 -86q104 -117 249.5 -167t304.5 -55 q27 -1 54 -1q132 0 265 22q160 27 294 61q18 5 25 5q4 0 4 -2q0 -1 -1 -3zM792 1538q-42 -54 -84 -106l-84 -104l-144 135q41 53 83.5 105t84.5 105z" />
<glyph unicode="&#x62f;" horiz-adv-x="752" d="M495 637l157 232l24 -55q23 -55 32 -143q2 -25 2 -51q0 -69 -16 -148q-24 -111 -117 -222q-69 -80 -153 -124q-71 -38 -205 -71t-219 -55l152 273q91 16 210.5 49t196.5 67l-1 -1v7q0 39 -20 107q-22 73 -43 135z" />
<glyph unicode="&#x630;" horiz-adv-x="752" d="M495 637l157 232l24 -55q23 -55 32 -143q2 -25 2 -51q0 -69 -16 -148q-24 -111 -117 -222q-69 -80 -153 -124q-71 -38 -205 -71t-219 -55l152 273q91 16 210.5 49t196.5 67l-1 -1v7q0 39 -20 107q-22 73 -43 135zM639 1177q-42 -54 -84 -106l-84 -104l-144 135 q41 53 83.5 105t84.5 105z" />
<glyph unicode="&#x631;" horiz-adv-x="961" d="M916 557q-21 -104 -65 -216t-92 -169q-69 -84 -175 -129q-99 -43 -242 -43h-19q-120 3 -208 12.5t-109 30.5q-5 5 -5 12q0 18 46 45q62 35 244 92q124 39 242 83.5t216 110.5q94 64 142 171q5 12 14 12h1q9 -1 10 -12z" />
<glyph unicode="&#x632;" horiz-adv-x="961" d="M916 557q-21 -104 -65 -216t-92 -169q-69 -84 -175 -129q-99 -43 -242 -43h-19q-120 3 -208 12.5t-109 30.5q-5 5 -5 12q0 18 46 45q62 35 244 92q124 39 242 83.5t216 110.5q94 64 142 171q5 12 14 12h1q9 -1 10 -12zM900 961q-42 -54 -84 -106l-84 -104l-144 135 q41 53 83.5 105t84.5 105z" />
<glyph unicode="&#x633;" horiz-adv-x="1912" d="M873 593q-39 -103 -66 -172.5t-91 -162.5q-113 -162 -284 -225q-89 -32 -164 -32q-70 0 -129 29q-122 59 -139 255q-1 16 -1 32q0 192 180 521q10 19 19 19q3 0 6 -1q6 -3 6 -13q0 -11 -7 -29q-24 -53 -61.5 -126t-56.5 -146q-10 -41 -10 -79q0 -30 7 -59q15 -64 97 -99 q66 -12 127 -12q107 0 202 37q148 57 246 147v18q0 67 -12 126q-15 66 -36 139l108 271q33 -70 50 -121q14 -45 61 -45q7 0 15 1q192 40 381 82t354 108q98 38 132 92q1 2 3 2t5 -2q6 -4 6 -7q-42 -126 -90.5 -246.5t-102.5 -235.5q-11 -23 -27 -23q-9 0 -19 8q-8 6 -8 21 q0 14 7 36q9 30 24.5 59t27.5 59q-167 -75 -373 -122.5t-387 -103.5z" />
<glyph unicode="&#x634;" horiz-adv-x="1912" d="M873 593q-39 -103 -66 -172.5t-91 -162.5q-113 -162 -284 -225q-89 -32 -164 -32q-70 0 -129 29q-122 59 -139 255q-1 16 -1 32q0 192 180 521q10 19 19 19q3 0 6 -1q6 -3 6 -13q0 -11 -7 -29q-24 -53 -61.5 -126t-56.5 -146q-10 -41 -10 -79q0 -30 7 -59q15 -64 97 -99 q66 -12 127 -12q107 0 202 37q148 57 246 147v18q0 67 -12 126q-15 66 -36 139l108 271q33 -70 50 -121q14 -45 61 -45q7 0 15 1q192 40 381 82t354 108q98 38 132 92q1 2 3 2t5 -2q6 -4 6 -7q-42 -126 -90.5 -246.5t-102.5 -235.5q-11 -23 -27 -23q-9 0 -19 8q-8 6 -8 21 q0 14 7 36q9 30 24.5 59t27.5 59q-167 -75 -373 -122.5t-387 -103.5zM1597 1593q-30 -63 -69.5 -121.5t-80.5 -111.5q-7 -9 -14 -9q-9 0 -17 20q-43 106 -95 106h-6q-56 -7 -108.5 -66.5t-95 -136.5t-61.5 -103l-1 89l2 3q26 51 78.5 141t116.5 175q63 84 133 133 q29 19 58 19q43 0 88 -41q40 -39 72 -97z" />
<glyph unicode="&#x635;" horiz-adv-x="1806" d="M716 258q-113 -162 -284 -225q-89 -32 -164 -32q-70 0 -129 29q-122 59 -139 255q-1 16 -1 32q0 192 180 521q10 19 19 19q3 0 6 -1q6 -3 6 -13q0 -11 -7 -29q-24 -53 -61.5 -126t-56.5 -146q-10 -41 -10 -79q0 -30 7 -59q15 -64 97 -99q66 -12 127 -12q107 0 202 37 q148 57 246 147v18q0 75 -14 139q-17 72 -38 141l112 256q51 -113 72 -161q14 -34 62 -34q21 0 48 6v1l2 2q87 101 178 198.5t189 188.5q48 45 144 63q22 4 41 4q67 0 107 -47q37 -46 37 -94q0 -34 -18 -68q-44 -85 -95 -154q-81 -110 -209.5 -185.5t-261.5 -108.5 q-130 -34 -249 -51q-38 -177 -145 -333zM1478 1021q-19 34 -69 49q-20 6 -38 6q-30 0 -56 -15q-72 -39 -128 -95l-112 -112q108 21 210 46t190 67q14 7 14 22q0 13 -11 32z" />
<glyph unicode="&#x636;" horiz-adv-x="1806" d="M716 258q-113 -162 -284 -225q-89 -32 -164 -32q-70 0 -129 29q-122 59 -139 255q-1 16 -1 32q0 192 180 521q10 19 19 19q3 0 6 -1q6 -3 6 -13q0 -11 -7 -29q-24 -53 -61.5 -126t-56.5 -146q-10 -41 -10 -79q0 -30 7 -59q15 -64 97 -99q66 -12 127 -12q107 0 202 37 q148 57 246 147v18q0 75 -14 139q-17 72 -38 141l112 256q51 -113 72 -161q14 -34 62 -34q21 0 48 6v1l2 2q87 101 178 198.5t189 188.5q48 45 144 63q22 4 41 4q67 0 107 -47q37 -46 37 -94q0 -34 -18 -68q-44 -85 -95 -154q-81 -110 -209.5 -185.5t-261.5 -108.5 q-130 -34 -249 -51q-38 -177 -145 -333zM1478 1021q-19 34 -69 49q-20 6 -38 6q-30 0 -56 -15q-72 -39 -128 -95l-112 -112q108 21 210 46t190 67q14 7 14 22q0 13 -11 32zM1412 1625q-42 -54 -84 -106l-84 -104l-144 135q41 53 83.5 105t84.5 105z" />
<glyph unicode="&#x637;" horiz-adv-x="1395" d="M1089 433q-19 33 -70 48q-20 6 -39 6q-29 0 -54 -14q-72 -39 -128 -95t-112 -113q108 21 209.5 46.5t189.5 67.5q13 6 13 22q0 12 -9 32zM933 163.5q-151 -84.5 -352 -136.5q-100 -27 -178 -27q-19 0 -37 2q-209 44 -360 182q-4 2 -2 14q3 10 12 10q51 -2 100 -2 q104 0 204 9q148 12 283 35q88 102 181 201.5t192 192.5q102 77 177 72t115 -53q61 -94 -61.5 -254.5t-273.5 -245zM604 981l151 240l44 -657l-151 -240z" />
<glyph unicode="&#x638;" horiz-adv-x="1395" d="M1089 433q-19 33 -70 48q-20 6 -39 6q-29 0 -54 -14q-72 -39 -128 -95t-112 -113q108 21 209.5 46.5t189.5 67.5q13 6 13 22q0 12 -9 32zM933 163.5q-151 -84.5 -352 -136.5q-100 -27 -178 -27q-19 0 -37 2q-209 44 -360 182q-4 2 -2 14q3 10 12 10q51 -2 100 -2 q104 0 204 9q148 12 283 35q88 102 181 201.5t192 192.5q102 77 177 72t115 -53q61 -94 -61.5 -254.5t-273.5 -245zM604 981l151 240l44 -657l-151 -240zM1206 997q-42 -54 -84 -106l-84 -104l-144 135q41 53 83.5 105t84.5 105z" />
<glyph unicode="&#x639;" horiz-adv-x="1400" d="M422 534q-27 24 -62 69q-70 86 -86 199q-6 45 -6 88q0 65 14 125q24 100 81 169q55 67 131 67h2q53 -2 100 -13t98 -22l-86 -266q-109 33 -215 43q12 -75 38.5 -119.5t75.5 -86.5q38 -38 92 -38q47 0 107 29q126 63 219 153l-92 -237q-22 -55 -101.5 -116t-140.5 -114 q-43 -38 -142.5 -128t-189.5 -196.5t-138 -211.5q-22 -47 -22 -87q0 -48 33 -86q104 -117 249.5 -167t304.5 -55q27 -1 54 -1q132 0 265 22q160 27 294 61q18 5 25 5q4 0 4 -2q0 -1 -1 -3q-125 -151 -330.5 -246.5t-410.5 -109.5q-31 -2 -60 -2q-170 0 -310 69 q-164 80 -206 281q-11 53 -11 111q0 177 105 391q138 283 318 425z" />
<glyph unicode="&#x63a;" horiz-adv-x="1400" d="M422 534q-27 24 -62 69q-70 86 -86 199q-6 45 -6 88q0 65 14 125q24 100 81 169q55 67 131 67h2q53 -2 100 -13t98 -22l-86 -266q-109 33 -215 43q12 -75 38.5 -119.5t75.5 -86.5q38 -38 92 -38q47 0 107 29q126 63 219 153l-92 -237q-22 -55 -101.5 -116t-140.5 -114 q-43 -38 -142.5 -128t-189.5 -196.5t-138 -211.5q-22 -47 -22 -87q0 -48 33 -86q104 -117 249.5 -167t304.5 -55q27 -1 54 -1q132 0 265 22q160 27 294 61q18 5 25 5q4 0 4 -2q0 -1 -1 -3q-125 -151 -330.5 -246.5t-410.5 -109.5q-31 -2 -60 -2q-170 0 -310 69 q-164 80 -206 281q-11 53 -11 111q0 177 105 391q138 283 318 425zM558 1573q-42 -54 -84 -106l-84 -104l-144 135q41 53 83.5 105t84.5 105z" />
<glyph unicode="&#x640;" />
<glyph unicode="&#x641;" horiz-adv-x="1392" d="M1186 276q-74 -81 -168.5 -134t-198.5 -85q-134 -40 -315 -55q-32 -3 -62 -3q-141 0 -246 59q-94 54 -129 152q-20 55 -20 113q0 84 41 176q70 156 145 274q13 18 27 18q5 0 10 -1q11 -5 11 -18q0 -9 -6 -23q-90 -166 -90 -272q0 -81 53 -127q109 -96 300 -96q20 0 41 1 h1q109 8 332.5 63.5t317.5 139.5l-25 74q-21 60 -35 60q-4 0 -7 -4q-33 -28 -85 -44q-21 -6 -41 -6q-30 0 -59 14t-30 56q-1 4 -1 7q0 37 15 64q33 63 64.5 129.5t73.5 123.5q31 42 66 42q22 0 46 -17q61 -44 100 -119q40 -79 40 -167q0 -62 -20 -129q-50 -160 -146 -266z M1152 1357q-42 -54 -84 -106l-84 -104l-144 135q41 53 83.5 105t84.5 105z" />
<glyph unicode="&#x642;" horiz-adv-x="1300" d="M1025 256q-92 -132 -227 -198.5t-253.5 -55.5t-190 106.5t-34.5 289.5q12 62 11 115q-1 13 -5 33t-21 17q-184 -29 -292 -175q24 75 49 149t55 146q56 51 124 90t161 54q37 4 37 -31q-3 -70 -20.5 -159t-9.5 -168q11 -127 94 -161t188.5 -14t210.5 75t161 107 q0 41 -4.5 100t-24.5 88q-51 -12 -107.5 -7.5t-82.5 34.5q-44 48 -3 125q33 66 64 137t80 126q24 27 58.5 14t53.5 -31q142 -145 87 -400t-159 -406z" />
<glyph unicode="&#x643;" horiz-adv-x="1164" d="M1000 446q7 6 7 31v13l-57 755l151 251l60 -791q1 -11 1 -22q0 -82 -34 -159q-39 -87 -88 -163q-76 -115 -224.5 -209t-307.5 -131q-80 -19 -155 -19q-73 0 -142 19q-138 36 -193 183q-21 55 -21 114q0 87 45 183q75 161 151 279q239 373 391 402q26 5 49 5 q109 0 139 -110q11 -39 11 -83q0 -110 -65 -253q-91 -203 -338 -291l88 268q57 12 84 24.5t80 37.5q-26 156 -113 156q-23 0 -51 -11q-131 -53 -204 -160q-71 -103 -130 -211q-18 -33 -18 -66q0 -75 96 -149q72 -57 179 -60q13 -1 26 -1q94 0 193 22q112 25 217 67.5 t173 78.5z" />
<glyph unicode="&#x644;" horiz-adv-x="913" d="M672 1363l152 241l50 -799q2 -18 2 -28l2 -23l-1 -4q0 -131 -43 -257.5t-118 -234.5q-113 -162 -284 -225q-89 -32 -164 -32q-70 0 -129 29q-122 59 -139 255q-1 16 -1 32q0 192 180 521q10 19 19 19q3 0 6 -1q6 -3 6 -13q0 -11 -7 -29q-24 -53 -61.5 -126t-56.5 -146 q-10 -41 -10 -79q0 -30 7 -59q15 -64 97 -99q65 -11 125 -11q99 0 187 30q141 49 240 133z" />
<glyph unicode="&#x645;" horiz-adv-x="1036" d="M972 950q-36 -181 -117.5 -271t-228.5 -164q-100 -51 -226 -77t-225 -80q-40 -21 -76.5 -54.5t-25.5 -99.5l84 -534q27 -217 -27 -407q-29 216 -79 415.5t-51 422.5q0 111 23 217t62 193q51 79 139.5 116t201.5 69l149 42q27 59 78.5 172t106.5 113q37 12 132 8.5 t80 -81.5z" />
<glyph unicode="&#x646;" horiz-adv-x="950" d="M200 772l-6 -13q-56 -111 -108 -251q-14 -37 -14 -69q0 -88 107 -134q66 -12 127 -12q107 0 202 37q148 57 246 147v18q0 75 -14 139q-17 72 -38 141l112 256q65 -136 65 -280q0 -59 -11 -118q-37 -208 -152 -375q-113 -162 -284 -225q-89 -32 -164 -32q-70 0 -129 29 q-122 59 -139 255q-1 16 -1 32q0 192 180 521q24 45 53.5 96t56.5 98l31 -17l3 -2l161 -108q-33 -61 -66 -119l-66 -116z" />
<glyph unicode="&#x647;" horiz-adv-x="506" d="M283 546q-22 15 -43 15q-48 0 -88 -81q-58 -118 -63 -141q-1 -3 -1 -5q0 -12 28 -25q36 -16 73 -16q26 0 52 8q64 17 109 45q11 7 11 25q0 26 -21 76q-37 85 -57 99zM444 345q-25 -114 -78 -208t-182 -127q-43 -11 -76 -11q-106 0 -106 117q0 2 1 3q1 157 61 335 q87 255 172 335q55 53 100 53q23 0 43 -14q59 -41 81 -175q8 -50 8 -104q0 -94 -24 -204z" />
<glyph unicode="&#x648;" horiz-adv-x="1007" d="M470 17q-93 -17 -189 -17q-20 0 -41 1q-117 4 -229 16q-11 0 -11 12q0 11 9 17q159 88 338 156.5t356 140.5q91 36 156 109q5 7 5 18q0 8 -2 18q-6 25 -17 41q-36 -9 -76 -9q-15 0 -30 2q-57 4 -83 34q-23 25 -23 58q0 30 19 67q34 66 65 137t80 126q16 18 37 18 q10 0 21 -4q35 -13 53 -31q95 -97 95 -233v-13q-5 -145 -77.5 -283.5t-195 -246t-260.5 -134.5z" />
<glyph unicode="&#x649;" horiz-adv-x="1261" d="M160 48q-133 73 -151 203q-6 40 -6 82q0 91 28 188q40 141 113.5 270.5t125.5 201.5q4 5 9 5q2 0 5 -1q4 -1 4 -6q0 -3 -2 -8q-30 -63 -76 -147.5t-74 -172.5q-21 -68 -21 -134q0 -20 2 -39q8 -85 87 -146q69 -54 190 -62q33 -2 66 -2q84 0 161 15q239 43 435 170 q-104 10 -189.5 46.5t-109.5 119.5q-5 19 -5 41q0 80 71 207q91 162 156 224q28 28 71.5 61.5t97.5 36.5q6 0 20 -3q10 -2 10 -10q0 -4 -2 -8q-26 -55 -47 -112.5t-51 -106.5q-15 4 -31 4q-28 0 -60 -11q-53 -19 -76 -53q-11 -16 -11 -33q0 -20 15 -42q27 -41 150 -75 q42 -12 88 -18.5t73 -35.5q33 -35 33 -82q0 -56 -48 -130q-65 -101 -192.5 -206t-278.5 -178.5t-305 -95.5q-40 -6 -76 -6q-109 0 -199 49z" />
<glyph unicode="&#x64a;" horiz-adv-x="1261" d="M160 48q-133 73 -151 203q-6 40 -6 82q0 91 28 188q40 141 113.5 270.5t125.5 201.5q4 5 9 5q2 0 5 -1q4 -1 4 -6q0 -3 -2 -8q-30 -63 -76 -147.5t-74 -172.5q-21 -68 -21 -134q0 -20 2 -39q8 -85 87 -146q69 -54 190 -62q33 -2 66 -2q84 0 161 15q239 43 435 170 q-104 10 -189.5 46.5t-109.5 119.5q-5 19 -5 41q0 80 71 207q91 162 156 224q28 28 71.5 61.5t97.5 36.5q6 0 20 -3q10 -2 10 -10q0 -4 -2 -8q-26 -55 -47 -112.5t-51 -106.5q-15 4 -31 4q-28 0 -60 -11q-53 -19 -76 -53q-11 -16 -11 -33q0 -20 15 -42q27 -41 150 -75 q42 -12 88 -18.5t73 -35.5q33 -35 33 -82q0 -56 -48 -130q-65 -101 -192.5 -206t-278.5 -178.5t-305 -95.5q-40 -6 -76 -6q-109 0 -199 49zM664 -275q-99 -18 -197 -36.5t-196 -36.5l122 244q214 38 394 73z" />
<glyph unicode="&#x64b;" d="M-203 93h1q32 13 82 31.5t107.5 40t118.5 43.5t115 41l-59 -94q-110 -39 -224.5 -81t-207.5 -88zM-203 -41h1q32 13 82 31.5t107.5 40t118.5 43.5t115 41l-59 -94q-110 -39 -224.5 -81t-207.5 -88z" />
<glyph unicode="&#x64c;" d="M96 574q30 9 58.5 13t53 0t44 -15.5t31.5 -32.5q12 -19 15 -42t-0.5 -46t-13 -44.5t-21.5 -37.5q-6 -9 -13 -17t-12 -10t-6 4t4 25q18 78 -14 104.5t-115 9.5q-34 -7 -74 -26.5t-79.5 -47t-76 -60t-62.5 -66t-39.5 -64.5t-7.5 -55q5 -32 28 -42t51.5 -6.5t57.5 14.5 t47 21l-47 -100q-30 -20 -59.5 -27.5t-55.5 -2.5t-46.5 22t-32.5 47q-16 42 -8.5 89t31.5 87q51 112 146 190t216 116zM82 94q-29 17 -53.5 35t-35.5 43q-8 15 -8 32q0 11 3 23q7 30 41 71q34 39 68 53q16 7 30 7q15 0 28 -8q23 -15 28 -60q1 -8 1 -16q0 -43 -23 -111 q10 -7 17 -15.5t8 -21.5v-2q0 -12 -7 -29q-7 -19 -24 -46q-8 10 -16.5 15t-19.5 12q-37 -50 -74 -83t-81.5 -56.5t-95.5 -41.5t-115 -34l-14 -2q0 3 20 15q20 13 52 33.5t72 46t79 51.5t71 49t49 40zM122 182q5 25 5 42q0 9 -1 16q-4 20 -15 28q-9 6 -19 6h-5 q-13 -2 -23.5 -9t-14.5 -17q-2 -4 -2 -7q0 -7 6 -14q14 -15 31.5 -25t37.5 -20z" />
<glyph unicode="&#x64d;" d="M-203 93h1q32 13 82 31.5t107.5 40t118.5 43.5t115 41l-59 -94q-110 -39 -224.5 -81t-207.5 -88zM-203 -41h1q32 13 82 31.5t107.5 40t118.5 43.5t115 41l-59 -94q-110 -39 -224.5 -81t-207.5 -88z" />
<glyph unicode="&#x64e;" d="M-203 -47h1q32 13 82 31.5t107.5 40t118.5 43.5t115 41l-59 -94q-110 -39 -224.5 -81t-207.5 -88z" />
<glyph unicode="&#x64f;" d="M82 94q-29 17 -53.5 35t-35.5 43q-8 15 -8 32q0 11 3 23q7 30 41 71q34 39 68 53q16 7 30 7q15 0 28 -8q23 -15 28 -60q1 -8 1 -16q0 -43 -23 -111q10 -7 17 -15.5t8 -21.5v-2q0 -12 -7 -29q-7 -19 -24 -46q-8 10 -16.5 15t-19.5 12q-37 -50 -74 -83t-81.5 -56.5 t-95.5 -41.5t-115 -34l-14 -2q0 3 20 15q20 13 52 33.5t72 46t79 51.5t71 49t49 40zM122 182q5 25 5 42q0 9 -1 16q-4 20 -15 28q-9 6 -19 6h-5q-13 -2 -23.5 -9t-14.5 -17q-2 -4 -2 -7q0 -7 6 -14q14 -15 31.5 -25t37.5 -20z" />
<glyph unicode="&#x650;" d="M-203 94h1q32 13 82 31.5t107.5 40t118.5 43.5t115 41l-59 -94q-110 -39 -224.5 -81t-207.5 -88z" />
<glyph unicode="&#x651;" d="M-145 -148q-49 3 -68.5 30t-21.5 63q-1 8 -1 16q0 28 7 58q9 37 17 63q0 1 0.5 2t0.5 2q0 2 1 3.5t1 2.5q3 8 10.5 24.5t19.5 16.5v-2q0 -4 -2 -16q-4 -15 -6 -35q-2 -15 -2 -30v-12q1 -21 11.5 -36t32.5 -20q5 -1 13 -1q19 0 47 9q17 5 29 20t20 34.5t13.5 39.5t6.5 35 l30 30v-1q0 -3 -0.5 -4.5t-0.5 -4.5q-1 -12 -1 -25q0 -14 2 -28q3 -27 20 -43q25 -26 46 -26h4q22 3 37 22t22 47q5 23 5 42v8l37 34q-3 -34 -7.5 -87.5t-20 -101.5t-44.5 -76q-19 -18 -46 -18q-16 0 -35 6q-22 12 -35.5 28.5t-21.5 32.5q-3 -18 -15 -36t-29 -32t-37.5 -23 t-38.5 -11z" />
<glyph unicode="&#x652;" d="M127 22l1 5q-17 15 -127 26q-32 3 -58 3q-64 0 -90 -19q-11 -8 -28.5 -24.5t-22.5 -19.5l-2 1q0 15 26.5 78t75.5 124q26 31 125 31h37q131 -7 162 -38q19 -19 19 -51q0 -38 -28 -93q-52 -102 -158 -151q-49 -23 -94.5 -32.5t-98.5 -13.5l-20 2q7 16 128 75t153 97z" />
<glyph unicode="&#x653;" d="M353 110l-90 -115q-75 -48 -200 -73q-38 -8 -75 -8q-84 0 -160 40q-9 4 -17 4q-10 0 -18 -5q-17 -11 -31 -19q-30 -18 -81 -72q-17 -18 -22 -18q-1 0 -1 2q0 11 34 70q54 94 161 148q5 2 10 2q11 0 26 -7q81 -41 170 -41q40 0 82 8q134 27 204 89q3 3 5 3q3 0 3 -8z" />
<glyph unicode="&#x654;" d="M75 219q-13 -28 -44 -41t-54 -45q18 -21 49 -29t55 -23q27 -18 27 -47q0 -17 -8 -36q-23 -55 -79 -95q-48 -35 -100.5 -43t-107.5 -17q47 21 96 42t94 46q14 9 14 16q0 3 -4 6q-18 10 -39.5 19.5t-38.5 19.5q-38 20 -38 56q0 38 44 95q84 109 125 140q17 13 53 29z" />
<glyph unicode="&#x655;" d="M75 219q-13 -28 -44 -41t-54 -45q18 -21 49 -29t55 -23q27 -18 27 -47q0 -17 -8 -36q-23 -55 -79 -95q-48 -35 -100.5 -43t-107.5 -17q47 21 96 42t94 46q14 9 14 16q0 3 -4 6q-18 10 -39.5 19.5t-38.5 19.5q-38 20 -38 56q0 38 44 95q84 109 125 140q17 13 53 29z" />
<glyph unicode="&#x656;" d="M9 -139q-5 -6 -10 -6h-1q-4 1 -4 5q0 1 1 3q7 39 7 74v16q-2 41 -11 78t-22.5 70.5t-27.5 66.5q-7 17 -13 33.5t-9 35.5q7 17 15 35t16 35q0 5 3 7.5t7 3.5h1q3 0 5 -1q2 -2 3 -5q12 -33 28 -69.5t30.5 -75t25 -77.5t11.5 -78v-3q0 -38 -12 -74q-12 -39 -43 -74z" />
<glyph unicode="&#x657;" d="M6 123q29 -17 53.5 -35t35.5 -43q8 -15 8 -32q0 -11 -3 -23q-7 -30 -41 -71q-34 -39 -68 -53q-16 -7 -30 -7q-15 0 -28 8q-23 15 -28 60q-1 8 -1 16q0 43 23 111q-10 7 -17 15.5t-8 21.5v2q0 12 7 29q7 19 24 46q8 -10 16.5 -15t19.5 -12q37 50 74 83t81.5 56.5 t95.5 41.5t115 34l14 2q0 -3 -20 -15q-20 -13 -52 -33.5t-72 -46t-79 -51.5t-71 -49t-49 -40zM-34 35q-5 -25 -5 -42q0 -9 1 -16q4 -20 15 -28q9 -6 19 -6h5q13 2 23.5 9t14.5 17q2 4 2 7q0 7 -6 14q-14 15 -31.5 25t-37.5 20z" />
<glyph unicode="&#x658;" d="M6 -147q-57 5 -82 34q-23 28 -26 72q-4 37 8 87q17 55 32 87q19 39 37 65q17 24 27 24q4 0 5 -2q0 -4 -1 -6q-38 -53 -46 -90q-10 -40 2 -69q11 -30 35 -45q26 -20 55 -21q29 -4 58 7q29 9 49 35q6 9 9 7q4 -5 -1 -17q-18 -42 -25 -56q-15 -31 -36 -55q-25 -29 -44 -41 q-27 -18 -56 -16v0z" />
<glyph unicode="&#x65a;" d="M190 211q-13 -44 -13 -84q-42 -48 -72 -102.5t-56 -112.5q-7 -15 -11.5 -31t-16.5 -29q-3 -3 -9 -5q-3 -1 -5 -1q-3 0 -3 2q-26 79 -74 145.5t-101 131.5q10 21 22 42.5t25 44.5q98 -118 161 -232q30 63 67.5 119.5t79.5 110.5q0 1 3 1h3z" />
<glyph unicode="&#x660;" horiz-adv-x="475" d="M61 539l153 188q5 6 11 6q7 0 14 -6l171 -144q9 -7 9 -14q0 -5 -5 -11l-153 -188q-6 -7 -12 -7t-13 6l-171 144q-9 7 -9 15q0 5 5 11z" />
<glyph unicode="&#x661;" horiz-adv-x="387" d="M319 577q6 -59 6 -115q0 -101 -21 -190q-33 -137 -83 -243q-14 -29 -29 -29q-2 0 -5 1q13 112 13 219q0 145 -24 280q-43 233 -126 414q24 68 50.5 141.5t56.5 144.5q52 -132 95 -275t63 -308q4 -32 4 -40z" />
<glyph unicode="&#x662;" horiz-adv-x="586" d="M536 1172l-60 -230q-9 -28 -23 -28q-3 0 -5 1q-63 18 -138 28q-25 3 -48 3q-50 0 -96 -14q45 -112 112.5 -237.5t101.5 -245.5q4 -33 4 -65q0 -83 -25 -156q-34 -102 -58 -200q-6 -20 -20 -28q4 38 4 76q0 123 -45 237q-60 148 -119 250q-40 68 -55 173q-8 53 -8 106 q0 51 7 101q15 101 63 177t135 86q34 4 66 4q38 0 74 -5q66 -11 129 -26l2 -2q2 -2 2 -5z" />
<glyph unicode="&#x663;" horiz-adv-x="848" d="M798 1195q-10 -114 -33 -214.5t-86 -157.5q-26 -24 -74 -43q-20 -8 -39 -8q-27 0 -52 16q-13 8 -33 34q-15 -13 -36 -32q-17 -15 -17 -25q0 -3 2 -6q97 -170 113 -372q1 -25 1 -50q0 -173 -95 -323q-4 -6 -13 -10q-7 -4 -9 -4v1q5 49 5 96q0 159 -58 282 q-76 159 -155 290q-43 68 -90 134t-79 147q22 63 46.5 127t54.5 127q24 -48 49.5 -100t67.5 -82q38 -27 86 -27q23 0 48 7q77 19 110 64q8 11 18 42t17 44q3 5 5 5q3 0 5 -5q4 -7 4 -12v-2q-2 -12 -2 -22q0 -52 50 -63q19 -4 37 -4q42 0 75 25q45 36 57 92q1 6 11 24 q5 10 7 10t2 -5z" />
<glyph unicode="&#x664;" horiz-adv-x="734" d="M684 306q-34 -55 -65.5 -114.5t-66.5 -113.5q-75 -69 -223 -76q-14 -1 -28 -1q-128 0 -201 63q-29 24 -39 72q-4 14 -4 28q0 31 16 57q34 60 70 120t62 136q-21 54 -59 73t-64 41.5t-26 67.5q0 44 56 149q52 99 124.5 203.5t171.5 167.5q19 12 48 21q-30 -45 -51.5 -96.5 t-44.5 -103.5q-38 -27 -85 -52.5t-64 -74.5q-3 -8 -3 -16q0 -20 23 -32q128 -80 128 -160q0 -25 -12 -50q-52 -105 -141 -248q10 -55 61 -82t111 -36q36 -6 70 -6q46 0 89 12q74 20 132 55h4q3 0 11 -4z" />
<glyph unicode="&#x665;" horiz-adv-x="694" d="M525 364q-16 58 -63.5 167.5t-95.5 145.5q-22 16 -43 16q-24 0 -46 -21q-43 -41 -107 -179q-33 -70 -33 -115q0 -43 31 -62q53 -35 129 -35q44 0 97 12q132 30 132 66q0 2 -1 5zM458 88q-56 -59 -175 -83q-32 -6 -60 -6q-79 0 -132 49q-33 30 -33 111q0 20 2 43 q10 116 42.5 249.5t74 255t64.5 169.5q56 122 117 122q31 0 64 -33q95 -98 155 -245q47 -118 47 -234q0 -50 -8 -99q-29 -165 -158 -299z" />
<glyph unicode="&#x666;" horiz-adv-x="777" d="M727 256q-42 -135 -94 -248q-3 -6 -13 -7h-3q-8 0 -11 6q-62 153 -92 343q-19 113 -19 235q0 84 9 172q0 9 2.5 29.5t3.5 33.5q-135 3 -241.5 33.5t-195.5 78.5q-14 7 -14 24q0 12 6 27q20 53 43 108t41 109q96 -54 217 -87q101 -28 227 -28q22 0 46 1q-22 -138 -22 -281 q0 -78 7 -157q18 -226 93 -377z" />
<glyph unicode="&#x667;" horiz-adv-x="771" d="M721 1197q-24 -143 -24 -275q-78 -159 -134 -337t-104 -367q-14 -50 -22 -103t-30 -95q-5 -9 -17 -17q-5 -3 -9 -3q-5 0 -6 7q-48 260 -137 477.5t-188 430.5q18 67 41 139t47 146q182 -386 299 -761q55 207 124.5 393t147.5 362q1 4 7 4q2 0 5 -1z" />
<glyph unicode="&#x668;" horiz-adv-x="771" d="M50 2q24 144 24 276q77 158 133 336t106 367q12 50 20 103.5t31 95.5q4 8 17 17q5 3 8 3q5 0 7 -7q47 -261 136 -478t189 -430q-19 -69 -41.5 -141t-46.5 -144q-183 385 -299 761q-55 -207 -124.5 -393.5t-146.5 -361.5q-2 -4 -8 -4h-5z" />
<glyph unicode="&#x669;" horiz-adv-x="651" d="M374 847q-8 24 -28 54t-49 35q-9 1 -18 1q-37 0 -56 -25q-23 -31 -39 -62q-5 -9 -5 -17q0 -13 13 -24q28 -23 72 -23q10 0 22 2q58 6 94 31q1 1 1 2q0 4 -4 13q-4 8 -4 11q0 2 1 2zM601 278l-118 -278q-45 154 -69 295.5t-26 334.5q-36 -54 -110 -94q-39 -21 -79 -21 q-39 0 -80 19q-63 28 -63 105q0 7 1 15q6 89 48 190t98.5 191t87.5 123q21 23 61 39q17 6 34 6q23 0 47 -12q84 -46 88 -150q7 -222 13.5 -401.5t59.5 -350.5z" />
<glyph unicode="&#x66a;" horiz-adv-x="903" d="M50 879l139 232l169 -99l-138 -236zM545 20l139 232l169 -100l-138 -236zM128 -128l537 1112l147 68l-541 -1113z" />
<glyph unicode="&#x66e;" horiz-adv-x="1641" d="M1431 440q-65 -136 -248 -248.5t-388 -160.5q-121 -29 -232 -29q-79 0 -154 15q-180 34 -239 194q-20 54 -20 113q0 83 41 176q70 156 145 274q13 18 27 18q5 0 10 -2q11 -5 11 -18q0 -9 -6 -23q-84 -157 -84 -258q0 -19 3 -35q18 -108 110 -156q87 -47 219 -47q7 0 14 1 q141 2 288 38q146 35 275 98l128 63v4q0 38 -20 109q-22 73 -43 135l157 232l49 -150q17 -53 17 -110q0 -108 -60 -233z" />
<glyph unicode="&#x66f;" horiz-adv-x="1000" d="M244 2q118 -11 253.5 55.5t227.5 198.5q104 151 159 406t-87 400q-19 18 -53.5 31t-58.5 -14q-49 -55 -80 -126t-64 -137q-41 -77 3 -125q26 -30 82.5 -34.5t107.5 7.5q20 -29 24.5 -88t4.5 -100q-56 -52 -161 -107t-222 -74t-201 15q-82 33 -97 99q-7 29 -7 59 q0 38 10 79q17 69 57 146q38 73 61 126q7 18 7 29q0 10 -6 13q-3 1 -6 1q-9 0 -19 -19q-180 -342 -180 -521q0 -16 1 -32q16 -267 244 -288z" />
<glyph unicode="&#x670;" d="M9 -139q-5 -6 -10 -6h-1q-4 1 -4 5q0 1 1 3q7 39 7 74v16q-2 41 -11 78t-22.5 70.5t-27.5 66.5q-7 17 -13 33.5t-9 35.5q7 17 15 35t16 35q0 5 3 7.5t7 3.5h1q3 0 5 -1q2 -2 3 -5q12 -33 28 -69.5t30.5 -75t25 -77.5t11.5 -78v-3q0 -38 -12 -74q-12 -39 -43 -74z" />
<glyph unicode="&#x671;" horiz-adv-x="509" d="M150 1165l151 240l58 -870l-151 -240zM430 1734q-11 23 -30 23q-12 0 -27 -9q-26 -14 -46 -33.5t-40 -39.5q39 7 75 16t67 24q4 2 4 7t-3 12zM243 1668q17 3 16 3q74 85 131 138q17 15 51 22q8 1 15 1q23 0 38 -16q13 -16 13 -33q0 -12 -6 -24q-16 -31 -34 -55 q-46 -61 -144 -98q-62 -26 -94 -26q-8 0 -14 2q-30 8 -46 20q-12 9 -26 9q-4 0 -9 -1q-19 -4 -76 -60q-3 -4 -10 -8q-4 -2 -6 -2t-2 3q15 60 82 125q34 32 64 32t57 -32z" />
<glyph unicode="&#x674;" horiz-adv-x="883" d="M666 1187q-52 -14 -94.5 -30t-87.5 -55q26 -44 77 -61t88.5 -37.5t43.5 -59.5q1 -4 1 -8q0 -40 -59 -120q-53 -72 -105.5 -144t-131.5 -115q-48 -27 -138 -33q-49 -3 -87 -3q-31 0 -55 2q-18 2 -18 9q0 9 27 26q49 31 125.5 66.5t148.5 65.5t77 32q25 11 28 21v4 q0 19 -38 28q-69 16 -108 52q-50 43 -50 87q0 10 3 21q14 54 50 112q67 108 179.5 210t205.5 134q14 5 22 5q13 0 13 -11q0 -3 -1 -5q-5 -26 -28 -65t-52 -77.5t-36 -50.5z" />
<glyph unicode="&#x679;" horiz-adv-x="1641" d="M1431 440q-65 -136 -248 -248.5t-388 -160.5q-121 -29 -232 -29q-79 0 -154 15q-180 34 -239 194q-20 54 -20 113q0 83 41 176q70 156 145 274q13 18 27 18q5 0 10 -2q11 -5 11 -18q0 -9 -6 -23q-84 -157 -84 -258q0 -19 3 -35q18 -108 110 -156q87 -47 219 -47q7 0 14 1 q141 2 288 38q146 35 275 98l128 63v4q0 38 -20 109q-22 73 -43 135l157 232l49 -150q17 -53 17 -110q0 -108 -60 -233zM949 1114q-14 23 -35 23q-13 0 -29 -8q-28 -15 -50 -37t-43 -44q42 8 81.5 18t73.5 27q5 2 5 9q0 5 -3 12zM987 1096q-72 -97 -236 -141q-39 -9 -76 -9 h-8q-39 3 -67.5 23.5t-73.5 47.5q-4 4 -4 6q0 3 8 3q23 -1 45 -1q38 0 74 3q57 5 110 14q76 90 146 154q18 17 56 24q8 2 16 2q26 0 41 -19q15 -17 15 -33q0 -12 -8 -22q-18 -25 -38 -52zM760 1327l59 94l17 -256l-59 -94z" />
<glyph unicode="&#x67e;" horiz-adv-x="1641" d="M1431 440q-65 -136 -248 -248.5t-388 -160.5q-121 -29 -232 -29q-79 0 -154 15q-180 34 -239 194q-20 54 -20 113q0 83 41 176q70 156 145 274q13 18 27 18q5 0 10 -2q11 -5 11 -18q0 -9 -6 -23q-84 -157 -84 -258q0 -19 3 -35q18 -108 110 -156q87 -47 219 -47q7 0 14 1 q141 2 288 38q146 35 275 98l128 63v4q0 38 -20 109q-22 73 -43 135l157 232l49 -150q17 -53 17 -110q0 -108 -60 -233zM931 -226q-30 -63 -69.5 -121.5t-80.5 -111.5q-7 -9 -14 -9q-9 0 -17 20q-43 106 -95 106h-6q-56 -7 -108.5 -66.5t-95 -136.5t-61.5 -103l-1 89l2 3 q26 51 78.5 141t116.5 175q63 84 133 133q29 19 58 19q43 0 88 -41q40 -39 72 -97z" />
<glyph unicode="&#x686;" horiz-adv-x="1400" d="M792 815q-26 77 -138 77q-20 0 -43 -2q-151 -17 -196 -54q22 -58 58 -108.5t60 -104.5q62 45 134 94t125 98zM1327 -379q-125 -151 -330.5 -246.5t-410.5 -109.5q-31 -2 -60 -2q-170 0 -310 69q-164 80 -206 280q-11 55 -11 112q0 174 101 376q134 270 272 397 q-86 96 -86 226q0 43 10 90q37 189 139 262q67 47 205 69q47 7 90 7q82 0 147 -27t65 -102q0 -41 -20 -97q-56 -158 -96 -216q-51 -70 -113 -128t-122 -111q-43 -38 -142.5 -128t-189.5 -196.5t-138 -211.5q-22 -47 -22 -87q0 -48 33 -86q104 -117 249.5 -167t304.5 -55 q27 -1 54 -1q132 0 265 22q160 27 294 61q18 5 25 5q4 0 4 -2q0 -1 -1 -3zM1084 103q-30 -63 -69.5 -121.5t-80.5 -111.5q-7 -9 -14 -9q-9 0 -17 20q-43 106 -95 106h-6q-56 -7 -108.5 -66.5t-95 -136.5t-61.5 -103l-1 89l2 3q26 51 78.5 141t116.5 175q63 84 133 133 q29 19 58 19q43 0 88 -41q40 -39 72 -97z" />
<glyph unicode="&#x688;" horiz-adv-x="752" d="M495 637l157 232l24 -55q23 -55 32 -143q2 -25 2 -51q0 -69 -16 -148q-24 -111 -117 -222q-69 -80 -153 -124q-71 -38 -205 -71t-219 -55l152 273q91 16 210.5 49t196.5 67l-1 -1v7q0 39 -20 107q-22 73 -43 135zM612 1231q-14 23 -35 23q-13 0 -29 -8q-28 -15 -50 -37 t-43 -44q42 8 81.5 18t73.5 27q5 2 5 9q0 5 -3 12zM650 1213q-72 -97 -236 -141q-39 -9 -76 -9h-8q-39 3 -67.5 23.5t-73.5 47.5q-4 4 -4 6q0 3 8 3q23 -1 45 -1q38 0 74 3q57 5 110 14q76 90 146 154q18 17 56 24q8 2 16 2q26 0 41 -19q15 -17 15 -33q0 -12 -8 -22 q-18 -25 -38 -52zM423 1444l59 94l17 -256l-59 -94z" />
<glyph unicode="&#x68e;" horiz-adv-x="752" d="M495 637l157 232l24 -55q23 -55 32 -143q2 -25 2 -51q0 -69 -16 -148q-24 -111 -117 -222q-69 -80 -153 -124q-71 -38 -205 -71t-219 -55l152 273q91 16 210.5 49t196.5 67l-1 -1v7q0 39 -20 107q-22 73 -43 135zM778 1305q-30 -63 -69.5 -121.5t-80.5 -111.5 q-7 -9 -14 -9q-9 0 -17 20q-43 106 -95 106h-6q-56 -7 -108.5 -66.5t-95 -136.5t-61.5 -103l-1 89l2 3q26 51 78.5 141t116.5 175q63 84 133 133q29 19 58 19q43 0 88 -41q40 -39 72 -97z" />
<glyph unicode="&#x691;" horiz-adv-x="961" d="M916 557q-21 -104 -65 -216t-92 -169q-69 -84 -175 -129q-99 -43 -242 -43h-19q-120 3 -208 12.5t-109 30.5q-5 5 -5 12q0 18 46 45q62 35 244 92q124 39 242 83.5t216 110.5q94 64 142 171q5 12 14 12h1q9 -1 10 -12zM873 1015q-14 23 -35 23q-13 0 -29 -8 q-28 -15 -50 -37t-43 -44q42 8 81.5 18t73.5 27q5 2 5 9q0 5 -3 12zM911 997q-72 -97 -236 -141q-39 -9 -76 -9h-8q-39 3 -67.5 23.5t-73.5 47.5q-4 4 -4 6q0 3 8 3q23 -1 45 -1q38 0 74 3q57 5 110 14q76 90 146 154q18 17 56 24q8 2 16 2q26 0 41 -19q15 -17 15 -33 q0 -12 -8 -22q-18 -25 -38 -52zM684 1228l59 94l17 -256l-59 -94z" />
<glyph unicode="&#x695;" horiz-adv-x="961" d="M916 557q-21 -104 -65 -216t-92 -169q-69 -84 -175 -129q-99 -43 -242 -43h-19q-120 3 -208 12.5t-109 30.5q-5 5 -5 12q0 18 46 45q62 35 244 92q124 39 242 83.5t216 110.5q94 64 142 171q5 12 14 12h1q9 -1 10 -12zM667 -248q-13 -44 -13 -84q-42 -48 -72 -102.5 t-56 -112.5q-7 -15 -11.5 -31t-16.5 -29q-3 -3 -9 -5q-3 -1 -5 -1q-3 0 -3 2q-26 79 -74 145.5t-101 131.5q10 21 22 42.5t25 44.5q98 -118 161 -232q30 63 67.5 119.5t79.5 110.5q0 1 3 1h3z" />
<glyph unicode="&#x698;" horiz-adv-x="961" d="M916 557q-21 -104 -65 -216t-92 -169q-69 -84 -175 -129q-99 -43 -242 -43h-19q-120 3 -208 12.5t-109 30.5q-5 5 -5 12q0 18 46 45q62 35 244 92q124 39 242 83.5t216 110.5q94 64 142 171q5 12 14 12h1q9 -1 10 -12zM1039 1089q-30 -63 -69.5 -121.5t-80.5 -111.5 q-7 -9 -14 -9q-9 0 -17 20q-43 106 -95 106h-6q-56 -7 -108.5 -66.5t-95 -136.5t-61.5 -103l-1 89l2 3q26 51 78.5 141t116.5 175q63 84 133 133q29 19 58 19q43 0 88 -41q40 -39 72 -97z" />
<glyph unicode="&#x6a0;" horiz-adv-x="1400" d="M422 534q-27 24 -62 69q-70 86 -86 199q-6 45 -6 88q0 65 14 125q24 100 81 169q55 67 131 67h2q53 -2 100 -13t98 -22l-86 -266q-109 33 -215 43q12 -75 38.5 -119.5t75.5 -86.5q38 -38 92 -38q47 0 107 29q126 63 219 153l-92 -237q-22 -55 -101.5 -116t-140.5 -114 q-43 -38 -142.5 -128t-189.5 -196.5t-138 -211.5q-22 -47 -22 -87q0 -48 33 -86q104 -117 249.5 -167t304.5 -55q27 -1 54 -1q132 0 265 22q160 27 294 61q18 5 25 5q4 0 4 -2q0 -1 -1 -3q-125 -151 -330.5 -246.5t-410.5 -109.5q-31 -2 -60 -2q-170 0 -310 69 q-164 80 -206 281q-11 53 -11 111q0 177 105 391q138 283 318 425zM697 1701q-30 -63 -69.5 -121.5t-80.5 -111.5q-7 -9 -14 -9q-9 0 -17 20q-43 106 -95 106h-6q-56 -7 -108.5 -66.5t-95 -136.5t-61.5 -103l-1 89l2 3q26 51 78.5 141t116.5 175q63 84 133 133q29 19 58 19 q43 0 88 -41q40 -39 72 -97z" />
<glyph unicode="&#x6a1;" horiz-adv-x="1392" d="M1186 276q-74 -81 -168.5 -134t-198.5 -85q-134 -40 -315 -55q-32 -3 -62 -3q-141 0 -246 59q-94 54 -129 152q-20 55 -20 113q0 84 41 176q70 156 145 274q13 18 27 18q5 0 10 -1q11 -5 11 -18q0 -9 -6 -23q-90 -166 -90 -272q0 -81 53 -127q109 -96 300 -96q20 0 41 1 h1q109 8 332.5 63.5t317.5 139.5l-25 74q-21 60 -35 60q-4 0 -7 -4q-33 -28 -85 -44q-21 -6 -41 -6q-30 0 -59 14t-30 56q-1 4 -1 7q0 37 15 64q33 63 64.5 129.5t73.5 123.5q31 42 66 42q22 0 46 -17q61 -44 100 -119q40 -79 40 -167q0 -62 -20 -129q-50 -160 -146 -266z " />
<glyph unicode="&#x6a4;" horiz-adv-x="1392" d="M1186 276q-74 -81 -168.5 -134t-198.5 -85q-134 -40 -315 -55q-32 -3 -62 -3q-141 0 -246 59q-94 54 -129 152q-20 55 -20 113q0 84 41 176q70 156 145 274q13 18 27 18q5 0 10 -1q11 -5 11 -18q0 -9 -6 -23q-90 -166 -90 -272q0 -81 53 -127q109 -96 300 -96q20 0 41 1 h1q109 8 332.5 63.5t317.5 139.5l-25 74q-21 60 -35 60q-4 0 -7 -4q-33 -28 -85 -44q-21 -6 -41 -6q-30 0 -59 14t-30 56q-1 4 -1 7q0 37 15 64q33 63 64.5 129.5t73.5 123.5q31 42 66 42q22 0 46 -17q61 -44 100 -119q40 -79 40 -167q0 -62 -20 -129q-50 -160 -146 -266z M1291 1485q-30 -63 -69.5 -121.5t-80.5 -111.5q-7 -9 -14 -9q-9 0 -17 20q-43 106 -95 106h-6q-56 -7 -108.5 -66.5t-95 -136.5t-61.5 -103l-1 89l2 3q26 51 78.5 141t116.5 175q63 84 133 133q29 19 58 19q43 0 88 -41q40 -39 72 -97z" />
<glyph unicode="&#x6a9;" horiz-adv-x="1935" d="M1000 446q7 6 7 31v13l-43 581l127 210l62 224q165 97 331 194l332 194q9 4 14 4q8 0 8 -10q0 -3 -1 -8l-66 -239q-163 -96 -326 -191t-325 -190l41 -554q1 -11 1 -22q0 -82 -34 -159q-39 -87 -88 -163q-76 -115 -224.5 -209t-307.5 -131q-80 -19 -155 -19q-73 0 -142 19 q-138 36 -193 183q-21 55 -21 114q0 87 45 181q74 159 143 267q13 18 27 18q5 0 10 -1q11 -5 11 -18q0 -9 -6 -23q-60 -110 -99 -208q-9 -24 -9 -48q0 -74 93 -147q72 -57 179 -60q13 -1 26 -1q94 0 193 22q112 25 217 67.5t173 78.5z" />
<glyph unicode="&#x6ac;" horiz-adv-x="1164" d="M1000 446q7 6 7 31v13l-57 755l151 251l60 -791q1 -11 1 -22q0 -82 -34 -159q-39 -87 -88 -163q-76 -115 -224.5 -209t-307.5 -131q-80 -19 -155 -19q-73 0 -142 19q-138 36 -193 183q-21 55 -21 114q0 87 45 183q75 161 151 279q239 373 391 402q26 5 49 5 q109 0 139 -110q11 -39 11 -83q0 -110 -65 -253q-91 -203 -338 -291l88 268q57 12 84 24.5t80 37.5q-26 156 -113 156q-23 0 -51 -11q-131 -53 -204 -160q-71 -103 -130 -211q-18 -33 -18 -66q0 -75 96 -149q72 -57 179 -60q13 -1 26 -1q94 0 193 22q112 25 217 67.5 t173 78.5zM792 1600q-42 -54 -84 -106l-84 -104l-144 135q41 53 83.5 105t84.5 105z" />
<glyph unicode="&#x6af;" horiz-adv-x="1935" d="M1000 446q7 6 7 31v13l-43 581l127 210l62 224q165 97 331 194l332 194q9 4 14 4q8 0 8 -10q0 -3 -1 -8l-66 -239q-163 -96 -326 -191t-325 -190l41 -554q1 -11 1 -22q0 -82 -34 -159q-39 -87 -88 -163q-76 -115 -224.5 -209t-307.5 -131q-80 -19 -155 -19q-73 0 -142 19 q-138 36 -193 183q-21 55 -21 114q0 87 45 181q74 159 143 267q13 18 27 18q5 0 10 -1q11 -5 11 -18q0 -9 -6 -23q-60 -110 -99 -208q-9 -24 -9 -48q0 -74 93 -147q72 -57 179 -60q13 -1 26 -1q94 0 193 22q112 25 217 67.5t173 78.5zM1152 1753l614 352l-63 -106l-614 -352 z" />
<glyph unicode="&#x6b5;" horiz-adv-x="913" d="M672 1363l152 241l50 -799q2 -18 2 -28l2 -23l-1 -4q0 -131 -43 -257.5t-118 -234.5q-113 -162 -284 -225q-89 -32 -164 -32q-70 0 -129 29q-122 59 -139 255q-1 16 -1 32q0 192 180 521q10 19 19 19q3 0 6 -1q6 -3 6 -13q0 -11 -7 -29q-24 -53 -61.5 -126t-56.5 -146 q-10 -41 -10 -79q0 -30 7 -59q15 -64 97 -99q65 -11 125 -11q99 0 187 30q141 49 240 133zM685 1948q-13 -44 -13 -84q-42 -48 -72 -102.5t-56 -112.5q-7 -15 -11.5 -31t-16.5 -29q-3 -3 -9 -5q-3 -1 -5 -1q-3 0 -3 2q-26 79 -74 145.5t-101 131.5q10 21 22 42.5t25 44.5 q98 -118 161 -232q30 63 67.5 119.5t79.5 110.5q0 1 3 1h3z" />
<glyph unicode="&#x6ba;" horiz-adv-x="950" d="M716 258q-113 -162 -284 -225q-89 -32 -164 -32q-70 0 -129 29q-122 59 -139 255q-1 16 -1 32q0 192 180 521q10 19 19 19q3 0 6 -1q6 -3 6 -13q0 -11 -7 -29q-24 -53 -61.5 -126t-56.5 -146q-10 -41 -10 -79q0 -30 7 -59q15 -64 97 -99q66 -12 127 -12q107 0 202 37 q148 57 246 147v18q0 75 -14 139q-17 72 -38 141l112 256q65 -136 65 -280q0 -59 -11 -118q-37 -208 -152 -375z" />
<glyph unicode="&#x6bb;" horiz-adv-x="950" d="M716 258q-113 -162 -284 -225q-89 -32 -164 -32q-70 0 -129 29q-122 59 -139 255q-1 16 -1 32q0 192 180 521q10 19 19 19q3 0 6 -1q6 -3 6 -13q0 -11 -7 -29q-24 -53 -61.5 -126t-56.5 -146q-10 -41 -10 -79q0 -30 7 -59q15 -64 97 -99q66 -12 127 -12q107 0 202 37 q148 57 246 147v18q0 75 -14 139q-17 72 -38 141l112 256q65 -136 65 -280q0 -59 -11 -118q-37 -208 -152 -375zM594 1258q-14 23 -35 23q-13 0 -29 -8q-28 -15 -50 -37t-43 -44q42 8 81.5 18t73.5 27q5 2 5 9q0 5 -3 12zM632 1240q-72 -97 -236 -141q-39 -9 -76 -9h-8 q-39 3 -67.5 23.5t-73.5 47.5q-4 4 -4 6q0 3 8 3q23 -1 45 -1q38 0 74 3q57 5 110 14q76 90 146 154q18 17 56 24q8 2 16 2q26 0 41 -19q15 -17 15 -33q0 -12 -8 -22q-18 -25 -38 -52zM405 1471l59 94l17 -256l-59 -94z" />
<glyph unicode="&#x6bd;" horiz-adv-x="950" d="M716 258q-113 -162 -284 -225q-89 -32 -164 -32q-70 0 -129 29q-122 59 -139 255q-1 16 -1 32q0 192 180 521q10 19 19 19q3 0 6 -1q6 -3 6 -13q0 -11 -7 -29q-24 -53 -61.5 -126t-56.5 -146q-10 -41 -10 -79q0 -30 7 -59q15 -64 97 -99q66 -12 127 -12q107 0 202 37 q148 57 246 147v18q0 75 -14 139q-17 72 -38 141l112 256q65 -136 65 -280q0 -59 -11 -118q-37 -208 -152 -375zM760 1332q-30 -63 -69.5 -121.5t-80.5 -111.5q-7 -9 -14 -9q-9 0 -17 20q-43 106 -95 106h-6q-56 -7 -108.5 -66.5t-95 -136.5t-61.5 -103l-1 89l2 3 q26 51 78.5 141t116.5 175q63 84 133 133q29 19 58 19q43 0 88 -41q40 -39 72 -97z" />
<glyph unicode="&#x6be;" horiz-adv-x="1518" d="M658 232q102 249 245 415q60 70 106 70q39 0 68 -50q37 -65 37 -123q0 -39 -18 -75q-43 -88 -98 -194q154 29 254 93q2 35 2 68q0 247 -85 425q-15 28 -49 51q-18 11 -38 11q-19 0 -40 -10q-67 -34 -108.5 -94t-88.5 -112q-9 -10 -31 -10q-1 -1 -2 -1q-17 0 -17 9 q0 1 1 3q22 65 63 117.5t80 105.5q50 67 120 131.5t139 87.5q26 9 50 9q40 0 76 -24q56 -38 79 -176q15 -96 29 -181q9 -53 9 -104q0 -33 -4 -66q-12 -117 -103.5 -257t-183.5 -211q-171 -132 -427 -132h-35q-110 0 -176 -7q-9 -2 -19 -2q-72 0 -195 55l-282 127 q-19 10 -19 17q0 6 11 10zM953 360l-4 7q-29 81 -70 81q-7 0 -15 -2q-51 -18 -85 -93q-4 -9 -4 -18q0 -14 11 -27q15 -19 25 -19q1 0 3 1q85 26 139 70z" />
<glyph unicode="&#x6c0;" horiz-adv-x="506" d="M283 546q-22 15 -43 15q-48 0 -88 -81q-58 -118 -63 -141q-1 -3 -1 -5q0 -12 28 -25q36 -16 73 -16q26 0 52 8q64 17 109 45q11 7 11 25q0 26 -21 76q-37 85 -57 99zM444 345q-25 -114 -78 -208t-182 -127q-43 -11 -76 -11q-106 0 -106 117q0 2 1 3q1 157 61 335 q87 255 172 335q55 53 100 53q23 0 43 -14q59 -41 81 -175q8 -50 8 -104q0 -94 -24 -204zM372 1362q-13 -28 -44 -41t-54 -45q18 -21 49 -29t55 -23q27 -18 27 -47q0 -17 -8 -36q-23 -55 -79 -95q-48 -35 -100.5 -43t-107.5 -17q47 21 96 42t94 46q14 9 14 16q0 3 -4 6 q-18 10 -39.5 19.5t-38.5 19.5q-38 20 -38 56q0 38 44 95q84 109 125 140q17 13 53 29z" />
<glyph unicode="&#x6c1;" horiz-adv-x="506" d="M283 546q-22 15 -43 15q-48 0 -88 -81q-58 -118 -63 -141q-1 -3 -1 -5q0 -12 28 -25q36 -16 73 -16q26 0 52 8q64 17 109 45q11 7 11 25q0 26 -21 76q-37 85 -57 99zM444 345q-25 -114 -78 -208t-182 -127q-43 -11 -76 -11q-106 0 -106 117q0 2 1 3q1 157 61 335 q87 255 172 335q55 53 100 53q23 0 43 -14q59 -41 81 -175q8 -50 8 -104q0 -94 -24 -204z" />
<glyph unicode="&#x6c6;" horiz-adv-x="1007" d="M470 17q-93 -17 -189 -17q-20 0 -41 1q-117 4 -229 16q-11 0 -11 12q0 11 9 17q159 88 338 156.5t356 140.5q91 36 156 109q5 7 5 18q0 8 -2 18q-6 25 -17 41q-36 -9 -76 -9q-15 0 -30 2q-57 4 -83 34q-23 25 -23 58q0 30 19 67q34 66 65 137t80 126q16 18 37 18 q10 0 21 -4q35 -13 53 -31q95 -97 95 -233v-13q-5 -145 -77.5 -283.5t-195 -246t-260.5 -134.5zM1000 1507q-13 -44 -13 -84q-42 -48 -72 -102.5t-56 -112.5q-7 -15 -11.5 -31t-16.5 -29q-3 -3 -9 -5q-3 -1 -5 -1q-3 0 -3 2q-26 79 -74 145.5t-101 131.5q10 21 22 42.5 t25 44.5q98 -118 161 -232q30 63 67.5 119.5t79.5 110.5q0 1 3 1h3z" />
<glyph unicode="&#x6cc;" horiz-adv-x="1261" d="M160 48q-133 73 -151 203q-6 40 -6 82q0 91 28 188q40 141 113.5 270.5t125.5 201.5q4 5 9 5q2 0 5 -1q4 -1 4 -6q0 -3 -2 -8q-30 -63 -76 -147.5t-74 -172.5q-21 -68 -21 -134q0 -20 2 -39q8 -85 87 -146q69 -54 190 -62q33 -2 66 -2q84 0 161 15q239 43 435 170 q-104 10 -189.5 46.5t-109.5 119.5q-5 19 -5 41q0 80 71 207q91 162 156 224q28 28 71.5 61.5t97.5 36.5q6 0 20 -3q10 -2 10 -10q0 -4 -2 -8q-26 -55 -47 -112.5t-51 -106.5q-15 4 -31 4q-28 0 -60 -11q-53 -19 -76 -53q-11 -16 -11 -33q0 -20 15 -42q27 -41 150 -75 q42 -12 88 -18.5t73 -35.5q33 -35 33 -82q0 -56 -48 -130q-65 -101 -192.5 -206t-278.5 -178.5t-305 -95.5q-40 -6 -76 -6q-109 0 -199 49z" />
<glyph unicode="&#x6ce;" horiz-adv-x="1261" d="M160 48q-133 73 -151 203q-6 40 -6 82q0 91 28 188q40 141 113.5 270.5t125.5 201.5q4 5 9 5q2 0 5 -1q4 -1 4 -6q0 -3 -2 -8q-30 -63 -76 -147.5t-74 -172.5q-21 -68 -21 -134q0 -20 2 -39q8 -85 87 -146q69 -54 190 -62q33 -2 66 -2q84 0 161 15q239 43 435 170 q-104 10 -189.5 46.5t-109.5 119.5q-5 19 -5 41q0 80 71 207q91 162 156 224q28 28 71.5 61.5t97.5 36.5q6 0 20 -3q10 -2 10 -10q0 -4 -2 -8q-26 -55 -47 -112.5t-51 -106.5q-15 4 -31 4q-28 0 -60 -11q-53 -19 -76 -53q-11 -16 -11 -33q0 -20 15 -42q27 -41 150 -75 q42 -12 88 -18.5t73 -35.5q33 -35 33 -82q0 -56 -48 -130q-65 -101 -192.5 -206t-278.5 -178.5t-305 -95.5q-40 -6 -76 -6q-109 0 -199 49zM847 1606q-13 -44 -13 -84q-42 -48 -72 -102.5t-56 -112.5q-7 -15 -11.5 -31t-16.5 -29q-3 -3 -9 -5q-3 -1 -5 -1q-3 0 -3 2 q-26 79 -74 145.5t-101 131.5q10 21 22 42.5t25 44.5q98 -118 161 -232q30 63 67.5 119.5t79.5 110.5q0 1 3 1h3z" />
<glyph unicode="&#x6cf;" horiz-adv-x="1007" d="M470 17q-93 -17 -189 -17q-20 0 -41 1q-117 4 -229 16q-11 0 -11 12q0 11 9 17q159 88 338 156.5t356 140.5q91 36 156 109q5 7 5 18q0 8 -2 18q-6 25 -17 41q-36 -9 -76 -9q-15 0 -30 2q-57 4 -83 34q-23 25 -23 58q0 30 19 67q34 66 65 137t80 126q16 18 37 18 q10 0 21 -4q35 -13 53 -31q95 -97 95 -233v-13q-5 -145 -77.5 -283.5t-195 -246t-260.5 -134.5zM952 1267q-42 -54 -84 -106l-84 -104l-144 135q41 53 83.5 105t84.5 105z" />
<glyph unicode="&#x6d2;" horiz-adv-x="1433" d="M705 948q15 -63 17.5 -144.5t-25.5 -151.5q-5 -12 -24 -24.5t-19 6.5q-3 44 -23.5 83t-65.5 45q-49 -12 -78 -45t-50 -72q-112 -216 -284 -307q-20 -13 -20 -24q155 -51 324 -41t298 41q165 39 313.5 103t284.5 141q-17 -69 -58.5 -113.5t-85.5 -83.5 q-257 -228 -660 -324q-48 -12 -135 -25.5t-174.5 -11t-155 30t-75.5 99.5q-9 64 3.5 141.5t27.5 114.5q29 76 82 128.5t115 88.5q96 54 159.5 147t122.5 193q30 51 87 76.5t99 -71.5z" />
<glyph unicode="&#x6d3;" horiz-adv-x="1433" d="M705 948q15 -63 17.5 -144.5t-25.5 -151.5q-5 -12 -24 -24.5t-19 6.5q-3 44 -23.5 83t-65.5 45q-49 -12 -78 -45t-50 -72q-112 -216 -284 -307q-20 -13 -20 -24q155 -51 324 -41t298 41q165 39 313.5 103t284.5 141q-17 -69 -58.5 -113.5t-85.5 -83.5 q-257 -228 -660 -324q-48 -12 -135 -25.5t-174.5 -11t-155 30t-75.5 99.5q-9 64 3.5 141.5t27.5 114.5q29 76 82 128.5t115 88.5q96 54 159.5 147t122.5 193q30 51 87 76.5t99 -71.5zM651 1569q-13 -28 -44 -41t-54 -45q18 -21 49 -29t55 -23q27 -18 27 -47q0 -17 -8 -36 q-23 -55 -79 -95q-48 -35 -100.5 -43t-107.5 -17q47 21 96 42t94 46q14 9 14 16q0 3 -4 6q-18 10 -39.5 19.5t-38.5 19.5q-38 20 -38 56q0 38 44 95q84 109 125 140q17 13 53 29z" />
<glyph unicode="&#x6d4;" horiz-adv-x="520" d="M128 202l347 41l-93 -203l-337 -40z" />
<glyph unicode="&#x6d5;" horiz-adv-x="506" d="M283 546q-22 15 -43 15q-48 0 -88 -81q-58 -118 -63 -141q-1 -3 -1 -5q0 -12 28 -25q36 -16 73 -16q26 0 52 8q64 17 109 45q11 7 11 25q0 26 -21 76q-37 85 -57 99zM444 345q-25 -114 -78 -208t-182 -127q-43 -11 -76 -11q-106 0 -106 117q0 2 1 3q1 157 61 335 q87 255 172 335q55 53 100 53q23 0 43 -14q59 -41 81 -175q8 -50 8 -104q0 -94 -24 -204z" />
<glyph unicode="&#x6f2;" horiz-adv-x="803" d="M430 762q97 -171 112.5 -373t-93.5 -373q-4 -6 -13.5 -11t-8.5 -1q21 218 -54 377.5t-154 289.5q-43 69 -89.5 134.5t-79.5 146.5q22 63 46.5 127.5t54.5 126.5q102 -209 279.5 -232t300.5 187q1 6 10.5 23.5t9.5 5.5v0q15 -171 -65 -326.5t-256 -101.5z" />
<glyph unicode="&#x6f4;" horiz-adv-x="848" d="M797 1136q-18 -199 -88 -314q-57 -94 -176 -94q-28 0 -59 5q-17 3 -28 3q-19 0 -19 -8q0 -3 2 -6q98 -162 113 -354q2 -24 2 -47q0 -166 -96 -308q-4 -6 -13 -10q-6 -3 -8 -3q-1 0 -1 1q5 47 5 91q0 150 -58 268q-75 152 -155 276q-42 65 -89 127.5t-79 139.5 q22 60 46.5 121t54.5 121q48 -96 72 -136.5t139 -61.5v10q0 89 97 180q102 96 156 100h15q79 0 79 -56q0 -6 -1 -13q-8 -55 -41 -55q-13 0 -30 8q-46 21 -80 21q-39 0 -62 -28q-33 -41 -33 -63q0 -7 3 -12q40 -74 103 -74q36 0 79 24q119 67 131 120q1 6 11 23q5 9 7 9 q1 0 1 -3v-2z" />
<glyph unicode="&#x6f5;" horiz-adv-x="910" d="M821 640q27 -80 27 -160q0 -36 -5 -72q-18 -116 -66 -201t-114 -122q-31 -18 -60 -18q-33 0 -64 23q-27 20 -58 20q-29 0 -60 -16q-67 -35 -133 -66q-52 -25 -99 -25q-13 0 -25 2q-59 8 -95 134q-8 28 -8 63q0 45 13 103q24 102 66.5 210t92.5 205t83 151 q-15 10 -20.5 15.5t-17.5 16.5q12 73 24.5 121t33.5 120q124 -107 270.5 -231t214.5 -273zM770 366q-57 159 -176 264.5t-243 213.5q-33 -47 -86.5 -153.5t-80.5 -212.5q-16 -61 -16 -112q0 -37 9 -69q17 -63 99 -63q17 0 36 2q124 15 157 69q17 27 63 27t122 -27 q10 -4 21 -4q21 0 44 16q34 23 51 49z" />
<glyph unicode="&#x6f6;" horiz-adv-x="975" d="M773 691q-152 -95 -240.5 -154t-155 -122t-132 -151t-170.5 -240q-16 -24 -23 -24l-2 2q0 140 128 314t219 270q-143 57 -149 159q-1 9 -1 18q0 93 56 185q61 100 152.5 175t142.5 79h14q61 0 88 -30q28 -33 28 -69v-5q-2 -39 -29 -65q-16 -15 -35 -15q-16 0 -35 10 q-63 32 -110 32q-55 0 -87 -43q-46 -62 -46 -96q0 -10 4 -18q35 -69 128 -102q34 -12 69 -12q61 0 127 37q56 31 104 62.5t107 52.5q-18 -78 -59 -135.5t-93 -114.5z" />
<glyph unicode="&#x6f7;" horiz-adv-x="771" d="M721 1197q-24 -143 -24 -275q-78 -159 -134 -337t-104 -367q-14 -50 -22 -103t-30 -95q-5 -9 -17 -17q-5 -3 -9 -3q-5 0 -6 7q-48 260 -137 477.5t-188 430.5q18 67 41 139t47 146q182 -386 299 -761q55 207 124.5 393t147.5 362q1 4 7 4q2 0 5 -1z" />
<glyph unicode="&#x762;" horiz-adv-x="1935" d="M1000 446q7 6 7 31v13l-43 581l127 210l62 224q165 97 331 194l332 194q9 4 14 4q8 0 8 -10q0 -3 -1 -8l-66 -239q-163 -96 -326 -191t-325 -190l41 -554q1 -11 1 -22q0 -82 -34 -159q-39 -87 -88 -163q-76 -115 -224.5 -209t-307.5 -131q-80 -19 -155 -19q-73 0 -142 19 q-138 36 -193 183q-21 55 -21 114q0 87 45 181q74 159 143 267q13 18 27 18q5 0 10 -1q11 -5 11 -18q0 -9 -6 -23q-60 -110 -99 -208q-9 -24 -9 -48q0 -74 93 -147q72 -57 179 -60q13 -1 26 -1q94 0 193 22q112 25 217 67.5t173 78.5zM1584 1897q-42 -54 -84 -106l-84 -104 l-144 135q41 53 83.5 105t84.5 105z" />
<glyph unicode="&#x8f1;" d="M155 33q-23 12 -41 25.5t-26 32.5q-5 11 -5 24q0 8 2 17q5 22 31 53q24 29 50 40q12 5 22 5q12 0 21 -6q17 -11 21 -45v-11q0 -32 -17 -84q7 -5 12.5 -11.5t6.5 -15.5v-2q0 -9 -4 -22q-5 -14 -18 -34q-6 7 -12.5 11t-14.5 9q-28 -37 -56 -61.5t-60.5 -42.5t-71.5 -31 t-86 -26l-11 -1q0 2 15 11q15 10 39.5 25.5t54 34.5t58 38t53.5 36.5t37 30.5zM184 99q4 20 4 33q0 16 -5 23q-9 13 -21 13h-3q-14 -2 -24 -13q-6 -7 -6 -13q0 -5 3 -10q11 -11 24.5 -18.5t27.5 -14.5zM-20 33q-22 12 -40.5 25.5t-26.5 32.5q-5 11 -5 24q0 8 2 17 q5 22 30 53q25 29 51 40q13 5 23 5q11 0 20 -6q17 -11 21 -45q1 -6 1 -12q0 -32 -17 -83q7 -5 12.5 -11.5t6.5 -15.5v-2q0 -9 -5 -22q-6 -14 -18 -34q-7 7 -13 11t-15 9q-27 -37 -54.5 -61.5t-61 -42.5t-71.5 -31t-85 -26l-11 -1q0 2 14 11q15 10 39.5 25.5t54.5 34.5 t58.5 38t53 36.5t36.5 30.5zM10 99q4 18 4 31q0 6 -1 11q-3 15 -11 22q-6 5 -14 5h-4q-10 -2 -18 -7.5t-11 -12.5q-1 -3 -1 -5q0 -6 4 -11q11 -11 24 -18.5t28 -14.5z" />
<glyph unicode="&#x2000;" horiz-adv-x="1052" />
<glyph unicode="&#x2001;" horiz-adv-x="2105" />
<glyph unicode="&#x2002;" horiz-adv-x="1052" />
<glyph unicode="&#x2003;" horiz-adv-x="2105" />
<glyph unicode="&#x2004;" horiz-adv-x="701" />
<glyph unicode="&#x2005;" horiz-adv-x="526" />
<glyph unicode="&#x2006;" horiz-adv-x="350" />
<glyph unicode="&#x2007;" horiz-adv-x="350" />
<glyph unicode="&#x2008;" horiz-adv-x="263" />
<glyph unicode="&#x2009;" horiz-adv-x="421" />
<glyph unicode="&#x200a;" horiz-adv-x="116" />
<glyph unicode="&#x2010;" horiz-adv-x="722" d="M596 483h-483l14 82h481z" />
<glyph unicode="&#x2011;" horiz-adv-x="722" d="M596 483h-483l14 82h481z" />
<glyph unicode="&#x2012;" horiz-adv-x="722" d="M596 483h-483l14 82h481z" />
<glyph unicode="&#x2013;" horiz-adv-x="1108" d="M56 419v120h996v-120h-996z" />
<glyph unicode="&#x2014;" horiz-adv-x="2048" d="M0 419v120h2048v-120h-2048z" />
<glyph unicode="&#x2018;" horiz-adv-x="557" d="M319 1016q-44 0 -88.5 65.5t-44.5 151.5q0 109 71 226.5t139 117.5v-43q-73 -43 -87 -190q0 -119 129 -161v-42z" />
<glyph unicode="&#x2019;" horiz-adv-x="557" d="M238 1577q44 0 88.5 -65.5t44.5 -151.5q0 -109 -71 -226.5t-139 -117.5v43q73 43 87 190q0 119 -129 161v42z" />
<glyph unicode="&#x201a;" horiz-adv-x="557" d="M238 281q44 0 88.5 -65.5t44.5 -151.5q0 -109 -71 -226.5t-139 -117.5v43q73 43 87 190q0 119 -129 161v42z" />
<glyph unicode="&#x201c;" horiz-adv-x="910" d="M319 1016q-44 0 -88.5 65.5t-44.5 151.5q0 109 71 226.5t139 117.5v-43q-73 -43 -87 -190q0 -119 129 -161v-42zM672 1016q-44 0 -88.5 65.5t-44.5 151.5q0 109 71 226.5t139 117.5v-43q-73 -43 -87 -190q0 -119 129 -161v-42z" />
<glyph unicode="&#x201d;" horiz-adv-x="910" d="M238 1577q44 0 88.5 -65.5t44.5 -151.5q0 -109 -71 -226.5t-139 -117.5v43q73 43 87 190q0 119 -129 161v42zM591 1577q44 0 88.5 -65.5t44.5 -151.5q0 -109 -71 -226.5t-139 -117.5v43q73 43 87 190q0 119 -129 161v42z" />
<glyph unicode="&#x201e;" horiz-adv-x="910" d="M238 281q44 0 88.5 -65.5t44.5 -151.5q0 -109 -71 -226.5t-139 -117.5v43q73 43 87 190q0 119 -129 161v42zM591 281q44 0 88.5 -65.5t44.5 -151.5q0 -109 -71 -226.5t-139 -117.5v43q73 43 87 190q0 119 -129 161v42z" />
<glyph unicode="&#x2022;" horiz-adv-x="679" d="M141 543q0 84 58.5 141t140.5 57q84 0 141.5 -57t57.5 -141q0 -82 -57.5 -140.5t-141.5 -58.5q-82 0 -140.5 58.5t-58.5 140.5z" />
<glyph unicode="&#x2026;" horiz-adv-x="2048" d="M145 167l82 84q15 14 29 14q13 0 31 -16l80 -86q12 -16 12 -29q0 -15 -14 -31l-80 -88q-20 -20 -29 -20q-16 0 -29 14l-88 101q-10 13 -10 26q0 15 16 31zM828 167l82 84q15 14 29 14q13 0 31 -16l80 -86q12 -16 12 -29q0 -15 -14 -31l-80 -88q-20 -20 -29 -20 q-16 0 -29 14l-88 101q-10 13 -10 26q0 15 16 31zM1511 167l82 84q15 14 29 14q13 0 31 -16l80 -86q12 -16 12 -29q0 -15 -14 -31l-80 -88q-20 -20 -29 -20q-16 0 -29 14l-88 101q-10 13 -10 26q0 15 16 31z" />
<glyph unicode="&#x202f;" horiz-adv-x="421" />
<glyph unicode="&#x2039;" horiz-adv-x="540" d="M25 487l393 385l63 -94l-305 -299l307 -348l-28 -57z" />
<glyph unicode="&#x203a;" horiz-adv-x="540" d="M516 487l-430 -413l-29 57l308 348l-306 299l64 94z" />
<glyph unicode="&#x2044;" horiz-adv-x="143" d="M545 1423l6 -22l-895 -1409l-64 26v29l887 1393l23 2z" />
<glyph unicode="&#x205f;" horiz-adv-x="526" />
<glyph unicode="&#x2074;" horiz-adv-x="974" d="M539 1427l10 -6v-73.5v-147.5v-176v-162l8 -10h131l6 -8l-22 -45h-115l-8 -11v-109.5t2 -80.5l-111 -41l-6 8q6 33 6 98.5v122.5l-10 13h-393v53l397 532zM440 862v420q0 10 -6 10t-8 -2q-35 -35 -66.5 -77t-62.5 -83q-20 -27 -49 -67.5t-56.5 -83.5t-46 -76t-18.5 -43 l6 -8h299z" />
<glyph unicode="&#x20ac;" horiz-adv-x="1306" d="M870 553h-428q20 -100 67.5 -188.5t111.5 -141.5q80 -66 172 -78t182 10.5t162 59.5l34 -59q-41 -39 -107.5 -77t-148 -63.5t-167.5 -23.5q-80 0 -159 29.5t-149 99.5q-86 86 -132 198.5t-58 233.5h-199l21 82h172v33q0 45 4 90h-144l21 82h133q18 100 60 194t112 174 q78 90 177.5 140.5t208 54.5t217 -45t204.5 -158l-117 -119l-28 2q-39 102 -110 153.5t-156 52.5t-166.5 -48t-142 -149.5t-83.5 -251.5h510l-20 -82h-496q-2 -27 -2 -53q0 -35 4 -70h461z" />
<glyph unicode="&#x2113;" horiz-adv-x="778" d="M672 250l35 -27l-58 -82q-16 -29 -50 -66.5t-79 -65t-102 -27.5q-82 0 -128 38.5t-67.5 98t-28 125t-10.5 118.5l-18 7l-94 -90l-31 36l135 152q-2 41 -3 84t-1 86q0 102 8 203.5t29 199.5q12 63 35.5 133t60.5 131.5t91.5 99.5t129.5 38q82 0 114 -53.5t32 -143.5 q0 -127 -54.5 -257t-136.5 -251t-164 -225q6 -70 14.5 -141.5t27 -132t51 -97.5t84.5 -37q29 0 64.5 27t47.5 41zM328 618q121 162 182 312.5t61 310.5q0 86 -21.5 110.5t-55.5 24.5q-37 0 -65 -43t-44 -99t-25 -97q-10 -55 -21 -141.5t-19.5 -183.5t-8.5 -189z" />
<glyph unicode="&#x2118;" horiz-adv-x="1210" d="M373 950l28 -20q-39 -51 -71.5 -107.5t-32.5 -122.5q0 -41 14.5 -81.5t30.5 -75.5h18l37 53q31 47 76 110.5t105.5 123t136.5 98.5t166 39q76 0 124 -32t74.5 -83t36.5 -110.5t10 -114.5q0 -141 -42 -280.5t-144 -242.5q-43 -43 -99.5 -79.5t-113.5 -36.5q-45 0 -86 20.5 t-72 52.5q12 -45 13 -90q0 -84 -30 -170t-90.5 -144t-154.5 -58q-76 0 -124 41t-70.5 103t-22.5 124q0 59 19.5 130t47 143.5t58.5 135t51 101.5q-31 57 -57.5 120.5t-26.5 129.5q0 102 56.5 184t134.5 139zM551 121l96 88l15 -2q27 -106 114 -107q68 0 112 38t69.5 98.5 t36 134t10.5 143.5q0 49 -10.5 106.5t-33 106.5t-63.5 81t-102 32q-29 0 -51.5 -5.5t-65.5 -21.5q-39 -16 -92.5 -75.5t-105.5 -134.5t-93 -138q47 -82 91 -170t73 -174zM297 295q-45 -80 -74.5 -179.5t-29.5 -176.5q0 -47 13 -104.5t45 -97.5t89 -40q59 0 94 30.5 t49.5 76.5t14.5 92q0 61 -30 129.5t-72 138t-81 131.5h-18z" />
<glyph unicode="&#x2126;" horiz-adv-x="1853" d="M1747 123l18 -19l-51 -108q-90 8 -182 11t-182 3q-172 0 -344 -12l18 119q158 37 246 134t122.5 229t34.5 274q0 104 -27.5 208.5t-85 189.5t-148.5 136t-220 51q-145 0 -246.5 -57t-164 -152.5t-90 -214t-27.5 -241.5q0 -121 35.5 -240t119.5 -208t232 -117l-43 -113 q-106 10 -213 15t-213 5q-63 0 -124.5 -2t-123.5 -6l35 125q94 -4 200.5 -9t188.5 -13l12 30q-113 61 -175 145.5t-86.5 188t-24.5 217.5q0 147 46 284.5t150 242.5q109 109 254.5 150.5t296.5 41.5q182 0 303 -52t192.5 -141.5t101.5 -201t30 -228.5q0 -131 -37 -262 t-120 -235.5t-222 -161.5v-25q131 6 269.5 12.5t244.5 6.5z" />
<glyph unicode="&#x2202;" horiz-adv-x="1161" d="M205 1122l-37 15q43 127 131 211t225 84q109 0 188 -48.5t132 -130.5t86 -182t47 -207.5t14 -204.5q0 -102 -14 -209.5t-57 -202.5t-127 -167q-51 -43 -111.5 -68.5t-126.5 -25.5q-88 0 -167 20.5t-132 83.5q-35 43 -56.5 100.5t-30.5 118t-9 107.5q0 133 51 251.5 t154.5 193.5t259.5 75q33 0 70.5 -5t92.5 -22l9 9q-25 102 -71 193t-113.5 147.5t-163.5 56.5q-98 0 -154.5 -59.5t-89.5 -133.5zM782 256q29 78 40.5 163t11.5 167q0 125 -25 243q-39 16 -80 28.5t-82 12.5q-90 0 -150.5 -43t-97.5 -111.5t-52 -147.5t-15 -148 q0 -37 11 -95.5t38 -118t76 -99t125 -39.5q82 0 129.5 59t70.5 129z" />
<glyph unicode="&#x2206;" horiz-adv-x="1538" d="M776 1374l119 51q115 -344 249 -678.5t300 -656.5l-2 -33l-125 -65q-193 12 -383.5 20t-382.5 8q-113 0 -226.5 -3t-226.5 -11l-4 86zM1184 102l12 19q-20 49 -58 141t-85 206t-94.5 230.5t-86 216t-63.5 159.5l-25 61h-22q-145 -252 -272.5 -498t-249.5 -506l6 -25 q53 2 107.5 2.5t107.5 0.5q182 0 362.5 -3.5t360.5 -3.5z" />
<glyph unicode="&#x2212;" horiz-adv-x="1826" d="M1581 483h-1348l15 82h1345z" />
<glyph unicode="&#x25fc;" horiz-adv-x="950" d="M0 950h950v-950h-950v950z" />
<glyph unicode="&#xfd3e;" horiz-adv-x="994" d="M444 697l16 -8q-9 -27 -9 -53q0 -68 81 -91q65 -19 65 -68q0 -18 -10 -31l8 -3q64 57 64 138q0 67 -43 110q-44 44 -116 44q-48 0 -95 -29t-64 -29q-22 0 -35 11l9 17q6 -3 12 -3q22 0 41 24q6 8 17 25q12 19 19 28q56 77 116 77q70 0 99 -71l4 3q-20 47 -20 95 q0 81 104 185q21 21 58 55l57 52q37 35 48 59q-36 9 -36 40q0 37 40 37t40 -39q0 -27 -35 -79q-52 -72 -73 -112q-93 -173 -93 -411q0 -233 -144 -268v-2q144 -35 144 -268q0 -238 93 -411q21 -40 73 -112q35 -52 35 -79q0 -39 -40 -39t-40 37q0 31 36 40q-11 24 -48 59 l-57 52q-37 34 -58 55q-104 104 -104 185q0 48 20 95l-4 3q-29 -71 -99 -71q-60 0 -116 77q-7 9 -19 28q-11 17 -17 25q-19 24 -41 24q-6 0 -12 -3l-9 17q13 11 35 11q17 0 64 -29t95 -29q72 0 116 44q43 43 43 110q0 81 -64 138l-8 -3q10 -13 10 -31q0 -49 -65 -68 q-81 -23 -81 -91q0 -26 9 -53l-16 -8q-91 86 -91 189q-22 -24 -65 -24q-50 0 -92 42l1 -1q0 1 -39 44q-19 21 -38 21q-22 0 -32 -5l-8 21q30 15 60 49q37 44 50 55q50 41 98 41q38 0 65 -29q0 103 91 189zM440 403q-45 24 -64 62q-73 -14 -73 -64t73 -64q19 38 64 62v4z" />
<glyph unicode="&#xfd3f;" horiz-adv-x="994" d="M550 105l-16 8q9 27 9 53q0 68 -81 91q-65 19 -65 68q0 18 10 31l-8 3q-64 -57 -64 -138q0 -67 43 -110q44 -44 116 -44q48 0 95 29t64 29q22 0 35 -11l-9 -17q-6 3 -12 3q-22 0 -41 -24q-6 -8 -17 -25q-12 -19 -19 -28q-56 -77 -116 -77q-70 0 -99 71l-4 -3 q20 -47 20 -95q0 -81 -104 -185q-21 -21 -58 -55l-57 -52q-37 -35 -48 -59q36 -9 36 -40q0 -37 -40 -37t-40 39q0 27 35 79q52 72 73 112q93 173 93 411q0 233 144 268v2q-144 35 -144 268q0 238 -93 411q-21 40 -73 112q-35 52 -35 79q0 39 40 39t40 -37q0 -31 -36 -40 q11 -24 48 -59l57 -52q37 -34 58 -55q104 -104 104 -185q0 -48 -20 -95l4 -3q29 71 99 71q60 0 116 -77q7 -9 19 -28q11 -17 17 -25q19 -24 41 -24q6 0 12 3l9 -17q-13 -11 -35 -11q-17 0 -64 29t-95 29q-72 0 -116 -44q-43 -43 -43 -110q0 -81 64 -138l8 3q-10 13 -10 31 q0 49 65 68q81 23 81 91q0 26 -9 53l16 8q91 -86 91 -189q23 24 65 24q50 0 92 -42l38 -42q19 -22 38 -22q22 0 32 5l8 -21q-30 -15 -59 -49q-38 -44 -51 -55q-50 -41 -98 -41q-38 0 -65 29q0 -103 -91 -189zM554 399q45 -24 64 -62q73 14 73 64t-73 64q-19 -38 -64 -62v-4z " />
<glyph d="M162 25q-42 -54 -84 -106l-84 -104l-144 135q41 53 83.5 105t84.5 105z" />
<glyph d="M133 -77q-99 -18 -197 -36.5t-196 -36.5l122 244q214 38 394 73z" />
<glyph d="M301 153q-30 -63 -69.5 -121.5t-80.5 -111.5q-7 -9 -14 -9q-9 0 -17 20q-43 106 -95 106h-6q-56 -7 -108.5 -66.5t-95 -136.5t-61.5 -103l-1 89l2 3q26 51 78.5 141t116.5 175q63 84 133 133q29 19 58 19q43 0 88 -41q40 -39 72 -97z" />
<glyph d="M162 25q-42 -54 -84 -106l-84 -104l-144 135q41 53 83.5 105t84.5 105z" />
<glyph d="M133 -77q-99 -18 -197 -36.5t-196 -36.5l122 244q214 38 394 73z" />
<glyph d="M301 153q-30 -63 -69.5 -121.5t-80.5 -111.5q-7 -9 -14 -9q-9 0 -17 20q-43 106 -95 106h-6q-56 -7 -108.5 -66.5t-95 -136.5t-61.5 -103l-1 89l2 3q26 51 78.5 141t116.5 175q63 84 133 133q29 19 58 19q43 0 88 -41q40 -39 72 -97z" />
<glyph d="M-270 -119l614 352l-63 -106l-614 -352z" />
<glyph horiz-adv-x="816" d="M538 710q-8 -10 -15 -10h-3q-32 9 -76.5 67t-93.5 112.5t-97 80.5q-16 8 -30 8q-31 0 -57 -36q45 -112 113 -237.5t101 -245.5q4 -34 4 -66q0 -82 -24 -155q-34 -102 -59 -200q-7 -21 -20 -28q4 38 4 76q0 123 -45 237q-60 148 -119 250q-40 68 -55 173q-8 53 -8 106 q0 51 7 101q15 101 63 177t135 86h6q43 0 99 -68q60 -73 117 -148l70 198l211 71q-64 -199 -129.5 -350.5t-96.5 -197.5z" />
<glyph horiz-adv-x="1118" d="M1021 1197q20 -29 20 -73q0 -58 -35 -142q-63 -147 -171.5 -307.5t-231.5 -302t-196 -198.5q186 18 317 22q40 1 88 1q107 0 250 -6q-59 -50 -116.5 -99t-112.5 -92q-157 6 -270 6q-57 0 -103 -1q-139 -5 -397 -5h-2q-8 0 -8 8q0 2 1 5q3 14 9 22q30 37 75.5 65t87.5 60 q155 118 339 346t212 561q125 54 244 130z" />
<glyph horiz-adv-x="509" d="M150 1165l151 240l58 -870l-151 -240z" />
<glyph horiz-adv-x="230" d="M150 1167l129 240l78 -1165l-127 -242z" />
<glyph horiz-adv-x="1641" d="M1431 440q-65 -136 -248 -248.5t-388 -160.5q-121 -29 -232 -29q-79 0 -154 15q-180 34 -239 194q-20 54 -20 113q0 83 41 176q70 156 145 274q13 18 27 18q5 0 10 -2q11 -5 11 -18q0 -9 -6 -23q-84 -157 -84 -258q0 -19 3 -35q18 -108 110 -156q87 -47 219 -47q7 0 14 1 q141 2 288 38q146 35 275 98l128 63v4q0 38 -20 109q-22 73 -43 135l157 232l49 -150q17 -53 17 -110q0 -108 -60 -233z" />
<glyph horiz-adv-x="1005" d="M18 213q-20 54 -20 113q0 83 41 175q70 156 145 275q13 18 27 18q5 0 10 -2q11 -5 11 -18q0 -9 -6 -23q-77 -142 -81 -238v-15q0 -85 44 -138q52 -63 181 -83q99 -16 208 -16q31 0 64 1q144 6 274 31.5t184 55.5q59 32 87 100q5 7 8 7t3 -11q0 -19 -2 -24 q-23 -72 -68 -179.5t-122 -188.5h-2q-7 0 -7 11q0 9 4 24q-93 -38 -242 -64q-128 -23 -257 -23q-22 0 -43 1q-151 4 -275.5 51.5t-165.5 159.5z" />
<glyph horiz-adv-x="604" d="M500 287q-61 -101 -136 -166q-66 -58 -153.5 -83.5t-210.5 -37.5l45 256h2q161 19 234.5 38t130.5 58q-1 42 -53 221l157 232q50 -138 47.5 -277.5t-63.5 -240.5z" />
<glyph horiz-adv-x="422" d="M423 50h-2q-9 0 -9 11q0 8 6 24q-70 -29 -199.5 -53t-218.5 -32l43 260q384 36 474 86q60 34 87 100q5 7 8 7t3 -11q0 -19 -2 -24q-23 -72 -68 -179t-122 -189z" />
<glyph horiz-adv-x="1400" d="M792 815q-26 77 -138 77q-20 0 -43 -2q-151 -17 -196 -54q22 -58 58 -108.5t60 -104.5q62 45 134 94t125 98zM1327 -379q-125 -151 -330.5 -246.5t-410.5 -109.5q-31 -2 -60 -2q-170 0 -310 69q-164 80 -206 280q-11 55 -11 112q0 174 101 376q134 270 272 397 q-86 96 -86 226q0 43 10 90q37 189 139 262q67 47 205 69q47 7 90 7q82 0 147 -27t65 -102q0 -41 -20 -97q-56 -158 -96 -216q-51 -70 -113 -128t-122 -111q-43 -38 -142.5 -128t-189.5 -196.5t-138 -211.5q-22 -47 -22 -87q0 -48 33 -86q104 -117 249.5 -167t304.5 -55 q27 -1 54 -1q132 0 265 22q160 27 294 61q18 5 25 5q4 0 4 -2q0 -1 -1 -3z" />
<glyph horiz-adv-x="387" d="M793 809q-10 27 -16 29q-96 21 -237 21t-211 -13q-36 -8 -25.5 39t34.5 95q50 99 86 154q50 12 214 13t240 -29q101 -42 45.5 -199.5t-96.5 -215.5q-51 -70 -113 -128t-122 -111q-43 -38 -142.5 -128t-189.5 -196.5t-138.5 -211.5t11.5 -173q104 -117 249.5 -167 t304.5 -55.5t319 21.5q239 40 294 61q8 3 21 5t7 -5q-125 -151 -330.5 -246.5t-411 -109.5t-369.5 66.5t-206 281.5q-45 217 89.5 487t272.5 397l161 126q62 45 134 94t125 98z" />
<glyph horiz-adv-x="1143" d="M765 405q-31 72 -74 106q-31 24 -60 24q-30 0 -58 -25q-42 -37 -64.5 -85.5t-43.5 -100.5l290 57q12 3 12 13q0 5 -2 11zM43 254h2l4 1l365 65q19 54 57 143.5t90.5 167.5t117.5 123q36 24 75 24q31 0 64 -16q60 -29 95 -92.5t58 -140.5q28 -31 65 -31q25 0 53 14 l-131 -282q-147 -46 -287 -76.5t-302 -71.5q-10 -20 -18 -58.5t-34 -47.5q-4 -1 -7 -1q-13 0 -13 13q0 3 1 7q2 12 7 33.5t8 37.5q-48 -10 -114 -22l-1 -3q-66 -12 -131 -25q-6 -2 -11 -3.5t-10 -2.5v1q-12 -3 -23 -5.5t-23 -4.5z" />
<glyph horiz-adv-x="577" d="M805 488q17 8 22 18q-7 25 -66 39q-67 15 -160 18t-132 12q-18 3 -3 39q25 58 53.5 113.5t57.5 115.5h1q64 3 206 -18t198 -64q36 -29 12.5 -84t-37.5 -85q-25 -51 -53.5 -96.5t-58.5 -92.5q-150 -228 -798 -393v0q-35 -7 -47 -10v0l50 264h2l3 1l1 1q474 61 749 222z " />
<glyph horiz-adv-x="752" d="M495 637l157 232l24 -55q23 -55 32 -143q2 -25 2 -51q0 -69 -16 -148q-24 -111 -117 -222q-69 -80 -153 -124q-71 -38 -205 -71t-219 -55l152 273q91 16 210.5 49t196.5 67l-1 -1v7q0 39 -20 107q-22 73 -43 135z" />
<glyph horiz-adv-x="799" d="M770 249q-33 -24 -60.5 -59.5t-51.5 -74.5q-65 -99 -153 -112q-19 -2 -40 -2q-65 0 -143 24q-33 10 -162.5 64t-153.5 77q-6 6 -6 11q0 10 20 15q145 36 305 46.5t312 35.5q56 10 100 49q13 13 28 13q4 0 8 -1q26 -8 26 -34q0 -9 -3 -20q-7 -24 -26 -32z" />
<glyph horiz-adv-x="961" d="M916 557q-21 -104 -65 -216t-92 -169q-69 -84 -175 -129q-99 -43 -242 -43h-19q-120 3 -208 12.5t-109 30.5q-5 5 -5 12q0 18 46 45q62 35 244 92q124 39 242 83.5t216 110.5q94 64 142 171q5 12 14 12h1q9 -1 10 -12z" />
<glyph horiz-adv-x="840" d="M769 285q-31 -27 -54.5 -65t-44.5 -79q-55 -105 -142 -126q-75 -18 -183 4q-35 7 -169 48t-159 62q-17 14 11 27q141 50 299.5 76t306.5 65q55 14 95 59v-1q14 19 35 15q37 -6 28 -51q-5 -25 -23 -34z" />
<glyph horiz-adv-x="1912" d="M873 593q-39 -103 -66 -172.5t-91 -162.5q-113 -162 -284 -225q-89 -32 -164 -32q-70 0 -129 29q-122 59 -139 255q-1 16 -1 32q0 192 180 521q10 19 19 19q3 0 6 -1q6 -3 6 -13q0 -11 -7 -29q-24 -53 -61.5 -126t-56.5 -146q-10 -41 -10 -79q0 -30 7 -59q15 -64 97 -99 q66 -12 127 -12q107 0 202 37q148 57 246 147v18q0 67 -12 126q-15 66 -36 139l108 271q33 -70 50 -121q14 -45 61 -45q7 0 15 1q192 40 381 82t354 108q98 38 132 92q1 2 3 2t5 -2q6 -4 6 -7q-42 -126 -90.5 -246.5t-102.5 -235.5q-11 -23 -27 -23q-9 0 -19 8q-8 6 -8 21 q0 14 7 36q9 30 24.5 59t27.5 59q-167 -75 -373 -122.5t-387 -103.5z" />
<glyph horiz-adv-x="1039" d="M1345 1096q-11 -103 -33 -197t-73 -160q-32 -42 -85.5 -63t-111.5 -34q-2 -2 -8 -2q-14 0 -17 13q-7 0 -17 -6t-16 -8q-61 -31 -111 -46q-39 -103 -66 -172.5t-91 -162.5q-113 -162 -284 -225q-89 -32 -164 -32q-70 0 -129 29q-122 59 -139 255q-1 16 -1 32 q0 192 180 521q10 19 19 19q3 0 6 -1q6 -3 6 -13q0 -11 -7 -29q-24 -53 -61.5 -126t-56.5 -146q-10 -41 -10 -79q0 -30 7 -59q15 -64 97 -99q66 -12 127 -12q107 0 202 37q148 57 246 147v18q0 67 -12 126q-15 66 -36 139l108 271q48 -101 75 -154q8 -17 32 -17q52 0 176 78 q19 14 29 41t23 49q4 10 7 10q2 0 2 -11v-17q0 -46 -13 -92q154 27 189 168q4 17 7 17q2 0 4 -7z" />
<glyph horiz-adv-x="1403" d="M1336 623v0q-42 -126 -90.5 -246.5t-102.5 -235.5q-18 -38 -46 -15q-16 11 -1 56q10 31 25 60t27 59q-150 -67 -331 -109.5t-343 -88.5l-474 -103l42 277q131 23 213.5 39.5t173.5 34.5q205 41 420 88.5t341 97.5q40 16 75.5 37.5t56.5 55.5q3 3 9 -0.5t5 -6.5z" />
<glyph horiz-adv-x="652" d="M412 117q-57 -25 -134 -44t-155 -36v-1q-51 -14 -123 -36l107 285l2 1l3 1v-1q80 12 231 42t185 137q1 4 2 4q2 0 5 -10q3 -16 4 -22v-8q0 -22 -8 -69h4q51 1 97 22.5t79 47.5q18 14 28 41t23 49q4 7 6 7q3 0 4 -8v-17q0 -46 -13 -92q152 27 189 168q2 9 6 11q2 1 3 1 t1 -2q-10 -103 -32.5 -197.5t-73.5 -160.5q-25 -33 -95 -65.5t-109 -32.5q-14 0 -17 13q-8 0 -17.5 -6t-15.5 -9l-52 -24t-59 -21q-18 -5 -32 -5q-38 0 -43 37z" />
<glyph horiz-adv-x="1806" d="M716 258q-113 -162 -284 -225q-89 -32 -164 -32q-70 0 -129 29q-122 59 -139 255q-1 16 -1 32q0 192 180 521q10 19 19 19q3 0 6 -1q6 -3 6 -13q0 -11 -7 -29q-24 -53 -61.5 -126t-56.5 -146q-10 -41 -10 -79q0 -30 7 -59q15 -64 97 -99q66 -12 127 -12q107 0 202 37 q148 57 246 147v18q0 75 -14 139q-17 72 -38 141l112 256q51 -113 72 -161q14 -34 62 -34q21 0 48 6v1l2 2q87 101 178 198.5t189 188.5q48 45 144 63q22 4 41 4q67 0 107 -47q37 -46 37 -94q0 -34 -18 -68q-44 -85 -95 -154q-81 -110 -209.5 -185.5t-261.5 -108.5 q-130 -34 -249 -51q-38 -177 -145 -333zM1478 1021q-19 34 -69 49q-20 6 -38 6q-30 0 -56 -15q-72 -39 -128 -95l-112 -112q108 21 210 46t190 67q14 7 14 22q0 13 -11 32z" />
<glyph horiz-adv-x="1155" d="M1126 852q3 4 55.5 61t117.5 126t123.5 129.5t72.5 74.5q48 44 144 62.5t148 -43.5q63 -77 19 -162t-95 -154q-161 -216 -388.5 -268t-461.5 -87q-38 -177 -145 -333q-113 -162 -284.5 -225t-293 -3.5t-138.5 255.5t179 553q12 24 24.5 18t-0.5 -42q-24 -53 -61.5 -126 t-56.5 -146.5t-3.5 -137.5t97.5 -99q180 -33 328.5 24.5t246.5 147.5q2 85 -14.5 157t-37.5 141l112 256q39 -87 56.5 -135.5t59.5 -57.5q49 -13 115.5 -1t80.5 15zM1607 1032q-18 33 -69 48t-93 -8q-72 -39 -128 -95t-112 -113q108 21 209.5 46.5t189.5 67.5q25 12 3 54z " />
<glyph horiz-adv-x="1477" d="M1164 469q-18 33 -69 48q-20 6 -39 6q-29 0 -55 -14q-72 -39 -128 -95.5t-111 -112.5q108 21 209.5 46t189.5 68q13 6 13 21q0 13 -10 33zM613 418q-16 -49 -60 -146l2 -2q70 6 127 19q87 102 179 200t190 191q48 44 144 63q22 4 42 4q66 0 106 -48q38 -46 38 -95 q0 -33 -18 -67q-44 -85 -95 -154q-72 -96 -177.5 -163.5t-227.5 -112.5l-1 -1q-42 -12 -121.5 -33t-155.5 -33q-50 -8 -89 -8q-22 0 -40 3q-41 5 -41 33q0 8 3 17q-70 -29 -199.5 -53t-218.5 -32l45 270q382 26 472 76q60 34 87 100q5 7 8 7t3 -11q0 -19 -2 -24z" />
<glyph horiz-adv-x="679" d="M1164 469q-18 33 -69 48q-20 6 -39 6q-29 0 -55 -14q-72 -39 -128 -95.5t-111 -112.5q108 21 209.5 46t189.5 68q13 6 13 21q0 13 -10 33zM613 418q-16 -49 -60 -146l2 -2q70 6 127 19q87 102 179 200t190 191q48 44 144 63q22 4 42 4q66 0 106 -48q38 -46 38 -95 q0 -33 -18 -67q-44 -85 -95 -154q-72 -96 -177.5 -163.5t-227.5 -112.5l-1 -1q-42 -12 -121.5 -33t-155.5 -33q-50 -8 -89 -8q-22 0 -40 3q-41 5 -41 33q0 8 3 17q-70 -29 -199.5 -53t-218.5 -32l45 270q382 26 472 76q60 34 87 100q5 7 8 7t3 -11q0 -19 -2 -24z" />
<glyph horiz-adv-x="1395" d="M1089 433q-19 33 -70 48q-20 6 -39 6q-29 0 -54 -14q-72 -39 -128 -95t-112 -113q108 21 209.5 46.5t189.5 67.5q13 6 13 22q0 12 -9 32zM933 163.5q-151 -84.5 -352 -136.5q-100 -27 -178 -27q-19 0 -37 2q-209 44 -360 182q-4 2 -2 14q3 10 12 10q51 -2 100 -2 q104 0 204 9q148 12 283 35q88 102 181 201.5t192 192.5q102 77 177 72t115 -53q61 -94 -61.5 -254.5t-273.5 -245zM604 981l151 240l44 -657l-151 -240z" />
<glyph horiz-adv-x="657" d="M1087 433q-19 33 -70 48q-20 6 -39 6q-29 0 -54 -14q-72 -39 -128 -95t-112 -113q108 21 209.5 46.5t189.5 67.5q13 6 13 22q0 12 -9 32zM931 163.5q-151 -84.5 -352 -136.5q-100 -27 -178 -27q-19 0 -37 2q-209 44 -360 182q-4 2 -2 14q3 10 12 10q51 -2 100 -2 q104 0 204 9q148 12 283 35q88 102 181 201.5t192 192.5q102 77 177 72t115 -53q61 -94 -61.5 -254.5t-273.5 -245zM602 981l151 240l44 -657l-151 -240z" />
<glyph horiz-adv-x="1176" d="M403 1033l151 240l44 -657l-151 -240zM43 263h1v1q276 23 360 42q88 101 180 199t191 191q47 44 143 63q22 4 42 4q66 0 106 -48q38 -46 38 -94q0 -33 -18 -68q-44 -85 -95 -154q-153 -205 -442.5 -289.5t-538.5 -108.5l1 2q-3 -1 -5.5 -2t-5.5 -1zM887 485 q-18 33 -69 48q-20 6 -39 6q-29 0 -55 -14q-72 -39 -128 -95t-111 -113q108 21 209.5 46.5t189.5 67.5q13 6 13 21q0 13 -10 33z" />
<glyph horiz-adv-x="423" d="M403 1033l151 240l44 -657l-151 -240zM43 263h1v1q276 23 360 42q88 101 180 199t191 191q47 44 143 63q22 4 42 4q66 0 106 -48q38 -46 38 -94q0 -33 -18 -68q-44 -85 -95 -154q-153 -205 -442.5 -289.5t-538.5 -108.5l1 2q-3 -1 -5.5 -2t-5.5 -1zM887 485 q-18 33 -69 48q-20 6 -39 6q-29 0 -55 -14q-72 -39 -128 -95t-111 -113q108 21 209.5 46.5t189.5 67.5q13 6 13 21q0 13 -10 33z" />
<glyph horiz-adv-x="1400" d="M422 534q-27 24 -62 69q-70 86 -86 199q-6 45 -6 88q0 65 14 125q24 100 81 169q55 67 131 67h2q53 -2 100 -13t98 -22l-86 -266q-109 33 -215 43q12 -75 38.5 -119.5t75.5 -86.5q38 -38 92 -38q47 0 107 29q126 63 219 153l-92 -237q-22 -55 -101.5 -116t-140.5 -114 q-43 -38 -142.5 -128t-189.5 -196.5t-138 -211.5q-22 -47 -22 -87q0 -48 33 -86q104 -117 249.5 -167t304.5 -55q27 -1 54 -1q132 0 265 22q160 27 294 61q18 5 25 5q4 0 4 -2q0 -1 -1 -3q-125 -151 -330.5 -246.5t-410.5 -109.5q-31 -2 -60 -2q-170 0 -310 69 q-164 80 -206 281q-11 53 -11 111q0 177 105 391q138 283 318 425z" />
<glyph horiz-adv-x="700" d="M755 684q-31 -52 -112.5 -109.5t-138.5 -106.5q-42 -38 -128.5 -127.5t-161.5 -195.5t-110 -210q-14 -39 -14 -73q0 -57 38 -100q104 -117 249.5 -167t304.5 -55q27 -1 54 -1q132 0 265 22q160 27 294 61q18 5 25 5q4 0 4 -2q0 -1 -1 -3q-125 -151 -329.5 -246.5 t-408.5 -109.5q-30 -2 -59 -2q-169 0 -308 69q-163 80 -205 281q-13 64 -13 135q0 135 49 293q74 241 224 405l237 233l-29 185q-1 3 -1 6q0 34 77 125q84 100 102 114q45 13 118 13h20q86 -2 119 -33q29 -28 29 -64q0 -17 -6 -36q-20 -59 -44 -95l-104 -162 q-20 -30 -36 -49z" />
<glyph horiz-adv-x="1066" d="M909 273q-218 -117 -456.5 -172.5t-452.5 -100.5l47 266q152 21 251 36.5t163 33.5q-37 56 -37 145q0 6 1 12q2 97 33.5 190t86.5 160q53 65 118 65h2q53 -2 100 -13t98 -23l-86 -265q-104 32 -215 42q12 -75 49.5 -131.5t86.5 -98.5q95 3 162.5 38t141.5 63q2 1 3 1 q5 0 5 -7q0 -8 -6 -24q-12 -36 -32 -82t-40.5 -87.5t-22.5 -47.5z" />
<glyph horiz-adv-x="587" d="M496 120q-68 -27 -214.5 -62.5t-281.5 -57.5l43 250l2 1l382 64l59 10l-40 135q-1 3 -1 6q0 34 77 125q85 100 103 114q45 13 117 13h20q86 -2 119 -33q29 -28 29 -64q0 -17 -6 -36q-20 -59 -44 -95l-104 -162q-57 -90 -135.5 -142t-124.5 -66z" />
<glyph horiz-adv-x="1392" d="M1186 276q-74 -81 -168.5 -134t-198.5 -85q-134 -40 -315 -55q-32 -3 -62 -3q-141 0 -246 59q-94 54 -129 152q-20 55 -20 113q0 84 41 176q70 156 145 274q13 18 27 18q5 0 10 -1q11 -5 11 -18q0 -9 -6 -23q-90 -166 -90 -272q0 -81 53 -127q109 -96 300 -96q20 0 41 1 h1q109 8 332.5 63.5t317.5 139.5l-25 74q-21 60 -35 60q-4 0 -7 -4q-33 -28 -85 -44q-21 -6 -41 -6q-30 0 -59 14t-30 56q-1 4 -1 7q0 37 15 64q33 63 64.5 129.5t73.5 123.5q31 42 66 42q22 0 46 -17q61 -44 100 -119q40 -79 40 -167q0 -62 -20 -129q-50 -160 -146 -266z " />
<glyph horiz-adv-x="1163" d="M993 372q114 252 259 420q83 98 158 98q28 0 55 -14q66 -35 66 -130q0 -47 -16 -108q-60 -165 -169 -300.5t-283 -184.5l-32 -8l-1 1q-73 -36 -187 -73t-240 -56q-98 -16 -194 -16q-27 0 -53 2q-122 5 -209 56q-94 52 -129 152q-20 54 -20 113q0 83 41 175 q70 156 145 274q13 18 27 18q5 0 10 -1q11 -5 11 -18q0 -9 -6 -23q-89 -166 -89 -267q0 -47 19 -80q61 -105 210 -125q52 -8 109 -8q104 0 222 25q183 37 296 78zM1264 640q-48 -17 -76.5 -54.5t-55.5 -73.5q-12 -16 -12 -33q0 -12 7 -24q15 -30 39 -42q65 4 145 42 q30 15 30 49q0 20 -10 47q-28 73 -67 89z" />
<glyph horiz-adv-x="800" d="M590 266q-84 -96 -184 -149t-406 -117l45 264q473 100 571 178l-25 74q-20 60 -35 60q-4 0 -7 -4q-32 -28 -84 -44q-20 -6 -40 -6q-31 0 -61 15q-29 14 -30 56q-1 3 -1 6q0 37 16 65q33 62 64.5 128.5t73.5 123.5q31 42 66 42q22 0 46 -17q61 -44 100 -119 q38 -75 38 -166q0 -59 -16 -124q-41 -166 -131 -266z" />
<glyph horiz-adv-x="580" d="M682 600q-49 -16 -77.5 -53.5t-55.5 -74.5q-12 -16 -12 -33q0 -12 7 -24q15 -30 39 -42q64 5 145 42q31 15 31 50q0 19 -10 46q-28 73 -67 89zM480 113l-281 -71l-199 -42l38 264l370 56q53 119 117.5 229.5t143.5 202.5q83 98 158 98q28 0 55 -14q66 -35 66 -130 q0 -47 -16 -108q-60 -164 -169 -300t-283 -185z" />
<glyph horiz-adv-x="1300" d="M1025 256q-92 -132 -227 -198.5t-253.5 -55.5t-190 106.5t-34.5 289.5q12 62 11 115q-1 13 -5 33t-21 17q-184 -29 -292 -175q24 75 49 149t55 146q56 51 124 90t161 54q37 4 37 -31q-3 -70 -20.5 -159t-9.5 -168q11 -127 94 -161t188.5 -14t210.5 75t161 107 q0 41 -4.5 100t-24.5 88q-51 -12 -107.5 -7.5t-82.5 34.5q-44 48 -3 125q33 66 64 137t80 126q24 27 58.5 14t53.5 -31q142 -145 87 -400t-159 -406z" />
<glyph horiz-adv-x="1300" d="M1025 256q-92 -132 -227 -198.5t-253.5 -55.5t-190 106.5t-34.5 289.5q12 62 11 115q-1 13 -5 33t-21 17q-184 -29 -292 -175q24 75 49 149t55 146q56 51 124 90t161 54q37 4 37 -31q-3 -70 -20.5 -159t-9.5 -168q11 -127 94 -161t188.5 -14t210.5 75t161 107 q0 41 -4.5 100t-24.5 88q-51 -12 -107.5 -7.5t-82.5 34.5q-44 48 -3 125q33 66 64 137t80 126q24 27 58.5 14t53.5 -31q142 -145 87 -400t-159 -406z" />
<glyph horiz-adv-x="1164" d="M1000 446q7 6 7 31v13l-57 755l151 251l60 -791q1 -11 1 -22q0 -82 -34 -159q-39 -87 -88 -163q-76 -115 -224.5 -209t-307.5 -131q-80 -19 -155 -19q-73 0 -142 19q-138 36 -193 183q-21 55 -21 114q0 87 45 183q75 161 151 279q239 373 391 402q26 5 49 5 q109 0 139 -110q11 -39 11 -83q0 -110 -65 -253q-91 -203 -338 -291l88 268q57 12 84 24.5t80 37.5q-26 156 -113 156q-23 0 -51 -11q-131 -53 -204 -160q-71 -103 -130 -211q-18 -33 -18 -66q0 -75 96 -149q72 -57 179 -60q13 -1 26 -1q94 0 193 22q112 25 217 67.5 t173 78.5z" />
<glyph horiz-adv-x="1048" d="M1022 465l-66 780l151 251l85 -1271l-144 -225l-25 358q-77 -115 -223 -208.5t-301 -129.5q-78 -18 -150 -18q-73 0 -141 19q-136 36 -190 183q-21 55 -21 114q0 87 45 183q75 161 151 279q239 373 391 402q26 5 49 5q109 0 139 -110q11 -39 11 -83q0 -110 -65 -253 q-91 -203 -338 -291l88 268q57 12 84 24.5t80 37.5q-26 156 -113 156q-23 0 -51 -11q-131 -53 -204 -160q-71 -103 -130 -211q-18 -33 -18 -66q0 -75 96 -149q72 -57 182 -58h8q106 0 219 28q117 28 225 73.5t176 82.5z" />
<glyph horiz-adv-x="1021" d="M629 452q-64 -260 -238.5 -330.5t-390.5 -121.5l45 263q104 15 230 38.5t225 71.5q0 155 -12.5 319.5t-22.5 318.5l124 196l66 239q165 96 331 193q321 189 331 194q9 5 14 5q9 0 9 -12q0 -3 -1 -7l-67 -239q-163 -96 -326.5 -191t-325.5 -190l33 -526q1 -16 1 -36 q0 -44 -5 -85q-8 -57 -20 -100z" />
<glyph horiz-adv-x="531" d="M439 1026l133 221l46 166q165 96 313.5 179t314.5 180q9 5 15 5q8 0 8 -10q0 -4 -1 -8l-67 -239q-159 -93 -302 -173.5t-300 -171.5l77 -943l-145 -232l-20 256q-108 -159 -224.5 -188.5t-286.5 -67.5l45 263q359 49 458 100z" />
<glyph horiz-adv-x="913" d="M672 1363l152 241l50 -799q2 -18 2 -28l2 -23l-1 -4q0 -131 -43 -257.5t-118 -234.5q-113 -162 -284 -225q-89 -32 -164 -32q-70 0 -129 29q-122 59 -139 255q-1 16 -1 32q0 192 180 521q10 19 19 19q3 0 6 -1q6 -3 6 -13q0 -11 -7 -29q-24 -53 -61.5 -126t-56.5 -146 q-10 -41 -10 -79q0 -30 7 -59q15 -64 97 -99q65 -11 125 -11q99 0 187 30q141 49 240 133z" />
<glyph horiz-adv-x="878" d="M672 1363l152 241l50 -799q2 -18 2 -28l2 -23l-1 -4q0 -131 -43 -257.5t-118 -234.5q-113 -162 -284 -225q-89 -32 -164 -32q-70 0 -129 29q-122 59 -139 255q-1 16 -1 32q0 192 180 521q10 19 19 19q3 0 6 -1q6 -3 6 -13q0 -11 -7 -29q-24 -53 -61.5 -126t-56.5 -146 q-10 -41 -10 -79q0 -30 7 -59q15 -64 97 -99q65 -11 125 -11q99 0 187 30q141 49 240 133z" />
<glyph horiz-adv-x="684" d="M626 452q-57 -233 -265 -343q-71 -38 -361 -109v0v1l3 7l44 256q179 28 268.5 48t181.5 60q-1 156 -11.5 320.5t-24.5 422.5l151 241l37 -683q3 -64 -4 -121t-19 -100z" />
<glyph horiz-adv-x="505" d="M432 987l151 251l70 -1021l-148 -217l-19 256q-108 -159 -211 -186t-275 -70l45 265q333 47 432 98z" />
<glyph horiz-adv-x="1036" d="M972 950q-36 -181 -117.5 -271t-228.5 -164q-100 -51 -226 -77t-225 -80q-40 -21 -76.5 -54.5t-25.5 -99.5l84 -534q27 -217 -27 -407q-29 216 -79 415.5t-51 422.5q0 111 23 217t62 193q51 79 139.5 116t201.5 69l149 42q27 59 78.5 172t106.5 113q37 12 132 8.5 t80 -81.5z" />
<glyph horiz-adv-x="717" d="M972 950q-36 -181 -117.5 -271t-228.5 -164q-100 -51 -226 -77t-225 -80q-40 -21 -76.5 -54.5t-25.5 -99.5l84 -534q27 -217 -27 -407q-29 216 -79 415.5t-51 422.5q0 111 23 217t62 193q51 79 139.5 116t201.5 69l149 42q27 59 78.5 172t106.5 113q37 12 132 8.5 t80 -81.5z" />
<glyph horiz-adv-x="831" d="M401 338q27 59 78 173t105 114q37 12 132 8t80 -81q-24 -117 -48.5 -161t-72.5 -104q-61 -74 -185 -135q-104 -53 -203 -80t-205 -52q-21 -5 -41 -10t-41 -10l46 264q186 21 355 74z" />
<glyph horiz-adv-x="831" d="M401 338q27 59 78 173t105 114q37 12 132 8t80 -81q-24 -117 -48.5 -161t-72.5 -104q-61 -74 -185 -135q-104 -53 -203 -80t-205 -52q-21 -5 -41 -10t-41 -10l46 264q186 21 355 74z" />
<glyph horiz-adv-x="950" d="M200 772l-6 -13q-56 -111 -108 -251q-14 -37 -14 -69q0 -88 107 -134q66 -12 127 -12q107 0 202 37q148 57 246 147v18q0 75 -14 139q-17 72 -38 141l112 256q65 -136 65 -280q0 -59 -11 -118q-37 -208 -152 -375q-113 -162 -284 -225q-89 -32 -164 -32q-70 0 -129 29 q-122 59 -139 255q-1 16 -1 32q0 192 180 521q24 45 53.5 96t56.5 98l31 -17l3 -2l161 -108q-33 -61 -66 -119l-66 -116z" />
<glyph horiz-adv-x="877" d="M200 772l-6 -13q-56 -111 -108 -251q-14 -37 -14 -69q0 -88 107 -134q66 -12 127 -12q107 0 202 37q148 57 246 147v18q0 75 -14 139q-17 72 -38 141l112 256q65 -136 65 -280q0 -59 -11 -118q-37 -208 -152 -375q-113 -162 -284 -225q-89 -32 -164 -32q-70 0 -129 29 q-122 59 -139 255q-1 16 -1 32q0 192 180 521q24 45 53.5 96t56.5 98l31 -17l3 -2l161 -108q-33 -61 -66 -119l-66 -116z" />
<glyph horiz-adv-x="506" d="M283 546q-22 15 -43 15q-48 0 -88 -81q-58 -118 -63 -141q-1 -3 -1 -5q0 -12 28 -25q36 -16 73 -16q26 0 52 8q64 17 109 45q11 7 11 25q0 26 -21 76q-37 85 -57 99zM444 345q-25 -114 -78 -208t-182 -127q-43 -11 -76 -11q-106 0 -106 117q0 2 1 3q1 157 61 335 q87 255 172 335q55 53 100 53q23 0 43 -14q59 -41 81 -175q8 -50 8 -104q0 -94 -24 -204z" />
<glyph horiz-adv-x="403" d="M519 822l37 -540l-153 -282l-26 388q-65 -75 -164 -104q-27 -8 -53 -8q-70 0 -131 58q-28 27 -28 74q0 24 7 53q21 87 69 181t104.5 174t84.5 106q76 71 138 71q20 0 38 -7q76 -30 77 -164zM293 739q-18 6 -34 6q-30 0 -54 -20q-38 -30 -62 -60q-11 -14 -11 -29 q0 -13 9 -28q22 -44 82 -61q29 -8 59 -8q32 0 65 9q3 19 3 42q0 31 -5 69q-8 65 -52 80z" />
<glyph horiz-adv-x="1200" d="M393 91q-10 -1 -22 -3l-1 -1v1q-92 -24 -184.5 -44t-185.5 -44l48 267l303 49q102 248 245 414q60 70 106 70q39 0 68 -50q37 -65 37 -123q0 -39 -18 -75q-43 -88 -98 -194q154 29 254 93q2 35 2 68q0 247 -85 425q-15 28 -49 51q-18 11 -38 11q-19 0 -40 -10 q-67 -34 -108.5 -94t-88.5 -112q-9 -10 -31 -10q-1 -1 -2 -1q-17 0 -17 9q0 1 1 3q22 65 63 117.5t80 105.5q50 67 120 131.5t139 87.5q26 9 50 9q40 0 76 -24q56 -38 79 -176q15 -96 29 -181q9 -53 9 -104q0 -33 -4 -66q-12 -117 -103.5 -257t-183.5 -211 q-171 -132 -427 -132h-23zM641 416l-4 6q-29 81 -70 81q-7 0 -15 -2q-51 -18 -85 -93q-4 -9 -4 -18q0 -14 11 -27q16 -18 25 -18h3q86 26 139 71z" />
<glyph horiz-adv-x="645" d="M365 86l-337 -79q-7 -2 -14.5 -4t-13.5 -3l42 261l245 42q51 115 116.5 225.5t140.5 200.5v1q0 9 45 75q50 72 104 99q30 14 65 14q62 0 141 -44q124 -69 208 -99q112 -54 112 -151v-10q-6 -105 -78 -214q-119 -180 -297 -284q-104 -61 -249 -61q-104 0 -230 31zM566 588 q-48 -17 -76.5 -54.5t-55.5 -73.5q-12 -17 -12 -33q0 -13 7 -25q15 -29 39 -41q65 4 145 42q30 15 30 49q0 20 -10 47q-28 73 -67 89zM1013 494q-63 39 -92.5 50.5t-103.5 41.5q-28 -77 -66.5 -144t-83.5 -128h8q34 0 104 14q78 15 148.5 40.5t105.5 58.5q13 13 13 26 q0 20 -33 41z" />
<glyph horiz-adv-x="435" d="M513 -460q-1 -4 -5 -12q-41 -87 -63 -87q-9 0 -15 16q-12 34 -12 97q0 36 4 83l38 475q-96 -25 -230 -56.5t-230 -55.5l38 268q177 23 301 49.5t252 77.5q8 4 14 4q8 0 8 -12v-5l-85 -594l16 31z" />
<glyph horiz-adv-x="1007" d="M470 17q-93 -17 -189 -17q-20 0 -41 1q-117 4 -229 16q-11 0 -11 12q0 11 9 17q159 88 338 156.5t356 140.5q91 36 156 109q5 7 5 18q0 8 -2 18q-6 25 -17 41q-36 -9 -76 -9q-15 0 -30 2q-57 4 -83 34q-23 25 -23 58q0 30 19 67q34 66 65 137t80 126q16 18 37 18 q10 0 21 -4q35 -13 53 -31q95 -97 95 -233v-13q-5 -145 -77.5 -283.5t-195 -246t-260.5 -134.5z" />
<glyph horiz-adv-x="1007" d="M470 17q-93 -17 -189 -17q-20 0 -41 1q-117 4 -229 16q-11 0 -11 12q0 11 9 17q159 88 338 156.5t356 140.5q91 36 156 109q5 7 5 18q0 8 -2 18q-6 25 -17 41q-36 -9 -76 -9q-15 0 -30 2q-57 4 -83 34q-23 25 -23 58q0 30 19 67q34 66 65 137t80 126q16 18 37 18 q10 0 21 -4q35 -13 53 -31q95 -97 95 -233v-13q-5 -145 -77.5 -283.5t-195 -246t-260.5 -134.5z" />
<glyph horiz-adv-x="1261" d="M160 48q-133 73 -151 203q-6 40 -6 82q0 91 28 188q40 141 113.5 270.5t125.5 201.5q4 5 9 5q2 0 5 -1q4 -1 4 -6q0 -3 -2 -8q-30 -63 -76 -147.5t-74 -172.5q-21 -68 -21 -134q0 -20 2 -39q8 -85 87 -146q69 -54 190 -62q33 -2 66 -2q84 0 161 15q239 43 435 170 q-104 10 -189.5 46.5t-109.5 119.5q-5 19 -5 41q0 80 71 207q91 162 156 224q28 28 71.5 61.5t97.5 36.5q6 0 20 -3q10 -2 10 -10q0 -4 -2 -8q-26 -55 -47 -112.5t-51 -106.5q-15 4 -31 4q-28 0 -60 -11q-53 -19 -76 -53q-11 -16 -11 -33q0 -20 15 -42q27 -41 150 -75 q42 -12 88 -18.5t73 -35.5q33 -35 33 -82q0 -56 -48 -130q-65 -101 -192.5 -206t-278.5 -178.5t-305 -95.5q-40 -6 -76 -6q-109 0 -199 49z" />
<glyph horiz-adv-x="848" d="M160 48q-133 73 -151 203q-6 40 -6 82q0 91 28 188q40 141 113.5 270.5t125.5 201.5q4 5 9 5q2 0 5 -1q4 -1 4 -6q0 -3 -2 -8q-30 -63 -76 -147.5t-74 -172.5q-21 -68 -21 -134q0 -20 2 -39q8 -85 87 -146q69 -54 190 -62q33 -2 66 -2q84 0 161 15q239 43 435 170 q-104 10 -189.5 46.5t-109.5 119.5q-5 17 -5 37q0 40 20 95q30 82 76 162q24 -72 86 -114t131 -60q42 -12 88 -18.5t73 -35.5q33 -35 33 -82q0 -56 -48 -130q-65 -101 -192.5 -206t-278.5 -178.5t-305 -95.5q-40 -6 -76 -6q-109 0 -199 49z" />
<glyph horiz-adv-x="1382" d="M1347 911q-8 -288 -170.5 -506t-426.5 -318q-136 -52 -308.5 -66t-350.5 -17q-19 -1 -63 -3q-4 -1 -8 -1q-20 0 -20 7q0 5 10 13q63 30 135.5 56t139.5 53l441 192q35 17 44 22q115 50 224 107t197 135q29 26 29 37v1q-12 89 -25 179.5t-29 178.5q29 63 60 123t58 124 q19 -76 35.5 -154.5t27.5 -162.5z" />
<glyph horiz-adv-x="1499" d="M1456 871q0 11 -12 21q-3 2 -7 2q-9 0 -20 -19q-85 -134 -127 -258.5t-141 -246.5q-158 -192 -399 -283q-136 -52 -308.5 -66t-350.5 -17q-19 -1 -63 -3q-4 -1 -8 -1q-20 0 -20 7q0 5 10 13q63 30 135.5 56t139.5 53l441 192l44 22q63 27 125 56.5t120 62.5 q165 93 225.5 219t147.5 301q25 51 67 98.5t95 74.5q6 3 14 3q6 0 14 -1q17 -4 17 -16l32 -950l-128 -191z" />
<glyph horiz-adv-x="1935" d="M1000 446q7 6 7 31v13l-43 581l127 210l62 224q165 97 331 194l332 194q9 4 14 4q8 0 8 -10q0 -3 -1 -8l-66 -239q-163 -96 -326 -191t-325 -190l41 -554q1 -11 1 -22q0 -82 -34 -159q-39 -87 -88 -163q-76 -115 -224.5 -209t-307.5 -131q-80 -19 -155 -19q-73 0 -142 19 q-138 36 -193 183q-21 55 -21 114q0 87 45 181q74 159 143 267q13 18 27 18q5 0 10 -1q11 -5 11 -18q0 -9 -6 -23q-60 -110 -99 -208q-9 -24 -9 -48q0 -74 93 -147q72 -57 179 -60q13 -1 26 -1q94 0 193 22q112 25 217 67.5t173 78.5z" />
<glyph horiz-adv-x="1048" d="M1012 465l-41 606l128 211l62 223q165 97 330.5 194t331.5 194q8 3 13 3q10 0 10 -11q0 -3 -1 -6l-67 -239q-163 -96 -326 -191l-326 -190l63 -977l-141 -282l-25 358q-77 -115 -223 -208.5t-301 -129.5q-78 -18 -150 -18q-73 0 -141 19q-136 36 -190 183q-20 54 -20 113 q0 83 41 175q70 156 145 274q13 18 27 18q5 0 10 -1q11 -5 11 -18q0 -9 -6 -23q-59 -108 -99 -206q-10 -24 -10 -48q0 -75 95 -149q72 -57 181 -58h7q105 0 216 28q115 28 221.5 73.5t174.5 82.5z" />
<glyph horiz-adv-x="950" d="M716 258q-113 -162 -284 -225q-89 -32 -164 -32q-70 0 -129 29q-122 59 -139 255q-1 16 -1 32q0 192 180 521q10 19 19 19q3 0 6 -1q6 -3 6 -13q0 -11 -7 -29q-24 -53 -61.5 -126t-56.5 -146q-10 -41 -10 -79q0 -30 7 -59q15 -64 97 -99q66 -12 127 -12q107 0 202 37 q148 57 246 147v18q0 75 -14 139q-17 72 -38 141l112 256q65 -136 65 -280q0 -59 -11 -118q-37 -208 -152 -375z" />
<glyph horiz-adv-x="950" d="M716 258q-113 -162 -284 -225q-89 -32 -164 -32q-70 0 -129 29q-122 59 -139 255q-1 16 -1 32q0 192 180 521q10 19 19 19q3 0 6 -1q6 -3 6 -13q0 -11 -7 -29q-24 -53 -61.5 -126t-56.5 -146q-10 -41 -10 -79q0 -30 7 -59q15 -64 97 -99q66 -12 127 -12q107 0 202 37 q148 57 246 147v18q0 75 -14 139q-17 72 -38 141l112 256q65 -136 65 -280q0 -59 -11 -118q-37 -208 -152 -375z" />
<glyph horiz-adv-x="362" d="M586 280l-75 -264q-103 -17 -170 -17q-35 0 -61 5q-73 14 -121 31l-94 -223l-65 -44l187 485q15 38 42 38h5q31 -4 75 -13q36 -8 107 -9q7 -1 15 -1q66 0 155 12z" />
<glyph horiz-adv-x="812" d="M547 670l157 232l24 -55q23 -55 32 -143q2 -25 2 -50q0 -69 -17 -149q-24 -111 -117 -222q-20 -23 -40 -43q-6 -24 -17 -46t-17 -43q-18 -52 -30 -116q-3 -14 -3 -28q0 -46 32 -81q21 -23 56 -23q10 0 23 3q50 9 78 31q18 15 33 35t31 39q-12 -60 -24.5 -124.5 t-41.5 -115.5q-27 -45 -63 -87.5t-97 -51.5q-8 -1 -16 -1q-36 0 -57 24q-26 29 -38 63q-23 63 -23 126q0 62 23 123q44 122 90 210q6 14 10 21q-28 -20 -62 -39q-39 -21 -129 -53.5t-141 -47.5l-205 -58l46 273q114 24 165.5 35t102.5 22q78 18 159 43t138 49h-1v4 q0 38 -20 109q-22 73 -43 135z" />
<glyph horiz-adv-x="1518" d="M658 232q102 249 245 415q60 70 106 70q39 0 68 -50q37 -65 37 -123q0 -39 -18 -75q-43 -88 -98 -194q154 29 254 93q2 35 2 68q0 247 -85 425q-15 28 -49 51q-18 11 -38 11q-19 0 -40 -10q-67 -34 -108.5 -94t-88.5 -112q-9 -10 -31 -10q-1 -1 -2 -1q-17 0 -17 9 q0 1 1 3q22 65 63 117.5t80 105.5q50 67 120 131.5t139 87.5q26 9 50 9q40 0 76 -24q56 -38 79 -176q15 -96 29 -181q9 -53 9 -104q0 -33 -4 -66q-12 -117 -103.5 -257t-183.5 -211q-171 -132 -427 -132h-35q-110 0 -176 -7q-9 -2 -19 -2q-72 0 -195 55l-282 127 q-19 10 -19 17q0 6 11 10zM953 360l-4 7q-29 81 -70 81q-7 0 -15 -2q-51 -18 -85 -93q-4 -9 -4 -18q0 -14 11 -27q15 -19 25 -19q1 0 3 1q85 26 139 70z" />
<glyph horiz-adv-x="1027" d="M1368 453q-63 39 -92.5 50.5t-103.5 41.5q-28 -77 -66.5 -144t-83.5 -128h8q34 0 104 14q78 15 148.5 40.5t105.5 58.5q13 13 13 26q0 20 -33 41zM921 547q-48 -17 -76.5 -54.5t-55.5 -73.5q-12 -17 -12 -33q0 -13 7 -25q15 -29 39 -41q66 4 144 42q31 15 31 50 q0 19 -10 46q-28 73 -67 89zM720 45q-137 -33 -206 -44q-10 -2 -23 -2q-68 0 -193 55l-282 127q-19 10 -19 17q0 6 11 10q216 8 330.5 15t303.5 39q52 115 117 225.5t140 200.5v1q0 9 45 75q50 72 105 99q29 14 64 14q62 0 141 -44q124 -69 208 -99q113 -54 113 -151v-10 q-7 -105 -79 -214q-118 -180 -296 -284q-104 -61 -250 -61q-104 0 -230 31z" />
<glyph horiz-adv-x="1433" d="M705 948q15 -63 17.5 -144.5t-25.5 -151.5q-5 -12 -24 -24.5t-19 6.5q-3 44 -23.5 83t-65.5 45q-49 -12 -78 -45t-50 -72q-112 -216 -284 -307q-20 -13 -20 -24q155 -51 324 -41t298 41q165 39 313.5 103t284.5 141q-17 -69 -58.5 -113.5t-85.5 -83.5 q-257 -228 -660 -324q-48 -12 -135 -25.5t-174.5 -11t-155 30t-75.5 99.5q-9 64 3.5 141.5t27.5 114.5q29 76 82 128.5t115 88.5q96 54 159.5 147t122.5 193q30 51 87 76.5t99 -71.5z" />
<glyph horiz-adv-x="1432" d="M137 323q-4 -6 -4 -10q155 -51 323.5 -41t298.5 41q164 39 312.5 103t284.5 141q-17 -69 -58 -113.5t-85 -83.5q-258 -228 -660 -324q-48 -12 -135 -25.5t-174.5 -11t-155 30t-76.5 99.5q-8 63 4 141q15 92 30 122z" />
<glyph horiz-adv-x="868" d="M3 1q6 15 60 89t174.5 187t285.5 181q5 1 13 5v-1q1 1 2 1q120 56 212 18l10 -12q-23 -56 -45.5 -114.5t-50.5 -111.5q-9 -15 -27.5 -14.5t-30.5 2.5q-70 7 -127 -7v-1q-138 -46 -235 -133q-48 -43 -92 -89h-149z" />
<glyph horiz-adv-x="1054" d="M78 276q41 96 107.5 159.5t155.5 116.5q-66 59 -24 245t144 258q67 47 205 68.5t237 -19.5q101 -42 60 -197.5t-147 -292t-361 -265.5t-330.5 -216t-100.5 -128q-5 -5 -14.5 -4t-9.5 10q13 66 28.5 126t49.5 139zM817 795q-4 11 -9 20q-48 72 -186.5 54t-180.5 -53 q16 -44 41 -82.5t49 -77.5q1 -3 2.5 -6t3.5 -6q65 27 133 59.5t140 84.5z" />
<glyph horiz-adv-x="1534" d="M1460 871q-36 -110 -115 -285.5t-129 -286.5l-44 -36l126 286q-115 -52 -348 -121t-368 -104q-121 -30 -223.5 -57t-170.5 -93q-29 -29 -71.5 -75t-72.5 -94q-5 -5 -14.5 -4t-9.5 10q9 44 66 168t138 224q45 56 90 85.5t81 46.5q45 21 165.5 51t262 64t278 69t213.5 66 q40 16 75.5 37.5t56.5 55.5q3 3 9 -0.5t5 -6.5z" />
<glyph horiz-adv-x="1706" d="M900 615q87 102 179.5 200t190.5 190q48 45 144 63t148 -43q63 -78 19 -162.5t-95 -153.5q-72 -96 -177 -163.5t-228 -112.5v-1q-30 -9 -109.5 -35t-162 -41.5t-144.5 -5t-54 75.5q8 73 -55 58.5t-147 -68.5q-65 -42 -133 -92.5t-116 -110.5q-37 -45 -65.5 -93 t-70.5 -115q-5 -5 -14.5 -4t-9.5 10q3 42 18.5 123.5t42.5 148.5q10 13 34 43q48 71 152 169q99 92 190 153q78 53 150.5 79t119.5 1q37 -20 42 -71q4 -60 58.5 -55.5t92.5 13.5zM1393 794q-18 34 -69 48.5t-94 -8.5q-72 -39 -128 -95t-111 -112q108 21 209.5 46t189.5 67 q26 12 3 54z" />
<glyph horiz-adv-x="1386" d="M594 1346l150 241l44 -657l-150 -241zM1165 698q-114 -153 -266.5 -217t-311.5 -113.5t-308 -122t-255 -240.5q-5 -5 -14.5 -4t-9.5 10q45 216 203 386.5t392 221.5q87 102 179.5 200t190.5 191q48 44 144 62t148 -43q63 -78 11 -170t-103 -161zM1078 799q-19 33 -70 48 t-93 -8q-72 -39 -128 -95t-112 -113q108 21 210 46t190 67q24 13 3 55z" />
<glyph horiz-adv-x="997" d="M843 486q-95 -51 -189 -86.5t-188 -62.5q-152 -44 -253 -117.5t-189 -214.5q-5 -5 -14.5 -4t-9.5 10q13 66 28.5 126t49.5 139q62 144 128 191.5t189 81.5q-39 60 -36.5 157.5t33.5 190t85.5 159t120.5 65.5q54 -2 101 -13t98 -23l-86 -265q-104 32 -215 42 q12 -75 49 -131.5t87 -98.5q95 3 162.5 38t141.5 63q14 5 2 -30.5t-32 -81.5t-40.5 -87.5t-22.5 -47.5z" />
<glyph horiz-adv-x="436" d="M285 188q-2 13 -26 103q-20 75 -38 75q-3 0 -6 -2q-32 -28 -84 -44q-21 -6 -41 -6q-31 0 -60 14q-28 14 -29 56v5q0 39 14 66q33 63 64.5 129.5t73.5 123.5q31 42 66 42q22 0 46 -17q61 -44 100 -119q44 -88 48 -200v-19q0 -102 -36 -193q-17 -50 -48 -105.5t-61 -96.5 l-201 51l15 34q44 15 104 39t97 54q0 2 0.5 4.5t1.5 5.5z" />
<glyph horiz-adv-x="674" d="M337 252q-18 -71 -55.5 -133t-80.5 -119l-201 51l15 34q11 3 100.5 43.5t91.5 50.5v1q0 154 -12 316.5t-22 315.5l123 196l66 238q165 96 331 193t331 194q9 4 14 4q9 0 9 -11q0 -3 -1 -6l-66 -239q-164 -96 -327 -191t-326 -191l33 -525q1 -22 1 -44q0 -40 -4 -77 q-8 -58 -20 -101z" />
<glyph horiz-adv-x="362" d="M316 233q-31 -123 -115 -233l-201 51l15 34q36 12 84.5 30.5t87.5 41.5q-1 157 -12 327.5t-21 324.5l152 240l34 -594q5 -114 -24 -222z" />
<glyph horiz-adv-x="1054" d="M597 370q-59 -28 -118.5 -50.5t-116.5 -46.5q-124 -51 -199 -107q-89 -68 -139 -161q-5 -5 -14.5 -4t-9.5 10q33 157 66 247q49 135 136 197q42 30 97 51.5t130 46.5q51 16 82 27q21 7 41.5 15t41.5 14q11 24 27 63t36 80q27 55 57.5 99.5t62.5 44.5q37 12 132 8t80 -81 q-13 -63 -28.5 -111t-42.5 -90q-35 -52 -95 -107q-51 -45 -110 -81t-116 -64z" />
<glyph horiz-adv-x="1286" d="M930 445q-174 -135 -435 -132q-20 0 -58 -8q-66 -15 -134.5 -42.5t-120.5 -67.5q-36 -30 -75 -74.5t-83 -115.5q-5 -5 -14.5 -4t-9.5 10q38 184 77.5 279.5t120.5 150.5q73 47 196 84q22 7 44 11q102 249 245 415q110 129 172.5 19.5t20.5 -197.5q-43 -88 -98 -194 q154 29 254 93q13 292 -84 493q-14 28 -48 50.5t-78 1.5q-67 -34 -108.5 -94t-88.5 -112q-9 -10 -31 -10.5t-18 11.5q21 65 62.5 117.5t80.5 105.5q50 67 120 131.5t138.5 87.5t125 -15t79.5 -176q15 -96 29 -181.5t6 -168.5q-12 -117 -103.5 -257.5t-183.5 -210.5zM732 665 v0q-3 9 -3 6q-34 96 -85 78.5t-85 -92.5q-11 -24 7 -45t28 -18q86 26 138 71z" />
<glyph horiz-adv-x="1124" d="M845 861l156 232l23 -55q24 -56 33 -144t-14.5 -198.5t-116.5 -221.5q-22 -26 -41 -43q-6 -24 -16.5 -46.5t-16.5 -43.5q-18 -52 -30 -116.5t29 -109.5q28 -31 78.5 -21.5t78.5 32.5q18 15 32.5 34.5t30.5 40.5v0q-12 -62 -24.5 -126.5t-40.5 -113.5q-27 -45 -63 -87 t-97 -51q-48 -6 -73.5 22.5t-37.5 62.5q-45 124 -1 248q56 156 90 211q3 5 5.5 10l5.5 11q-51 -37 -93.5 -53t-102.5 -34q-206 -63 -307 -97t-297 -205l-29 -2q61 128 138 267.5t277 198.5v0q119 40 247 70.5t240 79.5l-1 -1q2 39 -19.5 112.5t-42.5 136.5z" />
<glyph horiz-adv-x="927" d="M24 5q-5 -5 -14.5 -4t-9.5 10q3 42 18.5 123.5t42.5 148.5q27 34 63 76.5t81 87.5q69 72 153.5 139.5t173.5 109.5q95 43 174 43q40 0 59.5 -31.5t38.5 -55.5l6 -2t6 -1l67 10l-127 -274q-26 -6 -39 -10q-53 -2 -67 46q-15 31 -48 52t-76 4q-126 -47 -234 -135 q-113 -93 -155.5 -159t-112.5 -178z" />
<glyph horiz-adv-x="549" d="M549 597q100 39 229 106q18 12 22 19q-8 25 -67 39q-66 15 -159 18t-133 12q-17 3 -2 38q24 59 53 114t57 115l2 1q70 -17 208.5 -28.5t194.5 -54.5q36 -28 13 -83.5t-37 -84.5q-25 -51 -53.5 -96.5t-58.5 -93.5q-102 -153 -233 -237q-76 -50 -164.5 -83t-166.5 -75 q-69 -37 -128.5 -88.5t-101.5 -129.5q-5 -5 -14.5 -4t-9.5 10q42 199 91 301q38 79 90 128q77 70 176 95t192 62z" />
<glyph horiz-adv-x="916" d="M1026 799q0 5 4.5 7.5t4.5 -8.5q2 -51 -12 -110q63 -23 117.5 38.5t71.5 130.5q5 33 10 9q-14 -136 -73.5 -296t-236.5 -160q-16 0 -17 14q-6 0 -33 -15q-46 -23 -145 -40.5t-87 84.5q6 58 -33 59t-99.5 -31t-130.5 -84t-125 -100h-1q-80 -73 -118 -133.5t-99 -158.5 q-5 -5 -14.5 -4t-9.5 10q3 42 18.5 123.5t42.5 148.5q20 38 45 66.5t49 56.5q44 51 120.5 121t160 129t162.5 91t129 8q37 -19 41 -71q7 -95 127 -36.5t131 151.5z" />
<glyph horiz-adv-x="900" d="M900 615q87 102 179.5 200t190.5 190q48 45 144 63t148 -43q63 -78 19 -162.5t-95 -153.5q-72 -96 -177 -163.5t-228 -112.5v-1q-30 -9 -109.5 -35t-162 -41.5t-144.5 -5t-54 75.5q8 73 -55 58.5t-147 -68.5q-65 -42 -133 -92.5t-116 -110.5q-37 -45 -65.5 -93 t-70.5 -115q-5 -5 -14.5 -4t-9.5 10q3 42 18.5 123.5t42.5 148.5q10 13 34 43q48 71 152 169q99 92 190 153q78 53 150.5 79t119.5 1q37 -20 42 -71q4 -60 58.5 -55.5t92.5 13.5zM1393 794q-18 34 -69 48.5t-94 -8.5q-72 -39 -128 -95t-111 -112q108 21 209.5 46t189.5 67 q26 12 3 54z" />
<glyph horiz-adv-x="613" d="M594 1346l150 241l44 -657l-150 -241zM1165 698q-114 -153 -266.5 -217t-311.5 -113.5t-308 -122t-255 -240.5q-5 -5 -14.5 -4t-9.5 10q45 216 203 386.5t392 221.5q87 102 179.5 200t190.5 191q48 44 144 62t148 -43q63 -78 11 -170t-103 -161zM1078 799q-19 33 -70 48 t-93 -8q-72 -39 -128 -95t-112 -113q108 21 210 46t190 67q24 13 3 55z" />
<glyph horiz-adv-x="686" d="M595 357q-89 -36 -150 -50.5t-157 -63.5q-169 -87 -264 -238q-5 -5 -14.5 -4t-9.5 10q23 114 130 278q113 174 191.5 205t264.5 67l-41 136q-9 30 76 130.5t103 113.5q51 15 137.5 13.5t119.5 -32.5q41 -41 21.5 -100.5t-43.5 -95.5l-104 -162q-57 -89 -135.5 -141.5 t-124.5 -65.5z" />
<glyph horiz-adv-x="654" d="M554 326q-84 -21 -136 -32t-130 -51q-169 -87 -264 -238q-5 -5 -14.5 -4t-9.5 10q23 114 130 278q87 135 154 180.5t198 69.5q112 252 261 426q115 135 213 83.5t50 -237.5q-60 -165 -169 -300.5t-283 -184.5zM756 813q-49 -17 -77 -54.5t-55 -73.5q-21 -29 -6 -58 t39 -41q67 4 145 42q48 23 20.5 96t-66.5 89z" />
<glyph horiz-adv-x="735" d="M643 1026l133 221l46 166q165 96 313.5 179t314.5 180q27 15 22 -13l-67 -239q-159 -93 -302 -173.5t-300 -171.5l82 -967l-150 -208q-39 438 -50 555.5t-10.5 111t3.5 -38.5t-9 106q-170 -57 -336 -172t-286 -282l-47 10q88 336 294 454.5t359 171.5z" />
<glyph horiz-adv-x="728" d="M636 1160l151 250l87 -1190l-146 -220l-58 734q-171 -57 -337 -172t-286 -282l-47 10q88 336 295 454.5t360 172.5z" />
<glyph horiz-adv-x="734" d="M597 370q-59 -28 -118.5 -50.5t-116.5 -46.5q-124 -51 -199 -107q-89 -68 -139 -161q-5 -5 -14.5 -4t-9.5 10q33 157 66 247q49 135 136 197q42 30 97 51.5t130 46.5q51 16 82 27q21 7 41.5 15t41.5 14q11 24 27 63t36 80q27 55 57.5 99.5t62.5 44.5q37 12 132 8t80 -81 q-13 -63 -28.5 -111t-42.5 -90q-35 -52 -95 -107q-51 -45 -110 -81t-116 -64z" />
<glyph horiz-adv-x="753" d="M472 325l-128 -30v-1q-192 -84 -320 -289q-5 -5 -14.5 -4t-9.5 10q13 66 28 126t50 139q61 142 133 191t176 71v2l3 1l5 1q51 115 116 225t141 201q-6 3 44.5 75t104.5 99q81 39 205 -29.5t208 -98.5q119 -57 113 -161.5t-78 -213.5q-119 -180 -297 -285.5t-480 -28.5z M1121 733q-63 38 -92.5 50t-104.5 42q-28 -78 -66 -144.5t-83 -128.5q33 -1 111.5 14.5t148.5 41t105 58t-19 67.5zM674 826q-49 -17 -77 -54t-55 -74q-21 -28 -5.5 -57.5t38.5 -41.5q66 5 145 42q48 23 20.5 96t-66.5 89z" />
<glyph horiz-adv-x="819" d="M767 -41v0q9 84 11.5 169.5t-21.5 157.5q-32 88 -107.5 96t-162 -24t-167 -85.5t-122.5 -89.5q-48 -41 -95.5 -84t-81.5 -98q-3 -3 -12.5 4t-8.5 13q27 63 57 126.5t63 123.5q36 35 155.5 126.5t252.5 162t246.5 81.5t138.5 -115q10 -53 8.5 -91t-5.5 -75l-3 -8v0l-1 -7 l-49 -341l16 31l-31 -278q-1 -4 -5 -12q-59 -124 -78 -71t-8 180l9 104v2z" />
<glyph horiz-adv-x="764" d="M728 518q-3 -126 -68.5 -235t-162.5 -181t-210 -94q-37 -8 -72 -8q-73 0 -137 31q-81 40 -81 132q0 25 7 55q28 135 94 222q3 5 5 5q1 0 1 -5q-3 -16 -3 -31q0 -32 13 -63q18 -47 59 -56q50 -13 104 -13q101 0 217 45q179 68 227 199q3 8 5 8t2 -11z" />
<glyph horiz-adv-x="1304" d="M919 382q-33 72 -75 106q-31 24 -60 24q-30 0 -58 -25q-42 -37 -64 -85.5t-43 -100.5l289 57q13 3 13 14q0 4 -2 10zM568 297q19 54 56.5 143.5t90 168t117.5 122.5q36 25 75 25q32 0 65 -16q60 -30 95 -93.5t57 -140.5q28 -31 65 -31q25 0 53 14l-131 -282 q-147 -46 -287 -78.5t-302 -74.5q-9 -20 -17.5 -56t-34.5 -45q-4 -1 -8 -1q-12 0 -12 13q0 4 1 8q2 13 7 31t8 35q-96 -21 -163 -32q-38 -6 -84 -6q-38 0 -83 4q-139 14 -139 135q0 22 5 46q28 164 92 250q6 9 8 9q1 0 1 -3q0 -2 -1 -6q-3 -16 -3 -31q0 -70 64 -115 q55 -27 134 -27q36 0 77 6q130 18 194 28z" />
<glyph horiz-adv-x="1427" d="M164 -1q-53 0 -83 15q-81 40 -81 132q0 24 6 52q27 134 92 221q6 8 8 8q1 0 1 -3q0 -2 -1 -5q-2 -14 -2 -28q0 -32 13 -64q19 -45 59 -55q19 -5 41 -7q520 24 1038 239q40 16 75.5 37.5t56.5 55.5q3 3 9 -0.5t5 -6.5q-42 -126 -90.5 -246.5t-102.5 -235.5 q-18 -38 -46 -15q-16 11 -1 56q10 31 25 60t27 59q-489 -194 -748 -231.5t-301 -37.5z" />
<glyph horiz-adv-x="1478" d="M1166 429q-19 34 -70 49q-20 5 -38 5q-29 0 -55 -14q-72 -39 -128 -95l-112 -112q108 21 210 46t189 67q14 7 14 22q0 13 -10 32zM538 244q16 -9 42 -9q13 0 29 2q46 7 74 13q87 102 179 200t191 190q48 45 144 63q22 4 41 4q67 0 107 -48q37 -45 37 -93q0 -34 -18 -69 q-44 -85 -95 -154q-99 -132 -244 -204t-300 -105q-110 -24 -226 -31q-12 -1 -22 -1q-77 0 -77 39q0 8 3 17q-60 -25 -159 -49q-42 -10 -79 -10q-49 0 -87 18q-80 39 -80 131q0 24 5 51q26 133 90 220q7 13 10 13q1 0 1 -4q0 -3 -1 -9q-2 -13 -2 -25q0 -33 14 -65 q18 -44 58 -53q37 -10 87 -10q37 0 81 6q102 13 160 46q61 34 88 100q5 7 7 7q4 0 4 -9v-2q-1 -19 -3 -23q-10 -33 -25 -67.5t-34 -79.5z" />
<glyph horiz-adv-x="1302" d="M513 1022l152 241l44 -657l-152 -240zM1097 429q-139 -186 -392 -289t-490 -137h-1v1q-26 -3 -48 -3q-52 0 -88 16q-81 40 -81 132q0 24 6 53q27 134 93 221q6 10 8 10v-2q0 -2 -1 -8q-3 -15 -3 -31q0 -31 13 -62q19 -45 60 -54q36 -9 81 -9q17 0 36 1v2h2q42 2 102.5 7 t120.5 18q87 102 179.5 200t190.5 191q48 44 144 63q22 4 42 4q66 0 106 -48q36 -45 36 -85q0 -30 -19 -57q-46 -65 -97 -134zM998 475q-19 33 -70 48q-20 6 -39 6q-29 0 -54 -14q-72 -39 -128 -95t-112 -113q108 21 210 46.5t190 67.5q13 6 13 21q0 13 -10 33z" />
<glyph horiz-adv-x="1132" d="M972 247q-39 -21 -161.5 -71t-265.5 -95.5t-275 -69.5q-62 -11 -107 -11q-53 0 -85 15q-80 39 -80 130q0 23 5 49q24 130 87 219q6 9 9 9t3 -9q-1 -11 -1 -22q0 -34 14 -66q19 -43 58 -52q28 -7 67 -7q47 0 109 10q116 17 175 34q-37 56 -37 145q0 6 1 12q2 97 33 189.5 t86 159.5q53 65 118 65h2q54 -1 101 -12t98 -23l-86 -266q-109 33 -215 43q12 -75 49.5 -131.5t86.5 -98.5q94 3 162 37.5t142 63.5q2 1 3 1q5 0 5 -7q0 -8 -6 -24q-12 -36 -32 -82.5t-40.5 -87.5t-22.5 -47z" />
<glyph horiz-adv-x="879" d="M670 240q-37 -41 -114.5 -91t-166 -88t-173.5 -54q-34 -7 -63 -7q-44 0 -75 15q-80 39 -80 131q0 21 4 44q22 127 83 217q9 10 13 10t4 -10q-1 -8 -1 -16q0 -36 16 -69q18 -40 56 -49q28 -7 62 -7q90 0 225 51q185 69 233 93q-3 10 -27 79q-20 54 -33 54q-4 0 -7 -4 q-33 -27 -85 -43q-21 -7 -41 -7q-30 0 -59 15q-29 14 -30 56q-1 4 -1 7q0 37 15 64q34 62 65.5 129t73.5 124q31 42 65 42q22 0 46 -17q61 -44 100 -119q39 -76 39 -168q0 -57 -16 -121q-40 -164 -128 -261z" />
<glyph horiz-adv-x="1063" d="M461 102q-47 -25 -178 -75q-78 -29 -135 -29q-40 0 -70 14q-80 39 -80 131q0 21 4 46q23 128 85 218q7 11 11 11q3 0 3 -11q-4 -22 -4 -39q0 -64 50 -82q41 -15 92 -15q29 0 62 5q90 13 177.5 44.5t117.5 44.5q0 156 -12.5 320.5t-22.5 318.5l124 196l66 239 q165 96 330.5 193t331.5 194q9 5 14 5q9 0 9 -12q0 -3 -1 -7l-67 -239q-163 -96 -326.5 -191t-325.5 -190l33 -526q1 -21 1 -42q0 -149 -62 -284q-71 -155 -227 -238z" />
<glyph horiz-adv-x="720" d="M657 420q-57 -232 -264 -342q-56 -30 -151 -63q-47 -16 -88 -16t-76 16q-80 39 -80 130q0 18 4 38q18 121 76 212q10 13 16 13t7 -13v-5q0 -98 72 -117q34 -9 71 -9q53 0 113 18q102 29 171 59q0 156 -11.5 387t-21.5 385l151 241l35 -712q1 -17 1 -34q0 -98 -25 -188z " />
<glyph horiz-adv-x="962" d="M912 571q-48 -210 -248.5 -361t-418.5 -198q-39 -9 -84 -11q-6 -1 -12 -1q-39 0 -71 15q-80 39 -80 131q0 21 4 44q22 127 83 217q7 11 11 11q5 0 6 -11q-1 -8 -1 -15q0 -37 16 -69q19 -40 56 -49q33 -8 72 -8q48 0 106 13q103 23 172 43q-20 20 -20 46q0 12 4 25 q14 42 34 66l143 187q14 18 43 18q34 0 89 -25q96 -44 96 -66v-2z" />
<glyph horiz-adv-x="1232" d="M878 196q-170 -133 -427 -133h-8q-24 0 -42 -4h-1q-57 -15 -160 -45q-53 -16 -95 -16q-39 0 -67 14q-80 39 -80 131q0 21 4 44q22 127 84 217q10 14 14 14q2 0 2 -8v-6q-1 -9 -1 -19q0 -34 15 -66q19 -40 57 -49q28 -7 58 -7q24 0 49 5q55 10 106 21v-1q103 248 245 414 q60 70 106 70q39 0 68 -50q37 -65 37 -123q0 -39 -18 -75q-24 -49 -49 -97.5t-49 -96.5q154 29 254 93q2 35 2 68q0 248 -86 425q-14 28 -48 51q-18 11 -38 11q-19 0 -40 -10q-67 -34 -108.5 -94t-88.5 -112q-9 -10 -31 -10q-1 -1 -2 -1q-17 0 -17 9q0 1 1 3q22 65 63 117.5 t80 105.5q50 67 120 131.5t139 87.5q26 9 50 9q40 0 76 -24q56 -38 79 -176q15 -96 29 -181q9 -53 9 -104q0 -33 -4 -65q-12 -117 -103.5 -257.5t-183.5 -210.5zM681 416l-4 6q-29 81 -70 81q-7 0 -15 -2q-51 -18 -85 -93q-4 -9 -4 -18q0 -14 11 -27q16 -18 25 -18h3 q86 26 139 71z" />
<glyph horiz-adv-x="960" d="M689 639l156 232l24 -55q23 -55 32 -143q2 -24 2 -51q0 -68 -16 -147q-24 -111 -117 -222q-26 -30 -41 -43q-6 -24 -16.5 -46.5t-16.5 -43.5q-18 -52 -30 -116q-3 -14 -3 -28q0 -46 32 -81q21 -23 56 -23q10 0 23 3q50 9 78 31q18 15 32.5 35t30.5 40q-11 -61 -24 -125.5 t-41 -115.5q-27 -45 -63 -87.5t-97 -51.5q-8 -1 -16 -1q-36 0 -57 24q-26 29 -38 63q-23 63 -23 126q0 62 23 123q44 122 89 210q3 5 5.5 10l5.5 11q-34 -24 -62 -39q-102 -54 -265 -105q-80 -25 -147 -25q-70 0 -127 27q-81 40 -81 132q0 26 7 55q28 136 94 222q3 5 5 5 q1 0 1 -5q-3 -16 -3 -31q0 -32 13 -63q18 -46 59 -56q75 -19 147 -19q74 0 144 21q138 40 288 105h-1v7q0 38 -19 106q-22 73 -43 135z" />
<glyph horiz-adv-x="467" d="M463 71q-46 -19 -182 -54q-73 -19 -126 -19q-44 0 -74 14q-83 41 -83 140q0 21 4 46q22 135 94 217q5 5 7 5q3 0 3 -6v-6q0 -44 15 -84q15 -44 55 -53q31 -8 71 -8q58 0 137 17q132 27 177 52q60 32 88 100q5 7 7 7q4 0 4 -9v-2q-1 -19 -3 -24q-21 -66 -67.5 -163 t-94.5 -188q-10 -18 -26 -18h-1q-9 1 -9 13q0 9 4 23z" />
<glyph horiz-adv-x="598" d="M726 212q-223 -165 -463 -204q-40 -6 -85.5 -7t-81.5 18q-96 53 -68 178.5t94 212.5q16 24 16 -1q-6 -45 11 -85t54 -51q58 -18 123.5 -11.5t125.5 22.5q54 13 108 33t103 41q51 21 92.5 41.5t67.5 34.5q24 16 29 27q-6 25 -66 39q-66 15 -159 18t-133 12q-17 2 -2 39 q24 58 52.5 113.5t57.5 115.5h2q69 -17 208 -28t195 -54q32 -26 12 -89q-36 -110 -119.5 -229t-173.5 -186z" />
<glyph horiz-adv-x="684" d="M444 68q-61 -27 -179 -55q-57 -14 -101 -14q-49 0 -84 16q-82 41 -82 139q0 22 4 46q22 135 94 217q5 5 7 5q3 0 3 -6v-8q0 -48 21 -84q27 -47 93 -54q18 -2 37 -2q48 0 100 14q71 18 130 55t73 79q1 4 2 4q2 0 5 -10q3 -16 4 -22t1 -13q0 -25 -9 -64h4q51 1 97 22.5 t79 47.5q18 14 28 41t23 49q4 6 7 6q2 0 3 -7v-8q0 -53 -13 -102q152 27 189 169q2 9 6 11h2q2 0 2 -2q-11 -103 -33 -197t-73 -160q-25 -33 -95 -65.5t-109 -32.5q-14 0 -17 13q-7 0 -17 -6t-16 -9l-52 -24t-59 -22q-17 -4 -31 -4q-39 0 -44 37z" />
<glyph horiz-adv-x="683" d="M1166 429q-19 34 -70 49q-20 5 -38 5q-29 0 -55 -14q-72 -39 -128 -95l-112 -112q108 21 210 46t189 67q14 7 14 22q0 13 -10 32zM538 244q16 -9 42 -9q13 0 29 2q46 7 74 13q87 102 179 200t191 190q48 45 144 63q22 4 41 4q67 0 107 -48q37 -45 37 -93q0 -34 -18 -69 q-44 -85 -95 -154q-99 -132 -244 -204t-300 -105q-110 -24 -226 -31q-12 -1 -22 -1q-77 0 -77 39q0 8 3 17q-60 -25 -159 -49q-42 -10 -79 -10q-49 0 -87 18q-80 39 -80 131q0 24 5 51q26 133 90 220q7 13 10 13q1 0 1 -4q0 -3 -1 -9q-2 -13 -2 -25q0 -33 14 -65 q18 -44 58 -53q37 -10 87 -10q37 0 81 6q102 13 160 46q61 34 88 100q5 7 7 7q4 0 4 -9v-2q-1 -19 -3 -23q-10 -33 -25 -67.5t-34 -79.5z" />
<glyph horiz-adv-x="533" d="M513 1022l152 241l44 -657l-152 -240zM1097 429q-139 -186 -392 -289t-490 -137h-1v1q-26 -3 -48 -3q-52 0 -88 16q-81 40 -81 132q0 24 6 53q27 134 93 221q6 10 8 10v-2q0 -2 -1 -8q-3 -15 -3 -31q0 -31 13 -62q19 -45 60 -54q36 -9 81 -9q17 0 36 1v2h2q42 2 102.5 7 t120.5 18q87 102 179.5 200t190.5 191q48 44 144 63q22 4 42 4q66 0 106 -48q36 -45 36 -85q0 -30 -19 -57q-46 -65 -97 -134zM998 475q-19 33 -70 48q-20 6 -39 6q-29 0 -54 -14q-72 -39 -128 -95t-112 -113q108 21 210 46.5t190 67.5q13 6 13 21q0 13 -10 33z" />
<glyph horiz-adv-x="587" d="M78 15q-80 40 -80 133q0 24 6 53q27 135 92 222q4 4 6 4t2 -4q-3 -16 -3 -31q0 -32 13 -62q18 -46 59 -56q30 -8 67 -8q41 0 91 9q96 17 155 27l-40 136q-1 3 -1 6q0 33 77 124q84 100 102 114q45 13 118 13h20q86 -2 119 -33q28 -28 28 -64q0 -17 -6 -36 q-20 -59 -43 -95l-104 -162q-39 -61 -128.5 -124t-193 -109t-201.5 -65q-41 -8 -75 -8q-47 0 -80 16z" />
<glyph horiz-adv-x="593" d="M494 78q-64 -15 -205 -57q-80 -24 -136 -24q-45 0 -75 15q-80 39 -80 131q0 23 5 49q24 130 87 219q7 11 10 11q2 0 2 -6v-5q-1 -11 -1 -22q0 -34 14 -66q19 -43 58 -52q35 -9 70 -9q28 0 55 6q62 12 123 24q116 256 261 425q83 98 158 98q28 0 55 -14q66 -34 66 -129 q0 -47 -16 -108q-60 -165 -168.5 -301t-282.5 -185zM695 565q-49 -16 -77 -53.5t-55 -74.5q-12 -16 -12 -32q0 -13 7 -25q15 -29 38 -41q65 3 145 41q31 15 31 50q0 19 -10 46q-28 73 -67 89z" />
<glyph horiz-adv-x="586" d="M494 1026l133 221l46 166q165 96 313.5 179t313.5 180q9 4 14 4q9 0 9 -11q0 -3 -1 -6l-66 -239q-160 -93 -303 -173.5t-300 -171.5l81 -957l-148 -218l-20 256q-60 -88 -226 -186q-113 -68 -194 -68q-37 0 -68 15q-81 40 -81 132q0 26 7 55q28 136 94 222q3 4 5 4 q1 0 1 -4q-7 -30 -7 -54q0 -56 40 -76q42 -21 99 -21q19 0 41 3q83 9 166.5 39t114.5 46z" />
<glyph horiz-adv-x="585" d="M511 991l152 250l68 -1028l-146 -213l-20 256q-57 -85 -213 -182q-98 -61 -181 -61q-49 0 -93 21q-81 39 -81 132q0 27 7 59q31 139 99 224q-1 -1 -1 -2h1l2 2q-5 -19 -5 -38q0 -30 12 -59q19 -49 61 -60q33 -9 73 -9q57 0 129 19q121 30 182 61z" />
</font>
</defs>
</svg>
