<?xml version="1.0" standalone="no"?>
<!DOCTYPE svg PUBLIC "-//W3C//DTD SVG 1.1//EN" "http://www.w3.org/Graphics/SVG/1.1/DTD/svg11.dtd" >
<svg xmlns="http://www.w3.org/2000/svg" xmlns:xlink="http://www.w3.org/1999/xlink" version="1.1">
<metadata></metadata>
<defs>
<font id="droid_sans_arabicregular" horiz-adv-x="0" >
<font-face units-per-em="1000" ascent="800" descent="-200" />
<missing-glyph horiz-adv-x="259" />
<glyph unicode="&#xfedf;&#xfef0;" horiz-adv-x="996" arabic-form="isolated" d="M726 78h137v682h89v-760h-226v78zM635 44q0 -99 -70 -154t-194 -55h-119q-85 0 -136 52t-51 142q0 79 25 150h80q-15 -73 -15 -143q0 -54 26 -88.5t68 -34.5h122q175 0 175 132v158q0 282 261 282h121v-407h125v-78h-214v407h-26q-178 0 -178 -207v-156z" />
<glyph unicode="&#xfee0;&#xfef0;" horiz-adv-x="1036" arabic-form="final" d="M726 78h137v682h89v-586q0 -44 27 -70t72 -26h36v-78h-23q-83 0 -112 57v-57h-226v78zM635 44q0 -99 -70 -154t-194 -55h-119q-85 0 -136 52t-51 142q0 79 25 150h80q-15 -73 -15 -143q0 -54 26 -88.5t68 -34.5h122q175 0 175 132v158q0 282 261 282h121v-407h125v-78 h-214v407h-26q-178 0 -178 -207v-156z" />
<glyph unicode="&#xfee0;&#xfea4;&#xfef0;" horiz-adv-x="1673" arabic-form="final" d="M1363 78h137v682h89v-586q0 -44 27 -70t72 -26h36v-78h-23q-83 0 -112 57v-57h-226v78zM1160 78q-39 42 -63 183q-15 88 -42.5 122t-83.5 34q-67 0 -145 -40l-35 69q77 49 181 49q86 0 135.5 -46t68.5 -165q23 -157 72 -206h72v-78h-594v78h434zM635 44q0 -99 -70 -154 t-194 -55h-119q-85 0 -136 52t-51 142q0 79 25 150h80q-15 -73 -15 -143q0 -54 26 -88.5t68 -34.5h122q175 0 175 132v158q0 282 261 282h121v-407h125v-78h-214v407h-26q-178 0 -178 -207v-156z" />
<glyph unicode="&#x627;&#xfedf;&#xfee0;&#xfeea;" horiz-adv-x="1129" arabic-form="isolated" d="M589 980h47v-140h-47v140zM772 816v-52q0 -97 -86 -97q-44 0 -70 30q-26 -50 -81 -50q-82 0 -82 97v32h52v-23q0 -27 8 -41t32 -14q44 0 44 46v58h47v-38q0 -46 38 -46q27 0 36.5 13t9.5 42v43h52zM1081 0h-89v750h89v-750zM252 0q-105 0 -166.5 60.5t-61.5 167.5 q0 115 70.5 176t198.5 61h142v-387h127v540h88v-540h127v540h89v-618h-614zM296 388q-183 0 -183 -159q0 -151 137 -151h100v310h-54z" />
<glyph unicode="&#xfedf;&#xfe82;" horiz-adv-x="668" arabic-form="isolated" d="M45 78h224l-129 547h93l129 -547h27q106 0 106 116v566h89v-578q0 -82 -50.5 -132t-134.5 -50h-354v78zM77 679h-45q12 103 92 103q26 0 71 -22q44 -22 60 -22q35 0 47 45h45q-12 -103 -92 -103q-24 0 -69 22t-62 22q-35 0 -47 -45z" />
<glyph unicode="&#xfee0;&#xfe82;" horiz-adv-x="688" arabic-form="final" d="M584 174q0 -44 27.5 -70t71.5 -26h16v-78h-3q-84 0 -112 57v-57h-539v78h224l-129 547h93l129 -547h133v682h89v-586zM77 679h-45q12 103 92 103q26 0 71 -22q44 -22 60 -22q35 0 47 45h45q-12 -103 -92 -103q-24 0 -69 22t-62 22q-35 0 -47 -45z" />
<glyph unicode="&#xfedf;&#xfe84;" horiz-adv-x="668" arabic-form="isolated" d="M45 78h224l-129 547h93l129 -547h27q106 0 106 116v566h89v-578q0 -82 -50.5 -132t-134.5 -50h-354v78zM271 698q-17 0 -90 -9t-103 -15v46l47 7q-35 23 -35 63q0 42 27.5 66t74.5 24q36 0 66 -15l-15 -45q-23 12 -50 12q-52 0 -52 -51q0 -31 30 -47l18 3q46 7 82 10v-49 z" />
<glyph unicode="&#xfee0;&#xfe84;" horiz-adv-x="688" arabic-form="final" d="M584 174q0 -44 27.5 -70t71.5 -26h16v-78h-3q-84 0 -112 57v-57h-539v78h224l-129 547h93l129 -547h133v682h89v-586zM269 698q-17 0 -90 -9t-103 -15v46l47 7q-35 23 -35 63q0 42 27.5 66t74.5 24q36 0 66 -15l-15 -45q-23 12 -50 12q-52 0 -52 -51q0 -31 30 -47l18 3 q46 7 82 10v-49z" />
<glyph unicode="&#xfedf;&#xfe88;" horiz-adv-x="668" arabic-form="isolated" d="M45 78h224l-129 547h93l129 -547h27q106 0 106 116v566h89v-578q0 -82 -50.5 -132t-134.5 -50h-354v78zM448 -228q-62 0 -193 -24v46l47 7q-35 24 -35 63q0 43 28.5 66.5t73.5 23.5q35 0 66 -15l-15 -45q-25 12 -50 12q-52 0 -52 -51q0 -32 30 -47q87 12 100 13v-49z" />
<glyph unicode="&#xfee0;&#xfe88;" horiz-adv-x="688" arabic-form="final" d="M584 174q0 -44 27.5 -70t71.5 -26h16v-78h-3q-84 0 -112 57v-57h-539v78h224l-129 547h93l129 -547h133v682h89v-586zM448 -228q-62 0 -193 -24v46l47 7q-35 24 -35 63q0 43 28.5 66.5t73.5 23.5q35 0 66 -15l-15 -45q-25 12 -50 12q-52 0 -52 -51q0 -32 30 -47 q87 12 100 13v-49z" />
<glyph unicode="&#xfedf;&#xfe8e;" horiz-adv-x="668" arabic-form="isolated" d="M45 78h224l-129 547h93l129 -547h27q106 0 106 116v566h89v-578q0 -82 -50.5 -132t-134.5 -50h-354v78z" />
<glyph unicode="&#xfee0;&#xfe8e;" horiz-adv-x="688" arabic-form="final" d="M584 174q0 -44 27.5 -70t71.5 -26h16v-78h-3q-84 0 -112 57v-57h-539v78h224l-129 547h93l129 -547h133v682h89v-586z" />
<glyph unicode="&#xfedf;&#xfbe9;&#xfee2;" horiz-adv-x="1091" d="M821 78h137v682h89v-760h-226v78zM552 78h137v407h89v-485h-226v78zM50 -58q0 65 35 100.5t87 35.5h6q-33 55 -33 149q0 118 64.5 193t170.5 75q102 0 165 -64t63 -177q0 -51 -23 -101t-58 -75h175v-78h-497q-71 0 -71 -73v-53q0 -117 -43 -164h-91q50 44 50 181v51z M269 78h91q75 0 116.5 46.5t41.5 130.5q0 75 -38 119t-100 44t-104 -51t-42 -140q0 -101 35 -149z" />
<glyph unicode="&#xfedf;&#xfb51;" horiz-adv-x="503" d="M151 661q-22 0 -52.5 2t-57.5 5.5t-41 5.5l7 51q9 -1 23 -3t31 -3q14 30 34.5 60t48 50.5t64.5 20.5q32 0 60.5 -20t28.5 -67q0 -24 -12 -47.5t-43.5 -39t-90.5 -15.5zM204 796q-25 0 -48 -23t-42 -59q21 -1 37 -1q57 0 74.5 13t17.5 32q0 20 -12 29t-27 9zM393 536 q0 22 -3 53t-7 62t-8 53l86 10q3 -20 6.5 -52.5t5.5 -64.5t2 -53q0 -63 -11.5 -122.5t-37.5 -115.5q47 -49 69 -90t22 -81q0 -29 -14 -60.5t-51 -53t-107 -21.5h-230v81q150 107 214 213q-56 50 -131.5 107t-157.5 116l47 66q89 -66 158 -119.5t119 -98.5q15 40 22 82.5 t7 88.5zM234 82h126q51 0 67 18.5t16 42.5q0 18 -14.5 42t-40.5 52q-28 -42 -66.5 -81t-87.5 -74z" />
<glyph unicode="&#xfee0;&#xfb51;" horiz-adv-x="635" d="M151 661q-22 0 -52.5 2t-57.5 5.5t-41 5.5l7 51q9 -1 23 -3t31 -3q14 30 34.5 60t48 50.5t64.5 20.5q32 0 60.5 -20t28.5 -67q0 -24 -12 -47.5t-43.5 -39t-90.5 -15.5zM204 796q-25 0 -48 -23t-42 -59q21 -1 37 -1q57 0 74.5 13t17.5 32q0 20 -12 29t-27 9zM142 -5 q-27 0 -54.5 4.5t-38.5 6.5l11 79q90 -12 164.5 2.5t118.5 72.5q-39 64 -117 155.5t-186 188.5l54 57q106 -100 175 -181t111 -141q12 43 14 98l-14 377h82l20 -515q2 -49 9.5 -75.5t34 -36.5t83.5 -10q21 0 30.5 -11.5t9.5 -27.5t-14 -29.5t-36 -13.5q-70 0 -111 13.5 t-60 42t-25 73.5q-31 -55 -76 -83t-93.5 -37t-91.5 -9z" />
<glyph unicode="&#x620;" horiz-adv-x="299" d="M0 -5l10 82q59 0 92 4.5t47 23t14 58.5q0 38 -17.5 95.5t-39.5 114.5l81 30q13 -32 24.5 -73t19.5 -81t8 -70q0 -96 -51 -138q16 -12 25.5 -30.5t9.5 -40.5q0 -37 -26 -63t-63 -26t-63 26t-26 63q0 14 4 27q-23 -2 -49 -2zM134 -68q17 0 29 11t12 27q0 17 -12 28.5 t-29 11.5h-1.5t-8.5 -1q-1 -1 -2 -1q-13 -3 -21 -14t-8 -24q0 -16 12 -27t29 -11z" />
<glyph unicode="&#x620;" horiz-adv-x="373" d="M0 -5l10 82q50 0 78 7.5t42.5 29t23.5 62.5t22 107l78 -15q-6 -27 -13.5 -62t-7.5 -59q0 -15 2 -28t15 -22t44 -14.5t89 -5.5q21 0 30.5 -11.5t9.5 -27.5t-14 -29.5t-36 -13.5q-65 0 -101.5 7.5t-54 22t-25.5 36.5q-12 -17 -26 -29q15 -12 24 -30t9 -39q0 -37 -26 -63 t-63 -26t-63 26t-26 63q0 17 6 32h-27zM110 -75q17 0 29 11t12 27q0 17 -12 28.5t-29 11.5t-29 -11.5t-12 -28.5q0 -16 12 -27t29 -11z" />
<glyph unicode="&#x620;" horiz-adv-x="736" d="M30 -1q0 36 10 80t32 97l72 -28q-16 -42 -24 -77t-8 -65q0 -55 32.5 -90t86 -51t117.5 -16q77 0 140.5 18t101.5 47.5t38 65.5q0 26 -40 45t-112 39l19 83q104 -40 162 -55t89 -15q21 0 30.5 -11.5t9.5 -27.5t-14 -29.5t-36 -13.5h-37q2 -9 3 -14.5t1 -14.5 q0 -43 -34.5 -83.5t-100 -70t-157.5 -39.5q12 -21 12 -45q0 -37 -26 -63t-63 -26t-63 26t-26 63q0 24 12 45q-64 10 -115.5 38t-81.5 75t-30 113zM334 -310q17 0 29 11t12 27q0 17 -12 28.5t-29 11.5t-29 -11.5t-12 -28.5q0 -16 12 -27t29 -11z" />
<glyph unicode="&#x63b;" horiz-adv-x="412" d="M262 723q-21 0 -35.5 14.5t-14.5 34.5t14.5 35t35.5 15q20 0 34.5 -15t14.5 -35t-14.5 -34.5t-34.5 -14.5zM147 670q-21 0 -35.5 14.5t-14.5 34.5t14.5 35t35.5 15q20 0 34.5 -15t14.5 -35t-14.5 -34.5t-34.5 -14.5zM0 -5l10 82h94q59 0 93.5 6.5t51 17t22 23t5.5 25.5 q0 23 -17.5 57t-71.5 88q-37 38 -74 67t-61 49t-24 29q0 23 5.5 43t15.5 31q40 43 125.5 86.5t213.5 107.5l34 -74q-91 -44 -148.5 -72.5t-95 -50t-69.5 -43.5q117 -95 179.5 -170.5t62.5 -152.5q0 -22 -8 -48t-34 -49t-78 -37.5t-140 -14.5h-91z" />
<glyph unicode="&#x63b;" horiz-adv-x="508" d="M230 723q-21 0 -35.5 14.5t-14.5 34.5t14.5 35t35.5 15q20 0 34.5 -15t14.5 -35t-14.5 -34.5t-34.5 -14.5zM115 670q-21 0 -35.5 14.5t-14.5 34.5t14.5 35t35.5 15q20 0 34.5 -15t14.5 -35t-14.5 -34.5t-34.5 -14.5zM0 -5l10 82h77q83 0 123 9t52.5 24t12.5 31 q0 24 -18 53t-46 59.5t-59.5 60.5t-59.5 55t-46 43.5t-18 26.5q0 23 5.5 43t15.5 31q27 29 79.5 60.5t120.5 65t139 68.5l34 -74q-88 -44 -172.5 -85t-147.5 -85q55 -47 103 -91t89 -94.5t75 -114.5q21 -39 49 -57t55.5 -23.5t44.5 -5.5q21 0 30.5 -11.5t9.5 -27.5 t-14 -29.5t-36 -13.5q-24 0 -55.5 6.5t-63.5 25t-56 54.5q-20 -29 -50 -48t-78 -28.5t-122 -9.5h-83z" />
<glyph unicode="&#x63b;" horiz-adv-x="975" d="M733 723q-21 0 -35.5 14.5t-14.5 34.5t14.5 35t35.5 15q20 0 34.5 -15t14.5 -35t-14.5 -34.5t-34.5 -14.5zM618 670q-21 0 -35.5 14.5t-14.5 34.5t14.5 35t35.5 15q20 0 34.5 -15t14.5 -35t-14.5 -34.5t-34.5 -14.5zM390 -21q-178 0 -269 47t-91 156q0 37 9 78.5t19 78.5 l75 -19q-6 -22 -13.5 -55.5t-7.5 -59.5q0 -52 26.5 -83.5t92.5 -46t185 -14.5q125 0 196 13t100.5 32t29.5 35q0 24 -18 53t-46 59.5t-59.5 60.5t-59.5 55t-46 43.5t-18 26.5q0 23 5.5 43t15.5 31q27 29 79.5 60.5t120.5 65t139 68.5l34 -74q-88 -44 -172.5 -85t-147.5 -85 q55 -47 103 -91t89 -94.5t75 -114.5q21 -39 49 -57t55.5 -23.5t44.5 -5.5q21 0 30.5 -11.5t9.5 -27.5t-14 -29.5t-36 -13.5q-24 0 -56 6.5t-63.5 25t-55.5 54.5q-17 -22 -45 -41t-74.5 -32.5t-117.5 -21t-173 -7.5z" />
<glyph unicode="&#x63c;" horiz-adv-x="412" d="M-10 0v78h386v184q0 145 -184 145h-130v82q47 101 144.5 191t207.5 134l32 -76q-96 -39 -180.5 -110t-120.5 -143h47q128 0 198.5 -53.5t70.5 -154.5v-277h-471zM95 -189q-21 0 -35.5 14.5t-14.5 34.5t14.5 35t35.5 15q20 0 34.5 -15t14.5 -35t-14.5 -34.5t-34.5 -14.5z M231 -189q-21 0 -35.5 14.5t-14.5 34.5t14.5 35t35.5 15q20 0 34.5 -15t14.5 -35t-14.5 -34.5t-34.5 -14.5zM163 -299q-21 0 -35.5 14.5t-14.5 34.5t14.5 35t35.5 15q20 0 34.5 -15t14.5 -35t-14.5 -34.5t-34.5 -14.5z" />
<glyph unicode="&#x63c;" horiz-adv-x="508" d="M461 174q0 -44 27.5 -70t71.5 -26h16v-78h-3q-84 0 -112 57v-57h-471v78h386v184q0 145 -184 145h-130v82q47 101 144.5 191t207.5 134l32 -76q-96 -39 -180.5 -110t-120.5 -143h47q128 0 198.5 -53.5t70.5 -154.5v-103zM95 -189q-21 0 -35.5 14.5t-14.5 34.5t14.5 35 t35.5 15q20 0 34.5 -15t14.5 -35t-14.5 -34.5t-34.5 -14.5zM231 -189q-21 0 -35.5 14.5t-14.5 34.5t14.5 35t35.5 15q20 0 34.5 -15t14.5 -35t-14.5 -34.5t-34.5 -14.5zM163 -299q-21 0 -35.5 14.5t-14.5 34.5t14.5 35t35.5 15q20 0 34.5 -15t14.5 -35t-14.5 -34.5 t-34.5 -14.5z" />
<glyph unicode="&#x63c;" horiz-adv-x="975" d="M252 0q-90 0 -138.5 46.5t-48.5 132.5q0 57 20 135h80q-15 -83 -15 -125q0 -52 26.5 -81.5t72.5 -29.5h359v184q0 145 -184 145h-130v82q47 101 144.5 191t207.5 134l32 -76q-98 -40 -181.5 -110.5t-119.5 -142.5h47q129 0 199 -53.5t70 -154.5v-103q0 -44 27.5 -70 t71.5 -26h16v-78h-3q-83 0 -112 57v-57h-441zM342 -210q-21 0 -35.5 14.5t-14.5 34.5t14.5 35t35.5 15q20 0 34.5 -15t14.5 -35t-14.5 -34.5t-34.5 -14.5zM478 -210q-21 0 -35.5 14.5t-14.5 34.5t14.5 35t35.5 15q20 0 34.5 -15t14.5 -35t-14.5 -34.5t-34.5 -14.5zM410 -320 q-21 0 -35.5 14.5t-14.5 34.5t14.5 35t35.5 15q20 0 34.5 -15t14.5 -35t-14.5 -34.5t-34.5 -14.5z" />
<glyph unicode="&#x63d;" horiz-adv-x="269" d="M-10 78h137v407h89v-485h-226v78zM93 726l59 6q9 -20 25 -53.5t33 -67t29 -54.5l-46 -25q-7 12 -20 36.5t-27.5 52t-24.5 49.5q-11 -26 -24 -55.5t-24 -53t-16 -31.5l-45 19q5 10 16 32.5t24 50t24 53t17 41.5zM179 -194q-21 0 -35.5 14.5t-14.5 34.5t14.5 35t35.5 15 q20 0 34.5 -15t14.5 -35t-14.5 -34.5t-34.5 -14.5zM42 -194q-21 0 -35.5 14.5t-14.5 34.5t14.5 35t35.5 15q20 0 34.5 -15t14.5 -35t-14.5 -34.5t-34.5 -14.5z" />
<glyph unicode="&#x63d;" horiz-adv-x="343" d="M-10 78h137v407h89v-311q0 -44 27 -70t72 -26h36v-78h-23q-83 0 -112 57v-57h-226v78zM152 605l59 6q9 -20 25 -53.5t33 -67t29 -54.5l-46 -25q-7 12 -20 36.5t-27.5 52t-24.5 49.5q-11 -26 -24 -55.5t-24 -53t-16 -31.5l-45 19q5 10 16 32.5t24 50t24 53t17 41.5z M242 -194q-21 0 -35.5 14.5t-14.5 34.5t14.5 35t35.5 15q20 0 34.5 -15t14.5 -35t-14.5 -34.5t-34.5 -14.5zM105 -194q-21 0 -35.5 14.5t-14.5 34.5t14.5 35t35.5 15q20 0 34.5 -15t14.5 -35t-14.5 -34.5t-34.5 -14.5z" />
<glyph unicode="&#x63d;" horiz-adv-x="736" d="M635 44q0 -99 -70 -154t-194 -55h-119q-85 0 -136 52t-51 142q0 79 25 150h80q-15 -73 -15 -143q0 -54 26 -88.5t68 -34.5h122q175 0 175 132v158q0 282 261 282h121v-407h125v-78h-214v407h-26q-178 0 -178 -207v-156zM182 472l59 6q9 -20 25 -53.5t33 -67t29 -54.5 l-46 -25q-7 12 -20 36.5t-27.5 52t-24.5 49.5q-11 -26 -24 -55.5t-24 -53t-16 -31.5l-45 19q5 10 16 32.5t24 50t24 53t17 41.5z" />
<glyph unicode="&#x63e;" horiz-adv-x="299" d="M218 507q-21 0 -35.5 14.5t-14.5 34.5t14.5 35t35.5 15q20 0 34.5 -15t14.5 -35t-14.5 -34.5t-34.5 -14.5zM81 507q-21 0 -35.5 14.5t-14.5 34.5t14.5 35t35.5 15q20 0 34.5 -15t14.5 -35t-14.5 -34.5t-34.5 -14.5zM0 -5l10 82q59 0 92 4.5t47 23t14 58.5 q0 38 -17.5 95.5t-39.5 114.5l81 30q13 -32 24.5 -73t19.5 -81t8 -70q0 -100 -56 -142t-183 -42zM185 -194q-21 0 -35.5 14.5t-14.5 34.5t14.5 35t35.5 15q20 0 34.5 -15t14.5 -35t-14.5 -34.5t-34.5 -14.5zM48 -194q-21 0 -35.5 14.5t-14.5 34.5t14.5 35t35.5 15 q20 0 34.5 -15t14.5 -35t-14.5 -34.5t-34.5 -14.5z" />
<glyph unicode="&#x63e;" horiz-adv-x="373" d="M267 386q-21 0 -35.5 14.5t-14.5 34.5t14.5 35t35.5 15q20 0 34.5 -15t14.5 -35t-14.5 -34.5t-34.5 -14.5zM130 386q-21 0 -35.5 14.5t-14.5 34.5t14.5 35t35.5 15q20 0 34.5 -15t14.5 -35t-14.5 -34.5t-34.5 -14.5zM0 -5l10 82q50 0 78 7.5t42.5 29t23.5 62.5t22 107 l78 -15q-6 -27 -13.5 -62t-7.5 -59q0 -15 2 -28t15 -22t44 -14.5t89 -5.5q21 0 30.5 -11.5t9.5 -27.5t-14 -29.5t-36 -13.5q-65 0 -101.5 7.5t-54 22t-25.5 36.5q-29 -41 -71.5 -53.5t-120.5 -12.5zM252 -194q-21 0 -35.5 14.5t-14.5 34.5t14.5 35t35.5 15q20 0 34.5 -15 t14.5 -35t-14.5 -34.5t-34.5 -14.5zM115 -194q-21 0 -35.5 14.5t-14.5 34.5t14.5 35t35.5 15q20 0 34.5 -15t14.5 -35t-14.5 -34.5t-34.5 -14.5z" />
<glyph unicode="&#x63e;" horiz-adv-x="736" d="M635 44q0 -99 -70 -154t-194 -55h-119q-85 0 -136 52t-51 142q0 79 25 150h80q-15 -73 -15 -143q0 -54 26 -88.5t68 -34.5h122q175 0 175 132v158q0 282 261 282h121v-407h125v-78h-214v407h-26q-178 0 -178 -207v-156zM287 253q-21 0 -35.5 14.5t-14.5 34.5t14.5 35 t35.5 15q20 0 34.5 -15t14.5 -35t-14.5 -34.5t-34.5 -14.5zM150 253q-21 0 -35.5 14.5t-14.5 34.5t14.5 35t35.5 15q20 0 34.5 -15t14.5 -35t-14.5 -34.5t-34.5 -14.5z" />
<glyph unicode="&#x63f;" horiz-adv-x="299" d="M150 617q-21 0 -35.5 14.5t-14.5 34.5t14.5 35t35.5 15q20 0 34.5 -15t14.5 -35t-14.5 -34.5t-34.5 -14.5zM82 507q-21 0 -35.5 14.5t-14.5 34.5t14.5 35t35.5 15q20 0 34.5 -15t14.5 -35t-14.5 -34.5t-34.5 -14.5zM218 507q-21 0 -35.5 14.5t-14.5 34.5t14.5 35t35.5 15 q20 0 34.5 -15t14.5 -35t-14.5 -34.5t-34.5 -14.5zM0 -5l10 82q59 0 92 4.5t47 23t14 58.5q0 38 -17.5 95.5t-39.5 114.5l81 30q13 -32 24.5 -73t19.5 -81t8 -70q0 -100 -56 -142t-183 -42zM185 -194q-21 0 -35.5 14.5t-14.5 34.5t14.5 35t35.5 15q20 0 34.5 -15t14.5 -35 t-14.5 -34.5t-34.5 -14.5zM48 -194q-21 0 -35.5 14.5t-14.5 34.5t14.5 35t35.5 15q20 0 34.5 -15t14.5 -35t-14.5 -34.5t-34.5 -14.5z" />
<glyph unicode="&#x63f;" horiz-adv-x="373" d="M199 496q-21 0 -35.5 14.5t-14.5 34.5t14.5 35t35.5 15q20 0 34.5 -15t14.5 -35t-14.5 -34.5t-34.5 -14.5zM131 386q-21 0 -35.5 14.5t-14.5 34.5t14.5 35t35.5 15q20 0 34.5 -15t14.5 -35t-14.5 -34.5t-34.5 -14.5zM267 386q-21 0 -35.5 14.5t-14.5 34.5t14.5 35 t35.5 15q20 0 34.5 -15t14.5 -35t-14.5 -34.5t-34.5 -14.5zM0 -5l10 82q50 0 78 7.5t42.5 29t23.5 62.5t22 107l78 -15q-6 -27 -13.5 -62t-7.5 -59q0 -15 2 -28t15 -22t44 -14.5t89 -5.5q21 0 30.5 -11.5t9.5 -27.5t-14 -29.5t-36 -13.5q-65 0 -101.5 7.5t-54 22t-25.5 36.5 q-29 -41 -71.5 -53.5t-120.5 -12.5zM252 -194q-21 0 -35.5 14.5t-14.5 34.5t14.5 35t35.5 15q20 0 34.5 -15t14.5 -35t-14.5 -34.5t-34.5 -14.5zM115 -194q-21 0 -35.5 14.5t-14.5 34.5t14.5 35t35.5 15q20 0 34.5 -15t14.5 -35t-14.5 -34.5t-34.5 -14.5z" />
<glyph unicode="&#x63f;" horiz-adv-x="736" d="M635 44q0 -99 -70 -154t-194 -55h-119q-85 0 -136 52t-51 142q0 79 25 150h80q-15 -73 -15 -143q0 -54 26 -88.5t68 -34.5h122q175 0 175 132v158q0 282 261 282h121v-407h125v-78h-214v407h-26q-178 0 -178 -207v-156zM219 363q-21 0 -35.5 14.5t-14.5 34.5t14.5 35 t35.5 15q20 0 34.5 -15t14.5 -35t-14.5 -34.5t-34.5 -14.5zM151 253q-21 0 -35.5 14.5t-14.5 34.5t14.5 35t35.5 15q20 0 34.5 -15t14.5 -35t-14.5 -34.5t-34.5 -14.5zM287 253q-21 0 -35.5 14.5t-14.5 34.5t14.5 35t35.5 15q20 0 34.5 -15t14.5 -35t-14.5 -34.5 t-34.5 -14.5z" />
<glyph unicode="&#x66e;" horiz-adv-x="269" d="M0 -5l10 82q49 0 78 6t42 24.5t13 55.5q0 38 -17.5 95.5t-39.5 114.5l81 30q13 -32 24.5 -73t19.5 -81t8 -70q0 -100 -53.5 -142t-165.5 -42z" />
<glyph unicode="&#x66e;" horiz-adv-x="343" d="M0 -5l10 82q42 0 66 7.5t36.5 29t21.5 62.5t22 107l78 -15q-6 -27 -13.5 -62t-7.5 -59q0 -20 9 -36t39 -25t92 -9q21 0 30.5 -11.5t9.5 -27.5t-14 -29.5t-36 -13.5q-79 0 -117 17t-52 51q-30 -42 -69 -55t-105 -13z" />
<glyph unicode="&#x66e;" horiz-adv-x="1093" d="M390 -21q-178 0 -269 47t-91 156q0 37 9 78.5t19 78.5l75 -19q-6 -22 -13.5 -55.5t-7.5 -59.5q0 -52 26.5 -83.5t92.5 -46t185 -14.5q61 0 129 7.5t135.5 27t128.5 53.5t107 86l63 -37q-9 -23 -12 -36.5t-3 -24.5q0 -15 11 -28.5t41.5 -22.5t86.5 -9q21 0 30.5 -11.5 t9.5 -27.5t-14 -29.5t-36 -13.5q-88 0 -144.5 26t-57.5 85q-83 -64 -215 -95.5t-286 -31.5z" />
<glyph unicode="&#x66f;" horiz-adv-x="447" d="M0 -5l10 82q33 0 75.5 0.5t82.5 4t63 11.5q32 11 51.5 28.5t29.5 45.5q-18 -6 -38.5 -8.5t-40.5 -2.5q-76 0 -117.5 36t-41.5 91q0 38 12 76.5t34 70.5t53 51.5t69 19.5q54 0 89.5 -35t53 -91.5t17.5 -119.5q0 -75 -25.5 -128.5t-84.5 -88.5q-31 -18 -77.5 -27.5 t-101.5 -12.5t-113 -3zM153 303q0 -31 20 -49.5t69 -18.5q43 0 82 12v14q0 42 -11 78t-31 58t-48 22q-23 0 -41.5 -17.5t-29 -44.5t-10.5 -54z" />
<glyph unicode="&#x66f;" horiz-adv-x="495" d="M0 -5l10 82q34 0 70.5 1t70.5 5q-24 22 -47 57t-23 85q0 54 25 97t65 68t85 25q49 0 86 -27t57.5 -68.5t20.5 -86.5q0 -47 -19 -84t-51 -65q40 -3 82 -5t73 -2q21 0 30.5 -11.5t9.5 -27.5t-14 -29.5t-36 -13.5q-61 0 -127 9.5t-116 23.5q-16 -6 -33 -11 q-46 -13 -105 -17.5t-114 -4.5zM163 223q0 -39 24 -68.5t54 -47.5q41 18 69 48t28 72q0 23 -11 47.5t-30 41.5t-44 17q-24 0 -44.5 -16t-33 -41.5t-12.5 -52.5z" />
<glyph unicode="&#x66f;" horiz-adv-x="808" d="M326 -272q-79 0 -146.5 24.5t-108.5 76.5t-41 136q0 23 9 73.5t48 121.5l73 -34q-23 -47 -33.5 -81t-10.5 -65q0 -62 31.5 -99t84 -53t116.5 -16q116 0 189.5 41.5t93.5 102.5q6 17 10 39h-72q-45 0 -83 12.5t-61 40.5t-25 73q-1 37 11.5 74t35.5 68t54 49.5t67 18.5 q67 0 114 -61t50 -193h86q21 0 30.5 -11.5t9.5 -27.5t-14 -29.5t-36 -13.5h-85q-5 -23 -13 -48t-19 -48q-32 -62 -86.5 -100t-125.5 -54.5t-153 -16.5zM607 77h43q0 83 -26 128t-64 45q-21 0 -39 -16.5t-29.5 -42.5t-11.5 -55q0 -35 31.5 -47t95.5 -12z" />
<glyph unicode="&#x672;" horiz-adv-x="289" d="M-37 721l-41 24q12 28 33 40.5t39 12.5q26 0 43 -11t35 -11h6h6q-20 13 -36 34.5t-16 48.5q0 45 31.5 68t71.5 23q23 0 47 -8l-8 -50q-10 2 -19 4t-20 2q-49 0 -49 -36q0 -20 12 -34.5t28.5 -23t28.5 -10.5q16 6 29.5 11.5t26.5 10.5l16 -48q-10 -5 -38 -16.5 t-60.5 -20.5t-57.5 -9q-26 0 -44.5 11t-32.5 11q-11 0 -17 -6t-14 -17zM289 -5q-80 0 -122 18t-58 56t-19 98l-18 477h82l18 -445q2 -49 9.5 -75.5t34 -36.5t83.5 -10q21 0 30.5 -11.5t9.5 -27.5t-14 -29.5t-36 -13.5z" />
<glyph unicode="&#x673;" horiz-adv-x="291" d="M174 78h137v-78h-226v760h89v-682zM-18 -296l-41 24q12 28 33 40.5t39 12.5q26 0 43 -11t35 -11h6h6q-20 13 -36 34.5t-16 48.5q0 45 31.5 68t71.5 23q23 0 47 -8l-8 -50q-10 2 -19 4t-20 2q-49 0 -49 -36q0 -20 12 -34.5t28.5 -23t28.5 -10.5q16 6 29.5 11.5t26.5 10.5 l16 -48q-10 -5 -38 -16.5t-60.5 -20.5t-57.5 -9q-26 0 -44.5 11t-32.5 11q-11 0 -17 -6t-14 -17z" />
<glyph unicode="&#x675;" horiz-adv-x="411" d="M218 578l-12 54q15 3 26 6t21 5q-19 13 -33 34t-14 46q0 45 31.5 68t71.5 23q23 0 47 -8l-8 -50q-10 2 -19 4t-20 2q-49 0 -49 -36q0 -26 19.5 -43t38.5 -22q38 11 67 22l16 -51q-24 -9 -56.5 -19t-65.5 -19t-61 -16zM411 -5h-122q-79 0 -121 18t-58 56.5t-18 97.5 l-20 547h82l20 -515q2 -48 9.5 -74.5t33 -37t81.5 -10.5h123q21 0 30.5 -11.5t9.5 -27.5t-14 -29.5t-36 -13.5z" />
<glyph unicode="&#x676;" horiz-adv-x="472" d="M466 78h87v-78h-87v-24q0 -102 -60.5 -159t-170.5 -57q-100 0 -180 51l40 67q78 -40 142 -40q67 0 106 36t39 97v29h-98q-106 0 -164.5 59t-58.5 169q0 119 75 188t199 69h131v-407zM338 407q-90 0 -139 -47.5t-49 -130.5q0 -151 137 -151h94v329h-43zM353 632 q-17 0 -90 -9t-103 -15v46l47 7q-35 23 -35 63q0 42 27.5 66t74.5 24q36 0 66 -15l-15 -45q-23 12 -50 12q-52 0 -52 -51q0 -31 30 -47l18 3q46 7 82 10v-49z" />
<glyph unicode="&#x677;" horiz-adv-x="531" d="M525 78h87v-78h-87v-24q0 -102 -60.5 -159t-170.5 -57q-100 0 -180 51l40 67q78 -40 142 -40q67 0 106 36t39 97v29h-98q-106 0 -164.5 59t-58.5 169q0 119 75 188t199 69h131v-407zM397 407q-90 0 -139 -47.5t-49 -130.5q0 -151 137 -151h94v329h-43zM423 632 q-17 0 -90 -9t-103 -15v46l47 7q-35 23 -35 63q0 42 27.5 66t74.5 24q36 0 66 -15l-15 -45q-23 12 -50 12q-52 0 -52 -51q0 -31 30 -47l18 3q46 7 82 10v-49zM-124 619l29 42q39 -25 71 -25q28 0 50 7q-32 43 -32 85q0 38 25 60.5t65 22.5t63 -23t23 -56q0 -55 -57 -100.5 t-135 -45.5q-56 0 -102 33zM70 660q48 25 48 68q0 35 -36 35q-37 0 -37 -40q0 -29 25 -63z" />
<glyph unicode="&#x678;" horiz-adv-x="350" d="M-10 78h137v407h89v-485h-226v78zM167 578l-12 54q15 3 26 6t21 5q-19 13 -33 34t-14 46q0 45 31.5 68t71.5 23q23 0 47 -8l-8 -50q-10 2 -19 4t-20 2q-49 0 -49 -36q0 -26 19.5 -43t38.5 -22q38 11 67 22l16 -51q-24 -9 -56.5 -19t-65.5 -19t-61 -16z" />
<glyph unicode="&#x678;" horiz-adv-x="343" d="M-10 78h137v407h89v-311q0 -44 27 -70t72 -26h36v-78h-23q-83 0 -112 57v-57h-226v78zM163 409l-12 54q15 3 26 6t21 5q-19 13 -33 34t-14 46q0 45 31.5 68t71.5 23q23 0 47 -8l-8 -50q-10 2 -19 4t-20 2q-49 0 -49 -36q0 -26 19.5 -43t38.5 -22q38 11 67 22l16 -51 q-24 -9 -56.5 -19t-65.5 -19t-61 -16z" />
<glyph unicode="&#x678;" horiz-adv-x="736" d="M635 44q0 -99 -70 -154t-194 -55h-119q-85 0 -136 52t-51 142q0 79 25 150h80q-15 -73 -15 -143q0 -54 26 -88.5t68 -34.5h122q175 0 175 132v158q0 282 261 282h121v-407h125v-78h-214v407h-26q-178 0 -178 -207v-156zM500 205l-12 54q15 3 26 6t21 5q-19 13 -33 34 t-14 46q0 45 31.5 68t71.5 23q23 0 47 -8l-8 -50q-10 2 -19 4t-20 2q-49 0 -49 -36q0 -26 19.5 -43t38.5 -22q38 11 67 22l16 -51q-24 -9 -56.5 -19t-65.5 -19t-61 -16z" />
<glyph unicode="&#x67c;" horiz-adv-x="299" d="M218 507q-21 0 -35.5 14.5t-14.5 34.5t14.5 35t35.5 15q20 0 34.5 -15t14.5 -35t-14.5 -34.5t-34.5 -14.5zM81 507q-21 0 -35.5 14.5t-14.5 34.5t14.5 35t35.5 15q20 0 34.5 -15t14.5 -35t-14.5 -34.5t-34.5 -14.5zM0 -5l10 82q59 0 92 4.5t47 23t14 58.5 q0 38 -17.5 95.5t-39.5 114.5l81 30q13 -32 24.5 -73t19.5 -81t8 -70q0 -97 -52 -139q16 -12 26 -31t10 -41q0 -37 -26 -63t-63 -26t-63 26t-26 63q0 15 5 29q-23 -2 -50 -2zM134 -70q17 0 29 11t12 27q0 17 -12 28.5t-29 11.5t-29 -11.5t-12 -28.5q0 -16 12 -27t29 -11z " />
<glyph unicode="&#x67c;" horiz-adv-x="343" d="M257 386q-21 0 -35.5 14.5t-14.5 34.5t14.5 35t35.5 15q20 0 34.5 -15t14.5 -35t-14.5 -34.5t-34.5 -14.5zM120 386q-21 0 -35.5 14.5t-14.5 34.5t14.5 35t35.5 15q20 0 34.5 -15t14.5 -35t-14.5 -34.5t-34.5 -14.5zM0 -5l10 82q42 0 66 7.5t36.5 29t21.5 62.5t22 107 l78 -15q-6 -27 -13.5 -62t-7.5 -59q0 -20 9 -36t39 -25t92 -9q21 0 30.5 -11.5t9.5 -27.5t-14 -29.5t-36 -13.5q-79 0 -117 17t-52 51q-9 -13 -19 -23q18 -12 29 -31.5t11 -42.5q0 -37 -26 -63t-63 -26t-63 26t-26 63q0 15 5 29h-22zM106 -72q17 0 29 11t12 27 q0 17 -12 28.5t-29 11.5t-29 -11.5t-12 -28.5q0 -16 12 -27t29 -11z" />
<glyph unicode="&#x67c;" horiz-adv-x="1093" d="M558 401q-21 0 -35.5 14.5t-14.5 34.5t14.5 35t35.5 15q20 0 34.5 -15t14.5 -35t-14.5 -34.5t-34.5 -14.5zM421 401q-21 0 -35.5 14.5t-14.5 34.5t14.5 35t35.5 15q20 0 34.5 -15t14.5 -35t-14.5 -34.5t-34.5 -14.5zM390 -21q-178 0 -269 47t-91 156q0 37 9 78.5t19 78.5 l75 -19q-6 -22 -13.5 -55.5t-7.5 -59.5q0 -52 26.5 -83.5t92.5 -46t185 -14.5q61 0 129 7.5t135.5 27t128.5 53.5t107 86l63 -37q-9 -23 -12 -36.5t-3 -24.5q0 -15 11 -28.5t41.5 -22.5t86.5 -9q21 0 30.5 -11.5t9.5 -27.5t-14 -29.5t-36 -13.5q-88 0 -144.5 26t-57.5 85 q-54 -42 -130.5 -70t-167.5 -42q16 -23 16 -51q0 -37 -26 -63t-63 -26t-63 26t-26 63q0 19 8 37q-24 -1 -49 -1zM520 -95q17 0 29 11t12 27q0 17 -12 28.5t-29 11.5t-29 -11.5t-12 -28.5q0 -16 12 -27t29 -11z" />
<glyph unicode="&#x67d;" horiz-adv-x="299" d="M82 617q-21 0 -35.5 14.5t-14.5 34.5t14.5 35t35.5 15q20 0 34.5 -15t14.5 -35t-14.5 -34.5t-34.5 -14.5zM218 617q-21 0 -35.5 14.5t-14.5 34.5t14.5 35t35.5 15q20 0 34.5 -15t14.5 -35t-14.5 -34.5t-34.5 -14.5zM150 507q-21 0 -35.5 14.5t-14.5 34.5t14.5 35t35.5 15 q20 0 34.5 -15t14.5 -35t-14.5 -34.5t-34.5 -14.5zM0 -5l10 82q59 0 92 4.5t47 23t14 58.5q0 38 -17.5 95.5t-39.5 114.5l81 30q13 -32 24.5 -73t19.5 -81t8 -70q0 -100 -56 -142t-183 -42z" />
<glyph unicode="&#x67d;" horiz-adv-x="373" d="M131 496q-21 0 -35.5 14.5t-14.5 34.5t14.5 35t35.5 15q20 0 34.5 -15t14.5 -35t-14.5 -34.5t-34.5 -14.5zM267 496q-21 0 -35.5 14.5t-14.5 34.5t14.5 35t35.5 15q20 0 34.5 -15t14.5 -35t-14.5 -34.5t-34.5 -14.5zM199 386q-21 0 -35.5 14.5t-14.5 34.5t14.5 35 t35.5 15q20 0 34.5 -15t14.5 -35t-14.5 -34.5t-34.5 -14.5zM0 -5l10 82q50 0 78 7.5t42.5 29t23.5 62.5t22 107l78 -15q-6 -27 -13.5 -62t-7.5 -59q0 -15 2 -28t15 -22t44 -14.5t89 -5.5q21 0 30.5 -11.5t9.5 -27.5t-14 -29.5t-36 -13.5q-65 0 -101.5 7.5t-54 22t-25.5 36.5 q-29 -41 -71.5 -53.5t-120.5 -12.5z" />
<glyph unicode="&#x67d;" horiz-adv-x="1093" d="M390 -21q-178 0 -269 47t-91 156q0 37 9 78.5t19 78.5l75 -19q-6 -22 -13.5 -55.5t-7.5 -59.5q0 -52 26.5 -83.5t92.5 -46t185 -14.5q61 0 129 7.5t135.5 27t128.5 53.5t107 86l63 -37q-9 -23 -12 -36.5t-3 -24.5q0 -15 11 -28.5t41.5 -22.5t86.5 -9q21 0 30.5 -11.5 t9.5 -27.5t-14 -29.5t-36 -13.5q-88 0 -144.5 26t-57.5 85q-83 -64 -215 -95.5t-286 -31.5zM422 511q-21 0 -35.5 14.5t-14.5 34.5t14.5 35t35.5 15q20 0 34.5 -15t14.5 -35t-14.5 -34.5t-34.5 -14.5zM558 511q-21 0 -35.5 14.5t-14.5 34.5t14.5 35t35.5 15q20 0 34.5 -15 t14.5 -35t-14.5 -34.5t-34.5 -14.5zM490 401q-21 0 -35.5 14.5t-14.5 34.5t14.5 35t35.5 15q20 0 34.5 -15t14.5 -35t-14.5 -34.5t-34.5 -14.5z" />
<glyph unicode="&#x681;" horiz-adv-x="589" d="M424 78q-39 42 -63 183q-15 88 -42.5 122t-83.5 34q-67 0 -145 -40l-35 69q77 49 181 49q86 0 135.5 -46t68.5 -165q25 -163 75 -208v-76h-525v78h434zM131 707q-17 0 -90 -9t-103 -15v46l47 7q-35 23 -35 63q0 42 27.5 66t74.5 24q36 0 66 -15l-15 -45q-23 12 -50 12 q-52 0 -52 -51q0 -31 30 -47l18 3q46 7 82 10v-49z" />
<glyph unicode="&#x681;" horiz-adv-x="637" d="M424 78q-39 42 -63 183q-15 88 -42.5 122t-83.5 34q-67 0 -145 -40l-35 69q77 49 181 49q86 0 135.5 -46t68.5 -165q23 -157 72 -206h72v-78h-594v78h434zM121 707q-17 0 -90 -9t-103 -15v46l47 7q-35 23 -35 63q0 42 27.5 66t74.5 24q36 0 66 -15l-15 -45q-23 12 -50 12 q-52 0 -52 -51q0 -31 30 -47l18 3q46 7 82 10v-49z" />
<glyph unicode="&#x681;" horiz-adv-x="649" d="M248 0q-111 0 -111 -99q0 -47 26.5 -75.5t70.5 -28.5q53 0 110 18l22 -67q-60 -29 -137 -29q-88 0 -136 49.5t-48 136.5q0 173 202 173h192q-39 42 -63 183q-15 88 -42.5 122t-83.5 34q-67 0 -145 -40l-35 69q77 49 181 49q86 0 136 -46t68 -165q23 -158 72 -206h72v-78 h-351zM276 771q-17 0 -90 -9t-103 -15v46l47 7q-35 23 -35 63q0 42 27.5 66t74.5 24q36 0 66 -15l-15 -45q-23 12 -50 12q-52 0 -52 -51q0 -31 30 -47l18 3q46 7 82 10v-49z" />
<glyph unicode="&#x682;" horiz-adv-x="589" d="M424 78q-39 42 -63 183q-15 88 -42.5 122t-83.5 34q-67 0 -145 -40l-35 69q77 49 181 49q86 0 135.5 -46t68.5 -165q25 -163 75 -208v-76h-525v78h434zM166 584q-21 0 -35.5 14.5t-14.5 34.5t14.5 35t35.5 15q20 0 34.5 -15t14.5 -35t-14.5 -34.5t-34.5 -14.5zM167 455 q-21 0 -35.5 14.5t-14.5 34.5t14.5 35t35.5 15q20 0 34.5 -15t14.5 -35t-14.5 -34.5t-34.5 -14.5z" />
<glyph unicode="&#x682;" horiz-adv-x="637" d="M424 78q-39 42 -63 183q-15 88 -42.5 122t-83.5 34q-67 0 -145 -40l-35 69q77 49 181 49q86 0 135.5 -46t68.5 -165q23 -157 72 -206h72v-78h-594v78h434zM156 584q-21 0 -35.5 14.5t-14.5 34.5t14.5 35t35.5 15q20 0 34.5 -15t14.5 -35t-14.5 -34.5t-34.5 -14.5z M157 455q-21 0 -35.5 14.5t-14.5 34.5t14.5 35t35.5 15q20 0 34.5 -15t14.5 -35t-14.5 -34.5t-34.5 -14.5z" />
<glyph unicode="&#x682;" horiz-adv-x="649" d="M248 0q-111 0 -111 -99q0 -47 26.5 -75.5t70.5 -28.5q53 0 110 18l22 -67q-60 -29 -137 -29q-88 0 -136 49.5t-48 136.5q0 173 202 173h192q-39 42 -63 183q-15 88 -42.5 122t-83.5 34q-67 0 -145 -40l-35 69q77 49 181 49q86 0 136 -46t68 -165q23 -158 72 -206h72v-78 h-351zM311 648q-21 0 -35.5 14.5t-14.5 34.5t14.5 35t35.5 15q20 0 34.5 -15t14.5 -35t-14.5 -34.5t-34.5 -14.5zM312 519q-21 0 -35.5 14.5t-14.5 34.5t14.5 35t35.5 15q20 0 34.5 -15t14.5 -35t-14.5 -34.5t-34.5 -14.5z" />
<glyph unicode="&#x685;" horiz-adv-x="589" d="M424 78q-39 42 -63 183q-15 88 -42.5 122t-83.5 34q-67 0 -145 -40l-35 69q77 49 181 49q86 0 135.5 -46t68.5 -165q25 -163 75 -208v-76h-525v78h434zM169 565q-21 0 -35.5 14.5t-14.5 34.5t14.5 35t35.5 15q20 0 34.5 -15t14.5 -35t-14.5 -34.5t-34.5 -14.5zM101 455 q-21 0 -35.5 14.5t-14.5 34.5t14.5 35t35.5 15q20 0 34.5 -15t14.5 -35t-14.5 -34.5t-34.5 -14.5zM237 455q-21 0 -35.5 14.5t-14.5 34.5t14.5 35t35.5 15q20 0 34.5 -15t14.5 -35t-14.5 -34.5t-34.5 -14.5z" />
<glyph unicode="&#x685;" horiz-adv-x="637" d="M424 78q-39 42 -63 183q-15 88 -42.5 122t-83.5 34q-67 0 -145 -40l-35 69q77 49 181 49q86 0 135.5 -46t68.5 -165q23 -157 72 -206h72v-78h-594v78h434zM159 565q-21 0 -35.5 14.5t-14.5 34.5t14.5 35t35.5 15q20 0 34.5 -15t14.5 -35t-14.5 -34.5t-34.5 -14.5zM91 455 q-21 0 -35.5 14.5t-14.5 34.5t14.5 35t35.5 15q20 0 34.5 -15t14.5 -35t-14.5 -34.5t-34.5 -14.5zM227 455q-21 0 -35.5 14.5t-14.5 34.5t14.5 35t35.5 15q20 0 34.5 -15t14.5 -35t-14.5 -34.5t-34.5 -14.5z" />
<glyph unicode="&#x685;" horiz-adv-x="649" d="M248 0q-111 0 -111 -99q0 -47 26.5 -75.5t70.5 -28.5q53 0 110 18l22 -67q-60 -29 -137 -29q-88 0 -136 49.5t-48 136.5q0 173 202 173h192q-39 42 -63 183q-15 88 -42.5 122t-83.5 34q-67 0 -145 -40l-35 69q77 49 181 49q86 0 136 -46t68 -165q23 -158 72 -206h72v-78 h-351zM314 629q-21 0 -35.5 14.5t-14.5 34.5t14.5 35t35.5 15q20 0 34.5 -15t14.5 -35t-14.5 -34.5t-34.5 -14.5zM246 519q-21 0 -35.5 14.5t-14.5 34.5t14.5 35t35.5 15q20 0 34.5 -15t14.5 -35t-14.5 -34.5t-34.5 -14.5zM382 519q-21 0 -35.5 14.5t-14.5 34.5t14.5 35 t35.5 15q20 0 34.5 -15t14.5 -35t-14.5 -34.5t-34.5 -14.5z" />
<glyph unicode="&#x689;" horiz-adv-x="532" d="M215 77q74 0 105 22.5t31 62.5q0 26 -18 67t-47.5 91.5t-65.5 103.5l69 45q58 -89 94.5 -162.5t54.5 -132.5q14 -44 31.5 -65t36.5 -26.5t35 -5.5q21 0 31 -11.5t10 -27.5t-14 -29.5t-36 -13.5q-39 0 -75 17t-58 58q-14 -24 -40.5 -42t-68.5 -27q13 -22 13 -47 q0 -37 -26 -63t-63 -26t-63 26t-26 63q0 26 13 47q-63 13 -103 44l40 69q20 -13 56 -25t84 -12zM214 -84q17 0 29 11t12 27q0 17 -12 28.5t-29 11.5t-29 -11.5t-12 -28.5q0 -16 12 -27t29 -11z" />
<glyph unicode="&#x68a;" horiz-adv-x="532" d="M25 78h333q-51 287 -212 362l32 76q174 -69 245 -340q9 -37 44 -67.5t76 -30.5h16v-78h-13q-64 0 -102 56v-56h-419v78zM234 -191q-21 0 -35.5 14.5t-14.5 34.5t14.5 35t35.5 15q20 0 34.5 -15t14.5 -35t-14.5 -34.5t-34.5 -14.5z" />
<glyph unicode="&#x68b;" horiz-adv-x="532" d="M25 78h333q-51 287 -212 362l32 76q174 -69 245 -340q9 -37 44 -67.5t76 -30.5h16v-78h-13q-64 0 -102 56v-56h-419v78zM224 588q-18 0 -42.5 1.5t-46.5 3.5l-33 3l2 58q6 -1 13 -1.5t15 -1.5q10 18 22 34l-5 162h55l5 -106q18 13 37.5 20.5t39.5 7.5q38 0 60 -23t22 -57 q0 -20 -11.5 -43.5t-42.5 -40.5t-90 -17zM278 710q-18 0 -35 -11t-31.5 -26t-22.5 -26q16 -1 28 -1q49 0 71 10.5t22 27.5q0 14 -9 20t-23 6zM234 -191q-21 0 -35.5 14.5t-14.5 34.5t14.5 35t35.5 15q20 0 34.5 -15t14.5 -35t-14.5 -34.5t-34.5 -14.5z" />
<glyph unicode="&#x68f;" horiz-adv-x="532" d="M25 78h333q-51 287 -212 362l32 76q174 -69 245 -340q9 -37 44 -67.5t76 -30.5h16v-78h-13q-64 0 -102 56v-56h-419v78zM155 670q-21 0 -35.5 14.5t-14.5 34.5t14.5 35t35.5 15q20 0 34.5 -15t14.5 -35t-14.5 -34.5t-34.5 -14.5zM291 670q-21 0 -35.5 14.5t-14.5 34.5 t14.5 35t35.5 15q20 0 34.5 -15t14.5 -35t-14.5 -34.5t-34.5 -14.5zM223 560q-21 0 -35.5 14.5t-14.5 34.5t14.5 35t35.5 15q20 0 34.5 -15t14.5 -35t-14.5 -34.5t-34.5 -14.5z" />
<glyph unicode="&#x690;" horiz-adv-x="532" d="M25 78h333q-51 287 -212 362l32 76q174 -69 245 -340q9 -37 44 -67.5t76 -30.5h16v-78h-13q-64 0 -102 56v-56h-419v78zM155 685q-21 0 -35.5 14.5t-14.5 34.5t14.5 35t35.5 15q20 0 34.5 -15t14.5 -35t-14.5 -34.5t-34.5 -14.5zM291 685q-21 0 -35.5 14.5t-14.5 34.5 t14.5 35t35.5 15q20 0 34.5 -15t14.5 -35t-14.5 -34.5t-34.5 -14.5zM155 560q-21 0 -35.5 14.5t-14.5 34.5t14.5 35t35.5 15q20 0 34.5 -15t14.5 -35t-14.5 -34.5t-34.5 -14.5zM291 560q-21 0 -35.5 14.5t-14.5 34.5t14.5 35t35.5 15q20 0 34.5 -15t14.5 -35t-14.5 -34.5 t-34.5 -14.5z" />
<glyph unicode="&#x692;" horiz-adv-x="396" d="M248 -24q0 -101 -46.5 -158.5t-131.5 -57.5q-77 0 -136 48l40 61q42 -31 94 -31q44 0 70 36.5t26 96.5v514h84v-311q0 -44 27.5 -70t71.5 -26h16v-78h-3q-84 0 -112 57v-81zM134 485q-9 20 -25 53.5t-32.5 67t-29.5 54.5l46 25q7 -12 20 -36.5t27.5 -52t24.5 -49.5 q11 26 24 55.5t24 53t16 31.5l45 -19q-5 -10 -16 -32.5t-23.5 -50t-24 -53t-17.5 -41.5z" />
<glyph unicode="&#x693;" horiz-adv-x="396" d="M4 -232l-29 76q97 32 151.5 76t77 92.5t22.5 94.5q0 49 -21.5 99.5t-47.5 95.5l73 37q28 -53 47.5 -102t30.5 -86q14 -43 36.5 -58.5t61.5 -15.5q21 0 30.5 -11.5t9.5 -27.5t-14 -29.5t-36 -13.5q-38 0 -63.5 12t-41.5 32q-4 -24 -13 -46t-21 -42q31 -6 52 -30.5 t21 -57.5q0 -37 -26 -63t-63 -26q-32 0 -55.5 19.5t-30.5 48.5q-39 -28 -78.5 -47t-72.5 -27zM241 -175q17 0 29 11t12 27q0 17 -12 28.5t-29 11.5t-29 -11.5t-12 -28.5q0 -16 12 -27t29 -11z" />
<glyph unicode="&#x694;" horiz-adv-x="396" d="M248 -24q0 -101 -46.5 -158.5t-131.5 -57.5q-77 0 -136 48l40 61q42 -31 94 -31q44 0 70 36.5t26 96.5v514h84v-311q0 -44 27.5 -70t71.5 -26h16v-78h-3q-84 0 -112 57v-81zM83 -403q-21 0 -35.5 14.5t-14.5 34.5t14.5 35t35.5 15q20 0 34.5 -15t14.5 -35t-14.5 -34.5 t-34.5 -14.5z" />
<glyph unicode="&#x695;" horiz-adv-x="396" d="M4 -232l-29 76q97 32 151.5 76t77 92.5t22.5 94.5q0 49 -21.5 99.5t-47.5 95.5l73 37q28 -53 47.5 -102t30.5 -86q14 -43 36.5 -58.5t61.5 -15.5q21 0 30.5 -11.5t9.5 -27.5t-14 -29.5t-36 -13.5q-38 0 -63.5 12t-41.5 32q-10 -56 -42 -102t-75 -80.5t-88 -56.5t-82 -32z M45 -57l-20.5 41t-26 50.5t-23.5 42.5l37 20q6 -9 16.5 -27.5t21.5 -39.5t20 -38q8 20 18.5 42.5t19.5 40t13 24.5l36 -15q-6 -11 -19 -37t-26.5 -54.5t-19.5 -44.5z" />
<glyph unicode="&#x696;" horiz-adv-x="396" d="M248 -24q0 -101 -46.5 -158.5t-131.5 -57.5q-77 0 -136 48l40 61q42 -31 94 -31q44 0 70 36.5t26 96.5v514h84v-311q0 -44 27.5 -70t71.5 -26h16v-78h-3q-84 0 -112 57v-81zM71 -7q-21 0 -35.5 14.5t-14.5 34.5t14.5 35t35.5 15q20 0 34.5 -15t14.5 -35t-14.5 -34.5 t-34.5 -14.5zM83 -403q-21 0 -35.5 14.5t-14.5 34.5t14.5 35t35.5 15q20 0 34.5 -15t14.5 -35t-14.5 -34.5t-34.5 -14.5z" />
<glyph unicode="&#x697;" horiz-adv-x="396" d="M248 -24q0 -101 -46.5 -158.5t-131.5 -57.5q-77 0 -136 48l40 61q42 -31 94 -31q44 0 70 36.5t26 96.5v514h84v-311q0 -44 27.5 -70t71.5 -26h16v-78h-3q-84 0 -112 57v-81zM233 454q-21 0 -35.5 14.5t-14.5 34.5t14.5 35t35.5 15q20 0 34.5 -15t14.5 -35t-14.5 -34.5 t-34.5 -14.5zM96 454q-21 0 -35.5 14.5t-14.5 34.5t14.5 35t35.5 15q20 0 34.5 -15t14.5 -35t-14.5 -34.5t-34.5 -14.5z" />
<glyph unicode="&#x699;" horiz-adv-x="396" d="M248 -24q0 -101 -46.5 -158.5t-131.5 -57.5q-77 0 -136 48l40 61q42 -31 94 -31q44 0 70 36.5t26 96.5v514h84v-311q0 -44 27.5 -70t71.5 -26h16v-78h-3q-84 0 -112 57v-81zM97 579q-21 0 -35.5 14.5t-14.5 34.5t14.5 35t35.5 15q20 0 34.5 -15t14.5 -35t-14.5 -34.5 t-34.5 -14.5zM233 579q-21 0 -35.5 14.5t-14.5 34.5t14.5 35t35.5 15q20 0 34.5 -15t14.5 -35t-14.5 -34.5t-34.5 -14.5zM97 454q-21 0 -35.5 14.5t-14.5 34.5t14.5 35t35.5 15q20 0 34.5 -15t14.5 -35t-14.5 -34.5t-34.5 -14.5zM233 454q-21 0 -35.5 14.5t-14.5 34.5 t14.5 35t35.5 15q20 0 34.5 -15t14.5 -35t-14.5 -34.5t-34.5 -14.5z" />
<glyph unicode="&#x69a;" horiz-adv-x="784" d="M-10 0v78h148v329h85v-218q0 -49 30.5 -80t78.5 -31h62v329h85v-218q0 -49 30.5 -80t78.5 -31h62v407h85v-485h-144q-84 0 -112 57v-57h-144q-84 0 -112 57v-57h-233zM386 -191q-21 0 -35.5 14.5t-14.5 34.5t14.5 35t35.5 15q20 0 34.5 -15t14.5 -35t-14.5 -34.5 t-34.5 -14.5zM429 435q-21 0 -35.5 14.5t-14.5 34.5t14.5 35t35.5 15q20 0 34.5 -15t14.5 -35t-14.5 -34.5t-34.5 -14.5z" />
<glyph unicode="&#x69a;" horiz-adv-x="850" d="M-10 0v78h148v329h85v-218q0 -49 30.5 -80t78.5 -31h62v329h85v-218q0 -49 30.5 -80t78.5 -31h62v407h85v-311q0 -44 27.5 -70t71.5 -26h16v-78h-3q-83 0 -112 57v-57h-144q-84 0 -112 57v-57h-144q-84 0 -112 57v-57h-233zM386 -191q-21 0 -35.5 14.5t-14.5 34.5 t14.5 35t35.5 15q20 0 34.5 -15t14.5 -35t-14.5 -34.5t-34.5 -14.5zM429 435q-21 0 -35.5 14.5t-14.5 34.5t14.5 35t35.5 15q20 0 34.5 -15t14.5 -35t-14.5 -34.5t-34.5 -14.5z" />
<glyph unicode="&#x69a;" horiz-adv-x="1269" d="M266 -240q-91 0 -146 68t-55 188q0 134 41 236h83q-34 -91 -34 -236q0 -85 34 -131.5t96 -46.5h49q168 0 168 159v410h85v-218q0 -49 30.5 -80t78.5 -31h62v329h85v-218q0 -49 30.5 -80t78.5 -31h62v407h85v-306q0 -46 27 -73.5t72 -27.5h16v-78h-3q-84 0 -112 57v-57 h-144q-83 0 -112 57v-57h-144q-83 0 -112 57v-53q0 -244 -249 -244h-72zM848 -186q-21 0 -35.5 14.5t-14.5 34.5t14.5 35t35.5 15q20 0 34.5 -15t14.5 -35t-14.5 -34.5t-34.5 -14.5zM822 435q-21 0 -35.5 14.5t-14.5 34.5t14.5 35t35.5 15q20 0 34.5 -15t14.5 -35 t-14.5 -34.5t-34.5 -14.5z" />
<glyph unicode="&#x69b;" horiz-adv-x="784" d="M-10 0v78h148v329h85v-218q0 -49 30.5 -80t78.5 -31h62v329h85v-218q0 -49 30.5 -80t78.5 -31h62v407h85v-485h-144q-84 0 -112 57v-57h-144q-84 0 -112 57v-57h-233zM318 -194q-21 0 -35.5 14.5t-14.5 34.5t14.5 35t35.5 15q20 0 34.5 -15t14.5 -35t-14.5 -34.5 t-34.5 -14.5zM454 -194q-21 0 -35.5 14.5t-14.5 34.5t14.5 35t35.5 15q20 0 34.5 -15t14.5 -35t-14.5 -34.5t-34.5 -14.5zM386 -304q-21 0 -35.5 14.5t-14.5 34.5t14.5 35t35.5 15q20 0 34.5 -15t14.5 -35t-14.5 -34.5t-34.5 -14.5z" />
<glyph unicode="&#x69b;" horiz-adv-x="850" d="M-10 0v78h148v329h85v-218q0 -49 30.5 -80t78.5 -31h62v329h85v-218q0 -49 30.5 -80t78.5 -31h62v407h85v-311q0 -44 27.5 -70t71.5 -26h16v-78h-3q-83 0 -112 57v-57h-144q-84 0 -112 57v-57h-144q-84 0 -112 57v-57h-233zM318 -194q-21 0 -35.5 14.5t-14.5 34.5 t14.5 35t35.5 15q20 0 34.5 -15t14.5 -35t-14.5 -34.5t-34.5 -14.5zM454 -194q-21 0 -35.5 14.5t-14.5 34.5t14.5 35t35.5 15q20 0 34.5 -15t14.5 -35t-14.5 -34.5t-34.5 -14.5zM386 -304q-21 0 -35.5 14.5t-14.5 34.5t14.5 35t35.5 15q20 0 34.5 -15t14.5 -35t-14.5 -34.5 t-34.5 -14.5z" />
<glyph unicode="&#x69b;" horiz-adv-x="1269" d="M266 -240q-91 0 -146 68t-55 188q0 134 41 236h83q-34 -91 -34 -236q0 -85 34 -131.5t96 -46.5h49q168 0 168 159v410h85v-218q0 -49 30.5 -80t78.5 -31h62v329h85v-218q0 -49 30.5 -80t78.5 -31h62v407h85v-306q0 -46 27 -73.5t72 -27.5h16v-78h-3q-84 0 -112 57v-57 h-144q-83 0 -112 57v-57h-144q-83 0 -112 57v-53q0 -244 -249 -244h-72zM780 -189q-21 0 -35.5 14.5t-14.5 34.5t14.5 35t35.5 15q20 0 34.5 -15t14.5 -35t-14.5 -34.5t-34.5 -14.5zM916 -189q-21 0 -35.5 14.5t-14.5 34.5t14.5 35t35.5 15q20 0 34.5 -15t14.5 -35 t-14.5 -34.5t-34.5 -14.5zM848 -299q-21 0 -35.5 14.5t-14.5 34.5t14.5 35t35.5 15q20 0 34.5 -15t14.5 -35t-14.5 -34.5t-34.5 -14.5z" />
<glyph unicode="&#x69c;" horiz-adv-x="784" d="M-10 0v78h148v329h85v-218q0 -49 30.5 -80t78.5 -31h62v329h85v-218q0 -49 30.5 -80t78.5 -31h62v407h85v-485h-144q-84 0 -112 57v-57h-144q-84 0 -112 57v-57h-233zM431 545q-21 0 -35.5 14.5t-14.5 34.5t14.5 35t35.5 15q20 0 34.5 -15t14.5 -35t-14.5 -34.5 t-34.5 -14.5zM363 435q-21 0 -35.5 14.5t-14.5 34.5t14.5 35t35.5 15q20 0 34.5 -15t14.5 -35t-14.5 -34.5t-34.5 -14.5zM499 435q-21 0 -35.5 14.5t-14.5 34.5t14.5 35t35.5 15q20 0 34.5 -15t14.5 -35t-14.5 -34.5t-34.5 -14.5zM318 -194q-21 0 -35.5 14.5t-14.5 34.5 t14.5 35t35.5 15q20 0 34.5 -15t14.5 -35t-14.5 -34.5t-34.5 -14.5zM454 -194q-21 0 -35.5 14.5t-14.5 34.5t14.5 35t35.5 15q20 0 34.5 -15t14.5 -35t-14.5 -34.5t-34.5 -14.5zM386 -304q-21 0 -35.5 14.5t-14.5 34.5t14.5 35t35.5 15q20 0 34.5 -15t14.5 -35t-14.5 -34.5 t-34.5 -14.5z" />
<glyph unicode="&#x69c;" horiz-adv-x="850" d="M-10 0v78h148v329h85v-218q0 -49 30.5 -80t78.5 -31h62v329h85v-218q0 -49 30.5 -80t78.5 -31h62v407h85v-311q0 -44 27.5 -70t71.5 -26h16v-78h-3q-83 0 -112 57v-57h-144q-84 0 -112 57v-57h-144q-84 0 -112 57v-57h-233zM431 545q-21 0 -35.5 14.5t-14.5 34.5t14.5 35 t35.5 15q20 0 34.5 -15t14.5 -35t-14.5 -34.5t-34.5 -14.5zM363 435q-21 0 -35.5 14.5t-14.5 34.5t14.5 35t35.5 15q20 0 34.5 -15t14.5 -35t-14.5 -34.5t-34.5 -14.5zM499 435q-21 0 -35.5 14.5t-14.5 34.5t14.5 35t35.5 15q20 0 34.5 -15t14.5 -35t-14.5 -34.5 t-34.5 -14.5zM318 -194q-21 0 -35.5 14.5t-14.5 34.5t14.5 35t35.5 15q20 0 34.5 -15t14.5 -35t-14.5 -34.5t-34.5 -14.5zM454 -194q-21 0 -35.5 14.5t-14.5 34.5t14.5 35t35.5 15q20 0 34.5 -15t14.5 -35t-14.5 -34.5t-34.5 -14.5zM386 -304q-21 0 -35.5 14.5t-14.5 34.5 t14.5 35t35.5 15q20 0 34.5 -15t14.5 -35t-14.5 -34.5t-34.5 -14.5z" />
<glyph unicode="&#x69c;" horiz-adv-x="1269" d="M266 -240q-91 0 -146 68t-55 188q0 134 41 236h83q-34 -91 -34 -236q0 -85 34 -131.5t96 -46.5h49q168 0 168 159v410h85v-218q0 -49 30.5 -80t78.5 -31h62v329h85v-218q0 -49 30.5 -80t78.5 -31h62v407h85v-306q0 -46 27 -73.5t72 -27.5h16v-78h-3q-84 0 -112 57v-57 h-144q-83 0 -112 57v-57h-144q-83 0 -112 57v-53q0 -244 -249 -244h-72zM824 545q-21 0 -35.5 14.5t-14.5 34.5t14.5 35t35.5 15q20 0 34.5 -15t14.5 -35t-14.5 -34.5t-34.5 -14.5zM756 435q-21 0 -35.5 14.5t-14.5 34.5t14.5 35t35.5 15q20 0 34.5 -15t14.5 -35 t-14.5 -34.5t-34.5 -14.5zM892 435q-21 0 -35.5 14.5t-14.5 34.5t14.5 35t35.5 15q20 0 34.5 -15t14.5 -35t-14.5 -34.5t-34.5 -14.5zM780 -189q-21 0 -35.5 14.5t-14.5 34.5t14.5 35t35.5 15q20 0 34.5 -15t14.5 -35t-14.5 -34.5t-34.5 -14.5zM916 -189q-21 0 -35.5 14.5 t-14.5 34.5t14.5 35t35.5 15q20 0 34.5 -15t14.5 -35t-14.5 -34.5t-34.5 -14.5zM848 -299q-21 0 -35.5 14.5t-14.5 34.5t14.5 35t35.5 15q20 0 34.5 -15t14.5 -35t-14.5 -34.5t-34.5 -14.5z" />
<glyph unicode="&#x69d;" horiz-adv-x="903" d="M202 0h-212v78h127v377h85v-185q96 225 277 225q229 0 229 -254v-241h-404q-62 0 -102 77v-77zM204 164q13 -86 97 -86h322v159q0 179 -162 179q-153 0 -257 -252zM556 -207q-21 0 -35.5 14.5t-14.5 34.5t14.5 35t35.5 15q20 0 34.5 -15t14.5 -35t-14.5 -34.5 t-34.5 -14.5zM419 -207q-21 0 -35.5 14.5t-14.5 34.5t14.5 35t35.5 15q20 0 34.5 -15t14.5 -35t-14.5 -34.5t-34.5 -14.5z" />
<glyph unicode="&#x69d;" horiz-adv-x="949" d="M202 0h-212v78h127v377h85v-185q96 225 277 225q229 0 229 -254v-72q0 -41 27 -66t72 -25h16v-78h-3q-84 0 -112 57v-57h-404q-62 0 -102 77v-77zM204 164q13 -86 97 -86h322v159q0 179 -162 179q-153 0 -257 -252zM556 -207q-21 0 -35.5 14.5t-14.5 34.5t14.5 35 t35.5 15q20 0 34.5 -15t14.5 -35t-14.5 -34.5t-34.5 -14.5zM419 -207q-21 0 -35.5 14.5t-14.5 34.5t14.5 35t35.5 15q20 0 34.5 -15t14.5 -35t-14.5 -34.5t-34.5 -14.5z" />
<glyph unicode="&#x69d;" horiz-adv-x="1352" d="M266 -240q-91 0 -146 68t-55 188q0 134 41 236h83q-34 -91 -34 -236q0 -85 34 -131.5t96 -46.5h49q168 0 168 159v488h85v-215q96 225 277 225q229 0 229 -254v-72q0 -41 27 -66t72 -25h16v-78h-3q-83 0 -112 57v-57h-404q-61 0 -102 77v-73q0 -244 -249 -244h-72z M589 164q14 -86 97 -86h322v159q0 179 -162 179q-153 0 -257 -252zM976 -202q-21 0 -35.5 14.5t-14.5 34.5t14.5 35t35.5 15q20 0 34.5 -15t14.5 -35t-14.5 -34.5t-34.5 -14.5zM839 -202q-21 0 -35.5 14.5t-14.5 34.5t14.5 35t35.5 15q20 0 34.5 -15t14.5 -35t-14.5 -34.5 t-34.5 -14.5z" />
<glyph unicode="&#x69e;" horiz-adv-x="903" d="M202 0h-212v78h127v377h85v-185q96 225 277 225q229 0 229 -254v-241h-404q-62 0 -102 77v-77zM204 164q13 -86 97 -86h322v159q0 179 -162 179q-153 0 -257 -252zM654 582q-21 0 -35.5 14.5t-14.5 34.5t14.5 35t35.5 15q20 0 34.5 -15t14.5 -35t-14.5 -34.5t-34.5 -14.5 zM586 472q-21 0 -35.5 14.5t-14.5 34.5t14.5 35t35.5 15q20 0 34.5 -15t14.5 -35t-14.5 -34.5t-34.5 -14.5zM722 472q-21 0 -35.5 14.5t-14.5 34.5t14.5 35t35.5 15q20 0 34.5 -15t14.5 -35t-14.5 -34.5t-34.5 -14.5z" />
<glyph unicode="&#x69e;" horiz-adv-x="949" d="M202 0h-212v78h127v377h85v-185q96 225 277 225q229 0 229 -254v-72q0 -41 27 -66t72 -25h16v-78h-3q-84 0 -112 57v-57h-404q-62 0 -102 77v-77zM204 164q13 -86 97 -86h322v159q0 179 -162 179q-153 0 -257 -252zM654 582q-21 0 -35.5 14.5t-14.5 34.5t14.5 35t35.5 15 q20 0 34.5 -15t14.5 -35t-14.5 -34.5t-34.5 -14.5zM586 472q-21 0 -35.5 14.5t-14.5 34.5t14.5 35t35.5 15q20 0 34.5 -15t14.5 -35t-14.5 -34.5t-34.5 -14.5zM722 472q-21 0 -35.5 14.5t-14.5 34.5t14.5 35t35.5 15q20 0 34.5 -15t14.5 -35t-14.5 -34.5t-34.5 -14.5z" />
<glyph unicode="&#x69e;" horiz-adv-x="1352" d="M266 -240q-91 0 -146 68t-55 188q0 134 41 236h83q-34 -91 -34 -236q0 -85 34 -131.5t96 -46.5h49q168 0 168 159v488h85v-215q96 225 277 225q229 0 229 -254v-72q0 -41 27 -66t72 -25h16v-78h-3q-83 0 -112 57v-57h-404q-61 0 -102 77v-73q0 -244 -249 -244h-72z M589 164q14 -86 97 -86h322v159q0 179 -162 179q-153 0 -257 -252zM1057 587q-21 0 -35.5 14.5t-14.5 34.5t14.5 35t35.5 15q20 0 34.5 -15t14.5 -35t-14.5 -34.5t-34.5 -14.5zM989 477q-21 0 -35.5 14.5t-14.5 34.5t14.5 35t35.5 15q20 0 34.5 -15t14.5 -35t-14.5 -34.5 t-34.5 -14.5zM1125 477q-21 0 -35.5 14.5t-14.5 34.5t14.5 35t35.5 15q20 0 34.5 -15t14.5 -35t-14.5 -34.5t-34.5 -14.5z" />
<glyph unicode="&#x69f;" horiz-adv-x="677" d="M202 0h-212v78h127v682h85v-490q96 225 277 225q229 0 229 -254v-241h-404q-62 0 -102 77v-77zM204 164q13 -86 97 -86h322v159q0 179 -162 179q-153 0 -257 -252zM408 582q-21 0 -35.5 14.5t-14.5 34.5t14.5 35t35.5 15q20 0 34.5 -15t14.5 -35t-14.5 -34.5t-34.5 -14.5 zM340 472q-21 0 -35.5 14.5t-14.5 34.5t14.5 35t35.5 15q20 0 34.5 -15t14.5 -35t-14.5 -34.5t-34.5 -14.5zM476 472q-21 0 -35.5 14.5t-14.5 34.5t14.5 35t35.5 15q20 0 34.5 -15t14.5 -35t-14.5 -34.5t-34.5 -14.5z" />
<glyph unicode="&#x69f;" horiz-adv-x="710" d="M202 0h-212v78h127v682h85v-490q96 225 277 225q229 0 229 -254v-72q0 -41 27 -66t72 -25h16v-78h-3q-84 0 -112 57v-57h-404q-62 0 -102 77v-77zM204 164q13 -86 97 -86h322v159q0 179 -162 179q-153 0 -257 -252zM408 582q-21 0 -35.5 14.5t-14.5 34.5t14.5 35t35.5 15 q20 0 34.5 -15t14.5 -35t-14.5 -34.5t-34.5 -14.5zM340 472q-21 0 -35.5 14.5t-14.5 34.5t14.5 35t35.5 15q20 0 34.5 -15t14.5 -35t-14.5 -34.5t-34.5 -14.5zM476 472q-21 0 -35.5 14.5t-14.5 34.5t14.5 35t35.5 15q20 0 34.5 -15t14.5 -35t-14.5 -34.5t-34.5 -14.5z" />
<glyph unicode="&#x69f;" horiz-adv-x="831" d="M202 0h-182v78h97v682h85v-490q96 225 277 225q229 0 229 -254v-72q0 -41 27 -66t72 -25h16v-78h-3q-84 0 -112 57v-57h-404q-62 0 -102 77v-77zM204 164q13 -86 97 -86h322v159q0 179 -162 179q-153 0 -257 -252zM519 587q-21 0 -35.5 14.5t-14.5 34.5t14.5 35t35.5 15 q20 0 34.5 -15t14.5 -35t-14.5 -34.5t-34.5 -14.5zM451 477q-21 0 -35.5 14.5t-14.5 34.5t14.5 35t35.5 15q20 0 34.5 -15t14.5 -35t-14.5 -34.5t-34.5 -14.5zM587 477q-21 0 -35.5 14.5t-14.5 34.5t14.5 35t35.5 15q20 0 34.5 -15t14.5 -35t-14.5 -34.5t-34.5 -14.5z" />
<glyph unicode="&#x6a0;" horiz-adv-x="503" d="M-10 0v78h159q-71 63 -71 178q0 114 65 176.5t173 62.5q80 0 139 -29l-27 -75q-62 26 -117 26q-142 0 -142 -165q0 -77 34 -125.5t89 -48.5h178v-78h-480zM267 652q-21 0 -35.5 14.5t-14.5 34.5t14.5 35t35.5 15q20 0 34.5 -15t14.5 -35t-14.5 -34.5t-34.5 -14.5z M199 542q-21 0 -35.5 14.5t-14.5 34.5t14.5 35t35.5 15q20 0 34.5 -15t14.5 -35t-14.5 -34.5t-34.5 -14.5zM335 542q-21 0 -35.5 14.5t-14.5 34.5t14.5 35t35.5 15q20 0 34.5 -15t14.5 -35t-14.5 -34.5t-34.5 -14.5z" />
<glyph unicode="&#x6a0;" horiz-adv-x="521" d="M604 0h-122q-92 0 -185 50q-85 -50 -186 -50h-121v78h120q71 0 119 20q-62 44 -112 125.5t-62 163.5q45 61 120 95.5t153 34.5q142 0 219 -63q0 -104 -48 -201t-132 -154q58 -21 111 -21h126v-78zM151 361q30 -128 147 -218q147 99 157 269q-39 27 -124 27 q-49 0 -101.5 -23t-78.5 -55zM277 624q-21 0 -35.5 14.5t-14.5 34.5t14.5 35t35.5 15q20 0 34.5 -15t14.5 -35t-14.5 -34.5t-34.5 -14.5zM209 514q-21 0 -35.5 14.5t-14.5 34.5t14.5 35t35.5 15q20 0 34.5 -15t14.5 -35t-14.5 -34.5t-34.5 -14.5zM345 514q-21 0 -35.5 14.5 t-14.5 34.5t14.5 35t35.5 15q20 0 34.5 -15t14.5 -35t-14.5 -34.5t-34.5 -14.5z" />
<glyph unicode="&#x6a0;" horiz-adv-x="531" d="M173 67q-85 65 -85 190q0 116 66 177t172 61q80 0 139 -29l-27 -75q-62 26 -117 26q-142 0 -142 -165q0 -76 34.5 -125t89.5 -49h230v-78h-290q-112 0 -112 -99q0 -47 28 -75.5t76 -28.5q62 0 124 23l22 -67q-74 -34 -147 -34q-89 0 -141.5 50t-52.5 131q0 130 133 167z M297 624q-21 0 -35.5 14.5t-14.5 34.5t14.5 35t35.5 15q20 0 34.5 -15t14.5 -35t-14.5 -34.5t-34.5 -14.5zM229 514q-21 0 -35.5 14.5t-14.5 34.5t14.5 35t35.5 15q20 0 34.5 -15t14.5 -35t-14.5 -34.5t-34.5 -14.5zM365 514q-21 0 -35.5 14.5t-14.5 34.5t14.5 35t35.5 15 q20 0 34.5 -15t14.5 -35t-14.5 -34.5t-34.5 -14.5z" />
<glyph unicode="&#x6a1;" horiz-adv-x="447" d="M0 -5l10 82q33 0 75.5 0.5t82.5 4t63 11.5q32 11 51.5 28.5t29.5 45.5q-18 -6 -38.5 -8.5t-40.5 -2.5q-76 0 -117.5 36t-41.5 91q0 38 12 76.5t34 70.5t53 51.5t69 19.5q54 0 89.5 -35t53 -91.5t17.5 -119.5q0 -75 -25.5 -128.5t-84.5 -88.5q-31 -18 -77.5 -27.5 t-101.5 -12.5t-113 -3zM153 303q0 -31 20 -49.5t69 -18.5q43 0 82 12v14q0 42 -11 78t-31 58t-48 22q-23 0 -41.5 -17.5t-29 -44.5t-10.5 -54z" />
<glyph unicode="&#x6a1;" horiz-adv-x="495" d="M0 -5l10 82q34 0 70.5 1t70.5 5q-24 22 -47 57t-23 85q0 54 25 97t65 68t85 25q49 0 86 -27t57.5 -68.5t20.5 -86.5q0 -47 -19 -84t-51 -65q40 -3 82 -5t73 -2q21 0 30.5 -11.5t9.5 -27.5t-14 -29.5t-36 -13.5q-61 0 -127 9.5t-116 23.5q-16 -6 -33 -11 q-46 -13 -105 -17.5t-114 -4.5zM163 223q0 -39 24 -68.5t54 -47.5q41 18 69 48t28 72q0 23 -11 47.5t-30 41.5t-44 17q-24 0 -44.5 -16t-33 -41.5t-12.5 -52.5z" />
<glyph unicode="&#x6a1;" horiz-adv-x="1098" d="M390 -21q-178 0 -269 47t-91 156q0 37 9 78.5t19 78.5l75 -19q-6 -22 -13.5 -55.5t-7.5 -59.5q0 -52 26.5 -83.5t92.5 -46t185 -14.5q110 0 197 6.5t141 15.5q-24 20 -47 54.5t-23 84.5q0 54 24.5 97.5t64.5 69.5t86 26q49 0 86 -27.5t57.5 -70t20.5 -87.5 q0 -47 -19 -83.5t-52 -63.5q41 -3 83 -4.5t73 -1.5q21 0 30.5 -11.5t9.5 -27.5t-14 -29.5t-36 -13.5q-129 0 -242 33q-16 -6 -34 -11q-30 -9 -95.5 -17.5t-153 -14.5t-183.5 -6zM766 220q0 -40 25.5 -67.5t56.5 -44.5q39 18 66 46.5t27 69.5q0 23 -11 48t-30 43t-44 18 q-24 0 -44.5 -17t-33 -43t-12.5 -53z" />
<glyph unicode="&#x6a2;" horiz-adv-x="447" d="M0 -5l10 82q33 0 75.5 0.5t82.5 4t63 11.5q32 11 51.5 28.5t29.5 45.5q-18 -6 -38.5 -8.5t-40.5 -2.5q-76 0 -117.5 36t-41.5 91q0 38 12 76.5t34 70.5t53 51.5t69 19.5q54 0 89.5 -35t53 -91.5t17.5 -119.5q0 -75 -25.5 -128.5t-84.5 -88.5q-31 -18 -77.5 -27.5 t-101.5 -12.5t-113 -3zM153 303q0 -31 20 -49.5t69 -18.5q43 0 82 12v14q0 42 -11 78t-31 58t-48 22q-23 0 -41.5 -17.5t-29 -44.5t-10.5 -54zM202 -191q-21 0 -35.5 14.5t-14.5 34.5t14.5 35t35.5 15q20 0 34.5 -15t14.5 -35t-14.5 -34.5t-34.5 -14.5z" />
<glyph unicode="&#x6a2;" horiz-adv-x="495" d="M0 -5l10 82q34 0 70.5 1t70.5 5q-24 22 -47 57t-23 85q0 54 25 97t65 68t85 25q49 0 86 -27t57.5 -68.5t20.5 -86.5q0 -47 -19 -84t-51 -65q40 -3 82 -5t73 -2q21 0 30.5 -11.5t9.5 -27.5t-14 -29.5t-36 -13.5q-61 0 -127 9.5t-116 23.5q-16 -6 -33 -11 q-46 -13 -105 -17.5t-114 -4.5zM163 223q0 -39 24 -68.5t54 -47.5q41 18 69 48t28 72q0 23 -11 47.5t-30 41.5t-44 17q-24 0 -44.5 -16t-33 -41.5t-12.5 -52.5zM243 -191q-21 0 -35.5 14.5t-14.5 34.5t14.5 35t35.5 15q20 0 34.5 -15t14.5 -35t-14.5 -34.5t-34.5 -14.5z" />
<glyph unicode="&#x6a2;" horiz-adv-x="1098" d="M390 -21q-178 0 -269 47t-91 156q0 37 9 78.5t19 78.5l75 -19q-6 -22 -13.5 -55.5t-7.5 -59.5q0 -52 26.5 -83.5t92.5 -46t185 -14.5q110 0 197 6.5t141 15.5q-24 20 -47 54.5t-23 84.5q0 54 24.5 97.5t64.5 69.5t86 26q49 0 86 -27.5t57.5 -70t20.5 -87.5 q0 -47 -19 -83.5t-52 -63.5q41 -3 83 -4.5t73 -1.5q21 0 30.5 -11.5t9.5 -27.5t-14 -29.5t-36 -13.5q-129 0 -242 33q-16 -6 -34 -11q-30 -9 -95.5 -17.5t-153 -14.5t-183.5 -6zM766 220q0 -40 25.5 -67.5t56.5 -44.5q39 18 66 46.5t27 69.5q0 23 -11 48t-30 43t-44 18 q-24 0 -44.5 -17t-33 -43t-12.5 -53zM460 -211q-21 0 -35.5 14.5t-14.5 34.5t14.5 35t35.5 15q20 0 34.5 -15t14.5 -35t-14.5 -34.5t-34.5 -14.5z" />
<glyph unicode="&#x6a3;" horiz-adv-x="447" d="M0 -5l10 82q33 0 75.5 0.5t82.5 4t63 11.5q32 11 51.5 28.5t29.5 45.5q-18 -6 -38.5 -8.5t-40.5 -2.5q-76 0 -117.5 36t-41.5 91q0 38 12 76.5t34 70.5t53 51.5t69 19.5q54 0 89.5 -35t53 -91.5t17.5 -119.5q0 -75 -25.5 -128.5t-84.5 -88.5q-31 -18 -77.5 -27.5 t-101.5 -12.5t-113 -3zM153 303q0 -31 20 -49.5t69 -18.5q43 0 82 12v14q0 42 -11 78t-31 58t-48 22q-23 0 -41.5 -17.5t-29 -44.5t-10.5 -54zM223 604q-21 0 -35.5 14.5t-14.5 34.5t14.5 35t35.5 15q20 0 34.5 -15t14.5 -35t-14.5 -34.5t-34.5 -14.5zM202 -191 q-21 0 -35.5 14.5t-14.5 34.5t14.5 35t35.5 15q20 0 34.5 -15t14.5 -35t-14.5 -34.5t-34.5 -14.5z" />
<glyph unicode="&#x6a3;" horiz-adv-x="495" d="M0 -5l10 82q34 0 70.5 1t70.5 5q-24 22 -47 57t-23 85q0 54 25 97t65 68t85 25q49 0 86 -27t57.5 -68.5t20.5 -86.5q0 -47 -19 -84t-51 -65q40 -3 82 -5t73 -2q21 0 30.5 -11.5t9.5 -27.5t-14 -29.5t-36 -13.5q-61 0 -127 9.5t-116 23.5q-16 -6 -33 -11 q-46 -13 -105 -17.5t-114 -4.5zM163 223q0 -39 24 -68.5t54 -47.5q41 18 69 48t28 72q0 23 -11 47.5t-30 41.5t-44 17q-24 0 -44.5 -16t-33 -41.5t-12.5 -52.5zM247 518q-21 0 -35.5 14.5t-14.5 34.5t14.5 35t35.5 15q20 0 34.5 -15t14.5 -35t-14.5 -34.5t-34.5 -14.5z M243 -191q-21 0 -35.5 14.5t-14.5 34.5t14.5 35t35.5 15q20 0 34.5 -15t14.5 -35t-14.5 -34.5t-34.5 -14.5z" />
<glyph unicode="&#x6a3;" horiz-adv-x="1098" d="M390 -21q-178 0 -269 47t-91 156q0 37 9 78.5t19 78.5l75 -19q-6 -22 -13.5 -55.5t-7.5 -59.5q0 -52 26.5 -83.5t92.5 -46t185 -14.5q110 0 197 6.5t141 15.5q-24 20 -47 54.5t-23 84.5q0 54 24.5 97.5t64.5 69.5t86 26q49 0 86 -27.5t57.5 -70t20.5 -87.5 q0 -47 -19 -83.5t-52 -63.5q41 -3 83 -4.5t73 -1.5q21 0 30.5 -11.5t9.5 -27.5t-14 -29.5t-36 -13.5q-129 0 -242 33q-16 -6 -34 -11q-30 -9 -95.5 -17.5t-153 -14.5t-183.5 -6zM766 220q0 -40 25.5 -67.5t56.5 -44.5q39 18 66 46.5t27 69.5q0 23 -11 48t-30 43t-44 18 q-24 0 -44.5 -17t-33 -43t-12.5 -53zM850 518q-21 0 -35.5 14.5t-14.5 34.5t14.5 35t35.5 15q20 0 34.5 -15t14.5 -35t-14.5 -34.5t-34.5 -14.5zM460 -211q-21 0 -35.5 14.5t-14.5 34.5t14.5 35t35.5 15q20 0 34.5 -15t14.5 -35t-14.5 -34.5t-34.5 -14.5z" />
<glyph unicode="&#x6a5;" horiz-adv-x="447" d="M0 -5l10 82q33 0 75.5 0.5t82.5 4t63 11.5q32 11 51.5 28.5t29.5 45.5q-18 -6 -38.5 -8.5t-40.5 -2.5q-76 0 -117.5 36t-41.5 91q0 38 12 76.5t34 70.5t53 51.5t69 19.5q54 0 89.5 -35t53 -91.5t17.5 -119.5q0 -75 -25.5 -128.5t-84.5 -88.5q-31 -18 -77.5 -27.5 t-101.5 -12.5t-113 -3zM153 303q0 -31 20 -49.5t69 -18.5q43 0 82 12v14q0 42 -11 78t-31 58t-48 22q-23 0 -41.5 -17.5t-29 -44.5t-10.5 -54zM134 -194q-21 0 -35.5 14.5t-14.5 34.5t14.5 35t35.5 15q20 0 34.5 -15t14.5 -35t-14.5 -34.5t-34.5 -14.5zM270 -194 q-21 0 -35.5 14.5t-14.5 34.5t14.5 35t35.5 15q20 0 34.5 -15t14.5 -35t-14.5 -34.5t-34.5 -14.5zM202 -304q-21 0 -35.5 14.5t-14.5 34.5t14.5 35t35.5 15q20 0 34.5 -15t14.5 -35t-14.5 -34.5t-34.5 -14.5z" />
<glyph unicode="&#x6a5;" horiz-adv-x="495" d="M0 -5l10 82q34 0 70.5 1t70.5 5q-24 22 -47 57t-23 85q0 54 25 97t65 68t85 25q49 0 86 -27t57.5 -68.5t20.5 -86.5q0 -47 -19 -84t-51 -65q40 -3 82 -5t73 -2q21 0 30.5 -11.5t9.5 -27.5t-14 -29.5t-36 -13.5q-61 0 -127 9.5t-116 23.5q-16 -6 -33 -11 q-46 -13 -105 -17.5t-114 -4.5zM163 223q0 -39 24 -68.5t54 -47.5q41 18 69 48t28 72q0 23 -11 47.5t-30 41.5t-44 17q-24 0 -44.5 -16t-33 -41.5t-12.5 -52.5zM175 -194q-21 0 -35.5 14.5t-14.5 34.5t14.5 35t35.5 15q20 0 34.5 -15t14.5 -35t-14.5 -34.5t-34.5 -14.5z M311 -194q-21 0 -35.5 14.5t-14.5 34.5t14.5 35t35.5 15q20 0 34.5 -15t14.5 -35t-14.5 -34.5t-34.5 -14.5zM243 -304q-21 0 -35.5 14.5t-14.5 34.5t14.5 35t35.5 15q20 0 34.5 -15t14.5 -35t-14.5 -34.5t-34.5 -14.5z" />
<glyph unicode="&#x6a5;" horiz-adv-x="1098" d="M390 -21q-178 0 -269 47t-91 156q0 37 9 78.5t19 78.5l75 -19q-6 -22 -13.5 -55.5t-7.5 -59.5q0 -52 26.5 -83.5t92.5 -46t185 -14.5q110 0 197 6.5t141 15.5q-24 20 -47 54.5t-23 84.5q0 54 24.5 97.5t64.5 69.5t86 26q49 0 86 -27.5t57.5 -70t20.5 -87.5 q0 -47 -19 -83.5t-52 -63.5q41 -3 83 -4.5t73 -1.5q21 0 30.5 -11.5t9.5 -27.5t-14 -29.5t-36 -13.5q-129 0 -242 33q-16 -6 -34 -11q-30 -9 -95.5 -17.5t-153 -14.5t-183.5 -6zM766 220q0 -40 25.5 -67.5t56.5 -44.5q39 18 66 46.5t27 69.5q0 23 -11 48t-30 43t-44 18 q-24 0 -44.5 -17t-33 -43t-12.5 -53zM392 -214q-21 0 -35.5 14.5t-14.5 34.5t14.5 35t35.5 15q20 0 34.5 -15t14.5 -35t-14.5 -34.5t-34.5 -14.5zM528 -214q-21 0 -35.5 14.5t-14.5 34.5t14.5 35t35.5 15q20 0 34.5 -15t14.5 -35t-14.5 -34.5t-34.5 -14.5zM460 -324 q-21 0 -35.5 14.5t-14.5 34.5t14.5 35t35.5 15q20 0 34.5 -15t14.5 -35t-14.5 -34.5t-34.5 -14.5z" />
<glyph unicode="&#x6a7;" horiz-adv-x="808" d="M326 -272q-79 0 -146.5 24.5t-108.5 76.5t-41 136q0 23 9 73.5t48 121.5l73 -34q-23 -47 -33.5 -81t-10.5 -65q0 -62 31.5 -99t84 -53t116.5 -16q116 0 189.5 41.5t93.5 102.5q6 17 10 39h-72q-45 0 -83 12.5t-61 40.5t-25 73q-1 37 11.5 74t35.5 68t54 49.5t67 18.5 q67 0 114 -61t50 -193h86q21 0 30.5 -11.5t9.5 -27.5t-14 -29.5t-36 -13.5h-85q-5 -23 -13 -48t-19 -48q-32 -62 -86.5 -100t-125.5 -54.5t-153 -16.5zM607 77h43q0 83 -26 128t-64 45q-21 0 -39 -16.5t-29.5 -42.5t-11.5 -55q0 -35 31.5 -47t95.5 -12zM569 434 q-21 0 -35.5 14.5t-14.5 34.5t14.5 35t35.5 15q20 0 34.5 -15t14.5 -35t-14.5 -34.5t-34.5 -14.5z" />
<glyph unicode="&#x6a8;" horiz-adv-x="808" d="M326 -272q-79 0 -146.5 24.5t-108.5 76.5t-41 136q0 23 9 73.5t48 121.5l73 -34q-23 -47 -33.5 -81t-10.5 -65q0 -62 31.5 -99t84 -53t116.5 -16q116 0 189.5 41.5t93.5 102.5q6 17 10 39h-72q-45 0 -83 12.5t-61 40.5t-25 73q-1 37 11.5 74t35.5 68t54 49.5t67 18.5 q67 0 114 -61t50 -193h86q21 0 30.5 -11.5t9.5 -27.5t-14 -29.5t-36 -13.5h-85q-5 -23 -13 -48t-19 -48q-32 -62 -86.5 -100t-125.5 -54.5t-153 -16.5zM607 77h43q0 83 -26 128t-64 45q-21 0 -39 -16.5t-29.5 -42.5t-11.5 -55q0 -35 31.5 -47t95.5 -12zM571 544 q-21 0 -35.5 14.5t-14.5 34.5t14.5 35t35.5 15q20 0 34.5 -15t14.5 -35t-14.5 -34.5t-34.5 -14.5zM503 434q-21 0 -35.5 14.5t-14.5 34.5t14.5 35t35.5 15q20 0 34.5 -15t14.5 -35t-14.5 -34.5t-34.5 -14.5zM639 434q-21 0 -35.5 14.5t-14.5 34.5t14.5 35t35.5 15 q20 0 34.5 -15t14.5 -35t-14.5 -34.5t-34.5 -14.5z" />
<glyph unicode="&#x6aa;" horiz-adv-x="763" d="M0 -5l10 82h281q110 0 187.5 2.5t119 15t41.5 40.5q0 18 -18 36.5t-68.5 33t-148.5 20.5q-107 7 -172 18t-94 33t-29 60q0 41 30 76.5t82.5 65t119.5 53t141 40.5l16 -72q-92 -21 -161.5 -47.5t-108 -53.5t-38.5 -50q0 -14 20.5 -22.5t67.5 -14.5t126 -13q95 -7 155 -21 t94 -33.5t47 -44.5t13 -54q0 -62 -45 -94.5t-138 -44t-239 -11.5h-291z" />
<glyph unicode="&#x6aa;" horiz-adv-x="838" d="M0 -5l10 82h281q110 0 187.5 2.5t119 15t41.5 40.5q0 18 -18 36.5t-68.5 33t-148.5 20.5q-107 7 -172 18t-94 33t-29 60q0 41 30 76.5t82.5 65t119.5 53t141 40.5l16 -72q-92 -21 -161.5 -47.5t-108 -53.5t-38.5 -50q0 -14 20.5 -22.5t67.5 -14.5t126 -13q95 -7 155 -21 t94 -33.5t47 -44.5t13 -54q0 -25 -7 -45v0q35 -14 72.5 -18.5t69.5 -4.5q21 0 30.5 -11.5t9.5 -27.5t-14 -29.5t-36 -13.5t-55 4t-68 13.5t-64 26.5q-49 -26 -138 -35t-222 -9h-291z" />
<glyph unicode="&#x6aa;" horiz-adv-x="1091" d="M546 -15q-48 0 -112.5 1t-134 3t-133.5 6t-111 9l6 80q67 -4 147.5 -8t167 -6.5t170.5 -2.5q164 0 256 12.5t92 55.5q0 18 -18 36.5t-68.5 33t-148.5 20.5q-107 7 -172 18t-94 33t-29 60q0 41 30 76.5t82.5 65t119.5 53t141 40.5l16 -72q-92 -21 -161.5 -47.5t-108 -53.5 t-38.5 -50q0 -14 20.5 -22.5t67.5 -14.5t126 -13q95 -7 155 -21t94 -33.5t47 -44.5t13 -54q0 -25 -7 -46q35 -14 71.5 -18t68.5 -4q21 0 30.5 -11.5t9.5 -27.5t-14 -29.5t-36 -13.5t-54 3.5t-66 13t-63 25.5q-49 -29 -138.5 -40.5t-223.5 -11.5z" />
<glyph unicode="&#x6ab;" horiz-adv-x="412" d="M0 -5l10 82h94q59 0 93.5 6.5t51 17t22 23t5.5 25.5q0 23 -17.5 57t-71.5 88q-37 38 -74 67t-61 49t-24 29q0 23 5.5 43t15.5 31q40 43 125.5 86.5t213.5 107.5l34 -74q-19 -9 -35 -17q16 -12 26 -30.5t10 -40.5q0 -37 -26 -63t-63 -26t-63 26t-26 63v1 q-46 -23 -77.5 -41.5t-58.5 -37.5q117 -95 179.5 -170.5t62.5 -152.5q0 -22 -8 -48t-34 -49t-78 -37.5t-140 -14.5h-91zM334 507q17 0 29 11t12 27q0 17 -12 28.5t-29 11.5t-29 -11.5t-12 -28.5q0 -16 12 -27t29 -11z" />
<glyph unicode="&#x6ab;" horiz-adv-x="508" d="M0 -5l10 82h77q83 0 123 9t52.5 24t12.5 31q0 24 -18 53t-46 59.5t-59.5 60.5t-59.5 55t-46 43.5t-18 26.5q0 23 5.5 43t15.5 31q27 29 79.5 60.5t120.5 65t139 68.5l34 -74l-32 -16q16 -12 26 -30.5t10 -40.5q0 -37 -26 -63t-63 -26t-63 26t-26 63v1q-41 -21 -78 -41.5 t-68 -42.5q55 -47 103 -91t89 -94.5t75 -114.5q21 -39 49 -57t55.5 -23.5t44.5 -5.5q21 0 30.5 -11.5t9.5 -27.5t-14 -29.5t-36 -13.5q-24 0 -55.5 6.5t-63.5 25t-56 54.5q-20 -29 -50 -48t-78 -28.5t-122 -9.5h-83zM337 508q17 0 29 11t12 27q0 17 -12 28.5t-29 11.5 t-29 -11.5t-12 -28.5q0 -16 12 -27t29 -11z" />
<glyph unicode="&#x6ab;" horiz-adv-x="975" d="M390 -21q-178 0 -269 47t-91 156q0 37 9 78.5t19 78.5l75 -19q-6 -22 -13.5 -55.5t-7.5 -59.5q0 -52 26.5 -83.5t92.5 -46t185 -14.5q125 0 196 13t100.5 32t29.5 35q0 24 -18 53t-46 59.5t-59.5 60.5t-59.5 55t-46 43.5t-18 26.5q0 23 5.5 43t15.5 31q27 29 79.5 60.5 t120.5 65t139 68.5l34 -74l-32 -16q16 -12 26 -30.5t10 -40.5q0 -37 -26 -63t-63 -26t-63 26t-26 63v1q-41 -21 -78 -41.5t-68 -42.5q55 -47 103 -91t89 -94.5t75 -114.5q21 -39 49 -57t55.5 -23.5t44.5 -5.5q21 0 30.5 -11.5t9.5 -27.5t-14 -29.5t-36 -13.5q-24 0 -56 6.5 t-63.5 25t-55.5 54.5q-17 -22 -45 -41t-74.5 -32.5t-117.5 -21t-173 -7.5zM804 508q17 0 29 11t12 27q0 17 -12 28.5t-29 11.5t-29 -11.5t-12 -28.5q0 -16 12 -27t29 -11z" />
<glyph unicode="&#x6ac;" horiz-adv-x="412" d="M-10 0v78h386v184q0 145 -184 145h-130v82q47 101 144.5 191t207.5 134l32 -76q-96 -39 -180.5 -110t-120.5 -143h47q128 0 198.5 -53.5t70.5 -154.5v-277h-471zM203 713q-21 0 -35.5 14.5t-14.5 34.5t14.5 35t35.5 15q20 0 34.5 -15t14.5 -35t-14.5 -34.5t-34.5 -14.5z " />
<glyph unicode="&#x6ac;" horiz-adv-x="508" d="M461 174q0 -44 27.5 -70t71.5 -26h16v-78h-3q-84 0 -112 57v-57h-471v78h386v184q0 145 -184 145h-130v82q47 101 144.5 191t207.5 134l32 -76q-96 -39 -180.5 -110t-120.5 -143h47q128 0 198.5 -53.5t70.5 -154.5v-103zM171 713q-21 0 -35.5 14.5t-14.5 34.5t14.5 35 t35.5 15q20 0 34.5 -15t14.5 -35t-14.5 -34.5t-34.5 -14.5z" />
<glyph unicode="&#x6ac;" horiz-adv-x="922" d="M693 0h-441q-85 0 -136 52t-51 142q0 79 25 150h75q-15 -74 -15 -143q0 -53 28 -88t71 -35h359v682h85v-581q0 -40 25 -70.5t74 -30.5h16v-78h-13q-61 0 -102 77v-77zM479 335q-62 0 -193 -24v46l47 7q-35 24 -35 63q0 43 28 66.5t74 23.5q35 0 66 -15l-15 -45 q-27 12 -50 12q-52 0 -52 -51q0 -32 30 -47l18 3q57 8 82 10v-49zM467 631q-21 0 -35.5 14.5t-14.5 34.5t14.5 35t35.5 15q20 0 34.5 -15t14.5 -35t-14.5 -34.5t-34.5 -14.5z" />
<glyph unicode="&#x6ae;" horiz-adv-x="412" d="M-10 0v78h386v184q0 145 -184 145h-130v82q47 101 144.5 191t207.5 134l32 -76q-96 -39 -180.5 -110t-120.5 -143h47q128 0 198.5 -53.5t70.5 -154.5v-277h-471zM95 -189q-21 0 -35.5 14.5t-14.5 34.5t14.5 35t35.5 15q20 0 34.5 -15t14.5 -35t-14.5 -34.5t-34.5 -14.5z M231 -189q-21 0 -35.5 14.5t-14.5 34.5t14.5 35t35.5 15q20 0 34.5 -15t14.5 -35t-14.5 -34.5t-34.5 -14.5zM163 -299q-21 0 -35.5 14.5t-14.5 34.5t14.5 35t35.5 15q20 0 34.5 -15t14.5 -35t-14.5 -34.5t-34.5 -14.5z" />
<glyph unicode="&#x6ae;" horiz-adv-x="508" d="M461 174q0 -44 27.5 -70t71.5 -26h16v-78h-3q-84 0 -112 57v-57h-471v78h386v184q0 145 -184 145h-130v82q47 101 144.5 191t207.5 134l32 -76q-96 -39 -180.5 -110t-120.5 -143h47q128 0 198.5 -53.5t70.5 -154.5v-103zM95 -189q-21 0 -35.5 14.5t-14.5 34.5t14.5 35 t35.5 15q20 0 34.5 -15t14.5 -35t-14.5 -34.5t-34.5 -14.5zM231 -189q-21 0 -35.5 14.5t-14.5 34.5t14.5 35t35.5 15q20 0 34.5 -15t14.5 -35t-14.5 -34.5t-34.5 -14.5zM163 -299q-21 0 -35.5 14.5t-14.5 34.5t14.5 35t35.5 15q20 0 34.5 -15t14.5 -35t-14.5 -34.5 t-34.5 -14.5z" />
<glyph unicode="&#x6ae;" horiz-adv-x="922" d="M693 0h-441q-85 0 -136 52t-51 142q0 79 25 150h75q-15 -74 -15 -143q0 -53 28 -88t71 -35h359v682h85v-581q0 -40 25 -70.5t74 -30.5h16v-78h-13q-61 0 -102 77v-77zM479 335q-62 0 -193 -24v46l47 7q-35 24 -35 63q0 43 28 66.5t74 23.5q35 0 66 -15l-15 -45 q-27 12 -50 12q-52 0 -52 -51q0 -32 30 -47l18 3q57 8 82 10v-49zM342 -210q-21 0 -35.5 14.5t-14.5 34.5t14.5 35t35.5 15q20 0 34.5 -15t14.5 -35t-14.5 -34.5t-34.5 -14.5zM478 -210q-21 0 -35.5 14.5t-14.5 34.5t14.5 35t35.5 15q20 0 34.5 -15t14.5 -35t-14.5 -34.5 t-34.5 -14.5zM410 -320q-21 0 -35.5 14.5t-14.5 34.5t14.5 35t35.5 15q20 0 34.5 -15t14.5 -35t-14.5 -34.5t-34.5 -14.5z" />
<glyph unicode="&#x6b0;" horiz-adv-x="412" d="M-1 550l-37 56q58 35 152.5 91.5t223.5 123.5l28 -61q-130 -69 -218 -120.5t-149 -89.5zM0 -5l10 82h94q59 0 93.5 6.5t51 17t22 23t5.5 25.5q0 23 -17.5 57t-71.5 88q-37 38 -74 67t-61 49t-24 29q0 23 5.5 43t15.5 31q40 43 125.5 86.5t213.5 107.5l34 -74 q-17 -8 -31 -15q16 -12 26 -30.5t10 -40.5q0 -37 -26 -63t-63 -26t-63 26t-26 63v1q-48 -24 -80 -42.5t-60 -38.5q117 -95 179.5 -170.5t62.5 -152.5q0 -22 -8 -48t-34 -49t-78 -37.5t-140 -14.5h-91zM338 509q17 0 29 11t12 27q0 17 -12 28.5t-29 11.5t-29 -11.5t-12 -28.5 q0 -16 12 -27t29 -11z" />
<glyph unicode="&#x6b0;" horiz-adv-x="508" d="M-1 550l-37 56q58 35 152.5 91.5t223.5 123.5l28 -61q-130 -69 -218 -120.5t-149 -89.5zM0 -5l10 82h77q83 0 123 9t52.5 24t12.5 31q0 24 -18 53t-46 59.5t-59.5 60.5t-59.5 55t-46 43.5t-18 26.5q0 23 5.5 43t15.5 31q27 29 79.5 60.5t120.5 65t139 68.5l34 -74 q-8 -4 -16.5 -8.5t-17.5 -8.5q16 -12 26 -30.5t10 -40.5q0 -37 -26 -63t-63 -26t-63 26t-26 63v1q-40 -20 -76.5 -41t-67.5 -42q55 -47 103 -91t89 -94.5t75 -114.5q21 -39 49 -57t55.5 -23.5t44.5 -5.5q21 0 30.5 -11.5t9.5 -27.5t-14 -29.5t-36 -13.5q-24 0 -55.5 6.5 t-63.5 25t-56 54.5q-20 -29 -50 -48t-78 -28.5t-122 -9.5h-83zM335 507q17 0 29 11t12 27q0 17 -12 28.5t-29 11.5t-29 -11.5t-12 -28.5q0 -16 12 -27t29 -11z" />
<glyph unicode="&#x6b0;" horiz-adv-x="975" d="M462 550l-37 56q58 35 152.5 91.5t223.5 123.5l28 -61q-130 -69 -218 -120.5t-149 -89.5zM390 -21q-178 0 -269 47t-91 156q0 37 9 78.5t19 78.5l75 -19q-6 -22 -13.5 -55.5t-7.5 -59.5q0 -52 26.5 -83.5t92.5 -46t185 -14.5q125 0 196 13t100.5 32t29.5 35q0 24 -18 53 t-46 59.5t-59.5 60.5t-59.5 55t-46 43.5t-18 26.5q0 23 5.5 43t15.5 31q27 29 79.5 60.5t120.5 65t139 68.5l34 -74l-26 -13q16 -12 26 -30.5t10 -40.5q0 -37 -26 -63t-63 -26t-63 26t-26 63v1q-42 -21 -81 -43t-71 -44q55 -47 103 -91t89 -94.5t75 -114.5q21 -39 49 -57 t55.5 -23.5t44.5 -5.5q21 0 30.5 -11.5t9.5 -27.5t-14 -29.5t-36 -13.5q-24 0 -56 6.5t-63.5 25t-55.5 54.5q-17 -22 -45 -41t-74.5 -32.5t-117.5 -21t-173 -7.5zM810 511q17 0 29 11t12 27q0 17 -12 28.5t-29 11.5t-29 -11.5t-12 -28.5q0 -16 12 -27t29 -11z" />
<glyph unicode="&#x6b2;" horiz-adv-x="412" d="M15 627q31 72 126.5 159.5t196.5 131.5l29 -67q-93 -36 -189.5 -119.5t-135.5 -163.5zM-10 0v78h366v184q0 145 -184 145h-130v82q47 101 144.5 191t207.5 134l32 -76q-96 -39 -180.5 -110t-120.5 -143h47q128 0 198.5 -53.5t70.5 -154.5v-277h-451zM235 -189 q-21 0 -35.5 14.5t-14.5 34.5t14.5 35t35.5 15q20 0 34.5 -15t14.5 -35t-14.5 -34.5t-34.5 -14.5zM98 -189q-21 0 -35.5 14.5t-14.5 34.5t14.5 35t35.5 15q20 0 34.5 -15t14.5 -35t-14.5 -34.5t-34.5 -14.5z" />
<glyph unicode="&#x6b2;" horiz-adv-x="508" d="M15 627q31 72 126.5 159.5t196.5 131.5l29 -67q-93 -36 -189.5 -119.5t-135.5 -163.5zM-10 0v78h366v184q0 145 -184 145h-130v82q47 101 144.5 191t207.5 134l32 -76q-96 -39 -180.5 -110t-120.5 -143h47q128 0 198.5 -53.5t70.5 -154.5v-103q0 -44 27.5 -70t71.5 -26 h16v-78h-3q-83 0 -112 57v-57h-451zM235 -189q-21 0 -35.5 14.5t-14.5 34.5t14.5 35t35.5 15q20 0 34.5 -15t14.5 -35t-14.5 -34.5t-34.5 -14.5zM98 -189q-21 0 -35.5 14.5t-14.5 34.5t14.5 35t35.5 15q20 0 34.5 -15t14.5 -35t-14.5 -34.5t-34.5 -14.5z" />
<glyph unicode="&#x6b2;" horiz-adv-x="975" d="M267 627q31 72 126.5 159.5t196.5 131.5l29 -67q-94 -36 -190.5 -120.5t-134.5 -162.5zM424 485q129 0 199 -53.5t70 -154.5v-108q0 -41 27 -66t72 -25h16v-78h-3q-83 0 -112 57v-57h-441q-90 0 -138.5 46.5t-48.5 132.5q0 53 20 135h80q-15 -83 -15 -125 q0 -52 26.5 -81.5t72.5 -29.5h359v184q0 145 -184 145h-130v82q47 101 144.5 191t207.5 134l32 -76q-98 -40 -181.5 -110.5t-119.5 -142.5h47zM482 -210q-21 0 -35.5 14.5t-14.5 34.5t14.5 35t35.5 15q20 0 34.5 -15t14.5 -35t-14.5 -34.5t-34.5 -14.5zM345 -210 q-21 0 -35.5 14.5t-14.5 34.5t14.5 35t35.5 15q20 0 34.5 -15t14.5 -35t-14.5 -34.5t-34.5 -14.5z" />
<glyph unicode="&#x6b4;" horiz-adv-x="412" d="M82 872q-21 0 -35.5 14.5t-14.5 34.5t14.5 35t35.5 15q20 0 34.5 -15t14.5 -35t-14.5 -34.5t-34.5 -14.5zM187 798q-21 0 -35.5 14.5t-14.5 34.5t14.5 35t35.5 15q20 0 34.5 -15t14.5 -35t-14.5 -34.5t-34.5 -14.5zM72 747q-21 0 -35.5 14.5t-14.5 34.5t14.5 35t35.5 15 q20 0 34.5 -15t14.5 -35t-14.5 -34.5t-34.5 -14.5zM-1 550l-37 56q58 35 152.5 91.5t223.5 123.5l28 -61q-130 -69 -218 -120.5t-149 -89.5zM0 -5l10 82h94q59 0 93.5 6.5t51 17t22 23t5.5 25.5q0 23 -17.5 57t-71.5 88q-37 38 -74 67t-61 49t-24 29q0 23 5.5 43t15.5 31 q40 43 125.5 86.5t213.5 107.5l34 -74q-91 -44 -148.5 -72.5t-95 -50t-69.5 -43.5q117 -95 179.5 -170.5t62.5 -152.5q0 -22 -8 -48t-34 -49t-78 -37.5t-140 -14.5h-91z" />
<glyph unicode="&#x6b4;" horiz-adv-x="508" d="M77 872q-21 0 -35.5 14.5t-14.5 34.5t14.5 35t35.5 15q20 0 34.5 -15t14.5 -35t-14.5 -34.5t-34.5 -14.5zM182 798q-21 0 -35.5 14.5t-14.5 34.5t14.5 35t35.5 15q20 0 34.5 -15t14.5 -35t-14.5 -34.5t-34.5 -14.5zM67 747q-21 0 -35.5 14.5t-14.5 34.5t14.5 35t35.5 15 q20 0 34.5 -15t14.5 -35t-14.5 -34.5t-34.5 -14.5zM-1 550l-37 56q58 35 152.5 91.5t223.5 123.5l28 -61q-130 -69 -218 -120.5t-149 -89.5zM0 -5l10 82h77q83 0 123 9t52.5 24t12.5 31q0 24 -18 53t-46 59.5t-59.5 60.5t-59.5 55t-46 43.5t-18 26.5q0 23 5.5 43t15.5 31 q27 29 79.5 60.5t120.5 65t139 68.5l34 -74q-88 -44 -172.5 -85t-147.5 -85q55 -47 103 -91t89 -94.5t75 -114.5q21 -39 49 -57t55.5 -23.5t44.5 -5.5q21 0 30.5 -11.5t9.5 -27.5t-14 -29.5t-36 -13.5q-24 0 -55.5 6.5t-63.5 25t-56 54.5q-20 -29 -50 -48t-78 -28.5 t-122 -9.5h-83z" />
<glyph unicode="&#x6b4;" horiz-adv-x="975" d="M534 874q-21 0 -35.5 14.5t-14.5 34.5t14.5 35t35.5 15q20 0 34.5 -15t14.5 -35t-14.5 -34.5t-34.5 -14.5zM639 800q-21 0 -35.5 14.5t-14.5 34.5t14.5 35t35.5 15q20 0 34.5 -15t14.5 -35t-14.5 -34.5t-34.5 -14.5zM524 749q-21 0 -35.5 14.5t-14.5 34.5t14.5 35 t35.5 15q20 0 34.5 -15t14.5 -35t-14.5 -34.5t-34.5 -14.5zM462 550l-37 56q58 35 152.5 91.5t223.5 123.5l28 -61q-130 -69 -218 -120.5t-149 -89.5zM390 -21q-178 0 -269 47t-91 156q0 37 9 78.5t19 78.5l75 -19q-6 -22 -13.5 -55.5t-7.5 -59.5q0 -52 26.5 -83.5t92.5 -46 t185 -14.5q125 0 196 13t100.5 32t29.5 35q0 24 -18 53t-46 59.5t-59.5 60.5t-59.5 55t-46 43.5t-18 26.5q0 23 5.5 43t15.5 31q27 29 79.5 60.5t120.5 65t139 68.5l34 -74q-88 -44 -172.5 -85t-147.5 -85q55 -47 103 -91t89 -94.5t75 -114.5q21 -39 49 -57t55.5 -23.5 t44.5 -5.5q21 0 30.5 -11.5t9.5 -27.5t-14 -29.5t-36 -13.5q-24 0 -56 6.5t-63.5 25t-55.5 54.5q-17 -22 -45 -41t-74.5 -32.5t-117.5 -21t-173 -7.5z" />
<glyph unicode="&#x6b5;" horiz-adv-x="260" d="M-10 78h137v682h89v-760h-226v78zM102 848q-9 20 -25 53.5t-32.5 67t-29.5 54.5l46 25q7 -12 20 -36.5t27.5 -52t24.5 -49.5q11 26 24 55.5t24 53t16 31.5l45 -19q-5 -10 -16 -32.5t-23.5 -50t-24 -53t-17.5 -41.5z" />
<glyph unicode="&#x6b5;" horiz-adv-x="300" d="M-10 78h137v682h89v-586q0 -44 27 -70t72 -26h36v-78h-23q-83 0 -112 57v-57h-226v78zM116 848q-9 20 -25 53.5t-32.5 67t-29.5 54.5l46 25q7 -12 20 -36.5t27.5 -52t24.5 -49.5q11 26 24 55.5t24 53t16 31.5l45 -19q-5 -10 -16 -32.5t-23.5 -50t-24 -53t-17.5 -41.5z " />
<glyph unicode="&#x6b5;" horiz-adv-x="730" d="M587 174q0 -44 27.5 -70t71.5 -26h16v-78h-3q-83 0 -112 57v-53q0 -244 -249 -244h-72q-91 0 -146 64.5t-55 176.5q0 121 41 221h83q-34 -89 -34 -215q0 -81 33.5 -125t96.5 -44h49q168 0 168 159v763h85v-586zM279 591q-9 20 -25 53.5t-32.5 67t-29.5 54.5l46 25 q7 -12 20 -36.5t27.5 -52t24.5 -49.5q11 26 24 55.5t24 53t16 31.5l45 -19q-5 -10 -16 -32.5t-23.5 -50t-24 -53t-17.5 -41.5z" />
<glyph unicode="&#x6b6;" horiz-adv-x="260" d="M-10 78h137v682h89v-760h-226v78zM131 817q-21 0 -35.5 14.5t-14.5 34.5t14.5 35t35.5 15q20 0 34.5 -15t14.5 -35t-14.5 -34.5t-34.5 -14.5z" />
<glyph unicode="&#x6b6;" horiz-adv-x="300" d="M-10 78h137v682h89v-586q0 -44 27 -70t72 -26h36v-78h-23q-83 0 -112 57v-57h-226v78zM145 817q-21 0 -35.5 14.5t-14.5 34.5t14.5 35t35.5 15q20 0 34.5 -15t14.5 -35t-14.5 -34.5t-34.5 -14.5z" />
<glyph unicode="&#x6b6;" horiz-adv-x="730" d="M587 174q0 -44 27.5 -70t71.5 -26h16v-78h-3q-83 0 -112 57v-53q0 -244 -249 -244h-72q-91 0 -146 64.5t-55 176.5q0 121 41 221h83q-34 -89 -34 -215q0 -81 33.5 -125t96.5 -44h49q168 0 168 159v763h85v-586zM308 560q-21 0 -35.5 14.5t-14.5 34.5t14.5 35t35.5 15 q20 0 34.5 -15t14.5 -35t-14.5 -34.5t-34.5 -14.5z" />
<glyph unicode="&#x6b7;" horiz-adv-x="260" d="M-10 78h137v682h89v-760h-226v78zM133 927q-21 0 -35.5 14.5t-14.5 34.5t14.5 35t35.5 15q20 0 34.5 -15t14.5 -35t-14.5 -34.5t-34.5 -14.5zM65 817q-21 0 -35.5 14.5t-14.5 34.5t14.5 35t35.5 15q20 0 34.5 -15t14.5 -35t-14.5 -34.5t-34.5 -14.5zM201 817 q-21 0 -35.5 14.5t-14.5 34.5t14.5 35t35.5 15q20 0 34.5 -15t14.5 -35t-14.5 -34.5t-34.5 -14.5z" />
<glyph unicode="&#x6b7;" horiz-adv-x="300" d="M-10 78h137v682h89v-586q0 -44 27 -70t72 -26h36v-78h-23q-83 0 -112 57v-57h-226v78zM147 927q-21 0 -35.5 14.5t-14.5 34.5t14.5 35t35.5 15q20 0 34.5 -15t14.5 -35t-14.5 -34.5t-34.5 -14.5zM79 817q-21 0 -35.5 14.5t-14.5 34.5t14.5 35t35.5 15q20 0 34.5 -15 t14.5 -35t-14.5 -34.5t-34.5 -14.5zM215 817q-21 0 -35.5 14.5t-14.5 34.5t14.5 35t35.5 15q20 0 34.5 -15t14.5 -35t-14.5 -34.5t-34.5 -14.5z" />
<glyph unicode="&#x6b7;" horiz-adv-x="730" d="M587 174q0 -44 27.5 -70t71.5 -26h16v-78h-3q-83 0 -112 57v-53q0 -244 -249 -244h-72q-91 0 -146 64.5t-55 176.5q0 121 41 221h83q-34 -89 -34 -215q0 -81 33.5 -125t96.5 -44h49q168 0 168 159v763h85v-586zM310 670q-21 0 -35.5 14.5t-14.5 34.5t14.5 35t35.5 15 q20 0 34.5 -15t14.5 -35t-14.5 -34.5t-34.5 -14.5zM242 560q-21 0 -35.5 14.5t-14.5 34.5t14.5 35t35.5 15q20 0 34.5 -15t14.5 -35t-14.5 -34.5t-34.5 -14.5zM378 560q-21 0 -35.5 14.5t-14.5 34.5t14.5 35t35.5 15q20 0 34.5 -15t14.5 -35t-14.5 -34.5t-34.5 -14.5z" />
<glyph unicode="&#x6b8;" horiz-adv-x="260" d="M-10 78h137v682h89v-760h-226v78zM62 -189q-21 0 -35.5 14.5t-14.5 34.5t14.5 35t35.5 15q20 0 34.5 -15t14.5 -35t-14.5 -34.5t-34.5 -14.5zM198 -189q-21 0 -35.5 14.5t-14.5 34.5t14.5 35t35.5 15q20 0 34.5 -15t14.5 -35t-14.5 -34.5t-34.5 -14.5zM130 -299 q-21 0 -35.5 14.5t-14.5 34.5t14.5 35t35.5 15q20 0 34.5 -15t14.5 -35t-14.5 -34.5t-34.5 -14.5z" />
<glyph unicode="&#x6b8;" horiz-adv-x="300" d="M-10 78h137v682h89v-586q0 -44 27 -70t72 -26h36v-78h-23q-83 0 -112 57v-57h-226v78zM87 -189q-21 0 -35.5 14.5t-14.5 34.5t14.5 35t35.5 15q20 0 34.5 -15t14.5 -35t-14.5 -34.5t-34.5 -14.5zM223 -189q-21 0 -35.5 14.5t-14.5 34.5t14.5 35t35.5 15q20 0 34.5 -15 t14.5 -35t-14.5 -34.5t-34.5 -14.5zM155 -299q-21 0 -35.5 14.5t-14.5 34.5t14.5 35t35.5 15q20 0 34.5 -15t14.5 -35t-14.5 -34.5t-34.5 -14.5z" />
<glyph unicode="&#x6b8;" horiz-adv-x="730" d="M587 174q0 -44 27.5 -70t71.5 -26h16v-78h-3q-83 0 -112 57v-53q0 -244 -249 -244h-72q-91 0 -146 64.5t-55 176.5q0 121 41 221h83q-34 -89 -34 -215q0 -81 33.5 -125t96.5 -44h49q168 0 168 159v763h85v-586zM230 -421q-21 0 -35.5 14.5t-14.5 34.5t14.5 35t35.5 15 q20 0 34.5 -15t14.5 -35t-14.5 -34.5t-34.5 -14.5zM366 -421q-21 0 -35.5 14.5t-14.5 34.5t14.5 35t35.5 15q20 0 34.5 -15t14.5 -35t-14.5 -34.5t-34.5 -14.5zM298 -531q-21 0 -35.5 14.5t-14.5 34.5t14.5 35t35.5 15q20 0 34.5 -15t14.5 -35t-14.5 -34.5t-34.5 -14.5z" />
<glyph unicode="&#x6b9;" horiz-adv-x="269" d="M-10 78h137v407h89v-485h-226v78zM171 689q52 0 52 -56t-52 -56t-52 56t52 56zM107 -191q-21 0 -35.5 14.5t-14.5 34.5t14.5 35t35.5 15q20 0 34.5 -15t14.5 -35t-14.5 -34.5t-34.5 -14.5z" />
<glyph unicode="&#x6b9;" horiz-adv-x="343" d="M-10 78h137v407h89v-311q0 -44 27 -70t72 -26h36v-78h-23q-83 0 -112 57v-57h-226v78zM171 689q52 0 52 -56t-52 -56t-52 56t52 56zM170 -191q-21 0 -35.5 14.5t-14.5 34.5t14.5 35t35.5 15q20 0 34.5 -15t14.5 -35t-14.5 -34.5t-34.5 -14.5z" />
<glyph unicode="&#x6b9;" horiz-adv-x="730" d="M587 174q0 -44 27.5 -70t71.5 -26h16v-78h-3q-83 0 -112 57v-53q0 -244 -249 -244h-72q-91 0 -146 64.5t-55 176.5q0 121 41 221h83q-34 -89 -34 -215q0 -81 33.5 -125t96.5 -44h49q168 0 168 160v487h85v-311zM324 578q52 0 52 -56t-52 -56t-52 56t52 56zM313 -418 q-21 0 -35.5 14.5t-14.5 34.5t14.5 35t35.5 15q20 0 34.5 -15t14.5 -35t-14.5 -34.5t-34.5 -14.5z" />
<glyph unicode="&#x6bc;" horiz-adv-x="299" d="M148 507q-21 0 -35.5 14.5t-14.5 34.5t14.5 35t35.5 15q20 0 34.5 -15t14.5 -35t-14.5 -34.5t-34.5 -14.5zM0 -5l10 82q59 0 92 4.5t47 23t14 58.5q0 38 -17.5 95.5t-39.5 114.5l81 30q13 -32 24.5 -73t19.5 -81t8 -70q0 -86 -40 -128q19 -12 30.5 -32t11.5 -44 q0 -37 -26 -63t-63 -26t-63 26t-26 63q0 12 3 23q-30 -3 -66 -3zM152 -63q17 0 29 11t12 27q0 17 -12 28.5t-29 11.5t-29 -11.5t-12 -28.5q0 -16 12 -27t29 -11z" />
<glyph unicode="&#x6bc;" horiz-adv-x="373" d="M197 386q-21 0 -35.5 14.5t-14.5 34.5t14.5 35t35.5 15q20 0 34.5 -15t14.5 -35t-14.5 -34.5t-34.5 -14.5zM0 -5l10 82q50 0 78 7.5t42.5 29t23.5 62.5t22 107l78 -15q-6 -27 -13.5 -62t-7.5 -59q0 -15 2 -28t15 -22t44 -14.5t89 -5.5q21 0 30.5 -11.5t9.5 -27.5 t-14 -29.5t-36 -13.5q-65 0 -101.5 7.5t-54 22t-25.5 36.5q-7 -11 -16 -20q18 -12 29 -31.5t11 -42.5q0 -37 -26 -63t-63 -26t-63 26t-26 63q0 15 5 29q-19 -1 -43 -1zM127 -71q17 0 29 11t12 27q0 17 -12 28.5t-29 11.5t-29 -11.5t-12 -28.5q0 -16 12 -27t29 -11z" />
<glyph unicode="&#x6bc;" horiz-adv-x="730" d="M332 398q-21 0 -35.5 14.5t-14.5 34.5t14.5 35t35.5 15q20 0 34.5 -15t14.5 -35t-14.5 -34.5t-34.5 -14.5zM30 -1q0 36 10 80t32 97l72 -28q-16 -42 -24 -77t-8 -65q0 -55 27.5 -89.5t74 -50.5t102.5 -16q91 0 142.5 25.5t73 65.5t21.5 85q0 66 -14.5 121.5t-31.5 114.5 l81 22q16 -57 22.5 -82.5t10.5 -41.5q11 -37 29 -54.5t41.5 -23t48.5 -5.5q21 0 30.5 -11.5t9.5 -27.5t-14 -29.5t-36 -13.5q-31 0 -54.5 8.5t-39.5 21.5q-6 -59 -31.5 -114t-81 -92.5t-151.5 -47.5q22 -11 36 -32.5t14 -47.5q0 -37 -26 -63t-63 -26t-63 26t-26 63 q0 25 12.5 45.5t32.5 32.5q-70 3 -129 29.5t-94.5 76.5t-35.5 124zM333 -347q17 0 29 11t12 27q0 17 -12 28.5t-29 11.5t-29 -11.5t-12 -28.5q0 -16 12 -27t29 -11z" />
<glyph unicode="&#x6bd;" horiz-adv-x="730" d="M587 174q0 -44 27.5 -70t71.5 -26h16v-78h-3q-83 0 -112 57v-53q0 -244 -249 -244h-72q-91 0 -146 64.5t-55 176.5q0 121 41 221h83q-34 -89 -34 -215q0 -81 33.5 -125t96.5 -44h49q168 0 168 160v487h85v-311zM334 508q-21 0 -35.5 14.5t-14.5 34.5t14.5 35t35.5 15 q20 0 34.5 -15t14.5 -35t-14.5 -34.5t-34.5 -14.5zM266 398q-21 0 -35.5 14.5t-14.5 34.5t14.5 35t35.5 15q20 0 34.5 -15t14.5 -35t-14.5 -34.5t-34.5 -14.5zM402 398q-21 0 -35.5 14.5t-14.5 34.5t14.5 35t35.5 15q20 0 34.5 -15t14.5 -35t-14.5 -34.5t-34.5 -14.5z" />
<glyph unicode="&#x6bf;" horiz-adv-x="589" d="M424 78q-39 42 -63 183q-15 88 -42.5 122t-83.5 34q-67 0 -145 -40l-35 69q77 49 181 49q86 0 135.5 -46t68.5 -165q25 -163 75 -208v-76h-525v78h434zM178 -74q47 0 47 -50t-47 -50t-47 50t47 50zM333 -74q47 0 47 -50t-47 -50t-47 50t47 50zM256 -170q47 0 47 -50 t-47 -50t-47 50t47 50zM167 455q-21 0 -35.5 14.5t-14.5 34.5t14.5 35t35.5 15q20 0 34.5 -15t14.5 -35t-14.5 -34.5t-34.5 -14.5z" />
<glyph unicode="&#x6bf;" horiz-adv-x="637" d="M424 78q-39 42 -63 183q-15 88 -42.5 122t-83.5 34q-67 0 -145 -40l-35 69q77 49 181 49q86 0 135.5 -46t68.5 -165q23 -157 72 -206h72v-78h-594v78h434zM211 -74q47 0 47 -50t-47 -50t-47 50t47 50zM366 -74q47 0 47 -50t-47 -50t-47 50t47 50zM289 -170q47 0 47 -50 t-47 -50t-47 50t47 50zM157 455q-21 0 -35.5 14.5t-14.5 34.5t14.5 35t35.5 15q20 0 34.5 -15t14.5 -35t-14.5 -34.5t-34.5 -14.5z" />
<glyph unicode="&#x6bf;" horiz-adv-x="719" d="M248 0q-111 0 -111 -99q0 -47 26.5 -75.5t70.5 -28.5q53 0 110 18l22 -67q-60 -29 -137 -29q-88 0 -136 49.5t-48 136.5q0 173 202 173h192q-39 42 -63 183q-15 88 -42.5 122t-83.5 34q-67 0 -145 -40l-35 69q77 49 181 49q86 0 136 -46t68 -165q23 -158 72 -206h112v-78 h-391zM412 -54q47 0 47 -50t-47 -50t-47 50t47 50zM567 -54q47 0 47 -50t-47 -50t-47 50t47 50zM490 -150q47 0 47 -50t-47 -50t-47 50t47 50zM312 519q-21 0 -35.5 14.5t-14.5 34.5t14.5 35t35.5 15q20 0 34.5 -15t14.5 -35t-14.5 -34.5t-34.5 -14.5z" />
<glyph unicode="&#x6c2;" horiz-adv-x="269" d="M-10 78h137v407h89v-485h-44q-49 -61 -49 -92q0 -33 35 -33h68v-78h-87q-42 0 -68.5 25.5t-26.5 62.5q0 52 52 115h-106v78zM72 809q-17 0 -90 -9t-103 -15v46l47 7q-35 23 -35 63q0 42 27.5 66t74.5 24q36 0 66 -15l-15 -45q-23 12 -50 12q-52 0 -52 -51q0 -31 30 -47 l18 3q46 7 82 10v-49z" />
<glyph unicode="&#x6c2;" horiz-adv-x="438" d="M-10 78h179q34 -125 71.5 -164t114.5 -39v203h227v-78h-138v-203h-94q-103 0 -157 45.5t-88 157.5h-115v78zM121 538q-17 0 -90 -9t-103 -15v46l47 7q-35 23 -35 63q0 42 27.5 66t74.5 24q36 0 66 -15l-15 -45q-23 12 -50 12q-52 0 -52 -51q0 -31 30 -47l18 3q46 7 82 10 v-49z" />
<glyph unicode="&#x6c2;" horiz-adv-x="479" d="M559 78h137v-78h-226v403q-81 -29 -159.5 -115.5t-179.5 -287.5h-107l84 149q34 61 77 118.5t89 101t93 71.5t98 45h95zM160 685q-17 0 -90 -9t-103 -15v46l47 7q-35 23 -35 63q0 42 27.5 66t74.5 24q36 0 66 -15l-15 -45q-23 12 -50 12q-52 0 -52 -51q0 -31 30 -47l18 3 q46 7 82 10v-49z" />
<glyph unicode="&#x6c3;" horiz-adv-x="479" d="M559 78h137v-78h-226v403q-81 -29 -159.5 -115.5t-179.5 -287.5h-107l84 149q34 61 77 118.5t89 101t93 71.5t98 45h95zM266 433q-21 0 -35.5 14.5t-14.5 34.5t14.5 35t35.5 15q20 0 34.5 -15t14.5 -35t-14.5 -34.5t-34.5 -14.5zM129 433q-21 0 -35.5 14.5t-14.5 34.5 t14.5 35t35.5 15q20 0 34.5 -15t14.5 -35t-14.5 -34.5t-34.5 -14.5z" />
<glyph unicode="&#x6c4;" horiz-adv-x="472" d="M482 77q21 0 30.5 -11.5t9.5 -27.5t-14 -29.5t-36 -13.5h-81q-13 -83 -57.5 -132.5t-112.5 -72t-151 -22.5h-12t-12 1l-6 79q10 0 19 1q-12 21 -12 45q0 37 26 63t63 26t63 -26t26 -63q0 -8 -1 -15q32 16 53 44t30 72h-74q-45 0 -83.5 13t-62 40.5t-23.5 72.5q0 38 13 75 t35.5 67.5t53 49t66.5 18.5q67 0 114 -61t50 -193h86zM271 77h43q0 83 -26 128t-64 45q-21 0 -39 -16t-29.5 -42t-11.5 -55q0 -35 31.5 -47.5t95.5 -12.5zM136 -144q17 0 29 11t12 27q0 17 -12 28.5t-29 11.5t-29 -11.5t-12 -28.5q0 -16 12 -27t29 -11z" />
<glyph unicode="&#x6ca;" horiz-adv-x="472" d="M466 78h87v-78h-87v-24q0 -102 -60.5 -159t-170.5 -57q-100 0 -180 51l40 67q78 -40 142 -40q67 0 106 36t39 97v29h-98q-106 0 -164.5 59t-58.5 169q0 119 75 188t199 69h131v-407zM338 407q-90 0 -139 -47.5t-49 -130.5q0 -151 137 -151h94v329h-43zM303 434 q-21 0 -35.5 14.5t-14.5 34.5t14.5 35t35.5 15q20 0 34.5 -15t14.5 -35t-14.5 -34.5t-34.5 -14.5zM166 434q-21 0 -35.5 14.5t-14.5 34.5t14.5 35t35.5 15q20 0 34.5 -15t14.5 -35t-14.5 -34.5t-34.5 -14.5z" />
<glyph unicode="&#x6cd;" horiz-adv-x="850" d="M440 -269q-79 0 -146.5 23.5t-108.5 75t-41 135.5q0 14 3 39.5t14 60.5l-151 -54l9 82l182 64l68 -31q-23 -47 -33.5 -81t-10.5 -65q0 -62 32.5 -99t86.5 -53t118 -16q77 0 140.5 21t101.5 59t38 88q0 26 -40 45t-112 39l19 83q104 -40 162 -55t89 -15q21 0 30.5 -11.5 t9.5 -27.5t-14 -29.5t-36 -13.5h-37q2 -9 3 -14.5t1 -14.5q0 -64 -45 -117.5t-129.5 -85.5t-202.5 -32z" />
<glyph unicode="&#x6ce;" horiz-adv-x="299" d="M119 538q-9 20 -25 53.5t-32.5 67t-29.5 54.5l46 25q7 -12 20 -36.5t27.5 -52t24.5 -49.5q11 26 24 55.5t24 53t16 31.5l45 -19q-5 -10 -16 -32.5t-23.5 -50t-24 -53t-17.5 -41.5zM0 -5l10 82q59 0 92 4.5t47 23t14 58.5q0 38 -17.5 95.5t-39.5 114.5l81 30 q13 -32 24.5 -73t19.5 -81t8 -70q0 -100 -56 -142t-183 -42zM185 -194q-21 0 -35.5 14.5t-14.5 34.5t14.5 35t35.5 15q20 0 34.5 -15t14.5 -35t-14.5 -34.5t-34.5 -14.5zM48 -194q-21 0 -35.5 14.5t-14.5 34.5t14.5 35t35.5 15q20 0 34.5 -15t14.5 -35t-14.5 -34.5 t-34.5 -14.5z" />
<glyph unicode="&#x6ce;" horiz-adv-x="373" d="M168 417q-9 20 -25 53.5t-32.5 67t-29.5 54.5l46 25q7 -12 20 -36.5t27.5 -52t24.5 -49.5q11 26 24 55.5t24 53t16 31.5l45 -19q-5 -10 -16 -32.5t-23.5 -50t-24 -53t-17.5 -41.5zM0 -5l10 82q50 0 78 7.5t42.5 29t23.5 62.5t22 107l78 -15q-6 -27 -13.5 -62t-7.5 -59 q0 -15 2 -28t15 -22t44 -14.5t89 -5.5q21 0 30.5 -11.5t9.5 -27.5t-14 -29.5t-36 -13.5q-65 0 -101.5 7.5t-54 22t-25.5 36.5q-29 -41 -71.5 -53.5t-120.5 -12.5zM252 -194q-21 0 -35.5 14.5t-14.5 34.5t14.5 35t35.5 15q20 0 34.5 -15t14.5 -35t-14.5 -34.5t-34.5 -14.5z M115 -194q-21 0 -35.5 14.5t-14.5 34.5t14.5 35t35.5 15q20 0 34.5 -15t14.5 -35t-14.5 -34.5t-34.5 -14.5z" />
<glyph unicode="&#x6ce;" horiz-adv-x="736" d="M635 44q0 -99 -70 -154t-194 -55h-119q-85 0 -136 52t-51 142q0 79 25 150h80q-15 -73 -15 -143q0 -54 26 -88.5t68 -34.5h122q175 0 175 132v158q0 282 261 282h121v-407h125v-78h-214v407h-26q-178 0 -178 -207v-156zM188 284q-9 20 -25 53.5t-32.5 67t-29.5 54.5 l46 25q7 -12 20 -36.5t27.5 -52t24.5 -49.5q11 26 24 55.5t24 53t16 31.5l45 -19q-5 -10 -16 -32.5t-23.5 -50t-24 -53t-17.5 -41.5z" />
<glyph unicode="&#x6cf;" horiz-adv-x="472" d="M466 78h87v-78h-87v-24q0 -102 -60.5 -159t-170.5 -57q-100 0 -180 51l40 67q78 -40 142 -40q67 0 106 36t39 97v29h-98q-106 0 -164.5 59t-58.5 169q0 119 75 188t199 69h131v-407zM338 407q-90 0 -139 -47.5t-49 -130.5q0 -151 137 -151h94v329h-43zM233 434 q-21 0 -35.5 14.5t-14.5 34.5t14.5 35t35.5 15q20 0 34.5 -15t14.5 -35t-14.5 -34.5t-34.5 -14.5z" />
<glyph unicode="&#x6d1;" horiz-adv-x="736" d="M635 44q0 -99 -70 -154t-194 -55h-119q-85 0 -136 52t-51 142q0 79 25 150h80q-15 -73 -15 -143q0 -54 26 -88.5t68 -34.5h122q175 0 175 132v158q0 282 261 282h121v-407h125v-78h-214v407h-26q-178 0 -178 -207v-156zM258 -421q-21 0 -35.5 14.5t-14.5 34.5t14.5 35 t35.5 15q20 0 34.5 -15t14.5 -35t-14.5 -34.5t-34.5 -14.5zM394 -421q-21 0 -35.5 14.5t-14.5 34.5t14.5 35t35.5 15q20 0 34.5 -15t14.5 -35t-14.5 -34.5t-34.5 -14.5zM326 -531q-21 0 -35.5 14.5t-14.5 34.5t14.5 35t35.5 15q20 0 34.5 -15t14.5 -35t-14.5 -34.5 t-34.5 -14.5z" />
<glyph unicode="&#x6ee;" horiz-adv-x="532" d="M25 78h333q-51 287 -212 362l32 76q174 -69 245 -340q9 -37 44 -67.5t76 -30.5h16v-78h-13q-64 0 -102 56v-56h-419v78zM186 779l59 6q9 -20 25 -53.5t33 -67t29 -54.5l-46 -25q-7 12 -20 36.5t-27.5 52t-24.5 49.5q-11 -26 -24 -55.5t-24 -53t-16 -31.5l-45 19 q5 10 16 32.5t24 50t24 53t17 41.5z" />
<glyph unicode="&#x6ef;" horiz-adv-x="396" d="M248 -24q0 -101 -46.5 -158.5t-131.5 -57.5q-77 0 -136 48l40 61q42 -31 94 -31q44 0 70 36.5t26 96.5v514h84v-311q0 -44 27.5 -70t71.5 -26h16v-78h-3q-84 0 -112 57v-81zM128 673l59 6q9 -20 25 -53.5t33 -67t29 -54.5l-46 -25q-7 12 -20 36.5t-27.5 52t-24.5 49.5 q-11 -26 -24 -55.5t-24 -53t-16 -31.5l-45 19q5 10 16 32.5t24 50t24 53t17 41.5z" />
<glyph unicode="&#x6fa;" horiz-adv-x="784" d="M-10 0v78h148v329h85v-218q0 -49 30.5 -80t78.5 -31h62v329h85v-218q0 -49 30.5 -80t78.5 -31h62v407h85v-485h-144q-84 0 -112 57v-57h-144q-84 0 -112 57v-57h-233zM431 545q-21 0 -35.5 14.5t-14.5 34.5t14.5 35t35.5 15q20 0 34.5 -15t14.5 -35t-14.5 -34.5 t-34.5 -14.5zM363 435q-21 0 -35.5 14.5t-14.5 34.5t14.5 35t35.5 15q20 0 34.5 -15t14.5 -35t-14.5 -34.5t-34.5 -14.5zM499 435q-21 0 -35.5 14.5t-14.5 34.5t14.5 35t35.5 15q20 0 34.5 -15t14.5 -35t-14.5 -34.5t-34.5 -14.5zM386 -191q-21 0 -35.5 14.5t-14.5 34.5 t14.5 35t35.5 15q20 0 34.5 -15t14.5 -35t-14.5 -34.5t-34.5 -14.5z" />
<glyph unicode="&#x6fa;" horiz-adv-x="850" d="M-10 0v78h148v329h85v-218q0 -49 30.5 -80t78.5 -31h62v329h85v-218q0 -49 30.5 -80t78.5 -31h62v407h85v-311q0 -44 27.5 -70t71.5 -26h16v-78h-3q-83 0 -112 57v-57h-144q-84 0 -112 57v-57h-144q-84 0 -112 57v-57h-233zM431 545q-21 0 -35.5 14.5t-14.5 34.5t14.5 35 t35.5 15q20 0 34.5 -15t14.5 -35t-14.5 -34.5t-34.5 -14.5zM363 435q-21 0 -35.5 14.5t-14.5 34.5t14.5 35t35.5 15q20 0 34.5 -15t14.5 -35t-14.5 -34.5t-34.5 -14.5zM499 435q-21 0 -35.5 14.5t-14.5 34.5t14.5 35t35.5 15q20 0 34.5 -15t14.5 -35t-14.5 -34.5 t-34.5 -14.5zM386 -191q-21 0 -35.5 14.5t-14.5 34.5t14.5 35t35.5 15q20 0 34.5 -15t14.5 -35t-14.5 -34.5t-34.5 -14.5z" />
<glyph unicode="&#x6fa;" horiz-adv-x="1269" d="M266 -240q-91 0 -146 68t-55 188q0 134 41 236h83q-34 -91 -34 -236q0 -85 34 -131.5t96 -46.5h49q168 0 168 159v410h85v-218q0 -49 30.5 -80t78.5 -31h62v329h85v-218q0 -49 30.5 -80t78.5 -31h62v407h85v-306q0 -46 27 -73.5t72 -27.5h16v-78h-3q-84 0 -112 57v-57 h-144q-83 0 -112 57v-57h-144q-83 0 -112 57v-53q0 -244 -249 -244h-72zM824 545q-21 0 -35.5 14.5t-14.5 34.5t14.5 35t35.5 15q20 0 34.5 -15t14.5 -35t-14.5 -34.5t-34.5 -14.5zM756 435q-21 0 -35.5 14.5t-14.5 34.5t14.5 35t35.5 15q20 0 34.5 -15t14.5 -35 t-14.5 -34.5t-34.5 -14.5zM892 435q-21 0 -35.5 14.5t-14.5 34.5t14.5 35t35.5 15q20 0 34.5 -15t14.5 -35t-14.5 -34.5t-34.5 -14.5zM848 -186q-21 0 -35.5 14.5t-14.5 34.5t14.5 35t35.5 15q20 0 34.5 -15t14.5 -35t-14.5 -34.5t-34.5 -14.5z" />
<glyph unicode="&#x6fb;" horiz-adv-x="903" d="M202 0h-212v78h127v377h85v-185q96 225 277 225q229 0 229 -254v-241h-404q-62 0 -102 77v-77zM204 164q13 -86 97 -86h322v159q0 179 -162 179q-153 0 -257 -252zM405 689q52 0 52 -56t-52 -56t-52 56t52 56zM484 -204q-21 0 -35.5 14.5t-14.5 34.5t14.5 35t35.5 15 q20 0 34.5 -15t14.5 -35t-14.5 -34.5t-34.5 -14.5z" />
<glyph unicode="&#x6fb;" horiz-adv-x="949" d="M202 0h-212v78h127v377h85v-185q96 225 277 225q229 0 229 -254v-72q0 -41 27 -66t72 -25h16v-78h-3q-84 0 -112 57v-57h-404q-62 0 -102 77v-77zM204 164q13 -86 97 -86h322v159q0 179 -162 179q-153 0 -257 -252zM405 689q52 0 52 -56t-52 -56t-52 56t52 56zM484 -204 q-21 0 -35.5 14.5t-14.5 34.5t14.5 35t35.5 15q20 0 34.5 -15t14.5 -35t-14.5 -34.5t-34.5 -14.5z" />
<glyph unicode="&#x6fb;" horiz-adv-x="1352" d="M266 -240q-91 0 -146 68t-55 188q0 134 41 236h83q-34 -91 -34 -236q0 -85 34 -131.5t96 -46.5h49q168 0 168 159v488h85v-215q96 225 277 225q229 0 229 -254v-72q0 -41 27 -66t72 -25h16v-78h-3q-83 0 -112 57v-57h-404q-61 0 -102 77v-73q0 -244 -249 -244h-72z M589 164q14 -86 97 -86h322v159q0 179 -162 179q-153 0 -257 -252zM786 689q52 0 52 -56t-52 -56t-52 56t52 56zM904 -199q-21 0 -35.5 14.5t-14.5 34.5t14.5 35t35.5 15q20 0 34.5 -15t14.5 -35t-14.5 -34.5t-34.5 -14.5z" />
<glyph unicode="&#x6fc;" horiz-adv-x="503" d="M-10 0v78h159q-71 63 -71 178q0 114 65 176.5t173 62.5q80 0 139 -29l-27 -75q-62 26 -117 26q-142 0 -142 -165q0 -77 34 -125.5t89 -48.5h178v-78h-480zM292 689q52 0 52 -56t-52 -56t-52 56t52 56zM279 -191q-21 0 -35.5 14.5t-14.5 34.5t14.5 35t35.5 15 q20 0 34.5 -15t14.5 -35t-14.5 -34.5t-34.5 -14.5z" />
<glyph unicode="&#x6fc;" horiz-adv-x="521" d="M604 0h-122q-92 0 -185 50q-85 -50 -186 -50h-121v78h120q71 0 119 20q-62 44 -112 125.5t-62 163.5q45 61 120 95.5t153 34.5q142 0 219 -63q0 -104 -48 -201t-132 -154q58 -21 111 -21h126v-78zM151 361q30 -128 147 -218q147 99 157 269q-39 27 -124 27 q-49 0 -101.5 -23t-78.5 -55zM306 719q52 0 52 -56t-52 -56t-52 56t52 56zM251 -191q-21 0 -35.5 14.5t-14.5 34.5t14.5 35t35.5 15q20 0 34.5 -15t14.5 -35t-14.5 -34.5t-34.5 -14.5z" />
<glyph unicode="&#x6fc;" horiz-adv-x="531" d="M173 67q-85 65 -85 190q0 116 66 177t172 61q80 0 139 -29l-27 -75q-62 26 -117 26q-142 0 -142 -165q0 -76 34.5 -125t89.5 -49h230v-78h-290q-112 0 -112 -99q0 -47 28 -75.5t76 -28.5q62 0 124 23l22 -67q-74 -34 -147 -34q-89 0 -141.5 50t-52.5 131q0 130 133 167z M303 -188q-21 0 -35.5 14.5t-14.5 34.5t14.5 35t35.5 15q20 0 34.5 -15t14.5 -35t-14.5 -34.5t-34.5 -14.5zM295 514q-21 0 -35.5 14.5t-14.5 34.5t14.5 35t35.5 15q20 0 34.5 -15t14.5 -35t-14.5 -34.5t-34.5 -14.5z" />
<glyph unicode="&#x6ff;" horiz-adv-x="574" d="M711 0h-721v78h160q-70 47 -70 143q0 102 72 158t202 56h121v-357h151v236q0 133 -61.5 199t-193.5 66q-97 0 -185 -29l-23 77q92 31 208 31q163 0 251.5 -88.5t88.5 -247.5v-322zM350 357q-181 0 -181 -139q0 -63 38.5 -101.5t100.5 -38.5h82v279h-40zM203 779l59 6 q9 -20 25 -53.5t33 -67t29 -54.5l-46 -25q-7 12 -20 36.5t-27.5 52t-24.5 49.5q-11 -26 -24 -55.5t-24 -53t-16 -31.5l-45 19q5 10 16 32.5t24 50t24 53t17 41.5z" />
<glyph unicode="&#x6ff;" horiz-adv-x="507" d="M186 550l-23 77q92 31 208 31q163 0 251.5 -88.5t88.5 -247.5v-244h119v-78h-840v78h160q-70 47 -70 143q0 102 72 158t202 56h121v-357h151v236q0 133 -61.5 199t-193.5 66q-97 0 -185 -29zM350 357q-181 0 -181 -139q0 -63 38.5 -101.5t100.5 -38.5h82v279h-40z M247 738l59 6q9 -20 25 -53.5t33 -67t29 -54.5l-46 -25q-7 12 -20 36.5t-27.5 52t-24.5 49.5q-11 -26 -24 -55.5t-24 -53t-16 -31.5l-45 19q5 10 16 32.5t24 50t24 53t17 41.5z" />
<glyph unicode="&#x6ff;" horiz-adv-x="614" d="M186 550l-23 77q92 31 208 31q163 0 251.5 -88.5t88.5 -247.5v-244h119v-78h-789v78h109q-70 47 -70 143q0 102 72 158t202 56h121v-357h151v236q0 133 -61.5 199t-193.5 66q-97 0 -185 -29zM350 357q-181 0 -181 -139q0 -63 38.5 -101.5t100.5 -38.5h82v279h-40z M365 738l59 6q9 -20 25 -53.5t33 -67t29 -54.5l-46 -25q-7 12 -20 36.5t-27.5 52t-24.5 49.5q-11 -26 -24 -55.5t-24 -53t-16 -31.5l-45 19q5 10 16 32.5t24 50t24 53t17 41.5z" />
<glyph unicode="&#x671;" horiz-adv-x="300" arabic-form="final" d="M0 856h46q35 102 112 102q40 0 63 -27t23 -75v-46h-244v46zM193 856q0 55 -35 55q-39 0 -57 -55h92zM174 78h137v-78h-226v760h89v-682z" />
<glyph unicode="&#x67b;" horiz-adv-x="777" arabic-form="isolated" d="M608 78v407h85v-485h-441q-85 0 -136 52t-51 142q0 79 25 150h80q-15 -74 -15 -143q0 -54 25.5 -88.5t68.5 -34.5h359zM398 -54q47 0 47 -50t-47 -50t-47 50t47 50zM398 -180q47 0 47 -50t-47 -50t-47 50t47 50z" />
<glyph unicode="&#x67b;" horiz-adv-x="797" arabic-form="final" d="M252 0q-85 0 -136 52t-51 142q0 79 25 150h80q-15 -74 -15 -143q0 -54 25.5 -88.5t68.5 -34.5h359v407h85v-311q0 -44 27.5 -70t71.5 -26h16v-78h-3q-83 0 -112 57v-57h-441zM398 -54q47 0 47 -50t-47 -50t-47 50t47 50zM398 -180q47 0 47 -50t-47 -50t-47 50t47 50z" />
<glyph unicode="&#x67b;" horiz-adv-x="300" arabic-form="initial" d="M-10 78h137v407h89v-485h-226v78zM148 -54q47 0 47 -50t-47 -50t-47 50t47 50zM148 -180q47 0 47 -50t-47 -50t-47 50t47 50z" />
<glyph unicode="&#x67b;" horiz-adv-x="340" arabic-form="medial" d="M-10 78h137v407h89v-311q0 -44 27 -70t72 -26h36v-78h-23q-83 0 -112 57v-57h-226v78zM148 -54q47 0 47 -50t-47 -50t-47 50t47 50zM148 -180q47 0 47 -50t-47 -50t-47 50t47 50z" />
<glyph unicode="&#x67e;" horiz-adv-x="797" arabic-form="final" d="M252 0q-85 0 -136 52t-51 142q0 79 25 150h80q-15 -74 -15 -143q0 -54 25.5 -88.5t68.5 -34.5h359v407h85v-311q0 -44 27.5 -70t71.5 -26h16v-78h-3q-83 0 -112 57v-57h-441zM331 -74q47 0 47 -50t-47 -50t-47 50t47 50zM486 -74q47 0 47 -50t-47 -50t-47 50t47 50z M409 -170q47 0 47 -50t-47 -50t-47 50t47 50z" />
<glyph unicode="&#x67e;" horiz-adv-x="300" arabic-form="initial" d="M-10 78h137v407h89v-485h-226v78zM86 -74q47 0 47 -50t-47 -50t-47 50t47 50zM241 -74q47 0 47 -50t-47 -50t-47 50t47 50zM164 -170q47 0 47 -50t-47 -50t-47 50t47 50z" />
<glyph unicode="&#x67e;" horiz-adv-x="340" arabic-form="medial" d="M-10 78h137v407h89v-311q0 -44 27 -70t72 -26h36v-78h-23q-83 0 -112 57v-57h-226v78zM86 -74q47 0 47 -50t-47 -50t-47 50t47 50zM241 -74q47 0 47 -50t-47 -50t-47 50t47 50zM164 -170q47 0 47 -50t-47 -50t-47 50t47 50z" />
<glyph unicode="&#x680;" horiz-adv-x="993" arabic-form="isolated" d="M390 -21q-178 0 -269 47t-91 156q0 37 9 78.5t19 78.5l75 -19q-6 -22 -13.5 -55.5t-7.5 -59.5q0 -52 26.5 -83.5t92.5 -46t185 -14.5q233 0 340.5 25.5t107.5 94.5q0 38 -14 88t-36 107l77 27q19 -49 35.5 -105t16.5 -101q0 -59 -27 -100.5t-90 -67.5t-169.5 -38 t-266.5 -12zM558 -212q-21 0 -35.5 14.5t-14.5 34.5t14.5 35t35.5 15q20 0 34.5 -15t14.5 -35t-14.5 -34.5t-34.5 -14.5zM422 -212q-21 0 -35.5 14.5t-14.5 34.5t14.5 35t35.5 15q20 0 34.5 -15t14.5 -35t-14.5 -34.5t-34.5 -14.5zM558 -337q-21 0 -35.5 14.5t-14.5 34.5 t14.5 35t35.5 15q20 0 34.5 -15t14.5 -35t-14.5 -34.5t-34.5 -14.5zM422 -337q-21 0 -35.5 14.5t-14.5 34.5t14.5 35t35.5 15q20 0 34.5 -15t14.5 -35t-14.5 -34.5t-34.5 -14.5z" />
<glyph unicode="&#x680;" horiz-adv-x="1093" arabic-form="final" d="M390 -21q-178 0 -269 47t-91 156q0 37 9 78.5t19 78.5l75 -19q-6 -22 -13.5 -55.5t-7.5 -59.5q0 -52 26.5 -83.5t92.5 -46t185 -14.5q61 0 129 7.5t135.5 27t128.5 53.5t107 86l63 -37q-9 -23 -12 -36.5t-3 -24.5q0 -15 11 -28.5t41.5 -22.5t86.5 -9q21 0 30.5 -11.5 t9.5 -27.5t-14 -29.5t-36 -13.5q-88 0 -144.5 26t-57.5 85q-83 -64 -215 -95.5t-286 -31.5zM535 -212q-21 0 -35.5 14.5t-14.5 34.5t14.5 35t35.5 15q20 0 34.5 -15t14.5 -35t-14.5 -34.5t-34.5 -14.5zM399 -212q-21 0 -35.5 14.5t-14.5 34.5t14.5 35t35.5 15q20 0 34.5 -15 t14.5 -35t-14.5 -34.5t-34.5 -14.5zM535 -337q-21 0 -35.5 14.5t-14.5 34.5t14.5 35t35.5 15q20 0 34.5 -15t14.5 -35t-14.5 -34.5t-34.5 -14.5zM399 -337q-21 0 -35.5 14.5t-14.5 34.5t14.5 35t35.5 15q20 0 34.5 -15t14.5 -35t-14.5 -34.5t-34.5 -14.5z" />
<glyph unicode="&#x680;" horiz-adv-x="299" arabic-form="initial" d="M0 -5l10 82q59 0 92 4.5t47 23t14 58.5q0 38 -17.5 95.5t-39.5 114.5l81 30q13 -32 24.5 -73t19.5 -81t8 -70q0 -100 -56 -142t-183 -42zM185 -192q-21 0 -35.5 14.5t-14.5 34.5t14.5 35t35.5 15q20 0 34.5 -15t14.5 -35t-14.5 -34.5t-34.5 -14.5zM49 -192 q-21 0 -35.5 14.5t-14.5 34.5t14.5 35t35.5 15q20 0 34.5 -15t14.5 -35t-14.5 -34.5t-34.5 -14.5zM185 -317q-21 0 -35.5 14.5t-14.5 34.5t14.5 35t35.5 15q20 0 34.5 -15t14.5 -35t-14.5 -34.5t-34.5 -14.5zM49 -317q-21 0 -35.5 14.5t-14.5 34.5t14.5 35t35.5 15 q20 0 34.5 -15t14.5 -35t-14.5 -34.5t-34.5 -14.5z" />
<glyph unicode="&#x680;" horiz-adv-x="373" arabic-form="medial" d="M0 -5l10 82q50 0 78 7.5t42.5 29t23.5 62.5t22 107l78 -15q-6 -27 -13.5 -62t-7.5 -59q0 -15 2 -28t15 -22t44 -14.5t89 -5.5q21 0 30.5 -11.5t9.5 -27.5t-14 -29.5t-36 -13.5q-65 0 -101.5 7.5t-54 22t-25.5 36.5q-29 -41 -71.5 -53.5t-120.5 -12.5zM252 -192 q-21 0 -35.5 14.5t-14.5 34.5t14.5 35t35.5 15q20 0 34.5 -15t14.5 -35t-14.5 -34.5t-34.5 -14.5zM116 -192q-21 0 -35.5 14.5t-14.5 34.5t14.5 35t35.5 15q20 0 34.5 -15t14.5 -35t-14.5 -34.5t-34.5 -14.5zM252 -317q-21 0 -35.5 14.5t-14.5 34.5t14.5 35t35.5 15 q20 0 34.5 -15t14.5 -35t-14.5 -34.5t-34.5 -14.5zM116 -317q-21 0 -35.5 14.5t-14.5 34.5t14.5 35t35.5 15q20 0 34.5 -15t14.5 -35t-14.5 -34.5t-34.5 -14.5z" />
<glyph unicode="&#x67a;" horiz-adv-x="777" arabic-form="isolated" d="M608 78v407h85v-485h-441q-85 0 -136 52t-51 142q0 79 25 150h80q-15 -74 -15 -143q0 -54 25.5 -88.5t68.5 -34.5h359zM390 710q47 0 47 -50t-47 -50t-47 50t47 50zM390 584q47 0 47 -50t-47 -50t-47 50t47 50z" />
<glyph unicode="&#x67a;" horiz-adv-x="797" arabic-form="final" d="M252 0q-85 0 -136 52t-51 142q0 79 25 150h80q-15 -74 -15 -143q0 -54 25.5 -88.5t68.5 -34.5h359v407h85v-311q0 -44 27.5 -70t71.5 -26h16v-78h-3q-83 0 -112 57v-57h-441zM390 710q47 0 47 -50t-47 -50t-47 50t47 50zM390 584q47 0 47 -50t-47 -50t-47 50t47 50z" />
<glyph unicode="&#x67a;" horiz-adv-x="300" arabic-form="initial" d="M-10 78h137v407h89v-485h-226v78zM170 803q47 0 47 -50t-47 -50t-47 50t47 50zM170 677q47 0 47 -50t-47 -50t-47 50t47 50z" />
<glyph unicode="&#x67a;" horiz-adv-x="340" arabic-form="medial" d="M-10 78h137v407h89v-311q0 -44 27 -70t72 -26h36v-78h-23q-83 0 -112 57v-57h-226v78zM170 803q47 0 47 -50t-47 -50t-47 50t47 50zM170 677q47 0 47 -50t-47 -50t-47 50t47 50z" />
<glyph unicode="&#x67f;" horiz-adv-x="993" arabic-form="isolated" d="M390 -21q-178 0 -269 47t-91 156q0 37 9 78.5t19 78.5l75 -19q-6 -22 -13.5 -55.5t-7.5 -59.5q0 -52 26.5 -83.5t92.5 -46t185 -14.5q233 0 340.5 25.5t107.5 94.5q0 38 -14 88t-36 107l77 27q19 -49 35.5 -105t16.5 -101q0 -59 -27 -100.5t-90 -67.5t-169.5 -38 t-266.5 -12zM421 526q-21 0 -35.5 14.5t-14.5 34.5t14.5 35t35.5 15q20 0 34.5 -15t14.5 -35t-14.5 -34.5t-34.5 -14.5zM557 526q-21 0 -35.5 14.5t-14.5 34.5t14.5 35t35.5 15q20 0 34.5 -15t14.5 -35t-14.5 -34.5t-34.5 -14.5zM421 401q-21 0 -35.5 14.5t-14.5 34.5 t14.5 35t35.5 15q20 0 34.5 -15t14.5 -35t-14.5 -34.5t-34.5 -14.5zM557 401q-21 0 -35.5 14.5t-14.5 34.5t14.5 35t35.5 15q20 0 34.5 -15t14.5 -35t-14.5 -34.5t-34.5 -14.5z" />
<glyph unicode="&#x67f;" horiz-adv-x="1093" arabic-form="final" d="M390 -21q-178 0 -269 47t-91 156q0 37 9 78.5t19 78.5l75 -19q-6 -22 -13.5 -55.5t-7.5 -59.5q0 -52 26.5 -83.5t92.5 -46t185 -14.5q61 0 129 7.5t135.5 27t128.5 53.5t107 86l63 -37q-9 -23 -12 -36.5t-3 -24.5q0 -15 11 -28.5t41.5 -22.5t86.5 -9q21 0 30.5 -11.5 t9.5 -27.5t-14 -29.5t-36 -13.5q-88 0 -144.5 26t-57.5 85q-83 -64 -215 -95.5t-286 -31.5zM422 526q-21 0 -35.5 14.5t-14.5 34.5t14.5 35t35.5 15q20 0 34.5 -15t14.5 -35t-14.5 -34.5t-34.5 -14.5zM558 526q-21 0 -35.5 14.5t-14.5 34.5t14.5 35t35.5 15q20 0 34.5 -15 t14.5 -35t-14.5 -34.5t-34.5 -14.5zM422 401q-21 0 -35.5 14.5t-14.5 34.5t14.5 35t35.5 15q20 0 34.5 -15t14.5 -35t-14.5 -34.5t-34.5 -14.5zM558 401q-21 0 -35.5 14.5t-14.5 34.5t14.5 35t35.5 15q20 0 34.5 -15t14.5 -35t-14.5 -34.5t-34.5 -14.5z" />
<glyph unicode="&#x67f;" horiz-adv-x="299" arabic-form="initial" d="M82 632q-21 0 -35.5 14.5t-14.5 34.5t14.5 35t35.5 15q20 0 34.5 -15t14.5 -35t-14.5 -34.5t-34.5 -14.5zM218 632q-21 0 -35.5 14.5t-14.5 34.5t14.5 35t35.5 15q20 0 34.5 -15t14.5 -35t-14.5 -34.5t-34.5 -14.5zM82 507q-21 0 -35.5 14.5t-14.5 34.5t14.5 35t35.5 15 q20 0 34.5 -15t14.5 -35t-14.5 -34.5t-34.5 -14.5zM218 507q-21 0 -35.5 14.5t-14.5 34.5t14.5 35t35.5 15q20 0 34.5 -15t14.5 -35t-14.5 -34.5t-34.5 -14.5zM0 -5l10 82q59 0 92 4.5t47 23t14 58.5q0 38 -17.5 95.5t-39.5 114.5l81 30q13 -32 24.5 -73t19.5 -81t8 -70 q0 -100 -56 -142t-183 -42z" />
<glyph unicode="&#x67f;" horiz-adv-x="373" arabic-form="medial" d="M131 511q-21 0 -35.5 14.5t-14.5 34.5t14.5 35t35.5 15q20 0 34.5 -15t14.5 -35t-14.5 -34.5t-34.5 -14.5zM267 511q-21 0 -35.5 14.5t-14.5 34.5t14.5 35t35.5 15q20 0 34.5 -15t14.5 -35t-14.5 -34.5t-34.5 -14.5zM131 386q-21 0 -35.5 14.5t-14.5 34.5t14.5 35 t35.5 15q20 0 34.5 -15t14.5 -35t-14.5 -34.5t-34.5 -14.5zM267 386q-21 0 -35.5 14.5t-14.5 34.5t14.5 35t35.5 15q20 0 34.5 -15t14.5 -35t-14.5 -34.5t-34.5 -14.5zM0 -5l10 82q50 0 78 7.5t42.5 29t23.5 62.5t22 107l78 -15q-6 -27 -13.5 -62t-7.5 -59q0 -15 2 -28 t15 -22t44 -14.5t89 -5.5q21 0 30.5 -11.5t9.5 -27.5t-14 -29.5t-36 -13.5q-65 0 -101.5 7.5t-54 22t-25.5 36.5q-29 -41 -71.5 -53.5t-120.5 -12.5z" />
<glyph unicode="&#x679;" horiz-adv-x="777" arabic-form="isolated" d="M608 78v407h85v-485h-441q-85 0 -136 52t-51 142q0 79 25 150h80q-15 -74 -15 -143q0 -54 25.5 -88.5t68.5 -34.5h359zM340 485h-55v43h15v182h40v-127q26 65 78 65q74 0 74 -87v-76h-121q-17 0 -31 28v-28zM341 539q8 -11 29 -11h82v25q0 52 -39 52q-47 0 -72 -66z" />
<glyph unicode="&#x679;" horiz-adv-x="797" arabic-form="final" d="M252 0q-85 0 -136 52t-51 142q0 79 25 150h80q-15 -74 -15 -143q0 -54 25.5 -88.5t68.5 -34.5h359v407h85v-311q0 -44 27.5 -70t71.5 -26h16v-78h-3q-83 0 -112 57v-57h-441zM340 485h-55v43h15v182h40v-127q26 65 78 65q74 0 74 -87v-76h-121q-17 0 -31 28v-28zM341 539 q8 -11 29 -11h82v25q0 52 -39 52q-47 0 -72 -66z" />
<glyph unicode="&#x679;" horiz-adv-x="300" arabic-form="initial" d="M-10 78h137v407h89v-485h-226v78zM104 577h-55v43h15v182h40v-127q26 65 78 65q74 0 74 -87v-76h-121q-17 0 -31 28v-28zM105 631q8 -11 29 -11h82v25q0 52 -39 52q-47 0 -72 -66z" />
<glyph unicode="&#x679;" horiz-adv-x="340" arabic-form="medial" d="M-10 78h137v407h89v-311q0 -44 27 -70t72 -26h36v-78h-23q-83 0 -112 57v-57h-226v78zM104 577h-55v43h15v182h40v-127q26 65 78 65q74 0 74 -87v-76h-121q-17 0 -31 28v-28zM105 631q8 -11 29 -11h82v25q0 52 -39 52q-47 0 -72 -66z" />
<glyph unicode="&#x6a4;" horiz-adv-x="1032" arabic-form="final" d="M252 0q-85 0 -136 52t-51 142q0 79 25 150h80q-15 -74 -15 -143q0 -54 25.5 -88.5t68.5 -34.5h325q-52 57 -52 151q0 117 73.5 186.5t200.5 69.5h131v-407h115v-78h-790zM799 407q-89 0 -138.5 -47t-49.5 -130q0 -152 137 -152h94v329h-43zM735 773q47 0 47 -50t-47 -50 t-47 50t47 50zM657 677q47 0 47 -50t-47 -50t-47 50t47 50zM812 677q47 0 47 -50t-47 -50t-47 50t47 50z" />
</font>
</defs>
</svg>
