<?xml version="1.0" standalone="no"?>
<!DOCTYPE svg PUBLIC "-//W3C//DTD SVG 1.1//EN" "http://www.w3.org/Graphics/SVG/1.1/DTD/svg11.dtd" >
<svg xmlns="http://www.w3.org/2000/svg" xmlns:xlink="http://www.w3.org/1999/xlink" version="1.1">
<metadata></metadata>
<defs>
<font id="droidarabickufiregular" horiz-adv-x="0" >
<font-face units-per-em="1000" ascent="800" descent="-200" />
<missing-glyph horiz-adv-x="339" />
<glyph unicode="&#x627;&#xfedf;&#xfee0;&#xfeea;" horiz-adv-x="1568" arabic-form="isolated" d="M729 1055h57v-165h-57v165zM917 771q0 -97 -88 -97q-44 0 -68 30q-24 -50 -81 -50q-39 0 -60.5 25t-21.5 72v63h52v-54q0 -27 8 -41t32 -14q44 0 44 46v88h47v-68q0 -26 9 -36t32.5 -10t33 12.5t9.5 42.5v74h52v-83zM1380 760h89v-760h-89v760zM405 78v329h-63 q-90 0 -139 -46t-49 -125t42.5 -118.5t120.5 -39.5h88zM319 0q-120 0 -187 61t-67 174.5t74 181.5t200 68h66v63h85v-470h236v532h89v-532h252v532h89v-610h-837z" />
<glyph unicode="&#x631;&#xfef3;&#xfe8e;&#x644;" horiz-adv-x="1604" arabic-form="isolated" d="M1120.5 -200q-24.5 0 -41 14t-16.5 46t16.5 46t41 14t39.5 -15.5t15 -44.5t-15 -44.5t-39.5 -15.5zM946.5 -200q-26.5 0 -41.5 15.5t-15 44t14.5 44.5t41.5 16t41.5 -16.5t14.5 -43.5t-14.5 -43.5t-41 -16.5zM1341 -240q-47 0 -102 28l26 67q37 -17 77.5 -17t66.5 36 t26 97v514h84v-509q0 -101 -46 -158.5t-132 -57.5zM764 760h89v-682h260v407h89v-485h-438v760zM65 23.5q0 127.5 41 228.5h83q-34 -86 -34 -236q0 -85 34 -131.5t96 -46.5h49q87 0 127.5 39.5t40.5 119.5v763h85v-756q0 -121 -60 -182.5t-189 -61.5h-72q-93 0 -147 68 t-54 195.5z" />
<glyph unicode="&#xfedf;&#xfe82;" horiz-adv-x="673" arabic-form="isolated" d="M45 78h224l-129 547h93l129 -547h27q106 0 106 116v566h89v-578q0 -83 -50.5 -132.5t-134.5 -49.5h-354v78zM248.5 759q16.5 0 26.5 10.5t17 34.5h45q-12 -103 -92 -102q-26 0 -56 15t-46 22t-33 7t-26.5 -10.5t-16.5 -35.5h-45q12 103 92 103q26 0 57 -15t46 -22 t31.5 -7z" />
<glyph unicode="&#xfee0;&#xfe82;" horiz-adv-x="708" arabic-form="final" d="M45 78h224l-129 547h93l129 -547h133v682h89v-682h130q5 0 5 -4v-69q0 -5 -5 -5h-669v78zM248.5 759q16.5 0 26.5 10.5t17 34.5h45q-12 -103 -92 -102q-26 0 -56 15t-46 22t-33 7t-26.5 -10.5t-16.5 -35.5h-45q12 103 92 103q26 0 57 -15t46 -22t31.5 -7z" />
<glyph unicode="&#xfedf;&#xfe84;" horiz-adv-x="673" arabic-form="isolated" d="M45 78h224l-129 547h93l129 -547h27q106 0 106 116v566h89v-578q0 -83 -50.5 -132.5t-134.5 -49.5h-354v78zM81 827q0 42 28 65.5t70.5 23.5t69.5 -16l-15 -45q-20 12 -46 13q-56 0 -56 -52q0 -33 30 -46q10 2 48 7t52 5v-49q-22 0 -137 -15l-56 -9v46l47 7 q-35 23 -35 65z" />
<glyph unicode="&#xfee0;&#xfe84;" horiz-adv-x="708" arabic-form="final" d="M45 78h224l-129 547h93l129 -547h133v682h89v-682h130q5 0 5 -4v-69q0 -5 -5 -5h-669v78zM81 827q0 42 28 65.5t70.5 23.5t69.5 -16l-15 -45q-20 12 -46 13q-56 0 -56 -52q0 -33 30 -46q10 2 48 7t52 5v-49q-22 0 -137 -15l-56 -9v46l47 7q-35 23 -35 65z" />
<glyph unicode="&#xfedf;&#xfe88;" horiz-adv-x="673" arabic-form="isolated" d="M45 78h224l-129 547h93l129 -547h27q106 0 106 116v566h89v-578q0 -83 -50.5 -132.5t-134.5 -49.5h-354v78zM243 -187.5q0 41.5 27 65.5t70.5 24t70.5 -15l-15 -45q-20 12 -46 12q-56 0 -56 -51q0 -32 30 -47q10 2 50 8t50 6v-50q-22 0 -94.5 -9t-98.5 -15v47l47 7 q-35 21 -35 62.5z" />
<glyph unicode="&#xfee0;&#xfe88;" horiz-adv-x="708" arabic-form="final" d="M45 78h224l-129 547h93l129 -547h133v682h89v-682h130q5 0 5 -4v-69q0 -5 -5 -5h-669v78zM243 -187.5q0 41.5 27 65.5t70.5 24t70.5 -15l-15 -45q-20 12 -46 12q-56 0 -56 -51q0 -32 30 -47q10 2 50 8t50 6v-50q-22 0 -94.5 -9t-98.5 -15v47l47 7q-35 21 -35 62.5z" />
<glyph unicode="&#xfedf;&#xfe8e;" horiz-adv-x="673" arabic-form="isolated" d="M45 78h224l-129 547h93l129 -547h27q106 0 106 116v566h89v-578q0 -83 -50.5 -132.5t-134.5 -49.5h-354v78z" />
<glyph unicode="&#xfee0;&#xfe8e;" horiz-adv-x="708" arabic-form="final" d="M45 78h224l-129 547h93l129 -547h133v682h89v-682h130q5 0 5 -4v-69q0 -5 -5 -5h-669v78z" />
<glyph unicode="&#xfedf;&#xfb51;" horiz-adv-x="673" d="M45 78h224l-129 547h93l129 -547h27q106 0 106 116v566h89v-578q0 -83 -50.5 -132.5t-134.5 -49.5h-354v78zM237 746q0 55 -35 55q-18 0 -34 -15.5t-23 -39.5h92zM44 746h46q35 102 112 102q42 0 64 -27t22 -75v-46h-244v46z" />
<glyph unicode="&#xfee0;&#xfb51;" horiz-adv-x="708" d="M45 78h224l-129 547h93l129 -547h133v682h89v-682h130q5 0 5 -4v-69q0 -5 -5 -5h-669v78zM237 746q0 55 -35 55q-18 0 -34 -15.5t-23 -39.5h92zM44 746h46q35 102 112 102q42 0 64 -27t22 -75v-46h-244v46z" />
<glyph unicode="&#x620;" horiz-adv-x="299" d="M0 -5l10 82q59 0 92 4.5t47 23t14 58.5q0 38 -17.5 95.5t-39.5 114.5l81 30q13 -32 24.5 -73t19.5 -81t8 -70q0 -96 -51 -138q16 -12 25.5 -30.5t9.5 -40.5q0 -37 -26 -63t-63 -26t-63 26t-26 63q0 14 4 27q-23 -2 -49 -2zM134 -68q17 0 29 11t12 27q0 17 -12 28.5 t-29 11.5h-1.5t-8.5 -1q-1 -1 -2 -1q-13 -3 -21 -14t-8 -24q0 -16 12 -27t29 -11z" />
<glyph unicode="&#x620;" horiz-adv-x="373" d="M0 -5l10 82q50 0 78 7.5t42.5 29t23.5 62.5t22 107l78 -15q-6 -27 -13.5 -62t-7.5 -59q0 -15 2 -28t15 -22t44 -14.5t89 -5.5q21 0 30.5 -11.5t9.5 -27.5t-14 -29.5t-36 -13.5q-65 0 -101.5 7.5t-54 22t-25.5 36.5q-12 -17 -26 -29q15 -12 24 -30t9 -39q0 -37 -26 -63 t-63 -26t-63 26t-26 63q0 17 6 32h-27zM110 -75q17 0 29 11t12 27q0 17 -12 28.5t-29 11.5t-29 -11.5t-12 -28.5q0 -16 12 -27t29 -11z" />
<glyph unicode="&#x620;" horiz-adv-x="736" d="M30 -1q0 36 10 80t32 97l72 -28q-16 -42 -24 -77t-8 -65q0 -55 32.5 -90t86 -51t117.5 -16q77 0 140.5 18t101.5 47.5t38 65.5q0 26 -40 45t-112 39l19 83q104 -40 162 -55t89 -15q21 0 30.5 -11.5t9.5 -27.5t-14 -29.5t-36 -13.5h-37q2 -9 3 -14.5t1 -14.5 q0 -43 -34.5 -83.5t-100 -70t-157.5 -39.5q12 -21 12 -45q0 -37 -26 -63t-63 -26t-63 26t-26 63q0 24 12 45q-64 10 -115.5 38t-81.5 75t-30 113zM334 -310q17 0 29 11t12 27q0 17 -12 28.5t-29 11.5t-29 -11.5t-12 -28.5q0 -16 12 -27t29 -11z" />
<glyph unicode="&#x63b;" horiz-adv-x="412" d="M262 723q-21 0 -35.5 14.5t-14.5 34.5t14.5 35t35.5 15q20 0 34.5 -15t14.5 -35t-14.5 -34.5t-34.5 -14.5zM147 670q-21 0 -35.5 14.5t-14.5 34.5t14.5 35t35.5 15q20 0 34.5 -15t14.5 -35t-14.5 -34.5t-34.5 -14.5zM0 -5l10 82h94q59 0 93.5 6.5t51 17t22 23t5.5 25.5 q0 23 -17.5 57t-71.5 88q-37 38 -74 67t-61 49t-24 29q0 23 5.5 43t15.5 31q40 43 125.5 86.5t213.5 107.5l34 -74q-91 -44 -148.5 -72.5t-95 -50t-69.5 -43.5q117 -95 179.5 -170.5t62.5 -152.5q0 -22 -8 -48t-34 -49t-78 -37.5t-140 -14.5h-91z" />
<glyph unicode="&#x63b;" horiz-adv-x="508" d="M230 723q-21 0 -35.5 14.5t-14.5 34.5t14.5 35t35.5 15q20 0 34.5 -15t14.5 -35t-14.5 -34.5t-34.5 -14.5zM115 670q-21 0 -35.5 14.5t-14.5 34.5t14.5 35t35.5 15q20 0 34.5 -15t14.5 -35t-14.5 -34.5t-34.5 -14.5zM0 -5l10 82h77q83 0 123 9t52.5 24t12.5 31 q0 24 -18 53t-46 59.5t-59.5 60.5t-59.5 55t-46 43.5t-18 26.5q0 23 5.5 43t15.5 31q27 29 79.5 60.5t120.5 65t139 68.5l34 -74q-88 -44 -172.5 -85t-147.5 -85q55 -47 103 -91t89 -94.5t75 -114.5q21 -39 49 -57t55.5 -23.5t44.5 -5.5q21 0 30.5 -11.5t9.5 -27.5 t-14 -29.5t-36 -13.5q-24 0 -55.5 6.5t-63.5 25t-56 54.5q-20 -29 -50 -48t-78 -28.5t-122 -9.5h-83z" />
<glyph unicode="&#x63b;" horiz-adv-x="975" d="M733 723q-21 0 -35.5 14.5t-14.5 34.5t14.5 35t35.5 15q20 0 34.5 -15t14.5 -35t-14.5 -34.5t-34.5 -14.5zM618 670q-21 0 -35.5 14.5t-14.5 34.5t14.5 35t35.5 15q20 0 34.5 -15t14.5 -35t-14.5 -34.5t-34.5 -14.5zM390 -21q-178 0 -269 47t-91 156q0 37 9 78.5t19 78.5 l75 -19q-6 -22 -13.5 -55.5t-7.5 -59.5q0 -52 26.5 -83.5t92.5 -46t185 -14.5q125 0 196 13t100.5 32t29.5 35q0 24 -18 53t-46 59.5t-59.5 60.5t-59.5 55t-46 43.5t-18 26.5q0 23 5.5 43t15.5 31q27 29 79.5 60.5t120.5 65t139 68.5l34 -74q-88 -44 -172.5 -85t-147.5 -85 q55 -47 103 -91t89 -94.5t75 -114.5q21 -39 49 -57t55.5 -23.5t44.5 -5.5q21 0 30.5 -11.5t9.5 -27.5t-14 -29.5t-36 -13.5q-24 0 -56 6.5t-63.5 25t-55.5 54.5q-17 -22 -45 -41t-74.5 -32.5t-117.5 -21t-173 -7.5z" />
<glyph unicode="&#x63c;" horiz-adv-x="412" d="M-5 0q-5 0 -5 5v69q0 4 5 4h421v184q0 75 -45 110t-139 35h-170v82q32 67 89 132.5t127 116.5t136 76l32 -76q-92 -36 -180 -109.5t-121 -143.5h87q131 0 200 -54t69 -154v-277h-506zM95 -189q-21 0 -35.5 14.5t-14.5 34.5t14.5 35t35.5 15q20 0 34.5 -15t14.5 -35 t-14.5 -34.5t-34.5 -14.5zM231 -189q-21 0 -35.5 14.5t-14.5 34.5t14.5 35t35.5 15q20 0 34.5 -15t14.5 -35t-14.5 -34.5t-34.5 -14.5zM163 -299q-21 0 -35.5 14.5t-14.5 34.5t14.5 35t35.5 15q20 0 34.5 -15t14.5 -35t-14.5 -34.5t-34.5 -14.5z" />
<glyph unicode="&#x63c;" horiz-adv-x="508" d="M-5 0q-5 0 -5 5v69q0 4 5 4h421v184q0 75 -45 110t-139 35h-170v82q32 67 89 132.5t127 116.5t136 76l32 -76q-92 -36 -180 -109.5t-121 -143.5h87q131 0 200 -54t69 -154v-199h130q5 0 5 -4v-69q0 -5 -5 -5h-636zM95 -189q-21 0 -35.5 14.5t-14.5 34.5t14.5 35t35.5 15 q20 0 34.5 -15t14.5 -35t-14.5 -34.5t-34.5 -14.5zM231 -189q-21 0 -35.5 14.5t-14.5 34.5t14.5 35t35.5 15q20 0 34.5 -15t14.5 -35t-14.5 -34.5t-34.5 -14.5zM163 -299q-21 0 -35.5 14.5t-14.5 34.5t14.5 35t35.5 15q20 0 34.5 -15t14.5 -35t-14.5 -34.5t-34.5 -14.5z" />
<glyph unicode="&#x63c;" horiz-adv-x="975" d="M65 179q0 61 20 135h80q-15 -83 -15 -130t26.5 -76.5t72.5 -29.5h399v184q0 75 -45 110t-139 35h-170v82q32 67 88.5 132.5t127 116.5t136.5 76l32 -76q-91 -35 -179 -109t-122 -144h87q131 0 200 -54t69 -154v-199h130q5 0 5 -4v-69q0 -5 -5 -5h-611q-91 0 -139 46.5 t-48 132.5zM342 -210q-21 0 -35.5 14.5t-14.5 34.5t14.5 35t35.5 15q20 0 34.5 -15t14.5 -35t-14.5 -34.5t-34.5 -14.5zM478 -210q-21 0 -35.5 14.5t-14.5 34.5t14.5 35t35.5 15q20 0 34.5 -15t14.5 -35t-14.5 -34.5t-34.5 -14.5zM410 -320q-21 0 -35.5 14.5t-14.5 34.5 t14.5 35t35.5 15q20 0 34.5 -15t14.5 -35t-14.5 -34.5t-34.5 -14.5z" />
<glyph unicode="&#x63d;" horiz-adv-x="269" d="M-5 0q-5 0 -5 5v69q0 4 5 4h132v407h89v-485h-221zM-120 495l110 200h42l111 -200h-68l-63 129l-65 -129h-67zM179 -194q-21 0 -35.5 14.5t-14.5 34.5t14.5 35t35.5 15q20 0 34.5 -15t14.5 -35t-14.5 -34.5t-34.5 -14.5zM42 -194q-21 0 -35.5 14.5t-14.5 34.5t14.5 35 t35.5 15q20 0 34.5 -15t14.5 -35t-14.5 -34.5t-34.5 -14.5z" />
<glyph unicode="&#x63d;" horiz-adv-x="343" d="M-5 0q-5 0 -5 5v69q0 4 5 4h132v407h89v-407h130q5 0 5 -4v-69q0 -5 -5 -5h-351zM-61 374l110 200h42l111 -200h-68l-63 129l-65 -129h-67zM242 -194q-21 0 -35.5 14.5t-14.5 34.5t14.5 35t35.5 15q20 0 34.5 -15t14.5 -35t-14.5 -34.5t-34.5 -14.5zM105 -194 q-21 0 -35.5 14.5t-14.5 34.5t14.5 35t35.5 15q20 0 34.5 -15t14.5 -35t-14.5 -34.5t-34.5 -14.5z" />
<glyph unicode="&#x63d;" horiz-adv-x="736" d="M65 -7q0 103 35 188h83q-21 -51 -24.5 -89t-3.5 -85q0 -81 33.5 -125t96.5 -44h186q71 0 118 26.5t47 64.5t-75 60q-75 21 -103 37q-58 33 -58 94t34.5 114.5t89 87t113.5 33.5t105 -47q23 -23 61 -85q58 -92 91.5 -118.5t69.5 -26.5h5q5 0 5 -4v-69q0 -5 -5 -5h-5 q-84 0 -161 81q-12 12 -55.5 74.5t-72 86t-54.5 23.5t-57.5 -21t-52.5 -52.5t-21 -52.5t18 -34t74 -30q55 -17 85 -32q61 -32 61 -85q0 -198 -257 -198h-205q-94 0 -147.5 65t-53.5 168zM-31 241l110 200h42l111 -200h-68l-63 129l-65 -129h-67z" />
<glyph unicode="&#x63e;" horiz-adv-x="299" d="M218 507q-21 0 -35.5 14.5t-14.5 34.5t14.5 35t35.5 15q20 0 34.5 -15t14.5 -35t-14.5 -34.5t-34.5 -14.5zM81 507q-21 0 -35.5 14.5t-14.5 34.5t14.5 35t35.5 15q20 0 34.5 -15t14.5 -35t-14.5 -34.5t-34.5 -14.5zM0 -5l10 82q59 0 92 4.5t47 23t14 58.5 q0 38 -17.5 95.5t-39.5 114.5l81 30q13 -32 24.5 -73t19.5 -81t8 -70q0 -100 -56 -142t-183 -42zM185 -194q-21 0 -35.5 14.5t-14.5 34.5t14.5 35t35.5 15q20 0 34.5 -15t14.5 -35t-14.5 -34.5t-34.5 -14.5zM48 -194q-21 0 -35.5 14.5t-14.5 34.5t14.5 35t35.5 15 q20 0 34.5 -15t14.5 -35t-14.5 -34.5t-34.5 -14.5z" />
<glyph unicode="&#x63e;" horiz-adv-x="373" d="M267 386q-21 0 -35.5 14.5t-14.5 34.5t14.5 35t35.5 15q20 0 34.5 -15t14.5 -35t-14.5 -34.5t-34.5 -14.5zM130 386q-21 0 -35.5 14.5t-14.5 34.5t14.5 35t35.5 15q20 0 34.5 -15t14.5 -35t-14.5 -34.5t-34.5 -14.5zM0 -5l10 82q50 0 78 7.5t42.5 29t23.5 62.5t22 107 l78 -15q-6 -27 -13.5 -62t-7.5 -59q0 -15 2 -28t15 -22t44 -14.5t89 -5.5q21 0 30.5 -11.5t9.5 -27.5t-14 -29.5t-36 -13.5q-65 0 -101.5 7.5t-54 22t-25.5 36.5q-29 -41 -71.5 -53.5t-120.5 -12.5zM252 -194q-21 0 -35.5 14.5t-14.5 34.5t14.5 35t35.5 15q20 0 34.5 -15 t14.5 -35t-14.5 -34.5t-34.5 -14.5zM115 -194q-21 0 -35.5 14.5t-14.5 34.5t14.5 35t35.5 15q20 0 34.5 -15t14.5 -35t-14.5 -34.5t-34.5 -14.5z" />
<glyph unicode="&#x63e;" horiz-adv-x="736" d="M65 -7q0 103 35 188h83q-21 -51 -24.5 -89t-3.5 -85q0 -81 33.5 -125t96.5 -44h186q71 0 118 26.5t47 64.5t-75 60q-75 21 -103 37q-58 33 -58 94t34.5 114.5t89 87t113.5 33.5t105 -47q23 -23 61 -85q58 -92 91.5 -118.5t69.5 -26.5h5q5 0 5 -4v-69q0 -5 -5 -5h-5 q-84 0 -161 81q-12 12 -55.5 74.5t-72 86t-54.5 23.5t-57.5 -21t-52.5 -52.5t-21 -52.5t18 -34t74 -30q55 -17 85 -32q61 -32 61 -85q0 -198 -257 -198h-205q-94 0 -147.5 65t-53.5 168zM287 253q-21 0 -35.5 14.5t-14.5 34.5t14.5 35t35.5 15q20 0 34.5 -15t14.5 -35 t-14.5 -34.5t-34.5 -14.5zM150 253q-21 0 -35.5 14.5t-14.5 34.5t14.5 35t35.5 15q20 0 34.5 -15t14.5 -35t-14.5 -34.5t-34.5 -14.5z" />
<glyph unicode="&#x63f;" horiz-adv-x="299" d="M150 617q-21 0 -35.5 14.5t-14.5 34.5t14.5 35t35.5 15q20 0 34.5 -15t14.5 -35t-14.5 -34.5t-34.5 -14.5zM82 507q-21 0 -35.5 14.5t-14.5 34.5t14.5 35t35.5 15q20 0 34.5 -15t14.5 -35t-14.5 -34.5t-34.5 -14.5zM218 507q-21 0 -35.5 14.5t-14.5 34.5t14.5 35t35.5 15 q20 0 34.5 -15t14.5 -35t-14.5 -34.5t-34.5 -14.5zM0 -5l10 82q59 0 92 4.5t47 23t14 58.5q0 38 -17.5 95.5t-39.5 114.5l81 30q13 -32 24.5 -73t19.5 -81t8 -70q0 -100 -56 -142t-183 -42zM185 -194q-21 0 -35.5 14.5t-14.5 34.5t14.5 35t35.5 15q20 0 34.5 -15t14.5 -35 t-14.5 -34.5t-34.5 -14.5zM48 -194q-21 0 -35.5 14.5t-14.5 34.5t14.5 35t35.5 15q20 0 34.5 -15t14.5 -35t-14.5 -34.5t-34.5 -14.5z" />
<glyph unicode="&#x63f;" horiz-adv-x="373" d="M199 496q-21 0 -35.5 14.5t-14.5 34.5t14.5 35t35.5 15q20 0 34.5 -15t14.5 -35t-14.5 -34.5t-34.5 -14.5zM131 386q-21 0 -35.5 14.5t-14.5 34.5t14.5 35t35.5 15q20 0 34.5 -15t14.5 -35t-14.5 -34.5t-34.5 -14.5zM267 386q-21 0 -35.5 14.5t-14.5 34.5t14.5 35 t35.5 15q20 0 34.5 -15t14.5 -35t-14.5 -34.5t-34.5 -14.5zM0 -5l10 82q50 0 78 7.5t42.5 29t23.5 62.5t22 107l78 -15q-6 -27 -13.5 -62t-7.5 -59q0 -15 2 -28t15 -22t44 -14.5t89 -5.5q21 0 30.5 -11.5t9.5 -27.5t-14 -29.5t-36 -13.5q-65 0 -101.5 7.5t-54 22t-25.5 36.5 q-29 -41 -71.5 -53.5t-120.5 -12.5zM252 -194q-21 0 -35.5 14.5t-14.5 34.5t14.5 35t35.5 15q20 0 34.5 -15t14.5 -35t-14.5 -34.5t-34.5 -14.5zM115 -194q-21 0 -35.5 14.5t-14.5 34.5t14.5 35t35.5 15q20 0 34.5 -15t14.5 -35t-14.5 -34.5t-34.5 -14.5z" />
<glyph unicode="&#x63f;" horiz-adv-x="736" d="M65 -7q0 103 35 188h83q-21 -51 -24.5 -89t-3.5 -85q0 -81 33.5 -125t96.5 -44h186q71 0 118 26.5t47 64.5t-75 60q-75 21 -103 37q-58 33 -58 94t34.5 114.5t89 87t113.5 33.5t105 -47q23 -23 61 -85q58 -92 91.5 -118.5t69.5 -26.5h5q5 0 5 -4v-69q0 -5 -5 -5h-5 q-84 0 -161 81q-12 12 -55.5 74.5t-72 86t-54.5 23.5t-57.5 -21t-52.5 -52.5t-21 -52.5t18 -34t74 -30q55 -17 85 -32q61 -32 61 -85q0 -198 -257 -198h-205q-94 0 -147.5 65t-53.5 168zM219 363q-21 0 -35.5 14.5t-14.5 34.5t14.5 35t35.5 15q20 0 34.5 -15t14.5 -35 t-14.5 -34.5t-34.5 -14.5zM151 253q-21 0 -35.5 14.5t-14.5 34.5t14.5 35t35.5 15q20 0 34.5 -15t14.5 -35t-14.5 -34.5t-34.5 -14.5zM287 253q-21 0 -35.5 14.5t-14.5 34.5t14.5 35t35.5 15q20 0 34.5 -15t14.5 -35t-14.5 -34.5t-34.5 -14.5z" />
<glyph unicode="&#x66e;" horiz-adv-x="300" d="M-5 0q-5 0 -5 5v69q0 4 5 4h132v407h89v-485h-221z" />
<glyph unicode="&#x66e;" horiz-adv-x="340" d="M-5 0q-5 0 -5 5v69q0 4 5 4h132v407h89v-407h130q5 0 5 -4v-69q0 -5 -5 -5h-351z" />
<glyph unicode="&#x66e;" horiz-adv-x="820" d="M252 0q-86 0 -136.5 52t-50.5 142q0 33 7 76.5t18 73.5h80q-15 -73 -15 -135.5t26 -96.5t68 -34h359v407h85v-407h133q5 0 5 -4v-69q0 -5 -5 -5h-574z" />
<glyph unicode="&#x66f;" horiz-adv-x="584" d="M-5 0q-5 0 -5 5v69q0 4 5 4h152q-25 29 -38.5 70t-13.5 81q0 117 73.5 186.5t200.5 69.5h131v-485h-505zM415 78v329h-43q-89 0 -138.5 -46.5t-49.5 -130.5q0 -152 137 -152h94z" />
<glyph unicode="&#x66f;" horiz-adv-x="601" d="M606 78q4 0 5 -5v-69q0 -4 -5 -4h-611q-5 0 -5 5v69q0 4 5 4h152q-25 29 -38.5 70t-13.5 81q0 119 74 187.5t200 68.5h131v-407h106zM415 78v329h-43q-89 0 -138.5 -47t-49.5 -131q0 -151 137 -151h94z" />
<glyph unicode="&#x66f;" horiz-adv-x="895" d="M901 78q5 0 5 -4v-69q0 -5 -5 -5h-110v-6q0 -234 -253 -234h-236q-110 0 -173.5 65t-63.5 184t41 228h83q-34 -96 -34 -230q0 -81 43 -125t122 -44h202q98 0 141 38t43 117v7h-92q-111 0 -169.5 58.5t-58.5 173.5t75 184t199 69h131v-407h110zM706 78v329h-43 q-89 0 -138.5 -47t-49.5 -128t34 -117.5t103 -36.5h94z" />
<glyph unicode="&#x672;" horiz-adv-x="315" d="M100 700h89v-622h132q5 0 5 -4v-69q0 -5 -5 -5h-221v700zM107.5 758q-14.5 0 -24.5 2.5t-18.5 5t-16 5t-15.5 2.5q-22 0 -47 -22l-23 21q36 45 64 45q10 0 29 -7.5t38 -7.5q-35 23 -35 64.5t28 65t70.5 23.5t69.5 -15l-15 -45q-20 12 -46 12q-56 0 -56 -51q0 -33 30 -47 q52 5 100 16v-49q-15 -3 -66.5 -10.5t-66 -7.5z" />
<glyph unicode="&#x673;" horiz-adv-x="315" d="M100 760h89v-682h132q5 0 5 -4v-69q0 -5 -5 -5h-221v760zM104.5 -255q-15.5 0 -36.5 7.5t-37 7.5t-41 -22l-23 21q36 45 64 45q10 0 29 -7.5t38 -7.5q-35 22 -35 63.5t27 65.5t70.5 24t70.5 -15l-15 -45q-20 12 -46 12q-56 0 -56 -51q0 -32 30 -47q52 5 100 16v-49 q-26 -6 -75 -12t-64.5 -6z" />
<glyph unicode="&#x675;" horiz-adv-x="315" d="M100 700h89v-622h132q5 0 5 -4v-69q0 -5 -5 -5h-221v700zM251 612q0 42 28 65.5t70.5 23.5t69.5 -15l-15 -45q-20 12 -46 12q-56 0 -56 -51q0 -33 30 -47q10 2 48 7t52 5v-48q-22 0 -137 -16l-56 -8v46l47 6q-35 23 -35 65z" />
<glyph unicode="&#x676;" horiz-adv-x="553" d="M248 -162q67 0 105.5 36.5t38.5 96.5v29h-98q-106 0 -164.5 58.5t-58.5 173t74.5 184t199.5 69.5h131v-407h82q5 0 5 -4v-69q0 -5 -5 -5h-82v-24q0 -102 -60.5 -159t-166.5 -57t-184 51l40 67q76 -40 143 -40zM391 78v329h-43q-89 0 -138.5 -47t-49.5 -128t34 -117.5 t103 -36.5h94zM394 690q0 42 28 65.5t70.5 23.5t69.5 -15l-15 -45q-20 12 -46 12q-56 0 -56 -51q0 -33 30 -47q10 2 48 7.5t52 5.5v-49q-22 0 -137 -15l-56 -9v46l47 6q-35 23 -35 65z" />
<glyph unicode="&#x677;" horiz-adv-x="553" d="M248 -162q67 0 105.5 36.5t38.5 96.5v29h-98q-106 0 -164.5 58.5t-58.5 173t74.5 184t199.5 69.5h131v-407h82q5 0 5 -4v-69q0 -5 -5 -5h-82v-24q0 -102 -60.5 -159t-166.5 -57t-184 51l40 67q76 -40 143 -40zM391 78v329h-43q-89 0 -138.5 -47t-49.5 -128t34 -117.5 t103 -36.5h94zM394 690q0 42 28 65.5t70.5 23.5t69.5 -15l-15 -45q-20 12 -46 12q-56 0 -56 -51q0 -33 30 -47q10 2 48 7.5t52 5.5v-49q-22 0 -137 -15l-56 -9v46l47 6q-35 23 -35 65zM236 688q0 16 -10 26t-25.5 10t-26.5 -10t-11 -35.5t25 -57.5q48 25 48 67zM93 546 q-52 0 -99 34l29 42q37 -25 69 -25t52 7q-32 41 -32 82t25 63t65 22t63 -22.5t23 -57t-26.5 -69t-71.5 -55.5t-97 -21z" />
<glyph unicode="&#x678;" horiz-adv-x="963" d="M65 -7q0 103 35 188h83q-21 -51 -24.5 -89t-3.5 -85q0 -81 33.5 -125t96.5 -44h186q71 0 118 26.5t47 64.5t-75 60q-75 21 -103 37q-58 33 -58 94t34.5 114.5t89 87t113.5 33.5t105 -47q23 -23 61 -85q58 -92 91.5 -118.5t69.5 -26.5h5q5 0 5 -4v-69q0 -5 -5 -5h-5 q-84 0 -161 81q-12 12 -55.5 74.5t-72 86t-54.5 23.5t-57.5 -21t-52.5 -52.5t-21 -52.5t18 -34t74 -30q55 -17 85 -32q61 -32 61 -85q0 -198 -257 -198h-205q-94 0 -147.5 65t-53.5 168zM522 550q0 42 28 65.5t70.5 23.5t69.5 -15l-15 -45q-20 12 -46 12q-56 0 -56 -51 q0 -33 30 -47q10 2 48 7t52 5v-48q-22 0 -137 -16l-56 -8v46l47 6q-35 23 -35 65z" />
<glyph unicode="&#x67a;" horiz-adv-x="300" arabic-form="initial" d="M-5 0q-5 0 -5 5v69q0 4 5 4h132v407h89v-485h-221zM166.5 761q-26.5 0 -41.5 15.5t-15 44.5t15 44.5t41.5 15.5t41 -16.5t14.5 -43.5t-14.5 -43.5t-41 -16.5zM166.5 580q-26.5 0 -41.5 15.5t-15 44.5t15 44.5t41.5 15.5t41 -16.5t14.5 -43.5t-14.5 -43.5t-41 -16.5z" />
<glyph unicode="&#x67a;" horiz-adv-x="391" arabic-form="medial" d="M-5 0q-5 0 -5 5v69q0 4 5 4h162v407h89v-407h150q5 0 5 -4v-69q0 -5 -5 -5h-401zM201.5 761q-26.5 0 -41.5 15.5t-15 44.5t15 44.5t41.5 15.5t41 -16.5t14.5 -43.5t-14.5 -43.5t-41 -16.5zM201.5 580q-26.5 0 -41.5 15.5t-15 44.5t15 44.5t41.5 15.5t41 -16.5t14.5 -43.5 t-14.5 -43.5t-41 -16.5z" />
<glyph unicode="&#x67a;" horiz-adv-x="820" arabic-form="final" d="M252 0q-86 0 -136.5 52t-50.5 142q0 33 7 76.5t18 73.5h80q-15 -72 -15 -135t26 -97t68 -34h359v407h85v-407h133q5 0 5 -4v-69q0 -5 -5 -5h-574zM377.5 547q-26.5 0 -41.5 15.5t-15 44t15 44.5t41.5 16t41 -16.5t14.5 -43.5t-14.5 -43.5t-41 -16.5zM377.5 366 q-26.5 0 -41.5 15.5t-15 44.5t15 44.5t41.5 15.5t41 -16.5t14.5 -44t-14.5 -43.5t-41 -16z" />
<glyph unicode="&#x67b;" horiz-adv-x="300" arabic-form="initial" d="M-5 0q-5 0 -5 5v69q0 4 5 4h132v407h89v-485h-221zM166.5 -200q-26.5 0 -41.5 15.5t-15 44.5t15 44.5t41.5 15.5t41 -16.5t14.5 -43.5t-14.5 -43.5t-41 -16.5zM166.5 -381q-26.5 0 -41.5 15.5t-15 44.5t15 44.5t41 15.5t41 -16t15 -43.5t-14.5 -44t-41 -16.5z" />
<glyph unicode="&#x67b;" horiz-adv-x="340" arabic-form="medial" d="M-5 0q-5 0 -5 5v69q0 4 5 4h132v407h89v-407h130q5 0 5 -4v-69q0 -5 -5 -5h-351zM166.5 -200q-26.5 0 -41.5 15.5t-15 44.5t15 44.5t41.5 15.5t41 -16.5t14.5 -43.5t-14.5 -43.5t-41 -16.5zM166.5 -381q-26.5 0 -41.5 15.5t-15 44.5t15 44.5t41 15.5t41 -16t15 -43.5 t-14.5 -44t-41 -16.5z" />
<glyph unicode="&#x67b;" horiz-adv-x="820" arabic-form="final" d="M252 0q-86 0 -136.5 52t-50.5 142q0 33 7 76.5t18 73.5h80q-15 -72 -15 -135t26 -97t68 -34h359v407h85v-407h133q5 0 5 -4v-69q0 -5 -5 -5h-574zM417.5 -200q-26.5 0 -41.5 15.5t-15 44.5t15 44.5t41.5 15.5t41 -16.5t14.5 -43.5t-14.5 -43.5t-41 -16.5zM417.5 -381 q-26.5 0 -41.5 15.5t-15 44.5t15 44.5t41 15.5t41 -16t15 -43.5t-14.5 -44t-41 -16.5z" />
<glyph unicode="&#x67c;" horiz-adv-x="374" d="M-10 5v69q0 4 5 4h192v407h89v-485h-31q13 -23 13 -54q0 -48 -31 -77t-81 -29t-79.5 28t-29.5 68.5t12 63.5h-54q-5 0 -5 5zM312.5 580q-26.5 0 -41.5 15.5t-15 44.5t15 44.5t41.5 15.5t41 -16.5t14.5 -43.5t-14.5 -43.5t-41 -16.5zM140.5 580q-24.5 0 -41 14t-16.5 46 t16.5 46t41 14t39.5 -15.5t15 -44.5t-15 -44.5t-39.5 -15.5zM146 -109q24 0 39.5 14t15.5 40.5t-14 39.5t-33 15h-17q-19 -2 -32.5 -15t-13.5 -40q0 -54 55 -54z" />
<glyph unicode="&#x67c;" horiz-adv-x="391" d="M-10 5v69q0 4 5 4h162v407h89v-407h150q5 0 5 -4v-69q0 -5 -5 -5h-90q13 -23 13 -54q0 -48 -31 -77t-81 -29t-79.5 28t-29.5 68.5t12 63.5h-115q-5 0 -5 5zM287.5 580q-26.5 0 -41.5 15.5t-15 44.5t15 44.5t41.5 15.5t41 -16.5t14.5 -43.5t-14.5 -43.5t-41 -16.5z M115.5 580q-24.5 0 -41 14t-16.5 46t16.5 46t41 14t39.5 -15.5t15 -44.5t-15 -44.5t-39.5 -15.5zM207 -109q24 0 39.5 14t15.5 40.5t-14 39.5t-33 15h-17q-19 -2 -32.5 -15t-13.5 -40q0 -54 55 -54z" />
<glyph unicode="&#x67c;" horiz-adv-x="820" d="M252 0q-86 0 -136.5 52t-50.5 142q0 33 7 76.5t18 73.5h80q-15 -72 -15 -135t26 -97t68 -34h359v407h85v-407h133q5 0 5 -4v-69q0 -5 -5 -5h-324q13 -23 14 -54q0 -48 -31 -77t-81 -29t-79.5 28t-29.5 68.5t12 63.5h-55zM404 -109q24 0 39.5 14t15.5 40.5t-14 39.5 t-33 15h-17q-19 -2 -32.5 -15t-13.5 -40q0 -54 55 -54zM465.5 485q-26.5 0 -41.5 16t-15 44.5t14.5 44t41.5 15.5t41.5 -16t14.5 -43.5t-14.5 -44t-41 -16.5zM293.5 485q-24.5 0 -41 14.5t-16.5 46t16.5 45.5t40.5 14t39.5 -15t15.5 -44t-15 -45t-39.5 -16z" />
<glyph unicode="&#x67d;" horiz-adv-x="374" d="M-5 0q-5 0 -5 5v69q0 4 5 4h192v407h89v-485h-281zM139 824q26 0 41 -15.5t15 -44.5t-14.5 -44.5t-41 -15.5t-41.5 15.5t-15 44.5t15 44.5t41 15.5zM310 824q25 0 41.5 -14t16.5 -46t-16.5 -46t-41.5 -14t-39.5 16.5t-14.5 44t14.5 43.5t39.5 16zM227 689q22 0 36.5 -13 t14.5 -42t-14.5 -42t-36.5 -13t-37.5 13t-15.5 42t15.5 42t37.5 13z" />
<glyph unicode="&#x67d;" horiz-adv-x="391" d="M-5 0q-5 0 -5 5v69q0 4 5 4h162v407h89v-407h150q5 0 5 -4v-69q0 -5 -5 -5h-401zM115 824q26 0 41 -15.5t15 -44.5t-14.5 -44.5t-41 -15.5t-41.5 15.5t-15 44.5t15 44.5t41 15.5zM286.5 824q25.5 0 41.5 -14t16 -46t-16 -46t-41.5 -14t-40 16.5t-14.5 44t14.5 43.5t40 16 zM203 689q22 0 36.5 -13t14.5 -42t-14.5 -42t-36.5 -13t-37.5 13t-15.5 42t15.5 42t37.5 13z" />
<glyph unicode="&#x67d;" horiz-adv-x="820" d="M252 0q-86 0 -136.5 52t-50.5 142q0 33 7 76.5t18 73.5h80q-15 -72 -15 -135t26 -97t68 -34h359v407h85v-407h133q5 0 5 -4v-69q0 -5 -5 -5h-574zM297 605q26 0 41 -15.5t15 -44t-15 -44.5t-41 -16t-41 16t-15 44.5t15 44t41 15.5zM468 605q25 0 41.5 -14t16.5 -45.5 t-16.5 -46t-41.5 -14.5t-39.5 16.5t-14.5 44t14.5 43.5t39.5 16zM384.5 470q21.5 0 36.5 -13t15 -41.5t-15 -42t-36.5 -13.5t-37 13.5t-15.5 42t15.5 41.5t37 13z" />
<glyph unicode="&#x67f;" horiz-adv-x="374" arabic-form="initial" d="M-5 0q-5 0 -5 5v69q0 4 5 4h192v407h89v-485h-281zM301.5 762q-22.5 0 -37 12.5t-14.5 41.5t14.5 41.5t36.5 12.5t36 -14.5t14 -39.5t-13.5 -39.5t-36 -14.5zM144.5 762q-23.5 0 -37 14t-13.5 41t15 40t36 13t35.5 -12.5t14.5 -40t-13.5 -41.5t-37 -14zM301.5 595 q-22.5 0 -37 12.5t-14.5 41.5t14.5 41.5t36.5 12.5t36 -14.5t14 -39.5t-13.5 -39.5t-36 -14.5zM144.5 595q-23.5 0 -37 14t-13.5 41t15 40t36 13t35.5 -12.5t14.5 -40t-13.5 -41.5t-37 -14z" />
<glyph unicode="&#x67f;" horiz-adv-x="391" arabic-form="medial" d="M-5 0q-5 0 -5 5v69q0 4 5 4h162v407h89v-407h150q5 0 5 -4v-69q0 -5 -5 -5h-401zM276.5 762q-22.5 0 -37 12.5t-14.5 41.5t14.5 41.5t36.5 12.5t36 -14.5t14 -39.5t-13.5 -39.5t-36 -14.5zM120 762q-24 0 -37.5 14t-13.5 41t15 40t36 13t35.5 -12.5t14.5 -40t-13 -41.5 t-37 -14zM276.5 595q-22.5 0 -37 12.5t-14.5 41.5t14.5 41.5t36.5 12.5t36 -14.5t14 -39.5t-13.5 -39.5t-36 -14.5zM120 595q-24 0 -37.5 14t-13.5 41t15 40t36 13t35.5 -12.5t14.5 -40t-13 -41.5t-37 -14z" />
<glyph unicode="&#x67f;" horiz-adv-x="820" arabic-form="final" d="M252 0q-86 0 -136.5 52t-50.5 142q0 33 7 76.5t18 73.5h80q-15 -72 -15 -135t26 -97t68 -34h359v407h85v-407h133q5 0 5 -4v-69q0 -5 -5 -5h-574zM461.5 554q-22.5 0 -36.5 12.5t-14 41t14 41.5t36.5 13t36.5 -14.5t14 -40t-14 -39.5t-36.5 -14zM305.5 554 q-23.5 0 -37 13.5t-13.5 41t15 40.5t35.5 13t35.5 -13t15 -40t-13.5 -41t-37 -14zM461.5 387q-22.5 0 -36.5 12.5t-14 41t14 41.5t36.5 13t36.5 -14.5t14 -40t-14 -39.5t-36.5 -14zM305.5 387q-23.5 0 -37 13.5t-13.5 41t15 40.5t35.5 13t35.5 -13t15 -40t-13.5 -41t-37 -14 z" />
<glyph unicode="&#x680;" horiz-adv-x="374" arabic-form="initial" d="M-5 0q-5 0 -5 5v69q0 4 5 4h192v407h89v-485h-281zM217 -205q-22 0 -36.5 12.5t-14.5 41.5t14.5 41.5t37 12.5t36 -14.5t13.5 -39.5t-14 -39.5t-36 -14.5zM60 -205q-22 0 -36 14t-14 41t15 40t36 13t35.5 -13t14.5 -41.5t-14.5 -41t-36.5 -12.5zM217 -372 q-22 0 -36.5 12.5t-14.5 41.5t14.5 41.5t37 12.5t36 -14.5t13.5 -39.5t-14 -39.5t-36 -14.5zM60 -372q-22 0 -36 14t-14 41t15 40t36 13t35.5 -13t14.5 -41.5t-14.5 -41t-36.5 -12.5z" />
<glyph unicode="&#x680;" horiz-adv-x="391" arabic-form="medial" d="M-5 0q-5 0 -5 5v69q0 4 5 4h162v407h89v-407h150q5 0 5 -4v-69q0 -5 -5 -5h-401zM282 -205q-22 0 -36.5 12.5t-14.5 41.5t14.5 41.5t37 12.5t36 -14.5t13.5 -39.5t-14 -39.5t-36 -14.5zM124.5 -205q-21.5 0 -35.5 14t-14 41t15 40t35.5 13t35.5 -13t15 -41.5t-15 -41 t-36.5 -12.5zM282 -372q-22 0 -36.5 12.5t-14.5 41.5t14.5 41.5t37 12.5t36 -14.5t13.5 -39.5t-14 -39.5t-36 -14.5zM124.5 -372q-21.5 0 -35.5 14t-14 41t15 40t35.5 13t35.5 -13t15 -41.5t-15 -41t-36.5 -12.5z" />
<glyph unicode="&#x680;" horiz-adv-x="820" arabic-form="final" d="M252 0q-86 0 -136.5 52t-50.5 142q0 33 7 76.5t18 73.5h80q-15 -72 -15 -135t26 -97t68 -34h359v407h85v-407h133q5 0 5 -4v-69q0 -5 -5 -5h-574zM463 -205q-22 0 -36.5 12.5t-14.5 41.5t14.5 41.5t37 12.5t36 -14.5t13.5 -39.5t-14 -39.5t-36 -14.5zM306 -205 q-22 0 -36 14t-14 41t15 40t36 13t35.5 -13t14.5 -41.5t-14.5 -41t-36.5 -12.5zM463 -372q-22 0 -36.5 12.5t-14.5 41.5t14.5 41.5t37 12.5t36 -14.5t13.5 -39.5t-14 -39.5t-36 -14.5zM306 -372q-22 0 -36 14t-14 41t15 40t36 13t35.5 -13t14.5 -41.5t-14.5 -41t-36.5 -12.5 z" />
<glyph unicode="&#x681;" horiz-adv-x="580" d="M515 0h-520q-5 0 -5 5v69q0 4 5 4h429q-37 37 -63 183q-15 86 -42.5 121t-90 35t-138.5 -40l-35 69q76 49 187.5 49t160.5 -87q24 -43 38 -128q26 -160 74 -204v-76zM133 694q0 42 28 65.5t70.5 23.5t69.5 -15l-15 -45q-20 12 -46 12q-56 0 -56 -51q0 -33 30 -47 q10 2 48 7t52 5v-48q-22 0 -137 -16l-56 -8v46l47 6q-35 23 -35 65z" />
<glyph unicode="&#x681;" horiz-adv-x="574" d="M579 78q5 0 5 -4v-69q0 -5 -5 -5h-584q-5 0 -5 5v69q0 4 5 4h429q-39 39 -63 183q-14 85 -42.5 120.5t-90.5 35.5t-138 -40l-35 69q76 49 187.5 49t160.5 -87q24 -43 37 -124q23 -157 72 -206h67zM133 694q0 42 28 65.5t70.5 23.5t69.5 -15l-15 -45q-20 12 -46 12 q-56 0 -56 -51q0 -33 30 -47q10 2 48 7t52 5v-48q-22 0 -137 -16l-56 -8v46l47 6q-35 23 -35 65z" />
<glyph unicode="&#x681;" horiz-adv-x="613" d="M245.5 -321q-89.5 0 -145 50.5t-55.5 142.5q0 128 155 214q80 44 221 85q-11 34 -22 101.5t-47 106t-97 38.5q-36 0 -86 -14.5t-89 -35.5l-35 69q39 25 97 42t114 17q191 0 224 -211q16 -96 31 -132q30 -74 103 -74h5q5 0 5 -4v-69q0 -5 -5 -5h-5q-111 0 -165 100 q-120 -33 -185 -65q-127 -63 -128 -155q0 -64 37 -94t116 -30q50 0 147 16l11 -69q-112 -24 -201.5 -24zM133 694q0 42 28 65.5t70.5 23.5t69.5 -15l-15 -45q-20 12 -46 12q-56 0 -56 -51q0 -33 30 -47q10 2 48 7t52 5v-48q-22 0 -137 -16l-56 -8v46l47 6q-35 23 -35 65z " />
<glyph unicode="&#x682;" horiz-adv-x="580" d="M515 0h-520q-5 0 -5 5v69q0 4 5 4h429q-37 37 -63 183q-15 86 -42.5 121t-90 35t-138.5 -40l-35 69q76 49 187.5 49t160.5 -87q24 -43 38 -128q26 -160 74 -204v-76zM216.5 761q-26.5 0 -41.5 15.5t-15 44.5t14.5 44.5t41.5 15.5t41.5 -16.5t14.5 -43.5t-14.5 -43.5 t-41 -16.5zM216.5 580q-26.5 0 -41.5 15.5t-15 44.5t14.5 44.5t41.5 15.5t41.5 -16.5t14.5 -43.5t-14.5 -43.5t-41 -16.5z" />
<glyph unicode="&#x682;" horiz-adv-x="574" d="M579 78q5 0 5 -4v-69q0 -5 -5 -5h-584q-5 0 -5 5v69q0 4 5 4h429q-39 39 -63 183q-14 85 -42.5 120.5t-90.5 35.5t-138 -40l-35 69q76 49 187.5 49t160.5 -87q24 -43 37 -124q23 -157 72 -206h67zM216.5 761q-26.5 0 -41.5 15.5t-15 44.5t14.5 44.5t41.5 15.5t41.5 -16.5 t14.5 -43.5t-14.5 -43.5t-41 -16.5zM216.5 580q-26.5 0 -41.5 15.5t-15 44.5t14.5 44.5t41.5 15.5t41.5 -16.5t14.5 -43.5t-14.5 -43.5t-41 -16.5z" />
<glyph unicode="&#x682;" horiz-adv-x="613" d="M245.5 -321q-89.5 0 -145 50.5t-55.5 142.5q0 128 155 214q80 44 221 85q-11 34 -22 101.5t-47 106t-97 38.5q-36 0 -86 -14.5t-89 -35.5l-35 69q39 25 97 42t114 17q191 0 224 -211q16 -96 31 -132q30 -74 103 -74h5q5 0 5 -4v-69q0 -5 -5 -5h-5q-111 0 -165 100 q-120 -33 -185 -65q-127 -63 -128 -155q0 -64 37 -94t116 -30q50 0 147 16l11 -69q-112 -24 -201.5 -24zM216.5 761q-26.5 0 -41.5 15.5t-15 44.5t14.5 44.5t41.5 15.5t41.5 -16.5t14.5 -43.5t-14.5 -43.5t-41 -16.5zM216.5 580q-26.5 0 -41.5 15.5t-15 44.5t14.5 44.5 t41.5 15.5t41.5 -16.5t14.5 -43.5t-14.5 -43.5t-41 -16.5z" />
<glyph unicode="&#x683;" horiz-adv-x="580" arabic-form="initial" d="M515 0h-520q-5 0 -5 5v69q0 4 5 4h429q-37 37 -63 183q-15 86 -42.5 121t-90 35t-138.5 -40l-35 69q76 49 187.5 49t160.5 -87q24 -43 38 -128q26 -160 74 -204v-76zM329.5 -200q-26.5 0 -41.5 15.5t-15 44.5t15 44.5t41.5 15.5t41 -16.5t14.5 -43.5t-14.5 -43.5 t-41 -16.5zM157.5 -200q-24.5 0 -41 14t-16.5 46t16.5 46t41 14t39.5 -15.5t15 -44.5t-15 -44.5t-39.5 -15.5z" />
<glyph unicode="&#x683;" horiz-adv-x="574" arabic-form="medial" d="M579 78q5 0 5 -4v-69q0 -5 -5 -5h-584q-5 0 -5 5v69q0 4 5 4h429q-39 39 -63 183q-14 85 -42.5 120.5t-90.5 35.5t-138 -40l-35 69q76 49 187.5 49t160.5 -87q24 -43 37 -124q23 -157 72 -206h67zM329.5 -200q-26.5 0 -41.5 15.5t-15 44.5t15 44.5t41.5 15.5t41 -16.5 t14.5 -43.5t-14.5 -43.5t-41 -16.5zM157.5 -200q-24.5 0 -41 14t-16.5 46t16.5 46t41 14t39.5 -15.5t15 -44.5t-15 -44.5t-39.5 -15.5z" />
<glyph unicode="&#x683;" horiz-adv-x="613" arabic-form="final" d="M245.5 -321q-89.5 0 -145 50.5t-55.5 142.5q0 128 155 214q80 44 221 85q-11 34 -22 101.5t-47 106t-97 38.5q-36 0 -86 -14.5t-89 -35.5l-35 69q39 25 97 42t114 17q191 0 224 -211q16 -96 31 -132q30 -74 103 -74h5q5 0 5 -4v-69q0 -5 -5 -5h-5q-111 0 -165 100 q-120 -33 -185 -65q-127 -63 -128 -155q0 -64 37 -94t116 -30q50 0 147 16l11 -69q-112 -24 -201.5 -24zM470.5 -166q-26.5 0 -41.5 15.5t-15 44.5t14.5 44.5t41.5 15.5t41.5 -16.5t14.5 -43.5t-14.5 -43.5t-41 -16.5zM298 -166q-25 0 -41 14t-16 46t16 46t40.5 14t40 -15.5 t15.5 -44.5t-15 -44.5t-40 -15.5z" />
<glyph unicode="&#x684;" horiz-adv-x="580" arabic-form="initial" d="M515 0h-520q-5 0 -5 5v69q0 4 5 4h429q-37 37 -63 183q-15 86 -42.5 121t-90 35t-138.5 -40l-35 69q76 49 187.5 49t160.5 -87q24 -43 38 -128q26 -160 74 -204v-76zM234.5 -200q-26.5 0 -41.5 15.5t-15 44.5t15 44.5t41.5 15.5t41 -16.5t14.5 -43.5t-14.5 -43.5 t-41 -16.5zM234.5 -381q-26.5 0 -41.5 15.5t-15 44.5t15 44.5t41 15.5t41 -16t15 -43.5t-14.5 -44t-41 -16.5z" />
<glyph unicode="&#x684;" horiz-adv-x="574" arabic-form="medial" d="M579 78q5 0 5 -4v-69q0 -5 -5 -5h-584q-5 0 -5 5v69q0 4 5 4h429q-39 39 -63 183q-14 85 -42.5 120.5t-90.5 35.5t-138 -40l-35 69q76 49 187.5 49t160.5 -87q24 -43 37 -124q23 -157 72 -206h67zM234.5 -200q-26.5 0 -41.5 15.5t-15 44.5t15 44.5t41.5 15.5t41 -16.5 t14.5 -43.5t-14.5 -43.5t-41 -16.5zM234.5 -381q-26.5 0 -41.5 15.5t-15 44.5t15 44.5t41 15.5t41 -16t15 -43.5t-14.5 -44t-41 -16.5z" />
<glyph unicode="&#x684;" horiz-adv-x="613" arabic-form="final" d="M614 0q-111 0 -165 100q-120 -33 -185 -65q-127 -63 -128 -155q0 -124 136 -124l-19 -77q-97 0 -152.5 50.5t-55.5 142.5q0 128 155 214q80 44 221 85q-11 34 -22 101.5t-47 106t-97 38.5q-36 0 -86 -14.5t-89 -35.5l-35 69q39 25 97 42t114 17q191 0 224 -211 q16 -96 31 -132q30 -74 103 -74h5q5 0 5 -4v-69q0 -5 -5 -5h-5zM392.5 -139q-26.5 0 -41.5 15.5t-15 44.5t15 44.5t41.5 15.5t41 -16.5t14.5 -43.5t-14.5 -43.5t-41 -16.5zM392.5 -320q-26.5 0 -41.5 15.5t-15 44.5t15 44.5t41 15.5t41 -16t15 -43.5t-14.5 -44t-41 -16.5z " />
<glyph unicode="&#x685;" horiz-adv-x="580" d="M515 0h-520q-5 0 -5 5v69q0 4 5 4h429q-37 37 -63 183q-15 86 -42.5 121t-90 35t-138.5 -40l-35 69q76 49 187.5 49t160.5 -87q24 -43 38 -128q26 -160 74 -204v-76zM316.5 580q-26.5 0 -41.5 15.5t-15 44.5t15 44.5t41.5 15.5t41 -16.5t14.5 -43.5t-14.5 -43.5 t-41 -16.5zM145 580q-25 0 -41.5 14t-16.5 46t16.5 46t41.5 14t39.5 -16.5t14.5 -43.5t-14.5 -43.5t-39.5 -16.5zM228.5 715q-21.5 0 -36.5 13t-15 42t15 42t36.5 13t37 -13.5t15.5 -42t-15.5 -41.5t-37 -13z" />
<glyph unicode="&#x685;" horiz-adv-x="574" d="M579 78q5 0 5 -4v-69q0 -5 -5 -5h-584q-5 0 -5 5v69q0 4 5 4h429q-39 39 -63 183q-14 85 -42.5 120.5t-90.5 35.5t-138 -40l-35 69q76 49 187.5 49t160.5 -87q24 -43 37 -124q23 -157 72 -206h67zM316.5 580q-26.5 0 -41.5 15.5t-15 44.5t15 44.5t41.5 15.5t41 -16.5 t14.5 -43.5t-14.5 -43.5t-41 -16.5zM145 580q-25 0 -41.5 14t-16.5 46t16.5 46t41.5 14t39.5 -16.5t14.5 -43.5t-14.5 -43.5t-39.5 -16.5zM228.5 715q-21.5 0 -36.5 13t-15 42t15 42t36.5 13t37 -13.5t15.5 -42t-15.5 -41.5t-37 -13z" />
<glyph unicode="&#x685;" horiz-adv-x="613" d="M245.5 -321q-89.5 0 -145 50.5t-55.5 142.5q0 128 155 214q80 44 221 85q-11 34 -22 101.5t-47 106t-97 38.5q-36 0 -86 -14.5t-89 -35.5l-35 69q39 25 97 42t114 17q191 0 224 -211q16 -96 31 -132q30 -74 103 -74h5q5 0 5 -4v-69q0 -5 -5 -5h-5q-111 0 -165 100 q-120 -33 -185 -65q-127 -63 -128 -155q0 -64 37 -94t116 -30q50 0 147 16l11 -69q-112 -24 -201.5 -24zM316.5 580q-26.5 0 -41.5 15.5t-15 44.5t15 44.5t41.5 15.5t41 -16.5t14.5 -43.5t-14.5 -43.5t-41 -16.5zM145 580q-25 0 -41.5 14t-16.5 46t16.5 46t41.5 14 t39.5 -16.5t14.5 -43.5t-14.5 -43.5t-39.5 -16.5zM228.5 715q-21.5 0 -36.5 13t-15 42t15 42t36.5 13t37 -13.5t15.5 -42t-15.5 -41.5t-37 -13z" />
<glyph unicode="&#x687;" horiz-adv-x="580" arabic-form="initial" d="M515 0h-520q-5 0 -5 5v69q0 4 5 4h429q-37 37 -63 183q-15 86 -42.5 121t-90 35t-138.5 -40l-35 69q76 49 187.5 49t160.5 -87q24 -43 38 -128q26 -160 74 -204v-76zM314.5 -205q-22.5 0 -36.5 12.5t-14 41.5t14 41.5t37 12.5t36.5 -14.5t13.5 -39.5t-14 -39.5 t-36.5 -14.5zM157.5 -205q-21.5 0 -35.5 14t-14 41t15 40t35.5 13t35.5 -13t15 -41.5t-15 -41t-36.5 -12.5zM314.5 -372q-22.5 0 -36.5 12.5t-14 41.5t14 41.5t37 12.5t36.5 -14.5t13.5 -39.5t-14 -39.5t-36.5 -14.5zM157.5 -372q-21.5 0 -35.5 14t-14 41t15 40t35.5 13 t35.5 -13t15 -41.5t-15 -41t-36.5 -12.5z" />
<glyph unicode="&#x687;" horiz-adv-x="574" arabic-form="medial" d="M579 78q5 0 5 -4v-69q0 -5 -5 -5h-584q-5 0 -5 5v69q0 4 5 4h429q-39 39 -63 183q-14 85 -42.5 120.5t-90.5 35.5t-138 -40l-35 69q76 49 187.5 49t160.5 -87q24 -43 37 -124q23 -157 72 -206h67zM314.5 -205q-22.5 0 -36.5 12.5t-14 41.5t14 41.5t37 12.5t36.5 -14.5 t13.5 -39.5t-14 -39.5t-36.5 -14.5zM157.5 -205q-21.5 0 -35.5 14t-14 41t15 40t35.5 13t35.5 -13t15 -41.5t-15 -41t-36.5 -12.5zM314.5 -372q-22.5 0 -36.5 12.5t-14 41.5t14 41.5t37 12.5t36.5 -14.5t13.5 -39.5t-14 -39.5t-36.5 -14.5zM157.5 -372q-21.5 0 -35.5 14 t-14 41t15 40t35.5 13t35.5 -13t15 -41.5t-15 -41t-36.5 -12.5z" />
<glyph unicode="&#x687;" horiz-adv-x="613" arabic-form="final" d="M614 0q-111 0 -165 100q-120 -33 -185 -65q-127 -63 -128 -155q0 -124 136 -124l-19 -77q-97 0 -152.5 50.5t-55.5 142.5q0 128 155 214q80 44 221 85q-11 34 -22 101.5t-47 106t-97 38.5q-36 0 -86 -14.5t-89 -35.5l-35 69q39 25 97 42t114 17q191 0 224 -211 q16 -96 31 -132q30 -74 103 -74h5q5 0 5 -4v-69q0 -5 -5 -5h-5zM514 -151q-22 0 -36.5 13t-14.5 41.5t14.5 41t37 12.5t36 -14.5t13.5 -39.5t-14 -39.5t-36 -14.5zM356.5 -151q-21.5 0 -35.5 14t-14 41.5t15 40t35.5 12.5t35.5 -12.5t15 -41t-15 -41.5t-36.5 -13zM514 -318 q-22 0 -36.5 13t-14.5 41.5t14.5 41t37 12.5t36 -14.5t13.5 -39.5t-14 -39.5t-36 -14.5zM356.5 -318q-21.5 0 -35.5 14t-14 41.5t15 40t35.5 12.5t35.5 -12.5t15 -41t-15 -41.5t-36.5 -13z" />
<glyph unicode="&#x689;" horiz-adv-x="568" d="M45 78h333q-20 134 -75 228.5t-157 163.5l32 76q115 -61 187.5 -179t97.5 -289h111q5 0 5 -4v-69q0 -5 -5 -5h-223q13 -23 13 -54q0 -48 -31 -77t-81 -29t-79.5 28t-29.5 69t12 63h-110v78zM252 -109q24 0 39.5 14t15.5 40.5t-14 39.5t-33 15h-17q-19 -2 -32 -15 q-14 -13 -14 -40q0 -54 55 -54z" />
<glyph unicode="&#x68a;" horiz-adv-x="568" d="M45 78h333q-20 134 -75 228.5t-157 163.5l32 76q115 -61 187.5 -179t97.5 -289h111q5 0 5 -4v-69q0 -5 -5 -5h-529v78zM259.5 -200q-26.5 0 -41.5 15.5t-15 44.5t14.5 44.5t41.5 15.5t41.5 -16.5t14.5 -43.5t-14.5 -43.5t-41 -16.5z" />
<glyph unicode="&#x68b;" horiz-adv-x="568" d="M45 78h333q-20 134 -75 228.5t-157 163.5l32 76q115 -61 187.5 -179t97.5 -289h111q5 0 5 -4v-69q0 -5 -5 -5h-529v78zM215 754q-46 0 -73 -67v-10h112v25q0 26 -9 39t-30 13zM220 797q74 0 74 -87v-76h-207v43h15v182h40v-127q27 65 78 65zM259.5 -200 q-26.5 0 -41.5 15.5t-15 44.5t14.5 44.5t41.5 15.5t41.5 -16.5t14.5 -43.5t-14.5 -43.5t-41 -16.5z" />
<glyph unicode="&#x68c;" horiz-adv-x="568" arabic-form="final" d="M45 78h333q-20 134 -75 228.5t-157 163.5l32 76q115 -61 187.5 -179t97.5 -289h111q5 0 5 -4v-69q0 -5 -5 -5h-529v78zM264.5 640q-26.5 0 -41.5 15.5t-15 44.5t15 44.5t41.5 15.5t41 -16t14.5 -43.5t-14.5 -44t-41 -16.5zM92.5 640q-24.5 0 -41 14t-16.5 46t16.5 46 t41 14t39.5 -15.5t15 -44.5t-15 -44.5t-39.5 -15.5z" />
<glyph unicode="&#x68d;" horiz-adv-x="568" arabic-form="final" d="M45 78h333q-20 134 -75 228.5t-157 163.5l32 76q115 -61 187.5 -179t97.5 -289h111q5 0 5 -4v-69q0 -5 -5 -5h-529v78zM346.5 -200q-26.5 0 -41.5 15.5t-15 44.5t15 44.5t41.5 15.5t41 -16.5t14.5 -43.5t-14.5 -43.5t-41 -16.5zM174.5 -200q-24.5 0 -41 14t-16.5 46 t16.5 46t41 14t39.5 -15.5t15 -44.5t-15 -44.5t-39.5 -15.5z" />
<glyph unicode="&#x68e;" horiz-adv-x="568" arabic-form="final" d="M45 78h333q-20 134 -75 228.5t-157 163.5l32 76q115 -61 187.5 -179t97.5 -289h111q5 0 5 -4v-69q0 -5 -5 -5h-529v78zM264.5 640q-26.5 0 -41.5 15.5t-15 44.5t14.5 44.5t41.5 15.5t41.5 -16t14.5 -43.5t-14.5 -44t-41 -16.5zM92.5 640q-25.5 0 -41.5 14t-16 46t16 46 t41.5 14t40 -16t14.5 -43.5t-14.5 -44t-40 -16.5zM176 775q-22 0 -36.5 13t-14.5 42t14.5 42t36.5 13t37.5 -13.5t15.5 -42t-15.5 -41.5t-37.5 -13z" />
<glyph unicode="&#x68f;" horiz-adv-x="568" d="M45 78h333q-20 134 -75 228.5t-157 163.5l32 76q115 -61 187.5 -179t97.5 -289h111q5 0 5 -4v-69q0 -5 -5 -5h-529v78zM93 880q26 0 41 -15.5t15 -44t-14.5 -44.5t-41 -16t-41.5 16t-15 44.5t15 44t41 15.5zM264.5 880q25.5 0 41.5 -14t16 -45.5t-16 -46t-41.5 -14.5 t-40 16.5t-14.5 44t14.5 43.5t40 16zM181 745q22 0 36.5 -13t14.5 -41.5t-14.5 -42t-36.5 -13.5t-37.5 13.5t-15.5 42t15.5 41.5t37.5 13z" />
<glyph unicode="&#x690;" horiz-adv-x="568" d="M45 78h333q-20 134 -75 228.5t-157 163.5l32 76q115 -61 187.5 -179t97.5 -289h111q5 0 5 -4v-69q0 -5 -5 -5h-529v78zM256.5 762q-22.5 0 -37 12.5t-14.5 41.5t14.5 41.5t36.5 12.5t36 -14.5t14 -39.5t-13.5 -39.5t-36 -14.5zM100 762q-24 0 -37.5 14t-13.5 41t15 40 t36 13t35.5 -12.5t14.5 -40t-13 -41.5t-37 -14zM256.5 595q-22.5 0 -37 12.5t-14.5 41.5t14.5 41.5t36.5 12.5t36 -14.5t14 -39.5t-13.5 -39.5t-36 -14.5zM100 595q-24 0 -37.5 14t-13.5 41t15 40t36 13t35.5 -12.5t14.5 -40t-13 -41.5t-37 -14z" />
<glyph unicode="&#x692;" horiz-adv-x="358" d="M65 -162q40 0 65.5 36.5t25.5 96.5v514h84v-407h124q5 0 5 -4v-69q0 -5 -5 -5h-124v-24q0 -101 -46 -158.5t-132 -57.5q-48 0 -102 28l26 67q39 -17 79 -17zM356 782l-110 -199h-62l-111 199h78l63 -129l65 129h77z" />
<glyph unicode="&#x693;" horiz-adv-x="358" d="M65 -162q40 0 65.5 36.5t25.5 96.5v514h84v-407h124q5 0 5 -4v-69q0 -5 -5 -5h-124v-24q0 -76 -26 -128h2q50 0 81 -28.5t31 -76t-31 -76.5t-81 -29t-79.5 28t-29.5 77q0 11 1 22q-21 -5 -46 -5q-48 0 -102 28l26 67q39 -17 79 -17zM216 -312q24 0 39.5 14.5t15.5 41 t-15.5 40.5t-40 14t-39.5 -14t-15 -41q0 -55 55 -55z" />
<glyph unicode="&#x694;" horiz-adv-x="358" d="M65 -162q40 0 65.5 36.5t25.5 96.5v514h84v-407h124q5 0 5 -4v-69q0 -5 -5 -5h-124v-24q0 -101 -46 -158.5t-132 -57.5q-48 0 -102 28l26 67q39 -17 79 -17zM153.5 -413q-26.5 0 -41.5 16t-15 44.5t14.5 44.5t41.5 16t41.5 -16.5t14.5 -44t-14.5 -44t-41 -16.5z" />
<glyph unicode="&#x695;" horiz-adv-x="358" d="M65 -162q40 0 65.5 36.5t25.5 96.5v514h84v-407h124q5 0 5 -4v-69q0 -5 -5 -5h-124v-24q0 -101 -46 -158.5t-132 -57.5q-48 0 -102 28l26 67q39 -17 79 -17zM283 -318l-110 -200h-62l-111 200h78l63 -129l65 129h77z" />
<glyph unicode="&#x696;" horiz-adv-x="358" d="M65 -162q40 0 65.5 36.5t25.5 96.5v514h84v-407h124q5 0 5 -4v-69q0 -5 -5 -5h-124v-24q0 -101 -46 -158.5t-132 -57.5q-48 0 -102 28l26 67q39 -17 79 -17zM153.5 -413q-26.5 0 -41.5 16t-15 44.5t14.5 44.5t41.5 16t41.5 -16.5t14.5 -44t-14.5 -44t-41 -16.5zM76.5 0 q-26.5 0 -41.5 15.5t-15 44.5t15 44.5t41.5 15.5t41 -16.5t14.5 -43.5t-14.5 -43.5t-41 -16.5z" />
<glyph unicode="&#x697;" horiz-adv-x="358" d="M65 -162q40 0 65.5 36.5t25.5 96.5v514h84v-407h124q5 0 5 -4v-69q0 -5 -5 -5h-124v-24q0 -101 -46 -158.5t-132 -57.5q-48 0 -102 28l26 67q39 -17 79 -17zM300.5 580q-26.5 0 -41.5 15.5t-15 44.5t14.5 44.5t41.5 15.5t41.5 -16.5t14.5 -43.5t-14.5 -43.5t-41 -16.5z M128.5 580q-24.5 0 -41 14t-16.5 46t16.5 46t40.5 14t39.5 -15.5t15.5 -44.5t-15 -44.5t-39.5 -15.5z" />
<glyph unicode="&#x699;" horiz-adv-x="358" d="M65 -162q40 0 65.5 36.5t25.5 96.5v514h84v-407h124q5 0 5 -4v-69q0 -5 -5 -5h-124v-24q0 -101 -46 -158.5t-132 -57.5q-48 0 -102 28l26 67q39 -17 79 -17zM293 750q-22 0 -36.5 12.5t-14.5 41.5t14.5 41.5t36.5 12.5t36 -14t14 -39.5t-14 -40t-36 -14.5zM136.5 750 q-23.5 0 -37 14t-13.5 41.5t15 40t35.5 12.5t35.5 -12.5t15 -40t-13.5 -41.5t-37 -14zM293 583q-22 0 -36.5 12.5t-14.5 41.5t14.5 41.5t36.5 12.5t36 -14t14 -39.5t-14 -40t-36 -14.5zM136.5 583q-23.5 0 -37 14t-13.5 41.5t15 40t35.5 12.5t35.5 -12.5t15 -40t-13.5 -41.5 t-37 -14z" />
<glyph unicode="&#x69a;" horiz-adv-x="877" d="M-5 0q-5 0 -5 5v69q0 4 5 4h143v329h85v-329h108q48 0 75 32t27 84v213h85v-240l-1 -11q25 -43 54.5 -60.5t75.5 -17.5h61v407h85v-485h-146q-45 0 -83 15t-78 55q-50 -70 -146 -70h-345zM477.5 580q-26.5 0 -41.5 15.5t-15 44.5t15 44.5t41.5 15.5t41 -16.5t14.5 -43.5 t-14.5 -43.5t-41 -16.5zM473.5 -200q-26.5 0 -41.5 15.5t-15 44.5t15 44.5t41.5 15.5t41 -16.5t14.5 -43.5t-14.5 -43.5t-41 -16.5z" />
<glyph unicode="&#x69a;" horiz-adv-x="921" d="M-5 0q-5 0 -5 5v69q0 4 5 4h143v329h85v-329h108q48 0 75 32t27 84v213h85v-240l-1 -11q25 -43 54.5 -60.5t75.5 -17.5h61v407h85v-407h134q5 0 5 -4v-69q0 -5 -5 -5h-280q-45 0 -83 15t-78 55q-50 -70 -146 -70h-345zM482.5 580q-26.5 0 -41.5 15.5t-15 44.5t15 44.5 t41.5 15.5t41 -16.5t14.5 -43.5t-14.5 -43.5t-41 -16.5zM478.5 -200q-26.5 0 -41.5 15.5t-15 44.5t15 44.5t41.5 15.5t41 -16.5t14.5 -43.5t-14.5 -43.5t-41 -16.5z" />
<glyph unicode="&#x69a;" horiz-adv-x="1286" d="M65 23.5q0 127.5 41 228.5h83q-34 -86 -34 -236q0 -85 34 -131.5t96 -46.5h49q87 0 127.5 39.5t40.5 119.5v410h85v-329h108q48 0 75 32t27 84v213h85v-240l-1 -11q25 -43 55 -60.5t75 -17.5h61v407h85v-407h134q5 0 5 -4v-69q0 -5 -5 -5h-280q-45 0 -82.5 15t-78.5 54 q-51 -69 -146 -69h-117q0 -118 -60 -179t-189 -61h-72q-93 0 -147 68t-54 195.5zM834.5 -200q-26.5 0 -41.5 15.5t-15 44.5t15 44.5t41.5 15.5t41 -16.5t14.5 -43.5t-14.5 -43.5t-41 -16.5zM838.5 580q-26.5 0 -41.5 15.5t-15 44.5t15 44.5t41.5 15.5t41 -16.5t14.5 -43.5 t-14.5 -43.5t-41 -16.5z" />
<glyph unicode="&#x69b;" horiz-adv-x="877" d="M-5 0q-5 0 -5 5v69q0 4 5 4h143v329h85v-329h108q48 0 75 32t27 84v213h85v-240l-1 -11q25 -43 54.5 -60.5t75.5 -17.5h61v407h85v-485h-146q-45 0 -83 15t-78 55q-50 -70 -146 -70h-345zM560.5 -214q-26.5 0 -41.5 15.5t-15 44.5t15 44.5t41 15.5t41 -16t15 -43.5 t-14.5 -44t-41 -16.5zM389 -214q-25 0 -41.5 14t-16.5 45.5t16.5 46t41.5 14.5t39.5 -16t14.5 -43.5t-14.5 -44t-39.5 -16.5zM472.5 -336q-21.5 0 -36.5 13t-15 42t15 42t36.5 13t37 -13t15.5 -42t-15.5 -42t-37 -13z" />
<glyph unicode="&#x69b;" horiz-adv-x="921" d="M-5 0q-5 0 -5 5v69q0 4 5 4h143v329h85v-329h108q48 0 75 32t27 84v213h85v-240l-1 -11q25 -43 54.5 -60.5t75.5 -17.5h61v407h85v-407h134q5 0 5 -4v-69q0 -5 -5 -5h-280q-45 0 -83 15t-78 55q-50 -70 -146 -70h-345zM560.5 -214q-26.5 0 -41.5 15.5t-15 44.5t15 44.5 t41 15.5t41 -16t15 -43.5t-14.5 -44t-41 -16.5zM389 -214q-25 0 -41.5 14t-16.5 45.5t16.5 46t41.5 14.5t39.5 -16t14.5 -43.5t-14.5 -44t-39.5 -16.5zM472.5 -336q-21.5 0 -36.5 13t-15 42t15 42t36.5 13t37 -13t15.5 -42t-15.5 -42t-37 -13z" />
<glyph unicode="&#x69b;" horiz-adv-x="1286" d="M65 23.5q0 127.5 41 228.5h83q-34 -86 -34 -236q0 -85 34 -131.5t96 -46.5h49q87 0 127.5 39.5t40.5 119.5v410h85v-329h108q48 0 75 32t27 84v213h85v-240l-1 -11q25 -43 55 -60.5t75 -17.5h61v407h85v-407h134q5 0 5 -4v-69q0 -5 -5 -5h-280q-45 0 -82.5 15t-78.5 54 q-51 -69 -146 -69h-117q0 -118 -60 -179t-189 -61h-72q-93 0 -147 68t-54 195.5zM920.5 -214q-26.5 0 -41.5 15.5t-15 44.5t15 44.5t41 15.5t41 -16t15 -43.5t-14.5 -44t-41 -16.5zM749 -214q-25 0 -41.5 14t-16.5 45.5t16.5 46t41 14.5t39.5 -16t15 -43.5t-14.5 -44 t-39.5 -16.5zM832.5 -336q-21.5 0 -36.5 13t-15 42t15 42t36.5 13t37 -13t15.5 -42t-15.5 -42t-37 -13z" />
<glyph unicode="&#x69c;" horiz-adv-x="877" d="M-5 0q-5 0 -5 5v69q0 4 5 4h143v329h85v-329h108q48 0 75 32t27 84v213h85v-240l-1 -11q25 -43 54.5 -60.5t75.5 -17.5h61v407h85v-485h-146q-45 0 -83 15t-78 55q-50 -70 -146 -70h-345zM560.5 -214q-26.5 0 -41.5 15.5t-15 44.5t15 44.5t41 15.5t41 -16t15 -43.5 t-14.5 -44t-41 -16.5zM389 -214q-25 0 -41.5 14t-16.5 45.5t16.5 46t41.5 14.5t39.5 -16t14.5 -43.5t-14.5 -44t-39.5 -16.5zM472.5 -336q-21.5 0 -36.5 13t-15 42t15 42t36.5 13t37 -13t15.5 -42t-15.5 -42t-37 -13zM555.5 580q-26.5 0 -41.5 15.5t-15 44.5t14.5 44.5 t41.5 15.5t41.5 -16.5t14.5 -43.5t-14.5 -43.5t-41 -16.5zM383.5 580q-25.5 0 -41.5 14t-16 46t16 46t41.5 14t40 -16.5t14.5 -43.5t-14.5 -43.5t-40 -16.5zM467 715q-22 0 -36.5 13t-14.5 42t14.5 42t36.5 13t37.5 -13.5t15.5 -42t-15.5 -41.5t-37.5 -13z" />
<glyph unicode="&#x69c;" horiz-adv-x="921" d="M-5 0q-5 0 -5 5v69q0 4 5 4h143v329h85v-329h108q48 0 75 32t27 84v213h85v-240l-1 -11q25 -43 54.5 -60.5t75.5 -17.5h61v407h85v-407h134q5 0 5 -4v-69q0 -5 -5 -5h-280q-45 0 -83 15t-78 55q-50 -70 -146 -70h-345zM560.5 -214q-26.5 0 -41.5 15.5t-15 44.5t15 44.5 t41 15.5t41 -16t15 -43.5t-14.5 -44t-41 -16.5zM389 -214q-25 0 -41.5 14t-16.5 45.5t16.5 46t41.5 14.5t39.5 -16t14.5 -43.5t-14.5 -44t-39.5 -16.5zM472.5 -336q-21.5 0 -36.5 13t-15 42t15 42t36.5 13t37 -13t15.5 -42t-15.5 -42t-37 -13zM555.5 580q-26.5 0 -41.5 15.5 t-15 44.5t14.5 44.5t41.5 15.5t41.5 -16.5t14.5 -43.5t-14.5 -43.5t-41 -16.5zM383.5 580q-25.5 0 -41.5 14t-16 46t16 46t41.5 14t40 -16.5t14.5 -43.5t-14.5 -43.5t-40 -16.5zM467 715q-22 0 -36.5 13t-14.5 42t14.5 42t36.5 13t37.5 -13.5t15.5 -42t-15.5 -41.5 t-37.5 -13z" />
<glyph unicode="&#x69c;" horiz-adv-x="1286" d="M65 23.5q0 127.5 41 228.5h83q-34 -86 -34 -236q0 -85 34 -131.5t96 -46.5h49q87 0 127.5 39.5t40.5 119.5v410h85v-329h108q48 0 75 32t27 84v213h85v-240l-1 -11q25 -43 55 -60.5t75 -17.5h61v407h85v-407h134q5 0 5 -4v-69q0 -5 -5 -5h-280q-45 0 -82.5 15t-78.5 54 q-51 -69 -146 -69h-117q0 -118 -60 -179t-189 -61h-72q-93 0 -147 68t-54 195.5zM920.5 -214q-26.5 0 -41.5 15.5t-15 44.5t15 44.5t41 15.5t41 -16t15 -43.5t-14.5 -44t-41 -16.5zM749 -214q-25 0 -41.5 14t-16.5 45.5t16.5 46t41 14.5t39.5 -16t15 -43.5t-14.5 -44 t-39.5 -16.5zM832.5 -336q-21.5 0 -36.5 13t-15 42t15 42t36.5 13t37 -13t15.5 -42t-15.5 -42t-37 -13zM930.5 580q-26.5 0 -41.5 15.5t-15 44.5t14.5 44.5t41.5 15.5t41.5 -16.5t14.5 -43.5t-14.5 -43.5t-41 -16.5zM758.5 580q-25.5 0 -41.5 14t-16 46t16 46t41.5 14 t40 -16.5t14.5 -43.5t-14.5 -43.5t-40 -16.5zM842 715q-22 0 -36.5 13t-14.5 42t14.5 42t36.5 13t37.5 -13.5t15.5 -42t-15.5 -41.5t-37.5 -13z" />
<glyph unicode="&#x69d;" horiz-adv-x="783" d="M623 78v159q0 92 -40.5 135.5t-121.5 43.5q-154 0 -259 -256v-82h421zM-5 0q-5 0 -5 5v69q0 4 5 4h122v377h85v-185q47 112 118 168.5t159 56.5q113 0 171 -61.5t58 -192.5v-241h-713zM494.5 -200q-26.5 0 -41.5 15.5t-15 44.5t15 44.5t41.5 15.5t41 -16.5t14.5 -43.5 t-14.5 -43.5t-41 -16.5zM322.5 -200q-24.5 0 -41 14t-16.5 46t16.5 46t41 14t39.5 -15.5t15 -44.5t-15 -44.5t-39.5 -15.5z" />
<glyph unicode="&#x69d;" horiz-adv-x="834" d="M623 78v159q0 92 -40.5 135.5t-121.5 43.5q-154 0 -259 -256v-82h421zM-5 0q-5 0 -5 5v69q0 4 5 4h122v377h85v-185q47 112 118 168.5t159 56.5q113 0 171 -61.5t58 -192.5v-163h132q5 0 5 -4v-69q0 -5 -5 -5h-845zM494.5 -200q-26.5 0 -41.5 15.5t-15 44.5t15 44.5 t41.5 15.5t41 -16.5t14.5 -43.5t-14.5 -43.5t-41 -16.5zM322.5 -200q-24.5 0 -41 14t-16.5 46t16.5 46t41 14t39.5 -15.5t15 -44.5t-15 -44.5t-39.5 -15.5z" />
<glyph unicode="&#x69d;" horiz-adv-x="1222" d="M1008 78v159q0 92 -40 135.5t-122 43.5q-155 0 -259 -254v-84h421zM65 23.5q0 127.5 41 228.5h83q-34 -86 -34 -236q0 -85 34 -131.5t96 -46.5h49q87 0 127.5 39.5t40.5 119.5v488h85v-215q47 112 117.5 168.5t159.5 56.5q113 0 171 -61.5t58 -192.5v-163h134q5 0 5 -4 v-69q0 -5 -5 -5h-640q0 -121 -60 -180.5t-189 -59.5h-72q-93 0 -147 68t-54 195.5zM903.5 -200q-26.5 0 -41.5 15.5t-15 44.5t14.5 44.5t41.5 15.5t41.5 -16.5t14.5 -43.5t-14.5 -43.5t-41 -16.5zM731.5 -200q-24.5 0 -41 14t-16.5 46t16.5 46t40.5 14t39.5 -15.5 t15.5 -44.5t-15 -44.5t-39.5 -15.5z" />
<glyph unicode="&#x69e;" horiz-adv-x="783" d="M623 78v159q0 92 -40.5 135.5t-121.5 43.5q-154 0 -259 -256v-82h421zM-5 0q-5 0 -5 5v69q0 4 5 4h122v377h85v-185q47 112 118 168.5t159 56.5q113 0 171 -61.5t58 -192.5v-241h-713zM587.5 580q-26.5 0 -41.5 15.5t-15 44.5t15 44.5t41.5 15.5t41 -16.5t14.5 -43.5 t-14.5 -43.5t-41 -16.5zM416 580q-25 0 -41.5 14t-16.5 46t16.5 46t41.5 14t39.5 -16.5t14.5 -43.5t-14.5 -43.5t-39.5 -16.5zM499.5 715q-21.5 0 -36.5 13t-15 42t15 42t36.5 13t37 -13.5t15.5 -42t-15.5 -41.5t-37 -13z" />
<glyph unicode="&#x69e;" horiz-adv-x="834" d="M623 78v159q0 92 -40.5 135.5t-121.5 43.5q-154 0 -259 -256v-82h421zM-5 0q-5 0 -5 5v69q0 4 5 4h122v377h85v-185q47 112 118 168.5t159 56.5q113 0 171 -61.5t58 -192.5v-163h132q5 0 5 -4v-69q0 -5 -5 -5h-845zM587.5 580q-26.5 0 -41.5 15.5t-15 44.5t15 44.5 t41.5 15.5t41 -16.5t14.5 -43.5t-14.5 -43.5t-41 -16.5zM416 580q-25 0 -41.5 14t-16.5 46t16.5 46t41.5 14t39.5 -16.5t14.5 -43.5t-14.5 -43.5t-39.5 -16.5zM499.5 715q-21.5 0 -36.5 13t-15 42t15 42t36.5 13t37 -13.5t15.5 -42t-15.5 -41.5t-37 -13z" />
<glyph unicode="&#x69e;" horiz-adv-x="1222" d="M1008 78v159q0 92 -40 135.5t-122 43.5q-155 0 -259 -254v-84h421zM65 23.5q0 127.5 41 228.5h83q-34 -86 -34 -236q0 -85 34 -131.5t96 -46.5h49q87 0 127.5 39.5t40.5 119.5v488h85v-215q47 112 117.5 168.5t159.5 56.5q113 0 171 -61.5t58 -192.5v-163h134q5 0 5 -4 v-69q0 -5 -5 -5h-640q0 -121 -60 -180.5t-189 -59.5h-72q-93 0 -147 68t-54 195.5zM930.5 580q-26.5 0 -41.5 15.5t-15 44.5t14.5 44.5t41.5 15.5t41.5 -16.5t14.5 -43.5t-14.5 -43.5t-41 -16.5zM758.5 580q-25.5 0 -41.5 14t-16 46t16 46t41.5 14t40 -16.5t14.5 -43.5 t-14.5 -43.5t-40 -16.5zM842 715q-22 0 -36.5 13t-14.5 42t14.5 42t36.5 13t37.5 -13.5t15.5 -42t-15.5 -41.5t-37.5 -13z" />
<glyph unicode="&#x69f;" horiz-adv-x="772" d="M623 78v159q0 92 -40.5 135.5t-121.5 43.5q-154 0 -259 -256v-82h421zM-5 0q-5 0 -5 5v69q0 4 5 4h122v682h85v-490q47 112 118 168.5t159 56.5q113 0 171 -61.5t58 -192.5v-241h-713zM561 580q-26 0 -41.5 15.5t-15.5 44.5t15 44.5t41.5 15.5t41.5 -16.5t15 -43.5 t-15 -43.5t-41 -16.5zM389.5 580q-25.5 0 -41.5 14t-16 46t16 46t41.5 14t40 -16.5t14.5 -43.5t-14.5 -43.5t-40 -16.5zM473 715q-22 0 -36.5 13t-14.5 42t14.5 42t36.5 13t37 -13.5t15 -42t-15 -41.5t-37 -13z" />
<glyph unicode="&#x69f;" horiz-adv-x="834" d="M623 78v159q0 92 -40.5 135.5t-121.5 43.5q-154 0 -259 -256v-82h421zM-5 0q-5 0 -5 5v69q0 4 5 4h122v682h85v-490q47 112 118 168.5t159 56.5q113 0 171 -61.5t58 -192.5v-163h132q5 0 5 -4v-69q0 -5 -5 -5h-845zM561 580q-26 0 -41.5 15.5t-15.5 44.5t15 44.5 t41.5 15.5t41.5 -16.5t15 -43.5t-15 -43.5t-41 -16.5zM389.5 580q-25.5 0 -41.5 14t-16 46t16 46t41.5 14t40 -16.5t14.5 -43.5t-14.5 -43.5t-40 -16.5zM473 715q-22 0 -36.5 13t-14.5 42t14.5 42t36.5 13t37 -13.5t15 -42t-15 -41.5t-37 -13z" />
<glyph unicode="&#x69f;" horiz-adv-x="845" d="M471 416q-154 0 -259 -256v-82h421v159q0 92 -40 135.5t-122 43.5zM30 78h97v682h85v-490q47 112 117.5 168.5t159.5 56.5q113 0 171 -61.5t58 -192.5v-163h132q5 0 5 -4v-69q0 -5 -5 -5h-820v78zM587.5 580q-26.5 0 -41.5 15.5t-15 44.5t15 44.5t41.5 15.5t41 -16.5 t14.5 -43.5t-14.5 -43.5t-41 -16.5zM416 580q-25 0 -41.5 14t-16.5 46t16.5 46t41.5 14t39.5 -16.5t14.5 -43.5t-14.5 -43.5t-39.5 -16.5zM499.5 715q-21.5 0 -36.5 13t-15 42t15 42t36.5 13t37 -13.5t15.5 -42t-15.5 -41.5t-37 -13z" />
<glyph unicode="&#x6a0;" horiz-adv-x="515" d="M-5 0q-5 0 -5 5v69q0 4 5 4h154q-32 27 -51.5 74t-19.5 104q0 113 65 176t173 63q83 0 139 -29l-27 -75q-62 26 -117 26q-142 0 -142 -165q0 -78 34 -126t89 -48h178v-78h-475zM402.5 580q-26.5 0 -41.5 15.5t-15 44.5t14.5 44.5t41.5 15.5t41.5 -16.5t14.5 -43.5 t-14.5 -43.5t-41 -16.5zM231 580q-25 0 -41.5 14t-16.5 46t16.5 46t41.5 14t39.5 -16.5t14.5 -43.5t-14.5 -43.5t-39.5 -16.5zM314 715q-22 0 -36.5 13t-14.5 42t14.5 42t36.5 13t37.5 -13.5t15.5 -42t-15.5 -41.5t-37.5 -13z" />
<glyph unicode="&#x6a0;" horiz-adv-x="594" d="M305.5 439q-79.5 0 -164.5 -58q15 -68 56.5 -130.5t100.5 -107.5q77 52 114.5 114.5t42.5 144.5q-70 37 -149.5 37zM482 0q-92 0 -185 50q-88 -50 -186 -50h-116q-5 0 -5 5v69q0 4 5 4h115q72 0 119 20q-39 28 -79 80.5t-68 113.5t-37 115q55 51 123.5 80.5t135.5 29.5 t131 -20t112 -53q0 -104 -48 -195.5t-132 -149.5q56 -21 111 -21h121q5 0 5 -4v-69q0 -5 -5 -5h-117zM382.5 580q-26.5 0 -41.5 15.5t-15 44.5t14.5 44.5t41.5 15.5t41.5 -16.5t14.5 -43.5t-14.5 -43.5t-41 -16.5zM211 580q-25 0 -41.5 14t-16.5 46t16.5 46t41.5 14 t39.5 -16.5t14.5 -43.5t-14.5 -43.5t-39.5 -16.5zM294 715q-22 0 -36.5 13t-14.5 42t14.5 42t36.5 13t37.5 -13.5t15.5 -42t-15.5 -41.5t-37.5 -13z" />
<glyph unicode="&#x6a0;" horiz-adv-x="613" d="M325.5 439q-79.5 0 -164.5 -58q12 -58 53.5 -122.5t100.5 -112.5q77 53 115.5 115t44.5 141q-70 37 -149.5 37zM293.5 -321q-88.5 0 -144 51t-55.5 142q0 62 36.5 117.5t115.5 110.5q-71 68 -120.5 151.5t-60.5 155.5q55 51 123.5 80.5t135.5 29.5t131 -20t112 -53 q-2 -96 -48.5 -185.5t-133.5 -157.5q54 -23 113 -23h121q5 0 5 -4v-69q0 -5 -5 -5h-117q-38 0 -92 15t-96 38q-71 -45 -100 -86.5t-29 -86.5q0 -64 37 -94t116 -30q50 0 147 16l11 -69q-114 -24 -202.5 -24zM402.5 580q-26.5 0 -41.5 15.5t-15 44.5t14.5 44.5t41.5 15.5 t41.5 -16.5t14.5 -43.5t-14.5 -43.5t-41 -16.5zM231 580q-25 0 -41.5 14t-16.5 46t16.5 46t41.5 14t39.5 -16.5t14.5 -43.5t-14.5 -43.5t-39.5 -16.5zM314 715q-22 0 -36.5 13t-14.5 42t14.5 42t36.5 13t37.5 -13.5t15.5 -42t-15.5 -41.5t-37.5 -13z" />
<glyph unicode="&#x6a1;" horiz-adv-x="1032" d="M252 0q-86 0 -136.5 52t-50.5 142q0 33 7 76.5t18 73.5h80q-15 -73 -15 -135.5t26 -96.5t68 -34h325q-23 25 -37.5 67t-14.5 84q0 117 73.5 186.5t200.5 69.5h131v-407h110q5 0 5 -4v-69q0 -5 -5 -5h-785zM842 78v329h-43q-89 0 -138.5 -46.5t-49.5 -130.5 q0 -152 137 -152h94z" />
<glyph unicode="&#x6a2;" horiz-adv-x="584" d="M-5 0q-5 0 -5 5v69q0 4 5 4h152q-25 29 -38.5 70t-13.5 81q0 117 73.5 186.5t200.5 69.5h131v-485h-505zM415 78v329h-43q-89 0 -138.5 -46.5t-49.5 -130.5q0 -152 137 -152h94zM321.5 -200q-26.5 0 -41.5 15.5t-15 44.5t14.5 44.5t41.5 15.5t41.5 -16.5t14.5 -43.5 t-14.5 -43.5t-41 -16.5z" />
<glyph unicode="&#x6a2;" horiz-adv-x="601" d="M606 78q4 0 5 -5v-69q0 -4 -5 -4h-611q-5 0 -5 5v69q0 4 5 4h152q-25 29 -38.5 70t-13.5 81q0 119 74 187.5t200 68.5h131v-407h106zM415 78v329h-43q-89 0 -138.5 -47t-49.5 -131q0 -151 137 -151h94zM321.5 -200q-26.5 0 -41.5 15.5t-15 44.5t14.5 44.5t41.5 15.5 t41.5 -16.5t14.5 -43.5t-14.5 -43.5t-41 -16.5z" />
<glyph unicode="&#x6a2;" horiz-adv-x="1032" d="M252 0q-86 0 -136.5 52t-50.5 142q0 33 7 76.5t18 73.5h80q-15 -72 -15 -135t26 -97t68 -34h325q-23 25 -37.5 67t-14.5 84q0 117 73.5 186.5t200.5 69.5h131v-407h110q5 0 5 -4v-69q0 -5 -5 -5h-785zM842 78v329h-43q-89 0 -138.5 -46.5t-49.5 -130.5q0 -152 137 -152 h94zM750.5 -200q-26.5 0 -41.5 15.5t-15 44.5t15 44.5t41.5 15.5t41 -16.5t14.5 -43.5t-14.5 -43.5t-41 -16.5z" />
<glyph unicode="&#x6a3;" horiz-adv-x="584" d="M-5 0q-5 0 -5 5v69q0 4 5 4h152q-25 29 -38.5 70t-13.5 81q0 117 73.5 186.5t200.5 69.5h131v-485h-505zM415 78v329h-43q-89 0 -138.5 -46.5t-49.5 -130.5q0 -152 137 -152h94zM310.5 580q-26.5 0 -41.5 15.5t-15 44.5t15 44.5t41.5 15.5t41 -16.5t14.5 -43.5 t-14.5 -43.5t-41 -16.5zM321.5 -200q-26.5 0 -41.5 15.5t-15 44.5t14.5 44.5t41.5 15.5t41.5 -16.5t14.5 -43.5t-14.5 -43.5t-41 -16.5z" />
<glyph unicode="&#x6a3;" horiz-adv-x="601" d="M606 78q4 0 5 -5v-69q0 -4 -5 -4h-611q-5 0 -5 5v69q0 4 5 4h152q-25 29 -38.5 70t-13.5 81q0 119 74 187.5t200 68.5h131v-407h106zM415 78v329h-43q-89 0 -138.5 -47t-49.5 -131q0 -151 137 -151h94zM319.5 580q-26.5 0 -41.5 15.5t-15 44.5t14.5 44.5t41.5 15.5 t41.5 -16.5t14.5 -43.5t-14.5 -43.5t-41 -16.5zM321.5 -200q-26.5 0 -41.5 15.5t-15 44.5t14.5 44.5t41.5 15.5t41.5 -16.5t14.5 -43.5t-14.5 -43.5t-41 -16.5z" />
<glyph unicode="&#x6a3;" horiz-adv-x="1032" d="M252 0q-86 0 -136.5 52t-50.5 142q0 33 7 76.5t18 73.5h80q-15 -72 -15 -135t26 -97t68 -34h325q-23 25 -37.5 67t-14.5 84q0 117 73.5 186.5t200.5 69.5h131v-407h110q5 0 5 -4v-69q0 -5 -5 -5h-785zM842 78v329h-43q-89 0 -138.5 -46.5t-49.5 -130.5q0 -152 137 -152 h94zM738.5 580q-26.5 0 -41.5 15.5t-15 44.5t14.5 44.5t41.5 15.5t41.5 -16.5t14.5 -43.5t-14.5 -43.5t-41 -16.5zM750.5 -200q-26.5 0 -41.5 15.5t-15 44.5t15 44.5t41.5 15.5t41 -16.5t14.5 -43.5t-14.5 -43.5t-41 -16.5z" />
<glyph unicode="&#x6a4;" horiz-adv-x="584" arabic-form="initial" d="M-5 0q-5 0 -5 5v69q0 4 5 4h152q-25 29 -38.5 70t-13.5 81q0 117 73.5 186.5t200.5 69.5h131v-485h-505zM415 78v329h-43q-89 0 -138.5 -46.5t-49.5 -130.5q0 -152 137 -152h94zM407.5 580q-26.5 0 -41.5 15.5t-15 44.5t14.5 44.5t41.5 15.5t41.5 -16.5t14.5 -43.5 t-14.5 -43.5t-41 -16.5zM235.5 580q-25.5 0 -41.5 14t-16 46t16 46t41.5 14t40 -16.5t14.5 -43.5t-14.5 -43.5t-40 -16.5zM319 715q-22 0 -36.5 13t-14.5 42t14.5 42t36.5 13t37.5 -13.5t15.5 -42t-15.5 -41.5t-37.5 -13z" />
<glyph unicode="&#x6a4;" horiz-adv-x="601" arabic-form="medial" d="M606 78q4 0 5 -5v-69q0 -4 -5 -4h-611q-5 0 -5 5v69q0 4 5 4h152q-25 29 -38.5 70t-13.5 81q0 119 74 187.5t200 68.5h131v-407h106zM415 78v329h-43q-89 0 -138.5 -47t-49.5 -131q0 -151 137 -151h94zM407.5 580q-26.5 0 -41.5 15.5t-15 44.5t14.5 44.5t41.5 15.5 t41.5 -16.5t14.5 -43.5t-14.5 -43.5t-41 -16.5zM235.5 580q-25.5 0 -41.5 14t-16 46t16 46t41.5 14t40 -16.5t14.5 -43.5t-14.5 -43.5t-40 -16.5zM319 715q-22 0 -36.5 13t-14.5 42t14.5 42t36.5 13t37.5 -13.5t15.5 -42t-15.5 -41.5t-37.5 -13z" />
<glyph unicode="&#x6a4;" horiz-adv-x="1032" arabic-form="final" d="M252 0q-86 0 -136.5 52t-50.5 142q0 33 7 76.5t18 73.5h80q-15 -72 -15 -135t26 -97t68 -34h325q-23 25 -37.5 67t-14.5 84q0 117 73.5 186.5t200.5 69.5h131v-407h110q5 0 5 -4v-69q0 -5 -5 -5h-785zM842 78v329h-43q-89 0 -138.5 -46.5t-49.5 -130.5q0 -152 137 -152 h94zM831.5 580q-26.5 0 -41.5 15.5t-15 44.5t15 44.5t41.5 15.5t41 -16.5t14.5 -43.5t-14.5 -43.5t-41 -16.5zM660 580q-25 0 -41.5 14t-16.5 46t16.5 46t41.5 14t39.5 -16.5t14.5 -43.5t-14.5 -43.5t-39.5 -16.5zM743.5 715q-21.5 0 -36.5 13t-15 42t15 42t36.5 13 t37 -13.5t15.5 -42t-15.5 -41.5t-37 -13z" />
<glyph unicode="&#x6a5;" horiz-adv-x="584" d="M-5 0q-5 0 -5 5v69q0 4 5 4h152q-25 29 -38.5 70t-13.5 81q0 117 73.5 186.5t200.5 69.5h131v-485h-505zM415 78v329h-43q-89 0 -138.5 -46.5t-49.5 -130.5q0 -152 137 -152h94zM399.5 -214q-26.5 0 -41.5 15.5t-15 44.5t15 44.5t41 15.5t41 -16t15 -43.5t-14.5 -44 t-41 -16.5zM228 -214q-25 0 -41.5 14t-16.5 45.5t16.5 46t41 14.5t39.5 -16t15 -43.5t-14.5 -44t-39.5 -16.5zM311.5 -336q-21.5 0 -36.5 13t-15 42t15 42t36.5 13t37 -13t15.5 -42t-15.5 -42t-37 -13z" />
<glyph unicode="&#x6a5;" horiz-adv-x="601" d="M606 78q4 0 5 -5v-69q0 -4 -5 -4h-611q-5 0 -5 5v69q0 4 5 4h152q-25 29 -38.5 70t-13.5 81q0 119 74 187.5t200 68.5h131v-407h106zM415 78v329h-43q-89 0 -138.5 -47t-49.5 -131q0 -151 137 -151h94zM399.5 -214q-26.5 0 -41.5 15.5t-15 44.5t15 44.5t41 15.5t41 -16 t15 -43.5t-14.5 -44t-41 -16.5zM228 -214q-25 0 -41.5 14t-16.5 45.5t16.5 46t41 14.5t39.5 -16t15 -43.5t-14.5 -44t-39.5 -16.5zM311.5 -336q-21.5 0 -36.5 13t-15 42t15 42t36.5 13t37 -13t15.5 -42t-15.5 -42t-37 -13z" />
<glyph unicode="&#x6a5;" horiz-adv-x="1032" d="M252 0q-86 0 -136.5 52t-50.5 142q0 33 7 76.5t18 73.5h80q-15 -72 -15 -135t26 -97t68 -34h325q-23 25 -37.5 67t-14.5 84q0 117 73.5 186.5t200.5 69.5h131v-407h110q5 0 5 -4v-69q0 -5 -5 -5h-785zM842 78v329h-43q-89 0 -138.5 -46.5t-49.5 -130.5q0 -152 137 -152 h94zM818.5 -214q-26.5 0 -41.5 15.5t-15 44.5t15 44.5t41 15.5t41 -16t15 -43.5t-14.5 -44t-41 -16.5zM647 -214q-25 0 -41.5 14t-16.5 45.5t16.5 46t41 14.5t39.5 -16t15 -43.5t-14.5 -44t-39.5 -16.5zM730 -336q-22 0 -36.5 13t-14.5 42t14.5 42t36.5 13t37.5 -13 t15.5 -42t-15.5 -42t-37.5 -13z" />
<glyph unicode="&#x6a6;" horiz-adv-x="584" arabic-form="initial" d="M-5 0q-5 0 -5 5v69q0 4 5 4h152q-25 29 -38.5 70t-13.5 81q0 117 73.5 186.5t200.5 69.5h131v-485h-505zM415 78v329h-43q-89 0 -138.5 -46.5t-49.5 -130.5q0 -152 137 -152h94zM395 762q-22 0 -36.5 12.5t-14.5 41.5t14.5 41.5t36.5 12.5t36 -14.5t14 -39.5t-14 -39.5 t-36 -14.5zM238.5 762q-23.5 0 -37 14t-13.5 41t15 40t35.5 13t35.5 -12.5t15 -40t-13.5 -41.5t-37 -14zM395 595q-22 0 -36.5 12.5t-14.5 41.5t14.5 41.5t36.5 12.5t36 -14.5t14 -39.5t-14 -39.5t-36 -14.5zM238.5 595q-23.5 0 -37 14t-13.5 41t15 40t35.5 13t35.5 -12.5 t15 -40t-13.5 -41.5t-37 -14z" />
<glyph unicode="&#x6a6;" horiz-adv-x="601" arabic-form="medial" d="M606 78q4 0 5 -5v-69q0 -4 -5 -4h-611q-5 0 -5 5v69q0 4 5 4h152q-25 29 -38.5 70t-13.5 81q0 119 74 187.5t200 68.5h131v-407h106zM415 78v329h-43q-89 0 -138.5 -47t-49.5 -131q0 -151 137 -151h94zM395 762q-22 0 -36.5 12.5t-14.5 41.5t14.5 41.5t36.5 12.5 t36 -14.5t14 -39.5t-14 -39.5t-36 -14.5zM238.5 762q-23.5 0 -37 14t-13.5 41t15 40t35.5 13t35.5 -12.5t15 -40t-13.5 -41.5t-37 -14zM395 595q-22 0 -36.5 12.5t-14.5 41.5t14.5 41.5t36.5 12.5t36 -14.5t14 -39.5t-14 -39.5t-36 -14.5zM238.5 595q-23.5 0 -37 14 t-13.5 41t15 40t35.5 13t35.5 -12.5t15 -40t-13.5 -41.5t-37 -14z" />
<glyph unicode="&#x6a6;" horiz-adv-x="1032" arabic-form="final" d="M252 0q-86 0 -136.5 52t-50.5 142q0 33 7 76.5t18 73.5h80q-15 -72 -15 -135t26 -97t68 -34h325q-23 25 -37.5 67t-14.5 84q0 117 73.5 186.5t200.5 69.5h131v-407h110q5 0 5 -4v-69q0 -5 -5 -5h-785zM842 78v329h-43q-89 0 -138.5 -46.5t-49.5 -130.5q0 -152 137 -152 h94zM804.5 762q-22.5 0 -37 12.5t-14.5 41.5t14.5 41.5t36.5 12.5t36 -14.5t14 -39.5t-13.5 -39.5t-36 -14.5zM647.5 762q-23.5 0 -37 14t-13.5 41t15 40t35.5 13t35.5 -12.5t15 -40t-13.5 -41.5t-37 -14zM804.5 595q-22.5 0 -37 12.5t-14.5 41.5t14.5 41.5t36.5 12.5 t36 -14.5t14 -39.5t-13.5 -39.5t-36 -14.5zM647.5 595q-23.5 0 -37 14t-13.5 41t15 40t35.5 13t35.5 -12.5t15 -40t-13.5 -41.5t-37 -14z" />
<glyph unicode="&#x6a7;" horiz-adv-x="895" d="M901 78q5 0 5 -4v-69q0 -5 -5 -5h-110v-6q0 -234 -253 -234h-236q-110 0 -173.5 65t-63.5 184t41 228h83q-34 -96 -34 -230q0 -81 43 -125t122 -44h202q98 0 141 38t43 117v7h-92q-111 0 -169.5 58.5t-58.5 173.5t75 184t199 69h131v-407h110zM706 78v329h-43 q-89 0 -138.5 -47t-49.5 -128t34 -117.5t103 -36.5h94zM612.5 580q-26.5 0 -41.5 15.5t-15 44.5t14.5 44.5t41.5 15.5t41.5 -16.5t14.5 -43.5t-14.5 -43.5t-41 -16.5z" />
<glyph unicode="&#x6a8;" horiz-adv-x="895" d="M901 78q5 0 5 -4v-69q0 -5 -5 -5h-110v-6q0 -234 -253 -234h-236q-110 0 -173.5 65t-63.5 184t41 228h83q-34 -96 -34 -230q0 -81 43 -125t122 -44h202q98 0 141 38t43 117v7h-92q-111 0 -169.5 58.5t-58.5 173.5t75 184t199 69h131v-407h110zM706 78v329h-43 q-89 0 -138.5 -47t-49.5 -128t34 -117.5t103 -36.5h94zM707.5 580q-26.5 0 -41.5 15.5t-15 44.5t15 44.5t41.5 15.5t41 -16.5t14.5 -43.5t-14.5 -43.5t-41 -16.5zM536 580q-25 0 -41.5 14t-16.5 46t16.5 46t41.5 14t39.5 -16.5t14.5 -43.5t-14.5 -43.5t-39.5 -16.5z M619.5 715q-21.5 0 -36.5 13t-15 42t15 42t36.5 13t37 -13.5t15.5 -42t-15.5 -41.5t-37 -13z" />
<glyph unicode="&#x6aa;" horiz-adv-x="1014" d="M-10 78h864v28q0 75 -45 110t-139 35h-538v82q48 101 148 193t204 132l32 -76q-92 -37 -179 -109.5t-122 -143.5h455q131 0 200 -54t69 -154v-121h-949v78z" />
<glyph unicode="&#x6aa;" horiz-adv-x="1056" d="M-10 78h864v28q0 75 -45 110t-139 35h-538v82q48 101 148 193t204 132l32 -76q-92 -37 -179 -109.5t-122 -143.5h455q131 0 200 -54t69 -154v-43h122q5 0 5 -4v-69q0 -5 -5 -5h-1071v78z" />
<glyph unicode="&#x6aa;" horiz-adv-x="1167" d="M379 0q-92 0 -198 19.5t-161 43.5l10 45q69 -17 121.5 -23.5t159.5 -6.5h662v28q0 75 -45.5 110t-138.5 35h-538v82q49 103 149 194t203 131l32 -76q-93 -38 -179.5 -110.5t-121.5 -142.5h455q131 0 200 -54t69 -154v-43h115q5 0 5 -4v-69q0 -5 -5 -5h-794z" />
<glyph unicode="&#x6ab;" horiz-adv-x="576" d="M290 618q0 -55 55 -55q24 0 39.5 14.5t15.5 41t-15.5 40.5t-39.5 14t-39.5 -14.5t-15.5 -40.5zM394 714q63 -24 63 -101q0 -41 -30 -70.5t-78.5 -29.5t-78 23t-34.5 66q-63 -60 -91 -117h87q131 0 200 -54t69 -154v-277h-506q-5 0 -5 5v69q0 4 5 4h421v184q0 75 -45 110 t-139 35h-170v82q32 67 89 132.5t127 116.5t136 76l32 -76q-34 -15 -52 -24z" />
<glyph unicode="&#x6ab;" horiz-adv-x="625" d="M290 618q0 -55 55 -55q24 0 39.5 14.5t15.5 41t-15.5 40.5t-39.5 14t-39.5 -14.5t-15.5 -40.5zM394 714q63 -24 63 -101q0 -41 -30 -70.5t-78.5 -29.5t-78 23t-34.5 66q-63 -60 -91 -117h87q131 0 200 -54t69 -154v-199h130q5 0 5 -4v-69q0 -5 -5 -5h-636q-5 0 -5 5v69 q0 4 5 4h421v184q0 75 -45 110t-139 35h-170v82q32 67 89 132.5t127 116.5t136 76l32 -76q-34 -15 -52 -24z" />
<glyph unicode="&#x6ab;" horiz-adv-x="857" d="M522 618q0 -55 55 -55q24 0 39.5 14.5t15.5 41t-15.5 40.5t-39.5 14t-39.5 -14.5t-15.5 -40.5zM626 714q63 -24 63 -101q0 -41 -30 -70.5t-78.5 -29.5t-78 23t-34.5 66q-64 -62 -91 -117h87q131 0 200 -54t69 -154v-199h130q5 0 5 -4v-69q0 -5 -5 -5h-611 q-91 0 -139 46.5t-48 132.5q0 61 20 135h80q-15 -83 -15 -130t26.5 -76.5t72.5 -29.5h399v184q0 75 -45 110t-139 35h-170v82q32 67 88.5 132.5t127 116.5t136.5 76l32 -76q-36 -16 -52 -24z" />
<glyph unicode="&#x6ac;" horiz-adv-x="576" d="M-5 0q-5 0 -5 5v69q0 4 5 4h421v184q0 75 -45 110t-139 35h-170v82q32 67 89 132.5t127 116.5t136 76l32 -76q-92 -36 -180 -109.5t-121 -143.5h87q131 0 200 -54t69 -154v-277h-506zM152.5 760q-26.5 0 -41.5 16t-15 44.5t14.5 44t41.5 15.5t41.5 -16t14.5 -43.5 t-14.5 -44t-41 -16.5z" />
<glyph unicode="&#x6ac;" horiz-adv-x="625" d="M-5 0q-5 0 -5 5v69q0 4 5 4h421v184q0 75 -45 110t-139 35h-170v82q32 67 89 132.5t127 116.5t136 76l32 -76q-92 -36 -180 -109.5t-121 -143.5h87q131 0 200 -54t69 -154v-199h130q5 0 5 -4v-69q0 -5 -5 -5h-636zM152.5 760q-26.5 0 -41.5 16t-15 44.5t14.5 44 t41.5 15.5t41.5 -16t14.5 -43.5t-14.5 -44t-41 -16.5z" />
<glyph unicode="&#x6ac;" horiz-adv-x="820" d="M298 428q0 41 28 65t69.5 24t70.5 -15l-15 -45q-21 12 -47 12q-56 0 -55 -51q0 -33 30 -47q12 2 49 7.5t51 5.5v-49q-28 0 -105.5 -11t-87.5 -13v46l47 7q-35 23 -35 64zM252 0q-91 0 -139 46.5t-48 132.5q0 66 25 135h75q-15 -71 -15 -124.5t26.5 -82.5t72.5 -29h359 v682h85v-682h133q5 0 5 -4v-69q0 -5 -5 -5h-574zM382.5 640q-26.5 0 -41.5 15.5t-15 44.5t14.5 44.5t41.5 15.5t41.5 -16t14.5 -43.5t-14.5 -44t-41 -16.5z" />
<glyph unicode="&#x6ad;" horiz-adv-x="576" arabic-form="initial" d="M-5 0q-5 0 -5 5v69q0 4 5 4h421v184q0 75 -45 110t-139 35h-170v82q32 67 89 132.5t127 116.5t136 76l32 -76q-92 -36 -180 -109.5t-121 -143.5h87q131 0 200 -54t69 -154v-277h-506zM214 778q-15 0 -29 15t-14 30.5t12 27.5t28 12t30 -15t14 -30t-13 -27.5t-28 -12.5z M122 700q-15 0 -29 15t-14 30.5t12 27.5t28 12t30 -14.5t14 -30t-13 -28t-28 -12.5zM109 811q-14 0 -27 14t-13 28t11.5 25.5t26.5 11.5t27.5 -13t12.5 -28t-12 -26.5t-26 -11.5z" />
<glyph unicode="&#x6ad;" horiz-adv-x="625" arabic-form="medial" d="M-5 0q-5 0 -5 5v69q0 4 5 4h421v184q0 75 -45 110t-139 35h-170v82q32 67 89 132.5t127 116.5t136 76l32 -76q-92 -36 -180 -109.5t-121 -143.5h87q131 0 200 -54t69 -154v-199h130q5 0 5 -4v-69q0 -5 -5 -5h-636zM214 778q-15 0 -29 15t-14 30.5t12 27.5t28 12t30 -15 t14 -30t-13 -27.5t-28 -12.5zM122 700q-15 0 -29 15t-14 30.5t12 27.5t28 12t30 -14.5t14 -30t-13 -28t-28 -12.5zM109 811q-14 0 -27 14t-13 28t11.5 25.5t26.5 11.5t27.5 -13t12.5 -28t-12 -26.5t-26 -11.5z" />
<glyph unicode="&#x6ad;" horiz-adv-x="820" arabic-form="final" d="M298 428q0 41 28 65t69.5 24t70.5 -15l-15 -45q-21 12 -47 12q-56 0 -55 -51q0 -33 30 -47q12 2 49 7.5t51 5.5v-49q-28 0 -105.5 -11t-87.5 -13v46l47 7q-35 23 -35 64zM252 0q-91 0 -139 46.5t-48 132.5q0 66 25 135h75q-15 -71 -15 -124.5t26.5 -82.5t72.5 -29h359 v682h85v-682h133q5 0 5 -4v-69q0 -5 -5 -5h-574zM467.5 580q-26.5 0 -41.5 15.5t-15 44.5t14.5 44.5t41.5 15.5t41.5 -16.5t14.5 -43.5t-14.5 -43.5t-41 -16.5zM296 580q-25 0 -41.5 14t-16.5 46t16.5 46t41.5 14t39.5 -16.5t14.5 -43.5t-14.5 -43.5t-39.5 -16.5zM379 715 q-22 0 -36.5 13t-14.5 42t14.5 42t36.5 13t37.5 -13.5t15.5 -42t-15.5 -41.5t-37.5 -13z" />
<glyph unicode="&#x6ae;" horiz-adv-x="576" d="M-5 0q-5 0 -5 5v69q0 4 5 4h421v184q0 75 -45 110t-139 35h-170v82q32 67 89 132.5t127 116.5t136 76l32 -76q-92 -36 -180 -109.5t-121 -143.5h87q131 0 200 -54t69 -154v-277h-506zM336.5 -214q-26.5 0 -41.5 15.5t-15 44.5t15 44.5t41 15.5t41 -16t15 -43.5t-14.5 -44 t-41 -16.5zM165 -214q-25 0 -41.5 14t-16.5 45.5t16.5 46t41 14.5t39.5 -16t15 -43.5t-14.5 -44t-39.5 -16.5zM248.5 -336q-21.5 0 -36.5 13t-15 42t15 42t36.5 13t37 -13t15.5 -42t-15.5 -42t-37 -13z" />
<glyph unicode="&#x6ae;" horiz-adv-x="625" d="M-5 0q-5 0 -5 5v69q0 4 5 4h421v184q0 75 -45 110t-139 35h-170v82q32 67 89 132.5t127 116.5t136 76l32 -76q-92 -36 -180 -109.5t-121 -143.5h87q131 0 200 -54t69 -154v-199h130q5 0 5 -4v-69q0 -5 -5 -5h-636zM332.5 -214q-26.5 0 -41.5 15.5t-15 44.5t15 44.5 t41 15.5t41 -16t15 -43.5t-14.5 -44t-41 -16.5zM161 -214q-25 0 -41.5 14t-16.5 45.5t16.5 46t41.5 14.5t39.5 -16t14.5 -43.5t-14.5 -44t-39.5 -16.5zM244.5 -336q-21.5 0 -36.5 13t-15 42t15 42t36.5 13t37 -13t15.5 -42t-15.5 -42t-37 -13z" />
<glyph unicode="&#x6ae;" horiz-adv-x="820" d="M298 428q0 41 28 65t69.5 24t70.5 -15l-15 -45q-21 12 -47 12q-56 0 -55 -51q0 -33 30 -47q12 2 49 7.5t51 5.5v-49q-28 0 -105.5 -11t-87.5 -13v46l47 7q-35 23 -35 64zM252 0q-91 0 -139 46.5t-48 132.5q0 66 25 135h75q-15 -71 -15 -124.5t26.5 -82.5t72.5 -29h359 v682h85v-682h133q5 0 5 -4v-69q0 -5 -5 -5h-574zM478.5 -214q-26.5 0 -41.5 15.5t-15 44.5t15 44.5t41 15.5t41 -16t15 -43.5t-14.5 -44t-41 -16.5zM307 -214q-25 0 -41.5 14t-16.5 45.5t16.5 46t41.5 14.5t39.5 -16t14.5 -43.5t-14.5 -44t-39.5 -16.5zM390.5 -336 q-21.5 0 -36.5 13t-15 42t15 42t36.5 13t37 -13t15.5 -42t-15.5 -42t-37 -13z" />
<glyph unicode="&#x6b0;" horiz-adv-x="576" d="M290 618q0 -55 55 -55q24 0 39.5 14.5t15.5 41t-15.5 40.5t-39.5 14t-39.5 -14.5t-15.5 -40.5zM394 714q63 -24 63 -101q0 -41 -30 -70.5t-78.5 -29.5t-78 23t-34.5 66q-63 -60 -91 -117h87q131 0 200 -54t69 -154v-277h-506q-5 0 -5 5v69q0 4 5 4h421v184q0 75 -45 110 t-139 35h-170v82q32 67 89 132.5t127 116.5t136 76l32 -76q-34 -15 -52 -24zM37 627q33 73 129.5 161.5t193.5 129.5l29 -67q-62 -23 -130 -72t-120 -105t-75 -106z" />
<glyph unicode="&#x6b0;" horiz-adv-x="625" d="M290 618q0 -55 55 -55q24 0 39.5 14.5t15.5 41t-15.5 40.5t-39.5 14t-39.5 -14.5t-15.5 -40.5zM394 714q63 -24 63 -101q0 -41 -30 -70.5t-78.5 -29.5t-78 23t-34.5 66q-63 -60 -91 -117h87q131 0 200 -54t69 -154v-199h130q5 0 5 -4v-69q0 -5 -5 -5h-636q-5 0 -5 5v69 q0 4 5 4h421v184q0 75 -45 110t-139 35h-170v82q32 67 89 132.5t127 116.5t136 76l32 -76q-34 -15 -52 -24zM37 627q33 73 129.5 161.5t193.5 129.5l29 -67q-62 -23 -130 -72t-120 -105t-75 -106z" />
<glyph unicode="&#x6b0;" horiz-adv-x="857" d="M522 618q0 -55 55 -55q24 0 39.5 14.5t15.5 41t-15.5 40.5t-39.5 14t-39.5 -14.5t-15.5 -40.5zM626 714q63 -24 63 -101q0 -41 -30 -70.5t-78.5 -29.5t-78 23t-34.5 66q-64 -62 -91 -117h87q131 0 200 -54t69 -154v-199h130q5 0 5 -4v-69q0 -5 -5 -5h-611 q-91 0 -139 46.5t-48 132.5q0 61 20 135h80q-15 -83 -15 -130t26.5 -76.5t72.5 -29.5h399v184q0 75 -45 110t-139 35h-170v82q32 67 88.5 132.5t127 116.5t136.5 76l32 -76q-36 -16 -52 -24zM267 627q33 73 129.5 161.5t193.5 129.5l29 -67q-62 -23 -130 -72t-120 -105 t-75 -106z" />
<glyph unicode="&#x6b1;" horiz-adv-x="576" arabic-form="initial" d="M-5 0q-5 0 -5 5v69q0 4 5 4h421v184q0 75 -45 110t-139 35h-170v82q32 67 89 132.5t127 116.5t136 76l32 -76q-92 -36 -180 -109.5t-121 -143.5h87q131 0 200 -54t69 -154v-277h-506zM37 627q33 73 129.5 161.5t193.5 129.5l29 -67q-62 -23 -130 -72t-120 -105t-75 -106z M189.5 890q-16.5 0 -27.5 10t-11 32t11 32t27.5 10t28 -10t11.5 -32t-11.5 -32t-28 -10zM88 807q-16 0 -27 10t-11 32t11 32t27 10t28 -10t12 -32t-12 -32t-28 -10z" />
<glyph unicode="&#x6b1;" horiz-adv-x="625" arabic-form="medial" d="M-5 0q-5 0 -5 5v69q0 4 5 4h421v184q0 75 -45 110t-139 35h-170v82q32 67 89 132.5t127 116.5t136 76l32 -76q-92 -36 -180 -109.5t-121 -143.5h87q131 0 200 -54t69 -154v-199h130q5 0 5 -4v-69q0 -5 -5 -5h-636zM37 627q33 73 129.5 161.5t193.5 129.5l29 -67 q-62 -23 -130 -72t-120 -105t-75 -106zM189.5 890q-16.5 0 -27.5 10t-11 32t11 32t27.5 10t28 -10t11.5 -32t-11.5 -32t-28 -10zM88 807q-16 0 -27 10t-11 32t11 32t27 10t28 -10t12 -32t-12 -32t-28 -10z" />
<glyph unicode="&#x6b1;" horiz-adv-x="857" arabic-form="final" d="M65 179q0 61 20 135h80q-15 -83 -15 -130t26.5 -76.5t72.5 -29.5h399v184q0 75 -45 110t-139 35h-170v82q32 67 88.5 132.5t127 116.5t136.5 76l32 -76q-91 -35 -179 -109t-122 -144h87q131 0 200 -54t69 -154v-199h130q5 0 5 -4v-69q0 -5 -5 -5h-611q-91 0 -139 46.5 t-48 132.5zM267 627q33 73 129.5 161.5t193.5 129.5l29 -67q-62 -23 -130 -72t-120 -105t-75 -106zM419.5 890q-16.5 0 -27.5 10t-11 32t11 32t27.5 10t28 -10t11.5 -32t-11.5 -32t-28 -10zM318 807q-16 0 -27 10t-11 32t11 32t27 10t28 -10t12 -32t-12 -32t-28 -10z" />
<glyph unicode="&#x6b2;" horiz-adv-x="576" d="M-5 0q-5 0 -5 5v69q0 4 5 4h421v184q0 75 -45 110t-139 35h-170v82q32 67 89 132.5t127 116.5t136 76l32 -76q-92 -36 -180 -109.5t-121 -143.5h87q131 0 200 -54t69 -154v-277h-506zM37 627q33 73 129.5 161.5t193.5 129.5l29 -67q-62 -23 -130 -72t-120 -105t-75 -106z M338.5 -200q-26.5 0 -41.5 15.5t-15 44.5t15 44.5t41.5 15.5t41 -16.5t14.5 -43.5t-14.5 -43.5t-41 -16.5zM166.5 -200q-24.5 0 -41 14t-16.5 46t16.5 46t40.5 14t39.5 -15.5t15.5 -44.5t-15 -44.5t-39.5 -15.5z" />
<glyph unicode="&#x6b2;" horiz-adv-x="625" d="M-5 0q-5 0 -5 5v69q0 4 5 4h421v184q0 75 -45 110t-139 35h-170v82q32 67 89 132.5t127 116.5t136 76l32 -76q-92 -36 -180 -109.5t-121 -143.5h87q131 0 200 -54t69 -154v-199h130q5 0 5 -4v-69q0 -5 -5 -5h-636zM37 627q33 73 129.5 161.5t193.5 129.5l29 -67 q-62 -23 -130 -72t-120 -105t-75 -106zM337.5 -200q-26.5 0 -41.5 15.5t-15 44.5t15 44.5t41.5 15.5t41 -16.5t14.5 -43.5t-14.5 -43.5t-41 -16.5zM165.5 -200q-24.5 0 -41 14t-16.5 46t16.5 46t40.5 14t39.5 -15.5t15.5 -44.5t-15 -44.5t-39.5 -15.5z" />
<glyph unicode="&#x6b2;" horiz-adv-x="857" d="M65 179q0 61 20 135h80q-15 -83 -15 -130t26.5 -76.5t72.5 -29.5h399v184q0 75 -45 110t-139 35h-170v82q32 67 88.5 132.5t127 116.5t136.5 76l32 -76q-91 -35 -179 -109t-122 -144h87q131 0 200 -54t69 -154v-199h130q5 0 5 -4v-69q0 -5 -5 -5h-611q-91 0 -139 46.5 t-48 132.5zM267 627q33 73 129.5 161.5t193.5 129.5l29 -67q-62 -23 -130 -72t-120 -105t-75 -106zM503.5 -200q-26.5 0 -41.5 15.5t-15 44.5t15 44.5t41.5 15.5t41 -16.5t14.5 -43.5t-14.5 -43.5t-41 -16.5zM331.5 -200q-24.5 0 -41 14t-16.5 46t16.5 46t40.5 14 t39.5 -15.5t15.5 -44.5t-15 -44.5t-39.5 -15.5z" />
<glyph unicode="&#x6b3;" horiz-adv-x="576" arabic-form="initial" d="M-5 0q-5 0 -5 5v69q0 4 5 4h421v184q0 75 -45 110t-139 35h-170v82q32 67 89 132.5t127 116.5t136 76l32 -76q-92 -36 -180 -109.5t-121 -143.5h87q131 0 200 -54t69 -154v-277h-506zM37 627q33 73 129.5 161.5t193.5 129.5l29 -67q-62 -23 -130 -72t-120 -105t-75 -106z M249.5 -200q-26.5 0 -41.5 15.5t-15 44.5t15 44.5t41.5 15.5t41 -16.5t14.5 -43.5t-14.5 -43.5t-41 -16.5zM249.5 -381q-26.5 0 -41.5 15.5t-15 44.5t15 44.5t41 15.5t41 -16t15 -43.5t-14.5 -44t-41 -16.5z" />
<glyph unicode="&#x6b3;" horiz-adv-x="625" arabic-form="medial" d="M-5 0q-5 0 -5 5v69q0 4 5 4h421v184q0 75 -45 110t-139 35h-170v82q32 67 89 132.5t127 116.5t136 76l32 -76q-92 -36 -180 -109.5t-121 -143.5h87q131 0 200 -54t69 -154v-199h130q5 0 5 -4v-69q0 -5 -5 -5h-636zM37 627q33 73 129.5 161.5t193.5 129.5l29 -67 q-62 -23 -130 -72t-120 -105t-75 -106zM254.5 -200q-26.5 0 -41.5 15.5t-15 44.5t15 44.5t41.5 15.5t41 -16.5t14.5 -43.5t-14.5 -43.5t-41 -16.5zM254.5 -381q-26.5 0 -41.5 15.5t-15 44.5t15 44.5t41 15.5t41 -16t15 -43.5t-14.5 -44t-41 -16.5z" />
<glyph unicode="&#x6b3;" horiz-adv-x="857" arabic-form="final" d="M65 179q0 61 20 135h80q-15 -83 -15 -130t26.5 -76.5t72.5 -29.5h399v184q0 75 -45 110t-139 35h-170v82q32 67 88.5 132.5t127 116.5t136.5 76l32 -76q-91 -35 -179 -109t-122 -144h87q131 0 200 -54t69 -154v-199h130q5 0 5 -4v-69q0 -5 -5 -5h-611q-91 0 -139 46.5 t-48 132.5zM267 627q33 73 129.5 161.5t193.5 129.5l29 -67q-62 -23 -130 -72t-120 -105t-75 -106zM419.5 -200q-26.5 0 -41.5 15.5t-15 44.5t15 44.5t41.5 15.5t41 -16.5t14.5 -43.5t-14.5 -43.5t-41 -16.5zM419.5 -381q-26.5 0 -41.5 15.5t-15 44.5t15 44.5t41 15.5 t41 -16t15 -43.5t-14.5 -44t-41 -16.5z" />
<glyph unicode="&#x6b4;" horiz-adv-x="576" d="M-5 0q-5 0 -5 5v69q0 4 5 4h421v184q0 75 -45 110t-139 35h-170v82q32 67 89 132.5t127 116.5t136 76l32 -76q-92 -36 -180 -109.5t-121 -143.5h87q131 0 200 -54t69 -154v-277h-506zM37 627q33 73 129.5 161.5t193.5 129.5l29 -67q-62 -23 -130 -72t-120 -105t-75 -106z M72 936q-16 0 -27.5 10t-11.5 32t11.5 32t27.5 10t27.5 -10t11.5 -32t-11.5 -32t-27.5 -10zM190 890q-16 0 -27.5 10t-11.5 32t11.5 32t27.5 10t27.5 -10t11.5 -32t-11.5 -32t-27.5 -10zM89 807q-16 0 -27.5 10t-11.5 32t11.5 32t27.5 10t27.5 -10t11.5 -32t-11.5 -32 t-27.5 -10z" />
<glyph unicode="&#x6b4;" horiz-adv-x="625" d="M-5 0q-5 0 -5 5v69q0 4 5 4h421v184q0 75 -45 110t-139 35h-170v82q32 67 89 132.5t127 116.5t136 76l32 -76q-92 -36 -180 -109.5t-121 -143.5h87q131 0 200 -54t69 -154v-199h130q5 0 5 -4v-69q0 -5 -5 -5h-636zM37 627q33 73 129.5 161.5t193.5 129.5l29 -67 q-62 -23 -130 -72t-120 -105t-75 -106zM72 936q-16 0 -27.5 10t-11.5 32t11.5 32t27.5 10t27.5 -10t11.5 -32t-11.5 -32t-27.5 -10zM190 890q-16 0 -27.5 10t-11.5 32t11.5 32t27.5 10t27.5 -10t11.5 -32t-11.5 -32t-27.5 -10zM89 807q-16 0 -27.5 10t-11.5 32t11.5 32 t27.5 10t27.5 -10t11.5 -32t-11.5 -32t-27.5 -10z" />
<glyph unicode="&#x6b4;" horiz-adv-x="857" d="M65 179q0 61 20 135h80q-15 -83 -15 -130t26.5 -76.5t72.5 -29.5h399v184q0 75 -45 110t-139 35h-170v82q32 67 88.5 132.5t127 116.5t136.5 76l32 -76q-91 -35 -179 -109t-122 -144h87q131 0 200 -54t69 -154v-199h130q5 0 5 -4v-69q0 -5 -5 -5h-611q-91 0 -139 46.5 t-48 132.5zM267 627q33 73 129.5 161.5t193.5 129.5l29 -67q-62 -23 -130 -72t-120 -105t-75 -106zM302 936q-16 0 -27.5 10t-11.5 32t11.5 32t27.5 10t27.5 -10t11.5 -32t-11.5 -32t-27.5 -10zM420 890q-16 0 -27.5 10t-11.5 32t11.5 32t27.5 10t27.5 -10t11.5 -32 t-11.5 -32t-27.5 -10zM319 807q-16 0 -27.5 10t-11.5 32t11.5 32t27.5 10t27.5 -10t11.5 -32t-11.5 -32t-27.5 -10z" />
<glyph unicode="&#x6b5;" horiz-adv-x="315" d="M-5 0q-5 0 -5 5v69q0 4 5 4h132v682h89v-760h-221zM300 1015l-110 -199h-62l-111 199h78l63 -129l65 129h77z" />
<glyph unicode="&#x6b5;" horiz-adv-x="340" d="M-5 0q-5 0 -5 5v69q0 4 5 4h132v682h89v-682h130q5 0 5 -4v-69q0 -5 -5 -5h-351zM305 1015l-110 -199h-62l-111 199h78l63 -129l65 129h77z" />
<glyph unicode="&#x6b5;" horiz-adv-x="691" d="M65 23.5q0 127.5 41 228.5h83q-34 -86 -34 -236q0 -85 34 -131.5t96 -46.5h49q87 0 127.5 39.5t40.5 119.5v763h85v-682h110q5 0 5 -4v-69q0 -5 -5 -5h-110q-1 -119 -61.5 -179.5t-187.5 -60.5h-72q-93 0 -147 68t-54 195.5zM683 1015l-110 -199h-62l-111 199h78l63 -129 l65 129h77z" />
<glyph unicode="&#x6b6;" horiz-adv-x="315" d="M-5 0q-5 0 -5 5v69q0 4 5 4h132v682h89v-760h-221zM168.5 821q-26.5 0 -41.5 16t-15 44.5t15 44t41.5 15.5t41 -16t14.5 -43.5t-14.5 -44t-41 -16.5z" />
<glyph unicode="&#x6b6;" horiz-adv-x="340" d="M-5 0q-5 0 -5 5v69q0 4 5 4h132v682h89v-682h130q5 0 5 -4v-69q0 -5 -5 -5h-351zM171.5 821q-26.5 0 -41.5 16t-15 44.5t15 44t41.5 15.5t41 -16t14.5 -43.5t-14.5 -44t-41 -16.5z" />
<glyph unicode="&#x6b6;" horiz-adv-x="691" d="M65 23.5q0 127.5 41 228.5h83q-34 -86 -34 -236q0 -85 34 -131.5t96 -46.5h49q87 0 127.5 39.5t40.5 119.5v763h85v-682h110q5 0 5 -4v-69q0 -5 -5 -5h-110q-1 -119 -61.5 -179.5t-187.5 -60.5h-72q-93 0 -147 68t-54 195.5zM541.5 821q-26.5 0 -41.5 16t-15 44.5t15 44 t41.5 15.5t41 -16t14.5 -43.5t-14.5 -44t-41 -16.5z" />
<glyph unicode="&#x6b7;" horiz-adv-x="315" d="M-5 0q-5 0 -5 5v69q0 4 5 4h132v682h89v-760h-221zM221 841q-39 0 -39 42q0 22 11.5 32t27.5 10t27.5 -10t11.5 -32.5t-11.5 -32t-27.5 -9.5zM100 841q-39 0 -39 42q0 22 11 32t27.5 10t28 -10t11.5 -32.5t-11.5 -32t-27.5 -9.5zM160 935q-36 0 -36 39q0 20 10.5 29t26 9 t26.5 -9t10.5 -29.5t-11.5 -29.5t-26 -9z" />
<glyph unicode="&#x6b7;" horiz-adv-x="340" d="M-5 0q-5 0 -5 5v69q0 4 5 4h132v682h89v-682h130q5 0 5 -4v-69q0 -5 -5 -5h-351zM232 841q-39 0 -39 42q0 22 11 32t27.5 10t28 -10t11.5 -32.5t-11.5 -32t-27.5 -9.5zM111 841q-39 0 -39 42q0 22 11 32t27 10t28 -10t12 -32.5t-11.5 -32t-27.5 -9.5zM171 935 q-36 0 -36 39q0 20 10 29t26 9t26 -9q11 -9 11 -29.5t-11 -29.5t-26 -9z" />
<glyph unicode="&#x6b7;" horiz-adv-x="691" d="M65 23.5q0 127.5 41 228.5h83q-34 -86 -34 -236q0 -85 34 -131.5t96 -46.5h49q87 0 127.5 39.5t40.5 119.5v763h85v-682h110q5 0 5 -4v-69q0 -5 -5 -5h-110q-1 -119 -61.5 -179.5t-187.5 -60.5h-72q-93 0 -147 68t-54 195.5zM596 841q-39 0 -39 42q0 22 11.5 32t27.5 10 t27.5 -10t11.5 -32.5t-11.5 -32t-27.5 -9.5zM475 841q-39 0 -39 42q0 22 11 32t27.5 10t28 -10t11.5 -32.5t-11.5 -32t-27.5 -9.5zM535 935q-36 0 -36 39q0 20 10.5 29t25.5 9t26 -9t11 -29.5t-11 -29.5t-26 -9z" />
<glyph unicode="&#x6b8;" horiz-adv-x="315" d="M-5 0q-5 0 -5 5v69q0 4 5 4h132v682h89v-760h-221zM243.5 -214q-26.5 0 -41.5 15.5t-15 44.5t15 44.5t41 15.5t41 -16t15 -43.5t-14.5 -44t-41 -16.5zM71.5 -214q-25.5 0 -41.5 14t-16 45.5t16 46t41 14.5t40 -16t15 -43.5t-14.5 -44t-40 -16.5zM155 -336q-22 0 -36.5 13 t-14.5 42t14.5 42t36.5 13t37.5 -13t15.5 -42t-15.5 -42t-37.5 -13z" />
<glyph unicode="&#x6b8;" horiz-adv-x="340" d="M-5 0q-5 0 -5 5v69q0 4 5 4h132v682h89v-682h130q5 0 5 -4v-69q0 -5 -5 -5h-351zM256.5 -214q-26.5 0 -41.5 15.5t-15 44.5t15 44.5t41 15.5t41 -16t15 -43.5t-14.5 -44t-41 -16.5zM85 -214q-25 0 -41.5 14t-16.5 45.5t16.5 46t41 14.5t39.5 -16t15 -43.5t-14.5 -44 t-39.5 -16.5zM168 -336q-22 0 -36.5 13t-14.5 42t14.5 42t36.5 13t37.5 -13t15.5 -42t-15.5 -42t-37.5 -13z" />
<glyph unicode="&#x6b8;" horiz-adv-x="691" d="M65 23.5q0 127.5 41 228.5h83q-34 -86 -34 -236q0 -85 34 -131.5t96 -46.5h49q87 0 127.5 39.5t40.5 119.5v763h85v-682h110q5 0 5 -4v-69q0 -5 -5 -5h-110q-1 -119 -61.5 -179.5t-187.5 -60.5h-72q-93 0 -147 68t-54 195.5zM392 -403q-39 0 -39 42q0 22 11 32t27.5 10 t28 -10t11.5 -32.5t-11.5 -32t-27.5 -9.5zM271 -403q-39 0 -39 42q0 22 11 32t27.5 10t28 -10t11.5 -32.5t-11.5 -32t-27.5 -9.5zM331 -489q-36 0 -36 38q0 20 10 29t25.5 9t26.5 -9t11 -29.5t-11 -29t-26 -8.5z" />
<glyph unicode="&#x6b9;" horiz-adv-x="300" d="M-5 0q-5 0 -5 5v69q0 4 5 4h132v407h89v-485h-221zM168.5 580q-26.5 0 -41.5 15.5t-15 44.5t15 44.5t41.5 15.5t41 -16.5t14.5 -43.5t-14.5 -43.5t-41 -16.5zM158.5 -200q-26.5 0 -41.5 15.5t-15 44.5t15 44.5t41.5 15.5t41 -16.5t14.5 -43.5t-14.5 -43.5t-41 -16.5z" />
<glyph unicode="&#x6b9;" horiz-adv-x="340" d="M-5 0q-5 0 -5 5v69q0 4 5 4h132v407h89v-407h130q5 0 5 -4v-69q0 -5 -5 -5h-351zM168.5 580q-26.5 0 -41.5 15.5t-15 44.5t15 44.5t41.5 15.5t41 -16.5t14.5 -43.5t-14.5 -43.5t-41 -16.5zM158.5 -200q-26.5 0 -41.5 15.5t-15 44.5t15 44.5t41.5 15.5t41 -16.5 t14.5 -43.5t-14.5 -43.5t-41 -16.5z" />
<glyph unicode="&#x6b9;" horiz-adv-x="691" d="M338 -240h-72q-94 0 -147.5 65t-53.5 180.5t41 216.5h83q-34 -86 -34 -215q0 -81 33.5 -125t96.5 -44h49q87 0 127.5 39.5t40.5 120.5v487h85v-407h110q5 0 5 -4v-69q0 -5 -5 -5h-110q-1 -119 -61.5 -179.5t-187.5 -60.5zM328.5 485q-26.5 0 -41.5 16t-15 44.5t15 44 t41.5 15.5t41 -16t14.5 -43.5t-14.5 -44t-41 -16.5zM323.5 -440q-26.5 0 -41.5 15.5t-15 44.5t15 44.5t41.5 15.5t41 -16.5t14.5 -43.5t-14.5 -43.5t-41 -16.5z" />
<glyph unicode="&#x6bb;" horiz-adv-x="691" arabic-form="final" d="M338 -240h-72q-94 0 -147.5 65t-53.5 180.5t41 216.5h83q-34 -86 -34 -215q0 -81 33.5 -125t96.5 -44h49q87 0 127.5 39.5t40.5 120.5v487h85v-407h110q5 0 5 -4v-69q0 -5 -5 -5h-110q-1 -119 -61.5 -179.5t-187.5 -60.5zM349 562q-46 0 -73 -66v-11h112v25q0 26 -9 39 t-30 13zM428 519v-77h-207v43h15v182h40v-126q27 65 78 64q74 1 74 -86z" />
<glyph unicode="&#x6bc;" horiz-adv-x="300" d="M-10 5v69q0 4 5 4h132v407h89v-484q14 -23 14 -63t-31 -69t-81 -29t-79.5 28t-29.5 68.5t12 63.5h-26q-5 0 -5 5zM168.5 580q-26.5 0 -41.5 15.5t-15 44.5t15 44.5t41.5 15.5t41 -16.5t14.5 -43.5t-14.5 -43.5t-41 -16.5zM118 -109q24 0 39.5 14t15.5 40.5t-14 39.5 t-33 15h-17q-19 -2 -32.5 -15t-13.5 -40q0 -54 55 -54z" />
<glyph unicode="&#x6bc;" horiz-adv-x="340" d="M-10 5v69q0 4 5 4h132v407h89v-407h130q5 0 5 -4v-69q0 -5 -5 -5h-79q13 -23 13 -54q0 -48 -31 -77t-81 -29t-79.5 28t-29.5 68.5t12 63.5h-76q-5 0 -5 5zM168.5 580q-26.5 0 -41.5 15.5t-15 44.5t15 44.5t41.5 15.5t41 -16.5t14.5 -43.5t-14.5 -43.5t-41 -16.5z M168 -109q24 0 39.5 14t15.5 40.5t-14 39.5t-33 15h-17q-19 -2 -32.5 -15t-13.5 -40q0 -54 55 -54z" />
<glyph unicode="&#x6bc;" horiz-adv-x="691" d="M310 -399q-50 0 -79.5 28t-29.5 70t15 66q-59 13 -97 60q-54 65 -54 180.5t41 216.5h83q-34 -86 -34 -215q0 -81 33.5 -125t96.5 -44h49q87 0 127.5 39.5t40.5 120.5v487h85v-407h110q5 0 5 -4v-69q0 -5 -5 -5h-110q-2 -206 -181 -235q16 -24 16 -65.5t-31 -70t-81 -28.5 zM328.5 485q-26.5 0 -41.5 16t-15 44.5t15 44t41.5 15.5t41 -16t14.5 -43.5t-14.5 -44t-41 -16.5zM310 -349q24 0 39.5 14t15.5 40.5t-13.5 39t-29.5 15.5h-24q-16 -3 -29.5 -15.5t-13.5 -38.5q0 -55 55 -55z" />
<glyph unicode="&#x6bd;" horiz-adv-x="691" d="M338 -240h-72q-94 0 -147.5 65t-53.5 180.5t41 216.5h83q-34 -86 -34 -215q0 -81 33.5 -125t96.5 -44h49q87 0 127.5 39.5t40.5 120.5v487h85v-407h110q5 0 5 -4v-69q0 -5 -5 -5h-110q-1 -119 -61.5 -179.5t-187.5 -60.5zM394.5 366q-26.5 0 -41.5 15.5t-15 44.5t15 44.5 t41.5 15.5t41 -16.5t14.5 -44t-14.5 -43.5t-41 -16zM223 366q-25 0 -41.5 14t-16.5 46t16.5 46t41.5 14t39.5 -16.5t14.5 -44t-14.5 -43.5t-39.5 -16zM306.5 500q-21.5 0 -36.5 13t-15 42t15 42.5t36.5 13.5t37 -13.5t15.5 -42.5t-15.5 -42t-37 -13z" />
<glyph unicode="&#x6bf;" horiz-adv-x="580" d="M515 0h-520q-5 0 -5 5v69q0 4 5 4h429q-37 37 -63 183q-15 86 -42.5 121t-90 35t-138.5 -40l-35 69q76 49 187.5 49t160.5 -87q24 -43 38 -128q26 -160 74 -204v-76zM229.5 580q-26.5 0 -41.5 15.5t-15 44.5t15 44.5t41.5 15.5t41 -16.5t14.5 -43.5t-14.5 -43.5 t-41 -16.5zM317.5 -198q-26.5 0 -41.5 15.5t-15 44.5t15 44.5t41 15.5t41 -16t15 -43.5t-14.5 -44t-41 -16.5zM146 -198q-25 0 -41.5 14.5t-16.5 46t16.5 45.5t41 14t39.5 -16t15 -43.5t-14.5 -44t-39.5 -16.5zM229.5 -320q-21.5 0 -36.5 13t-15 42t15 42t36.5 13t37 -13 t15.5 -42t-15.5 -42t-37 -13z" />
<glyph unicode="&#x6bf;" horiz-adv-x="574" d="M579 78q5 0 5 -4v-69q0 -5 -5 -5h-584q-5 0 -5 5v69q0 4 5 4h429q-39 39 -63 183q-14 85 -42.5 120.5t-90.5 35.5t-138 -40l-35 69q76 49 187.5 49t160.5 -87q24 -43 37 -124q23 -157 72 -206h67zM229.5 580q-26.5 0 -41.5 15.5t-15 44.5t15 44.5t41.5 15.5t41 -16.5 t14.5 -43.5t-14.5 -43.5t-41 -16.5zM317.5 -198q-26.5 0 -41.5 15.5t-15 44.5t15 44.5t41 15.5t41 -16t15 -43.5t-14.5 -44t-41 -16.5zM146 -198q-25 0 -41.5 14.5t-16.5 46t16.5 45.5t41 14t39.5 -16t15 -43.5t-14.5 -44t-39.5 -16.5zM229.5 -320q-21.5 0 -36.5 13t-15 42 t15 42t36.5 13t37 -13t15.5 -42t-15.5 -42t-37 -13z" />
<glyph unicode="&#x6bf;" horiz-adv-x="613" d="M614 0q-111 0 -165 100q-120 -33 -185 -65q-127 -63 -128 -155q0 -124 136 -124l-19 -77q-97 0 -152.5 50.5t-55.5 142.5q0 128 155 214q80 44 221 85q-11 34 -22 101.5t-47 106t-97 38.5q-36 0 -86 -14.5t-89 -35.5l-35 69q39 25 97 42t114 17q191 0 224 -211 q16 -96 31 -132q30 -74 103 -74h5q5 0 5 -4v-69q0 -5 -5 -5h-5zM489.5 -166q-26.5 0 -41.5 15.5t-15 44t15 44.5t41 16t41 -16.5t15 -43.5t-14.5 -43.5t-41 -16.5zM317.5 -166q-25.5 0 -41.5 14t-16 45.5t16 46t41 14.5t40 -16.5t15 -43.5t-14.5 -43.5t-40 -16.5zM401 -288 q-22 0 -36.5 13t-14.5 41.5t14.5 42t36.5 13.5t37.5 -13.5t15.5 -42t-15.5 -41.5t-37.5 -13zM259.5 580q-26.5 0 -41.5 15.5t-15 44.5t14.5 44.5t41.5 15.5t41.5 -16.5t14.5 -43.5t-14.5 -43.5t-41 -16.5z" />
<glyph unicode="&#x6c4;" horiz-adv-x="553" d="M274 -132q0 -45 45 -45q19 0 32 12.5t13 34.5t-13.5 32.5t-32.5 10.5t-31.5 -12.5t-12.5 -32.5zM391 78v329h-43q-89 0 -138.5 -47t-49.5 -128t34 -117.5t103 -36.5h94zM296 -225q-76 15 -76 97q0 42 25.5 66.5t72 24.5t73.5 -24l1 6v55h-98q-106 0 -164.5 58.5 t-58.5 173t74.5 184t199.5 69.5h131v-407h82q5 0 5 -4v-69q0 -5 -5 -5h-82v-44q0 -71 -38.5 -136.5t-123.5 -139.5l-55 63z" />
<glyph unicode="&#x6c5;" horiz-adv-x="561" arabic-form="final" d="M391 78v329h-43q-89 0 -138.5 -47t-49.5 -128t34 -117.5t103 -36.5h94zM259 -121q-25 0 -60 -15l-25 37q26 21 43.5 28.5t39.5 7.5t65 -16t63 -20q7 26 7 50v49h-98q-106 0 -164.5 58.5t-58.5 173t74.5 184t199.5 69.5h131v-407h90q5 0 5 -4v-69q0 -5 -5 -5h-90v-44 q0 -71 -38.5 -136.5t-123.5 -139.5l-55 63q73 60 102 106l-28 10q-49 20 -74 20z" />
<glyph unicode="&#x6c6;" horiz-adv-x="553" arabic-form="final" d="M248 -162q67 0 105.5 36.5t38.5 96.5v29h-98q-106 0 -164.5 58.5t-58.5 173t74.5 184t199.5 69.5h131v-407h82q5 0 5 -4v-69q0 -5 -5 -5h-82v-24q0 -102 -60.5 -159t-166.5 -57t-184 51l40 67q76 -40 143 -40zM391 78v329h-43q-89 0 -138.5 -47t-49.5 -128t34 -117.5 t103 -36.5h94zM443 828l-110 -199h-62l-111 199h78l63 -129l65 129h77z" />
<glyph unicode="&#x6c7;" horiz-adv-x="553" arabic-form="final" d="M248 -162q67 0 105.5 36.5t38.5 96.5v29h-98q-106 0 -164.5 58.5t-58.5 173t74.5 184t199.5 69.5h131v-407h82q5 0 5 -4v-69q0 -5 -5 -5h-82v-24q0 -102 -60.5 -159t-166.5 -57t-184 51l40 67q76 -40 143 -40zM391 78v329h-43q-89 0 -138.5 -47t-49.5 -128t34 -117.5 t103 -36.5h94zM333 712q0 16 -10.5 26t-25.5 10t-26 -10t-11 -35.5t25 -57.5q48 25 48 67zM189.5 570q-52.5 0 -98.5 34l29 42q37 -25 68.5 -25t52.5 6q-32 41 -32 82t25 63.5t65 22.5t63 -22.5t23 -57t-26.5 -69t-71.5 -55.5t-97.5 -21z" />
<glyph unicode="&#x6c8;" horiz-adv-x="553" arabic-form="final" d="M248 -162q67 0 105.5 36.5t38.5 96.5v29h-98q-106 0 -164.5 58.5t-58.5 173t74.5 184t199.5 69.5h131v-407h82q5 0 5 -4v-69q0 -5 -5 -5h-82v-24q0 -102 -60.5 -159t-166.5 -57t-184 51l40 67q76 -40 143 -40zM391 78v329h-43q-89 0 -138.5 -47t-49.5 -128t34 -117.5 t103 -36.5h94zM279 781h57v-194h-57v194z" />
<glyph unicode="&#x6c9;" horiz-adv-x="553" arabic-form="final" d="M248 -162q67 0 105.5 36.5t38.5 96.5v29h-98q-106 0 -164.5 58.5t-58.5 173t74.5 184t199.5 69.5h131v-407h82q5 0 5 -4v-69q0 -5 -5 -5h-82v-24q0 -102 -60.5 -159t-166.5 -57t-184 51l40 67q76 -40 143 -40zM391 78v329h-43q-89 0 -138.5 -47t-49.5 -128t34 -117.5 t103 -36.5h94zM175 628l110 199h42l111 -199h-68l-63 129l-65 -129h-67z" />
<glyph unicode="&#x6ca;" horiz-adv-x="553" d="M248 -162q67 0 105.5 36.5t38.5 96.5v29h-98q-106 0 -164.5 58.5t-58.5 173t74.5 184t199.5 69.5h131v-407h82q5 0 5 -4v-69q0 -5 -5 -5h-82v-24q0 -102 -60.5 -159t-166.5 -57t-184 51l40 67q76 -40 143 -40zM391 78v329h-43q-89 0 -138.5 -47t-49.5 -128t34 -117.5 t103 -36.5h94zM418.5 580q-26.5 0 -41.5 15.5t-15 44.5t15 44.5t41.5 15.5t41 -16.5t14.5 -43.5t-14.5 -43.5t-41 -16.5zM246.5 580q-24.5 0 -41 14t-16.5 46t16.5 46t41 14t39.5 -15.5t15 -44.5t-15 -44.5t-39.5 -15.5z" />
<glyph unicode="&#x6cb;" horiz-adv-x="553" arabic-form="final" d="M248 -162q67 0 105.5 36.5t38.5 96.5v29h-98q-106 0 -164.5 58.5t-58.5 173t74.5 184t199.5 69.5h131v-407h82q5 0 5 -4v-69q0 -5 -5 -5h-82v-24q0 -102 -60.5 -159t-166.5 -57t-184 51l40 67q76 -40 143 -40zM391 78v329h-43q-89 0 -138.5 -47t-49.5 -128t34 -117.5 t103 -36.5h94zM394.5 580q-26.5 0 -41.5 15.5t-15 44.5t15 44.5t41.5 15.5t41 -16.5t14.5 -43.5t-14.5 -43.5t-41 -16.5zM223 580q-25 0 -41.5 14t-16.5 46t16.5 46t41.5 14t39.5 -16.5t14.5 -43.5t-14.5 -43.5t-39.5 -16.5zM306.5 715q-21.5 0 -36.5 13t-15 42t15 42 t36.5 13t37 -13.5t15.5 -42t-15.5 -41.5t-37 -13z" />
<glyph unicode="&#x6cd;" horiz-adv-x="1083" d="M385 -240q-93 0 -147 65t-54 167.5t30 176.5l-178 -51l-16 50l244 97l38 -64q-28 -88 -28 -181q0 -182 130 -182h186q71 0 118 26.5t47 63.5q0 21 -18 35.5t-75.5 31t-85.5 31.5q-58 33 -57.5 94t35 114.5t89 87t112.5 33.5t105 -46q22 -22 61 -85q58 -93 92 -119.5 t70 -26.5h5q5 0 5 -4v-69q0 -5 -5 -5h-5q-84 0 -161 81q-13 14 -54.5 74t-71 85t-56 25t-58.5 -21.5t-52.5 -52.5t-20.5 -53t22.5 -35.5t90 -34t96.5 -47t29 -63.5q0 -198 -257 -198h-205z" />
<glyph unicode="&#x6ce;" horiz-adv-x="374" d="M-5 0q-5 0 -5 5v69q0 4 5 4h192v407h89v-485h-281zM233.5 -200q-26.5 0 -41.5 15.5t-15 44.5t15 44.5t41.5 15.5t41 -16.5t14.5 -43.5t-14.5 -43.5t-41 -16.5zM61.5 -200q-24.5 0 -41 14t-16.5 46t16.5 46t40.5 14t39.5 -15.5t15.5 -44.5t-15 -44.5t-39.5 -15.5zM369 828 l-110 -199h-62l-111 199h78l63 -129l65 129h77z" />
<glyph unicode="&#x6ce;" horiz-adv-x="391" d="M-5 0q-5 0 -5 5v69q0 4 5 4h162v407h89v-407h150q5 0 5 -4v-69q0 -5 -5 -5h-401zM291.5 -200q-26.5 0 -41.5 15.5t-15 44.5t15 44.5t41.5 15.5t41 -16.5t14.5 -43.5t-14.5 -43.5t-41 -16.5zM119.5 -200q-24.5 0 -41 14t-16.5 46t16.5 46t41 14t39.5 -15.5t15 -44.5 t-15 -44.5t-39.5 -15.5zM342 828l-110 -199h-62l-111 199h78l63 -129l65 129h77z" />
<glyph unicode="&#x6ce;" horiz-adv-x="963" d="M65 -7q0 103 35 188h83q-21 -51 -24.5 -89t-3.5 -85q0 -81 33.5 -125t96.5 -44h186q71 0 118 26.5t47 64.5t-75 60q-75 21 -103 37q-58 33 -58 94t34.5 114.5t89 87t113.5 33.5t105 -47q23 -23 61 -85q58 -92 91.5 -118.5t69.5 -26.5h5q5 0 5 -4v-69q0 -5 -5 -5h-5 q-84 0 -161 81q-12 12 -55.5 74.5t-72 86t-54.5 23.5t-57.5 -21t-52.5 -52.5t-21 -52.5t18 -34t74 -30q55 -17 85 -32q61 -32 61 -85q0 -198 -257 -198h-205q-94 0 -147.5 65t-53.5 168zM442 502l-110 -199h-62l-111 199h78l63 -128l65 128h77z" />
<glyph unicode="&#x6cf;" horiz-adv-x="553" d="M248 -162q67 0 105.5 36.5t38.5 96.5v29h-98q-106 0 -164.5 58.5t-58.5 173t74.5 184t199.5 69.5h131v-407h82q5 0 5 -4v-69q0 -5 -5 -5h-82v-24q0 -102 -60.5 -159t-166.5 -57t-184 51l40 67q76 -40 143 -40zM391 78v329h-43q-89 0 -138.5 -47t-49.5 -128t34 -117.5 t103 -36.5h94zM303.5 580q-26.5 0 -41.5 15.5t-15 44.5t15 44.5t41.5 15.5t41 -16.5t14.5 -43.5t-14.5 -43.5t-41 -16.5z" />
<glyph unicode="&#x6d0;" horiz-adv-x="963" arabic-form="final" d="M65 -7q0 103 35 188h83q-21 -51 -24.5 -89t-3.5 -85q0 -81 33.5 -125t96.5 -44h186q71 0 118 26.5t47 64.5t-75 60q-75 21 -103 37q-58 33 -58 94t34.5 114.5t89 87t113.5 33.5t105 -47q23 -23 61 -85q58 -92 91.5 -118.5t69.5 -26.5h5q5 0 5 -4v-69q0 -5 -5 -5h-5 q-84 0 -161 81q-12 12 -55.5 74.5t-72 86t-54.5 23.5t-57.5 -21t-52.5 -52.5t-21 -52.5t18 -34t74 -30q55 -17 85 -32q61 -32 61 -85q0 -198 -257 -198h-205q-94 0 -147.5 65t-53.5 168zM407 -421q-16 0 -27.5 9.5t-11.5 32t11.5 32.5t27.5 10t27.5 -10t11.5 -32.5 t-11.5 -32t-27.5 -9.5zM407 -548q-16 0 -27.5 10t-11.5 32t11.5 32t27.5 10t27.5 -10t11.5 -32t-11.5 -32t-27.5 -10z" />
<glyph unicode="&#x6d1;" horiz-adv-x="963" d="M65 -7q0 103 35 188h83q-21 -51 -24.5 -89t-3.5 -85q0 -81 33.5 -125t96.5 -44h186q71 0 118 26.5t47 64.5t-75 60q-75 21 -103 37q-58 33 -58 94t34.5 114.5t89 87t113.5 33.5t105 -47q23 -23 61 -85q58 -92 91.5 -118.5t69.5 -26.5h5q5 0 5 -4v-69q0 -5 -5 -5h-5 q-84 0 -161 81q-12 12 -55.5 74.5t-72 86t-54.5 23.5t-57.5 -21t-52.5 -52.5t-21 -52.5t18 -34t74 -30q55 -17 85 -32q61 -32 61 -85q0 -198 -257 -198h-205q-94 0 -147.5 65t-53.5 168zM465 -403q-39 0 -39 42q0 22 11 32t27 10t28 -10t12 -32.5t-11.5 -32t-27.5 -9.5z M344 -403q-39 0 -39 42q0 22 11 32t27 10t28 -10t12 -32.5t-11.5 -32t-27.5 -9.5zM404 -489q-36 0 -36 38q0 20 10 29t25.5 9t26.5 -9t11 -29.5t-11 -29t-26 -8.5z" />
<glyph unicode="&#x6ee;" horiz-adv-x="568" d="M45 78h333q-20 134 -75 228.5t-157 163.5l32 76q115 -61 187.5 -179t97.5 -289h111q5 0 5 -4v-69q0 -5 -5 -5h-529v78zM43 628l110 199h42l111 -199h-68l-63 129l-65 -129h-67z" />
<glyph unicode="&#x6ef;" horiz-adv-x="358" d="M65 -162q40 0 65.5 36.5t25.5 96.5v514h84v-407h124q5 0 5 -4v-69q0 -5 -5 -5h-124v-24q0 -101 -46 -158.5t-132 -57.5q-48 0 -102 28l26 67q39 -17 79 -17zM79 559l110 199h42l111 -199h-68l-63 129l-65 -129h-67z" />
<glyph unicode="&#x6fa;" horiz-adv-x="877" d="M-5 0q-5 0 -5 5v69q0 4 5 4h143v329h85v-329h108q48 0 75 32t27 84v213h85v-240l-1 -11q25 -43 54.5 -60.5t75.5 -17.5h61v407h85v-485h-146q-45 0 -83 15t-78 55q-50 -70 -146 -70h-345zM555.5 580q-26.5 0 -41.5 15.5t-15 44.5t14.5 44.5t41.5 15.5t41.5 -16.5 t14.5 -43.5t-14.5 -43.5t-41 -16.5zM383.5 580q-25.5 0 -41.5 14t-16 46t16 46t41.5 14t40 -16.5t14.5 -43.5t-14.5 -43.5t-40 -16.5zM467 715q-22 0 -36.5 13t-14.5 42t14.5 42t36.5 13t37.5 -13.5t15.5 -42t-15.5 -41.5t-37.5 -13zM476.5 -200q-26.5 0 -41.5 15.5 t-15 44.5t15 44.5t41.5 15.5t41 -16.5t14.5 -43.5t-14.5 -43.5t-41 -16.5z" />
<glyph unicode="&#x6fa;" horiz-adv-x="921" d="M-5 0q-5 0 -5 5v69q0 4 5 4h143v329h85v-329h108q48 0 75 32t27 84v213h85v-240l-1 -11q25 -43 54.5 -60.5t75.5 -17.5h61v407h85v-407h134q5 0 5 -4v-69q0 -5 -5 -5h-280q-45 0 -83 15t-78 55q-50 -70 -146 -70h-345zM555.5 580q-26.5 0 -41.5 15.5t-15 44.5t14.5 44.5 t41.5 15.5t41.5 -16.5t14.5 -43.5t-14.5 -43.5t-41 -16.5zM383.5 580q-25.5 0 -41.5 14t-16 46t16 46t41.5 14t40 -16.5t14.5 -43.5t-14.5 -43.5t-40 -16.5zM467 715q-22 0 -36.5 13t-14.5 42t14.5 42t36.5 13t37.5 -13.5t15.5 -42t-15.5 -41.5t-37.5 -13zM468.5 -200 q-26.5 0 -41.5 15.5t-15 44.5t14.5 44.5t41.5 15.5t41.5 -16.5t14.5 -43.5t-14.5 -43.5t-41 -16.5z" />
<glyph unicode="&#x6fa;" horiz-adv-x="1286" d="M65 23.5q0 127.5 41 228.5h83q-34 -86 -34 -236q0 -85 34 -131.5t96 -46.5h49q87 0 127.5 39.5t40.5 119.5v410h85v-329h108q48 0 75 32t27 84v213h85v-240l-1 -11q25 -43 55 -60.5t75 -17.5h61v407h85v-407h134q5 0 5 -4v-69q0 -5 -5 -5h-280q-45 0 -82.5 15t-78.5 54 q-51 -69 -146 -69h-117q0 -118 -60 -179t-189 -61h-72q-93 0 -147 68t-54 195.5zM930.5 580q-26.5 0 -41.5 15.5t-15 44.5t14.5 44.5t41.5 15.5t41.5 -16.5t14.5 -43.5t-14.5 -43.5t-41 -16.5zM758.5 580q-25.5 0 -41.5 14t-16 46t16 46t41.5 14t40 -16.5t14.5 -43.5 t-14.5 -43.5t-40 -16.5zM842 715q-22 0 -36.5 13t-14.5 42t14.5 42t36.5 13t37.5 -13.5t15.5 -42t-15.5 -41.5t-37.5 -13zM844.5 -200q-26.5 0 -41.5 15.5t-15 44.5t15 44.5t41.5 15.5t41 -16.5t14.5 -43.5t-14.5 -43.5t-41 -16.5z" />
<glyph unicode="&#x6fb;" horiz-adv-x="783" d="M623 78v159q0 92 -40.5 135.5t-121.5 43.5q-154 0 -259 -256v-82h421zM-5 0q-5 0 -5 5v69q0 4 5 4h122v377h85v-185q47 112 118 168.5t159 56.5q113 0 171 -61.5t58 -192.5v-241h-713zM453.5 -268q-26.5 0 -41.5 16t-15 44.5t15 44.5t41.5 16t41 -16.5t14.5 -44 t-14.5 -44t-41 -16.5zM449.5 580q-26.5 0 -41.5 15.5t-15 44.5t15 44.5t41.5 15.5t41 -16.5t14.5 -43.5t-14.5 -43.5t-41 -16.5z" />
<glyph unicode="&#x6fb;" horiz-adv-x="834" d="M623 78v159q0 92 -40.5 135.5t-121.5 43.5q-154 0 -259 -256v-82h421zM-5 0q-5 0 -5 5v69q0 4 5 4h122v377h85v-185q47 112 118 168.5t159 56.5q113 0 171 -61.5t58 -192.5v-163h132q5 0 5 -4v-69q0 -5 -5 -5h-845zM453.5 -268q-26.5 0 -41.5 16t-15 44.5t15 44.5 t41.5 16t41 -16.5t14.5 -44t-14.5 -44t-41 -16.5zM449.5 580q-26.5 0 -41.5 15.5t-15 44.5t15 44.5t41.5 15.5t41 -16.5t14.5 -43.5t-14.5 -43.5t-41 -16.5z" />
<glyph unicode="&#x6fb;" horiz-adv-x="1222" d="M1008 78v159q0 92 -40 135.5t-122 43.5q-155 0 -259 -254v-84h421zM65 23.5q0 127.5 41 228.5h83q-34 -86 -34 -236q0 -85 34 -131.5t96 -46.5h49q87 0 127.5 39.5t40.5 119.5v488h85v-215q47 112 117.5 168.5t159.5 56.5q113 0 171 -61.5t58 -192.5v-163h134q5 0 5 -4 v-69q0 -5 -5 -5h-640q0 -121 -60 -180.5t-189 -59.5h-72q-93 0 -147 68t-54 195.5zM838.5 -268q-26.5 0 -41.5 16t-15 44.5t15 44.5t41.5 16t41 -16.5t14.5 -44t-14.5 -44t-41 -16.5zM834.5 580q-26.5 0 -41.5 15.5t-15 44.5t15 44.5t41.5 15.5t41 -16.5t14.5 -43.5 t-14.5 -43.5t-41 -16.5z" />
<glyph unicode="&#x6fc;" horiz-adv-x="515" d="M-5 0q-5 0 -5 5v69q0 4 5 4h154q-32 27 -51.5 74t-19.5 104q0 113 65 176t173 63q83 0 139 -29l-27 -75q-62 26 -117 26q-142 0 -142 -165q0 -78 34 -126t89 -48h178v-78h-475zM292.5 580q-26.5 0 -41.5 15.5t-15 44.5t15 44.5t41.5 15.5t41 -16.5t14.5 -43.5 t-14.5 -43.5t-41 -16.5zM290.5 -200q-26.5 0 -41.5 15.5t-15 44.5t15 44.5t41.5 15.5t41 -16.5t14.5 -43.5t-14.5 -43.5t-41 -16.5z" />
<glyph unicode="&#x6fc;" horiz-adv-x="594" d="M305.5 439q-79.5 0 -164.5 -58q15 -68 56.5 -130.5t100.5 -107.5q77 52 114.5 114.5t42.5 144.5q-70 37 -149.5 37zM482 0q-92 0 -185 50q-88 -50 -186 -50h-116q-5 0 -5 5v69q0 4 5 4h115q72 0 119 20q-39 28 -79 80.5t-68 113.5t-37 115q55 51 123.5 80.5t135.5 29.5 t131 -20t112 -53q0 -104 -48 -195.5t-132 -149.5q56 -21 111 -21h121q5 0 5 -4v-69q0 -5 -5 -5h-117zM290.5 -200q-26.5 0 -41.5 15.5t-15 44.5t15 44.5t41.5 15.5t41 -16.5t14.5 -43.5t-14.5 -43.5t-41 -16.5zM292.5 620q-26.5 0 -41.5 15.5t-15 44.5t15 44.5t41.5 15.5 t41 -16t14.5 -43.5t-14.5 -44t-41 -16.5z" />
<glyph unicode="&#x6fc;" horiz-adv-x="613" d="M325.5 439q-79.5 0 -164.5 -58q12 -58 53.5 -122.5t100.5 -112.5q77 53 115.5 115t44.5 141q-70 37 -149.5 37zM293.5 -321q-88.5 0 -144 51t-55.5 142q0 62 36.5 117.5t115.5 110.5q-71 68 -120.5 151.5t-60.5 155.5q55 51 123.5 80.5t135.5 29.5t131 -20t112 -53 q-2 -96 -48.5 -185.5t-133.5 -157.5q54 -23 113 -23h121q5 0 5 -4v-69q0 -5 -5 -5h-117q-38 0 -92 15t-96 38q-71 -45 -100 -86.5t-29 -86.5q0 -64 37 -94t116 -30q50 0 147 16l11 -69q-114 -24 -202.5 -24zM331.5 -170q-26.5 0 -41.5 15.5t-15 44t15 44.5t41.5 16t41 -16.5 t14.5 -44t-14.5 -43.5t-41 -16zM331.5 620q-26.5 0 -41.5 15.5t-15 44.5t15 44.5t41.5 15.5t41 -16t14.5 -43.5t-14.5 -44t-41 -16.5z" />
<glyph unicode="&#x6ff;" horiz-adv-x="775" d="M-5 0q-5 0 -5 5v69q0 4 5 4h155q-32 20 -51 58t-19 92t27 100.5t73 71.5t101 25q194 0 194 -215v-132h131v196q0 136 -61.5 200.5t-193.5 64.5q-97 0 -185 -29l-23 77q94 31 208 31q163 0 251.5 -88t88.5 -248v-282h-696zM390 195q0 142 -113 142q-51 0 -79.5 -31 t-28.5 -91.5t38.5 -98.5t100.5 -38h82v117zM245 700l110 199h42l111 -199h-68l-63 129l-65 -129h-67z" />
<glyph unicode="&#x6ff;" horiz-adv-x="815" d="M390 195q0 142 -113 142q-51 0 -79.5 -31t-28.5 -91.5t38.5 -98.5t100.5 -38h82v117zM-5 0q-5 0 -5 5v69q0 4 5 4h155q-32 20 -51 58t-19 92t27 100.5t73 71.5t101 25q194 0 194 -215v-132h131v196q0 136 -61.5 200.5t-193.5 64.5q-97 0 -185 -29l-23 77q94 31 208 31 q163 0 251.5 -88t88.5 -248v-204h130q5 0 5 -4v-69q0 -5 -5 -5h-826zM245 700l110 199h42l111 -199h-68l-63 129l-65 -129h-67z" />
</font>
</defs>
</svg>
