<?xml version="1.0" standalone="no"?>
<!DOCTYPE svg PUBLIC "-//W3C//DTD SVG 1.1//EN" "http://www.w3.org/Graphics/SVG/1.1/DTD/svg11.dtd" >
<svg xmlns="http://www.w3.org/2000/svg" xmlns:xlink="http://www.w3.org/1999/xlink" version="1.1">
<metadata></metadata>
<defs>
<font id="el_messiriregular" horiz-adv-x="0" >
<font-face units-per-em="1000" ascent="800" descent="-200" />
<missing-glyph horiz-adv-x="250" />
<glyph unicode="&#xfedf;&#xfef0;" horiz-adv-x="996" arabic-form="isolated" d="M736 70h65q26 0 38 16.5t14.5 40t2.5 61.5v324q0 43 -17 76t-38 47q6 8 25.5 16.5t40.5 8.5q33 0 56 -25.5t23 -85.5v-355q-1 -96 -44 -145t-109 -49h-57v70zM189.5 -186.5q-76.5 49.5 -100.5 111t-24 115.5q0 65 28.5 107.5t74.5 42.5q18 0 31.5 -6.5t18.5 -14.5 q-26 -21 -44 -66.5t-18 -92.5q0 -79 61.5 -128t203.5 -49q82 0 140.5 21.5t88 59.5t29.5 86h-29q-48 0 -70 20.5t-22 49.5q0 15 4 24q13 -9 36.5 -16.5t50.5 -7.5h263v-70h-145q0 -56 -35.5 -110t-111 -90t-189.5 -36h-22q-143 0 -219.5 49.5z" />
<glyph unicode="&#xfee0;&#xfef0;" horiz-adv-x="1036" arabic-form="final" d="M1063 70v-70h-93q-32 0 -53.5 6.5t-39.5 18.5q-37 -25 -84 -25h-57v70h65q26 0 38 16.5t14.5 40t2.5 61.5v324q0 43 -17 76t-38 47q6 8 25.5 16.5t40.5 8.5q33 0 56 -25.5t23 -85.5v-355q0 -76 -29 -124h146zM189.5 -186.5q-76.5 49.5 -100.5 111t-24 115.5 q0 65 28.5 107.5t74.5 42.5q18 0 31.5 -6.5t18.5 -14.5q-26 -21 -44 -66.5t-18 -92.5q0 -79 61.5 -128t203.5 -49q82 0 140.5 21.5t88 59.5t29.5 86h-29q-48 0 -70 20.5t-22 49.5q0 15 4 24q13 -9 36.5 -16.5t50.5 -7.5h263v-70h-145q0 -56 -35.5 -110t-111 -90t-189.5 -36 h-22q-143 0 -219.5 49.5z" />
<glyph unicode="&#xfee0;&#xfea4;&#xfef0;" horiz-adv-x="1673" arabic-form="final" d="M1700 70v-70h-93q-32 0 -53.5 6.5t-39.5 18.5q-37 -25 -84 -25h-57v70h65q26 0 38 16.5t14.5 40t2.5 61.5v324q0 43 -17 76t-38 47q6 8 25.5 16.5t40.5 8.5q33 0 56 -25.5t23 -85.5v-355q0 -76 -29 -124h146zM1266 70v-70h-50q-33 0 -54.5 6.5t-39.5 19.5 q-46 -26 -112 -26h-274v70h210q57 0 91.5 6t63.5 41t29 113q0 90 -51 135t-179 45l-58 -1q-31 0 -46 14t-21 41t-4 36q14 -10 30 -17t40 -7l28 1q24 3 63 3q149 0 218.5 -63t69.5 -184q0 -102 -47 -163h93zM189.5 -186.5q-76.5 49.5 -100.5 111t-24 115.5q0 65 28.5 107.5 t74.5 42.5q18 0 31.5 -6.5t18.5 -14.5q-26 -21 -44 -66.5t-18 -92.5q0 -79 61.5 -128t203.5 -49q82 0 140.5 21.5t88 59.5t29.5 86h-29q-48 0 -70 20.5t-22 49.5q0 15 4 24q13 -9 36.5 -16.5t50.5 -7.5h263v-70h-145q0 -56 -35.5 -110t-111 -90t-189.5 -36h-22 q-143 0 -219.5 49.5z" />
<glyph unicode="&#x627;&#xfedf;&#xfee0;&#xfeea;" horiz-adv-x="1284" arabic-form="isolated" d="M586 830l-6 173h55l6 -173h-55zM551 620q-40 0 -53 26.5t-13 56.5q0 11 1.5 23.5t4.5 28.5l50 14q-6 -34 -6 -57q0 -37 25 -37q15 0 25 15.5t11 62.5v30l48 18v-61q0 -14 5.5 -24.5t23.5 -10.5t24 11t6 28t-4 34.5t-11 34.5l45 14q10 -19 16.5 -43.5t6.5 -44.5 q0 -33 -18.5 -59.5t-57.5 -26.5q-32 0 -52 18q-9 -23 -29.5 -37t-47.5 -14zM486 -5q-65 0 -111.5 22.5t-65.5 80.5q-53 -13 -103 -10.5t-89.5 19t-63 46t-23.5 70.5q0 54 34 99t92 76t128 42l-3 76h81l16 -330q3 -47 17 -70.5t39.5 -31t61.5 -7.5q57 0 79.5 11t26 39t1.5 78 l-13 363h83l12 -361q2 -51 16.5 -79.5t39.5 -39.5t55 -11q56 0 79 11t26.5 39t1.5 78l-19 509h81l20 -500q3 -71 -9.5 -120t-56 -74t-133.5 -25q-51 0 -80.5 19.5t-43.5 47.5q-19 -33 -61 -50t-115 -17zM1138 0l-20 714h81l20 -714h-81zM297 174l-9 183q-57 -6 -97 -26 t-61 -45t-21 -50q0 -24 18.5 -38.5t47.5 -21.5t61.5 -7t60.5 5z" />
<glyph unicode="&#xfedf;&#xfe82;" horiz-adv-x="646" arabic-form="isolated" d="M57 11q-7 11 -7 24t7 23.5t21 11.5h137v301q0 43 -17 76t-38 47q6 8 25.5 16.5t40.5 8.5q33 0 56 -25.5t23 -85.5v-338h96q43 0 66.5 35.5t23.5 82.5v324q0 43 -17 76t-38 47q6 8 25.5 16.5t40.5 8.5q33 0 56 -25.5t23 -85.5v-355q-1 -96 -44.5 -145t-109.5 -49h-349 q-14 0 -21 11zM246 576q-20 6 -46 18q-23 10 -39 15.5t-33 5.5q-19 0 -32 -8t-18 -8t1.5 18t26.5 33t54 15q20 0 37.5 -5t42.5 -15q22 -9 39.5 -14t36.5 -5q15 0 24 3t19 9t17 6q3 -3 -4 -22.5t-27 -35.5t-56 -16q-23 0 -43 6z" />
<glyph unicode="&#xfee0;&#xfe82;" horiz-adv-x="698" arabic-form="final" d="M698 70v-70h-93q-33 0 -54.5 6.5t-38.5 19.5q-36 -26 -85 -26h-349q-14 0 -21 11t-7 24t7 23.5t21 11.5h137v301q0 43 -17 76t-38 47q6 8 25.5 16.5t40.5 8.5q33 0 56 -25.5t23 -85.5v-338h96q43 0 66.5 35.5t23.5 82.5v324q0 43 -17 76t-38 47q6 8 25.5 16.5t40.5 8.5 q33 0 56 -25.5t23 -85.5v-355q0 -76 -29 -124h146zM246 576q-20 6 -46 18q-23 10 -39 15.5t-33 5.5q-19 0 -32 -8t-18 -8t1.5 18t26.5 33t54 15q20 0 37.5 -5t42.5 -15q22 -9 39.5 -14t36.5 -5q15 0 24 3t19 9t17 6q3 -3 -4 -22.5t-27 -35.5t-56 -16q-23 0 -43 6z" />
<glyph unicode="&#xfedf;&#xfe84;" horiz-adv-x="646" arabic-form="isolated" d="M57 11q-7 11 -7 24t7 23.5t21 11.5h137v301q0 43 -17 76t-38 47q6 8 25.5 16.5t40.5 8.5q33 0 56 -25.5t23 -85.5v-338h96q43 0 66.5 35.5t23.5 82.5v324q0 43 -17 76t-38 47q6 8 25.5 16.5t40.5 8.5q33 0 56 -25.5t23 -85.5v-355q-1 -96 -44.5 -145t-109.5 -49h-349 q-14 0 -21 11zM123 591q0 12 9 19.5t21 7.5q8 0 14 -3q-12 13 -22.5 36.5t-10.5 48.5q0 42 28.5 68t79.5 26q62 0 62 -40q0 -16 -9 -24t-20 -8q-9 0 -13 4q1 18 -11.5 29t-28.5 14q-12 -3 -21.5 -18.5t-9.5 -42.5q0 -77 82 -77q24 0 34 4q21 0 21 -19q0 -6 -3 -11.5t-7 -5.5 q-66 -6 -123.5 -14.5t-63.5 -14.5q-8 13 -8 21z" />
<glyph unicode="&#xfee0;&#xfe84;" horiz-adv-x="698" arabic-form="final" d="M698 70v-70h-93q-33 0 -54.5 6.5t-38.5 19.5q-36 -26 -85 -26h-349q-14 0 -21 11t-7 24t7 23.5t21 11.5h137v301q0 43 -17 76t-38 47q6 8 25.5 16.5t40.5 8.5q33 0 56 -25.5t23 -85.5v-338h96q43 0 66.5 35.5t23.5 82.5v324q0 43 -17 76t-38 47q6 8 25.5 16.5t40.5 8.5 q33 0 56 -25.5t23 -85.5v-355q0 -76 -29 -124h146zM123 591q0 12 9 19.5t21 7.5q8 0 14 -3q-12 13 -22.5 36.5t-10.5 48.5q0 42 28.5 68t79.5 26q62 0 62 -40q0 -16 -9 -24t-20 -8q-9 0 -13 4q1 18 -11.5 29t-28.5 14q-12 -3 -21.5 -18.5t-9.5 -42.5q0 -77 82 -77q24 0 34 4 q21 0 21 -19q0 -6 -3 -11.5t-7 -5.5q-66 -6 -123.5 -14.5t-63.5 -14.5q-8 13 -8 21z" />
<glyph unicode="&#xfedf;&#xfe88;" horiz-adv-x="646" arabic-form="isolated" d="M57 11q-7 11 -7 24t7 23.5t21 11.5h137v301q0 43 -17 76t-38 47q6 8 25.5 16.5t40.5 8.5q33 0 56 -25.5t23 -85.5v-338h96q43 0 66.5 35.5t23.5 82.5v324q0 43 -17 76t-38 47q6 8 25.5 16.5t40.5 8.5q33 0 56 -25.5t23 -85.5v-355q-1 -96 -44.5 -145t-109.5 -49h-349 q-14 0 -21 11zM154 -253q0 12 9 19.5t21 7.5q8 0 14 -3q-13 14 -23 37t-10 48q0 42 28.5 68t79.5 26q62 0 62 -40q0 -16 -9 -24t-20 -8q-9 0 -13 4q1 18 -11.5 29t-28.5 14q-12 -3 -21.5 -18.5t-9.5 -42.5q0 -77 82 -77q24 0 34 4q21 0 21 -19q0 -6 -3 -11.5t-7 -5.5 q-66 -6 -123.5 -14.5t-63.5 -14.5q-8 13 -8 21z" />
<glyph unicode="&#xfee0;&#xfe88;" horiz-adv-x="698" arabic-form="final" d="M698 70v-70h-93q-33 0 -54.5 6.5t-38.5 19.5q-36 -26 -85 -26h-349q-14 0 -21 11t-7 24t7 23.5t21 11.5h137v301q0 43 -17 76t-38 47q6 8 25.5 16.5t40.5 8.5q33 0 56 -25.5t23 -85.5v-338h96q43 0 66.5 35.5t23.5 82.5v324q0 43 -17 76t-38 47q6 8 25.5 16.5t40.5 8.5 q33 0 56 -25.5t23 -85.5v-355q0 -76 -29 -124h146zM154 -253q0 12 9 19.5t21 7.5q8 0 14 -3q-13 14 -23 37t-10 48q0 42 28.5 68t79.5 26q62 0 62 -40q0 -16 -9 -24t-20 -8q-9 0 -13 4q1 18 -11.5 29t-28.5 14q-12 -3 -21.5 -18.5t-9.5 -42.5q0 -77 82 -77q24 0 34 4 q21 0 21 -19q0 -6 -3 -11.5t-7 -5.5q-66 -6 -123.5 -14.5t-63.5 -14.5q-8 13 -8 21z" />
<glyph unicode="&#xfedf;&#xfe8e;" horiz-adv-x="646" arabic-form="isolated" d="M57 11q-7 11 -7 24t7 23.5t21 11.5h137v301q0 43 -17 76t-38 47q6 8 25.5 16.5t40.5 8.5q33 0 56 -25.5t23 -85.5v-338h96q43 0 66.5 35.5t23.5 82.5v324q0 43 -17 76t-38 47q6 8 25.5 16.5t40.5 8.5q33 0 56 -25.5t23 -85.5v-355q-1 -96 -44.5 -145t-109.5 -49h-349 q-14 0 -21 11z" />
<glyph unicode="&#xfee0;&#xfe8e;" horiz-adv-x="698" arabic-form="final" d="M698 70v-70h-93q-33 0 -54.5 6.5t-38.5 19.5q-36 -26 -85 -26h-349q-14 0 -21 11t-7 24t7 23.5t21 11.5h137v301q0 43 -17 76t-38 47q6 8 25.5 16.5t40.5 8.5q33 0 56 -25.5t23 -85.5v-338h96q43 0 66.5 35.5t23.5 82.5v324q0 43 -17 76t-38 47q6 8 25.5 16.5t40.5 8.5 q33 0 56 -25.5t23 -85.5v-355q0 -76 -29 -124h146z" />
<glyph unicode="&#xfedf;&#xfb51;" horiz-adv-x="646" d="M57 11q-7 11 -7 24t7 23.5t21 11.5h137v301q0 43 -17 76t-38 47q6 8 25.5 16.5t40.5 8.5q33 0 56 -25.5t23 -85.5v-338h96q43 0 66.5 35.5t23.5 82.5v324q0 43 -17 76t-38 47q6 8 25.5 16.5t40.5 8.5q33 0 56 -25.5t23 -85.5v-355q-1 -96 -44.5 -145t-109.5 -49h-349 q-14 0 -21 11zM117 586q0 18 8 18h25q0 9 10.5 34t35 46.5t62.5 21.5q39 0 57.5 -23t18.5 -57q0 -27 -12 -43t-33 -16h-164q-8 0 -8 19zM263 604q21 0 21 28q0 16 -9 26.5t-29 10.5q-21 0 -38 -11t-26.5 -26.5t-9.5 -27.5h91z" />
<glyph unicode="&#xfee0;&#xfb51;" horiz-adv-x="698" d="M698 70v-70h-93q-33 0 -54.5 6.5t-38.5 19.5q-36 -26 -85 -26h-349q-14 0 -21 11t-7 24t7 23.5t21 11.5h137v301q0 43 -17 76t-38 47q6 8 25.5 16.5t40.5 8.5q33 0 56 -25.5t23 -85.5v-338h96q43 0 66.5 35.5t23.5 82.5v324q0 43 -17 76t-38 47q6 8 25.5 16.5t40.5 8.5 q33 0 56 -25.5t23 -85.5v-355q0 -76 -29 -124h146zM117 586q0 18 8 18h25q0 9 10.5 34t35 46.5t62.5 21.5q39 0 57.5 -23t18.5 -57q0 -27 -12 -43t-33 -16h-164q-8 0 -8 19zM263 604q21 0 21 28q0 16 -9 26.5t-29 10.5q-21 0 -38 -11t-26.5 -26.5t-9.5 -27.5h91z" />
<glyph unicode="&#xfedf;&#xfbe9;&#xfee2;" horiz-adv-x="1091" d="M831 70h65q26 0 38 16.5t14.5 40t2.5 61.5v324q0 43 -17 76t-38 47q6 8 25.5 16.5t40.5 8.5q33 0 56 -25.5t23 -85.5v-355q-1 -96 -44 -145t-109 -49h-57v70zM562 70h67q69 0 89.5 56t20.5 114q0 63 -16.5 119.5t-68.5 100.5q22 20 55 20q63 0 91.5 -62t28.5 -148 q0 -110 -47 -190t-160 -80h-60v70zM680 70v-70h-115q-56 0 -91 25q-41 -25 -110 -25h-63q-62 0 -89 -30t-27 -73v-64q0 -60 -23 -85.5t-56 -25.5q-21 0 -40.5 8.5t-25.5 16.5q21 14 38 47t17 76v39q0 38 17.5 81.5t60.5 64.5v268q0 89 49 123t137 34q64 0 105 -19t64 -72 t23 -153q0 -112 -32 -166h161zM437 125q24 55 24 114q0 172 -108 172q-90 0 -90 -112v-229h70q80 0 104 55z" />
<glyph unicode="&#xfedf;&#xfb51;" horiz-adv-x="503" d="M151 661q-22 0 -52.5 2t-57.5 5.5t-41 5.5l7 51q9 -1 23 -3t31 -3q14 30 34.5 60t48 50.5t64.5 20.5q32 0 60.5 -20t28.5 -67q0 -24 -12 -47.5t-43.5 -39t-90.5 -15.5zM204 796q-25 0 -48 -23t-42 -59q21 -1 37 -1q57 0 74.5 13t17.5 32q0 20 -12 29t-27 9zM393 536 q0 22 -3 53t-7 62t-8 53l86 10q3 -20 6.5 -52.5t5.5 -64.5t2 -53q0 -63 -11.5 -122.5t-37.5 -115.5q47 -49 69 -90t22 -81q0 -29 -14 -60.5t-51 -53t-107 -21.5h-230v81q150 107 214 213q-56 50 -131.5 107t-157.5 116l47 66q89 -66 158 -119.5t119 -98.5q15 40 22 82.5 t7 88.5zM234 82h126q51 0 67 18.5t16 42.5q0 18 -14.5 42t-40.5 52q-28 -42 -66.5 -81t-87.5 -74z" />
<glyph unicode="&#xfee0;&#xfb51;" horiz-adv-x="635" d="M151 661q-22 0 -52.5 2t-57.5 5.5t-41 5.5l7 51q9 -1 23 -3t31 -3q14 30 34.5 60t48 50.5t64.5 20.5q32 0 60.5 -20t28.5 -67q0 -24 -12 -47.5t-43.5 -39t-90.5 -15.5zM204 796q-25 0 -48 -23t-42 -59q21 -1 37 -1q57 0 74.5 13t17.5 32q0 20 -12 29t-27 9zM142 -5 q-27 0 -54.5 4.5t-38.5 6.5l11 79q90 -12 164.5 2.5t118.5 72.5q-39 64 -117 155.5t-186 188.5l54 57q106 -100 175 -181t111 -141q12 43 14 98l-14 377h82l20 -515q2 -49 9.5 -75.5t34 -36.5t83.5 -10q21 0 30.5 -11.5t9.5 -27.5t-14 -29.5t-36 -13.5q-70 0 -111 13.5 t-60 42t-25 73.5q-31 -55 -76 -83t-93.5 -37t-91.5 -9z" />
<glyph unicode="&#x620;" horiz-adv-x="299" d="M0 -5l10 82q59 0 92 4.5t47 23t14 58.5q0 38 -17.5 95.5t-39.5 114.5l81 30q13 -32 24.5 -73t19.5 -81t8 -70q0 -96 -51 -138q16 -12 25.5 -30.5t9.5 -40.5q0 -37 -26 -63t-63 -26t-63 26t-26 63q0 14 4 27q-23 -2 -49 -2zM134 -68q17 0 29 11t12 27q0 17 -12 28.5 t-29 11.5h-1.5t-8.5 -1q-1 -1 -2 -1q-13 -3 -21 -14t-8 -24q0 -16 12 -27t29 -11z" />
<glyph unicode="&#x620;" horiz-adv-x="373" d="M0 -5l10 82q50 0 78 7.5t42.5 29t23.5 62.5t22 107l78 -15q-6 -27 -13.5 -62t-7.5 -59q0 -15 2 -28t15 -22t44 -14.5t89 -5.5q21 0 30.5 -11.5t9.5 -27.5t-14 -29.5t-36 -13.5q-65 0 -101.5 7.5t-54 22t-25.5 36.5q-12 -17 -26 -29q15 -12 24 -30t9 -39q0 -37 -26 -63 t-63 -26t-63 26t-26 63q0 17 6 32h-27zM110 -75q17 0 29 11t12 27q0 17 -12 28.5t-29 11.5t-29 -11.5t-12 -28.5q0 -16 12 -27t29 -11z" />
<glyph unicode="&#x620;" horiz-adv-x="736" d="M30 -1q0 36 10 80t32 97l72 -28q-16 -42 -24 -77t-8 -65q0 -55 32.5 -90t86 -51t117.5 -16q77 0 140.5 18t101.5 47.5t38 65.5q0 26 -40 45t-112 39l19 83q104 -40 162 -55t89 -15q21 0 30.5 -11.5t9.5 -27.5t-14 -29.5t-36 -13.5h-37q2 -9 3 -14.5t1 -14.5 q0 -43 -34.5 -83.5t-100 -70t-157.5 -39.5q12 -21 12 -45q0 -37 -26 -63t-63 -26t-63 26t-26 63q0 24 12 45q-64 10 -115.5 38t-81.5 75t-30 113zM334 -310q17 0 29 11t12 27q0 17 -12 28.5t-29 11.5t-29 -11.5t-12 -28.5q0 -16 12 -27t29 -11z" />
<glyph unicode="&#x63b;" horiz-adv-x="412" d="M262 723q-21 0 -35.5 14.5t-14.5 34.5t14.5 35t35.5 15q20 0 34.5 -15t14.5 -35t-14.5 -34.5t-34.5 -14.5zM147 670q-21 0 -35.5 14.5t-14.5 34.5t14.5 35t35.5 15q20 0 34.5 -15t14.5 -35t-14.5 -34.5t-34.5 -14.5zM0 -5l10 82h94q59 0 93.5 6.5t51 17t22 23t5.5 25.5 q0 23 -17.5 57t-71.5 88q-37 38 -74 67t-61 49t-24 29q0 23 5.5 43t15.5 31q40 43 125.5 86.5t213.5 107.5l34 -74q-91 -44 -148.5 -72.5t-95 -50t-69.5 -43.5q117 -95 179.5 -170.5t62.5 -152.5q0 -22 -8 -48t-34 -49t-78 -37.5t-140 -14.5h-91z" />
<glyph unicode="&#x63b;" horiz-adv-x="508" d="M230 723q-21 0 -35.5 14.5t-14.5 34.5t14.5 35t35.5 15q20 0 34.5 -15t14.5 -35t-14.5 -34.5t-34.5 -14.5zM115 670q-21 0 -35.5 14.5t-14.5 34.5t14.5 35t35.5 15q20 0 34.5 -15t14.5 -35t-14.5 -34.5t-34.5 -14.5zM0 -5l10 82h77q83 0 123 9t52.5 24t12.5 31 q0 24 -18 53t-46 59.5t-59.5 60.5t-59.5 55t-46 43.5t-18 26.5q0 23 5.5 43t15.5 31q27 29 79.5 60.5t120.5 65t139 68.5l34 -74q-88 -44 -172.5 -85t-147.5 -85q55 -47 103 -91t89 -94.5t75 -114.5q21 -39 49 -57t55.5 -23.5t44.5 -5.5q21 0 30.5 -11.5t9.5 -27.5 t-14 -29.5t-36 -13.5q-24 0 -55.5 6.5t-63.5 25t-56 54.5q-20 -29 -50 -48t-78 -28.5t-122 -9.5h-83z" />
<glyph unicode="&#x63b;" horiz-adv-x="975" d="M733 723q-21 0 -35.5 14.5t-14.5 34.5t14.5 35t35.5 15q20 0 34.5 -15t14.5 -35t-14.5 -34.5t-34.5 -14.5zM618 670q-21 0 -35.5 14.5t-14.5 34.5t14.5 35t35.5 15q20 0 34.5 -15t14.5 -35t-14.5 -34.5t-34.5 -14.5zM390 -21q-178 0 -269 47t-91 156q0 37 9 78.5t19 78.5 l75 -19q-6 -22 -13.5 -55.5t-7.5 -59.5q0 -52 26.5 -83.5t92.5 -46t185 -14.5q125 0 196 13t100.5 32t29.5 35q0 24 -18 53t-46 59.5t-59.5 60.5t-59.5 55t-46 43.5t-18 26.5q0 23 5.5 43t15.5 31q27 29 79.5 60.5t120.5 65t139 68.5l34 -74q-88 -44 -172.5 -85t-147.5 -85 q55 -47 103 -91t89 -94.5t75 -114.5q21 -39 49 -57t55.5 -23.5t44.5 -5.5q21 0 30.5 -11.5t9.5 -27.5t-14 -29.5t-36 -13.5q-24 0 -56 6.5t-63.5 25t-55.5 54.5q-17 -22 -45 -41t-74.5 -32.5t-117.5 -21t-173 -7.5z" />
<glyph unicode="&#x63c;" horiz-adv-x="412" d="M0 70h347q45 0 69 26t24 67q0 46 -31 72.5t-96 26.5h-98q-71 0 -108 42.5t-37 119.5q0 83 47.5 126.5t153.5 43.5l108 -2l62 -2q24 0 40 7t30 17q2 -15 -4 -36q-6 -22 -22.5 -38.5t-42.5 -16.5l-149 2q-72 0 -102.5 -22.5t-30.5 -72.5q0 -47 23.5 -72.5t69.5 -25.5h78 q199 0 199 -171q0 -75 -37 -118t-108 -43h-385v70zM55.5 -15.5q15.5 -15.5 15.5 -37.5t-15.5 -37.5t-37.5 -15.5t-37.5 15.5t-15.5 37.5t15.5 37.5t37.5 15.5t37.5 -15.5zM-14.5 -136q16.5 -17 16.5 -40q0 -24 -16.5 -41t-40.5 -17q-23 0 -40 17t-17 41q0 23 17 40t40 17 q24 0 40.5 -17zM131.5 -136q16.5 -17 16.5 -40q0 -24 -16.5 -41t-40.5 -17q-23 0 -40 17t-17 41q0 23 17 40t40 17q24 0 40.5 -17z" />
<glyph unicode="&#x63c;" horiz-adv-x="508" d="M755 70v-70h-231q-43 0 -72 13q-31 -13 -67 -13h-385v70h347q45 0 69 26t24 67q0 46 -31 72.5t-96 26.5h-98q-71 0 -108 42.5t-37 119.5q0 83 47.5 126.5t153.5 43.5l108 -2l62 -2q24 0 40 7t30 17q2 -15 -4 -36q-6 -22 -22.5 -38.5t-42.5 -16.5l-149 2 q-72 0 -102.5 -22.5t-30.5 -72.5q0 -47 23.5 -72.5t69.5 -25.5h78q199 0 199 -171q0 -54 -19 -91h244zM55.5 -15.5q15.5 -15.5 15.5 -37.5t-15.5 -37.5t-37.5 -15.5t-37.5 15.5t-15.5 37.5t15.5 37.5t37.5 15.5t37.5 -15.5zM-14.5 -136q16.5 -17 16.5 -40q0 -24 -16.5 -41 t-40.5 -17q-23 0 -40 17t-17 41q0 23 17 40t40 17q24 0 40.5 -17zM131.5 -136q16.5 -17 16.5 -40q0 -24 -16.5 -41t-40.5 -17q-23 0 -40 17t-17 41q0 23 17 40t40 17q24 0 40.5 -17z" />
<glyph unicode="&#x63c;" horiz-adv-x="975" d="M923 70v-70h-142q-51 0 -84 20q-31 -18 -77 -18h-425q-68 0 -99 39t-31 102v129q0 43 45 43t45 -44v-99q0 -56 17.5 -78t65.5 -22h344q45 0 69 26t24 67q0 46 -31 72.5t-96 26.5h-98q-71 0 -108 42.5t-37 119.5q0 83 47.5 126.5t153.5 43.5l108 -2l62 -2q24 0 40 7t30 17 q2 -15 -4 -36q-6 -22 -22.5 -38.5t-42.5 -16.5l-149 2q-72 0 -102.5 -22.5t-30.5 -72.5q0 -47 23.5 -72.5t69.5 -25.5h78q199 0 199 -171q0 -55 -20 -93h178zM302.5 -36.5q15.5 -15.5 15.5 -37.5t-15.5 -37.5t-37.5 -15.5t-37.5 15.5t-15.5 37.5t15.5 37.5t37.5 15.5 t37.5 -15.5zM232.5 -157q16.5 -17 16.5 -40q0 -24 -16.5 -41t-40.5 -17q-23 0 -40 17t-17 41q0 23 17 40t40 17q24 0 40.5 -17zM378.5 -157q16.5 -17 16.5 -40q0 -24 -16.5 -41t-40.5 -17q-23 0 -40 17t-17 41q0 23 17 40t40 17q24 0 40.5 -17z" />
<glyph unicode="&#x63d;" horiz-adv-x="269" d="M0 70h67q69 0 89.5 56t20.5 114q0 63 -16.5 119.5t-68.5 100.5q22 20 55 20q63 0 91.5 -62t28.5 -148q0 -110 -47 -190t-160 -80h-60v70zM93 726l59 6q9 -20 25 -53.5t33 -67t29 -54.5l-46 -25q-7 12 -20 36.5t-27.5 52t-24.5 49.5q-11 -26 -24 -55.5t-24 -53t-16 -31.5 l-45 19q5 10 16 32.5t24 50t24 53t17 41.5zM-147 -103q-17 17 -17 40q0 24 17 41t40 17q24 0 40.5 -17t16.5 -41q0 -23 -16.5 -40t-40.5 -17q-23 0 -40 17zM-1 -103q-17 17 -17 40q0 24 17 41t40 17q24 0 40.5 -17t16.5 -41q0 -23 -16.5 -40t-40.5 -17q-23 0 -40 17z" />
<glyph unicode="&#x63d;" horiz-adv-x="343" d="M329 70v-70h-95q-33 0 -54.5 6.5t-39.5 19.5q-36 -23 -83 -26h-57v70h57q30 1 57 12v352q0 46 45 46t45 -45v-283q0 -36 4.5 -59t21.5 -23h99zM152 605l59 6q9 -20 25 -53.5t33 -67t29 -54.5l-46 -25q-7 12 -20 36.5t-27.5 52t-24.5 49.5q-11 -26 -24 -55.5t-24 -53 t-16 -31.5l-45 19q5 10 16 32.5t24 50t24 53t17 41.5zM-84 -103q-17 17 -17 40q0 24 17 41t40 17q24 0 40.5 -17t16.5 -41q0 -23 -16.5 -40t-40.5 -17q-23 0 -40 17zM62 -103q-17 17 -17 40q0 24 17 41t40 17q24 0 40.5 -17t16.5 -41q0 -23 -16.5 -40t-40.5 -17 q-23 0 -40 17z" />
<glyph unicode="&#x63d;" horiz-adv-x="736" d="M189.5 -186.5q-76.5 49.5 -100.5 111t-24 115.5q0 65 28.5 107.5t74.5 42.5q18 0 31.5 -6.5t18.5 -14.5q-26 -21 -44 -66.5t-18 -92.5q0 -79 61.5 -128t203.5 -49q82 0 140.5 21.5t88 59.5t29.5 86h-29q-48 0 -70 20.5t-22 49.5q0 15 4 24q13 -9 36.5 -16.5t50.5 -7.5 h263v-70h-145q0 -56 -35.5 -110t-111 -90t-189.5 -36h-22q-143 0 -219.5 49.5zM182 472l59 6q9 -20 25 -53.5t33 -67t29 -54.5l-46 -25q-7 12 -20 36.5t-27.5 52t-24.5 49.5q-11 -26 -24 -55.5t-24 -53t-16 -31.5l-45 19q5 10 16 32.5t24 50t24 53t17 41.5z" />
<glyph unicode="&#x63e;" horiz-adv-x="299" d="M218 507q-21 0 -35.5 14.5t-14.5 34.5t14.5 35t35.5 15q20 0 34.5 -15t14.5 -35t-14.5 -34.5t-34.5 -14.5zM81 507q-21 0 -35.5 14.5t-14.5 34.5t14.5 35t35.5 15q20 0 34.5 -15t14.5 -35t-14.5 -34.5t-34.5 -14.5zM0 -5l10 82q59 0 92 4.5t47 23t14 58.5 q0 38 -17.5 95.5t-39.5 114.5l81 30q13 -32 24.5 -73t19.5 -81t8 -70q0 -100 -56 -142t-183 -42zM185 -194q-21 0 -35.5 14.5t-14.5 34.5t14.5 35t35.5 15q20 0 34.5 -15t14.5 -35t-14.5 -34.5t-34.5 -14.5zM48 -194q-21 0 -35.5 14.5t-14.5 34.5t14.5 35t35.5 15 q20 0 34.5 -15t14.5 -35t-14.5 -34.5t-34.5 -14.5z" />
<glyph unicode="&#x63e;" horiz-adv-x="373" d="M267 386q-21 0 -35.5 14.5t-14.5 34.5t14.5 35t35.5 15q20 0 34.5 -15t14.5 -35t-14.5 -34.5t-34.5 -14.5zM130 386q-21 0 -35.5 14.5t-14.5 34.5t14.5 35t35.5 15q20 0 34.5 -15t14.5 -35t-14.5 -34.5t-34.5 -14.5zM0 -5l10 82q50 0 78 7.5t42.5 29t23.5 62.5t22 107 l78 -15q-6 -27 -13.5 -62t-7.5 -59q0 -15 2 -28t15 -22t44 -14.5t89 -5.5q21 0 30.5 -11.5t9.5 -27.5t-14 -29.5t-36 -13.5q-65 0 -101.5 7.5t-54 22t-25.5 36.5q-29 -41 -71.5 -53.5t-120.5 -12.5zM252 -194q-21 0 -35.5 14.5t-14.5 34.5t14.5 35t35.5 15q20 0 34.5 -15 t14.5 -35t-14.5 -34.5t-34.5 -14.5zM115 -194q-21 0 -35.5 14.5t-14.5 34.5t14.5 35t35.5 15q20 0 34.5 -15t14.5 -35t-14.5 -34.5t-34.5 -14.5z" />
<glyph unicode="&#x63e;" horiz-adv-x="736" d="M189.5 -186.5q-76.5 49.5 -100.5 111t-24 115.5q0 65 28.5 107.5t74.5 42.5q18 0 31.5 -6.5t18.5 -14.5q-26 -21 -44 -66.5t-18 -92.5q0 -79 61.5 -128t203.5 -49q82 0 140.5 21.5t88 59.5t29.5 86h-29q-48 0 -70 20.5t-22 49.5q0 15 4 24q13 -9 36.5 -16.5t50.5 -7.5 h263v-70h-145q0 -56 -35.5 -110t-111 -90t-189.5 -36h-22q-143 0 -219.5 49.5zM-39 184q-17 17 -17 40q0 24 17 41t40 17q24 0 40.5 -17t16.5 -41q0 -23 -16.5 -40t-40.5 -17q-23 0 -40 17zM107 184q-17 17 -17 40q0 24 17 41t40 17q24 0 40.5 -17t16.5 -41q0 -23 -16.5 -40 t-40.5 -17q-23 0 -40 17z" />
<glyph unicode="&#x63f;" horiz-adv-x="299" d="M150 617q-21 0 -35.5 14.5t-14.5 34.5t14.5 35t35.5 15q20 0 34.5 -15t14.5 -35t-14.5 -34.5t-34.5 -14.5zM82 507q-21 0 -35.5 14.5t-14.5 34.5t14.5 35t35.5 15q20 0 34.5 -15t14.5 -35t-14.5 -34.5t-34.5 -14.5zM218 507q-21 0 -35.5 14.5t-14.5 34.5t14.5 35t35.5 15 q20 0 34.5 -15t14.5 -35t-14.5 -34.5t-34.5 -14.5zM0 -5l10 82q59 0 92 4.5t47 23t14 58.5q0 38 -17.5 95.5t-39.5 114.5l81 30q13 -32 24.5 -73t19.5 -81t8 -70q0 -100 -56 -142t-183 -42zM185 -194q-21 0 -35.5 14.5t-14.5 34.5t14.5 35t35.5 15q20 0 34.5 -15t14.5 -35 t-14.5 -34.5t-34.5 -14.5zM48 -194q-21 0 -35.5 14.5t-14.5 34.5t14.5 35t35.5 15q20 0 34.5 -15t14.5 -35t-14.5 -34.5t-34.5 -14.5z" />
<glyph unicode="&#x63f;" horiz-adv-x="373" d="M199 496q-21 0 -35.5 14.5t-14.5 34.5t14.5 35t35.5 15q20 0 34.5 -15t14.5 -35t-14.5 -34.5t-34.5 -14.5zM131 386q-21 0 -35.5 14.5t-14.5 34.5t14.5 35t35.5 15q20 0 34.5 -15t14.5 -35t-14.5 -34.5t-34.5 -14.5zM267 386q-21 0 -35.5 14.5t-14.5 34.5t14.5 35 t35.5 15q20 0 34.5 -15t14.5 -35t-14.5 -34.5t-34.5 -14.5zM0 -5l10 82q50 0 78 7.5t42.5 29t23.5 62.5t22 107l78 -15q-6 -27 -13.5 -62t-7.5 -59q0 -15 2 -28t15 -22t44 -14.5t89 -5.5q21 0 30.5 -11.5t9.5 -27.5t-14 -29.5t-36 -13.5q-65 0 -101.5 7.5t-54 22t-25.5 36.5 q-29 -41 -71.5 -53.5t-120.5 -12.5zM252 -194q-21 0 -35.5 14.5t-14.5 34.5t14.5 35t35.5 15q20 0 34.5 -15t14.5 -35t-14.5 -34.5t-34.5 -14.5zM115 -194q-21 0 -35.5 14.5t-14.5 34.5t14.5 35t35.5 15q20 0 34.5 -15t14.5 -35t-14.5 -34.5t-34.5 -14.5z" />
<glyph unicode="&#x63f;" horiz-adv-x="736" d="M189.5 -186.5q-76.5 49.5 -100.5 111t-24 115.5q0 65 28.5 107.5t74.5 42.5q18 0 31.5 -6.5t18.5 -14.5q-26 -21 -44 -66.5t-18 -92.5q0 -79 61.5 -128t203.5 -49q82 0 140.5 21.5t88 59.5t29.5 86h-29q-48 0 -70 20.5t-22 49.5q0 15 4 24q13 -9 36.5 -16.5t50.5 -7.5 h263v-70h-145q0 -56 -35.5 -110t-111 -90t-189.5 -36h-22q-143 0 -219.5 49.5zM111.5 385.5q15.5 -15.5 15.5 -37.5t-15.5 -37.5t-37.5 -15.5t-37.5 15.5t-15.5 37.5t15.5 37.5t37.5 15.5t37.5 -15.5zM41.5 265q16.5 -17 16.5 -40q0 -24 -16.5 -41t-40.5 -17q-23 0 -40 17 t-17 41q0 23 17 40t40 17q24 0 40.5 -17zM187.5 265q16.5 -17 16.5 -40q0 -24 -16.5 -41t-40.5 -17q-23 0 -40 17t-17 41q0 23 17 40t40 17q24 0 40.5 -17z" />
<glyph unicode="&#x66e;" horiz-adv-x="332" d="M0 70h67q69 0 89.5 56t20.5 114q0 63 -16.5 119.5t-68.5 100.5q22 20 55 20q63 0 91.5 -62t28.5 -148q0 -110 -47 -190t-160 -80h-60v70z" />
<glyph unicode="&#x66e;" horiz-adv-x="329" d="M329 70v-70h-95q-33 0 -54.5 6.5t-39.5 19.5q-36 -23 -83 -26h-57v70h57q30 1 57 12v352q0 46 45 46t45 -45v-283q0 -36 4.5 -59t21.5 -23h99z" />
<glyph unicode="&#x66e;" horiz-adv-x="799" d="M799 70v-70h-130q-33 0 -54.5 6.5t-39.5 19.5q-44 -26 -103 -26h-277q-68 0 -99 39t-31 102v243q0 43 45 43t45 -44v-213q0 -56 17.5 -78t65.5 -22h241q69 0 89.5 58.5t20.5 111.5q0 63 -16.5 119.5t-68.5 100.5q22 20 55 20q63 0 91.5 -62t28.5 -148q0 -128 -55 -200 h175z" />
<glyph unicode="&#x66f;" horiz-adv-x="532" d="M387.5 463.5q39.5 -16.5 59.5 -62.5t20 -135v-125q0 -63 -31 -102t-99 -39h-337v70h133q-26 38 -37 80t-11 99q0 98 24.5 148.5t65.5 66.5t104 16q69 0 108.5 -16.5zM377 300q0 62 -23 86.5t-65 24.5q-114 0 -114 -160q0 -62 19.5 -121.5t81.5 -59.5h18q48 0 65.5 22 t17.5 78v130z" />
<glyph unicode="&#x66f;" horiz-adv-x="558" d="M558 70v-70h-100q-39 0 -65 9q-24 -9 -56 -9h-337v70h133q-26 38 -37 80t-11 99q0 98 24.5 148.5t65.5 66.5t104 16q69 0 108.5 -16.5t59.5 -62.5t20 -135v-125q0 -41 -13 -71h104zM359.5 92q17.5 22 17.5 78v130q0 62 -23 86.5t-65 24.5q-114 0 -114 -160 q0 -62 19.5 -121.5t81.5 -59.5h18q48 0 65.5 22z" />
<glyph unicode="&#x66f;" horiz-adv-x="894" d="M894 0h-95q-11 -112 -98 -174t-258 -62q-229 0 -303.5 93.5t-74.5 211.5q0 85 25.5 137t76.5 52q18 0 32 -6.5t19 -14.5q-27 -22 -44.5 -75t-17.5 -114q0 -97 65.5 -155.5t226.5 -58.5q139 0 195.5 44t64.5 122h-122q-87 0 -127 70.5t-40 187.5q0 94 24.5 142.5t66.5 64 t107 15.5q64 0 102.5 -15t60 -61.5t21.5 -137.5v-196h93v-70zM534 127q24 -57 105 -57h71v230q0 61 -23 85.5t-65 24.5q-56 0 -84 -40t-28 -126q0 -60 24 -117z" />
<glyph unicode="&#x672;" horiz-adv-x="289" d="M-37 721l-41 24q12 28 33 40.5t39 12.5q26 0 43 -11t35 -11h6h6q-20 13 -36 34.5t-16 48.5q0 45 31.5 68t71.5 23q23 0 47 -8l-8 -50q-10 2 -19 4t-20 2q-49 0 -49 -36q0 -20 12 -34.5t28.5 -23t28.5 -10.5q16 6 29.5 11.5t26.5 10.5l16 -48q-10 -5 -38 -16.5 t-60.5 -20.5t-57.5 -9q-26 0 -44.5 11t-32.5 11q-11 0 -17 -6t-14 -17zM289 -5q-80 0 -122 18t-58 56t-19 98l-18 477h82l18 -445q2 -49 9.5 -75.5t34 -36.5t83.5 -10q21 0 30.5 -11.5t9.5 -27.5t-14 -29.5t-36 -13.5z" />
<glyph unicode="&#x673;" horiz-adv-x="291" d="M149 49q-43 49 -44 145v318q0 43 -17 76t-38 47q6 8 25.5 16.5t40.5 8.5q33 0 56 -25.5t23 -85.5v-361q0 -47 23 -82.5t66 -35.5h31v-70h-57q-66 0 -109 49zM-18 -296l-41 24q12 28 33 40.5t39 12.5q26 0 43 -11t35 -11h6h6q-20 13 -36 34.5t-16 48.5q0 45 31.5 68 t71.5 23q23 0 47 -8l-8 -50q-10 2 -19 4t-20 2q-49 0 -49 -36q0 -20 12 -34.5t28.5 -23t28.5 -10.5q16 6 29.5 11.5t26.5 10.5l16 -48q-10 -5 -38 -16.5t-60.5 -20.5t-57.5 -9q-26 0 -44.5 11t-32.5 11q-11 0 -17 -6t-14 -17z" />
<glyph unicode="&#x675;" horiz-adv-x="411" d="M218 578l-12 54q15 3 26 6t21 5q-19 13 -33 34t-14 46q0 45 31.5 68t71.5 23q23 0 47 -8l-8 -50q-10 2 -19 4t-20 2q-49 0 -49 -36q0 -26 19.5 -43t38.5 -22q38 11 67 22l16 -51q-24 -9 -56.5 -19t-65.5 -19t-61 -16zM411 -5h-122q-79 0 -121 18t-58 56.5t-18 97.5 l-20 547h82l20 -515q2 -48 9.5 -74.5t33 -37t81.5 -10.5h123q21 0 30.5 -11.5t9.5 -27.5t-14 -29.5t-36 -13.5z" />
<glyph unicode="&#x676;" horiz-adv-x="472" d="M528 0h-85v-68q0 -34 -12.5 -70.5t-46 -63.5t-91.5 -27q-44 0 -77 16.5t-46 37.5q35 -8 62 -8q55 0 88 29.5t33 74.5l1 79l-106 -2q-100 0 -141.5 57.5t-41.5 180.5q0 99 23 152.5t64 72.5t105 19q88 0 137 -34.5t49 -123.5v-252h85v-70zM179 124.5q24 -54.5 104 -54.5 h70v228q0 112 -90 112q-108 0 -108 -172q0 -59 24 -113.5zM159 369q0 12 9 19.5t21 7.5q8 0 14 -3q-12 13 -22.5 36.5t-10.5 48.5q0 42 28.5 68t79.5 26q62 0 62 -40q0 -16 -9 -24t-20 -8q-9 0 -13 4q1 18 -11.5 29t-28.5 14q-12 -3 -21.5 -18.5t-9.5 -42.5q0 -77 82 -77 q24 0 34 4q21 0 21 -19q0 -6 -3 -11.5t-7 -5.5q-66 -6 -123.5 -14.5t-63.5 -14.5q-8 13 -8 21z" />
<glyph unicode="&#x677;" horiz-adv-x="531" d="M587 0h-85v-68q0 -34 -12.5 -70.5t-46 -63.5t-91.5 -27q-44 0 -77 16.5t-46 37.5q35 -8 62 -8q55 0 88 29.5t33 74.5l1 79l-106 -2q-100 0 -141.5 57.5t-41.5 180.5q0 99 23 152.5t64 72.5t105 19q88 0 137 -34.5t49 -123.5v-252h85v-70zM238 124.5q24 -54.5 104 -54.5 h70v228q0 112 -90 112q-108 0 -108 -172q0 -59 24 -113.5zM229 369q0 12 9 19.5t21 7.5q8 0 14 -3q-12 13 -22.5 36.5t-10.5 48.5q0 42 28.5 68t79.5 26q62 0 62 -40q0 -16 -9 -24t-20 -8q-9 0 -13 4q1 18 -11.5 29t-28.5 14q-12 -3 -21.5 -18.5t-9.5 -42.5q0 -77 82 -77 q24 0 34 4q21 0 21 -19q0 -6 -3 -11.5t-7 -5.5q-66 -6 -123.5 -14.5t-63.5 -14.5q-8 13 -8 21zM-82.5 369.5q-6.5 6.5 -6.5 16.5q0 9 6.5 16t16.5 7l83 4q-16 10 -26 27t-10 37q0 32 22.5 54t53.5 22t54 -21.5t23 -60.5q0 -57 -55 -82.5t-145 -25.5q-10 0 -16.5 6.5z M79 455.5q9 9.5 9 21.5q0 13 -9 22t-22 9t-21.5 -9t-8.5 -22q0 -12 9 -21.5t21 -9.5q13 0 22 9.5z" />
<glyph unicode="&#x678;" horiz-adv-x="350" d="M0 70h67q69 0 89.5 56t20.5 114q0 63 -16.5 119.5t-68.5 100.5q22 20 55 20q63 0 91.5 -62t28.5 -148q0 -110 -47 -190t-160 -80h-60v70zM167 578l-12 54q15 3 26 6t21 5q-19 13 -33 34t-14 46q0 45 31.5 68t71.5 23q23 0 47 -8l-8 -50q-10 2 -19 4t-20 2q-49 0 -49 -36 q0 -26 19.5 -43t38.5 -22q38 11 67 22l16 -51q-24 -9 -56.5 -19t-65.5 -19t-61 -16z" />
<glyph unicode="&#x678;" horiz-adv-x="343" d="M329 70v-70h-95q-33 0 -54.5 6.5t-39.5 19.5q-36 -23 -83 -26h-57v70h57q30 1 57 12v352q0 46 45 46t45 -45v-283q0 -36 4.5 -59t21.5 -23h99zM163 409l-12 54q15 3 26 6t21 5q-19 13 -33 34t-14 46q0 45 31.5 68t71.5 23q23 0 47 -8l-8 -50q-10 2 -19 4t-20 2 q-49 0 -49 -36q0 -26 19.5 -43t38.5 -22q38 11 67 22l16 -51q-24 -9 -56.5 -19t-65.5 -19t-61 -16z" />
<glyph unicode="&#x678;" horiz-adv-x="736" d="M189.5 -186.5q-76.5 49.5 -100.5 111t-24 115.5q0 65 28.5 107.5t74.5 42.5q18 0 31.5 -6.5t18.5 -14.5q-26 -21 -44 -66.5t-18 -92.5q0 -79 61.5 -128t203.5 -49q82 0 140.5 21.5t88 59.5t29.5 86h-29q-48 0 -70 20.5t-22 49.5q0 15 4 24q13 -9 36.5 -16.5t50.5 -7.5 h263v-70h-145q0 -56 -35.5 -110t-111 -90t-189.5 -36h-22q-143 0 -219.5 49.5zM500 205l-12 54q15 3 26 6t21 5q-19 13 -33 34t-14 46q0 45 31.5 68t71.5 23q23 0 47 -8l-8 -50q-10 2 -19 4t-20 2q-49 0 -49 -36q0 -26 19.5 -43t38.5 -22q38 11 67 22l16 -51 q-24 -9 -56.5 -19t-65.5 -19t-61 -16z" />
<glyph unicode="&#x67c;" horiz-adv-x="299" d="M218 507q-21 0 -35.5 14.5t-14.5 34.5t14.5 35t35.5 15q20 0 34.5 -15t14.5 -35t-14.5 -34.5t-34.5 -14.5zM81 507q-21 0 -35.5 14.5t-14.5 34.5t14.5 35t35.5 15q20 0 34.5 -15t14.5 -35t-14.5 -34.5t-34.5 -14.5zM0 -5l10 82q59 0 92 4.5t47 23t14 58.5 q0 38 -17.5 95.5t-39.5 114.5l81 30q13 -32 24.5 -73t19.5 -81t8 -70q0 -97 -52 -139q16 -12 26 -31t10 -41q0 -37 -26 -63t-63 -26t-63 26t-26 63q0 15 5 29q-23 -2 -50 -2zM134 -70q17 0 29 11t12 27q0 17 -12 28.5t-29 11.5t-29 -11.5t-12 -28.5q0 -16 12 -27t29 -11z " />
<glyph unicode="&#x67c;" horiz-adv-x="343" d="M257 386q-21 0 -35.5 14.5t-14.5 34.5t14.5 35t35.5 15q20 0 34.5 -15t14.5 -35t-14.5 -34.5t-34.5 -14.5zM120 386q-21 0 -35.5 14.5t-14.5 34.5t14.5 35t35.5 15q20 0 34.5 -15t14.5 -35t-14.5 -34.5t-34.5 -14.5zM0 -5l10 82q42 0 66 7.5t36.5 29t21.5 62.5t22 107 l78 -15q-6 -27 -13.5 -62t-7.5 -59q0 -20 9 -36t39 -25t92 -9q21 0 30.5 -11.5t9.5 -27.5t-14 -29.5t-36 -13.5q-79 0 -117 17t-52 51q-9 -13 -19 -23q18 -12 29 -31.5t11 -42.5q0 -37 -26 -63t-63 -26t-63 26t-26 63q0 15 5 29h-22zM106 -72q17 0 29 11t12 27 q0 17 -12 28.5t-29 11.5t-29 -11.5t-12 -28.5q0 -16 12 -27t29 -11z" />
<glyph unicode="&#x67c;" horiz-adv-x="1093" d="M558 401q-21 0 -35.5 14.5t-14.5 34.5t14.5 35t35.5 15q20 0 34.5 -15t14.5 -35t-14.5 -34.5t-34.5 -14.5zM421 401q-21 0 -35.5 14.5t-14.5 34.5t14.5 35t35.5 15q20 0 34.5 -15t14.5 -35t-14.5 -34.5t-34.5 -14.5zM390 -21q-178 0 -269 47t-91 156q0 37 9 78.5t19 78.5 l75 -19q-6 -22 -13.5 -55.5t-7.5 -59.5q0 -52 26.5 -83.5t92.5 -46t185 -14.5q61 0 129 7.5t135.5 27t128.5 53.5t107 86l63 -37q-9 -23 -12 -36.5t-3 -24.5q0 -15 11 -28.5t41.5 -22.5t86.5 -9q21 0 30.5 -11.5t9.5 -27.5t-14 -29.5t-36 -13.5q-88 0 -144.5 26t-57.5 85 q-54 -42 -130.5 -70t-167.5 -42q16 -23 16 -51q0 -37 -26 -63t-63 -26t-63 26t-26 63q0 19 8 37q-24 -1 -49 -1zM520 -95q17 0 29 11t12 27q0 17 -12 28.5t-29 11.5t-29 -11.5t-12 -28.5q0 -16 12 -27t29 -11z" />
<glyph unicode="&#x67d;" horiz-adv-x="299" d="M82 617q-21 0 -35.5 14.5t-14.5 34.5t14.5 35t35.5 15q20 0 34.5 -15t14.5 -35t-14.5 -34.5t-34.5 -14.5zM218 617q-21 0 -35.5 14.5t-14.5 34.5t14.5 35t35.5 15q20 0 34.5 -15t14.5 -35t-14.5 -34.5t-34.5 -14.5zM150 507q-21 0 -35.5 14.5t-14.5 34.5t14.5 35t35.5 15 q20 0 34.5 -15t14.5 -35t-14.5 -34.5t-34.5 -14.5zM0 -5l10 82q59 0 92 4.5t47 23t14 58.5q0 38 -17.5 95.5t-39.5 114.5l81 30q13 -32 24.5 -73t19.5 -81t8 -70q0 -100 -56 -142t-183 -42z" />
<glyph unicode="&#x67d;" horiz-adv-x="373" d="M131 496q-21 0 -35.5 14.5t-14.5 34.5t14.5 35t35.5 15q20 0 34.5 -15t14.5 -35t-14.5 -34.5t-34.5 -14.5zM267 496q-21 0 -35.5 14.5t-14.5 34.5t14.5 35t35.5 15q20 0 34.5 -15t14.5 -35t-14.5 -34.5t-34.5 -14.5zM199 386q-21 0 -35.5 14.5t-14.5 34.5t14.5 35 t35.5 15q20 0 34.5 -15t14.5 -35t-14.5 -34.5t-34.5 -14.5zM0 -5l10 82q50 0 78 7.5t42.5 29t23.5 62.5t22 107l78 -15q-6 -27 -13.5 -62t-7.5 -59q0 -15 2 -28t15 -22t44 -14.5t89 -5.5q21 0 30.5 -11.5t9.5 -27.5t-14 -29.5t-36 -13.5q-65 0 -101.5 7.5t-54 22t-25.5 36.5 q-29 -41 -71.5 -53.5t-120.5 -12.5z" />
<glyph unicode="&#x67d;" horiz-adv-x="1093" d="M799 70v-70h-130q-33 0 -54.5 6.5t-39.5 19.5q-44 -26 -103 -26h-277q-68 0 -99 39t-31 102v243q0 43 45 43t45 -44v-213q0 -56 17.5 -78t65.5 -22h241q69 0 89.5 58.5t20.5 111.5q0 63 -16.5 119.5t-68.5 100.5q22 20 55 20q63 0 91.5 -62t28.5 -148q0 -128 -55 -200 h175zM232 451q-17 17 -17 40q0 24 17 41t40 17q24 0 40.5 -17t16.5 -41q0 -23 -16.5 -40t-40.5 -17q-23 0 -40 17zM378 451q-17 17 -17 40q0 24 17 41t40 17q24 0 40.5 -17t16.5 -41q0 -23 -16.5 -40t-40.5 -17q-23 0 -40 17zM307.5 330.5q-15.5 15.5 -15.5 37.5t15.5 37.5 t37.5 15.5t37.5 -15.5t15.5 -37.5t-15.5 -37.5t-37.5 -15.5t-37.5 15.5z" />
<glyph unicode="&#x681;" horiz-adv-x="589" d="M0 70h210q57 0 91.5 6t63.5 41t29 113q0 90 -51 135t-179 45l-58 -1q-31 0 -46 14t-21 41t-4 36q14 -10 30 -17t40 -7l28 1q24 3 63 3q149 0 218.5 -63t69.5 -184q0 -109 -53.5 -171t-156.5 -62h-274v70zM-63 444q0 12 9 19.5t21 7.5q8 0 14 -3q-12 13 -22.5 36.5 t-10.5 48.5q0 42 28.5 68t79.5 26q62 0 62 -40q0 -16 -9 -24t-20 -8q-9 0 -13 4q1 18 -11.5 29t-28.5 14q-12 -3 -21.5 -18.5t-9.5 -42.5q0 -77 82 -77q24 0 34 4q21 0 21 -19q0 -6 -3 -11.5t-7 -5.5q-66 -6 -123.5 -14.5t-63.5 -14.5q-8 13 -8 21z" />
<glyph unicode="&#x681;" horiz-adv-x="637" d="M530 70v-70h-50q-33 0 -54.5 6.5t-39.5 19.5q-46 -26 -112 -26h-274v70h210q57 0 91.5 6t63.5 41t29 113q0 90 -51 135t-179 45l-58 -1q-31 0 -46 14t-21 41t-4 36q14 -10 30 -17t40 -7l28 1q24 3 63 3q149 0 218.5 -63t69.5 -184q0 -102 -47 -163h93zM-73 444 q0 12 9 19.5t21 7.5q8 0 14 -3q-12 13 -22.5 36.5t-10.5 48.5q0 42 28.5 68t79.5 26q62 0 62 -40q0 -16 -9 -24t-20 -8q-9 0 -13 4q1 18 -11.5 29t-28.5 14q-12 -3 -21.5 -18.5t-9.5 -42.5q0 -77 82 -77q24 0 34 4q21 0 21 -19q0 -6 -3 -11.5t-7 -5.5q-66 -6 -123.5 -14.5 t-63.5 -14.5q-8 13 -8 21z" />
<glyph unicode="&#x681;" horiz-adv-x="649" d="M563 70v-70h-29q-33 0 -54.5 6.5t-39.5 19.5q-46 -26 -112 -26h-189q0 -83 19 -146t67 -103q-7 -6 -24.5 -11.5t-34.5 -5.5q-43 0 -69 37t-36.5 85.5t-10.5 85.5q0 128 117 128h97q58 0 92.5 6.5t63 41.5t28.5 113q0 90 -51 134.5t-179 44.5l-58 -1q-27 0 -43 15.5 t-23 36.5q-7 22 -5 39q14 -10 30 -17t40 -7l28 1q24 3 63 3q149 0 218.5 -63t69.5 -184q0 -102 -47 -163h72zM82 508q0 12 9 19.5t21 7.5q8 0 14 -3q-12 13 -22.5 36.5t-10.5 48.5q0 42 28.5 68t79.5 26q62 0 62 -40q0 -16 -9 -24t-20 -8q-9 0 -13 4q1 18 -11.5 29t-28.5 14 q-12 -3 -21.5 -18.5t-9.5 -42.5q0 -77 82 -77q24 0 34 4q21 0 21 -19q0 -6 -3 -11.5t-7 -5.5q-66 -6 -123.5 -14.5t-63.5 -14.5q-8 13 -8 21z" />
<glyph unicode="&#x682;" horiz-adv-x="589" d="M0 70h210q57 0 91.5 6t63.5 41t29 113q0 90 -51 135t-179 45l-58 -1q-31 0 -46 14t-21 41t-4 36q14 -10 30 -17t40 -7l28 1q24 3 63 3q149 0 218.5 -63t69.5 -184q0 -109 -53.5 -171t-156.5 -62h-274v70zM50 572q-17 17 -17 40q0 24 17 41t40 17q25 0 42 -17t17 -41 q0 -23 -17 -40t-42 -17q-23 0 -40 17zM50 386q-17 17 -17 41q0 23 17 40t40 17q25 0 42 -17t17 -40q0 -24 -17 -41t-42 -17q-23 0 -40 17z" />
<glyph unicode="&#x682;" horiz-adv-x="637" d="M530 70v-70h-50q-33 0 -54.5 6.5t-39.5 19.5q-46 -26 -112 -26h-274v70h210q57 0 91.5 6t63.5 41t29 113q0 90 -51 135t-179 45l-58 -1q-31 0 -46 14t-21 41t-4 36q14 -10 30 -17t40 -7l28 1q24 3 63 3q149 0 218.5 -63t69.5 -184q0 -102 -47 -163h93zM40 572 q-17 17 -17 40q0 24 17 41t40 17q25 0 42 -17t17 -41q0 -23 -17 -40t-42 -17q-23 0 -40 17zM40 386q-17 17 -17 41q0 23 17 40t40 17q25 0 42 -17t17 -40q0 -24 -17 -41t-42 -17q-23 0 -40 17z" />
<glyph unicode="&#x682;" horiz-adv-x="649" d="M563 70v-70h-29q-33 0 -54.5 6.5t-39.5 19.5q-46 -26 -112 -26h-189q0 -83 19 -146t67 -103q-7 -6 -24.5 -11.5t-34.5 -5.5q-43 0 -69 37t-36.5 85.5t-10.5 85.5q0 128 117 128h97q58 0 92.5 6.5t63 41.5t28.5 113q0 90 -51 134.5t-179 44.5l-58 -1q-27 0 -43 15.5 t-23 36.5q-7 22 -5 39q14 -10 30 -17t40 -7l28 1q24 3 63 3q149 0 218.5 -63t69.5 -184q0 -102 -47 -163h72zM195 636q-17 17 -17 40q0 24 17 41t40 17q25 0 42 -17t17 -41q0 -23 -17 -40t-42 -17q-23 0 -40 17zM195 450q-17 17 -17 41q0 23 17 40t40 17q25 0 42 -17t17 -40 q0 -24 -17 -41t-42 -17q-23 0 -40 17z" />
<glyph unicode="&#x685;" horiz-adv-x="589" d="M0 70h210q57 0 91.5 6t63.5 41t29 113q0 90 -51 135t-179 45l-58 -1q-31 0 -46 14t-21 41t-4 36q14 -10 30 -17t40 -7l28 1q24 3 63 3q149 0 218.5 -63t69.5 -184q0 -109 -53.5 -171t-156.5 -62h-274v70zM61.5 587.5q15.5 -15.5 15.5 -37.5t-15.5 -37.5t-37.5 -15.5 t-37.5 15.5t-15.5 37.5t15.5 37.5t37.5 15.5t37.5 -15.5zM-8.5 467q16.5 -17 16.5 -40q0 -24 -16.5 -41t-40.5 -17q-23 0 -40 17t-17 41q0 23 17 40t40 17q24 0 40.5 -17zM137.5 467q16.5 -17 16.5 -40q0 -24 -16.5 -41t-40.5 -17q-23 0 -40 17t-17 41q0 23 17 40t40 17 q24 0 40.5 -17z" />
<glyph unicode="&#x685;" horiz-adv-x="637" d="M530 70v-70h-50q-33 0 -54.5 6.5t-39.5 19.5q-46 -26 -112 -26h-274v70h210q57 0 91.5 6t63.5 41t29 113q0 90 -51 135t-179 45l-58 -1q-31 0 -46 14t-21 41t-4 36q14 -10 30 -17t40 -7l28 1q24 3 63 3q149 0 218.5 -63t69.5 -184q0 -102 -47 -163h93zM51.5 587.5 q15.5 -15.5 15.5 -37.5t-15.5 -37.5t-37.5 -15.5t-37.5 15.5t-15.5 37.5t15.5 37.5t37.5 15.5t37.5 -15.5zM-18.5 467q16.5 -17 16.5 -40q0 -24 -16.5 -41t-40.5 -17q-23 0 -40 17t-17 41q0 23 17 40t40 17q24 0 40.5 -17zM127.5 467q16.5 -17 16.5 -40q0 -24 -16.5 -41 t-40.5 -17q-23 0 -40 17t-17 41q0 23 17 40t40 17q24 0 40.5 -17z" />
<glyph unicode="&#x685;" horiz-adv-x="649" d="M563 70v-70h-29q-33 0 -54.5 6.5t-39.5 19.5q-46 -26 -112 -26h-189q0 -83 19 -146t67 -103q-7 -6 -24.5 -11.5t-34.5 -5.5q-43 0 -69 37t-36.5 85.5t-10.5 85.5q0 128 117 128h97q58 0 92.5 6.5t63 41.5t28.5 113q0 90 -51 134.5t-179 44.5l-58 -1q-27 0 -43 15.5 t-23 36.5q-7 22 -5 39q14 -10 30 -17t40 -7l28 1q24 3 63 3q149 0 218.5 -63t69.5 -184q0 -102 -47 -163h72zM206.5 651.5q15.5 -15.5 15.5 -37.5t-15.5 -37.5t-37.5 -15.5t-37.5 15.5t-15.5 37.5t15.5 37.5t37.5 15.5t37.5 -15.5zM136.5 531q16.5 -17 16.5 -40 q0 -24 -16.5 -41t-40.5 -17q-23 0 -40 17t-17 41q0 23 17 40t40 17q24 0 40.5 -17zM282.5 531q16.5 -17 16.5 -40q0 -24 -16.5 -41t-40.5 -17q-23 0 -40 17t-17 41q0 23 17 40t40 17q24 0 40.5 -17z" />
<glyph unicode="&#x689;" horiz-adv-x="532" d="M215 77q74 0 105 22.5t31 62.5q0 26 -18 67t-47.5 91.5t-65.5 103.5l69 45q58 -89 94.5 -162.5t54.5 -132.5q14 -44 31.5 -65t36.5 -26.5t35 -5.5q21 0 31 -11.5t10 -27.5t-14 -29.5t-36 -13.5q-39 0 -75 17t-58 58q-14 -24 -40.5 -42t-68.5 -27q13 -22 13 -47 q0 -37 -26 -63t-63 -26t-63 26t-26 63q0 26 13 47q-63 13 -103 44l40 69q20 -13 56 -25t84 -12zM214 -84q17 0 29 11t12 27q0 17 -12 28.5t-29 11.5t-29 -11.5t-12 -28.5q0 -16 12 -27t29 -11z" />
<glyph unicode="&#x68a;" horiz-adv-x="532" d="M535 70v-70h-122q-33 0 -54.5 6.5t-39.5 19.5q-42 -26 -96 -26h-146q-14 0 -20.5 10t-6.5 23q0 15 9 26t29 11h53q103 0 153 54.5t50 134.5q0 67 -33.5 109.5t-89.5 41.5q-37 -12 -57 -36t-20 -67q-26 -2 -46 7q-33 15 -33 55q0 48 44.5 79.5t114.5 31.5t117.5 -33 t70 -84t22.5 -104q0 -46 -16 -98t-48 -91h165zM197 407h-2h2zM117 -101q-17 17 -17 40q0 24 17 41t42 17q23 0 40 -17t17 -41q0 -23 -17 -40t-40 -17q-25 0 -42 17z" />
<glyph unicode="&#x68b;" horiz-adv-x="532" d="M535 70v-70h-122q-33 0 -54.5 6.5t-39.5 19.5q-42 -26 -96 -26h-146q-14 0 -20.5 10t-6.5 23q0 15 9 26t29 11h53q103 0 153 54.5t50 134.5q0 67 -33.5 109.5t-89.5 41.5q-37 -12 -57 -36t-20 -67q-26 -2 -46 7q-33 15 -33 55q0 48 44.5 79.5t114.5 31.5t117.5 -33 t70 -84t22.5 -104q0 -46 -16 -98t-48 -91h165zM197 407h-2h2zM224 588q-18 0 -42.5 1.5t-46.5 3.5l-33 3l2 58q6 -1 13 -1.5t15 -1.5q10 18 22 34l-5 162h55l5 -106q18 13 37.5 20.5t39.5 7.5q38 0 60 -23t22 -57q0 -20 -11.5 -43.5t-42.5 -40.5t-90 -17zM278 710 q-18 0 -35 -11t-31.5 -26t-22.5 -26q16 -1 28 -1q49 0 71 10.5t22 27.5q0 14 -9 20t-23 6zM117 -101q-17 17 -17 40q0 24 17 41t42 17q23 0 40 -17t17 -41q0 -23 -17 -40t-40 -17q-25 0 -42 17z" />
<glyph unicode="&#x68f;" horiz-adv-x="532" d="M535 70v-70h-122q-33 0 -54.5 6.5t-39.5 19.5q-42 -26 -96 -26h-146q-14 0 -20.5 10t-6.5 23q0 15 9 26t29 11h53q103 0 153 54.5t50 134.5q0 67 -33.5 109.5t-89.5 41.5q-37 -12 -57 -36t-20 -67q-26 -2 -46 7q-33 15 -33 55q0 48 44.5 79.5t114.5 31.5t117.5 -33 t70 -84t22.5 -104q0 -46 -16 -98t-48 -91h165zM197 407h-2h2zM-35 610q-17 17 -17 40q0 24 17 41t40 17q24 0 40.5 -17t16.5 -41q0 -23 -16.5 -40t-40.5 -17q-23 0 -40 17zM111 610q-17 17 -17 40q0 24 17 41t40 17q24 0 40.5 -17t16.5 -41q0 -23 -16.5 -40t-40.5 -17 q-23 0 -40 17zM40.5 489.5q-15.5 15.5 -15.5 37.5t15.5 37.5t37.5 15.5t37.5 -15.5t15.5 -37.5t-15.5 -37.5t-37.5 -15.5t-37.5 15.5z" />
<glyph unicode="&#x690;" horiz-adv-x="532" d="M535 70v-70h-122q-33 0 -54.5 6.5t-39.5 19.5q-42 -26 -96 -26h-146q-14 0 -20.5 10t-6.5 23q0 15 9 26t29 11h53q103 0 153 54.5t50 134.5q0 67 -33.5 109.5t-89.5 41.5q-37 -12 -57 -36t-20 -67q-26 -2 -46 7q-33 15 -33 55q0 48 44.5 79.5t114.5 31.5t117.5 -33 t70 -84t22.5 -104q0 -46 -16 -98t-48 -91h165zM197 407h-2h2zM155 685q-21 0 -35.5 14.5t-14.5 34.5t14.5 35t35.5 15q20 0 34.5 -15t14.5 -35t-14.5 -34.5t-34.5 -14.5zM291 685q-21 0 -35.5 14.5t-14.5 34.5t14.5 35t35.5 15q20 0 34.5 -15t14.5 -35t-14.5 -34.5 t-34.5 -14.5zM155 560q-21 0 -35.5 14.5t-14.5 34.5t14.5 35t35.5 15q20 0 34.5 -15t14.5 -35t-14.5 -34.5t-34.5 -14.5zM291 560q-21 0 -35.5 14.5t-14.5 34.5t14.5 35t35.5 15q20 0 34.5 -15t14.5 -35t-14.5 -34.5t-34.5 -14.5z" />
<glyph unicode="&#x692;" horiz-adv-x="396" d="M319 0h-99v-73q0 -31 -13 -66.5t-46 -62.5t-89 -27q-51 0 -79 18.5t-38 33.5q29 -8 62 -8q39 0 65 16t37.5 39t11.5 45l-1 523q0 42 45 42q19 0 32 -9.5t13 -31.5v-369h99v-70zM134 485q-9 20 -25 53.5t-32.5 67t-29.5 54.5l46 25q7 -12 20 -36.5t27.5 -52t24.5 -49.5 q11 26 24 55.5t24 53t16 31.5l45 -19q-5 -10 -16 -32.5t-23.5 -50t-24 -53t-17.5 -41.5z" />
<glyph unicode="&#x693;" horiz-adv-x="396" d="M4 -232l-29 76q97 32 151.5 76t77 92.5t22.5 94.5q0 49 -21.5 99.5t-47.5 95.5l73 37q28 -53 47.5 -102t30.5 -86q14 -43 36.5 -58.5t61.5 -15.5q21 0 30.5 -11.5t9.5 -27.5t-14 -29.5t-36 -13.5q-38 0 -63.5 12t-41.5 32q-4 -24 -13 -46t-21 -42q31 -6 52 -30.5 t21 -57.5q0 -37 -26 -63t-63 -26q-32 0 -55.5 19.5t-30.5 48.5q-39 -28 -78.5 -47t-72.5 -27zM241 -175q17 0 29 11t12 27q0 17 -12 28.5t-29 11.5t-29 -11.5t-12 -28.5q0 -16 12 -27t29 -11z" />
<glyph unicode="&#x694;" horiz-adv-x="396" d="M319 0h-99v-73q0 -31 -13 -66.5t-46 -62.5t-89 -27q-51 0 -79 18.5t-38 33.5q29 -8 62 -8q39 0 65 16t37.5 39t11.5 45l-1 523q0 42 45 42q19 0 32 -9.5t13 -31.5v-369h99v-70zM-34 -313q-17 17 -17 40q0 24 17 41t42 17q23 0 40 -17t17 -41q0 -23 -17 -40t-40 -17 q-25 0 -42 17z" />
<glyph unicode="&#x695;" horiz-adv-x="396" d="M4 -232l-29 76q97 32 151.5 76t77 92.5t22.5 94.5q0 49 -21.5 99.5t-47.5 95.5l73 37q28 -53 47.5 -102t30.5 -86q14 -43 36.5 -58.5t61.5 -15.5q21 0 30.5 -11.5t9.5 -27.5t-14 -29.5t-36 -13.5q-38 0 -63.5 12t-41.5 32q-10 -56 -42 -102t-75 -80.5t-88 -56.5t-82 -32z M45 -57l-20.5 41t-26 50.5t-23.5 42.5l37 20q6 -9 16.5 -27.5t21.5 -39.5t20 -38q8 20 18.5 42.5t19.5 40t13 24.5l36 -15q-6 -11 -19 -37t-26.5 -54.5t-19.5 -44.5z" />
<glyph unicode="&#x696;" horiz-adv-x="396" d="M319 0h-99v-73q0 -31 -13 -66.5t-46 -62.5t-89 -27q-51 0 -79 18.5t-38 33.5q29 -8 62 -8q39 0 65 16t37.5 39t11.5 45l-1 523q0 42 45 42q19 0 32 -9.5t13 -31.5v-369h99v-70zM-46 -76q-17 17 -17 40q0 24 17 41t42 17q23 0 40 -17t17 -41q0 -23 -17 -40t-40 -17 q-25 0 -42 17zM-34 -313q-17 17 -17 40q0 24 17 41t42 17q23 0 40 -17t17 -41q0 -23 -17 -40t-40 -17q-25 0 -42 17z" />
<glyph unicode="&#x697;" horiz-adv-x="396" d="M319 0h-99v-73q0 -31 -13 -66.5t-46 -62.5t-89 -27q-51 0 -79 18.5t-38 33.5q29 -8 62 -8q39 0 65 16t37.5 39t11.5 45l-1 523q0 42 45 42q19 0 32 -9.5t13 -31.5v-369h99v-70zM-93 385q-17 17 -17 40q0 24 17 41t40 17q24 0 40.5 -17t16.5 -41q0 -23 -16.5 -40 t-40.5 -17q-23 0 -40 17zM53 385q-17 17 -17 40q0 24 17 41t40 17q24 0 40.5 -17t16.5 -41q0 -23 -16.5 -40t-40.5 -17q-23 0 -40 17z" />
<glyph unicode="&#x699;" horiz-adv-x="396" d="M319 0h-99v-73q0 -31 -13 -66.5t-46 -62.5t-89 -27q-51 0 -79 18.5t-38 33.5q29 -8 62 -8q39 0 65 16t37.5 39t11.5 45l-1 523q0 42 45 42q19 0 32 -9.5t13 -31.5v-369h99v-70zM97 579q-21 0 -35.5 14.5t-14.5 34.5t14.5 35t35.5 15q20 0 34.5 -15t14.5 -35t-14.5 -34.5 t-34.5 -14.5zM233 579q-21 0 -35.5 14.5t-14.5 34.5t14.5 35t35.5 15q20 0 34.5 -15t14.5 -35t-14.5 -34.5t-34.5 -14.5zM97 454q-21 0 -35.5 14.5t-14.5 34.5t14.5 35t35.5 15q20 0 34.5 -15t14.5 -35t-14.5 -34.5t-34.5 -14.5zM233 454q-21 0 -35.5 14.5t-14.5 34.5 t14.5 35t35.5 15q20 0 34.5 -15t14.5 -35t-14.5 -34.5t-34.5 -14.5z" />
<glyph unicode="&#x69a;" horiz-adv-x="784" d="M822.5 418q28.5 -62 28.5 -148q0 -110 -47 -190t-160 -80h-11q-55 0 -89 12.5t-66 45.5q-20 -24 -48.5 -41t-58.5 -17h-94q-64 0 -109 36q-44 -36 -99 -36h-69v70h38q40 0 59.5 11t25 27.5t5.5 42.5v228q0 46 45 46q22 0 33.5 -10.5t11.5 -35.5v-202q0 -58 7 -82.5 t35 -24.5h76q51 0 71 19.5t20 55.5v257q0 22 12.5 34.5t35.5 12.5q42 0 42 -47v-201q0 -51 15.5 -91t57.5 -40h61q69 0 89.5 58.5t20.5 111.5q0 63 -16.5 119.5t-68.5 100.5q22 20 55 20q63 0 91.5 -62zM269 -101q-17 17 -17 40q0 24 17 41t42 17q23 0 40 -17t17 -41 q0 -23 -17 -40t-40 -17q-25 0 -42 17zM312 366q-17 17 -17 40q0 24 17 41t42 17q23 0 40 -17t17 -41q0 -23 -17 -40t-40 -17q-25 0 -42 17z" />
<glyph unicode="&#x69a;" horiz-adv-x="850" d="M999 70v-70h-158q-33 0 -54.5 6.5t-39.5 19.5q-44 -26 -103 -26h-11q-55 0 -89 12.5t-66 45.5q-20 -24 -48.5 -41t-58.5 -17h-94q-64 0 -109 36q-44 -36 -99 -36h-69v70h38q40 0 59.5 11t25 27.5t5.5 42.5v228q0 46 45 46q22 0 33.5 -10.5t11.5 -35.5v-202q0 -58 7 -82.5 t35 -24.5h76q51 0 71 19.5t20 55.5v257q0 22 12.5 34.5t35.5 12.5q42 0 42 -47v-201q0 -51 15.5 -91t57.5 -40h61q69 0 89.5 58.5t20.5 111.5q0 63 -16.5 119.5t-68.5 100.5q22 20 55 20q63 0 91.5 -62t28.5 -148q0 -128 -55 -200h203zM269 -101q-17 17 -17 40q0 24 17 41 t42 17q23 0 40 -17t17 -41q0 -23 -17 -40t-40 -17q-25 0 -42 17zM312 366q-17 17 -17 40q0 24 17 41t42 17q23 0 40 -17t17 -41q0 -23 -17 -40t-40 -17q-25 0 -42 17z" />
<glyph unicode="&#x69a;" horiz-adv-x="1269" d="M1355 70v-70h-153q-33 0 -54.5 6.5t-39.5 19.5q-44 -26 -102 -26h-12q-55 0 -89 12.5t-66 45.5q-20 -24 -48.5 -41t-58.5 -17h-78q-43 0 -74 20q-3 -109 -35 -169t-85 -82.5t-129 -22.5q-108 0 -187 58.5t-79 235.5q0 96 24.5 146.5t53 66t51.5 15.5q15 0 30 -6t24 -14 q-36 -29 -66 -94.5t-30 -147.5q0 -108 49.5 -154t128.5 -46q74 0 109 34t43 81.5t8 119.5v338q0 46 45 46t45 -46v-202v-1q0 -57 7 -81.5t35 -24.5h76q51 0 71 19.5t20 55.5v257q0 47 44 47q45 0 45 -47v-201q0 -50 16 -90.5t58 -40.5h61q68 0 89 60t21 116q0 142 -85 214 q22 20 55 20q63 0 91.5 -62t28.5 -148q0 -56 -13 -108.5t-42 -91.5h197zM731 -96q-17 17 -17 40q0 24 17 41t42 17q23 0 40 -17t17 -41q0 -23 -17 -40t-40 -17q-25 0 -42 17zM705 366q-17 17 -17 40q0 24 17 41t42 17q23 0 40 -17t17 -41q0 -23 -17 -40t-40 -17 q-25 0 -42 17z" />
<glyph unicode="&#x69b;" horiz-adv-x="784" d="M822.5 418q28.5 -62 28.5 -148q0 -110 -47 -190t-160 -80h-11q-55 0 -89 12.5t-66 45.5q-20 -24 -48.5 -41t-58.5 -17h-94q-64 0 -109 36q-44 -36 -99 -36h-69v70h38q40 0 59.5 11t25 27.5t5.5 42.5v228q0 46 45 46q22 0 33.5 -10.5t11.5 -35.5v-202q0 -58 7 -82.5 t35 -24.5h76q51 0 71 19.5t20 55.5v257q0 22 12.5 34.5t35.5 12.5q42 0 42 -47v-201q0 -51 15.5 -91t57.5 -40h61q69 0 89.5 58.5t20.5 111.5q0 63 -16.5 119.5t-68.5 100.5q22 20 55 20q63 0 91.5 -62zM278.5 -20.5q15.5 -15.5 15.5 -37.5t-15.5 -37.5t-37.5 -15.5 t-37.5 15.5t-15.5 37.5t15.5 37.5t37.5 15.5t37.5 -15.5zM208.5 -141q16.5 -17 16.5 -40q0 -24 -16.5 -41t-40.5 -17q-23 0 -40 17t-17 41q0 23 17 40t40 17q24 0 40.5 -17zM354.5 -141q16.5 -17 16.5 -40q0 -24 -16.5 -41t-40.5 -17q-23 0 -40 17t-17 41q0 23 17 40t40 17 q24 0 40.5 -17z" />
<glyph unicode="&#x69b;" horiz-adv-x="850" d="M999 70v-70h-158q-33 0 -54.5 6.5t-39.5 19.5q-44 -26 -103 -26h-11q-55 0 -89 12.5t-66 45.5q-20 -24 -48.5 -41t-58.5 -17h-94q-64 0 -109 36q-44 -36 -99 -36h-69v70h38q40 0 59.5 11t25 27.5t5.5 42.5v228q0 46 45 46q22 0 33.5 -10.5t11.5 -35.5v-202q0 -58 7 -82.5 t35 -24.5h76q51 0 71 19.5t20 55.5v257q0 22 12.5 34.5t35.5 12.5q42 0 42 -47v-201q0 -51 15.5 -91t57.5 -40h61q69 0 89.5 58.5t20.5 111.5q0 63 -16.5 119.5t-68.5 100.5q22 20 55 20q63 0 91.5 -62t28.5 -148q0 -128 -55 -200h203zM278.5 -20.5q15.5 -15.5 15.5 -37.5 t-15.5 -37.5t-37.5 -15.5t-37.5 15.5t-15.5 37.5t15.5 37.5t37.5 15.5t37.5 -15.5zM208.5 -141q16.5 -17 16.5 -40q0 -24 -16.5 -41t-40.5 -17q-23 0 -40 17t-17 41q0 23 17 40t40 17q24 0 40.5 -17zM354.5 -141q16.5 -17 16.5 -40q0 -24 -16.5 -41t-40.5 -17q-23 0 -40 17 t-17 41q0 23 17 40t40 17q24 0 40.5 -17z" />
<glyph unicode="&#x69b;" horiz-adv-x="1269" d="M1355 70v-70h-153q-33 0 -54.5 6.5t-39.5 19.5q-44 -26 -102 -26h-12q-55 0 -89 12.5t-66 45.5q-20 -24 -48.5 -41t-58.5 -17h-78q-43 0 -74 20q-3 -109 -35 -169t-85 -82.5t-129 -22.5q-108 0 -187 58.5t-79 235.5q0 96 24.5 146.5t53 66t51.5 15.5q15 0 30 -6t24 -14 q-36 -29 -66 -94.5t-30 -147.5q0 -108 49.5 -154t128.5 -46q74 0 109 34t43 81.5t8 119.5v338q0 46 45 46t45 -46v-202v-1q0 -57 7 -81.5t35 -24.5h76q51 0 71 19.5t20 55.5v257q0 47 44 47q45 0 45 -47v-201q0 -50 16 -90.5t58 -40.5h61q68 0 89 60t21 116q0 142 -85 214 q22 20 55 20q63 0 91.5 -62t28.5 -148q0 -56 -13 -108.5t-42 -91.5h197zM740.5 -15.5q15.5 -15.5 15.5 -37.5t-15.5 -37.5t-37.5 -15.5t-37.5 15.5t-15.5 37.5t15.5 37.5t37.5 15.5t37.5 -15.5zM670.5 -136q16.5 -17 16.5 -40q0 -24 -16.5 -41t-40.5 -17q-23 0 -40 17 t-17 41q0 23 17 40t40 17q24 0 40.5 -17zM816.5 -136q16.5 -17 16.5 -40q0 -24 -16.5 -41t-40.5 -17q-23 0 -40 17t-17 41q0 23 17 40t40 17q24 0 40.5 -17z" />
<glyph unicode="&#x69c;" horiz-adv-x="784" d="M822.5 418q28.5 -62 28.5 -148q0 -110 -47 -190t-160 -80h-11q-55 0 -89 12.5t-66 45.5q-20 -24 -48.5 -41t-58.5 -17h-94q-64 0 -109 36q-44 -36 -99 -36h-69v70h38q40 0 59.5 11t25 27.5t5.5 42.5v228q0 46 45 46q22 0 33.5 -10.5t11.5 -35.5v-202q0 -58 7 -82.5 t35 -24.5h76q51 0 71 19.5t20 55.5v257q0 22 12.5 34.5t35.5 12.5q42 0 42 -47v-201q0 -51 15.5 -91t57.5 -40h61q69 0 89.5 58.5t20.5 111.5q0 63 -16.5 119.5t-68.5 100.5q22 20 55 20q63 0 91.5 -62zM323.5 567.5q15.5 -15.5 15.5 -37.5t-15.5 -37.5t-37.5 -15.5 t-37.5 15.5t-15.5 37.5t15.5 37.5t37.5 15.5t37.5 -15.5zM253.5 447q16.5 -17 16.5 -40q0 -24 -16.5 -41t-40.5 -17q-23 0 -40 17t-17 41q0 23 17 40t40 17q24 0 40.5 -17zM399.5 447q16.5 -17 16.5 -40q0 -24 -16.5 -41t-40.5 -17q-23 0 -40 17t-17 41q0 23 17 40t40 17 q24 0 40.5 -17zM278.5 -20.5q15.5 -15.5 15.5 -37.5t-15.5 -37.5t-37.5 -15.5t-37.5 15.5t-15.5 37.5t15.5 37.5t37.5 15.5t37.5 -15.5zM208.5 -141q16.5 -17 16.5 -40q0 -24 -16.5 -41t-40.5 -17q-23 0 -40 17t-17 41q0 23 17 40t40 17q24 0 40.5 -17zM354.5 -141 q16.5 -17 16.5 -40q0 -24 -16.5 -41t-40.5 -17q-23 0 -40 17t-17 41q0 23 17 40t40 17q24 0 40.5 -17z" />
<glyph unicode="&#x69c;" horiz-adv-x="850" d="M999 70v-70h-158q-33 0 -54.5 6.5t-39.5 19.5q-44 -26 -103 -26h-11q-55 0 -89 12.5t-66 45.5q-20 -24 -48.5 -41t-58.5 -17h-94q-64 0 -109 36q-44 -36 -99 -36h-69v70h38q40 0 59.5 11t25 27.5t5.5 42.5v228q0 46 45 46q22 0 33.5 -10.5t11.5 -35.5v-202q0 -58 7 -82.5 t35 -24.5h76q51 0 71 19.5t20 55.5v257q0 22 12.5 34.5t35.5 12.5q42 0 42 -47v-201q0 -51 15.5 -91t57.5 -40h61q69 0 89.5 58.5t20.5 111.5q0 63 -16.5 119.5t-68.5 100.5q22 20 55 20q63 0 91.5 -62t28.5 -148q0 -128 -55 -200h203zM323.5 567.5q15.5 -15.5 15.5 -37.5 t-15.5 -37.5t-37.5 -15.5t-37.5 15.5t-15.5 37.5t15.5 37.5t37.5 15.5t37.5 -15.5zM253.5 447q16.5 -17 16.5 -40q0 -24 -16.5 -41t-40.5 -17q-23 0 -40 17t-17 41q0 23 17 40t40 17q24 0 40.5 -17zM399.5 447q16.5 -17 16.5 -40q0 -24 -16.5 -41t-40.5 -17q-23 0 -40 17 t-17 41q0 23 17 40t40 17q24 0 40.5 -17zM278.5 -20.5q15.5 -15.5 15.5 -37.5t-15.5 -37.5t-37.5 -15.5t-37.5 15.5t-15.5 37.5t15.5 37.5t37.5 15.5t37.5 -15.5zM208.5 -141q16.5 -17 16.5 -40q0 -24 -16.5 -41t-40.5 -17q-23 0 -40 17t-17 41q0 23 17 40t40 17 q24 0 40.5 -17zM354.5 -141q16.5 -17 16.5 -40q0 -24 -16.5 -41t-40.5 -17q-23 0 -40 17t-17 41q0 23 17 40t40 17q24 0 40.5 -17z" />
<glyph unicode="&#x69c;" horiz-adv-x="1269" d="M1355 70v-70h-153q-33 0 -54.5 6.5t-39.5 19.5q-44 -26 -102 -26h-12q-55 0 -89 12.5t-66 45.5q-20 -24 -48.5 -41t-58.5 -17h-78q-43 0 -74 20q-3 -109 -35 -169t-85 -82.5t-129 -22.5q-108 0 -187 58.5t-79 235.5q0 96 24.5 146.5t53 66t51.5 15.5q15 0 30 -6t24 -14 q-36 -29 -66 -94.5t-30 -147.5q0 -108 49.5 -154t128.5 -46q74 0 109 34t43 81.5t8 119.5v338q0 46 45 46t45 -46v-202v-1q0 -57 7 -81.5t35 -24.5h76q51 0 71 19.5t20 55.5v257q0 47 44 47q45 0 45 -47v-201q0 -50 16 -90.5t58 -40.5h61q68 0 89 60t21 116q0 142 -85 214 q22 20 55 20q63 0 91.5 -62t28.5 -148q0 -56 -13 -108.5t-42 -91.5h197zM716.5 567.5q15.5 -15.5 15.5 -37.5t-15.5 -37.5t-37.5 -15.5t-37.5 15.5t-15.5 37.5t15.5 37.5t37.5 15.5t37.5 -15.5zM646.5 447q16.5 -17 16.5 -40q0 -24 -16.5 -41t-40.5 -17q-23 0 -40 17t-17 41 q0 23 17 40t40 17q24 0 40.5 -17zM792.5 447q16.5 -17 16.5 -40q0 -24 -16.5 -41t-40.5 -17q-23 0 -40 17t-17 41q0 23 17 40t40 17q24 0 40.5 -17zM740.5 -15.5q15.5 -15.5 15.5 -37.5t-15.5 -37.5t-37.5 -15.5t-37.5 15.5t-15.5 37.5t15.5 37.5t37.5 15.5t37.5 -15.5z M670.5 -136q16.5 -17 16.5 -40q0 -24 -16.5 -41t-40.5 -17q-23 0 -40 17t-17 41q0 23 17 40t40 17q24 0 40.5 -17zM816.5 -136q16.5 -17 16.5 -40q0 -24 -16.5 -41t-40.5 -17q-23 0 -40 17t-17 41q0 23 17 40t40 17q24 0 40.5 -17z" />
<glyph unicode="&#x69d;" horiz-adv-x="903" d="M519 457q61 -23 102 -78t41 -144q0 -84 -42.5 -159.5t-162.5 -75.5h-457v70h98v243q0 25 -15.5 51t-34.5 42q9 8 25 15t34 7q40 0 62 -33q32 33 92 59t132 26q65 0 126 -23zM540 125q32 55 32 111q0 62 -31 101t-76.5 56t-93.5 17q-61 0 -112.5 -24.5t-71.5 -51.5 q1 -6 1 -19v-245h230q90 0 122 55zM230 -116q-17 17 -17 40q0 24 17 41t40 17q24 0 40.5 -17t16.5 -41q0 -23 -16.5 -40t-40.5 -17q-23 0 -40 17zM376 -116q-17 17 -17 40q0 24 17 41t40 17q24 0 40.5 -17t16.5 -41q0 -23 -16.5 -40t-40.5 -17q-23 0 -40 17z" />
<glyph unicode="&#x69d;" horiz-adv-x="949" d="M772 70v-70h-118q-54 0 -92 24q-43 -24 -105 -24h-457v70h98v243q0 25 -15.5 51t-34.5 42q9 8 25 15t34 7q40 0 62 -33q32 33 92 59t132 26q65 0 126 -23t102 -78t41 -144q0 -40 -10 -84.5t-37 -80.5h157zM540 125q32 55 32 111q0 62 -31 101t-76.5 56t-93.5 17 q-61 0 -112.5 -24.5t-71.5 -51.5q1 -6 1 -19v-245h230q90 0 122 55zM230 -116q-17 17 -17 40q0 24 17 41t40 17q24 0 40.5 -17t16.5 -41q0 -23 -16.5 -40t-40.5 -17q-23 0 -40 17zM376 -116q-17 17 -17 40q0 24 17 41t40 17q24 0 40.5 -17t16.5 -41q0 -23 -16.5 -40 t-40.5 -17q-23 0 -40 17z" />
<glyph unicode="&#x69d;" horiz-adv-x="1352" d="M1115 70v-70h-85q-50 0 -85 20q-38 -20 -96 -20h-270q-6 -101 -38.5 -156.5t-84.5 -76.5t-125 -21q-108 0 -187 58.5t-79 235.5q0 96 24.5 146.5t53 66t51.5 15.5q15 0 30 -6t24 -14q-36 -29 -66 -94.5t-30 -147.5q0 -108 49.5 -154t128.5 -46q74 0 109 34t43 81.5 t8 119.5v272q0 25 -15.5 51t-34.5 42q9 8 25 15t34 7q40 0 62 -33q32 33 92 59t132 26q65 0 126 -23t102 -78t41 -144q0 -40 -10 -84.5t-37 -80.5h108zM932 125q32 55 32 111q0 62 -31 101t-76.5 56t-93.5 17q-61 0 -112.5 -24.5t-71.5 -51.5q1 -6 1 -19v-245h230 q90 0 122 55zM650 -111q-17 17 -17 40q0 24 17 41t40 17q24 0 40.5 -17t16.5 -41q0 -23 -16.5 -40t-40.5 -17q-23 0 -40 17zM796 -111q-17 17 -17 40q0 24 17 41t40 17q24 0 40.5 -17t16.5 -41q0 -23 -16.5 -40t-40.5 -17q-23 0 -40 17z" />
<glyph unicode="&#x69e;" horiz-adv-x="903" d="M519 457q61 -23 102 -78t41 -144q0 -84 -42.5 -159.5t-162.5 -75.5h-457v70h98v243q0 25 -15.5 51t-34.5 42q9 8 25 15t34 7q40 0 62 -33q32 33 92 59t132 26q65 0 126 -23zM540 125q32 55 32 111q0 62 -31 101t-76.5 56t-93.5 17q-61 0 -112.5 -24.5t-71.5 -51.5 q1 -6 1 -19v-245h230q90 0 122 55zM546.5 604.5q15.5 -15.5 15.5 -37.5t-15.5 -37.5t-37.5 -15.5t-37.5 15.5t-15.5 37.5t15.5 37.5t37.5 15.5t37.5 -15.5zM476.5 484q16.5 -17 16.5 -40q0 -24 -16.5 -41t-40.5 -17q-23 0 -40 17t-17 41q0 23 17 40t40 17q24 0 40.5 -17z M622.5 484q16.5 -17 16.5 -40q0 -24 -16.5 -41t-40.5 -17q-23 0 -40 17t-17 41q0 23 17 40t40 17q24 0 40.5 -17z" />
<glyph unicode="&#x69e;" horiz-adv-x="949" d="M772 70v-70h-118q-54 0 -92 24q-43 -24 -105 -24h-457v70h98v243q0 25 -15.5 51t-34.5 42q9 8 25 15t34 7q40 0 62 -33q32 33 92 59t132 26q65 0 126 -23t102 -78t41 -144q0 -40 -10 -84.5t-37 -80.5h157zM540 125q32 55 32 111q0 62 -31 101t-76.5 56t-93.5 17 q-61 0 -112.5 -24.5t-71.5 -51.5q1 -6 1 -19v-245h230q90 0 122 55zM546.5 604.5q15.5 -15.5 15.5 -37.5t-15.5 -37.5t-37.5 -15.5t-37.5 15.5t-15.5 37.5t15.5 37.5t37.5 15.5t37.5 -15.5zM476.5 484q16.5 -17 16.5 -40q0 -24 -16.5 -41t-40.5 -17q-23 0 -40 17t-17 41 q0 23 17 40t40 17q24 0 40.5 -17zM622.5 484q16.5 -17 16.5 -40q0 -24 -16.5 -41t-40.5 -17q-23 0 -40 17t-17 41q0 23 17 40t40 17q24 0 40.5 -17z" />
<glyph unicode="&#x69e;" horiz-adv-x="1352" d="M1115 70v-70h-85q-50 0 -85 20q-38 -20 -96 -20h-270q-6 -101 -38.5 -156.5t-84.5 -76.5t-125 -21q-108 0 -187 58.5t-79 235.5q0 96 24.5 146.5t53 66t51.5 15.5q15 0 30 -6t24 -14q-36 -29 -66 -94.5t-30 -147.5q0 -108 49.5 -154t128.5 -46q74 0 109 34t43 81.5 t8 119.5v272q0 25 -15.5 51t-34.5 42q9 8 25 15t34 7q40 0 62 -33q32 33 92 59t132 26q65 0 126 -23t102 -78t41 -144q0 -40 -10 -84.5t-37 -80.5h108zM932 125q32 55 32 111q0 62 -31 101t-76.5 56t-93.5 17q-61 0 -112.5 -24.5t-71.5 -51.5q1 -6 1 -19v-245h230 q90 0 122 55zM949.5 609.5q15.5 -15.5 15.5 -37.5t-15.5 -37.5t-37.5 -15.5t-37.5 15.5t-15.5 37.5t15.5 37.5t37.5 15.5t37.5 -15.5zM879.5 489q16.5 -17 16.5 -40q0 -24 -16.5 -41t-40.5 -17q-23 0 -40 17t-17 41q0 23 17 40t40 17q24 0 40.5 -17zM1025.5 489 q16.5 -17 16.5 -40q0 -24 -16.5 -41t-40.5 -17q-23 0 -40 17t-17 41q0 23 17 40t40 17q24 0 40.5 -17z" />
<glyph unicode="&#x69f;" horiz-adv-x="677" d="M602 451.5q61 -28.5 100 -87t39 -145.5q0 -93 -49 -156t-161 -63h-531v70h114v442q0 43 -17 76t-38 47q6 8 25.5 16.5t40.5 8.5q33 0 56 -25.5t23 -85.5v-250q19 43 56.5 84.5t93 69t121.5 27.5t127 -28.5zM613.5 116q37.5 46 37.5 108q0 60 -29.5 102t-75 63t-94.5 21 q-86 0 -150 -58.5t-98 -126.5v-155h289q83 0 120.5 46zM300.5 604.5q15.5 -15.5 15.5 -37.5t-15.5 -37.5t-37.5 -15.5t-37.5 15.5t-15.5 37.5t15.5 37.5t37.5 15.5t37.5 -15.5zM230.5 484q16.5 -17 16.5 -40q0 -24 -16.5 -41t-40.5 -17q-23 0 -40 17t-17 41q0 23 17 40 t40 17q24 0 40.5 -17zM376.5 484q16.5 -17 16.5 -40q0 -24 -16.5 -41t-40.5 -17q-23 0 -40 17t-17 41q0 23 17 40t40 17q24 0 40.5 -17z" />
<glyph unicode="&#x69f;" horiz-adv-x="710" d="M874 70v-70h-137q-32 0 -53.5 6.5t-39.5 18.5q-45 -25 -113 -25h-531v70h114v442q0 43 -17 76t-38 47q6 8 25.5 16.5t40.5 8.5q33 0 56 -25.5t23 -85.5v-250q19 43 56.5 84.5t93 69t121.5 27.5t127 -28.5t100 -87t39 -145.5q0 -93 -44 -149h177zM613.5 116 q37.5 46 37.5 108q0 60 -29.5 102t-75 63t-94.5 21q-86 0 -150 -58.5t-98 -126.5v-155h289q83 0 120.5 46zM300.5 604.5q15.5 -15.5 15.5 -37.5t-15.5 -37.5t-37.5 -15.5t-37.5 15.5t-15.5 37.5t15.5 37.5t37.5 15.5t37.5 -15.5zM230.5 484q16.5 -17 16.5 -40 q0 -24 -16.5 -41t-40.5 -17q-23 0 -40 17t-17 41q0 23 17 40t40 17q24 0 40.5 -17zM376.5 484q16.5 -17 16.5 -40q0 -24 -16.5 -41t-40.5 -17q-23 0 -40 17t-17 41q0 23 17 40t40 17q24 0 40.5 -17z" />
<glyph unicode="&#x69f;" horiz-adv-x="831" d="M874 70v-70h-137q-55 0 -90 23q-48 -23 -110 -23h-491q-12 0 -19 10.5t-7 24.5t7 24.5t19 10.5h74v442q0 43 -17 76t-38 47q6 8 25.5 16.5t40.5 8.5q33 0 56 -25.5t23 -85.5v-250q19 43 56.5 84.5t93 69t121.5 27.5t127 -28.5t100 -87t39 -145.5q0 -93 -44 -149h171z M619.5 116q37.5 46 37.5 108q0 60 -29.5 102t-75 63t-94.5 21q-86 0 -150 -58.5t-98 -126.5v-155h289q83 0 120.5 46zM411.5 609.5q15.5 -15.5 15.5 -37.5t-15.5 -37.5t-37.5 -15.5t-37.5 15.5t-15.5 37.5t15.5 37.5t37.5 15.5t37.5 -15.5zM341.5 489q16.5 -17 16.5 -40 q0 -24 -16.5 -41t-40.5 -17q-23 0 -40 17t-17 41q0 23 17 40t40 17q24 0 40.5 -17zM487.5 489q16.5 -17 16.5 -40q0 -24 -16.5 -41t-40.5 -17q-23 0 -40 17t-17 41q0 23 17 40t40 17q24 0 40.5 -17z" />
<glyph unicode="&#x6a0;" horiz-adv-x="503" d="M442.5 59q6.5 -11 6.5 -24t-6.5 -24t-20.5 -11h-141q-33 0 -54.5 6.5t-39.5 19.5q-36 -23 -83 -26h-104v71h139q-28 25 -50.5 68.5t-22.5 111.5q0 97 53.5 163t165.5 66q66 0 107.5 -25.5t41.5 -79.5q0 -31 -14.5 -46t-37.5 -15q-12 0 -27 5q0 42 -19 60.5t-60 30.5 q-52 0 -86.5 -41t-34.5 -109q0 -85 50.5 -137.5t153.5 -52.5h63q14 0 20.5 -11zM304 407l-6 1zM159.5 674.5q15.5 -15.5 15.5 -37.5t-15.5 -37.5t-37.5 -15.5t-37.5 15.5t-15.5 37.5t15.5 37.5t37.5 15.5t37.5 -15.5zM89.5 554q16.5 -17 16.5 -40q0 -24 -16.5 -41t-40.5 -17 q-23 0 -40 17t-17 41q0 23 17 40t40 17q24 0 40.5 -17zM235.5 554q16.5 -17 16.5 -40q0 -24 -16.5 -41t-40.5 -17q-23 0 -40 17t-17 41q0 23 17 40t40 17q24 0 40.5 -17z" />
<glyph unicode="&#x6a0;" horiz-adv-x="521" d="M571 70v-70h-144q-32 0 -53 6q-22 -6 -48 -6h-326v70h248l-222 302q8 25 35.5 50t74 41.5t109.5 16.5q121 0 196.5 -59t75.5 -168q0 -40 -12.5 -91.5t-41.5 -91.5h108zM121 367l213 -288q51 19 72.5 71.5t21.5 101.5q0 76 -48.5 116.5t-133.5 40.5q-84 0 -125 -42z M169.5 646.5q15.5 -15.5 15.5 -37.5t-15.5 -37.5t-37.5 -15.5t-37.5 15.5t-15.5 37.5t15.5 37.5t37.5 15.5t37.5 -15.5zM99.5 526q16.5 -17 16.5 -40q0 -24 -16.5 -41t-40.5 -17q-23 0 -40 17t-17 41q0 23 17 40t40 17q24 0 40.5 -17zM245.5 526q16.5 -17 16.5 -40 q0 -24 -16.5 -41t-40.5 -17q-23 0 -40 17t-17 41q0 23 17 40t40 17q24 0 40.5 -17z" />
<glyph unicode="&#x6a0;" horiz-adv-x="531" d="M617 70v-70h-144q-32 0 -52 6q-22 -6 -49 -6h-89h-77q0 -83 19 -146t67 -103q-7 -6 -24.5 -11.5t-34.5 -5.5q-43 0 -69 37t-36.5 86t-10.5 88q0 125 122 125h55l-222 302q8 25 35.5 50t74 41.5t109.5 16.5q121 0 196.5 -59t75.5 -168q0 -43 -12 -93.5t-40 -89.5h106z M167 367l214 -289q51 19 72 69.5t21 101.5q0 79 -48.5 119.5t-133.5 40.5q-84 0 -125 -42zM189.5 646.5q15.5 -15.5 15.5 -37.5t-15.5 -37.5t-37.5 -15.5t-37.5 15.5t-15.5 37.5t15.5 37.5t37.5 15.5t37.5 -15.5zM119.5 526q16.5 -17 16.5 -40q0 -24 -16.5 -41t-40.5 -17 q-23 0 -40 17t-17 41q0 23 17 40t40 17q24 0 40.5 -17zM265.5 526q16.5 -17 16.5 -40q0 -24 -16.5 -41t-40.5 -17q-23 0 -40 17t-17 41q0 23 17 40t40 17q24 0 40.5 -17z" />
<glyph unicode="&#x6a1;" horiz-adv-x="532" d="M387.5 463.5q39.5 -16.5 59.5 -62.5t20 -135v-125q0 -63 -31 -102t-99 -39h-337v70h133q-26 38 -37 80t-11 99q0 98 24.5 148.5t65.5 66.5t104 16q69 0 108.5 -16.5zM377 300q0 62 -23 86.5t-65 24.5q-114 0 -114 -160q0 -62 19.5 -121.5t81.5 -59.5h18q48 0 65.5 22 t17.5 78v130z" />
<glyph unicode="&#x6a1;" horiz-adv-x="558" d="M558 70v-70h-100q-39 0 -65 9q-24 -9 -56 -9h-337v70h133q-26 38 -37 80t-11 99q0 98 24.5 148.5t65.5 66.5t104 16q69 0 108.5 -16.5t59.5 -62.5t20 -135v-125q0 -41 -13 -71h104zM359.5 92q17.5 22 17.5 78v130q0 62 -23 86.5t-65 24.5q-114 0 -114 -160 q0 -62 19.5 -121.5t81.5 -59.5h18q48 0 65.5 22z" />
<glyph unicode="&#x6a1;" horiz-adv-x="983" d="M983 70v-70h-100q-37 0 -64 10q-23 -10 -57 -10h-503q-62 0 -105.5 28t-66 75t-22.5 104q0 68 28.5 117.5t73.5 49.5q26 0 49 -18q-26 -18 -43.5 -59.5t-17.5 -99.5q0 -57 19.5 -85t45.5 -35t59 -7h279q-26 38 -37 80t-11 99q0 98 24.5 148.5t65.5 66.5t104 16 q69 0 108.5 -16.5t59.5 -62.5t20 -135v-125q0 -41 -13 -71h104zM784.5 92q17.5 22 17.5 78v130q0 62 -23 86.5t-65 24.5q-114 0 -114 -160q0 -57 20 -119t81 -62h18q48 0 65.5 22z" />
<glyph unicode="&#x6a2;" horiz-adv-x="447" d="M387.5 463.5q39.5 -16.5 59.5 -62.5t20 -135v-125q0 -63 -31 -102t-99 -39h-337v70h133q-26 38 -37 80t-11 99q0 98 24.5 148.5t65.5 66.5t104 16q69 0 108.5 -16.5zM377 300q0 62 -23 86.5t-65 24.5q-114 0 -114 -160q0 -62 19.5 -121.5t81.5 -59.5h18q48 0 65.5 22 t17.5 78v130zM85 -101q-17 17 -17 40q0 24 17 41t42 17q23 0 40 -17t17 -41q0 -23 -17 -40t-40 -17q-25 0 -42 17z" />
<glyph unicode="&#x6a2;" horiz-adv-x="495" d="M558 70v-70h-100q-39 0 -65 9q-24 -9 -56 -9h-337v70h133q-26 38 -37 80t-11 99q0 98 24.5 148.5t65.5 66.5t104 16q69 0 108.5 -16.5t59.5 -62.5t20 -135v-125q0 -41 -13 -71h104zM359.5 92q17.5 22 17.5 78v130q0 62 -23 86.5t-65 24.5q-114 0 -114 -160 q0 -62 19.5 -121.5t81.5 -59.5h18q48 0 65.5 22zM126 -101q-17 17 -17 40q0 24 17 41t42 17q23 0 40 -17t17 -41q0 -23 -17 -40t-40 -17q-25 0 -42 17z" />
<glyph unicode="&#x6a2;" horiz-adv-x="1098" d="M983 70v-70h-100q-37 0 -64 10q-23 -10 -57 -10h-503q-62 0 -105.5 28t-66 75t-22.5 104q0 68 28.5 117.5t73.5 49.5q26 0 49 -18q-26 -18 -43.5 -59.5t-17.5 -99.5q0 -57 19.5 -85t45.5 -35t59 -7h279q-26 38 -37 80t-11 99q0 98 24.5 148.5t65.5 66.5t104 16 q69 0 108.5 -16.5t59.5 -62.5t20 -135v-125q0 -41 -13 -71h104zM784.5 92q17.5 22 17.5 78v130q0 62 -23 86.5t-65 24.5q-114 0 -114 -160q0 -57 20 -119t81 -62h18q48 0 65.5 22zM343 -121q-17 17 -17 40q0 24 17 41t42 17q23 0 40 -17t17 -41q0 -23 -17 -40t-40 -17 q-25 0 -42 17z" />
<glyph unicode="&#x6a3;" horiz-adv-x="447" d="M387.5 463.5q39.5 -16.5 59.5 -62.5t20 -135v-125q0 -63 -31 -102t-99 -39h-337v70h133q-26 38 -37 80t-11 99q0 98 24.5 148.5t65.5 66.5t104 16q69 0 108.5 -16.5zM377 300q0 62 -23 86.5t-65 24.5q-114 0 -114 -160q0 -62 19.5 -121.5t81.5 -59.5h18q48 0 65.5 22 t17.5 78v130zM106 535q-17 17 -17 40q0 24 17 41t42 17q23 0 40 -17t17 -41q0 -23 -17 -40t-40 -17q-25 0 -42 17zM85 -101q-17 17 -17 40q0 24 17 41t42 17q23 0 40 -17t17 -41q0 -23 -17 -40t-40 -17q-25 0 -42 17z" />
<glyph unicode="&#x6a3;" horiz-adv-x="495" d="M558 70v-70h-100q-39 0 -65 9q-24 -9 -56 -9h-337v70h133q-26 38 -37 80t-11 99q0 98 24.5 148.5t65.5 66.5t104 16q69 0 108.5 -16.5t59.5 -62.5t20 -135v-125q0 -41 -13 -71h104zM359.5 92q17.5 22 17.5 78v130q0 62 -23 86.5t-65 24.5q-114 0 -114 -160 q0 -62 19.5 -121.5t81.5 -59.5h18q48 0 65.5 22zM130 449q-17 17 -17 40q0 24 17 41t42 17q23 0 40 -17t17 -41q0 -23 -17 -40t-40 -17q-25 0 -42 17zM126 -101q-17 17 -17 40q0 24 17 41t42 17q23 0 40 -17t17 -41q0 -23 -17 -40t-40 -17q-25 0 -42 17z" />
<glyph unicode="&#x6a3;" horiz-adv-x="1098" d="M983 70v-70h-100q-37 0 -64 10q-23 -10 -57 -10h-503q-62 0 -105.5 28t-66 75t-22.5 104q0 68 28.5 117.5t73.5 49.5q26 0 49 -18q-26 -18 -43.5 -59.5t-17.5 -99.5q0 -57 19.5 -85t45.5 -35t59 -7h279q-26 38 -37 80t-11 99q0 98 24.5 148.5t65.5 66.5t104 16 q69 0 108.5 -16.5t59.5 -62.5t20 -135v-125q0 -41 -13 -71h104zM784.5 92q17.5 22 17.5 78v130q0 62 -23 86.5t-65 24.5q-114 0 -114 -160q0 -57 20 -119t81 -62h18q48 0 65.5 22zM733 449q-17 17 -17 40q0 24 17 41t42 17q23 0 40 -17t17 -41q0 -23 -17 -40t-40 -17 q-25 0 -42 17zM343 -121q-17 17 -17 40q0 24 17 41t42 17q23 0 40 -17t17 -41q0 -23 -17 -40t-40 -17q-25 0 -42 17z" />
<glyph unicode="&#x6a5;" horiz-adv-x="447" d="M387.5 463.5q39.5 -16.5 59.5 -62.5t20 -135v-125q0 -63 -31 -102t-99 -39h-337v70h133q-26 38 -37 80t-11 99q0 98 24.5 148.5t65.5 66.5t104 16q69 0 108.5 -16.5zM377 300q0 62 -23 86.5t-65 24.5q-114 0 -114 -160q0 -62 19.5 -121.5t81.5 -59.5h18q48 0 65.5 22 t17.5 78v130zM94.5 -20.5q15.5 -15.5 15.5 -37.5t-15.5 -37.5t-37.5 -15.5t-37.5 15.5t-15.5 37.5t15.5 37.5t37.5 15.5t37.5 -15.5zM24.5 -141q16.5 -17 16.5 -40q0 -24 -16.5 -41t-40.5 -17q-23 0 -40 17t-17 41q0 23 17 40t40 17q24 0 40.5 -17zM170.5 -141 q16.5 -17 16.5 -40q0 -24 -16.5 -41t-40.5 -17q-23 0 -40 17t-17 41q0 23 17 40t40 17q24 0 40.5 -17z" />
<glyph unicode="&#x6a5;" horiz-adv-x="495" d="M558 70v-70h-100q-39 0 -65 9q-24 -9 -56 -9h-337v70h133q-26 38 -37 80t-11 99q0 98 24.5 148.5t65.5 66.5t104 16q69 0 108.5 -16.5t59.5 -62.5t20 -135v-125q0 -41 -13 -71h104zM359.5 92q17.5 22 17.5 78v130q0 62 -23 86.5t-65 24.5q-114 0 -114 -160 q0 -62 19.5 -121.5t81.5 -59.5h18q48 0 65.5 22zM135.5 -20.5q15.5 -15.5 15.5 -37.5t-15.5 -37.5t-37.5 -15.5t-37.5 15.5t-15.5 37.5t15.5 37.5t37.5 15.5t37.5 -15.5zM65.5 -141q16.5 -17 16.5 -40q0 -24 -16.5 -41t-40.5 -17q-23 0 -40 17t-17 41q0 23 17 40t40 17 q24 0 40.5 -17zM211.5 -141q16.5 -17 16.5 -40q0 -24 -16.5 -41t-40.5 -17q-23 0 -40 17t-17 41q0 23 17 40t40 17q24 0 40.5 -17z" />
<glyph unicode="&#x6a5;" horiz-adv-x="1098" d="M983 70v-70h-100q-37 0 -64 10q-23 -10 -57 -10h-503q-62 0 -105.5 28t-66 75t-22.5 104q0 68 28.5 117.5t73.5 49.5q26 0 49 -18q-26 -18 -43.5 -59.5t-17.5 -99.5q0 -57 19.5 -85t45.5 -35t59 -7h279q-26 38 -37 80t-11 99q0 98 24.5 148.5t65.5 66.5t104 16 q69 0 108.5 -16.5t59.5 -62.5t20 -135v-125q0 -41 -13 -71h104zM784.5 92q17.5 22 17.5 78v130q0 62 -23 86.5t-65 24.5q-114 0 -114 -160q0 -57 20 -119t81 -62h18q48 0 65.5 22zM352.5 -40.5q15.5 -15.5 15.5 -37.5t-15.5 -37.5t-37.5 -15.5t-37.5 15.5t-15.5 37.5 t15.5 37.5t37.5 15.5t37.5 -15.5zM282.5 -161q16.5 -17 16.5 -40q0 -24 -16.5 -41t-40.5 -17q-23 0 -40 17t-17 41q0 23 17 40t40 17q24 0 40.5 -17zM428.5 -161q16.5 -17 16.5 -40q0 -24 -16.5 -41t-40.5 -17q-23 0 -40 17t-17 41q0 23 17 40t40 17q24 0 40.5 -17z" />
<glyph unicode="&#x6a7;" horiz-adv-x="808" d="M894 0h-95q-11 -112 -98 -174t-258 -62q-229 0 -303.5 93.5t-74.5 211.5q0 85 25.5 137t76.5 52q18 0 32 -6.5t19 -14.5q-27 -22 -44.5 -75t-17.5 -114q0 -97 65.5 -155.5t226.5 -58.5q139 0 195.5 44t64.5 122h-122q-87 0 -127 70.5t-40 187.5q0 94 24.5 142.5t66.5 64 t107 15.5q64 0 102.5 -15t60 -61.5t21.5 -137.5v-196h93v-70zM534 127q24 -57 105 -57h71v230q0 61 -23 85.5t-65 24.5q-56 0 -84 -40t-28 -126q0 -60 24 -117zM452 365q-17 17 -17 40q0 24 17 41t42 17q23 0 40 -17t17 -41q0 -23 -17 -40t-40 -17q-25 0 -42 17z" />
<glyph unicode="&#x6a8;" horiz-adv-x="808" d="M894 0h-95q-11 -112 -98 -174t-258 -62q-229 0 -303.5 93.5t-74.5 211.5q0 85 25.5 137t76.5 52q18 0 32 -6.5t19 -14.5q-27 -22 -44.5 -75t-17.5 -114q0 -97 65.5 -155.5t226.5 -58.5q139 0 195.5 44t64.5 122h-122q-87 0 -127 70.5t-40 187.5q0 94 24.5 142.5t66.5 64 t107 15.5q64 0 102.5 -15t60 -61.5t21.5 -137.5v-196h93v-70zM534 127q24 -57 105 -57h71v230q0 61 -23 85.5t-65 24.5q-56 0 -84 -40t-28 -126q0 -60 24 -117zM463.5 566.5q15.5 -15.5 15.5 -37.5t-15.5 -37.5t-37.5 -15.5t-37.5 15.5t-15.5 37.5t15.5 37.5t37.5 15.5 t37.5 -15.5zM393.5 446q16.5 -17 16.5 -40q0 -24 -16.5 -41t-40.5 -17q-23 0 -40 17t-17 41q0 23 17 40t40 17q24 0 40.5 -17zM539.5 446q16.5 -17 16.5 -40q0 -24 -16.5 -41t-40.5 -17q-23 0 -40 17t-17 41q0 23 17 40t40 17q24 0 40.5 -17z" />
<glyph unicode="&#x6aa;" horiz-adv-x="763" d="M0 -5l10 82h281q110 0 187.5 2.5t119 15t41.5 40.5q0 18 -18 36.5t-68.5 33t-148.5 20.5q-107 7 -172 18t-94 33t-29 60q0 41 30 76.5t82.5 65t119.5 53t141 40.5l16 -72q-92 -21 -161.5 -47.5t-108 -53.5t-38.5 -50q0 -14 20.5 -22.5t67.5 -14.5t126 -13q95 -7 155 -21 t94 -33.5t47 -44.5t13 -54q0 -62 -45 -94.5t-138 -44t-239 -11.5h-291z" />
<glyph unicode="&#x6aa;" horiz-adv-x="838" d="M0 -5l10 82h281q110 0 187.5 2.5t119 15t41.5 40.5q0 18 -18 36.5t-68.5 33t-148.5 20.5q-107 7 -172 18t-94 33t-29 60q0 41 30 76.5t82.5 65t119.5 53t141 40.5l16 -72q-92 -21 -161.5 -47.5t-108 -53.5t-38.5 -50q0 -14 20.5 -22.5t67.5 -14.5t126 -13q95 -7 155 -21 t94 -33.5t47 -44.5t13 -54q0 -25 -7 -45v0q35 -14 72.5 -18.5t69.5 -4.5q21 0 30.5 -11.5t9.5 -27.5t-14 -29.5t-36 -13.5t-55 4t-68 13.5t-64 26.5q-49 -26 -138 -35t-222 -9h-291z" />
<glyph unicode="&#x6aa;" horiz-adv-x="1091" d="M546 -15q-48 0 -112.5 1t-134 3t-133.5 6t-111 9l6 80q67 -4 147.5 -8t167 -6.5t170.5 -2.5q164 0 256 12.5t92 55.5q0 18 -18 36.5t-68.5 33t-148.5 20.5q-107 7 -172 18t-94 33t-29 60q0 41 30 76.5t82.5 65t119.5 53t141 40.5l16 -72q-92 -21 -161.5 -47.5t-108 -53.5 t-38.5 -50q0 -14 20.5 -22.5t67.5 -14.5t126 -13q95 -7 155 -21t94 -33.5t47 -44.5t13 -54q0 -25 -7 -46q35 -14 71.5 -18t68.5 -4q21 0 30.5 -11.5t9.5 -27.5t-14 -29.5t-36 -13.5t-54 3.5t-66 13t-63 25.5q-49 -29 -138.5 -40.5t-223.5 -11.5z" />
<glyph unicode="&#x6ab;" horiz-adv-x="412" d="M0 -5l10 82h94q59 0 93.5 6.5t51 17t22 23t5.5 25.5q0 23 -17.5 57t-71.5 88q-37 38 -74 67t-61 49t-24 29q0 23 5.5 43t15.5 31q40 43 125.5 86.5t213.5 107.5l34 -74q-19 -9 -35 -17q16 -12 26 -30.5t10 -40.5q0 -37 -26 -63t-63 -26t-63 26t-26 63v1 q-46 -23 -77.5 -41.5t-58.5 -37.5q117 -95 179.5 -170.5t62.5 -152.5q0 -22 -8 -48t-34 -49t-78 -37.5t-140 -14.5h-91zM334 507q17 0 29 11t12 27q0 17 -12 28.5t-29 11.5t-29 -11.5t-12 -28.5q0 -16 12 -27t29 -11z" />
<glyph unicode="&#x6ab;" horiz-adv-x="508" d="M0 -5l10 82h77q83 0 123 9t52.5 24t12.5 31q0 24 -18 53t-46 59.5t-59.5 60.5t-59.5 55t-46 43.5t-18 26.5q0 23 5.5 43t15.5 31q27 29 79.5 60.5t120.5 65t139 68.5l34 -74l-32 -16q16 -12 26 -30.5t10 -40.5q0 -37 -26 -63t-63 -26t-63 26t-26 63v1q-41 -21 -78 -41.5 t-68 -42.5q55 -47 103 -91t89 -94.5t75 -114.5q21 -39 49 -57t55.5 -23.5t44.5 -5.5q21 0 30.5 -11.5t9.5 -27.5t-14 -29.5t-36 -13.5q-24 0 -55.5 6.5t-63.5 25t-56 54.5q-20 -29 -50 -48t-78 -28.5t-122 -9.5h-83zM337 508q17 0 29 11t12 27q0 17 -12 28.5t-29 11.5 t-29 -11.5t-12 -28.5q0 -16 12 -27t29 -11z" />
<glyph unicode="&#x6ab;" horiz-adv-x="975" d="M390 -21q-178 0 -269 47t-91 156q0 37 9 78.5t19 78.5l75 -19q-6 -22 -13.5 -55.5t-7.5 -59.5q0 -52 26.5 -83.5t92.5 -46t185 -14.5q125 0 196 13t100.5 32t29.5 35q0 24 -18 53t-46 59.5t-59.5 60.5t-59.5 55t-46 43.5t-18 26.5q0 23 5.5 43t15.5 31q27 29 79.5 60.5 t120.5 65t139 68.5l34 -74l-32 -16q16 -12 26 -30.5t10 -40.5q0 -37 -26 -63t-63 -26t-63 26t-26 63v1q-41 -21 -78 -41.5t-68 -42.5q55 -47 103 -91t89 -94.5t75 -114.5q21 -39 49 -57t55.5 -23.5t44.5 -5.5q21 0 30.5 -11.5t9.5 -27.5t-14 -29.5t-36 -13.5q-24 0 -56 6.5 t-63.5 25t-55.5 54.5q-17 -22 -45 -41t-74.5 -32.5t-117.5 -21t-173 -7.5zM804 508q17 0 29 11t12 27q0 17 -12 28.5t-29 11.5t-29 -11.5t-12 -28.5q0 -16 12 -27t29 -11z" />
<glyph unicode="&#x6ac;" horiz-adv-x="412" d="M0 70h347q45 0 69 26t24 67q0 46 -31 72.5t-96 26.5h-98q-71 0 -108 42.5t-37 119.5q0 83 47.5 126.5t153.5 43.5l108 -2l62 -2q24 0 40 7t30 17q2 -15 -4 -36q-6 -22 -22.5 -38.5t-42.5 -16.5l-149 2q-72 0 -102.5 -22.5t-30.5 -72.5q0 -47 23.5 -72.5t69.5 -25.5h78 q199 0 199 -171q0 -75 -37 -118t-108 -43h-385v70zM86 644q-17 17 -17 40q0 24 17 41t42 17q23 0 40 -17t17 -41q0 -23 -17 -40t-40 -17q-25 0 -42 17z" />
<glyph unicode="&#x6ac;" horiz-adv-x="508" d="M755 70v-70h-231q-43 0 -72 13q-31 -13 -67 -13h-385v70h347q45 0 69 26t24 67q0 46 -31 72.5t-96 26.5h-98q-71 0 -108 42.5t-37 119.5q0 83 47.5 126.5t153.5 43.5l108 -2l62 -2q24 0 40 7t30 17q2 -15 -4 -36q-6 -22 -22.5 -38.5t-42.5 -16.5l-149 2 q-72 0 -102.5 -22.5t-30.5 -72.5q0 -47 23.5 -72.5t69.5 -25.5h78q199 0 199 -171q0 -54 -19 -91h244zM54 644q-17 17 -17 40q0 24 17 41t42 17q23 0 40 -17t17 -41q0 -23 -17 -40t-40 -17q-25 0 -42 17z" />
<glyph unicode="&#x6ac;" horiz-adv-x="922" d="M884 70v-70h-115q-51 0 -83 19q-32 -19 -73 -19h-418q-68 0 -99 39t-31 102v129q0 43 45 43t45 -44v-99q0 -56 17.5 -78t65.5 -22h348q43 0 66 35.5t23 81.5v325q0 43 -17 76t-38 47q6 8 25.5 16.5t40.5 8.5q33 0 56 -25.5t23 -85.5v-354q0 -74 -28 -125h147zM315 341 q0 12 9 19.5t21 7.5q8 0 14 -3q-12 13 -22.5 36.5t-10.5 48.5q0 42 28.5 68t79.5 26q62 0 62 -40q0 -16 -9 -24t-20 -8q-9 0 -13 4q1 18 -11.5 29t-28.5 14q-12 -3 -21.5 -18.5t-9.5 -42.5q0 -77 82 -77q24 0 34 4q21 0 21 -19q0 -6 -3 -11.5t-7 -5.5q-66 -6 -123.5 -14.5 t-63.5 -14.5q-8 13 -8 21zM350 562q-17 17 -17 40q0 24 17 41t42 17q23 0 40 -17t17 -41q0 -23 -17 -40t-40 -17q-25 0 -42 17z" />
<glyph unicode="&#x6ae;" horiz-adv-x="412" d="M0 70h347q45 0 69 26t24 67q0 46 -31 72.5t-96 26.5h-98q-71 0 -108 42.5t-37 119.5q0 83 47.5 126.5t153.5 43.5l108 -2l62 -2q24 0 40 7t30 17q2 -15 -4 -36q-6 -22 -22.5 -38.5t-42.5 -16.5l-149 2q-72 0 -102.5 -22.5t-30.5 -72.5q0 -47 23.5 -72.5t69.5 -25.5h78 q199 0 199 -171q0 -75 -37 -118t-108 -43h-385v70zM55.5 -15.5q15.5 -15.5 15.5 -37.5t-15.5 -37.5t-37.5 -15.5t-37.5 15.5t-15.5 37.5t15.5 37.5t37.5 15.5t37.5 -15.5zM-14.5 -136q16.5 -17 16.5 -40q0 -24 -16.5 -41t-40.5 -17q-23 0 -40 17t-17 41q0 23 17 40t40 17 q24 0 40.5 -17zM131.5 -136q16.5 -17 16.5 -40q0 -24 -16.5 -41t-40.5 -17q-23 0 -40 17t-17 41q0 23 17 40t40 17q24 0 40.5 -17z" />
<glyph unicode="&#x6ae;" horiz-adv-x="508" d="M755 70v-70h-231q-43 0 -72 13q-31 -13 -67 -13h-385v70h347q45 0 69 26t24 67q0 46 -31 72.5t-96 26.5h-98q-71 0 -108 42.5t-37 119.5q0 83 47.5 126.5t153.5 43.5l108 -2l62 -2q24 0 40 7t30 17q2 -15 -4 -36q-6 -22 -22.5 -38.5t-42.5 -16.5l-149 2 q-72 0 -102.5 -22.5t-30.5 -72.5q0 -47 23.5 -72.5t69.5 -25.5h78q199 0 199 -171q0 -54 -19 -91h244zM55.5 -15.5q15.5 -15.5 15.5 -37.5t-15.5 -37.5t-37.5 -15.5t-37.5 15.5t-15.5 37.5t15.5 37.5t37.5 15.5t37.5 -15.5zM-14.5 -136q16.5 -17 16.5 -40q0 -24 -16.5 -41 t-40.5 -17q-23 0 -40 17t-17 41q0 23 17 40t40 17q24 0 40.5 -17zM131.5 -136q16.5 -17 16.5 -40q0 -24 -16.5 -41t-40.5 -17q-23 0 -40 17t-17 41q0 23 17 40t40 17q24 0 40.5 -17z" />
<glyph unicode="&#x6ae;" horiz-adv-x="922" d="M884 70v-70h-115q-51 0 -83 19q-32 -19 -73 -19h-418q-68 0 -99 39t-31 102v129q0 43 45 43t45 -44v-99q0 -56 17.5 -78t65.5 -22h348q43 0 66 35.5t23 81.5v325q0 43 -17 76t-38 47q6 8 25.5 16.5t40.5 8.5q33 0 56 -25.5t23 -85.5v-354q0 -74 -28 -125h147zM315 341 q0 12 9 19.5t21 7.5q8 0 14 -3q-12 13 -22.5 36.5t-10.5 48.5q0 42 28.5 68t79.5 26q62 0 62 -40q0 -16 -9 -24t-20 -8q-9 0 -13 4q1 18 -11.5 29t-28.5 14q-12 -3 -21.5 -18.5t-9.5 -42.5q0 -77 82 -77q24 0 34 4q21 0 21 -19q0 -6 -3 -11.5t-7 -5.5q-66 -6 -123.5 -14.5 t-63.5 -14.5q-8 13 -8 21zM302.5 -36.5q15.5 -15.5 15.5 -37.5t-15.5 -37.5t-37.5 -15.5t-37.5 15.5t-15.5 37.5t15.5 37.5t37.5 15.5t37.5 -15.5zM232.5 -157q16.5 -17 16.5 -40q0 -24 -16.5 -41t-40.5 -17q-23 0 -40 17t-17 41q0 23 17 40t40 17q24 0 40.5 -17z M378.5 -157q16.5 -17 16.5 -40q0 -24 -16.5 -41t-40.5 -17q-23 0 -40 17t-17 41q0 23 17 40t40 17q24 0 40.5 -17z" />
<glyph unicode="&#x6b0;" horiz-adv-x="412" d="M-1 550l-37 56q58 35 152.5 91.5t223.5 123.5l28 -61q-130 -69 -218 -120.5t-149 -89.5zM0 -5l10 82h94q59 0 93.5 6.5t51 17t22 23t5.5 25.5q0 23 -17.5 57t-71.5 88q-37 38 -74 67t-61 49t-24 29q0 23 5.5 43t15.5 31q40 43 125.5 86.5t213.5 107.5l34 -74 q-17 -8 -31 -15q16 -12 26 -30.5t10 -40.5q0 -37 -26 -63t-63 -26t-63 26t-26 63v1q-48 -24 -80 -42.5t-60 -38.5q117 -95 179.5 -170.5t62.5 -152.5q0 -22 -8 -48t-34 -49t-78 -37.5t-140 -14.5h-91zM338 509q17 0 29 11t12 27q0 17 -12 28.5t-29 11.5t-29 -11.5t-12 -28.5 q0 -16 12 -27t29 -11z" />
<glyph unicode="&#x6b0;" horiz-adv-x="508" d="M-1 550l-37 56q58 35 152.5 91.5t223.5 123.5l28 -61q-130 -69 -218 -120.5t-149 -89.5zM0 -5l10 82h77q83 0 123 9t52.5 24t12.5 31q0 24 -18 53t-46 59.5t-59.5 60.5t-59.5 55t-46 43.5t-18 26.5q0 23 5.5 43t15.5 31q27 29 79.5 60.5t120.5 65t139 68.5l34 -74 q-8 -4 -16.5 -8.5t-17.5 -8.5q16 -12 26 -30.5t10 -40.5q0 -37 -26 -63t-63 -26t-63 26t-26 63v1q-40 -20 -76.5 -41t-67.5 -42q55 -47 103 -91t89 -94.5t75 -114.5q21 -39 49 -57t55.5 -23.5t44.5 -5.5q21 0 30.5 -11.5t9.5 -27.5t-14 -29.5t-36 -13.5q-24 0 -55.5 6.5 t-63.5 25t-56 54.5q-20 -29 -50 -48t-78 -28.5t-122 -9.5h-83zM335 507q17 0 29 11t12 27q0 17 -12 28.5t-29 11.5t-29 -11.5t-12 -28.5q0 -16 12 -27t29 -11z" />
<glyph unicode="&#x6b0;" horiz-adv-x="975" d="M462 550l-37 56q58 35 152.5 91.5t223.5 123.5l28 -61q-130 -69 -218 -120.5t-149 -89.5zM390 -21q-178 0 -269 47t-91 156q0 37 9 78.5t19 78.5l75 -19q-6 -22 -13.5 -55.5t-7.5 -59.5q0 -52 26.5 -83.5t92.5 -46t185 -14.5q125 0 196 13t100.5 32t29.5 35q0 24 -18 53 t-46 59.5t-59.5 60.5t-59.5 55t-46 43.5t-18 26.5q0 23 5.5 43t15.5 31q27 29 79.5 60.5t120.5 65t139 68.5l34 -74l-26 -13q16 -12 26 -30.5t10 -40.5q0 -37 -26 -63t-63 -26t-63 26t-26 63v1q-42 -21 -81 -43t-71 -44q55 -47 103 -91t89 -94.5t75 -114.5q21 -39 49 -57 t55.5 -23.5t44.5 -5.5q21 0 30.5 -11.5t9.5 -27.5t-14 -29.5t-36 -13.5q-24 0 -56 6.5t-63.5 25t-55.5 54.5q-17 -22 -45 -41t-74.5 -32.5t-117.5 -21t-173 -7.5zM810 511q17 0 29 11t12 27q0 17 -12 28.5t-29 11.5t-29 -11.5t-12 -28.5q0 -16 12 -27t29 -11z" />
<glyph unicode="&#x6b2;" horiz-adv-x="412" d="M0 70h347q45 0 69 26t24 67q0 46 -31 72.5t-96 26.5h-98q-71 0 -108 42.5t-37 119.5q0 83 47.5 126.5t153.5 43.5l108 -2l62 -2q24 0 40 7t30 17q2 -15 -4 -36q-6 -22 -22.5 -38.5t-42.5 -16.5l-149 2q-72 0 -102.5 -22.5t-30.5 -72.5q0 -47 23.5 -72.5t69.5 -25.5h78 q199 0 199 -171q0 -75 -37 -118t-108 -43h-385v70zM87 659q6 22 22.5 38.5t42.5 16.5h231q24 0 40 7t30 17q2 -15 -4 -36q-6 -22 -22.5 -38.5t-42.5 -16.5h-231q-24 0 -40 -7t-30 -17q-2 15 4 36zM-91 -98q-17 17 -17 40q0 24 17 41t40 17q24 0 40.5 -17t16.5 -41 q0 -23 -16.5 -40t-40.5 -17q-23 0 -40 17zM55 -98q-17 17 -17 40q0 24 17 41t40 17q24 0 40.5 -17t16.5 -41q0 -23 -16.5 -40t-40.5 -17q-23 0 -40 17z" />
<glyph unicode="&#x6b2;" horiz-adv-x="508" d="M755 70v-70h-231q-43 0 -72 13q-31 -13 -67 -13h-385v70h347q45 0 69 26t24 67q0 46 -31 72.5t-96 26.5h-98q-71 0 -108 42.5t-37 119.5q0 83 47.5 126.5t153.5 43.5l108 -2l62 -2q24 0 40 7t30 17q2 -15 -4 -36q-6 -22 -22.5 -38.5t-42.5 -16.5l-149 2 q-72 0 -102.5 -22.5t-30.5 -72.5q0 -47 23.5 -72.5t69.5 -25.5h78q199 0 199 -171q0 -54 -19 -91h244zM87 659q6 22 22.5 38.5t42.5 16.5h231q24 0 40 7t30 17q2 -15 -4 -36q-6 -22 -22.5 -38.5t-42.5 -16.5h-231q-24 0 -40 -7t-30 -17q-2 15 4 36zM-91 -98q-17 17 -17 40 q0 24 17 41t40 17q24 0 40.5 -17t16.5 -41q0 -23 -16.5 -40t-40.5 -17q-23 0 -40 17zM55 -98q-17 17 -17 40q0 24 17 41t40 17q24 0 40.5 -17t16.5 -41q0 -23 -16.5 -40t-40.5 -17q-23 0 -40 17z" />
<glyph unicode="&#x6b2;" horiz-adv-x="975" d="M923 70v-70h-142q-51 0 -84 20q-31 -18 -77 -18h-425q-68 0 -99 39t-31 102v129q0 43 45 43t45 -44v-99q0 -56 17.5 -78t65.5 -22h344q45 0 69 26t24 67q0 46 -31 72.5t-96 26.5h-98q-71 0 -108 42.5t-37 119.5q0 83 47.5 126.5t153.5 43.5l108 -2l62 -2q24 0 40 7t30 17 q2 -15 -4 -36q-6 -22 -22.5 -38.5t-42.5 -16.5l-149 2q-72 0 -102.5 -22.5t-30.5 -72.5q0 -47 23.5 -72.5t69.5 -25.5h78q199 0 199 -171q0 -55 -20 -93h178zM369 659q6 22 22.5 38.5t42.5 16.5h231q24 0 40 7t30 17q2 -15 -4 -36q-6 -22 -22.5 -38.5t-42.5 -16.5h-231 q-24 0 -40 -7t-30 -17q-2 15 4 36zM156 -119q-17 17 -17 40q0 24 17 41t40 17q24 0 40.5 -17t16.5 -41q0 -23 -16.5 -40t-40.5 -17q-23 0 -40 17zM302 -119q-17 17 -17 40q0 24 17 41t40 17q24 0 40.5 -17t16.5 -41q0 -23 -16.5 -40t-40.5 -17q-23 0 -40 17z" />
<glyph unicode="&#x6b4;" horiz-adv-x="412" d="M82 872q-21 0 -35.5 14.5t-14.5 34.5t14.5 35t35.5 15q20 0 34.5 -15t14.5 -35t-14.5 -34.5t-34.5 -14.5zM187 798q-21 0 -35.5 14.5t-14.5 34.5t14.5 35t35.5 15q20 0 34.5 -15t14.5 -35t-14.5 -34.5t-34.5 -14.5zM72 747q-21 0 -35.5 14.5t-14.5 34.5t14.5 35t35.5 15 q20 0 34.5 -15t14.5 -35t-14.5 -34.5t-34.5 -14.5zM-1 550l-37 56q58 35 152.5 91.5t223.5 123.5l28 -61q-130 -69 -218 -120.5t-149 -89.5zM0 -5l10 82h94q59 0 93.5 6.5t51 17t22 23t5.5 25.5q0 23 -17.5 57t-71.5 88q-37 38 -74 67t-61 49t-24 29q0 23 5.5 43t15.5 31 q40 43 125.5 86.5t213.5 107.5l34 -74q-91 -44 -148.5 -72.5t-95 -50t-69.5 -43.5q117 -95 179.5 -170.5t62.5 -152.5q0 -22 -8 -48t-34 -49t-78 -37.5t-140 -14.5h-91z" />
<glyph unicode="&#x6b4;" horiz-adv-x="508" d="M77 872q-21 0 -35.5 14.5t-14.5 34.5t14.5 35t35.5 15q20 0 34.5 -15t14.5 -35t-14.5 -34.5t-34.5 -14.5zM182 798q-21 0 -35.5 14.5t-14.5 34.5t14.5 35t35.5 15q20 0 34.5 -15t14.5 -35t-14.5 -34.5t-34.5 -14.5zM67 747q-21 0 -35.5 14.5t-14.5 34.5t14.5 35t35.5 15 q20 0 34.5 -15t14.5 -35t-14.5 -34.5t-34.5 -14.5zM-1 550l-37 56q58 35 152.5 91.5t223.5 123.5l28 -61q-130 -69 -218 -120.5t-149 -89.5zM0 -5l10 82h77q83 0 123 9t52.5 24t12.5 31q0 24 -18 53t-46 59.5t-59.5 60.5t-59.5 55t-46 43.5t-18 26.5q0 23 5.5 43t15.5 31 q27 29 79.5 60.5t120.5 65t139 68.5l34 -74q-88 -44 -172.5 -85t-147.5 -85q55 -47 103 -91t89 -94.5t75 -114.5q21 -39 49 -57t55.5 -23.5t44.5 -5.5q21 0 30.5 -11.5t9.5 -27.5t-14 -29.5t-36 -13.5q-24 0 -55.5 6.5t-63.5 25t-56 54.5q-20 -29 -50 -48t-78 -28.5 t-122 -9.5h-83z" />
<glyph unicode="&#x6b4;" horiz-adv-x="975" d="M534 874q-21 0 -35.5 14.5t-14.5 34.5t14.5 35t35.5 15q20 0 34.5 -15t14.5 -35t-14.5 -34.5t-34.5 -14.5zM639 800q-21 0 -35.5 14.5t-14.5 34.5t14.5 35t35.5 15q20 0 34.5 -15t14.5 -35t-14.5 -34.5t-34.5 -14.5zM524 749q-21 0 -35.5 14.5t-14.5 34.5t14.5 35 t35.5 15q20 0 34.5 -15t14.5 -35t-14.5 -34.5t-34.5 -14.5zM462 550l-37 56q58 35 152.5 91.5t223.5 123.5l28 -61q-130 -69 -218 -120.5t-149 -89.5zM390 -21q-178 0 -269 47t-91 156q0 37 9 78.5t19 78.5l75 -19q-6 -22 -13.5 -55.5t-7.5 -59.5q0 -52 26.5 -83.5t92.5 -46 t185 -14.5q125 0 196 13t100.5 32t29.5 35q0 24 -18 53t-46 59.5t-59.5 60.5t-59.5 55t-46 43.5t-18 26.5q0 23 5.5 43t15.5 31q27 29 79.5 60.5t120.5 65t139 68.5l34 -74q-88 -44 -172.5 -85t-147.5 -85q55 -47 103 -91t89 -94.5t75 -114.5q21 -39 49 -57t55.5 -23.5 t44.5 -5.5q21 0 30.5 -11.5t9.5 -27.5t-14 -29.5t-36 -13.5q-24 0 -56 6.5t-63.5 25t-55.5 54.5q-17 -22 -45 -41t-74.5 -32.5t-117.5 -21t-173 -7.5z" />
<glyph unicode="&#x6b5;" horiz-adv-x="260" d="M0 70h65q26 0 38 16.5t14.5 40t2.5 61.5v324q0 43 -17 76t-38 47q6 8 25.5 16.5t40.5 8.5q33 0 56 -25.5t23 -85.5v-355q-1 -96 -44 -145t-109 -49h-57v70zM102 848q-9 20 -25 53.5t-32.5 67t-29.5 54.5l46 25q7 -12 20 -36.5t27.5 -52t24.5 -49.5q11 26 24 55.5t24 53 t16 31.5l45 -19q-5 -10 -16 -32.5t-23.5 -50t-24 -53t-17.5 -41.5z" />
<glyph unicode="&#x6b5;" horiz-adv-x="300" d="M327 70v-70h-93q-32 0 -53.5 6.5t-39.5 18.5q-37 -25 -84 -25h-57v70h65q26 0 38 16.5t14.5 40t2.5 61.5v324q0 43 -17 76t-38 47q6 8 25.5 16.5t40.5 8.5q33 0 56 -25.5t23 -85.5v-355q0 -76 -29 -124h146zM116 848q-9 20 -25 53.5t-32.5 67t-29.5 54.5l46 25 q7 -12 20 -36.5t27.5 -52t24.5 -49.5q11 26 24 55.5t24 53t16 31.5l45 -19q-5 -10 -16 -32.5t-23.5 -50t-24 -53t-17.5 -41.5z" />
<glyph unicode="&#x6b5;" horiz-adv-x="730" d="M712 70v-70h-17q-50 0 -81 18q-5 -122 -70 -188t-194 -66q-99 0 -163 38t-93 97t-29 127q0 50 15 98t42.5 78.5t62.5 30.5q25 0 51 -16q-23 -21 -50 -71.5t-27 -125.5q0 -70 32 -111.5t78 -58t92 -16.5q72 0 108 36.5t45.5 84.5t9.5 107v450q0 43 -17 76t-38 47 q6 9 25 17t40 8q34 0 57 -25.5t23 -85.5v-479h98zM279 591q-9 20 -25 53.5t-32.5 67t-29.5 54.5l46 25q7 -12 20 -36.5t27.5 -52t24.5 -49.5q11 26 24 55.5t24 53t16 31.5l45 -19q-5 -10 -16 -32.5t-23.5 -50t-24 -53t-17.5 -41.5z" />
<glyph unicode="&#x6b6;" horiz-adv-x="260" d="M0 70h65q26 0 38 16.5t14.5 40t2.5 61.5v324q0 43 -17 76t-38 47q6 8 25.5 16.5t40.5 8.5q33 0 56 -25.5t23 -85.5v-355q-1 -96 -44 -145t-109 -49h-57v70zM14 748q-17 17 -17 40q0 24 17 41t42 17q23 0 40 -17t17 -41q0 -23 -17 -40t-40 -17q-25 0 -42 17z" />
<glyph unicode="&#x6b6;" horiz-adv-x="300" d="M327 70v-70h-93q-32 0 -53.5 6.5t-39.5 18.5q-37 -25 -84 -25h-57v70h65q26 0 38 16.5t14.5 40t2.5 61.5v324q0 43 -17 76t-38 47q6 8 25.5 16.5t40.5 8.5q33 0 56 -25.5t23 -85.5v-355q0 -76 -29 -124h146zM28 748q-17 17 -17 40q0 24 17 41t42 17q23 0 40 -17t17 -41 q0 -23 -17 -40t-40 -17q-25 0 -42 17z" />
<glyph unicode="&#x6b6;" horiz-adv-x="730" d="M712 70v-70h-17q-50 0 -81 18q-5 -122 -70 -188t-194 -66q-99 0 -163 38t-93 97t-29 127q0 50 15 98t42.5 78.5t62.5 30.5q25 0 51 -16q-23 -21 -50 -71.5t-27 -125.5q0 -70 32 -111.5t78 -58t92 -16.5q72 0 108 36.5t45.5 84.5t9.5 107v450q0 43 -17 76t-38 47 q6 9 25 17t40 8q34 0 57 -25.5t23 -85.5v-479h98zM191 491q-17 17 -17 40q0 24 17 41t42 17q23 0 40 -17t17 -41q0 -23 -17 -40t-40 -17q-25 0 -42 17z" />
<glyph unicode="&#x6b7;" horiz-adv-x="260" d="M0 70h65q26 0 38 16.5t14.5 40t2.5 61.5v324q0 43 -17 76t-38 47q6 8 25.5 16.5t40.5 8.5q33 0 56 -25.5t23 -85.5v-355q-1 -96 -44 -145t-109 -49h-57v70zM25.5 949.5q15.5 -15.5 15.5 -37.5t-15.5 -37.5t-37.5 -15.5t-37.5 15.5t-15.5 37.5t15.5 37.5t37.5 15.5 t37.5 -15.5zM-44.5 829q16.5 -17 16.5 -40q0 -24 -16.5 -41t-40.5 -17q-23 0 -40 17t-17 41q0 23 17 40t40 17q24 0 40.5 -17zM101.5 829q16.5 -17 16.5 -40q0 -24 -16.5 -41t-40.5 -17q-23 0 -40 17t-17 41q0 23 17 40t40 17q24 0 40.5 -17z" />
<glyph unicode="&#x6b7;" horiz-adv-x="300" d="M327 70v-70h-93q-32 0 -53.5 6.5t-39.5 18.5q-37 -25 -84 -25h-57v70h65q26 0 38 16.5t14.5 40t2.5 61.5v324q0 43 -17 76t-38 47q6 8 25.5 16.5t40.5 8.5q33 0 56 -25.5t23 -85.5v-355q0 -76 -29 -124h146zM39.5 949.5q15.5 -15.5 15.5 -37.5t-15.5 -37.5t-37.5 -15.5 t-37.5 15.5t-15.5 37.5t15.5 37.5t37.5 15.5t37.5 -15.5zM-30.5 829q16.5 -17 16.5 -40q0 -24 -16.5 -41t-40.5 -17q-23 0 -40 17t-17 41q0 23 17 40t40 17q24 0 40.5 -17zM115.5 829q16.5 -17 16.5 -40q0 -24 -16.5 -41t-40.5 -17q-23 0 -40 17t-17 41q0 23 17 40t40 17 q24 0 40.5 -17z" />
<glyph unicode="&#x6b7;" horiz-adv-x="730" d="M712 70v-70h-17q-50 0 -81 18q-5 -122 -70 -188t-194 -66q-99 0 -163 38t-93 97t-29 127q0 50 15 98t42.5 78.5t62.5 30.5q25 0 51 -16q-23 -21 -50 -71.5t-27 -125.5q0 -70 32 -111.5t78 -58t92 -16.5q72 0 108 36.5t45.5 84.5t9.5 107v450q0 43 -17 76t-38 47 q6 9 25 17t40 8q34 0 57 -25.5t23 -85.5v-479h98zM202.5 692.5q15.5 -15.5 15.5 -37.5t-15.5 -37.5t-37.5 -15.5t-37.5 15.5t-15.5 37.5t15.5 37.5t37.5 15.5t37.5 -15.5zM132.5 572q16.5 -17 16.5 -40q0 -24 -16.5 -41t-40.5 -17q-23 0 -40 17t-17 41q0 23 17 40t40 17 q24 0 40.5 -17zM278.5 572q16.5 -17 16.5 -40q0 -24 -16.5 -41t-40.5 -17q-23 0 -40 17t-17 41q0 23 17 40t40 17q24 0 40.5 -17z" />
<glyph unicode="&#x6b8;" horiz-adv-x="260" d="M0 70h65q26 0 38 16.5t14.5 40t2.5 61.5v324q0 43 -17 76t-38 47q6 8 25.5 16.5t40.5 8.5q33 0 56 -25.5t23 -85.5v-355q-1 -96 -44 -145t-109 -49h-57v70zM22.5 -15.5q15.5 -15.5 15.5 -37.5t-15.5 -37.5t-37.5 -15.5t-37.5 15.5t-15.5 37.5t15.5 37.5t37.5 15.5 t37.5 -15.5zM-47.5 -136q16.5 -17 16.5 -40q0 -24 -16.5 -41t-40.5 -17q-23 0 -40 17t-17 41q0 23 17 40t40 17q24 0 40.5 -17zM98.5 -136q16.5 -17 16.5 -40q0 -24 -16.5 -41t-40.5 -17q-23 0 -40 17t-17 41q0 23 17 40t40 17q24 0 40.5 -17z" />
<glyph unicode="&#x6b8;" horiz-adv-x="300" d="M327 70v-70h-93q-32 0 -53.5 6.5t-39.5 18.5q-37 -25 -84 -25h-57v70h65q26 0 38 16.5t14.5 40t2.5 61.5v324q0 43 -17 76t-38 47q6 8 25.5 16.5t40.5 8.5q33 0 56 -25.5t23 -85.5v-355q0 -76 -29 -124h146zM47.5 -15.5q15.5 -15.5 15.5 -37.5t-15.5 -37.5t-37.5 -15.5 t-37.5 15.5t-15.5 37.5t15.5 37.5t37.5 15.5t37.5 -15.5zM-22.5 -136q16.5 -17 16.5 -40q0 -24 -16.5 -41t-40.5 -17q-23 0 -40 17t-17 41q0 23 17 40t40 17q24 0 40.5 -17zM123.5 -136q16.5 -17 16.5 -40q0 -24 -16.5 -41t-40.5 -17q-23 0 -40 17t-17 41q0 23 17 40t40 17 q24 0 40.5 -17z" />
<glyph unicode="&#x6b8;" horiz-adv-x="730" d="M712 70v-70h-17q-50 0 -81 18q-5 -122 -70 -188t-194 -66q-99 0 -163 38t-93 97t-29 127q0 50 15 98t42.5 78.5t62.5 30.5q25 0 51 -16q-23 -21 -50 -71.5t-27 -125.5q0 -70 32 -111.5t78 -58t92 -16.5q72 0 108 36.5t45.5 84.5t9.5 107v450q0 43 -17 76t-38 47 q6 9 25 17t40 8q34 0 57 -25.5t23 -85.5v-479h98zM190.5 -247.5q15.5 -15.5 15.5 -37.5t-15.5 -37.5t-37.5 -15.5t-37.5 15.5t-15.5 37.5t15.5 37.5t37.5 15.5t37.5 -15.5zM120.5 -368q16.5 -17 16.5 -40q0 -24 -16.5 -41t-40.5 -17q-23 0 -40 17t-17 41q0 23 17 40t40 17 q24 0 40.5 -17zM266.5 -368q16.5 -17 16.5 -40q0 -24 -16.5 -41t-40.5 -17q-23 0 -40 17t-17 41q0 23 17 40t40 17q24 0 40.5 -17z" />
<glyph unicode="&#x6b9;" horiz-adv-x="269" d="M0 70h67q69 0 89.5 56t20.5 114q0 63 -16.5 119.5t-68.5 100.5q22 20 55 20q63 0 91.5 -62t28.5 -148q0 -110 -47 -190t-160 -80h-60v70zM106 562q-17 17 -17 40q0 24 17 41t42 17q23 0 40 -17t17 -41q0 -23 -17 -40t-40 -17q-25 0 -42 17zM-10 -101q-17 17 -17 40 q0 24 17 41t42 17q23 0 40 -17t17 -41q0 -23 -17 -40t-40 -17q-25 0 -42 17z" />
<glyph unicode="&#x6b9;" horiz-adv-x="343" d="M329 70v-70h-95q-33 0 -54.5 6.5t-39.5 19.5q-36 -23 -83 -26h-57v70h57q30 1 57 12v352q0 46 45 46t45 -45v-283q0 -36 4.5 -59t21.5 -23h99zM118 562q-17 17 -17 40q0 24 17 41t42 17q23 0 40 -17t17 -41q0 -23 -17 -40t-40 -17q-25 0 -42 17zM53 -101q-17 17 -17 40 q0 24 17 41t42 17q23 0 40 -17t17 -41q0 -23 -17 -40t-40 -17q-25 0 -42 17z" />
<glyph unicode="&#x6b9;" horiz-adv-x="730" d="M698 70v-70h-11q-28 0 -43.5 4.5t-29.5 15.5q-4 -123 -69 -189.5t-195 -66.5q-99 0 -163 38t-93 97t-29 127q0 50 15 98t42.5 78.5t62.5 30.5q25 0 51 -16q-23 -21 -50 -71.5t-27 -125.5q0 -70 32 -111.5t78 -58t92 -16.5q72 0 108 36.5t45.5 84.5t9.5 107v378 q0 24 14.5 32t30.5 8t30.5 -8t14.5 -32v-370h84zM299 497q-17 17 -17 40q0 24 17 41t42 17q23 0 40 -17t17 -41q0 -23 -17 -40t-40 -17q-25 0 -42 17zM196 -328q-17 17 -17 40q0 24 17 41t42 17q23 0 40 -17t17 -41q0 -23 -17 -40t-40 -17q-25 0 -42 17z" />
<glyph unicode="&#x6ba;" horiz-adv-x="332" d="M0 70h67q69 0 89.5 56t20.5 114q0 63 -16.5 119.5t-68.5 100.5q22 20 55 20q63 0 91.5 -62t28.5 -148q0 -110 -47 -190t-160 -80h-60v70z" />
<glyph unicode="&#x6ba;" horiz-adv-x="329" d="M329 70v-70h-95q-33 0 -54.5 6.5t-39.5 19.5q-36 -23 -83 -26h-57v70h57q30 1 57 12v352q0 46 45 46t45 -45v-283q0 -36 4.5 -59t21.5 -23h99z" />
<glyph unicode="&#x6bc;" horiz-adv-x="299" d="M148 507q-21 0 -35.5 14.5t-14.5 34.5t14.5 35t35.5 15q20 0 34.5 -15t14.5 -35t-14.5 -34.5t-34.5 -14.5zM0 -5l10 82q59 0 92 4.5t47 23t14 58.5q0 38 -17.5 95.5t-39.5 114.5l81 30q13 -32 24.5 -73t19.5 -81t8 -70q0 -86 -40 -128q19 -12 30.5 -32t11.5 -44 q0 -37 -26 -63t-63 -26t-63 26t-26 63q0 12 3 23q-30 -3 -66 -3zM152 -63q17 0 29 11t12 27q0 17 -12 28.5t-29 11.5t-29 -11.5t-12 -28.5q0 -16 12 -27t29 -11z" />
<glyph unicode="&#x6bc;" horiz-adv-x="373" d="M197 386q-21 0 -35.5 14.5t-14.5 34.5t14.5 35t35.5 15q20 0 34.5 -15t14.5 -35t-14.5 -34.5t-34.5 -14.5zM0 -5l10 82q50 0 78 7.5t42.5 29t23.5 62.5t22 107l78 -15q-6 -27 -13.5 -62t-7.5 -59q0 -15 2 -28t15 -22t44 -14.5t89 -5.5q21 0 30.5 -11.5t9.5 -27.5 t-14 -29.5t-36 -13.5q-65 0 -101.5 7.5t-54 22t-25.5 36.5q-7 -11 -16 -20q18 -12 29 -31.5t11 -42.5q0 -37 -26 -63t-63 -26t-63 26t-26 63q0 15 5 29q-19 -1 -43 -1zM127 -71q17 0 29 11t12 27q0 17 -12 28.5t-29 11.5t-29 -11.5t-12 -28.5q0 -16 12 -27t29 -11z" />
<glyph unicode="&#x6bc;" horiz-adv-x="730" d="M332 398q-21 0 -35.5 14.5t-14.5 34.5t14.5 35t35.5 15q20 0 34.5 -15t14.5 -35t-14.5 -34.5t-34.5 -14.5zM30 -1q0 36 10 80t32 97l72 -28q-16 -42 -24 -77t-8 -65q0 -55 27.5 -89.5t74 -50.5t102.5 -16q91 0 142.5 25.5t73 65.5t21.5 85q0 66 -14.5 121.5t-31.5 114.5 l81 22q16 -57 22.5 -82.5t10.5 -41.5q11 -37 29 -54.5t41.5 -23t48.5 -5.5q21 0 30.5 -11.5t9.5 -27.5t-14 -29.5t-36 -13.5q-31 0 -54.5 8.5t-39.5 21.5q-6 -59 -31.5 -114t-81 -92.5t-151.5 -47.5q22 -11 36 -32.5t14 -47.5q0 -37 -26 -63t-63 -26t-63 26t-26 63 q0 25 12.5 45.5t32.5 32.5q-70 3 -129 29.5t-94.5 76.5t-35.5 124zM333 -347q17 0 29 11t12 27q0 17 -12 28.5t-29 11.5t-29 -11.5t-12 -28.5q0 -16 12 -27t29 -11z" />
<glyph unicode="&#x6bd;" horiz-adv-x="730" d="M698 70v-70h-11q-28 0 -43.5 4.5t-29.5 15.5q-4 -123 -69 -189.5t-195 -66.5q-99 0 -163 38t-93 97t-29 127q0 50 15 98t42.5 78.5t62.5 30.5q25 0 51 -16q-23 -21 -50 -71.5t-27 -125.5q0 -70 32 -111.5t78 -58t92 -16.5q72 0 108 36.5t45.5 84.5t9.5 107v378 q0 24 14.5 32t30.5 8t30.5 -8t14.5 -32v-370h84zM226.5 530.5q15.5 -15.5 15.5 -37.5t-15.5 -37.5t-37.5 -15.5t-37.5 15.5t-15.5 37.5t15.5 37.5t37.5 15.5t37.5 -15.5zM156.5 410q16.5 -17 16.5 -40q0 -24 -16.5 -41t-40.5 -17q-23 0 -40 17t-17 41q0 23 17 40t40 17 q24 0 40.5 -17zM302.5 410q16.5 -17 16.5 -40q0 -24 -16.5 -41t-40.5 -17q-23 0 -40 17t-17 41q0 23 17 40t40 17q24 0 40.5 -17z" />
<glyph unicode="&#x6bf;" horiz-adv-x="589" d="M0 70h210q57 0 91.5 6t63.5 41t29 113q0 90 -51 135t-179 45l-58 -1q-31 0 -46 14t-21 41t-4 36q14 -10 30 -17t40 -7l28 1q24 3 63 3q149 0 218.5 -63t69.5 -184q0 -109 -53.5 -171t-156.5 -62h-274v70zM154 -178q-17 17 -17 40q0 24 17 41t40 17q24 0 40.5 -17 t16.5 -41q0 -23 -16.5 -40t-40.5 -17q-23 0 -40 17zM300 -178q-17 17 -17 40q0 24 17 41t40 17q24 0 40.5 -17t16.5 -41q0 -23 -16.5 -40t-40.5 -17q-23 0 -40 17zM229.5 -298.5q-15.5 15.5 -15.5 37.5t15.5 37.5t37.5 15.5t37.5 -15.5t15.5 -37.5t-15.5 -37.5t-37.5 -15.5 t-37.5 15.5zM50 386q-17 17 -17 40q0 24 17 41t42 17q23 0 40 -17t17 -41q0 -23 -17 -40t-40 -17q-25 0 -42 17z" />
<glyph unicode="&#x6bf;" horiz-adv-x="637" d="M530 70v-70h-50q-33 0 -54.5 6.5t-39.5 19.5q-46 -26 -112 -26h-274v70h210q57 0 91.5 6t63.5 41t29 113q0 90 -51 135t-179 45l-58 -1q-31 0 -46 14t-21 41t-4 36q14 -10 30 -17t40 -7l28 1q24 3 63 3q149 0 218.5 -63t69.5 -184q0 -102 -47 -163h93zM154 -178 q-17 17 -17 40q0 24 17 41t40 17q24 0 40.5 -17t16.5 -41q0 -23 -16.5 -40t-40.5 -17q-23 0 -40 17zM300 -178q-17 17 -17 40q0 24 17 41t40 17q24 0 40.5 -17t16.5 -41q0 -23 -16.5 -40t-40.5 -17q-23 0 -40 17zM229.5 -298.5q-15.5 15.5 -15.5 37.5t15.5 37.5t37.5 15.5 t37.5 -15.5t15.5 -37.5t-15.5 -37.5t-37.5 -15.5t-37.5 15.5zM40 386q-17 17 -17 40q0 24 17 41t42 17q23 0 40 -17t17 -41q0 -23 -17 -40t-40 -17q-25 0 -42 17z" />
<glyph unicode="&#x6bf;" horiz-adv-x="719" d="M563 70v-70h-29q-33 0 -54.5 6.5t-39.5 19.5q-46 -26 -112 -26h-189q0 -83 19 -146t67 -103q-7 -6 -24.5 -11.5t-34.5 -5.5q-43 0 -69 37t-36.5 85.5t-10.5 85.5q0 128 117 128h97q58 0 92.5 6.5t63 41.5t28.5 113q0 90 -51 134.5t-179 44.5l-58 -1q-27 0 -43 15.5 t-23 36.5q-7 22 -5 39q14 -10 30 -17t40 -7l28 1q24 3 63 3q149 0 218.5 -63t69.5 -184q0 -102 -47 -163h72zM327.5 -157q-16.5 -17 -40.5 -17q-23 0 -40 17t-17 40q0 24 17 41t40 17q24 0 40.5 -17t16.5 -41q0 -23 -16.5 -40zM473.5 -76q16.5 -17 16.5 -41q0 -23 -16.5 -40 t-40.5 -17q-23 0 -40 17t-17 40q0 24 17 41t40 17q24 0 40.5 -17zM397.5 -202.5q15.5 -15.5 15.5 -37.5t-15.5 -37.5t-37.5 -15.5t-37.5 15.5t-15.5 37.5t15.5 37.5t37.5 15.5t37.5 -15.5zM195 450q-17 17 -17 40q0 24 17 41t42 17q23 0 40 -17t17 -41q0 -23 -17 -40 t-40 -17q-25 0 -42 17z" />
<glyph unicode="&#x6c2;" horiz-adv-x="332" d="M0 70h67q69 0 89.5 56t20.5 114q0 63 -16.5 119.5t-68.5 100.5q22 20 55 20q63 0 91.5 -62t28.5 -148q0 -110 -47 -190t-160 -80h-60v70zM102.5 -271.5q-17.5 18.5 -17.5 51.5q0 123 110 185l10 -15q-40 -27 -60 -59.5t-20 -75.5l30 10q23 0 39 -16t16 -39q0 -26 -17 -43 t-43 -17q-30 0 -47.5 18.5zM-12 566q0 12 9 19.5t21 7.5q8 0 14 -3q-12 13 -22.5 36.5t-10.5 48.5q0 42 28.5 68t79.5 26q62 0 62 -40q0 -16 -9 -24t-20 -8q-9 0 -13 4q1 18 -11.5 29t-28.5 14q-12 -3 -21.5 -18.5t-9.5 -42.5q0 -77 82 -77q24 0 34 4q21 0 21 -19 q0 -6 -3 -11.5t-7 -5.5q-66 -6 -123.5 -14.5t-63.5 -14.5q-8 13 -8 21z" />
<glyph unicode="&#x6c2;" horiz-adv-x="475" d="M475 0h-77v-230q0 -9 -6.5 -15t-15.5 -6q-179 0 -252 67t-73 184h-51v70h120q8 0 14.5 -6t6.5 -15q0 -59 9 -105t45.5 -83t112.5 -37v225q0 9 6.5 15t14.5 6h146v-70zM135 359q0 12 9 19.5t21 7.5q8 0 14 -3q-12 13 -22.5 36.5t-10.5 48.5q0 42 28.5 68t79.5 26 q62 0 62 -40q0 -16 -9 -24t-20 -8q-9 0 -13 4q1 18 -11.5 29t-28.5 14q-12 -3 -21.5 -18.5t-9.5 -42.5q0 -77 82 -77q24 0 34 4q21 0 21 -19q0 -6 -3 -11.5t-7 -5.5q-66 -6 -123.5 -14.5t-63.5 -14.5q-8 13 -8 21z" />
<glyph unicode="&#x6c2;" horiz-adv-x="511" d="M511 70v-70h-74q-33 0 -51 6t-32 14q-46 -22 -106 -22q-100 0 -141.5 57.5t-41.5 180.5q0 99 23 152.5t64 72.5t105 19q88 0 137 -34.5t49 -123.5v-252h68zM179 124.5q24 -54.5 104 -54.5h70v228q0 112 -90 112q-108 0 -108 -172q0 -59 24 -113.5zM348 22h-1h1zM153 566 q0 12 9 19.5t21 7.5q8 0 14 -3q-12 13 -22.5 36.5t-10.5 48.5q0 42 28.5 68t79.5 26q62 0 62 -40q0 -16 -9 -24t-20 -8q-9 0 -13 4q1 18 -11.5 29t-28.5 14q-12 -3 -21.5 -18.5t-9.5 -42.5q0 -77 82 -77q24 0 34 4q21 0 21 -19q0 -6 -3 -11.5t-7 -5.5q-66 -6 -123.5 -14.5 t-63.5 -14.5q-8 13 -8 21z" />
<glyph unicode="&#x6c3;" horiz-adv-x="657" d="M657 70v-70h-158q-12 0 -20.5 8t-8.5 20v382q-94 0 -166 -63.5t-110.5 -159t-38.5 -187.5h-90q0 135 55.5 244.5t161 172.5t250.5 63q11 0 19 -8.5t8 -20.5v-381h98zM217 562q-17 17 -17 40q0 24 17 41t40 17q24 0 40.5 -17t16.5 -41q0 -23 -16.5 -40t-40.5 -17 q-23 0 -40 17zM363 562q-17 17 -17 40q0 24 17 41t40 17q24 0 40.5 -17t16.5 -41q0 -23 -16.5 -40t-40.5 -17q-23 0 -40 17z" />
<glyph unicode="&#x6c4;" horiz-adv-x="472" d="M482 77q21 0 30.5 -11.5t9.5 -27.5t-14 -29.5t-36 -13.5h-81q-13 -83 -57.5 -132.5t-112.5 -72t-151 -22.5h-12t-12 1l-6 79q10 0 19 1q-12 21 -12 45q0 37 26 63t63 26t63 -26t26 -63q0 -8 -1 -15q32 16 53 44t30 72h-74q-45 0 -83.5 13t-62 40.5t-23.5 72.5q0 38 13 75 t35.5 67.5t53 49t66.5 18.5q67 0 114 -61t50 -193h86zM271 77h43q0 83 -26 128t-64 45q-21 0 -39 -16t-29.5 -42t-11.5 -55q0 -35 31.5 -47.5t95.5 -12.5zM136 -144q17 0 29 11t12 27q0 17 -12 28.5t-29 11.5t-29 -11.5t-12 -28.5q0 -16 12 -27t29 -11z" />
<glyph unicode="&#x6ca;" horiz-adv-x="472" d="M528 0h-85v-68q0 -34 -12.5 -70.5t-46 -63.5t-91.5 -27q-44 0 -77 16.5t-46 37.5q35 -8 62 -8q55 0 88 29.5t33 74.5l1 79l-106 -2q-100 0 -141.5 57.5t-41.5 180.5q0 99 23 152.5t64 72.5t105 19q88 0 137 -34.5t49 -123.5v-252h85v-70zM179 124.5q24 -54.5 104 -54.5 h70v228q0 112 -90 112q-108 0 -108 -172q0 -59 24 -113.5zM-23 365q-17 17 -17 40q0 24 17 41t40 17q24 0 40.5 -17t16.5 -41q0 -23 -16.5 -40t-40.5 -17q-23 0 -40 17zM123 365q-17 17 -17 40q0 24 17 41t40 17q24 0 40.5 -17t16.5 -41q0 -23 -16.5 -40t-40.5 -17 q-23 0 -40 17z" />
<glyph unicode="&#x6cd;" horiz-adv-x="850" d="M440 -269q-79 0 -146.5 23.5t-108.5 75t-41 135.5q0 14 3 39.5t14 60.5l-151 -54l9 82l182 64l68 -31q-23 -47 -33.5 -81t-10.5 -65q0 -62 32.5 -99t86.5 -53t118 -16q77 0 140.5 21t101.5 59t38 88q0 26 -40 45t-112 39l19 83q104 -40 162 -55t89 -15q21 0 30.5 -11.5 t9.5 -27.5t-14 -29.5t-36 -13.5h-37q2 -9 3 -14.5t1 -14.5q0 -64 -45 -117.5t-129.5 -85.5t-202.5 -32z" />
<glyph unicode="&#x6ce;" horiz-adv-x="299" d="M119 538q-9 20 -25 53.5t-32.5 67t-29.5 54.5l46 25q7 -12 20 -36.5t27.5 -52t24.5 -49.5q11 26 24 55.5t24 53t16 31.5l45 -19q-5 -10 -16 -32.5t-23.5 -50t-24 -53t-17.5 -41.5zM0 -5l10 82q59 0 92 4.5t47 23t14 58.5q0 38 -17.5 95.5t-39.5 114.5l81 30 q13 -32 24.5 -73t19.5 -81t8 -70q0 -100 -56 -142t-183 -42zM185 -194q-21 0 -35.5 14.5t-14.5 34.5t14.5 35t35.5 15q20 0 34.5 -15t14.5 -35t-14.5 -34.5t-34.5 -14.5zM48 -194q-21 0 -35.5 14.5t-14.5 34.5t14.5 35t35.5 15q20 0 34.5 -15t14.5 -35t-14.5 -34.5 t-34.5 -14.5z" />
<glyph unicode="&#x6ce;" horiz-adv-x="373" d="M168 417q-9 20 -25 53.5t-32.5 67t-29.5 54.5l46 25q7 -12 20 -36.5t27.5 -52t24.5 -49.5q11 26 24 55.5t24 53t16 31.5l45 -19q-5 -10 -16 -32.5t-23.5 -50t-24 -53t-17.5 -41.5zM0 -5l10 82q50 0 78 7.5t42.5 29t23.5 62.5t22 107l78 -15q-6 -27 -13.5 -62t-7.5 -59 q0 -15 2 -28t15 -22t44 -14.5t89 -5.5q21 0 30.5 -11.5t9.5 -27.5t-14 -29.5t-36 -13.5q-65 0 -101.5 7.5t-54 22t-25.5 36.5q-29 -41 -71.5 -53.5t-120.5 -12.5zM252 -194q-21 0 -35.5 14.5t-14.5 34.5t14.5 35t35.5 15q20 0 34.5 -15t14.5 -35t-14.5 -34.5t-34.5 -14.5z M115 -194q-21 0 -35.5 14.5t-14.5 34.5t14.5 35t35.5 15q20 0 34.5 -15t14.5 -35t-14.5 -34.5t-34.5 -14.5z" />
<glyph unicode="&#x6ce;" horiz-adv-x="736" d="M189.5 -186.5q-76.5 49.5 -100.5 111t-24 115.5q0 65 28.5 107.5t74.5 42.5q18 0 31.5 -6.5t18.5 -14.5q-26 -21 -44 -66.5t-18 -92.5q0 -79 61.5 -128t203.5 -49q82 0 140.5 21.5t88 59.5t29.5 86h-29q-48 0 -70 20.5t-22 49.5q0 15 4 24q13 -9 36.5 -16.5t50.5 -7.5 h263v-70h-145q0 -56 -35.5 -110t-111 -90t-189.5 -36h-22q-143 0 -219.5 49.5zM188 284q-9 20 -25 53.5t-32.5 67t-29.5 54.5l46 25q7 -12 20 -36.5t27.5 -52t24.5 -49.5q11 26 24 55.5t24 53t16 31.5l45 -19q-5 -10 -16 -32.5t-23.5 -50t-24 -53t-17.5 -41.5z" />
<glyph unicode="&#x6cf;" horiz-adv-x="472" d="M528 0h-85v-68q0 -34 -12.5 -70.5t-46 -63.5t-91.5 -27q-44 0 -77 16.5t-46 37.5q35 -8 62 -8q55 0 88 29.5t33 74.5l1 79l-106 -2q-100 0 -141.5 57.5t-41.5 180.5q0 99 23 152.5t64 72.5t105 19q88 0 137 -34.5t49 -123.5v-252h85v-70zM179 124.5q24 -54.5 104 -54.5 h70v228q0 112 -90 112q-108 0 -108 -172q0 -59 24 -113.5zM116 365q-17 17 -17 40q0 24 17 41t42 17q23 0 40 -17t17 -41q0 -23 -17 -40t-40 -17q-25 0 -42 17z" />
<glyph unicode="&#x6d1;" horiz-adv-x="736" d="M189.5 -186.5q-76.5 49.5 -100.5 111t-24 115.5q0 65 28.5 107.5t74.5 42.5q18 0 31.5 -6.5t18.5 -14.5q-26 -21 -44 -66.5t-18 -92.5q0 -79 61.5 -128t203.5 -49q82 0 140.5 21.5t88 59.5t29.5 86h-29q-48 0 -70 20.5t-22 49.5q0 15 4 24q13 -9 36.5 -16.5t50.5 -7.5 h263v-70h-145q0 -56 -35.5 -110t-111 -90t-189.5 -36h-22q-143 0 -219.5 49.5zM218.5 -247.5q15.5 -15.5 15.5 -37.5t-15.5 -37.5t-37.5 -15.5t-37.5 15.5t-15.5 37.5t15.5 37.5t37.5 15.5t37.5 -15.5zM148.5 -368q16.5 -17 16.5 -40q0 -24 -16.5 -41t-40.5 -17 q-23 0 -40 17t-17 41q0 23 17 40t40 17q24 0 40.5 -17zM294.5 -368q16.5 -17 16.5 -40q0 -24 -16.5 -41t-40.5 -17q-23 0 -40 17t-17 41q0 23 17 40t40 17q24 0 40.5 -17z" />
<glyph unicode="&#x6ee;" horiz-adv-x="532" d="M535 70v-70h-122q-33 0 -54.5 6.5t-39.5 19.5q-42 -26 -96 -26h-146q-14 0 -20.5 10t-6.5 23q0 15 9 26t29 11h53q103 0 153 54.5t50 134.5q0 67 -33.5 109.5t-89.5 41.5q-37 -12 -57 -36t-20 -67q-26 -2 -46 7q-33 15 -33 55q0 48 44.5 79.5t114.5 31.5t117.5 -33 t70 -84t22.5 -104q0 -46 -16 -98t-48 -91h165zM197 407h-2h2zM186 779l59 6q9 -20 25 -53.5t33 -67t29 -54.5l-46 -25q-7 12 -20 36.5t-27.5 52t-24.5 49.5q-11 -26 -24 -55.5t-24 -53t-16 -31.5l-45 19q5 10 16 32.5t24 50t24 53t17 41.5z" />
<glyph unicode="&#x6ef;" horiz-adv-x="396" d="M319 0h-99v-73q0 -31 -13 -66.5t-46 -62.5t-89 -27q-51 0 -79 18.5t-38 33.5q29 -8 62 -8q39 0 65 16t37.5 39t11.5 45l-1 523q0 42 45 42q19 0 32 -9.5t13 -31.5v-369h99v-70zM128 673l59 6q9 -20 25 -53.5t33 -67t29 -54.5l-46 -25q-7 12 -20 36.5t-27.5 52t-24.5 49.5 q-11 -26 -24 -55.5t-24 -53t-16 -31.5l-45 19q5 10 16 32.5t24 50t24 53t17 41.5z" />
<glyph unicode="&#x6fa;" horiz-adv-x="784" d="M822.5 418q28.5 -62 28.5 -148q0 -110 -47 -190t-160 -80h-11q-55 0 -89 12.5t-66 45.5q-20 -24 -48.5 -41t-58.5 -17h-94q-64 0 -109 36q-44 -36 -99 -36h-69v70h38q40 0 59.5 11t25 27.5t5.5 42.5v228q0 46 45 46q22 0 33.5 -10.5t11.5 -35.5v-202q0 -58 7 -82.5 t35 -24.5h76q51 0 71 19.5t20 55.5v257q0 22 12.5 34.5t35.5 12.5q42 0 42 -47v-201q0 -51 15.5 -91t57.5 -40h61q69 0 89.5 58.5t20.5 111.5q0 63 -16.5 119.5t-68.5 100.5q22 20 55 20q63 0 91.5 -62zM323.5 567.5q15.5 -15.5 15.5 -37.5t-15.5 -37.5t-37.5 -15.5 t-37.5 15.5t-15.5 37.5t15.5 37.5t37.5 15.5t37.5 -15.5zM253.5 447q16.5 -17 16.5 -40q0 -24 -16.5 -41t-40.5 -17q-23 0 -40 17t-17 41q0 23 17 40t40 17q24 0 40.5 -17zM399.5 447q16.5 -17 16.5 -40q0 -24 -16.5 -41t-40.5 -17q-23 0 -40 17t-17 41q0 23 17 40t40 17 q24 0 40.5 -17zM269 -101q-17 17 -17 40q0 24 17 41t42 17q23 0 40 -17t17 -41q0 -23 -17 -40t-40 -17q-25 0 -42 17z" />
<glyph unicode="&#x6fa;" horiz-adv-x="850" d="M999 70v-70h-158q-33 0 -54.5 6.5t-39.5 19.5q-44 -26 -103 -26h-11q-55 0 -89 12.5t-66 45.5q-20 -24 -48.5 -41t-58.5 -17h-94q-64 0 -109 36q-44 -36 -99 -36h-69v70h38q40 0 59.5 11t25 27.5t5.5 42.5v228q0 46 45 46q22 0 33.5 -10.5t11.5 -35.5v-202q0 -58 7 -82.5 t35 -24.5h76q51 0 71 19.5t20 55.5v257q0 22 12.5 34.5t35.5 12.5q42 0 42 -47v-201q0 -51 15.5 -91t57.5 -40h61q69 0 89.5 58.5t20.5 111.5q0 63 -16.5 119.5t-68.5 100.5q22 20 55 20q63 0 91.5 -62t28.5 -148q0 -128 -55 -200h203zM323.5 567.5q15.5 -15.5 15.5 -37.5 t-15.5 -37.5t-37.5 -15.5t-37.5 15.5t-15.5 37.5t15.5 37.5t37.5 15.5t37.5 -15.5zM253.5 447q16.5 -17 16.5 -40q0 -24 -16.5 -41t-40.5 -17q-23 0 -40 17t-17 41q0 23 17 40t40 17q24 0 40.5 -17zM399.5 447q16.5 -17 16.5 -40q0 -24 -16.5 -41t-40.5 -17q-23 0 -40 17 t-17 41q0 23 17 40t40 17q24 0 40.5 -17zM269 -101q-17 17 -17 40q0 24 17 41t42 17q23 0 40 -17t17 -41q0 -23 -17 -40t-40 -17q-25 0 -42 17z" />
<glyph unicode="&#x6fa;" horiz-adv-x="1269" d="M1355 70v-70h-153q-33 0 -54.5 6.5t-39.5 19.5q-44 -26 -102 -26h-12q-55 0 -89 12.5t-66 45.5q-20 -24 -48.5 -41t-58.5 -17h-78q-43 0 -74 20q-3 -109 -35 -169t-85 -82.5t-129 -22.5q-108 0 -187 58.5t-79 235.5q0 96 24.5 146.5t53 66t51.5 15.5q15 0 30 -6t24 -14 q-36 -29 -66 -94.5t-30 -147.5q0 -108 49.5 -154t128.5 -46q74 0 109 34t43 81.5t8 119.5v338q0 46 45 46t45 -46v-202v-1q0 -57 7 -81.5t35 -24.5h76q51 0 71 19.5t20 55.5v257q0 47 44 47q45 0 45 -47v-201q0 -50 16 -90.5t58 -40.5h61q68 0 89 60t21 116q0 142 -85 214 q22 20 55 20q63 0 91.5 -62t28.5 -148q0 -56 -13 -108.5t-42 -91.5h197zM716.5 567.5q15.5 -15.5 15.5 -37.5t-15.5 -37.5t-37.5 -15.5t-37.5 15.5t-15.5 37.5t15.5 37.5t37.5 15.5t37.5 -15.5zM646.5 447q16.5 -17 16.5 -40q0 -24 -16.5 -41t-40.5 -17q-23 0 -40 17t-17 41 q0 23 17 40t40 17q24 0 40.5 -17zM792.5 447q16.5 -17 16.5 -40q0 -24 -16.5 -41t-40.5 -17q-23 0 -40 17t-17 41q0 23 17 40t40 17q24 0 40.5 -17zM731 -96q-17 17 -17 40q0 24 17 41t42 17q23 0 40 -17t17 -41q0 -23 -17 -40t-40 -17q-25 0 -42 17z" />
<glyph unicode="&#x6fb;" horiz-adv-x="903" d="M519 457q61 -23 102 -78t41 -144q0 -84 -42.5 -159.5t-162.5 -75.5h-457v70h98v243q0 25 -15.5 51t-34.5 42q9 8 25 15t34 7q40 0 62 -33q32 33 92 59t132 26q65 0 126 -23zM540 125q32 55 32 111q0 62 -31 101t-76.5 56t-93.5 17q-61 0 -112.5 -24.5t-71.5 -51.5 q1 -6 1 -19v-245h230q90 0 122 55zM355 562q-17 17 -17 40q0 24 17 41t42 17q23 0 40 -17t17 -41q0 -23 -17 -40t-40 -17q-25 0 -42 17zM367 -114q-17 17 -17 40q0 24 17 41t42 17q23 0 40 -17t17 -41q0 -23 -17 -40t-40 -17q-25 0 -42 17z" />
<glyph unicode="&#x6fb;" horiz-adv-x="949" d="M772 70v-70h-118q-54 0 -92 24q-43 -24 -105 -24h-457v70h98v243q0 25 -15.5 51t-34.5 42q9 8 25 15t34 7q40 0 62 -33q32 33 92 59t132 26q65 0 126 -23t102 -78t41 -144q0 -40 -10 -84.5t-37 -80.5h157zM540 125q32 55 32 111q0 62 -31 101t-76.5 56t-93.5 17 q-61 0 -112.5 -24.5t-71.5 -51.5q1 -6 1 -19v-245h230q90 0 122 55zM355 562q-17 17 -17 40q0 24 17 41t42 17q23 0 40 -17t17 -41q0 -23 -17 -40t-40 -17q-25 0 -42 17zM367 -114q-17 17 -17 40q0 24 17 41t42 17q23 0 40 -17t17 -41q0 -23 -17 -40t-40 -17q-25 0 -42 17z " />
<glyph unicode="&#x6fb;" horiz-adv-x="1352" d="M1115 70v-70h-85q-50 0 -85 20q-38 -20 -96 -20h-270q-6 -101 -38.5 -156.5t-84.5 -76.5t-125 -21q-108 0 -187 58.5t-79 235.5q0 96 24.5 146.5t53 66t51.5 15.5q15 0 30 -6t24 -14q-36 -29 -66 -94.5t-30 -147.5q0 -108 49.5 -154t128.5 -46q74 0 109 34t43 81.5 t8 119.5v272q0 25 -15.5 51t-34.5 42q9 8 25 15t34 7q40 0 62 -33q32 33 92 59t132 26q65 0 126 -23t102 -78t41 -144q0 -40 -10 -84.5t-37 -80.5h108zM932 125q32 55 32 111q0 62 -31 101t-76.5 56t-93.5 17q-61 0 -112.5 -24.5t-71.5 -51.5q1 -6 1 -19v-245h230 q90 0 122 55zM701 562q-17 17 -17 40q0 24 17 41t42 17q23 0 40 -17t17 -41q0 -23 -17 -40t-40 -17q-25 0 -42 17zM787 -109q-17 17 -17 40q0 24 17 41t42 17q23 0 40 -17t17 -41q0 -23 -17 -40t-40 -17q-25 0 -42 17z" />
<glyph unicode="&#x6fc;" horiz-adv-x="503" d="M442.5 59q6.5 -11 6.5 -24t-6.5 -24t-20.5 -11h-141q-33 0 -54.5 6.5t-39.5 19.5q-36 -23 -83 -26h-104v71h139q-28 25 -50.5 68.5t-22.5 111.5q0 97 53.5 163t165.5 66q66 0 107.5 -25.5t41.5 -79.5q0 -31 -14.5 -46t-37.5 -15q-12 0 -27 5q0 42 -19 60.5t-60 30.5 q-52 0 -86.5 -41t-34.5 -109q0 -85 50.5 -137.5t153.5 -52.5h63q14 0 20.5 -11zM304 407l-6 1zM216 562q-17 17 -17 40q0 24 17 41t42 17q23 0 40 -17t17 -41q0 -23 -17 -40t-40 -17q-25 0 -42 17zM162 -101q-17 17 -17 40q0 24 17 41t42 17q23 0 40 -17t17 -41 q0 -23 -17 -40t-40 -17q-25 0 -42 17z" />
<glyph unicode="&#x6fc;" horiz-adv-x="521" d="M571 70v-70h-144q-32 0 -53 6q-22 -6 -48 -6h-326v70h248l-222 302q8 25 35.5 50t74 41.5t109.5 16.5q121 0 196.5 -59t75.5 -168q0 -40 -12.5 -91.5t-41.5 -91.5h108zM121 367l213 -288q51 19 72.5 71.5t21.5 101.5q0 76 -48.5 116.5t-133.5 40.5q-84 0 -125 -42z M243 562q-17 17 -17 40q0 24 17 41t42 17q23 0 40 -17t17 -41q0 -23 -17 -40t-40 -17q-25 0 -42 17zM134 -101q-17 17 -17 40q0 24 17 41t42 17q23 0 40 -17t17 -41q0 -23 -17 -40t-40 -17q-25 0 -42 17z" />
<glyph unicode="&#x6fc;" horiz-adv-x="531" d="M617 70v-70h-144q-32 0 -52 6q-22 -6 -49 -6h-89h-77q0 -83 19 -146t67 -103q-7 -6 -24.5 -11.5t-34.5 -5.5q-43 0 -69 37t-36.5 86t-10.5 88q0 125 122 125h55l-222 302q8 25 35.5 50t74 41.5t109.5 16.5q121 0 196.5 -59t75.5 -168q0 -43 -12 -93.5t-40 -89.5h106z M167 367l214 -289q51 19 72 69.5t21 101.5q0 79 -48.5 119.5t-133.5 40.5q-84 0 -125 -42zM186 -257q-17 17 -17 40q0 24 17 41t42 17q23 0 40 -17t17 -41q0 -23 -17 -40t-40 -17q-25 0 -42 17zM178 445q-17 17 -17 40q0 24 17 41t42 17q23 0 40 -17t17 -41q0 -23 -17 -40 t-40 -17q-25 0 -42 17z" />
<glyph unicode="&#x6ff;" horiz-adv-x="574" d="M380 556.5q80 -24.5 135.5 -90t55.5 -178.5q0 -78 -28 -144t-82.5 -105t-129.5 -39q-37 0 -87.5 7t-65.5 19q-61 -26 -139 -26h-39v70h15q2 0 16.5 -4t36.5 -4q17 0 37 4q-28 26 -46 71.5t-18 104.5q0 80 34 131t101 51q66 0 100.5 -51t34.5 -130q0 -60 -19 -106.5 t-49 -69.5q25 -5 46 -5q60 0 103.5 29.5t66 79t22.5 109.5q0 86 -44.5 136.5t-108 70.5t-129.5 20h-47q-43 0 -61.5 22t-18.5 70q18 -18 39 -22t47 -3l62 3q80 4 160 -20.5zM134 318q-14 -36 -14 -81q0 -87 56 -136q56 49 56 136q0 45 -14 81t-42 36t-42 -36zM134 79l-5 -6 q8 5 5 6zM203 779l59 6q9 -20 25 -53.5t33 -67t29 -54.5l-46 -25q-7 12 -20 36.5t-27.5 52t-24.5 49.5q-11 -26 -24 -55.5t-24 -53t-16 -31.5l-45 19q5 10 16 32.5t24 50t24 53t17 41.5z" />
<glyph unicode="&#x6ff;" horiz-adv-x="507" d="M638 70v-70h-109q-57 0 -92 25q-48 -25 -106 -25q-37 0 -87.5 7t-65.5 19q-61 -26 -139 -26h-39v70h15q2 0 16.5 -4t36.5 -4q17 0 37 4q-28 26 -46 71.5t-18 104.5q0 80 34 131t101 51q66 0 100.5 -51t34.5 -130q0 -60 -19 -106.5t-49 -69.5q25 -5 46 -5q60 0 103.5 29.5 t66 79t22.5 109.5q0 86 -44.5 136.5t-108 70.5t-129.5 20h-47q-43 0 -61.5 22t-18.5 70q18 -18 39 -22t47 -3l62 3q80 4 160 -20.5t135.5 -90t55.5 -178.5q0 -64 -19.5 -121t-55.5 -97h142zM134 318q-14 -36 -14 -81q0 -87 56 -136q56 49 56 136q0 45 -14 81t-42 36t-42 -36 zM134 79l-5 -6q8 5 5 6zM247 738l59 6q9 -20 25 -53.5t33 -67t29 -54.5l-46 -25q-7 12 -20 36.5t-27.5 52t-24.5 49.5q-11 -26 -24 -55.5t-24 -53t-16 -31.5l-45 19q5 10 16 32.5t24 50t24 53t17 41.5z" />
<glyph unicode="&#x6ff;" horiz-adv-x="614" d="M703 70v-70h-109q-57 0 -92 25q-48 -25 -106 -25q-37 0 -87.5 7t-65.5 19q-61 -26 -139 -26h-39v70h15q2 0 16.5 -4t36.5 -4q17 0 37 4q-28 26 -46 71.5t-18 104.5q0 80 34 131t101 51q66 0 100.5 -51t34.5 -130q0 -60 -19 -106.5t-49 -69.5q25 -5 46 -5q60 0 103.5 29.5 t66 79t22.5 109.5q0 86 -44.5 136.5t-108 70.5t-129.5 20h-47q-43 0 -61.5 22t-18.5 70q18 -18 39 -22t47 -3l62 3q80 4 160 -20.5t135.5 -90t55.5 -178.5q0 -64 -19.5 -121t-55.5 -97h142zM199 318q-14 -36 -14 -81q0 -87 56 -136q56 49 56 136q0 45 -14 81t-42 36t-42 -36 zM199 79l-5 -6q8 5 5 6zM365 738l59 6q9 -20 25 -53.5t33 -67t29 -54.5l-46 -25q-7 12 -20 36.5t-27.5 52t-24.5 49.5q-11 -26 -24 -55.5t-24 -53t-16 -31.5l-45 19q5 10 16 32.5t24 50t24 53t17 41.5z" />
<glyph unicode="&#x671;" horiz-adv-x="235" arabic-form="isolated" d="M103 731q-22 0 -52.5 2t-57.5 5.5t-41 5.5l7 51q9 -1 23 -3t31 -3q14 30 34.5 60t48 50.5t64.5 20.5q32 0 60.5 -20t28.5 -67q0 -24 -12 -47.5t-43.5 -39t-90.5 -15.5zM156 866q-25 0 -48 -23t-42 -59q21 -1 37 -1q57 0 74.5 13t17.5 32q0 20 -12 29t-27 9zM89 0l-17 644 h81l17 -644h-81z" />
<glyph unicode="&#x671;" horiz-adv-x="315" arabic-form="final" d="M148.5 49q-43.5 49 -43.5 146v256q0 43 -17 76t-38 47q6 8 25.5 16.5t40.5 8.5q33 0 56 -25.5t23 -85.5v-300q0 -46 23 -82t66 -36h31v-70h-58q-65 0 -108.5 49zM7 656q0 18 8 18h25q0 9 10.5 34t35 46.5t62.5 21.5q39 0 57.5 -23t18.5 -57q0 -27 -12 -43t-33 -16h-164 q-8 0 -8 19zM153 674q21 0 21 28q0 16 -9 26.5t-29 10.5q-21 0 -38 -11t-26.5 -26.5t-9.5 -27.5h91z" />
<glyph unicode="&#x67b;" horiz-adv-x="993" arabic-form="isolated" d="M96 39q-31 39 -31 102v243q0 43 45 43t45 -44v-213q0 -56 17.5 -78t65.5 -22h241q69 0 89.5 58.5t20.5 111.5q0 63 -16.5 119.5t-68.5 100.5q22 20 55 20q63 0 91.5 -62t28.5 -148q0 -110 -47 -190t-160 -80h-277q-68 0 -99 39zM369 -124q-17 17 -17 40q0 24 17 41t40 17 q25 0 42 -17t17 -41q0 -23 -17 -40t-42 -17q-23 0 -40 17zM369 -310q-17 17 -17 41q0 23 17 40t40 17q25 0 42 -17t17 -40q0 -24 -17 -41t-42 -17q-23 0 -40 17z" />
<glyph unicode="&#x67b;" horiz-adv-x="1093" arabic-form="final" d="M799 70v-70h-130q-33 0 -54.5 6.5t-39.5 19.5q-44 -26 -103 -26h-277q-68 0 -99 39t-31 102v243q0 43 45 43t45 -44v-213q0 -56 17.5 -78t65.5 -22h241q69 0 89.5 58.5t20.5 111.5q0 63 -16.5 119.5t-68.5 100.5q22 20 55 20q63 0 91.5 -62t28.5 -148q0 -128 -55 -200 h175zM346 -124q-17 17 -17 40q0 24 17 41t40 17q25 0 42 -17t17 -41q0 -23 -17 -40t-42 -17q-23 0 -40 17zM346 -310q-17 17 -17 41q0 23 17 40t40 17q25 0 42 -17t17 -40q0 -24 -17 -41t-42 -17q-23 0 -40 17z" />
<glyph unicode="&#x67b;" horiz-adv-x="269" arabic-form="initial" d="M0 70h67q69 0 89.5 56t20.5 114q0 63 -16.5 119.5t-68.5 100.5q22 20 55 20q63 0 91.5 -62t28.5 -148q0 -110 -47 -190t-160 -80h-60v70zM-10 -104q-17 17 -17 40q0 24 17 41t40 17q25 0 42 -17t17 -41q0 -23 -17 -40t-42 -17q-23 0 -40 17zM-10 -290q-17 17 -17 41 q0 23 17 40t40 17q25 0 42 -17t17 -40q0 -24 -17 -41t-42 -17q-23 0 -40 17z" />
<glyph unicode="&#x67b;" horiz-adv-x="343" arabic-form="medial" d="M329 70v-70h-95q-33 0 -54.5 6.5t-39.5 19.5q-36 -23 -83 -26h-57v70h57q30 1 57 12v352q0 46 45 46t45 -45v-283q0 -36 4.5 -59t21.5 -23h99zM53 -104q-17 17 -17 40q0 24 17 41t40 17q25 0 42 -17t17 -41q0 -23 -17 -40t-42 -17q-23 0 -40 17zM53 -290q-17 17 -17 41 q0 23 17 40t40 17q25 0 42 -17t17 -40q0 -24 -17 -41t-42 -17q-23 0 -40 17z" />
<glyph unicode="&#x67e;" horiz-adv-x="993" arabic-form="isolated" d="M96 39q-31 39 -31 102v243q0 43 45 43t45 -44v-213q0 -56 17.5 -78t65.5 -22h241q69 0 89.5 58.5t20.5 111.5q0 63 -16.5 119.5t-68.5 100.5q22 20 55 20q63 0 91.5 -62t28.5 -148q0 -110 -47 -190t-160 -80h-277q-68 0 -99 39zM237 -178q-17 17 -17 40q0 24 17 41t40 17 q24 0 40.5 -17t16.5 -41q0 -23 -16.5 -40t-40.5 -17q-23 0 -40 17zM383 -178q-17 17 -17 40q0 24 17 41t40 17q24 0 40.5 -17t16.5 -41q0 -23 -16.5 -40t-40.5 -17q-23 0 -40 17zM312.5 -298.5q-15.5 15.5 -15.5 37.5t15.5 37.5t37.5 15.5t37.5 -15.5t15.5 -37.5 t-15.5 -37.5t-37.5 -15.5t-37.5 15.5z" />
<glyph unicode="&#x67e;" horiz-adv-x="799" arabic-form="final" d="M799 70v-70h-130q-33 0 -54.5 6.5t-39.5 19.5q-44 -26 -103 -26h-277q-68 0 -99 39t-31 102v243q0 43 45 43t45 -44v-213q0 -56 17.5 -78t65.5 -22h241q69 0 89.5 58.5t20.5 111.5q0 63 -16.5 119.5t-68.5 100.5q22 20 55 20q63 0 91.5 -62t28.5 -148q0 -128 -55 -200 h175zM227 -178q-17 17 -17 40q0 24 17 41t40 17q24 0 40.5 -17t16.5 -41q0 -23 -16.5 -40t-40.5 -17q-23 0 -40 17zM373 -178q-17 17 -17 40q0 24 17 41t40 17q24 0 40.5 -17t16.5 -41q0 -23 -16.5 -40t-40.5 -17q-23 0 -40 17zM302.5 -298.5q-15.5 15.5 -15.5 37.5 t15.5 37.5t37.5 15.5t37.5 -15.5t15.5 -37.5t-15.5 -37.5t-37.5 -15.5t-37.5 15.5z" />
<glyph unicode="&#x67e;" horiz-adv-x="332" arabic-form="initial" d="M0 70h67q69 0 89.5 56t20.5 114q0 63 -16.5 119.5t-68.5 100.5q22 20 55 20q63 0 91.5 -62t28.5 -148q0 -110 -47 -190t-160 -80h-60v70zM34 -178q-17 17 -17 40q0 24 17 41t40 17q24 0 40.5 -17t16.5 -41q0 -23 -16.5 -40t-40.5 -17q-23 0 -40 17zM180 -178 q-17 17 -17 40q0 24 17 41t40 17q24 0 40.5 -17t16.5 -41q0 -23 -16.5 -40t-40.5 -17q-23 0 -40 17zM109.5 -298.5q-15.5 15.5 -15.5 37.5t15.5 37.5t37.5 15.5t37.5 -15.5t15.5 -37.5t-15.5 -37.5t-37.5 -15.5t-37.5 15.5z" />
<glyph unicode="&#x67e;" horiz-adv-x="329" arabic-form="medial" d="M329 70v-70h-95q-33 0 -54.5 6.5t-39.5 19.5q-36 -23 -83 -26h-57v70h57q30 1 57 12v352q0 46 45 46t45 -45v-283q0 -36 4.5 -59t21.5 -23h99zM46 -178q-17 17 -17 40q0 24 17 41t40 17q24 0 40.5 -17t16.5 -41q0 -23 -16.5 -40t-40.5 -17q-23 0 -40 17zM192 -178 q-17 17 -17 40q0 24 17 41t40 17q24 0 40.5 -17t16.5 -41q0 -23 -16.5 -40t-40.5 -17q-23 0 -40 17zM121.5 -298.5q-15.5 15.5 -15.5 37.5t15.5 37.5t37.5 15.5t37.5 -15.5t15.5 -37.5t-15.5 -37.5t-37.5 -15.5t-37.5 15.5z" />
<glyph unicode="&#x680;" horiz-adv-x="993" arabic-form="isolated" d="M96 39q-31 39 -31 102v243q0 43 45 43t45 -44v-213q0 -56 17.5 -78t65.5 -22h241q69 0 89.5 58.5t20.5 111.5q0 63 -16.5 119.5t-68.5 100.5q22 20 55 20q63 0 91.5 -62t28.5 -148q0 -110 -47 -190t-160 -80h-277q-68 0 -99 39zM558 -212q-21 0 -35.5 14.5t-14.5 34.5 t14.5 35t35.5 15q20 0 34.5 -15t14.5 -35t-14.5 -34.5t-34.5 -14.5zM422 -212q-21 0 -35.5 14.5t-14.5 34.5t14.5 35t35.5 15q20 0 34.5 -15t14.5 -35t-14.5 -34.5t-34.5 -14.5zM558 -337q-21 0 -35.5 14.5t-14.5 34.5t14.5 35t35.5 15q20 0 34.5 -15t14.5 -35t-14.5 -34.5 t-34.5 -14.5zM422 -337q-21 0 -35.5 14.5t-14.5 34.5t14.5 35t35.5 15q20 0 34.5 -15t14.5 -35t-14.5 -34.5t-34.5 -14.5z" />
<glyph unicode="&#x680;" horiz-adv-x="1093" arabic-form="final" d="M799 70v-70h-130q-33 0 -54.5 6.5t-39.5 19.5q-44 -26 -103 -26h-277q-68 0 -99 39t-31 102v243q0 43 45 43t45 -44v-213q0 -56 17.5 -78t65.5 -22h241q69 0 89.5 58.5t20.5 111.5q0 63 -16.5 119.5t-68.5 100.5q22 20 55 20q63 0 91.5 -62t28.5 -148q0 -128 -55 -200 h175zM535 -212q-21 0 -35.5 14.5t-14.5 34.5t14.5 35t35.5 15q20 0 34.5 -15t14.5 -35t-14.5 -34.5t-34.5 -14.5zM399 -212q-21 0 -35.5 14.5t-14.5 34.5t14.5 35t35.5 15q20 0 34.5 -15t14.5 -35t-14.5 -34.5t-34.5 -14.5zM535 -337q-21 0 -35.5 14.5t-14.5 34.5t14.5 35 t35.5 15q20 0 34.5 -15t14.5 -35t-14.5 -34.5t-34.5 -14.5zM399 -337q-21 0 -35.5 14.5t-14.5 34.5t14.5 35t35.5 15q20 0 34.5 -15t14.5 -35t-14.5 -34.5t-34.5 -14.5z" />
<glyph unicode="&#x680;" horiz-adv-x="299" arabic-form="initial" d="M0 -5l10 82q59 0 92 4.5t47 23t14 58.5q0 38 -17.5 95.5t-39.5 114.5l81 30q13 -32 24.5 -73t19.5 -81t8 -70q0 -100 -56 -142t-183 -42zM185 -192q-21 0 -35.5 14.5t-14.5 34.5t14.5 35t35.5 15q20 0 34.5 -15t14.5 -35t-14.5 -34.5t-34.5 -14.5zM49 -192 q-21 0 -35.5 14.5t-14.5 34.5t14.5 35t35.5 15q20 0 34.5 -15t14.5 -35t-14.5 -34.5t-34.5 -14.5zM185 -317q-21 0 -35.5 14.5t-14.5 34.5t14.5 35t35.5 15q20 0 34.5 -15t14.5 -35t-14.5 -34.5t-34.5 -14.5zM49 -317q-21 0 -35.5 14.5t-14.5 34.5t14.5 35t35.5 15 q20 0 34.5 -15t14.5 -35t-14.5 -34.5t-34.5 -14.5z" />
<glyph unicode="&#x680;" horiz-adv-x="373" arabic-form="medial" d="M0 -5l10 82q50 0 78 7.5t42.5 29t23.5 62.5t22 107l78 -15q-6 -27 -13.5 -62t-7.5 -59q0 -15 2 -28t15 -22t44 -14.5t89 -5.5q21 0 30.5 -11.5t9.5 -27.5t-14 -29.5t-36 -13.5q-65 0 -101.5 7.5t-54 22t-25.5 36.5q-29 -41 -71.5 -53.5t-120.5 -12.5zM252 -192 q-21 0 -35.5 14.5t-14.5 34.5t14.5 35t35.5 15q20 0 34.5 -15t14.5 -35t-14.5 -34.5t-34.5 -14.5zM116 -192q-21 0 -35.5 14.5t-14.5 34.5t14.5 35t35.5 15q20 0 34.5 -15t14.5 -35t-14.5 -34.5t-34.5 -14.5zM252 -317q-21 0 -35.5 14.5t-14.5 34.5t14.5 35t35.5 15 q20 0 34.5 -15t14.5 -35t-14.5 -34.5t-34.5 -14.5zM116 -317q-21 0 -35.5 14.5t-14.5 34.5t14.5 35t35.5 15q20 0 34.5 -15t14.5 -35t-14.5 -34.5t-34.5 -14.5z" />
<glyph unicode="&#x67a;" horiz-adv-x="993" arabic-form="isolated" d="M96 39q-31 39 -31 102v243q0 43 45 43t45 -44v-213q0 -56 17.5 -78t65.5 -22h241q69 0 89.5 58.5t20.5 111.5q0 63 -16.5 119.5t-68.5 100.5q22 20 55 20q63 0 91.5 -62t28.5 -148q0 -110 -47 -190t-160 -80h-277q-68 0 -99 39zM370 518q-17 17 -17 40q0 24 17 41t40 17 q25 0 42 -17t17 -41q0 -23 -17 -40t-42 -17q-23 0 -40 17zM370 332q-17 17 -17 41q0 23 17 40t40 17q25 0 42 -17t17 -40q0 -24 -17 -41t-42 -17q-23 0 -40 17z" />
<glyph unicode="&#x67a;" horiz-adv-x="1093" arabic-form="final" d="M799 70v-70h-130q-33 0 -54.5 6.5t-39.5 19.5q-44 -26 -103 -26h-277q-68 0 -99 39t-31 102v243q0 43 45 43t45 -44v-213q0 -56 17.5 -78t65.5 -22h241q69 0 89.5 58.5t20.5 111.5q0 63 -16.5 119.5t-68.5 100.5q22 20 55 20q63 0 91.5 -62t28.5 -148q0 -128 -55 -200 h175zM371 518q-17 17 -17 40q0 24 17 41t40 17q25 0 42 -17t17 -41q0 -23 -17 -40t-42 -17q-23 0 -40 17zM371 332q-17 17 -17 41q0 23 17 40t40 17q25 0 42 -17t17 -40q0 -24 -17 -41t-42 -17q-23 0 -40 17z" />
<glyph unicode="&#x67a;" horiz-adv-x="269" arabic-form="initial" d="M0 70h67q69 0 89.5 56t20.5 114q0 63 -16.5 119.5t-68.5 100.5q22 20 55 20q63 0 91.5 -62t28.5 -148q0 -110 -47 -190t-160 -80h-60v70zM11 624q-17 17 -17 40q0 24 17 41t40 17q25 0 42 -17t17 -41q0 -23 -17 -40t-42 -17q-23 0 -40 17zM11 438q-17 17 -17 41 q0 23 17 40t40 17q25 0 42 -17t17 -40q0 -24 -17 -41t-42 -17q-23 0 -40 17z" />
<glyph unicode="&#x67a;" horiz-adv-x="343" arabic-form="medial" d="M329 70v-70h-95q-33 0 -54.5 6.5t-39.5 19.5q-36 -23 -83 -26h-57v70h57q30 1 57 12v352q0 46 45 46t45 -45v-283q0 -36 4.5 -59t21.5 -23h99zM70 503q-17 17 -17 40q0 24 17 41t40 17q25 0 42 -17t17 -41q0 -23 -17 -40t-42 -17q-23 0 -40 17zM70 317q-17 17 -17 41 q0 23 17 40t40 17q25 0 42 -17t17 -40q0 -24 -17 -41t-42 -17q-23 0 -40 17z" />
<glyph unicode="&#x67f;" horiz-adv-x="993" arabic-form="isolated" d="M96 39q-31 39 -31 102v243q0 43 45 43t45 -44v-213q0 -56 17.5 -78t65.5 -22h241q69 0 89.5 58.5t20.5 111.5q0 63 -16.5 119.5t-68.5 100.5q22 20 55 20q63 0 91.5 -62t28.5 -148q0 -110 -47 -190t-160 -80h-277q-68 0 -99 39zM421 526q-21 0 -35.5 14.5t-14.5 34.5 t14.5 35t35.5 15q20 0 34.5 -15t14.5 -35t-14.5 -34.5t-34.5 -14.5zM557 526q-21 0 -35.5 14.5t-14.5 34.5t14.5 35t35.5 15q20 0 34.5 -15t14.5 -35t-14.5 -34.5t-34.5 -14.5zM421 401q-21 0 -35.5 14.5t-14.5 34.5t14.5 35t35.5 15q20 0 34.5 -15t14.5 -35t-14.5 -34.5 t-34.5 -14.5zM557 401q-21 0 -35.5 14.5t-14.5 34.5t14.5 35t35.5 15q20 0 34.5 -15t14.5 -35t-14.5 -34.5t-34.5 -14.5z" />
<glyph unicode="&#x67f;" horiz-adv-x="1093" arabic-form="final" d="M799 70v-70h-130q-33 0 -54.5 6.5t-39.5 19.5q-44 -26 -103 -26h-277q-68 0 -99 39t-31 102v243q0 43 45 43t45 -44v-213q0 -56 17.5 -78t65.5 -22h241q69 0 89.5 58.5t20.5 111.5q0 63 -16.5 119.5t-68.5 100.5q22 20 55 20q63 0 91.5 -62t28.5 -148q0 -128 -55 -200 h175zM422 526q-21 0 -35.5 14.5t-14.5 34.5t14.5 35t35.5 15q20 0 34.5 -15t14.5 -35t-14.5 -34.5t-34.5 -14.5zM558 526q-21 0 -35.5 14.5t-14.5 34.5t14.5 35t35.5 15q20 0 34.5 -15t14.5 -35t-14.5 -34.5t-34.5 -14.5zM422 401q-21 0 -35.5 14.5t-14.5 34.5t14.5 35 t35.5 15q20 0 34.5 -15t14.5 -35t-14.5 -34.5t-34.5 -14.5zM558 401q-21 0 -35.5 14.5t-14.5 34.5t14.5 35t35.5 15q20 0 34.5 -15t14.5 -35t-14.5 -34.5t-34.5 -14.5z" />
<glyph unicode="&#x67f;" horiz-adv-x="299" arabic-form="initial" d="M82 632q-21 0 -35.5 14.5t-14.5 34.5t14.5 35t35.5 15q20 0 34.5 -15t14.5 -35t-14.5 -34.5t-34.5 -14.5zM218 632q-21 0 -35.5 14.5t-14.5 34.5t14.5 35t35.5 15q20 0 34.5 -15t14.5 -35t-14.5 -34.5t-34.5 -14.5zM82 507q-21 0 -35.5 14.5t-14.5 34.5t14.5 35t35.5 15 q20 0 34.5 -15t14.5 -35t-14.5 -34.5t-34.5 -14.5zM218 507q-21 0 -35.5 14.5t-14.5 34.5t14.5 35t35.5 15q20 0 34.5 -15t14.5 -35t-14.5 -34.5t-34.5 -14.5zM0 -5l10 82q59 0 92 4.5t47 23t14 58.5q0 38 -17.5 95.5t-39.5 114.5l81 30q13 -32 24.5 -73t19.5 -81t8 -70 q0 -100 -56 -142t-183 -42z" />
<glyph unicode="&#x67f;" horiz-adv-x="373" arabic-form="medial" d="M131 511q-21 0 -35.5 14.5t-14.5 34.5t14.5 35t35.5 15q20 0 34.5 -15t14.5 -35t-14.5 -34.5t-34.5 -14.5zM267 511q-21 0 -35.5 14.5t-14.5 34.5t14.5 35t35.5 15q20 0 34.5 -15t14.5 -35t-14.5 -34.5t-34.5 -14.5zM131 386q-21 0 -35.5 14.5t-14.5 34.5t14.5 35 t35.5 15q20 0 34.5 -15t14.5 -35t-14.5 -34.5t-34.5 -14.5zM267 386q-21 0 -35.5 14.5t-14.5 34.5t14.5 35t35.5 15q20 0 34.5 -15t14.5 -35t-14.5 -34.5t-34.5 -14.5zM0 -5l10 82q50 0 78 7.5t42.5 29t23.5 62.5t22 107l78 -15q-6 -27 -13.5 -62t-7.5 -59q0 -15 2 -28 t15 -22t44 -14.5t89 -5.5q21 0 30.5 -11.5t9.5 -27.5t-14 -29.5t-36 -13.5q-65 0 -101.5 7.5t-54 22t-25.5 36.5q-29 -41 -71.5 -53.5t-120.5 -12.5z" />
<glyph unicode="&#x679;" horiz-adv-x="993" arabic-form="isolated" d="M96 39q-31 39 -31 102v243q0 43 45 43t45 -44v-213q0 -56 17.5 -78t65.5 -22h241q69 0 89.5 58.5t20.5 111.5q0 63 -16.5 119.5t-68.5 100.5q22 20 55 20q63 0 91.5 -62t28.5 -148q0 -110 -47 -190t-160 -80h-277q-68 0 -99 39zM245 519q0 18 8 18h16v127q0 17 -13 30 q1 2 6.5 4t10.5 2q9 0 16.5 -6.5t7.5 -20.5v-82q15 22 33.5 35t48.5 13q39 0 58 -23t19 -57q0 -27 -12 -43t-33 -16h-158q-8 0 -8 19zM385 537q10 0 15.5 7.5t5.5 20.5q0 16 -9 26.5t-29 10.5q-21 0 -38 -11t-27 -26.5t-10 -27.5h92z" />
<glyph unicode="&#x679;" horiz-adv-x="799" arabic-form="final" d="M799 70v-70h-130q-33 0 -54.5 6.5t-39.5 19.5q-44 -26 -103 -26h-277q-68 0 -99 39t-31 102v243q0 43 45 43t45 -44v-213q0 -56 17.5 -78t65.5 -22h241q69 0 89.5 58.5t20.5 111.5q0 63 -16.5 119.5t-68.5 100.5q22 20 55 20q63 0 91.5 -62t28.5 -148q0 -128 -55 -200 h175zM235 519q0 18 8 18h16v127q0 17 -13 30q1 2 6.5 4t10.5 2q9 0 16.5 -6.5t7.5 -20.5v-82q15 22 33.5 35t48.5 13q39 0 58 -23t19 -57q0 -27 -12 -43t-33 -16h-158q-8 0 -8 19zM375 537q10 0 15.5 7.5t5.5 20.5q0 16 -9 26.5t-29 10.5q-21 0 -38 -11t-27 -26.5t-10 -27.5 h92z" />
<glyph unicode="&#x679;" horiz-adv-x="332" arabic-form="initial" d="M0 70h67q69 0 89.5 56t20.5 114q0 63 -16.5 119.5t-68.5 100.5q22 20 55 20q63 0 91.5 -62t28.5 -148q0 -110 -47 -190t-160 -80h-60v70zM42 564q0 18 8 18h16v127q0 17 -13 30q1 2 6.5 4t10.5 2q9 0 16.5 -6.5t7.5 -20.5v-82q15 22 33.5 35t48.5 13q39 0 58 -23t19 -57 q0 -27 -12 -43t-33 -16h-158q-8 0 -8 19zM182 582q10 0 15.5 7.5t5.5 20.5q0 16 -9 26.5t-29 10.5q-21 0 -38 -11t-27 -26.5t-10 -27.5h92z" />
<glyph unicode="&#x679;" horiz-adv-x="329" arabic-form="medial" d="M329 70v-70h-95q-33 0 -54.5 6.5t-39.5 19.5q-36 -23 -83 -26h-57v70h57q30 1 57 12v352q0 46 45 46t45 -45v-283q0 -36 4.5 -59t21.5 -23h99zM54 564q0 18 8 18h16v127q0 17 -13 30q1 2 6.5 4t10.5 2q9 0 16.5 -6.5t7.5 -20.5v-82q15 22 33.5 35t48.5 13q39 0 58 -23 t19 -57q0 -27 -12 -43t-33 -16h-158q-8 0 -8 19zM194 582q10 0 15.5 7.5t5.5 20.5q0 16 -9 26.5t-29 10.5q-21 0 -38 -11t-27 -26.5t-10 -27.5h92z" />
<glyph unicode="&#x6a4;" horiz-adv-x="983" arabic-form="isolated" d="M812.5 463.5q39.5 -16.5 59.5 -62.5t20 -135v-125q0 -63 -31 -102t-99 -39h-503q-62 0 -105.5 28t-66 75t-22.5 104q0 68 28.5 117.5t73.5 49.5q26 0 49 -18q-26 -18 -43.5 -59.5t-17.5 -99.5q0 -57 19.5 -85t45.5 -35t59 -7h279q-26 38 -37 80t-11 99q0 98 24.5 148.5 t65.5 66.5t104 16q69 0 108.5 -16.5zM802 300q0 62 -23 86.5t-65 24.5q-114 0 -114 -160q0 -57 20 -119t81 -62h18q48 0 65.5 22t17.5 78v130zM760.5 763.5q15.5 -15.5 15.5 -37.5t-15.5 -37.5t-37.5 -15.5t-37.5 15.5t-15.5 37.5t15.5 37.5t37.5 15.5t37.5 -15.5z M690.5 643q16.5 -17 16.5 -40q0 -24 -16.5 -41t-40.5 -17q-23 0 -40 17t-17 41q0 23 17 40t40 17q24 0 40.5 -17zM836.5 643q16.5 -17 16.5 -40q0 -24 -16.5 -41t-40.5 -17q-23 0 -40 17t-17 41q0 23 17 40t40 17q24 0 40.5 -17z" />
<glyph unicode="&#x6a4;" horiz-adv-x="983" arabic-form="final" d="M983 70v-70h-100q-37 0 -64 10q-23 -10 -57 -10h-503q-62 0 -105.5 28t-66 75t-22.5 104q0 68 28.5 117.5t73.5 49.5q26 0 49 -18q-26 -18 -43.5 -59.5t-17.5 -99.5q0 -57 19.5 -85t45.5 -35t59 -7h279q-26 38 -37 80t-11 99q0 98 24.5 148.5t65.5 66.5t104 16 q69 0 108.5 -16.5t59.5 -62.5t20 -135v-125q0 -41 -13 -71h104zM784.5 92q17.5 22 17.5 78v130q0 62 -23 86.5t-65 24.5q-114 0 -114 -160q0 -57 20 -119t81 -62h18q48 0 65.5 22zM760.5 763.5q15.5 -15.5 15.5 -37.5t-15.5 -37.5t-37.5 -15.5t-37.5 15.5t-15.5 37.5 t15.5 37.5t37.5 15.5t37.5 -15.5zM690.5 643q16.5 -17 16.5 -40q0 -24 -16.5 -41t-40.5 -17q-23 0 -40 17t-17 41q0 23 17 40t40 17q24 0 40.5 -17zM836.5 643q16.5 -17 16.5 -40q0 -24 -16.5 -41t-40.5 -17q-23 0 -40 17t-17 41q0 23 17 40t40 17q24 0 40.5 -17z" />
<glyph unicode="&#x6a4;" horiz-adv-x="532" arabic-form="initial" d="M387.5 463.5q39.5 -16.5 59.5 -62.5t20 -135v-125q0 -63 -31 -102t-99 -39h-337v70h133q-26 38 -37 80t-11 99q0 98 24.5 148.5t65.5 66.5t104 16q69 0 108.5 -16.5zM377 300q0 62 -23 86.5t-65 24.5q-114 0 -114 -160q0 -62 19.5 -121.5t81.5 -59.5h18q48 0 65.5 22 t17.5 78v130zM335.5 763.5q15.5 -15.5 15.5 -37.5t-15.5 -37.5t-37.5 -15.5t-37.5 15.5t-15.5 37.5t15.5 37.5t37.5 15.5t37.5 -15.5zM265.5 643q16.5 -17 16.5 -40q0 -24 -16.5 -41t-40.5 -17q-23 0 -40 17t-17 41q0 23 17 40t40 17q24 0 40.5 -17zM411.5 643 q16.5 -17 16.5 -40q0 -24 -16.5 -41t-40.5 -17q-23 0 -40 17t-17 41q0 23 17 40t40 17q24 0 40.5 -17z" />
<glyph unicode="&#x6a4;" horiz-adv-x="558" arabic-form="medial" d="M558 70v-70h-100q-39 0 -65 9q-24 -9 -56 -9h-337v70h133q-26 38 -37 80t-11 99q0 98 24.5 148.5t65.5 66.5t104 16q69 0 108.5 -16.5t59.5 -62.5t20 -135v-125q0 -41 -13 -71h104zM359.5 92q17.5 22 17.5 78v130q0 62 -23 86.5t-65 24.5q-114 0 -114 -160 q0 -62 19.5 -121.5t81.5 -59.5h18q48 0 65.5 22zM335.5 763.5q15.5 -15.5 15.5 -37.5t-15.5 -37.5t-37.5 -15.5t-37.5 15.5t-15.5 37.5t15.5 37.5t37.5 15.5t37.5 -15.5zM265.5 643q16.5 -17 16.5 -40q0 -24 -16.5 -41t-40.5 -17q-23 0 -40 17t-17 41q0 23 17 40t40 17 q24 0 40.5 -17zM411.5 643q16.5 -17 16.5 -40q0 -24 -16.5 -41t-40.5 -17q-23 0 -40 17t-17 41q0 23 17 40t40 17q24 0 40.5 -17z" />
<glyph unicode="&#x6a6;" horiz-adv-x="983" arabic-form="isolated" d="M812.5 463.5q39.5 -16.5 59.5 -62.5t20 -135v-125q0 -63 -31 -102t-99 -39h-503q-62 0 -105.5 28t-66 75t-22.5 104q0 68 28.5 117.5t73.5 49.5q26 0 49 -18q-26 -18 -43.5 -59.5t-17.5 -99.5q0 -57 19.5 -85t45.5 -35t59 -7h279q-26 38 -37 80t-11 99q0 98 24.5 148.5 t65.5 66.5t104 16q69 0 108.5 -16.5zM802 300q0 62 -23 86.5t-65 24.5q-114 0 -114 -160q0 -57 20 -119t81 -62h18q48 0 65.5 22t17.5 78v130zM693 729q-21 0 -35.5 14.5t-14.5 34.5t14.5 35t35.5 15q20 0 34.5 -15t14.5 -35t-14.5 -34.5t-34.5 -14.5zM829 729 q-21 0 -35.5 14.5t-14.5 34.5t14.5 35t35.5 15q20 0 34.5 -15t14.5 -35t-14.5 -34.5t-34.5 -14.5zM693 604q-21 0 -35.5 14.5t-14.5 34.5t14.5 35t35.5 15q20 0 34.5 -15t14.5 -35t-14.5 -34.5t-34.5 -14.5zM829 604q-21 0 -35.5 14.5t-14.5 34.5t14.5 35t35.5 15 q20 0 34.5 -15t14.5 -35t-14.5 -34.5t-34.5 -14.5z" />
<glyph unicode="&#x6a6;" horiz-adv-x="1098" arabic-form="final" d="M983 70v-70h-100q-37 0 -64 10q-23 -10 -57 -10h-503q-62 0 -105.5 28t-66 75t-22.5 104q0 68 28.5 117.5t73.5 49.5q26 0 49 -18q-26 -18 -43.5 -59.5t-17.5 -99.5q0 -57 19.5 -85t45.5 -35t59 -7h279q-26 38 -37 80t-11 99q0 98 24.5 148.5t65.5 66.5t104 16 q69 0 108.5 -16.5t59.5 -62.5t20 -135v-125q0 -41 -13 -71h104zM784.5 92q17.5 22 17.5 78v130q0 62 -23 86.5t-65 24.5q-114 0 -114 -160q0 -57 20 -119t81 -62h18q48 0 65.5 22zM784 643q-21 0 -35.5 14.5t-14.5 34.5t14.5 35t35.5 15q20 0 34.5 -15t14.5 -35t-14.5 -34.5 t-34.5 -14.5zM920 643q-21 0 -35.5 14.5t-14.5 34.5t14.5 35t35.5 15q20 0 34.5 -15t14.5 -35t-14.5 -34.5t-34.5 -14.5zM784 518q-21 0 -35.5 14.5t-14.5 34.5t14.5 35t35.5 15q20 0 34.5 -15t14.5 -35t-14.5 -34.5t-34.5 -14.5zM920 518q-21 0 -35.5 14.5t-14.5 34.5 t14.5 35t35.5 15q20 0 34.5 -15t14.5 -35t-14.5 -34.5t-34.5 -14.5z" />
<glyph unicode="&#x6a6;" horiz-adv-x="447" arabic-form="initial" d="M387.5 463.5q39.5 -16.5 59.5 -62.5t20 -135v-125q0 -63 -31 -102t-99 -39h-337v70h133q-26 38 -37 80t-11 99q0 98 24.5 148.5t65.5 66.5t104 16q69 0 108.5 -16.5zM377 300q0 62 -23 86.5t-65 24.5q-114 0 -114 -160q0 -62 19.5 -121.5t81.5 -59.5h18q48 0 65.5 22 t17.5 78v130zM157 729q-21 0 -35.5 14.5t-14.5 34.5t14.5 35t35.5 15q20 0 34.5 -15t14.5 -35t-14.5 -34.5t-34.5 -14.5zM293 729q-21 0 -35.5 14.5t-14.5 34.5t14.5 35t35.5 15q20 0 34.5 -15t14.5 -35t-14.5 -34.5t-34.5 -14.5zM157 604q-21 0 -35.5 14.5t-14.5 34.5 t14.5 35t35.5 15q20 0 34.5 -15t14.5 -35t-14.5 -34.5t-34.5 -14.5zM293 604q-21 0 -35.5 14.5t-14.5 34.5t14.5 35t35.5 15q20 0 34.5 -15t14.5 -35t-14.5 -34.5t-34.5 -14.5z" />
<glyph unicode="&#x6a6;" horiz-adv-x="495" arabic-form="medial" d="M558 70v-70h-100q-39 0 -65 9q-24 -9 -56 -9h-337v70h133q-26 38 -37 80t-11 99q0 98 24.5 148.5t65.5 66.5t104 16q69 0 108.5 -16.5t59.5 -62.5t20 -135v-125q0 -41 -13 -71h104zM359.5 92q17.5 22 17.5 78v130q0 62 -23 86.5t-65 24.5q-114 0 -114 -160 q0 -62 19.5 -121.5t81.5 -59.5h18q48 0 65.5 22zM181 643q-21 0 -35.5 14.5t-14.5 34.5t14.5 35t35.5 15q20 0 34.5 -15t14.5 -35t-14.5 -34.5t-34.5 -14.5zM317 643q-21 0 -35.5 14.5t-14.5 34.5t14.5 35t35.5 15q20 0 34.5 -15t14.5 -35t-14.5 -34.5t-34.5 -14.5zM181 518 q-21 0 -35.5 14.5t-14.5 34.5t14.5 35t35.5 15q20 0 34.5 -15t14.5 -35t-14.5 -34.5t-34.5 -14.5zM317 518q-21 0 -35.5 14.5t-14.5 34.5t14.5 35t35.5 15q20 0 34.5 -15t14.5 -35t-14.5 -34.5t-34.5 -14.5z" />
<glyph unicode="&#x684;" horiz-adv-x="639" arabic-form="isolated" d="M360 -394q-70 0 -133.5 16t-112 49.5t-76.5 84.5t-28 120q0 92 43 171t123.5 139.5t191.5 97.5q-49 16 -102.5 32.5t-124.5 16.5q-30 0 -52.5 -5t-42.5 -10l-14 74q26 11 58.5 17.5t65.5 6.5q46 0 82 -8.5t68.5 -20.5t68.5 -24.5t80.5 -21t105.5 -9.5h9l2 -82 q-58 0 -123.5 -15.5t-128.5 -46t-114.5 -74.5t-82.5 -101t-31 -127t38 -113.5t101.5 -63.5t138.5 -20q99 0 201 40l28 -68q-58 -28 -119 -41.5t-120 -13.5zM366 -53q-21 0 -35.5 14.5t-14.5 34.5t14.5 35t35.5 15q20 0 34.5 -15t14.5 -35t-14.5 -34.5t-34.5 -14.5zM367 -181 q-21 0 -35.5 14.5t-14.5 34.5t14.5 35t35.5 15q20 0 34.5 -15t14.5 -35t-14.5 -34.5t-34.5 -14.5z" />
<glyph unicode="&#x684;" horiz-adv-x="649" arabic-form="final" d="M360 -394q-70 0 -133.5 16t-112 49.5t-76.5 84.5t-28 120q0 92 43 171t123.5 139.5t191.5 97.5q-49 16 -102.5 32.5t-124.5 16.5q-30 0 -52.5 -5t-42.5 -10l-14 74q26 11 58.5 17.5t65.5 6.5q46 0 82 -8.5t68.5 -20.5t68.5 -24.5t80.5 -21t105.5 -9.5h9l2 -82 q-52 0 -109 -12q8 -56 26 -88.5t44.5 -48t58.5 -20t67 -4.5q21 0 30.5 -11.5t9.5 -27.5t-13.5 -29.5t-35.5 -13.5q-42 0 -84.5 6t-79 27t-60.5 66.5t-29 125.5q-58 -20 -113 -51t-98 -73t-68.5 -94.5t-25.5 -115.5q0 -70 38 -113.5t101.5 -63.5t138.5 -20q99 0 201 40 l28 -68q-58 -28 -119 -41.5t-120 -13.5zM321 -82q-21 0 -35.5 14.5t-14.5 34.5t14.5 35t35.5 15q20 0 34.5 -15t14.5 -35t-14.5 -34.5t-34.5 -14.5zM322 -210q-21 0 -35.5 14.5t-14.5 34.5t14.5 35t35.5 15q20 0 34.5 -15t14.5 -35t-14.5 -34.5t-34.5 -14.5z" />
<glyph unicode="&#x684;" horiz-adv-x="589" arabic-form="initial" d="M0 70h210q57 0 91.5 6t63.5 41t29 113q0 90 -51 135t-179 45l-58 -1q-31 0 -46 14t-21 41t-4 36q14 -10 30 -17t40 -7l28 1q24 3 63 3q149 0 218.5 -63t69.5 -184q0 -109 -53.5 -171t-156.5 -62h-274v70zM162 -99q-17 17 -17 40q0 24 17 41t40 17q25 0 42 -17t17 -41 q0 -23 -17 -40t-42 -17q-23 0 -40 17zM162 -285q-17 17 -17 41q0 23 17 40t40 17q25 0 42 -17t17 -40q0 -24 -17 -41t-42 -17q-23 0 -40 17z" />
<glyph unicode="&#x684;" horiz-adv-x="637" arabic-form="medial" d="M530 70v-70h-50q-33 0 -54.5 6.5t-39.5 19.5q-46 -26 -112 -26h-274v70h210q57 0 91.5 6t63.5 41t29 113q0 90 -51 135t-179 45l-58 -1q-31 0 -46 14t-21 41t-4 36q14 -10 30 -17t40 -7l28 1q24 3 63 3q149 0 218.5 -63t69.5 -184q0 -102 -47 -163h93zM144 -99 q-17 17 -17 40q0 24 17 41t40 17q25 0 42 -17t17 -41q0 -23 -17 -40t-42 -17q-23 0 -40 17zM144 -285q-17 17 -17 41q0 23 17 40t40 17q25 0 42 -17t17 -40q0 -24 -17 -41t-42 -17q-23 0 -40 17z" />
<glyph unicode="&#x683;" horiz-adv-x="659" arabic-form="isolated" d="M380 -394q-70 0 -136.5 16t-119 49.5t-83.5 84.5t-31 120q0 92 48 171t133 139.5t197 97.5q-49 16 -105.5 32.5t-141.5 16.5q-30 0 -52.5 -5t-42.5 -10l-14 74q26 11 58.5 17.5t65.5 6.5q52 0 91.5 -8.5t74.5 -20.5t71.5 -24.5t81.5 -21t106 -9.5h9l2 -82 q-58 0 -125.5 -15.5t-133.5 -46t-120.5 -74.5t-87.5 -101t-33 -127q0 -52 25 -89.5t67.5 -61.5t96 -35t109.5 -11q99 0 201 40l28 -68q-58 -28 -119 -41.5t-120 -13.5zM445 -115q-21 0 -35.5 14.5t-14.5 34.5t14.5 35t35.5 15q20 0 34.5 -15t14.5 -35t-14.5 -34.5 t-34.5 -14.5zM308 -115q-21 0 -35.5 14.5t-14.5 34.5t14.5 35t35.5 15q20 0 34.5 -15t14.5 -35t-14.5 -34.5t-34.5 -14.5z" />
<glyph unicode="&#x683;" horiz-adv-x="719" arabic-form="final" d="M380 -394q-70 0 -136.5 16t-119 49.5t-83.5 84.5t-31 120q0 92 48 171t133 139.5t197 97.5q-49 16 -105.5 32.5t-141.5 16.5q-30 0 -52.5 -5t-42.5 -10l-14 74q26 11 58.5 17.5t65.5 6.5q52 0 91.5 -8.5t74.5 -20.5t71.5 -24.5t81.5 -21t106 -9.5h9l2 -82q-29 0 -60 -4 q7 -58 25 -92.5t44.5 -50.5t59.5 -21t68 -5q21 0 30.5 -11.5t9.5 -27.5t-13.5 -29.5t-35.5 -13.5q-43 0 -86.5 6t-80.5 29t-60.5 71.5t-26.5 132.5q-66 -15 -132.5 -45.5t-121 -74.5t-87.5 -101t-33 -127q0 -52 25 -89.5t67.5 -61.5t96 -35t109.5 -11q99 0 201 40l28 -68 q-58 -28 -119 -41.5t-120 -13.5zM407 -146q-21 0 -35.5 14.5t-14.5 34.5t14.5 35t35.5 15q20 0 34.5 -15t14.5 -35t-14.5 -34.5t-34.5 -14.5zM270 -146q-21 0 -35.5 14.5t-14.5 34.5t14.5 35t35.5 15q20 0 34.5 -15t14.5 -35t-14.5 -34.5t-34.5 -14.5z" />
<glyph unicode="&#x683;" horiz-adv-x="589" arabic-form="initial" d="M0 70h210q57 0 91.5 6t63.5 41t29 113q0 90 -51 135t-179 45l-58 -1q-31 0 -46 14t-21 41t-4 36q14 -10 30 -17t40 -7l28 1q24 3 63 3q149 0 218.5 -63t69.5 -184q0 -109 -53.5 -171t-156.5 -62h-274v70zM25 -98q-17 17 -17 40q0 24 17 41t40 17q24 0 40.5 -17t16.5 -41 q0 -23 -16.5 -40t-40.5 -17q-23 0 -40 17zM171 -98q-17 17 -17 40q0 24 17 41t40 17q24 0 40.5 -17t16.5 -41q0 -23 -16.5 -40t-40.5 -17q-23 0 -40 17z" />
<glyph unicode="&#x683;" horiz-adv-x="637" arabic-form="medial" d="M530 70v-70h-50q-33 0 -54.5 6.5t-39.5 19.5q-46 -26 -112 -26h-274v70h210q57 0 91.5 6t63.5 41t29 113q0 90 -51 135t-179 45l-58 -1q-31 0 -46 14t-21 41t-4 36q14 -10 30 -17t40 -7l28 1q24 3 63 3q149 0 218.5 -63t69.5 -184q0 -102 -47 -163h93zM7 -98 q-17 17 -17 40q0 24 17 41t40 17q24 0 40.5 -17t16.5 -41q0 -23 -16.5 -40t-40.5 -17q-23 0 -40 17zM153 -98q-17 17 -17 40q0 24 17 41t40 17q24 0 40.5 -17t16.5 -41q0 -23 -16.5 -40t-40.5 -17q-23 0 -40 17z" />
<glyph unicode="&#x686;" horiz-adv-x="659" arabic-form="isolated" d="M468.5 417q69.5 -63 69.5 -184q0 -109 -53.5 -171t-156.5 -62h-189q0 -83 19 -146t67 -103q-7 -6 -24.5 -11.5t-34.5 -5.5q-43 0 -69 37t-36.5 85.5t-10.5 85.5q0 128 117 128h97q58 0 92.5 6.5t63 41.5t28.5 113q0 90 -51 134.5t-179 44.5l-58 -1q-27 0 -43 15.5 t-23 36.5q-7 22 -5 39q14 -10 30 -17t40 -7l28 1q24 3 63 3q149 0 218.5 -63zM247 -157q-17 17 -17 40q0 24 17 41t40 17q24 0 40.5 -17t16.5 -41q0 -23 -16.5 -40t-40.5 -17q-23 0 -40 17zM393 -157q-17 17 -17 40q0 24 17 41t40 17q24 0 40.5 -17t16.5 -41 q0 -23 -16.5 -40t-40.5 -17q-23 0 -40 17zM322.5 -277.5q-15.5 15.5 -15.5 37.5t15.5 37.5t37.5 15.5t37.5 -15.5t15.5 -37.5t-15.5 -37.5t-37.5 -15.5t-37.5 15.5z" />
<glyph unicode="&#x686;" horiz-adv-x="563" arabic-form="final" d="M563 70v-70h-29q-33 0 -54.5 6.5t-39.5 19.5q-46 -26 -112 -26h-189q0 -83 19 -146t67 -103q-7 -6 -24.5 -11.5t-34.5 -5.5q-43 0 -69 37t-36.5 85.5t-10.5 85.5q0 128 117 128h97q58 0 92.5 6.5t63 41.5t28.5 113q0 90 -51 134.5t-179 44.5l-58 -1q-27 0 -43 15.5 t-23 36.5q-7 22 -5 39q14 -10 30 -17t40 -7l28 1q24 3 63 3q149 0 218.5 -63t69.5 -184q0 -102 -47 -163h72zM327.5 -157q-16.5 -17 -40.5 -17q-23 0 -40 17t-17 40q0 24 17 41t40 17q24 0 40.5 -17t16.5 -41q0 -23 -16.5 -40zM473.5 -76q16.5 -17 16.5 -41q0 -23 -16.5 -40 t-40.5 -17q-23 0 -40 17t-17 40q0 24 17 41t40 17q24 0 40.5 -17zM397.5 -202.5q15.5 -15.5 15.5 -37.5t-15.5 -37.5t-37.5 -15.5t-37.5 15.5t-15.5 37.5t15.5 37.5t37.5 15.5t37.5 -15.5z" />
<glyph unicode="&#x686;" horiz-adv-x="534" arabic-form="initial" d="M0 70h210q57 0 91.5 6t63.5 41t29 113q0 90 -51 135t-179 45l-58 -1q-31 0 -46 14t-21 41t-4 36q14 -10 30 -17t40 -7l28 1q24 3 63 3q149 0 218.5 -63t69.5 -184q0 -109 -53.5 -171t-156.5 -62h-274v70zM154 -178q-17 17 -17 40q0 24 17 41t40 17q24 0 40.5 -17 t16.5 -41q0 -23 -16.5 -40t-40.5 -17q-23 0 -40 17zM300 -178q-17 17 -17 40q0 24 17 41t40 17q24 0 40.5 -17t16.5 -41q0 -23 -16.5 -40t-40.5 -17q-23 0 -40 17zM229.5 -298.5q-15.5 15.5 -15.5 37.5t15.5 37.5t37.5 15.5t37.5 -15.5t15.5 -37.5t-15.5 -37.5t-37.5 -15.5 t-37.5 15.5z" />
<glyph unicode="&#x686;" horiz-adv-x="530" arabic-form="medial" d="M530 70v-70h-50q-33 0 -54.5 6.5t-39.5 19.5q-46 -26 -112 -26h-274v70h210q57 0 91.5 6t63.5 41t29 113q0 90 -51 135t-179 45l-58 -1q-31 0 -46 14t-21 41t-4 36q14 -10 30 -17t40 -7l28 1q24 3 63 3q149 0 218.5 -63t69.5 -184q0 -102 -47 -163h93zM154 -178 q-17 17 -17 40q0 24 17 41t40 17q24 0 40.5 -17t16.5 -41q0 -23 -16.5 -40t-40.5 -17q-23 0 -40 17zM300 -178q-17 17 -17 40q0 24 17 41t40 17q24 0 40.5 -17t16.5 -41q0 -23 -16.5 -40t-40.5 -17q-23 0 -40 17zM229.5 -298.5q-15.5 15.5 -15.5 37.5t15.5 37.5t37.5 15.5 t37.5 -15.5t15.5 -37.5t-15.5 -37.5t-37.5 -15.5t-37.5 15.5z" />
<glyph unicode="&#x687;" horiz-adv-x="659" arabic-form="isolated" d="M380 -394q-70 0 -136.5 16t-119 49.5t-83.5 84.5t-31 120q0 92 48 171t133 139.5t197 97.5q-49 16 -105.5 32.5t-141.5 16.5q-30 0 -52.5 -5t-42.5 -10l-14 74q26 11 58.5 17.5t65.5 6.5q52 0 91.5 -8.5t74.5 -20.5t71.5 -24.5t81.5 -21t106 -9.5h9l2 -82 q-58 0 -125.5 -15.5t-133.5 -46t-120.5 -74.5t-87.5 -101t-33 -127q0 -52 25 -89.5t67.5 -61.5t96 -35t109.5 -11q99 0 201 40l28 -68q-58 -28 -119 -41.5t-120 -13.5zM329 -60q-21 0 -35.5 14.5t-14.5 34.5t14.5 35t35.5 15q20 0 34.5 -15t14.5 -35t-14.5 -34.5 t-34.5 -14.5zM465 -60q-21 0 -35.5 14.5t-14.5 34.5t14.5 35t35.5 15q20 0 34.5 -15t14.5 -35t-14.5 -34.5t-34.5 -14.5zM329 -185q-21 0 -35.5 14.5t-14.5 34.5t14.5 35t35.5 15q20 0 34.5 -15t14.5 -35t-14.5 -34.5t-34.5 -14.5zM465 -185q-21 0 -35.5 14.5t-14.5 34.5 t14.5 35t35.5 15q20 0 34.5 -15t14.5 -35t-14.5 -34.5t-34.5 -14.5z" />
<glyph unicode="&#x687;" horiz-adv-x="719" arabic-form="final" d="M380 -394q-70 0 -136.5 16t-119 49.5t-83.5 84.5t-31 120q0 92 48 171t133 139.5t197 97.5q-49 16 -105.5 32.5t-141.5 16.5q-30 0 -52.5 -5t-42.5 -10l-14 74q26 11 58.5 17.5t65.5 6.5q52 0 91.5 -8.5t74.5 -20.5t71.5 -24.5t81.5 -21t106 -9.5h9l2 -82q-29 0 -60 -4 q7 -58 25 -92.5t44.5 -50.5t59.5 -21t68 -5q21 0 30.5 -11.5t9.5 -27.5t-13.5 -29.5t-35.5 -13.5q-43 0 -86.5 6t-80.5 29t-60.5 71.5t-26.5 132.5q-66 -15 -132.5 -45.5t-121 -74.5t-87.5 -101t-33 -127q0 -52 25 -89.5t67.5 -61.5t96 -35t109.5 -11q99 0 201 40l28 -68 q-58 -28 -119 -41.5t-120 -13.5zM271 -98q-21 0 -35.5 14.5t-14.5 34.5t14.5 35t35.5 15q20 0 34.5 -15t14.5 -35t-14.5 -34.5t-34.5 -14.5zM407 -98q-21 0 -35.5 14.5t-14.5 34.5t14.5 35t35.5 15q20 0 34.5 -15t14.5 -35t-14.5 -34.5t-34.5 -14.5zM271 -223 q-21 0 -35.5 14.5t-14.5 34.5t14.5 35t35.5 15q20 0 34.5 -15t14.5 -35t-14.5 -34.5t-34.5 -14.5zM407 -223q-21 0 -35.5 14.5t-14.5 34.5t14.5 35t35.5 15q20 0 34.5 -15t14.5 -35t-14.5 -34.5t-34.5 -14.5z" />
<glyph unicode="&#x687;" horiz-adv-x="589" arabic-form="initial" d="M0 70h210q57 0 91.5 6t63.5 41t29 113q0 90 -51 135t-179 45l-58 -1q-31 0 -46 14t-21 41t-4 36q14 -10 30 -17t40 -7l28 1q24 3 63 3q149 0 218.5 -63t69.5 -184q0 -109 -53.5 -171t-156.5 -62h-274v70zM351 -187q-21 0 -35.5 14.5t-14.5 34.5t14.5 35t35.5 15 q20 0 34.5 -15t14.5 -35t-14.5 -34.5t-34.5 -14.5zM215 -187q-21 0 -35.5 14.5t-14.5 34.5t14.5 35t35.5 15q20 0 34.5 -15t14.5 -35t-14.5 -34.5t-34.5 -14.5zM351 -312q-21 0 -35.5 14.5t-14.5 34.5t14.5 35t35.5 15q20 0 34.5 -15t14.5 -35t-14.5 -34.5t-34.5 -14.5z M215 -312q-21 0 -35.5 14.5t-14.5 34.5t14.5 35t35.5 15q20 0 34.5 -15t14.5 -35t-14.5 -34.5t-34.5 -14.5z" />
<glyph unicode="&#x687;" horiz-adv-x="637" arabic-form="medial" d="M530 70v-70h-50q-33 0 -54.5 6.5t-39.5 19.5q-46 -26 -112 -26h-274v70h210q57 0 91.5 6t63.5 41t29 113q0 90 -51 135t-179 45l-58 -1q-31 0 -46 14t-21 41t-4 36q14 -10 30 -17t40 -7l28 1q24 3 63 3q149 0 218.5 -63t69.5 -184q0 -102 -47 -163h93zM333 -187 q-21 0 -35.5 14.5t-14.5 34.5t14.5 35t35.5 15q20 0 34.5 -15t14.5 -35t-14.5 -34.5t-34.5 -14.5zM197 -187q-21 0 -35.5 14.5t-14.5 34.5t14.5 35t35.5 15q20 0 34.5 -15t14.5 -35t-14.5 -34.5t-34.5 -14.5zM333 -312q-21 0 -35.5 14.5t-14.5 34.5t14.5 35t35.5 15 q20 0 34.5 -15t14.5 -35t-14.5 -34.5t-34.5 -14.5zM197 -312q-21 0 -35.5 14.5t-14.5 34.5t14.5 35t35.5 15q20 0 34.5 -15t14.5 -35t-14.5 -34.5t-34.5 -14.5z" />
<glyph unicode="&#x68d;" horiz-adv-x="477" arabic-form="isolated" d="M341.5 447q47.5 -33 70 -84t22.5 -104q0 -54 -22 -114t-69.5 -102.5t-119.5 -42.5h-146q-14 0 -20.5 10t-6.5 23q0 15 9 26t29 11h53q103 0 153 54.5t50 134.5q0 67 -33.5 109.5t-89.5 41.5q-37 -12 -57 -36t-20 -67q-26 -2 -46 7q-33 15 -33 55q0 48 44.5 79.5 t114.5 31.5t117.5 -33zM197 407h-2h2zM-28 -103q-17 17 -17 40q0 24 17 41t40 17q24 0 40.5 -17t16.5 -41q0 -23 -16.5 -40t-40.5 -17q-23 0 -40 17zM118 -103q-17 17 -17 40q0 24 17 41t40 17q24 0 40.5 -17t16.5 -41q0 -23 -16.5 -40t-40.5 -17q-23 0 -40 17z" />
<glyph unicode="&#x68d;" horiz-adv-x="532" arabic-form="final" d="M535 70v-70h-122q-33 0 -54.5 6.5t-39.5 19.5q-42 -26 -96 -26h-146q-14 0 -20.5 10t-6.5 23q0 15 9 26t29 11h53q103 0 153 54.5t50 134.5q0 67 -33.5 109.5t-89.5 41.5q-37 -12 -57 -36t-20 -67q-26 -2 -46 7q-33 15 -33 55q0 48 44.5 79.5t114.5 31.5t117.5 -33 t70 -84t22.5 -104q0 -46 -16 -98t-48 -91h165zM197 407h-2h2zM-20 -103q-17 17 -17 40q0 24 17 41t40 17q24 0 40.5 -17t16.5 -41q0 -23 -16.5 -40t-40.5 -17q-23 0 -40 17zM126 -103q-17 17 -17 40q0 24 17 41t40 17q24 0 40.5 -17t16.5 -41q0 -23 -16.5 -40t-40.5 -17 q-23 0 -40 17z" />
<glyph unicode="&#x68c;" horiz-adv-x="477" arabic-form="isolated" d="M341.5 447q47.5 -33 70 -84t22.5 -104q0 -54 -22 -114t-69.5 -102.5t-119.5 -42.5h-146q-14 0 -20.5 10t-6.5 23q0 15 9 26t29 11h53q103 0 153 54.5t50 134.5q0 67 -33.5 109.5t-89.5 41.5q-37 -12 -57 -36t-20 -67q-26 -2 -46 7q-33 15 -33 55q0 48 44.5 79.5 t114.5 31.5t117.5 -33zM197 407h-2h2zM-40 491q-17 17 -17 40q0 24 17 41t40 17q24 0 40.5 -17t16.5 -41q0 -23 -16.5 -40t-40.5 -17q-23 0 -40 17zM106 491q-17 17 -17 40q0 24 17 41t40 17q24 0 40.5 -17t16.5 -41q0 -23 -16.5 -40t-40.5 -17q-23 0 -40 17z" />
<glyph unicode="&#x68c;" horiz-adv-x="532" arabic-form="final" d="M535 70v-70h-122q-33 0 -54.5 6.5t-39.5 19.5q-42 -26 -96 -26h-146q-14 0 -20.5 10t-6.5 23q0 15 9 26t29 11h53q103 0 153 54.5t50 134.5q0 67 -33.5 109.5t-89.5 41.5q-37 -12 -57 -36t-20 -67q-26 -2 -46 7q-33 15 -33 55q0 48 44.5 79.5t114.5 31.5t117.5 -33 t70 -84t22.5 -104q0 -46 -16 -98t-48 -91h165zM197 407h-2h2zM-35 491q-17 17 -17 40q0 24 17 41t40 17q24 0 40.5 -17t16.5 -41q0 -23 -16.5 -40t-40.5 -17q-23 0 -40 17zM111 491q-17 17 -17 40q0 24 17 41t40 17q24 0 40.5 -17t16.5 -41q0 -23 -16.5 -40t-40.5 -17 q-23 0 -40 17z" />
<glyph unicode="&#x68e;" horiz-adv-x="477" arabic-form="isolated" d="M341.5 447q47.5 -33 70 -84t22.5 -104q0 -54 -22 -114t-69.5 -102.5t-119.5 -42.5h-146q-14 0 -20.5 10t-6.5 23q0 15 9 26t29 11h53q103 0 153 54.5t50 134.5q0 67 -33.5 109.5t-89.5 41.5q-37 -12 -57 -36t-20 -67q-26 -2 -46 7q-33 15 -33 55q0 48 44.5 79.5 t114.5 31.5t117.5 -33zM197 407h-2h2zM110.5 692.5q15.5 -15.5 15.5 -37.5t-15.5 -37.5t-37.5 -15.5t-37.5 15.5t-15.5 37.5t15.5 37.5t37.5 15.5t37.5 -15.5zM40.5 572q16.5 -17 16.5 -40q0 -24 -16.5 -41t-40.5 -17q-23 0 -40 17t-17 41q0 23 17 40t40 17q24 0 40.5 -17z M186.5 572q16.5 -17 16.5 -40q0 -24 -16.5 -41t-40.5 -17q-23 0 -40 17t-17 41q0 23 17 40t40 17q24 0 40.5 -17z" />
<glyph unicode="&#x68e;" horiz-adv-x="532" arabic-form="final" d="M535 70v-70h-122q-33 0 -54.5 6.5t-39.5 19.5q-42 -26 -96 -26h-146q-14 0 -20.5 10t-6.5 23q0 15 9 26t29 11h53q103 0 153 54.5t50 134.5q0 67 -33.5 109.5t-89.5 41.5q-37 -12 -57 -36t-20 -67q-26 -2 -46 7q-33 15 -33 55q0 48 44.5 79.5t114.5 31.5t117.5 -33 t70 -84t22.5 -104q0 -46 -16 -98t-48 -91h165zM197 407h-2h2zM115.5 692.5q15.5 -15.5 15.5 -37.5t-15.5 -37.5t-37.5 -15.5t-37.5 15.5t-15.5 37.5t15.5 37.5t37.5 15.5t37.5 -15.5zM45.5 572q16.5 -17 16.5 -40q0 -24 -16.5 -41t-40.5 -17q-23 0 -40 17t-17 41q0 23 17 40 t40 17q24 0 40.5 -17zM191.5 572q16.5 -17 16.5 -40q0 -24 -16.5 -41t-40.5 -17q-23 0 -40 17t-17 41q0 23 17 40t40 17q24 0 40.5 -17z" />
<glyph unicode="&#x688;" horiz-adv-x="477" arabic-form="isolated" d="M341.5 447q47.5 -33 70 -84t22.5 -104q0 -54 -22 -114t-69.5 -102.5t-119.5 -42.5h-146q-14 0 -20.5 10t-6.5 23q0 15 9 26t29 11h53q103 0 153 54.5t50 134.5q0 67 -33.5 109.5t-89.5 41.5q-37 -12 -57 -36t-20 -67q-26 -2 -46 7q-33 15 -33 55q0 48 44.5 79.5 t114.5 31.5t117.5 -33zM197 407h-2h2zM137 564q0 18 8 18h16v127q0 17 -13 30q1 2 6.5 4t10.5 2q9 0 16.5 -6.5t7.5 -20.5v-82q15 22 33.5 35t48.5 13q39 0 58 -23t19 -57q0 -27 -12 -43t-33 -16h-158q-8 0 -8 19zM277 582q10 0 15.5 7.5t5.5 20.5q0 16 -9 26.5t-29 10.5 q-21 0 -38 -11t-27 -26.5t-10 -27.5h92z" />
<glyph unicode="&#x688;" horiz-adv-x="535" arabic-form="final" d="M535 70v-70h-122q-33 0 -54.5 6.5t-39.5 19.5q-42 -26 -96 -26h-146q-14 0 -20.5 10t-6.5 23q0 15 9 26t29 11h53q103 0 153 54.5t50 134.5q0 67 -33.5 109.5t-89.5 41.5q-37 -12 -57 -36t-20 -67q-26 -2 -46 7q-33 15 -33 55q0 48 44.5 79.5t114.5 31.5t117.5 -33 t70 -84t22.5 -104q0 -46 -16 -98t-48 -91h165zM197 407h-2h2zM137 564q0 18 8 18h16v127q0 17 -13 30q1 2 6.5 4t10.5 2q9 0 16.5 -6.5t7.5 -20.5v-82q15 22 33.5 35t48.5 13q39 0 58 -23t19 -57q0 -27 -12 -43t-33 -16h-158q-8 0 -8 19zM277 582q10 0 15.5 7.5t5.5 20.5 q0 16 -9 26.5t-29 10.5q-21 0 -38 -11t-27 -26.5t-10 -27.5h92z" />
<glyph unicode="&#x698;" horiz-adv-x="367" arabic-form="isolated" d="M-7 -210.5q-28 18.5 -38 33.5q29 -8 62 -8q39 0 65 16t37.5 39t11.5 45l-1 523q0 42 45 42q19 0 32 -9.5t13 -31.5v-512q0 -31 -13 -66.5t-46 -62.5t-89 -27q-51 0 -79 18.5zM212.5 763.5q15.5 -15.5 15.5 -37.5t-15.5 -37.5t-37.5 -15.5t-37.5 15.5t-15.5 37.5 t15.5 37.5t37.5 15.5t37.5 -15.5zM142.5 643q16.5 -17 16.5 -40q0 -24 -16.5 -41t-40.5 -17q-23 0 -40 17t-17 41q0 23 17 40t40 17q24 0 40.5 -17zM288.5 643q16.5 -17 16.5 -40q0 -24 -16.5 -41t-40.5 -17q-23 0 -40 17t-17 41q0 23 17 40t40 17q24 0 40.5 -17z" />
<glyph unicode="&#x698;" horiz-adv-x="319" arabic-form="final" d="M319 0h-99v-73q0 -31 -13 -66.5t-46 -62.5t-89 -27q-51 0 -79 18.5t-38 33.5q29 -8 62 -8q39 0 65 16t37.5 39t11.5 45l-1 523q0 42 45 42q19 0 32 -9.5t13 -31.5v-369h99v-70zM212.5 763.5q15.5 -15.5 15.5 -37.5t-15.5 -37.5t-37.5 -15.5t-37.5 15.5t-15.5 37.5 t15.5 37.5t37.5 15.5t37.5 -15.5zM142.5 643q16.5 -17 16.5 -40q0 -24 -16.5 -41t-40.5 -17q-23 0 -40 17t-17 41q0 23 17 40t40 17q24 0 40.5 -17zM288.5 643q16.5 -17 16.5 -40q0 -24 -16.5 -41t-40.5 -17q-23 0 -40 17t-17 41q0 23 17 40t40 17q24 0 40.5 -17z" />
<glyph unicode="&#x691;" horiz-adv-x="367" arabic-form="isolated" d="M-7 -210.5q-28 18.5 -38 33.5q29 -8 62 -8q39 0 65 16t37.5 39t11.5 45l-1 523q0 42 45 42q19 0 32 -9.5t13 -31.5v-512q0 -31 -13 -66.5t-46 -62.5t-89 -27q-51 0 -79 18.5zM70 564q0 18 8 18h16v127q0 17 -13 30q1 2 6.5 4t10.5 2q9 0 16.5 -6.5t7.5 -20.5v-82 q15 22 33.5 35t48.5 13q39 0 58 -23t19 -57q0 -27 -12 -43t-33 -16h-158q-8 0 -8 19zM210 582q10 0 15.5 7.5t5.5 20.5q0 16 -9 26.5t-29 10.5q-21 0 -38 -11t-27 -26.5t-10 -27.5h92z" />
<glyph unicode="&#x691;" horiz-adv-x="319" arabic-form="final" d="M319 0h-99v-73q0 -31 -13 -66.5t-46 -62.5t-89 -27q-51 0 -79 18.5t-38 33.5q29 -8 62 -8q39 0 65 16t37.5 39t11.5 45l-1 523q0 42 45 42q19 0 32 -9.5t13 -31.5v-369h99v-70zM70 564q0 18 8 18h16v127q0 17 -13 30q1 2 6.5 4t10.5 2q9 0 16.5 -6.5t7.5 -20.5v-82 q15 22 33.5 35t48.5 13q39 0 58 -23t19 -57q0 -27 -12 -43t-33 -16h-158q-8 0 -8 19zM210 582q10 0 15.5 7.5t5.5 20.5q0 16 -9 26.5t-29 10.5q-21 0 -38 -11t-27 -26.5t-10 -27.5h92z" />
<glyph unicode="&#x6a9;" horiz-adv-x="877" arabic-form="isolated" d="M765 163q0 -75 -37 -118t-108 -43h-425q-68 0 -99 39t-31 102v129q0 43 45 43t45 -44v-99q0 -56 17.5 -78t65.5 -22h344q45 0 69 26t24 67q0 46 -31 72.5t-96 26.5h-98q-71 0 -108 42.5t-37 119.5q0 83 47.5 126.5t153.5 43.5l108 -2l62 -2q24 0 40 7t30 17q2 -15 -4 -36 q-6 -22 -22.5 -38.5t-42.5 -16.5l-149 2q-72 0 -102.5 -22.5t-30.5 -72.5q0 -47 23.5 -72.5t69.5 -25.5h78q199 0 199 -171z" />
<glyph unicode="&#x6a9;" horiz-adv-x="923" arabic-form="final" d="M923 70v-70h-142q-51 0 -84 20q-31 -18 -77 -18h-425q-68 0 -99 39t-31 102v129q0 43 45 43t45 -44v-99q0 -56 17.5 -78t65.5 -22h344q45 0 69 26t24 67q0 46 -31 72.5t-96 26.5h-98q-71 0 -108 42.5t-37 119.5q0 83 47.5 126.5t153.5 43.5l108 -2l62 -2q24 0 40 7t30 17 q2 -15 -4 -36q-6 -22 -22.5 -38.5t-42.5 -16.5l-149 2q-72 0 -102.5 -22.5t-30.5 -72.5q0 -47 23.5 -72.5t69.5 -25.5h78q199 0 199 -171q0 -55 -20 -93h178z" />
<glyph unicode="&#x6a9;" horiz-adv-x="595" arabic-form="initial" d="M0 70h347q45 0 69 26t24 67q0 46 -31 72.5t-96 26.5h-98q-71 0 -108 42.5t-37 119.5q0 83 47.5 126.5t153.5 43.5l108 -2l62 -2q24 0 40 7t30 17q2 -15 -4 -36q-6 -22 -22.5 -38.5t-42.5 -16.5l-149 2q-72 0 -102.5 -22.5t-30.5 -72.5q0 -47 23.5 -72.5t69.5 -25.5h78 q199 0 199 -171q0 -75 -37 -118t-108 -43h-385v70z" />
<glyph unicode="&#x6a9;" horiz-adv-x="755" arabic-form="medial" d="M755 70v-70h-231q-43 0 -72 13q-31 -13 -67 -13h-385v70h347q45 0 69 26t24 67q0 46 -31 72.5t-96 26.5h-98q-71 0 -108 42.5t-37 119.5q0 83 47.5 126.5t153.5 43.5l108 -2l62 -2q24 0 40 7t30 17q2 -15 -4 -36q-6 -22 -22.5 -38.5t-42.5 -16.5l-149 2 q-72 0 -102.5 -22.5t-30.5 -72.5q0 -47 23.5 -72.5t69.5 -25.5h78q199 0 199 -171q0 -54 -19 -91h244z" />
<glyph unicode="&#x6af;" horiz-adv-x="877" arabic-form="isolated" d="M765 163q0 -75 -37 -118t-108 -43h-425q-68 0 -99 39t-31 102v129q0 43 45 43t45 -44v-99q0 -56 17.5 -78t65.5 -22h344q45 0 69 26t24 67q0 46 -31 72.5t-96 26.5h-98q-71 0 -108 42.5t-37 119.5q0 83 47.5 126.5t153.5 43.5l108 -2l62 -2q24 0 40 7t30 17q2 -15 -4 -36 q-6 -22 -22.5 -38.5t-42.5 -16.5l-149 2q-72 0 -102.5 -22.5t-30.5 -72.5q0 -47 23.5 -72.5t69.5 -25.5h78q199 0 199 -171zM369 659q6 22 22.5 38.5t42.5 16.5h231q24 0 40 7t30 17q2 -15 -4 -36q-6 -22 -22.5 -38.5t-42.5 -16.5h-231q-24 0 -40 -7t-30 -17q-2 15 4 36z " />
<glyph unicode="&#x6af;" horiz-adv-x="923" arabic-form="final" d="M923 70v-70h-142q-51 0 -84 20q-31 -18 -77 -18h-425q-68 0 -99 39t-31 102v129q0 43 45 43t45 -44v-99q0 -56 17.5 -78t65.5 -22h344q45 0 69 26t24 67q0 46 -31 72.5t-96 26.5h-98q-71 0 -108 42.5t-37 119.5q0 83 47.5 126.5t153.5 43.5l108 -2l62 -2q24 0 40 7t30 17 q2 -15 -4 -36q-6 -22 -22.5 -38.5t-42.5 -16.5l-149 2q-72 0 -102.5 -22.5t-30.5 -72.5q0 -47 23.5 -72.5t69.5 -25.5h78q199 0 199 -171q0 -55 -20 -93h178zM369 659q6 22 22.5 38.5t42.5 16.5h231q24 0 40 7t30 17q2 -15 -4 -36q-6 -22 -22.5 -38.5t-42.5 -16.5h-231 q-24 0 -40 -7t-30 -17q-2 15 4 36z" />
<glyph unicode="&#x6af;" horiz-adv-x="595" arabic-form="initial" d="M0 70h347q45 0 69 26t24 67q0 46 -31 72.5t-96 26.5h-98q-71 0 -108 42.5t-37 119.5q0 83 47.5 126.5t153.5 43.5l108 -2l62 -2q24 0 40 7t30 17q2 -15 -4 -36q-6 -22 -22.5 -38.5t-42.5 -16.5l-149 2q-72 0 -102.5 -22.5t-30.5 -72.5q0 -47 23.5 -72.5t69.5 -25.5h78 q199 0 199 -171q0 -75 -37 -118t-108 -43h-385v70zM87 659q6 22 22.5 38.5t42.5 16.5h231q24 0 40 7t30 17q2 -15 -4 -36q-6 -22 -22.5 -38.5t-42.5 -16.5h-231q-24 0 -40 -7t-30 -17q-2 15 4 36z" />
<glyph unicode="&#x6af;" horiz-adv-x="755" arabic-form="medial" d="M755 70v-70h-231q-43 0 -72 13q-31 -13 -67 -13h-385v70h347q45 0 69 26t24 67q0 46 -31 72.5t-96 26.5h-98q-71 0 -108 42.5t-37 119.5q0 83 47.5 126.5t153.5 43.5l108 -2l62 -2q24 0 40 7t30 17q2 -15 -4 -36q-6 -22 -22.5 -38.5t-42.5 -16.5l-149 2 q-72 0 -102.5 -22.5t-30.5 -72.5q0 -47 23.5 -72.5t69.5 -25.5h78q199 0 199 -171q0 -54 -19 -91h244zM87 659q6 22 22.5 38.5t42.5 16.5h231q24 0 40 7t30 17q2 -15 -4 -36q-6 -22 -22.5 -38.5t-42.5 -16.5h-231q-24 0 -40 -7t-30 -17q-2 15 4 36z" />
<glyph unicode="&#x6b3;" horiz-adv-x="877" arabic-form="isolated" d="M765 163q0 -75 -37 -118t-108 -43h-425q-68 0 -99 39t-31 102v129q0 43 45 43t45 -44v-99q0 -56 17.5 -78t65.5 -22h344q45 0 69 26t24 67q0 46 -31 72.5t-96 26.5h-98q-71 0 -108 42.5t-37 119.5q0 83 47.5 126.5t153.5 43.5l108 -2l62 -2q24 0 40 7t30 17q2 -15 -4 -36 q-6 -22 -22.5 -38.5t-42.5 -16.5l-149 2q-72 0 -102.5 -22.5t-30.5 -72.5q0 -47 23.5 -72.5t69.5 -25.5h78q199 0 199 -171zM369 659q6 22 22.5 38.5t42.5 16.5h231q24 0 40 7t30 17q2 -15 -4 -36q-6 -22 -22.5 -38.5t-42.5 -16.5h-231q-24 0 -40 -7t-30 -17q-2 15 4 36z M293 -120q-17 17 -17 40q0 24 17 41t40 17q25 0 42 -17t17 -41q0 -23 -17 -40t-42 -17q-23 0 -40 17zM293 -306q-17 17 -17 41q0 23 17 40t40 17q25 0 42 -17t17 -40q0 -24 -17 -41t-42 -17q-23 0 -40 17z" />
<glyph unicode="&#x6b3;" horiz-adv-x="975" arabic-form="final" d="M923 70v-70h-142q-51 0 -84 20q-31 -18 -77 -18h-425q-68 0 -99 39t-31 102v129q0 43 45 43t45 -44v-99q0 -56 17.5 -78t65.5 -22h344q45 0 69 26t24 67q0 46 -31 72.5t-96 26.5h-98q-71 0 -108 42.5t-37 119.5q0 83 47.5 126.5t153.5 43.5l108 -2l62 -2q24 0 40 7t30 17 q2 -15 -4 -36q-6 -22 -22.5 -38.5t-42.5 -16.5l-149 2q-72 0 -102.5 -22.5t-30.5 -72.5q0 -47 23.5 -72.5t69.5 -25.5h78q199 0 199 -171q0 -55 -20 -93h178zM369 659q6 22 22.5 38.5t42.5 16.5h231q24 0 40 7t30 17q2 -15 -4 -36q-6 -22 -22.5 -38.5t-42.5 -16.5h-231 q-24 0 -40 -7t-30 -17q-2 15 4 36zM293 -120q-17 17 -17 40q0 24 17 41t40 17q25 0 42 -17t17 -41q0 -23 -17 -40t-42 -17q-23 0 -40 17zM293 -306q-17 17 -17 41q0 23 17 40t40 17q25 0 42 -17t17 -40q0 -24 -17 -41t-42 -17q-23 0 -40 17z" />
<glyph unicode="&#x6b3;" horiz-adv-x="412" arabic-form="initial" d="M0 70h347q45 0 69 26t24 67q0 46 -31 72.5t-96 26.5h-98q-71 0 -108 42.5t-37 119.5q0 83 47.5 126.5t153.5 43.5l108 -2l62 -2q24 0 40 7t30 17q2 -15 -4 -36q-6 -22 -22.5 -38.5t-42.5 -16.5l-149 2q-72 0 -102.5 -22.5t-30.5 -72.5q0 -47 23.5 -72.5t69.5 -25.5h78 q199 0 199 -171q0 -75 -37 -118t-108 -43h-385v70zM87 659q6 22 22.5 38.5t42.5 16.5h231q24 0 40 7t30 17q2 -15 -4 -36q-6 -22 -22.5 -38.5t-42.5 -16.5h-231q-24 0 -40 -7t-30 -17q-2 15 4 36zM46 -99q-17 17 -17 40q0 24 17 41t40 17q25 0 42 -17t17 -41q0 -23 -17 -40 t-42 -17q-23 0 -40 17zM46 -285q-17 17 -17 41q0 23 17 40t40 17q25 0 42 -17t17 -40q0 -24 -17 -41t-42 -17q-23 0 -40 17z" />
<glyph unicode="&#x6b3;" horiz-adv-x="508" arabic-form="medial" d="M755 70v-70h-231q-43 0 -72 13q-31 -13 -67 -13h-385v70h347q45 0 69 26t24 67q0 46 -31 72.5t-96 26.5h-98q-71 0 -108 42.5t-37 119.5q0 83 47.5 126.5t153.5 43.5l108 -2l62 -2q24 0 40 7t30 17q2 -15 -4 -36q-6 -22 -22.5 -38.5t-42.5 -16.5l-149 2 q-72 0 -102.5 -22.5t-30.5 -72.5q0 -47 23.5 -72.5t69.5 -25.5h78q199 0 199 -171q0 -54 -19 -91h244zM87 659q6 22 22.5 38.5t42.5 16.5h231q24 0 40 7t30 17q2 -15 -4 -36q-6 -22 -22.5 -38.5t-42.5 -16.5h-231q-24 0 -40 -7t-30 -17q-2 15 4 36zM46 -99q-17 17 -17 40 q0 24 17 41t40 17q25 0 42 -17t17 -41q0 -23 -17 -40t-42 -17q-23 0 -40 17zM46 -285q-17 17 -17 41q0 23 17 40t40 17q25 0 42 -17t17 -40q0 -24 -17 -41t-42 -17q-23 0 -40 17z" />
<glyph unicode="&#x6b1;" horiz-adv-x="877" arabic-form="isolated" d="M639 801q-21 0 -35.5 14.5t-14.5 34.5t14.5 35t35.5 15q20 0 34.5 -15t14.5 -35t-14.5 -34.5t-34.5 -14.5zM524 748q-21 0 -35.5 14.5t-14.5 34.5t14.5 35t35.5 15q20 0 34.5 -15t14.5 -35t-14.5 -34.5t-34.5 -14.5zM462 550l-37 56q58 35 152.5 91.5t223.5 123.5l28 -61 q-130 -69 -218 -120.5t-149 -89.5zM390 -21q-178 0 -269 47t-91 156q0 37 9 78.5t19 78.5l75 -19q-6 -22 -13.5 -55.5t-7.5 -59.5q0 -52 26.5 -83.5t92.5 -46t185 -14.5q98 0 161.5 6t99 17t50 27.5t14.5 37.5q0 23 -17.5 57t-71.5 88q-37 38 -74 67t-61 49t-24 29 q0 23 5.5 43t15.5 31q40 43 125.5 86.5t213.5 107.5l34 -74q-91 -44 -148.5 -72.5t-95 -50t-69.5 -43.5q117 -95 179.5 -170.5t62.5 -152.5q0 -23 -7 -47t-30.5 -45t-69.5 -37.5t-124 -26t-195 -9.5z" />
<glyph unicode="&#x6b1;" horiz-adv-x="975" arabic-form="final" d="M639 801q-21 0 -35.5 14.5t-14.5 34.5t14.5 35t35.5 15q20 0 34.5 -15t14.5 -35t-14.5 -34.5t-34.5 -14.5zM524 748q-21 0 -35.5 14.5t-14.5 34.5t14.5 35t35.5 15q20 0 34.5 -15t14.5 -35t-14.5 -34.5t-34.5 -14.5zM462 550l-37 56q58 35 152.5 91.5t223.5 123.5l28 -61 q-130 -69 -218 -120.5t-149 -89.5zM390 -21q-178 0 -269 47t-91 156q0 37 9 78.5t19 78.5l75 -19q-6 -22 -13.5 -55.5t-7.5 -59.5q0 -52 26.5 -83.5t92.5 -46t185 -14.5q125 0 196 13t100.5 32t29.5 35q0 24 -18 53t-46 59.5t-59.5 60.5t-59.5 55t-46 43.5t-18 26.5 q0 23 5.5 43t15.5 31q27 29 79.5 60.5t120.5 65t139 68.5l34 -74q-88 -44 -172.5 -85t-147.5 -85q55 -47 103 -91t89 -94.5t75 -114.5q21 -39 49 -57t55.5 -23.5t44.5 -5.5q21 0 30.5 -11.5t9.5 -27.5t-14 -29.5t-36 -13.5q-24 0 -56 6.5t-63.5 25t-55.5 54.5 q-17 -22 -45 -41t-74.5 -32.5t-117.5 -21t-173 -7.5z" />
<glyph unicode="&#x6b1;" horiz-adv-x="412" arabic-form="initial" d="M187 799q-21 0 -35.5 14.5t-14.5 34.5t14.5 35t35.5 15q20 0 34.5 -15t14.5 -35t-14.5 -34.5t-34.5 -14.5zM72 746q-21 0 -35.5 14.5t-14.5 34.5t14.5 35t35.5 15q20 0 34.5 -15t14.5 -35t-14.5 -34.5t-34.5 -14.5zM-1 550l-37 56q58 35 152.5 91.5t223.5 123.5l28 -61 q-130 -69 -218 -120.5t-149 -89.5zM0 -5l10 82h94q59 0 93.5 6.5t51 17t22 23t5.5 25.5q0 23 -17.5 57t-71.5 88q-37 38 -74 67t-61 49t-24 29q0 23 5.5 43t15.5 31q40 43 125.5 86.5t213.5 107.5l34 -74q-91 -44 -148.5 -72.5t-95 -50t-69.5 -43.5q117 -95 179.5 -170.5 t62.5 -152.5q0 -22 -8 -48t-34 -49t-78 -37.5t-140 -14.5h-91z" />
<glyph unicode="&#x6b1;" horiz-adv-x="508" arabic-form="medial" d="M182 799q-21 0 -35.5 14.5t-14.5 34.5t14.5 35t35.5 15q20 0 34.5 -15t14.5 -35t-14.5 -34.5t-34.5 -14.5zM67 746q-21 0 -35.5 14.5t-14.5 34.5t14.5 35t35.5 15q20 0 34.5 -15t14.5 -35t-14.5 -34.5t-34.5 -14.5zM-1 550l-37 56q58 35 152.5 91.5t223.5 123.5l28 -61 q-130 -69 -218 -120.5t-149 -89.5zM0 -5l10 82h77q83 0 123 9t52.5 24t12.5 31q0 24 -18 53t-46 59.5t-59.5 60.5t-59.5 55t-46 43.5t-18 26.5q0 23 5.5 43t15.5 31q27 29 79.5 60.5t120.5 65t139 68.5l34 -74q-88 -44 -172.5 -85t-147.5 -85q55 -47 103 -91t89 -94.5 t75 -114.5q21 -39 49 -57t55.5 -23.5t44.5 -5.5q21 0 30.5 -11.5t9.5 -27.5t-14 -29.5t-36 -13.5q-24 0 -55.5 6.5t-63.5 25t-56 54.5q-20 -29 -50 -48t-78 -28.5t-122 -9.5h-83z" />
<glyph unicode="&#x6ba;" horiz-adv-x="685" arabic-form="isolated" d="M187 -198q-64 38 -93 97t-29 127q0 50 15 98t42.5 78.5t62.5 30.5q25 0 51 -16q-23 -21 -50 -71.5t-27 -125.5q0 -70 32 -111.5t78 -58t92 -16.5q72 0 108 36.5t45.5 84.5t9.5 107v378q0 24 14.5 32t30.5 8t30.5 -8t14.5 -32v-404q0 -130 -65 -201t-199 -71 q-99 0 -163 38z" />
<glyph unicode="&#x6ba;" horiz-adv-x="698" arabic-form="final" d="M698 70v-70h-11q-28 0 -43.5 4.5t-29.5 15.5q-4 -123 -69 -189.5t-195 -66.5q-99 0 -163 38t-93 97t-29 127q0 50 15 98t42.5 78.5t62.5 30.5q25 0 51 -16q-23 -21 -50 -71.5t-27 -125.5q0 -70 32 -111.5t78 -58t92 -16.5q72 0 108 36.5t45.5 84.5t9.5 107v378 q0 24 14.5 32t30.5 8t30.5 -8t14.5 -32v-370h84z" />
<glyph unicode="&#x6bb;" horiz-adv-x="685" arabic-form="isolated" d="M187 -198q-64 38 -93 97t-29 127q0 50 15 98t42.5 78.5t62.5 30.5q25 0 51 -16q-23 -21 -50 -71.5t-27 -125.5q0 -70 32 -111.5t78 -58t92 -16.5q72 0 108 36.5t45.5 84.5t9.5 107v378q0 24 14.5 32t30.5 8t30.5 -8t14.5 -32v-404q0 -130 -65 -201t-199 -71 q-99 0 -163 38zM335 426q-18 0 -42.5 1.5t-46.5 3.5l-33 3l2 58q6 -1 13 -1.5t15 -1.5q10 18 22 34l-5 162h55l5 -106q18 13 37.5 20.5t39.5 7.5q38 0 60 -23t22 -57q0 -20 -11.5 -43.5t-42.5 -40.5t-90 -17zM389 548q-18 0 -35 -11t-31.5 -26t-22.5 -26q16 -1 28 -1 q49 0 71 10.5t22 27.5q0 14 -9 20t-23 6z" />
<glyph unicode="&#x6bb;" horiz-adv-x="730" arabic-form="final" d="M698 70v-70h-11q-28 0 -43.5 4.5t-29.5 15.5q-4 -123 -69 -189.5t-195 -66.5q-99 0 -163 38t-93 97t-29 127q0 50 15 98t42.5 78.5t62.5 30.5q25 0 51 -16q-23 -21 -50 -71.5t-27 -125.5q0 -70 32 -111.5t78 -58t92 -16.5q72 0 108 36.5t45.5 84.5t9.5 107v378 q0 24 14.5 32t30.5 8t30.5 -8t14.5 -32v-370h84zM335 426q-18 0 -42.5 1.5t-46.5 3.5l-33 3l2 58q6 -1 13 -1.5t15 -1.5q10 18 22 34l-5 162h55l5 -106q18 13 37.5 20.5t39.5 7.5q38 0 60 -23t22 -57q0 -20 -11.5 -43.5t-42.5 -40.5t-90 -17zM389 548q-18 0 -35 -11 t-31.5 -26t-22.5 -26q16 -1 28 -1q49 0 71 10.5t22 27.5q0 14 -9 20t-23 6z" />
<glyph unicode="&#x6bb;" horiz-adv-x="299" arabic-form="initial" d="M0 70h67q69 0 89.5 56t20.5 114q0 63 -16.5 119.5t-68.5 100.5q22 20 55 20q63 0 91.5 -62t28.5 -148q0 -110 -47 -190t-160 -80h-60v70zM42 564q0 18 8 18h16v127q0 17 -13 30q1 2 6.5 4t10.5 2q9 0 16.5 -6.5t7.5 -20.5v-82q15 22 33.5 35t48.5 13q39 0 58 -23t19 -57 q0 -27 -12 -43t-33 -16h-158q-8 0 -8 19zM182 582q10 0 15.5 7.5t5.5 20.5q0 16 -9 26.5t-29 10.5q-21 0 -38 -11t-27 -26.5t-10 -27.5h92z" />
<glyph unicode="&#x6bb;" horiz-adv-x="343" arabic-form="medial" d="M329 70v-70h-95q-33 0 -54.5 6.5t-39.5 19.5q-36 -23 -83 -26h-57v70h57q30 1 57 12v352q0 46 45 46t45 -45v-283q0 -36 4.5 -59t21.5 -23h99zM54 564q0 18 8 18h16v127q0 17 -13 30q1 2 6.5 4t10.5 2q9 0 16.5 -6.5t7.5 -20.5v-82q15 22 33.5 35t48.5 13q39 0 58 -23 t19 -57q0 -27 -12 -43t-33 -16h-158q-8 0 -8 19zM194 582q10 0 15.5 7.5t5.5 20.5q0 16 -9 26.5t-29 10.5q-21 0 -38 -11t-27 -26.5t-10 -27.5h92z" />
<glyph unicode="&#x6c0;" horiz-adv-x="405" arabic-form="isolated" d="M111.5 48.5q-46.5 57.5 -46.5 186.5t47 187t146 58t146 -58t47 -187t-46.5 -186.5t-146.5 -57.5t-146.5 57.5zM339.5 114.5q21.5 53.5 21.5 136.5q0 77 -21 118t-83 41q-59 0 -80.5 -39.5t-21.5 -121.5q0 -81 21.5 -134.5t81.5 -53.5t81.5 53.5zM-22 549q0 12 9 19.5 t21 7.5q8 0 14 -3q-12 13 -22.5 36.5t-10.5 48.5q0 42 28.5 68t79.5 26q62 0 62 -40q0 -16 -9 -24t-20 -8q-9 0 -13 4q1 18 -11.5 29t-28.5 14q-12 -3 -21.5 -18.5t-9.5 -42.5q0 -77 82 -77q24 0 34 4q21 0 21 -19q0 -6 -3 -11.5t-7 -5.5q-66 -6 -123.5 -14.5t-63.5 -14.5 q-8 13 -8 21z" />
<glyph unicode="&#x6c0;" horiz-adv-x="486" arabic-form="final" d="M511 70v-70h-74q-33 0 -51 6t-32 14q-46 -22 -106 -22q-100 0 -141.5 57.5t-41.5 180.5q0 99 23 152.5t64 72.5t105 19q88 0 137 -34.5t49 -123.5v-252h68zM179 124.5q24 -54.5 104 -54.5h70v228q0 112 -90 112q-108 0 -108 -172q0 -59 24 -113.5zM348 22h-1h1zM14 620 q0 12 9 19.5t21 7.5q8 0 14 -3q-12 13 -22.5 36.5t-10.5 48.5q0 42 28.5 68t79.5 26q62 0 62 -40q0 -16 -9 -24t-20 -8q-9 0 -13 4q1 18 -11.5 29t-28.5 14q-12 -3 -21.5 -18.5t-9.5 -42.5q0 -77 82 -77q24 0 34 4q21 0 21 -19q0 -6 -3 -11.5t-7 -5.5q-66 -6 -123.5 -14.5 t-63.5 -14.5q-8 13 -8 21z" />
<glyph unicode="&#x6c1;" horiz-adv-x="405" arabic-form="isolated" d="M111.5 48.5q-46.5 57.5 -46.5 186.5t47 187t146 58t146 -58t47 -187t-46.5 -186.5t-146.5 -57.5t-146.5 57.5zM339.5 114.5q21.5 53.5 21.5 136.5q0 77 -21 118t-83 41q-59 0 -80.5 -39.5t-21.5 -121.5q0 -81 21.5 -134.5t81.5 -53.5t81.5 53.5z" />
<glyph unicode="&#x6c1;" horiz-adv-x="657" arabic-form="final" d="M657 70v-70h-158q-12 0 -20.5 8t-8.5 20v382q-94 0 -166 -63.5t-110.5 -159t-38.5 -187.5h-90q0 135 55.5 244.5t161 172.5t250.5 63q11 0 19 -8.5t8 -20.5v-381h98z" />
<glyph unicode="&#x6c1;" horiz-adv-x="332" arabic-form="initial" d="M0 70h67q69 0 89.5 56t20.5 114q0 63 -16.5 119.5t-68.5 100.5q22 20 55 20q63 0 91.5 -62t28.5 -148q0 -110 -47 -190t-160 -80h-60v70zM102.5 -271.5q-17.5 18.5 -17.5 51.5q0 123 110 185l10 -15q-40 -27 -60 -59.5t-20 -75.5l30 10q23 0 39 -16t16 -39q0 -26 -17 -43 t-43 -17q-30 0 -47.5 18.5z" />
<glyph unicode="&#x6c1;" horiz-adv-x="475" arabic-form="medial" d="M475 0h-77v-230q0 -9 -6.5 -15t-15.5 -6q-179 0 -252 67t-73 184h-51v70h120q8 0 14.5 -6t6.5 -15q0 -59 9 -105t45.5 -83t112.5 -37v225q0 9 6.5 15t14.5 6h146v-70z" />
<glyph unicode="&#x6be;" horiz-adv-x="672" arabic-form="isolated" d="M445 556.5q80 -24.5 135.5 -90t55.5 -178.5q0 -78 -28 -144t-82.5 -105t-129.5 -39q-37 0 -87.5 7t-65.5 19q-61 -26 -139 -26h-39v70h15q2 0 16.5 -4t36.5 -4q17 0 37 4q-28 26 -46 71.5t-18 104.5q0 80 34 131t101 51q66 0 100.5 -51t34.5 -130q0 -60 -19 -106.5 t-49 -69.5q25 -5 46 -5q60 0 103.5 29.5t66 79t22.5 109.5q0 86 -44.5 136.5t-108 70.5t-129.5 20h-47q-43 0 -61.5 22t-18.5 70q18 -18 39 -22t47 -3l62 3q80 4 160 -20.5zM199 318q-14 -36 -14 -81q0 -87 56 -136q56 49 56 136q0 45 -14 81t-42 36t-42 -36zM199 79l-5 -6 q8 5 5 6z" />
<glyph unicode="&#x6be;" horiz-adv-x="703" arabic-form="final" d="M703 70v-70h-109q-57 0 -92 25q-48 -25 -106 -25q-37 0 -87.5 7t-65.5 19q-61 -26 -139 -26h-39v70h15q2 0 16.5 -4t36.5 -4q17 0 37 4q-28 26 -46 71.5t-18 104.5q0 80 34 131t101 51q66 0 100.5 -51t34.5 -130q0 -60 -19 -106.5t-49 -69.5q25 -5 46 -5q60 0 103.5 29.5 t66 79t22.5 109.5q0 86 -44.5 136.5t-108 70.5t-129.5 20h-47q-43 0 -61.5 22t-18.5 70q18 -18 39 -22t47 -3l62 3q80 4 160 -20.5t135.5 -90t55.5 -178.5q0 -64 -19.5 -121t-55.5 -97h142zM199 318q-14 -36 -14 -81q0 -87 56 -136q56 49 56 136q0 45 -14 81t-42 36t-42 -36 zM199 79l-5 -6q8 5 5 6z" />
<glyph unicode="&#x6be;" horiz-adv-x="636" arabic-form="initial" d="M380 556.5q80 -24.5 135.5 -90t55.5 -178.5q0 -78 -28 -144t-82.5 -105t-129.5 -39q-37 0 -87.5 7t-65.5 19q-61 -26 -139 -26h-39v70h15q2 0 16.5 -4t36.5 -4q17 0 37 4q-28 26 -46 71.5t-18 104.5q0 80 34 131t101 51q66 0 100.5 -51t34.5 -130q0 -60 -19 -106.5 t-49 -69.5q25 -5 46 -5q60 0 103.5 29.5t66 79t22.5 109.5q0 86 -44.5 136.5t-108 70.5t-129.5 20h-47q-43 0 -61.5 22t-18.5 70q18 -18 39 -22t47 -3l62 3q80 4 160 -20.5zM134 318q-14 -36 -14 -81q0 -87 56 -136q56 49 56 136q0 45 -14 81t-42 36t-42 -36zM134 79l-5 -6 q8 5 5 6z" />
<glyph unicode="&#x6be;" horiz-adv-x="638" arabic-form="medial" d="M638 70v-70h-109q-57 0 -92 25q-48 -25 -106 -25q-37 0 -87.5 7t-65.5 19q-61 -26 -139 -26h-39v70h15q2 0 16.5 -4t36.5 -4q17 0 37 4q-28 26 -46 71.5t-18 104.5q0 80 34 131t101 51q66 0 100.5 -51t34.5 -130q0 -60 -19 -106.5t-49 -69.5q25 -5 46 -5q60 0 103.5 29.5 t66 79t22.5 109.5q0 86 -44.5 136.5t-108 70.5t-129.5 20h-47q-43 0 -61.5 22t-18.5 70q18 -18 39 -22t47 -3l62 3q80 4 160 -20.5t135.5 -90t55.5 -178.5q0 -64 -19.5 -121t-55.5 -97h142zM134 318q-14 -36 -14 -81q0 -87 56 -136q56 49 56 136q0 45 -14 81t-42 36t-42 -36 zM134 79l-5 -6q8 5 5 6z" />
<glyph unicode="&#x6d2;" horiz-adv-x="942" arabic-form="isolated" d="M189.5 -228.5q-51.5 7.5 -88 40.5t-36.5 103q0 77 41.5 111t82 39t99.5 5h35q42 0 53.5 34.5t11.5 88.5v47h90v-47q1 -64 -6 -103t-35.5 -64.5t-88.5 -25.5h-43q-64 0 -107 -15t-43 -70q0 -46 40 -63.5t124 -17.5h266v-70h-261q-83 0 -134.5 7.5z" />
<glyph unicode="&#x6d2;" horiz-adv-x="456" arabic-form="final" d="M189.5 -228.5q-51.5 7.5 -88 40.5t-36.5 103q0 77 41.5 111t82 39t99.5 5h168v-70h-151q-64 0 -107 -15t-43 -70q0 -46 40 -63.5t124 -17.5h266v-70h-261q-83 0 -134.5 7.5z" />
<glyph unicode="&#x6d3;" horiz-adv-x="942" arabic-form="isolated" d="M189.5 -228.5q-51.5 7.5 -88 40.5t-36.5 103q0 77 41.5 111t82 39t99.5 5h35q42 0 53.5 34.5t11.5 88.5v47h90v-47q1 -64 -6 -103t-35.5 -64.5t-88.5 -25.5h-43q-64 0 -107 -15t-43 -70q0 -46 40 -63.5t124 -17.5h266v-70h-261q-83 0 -134.5 7.5zM75 161q0 12 9 19.5 t21 7.5q8 0 14 -3q-12 13 -22.5 36.5t-10.5 48.5q0 42 28.5 68t79.5 26q62 0 62 -40q0 -16 -9 -24t-20 -8q-9 0 -13 4q1 18 -11.5 29t-28.5 14q-12 -3 -21.5 -18.5t-9.5 -42.5q0 -77 82 -77q24 0 34 4q21 0 21 -19q0 -6 -3 -11.5t-7 -5.5q-66 -6 -123.5 -14.5t-63.5 -14.5 q-8 13 -8 21z" />
<glyph unicode="&#x6d3;" horiz-adv-x="456" arabic-form="final" d="M189.5 -228.5q-51.5 7.5 -88 40.5t-36.5 103q0 77 41.5 111t82 39t99.5 5h168v-70h-151q-64 0 -107 -15t-43 -70q0 -46 40 -63.5t124 -17.5h266v-70h-261q-83 0 -134.5 7.5zM75 161q0 12 9 19.5t21 7.5q8 0 14 -3q-12 13 -22.5 36.5t-10.5 48.5q0 42 28.5 68t79.5 26 q62 0 62 -40q0 -16 -9 -24t-20 -8q-9 0 -13 4q1 18 -11.5 29t-28.5 14q-12 -3 -21.5 -18.5t-9.5 -42.5q0 -77 82 -77q24 0 34 4q21 0 21 -19q0 -6 -3 -11.5t-7 -5.5q-66 -6 -123.5 -14.5t-63.5 -14.5q-8 13 -8 21z" />
<glyph unicode="&#x6ad;" horiz-adv-x="882" arabic-form="isolated" d="M96 39q-31 39 -31 102v129q0 43 45 43t45 -44v-99q0 -56 17.5 -78t65.5 -22h348q43 0 66 35.5t23 81.5v325q0 43 -17 76t-38 47q6 8 25.5 16.5t40.5 8.5q33 0 56 -25.5t23 -85.5v-354q0 -97 -43 -146t-109 -49h-418q-68 0 -99 39zM315 341q0 12 9 19.5t21 7.5q8 0 14 -3 q-12 13 -22.5 36.5t-10.5 48.5q0 42 28.5 68t79.5 26q62 0 62 -40q0 -16 -9 -24t-20 -8q-9 0 -13 4q1 18 -11.5 29t-28.5 14q-12 -3 -21.5 -18.5t-9.5 -42.5q0 -77 82 -77q24 0 34 4q21 0 21 -19q0 -6 -3 -11.5t-7 -5.5q-66 -6 -123.5 -14.5t-63.5 -14.5q-8 13 -8 21z M361.5 763.5q15.5 -15.5 15.5 -37.5t-15.5 -37.5t-37.5 -15.5t-37.5 15.5t-15.5 37.5t15.5 37.5t37.5 15.5t37.5 -15.5zM291.5 643q16.5 -17 16.5 -40q0 -24 -16.5 -41t-40.5 -17q-23 0 -40 17t-17 41q0 23 17 40t40 17q24 0 40.5 -17zM437.5 643q16.5 -17 16.5 -40 q0 -24 -16.5 -41t-40.5 -17q-23 0 -40 17t-17 41q0 23 17 40t40 17q24 0 40.5 -17z" />
<glyph unicode="&#x6ad;" horiz-adv-x="922" arabic-form="final" d="M884 70v-70h-115q-51 0 -83 19q-32 -19 -73 -19h-418q-68 0 -99 39t-31 102v129q0 43 45 43t45 -44v-99q0 -56 17.5 -78t65.5 -22h348q43 0 66 35.5t23 81.5v325q0 43 -17 76t-38 47q6 8 25.5 16.5t40.5 8.5q33 0 56 -25.5t23 -85.5v-354q0 -74 -28 -125h147zM315 341 q0 12 9 19.5t21 7.5q8 0 14 -3q-12 13 -22.5 36.5t-10.5 48.5q0 42 28.5 68t79.5 26q62 0 62 -40q0 -16 -9 -24t-20 -8q-9 0 -13 4q1 18 -11.5 29t-28.5 14q-12 -3 -21.5 -18.5t-9.5 -42.5q0 -77 82 -77q24 0 34 4q21 0 21 -19q0 -6 -3 -11.5t-7 -5.5q-66 -6 -123.5 -14.5 t-63.5 -14.5q-8 13 -8 21zM361.5 763.5q15.5 -15.5 15.5 -37.5t-15.5 -37.5t-37.5 -15.5t-37.5 15.5t-15.5 37.5t15.5 37.5t37.5 15.5t37.5 -15.5zM291.5 643q16.5 -17 16.5 -40q0 -24 -16.5 -41t-40.5 -17q-23 0 -40 17t-17 41q0 23 17 40t40 17q24 0 40.5 -17zM437.5 643 q16.5 -17 16.5 -40q0 -24 -16.5 -41t-40.5 -17q-23 0 -40 17t-17 41q0 23 17 40t40 17q24 0 40.5 -17z" />
<glyph unicode="&#x6ad;" horiz-adv-x="412" arabic-form="initial" d="M157 796q-21 0 -35.5 14.5t-14.5 34.5t14.5 35t35.5 15q20 0 34.5 -15t14.5 -35t-14.5 -34.5t-34.5 -14.5zM262 722q-21 0 -35.5 14.5t-14.5 34.5t14.5 35t35.5 15q20 0 34.5 -15t14.5 -35t-14.5 -34.5t-34.5 -14.5zM147 671q-21 0 -35.5 14.5t-14.5 34.5t14.5 35 t35.5 15q20 0 34.5 -15t14.5 -35t-14.5 -34.5t-34.5 -14.5zM0 -5l10 82h94q59 0 93.5 6.5t51 17t22 23t5.5 25.5q0 23 -17.5 57t-71.5 88q-37 38 -74 67t-61 49t-24 29q0 23 5.5 43t15.5 31q40 43 125.5 86.5t213.5 107.5l34 -74q-91 -44 -148.5 -72.5t-95 -50t-69.5 -43.5 q117 -95 179.5 -170.5t62.5 -152.5q0 -22 -8 -48t-34 -49t-78 -37.5t-140 -14.5h-91z" />
<glyph unicode="&#x6ad;" horiz-adv-x="508" arabic-form="medial" d="M125 796q-21 0 -35.5 14.5t-14.5 34.5t14.5 35t35.5 15q20 0 34.5 -15t14.5 -35t-14.5 -34.5t-34.5 -14.5zM230 722q-21 0 -35.5 14.5t-14.5 34.5t14.5 35t35.5 15q20 0 34.5 -15t14.5 -35t-14.5 -34.5t-34.5 -14.5zM115 671q-21 0 -35.5 14.5t-14.5 34.5t14.5 35 t35.5 15q20 0 34.5 -15t14.5 -35t-14.5 -34.5t-34.5 -14.5zM0 -5l10 82h77q83 0 123 9t52.5 24t12.5 31q0 24 -18 53t-46 59.5t-59.5 60.5t-59.5 55t-46 43.5t-18 26.5q0 23 5.5 43t15.5 31q27 29 79.5 60.5t120.5 65t139 68.5l34 -74q-88 -44 -172.5 -85t-147.5 -85 q55 -47 103 -91t89 -94.5t75 -114.5q21 -39 49 -57t55.5 -23.5t44.5 -5.5q21 0 30.5 -11.5t9.5 -27.5t-14 -29.5t-36 -13.5q-24 0 -55.5 6.5t-63.5 25t-56 54.5q-20 -29 -50 -48t-78 -28.5t-122 -9.5h-83z" />
<glyph unicode="&#x6c7;" horiz-adv-x="447" arabic-form="isolated" d="M394 445.5q49 -34.5 49 -123.5v-390q0 -34 -12.5 -70.5t-46 -63.5t-91.5 -27q-44 0 -77 16.5t-46 37.5q35 -8 62 -8q55 0 88 29.5t33 74.5l1 79l-106 -2q-100 0 -141.5 57.5t-41.5 180.5q0 99 23 152.5t64 72.5t105 19q88 0 137 -34.5zM179 124.5q24 -54.5 104 -54.5h70 v228q0 112 -90 112q-108 0 -108 -172q0 -59 24 -113.5zM-47.5 442.5q-6.5 6.5 -6.5 16.5q0 9 6.5 16t16.5 7l83 4q-16 10 -26 27t-10 37q0 32 22.5 54t53.5 22t54 -21.5t23 -60.5q0 -57 -55 -82.5t-145 -25.5q-10 0 -16.5 6.5zM114 528.5q9 9.5 9 21.5q0 13 -9 22t-22 9 t-21.5 -9t-8.5 -22q0 -12 9 -21.5t21 -9.5q13 0 22 9.5z" />
<glyph unicode="&#x6c7;" horiz-adv-x="472" arabic-form="final" d="M528 0h-85v-68q0 -34 -12.5 -70.5t-46 -63.5t-91.5 -27q-44 0 -77 16.5t-46 37.5q35 -8 62 -8q55 0 88 29.5t33 74.5l1 79l-106 -2q-100 0 -141.5 57.5t-41.5 180.5q0 99 23 152.5t64 72.5t105 19q88 0 137 -34.5t49 -123.5v-252h85v-70zM179 124.5q24 -54.5 104 -54.5 h70v228q0 112 -90 112q-108 0 -108 -172q0 -59 24 -113.5zM-47.5 436.5q-6.5 6.5 -6.5 16.5q0 9 6.5 16t16.5 7l83 4q-16 10 -26 27t-10 37q0 32 22.5 54t53.5 22t54 -21.5t23 -60.5q0 -57 -55 -82.5t-145 -25.5q-10 0 -16.5 6.5zM114 522.5q9 9.5 9 21.5q0 13 -9 22t-22 9 t-21.5 -9t-8.5 -22q0 -12 9 -21.5t21 -9.5q13 0 22 9.5z" />
<glyph unicode="&#x6c6;" horiz-adv-x="447" arabic-form="isolated" d="M394 445.5q49 -34.5 49 -123.5v-390q0 -34 -12.5 -70.5t-46 -63.5t-91.5 -27q-44 0 -77 16.5t-46 37.5q35 -8 62 -8q55 0 88 29.5t33 74.5l1 79l-106 -2q-100 0 -141.5 57.5t-41.5 180.5q0 99 23 152.5t64 72.5t105 19q88 0 137 -34.5zM179 124.5q24 -54.5 104 -54.5h70 v228q0 112 -90 112q-108 0 -108 -172q0 -59 24 -113.5zM204 471q-9 20 -25 53.5t-32.5 67t-29.5 54.5l46 25q7 -12 20 -36.5t27.5 -52t24.5 -49.5q11 26 24 55.5t24 53t16 31.5l45 -19q-5 -10 -16 -32.5t-23.5 -50t-24 -53t-17.5 -41.5z" />
<glyph unicode="&#x6c6;" horiz-adv-x="472" arabic-form="final" d="M528 0h-85v-68q0 -34 -12.5 -70.5t-46 -63.5t-91.5 -27q-44 0 -77 16.5t-46 37.5q35 -8 62 -8q55 0 88 29.5t33 74.5l1 79l-106 -2q-100 0 -141.5 57.5t-41.5 180.5q0 99 23 152.5t64 72.5t105 19q88 0 137 -34.5t49 -123.5v-252h85v-70zM179 124.5q24 -54.5 104 -54.5 h70v228q0 112 -90 112q-108 0 -108 -172q0 -59 24 -113.5zM204 465q-9 20 -25 53.5t-32.5 67t-29.5 54.5l46 25q7 -12 20 -36.5t27.5 -52t24.5 -49.5q11 26 24 55.5t24 53t16 31.5l45 -19q-5 -10 -16 -32.5t-23.5 -50t-24 -53t-17.5 -41.5z" />
<glyph unicode="&#x6c8;" horiz-adv-x="447" arabic-form="isolated" d="M394 445.5q49 -34.5 49 -123.5v-390q0 -34 -12.5 -70.5t-46 -63.5t-91.5 -27q-44 0 -77 16.5t-46 37.5q35 -8 62 -8q55 0 88 29.5t33 74.5l1 79l-106 -2q-100 0 -141.5 57.5t-41.5 180.5q0 99 23 152.5t64 72.5t105 19q88 0 137 -34.5zM179 124.5q24 -54.5 104 -54.5h70 v228q0 112 -90 112q-108 0 -108 -172q0 -59 24 -113.5zM158 380.5q-7 6.5 -7 16.5q0 25 -6 46.5t-28 44.5q-6 8 -6 16q0 12 8 17q6 6 14 6q10 0 18 -8q30 -32 38 -62t8 -60q0 -10 -6.5 -16.5t-16.5 -6.5q-9 0 -16 6.5z" />
<glyph unicode="&#x6c8;" horiz-adv-x="472" arabic-form="final" d="M528 0h-85v-68q0 -34 -12.5 -70.5t-46 -63.5t-91.5 -27q-44 0 -77 16.5t-46 37.5q35 -8 62 -8q55 0 88 29.5t33 74.5l1 79l-106 -2q-100 0 -141.5 57.5t-41.5 180.5q0 99 23 152.5t64 72.5t105 19q88 0 137 -34.5t49 -123.5v-252h85v-70zM179 124.5q24 -54.5 104 -54.5 h70v228q0 112 -90 112q-108 0 -108 -172q0 -59 24 -113.5zM158 374.5q-7 6.5 -7 16.5q0 25 -6 46.5t-28 44.5q-6 8 -6 16q0 12 8 17q6 6 14 6q10 0 18 -8q30 -32 38 -62t8 -60q0 -10 -6.5 -16.5t-16.5 -6.5q-9 0 -16 6.5z" />
<glyph unicode="&#x677;" horiz-adv-x="597" arabic-form="isolated" d="M455 445.5q49 -34.5 49 -123.5v-390q0 -34 -12.5 -70.5t-46 -63.5t-91.5 -27q-44 0 -77 16.5t-46 37.5q35 -8 62 -8q55 0 88 29.5t33 74.5l1 79l-106 -2q-100 0 -141.5 57.5t-41.5 180.5q0 99 23 152.5t64 72.5t105 19q88 0 137 -34.5zM240 124.5q24 -54.5 104 -54.5h70 v228q0 112 -90 112q-108 0 -108 -172q0 -59 24 -113.5zM220 369q0 12 9 19.5t21 7.5q8 0 14 -3q-12 13 -22.5 36.5t-10.5 48.5q0 42 28.5 68t79.5 26q62 0 62 -40q0 -16 -9 -24t-20 -8q-9 0 -13 4q1 18 -11.5 29t-28.5 14q-12 -3 -21.5 -18.5t-9.5 -42.5q0 -77 82 -77 q24 0 34 4q21 0 21 -19q0 -6 -3 -11.5t-7 -5.5q-66 -6 -123.5 -14.5t-63.5 -14.5q-8 13 -8 21zM-82.5 369.5q-6.5 6.5 -6.5 16.5q0 9 6.5 16t16.5 7l83 4q-16 10 -26 27t-10 37q0 32 22.5 54t53.5 22t54 -21.5t23 -60.5q0 -57 -55 -82.5t-145 -25.5q-10 0 -16.5 6.5z M79 455.5q9 9.5 9 21.5q0 13 -9 22t-22 9t-21.5 -9t-8.5 -22q0 -12 9 -21.5t21 -9.5q13 0 22 9.5z" />
<glyph unicode="&#x6cb;" horiz-adv-x="447" arabic-form="isolated" d="M394 445.5q49 -34.5 49 -123.5v-390q0 -34 -12.5 -70.5t-46 -63.5t-91.5 -27q-44 0 -77 16.5t-46 37.5q35 -8 62 -8q55 0 88 29.5t33 74.5l1 79l-106 -2q-100 0 -141.5 57.5t-41.5 180.5q0 99 23 152.5t64 72.5t105 19q88 0 137 -34.5zM179 124.5q24 -54.5 104 -54.5h70 v228q0 112 -90 112q-108 0 -108 -172q0 -59 24 -113.5zM127.5 572.5q15.5 -15.5 15.5 -37.5t-15.5 -37.5t-37.5 -15.5t-37.5 15.5t-15.5 37.5t15.5 37.5t37.5 15.5t37.5 -15.5zM57.5 452q16.5 -17 16.5 -40q0 -24 -16.5 -41t-40.5 -17q-23 0 -40 17t-17 41q0 23 17 40t40 17 q24 0 40.5 -17zM203.5 452q16.5 -17 16.5 -40q0 -24 -16.5 -41t-40.5 -17q-23 0 -40 17t-17 41q0 23 17 40t40 17q24 0 40.5 -17z" />
<glyph unicode="&#x6cb;" horiz-adv-x="472" arabic-form="final" d="M528 0h-85v-68q0 -34 -12.5 -70.5t-46 -63.5t-91.5 -27q-44 0 -77 16.5t-46 37.5q35 -8 62 -8q55 0 88 29.5t33 74.5l1 79l-106 -2q-100 0 -141.5 57.5t-41.5 180.5q0 99 23 152.5t64 72.5t105 19q88 0 137 -34.5t49 -123.5v-252h85v-70zM179 124.5q24 -54.5 104 -54.5 h70v228q0 112 -90 112q-108 0 -108 -172q0 -59 24 -113.5zM127.5 566.5q15.5 -15.5 15.5 -37.5t-15.5 -37.5t-37.5 -15.5t-37.5 15.5t-15.5 37.5t15.5 37.5t37.5 15.5t37.5 -15.5zM57.5 446q16.5 -17 16.5 -40q0 -24 -16.5 -41t-40.5 -17q-23 0 -40 17t-17 41q0 23 17 40 t40 17q24 0 40.5 -17zM203.5 446q16.5 -17 16.5 -40q0 -24 -16.5 -41t-40.5 -17q-23 0 -40 17t-17 41q0 23 17 40t40 17q24 0 40.5 -17z" />
<glyph unicode="&#x6c5;" horiz-adv-x="447" arabic-form="isolated" d="M56 -103v59h229q11 21 18 47q-19 -6 -39.5 -8.5t-40.5 -2.5q-76 0 -117.5 31.5t-41.5 95.5q0 38 12 76.5t34 70.5t53 51.5t69 19.5q54 0 89.5 -35t53 -91.5t17.5 -119.5q0 -151 -84 -236.5t-238 -85.5h-12t-12 1l-6 78q59 2 108 12.5t85 36.5h-177zM143 139 q0 -31 20 -49.5t69 -18.5q43 0 82 12v14q0 42 -11 78t-31 58t-48 22q-23 0 -41.5 -17.5t-29 -44.5t-10.5 -54z" />
<glyph unicode="&#x6c5;" horiz-adv-x="472" arabic-form="final" d="M72 -103v59h223q7 18 12 39h-74q-45 0 -83.5 13t-62 40.5t-23.5 72.5q0 38 13 75t35.5 67.5t53 49t66.5 18.5q67 0 114 -61t50 -193h86q21 0 30.5 -11.5t9.5 -27.5t-14 -29.5t-36 -13.5h-81q-13 -83 -57.5 -132.5t-112.5 -72t-151 -22.5h-12t-12 1l-6 79q72 2 125 12 t87 37h-180zM271 77h43q0 83 -26 128t-64 45q-21 0 -39 -16t-29.5 -42t-11.5 -55q0 -35 31.5 -47.5t95.5 -12.5z" />
<glyph unicode="&#x6c9;" horiz-adv-x="447" arabic-form="isolated" d="M394 445.5q49 -34.5 49 -123.5v-390q0 -34 -12.5 -70.5t-46 -63.5t-91.5 -27q-44 0 -77 16.5t-46 37.5q35 -8 62 -8q55 0 88 29.5t33 74.5l1 79l-106 -2q-100 0 -141.5 57.5t-41.5 180.5q0 99 23 152.5t64 72.5t105 19q88 0 137 -34.5zM179 124.5q24 -54.5 104 -54.5h70 v228q0 112 -90 112q-108 0 -108 -172q0 -59 24 -113.5zM198 659l59 6q9 -20 25 -53.5t33 -67t29 -54.5l-46 -25q-7 12 -20 36.5t-27.5 52t-24.5 49.5q-11 -26 -24 -55.5t-24 -53t-16 -31.5l-45 19q5 10 16 32.5t24 50t24 53t17 41.5z" />
<glyph unicode="&#x6c9;" horiz-adv-x="472" arabic-form="final" d="M528 0h-85v-68q0 -34 -12.5 -70.5t-46 -63.5t-91.5 -27q-44 0 -77 16.5t-46 37.5q35 -8 62 -8q55 0 88 29.5t33 74.5l1 79l-106 -2q-100 0 -141.5 57.5t-41.5 180.5q0 99 23 152.5t64 72.5t105 19q88 0 137 -34.5t49 -123.5v-252h85v-70zM179 124.5q24 -54.5 104 -54.5 h70v228q0 112 -90 112q-108 0 -108 -172q0 -59 24 -113.5zM198 653l59 6q9 -20 25 -53.5t33 -67t29 -54.5l-46 -25q-7 12 -20 36.5t-27.5 52t-24.5 49.5q-11 -26 -24 -55.5t-24 -53t-16 -31.5l-45 19q5 10 16 32.5t24 50t24 53t17 41.5z" />
<glyph unicode="&#x6d0;" horiz-adv-x="760" arabic-form="isolated" d="M744 164.5q57 -31.5 57 -112.5q0 -67 -43 -133.5t-131.5 -110.5t-215.5 -44q-207 0 -276.5 100.5t-69.5 214.5q0 77 26 127.5t77 50.5q18 0 31.5 -6t18.5 -14q-24 -25 -43 -74t-19 -110q0 -98 61 -158.5t202 -60.5q110 0 175.5 36t91.5 84t26 89q0 78 -106 78 q-36 0 -86 -8q-34 -4 -41 -4q-28 0 -45.5 25.5t-17.5 84.5q0 79 33 138.5t87 91t116 31.5q40 0 64 -13t32.5 -31.5t6.5 -36.5q-13 4 -35 7.5t-46 3.5q-99 0 -145 -61t-46 -169q0 -23 1 -34l8 39q66 11 112 11q83 0 140 -31.5zM483 183l9 3v-1zM239 -331q-17 17 -17 40 q0 24 17 41t40 17q25 0 42 -17t17 -41q0 -23 -17 -40t-42 -17q-23 0 -40 17zM239 -517q-17 17 -17 41q0 23 17 40t40 17q25 0 42 -17t17 -40q0 -24 -17 -41t-42 -17q-23 0 -40 17z" />
<glyph unicode="&#x6d0;" horiz-adv-x="736" arabic-form="final" d="M189.5 -186.5q-76.5 49.5 -100.5 111t-24 115.5q0 65 28.5 107.5t74.5 42.5q18 0 31.5 -6.5t18.5 -14.5q-26 -21 -44 -66.5t-18 -92.5q0 -79 61.5 -128t203.5 -49q82 0 140.5 21.5t88 59.5t29.5 86h-29q-48 0 -70 20.5t-22 49.5q0 15 4 24q13 -9 36.5 -16.5t50.5 -7.5 h263v-70h-145q0 -56 -35.5 -110t-111 -90t-189.5 -36h-22q-143 0 -219.5 49.5zM209 -331q-17 17 -17 40q0 24 17 41t40 17q25 0 42 -17t17 -41q0 -23 -17 -40t-42 -17q-23 0 -40 17zM209 -517q-17 17 -17 41q0 23 17 40t40 17q25 0 42 -17t17 -40q0 -24 -17 -41t-42 -17 q-23 0 -40 17z" />
<glyph unicode="&#x6d0;" horiz-adv-x="269" arabic-form="initial" d="M0 70h67q69 0 89.5 56t20.5 114q0 63 -16.5 119.5t-68.5 100.5q22 20 55 20q63 0 91.5 -62t28.5 -148q0 -110 -47 -190t-160 -80h-60v70zM-10 -104q-17 17 -17 40q0 24 17 41t40 17q25 0 42 -17t17 -41q0 -23 -17 -40t-42 -17q-23 0 -40 17zM-10 -290q-17 17 -17 41 q0 23 17 40t40 17q25 0 42 -17t17 -40q0 -24 -17 -41t-42 -17q-23 0 -40 17z" />
<glyph unicode="&#x6d0;" horiz-adv-x="343" arabic-form="medial" d="M329 70v-70h-95q-33 0 -54.5 6.5t-39.5 19.5q-36 -23 -83 -26h-57v70h57q30 1 57 12v352q0 46 45 46t45 -45v-283q0 -36 4.5 -59t21.5 -23h99zM53 -104q-17 17 -17 40q0 24 17 41t40 17q25 0 42 -17t17 -41q0 -23 -17 -40t-42 -17q-23 0 -40 17zM53 -290q-17 17 -17 41 q0 23 17 40t40 17q25 0 42 -17t17 -40q0 -24 -17 -41t-42 -17q-23 0 -40 17z" />
<glyph unicode="&#x649;" horiz-adv-x="332" arabic-form="initial" d="M0 70h67q69 0 89.5 56t20.5 114q0 63 -16.5 119.5t-68.5 100.5q22 20 55 20q63 0 91.5 -62t28.5 -148q0 -110 -47 -190t-160 -80h-60v70z" />
<glyph unicode="&#x649;" horiz-adv-x="329" arabic-form="medial" d="M329 70v-70h-95q-33 0 -54.5 6.5t-39.5 19.5q-36 -23 -83 -26h-57v70h57q30 1 57 12v352q0 46 45 46t45 -45v-283q0 -36 4.5 -59t21.5 -23h99z" />
<glyph unicode="&#xfbea;" horiz-adv-x="560" arabic-form="isolated" d="M291 70h67q69 0 89.5 56t20.5 114q0 63 -16.5 119.5t-68.5 100.5q22 20 55 20q63 0 91.5 -62t28.5 -148q0 -110 -47 -190t-160 -80h-60v70zM335 566q0 12 9 19.5t21 7.5q8 0 14 -3q-12 13 -22.5 36.5t-10.5 48.5q0 42 28.5 68t79.5 26q62 0 62 -40q0 -16 -9 -24t-20 -8 q-9 0 -13 4q1 18 -11.5 29t-28.5 14q-12 -3 -21.5 -18.5t-9.5 -42.5q0 -77 82 -77q24 0 34 4q21 0 21 -19q0 -6 -3 -11.5t-7 -5.5q-66 -6 -123.5 -14.5t-63.5 -14.5q-8 13 -8 21zM149 49q-43 49 -44 145v318q0 43 -17 76t-38 47q6 8 25.5 16.5t40.5 8.5q33 0 56 -25.5 t23 -85.5v-361q0 -47 23 -82.5t66 -35.5h31v-70h-57q-66 0 -109 49z" />
<glyph unicode="&#xfbeb;" horiz-adv-x="634" arabic-form="final" d="M620 70v-70h-95q-33 0 -54.5 6.5t-39.5 19.5q-36 -23 -83 -26h-57v70h57q30 1 57 12v352q0 46 45 46t45 -45v-283q0 -36 4.5 -59t21.5 -23h99zM347 566q0 12 9 19.5t21 7.5q8 0 14 -3q-12 13 -22.5 36.5t-10.5 48.5q0 42 28.5 68t79.5 26q62 0 62 -40q0 -16 -9 -24 t-20 -8q-9 0 -13 4q1 18 -11.5 29t-28.5 14q-12 -3 -21.5 -18.5t-9.5 -42.5q0 -77 82 -77q24 0 34 4q21 0 21 -19q0 -6 -3 -11.5t-7 -5.5q-66 -6 -123.5 -14.5t-63.5 -14.5q-8 13 -8 21zM149 49q-43 49 -44 145v318q0 43 -17 76t-38 47q6 8 25.5 16.5t40.5 8.5 q33 0 56 -25.5t23 -85.5v-361q0 -47 23 -82.5t66 -35.5h31v-70h-57q-66 0 -109 49z" />
<glyph unicode="&#xfbec;" horiz-adv-x="755" arabic-form="isolated" d="M486 70h67q69 0 89.5 56t20.5 114q0 63 -16.5 119.5t-68.5 100.5q22 20 55 20q63 0 91.5 -62t28.5 -148q0 -110 -47 -190t-160 -80h-60v70zM530 566q0 12 9 19.5t21 7.5q8 0 14 -3q-12 13 -22.5 36.5t-10.5 48.5q0 42 28.5 68t79.5 26q62 0 62 -40q0 -16 -9 -24t-20 -8 q-9 0 -13 4q1 18 -11.5 29t-28.5 14q-12 -3 -21.5 -18.5t-9.5 -42.5q0 -77 82 -77q24 0 34 4q21 0 21 -19q0 -6 -3 -11.5t-7 -5.5q-66 -6 -123.5 -14.5t-63.5 -14.5q-8 13 -8 21zM511 70v-70h-74q-33 0 -51 6t-32 14q-46 -22 -106 -22q-100 0 -141.5 57.5t-41.5 180.5 q0 99 23 152.5t64 72.5t105 19q88 0 137 -34.5t49 -123.5v-252h68zM179 124.5q24 -54.5 104 -54.5h70v228q0 112 -90 112q-108 0 -108 -172q0 -59 24 -113.5zM348 22h-1h1z" />
<glyph unicode="&#xfbed;" horiz-adv-x="829" arabic-form="final" d="M815 70v-70h-95q-33 0 -54.5 6.5t-39.5 19.5q-36 -23 -83 -26h-57v70h57q30 1 57 12v352q0 46 45 46t45 -45v-283q0 -36 4.5 -59t21.5 -23h99zM542 566q0 12 9 19.5t21 7.5q8 0 14 -3q-12 13 -22.5 36.5t-10.5 48.5q0 42 28.5 68t79.5 26q62 0 62 -40q0 -16 -9 -24 t-20 -8q-9 0 -13 4q1 18 -11.5 29t-28.5 14q-12 -3 -21.5 -18.5t-9.5 -42.5q0 -77 82 -77q24 0 34 4q21 0 21 -19q0 -6 -3 -11.5t-7 -5.5q-66 -6 -123.5 -14.5t-63.5 -14.5q-8 13 -8 21zM511 70v-70h-74q-33 0 -51 6t-32 14q-46 -22 -106 -22q-100 0 -141.5 57.5 t-41.5 180.5q0 99 23 152.5t64 72.5t105 19q88 0 137 -34.5t49 -123.5v-252h68zM179 124.5q24 -54.5 104 -54.5h70v228q0 112 -90 112q-108 0 -108 -172q0 -59 24 -113.5zM348 22h-1h1z" />
<glyph unicode="&#xfbee;" horiz-adv-x="741" arabic-form="isolated" d="M472 70h67q69 0 89.5 56t20.5 114q0 63 -16.5 119.5t-68.5 100.5q22 20 55 20q63 0 91.5 -62t28.5 -148q0 -110 -47 -190t-160 -80h-60v70zM516 566q0 12 9 19.5t21 7.5q8 0 14 -3q-12 13 -22.5 36.5t-10.5 48.5q0 42 28.5 68t79.5 26q62 0 62 -40q0 -16 -9 -24t-20 -8 q-9 0 -13 4q1 18 -11.5 29t-28.5 14q-12 -3 -21.5 -18.5t-9.5 -42.5q0 -77 82 -77q24 0 34 4q21 0 21 -19q0 -6 -3 -11.5t-7 -5.5q-66 -6 -123.5 -14.5t-63.5 -14.5q-8 13 -8 21zM528 0h-85v-68q0 -34 -12.5 -70.5t-46 -63.5t-91.5 -27q-44 0 -77 16.5t-46 37.5q35 -8 62 -8 q55 0 88 29.5t33 74.5l1 79l-106 -2q-100 0 -141.5 57.5t-41.5 180.5q0 99 23 152.5t64 72.5t105 19q88 0 137 -34.5t49 -123.5v-252h85v-70zM179 124.5q24 -54.5 104 -54.5h70v228q0 112 -90 112q-108 0 -108 -172q0 -59 24 -113.5z" />
<glyph unicode="&#xfbef;" horiz-adv-x="815" arabic-form="final" d="M801 70v-70h-95q-33 0 -54.5 6.5t-39.5 19.5q-36 -23 -83 -26h-57v70h57q30 1 57 12v352q0 46 45 46t45 -45v-283q0 -36 4.5 -59t21.5 -23h99zM528 566q0 12 9 19.5t21 7.5q8 0 14 -3q-12 13 -22.5 36.5t-10.5 48.5q0 42 28.5 68t79.5 26q62 0 62 -40q0 -16 -9 -24 t-20 -8q-9 0 -13 4q1 18 -11.5 29t-28.5 14q-12 -3 -21.5 -18.5t-9.5 -42.5q0 -77 82 -77q24 0 34 4q21 0 21 -19q0 -6 -3 -11.5t-7 -5.5q-66 -6 -123.5 -14.5t-63.5 -14.5q-8 13 -8 21zM528 0h-85v-68q0 -34 -12.5 -70.5t-46 -63.5t-91.5 -27q-44 0 -77 16.5t-46 37.5 q35 -8 62 -8q55 0 88 29.5t33 74.5l1 79l-106 -2q-100 0 -141.5 57.5t-41.5 180.5q0 99 23 152.5t64 72.5t105 19q88 0 137 -34.5t49 -123.5v-252h85v-70zM179 124.5q24 -54.5 104 -54.5h70v228q0 112 -90 112q-108 0 -108 -172q0 -59 24 -113.5z" />
<glyph unicode="&#xfbf0;" horiz-adv-x="741" arabic-form="isolated" d="M472 70h67q69 0 89.5 56t20.5 114q0 63 -16.5 119.5t-68.5 100.5q22 20 55 20q63 0 91.5 -62t28.5 -148q0 -110 -47 -190t-160 -80h-60v70zM516 566q0 12 9 19.5t21 7.5q8 0 14 -3q-12 13 -22.5 36.5t-10.5 48.5q0 42 28.5 68t79.5 26q62 0 62 -40q0 -16 -9 -24t-20 -8 q-9 0 -13 4q1 18 -11.5 29t-28.5 14q-12 -3 -21.5 -18.5t-9.5 -42.5q0 -77 82 -77q24 0 34 4q21 0 21 -19q0 -6 -3 -11.5t-7 -5.5q-66 -6 -123.5 -14.5t-63.5 -14.5q-8 13 -8 21zM528 0h-85v-68q0 -34 -12.5 -70.5t-46 -63.5t-91.5 -27q-44 0 -77 16.5t-46 37.5q35 -8 62 -8 q55 0 88 29.5t33 74.5l1 79l-106 -2q-100 0 -141.5 57.5t-41.5 180.5q0 99 23 152.5t64 72.5t105 19q88 0 137 -34.5t49 -123.5v-252h85v-70zM179 124.5q24 -54.5 104 -54.5h70v228q0 112 -90 112q-108 0 -108 -172q0 -59 24 -113.5zM-47.5 436.5q-6.5 6.5 -6.5 16.5 q0 9 6.5 16t16.5 7l83 4q-16 10 -26 27t-10 37q0 32 22.5 54t53.5 22t54 -21.5t23 -60.5q0 -57 -55 -82.5t-145 -25.5q-10 0 -16.5 6.5zM114 522.5q9 9.5 9 21.5q0 13 -9 22t-22 9t-21.5 -9t-8.5 -22q0 -12 9 -21.5t21 -9.5q13 0 22 9.5z" />
<glyph unicode="&#xfbf1;" horiz-adv-x="815" arabic-form="final" d="M801 70v-70h-95q-33 0 -54.5 6.5t-39.5 19.5q-36 -23 -83 -26h-57v70h57q30 1 57 12v352q0 46 45 46t45 -45v-283q0 -36 4.5 -59t21.5 -23h99zM528 566q0 12 9 19.5t21 7.5q8 0 14 -3q-12 13 -22.5 36.5t-10.5 48.5q0 42 28.5 68t79.5 26q62 0 62 -40q0 -16 -9 -24 t-20 -8q-9 0 -13 4q1 18 -11.5 29t-28.5 14q-12 -3 -21.5 -18.5t-9.5 -42.5q0 -77 82 -77q24 0 34 4q21 0 21 -19q0 -6 -3 -11.5t-7 -5.5q-66 -6 -123.5 -14.5t-63.5 -14.5q-8 13 -8 21zM528 0h-85v-68q0 -34 -12.5 -70.5t-46 -63.5t-91.5 -27q-44 0 -77 16.5t-46 37.5 q35 -8 62 -8q55 0 88 29.5t33 74.5l1 79l-106 -2q-100 0 -141.5 57.5t-41.5 180.5q0 99 23 152.5t64 72.5t105 19q88 0 137 -34.5t49 -123.5v-252h85v-70zM179 124.5q24 -54.5 104 -54.5h70v228q0 112 -90 112q-108 0 -108 -172q0 -59 24 -113.5zM-47.5 436.5 q-6.5 6.5 -6.5 16.5q0 9 6.5 16t16.5 7l83 4q-16 10 -26 27t-10 37q0 32 22.5 54t53.5 22t54 -21.5t23 -60.5q0 -57 -55 -82.5t-145 -25.5q-10 0 -16.5 6.5zM114 522.5q9 9.5 9 21.5q0 13 -9 22t-22 9t-21.5 -9t-8.5 -22q0 -12 9 -21.5t21 -9.5q13 0 22 9.5z" />
<glyph unicode="&#xfbf2;" horiz-adv-x="741" arabic-form="isolated" d="M472 70h67q69 0 89.5 56t20.5 114q0 63 -16.5 119.5t-68.5 100.5q22 20 55 20q63 0 91.5 -62t28.5 -148q0 -110 -47 -190t-160 -80h-60v70zM516 566q0 12 9 19.5t21 7.5q8 0 14 -3q-12 13 -22.5 36.5t-10.5 48.5q0 42 28.5 68t79.5 26q62 0 62 -40q0 -16 -9 -24t-20 -8 q-9 0 -13 4q1 18 -11.5 29t-28.5 14q-12 -3 -21.5 -18.5t-9.5 -42.5q0 -77 82 -77q24 0 34 4q21 0 21 -19q0 -6 -3 -11.5t-7 -5.5q-66 -6 -123.5 -14.5t-63.5 -14.5q-8 13 -8 21zM528 0h-85v-68q0 -34 -12.5 -70.5t-46 -63.5t-91.5 -27q-44 0 -77 16.5t-46 37.5q35 -8 62 -8 q55 0 88 29.5t33 74.5l1 79l-106 -2q-100 0 -141.5 57.5t-41.5 180.5q0 99 23 152.5t64 72.5t105 19q88 0 137 -34.5t49 -123.5v-252h85v-70zM179 124.5q24 -54.5 104 -54.5h70v228q0 112 -90 112q-108 0 -108 -172q0 -59 24 -113.5zM204 465q-9 20 -25 53.5t-32.5 67 t-29.5 54.5l46 25q7 -12 20 -36.5t27.5 -52t24.5 -49.5q11 26 24 55.5t24 53t16 31.5l45 -19q-5 -10 -16 -32.5t-23.5 -50t-24 -53t-17.5 -41.5z" />
<glyph unicode="&#xfbf3;" horiz-adv-x="815" arabic-form="final" d="M801 70v-70h-95q-33 0 -54.5 6.5t-39.5 19.5q-36 -23 -83 -26h-57v70h57q30 1 57 12v352q0 46 45 46t45 -45v-283q0 -36 4.5 -59t21.5 -23h99zM528 566q0 12 9 19.5t21 7.5q8 0 14 -3q-12 13 -22.5 36.5t-10.5 48.5q0 42 28.5 68t79.5 26q62 0 62 -40q0 -16 -9 -24 t-20 -8q-9 0 -13 4q1 18 -11.5 29t-28.5 14q-12 -3 -21.5 -18.5t-9.5 -42.5q0 -77 82 -77q24 0 34 4q21 0 21 -19q0 -6 -3 -11.5t-7 -5.5q-66 -6 -123.5 -14.5t-63.5 -14.5q-8 13 -8 21zM528 0h-85v-68q0 -34 -12.5 -70.5t-46 -63.5t-91.5 -27q-44 0 -77 16.5t-46 37.5 q35 -8 62 -8q55 0 88 29.5t33 74.5l1 79l-106 -2q-100 0 -141.5 57.5t-41.5 180.5q0 99 23 152.5t64 72.5t105 19q88 0 137 -34.5t49 -123.5v-252h85v-70zM179 124.5q24 -54.5 104 -54.5h70v228q0 112 -90 112q-108 0 -108 -172q0 -59 24 -113.5zM204 465q-9 20 -25 53.5 t-32.5 67t-29.5 54.5l46 25q7 -12 20 -36.5t27.5 -52t24.5 -49.5q11 26 24 55.5t24 53t16 31.5l45 -19q-5 -10 -16 -32.5t-23.5 -50t-24 -53t-17.5 -41.5z" />
<glyph unicode="&#xfbf4;" horiz-adv-x="741" arabic-form="isolated" d="M472 70h67q69 0 89.5 56t20.5 114q0 63 -16.5 119.5t-68.5 100.5q22 20 55 20q63 0 91.5 -62t28.5 -148q0 -110 -47 -190t-160 -80h-60v70zM516 566q0 12 9 19.5t21 7.5q8 0 14 -3q-12 13 -22.5 36.5t-10.5 48.5q0 42 28.5 68t79.5 26q62 0 62 -40q0 -16 -9 -24t-20 -8 q-9 0 -13 4q1 18 -11.5 29t-28.5 14q-12 -3 -21.5 -18.5t-9.5 -42.5q0 -77 82 -77q24 0 34 4q21 0 21 -19q0 -6 -3 -11.5t-7 -5.5q-66 -6 -123.5 -14.5t-63.5 -14.5q-8 13 -8 21zM528 0h-85v-68q0 -34 -12.5 -70.5t-46 -63.5t-91.5 -27q-44 0 -77 16.5t-46 37.5q35 -8 62 -8 q55 0 88 29.5t33 74.5l1 79l-106 -2q-100 0 -141.5 57.5t-41.5 180.5q0 99 23 152.5t64 72.5t105 19q88 0 137 -34.5t49 -123.5v-252h85v-70zM179 124.5q24 -54.5 104 -54.5h70v228q0 112 -90 112q-108 0 -108 -172q0 -59 24 -113.5zM158 374.5q-7 6.5 -7 16.5q0 25 -6 46.5 t-28 44.5q-6 8 -6 16q0 12 8 17q6 6 14 6q10 0 18 -8q30 -32 38 -62t8 -60q0 -10 -6.5 -16.5t-16.5 -6.5q-9 0 -16 6.5z" />
<glyph unicode="&#xfbf5;" horiz-adv-x="815" arabic-form="final" d="M801 70v-70h-95q-33 0 -54.5 6.5t-39.5 19.5q-36 -23 -83 -26h-57v70h57q30 1 57 12v352q0 46 45 46t45 -45v-283q0 -36 4.5 -59t21.5 -23h99zM528 566q0 12 9 19.5t21 7.5q8 0 14 -3q-12 13 -22.5 36.5t-10.5 48.5q0 42 28.5 68t79.5 26q62 0 62 -40q0 -16 -9 -24 t-20 -8q-9 0 -13 4q1 18 -11.5 29t-28.5 14q-12 -3 -21.5 -18.5t-9.5 -42.5q0 -77 82 -77q24 0 34 4q21 0 21 -19q0 -6 -3 -11.5t-7 -5.5q-66 -6 -123.5 -14.5t-63.5 -14.5q-8 13 -8 21zM528 0h-85v-68q0 -34 -12.5 -70.5t-46 -63.5t-91.5 -27q-44 0 -77 16.5t-46 37.5 q35 -8 62 -8q55 0 88 29.5t33 74.5l1 79l-106 -2q-100 0 -141.5 57.5t-41.5 180.5q0 99 23 152.5t64 72.5t105 19q88 0 137 -34.5t49 -123.5v-252h85v-70zM179 124.5q24 -54.5 104 -54.5h70v228q0 112 -90 112q-108 0 -108 -172q0 -59 24 -113.5zM158 374.5q-7 6.5 -7 16.5 q0 25 -6 46.5t-28 44.5q-6 8 -6 16q0 12 8 17q6 6 14 6q10 0 18 -8q30 -32 38 -62t8 -60q0 -10 -6.5 -16.5t-16.5 -6.5q-9 0 -16 6.5z" />
<glyph unicode="&#xfbf6;" horiz-adv-x="1005" arabic-form="isolated" d="M736 70h67q69 0 89.5 56t20.5 114q0 63 -16.5 119.5t-68.5 100.5q22 20 55 20q63 0 91.5 -62t28.5 -148q0 -110 -47 -190t-160 -80h-60v70zM780 566q0 12 9 19.5t21 7.5q8 0 14 -3q-12 13 -22.5 36.5t-10.5 48.5q0 42 28.5 68t79.5 26q62 0 62 -40q0 -16 -9 -24t-20 -8 q-9 0 -13 4q1 18 -11.5 29t-28.5 14q-12 -3 -21.5 -18.5t-9.5 -42.5q0 -77 82 -77q24 0 34 4q21 0 21 -19q0 -6 -3 -11.5t-7 -5.5q-66 -6 -123.5 -14.5t-63.5 -14.5q-8 13 -8 21zM189.5 -186.5q-76.5 49.5 -100.5 111t-24 115.5q0 65 28.5 107.5t74.5 42.5q18 0 31.5 -6.5 t18.5 -14.5q-26 -21 -44 -66.5t-18 -92.5q0 -79 61.5 -128t203.5 -49q82 0 140.5 21.5t88 59.5t29.5 86h-29q-48 0 -70 20.5t-22 49.5q0 15 4 24q13 -9 36.5 -16.5t50.5 -7.5h263v-70h-145q0 -56 -35.5 -110t-111 -90t-189.5 -36h-22q-143 0 -219.5 49.5zM209 -331 q-17 17 -17 40q0 24 17 41t40 17q25 0 42 -17t17 -41q0 -23 -17 -40t-42 -17q-23 0 -40 17zM209 -517q-17 17 -17 41q0 23 17 40t40 17q25 0 42 -17t17 -40q0 -24 -17 -41t-42 -17q-23 0 -40 17z" />
<glyph unicode="&#xfbf7;" horiz-adv-x="1079" arabic-form="final" d="M1065 70v-70h-95q-33 0 -54.5 6.5t-39.5 19.5q-36 -23 -83 -26h-57v70h57q30 1 57 12v352q0 46 45 46t45 -45v-283q0 -36 4.5 -59t21.5 -23h99zM792 566q0 12 9 19.5t21 7.5q8 0 14 -3q-12 13 -22.5 36.5t-10.5 48.5q0 42 28.5 68t79.5 26q62 0 62 -40q0 -16 -9 -24 t-20 -8q-9 0 -13 4q1 18 -11.5 29t-28.5 14q-12 -3 -21.5 -18.5t-9.5 -42.5q0 -77 82 -77q24 0 34 4q21 0 21 -19q0 -6 -3 -11.5t-7 -5.5q-66 -6 -123.5 -14.5t-63.5 -14.5q-8 13 -8 21zM189.5 -186.5q-76.5 49.5 -100.5 111t-24 115.5q0 65 28.5 107.5t74.5 42.5 q18 0 31.5 -6.5t18.5 -14.5q-26 -21 -44 -66.5t-18 -92.5q0 -79 61.5 -128t203.5 -49q82 0 140.5 21.5t88 59.5t29.5 86h-29q-48 0 -70 20.5t-22 49.5q0 15 4 24q13 -9 36.5 -16.5t50.5 -7.5h263v-70h-145q0 -56 -35.5 -110t-111 -90t-189.5 -36h-22q-143 0 -219.5 49.5z M209 -331q-17 17 -17 40q0 24 17 41t40 17q25 0 42 -17t17 -41q0 -23 -17 -40t-42 -17q-23 0 -40 17zM209 -517q-17 17 -17 41q0 23 17 40t40 17q25 0 42 -17t17 -40q0 -24 -17 -41t-42 -17q-23 0 -40 17z" />
<glyph unicode="&#xfbf8;" horiz-adv-x="612" arabic-form="initial" d="M343 70h67q69 0 89.5 56t20.5 114q0 63 -16.5 119.5t-68.5 100.5q22 20 55 20q63 0 91.5 -62t28.5 -148q0 -110 -47 -190t-160 -80h-60v70zM387 566q0 12 9 19.5t21 7.5q8 0 14 -3q-12 13 -22.5 36.5t-10.5 48.5q0 42 28.5 68t79.5 26q62 0 62 -40q0 -16 -9 -24t-20 -8 q-9 0 -13 4q1 18 -11.5 29t-28.5 14q-12 -3 -21.5 -18.5t-9.5 -42.5q0 -77 82 -77q24 0 34 4q21 0 21 -19q0 -6 -3 -11.5t-7 -5.5q-66 -6 -123.5 -14.5t-63.5 -14.5q-8 13 -8 21zM329 70v-70h-95q-33 0 -54.5 6.5t-39.5 19.5q-36 -23 -83 -26h-57v70h57q30 1 57 12v352 q0 46 45 46t45 -45v-283q0 -36 4.5 -59t21.5 -23h99zM53 -104q-17 17 -17 40q0 24 17 41t40 17q25 0 42 -17t17 -41q0 -23 -17 -40t-42 -17q-23 0 -40 17zM53 -290q-17 17 -17 41q0 23 17 40t40 17q25 0 42 -17t17 -40q0 -24 -17 -41t-42 -17q-23 0 -40 17z" />
<glyph unicode="&#xfbf9;" horiz-adv-x="1005" arabic-form="isolated" d="M736 70h67q69 0 89.5 56t20.5 114q0 63 -16.5 119.5t-68.5 100.5q22 20 55 20q63 0 91.5 -62t28.5 -148q0 -110 -47 -190t-160 -80h-60v70zM780 566q0 12 9 19.5t21 7.5q8 0 14 -3q-12 13 -22.5 36.5t-10.5 48.5q0 42 28.5 68t79.5 26q62 0 62 -40q0 -16 -9 -24t-20 -8 q-9 0 -13 4q1 18 -11.5 29t-28.5 14q-12 -3 -21.5 -18.5t-9.5 -42.5q0 -77 82 -77q24 0 34 4q21 0 21 -19q0 -6 -3 -11.5t-7 -5.5q-66 -6 -123.5 -14.5t-63.5 -14.5q-8 13 -8 21zM189.5 -186.5q-76.5 49.5 -100.5 111t-24 115.5q0 65 28.5 107.5t74.5 42.5q18 0 31.5 -6.5 t18.5 -14.5q-26 -21 -44 -66.5t-18 -92.5q0 -79 61.5 -128t203.5 -49q82 0 140.5 21.5t88 59.5t29.5 86h-29q-48 0 -70 20.5t-22 49.5q0 15 4 24q13 -9 36.5 -16.5t50.5 -7.5h263v-70h-145q0 -56 -35.5 -110t-111 -90t-189.5 -36h-22q-143 0 -219.5 49.5z" />
<glyph unicode="&#xfbfa;" horiz-adv-x="1079" arabic-form="final" d="M1065 70v-70h-95q-33 0 -54.5 6.5t-39.5 19.5q-36 -23 -83 -26h-57v70h57q30 1 57 12v352q0 46 45 46t45 -45v-283q0 -36 4.5 -59t21.5 -23h99zM792 566q0 12 9 19.5t21 7.5q8 0 14 -3q-12 13 -22.5 36.5t-10.5 48.5q0 42 28.5 68t79.5 26q62 0 62 -40q0 -16 -9 -24 t-20 -8q-9 0 -13 4q1 18 -11.5 29t-28.5 14q-12 -3 -21.5 -18.5t-9.5 -42.5q0 -77 82 -77q24 0 34 4q21 0 21 -19q0 -6 -3 -11.5t-7 -5.5q-66 -6 -123.5 -14.5t-63.5 -14.5q-8 13 -8 21zM189.5 -186.5q-76.5 49.5 -100.5 111t-24 115.5q0 65 28.5 107.5t74.5 42.5 q18 0 31.5 -6.5t18.5 -14.5q-26 -21 -44 -66.5t-18 -92.5q0 -79 61.5 -128t203.5 -49q82 0 140.5 21.5t88 59.5t29.5 86h-29q-48 0 -70 20.5t-22 49.5q0 15 4 24q13 -9 36.5 -16.5t50.5 -7.5h263v-70h-145q0 -56 -35.5 -110t-111 -90t-189.5 -36h-22q-143 0 -219.5 49.5z " />
<glyph unicode="&#xfbfb;" horiz-adv-x="612" arabic-form="initial" d="M343 70h67q69 0 89.5 56t20.5 114q0 63 -16.5 119.5t-68.5 100.5q22 20 55 20q63 0 91.5 -62t28.5 -148q0 -110 -47 -190t-160 -80h-60v70zM387 566q0 12 9 19.5t21 7.5q8 0 14 -3q-12 13 -22.5 36.5t-10.5 48.5q0 42 28.5 68t79.5 26q62 0 62 -40q0 -16 -9 -24t-20 -8 q-9 0 -13 4q1 18 -11.5 29t-28.5 14q-12 -3 -21.5 -18.5t-9.5 -42.5q0 -77 82 -77q24 0 34 4q21 0 21 -19q0 -6 -3 -11.5t-7 -5.5q-66 -6 -123.5 -14.5t-63.5 -14.5q-8 13 -8 21zM329 70v-70h-95q-33 0 -54.5 6.5t-39.5 19.5q-36 -23 -83 -26h-57v70h57q30 1 57 12v352 q0 46 45 46t45 -45v-283q0 -36 4.5 -59t21.5 -23h99z" />
<glyph unicode="&#x6cc;" horiz-adv-x="760" arabic-form="isolated" d="M744 164.5q57 -31.5 57 -112.5q0 -67 -43 -133.5t-131.5 -110.5t-215.5 -44q-207 0 -276.5 100.5t-69.5 214.5q0 77 26 127.5t77 50.5q18 0 31.5 -6t18.5 -14q-24 -25 -43 -74t-19 -110q0 -98 61 -158.5t202 -60.5q110 0 175.5 36t91.5 84t26 89q0 78 -106 78 q-36 0 -86 -8q-34 -4 -41 -4q-28 0 -45.5 25.5t-17.5 84.5q0 79 33 138.5t87 91t116 31.5q40 0 64 -13t32.5 -31.5t6.5 -36.5q-13 4 -35 7.5t-46 3.5q-99 0 -145 -61t-46 -169q0 -23 1 -34l8 39q66 11 112 11q83 0 140 -31.5zM483 183l9 3v-1z" />
<glyph unicode="&#x6cc;" horiz-adv-x="912" arabic-form="final" d="M189.5 -186.5q-76.5 49.5 -100.5 111t-24 115.5q0 65 28.5 107.5t74.5 42.5q18 0 31.5 -6.5t18.5 -14.5q-26 -21 -44 -66.5t-18 -92.5q0 -79 61.5 -128t203.5 -49q82 0 140.5 21.5t88 59.5t29.5 86h-29q-48 0 -70 20.5t-22 49.5q0 15 4 24q13 -9 36.5 -16.5t50.5 -7.5 h263v-70h-145q0 -56 -35.5 -110t-111 -90t-189.5 -36h-22q-143 0 -219.5 49.5z" />
<glyph unicode="&#x6cc;" horiz-adv-x="332" arabic-form="initial" d="M0 70h67q69 0 89.5 56t20.5 114q0 63 -16.5 119.5t-68.5 100.5q22 20 55 20q63 0 91.5 -62t28.5 -148q0 -110 -47 -190t-160 -80h-60v70zM34 -178q-17 17 -17 40q0 24 17 41t40 17q24 0 40.5 -17t16.5 -41q0 -23 -16.5 -40t-40.5 -17q-23 0 -40 17zM180 -178 q-17 17 -17 40q0 24 17 41t40 17q24 0 40.5 -17t16.5 -41q0 -23 -16.5 -40t-40.5 -17q-23 0 -40 17z" />
<glyph unicode="&#x6cc;" horiz-adv-x="329" arabic-form="medial" d="M329 70v-70h-95q-33 0 -54.5 6.5t-39.5 19.5q-36 -23 -83 -26h-57v70h57q30 1 57 12v352q0 46 45 46t45 -45v-283q0 -36 4.5 -59t21.5 -23h99zM46 -178q-17 17 -17 40q0 24 17 41t40 17q24 0 40.5 -17t16.5 -41q0 -23 -16.5 -40t-40.5 -17q-23 0 -40 17zM192 -178 q-17 17 -17 40q0 24 17 41t40 17q24 0 40.5 -17t16.5 -41q0 -23 -16.5 -40t-40.5 -17q-23 0 -40 17z" />
<glyph unicode="&#xfc00;" horiz-adv-x="918" arabic-form="isolated" d="M649 70h67q69 0 89.5 56t20.5 114q0 63 -16.5 119.5t-68.5 100.5q22 20 55 20q63 0 91.5 -62t28.5 -148q0 -110 -47 -190t-160 -80h-60v70zM693 566q0 12 9 19.5t21 7.5q8 0 14 -3q-12 13 -22.5 36.5t-10.5 48.5q0 42 28.5 68t79.5 26q62 0 62 -40q0 -16 -9 -24t-20 -8 q-9 0 -13 4q1 18 -11.5 29t-28.5 14q-12 -3 -21.5 -18.5t-9.5 -42.5q0 -77 82 -77q24 0 34 4q21 0 21 -19q0 -6 -3 -11.5t-7 -5.5q-66 -6 -123.5 -14.5t-63.5 -14.5q-8 13 -8 21zM563 70v-70h-29q-33 0 -54.5 6.5t-39.5 19.5q-46 -26 -112 -26h-189q0 -83 19 -146t67 -103 q-7 -6 -24.5 -11.5t-34.5 -5.5q-43 0 -69 37t-36.5 85.5t-10.5 85.5q0 128 117 128h97q58 0 92.5 6.5t63 41.5t28.5 113q0 90 -51 134.5t-179 44.5l-58 -1q-27 0 -43 15.5t-23 36.5q-7 22 -5 39q14 -10 30 -17t40 -7l28 1q24 3 63 3q149 0 218.5 -63t69.5 -184 q0 -102 -47 -163h72zM335 -70q17 -17 17 -41q0 -23 -17 -40t-40 -17q-25 0 -42 17t-17 40q0 24 17 41t42 17q23 0 40 -17z" />
<glyph unicode="&#xfc01;" horiz-adv-x="918" arabic-form="isolated" d="M649 70h67q69 0 89.5 56t20.5 114q0 63 -16.5 119.5t-68.5 100.5q22 20 55 20q63 0 91.5 -62t28.5 -148q0 -110 -47 -190t-160 -80h-60v70zM693 566q0 12 9 19.5t21 7.5q8 0 14 -3q-12 13 -22.5 36.5t-10.5 48.5q0 42 28.5 68t79.5 26q62 0 62 -40q0 -16 -9 -24t-20 -8 q-9 0 -13 4q1 18 -11.5 29t-28.5 14q-12 -3 -21.5 -18.5t-9.5 -42.5q0 -77 82 -77q24 0 34 4q21 0 21 -19q0 -6 -3 -11.5t-7 -5.5q-66 -6 -123.5 -14.5t-63.5 -14.5q-8 13 -8 21zM563 70v-70h-29q-33 0 -54.5 6.5t-39.5 19.5q-46 -26 -112 -26h-189q0 -83 19 -146t67 -103 q-7 -6 -24.5 -11.5t-34.5 -5.5q-43 0 -69 37t-36.5 85.5t-10.5 85.5q0 128 117 128h97q58 0 92.5 6.5t63 41.5t28.5 113q0 90 -51 134.5t-179 44.5l-58 -1q-27 0 -43 15.5t-23 36.5q-7 22 -5 39q14 -10 30 -17t40 -7l28 1q24 3 63 3q149 0 218.5 -63t69.5 -184 q0 -102 -47 -163h72z" />
<glyph unicode="&#xfc02;" horiz-adv-x="831" arabic-form="isolated" d="M562 70h67q69 0 89.5 56t20.5 114q0 63 -16.5 119.5t-68.5 100.5q22 20 55 20q63 0 91.5 -62t28.5 -148q0 -110 -47 -190t-160 -80h-60v70zM606 566q0 12 9 19.5t21 7.5q8 0 14 -3q-12 13 -22.5 36.5t-10.5 48.5q0 42 28.5 68t79.5 26q62 0 62 -40q0 -16 -9 -24t-20 -8 q-9 0 -13 4q1 18 -11.5 29t-28.5 14q-12 -3 -21.5 -18.5t-9.5 -42.5q0 -77 82 -77q24 0 34 4q21 0 21 -19q0 -6 -3 -11.5t-7 -5.5q-66 -6 -123.5 -14.5t-63.5 -14.5q-8 13 -8 21zM680 70v-70h-115q-56 0 -91 25q-41 -25 -110 -25h-63q-62 0 -89 -30t-27 -73v-64 q0 -60 -23 -85.5t-56 -25.5q-21 0 -40.5 8.5t-25.5 16.5q21 14 38 47t17 76v39q0 38 17.5 81.5t60.5 64.5v268q0 89 49 123t137 34q64 0 105 -19t64 -72t23 -153q0 -112 -32 -166h161zM437 125q24 55 24 114q0 172 -108 172q-90 0 -90 -112v-229h70q80 0 104 55z" />
<glyph unicode="&#xfc03;" horiz-adv-x="1005" arabic-form="isolated" d="M736 70h67q69 0 89.5 56t20.5 114q0 63 -16.5 119.5t-68.5 100.5q22 20 55 20q63 0 91.5 -62t28.5 -148q0 -110 -47 -190t-160 -80h-60v70zM780 566q0 12 9 19.5t21 7.5q8 0 14 -3q-12 13 -22.5 36.5t-10.5 48.5q0 42 28.5 68t79.5 26q62 0 62 -40q0 -16 -9 -24t-20 -8 q-9 0 -13 4q1 18 -11.5 29t-28.5 14q-12 -3 -21.5 -18.5t-9.5 -42.5q0 -77 82 -77q24 0 34 4q21 0 21 -19q0 -6 -3 -11.5t-7 -5.5q-66 -6 -123.5 -14.5t-63.5 -14.5q-8 13 -8 21zM189.5 -186.5q-76.5 49.5 -100.5 111t-24 115.5q0 65 28.5 107.5t74.5 42.5q18 0 31.5 -6.5 t18.5 -14.5q-26 -21 -44 -66.5t-18 -92.5q0 -79 61.5 -128t203.5 -49q82 0 140.5 21.5t88 59.5t29.5 86h-29q-48 0 -70 20.5t-22 49.5q0 15 4 24q13 -9 36.5 -16.5t50.5 -7.5h263v-70h-145q0 -56 -35.5 -110t-111 -90t-189.5 -36h-22q-143 0 -219.5 49.5z" />
</font>
</defs>
</svg>
