<?xml version="1.0" standalone="no"?>
<!DOCTYPE svg PUBLIC "-//W3C//DTD SVG 1.1//EN" "http://www.w3.org/Graphics/SVG/1.1/DTD/svg11.dtd" >
<svg xmlns="http://www.w3.org/2000/svg" xmlns:xlink="http://www.w3.org/1999/xlink" version="1.1">
<metadata></metadata>
<defs>
<font id="el_messiriregular" horiz-adv-x="0" >
<font-face units-per-em="1000" ascent="800" descent="-200" />
<missing-glyph horiz-adv-x="250" />
<glyph unicode="&#xfedf;&#xfe82;" horiz-adv-x="646" arabic-form="isolated" d="M57 11q-7 11 -7 24t7 23.5t21 11.5h137v301q0 43 -17 76t-38 47q6 8 25.5 16.5t40.5 8.5q33 0 56 -25.5t23 -85.5v-338h96q43 0 66.5 35.5t23.5 82.5v324q0 43 -17 76t-38 47q6 8 25.5 16.5t40.5 8.5q33 0 56 -25.5t23 -85.5v-355q-1 -96 -44.5 -145t-109.5 -49h-349 q-14 0 -21 11zM246 576q-20 6 -46 18q-23 10 -39 15.5t-33 5.5q-19 0 -32 -8t-18 -8t1.5 18t26.5 33t54 15q20 0 37.5 -5t42.5 -15q22 -9 39.5 -14t36.5 -5q15 0 24 3t19 9t17 6q3 -3 -4 -22.5t-27 -35.5t-56 -16q-23 0 -43 6z" />
<glyph unicode="&#xfee0;&#xfe82;" horiz-adv-x="698" arabic-form="final" d="M698 70v-70h-93q-33 0 -54.5 6.5t-38.5 19.5q-36 -26 -85 -26h-349q-14 0 -21 11t-7 24t7 23.5t21 11.5h137v301q0 43 -17 76t-38 47q6 8 25.5 16.5t40.5 8.5q33 0 56 -25.5t23 -85.5v-338h96q43 0 66.5 35.5t23.5 82.5v324q0 43 -17 76t-38 47q6 8 25.5 16.5t40.5 8.5 q33 0 56 -25.5t23 -85.5v-355q0 -76 -29 -124h146zM246 576q-20 6 -46 18q-23 10 -39 15.5t-33 5.5q-19 0 -32 -8t-18 -8t1.5 18t26.5 33t54 15q20 0 37.5 -5t42.5 -15q22 -9 39.5 -14t36.5 -5q15 0 24 3t19 9t17 6q3 -3 -4 -22.5t-27 -35.5t-56 -16q-23 0 -43 6z" />
<glyph unicode="&#xfedf;&#xfe84;" horiz-adv-x="646" arabic-form="isolated" d="M57 11q-7 11 -7 24t7 23.5t21 11.5h137v301q0 43 -17 76t-38 47q6 8 25.5 16.5t40.5 8.5q33 0 56 -25.5t23 -85.5v-338h96q43 0 66.5 35.5t23.5 82.5v324q0 43 -17 76t-38 47q6 8 25.5 16.5t40.5 8.5q33 0 56 -25.5t23 -85.5v-355q-1 -96 -44.5 -145t-109.5 -49h-349 q-14 0 -21 11zM123 591q0 12 9 19.5t21 7.5q8 0 14 -3q-12 13 -22.5 36.5t-10.5 48.5q0 42 28.5 68t79.5 26q62 0 62 -40q0 -16 -9 -24t-20 -8q-9 0 -13 4q1 18 -11.5 29t-28.5 14q-12 -3 -21.5 -18.5t-9.5 -42.5q0 -77 82 -77q24 0 34 4q21 0 21 -19q0 -6 -3 -11.5t-7 -5.5 q-66 -6 -123.5 -14.5t-63.5 -14.5q-8 13 -8 21z" />
<glyph unicode="&#xfee0;&#xfe84;" horiz-adv-x="698" arabic-form="final" d="M698 70v-70h-93q-33 0 -54.5 6.5t-38.5 19.5q-36 -26 -85 -26h-349q-14 0 -21 11t-7 24t7 23.5t21 11.5h137v301q0 43 -17 76t-38 47q6 8 25.5 16.5t40.5 8.5q33 0 56 -25.5t23 -85.5v-338h96q43 0 66.5 35.5t23.5 82.5v324q0 43 -17 76t-38 47q6 8 25.5 16.5t40.5 8.5 q33 0 56 -25.5t23 -85.5v-355q0 -76 -29 -124h146zM123 591q0 12 9 19.5t21 7.5q8 0 14 -3q-12 13 -22.5 36.5t-10.5 48.5q0 42 28.5 68t79.5 26q62 0 62 -40q0 -16 -9 -24t-20 -8q-9 0 -13 4q1 18 -11.5 29t-28.5 14q-12 -3 -21.5 -18.5t-9.5 -42.5q0 -77 82 -77q24 0 34 4 q21 0 21 -19q0 -6 -3 -11.5t-7 -5.5q-66 -6 -123.5 -14.5t-63.5 -14.5q-8 13 -8 21z" />
<glyph unicode="&#xfedf;&#xfe88;" horiz-adv-x="646" arabic-form="isolated" d="M57 11q-7 11 -7 24t7 23.5t21 11.5h137v301q0 43 -17 76t-38 47q6 8 25.5 16.5t40.5 8.5q33 0 56 -25.5t23 -85.5v-338h96q43 0 66.5 35.5t23.5 82.5v324q0 43 -17 76t-38 47q6 8 25.5 16.5t40.5 8.5q33 0 56 -25.5t23 -85.5v-355q-1 -96 -44.5 -145t-109.5 -49h-349 q-14 0 -21 11zM154 -253q0 12 9 19.5t21 7.5q8 0 14 -3q-13 14 -23 37t-10 48q0 42 28.5 68t79.5 26q62 0 62 -40q0 -16 -9 -24t-20 -8q-9 0 -13 4q1 18 -11.5 29t-28.5 14q-12 -3 -21.5 -18.5t-9.5 -42.5q0 -77 82 -77q24 0 34 4q21 0 21 -19q0 -6 -3 -11.5t-7 -5.5 q-66 -6 -123.5 -14.5t-63.5 -14.5q-8 13 -8 21z" />
<glyph unicode="&#xfee0;&#xfe88;" horiz-adv-x="698" arabic-form="final" d="M698 70v-70h-93q-33 0 -54.5 6.5t-38.5 19.5q-36 -26 -85 -26h-349q-14 0 -21 11t-7 24t7 23.5t21 11.5h137v301q0 43 -17 76t-38 47q6 8 25.5 16.5t40.5 8.5q33 0 56 -25.5t23 -85.5v-338h96q43 0 66.5 35.5t23.5 82.5v324q0 43 -17 76t-38 47q6 8 25.5 16.5t40.5 8.5 q33 0 56 -25.5t23 -85.5v-355q0 -76 -29 -124h146zM154 -253q0 12 9 19.5t21 7.5q8 0 14 -3q-13 14 -23 37t-10 48q0 42 28.5 68t79.5 26q62 0 62 -40q0 -16 -9 -24t-20 -8q-9 0 -13 4q1 18 -11.5 29t-28.5 14q-12 -3 -21.5 -18.5t-9.5 -42.5q0 -77 82 -77q24 0 34 4 q21 0 21 -19q0 -6 -3 -11.5t-7 -5.5q-66 -6 -123.5 -14.5t-63.5 -14.5q-8 13 -8 21z" />
<glyph unicode="&#xfedf;&#xfe8e;" horiz-adv-x="646" arabic-form="isolated" d="M57 11q-7 11 -7 24t7 23.5t21 11.5h137v301q0 43 -17 76t-38 47q6 8 25.5 16.5t40.5 8.5q33 0 56 -25.5t23 -85.5v-338h96q43 0 66.5 35.5t23.5 82.5v324q0 43 -17 76t-38 47q6 8 25.5 16.5t40.5 8.5q33 0 56 -25.5t23 -85.5v-355q-1 -96 -44.5 -145t-109.5 -49h-349 q-14 0 -21 11z" />
<glyph unicode="&#xfee0;&#xfe8e;" horiz-adv-x="698" arabic-form="final" d="M698 70v-70h-93q-33 0 -54.5 6.5t-38.5 19.5q-36 -26 -85 -26h-349q-14 0 -21 11t-7 24t7 23.5t21 11.5h137v301q0 43 -17 76t-38 47q6 8 25.5 16.5t40.5 8.5q33 0 56 -25.5t23 -85.5v-338h96q43 0 66.5 35.5t23.5 82.5v324q0 43 -17 76t-38 47q6 8 25.5 16.5t40.5 8.5 q33 0 56 -25.5t23 -85.5v-355q0 -76 -29 -124h146z" />
<glyph unicode="&#xfedf;&#xfb51;" horiz-adv-x="646" d="M57 11q-7 11 -7 24t7 23.5t21 11.5h137v301q0 43 -17 76t-38 47q6 8 25.5 16.5t40.5 8.5q33 0 56 -25.5t23 -85.5v-338h96q43 0 66.5 35.5t23.5 82.5v324q0 43 -17 76t-38 47q6 8 25.5 16.5t40.5 8.5q33 0 56 -25.5t23 -85.5v-355q-1 -96 -44.5 -145t-109.5 -49h-349 q-14 0 -21 11zM117 586q0 18 8 18h25q0 9 10.5 34t35 46.5t62.5 21.5q39 0 57.5 -23t18.5 -57q0 -27 -12 -43t-33 -16h-164q-8 0 -8 19zM263 604q21 0 21 28q0 16 -9 26.5t-29 10.5q-21 0 -38 -11t-26.5 -26.5t-9.5 -27.5h91z" />
<glyph unicode="&#xfee0;&#xfb51;" horiz-adv-x="698" d="M698 70v-70h-93q-33 0 -54.5 6.5t-38.5 19.5q-36 -26 -85 -26h-349q-14 0 -21 11t-7 24t7 23.5t21 11.5h137v301q0 43 -17 76t-38 47q6 8 25.5 16.5t40.5 8.5q33 0 56 -25.5t23 -85.5v-338h96q43 0 66.5 35.5t23.5 82.5v324q0 43 -17 76t-38 47q6 8 25.5 16.5t40.5 8.5 q33 0 56 -25.5t23 -85.5v-355q0 -76 -29 -124h146zM117 586q0 18 8 18h25q0 9 10.5 34t35 46.5t62.5 21.5q39 0 57.5 -23t18.5 -57q0 -27 -12 -43t-33 -16h-164q-8 0 -8 19zM263 604q21 0 21 28q0 16 -9 26.5t-29 10.5q-21 0 -38 -11t-26.5 -26.5t-9.5 -27.5h91z" />
<glyph unicode="&#x66e;" horiz-adv-x="332" d="M0 70h67q69 0 89.5 56t20.5 114q0 63 -16.5 119.5t-68.5 100.5q22 20 55 20q63 0 91.5 -62t28.5 -148q0 -110 -47 -190t-160 -80h-60v70z" />
<glyph unicode="&#x66e;" horiz-adv-x="329" d="M329 70v-70h-95q-33 0 -54.5 6.5t-39.5 19.5q-36 -23 -83 -26h-57v70h57q30 1 57 12v352q0 46 45 46t45 -45v-283q0 -36 4.5 -59t21.5 -23h99z" />
<glyph unicode="&#x66e;" horiz-adv-x="799" d="M799 70v-70h-130q-33 0 -54.5 6.5t-39.5 19.5q-44 -26 -103 -26h-277q-68 0 -99 39t-31 102v243q0 43 45 43t45 -44v-213q0 -56 17.5 -78t65.5 -22h241q69 0 89.5 58.5t20.5 111.5q0 63 -16.5 119.5t-68.5 100.5q22 20 55 20q63 0 91.5 -62t28.5 -148q0 -128 -55 -200 h175z" />
<glyph unicode="&#x66f;" horiz-adv-x="532" d="M387.5 463.5q39.5 -16.5 59.5 -62.5t20 -135v-125q0 -63 -31 -102t-99 -39h-337v70h133q-26 38 -37 80t-11 99q0 98 24.5 148.5t65.5 66.5t104 16q69 0 108.5 -16.5zM377 300q0 62 -23 86.5t-65 24.5q-114 0 -114 -160q0 -62 19.5 -121.5t81.5 -59.5h18q48 0 65.5 22 t17.5 78v130z" />
<glyph unicode="&#x66f;" horiz-adv-x="558" d="M558 70v-70h-100q-39 0 -65 9q-24 -9 -56 -9h-337v70h133q-26 38 -37 80t-11 99q0 98 24.5 148.5t65.5 66.5t104 16q69 0 108.5 -16.5t59.5 -62.5t20 -135v-125q0 -41 -13 -71h104zM359.5 92q17.5 22 17.5 78v130q0 62 -23 86.5t-65 24.5q-114 0 -114 -160 q0 -62 19.5 -121.5t81.5 -59.5h18q48 0 65.5 22z" />
<glyph unicode="&#x66f;" horiz-adv-x="894" d="M894 0h-95q-11 -112 -98 -174t-258 -62q-229 0 -303.5 93.5t-74.5 211.5q0 85 25.5 137t76.5 52q18 0 32 -6.5t19 -14.5q-27 -22 -44.5 -75t-17.5 -114q0 -97 65.5 -155.5t226.5 -58.5q139 0 195.5 44t64.5 122h-122q-87 0 -127 70.5t-40 187.5q0 94 24.5 142.5t66.5 64 t107 15.5q64 0 102.5 -15t60 -61.5t21.5 -137.5v-196h93v-70zM534 127q24 -57 105 -57h71v230q0 61 -23 85.5t-65 24.5q-56 0 -84 -40t-28 -126q0 -60 24 -117z" />
<glyph unicode="&#x6a1;" horiz-adv-x="532" d="M387.5 463.5q39.5 -16.5 59.5 -62.5t20 -135v-125q0 -63 -31 -102t-99 -39h-337v70h133q-26 38 -37 80t-11 99q0 98 24.5 148.5t65.5 66.5t104 16q69 0 108.5 -16.5zM377 300q0 62 -23 86.5t-65 24.5q-114 0 -114 -160q0 -62 19.5 -121.5t81.5 -59.5h18q48 0 65.5 22 t17.5 78v130z" />
<glyph unicode="&#x6a1;" horiz-adv-x="558" d="M558 70v-70h-100q-39 0 -65 9q-24 -9 -56 -9h-337v70h133q-26 38 -37 80t-11 99q0 98 24.5 148.5t65.5 66.5t104 16q69 0 108.5 -16.5t59.5 -62.5t20 -135v-125q0 -41 -13 -71h104zM359.5 92q17.5 22 17.5 78v130q0 62 -23 86.5t-65 24.5q-114 0 -114 -160 q0 -62 19.5 -121.5t81.5 -59.5h18q48 0 65.5 22z" />
<glyph unicode="&#x6a1;" horiz-adv-x="983" d="M983 70v-70h-100q-37 0 -64 10q-23 -10 -57 -10h-503q-62 0 -105.5 28t-66 75t-22.5 104q0 68 28.5 117.5t73.5 49.5q26 0 49 -18q-26 -18 -43.5 -59.5t-17.5 -99.5q0 -57 19.5 -85t45.5 -35t59 -7h279q-26 38 -37 80t-11 99q0 98 24.5 148.5t65.5 66.5t104 16 q69 0 108.5 -16.5t59.5 -62.5t20 -135v-125q0 -41 -13 -71h104zM784.5 92q17.5 22 17.5 78v130q0 62 -23 86.5t-65 24.5q-114 0 -114 -160q0 -57 20 -119t81 -62h18q48 0 65.5 22z" />
<glyph unicode="&#x6ba;" horiz-adv-x="332" d="M0 70h67q69 0 89.5 56t20.5 114q0 63 -16.5 119.5t-68.5 100.5q22 20 55 20q63 0 91.5 -62t28.5 -148q0 -110 -47 -190t-160 -80h-60v70z" />
<glyph unicode="&#x6ba;" horiz-adv-x="329" d="M329 70v-70h-95q-33 0 -54.5 6.5t-39.5 19.5q-36 -23 -83 -26h-57v70h57q30 1 57 12v352q0 46 45 46t45 -45v-283q0 -36 4.5 -59t21.5 -23h99z" />
<glyph unicode="&#x6c2;" horiz-adv-x="332" d="M0 70h67q69 0 89.5 56t20.5 114q0 63 -16.5 119.5t-68.5 100.5q22 20 55 20q63 0 91.5 -62t28.5 -148q0 -110 -47 -190t-160 -80h-60v70zM102.5 -271.5q-17.5 18.5 -17.5 51.5q0 123 110 185l10 -15q-40 -27 -60 -59.5t-20 -75.5l30 10q23 0 39 -16t16 -39q0 -26 -17 -43 t-43 -17q-30 0 -47.5 18.5zM-12 566q0 12 9 19.5t21 7.5q8 0 14 -3q-12 13 -22.5 36.5t-10.5 48.5q0 42 28.5 68t79.5 26q62 0 62 -40q0 -16 -9 -24t-20 -8q-9 0 -13 4q1 18 -11.5 29t-28.5 14q-12 -3 -21.5 -18.5t-9.5 -42.5q0 -77 82 -77q24 0 34 4q21 0 21 -19 q0 -6 -3 -11.5t-7 -5.5q-66 -6 -123.5 -14.5t-63.5 -14.5q-8 13 -8 21z" />
<glyph unicode="&#x6c2;" horiz-adv-x="475" d="M475 0h-77v-230q0 -9 -6.5 -15t-15.5 -6q-179 0 -252 67t-73 184h-51v70h120q8 0 14.5 -6t6.5 -15q0 -59 9 -105t45.5 -83t112.5 -37v225q0 9 6.5 15t14.5 6h146v-70zM135 359q0 12 9 19.5t21 7.5q8 0 14 -3q-12 13 -22.5 36.5t-10.5 48.5q0 42 28.5 68t79.5 26 q62 0 62 -40q0 -16 -9 -24t-20 -8q-9 0 -13 4q1 18 -11.5 29t-28.5 14q-12 -3 -21.5 -18.5t-9.5 -42.5q0 -77 82 -77q24 0 34 4q21 0 21 -19q0 -6 -3 -11.5t-7 -5.5q-66 -6 -123.5 -14.5t-63.5 -14.5q-8 13 -8 21z" />
<glyph unicode="&#x6c2;" horiz-adv-x="511" d="M511 70v-70h-74q-33 0 -51 6t-32 14q-46 -22 -106 -22q-100 0 -141.5 57.5t-41.5 180.5q0 99 23 152.5t64 72.5t105 19q88 0 137 -34.5t49 -123.5v-252h68zM179 124.5q24 -54.5 104 -54.5h70v228q0 112 -90 112q-108 0 -108 -172q0 -59 24 -113.5zM348 22h-1h1zM153 566 q0 12 9 19.5t21 7.5q8 0 14 -3q-12 13 -22.5 36.5t-10.5 48.5q0 42 28.5 68t79.5 26q62 0 62 -40q0 -16 -9 -24t-20 -8q-9 0 -13 4q1 18 -11.5 29t-28.5 14q-12 -3 -21.5 -18.5t-9.5 -42.5q0 -77 82 -77q24 0 34 4q21 0 21 -19q0 -6 -3 -11.5t-7 -5.5q-66 -6 -123.5 -14.5 t-63.5 -14.5q-8 13 -8 21z" />
<glyph unicode="&#x6c3;" horiz-adv-x="657" d="M657 70v-70h-158q-12 0 -20.5 8t-8.5 20v382q-94 0 -166 -63.5t-110.5 -159t-38.5 -187.5h-90q0 135 55.5 244.5t161 172.5t250.5 63q11 0 19 -8.5t8 -20.5v-381h98zM217 562q-17 17 -17 40q0 24 17 41t40 17q24 0 40.5 -17t16.5 -41q0 -23 -16.5 -40t-40.5 -17 q-23 0 -40 17zM363 562q-17 17 -17 40q0 24 17 41t40 17q24 0 40.5 -17t16.5 -41q0 -23 -16.5 -40t-40.5 -17q-23 0 -40 17z" />
<glyph unicode="&#x671;" horiz-adv-x="315" arabic-form="final" d="M148.5 49q-43.5 49 -43.5 146v256q0 43 -17 76t-38 47q6 8 25.5 16.5t40.5 8.5q33 0 56 -25.5t23 -85.5v-300q0 -46 23 -82t66 -36h31v-70h-58q-65 0 -108.5 49zM7 656q0 18 8 18h25q0 9 10.5 34t35 46.5t62.5 21.5q39 0 57.5 -23t18.5 -57q0 -27 -12 -43t-33 -16h-164 q-8 0 -8 19zM153 674q21 0 21 28q0 16 -9 26.5t-29 10.5q-21 0 -38 -11t-26.5 -26.5t-9.5 -27.5h91z" />
<glyph unicode="&#x67e;" horiz-adv-x="799" arabic-form="final" d="M799 70v-70h-130q-33 0 -54.5 6.5t-39.5 19.5q-44 -26 -103 -26h-277q-68 0 -99 39t-31 102v243q0 43 45 43t45 -44v-213q0 -56 17.5 -78t65.5 -22h241q69 0 89.5 58.5t20.5 111.5q0 63 -16.5 119.5t-68.5 100.5q22 20 55 20q63 0 91.5 -62t28.5 -148q0 -128 -55 -200 h175zM227 -178q-17 17 -17 40q0 24 17 41t40 17q24 0 40.5 -17t16.5 -41q0 -23 -16.5 -40t-40.5 -17q-23 0 -40 17zM373 -178q-17 17 -17 40q0 24 17 41t40 17q24 0 40.5 -17t16.5 -41q0 -23 -16.5 -40t-40.5 -17q-23 0 -40 17zM302.5 -298.5q-15.5 15.5 -15.5 37.5 t15.5 37.5t37.5 15.5t37.5 -15.5t15.5 -37.5t-15.5 -37.5t-37.5 -15.5t-37.5 15.5z" />
<glyph unicode="&#x67e;" horiz-adv-x="332" arabic-form="initial" d="M0 70h67q69 0 89.5 56t20.5 114q0 63 -16.5 119.5t-68.5 100.5q22 20 55 20q63 0 91.5 -62t28.5 -148q0 -110 -47 -190t-160 -80h-60v70zM34 -178q-17 17 -17 40q0 24 17 41t40 17q24 0 40.5 -17t16.5 -41q0 -23 -16.5 -40t-40.5 -17q-23 0 -40 17zM180 -178 q-17 17 -17 40q0 24 17 41t40 17q24 0 40.5 -17t16.5 -41q0 -23 -16.5 -40t-40.5 -17q-23 0 -40 17zM109.5 -298.5q-15.5 15.5 -15.5 37.5t15.5 37.5t37.5 15.5t37.5 -15.5t15.5 -37.5t-15.5 -37.5t-37.5 -15.5t-37.5 15.5z" />
<glyph unicode="&#x67e;" horiz-adv-x="329" arabic-form="medial" d="M329 70v-70h-95q-33 0 -54.5 6.5t-39.5 19.5q-36 -23 -83 -26h-57v70h57q30 1 57 12v352q0 46 45 46t45 -45v-283q0 -36 4.5 -59t21.5 -23h99zM46 -178q-17 17 -17 40q0 24 17 41t40 17q24 0 40.5 -17t16.5 -41q0 -23 -16.5 -40t-40.5 -17q-23 0 -40 17zM192 -178 q-17 17 -17 40q0 24 17 41t40 17q24 0 40.5 -17t16.5 -41q0 -23 -16.5 -40t-40.5 -17q-23 0 -40 17zM121.5 -298.5q-15.5 15.5 -15.5 37.5t15.5 37.5t37.5 15.5t37.5 -15.5t15.5 -37.5t-15.5 -37.5t-37.5 -15.5t-37.5 15.5z" />
<glyph unicode="&#x679;" horiz-adv-x="799" arabic-form="final" d="M799 70v-70h-130q-33 0 -54.5 6.5t-39.5 19.5q-44 -26 -103 -26h-277q-68 0 -99 39t-31 102v243q0 43 45 43t45 -44v-213q0 -56 17.5 -78t65.5 -22h241q69 0 89.5 58.5t20.5 111.5q0 63 -16.5 119.5t-68.5 100.5q22 20 55 20q63 0 91.5 -62t28.5 -148q0 -128 -55 -200 h175zM235 519q0 18 8 18h16v127q0 17 -13 30q1 2 6.5 4t10.5 2q9 0 16.5 -6.5t7.5 -20.5v-82q15 22 33.5 35t48.5 13q39 0 58 -23t19 -57q0 -27 -12 -43t-33 -16h-158q-8 0 -8 19zM375 537q10 0 15.5 7.5t5.5 20.5q0 16 -9 26.5t-29 10.5q-21 0 -38 -11t-27 -26.5t-10 -27.5 h92z" />
<glyph unicode="&#x679;" horiz-adv-x="332" arabic-form="initial" d="M0 70h67q69 0 89.5 56t20.5 114q0 63 -16.5 119.5t-68.5 100.5q22 20 55 20q63 0 91.5 -62t28.5 -148q0 -110 -47 -190t-160 -80h-60v70zM42 564q0 18 8 18h16v127q0 17 -13 30q1 2 6.5 4t10.5 2q9 0 16.5 -6.5t7.5 -20.5v-82q15 22 33.5 35t48.5 13q39 0 58 -23t19 -57 q0 -27 -12 -43t-33 -16h-158q-8 0 -8 19zM182 582q10 0 15.5 7.5t5.5 20.5q0 16 -9 26.5t-29 10.5q-21 0 -38 -11t-27 -26.5t-10 -27.5h92z" />
<glyph unicode="&#x679;" horiz-adv-x="329" arabic-form="medial" d="M329 70v-70h-95q-33 0 -54.5 6.5t-39.5 19.5q-36 -23 -83 -26h-57v70h57q30 1 57 12v352q0 46 45 46t45 -45v-283q0 -36 4.5 -59t21.5 -23h99zM54 564q0 18 8 18h16v127q0 17 -13 30q1 2 6.5 4t10.5 2q9 0 16.5 -6.5t7.5 -20.5v-82q15 22 33.5 35t48.5 13q39 0 58 -23 t19 -57q0 -27 -12 -43t-33 -16h-158q-8 0 -8 19zM194 582q10 0 15.5 7.5t5.5 20.5q0 16 -9 26.5t-29 10.5q-21 0 -38 -11t-27 -26.5t-10 -27.5h92z" />
<glyph unicode="&#x6a4;" horiz-adv-x="983" arabic-form="final" d="M983 70v-70h-100q-37 0 -64 10q-23 -10 -57 -10h-503q-62 0 -105.5 28t-66 75t-22.5 104q0 68 28.5 117.5t73.5 49.5q26 0 49 -18q-26 -18 -43.5 -59.5t-17.5 -99.5q0 -57 19.5 -85t45.5 -35t59 -7h279q-26 38 -37 80t-11 99q0 98 24.5 148.5t65.5 66.5t104 16 q69 0 108.5 -16.5t59.5 -62.5t20 -135v-125q0 -41 -13 -71h104zM784.5 92q17.5 22 17.5 78v130q0 62 -23 86.5t-65 24.5q-114 0 -114 -160q0 -57 20 -119t81 -62h18q48 0 65.5 22zM760.5 763.5q15.5 -15.5 15.5 -37.5t-15.5 -37.5t-37.5 -15.5t-37.5 15.5t-15.5 37.5 t15.5 37.5t37.5 15.5t37.5 -15.5zM690.5 643q16.5 -17 16.5 -40q0 -24 -16.5 -41t-40.5 -17q-23 0 -40 17t-17 41q0 23 17 40t40 17q24 0 40.5 -17zM836.5 643q16.5 -17 16.5 -40q0 -24 -16.5 -41t-40.5 -17q-23 0 -40 17t-17 41q0 23 17 40t40 17q24 0 40.5 -17z" />
<glyph unicode="&#x6a4;" horiz-adv-x="532" arabic-form="initial" d="M387.5 463.5q39.5 -16.5 59.5 -62.5t20 -135v-125q0 -63 -31 -102t-99 -39h-337v70h133q-26 38 -37 80t-11 99q0 98 24.5 148.5t65.5 66.5t104 16q69 0 108.5 -16.5zM377 300q0 62 -23 86.5t-65 24.5q-114 0 -114 -160q0 -62 19.5 -121.5t81.5 -59.5h18q48 0 65.5 22 t17.5 78v130zM335.5 763.5q15.5 -15.5 15.5 -37.5t-15.5 -37.5t-37.5 -15.5t-37.5 15.5t-15.5 37.5t15.5 37.5t37.5 15.5t37.5 -15.5zM265.5 643q16.5 -17 16.5 -40q0 -24 -16.5 -41t-40.5 -17q-23 0 -40 17t-17 41q0 23 17 40t40 17q24 0 40.5 -17zM411.5 643 q16.5 -17 16.5 -40q0 -24 -16.5 -41t-40.5 -17q-23 0 -40 17t-17 41q0 23 17 40t40 17q24 0 40.5 -17z" />
<glyph unicode="&#x6a4;" horiz-adv-x="558" arabic-form="medial" d="M558 70v-70h-100q-39 0 -65 9q-24 -9 -56 -9h-337v70h133q-26 38 -37 80t-11 99q0 98 24.5 148.5t65.5 66.5t104 16q69 0 108.5 -16.5t59.5 -62.5t20 -135v-125q0 -41 -13 -71h104zM359.5 92q17.5 22 17.5 78v130q0 62 -23 86.5t-65 24.5q-114 0 -114 -160 q0 -62 19.5 -121.5t81.5 -59.5h18q48 0 65.5 22zM335.5 763.5q15.5 -15.5 15.5 -37.5t-15.5 -37.5t-37.5 -15.5t-37.5 15.5t-15.5 37.5t15.5 37.5t37.5 15.5t37.5 -15.5zM265.5 643q16.5 -17 16.5 -40q0 -24 -16.5 -41t-40.5 -17q-23 0 -40 17t-17 41q0 23 17 40t40 17 q24 0 40.5 -17zM411.5 643q16.5 -17 16.5 -40q0 -24 -16.5 -41t-40.5 -17q-23 0 -40 17t-17 41q0 23 17 40t40 17q24 0 40.5 -17z" />
<glyph unicode="&#x686;" horiz-adv-x="563" arabic-form="final" d="M563 70v-70h-29q-33 0 -54.5 6.5t-39.5 19.5q-46 -26 -112 -26h-189q0 -83 19 -146t67 -103q-7 -6 -24.5 -11.5t-34.5 -5.5q-43 0 -69 37t-36.5 85.5t-10.5 85.5q0 128 117 128h97q58 0 92.5 6.5t63 41.5t28.5 113q0 90 -51 134.5t-179 44.5l-58 -1q-27 0 -43 15.5 t-23 36.5q-7 22 -5 39q14 -10 30 -17t40 -7l28 1q24 3 63 3q149 0 218.5 -63t69.5 -184q0 -102 -47 -163h72zM327.5 -157q-16.5 -17 -40.5 -17q-23 0 -40 17t-17 40q0 24 17 41t40 17q24 0 40.5 -17t16.5 -41q0 -23 -16.5 -40zM473.5 -76q16.5 -17 16.5 -41q0 -23 -16.5 -40 t-40.5 -17q-23 0 -40 17t-17 40q0 24 17 41t40 17q24 0 40.5 -17zM397.5 -202.5q15.5 -15.5 15.5 -37.5t-15.5 -37.5t-37.5 -15.5t-37.5 15.5t-15.5 37.5t15.5 37.5t37.5 15.5t37.5 -15.5z" />
<glyph unicode="&#x686;" horiz-adv-x="534" arabic-form="initial" d="M0 70h210q57 0 91.5 6t63.5 41t29 113q0 90 -51 135t-179 45l-58 -1q-31 0 -46 14t-21 41t-4 36q14 -10 30 -17t40 -7l28 1q24 3 63 3q149 0 218.5 -63t69.5 -184q0 -109 -53.5 -171t-156.5 -62h-274v70zM154 -178q-17 17 -17 40q0 24 17 41t40 17q24 0 40.5 -17 t16.5 -41q0 -23 -16.5 -40t-40.5 -17q-23 0 -40 17zM300 -178q-17 17 -17 40q0 24 17 41t40 17q24 0 40.5 -17t16.5 -41q0 -23 -16.5 -40t-40.5 -17q-23 0 -40 17zM229.5 -298.5q-15.5 15.5 -15.5 37.5t15.5 37.5t37.5 15.5t37.5 -15.5t15.5 -37.5t-15.5 -37.5t-37.5 -15.5 t-37.5 15.5z" />
<glyph unicode="&#x686;" horiz-adv-x="530" arabic-form="medial" d="M530 70v-70h-50q-33 0 -54.5 6.5t-39.5 19.5q-46 -26 -112 -26h-274v70h210q57 0 91.5 6t63.5 41t29 113q0 90 -51 135t-179 45l-58 -1q-31 0 -46 14t-21 41t-4 36q14 -10 30 -17t40 -7l28 1q24 3 63 3q149 0 218.5 -63t69.5 -184q0 -102 -47 -163h93zM154 -178 q-17 17 -17 40q0 24 17 41t40 17q24 0 40.5 -17t16.5 -41q0 -23 -16.5 -40t-40.5 -17q-23 0 -40 17zM300 -178q-17 17 -17 40q0 24 17 41t40 17q24 0 40.5 -17t16.5 -41q0 -23 -16.5 -40t-40.5 -17q-23 0 -40 17zM229.5 -298.5q-15.5 15.5 -15.5 37.5t15.5 37.5t37.5 15.5 t37.5 -15.5t15.5 -37.5t-15.5 -37.5t-37.5 -15.5t-37.5 15.5z" />
<glyph unicode="&#x688;" horiz-adv-x="535" arabic-form="final" d="M535 70v-70h-122q-33 0 -54.5 6.5t-39.5 19.5q-42 -26 -96 -26h-146q-14 0 -20.5 10t-6.5 23q0 15 9 26t29 11h53q103 0 153 54.5t50 134.5q0 67 -33.5 109.5t-89.5 41.5q-37 -12 -57 -36t-20 -67q-26 -2 -46 7q-33 15 -33 55q0 48 44.5 79.5t114.5 31.5t117.5 -33 t70 -84t22.5 -104q0 -46 -16 -98t-48 -91h165zM197 407h-2h2zM137 564q0 18 8 18h16v127q0 17 -13 30q1 2 6.5 4t10.5 2q9 0 16.5 -6.5t7.5 -20.5v-82q15 22 33.5 35t48.5 13q39 0 58 -23t19 -57q0 -27 -12 -43t-33 -16h-158q-8 0 -8 19zM277 582q10 0 15.5 7.5t5.5 20.5 q0 16 -9 26.5t-29 10.5q-21 0 -38 -11t-27 -26.5t-10 -27.5h92z" />
<glyph unicode="&#x698;" horiz-adv-x="319" arabic-form="final" d="M319 0h-99v-73q0 -31 -13 -66.5t-46 -62.5t-89 -27q-51 0 -79 18.5t-38 33.5q29 -8 62 -8q39 0 65 16t37.5 39t11.5 45l-1 523q0 42 45 42q19 0 32 -9.5t13 -31.5v-369h99v-70zM212.5 763.5q15.5 -15.5 15.5 -37.5t-15.5 -37.5t-37.5 -15.5t-37.5 15.5t-15.5 37.5 t15.5 37.5t37.5 15.5t37.5 -15.5zM142.5 643q16.5 -17 16.5 -40q0 -24 -16.5 -41t-40.5 -17q-23 0 -40 17t-17 41q0 23 17 40t40 17q24 0 40.5 -17zM288.5 643q16.5 -17 16.5 -40q0 -24 -16.5 -41t-40.5 -17q-23 0 -40 17t-17 41q0 23 17 40t40 17q24 0 40.5 -17z" />
<glyph unicode="&#x691;" horiz-adv-x="319" arabic-form="final" d="M319 0h-99v-73q0 -31 -13 -66.5t-46 -62.5t-89 -27q-51 0 -79 18.5t-38 33.5q29 -8 62 -8q39 0 65 16t37.5 39t11.5 45l-1 523q0 42 45 42q19 0 32 -9.5t13 -31.5v-369h99v-70zM70 564q0 18 8 18h16v127q0 17 -13 30q1 2 6.5 4t10.5 2q9 0 16.5 -6.5t7.5 -20.5v-82 q15 22 33.5 35t48.5 13q39 0 58 -23t19 -57q0 -27 -12 -43t-33 -16h-158q-8 0 -8 19zM210 582q10 0 15.5 7.5t5.5 20.5q0 16 -9 26.5t-29 10.5q-21 0 -38 -11t-27 -26.5t-10 -27.5h92z" />
<glyph unicode="&#x6a9;" horiz-adv-x="923" arabic-form="final" d="M923 70v-70h-142q-51 0 -84 20q-31 -18 -77 -18h-425q-68 0 -99 39t-31 102v129q0 43 45 43t45 -44v-99q0 -56 17.5 -78t65.5 -22h344q45 0 69 26t24 67q0 46 -31 72.5t-96 26.5h-98q-71 0 -108 42.5t-37 119.5q0 83 47.5 126.5t153.5 43.5l108 -2l62 -2q24 0 40 7t30 17 q2 -15 -4 -36q-6 -22 -22.5 -38.5t-42.5 -16.5l-149 2q-72 0 -102.5 -22.5t-30.5 -72.5q0 -47 23.5 -72.5t69.5 -25.5h78q199 0 199 -171q0 -55 -20 -93h178z" />
<glyph unicode="&#x6a9;" horiz-adv-x="595" arabic-form="initial" d="M0 70h347q45 0 69 26t24 67q0 46 -31 72.5t-96 26.5h-98q-71 0 -108 42.5t-37 119.5q0 83 47.5 126.5t153.5 43.5l108 -2l62 -2q24 0 40 7t30 17q2 -15 -4 -36q-6 -22 -22.5 -38.5t-42.5 -16.5l-149 2q-72 0 -102.5 -22.5t-30.5 -72.5q0 -47 23.5 -72.5t69.5 -25.5h78 q199 0 199 -171q0 -75 -37 -118t-108 -43h-385v70z" />
<glyph unicode="&#x6a9;" horiz-adv-x="755" arabic-form="medial" d="M755 70v-70h-231q-43 0 -72 13q-31 -13 -67 -13h-385v70h347q45 0 69 26t24 67q0 46 -31 72.5t-96 26.5h-98q-71 0 -108 42.5t-37 119.5q0 83 47.5 126.5t153.5 43.5l108 -2l62 -2q24 0 40 7t30 17q2 -15 -4 -36q-6 -22 -22.5 -38.5t-42.5 -16.5l-149 2 q-72 0 -102.5 -22.5t-30.5 -72.5q0 -47 23.5 -72.5t69.5 -25.5h78q199 0 199 -171q0 -54 -19 -91h244z" />
<glyph unicode="&#x6af;" horiz-adv-x="923" arabic-form="final" d="M923 70v-70h-142q-51 0 -84 20q-31 -18 -77 -18h-425q-68 0 -99 39t-31 102v129q0 43 45 43t45 -44v-99q0 -56 17.5 -78t65.5 -22h344q45 0 69 26t24 67q0 46 -31 72.5t-96 26.5h-98q-71 0 -108 42.5t-37 119.5q0 83 47.5 126.5t153.5 43.5l108 -2l62 -2q24 0 40 7t30 17 q2 -15 -4 -36q-6 -22 -22.5 -38.5t-42.5 -16.5l-149 2q-72 0 -102.5 -22.5t-30.5 -72.5q0 -47 23.5 -72.5t69.5 -25.5h78q199 0 199 -171q0 -55 -20 -93h178zM369 659q6 22 22.5 38.5t42.5 16.5h231q24 0 40 7t30 17q2 -15 -4 -36q-6 -22 -22.5 -38.5t-42.5 -16.5h-231 q-24 0 -40 -7t-30 -17q-2 15 4 36z" />
<glyph unicode="&#x6af;" horiz-adv-x="595" arabic-form="initial" d="M0 70h347q45 0 69 26t24 67q0 46 -31 72.5t-96 26.5h-98q-71 0 -108 42.5t-37 119.5q0 83 47.5 126.5t153.5 43.5l108 -2l62 -2q24 0 40 7t30 17q2 -15 -4 -36q-6 -22 -22.5 -38.5t-42.5 -16.5l-149 2q-72 0 -102.5 -22.5t-30.5 -72.5q0 -47 23.5 -72.5t69.5 -25.5h78 q199 0 199 -171q0 -75 -37 -118t-108 -43h-385v70zM87 659q6 22 22.5 38.5t42.5 16.5h231q24 0 40 7t30 17q2 -15 -4 -36q-6 -22 -22.5 -38.5t-42.5 -16.5h-231q-24 0 -40 -7t-30 -17q-2 15 4 36z" />
<glyph unicode="&#x6af;" horiz-adv-x="755" arabic-form="medial" d="M755 70v-70h-231q-43 0 -72 13q-31 -13 -67 -13h-385v70h347q45 0 69 26t24 67q0 46 -31 72.5t-96 26.5h-98q-71 0 -108 42.5t-37 119.5q0 83 47.5 126.5t153.5 43.5l108 -2l62 -2q24 0 40 7t30 17q2 -15 -4 -36q-6 -22 -22.5 -38.5t-42.5 -16.5l-149 2 q-72 0 -102.5 -22.5t-30.5 -72.5q0 -47 23.5 -72.5t69.5 -25.5h78q199 0 199 -171q0 -54 -19 -91h244zM87 659q6 22 22.5 38.5t42.5 16.5h231q24 0 40 7t30 17q2 -15 -4 -36q-6 -22 -22.5 -38.5t-42.5 -16.5h-231q-24 0 -40 -7t-30 -17q-2 15 4 36z" />
<glyph unicode="&#x6ba;" horiz-adv-x="698" arabic-form="final" d="M698 70v-70h-11q-28 0 -43.5 4.5t-29.5 15.5q-4 -123 -69 -189.5t-195 -66.5q-99 0 -163 38t-93 97t-29 127q0 50 15 98t42.5 78.5t62.5 30.5q25 0 51 -16q-23 -21 -50 -71.5t-27 -125.5q0 -70 32 -111.5t78 -58t92 -16.5q72 0 108 36.5t45.5 84.5t9.5 107v378 q0 24 14.5 32t30.5 8t30.5 -8t14.5 -32v-370h84z" />
<glyph unicode="&#x6c1;" horiz-adv-x="657" arabic-form="final" d="M657 70v-70h-158q-12 0 -20.5 8t-8.5 20v382q-94 0 -166 -63.5t-110.5 -159t-38.5 -187.5h-90q0 135 55.5 244.5t161 172.5t250.5 63q11 0 19 -8.5t8 -20.5v-381h98z" />
<glyph unicode="&#x6c1;" horiz-adv-x="332" arabic-form="initial" d="M0 70h67q69 0 89.5 56t20.5 114q0 63 -16.5 119.5t-68.5 100.5q22 20 55 20q63 0 91.5 -62t28.5 -148q0 -110 -47 -190t-160 -80h-60v70zM102.5 -271.5q-17.5 18.5 -17.5 51.5q0 123 110 185l10 -15q-40 -27 -60 -59.5t-20 -75.5l30 10q23 0 39 -16t16 -39q0 -26 -17 -43 t-43 -17q-30 0 -47.5 18.5z" />
<glyph unicode="&#x6c1;" horiz-adv-x="475" arabic-form="medial" d="M475 0h-77v-230q0 -9 -6.5 -15t-15.5 -6q-179 0 -252 67t-73 184h-51v70h120q8 0 14.5 -6t6.5 -15q0 -59 9 -105t45.5 -83t112.5 -37v225q0 9 6.5 15t14.5 6h146v-70z" />
<glyph unicode="&#x6be;" horiz-adv-x="703" arabic-form="final" d="M703 70v-70h-109q-57 0 -92 25q-48 -25 -106 -25q-37 0 -87.5 7t-65.5 19q-61 -26 -139 -26h-39v70h15q2 0 16.5 -4t36.5 -4q17 0 37 4q-28 26 -46 71.5t-18 104.5q0 80 34 131t101 51q66 0 100.5 -51t34.5 -130q0 -60 -19 -106.5t-49 -69.5q25 -5 46 -5q60 0 103.5 29.5 t66 79t22.5 109.5q0 86 -44.5 136.5t-108 70.5t-129.5 20h-47q-43 0 -61.5 22t-18.5 70q18 -18 39 -22t47 -3l62 3q80 4 160 -20.5t135.5 -90t55.5 -178.5q0 -64 -19.5 -121t-55.5 -97h142zM199 318q-14 -36 -14 -81q0 -87 56 -136q56 49 56 136q0 45 -14 81t-42 36t-42 -36 zM199 79l-5 -6q8 5 5 6z" />
<glyph unicode="&#x6be;" horiz-adv-x="636" arabic-form="initial" d="M380 556.5q80 -24.5 135.5 -90t55.5 -178.5q0 -78 -28 -144t-82.5 -105t-129.5 -39q-37 0 -87.5 7t-65.5 19q-61 -26 -139 -26h-39v70h15q2 0 16.5 -4t36.5 -4q17 0 37 4q-28 26 -46 71.5t-18 104.5q0 80 34 131t101 51q66 0 100.5 -51t34.5 -130q0 -60 -19 -106.5 t-49 -69.5q25 -5 46 -5q60 0 103.5 29.5t66 79t22.5 109.5q0 86 -44.5 136.5t-108 70.5t-129.5 20h-47q-43 0 -61.5 22t-18.5 70q18 -18 39 -22t47 -3l62 3q80 4 160 -20.5zM134 318q-14 -36 -14 -81q0 -87 56 -136q56 49 56 136q0 45 -14 81t-42 36t-42 -36zM134 79l-5 -6 q8 5 5 6z" />
<glyph unicode="&#x6be;" horiz-adv-x="638" arabic-form="medial" d="M638 70v-70h-109q-57 0 -92 25q-48 -25 -106 -25q-37 0 -87.5 7t-65.5 19q-61 -26 -139 -26h-39v70h15q2 0 16.5 -4t36.5 -4q17 0 37 4q-28 26 -46 71.5t-18 104.5q0 80 34 131t101 51q66 0 100.5 -51t34.5 -130q0 -60 -19 -106.5t-49 -69.5q25 -5 46 -5q60 0 103.5 29.5 t66 79t22.5 109.5q0 86 -44.5 136.5t-108 70.5t-129.5 20h-47q-43 0 -61.5 22t-18.5 70q18 -18 39 -22t47 -3l62 3q80 4 160 -20.5t135.5 -90t55.5 -178.5q0 -64 -19.5 -121t-55.5 -97h142zM134 318q-14 -36 -14 -81q0 -87 56 -136q56 49 56 136q0 45 -14 81t-42 36t-42 -36 zM134 79l-5 -6q8 5 5 6z" />
<glyph unicode="&#x6d2;" horiz-adv-x="456" arabic-form="final" d="M189.5 -228.5q-51.5 7.5 -88 40.5t-36.5 103q0 77 41.5 111t82 39t99.5 5h168v-70h-151q-64 0 -107 -15t-43 -70q0 -46 40 -63.5t124 -17.5h266v-70h-261q-83 0 -134.5 7.5z" />
<glyph unicode="&#x6d3;" horiz-adv-x="456" arabic-form="final" d="M189.5 -228.5q-51.5 7.5 -88 40.5t-36.5 103q0 77 41.5 111t82 39t99.5 5h168v-70h-151q-64 0 -107 -15t-43 -70q0 -46 40 -63.5t124 -17.5h266v-70h-261q-83 0 -134.5 7.5zM75 161q0 12 9 19.5t21 7.5q8 0 14 -3q-12 13 -22.5 36.5t-10.5 48.5q0 42 28.5 68t79.5 26 q62 0 62 -40q0 -16 -9 -24t-20 -8q-9 0 -13 4q1 18 -11.5 29t-28.5 14q-12 -3 -21.5 -18.5t-9.5 -42.5q0 -77 82 -77q24 0 34 4q21 0 21 -19q0 -6 -3 -11.5t-7 -5.5q-66 -6 -123.5 -14.5t-63.5 -14.5q-8 13 -8 21z" />
<glyph unicode="&#x649;" horiz-adv-x="332" arabic-form="initial" d="M0 70h67q69 0 89.5 56t20.5 114q0 63 -16.5 119.5t-68.5 100.5q22 20 55 20q63 0 91.5 -62t28.5 -148q0 -110 -47 -190t-160 -80h-60v70z" />
<glyph unicode="&#x649;" horiz-adv-x="329" arabic-form="medial" d="M329 70v-70h-95q-33 0 -54.5 6.5t-39.5 19.5q-36 -23 -83 -26h-57v70h57q30 1 57 12v352q0 46 45 46t45 -45v-283q0 -36 4.5 -59t21.5 -23h99z" />
<glyph unicode="&#x6cc;" horiz-adv-x="912" arabic-form="final" d="M189.5 -186.5q-76.5 49.5 -100.5 111t-24 115.5q0 65 28.5 107.5t74.5 42.5q18 0 31.5 -6.5t18.5 -14.5q-26 -21 -44 -66.5t-18 -92.5q0 -79 61.5 -128t203.5 -49q82 0 140.5 21.5t88 59.5t29.5 86h-29q-48 0 -70 20.5t-22 49.5q0 15 4 24q13 -9 36.5 -16.5t50.5 -7.5 h263v-70h-145q0 -56 -35.5 -110t-111 -90t-189.5 -36h-22q-143 0 -219.5 49.5z" />
<glyph unicode="&#x6cc;" horiz-adv-x="332" arabic-form="initial" d="M0 70h67q69 0 89.5 56t20.5 114q0 63 -16.5 119.5t-68.5 100.5q22 20 55 20q63 0 91.5 -62t28.5 -148q0 -110 -47 -190t-160 -80h-60v70zM34 -178q-17 17 -17 40q0 24 17 41t40 17q24 0 40.5 -17t16.5 -41q0 -23 -16.5 -40t-40.5 -17q-23 0 -40 17zM180 -178 q-17 17 -17 40q0 24 17 41t40 17q24 0 40.5 -17t16.5 -41q0 -23 -16.5 -40t-40.5 -17q-23 0 -40 17z" />
<glyph unicode="&#x6cc;" horiz-adv-x="329" arabic-form="medial" d="M329 70v-70h-95q-33 0 -54.5 6.5t-39.5 19.5q-36 -23 -83 -26h-57v70h57q30 1 57 12v352q0 46 45 46t45 -45v-283q0 -36 4.5 -59t21.5 -23h99zM46 -178q-17 17 -17 40q0 24 17 41t40 17q24 0 40.5 -17t16.5 -41q0 -23 -16.5 -40t-40.5 -17q-23 0 -40 17zM192 -178 q-17 17 -17 40q0 24 17 41t40 17q24 0 40.5 -17t16.5 -41q0 -23 -16.5 -40t-40.5 -17q-23 0 -40 17z" />
<glyph unicode="&#xfc64;" horiz-adv-x="648" arabic-form="final" d="M648 70v-70h-63q-65 0 -108.5 49t-43.5 146v215q-77 0 -123.5 -13t-89.5 -36v-434q0 -31 -13 -66.5t-46 -62.5t-89 -27q-51 0 -79 18.5t-38 33.5q29 -8 62 -8q39 0 64.5 16t37 39t11.5 45v447q15 28 51.5 55t94 45t131.5 18q56 0 86 -19t30 -80v-193q0 -46 23 -82t66 -36 h36zM375 566q0 12 9 19.5t21 7.5q8 0 14 -3q-12 13 -22.5 36.5t-10.5 48.5q0 42 28.5 68t79.5 26q62 0 62 -40q0 -16 -9 -24t-20 -8q-9 0 -13 4q1 18 -11.5 29t-28.5 14q-12 -3 -21.5 -18.5t-9.5 -42.5q0 -77 82 -77q24 0 34 4q21 0 21 -19q0 -6 -3 -11.5t-7 -5.5 q-66 -6 -123.5 -14.5t-63.5 -14.5q-8 13 -8 21z" />
<glyph unicode="&#xfc65;" horiz-adv-x="648" arabic-form="final" d="M648 70v-70h-63q-65 0 -108.5 49t-43.5 146v215q-77 0 -123.5 -13t-89.5 -36v-434q0 -31 -13 -66.5t-46 -62.5t-89 -27q-51 0 -79 18.5t-38 33.5q29 -8 62 -8q39 0 64.5 16t37 39t11.5 45v447q15 28 51.5 55t94 45t131.5 18q56 0 86 -19t30 -80v-193q0 -46 23 -82t66 -36 h36zM375 566q0 12 9 19.5t21 7.5q8 0 14 -3q-12 13 -22.5 36.5t-10.5 48.5q0 42 28.5 68t79.5 26q62 0 62 -40q0 -16 -9 -24t-20 -8q-9 0 -13 4q1 18 -11.5 29t-28.5 14q-12 -3 -21.5 -18.5t-9.5 -42.5q0 -77 82 -77q24 0 34 4q21 0 21 -19q0 -6 -3 -11.5t-7 -5.5 q-66 -6 -123.5 -14.5t-63.5 -14.5q-8 13 -8 21zM134 562q-17 17 -17 40q0 24 17 41t42 17q23 0 40 -17t17 -41q0 -23 -17 -40t-40 -17q-25 0 -42 17z" />
<glyph unicode="&#xfc6a;" horiz-adv-x="648" arabic-form="final" d="M648 70v-70h-63q-65 0 -108.5 49t-43.5 146v215q-77 0 -123.5 -13t-89.5 -36v-434q0 -31 -13 -66.5t-46 -62.5t-89 -27q-51 0 -79 18.5t-38 33.5q29 -8 62 -8q39 0 64.5 16t37 39t11.5 45v447q15 28 51.5 55t94 45t131.5 18q56 0 86 -19t30 -80v-193q0 -46 23 -82t66 -36 h36zM437 -178q-17 17 -17 40q0 24 17 41t42 17q23 0 40 -17t17 -41q0 -23 -17 -40t-40 -17q-25 0 -42 17z" />
<glyph unicode="&#xfc6b;" horiz-adv-x="648" arabic-form="final" d="M648 70v-70h-63q-65 0 -108.5 49t-43.5 146v215q-77 0 -123.5 -13t-89.5 -36v-434q0 -31 -13 -66.5t-46 -62.5t-89 -27q-51 0 -79 18.5t-38 33.5q29 -8 62 -8q39 0 64.5 16t37 39t11.5 45v447q15 28 51.5 55t94 45t131.5 18q56 0 86 -19t30 -80v-193q0 -46 23 -82t66 -36 h36zM437 -178q-17 17 -17 40q0 24 17 41t42 17q23 0 40 -17t17 -41q0 -23 -17 -40t-40 -17q-25 0 -42 17zM134 562q-17 17 -17 40q0 24 17 41t42 17q23 0 40 -17t17 -41q0 -23 -17 -40t-40 -17q-25 0 -42 17z" />
<glyph unicode="&#xfc70;" horiz-adv-x="648" arabic-form="final" d="M648 70v-70h-63q-65 0 -108.5 49t-43.5 146v215q-77 0 -123.5 -13t-89.5 -36v-434q0 -31 -13 -66.5t-46 -62.5t-89 -27q-51 0 -79 18.5t-38 33.5q29 -8 62 -8q39 0 64.5 16t37 39t11.5 45v447q15 28 51.5 55t94 45t131.5 18q56 0 86 -19t30 -80v-193q0 -46 23 -82t66 -36 h36zM366 562q-17 17 -17 40q0 24 17 41t40 17q24 0 40.5 -17t16.5 -41q0 -23 -16.5 -40t-40.5 -17q-23 0 -40 17zM512 562q-17 17 -17 40q0 24 17 41t40 17q24 0 40.5 -17t16.5 -41q0 -23 -16.5 -40t-40.5 -17q-23 0 -40 17z" />
<glyph unicode="&#xfc71;" horiz-adv-x="648" arabic-form="final" d="M648 70v-70h-63q-65 0 -108.5 49t-43.5 146v215q-77 0 -123.5 -13t-89.5 -36v-434q0 -31 -13 -66.5t-46 -62.5t-89 -27q-51 0 -79 18.5t-38 33.5q29 -8 62 -8q39 0 64.5 16t37 39t11.5 45v447q15 28 51.5 55t94 45t131.5 18q56 0 86 -19t30 -80v-193q0 -46 23 -82t66 -36 h36zM366 562q-17 17 -17 40q0 24 17 41t40 17q24 0 40.5 -17t16.5 -41q0 -23 -16.5 -40t-40.5 -17q-23 0 -40 17zM512 562q-17 17 -17 40q0 24 17 41t40 17q24 0 40.5 -17t16.5 -41q0 -23 -16.5 -40t-40.5 -17q-23 0 -40 17zM134 562q-17 17 -17 40q0 24 17 41t42 17 q23 0 40 -17t17 -41q0 -23 -17 -40t-40 -17q-25 0 -42 17z" />
<glyph unicode="&#xfc76;" horiz-adv-x="648" arabic-form="final" d="M648 70v-70h-63q-65 0 -108.5 49t-43.5 146v215q-77 0 -123.5 -13t-89.5 -36v-434q0 -31 -13 -66.5t-46 -62.5t-89 -27q-51 0 -79 18.5t-38 33.5q29 -8 62 -8q39 0 64.5 16t37 39t11.5 45v447q15 28 51.5 55t94 45t131.5 18q56 0 86 -19t30 -80v-193q0 -46 23 -82t66 -36 h36zM515.5 763.5q15.5 -15.5 15.5 -37.5t-15.5 -37.5t-37.5 -15.5t-37.5 15.5t-15.5 37.5t15.5 37.5t37.5 15.5t37.5 -15.5zM445.5 643q16.5 -17 16.5 -40q0 -24 -16.5 -41t-40.5 -17q-23 0 -40 17t-17 41q0 23 17 40t40 17q24 0 40.5 -17zM591.5 643q16.5 -17 16.5 -40 q0 -24 -16.5 -41t-40.5 -17q-23 0 -40 17t-17 41q0 23 17 40t40 17q24 0 40.5 -17z" />
<glyph unicode="&#xfc77;" horiz-adv-x="648" arabic-form="final" d="M648 70v-70h-63q-65 0 -108.5 49t-43.5 146v215q-77 0 -123.5 -13t-89.5 -36v-434q0 -31 -13 -66.5t-46 -62.5t-89 -27q-51 0 -79 18.5t-38 33.5q29 -8 62 -8q39 0 64.5 16t37 39t11.5 45v447q15 28 51.5 55t94 45t131.5 18q56 0 86 -19t30 -80v-193q0 -46 23 -82t66 -36 h36zM515.5 763.5q15.5 -15.5 15.5 -37.5t-15.5 -37.5t-37.5 -15.5t-37.5 15.5t-15.5 37.5t15.5 37.5t37.5 15.5t37.5 -15.5zM445.5 643q16.5 -17 16.5 -40q0 -24 -16.5 -41t-40.5 -17q-23 0 -40 17t-17 41q0 23 17 40t40 17q24 0 40.5 -17zM591.5 643q16.5 -17 16.5 -40 q0 -24 -16.5 -41t-40.5 -17q-23 0 -40 17t-17 41q0 23 17 40t40 17q24 0 40.5 -17zM134 562q-17 17 -17 40q0 24 17 41t42 17q23 0 40 -17t17 -41q0 -23 -17 -40t-40 -17q-25 0 -42 17z" />
<glyph unicode="&#xfc8a;" horiz-adv-x="648" arabic-form="final" d="M648 70v-70h-63q-65 0 -108.5 49t-43.5 146v215q-77 0 -123.5 -13t-89.5 -36v-434q0 -31 -13 -66.5t-46 -62.5t-89 -27q-51 0 -79 18.5t-38 33.5q29 -8 62 -8q39 0 64.5 16t37 39t11.5 45v447q15 28 51.5 55t94 45t131.5 18q56 0 86 -19t30 -80v-193q0 -46 23 -82t66 -36 h36zM437 562q-17 17 -17 40q0 24 17 41t42 17q23 0 40 -17t17 -41q0 -23 -17 -40t-40 -17q-25 0 -42 17z" />
<glyph unicode="&#xfc8b;" horiz-adv-x="648" arabic-form="final" d="M648 70v-70h-63q-65 0 -108.5 49t-43.5 146v215q-77 0 -123.5 -13t-89.5 -36v-434q0 -31 -13 -66.5t-46 -62.5t-89 -27q-51 0 -79 18.5t-38 33.5q29 -8 62 -8q39 0 64.5 16t37 39t11.5 45v447q15 28 51.5 55t94 45t131.5 18q56 0 86 -19t30 -80v-193q0 -46 23 -82t66 -36 h36zM437 562q-17 17 -17 40q0 24 17 41t42 17q23 0 40 -17t17 -41q0 -23 -17 -40t-40 -17q-25 0 -42 17zM134 562q-17 17 -17 40q0 24 17 41t42 17q23 0 40 -17t17 -41q0 -23 -17 -40t-40 -17q-25 0 -42 17z" />
<glyph unicode="&#xfc91;" horiz-adv-x="648" arabic-form="final" d="M648 70v-70h-63q-65 0 -108.5 49t-43.5 146v215q-77 0 -123.5 -13t-89.5 -36v-434q0 -31 -13 -66.5t-46 -62.5t-89 -27q-51 0 -79 18.5t-38 33.5q29 -8 62 -8q39 0 64.5 16t37 39t11.5 45v447q15 28 51.5 55t94 45t131.5 18q56 0 86 -19t30 -80v-193q0 -46 23 -82t66 -36 h36zM365 -178q-17 17 -17 40q0 24 17 41t40 17q24 0 40.5 -17t16.5 -41q0 -23 -16.5 -40t-40.5 -17q-23 0 -40 17zM511 -178q-17 17 -17 40q0 24 17 41t40 17q24 0 40.5 -17t16.5 -41q0 -23 -16.5 -40t-40.5 -17q-23 0 -40 17z" />
<glyph unicode="&#xfc92;" horiz-adv-x="648" arabic-form="final" d="M648 70v-70h-63q-65 0 -108.5 49t-43.5 146v215q-77 0 -123.5 -13t-89.5 -36v-434q0 -31 -13 -66.5t-46 -62.5t-89 -27q-51 0 -79 18.5t-38 33.5q29 -8 62 -8q39 0 64.5 16t37 39t11.5 45v447q15 28 51.5 55t94 45t131.5 18q56 0 86 -19t30 -80v-193q0 -46 23 -82t66 -36 h36zM365 -178q-17 17 -17 40q0 24 17 41t40 17q24 0 40.5 -17t16.5 -41q0 -23 -16.5 -40t-40.5 -17q-23 0 -40 17zM511 -178q-17 17 -17 40q0 24 17 41t40 17q24 0 40.5 -17t16.5 -41q0 -23 -16.5 -40t-40.5 -17q-23 0 -40 17zM134 562q-17 17 -17 40q0 24 17 41t42 17 q23 0 40 -17t17 -41q0 -23 -17 -40t-40 -17q-25 0 -42 17z" />
<glyph unicode="&#xfd0d;" horiz-adv-x="1221" arabic-form="isolated" d="M1127.5 418q28.5 -62 28.5 -148q0 -110 -47 -190t-160 -80h-11q-55 0 -89 12.5t-66 45.5q-20 -24 -48.5 -41t-58.5 -17h-35h-56q-65 0 -108.5 49t-43.5 146v215q-77 0 -123.5 -13t-89.5 -36v-434q0 -31 -13 -66.5t-46 -62.5t-89 -27q-51 0 -79 18.5t-38 33.5q29 -8 62 -8 q39 0 64.5 16t37 39t11.5 45v447q15 28 51.5 55t94 45t131.5 18q56 0 86 -19t30 -80v-193q0 -46 23 -82t66 -36h29q51 0 71 19.5t20 55.5v257q0 22 12.5 34.5t35.5 12.5q42 0 42 -47v-201q0 -51 15.5 -91t57.5 -40h61q69 0 89.5 58.5t20.5 111.5q0 63 -16.5 119.5 t-68.5 100.5q22 20 55 20q63 0 91.5 -62zM817.5 763.5q15.5 -15.5 15.5 -37.5t-15.5 -37.5t-37.5 -15.5t-37.5 15.5t-15.5 37.5t15.5 37.5t37.5 15.5t37.5 -15.5zM747.5 643q16.5 -17 16.5 -40q0 -24 -16.5 -41t-40.5 -17q-23 0 -40 17t-17 41q0 23 17 40t40 17 q24 0 40.5 -17zM893.5 643q16.5 -17 16.5 -40q0 -24 -16.5 -41t-40.5 -17q-23 0 -40 17t-17 41q0 23 17 40t40 17q24 0 40.5 -17z" />
<glyph unicode="&#xfd0e;" horiz-adv-x="1221" arabic-form="isolated" d="M1127.5 418q28.5 -62 28.5 -148q0 -110 -47 -190t-160 -80h-11q-55 0 -89 12.5t-66 45.5q-20 -24 -48.5 -41t-58.5 -17h-35h-56q-65 0 -108.5 49t-43.5 146v215q-77 0 -123.5 -13t-89.5 -36v-434q0 -31 -13 -66.5t-46 -62.5t-89 -27q-51 0 -79 18.5t-38 33.5q29 -8 62 -8 q39 0 64.5 16t37 39t11.5 45v447q15 28 51.5 55t94 45t131.5 18q56 0 86 -19t30 -80v-193q0 -46 23 -82t66 -36h29q51 0 71 19.5t20 55.5v257q0 22 12.5 34.5t35.5 12.5q42 0 42 -47v-201q0 -51 15.5 -91t57.5 -40h61q69 0 89.5 58.5t20.5 111.5q0 63 -16.5 119.5 t-68.5 100.5q22 20 55 20q63 0 91.5 -62z" />
<glyph unicode="&#xfd0f;" horiz-adv-x="1062" arabic-form="isolated" d="M854 457q61 -23 102 -78t41 -144q0 -84 -42.5 -159.5t-162.5 -75.5h-359v70v340q-77 0 -123.5 -13t-89.5 -36v-434q0 -31 -13 -66.5t-46 -62.5t-89 -27q-51 0 -79 18.5t-38 33.5q29 -8 62 -8q39 0 64.5 16t37 39t11.5 45v447q15 28 51.5 55t94 45t131.5 18q48 0 77 -13.5 t37 -55.5q36 29 90 49t117 20q65 0 126 -23zM875 125q32 55 32 111q0 62 -31 101t-76.5 56t-93.5 17q-61 0 -111.5 -24t-71.5 -51v-265h230q90 0 122 55z" />
<glyph unicode="&#xfd10;" horiz-adv-x="1062" arabic-form="isolated" d="M854 457q61 -23 102 -78t41 -144q0 -84 -42.5 -159.5t-162.5 -75.5h-359v70v340q-77 0 -123.5 -13t-89.5 -36v-434q0 -31 -13 -66.5t-46 -62.5t-89 -27q-51 0 -79 18.5t-38 33.5q29 -8 62 -8q39 0 64.5 16t37 39t11.5 45v447q15 28 51.5 55t94 45t131.5 18q48 0 77 -13.5 t37 -55.5q36 29 90 49t117 20q65 0 126 -23zM875 125q32 55 32 111q0 62 -31 101t-76.5 56t-93.5 17q-61 0 -111.5 -24t-71.5 -51v-265h230q90 0 122 55zM686 562q-17 17 -17 40q0 24 17 41t42 17q23 0 40 -17t17 -41q0 -23 -17 -40t-40 -17q-25 0 -42 17z" />
<glyph unicode="&#xfd29;" horiz-adv-x="1264" arabic-form="final" d="M1264 70v-70h-133q-56 0 -87 22q-41 -22 -95 -22h-11q-55 0 -89 12.5t-66 45.5q-20 -24 -48.5 -41t-58.5 -17h-35h-56q-65 0 -108.5 49t-43.5 146v215q-77 0 -123.5 -13t-89.5 -36v-434q0 -31 -13 -66.5t-46 -62.5t-89 -27q-51 0 -79 18.5t-38 33.5q29 -8 62 -8 q39 0 64.5 16t37 39t11.5 45v447q15 28 51.5 55t94 45t131.5 18q56 0 86 -19t30 -80v-193q0 -46 23 -82t66 -36h29q51 0 71 19.5t20 55.5v257q0 22 12.5 34.5t35.5 12.5q42 0 42 -47v-201q0 -51 15.5 -91t57.5 -40h61q69 0 89.5 58.5t20.5 111.5q0 63 -16.5 119.5 t-68.5 100.5q22 20 55 20q63 0 91.5 -62t28.5 -148q0 -128 -55 -200h163zM817.5 763.5q15.5 -15.5 15.5 -37.5t-15.5 -37.5t-37.5 -15.5t-37.5 15.5t-15.5 37.5t15.5 37.5t37.5 15.5t37.5 -15.5zM747.5 643q16.5 -17 16.5 -40q0 -24 -16.5 -41t-40.5 -17q-23 0 -40 17 t-17 41q0 23 17 40t40 17q24 0 40.5 -17zM893.5 643q16.5 -17 16.5 -40q0 -24 -16.5 -41t-40.5 -17q-23 0 -40 17t-17 41q0 23 17 40t40 17q24 0 40.5 -17z" />
<glyph unicode="&#xfd2a;" horiz-adv-x="1264" arabic-form="final" d="M1264 70v-70h-133q-56 0 -87 22q-41 -22 -95 -22h-11q-55 0 -89 12.5t-66 45.5q-20 -24 -48.5 -41t-58.5 -17h-35h-56q-65 0 -108.5 49t-43.5 146v215q-77 0 -123.5 -13t-89.5 -36v-434q0 -31 -13 -66.5t-46 -62.5t-89 -27q-51 0 -79 18.5t-38 33.5q29 -8 62 -8 q39 0 64.5 16t37 39t11.5 45v447q15 28 51.5 55t94 45t131.5 18q56 0 86 -19t30 -80v-193q0 -46 23 -82t66 -36h29q51 0 71 19.5t20 55.5v257q0 22 12.5 34.5t35.5 12.5q42 0 42 -47v-201q0 -51 15.5 -91t57.5 -40h61q69 0 89.5 58.5t20.5 111.5q0 63 -16.5 119.5 t-68.5 100.5q22 20 55 20q63 0 91.5 -62t28.5 -148q0 -128 -55 -200h163z" />
<glyph unicode="&#xfd2b;" horiz-adv-x="1066" arabic-form="final" d="M1066 70v-70h-85q-52 0 -88 22q-42 -22 -101 -22h-359v70v340q-77 0 -123.5 -13t-89.5 -36v-434q0 -31 -13 -66.5t-46 -62.5t-89 -27q-51 0 -79 18.5t-38 33.5q29 -8 62 -8q39 0 64.5 16t37 39t11.5 45v447q15 28 51.5 55t94 45t131.5 18q48 0 77 -13.5t37 -55.5 q36 29 90 49t117 20q65 0 126 -23t102 -78t41 -144q0 -40 -10 -84.5t-37 -80.5h116zM875 125q32 55 32 111q0 62 -31 101t-76.5 56t-93.5 17q-61 0 -111.5 -24t-71.5 -51v-265h230q90 0 122 55z" />
<glyph unicode="&#xfd2c;" horiz-adv-x="1066" arabic-form="final" d="M1066 70v-70h-85q-52 0 -88 22q-42 -22 -101 -22h-359v70v340q-77 0 -123.5 -13t-89.5 -36v-434q0 -31 -13 -66.5t-46 -62.5t-89 -27q-51 0 -79 18.5t-38 33.5q29 -8 62 -8q39 0 64.5 16t37 39t11.5 45v447q15 28 51.5 55t94 45t131.5 18q48 0 77 -13.5t37 -55.5 q36 29 90 49t117 20q65 0 126 -23t102 -78t41 -144q0 -40 -10 -84.5t-37 -80.5h116zM875 125q32 55 32 111q0 62 -31 101t-76.5 56t-93.5 17q-61 0 -111.5 -24t-71.5 -51v-265h230q90 0 122 55zM686 562q-17 17 -17 40q0 24 17 41t42 17q23 0 40 -17t17 -41q0 -23 -17 -40 t-40 -17q-25 0 -42 17z" />
<glyph unicode="&#x622;" horiz-adv-x="315" arabic-form="final" d="M148.5 49q-43.5 49 -43.5 146v256q0 43 -17 76t-38 47q6 8 25.5 16.5t40.5 8.5q33 0 56 -25.5t23 -85.5v-300q0 -46 23 -82t66 -36h31v-70h-58q-65 0 -108.5 49zM136 646q-20 6 -46 18q-23 10 -39 15.5t-33 5.5q-19 0 -32 -8t-18 -8t1.5 18t26.5 33t54 15q20 0 37.5 -5 t42.5 -15q22 -9 39.5 -14t36.5 -5q15 0 24 3t19 9t17 6q3 -3 -4 -22.5t-27 -35.5t-56 -16q-23 0 -43 6z" />
<glyph unicode="&#x623;" horiz-adv-x="315" arabic-form="final" d="M148.5 49q-43.5 49 -43.5 146v256q0 43 -17 76t-38 47q6 8 25.5 16.5t40.5 8.5q33 0 56 -25.5t23 -85.5v-300q0 -46 23 -82t66 -36h31v-70h-58q-65 0 -108.5 49zM13 661q0 12 9 19.5t21 7.5q8 0 14 -3q-12 13 -22.5 36.5t-10.5 48.5q0 42 28.5 68t79.5 26q62 0 62 -40 q0 -16 -9 -24t-20 -8q-9 0 -13 4q1 18 -11.5 29t-28.5 14q-12 -3 -21.5 -18.5t-9.5 -42.5q0 -77 82 -77q24 0 34 4q21 0 21 -19q0 -6 -3 -11.5t-7 -5.5q-66 -6 -123.5 -14.5t-63.5 -14.5q-8 13 -8 21z" />
<glyph unicode="&#x624;" horiz-adv-x="528" arabic-form="final" d="M528 0h-85v-68q0 -34 -12.5 -70.5t-46 -63.5t-91.5 -27q-44 0 -77 16.5t-46 37.5q35 -8 62 -8q55 0 88 29.5t33 74.5l1 79l-106 -2q-100 0 -141.5 57.5t-41.5 180.5q0 99 23 152.5t64 72.5t105 19q88 0 137 -34.5t49 -123.5v-252h85v-70zM179 124.5q24 -54.5 104 -54.5 h70v228q0 112 -90 112q-108 0 -108 -172q0 -59 24 -113.5zM154 566q0 12 9 19.5t21 7.5q8 0 14 -3q-12 13 -22.5 36.5t-10.5 48.5q0 42 28.5 68t79.5 26q62 0 62 -40q0 -16 -9 -24t-20 -8q-9 0 -13 4q1 18 -11.5 29t-28.5 14q-12 -3 -21.5 -18.5t-9.5 -42.5q0 -77 82 -77 q24 0 34 4q21 0 21 -19q0 -6 -3 -11.5t-7 -5.5q-66 -6 -123.5 -14.5t-63.5 -14.5q-8 13 -8 21z" />
<glyph unicode="&#x625;" horiz-adv-x="315" arabic-form="final" d="M149 49q-43 49 -44 145v318q0 43 -17 76t-38 47q6 8 25.5 16.5t40.5 8.5q33 0 56 -25.5t23 -85.5v-361q0 -47 23 -82.5t66 -35.5h31v-70h-57q-66 0 -109 49zM55 -253q0 12 9 19.5t21 7.5q8 0 14 -3q-13 14 -23 37t-10 48q0 42 28.5 68t79.5 26q62 0 62 -40q0 -16 -9 -24 t-20 -8q-9 0 -13 4q1 18 -11.5 29t-28.5 14q-12 -3 -21.5 -18.5t-9.5 -42.5q0 -77 82 -77q24 0 34 4q21 0 21 -19q0 -6 -3 -11.5t-7 -5.5q-66 -6 -123.5 -14.5t-63.5 -14.5q-8 13 -8 21z" />
<glyph unicode="&#x626;" horiz-adv-x="912" arabic-form="final" d="M189.5 -186.5q-76.5 49.5 -100.5 111t-24 115.5q0 65 28.5 107.5t74.5 42.5q18 0 31.5 -6.5t18.5 -14.5q-26 -21 -44 -66.5t-18 -92.5q0 -79 61.5 -128t203.5 -49q82 0 140.5 21.5t88 59.5t29.5 86h-29q-48 0 -70 20.5t-22 49.5q0 15 4 24q13 -9 36.5 -16.5t50.5 -7.5 h263v-70h-145q0 -56 -35.5 -110t-111 -90t-189.5 -36h-22q-143 0 -219.5 49.5zM86 281q0 12 9 19.5t21 7.5q8 0 14 -3q-12 13 -22.5 36.5t-10.5 48.5q0 42 28.5 68t79.5 26q62 0 62 -40q0 -16 -9 -24t-20 -8q-9 0 -13 4q1 18 -11.5 29t-28.5 14q-12 -3 -21.5 -18.5 t-9.5 -42.5q0 -77 82 -77q24 0 34 4q21 0 21 -19q0 -6 -3 -11.5t-7 -5.5q-66 -6 -123.5 -14.5t-63.5 -14.5q-8 13 -8 21z" />
<glyph unicode="&#x626;" horiz-adv-x="332" arabic-form="initial" d="M0 70h67q69 0 89.5 56t20.5 114q0 63 -16.5 119.5t-68.5 100.5q22 20 55 20q63 0 91.5 -62t28.5 -148q0 -110 -47 -190t-160 -80h-60v70zM44 566q0 12 9 19.5t21 7.5q8 0 14 -3q-12 13 -22.5 36.5t-10.5 48.5q0 42 28.5 68t79.5 26q62 0 62 -40q0 -16 -9 -24t-20 -8 q-9 0 -13 4q1 18 -11.5 29t-28.5 14q-12 -3 -21.5 -18.5t-9.5 -42.5q0 -77 82 -77q24 0 34 4q21 0 21 -19q0 -6 -3 -11.5t-7 -5.5q-66 -6 -123.5 -14.5t-63.5 -14.5q-8 13 -8 21z" />
<glyph unicode="&#x626;" horiz-adv-x="329" arabic-form="medial" d="M329 70v-70h-95q-33 0 -54.5 6.5t-39.5 19.5q-36 -23 -83 -26h-57v70h57q30 1 57 12v352q0 46 45 46t45 -45v-283q0 -36 4.5 -59t21.5 -23h99zM56 566q0 12 9 19.5t21 7.5q8 0 14 -3q-12 13 -22.5 36.5t-10.5 48.5q0 42 28.5 68t79.5 26q62 0 62 -40q0 -16 -9 -24t-20 -8 q-9 0 -13 4q1 18 -11.5 29t-28.5 14q-12 -3 -21.5 -18.5t-9.5 -42.5q0 -77 82 -77q24 0 34 4q21 0 21 -19q0 -6 -3 -11.5t-7 -5.5q-66 -6 -123.5 -14.5t-63.5 -14.5q-8 13 -8 21z" />
<glyph unicode="&#x627;" horiz-adv-x="315" arabic-form="final" d="M149 49q-43 49 -44 145v318q0 43 -17 76t-38 47q6 8 25.5 16.5t40.5 8.5q33 0 56 -25.5t23 -85.5v-361q0 -47 23 -82.5t66 -35.5h31v-70h-57q-66 0 -109 49z" />
<glyph unicode="&#x628;" horiz-adv-x="799" arabic-form="final" d="M799 70v-70h-130q-33 0 -54.5 6.5t-39.5 19.5q-44 -26 -103 -26h-277q-68 0 -99 39t-31 102v243q0 43 45 43t45 -44v-213q0 -56 17.5 -78t65.5 -22h241q69 0 89.5 58.5t20.5 111.5q0 63 -16.5 119.5t-68.5 100.5q22 20 55 20q63 0 91.5 -62t28.5 -148q0 -128 -55 -200 h175zM299 -178q-17 17 -17 40q0 24 17 41t42 17q23 0 40 -17t17 -41q0 -23 -17 -40t-40 -17q-25 0 -42 17z" />
<glyph unicode="&#x628;" horiz-adv-x="332" arabic-form="initial" d="M0 70h67q69 0 89.5 56t20.5 114q0 63 -16.5 119.5t-68.5 100.5q22 20 55 20q63 0 91.5 -62t28.5 -148q0 -110 -47 -190t-160 -80h-60v70zM106 -178q-17 17 -17 40q0 24 17 41t42 17q23 0 40 -17t17 -41q0 -23 -17 -40t-40 -17q-25 0 -42 17z" />
<glyph unicode="&#x628;" horiz-adv-x="329" arabic-form="medial" d="M329 70v-70h-95q-33 0 -54.5 6.5t-39.5 19.5q-36 -23 -83 -26h-57v70h57q30 1 57 12v352q0 46 45 46t45 -45v-283q0 -36 4.5 -59t21.5 -23h99zM118 -178q-17 17 -17 40q0 24 17 41t42 17q23 0 40 -17t17 -41q0 -23 -17 -40t-40 -17q-25 0 -42 17z" />
<glyph unicode="&#x629;" horiz-adv-x="511" arabic-form="final" d="M511 70v-70h-74q-33 0 -51 6t-32 14q-46 -22 -106 -22q-100 0 -141.5 57.5t-41.5 180.5q0 99 23 152.5t64 72.5t105 19q88 0 137 -34.5t49 -123.5v-252h68zM179 124.5q24 -54.5 104 -54.5h70v228q0 112 -90 112q-108 0 -108 -172q0 -59 24 -113.5zM348 22h-1h1zM144 562 q-17 17 -17 40q0 24 17 41t40 17q24 0 40.5 -17t16.5 -41q0 -23 -16.5 -40t-40.5 -17q-23 0 -40 17zM290 562q-17 17 -17 40q0 24 17 41t40 17q24 0 40.5 -17t16.5 -41q0 -23 -16.5 -40t-40.5 -17q-23 0 -40 17z" />
<glyph unicode="&#x62a;" horiz-adv-x="799" arabic-form="final" d="M799 70v-70h-130q-33 0 -54.5 6.5t-39.5 19.5q-44 -26 -103 -26h-277q-68 0 -99 39t-31 102v243q0 43 45 43t45 -44v-213q0 -56 17.5 -78t65.5 -22h241q69 0 89.5 58.5t20.5 111.5q0 63 -16.5 119.5t-68.5 100.5q22 20 55 20q63 0 91.5 -62t28.5 -148q0 -128 -55 -200 h175zM228 517q-17 17 -17 40q0 24 17 41t40 17q24 0 40.5 -17t16.5 -41q0 -23 -16.5 -40t-40.5 -17q-23 0 -40 17zM374 517q-17 17 -17 40q0 24 17 41t40 17q24 0 40.5 -17t16.5 -41q0 -23 -16.5 -40t-40.5 -17q-23 0 -40 17z" />
<glyph unicode="&#x62a;" horiz-adv-x="332" arabic-form="initial" d="M0 70h67q69 0 89.5 56t20.5 114q0 63 -16.5 119.5t-68.5 100.5q22 20 55 20q63 0 91.5 -62t28.5 -148q0 -110 -47 -190t-160 -80h-60v70zM35 562q-17 17 -17 40q0 24 17 41t40 17q24 0 40.5 -17t16.5 -41q0 -23 -16.5 -40t-40.5 -17q-23 0 -40 17zM181 562q-17 17 -17 40 q0 24 17 41t40 17q24 0 40.5 -17t16.5 -41q0 -23 -16.5 -40t-40.5 -17q-23 0 -40 17z" />
<glyph unicode="&#x62a;" horiz-adv-x="329" arabic-form="medial" d="M329 70v-70h-95q-33 0 -54.5 6.5t-39.5 19.5q-36 -23 -83 -26h-57v70h57q30 1 57 12v352q0 46 45 46t45 -45v-283q0 -36 4.5 -59t21.5 -23h99zM47 562q-17 17 -17 40q0 24 17 41t40 17q24 0 40.5 -17t16.5 -41q0 -23 -16.5 -40t-40.5 -17q-23 0 -40 17zM193 562 q-17 17 -17 40q0 24 17 41t40 17q24 0 40.5 -17t16.5 -41q0 -23 -16.5 -40t-40.5 -17q-23 0 -40 17z" />
<glyph unicode="&#x62b;" horiz-adv-x="799" arabic-form="final" d="M799 70v-70h-130q-33 0 -54.5 6.5t-39.5 19.5q-44 -26 -103 -26h-277q-68 0 -99 39t-31 102v243q0 43 45 43t45 -44v-213q0 -56 17.5 -78t65.5 -22h241q69 0 89.5 58.5t20.5 111.5q0 63 -16.5 119.5t-68.5 100.5q22 20 55 20q63 0 91.5 -62t28.5 -148q0 -128 -55 -200 h175zM377.5 718.5q15.5 -15.5 15.5 -37.5t-15.5 -37.5t-37.5 -15.5t-37.5 15.5t-15.5 37.5t15.5 37.5t37.5 15.5t37.5 -15.5zM307.5 598q16.5 -17 16.5 -40q0 -24 -16.5 -41t-40.5 -17q-23 0 -40 17t-17 41q0 23 17 40t40 17q24 0 40.5 -17zM453.5 598q16.5 -17 16.5 -40 q0 -24 -16.5 -41t-40.5 -17q-23 0 -40 17t-17 41q0 23 17 40t40 17q24 0 40.5 -17z" />
<glyph unicode="&#x62b;" horiz-adv-x="332" arabic-form="initial" d="M0 70h67q69 0 89.5 56t20.5 114q0 63 -16.5 119.5t-68.5 100.5q22 20 55 20q63 0 91.5 -62t28.5 -148q0 -110 -47 -190t-160 -80h-60v70zM184.5 763.5q15.5 -15.5 15.5 -37.5t-15.5 -37.5t-37.5 -15.5t-37.5 15.5t-15.5 37.5t15.5 37.5t37.5 15.5t37.5 -15.5zM114.5 643 q16.5 -17 16.5 -40q0 -24 -16.5 -41t-40.5 -17q-23 0 -40 17t-17 41q0 23 17 40t40 17q24 0 40.5 -17zM260.5 643q16.5 -17 16.5 -40q0 -24 -16.5 -41t-40.5 -17q-23 0 -40 17t-17 41q0 23 17 40t40 17q24 0 40.5 -17z" />
<glyph unicode="&#x62b;" horiz-adv-x="329" arabic-form="medial" d="M329 70v-70h-95q-33 0 -54.5 6.5t-39.5 19.5q-36 -23 -83 -26h-57v70h57q30 1 57 12v352q0 46 45 46t45 -45v-283q0 -36 4.5 -59t21.5 -23h99zM196.5 763.5q15.5 -15.5 15.5 -37.5t-15.5 -37.5t-37.5 -15.5t-37.5 15.5t-15.5 37.5t15.5 37.5t37.5 15.5t37.5 -15.5z M126.5 643q16.5 -17 16.5 -40q0 -24 -16.5 -41t-40.5 -17q-23 0 -40 17t-17 41q0 23 17 40t40 17q24 0 40.5 -17zM272.5 643q16.5 -17 16.5 -40q0 -24 -16.5 -41t-40.5 -17q-23 0 -40 17t-17 41q0 23 17 40t40 17q24 0 40.5 -17z" />
<glyph unicode="&#x62c;" horiz-adv-x="563" arabic-form="final" d="M563 70v-70h-29q-33 0 -54.5 6.5t-39.5 19.5q-46 -26 -112 -26h-189q0 -83 19 -146t67 -103q-7 -6 -24.5 -11.5t-34.5 -5.5q-43 0 -69 37t-36.5 85.5t-10.5 85.5q0 128 117 128h97q58 0 92.5 6.5t63 41.5t28.5 113q0 90 -51 134.5t-179 44.5l-58 -1q-27 0 -43 15.5 t-23 36.5q-7 22 -5 39q14 -10 30 -17t40 -7l28 1q24 3 63 3q149 0 218.5 -63t69.5 -184q0 -102 -47 -163h72zM335 -70q17 -17 17 -41q0 -23 -17 -40t-40 -17q-25 0 -42 17t-17 40q0 24 17 41t42 17q23 0 40 -17z" />
<glyph unicode="&#x62c;" horiz-adv-x="534" arabic-form="initial" d="M0 70h210q57 0 91.5 6t63.5 41t29 113q0 90 -51 135t-179 45l-58 -1q-31 0 -46 14t-21 41t-4 36q14 -10 30 -17t40 -7l28 1q24 3 63 3q149 0 218.5 -63t69.5 -184q0 -109 -53.5 -171t-156.5 -62h-274v70zM226 -178q-17 17 -17 40q0 24 17 41t42 17q23 0 40 -17t17 -41 q0 -23 -17 -40t-40 -17q-25 0 -42 17z" />
<glyph unicode="&#x62c;" horiz-adv-x="530" arabic-form="medial" d="M530 70v-70h-50q-33 0 -54.5 6.5t-39.5 19.5q-46 -26 -112 -26h-274v70h210q57 0 91.5 6t63.5 41t29 113q0 90 -51 135t-179 45l-58 -1q-31 0 -46 14t-21 41t-4 36q14 -10 30 -17t40 -7l28 1q24 3 63 3q149 0 218.5 -63t69.5 -184q0 -102 -47 -163h93zM226 -178 q-17 17 -17 40q0 24 17 41t42 17q23 0 40 -17t17 -41q0 -23 -17 -40t-40 -17q-25 0 -42 17z" />
<glyph unicode="&#x62d;" horiz-adv-x="563" arabic-form="final" d="M563 70v-70h-29q-33 0 -54.5 6.5t-39.5 19.5q-46 -26 -112 -26h-189q0 -83 19 -146t67 -103q-7 -6 -24.5 -11.5t-34.5 -5.5q-43 0 -69 37t-36.5 85.5t-10.5 85.5q0 128 117 128h97q58 0 92.5 6.5t63 41.5t28.5 113q0 90 -51 134.5t-179 44.5l-58 -1q-27 0 -43 15.5 t-23 36.5q-7 22 -5 39q14 -10 30 -17t40 -7l28 1q24 3 63 3q149 0 218.5 -63t69.5 -184q0 -102 -47 -163h72z" />
<glyph unicode="&#x62d;" horiz-adv-x="534" arabic-form="initial" d="M0 70h210q57 0 91.5 6t63.5 41t29 113q0 90 -51 135t-179 45l-58 -1q-31 0 -46 14t-21 41t-4 36q14 -10 30 -17t40 -7l28 1q24 3 63 3q149 0 218.5 -63t69.5 -184q0 -109 -53.5 -171t-156.5 -62h-274v70z" />
<glyph unicode="&#x62d;" horiz-adv-x="530" arabic-form="medial" d="M530 70v-70h-50q-33 0 -54.5 6.5t-39.5 19.5q-46 -26 -112 -26h-274v70h210q57 0 91.5 6t63.5 41t29 113q0 90 -51 135t-179 45l-58 -1q-31 0 -46 14t-21 41t-4 36q14 -10 30 -17t40 -7l28 1q24 3 63 3q149 0 218.5 -63t69.5 -184q0 -102 -47 -163h93z" />
<glyph unicode="&#x62e;" horiz-adv-x="563" arabic-form="final" d="M563 70v-70h-29q-33 0 -54.5 6.5t-39.5 19.5q-46 -26 -112 -26h-189q0 -83 19 -146t67 -103q-7 -6 -24.5 -11.5t-34.5 -5.5q-43 0 -69 37t-36.5 85.5t-10.5 85.5q0 128 117 128h97q58 0 92.5 6.5t63 41.5t28.5 113q0 90 -51 134.5t-179 44.5l-58 -1q-27 0 -43 15.5 t-23 36.5q-7 22 -5 39q14 -10 30 -17t40 -7l28 1q24 3 63 3q149 0 218.5 -63t69.5 -184q0 -102 -47 -163h72zM253 562q-17 17 -17 40q0 24 17 41t42 17q23 0 40 -17t17 -41q0 -23 -17 -40t-40 -17q-25 0 -42 17z" />
<glyph unicode="&#x62e;" horiz-adv-x="534" arabic-form="initial" d="M0 70h210q57 0 91.5 6t63.5 41t29 113q0 90 -51 135t-179 45l-58 -1q-31 0 -46 14t-21 41t-4 36q14 -10 30 -17t40 -7l28 1q24 3 63 3q149 0 218.5 -63t69.5 -184q0 -109 -53.5 -171t-156.5 -62h-274v70zM226 562q-17 17 -17 40q0 24 17 41t42 17q23 0 40 -17t17 -41 q0 -23 -17 -40t-40 -17q-25 0 -42 17z" />
<glyph unicode="&#x62e;" horiz-adv-x="530" arabic-form="medial" d="M530 70v-70h-50q-33 0 -54.5 6.5t-39.5 19.5q-46 -26 -112 -26h-274v70h210q57 0 91.5 6t63.5 41t29 113q0 90 -51 135t-179 45l-58 -1q-31 0 -46 14t-21 41t-4 36q14 -10 30 -17t40 -7l28 1q24 3 63 3q149 0 218.5 -63t69.5 -184q0 -102 -47 -163h93zM226 562 q-17 17 -17 40q0 24 17 41t42 17q23 0 40 -17t17 -41q0 -23 -17 -40t-40 -17q-25 0 -42 17z" />
<glyph unicode="&#x62f;" horiz-adv-x="535" arabic-form="final" d="M535 70v-70h-122q-33 0 -54.5 6.5t-39.5 19.5q-42 -26 -96 -26h-146q-14 0 -20.5 10t-6.5 23q0 15 9 26t29 11h53q103 0 153 54.5t50 134.5q0 67 -33.5 109.5t-89.5 41.5q-37 -12 -57 -36t-20 -67q-26 -2 -46 7q-33 15 -33 55q0 48 44.5 79.5t114.5 31.5t117.5 -33 t70 -84t22.5 -104q0 -46 -16 -98t-48 -91h165zM197 407h-2h2z" />
<glyph unicode="&#x630;" horiz-adv-x="535" arabic-form="final" d="M535 70v-70h-122q-33 0 -54.5 6.5t-39.5 19.5q-42 -26 -96 -26h-146q-14 0 -20.5 10t-6.5 23q0 15 9 26t29 11h53q103 0 153 54.5t50 134.5q0 67 -33.5 109.5t-89.5 41.5q-37 -12 -57 -36t-20 -67q-26 -2 -46 7q-33 15 -33 55q0 48 44.5 79.5t114.5 31.5t117.5 -33 t70 -84t22.5 -104q0 -46 -16 -98t-48 -91h165zM197 407h-2h2zM201 562q-17 17 -17 40q0 24 17 41t42 17q23 0 40 -17t17 -41q0 -23 -17 -40t-40 -17q-25 0 -42 17z" />
<glyph unicode="&#x631;" horiz-adv-x="319" arabic-form="final" d="M319 0h-99v-73q0 -31 -13 -66.5t-46 -62.5t-89 -27q-51 0 -79 18.5t-38 33.5q29 -8 62 -8q39 0 65 16t37.5 39t11.5 45l-1 523q0 42 45 42q19 0 32 -9.5t13 -31.5v-369h99v-70z" />
<glyph unicode="&#x632;" horiz-adv-x="319" arabic-form="final" d="M319 0h-99v-73q0 -31 -13 -66.5t-46 -62.5t-89 -27q-51 0 -79 18.5t-38 33.5q29 -8 62 -8q39 0 65 16t37.5 39t11.5 45l-1 523q0 42 45 42q19 0 32 -9.5t13 -31.5v-369h99v-70zM134 562q-17 17 -17 40q0 24 17 41t42 17q23 0 40 -17t17 -41q0 -23 -17 -40t-40 -17 q-25 0 -42 17z" />
<glyph unicode="&#x633;" horiz-adv-x="1355" arabic-form="final" d="M1355 70v-70h-153q-33 0 -54.5 6.5t-39.5 19.5q-44 -26 -102 -26h-12q-55 0 -89 12.5t-66 45.5q-20 -24 -48.5 -41t-58.5 -17h-78q-43 0 -74 20q-3 -109 -35 -169t-85 -82.5t-129 -22.5q-108 0 -187 58.5t-79 235.5q0 96 24.5 146.5t53 66t51.5 15.5q15 0 30 -6t24 -14 q-36 -29 -66 -94.5t-30 -147.5q0 -108 49.5 -154t128.5 -46q74 0 109 34t43 81.5t8 119.5v338q0 46 45 46t45 -46v-202v-1q0 -57 7 -81.5t35 -24.5h76q51 0 71 19.5t20 55.5v257q0 47 44 47q45 0 45 -47v-201q0 -50 16 -90.5t58 -40.5h61q68 0 89 60t21 116q0 142 -85 214 q22 20 55 20q63 0 91.5 -62t28.5 -148q0 -56 -13 -108.5t-42 -91.5h197z" />
<glyph unicode="&#x633;" horiz-adv-x="916" arabic-form="initial" d="M822.5 418q28.5 -62 28.5 -148q0 -110 -47 -190t-160 -80h-11q-55 0 -89 12.5t-66 45.5q-20 -24 -48.5 -41t-58.5 -17h-94q-64 0 -109 36q-44 -36 -99 -36h-69v70h38q40 0 59.5 11t25 27.5t5.5 42.5v228q0 46 45 46q22 0 33.5 -10.5t11.5 -35.5v-202q0 -58 7 -82.5 t35 -24.5h76q51 0 71 19.5t20 55.5v257q0 22 12.5 34.5t35.5 12.5q42 0 42 -47v-201q0 -51 15.5 -91t57.5 -40h61q69 0 89.5 58.5t20.5 111.5q0 63 -16.5 119.5t-68.5 100.5q22 20 55 20q63 0 91.5 -62z" />
<glyph unicode="&#x633;" horiz-adv-x="999" arabic-form="medial" d="M999 70v-70h-158q-33 0 -54.5 6.5t-39.5 19.5q-44 -26 -103 -26h-11q-55 0 -89 12.5t-66 45.5q-20 -24 -48.5 -41t-58.5 -17h-94q-64 0 -109 36q-44 -36 -99 -36h-69v70h38q40 0 59.5 11t25 27.5t5.5 42.5v228q0 46 45 46q22 0 33.5 -10.5t11.5 -35.5v-202q0 -58 7 -82.5 t35 -24.5h76q51 0 71 19.5t20 55.5v257q0 22 12.5 34.5t35.5 12.5q42 0 42 -47v-201q0 -51 15.5 -91t57.5 -40h61q69 0 89.5 58.5t20.5 111.5q0 63 -16.5 119.5t-68.5 100.5q22 20 55 20q63 0 91.5 -62t28.5 -148q0 -128 -55 -200h203z" />
<glyph unicode="&#x634;" horiz-adv-x="1355" arabic-form="final" d="M1355 70v-70h-153q-33 0 -54.5 6.5t-39.5 19.5q-44 -26 -102 -26h-12q-55 0 -89 12.5t-66 45.5q-20 -24 -48.5 -41t-58.5 -17h-78q-43 0 -74 20q-3 -109 -35 -169t-85 -82.5t-129 -22.5q-108 0 -187 58.5t-79 235.5q0 96 24.5 146.5t53 66t51.5 15.5q15 0 30 -6t24 -14 q-36 -29 -66 -94.5t-30 -147.5q0 -108 49.5 -154t128.5 -46q74 0 109 34t43 81.5t8 119.5v338q0 46 45 46t45 -46v-202v-1q0 -57 7 -81.5t35 -24.5h76q51 0 71 19.5t20 55.5v257q0 47 44 47q45 0 45 -47v-201q0 -50 16 -90.5t58 -40.5h61q68 0 89 60t21 116q0 142 -85 214 q22 20 55 20q63 0 91.5 -62t28.5 -148q0 -56 -13 -108.5t-42 -91.5h197zM868.5 763.5q15.5 -15.5 15.5 -37.5t-15.5 -37.5t-37.5 -15.5t-37.5 15.5t-15.5 37.5t15.5 37.5t37.5 15.5t37.5 -15.5zM798.5 643q16.5 -17 16.5 -40q0 -24 -16.5 -41t-40.5 -17q-23 0 -40 17t-17 41 q0 23 17 40t40 17q24 0 40.5 -17zM944.5 643q16.5 -17 16.5 -40q0 -24 -16.5 -41t-40.5 -17q-23 0 -40 17t-17 41q0 23 17 40t40 17q24 0 40.5 -17z" />
<glyph unicode="&#x634;" horiz-adv-x="916" arabic-form="initial" d="M822.5 418q28.5 -62 28.5 -148q0 -110 -47 -190t-160 -80h-11q-55 0 -89 12.5t-66 45.5q-20 -24 -48.5 -41t-58.5 -17h-94q-64 0 -109 36q-44 -36 -99 -36h-69v70h38q40 0 59.5 11t25 27.5t5.5 42.5v228q0 46 45 46q22 0 33.5 -10.5t11.5 -35.5v-202q0 -58 7 -82.5 t35 -24.5h76q51 0 71 19.5t20 55.5v257q0 22 12.5 34.5t35.5 12.5q42 0 42 -47v-201q0 -51 15.5 -91t57.5 -40h61q69 0 89.5 58.5t20.5 111.5q0 63 -16.5 119.5t-68.5 100.5q22 20 55 20q63 0 91.5 -62zM512.5 763.5q15.5 -15.5 15.5 -37.5t-15.5 -37.5t-37.5 -15.5 t-37.5 15.5t-15.5 37.5t15.5 37.5t37.5 15.5t37.5 -15.5zM442.5 643q16.5 -17 16.5 -40q0 -24 -16.5 -41t-40.5 -17q-23 0 -40 17t-17 41q0 23 17 40t40 17q24 0 40.5 -17zM588.5 643q16.5 -17 16.5 -40q0 -24 -16.5 -41t-40.5 -17q-23 0 -40 17t-17 41q0 23 17 40t40 17 q24 0 40.5 -17z" />
<glyph unicode="&#x634;" horiz-adv-x="999" arabic-form="medial" d="M999 70v-70h-158q-33 0 -54.5 6.5t-39.5 19.5q-44 -26 -103 -26h-11q-55 0 -89 12.5t-66 45.5q-20 -24 -48.5 -41t-58.5 -17h-94q-64 0 -109 36q-44 -36 -99 -36h-69v70h38q40 0 59.5 11t25 27.5t5.5 42.5v228q0 46 45 46q22 0 33.5 -10.5t11.5 -35.5v-202q0 -58 7 -82.5 t35 -24.5h76q51 0 71 19.5t20 55.5v257q0 22 12.5 34.5t35.5 12.5q42 0 42 -47v-201q0 -51 15.5 -91t57.5 -40h61q69 0 89.5 58.5t20.5 111.5q0 63 -16.5 119.5t-68.5 100.5q22 20 55 20q63 0 91.5 -62t28.5 -148q0 -128 -55 -200h203zM512.5 763.5q15.5 -15.5 15.5 -37.5 t-15.5 -37.5t-37.5 -15.5t-37.5 15.5t-15.5 37.5t15.5 37.5t37.5 15.5t37.5 -15.5zM442.5 643q16.5 -17 16.5 -40q0 -24 -16.5 -41t-40.5 -17q-23 0 -40 17t-17 41q0 23 17 40t40 17q24 0 40.5 -17zM588.5 643q16.5 -17 16.5 -40q0 -24 -16.5 -41t-40.5 -17q-23 0 -40 17 t-17 41q0 23 17 40t40 17q24 0 40.5 -17z" />
<glyph unicode="&#x635;" horiz-adv-x="1115" arabic-form="final" d="M1115 70v-70h-85q-50 0 -85 20q-38 -20 -96 -20h-270q-6 -101 -38.5 -156.5t-84.5 -76.5t-125 -21q-108 0 -187 58.5t-79 235.5q0 96 24.5 146.5t53 66t51.5 15.5q15 0 30 -6t24 -14q-36 -29 -66 -94.5t-30 -147.5q0 -108 49.5 -154t128.5 -46q74 0 109 34t43 81.5 t8 119.5v272q0 25 -15.5 51t-34.5 42q9 8 25 15t34 7q40 0 62 -33q32 33 92 59t132 26q65 0 126 -23t102 -78t41 -144q0 -40 -10 -84.5t-37 -80.5h108zM932 125q32 55 32 111q0 62 -31 101t-76.5 56t-93.5 17q-61 0 -112.5 -24.5t-71.5 -51.5q1 -6 1 -19v-245h230 q90 0 122 55z" />
<glyph unicode="&#x635;" horiz-adv-x="727" arabic-form="initial" d="M519 457q61 -23 102 -78t41 -144q0 -84 -42.5 -159.5t-162.5 -75.5h-457v70h98v243q0 25 -15.5 51t-34.5 42q9 8 25 15t34 7q40 0 62 -33q32 33 92 59t132 26q65 0 126 -23zM540 125q32 55 32 111q0 62 -31 101t-76.5 56t-93.5 17q-61 0 -112.5 -24.5t-71.5 -51.5 q1 -6 1 -19v-245h230q90 0 122 55z" />
<glyph unicode="&#x635;" horiz-adv-x="772" arabic-form="medial" d="M772 70v-70h-118q-54 0 -92 24q-43 -24 -105 -24h-457v70h98v243q0 25 -15.5 51t-34.5 42q9 8 25 15t34 7q40 0 62 -33q32 33 92 59t132 26q65 0 126 -23t102 -78t41 -144q0 -40 -10 -84.5t-37 -80.5h157zM540 125q32 55 32 111q0 62 -31 101t-76.5 56t-93.5 17 q-61 0 -112.5 -24.5t-71.5 -51.5q1 -6 1 -19v-245h230q90 0 122 55z" />
<glyph unicode="&#x636;" horiz-adv-x="1115" arabic-form="final" d="M1115 70v-70h-85q-50 0 -85 20q-38 -20 -96 -20h-270q-6 -101 -38.5 -156.5t-84.5 -76.5t-125 -21q-108 0 -187 58.5t-79 235.5q0 96 24.5 146.5t53 66t51.5 15.5q15 0 30 -6t24 -14q-36 -29 -66 -94.5t-30 -147.5q0 -108 49.5 -154t128.5 -46q74 0 109 34t43 81.5 t8 119.5v272q0 25 -15.5 51t-34.5 42q9 8 25 15t34 7q40 0 62 -33q32 33 92 59t132 26q65 0 126 -23t102 -78t41 -144q0 -40 -10 -84.5t-37 -80.5h108zM932 125q32 55 32 111q0 62 -31 101t-76.5 56t-93.5 17q-61 0 -112.5 -24.5t-71.5 -51.5q1 -6 1 -19v-245h230 q90 0 122 55zM701 562q-17 17 -17 40q0 24 17 41t42 17q23 0 40 -17t17 -41q0 -23 -17 -40t-40 -17q-25 0 -42 17z" />
<glyph unicode="&#x636;" horiz-adv-x="727" arabic-form="initial" d="M519 457q61 -23 102 -78t41 -144q0 -84 -42.5 -159.5t-162.5 -75.5h-457v70h98v243q0 25 -15.5 51t-34.5 42q9 8 25 15t34 7q40 0 62 -33q32 33 92 59t132 26q65 0 126 -23zM540 125q32 55 32 111q0 62 -31 101t-76.5 56t-93.5 17q-61 0 -112.5 -24.5t-71.5 -51.5 q1 -6 1 -19v-245h230q90 0 122 55zM355 562q-17 17 -17 40q0 24 17 41t42 17q23 0 40 -17t17 -41q0 -23 -17 -40t-40 -17q-25 0 -42 17z" />
<glyph unicode="&#x636;" horiz-adv-x="772" arabic-form="medial" d="M772 70v-70h-118q-54 0 -92 24q-43 -24 -105 -24h-457v70h98v243q0 25 -15.5 51t-34.5 42q9 8 25 15t34 7q40 0 62 -33q32 33 92 59t132 26q65 0 126 -23t102 -78t41 -144q0 -40 -10 -84.5t-37 -80.5h157zM540 125q32 55 32 111q0 62 -31 101t-76.5 56t-93.5 17 q-61 0 -112.5 -24.5t-71.5 -51.5q1 -6 1 -19v-245h230q90 0 122 55zM355 562q-17 17 -17 40q0 24 17 41t42 17q23 0 40 -17t17 -41q0 -23 -17 -40t-40 -17q-25 0 -42 17z" />
<glyph unicode="&#x637;" horiz-adv-x="874" arabic-form="final" d="M874 70v-70h-137q-55 0 -90 23q-48 -23 -110 -23h-491q-12 0 -19 10.5t-7 24.5t7 24.5t19 10.5h74v442q0 43 -17 76t-38 47q6 8 25.5 16.5t40.5 8.5q33 0 56 -25.5t23 -85.5v-250q19 43 56.5 84.5t93 69t121.5 27.5t127 -28.5t100 -87t39 -145.5q0 -93 -44 -149h171z M619.5 116q37.5 46 37.5 108q0 60 -29.5 102t-75 63t-94.5 21q-86 0 -150 -58.5t-98 -126.5v-155h289q83 0 120.5 46z" />
<glyph unicode="&#x637;" horiz-adv-x="806" arabic-form="initial" d="M602 451.5q61 -28.5 100 -87t39 -145.5q0 -93 -49 -156t-161 -63h-531v70h114v442q0 43 -17 76t-38 47q6 8 25.5 16.5t40.5 8.5q33 0 56 -25.5t23 -85.5v-250q19 43 56.5 84.5t93 69t121.5 27.5t127 -28.5zM613.5 116q37.5 46 37.5 108q0 60 -29.5 102t-75 63t-94.5 21 q-86 0 -150 -58.5t-98 -126.5v-155h289q83 0 120.5 46z" />
<glyph unicode="&#x637;" horiz-adv-x="874" arabic-form="medial" d="M874 70v-70h-137q-32 0 -53.5 6.5t-39.5 18.5q-45 -25 -113 -25h-531v70h114v442q0 43 -17 76t-38 47q6 8 25.5 16.5t40.5 8.5q33 0 56 -25.5t23 -85.5v-250q19 43 56.5 84.5t93 69t121.5 27.5t127 -28.5t100 -87t39 -145.5q0 -93 -44 -149h177zM613.5 116 q37.5 46 37.5 108q0 60 -29.5 102t-75 63t-94.5 21q-86 0 -150 -58.5t-98 -126.5v-155h289q83 0 120.5 46z" />
<glyph unicode="&#x638;" horiz-adv-x="874" arabic-form="final" d="M874 70v-70h-137q-55 0 -90 23q-48 -23 -110 -23h-491q-12 0 -19 10.5t-7 24.5t7 24.5t19 10.5h74v442q0 43 -17 76t-38 47q6 8 25.5 16.5t40.5 8.5q33 0 56 -25.5t23 -85.5v-250q19 43 56.5 84.5t93 69t121.5 27.5t127 -28.5t100 -87t39 -145.5q0 -93 -44 -149h171z M619.5 116q37.5 46 37.5 108q0 60 -29.5 102t-75 63t-94.5 21q-86 0 -150 -58.5t-98 -126.5v-155h289q83 0 120.5 46zM375 562q-17 17 -17 40q0 24 17 41t42 17q23 0 40 -17t17 -41q0 -23 -17 -40t-40 -17q-25 0 -42 17z" />
<glyph unicode="&#x638;" horiz-adv-x="806" arabic-form="initial" d="M602 451.5q61 -28.5 100 -87t39 -145.5q0 -93 -49 -156t-161 -63h-531v70h114v442q0 43 -17 76t-38 47q6 8 25.5 16.5t40.5 8.5q33 0 56 -25.5t23 -85.5v-250q19 43 56.5 84.5t93 69t121.5 27.5t127 -28.5zM613.5 116q37.5 46 37.5 108q0 60 -29.5 102t-75 63t-94.5 21 q-86 0 -150 -58.5t-98 -126.5v-155h289q83 0 120.5 46zM349 562q-17 17 -17 40q0 24 17 41t42 17q23 0 40 -17t17 -41q0 -23 -17 -40t-40 -17q-25 0 -42 17z" />
<glyph unicode="&#x638;" horiz-adv-x="874" arabic-form="medial" d="M874 70v-70h-137q-32 0 -53.5 6.5t-39.5 18.5q-45 -25 -113 -25h-531v70h114v442q0 43 -17 76t-38 47q6 8 25.5 16.5t40.5 8.5q33 0 56 -25.5t23 -85.5v-250q19 43 56.5 84.5t93 69t121.5 27.5t127 -28.5t100 -87t39 -145.5q0 -93 -44 -149h177zM613.5 116 q37.5 46 37.5 108q0 60 -29.5 102t-75 63t-94.5 21q-86 0 -150 -58.5t-98 -126.5v-155h289q83 0 120.5 46zM348 562q-17 17 -17 40q0 24 17 41t42 17q23 0 40 -17t17 -41q0 -23 -17 -40t-40 -17q-25 0 -42 17z" />
<glyph unicode="&#x639;" horiz-adv-x="617" arabic-form="final" d="M617 70v-70h-144q-32 0 -52 6q-22 -6 -49 -6h-89h-77q0 -83 19 -146t67 -103q-7 -6 -24.5 -11.5t-34.5 -5.5q-43 0 -69 37t-36.5 86t-10.5 88q0 125 122 125h55l-222 302q8 25 35.5 50t74 41.5t109.5 16.5q121 0 196.5 -59t75.5 -168q0 -43 -12 -93.5t-40 -89.5h106z M167 367l214 -289q51 19 72 69.5t21 101.5q0 79 -48.5 119.5t-133.5 40.5q-84 0 -125 -42z" />
<glyph unicode="&#x639;" horiz-adv-x="514" arabic-form="initial" d="M442.5 59q6.5 -11 6.5 -24t-6.5 -24t-20.5 -11h-141q-33 0 -54.5 6.5t-39.5 19.5q-36 -23 -83 -26h-104v71h139q-28 25 -50.5 68.5t-22.5 111.5q0 97 53.5 163t165.5 66q66 0 107.5 -25.5t41.5 -79.5q0 -31 -14.5 -46t-37.5 -15q-12 0 -27 5q0 42 -19 60.5t-60 30.5 q-52 0 -86.5 -41t-34.5 -109q0 -85 50.5 -137.5t153.5 -52.5h63q14 0 20.5 -11zM304 407l-6 1z" />
<glyph unicode="&#x639;" horiz-adv-x="571" arabic-form="medial" d="M571 70v-70h-144q-32 0 -53 6q-22 -6 -48 -6h-326v70h248l-222 302q8 25 35.5 50t74 41.5t109.5 16.5q121 0 196.5 -59t75.5 -168q0 -40 -12.5 -91.5t-41.5 -91.5h108zM121 367l213 -288q51 19 72.5 71.5t21.5 101.5q0 76 -48.5 116.5t-133.5 40.5q-84 0 -125 -42z" />
<glyph unicode="&#x63a;" horiz-adv-x="617" arabic-form="final" d="M617 70v-70h-144q-32 0 -52 6q-22 -6 -49 -6h-89h-77q0 -83 19 -146t67 -103q-7 -6 -24.5 -11.5t-34.5 -5.5q-43 0 -69 37t-36.5 86t-10.5 88q0 125 122 125h55l-222 302q8 25 35.5 50t74 41.5t109.5 16.5q121 0 196.5 -59t75.5 -168q0 -43 -12 -93.5t-40 -89.5h106z M167 367l214 -289q51 19 72 69.5t21 101.5q0 79 -48.5 119.5t-133.5 40.5q-84 0 -125 -42zM289 562q-17 17 -17 40q0 24 17 41t42 17q23 0 40 -17t17 -41q0 -23 -17 -40t-40 -17q-25 0 -42 17z" />
<glyph unicode="&#x63a;" horiz-adv-x="514" arabic-form="initial" d="M442.5 59q6.5 -11 6.5 -24t-6.5 -24t-20.5 -11h-141q-33 0 -54.5 6.5t-39.5 19.5q-36 -23 -83 -26h-104v71h139q-28 25 -50.5 68.5t-22.5 111.5q0 97 53.5 163t165.5 66q66 0 107.5 -25.5t41.5 -79.5q0 -31 -14.5 -46t-37.5 -15q-12 0 -27 5q0 42 -19 60.5t-60 30.5 q-52 0 -86.5 -41t-34.5 -109q0 -85 50.5 -137.5t153.5 -52.5h63q14 0 20.5 -11zM304 407l-6 1zM216 562q-17 17 -17 40q0 24 17 41t42 17q23 0 40 -17t17 -41q0 -23 -17 -40t-40 -17q-25 0 -42 17z" />
<glyph unicode="&#x63a;" horiz-adv-x="571" arabic-form="medial" d="M571 70v-70h-144q-32 0 -53 6q-22 -6 -48 -6h-326v70h248l-222 302q8 25 35.5 50t74 41.5t109.5 16.5q121 0 196.5 -59t75.5 -168q0 -40 -12.5 -91.5t-41.5 -91.5h108zM121 367l213 -288q51 19 72.5 71.5t21.5 101.5q0 76 -48.5 116.5t-133.5 40.5q-84 0 -125 -42z M243 562q-17 17 -17 40q0 24 17 41t42 17q23 0 40 -17t17 -41q0 -23 -17 -40t-40 -17q-25 0 -42 17z" />
<glyph unicode="&#x641;" horiz-adv-x="983" arabic-form="final" d="M983 70v-70h-100q-37 0 -64 10q-23 -10 -57 -10h-503q-62 0 -105.5 28t-66 75t-22.5 104q0 68 28.5 117.5t73.5 49.5q26 0 49 -18q-26 -18 -43.5 -59.5t-17.5 -99.5q0 -57 19.5 -85t45.5 -35t59 -7h279q-26 38 -37 80t-11 99q0 98 24.5 148.5t65.5 66.5t104 16 q69 0 108.5 -16.5t59.5 -62.5t20 -135v-125q0 -41 -13 -71h104zM784.5 92q17.5 22 17.5 78v130q0 62 -23 86.5t-65 24.5q-114 0 -114 -160q0 -57 20 -119t81 -62h18q48 0 65.5 22zM682 562q-17 17 -17 40q0 24 17 41t42 17q23 0 40 -17t17 -41q0 -23 -17 -40t-40 -17 q-25 0 -42 17z" />
<glyph unicode="&#x641;" horiz-adv-x="532" arabic-form="initial" d="M387.5 463.5q39.5 -16.5 59.5 -62.5t20 -135v-125q0 -63 -31 -102t-99 -39h-337v70h133q-26 38 -37 80t-11 99q0 98 24.5 148.5t65.5 66.5t104 16q69 0 108.5 -16.5zM377 300q0 62 -23 86.5t-65 24.5q-114 0 -114 -160q0 -62 19.5 -121.5t81.5 -59.5h18q48 0 65.5 22 t17.5 78v130zM257 562q-17 17 -17 40q0 24 17 41t42 17q23 0 40 -17t17 -41q0 -23 -17 -40t-40 -17q-25 0 -42 17z" />
<glyph unicode="&#x641;" horiz-adv-x="558" arabic-form="medial" d="M558 70v-70h-100q-39 0 -65 9q-24 -9 -56 -9h-337v70h133q-26 38 -37 80t-11 99q0 98 24.5 148.5t65.5 66.5t104 16q69 0 108.5 -16.5t59.5 -62.5t20 -135v-125q0 -41 -13 -71h104zM359.5 92q17.5 22 17.5 78v130q0 62 -23 86.5t-65 24.5q-114 0 -114 -160 q0 -62 19.5 -121.5t81.5 -59.5h18q48 0 65.5 22zM257 562q-17 17 -17 40q0 24 17 41t42 17q23 0 40 -17t17 -41q0 -23 -17 -40t-40 -17q-25 0 -42 17z" />
<glyph unicode="&#x642;" horiz-adv-x="894" arabic-form="final" d="M894 0h-95q-11 -112 -98 -174t-258 -62q-229 0 -303.5 93.5t-74.5 211.5q0 85 25.5 137t76.5 52q18 0 32 -6.5t19 -14.5q-27 -22 -44.5 -75t-17.5 -114q0 -97 65.5 -155.5t226.5 -58.5q139 0 195.5 44t64.5 122h-122q-87 0 -127 70.5t-40 187.5q0 94 24.5 142.5t66.5 64 t107 15.5q64 0 102.5 -15t60 -61.5t21.5 -137.5v-196h93v-70zM534 127q24 -57 105 -57h71v230q0 61 -23 85.5t-65 24.5q-56 0 -84 -40t-28 -126q0 -60 24 -117zM516 562q-17 17 -17 40q0 24 17 41t40 17q24 0 40.5 -17t16.5 -41q0 -23 -16.5 -40t-40.5 -17q-23 0 -40 17z M662 562q-17 17 -17 40q0 24 17 41t40 17q24 0 40.5 -17t16.5 -41q0 -23 -16.5 -40t-40.5 -17q-23 0 -40 17z" />
<glyph unicode="&#x642;" horiz-adv-x="532" arabic-form="initial" d="M387.5 463.5q39.5 -16.5 59.5 -62.5t20 -135v-125q0 -63 -31 -102t-99 -39h-337v70h133q-26 38 -37 80t-11 99q0 98 24.5 148.5t65.5 66.5t104 16q69 0 108.5 -16.5zM377 300q0 62 -23 86.5t-65 24.5q-114 0 -114 -160q0 -62 19.5 -121.5t81.5 -59.5h18q48 0 65.5 22 t17.5 78v130zM186 562q-17 17 -17 40q0 24 17 41t40 17q24 0 40.5 -17t16.5 -41q0 -23 -16.5 -40t-40.5 -17q-23 0 -40 17zM332 562q-17 17 -17 40q0 24 17 41t40 17q24 0 40.5 -17t16.5 -41q0 -23 -16.5 -40t-40.5 -17q-23 0 -40 17z" />
<glyph unicode="&#x642;" horiz-adv-x="558" arabic-form="medial" d="M558 70v-70h-100q-39 0 -65 9q-24 -9 -56 -9h-337v70h133q-26 38 -37 80t-11 99q0 98 24.5 148.5t65.5 66.5t104 16q69 0 108.5 -16.5t59.5 -62.5t20 -135v-125q0 -41 -13 -71h104zM359.5 92q17.5 22 17.5 78v130q0 62 -23 86.5t-65 24.5q-114 0 -114 -160 q0 -62 19.5 -121.5t81.5 -59.5h18q48 0 65.5 22zM186 562q-17 17 -17 40q0 24 17 41t40 17q24 0 40.5 -17t16.5 -41q0 -23 -16.5 -40t-40.5 -17q-23 0 -40 17zM332 562q-17 17 -17 40q0 24 17 41t40 17q24 0 40.5 -17t16.5 -41q0 -23 -16.5 -40t-40.5 -17q-23 0 -40 17z" />
<glyph unicode="&#x643;" horiz-adv-x="884" arabic-form="final" d="M884 70v-70h-115q-51 0 -83 19q-32 -19 -73 -19h-418q-68 0 -99 39t-31 102v129q0 43 45 43t45 -44v-99q0 -56 17.5 -78t65.5 -22h348q43 0 66 35.5t23 81.5v325q0 43 -17 76t-38 47q6 8 25.5 16.5t40.5 8.5q33 0 56 -25.5t23 -85.5v-354q0 -74 -28 -125h147zM315 341 q0 12 9 19.5t21 7.5q8 0 14 -3q-12 13 -22.5 36.5t-10.5 48.5q0 42 28.5 68t79.5 26q62 0 62 -40q0 -16 -9 -24t-20 -8q-9 0 -13 4q1 18 -11.5 29t-28.5 14q-12 -3 -21.5 -18.5t-9.5 -42.5q0 -77 82 -77q24 0 34 4q21 0 21 -19q0 -6 -3 -11.5t-7 -5.5q-66 -6 -123.5 -14.5 t-63.5 -14.5q-8 13 -8 21z" />
<glyph unicode="&#x643;" horiz-adv-x="595" arabic-form="initial" d="M0 70h347q45 0 69 26t24 67q0 46 -31 72.5t-96 26.5h-98q-71 0 -108 42.5t-37 119.5q0 83 47.5 126.5t153.5 43.5l108 -2l62 -2q24 0 40 7t30 17q2 -15 -4 -36q-6 -22 -22.5 -38.5t-42.5 -16.5l-149 2q-72 0 -102.5 -22.5t-30.5 -72.5q0 -47 23.5 -72.5t69.5 -25.5h78 q199 0 199 -171q0 -75 -37 -118t-108 -43h-385v70z" />
<glyph unicode="&#x643;" horiz-adv-x="755" arabic-form="medial" d="M755 70v-70h-231q-43 0 -72 13q-31 -13 -67 -13h-385v70h347q45 0 69 26t24 67q0 46 -31 72.5t-96 26.5h-98q-71 0 -108 42.5t-37 119.5q0 83 47.5 126.5t153.5 43.5l108 -2l62 -2q24 0 40 7t30 17q2 -15 -4 -36q-6 -22 -22.5 -38.5t-42.5 -16.5l-149 2 q-72 0 -102.5 -22.5t-30.5 -72.5q0 -47 23.5 -72.5t69.5 -25.5h78q199 0 199 -171q0 -54 -19 -91h244z" />
<glyph unicode="&#x644;" horiz-adv-x="712" arabic-form="final" d="M712 70v-70h-17q-50 0 -81 18q-5 -122 -70 -188t-194 -66q-99 0 -163 38t-93 97t-29 127q0 50 15 98t42.5 78.5t62.5 30.5q25 0 51 -16q-23 -21 -50 -71.5t-27 -125.5q0 -70 32 -111.5t78 -58t92 -16.5q72 0 108 36.5t45.5 84.5t9.5 107v450q0 43 -17 76t-38 47 q6 9 25 17t40 8q34 0 57 -25.5t23 -85.5v-479h98z" />
<glyph unicode="&#x644;" horiz-adv-x="275" arabic-form="initial" d="M0 70h65q26 0 38 16.5t14.5 40t2.5 61.5v324q0 43 -17 76t-38 47q6 8 25.5 16.5t40.5 8.5q33 0 56 -25.5t23 -85.5v-355q-1 -96 -44 -145t-109 -49h-57v70z" />
<glyph unicode="&#x644;" horiz-adv-x="327" arabic-form="medial" d="M327 70v-70h-93q-32 0 -53.5 6.5t-39.5 18.5q-37 -25 -84 -25h-57v70h65q26 0 38 16.5t14.5 40t2.5 61.5v324q0 43 -17 76t-38 47q6 8 25.5 16.5t40.5 8.5q33 0 56 -25.5t23 -85.5v-355q0 -76 -29 -124h146z" />
<glyph unicode="&#x645;" horiz-adv-x="680" arabic-form="final" d="M680 70v-70h-115q-56 0 -91 25q-41 -25 -110 -25h-63q-62 0 -89 -30t-27 -73v-64q0 -60 -23 -85.5t-56 -25.5q-21 0 -40.5 8.5t-25.5 16.5q21 14 38 47t17 76v39q0 38 17.5 81.5t60.5 64.5v268q0 89 49 123t137 34q64 0 105 -19t64 -72t23 -153q0 -112 -32 -166h161z M437 125q24 55 24 114q0 172 -108 172q-90 0 -90 -112v-229h70q80 0 104 55z" />
<glyph unicode="&#x645;" horiz-adv-x="511" arabic-form="initial" d="M359 461q41 -19 64 -72.5t23 -152.5q0 -123 -41.5 -180.5t-141.5 -57.5q-60 0 -106 22q-14 -8 -32 -14t-51 -6h-74v70h68v252q0 89 49 123.5t137 34.5q64 0 105 -19zM332 124.5q24 54.5 24 113.5q0 172 -108 172q-90 0 -90 -112v-228h70q80 0 104 54.5zM164 22h-1h1z" />
<glyph unicode="&#x645;" horiz-adv-x="529" arabic-form="medial" d="M529 70v-70h-67q-55 0 -91 24q-41 -26 -108 -26q-60 0 -106 22q-14 -8 -32 -14t-51 -6h-74v70h68v252q0 89 49 123.5t137 34.5q64 0 105 -19t64 -72.5t23 -152.5q0 -112 -32 -166h115zM332 124.5q24 54.5 24 113.5q0 172 -108 172q-90 0 -90 -112v-228h70q80 0 104 54.5z M164 22h-1h1z" />
<glyph unicode="&#x646;" horiz-adv-x="698" arabic-form="final" d="M698 70v-70h-11q-28 0 -43.5 4.5t-29.5 15.5q-4 -123 -69 -189.5t-195 -66.5q-99 0 -163 38t-93 97t-29 127q0 50 15 98t42.5 78.5t62.5 30.5q25 0 51 -16q-23 -21 -50 -71.5t-27 -125.5q0 -70 32 -111.5t78 -58t92 -16.5q72 0 108 36.5t45.5 84.5t9.5 107v378 q0 24 14.5 32t30.5 8t30.5 -8t14.5 -32v-370h84zM299 497q-17 17 -17 40q0 24 17 41t42 17q23 0 40 -17t17 -41q0 -23 -17 -40t-40 -17q-25 0 -42 17z" />
<glyph unicode="&#x646;" horiz-adv-x="332" arabic-form="initial" d="M0 70h67q69 0 89.5 56t20.5 114q0 63 -16.5 119.5t-68.5 100.5q22 20 55 20q63 0 91.5 -62t28.5 -148q0 -110 -47 -190t-160 -80h-60v70zM106 562q-17 17 -17 40q0 24 17 41t42 17q23 0 40 -17t17 -41q0 -23 -17 -40t-40 -17q-25 0 -42 17z" />
<glyph unicode="&#x646;" horiz-adv-x="329" arabic-form="medial" d="M329 70v-70h-95q-33 0 -54.5 6.5t-39.5 19.5q-36 -23 -83 -26h-57v70h57q30 1 57 12v352q0 46 45 46t45 -45v-283q0 -36 4.5 -59t21.5 -23h99zM118 562q-17 17 -17 40q0 24 17 41t42 17q23 0 40 -17t17 -41q0 -23 -17 -40t-40 -17q-25 0 -42 17z" />
<glyph unicode="&#x647;" horiz-adv-x="511" arabic-form="final" d="M511 70v-70h-74q-33 0 -51 6t-32 14q-46 -22 -106 -22q-100 0 -141.5 57.5t-41.5 180.5q0 99 23 152.5t64 72.5t105 19q88 0 137 -34.5t49 -123.5v-252h68zM179 124.5q24 -54.5 104 -54.5h70v228q0 112 -90 112q-108 0 -108 -172q0 -59 24 -113.5zM348 22h-1h1z" />
<glyph unicode="&#x647;" horiz-adv-x="636" arabic-form="initial" d="M380 556.5q80 -24.5 135.5 -90t55.5 -178.5q0 -78 -28 -144t-82.5 -105t-129.5 -39q-37 0 -87.5 7t-65.5 19q-61 -26 -139 -26h-39v70h15q2 0 16.5 -4t36.5 -4q17 0 37 4q-28 26 -46 71.5t-18 104.5q0 80 34 131t101 51q66 0 100.5 -51t34.5 -130q0 -60 -19 -106.5 t-49 -69.5q25 -5 46 -5q60 0 103.5 29.5t66 79t22.5 109.5q0 86 -44.5 136.5t-108 70.5t-129.5 20h-47q-43 0 -61.5 22t-18.5 70q18 -18 39 -22t47 -3l62 3q80 4 160 -20.5zM134 318q-14 -36 -14 -81q0 -87 56 -136q56 49 56 136q0 45 -14 81t-42 36t-42 -36zM134 79l-5 -6 q8 5 5 6z" />
<glyph unicode="&#x647;" horiz-adv-x="486" arabic-form="medial" d="M486 0h-86q-4 -45 -23 -88.5t-54 -72.5t-84 -29q-58 0 -106 43t-59 147h-74v70h71v125q0 122 27.5 185t59 81.5t57.5 18.5q30 0 62 -22.5t54.5 -74t22.5 -133.5q0 -133 -56 -188t-135 -61q7 -54 28 -87.5t49 -33.5q26 0 47.5 29.5t34 74t12.5 86.5h152v-70zM177.5 325 q-16.5 -70 -16.5 -182v-71q42 4 64 20.5t30.5 47t8.5 82.5q0 75 -15 124.5t-35 63.5q-20 -15 -36.5 -85z" />
<glyph unicode="&#x648;" horiz-adv-x="528" arabic-form="final" d="M528 0h-85v-68q0 -34 -12.5 -70.5t-46 -63.5t-91.5 -27q-44 0 -77 16.5t-46 37.5q35 -8 62 -8q55 0 88 29.5t33 74.5l1 79l-106 -2q-100 0 -141.5 57.5t-41.5 180.5q0 99 23 152.5t64 72.5t105 19q88 0 137 -34.5t49 -123.5v-252h85v-70zM179 124.5q24 -54.5 104 -54.5 h70v228q0 112 -90 112q-108 0 -108 -172q0 -59 24 -113.5z" />
<glyph unicode="&#x649;" horiz-adv-x="912" arabic-form="final" d="M189.5 -186.5q-76.5 49.5 -100.5 111t-24 115.5q0 65 28.5 107.5t74.5 42.5q18 0 31.5 -6.5t18.5 -14.5q-26 -21 -44 -66.5t-18 -92.5q0 -79 61.5 -128t203.5 -49q82 0 140.5 21.5t88 59.5t29.5 86h-29q-48 0 -70 20.5t-22 49.5q0 15 4 24q13 -9 36.5 -16.5t50.5 -7.5 h263v-70h-145q0 -56 -35.5 -110t-111 -90t-189.5 -36h-22q-143 0 -219.5 49.5z" />
<glyph unicode="&#x64a;" horiz-adv-x="912" arabic-form="final" d="M189.5 -186.5q-76.5 49.5 -100.5 111t-24 115.5q0 65 28.5 107.5t74.5 42.5q18 0 31.5 -6.5t18.5 -14.5q-26 -21 -44 -66.5t-18 -92.5q0 -79 61.5 -128t203.5 -49q82 0 140.5 21.5t88 59.5t29.5 86h-29q-48 0 -70 20.5t-22 49.5q0 15 4 24q13 -9 36.5 -16.5t50.5 -7.5 h263v-70h-145q0 -56 -35.5 -110t-111 -90t-189.5 -36h-22q-143 0 -219.5 49.5zM308 -394q-17 17 -17 40q0 24 17 41t40 17q24 0 40.5 -17t16.5 -41q0 -23 -16.5 -40t-40.5 -17q-23 0 -40 17zM454 -394q-17 17 -17 40q0 24 17 41t40 17q24 0 40.5 -17t16.5 -41 q0 -23 -16.5 -40t-40.5 -17q-23 0 -40 17z" />
<glyph unicode="&#x64a;" horiz-adv-x="332" arabic-form="initial" d="M0 70h67q69 0 89.5 56t20.5 114q0 63 -16.5 119.5t-68.5 100.5q22 20 55 20q63 0 91.5 -62t28.5 -148q0 -110 -47 -190t-160 -80h-60v70zM34 -178q-17 17 -17 40q0 24 17 41t40 17q24 0 40.5 -17t16.5 -41q0 -23 -16.5 -40t-40.5 -17q-23 0 -40 17zM180 -178 q-17 17 -17 40q0 24 17 41t40 17q24 0 40.5 -17t16.5 -41q0 -23 -16.5 -40t-40.5 -17q-23 0 -40 17z" />
<glyph unicode="&#x64a;" horiz-adv-x="329" arabic-form="medial" d="M329 70v-70h-95q-33 0 -54.5 6.5t-39.5 19.5q-36 -23 -83 -26h-57v70h57q30 1 57 12v352q0 46 45 46t45 -45v-283q0 -36 4.5 -59t21.5 -23h99zM46 -178q-17 17 -17 40q0 24 17 41t40 17q24 0 40.5 -17t16.5 -41q0 -23 -16.5 -40t-40.5 -17q-23 0 -40 17zM192 -178 q-17 17 -17 40q0 24 17 41t40 17q24 0 40.5 -17t16.5 -41q0 -23 -16.5 -40t-40.5 -17q-23 0 -40 17z" />
<glyph unicode="&#xd;" horiz-adv-x="250" />
<glyph unicode=" "  horiz-adv-x="250" />
<glyph unicode="&#x09;" horiz-adv-x="250" />
<glyph unicode="&#xa0;" horiz-adv-x="250" />
<glyph unicode="!" horiz-adv-x="234" d="M70 660h94l-18 -505h-58zM79 2q-16 16 -16 39q0 22 16 37.5t38 15.5t38 -15.5t16 -37.5q0 -23 -16 -39t-38 -16t-38 16z" />
<glyph unicode="&#x22;" horiz-adv-x="366" d="M53 660h100l-30 -270h-40zM213 660h100l-30 -270h-40z" />
<glyph unicode="#" horiz-adv-x="668" d="M161 175h-130v60h144l36 180h-120v60h133l42 200h65l-42 -200h145l42 200h65l-42 -200h137v-60h-150l-37 -180h127v-60h-140l-35 -175h-65l35 175h-145l-35 -175h-65zM385 235l36 180h-145l-37 -180h146z" />
<glyph unicode="$" horiz-adv-x="526" d="M236 -15q-78 9 -132.5 41t-54.5 79v107h18q15 -89 56.5 -134.5t112.5 -53.5v270l-70 42q-64 38 -90.5 77t-26.5 95q0 75 51.5 121.5t135.5 48.5v57h40v-59q73 -7 128 -39t55 -79v-107h-18q-15 89 -55 133t-110 52v-253l85 -50q68 -41 96 -76t28 -89q0 -85 -55.5 -135 t-153.5 -50v-63h-40v65zM236 638q-45 -2 -77 -30t-32 -71q0 -41 24.5 -67.5t84.5 -62.5v231zM363.5 52q35.5 27 35.5 73q0 44 -27.5 74.5t-95.5 70.5v-247q52 2 87.5 29z" />
<glyph unicode="%" horiz-adv-x="674" d="M70.5 430.5q-38.5 35.5 -38.5 99.5t38.5 99.5t106.5 35.5t106.5 -35.5t38.5 -99.5t-38.5 -99.5t-106.5 -35.5t-106.5 35.5zM527 660h75l-455 -660h-75zM262 530q0 100 -85 100t-85 -100t85 -100t85 100zM390.5 30.5q-38.5 35.5 -38.5 99.5t38.5 99.5t106.5 35.5 t106.5 -35.5t38.5 -99.5t-38.5 -99.5t-106.5 -35.5t-106.5 35.5zM582 130q0 100 -85 100t-85 -100t85 -100t85 100z" />
<glyph unicode="&#x26;" horiz-adv-x="616" d="M96.5 24.5q-54.5 44.5 -54.5 115.5q0 39 19 70.5t45.5 54.5t78.5 61q-103 92 -103 198q0 72 48.5 114t131.5 42q77 0 121 -39t44 -101q0 -44 -19 -78.5t-49 -61.5t-78 -60l201 -220q36 39 66 85q15 24 24 40l20 -15q-11 -23 -22 -42q-30 -51 -67 -91l89 -97h-110l-40 43 q-84 -63 -190 -63q-101 0 -155.5 44.5zM318.5 448.5q23.5 35.5 23.5 81.5q0 58 -24.5 86.5t-55.5 28.5q-35 0 -60 -29t-25 -92q0 -35 15 -67.5t33 -54.5t25 -27q45 38 68.5 73.5zM421 66l-206 225q-38 -33 -58 -66t-20 -75q0 -135 134 -135q84 0 150 51z" />
<glyph unicode="'" horiz-adv-x="206" d="M53 660h100l-30 -270h-40z" />
<glyph unicode="(" horiz-adv-x="309" d="M96 -9.5q-62 105.5 -62 249.5t62 249.5t188 200.5l10 -15q-170 -149 -170 -435t170 -435l-10 -15q-126 95 -188 200.5z" />
<glyph unicode=")" horiz-adv-x="309" d="M15 -195q170 149 170 435t-170 435l10 15q126 -95 188 -200.5t62 -249.5t-62 -249.5t-188 -200.5z" />
<glyph unicode="*" horiz-adv-x="424" d="M202 480l-115 -105l-40 70l145 50l-145 50l40 70l115 -105l-30 150h80l-30 -150l115 105l40 -70l-145 -50l145 -50l-40 -70l-115 105l30 -150h-80z" />
<glyph unicode="+" horiz-adv-x="530" d="M235 300h-200v60h200v200h60v-200h200v-60h-200v-200h-60v200z" />
<glyph unicode="," horiz-adv-x="237" d="M61 -140q40 27 60 59.5t20 75.5q-15 -10 -30 -10q-23 0 -39 16t-16 39q0 26 17 43t43 17q30 0 47.5 -18.5t17.5 -51.5q0 -123 -110 -185z" />
<glyph unicode="-" horiz-adv-x="387" d="M66 300h255v-70h-255v70z" />
<glyph unicode="." horiz-adv-x="220" d="M72 2q-16 16 -16 39q0 22 16 38t38 16q23 0 38.5 -16t15.5 -38q0 -23 -16 -39t-38 -16t-38 16z" />
<glyph unicode="/" horiz-adv-x="440" d="M344 660h73l-321 -660h-73z" />
<glyph unicode="0" horiz-adv-x="584" d="M52 330q0 350 240 350t240 -350t-240 -350t-240 350zM376.5 53q30.5 33 43 100.5t12.5 176.5t-12.5 176.5t-43 100.5t-84.5 33t-84.5 -33t-43 -100.5t-12.5 -176.5t12.5 -176.5t43 -100.5t84.5 -33t84.5 33z" />
<glyph unicode="1" horiz-adv-x="305" d="M129 560l-97 -63l-18 23l155 140h50v-660h-90v560z" />
<glyph unicode="2" horiz-adv-x="530" d="M41 50q53 51 81 77q99 95 145 145t72.5 103t26.5 115q0 72 -37.5 111t-92.5 39q-61 0 -105.5 -44t-59.5 -126h-20q0 50 4 79.5t20 50.5q28 34 80.5 57t110.5 23q79 0 139.5 -41.5t60.5 -148.5q0 -63 -29.5 -118t-76 -102.5t-131.5 -122.5q-88 -79 -118 -107h225 q61 0 93 26t32 79h20v-65q0 -80 -85 -80h-355v50z" />
<glyph unicode="3" horiz-adv-x="530" d="M139.5 7.5q-54.5 27.5 -99.5 79.5l16 18q39 -43 84 -64t101 -21q65 0 107.5 41.5t42.5 123.5q0 50 -19 85t-49 52.5t-62 17.5q-42 0 -62 -3t-58 -12l-26 42l271 253h-185q-61 0 -93 -26t-32 -79h-20v65q0 80 85 80h318v-40l-268 -250q39 10 90 10q40 0 88 -16.5t85 -60 t37 -118.5q0 -80 -37.5 -126t-88.5 -62.5t-99 -16.5q-72 0 -126.5 27.5z" />
<glyph unicode="4" horiz-adv-x="546" d="M338 170h-320v40l330 450h80v-450h90v-40h-90v-170h-90v170zM338 210v354l-260 -354h260z" />
<glyph unicode="5" horiz-adv-x="530" d="M136 6q-50 26 -94 79l19 17q38 -42 82 -62t99 -20q65 0 107.5 41.5t42.5 123.5q0 77 -41.5 116t-118.5 39q-49 0 -125 -10l-40 40l10 290h375v-40h-293l-9 -245l32 2q57 3 70 3q96 0 168 -43.5t72 -151.5q0 -79 -38.5 -124.5t-91.5 -63t-105 -17.5q-71 0 -121 26z" />
<glyph unicode="6" horiz-adv-x="537" d="M108 67q-56 87 -56 263q0 175 61.5 262.5t188.5 87.5q75 0 155 -30l-5 -20q-62 10 -130 10q-88 0 -131.5 -67.5t-43.5 -187.5q30 21 65.5 33t84.5 12q102 0 151 -59.5t49 -165.5q0 -60 -24 -111t-73 -82.5t-118 -31.5q-118 0 -174 87zM369.5 75q32.5 55 32.5 130 q0 185 -135 185q-36 0 -64 -12.5t-56 -37.5q0 -165 36 -242.5t99 -77.5q55 0 87.5 55z" />
<glyph unicode="7" horiz-adv-x="474" d="M371 620h-200q-61 0 -93 -26t-32 -79h-20v65q0 80 85 80h350v-40l-250 -620h-90z" />
<glyph unicode="8" horiz-adv-x="554" d="M112 22.5q-65 42.5 -65 127.5q0 68 43.5 110.5t116.5 74.5q-65 38 -100 76.5t-35 98.5q0 91 56.5 130.5t148.5 39.5q91 0 148 -38t57 -122q0 -55 -35 -96.5t-90 -68.5q48 -29 78.5 -53t51 -59t20.5 -83q0 -92 -64.5 -136t-165.5 -44q-100 0 -165 42.5zM367.5 437.5 q19.5 31.5 19.5 82.5q0 65 -32 92.5t-78 27.5q-45 0 -77.5 -26t-32.5 -84q0 -82 145 -150q36 26 55.5 57.5zM372.5 51.5q39.5 31.5 39.5 88.5q0 40 -21 71t-53.5 53.5t-85.5 50.5q-52 -26 -81 -62.5t-29 -102.5q0 -64 39 -97t96 -33q56 0 95.5 31.5z" />
<glyph unicode="9" horiz-adv-x="536" d="M79 10l5 20q62 -10 130 -10q88 0 131.5 67.5t43.5 187.5q-30 -21 -65.5 -33t-84.5 -12q-102 0 -151 59.5t-49 165.5q0 60 24 111t73 82.5t118 31.5q118 0 174 -87.5t56 -262.5t-61.5 -262.5t-188.5 -87.5q-75 0 -155 30zM333 282.5q28 12.5 56 37.5q0 165 -36 242.5 t-99 77.5q-55 0 -87.5 -55t-32.5 -130q0 -185 135 -185q36 0 64 12.5z" />
<glyph unicode=":" horiz-adv-x="241" d="M83 368.5q-16 15.5 -16 38.5q0 22 16 38t38 16q23 0 38.5 -16t15.5 -38q0 -23 -15.5 -38.5t-38.5 -15.5q-22 0 -38 15.5zM82 2q-16 16 -16 39q0 22 16 38t38 16q23 0 39 -16t16 -38q0 -23 -16 -39t-39 -16q-22 0 -38 16z" />
<glyph unicode=";" horiz-adv-x="258" d="M93 370q-16 16 -16 39q0 22 16 38t38 16q23 0 38.5 -16t15.5 -38q0 -23 -16 -39t-38 -16t-38 16zM70 -140q40 27 60 59.5t20 75.5q-15 -10 -30 -10q-23 0 -39 16t-16 39q0 26 17 43t43 17q30 0 47.5 -18.5t17.5 -51.5q0 -123 -110 -185z" />
<glyph unicode="&#x3c;" horiz-adv-x="618" d="M30 320v30l520 225v-60l-417 -180l417 -180v-60z" />
<glyph unicode="=" horiz-adv-x="657" d="M66 450h525v-60h-525v60zM66 270h525v-60h-525v60z" />
<glyph unicode="&#x3e;" horiz-adv-x="618" d="M68 155l417 180l-417 180v60l520 -225v-30l-520 -225v60z" />
<glyph unicode="?" horiz-adv-x="478" d="M225.5 249q18.5 37 53.5 82q34 43 50.5 76.5t16.5 82.5q0 72 -37.5 111t-92.5 39q-62 0 -106.5 -44.5t-59.5 -125.5h-20q0 50 4 79.5t21 50.5q28 34 80.5 57t110.5 23q79 0 139.5 -41.5t60.5 -148.5q0 -42 -15 -75t-36 -57t-57 -58q-45 -40 -68 -71t-24 -73h-40 q1 56 19.5 93zM187.5 3q-15.5 16 -15.5 38q0 23 15.5 39t38.5 16t39 -16t16 -39q0 -22 -16.5 -38t-38.5 -16q-23 0 -38.5 16z" />
<glyph unicode="@" horiz-adv-x="856" d="M226 -130.5q-88 49.5 -137 146.5t-49 234t49 234t137 146.5t204 49.5q115 0 203.5 -48.5t137.5 -141t49 -220.5q0 -124 -48.5 -194.5t-146.5 -70.5q-81 0 -105 55h-5q-18 -23 -53 -39t-87 -16q-32 0 -65 13.5t-56.5 44.5t-23.5 82q0 76 70.5 108t184.5 32h30 q0 97 -27 133.5t-78 36.5q-45 0 -72 -19t-38 -66h-45q0 34 4 53.5t21 36.5q18 18 59.5 26.5t90.5 8.5q81 0 128 -43.5t47 -166.5v-180q0 -25 12.5 -42.5t37.5 -17.5q33 0 61.5 27.5t46 78.5t17.5 119q0 118 -43 201t-122 126t-185 43q-107 0 -185.5 -44t-121.5 -131.5 t-43 -214.5t43 -214.5t121.5 -131.5t185.5 -44q97 0 173 21t137 64l20 -30q-136 -95 -330 -95q-116 0 -204 49.5zM475 66q22 16 40 44v135h-30q-74 0 -117 -27.5t-43 -72.5q0 -46 27.5 -70.5t67.5 -24.5q33 0 55 16z" />
<glyph unicode="A" horiz-adv-x="635" d="M527 21.5q-47 26.5 -75 103.5l-25 65h-280l-80 -190h-45l280 660h30l220 -535q25 -58 47 -79.5t63 -25.5v-20q-18 -5 -40 -5q-48 0 -95 26.5zM407 230l-120 290l-125 -290h245z" />
<glyph unicode="B" horiz-adv-x="622" d="M106 540q0 51 -14 75.5t-56 24.5h-20v20h260q109 0 189.5 -36t80.5 -139q0 -47 -32 -85t-98 -60q92 -15 128.5 -54.5t36.5 -105.5q0 -101 -79.5 -140.5t-195.5 -39.5h-200v540zM291 355q41 0 77.5 15.5t59.5 46t23 73.5q0 45 -27 75.5t-68.5 45t-84.5 14.5q-35 0 -75 -10 v-260h95zM431.5 71q49.5 36 49.5 104t-48.5 104t-141.5 36h-95v-266q48 -14 95 -14q91 0 140.5 36z" />
<glyph unicode="C" horiz-adv-x="665" d="M190.5 25q-70.5 45 -108.5 122.5t-38 172.5q0 98 41.5 181t113 131t155.5 48q80 0 140.5 -22.5t89.5 -57.5q17 -21 21 -55.5t4 -94.5h-20q-19 97 -70 143.5t-135 46.5q-108 0 -174 -76t-66 -244q0 -79 25.5 -147t79.5 -110.5t135 -42.5q73 0 127.5 35t97.5 105l20 -15 q-46 -90 -113.5 -127.5t-161.5 -37.5q-93 0 -163.5 45z" />
<glyph unicode="D" horiz-adv-x="715" d="M106 540q0 51 -14 75.5t-56 24.5h-20v20h262q194 0 293.5 -86t99.5 -240q0 -99 -42 -174.5t-124.5 -117.5t-200.5 -42h-198v540zM434.5 71.5q59.5 36.5 93.5 103t34 155.5q0 87 -33.5 154t-93.5 104t-136 37q-48 0 -100 -16v-561q56 -13 102 -13q74 0 133.5 36.5z" />
<glyph unicode="E" horiz-adv-x="590" d="M106 540q0 51 -14 75.5t-56 24.5h-20v20h426q85 0 85 -80v-75h-20q0 115 -125 115h-186v-260h270v-40h-270v-280h175q69 0 108 25t62 85l20 -5l-35 -95q-18 -50 -75 -50h-345v540z" />
<glyph unicode="F" horiz-adv-x="527" d="M106 540q0 51 -14 75.5t-56 24.5h-20v20h399q85 0 85 -80v-75h-20q0 115 -125 115h-159v-265h226v-40h-226v-315h-90v540z" />
<glyph unicode="G" horiz-adv-x="720" d="M208.5 28q-77.5 48 -121 130.5t-43.5 181.5q0 95 38 172.5t108.5 122.5t163.5 45q86 0 148.5 -22.5t91.5 -57.5q16 -20 20.5 -53t4.5 -82h-20q-19 88 -72 131.5t-143 43.5q-81 0 -135 -42.5t-79.5 -110.5t-25.5 -147q0 -169 66 -244.5t174 -75.5q51 0 87 9t68 26v174 q0 34 11 59t47.5 41.5t106.5 16.5v-20q-45 0 -60 -23t-15 -72v-188q-54 -33 -113 -48t-132 -15q-98 0 -175.5 48z" />
<glyph unicode="H" horiz-adv-x="693" d="M106 540q0 51 -14 75.5t-56 24.5h-20v20h90q37 0 55.5 -9.5t26.5 -34.5t8 -76v-180h300v300h90v-540q0 -51 14 -75.5t56 -24.5h20v-20h-90q-37 0 -55.5 9.5t-26.5 34.5t-8 76v200h-300v-320h-90v540z" />
<glyph unicode="I" horiz-adv-x="285" d="M123.5 9.5q-18.5 9.5 -26.5 34.5t-8 76v540h90v-540q0 -51 14 -75.5t56 -24.5h20v-20h-90q-37 0 -55.5 9.5z" />
<glyph unicode="J" horiz-adv-x="261" d="M-9 -117q48 0 71.5 51t23.5 144v582h90v-582q0 -78 -16.5 -124.5t-56.5 -68.5t-112 -22v20z" />
<glyph unicode="K" horiz-adv-x="677" d="M523 15.5q-51 25.5 -117 94.5l-210 220v-330h-90v540q0 51 -14 75.5t-56 24.5h-20v20h90q37 0 55.5 -9.5t26.5 -34.5t8 -76v-195l210 210l20 21q28 29 47 45.5t45 27.5t58 11h50v-25q-42 0 -73 -14.5t-72 -55.5l-195 -195l230 -240q44 -45 89 -75.5t81 -35.5v-19 q-30 -10 -65 -10q-47 0 -98 25.5z" />
<glyph unicode="L" horiz-adv-x="558" d="M106 540q0 51 -14 75.5t-56 24.5h-20v20h90q37 0 55.5 -9.5t26.5 -34.5t8 -76v-500h355v-40h-445v540z" />
<glyph unicode="M" horiz-adv-x="855" d="M729 -23q-40 22 -56.5 68.5t-16.5 124.5v385l-250 -555h-20l-260 565v-565h-40v660h95l240 -520l235 520h90v-490q0 -93 23.5 -144t71.5 -51v-20q-72 0 -112 22z" />
<glyph unicode="N" horiz-adv-x="685" d="M150 525v-525h-40v540q0 48 -20.5 74t-69.5 26h-10v20h65q46 0 78 -15t57 -45l350 -435v495h40v-670h-20z" />
<glyph unicode="O" horiz-adv-x="712" d="M192.5 26q-70.5 46 -108.5 126t-38 178t38 178t108.5 126t163.5 46t163.5 -46t108.5 -126t38 -178t-38 -178t-108.5 -126t-163.5 -46t-163.5 46zM468.5 58q47.5 38 72.5 107.5t25 164.5t-25 164.5t-72.5 107.5t-112.5 38t-112.5 -38t-72.5 -107.5t-25 -164.5t25 -164.5 t72.5 -107.5t112.5 -38t112.5 38z" />
<glyph unicode="P" horiz-adv-x="552" d="M106 540q0 51 -14 75.5t-56 24.5h-20v20h260q96 0 173 -41t77 -159q0 -78 -40 -120t-89.5 -56t-90.5 -14h-110v-270h-90v540zM271 305q32 0 68 16.5t61.5 52.5t25.5 91t-25.5 91t-61.5 52.5t-68 16.5q-35 0 -75 -10v-310h75z" />
<glyph unicode="Q" horiz-adv-x="714" d="M456 -160q-102 45 -189 153q-102 30 -161 122t-59 215q0 98 38 178t108.5 126t163.5 46t163.5 -46t108.5 -126t38 -178q0 -126 -61.5 -218.5t-166.5 -120.5q15 -48 55 -88.5t90 -64t93 -23.5v-20q-119 0 -221 45zM469.5 58q47.5 38 72.5 107.5t25 164.5t-25 164.5 t-72.5 107.5t-112.5 38t-112.5 -38t-72.5 -107.5t-25 -164.5t25 -164.5t72.5 -107.5t112.5 -38t112.5 38z" />
<glyph unicode="R" horiz-adv-x="595" d="M453.5 21.5q-39.5 31.5 -87.5 113.5l-100 170h-70v-305h-90v540q0 51 -14 75.5t-56 24.5h-20v20h260q94 0 172 -37.5t78 -141.5q0 -78 -45.5 -116.5t-114.5 -54.5l105 -175q37 -62 66.5 -86.5t68.5 -28.5v-20q-9 -4 -26 -7t-35 -3q-52 0 -91.5 31.5zM268 340q33 0 70 15 t62.5 47t25.5 80t-26 80t-62.5 47.5t-69.5 15.5q-32 0 -72 -10v-275h72z" />
<glyph unicode="S" horiz-adv-x="533" d="M174 -2q-53 15 -86.5 43t-33.5 64v107h18q17 -100 66 -144.5t135 -44.5q54 0 92.5 27t38.5 75q0 42 -26 73t-84 65l-123 73q-64 38 -90.5 77t-26.5 95q0 77 53.5 123.5t140.5 46.5q51 0 101 -14.5t82.5 -42t32.5 -63.5v-107h-18q-17 100 -64.5 143.5t-133.5 43.5 q-46 0 -81 -28t-35 -73q0 -41 25.5 -68t85.5 -63l123 -73q68 -41 96 -76t28 -89q0 -84 -56 -134.5t-152 -50.5q-55 0 -108 15z" />
<glyph unicode="T" horiz-adv-x="583" d="M256 620h-90q-125 0 -125 -115h-20v75q0 80 85 80h465v-40h-225v-620h-90v620z" />
<glyph unicode="U" horiz-adv-x="687" d="M202 22.5q-56 32.5 -79.5 96.5t-23.5 166v255q0 51 -14 75.5t-56 24.5h-20v20h90q37 0 55.5 -9.5t26.5 -34.5t8 -76v-285q0 -111 41 -168t136 -57q76 0 120.5 27t63.5 82t19 146v375h40v-375q0 -104 -22 -167.5t-77.5 -95.5t-155.5 -32q-96 0 -152 32.5z" />
<glyph unicode="V" horiz-adv-x="640" d="M81 543q-25 58 -47 79.5t-63 25.5v20q5 0 14.5 1t19.5 1q50 0 96 -25.5t78 -101.5l171 -403l220 520h48l-287 -670h-18z" />
<glyph unicode="W" horiz-adv-x="866" d="M78 543q-20 58 -42.5 79.5t-67.5 25.5v20q5 0 14.5 1t19.5 1q55 0 99.5 -25t71.5 -102l134 -386l107 317l-24 69q-20 58 -42.5 79.5t-67.5 25.5v20q5 0 14.5 1t19.5 1q55 0 99.5 -25t71.5 -102l134 -386l171 503h43l-229 -670h-20l-148 421l-144 -421h-20z" />
<glyph unicode="X" horiz-adv-x="667" d="M291 325l-140 205q-24 35 -42 55.5t-47 36.5t-71 18v20h120q44 0 74 -28.5t66 -81.5l100 -150l200 260h50l-225 -295l160 -235q31 -46 66.5 -76.5t78.5 -33.5v-20h-105q-43 0 -76 30.5t-64 79.5l-120 180l-225 -290h-50z" />
<glyph unicode="Y" horiz-adv-x="628" d="M290 273l-170 257q-26 37 -44 58t-42.5 35.5t-58.5 16.5v20h90q50 0 84 -29.5t66 -80.5l145 -225l209 335h45l-234 -380v-280h-90v273z" />
<glyph unicode="Z" horiz-adv-x="591" d="M24 20l415 600h-240q-125 0 -125 -115h-20v75q0 80 85 80h435l-425 -620h410v-40h-535v20z" />
<glyph unicode="[" horiz-adv-x="316" d="M75 680h215v-40h-135v-800h135v-40h-215v880z" />
<glyph unicode="\" horiz-adv-x="440" d="M23 660h73l321 -660h-73z" />
<glyph unicode="]" horiz-adv-x="316" d="M26 -160h135v800h-135v40h215v-880h-215v40z" />
<glyph unicode="^" horiz-adv-x="490" d="M235 680h20l215 -350h-67l-158 257l-158 -257h-67z" />
<glyph unicode="_" horiz-adv-x="432" d="M16 0h400v-60h-400v60z" />
<glyph unicode="`" horiz-adv-x="200" d="M20 680h100l60 -200h-50z" />
<glyph unicode="a" horiz-adv-x="481" d="M119 3.5q-33 13.5 -56.5 44.5t-23.5 82q0 76 70.5 108t184.5 32h30q0 98 -27 134t-78 36q-45 0 -72 -19t-38 -66h-45q0 34 4 53.5t21 36.5q18 18 59.5 26.5t90.5 8.5q81 0 128 -43.5t47 -166.5v-270h-50l-35 45h-5q-18 -23 -53 -39t-87 -16q-32 0 -65 13.5zM284 51 q22 16 40 44v135h-30q-74 0 -117 -27.5t-43 -72.5q0 -46 27.5 -70.5t67.5 -24.5q33 0 55 16z" />
<glyph unicode="b" horiz-adv-x="523" d="M213 6q-33 16 -51 39h-5l-35 -45h-50v540q0 51 -14 75.5t-56 24.5h-20v20h90q37 0 55.5 -9.5t26.5 -34.5t8 -76v-90q29 14 58 22t67 8q93 0 141.5 -69t48.5 -176q0 -106 -47 -175.5t-133 -69.5q-51 0 -84 16zM353 86.5q29 56.5 29 148.5q0 93 -30.5 149t-94.5 56 q-21 0 -43 -8t-52 -22v-320q18 -27 42.5 -43.5t62.5 -16.5q57 0 86 56.5z" />
<glyph unicode="c" horiz-adv-x="483" d="M143.5 22.5q-49.5 32.5 -74 88t-24.5 124.5t24.5 124.5t74 88t121.5 32.5q110 0 145 -35q17 -17 21 -41.5t4 -88.5h-20q-4 62 -39 93.5t-91 31.5q-72 0 -108.5 -57t-36.5 -148t36.5 -148t108.5 -57q51 0 84 19.5t61 60.5l20 -15q-33 -56 -78 -80.5t-107 -24.5 q-72 0 -121.5 32.5z" />
<glyph unicode="d" horiz-adv-x="524" d="M93.5 59q-46.5 69 -46.5 176t48.5 176t141.5 69q38 0 67 -8t58 -22v90q0 51 -14 75.5t-56 24.5h-20v20h90q37 0 55.5 -9.5t26.5 -34.5t8 -76v-540h-50l-35 45h-5q-22 -25 -51.5 -40t-83.5 -15q-87 0 -133.5 69zM319 45q21 15 43 45v320q-30 14 -52 22t-43 8 q-64 0 -94.5 -56t-30.5 -149q0 -92 29 -148.5t86 -56.5q41 0 62 15z" />
<glyph unicode="e" horiz-adv-x="488" d="M140 22.5q-47 32.5 -71 88t-24 124.5q0 68 24 124t69.5 88.5t106.5 32.5q101 0 150.5 -56.5t49.5 -163.5l-2 -40h-303q0 -84 36 -137t99 -53q47 0 79.5 20t60.5 60l20 -15q-33 -55 -77 -80t-103 -25q-68 0 -115 32.5zM350 260q0 88 -26 134t-79 46q-30 0 -54 -23.5 t-37.5 -64.5t-13.5 -92h210z" />
<glyph unicode="f" horiz-adv-x="337" d="M91 430h-70v40h70v30q0 170 175 170q63 0 85 -15q17 -13 35 -45l-30 -25q-30 45 -95 45q-80 0 -80 -130v-30h140v-40h-140v-430h-90v430z" />
<glyph unicode="g" horiz-adv-x="492" d="M85.5 -163q-59.5 37 -59.5 118q0 46 31 80t79 50q-40 22 -40 60q0 20 9 31t26 24q-32 16 -53.5 50t-21.5 80q0 150 190 150h185v-25l-65 -10q30 -19 50 -49t20 -66q0 -150 -190 -150q-105 0 -105 -35t105 -35q97 0 158.5 -38.5t61.5 -116.5q0 -81 -59.5 -118t-160.5 -37 t-160.5 37zM318.5 242.5q27.5 27.5 27.5 87.5q0 57 -27.5 86t-72.5 29t-72.5 -27.5t-27.5 -87.5t27.5 -87.5t72.5 -27.5t72.5 27.5zM341 -131.5q35 28.5 35 86.5q0 100 -120 115l-55 5q-41 -16 -63 -45t-22 -75q0 -58 35 -86.5t95 -28.5t95 28.5z" />
<glyph unicode="h" horiz-adv-x="529" d="M72 540q0 51 -14 75.5t-56 24.5h-20v20h90q37 0 55.5 -9.5t26.5 -34.5t8 -76v-110q21 21 54.5 35.5t75.5 14.5q75 0 122.5 -40t47.5 -140v-300h-90v300q0 70 -31.5 102.5t-78.5 32.5q-53 0 -100 -53v-382h-90v540z" />
<glyph unicode="i" horiz-adv-x="246" d="M85.5 549q-16.5 19 -16.5 45q0 21 12.5 33t33.5 12q23 0 39.5 -19t16.5 -45q0 -21 -12.5 -33t-33.5 -12q-23 0 -39.5 19zM87 350q0 51 -14 75.5t-56 24.5h-20v20h90q37 0 55.5 -9.5t26.5 -34.5t8 -76v-350h-90v350z" />
<glyph unicode="j" horiz-adv-x="246" d="M85.5 549q-16.5 19 -16.5 45q0 21 12.5 33t33.5 12q23 0 39.5 -19t16.5 -45q0 -21 -12.5 -33t-33.5 -12q-23 0 -39.5 19zM-8 -170q48 0 71.5 51t23.5 144v325q0 51 -14 75.5t-56 24.5h-20v20h90q37 0 55.5 -9.5t26.5 -34.5t8 -76v-325q0 -78 -16.5 -124.5t-56.5 -68.5 t-112 -22v20z" />
<glyph unicode="k" horiz-adv-x="485" d="M282 70l-120 160v-230h-90v540q0 51 -14 75.5t-56 24.5h-20v20h90q37 0 55.5 -9.5t26.5 -34.5t8 -76v-295l125 160q26 32 55 48.5t75 16.5h30v-25q-27 0 -52 -11t-43 -34l-110 -140l125 -160q29 -38 54.5 -57t55.5 -24v-19q-22 -10 -50 -10q-85 0 -145 80z" />
<glyph unicode="l" horiz-adv-x="242" d="M76 540q0 51 -14 75.5t-56 24.5h-20v20h90q37 0 55.5 -9.5t26.5 -34.5t8 -76v-540h-90v540z" />
<glyph unicode="m" horiz-adv-x="785" d="M87 350q0 51 -14 75.5t-56 24.5h-20v20h90q37 0 56.5 -10t28.5 -30h5q21 21 54.5 35.5t75.5 14.5t72 -15.5t48 -54.5q26 33 66.5 51.5t83.5 18.5q64 0 102 -40t38 -140v-300h-90v300q0 72 -20 103.5t-60 31.5q-28 0 -59 -20.5t-46 -44.5q5 -15 5 -70v-300h-90v300 q0 72 -20 103.5t-60 31.5q-53 0 -100 -53v-382h-90v350z" />
<glyph unicode="n" horiz-adv-x="544" d="M87 350q0 51 -14 75.5t-56 24.5h-20v20h90q37 0 56.5 -10t28.5 -30q25 20 59.5 35t75.5 15q75 0 122.5 -40t47.5 -140v-300h-90v300q0 70 -31.5 102.5t-78.5 32.5q-53 0 -100 -53v-382h-90v350z" />
<glyph unicode="o" horiz-adv-x="530" d="M147 22.5q-50 32.5 -76 88.5t-26 124t26 124t76 88.5t118 32.5t118 -32.5t76 -88.5t26 -124t-26 -124t-76 -88.5t-118 -32.5t-118 32.5zM330.5 57q28.5 27 44 74t15.5 104t-15.5 104t-44 74t-65.5 27t-65.5 -27t-44 -74t-15.5 -104t15.5 -104t44 -74t65.5 -27t65.5 27z " />
<glyph unicode="p" horiz-adv-x="538" d="M87 350q0 51 -14 75.5t-56 24.5h-20v20h90q38 0 57.5 -10.5t27.5 -34.5q55 55 140 55q86 0 133 -69.5t47 -175.5q0 -107 -48.5 -176t-141.5 -69q-38 0 -67 8t-58 22v-210h-90v540zM366.5 86q30.5 56 30.5 149q0 92 -29 148.5t-86 56.5q-67 0 -105 -60v-320q30 -14 52 -22 t43 -8q64 0 94.5 56z" />
<glyph unicode="q" horiz-adv-x="524" d="M362 20q-29 -14 -58 -22t-67 -8q-93 0 -141.5 69t-48.5 176t46.5 176t133.5 69q51 0 84 -16t51 -39h5l35 45h50v-660h-90v210zM310 38q22 8 52 22v320q-21 28 -44 44t-61 16q-57 0 -86 -56.5t-29 -148.5q0 -93 30.5 -149t94.5 -56q21 0 43 8z" />
<glyph unicode="r" horiz-adv-x="397" d="M80 350q0 51 -14 75.5t-56 24.5h-10v20h80q38 0 57.5 -10.5t27.5 -34.5q22 22 54 38.5t71 16.5q40 0 60 -15q17 -13 35 -45l-40 -30q-11 15 -32 22.5t-48 7.5q-30 0 -55 -13.5t-40 -36.5v-30v-340h-90v350z" />
<glyph unicode="s" horiz-adv-x="446" d="M74 30q-17 17 -21 38.5t-4 66.5h20q9 -50 43.5 -77.5t96.5 -27.5q55 0 82.5 19t27.5 51q0 29 -21.5 50t-68.5 40l-60 25q-60 24 -90 56t-30 79q0 61 46 95.5t119 34.5q110 0 150 -40q17 -17 21 -38t4 -67h-20q-8 50 -42 77.5t-93 27.5q-47 0 -73.5 -19.5t-26.5 -50.5 q0 -52 80 -85l60 -25q68 -28 99 -59.5t31 -80.5q0 -61 -49 -95.5t-126 -34.5q-115 0 -155 40z" />
<glyph unicode="t" horiz-adv-x="338" d="M123 22q-32 32 -32 98v310h-70v40h70v90l50 60h40v-150h120v-40h-120v-310q0 -90 70 -90q24 0 40.5 5t34.5 15l10 -20q-23 -17 -51 -28.5t-74 -11.5q-56 0 -88 32z" />
<glyph unicode="u" horiz-adv-x="535" d="M120.5 30q-47.5 40 -47.5 140v180q0 51 -14 75.5t-56 24.5h-10v20h80q37 0 55.5 -9.5t26.5 -34.5t8 -76v-180q0 -70 31.5 -102.5t78.5 -32.5q53 0 100 53v382h90v-470h-50l-35 40h-5q-21 -21 -54.5 -35.5t-75.5 -14.5q-75 0 -122.5 40z" />
<glyph unicode="v" horiz-adv-x="497" d="M99 355q-24 56 -46 78.5t-58 24.5v20q5 0 14.5 1t19.5 1q53 0 96 -26.5t74 -98.5l90 -215l140 330h50l-205 -480h-20z" />
<glyph unicode="w" horiz-adv-x="749" d="M100 355q-23 56 -45.5 78.5t-59.5 24.5v20q5 0 15 1t20 1q54 0 95.5 -27.5t69.5 -97.5l85 -210l85 215q-24 53 -45.5 74.5t-54.5 23.5v20q5 0 15 1t20 1q54 0 95.5 -27.5t69.5 -97.5l85 -210l130 325h50l-195 -480h-20l-125 310l-125 -310h-20z" />
<glyph unicode="x" horiz-adv-x="488" d="M198 225l-87 145q-42 73 -103 80v20h85q33 0 62 -21t51 -59l62 -105l130 185h50l-160 -225l87 -145q41 -72 108 -80v-20h-90q-33 0 -62 21t-51 59l-62 105l-130 -185h-50z" />
<glyph unicode="y" horiz-adv-x="514" d="M105 -170q49 0 80.5 22.5t54.5 82.5l20 55l-160 390q-28 72 -110 80v20h85q87 0 120 -80l114 -277l126 347h50l-195 -535q-29 -79 -64 -107t-91 -28h-30v30z" />
<glyph unicode="z" horiz-adv-x="466" d="M44 19l260 411h-115q-62 0 -93.5 -23.5t-31.5 -66.5h-20v50q0 80 85 80h305l-270 -430h270v-40h-390v19z" />
<glyph unicode="{" horiz-adv-x="304" d="M149.5 -144.5q-38.5 44.5 -38.5 114.5v140q0 46 -23.5 76.5t-76.5 38.5v30q53 8 76.5 38.5t23.5 76.5v140q0 69 38.5 113t126.5 67v-30q-50 -15 -67.5 -39t-17.5 -71v-170q0 -59 -25.5 -92t-79.5 -48q54 -15 79.5 -48t25.5 -92v-170q0 -47 17.5 -71.5t67.5 -38.5v-30 q-88 21 -126.5 65.5z" />
<glyph unicode="|" horiz-adv-x="240" d="M75 680h90v-870h-90v870z" />
<glyph unicode="}" horiz-adv-x="304" d="M28 -180q50 14 67.5 38.5t17.5 71.5v170q0 59 25.5 92t79.5 48q-54 15 -79.5 48t-25.5 92v170q0 47 -17.5 71t-67.5 39v30q88 -23 126.5 -67t38.5 -113v-140q0 -46 23.5 -76.5t76.5 -38.5v-30q-53 -8 -76.5 -38.5t-23.5 -76.5v-140q0 -70 -38.5 -114.5t-126.5 -65.5v30z " />
<glyph unicode="~" horiz-adv-x="629" d="M381 191q-34 11 -81 32q-41 19 -68 28t-52 9q-37 0 -58.5 -19.5t-21.5 -50.5h-40q0 70 35 105t85 35q35 0 69 -11t81 -32q41 -19 68 -28t52 -9q37 0 58.5 19.5t21.5 50.5h40q0 -70 -35 -105t-85 -35q-35 0 -69 11z" />
<glyph unicode="&#xa1;" horiz-adv-x="220" d="M72 387.5q-16 15.5 -16 37.5q0 23 16 39t38 16t38 -16t16 -39q0 -22 -16 -37.5t-38 -15.5t-38 15.5zM81 311h58l18 -505h-94z" />
<glyph unicode="&#xa2;" horiz-adv-x="483" d="M240 -10q-97 8 -148.5 75.5t-51.5 169.5t51.5 169.5t148.5 75.5v40h40v-40q43 0 75.5 -9t49.5 -26t21 -41.5t4 -88.5h-20q-4 62 -39 93.5t-91 31.5v-410q51 0 84 19.5t61 60.5l20 -15q-30 -51 -70.5 -76t-94.5 -29v-40h-40v40zM240 435q-51 -16 -78 -69.5t-27 -130.5 t27 -131.5t78 -68.5v400z" />
<glyph unicode="&#xa3;" horiz-adv-x="528" d="M32 25q43 13 64 57t21 138v100h-70v40h70v100q0 123 47 166.5t128 43.5q49 0 90.5 -8.5t59.5 -26.5q17 -17 21 -36.5t4 -53.5h-45q-11 47 -38 66t-72 19q-51 0 -78 -36t-27 -134v-100h140v-40h-140v-100q0 -70 -14 -113t-41 -67h185q125 0 125 115h20v-75q0 -80 -85 -80 h-365v25z" />
<glyph unicode="&#xa4;" horiz-adv-x="576" d="M124 200h-60v40h60v50h-60v40h60v210q0 51 -14 75.5t-56 24.5h-20v20h260q109 0 179.5 -42.5t70.5 -137.5q0 -100 -70.5 -145t-179.5 -45h-80v-50h260v-40h-260v-200h-90v200zM294 330q67 2 108.5 39t41.5 111q0 71 -44 108t-111 37q-35 0 -75 -10v-285h80z" />
<glyph unicode="&#xa5;" horiz-adv-x="687" d="M339 145h-95v40h95v40h-95v40h95l-170 265q-26 37 -44 58t-42.5 35.5t-58.5 16.5v20h90q50 0 84 -29.5t66 -80.5l145 -225l209 335h45l-234 -380v-15h95v-40h-95v-40h95v-40h-95v-145h-90v145z" />
<glyph unicode="&#xa6;" horiz-adv-x="246" d="M78 680h90v-350h-90v350zM78 160h90v-350h-90v350z" />
<glyph unicode="&#xa7;" horiz-adv-x="432" d="M134.5 -189.5q-34.5 10.5 -53.5 29.5q-17 17 -21 38t-4 67h20q8 -49 35.5 -77t69.5 -28q46 0 73 23t27 67q0 32 -15 56t-37 41.5t-59 41.5q-39 25 -62.5 44.5t-40 47t-16.5 64.5q0 105 105 145q-90 58 -90 150q0 75 43.5 112.5t111.5 37.5q42 0 76.5 -10.5t53.5 -29.5 q17 -17 21 -38t4 -67h-20q-8 49 -35.5 77t-69.5 28q-46 0 -73 -23t-27 -67q0 -32 15 -56t37 -41.5t59 -41.5q39 -25 62.5 -44.5t40 -47t16.5 -64.5q0 -56 -27 -90.5t-79 -54.5q43 -29 67 -65.5t24 -84.5q0 -75 -43.5 -112.5t-111.5 -37.5q-42 0 -76.5 10.5zM287.5 154.5 q18.5 21.5 18.5 60.5q0 40 -28 71t-83 61q-32 -10 -50.5 -31.5t-18.5 -60.5q0 -40 28 -71t83 -61q32 10 50.5 31.5z" />
<glyph unicode="&#xa8;" horiz-adv-x="310" d="M33.5 703.5q-13.5 13.5 -13.5 36.5t13.5 36.5t36.5 13.5t36.5 -13.5t13.5 -36.5t-13.5 -36.5t-36.5 -13.5t-36.5 13.5zM203.5 703.5q-13.5 13.5 -13.5 36.5t13.5 36.5t36.5 13.5t36.5 -13.5t13.5 -36.5t-13.5 -36.5t-36.5 -13.5t-36.5 13.5z" />
<glyph unicode="&#xa9;" horiz-adv-x="790" d="M213 21q-81 46 -127 127t-46 182t46 182t127 127t182 46t182 -46t127 -127t46 -182t-46 -182t-127 -127t-182 -46t-182 46zM558 55q72 40 112 112t40 163t-40 163t-112 112t-163 40t-163 -40t-112 -112t-40 -163t40 -163t112 -112t163 -40t163 40zM289.5 134 q-45.5 29 -70 79.5t-24.5 113.5q0 64 27 118t73 85.5t100 31.5q51 0 91 -15t58 -37q11 -13 14 -36t3 -62h-13q-23 124 -133 124q-70 0 -113 -49.5t-43 -159.5q0 -81 39.5 -138t116.5 -57q48 0 83 22.5t63 68.5l13 -10q-31 -59 -74 -83.5t-105 -24.5q-60 0 -105.5 29z" />
<glyph unicode="&#xaa;" horiz-adv-x="321" d="M75 411q-24 15 -24 55q0 42 39 61.5t99 19.5h16q0 53 -14.5 72t-41.5 19q-25 0 -39 -10t-20 -35h-25q0 19 2 28.5t12 19.5q16 19 80 19q44 0 71 -23.5t27 -89.5v-146h-30l-19 25h-3q-9 -13 -28 -21.5t-47 -8.5q-31 0 -55 15zM205 453v72h-16q-40 0 -63 -16.5t-23 -42.5 q0 -48 46 -48q32 0 56 35z" />
<glyph unicode="&#xab;" horiz-adv-x="372" d="M35 225l155 195h40l-95 -195l95 -195h-40zM175 225l100 145h40l-60 -145l60 -145h-40z" />
<glyph unicode="&#xac;" horiz-adv-x="654" d="M528 230h-460v60h520v-160h-60v100z" />
<glyph unicode="&#xad;" horiz-adv-x="387" d="M66 300h255v-70h-255v70z" />
<glyph unicode="&#xae;" horiz-adv-x="790" d="M213 21q-81 46 -127 127t-46 182t46 182t127 127t182 46t182 -46t127 -127t46 -182t-46 -182t-127 -127t-182 -46t-182 46zM558 55q72 40 112 112t40 163t-40 163t-112 112t-163 40t-163 -40t-112 -112t-40 -163t40 -163t112 -112t163 -40t163 40zM498.5 138 q-23.5 20 -56.5 73l-67 112h-48v-198h-58v349q0 33 -9 49t-36 16h-13v13h168q61 0 111.5 -24.5t50.5 -93.5q0 -49 -30.5 -74.5t-72.5 -32.5l72 -116q25 -40 43 -55.5t42 -18.5v-12q-10 -7 -42 -7q-31 0 -54.5 20zM419.5 355q23.5 10 40 31t16.5 52t-16.5 52t-40 30.5 t-43.5 9.5q-19 0 -49 -7v-171q30 -7 49 -7q20 0 43.5 10z" />
<glyph unicode="&#xaf;" horiz-adv-x="250" />
<glyph unicode="&#xb0;" horiz-adv-x="412" d="M125 659q-37 -21 -58 -58t-21 -81t21 -81t58 -58t81 -21t81 21t58 58t21 81t-21 81t-58 58t-81 21t-81 -21zM277 595q29 -30 29 -75t-29 -75t-71 -30t-71 30t-29 75t29 75t71 30t71 -30z" />
<glyph unicode="&#xb1;" horiz-adv-x="574" d="M57 120h200v180h-200v60h200v200h60v-200h200v-60h-200v-180h200v-60h-460v60z" />
<glyph unicode="&#xb2;" horiz-adv-x="321" d="M61 400l27 26q48 46 70 71t34.5 50t12.5 55q0 33 -15 49t-40 16q-29 0 -47.5 -18.5t-25.5 -55.5h-12q0 23 2 36.5t9 23.5q13 16 37 26t50 10q37 0 65.5 -18.5t28.5 -68.5q0 -41 -24 -73t-79 -81q-34 -30 -53 -49h91q29 0 43 10.5t14 33.5h12v-30q0 -36 -39 -36h-161v23z " />
<glyph unicode="&#xb3;" horiz-adv-x="311" d="M95.5 379q-22.5 12 -42.5 37l10 9q33 -36 84 -36q28 0 46 19t18 54q0 33 -17.5 50t-40.5 17q-30 0 -53 -6l-14 24l123 111h-84q-28 0 -42.5 -10.5t-14.5 -34.5h-9v30q0 37 39 37h151v-18l-128 -115q16 4 41 4q38 0 69.5 -21.5t31.5 -67.5q0 -53 -35.5 -74t-76.5 -21 q-33 0 -55.5 12z" />
<glyph unicode="&#xb4;" horiz-adv-x="175" d="M60 830h95l-95 -130h-40z" />
<glyph unicode="&#xb5;" horiz-adv-x="529" d="M74 470h90v-235q0 -92 29 -148.5t86 -56.5q38 0 62.5 16.5t42.5 43.5v380h90v-470h-50l-35 45h-5q-24 -26 -48 -40.5t-67 -14.5q-60 0 -105 45v-225h-90v660z" />
<glyph unicode="&#xb6;" horiz-adv-x="601" d="M258 290q-66 0 -118 22.5t-82 64t-30 98.5t30 98.5t82 64t118 22.5h300v-40h-55v-810h-90v810h-65v-810h-90v480z" />
<glyph unicode="&#xb7;" horiz-adv-x="230" d="M77 292q-16 16 -16 39q0 22 16 38t38 16q23 0 38.5 -16t15.5 -38q0 -23 -16 -39t-38 -16t-38 16z" />
<glyph unicode="&#xb8;" horiz-adv-x="180" d="M40 -155h50q40 0 40 32q0 33 -40 33h-45v90h45v-50q90 0 90 -73q0 -34 -22.5 -53.5t-57.5 -19.5h-60v41z" />
<glyph unicode="&#xb9;" horiz-adv-x="212" d="M90 624l-41 -24l-11 16l65 64h39v-303h-52v247z" />
<glyph unicode="&#xba;" horiz-adv-x="335" d="M80.5 646.5q-28.5 -42.5 -28.5 -118.5q0 -75 28.5 -118t86.5 -43t87 43t29 118t-29 118t-87 43t-86.5 -42.5zM231 528q0 -72 -16 -105.5t-48 -33.5q-63 0 -63 139t63 139q64 0 64 -139z" />
<glyph unicode="&#xbb;" horiz-adv-x="372" d="M237 225l-95 195h40l155 -195l-155 -195h-40zM117 225l-60 145h40l100 -145l-100 -145h-40z" />
<glyph unicode="&#xbc;" horiz-adv-x="596" d="M106 624l-41 -24l-11 16l65 64h39v-303h-52v247zM484 660h65l-455 -660h-65zM460 78h-152v19l157 207h47v-204h41v-22h-41v-78h-52v78zM460 100v155l-118 -155h118z" />
<glyph unicode="&#xbd;" horiz-adv-x="613" d="M106 624l-41 -24l-11 16l65 64h39v-303h-52v247zM484 660h65l-455 -660h-65zM363 23l27 26q48 46 70 71t34.5 50t12.5 55q0 33 -15 49t-40 16q-29 0 -47.5 -18.5t-25.5 -55.5h-12q0 23 2 36.5t9 23.5q13 16 37 26t50 10q37 0 65.5 -18.5t28.5 -68.5q0 -41 -24 -73 t-79 -81q-34 -30 -53 -49h91q29 0 43 10.5t14 33.5h12v-30q0 -36 -39 -36h-161v23z" />
<glyph unicode="&#xbe;" horiz-adv-x="614" d="M84.5 379q-22.5 12 -42.5 37l10 9q33 -36 84 -36q28 0 46 19t18 54q0 33 -17.5 50t-40.5 17q-30 0 -53 -6l-14 24l123 111h-84q-28 0 -42.5 -10.5t-14.5 -34.5h-9v30q0 37 39 37h151v-18l-128 -115q16 4 41 4q38 0 69.5 -21.5t31.5 -67.5q0 -53 -35.5 -74t-76.5 -21 q-33 0 -55.5 12zM513 660h65l-455 -660h-65zM478 78h-152v19l157 207h47v-204h41v-22h-41v-78h-52v78zM478 100v155l-118 -155h118z" />
<glyph unicode="&#xbf;" horiz-adv-x="473" d="M220 388q-16 16 -16 39q0 22 16.5 38t38.5 16q23 0 38.5 -16t15.5 -38q0 -23 -15.5 -39t-38.5 -16t-39 16zM89.5 -170.5q-60.5 41.5 -60.5 148.5q0 42 16 75t38 57t60 58q48 42 71.5 72.5t24.5 71.5h40q-1 -55 -20.5 -92t-57.5 -83q-36 -41 -54 -75.5t-18 -83.5 q0 -72 37.5 -111t92.5 -39q62 0 106.5 44.5t59.5 125.5h20q0 -50 -4 -79.5t-21 -50.5q-28 -34 -80.5 -57t-110.5 -23q-79 0 -139.5 41.5z" />
<glyph unicode="&#xc0;" horiz-adv-x="635" d="M527 21.5q-47 26.5 -75 103.5l-25 65h-280l-80 -190h-45l280 660h30l220 -535q25 -58 47 -79.5t63 -25.5v-20q-18 -5 -40 -5q-48 0 -95 26.5zM407 230l-120 290l-125 -290h245zM202 830h95l40 -130h-40z" />
<glyph unicode="&#xc1;" horiz-adv-x="635" d="M527 21.5q-47 26.5 -75 103.5l-25 65h-280l-80 -190h-45l280 660h30l220 -535q25 -58 47 -79.5t63 -25.5v-20q-18 -5 -40 -5q-48 0 -95 26.5zM407 230l-120 290l-125 -290h245zM342 830h95l-95 -130h-40z" />
<glyph unicode="&#xc2;" horiz-adv-x="635" d="M527 21.5q-47 26.5 -75 103.5l-25 65h-280l-80 -190h-45l280 660h30l220 -535q25 -58 47 -79.5t63 -25.5v-20q-18 -5 -40 -5q-48 0 -95 26.5zM407 230l-120 290l-125 -290h245zM262 800h110l80 -115h-50l-85 80l-85 -80h-50z" />
<glyph unicode="&#xc3;" horiz-adv-x="635" d="M527 21.5q-47 26.5 -75 103.5l-25 65h-280l-80 -190h-45l280 660h30l220 -535q25 -58 47 -79.5t63 -25.5v-20q-18 -5 -40 -5q-48 0 -95 26.5zM407 230l-120 290l-125 -290h245zM223.5 773.5q14.5 21.5 45.5 21.5q15 0 27.5 -5.5t27.5 -15.5q3 -2 13 -7.5t19 -8.5t18 -3 q11 0 20.5 14t9.5 26h30q0 -52 -14.5 -73.5t-45.5 -21.5q-14 0 -26.5 5t-27.5 15q-17 10 -27.5 15t-23.5 5q-11 0 -20.5 -14t-9.5 -26h-30q0 52 14.5 73.5z" />
<glyph unicode="&#xc4;" horiz-adv-x="635" d="M527 21.5q-47 26.5 -75 103.5l-25 65h-280l-80 -190h-45l280 660h30l220 -535q25 -58 47 -79.5t63 -25.5v-20q-18 -5 -40 -5q-48 0 -95 26.5zM407 230l-120 290l-125 -290h245zM195.5 703.5q-13.5 13.5 -13.5 36.5t13.5 36.5t36.5 13.5t36.5 -13.5t13.5 -36.5 t-13.5 -36.5t-36.5 -13.5t-36.5 13.5zM365.5 703.5q-13.5 13.5 -13.5 36.5t13.5 36.5t36.5 13.5t36.5 -13.5t13.5 -36.5t-13.5 -36.5t-36.5 -13.5t-36.5 13.5z" />
<glyph unicode="&#xc5;" horiz-adv-x="636" d="M527 21.5q-47 26.5 -75 103.5l-25 65h-280l-80 -190h-45l265 625q-23 10 -39 29.5t-16 50.5q0 34 25.5 59.5t59.5 25.5t59.5 -25.5t25.5 -59.5q0 -31 -16 -50.5t-39 -29.5l205 -500q25 -58 47 -79.5t63 -25.5v-20q-18 -5 -40 -5q-48 0 -95 26.5zM337 660q25 18 25 45 q0 23 -13 36.5t-32 13.5t-32 -13.5t-13 -36.5q0 -27 25 -45h40zM407 230l-120 290l-125 -290h245z" />
<glyph unicode="&#xc6;" horiz-adv-x="865" d="M356 660h361q85 0 85 -80v-75h-20q0 115 -125 115h-186v-260h270v-40h-270v-280h175q69 0 108 25t62 85l20 -5l-35 -95q-18 -50 -75 -50h-345v190h-240l-105 -190h-50zM381 230v385l-215 -385h215z" />
<glyph unicode="&#xc7;" horiz-adv-x="665" d="M523 22q-63 -38 -149 -42v-30q90 0 90 -73q0 -34 -22.5 -53.5t-57.5 -19.5h-60v41h50q40 0 40 32q0 33 -40 33h-45v71q-86 6 -150.5 52.5t-99.5 121.5t-35 165q0 98 41.5 181t113 131t155.5 48q80 0 140.5 -22.5t89.5 -57.5q17 -21 21 -55.5t4 -94.5h-20 q-19 97 -70 143.5t-135 46.5q-108 0 -174 -76t-66 -244q0 -79 25.5 -147t79.5 -110.5t135 -42.5q73 0 127.5 35t97.5 105l20 -15q-43 -85 -106 -123z" />
<glyph unicode="&#xc8;" horiz-adv-x="590" d="M106 540q0 51 -14 75.5t-56 24.5h-20v20h426q85 0 85 -80v-75h-20q0 115 -125 115h-186v-260h270v-40h-270v-280h175q69 0 108 25t62 85l20 -5l-35 -95q-18 -50 -75 -50h-345v540zM196 830h95l40 -130h-40z" />
<glyph unicode="&#xc9;" horiz-adv-x="590" d="M106 540q0 51 -14 75.5t-56 24.5h-20v20h426q85 0 85 -80v-75h-20q0 115 -125 115h-186v-260h270v-40h-270v-280h175q69 0 108 25t62 85l20 -5l-35 -95q-18 -50 -75 -50h-345v540zM316 830h95l-95 -130h-40z" />
<glyph unicode="&#xca;" horiz-adv-x="590" d="M106 540q0 51 -14 75.5t-56 24.5h-20v20h426q85 0 85 -80v-75h-20q0 115 -125 115h-186v-260h270v-40h-270v-280h175q69 0 108 25t62 85l20 -5l-35 -95q-18 -50 -75 -50h-345v540zM246 836h110l80 -115h-50l-85 80l-85 -80h-50z" />
<glyph unicode="&#xcb;" horiz-adv-x="590" d="M106 540q0 51 -14 75.5t-56 24.5h-20v20h426q85 0 85 -80v-75h-20q0 115 -125 115h-186v-260h270v-40h-270v-280h175q69 0 108 25t62 85l20 -5l-35 -95q-18 -50 -75 -50h-345v540zM192 743q-13 13 -13 32t13 32t32 13t32 -13t13 -32t-13 -32t-32 -13t-32 13zM362 743 q-13 13 -13 32t13 32t32 13t32 -13t13 -32t-13 -32t-32 -13t-32 13z" />
<glyph unicode="&#xcc;" horiz-adv-x="285" d="M123.5 9.5q-18.5 9.5 -26.5 34.5t-8 76v540h90v-540q0 -51 14 -75.5t56 -24.5h20v-20h-90q-37 0 -55.5 9.5zM30 830h95l40 -130h-40z" />
<glyph unicode="&#xcd;" horiz-adv-x="285" d="M123.5 9.5q-18.5 9.5 -26.5 34.5t-8 76v540h90v-540q0 -51 14 -75.5t56 -24.5h20v-20h-90q-37 0 -55.5 9.5zM149 830h95l-95 -130h-40z" />
<glyph unicode="&#xce;" horiz-adv-x="285" d="M123.5 9.5q-18.5 9.5 -26.5 34.5t-8 76v540h90v-540q0 -51 14 -75.5t56 -24.5h20v-20h-90q-37 0 -55.5 9.5zM79 810h110l80 -115h-50l-85 80l-85 -80h-50z" />
<glyph unicode="&#xcf;" horiz-adv-x="285" d="M20.5 728.5q-13.5 13.5 -13.5 36.5t13.5 36.5t36.5 13.5t36.5 -13.5t13.5 -36.5t-13.5 -36.5t-36.5 -13.5t-36.5 13.5zM174.5 728.5q-13.5 13.5 -13.5 36.5t13.5 36.5t36.5 13.5t36.5 -13.5t13.5 -36.5t-13.5 -36.5t-36.5 -13.5t-36.5 13.5zM123.5 9.5 q-18.5 9.5 -26.5 34.5t-8 76v540h90v-540q0 -51 14 -75.5t56 -24.5h20v-20h-90q-37 0 -55.5 9.5z" />
<glyph unicode="&#xd0;" horiz-adv-x="715" d="M106 310h-75v40h75v190q0 51 -14 75.5t-56 24.5h-20v20h262q194 0 293.5 -86t99.5 -240q0 -99 -42 -174.5t-124.5 -117.5t-200.5 -42h-198v310zM434.5 71.5q59.5 36.5 93.5 103t34 155.5q0 87 -33.5 154t-93.5 104t-136 37q-48 0 -100 -16v-259h87v-40h-87v-262 q56 -13 102 -13q74 0 133.5 36.5z" />
<glyph unicode="&#xd1;" horiz-adv-x="685" d="M150 525v-525h-40v540q0 48 -20.5 74t-69.5 26h-10v20h65q46 0 78 -15t57 -45l350 -435v495h40v-670h-20zM251.5 767.5q14.5 21.5 45.5 21.5q15 0 27.5 -5.5t27.5 -15.5q3 -2 13 -7.5t19 -8.5t18 -3q11 0 20.5 14t9.5 26h30q0 -52 -14.5 -73.5t-45.5 -21.5q-14 0 -26.5 5 t-27.5 15q-17 10 -27.5 15t-23.5 5q-11 0 -20.5 -14t-9.5 -26h-30q0 52 14.5 73.5z" />
<glyph unicode="&#xd2;" horiz-adv-x="712" d="M192.5 26q-70.5 46 -108.5 126t-38 178t38 178t108.5 126t163.5 46t163.5 -46t108.5 -126t38 -178t-38 -178t-108.5 -126t-163.5 -46t-163.5 46zM468.5 58q47.5 38 72.5 107.5t25 164.5t-25 164.5t-72.5 107.5t-112.5 38t-112.5 -38t-72.5 -107.5t-25 -164.5t25 -164.5 t72.5 -107.5t112.5 -38t112.5 38zM246 854h95l40 -130h-40z" />
<glyph unicode="&#xd3;" horiz-adv-x="712" d="M192.5 26q-70.5 46 -108.5 126t-38 178t38 178t108.5 126t163.5 46t163.5 -46t108.5 -126t38 -178t-38 -178t-108.5 -126t-163.5 -46t-163.5 46zM468.5 58q47.5 38 72.5 107.5t25 164.5t-25 164.5t-72.5 107.5t-112.5 38t-112.5 -38t-72.5 -107.5t-25 -164.5t25 -164.5 t72.5 -107.5t112.5 -38t112.5 38zM375 850h95l-95 -130h-40z" />
<glyph unicode="&#xd4;" horiz-adv-x="712" d="M192.5 26q-70.5 46 -108.5 126t-38 178t38 178t108.5 126t163.5 46t163.5 -46t108.5 -126t38 -178t-38 -178t-108.5 -126t-163.5 -46t-163.5 46zM468.5 58q47.5 38 72.5 107.5t25 164.5t-25 164.5t-72.5 107.5t-112.5 38t-112.5 -38t-72.5 -107.5t-25 -164.5t25 -164.5 t72.5 -107.5t112.5 -38t112.5 38zM296 835h110l80 -115h-50l-85 80l-85 -80h-50z" />
<glyph unicode="&#xd5;" horiz-adv-x="712" d="M192.5 26q-70.5 46 -108.5 126t-38 178t38 178t108.5 126t163.5 46t163.5 -46t108.5 -126t38 -178t-38 -178t-108.5 -126t-163.5 -46t-163.5 46zM468.5 58q47.5 38 72.5 107.5t25 164.5t-25 164.5t-72.5 107.5t-112.5 38t-112.5 -38t-72.5 -107.5t-25 -164.5t25 -164.5 t72.5 -107.5t112.5 -38t112.5 38zM256.5 811.5q14.5 21.5 45.5 21.5q15 0 27.5 -5.5t27.5 -15.5q3 -2 13 -7.5t19 -8.5t18 -3q11 0 20.5 14t9.5 26h30q0 -52 -14.5 -73.5t-45.5 -21.5q-14 0 -26.5 5t-27.5 15q-17 10 -27.5 15t-23.5 5q-11 0 -20.5 -14t-9.5 -26h-30 q0 52 14.5 73.5z" />
<glyph unicode="&#xd6;" horiz-adv-x="712" d="M192.5 26q-70.5 46 -108.5 126t-38 178t38 178t108.5 126t163.5 46t163.5 -46t108.5 -126t38 -178t-38 -178t-108.5 -126t-163.5 -46t-163.5 46zM468.5 58q47.5 38 72.5 107.5t25 164.5t-25 164.5t-72.5 107.5t-112.5 38t-112.5 -38t-72.5 -107.5t-25 -164.5t25 -164.5 t72.5 -107.5t112.5 -38t112.5 38zM255 748q-13 13 -13 32t13 32t32 13t32 -13t13 -32t-13 -32t-32 -13t-32 13zM425 748q-13 13 -13 32t13 32t32 13t32 -13t13 -32t-13 -32t-32 -13t-32 13z" />
<glyph unicode="&#xd7;" horiz-adv-x="469" d="M51 192l141 141l-141 142l42 42l142 -142l141 142l42 -43l-141 -141l141 -142l-42 -42l-142 142l-141 -142z" />
<glyph unicode="&#xd8;" horiz-adv-x="712" d="M163 48q-56 48 -86.5 121t-30.5 161q0 98 38 178t108.5 126t163.5 46q72 0 134 -30l17 30h73l-36 -65q58 -48 90 -122t32 -163q0 -98 -38 -178t-108.5 -126t-163.5 -46q-78 0 -140 32l-17 -32h-73zM465 604q-46 36 -109 36q-65 0 -112.5 -38t-72.5 -107.5t-25 -164.5 q0 -137 51 -219zM468.5 58q47.5 38 72.5 107.5t25 164.5q0 138 -55 224l-269 -495q50 -39 114 -39q65 0 112.5 38z" />
<glyph unicode="&#xd9;" horiz-adv-x="687" d="M202 22.5q-56 32.5 -79.5 96.5t-23.5 166v255q0 51 -14 75.5t-56 24.5h-20v20h90q37 0 55.5 -9.5t26.5 -34.5t8 -76v-285q0 -111 41 -168t136 -57q76 0 120.5 27t63.5 82t19 146v375h40v-375q0 -104 -22 -167.5t-77.5 -95.5t-155.5 -32q-96 0 -152 32.5zM269 810h95 l40 -130h-40z" />
<glyph unicode="&#xda;" horiz-adv-x="687" d="M202 22.5q-56 32.5 -79.5 96.5t-23.5 166v255q0 51 -14 75.5t-56 24.5h-20v20h90q37 0 55.5 -9.5t26.5 -34.5t8 -76v-285q0 -111 41 -168t136 -57q76 0 120.5 27t63.5 82t19 146v375h40v-375q0 -104 -22 -167.5t-77.5 -95.5t-155.5 -32q-96 0 -152 32.5zM369 810h95 l-95 -130h-40z" />
<glyph unicode="&#xdb;" horiz-adv-x="687" d="M202 22.5q-56 32.5 -79.5 96.5t-23.5 166v255q0 51 -14 75.5t-56 24.5h-20v20h90q37 0 55.5 -9.5t26.5 -34.5t8 -76v-285q0 -111 41 -168t136 -57q76 0 120.5 27t63.5 82t19 146v375h40v-375q0 -104 -22 -167.5t-77.5 -95.5t-155.5 -32q-96 0 -152 32.5zM319 786h110 l80 -115h-50l-85 80l-85 -80h-50z" />
<glyph unicode="&#xdc;" horiz-adv-x="687" d="M202 22.5q-56 32.5 -79.5 96.5t-23.5 166v255q0 51 -14 75.5t-56 24.5h-20v20h90q37 0 55.5 -9.5t26.5 -34.5t8 -76v-285q0 -111 41 -168t136 -57q76 0 120.5 27t63.5 82t19 146v375h40v-375q0 -104 -22 -167.5t-77.5 -95.5t-155.5 -32q-96 0 -152 32.5zM254 692 q-13 13 -13 32t13 32t32 13t32 -13t13 -32t-13 -32t-32 -13t-32 13zM424 692q-13 13 -13 32t13 32t32 13t32 -13t13 -32t-13 -32t-32 -13t-32 13z" />
<glyph unicode="&#xdd;" horiz-adv-x="628" d="M290 273l-170 257q-26 37 -44 58t-42.5 35.5t-58.5 16.5v20h90q50 0 84 -29.5t66 -80.5l145 -225l209 335h45l-234 -380v-280h-90v273zM355 800h95l-95 -130h-40z" />
<glyph unicode="&#xde;" horiz-adv-x="535" d="M109 600q0 38 -16 54t-54 16h-20v20h90q52 0 71 -19t19 -71v-50q152 0 231 -59.5t79 -175.5t-79 -175.5t-231 -59.5v-110h-90v630zM358 172q51 52 51 143t-51 143t-159 52v-390q108 0 159 52z" />
<glyph unicode="&#xdf;" horiz-adv-x="554" d="M309.5 0.5q-33.5 10.5 -52.5 29.5q-17 17 -21 35.5t-4 44.5h20q4 -31 35.5 -55.5t74.5 -24.5q37 0 58.5 19.5t21.5 50.5q0 35 -23.5 58.5t-71.5 52.5q-36 22 -57.5 39t-37 42t-15.5 58q0 39 15.5 61.5t46.5 49.5q26 22 39.5 41t13.5 48q0 39 -22.5 59.5t-67.5 20.5 q-51 0 -75.5 -29t-24.5 -101v-500h-90v500q0 97 52 133.5t143 36.5q82 0 126 -27t44 -73q0 -39 -15.5 -61.5t-46.5 -49.5q-26 -22 -39.5 -41t-13.5 -48q0 -35 23.5 -58.5t71.5 -52.5q36 -22 57.5 -39t37 -42t15.5 -58q0 -66 -39 -98t-106 -32q-39 0 -72.5 10.5z" />
<glyph unicode="&#xe0;" horiz-adv-x="481" d="M119 3.5q-33 13.5 -56.5 44.5t-23.5 82q0 76 70.5 108t184.5 32h30q0 98 -27 134t-78 36q-45 0 -72 -19t-38 -66h-45q0 34 4 53.5t21 36.5q18 18 59.5 26.5t90.5 8.5q81 0 128 -43.5t47 -166.5v-270h-50l-35 45h-5q-18 -23 -53 -39t-87 -16q-32 0 -65 13.5zM284 51 q22 16 40 44v135h-30q-74 0 -117 -27.5t-43 -72.5q0 -46 27.5 -70.5t67.5 -24.5q33 0 55 16zM124 655h95l40 -130h-40z" />
<glyph unicode="&#xe1;" horiz-adv-x="481" d="M119 3.5q-33 13.5 -56.5 44.5t-23.5 82q0 76 70.5 108t184.5 32h30q0 98 -27 134t-78 36q-45 0 -72 -19t-38 -66h-45q0 34 4 53.5t21 36.5q18 18 59.5 26.5t90.5 8.5q81 0 128 -43.5t47 -166.5v-270h-50l-35 45h-5q-18 -23 -53 -39t-87 -16q-32 0 -65 13.5zM284 51 q22 16 40 44v135h-30q-74 0 -117 -27.5t-43 -72.5q0 -46 27.5 -70.5t67.5 -24.5q33 0 55 16zM241 655h95l-95 -130h-40z" />
<glyph unicode="&#xe2;" horiz-adv-x="481" d="M119 3.5q-33 13.5 -56.5 44.5t-23.5 82q0 76 70.5 108t184.5 32h30q0 98 -27 134t-78 36q-45 0 -72 -19t-38 -66h-45q0 34 4 53.5t21 36.5q18 18 59.5 26.5t90.5 8.5q81 0 128 -43.5t47 -166.5v-270h-50l-35 45h-5q-18 -23 -53 -39t-87 -16q-32 0 -65 13.5zM284 51 q22 16 40 44v135h-30q-74 0 -117 -27.5t-43 -72.5q0 -46 27.5 -70.5t67.5 -24.5q33 0 55 16zM185 645h110l80 -115h-50l-85 80l-85 -80h-50z" />
<glyph unicode="&#xe3;" horiz-adv-x="481" d="M119 3.5q-33 13.5 -56.5 44.5t-23.5 82q0 76 70.5 108t184.5 32h30q0 98 -27 134t-78 36q-45 0 -72 -19t-38 -66h-45q0 34 4 53.5t21 36.5q18 18 59.5 26.5t90.5 8.5q81 0 128 -43.5t47 -166.5v-270h-50l-35 45h-5q-18 -23 -53 -39t-87 -16q-32 0 -65 13.5zM284 51 q22 16 40 44v135h-30q-74 0 -117 -27.5t-43 -72.5q0 -46 27.5 -70.5t67.5 -24.5q33 0 55 16zM137.5 608.5q14.5 21.5 45.5 21.5q15 0 27.5 -5.5t27.5 -15.5q3 -2 13 -7.5t19 -8.5t18 -3q11 0 20.5 14t9.5 26h30q0 -52 -14.5 -73.5t-45.5 -21.5q-14 0 -26.5 5t-27.5 15 q-17 10 -27.5 15t-23.5 5q-11 0 -20.5 -14t-9.5 -26h-30q0 52 14.5 73.5z" />
<glyph unicode="&#xe4;" horiz-adv-x="481" d="M119 3.5q-33 13.5 -56.5 44.5t-23.5 82q0 76 70.5 108t184.5 32h30q0 98 -27 134t-78 36q-45 0 -72 -19t-38 -66h-45q0 34 4 53.5t21 36.5q18 18 59.5 26.5t90.5 8.5q81 0 128 -43.5t47 -166.5v-270h-50l-35 45h-5q-18 -23 -53 -39t-87 -16q-32 0 -65 13.5zM284 51 q22 16 40 44v135h-30q-74 0 -117 -27.5t-43 -72.5q0 -46 27.5 -70.5t67.5 -24.5q33 0 55 16zM122 548q-13 13 -13 32t13 32t32 13t32 -13t13 -32t-13 -32t-32 -13t-32 13zM292 548q-13 13 -13 32t13 32t32 13t32 -13t13 -32t-13 -32t-32 -13t-32 13z" />
<glyph unicode="&#xe5;" horiz-adv-x="481" d="M119 3.5q-33 13.5 -56.5 44.5t-23.5 82q0 76 70.5 108t184.5 32h30q0 98 -27 134t-78 36q-45 0 -72 -19t-38 -66h-45q0 34 4 53.5t21 36.5q18 18 59.5 26.5t90.5 8.5q81 0 128 -43.5t47 -166.5v-270h-50l-35 45h-5q-18 -23 -53 -39t-87 -16q-32 0 -65 13.5zM284 51 q22 16 40 44v135h-30q-74 0 -117 -27.5t-43 -72.5q0 -46 27.5 -70.5t67.5 -24.5q33 0 55 16zM174.5 555.5q-25.5 25.5 -25.5 59.5t25.5 59.5t59.5 25.5t59.5 -25.5t25.5 -59.5t-25.5 -59.5t-59.5 -25.5t-59.5 25.5zM266 578.5q13 13.5 13 36.5t-13 36.5t-32 13.5t-32 -13.5 t-13 -36.5t13 -36.5t32 -13.5t32 13.5z" />
<glyph unicode="&#xe6;" horiz-adv-x="759" d="M87.5 22q-48.5 32 -48.5 103q0 72 70.5 103.5t184.5 31.5h30q0 104 -27 142t-78 38q-45 0 -72 -19t-38 -66h-45q0 34 4 53.5t21 36.5q18 18 59.5 26.5t90.5 8.5q51 0 87.5 -25t52.5 -65q16 40 52 65t83 25q101 0 150.5 -56.5t49.5 -163.5l-2 -40h-298q0 -84 36 -137 t99 -53q47 0 79.5 20t60.5 60l20 -15q-33 -55 -77 -80t-103 -25q-117 0 -170 85q-23 -43 -60.5 -64t-99.5 -21q-63 0 -111.5 32zM624 260q0 85 -26.5 130t-78.5 45q-30 0 -54 -23t-37.5 -63t-13.5 -89h210zM284 51q22 16 40 44v125h-30q-74 0 -117 -26t-43 -69t27 -66.5 t68 -23.5q33 0 55 16z" />
<glyph unicode="&#xe7;" horiz-adv-x="483" d="M377.5 18q-41.5 -25 -96.5 -28v-40q90 0 90 -73q0 -34 -22.5 -53.5t-57.5 -19.5h-60v41h50q40 0 40 32q0 33 -40 33h-45v81q-93 10 -142 77.5t-49 166.5q0 69 24.5 124.5t74 88t121.5 32.5q110 0 145 -35q17 -17 21 -41.5t4 -88.5h-20q-4 62 -39 93.5t-91 31.5 q-72 0 -108.5 -57t-36.5 -148t36.5 -148t108.5 -57q51 0 84 19.5t61 60.5l20 -15q-31 -52 -72.5 -77z" />
<glyph unicode="&#xe8;" horiz-adv-x="488" d="M140 22.5q-47 32.5 -71 88t-24 124.5q0 68 24 124t69.5 88.5t106.5 32.5q101 0 150.5 -56.5t49.5 -163.5l-2 -40h-303q0 -84 36 -137t99 -53q47 0 79.5 20t60.5 60l20 -15q-33 -55 -77 -80t-103 -25q-68 0 -115 32.5zM350 260q0 88 -26 134t-79 46q-30 0 -54 -23.5 t-37.5 -64.5t-13.5 -92h210zM135 655h95l40 -130h-40z" />
<glyph unicode="&#xe9;" horiz-adv-x="488" d="M140 22.5q-47 32.5 -71 88t-24 124.5q0 68 24 124t69.5 88.5t106.5 32.5q101 0 150.5 -56.5t49.5 -163.5l-2 -40h-303q0 -84 36 -137t99 -53q47 0 79.5 20t60.5 60l20 -15q-33 -55 -77 -80t-103 -25q-68 0 -115 32.5zM350 260q0 88 -26 134t-79 46q-30 0 -54 -23.5 t-37.5 -64.5t-13.5 -92h210zM259 654h95l-95 -130h-40z" />
<glyph unicode="&#xea;" horiz-adv-x="488" d="M140 22.5q-47 32.5 -71 88t-24 124.5q0 68 24 124t69.5 88.5t106.5 32.5q101 0 150.5 -56.5t49.5 -163.5l-2 -40h-303q0 -84 36 -137t99 -53q47 0 79.5 20t60.5 60l20 -15q-33 -55 -77 -80t-103 -25q-68 0 -115 32.5zM350 260q0 88 -26 134t-79 46q-30 0 -54 -23.5 t-37.5 -64.5t-13.5 -92h210zM195 645h110l80 -115h-50l-85 80l-85 -80h-50z" />
<glyph unicode="&#xeb;" horiz-adv-x="488" d="M140 22.5q-47 32.5 -71 88t-24 124.5q0 68 24 124t69.5 88.5t106.5 32.5q101 0 150.5 -56.5t49.5 -163.5l-2 -40h-303q0 -84 36 -137t99 -53q47 0 79.5 20t60.5 60l20 -15q-33 -55 -77 -80t-103 -25q-68 0 -115 32.5zM350 260q0 88 -26 134t-79 46q-30 0 -54 -23.5 t-37.5 -64.5t-13.5 -92h210zM123 558q-13 13 -13 32t13 32t32 13t32 -13t13 -32t-13 -32t-32 -13t-32 13zM293 558q-13 13 -13 32t13 32t32 13t32 -13t13 -32t-13 -32t-32 -13t-32 13z" />
<glyph unicode="&#xec;" horiz-adv-x="246" d="M87 350q0 51 -14 75.5t-56 24.5h-20v20h90q37 0 55.5 -9.5t26.5 -34.5t8 -76v-350h-90v350zM22 655h95l40 -130h-40z" />
<glyph unicode="&#xed;" horiz-adv-x="246" d="M87 350q0 51 -14 75.5t-56 24.5h-20v20h90q37 0 55.5 -9.5t26.5 -34.5t8 -76v-350h-90v350zM133 655h95l-95 -130h-40z" />
<glyph unicode="&#xee;" horiz-adv-x="246" d="M87 350q0 51 -14 75.5t-56 24.5h-20v20h90q37 0 55.5 -9.5t26.5 -34.5t8 -76v-350h-90v350zM69 646h110l80 -115h-50l-85 80l-85 -80h-50z" />
<glyph unicode="&#xef;" horiz-adv-x="246" d="M12.5 559q-16.5 19 -16.5 45q0 21 12.5 33t33.5 12q23 0 39.5 -19t16.5 -45q0 -21 -12.5 -33t-33.5 -12q-23 0 -39.5 19zM166.5 559q-16.5 19 -16.5 45q0 21 12.5 33t33.5 12q23 0 39.5 -19t16.5 -45q0 -21 -12.5 -33t-33.5 -12q-23 0 -39.5 19zM87 350q0 51 -14 75.5 t-56 24.5h-20v20h90q37 0 55.5 -9.5t26.5 -34.5t8 -76v-350h-90v350z" />
<glyph unicode="&#xf0;" horiz-adv-x="537" d="M146 22.5q-50 32.5 -76 88.5t-26 124t26 124t76 88.5t118 32.5q42 0 76.5 -21t53.5 -59q-12 55 -28 93t-42 67l-40 -40l-30 30l40 40q-24 24 -48.5 34.5t-61.5 10.5q-13 0 -25.5 -2t-18.5 -4l-8 19q19 13 40.5 17.5t51.5 4.5q59 0 115 -40l35 40l30 -30l-35 -35 q55 -55 85 -139.5t30 -195.5q0 -129 -58 -204.5t-162 -75.5q-68 0 -118 32.5zM329.5 57q28.5 27 44 74t15.5 104t-15.5 104t-44 74t-65.5 27t-65.5 -27t-44 -74t-15.5 -104t15.5 -104t44 -74t65.5 -27t65.5 27z" />
<glyph unicode="&#xf1;" horiz-adv-x="544" d="M87 350q0 51 -14 75.5t-56 24.5h-20v20h90q37 0 56.5 -10t28.5 -30q25 20 59.5 35t75.5 15q75 0 122.5 -40t47.5 -140v-300h-90v300q0 70 -31.5 102.5t-78.5 32.5q-53 0 -100 -53v-382h-90v350zM183.5 617.5q14.5 21.5 45.5 21.5q15 0 27.5 -5.5t27.5 -15.5q3 -2 13 -7.5 t19 -8.5t18 -3q11 0 20.5 14t9.5 26h30q0 -52 -14.5 -73.5t-45.5 -21.5q-14 0 -26.5 5t-27.5 15q-17 10 -27.5 15t-23.5 5q-11 0 -20.5 -14t-9.5 -26h-30q0 52 14.5 73.5z" />
<glyph unicode="&#xf2;" horiz-adv-x="530" d="M147 22.5q-50 32.5 -76 88.5t-26 124t26 124t76 88.5t118 32.5t118 -32.5t76 -88.5t26 -124t-26 -124t-76 -88.5t-118 -32.5t-118 32.5zM330.5 57q28.5 27 44 74t15.5 104t-15.5 104t-44 74t-65.5 27t-65.5 -27t-44 -74t-15.5 -104t15.5 -104t44 -74t65.5 -27t65.5 27z M160 655h95l40 -130h-40z" />
<glyph unicode="&#xf3;" horiz-adv-x="530" d="M147 22.5q-50 32.5 -76 88.5t-26 124t26 124t76 88.5t118 32.5t118 -32.5t76 -88.5t26 -124t-26 -124t-76 -88.5t-118 -32.5t-118 32.5zM330.5 57q28.5 27 44 74t15.5 104t-15.5 104t-44 74t-65.5 27t-65.5 -27t-44 -74t-15.5 -104t15.5 -104t44 -74t65.5 -27t65.5 27z M273 654h95l-95 -130h-40z" />
<glyph unicode="&#xf4;" horiz-adv-x="530" d="M147 22.5q-50 32.5 -76 88.5t-26 124t26 124t76 88.5t118 32.5t118 -32.5t76 -88.5t26 -124t-26 -124t-76 -88.5t-118 -32.5t-118 32.5zM330.5 57q28.5 27 44 74t15.5 104t-15.5 104t-44 74t-65.5 27t-65.5 -27t-44 -74t-15.5 -104t15.5 -104t44 -74t65.5 -27t65.5 27z M211 639h110l80 -115h-50l-85 80l-85 -80h-50z" />
<glyph unicode="&#xf5;" horiz-adv-x="530" d="M147 22.5q-50 32.5 -76 88.5t-26 124t26 124t76 88.5t118 32.5t118 -32.5t76 -88.5t26 -124t-26 -124t-76 -88.5t-118 -32.5t-118 32.5zM330.5 57q28.5 27 44 74t15.5 104t-15.5 104t-44 74t-65.5 27t-65.5 -27t-44 -74t-15.5 -104t15.5 -104t44 -74t65.5 -27t65.5 27z M167.5 608.5q14.5 21.5 45.5 21.5q15 0 27.5 -5.5t27.5 -15.5q3 -2 13 -7.5t19 -8.5t18 -3q11 0 20.5 14t9.5 26h30q0 -52 -14.5 -73.5t-45.5 -21.5q-14 0 -26.5 5t-27.5 15q-17 10 -27.5 15t-23.5 5q-11 0 -20.5 -14t-9.5 -26h-30q0 52 14.5 73.5z" />
<glyph unicode="&#xf6;" horiz-adv-x="530" d="M147 22.5q-50 32.5 -76 88.5t-26 124t26 124t76 88.5t118 32.5t118 -32.5t76 -88.5t26 -124t-26 -124t-76 -88.5t-118 -32.5t-118 32.5zM330.5 57q28.5 27 44 74t15.5 104t-15.5 104t-44 74t-65.5 27t-65.5 -27t-44 -74t-15.5 -104t15.5 -104t44 -74t65.5 -27t65.5 27z M148 548q-13 13 -13 32t13 32t32 13t32 -13t13 -32t-13 -32t-32 -13t-32 13zM318 548q-13 13 -13 32t13 32t32 13t32 -13t13 -32t-13 -32t-32 -13t-32 13z" />
<glyph unicode="&#xf7;" horiz-adv-x="564" d="M250 438q-13 13 -13 32t13 32t32 13t32 -13t13 -32t-13 -32t-32 -13t-32 13zM62 360h440v-60h-440v60zM250 158q-13 13 -13 32t13 32t32 13t32 -13t13 -32t-13 -32t-32 -13t-32 13z" />
<glyph unicode="&#xf8;" horiz-adv-x="530" d="M151 20l-13 -20h-73l40 58q-60 69 -60 177q0 68 26 124t76 88.5t118 32.5q64 0 113 -30l14 20h73l-41 -59q29 -33 45 -78.5t16 -97.5q0 -68 -26 -124t-76 -88.5t-118 -32.5q-63 0 -114 30zM343 399q-33 41 -78 41q-37 0 -65.5 -27t-44 -74t-15.5 -104q0 -59 16 -104z M330.5 57q28.5 27 44 74t15.5 104q0 59 -16 104l-187 -268q32 -41 78 -41q37 0 65.5 27z" />
<glyph unicode="&#xf9;" horiz-adv-x="535" d="M120.5 30q-47.5 40 -47.5 140v180q0 51 -14 75.5t-56 24.5h-10v20h80q37 0 55.5 -9.5t26.5 -34.5t8 -76v-180q0 -70 31.5 -102.5t78.5 -32.5q53 0 100 53v382h90v-470h-50l-35 40h-5q-21 -21 -54.5 -35.5t-75.5 -14.5q-75 0 -122.5 40zM159 630h95l40 -130h-40z" />
<glyph unicode="&#xfa;" horiz-adv-x="535" d="M120.5 30q-47.5 40 -47.5 140v180q0 51 -14 75.5t-56 24.5h-10v20h80q37 0 55.5 -9.5t26.5 -34.5t8 -76v-180q0 -70 31.5 -102.5t78.5 -32.5q53 0 100 53v382h90v-470h-50l-35 40h-5q-21 -21 -54.5 -35.5t-75.5 -14.5q-75 0 -122.5 40zM280 630h95l-95 -130h-40z" />
<glyph unicode="&#xfb;" horiz-adv-x="535" d="M120.5 30q-47.5 40 -47.5 140v180q0 51 -14 75.5t-56 24.5h-10v20h80q37 0 55.5 -9.5t26.5 -34.5t8 -76v-180q0 -70 31.5 -102.5t78.5 -32.5q53 0 100 53v382h90v-470h-50l-35 40h-5q-21 -21 -54.5 -35.5t-75.5 -14.5q-75 0 -122.5 40zM203 645h110l80 -115h-50l-85 80 l-85 -80h-50z" />
<glyph unicode="&#xfc;" horiz-adv-x="535" d="M120.5 30q-47.5 40 -47.5 140v180q0 51 -14 75.5t-56 24.5h-10v20h80q37 0 55.5 -9.5t26.5 -34.5t8 -76v-180q0 -70 31.5 -102.5t78.5 -32.5q53 0 100 53v382h90v-470h-50l-35 40h-5q-21 -21 -54.5 -35.5t-75.5 -14.5q-75 0 -122.5 40zM141 533q-13 13 -13 32t13 32 t32 13t32 -13t13 -32t-13 -32t-32 -13t-32 13zM311 533q-13 13 -13 32t13 32t32 13t32 -13t13 -32t-13 -32t-32 -13t-32 13z" />
<glyph unicode="&#xfd;" horiz-adv-x="514" d="M105 -170q49 0 80.5 22.5t54.5 82.5l20 55l-160 390q-28 72 -110 80v20h85q87 0 120 -80l114 -277l126 347h50l-195 -535q-29 -79 -64 -107t-91 -28h-30v30zM299 630h95l-95 -130h-40z" />
<glyph unicode="&#xfe;" horiz-adv-x="523" d="M72 540q0 51 -14 75.5t-56 24.5h-15v20h85q37 0 55.5 -9.5t26.5 -34.5t8 -76v-115q18 23 51 39t84 16q86 0 133 -69.5t47 -175.5q0 -107 -48.5 -176t-141.5 -69q-38 0 -67 8t-58 22v-210h-90v730zM351.5 86q30.5 56 30.5 149q0 92 -29 148.5t-86 56.5q-67 0 -105 -60 v-320q30 -14 52 -22t43 -8q64 0 94.5 56z" />
<glyph unicode="&#xff;" horiz-adv-x="514" d="M105 -170q49 0 80.5 22.5t54.5 82.5l20 55l-160 390q-28 72 -110 80v20h85q87 0 120 -80l114 -277l126 347h50l-195 -535q-29 -79 -64 -107t-91 -28h-30v30zM173 533q-13 13 -13 32t13 32t32 13t32 -13t13 -32t-13 -32t-32 -13t-32 13zM343 533q-13 13 -13 32t13 32 t32 13t32 -13t13 -32t-13 -32t-32 -13t-32 13z" />
<glyph unicode="&#x11e;" horiz-adv-x="720" d="M208.5 28q-77.5 48 -121 130.5t-43.5 181.5q0 95 38 172.5t108.5 122.5t163.5 45q86 0 148.5 -22.5t91.5 -57.5q16 -20 20.5 -53t4.5 -82h-20q-19 88 -72 131.5t-143 43.5q-81 0 -135 -42.5t-79.5 -110.5t-25.5 -147q0 -169 66 -244.5t174 -75.5q51 0 87 9t68 26v174 q0 34 11 59t47.5 41.5t106.5 16.5v-20q-45 0 -60 -23t-15 -72v-188q-54 -33 -113 -48t-132 -15q-98 0 -175.5 48zM235 820l20 15q36 -45 110 -45t110 45l20 -15q-40 -90 -130 -90t-130 90z" />
<glyph unicode="&#x11f;" horiz-adv-x="492" d="M85.5 -163q-59.5 37 -59.5 118q0 46 31 80t79 50q-40 22 -40 60q0 20 9 31t26 24q-32 16 -53.5 50t-21.5 80q0 150 190 150h185v-25l-65 -10q30 -19 50 -49t20 -66q0 -150 -190 -150q-105 0 -105 -35t105 -35q97 0 158.5 -38.5t61.5 -116.5q0 -81 -59.5 -118t-160.5 -37 t-160.5 37zM318.5 242.5q27.5 27.5 27.5 87.5q0 57 -27.5 86t-72.5 29t-72.5 -27.5t-27.5 -87.5t27.5 -87.5t72.5 -27.5t72.5 27.5zM341 -131.5q35 28.5 35 86.5q0 100 -120 115l-55 5q-41 -16 -63 -45t-22 -75q0 -58 35 -86.5t95 -28.5t95 28.5zM116 620l20 15 q36 -45 110 -45t110 45l20 -15q-40 -90 -130 -90t-130 90z" />
<glyph unicode="&#x130;" horiz-adv-x="285" d="M97.5 729q-16.5 19 -16.5 45q0 21 12.5 33t33.5 12q23 0 39.5 -19t16.5 -45q0 -21 -12.5 -33t-33.5 -12q-23 0 -39.5 19zM123.5 9.5q-18.5 9.5 -26.5 34.5t-8 76v540h90v-540q0 -51 14 -75.5t56 -24.5h20v-20h-90q-37 0 -55.5 9.5z" />
<glyph unicode="&#x131;" horiz-adv-x="246" d="M87 350q0 51 -14 75.5t-56 24.5h-20v20h90q37 0 55.5 -9.5t26.5 -34.5t8 -76v-350h-90v350z" />
<glyph unicode="&#x152;" horiz-adv-x="945" d="M192.5 26q-70.5 46 -108.5 126t-38 178t38 178t108.5 126t163.5 46q63 0 110 -20h331q85 0 85 -80v-75h-20q0 115 -125 115h-186v-260h270v-40h-270v-280h175q69 0 108 25t62 85l20 -5l-35 -95q-18 -50 -75 -50h-340q-47 -20 -110 -20q-93 0 -163.5 46zM461 52v558 q-45 30 -105 30q-65 0 -112.5 -38t-72.5 -107.5t-25 -164.5t25 -164.5t72.5 -107.5t112.5 -38q61 0 105 32z" />
<glyph unicode="&#x153;" horiz-adv-x="795" d="M147 22.5q-50 32.5 -76 88.5t-26 124t26 124t76 88.5t118 32.5q97 0 151 -59q51 59 134 59q101 0 150.5 -56.5t49.5 -163.5l-2 -40h-298q0 -84 36 -137t99 -53q47 0 79.5 20t60.5 60l20 -15q-33 -55 -77 -80t-103 -25q-90 0 -150 60q-60 -60 -150 -60q-68 0 -118 32.5z M329 54q27 24 46 71q-20 45 -20 110t20 110q-16 43 -44.5 69t-65.5 26t-65.5 -27t-44 -74t-15.5 -104t15.5 -104t44 -74t65.5 -27t64 24zM660 260q0 85 -26.5 130t-78.5 45q-30 0 -54 -23t-37.5 -63t-13.5 -89h210z" />
<glyph unicode="&#x15e;" horiz-adv-x="533" d="M434 33.5q-56 -50.5 -152 -50.5v-23q90 0 90 -73q0 -34 -22.5 -53.5t-57.5 -19.5h-60v41h50q40 0 40 32q0 33 -40 33h-45v66q-75 8 -129 40.5t-54 78.5v107h18q17 -100 66 -144.5t135 -44.5q54 0 92.5 27t38.5 75q0 42 -26 73t-84 65l-123 73q-64 38 -90.5 77t-26.5 95 q0 77 53.5 123.5t140.5 46.5q51 0 101 -14.5t82.5 -42t32.5 -63.5v-107h-18q-17 100 -64.5 143.5t-133.5 43.5q-46 0 -81 -28t-35 -73q0 -41 25.5 -68t85.5 -63l123 -73q68 -41 96 -76t28 -89q0 -84 -56 -134.5z" />
<glyph unicode="&#x15f;" horiz-adv-x="446" d="M357.5 26q-46.5 -34 -120.5 -36v-20q90 0 90 -73q0 -34 -22.5 -53.5t-57.5 -19.5h-60v41h50q40 0 40 32q0 33 -40 33h-45v61q-85 6 -118 39q-17 17 -21 38.5t-4 66.5h20q9 -50 43.5 -77.5t96.5 -27.5q55 0 82.5 19t27.5 51q0 29 -21.5 50t-68.5 40l-60 25q-60 24 -90 56 t-30 79q0 61 46 95.5t119 34.5q110 0 150 -40q17 -17 21 -38t4 -67h-20q-8 50 -42 77.5t-93 27.5q-47 0 -73.5 -19.5t-26.5 -50.5q0 -52 80 -85l60 -25q68 -28 99 -59.5t31 -80.5q0 -60 -46.5 -94z" />
<glyph unicode="&#x160;" horiz-adv-x="533" d="M174 -2q-53 15 -86.5 43t-33.5 64v107h18q17 -100 66 -144.5t135 -44.5q54 0 92.5 27t38.5 75q0 42 -26 73t-84 65l-123 73q-64 38 -90.5 77t-26.5 95q0 77 53.5 123.5t140.5 46.5q51 0 101 -14.5t82.5 -42t32.5 -63.5v-107h-18q-17 100 -64.5 143.5t-133.5 43.5 q-46 0 -81 -28t-35 -73q0 -41 25.5 -68t85.5 -63l123 -73q68 -41 96 -76t28 -89q0 -84 -56 -134.5t-152 -50.5q-55 0 -108 15zM119 835h50l85 -80l85 80h50l-80 -115h-110z" />
<glyph unicode="&#x161;" horiz-adv-x="446" d="M74 30q-17 17 -21 38.5t-4 66.5h20q9 -50 43.5 -77.5t96.5 -27.5q55 0 82.5 19t27.5 51q0 29 -21.5 50t-68.5 40l-60 25q-60 24 -90 56t-30 79q0 61 46 95.5t119 34.5q110 0 150 -40q17 -17 21 -38t4 -67h-20q-8 50 -42 77.5t-93 27.5q-47 0 -73.5 -19.5t-26.5 -50.5 q0 -52 80 -85l60 -25q68 -28 99 -59.5t31 -80.5q0 -61 -49 -95.5t-126 -34.5q-115 0 -155 40zM79 635h50l85 -80l85 80h50l-80 -115h-110z" />
<glyph unicode="&#x178;" horiz-adv-x="628" d="M290 273l-170 257q-26 37 -44 58t-42.5 35.5t-58.5 16.5v20h90q50 0 84 -29.5t66 -80.5l145 -225l209 335h45l-234 -380v-280h-90v273zM228.5 703.5q-13.5 13.5 -13.5 36.5t13.5 36.5t36.5 13.5t36.5 -13.5t13.5 -36.5t-13.5 -36.5t-36.5 -13.5t-36.5 13.5zM398.5 703.5 q-13.5 13.5 -13.5 36.5t13.5 36.5t36.5 13.5t36.5 -13.5t13.5 -36.5t-13.5 -36.5t-36.5 -13.5t-36.5 13.5z" />
<glyph unicode="&#x17d;" horiz-adv-x="591" d="M24 20l415 600h-240q-125 0 -125 -115h-20v75q0 80 85 80h435l-425 -620h410v-40h-535v20zM173 825h50l85 -80l85 80h50l-80 -115h-110z" />
<glyph unicode="&#x17e;" horiz-adv-x="466" d="M44 19l260 411h-115q-62 0 -93.5 -23.5t-31.5 -66.5h-20v50q0 80 85 80h305l-270 -430h270v-40h-390v19zM108 635h50l85 -80l85 80h50l-80 -115h-110z" />
<glyph unicode="&#x192;" horiz-adv-x="237" />
<glyph unicode="&#x2c6;" horiz-adv-x="310" d="M100 775h110l80 -115h-50l-85 80l-85 -80h-50z" />
<glyph unicode="&#x2c7;" horiz-adv-x="270" d="M0 635h50l85 -80l85 80h50l-80 -115h-110z" />
<glyph unicode="&#x2d8;" horiz-adv-x="260" d="M0 601l20 15q20 -20 45 -30t65 -10t65 10t45 30l20 -15q-44 -80 -130 -80t-130 80z" />
<glyph unicode="&#x2da;" horiz-adv-x="170" d="M25.5 555.5q-25.5 25.5 -25.5 59.5t25.5 59.5t59.5 25.5t59.5 -25.5t25.5 -59.5t-25.5 -59.5t-59.5 -25.5t-59.5 25.5zM117 578.5q13 13.5 13 36.5t-13 36.5t-32 13.5t-32 -13.5t-13 -36.5t13 -36.5t32 -13.5t32 13.5z" />
<glyph unicode="&#x2dc;" horiz-adv-x="265" d="M34.5 753.5q14.5 21.5 45.5 21.5q15 0 27.5 -5.5t27.5 -15.5q3 -2 13 -7.5t19 -8.5t18 -3q11 0 20.5 14t9.5 26h30q0 -52 -14.5 -73.5t-45.5 -21.5q-14 0 -26.5 5t-27.5 15q-17 10 -27.5 15t-23.5 5q-11 0 -20.5 -14t-9.5 -26h-30q0 52 14.5 73.5z" />
<glyph unicode="&#x401;" horiz-adv-x="590" d="M106 540q0 51 -14 75.5t-56 24.5h-20v20h426q85 0 85 -80v-75h-20q0 115 -125 115h-186v-260h270v-40h-270v-280h175q69 0 108 25t62 85l20 -5l-35 -95q-18 -50 -75 -50h-345v540zM168.5 743.5q-13.5 13.5 -13.5 36.5t13.5 36.5t36.5 13.5t36.5 -13.5t13.5 -36.5 t-13.5 -36.5t-36.5 -13.5t-36.5 13.5zM338.5 743.5q-13.5 13.5 -13.5 36.5t13.5 36.5t36.5 13.5t36.5 -13.5t13.5 -36.5t-13.5 -36.5t-36.5 -13.5t-36.5 13.5z" />
<glyph unicode="&#x402;" horiz-adv-x="624" d="M404 -20q95 0 95 220q0 103 -38 144t-102 41q-36 0 -75.5 -12t-64.5 -28v-345h-90v620h-130v40h350v-40h-130v-230q25 16 72.5 28t97.5 12q93 0 146.5 -48t53.5 -182q0 -90 -16.5 -141.5t-56 -75t-112.5 -23.5v20z" />
<glyph unicode="&#x403;" horiz-adv-x="537" d="M106 540q0 51 -14 75.5t-56 24.5h-20v20h415q85 0 85 -80v-75h-20q0 115 -125 115h-175v-620h-90v540zM284 830h95l-95 -130h-40z" />
<glyph unicode="&#x404;" horiz-adv-x="665" d="M190.5 25q-70.5 45 -108.5 122.5t-38 172.5q0 98 41.5 181t113 131t155.5 48q80 0 140.5 -22.5t89.5 -57.5q17 -21 21 -55.5t4 -94.5h-20q-19 97 -70 143.5t-135 46.5q-102 0 -167 -69t-73 -221h331v-40h-331q3 -77 29 -143t79.5 -106.5t131.5 -40.5q73 0 127.5 35 t97.5 105l20 -15q-46 -90 -113.5 -127.5t-161.5 -37.5q-93 0 -163.5 45z" />
<glyph unicode="&#x405;" horiz-adv-x="533" d="M174 -2q-53 15 -86.5 43t-33.5 64v107h18q17 -100 66 -144.5t135 -44.5q54 0 92.5 27t38.5 75q0 42 -26 73t-84 65l-123 73q-64 38 -90.5 77t-26.5 95q0 77 53.5 123.5t140.5 46.5q51 0 101 -14.5t82.5 -42t32.5 -63.5v-107h-18q-17 100 -64.5 143.5t-133.5 43.5 q-46 0 -81 -28t-35 -73q0 -41 25.5 -68t85.5 -63l123 -73q68 -41 96 -76t28 -89q0 -84 -56 -134.5t-152 -50.5q-55 0 -108 15z" />
<glyph unicode="&#x406;" horiz-adv-x="285" d="M123.5 9.5q-18.5 9.5 -26.5 34.5t-8 76v540h90v-540q0 -51 14 -75.5t56 -24.5h20v-20h-90q-37 0 -55.5 9.5z" />
<glyph unicode="&#x407;" horiz-adv-x="285" d="M20.5 728.5q-13.5 13.5 -13.5 36.5t13.5 36.5t36.5 13.5t36.5 -13.5t13.5 -36.5t-13.5 -36.5t-36.5 -13.5t-36.5 13.5zM174.5 728.5q-13.5 13.5 -13.5 36.5t13.5 36.5t36.5 13.5t36.5 -13.5t13.5 -36.5t-13.5 -36.5t-36.5 -13.5t-36.5 13.5zM123.5 9.5 q-18.5 9.5 -26.5 34.5t-8 76v540h90v-540q0 -51 14 -75.5t56 -24.5h20v-20h-90q-37 0 -55.5 9.5z" />
<glyph unicode="&#x408;" horiz-adv-x="261" d="M-9 -117q48 0 71.5 51t23.5 144v582h90v-582q0 -78 -16.5 -124.5t-56.5 -68.5t-112 -22v20z" />
<glyph unicode="&#x409;" horiz-adv-x="964" d="M-6 -1v25q50 2 85.5 43t57.5 153.5t22 319.5q0 51 -14 75.5t-56 24.5h-10v20h485v-280h110q110 0 187.5 -41t77.5 -149t-77.5 -149t-187.5 -41h-200v620h-240v-80q0 -216 -25.5 -337.5t-67 -167t-97.5 -45.5q-23 0 -50 9zM792 74q47 39 47 116t-47 116t-133 39 q-53 0 -95 -15v-280q42 -15 95 -15q86 0 133 39z" />
<glyph unicode="&#x40a;" horiz-adv-x="974" d="M106 540q0 51 -14 75.5t-56 24.5h-20v20h90q37 0 55.5 -9.5t26.5 -34.5t8 -76v-180h290v300h90v-300h110q109 0 187 -39.5t78 -140.5t-78 -140.5t-187 -39.5h-200v320h-290v-320h-90v540zM803.5 72q47.5 37 47.5 108t-47.5 108t-132.5 37q-53 0 -95 -15v-260 q42 -15 95 -15q85 0 132.5 37z" />
<glyph unicode="&#x40b;" horiz-adv-x="633" d="M129 620h-130v40h350v-40h-130v-230q25 16 72.5 28t97.5 12q90 0 145 -40t55 -140v-250h-90v250q0 70 -39 102.5t-101 32.5q-36 0 -75.5 -12t-64.5 -28v-345h-90v620z" />
<glyph unicode="&#x40c;" horiz-adv-x="677" d="M523 15.5q-51 25.5 -117 94.5l-210 220v-330h-90v540q0 51 -14 75.5t-56 24.5h-20v20h90q37 0 55.5 -9.5t26.5 -34.5t8 -76v-195l210 210l20 21q28 29 47 45.5t45 27.5t58 11h50v-25q-42 0 -73 -14.5t-72 -55.5l-195 -195l230 -240q44 -45 89 -75.5t81 -35.5v-19 q-30 -10 -65 -10q-47 0 -98 25.5zM334 805h95l-95 -130h-40z" />
<glyph unicode="&#x40e;" horiz-adv-x="607" d="M132 20q52 0 93 17t57 58l10 25l-185 410q-15 36 -29 57t-39 36t-67 17v20h120q43 0 70.5 -29.5t49.5 -80.5l135 -300l180 410h60l-246 -565q-45 -105 -159 -105h-50v30zM217 790l20 15q36 -45 110 -45t110 45l20 -15q-40 -90 -130 -90t-130 90z" />
<glyph unicode="&#x40f;" horiz-adv-x="672" d="M306 0h-200v540q0 51 -14 75.5t-56 24.5h-20v20h90q37 0 55.5 -9.5t26.5 -34.5t8 -76v-500h300v620h90v-660h-200l-15 -175h-50z" />
<glyph unicode="&#x410;" horiz-adv-x="635" d="M527 21.5q-47 26.5 -75 103.5l-25 65h-280l-80 -190h-45l280 660h30l220 -535q25 -58 47 -79.5t63 -25.5v-20q-18 -5 -40 -5q-48 0 -95 26.5zM407 230l-120 290l-125 -290h245z" />
<glyph unicode="&#x411;" horiz-adv-x="608" d="M106 540q0 51 -14 75.5t-56 24.5h-20v20h421q85 0 85 -80v-75h-20q0 115 -125 115h-181v-240h110q110 0 187.5 -41t77.5 -149t-77.5 -149t-187.5 -41h-200v540zM423.5 74q47.5 39 47.5 116t-47.5 116t-132.5 39q-47 0 -95 -14v-282q48 -14 95 -14q85 0 132.5 39z" />
<glyph unicode="&#x412;" horiz-adv-x="622" d="M106 540q0 51 -14 75.5t-56 24.5h-20v20h260q109 0 189.5 -36t80.5 -139q0 -47 -32 -85t-98 -60q92 -15 128.5 -54.5t36.5 -105.5q0 -101 -79.5 -140.5t-195.5 -39.5h-200v540zM291 355q41 0 77.5 15.5t59.5 46t23 73.5q0 45 -27 75.5t-68.5 45t-84.5 14.5q-35 0 -75 -10 v-260h95zM431.5 71q49.5 36 49.5 104t-48.5 104t-141.5 36h-95v-266q48 -14 95 -14q91 0 140.5 36z" />
<glyph unicode="&#x413;" horiz-adv-x="537" d="M106 540q0 51 -14 75.5t-56 24.5h-20v20h415q85 0 85 -80v-75h-20q0 115 -125 115h-175v-620h-90v540z" />
<glyph unicode="&#x414;" horiz-adv-x="687" d="M3 5q0 15 10 25t25 10h40q46 100 65.5 223.5t19.5 276.5q0 51 -14 75.5t-56 24.5h-15v20h500v-620h55q15 0 25 -10t10 -25v-185h-45q-12 100 -41 140t-84 40h-325q-55 0 -84 -40t-41 -140h-45v185zM488 40v580h-260q0 -207 -18.5 -343t-61.5 -237h340z" />
<glyph unicode="&#x415;" horiz-adv-x="590" d="M106 540q0 51 -14 75.5t-56 24.5h-20v20h426q85 0 85 -80v-75h-20q0 115 -125 115h-186v-260h270v-40h-270v-280h175q69 0 108 25t62 85l20 -5l-35 -95q-18 -50 -75 -50h-345v540z" />
<glyph unicode="&#x416;" horiz-adv-x="949" d="M-9 0v19q34 4 79 35t81 76l190 240l-155 195q-31 40 -64 55t-71 15v25h50q47 0 83 -26.5t77 -78.5l170 -210v315h87v-315l170 210q38 49 75.5 77t84.5 28h50v-25q-38 0 -71 -15t-64 -55l-155 -195l190 -240q36 -45 81 -76t79 -35v-19q-30 -10 -65 -10q-45 0 -98.5 25.5 t-106.5 94.5l-170 220v-330h-87v330l-170 -220q-53 -69 -106.5 -94.5t-98.5 -25.5q-35 0 -65 10z" />
<glyph unicode="&#x417;" horiz-adv-x="570" d="M131.5 8.5q-58.5 28.5 -101.5 96.5l20 15q75 -100 205 -100q80 0 127.5 38.5t47.5 106.5q0 73 -48.5 111.5t-141.5 38.5h-75v40h75q71 0 120.5 38.5t49.5 106.5q0 67 -44.5 103.5t-105.5 36.5q-72 0 -121.5 -42.5t-68.5 -117.5h-20q0 55 4 82t21 48q25 31 80.5 50.5 t109.5 19.5q99 0 169.5 -39t70.5 -146q0 -51 -35 -92t-105 -63q89 -17 127 -60t38 -110q0 -104 -78 -147t-182 -43q-80 0 -138.5 28.5z" />
<glyph unicode="&#x418;" horiz-adv-x="692" d="M106 540q0 51 -14 75.5t-56 24.5h-20v20h90q37 0 55.5 -9.5t26.5 -34.5t8 -76v-450l320 570h90v-660h-90v570l-320 -570h-90v540z" />
<glyph unicode="&#x419;" horiz-adv-x="692" d="M106 540q0 51 -14 75.5t-56 24.5h-20v20h90q37 0 55.5 -9.5t26.5 -34.5t8 -76v-450l320 570h90v-660h-90v570l-320 -570h-90v540zM226 800l20 15q36 -45 110 -45t110 45l20 -15q-40 -90 -130 -90t-130 90z" />
<glyph unicode="&#x41a;" horiz-adv-x="677" d="M523 15.5q-51 25.5 -117 94.5l-210 220v-330h-90v540q0 51 -14 75.5t-56 24.5h-20v20h90q37 0 55.5 -9.5t26.5 -34.5t8 -76v-195l210 210l20 21q28 29 47 45.5t45 27.5t58 11h50v-25q-42 0 -73 -14.5t-72 -55.5l-195 -195l230 -240q44 -45 89 -75.5t81 -35.5v-19 q-30 -10 -65 -10q-47 0 -98 25.5z" />
<glyph unicode="&#x41b;" horiz-adv-x="660" d="M-6 -1v25q50 2 85.5 43t57.5 153.5t22 319.5q0 51 -14 75.5t-56 24.5h-10v20h495v-660h-90v620h-250v-80q0 -216 -25.5 -337.5t-67 -167t-97.5 -45.5q-23 0 -50 9z" />
<glyph unicode="&#x41c;" horiz-adv-x="855" d="M729 -23q-40 22 -56.5 68.5t-16.5 124.5v385l-250 -555h-20l-260 565v-565h-40v660h95l240 -520l235 520h90v-490q0 -93 23.5 -144t71.5 -51v-20q-72 0 -112 22z" />
<glyph unicode="&#x41d;" horiz-adv-x="693" d="M106 540q0 51 -14 75.5t-56 24.5h-20v20h90q37 0 55.5 -9.5t26.5 -34.5t8 -76v-180h300v300h90v-540q0 -51 14 -75.5t56 -24.5h20v-20h-90q-37 0 -55.5 9.5t-26.5 34.5t-8 76v200h-300v-320h-90v540z" />
<glyph unicode="&#x41e;" horiz-adv-x="712" d="M192.5 26q-70.5 46 -108.5 126t-38 178t38 178t108.5 126t163.5 46t163.5 -46t108.5 -126t38 -178t-38 -178t-108.5 -126t-163.5 -46t-163.5 46zM468.5 58q47.5 38 72.5 107.5t25 164.5t-25 164.5t-72.5 107.5t-112.5 38t-112.5 -38t-72.5 -107.5t-25 -164.5t25 -164.5 t72.5 -107.5t112.5 -38t112.5 38z" />
<glyph unicode="&#x41f;" horiz-adv-x="672" d="M106 540q0 51 -14 75.5t-56 24.5h-20v20h570v-660h-90v620h-300v-620h-90v540z" />
<glyph unicode="&#x420;" horiz-adv-x="552" d="M106 540q0 51 -14 75.5t-56 24.5h-20v20h260q96 0 173 -41t77 -159q0 -78 -40 -120t-89.5 -56t-90.5 -14h-110v-270h-90v540zM271 305q32 0 68 16.5t61.5 52.5t25.5 91t-25.5 91t-61.5 52.5t-68 16.5q-35 0 -75 -10v-310h75z" />
<glyph unicode="&#x421;" horiz-adv-x="665" d="M190.5 25q-70.5 45 -108.5 122.5t-38 172.5q0 98 41.5 181t113 131t155.5 48q80 0 140.5 -22.5t89.5 -57.5q17 -21 21 -55.5t4 -94.5h-20q-19 97 -70 143.5t-135 46.5q-108 0 -174 -76t-66 -244q0 -79 25.5 -147t79.5 -110.5t135 -42.5q73 0 127.5 35t97.5 105l20 -15 q-46 -90 -113.5 -127.5t-161.5 -37.5q-93 0 -163.5 45z" />
<glyph unicode="&#x422;" horiz-adv-x="583" d="M256 620h-90q-125 0 -125 -115h-20v75q0 80 85 80h465v-40h-225v-620h-90v620z" />
<glyph unicode="&#x423;" horiz-adv-x="607" d="M132 20q52 0 93 17t57 58l10 25l-185 410q-15 36 -29 57t-39 36t-67 17v20h120q43 0 70.5 -29.5t49.5 -80.5l135 -300l180 410h60l-246 -565q-45 -105 -159 -105h-50v30z" />
<glyph unicode="&#x424;" horiz-adv-x="780" d="M345 35q-154 0 -232 74.5t-78 205.5t78 205.5t232 74.5q0 42 -15.5 58.5t-54.5 16.5h-20v20h90q36 0 55 -8t27 -28.5t8 -58.5q154 0 232 -74.5t78 -205.5t-78 -205.5t-232 -74.5v-65h-90v65zM345 555q-112 0 -161 -65.5t-49 -174.5t49 -174.5t161 -65.5v480zM596 140.5 q49 65.5 49 174.5t-49 174.5t-161 65.5v-480q112 0 161 65.5z" />
<glyph unicode="&#x425;" horiz-adv-x="667" d="M291 325l-140 205q-24 35 -42 55.5t-47 36.5t-71 18v20h120q44 0 74 -28.5t66 -81.5l100 -150l200 260h50l-225 -295l160 -235q31 -46 66.5 -76.5t78.5 -33.5v-20h-105q-43 0 -76 30.5t-64 79.5l-120 180l-225 -290h-50z" />
<glyph unicode="&#x426;" horiz-adv-x="695" d="M590 -40q-29 40 -84 40h-400v540q0 51 -14 75.5t-56 24.5h-20v20h90q37 0 55.5 -9.5t26.5 -34.5t8 -76v-500h300v620h90v-620h55q15 0 25 -10t10 -25v-185h-45q-12 100 -41 140z" />
<glyph unicode="&#x427;" horiz-adv-x="640" d="M464 270q-23 -11 -60.5 -15.5t-74.5 -4.5q-76 0 -129 16t-84.5 62.5t-31.5 131.5v80q0 51 -14 75.5t-56 24.5h-10v20h90q37 0 55.5 -9.5t26.5 -34.5t8 -76v-90q0 -64 16.5 -99t48.5 -48t85 -13q34 0 70 5t60 15v350h90v-660h-90v270z" />
<glyph unicode="&#x428;" horiz-adv-x="932" d="M106 540q0 51 -14 75.5t-56 24.5h-20v20h90q37 0 55.5 -9.5t26.5 -34.5t8 -76v-500h235v620h90v-620h235v620h90v-660h-740v540z" />
<glyph unicode="&#x429;" horiz-adv-x="955" d="M850 -40q-29 40 -84 40h-660v540q0 51 -14 75.5t-56 24.5h-20v20h90q37 0 55.5 -9.5t26.5 -34.5t8 -76v-500h235v620h90v-620h235v620h90v-620h55q15 0 25 -10t10 -25v-185h-45q-12 100 -41 140z" />
<glyph unicode="&#x42a;" horiz-adv-x="704" d="M214 620h-30q-44 0 -70 -13.5t-39 -46t-16 -90.5h-30v155q0 15 10 25t25 10h240v-280h110q110 0 187.5 -41t77.5 -149t-77.5 -149t-187.5 -41h-200v620zM531.5 74q47.5 39 47.5 116t-47.5 116t-132.5 39q-47 0 -95 -14v-282q48 -14 95 -14q85 0 132.5 39z" />
<glyph unicode="&#x42b;" horiz-adv-x="832" d="M106 540q0 51 -14 75.5t-56 24.5h-20v20h90q37 0 55.5 -9.5t26.5 -34.5t8 -76v-160h110q99 0 174.5 -41.5t75.5 -148.5t-75.5 -148.5t-174.5 -41.5h-200v540zM670.5 9.5q-18.5 9.5 -26.5 34.5t-8 76v540h90v-540q0 -51 14 -75.5t56 -24.5h20v-20h-90q-37 0 -55.5 9.5z M410.5 74.5q45.5 39.5 45.5 115.5t-45.5 115.5t-119.5 39.5q-47 0 -95 -14v-282q48 -14 95 -14q74 0 119.5 39.5z" />
<glyph unicode="&#x42c;" horiz-adv-x="596" d="M106 540q0 51 -14 75.5t-56 24.5h-20v20h90q37 0 55.5 -9.5t26.5 -34.5t8 -76v-160h110q110 0 187.5 -41t77.5 -149t-77.5 -149t-187.5 -41h-200v540zM423.5 74q47.5 39 47.5 116t-47.5 116t-132.5 39q-47 0 -95 -14v-282q48 -14 95 -14q85 0 132.5 39z" />
<glyph unicode="&#x42d;" horiz-adv-x="665" d="M148.5 17.5q-67.5 37.5 -113.5 127.5l20 15q43 -70 97.5 -105t127.5 -35q78 0 131.5 40.5t79.5 106.5t29 143h-331v40h331q-8 152 -73 221t-167 69q-84 0 -135 -46.5t-70 -143.5h-20q0 60 4 94.5t21 55.5q29 35 89.5 57.5t140.5 22.5q84 0 155.5 -48t113 -131t41.5 -181 q0 -95 -38 -172.5t-108.5 -122.5t-163.5 -45q-94 0 -161.5 37.5z" />
<glyph unicode="&#x42e;" horiz-adv-x="873" d="M405 22.5q-63 42.5 -100 120t-39 177.5h-70v-320h-90v540q0 51 -14 75.5t-56 24.5h-20v20h90q37 0 55.5 -9.5t26.5 -34.5t8 -76v-180h71q6 96 43.5 168.5t98.5 112t137 39.5q79 0 143 -43.5t100.5 -123.5t36.5 -183t-36.5 -183t-100.5 -123.5t-143 -43.5q-78 0 -141 42.5 zM638 56.5q41 36.5 64.5 106.5t23.5 167t-23.5 167t-64.5 106.5t-92 36.5t-92 -36.5t-64.5 -106.5t-23.5 -167t23.5 -167t64.5 -106.5t92 -36.5t92 36.5z" />
<glyph unicode="&#x42f;" horiz-adv-x="608" d="M14 1v19q36 4 62 24t48 56l105 180q-61 15 -103 57t-42 123q0 118 77 159t173 41h250v-20h-10q-42 0 -56 -24.5t-14 -75.5v-540h-90v270h-97l-105 -190q-28 -51 -60 -70.5t-78 -19.5q-27 0 -60 11zM414 315v300q-40 10 -75 10q-32 0 -68 -16.5t-61.5 -52.5t-25.5 -91 t25.5 -91t61.5 -52.5t68 -16.5q35 0 75 10z" />
<glyph unicode="&#x430;" horiz-adv-x="481" d="M119 3.5q-33 13.5 -56.5 44.5t-23.5 82q0 76 70.5 108t184.5 32h30q0 98 -27 134t-78 36q-45 0 -72 -19t-38 -66h-45q0 34 4 53.5t21 36.5q18 18 59.5 26.5t90.5 8.5q81 0 128 -43.5t47 -166.5v-270h-50l-35 45h-5q-18 -23 -53 -39t-87 -16q-32 0 -65 13.5zM284 51 q22 16 40 44v135h-30q-74 0 -117 -27.5t-43 -72.5q0 -46 27.5 -70.5t67.5 -24.5q33 0 55 16z" />
<glyph unicode="&#x431;" horiz-adv-x="528" d="M117 49q-57 59 -57 181v40q0 122 14 189t45 97.5t86 43.5l150 35q38 9 55 18.5t20 26.5h20v-65q0 -37 -30 -45l-175 -40q-46 -12 -74 -34t-44.5 -68.5t-21.5 -127.5h5q19 74 61.5 107t118.5 33q52 0 95 -24.5t69 -75.5t26 -125q0 -112 -57.5 -168.5t-152.5 -56.5 q-96 0 -153 59zM353 72q32 42 32 143q0 98 -32.5 141.5t-82.5 43.5t-82.5 -43.5t-32.5 -141.5q0 -101 32 -143t83 -42t83 42z" />
<glyph unicode="&#x432;" horiz-adv-x="501" d="M82 350q0 51 -14 75.5t-56 24.5h-10v20h245q84 0 137 -28t53 -92q0 -43 -24 -68.5t-76 -36.5q58 -11 89 -40.5t31 -74.5q0 -71 -55.5 -100.5t-154.5 -29.5h-165v350zM227 265q54 0 84.5 22t30.5 63t-29 63t-76 22q-15 0 -34 -3t-31 -7v-160h55zM362 130q0 95 -135 95h-55 v-180q12 -4 31 -7t34 -3q125 0 125 95z" />
<glyph unicode="&#x433;" horiz-adv-x="435" d="M82 350q0 51 -14 75.5t-56 24.5h-10v20h330q75 0 75 -80v-60h-20q0 47 -29 73.5t-76 26.5h-110v-430h-90v350z" />
<glyph unicode="&#x434;" horiz-adv-x="570" d="M16 5q0 15 10 25t25 10h30q31 69 45.5 151.5t14.5 158.5q0 51 -14 75.5t-56 24.5v20h400v-430h40q15 0 25 -10t10 -25v-160h-40q-8 84 -32 119.5t-73 35.5h-240q-49 0 -73 -35.5t-32 -119.5h-40v160zM381 40v390h-175q0 -131 -13 -223.5t-42 -166.5h230z" />
<glyph unicode="&#x435;" horiz-adv-x="488" d="M140 22.5q-47 32.5 -71 88t-24 124.5q0 68 24 124t69.5 88.5t106.5 32.5q101 0 150.5 -56.5t49.5 -163.5l-2 -40h-303q0 -84 36 -137t99 -53q47 0 79.5 20t60.5 60l20 -15q-33 -55 -77 -80t-103 -25q-68 0 -115 32.5zM350 260q0 88 -26 134t-79 46q-30 0 -54 -23.5 t-37.5 -64.5t-13.5 -92h210z" />
<glyph unicode="&#x436;" horiz-adv-x="686" d="M8 0v19q34 5 61.5 24.5t53.5 56.5l105 145l-95 155q-14 22 -39 33.5t-56 11.5v25h25q90 0 130 -65l105 -175v240h90v-240l105 175q40 65 130 65h25v-25q-31 0 -56 -11.5t-39 -33.5l-95 -155l105 -145q26 -37 53.5 -56.5t61.5 -24.5v-19q-22 -10 -50 -10q-78 0 -135 80 l-105 145v-215h-90v215l-105 -145q-57 -80 -135 -80q-28 0 -50 10z" />
<glyph unicode="&#x437;" horiz-adv-x="455" d="M106.5 11q-41.5 21 -70.5 59l20 15q25 -25 55.5 -40t79.5 -15q125 0 125 95t-140 95h-45v40h45q61 0 93 22.5t32 67.5q0 43 -28 66.5t-72 23.5q-55 0 -91 -28.5t-39 -76.5h-20q0 49 4 71t21 39q35 35 140 35q77 0 128.5 -30.5t51.5 -99.5q0 -43 -26.5 -70.5t-73.5 -39.5 q55 -11 85 -41t30 -74q0 -135 -200 -135q-63 0 -104.5 21z" />
<glyph unicode="&#x438;" horiz-adv-x="548" d="M86 350q0 51 -14 75.5t-56 24.5h-15v20h85q37 0 55.5 -9.5t26.5 -34.5t8 -76v-260l210 380h90v-470h-90v380l-210 -380h-90v350z" />
<glyph unicode="&#x439;" horiz-adv-x="548" d="M86 350q0 51 -14 75.5t-56 24.5h-15v20h85q37 0 55.5 -9.5t26.5 -34.5t8 -76v-260l210 380h90v-470h-90v380l-210 -380h-90v350zM151 601l20 15q20 -20 45 -30t65 -10t65 10t45 30l20 -15q-44 -80 -130 -80t-130 80z" />
<glyph unicode="&#x43a;" horiz-adv-x="497" d="M294 70l-115 145v-215h-90v350q0 51 -14 75.5t-56 24.5h-20v20h90q37 0 55.5 -9.5t26.5 -34.5t8 -76v-120l125 175q23 32 53.5 48.5t76.5 16.5h25v-25q-58 0 -90 -45l-110 -155l115 -145q28 -36 55.5 -56t59.5 -25v-19q-22 -10 -50 -10q-81 0 -145 80z" />
<glyph unicode="&#x43b;" horiz-adv-x="546" d="M33.5 -7q-16.5 3 -24.5 6v25q58 0 94 69t36 257q0 51 -14.5 75.5t-56.5 24.5v20h406v-470h-90v430h-176v-80q0 -205 -41.5 -282.5t-108.5 -77.5q-8 0 -24.5 3z" />
<glyph unicode="&#x43c;" horiz-adv-x="649" d="M505 23.5q-38 43.5 -38 126.5v215l-165 -365h-20l-170 375v-375h-40v470h95l150 -330l150 330h90v-320q0 -59 21.5 -104.5t53.5 -45.5v-20q-89 0 -127 43.5z" />
<glyph unicode="&#x43d;" horiz-adv-x="553" d="M86 350q0 51 -14 75.5t-56 24.5h-15v20h85q37 0 55.5 -9.5t26.5 -34.5t8 -76v-95h200v215h90v-350q0 -51 14 -75.5t56 -24.5h15v-20h-85q-37 0 -55.5 9.5t-26.5 34.5t-8 76v95h-200v-215h-90v350z" />
<glyph unicode="&#x43e;" horiz-adv-x="530" d="M147 22.5q-50 32.5 -76 88.5t-26 124t26 124t76 88.5t118 32.5t118 -32.5t76 -88.5t26 -124t-26 -124t-76 -88.5t-118 -32.5t-118 32.5zM330.5 57q28.5 27 44 74t15.5 104t-15.5 104t-44 74t-65.5 27t-65.5 -27t-44 -74t-15.5 -104t15.5 -104t44 -74t65.5 -27t65.5 27z " />
<glyph unicode="&#x43f;" horiz-adv-x="534" d="M82 350q0 51 -14 75.5t-56 24.5h-10v20h460v-470h-90v430h-200v-430h-90v350z" />
<glyph unicode="&#x440;" horiz-adv-x="538" d="M87 350q0 51 -14 75.5t-56 24.5h-20v20h90q38 0 57.5 -10.5t27.5 -34.5q55 55 140 55q86 0 133 -69.5t47 -175.5q0 -107 -48.5 -176t-141.5 -69q-38 0 -67 8t-58 22v-210h-90v540zM366.5 86q30.5 56 30.5 149q0 92 -29 148.5t-86 56.5q-67 0 -105 -60v-320q30 -14 52 -22 t43 -8q64 0 94.5 56z" />
<glyph unicode="&#x441;" horiz-adv-x="483" d="M143.5 22.5q-49.5 32.5 -74 88t-24.5 124.5t24.5 124.5t74 88t121.5 32.5q110 0 145 -35q17 -17 21 -41.5t4 -88.5h-20q-4 62 -39 93.5t-91 31.5q-72 0 -108.5 -57t-36.5 -148t36.5 -148t108.5 -57q51 0 84 19.5t61 60.5l20 -15q-33 -56 -78 -80.5t-107 -24.5 q-72 0 -121.5 32.5z" />
<glyph unicode="&#x442;" horiz-adv-x="474" d="M204 430h-50q-47 0 -76 -26.5t-29 -73.5h-20v60q0 80 75 80h355v-40h-165v-430h-90v430z" />
<glyph unicode="&#x443;" horiz-adv-x="514" d="M105 -170q49 0 80.5 22.5t54.5 82.5l20 55l-160 390q-28 72 -110 80v20h85q87 0 120 -80l114 -277l126 347h50l-195 -535q-29 -79 -64 -107t-91 -28h-30v30z" />
<glyph unicode="&#x444;" horiz-adv-x="662" d="M286 -10q-116 4 -178 71.5t-62 173.5t62 173.5t178 71.5v60q0 51 -14 75.5t-56 24.5h-15v20h85q37 0 55.5 -9.5t26.5 -34.5t8 -76v-60q116 -4 178 -71.5t62 -173.5t-62 -173.5t-178 -71.5v-180h-90v180zM287 445q-74 -8 -110 -62.5t-36 -147.5t36 -147.5t110 -62.5v420z M485 87.5q36 54.5 36 147.5t-36 147.5t-110 62.5v-420q74 8 110 62.5z" />
<glyph unicode="&#x445;" horiz-adv-x="488" d="M198 225l-87 145q-42 73 -103 80v20h85q33 0 62 -21t51 -59l62 -105l130 185h50l-160 -225l87 -145q41 -72 108 -80v-20h-90q-33 0 -62 21t-51 59l-62 105l-130 -185h-50z" />
<glyph unicode="&#x446;" horiz-adv-x="565" d="M469 -35.5q-24 35.5 -73 35.5h-310v350q0 51 -14 75.5t-56 24.5h-15v20h85q37 0 55.5 -9.5t26.5 -34.5t8 -76v-310h200v430h90v-430h40q15 0 25 -10t10 -25v-160h-40q-8 84 -32 119.5z" />
<glyph unicode="&#x447;" horiz-adv-x="533" d="M371 193q-45 -18 -100 -18q-77 0 -128.5 31.5t-51.5 113.5v30q0 51 -14 75.5t-56 24.5h-10v20h85q37 0 55.5 -9.5t26.5 -34.5t8 -76v-40q0 -49 26 -72t64 -23q50 0 95 18v237h90v-470h-90v193z" />
<glyph unicode="&#x448;" horiz-adv-x="738" d="M86 350q0 51 -14 75.5t-56 24.5h-15v20h85q37 0 55.5 -9.5t26.5 -34.5t8 -76v-310h155v430h90v-430h155v430h90v-470h-580v350z" />
<glyph unicode="&#x449;" horiz-adv-x="765" d="M669 -35.5q-24 35.5 -73 35.5h-510v350q0 51 -14 75.5t-56 24.5h-15v20h85q37 0 55.5 -9.5t26.5 -34.5t8 -76v-310h155v430h90v-430h155v430h90v-430h40q15 0 25 -10t10 -25v-160h-40q-8 84 -32 119.5z" />
<glyph unicode="&#x44a;" horiz-adv-x="584" d="M185 430h-10q-54 0 -82.5 -31.5t-32.5 -98.5h-25v135q0 15 10 25t25 10h205v-190h75q95 0 150 -32t55 -108t-55 -108t-150 -32h-165v430zM429.5 60q30.5 25 30.5 80t-30.5 80t-89.5 25q-15 0 -34 -3t-31 -7v-190q12 -4 31 -7t34 -3q59 0 89.5 25z" />
<glyph unicode="&#x44b;" horiz-adv-x="688" d="M86 350q0 51 -14 75.5t-56 24.5h-15v20h85q37 0 55.5 -9.5t26.5 -34.5t8 -76v-70h75q195 0 195 -140t-195 -140h-165v350zM545.5 9.5q-18.5 9.5 -26.5 34.5t-8 76v350h90v-350q0 -51 14 -75.5t56 -24.5h15v-20h-85q-37 0 -55.5 9.5zM322 60q29 25 29 80t-29 80t-81 25 q-15 0 -34 -3t-31 -7v-190q12 -4 31 -7t34 -3q52 0 81 25z" />
<glyph unicode="&#x44c;" horiz-adv-x="485" d="M86 350q0 51 -14 75.5t-56 24.5h-15v20h85q37 0 55.5 -9.5t26.5 -34.5t8 -76v-70h75q95 0 150 -32t55 -108t-55 -108t-150 -32h-165v350zM330.5 60q30.5 25 30.5 80t-30.5 80t-89.5 25q-15 0 -34 -3t-31 -7v-190q12 -4 31 -7t34 -3q59 0 89.5 25z" />
<glyph unicode="&#x44d;" horiz-adv-x="489" d="M117 14.5q-45 24.5 -78 80.5l20 15q28 -41 61 -60.5t84 -19.5q67 0 104 49.5t41 130.5h-210v40h210q-4 84 -40.5 137t-104.5 53q-56 0 -91 -31.5t-39 -93.5h-20q0 64 4 88.5t21 41.5q35 35 145 35q72 0 121.5 -32.5t74 -88t24.5 -124.5t-24.5 -124.5t-74 -88 t-121.5 -32.5q-62 0 -107 24.5z" />
<glyph unicode="&#x44e;" horiz-adv-x="691" d="M336.5 18q-45.5 28 -72 79t-28.5 118h-60v-215h-90v350q0 51 -14 75.5t-56 24.5h-15v20h85q37 0 55.5 -9.5t26.5 -34.5t8 -76v-95h60q2 67 28.5 118t72 79t104.5 28q62 0 108.5 -31t71.5 -86.5t25 -127.5t-25 -127.5t-71.5 -86.5t-108.5 -31q-59 0 -104.5 28zM521 83 q30 53 30 152t-30 152t-80 53t-80 -53t-30 -152t30 -152t80 -53t80 53z" />
<glyph unicode="&#x44f;" horiz-adv-x="510" d="M17 0v20q31 3 52 24t43 56l60 105q-48 8 -81.5 42.5t-33.5 87.5q0 135 200 135h235v-20h-4q-39 -1 -52.5 -26t-13.5 -74v-350h-90v200h-78l-60 -120q-24 -47 -52.5 -68.5t-69.5 -21.5q-25 0 -55 10zM301 238q19 3 31 7v180q-12 4 -31 7t-34 3q-115 0 -115 -100t115 -100 q15 0 34 3z" />
<glyph unicode="&#x451;" horiz-adv-x="488" d="M140 22.5q-47 32.5 -71 88t-24 124.5q0 68 24 124t69.5 88.5t106.5 32.5q101 0 150.5 -56.5t49.5 -163.5l-2 -40h-303q0 -84 36 -137t99 -53q47 0 79.5 20t60.5 60l20 -15q-33 -55 -77 -80t-103 -25q-68 0 -115 32.5zM350 260q0 88 -26 134t-79 46q-30 0 -54 -23.5 t-37.5 -64.5t-13.5 -92h210zM133 548q-13 13 -13 32t13 32t32 13t32 -13t13 -32t-13 -32t-32 -13t-32 13zM303 548q-13 13 -13 32t13 32t32 13t32 -13t13 -32t-13 -32t-32 -13t-32 13z" />
<glyph unicode="&#x452;" horiz-adv-x="530" d="M277 -120q48 0 71.5 51t23.5 144v175q0 70 -31.5 102.5t-78.5 32.5q-53 0 -100 -53v-332h-90v500h-70v40h70v60l50 60h40v-120h120v-40h-120v-120q21 21 54.5 35.5t75.5 14.5q75 0 122.5 -40t47.5 -140v-175q0 -78 -16.5 -124.5t-56.5 -68.5t-112 -22v20z" />
<glyph unicode="&#x453;" horiz-adv-x="435" d="M82 350q0 51 -14 75.5t-56 24.5h-10v20h330q75 0 75 -80v-60h-20q0 47 -29 73.5t-76 26.5h-110v-430h-90v350zM222 640h95l-95 -130h-40z" />
<glyph unicode="&#x454;" horiz-adv-x="489" d="M143.5 22.5q-49.5 32.5 -74 88t-24.5 124.5t24.5 124.5t74 88t121.5 32.5q110 0 145 -35q17 -17 21 -41.5t4 -88.5h-20q-4 62 -39 93.5t-91 31.5q-68 0 -104.5 -53t-40.5 -137h210v-40h-210q4 -81 41 -130.5t104 -49.5q51 0 84 19.5t61 60.5l20 -15q-33 -56 -78 -80.5 t-107 -24.5q-72 0 -121.5 32.5z" />
<glyph unicode="&#x455;" horiz-adv-x="446" d="M74 30q-17 17 -21 38.5t-4 66.5h20q9 -50 43.5 -77.5t96.5 -27.5q55 0 82.5 19t27.5 51q0 29 -21.5 50t-68.5 40l-60 25q-60 24 -90 56t-30 79q0 61 46 95.5t119 34.5q110 0 150 -40q17 -17 21 -38t4 -67h-20q-8 50 -42 77.5t-93 27.5q-47 0 -73.5 -19.5t-26.5 -50.5 q0 -52 80 -85l60 -25q68 -28 99 -59.5t31 -80.5q0 -61 -49 -95.5t-126 -34.5q-115 0 -155 40z" />
<glyph unicode="&#x456;" horiz-adv-x="246" d="M85.5 549q-16.5 19 -16.5 45q0 21 12.5 33t33.5 12q23 0 39.5 -19t16.5 -45q0 -21 -12.5 -33t-33.5 -12q-23 0 -39.5 19zM87 350q0 51 -14 75.5t-56 24.5h-20v20h90q37 0 55.5 -9.5t26.5 -34.5t8 -76v-350h-90v350z" />
<glyph unicode="&#x457;" horiz-adv-x="246" d="M12.5 559q-16.5 19 -16.5 45q0 21 12.5 33t33.5 12q23 0 39.5 -19t16.5 -45q0 -21 -12.5 -33t-33.5 -12q-23 0 -39.5 19zM166.5 559q-16.5 19 -16.5 45q0 21 12.5 33t33.5 12q23 0 39.5 -19t16.5 -45q0 -21 -12.5 -33t-33.5 -12q-23 0 -39.5 19zM87 350q0 51 -14 75.5 t-56 24.5h-20v20h90q37 0 55.5 -9.5t26.5 -34.5t8 -76v-350h-90v350z" />
<glyph unicode="&#x458;" horiz-adv-x="246" d="M85.5 549q-16.5 19 -16.5 45q0 21 12.5 33t33.5 12q23 0 39.5 -19t16.5 -45q0 -21 -12.5 -33t-33.5 -12q-23 0 -39.5 19zM-8 -170q48 0 71.5 51t23.5 144v325q0 51 -14 75.5t-56 24.5h-20v20h90q37 0 55.5 -9.5t26.5 -34.5t8 -76v-325q0 -78 -16.5 -124.5t-56.5 -68.5 t-112 -22v20z" />
<glyph unicode="&#x459;" horiz-adv-x="772" d="M33.5 -7q-16.5 3 -24.5 6v25q58 0 94 69t36 257q0 51 -14.5 75.5t-56.5 24.5v20h395v-190h75q95 0 150 -32t55 -108t-55 -108t-150 -32h-165v430h-165v-80q0 -205 -41.5 -282.5t-108.5 -77.5q-8 0 -24.5 3zM617.5 60q30.5 25 30.5 80t-30.5 80t-89.5 25q-15 0 -34 -3 t-31 -7v-190q12 -4 31 -7t34 -3q59 0 89.5 25z" />
<glyph unicode="&#x45a;" horiz-adv-x="763" d="M86 350q0 51 -14 75.5t-56 24.5h-15v20h85q37 0 55.5 -9.5t26.5 -34.5t8 -76v-90h190v210h90v-210h75q205 0 205 -130q0 -71 -55 -100.5t-150 -29.5h-165v220h-190v-220h-90v350zM610 58.5q31 23.5 31 71.5t-31 71.5t-89 23.5q-15 0 -34 -3t-31 -7v-170q12 -4 31 -7 t34 -3q58 0 89 23.5z" />
<glyph unicode="&#x45b;" horiz-adv-x="530" d="M72 500h-70v40h70v60l50 60h40v-120h120v-40h-120v-120q21 21 54.5 35.5t75.5 14.5q75 0 122.5 -40t47.5 -140v-250h-90v250q0 70 -31.5 102.5t-78.5 32.5q-53 0 -100 -53v-332h-90v500z" />
<glyph unicode="&#x45c;" horiz-adv-x="497" d="M294 70l-115 145v-215h-90v350q0 51 -14 75.5t-56 24.5h-20v20h90q37 0 55.5 -9.5t26.5 -34.5t8 -76v-120l125 175q23 32 53.5 48.5t76.5 16.5h25v-25q-58 0 -90 -45l-110 -155l115 -145q28 -36 55.5 -56t59.5 -25v-19q-22 -10 -50 -10q-81 0 -145 80zM249 616h95 l-95 -130h-40z" />
<glyph unicode="&#x45e;" horiz-adv-x="514" d="M105 -170q49 0 80.5 22.5t54.5 82.5l20 55l-160 390q-28 72 -110 80v20h85q87 0 120 -80l114 -277l126 347h50l-195 -535q-29 -79 -64 -107t-91 -28h-30v30zM170 591l20 15q20 -20 45 -30t65 -10t65 10t45 30l20 -15q-44 -80 -130 -80t-130 80z" />
<glyph unicode="&#x45f;" horiz-adv-x="538" d="M241 0h-155v350q0 51 -14 75.5t-56 24.5h-15v20h85q37 0 55.5 -9.5t26.5 -34.5t8 -76v-310h200v430h90v-470h-155l-15 -150h-40z" />
<glyph unicode="&#x490;" horiz-adv-x="535" d="M106 540q0 51 -14 75.5t-56 24.5h-20v20h355q125 0 125 115h20v-110q0 -19 -13 -32t-32 -13h-275v-620h-90v540z" />
<glyph unicode="&#x491;" horiz-adv-x="432" d="M82 350q0 51 -14 75.5t-56 24.5h-10v20h280q47 0 76 26.5t29 73.5h20v-100q0 -40 -40 -40h-195v-430h-90v350z" />
<glyph unicode="&#x60c;" horiz-adv-x="237" d="M73.5 3.5q-17.5 18.5 -17.5 51.5q0 123 110 185l10 -15q-40 -27 -60 -59.5t-20 -75.5l30 10q23 0 39 -16t16 -39q0 -26 -17 -43t-43 -17q-30 0 -47.5 18.5z" />
<glyph unicode="&#x615;" d="M-104 572q0 18 8 18h16v127q0 17 -13 30q1 2 6.5 4t10.5 2q9 0 16.5 -6.5t7.5 -20.5v-82q15 22 33.5 35t48.5 13q39 0 58 -23t19 -57q0 -27 -12 -43t-33 -16h-158q-8 0 -8 19zM36 590q10 0 15.5 7.5t5.5 20.5q0 16 -9 26.5t-29 10.5q-21 0 -38 -11t-27 -26.5t-10 -27.5 h92z" />
<glyph unicode="&#x61b;" horiz-adv-x="257" d="M186 583q-40 -27 -60 -59.5t-20 -75.5q15 10 30 10q23 0 39 -16t16 -39q0 -26 -17 -43t-43 -17q-30 0 -47.5 18.5t-17.5 51.5q0 123 110 185zM88 -3.5q-16 15.5 -16 37.5q0 23 16 38.5t38 15.5q23 0 39 -15.5t16 -38.5q0 -22 -16 -37.5t-39 -15.5q-22 0 -38 15.5z" />
<glyph unicode="&#x61f;" horiz-adv-x="435" d="M222.5 164q-2.5 15 -2.5 23q0 27 -19 68.5t-59 114.5q-47 87 -69.5 138t-22.5 89q0 32 17.5 63.5t56.5 53t99 21.5q78 0 120 -36.5t42 -87.5q0 -48 -38 -48q-16 0 -35 8l1 18q-1 35 -16.5 63.5t-57.5 28.5t-62.5 -29t-20.5 -62q0 -24 11 -47.5t34 -59.5q29 -47 45 -83.5 t16 -80.5q0 -41 -10 -105.5t-22 -64.5q-5 0 -7.5 15zM202.5 1.5q-13.5 13.5 -13.5 32.5t13.5 32t32.5 13t32 -13t13 -32t-13 -32.5t-32 -13.5t-32.5 13.5z" />
<glyph unicode="&#x621;" horiz-adv-x="471" d="M411.5 94q9.5 -10 9.5 -24q0 -12 -6 -21.5t-13 -9.5q-118 -11 -223.5 -26.5t-115.5 -25.5q-14 18 -14 37q0 22 17.5 36.5t41.5 14.5q11 0 24 -5q-25 23 -44.5 65t-19.5 89q0 74 53 121.5t144 47.5q67 0 89 -22.5t22 -50.5q0 -29 -16 -43.5t-36 -14.5q-17 0 -24 7 q1 33 -22.5 54t-51.5 24q-27 -4 -48 -33t-21 -82q0 -76 46 -105.5t112 -29.5q41 0 67 7q20 0 29.5 -10z" />
<glyph unicode="&#x622;" horiz-adv-x="245" d="M112.5 15.5q-7.5 15.5 -7.5 48.5v387q0 43 -17 76t-38 47q6 8 25.5 16.5t40.5 8.5q33 0 56 -25.5t23 -85.5v-424q0 -32 -8.5 -48t-37.5 -16t-36.5 15.5zM136 646q-20 6 -46 18q-23 10 -39 15.5t-33 5.5q-19 0 -32 -8t-18 -8t1.5 18t26.5 33t54 15q20 0 37.5 -5t42.5 -15 q22 -9 39.5 -14t36.5 -5q15 0 24 3t19 9t17 6q3 -3 -4 -22.5t-27 -35.5t-56 -16q-23 0 -43 6z" />
<glyph unicode="&#x623;" horiz-adv-x="245" d="M112.5 15.5q-7.5 15.5 -7.5 48.5v387q0 43 -17 76t-38 47q6 8 25.5 16.5t40.5 8.5q33 0 56 -25.5t23 -85.5v-424q0 -32 -8.5 -48t-37.5 -16t-36.5 15.5zM13 661q0 12 9 19.5t21 7.5q8 0 14 -3q-12 13 -22.5 36.5t-10.5 48.5q0 42 28.5 68t79.5 26q62 0 62 -40 q0 -16 -9 -24t-20 -8q-9 0 -13 4q1 18 -11.5 29t-28.5 14q-12 -3 -21.5 -18.5t-9.5 -42.5q0 -77 82 -77q24 0 34 4q21 0 21 -19q0 -6 -3 -11.5t-7 -5.5q-66 -6 -123.5 -14.5t-63.5 -14.5q-8 13 -8 21z" />
<glyph unicode="&#x624;" horiz-adv-x="508" d="M394 445.5q49 -34.5 49 -123.5v-390q0 -34 -12.5 -70.5t-46 -63.5t-91.5 -27q-44 0 -77 16.5t-46 37.5q35 -8 62 -8q55 0 88 29.5t33 74.5l1 79l-106 -2q-100 0 -141.5 57.5t-41.5 180.5q0 99 23 152.5t64 72.5t105 19q88 0 137 -34.5zM179 124.5q24 -54.5 104 -54.5h70 v228q0 112 -90 112q-108 0 -108 -172q0 -59 24 -113.5zM149 566q0 12 9 19.5t21 7.5q8 0 14 -3q-12 13 -22.5 36.5t-10.5 48.5q0 42 28.5 68t79.5 26q62 0 62 -40q0 -16 -9 -24t-20 -8q-9 0 -13 4q1 18 -11.5 29t-28.5 14q-12 -3 -21.5 -18.5t-9.5 -42.5q0 -77 82 -77 q24 0 34 4q21 0 21 -19q0 -6 -3 -11.5t-7 -5.5q-66 -6 -123.5 -14.5t-63.5 -14.5q-8 13 -8 21z" />
<glyph unicode="&#x625;" horiz-adv-x="245" d="M112.5 15.5q-7.5 15.5 -7.5 48.5v448q0 43 -17 76t-38 47q6 8 25.5 16.5t40.5 8.5q33 0 56 -25.5t23 -85.5v-485q0 -32 -8.5 -48t-37.5 -16t-36.5 15.5zM46 -253q0 12 9 19.5t21 7.5q8 0 14 -3q-13 14 -23 37t-10 48q0 42 28.5 68t79.5 26q62 0 62 -40q0 -16 -9 -24 t-20 -8q-9 0 -13 4q1 18 -11.5 29t-28.5 14q-12 -3 -21.5 -18.5t-9.5 -42.5q0 -77 82 -77q24 0 34 4q21 0 21 -19q0 -6 -3 -11.5t-7 -5.5q-66 -6 -123.5 -14.5t-63.5 -14.5q-8 13 -8 21z" />
<glyph unicode="&#x626;" horiz-adv-x="866" d="M744 164.5q57 -31.5 57 -112.5q0 -67 -43 -133.5t-131.5 -110.5t-215.5 -44q-207 0 -276.5 100.5t-69.5 214.5q0 77 26 127.5t77 50.5q18 0 31.5 -6t18.5 -14q-24 -25 -43 -74t-19 -110q0 -98 61 -158.5t202 -60.5q110 0 175.5 36t91.5 84t26 89q0 78 -106 78 q-36 0 -86 -8q-34 -4 -41 -4q-28 0 -45.5 25.5t-17.5 84.5q0 79 33 138.5t87 91t116 31.5q40 0 64 -13t32.5 -31.5t6.5 -36.5q-13 4 -35 7.5t-46 3.5q-99 0 -145 -61t-46 -169q0 -23 1 -34l8 39q66 11 112 11q83 0 140 -31.5zM483 183l9 3v-1zM86 352q0 12 9 19.5t21 7.5 q8 0 14 -3q-12 13 -22.5 36.5t-10.5 48.5q0 42 28.5 68t79.5 26q62 0 62 -40q0 -16 -9 -24t-20 -8q-9 0 -13 4q1 18 -11.5 29t-28.5 14q-12 -3 -21.5 -18.5t-9.5 -42.5q0 -77 82 -77q24 0 34 4q21 0 21 -19q0 -6 -3 -11.5t-7 -5.5q-66 -6 -123.5 -14.5t-63.5 -14.5 q-8 13 -8 21z" />
<glyph unicode="&#x627;" horiz-adv-x="245" d="M112.5 15.5q-7.5 15.5 -7.5 48.5v448q0 43 -17 76t-38 47q6 8 25.5 16.5t40.5 8.5q33 0 56 -25.5t23 -85.5v-485q0 -32 -8.5 -48t-37.5 -16t-36.5 15.5z" />
<glyph unicode="&#x628;" horiz-adv-x="744" d="M96 39q-31 39 -31 102v243q0 43 45 43t45 -44v-213q0 -56 17.5 -78t65.5 -22h241q69 0 89.5 58.5t20.5 111.5q0 63 -16.5 119.5t-68.5 100.5q22 20 55 20q63 0 91.5 -62t28.5 -148q0 -110 -47 -190t-160 -80h-277q-68 0 -99 39zM309 -178q-17 17 -17 40q0 24 17 41t42 17 q23 0 40 -17t17 -41q0 -23 -17 -40t-40 -17q-25 0 -42 17z" />
<glyph unicode="&#x629;" horiz-adv-x="516" d="M111.5 48.5q-46.5 57.5 -46.5 186.5t47 187t146 58t146 -58t47 -187t-46.5 -186.5t-146.5 -57.5t-146.5 57.5zM339.5 114.5q21.5 53.5 21.5 136.5q0 77 -21 118t-83 41q-59 0 -80.5 -39.5t-21.5 -121.5q0 -81 21.5 -134.5t81.5 -53.5t81.5 53.5zM146 562q-17 17 -17 40 q0 24 17 41t40 17q24 0 40.5 -17t16.5 -41q0 -23 -16.5 -40t-40.5 -17q-23 0 -40 17zM292 562q-17 17 -17 40q0 24 17 41t40 17q24 0 40.5 -17t16.5 -41q0 -23 -16.5 -40t-40.5 -17q-23 0 -40 17z" />
<glyph unicode="&#x62a;" horiz-adv-x="744" d="M96 39q-31 39 -31 102v243q0 43 45 43t45 -44v-213q0 -56 17.5 -78t65.5 -22h241q69 0 89.5 58.5t20.5 111.5q0 63 -16.5 119.5t-68.5 100.5q22 20 55 20q63 0 91.5 -62t28.5 -148q0 -110 -47 -190t-160 -80h-277q-68 0 -99 39zM238 517q-17 17 -17 40q0 24 17 41t40 17 q24 0 40.5 -17t16.5 -41q0 -23 -16.5 -40t-40.5 -17q-23 0 -40 17zM384 517q-17 17 -17 40q0 24 17 41t40 17q24 0 40.5 -17t16.5 -41q0 -23 -16.5 -40t-40.5 -17q-23 0 -40 17z" />
<glyph unicode="&#x62b;" horiz-adv-x="744" d="M96 39q-31 39 -31 102v243q0 43 45 43t45 -44v-213q0 -56 17.5 -78t65.5 -22h241q69 0 89.5 58.5t20.5 111.5q0 63 -16.5 119.5t-68.5 100.5q22 20 55 20q63 0 91.5 -62t28.5 -148q0 -110 -47 -190t-160 -80h-277q-68 0 -99 39zM387.5 718.5q15.5 -15.5 15.5 -37.5 t-15.5 -37.5t-37.5 -15.5t-37.5 15.5t-15.5 37.5t15.5 37.5t37.5 15.5t37.5 -15.5zM317.5 598q16.5 -17 16.5 -40q0 -24 -16.5 -41t-40.5 -17q-23 0 -40 17t-17 41q0 23 17 40t40 17q24 0 40.5 -17zM463.5 598q16.5 -17 16.5 -40q0 -24 -16.5 -41t-40.5 -17q-23 0 -40 17 t-17 41q0 23 17 40t40 17q24 0 40.5 -17z" />
<glyph unicode="&#x62c;" horiz-adv-x="588" d="M468.5 417q69.5 -63 69.5 -184q0 -109 -53.5 -171t-156.5 -62h-189q0 -83 19 -146t67 -103q-7 -6 -24.5 -11.5t-34.5 -5.5q-43 0 -69 37t-36.5 85.5t-10.5 85.5q0 128 117 128h97q58 0 92.5 6.5t63 41.5t28.5 113q0 90 -51 134.5t-179 44.5l-58 -1q-27 0 -43 15.5 t-23 36.5q-7 22 -5 39q14 -10 30 -17t40 -7l28 1q24 3 63 3q149 0 218.5 -63zM253 -151q-17 17 -17 40q0 24 17 41t42 17q23 0 40 -17t17 -41q0 -23 -17 -40t-40 -17q-25 0 -42 17z" />
<glyph unicode="&#x62d;" horiz-adv-x="588" d="M468.5 417q69.5 -63 69.5 -184q0 -109 -53.5 -171t-156.5 -62h-189q0 -83 19 -146t67 -103q-7 -6 -24.5 -11.5t-34.5 -5.5q-43 0 -69 37t-36.5 85.5t-10.5 85.5q0 128 117 128h97q58 0 92.5 6.5t63 41.5t28.5 113q0 90 -51 134.5t-179 44.5l-58 -1q-27 0 -43 15.5 t-23 36.5q-7 22 -5 39q14 -10 30 -17t40 -7l28 1q24 3 63 3q149 0 218.5 -63z" />
<glyph unicode="&#x62e;" horiz-adv-x="588" d="M468.5 417q69.5 -63 69.5 -184q0 -109 -53.5 -171t-156.5 -62h-189q0 -83 19 -146t67 -103q-7 -6 -24.5 -11.5t-34.5 -5.5q-43 0 -69 37t-36.5 85.5t-10.5 85.5q0 128 117 128h97q58 0 92.5 6.5t63 41.5t28.5 113q0 90 -51 134.5t-179 44.5l-58 -1q-27 0 -43 15.5 t-23 36.5q-7 22 -5 39q14 -10 30 -17t40 -7l28 1q24 3 63 3q149 0 218.5 -63zM253 562q-17 17 -17 40q0 24 17 41t42 17q23 0 40 -17t17 -41q0 -23 -17 -40t-40 -17q-25 0 -42 17z" />
<glyph unicode="&#x62f;" horiz-adv-x="484" d="M341.5 447q47.5 -33 70 -84t22.5 -104q0 -54 -22 -114t-69.5 -102.5t-119.5 -42.5h-146q-14 0 -20.5 10t-6.5 23q0 15 9 26t29 11h53q103 0 153 54.5t50 134.5q0 67 -33.5 109.5t-89.5 41.5q-37 -12 -57 -36t-20 -67q-26 -2 -46 7q-33 15 -33 55q0 48 44.5 79.5 t114.5 31.5t117.5 -33zM197 407h-2h2z" />
<glyph unicode="&#x630;" horiz-adv-x="484" d="M341.5 447q47.5 -33 70 -84t22.5 -104q0 -54 -22 -114t-69.5 -102.5t-119.5 -42.5h-146q-14 0 -20.5 10t-6.5 23q0 15 9 26t29 11h53q103 0 153 54.5t50 134.5q0 67 -33.5 109.5t-89.5 41.5q-37 -12 -57 -36t-20 -67q-26 -2 -46 7q-33 15 -33 55q0 48 44.5 79.5 t114.5 31.5t117.5 -33zM197 407h-2h2zM201 562q-17 17 -17 40q0 24 17 41t42 17q23 0 40 -17t17 -41q0 -23 -17 -40t-40 -17q-25 0 -42 17z" />
<glyph unicode="&#x631;" horiz-adv-x="265" d="M-7 -210.5q-28 18.5 -38 33.5q29 -8 62 -8q39 0 65 16t37.5 39t11.5 45l-1 523q0 42 45 42q19 0 32 -9.5t13 -31.5v-512q0 -31 -13 -66.5t-46 -62.5t-89 -27q-51 0 -79 18.5z" />
<glyph unicode="&#x632;" horiz-adv-x="265" d="M-7 -210.5q-28 18.5 -38 33.5q29 -8 62 -8q39 0 65 16t37.5 39t11.5 45l-1 523q0 42 45 42q19 0 32 -9.5t13 -31.5v-512q0 -31 -13 -66.5t-46 -62.5t-89 -27q-51 0 -79 18.5zM134 562q-17 17 -17 40q0 24 17 41t42 17q23 0 40 -17t17 -41q0 -23 -17 -40t-40 -17 q-25 0 -42 17z" />
<glyph unicode="&#x633;" horiz-adv-x="1278" d="M1184.5 418q28.5 -62 28.5 -148q0 -109 -47.5 -189.5t-159.5 -80.5h-12q-55 0 -89 12.5t-66 45.5q-20 -24 -48.5 -41t-58.5 -17h-78q-43 0 -74 20q-3 -109 -35 -169t-85 -82.5t-129 -22.5q-108 0 -187 58.5t-79 235.5q0 96 24.5 146.5t53 66t51.5 15.5q15 0 30 -6t24 -14 q-36 -29 -66 -94.5t-30 -147.5q0 -108 49.5 -154t128.5 -46q74 0 109 34t43 81.5t8 119.5v338q0 46 45 46t45 -46v-202v-1q0 -57 7 -81.5t35 -24.5h76q51 0 71 19.5t20 55.5v257q0 47 44 47q45 0 45 -47v-201q0 -50 16 -90.5t58 -40.5h61q68 0 89 60t21 116q0 142 -85 214 q22 20 55 20q63 0 91.5 -62z" />
<glyph unicode="&#x634;" horiz-adv-x="1278" d="M1184.5 418q28.5 -62 28.5 -148q0 -109 -47.5 -189.5t-159.5 -80.5h-12q-55 0 -89 12.5t-66 45.5q-20 -24 -48.5 -41t-58.5 -17h-78q-43 0 -74 20q-3 -109 -35 -169t-85 -82.5t-129 -22.5q-108 0 -187 58.5t-79 235.5q0 96 24.5 146.5t53 66t51.5 15.5q15 0 30 -6t24 -14 q-36 -29 -66 -94.5t-30 -147.5q0 -108 49.5 -154t128.5 -46q74 0 109 34t43 81.5t8 119.5v338q0 46 45 46t45 -46v-202v-1q0 -57 7 -81.5t35 -24.5h76q51 0 71 19.5t20 55.5v257q0 47 44 47q45 0 45 -47v-201q0 -50 16 -90.5t58 -40.5h61q68 0 89 60t21 116q0 142 -85 214 q22 20 55 20q63 0 91.5 -62zM868.5 763.5q15.5 -15.5 15.5 -37.5t-15.5 -37.5t-37.5 -15.5t-37.5 15.5t-15.5 37.5t15.5 37.5t37.5 15.5t37.5 -15.5zM798.5 643q16.5 -17 16.5 -40q0 -24 -16.5 -41t-40.5 -17q-23 0 -40 17t-17 41q0 23 17 40t40 17q24 0 40.5 -17z M944.5 643q16.5 -17 16.5 -40q0 -24 -16.5 -41t-40.5 -17q-23 0 -40 17t-17 41q0 23 17 40t40 17q24 0 40.5 -17z" />
<glyph unicode="&#x635;" horiz-adv-x="1119" d="M911 457q61 -23 102 -78t41 -144q0 -84 -42.5 -159.5t-162.5 -75.5h-270q-6 -101 -38.5 -156.5t-84.5 -76.5t-125 -21q-108 0 -187 58.5t-79 235.5q0 96 24.5 146.5t53 66t51.5 15.5q15 0 30 -6t24 -14q-36 -29 -66 -94.5t-30 -147.5q0 -108 49.5 -154t128.5 -46 q74 0 109 34t43 81.5t8 119.5v272q0 25 -15.5 51t-34.5 42q9 8 25 15t34 7q40 0 62 -33q32 33 92 59t132 26q65 0 126 -23zM932 125q32 55 32 111q0 62 -31 101t-76.5 56t-93.5 17q-61 0 -112.5 -24.5t-71.5 -51.5q1 -6 1 -19v-245h230q90 0 122 55z" />
<glyph unicode="&#x636;" horiz-adv-x="1119" d="M911 457q61 -23 102 -78t41 -144q0 -84 -42.5 -159.5t-162.5 -75.5h-270q-6 -101 -38.5 -156.5t-84.5 -76.5t-125 -21q-108 0 -187 58.5t-79 235.5q0 96 24.5 146.5t53 66t51.5 15.5q15 0 30 -6t24 -14q-36 -29 -66 -94.5t-30 -147.5q0 -108 49.5 -154t128.5 -46 q74 0 109 34t43 81.5t8 119.5v272q0 25 -15.5 51t-34.5 42q9 8 25 15t34 7q40 0 62 -33q32 33 92 59t132 26q65 0 126 -23zM932 125q32 55 32 111q0 62 -31 101t-76.5 56t-93.5 17q-61 0 -112.5 -24.5t-71.5 -51.5q1 -6 1 -19v-245h230q90 0 122 55zM747 562q-17 17 -17 40 q0 24 17 41t42 17q23 0 40 -17t17 -41q0 -23 -17 -40t-40 -17q-25 0 -42 17z" />
<glyph unicode="&#x637;" horiz-adv-x="812" d="M608 451.5q61 -28.5 100 -87t39 -145.5q0 -93 -49 -156t-161 -63h-491q-12 0 -19 10.5t-7 24.5t7 24.5t19 10.5h74v442q0 43 -17 76t-38 47q6 8 25.5 16.5t40.5 8.5q33 0 56 -25.5t23 -85.5v-250q19 43 56.5 84.5t93 69t121.5 27.5t127 -28.5zM619.5 116 q37.5 46 37.5 108q0 60 -29.5 102t-75 63t-94.5 21q-86 0 -150 -58.5t-98 -126.5v-155h289q83 0 120.5 46z" />
<glyph unicode="&#x638;" horiz-adv-x="812" d="M608 451.5q61 -28.5 100 -87t39 -145.5q0 -93 -49 -156t-161 -63h-491q-12 0 -19 10.5t-7 24.5t7 24.5t19 10.5h74v442q0 43 -17 76t-38 47q6 8 25.5 16.5t40.5 8.5q33 0 56 -25.5t23 -85.5v-250q19 43 56.5 84.5t93 69t121.5 27.5t127 -28.5zM619.5 116 q37.5 46 37.5 108q0 60 -29.5 102t-75 63t-94.5 21q-86 0 -150 -58.5t-98 -126.5v-155h289q83 0 120.5 46zM375 562q-17 17 -17 40q0 24 17 41t42 17q23 0 40 -17t17 -41q0 -23 -17 -40t-40 -17q-25 0 -42 17z" />
<glyph unicode="&#x639;" horiz-adv-x="552" d="M480.5 59q6.5 -11 6.5 -24t-6.5 -24t-20.5 -11h-306q0 -83 19 -146t67 -103q-7 -6 -24.5 -11.5t-34.5 -5.5q-43 0 -69 37t-36.5 85.5t-10.5 85.5q0 69 31.5 97t74.5 30q-26 28 -46.5 74t-20.5 110q0 60 22.5 111.5t71.5 83.5t125 32q66 0 107.5 -25.5t41.5 -78.5 q0 -31 -14 -46.5t-35 -15.5q-13 0 -30 5q0 42 -19 60.5t-60 30.5q-52 0 -86.5 -41t-34.5 -109q0 -85 50.5 -137.5t153.5 -52.5h63q14 0 20.5 -11zM342 407l-6 1z" />
<glyph unicode="&#x63a;" horiz-adv-x="552" d="M480.5 59q6.5 -11 6.5 -24t-6.5 -24t-20.5 -11h-306q0 -83 19 -146t67 -103q-7 -6 -24.5 -11.5t-34.5 -5.5q-43 0 -69 37t-36.5 85.5t-10.5 85.5q0 69 31.5 97t74.5 30q-26 28 -46.5 74t-20.5 110q0 60 22.5 111.5t71.5 83.5t125 32q66 0 107.5 -25.5t41.5 -78.5 q0 -31 -14 -46.5t-35 -15.5q-13 0 -30 5q0 42 -19 60.5t-60 30.5q-52 0 -86.5 -41t-34.5 -109q0 -85 50.5 -137.5t153.5 -52.5h63q14 0 20.5 -11zM342 407l-6 1zM253 562q-17 17 -17 40q0 24 17 41t42 17q23 0 40 -17t17 -41q0 -23 -17 -40t-40 -17q-25 0 -42 17z" />
<glyph unicode="&#x640;" horiz-adv-x="153" d="M0 70h153v-70h-153v70z" />
<glyph unicode="&#x641;" horiz-adv-x="957" d="M812.5 463.5q39.5 -16.5 59.5 -62.5t20 -135v-125q0 -63 -31 -102t-99 -39h-503q-62 0 -105.5 28t-66 75t-22.5 104q0 68 28.5 117.5t73.5 49.5q26 0 49 -18q-26 -18 -43.5 -59.5t-17.5 -99.5q0 -57 19.5 -85t45.5 -35t59 -7h279q-26 38 -37 80t-11 99q0 98 24.5 148.5 t65.5 66.5t104 16q69 0 108.5 -16.5zM802 300q0 62 -23 86.5t-65 24.5q-114 0 -114 -160q0 -57 20 -119t81 -62h18q48 0 65.5 22t17.5 78v130zM682 562q-17 17 -17 40q0 24 17 41t42 17q23 0 40 -17t17 -41q0 -23 -17 -40t-40 -17q-25 0 -42 17z" />
<glyph unicode="&#x642;" horiz-adv-x="866" d="M719.5 465q38.5 -15 60 -61.5t21.5 -137.5v-230q0 -128 -86.5 -200t-271.5 -72q-229 0 -303.5 93.5t-74.5 211.5q0 85 25.5 137t76.5 52q18 0 32 -6.5t19 -14.5q-27 -22 -44.5 -75t-17.5 -114q0 -97 65.5 -155.5t226.5 -58.5q139 0 195.5 44t64.5 122h-122 q-87 0 -127 70.5t-40 187.5q0 94 24.5 142.5t66.5 64t107 15.5q64 0 102.5 -15zM534 127q24 -57 105 -57h71v230q0 61 -23 85.5t-65 24.5q-56 0 -84 -40t-28 -126q0 -60 24 -117zM516 562q-17 17 -17 40q0 24 17 41t40 17q24 0 40.5 -17t16.5 -41q0 -23 -16.5 -40t-40.5 -17 q-23 0 -40 17zM662 562q-17 17 -17 40q0 24 17 41t40 17q24 0 40.5 -17t16.5 -41q0 -23 -16.5 -40t-40.5 -17q-23 0 -40 17z" />
<glyph unicode="&#x643;" horiz-adv-x="830" d="M96 39q-31 39 -31 102v129q0 43 45 43t45 -44v-99q0 -56 17.5 -78t65.5 -22h348q43 0 66 35.5t23 81.5v325q0 43 -17 76t-38 47q6 8 25.5 16.5t40.5 8.5q33 0 56 -25.5t23 -85.5v-354q0 -97 -43 -146t-109 -49h-418q-68 0 -99 39zM315 341q0 12 9 19.5t21 7.5q8 0 14 -3 q-12 13 -22.5 36.5t-10.5 48.5q0 42 28.5 68t79.5 26q62 0 62 -40q0 -16 -9 -24t-20 -8q-9 0 -13 4q1 18 -11.5 29t-28.5 14q-12 -3 -21.5 -18.5t-9.5 -42.5q0 -77 82 -77q24 0 34 4q21 0 21 -19q0 -6 -3 -11.5t-7 -5.5q-66 -6 -123.5 -14.5t-63.5 -14.5q-8 13 -8 21z" />
<glyph unicode="&#x644;" horiz-adv-x="679" d="M187 -198q-64 38 -93 97t-29 127q0 50 15 98t42.5 78.5t62.5 30.5q25 0 51 -16q-23 -21 -50 -71.5t-27 -125.5q0 -70 32 -111.5t78 -58t92 -16.5q72 0 108 36.5t45.5 84.5t9.5 107v450q0 43 -17 76t-38 47q6 9 25 17t40 8q34 0 57 -25.5t23 -85.5v-513q0 -130 -65 -201 t-199 -71q-99 0 -163 38z" />
<glyph unicode="&#x645;" horiz-adv-x="616" d="M464 461q41 -19 64 -72t23 -153q0 -123 -42 -179.5t-145 -56.5h-63q-62 0 -89 -30t-27 -73v-64q0 -60 -23 -85.5t-56 -25.5q-21 0 -40.5 8.5t-25.5 16.5q21 14 38 47t17 76v39q0 38 17.5 81.5t60.5 64.5v268q0 89 49 123t137 34q64 0 105 -19zM437 125q24 55 24 114 q0 172 -108 172q-90 0 -90 -112v-229h70q80 0 104 55z" />
<glyph unicode="&#x646;" horiz-adv-x="679" d="M187 -198q-64 38 -93 97t-29 127q0 50 15 98t42.5 78.5t62.5 30.5q25 0 51 -16q-23 -21 -50 -71.5t-27 -125.5q0 -70 32 -111.5t78 -58t92 -16.5q72 0 108 36.5t45.5 84.5t9.5 107v378q0 24 14.5 32t30.5 8t30.5 -8t14.5 -32v-404q0 -130 -65 -201t-199 -71 q-99 0 -163 38zM299 497q-17 17 -17 40q0 24 17 41t42 17q23 0 40 -17t17 -41q0 -23 -17 -40t-40 -17q-25 0 -42 17z" />
<glyph unicode="&#x647;" horiz-adv-x="516" d="M111.5 48.5q-46.5 57.5 -46.5 186.5t47 187t146 58t146 -58t47 -187t-46.5 -186.5t-146.5 -57.5t-146.5 57.5zM339.5 114.5q21.5 53.5 21.5 136.5q0 77 -21 118t-83 41q-59 0 -80.5 -39.5t-21.5 -121.5q0 -81 21.5 -134.5t81.5 -53.5t81.5 53.5z" />
<glyph unicode="&#x648;" horiz-adv-x="508" d="M394 445.5q49 -34.5 49 -123.5v-390q0 -34 -12.5 -70.5t-46 -63.5t-91.5 -27q-44 0 -77 16.5t-46 37.5q35 -8 62 -8q55 0 88 29.5t33 74.5l1 79l-106 -2q-100 0 -141.5 57.5t-41.5 180.5q0 99 23 152.5t64 72.5t105 19q88 0 137 -34.5zM179 124.5q24 -54.5 104 -54.5h70 v228q0 112 -90 112q-108 0 -108 -172q0 -59 24 -113.5z" />
<glyph unicode="&#x649;" horiz-adv-x="866" d="M744 164.5q57 -31.5 57 -112.5q0 -67 -43 -133.5t-131.5 -110.5t-215.5 -44q-207 0 -276.5 100.5t-69.5 214.5q0 77 26 127.5t77 50.5q18 0 31.5 -6t18.5 -14q-24 -25 -43 -74t-19 -110q0 -98 61 -158.5t202 -60.5q110 0 175.5 36t91.5 84t26 89q0 78 -106 78 q-36 0 -86 -8q-34 -4 -41 -4q-28 0 -45.5 25.5t-17.5 84.5q0 79 33 138.5t87 91t116 31.5q40 0 64 -13t32.5 -31.5t6.5 -36.5q-13 4 -35 7.5t-46 3.5q-99 0 -145 -61t-46 -169q0 -23 1 -34l8 39q66 11 112 11q83 0 140 -31.5zM483 183l9 3v-1z" />
<glyph unicode="&#x64a;" horiz-adv-x="866" d="M744 164.5q57 -31.5 57 -112.5q0 -67 -43 -133.5t-131.5 -110.5t-215.5 -44q-207 0 -276.5 100.5t-69.5 214.5q0 77 26 127.5t77 50.5q18 0 31.5 -6t18.5 -14q-24 -25 -43 -74t-19 -110q0 -98 61 -158.5t202 -60.5q110 0 175.5 36t91.5 84t26 89q0 78 -106 78 q-36 0 -86 -8q-34 -4 -41 -4q-28 0 -45.5 25.5t-17.5 84.5q0 79 33 138.5t87 91t116 31.5q40 0 64 -13t32.5 -31.5t6.5 -36.5q-13 4 -35 7.5t-46 3.5q-99 0 -145 -61t-46 -169q0 -23 1 -34l8 39q66 11 112 11q83 0 140 -31.5zM483 183l9 3v-1zM308 -394q-17 17 -17 40 q0 24 17 41t40 17q24 0 40.5 -17t16.5 -41q0 -23 -16.5 -40t-40.5 -17q-23 0 -40 17zM454 -394q-17 17 -17 40q0 24 17 41t40 17q24 0 40.5 -17t16.5 -41q0 -23 -16.5 -40t-40.5 -17q-23 0 -40 17z" />
<glyph unicode="&#x64b;" d="M-92 545q-14 0 -21 15q-1 2 -1 7q0 8 4.5 14t11.5 8l181 63q6 2 9 2q14 0 21 -15q1 -2 1 -7q0 -8 -4.5 -14t-11.5 -8l-181 -63q-6 -2 -9 -2zM-92 634q-14 0 -21 15q-1 2 -1 7q0 8 4.5 14t11.5 8l181 63q6 2 9 2q14 0 21 -15q1 -2 1 -7q0 -8 -4.5 -14t-11.5 -8l-181 -63 q-6 -2 -9 -2z" />
<glyph unicode="&#x64c;" d="M-43 559.5q-31 20.5 -47 46.5l-10 -8q-7 -5 -13 -5q-10 0 -19 9q-6 6 -6 15q0 8 10 17l31 24q8 5 14 5q8 0 14 -5t7 -9q12 -25 35.5 -45t49.5 -20q23 0 40 9q-29 2 -50 24t-21 53t22.5 53t53.5 22q29 0 52.5 -19.5t23.5 -65.5q0 -54 -35 -87.5t-83 -33.5q-38 0 -69 20.5z M90 648q9 9 9 22q0 12 -9 21t-22 9t-22 -9t-9 -21q0 -13 9 -22t22 -9t22 9z" />
<glyph unicode="&#x64d;" d="M-92 -157q-14 0 -21 15q-1 2 -1 7q0 8 4.5 14t11.5 8l181 63q6 2 9 2q14 0 21 -15q1 -2 1 -7q0 -8 -4.5 -14t-11.5 -8l-181 -63q-6 -2 -9 -2zM-92 -246q-14 0 -21 15q-1 2 -1 7q0 8 4.5 14t11.5 8l181 63q6 2 9 2q14 0 21 -15q1 -2 1 -7q0 -8 -4.5 -14t-11.5 -8l-181 -63 q-6 -2 -9 -2z" />
<glyph unicode="&#x64e;" d="M-92 545q-14 0 -21 15q-1 2 -1 7q0 8 4.5 14t11.5 8l181 63q6 2 9 2q14 0 21 -15q1 -2 1 -7q0 -8 -4.5 -14t-11.5 -8l-181 -63q-6 -2 -9 -2z" />
<glyph unicode="&#x64f;" d="M-105.5 563.5q-6.5 6.5 -6.5 16.5q0 9 6.5 16t16.5 7l83 4q-16 10 -26 27t-10 37q0 32 22.5 54t53.5 22t54 -21.5t23 -60.5q0 -57 -55 -82.5t-145 -25.5q-10 0 -16.5 6.5zM56 649.5q9 9.5 9 21.5q0 13 -9 22t-22 9t-21.5 -9t-8.5 -22q0 -12 9 -21.5t21 -9.5q13 0 22 9.5z " />
<glyph unicode="&#x650;" d="M-92 -157q-14 0 -21 15q-1 2 -1 7q0 8 4.5 14t11.5 8l181 63q6 2 9 2q14 0 21 -15q1 -2 1 -7q0 -8 -4.5 -14t-11.5 -8l-181 -63q-6 -2 -9 -2z" />
<glyph unicode="&#x651;" d="M-89 578q-19 20 -30.5 44.5t-14.5 39.5q-1 13 5.5 21.5t16.5 8.5q7 0 13 -4.5t9 -13.5q11 -34 21.5 -52t25.5 -18q16 0 16 23q0 12 -3 24.5t-4 15.5q-2 12 5 20.5t19 8.5q13 0 21 -17q3 -6 9 -20t13 -22.5t16 -8.5q17 0 17 30q0 16 -3.5 33.5t-4.5 20.5q-2 13 4.5 20.5 t17.5 7.5q16 0 21 -17q3 -6 5.5 -24t2.5 -37q0 -34 -13 -57t-44 -23q-14 0 -22.5 4t-19.5 11q-8 -16 -22 -27.5t-33 -11.5q-25 0 -44 20z" />
<glyph unicode="&#x652;" d="M-67.5 583q-27.5 28 -27.5 67q0 40 27.5 67.5t67.5 27.5t67.5 -27.5t27.5 -67.5q0 -39 -27.5 -67t-67.5 -28t-67.5 28zM35.5 615.5q14.5 14.5 14.5 34.5q0 21 -14.5 35t-35.5 14t-35.5 -14t-14.5 -35q0 -20 14.5 -34.5t35.5 -14.5t35.5 14.5z" />
<glyph unicode="&#x653;" d="M21 545q-20 6 -46 18q-23 10 -39 15.5t-33 5.5q-19 0 -32 -8t-18 -8t1.5 18t26.5 33t54 15q20 0 37.5 -5t42.5 -15q22 -9 39.5 -14t36.5 -5q15 0 24 3t19 9t17 6q3 -3 -4 -22.5t-27 -35.5t-56 -16q-23 0 -43 6z" />
<glyph unicode="&#x654;" d="M-100 560q0 12 9 19.5t21 7.5q8 0 14 -3q-12 13 -22.5 36.5t-10.5 48.5q0 42 28.5 68t79.5 26q62 0 62 -40q0 -16 -9 -24t-20 -8q-9 0 -13 4q1 18 -11.5 29t-28.5 14q-12 -3 -21.5 -18.5t-9.5 -42.5q0 -77 82 -77q24 0 34 4q21 0 21 -19q0 -6 -3 -11.5t-7 -5.5 q-66 -6 -123.5 -14.5t-63.5 -14.5q-8 13 -8 21z" />
<glyph unicode="&#x655;" d="M-100 -203q0 12 9 19.5t21 7.5q8 0 14 -3q-13 14 -23 37t-10 48q0 42 28.5 68t79.5 26q62 0 62 -40q0 -16 -9 -24t-20 -8q-9 0 -13 4q1 18 -11.5 29t-28.5 14q-12 -3 -21.5 -18.5t-9.5 -42.5q0 -77 82 -77q24 0 34 4q21 0 21 -19q0 -6 -3 -11.5t-7 -5.5 q-66 -6 -123.5 -14.5t-63.5 -14.5q-8 13 -8 21z" />
<glyph unicode="&#x656;" d="M4 -165.5q-7 6.5 -7 16.5q0 24 -6 46t-28 45q-6 7 -6 16q0 12 8 17q6 6 14 6q10 0 18 -8q30 -32 38 -62t8 -60q0 -10 -6.5 -16.5t-16.5 -6.5q-9 0 -16 6.5z" />
<glyph unicode="&#x658;" d="M-77 514q-27 29 -27 69q0 30 13 54t32 24q9 0 20 -6q-8 -7 -18.5 -26.5t-10.5 -47.5q0 -41 23.5 -57.5t52.5 -16.5q39 0 50.5 25t11.5 61v145q0 15 16 15q18 0 18 -15v-151q0 -49 -24.5 -75.5t-74.5 -26.5q-55 0 -82 29z" />
<glyph unicode="&#x660;" horiz-adv-x="277" d="M86.5 139.5q-21.5 21.5 -21.5 52.5q0 30 21.5 51.5t51.5 21.5q31 0 52.5 -21.5t21.5 -51.5q0 -31 -21.5 -52.5t-52.5 -21.5q-30 0 -51.5 21.5z" />
<glyph unicode="&#x661;" horiz-adv-x="213" d="M82 14q-11 14 -11 38v428q0 34 -6.5 61t-14.5 39l68 34l45 -23v-538q0 -26 -13.5 -39.5t-34.5 -13.5q-22 0 -33 14z" />
<glyph unicode="&#x662;" horiz-adv-x="464" d="M82 14q-11 14 -11 38v428q0 34 -6.5 61t-14.5 39l68 34h267q15 0 22 -10.5t7 -35.5q0 -28 -7.5 -37t-20.5 -9l-223 11v-480q0 -26 -13.5 -39.5t-34.5 -13.5q-22 0 -33 14z" />
<glyph unicode="&#x663;" horiz-adv-x="581" d="M82 14q-11 14 -11 38v430q0 36 -6.5 62.5t-14.5 37.5l69 33l45 -22v-181q16 -6 33 -6q32 0 50.5 37.5t18.5 74.5q0 22 -7 50q0 12 14 23t30 11q20 0 36 -19t16 -65q0 -26 -5.5 -52.5t-12.5 -42.5q3 -6 11 -11.5t21 -5.5q35 0 53.5 37.5t18.5 74.5q0 22 -7 50 q0 13 16 23.5t33 10.5t32.5 -17t15.5 -67q0 -54 -27.5 -113t-116.5 -59q-30 0 -61 9t-51 20q-13 -11 -34 -20t-43 -9q-7 0 -34 3v-296q0 -26 -14 -39.5t-35 -13.5q-22 0 -33 14z" />
<glyph unicode="&#x664;" horiz-adv-x="397" d="M132.5 18q-44.5 36 -63.5 78.5t-19 60.5q0 6 3 10.5t18.5 20.5t41.5 43l71 71q-61 70 -75 86q-25 28 -38.5 44.5t-15.5 21t-2 12.5q0 28 29.5 63t78 60t101.5 25q44 0 64.5 -18t20.5 -42q0 -9 -1 -13q-7 5 -25 9t-42 4q-60 0 -99 -25.5t-51 -56.5l144 -159q8 -13 8 -17 t-3.5 -9t-7.5 -8l-130 -129q2 -25 18 -50t48 -41.5t78 -16.5q24 0 40.5 4t21.5 9l1 -8q0 -26 -24 -45.5t-74 -19.5q-72 0 -116.5 36z" />
<glyph unicode="&#x665;" horiz-adv-x="501" d="M118 19.5q-44 37.5 -56 89.5t-12 121q0 384 201 384q200 0 200 -384q0 -69 -12 -121t-56.5 -89.5t-132.5 -37.5t-132 37.5zM336.5 105.5q24.5 63.5 24.5 172.5q0 135 -30 205.5t-81 70.5q-50 0 -80 -70.5t-30 -204.5q0 -111 25 -174t86 -63t85.5 63.5z" />
<glyph unicode="&#x666;" horiz-adv-x="464" d="M314.5 13.5q-13.5 13.5 -13.5 39.5v480l-223 -11q-13 0 -20.5 9t-7.5 37q0 25 7 35.5t22 10.5h267l68 -34q-8 -12 -14.5 -39t-6.5 -61v-428q0 -24 -11 -38t-33 -14q-21 0 -34.5 13.5z" />
<glyph unicode="&#x667;" horiz-adv-x="527" d="M140 65q-48 65 -69 160.5t-21 192.5q0 119 25.5 157t56.5 38q18 0 36 -4q-11 -22 -19.5 -72t-8.5 -116q0 -85 14.5 -168.5t42.5 -138t67 -54.5t67 54.5t42 138t14 167.5q0 66 -8.5 116.5t-19.5 72.5q20 4 37 4q30 0 55.5 -38t25.5 -158q0 -97 -20.5 -192.5t-68.5 -160 t-124 -64.5t-124 65z" />
<glyph unicode="&#x668;" horiz-adv-x="527" d="M75.5 38q-25.5 38 -25.5 157q0 97 21 192.5t69 160.5t124 65t124 -64.5t68.5 -160t20.5 -192.5q0 -120 -25.5 -158t-55.5 -38q-17 0 -37 4q11 22 19.5 72.5t8.5 116.5q0 84 -14 167.5t-42 138t-67 54.5t-67 -54.5t-42.5 -138t-14.5 -168.5q0 -66 8.5 -116t19.5 -72 q-18 -4 -36 -4q-31 0 -56.5 38z" />
<glyph unicode="&#x669;" horiz-adv-x="480" d="M331 14.5q-12 14.5 -12 38.5v259q-23 -8 -55.5 -15t-62.5 -7q-77 0 -114 45.5t-37 117.5q0 76 42 123t133 47q33 0 62 -6t45 -14l31 12l67 -33q-8 -8 -14.5 -34t-6.5 -66v-430q0 -23 -12 -37.5t-33 -14.5t-33 14.5zM301 362q18 12 18 27v22q0 72 -16.5 112t-69.5 40 q-57 0 -75 -40t-18 -77q0 -59 34.5 -77.5t71.5 -18.5t55 12z" />
<glyph unicode="&#x66a;" horiz-adv-x="748" d="M221.5 9q-15.5 31 -15.5 64q0 35 14 67l224 453h42q50 0 50 -35q0 -9 -4 -19.5t-10 -21.5l-178 -353q-17 -39 -17 -66q0 -28 15 -76q-9 -17 -25.5 -30.5t-35.5 -13.5q-44 0 -59.5 31zM74 387q-34 34 -34 83t34 83.5t83 34.5t83.5 -34.5t34.5 -83.5t-34.5 -83t-83.5 -34 t-83 34zM206.5 420.5q20.5 20.5 20.5 49.5t-20.5 49.5t-49.5 20.5t-49.5 -20.5t-20.5 -49.5t20.5 -49.5t49.5 -20.5t49.5 20.5zM507 7.5q-34 34.5 -34 83.5t34 83t83 34t83.5 -34t34.5 -83t-34.5 -83.5t-83.5 -34.5t-83 34.5zM639.5 41.5q20.5 20.5 20.5 49.5t-20.5 49.5 t-49.5 20.5t-49.5 -20.5t-20.5 -49.5t20.5 -49.5t49.5 -20.5t49.5 20.5z" />
<glyph unicode="&#x66b;" horiz-adv-x="237" d="M61 -140q40 27 60 59.5t20 75.5q-15 -10 -30 -10q-23 0 -39 16t-16 39q0 26 17 43t43 17q30 0 47.5 -18.5t17.5 -51.5q0 -123 -110 -185z" />
<glyph unicode="&#x66c;" horiz-adv-x="277" d="M133 -5q0 2 4 8q13 17 11 34q-3 -1 -9 -1q-17 0 -28 11t-11 27t11.5 27t27.5 11q14 0 26 -10t12 -33q0 -25 -12 -52.5t-25 -27.5q-7 0 -7 6z" />
<glyph unicode="&#x66d;" horiz-adv-x="424" d="M202 480l-115 -105l-40 70l145 50l-145 50l40 70l115 -105l-30 150h80l-30 -150l115 105l40 -70l-145 -50l145 -50l-40 -70l-115 105l30 -150h-80z" />
<glyph unicode="&#x66e;" horiz-adv-x="744" d="M96 39q-31 39 -31 102v243q0 43 45 43t45 -44v-213q0 -56 17.5 -78t65.5 -22h241q69 0 89.5 58.5t20.5 111.5q0 63 -16.5 119.5t-68.5 100.5q22 20 55 20q63 0 91.5 -62t28.5 -148q0 -110 -47 -190t-160 -80h-277q-68 0 -99 39z" />
<glyph unicode="&#x66f;" horiz-adv-x="866" d="M719.5 465q38.5 -15 60 -61.5t21.5 -137.5v-230q0 -128 -86.5 -200t-271.5 -72q-229 0 -303.5 93.5t-74.5 211.5q0 85 25.5 137t76.5 52q18 0 32 -6.5t19 -14.5q-27 -22 -44.5 -75t-17.5 -114q0 -97 65.5 -155.5t226.5 -58.5q139 0 195.5 44t64.5 122h-122 q-87 0 -127 70.5t-40 187.5q0 94 24.5 142.5t66.5 64t107 15.5q64 0 102.5 -15zM534 127q24 -57 105 -57h71v230q0 61 -23 85.5t-65 24.5q-56 0 -84 -40t-28 -126q0 -60 24 -117z" />
<glyph unicode="&#x670;" d="M4 501.5q-7 6.5 -7 16.5q0 25 -6 46.5t-28 44.5q-6 8 -6 16q0 12 8 17q6 6 14 6q10 0 18 -8q30 -32 38 -62t8 -60q0 -10 -6.5 -16.5t-16.5 -6.5q-9 0 -16 6.5z" />
<glyph unicode="&#x671;" horiz-adv-x="245" d="M112.5 15.5q-7.5 15.5 -7.5 48.5v387q0 43 -17 76t-38 47q6 8 25.5 16.5t40.5 8.5q33 0 56 -25.5t23 -85.5v-424q0 -32 -8.5 -48t-37.5 -16t-36.5 15.5zM7 656q0 18 8 18h25q0 9 10.5 34t35 46.5t62.5 21.5q39 0 57.5 -23t18.5 -57q0 -27 -12 -43t-33 -16h-164 q-8 0 -8 19zM153 674q21 0 21 28q0 16 -9 26.5t-29 10.5q-21 0 -38 -11t-26.5 -26.5t-9.5 -27.5h91z" />
<glyph unicode="&#x679;" horiz-adv-x="744" d="M96 39q-31 39 -31 102v243q0 43 45 43t45 -44v-213q0 -56 17.5 -78t65.5 -22h241q69 0 89.5 58.5t20.5 111.5q0 63 -16.5 119.5t-68.5 100.5q22 20 55 20q63 0 91.5 -62t28.5 -148q0 -110 -47 -190t-160 -80h-277q-68 0 -99 39zM245 519q0 18 8 18h16v127q0 17 -13 30 q1 2 6.5 4t10.5 2q9 0 16.5 -6.5t7.5 -20.5v-82q15 22 33.5 35t48.5 13q39 0 58 -23t19 -57q0 -27 -12 -43t-33 -16h-158q-8 0 -8 19zM385 537q10 0 15.5 7.5t5.5 20.5q0 16 -9 26.5t-29 10.5q-21 0 -38 -11t-27 -26.5t-10 -27.5h92z" />
<glyph unicode="&#x67e;" horiz-adv-x="744" d="M96 39q-31 39 -31 102v243q0 43 45 43t45 -44v-213q0 -56 17.5 -78t65.5 -22h241q69 0 89.5 58.5t20.5 111.5q0 63 -16.5 119.5t-68.5 100.5q22 20 55 20q63 0 91.5 -62t28.5 -148q0 -110 -47 -190t-160 -80h-277q-68 0 -99 39zM237 -178q-17 17 -17 40q0 24 17 41t40 17 q24 0 40.5 -17t16.5 -41q0 -23 -16.5 -40t-40.5 -17q-23 0 -40 17zM383 -178q-17 17 -17 40q0 24 17 41t40 17q24 0 40.5 -17t16.5 -41q0 -23 -16.5 -40t-40.5 -17q-23 0 -40 17zM312.5 -298.5q-15.5 15.5 -15.5 37.5t15.5 37.5t37.5 15.5t37.5 -15.5t15.5 -37.5 t-15.5 -37.5t-37.5 -15.5t-37.5 15.5z" />
<glyph unicode="&#x686;" horiz-adv-x="588" d="M468.5 417q69.5 -63 69.5 -184q0 -109 -53.5 -171t-156.5 -62h-189q0 -83 19 -146t67 -103q-7 -6 -24.5 -11.5t-34.5 -5.5q-43 0 -69 37t-36.5 85.5t-10.5 85.5q0 128 117 128h97q58 0 92.5 6.5t63 41.5t28.5 113q0 90 -51 134.5t-179 44.5l-58 -1q-27 0 -43 15.5 t-23 36.5q-7 22 -5 39q14 -10 30 -17t40 -7l28 1q24 3 63 3q149 0 218.5 -63zM247 -157q-17 17 -17 40q0 24 17 41t40 17q24 0 40.5 -17t16.5 -41q0 -23 -16.5 -40t-40.5 -17q-23 0 -40 17zM393 -157q-17 17 -17 40q0 24 17 41t40 17q24 0 40.5 -17t16.5 -41 q0 -23 -16.5 -40t-40.5 -17q-23 0 -40 17zM322.5 -277.5q-15.5 15.5 -15.5 37.5t15.5 37.5t37.5 15.5t37.5 -15.5t15.5 -37.5t-15.5 -37.5t-37.5 -15.5t-37.5 15.5z" />
<glyph unicode="&#x688;" horiz-adv-x="484" d="M341.5 447q47.5 -33 70 -84t22.5 -104q0 -54 -22 -114t-69.5 -102.5t-119.5 -42.5h-146q-14 0 -20.5 10t-6.5 23q0 15 9 26t29 11h53q103 0 153 54.5t50 134.5q0 67 -33.5 109.5t-89.5 41.5q-37 -12 -57 -36t-20 -67q-26 -2 -46 7q-33 15 -33 55q0 48 44.5 79.5 t114.5 31.5t117.5 -33zM197 407h-2h2zM137 564q0 18 8 18h16v127q0 17 -13 30q1 2 6.5 4t10.5 2q9 0 16.5 -6.5t7.5 -20.5v-82q15 22 33.5 35t48.5 13q39 0 58 -23t19 -57q0 -27 -12 -43t-33 -16h-158q-8 0 -8 19zM277 582q10 0 15.5 7.5t5.5 20.5q0 16 -9 26.5t-29 10.5 q-21 0 -38 -11t-27 -26.5t-10 -27.5h92z" />
<glyph unicode="&#x691;" horiz-adv-x="265" d="M-7 -210.5q-28 18.5 -38 33.5q29 -8 62 -8q39 0 65 16t37.5 39t11.5 45l-1 523q0 42 45 42q19 0 32 -9.5t13 -31.5v-512q0 -31 -13 -66.5t-46 -62.5t-89 -27q-51 0 -79 18.5zM70 564q0 18 8 18h16v127q0 17 -13 30q1 2 6.5 4t10.5 2q9 0 16.5 -6.5t7.5 -20.5v-82 q15 22 33.5 35t48.5 13q39 0 58 -23t19 -57q0 -27 -12 -43t-33 -16h-158q-8 0 -8 19zM210 582q10 0 15.5 7.5t5.5 20.5q0 16 -9 26.5t-29 10.5q-21 0 -38 -11t-27 -26.5t-10 -27.5h92z" />
<glyph unicode="&#x698;" horiz-adv-x="265" d="M-7 -210.5q-28 18.5 -38 33.5q29 -8 62 -8q39 0 65 16t37.5 39t11.5 45l-1 523q0 42 45 42q19 0 32 -9.5t13 -31.5v-512q0 -31 -13 -66.5t-46 -62.5t-89 -27q-51 0 -79 18.5zM212.5 763.5q15.5 -15.5 15.5 -37.5t-15.5 -37.5t-37.5 -15.5t-37.5 15.5t-15.5 37.5 t15.5 37.5t37.5 15.5t37.5 -15.5zM142.5 643q16.5 -17 16.5 -40q0 -24 -16.5 -41t-40.5 -17q-23 0 -40 17t-17 41q0 23 17 40t40 17q24 0 40.5 -17zM288.5 643q16.5 -17 16.5 -40q0 -24 -16.5 -41t-40.5 -17q-23 0 -40 17t-17 41q0 23 17 40t40 17q24 0 40.5 -17z" />
<glyph unicode="&#x6a1;" horiz-adv-x="957" d="M812.5 463.5q39.5 -16.5 59.5 -62.5t20 -135v-125q0 -63 -31 -102t-99 -39h-503q-62 0 -105.5 28t-66 75t-22.5 104q0 68 28.5 117.5t73.5 49.5q26 0 49 -18q-26 -18 -43.5 -59.5t-17.5 -99.5q0 -57 19.5 -85t45.5 -35t59 -7h279q-26 38 -37 80t-11 99q0 98 24.5 148.5 t65.5 66.5t104 16q69 0 108.5 -16.5zM802 300q0 62 -23 86.5t-65 24.5q-114 0 -114 -160q0 -57 20 -119t81 -62h18q48 0 65.5 22t17.5 78v130z" />
<glyph unicode="&#x6a4;" horiz-adv-x="957" d="M812.5 463.5q39.5 -16.5 59.5 -62.5t20 -135v-125q0 -63 -31 -102t-99 -39h-503q-62 0 -105.5 28t-66 75t-22.5 104q0 68 28.5 117.5t73.5 49.5q26 0 49 -18q-26 -18 -43.5 -59.5t-17.5 -99.5q0 -57 19.5 -85t45.5 -35t59 -7h279q-26 38 -37 80t-11 99q0 98 24.5 148.5 t65.5 66.5t104 16q69 0 108.5 -16.5zM802 300q0 62 -23 86.5t-65 24.5q-114 0 -114 -160q0 -57 20 -119t81 -62h18q48 0 65.5 22t17.5 78v130zM760.5 763.5q15.5 -15.5 15.5 -37.5t-15.5 -37.5t-37.5 -15.5t-37.5 15.5t-15.5 37.5t15.5 37.5t37.5 15.5t37.5 -15.5z M690.5 643q16.5 -17 16.5 -40q0 -24 -16.5 -41t-40.5 -17q-23 0 -40 17t-17 41q0 23 17 40t40 17q24 0 40.5 -17zM836.5 643q16.5 -17 16.5 -40q0 -24 -16.5 -41t-40.5 -17q-23 0 -40 17t-17 41q0 23 17 40t40 17q24 0 40.5 -17z" />
<glyph unicode="&#x6a9;" horiz-adv-x="830" d="M765 163q0 -75 -37 -118t-108 -43h-425q-68 0 -99 39t-31 102v129q0 43 45 43t45 -44v-99q0 -56 17.5 -78t65.5 -22h344q45 0 69 26t24 67q0 46 -31 72.5t-96 26.5h-98q-71 0 -108 42.5t-37 119.5q0 83 47.5 126.5t153.5 43.5l108 -2l62 -2q24 0 40 7t30 17q2 -15 -4 -36 q-6 -22 -22.5 -38.5t-42.5 -16.5l-149 2q-72 0 -102.5 -22.5t-30.5 -72.5q0 -47 23.5 -72.5t69.5 -25.5h78q199 0 199 -171z" />
<glyph unicode="&#x6af;" horiz-adv-x="830" d="M765 163q0 -75 -37 -118t-108 -43h-425q-68 0 -99 39t-31 102v129q0 43 45 43t45 -44v-99q0 -56 17.5 -78t65.5 -22h344q45 0 69 26t24 67q0 46 -31 72.5t-96 26.5h-98q-71 0 -108 42.5t-37 119.5q0 83 47.5 126.5t153.5 43.5l108 -2l62 -2q24 0 40 7t30 17q2 -15 -4 -36 q-6 -22 -22.5 -38.5t-42.5 -16.5l-149 2q-72 0 -102.5 -22.5t-30.5 -72.5q0 -47 23.5 -72.5t69.5 -25.5h78q199 0 199 -171zM369 659q6 22 22.5 38.5t42.5 16.5h231q24 0 40 7t30 17q2 -15 -4 -36q-6 -22 -22.5 -38.5t-42.5 -16.5h-231q-24 0 -40 -7t-30 -17q-2 15 4 36z " />
<glyph unicode="&#x6ba;" horiz-adv-x="679" d="M187 -198q-64 38 -93 97t-29 127q0 50 15 98t42.5 78.5t62.5 30.5q25 0 51 -16q-23 -21 -50 -71.5t-27 -125.5q0 -70 32 -111.5t78 -58t92 -16.5q72 0 108 36.5t45.5 84.5t9.5 107v378q0 24 14.5 32t30.5 8t30.5 -8t14.5 -32v-404q0 -130 -65 -201t-199 -71 q-99 0 -163 38z" />
<glyph unicode="&#x6be;" horiz-adv-x="701" d="M445 556.5q80 -24.5 135.5 -90t55.5 -178.5q0 -78 -28 -144t-82.5 -105t-129.5 -39q-37 0 -87.5 7t-65.5 19q-61 -26 -139 -26h-39v70h15q2 0 16.5 -4t36.5 -4q17 0 37 4q-28 26 -46 71.5t-18 104.5q0 80 34 131t101 51q66 0 100.5 -51t34.5 -130q0 -60 -19 -106.5 t-49 -69.5q25 -5 46 -5q60 0 103.5 29.5t66 79t22.5 109.5q0 86 -44.5 136.5t-108 70.5t-129.5 20h-47q-43 0 -61.5 22t-18.5 70q18 -18 39 -22t47 -3l62 3q80 4 160 -20.5zM199 318q-14 -36 -14 -81q0 -87 56 -136q56 49 56 136q0 45 -14 81t-42 36t-42 -36zM199 79l-5 -6 q8 5 5 6z" />
<glyph unicode="&#x6c1;" horiz-adv-x="516" d="M111.5 48.5q-46.5 57.5 -46.5 186.5t47 187t146 58t146 -58t47 -187t-46.5 -186.5t-146.5 -57.5t-146.5 57.5zM339.5 114.5q21.5 53.5 21.5 136.5q0 77 -21 118t-83 41q-59 0 -80.5 -39.5t-21.5 -121.5q0 -81 21.5 -134.5t81.5 -53.5t81.5 53.5z" />
<glyph unicode="&#x6c2;" horiz-adv-x="516" d="M111.5 48.5q-46.5 57.5 -46.5 186.5t47 187t146 58t146 -58t47 -187t-46.5 -186.5t-146.5 -57.5t-146.5 57.5zM339.5 114.5q21.5 53.5 21.5 136.5q0 77 -21 118t-83 41q-59 0 -80.5 -39.5t-21.5 -121.5q0 -81 21.5 -134.5t81.5 -53.5t81.5 53.5zM155 566q0 12 9 19.5 t21 7.5q8 0 14 -3q-12 13 -22.5 36.5t-10.5 48.5q0 42 28.5 68t79.5 26q62 0 62 -40q0 -16 -9 -24t-20 -8q-9 0 -13 4q1 18 -11.5 29t-28.5 14q-12 -3 -21.5 -18.5t-9.5 -42.5q0 -77 82 -77q24 0 34 4q21 0 21 -19q0 -6 -3 -11.5t-7 -5.5q-66 -6 -123.5 -14.5t-63.5 -14.5 q-8 13 -8 21z" />
<glyph unicode="&#x6c3;" horiz-adv-x="516" d="M111.5 48.5q-46.5 57.5 -46.5 186.5t47 187t146 58t146 -58t47 -187t-46.5 -186.5t-146.5 -57.5t-146.5 57.5zM339.5 114.5q21.5 53.5 21.5 136.5q0 77 -21 118t-83 41q-59 0 -80.5 -39.5t-21.5 -121.5q0 -81 21.5 -134.5t81.5 -53.5t81.5 53.5zM146 562q-17 17 -17 40 q0 24 17 41t40 17q24 0 40.5 -17t16.5 -41q0 -23 -16.5 -40t-40.5 -17q-23 0 -40 17zM292 562q-17 17 -17 40q0 24 17 41t40 17q24 0 40.5 -17t16.5 -41q0 -23 -16.5 -40t-40.5 -17q-23 0 -40 17z" />
<glyph unicode="&#x6cc;" horiz-adv-x="866" d="M744 164.5q57 -31.5 57 -112.5q0 -67 -43 -133.5t-131.5 -110.5t-215.5 -44q-207 0 -276.5 100.5t-69.5 214.5q0 77 26 127.5t77 50.5q18 0 31.5 -6t18.5 -14q-24 -25 -43 -74t-19 -110q0 -98 61 -158.5t202 -60.5q110 0 175.5 36t91.5 84t26 89q0 78 -106 78 q-36 0 -86 -8q-34 -4 -41 -4q-28 0 -45.5 25.5t-17.5 84.5q0 79 33 138.5t87 91t116 31.5q40 0 64 -13t32.5 -31.5t6.5 -36.5q-13 4 -35 7.5t-46 3.5q-99 0 -145 -61t-46 -169q0 -23 1 -34l8 39q66 11 112 11q83 0 140 -31.5zM483 183l9 3v-1z" />
<glyph unicode="&#x6d2;" horiz-adv-x="535" d="M189.5 -228.5q-51.5 7.5 -88 40.5t-36.5 103q0 77 41.5 111t82 39t99.5 5h35q42 0 53.5 34.5t11.5 88.5v47h90v-47q1 -64 -6 -103t-35.5 -64.5t-88.5 -25.5h-43q-64 0 -107 -15t-43 -70q0 -46 40 -63.5t124 -17.5h266v-70h-261q-83 0 -134.5 7.5z" />
<glyph unicode="&#x6d3;" horiz-adv-x="535" d="M189.5 -228.5q-51.5 7.5 -88 40.5t-36.5 103q0 77 41.5 111t82 39t99.5 5h35q42 0 53.5 34.5t11.5 88.5v47h90v-47q1 -64 -6 -103t-35.5 -64.5t-88.5 -25.5h-43q-64 0 -107 -15t-43 -70q0 -46 40 -63.5t124 -17.5h266v-70h-261q-83 0 -134.5 7.5zM75 161q0 12 9 19.5 t21 7.5q8 0 14 -3q-12 13 -22.5 36.5t-10.5 48.5q0 42 28.5 68t79.5 26q62 0 62 -40q0 -16 -9 -24t-20 -8q-9 0 -13 4q1 18 -11.5 29t-28.5 14q-12 -3 -21.5 -18.5t-9.5 -42.5q0 -77 82 -77q24 0 34 4q21 0 21 -19q0 -6 -3 -11.5t-7 -5.5q-66 -6 -123.5 -14.5t-63.5 -14.5 q-8 13 -8 21z" />
<glyph unicode="&#x6d4;" horiz-adv-x="220" d="M72 2q-16 16 -16 39q0 22 16 38t38 16q23 0 38.5 -16t15.5 -38q0 -23 -16 -39t-38 -16t-38 16z" />
<glyph unicode="&#x6f0;" horiz-adv-x="277" d="M86.5 139.5q-21.5 21.5 -21.5 52.5q0 30 21.5 51.5t51.5 21.5q31 0 52.5 -21.5t21.5 -51.5q0 -31 -21.5 -52.5t-52.5 -21.5q-30 0 -51.5 21.5z" />
<glyph unicode="&#x6f1;" horiz-adv-x="213" d="M82 14q-11 14 -11 38v428q0 34 -6.5 61t-14.5 39l68 34l45 -23v-538q0 -26 -13.5 -39.5t-34.5 -13.5q-22 0 -33 14z" />
<glyph unicode="&#x6f2;" horiz-adv-x="464" d="M82 14q-11 14 -11 38v428q0 34 -6.5 61t-14.5 39l68 34h267q15 0 22 -10.5t7 -35.5q0 -28 -7.5 -37t-20.5 -9l-223 11v-480q0 -26 -13.5 -39.5t-34.5 -13.5q-22 0 -33 14z" />
</font>
</defs>
</svg>
