<?xml version="1.0" standalone="no"?>
<!DOCTYPE svg PUBLIC "-//W3C//DTD SVG 1.1//EN" "http://www.w3.org/Graphics/SVG/1.1/DTD/svg11.dtd" >
<svg xmlns="http://www.w3.org/2000/svg" xmlns:xlink="http://www.w3.org/1999/xlink" version="1.1">
<metadata></metadata>
<defs>
<font id="arahalaboshesha-regularRg" horiz-adv-x="0" >
<font-face units-per-em="2048" ascent="1638" descent="-410" />
<missing-glyph horiz-adv-x="399" />
<glyph unicode="&#xfedf;&#xfee0;&#xfeea;" horiz-adv-x="2258" arabic-form="isolated" d="M541.5 215q-43.5 0 -70.5 26.5t-27 63.5t29 65.5t76 41.5q102 29 196 -15q109 -49 112 -166.5t-136 -190.5t-303 -17q-158 49 -265.5 176t-87 266t137 204.5t301.5 80.5q88 6 323 2q25 72 83.5 108.5t170.5 40.5q-162 -168 -112 -379q41 -172 188 -282 q63 -47 119.5 -55.5t91.5 28.5q31 41 25 137t-76 256q-93 234 -35 385q34 86 107 149.5t151 61.5q18 -2 18.5 -4t-16.5 -6q-49 -12 -65 -99.5t0 -150.5q20 -121 97 -306t44 -341q102 -84 183 -105.5t122 19.5q91 91 -35 397q-93 233 -33 389q27 78 102.5 143.5t153.5 63.5 q18 -2 18.5 -4t-15.5 -6q-49 -12 -65.5 -99.5t-0.5 -150.5q20 -121 96 -307q98 -229 19.5 -401.5t-270.5 -221.5t-402 64q-240 -164 -438.5 -7t-241.5 459q-327 52 -459 -58q-70 -58 -81 -132t43.5 -134.5t158.5 -80.5t171 8.5t87 81.5t-11.5 94t-105.5 41q25 -45 -2 -89 t-70.5 -44z" />
<glyph unicode="&#xfedf;&#xfe82;" horiz-adv-x="1021" arabic-form="isolated" d="M680 1188q49 17 96 12q0 -2 -16 -6q-51 -12 -64.5 -98.5t0.5 -160t78 -251.5l53 -147q59 -160 94.5 -309.5t36.5 -225.5q12 -223 -108.5 -325.5t-302.5 -51.5q-80 23 -181.5 106t-132.5 82t-30.5 12t20.5 28q55 37 111 -9q92 -80 140 -87l52 -8q32 -5 60 5 q173 32 110 379q-20 98 -53 199l-68 182q-84 207 -94 333t64 228q55 74 135 113zM178 1141q81 69 170 59q0 -2 -16 -6q-53 -14 -66.5 -99.5t-1.5 -150.5q32 -150 104 -322q140 -332 -188 -657l-12 17q49 92 61 168q18 131 -53 294q-27 59 -70 162q-98 231 -34 391 q37 82 106 144zM260 1407l139 -70q-70 -47 -178 -28q-49 6 -76 14q-72 12 -125 -12q-29 -16 -61 -49q41 104 127 118q33 4 73 0t67 5.5t34 21.5z" />
<glyph unicode="&#xfee0;&#xfe82;" horiz-adv-x="1099" arabic-form="final" d="M1100 170q23 0 37 -24.5t14 -61.5t-14.5 -60.5t-36.5 -23.5q-74 0 -139 10q12 -207 -101 -323.5t-311 -61.5q-80 23 -181.5 106t-140.5 81q-33 0 -21 21q5 9 19 20q55 37 117 -14.5t117 -75t127 -9.5q174 36 112 379q-18 98 -53 199l-67 182q-84 207 -95.5 332t55 215 t142.5 127q49 17 98 12q0 -2 -16 -6q-80 -23 -51 -242q18 -162 90 -399.5t112 -310.5q41 -72 187 -72zM332 1202q25 -2 0 -8q-51 -12 -64.5 -98.5t2.5 -181.5t92 -279q78 -178 25 -361q-47 -152 -205 -309l-12 17q51 94 59 168q18 131 -53 294q-27 59 -70 162 q-94 233 -32 391q37 82 108.5 144.5t149.5 60.5zM262 1407l139 -70q-70 -47 -180 -28q-49 6 -76 14q-70 12 -122 -12q-27 -16 -62 -49q41 104 127 118q35 4 74 0t66.5 5.5t33.5 21.5z" />
<glyph unicode="&#xfedf;&#xfe84;" horiz-adv-x="1021" arabic-form="isolated" d="M680 1188q49 17 96 12q0 -2 -16 -6q-51 -12 -64.5 -98.5t0.5 -160t78 -251.5l53 -147q59 -160 94.5 -309.5t36.5 -225.5q12 -223 -108.5 -325.5t-302.5 -51.5q-80 23 -181.5 106t-132.5 82t-30.5 12t20.5 28q55 37 111 -9q92 -80 140 -87l52 -8q32 -5 60 5 q173 32 110 379q-20 98 -53 199l-68 182q-84 207 -94 333t64 228q55 74 135 113zM178 1141q81 69 170 59q0 -2 -16 -6q-53 -14 -66.5 -99.5t-1.5 -150.5q32 -150 104 -322q140 -332 -188 -657l-12 17q49 92 61 168q18 131 -53 294q-27 59 -70 162q-98 231 -34 391 q37 82 106 144zM416 1662q0 -30 -14.5 -43t-34.5 -13q-51 0 -52 47q-47 4 -86 -24t-8 -58.5t76 -30.5q12 -2 30.5 -2t54.5 -8t56.5 -50t4 -88t-73 -73t-148.5 -10q-49 6 -76 14q-72 12 -125 -12q-29 -16 -61 -49q41 104 127 118q33 4 74 0t77.5 9.5t22.5 38t-72.5 27.5 t-90 24.5t-27.5 74.5q8 82 123.5 128.5t187.5 19.5q35 -10 35 -40z" />
<glyph unicode="&#xfee0;&#xfe84;" horiz-adv-x="1097" arabic-form="final" d="M1098 170q23 0 37 -24.5t14 -61.5t-14.5 -60.5t-36.5 -23.5q-74 0 -140 10q12 -207 -100.5 -323.5t-310.5 -61.5q-80 23 -181.5 106t-140.5 81q-33 0 -21 21q5 9 19 20q55 37 117 -14.5t117 -75t127 -9.5q174 36 112 379q-20 98 -53 199l-68 182q-84 207 -95 332 t55.5 215t142.5 127q49 17 98 12q0 -2 -16 -6q-80 -23 -51 -242q18 -162 90 -399.5t112 -310.5q41 -72 187 -72zM330 1202q25 -2 0 -8q-51 -12 -64.5 -98.5t2.5 -181.5t92 -279q78 -178 25 -361q-47 -152 -205 -309l-12 17q51 94 59 168q18 131 -53 294q-27 59 -70 162 q-94 233 -32 391q37 82 108.5 144.5t149.5 60.5zM416 1662q0 -30 -14.5 -43t-34.5 -13q-51 0 -54 47q-45 4 -84 -24t-8 -58.5t76 -30.5q12 -2 30.5 -2t53.5 -8t55.5 -50t4 -88t-73 -73t-148.5 -10q-49 6 -76 14q-70 12 -123 -12q-29 -16 -61 -49q41 104 127 118q33 4 74 0 t76.5 9.5t21.5 38t-72.5 28.5t-89 24.5t-26.5 73.5q8 82 123.5 128.5t187.5 19.5q35 -10 35 -40z" />
<glyph unicode="&#xfedf;&#xfe88;" horiz-adv-x="1021" arabic-form="isolated" d="M645 -520q0 -29 -14.5 -42t-34.5 -13q-47 -4 -51 47q-45 4 -84 -25t-6 -60.5t110 -31.5q75 0 103 -58q20 -42 4 -85q-16 -49 -72.5 -75t-148.5 -9l-76 12q-72 14 -111 -5t-74 -55q41 104 127 119q35 2 75 -1t76 10.5t22 38t-72 27.5t-89.5 24.5t-27.5 72.5 q8 84 121.5 130.5t189.5 19.5q33 -12 33 -41zM680 1188q49 17 96 12q0 -2 -16 -6q-51 -12 -64.5 -98.5t0.5 -160t78 -251.5l53 -147q59 -160 94.5 -309.5t36.5 -225.5q12 -223 -108.5 -325.5t-302.5 -51.5q-80 23 -181.5 106t-132.5 82t-30.5 12t20.5 28q55 37 111 -9 q92 -80 140 -87l52 -8q32 -5 60 5q173 32 110 379q-20 98 -53 199l-68 182q-84 207 -94 333t64 228q55 74 135 113zM178 1141q81 69 170 59q0 -2 -16 -6q-53 -14 -66.5 -99.5t-1.5 -150.5q32 -150 104 -322q140 -332 -188 -657l-12 17q88 166 57 317q-16 72 -33.5 109.5 t-42 93t-31.5 74t-31 80.5q-73 193 -15 341q37 82 106 144z" />
<glyph unicode="&#xfee0;&#xfe88;" horiz-adv-x="1097" arabic-form="final" d="M645 -521q0 -28 -14.5 -41t-34.5 -14t-35.5 12t-15.5 36q-45 4 -85 -24t-6 -60.5t110 -32.5t104 -58q20 -42 4 -85q-16 -49 -72.5 -75t-148.5 -9l-76 12q-72 14 -111 -5t-74 -55q41 104 127 119q35 2 75 -1t76 10.5t22 38t-73 27.5t-89.5 24.5t-26.5 72.5q2 82 125 131 q110 46 186 19q33 -14 33 -42zM1098 170q23 0 37 -24.5t14 -61.5t-14.5 -60.5t-36.5 -23.5q-74 0 -140 10q12 -207 -100.5 -323.5t-310.5 -61.5q-80 23 -181.5 106t-140.5 81q-33 0 -21 21q5 9 19 20q55 37 117 -14.5t117 -75t127 -9.5q174 36 112 379q-20 98 -53 199 l-68 182q-84 207 -95 332t55.5 215t142.5 127q49 17 98 12q0 -2 -16 -6q-80 -23 -51 -242q18 -162 90 -399.5t112 -310.5q41 -72 187 -72zM330 1202q25 -2 0 -8q-51 -12 -64.5 -98.5t2.5 -181.5t92 -279q78 -178 25 -361q-47 -152 -205 -309l-12 17q88 164 55 317 q-16 72 -84.5 227.5t-86 266t19.5 204.5q37 82 108.5 144.5t149.5 60.5z" />
<glyph unicode="&#xfedf;&#xfe8e;" horiz-adv-x="1017" arabic-form="isolated" d="M676 1188q49 17 96 12q0 -2 -16 -6q-51 -12 -64.5 -98.5t0.5 -160t78 -251.5l53 -147q55 -149 92.5 -304t38.5 -231q12 -223 -108.5 -325.5t-302.5 -51.5q-80 23 -181.5 106t-132.5 82t-30.5 12t20.5 28q55 37 111 -9q92 -79 140 -87q19 -3 52 -8t60 5q171 32 110 379 q-20 98 -53 199l-68 182q-84 207 -94 333t64 228q55 74 135 113zM174 1141q81 69 170 59q0 -2 -16 -6q-53 -14 -66.5 -99.5t-1.5 -150.5q32 -150 104 -322q140 -332 -188 -657l-12 17q88 166 57 317q-16 72 -33.5 109.5t-41.5 93.5q-80 182 -97.5 291.5t19.5 203.5 q37 82 106 144z" />
<glyph unicode="&#xfee0;&#xfe8e;" horiz-adv-x="1097" arabic-form="final" d="M1098 170q23 0 37 -24.5t14 -61.5t-14.5 -60.5t-36.5 -23.5q-74 0 -140 10q12 -207 -100.5 -323.5t-310.5 -61.5q-80 23 -181.5 106t-140.5 81q-33 0 -21 21q5 9 19 20q55 37 117 -14.5t117 -75t127 -9.5q174 36 112 379q-20 98 -53 199l-68 182q-84 207 -95 332 t55.5 215t142.5 127q49 17 98 12q0 -2 -16 -6q-80 -23 -51 -242q18 -162 90 -399.5t112 -310.5q41 -72 187 -72zM330 1202q25 -2 0 -8q-51 -12 -64.5 -98.5t2.5 -181.5t92 -279q78 -178 25 -361q-47 -152 -205 -309l-12 17q88 164 55 317q-17 71 -85 227t-85.5 266.5 t19.5 204.5q37 82 108.5 144.5t149.5 60.5z" />
<glyph unicode="&#x66e;" horiz-adv-x="1716" d="M950 766v22q41 -25 64.5 -80t13.5 -98q-18 -78 -116.5 -92t-212.5 -2t-189.5 9t-120.5 -50q-25 -25 -27 -75.5t56.5 -98t161.5 -78.5q195 -59 427.5 -49t270.5 86q14 31 -31 123q-20 45 -34.5 66.5t-32.5 60.5q104 74 237 158q45 -86 77 -138.5t36 -113t-7 -131t19 -88.5 q31 -27 174 -27q20 0 34.5 -24.5t14.5 -59.5t-14 -60.5t-35 -25.5q-262 2 -354 111q-154 -86 -476.5 -105.5t-549.5 60.5q-274 92 -273 311q2 188 201 248q156 45 350 0q6 -2 31 -6.5t76 -15.5t135 -8t105 58q10 31 -0.5 62t-10.5 51z" />
<glyph unicode="&#x671;" horiz-adv-x="598" arabic-form="final" d="M362 1198q0 -2 -16 -6q-53 -14 -66 -99.5t-1 -150.5q29 -145 101.5 -316t25.5 -333v-53q-4 -49 69 -64q35 -8 123 -8q23 0 37 -23.5t14 -60.5t-14 -60.5t-37 -23.5q-217 0 -311 70q-27 -39 -92 -105l-13 17q88 166 58 315q-16 72 -86 230.5t-87 266.5q-33 210 126 347 q71 61 151 59q18 0 18 -2zM313 1460q-70 -18 -102 -90q29 0 77 17t61 38.5t1 31t-37 3.5zM149.5 1566.5q14.5 -36.5 14.5 -80.5t-4 -56q126 126 209 112q68 -10 77 -76q14 -88 -106 -141q-109 -51 -238 -37q-133 10 -145 92q-6 43 53 72v-4q-2 -2 -2 -6q-37 -25 -20 -56 q14 -33 57 -32q55 -4 64 53q4 29 -11.5 55.5t-25.5 59.5q-39 70 -15 139q12 31 38 53.5t55 20.5l2 -2q-20 -6 -25.5 -39t2.5 -52q6 -39 20.5 -75.5z" />
<glyph unicode="&#x67e;" horiz-adv-x="1716" arabic-form="final" d="M885 -428q51 0 87 -36t36 -87t-36 -86t-87 -35t-87 35t-36 86t36 87t87 36zM684 -172q51 0 87 -35t36 -86t-36 -87t-87 -36t-87 36t-36 87t36 86t87 35zM969 -121q51 0 87 -34.5t36 -86t-36 -87.5t-87 -36t-87 36t-36 87.5t36 86t87 34.5zM950 766v22q41 -25 64.5 -80 t13.5 -98q-18 -78 -116.5 -92t-212.5 -2t-189.5 9t-120.5 -50q-25 -25 -27 -75.5t56.5 -98t161.5 -78.5q195 -59 427.5 -49t270.5 86q14 31 -31 123q-20 45 -34.5 66.5t-32.5 60.5q104 74 237 158q45 -86 77 -138.5t36 -113t-7 -131t19 -88.5q31 -27 174 -27 q20 0 34.5 -24.5t14.5 -59.5t-14 -60.5t-35 -25.5q-262 2 -354 111q-154 -86 -476.5 -105.5t-549.5 60.5q-274 92 -273 311q2 188 201 248q156 45 350 0q6 -2 31 -6.5t76 -15.5t135 -8t105 58q10 31 -0.5 62t-10.5 51z" />
<glyph unicode="&#x67e;" horiz-adv-x="749" arabic-form="initial" d="M377 -367q51 0 87 -35.5t36 -87t-36 -87t-87 -35.5t-87 35.5t-36 87t36 87t87 35.5zM190.5 -123q51.5 0 86 -36t34.5 -87t-34.5 -87t-86 -36t-87 36t-35.5 87t35.5 87t87 36zM475 -72q51 0 87 -35.5t36 -87t-36 -87t-87 -35.5t-87 35.5t-36 87t36 87t87 35.5zM688 375 q0 -141 -125 -236q-104 -76 -262.5 -107.5t-300.5 -31.5q-23 0 -37 24.5t-14 61.5t14 60.5t37 23.5q168 0 302 34t134 91l-8 24q-2 10 -14 31l-80 160l237 158q97 -172 107 -210t10 -83z" />
<glyph unicode="&#x67e;" horiz-adv-x="868" arabic-form="medial" d="M377 -367q51 0 87 -35.5t36 -87t-36 -87t-87 -35.5t-87 35.5t-36 87t36 87t87 35.5zM188.5 -123q51.5 0 87 -36t35.5 -87t-35.5 -87t-87 -36t-86 36t-34.5 87t34.5 87t86 36zM475 -72q51 0 86 -35.5t35 -87t-35 -87t-86 -35.5t-87 35.5t-36 87t36 87t87 35.5zM-51 86 q0 37 14 60.5t37 23.5q168 0 301 34t133 91q-10 41 -43 106l-33 62q-10 18 -24 47l237 158q97 -172 107 -210t10 -84t-10 -91q-23 -80 47 -101q41 -12 143 -12q23 0 37.5 -23.5t14.5 -60.5t-14.5 -61.5t-37.5 -24.5q-260 2 -352 111q-199 -111 -516 -111q-23 0 -37 24.5 t-14 61.5z" />
<glyph unicode="&#x679;" horiz-adv-x="1716" arabic-form="final" d="M950 766v22q41 -25 64.5 -80t13.5 -98q-18 -78 -116.5 -92t-212.5 -2t-189.5 9t-120.5 -50q-25 -25 -27 -75.5t56.5 -98t161.5 -78.5q195 -59 427.5 -49t270.5 86q14 31 -31 123q-20 45 -34.5 66.5t-32.5 60.5q104 74 237 158q45 -86 77 -138.5t36 -113t-7 -131t19 -88.5 q31 -27 174 -27q20 0 34.5 -24.5t14.5 -59.5t-14 -60.5t-35 -25.5q-262 2 -354 111q-154 -86 -476.5 -105.5t-549.5 60.5q-274 92 -273 311q2 188 201 248q156 45 350 0q6 -2 31 -6.5t76 -15.5t135 -8t105 58q10 31 -0.5 62t-10.5 51zM993 1038q-70 -18 -102 -90 q29 0 77 17.5t61 39t1 30.5t-37 3zM829 1313l2 -2q-20 -6 -25 -39t3 -51q6 -39 20 -76t14.5 -80.5t-3.5 -56.5q127 127 209 112q68 -10 77 -76q14 -88 -106 -141q-109 -51 -238 -37q-133 10 -145 92q-6 43 53 72v-4q-2 -2 -2 -6q-37 -25 -20 -55q14 -33 57 -33q55 -4 63 53 q4 29 -11 55.5t-25 59.5q-39 70 -15 139q12 31 37.5 53.5t54.5 20.5z" />
<glyph unicode="&#x679;" horiz-adv-x="749" arabic-form="initial" d="M688 375q0 -141 -125 -236q-104 -76 -262.5 -107.5t-300.5 -31.5q-23 0 -37 24.5t-14 61.5t14 60.5t37 23.5q168 0 302 34t134 91l-8 24q-2 10 -14 31l-80 160l237 158q97 -172 107 -210t10 -83zM465 973q-70 -18 -103 -90q29 0 77 17t61.5 38.5t1.5 31t-37 3.5z M301 1079q14 -37 14 -81t-4 -56q127 127 209 113q68 -10 78 -76q14 -88 -106 -141q-109 -51 -238 -37q-133 10 -145 92q-6 43 53 72v-4q-2 -2 -2 -7q-37 -25 -21 -55q14 -33 63.5 -35t57.5 56q4 29 -11 55.5t-26 58.5q-39 70 -14 140q12 31 37.5 53t54.5 20l2 -2 q-20 -6 -25.5 -38.5t3.5 -51.5q6 -39 20 -76z" />
<glyph unicode="&#x679;" horiz-adv-x="868" arabic-form="medial" d="M-51 86q0 37 14 60.5t37 23.5q168 0 301 34t133 91q-10 41 -43 106l-33 62q-10 18 -24 47l237 158q97 -172 107 -210t10 -84t-10 -91q-23 -80 47 -101q41 -12 143 -12q23 0 37.5 -23.5t14.5 -60.5t-14.5 -61.5t-37.5 -24.5q-260 2 -352 111q-199 -111 -516 -111 q-23 0 -37 24.5t-14 61.5zM465 973q-70 -18 -103 -90q29 0 77 17t61.5 38.5t1.5 31t-37 3.5zM301 1079q14 -37 14 -81t-4 -56q127 127 209 113q68 -10 78 -76q14 -88 -106 -141q-109 -51 -238 -37q-133 10 -145 92q-6 43 53 72v-4q-2 -2 -2 -7q-37 -25 -21 -55 q14 -33 63.5 -35t57.5 56q4 29 -11 55.5t-26 58.5q-39 70 -14 140q12 31 37.5 53t54.5 20l2 -2q-20 -6 -25.5 -38.5t3.5 -51.5q6 -39 20 -76z" />
<glyph unicode="&#x6a4;" horiz-adv-x="1730" arabic-form="final" d="M1168 686q-30 0 -39 -35t9.5 -81t73.5 -70q20 -10 103 -25q-39 121 -78 166t-69 45zM1731 170q23 0 37 -24.5t14 -61.5t-14.5 -60.5t-36.5 -23.5q-266 0 -357 113q-156 -80 -408.5 -107t-473.5 19q-276 55 -383 235q-47 78 -46.5 156t48.5 135q111 131 356 74 q143 -35 238 -31q143 8 102 139q-4 20 -4 33v22q45 -33 67.5 -95t-0.5 -103q-43 -84 -196 -80q-90 4 -133 8q-106 10 -148 -18q-82 -61 9.5 -162.5t329 -127.5t417.5 19q88 20 127 60q-168 16 -213 30q-86 29 -109 127q-25 98 12 199.5t117 171.5q181 147 338 -4 q70 -70 110 -175.5t35 -195.5t-20 -135q-29 -102 37 -123q37 -14 148 -14zM963 1077.5q41 -30.5 47 -81t-26 -91.5t-82 -47t-91 26t-46 82t25.5 91t81 46t91.5 -25.5zM1212 1231q41 -31 47.5 -81t-25.5 -91t-82 -47t-91 25.5t-46 80.5t25.5 90t80.5 47.5t91 -24.5z M942 1382.5q41 -30.5 47 -81t-25.5 -91.5t-82 -47t-91 26t-46 81t25.5 90t81 47t91 -24.5z" />
<glyph unicode="&#x6a4;" horiz-adv-x="788" arabic-form="initial" d="M330 686q-29 0 -39 -35t8 -84q18 -43 76 -67q18 -8 100 -25q-39 121 -77.5 166t-67.5 45zM0 0q-20 0 -34.5 24.5t-14.5 59.5t14.5 60.5t34.5 25.5q172 0 300 33t136 86l-117 12q-113 10 -163 61q-29 29 -41 84q-25 98 12 200t117 171q153 140 309 21q66 -51 112 -139.5 t58 -186.5q29 -229 -121 -354q-102 -82 -272.5 -120t-329.5 -38zM270 1165.5q41 -30.5 47.5 -81t-25.5 -91.5t-82 -47t-91 26t-46 82t25.5 91t80.5 46t91 -25.5zM520 1319q41 -31 47 -81t-25.5 -91t-81.5 -47t-91 25.5t-46.5 80.5t25.5 90t81 47.5t91 -24.5zM250 1470.5 q41 -30.5 47 -81t-26 -91.5t-82 -47t-91 26t-46 81t26 90t81 47t91 -24.5z" />
<glyph unicode="&#x6a4;" horiz-adv-x="890" arabic-form="medial" d="M329 686q-30 0 -39 -35t9 -84q18 -43 76 -67q18 -8 100 -25q-39 121 -77.5 166t-68.5 45zM891 170q23 0 37 -24.5t14 -61.5t-14.5 -60.5t-36.5 -23.5q-260 0 -356 113q-106 -59 -256 -86t-279 -27q-20 0 -35.5 24.5t-15.5 59.5t15.5 60.5t35.5 25.5q172 0 300 33t136 86 q-168 16 -213 30q-86 29 -108 127q-25 98 12 200t117 171q123 110 252 55q115 -53 182.5 -205.5t40.5 -301.5q-10 -55 -19 -93q-18 -74 56 -92q47 -10 135 -10zM270 1165.5q41 -30.5 47.5 -81t-25.5 -91.5t-82 -47t-91 26t-47 82t25.5 91t81.5 46t91 -25.5zM520 1319 q41 -31 47 -81t-25.5 -91t-81.5 -47t-91 25.5t-46.5 80.5t25.5 90t81 47.5t91 -24.5zM250 1470.5q41 -30.5 47 -81t-26 -91.5t-82 -47t-91 26t-46 81t26 90t81 47t91 -24.5z" />
<glyph unicode="&#x686;" horiz-adv-x="1458" arabic-form="final" d="M723 -106q51 0 87 -36t36 -87.5t-36 -86t-87 -34.5t-87 34.5t-36 86t36 87.5t87 36zM538.5 115q51.5 0 87.5 -35t36 -86t-36 -87t-87.5 -36t-87 36t-35.5 87t35.5 86t87 35zM823 166q51 0 87 -35t36 -86t-36 -87t-87 -36t-87 36t-36 87t36 86t87 35zM1509 84 q0 -37 -14 -60.5t-37 -23.5q-190 0 -280.5 49t-128.5 166q-205 37 -385.5 4t-280.5 -100q-129 -86 -121 -217q8 -158 176 -236q143 -70 347.5 -56.5t332.5 91.5q80 49 95 106t-52 111q-2 2 -2 8t-2 8q109 -51 109 -137q-2 -117 -108 -201t-244 -124q-404 -115 -676 63 q-209 137 -170 365.5t258 355.5q168 98 428 147q-90 61 -95 66q-215 146 -340 88q-49 -25 -70 -72t11 -79v4q-2 2 -2 4q0 35 25.5 60.5t60.5 25.5t60.5 -25.5t25.5 -60.5t-24.5 -61.5t-57.5 -33.5q-102 -20 -151 43q-68 86 -21 205q27 63 81.5 125.5t113.5 89.5 q117 53 239 -6q78 -37 232 -150.5t312.5 -165.5t361.5 -71l-203 -207q51 -12 145 -14q23 0 37 -23.5t14 -60.5z" />
<glyph unicode="&#x686;" horiz-adv-x="1566" arabic-form="initial" d="M782.5 -311q51.5 0 87 -36t35.5 -87t-35.5 -86t-87 -35t-87.5 35t-36 86t36 87t87.5 36zM581.5 -55q51.5 0 87.5 -35t36 -86t-36 -87t-87.5 -36t-87 36t-35.5 87t35.5 86t87 35zM866.5 -4q51.5 0 87 -35t35.5 -86t-35.5 -87t-87 -36t-87.5 36t-36 87t36 86t87.5 35z M-51 89q0 32 14 55.5t37 23.5q170 0 268 38t180 83q167 92 295 114q-90 61 -94 66q-215 146 -340 88q-53 -27 -73.5 -72t14.5 -79q-4 39 20.5 66.5t61.5 27.5t62.5 -25.5t25.5 -58.5t-25.5 -61.5t-56.5 -35.5q-102 -18 -154 43q-68 82 -18 205q27 63 81 125.5t113 89.5 q117 53 240 -6q78 -37 232 -150.5t312.5 -165.5t360.5 -71l-100 -102q-16 -18 -51 -52t-51 -53l-25 -26q-129 39 -242 59q-203 39 -370 -14q-72 -25 -140 -60q-268 -141 -526 -141q-20 0 -35.5 28.5t-15.5 60.5z" />
<glyph unicode="&#x686;" horiz-adv-x="1449" arabic-form="medial" d="M782.5 -311q51.5 0 87 -36t35.5 -87t-35.5 -86t-87 -35t-87.5 35t-36 86t36 87t87.5 36zM581.5 -55q51.5 0 87.5 -35t36 -86t-36 -87t-87.5 -36t-87 36t-35.5 87t35.5 86t87 35zM866.5 -4q51.5 0 87 -35t35.5 -86t-35.5 -87t-87 -36t-87.5 36t-36 87t36 86t87.5 35z M1499 84q0 -35 -14.5 -59.5t-34.5 -24.5q-193 0 -283 49t-129 166q-205 39 -370 -14q-72 -25 -181 -81q-231 -120 -487 -120q-20 0 -35.5 28.5t-15.5 60.5t14 55.5t37 23.5q170 0 268 38t180 83q167 92 295 114q-90 61 -94 66q-215 145 -339 87q-52 -24 -72.5 -71t12.5 -79 q-4 39 21.5 66.5t62.5 27.5t61.5 -25.5t24.5 -58.5t-25.5 -61.5t-59.5 -36t-79 2t-70 41.5q-105 136 63 330q54 62 113 90q117 53 240 -6q78 -37 232 -150.5t312.5 -165.5t358.5 -71l-100 -102q-66 -70 -100 -105q37 -10 145 -14q20 0 34.5 -24.5t14.5 -59.5z" />
<glyph unicode="&#x688;" horiz-adv-x="1040" arabic-form="final" d="M154.5 668q7.5 0 9.5 2q-10 -72 19.5 -102.5t98 -37t107.5 -0.5t80 10.5t61 8.5q129 20 207 -14.5t107 -141.5q6 -25 4 -50.5t-2 -63.5q0 -76 38 -93.5t156 -17.5q20 0 36 -24.5t16 -59.5t-15.5 -59.5t-36.5 -24.5q-258 0 -354 109q-182 -102 -383 -107q-145 -2 -194 94 q-27 51 -48 230l31 8q80 -74 275 -55.5t254 94.5q45 55 -3 73q-56 17 -143.5 1.5t-145 -14.5t-121.5 33q-98 49 -65 200q4 2 11.5 2zM420 1038q-70 -18 -103 -90q29 0 77 17.5t61.5 39t1.5 30.5t-37 3zM256 1145q14 -37 14 -81t-4 -56q128 128 209 112q68 -10 78 -76 q14 -88 -107 -141q-109 -51 -237 -37q-133 10 -146 92q-6 43 54 72v-4q-2 -2 -2 -6q-37 -25 -21 -55q14 -33 63.5 -35t57.5 55q4 29 -11 55.5t-26 59.5q-39 70 -14 139q12 31 37.5 53.5t54.5 20.5l2 -2q-20 -6 -25.5 -39t3.5 -51q6 -39 20 -76z" />
<glyph unicode="&#x698;" horiz-adv-x="884" arabic-form="final" d="M885 168q23 0 37 -23.5t14 -60.5t-14.5 -60.5t-36.5 -23.5q-82 0 -154 10q12 -207 -99.5 -324.5t-312.5 -62.5q-84 25 -188 115q-94 76 -131 74q-16 0 -24 8.5t22 32.5q53 35 114.5 -15.5t117 -74t128.5 -11.5q100 20 125 166q10 61 -47 205q-18 39 -55 125 q-147 300 -80 422q41 64 258 -25l53 -22q-49 -41 -30 -154q14 -121 86 -201q84 -100 217 -100zM227.5 1042q51.5 0 87 -35.5t35.5 -87t-35.5 -86t-87 -34.5t-87.5 34.5t-36 86t36 87t87.5 35.5zM512 1094q51 0 87 -36t36 -87t-36 -86t-87 -35t-87 35t-36 86t36 87t87 36z M309 1350q51 0 87 -35t36 -86t-36 -87t-87 -36t-87 36t-36 87t36 86t87 35z" />
<glyph unicode="&#x691;" horiz-adv-x="778" arabic-form="final" d="M778 168q23 0 37 -23.5t14 -60.5t-14 -60.5t-37 -23.5q-82 0 -153 10q12 -207 -100 -324.5t-312 -62.5q-84 25 -188 115q-94 76 -131 74q-16 0 -24 9t21 32q53 35 109 -9q68 -57 123 -80.5t129 -11.5q100 20 125 166q10 61 -47 205q-18 39 -77 167q-123 266 -58 380 q39 63 258 -25l53 -22q-49 -41 -31 -154q14 -121 86 -201q84 -100 217 -100zM418 1038q-70 -18 -103 -90q29 0 77 17.5t61.5 39t1.5 30.5t-37 3zM253.5 1145q14.5 -37 14.5 -81t-4 -56q127 127 209 112q68 -10 78 -76q14 -88 -107 -141q-109 -51 -237 -37q-133 10 -146 92 q-6 43 54 72v-4q-2 -2 -2 -6q-37 -25 -21 -55q14 -33 63.5 -35t57.5 55q4 29 -11 55.5t-26 59.5q-39 70 -14 139q12 31 37.5 53.5t54.5 20.5l2 -2q-20 -6 -25.5 -39t2.5 -51q6 -39 20.5 -76z" />
<glyph unicode="&#x6a9;" horiz-adv-x="1722" arabic-form="final" d="M1057 785q0 -30 -14.5 -43t-34.5 -13q-51 0 -52 47q-47 4 -86 -23.5t-7.5 -59t110.5 -33t103 -49.5t7.5 -95t-73 -73.5t-148.5 -10.5q-49 6 -76 14q-72 12 -124 -12q-27 -16 -62 -49q41 104 127 119q35 4 75 0t75.5 9t21.5 38t-71.5 28t-89 24.5t-27.5 74.5 q8 82 123.5 128t187.5 19q35 -10 35 -40zM1722 168q20 0 35 -24.5t15 -59.5t-14.5 -59.5t-35.5 -24.5q-266 0 -352 111q-150 -78 -404.5 -105t-476.5 19q-266 55 -374 225q-49 72 -52.5 149.5t35.5 135.5q86 135 312 100q32 -2 76 -16q74 -23 141 24q10 -61 -74 -104 q-49 -23 -120.5 -28t-85 -40t21.5 -80q78 -113 278 -168q240 -70 527 13q158 45 147 153q-7 51 -61 165q-126 264 -58 441q33 82 105.5 144.5t152.5 60.5q36 0 2 -8q-49 -12 -64 -96.5t-3 -153.5q29 -145 98 -307q43 -102 39 -248q0 -64 -4 -92q-4 -88 69 -113 q37 -14 125 -14z" />
<glyph unicode="&#x6a9;" horiz-adv-x="1208" arabic-form="initial" d="M0 0q-23 0 -37 23.5t-14 60.5t14 60.5t37 23.5q176 0 375 36t330.5 99.5t134 134t-33.5 98t-105 23.5t-299 -70.5t-326 -56.5q-164 18 -164 121q0 35 24.5 59.5t66.5 24.5t67 -43q10 -25 10 -45.5t-12 -40.5q260 14 356 473q22 111 47 334l197 -187q-23 -207 -133 -391 q-43 -74 -109 -145q117 68 293 101.5t291 -9.5q137 -53 135 -217q-8 -162 -199 -274q-162 -96 -416.5 -144.5t-529.5 -48.5z" />
<glyph unicode="&#x6a9;" horiz-adv-x="1265" arabic-form="medial" d="M1266 168q23 0 37 -23.5t14 -60.5t-14.5 -60.5t-36.5 -23.5q-168 0 -255 37t-130 119q-172 -82 -407.5 -119t-473.5 -37q-23 0 -37 23.5t-14 60.5t14 60.5t37 23.5q176 0 375 36t330.5 99.5t134 134t-33.5 98t-105 23.5t-299 -70.5t-326 -56.5q-164 18 -164 121 q0 35 24.5 59.5t66.5 24.5t67 -43q10 -25 10 -45.5t-12 -40.5q260 14 356 473q22 111 47 334l197 -187q-23 -207 -133 -391q-43 -74 -109 -145q117 68 293 101.5t291 -9.5q141 -57 133 -217q-4 -96 -70 -174q-2 -6 -4 -19q-16 -53 61 -86q39 -20 136 -20z" />
<glyph unicode="&#x6af;" horiz-adv-x="1722" arabic-form="final" d="M1057 785q0 -30 -14.5 -43t-34.5 -13q-51 0 -52 47q-47 4 -86 -23.5t-7.5 -59t110.5 -33t103 -49.5t7.5 -95t-73 -73.5t-148.5 -10.5q-49 6 -76 14q-72 12 -124 -12q-27 -16 -62 -49q41 104 127 119q35 4 75 0t75.5 9t21.5 38t-71.5 28t-89 24.5t-27.5 74.5 q8 82 123.5 128t187.5 19q35 -10 35 -40zM1063 1130q-203 -197 -404 -307q-106 -57 -202 -67l-33 8q-25 4 -35 6q151 21 383 186q96 70 201 162l45 6q18 6 45 6zM1722 168q20 0 35 -24.5t15 -59.5t-14.5 -59.5t-35.5 -24.5q-266 0 -352 111q-150 -78 -404.5 -105t-476.5 19 q-266 55 -374 225q-49 72 -52.5 149.5t35.5 135.5q86 135 312 100q32 -2 76 -16q74 -23 141 24q10 -61 -74 -104q-49 -23 -120.5 -28t-85 -40t21.5 -80q78 -113 278 -168q240 -70 527 13q158 45 147 153q-7 51 -61 165q-126 264 -58 441q33 82 105.5 144.5t152.5 60.5 q36 0 2 -8q-49 -12 -64 -96.5t-3 -153.5q29 -145 98 -307q43 -102 39 -248q0 -64 -4 -92q-4 -88 69 -113q37 -14 125 -14z" />
<glyph unicode="&#x6af;" horiz-adv-x="1208" arabic-form="initial" d="M0 0q-23 0 -37 23.5t-14 60.5t14 60.5t37 23.5q176 0 375 36t330.5 99.5t134 134t-33.5 98t-105 23.5t-299 -70.5t-326 -56.5q-164 18 -164 121q0 35 24.5 59.5t54.5 24.5t59.5 -19.5t29.5 -54.5t-12 -55q260 14 356 473q22 111 47 334l197 -187q-16 -131 -54 -223 q-76 -195 -188 -313q117 68 293 101.5t291 -9.5q137 -53 135 -217q-8 -162 -199 -274q-162 -96 -416.5 -144.5t-529.5 -48.5zM403 1319q-27 -320 -98 -496q-45 -115 -108 -184l-60 -35q105 125 164 393q29 125 43 254q33 33 43 48.5t16 19.5z" />
<glyph unicode="&#x6af;" horiz-adv-x="1265" arabic-form="medial" d="M1266 168q23 0 37 -23.5t14 -60.5t-14.5 -60.5t-36.5 -23.5q-168 0 -255 37t-130 119q-172 -82 -407.5 -119t-473.5 -37q-23 0 -37 23.5t-14 60.5t14 60.5t37 23.5q176 0 375 36t330.5 99.5t134 134t-33.5 98t-105 23.5t-299 -70.5t-326 -56.5q-164 18 -164 121 q0 35 24.5 59.5t54.5 24.5t59.5 -19.5t29.5 -54.5t-12 -55q260 14 356 473q22 111 47 334l197 -187q-16 -131 -54 -223q-76 -195 -188 -313q210 111 440 115q172 0 244 -99q41 -47 34 -143t-71 -172q-2 -6 -4 -19q-16 -53 61 -86q39 -20 136 -20zM406 1319 q-12 -141 -37 -270q-31 -135 -67 -235t-105 -175q-25 -14 -29 -16l-29 -19q105 125 164 393q29 125 43 254q10 10 29 33t31 35z" />
<glyph unicode="&#x649;" horiz-adv-x="749" arabic-form="initial" d="M688 375q0 -141 -125 -236q-104 -76 -262.5 -107.5t-300.5 -31.5q-23 0 -37 24.5t-14 61.5t14 60.5t37 23.5q168 0 302 34t134 91l-8 24q-2 10 -14 31l-80 160l237 158q97 -172 107 -210t10 -83z" />
<glyph unicode="&#x649;" horiz-adv-x="868" arabic-form="medial" d="M-51 86q0 37 14 60.5t37 23.5q168 0 301 34t133 91q-10 41 -43 106l-33 62q-10 18 -24 47l237 158q97 -172 107 -210t10 -84t-10 -91q-23 -80 47 -101q41 -12 143 -12q23 0 37.5 -23.5t14.5 -60.5t-14.5 -61.5t-37.5 -24.5q-260 2 -352 111q-199 -111 -516 -111 q-23 0 -37 24.5t-14 61.5z" />
<glyph unicode="&#x6cc;" horiz-adv-x="1204" arabic-form="final" d="M1194 170q61 0 61 -86q0 -37 -14 -60.5t-37 -23.5h-22q-15 0 -19 4q-10 0 -18 2q6 -109 -45 -199t-146 -149q-199 -125 -434 -78q-266 53 -403 289q-63 109 -51 252q6 76 90 291t96 301q21 147 -90 170q196 47 171 -211q-8 -79 -41.5 -174.5t-42.5 -121.5t-20.5 -68 t-15.5 -70.5t-4 -62.5t8 -62q47 -154 232 -248q166 -86 337 -76q90 6 147.5 47t65.5 95q8 55 -40 97q-47 42 -159 55q-160 19 -167 167q-6 41 -19 102q68 -18 176.5 -26t196.5 -47q57 -29 98 -84q30 -23 53 -24t56 -1z" />
<glyph unicode="&#x6cc;" horiz-adv-x="751" arabic-form="initial" d="M688 375q0 -141 -125 -236q-104 -76 -262.5 -107.5t-300.5 -31.5q-23 0 -37 24.5t-14 61.5t14 60.5t37 23.5q168 0 302 34t134 91l-8 24q-2 10 -14 31l-80 160l237 158q97 -172 107 -210t10 -83z" />
<glyph unicode="&#x6cc;" horiz-adv-x="868" arabic-form="medial" d="M-51 86q0 37 14 60.5t37 23.5q168 0 301 34t133 91q-10 41 -43 106l-33 62q-10 18 -24 47l237 158q97 -172 107 -210t10 -84t-10 -91q-23 -80 47 -101q41 -12 143 -12q23 0 37.5 -23.5t14.5 -60.5t-14.5 -61.5t-37.5 -24.5q-260 2 -352 111q-199 -111 -516 -111 q-23 0 -37 24.5t-14 61.5z" />
<glyph unicode="&#xfc5e;" arabic-form="isolated" d="M-92 0q-68 0 -80 90q-4 20 14 90q-37 -23 -61.5 -8.5t-26.5 47.5q0 80 58 84q70 8 82 -76q4 -33 0 -65.5t28.5 -55t52.5 5.5t-22 136l31 33q6 6 15 16t15 16q29 -25 36 -72.5t22 -70.5q27 -45 55 -41q8 2 9 22.5t-40 84.5q-18 31 -10 50q23 55 43 60q18 0 31 -27 q8 -23 10 -28q37 -96 27 -146q-35 -178 -170 -77q-61 -68 -119 -68zM254 829q41 -113 -43 -231q-74 -100 -210 -168t-253 -78l-33 17q271 92 404 215q90 80 76 166q-6 27 -25.5 37t-50.5 -11q66 -33 43 -67q-37 -78 -86 -35q-74 74 -8 151q51 61 108.5 63t77.5 -59zM-39 524 l-61 -12q-162 -35 -203 69.5t43 235.5q102 162 301 205q88 18 184 8l-39 -33q-223 14 -348 -125q-94 -106 -65 -217t174 -129q8 -2 14 -2z" />
<glyph unicode="&#xfc5f;" arabic-form="isolated" d="M252 440l20 -14q-16 -74 -24 -102q-14 -70 -76 -95q-29 -14 -276 -94l-58 -18q-39 -12 -63 -45q-10 -12 -35 -52l-8 27l18 78q12 51 51 68.5t192.5 66.5t190.5 73.5t68 106.5zM219 655l21 -14q-16 -74 -25 -102q-14 -70 -76 -95q-29 -14 -276 -94l-58 -18 q-39 -12 -63 -45q-10 -12 -35 -51l-8 26l18 78q12 51 51.5 68.5t192.5 66.5t190 73.5t68 106.5zM-115 608q-70 0 -80 90q-4 20 15 90q-37 -23 -61.5 -8t-26.5 47q0 80 57 84q70 8 82 -75q4 -33 0 -66t28.5 -55.5t53.5 6.5t-23 135l31 33q6 4 15.5 16.5t13.5 16.5 q31 -25 38 -73t27.5 -82t48.5 -30q8 2 11 17q0 27 -41 90q-18 31 -10 50q23 55 42 60q16 0 31 -26q8 -23 10 -29q37 -96 27 -145q-35 -178 -170 -78q-61 -68 -119 -68z" />
<glyph unicode="&#xfc60;" arabic-form="isolated" d="M-115 0q-70 0 -80 90q-4 20 15 90q-37 -23 -61.5 -8.5t-26.5 47.5q0 80 57 84q70 8 82 -76q4 -33 0 -65.5t28.5 -55t53.5 6.5t-23 135l31 33q23 23 29 32q31 -25 38 -72.5t27.5 -81.5t48.5 -30q8 2 11 16q0 27 -41 91q-18 31 -10 50q23 55 42 60q16 0 31 -27 q8 -23 10 -28q37 -96 27 -146q-35 -178 -170 -77q-61 -68 -119 -68zM203 729l20 -14q-16 -74 -24 -103q-14 -70 -76 -94q-29 -14 -277 -94l-57 -18q-39 -12 -63 -46q-10 -12 -35 -51l-8 27l18 78q12 51 51 68t192.5 66.5t190.5 74t68 106.5z" />
<glyph unicode="&#xfc61;" arabic-form="isolated" d="M-82 0q-70 0 -80 90q-4 20 15 90q-37 -23 -61.5 -8.5t-27.5 47.5q0 80 58 84q70 8 82 -76q4 -33 0 -65.5t28.5 -55t52.5 5.5t-22 136l31 33q11 17 29 32q29 -25 35.5 -72.5t21.5 -70.5q27 -45 55 -41q8 2 9 22.5t-40 84.5q-18 31 -10 50q23 55 43 60q18 0 31 -27 q8 -23 10 -28q37 -96 27 -146q-35 -178 -170 -77q-57 -68 -117 -68zM254 827q41 -113 -43 -231q-74 -100 -210 -168t-253 -78l-33 17q86 25 206 83.5t198 131.5q90 80 76 166q-6 27 -25.5 37t-50.5 -11q66 -33 43 -67q-37 -78 -86 -35q-73 73 -8 151q51 61 108.5 63 t77.5 -59z" />
<glyph unicode="&#xfc62;" arabic-form="isolated" d="M252 440l20 -14q-16 -74 -24 -102q-14 -70 -76 -95q-29 -14 -276 -94l-58 -18q-39 -12 -63 -45q-10 -12 -35 -52l-8 27l18 78q12 51 51 68.5t192.5 66.5t190.5 73.5t68 106.5zM-115 342q-70 0 -80 90q-4 20 15 90q-37 -23 -61.5 -8.5t-26.5 47.5q0 80 57 84q70 8 82 -76 q4 -33 0 -65.5t28.5 -55t53.5 6.5t-23 135l31 33q6 4 15.5 16t13.5 16q31 -25 38 -72.5t27.5 -81.5t48.5 -30q8 2 11 16q0 27 -41 91q-18 31 -10 50q23 55 42 60q16 0 31 -26q8 -23 10 -29q37 -96 27 -146q-35 -178 -170 -77q-61 -68 -119 -68z" />
<glyph unicode="&#xfc63;" arabic-form="isolated" d="M-72 0q-68 0 -80 90q-4 20 15 90q-37 -23 -61.5 -8.5t-26.5 47.5q0 80 57 84q70 8 82 -76q4 -33 0 -65.5t28.5 -55t53.5 6.5q23 26 -23 135l33 33q6 9 29 32q29 -25 36 -72.5t27.5 -81.5t48.5 -30q8 2 11 16q0 27 -41 91q-18 31 -10 50q23 55 43 60q18 0 30 -27 q8 -23 10 -28q37 -96 27 -146q-35 -178 -170 -77q-57 -68 -119 -68zM-39 758l59 84q66 -117 75 -212t-50 -216l-10 12q14 88 -3.5 150.5t-70.5 181.5z" />
<glyph unicode="&#x622;" horiz-adv-x="595" arabic-form="final" d="M360 1198q0 -2 -16 -6q-53 -14 -66.5 -99.5t-1.5 -150.5q29 -145 102 -316t25 -333v-53q-4 -49 70 -64q35 -8 123 -8q23 0 37 -23.5t14 -60.5t-14.5 -60.5t-36.5 -23.5q-217 0 -311 70q-27 -39 -92 -105l-13 17q49 92 62 168q18 129 -54 292q-18 41 -69 164 q-147 344 71 535q72 61 152 59q18 0 18 -2zM270 1405l140 -68q-70 -47 -179 -28l-75 12q-74 14 -125 -10q-27 -16 -62 -49q41 104 127 118q35 4 89 -1q53 -6 85 26z" />
<glyph unicode="&#x623;" horiz-adv-x="585" arabic-form="final" d="M350 1198q0 -2 -16 -6q-53 -14 -66.5 -99.5t-1.5 -150.5q29 -145 102 -316t25 -333v-53q-4 -49 70 -64q35 -8 123 -8q23 0 37 -23.5t14 -60.5t-14.5 -60.5t-36.5 -23.5q-217 0 -312 70q-27 -39 -92 -105l-12 17q49 92 61 168q18 129 -53 292q-18 41 -69 164 q-147 344 71 535q72 61 152 59q18 0 18 -2zM416 1662q0 -30 -14.5 -43t-34.5 -14t-36 12t-16 36q-47 4 -86 -24t-6 -60.5t100.5 -32.5t98.5 -35q39 -49 20 -106q-18 -63 -110 -86q-51 -12 -156 7t-145 -1t-72 -53q41 104 127 118q33 4 74 0t76.5 9.5t21.5 38t-71.5 27.5 t-89 24.5t-27.5 72.5q8 84 123.5 130.5t187.5 19.5q35 -10 35 -40z" />
<glyph unicode="&#x624;" horiz-adv-x="882" arabic-form="final" d="M309 481q-63 -119 -55 -196q10 -102 119 -121q63 61 26 158q-16 45 -34.5 71.5t-55.5 87.5zM883 168q20 0 34.5 -24.5t14.5 -59.5t-14.5 -59.5t-34.5 -24.5q-90 0 -152 10q12 -207 -98.5 -324.5t-313.5 -60.5q-80 23 -181 106t-132 82t-31 12t21 28q55 37 116.5 -14.5 t117 -75t128.5 -11.5q115 23 131 223q-169 -118 -311 11q-61 53 -102 139t-47 168q-10 150 77 256q90 115 242 129q84 10 264 -55q-37 -37 -33.5 -113t43.5 -155t107.5 -133t153.5 -54zM471 1171q0 -57 -49 -57q-20 -2 -35.5 11.5t-15.5 35.5q-45 4 -85 -23.5t-8.5 -59 t110 -33t102.5 -49.5t8 -95t-72.5 -73.5t-149.5 -10.5q-49 6 -75 14q-70 12 -123 -12q-29 -16 -62 -49q41 104 127 119q33 4 74 0t77 9t21.5 38t-73 28t-89 24.5t-26.5 74.5q2 80 118.5 127t192.5 20q33 -8 33 -39z" />
<glyph unicode="&#x625;" horiz-adv-x="581" arabic-form="final" d="M359.5 -240q19.5 0 53 -8t54 -50t4.5 -85q-16 -49 -72.5 -74.5t-148.5 -9.5l-76 12q-72 14 -111 -5t-73 -54q41 104 127 119q35 2 74.5 -1t75.5 10t22 38t-73 27.5t-89.5 24.5t-26.5 73q2 82 119 129t193 20q32 -8 32 -39q-1 -57 -49 -57q-20 -2 -35.5 11.5t-15.5 35.5 q-45 4 -85 -23.5t-9 -57.5t60.5 -33t49 -3zM346 1198q0 -2 -16 -6q-53 -14 -66.5 -99.5t-1.5 -150.5q29 -145 101.5 -316t25.5 -333v-53q-4 -49 70 -64q35 -8 123 -8q23 0 37 -23.5t14 -60.5t-14.5 -60.5t-36.5 -23.5q-217 0 -312 70q-27 -39 -92 -105l-12 17q88 166 57 315 q-16 72 -85.5 230.5t-87.5 266.5q-34 208 126 347q72 61 152 59q18 0 18 -2z" />
<glyph unicode="&#x626;" horiz-adv-x="1204" arabic-form="final" d="M1194 170q61 0 61 -86q0 -37 -14 -60.5t-37 -23.5h-22q-15 0 -19 4q-10 0 -18 2q6 -109 -45 -199t-146 -149q-199 -125 -434 -78q-266 53 -403 289q-63 109 -51 252q6 76 90 291t96 301q21 147 -90 170q196 47 171 -211q-8 -79 -41.5 -174.5t-42.5 -121.5t-20.5 -68 t-15.5 -70.5t-4 -62.5t8 -62q47 -154 232 -248q166 -86 337 -76q90 6 147.5 47t65.5 95q8 55 -40 97q-47 42 -159 55q-160 19 -167 167q-6 41 -19 102q68 -18 176.5 -26t196.5 -47q57 -29 98 -84q30 -23 53 -24t56 -1zM526 1194q18 0 53 -7t55.5 -49t4.5 -88t-72.5 -73 t-148.5 -10q-49 6 -76 14q-70 12 -110 -7t-74 -54q41 104 127 118q35 2 74.5 -1t75.5 10.5t22 38t-73 28.5t-89.5 24.5t-26.5 73.5q8 82 124 128.5t188 19.5q34 -10 34 -40q-1 -56 -49 -56q-20 -2 -35.5 11t-17.5 36q-45 4 -84 -24t-9 -57.5t59.5 -32.5t47.5 -3z" />
<glyph unicode="&#x626;" horiz-adv-x="749" arabic-form="initial" d="M688 375q0 -141 -125 -236q-104 -76 -262.5 -107.5t-300.5 -31.5q-23 0 -37 24.5t-14 61.5t14 60.5t37 23.5q168 0 302 34t134 91l-8 24q-2 10 -14 31l-80 160l237 158q31 -55 51 -88q66 -113 66 -205zM397 1030q18 0 53 -8t55.5 -50t4.5 -88t-72.5 -73t-148.5 -10 q-49 6 -76 14q-70 12 -123 -12q-29 -16 -61 -49q41 106 127 120q33 2 73.5 -1t76.5 10.5t22 38.5t-73 28.5t-89.5 23t-26.5 73.5q8 84 125 131q115 43 187 18q33 -12 33 -42q-1 -56 -50 -56t-51 47q-45 4 -84 -24t-7 -58.5t75 -30.5q12 -2 30 -2z" />
<glyph unicode="&#x626;" horiz-adv-x="868" arabic-form="medial" d="M-51 86q0 37 14 60.5t37 23.5q168 0 301 34t133 91q-5 42 -76 168l-24 47l237 158q31 -55 51 -88q66 -113 66 -205q0 -47 -10 -92q-23 -80 47 -101q41 -12 143 -12q23 0 37.5 -23.5t14.5 -60.5t-14.5 -61.5t-37.5 -24.5q-260 2 -352 111q-199 -111 -516 -111 q-23 0 -37 24.5t-14 61.5zM455 1152q0 -28 -14.5 -41t-34.5 -13q-51 0 -52 47q-47 4 -86 -24t-7 -58.5t77 -30.5q12 -2 31.5 -2t53.5 -8t54.5 -50t4 -88t-73 -73t-148.5 -10q-49 6 -76 14q-70 12 -123 -12q-29 -16 -61 -49q41 106 125 120q35 2 75 -1t76.5 10.5t22.5 38.5 t-72.5 28.5t-89.5 23.5q-31 18 -27 66q6 86 126 138q116 43 184 18q35 -16 35 -44z" />
<glyph unicode="&#x627;" horiz-adv-x="577" arabic-form="final" d="M342 1198q0 -2 -16 -6q-53 -14 -66.5 -99.5t-1.5 -150.5q29 -145 101.5 -316t25.5 -333v-53q-4 -49 70 -64q35 -8 123 -8q23 0 37 -23.5t14 -60.5t-14.5 -60.5t-36.5 -23.5q-217 0 -312 70q-27 -39 -92 -105l-12 17q88 166 57 315q-16 72 -85.5 230.5t-87.5 266.5 q-34 208 126 347q72 61 152 59q18 0 18 -2z" />
<glyph unicode="&#x628;" horiz-adv-x="1716" arabic-form="final" d="M827.5 -123q51.5 0 87 -36t35.5 -87t-35.5 -87t-87 -36t-87 36t-35.5 87t35.5 87t87 36zM950 766v22q41 -25 64.5 -80t13.5 -98q-18 -78 -116.5 -92t-212.5 -2t-189.5 9t-120.5 -50q-25 -25 -27 -75.5t56.5 -98t161.5 -78.5q195 -59 427.5 -49t270.5 86q14 31 -31 123 q-20 45 -34.5 66.5t-32.5 60.5q104 74 237 158q45 -86 77 -138.5t36 -113t-7 -131t19 -88.5q31 -27 174 -27q20 0 34.5 -24.5t14.5 -59.5t-14 -60.5t-35 -25.5q-262 2 -354 111q-154 -86 -476.5 -105.5t-549.5 60.5q-274 92 -273 311q2 188 201 248q156 45 350 0 q6 -2 31 -6.5t76 -15.5t135 -8t105 58q10 31 -0.5 62t-10.5 51z" />
<glyph unicode="&#x628;" horiz-adv-x="749" arabic-form="initial" d="M475 -72q51 0 87 -35.5t36 -87t-36 -87t-87 -35.5t-87 35.5t-36 87t36 87t87 35.5zM688 375q0 -141 -125 -236q-104 -76 -262.5 -107.5t-300.5 -31.5q-23 0 -37 24.5t-14 61.5t14 60.5t37 23.5q168 0 302 34t134 91l-8 24q-2 10 -14 31l-80 160l237 158q97 -172 107 -210 t10 -83z" />
<glyph unicode="&#x628;" horiz-adv-x="868" arabic-form="medial" d="M475 -72q51 0 86 -35.5t35 -87t-35 -87t-86 -35.5t-87 35.5t-36 87t36 87t87 35.5zM-51 86q0 37 14 60.5t37 23.5q168 0 301 34t133 91q-10 41 -43 106l-33 62q-10 18 -24 47l237 158q97 -172 107 -210t10 -84t-10 -91q-23 -80 47 -101q41 -12 143 -12q23 0 37.5 -23.5 t14.5 -60.5t-14.5 -61.5t-37.5 -24.5q-260 2 -352 111q-199 -111 -516 -111q-23 0 -37 24.5t-14 61.5z" />
<glyph unicode="&#x629;" horiz-adv-x="1241" arabic-form="final" d="M1292 84q0 -37 -14 -60.5t-37 -23.5q-213 0 -321 170q-72 115 -109 358q-327 52 -459 -58q-70 -58 -81 -132t43.5 -134.5t158.5 -80.5t171 8.5t87 81.5t-11.5 94t-105.5 41q25 -45 -2 -89t-70.5 -44t-70.5 26.5t-27 63.5t29 65.5t76 41.5q102 29 196 -15 q109 -49 112 -166.5t-136 -190.5t-303 -17q-158 49 -265.5 176t-87 266t137 204.5t301.5 80.5q88 6 323 2q25 72 83 108.5t171 40.5q-61 -88 -85 -266t34.5 -323t210.5 -144q23 0 37 -23.5t14 -60.5zM278.5 1103.5q47.5 22.5 93.5 5.5t68.5 -64.5t6 -94.5t-63.5 -69.5 t-94 -5t-69.5 64.5t-5.5 94t64.5 69.5zM571 1126.5q47 22.5 93.5 5t69 -64.5t5 -93t-63.5 -69t-93 -6.5t-70 64t-5.5 94.5t64.5 69.5z" />
<glyph unicode="&#x62a;" horiz-adv-x="1716" arabic-form="final" d="M950 766v22q41 -25 64.5 -80t13.5 -98q-18 -78 -116.5 -92t-212.5 -2t-189.5 9t-120.5 -50q-25 -25 -27 -75.5t56.5 -98t161.5 -78.5q195 -59 427.5 -49t270.5 86q14 31 -31 123q-20 45 -34.5 66.5t-32.5 60.5q104 74 237 158q45 -86 77 -138.5t36 -113t-7 -131t19 -88.5 q31 -27 174 -27q20 0 34.5 -24.5t14.5 -59.5t-14 -60.5t-35 -25.5q-262 2 -354 111q-154 -86 -476.5 -105.5t-549.5 60.5q-274 92 -273 311q2 188 201 248q156 45 350 0q6 -2 31 -6.5t76 -15.5t135 -8t105 58q10 31 -0.5 62t-10.5 51zM807 924q51 0 87 -36t36 -87t-36 -86 t-87 -35t-87 35t-36 86t36 87t87 36zM1091.5 975q51.5 0 87 -36t35.5 -87t-35.5 -86t-87 -35t-87 35t-35.5 86t35.5 87t87 36z" />
<glyph unicode="&#x62a;" horiz-adv-x="749" arabic-form="initial" d="M688 375q0 -141 -125 -236q-104 -76 -262.5 -107.5t-300.5 -31.5q-23 0 -37 24.5t-14 61.5t14 60.5t37 23.5q168 0 302 34t134 91l-8 24q-2 10 -14 31l-80 160l237 158q97 -172 107 -210t10 -83zM190.5 924q51.5 0 86 -36t34.5 -87t-34.5 -86t-86 -35t-87 35t-35.5 86 t35.5 87t87 36zM475 975q51 0 87 -36t36 -87t-36 -86t-87 -35t-87 35t-36 86t36 87t87 36z" />
<glyph unicode="&#x62a;" horiz-adv-x="868" arabic-form="medial" d="M-51 86q0 37 14 60.5t37 23.5q168 0 301 34t133 91q-10 41 -43 106l-33 62q-10 18 -24 47l237 158q97 -172 107 -210t10 -84t-10 -91q-23 -80 47 -101q41 -12 143 -12q23 0 37.5 -23.5t14.5 -60.5t-14.5 -61.5t-37.5 -24.5q-260 2 -352 111q-199 -111 -516 -111 q-23 0 -37 24.5t-14 61.5zM188.5 924q51.5 0 87 -36t35.5 -87t-35.5 -86t-87 -35t-86 35t-34.5 86t34.5 87t86 36zM475 975q51 0 86 -36t35 -87t-35 -86t-86 -35t-87 35t-36 86t36 87t87 36z" />
<glyph unicode="&#x62b;" horiz-adv-x="1716" arabic-form="final" d="M950 766v22q41 -25 64.5 -80t13.5 -98q-18 -78 -116.5 -92t-212.5 -2t-189.5 9t-120.5 -50q-25 -25 -27 -75.5t56.5 -98t161.5 -78.5q195 -59 427.5 -49t270.5 86q14 31 -31 123q-20 45 -34.5 66.5t-32.5 60.5q104 74 237 158q45 -86 77 -138.5t36 -113t-7 -131t19 -88.5 q31 -27 174 -27q20 0 34.5 -24.5t14.5 -59.5t-14 -60.5t-35 -25.5q-262 2 -354 111q-154 -86 -476.5 -105.5t-549.5 60.5q-274 92 -273 311q2 188 201 248q156 45 350 0q6 -2 31 -6.5t76 -15.5t135 -8t105 58q10 31 -0.5 62t-10.5 51zM807 924q51 0 87 -36t36 -87t-36 -86 t-87 -35t-87 35t-36 86t36 87t87 36zM1091.5 975q51.5 0 87 -36t35.5 -87t-35.5 -86t-87 -35t-87 35t-35.5 86t35.5 87t87 36zM891 1231q51 0 87 -35t36 -86t-36 -87t-87 -36t-87 36t-36 87t36 86t87 35z" />
<glyph unicode="&#x62b;" horiz-adv-x="749" arabic-form="initial" d="M688 375q0 -141 -125 -236q-104 -76 -262.5 -107.5t-300.5 -31.5q-23 0 -37 24.5t-14 61.5t14 60.5t37 23.5q168 0 302 34t134 91l-8 24q-2 10 -14 31l-80 160l237 158q97 -172 107 -210t10 -83zM190.5 924q51.5 0 86 -36t34.5 -87t-34.5 -86t-86 -35t-87 35t-35.5 86 t35.5 87t87 36zM475 975q51 0 87 -36t36 -87t-36 -86t-87 -35t-87 35t-36 86t36 87t87 36zM272.5 1231q51.5 0 87 -35t35.5 -86t-35.5 -87t-87 -36t-87 36t-35.5 87t35.5 86t87 35z" />
<glyph unicode="&#x62b;" horiz-adv-x="868" arabic-form="medial" d="M-51 86q0 37 14 60.5t37 23.5q168 0 301 34t133 91q-10 41 -43 106l-33 62q-10 18 -24 47l237 158q97 -172 107 -210t10 -84t-10 -91q-23 -80 47 -101q41 -12 143 -12q23 0 37.5 -23.5t14.5 -60.5t-14.5 -61.5t-37.5 -24.5q-260 2 -352 111q-199 -111 -516 -111 q-23 0 -37 24.5t-14 61.5zM188.5 924q51.5 0 87 -36t35.5 -87t-35.5 -86t-87 -35t-86 35t-34.5 86t34.5 87t86 36zM475 975q51 0 86 -36t35 -87t-35 -86t-86 -35t-87 35t-36 86t36 87t87 36zM272.5 1231q51.5 0 87 -35t35.5 -86t-35.5 -87t-87 -36t-87 36t-35.5 87t35.5 86 t87 35z" />
<glyph unicode="&#x62c;" horiz-adv-x="1458" arabic-form="final" d="M721 55q51 0 87 -35.5t36 -87t-36 -87t-87 -35.5t-87 35.5t-36 87t36 87t87 35.5zM1509 84q0 -37 -14 -60.5t-37 -23.5q-190 0 -280.5 49t-128.5 166q-156 20 -310 10q-205 -18 -329 -86q-156 -86 -148 -240.5t176 -232.5q143 -70 347.5 -56.5t332.5 91.5q80 49 95 106 t-52 111q-2 2 -2 8t-2 8q109 -51 109 -137q-2 -117 -108 -201t-244 -124q-404 -115 -676 63q-209 137 -170 365.5t258 355.5q168 98 428 147q-90 61 -95 66q-215 146 -340 88q-49 -25 -70 -72t11 -79v4q-2 2 -2 4q0 35 25.5 60.5t60.5 25.5t60.5 -25.5t25.5 -60.5 t-24.5 -61.5t-57.5 -33.5q-102 -20 -151 43q-68 86 -21 205q27 63 81.5 125.5t113.5 89.5q117 53 239 -6q78 -37 232 -150.5t312.5 -165.5t361.5 -71l-203 -207q51 -12 145 -14q23 0 37 -23.5t14 -60.5z" />
<glyph unicode="&#x62c;" horiz-adv-x="1566" arabic-form="initial" d="M710.5 55q51.5 0 86 -35.5t34.5 -87t-34.5 -87t-86 -35.5t-87 35.5t-35.5 87t35.5 87t87 35.5zM-51 89q0 32 14 55.5t37 23.5q170 0 268 38t180 83q167 92 295 114q-90 61 -94 66q-215 146 -340 88q-53 -27 -73.5 -72t14.5 -79q-4 39 20.5 66.5t61.5 27.5t62.5 -25.5 t25.5 -58.5t-25.5 -61.5t-56.5 -35.5q-102 -18 -154 43q-68 82 -18 205q27 63 81 125.5t113 89.5q117 53 240 -6q78 -37 232 -150.5t312.5 -165.5t360.5 -71l-100 -102q-16 -18 -51 -52t-51 -53l-25 -26q-129 39 -242 59q-203 39 -370 -14q-72 -25 -140 -60 q-268 -141 -526 -141q-20 0 -35.5 28.5t-15.5 60.5z" />
<glyph unicode="&#x62c;" horiz-adv-x="1449" arabic-form="medial" d="M710.5 55q51.5 0 87.5 -35.5t36 -87t-36 -87t-87.5 -35.5t-87 35.5t-35.5 87t35.5 87t87 35.5zM1499 84q0 -35 -14.5 -59.5t-34.5 -24.5q-193 0 -283 49t-129 166q-205 39 -370 -14q-72 -25 -181 -81q-231 -120 -487 -120q-20 0 -35.5 28.5t-15.5 60.5t14 55.5t37 23.5 q170 0 268 38t180 83q167 92 295 114q-90 61 -94 66q-215 145 -339 87q-52 -24 -72.5 -71t12.5 -79q-4 39 21.5 66.5t62.5 27.5t61.5 -25.5t24.5 -58.5t-25.5 -61.5t-59.5 -36t-79 2t-70 41.5q-105 136 63 330q54 62 113 90q117 53 240 -6q78 -37 232 -150.5t312.5 -165.5 t358.5 -71l-100 -102q-66 -70 -100 -105q37 -10 145 -14q20 0 34.5 -24.5t14.5 -59.5z" />
<glyph unicode="&#x62d;" horiz-adv-x="1458" arabic-form="final" d="M1509 84q0 -37 -14 -60.5t-37 -23.5q-190 0 -280.5 49t-128.5 166q-156 20 -310 10q-205 -18 -329 -86q-156 -86 -148 -240.5t176 -232.5q143 -70 347.5 -56.5t332.5 91.5q80 49 95 106t-52 111q-2 2 -2 8t-2 8q109 -51 109 -137q-2 -117 -108 -201t-244 -124 q-404 -115 -676 63q-209 137 -170 365.5t258 355.5q168 98 428 147q-90 61 -95 66q-215 146 -340 88q-49 -25 -70 -72t11 -79v4q-2 2 -2 4q0 35 25.5 60.5t60.5 25.5t60.5 -25.5t25.5 -60.5t-24.5 -61.5t-57.5 -33.5q-102 -20 -151 43q-68 86 -21 205q27 63 81.5 125.5 t113.5 89.5q117 53 239 -6q78 -37 232 -150.5t312.5 -165.5t361.5 -71l-203 -207q51 -12 145 -14q23 0 37 -23.5t14 -60.5z" />
<glyph unicode="&#x62d;" horiz-adv-x="1566" arabic-form="initial" d="M-51 89q0 32 14 55.5t37 23.5q170 0 268 38t180 83q167 92 295 114q-90 61 -94 66q-215 146 -340 88q-53 -27 -73.5 -72t14.5 -79q-4 39 20.5 66.5t61.5 27.5t62.5 -25.5t25.5 -58.5t-25.5 -61.5t-56.5 -35.5q-102 -18 -154 43q-68 82 -18 205q27 63 81 125.5t113 89.5 q117 53 240 -6q78 -37 232 -150.5t312.5 -165.5t360.5 -71l-100 -102q-16 -18 -51 -52t-51 -53l-25 -26q-129 39 -242 59q-203 39 -370 -14q-72 -25 -140 -60q-268 -141 -526 -141q-20 0 -35.5 28.5t-15.5 60.5z" />
<glyph unicode="&#x62d;" horiz-adv-x="1449" arabic-form="medial" d="M1499 84q0 -35 -14.5 -59.5t-34.5 -24.5q-193 0 -283 49t-129 166q-205 39 -370 -14q-72 -25 -181 -81q-231 -120 -487 -120q-20 0 -35.5 28.5t-15.5 60.5t14 55.5t37 23.5q170 0 268 38t180 83q167 92 295 114q-90 61 -94 66q-215 145 -339 87q-52 -24 -72.5 -71 t12.5 -79q-4 39 21.5 66.5t62.5 27.5t61.5 -25.5t24.5 -58.5t-25.5 -61.5t-59.5 -36t-79 2t-70 41.5q-105 136 63 330q54 62 113 90q117 53 240 -6q78 -37 232 -150.5t312.5 -165.5t358.5 -71l-100 -102q-66 -70 -100 -105q37 -10 145 -14q20 0 34.5 -24.5t14.5 -59.5z" />
<glyph unicode="&#x62e;" horiz-adv-x="1458" arabic-form="final" d="M1509 84q0 -37 -14 -60.5t-37 -23.5q-190 0 -280.5 49t-128.5 166q-205 37 -385.5 4t-280.5 -100q-129 -86 -121 -217q8 -158 176 -236q143 -70 347.5 -56.5t332.5 91.5q80 49 95 106t-52 111q-2 2 -2 8t-2 8q109 -51 109 -137q-2 -117 -108 -201t-244 -124 q-404 -115 -676 63q-209 137 -170 365.5t258 355.5q168 98 428 147q-90 61 -95 66q-215 146 -340 88q-49 -25 -70 -72t11 -79v4q-2 2 -2 4q0 35 25.5 60.5t60.5 25.5t60.5 -25.5t25.5 -60.5t-24.5 -61.5t-57.5 -33.5q-102 -20 -151 43q-68 86 -21 205q27 63 81.5 125.5 t113.5 89.5q117 53 239 -6q78 -37 232 -150.5t312.5 -165.5t361.5 -71l-203 -207q51 -12 145 -14q23 0 37 -23.5t14 -60.5zM536.5 1180q51.5 0 87 -36t35.5 -87t-35.5 -87t-87 -36t-87 36t-35.5 87t35.5 87t87 36z" />
<glyph unicode="&#x62e;" horiz-adv-x="1566" arabic-form="initial" d="M-51 89q0 32 14 55.5t37 23.5q170 0 268 38t180 83q167 92 295 114q-90 61 -94 66q-215 146 -340 88q-53 -27 -73.5 -72t14.5 -79q-4 39 20.5 66.5t61.5 27.5t62.5 -25.5t25.5 -58.5t-25.5 -61.5t-56.5 -35.5q-102 -18 -154 43q-68 82 -18 205q27 63 81 125.5t113 89.5 q117 53 240 -6q78 -37 232 -150.5t312.5 -165.5t360.5 -71l-100 -102q-16 -18 -51 -52t-51 -53l-25 -26q-129 39 -242 59q-203 39 -370 -14q-72 -25 -140 -60q-268 -141 -526 -141q-20 0 -35.5 28.5t-15.5 60.5zM526.5 1180q51.5 0 87 -36t35.5 -87t-35.5 -87t-87 -36 t-87.5 36t-36 87t36 87t87.5 36z" />
<glyph unicode="&#x62e;" horiz-adv-x="1449" arabic-form="medial" d="M1499 84q0 -35 -14.5 -59.5t-34.5 -24.5q-193 0 -283 49t-129 166q-205 39 -370 -14q-72 -25 -181 -81q-231 -120 -487 -120q-20 0 -35.5 28.5t-15.5 60.5t14 55.5t37 23.5q170 0 268 38t180 83q167 92 295 114q-90 61 -94 66q-215 145 -339 87q-52 -24 -72.5 -71 t12.5 -79q-4 39 21.5 66.5t62.5 27.5t61.5 -25.5t24.5 -58.5t-25.5 -61.5t-59.5 -36t-79 2t-70 41.5q-105 136 63 330q54 62 113 90q117 53 240 -6q78 -37 232 -150.5t312.5 -165.5t358.5 -71l-100 -102q-66 -70 -100 -105q37 -10 145 -14q20 0 34.5 -24.5t14.5 -59.5z M527 1180q52 0 87 -36t35 -87t-34.5 -87t-87 -36t-87 36t-34.5 87t34.5 87t86.5 36z" />
<glyph unicode="&#x62f;" horiz-adv-x="1040" arabic-form="final" d="M154.5 668q7.5 0 9.5 2q-10 -72 19.5 -102.5t98 -37t107.5 -0.5t80 10.5t61 8.5q129 20 207 -14.5t107 -141.5q6 -25 4 -50.5t-2 -63.5q0 -76 38 -93.5t156 -17.5q20 0 36 -24.5t16 -59.5t-15.5 -59.5t-36.5 -24.5q-258 0 -354 109q-182 -102 -383 -107q-145 -2 -194 94 q-27 51 -48 230l31 8q80 -74 275 -55.5t254 94.5q45 55 -3 73q-56 17 -143.5 1.5t-145 -14.5t-121.5 33q-98 49 -65 200q4 2 11.5 2z" />
<glyph unicode="&#x630;" horiz-adv-x="1040" arabic-form="final" d="M846 279q0 -76 38 -93.5t156 -17.5q20 0 36 -24.5t16 -59.5t-15.5 -59.5t-36.5 -24.5q-258 0 -354 109q-182 -102 -383 -107q-145 -2 -194 94q-27 51 -48 230l31 8q80 -74 275 -55.5t254 94.5q45 55 -3 73q-56 17 -143.5 1.5t-145 -14.5t-121.5 33q-98 49 -65 200 q4 2 11.5 2t9.5 2q-10 -72 19.5 -102.5t98 -37t107.5 -0.5t80 10.5t61 8.5q129 20 207 -14.5t107 -141.5q6 -25 4 -50.5t-2 -63.5zM289 958q51 0 87 -35.5t36 -87t-36 -86t-87 -34.5t-87 34.5t-36 86t36 87t87 35.5z" />
<glyph unicode="&#x631;" horiz-adv-x="888" arabic-form="final" d="M889 168q23 0 37 -23.5t14 -60.5t-14.5 -60.5t-36.5 -23.5q-82 0 -154 10q12 -207 -99.5 -324.5t-311.5 -62.5q-84 25 -189 115q-94 76 -131 74q-16 0 -24 8.5t22 32.5q53 35 109 -9q68 -57 123 -80.5t128 -11.5q100 20 125 166q10 61 -47 205q-18 39 -55 125 q-147 300 -80 422q41 64 258 -25l53 -22q-49 -41 -30 -154q14 -121 86 -201q84 -100 217 -100z" />
<glyph unicode="&#x632;" horiz-adv-x="888" arabic-form="final" d="M889 168q23 0 37 -23.5t14 -60.5t-14.5 -60.5t-36.5 -23.5q-82 0 -154 10q12 -207 -99.5 -324.5t-311.5 -62.5q-84 25 -189 115q-94 76 -131 74q-16 0 -24 8.5t22 32.5q53 35 109 -9q68 -57 123 -80.5t128 -11.5q100 20 125 166q10 61 -47 205q-18 39 -55 125 q-147 300 -80 422q41 64 258 -25l53 -22q-49 -41 -30 -154q14 -121 86 -201q84 -100 217 -100zM345 1061q50 0 86 -36t36 -87t-36 -87t-86 -36t-86 36t-36 87t36 87t86 36z" />
<glyph unicode="&#x633;" horiz-adv-x="1904" arabic-form="final" d="M1061 286q0 26 -27 78t-71 144l118 80q53 37 119 80q37 -70 55 -103q63 -106 64 -205q-4 -59 -33 -114q33 -37 76 -33t65 45q14 31 -20.5 102.5t-46.5 90t-31 57.5l119 80q18 14 59 40.5t60 39.5q18 -37 47 -80q49 -84 60 -126t12 -87q-4 -53 -13 -82q12 -68 103 -105 q43 -20 129 -20q23 0 37 -23.5t14 -60.5t-14.5 -60.5t-36.5 -23.5q-274 0 -361 117q-82 -49 -181 -49t-194 57q-81 -49 -180 -74q-8 -203 -168 -307q-147 -100 -345 -72.5t-320 187.5q-131 166 -80 379q34 142 216 354q18 20 25 29.5t21 27t21.5 26.5t17.5 23q33 48 33 85.5 t-86 59.5q-12 3 -15 3l-2 8q96 12 142.5 -43t17.5 -135q-18 -47 -92 -139q-147 -174 -123 -361q20 -156 143 -262t237 -89t111 175q0 186 -161 508l118 80q18 14 59.5 40.5t59.5 39.5q117 -227 158 -441q43 -33 74 13q10 20 10 46z" />
<glyph unicode="&#x633;" horiz-adv-x="1308" arabic-form="initial" d="M1245 351.5q0 -68.5 -46 -140.5t-122 -111q-170 -84 -348 25q-104 -63 -184 -66.5t-187 56.5q-90 -115 -358 -115q-20 0 -35.5 24.5t-15.5 59.5t15.5 59.5t35.5 24.5q125 0 176 29q88 49 23 182l-64 129q18 12 59.5 38.5t59.5 41.5l119 80q37 -70 55 -103 q63 -106 64 -205q-4 -57 -33 -116q23 -29 58.5 -31t60.5 16q66 45 26 119q-29 53 -47 80t-47 80l119 80q18 14 59 40.5t60 39.5q37 -70 57 -103q72 -115 73 -187.5t-30 -133.5q33 -35 76 -32t63.5 45.5t-67.5 197.5q-10 14 -29 53l119 80q18 14 59 41t59 39 q27 -49 61 -105.5t45 -99.5t11 -111.5z" />
<glyph unicode="&#x633;" horiz-adv-x="1464" arabic-form="medial" d="M1243 373v-94q0 -78 84 -99q45 -12 137 -12q23 0 37.5 -23.5t14.5 -60.5t-14.5 -60.5t-37.5 -23.5q-268 0 -360 117q-72 -51 -175.5 -50t-199.5 58q-106 -63 -186 -66.5t-187 56.5q-90 -115 -356 -115q-23 0 -37 23.5t-14 60.5t14 60.5t37 23.5q123 0 176 29 q88 49 21 182l-64 129q18 12 59 38.5t60 41.5l119 80q37 -70 55 -103q63 -106 63 -205q-4 -57 -32 -116q51 -57 118 -15q66 43 29 119q-14 27 -47 80q-29 39 -49 80l119 80q18 14 59 40.5t59 39.5q37 -70 60 -103q70 -111 71 -185.5t-30 -135.5q33 -35 76 -32t63 45t-67 198 q-10 14 -29 53l119 80q52 40 118 80q27 -49 72 -124t45 -171z" />
<glyph unicode="&#x634;" horiz-adv-x="1904" arabic-form="final" d="M1061 286q0 26 -27 78t-71 144l118 80q53 37 119 80q37 -70 55 -103q63 -106 64 -205q-4 -59 -33 -114q33 -37 76 -33t65 45q14 31 -20.5 102.5t-46.5 90t-31 57.5l119 80q18 14 59 40.5t60 39.5q18 -37 47 -80q49 -84 60 -126t12 -87q-4 -53 -13 -82q12 -68 103 -105 q43 -20 129 -20q23 0 37 -23.5t14 -60.5t-14.5 -60.5t-36.5 -23.5q-274 0 -361 117q-82 -49 -181 -49t-194 57q-81 -49 -180 -74q-8 -203 -168 -307q-147 -100 -345 -72.5t-320 187.5q-131 166 -80 379q34 142 216 354q18 20 25 29.5t21 27t21.5 26.5t17.5 23q33 48 33 85.5 t-86 59.5q-12 3 -15 3l-2 8q96 12 142.5 -43t17.5 -135q-18 -47 -92 -139q-147 -174 -123 -361q20 -156 143 -262t237 -89t111 175q0 186 -161 508l118 80q18 14 59.5 40.5t59.5 39.5q117 -227 158 -441q43 -33 74 13q10 20 10 46zM971 995q51 0 87 -35.5t36 -86t-36 -86 t-87 -35.5t-87 35.5t-36 85.5t36 86t87 36zM1255.5 1047q51.5 0 87 -36t35.5 -86t-35.5 -86t-87 -36t-87 35.5t-35.5 86t35.5 86.5t87 36zM1055 1305q51 0 86 -36t35 -87.5t-35 -87t-86 -35.5t-87 35.5t-36 87t36 87.5t87 36z" />
<glyph unicode="&#x634;" horiz-adv-x="1308" arabic-form="initial" d="M1245 351.5q0 -68.5 -46 -140.5t-122 -111q-170 -84 -348 25q-104 -63 -184 -66.5t-187 56.5q-90 -115 -358 -115q-20 0 -35.5 24.5t-15.5 59.5t15.5 59.5t35.5 24.5q125 0 176 29q88 49 23 182l-64 129q18 12 59.5 38.5t59.5 41.5l119 80q37 -70 55 -103 q63 -106 64 -205q-4 -57 -33 -116q23 -29 58.5 -31t60.5 16q66 45 26 119q-29 53 -47 80t-47 80l119 80q18 14 59 40.5t60 39.5q37 -70 57 -103q72 -115 73 -187.5t-30 -133.5q33 -35 76 -32t63.5 45.5t-67.5 197.5q-10 14 -29 53l119 80q18 14 59 41t59 39 q27 -49 61 -105.5t45 -99.5t11 -111.5zM530.5 995q51.5 0 87 -35.5t35.5 -86t-35.5 -86t-87 -35.5t-87 35.5t-35.5 85.5t35.5 86t87 36zM815 1047q51 0 87 -36t36 -86t-36 -86t-87 -36t-87 35.5t-36 86t36 86.5t87 36zM614.5 1305q51.5 0 86 -36t34.5 -87.5t-34.5 -87 t-86 -35.5t-87 35.5t-35.5 87t35.5 87.5t87 36z" />
<glyph unicode="&#x634;" horiz-adv-x="1464" arabic-form="medial" d="M1243 373v-94q0 -78 84 -99q45 -12 137 -12q23 0 37.5 -23.5t14.5 -60.5t-14.5 -60.5t-37.5 -23.5q-268 0 -360 117q-72 -51 -175.5 -50t-199.5 58q-106 -63 -186 -66.5t-187 56.5q-90 -115 -356 -115q-23 0 -37 23.5t-14 60.5t14 60.5t37 23.5q123 0 176 29 q88 49 21 182l-64 129q18 12 59 38.5t60 41.5l119 80q37 -70 55 -103q63 -106 63 -205q-4 -57 -32 -116q51 -57 118 -15q66 43 29 119q-14 27 -47 80q-29 39 -49 80l119 80q18 14 59 40.5t59 39.5q37 -70 60 -103q70 -111 71 -185.5t-30 -135.5q33 -35 76 -32t63 45t-67 198 q-10 14 -29 53l119 80q52 40 118 80q27 -49 72 -124t45 -171zM528.5 995q51.5 0 87 -35.5t35.5 -86t-35.5 -86t-87 -35.5t-87 35.5t-35.5 85.5t35.5 86t87 36zM813 1047q51 0 87 -36t36 -86t-36 -86t-87 -36t-86 35.5t-35 86t35 86.5t86 36zM612.5 1305q51.5 0 87 -36 t35.5 -87.5t-35.5 -87t-87 -35.5t-87.5 35.5t-36 87t36 87.5t87.5 36z" />
<glyph unicode="&#x635;" horiz-adv-x="1974" arabic-form="final" d="M1569 500.5q-25 27.5 -90.5 25.5t-140 -67.5t-130.5 -147.5q90 -4 203 23t152 86q31 53 6 80.5zM1974 168q23 0 37 -23.5t14 -60.5t-14 -60.5t-37 -23.5q-164 0 -253 37t-130 113q-250 -168 -598 -52q0 -256 -196 -370q-145 -86 -335 -52.5t-306 183.5q-131 166 -80 379 q29 127 190 321q39 49 49.5 60.5t23.5 28t20.5 26.5t17.5 24q70 95 -2 127q-37 21 -66 21l-2 8q96 12 142.5 -43t17.5 -135q-18 -47 -92 -139q-147 -174 -123 -361q20 -156 143 -262t234 -90q117 14 114 174q0 188 -161 510l118 80q18 14 59.5 40.5t59.5 39.5 q94 -178 137 -332q160 195 283 280q176 121 356 97q150 -23 205 -148q53 -129 -55 -272q-39 -51 42 -88t187 -37z" />
<glyph unicode="&#x635;" horiz-adv-x="1427" arabic-form="initial" d="M1118 500.5q-25 27.5 -91.5 25.5t-149.5 -80q-61 -53 -117 -135q86 -4 199.5 22t148.5 83t10 84.5zM0 0q-23 0 -37 23.5t-14 60.5t14 60.5t37 23.5q119 0 170 25q92 41 31 174l-70 141q18 12 59 38.5t60 41.5l119 80q6 -10 22.5 -43t36 -69.5t48 -123t30.5 -96.5 q160 195 282 280q177 122 357 97q74 -10 128 -51t77 -101q53 -137 -62 -276q-125 -156 -321.5 -210t-368.5 -25.5t-215 108.5q0 -82 -129 -125q-100 -33 -254 -33z" />
<glyph unicode="&#x635;" horiz-adv-x="1492" arabic-form="medial" d="M1119 500.5q-26 27.5 -92.5 25.5t-149.5 -80q-61 -53 -117 -135q90 -4 202.5 23t151.5 86q31 53 5 80.5zM1493 0q-296 0 -375 139q-207 -117 -450 -98q-104 8 -181 40t-102 77q0 -82 -129 -125q-100 -33 -256 -33q-23 0 -37 23.5t-14 60.5t14 60.5t37 23.5q119 0 172 25 q92 43 29 174l-70 141q18 12 59 38.5t60 41.5l119 80q6 -10 22.5 -43t39 -77t49 -123t28.5 -89q160 195 283 280q176 122 356 97q74 -10 128 -51t77 -101q51 -135 -64 -276q-43 -53 32 -85t134 -32h39q23 0 37 -23.5t14 -60.5t-14 -60.5t-37 -23.5z" />
<glyph unicode="&#x636;" horiz-adv-x="1974" arabic-form="final" d="M1569 500.5q-25 27.5 -90.5 25.5t-140 -67.5t-130.5 -147.5q90 -4 203 23t152 86q31 53 6 80.5zM1974 168q23 0 37 -23.5t14 -60.5t-14 -60.5t-37 -23.5q-164 0 -253 37t-130 113q-250 -168 -598 -52q0 -256 -196 -370q-145 -86 -335 -52.5t-306 183.5q-131 166 -80 379 q29 127 190 321q39 49 49.5 60.5t23.5 28t20.5 26.5t17.5 24q36 48 34.5 71t-17 41t-47.5 27t-38 9l-2 8q96 12 142.5 -43t17.5 -135q-18 -47 -92 -139q-147 -174 -123 -361q20 -156 143 -262t234 -90q117 14 114 174q0 188 -161 510l118 80q18 14 59.5 40.5t59.5 39.5 q94 -178 137 -332q160 195 283 280q176 121 356 97q150 -23 205 -148q53 -129 -55 -272q-39 -51 42 -88t187 -37zM1102 1061q51 0 87 -36t36 -87t-36 -87t-87 -36t-87 36t-36 87t36 87t87 36z" />
<glyph unicode="&#x636;" horiz-adv-x="1427" arabic-form="initial" d="M1118 500.5q-25 27.5 -91.5 25.5t-149.5 -80q-61 -53 -117 -135q86 -4 199.5 22t148.5 83t10 84.5zM0 0q-23 0 -37 23.5t-14 60.5t14 60.5t37 23.5q119 0 170 25q92 41 31 174l-70 141q18 12 59 38.5t60 41.5l119 80q6 -10 22.5 -43t36 -69.5t48 -123t30.5 -96.5 q160 195 282 280q177 122 357 97q74 -10 128 -51t77 -101q53 -137 -62 -276q-125 -156 -321.5 -210t-368.5 -25.5t-215 108.5q0 -82 -129 -125q-100 -33 -254 -33zM651 1061q51 0 87 -36t36 -87t-36 -87t-87 -36t-87 36t-36 87t36 87t87 36z" />
<glyph unicode="&#x636;" horiz-adv-x="1492" arabic-form="medial" d="M1119 500.5q-26 27.5 -92.5 25.5t-149.5 -80q-61 -53 -117 -135q90 -4 202.5 23t151.5 86q31 53 5 80.5zM1493 0q-296 0 -375 139q-207 -117 -450 -98q-104 8 -181 40t-102 77q0 -82 -129 -125q-100 -33 -256 -33q-23 0 -37 23.5t-14 60.5t14 60.5t37 23.5q119 0 172 25 q92 43 29 174l-70 141q18 12 59 38.5t60 41.5l119 80q6 -10 22.5 -43t39 -77t49 -123t28.5 -89q160 195 283 280q176 122 356 97q74 -10 128 -51t77 -101q51 -135 -64 -276q-43 -53 32 -85t134 -32h39q23 0 37 -23.5t14 -60.5t-14 -60.5t-37 -23.5zM652 1061q50 0 86 -36 t36 -87t-36 -87t-86 -36t-86 36t-36 87t36 87t86 36z" />
<glyph unicode="&#x637;" horiz-adv-x="1628" arabic-form="final" d="M1140.5 436.5q-73.5 18.5 -189 -50.5t-175.5 -206q70 0 208 50t184 119t-27.5 87.5zM647 461q0 -53 -10 -115q129 139 281.5 238.5t298.5 77.5q90 -12 147 -68.5t72 -138.5q12 -94 -31 -174q-31 -47 17 -80t206 -33q23 0 37 -23.5t14 -60.5t-14 -60.5t-37 -23.5 q-279 0 -368 127q-182 -123 -460 -166t-485 19q-229 66 -252 231q-16 119 152 201q-4 -8 -4 -13l-6 -16q-102 -72 -55 -160q18 -39 63 -64.5t105.5 -26.5t110.5 37t54 114q5 94 -59 226q-20 40 -45 97q-142 348 74 535q71 61 151 59q34 0 0 -8q-51 -12 -64 -98 q-22 -149 66 -387q41 -111 41 -246z" />
<glyph unicode="&#x637;" horiz-adv-x="1241" arabic-form="initial" d="M885 436.5q-76 18.5 -191.5 -52.5t-173.5 -204q72 0 210 50t184.5 119t-29.5 87.5zM1180 455q0 -248 -238 -361q-240 -112 -722 -94q-108 4 -173 0h-47q-23 0 -37 23.5t-14 60.5t14 60.5t37 23.5q231 0 227 141q-5 79 -44.5 166.5t-46.5 106t-29 75.5t-37.5 150.5 t19 181.5t107 150.5t152.5 60.5q36 0 2 -8q-51 -12 -65 -109q-16 -78 0 -141q23 -117 66.5 -233.5t39.5 -221t-10 -141.5q125 137 280.5 237.5t301.5 78.5q90 -12 153.5 -69.5t63.5 -137.5z" />
<glyph unicode="&#x637;" horiz-adv-x="1366" arabic-form="medial" d="M887 436.5q-74 18.5 -189.5 -50.5t-175.5 -206q70 0 208 50t184.5 119t-27.5 87.5zM393 461q0 -53 -10 -115q129 139 281.5 238.5t298.5 77.5q90 -12 153.5 -69.5t63.5 -138.5t-29 -157q-41 -90 39 -115q39 -14 176 -14q23 0 37 -23.5t14 -60.5t-14 -60.5t-37 -23.5 q-279 0 -367 125q-176 -109 -507 -123q-115 -8 -260.5 -4t-184.5 2h-47q-20 0 -35.5 24.5t-15.5 59.5t15.5 59.5t35.5 24.5q231 0 227 141q-5 79 -45 167q-39 88 -46 106q-8 18 -24 61q-78 203 -20 352q27 78 101.5 142.5t154.5 62.5q36 0 2 -8q-51 -12 -65 -109 q-16 -78 0 -141q23 -117 65.5 -231.5t42.5 -249.5z" />
<glyph unicode="&#x638;" horiz-adv-x="1628" arabic-form="final" d="M1140.5 436.5q-73.5 18.5 -189 -50.5t-175.5 -206q70 0 208 50t184 119t-27.5 87.5zM876.5 1061q51.5 0 87 -36t35.5 -87t-35.5 -87t-87 -36t-87 36t-35.5 87t35.5 87t87 36zM647 461q0 -53 -10 -115q129 139 281.5 238.5t298.5 77.5q90 -12 147 -68.5t72 -138.5 q12 -94 -31 -174q-31 -47 17 -80t206 -33q23 0 37 -23.5t14 -60.5t-14 -60.5t-37 -23.5q-279 0 -368 127q-182 -123 -460 -166t-485 19q-229 66 -252 231q-16 119 152 201q-4 -8 -4 -13l-6 -16q-102 -72 -55 -160q18 -39 63 -64.5t105.5 -26.5t110.5 37t54 114q5 94 -59 226 q-20 40 -45 97q-142 348 74 535q71 61 151 59q34 0 0 -8q-51 -12 -64 -98q-22 -149 66 -387q41 -111 41 -246z" />
<glyph unicode="&#x638;" horiz-adv-x="1241" arabic-form="initial" d="M885 436.5q-76 18.5 -191.5 -52.5t-173.5 -204q72 0 210 50t184.5 119t-29.5 87.5zM622.5 1061q51.5 0 87 -36t35.5 -87t-35.5 -87t-87 -36t-87 36t-35.5 87t35.5 87t87 36zM1180 455q0 -248 -238 -361q-240 -112 -722 -94q-108 4 -173 0h-47q-23 0 -37 23.5t-14 60.5 t14 60.5t37 23.5q231 0 227 141q-5 79 -44.5 166.5t-46.5 106t-29 75.5t-37.5 150.5t19 181.5t107 150.5t152.5 60.5q36 0 2 -8q-51 -12 -65 -109q-16 -78 0 -141q23 -117 66.5 -233.5t39.5 -221t-10 -141.5q125 137 280.5 237.5t301.5 78.5q90 -12 153.5 -69.5t63.5 -137.5 z" />
<glyph unicode="&#x638;" horiz-adv-x="1366" arabic-form="medial" d="M887 436.5q-74 18.5 -189.5 -50.5t-175.5 -206q70 0 208 50t184.5 119t-27.5 87.5zM622.5 1061q51.5 0 87 -36t35.5 -87t-35.5 -87t-87 -36t-87 36t-35.5 87t35.5 87t87 36zM393 461q0 -53 -10 -115q129 139 281.5 238.5t298.5 77.5q90 -12 153.5 -69.5t63.5 -138.5 t-29 -157q-41 -90 39 -115q39 -14 176 -14q23 0 37 -23.5t14 -60.5t-14 -60.5t-37 -23.5q-279 0 -367 125q-176 -109 -507 -123q-115 -8 -260.5 -4t-184.5 2h-47q-20 0 -35.5 24.5t-15.5 59.5t15.5 59.5t35.5 24.5q231 0 227 141q-5 79 -45 167q-39 88 -46 106q-8 18 -24 61 q-78 203 -20 352q27 78 101.5 142.5t154.5 62.5q36 0 2 -8q-51 -12 -65 -109q-16 -78 0 -141q23 -117 65.5 -231.5t42.5 -249.5z" />
<glyph unicode="&#x639;" horiz-adv-x="1351" arabic-form="final" d="M1352 0q-537 0 -580 231q-121 -16 -125 -16q-164 -29 -264 -96q-129 -86 -121 -219q8 -158 176 -236q143 -70 348.5 -56.5t331.5 93.5q80 49 95 106t-52 111l-4 14q109 -51 109 -137q-2 -115 -108 -199t-244 -124q-304 -87 -545 0q-156 51 -242 159.5t-59 272.5 q43 250 313 381q-115 31 -189.5 95t-87.5 155q-14 135 91.5 260t267.5 176t299 -23t134 -188.5t-112 -165.5q-94 -45 -196 -14q-47 12 -76 40.5t-29 65.5t27 63.5t64.5 26.5t64.5 -26.5t27 -57.5t-13 -49h2q74 0 106 41t11.5 94t-88.5 82t-166 10q-147 -27 -192 -123 t26.5 -189t229.5 -107q127 -14 286 14q70 10 127.5 22t157.5 25l-80 -270h-29q-20 0 -30 2q72 -76 338 -76q23 0 37 -23.5t14 -60.5t-14.5 -60.5t-36.5 -23.5z" />
<glyph unicode="&#x639;" horiz-adv-x="1054" arabic-form="initial" d="M324 568q0 38 25.5 64.5t70.5 26.5t74 -45q25 -45 0 -90q74 0 105.5 41t11 94.5t-87 83t-171.5 9t-159 -81.5q-53 -62 -43 -136t80 -132q134 -111 477 -56q104 18 145 27.5t141 21.5l-80 -272q-248 13 -544 -65q-47 -12 -61.5 -15.5t-54.5 -13t-62.5 -12.5t-71.5 -10 t-119 -7q-12 0 -31.5 25.5t-19.5 60.5t14 58.5t37 23.5q86 0 172 14q-209 74 -229 236q-14 135 91 260t261 176q170 51 299 -18q145 -76 142 -194t-104 -164t-204 -17q-47 12 -75.5 40.5t-28.5 66.5z" />
<glyph unicode="&#x639;" horiz-adv-x="1112" arabic-form="medial" d="M1112 168q23 0 37 -23.5t14 -60.5t-14 -60.5t-37 -23.5q-276 0 -364 125q-141 -8 -375.5 -66.5t-372.5 -58.5q-12 0 -31.5 25.5t-19.5 60.5t14 58.5t37 23.5q86 0 172 14q-209 74 -229 236q-14 135 91 260t261 176q170 51 299 -18q145 -76 142 -194t-104 -164t-204 -17 q-47 12 -75.5 40.5t-28.5 66.5t25.5 64.5t70.5 26.5t74 -45q25 -45 0 -90q74 0 105.5 41t11 94.5t-87 83t-171.5 9t-159 -81.5q-53 -62 -43 -136t80 -132q134 -111 477 -56q104 18 145 27.5t141 21.5l-57 -196q31 -31 176 -31z" />
<glyph unicode="&#x63a;" horiz-adv-x="1351" arabic-form="final" d="M1352 0q-537 0 -580 231q-121 -16 -125 -16q-164 -29 -264 -96q-129 -86 -121 -219q8 -158 176 -236q143 -70 348.5 -56.5t331.5 93.5q80 49 95 106t-52 111l-4 14q109 -51 109 -137q-2 -115 -108 -199t-244 -124q-304 -87 -545 0q-156 51 -242 159.5t-59 272.5 q43 250 313 381q-115 31 -189.5 95t-87.5 155q-14 135 91.5 260t267.5 176t299 -23t134 -188.5t-112 -165.5q-94 -45 -196 -14q-47 12 -76 40.5t-29 65.5t27 63.5t64.5 26.5t64.5 -26.5t27 -57.5t-13 -49h2q74 0 106 41t11.5 94t-88.5 82t-166 10q-147 -27 -192 -123 t26.5 -189t229.5 -107q127 -14 286 14q70 10 127.5 22t157.5 25l-80 -270h-29q-20 0 -30 2q72 -76 338 -76q23 0 37 -23.5t14 -60.5t-14.5 -60.5t-36.5 -23.5zM471 1372q51 0 87 -36t36 -87t-36 -87t-87 -36t-87 36t-36 87t36 87t87 36z" />
<glyph unicode="&#x63a;" horiz-adv-x="1054" arabic-form="initial" d="M324 568q0 38 25.5 64.5t70.5 26.5t74 -45q25 -45 0 -90q74 0 105.5 41t11 94.5t-87 83t-171.5 9t-159 -81.5q-53 -62 -43 -136t80 -132q134 -111 477 -56q104 18 145 27.5t141 21.5l-80 -272q-248 13 -544 -65q-47 -12 -61.5 -15.5t-54.5 -13t-62.5 -12.5t-71.5 -10 t-119 -7q-12 0 -31.5 25.5t-19.5 60.5t14 58.5t37 23.5q86 0 172 14q-209 74 -229 236q-14 135 91 260t261 176q170 51 299 -18q145 -76 142 -194t-104 -164t-204 -17q-47 12 -75.5 40.5t-28.5 66.5zM313.5 1255q51.5 0 86 -35.5t34.5 -87t-34.5 -87t-86 -35.5t-87.5 35.5 t-36 87t36 87t87.5 35.5z" />
<glyph unicode="&#x63a;" horiz-adv-x="1112" arabic-form="medial" d="M1112 168q23 0 37 -23.5t14 -60.5t-14 -60.5t-37 -23.5q-276 0 -364 125q-141 -8 -375.5 -66.5t-372.5 -58.5q-12 0 -31.5 25.5t-19.5 60.5t14 58.5t37 23.5q86 0 172 14q-209 74 -229 236q-14 135 91 260t261 176q170 51 299 -18q145 -76 142 -194t-104 -164t-204 -17 q-47 12 -75.5 40.5t-28.5 66.5t25.5 64.5t70.5 26.5t74 -45q25 -45 0 -90q74 0 105.5 41t11 94.5t-87 83t-171.5 9t-159 -81.5q-53 -62 -43 -136t80 -132q134 -111 477 -56q104 18 145 27.5t141 21.5l-57 -196q31 -31 176 -31zM313.5 1255q51.5 0 86 -35.5t34.5 -87 t-34.5 -87t-86 -35.5t-87.5 35.5t-36 87t36 87t87.5 35.5z" />
<glyph unicode="&#x641;" horiz-adv-x="1730" arabic-form="final" d="M1168 686q-30 0 -39 -35t9.5 -81t73.5 -70q20 -10 103 -25q-39 121 -78 166t-69 45zM1731 170q23 0 37 -24.5t14 -61.5t-14.5 -60.5t-36.5 -23.5q-266 0 -357 113q-156 -80 -408.5 -107t-473.5 19q-276 55 -383 235q-47 78 -46.5 156t48.5 135q111 131 356 74 q143 -35 238 -31q143 8 102 139q-4 20 -4 33v22q45 -33 67.5 -95t-0.5 -103q-43 -84 -196 -80q-90 4 -133 8q-106 10 -148 -18q-82 -61 9.5 -162.5t329 -127.5t417.5 19q88 20 127 60q-168 16 -213 30q-86 29 -109 127q-25 98 12 199.5t117 171.5q181 147 338 -4 q70 -70 110 -175.5t35 -195.5t-20 -135q-29 -102 37 -123q37 -14 148 -14zM1138.5 1255q51.5 0 87.5 -35.5t36 -87t-36 -87t-87.5 -35.5t-87 35.5t-35.5 87t35.5 87t87 35.5z" />
<glyph unicode="&#x641;" horiz-adv-x="788" arabic-form="initial" d="M330 686q-29 0 -39 -35t8 -84q18 -43 76 -67q18 -8 100 -25q-39 121 -77.5 166t-67.5 45zM0 0q-20 0 -34.5 24.5t-14.5 59.5t14.5 60.5t34.5 25.5q172 0 300 33t136 86l-117 12q-113 10 -163 61q-29 29 -41 84q-25 98 12 200t117 171q153 140 309 21q66 -51 112 -139.5 t58 -186.5q29 -229 -121 -354q-102 -82 -272.5 -120t-329.5 -38zM270 1165.5q41 -30.5 47.5 -81t-25.5 -91.5t-82 -47t-91 26t-46 82t25.5 91t80.5 46t91 -25.5z" />
<glyph unicode="&#x641;" horiz-adv-x="890" arabic-form="medial" d="M329 686q-30 0 -39 -35t9 -84q18 -43 76 -67q18 -8 100 -25q-39 121 -77.5 166t-68.5 45zM891 170q23 0 37 -24.5t14 -61.5t-14.5 -60.5t-36.5 -23.5q-260 0 -356 113q-106 -59 -256 -86t-279 -27q-20 0 -35.5 24.5t-15.5 59.5t15.5 60.5t35.5 25.5q172 0 300 33t136 86 q-168 16 -213 30q-86 29 -108 127q-25 98 12 200t117 171q123 110 252 55q115 -53 182.5 -205.5t40.5 -301.5q-10 -55 -19 -93q-18 -74 56 -92q47 -10 135 -10zM270 1165.5q41 -30.5 47.5 -81t-25.5 -91.5t-82 -47t-91 26t-47 82t25.5 91t81.5 46t91 -25.5z" />
<glyph unicode="&#x642;" horiz-adv-x="1333" arabic-form="final" d="M707 351q0 -39 34 -69.5t87 -42t65 -14.5q-39 175 -123 209q-41 20 -57 -26q-6 -18 -6 -57zM1384 84q0 -37 -14 -60.5t-37 -23.5q-94 0 -162 12q-12 -109 -28 -155q-68 -209 -255 -285t-401.5 -23t-338 210t-72.5 372q34 143 216 355q86 101 94 119t16 33q22 45 -21 69 q-27 12 -96 8q-4 12 -4 14l-7 14q117 29 175 -36q47 -57 16 -138q-18 -47 -102 -149.5t-109 -229.5t20 -225q43 -106 140.5 -175t215.5 -77q241 -16 300 174q14 53 8 136q-127 -14 -240 22q-141 43 -166 152q-25 96 12.5 198.5t114.5 171.5q141 127 277 39 q180 -115 227 -411q29 -25 170 -25q23 0 37 -24.5t14 -61.5zM786.5 1006q51.5 0 87 -36t35.5 -87.5t-35.5 -87t-87 -35.5t-87 35.5t-35.5 87t35.5 87.5t87 36zM512 1108q51 0 87 -36t36 -86t-36 -86t-87 -36t-87 36t-36 86t36 86t87 36z" />
<glyph unicode="&#x642;" horiz-adv-x="788" arabic-form="initial" d="M330 686q-29 0 -39 -35t8 -84q18 -43 76 -67q18 -8 100 -25q-39 121 -77.5 166t-67.5 45zM0 0q-20 0 -34.5 24.5t-14.5 59.5t14.5 60.5t34.5 25.5q172 0 300 33t136 86l-117 12q-113 10 -163 61q-29 29 -41 84q-25 98 12 200t117 171q153 140 309 21q66 -51 112 -139.5 t58 -186.5q29 -229 -121 -354q-102 -82 -272.5 -120t-329.5 -38zM270 1165.5q41 -30.5 47.5 -81t-25.5 -91.5t-82 -47t-91 26t-46 82t25.5 91t80.5 46t91 -25.5zM520 1319q41 -31 47 -81t-25.5 -91t-81.5 -47t-91 25.5t-46.5 80.5t25.5 90t81 47.5t91 -24.5z" />
<glyph unicode="&#x642;" horiz-adv-x="890" arabic-form="medial" d="M329 686q-30 0 -39 -35t9 -84q18 -43 76 -67q18 -8 100 -25q-39 121 -77.5 166t-68.5 45zM891 170q23 0 37 -24.5t14 -61.5t-14.5 -60.5t-36.5 -23.5q-260 0 -356 113q-106 -59 -256 -86t-279 -27q-20 0 -35.5 24.5t-15.5 59.5t15.5 60.5t35.5 25.5q172 0 300 33t136 86 q-168 16 -213 30q-86 29 -108 127q-25 98 12 200t117 171q123 110 252 55q115 -53 182.5 -205.5t40.5 -301.5q-10 -55 -19 -93q-18 -74 56 -92q47 -10 135 -10zM270 1165.5q41 -30.5 47.5 -81t-25.5 -91.5t-82 -47t-91 26t-47 82t25.5 91t81.5 46t91 -25.5zM520 1319 q41 -31 47 -81t-25.5 -91t-81.5 -47t-91 25.5t-46.5 80.5t25.5 90t81 47.5t91 -24.5z" />
<glyph unicode="&#x643;" horiz-adv-x="1722" arabic-form="final" d="M1057 785q0 -30 -14.5 -43t-34.5 -13q-51 0 -52 47q-47 4 -86 -23.5t-7.5 -59t110.5 -33t103 -49.5t7.5 -95t-73 -73.5t-148.5 -10.5q-49 6 -76 14q-72 12 -124 -12q-27 -16 -62 -49q41 104 127 119q35 4 75 0t75.5 9t21.5 38t-71.5 28t-89 24.5t-27.5 74.5 q8 82 123.5 128t187.5 19q35 -10 35 -40zM1722 168q20 0 35 -24.5t15 -59.5t-14.5 -59.5t-35.5 -24.5q-266 0 -352 111q-150 -78 -404.5 -105t-476.5 19q-266 55 -374 225q-49 72 -52.5 149.5t35.5 135.5q86 135 312 100q32 -2 76 -16q74 -23 141 24q10 -61 -74 -104 q-49 -23 -120.5 -28t-85 -40t21.5 -80q78 -113 278 -168q240 -70 527 13q158 45 147 153q-7 51 -61 165q-126 264 -58 441q33 82 105.5 144.5t152.5 60.5q36 0 2 -8q-49 -12 -64 -96.5t-3 -153.5q29 -145 98 -307q43 -102 39 -248q0 -64 -4 -92q-4 -88 69 -113 q37 -14 125 -14z" />
<glyph unicode="&#x643;" horiz-adv-x="1208" arabic-form="initial" d="M0 0q-23 0 -37 23.5t-14 60.5t14 60.5t37 23.5q176 0 375 36t330.5 99.5t134 134t-33.5 98t-105 23.5t-299 -70.5t-326 -56.5q-164 18 -164 121q0 35 24.5 59.5t66.5 24.5t67 -43q10 -25 10 -45.5t-12 -40.5q260 14 356 473q22 111 47 334l197 -187q-23 -207 -133 -391 q-43 -74 -109 -145q117 68 293 101.5t291 -9.5q137 -53 135 -217q-8 -162 -199 -274q-162 -96 -416.5 -144.5t-529.5 -48.5z" />
<glyph unicode="&#x643;" horiz-adv-x="1265" arabic-form="medial" d="M1266 168q23 0 37 -23.5t14 -60.5t-14.5 -60.5t-36.5 -23.5q-168 0 -255 37t-130 119q-172 -82 -407.5 -119t-473.5 -37q-23 0 -37 23.5t-14 60.5t14 60.5t37 23.5q176 0 375 36t330.5 99.5t134 134t-33.5 98t-105 23.5t-299 -70.5t-326 -56.5q-164 18 -164 121 q0 35 24.5 59.5t66.5 24.5t67 -43q10 -25 10 -45.5t-12 -40.5q260 14 356 473q22 111 47 334l197 -187q-23 -207 -133 -391q-43 -74 -109 -145q117 68 293 101.5t291 -9.5q141 -57 133 -217q-4 -96 -70 -174q-2 -6 -4 -19q-16 -53 61 -86q39 -20 136 -20z" />
<glyph unicode="&#x644;" horiz-adv-x="1060" arabic-form="final" d="M739 1198q0 -2 -16 -6q-49 -12 -65.5 -99.5t-0.5 -150.5q18 -100 115 -352q96 -268 121 -397q37 -25 168 -25q23 0 37 -23.5t14 -60.5t-14.5 -60.5t-36.5 -23.5q-82 0 -154 10q-4 -98 -59 -175t-143 -120q-184 -90 -373 -20q-211 78 -260 305q-23 115 39 268 q27 68 49 115q49 115 6 154q-27 20 -103 20l-2 10q129 41 162 -15q43 -72 -18 -267q-46 -155 57 -302q47 -67 124 -111t169 -42q127 4 119 172q-6 131 -84 354l-66 176q-74 197 -82 320t57.5 211t141.5 125q45 16 71.5 14t26.5 -4z" />
<glyph unicode="&#x644;" horiz-adv-x="448" arabic-form="initial" d="M317 1198q0 -2 -16 -6q-49 -12 -65 -99.5t0 -150.5q20 -121 96 -307q100 -236 20 -426q-86 -209 -352 -209q-20 0 -34.5 24.5t-14.5 59.5t14.5 59.5t34.5 24.5q152 0 186 68q27 49 -16 163q-41 94 -72.5 158t-58.5 159q-61 214 47 359q57 76 133 113q45 16 71.5 14 t26.5 -4z" />
<glyph unicode="&#x644;" horiz-adv-x="569" arabic-form="medial" d="M317 1198q0 -2 -16 -6q-49 -12 -65 -99.5t0 -150.5q20 -121 97 -306t44 -341v-55q0 -49 72 -64q35 -8 120 -8q23 0 37.5 -23.5t14.5 -60.5t-14.5 -60.5t-37.5 -23.5q-221 0 -319 76q-96 -76 -250 -76q-20 0 -35.5 24.5t-15.5 59.5t15.5 59.5t35.5 24.5q152 0 186 68 q27 49 -16 163q-41 94 -72.5 158t-59.5 161q-60 209 48 357q57 76 133 113q45 16 71.5 14t26.5 -4z" />
<glyph unicode="&#x645;" horiz-adv-x="1601" arabic-form="final" d="M946 479q16 -86 66 -176q66 -125 135 -80q20 12 23.5 48t-19.5 79q-58 104 -205 129zM1602 168q20 0 35.5 -24.5t15.5 -59.5t-15.5 -59.5t-35.5 -24.5q-252 0 -336 90q-74 -74 -174 -88q-127 -12 -227.5 55.5t-98.5 178.5q-29 -68 -68.5 -184.5t-97.5 -219.5 q-76 -139 -199 -182q-68 -23 -139.5 -12.5t-114.5 45.5q-84 70 -86 172t80 151q39 23 91.5 14.5t72.5 -36.5q39 -66 -12 -119q-25 -27 -65 -27t-64 29q-6 -47 16.5 -67.5t61.5 -16.5q88 8 162 102t178 375q18 47 25 62.5t23 55.5q18 40 30 64q125 235 260 299q108 53 303 45 q-78 -68 -9 -129q33 -29 72 -59q86 -66 92 -174q2 -35 -5 -109.5t15.5 -100.5t69.5 -34q45 -12 144 -12z" />
<glyph unicode="&#x645;" horiz-adv-x="1073" arabic-form="initial" d="M580 479q16 -86 65 -176q66 -125 135 -80q20 12 22.5 49t-18.5 78q-52 102 -204 129zM0 0q-23 0 -37 23.5t-14 60.5t14 60.5t37 23.5q141 0 219 102q39 51 82.5 157t89.5 179q126 196 463 180q-45 -47 -43 -72.5t36 -55.5t73 -60q100 -78 92 -231q-12 -184 -142 -297 q-106 -96 -254 -62q-113 23 -174 98q-33 39 -41 84q-41 -100 -125 -141q-92 -49 -276 -49z" />
<glyph unicode="&#x645;" horiz-adv-x="1232" arabic-form="medial" d="M580 479q16 -86 65 -176q66 -125 135 -80q20 12 22.5 49t-18.5 78q-52 102 -204 129zM1233 168q23 0 37 -23.5t14 -60.5t-14.5 -60.5t-36.5 -23.5q-252 0 -334 90q-74 -74 -179.5 -87t-201.5 40t-117 147q-41 -100 -125 -141q-92 -49 -276 -49q-23 0 -37 23.5t-14 60.5 t14 60.5t37 23.5q141 0 219 102q39 51 82.5 157t89.5 179q126 196 463 180q-45 -47 -43 -72.5t36 -55.5t73 -60q86 -68 90 -176q2 -45 0 -86q-15 -93 8.5 -120.5t71.5 -35.5q45 -12 143 -12z" />
<glyph unicode="&#x646;" horiz-adv-x="1196" arabic-form="final" d="M475 362q51 0 87 -35.5t36 -87t-36 -87t-87 -35.5t-87 35.5t-36 87t36 87t87 35.5zM1196 168q23 0 37 -23.5t14 -60.5t-14 -60.5t-37 -23.5q-123 0 -209 23q-23 -197 -179.5 -289t-348 -56.5t-313 190.5t-70.5 372q32 136 216 352q18 20 25 29.5t21 27t21.5 26.5t17.5 23 q65 95 -4 127q-37 21 -66 21v10q94 12 140.5 -43t17.5 -137q-18 -47 -92 -139q-147 -174 -123 -359q20 -156 143 -262t234 -90q117 14 116 174q-4 186 -163 510l237 158q53 -102 78 -193q55 -205 137 -266q53 -41 164 -41z" />
<glyph unicode="&#x646;" horiz-adv-x="749" arabic-form="initial" d="M688 375q0 -141 -125 -236q-104 -76 -262.5 -107.5t-300.5 -31.5q-23 0 -37 24.5t-14 61.5t14 60.5t37 23.5q168 0 302 34t134 91l-8 24q-2 10 -14 31l-80 160l237 158q97 -172 107 -210t10 -83zM332 924q51 0 86 -36t35 -87t-35 -86t-86 -35t-87 35t-36 86t36 87t87 36z " />
<glyph unicode="&#x646;" horiz-adv-x="868" arabic-form="medial" d="M-51 86q0 37 14 60.5t37 23.5q168 0 301 34t133 91q-10 41 -43 106l-33 62q-10 18 -24 47l237 158q97 -172 107 -210t10 -84t-10 -91q-23 -80 47 -101q41 -12 143 -12q23 0 37.5 -23.5t14.5 -60.5t-14.5 -61.5t-37.5 -24.5q-260 2 -352 111q-199 -111 -516 -111 q-23 0 -37 24.5t-14 61.5zM334 924q51 0 87 -36t36 -87t-36 -86t-87 -35t-86 35t-35 86t35 87t86 36z" />
<glyph unicode="&#x647;" horiz-adv-x="1241" arabic-form="final" d="M1292 84q0 -37 -14 -60.5t-37 -23.5q-213 0 -321 170q-72 115 -109 358q-327 52 -459 -58q-70 -58 -81 -132t43.5 -134.5t158.5 -80.5t171 8.5t87 81.5t-11.5 94t-105.5 41q25 -45 -2 -89t-70.5 -44t-70.5 26.5t-27 63.5t29 65.5t76 41.5q102 29 196 -15 q109 -49 112 -166.5t-136 -190.5t-303 -17q-158 49 -265.5 176t-87 266t137 204.5t301.5 80.5q88 6 323 2q25 72 83 108.5t171 40.5q-61 -88 -85 -266t34.5 -323t210.5 -144q23 0 37 -23.5t14 -60.5z" />
<glyph unicode="&#x647;" horiz-adv-x="1134" arabic-form="initial" d="M760 283q-10 -41 -51 -89.5t-82 -76.5q74 -45 110 -66l107 -67q90 66 41 157q-23 46 -125 142zM469 590q-96 -80 -105.5 -149.5t70.5 -168.5q80 74 88 146t-53 172zM0 0q-23 0 -37 23.5t-14 60.5t14 60.5t37 23.5q96 0 164 8q-163 224 53 490q33 41 172 146t178 175 q51 94 -53 184l8 46q145 -76 152 -197q6 -98 -76 -244q185 -148 246 -211t88 -96q158 -201 137 -412q-13 -139 -132 -267q-21 -22 -120 -132q-25 66 -196 174q-61 39 -150.5 91t-161.5 110q-145 -33 -309 -33z" />
<glyph unicode="&#x647;" horiz-adv-x="1245" arabic-form="medial" d="M627 117q73 -47 217 -133q90 66 41 157q-23 46 -125 142q-10 -41 -51 -89.5t-82 -76.5zM469 590q-96 -80 -105.5 -149.5t70.5 -168.5q80 74 88 146t-53 172zM1245 168q23 0 37 -23.5t14 -60.5t-14 -60.5t-37 -23.5q-104 0 -182 16q-18 -92 -78 -170q-20 -27 -77.5 -89.5 t-90.5 -98.5q-25 66 -196 174q-61 39 -150.5 91t-161.5 110q-150 -33 -309 -33q-23 0 -37 23.5t-14 60.5t14 60.5t37 23.5q96 0 164 8q-163 224 53 490q33 41 172 146t178 175q51 94 -53 184l8 46q145 -76 152 -197q6 -98 -76 -244q221 -182 287 -254q145 -156 178 -317 q32 -37 182 -37z" />
<glyph unicode="&#x648;" horiz-adv-x="882" arabic-form="final" d="M309 481q-63 -119 -55 -196q10 -102 119 -121q63 61 26 158q-16 45 -34.5 71.5t-55.5 87.5zM883 168q20 0 34.5 -24.5t14.5 -59.5t-14.5 -59.5t-34.5 -24.5q-90 0 -152 10q12 -207 -98.5 -324.5t-313.5 -60.5q-80 23 -181 106t-132 82t-31 12t21 28q55 37 116.5 -14.5 t117 -75t128.5 -11.5q115 23 131 223q-169 -118 -311 11q-61 53 -102 139t-47 168q-10 150 77 256q90 115 242 129q84 10 264 -55q-37 -37 -33.5 -113t43.5 -155t107.5 -133t153.5 -54z" />
<glyph unicode="&#x649;" horiz-adv-x="1204" arabic-form="final" d="M1194 170q61 0 61 -86q0 -37 -14 -60.5t-37 -23.5h-22q-15 0 -19 4q-10 0 -18 2q6 -109 -45 -199t-146 -149q-199 -125 -434 -78q-266 53 -403 289q-63 109 -51 252q6 76 90 291t96 301q21 147 -90 170q196 47 171 -211q-8 -79 -41.5 -174.5t-42.5 -121.5t-20.5 -68 t-15.5 -70.5t-4 -62.5t8 -62q47 -154 232 -248q166 -86 337 -76q90 6 147.5 47t65.5 95q8 55 -40 97q-47 42 -159 55q-160 19 -167 167q-6 41 -19 102q68 -18 176.5 -26t196.5 -47q57 -29 98 -84q30 -23 53 -24t56 -1z" />
<glyph unicode="&#x64a;" horiz-adv-x="1204" arabic-form="final" d="M463 -579.5q45 24.5 93 10t73 -58.5t11.5 -93t-58.5 -73.5t-93.5 -10.5t-73 58t-11 93.5t58.5 74zM694.5 -611q14.5 49 58.5 74t93 10.5t74 -58.5t11.5 -93t-59 -73.5t-94.5 -10.5t-73.5 58t-10 93zM1194 170q61 0 61 -86q0 -37 -14 -60.5t-37 -23.5h-22q-15 0 -19 4 q-10 0 -18 2q6 -109 -45 -199t-146 -149q-199 -125 -434 -78q-266 53 -403 289q-63 109 -51 252q6 76 90 291t96 301q21 147 -90 170q196 47 171 -211q-8 -79 -41.5 -174.5t-42.5 -121.5t-20.5 -68t-15.5 -70.5t-4 -62.5t8 -62q47 -154 232 -248q166 -86 337 -76 q90 6 147.5 47t65.5 95q8 55 -40 97q-47 42 -159 55q-160 19 -167 167q-6 41 -19 102q68 -18 176.5 -26t196.5 -47q57 -29 98 -84q30 -23 53 -24t56 -1z" />
<glyph unicode="&#x64a;" horiz-adv-x="749" arabic-form="initial" d="M190.5 -123q51.5 0 86 -36t34.5 -87t-34.5 -87t-86 -36t-87 36t-35.5 87t35.5 87t87 36zM475 -72q51 0 87 -35.5t36 -87t-36 -87t-87 -35.5t-87 35.5t-36 87t36 87t87 35.5zM688 375q0 -141 -125 -236q-104 -76 -262.5 -107.5t-300.5 -31.5q-23 0 -37 24.5t-14 61.5 t14 60.5t37 23.5q168 0 302 34t134 91l-8 24q-2 10 -14 31l-80 160l237 158q97 -172 107 -210t10 -83z" />
<glyph unicode="&#x64a;" horiz-adv-x="868" arabic-form="medial" d="M188.5 -123q51.5 0 87 -36t35.5 -87t-35.5 -87t-87 -36t-86 36t-34.5 87t34.5 87t86 36zM475 -72q51 0 86 -35.5t35 -87t-35 -87t-86 -35.5t-87 35.5t-36 87t36 87t87 35.5zM-51 86q0 37 14 60.5t37 23.5q168 0 301 34t133 91q-10 41 -43 106l-33 62q-10 18 -24 47 l237 158q97 -172 107 -210t10 -84t-10 -91q-23 -80 47 -101q41 -12 143 -12q23 0 37.5 -23.5t14.5 -60.5t-14.5 -61.5t-37.5 -24.5q-260 2 -352 111q-199 -111 -516 -111q-23 0 -37 24.5t-14 61.5z" />
<glyph unicode="&#xd;" horiz-adv-x="681" />
<glyph unicode=" "  horiz-adv-x="399" />
<glyph unicode="&#x09;" horiz-adv-x="399" />
<glyph unicode="&#xa0;" horiz-adv-x="399" />
<glyph unicode="!" horiz-adv-x="491" d="M180 122q0 23 -4 48q61 84 137 69t103 -89q28 -97 -4 -193q-113 -16 -160 18q-48 34 -60 79t-12 68zM168 1122q59 0 174 -51q-47 -3 -28 -111t41 -196t26 -202t-68 -165q-45 -25 -114 -18q52 19 -58 311q-70 186 -80 295q-10 137 107 137z" />
<glyph unicode="&#x22;" horiz-adv-x="557" d="M281 950q57 86 122 60q25 -8 47 -36t31 -61q33 -100 -4 -196q-16 -41 -42 -57t-52 4q3 78 -27 92q-35 10 -53 69t-22 125zM61 950q53 84 123 60q53 -18 76 -97q35 -96 -4 -196q-16 -41 -41 -57t-51 4q0 73 -27 92q-39 10 -57 84q-19 61 -19 110z" />
<glyph unicode="#" horiz-adv-x="618" d="M297 424h-27l9 -143h55q-10 116 -10 145q-8 -2 -27 -2zM354 125q-4 12 -4 35q-6 12 -6 45q-49 -4 -72 -4q-6 -68 -30 -100t-70 1q-2 10 -5 35t-5 30t-6 42q-103 17 -64 80q23 -4 55 -8q-12 80 -10 151q-102 16 -63 80q20 -6 63 -10q4 88 32 120t87 -22l12 -98h58 q4 88 30 110q29 33 84 -20l13 -98q47 -8 69 -26t17 -46q0 6 -25 10h-55l2 -80q4 -27 4 -80q51 -8 74 -24t18 -47q-6 13 -96 8q-6 -80 -29 -111q-23 -37 -74 -6q-4 20 -4 33z" />
<glyph unicode="%" horiz-adv-x="1058" d="M791 356q-16 0 -35 -20q-33 -45 -64 -170t-8 -160q14 -19 39 19q35 43 63 145q18 92 19 158q-2 26 -14 28zM705 -35q-123 0 -166 111q-49 104 12 209q70 113 221 113t207 -113q47 -109 -18 -209q-78 -111 -256 -111zM238 14q27 -8 53 35q37 51 117 271t156 394t149 222 q47 23 86 -4q-28 0 -117 -244q-37 -98 -59 -149q-85 -227 -143 -349t-124 -184q-66 -60 -118 8zM256 633q6 -29 17 -31t34 21q35 47 55 149q25 88 22 134t-17 48t-31 -22q-31 -36 -58 -138t-22 -161zM354 991q121 0 170 -110q45 -109 -12 -209q-68 -111 -219 -111 q-151 -1 -207 107t16 216q74 108 252 107z" />
<glyph unicode="&#x26;" horiz-adv-x="987" d="M924 453q16 -166 -76 -209q-56 -26 -190 -8t-166 -7q-27 100 77 146q65 25 205 36t150 42zM440 932q-80 0 -96 -131t41 -246q59 -129 162 -115q33 2 38 -14t-24 -29q-107 -43 -127 -155t29 -209q49 -104 127 -105q43 0 47 66t-27 143q-39 74 -75 86q184 8 286 -82 q94 -88 41 -179q-54 -91 -250 -91t-327 111q-121 96 -148 223t47 182q29 21 78 29t60 16q-70 4 -154 75t-105 191q-16 123 64 203q95 86 293 70t309 -162q43 -59 51 -124t-22 -107q-63 -106 -266 -39q32 16 38 112t-14 189q-25 92 -76 92z" />
<glyph unicode="'" horiz-adv-x="337" d="M61 950q57 84 125 60q53 -20 76 -97q35 -96 -4 -196q-16 -41 -41 -57t-53 4q2 43 -8 73q-10 14 -19 19q-35 10 -53 69t-23 125z" />
<glyph unicode="(" horiz-adv-x="604" d="M487 973q-115 0 -159 -176t-27 -412q12 -227 82 -418t160 -209q-175 16 -311 210t-166 444q-30 248 67 403q108 178 354 158z" />
<glyph unicode=")" horiz-adv-x="606" d="M119 -190q113 0 160 184q43 160 27 396t-83 425q-72 190 -162 211q178 -18 318 -219q127 -190 160 -428q29 -258 -68 -408q-108 -179 -352 -161z" />
<glyph unicode="*" horiz-adv-x="884" d="M260 918q-18 -29 37 -119q45 -84 113 -152q-20 37 -52 129t-39 166q80 16 127 6q92 -24 98 -106t-16 -154t-22 -76q57 63 102 168q43 117 35 176q178 -145 160 -245q-25 -96 -230 -115q125 -27 183 -70q127 -86 22 -170q-55 -45 -141 -61q11 15 -9 69t-71 122t-78 87 q89 -210 88 -286q-216 -45 -225 123q-6 61 16 131q-55 -61 -92 -129l-20 -60q-4 -25 12 -41q-119 88 -162 144q-90 104 56 135q88 18 188 24q-126 25 -192 67t-72 88t38 84t146 65z" />
<glyph unicode="+" horiz-adv-x="649" d="M375 600q0 -16 6 -40t10 -50q4 -27 6 -35q92 -4 144 -31q57 -35 45 -100q-34 -12 -96 -24t-70 -13q4 -111 -17 -145q-34 -42 -110 8l-12 37l-15 39q-2 6 -12 47q-102 0 -156 39t-30 131q10 0 74 5t71 5q-18 123 12 164q41 47 150 -37z" />
<glyph unicode="," horiz-adv-x="376" d="M61 217q55 86 142 68q33 -6 61 -31q60 -55 49 -205q-18 -86 -53 -112q-37 -45 -96 -9q37 18 37 74q-86 16 -119 96q-15 39 -21 119z" />
<glyph unicode="-" horiz-adv-x="509" d="M70 512q47 0 111 7t136 -5q92 -12 121 -84q16 -39 6 -102q-104 -25 -215 -21q-90 10 -131 51q-55 52 -28 154z" />
<glyph unicode="." horiz-adv-x="374" d="M70 145l-9 72q57 86 142 68q70 -12 98 -88q16 -57 12 -134l-7 -28q-5 -20 -9 -31q-90 -16 -137 6q-86 39 -90 135z" />
<glyph unicode="/" horiz-adv-x="686" d="M61 14q27 -6 60 40t119 283t141 361q80 188 158 238q47 23 86 -4q-28 0 -119 -244q-26 -80 -96 -254t-86 -207q-74 -159 -142 -221t-121 8z" />
<glyph unicode="0" horiz-adv-x="882" d="M354 328q58 -283 139 -296q61 -10 76 119q15 131 -9 315t-62 300q-30 76 -52 112t-51 40q-29 6 -47 -29q-37 -66 -34 -228t40 -333zM358 956q174 0 292 -144t158 -341t-32 -330q-74 -154 -266 -153q-162 0 -285 153q-113 133 -151 332q-37 199 37 341t247 142z" />
<glyph unicode="1" horiz-adv-x="679" d="M514 989q-22 -11 -20 -81t60 -321t63 -428t-113 -194q-63 -12 -176 41q24 6 32 76t-24 303q-50 417 33 533q-53 -47 -78 -158q-20 -111 -53 -131q-49 -31 -177 53q23 12 37 35q31 33 58 71q84 115 155 162q109 76 203 39z" />
<glyph unicode="2" horiz-adv-x="970" d="M803 131q57 0 53 31q94 -176 25 -228q-87 -60 -371 29q-178 47 -230 49t-57 -18q-18 106 62 147q90 81 163 277t68 368q-10 176 -133 177q-86 0 -90 -140q-6 -113 43 -262q8 -33 41 -102q25 -41 43 -43q-102 -98 -204 -28t-142 224q-39 154 26 258q74 129 277 129 q170 0 297 -100t127 -246q-2 -180 -176 -327q-63 -56 -125 -90t-119 -74q69 6 217 -12t205 -19z" />
<glyph unicode="3" horiz-adv-x="937" d="M416 494q-14 0 -23 7q-8 7 -5 16t18 13l208 218q-84 -8 -319 24q-106 8 -127 8q-51 -2 -53 -32q-92 178 -23 231q57 37 227 4q5 -2 61 -13t154 -39t171 -34q43 0 45 18q20 -98 -52 -141l-225 -244q123 -18 227 -84q141 -86 169 -222t-89 -210q-106 -59 -286 -59t-293 113 q-45 53 -66 108q-45 123 0 219t158 72q51 -12 123 -70q-33 -10 -43 -110q-20 -102 0 -187q20 -102 96 -110q115 -14 137 116q16 121 -41 250q-69 138 -149 138z" />
<glyph unicode="4" horiz-adv-x="788" d="M399 385q-49 410 29 526q-67 -64 -85 -266q-3 -33 -9 -124t-41 -185q43 37 106 49zM723 416q8 -76 -4 -109q-16 -33 -45 -35q18 -199 -35 -266q-68 -88 -252 0q33 8 35 87t-16 235q-80 4 -138 -37q-66 -72 -207 43q10 2 29 37q29 63 69 161t74 168q66 145 146 226 q100 92 196 63q-23 -13 -21 -75t32 -198t67 -310q58 0 70 10z" />
<glyph unicode="5" horiz-adv-x="862" d="M338 551q72 0 168 -29q98 -37 182 -106q90 -86 109 -191q25 -139 -76 -211q-94 -59 -272 -59t-287 108q-49 55 -68 107q-43 121 6 207q43 94 158 67q53 -12 127 -69q-35 -14 -49 -107q-22 -90 -4 -180t96 -98q57 -8 86 26t35 97q10 117 -57 258q-68 141 -155 141 t-129 -16q-43 -16 -50 -17q-10 66 -15 176q0 111 23 176q-92 20 -98 -10q-33 147 116 168q80 10 287 -22q80 -9 120 -9t40 31q94 -172 37 -227q-30 -25 -98 -25t-228 47l-123 33q-39 -113 -16 -280q63 14 135 14z" />
<glyph unicode="6" horiz-adv-x="843" d="M475 4q43 0 49 98t-18 209q-35 125 -80 173t-96 -23q-12 -169 30 -313t115 -144zM483 -35q-153 -1 -271 147t-146 340t76 348q102 156 339 171q23 4 28 -4t-13 -23q-68 -43 -117 -172q-43 -137 -49 -260q102 122 223 64t191 -208t16 -266q-68 -137 -277 -137z" />
<glyph unicode="7" horiz-adv-x="768" d="M655 545q4 -220 -155 -211q-92 -201 -107 -244q-35 -125 -8 -164q-206 119 -80 281q27 35 63 79t48 60l-90 23q-44 12 -52 -2q-35 147 60 157q33 6 87 -7t103 -19q77 133 123 288q-45 -41 -192 -30q-178 8 -230 0q-96 -25 -49 -133q-145 203 -106 299q33 72 180 71 q80 0 193 -19t145 -23q32 -3 62 -7t38 6q35 -56 4 -166t-114 -290q59 4 77 51z" />
<glyph unicode="8" horiz-adv-x="854" d="M516 35q43 6 62 41q18 35 0 86q-49 125 -252 239q-33 -61 -21 -156q13 -95 69 -157t142 -53zM453 870q-41 78 -111 72t-92 -70q-29 -70 20 -145q47 -94 185 -162q2 -2 14 -6q20 59 14 155t-30 156zM309 967q205 49 309 -41t72 -219q-29 -127 -176 -175q186 -109 252 -241 q60 -129 -20 -222t-300 -94q-147 1 -264 109t-100 213q4 55 49 92t133 45q-100 66 -152 147t-50 161t66 140t181 85z" />
<glyph unicode="9" horiz-adv-x="804" d="M377 963q-61 0 -73 -121t18 -271q16 -66 34 -98q18 -39 45 -39t54 39t37 100q14 164 -16 277t-99 113zM473 438q-98 -166 -221 -114q-106 45 -166 217q-55 178 6 303q70 156 277 155q100 0 183 -47t132 -129q102 -176 35 -407q-88 -262 -379 -443q-16 -10 -26 -3 q-9 7 -1 24q125 241 160 444z" />
<glyph unicode=":" horiz-adv-x="432" d="M127 145l-8 72q55 86 141 68q70 -12 98 -88q16 -57 13 -134q-16 -55 -19 -59q-90 -16 -135 6q-86 39 -90 135zM68 610l-7 68q57 86 140 67q74 -12 98 -88q31 -92 -2 -192q-92 -12 -139 8q-84 37 -90 137z" />
<glyph unicode=";" horiz-adv-x="434" d="M121 217q55 86 135 70t104 -90q16 -53 13 -148q-18 -82 -54 -112q-37 -45 -96 -9q27 14 31 45q0 2 6 29q-90 16 -119 96q-14 39 -20 119zM61 678q57 86 137 70t101 -87q32 -101 -4 -196q-210 -28 -227 145z" />
<glyph unicode="&#x3c;" horiz-adv-x="550" d="M104 473q77 -116 385 -297q-8 -131 -122 -76q-107 46 -209 186t-97 228q97 4 183 43t82 78q94 -109 75 -180q-25 -59 -118 -60q-98 4 -179 78z" />
<glyph unicode="=" horiz-adv-x="557" d="M336 381q72 0 127 -23t18 -79q-137 -16 -221 -11q-86 0 -125 27q-21 7 -25 29t23 51l74 2q57 4 129 4zM84 512l164 8q111 0 160 -18q61 -31 24 -86q-271 -32 -344 16q-50 26 -4 80z" />
<glyph unicode="&#x3e;" horiz-adv-x="552" d="M61 539q12 127 125 77q110 -54 208 -191q99 -138 98 -226q-90 0 -180 -42t-85 -77q-102 111 -73 178q22 63 114 61t178 -77q-60 94 -308 248q-59 37 -77 49z" />
<glyph unicode="?" horiz-adv-x="878" d="M315 100l-6 70q57 84 140 70q72 -16 98 -90q23 -74 12 -134q-2 -14 -16 -59q-86 -14 -137 8q-80 37 -91 135zM401 377q-4 100 64 319q74 210 76 274t-29 97q-32 33 -114 39t-100 -87q-26 -139 50 -269q20 -31 39 -33q-103 -98 -197 -52q-94 45 -122 165t45 208 q92 106 273 106t319 -91q139 -97 106 -223t-186 -250q-5 -2 -25 -22t-30 -27q-10 -8 -42 -44t-50 -69t-24 -65q-5 -32 -14 -34q-18 -14 -32 25q-9 15 -7 33z" />
<glyph unicode="@" horiz-adv-x="1097" d="M580 162q18 0 23 30t-1 142q-10 96 0 178q0 41 16 68q-72 0 -98 -107q-23 -148 35 -278q14 -33 25 -33zM809 88q-51 0 -86 43q-56 56 -76 223q-8 0 -3 -49t3 -84q0 -84 -33 -115q-18 -18 -59 -18q-123 0 -199 113q-76 102 -71 233q0 133 90 195t262 -19q49 96 186 -6 q-4 -27 7 -122t30 -173q31 -102 60 -129q53 29 57 164t-89 259t-294 147q-246 29 -344 -115q-82 -127 -30 -315t194 -284q142 -97 286 5q12 -29 3 -77t-37 -85q-82 -94 -226 -49q-174 53 -276 214t-103 341q4 188 126 308t362 108q209 -8 344 -123q114 -103 138 -241 t-36 -242q-66 -106 -184 -107h-2z" />
<glyph unicode="A" horiz-adv-x="1116" d="M324 135q49 0 65 88q16 59 27 213l-31 17q-82 27 -115 -54q-31 -84 -12 -168q6 -41 24 -69t42 -27zM451 459q92 -39 143 -82q-59 223 -84 500q-44 0 -53 -265q0 -73 -6 -153zM260 -4q-116 0 -182 96t-55 203q6 123 96 174q100 61 272 10l25 -8q14 268 30 356 q35 190 123 254q111 76 308 -30q-63 0 -84 -170q-16 -166 18 -357q27 -196 107 -300t180 5q-119 -221 -236 -231q-102 -6 -186 158q-23 -66 -74 -105q-49 -43 -98 -39q55 35 37 178q-10 141 -95 222q-14 -188 -49 -287q-47 -129 -137 -129z" />
<glyph unicode="B" horiz-adv-x="1122" d="M670 -59q-266 0 -434 116q-135 95 -167 227t48 185q86 53 233 -45q-37 -68 -28 -172q6 -123 99 -203t286 -63q92 12 112 139q14 123 -43 251t-153 154q45 -213 51 -303q10 -145 -45 -186q-31 -27 -101 -15t-125 66q25 10 22 71t-48 294q-45 211 -45 367t114 169 q60 10 164 -43q-51 -8 -41 -127q6 -70 47 -268q94 23 105 137q16 110 -46 220t-169 122q-160 16 -230 -78q-57 -76 -34 -196t80 -176q-90 -92 -182 -40t-116 180q-22 128 64 220q106 117 361 133t417 -104q137 -102 127 -246q-16 -141 -180 -184q184 -45 262 -197 q72 -152 -28 -270q-111 -135 -377 -135z" />
<glyph unicode="C" horiz-adv-x="880" d="M688 1036q-21 -4 14 -182q36 -178 26 -276t-85 -125q-47 -12 -117 8q-14 43 -22 94q-6 20 -15 59q-8 39 -12 58l-24 121q-27 127 -56 188q-16 29 -33 29t-30 -37q-23 -80 -16 -236q8 -155 48 -325t107 -271q68 -96 168 -92q78 2 131 60q51 51 66 110q4 37 0 49 q28 -29 22 -77t-41 -95q-86 -117 -248 -116q-191 0 -335 168t-193 389q-51 221 8 383q74 174 246 174q82 0 133 -95q35 -82 53 -184q6 -18 16 -66t25 -59l-24 172q-29 174 47 199q39 14 141 -25z" />
<glyph unicode="D" horiz-adv-x="1150" d="M332 813q0 166 114 180q58 8 162 -43q-61 -10 -26 -221q35 -172 41 -201q55 -240 49 -383q0 -70 -41 -104q-37 -25 -105 -15t-125 66q23 10 22 76t-46 287t-45 358zM662 -59q-258 0 -426 116q-135 95 -167 227t48 185q88 55 235 -45q-39 -59 -41 -167t74 -183 q92 -92 266 -92q115 0 156 165q45 150 22 365q-29 221 -106 365q-94 164 -223 163q-162 0 -226 -94q-54 -72 -32 -190t80 -172q-88 -92 -180 -41t-116 180t60 221q107 117 340 131q285 16 481 -155q174 -156 214 -392q39 -236 -81 -412t-378 -175z" />
<glyph unicode="E" horiz-adv-x="1206" d="M250 117q2 102 133 108q78 2 295 -50t289 -60q137 -16 161 53q31 -236 -88 -270q-92 -33 -295 55q-87 35 -229 105t-211 83q-49 7 -55 -24zM662 950q-47 -6 -44 -135q8 -45 13 -99q6 -55 11 -102t7 -73q49 129 221 69q66 -16 78 -4q-2 -158 -63 -188q-45 -25 -127 14 q-57 32 -78 44t-29 13q-4 -150 -41 -202q-55 -80 -188 -51q23 2 29 45q2 51 -37 260q-39 168 -35 309t119 149q66 0 164 -49zM524 1040q-139 0 -207 -93t-48 -205t112 -158q-133 -68 -239 2t-120 198t110 222q124 93 392 75q76 -3 284 -25t284 -17t94 30q-45 -203 -174 -213 q-88 -2 -253 91t-235 93z" />
<glyph unicode="F" horiz-adv-x="1261" d="M664 950q-51 -8 -39 -121q4 -80 43 -260q47 38 166 16q28 -5 76 -15q99 -20 118 12q-14 -164 -80 -197q-52 -23 -118 15t-88 54q-22 17 -56 33q45 -215 53 -307q14 -150 -41 -186q-32 -27 -102 -16t-125 69q27 6 23 76t-56 301q-47 231 -47 373q-4 178 109 196 q58 8 164 -43zM524 1040q-137 0 -209 -96q-63 -94 -43 -204t111 -156q-133 -68 -241 2t-121 198q-12 128 100 215q137 102 403 82q66 -3 294 -25t317 -17q88 5 106 30q2 -176 -82 -225q-66 -35 -198 14q-33 12 -121 53q-168 85 -222 107t-94 22z" />
<glyph unicode="G" horiz-adv-x="788" d="M438 336q-170 0 -288 123q-117 123 -125 266q-23 154 69 256q100 115 303 96q207 -14 318 -135q43 -51 50 -103t-24 -87q-76 -82 -270 -17q31 17 41 95t-12 142t-77 64q-54 0 -95 -92q-35 -86 -37 -206t36 -224q48 -130 158 -129q-4 137 39 190q51 68 207 33 q-23 -23 2 -149q6 -64 19 -123q29 -152 4 -287t-154 -192q-70 -33 -163 -38t-156 23q-125 53 -181 170t-28 213q29 96 153 97q61 0 154 -41q-68 -18 -78 -138q-14 -109 21 -198q39 -105 94 -97q104 14 108 177q0 74 -16 177t-18 136q-16 -2 -54 -2z" />
<glyph unicode="H" horiz-adv-x="1064" d="M336 154q59 0 55 110q4 100 -51 264q-78 23 -96 -75q-16 -72 12 -191q33 -108 80 -108zM831 406q63 -236 151 -236q32 0 62 41q-49 -121 -129 -180q-37 -35 -101 -35t-134 134t-105 314q-57 18 -149 52q14 -242 -4 -346q-24 -154 -132 -154t-186 108q-78 102 -83 234 t63 194q86 80 244 29l-25 62q-115 274 -94 395q27 147 274 37q-47 -88 -56 -246t-1 -279q74 -18 139 -20q-39 238 -2 399q37 183 166 183q50 0 170 -54q-76 -6 -98 -148t2 -337q76 41 78 80q89 -209 -50 -227z" />
<glyph unicode="I" horiz-adv-x="647" d="M367 475q-45 221 -45 352q-4 176 75 226q-115 -27 -153 -160t-4 -268q43 -138 127 -150zM336 31q76 0 70 127q0 100 -35 288q-184 -16 -285 97q-86 100 -61 254q33 158 159 233q145 92 365 35q-16 -8 -10 -66q0 -43 20 -129q53 -301 59 -368q23 -236 -26 -352 q-66 -160 -246 -160q-154 0 -244 119q-35 49 -41 103t19 93q57 90 242 31q-27 -10 -37 -83t0 -147q18 -75 51 -75z" />
<glyph unicode="J" horiz-adv-x="647" d="M547 911q-33 -18 2 -192q10 -70 35 -168q47 -221 41 -375q-4 -197 -115 -278q-60 -44 -152 -48t-155 44q-123 94 -140 262q-14 168 101 204q51 20 151 -24q-14 -2 -26 -41q-20 -82 -13 -197q0 -117 31 -188q12 -33 31 -29q80 8 70 170q-2 57 -32 231t-38 302 q-10 195 74 278q49 49 135 49zM610 1122q51 -129 -84 -178q-51 -18 -139 -33q-203 -27 -272 -67q-51 -25 -52 -80q-82 211 -6 295q53 61 209 51q92 -8 129 -14q152 -29 195 -15q26 8 20 41z" />
<glyph unicode="K" horiz-adv-x="997" d="M356 294q0 -288 52 -288q-164 -55 -242 88q-63 117 -82 365q-10 119 -14 299t-16 240t-34 67q113 51 191 -6q63 -51 96 -178q29 -98 39 -275q86 66 123 226t-29 255q215 12 283 -94q66 -98 -6 -226t-217 -179q78 -23 164 -117q25 -31 90 -128t75 -110q49 -63 95 -47 q16 4 53 47q-149 -327 -272 -213q-59 47 -144 218q-68 152 -135 251q-35 49 -76 72q6 -123 6 -267z" />
<glyph unicode="L" horiz-adv-x="948" d="M20 117q2 102 138 108q78 2 306 -51t294 -59q143 -16 162 53q37 -233 -86 -270q-100 -33 -306 55q-80 31 -236 103t-212 85q-52 7 -60 -24zM446 1059q-53 -10 -43 -152q-1 -13 15 -169t5 -300t-97 -194q-47 -25 -133 -8q25 2 29 54t-36 281q-31 229 -28 351 q12 164 123 180q61 6 165 -43z" />
<glyph unicode="M" horiz-adv-x="1101" d="M758 1114q33 0 108 -27q10 -6 30 -14t32 -14q-82 -6 -99 -176q-23 -147 13 -351t94 -299q74 -111 145 -22q-45 -117 -129 -180q-37 -35 -92 -35t-104 67q-94 135 -146 400q-29 147 -28 246q-84 -324 -11 -580q23 -57 39 -90t37 -33q-152 -55 -264 72q-88 98 -160 325 q-18 59 -96 383q4 -44 7 -164t18 -286q31 -263 127 -344q-162 0 -222 110t-16 428q62 336 39 447q-6 25 -23 61q-14 21 -28 27q104 35 190 -45q74 -66 133 -211q35 -78 94 -268q4 -20 33 -125q12 -59 27 -97q-31 223 82 578q35 217 170 217z" />
<glyph unicode="N" horiz-adv-x="749" d="M31 1065q156 45 278 -141q82 -121 187 -418l71 -219q33 -98 68 -176q-23 84 -41 331q-27 274 -49 387q-45 203 -125 273q188 0 256 -146q49 -104 39 -327l-19 -187q-31 -182 -26 -325q4 -66 26 -99q16 -12 33 -12q-135 -43 -246 76q-86 86 -180 307q-41 96 -133 371 q3 -32 40 -240q36 -207 41 -343t-18 -187t-71 -48t-142 89q20 6 43 53q43 106 69 299t3 393q-11 146 -67 248q-18 34 -37 41z" />
<glyph unicode="O" horiz-adv-x="909" d="M352 365q78 -332 160 -342q34 -5 56 33t34 146t-10 304q-35 300 -127 483q-29 47 -63 52t-56 -33q-41 -88 -36 -270t42 -373zM377 1081q178 0 323 -170q127 -158 173 -385t-35 -376q-88 -174 -306 -175q-184 -1 -321 167t-178 390t39 379q94 170 305 170z" />
<glyph unicode="P" horiz-adv-x="1024" d="M594 961q-80 -14 -8 -338l37 -187q102 12 108 162q10 143 -57 281q-78 147 -182 161q-168 20 -230 -98q-49 -92 -22 -246t88 -221q-82 -113 -176 -47q-94 59 -121 209q-35 162 47 278q94 141 332 162q244 14 405 -96q143 -102 179 -258t-60 -248q-98 -102 -307 -61 q31 -156 32 -262q6 -121 -36 -150q-41 -30 -109 -20t-123 67q21 6 21 76q0 69 -48 309t-47 371q0 178 113 199q60 10 164 -43z" />
<glyph unicode="Q" horiz-adv-x="1064" d="M139 35q0 104 135 108q94 2 293 -47q248 -55 305 -61q141 -16 164 51q35 -233 -90 -270q-122 -40 -475 131q-199 98 -276 112q-50 7 -56 -24zM496 209q67 -12 92 113q23 100 4 280q-23 170 -71 300t-103 136q-70 14 -94 -112q-20 -106 -2 -278t66 -302q48 -131 108 -137z M385 1081q178 0 322 -143q125 -129 163 -316t-45 -317q-90 -145 -307 -145q-180 0 -325 145q-121 123 -160 313t50 326q89 137 302 137z" />
<glyph unicode="R" horiz-adv-x="1245" d="M604 961q-51 -8 -35 -156q4 -76 23 -150l31 -172q51 4 84 45t41 103q16 125 -48 256q-78 139 -194 147q-158 16 -230 -78q-57 -78 -32 -200q18 -113 80 -170q-90 -90 -187 -39q-85 49 -111 176t64 223q102 117 338 131q293 14 459 -131q71 -63 101 -143t16 -154t-74 -125 t-160 -61q117 -23 213 -129q27 -29 68 -86q55 -88 106 -76q29 10 68 64q-105 -230 -189 -261q-70 -20 -141 95q-31 44 -87 156q-101 204 -179 229q35 -174 44 -297t-44 -162q-35 -24 -105 -14t-123 67q25 6 21 64q0 90 -49 317q-47 252 -45 375q0 178 114 199q58 8 162 -43z " />
<glyph unicode="S" horiz-adv-x="790" d="M424 -25q-160 -1 -289 143t-102 255q33 119 250 53q-16 0 -15 -31q-8 -75 31 -185t109 -155q37 -27 85 -19t64 50q31 96 -98 238q-61 72 -181 135t-188 154q-66 91 -71 187t53 171q58 74 180 100q221 49 352 -78q55 -51 77 -117t3 -120q-16 -58 -74 -84t-151 -6 q8 2 13 51q6 49 -20 151t-87 154q-35 27 -71 24t-63 -26q-49 -43 -29 -136t111 -173q43 -43 121 -82q207 -103 293 -261t6 -272q-80 -121 -309 -121z" />
<glyph unicode="T" horiz-adv-x="968" d="M446 6q43 10 43 146q-2 41 -14 172q-12 130 -3 280t91 211q41 29 119 29q-41 -20 -6 -199q16 -111 33 -172q47 -219 45 -344q-6 -262 -308 -123zM324 858q-146 0 -224 -43q-41 -20 -47 -70q-82 244 37 322q86 53 316 20q106 -19 265 -55t215 -34t60 40q14 -113 -115 -151 q-88 -27 -305 -27q-56 -2 -202 -2z" />
<glyph unicode="U" horiz-adv-x="978" d="M406 94q12 0 20 37q30 72 52 285t24 276q0 314 -49 371q152 51 233 -45q63 -76 88 -256q10 -88 10 -160q14 -248 20 -304t25 -85q14 -31 47 -35t82 39q-18 -57 -54 -113q-79 -123 -156 -122q-90 0 -142 174q-47 141 -57 405q-9 1 -17 -63q-38 -297 -57 -367 q-43 -150 -125 -149q-127 0 -192 170q-53 135 -76 374l-12 201q-12 246 -22 299t-28 55q154 78 234 -61q68 -111 92 -350q6 -74 14 -207q8 -245 16 -307t30 -62z" />
<glyph unicode="V" horiz-adv-x="829" d="M452 -23q-118 -1 -196 155t-117 382q-12 61 -37 225t-49 279q-16 49 -33 49q152 76 244 -70q70 -113 113 -364q12 -71 35 -279q24 -208 34 -264t25 -55q8 0 21 41q34 150 45 622q0 329 -19 365q127 57 199 -29t87 -255t-26 -360t-121 -308q-87 -134 -205 -134z" />
<glyph unicode="W" horiz-adv-x="1011" d="M698 35q28 0 25 249q-9 596 -52 753q-3 11 -3 14q125 59 206 -33q78 -84 105 -257t-3 -354t-97 -298q-84 -131 -195 -132q-74 0 -129 84q-43 61 -86 205q6 -127 -10 -196q-25 -84 -66 -93q-111 -25 -186 136q-55 123 -92 370q-16 129 -39 347t-56 227q150 76 230 -64 q63 -100 92 -344q10 -96 27 -389l8 -131q8 -53 24 -53q38 0 12 376t-51 504l5 -10q0 -2 6 -33q-2 10 -15 97q-10 39 -16 47q12 -41 18 -86l-18 86q147 74 227 -68q59 -113 82 -362q11 -181 13 -323t9 -206t25 -63zM360 971l2 -15q-2 7 -2 15z" />
<glyph unicode="X" horiz-adv-x="878" d="M438 616q20 0 23 27q16 53 3 195t-52 215q96 43 161 34q125 -14 151 -148t-58 -261q-37 -53 -105 -92q102 -47 162 -195q25 -55 57 -182t45 -161q14 -34 33 -34q-141 -76 -234 -3t-128 317q-29 168 -39 198q-9 30 -25 31t-24 -53t9 -195t44 -233q8 -47 22 -72 q-170 -84 -266 37q-86 105 -58 287t150 252q-100 41 -162 163q-27 61 -47 143q-39 162 -80 173q141 72 230 20q72 -41 104 -161q14 -50 37 -176t47 -126z" />
<glyph unicode="Y" horiz-adv-x="743" d="M426 518q12 0 25 33q10 55 10 201q-2 37 -27 229q-14 57 -24 72q180 86 266 -41q78 -111 34 -290t-188 -241q59 -76 80 -225q29 -170 -27 -252q-67 -102 -245 -12q39 0 35 92q-12 88 -29 193t6 194q-121 31 -188 180q-33 76 -72 262q-4 14 -10 36t-11 37q-4 15 -10 40 t-31 33q251 130 328 -189q16 -80 31 -182t23 -136t24 -34z" />
<glyph unicode="Z" horiz-adv-x="800" d="M215 190q3 17 167 15t247 16q143 33 143 125q29 -190 -49 -283q-66 -66 -197 -69q-61 -4 -156 6q-94 10 -138 6t-54 -26q-78 78 -42 210q60 219 310 537q41 55 70 88q33 53 35 55q-37 -39 -170 -39l-105 3q-115 6 -147 -39q-14 -25 4 -76q-143 205 -104 299q33 70 182 69 q76 0 183 -16q107 -15 177 -25t78 1q25 -61 -43 -179q-51 -98 -160 -245q-16 -25 -48 -67q-127 -166 -173 -284q-16 -45 -10 -82z" />
<glyph unicode="[" horiz-adv-x="528" d="M410 973q-115 2 -127 -88q-11 -63 35 -242t56 -285t-14 -272q-16 -178 -8 -217q16 -94 115 -111q-207 0 -285 88q-61 63 -65 224q-2 68 -1 196t-30 286t-23 257q6 204 347 164z" />
<glyph unicode="\" horiz-adv-x="1019" d="M958 14q-6 -86 -133 35q-86 79 -250 277t-204 252q-292 362 -310 354q39 55 175 -84q78 -78 183 -212t253 -324t206 -248q60 -56 80 -50z" />
<glyph unicode="]" horiz-adv-x="530" d="M121 -184q115 0 127 90q10 66 -34 232t-56 272q-12 108 9 284t11 230q-16 92 -117 108q207 0 289 -88q59 -66 66 -225v-141q-8 -144 24 -316t29 -282q-16 -201 -348 -164z" />
<glyph unicode="^" horiz-adv-x="593" d="M227 596q-145 20 -161 93t65 138q86 63 184 50q141 -213 217 -213q-61 -90 -131 -71t-102 95q-37 78 -4 148q-53 -37 -66 -144q-2 -30 -2 -96z" />
<glyph unicode="_" horiz-adv-x="724" d="M68 -25q158 22 368 7q142 -10 203 -84q33 -37 23 -101q-182 -27 -324 -19t-209 48q-90 49 -61 149z" />
<glyph unicode="a" horiz-adv-x="864" d="M354 102q18 0 27 33q10 59 5 233t1 233q6 58 23 91q-104 0 -132 -141t7 -297q7 -64 29 -108t40 -44zM652 -2q-60 0 -109 65q-47 57 -76 160t-39 201q-8 0 -9 -24t5 -124q17 -278 -110 -278q-126 0 -214 158q-80 135 -80 315t95 262q55 39 130 39t183 -59q35 61 90 61 q68 5 162 -67q-23 -11 -34 -105t6 -214t66 -171t126 16q-31 -125 -96 -198q-36 -37 -96 -37z" />
<glyph unicode="b" horiz-adv-x="837" d="M616 612q-18 23 -49 45q-41 29 -30 -4q10 -43 62 -90t83 -65q-12 37 -31 64t-35 50zM520 -2q-156 0 -258 123q-76 96 -125 289q-49 216 -62 584q-6 184 -55 188q147 39 228 -66q66 -78 98 -276q12 -102 31 -359q4 -186 29 -315t94 -129q59 0 49 260q-12 88 -21 115 q-47 47 -83 120q-37 73 -39 124t17 69t56 12q66 -10 156 -106q57 -70 88 -158q63 -25 90 12q10 -104 -8 -149q-23 -49 -57 -55q-6 -121 -60 -199q-63 -84 -168 -84z" />
<glyph unicode="c" horiz-adv-x="745" d="M289 772q152 0 235 -121q84 -115 46 -223t-197 -96q2 27 -3 165t-28 197q-6 23 -18 23t-25 -43q-25 -115 -10 -256q17 -298 157 -357q55 -23 109 -6q98 25 141 119q14 39 9 68q25 -25 19 -69t-36 -83q-76 -102 -242 -102q-248 0 -360 202q-49 86 -61 190q-25 219 107 336 q65 56 157 56z" />
<glyph unicode="d" horiz-adv-x="905" d="M395 684q-99 -14 -121 -152t8 -284t64 -146q35 0 41 273q0 92 -2 137q4 80 2 111q4 55 8 61zM651 -8q-170 0 -225 467q-8 0 -7 -42t4 -132t-13 -168q-29 -119 -103 -119q-127 0 -205 141t-82 319t96 268q100 89 283 3q0 13 -10 161t-31 247q-10 35 -26 45q150 41 233 -80 q59 -90 84 -301q8 -59 17 -183q10 -351 59 -419q23 -33 61 -29q37 10 99 68q-66 -119 -129 -191q-61 -55 -105 -55z" />
<glyph unicode="e" horiz-adv-x="772" d="M301 733q-27 0 -33 -45q-25 -113 6 -274q10 -72 39 -160q59 46 67 158t-14 190q-20 78 -34 105q-19 26 -31 26zM272 772q174 0 276 -133t52 -273q-49 -140 -264 -159q51 -117 123 -144q113 -39 209 39q82 80 61 146q25 -27 22 -72t-36 -86q-88 -102 -248 -102 q-248 0 -371 202q-113 178 -63 379q25 91 86 147t153 56z" />
<glyph unicode="f" horiz-adv-x="628" d="M338 1235q156 0 230 -95t20 -161q-59 -82 -230 -29q27 4 37 70q12 53 2 115q-14 59 -51 59q-47 0 -43 -82q-2 -66 27 -215q76 -8 126 -17t64 -1q0 -131 -160 -123q68 -303 95 -463q39 -264 2 -387q-49 -156 -226 -125q53 23 33 192q-10 76 -80 383q-66 270 -82 435 q-51 4 -73 -7q-35 98 67 117q-9 334 242 334z" />
<glyph unicode="g" horiz-adv-x="716" d="M385 435q0 189 39 257q-104 0 -143 -135q-43 -156 24 -346q17 -39 35 -39q23 0 29 29q16 45 16 234zM428 297q0 -225 -125 -225q-131 0 -211 143q-78 129 -72 297t105 233q116 74 315 -32q26 45 90 43t129 -58q-25 0 -32 -28q-20 -57 12 -262q41 -233 45 -252 q45 -246 -68 -349q-98 -90 -258 -57q-162 29 -225 121q-78 104 39 195q-4 -25 40 -56q44 -30 134 -30t117 79q18 57 0 179q-2 35 -12 97t-11 89q-8 0 -8 -29q-4 -20 -4 -98z" />
<glyph unicode="h" horiz-adv-x="915" d="M350 515q0 -167 -2 -196q4 -51 12 -49t8 68t8 195q9 130 79 200q33 39 100 39q82 0 117 -117q18 -53 38 -223t48 -209q38 -66 137 10q-14 -68 -92 -151q-74 -84 -135 -84q-84 0 -127 94q-48 118 -52 316q-2 98 -14 163q-8 25 -18 25q-25 0 -37 -43q-23 -96 -19 -251 t27 -259q6 -45 16 -45q-141 -47 -221 57q-66 82 -104 281q-27 162 -33 371l-6 176q-10 292 -60 297q154 47 236 -78q94 -154 94 -587z" />
<glyph unicode="i" horiz-adv-x="555" d="M203 723q119 0 153 -125q27 -80 27 -246t15 -192t45 -16q30 9 92 75q-21 -53 -57 -107q-85 -124 -174 -124t-126 106q-33 82 -41 230q-6 60 -6 98t-6 97t-17 72t-34 -1q20 80 67 115q18 18 62 18zM20 1036q82 102 173 80q37 -8 67 -38q68 -69 37 -224q-8 -31 -23 -72 q-76 -12 -112 2q-70 25 -86 109q-2 25 -10 70q-7 73 -46 73z" />
<glyph unicode="j" horiz-adv-x="571" d="M283 -371q-156 0 -232 103q-29 39 -31 84t25 78q68 74 234 16q-23 -2 -41 -68q-18 -51 -11 -110q14 -61 45 -62q88 0 64 178q0 14 -27 183q-55 244 -71 401q-16 205 71 264q46 34 146 11q-14 -18 -6 -68q4 -66 53 -292q49 -225 47 -407t-111 -268q-55 -43 -155 -43z M182 1036q82 102 172 80q39 -8 68 -37t39 -67q16 -80 1 -144t-26 -86q-172 -29 -196 111q-13 46 -13 70q-6 73 -45 73z" />
<glyph unicode="k" horiz-adv-x="942" d="M485 596q-63 0 -63 -274q90 20 106 147q0 127 -43 127zM397 360q-18 412 189 412q111 0 170 -117q49 -117 -4 -223q-61 -129 -220 -145q338 -215 390 -76q-43 -184 -123 -221q-66 -32 -146 26q-119 87 -231 269q6 -209 33 -262q6 -25 18 -25q-135 -47 -215 53 q-76 86 -108 279q-26 113 -40 257q-14 145 -20 205t-12 162t-24 160q-18 60 -34 66q145 72 230 -39q105 -151 117 -641q4 -86 10 -123q0 -53 12 -47q8 6 8 30z" />
<glyph unicode="l" horiz-adv-x="595" d="M575 238q-133 -246 -233 -246q-125 0 -185 171t-73 615q-12 266 -26 329t-38 75q152 43 234 -80q59 -96 88 -301q12 -178 17 -285q12 -261 56 -318q24 -32 62 -28q37 10 98 68z" />
<glyph unicode="m" horiz-adv-x="1179" d="M651 270q8 0 7 56t-2 152q-1 97 22 163q34 131 143 131q84 0 119 -117q6 -20 39 -237q20 -160 43 -193q24 -33 54 -33t83 41q-14 -67 -90 -151t-135 -84q-88 0 -125 94q-55 112 -55 350q0 68 -10 111t-23 43q-20 0 -27 -43q-16 -92 0 -256q10 -163 28 -235t28 -74 q-152 -31 -230 53q-59 66 -80 213q-2 20 -16 233l-2 80q-6 29 -22 29t-29 -72q-14 -72 -6 -223q4 -161 19 -231t28 -72q-150 -39 -228 68t-98 387q-14 160 -31 184q-10 25 -35 6q33 66 103 109q33 20 80 20q72 0 96 -129q4 -25 10 -237v-97q0 -40 13 -37q6 2 6 46t4 81 q-10 373 172 373q70 0 104 -131q20 -88 25 -240l6 -94q4 -37 12 -37z" />
<glyph unicode="n" horiz-adv-x="901" d="M205 772q130 0 123 -366q0 -137 9 -135q9 3 11 36q6 168 12 213q20 152 84 213q33 39 97 39q80 0 118 -117q18 -53 41 -237q14 -146 38 -186t59 -39q33 -4 84 40q-14 -66 -90 -151q-80 -84 -138 -84q-104 0 -147 156q-16 61 -26 187t-12 165q-3 39 -3 47q-6 43 -27 43 q-43 0 -51 -299q-4 -159 5 -229t20 -70q-152 -39 -226 68q-90 117 -98 387q-14 152 -30 179t-38 11q35 68 103 109q33 20 82 20z" />
<glyph unicode="o" horiz-adv-x="759" d="M465 670q-13 0 -11 -10t38 -62q36 -51 110 -100q-6 30 -34 70t-38 54t-32 30q-22 17 -33 18zM448 35q26 0 33 28q12 55 6 199q-4 23 -9 65t-9 64q-139 147 -139 273q-4 86 71 73q70 -10 156 -106q53 -59 94 -158q57 -23 84 12q20 -156 -39 -196q6 -127 -43 -207 q-61 -88 -184 -88q-209 0 -354 213q-129 197 -84 381q20 90 97 136t204 28q-47 -31 -33 -211q4 -184 49 -334q18 -74 46 -123t54 -49z" />
<glyph unicode="p" horiz-adv-x="780" d="M441 596q-15 0 -21 -39q-25 -90 -27 -250l-6 -170q80 -59 105 60q37 175 -19 358q-17 41 -32 41zM207 772q130 0 123 -366l-2 -97q0 -25 5 -34t10 0q11 20 11 124q9 373 189 373q109 0 176 -174q53 -158 36 -352t-106 -244q-104 -63 -262 109q0 -293 16 -383q2 -35 9 -35 q-123 -35 -195 67q-101 124 -125 538q-12 194 -20 271q-8 37 -21 68q-11 20 -31 6q29 63 105 109q33 20 82 20z" />
<glyph unicode="q" horiz-adv-x="845" d="M342 172q18 0 29 29q10 41 14 197t14 210q2 39 23 84q-106 0 -139 -135q-33 -113 -4 -250q9 -53 27 -94t36 -41zM657 698q-20 0 -7 -180q12 -180 24 -267t28 -224q96 -16 123 -9q0 -100 -102 -118q31 -164 59 -219q-118 -16 -192 52t-107 191q-111 18 -147 2 q-23 68 11 94t110 29q-12 72 -17 219v156q-14 0 -16 -20t-6 -70q0 -127 -12 -172q-23 -90 -103 -90q-131 0 -211 143q-78 129 -72 295q4 166 103 235q120 74 319 -32q20 45 87 43t128 -58z" />
<glyph unicode="r" horiz-adv-x="829" d="M393 247q0 -249 19 -249q-150 -39 -226 68q-66 90 -84 249q-10 63 -19 179t-28 143q-10 22 -35 6q33 66 105 109q33 20 80 20q82 0 110 -129q23 -100 15 -237v-97q-2 -37 8 -39t12 37q-4 109 12 228q10 145 80 227q39 39 99 39q80 0 104 -84q8 -23 19 -170 q-4 -98 22 -127q23 -41 123 41q-12 -68 -88 -152q-78 -82 -137 -82q-104 0 -129 103q-16 72 0 192q2 31 2 68t-19 37q-12 0 -22 -47q-23 -84 -23 -333z" />
<glyph unicode="s" horiz-adv-x="610" d="M76 295q14 -82 127 -59q92 16 188 81q45 29 62 54q35 43 -23 55q-87 16 -178 -2q-68 -8 -170 -29q-102 137 -39 250q59 100 195 131t229 -43q94 -74 63 -248q-26 84 -106 86t-178 -43q-82 -45 -96 -84q199 39 309 7q74 -27 100 -76q68 -119 -10 -232q-70 -92 -207 -135 q-133 -37 -217 29q-97 74 -49 258z" />
<glyph unicode="t" horiz-adv-x="651" d="M319 -16q-102 0 -153 106q-43 84 -57 248q-14 113 -15 301l-49 10q-21 0 -24 -7q31 81 129 171q94 82 112 137q40 -55 64 -168q147 -4 163 25q0 -174 -145 -197q4 -27 9 -173t32 -220q33 -96 123 -61q43 12 123 77q-66 -121 -172 -190q-84 -59 -140 -59zM20 641h1h-1z " />
<glyph unicode="u" horiz-adv-x="839" d="M322 -2q-127 0 -191 117q-54 95 -70 328q-2 47 -3 137q-2 180 -38 180q215 107 281 -115q37 -125 39 -287t10 -214t25 -52q35 0 41 232t-10 354q-2 51 -15 78q100 33 156 18q111 -27 128 -161q17 -135 15 -237t6 -136q14 -40 41 -46t82 39q-32 -136 -98 -198 q-33 -37 -82 -37q-88 0 -123 104t-39 344q-18 0 -18 -114q-10 -172 -25 -217q-33 -117 -112 -117z" />
<glyph unicode="v" horiz-adv-x="737" d="M442 379q6 288 -30 393q156 70 241 -37q72 -90 62 -272q-9 -181 -99 -323t-221 -142t-205 119q-59 94 -88 262q-6 31 -22 172t-28 182t-32 41q152 78 234 -18q63 -76 88 -258q8 -55 18 -208t17 -194q12 -41 24 -41q41 0 41 324z" />
<glyph unicode="w" horiz-adv-x="1009" d="M686 -2q-135 0 -213 184q0 -168 -84 -184q-117 -27 -184 90q-64 95 -105 351q-8 56 -10 63q-26 272 -70 272q150 76 234 -18q86 -101 100 -404q12 -198 20 -238t23 -40q38 0 11 317q-39 330 -64 383q150 78 227 -18q59 -80 78 -258q8 -106 10 -226q1 -120 11 -168t24 -49 q14 0 22 54t3 270q-9 155 -27 267t-26 126q158 70 245 -37q82 -94 78 -271q-4 -178 -86 -322t-217 -144z" />
<glyph unicode="x" horiz-adv-x="815" d="M422 430q29 0 35 58t-6 128t-37 123q94 45 151 45q125 -2 151 -105t-52 -200q-41 -51 -101 -76q119 -50 160 -206q25 -95 36 -123t36 -33q-90 -45 -133 -47q-102 -16 -144 51t-53 164q-23 127 -27 139q-6 23 -24 23q-43 0 -35 -135q0 -123 43 -205q-94 -43 -154 -41 q-129 4 -149 114t53 209q43 53 100 82q-86 31 -139 121q-27 45 -34 74q-35 143 -79 153q82 41 134 50q104 14 153 -54q36 -46 63 -163q26 -118 30 -132t22 -14z" />
<glyph unicode="y" horiz-adv-x="708" d="M295 76q-131 0 -184 104q-45 74 -58 230q-2 41 0 151q4 195 -33 195q76 39 140 39q100 -12 135 -127q29 -104 24 -254q-1 -162 5 -203t22 -41q40 0 47 262q0 275 -28 324q131 59 204 -8q55 -53 84 -187q14 -90 27 -244q60 -575 -246 -575q-154 0 -252 74q-78 55 -84 138 t68 112q-4 -18 18 -41t54 -37q84 -39 147 4q78 47 76 205q-8 199 -15 249q-12 -4 -12 -28l-2 -70q-4 -106 -24 -178q-33 -94 -113 -94z" />
<glyph unicode="z" horiz-adv-x="708" d="M322 514q-31 0 -84 4q-88 6 -103 -41q-8 -23 8 -74q-257 371 33 371q68 0 220 -29t169 -18q43 -92 -51 -199q-37 -47 -92 -94q-129 -104 -168 -156t-35 -85q3 16 138 14t204 16q121 29 119 123q37 -256 -80 -321q-63 -41 -246 -23q-153 25 -172 -20q-113 117 -45 241 q55 100 231 238q91 71 99 94q-41 -41 -145 -41z" />
<glyph unicode="{" horiz-adv-x="579" d="M61 418q133 8 177 160q16 47 34 135q29 160 111 217q45 31 135 14q-96 0 -86 -123q2 -53 12 -119q25 -152 -26 -229q-39 -45 -119 -57q117 -23 143 -125q24 -81 6 -185t-34 -186t-11 -129q12 -31 33 -33q-86 6 -121 113q-25 59 -49 219t-55 229q-50 99 -150 99z" />
<glyph unicode="|" horiz-adv-x="374" d="M213 -143q23 4 23 61q-6 121 -60 350q-53 248 -93 466t-7 313q16 45 61 32q-12 -1 -5 -39t77 -405q53 -251 88 -483t-10 -295q-23 -35 -74 0z" />
<glyph unicode="}" horiz-adv-x="577" d="M516 348q-127 -4 -174 -158q-18 -57 -33 -135q-35 -168 -112 -217q-43 -33 -136 -16q55 -2 73 31q17 33 13 97t-16 113q-18 154 33 228q33 45 117 57q-117 25 -144 127q-23 80 0 217q10 72 28 155q33 154 -22 163q82 -8 123 -113q18 -53 44 -218t57 -230 q49 -101 149 -101z" />
<glyph unicode="~" horiz-adv-x="647" d="M200 258q-60 0 -102 64q-51 57 -32 131q12 32 49 55q41 -59 108 -45q57 17 105 37t92 17q45 -3 89 -32q45 -29 71 -97t-33 -109q-53 49 -131 34q-51 -14 -68 -20q-88 -35 -148 -35z" />
<glyph unicode="&#xa1;" horiz-adv-x="489" d="M150 -43q45 2 24 119q-4 42 -30 152t-35 225q-4 135 71 180q33 23 111 16q-39 -12 1 -134q40 -121 83 -241t51 -229q12 -137 -100 -137q-55 -2 -176 49zM311 894q0 -24 2 -36q-59 -82 -136 -68t-101 91q-31 88 2 192q233 32 233 -179z" />
<glyph unicode="&#xa2;" horiz-adv-x="825" d="M338 672q-27 -88 -12 -264q10 -180 77 -281q-5 59 -35 266q-30 208 -30 279zM328 772h4q4 80 12 115t35 26q-6 -6 0 -43q2 -39 12 -104q133 -27 209 -117q74 -94 41 -166q-29 -84 -182 -75q3 43 -13 122t-43 142l39 -307q8 -68 25 -297q124 -44 215 34q35 31 52 71t9 69 q25 -25 20 -69t-36 -83q-76 -102 -242 -102q-4 0 -10 2h-10q2 -50 -13 -88t-44 -15q10 0 12 31v76q-217 27 -314 229q-82 182 -22 359q29 86 92 138t152 52z" />
<glyph unicode="&#xa3;" horiz-adv-x="925" d="M61 154q10 100 205 79q94 -9 252 -47q308 -73 342 7q20 -182 -90 -211q-88 -23 -264 43q-76 29 -202 82t-178 63t-65 -16zM485 391q-14 -92 -67 -125q-63 -43 -193 -12q63 16 47 145q-113 18 -61 66h22q18 0 27 2l-4 31q-104 18 -53 63h41q-29 197 2 273q47 119 248 108 q139 -12 198 -88q25 -33 23 -68t-29 -55q-66 -55 -209 -6q37 2 51 91t-34 95q-83 0 -35 -219q18 -125 18 -131q100 -8 127 -20q45 -14 19 -47q-101 -9 -138 -9v-18q86 -4 125 -18q41 -18 19 -50q-74 -6 -104 -6q-31 0 -40 -2z" />
<glyph unicode="&#xa4;" horiz-adv-x="983" d="M502 182q31 -6 36 98t-32 189q-10 25 -26 30t-27 -16q-14 -49 -5 -127t25 -125t29 -49zM530 152q-128 0 -211 49q-91 -128 -65 -158q-84 63 -109 96q-74 76 2 101q41 16 101 22q-45 56 -40 116t60 99q-104 23 -151 53q-100 61 -25 132q39 33 109 47q-15 -21 29 -95 t85 -114q57 24 141 24t160 -30q27 37 62 120q20 74 18 111q172 -143 103 -218q-33 -36 -119 -50q100 -78 88 -174q80 -23 117 -54q78 -63 0 -120q-39 -27 -105 -46q14 41 -59 142q-63 -53 -191 -53z" />
<glyph unicode="&#xa5;" horiz-adv-x="784" d="M596 137q0 -113 -61 -155q-29 -23 -79 -23t-130 35q47 0 28 147q-141 18 -84 88h74l-4 31q-143 18 -82 88q23 0 37 2h45q-2 27 10 64q-115 27 -172 157q-33 76 -61 230q-12 39 -21 84q-14 37 -35 39q78 37 127 34q100 -2 144 -100q41 -82 51 -199q18 -208 51 -206 q30 0 37 204q-6 197 -39 265q131 55 205 6t84 -158t-43 -205q-55 -109 -154 -145q14 -20 37 -72q63 -2 103 -24q37 -25 8 -60q-16 0 -37 -3t-49 -3l6 -31q66 -10 92 -29t2 -55q-16 0 -24 -2h-29q-12 -4 -37 -4z" />
<glyph unicode="&#xa6;" horiz-adv-x="407" d="M227 -143q31 1 27 65t-54 245t-22 247q23 35 80 20q-10 -4 -6 -32t42 -186q38 -160 49 -269t-38 -117q-25 -10 -78 27zM154 1108q-27 -4 39 -242q33 -134 44 -244q18 -181 -116 -92q29 2 29 52q-6 56 -56 246t-22 259q18 33 82 21z" />
<glyph unicode="&#xa7;" horiz-adv-x="661" d="M137 479q61 -61 193 -47t176 74q-76 68 -209 60t-160 -87zM178 618l-26 -2l-35 -6q-92 123 -33 226q45 88 170 116q117 31 203 -30q96 -74 61 -230q-16 76 -95 78t-155 -41q-84 -41 -90 -76q74 18 154 23q164 0 213 -82q70 -121 -29 -227q45 -15 69 -63t13 -103 q-18 -100 -121 -172q-109 -70 -207 -54q-109 6 -133 119q-14 64 6 146q16 -66 113 -56q68 10 166 70q29 18 53 44t19 42q-72 -66 -171 -82t-165 29t-60 159q-12 104 80 172z" />
<glyph unicode="&#xa9;" horiz-adv-x="1093" d="M684 51q-146 1 -238 97t-107 229t44 231t180 99t194 -95t41 -188t-167 -86q8 120 -17 285q-10 41 -26 41q-6 0 -23 -56t-5 -199q12 -142 61 -233q25 -45 71 -62t92 -5q90 25 117 100q12 27 6 57q23 -24 20 -60t-30 -71q-67 -84 -213 -84zM584 750q-250 37 -334 -95 q-74 -117 6 -299t231 -282q176 -121 347 -64q121 80 140 249t-69 302q-106 158 -321 189zM539 801q270 -27 394 -196t93 -369t-184 -299q-164 -115 -398 -31q-116 41 -202 125q-176 171 -180 400q-1 103 47 192q121 198 430 178z" />
<glyph unicode="&#xab;" horiz-adv-x="819" d="M758 160q-10 -108 -94 -88t-179 127q-102 109 -139 207q-53 -20 -115 0q-76 14 -125 67q26 -41 90 -97t131 -99t162 -101q-8 -131 -122 -76q-98 43 -207 183q-104 145 -97 231q95 4 181 43t82 78q61 -66 75 -129q75 16 133 46t58 66q96 -109 76 -176q-23 -63 -110 -65 t-167 63l-4 -6q61 -76 221 -182q62 -45 150 -92z" />
<glyph unicode="&#xac;" horiz-adv-x="669" d="M274 522q158 0 246 -37q111 -49 82 -159q4 -90 -8 -115q-31 -49 -123 12l-8 56q-4 20 -2 30q-180 -8 -283 25q-143 47 -108 178q195 10 204 10z" />
<glyph unicode="&#xad;" horiz-adv-x="671" d="M68 512q49 0 133 7q83 7 209 -6t180 -83q31 -45 18 -102q-147 -25 -299 -21q-127 10 -186 51q-82 52 -55 154z" />
<glyph unicode="&#xae;" horiz-adv-x="1093" d="M627 555q-31 0 -31 -229q-5 -232 12 -232q-111 -25 -168 49q-43 63 -57 167t-19 168t-16 85q-6 16 -31 6q58 92 138 95q59 0 82 -95q12 -57 8 -176l2 -69q0 -33 8 -29q5 5 7 56t7 138q23 197 131 197q59 0 78 -63q10 -27 10 -123q8 -82 20 -94q23 -25 93 28 q-16 -55 -70 -110q-51 -61 -98 -62q-80 0 -94 76q-10 38 -3 106t3 91q2 20 -12 20zM584 750q-250 37 -334 -95q-74 -117 6 -299t231 -282q176 -121 347 -64q121 80 140 249t-69 302q-106 158 -321 189zM539 801q270 -27 394 -196t93 -369t-184 -299q-164 -115 -398 -31 q-116 41 -202 125q-176 171 -180 400q-1 103 47 192q121 198 430 178z" />
<glyph unicode="&#xb0;" horiz-adv-x="368" d="M143 637q14 0 22 20q7 19 1 49t-24 48t-44 12q0 -129 45 -129zM63 813q66 82 142 67t96 -89q12 -57 -4 -134q-10 -33 -21 -59q-110 -16 -156 17t-57 102v96z" />
<glyph unicode="&#xb1;" horiz-adv-x="722" d="M141 74q11 0 119 8t221 4t160 -55q29 -29 16 -78q-162 -43 -286 -49q-113 -10 -183 28t-47 142zM375 600q0 -6 4 -23t6 -29t6 -38q4 -27 6 -35q92 -4 144 -31q57 -35 45 -100q-69 -26 -166 -37q4 -111 -17 -145q-15 -20 -39 -20t-71 28l-12 37l-15 39q-2 6 -12 47 q-102 0 -154 39t-32 131q14 0 76 5t69 5q-18 123 12 164q41 47 150 -37z" />
<glyph unicode="&#xb2;" horiz-adv-x="548" d="M223 1073q-41 0 -45 -63t23 -138q4 -24 17 -48t22 -23q-68 -68 -131 14q-63 74 -43 172q25 104 153 105q86 0 148 -50q66 -49 65 -122q-6 -100 -88 -166q-26 -25 -56 -40q-30 -16 -47 -28t-20 -14q31 4 125 -8t111 -4q6 4 4 12q61 -113 -19 -123q-51 -10 -180 31l-80 16 q-35 6 -39 -6q-10 51 33 74q49 48 84 150t30 180t-67 79z" />
<glyph unicode="&#xb3;" horiz-adv-x="530" d="M238 854q-8 0 -16 7t11 11l103 109q-37 -4 -124 5q-88 9 -106 9t-18 -14q-57 111 16 125q42 6 140 -20t125 -27q37 -10 37 6q8 -47 -27 -72l-113 -121q57 -8 121 -47t80 -106q10 -68 -45 -105q-55 -31 -146 -30q-123 0 -169 89t-1 144q43 61 134 -12q-25 -6 -29 -99 t55 -106q55 -6 70 59q6 59 -27 127q-28 68 -71 68z" />
<glyph unicode="&#xb6;" horiz-adv-x="841" d="M301 327q0 140 6 312q-148 48 -244 2q-14 172 87 242q74 57 231 61q43 2 129 -2t117 -4q123 0 139 45q35 -63 -10 -90q-35 -27 -125 -27q-2 -90 6 -286q20 -503 -29 -668q-36 -110 -108 -55q23 4 32 65q14 118 2 380q-19 432 25 566l-141 15q-4 -31 -2 -307t-4 -461 q-6 -186 -39 -303q-37 -133 -113 -80q51 10 45 329q-4 126 -4 266z" />
<glyph unicode="&#xb7;" horiz-adv-x="327" d="M61 406q5 30 5 57q53 69 115 57t83 -76q8 -69 -6 -111l-16 -48q-80 -10 -115 6q-66 29 -66 115z" />
<glyph unicode="&#xb9;" horiz-adv-x="499" d="M274 629q25 -4 31 28q23 70 5 192t-46 185q-18 35 -38 39q-20 5 -33 -37q-14 -42 1 -172q16 -130 40 -183q24 -52 40 -52zM208 1090q114 0 182 -121q67 -121 43 -241t-148 -120q-53 0 -101 35q-47 35 -75 90q-67 121 -41 239t140 118z" />
<glyph unicode="&#xbb;" horiz-adv-x="813" d="M524 303q95 0 185 -76q-53 82 -220 193q-54 36 -165 102q12 127 120 79t207 -183q109 -145 101 -234q-94 -2 -182 -43t-81 -78q-63 72 -77 127q-70 -14 -131 -47q-53 -33 -54 -63q-97 102 -77 170t107 69q87 2 167 -59v4l4 4q-87 103 -367 271q13 111 93 89t180 -131 q100 -108 135 -202q33 8 55 8z" />
<glyph unicode="&#xbc;" horiz-adv-x="1232" d="M823 211q31 31 84 43q-16 158 -14 238q-4 119 35 186q-51 -47 -60 -176q-8 -46 -11 -82q-3 -35 -17 -150q-17 -57 -17 -59zM1169 279q11 -115 -43 -117q20 -154 -30 -218t-199 7q25 4 31 80q0 20 -15 178q-66 0 -110 -29q-53 -59 -166 31q3 0 7 7t12 18q9 11 49 113 q40 103 85 195t103 144q76 76 156 51q-19 -11 -17 -71t47 -238q6 -48 33 -162q47 4 57 11zM309 14q36 -8 77 70q25 46 40 85q14 39 34 89t57 162q38 112 117 290t152 226q47 23 84 -4q-27 0 -114 -244q-12 -29 -76 -195t-123 -293q-57 -126 -127 -192t-121 6zM387 1014 q-23 -10 -16 -51q4 -63 46 -241t42 -288q4 -135 -80 -149q-45 -6 -129 32q25 0 24 41q6 43 -12 226q-41 261 17 377q-37 -41 -50 -113q-20 -78 -36 -90q-43 -20 -132 37q12 4 72 75q132 190 254 144z" />
<glyph unicode="&#xbd;" horiz-adv-x="1449" d="M993 627q-61 -1 -65 -99t30 -200q10 -41 33 -74q18 -33 31 -35q-74 -73 -151 -23t-107 166t18 197q60 96 198 96q138 1 230 -73t95 -187q-2 -139 -129 -243q-39 -33 -106 -72t-77 -49q59 3 169 -11t147 -13t41 24q70 -133 20 -166t-174 -8q-70 13 -163 37t-123 27 t-33 -15q-18 84 47 110q70 68 120 215q54 137 50 267t-101 129zM332 14q27 -6 53 35q37 51 117 271t147 378q88 193 160 238q43 23 84 -4q-10 0 -29 -31q-45 -96 -129 -322q-175 -472 -278 -567q-72 -72 -125 2zM389 1014q-16 -8 -13 -62t45 -236t44 -292q6 -223 -213 -119 q18 2 29 41q3 36 -17 222t-12 292q10 66 35 103q-41 -37 -57 -114t-37 -95q-37 -27 -132 37q15 6 73 82q58 75 108 114q77 54 147 27z" />
<glyph unicode="&#xbe;" horiz-adv-x="1445" d="M1034 209q25 20 88 43q-39 314 21 422q-56 -61 -68 -228q-11 -167 -41 -237zM1245 682q2 -70 49 -256q4 -25 14 -78t15 -80q49 0 59 8q6 -61 -4 -88q-12 -25 -37 -28q18 -156 -26 -213q-53 -70 -203 2q25 3 28 63t-14 193q-61 4 -114 -31q-47 -53 -160 35q8 2 33 49 q18 53 45 111q66 170 133 264q96 133 201 102zM530 14q27 -6 59 40t116 274q185 538 303 608q45 23 82 -4q-8 0 -27 -31q-33 -71 -63 -151t-52 -132q-20 -52 -64 -170t-96 -221q-70 -153 -138 -219t-120 6zM395 258q-143 0 -225 86q-39 39 -53 84q-33 88 0 164t121 57 q43 -8 96 -53q-23 -10 -37 -89t4 -140q14 -76 72 -82q88 -8 106 90q12 86 -33 190q-50 105 -116 105q-10 0 -16 6q-5 6 -2 13t14 9l157 166q-76 -8 -243 19l-97 6q-41 -4 -41 -25q-72 137 -16 174q45 31 170 6l117 -24q143 -39 178 -41t35 14q16 -80 -39 -110l-172 -185 q92 -12 174 -63q109 -68 130 -173t-69 -157q-72 -47 -215 -47z" />
<glyph unicode="&#xbf;" horiz-adv-x="876" d="M475 653q5 -115 -65 -323t-73 -270q-3 -64 28 -97t111 -39t106 94q16 90 -21 189q-12 45 -34 75t-35 31q96 98 198 52q86 -43 117 -164t-45 -207q-80 -106 -270 -106t-316 89q-143 98 -108 226q18 78 63 133q45 54 107 106t91 78q28 26 56 68q29 43 37 90q22 69 42 19 q10 -26 11 -44zM569 860q-63 -84 -141 -65q-74 12 -98 88q-20 57 -16 97q6 55 20 95q86 12 137 -8q84 -39 92 -135q2 -14 3 -38t3 -34z" />
<glyph unicode="&#xd7;" horiz-adv-x="559" d="M473 510l-76 -154q92 -92 99 -141q6 -29 -19 -46t-84 -15l-76 69q-41 -63 -91 -74t-95 56l27 96q4 23 18 59q-90 92 -108 148q-27 66 59 67l66 -47l40 -32q51 92 111 107t129 -93z" />
<glyph unicode="&#xf7;" horiz-adv-x="636" d="M205 217q55 86 139 68q74 -12 98 -88q32 -93 -4 -193q-88 -14 -137 6q-82 37 -90 135zM74 436q14 0 102 5t214 -3q128 -8 171 -57q23 -25 8 -72q-341 -38 -458 25q-72 30 -37 102zM145 678q59 86 137 70t103 -91q20 -59 13 -113t-17 -79q-92 -12 -135 8q-84 37 -94 137 q-1 41 -7 68z" />
<glyph unicode="&#x60c;" horiz-adv-x="376" d="M315 27q-55 -86 -141 -68q-32 6 -60 31q-59 54 -51 205q18 86 54 112q37 45 96 8q-37 -18 -37 -73q86 -16 119 -97q14 -38 20 -118z" />
<glyph unicode="&#x61b;" horiz-adv-x="434" d="M373 27q-57 -86 -137 -70t-101 86q-31 100 4 197q90 12 135 -9q82 -37 93 -137zM313 487q-55 -85 -135 -69t-104 90q-16 53 -13 147q18 82 54 113q37 45 96 8q-27 -14 -31 -45q0 -2 -6 -29q90 -16 119 -96q14 -39 20 -119z" />
<glyph unicode="&#x61f;" horiz-adv-x="878" d="M569 170l-6 -70q-10 -98 -90 -135q-51 -23 -137 -8q-14 45 -20 81t16 112q27 74 98 90q82 14 139 -70zM492 1145q182 0 274 -107q72 -88 44 -208t-118 -162q-98 -49 -200 49q18 2 40 36t33 72q33 99 16 193t-101 88t-114 -39t-28 -97t76 -274q67 -219 63 -319 q2 -18 -6 -33q-14 -39 -33 -25q-8 2 -15 40t-28 71q-21 34 -34 48q-13 13 -22 24t-27 27q-20 16 -36 31t-22 20q-154 126 -186 250t106 223q136 92 318 92z" />
<glyph unicode="&#x621;" horiz-adv-x="856" d="M743 497.5q0 -45.5 -21.5 -64.5t-51 -19t-52 18.5t-24.5 52.5q-66 10 -123 -32q-63 -51 -15 -93.5t113 -46.5q18 -2 56 -2q88 -4 129 -51q63 -72 30 -162q-33 -96 -163 -129q-88 -23 -281 21q-106 23 -184 -17q-41 -18 -95 -75q47 117 121 157q45 23 106 22t133 -1 t91.5 35t-33.5 61q-25 10 -63 14q-102 8 -148.5 40t-40.5 112q2 80 97 145q75 53 183.5 75.5t186.5 0.5q49 -16 49 -61.5z" />
<glyph unicode="&#x622;" horiz-adv-x="473" d="M350 1198q0 -2 -16 -6q-51 -12 -65.5 -97.5t-2.5 -152.5q29 -145 103 -319q141 -332 -187 -658l-12 17q49 92 61 168q18 129 -53 292q-18 41 -69 164q-141 350 71 534q72 62 152 60q18 0 18 -2zM264 1405l137 -68q-70 -47 -178 -28l-76 12q-74 12 -112.5 -7t-71.5 -52 q41 104 125 118q35 4 74 0t67.5 5.5t34.5 19.5z" />
<glyph unicode="&#x623;" horiz-adv-x="473" d="M348 1198q0 -2 -16 -6q-51 -12 -65.5 -97.5t-2.5 -152.5q28 -145 102 -319q141 -333 -186 -658l-12 17q49 92 61 168q18 129 -53 292q-18 41 -70 164q-142 350 72 534q72 62 152 60q18 0 18 -2zM416 1662q0 -30 -14.5 -43t-34.5 -14t-36 12t-16 36q-45 4 -85 -24 t-7 -60.5t100.5 -32.5t98.5 -35q39 -49 20 -106q-18 -63 -110 -86q-51 -12 -187 12q-74 12 -122 -10q-27 -16 -62 -49q41 104 125 118q33 4 74 0t77.5 9.5t22.5 38t-72.5 27.5t-89 24.5t-26.5 72.5q2 82 119.5 129.5t189.5 20.5q35 -10 35 -40z" />
<glyph unicode="&#x624;" horiz-adv-x="831" d="M346 481q-61 -115 -55 -196q6 -100 119 -121q63 61 26 158q-16 45 -34.5 71.5t-55.5 87.5zM385 678q84 10 262 -55q-41 -41 -36 -92.5t42 -147.5q109 -258 115 -383q12 -219 -109 -322.5t-303 -52.5q-82 23 -181 106t-140 81q-16 0 -24.5 9t22.5 32q55 37 116.5 -14.5 t117 -75t126.5 -11.5q117 23 133 223q-169 -118 -311 11q-61 53 -102 139t-47 168q-12 145 76.5 258t242.5 127zM475 1170q0 -30 -14.5 -43t-34.5 -14t-35.5 12.5t-15.5 35.5q-47 4 -86 -23.5t-7.5 -59t110 -33t102.5 -49.5t8 -95t-72.5 -73.5t-148.5 -10.5q-49 6 -76 14 q-72 12 -125 -12q-27 -16 -62 -49q41 104 127 119q35 4 75 0t76 9t21.5 38t-72 28t-89 24.5t-27.5 74.5q8 82 123.5 128t187.5 19q35 -10 35 -40z" />
<glyph unicode="&#x625;" horiz-adv-x="462" d="M414 -113q0 -57 -49 -57q-47 -4 -52 47q-45 4 -84 -23.5t-6 -60.5t111 -33q74 0 102 -58q20 -42 4 -85q-16 -49 -72.5 -74.5t-148.5 -9.5l-76 12q-72 14 -112 -5t-72 -54q41 104 127 119q33 2 74 -1t76.5 10t21.5 38t-71.5 27.5t-89 24.5t-27.5 73q8 84 123.5 130 t187.5 19q33 -8 33 -39zM342 1198q0 -2 -16 -6q-51 -12 -65.5 -97.5t-2.5 -152.5q28 -145 102 -319q141 -333 -186 -658l-12 17q88 166 57 315q-16 72 -83.5 226.5t-87.5 266.5q-37 211 124 351q72 61 152 59q18 0 18 -2z" />
<glyph unicode="&#x626;" horiz-adv-x="1208" d="M987 619.5q0 -50.5 -26.5 -77t-64.5 -26.5t-64.5 26.5t-26.5 63.5t24 64q-113 0 -207.5 -69t-95.5 -155q0 -46 32 -68q60 -42 216 -48q197 -18 279 -99q59 -57 83.5 -151t-6.5 -205q-76 -217 -331.5 -286t-485.5 73q-117 70 -188 193t-59 266q8 68 90 287q84 219 96 305 q21 147 -90 170q133 31 164 -76q29 -92 -13 -234q-10 -41 -50 -149t-50 -207q-18 -139 97.5 -255t319.5 -160t306 36q55 41 63.5 92.5t-39.5 99.5q-46 48 -182 57q-68 5 -78 5q-205 16 -272 98q-104 123 -36.5 302.5t245.5 250.5q92 33 174 20t129 -53t47 -90.5zM422 1226.5 q33 -32.5 110 -32.5t101 -48t8 -95t-72.5 -74t-148.5 -10q-49 6 -76 14q-70 12 -111 -7t-73 -54q41 104 127 118q33 2 73.5 -1t76.5 10.5t22 38t-73 27.5t-89.5 24.5t-26.5 74.5q2 80 120 127.5t190 20.5q34 -10 34 -40q-1 -56 -49 -56q-20 -2 -35.5 11t-15.5 36 q-45 4 -85 -24t-7 -60.5z" />
<glyph unicode="&#x627;" horiz-adv-x="468" d="M344 1198q0 -2 -16 -6q-51 -12 -65.5 -97.5t-2.5 -152.5q28 -145 102 -319q141 -333 -186 -658l-12 17q88 166 57 315q-16 72 -83.5 226.5t-87.5 266.5q-37 211 124 351q72 61 152 59q18 0 18 -2z" />
<glyph unicode="&#x628;" horiz-adv-x="1597" d="M827.5 -121q51.5 0 87 -36t35.5 -87t-35.5 -87t-87 -36t-87 36t-35.5 87t35.5 87t87 36zM952 768v23q43 -31 64.5 -83.5t11.5 -95.5q-18 -78 -116 -92t-213 -2t-189 9t-119 -50q-23 -23 -26 -63q-8 -120 201 -184q210 -64 442 -54t270 86q14 27 -16 90q-37 68 -82 160 q104 74 237 158q18 -37 47 -80q46 -78 58 -123t12 -90q0 -129 -104 -217q-148 -121 -488 -152t-590 55q-291 96 -289 316q2 188 201 248q156 45 350 0q6 -2 31 -6.5t76 -15.5t135 -8t105 58q11 31 1 66t-10 47z" />
<glyph unicode="&#x629;" horiz-adv-x="827" d="M350 348q0 -109 23 -168q25 -80 104 -133q31 131 4 176q-12 23 -37.5 44.5t-93.5 80.5zM633 790.5q0 -16.5 -2 -22.5q-211 -65 -107 -182q55 -68 150 -140q68 -57 84 -124q27 -141 -46 -232.5t-206 -130.5q-227 -68 -356 64q-55 57 -60.5 132.5t37.5 140t149 134.5 q-56 139 84 262q59 53 135.5 87t139.5 34q-2 -6 -2 -22.5zM171 1008q50 6 91 -26t46 -81t-25.5 -90t-80.5 -47t-91 24.5t-47.5 81t25.5 91.5t82 47zM421 1161.5q50 6.5 91 -25.5t47 -82t-26 -91t-82 -46.5t-91 25.5t-47 81t26 91t82 47.5z" />
<glyph unicode="&#x62a;" horiz-adv-x="1597" d="M952 768v23q43 -31 64.5 -83.5t11.5 -95.5q-18 -78 -116 -92t-213 -2t-189 9t-119 -50q-23 -23 -26 -63q-8 -120 201 -184q210 -64 442 -54t270 86q14 27 -16 90q-37 68 -82 160q104 74 237 158q18 -37 47 -80q46 -78 58 -123t12 -90q0 -129 -104 -217 q-148 -121 -488 -152t-590 55q-291 96 -289 316q2 188 201 248q156 45 350 0q6 -2 31 -6.5t76 -15.5t135 -8t105 58q11 31 1 66t-10 47zM811 926q51 0 87 -36t36 -87t-36 -86t-87 -35t-87 35t-36 86t36 87t87 36zM1095.5 977q51.5 0 87.5 -36t36 -87t-36 -86t-87.5 -35 t-87 35t-35.5 86t35.5 87t87 36z" />
<glyph unicode="&#x62b;" horiz-adv-x="1597" d="M952 768v23q43 -31 64.5 -83.5t11.5 -95.5q-18 -78 -116 -92t-213 -2t-189 9t-119 -50q-23 -23 -26 -63q-8 -120 201 -184q210 -64 442 -54t270 86q14 27 -16 90q-37 68 -82 160l237 158q18 -37 47 -80q46 -78 58 -123t12 -90q0 -129 -104 -217q-148 -121 -488 -152 t-590 55q-291 96 -289 316q2 188 201 248q156 45 350 0q6 -2 31 -6.5t76 -15.5t135 -8t105 58q11 31 1 66t-10 47zM811 926q51 0 87 -36t36 -87t-36 -86t-87 -35t-87 35t-36 86t36 87t87 36zM1095.5 977q51.5 0 87.5 -36t36 -87t-36 -86t-87.5 -35t-87 35t-35.5 86t35.5 87 t87 36zM893 1233q51 0 87 -35t36 -86t-36 -87t-87 -36t-87 36t-36 87t36 86t87 35z" />
<glyph unicode="&#x62c;" horiz-adv-x="1576" d="M719 55q51 0 87 -35.5t36 -87t-36 -87t-87 -35.5t-86 35.5t-35 87t35 87t86 35.5zM258 414q0 35 25.5 60.5t60.5 25.5t60.5 -25.5t25.5 -58.5t-25.5 -61.5t-56.5 -35.5q-104 -20 -153 43q-66 84 -19 205q27 63 81.5 125.5t113.5 89.5q117 53 239 -6q78 -37 232 -150.5 t312.5 -165.5t361.5 -71l-115 -117q-20 -20 -57 -58t-58 -58q-205 59 -343.5 75t-295.5 -16q-164 -29 -264 -96q-129 -86 -121 -217q8 -158 174 -236q143 -70 348.5 -56.5t333.5 91.5q80 49 95 106t-52 111l-4 16q111 -53 107 -137q-2 -172 -226 -276q-186 -88 -361.5 -92 t-320.5 47t-230 158.5t-58 271.5q64 380 684 497q-90 61 -95 66q-215 145 -339 87q-52 -24 -72.5 -71t12.5 -79v8z" />
<glyph unicode="&#x62d;" horiz-adv-x="1576" d="M258 414q0 35 25.5 60.5t60.5 25.5t60.5 -25.5t25.5 -58.5t-25.5 -61.5t-56.5 -35.5q-104 -20 -153 43q-66 84 -19 205q27 63 81.5 125.5t113.5 89.5q117 53 239 -6q78 -37 232 -150.5t312.5 -165.5t361.5 -71l-115 -117q-20 -20 -57 -58t-58 -58q-205 59 -343.5 75 t-295.5 -16q-164 -29 -264 -96q-129 -86 -121 -217q8 -158 174 -236q143 -70 348.5 -56.5t333.5 91.5q80 49 95 106t-52 111l-4 16q111 -53 107 -137q-2 -172 -226 -276q-186 -88 -361.5 -92t-320.5 47t-230 158.5t-58 271.5q64 380 684 497q-90 61 -95 66q-215 145 -339 87 q-52 -24 -72.5 -71t12.5 -79v8z" />
<glyph unicode="&#x62e;" horiz-adv-x="1576" d="M258 414q0 35 25.5 60.5t60.5 25.5t60.5 -25.5t25.5 -58.5t-25.5 -61.5t-56.5 -35.5q-104 -20 -153 43q-66 84 -19 205q27 63 81.5 125.5t113.5 89.5q117 53 239 -6q78 -37 232 -150.5t312.5 -165.5t361.5 -71l-115 -117q-20 -20 -57 -58t-58 -58q-205 59 -343.5 75 t-295.5 -16q-164 -29 -264 -96q-129 -86 -121 -217q8 -158 174 -236q143 -70 348.5 -56.5t333.5 91.5q80 49 95 106t-52 111l-4 16q111 -53 107 -137q-2 -172 -226 -276q-186 -88 -361.5 -92t-320.5 47t-230 158.5t-58 271.5q64 380 684 497q-90 61 -95 66q-215 145 -339 87 q-52 -24 -72.5 -71t12.5 -79v8zM536.5 1180q51.5 0 87 -36t35.5 -87t-35.5 -87t-87 -36t-87 36t-35.5 87t35.5 87t87 36z" />
<glyph unicode="&#x62f;" horiz-adv-x="913" d="M152.5 668q7.5 0 9.5 2q-10 -70 22 -103q57 -58 222 -35q62 11 124 17q262 41 315 -159t-257 -327q-145 -57 -287.5 -60t-191.5 93q-27 51 -48 230l31 8q80 -74 275 -55.5t254 94.5q45 55 -3 73q-56 17 -144.5 1.5t-145 -14.5t-120.5 33q-103 51 -65 200q2 2 9.5 2z" />
<glyph unicode="&#x630;" horiz-adv-x="913" d="M152.5 668q7.5 0 9.5 2q-10 -70 22 -103q57 -58 222 -35q62 11 124 17q262 41 315 -159t-257 -327q-145 -57 -287.5 -60t-191.5 93q-27 51 -48 230l31 8q80 -74 275 -55.5t254 94.5q45 55 -3 73q-56 17 -144.5 1.5t-145 -14.5t-120.5 33q-103 51 -65 200q2 2 9.5 2z M289 958q51 0 86 -35.5t35 -87t-35 -86t-86 -34.5t-87 34.5t-36 86t36 87t87 35.5z" />
<glyph unicode="&#x631;" horiz-adv-x="798" d="M305 670q41 64 258 -25l53 -22q-55 -55 -28 -148q10 -35 35 -92q106 -252 112 -383q12 -221 -109.5 -324.5t-301.5 -52.5q-84 25 -189 115q-94 76 -125 75t-30.5 12t20.5 28q55 37 117 -14.5t117 -75t128 -11.5q100 20 125 166q10 59 -36 170t-97 219t-67 205.5t18 157.5 z" />
<glyph unicode="&#x632;" horiz-adv-x="798" d="M305 670q41 64 258 -25l53 -22q-55 -55 -28 -148q10 -35 35 -92q106 -252 112 -383q12 -221 -109.5 -324.5t-301.5 -52.5q-84 25 -189 115q-94 76 -125 75t-30.5 12t20.5 28q55 37 117 -14.5t117 -75t128 -11.5q100 20 125 166q10 59 -36 170t-97 219t-67 205.5t18 157.5 zM344 1061q51 0 87 -36t36 -87t-36 -87t-87 -36t-86 36t-35 87t35 87t86 36z" />
<glyph unicode="&#x633;" horiz-adv-x="1746" d="M307 846v8q96 12 142.5 -43t15.5 -135q-18 -47 -92 -139q-150 -174 -121 -361q20 -158 143 -263t236 -88t112 175q-4 201 -163 508l118 80q18 14 59.5 40.5t59.5 39.5q117 -223 160 -441q43 -33 74 13q10 20 10 46t-27 78t-71 144l118 80q53 37 119 80q37 -70 55 -103 q63 -106 64 -205q-4 -59 -33 -114q33 -37 76 -33t65 45q14 31 -20.5 102.5t-46.5 90t-31 57.5l119 80q18 14 59 40.5t60 39.5q18 -37 47 -80q45 -78 57 -123t12 -90q0 -92 -46 -164t-121 -111q-168 -84 -347 25q-81 -49 -180 -74q-8 -203 -168 -307q-147 -100 -345 -72.5 t-320 187.5q-131 166 -80 379q34 142 216 354q18 20 25 29.5t21 27t21.5 26.5t17.5 23q33 48 33 76q0 46 -70 64q-24 8 -33 8z" />
<glyph unicode="&#x634;" horiz-adv-x="1746" d="M307 846v8q96 12 142.5 -43t15.5 -135q-18 -47 -92 -139q-150 -174 -121 -361q20 -158 143 -263t236 -88t112 175q-4 201 -163 508l118 80q18 14 59.5 40.5t59.5 39.5q117 -223 160 -441q43 -33 74 13q10 20 10 46t-27 78t-71 144l118 80q53 37 119 80q37 -70 55 -103 q63 -106 64 -205q-4 -59 -33 -114q33 -37 76 -33t65 45q14 31 -20.5 102.5t-46.5 90t-31 57.5l119 80q18 14 59 40.5t60 39.5q18 -37 47 -80q45 -78 57 -123t12 -90q0 -92 -46 -164t-121 -111q-168 -84 -347 25q-81 -49 -180 -74q-8 -203 -168 -307q-147 -100 -345 -72.5 t-320 187.5q-131 166 -80 379q34 142 216 354q18 20 25 29.5t21 27t21.5 26.5t17.5 23q33 48 33 76q0 46 -70 64q-24 8 -33 8zM971 995q51 0 87 -35.5t36 -86t-36 -86t-87 -35.5t-87 35.5t-36 85.5t36 86t87 36zM1255.5 1047q51.5 0 87 -36t35.5 -86t-35.5 -86t-87 -36 t-87 35.5t-35.5 86t35.5 86.5t87 36zM1052.5 1305q51.5 0 87.5 -36t36 -87.5t-36 -87t-87.5 -35.5t-86 35.5t-34.5 87t34.5 87.5t86 36z" />
<glyph unicode="&#x635;" horiz-adv-x="1875" d="M1567 499.5q-25 28.5 -91.5 26.5t-150.5 -80q-61 -53 -117 -135q86 -4 201 23t154 86q29 51 4 79.5zM307 846v8q96 12 142.5 -43t15.5 -135q-18 -47 -92 -139q-150 -174 -121 -361q20 -158 143 -263t232 -89q117 14 116 174q-4 203 -163 510l237 160q92 -174 139 -332 q162 199 281 280q176 123 358 97q74 -10 128.5 -51t76.5 -101q51 -135 -63 -276q-141 -178 -335.5 -219t-410.5 32q0 -258 -196 -370q-145 -86 -334 -52.5t-312.5 190.5t-72.5 372q29 127 172 300t158 214q4 12 4 22q0 46 -70 64q-24 8 -33 8z" />
<glyph unicode="&#x636;" horiz-adv-x="1875" d="M1567 499.5q-25 28.5 -91.5 26.5t-150.5 -80q-61 -53 -117 -135q86 -4 201 23t154 86q29 51 4 79.5zM307 846v8q96 12 142.5 -43t15.5 -135q-18 -47 -92 -139q-150 -174 -121 -361q20 -158 143 -263t232 -89q117 14 116 174q-4 203 -163 510l237 160q92 -174 139 -332 q162 199 281 280q176 123 358 97q74 -10 128.5 -51t76.5 -101q51 -135 -63 -276q-141 -178 -335.5 -219t-410.5 32q0 -258 -196 -370q-145 -86 -334 -52.5t-312.5 190.5t-72.5 372q29 127 172 300t158 214q4 12 4 22q0 46 -70 64q-24 8 -33 8zM1100 1061q51 0 87 -36t36 -87 t-36 -87t-87 -36t-86 36t-35 87t35 87t86 36z" />
<glyph unicode="&#x637;" horiz-adv-x="1499" d="M1138.5 436.5q-75.5 18.5 -191.5 -52.5t-173 -204q72 0 210 50t184 119t-29.5 87.5zM602 1200q36 0 2 -8q-51 -12 -65 -109q-16 -78 0 -141q23 -117 66.5 -233.5t39.5 -221t-10 -141.5q129 139 266 229q172 109 313 87q90 -12 148.5 -68.5t71.5 -138.5q27 -190 -170 -324 q-182 -127 -464 -170t-483 16q-231 68 -254 234q-23 117 152 201q-6 -10 -10 -29q-102 -72 -55 -160q18 -39 63 -64.5t105.5 -26.5t110.5 37t54 114q5 94 -59 226q-150 308 -80 486q33 82 105.5 144.5t152.5 60.5z" />
<glyph unicode="&#x638;" horiz-adv-x="1499" d="M1138.5 436.5q-75.5 18.5 -191.5 -52.5t-173 -204q72 0 210 50t184 119t-29.5 87.5zM876.5 1061q51.5 0 87 -36t35.5 -87t-35.5 -87t-87 -36t-87 36t-35.5 87t35.5 87t87 36zM602 1200q36 0 2 -8q-51 -12 -65 -109q-16 -78 0 -141q23 -117 66.5 -233.5t39.5 -221 t-10 -141.5q129 139 266 229q172 109 313 87q90 -12 148.5 -68.5t71.5 -138.5q27 -190 -170 -324q-182 -127 -464 -170t-483 16q-231 68 -254 234q-23 117 152 201q-6 -10 -10 -29q-102 -72 -55 -160q18 -39 63 -64.5t105.5 -26.5t110.5 37t54 114q5 94 -59 226 q-150 308 -80 486q33 82 105.5 144.5t152.5 60.5z" />
<glyph unicode="&#x639;" horiz-adv-x="1327" d="M949 125q-93 0 -153 -7q-551 -65 -534 -335q8 -158 174 -236q143 -70 348 -56.5t332 93.5q176 106 43 215l-4 17q113 -53 109 -138q-2 -172 -226 -276q-182 -86 -379 -90q-242 -10 -423 104q-211 131 -168 371q25 135 104.5 225t206.5 156q-115 31 -189.5 95.5 t-87.5 154.5q-14 135 91.5 260t261.5 176q170 51 299 -18q145 -76 142 -194t-112 -167q-94 -43 -196 -14q-47 12 -76 40.5t-29 66.5t26 64.5t63.5 26.5t64.5 -26.5t27 -54t-11 -54.5q74 0 106 41t11.5 94.5t-87.5 83t-171.5 9t-158.5 -82t-44 -135.5t81 -132 q135 -112 476 -56q104 18 145.5 27.5t141.5 21.5l-80 -272q-31 2 -124 2z" />
<glyph unicode="&#x63a;" horiz-adv-x="1327" d="M949 125q-93 0 -153 -7q-551 -65 -534 -335q8 -158 174 -236q143 -70 348 -56.5t332 93.5q176 106 43 215l-4 17q113 -53 109 -138q-2 -172 -226 -276q-182 -86 -379 -90q-242 -10 -423 104q-211 131 -168 371q25 135 104.5 225t206.5 156q-115 31 -189.5 95.5 t-87.5 154.5q-14 135 91.5 260t261.5 176q170 51 299 -18q145 -76 142 -194t-112 -167q-94 -43 -196 -14q-47 12 -76 40.5t-29 66.5t26 64.5t63.5 26.5t64.5 -26.5t27 -54t-11 -54.5q74 0 106 41t11.5 94.5t-87.5 83t-171.5 9t-158.5 -82t-44 -135.5t81 -132 q135 -112 476 -56q104 18 145.5 27.5t141.5 21.5l-80 -272q-31 2 -124 2zM469 1255q51 0 87 -35.5t36 -87t-36 -87t-87 -35.5t-86 35.5t-35 87t35 87t86 35.5z" />
<glyph unicode="&#x640;" horiz-adv-x="206" d="M0 170h207q23 0 37 -24.5t14 -61.5t-14.5 -60.5t-36.5 -23.5h-207q-23 0 -37 23.5t-14 60.5t14 61.5t37 24.5z" />
<glyph unicode="&#x641;" horiz-adv-x="1628" d="M1168 686q-30 0 -39 -35t9.5 -81t73.5 -70q20 -10 103 -25q-39 121 -78 166t-69 45zM803 766v22q45 -33 67.5 -95t-0.5 -103q-43 -84 -196 -80q-90 4 -133 8q-106 10 -148 -18q-82 -61 9.5 -162.5t329 -127.5t417.5 19q88 20 127 60q-168 16 -213 30q-86 29 -109 127 q-25 98 12.5 200t116.5 171q152 138 310 21q66 -51 110.5 -139.5t57.5 -186.5q29 -231 -121 -354q-125 -102 -407 -142.5t-549.5 12t-374.5 232.5q-47 78 -46.5 156t48.5 135q111 131 356 74q143 -35 238 -31q143 8 102 139q-4 20 -4 33zM1138.5 1255q51.5 0 87.5 -35.5 t36 -87t-36 -87t-87.5 -35.5t-87 35.5t-35.5 87t35.5 87t87 35.5z" />
<glyph unicode="&#x642;" horiz-adv-x="1234" d="M733 684q-31 -16 -26 -72q0 -27 8 -45q31 -70 176 -92v2q-2 2 -19.5 66t-45 96.5t-53.5 42.5t-40 2zM410 918q-5 52 -125 47q-7 10 -11 28q117 29 175 -39q45 -53 16 -135q-18 -47 -102 -149.5t-109 -229.5t20 -225q43 -109 141.5 -177.5t216 -75.5t194.5 37t97.5 122.5 t12.5 148.5q-125 -14 -238 23q-143 47 -168 153q-25 98 12.5 200t116.5 171q141 125 277 37q158 -104 211 -333.5t-4 -414.5q-68 -207 -266 -288q-180 -74 -391.5 -22t-336 211t-73.5 374q34 143 216 355q27 32 43.5 52.5t24.5 29.5q8 10 17 24q33 48 33 76zM786.5 1255 q51.5 0 87 -35.5t35.5 -87t-35.5 -87t-87 -35.5t-87 35.5t-35.5 87t35.5 87t87 35.5zM512 1358q51 0 87 -36t36 -87t-36 -86t-87 -35t-87 35t-36 86t36 87t87 36z" />
<glyph unicode="&#x643;" horiz-adv-x="1605" d="M1055 786q0 -57 -49 -57t-52 47q-45 4 -84 -24.5t-7.5 -59t109.5 -32t102 -50.5t7 -92q-16 -49 -72.5 -75.5t-148.5 -10.5q-49 6 -76 14q-70 12 -122 -12q-27 -16 -62 -49q41 104 127 119q35 4 75 0t75.5 9t21.5 38t-72.5 29t-89 24.5t-26.5 73.5q2 80 118.5 127 t192.5 20q33 -8 33 -39zM1460 1200q36 0 2 -8q-51 -14 -65 -99.5t2 -178.5q17 -92 81 -248q143 -345 -40 -510q-123 -100 -407 -140.5t-547 12t-371 222.5q-49 72 -52.5 149.5t35.5 135.5q86 135 312 100q32 -2 74 -16q74 -24 143 24q8 -63 -76 -104q-45 -23 -118.5 -28 t-87 -40t21.5 -80q82 -113 278 -168q240 -70 526 13q160 45 150 153q-7 51 -63 168q-184 381 51 584q71 61 151 59z" />
<glyph unicode="&#x644;" horiz-adv-x="972" d="M741 1198q0 -2 -16 -6q-51 -14 -65.5 -99.5t1.5 -167t100.5 -309t123.5 -376.5q68 -270 -39 -408q-115 -152 -327 -166t-351 137q-66 70 -88.5 165t-6 179t78 217.5t14.5 172.5q-27 20 -103 20l-2 10q129 41 162 -15q43 -72 -18 -267q-46 -155 57 -302q47 -67 125 -111 t170 -42q215 7 33 526l-66 176q-72 190 -81 314.5t57.5 214.5t142.5 127q45 16 71.5 14t26.5 -4z" />
<glyph unicode="&#x645;" horiz-adv-x="1441" d="M948 479q16 -92 64 -176q66 -125 135 -80q20 12 23.5 48t-19.5 79q-58 104 -203 129zM228 -162q-40 0 -64 29q-6 -47 16.5 -67.5t61.5 -16.5q88 8 162 102t178 375q18 47 25 62.5t23 55.5q18 40 30 64q125 235 260 299q108 53 303 45q-78 -68 -9 -129q33 -29 72 -59 q100 -76 94 -229q-6 -186 -127 -290.5t-282 -68.5q-121 29 -178 123q-29 49 -27 103q-29 -61 -68.5 -181t-97.5 -223q-76 -139 -199 -182q-66 -23 -140.5 -12.5t-115.5 45.5q-82 70 -84 172t80 151q39 23 91.5 14.5t72.5 -36.5q39 -66 -12 -119q-25 -27 -65 -27z" />
<glyph unicode="&#x646;" horiz-adv-x="1054" d="M475 362q51 0 87 -35.5t36 -87t-36 -87t-87 -35.5t-87 35.5t-36 87t36 87t87 35.5zM307 846v10q94 12 142 -43q47 -57 16 -137q-18 -47 -92 -139q-150 -174 -121 -359q20 -158 143 -263t232 -89q117 14 116 174q-4 197 -163 510l237 158q100 -197 145 -355.5t21 -312.5 q-27 -180 -180 -268t-343 -54.5t-312.5 189.5t-71.5 373q32 136 216 352q18 20 25 29.5t21 27t21.5 26.5t17.5 23q33 48 33 76q0 46 -70 64q-24 8 -33 8z" />
<glyph unicode="&#x647;" horiz-adv-x="800" d="M324 348q0 -109 22 -168q25 -80 105 -133q31 131 4 176q-12 23 -37.5 44.5t-93.5 80.5zM606 790.5q0 -16.5 -2 -22.5q-212 -66 -106 -182q55 -68 149 -140q68 -57 84 -124q27 -141 -46 -232.5t-206 -130.5q-227 -68 -356 64q-55 57 -60.5 132.5t38 140t149.5 134.5 q-57 141 84 262q59 53 135 87t139 34q-2 -6 -2 -22.5z" />
<glyph unicode="&#x648;" horiz-adv-x="796" d="M311 481q-61 -115 -55 -196q6 -100 119 -121q63 61 26 158q-16 45 -34.5 71.5t-55.5 87.5zM350 678q84 10 262 -55q-41 -41 -35.5 -92.5t41.5 -147.5q109 -258 115 -383q12 -219 -108.5 -322.5t-302.5 -52.5q-82 23 -181.5 106t-140.5 81q-16 0 -24 9t22 32 q55 37 117 -14.5t117 -75t126 -11.5q117 23 134 223q-170 -119 -312 11q-61 53 -102 139t-47 168q-12 145 76.5 258t242.5 127z" />
<glyph unicode="&#x649;" horiz-adv-x="1208" d="M987 619.5q0 -50.5 -26.5 -77t-64.5 -26.5t-64.5 26.5t-26.5 63.5t24 64q-113 0 -207.5 -69t-95.5 -155q0 -46 32 -68q60 -42 216 -48q197 -18 279 -99q59 -57 83.5 -151t-6.5 -205q-76 -217 -331.5 -286t-485.5 73q-117 70 -188 193t-59 266q8 68 90 287q84 219 96 305 q21 147 -90 170q133 31 164 -76q29 -92 -13 -234q-10 -41 -50 -149t-50 -207q-18 -139 97.5 -255t319.5 -160t306 36q55 41 63.5 92.5t-39.5 99.5q-46 48 -182 57q-68 5 -78 5q-205 16 -272 98q-104 123 -36.5 302.5t245.5 250.5q92 33 174 20t129 -53t47 -90.5z" />
<glyph unicode="&#x64a;" horiz-adv-x="1208" d="M463 -579.5q45 24.5 94 10t74 -58.5t10.5 -93t-58.5 -74t-93.5 -10.5t-74 58.5t-11 93.5t58.5 74zM754 -536.5q45 24.5 93 10t73 -58.5t11.5 -93t-59 -73.5t-93.5 -10.5t-72.5 58t-11 93.5t58.5 74zM987 619.5q0 -50.5 -26.5 -77t-64.5 -26.5t-64.5 26.5t-26.5 63.5 t24 64q-113 0 -207.5 -69t-95.5 -155q0 -46 32 -68q60 -42 216 -48q197 -18 279 -99q59 -57 83.5 -151t-6.5 -205q-76 -217 -331.5 -286t-485.5 73q-117 70 -188 193t-59 266q8 68 90 287q84 219 96 305q21 147 -90 170q133 31 164 -76q29 -92 -13 -234q-10 -41 -50 -149 t-50 -207q-18 -139 97.5 -255t319.5 -160t306 36q55 41 63.5 92.5t-39.5 99.5q-46 48 -182 57q-68 5 -78 5q-205 16 -272 98q-104 123 -36.5 302.5t245.5 250.5q92 33 174 20t129 -53t47 -90.5z" />
<glyph unicode="&#x64b;" d="M246 426l20 -14q-16 -74 -24 -103q-14 -70 -76 -94q-29 -14 -277 -94l-57 -19q-39 -12 -63 -45q-10 -12 -35 -51l-8 27l18 78q12 51 51 68t193 67t190 74q37 24 68 106zM246 702l20 -14q-16 -74 -24 -102q-14 -70 -76 -94q-29 -14 -277 -95l-57 -18q-39 -12 -63 -45 q-10 -12 -35 -51l-8 26l18 78q12 51 51 69t193 66q154 50 190 74q37 24 68 106z" />
<glyph unicode="&#x64c;" d="M254 477q41 -113 -43 -231q-74 -100 -210 -168t-253 -78l-33 16q271 92 404 215q90 80 76 166q-6 27 -25.5 37t-50.5 -10q66 -33 43 -68q-37 -78 -86 -34q-73 73 -8 151q51 61 108.5 63t77.5 -59zM-39 172l-61 -12q-162 -35 -203 69t43 236q102 162 301 205q88 18 184 8 l-39 -33q-223 14 -348 -125q-94 -106 -65 -217t174 -129q8 -2 14 -2z" />
<glyph unicode="&#x64d;" d="M246 -244l20 -14q-16 -74 -24 -102q-14 -70 -76 -95q-29 -14 -277 -94l-57 -18q-39 -12 -63 -45q-10 -12 -35 -52l-8 27l18 78q12 51 51 69t193 66q154 50 190 74q37 24 68 106zM246 33l20 -15q-16 -74 -24 -102q-14 -70 -76 -94q-29 -14 -277 -94l-57 -19 q-39 -12 -63 -45q-10 -12 -35 -51l-8 27l18 77q12 51 51 69t193 66q154 50 190 74q37 24 68 107z" />
<glyph unicode="&#x64e;" d="M246 422l20 -14q-16 -74 -24 -103q-14 -70 -76 -94q-29 -14 -277 -94l-57 -19q-39 -12 -63 -45q-10 -12 -35 -51l-8 27l18 77q12 50 51 68t193 68t190 74q37 24 68 106z" />
<glyph unicode="&#x64f;" d="M254 477q41 -113 -43 -231q-74 -100 -210 -168t-253 -78l-33 16q271 92 404 215q90 80 76 166q-6 27 -25.5 37t-50.5 -10q66 -33 43 -68q-37 -78 -86 -34q-73 73 -8 151q51 61 108.5 63t77.5 -59z" />
<glyph unicode="&#x650;" d="M246 25l20 -15q-16 -74 -24 -102q-14 -70 -76 -94q-29 -14 -277 -95l-57 -18q-39 -12 -63 -45q-10 -12 -35 -51l-8 26l18 78q12 51 51 69t193 66q154 49 190 74q37 25 68 107z" />
<glyph unicode="&#x651;" d="M-72 0q-68 0 -80 90q-4 20 15 90q-37 -23 -61.5 -8.5t-26.5 47.5q0 80 57 84q70 8 82 -76q4 -33 0 -65.5t28.5 -55t53.5 6.5q23 26 -23 135l33 33q6 9 29 32q29 -25 36 -72.5t27.5 -81.5t48.5 -30q8 2 11 16q0 27 -41 91q-18 31 -10 50q23 55 43 60q18 0 30 -27 q8 -23 10 -28q37 -96 27 -146q-35 -178 -170 -77q-57 -68 -119 -68z" />
<glyph unicode="&#x652;" d="M-33 219l-16 -43q-23 -59 27.5 -83t74.5 5q24 33 -51 92zM-80 434q61 27 87 -18t3 -107q37 -31 58 -43q47 -39 53 -62t2 -52q-10 -74 -58.5 -119t-109.5 -33q-94 20 -61 137q12 49 33 89t42 87q-55 -4 -80.5 43t31.5 78z" />
<glyph unicode="&#x653;" d="M82 143l137 -67q-70 -47 -178 -29l-76 12q-74 12 -123 -10q-27 -16 -61 -49q41 104 125 119q33 4 73 0q41 -4 69 5t34 19z" />
<glyph unicode="&#x654;" d="M205 401q0 -57 -49 -57t-52 47q-45 4 -85.5 -24.5t-5.5 -60.5t111 -32t100 -49t7 -92q-16 -49 -72.5 -75.5t-148.5 -10.5q-49 6 -98.5 16t-101.5 -14q-27 -16 -62 -49q41 104 127 119q35 4 75 0t76.5 9t22.5 38t-73.5 29t-90 24.5t-26.5 73.5q2 80 119.5 127t193.5 20 q33 -8 33 -39z" />
<glyph unicode="&#x655;" d="M205 -109q0 -57 -49 -57t-52 47q-45 4 -85.5 -24.5t-7.5 -59t111 -32t102 -50.5t7 -92q-16 -49 -72.5 -75.5t-148.5 -10.5q-48 6 -98 16q-84 17 -164 -63q41 104 127 119q35 2 75 -1t76.5 10t22.5 38t-73.5 29t-90 24.5t-26.5 73.5q2 80 119.5 127t193.5 20q33 -8 33 -39 z" />
<glyph unicode="&#x660;" horiz-adv-x="882" d="M354 328q58 -283 139 -296q61 -10 76 119q15 131 -9 315t-62 300q-30 76 -52 112t-51 40q-29 6 -47 -29q-37 -66 -34 -228t40 -333zM358 956q174 0 292 -144t158 -341t-32 -330q-74 -154 -266 -153q-162 0 -285 153q-113 133 -151 332q-37 199 37 341t247 142z" />
<glyph unicode="&#x661;" horiz-adv-x="679" d="M514 989q-22 -11 -20 -81t60 -321t63 -428t-113 -194q-63 -12 -176 41q24 6 32 76t-24 303q-50 417 33 533q-53 -47 -78 -158q-20 -111 -53 -131q-49 -31 -177 53q23 12 37 35q31 33 58 71q84 115 155 162q109 76 203 39z" />
<glyph unicode="&#x662;" horiz-adv-x="970" d="M803 131q57 0 53 31q94 -176 25 -228q-87 -60 -371 29q-178 47 -230 49t-57 -18q-18 106 62 147q90 81 163 277t68 368q-10 176 -133 177q-86 0 -90 -140q-6 -113 43 -262q8 -33 41 -102q25 -41 43 -43q-102 -98 -204 -28t-142 224q-39 154 26 258q74 129 277 129 q170 0 297 -100t127 -246q-2 -180 -176 -327q-63 -56 -125 -90t-119 -74q69 6 217 -12t205 -19z" />
<glyph unicode="&#x663;" horiz-adv-x="937" d="M416 494q-14 0 -23 7q-8 7 -5 16t18 13l208 218q-84 -8 -319 24q-106 8 -127 8q-51 -2 -53 -32q-92 178 -23 231q57 37 227 4q5 -2 61 -13t154 -39t171 -34q43 0 45 18q20 -98 -52 -141l-225 -244q123 -18 227 -84q141 -86 169 -222t-89 -210q-106 -59 -286 -59t-293 113 q-45 53 -66 108q-45 123 0 219t158 72q51 -12 123 -70q-33 -10 -43 -110q-20 -102 0 -187q20 -102 96 -110q115 -14 137 116q16 121 -41 250q-69 138 -149 138z" />
<glyph unicode="&#x664;" horiz-adv-x="788" d="M399 385q-49 410 29 526q-67 -64 -85 -266q-3 -33 -9 -124t-41 -185q43 37 106 49zM723 416q8 -76 -4 -109q-16 -33 -45 -35q18 -199 -35 -266q-68 -88 -252 0q33 8 35 87t-16 235q-80 4 -138 -37q-66 -72 -207 43q10 2 29 37q29 63 69 161t74 168q66 145 146 226 q100 92 196 63q-23 -13 -21 -75t32 -198t67 -310q58 0 70 10z" />
<glyph unicode="&#x665;" horiz-adv-x="862" d="M338 551q72 0 168 -29q98 -37 182 -106q90 -86 109 -191q25 -139 -76 -211q-94 -59 -272 -59t-287 108q-49 55 -68 107q-43 121 6 207q43 94 158 67q53 -12 127 -69q-35 -14 -49 -107q-22 -90 -4 -180t96 -98q57 -8 86 26t35 97q10 117 -57 258q-68 141 -155 141 t-129 -16q-43 -16 -50 -17q-10 66 -15 176q0 111 23 176q-92 20 -98 -10q-33 147 116 168q80 10 287 -22q80 -9 120 -9t40 31q94 -172 37 -227q-30 -25 -98 -25t-228 47l-123 33q-39 -113 -16 -280q63 14 135 14z" />
<glyph unicode="&#x666;" horiz-adv-x="843" d="M475 4q43 0 49 98t-18 209q-35 125 -80 173t-96 -23q-12 -169 30 -313t115 -144zM483 -35q-153 -1 -271 147t-146 340t76 348q102 156 339 171q23 4 28 -4t-13 -23q-68 -43 -117 -172q-43 -137 -49 -260q102 122 223 64t191 -208t16 -266q-68 -137 -277 -137z" />
<glyph unicode="&#x667;" horiz-adv-x="768" d="M655 545q4 -220 -155 -211q-92 -201 -107 -244q-35 -125 -8 -164q-206 119 -80 281q27 35 63 79t48 60l-90 23q-44 12 -52 -2q-35 147 60 157q33 6 87 -7t103 -19q77 133 123 288q-45 -41 -192 -30q-178 8 -230 0q-96 -25 -49 -133q-145 203 -106 299q33 72 180 71 q80 0 193 -19t145 -23q32 -3 62 -7t38 6q35 -56 4 -166t-114 -290q59 4 77 51z" />
<glyph unicode="&#x668;" horiz-adv-x="854" d="M516 35q43 6 62 41q18 35 0 86q-49 125 -252 239q-33 -61 -21 -156q13 -95 69 -157t142 -53zM453 870q-41 78 -111 72t-92 -70q-29 -70 20 -145q47 -94 185 -162q2 -2 14 -6q20 59 14 155t-30 156zM309 967q205 49 309 -41t72 -219q-29 -127 -176 -175q186 -109 252 -241 q60 -129 -20 -222t-300 -94q-147 1 -264 109t-100 213q4 55 49 92t133 45q-100 66 -152 147t-50 161t66 140t181 85z" />
<glyph unicode="&#x669;" horiz-adv-x="804" d="M377 963q-61 0 -73 -121t18 -271q16 -66 34 -98q18 -39 45 -39t54 39t37 100q14 164 -16 277t-99 113zM473 438q-98 -166 -221 -114q-106 45 -166 217q-55 178 6 303q70 156 277 155q100 0 183 -47t132 -129q102 -176 35 -407q-88 -262 -379 -443q-16 -10 -26 -3 q-9 7 -1 24q125 241 160 444z" />
<glyph unicode="&#x66a;" horiz-adv-x="1056" d="M791 356q-16 0 -35 -20q-33 -45 -64 -170t-8 -160q14 -19 39 19q35 43 63 145q18 92 19 158q-2 26 -14 28zM705 -35q-123 0 -166 111q-49 104 12 209q70 113 221 113t207 -113q47 -109 -18 -209q-78 -111 -256 -111zM238 14q27 -8 53 35q37 51 117 271t156 394t149 222 q47 23 86 -4q-28 0 -117 -244q-37 -98 -59 -149q-85 -227 -143 -349t-124 -184q-66 -60 -118 8zM256 633q6 -29 17 -31t34 21q35 47 55 149q25 88 22 134t-17 48t-31 -22q-31 -36 -58 -138t-22 -161zM354 991q121 0 170 -110q45 -109 -12 -209q-68 -111 -219 -111 q-151 -1 -207 107t16 216q74 108 252 107z" />
<glyph unicode="&#x66d;" horiz-adv-x="884" d="M625 643q102 -27 146 -65t38 -83q-6 -46 -72 -88t-192 -67q100 -6 188 -25q145 -31 55 -135q-43 -55 -161 -143q16 16 12 41l-21 59q-37 68 -92 129q23 -70 18 -140q-11 -158 -227 -114q0 81 89 287q-27 -20 -78 -88q-50 -68 -70 -122t-10 -69q-86 16 -142 62 q-104 84 23 170q57 43 182 70q-205 18 -229 114q-18 100 160 246q-8 -59 34 -176q45 -104 103 -168q0 4 -23 76t-16 145q6 90 98 115q47 10 127 -6q-6 -74 -38 -166t-52 -129q68 68 113 151q55 90 37 119z" />
<glyph unicode="&#x66e;" horiz-adv-x="1597" d="M952 768v23q43 -31 64.5 -83.5t11.5 -95.5q-18 -78 -116 -92t-213 -2t-189 9t-119 -50q-23 -23 -26 -63q-8 -120 201 -184q210 -64 442 -54t270 86q14 27 -16 90q-37 68 -82 160q104 74 237 158q18 -37 47 -80q46 -78 58 -123t12 -90q0 -129 -104 -217 q-148 -121 -488 -152t-590 55q-291 96 -289 316q2 188 201 248q156 45 350 0q6 -2 31 -6.5t76 -15.5t135 -8t105 58q11 31 1 66t-10 47z" />
<glyph unicode="&#x670;" d="M-70 344l58 84q66 -117 74 -212t-50 -216l-10 12q14 88 -6 158t-66 174z" />
<glyph unicode="&#x671;" horiz-adv-x="452" d="M348 1198q0 -2 -16 -6q-51 -12 -65.5 -97.5t-2.5 -152.5q28 -145 102 -319q141 -333 -186 -658l-12 17q88 166 57 315q-16 72 -83.5 226.5t-87.5 266.5q-37 211 124 351q72 61 152 59q18 0 18 -2zM313 1460q-70 -18 -102 -90q29 0 77 17t61 38.5t1 31t-37 3.5z M149.5 1566.5q14.5 -36.5 14.5 -80.5t-4 -56q126 126 209 112q68 -10 77 -76q14 -88 -106 -141q-109 -51 -238 -37q-133 10 -145 92q-6 43 53 72v-4q-2 -2 -2 -6q-37 -25 -20 -56q14 -33 57 -32q55 -4 64 53q4 29 -11.5 55.5t-25.5 59.5q-39 70 -15 139q12 31 38 53.5 t55 20.5l2 -2q-20 -6 -25.5 -39t2.5 -52q6 -39 20.5 -75.5z" />
<glyph unicode="&#x679;" horiz-adv-x="1597" d="M952 768v23q43 -31 64.5 -83.5t11.5 -95.5q-18 -78 -116.5 -92t-212.5 -2t-188.5 9t-119.5 -50q-23 -23 -26 -63q-8 -121 201 -184.5t441.5 -53.5t270.5 86q14 27 -16 90q-37 68 -82 160q104 74 237 158q18 -37 47 -80q45 -78 57.5 -123t12.5 -90q0 -129 -104 -217 q-147 -121 -487.5 -152t-590.5 55q-291 96 -289 316q2 188 201 248q156 45 350 0q6 -2 31 -6.5t76 -15.5t135 -8t105 58q10 31 0.5 66t-9.5 47zM1059 1038q-70 -18 -103 -90q29 0 77 17.5t61.5 39t1.5 30.5t-37 3zM894.5 1145q14.5 -37 14.5 -81t-4 -56q128 128 209 112 q68 -10 78 -76q14 -88 -107 -141q-109 -51 -237 -37q-133 10 -146 92q-6 43 54 72v-4q-2 -2 -2 -6q-37 -25 -21 -55q14 -33 63.5 -35t57.5 55q4 29 -11 55.5t-26 59.5q-39 70 -14 139q12 31 37.5 53.5t54.5 20.5l2 -2q-20 -6 -25.5 -39t2.5 -51q6 -39 20.5 -76z" />
<glyph unicode="&#x67e;" horiz-adv-x="1597" d="M887 -428q51 0 87 -36t36 -87t-36 -86t-87 -35t-87 35t-36 86t36 87t87 36zM686 -172q51 0 87 -35t36 -86t-36 -87t-87 -36t-87 36t-36 87t36 86t87 35zM971 -121q51 0 87 -34.5t36 -86t-36 -87.5t-87 -36t-87 36t-36 87.5t36 86t87 34.5zM952 768v23q43 -31 64.5 -83.5 t11.5 -95.5q-18 -78 -116 -92t-213 -2t-189 9t-119 -50q-23 -23 -26 -63q-8 -120 201 -184q210 -64 442 -54t270 86q14 27 -16 90q-37 68 -82 160q104 74 237 158q18 -37 47 -80q46 -78 58 -123t12 -90q0 -129 -104 -217q-148 -121 -488 -152t-590 55q-291 96 -289 316 q2 188 201 248q156 45 350 0q6 -2 31 -6.5t76 -15.5t135 -8t105 58q11 31 1 66t-10 47z" />
<glyph unicode="&#x686;" horiz-adv-x="1576" d="M727 -106q51 0 87 -36t36 -87.5t-36 -86t-87 -34.5t-87 34.5t-36 86t36 87.5t87 36zM543 115q51 0 87 -35t36 -86t-36 -87t-87 -36t-87 36t-36 87t36 86t87 35zM827.5 166q51.5 0 87 -35t35.5 -86t-35.5 -87t-87 -36t-87 36t-35.5 87t35.5 86t87 35zM258 414 q0 35 25.5 60.5t60.5 25.5t60.5 -25.5t25.5 -58.5t-25.5 -61.5t-56.5 -35.5q-104 -20 -153 43q-66 84 -19 205q27 63 81.5 125.5t113.5 89.5q117 53 239 -6q78 -37 232 -150.5t312.5 -165.5t361.5 -71l-115 -117q-20 -20 -57 -58t-58 -58q-205 59 -343.5 75t-295.5 -16 q-164 -29 -264 -96q-129 -86 -121 -217q8 -158 174 -236q143 -70 348.5 -56.5t333.5 91.5q80 49 95 106t-52 111l-4 16q111 -53 107 -137q-2 -172 -226 -276q-186 -88 -361.5 -92t-320.5 47t-230 158.5t-58 271.5q64 380 684 497q-90 61 -95 66q-215 145 -339 87 q-52 -24 -72.5 -71t12.5 -79v8z" />
<glyph unicode="&#x688;" horiz-adv-x="917" d="M156.5 668q7.5 0 9.5 2q-10 -70 22 -103q57 -58 222 -35q65 11 125 17q262 41 313 -156q54 -203 -256 -330q-145 -57 -287.5 -60t-191.5 93q-27 51 -47 230l30 8q80 -74 275 -55.5t254 94.5q45 55 -2 73q-57 17 -145.5 1.5t-145 -14.5t-120.5 33q-103 51 -65 200 q2 2 9.5 2zM420 1038q-70 -18 -103 -90q29 0 77 17.5t61.5 39t1.5 30.5t-37 3zM256 1145q14 -37 14 -81t-4 -56q128 128 209 112q68 -10 78 -76q14 -88 -107 -141q-109 -51 -237 -37q-133 10 -146 92q-6 43 54 72v-4q-2 -2 -2 -6q-37 -25 -21 -55q14 -33 63.5 -35t57.5 55 q4 29 -11 55.5t-26 59.5q-39 70 -14 139q12 31 37.5 53.5t54.5 20.5l2 -2q-20 -6 -25.5 -39t3.5 -51q6 -39 20 -76z" />
<glyph unicode="&#x691;" horiz-adv-x="794" d="M-25 -175q0 13 21 28q55 37 116.5 -14.5t117 -75t128.5 -11.5q100 20 125 166q10 59 -36 170t-97 219t-67 205.5t18 157.5q41 64 258 -25l53 -22q-56 -56 -28 -148q10 -35 34 -92q106 -252 113 -383q12 -221 -110 -324.5t-302 -52.5q-84 25 -188 115q-94 76 -125 75 t-31 12zM510 1038q-70 -18 -102 -90q29 0 76.5 17.5t61 39t1.5 30.5t-37 3zM346 1145q14 -37 14 -81t-4 -56q128 128 209 112q68 -10 78 -76q14 -88 -106 -141q-109 -51 -238 -37q-133 10 -145 92q-6 43 53 72v-4q-2 -2 -2 -6q-37 -25 -21 -55q14 -33 63.5 -35t57.5 55 q4 29 -11 55.5t-26 59.5q-39 70 -14 139q12 31 37.5 53.5t54.5 20.5l2 -2q-20 -6 -25.5 -39t3.5 -51q6 -39 20 -76z" />
<glyph unicode="&#x698;" horiz-adv-x="794" d="M-25 -175q0 13 21 28q55 37 116.5 -14.5t117 -75t128.5 -11.5q100 20 125 166q10 59 -36 170t-97 219t-67 205.5t18 157.5q41 64 258 -25l53 -22q-56 -56 -28 -148q10 -35 34 -92q106 -252 113 -383q12 -221 -110 -324.5t-302 -52.5q-84 25 -188 115q-94 76 -125 75 t-31 12zM227.5 1042q51.5 0 87 -35.5t35.5 -87t-35.5 -86t-87 -34.5t-87.5 34.5t-36 86t36 87t87.5 35.5zM512 1094q51 0 87 -36t36 -87t-36 -86t-87 -35t-87 35t-36 86t36 87t87 36zM309 1350q51 0 87 -35t36 -86t-36 -87t-87 -36t-87 36t-36 87t36 86t87 35z" />
<glyph unicode="&#x6a4;" horiz-adv-x="1628" d="M1168 686q-30 0 -39 -35t9.5 -81t73.5 -70q20 -10 103 -25q-39 121 -78 166t-69 45zM803 766v22q45 -33 67.5 -95t-0.5 -103q-43 -84 -196 -80q-90 4 -133 8q-106 10 -148 -18q-82 -61 9.5 -162.5t329 -127.5t417.5 19q88 20 127 60q-168 16 -213 30q-86 29 -109 127 q-25 98 12.5 200t116.5 171q152 138 310 21q66 -51 110.5 -139.5t57.5 -186.5q29 -231 -121 -354q-125 -102 -407 -142.5t-549.5 12t-374.5 232.5q-47 78 -46.5 156t48.5 135q111 131 356 74q143 -35 238 -31q143 8 102 139q-4 20 -4 33zM965 1077.5q41 -30.5 47 -81 t-26 -91.5t-82 -47t-91 26t-46 82t25.5 91t81 46t91.5 -25.5zM1214.5 1231q40.5 -31 47 -81t-25.5 -91t-82 -47t-91 25.5t-46 80.5t25.5 90t81 47.5t91 -24.5zM944 1382.5q41 -30.5 47 -81t-25.5 -91.5t-81.5 -47t-91 26t-46.5 81t25.5 90t81 47t91 -24.5z" />
<glyph unicode="&#x6a9;" horiz-adv-x="1605" d="M1055 786q0 -57 -49 -57t-52 47q-45 4 -84 -24.5t-7.5 -59t109.5 -32t102 -50.5t7 -92q-16 -49 -72.5 -75.5t-148.5 -10.5q-49 6 -76 14q-70 12 -122 -12q-27 -16 -62 -49q41 104 127 119q35 4 75 0t75.5 9t21.5 38t-72.5 29t-89 24.5t-26.5 73.5q2 80 118.5 127 t192.5 20q33 -8 33 -39zM1460 1200q36 0 2 -8q-51 -14 -65 -99.5t2 -178.5q17 -92 81 -248q143 -345 -40 -510q-123 -100 -407 -140.5t-547 12t-371 222.5q-49 72 -52.5 149.5t35.5 135.5q86 135 312 100q32 -2 74 -16q74 -24 143 24q8 -63 -76 -104q-45 -23 -118.5 -28 t-87 -40t21.5 -80q82 -113 278 -168q240 -70 526 13q160 45 150 153q-7 51 -63 168q-184 381 51 584q71 61 151 59z" />
<glyph unicode="&#x6af;" horiz-adv-x="1605" d="M1055 786q0 -57 -49 -57t-52 47q-45 4 -84 -24.5t-7.5 -59t109.5 -32t102 -50.5t7 -92q-16 -49 -72.5 -75.5t-148.5 -10.5q-49 6 -76 14q-70 12 -122 -12q-27 -16 -62 -49q41 104 127 119q35 4 75 0t75.5 9t21.5 38t-72.5 29t-89 24.5t-26.5 73.5q2 80 118.5 127 t192.5 20q33 -8 33 -39zM1063 1130q-203 -197 -404 -307q-106 -57 -202 -67l-33 8q-25 4 -35 6q151 21 383 186q96 70 201 162l45 6q18 6 45 6zM1460 1200q36 0 2 -8q-51 -14 -65 -99.5t2 -178.5q17 -92 81 -248q143 -345 -40 -510q-123 -100 -407 -140.5t-547 12 t-371 222.5q-49 72 -52.5 149.5t35.5 135.5q86 135 312 100q32 -2 74 -16q74 -24 143 24q8 -63 -76 -104q-45 -23 -118.5 -28t-87 -40t21.5 -80q82 -113 278 -168q240 -70 526 13q160 45 150 153q-7 51 -63 168q-184 381 51 584q71 61 151 59z" />
<glyph unicode="&#x6cc;" horiz-adv-x="1208" d="M987 619.5q0 -50.5 -26.5 -77t-64.5 -26.5t-64.5 26.5t-26.5 63.5t24 64q-113 0 -207.5 -69t-95.5 -155q0 -46 32 -68q60 -42 216 -48q197 -18 279 -99q59 -57 83.5 -151t-6.5 -205q-76 -217 -331.5 -286t-485.5 73q-117 70 -188 193t-59 266q8 68 90 287q84 219 96 305 q21 147 -90 170q133 31 164 -76q29 -92 -13 -234q-10 -41 -50 -149t-50 -207q-18 -139 97.5 -255t319.5 -160t306 36q55 41 63.5 92.5t-39.5 99.5q-46 48 -182 57q-68 5 -78 5q-205 16 -272 98q-104 123 -36.5 302.5t245.5 250.5q92 33 174 20t129 -53t47 -90.5z" />
<glyph unicode="&#x2000;" horiz-adv-x="867" />
<glyph unicode="&#x2001;" horiz-adv-x="1735" />
<glyph unicode="&#x2002;" horiz-adv-x="867" />
<glyph unicode="&#x2003;" horiz-adv-x="1735" />
<glyph unicode="&#x2004;" horiz-adv-x="578" />
<glyph unicode="&#x2005;" horiz-adv-x="433" />
<glyph unicode="&#x2006;" horiz-adv-x="289" />
<glyph unicode="&#x2007;" horiz-adv-x="289" />
<glyph unicode="&#x2008;" horiz-adv-x="216" />
<glyph unicode="&#x2009;" horiz-adv-x="347" />
<glyph unicode="&#x200a;" horiz-adv-x="96" />
<glyph unicode="&#x200c;" horiz-adv-x="40" d="M37 0h-33v1223h33v-1223z" />
<glyph unicode="&#x200d;" horiz-adv-x="40" d="M37 0h-33v1163l-63 -63l-23 22l80 82l-80 78l23 25l79 -82l80 82l23 -25l-78 -78l78 -82l-23 -22l-63 63v-1163z" />
<glyph unicode="&#x200e;" horiz-adv-x="40" d="M37 1188v-1188h-33v1223h162l-62 59l25 25l100 -103l-100 -104l-25 24l66 64h-133z" />
<glyph unicode="&#x200f;" horiz-adv-x="40" d="M37 1223v-1223h-33v1188h-133l66 -64l-25 -24l-100 104l100 103l25 -25l-62 -59h162z" />
<glyph unicode="&#x2010;" horiz-adv-x="509" d="M70 512q47 0 111 7t136 -5q92 -12 121 -84q16 -39 6 -102q-104 -25 -215 -21q-90 10 -131 51q-55 52 -28 154z" />
<glyph unicode="&#x2011;" horiz-adv-x="509" d="M70 512q47 0 111 7t136 -5q92 -12 121 -84q16 -39 6 -102q-104 -25 -215 -21q-90 10 -131 51q-55 52 -28 154z" />
<glyph unicode="&#x2012;" horiz-adv-x="509" d="M70 512q47 0 111 7t136 -5q92 -12 121 -84q16 -39 6 -102q-104 -25 -215 -21q-90 10 -131 51q-55 52 -28 154z" />
<glyph unicode="&#x2013;" horiz-adv-x="671" d="M68 512q49 0 135 7t194 -5q141 -12 195 -84q27 -39 16 -102q-145 -25 -297 -21q-288 22 -243 205z" />
<glyph unicode="&#x2014;" horiz-adv-x="866" d="M66 512q16 0 169 6t277 -4t213 -55q90 -45 78 -131q-199 -25 -397 -21q-170 10 -256 51q-107 50 -84 154z" />
<glyph unicode="&#x2018;" horiz-adv-x="335" d="M274 731q-55 -84 -120 -59q-55 23 -78 96q-35 96 8 197q14 43 38 58t50 -3q-2 -41 12 -76q10 -14 15 -18q43 -8 59 -74t16 -121z" />
<glyph unicode="&#x2019;" horiz-adv-x="337" d="M61 950q53 84 123 60q51 -18 81 -104t-9 -189q-16 -41 -41 -57t-51 4q0 53 -10 73q-12 16 -17 19q-39 10 -57 84q-15 44 -19 110z" />
<glyph unicode="&#x201a;" horiz-adv-x="339" d="M61 197q57 84 119 59t84 -98q33 -100 -4 -197q-16 -41 -41 -57t-53 4q0 81 -25 92q-35 6 -55 71t-25 126z" />
<glyph unicode="&#x201c;" horiz-adv-x="557" d="M496 731q-59 -84 -121 -59q-57 20 -85 107t13 186q35 92 92 55q-7 -46 3 -62t13 -22t7 -10q64 -12 78 -195zM274 731q-57 -84 -118 -59q-55 20 -84 105t8 183t94 60q-4 -46 5 -62t12 -22t8 -10q39 -8 61 -82q8 -35 14 -113z" />
<glyph unicode="&#x201d;" horiz-adv-x="557" d="M281 950q57 84 125 60q53 -20 75 -97q33 -100 -4 -196q-16 -41 -41 -57t-53 4q2 43 -8 73q-10 14 -19 19q-35 10 -53 69t-22 125zM61 950q55 84 123 60q51 -18 81 -104t-9 -189q-16 -41 -41 -57t-51 4q0 53 -10 73q-12 16 -17 19q-39 10 -57 84q-15 44 -19 110z" />
<glyph unicode="&#x201e;" horiz-adv-x="559" d="M281 197q57 84 119 59t83 -98q33 -100 -4 -197q-41 -94 -94 -53q0 82 -27 92q-33 6 -53 71t-24 126zM61 197q57 84 117 59q60 -26 90 -110q29 -84 -10 -185q-16 -41 -41 -57t-51 4q-3 81 -27 92q-35 6 -55 73t-23 124z" />
<glyph unicode="&#x2020;" horiz-adv-x="509" d="M70 834q55 0 110 8q-14 125 0 182q12 68 70 55q-10 -8 -2 -69l28 -166q94 -12 132 -45q55 -53 36 -150q-6 0 -38 -7t-82 -11q6 -29 45 -219t51 -359q12 -170 -31 -205q-20 -20 -65 9q44 4 -7 264q-12 75 -53 265t-49 247q-84 10 -123 55q-47 48 -22 146z" />
<glyph unicode="&#x2021;" horiz-adv-x="612" d="M70 834q55 0 110 8q-14 127 2 182q10 68 68 55q-8 -6 -2 -69q27 -147 31 -166q92 -10 129 -45q57 -49 36 -150q-8 0 -40 -8t-80 -10l63 -334q82 -4 125 -43q51 -53 37 -148l-39 -6q-35 -8 -92 -12q10 -156 -6 -205q-23 -66 -86 -26q42 4 0 233q-90 10 -127 51 q-49 49 -27 150q16 0 56 3t55 3q-22 115 -41 199t-27 137q-84 10 -123 55q-45 46 -22 146z" />
<glyph unicode="&#x2022;" horiz-adv-x="380" d="M63 453q70 93 152 73q135 -32 94 -231q-10 -29 -20 -66q-121 -16 -172 25q-47 31 -51 98q-6 27 -3 56v45z" />
<glyph unicode="&#x2026;" horiz-adv-x="987" d="M680 145l-8 72q59 86 141 68q70 -13 94 -81t17 -141q-6 -27 -17 -59q-92 -16 -135 6q-84 37 -92 135zM375 145l-8 72q57 86 135 70t106 -90q29 -108 -6 -193q-92 -16 -135 6q-84 37 -92 135zM70 145l-9 72q57 86 142 68q70 -12 98 -88q16 -57 12 -134l-7 -28 q-5 -20 -9 -31q-90 -16 -137 6q-86 39 -90 135z" />
<glyph unicode="&#x202f;" horiz-adv-x="347" />
<glyph unicode="&#x2030;" horiz-adv-x="1368" d="M793 356q-16 0 -37 -20q-41 -61 -58 -152q-35 -152 -15 -178q15 -17 45 24q30 40 56 137t21 161q-6 26 -12 28zM1100 356q-30 4 -70 -86q-31 -86 -41 -170q-16 -70 1 -91t46 19t60 142q22 98 18 141t-14 45zM1016 -35q-72 0 -127 45q-75 -45 -189 -45t-161 110t12 210 q72 113 229 112q86 0 144 -45q63 45 163 45q145 0 197 -108t-14 -213q-76 -111 -254 -111zM236 14q27 -6 53 35q47 61 123 279q104 279 145 370q80 188 158 238q43 23 82 -4q-9 0 -27 -32t-90 -212q-12 -40 -88 -234t-92 -227q-80 -162 -138 -215q-71 -70 -126 2zM270 602 q16 -2 39 21q31 45 55 142t20 143t-18 46q-13 2 -37 -30t-57 -138q-18 -90 -16 -135t14 -49zM352 991q121 0 170 -110q49 -104 -13 -212q-61 -108 -213 -108t-214 111q-51 102 16 209q76 110 254 110z" />
<glyph unicode="&#x2039;" horiz-adv-x="550" d="M104 473q77 -116 385 -297q-8 -131 -122 -76q-107 46 -209 186t-97 228q97 4 183 43t82 78q94 -109 75 -180q-25 -59 -118 -60q-98 4 -179 78z" />
<glyph unicode="&#x203a;" horiz-adv-x="552" d="M61 539q12 127 125 77q110 -54 208 -191q99 -138 98 -226q-90 0 -180 -42t-85 -77q-102 111 -73 178q22 63 114 61t178 -77q-60 94 -308 248q-59 37 -77 49z" />
<glyph unicode="&#x2044;" horiz-adv-x="684" d="M61 -33q25 -4 57 41t120 273q74 217 143 370q80 188 158 238q43 27 84 -4q-8 0 -29 -31q-40 -78 -143 -362q-85 -218 -145 -344t-127 -188t-118 7z" />
<glyph unicode="&#x205f;" horiz-adv-x="433" />
<glyph unicode="&#x20ac;" horiz-adv-x="931" d="M98 524q16 0 25 2q-25 190 55 305q92 127 291 119q209 -16 299 -133q37 -49 39 -100t-33 -88q-80 -84 -266 -27q33 20 50 95t5 145q-14 70 -61 69q-68 -1 -99 -115t-18 -270q96 -6 148 -26t22 -62l-98 -6q-39 0 -58 -2l2 -24q94 0 166 -23q63 -25 31 -66q-33 -6 -104 -10 h-68q66 -223 197 -264q111 -31 178 59q29 33 42 74t3 66q24 -25 24 -67t-24 -87q-58 -108 -210 -108t-268 94t-184 245q-113 23 -63 84h31l-13 39q-113 20 -61 82h20z" />
<glyph unicode="&#x2122;" horiz-adv-x="1105" d="M270 532q16 2 21 37q0 45 -8 130q-23 243 102 243q-12 -4 -12 -51q9 -53 31 -162t14 -160q-19 -98 -148 -37zM514 1036q8 -39 -18 -58t-80 -26q-66 -4 -159 -3t-133 -12t-46 -42q-51 147 59 170q51 7 177 -19t159 -28q41 -7 41 18zM829 532q-129 -52 -201 186 q-32 106 -50 197l6 -106q0 -229 65 -283q-100 0 -121 92q-10 43 13 196t14 192q-15 43 -25 43q63 25 117 -50q35 -47 72 -159q6 -16 13 -46t16 -58t12 -48q-10 115 43 283q14 102 82 102q9 0 41 -11t43 -13q-53 -3 -53 -129t36 -236q43 -109 92 -51q-16 -49 -63 -88 q-27 -16 -49 -17q-51 0 -90 115q-39 102 -45 231q-39 -154 0 -286q18 -54 32 -56z" />
<glyph unicode="&#x2212;" horiz-adv-x="671" d="M68 512q49 0 133 7q83 7 209 -6t180 -83q31 -45 18 -102q-147 -25 -299 -21q-127 10 -186 51q-82 52 -55 154z" />
<glyph unicode="&#x2421;" horiz-adv-x="1200" d="M121 483v-333h94q72 0 107 30q45 49 45 139q0 125 -78 156q-25 8 -76 8h-92zM924 150h215v-54h-277v441h62v-387zM797 483h-258v-133h241v-53h-241v-147h268v-54h-330v441h320v-54zM61 537h152q59 0 78 -7q135 -31 135 -211t-135 -215q-49 -8 -70 -8h-160v441z" />
<glyph unicode="&#x25cc;" horiz-adv-x="591" d="M358 131q16 0 27 -22q6 -20 -12 -21q-23 0 -29 21q-11 22 14 22zM428 143q22 0 30 -20t-14 -21q-23 0 -30 20q-8 20 14 21zM282 143q17 0 24 -20t-13 -21q-25 0 -31 16t-2 21q5 4 22 4zM481 186q16 0 25 -20q6 -23 -10 -23q-23 0 -29 23q-4 10 -3 15t17 5zM195 186 q27 0 34 -20q5 -23 -17 -23t-28 23q-7 20 11 20zM496 252q26 0 32 -22t-16 -21q-22 -1 -29 21t13 22zM130 252q22 0 30 -22t-15 -21q-23 0 -28 20q-9 23 13 23zM484 328q22 0 30 -21q4 -16 1 -18t-21 -2t-25 20q-7 21 15 21zM90 328q22 0 27 -21q6 -16 3 -18q-2 -2 -20 -2 t-26 20q-6 21 16 21zM446 403q18 0 29 -22q6 -20 -18 -21q-20 0 -27 21q-11 22 16 22zM80 403q18 0 29 -22q6 -20 -15 -21q-25 0 -31 21q-10 22 17 22zM381 467q17 1 25 -21t-11 -22q-25 0 -30 20q-9 23 16 23zM96 467q27 1 34 -21t-19 -22q-17 0 -25 22t10 21zM300 512 q22 0 29 -23t-14 -22q-23 0 -30 22q-7 23 15 23zM147 512q23 0 30 -23t-13 -22q-25 0 -33 22q-7 23 16 23zM216 524q20 0 30 -20q8 -20 -12 -21q-20 1 -30 21q-8 20 12 20z" />
<glyph unicode="&#x25fc;" horiz-adv-x="795" d="M0 795h795v-795h-795v795z" />
<glyph unicode="&#xf8ff;" horiz-adv-x="1277" d="M930 1020q76 0 157 -53q55 -39 87 -82q-34 -23 -52 -45t-43 -47q-53 -72 -53 -170q0 -97 56 -179t135 -102q-37 -104 -107 -203q-106 -156 -213 -155q-41 0 -113 24q-62 27 -114 27t-120 -28t-120 -27q-109 0 -204 139q-165 241 -165 475q1 186 93 302t235 116 q53 0 148 -23q83 -27 121 -27t117 30q79 28 155 28zM901 1286q0 -117 -96 -219q-71 -68 -178 -70q4 265 270 328q4 -37 4 -39z" />
<glyph d="M-115 0q-70 0 -80 90q-4 20 15 90q-37 -23 -61.5 -8.5t-26.5 47.5q0 80 57 84q70 8 82 -76q4 -33 0 -65.5t28.5 -55t53.5 6.5t-23 135l31 33q23 23 29 32q31 -25 38 -72.5t27.5 -81.5t48.5 -30q8 2 11 16q0 27 -41 91q-18 31 -10 50q23 55 42 60q16 0 31 -27 q8 -23 10 -28q37 -96 27 -146q-35 -178 -170 -77q-61 -68 -119 -68zM203 729l20 -14q-16 -74 -24 -103q-14 -70 -76 -94q-29 -14 -277 -94l-57 -18q-39 -12 -63 -46q-10 -12 -35 -51l-8 27l18 78q12 51 51 68t192.5 66.5t190.5 74t68 106.5zM170 944l20 -14 q-16 -74 -24 -103q-14 -70 -76 -94q-29 -14 -276 -94l-58 -18q-39 -12 -63 -46q-10 -12 -35 -51l-8 27l18 78q12 51 51 68t192.5 66.5t190.5 74t68 106.5z" />
</font>
</defs>
</svg>
