<svg xmlns="http://www.w3.org/2000/svg" xmlns:xlink="http://www.w3.org/1999/xlink" version="1.1"><metadata/><defs><font id="hamadaregular" horiz-adv-x="614"><font-face ascent="1229" descent="-819" units-per-em="2048"/><glyph horiz-adv-x="0"/><glyph horiz-adv-x="409"/><glyph horiz-adv-x="409"/><glyph horiz-adv-x="409"/><glyph horiz-adv-x="409"/><glyph d="M102 0h103v-102h-103v102zM135 102v820h37v-820h-37z" horiz-adv-x="409" unicode="!"/><glyph d="M51 1638v103h103v-103h-33v-204h-37v204h-33zM256 1638v103h102v-103h-32v-204h-37v204h-33z" horiz-adv-x="409" unicode="&quot;"/><glyph d="M84 205v614q0 91 64.5 157t158.5 66h103v-36h-103q-78 0 -132 -54.5t-54 -132.5v-614q0 -78 54 -132.5t132 -54.5h103v-36h-103q-94 0 -158.5 66t-64.5 157z" horiz-adv-x="512" unicode="("/><glyph d="M102 18h103q78 0 132 54.5t54 132.5v614q0 78 -54 132.5t-132 54.5h-103v36h103q94 0 158.5 -66t64.5 -157v-614q0 -91 -64.5 -157t-158.5 -66h-103v36z" horiz-adv-x="512" unicode=")"/><glyph d="M102 801v37h162l-71 71l24 25l72 -72v162h37v-162l71 72l25 -25l-72 -71h162v-37h-162l72 -72l-25 -24l-71 71v-162h-37v162l-72 -71l-24 24l71 72h-162z" unicode="*"/><glyph d="M102 391v37h187v186h37v-186h186v-37h-186v-186h-37v186h-187z" unicode="+"/><glyph d="M102 0v102h121v-204q0 -114 -121 -121v37q84 7 84 84v102h-84z" horiz-adv-x="307" unicode=","/><glyph d="M102 391v37h410v-37h-410z" unicode="-"/><glyph d="M102 0v102h103v-102h-103z" horiz-adv-x="409" unicode="."/><glyph d="M84 4l205 819l37 -8l-205 -819z" horiz-adv-x="409" unicode="/"/><glyph d="M84 205v409q0 91 65 157.5t158 66.5q92 0 157.5 -65.5t65.5 -158.5v-409q0 -93 -65 -158t-158 -65t-158 66t-65 157zM121 205q0 -78 54 -132.5t132 -54.5t132.5 54.5t54.5 132.5v409q0 78 -54.5 132.5t-132.5 54.5t-132 -54.5t-54 -132.5v-409z" unicode="0"/><glyph d="M84 0v819h37v-819h-37z" horiz-adv-x="204" unicode="1"/><glyph d="M84 102v205q7 121 121 121h205q84 7 84 84v205q-4 45 -29 64.5t-55 19.5h-308v37h308q112 0 120 -121v-205q0 -110 -120 -121h-205q-77 0 -84 -84v-205q0 -74 84 -84h307v-36h-307q-121 7 -121 120z" unicode="2"/><glyph d="M102 -18v36h205q78 0 132.5 54.5t54.5 132.5t-54.5 132t-132.5 54h-102v37h102q78 0 132.5 54.5t54.5 132t-54.5 132t-132.5 54.5h-205v37h205q92 0 157.5 -65t65.5 -147t-37.5 -136t-97.5 -80q59 -27 97 -82.5t38 -112.5q0 -103 -65 -168t-158 -65h-205z" unicode="3"/><glyph d="M84 614v205h37v-205q0 -173 73.5 -179.5t112.5 -6.5h187v391h36v-819h-36v391h-187q-47 0 -135 6.5t-88 216.5z" unicode="4"/><glyph d="M84 512v205q4 66 39 93.5t82 27.5h307v-37h-307q-77 0 -84 -84v-205q0 -77 84 -84h205q113 0 120 -121v-205q0 -79 -61 -106q-27 -12 -59 -14h-308v36h308q84 7 84 84v205q-4 45 -29 64.5t-55 19.5h-205q-70 4 -95.5 39t-25.5 82z" unicode="5"/><glyph d="M84 188v410q0 92 65.5 157.5t157.5 65.5h205v-37h-205q-78 0 -132 -54t-54 -132v-186q29 47 78 74.5t101 27.5q98 0 164 -64.5t66 -158.5v-86q0 -93 -65 -158t-155 -65t-153 58t-73 148zM121 190q8 -72 61.5 -122t127.5 -50t129 54.5t55 132.5v86q0 78 -54.5 132 t-129.5 54t-129 -50t-60 -122v-115z" unicode="6"/><glyph d="M102 801v37h205q92 0 157.5 -65.5t65.5 -158.5v-614h-36v614q0 78 -54.5 132.5t-132.5 54.5h-205z" unicode="7"/><glyph d="M84 193q0 80 37 135t96 82q-59 27 -96 80.5t-37 111.5q0 104 65 170t158 66q92 0 157.5 -65t65.5 -147t-37.5 -136t-97.5 -80q59 -27 97 -82.5t38 -112.5q0 -103 -65 -168t-158 -65t-158 66t-65 145zM121 205q0 -78 54 -132.5t132 -54.5t132.5 54.5t54.5 132.5t-54.5 132 t-132.5 54h-8q-114 -6 -146 -77.5t-32 -108.5zM121 614.5q0 -77.5 54 -132t132 -54.5t132.5 54.5t54.5 132t-54.5 132t-132.5 54.5t-132 -54.5t-54 -132z" unicode="8"/><glyph d="M84 614q0 92 65 158t158 66q92 0 157.5 -65.5t65.5 -158.5v-614h-36v492q-67 -101 -187 -101q-92 0 -157.5 65.5t-65.5 157.5zM121 614.5q0 -77.5 54 -132t129 -54.5t130.5 51.5t59.5 126.5v8q0 78 -54.5 132.5t-132.5 54.5t-132 -54.5t-54 -132z" unicode="9"/><glyph d="M0 0v102h102v-102h-102zM0 307v103h102v-103h-102z" horiz-adv-x="204" unicode=":"/><glyph d="M78 410l217 217l24 -25l-192 -192l192 -193l-24 -24z" horiz-adv-x="409" unicode="&lt;"/><glyph d="M102 289v37h410v-37h-410zM102 494v36h410v-36h-410z" unicode="="/><glyph d="M78 217l192 193l-192 192l24 25l217 -217l-217 -217z" horiz-adv-x="409" unicode="&gt;"/><glyph d="M84 815l37 8l205 -819l-37 -8z" horiz-adv-x="409" unicode="\"/><glyph d="M0 -18v36h819v-36h-819z" horiz-adv-x="819" unicode="_"/><glyph d="M102 391v37h410v-37h-410z" unicode="­"/><glyph d="M102 391v37h187v168h-187v37h187v186h37v-186h186v-37h-186v-168h186v-37h-410z" unicode="±"/><glyph d="M90 217l193 193l-193 192l25 25l192 -193l193 193l24 -25l-192 -192l192 -193l-24 -24l-193 192l-192 -192z" unicode="×"/><glyph d="M102 391v37h410v-37h-410zM256 205v102h102v-102h-102zM256 512v102h102v-102h-102z" unicode="÷"/><glyph horiz-adv-x="870"/><glyph horiz-adv-x="1741"/><glyph horiz-adv-x="870"/><glyph horiz-adv-x="1741"/><glyph horiz-adv-x="580"/><glyph horiz-adv-x="435"/><glyph horiz-adv-x="290"/><glyph horiz-adv-x="290"/><glyph horiz-adv-x="217"/><glyph horiz-adv-x="348"/><glyph horiz-adv-x="96"/><glyph d="M102 391v37h410v-37h-410z" unicode="‐"/><glyph d="M102 391v37h410v-37h-410z" unicode="‑"/><glyph d="M102 391v37h410v-37h-410z" unicode="‒"/><glyph d="M102 391v37h1024v-37h-1024z" horiz-adv-x="1228" unicode="–"/><glyph d="M102 391v37h2048v-37h-2048z" horiz-adv-x="2252" unicode="—"/><glyph horiz-adv-x="348"/><glyph horiz-adv-x="435"/><glyph d="M0 0z" horiz-adv-x="500" unicode="◼"/></font>
</defs>
</svg>
