<?xml version="1.0" standalone="no"?>
<!DOCTYPE svg PUBLIC "-//W3C//DTD SVG 1.1//EN" "http://www.w3.org/Graphics/SVG/1.1/DTD/svg11.dtd" >
<svg xmlns="http://www.w3.org/2000/svg" xmlns:xlink="http://www.w3.org/1999/xlink" version="1.1">
<metadata></metadata>
<defs>
<font id="ara_hamah_1964_r_lightregular" horiz-adv-x="0" >
<font-face units-per-em="1500" ascent="1200" descent="-300" />
<missing-glyph horiz-adv-x="226" />
<glyph unicode="&#xfedf;&#xfe82;" horiz-adv-x="485" arabic-form="isolated" d="M445 855v-645q0 -107 -59 -158q-61 -52 -191 -52q-88 0 -150 25l-6 2v88q38 -33 140 -35l-134 642h90l132 -634q29 8 53 27q43 37 43 110v630h82zM99 803q4 -2 23 1.5t30 8.5l-10 -31q-19 -10 -62 -5t-61 -8l8 27q0 4 7.5 7t23.5 4t41 -4z" />
<glyph unicode="&#xfee0;&#xfe82;" horiz-adv-x="539" arabic-form="final" d="M445 855v-645q0 -65 -24 -113q43 -17 124 -17h14v-80h-7q-94 0 -145 18q-13 5 -37 22q-61 -40 -176 -40q-88 0 -148 25l-6 2v88q36 -33 139 -35l-133 642h90l131 -634q31 9 54 27q42 35 42 110v630h82zM99 803q4 -2 23 1.5t30 8.5l-10 -31q-19 -10 -62 -5t-61 -8l8 27 q0 4 7.5 7t23.5 4t41 -4z" />
<glyph unicode="&#xfedf;&#xfe84;" horiz-adv-x="485" arabic-form="isolated" d="M110 900l-3 -18q-29 4 -43 -4.5t-12 -28.5q4 -41 60 -52q3 -1 13 -1h2l-2 -1l-2 -16q-60 5 -90 -9l-6 15q17 12 40 12q-49 29 -26 73q21 44 69 30zM445 855v-645q0 -107 -59 -158q-61 -52 -191 -52q-89 0 -149 25l-6 2v88q36 -33 140 -35l-134 642h89q53 -249 132 -634 q33 9 54 27q43 34 43 110v630h81z" />
<glyph unicode="&#xfee0;&#xfe84;" horiz-adv-x="539" arabic-form="final" d="M110 900l-3 -18q-29 4 -43 -4.5t-12 -28.5q4 -41 60 -52q3 -1 13 -1h2l-2 -1l-2 -16q-60 5 -90 -9l-6 15q17 12 40 12q-49 29 -26 73q21 44 69 30zM445 855v-645q0 -65 -24 -113q43 -17 124 -17h14v-80h-7q-94 0 -145 18q-13 5 -37 22q-61 -40 -176 -40q-88 0 -148 25 l-6 2v88q36 -33 139 -35l-133 642h90l65 -317l66 -317q31 9 54 27q42 35 42 110v630h82z" />
<glyph unicode="&#xfedf;&#xfe88;" horiz-adv-x="485" arabic-form="isolated" d="M445 855v-645q0 -109 -58 -158q-59 -52 -193 -52q-88 0 -148 25l-6 2v88q36 -33 139 -35l-133 642h90l65 -317l66 -317q31 9 54 27q42 35 42 110v630h82zM237 -89l-2 -17q-30 4 -43.5 -5t-11.5 -29q3 -41 58 -51q3 -1 13 -1h1v-2l-3 -14q-57 4 -89 -10l-6 15q16 12 40 12 q-48 29 -26 72q21 43 69 30z" />
<glyph unicode="&#xfee0;&#xfe88;" horiz-adv-x="539" arabic-form="final" d="M445 855v-645q0 -65 -24 -113q43 -17 124 -17h14v-80h-7q-94 0 -145 18q-13 5 -37 22q-61 -40 -176 -40q-88 0 -148 25l-6 2v88q36 -33 139 -35l-133 642h90l65 -317l66 -317q31 9 54 27q42 35 42 110v630h82zM237 -89l-2 -17q-30 4 -43.5 -5t-11.5 -29q3 -41 58 -51 q3 -1 13 -1h1v-2l-3 -14q-57 4 -89 -10l-6 15q16 12 40 12q-48 29 -26 72q21 43 69 30z" />
<glyph unicode="&#xfedf;&#xfe8e;" horiz-adv-x="485" arabic-form="isolated" d="M445 855v-645q0 -109 -58 -158q-59 -52 -193 -52q-88 0 -148 25l-6 2v88q36 -33 139 -35l-133 642h90l131 -634q31 9 54 27q42 35 42 110v630h82z" />
<glyph unicode="&#xfee0;&#xfe8e;" horiz-adv-x="539" arabic-form="final" d="M445 855v-645q0 -65 -24 -113q43 -17 124 -17h14v-80h-7q-94 0 -145 18q-13 5 -37 22q-61 -40 -176 -40q-88 0 -148 25l-6 2v88q36 -33 139 -35l-133 642h90l65 -317l66 -317q31 9 54 27q42 35 42 110v630h82z" />
<glyph unicode="&#x649;" horiz-adv-x="289" arabic-form="initial" d="M249 545v-361q0 -91 -65.5 -137.5t-187.5 -46.5h-16v80h14q178 0 178 104v361h77z" />
<glyph unicode="&#x649;" horiz-adv-x="420" arabic-form="medial" d="M249 545v-361q0 -104 177 -104h14v-80h-16q-86 0 -139 21q-46 20 -75 55q-29 -35 -75 -55q-53 -21 -139 -21h-16v80h14q178 0 178 104v361h77z" />
<glyph unicode="&#xfc63;" arabic-form="isolated" d="M12 179h-26v154h26v-154zM126 184v-113q0 -35 -20 -53q-18 -15 -32 -17q-30 -5 -50 6q-10 6 -25 24q-10 -17 -25 -23q-17 -10 -46 -7q-14 2 -30 14q-8 3 -17 20q-7 14 -7 36v113h28v-109q0 -26 14 -38t35 -12q35 9 35 39v98h26v-98q0 -30 33 -39q25 -1 38 12q15 12 15 38 v109h28z" />
<glyph unicode="&#x622;" horiz-adv-x="284" arabic-form="final" d="M99 849q4 -2 23 1.5t30 8.5l-10 -31q-19 -10 -62 -5t-61 -8l8 27q0 4 7.5 7t23.5 4t41 -4zM122 741v-512q0 -80 43 -114q43 -35 133 -35h7v-80h-15q-124 0 -191 58q-58 49 -58 157l-1 526h82z" />
<glyph unicode="&#x623;" horiz-adv-x="284" arabic-form="final" d="M114 850l-3 -18q-29 4 -43 -5t-12 -29q4 -40 60 -51q3 -1 13 -1v-2l-3 -15q-61 5 -89 -8l-6 14q17 12 40 12q-25 15 -34.5 36t1.5 43q19 40 76 24zM122 669v-440q0 -79 42 -114q43 -35 133 -35h7v-80h-14q-125 0 -192 58q-57 50 -57 157l-1 454h82z" />
<glyph unicode="&#x624;" horiz-adv-x="665" arabic-form="final" d="M240 684l-11 27q31 21 72 21q-87 52 -48 133q39 80 125 54l-3 -33q-52 7 -80 -13q-23 -17 -20 -48q9 -74 108 -93q3 -1 11 -1.5t12 -0.5h1v-2l-5 -28q-109 9 -162 -16zM685 0h-164v-83q0 -118 -67 -169q-62 -47 -198 -47l-21 71q7 -1 19 -1h20q82 0 125 40t43 114v75 h-184q-110 0 -156 40q-62 54 -62 146q0 364 262 364h219v-470h164v-80zM442 475h-111q-73 0 -107 -21q-105 -68 -105 -254q0 -58 45 -93q33 -27 106 -27h172v395z" />
<glyph unicode="&#x625;" horiz-adv-x="284" arabic-form="final" d="M122 854v-625q0 -80 43 -114q43 -35 132 -35h7v-80h-14q-124 0 -191 58q-58 49 -58 157l-1 639h82zM154 -91l-2 -18q-59 8 -56 -33q5 -42 60 -52q3 -1 13 -1h1v-1l-3 -16q-60 4 -90 -9l-6 15q17 12 40 12q-48 29 -25 73q21 44 68 30z" />
<glyph unicode="&#x626;" horiz-adv-x="1428" arabic-form="final" d="M241 573l-4 -32q-50 7 -78 -14q-25 -19 -22 -47q3 -38 30.5 -62.5t77.5 -30.5l25 -3h1l-1 -1l-6 -28q-107 9 -162 -17l-11 27q31 22 72 22q-85 51 -46 132q38 80 124 54zM263 251v-82q-73 0 -107 -34q-35 -35 -44 -115q-2 -16 -2 -20v-19q0 -114 41 -158q40 -43 113 -43 h775q135 0 147 83l6 41q0 58 -34 80q-23 16 -105 16h-388v80h783v-80h-192q19 -35 19 -89q0 -25 -5 -51q-28 -159 -219 -159h-795q-117 0 -169 67q-47 62 -47 231q0 123 50 188q51 64 143 64h30z" />
<glyph unicode="&#x626;" horiz-adv-x="327" arabic-form="initial" d="M268 857l-3 -33q-52 7 -80 -13q-23 -17 -20 -48q9 -74 108 -93q3 -1 11 -1.5t12 -0.5h1v-2l-5 -28q-109 9 -162 -16l-11 27q31 21 72 21q-87 52 -48 133q39 80 125 54zM249 545v-361q0 -91 -65.5 -137.5t-187.5 -46.5h-16v80h14q178 0 178 104v361h77z" />
<glyph unicode="&#x626;" horiz-adv-x="420" arabic-form="medial" d="M268 857l-3 -33q-52 7 -80 -13q-23 -17 -20 -48q9 -74 108 -93q3 -1 11 -1.5t12 -0.5h1v-2l-5 -28q-109 9 -162 -16l-11 27q31 21 72 21q-87 52 -48 133q39 80 125 54zM249 545v-361q0 -104 177 -104h14v-80h-16q-86 0 -139 21q-46 20 -75 55q-29 -35 -75 -55 q-53 -21 -139 -21h-16v80h14q178 0 178 104v361h77z" />
<glyph unicode="&#x627;" horiz-adv-x="284" arabic-form="final" d="M122 854v-625q0 -80 43 -114q43 -35 132 -35h7v-80h-14q-124 0 -191 58q-58 49 -58 157l-1 639h82z" />
<glyph unicode="&#x628;" horiz-adv-x="1145" arabic-form="final" d="M1074 80h92v-80h-912q-118 0 -167 67q-47 62 -47 229q0 121 50 185q51 64 143 64h28v-81q-73 0 -107 -33q-33 -33 -42 -115q-1 -7 -1 -19v-19q0 -114 39 -156q40 -42 113 -42h737v465h74v-465zM630 -181h-95v80h95v-80z" />
<glyph unicode="&#x628;" horiz-adv-x="289" arabic-form="initial" d="M249 545v-361q0 -91 -65.5 -137.5t-187.5 -46.5h-16v80h14q178 0 178 104v361h77zM188 -181h-95v80h95v-80z" />
<glyph unicode="&#x628;" horiz-adv-x="420" arabic-form="medial" d="M249 545v-361q0 -104 177 -104h14v-80h-16q-86 0 -139 21q-46 20 -75 55q-29 -35 -75 -55q-53 -21 -139 -21h-16v80h14q178 0 178 104v361h77zM250 -181h-95v80h95v-80z" />
<glyph unicode="&#x629;" horiz-adv-x="596" arabic-form="final" d="M276 654h-95v80h95v-80zM420 654h-95v80h95v-80zM299 551q112 0 163 -39q33 -25 50 -120l45 -255q3 -18 10 -38q8 -20 48 -19v-80h-38q-51 0 -73 25q-17 18 -23 51l-49 289q-10 59 -36 85q-29 29 -88 29q-89 0 -130 -26q-54 -34 -54 -125v-115q0 -73 32 -103 q33 -30 119 -30h184v-80h-197q-79 0 -115 13q-36 12 -67 47q-24 29 -31 57q-8 30 -8 91l-1 125q-2 126 69 177q57 41 190 41z" />
<glyph unicode="&#x62a;" horiz-adv-x="1145" arabic-form="final" d="M555 620h-95v80h95v-80zM711 620h-95v80h95v-80zM1074 80h92v-80h-912q-118 0 -167 67q-47 62 -47 229q0 121 50 185q51 64 143 64h28v-81q-73 0 -107 -33q-33 -33 -42 -115q-1 -7 -1 -19v-19q0 -114 39 -156q40 -42 113 -42h737v465h74v-465z" />
<glyph unicode="&#x62a;" horiz-adv-x="317" arabic-form="initial" d="M131 660h-95v80h95v-80zM287 660h-95v80h95v-80zM249 545v-361q0 -91 -65.5 -137.5t-187.5 -46.5h-16v80h14q178 0 178 104v361h77z" />
<glyph unicode="&#x62a;" horiz-adv-x="420" arabic-form="medial" d="M184 661h-95v80h95v-80zM340 661h-95v80h95v-80zM249 545v-361q0 -104 177 -104h14v-80h-16q-86 0 -139 21q-46 20 -75 55q-29 -35 -75 -55q-53 -21 -139 -21h-16v80h14q178 0 178 104v361h77z" />
<glyph unicode="&#x62b;" horiz-adv-x="1145" arabic-form="final" d="M635 758h-95v80h95v-80zM553 624h-95v80h95v-80zM709 624h-95v80h95v-80zM1074 80h92v-80h-912q-118 0 -167 67q-47 62 -47 229q0 121 50 185q51 64 143 64h28v-81q-73 0 -107 -33q-33 -33 -42 -115q-1 -7 -1 -19v-19q0 -114 39 -156q40 -42 113 -42h737v465h74v-465z " />
<glyph unicode="&#x62b;" horiz-adv-x="320" arabic-form="initial" d="M206 796h-95v80h95v-80zM124 662h-95v80h95v-80zM280 662h-95v80h95v-80zM249 545v-361q0 -91 -65.5 -137.5t-187.5 -46.5h-16v80h14q178 0 178 104v361h77z" />
<glyph unicode="&#x62b;" horiz-adv-x="420" arabic-form="medial" d="M264 793h-95v80h95v-80zM182 659h-95v80h95v-80zM338 659h-95v80h95v-80zM249 545v-361q0 -104 177 -104h14v-80h-16q-86 0 -139 21q-46 20 -75 55q-29 -35 -75 -55q-53 -21 -139 -21h-16v80h14q178 0 178 104v361h77z" />
<glyph unicode="&#x62c;" horiz-adv-x="942" arabic-form="final" d="M161 552l498 -122q113 -27 156 -87q44 -62 35 -150q-5 -56 -26 -94q42 -19 123 -19h14v-80h-17q-88 0 -140 21q-20 9 -34 18q-57 -39 -153 -39h-355q-80 0 -105 -16q-34 -21 -34 -79q0 -3 6 -41q13 -88 147 -88h120v-75h-131q-97 0 -147 34q-56 38 -72 125q-6 32 -6 52 q0 168 196 168h379q81 0 116 29q39 33 45 95q6 56 -27 96q-30 36 -107 54l-489 113zM630 -181h-95v80h95v-80z" />
<glyph unicode="&#x62c;" horiz-adv-x="879" arabic-form="initial" d="M148 550l499 -120q111 -27 155 -88q45 -63 36 -149q-18 -193 -234 -193h-624v80h622q82 0 115 27q40 32 46 96q6 55 -27 96q-30 36 -107 54l-489 113zM479 -181h-95v80h95v-80z" />
<glyph unicode="&#x62c;" horiz-adv-x="927" arabic-form="medial" d="M148 550l498 -120q110 -26 155 -88q44 -63 37 -149q-6 -57 -29 -98q42 -15 126 -15h12v-80h-15q-93 0 -140 16q-12 4 -36 19v3q-58 -38 -152 -38h-624v80h622q82 0 115 27q40 32 46 96q6 55 -27 96q-32 36 -107 54l-490 113zM479 -181h-95v80h95v-80z" />
<glyph unicode="&#x62d;" horiz-adv-x="942" arabic-form="final" d="M161 552l498 -122q113 -27 156 -87q44 -62 35 -150q-5 -56 -26 -94q42 -19 123 -19h14v-80h-17q-88 0 -140 21q-20 9 -34 18q-57 -39 -153 -39h-355q-80 0 -105 -16q-34 -21 -34 -79q0 -3 6 -41q13 -88 147 -88h120v-75h-131q-97 0 -147 34q-56 38 -72 125q-6 32 -6 52 q0 168 196 168h379q81 0 116 29q39 33 45 95q6 56 -27 96q-30 36 -107 54l-489 113z" />
<glyph unicode="&#x62d;" horiz-adv-x="879" arabic-form="initial" d="M148 550l499 -120q111 -27 155 -88q45 -63 36 -149q-18 -193 -234 -193h-624v80h622q82 0 115 27q40 32 46 96q6 55 -27 96q-30 36 -107 54l-489 113z" />
<glyph unicode="&#x62d;" horiz-adv-x="927" arabic-form="medial" d="M148 550l498 -120q110 -26 155 -88q44 -63 37 -149q-6 -57 -29 -98q42 -15 126 -15h12v-80h-15q-93 0 -140 16q-12 4 -36 19v3q-58 -38 -152 -38h-624v80h622q82 0 115 27q40 32 46 96q6 55 -27 96q-32 36 -107 54l-490 113z" />
<glyph unicode="&#x62e;" horiz-adv-x="942" arabic-form="final" d="M479 654h-95v80h95v-80zM161 552l498 -122q113 -27 156 -87q44 -62 35 -150q-5 -56 -26 -94q42 -19 123 -19h14v-80h-17q-88 0 -140 21q-20 9 -34 18q-57 -39 -153 -39h-355q-80 0 -105 -16q-34 -21 -34 -79q0 -3 6 -41q13 -88 147 -88h120v-75h-131q-97 0 -147 34 q-56 38 -72 125q-6 32 -6 52q0 168 196 168h379q81 0 116 29q39 33 45 95q6 56 -27 96q-30 36 -107 54l-489 113z" />
<glyph unicode="&#x62e;" horiz-adv-x="879" arabic-form="initial" d="M479 654h-95v80h95v-80zM148 550l499 -120q111 -27 155 -88q45 -63 36 -149q-18 -193 -234 -193h-624v80h622q82 0 115 27q40 32 46 96q6 55 -27 96q-30 36 -107 54l-489 113z" />
<glyph unicode="&#x62e;" horiz-adv-x="927" arabic-form="medial" d="M479 654h-95v80h95v-80zM148 550l498 -120q110 -26 155 -88q44 -63 37 -149q-6 -57 -29 -98q42 -15 126 -15h12v-80h-15q-93 0 -140 16q-12 4 -36 19v3q-58 -38 -152 -38h-624v80h622q82 0 115 27q40 32 46 96q6 55 -27 96q-32 36 -107 54l-490 113z" />
<glyph unicode="&#x62f;" horiz-adv-x="972" arabic-form="final" d="M157 547h492q123 0 176 -54q50 -53 50 -180q0 -135 -28 -210q44 -23 131 -23h14v-80h-7q-97 0 -148 22q-19 8 -35 18q-52 -40 -153 -40h-609v80h609q87 0 121 39q36 41 36 170q0 95 -36 136q-36 39 -121 39h-492v83z" />
<glyph unicode="&#x630;" horiz-adv-x="972" arabic-form="final" d="M479 654h-95v80h95v-80zM157 547h492q123 0 176 -54q50 -53 50 -180q0 -135 -28 -210q44 -23 131 -23h14v-80h-7q-97 0 -148 22q-19 8 -35 18q-52 -40 -153 -40h-609v80h609q87 0 121 39q36 41 36 170q0 95 -36 136q-36 39 -121 39h-492v83z" />
<glyph unicode="&#x631;" horiz-adv-x="448" arabic-form="final" d="M290 559v-430q37 -49 164 -49h14v-80h-7q-96 0 -151 22l-20 8v-115q0 -120 -68 -171q-61 -47 -156 -47h-34l-12 -1l-20 73q13 -1 38 -1q34 0 48 3q49 9 80 37q43 40 43 116v635h81z" />
<glyph unicode="&#x632;" horiz-adv-x="448" arabic-form="final" d="M294 654h-95v80h95v-80zM290 559v-430q37 -49 164 -49h14v-80h-7q-96 0 -151 22l-20 8v-115q0 -120 -68 -171q-61 -47 -156 -47h-34l-12 -1l-20 73q13 -1 38 -1q34 0 48 3q49 9 80 37q43 40 43 116v635h81z" />
<glyph unicode="&#x633;" horiz-adv-x="1586" arabic-form="final" d="M1482 556l-2 -344q0 -63 -20 -109q44 -23 132 -23h14v-80h-7q-99 0 -151 21q-20 7 -36 18v6q-55 -40 -154 -45q-94 -3 -161 24q-53 21 -77 68q-20 -42 -75 -66q-63 -28 -155 -28q-95 0 -157 35v-95q0 -108 -94 -175q-82 -59 -204 -67q-119 -6 -203 42q-92 54 -92 151v300 h78v-295q0 -60 67 -94q63 -31 149 -26q91 5 149 48q67 49 67 131v603h83l1 -355q6 -62 44 -92q50 -38 128 -36q71 1 129 35q46 28 46 80v300h79v-295q0 -98 116 -119q110 -21 179 36q42 36 42 116v330h85z" />
<glyph unicode="&#x633;" horiz-adv-x="1074" arabic-form="initial" d="M1034 556l-1 -344q0 -108 -60 -160q-53 -46 -156 -52q-95 -6 -167 24q-46 20 -78 69q-32 -50 -77 -69q-64 -27 -158 -24q-99 5 -153 43v-4q-16 -11 -36 -18q-52 -21 -151 -21h-17v80h23q88 0 131 22q-22 44 -22 110l-1 344h84v-330q0 -79 43 -115q70 -58 178 -37 q116 21 116 119v295h80v-295q0 -98 116 -119q110 -21 179 36q42 34 42 116v330h85z" />
<glyph unicode="&#x633;" horiz-adv-x="1130" arabic-form="medial" d="M1034 556l-1 -344q0 -66 -23 -112q45 -20 126 -20h13v-80h-6q-98 0 -152 21q-19 8 -35 18q-59 -38 -151 -41q-86 -3 -155 26q-47 20 -77 69q-31 -49 -78 -69q-64 -27 -158 -24q-97 5 -154 44v-5q-16 -10 -35 -18q-54 -21 -152 -21h-16v80h23q87 0 131 23q-22 49 -22 109 l-1 344h85v-330q0 -80 42 -115q70 -58 179 -37q117 21 117 119v295h79v-295q0 -98 116 -119q109 -21 178 36q43 36 43 116v330h84z" />
<glyph unicode="&#x634;" horiz-adv-x="1586" arabic-form="final" d="M1070 796h-95v80h95v-80zM988 662h-95v80h95v-80zM1144 662h-95v80h95v-80zM1482 556l-2 -344q0 -63 -20 -109q44 -23 132 -23h14v-80h-7q-99 0 -151 21q-20 7 -36 18v6q-55 -40 -154 -45q-94 -3 -161 24q-53 21 -77 68q-20 -42 -75 -66q-63 -28 -155 -28q-95 0 -157 35 v-95q0 -108 -94 -175q-82 -59 -204 -67q-119 -6 -203 42q-92 54 -92 151v300h78v-295q0 -60 67 -94q63 -31 149 -26q91 5 149 48q67 49 67 131v603h83l1 -355q6 -62 44 -92q50 -38 128 -36q71 1 129 35q46 28 46 80v300h79v-295q0 -98 116 -119q110 -21 179 36q42 36 42 116 v330h85z" />
<glyph unicode="&#x634;" horiz-adv-x="1074" arabic-form="initial" d="M627 796h-95v80h95v-80zM545 662h-95v80h95v-80zM701 662h-95v80h95v-80zM1034 556l-1 -344q0 -108 -60 -160q-53 -46 -156 -52q-95 -6 -167 24q-46 20 -78 69q-32 -50 -77 -69q-64 -27 -158 -24q-99 5 -153 43v-4q-16 -11 -36 -18q-52 -21 -151 -21h-17v80h23 q88 0 131 22q-22 44 -22 110l-1 344h84v-330q0 -79 43 -115q70 -58 178 -37q116 21 116 119v295h80v-295q0 -98 116 -119q110 -21 179 36q42 34 42 116v330h85z" />
<glyph unicode="&#x634;" horiz-adv-x="1130" arabic-form="medial" d="M627 796h-95v80h95v-80zM545 662h-95v80h95v-80zM701 662h-95v80h95v-80zM1034 556l-1 -344q0 -66 -23 -112q45 -20 126 -20h13v-80h-6q-98 0 -152 21q-19 8 -35 18q-59 -38 -151 -41q-86 -3 -155 26q-47 20 -77 69q-31 -49 -78 -69q-64 -27 -158 -24q-97 5 -154 44v-5 q-16 -10 -35 -18q-54 -21 -152 -21h-16v80h23q87 0 131 23q-22 49 -22 109l-1 344h85v-330q0 -80 42 -115q70 -58 179 -37q117 21 117 119v295h79v-295q0 -98 116 -119q109 -21 178 36q43 36 43 116v330h84z" />
<glyph unicode="&#x635;" horiz-adv-x="1651" arabic-form="final" d="M886 552q22 0 47 -4l448 -66q177 -26 177 -214q0 -104 -26 -168q45 -20 125 -20h14v-80h-17q-88 0 -140 21q-18 8 -32 18q-54 -39 -145 -39h-711v-60q0 -107 -92 -173q-80 -58 -202 -66q-118 -6 -201 42q-91 54 -91 149v295h78v-291q0 -58 66 -93q60 -31 147 -26 q87 4 146 47q67 49 67 130v359h82v-233h89v300q0 78 44 125t127 47zM912 469h-16q-105 0 -105 -114v-275h543q106 0 139 78q18 44 18 120q0 54 -31 82t-105 40l-427 66q-4 0 -7 1z" />
<glyph unicode="&#x635;" horiz-adv-x="1250" arabic-form="initial" d="M538 552q21 0 46 -4l448 -66q178 -27 178 -214q0 -132 -38 -188q-53 -80 -184 -80h-626q-117 0 -169 52l-19 19q-7 -9 -18 -19q-62 -52 -159 -52h-17v80q72 -2 110 30q42 34 42 114v117h84v-117q0 -78 42 -114q36 -30 106 -30h1v300q0 78 46 125q45 47 127 47zM563 469 h-16q-105 0 -105 -114v-275h543q106 0 140 78q16 36 16 120q0 54 -30 82q-31 28 -105 40l-427 66q-4 0 -7 1q-2 0 -5 0.5t-4 1.5z" />
<glyph unicode="&#x635;" horiz-adv-x="1305" arabic-form="medial" d="M538 552q21 0 46 -4l448 -66q178 -27 178 -214q0 -104 -27 -167q43 -21 128 -21h14v-80h-7q-98 0 -150 21q-17 7 -34 18q-54 -39 -146 -39h-626q-117 0 -169 52l-19 19q-7 -9 -18 -19q-62 -52 -159 -52h-17v80q72 -2 110 30q42 34 42 114v117h84v-117q0 -78 42 -114 q36 -30 107 -30h1l-1 300q0 78 46 125q45 47 127 47zM563 469h-16q-105 0 -105 -114v-275h543q106 0 140 78q16 36 16 120q0 54 -30 82q-31 28 -105 40l-426 66q-5 0 -8 1z" />
<glyph unicode="&#x636;" horiz-adv-x="1651" arabic-form="final" d="M1163 662h-95v80h95v-80zM886 552q22 0 47 -4l448 -66q177 -26 177 -214q0 -104 -26 -168q45 -20 125 -20h14v-80h-17q-88 0 -140 21q-18 8 -32 18q-54 -39 -145 -39h-711v-60q0 -107 -92 -173q-80 -58 -202 -66q-118 -6 -201 42q-91 54 -91 149v295h78v-291 q0 -58 66 -93q60 -31 147 -26q87 4 146 47q67 49 67 130v359h82v-233h89v300q0 78 44 125t127 47zM912 469h-16q-105 0 -105 -114v-275h543q106 0 139 78q18 44 18 120q0 54 -31 82t-105 40l-427 66q-4 0 -7 1z" />
<glyph unicode="&#x636;" horiz-adv-x="1250" arabic-form="initial" d="M797 662h-95v80h95v-80zM538 552q21 0 46 -4l448 -66q178 -27 178 -214q0 -132 -38 -188q-53 -80 -184 -80h-626q-117 0 -169 52l-19 19q-7 -9 -18 -19q-62 -52 -159 -52h-17v80q72 -2 110 30q42 34 42 114v117h84v-117q0 -78 42 -114q36 -30 106 -30h1v300q0 78 46 125 q45 47 127 47zM563 469h-16q-105 0 -105 -114v-275h543q106 0 140 78q16 36 16 120q0 54 -30 82q-31 28 -105 40l-427 66q-4 0 -7 1q-2 0 -5 0.5t-4 1.5z" />
<glyph unicode="&#x636;" horiz-adv-x="1305" arabic-form="medial" d="M797 662h-95v80h95v-80zM538 552q21 0 46 -4l448 -66q178 -27 178 -214q0 -104 -27 -167q43 -21 128 -21h14v-80h-7q-98 0 -150 21q-17 7 -34 18q-54 -39 -146 -39h-626q-117 0 -169 52l-19 19q-7 -9 -18 -19q-62 -52 -159 -52h-17v80q72 -2 110 30q42 34 42 114v117h84 v-117q0 -78 42 -114q36 -30 107 -30h1l-1 300q0 78 46 125q45 47 127 47zM563 469h-16q-105 0 -105 -114v-275h543q106 0 140 78q16 36 16 120q0 54 -30 82q-31 28 -105 40l-426 66q-5 0 -8 1z" />
<glyph unicode="&#x637;" horiz-adv-x="1001" arabic-form="final" d="M165 854v-343q37 22 93 22q20 0 44 -4l434 -65q172 -25 172 -207q0 -101 -25 -161q41 -16 124 -16h14v-80h-7q-94 0 -145 18q-17 7 -34 18q-51 -36 -142 -36h-653v80h51v774h74zM282 452h-15q-102 0 -102 -110v-262h526q105 0 135 71q17 38 17 116q0 51 -30 80 q-29 26 -103 38l-412 65q-4 0 -7 1t-9 1z" />
<glyph unicode="&#x637;" horiz-adv-x="928" arabic-form="initial" d="M145 854v-343q37 22 93 22q20 0 44 -4l434 -65q172 -25 172 -206q0 -126 -36 -182q-49 -76 -179 -76h-693v80h91v774h74zM262 452h-15q-102 0 -102 -110v-262h526q105 0 135 71q17 38 17 116q0 51 -30 80q-29 26 -103 38l-412 65q-4 0 -7 1t-9 1z" />
<glyph unicode="&#x637;" horiz-adv-x="981" arabic-form="medial" d="M145 854v-343q37 22 93 22q20 0 44 -4l434 -65q172 -25 172 -207q0 -101 -25 -161q41 -16 124 -16h14v-80h-7q-94 0 -145 18q-17 7 -34 18q-51 -36 -142 -36h-693v80h91v774h74zM262 452h-15q-102 0 -102 -110v-262h526q105 0 135 71q17 38 17 116q0 51 -30 80 q-29 26 -103 38l-412 65q-4 0 -7 1t-9 1z" />
<glyph unicode="&#x638;" horiz-adv-x="1001" arabic-form="final" d="M165 854v-343q37 22 93 22q20 0 44 -4l434 -65q172 -25 172 -207q0 -101 -25 -161q41 -16 124 -16h14v-80h-7q-94 0 -145 18q-17 7 -34 18q-51 -36 -142 -36h-653v80h51v774h74zM534 662h-95v80h95v-80zM282 452h-15q-102 0 -102 -110v-262h526q105 0 135 71 q17 38 17 116q0 51 -30 80q-29 26 -103 38l-412 65q-4 0 -7 1t-9 1z" />
<glyph unicode="&#x638;" horiz-adv-x="928" arabic-form="initial" d="M145 854v-343q37 22 93 22q20 0 44 -4l434 -65q172 -25 172 -206q0 -126 -36 -182q-49 -76 -179 -76h-693v80h91v774h74zM534 662h-95v80h95v-80zM262 452h-15q-102 0 -102 -110v-262h526q105 0 135 71q17 38 17 116q0 51 -30 80q-29 26 -103 38l-412 65q-4 0 -7 1t-9 1z " />
<glyph unicode="&#x638;" horiz-adv-x="981" arabic-form="medial" d="M145 854v-343q37 22 93 22q20 0 44 -4l434 -65q172 -25 172 -207q0 -101 -25 -161q41 -16 124 -16h14v-80h-7q-94 0 -145 18q-17 7 -34 18q-51 -36 -142 -36h-693v80h91v774h74zM534 662h-95v80h95v-80zM262 452h-15q-102 0 -102 -110v-262h526q105 0 135 71 q17 38 17 116q0 51 -30 80q-29 26 -103 38l-412 65q-4 0 -7 1t-9 1z" />
<glyph unicode="&#x639;" horiz-adv-x="685" arabic-form="final" d="M69 497l324 51q66 10 129 -53q42 -42 83 -120t18 -116l-109 -179h191v-80h-277q-14 0 -23 1h-26q-8 -1 -23 -1q-22 0 -33 1h-61q-80 0 -106 -17q-33 -21 -33 -78q0 -10 5 -41q12 -87 146 -87h119v-75h-129q-96 0 -146 34q-55 37 -72 124q-6 31 -6 51q0 167 190 168 q3 4 7 12t4 34t-12 53t-52.5 67t-107.5 78v173zM138 421v-62q45 -25 82.5 -61t60.5 -70.5t42.5 -66t36.5 -53.5t33 -26l133 181q27 21 -1.5 82t-59.5 97q-29 34 -72 30z" />
<glyph unicode="&#x639;" horiz-adv-x="556" arabic-form="initial" d="M437 472h-106q-73 0 -108 -35q-34 -35 -34 -115v-106q0 -72 34 -103q35 -33 112 -33h182v-80h-537v80h154q-27 46 -27 127v125q0 215 203 215h127v-75z" />
<glyph unicode="&#x639;" horiz-adv-x="685" arabic-form="medial" d="M705 0h-422h-303v80h282q0 33 -20 70.5t-48 67t-56.5 54.5t-48.5 38l-20 14v173l324 51q66 10 129 -53q42 -42 83 -120t18 -116l-109 -179h191v-80zM138 421v-62q45 -25 82.5 -61t60.5 -70.5t42.5 -66t36.5 -53.5t33 -26l133 181q27 21 -1.5 82t-59.5 97q-29 34 -72 30z " />
<glyph unicode="&#x63a;" horiz-adv-x="685" arabic-form="final" d="M376 662h-95v80h95v-80zM69 497l324 51q66 10 129 -53q42 -42 83 -120t18 -116l-109 -179h191v-80l-443 1q-80 0 -106 -17q-33 -21 -33 -78q0 -10 5 -41q12 -87 146 -87h119v-75h-129q-96 0 -146 34q-55 37 -72 124q-6 31 -6 51q0 167 190 168q3 4 7 12t4 34t-12 53 t-52.5 67t-107.5 78v173zM138 421v-62q45 -25 82.5 -61t60.5 -70.5t42.5 -66t36.5 -53.5t33 -26l133 181q27 21 -1.5 82t-59.5 97q-29 34 -72 30z" />
<glyph unicode="&#x63a;" horiz-adv-x="557" arabic-form="initial" d="M376 662h-95v80h95v-80zM437 472h-106q-73 0 -108 -35q-34 -35 -34 -115v-106q0 -72 34 -103q35 -33 112 -33h182v-80h-537v80h154q-27 46 -27 127v125q0 215 203 215h127v-75z" />
<glyph unicode="&#x63a;" horiz-adv-x="685" arabic-form="medial" d="M376 662h-95v80h95v-80zM705 0h-422h-303v80h282q0 33 -20 70.5t-48 67t-56.5 54.5t-48.5 38l-20 14v173l324 51q66 10 129 -53q42 -42 83 -120t18 -116l-109 -179h191v-80zM138 421v-62q45 -25 82.5 -61t60.5 -70.5t42.5 -66t36.5 -53.5t33 -26l133 181q27 21 -1.5 82 t-59.5 97q-29 34 -72 30z" />
<glyph unicode="&#x641;" horiz-adv-x="1354" arabic-form="final" d="M1069 662h-95v80h95v-80zM262 547v-81q-74 0 -108 -34q-33 -33 -42 -114q-2 -16 -2 -20v-18q0 -116 40 -157q40 -43 113 -43h550q-37 44 -37 133v105q0 117 59 171q58 55 191 55q127 0 195 -53q67 -52 67 -173v-97q0 -89 -38 -141h124v-80h-1120q-116 0 -167 67 q-47 64 -47 230q0 121 50 186q51 64 142 64h30zM1031 470q-93 0 -133 -37t-40 -120v-83q0 -76 40 -113q44 -39 143 -37q87 2 125 37q40 36 40 113v83q0 85 -40 121t-135 36z" />
<glyph unicode="&#x641;" horiz-adv-x="646" arabic-form="initial" d="M387 662h-95v80h95v-80zM343 543q129 0 196 -52t67 -173v-94q0 -224 -232 -224h-394v80h150q-36 43 -36 133v105q0 117 58 171t191 54zM349 470q-94 0 -134 -37t-40 -120v-83q0 -76 40 -113q44 -39 143 -37q87 2 125 37q40 36 40 113v83q0 85 -40 121q-41 36 -134 36z " />
<glyph unicode="&#x641;" horiz-adv-x="671" arabic-form="medial" d="M387 662h-95v80h95v-80zM343 543q129 0 196 -52t67 -173v-97q0 -90 -39 -141h124v-80h-711v80h150q-36 43 -36 133v105q0 117 58 171t191 54zM349 470q-94 0 -134 -37t-40 -120v-83q0 -76 40 -113q44 -39 143 -37q87 2 125 37q40 36 40 113v83q0 85 -40 121 q-41 36 -134 36z" />
<glyph unicode="&#x642;" horiz-adv-x="705" arabic-form="final" d="M319 662h-95v80h95v-80zM466 662h-95v80h95v-80zM358 548q130 0 197 -52t67 -175v-241h103v-80h-103v-63q0 -104 -93 -171q-80 -59 -199 -65t-199 40q-91 54 -91 149v138h76v-134q0 -58 67 -91q60 -31 145 -26q88 4 147 47q66 48 66 128v48h-204q-126 0 -195 81 q-37 52 -37 136v104q0 117 60 173q59 54 193 54zM364 475q-94 0 -135 -38q-40 -37 -40 -121v-84q0 -75 40 -114q38 -37 144 -37h168v235q0 84 -42 122q-42 37 -135 37z" />
<glyph unicode="&#x642;" horiz-adv-x="646" arabic-form="initial" d="M319 662h-95v80h95v-80zM466 662h-95v80h95v-80zM343 543q129 0 196 -52t67 -173v-94q0 -224 -232 -224h-394v80h150q-36 43 -36 133v105q0 117 58 171t191 54zM349 470q-94 0 -134 -37t-40 -120v-83q0 -76 40 -113q44 -39 143 -37q87 2 125 37q40 36 40 113v83 q0 85 -40 121q-41 36 -134 36z" />
<glyph unicode="&#x642;" horiz-adv-x="671" arabic-form="medial" d="M319 662h-95v80h95v-80zM466 662h-95v80h95v-80zM343 543q129 0 196 -52t67 -173v-97q0 -90 -39 -141h124v-80h-711v80h150q-36 43 -36 133v105q0 117 58 171t191 54zM349 470q-94 0 -134 -37t-40 -120v-83q0 -76 40 -113q44 -39 143 -37q87 2 125 37q40 36 40 113v83 q0 85 -40 121q-41 36 -134 36z" />
<glyph unicode="&#x643;" horiz-adv-x="1243" arabic-form="final" d="M1086 860v-730q36 -50 164 -50h13v-80h-6q-97 0 -150 21q-11 3 -21 9v-30h-830q-117 0 -168 67q-48 63 -48 232q0 123 51 188q49 64 143 64h30v-81q-74 0 -108 -34t-44 -116q-2 -14 -2 -19v-20q0 -114 41 -158q40 -43 113 -43h747v780h75zM672 658l-4 -32q-51 6 -79 -14 q-24 -16 -21 -47q5 -34 31 -57q32 -29 77 -36q10 -2 24 -2q1 0 2 -1l-1 -2l-6 -28q-109 9 -161 -16l-12 27q31 21 71 22q-42 26 -52 63q-11 35 6 68q17 35 49 50q33 16 76 5z" />
<glyph unicode="&#x643;" horiz-adv-x="779" arabic-form="initial" d="M651 779h-239q-76 0 -105 -23q-27 -24 -30 -77l-1 -18q-3 -63 20 -92q15 -18 116 -55l154 -56q107 -39 138 -76q35 -40 35 -131q0 -81 -5 -113q-11 -63 -56 -95q-61 -43 -210 -43h-488v80h472q118 0 156 27t38 107q0 82 -27 113q-27 30 -106 52l-226 89q-57 22 -80 61 q-25 38 -23 103l2 58q3 91 52 130q51 39 173 39h240v-80z" />
<glyph unicode="&#x643;" horiz-adv-x="835" arabic-form="medial" d="M651 779h-239q-77 0 -106 -23q-26 -21 -29 -77l-1 -18q-3 -63 20 -92q14 -18 115 -55l154 -56q106 -39 139 -76q35 -40 35 -131q0 -112 -17 -154q43 -17 120 -17h14v-80h-17q-87 0 -140 21q-16 6 -31 16q-61 -37 -201 -37h-487v80h472q118 0 155 27q38 27 38 107 q0 82 -27 113q-25 29 -106 52l-226 89q-56 22 -79 61q-25 38 -23 103l2 58q3 91 51 130q51 39 173 39h241v-80z" />
<glyph unicode="&#x644;" horiz-adv-x="785" arabic-form="final" d="M622 854v-711q28 -63 170 -63h13v-80h-6q-97 0 -149 21q-12 5 -28 15v-97q0 -106 -92 -173q-79 -57 -200 -65q-119 -6 -200 41q-90 52 -90 148v191h78v-187q0 -58 65 -91q61 -31 146 -27q90 6 145 47q65 47 65 129v902h83z" />
<glyph unicode="&#x644;" horiz-adv-x="285" arabic-form="initial" d="M244 854l-1 -639q0 -107 -57 -157q-68 -58 -192 -58h-14v80h7q90 0 133 35q42 35 42 114v625h82z" />
<glyph unicode="&#x644;" horiz-adv-x="407" arabic-form="medial" d="M244 854v-625q0 -80 43 -114q41 -35 132 -35h8v-80h-15q-124 0 -191 58q-11 9 -18 18l-17 -18q-68 -58 -192 -58h-14v80h7q90 0 133 35q42 35 42 114v625h82z" />
<glyph unicode="&#x645;" horiz-adv-x="805" arabic-form="final" d="M447 551q131 0 198 -54q68 -53 68 -174v-96q0 -79 -27 -128q42 -19 125 -19h14v-80h-7q-96 0 -150 21q-17 7 -34 21q-62 -42 -162 -42h-46q-52 0 -104 19h-2q-82 -7 -137 -50q-61 -48 -61 -124v-143h-82v64l1 93q2 83 55 141q51 54 135 79q-1 0 -1 1q-36 55 -36 125v118 q0 117 59 173q59 55 194 55zM452 476q-93 0 -134 -38t-41 -121v-85q0 -79 41 -114q45 -41 144 -38q86 2 126 37q41 35 41 115v85q0 86 -40 123q-41 36 -137 36z" />
<glyph unicode="&#x645;" horiz-adv-x="638" arabic-form="initial" d="M332 551q130 0 198 -54q68 -53 68 -174v-96q0 -121 -65 -175q-64 -52 -176 -52h-46q-77 0 -143 37q-16 -10 -32 -16q-52 -21 -150 -21h-6v80h13q70 0 114 14q-28 49 -28 111v118q0 117 59 173q59 55 194 55zM337 476q-93 0 -134 -38t-41 -121v-85q0 -79 41 -114 q45 -41 144 -38q86 2 126 37q41 35 41 115v85q0 86 -40 123q-40 36 -137 36z" />
<glyph unicode="&#x645;" horiz-adv-x="691" arabic-form="medial" d="M332 550q130 0 198 -53q67 -54 67 -176v-95q0 -77 -26 -127q42 -19 125 -19h14v-80h-7q-97 0 -149 21q-19 8 -35 21q-62 -42 -156 -42h-53q-77 0 -143 37q-15 -10 -31 -16q-52 -21 -150 -21h-6v80h13q69 0 113 14q-27 45 -27 106v121q0 117 59 173q61 56 194 56zM337 475 q-94 0 -135 -38t-41 -121v-85q0 -77 41 -114q44 -39 144 -37q92 2 127 37q41 38 41 114v85q0 86 -41 122q-40 37 -136 37z" />
<glyph unicode="&#x646;" horiz-adv-x="782" arabic-form="final" d="M364 508h-95v80h95v-80zM621 548v-409q32 -59 168 -59h13v-80h-16q-88 0 -139 22q-8 3 -26 13v-96q0 -107 -91 -172q-81 -58 -200 -66q-117 -6 -200 42q-90 53 -90 148v420h77v-416q0 -58 67 -92q60 -31 144 -26q89 6 146 47q65 46 65 128v596h82z" />
<glyph unicode="&#x646;" horiz-adv-x="296" arabic-form="initial" d="M250 654h-95v80h95v-80zM249 548v-363q0 -102 -86 -151q-61 -34 -177 -34h-6v80h14q178 0 178 105v363h77z" />
<glyph unicode="&#x646;" horiz-adv-x="422" arabic-form="medial" d="M250 654h-95v80h95v-80zM249 548v-363q0 -105 179 -105h14v-80h-8q-92 0 -147 22q-48 20 -76 54q-28 -34 -76 -54q-55 -22 -148 -22h-7v80h14q178 0 178 105v363h77z" />
<glyph unicode="&#x647;" horiz-adv-x="596" arabic-form="final" d="M299 551q112 0 163 -39q33 -25 50 -120l45 -255q3 -18 10 -38q8 -20 48 -19v-80h-38q-51 0 -73 25q-17 18 -23 51l-49 289q-10 59 -36 85q-29 29 -88 29q-89 0 -130 -26q-54 -34 -54 -125v-115q0 -73 32 -103q33 -30 119 -30h184v-80h-197q-79 0 -115 13q-36 12 -67 47 q-24 29 -31 57q-8 30 -8 91l-1 125q-2 126 69 177q57 41 190 41z" />
<glyph unicode="&#x647;" horiz-adv-x="776" arabic-form="initial" d="M76 521l446 -87q108 -21 163 -88q50 -62 50 -149q0 -57 -18 -97q-14 -35 -50 -61q-55 -39 -145 -39h-542v80h157q-31 34 -31 104v77q0 86 43 126q18 16 47 27l-126 23zM292 373q-69 0 -98 -28q-29 -29 -29 -88v-61q0 -56 29 -83q33 -29 104 -27q62 0 91 26q30 27 30 84 v61q0 62 -30 89t-97 27zM513 357l-65 11q30 -38 30 -107v-70q0 -71 -30 -111h65q71 0 111 35q37 34 37 91t-37 97q-39 42 -111 54z" />
<glyph unicode="&#x647;" horiz-adv-x="837" arabic-form="medial" d="M76 521l446 -87q108 -21 163 -88q50 -62 50 -149q0 -57 -18 -97q45 -20 126 -20h14v-80h-7q-96 0 -150 21q-16 7 -33 18q-55 -39 -145 -39h-542v80h157q-31 34 -31 104v77q0 86 43 126q18 16 47 27l-126 23zM292 373q-69 0 -98 -28q-29 -29 -29 -88v-61q0 -56 29 -83 q33 -29 104 -27q62 0 91 26q30 27 30 84v61q0 62 -30 89t-97 27zM513 357l-65 11q30 -38 30 -107v-70q0 -71 -30 -111h65q71 0 111 35q37 34 37 91t-37 97q-39 42 -111 54z" />
<glyph unicode="&#x648;" horiz-adv-x="665" arabic-form="final" d="M685 0h-164v-83q0 -118 -67 -169q-62 -47 -198 -47l-21 71q7 -1 19 -1h20q82 0 125 40t43 114v75h-184q-110 0 -156 40q-62 54 -62 146q0 364 262 364h219v-470h164v-80zM442 475h-111q-73 0 -107 -21q-105 -68 -105 -254q0 -58 45 -93q33 -27 106 -27h172v395z" />
<glyph unicode="&#x649;" horiz-adv-x="1428" arabic-form="final" d="M263 251v-82q-73 0 -107 -34q-35 -35 -44 -115q-2 -16 -2 -20v-19q0 -114 41 -158q40 -43 113 -43h775q135 0 147 83l6 41q0 58 -34 80q-23 16 -105 16h-388v80h783v-80h-192q19 -35 19 -89q0 -25 -5 -51q-28 -159 -219 -159h-795q-117 0 -169 67q-47 62 -47 231 q0 123 50 188q51 64 143 64h30z" />
<glyph unicode="&#x64a;" horiz-adv-x="1428" arabic-form="final" d="M263 251v-82q-73 0 -107 -34q-35 -35 -44 -115q-2 -16 -2 -20v-19q0 -114 41 -158q40 -43 113 -43h775q135 0 147 83l6 41q0 58 -34 80q-23 16 -105 16h-388v80h783v-80h-192q19 -35 19 -89q0 -25 -5 -51q-28 -159 -219 -159h-795q-117 0 -169 67q-47 62 -47 231 q0 123 50 188q51 64 143 64h30zM630 -468h-95v80h95v-80zM772 -468h-95v80h95v-80z" />
<glyph unicode="&#x64a;" horiz-adv-x="302" arabic-form="initial" d="M249 545v-361q0 -91 -65.5 -137.5t-187.5 -46.5h-16v80h14q178 0 178 104v361h77zM111 -181h-95v80h95v-80zM253 -181h-95v80h95v-80z" />
<glyph unicode="&#x64a;" horiz-adv-x="420" arabic-form="medial" d="M249 545v-361q0 -104 177 -104h14v-80h-16q-86 0 -139 21q-46 20 -75 55q-29 -35 -75 -55q-53 -21 -139 -21h-16v80h14q178 0 178 104v361h77zM187 -181h-95v80h95v-80zM329 -181h-95v80h95v-80z" />
<glyph unicode="&#xd;" horiz-adv-x="500" />
<glyph unicode=" "  horiz-adv-x="226" />
<glyph unicode="&#x09;" horiz-adv-x="226" />
<glyph unicode="&#xa0;" horiz-adv-x="226" />
<glyph unicode="!" horiz-adv-x="277" d="M182 395l-8 -181h-69l-10 181v310h87v-310zM128 120h22q18 0 25.5 -7t7.5 -26v-55q0 -18 -7.5 -25t-25.5 -7h-22q-17 0 -24.5 7t-7.5 25v55q0 19 7 26t25 7z" />
<glyph unicode="&#x22;" horiz-adv-x="358" d="M136 482h-60l-5 218h71zM282 482h-59l-6 218h70z" />
<glyph unicode="#" horiz-adv-x="695" d="M537 511h113l-12 -56h-110l-33 -183h112l-11 -56h-110l-37 -216h-69l37 216h-186l-37 -216h-69l37 216h-117l11 56h116l32 183h-117l11 56h115l34 189h69l-34 -189h186l33 189h69zM273 455l-32 -183h185l33 183h-186z" />
<glyph unicode="$" horiz-adv-x="572" d="M350 811l-7 -101q85 -3 150 -18l-6 -65q-81 4 -150 5l-17 -241l59 -15q78 -20 110 -67t32 -130q0 -60 -13 -98t-44 -58.5t-72 -27.5t-107 -7h-2l-9 -117h-47l9 118q-91 4 -168 18l6 68q32 -1 70 -2t60 -1.5t40 -0.5l18 246l-65 16q-75 18 -107 65.5t-32 129.5 q0 49 9.5 82t25.5 53.5t45.5 31.5t62.5 14.5t84 3.5h12l7 98h46zM291 632h-2q-36 0 -54 -1t-38.5 -6.5t-29 -17t-14 -31t-5.5 -50.5q0 -56 20 -79.5t70 -35.5l36 -9zM308 304l-19 -233q83 0 111.5 21t28.5 89q0 58 -19 80.5t-69 34.5z" />
<glyph unicode="%" horiz-adv-x="907" d="M210 714q91 0 127.5 -47.5t36.5 -161.5q0 -112 -37 -160t-127 -48t-126 48t-36 160q0 114 36 161.5t126 47.5zM256 0h-61l454 700h60zM210 659q-54 0 -75 -34t-21 -120q0 -85 21 -119t75 -34q55 0 76 33.5t21 119.5t-21 120t-76 34zM696 406q90 0 126.5 -47.5 t36.5 -159.5q0 -113 -36.5 -160.5t-126.5 -47.5q-89 0 -125.5 47.5t-36.5 160.5q0 112 36.5 159.5t125.5 47.5zM695 351q-55 0 -75 -33t-20 -119q0 -87 20 -120.5t75 -33.5t76.5 33.5t21.5 120.5q0 86 -21.5 119t-76.5 33z" />
<glyph unicode="&#x26;" horiz-adv-x="784" d="M353 710q94 0 162 -10l-11 -66q-40 3 -154 3q-101 0 -136 -22.5t-35 -97.5q0 -71 29 -95.5t107 -24.5h190l9 130h72v-130h127v-68h-127v-196q0 -36 15 -51t50 -15h75l10 -63q-46 -13 -108 -13q-105 0 -122 87q-44 -48 -98 -68t-135 -20q-112 0 -158.5 41.5t-46.5 146.5 q0 84 32 130.5t105 52.5v4q-62 7 -89.5 46.5t-27.5 117.5q0 48 10.5 81t28.5 53t53 30t73.5 13.5t99.5 3.5zM504 329h-193q-84 0 -117 -29t-33 -108q0 -72 28.5 -99t103.5 -26q134 0 211 80v182z" />
<glyph unicode="'" horiz-adv-x="212" d="M136 482h-60l-5 218h71z" />
<glyph unicode="(" horiz-adv-x="364" d="M322 802l11 -42q-101 -49 -147.5 -158t-46.5 -284q0 -173 46.5 -282.5t147.5 -161.5l-11 -41q-138 53 -202.5 170.5t-64.5 313.5q0 197 64.5 315t202.5 170z" />
<glyph unicode=")" horiz-adv-x="364" d="M32 760l11 42q138 -53 203 -170.5t65 -314.5q0 -196 -65 -313.5t-203 -170.5l-11 41q100 52 146.5 161.5t46.5 282.5q0 175 -46.5 284t-146.5 158z" />
<glyph unicode="*" horiz-adv-x="457" d="M247 538l101 -131l-41 -30l-79 124l-78 -123l-42 30l101 130l-7 163h53zM192 563v-22l-11 -14l-126 33l17 50zM403 559l-127 -32l-12 14v22l122 47z" />
<glyph unicode="+" horiz-adv-x="559" d="M313 336h188v-65h-189v-180h-66v180h-189v65h189v179h67v-179z" />
<glyph unicode="," horiz-adv-x="231" d="M104 120h25q18 0 24.5 -7t6.5 -26v-65q0 -83 -35 -156l-41 12q10 60 10 122q-24 0 -24 28v59q0 33 34 33z" />
<glyph unicode="-" horiz-adv-x="456" d="M383 223h-310v66h310v-66z" />
<glyph unicode="." horiz-adv-x="232" d="M101 120h29q18 0 25 -7t7 -26v-55q0 -18 -7 -25t-25 -7h-29q-17 0 -24.5 7t-7.5 25v55q0 19 7.5 26t24.5 7z" />
<glyph unicode="/" horiz-adv-x="525" d="M98 -67h-71l399 767h71z" />
<glyph unicode="0" horiz-adv-x="612" d="M306 714q133 0 187 -84.5t54 -279.5t-54 -279t-187 -84t-187 84t-54 279t54 279.5t187 84.5zM306 635q-87 0 -120.5 -64t-33.5 -221t33.5 -221t120.5 -64q86 0 120 64t34 221t-34 221t-120 64z" />
<glyph unicode="1" horiz-adv-x="404" d="M290 0h-89v555q0 36 5 61l-171 -54l-13 66l179 72h89v-700z" />
<glyph unicode="2" horiz-adv-x="570" d="M275 713q110 0 162.5 -31.5t52.5 -120.5q0 -66 -27.5 -121.5t-97.5 -132.5l-201 -225q48 4 114 4h238v-86h-460v56q0 24 13 38l203 230q68 77 98.5 131t29.5 102q-2 47 -32.5 61.5t-98.5 14.5q-102 0 -201 -16l-6 69q117 27 213 27z" />
<glyph unicode="3" horiz-adv-x="564" d="M262 714q117 0 166.5 -36t49.5 -127q0 -156 -102 -176v-5q65 -11 92 -54.5t29 -120.5q2 -109 -49 -158.5t-173 -49.5q-94 0 -222 18l6 72q115 -10 194 -10q85 0 120.5 30.5t35.5 106.5q0 64 -29 96.5t-110 32.5h-130v70h130q40 0 66 10t38 30t15.5 40t3.5 48 q-1 64 -30.5 83.5t-112.5 19.5q-84 0 -178 -8l-7 69q109 19 197 19z" />
<glyph unicode="4" horiz-adv-x="624" d="M335 700l-196 -414q-9 -20 -1 -30.5t26 -10.5h241v206l15 115h69v-321h91v-64l-91 -9v-172h-84v172h-290q-43 0 -64.5 34.5t-2.5 73.5l199 420h88z" />
<glyph unicode="5" horiz-adv-x="544" d="M463 624h-295l-10 -191l75 -6q141 -11 198 -58.5t56 -158.5q0 -47 -9 -83t-31.5 -69.5t-69.5 -51.5t-116 -18q-98 0 -208 25l10 72q103 -18 178 -18q94 0 125.5 33.5t33.5 109.5q0 22 -2.5 39t-6 30.5t-13.5 24t-18 18t-26 12.5t-31.5 8.5t-40.5 6.5t-46.5 4.5t-55.5 3.5 l-46 3q-16 1 -25.5 12.5t-8.5 27.5l16 300h371z" />
<glyph unicode="6" horiz-adv-x="581" d="M339 713q84 0 141 -16l-8 -65q-45 4 -133 4q-52 0 -83 -9t-54 -36t-33.5 -76t-12.5 -131q37 41 77 57t100 16q109 0 150.5 -51t41.5 -180q0 -59 -8.5 -99t-31.5 -73.5t-68 -49.5t-114 -16q-145 0 -190.5 70.5t-45.5 274.5q0 98 11 166t31 110t55 65t75 31t100 8zM310 385 q-44 0 -78 -14t-77 -51q0 -65 2.5 -102.5t10.5 -71.5t25 -49.5t43.5 -24t67.5 -8.5q84 0 109.5 37.5t25.5 124.5q0 89 -27 124t-102 35z" />
<glyph unicode="7" horiz-adv-x="520" d="M40 700h395q32 0 44.5 -16.5t2.5 -45.5l-218 -638h-89l196 572q11 30 22 52h-349z" />
<glyph unicode="8" horiz-adv-x="616" d="M309 710q129 0 175.5 -42t46.5 -142q0 -148 -100 -161v-4q64 -6 89.5 -52.5t25.5 -133.5q0 -100 -49.5 -142t-187.5 -43t-188.5 42t-50.5 143q0 87 26 133.5t90 52.5v4q-101 13 -101 161q0 100 47.5 142t176.5 42zM310 638q-85 0 -114 -25t-29 -95q0 -73 28.5 -96 t115.5 -23q86 0 112.5 23.5t26.5 95.5q0 70 -28 95t-112 25zM311 328q-95 -1 -126 -27.5t-31 -107.5q0 -72 32 -99t124 -27q90 0 120.5 26.5t30.5 99.5q0 82 -29 108.5t-121 26.5z" />
<glyph unicode="9" horiz-adv-x="581" d="M280 713q62 0 102.5 -12t66.5 -34.5t39.5 -68t18 -99t4.5 -141.5q0 -94 -10 -158.5t-29 -106.5t-53.5 -65t-75.5 -31.5t-103 -8.5q-89 0 -152 15l8 66q49 -4 144 -4q70 0 107 20.5t55.5 75t21.5 159.5q-37 -43 -77 -59.5t-101 -16.5q-190 0 -190 228q0 124 51 182.5 t173 58.5zM279 636q-82 0 -110 -39t-28 -125q0 -81 28 -119t100 -38q44 0 78 14.5t77 52.5q0 66 -2.5 103t-10 71t-23.5 48.5t-42 23t-67 8.5z" />
<glyph unicode=":" horiz-adv-x="240" d="M103 447h28q17 0 24.5 -7.5t7.5 -24.5v-56q0 -18 -7.5 -25t-24.5 -7h-28q-18 0 -25.5 7t-7.5 25v56q0 17 7.5 24.5t25.5 7.5zM103 120h28q17 0 24.5 -7t7.5 -26v-55q0 -18 -7.5 -25t-24.5 -7h-28q-18 0 -25.5 7t-7.5 25v55q0 19 7.5 26t25.5 7z" />
<glyph unicode=";" horiz-adv-x="241" d="M107 447h29q17 0 24 -7.5t7 -24.5v-56q0 -18 -7 -25t-24 -7h-29q-18 0 -25 7t-7 25v56q0 17 7 24.5t25 7.5zM109 120h25q18 0 24.5 -7t6.5 -26v-65q0 -82 -34 -156l-42 12q10 60 10 122q-24 0 -24 28v59q0 33 34 33z" />
<glyph unicode="&#x3c;" horiz-adv-x="538" d="M466 445l-337 -143l337 -139v-69l-412 174v69l412 177v-69z" />
<glyph unicode="=" horiz-adv-x="594" d="M520 373h-445v63h445v-63zM520 157h-445v65h445v-65z" />
<glyph unicode="&#x3e;" horiz-adv-x="538" d="M484 337v-69l-412 -174v69l337 139l-337 143v69z" />
<glyph unicode="?" horiz-adv-x="513" d="M264 723q205 0 205 -158q0 -42 -18.5 -77t-45 -62t-53.5 -55t-46.5 -68.5t-21.5 -88.5h-74q-1 52 16 95.5t41.5 72.5t49 54.5t42.5 54.5t19 59q2 51 -30 75.5t-102 24.5q-93 0 -200 -11l-5 62q6 1 27.5 5t27 5t23.5 4t29 3.5t30 2t40 2t46 0.5zM235 120h24q17 0 24 -7 t7 -26v-55q0 -18 -7 -25t-24 -7h-24q-17 0 -24 7t-7 25v55q0 19 7 26t24 7z" />
<glyph unicode="@" horiz-adv-x="729" d="M357 594h145q76 0 115 -34t39 -110v-316h-65l-8 76q-32 -32 -88 -58t-114 -26q-62 0 -97.5 31t-35.5 90v51q0 50 29.5 77.5t86.5 27.5h210v44q0 41 -19 58t-68 17h-130q-50 0 -76 -1.5t-52.5 -10.5t-37 -23t-20 -45t-11.5 -69.5t-2 -102.5q0 -67 2 -106t13 -70.5 t22.5 -45t43.5 -23t61.5 -10.5t90.5 -1h262v-65q-139 -8 -261 -8q-76 -1 -122.5 2.5t-85 17.5t-57.5 33.5t-32 60.5t-16 88.5t-3 126.5q0 77 3 123.5t14.5 86.5t28 59t51 33.5t76 18t108.5 3.5zM574 350l-180 -4q-36 -1 -50.5 -14.5t-14.5 -43.5v-26q0 -36 16.5 -51.5 t50.5 -15.5q45 0 95 18t83 49v88z" />
<glyph unicode="A" horiz-adv-x="631" d="M269 700h93q26 0 34 -24l225 -676h-92l-69 219h-288l-69 -219h-93l225 676q10 24 34 24zM301 631l-17 -57l-88 -278h239l-88 278q-10 31 -17 57h-29z" />
<glyph unicode="B" horiz-adv-x="629" d="M316 708q131 0 182 -38t51 -144q0 -77 -28 -115.5t-91 -45.5v-4q76 -7 108 -53t32 -133q0 -106 -50 -144.5t-173 -38.5q-169 0 -259 8v700q80 8 228 8zM312 632h-136v-235h150q77 0 107 24.5t30 94.5q0 69 -32.5 92.5t-118.5 23.5zM176 329v-260q41 -1 157 -1 q85 0 116 24.5t31 97.5q0 80 -33 109.5t-120 29.5h-151z" />
<glyph unicode="C" horiz-adv-x="579" d="M337 713q104 0 191 -21l-9 -68q-91 9 -182 9q-103 0 -142 -61.5t-39 -221.5t39 -221.5t142 -61.5q118 0 196 11l9 -67q-85 -23 -205 -23q-152 0 -213.5 81t-61.5 281t61.5 281.5t213.5 81.5z" />
<glyph unicode="D" horiz-adv-x="674" d="M338 709q152 0 212.5 -78.5t60.5 -280.5t-60.5 -280.5t-212.5 -78.5q-119 0 -250 9v700q131 9 250 9zM338 632q-66 0 -160 -2v-559q90 -2 160 -2q101 0 140.5 61.5t39.5 219.5q0 159 -39.5 220.5t-140.5 61.5z" />
<glyph unicode="E" horiz-adv-x="568" d="M217 701q207 0 301 -6l-4 -70h-282q-60 0 -60 -67v-152h302v-72h-302v-192q0 -36 14.5 -52t45.5 -16h282l4 -69q-94 -6 -301 -6q-62 0 -98.5 33t-36.5 89v459q0 56 36.5 88.5t98.5 32.5z" />
<glyph unicode="F" horiz-adv-x="547" d="M221 701q200 0 291 -7l-6 -69h-262q-36 0 -52 -16t-16 -51v-162h292v-72h-292v-324h-90v576q0 59 36.5 92t98.5 33z" />
<glyph unicode="G" horiz-adv-x="637" d="M355 714q107 0 195 -22l-9 -67q-85 8 -181 8q-80 0 -121 -20.5t-61.5 -82.5t-20.5 -184q0 -155 34 -218t118 -63q49 0 88 17.5t84 50.5v272h87v-405h-65l-10 74q-87 -87 -209 -87q-117 0 -169 87.5t-52 277.5q0 206 64 284t228 78z" />
<glyph unicode="H" horiz-adv-x="678" d="M590 0h-90v336h-322v-336h-90v700h90v-287h322v287h90v-700z" />
<glyph unicode="I" horiz-adv-x="266" d="M178 0h-90v700h90v-700z" />
<glyph unicode="J" horiz-adv-x="345" d="M260 700v-553q0 -76 -35 -116t-101 -40q-57 0 -94 13l11 63h50q80 0 80 77v556h89z" />
<glyph unicode="K" horiz-adv-x="600" d="M566 700l-204 -290q-11 -16 -38 -45v-2q28 -27 43 -48l214 -315h-101l-223 329h-86q6 -39 6 -74v-255h-89v700h89v-219q0 -41 -6 -80h85l213 299h97z" />
<glyph unicode="L" horiz-adv-x="522" d="M175 700v-558q0 -35 16.5 -51t51.5 -16h252l4 -69q-88 -7 -271 -7q-74 0 -108 35.5t-34 96.5v569h89z" />
<glyph unicode="M" horiz-adv-x="890" d="M650 700h100q35 0 37 -37l29 -663h-89l-26 626h-21l-156 -516q-9 -31 -39 -31h-80q-32 0 -41 31l-156 516h-20l-25 -626h-89l27 663q3 37 38 37h102q28 0 37 -30l131 -427q1 -2 26 -95h19q3 9 11.5 43t14.5 54l131 425q9 30 39 30z" />
<glyph unicode="N" horiz-adv-x="716" d="M627 700v-664q0 -36 -34 -36h-88q-26 0 -39 28l-237 497q-33 72 -39 92h-16q4 -40 4 -92v-525h-90v665q0 35 36 35h84q27 0 40 -28l229 -484q5 -11 22.5 -46.5t25.5 -55.5h17q-3 56 -3 107v507h88z" />
<glyph unicode="O" horiz-adv-x="678" d="M339 714q154 0 215 -79.5t61 -284.5q0 -204 -61 -283.5t-215 -79.5t-215.5 79.5t-61.5 283.5t61.5 284t215.5 80zM339 633q-104 0 -143.5 -61.5t-39.5 -221.5t39.5 -221.5t143.5 -61.5t143.5 61.5t39.5 221.5t-39.5 221.5t-143.5 61.5z" />
<glyph unicode="P" horiz-adv-x="599" d="M329 709q128 0 176.5 -46t48.5 -173t-47 -173t-168 -46q-84 0 -161 9v-280h-90v700q86 9 241 9zM328 632q-111 0 -150 -1v-283h150q77 0 106.5 29.5t29.5 112.5t-29.5 112.5t-106.5 29.5z" />
<glyph unicode="Q" horiz-adv-x="679" d="M340 714q154 0 215 -79.5t61 -284.5q0 -204 -61 -283.5t-215 -79.5q-155 0 -216 79.5t-61 283.5q0 205 61.5 284.5t215.5 79.5zM340 633q-104 0 -143.5 -61.5t-39.5 -221.5t39.5 -221.5t143.5 -61.5q103 0 143 61.5t40 221.5t-40 221.5t-143 61.5zM273 -97l25 53 q111 -47 269 -71l-28 -89q-132 26 -266 107z" />
<glyph unicode="R" horiz-adv-x="627" d="M330 709q125 0 175.5 -43t50.5 -159q0 -86 -30 -128.5t-99 -51.5v-5q59 -15 87 -101l68 -221h-96l-62 219q-20 73 -93 73q-36 0 -87 0.5t-67 0.5v-293h-89v700q86 9 242 9zM328 632q-112 0 -151 -1v-262h151q78 0 108 28t30 105q0 76 -29.5 103t-108.5 27z" />
<glyph unicode="S" horiz-adv-x="569" d="M283 713q110 0 208 -21l-6 -65q-98 5 -198 5q-36 0 -54 -1t-38.5 -6.5t-29 -17t-14 -31t-5.5 -50.5q0 -55 20 -79t68 -36l143 -35q78 -20 109.5 -66.5t31.5 -130.5q0 -116 -52 -153.5t-183 -37.5q-111 0 -217 19l6 66q149 -5 214 -5q84 1 112.5 22t28.5 91 q0 58 -19.5 80.5t-68.5 34.5l-145 37q-75 18 -106.5 65t-31.5 130q0 61 12.5 98t43.5 56t69 25t102 6z" />
<glyph unicode="T" horiz-adv-x="590" d="M565 621h-226v-621h-89v621h-226v79h541v-79z" />
<glyph unicode="U" horiz-adv-x="676" d="M593 700v-432q0 -153 -57 -217t-194 -64q-142 0 -200.5 64t-58.5 217v432h90v-432q0 -112 36.5 -156.5t128.5 -44.5t128.5 44.5t36.5 156.5v432h90z" />
<glyph unicode="V" horiz-adv-x="618" d="M601 700l-212 -675q-3 -11 -13 -18t-22 -7h-90q-28 0 -35 25l-212 675h93l165 -555q12 -44 20 -76h28q3 14 21 77l165 554h92z" />
<glyph unicode="W" horiz-adv-x="962" d="M931 700l-142 -674q-2 -11 -12.5 -18.5t-23.5 -7.5h-101q-30 0 -35 27l-110 527q-3 15 -8.5 41.5t-7.5 37.5h-21l-15 -79l-109 -527q-2 -12 -12 -19.5t-23 -7.5h-103q-13 0 -22.5 7.5t-11.5 18.5l-143 674h95l109 -546q4 -16 15 -86h23q8 51 16 86l109 517q7 29 34 29h98 q27 0 34 -29l109 -517q10 -48 14 -86h26q9 65 13 85l110 547h95z" />
<glyph unicode="X" horiz-adv-x="620" d="M397 362l198 -362h-98l-174 329h-27l-173 -329h-98l197 362l-183 338h96l160 -302h30l160 302h97z" />
<glyph unicode="Y" horiz-adv-x="578" d="M333 246v-246h-89v247l-233 453h96l147 -295q10 -21 31 -79h7q18 50 32 78l147 296h94z" />
<glyph unicode="Z" horiz-adv-x="574" d="M520 624l-372 -548h379v-76h-478v76l373 548h-367v76h465v-76z" />
<glyph unicode="[" horiz-adv-x="334" d="M292 723h-103q-14 0 -14 -17v-800q0 -17 14 -17h103v-56h-145q-55 0 -55 54v838q0 24 16 39.5t39 15.5h145v-57z" />
<glyph unicode="\" horiz-adv-x="526" d="M498 -67h-72l-399 767h72z" />
<glyph unicode="]" horiz-adv-x="334" d="M42 780h144q24 0 39.5 -15.5t15.5 -39.5v-838q0 -24 -15.5 -39t-39.5 -15h-144v56h102q15 0 15 17v800q0 17 -15 17h-102v57z" />
<glyph unicode="^" horiz-adv-x="432" d="M402 396l-35 -22l-146 176h-8l-147 -176l-36 22l156 213h62z" />
<glyph unicode="_" horiz-adv-x="587" d="M516 -66h-445v66h445v-66z" />
<glyph unicode="a" horiz-adv-x="557" d="M313 506q86 0 127.5 -35.5t41.5 -122.5v-348h-68l-10 81q-36 -36 -89.5 -63t-114.5 -27q-67 0 -107.5 36t-40.5 102v54q0 58 36 89.5t101 31.5h206v44q0 47 -21.5 66t-79.5 19q-73 0 -212 -13l-8 64q136 22 239 22zM395 239h-191q-64 0 -64 -68v-32q0 -39 18 -56t59 -18 q40 0 89 19t89 55v100z" />
<glyph unicode="b" horiz-adv-x="579" d="M163 710v-184q0 -71 -9 -110q88 90 191 90q93 0 136 -60t43 -197q0 -134 -48.5 -197.5t-171.5 -63.5q-127 0 -227 35v687h86zM315 431q-36 0 -69 -17.5t-83 -55.5v-280q69 -19 139 -17q73 1 102.5 42.5t29.5 145.5t-24.5 143t-94.5 39z" />
<glyph unicode="c" horiz-adv-x="496" d="M290 506q97 0 160 -23l-12 -56q-66 6 -134 6q-89 0 -123.5 -39t-34.5 -146t34.5 -147t123.5 -40q82 0 146 10l9 -58q-74 -25 -170 -25q-128 0 -181 58.5t-53 201.5q0 142 53 200t182 58z" />
<glyph unicode="d" horiz-adv-x="582" d="M501 0h-67l-8 71q-92 -83 -196 -83q-91 0 -132 64.5t-41 196.5q0 141 44.5 199t142.5 58q95 0 175 -45q-4 44 -4 97v152h86v-710zM264 431q-66 0 -92.5 -37.5t-26.5 -143.5q0 -107 26 -147t88 -40q39 0 70.5 14.5t85.5 53.5v273q-98 27 -151 27z" />
<glyph unicode="e" horiz-adv-x="545" d="M282 506q110 0 160.5 -39.5t51.5 -121.5q0 -140 -117 -140h-231q6 -85 41 -114.5t115 -29.5q85 0 172 12l9 -58q-67 -27 -192 -27q-128 0 -182 59.5t-54 201.5q0 143 52.5 200t174.5 57zM286 433q-78 0 -108.5 -34t-32.5 -127h209q54 0 54 73q-1 48 -28.5 68t-93.5 20z " />
<glyph unicode="f" horiz-adv-x="386" d="M262 728q84 0 139 -7l-7 -64h-102q-48 0 -68 -19.5t-20 -64.5v-79h158v-68h-158v-426h-86v426h-90v63l90 4v90q0 72 33.5 108.5t110.5 36.5z" />
<glyph unicode="g" horiz-adv-x="566" d="M275 506q70 0 115 -12h154l-5 -47l-73 -6q20 -34 20 -92q0 -83 -48 -120t-164 -37q-57 0 -102 10q-20 -23 -12 -51t46 -34l185 -30q68 -11 96.5 -43.5t28.5 -95.5q0 -86 -51.5 -119.5t-184.5 -33.5q-134 0 -186 33t-52 117q0 44 18 70.5t62 49.5q-38 30 -35 78.5t39 75.5 q-63 34 -63 129q0 85 47 121.5t165 36.5zM274 441q-73 0 -102.5 -21t-29.5 -71q0 -49 29.5 -70t102.5 -21q74 0 103 20.5t29 70.5t-29 71t-103 21zM346 23l-168 24q-28 -22 -40 -43t-12 -52q0 -52 30.5 -68t122.5 -16q91 0 121.5 16.5t30.5 67.5q0 37 -16 50t-69 21z" />
<glyph unicode="h" horiz-adv-x="590" d="M166 710v-195q0 -57 -6 -97q118 88 220 88q134 0 134 -136v-370h-88v346q0 49 -15.5 68t-54.5 19q-41 0 -83 -18t-108 -59v-356h-86v710h87z" />
<glyph unicode="i" horiz-adv-x="252" d="M106 704h40q27 0 27 -26v-58q0 -26 -27 -26h-40q-27 0 -27 26v58q0 26 27 26zM168 0h-85v494h85v-494z" />
<glyph unicode="j" horiz-adv-x="254" d="M108 704h40q26 0 26 -26v-58q0 -26 -26 -26h-40q-27 0 -27 26v58q0 26 27 26zM171 494v-506q0 -59 -25.5 -110t-70.5 -84l-48 38q57 69 57 156v506h87z" />
<glyph unicode="k" horiz-adv-x="517" d="M166 710v-315q0 -50 -5 -84h65l157 183h100l-155 -181q-20 -24 -35 -34v-2q16 -13 35 -39l171 -238h-100l-172 248h-67q5 -47 5 -80v-168h-86v710h87z" />
<glyph unicode="l" horiz-adv-x="301" d="M166 710v-574q0 -66 67 -66h48l10 -66q-27 -13 -90 -13q-56 0 -88.5 33t-32.5 93v593h86z" />
<glyph unicode="m" horiz-adv-x="889" d="M681 506q64 0 98 -34.5t34 -101.5v-370h-85v346q0 46 -18.5 66.5t-58.5 20.5q-36 0 -69.5 -16.5t-93.5 -60.5v-356h-83v346q0 47 -18.5 67t-58.5 20q-36 0 -68.5 -16t-94.5 -60v-357h-86v494h71l5 -78q104 90 202 90q104 0 125 -87q100 87 199 87z" />
<glyph unicode="n" horiz-adv-x="590" d="M380 506q134 0 134 -136v-370h-87v346q0 49 -16 68t-55 19q-41 0 -81.5 -18t-109.5 -60v-355h-86v494h73l6 -78q118 90 222 90z" />
<glyph unicode="o" horiz-adv-x="577" d="M288 506q128 0 180.5 -59t52.5 -200q0 -143 -52.5 -201.5t-180.5 -58.5q-127 0 -179.5 59t-52.5 201q0 141 52.5 200t179.5 59zM288 433q-81 0 -111.5 -39.5t-30.5 -146.5t30.5 -147t111.5 -40t112 40t31 147t-30.5 146.5t-112.5 39.5z" />
<glyph unicode="p" horiz-adv-x="589" d="M362 506q89 0 129.5 -65t40.5 -196q0 -140 -44.5 -198.5t-142.5 -58.5t-183 51q3 -35 3 -100v-143h-86v698h71l7 -79q40 42 95.5 66.5t109.5 24.5zM334 431q-39 0 -77 -18t-92 -58v-262q103 -30 159 -30q67 0 93.5 38t26.5 144q0 103 -25.5 144.5t-84.5 41.5z" />
<glyph unicode="q" horiz-adv-x="579" d="M278 506q121 0 223 -34v-676h-87v169q0 65 8 102q-96 -80 -197 -80q-86 0 -127.5 62.5t-41.5 196.5t49 197t173 63zM277 433q-75 -2 -104 -42t-29 -151q0 -95 23.5 -136t86.5 -41q41 0 75.5 15.5t85.5 51.5v286q-69 19 -138 17z" />
<glyph unicode="r" horiz-adv-x="407" d="M379 425h-29q-38 0 -78 -14.5t-107 -48.5v-362h-86v494h67l9 -78q114 90 211 90h23z" />
<glyph unicode="s" horiz-adv-x="516" d="M244 506q119 -2 208 -15l-7 -63q-155 5 -188 5q-75 1 -98.5 -9t-23.5 -54q0 -35 15.5 -48t56.5 -23l144 -32q60 -13 87.5 -44t27.5 -92q0 -87 -47.5 -114.5t-163.5 -27.5q-104 0 -194 14l6 63q65 -4 171 -4q86 1 115.5 13.5t29.5 55.5q0 34 -18 46.5t-61 22.5l-142 32 q-60 14 -85.5 45.5t-25.5 92.5q0 83 43.5 110.5t149.5 25.5z" />
<glyph unicode="t" horiz-adv-x="387" d="M203 494h157v-68h-157v-290q0 -36 15 -51t52 -15h75l10 -66q-46 -13 -111 -13q-63 0 -95 34.5t-32 99.5v301h-90v63l90 4v147h86v-146z" />
<glyph unicode="u" horiz-adv-x="579" d="M499 0h-69l-6 71q-111 -84 -213 -84q-135 0 -135 136v371h86v-347q0 -47 18 -66t61 -19q37 0 75.5 16.5t96.5 54.5v361h86v-494z" />
<glyph unicode="v" horiz-adv-x="538" d="M519 494l-181 -473q-8 -21 -30 -21h-79q-22 0 -30 21l-181 473h93l121 -346q9 -22 30 -86h13l31 86l121 346h92z" />
<glyph unicode="w" horiz-adv-x="836" d="M811 494l-144 -470q-8 -24 -34 -24h-78q-26 0 -33 27l-81 336q0 1 -17 79h-12l-17 -79l-80 -336q-7 -27 -35 -27h-77q-25 0 -33 24l-145 470h90l102 -364q9 -29 16 -74h14l100 411q7 27 33 27h78q25 0 32 -28l81 -336q10 -35 18 -74h13q2 8 7.5 34t9.5 40l103 364h89z " />
<glyph unicode="x" horiz-adv-x="536" d="M347 255l166 -255h-94l-141 223h-20l-140 -223h-95l166 255l-153 239h93l128 -204h23l127 204h93z" />
<glyph unicode="y" horiz-adv-x="537" d="M518 494l-198 -521q-67 -175 -216 -182l-9 57q108 33 145 131l8 21h-20q-22 0 -30 22l-180 472h93l131 -368q14 -40 18 -60h14q6 15 21 60l129 368h94z" />
<glyph unicode="z" horiz-adv-x="518" d="M465 423l-319 -353h322v-70h-418v70l317 353h-314v71h412v-71z" />
<glyph unicode="{" horiz-adv-x="324" d="M280 780v-55q-52 0 -71.5 -19.5t-19.5 -67.5v-181q0 -63 -18.5 -88.5t-72.5 -35.5q56 -17 75.5 -42t19.5 -78v-240q0 -47 19.5 -66.5t71.5 -19.5v-54q-91 -7 -132.5 27t-41.5 108v259q0 19 -2.5 30.5t-13.5 20t-18 11.5t-29 12v63q24 8 30.5 10.5t16 11t11 21t1.5 36.5 v202q0 73 41.5 107.5t132.5 27.5z" />
<glyph unicode="|" horiz-adv-x="250" d="M156 -172h-63v965h63v-965z" />
<glyph unicode="}" horiz-adv-x="325" d="M45 725v55q91 7 132.5 -27.5t41.5 -107.5v-202q0 -32 6 -46t14.5 -18.5t38.5 -14.5v-63q-28 -10 -38 -15.5t-17.5 -19.5t-7.5 -39v-259q0 -74 -41.5 -108t-132.5 -27v54q52 0 71.5 19.5t19.5 66.5v240q0 53 19.5 78t74.5 42q-54 10 -72 35.5t-18 88.5v181 q0 48 -19.5 67.5t-71.5 19.5z" />
<glyph unicode="~" horiz-adv-x="533" d="M156 353q37 -2 108 -29.5t101 -30.5q26 -3 36 9.5t10 45.5h45q7 -59 -15.5 -90.5t-62.5 -29.5q-44 2 -114 29.5t-96 30.5t-35.5 -10t-9.5 -47h-45q-7 61 15.5 92.5t62.5 29.5z" />
<glyph unicode="&#xa1;" horiz-adv-x="260" d="M120 500h22q17 0 24.5 -7t7.5 -25v-56q0 -17 -7.5 -24t-24.5 -7h-22q-18 0 -25.5 7t-7.5 24v56q0 18 7.5 25t25.5 7zM174 106v-305h-87v305l8 180h69z" />
<glyph unicode="&#xa2;" horiz-adv-x="516" d="M350 700l-8 -88q62 -5 107 -22l-12 -58q-53 6 -102 8l-32 -373q71 0 146 12l9 -58q-76 -26 -162 -26l-9 -95h-45l9 96q-106 8 -151 67.5t-45 190.5q0 142 53 201t181 59h6l8 86h47zM258 171l30 369q-83 -3 -115.5 -43t-32.5 -143q0 -93 26.5 -134t91.5 -49z" />
<glyph unicode="&#xa3;" horiz-adv-x="578" d="M321 713q68 0 181 -11l-5 -71q-71 4 -178 4q-62 0 -85.5 -23t-19.5 -84l8 -134h215l-2 -51h-210l5 -76q4 -71 -12.5 -115t-60.5 -79q23 3 68 3h301v-76h-463v76q49 25 65.5 72.5t13.5 118.5l-4 76h-81v51h78l-8 135q-3 58 8 95.5t39 56.5t61.5 25.5t85.5 6.5z" />
<glyph unicode="&#xa4;" horiz-adv-x="603" d="M534 550l-74 -73q39 -51 39 -121q0 -66 -40 -120l75 -74l-39 -37l-74 73q-54 -41 -121 -41q-65 0 -119 41l-73 -73l-41 40l73 74q-39 52 -39 117q0 68 41 122l-72 72l38 39l72 -73q53 40 120 40q70 0 122 -41l73 74zM300 504q-60 0 -103 -43t-43 -104t43 -103.5 t103 -42.5t103 42.5t43 103.5t-43 104t-103 43z" />
<glyph unicode="&#xa5;" horiz-adv-x="627" d="M391 328h148v-53h-176l-5 -8v-54h181v-52h-181v-161h-89v161h-177v52h177v54l-4 8h-172l-1 53h144l-199 372h92l147 -279q7 -13 18.5 -41t16.5 -38h7q25 63 33 78l146 280h94z" />
<glyph unicode="&#xa6;" horiz-adv-x="252" d="M157 387h-63v406h63v-406zM157 -172h-63v406h63v-406z" />
<glyph unicode="&#xa7;" horiz-adv-x="552" d="M264 714q97 0 220 -13l-6 -67q-53 4 -192 5q-25 0 -38 -0.5t-30.5 -2t-26.5 -5t-18.5 -9.5t-13.5 -16t-4 -24q-1 -34 16 -54.5t51 -40.5l165 -92q70 -39 88.5 -98t-1.5 -141h-63q5 67 -9.5 105.5t-60.5 65.5l-176 100q-53 31 -77.5 65t-24.5 92q0 77 48.5 104t152.5 26z M79 394h63q-5 -68 9 -105t61 -64l176 -99q52 -30 77 -65t25 -93q0 -82 -48.5 -107.5t-151.5 -24.5q-92 0 -221 12l7 68q119 -7 193 -7q28 0 44 0.5t34 3.5t27.5 9.5t16 18.5t7.5 30q1 33 -16 54.5t-49 39.5l-165 91q-70 39 -89 97t0 141z" />
<glyph unicode="&#xa9;" horiz-adv-x="849" d="M424 714q154 0 259.5 -103.5t105.5 -260.5t-105.5 -260t-259.5 -103q-153 0 -258.5 103t-105.5 260t105.5 260.5t258.5 103.5zM424 667q-131 0 -223.5 -90.5t-92.5 -226.5t92.5 -226.5t223.5 -90.5q133 0 225 90.5t92 226.5t-92 226.5t-225 90.5zM429 577q77 0 137 -15 l-8 -48q-64 3 -130 3q-73 0 -101 -35.5t-28 -129.5q0 -93 28 -128.5t101 -35.5q93 0 142 6l7 -50q-63 -15 -148 -15q-109 0 -153.5 50t-44.5 173q0 124 44.5 174.5t153.5 50.5z" />
<glyph unicode="&#xaa;" horiz-adv-x="448" d="M258 616q58 0 87 -25t29 -85v-230h-52l-8 62q-70 -68 -150 -68q-45 0 -72 22.5t-27 65.5v39q0 38 24.5 60t69.5 22h150v28q0 54 -64 54q-52 0 -158 -8l-7 49q114 14 178 14zM309 442l-129 -9q-51 -3 -51 -42v-18q0 -26 13.5 -36.5t42.5 -10.5q61 0 124 50v66z" />
<glyph unicode="&#xab;" horiz-adv-x="492" d="M253 435l-128 -180l129 -185l-45 -30l-164 205v20l163 201zM437 435l-127 -180l128 -185l-45 -30l-164 205v20l163 201z" />
<glyph unicode="&#xac;" horiz-adv-x="599" d="M520 134h-67v135h-378v66h445v-201z" />
<glyph unicode="&#xad;" horiz-adv-x="455" d="M383 223h-310v66h310v-66z" />
<glyph unicode="&#xae;" horiz-adv-x="561" d="M281 713q94 0 159.5 -66t65.5 -160t-65.5 -160t-159.5 -66q-95 0 -160.5 65.5t-65.5 160.5q0 94 66 160t160 66zM281 683q-80 0 -137.5 -57.5t-57.5 -138.5t57.5 -138.5t137.5 -57.5t137 57.5t57 138.5t-57 138.5t-137 57.5zM290 622q57 0 81 -16.5t24 -59.5 q0 -31 -14 -46.5t-46 -19.5v-2q25 -3 40 -39l30 -83h-43l-28 81q-9 28 -43 28h-71v-109h-40v263q34 3 110 3zM220 590v-96h69q36 0 50 10.5t14 37.5q0 29 -13.5 38.5t-50.5 9.5h-69z" />
<glyph unicode="&#xb0;" horiz-adv-x="368" d="M185 714q53 0 92 -38t39 -91t-39 -91.5t-92 -38.5q-54 0 -93 38.5t-39 91.5t38.5 91t93.5 38zM185 661q-33 0 -55 -21.5t-22 -54.5t22.5 -55.5t54.5 -22.5q31 0 53.5 22.5t22.5 55.5q0 32 -22.5 54t-53.5 22z" />
<glyph unicode="&#xb1;" horiz-adv-x="597" d="M332 397h189v-65h-190v-136h-66v136h-189v65h189v135h67v-135zM521 71h-445v65h445v-65z" />
<glyph unicode="&#xb2;" horiz-adv-x="442" d="M209 793q81 0 116.5 -19.5t35.5 -77.5q0 -66 -83 -146l-129 -126q13 1 70 1h160v-60h-317v39q0 17 11 28l131 127q82 80 83 131q1 28 -18.5 36.5t-63.5 8.5q-68 0 -135 -8l-4 50q74 16 143 16z" />
<glyph unicode="&#xb3;" horiz-adv-x="423" d="M203 794q84 0 116.5 -21.5t32.5 -76.5q0 -95 -76 -106v-2q47 -6 66.5 -32.5t20.5 -73.5q2 -66 -33 -95.5t-119 -29.5q-62 0 -150 11l4 51q60 -5 130 -5q56 0 77.5 16.5t21.5 59.5q0 33 -18.5 51t-69.5 18h-86v51h86q50 0 65.5 19.5t15.5 50.5q-1 34 -20 45.5t-73 11.5 q-78 0 -121 -4l-4 50q72 11 134 11z" />
<glyph unicode="&#xb6;" horiz-adv-x="602" d="M351 713q88 0 153 -18v-695h-66v652q-70 4 -99 4v-869h-66v417q-124 11 -178 70t-54 183q0 140 71 198t239 58z" />
<glyph unicode="&#xb7;" horiz-adv-x="240" d="M106 322h28q17 0 24.5 -7.5t7.5 -25.5v-56q0 -17 -7.5 -24t-24.5 -7h-28q-18 0 -25.5 7t-7.5 24v56q0 18 7.5 25.5t25.5 7.5z" />
<glyph unicode="&#xb9;" horiz-adv-x="298" d="M221 365h-68v320q0 27 3 40l-112 -30l-9 47l118 44h68v-421z" />
<glyph unicode="&#xba;" horiz-adv-x="451" d="M225 616q92 0 129 -39t37 -135q0 -95 -37.5 -134.5t-128.5 -39.5t-128 39.5t-37 134.5q0 96 37 135t128 39zM225 562q-55 0 -76 -25.5t-21 -94.5t21 -94t76 -25t76 25t21 94t-21 94.5t-76 25.5z" />
<glyph unicode="&#xbb;" horiz-adv-x="492" d="M263 265v-20l-164 -205l-45 30l129 185l-128 180l45 31zM447 265v-20l-164 -205l-45 30l129 185l-128 180l45 31z" />
<glyph unicode="&#xbc;" horiz-adv-x="876" d="M224 280h-67v320q0 22 4 39l-114 -29l-8 47l118 43h67v-420zM201 0h-62l454 700h62zM677 420l-124 -245q-4 -10 1 -16.5t16 -6.5h151v119l12 69h52v-188h48v-47l-48 -6v-99h-64v98h-198q-27 0 -40 18t0 48l129 256h65z" />
<glyph unicode="&#xbd;" horiz-adv-x="900" d="M224 280h-67v320q0 22 4 39l-114 -29l-8 47l118 43h67v-420zM195 0h-63l455 700h62zM680 427q81 0 116.5 -19.5t35.5 -76.5q0 -66 -83 -146l-129 -126q13 1 70 1h160v-60h-316v39q0 18 10 28l131 127q84 82 84 131q1 28 -19 36t-64 8q-68 0 -134 -8l-4 51q75 15 142 15z " />
<glyph unicode="&#xbe;" horiz-adv-x="968" d="M200 705q84 0 116.5 -20.5t32.5 -75.5q0 -46 -17 -73t-60 -34v-2q48 -6 67.5 -32t20.5 -73q2 -66 -33 -95.5t-119 -29.5q-63 0 -151 11l4 51q60 -5 131 -5q55 0 77 16.5t22 59.5q0 32 -18.5 50t-69.5 19l-87 2v46l87 3q49 2 64.5 20.5t15.5 48.5q0 34 -20 46t-73 12 q-78 0 -121 -4l-4 49q67 10 135 10zM303 0h-61l453 700h62zM769 420l-123 -245q-5 -10 0.5 -16.5t17.5 -6.5h147v119l11 69h52v-188h52v-47l-52 -6v-99h-63v98h-196q-27 0 -40 18t1 48l128 256h65z" />
<glyph unicode="&#xbf;" horiz-adv-x="508" d="M254 506h21q18 0 25.5 -7t7.5 -24v-57q0 -17 -7.5 -24t-25.5 -7h-21q-19 0 -26 7t-7 24v57q0 17 7 24t26 7zM226 292h74q1 -52 -15.5 -95t-41 -72.5t-49 -55t-42.5 -54.5t-19 -60q-2 -50 30 -73.5t102 -23.5q98 0 200 9l5 -62q-6 -1 -31 -5.5t-32 -5.5t-28.5 -4t-37 -3.5 t-40.5 -1.5t-54 -1q-205 0 -205 157q0 42 18.5 77.5t45 63l53 55t46 67.5t21.5 88z" />
<glyph unicode="&#xd7;" horiz-adv-x="491" d="M451 431l-362 -325l-42 51l361 325z" />
<glyph unicode="&#xf7;" horiz-adv-x="580" d="M277 533h22q18 0 25.5 -7.5t7.5 -25.5v-49q0 -18 -7.5 -25t-25.5 -7h-22q-18 0 -24.5 7t-6.5 25v49q0 18 6.5 25.5t24.5 7.5zM512 267h-445v65h445v-65zM277 179h22q18 0 25.5 -7t7.5 -26v-49q0 -18 -7.5 -25t-25.5 -7h-22q-18 0 -24.5 7t-6.5 25v49q0 19 6.5 26t24.5 7z " />
<glyph unicode="&#x60c;" horiz-adv-x="231" d="M127 0h-25q-18 0 -24.5 7t-6.5 26v65q0 82 34 156l42 -12q-10 -60 -10 -122q24 0 24 -28v-59q0 -33 -34 -33z" />
<glyph unicode="&#x61b;" horiz-adv-x="230" d="M127 330h-25q-18 0 -24.5 7t-6.5 26v65q0 82 34 156l42 -12q-10 -60 -10 -122q24 0 24 -28v-59q0 -33 -34 -33zM129 3h-29q-17 0 -24 7.5t-7 24.5v56q0 18 7 25t24 7h29q18 0 25 -7t7 -25v-56q0 -17 -7 -24.5t-25 -7.5z" />
<glyph unicode="&#x61f;" horiz-adv-x="500" d="M236 723q25 0 46 -0.5t40 -2t30 -2t29 -3.5t23.5 -4t27 -5t27.5 -5l-5 -62q-107 11 -200 11q-70 0 -102 -24.5t-30 -75.5q1 -30 19 -59t42.5 -54.5t49 -54.5t41.5 -72.5t16 -95.5h-74q-2 48 -21.5 88.5t-46.5 68.5t-53.5 55t-45 62t-18.5 77q0 158 205 158zM241 120h24 q17 0 24 -7t7 -26v-55q0 -18 -7 -25t-24 -7h-24q-17 0 -24 7t-7 25v55q0 19 7 26t24 7z" />
<glyph unicode="&#x621;" horiz-adv-x="365" d="M278 372l-6 -49q-82 11 -126 -21q-38 -29 -33 -77q4 -46 49 -88q52 -50 122 -59l38 -5h2v-3l-10 -44q-170 15 -256 -26l-18 43q50 35 114 35q-66 41 -84 101q-17 56 9 108q26 54 78 78q56 27 121 7z" />
<glyph unicode="&#x622;" horiz-adv-x="162" d="M99 849q4 -2 23 1.5t30 8.5l-10 -31q-19 -10 -62 -5t-61 -8l8 27q0 4 7.5 7t23.5 4t41 -4zM122 0h-82v755h82v-755z" />
<glyph unicode="&#x623;" horiz-adv-x="162" d="M114 850l-3 -18q-29 4 -43 -5t-12 -29q4 -40 60 -51q3 -1 13 -1v-2l-3 -15q-61 5 -89 -8l-6 14q17 12 40 12q-25 15 -34.5 36t1.5 43q19 40 76 24zM122 0h-82v670h82v-670z" />
<glyph unicode="&#x624;" horiz-adv-x="561" d="M378 922l-3 -33q-52 7 -80 -13q-23 -17 -20 -48q9 -74 108 -93q3 -1 11 -1.5t12 -0.5h1v-2l-5 -28q-109 9 -162 -16l-11 27q31 21 72 21q-87 52 -48 133q39 80 125 54zM521 550v-633q0 -118 -67 -169q-62 -47 -198 -47l-21 71q7 -1 19 -1h20q82 0 125 40t43 114v75h-184 q-110 0 -156 40q-62 54 -62 146q0 364 262 364h219zM442 475h-111q-73 0 -107 -21q-105 -68 -105 -254q0 -58 45 -93q33 -27 106 -27h172v395z" />
<glyph unicode="&#x625;" horiz-adv-x="162" d="M122 0h-82v854h83zM118 -91l-2 -18q-59 8 -56 -33q5 -42 60 -52q3 -1 13 -1h1v-1l-3 -16q-60 4 -90 -9l-6 15q17 12 40 12q-48 29 -25 73q21 44 68 30z" />
<glyph unicode="&#x626;" horiz-adv-x="1314" d="M214 893l-4 -32q-52 7 -79 -14q-24 -18 -21 -47q8 -80 108 -93l23 -3h2l-1 -1l-5 -28q-107 9 -162 -17l-11 27q31 22 71 22q-84 50 -45 132q39 79 124 54zM1054 773h-196q-74 0 -109 -35q-34 -35 -34 -115v-108q0 -69 34 -102q37 -34 112 -34h211q194 0 194 -169 q0 -25 -5 -51q-27 -159 -219 -159h-795q-118 0 -169 67q-46 61 -46 231q0 123 50 188q49 64 143 64h28v-82q-72 0 -106 -34t-43 -115q-2 -16 -2 -20v-19q0 -114 39 -158q40 -43 114 -43h776q135 0 147 83l6 41q0 58 -34 80q-25 16 -105 16h-188q-122 0 -173 47 q-53 47 -53 160v127q0 216 206 216h217v-76z" />
<glyph unicode="&#x627;" horiz-adv-x="162" d="M122 0h-82v854h82v-854z" />
<glyph unicode="&#x628;" horiz-adv-x="1113" d="M1073 0h-819q-118 0 -167 67q-47 62 -47 229q0 121 50 185q49 64 142 64h29v-81q-73 0 -107 -33q-32 -33 -43 -115q-1 -7 -1 -19v-19q0 -115 40 -156q39 -42 112 -42h737v465h74v-545zM630 -181h-95v80h95v-80z" />
<glyph unicode="&#x629;" horiz-adv-x="599" d="M276 654h-95v80h95v-80zM420 654h-95v80h95v-80zM293 551q131 0 198 -54q68 -53 68 -174v-96q0 -121 -65 -175q-64 -52 -176 -52h-46q-126 0 -196 80q-36 55 -36 125v118q0 117 59 173q59 55 194 55zM298 476q-93 0 -134 -38t-41 -121v-85q0 -79 41 -114q45 -41 144 -38 q86 2 126 37q41 35 41 115v85q0 86 -40 123q-41 36 -137 36z" />
<glyph unicode="&#x62a;" horiz-adv-x="1113" d="M555 620h-95v80h95v-80zM711 620h-95v80h95v-80zM1073 0h-819q-118 0 -167 67q-47 62 -47 229q0 121 50 185q49 64 142 64h29v-81q-73 0 -107 -33q-32 -33 -43 -115q-1 -7 -1 -19v-19q0 -115 40 -156q39 -42 112 -42h737v465h74v-545z" />
<glyph unicode="&#x62b;" horiz-adv-x="1113" d="M635 758h-95v80h95v-80zM553 624h-95v80h95v-80zM709 624h-95v80h95v-80zM1073 0h-819q-118 0 -167 67q-47 62 -47 229q0 121 50 185q49 64 142 64h29v-81q-73 0 -107 -33q-32 -33 -43 -115q-1 -7 -1 -19v-19q0 -115 40 -156q39 -42 112 -42h737v465h74v-545z" />
<glyph unicode="&#x62c;" horiz-adv-x="892" d="M161 552l497 -122q112 -27 156 -87q44 -61 36 -150q-18 -193 -233 -193h-355q-80 0 -105 -16q-34 -21 -34 -79q0 -10 5 -41q12 -88 147 -88h120v-75h-131q-95 0 -147 34q-55 37 -71 125q-6 32 -6 52q0 168 195 168h380q80 0 115 29q40 33 46 95q6 56 -27 96 q-32 36 -107 54l-490 113zM630 -181h-95v80h95v-80z" />
<glyph unicode="&#x62d;" horiz-adv-x="892" d="M161 552l497 -122q112 -27 156 -87q44 -61 36 -150q-18 -193 -233 -193h-355q-80 0 -105 -16q-34 -21 -34 -79q0 -10 5 -41q12 -88 147 -88h120v-75h-131q-95 0 -147 34q-55 37 -71 125q-6 32 -6 52q0 168 195 168h380q80 0 115 29q40 33 46 95q6 56 -27 96 q-32 36 -107 54l-490 113z" />
<glyph unicode="&#x62e;" horiz-adv-x="892" d="M479 654h-95v80h95v-80zM161 552l497 -122q112 -27 156 -87q44 -61 36 -150q-18 -193 -233 -193h-355q-80 0 -105 -16q-34 -21 -34 -79q0 -10 5 -41q12 -88 147 -88h120v-75h-131q-95 0 -147 34q-55 37 -71 125q-6 32 -6 52q0 168 195 168h380q80 0 115 29q40 33 46 95 q6 56 -27 96q-32 36 -107 54l-490 113z" />
<glyph unicode="&#x62f;" horiz-adv-x="915" d="M157 547h492q124 0 175 -54q51 -53 51 -180q0 -183 -45 -245q-50 -68 -181 -68l-609 1v79h609q87 0 121 39q35 41 35 170q0 95 -36 136q-36 39 -120 39h-492v83z" />
<glyph unicode="&#x630;" horiz-adv-x="915" d="M479 654h-95v80h95v-80zM157 547h492q124 0 175 -54q51 -53 51 -180q0 -183 -45 -245q-50 -68 -181 -68l-609 1v79h609q87 0 121 39q35 41 35 170q0 95 -36 136q-36 39 -120 39h-492v83z" />
<glyph unicode="&#x631;" horiz-adv-x="330" d="M290 559v-644q0 -120 -68 -171q-61 -47 -156 -47h-34l-12 -1l-20 73q13 -1 38 -1q34 0 48 3q49 9 80 37q43 40 43 116v635h81z" />
<glyph unicode="&#x632;" horiz-adv-x="330" d="M294 654h-95v80h95v-80zM290 559v-644q0 -120 -68 -171q-61 -47 -156 -47h-34l-12 -1l-20 73q13 -1 38 -1q34 0 48 3q49 9 80 37q43 40 43 116v635h81z" />
<glyph unicode="&#x633;" horiz-adv-x="1522" d="M1482 556l-1 -344q0 -109 -59 -160q-55 -46 -157 -52q-95 -6 -167 24q-54 21 -78 68q-20 -43 -74 -66q-63 -28 -155 -28q-96 0 -157 35l-1 -95q-2 -109 -93 -175q-82 -59 -204 -67q-120 -6 -204 42q-92 54 -92 151v300h79v-295q0 -60 67 -94q61 -31 149 -26q90 5 148 48 q67 49 67 131v603h84v-355q6 -62 46 -92q50 -37 126 -36q71 1 129 35q47 28 47 80v300h78v-295q0 -98 116 -119q110 -21 179 36q43 36 43 116v330h84z" />
<glyph unicode="&#x634;" horiz-adv-x="1522" d="M1070 796h-95v80h95v-80zM988 662h-95v80h95v-80zM1144 662h-95v80h95v-80zM1482 556l-1 -344q0 -109 -59 -160q-55 -46 -157 -52q-95 -6 -167 24q-54 21 -78 68q-20 -43 -74 -66q-63 -28 -155 -28q-96 0 -157 35l-1 -95q-2 -109 -93 -175q-82 -59 -204 -67 q-120 -6 -204 42q-92 54 -92 151v300h79v-295q0 -60 67 -94q61 -31 149 -26q90 5 148 48q67 49 67 131v603h84v-355q6 -62 46 -92q50 -37 126 -36q71 1 129 35q47 28 47 80v300h78v-295q0 -98 116 -119q110 -21 179 36q43 36 43 116v330h84z" />
<glyph unicode="&#x635;" horiz-adv-x="1598" d="M886 552q22 0 47 -4l448 -66q177 -26 177 -214q0 -135 -37 -190q-53 -78 -184 -78h-711v-60q0 -107 -92 -173q-80 -58 -202 -66q-118 -6 -201 42q-91 54 -91 149v295h78v-291q0 -58 66 -93q60 -31 147 -26q87 4 146 47q67 49 67 130v359h82v-233h89v300q0 78 44 125 t127 47zM912 469h-16q-105 0 -105 -114v-275h543q106 0 139 78q18 44 18 120q0 54 -31 82t-105 40l-427 66q-4 0 -7 1z" />
<glyph unicode="&#x636;" horiz-adv-x="1598" d="M1163 662h-95v80h95v-80zM886 552q22 0 47 -4l448 -66q177 -26 177 -214q0 -135 -37 -190q-53 -78 -184 -78h-711v-60q0 -107 -92 -173q-80 -58 -202 -66q-118 -6 -201 42q-91 54 -91 149v295h78v-291q0 -58 66 -93q60 -31 147 -26q87 4 146 47q67 49 67 130v359h82v-233 h89v300q0 78 44 125t127 47zM912 469h-16q-105 0 -105 -114v-275h543q106 0 139 78q18 44 18 120q0 54 -31 82t-105 40l-427 66q-4 0 -7 1z" />
<glyph unicode="&#x637;" horiz-adv-x="948" d="M165 854v-343q37 22 93 22q20 0 44 -4l434 -65q172 -25 172 -206q0 -126 -36 -182q-49 -76 -179 -76h-653v80h51v774h74zM282 452h-15q-102 0 -102 -110v-262h526q105 0 135 71q17 38 17 116q0 51 -30 80q-29 26 -103 38l-412 65q-4 0 -7 1t-9 1z" />
<glyph unicode="&#x638;" horiz-adv-x="948" d="M165 854v-343q37 22 93 22q20 0 44 -4l434 -65q172 -25 172 -206q0 -126 -36 -182q-49 -76 -179 -76h-653v80h51v774h74zM534 662h-95v80h95v-80zM282 452h-15q-102 0 -102 -110v-262h526q105 0 135 71q17 38 17 116q0 51 -30 80q-29 26 -103 38l-412 65q-4 0 -7 1t-9 1z " />
<glyph unicode="&#x639;" horiz-adv-x="652" d="M533 472h-106q-73 0 -108 -35q-35 -37 -35 -115v-106q0 -71 35 -103q33 -33 95 -33h198v-80h-186q-10 0 -20 1h-147q-79 0 -105 -17q-33 -21 -33 -78q0 -10 5 -41q12 -87 147 -87h119v-75h-130q-96 0 -146 34q-57 39 -72 124q-5 26 -5 51q0 167 190 168q-27 48 -27 127 v125q0 215 203 215h128v-75z" />
<glyph unicode="&#x63a;" horiz-adv-x="652" d="M439 662h-95v80h95v-80zM533 472h-106q-73 0 -108 -35q-35 -37 -35 -115v-106q0 -71 35 -103q33 -33 95 -33h198v-80h-186q-10 0 -20 1h-147q-79 0 -105 -17q-33 -21 -33 -78q0 -10 5 -41q12 -87 147 -87h119v-75h-130q-96 0 -146 34q-57 39 -72 124q-5 26 -5 51 q0 167 190 168q-27 48 -27 127v125q0 215 203 215h128v-75z" />
<glyph unicode="&#x640;" horiz-adv-x="268" d="M288 0h-308v80h308v-80z" />
<glyph unicode="&#x641;" horiz-adv-x="1331" d="M1069 662h-95v80h95v-80zM262 547v-81q-74 0 -108 -34q-33 -33 -42 -114q-2 -16 -2 -20v-18q0 -116 40 -157q40 -43 113 -43h550q-37 44 -37 133v105q0 117 59 171q58 55 191 55q127 0 195 -53q67 -52 67 -173v-97q0 -89 -38 -141q-14 -20 -22 -28q-65 -52 -166 -52h-808 q-116 0 -167 67q-47 64 -47 230q0 121 50 186q51 64 142 64h30zM1031 470q-93 0 -133 -37t-40 -120v-83q0 -76 40 -113q44 -39 143 -37q87 2 125 37q40 36 40 113v83q0 85 -40 121t-135 36z" />
<glyph unicode="&#x642;" horiz-adv-x="662" d="M319 662h-95v80h95v-80zM466 662h-95v80h95v-80zM358 548q130 0 197 -52q68 -53 68 -175v-384q0 -104 -93 -171q-80 -59 -199 -65q-121 -6 -200 40q-91 52 -91 149v138h77v-134q0 -58 66 -91q60 -31 146 -26q87 4 146 47q66 48 66 128v88q-64 -40 -157 -40h-47 q-124 0 -195 81q-36 53 -36 136v104q0 119 59 173q58 54 193 54zM364 475q-93 0 -134 -38t-41 -121v-84q0 -73 41 -114q41 -40 143 -37q87 3 126 37q42 36 42 114v84q0 86 -41 122q-40 37 -136 37z" />
<glyph unicode="&#x643;" horiz-adv-x="1126" d="M1086 0h-830q-117 0 -168 67q-48 63 -48 232q0 123 51 188q49 64 143 64h30v-81q-74 0 -108 -34t-44 -116q-2 -14 -2 -19v-20q0 -114 41 -158q40 -43 113 -43h747v780h75v-860zM676 658l-4 -32q-51 6 -79 -14q-24 -16 -21 -47q5 -34 31 -57q32 -29 77 -36q10 -2 24 -2 q1 0 2 -1l-1 -2l-6 -28q-109 9 -161 -16l-12 27q31 21 71 22q-42 26 -52 63q-11 35 6 68q17 35 49 50q33 16 76 5z" />
<glyph unicode="&#x644;" horiz-adv-x="662" d="M622 854v-915q0 -106 -92 -173q-79 -57 -200 -65q-119 -6 -200 41q-90 52 -90 148v191h78v-187q0 -58 65 -91q61 -31 146 -27q90 6 145 47q65 47 65 129v902h83z" />
<glyph unicode="&#x645;" horiz-adv-x="751" d="M445 551q131 0 198 -54q68 -53 68 -174v-96q0 -122 -65 -175q-62 -52 -170 -52h-54q-50 0 -102 19q-84 -7 -137 -50q-61 -48 -61 -124v-143h-82v157q0 80 56 141q50 53 133 79l-1 1q-36 55 -36 125v118q0 117 59 173q59 55 194 55zM450 476q-93 0 -134 -38t-41 -121v-85 q0 -79 41 -114q45 -41 144 -38q86 2 126 37q41 35 41 115v85q0 86 -40 123q-41 36 -137 36z" />
<glyph unicode="&#x646;" horiz-adv-x="661" d="M364 508h-95v80h95v-80zM621 548v-609q0 -107 -91 -172q-81 -58 -200 -66q-117 -6 -200 42q-90 53 -90 148v420h77v-416q0 -58 67 -92q60 -31 144 -26q89 6 146 47q65 46 65 128v596h82z" />
<glyph unicode="&#x647;" horiz-adv-x="599" d="M293 551q131 0 198 -54q68 -53 68 -174v-96q0 -121 -65 -175q-64 -52 -176 -52h-46q-126 0 -196 80q-36 55 -36 125v118q0 117 59 173q59 55 194 55zM298 476q-93 0 -134 -38t-41 -121v-85q0 -79 41 -114q45 -41 144 -38q86 2 126 37q41 35 41 115v85q0 86 -40 123 q-41 36 -137 36z" />
<glyph unicode="&#x648;" horiz-adv-x="561" d="M521 550v-633q0 -118 -67 -169q-62 -47 -198 -47l-21 71q7 -1 19 -1h20q82 0 125 40t43 114v75h-184q-110 0 -156 40q-62 54 -62 146q0 364 262 364h219zM442 475h-111q-73 0 -107 -21q-105 -68 -105 -254q0 -58 45 -93q33 -27 106 -27h172v395z" />
<glyph unicode="&#x649;" horiz-adv-x="1314" d="M1062 773h-196q-74 0 -109 -35q-34 -35 -34 -115v-108q0 -69 34 -102q37 -34 112 -34h211q194 0 194 -169q0 -25 -5 -51q-27 -159 -219 -159h-795q-118 0 -169 67q-46 61 -46 231q0 123 50 188q49 64 143 64h28v-82q-72 0 -106 -34t-43 -115q-2 -16 -2 -20v-19 q0 -114 39 -158q40 -43 114 -43h776q135 0 147 83l6 41q0 58 -34 80q-25 16 -105 16h-188q-122 0 -173 47q-53 47 -53 160v127q0 216 206 216h217v-76z" />
<glyph unicode="&#x64a;" horiz-adv-x="1314" d="M1062 773h-196q-74 0 -109 -35q-34 -35 -34 -115v-108q0 -69 34 -102q37 -34 112 -34h211q194 0 194 -169q0 -25 -5 -51q-27 -159 -219 -159h-795q-118 0 -169 67q-46 61 -46 231q0 123 50 188q49 64 143 64h28v-82q-72 0 -106 -34t-43 -115q-2 -16 -2 -20v-19 q0 -114 39 -158q40 -43 114 -43h776q135 0 147 83l6 41q0 58 -34 80q-25 16 -105 16h-188q-122 0 -173 47q-53 47 -53 160v127q0 216 206 216h217v-76zM630 -181h-95v80h95v-80zM772 -181h-95v80h95v-80z" />
<glyph unicode="&#x64b;" d="M112 83h-224v34h224v-34zM112 0h-224v34h224v-34z" />
<glyph unicode="&#x64c;" d="M-24 264l-135 -161q-15 -19 -14 -39q3 -13 13 -26l11 -11l10 -7l-21 -15l-2 3q-8 6 -9 7q-25 25 -29 45q-6 29 19 58l136 163zM-4 230l14 10q49 29 80 -28l55 -94l-181 -105q-35 -18 -60 -8q-23 10 -47 50l21 11q14 -26 35 -35q19 -6 40 6l21 13l-30 52q-19 30 -14 52 q1 12 31 42zM50 218q-12 6 -29 -3q-8 -6 -10 -8l-33 -32q-18 -16 -19 -28q-3 -14 10 -35l28 -49l113 65l-36 64q-13 21 -24 26z" />
<glyph unicode="&#x64d;" d="M112 -34h-224v34h224v-34zM112 -117h-224v34h224v-34z" />
<glyph unicode="&#x64e;" d="M112 0h-224v34h224v-34z" />
<glyph unicode="&#x64f;" d="M-3 230l14 10q47 28 80 -28l54 -94l-181 -105q-35 -18 -60 -8q-22 10 -46 50l20 11q16 -27 35 -35q19 -6 40 6l21 13l-30 52q-19 34 -14 52q2 16 31 42zM50 218q-11 6 -28 -3q-8 -6 -10 -8l-33 -32q-19 -17 -19 -28q-3 -14 9 -35l29 -49l113 65l-37 64q-11 20 -24 26z " />
<glyph unicode="&#x650;" d="M112 -34h-224v34h224v-34z" />
<glyph unicode="&#x651;" d="M126 184v-113q0 -35 -20 -53q-18 -15 -32 -17q-30 -5 -50 6q-10 6 -25 24q-10 -17 -25 -23q-17 -10 -46 -7q-14 2 -30 14q-8 3 -17 20q-7 14 -7 36v113h28v-109q0 -26 14 -38t35 -12q35 9 35 39v98h26v-98q0 -30 33 -39q25 -1 38 12q15 12 15 38v109h28z" />
<glyph unicode="&#x652;" d="M-2 183q42 0 66 -19q23 -18 23 -57v-32q0 -39 -22 -58q-20 -17 -58 -17h-15q-42 0 -66 26q-11 20 -11 42v39q0 40 20 57q19 19 63 19zM0 158q-31 0 -44 -13q-14 -14 -14 -40v-28q0 -25 14 -37q17 -14 47 -14q27 0 42 13q14 11 14 38v28q0 30 -14 40q-13 13 -45 13z" />
<glyph unicode="&#x653;" d="M-44 62q15 0 23 -5q3 -1 18 -16l14 -15q5 -8 13 -12q4 -2 21 -2q14 0 19 5q6 2 6 14v30h16v-35q0 -14 -11 -19q-7 -6 -35 -6q-19 0 -25 3q-2 1 -16 13l-22 25q-5 7 -18 9h-4q-24 0 -24 -20v-24h-17v29q0 15 14 21q13 5 28 5z" />
<glyph unicode="&#x654;" d="M48 184l-3 -24q-40 6 -62 -10q-20 -15 -17 -38q3 -25 24 -44q26 -25 60 -29l19 -3h1v-1l-5 -22q-85 8 -126 -13l-9 21q22 18 56 18q-33 20 -41 49q-9 29 4 54q13 27 39 39q28 13 60 3z" />
<glyph unicode="&#x656;" d="M13 -155h-26v155h26v-155z" />
<glyph unicode="&#x660;" horiz-adv-x="612" d="M306 714q133 0 187 -84.5t54 -279.5t-54 -279t-187 -84t-187 84t-54 279t54 279.5t187 84.5zM306 635q-87 0 -120.5 -64t-33.5 -221t33.5 -221t120.5 -64q86 0 120 64t34 221t-34 221t-120 64z" />
<glyph unicode="&#x661;" horiz-adv-x="404" d="M290 0h-89v555q0 36 5 61l-171 -54l-13 66l179 72h89v-700z" />
<glyph unicode="&#x662;" horiz-adv-x="570" d="M275 713q110 0 162.5 -31.5t52.5 -120.5q0 -66 -27.5 -121.5t-97.5 -132.5l-201 -225q48 4 114 4h238v-86h-460v56q0 24 13 38l203 230q68 77 98.5 131t29.5 102q-2 47 -32.5 61.5t-98.5 14.5q-102 0 -201 -16l-6 69q117 27 213 27z" />
<glyph unicode="&#x663;" horiz-adv-x="564" d="M262 714q117 0 166.5 -36t49.5 -127q0 -156 -102 -176v-5q65 -11 92 -54.5t29 -120.5q2 -109 -49 -158.5t-173 -49.5q-94 0 -222 18l6 72q115 -10 194 -10q85 0 120.5 30.5t35.5 106.5q0 64 -29 96.5t-110 32.5h-130v70h130q40 0 66 10t38 30t15.5 40t3.5 48 q-1 64 -30.5 83.5t-112.5 19.5q-84 0 -178 -8l-7 69q109 19 197 19z" />
<glyph unicode="&#x664;" horiz-adv-x="624" d="M335 700l-196 -414q-9 -20 -1 -30.5t26 -10.5h241v206l15 115h69v-321h91v-64l-91 -9v-172h-84v172h-290q-43 0 -64.5 34.5t-2.5 73.5l199 420h88z" />
<glyph unicode="&#x665;" horiz-adv-x="544" d="M463 624h-295l-10 -191l75 -6q141 -11 198 -58.5t56 -158.5q0 -47 -9 -83t-31.5 -69.5t-69.5 -51.5t-116 -18q-98 0 -208 25l10 72q103 -18 178 -18q94 0 125.5 33.5t33.5 109.5q0 22 -2.5 39t-6 30.5t-13.5 24t-18 18t-26 12.5t-31.5 8.5t-40.5 6.5t-46.5 4.5t-55.5 3.5 l-46 3q-16 1 -25.5 12.5t-8.5 27.5l16 300h371z" />
<glyph unicode="&#x666;" horiz-adv-x="581" d="M339 713q84 0 141 -16l-8 -65q-45 4 -133 4q-52 0 -83 -9t-54 -36t-33.5 -76t-12.5 -131q37 41 77 57t100 16q109 0 150.5 -51t41.5 -180q0 -59 -8.5 -99t-31.5 -73.5t-68 -49.5t-114 -16q-145 0 -190.5 70.5t-45.5 274.5q0 98 11 166t31 110t55 65t75 31t100 8zM310 385 q-44 0 -78 -14t-77 -51q0 -65 2.5 -102.5t10.5 -71.5t25 -49.5t43.5 -24t67.5 -8.5q84 0 109.5 37.5t25.5 124.5q0 89 -27 124t-102 35z" />
<glyph unicode="&#x667;" horiz-adv-x="520" d="M40 700h395q32 0 44.5 -16.5t2.5 -45.5l-218 -638h-89l196 572q11 30 22 52h-349z" />
<glyph unicode="&#x668;" horiz-adv-x="616" d="M309 710q129 0 175.5 -42t46.5 -142q0 -148 -100 -161v-4q64 -6 89.5 -52.5t25.5 -133.5q0 -100 -49.5 -142t-187.5 -43t-188.5 42t-50.5 143q0 87 26 133.5t90 52.5v4q-101 13 -101 161q0 100 47.5 142t176.5 42zM310 638q-85 0 -114 -25t-29 -95q0 -73 28.5 -96 t115.5 -23q86 0 112.5 23.5t26.5 95.5q0 70 -28 95t-112 25zM311 328q-95 -1 -126 -27.5t-31 -107.5q0 -72 32 -99t124 -27q90 0 120.5 26.5t30.5 99.5q0 82 -29 108.5t-121 26.5z" />
<glyph unicode="&#x669;" horiz-adv-x="581" d="M280 713q62 0 102.5 -12t66.5 -34.5t39.5 -68t18 -99t4.5 -141.5q0 -94 -10 -158.5t-29 -106.5t-53.5 -65t-75.5 -31.5t-103 -8.5q-89 0 -152 15l8 66q49 -4 144 -4q70 0 107 20.5t55.5 75t21.5 159.5q-37 -43 -77 -59.5t-101 -16.5q-190 0 -190 228q0 124 51 182.5 t173 58.5zM279 636q-82 0 -110 -39t-28 -125q0 -81 28 -119t100 -38q44 0 78 14.5t77 52.5q0 66 -2.5 103t-10 71t-23.5 48.5t-42 23t-67 8.5z" />
<glyph unicode="&#x66a;" horiz-adv-x="907" d="M210 714q91 0 127.5 -47.5t36.5 -161.5q0 -112 -37 -160t-127 -48t-126 48t-36 160q0 114 36 161.5t126 47.5zM256 0h-61l454 700h60zM210 659q-54 0 -75 -34t-21 -120q0 -85 21 -119t75 -34q55 0 76 33.5t21 119.5t-21 120t-76 34zM696 406q90 0 126.5 -47.5 t36.5 -159.5q0 -113 -36.5 -160.5t-126.5 -47.5q-89 0 -125.5 47.5t-36.5 160.5q0 112 36.5 159.5t125.5 47.5zM695 351q-55 0 -75 -33t-20 -119q0 -87 20 -120.5t75 -33.5t76.5 33.5t21.5 120.5q0 86 -21.5 119t-76.5 33z" />
<glyph unicode="&#x670;" d="M13 0h-26v155h26v-155z" />
<glyph unicode="&#x6d4;" horiz-adv-x="230" d="M129 3h-29q-17 0 -24 7.5t-7 24.5v56q0 18 7 25t24 7h29q18 0 25 -7t7 -25v-56q0 -17 -7 -24.5t-25 -7.5z" />
<glyph unicode="&#x2000;" horiz-adv-x="498" />
<glyph unicode="&#x2001;" horiz-adv-x="997" />
<glyph unicode="&#x2002;" horiz-adv-x="498" />
<glyph unicode="&#x2003;" horiz-adv-x="997" />
<glyph unicode="&#x2004;" horiz-adv-x="332" />
<glyph unicode="&#x2005;" horiz-adv-x="249" />
<glyph unicode="&#x2006;" horiz-adv-x="166" />
<glyph unicode="&#x2007;" horiz-adv-x="166" />
<glyph unicode="&#x2008;" horiz-adv-x="124" />
<glyph unicode="&#x2009;" horiz-adv-x="199" />
<glyph unicode="&#x200a;" horiz-adv-x="55" />
<glyph unicode="&#x2010;" horiz-adv-x="456" d="M383 223h-310v66h310v-66z" />
<glyph unicode="&#x2011;" horiz-adv-x="456" d="M383 223h-310v66h310v-66z" />
<glyph unicode="&#x2012;" horiz-adv-x="456" d="M383 223h-310v66h310v-66z" />
<glyph unicode="&#x2013;" horiz-adv-x="601" d="M528 223h-455v66h455v-66z" />
<glyph unicode="&#x2014;" horiz-adv-x="909" d="M836 223h-763v66h763v-66z" />
<glyph unicode="&#x2018;" horiz-adv-x="220" d="M101 741l41 -11q-10 -56 -10 -114q23 0 23 -26v-56q0 -31 -32 -31h-26q-17 0 -24 7t-7 24v61q0 74 35 146z" />
<glyph unicode="&#x2019;" horiz-adv-x="217" d="M96 734h26q17 0 24 -7t7 -24v-61q0 -75 -35 -145l-41 10q10 56 10 114q-23 0 -23 27v55q0 31 32 31z" />
<glyph unicode="&#x201a;" horiz-adv-x="231" d="M105 113h25q17 0 24 -7t7 -24v-60q0 -74 -35 -146l-42 11q10 56 10 114q-23 0 -23 25v56q0 17 8 24t26 7z" />
<glyph unicode="&#x201c;" horiz-adv-x="375" d="M101 741l41 -11q-10 -56 -10 -114q23 0 23 -26v-56q0 -31 -32 -31h-26q-17 0 -24 7t-7 24v61q0 74 35 146zM256 741l41 -11q-10 -56 -10 -114q24 0 24 -26v-56q0 -31 -34 -31h-24q-18 0 -25 7t-7 24v61q0 78 35 146z" />
<glyph unicode="&#x201d;" horiz-adv-x="373" d="M96 734h26q17 0 24 -7t7 -24v-61q0 -75 -35 -145l-41 10q10 56 10 114q-23 0 -23 27v55q0 31 32 31zM252 734h25q17 0 24 -7t7 -24v-61q0 -75 -35 -145l-41 10q11 61 11 114q-25 0 -25 27v55q0 17 8 24t26 7z" />
<glyph unicode="&#x201e;" horiz-adv-x="387" d="M104 113h25q17 0 24 -7t7 -24v-60q0 -74 -35 -146l-41 11q10 56 10 114q-23 0 -23 25v56q0 31 33 31zM259 113h25q18 0 24.5 -7t6.5 -24v-60q0 -74 -35 -146l-40 11q10 56 10 114q-25 0 -25 25v56q1 17 9 24t25 7z" />
<glyph unicode="&#x2020;" horiz-adv-x="460" d="M266 489v-601h-71v601l-4 212h78zM176 428l-132 -10v76h132v-66zM417 418l-133 10v66h133v-76z" />
<glyph unicode="&#x2021;" horiz-adv-x="498" d="M284 492v-396l4 -208h-79l4 208v396l-4 209h79zM195 428l-133 -10v76h133v-66zM435 418l-132 10v66h132v-76zM195 161v-66h-133v77zM435 95h-132v66l132 11v-77z" />
<glyph unicode="&#x2022;" horiz-adv-x="368" d="M180 363h12q47 0 65.5 -18.5t18.5 -65.5v-12q0 -49 -18.5 -68t-65.5 -19h-12q-50 0 -69 19t-19 68v12q0 47 19 65.5t69 18.5z" />
<glyph unicode="&#x2026;" horiz-adv-x="858" d="M98 120h30q17 0 24 -7t7 -26v-55q0 -18 -7 -25t-24 -7h-30q-17 0 -24 7t-7 25v55q0 19 7 26t24 7zM412 120h29q17 0 24 -7t7 -26v-55q0 -18 -7 -25t-24 -7h-29q-18 0 -25 7t-7 25v55q0 19 7 26t25 7zM725 120h28q18 0 25.5 -7.5t7.5 -25.5v-55q0 -18 -7.5 -25t-25.5 -7 h-28q-19 0 -26 7t-7 25v55q0 19 7 26t26 7z" />
<glyph unicode="&#x202f;" horiz-adv-x="199" />
<glyph unicode="&#x2030;" horiz-adv-x="1286" d="M210 714q91 0 127.5 -47.5t36.5 -161.5q0 -112 -37 -160t-127 -48t-126 48t-36 160q0 114 36 161.5t126 47.5zM256 0h-61l454 700h60zM210 659q-54 0 -75 -33.5t-21 -120.5q0 -86 21 -119.5t75 -33.5q55 0 76 33.5t21 119.5q0 87 -21 120.5t-76 33.5zM696 406 q90 0 126.5 -47.5t36.5 -159.5q0 -113 -36.5 -160.5t-126.5 -47.5q-89 0 -125.5 47.5t-36.5 160.5q0 112 36.5 159.5t125.5 47.5zM1073 406q90 0 126.5 -47.5t36.5 -159.5q0 -113 -36.5 -160.5t-126.5 -47.5t-126.5 47.5t-36.5 160.5q0 112 36.5 159.5t126.5 47.5zM695 351 q-55 0 -75 -33t-20 -119q0 -87 20 -120.5t75 -33.5t76.5 33.5t21.5 120.5q0 86 -21.5 119t-76.5 33zM1073 351q-55 0 -75.5 -33t-20.5 -119q0 -87 21 -120.5t75 -33.5q55 0 75.5 33.5t20.5 120.5q0 86 -20.5 119t-75.5 33z" />
<glyph unicode="&#x2039;" horiz-adv-x="289" d="M245 435l-128 -180l129 -185l-46 -30l-163 205v20l162 201z" />
<glyph unicode="&#x203a;" horiz-adv-x="291" d="M253 265v-20l-165 -205l-44 30l129 185l-128 180l44 31z" />
<glyph unicode="&#x2044;" horiz-adv-x="516" d="M62 0h-62l454 700h62z" />
<glyph unicode="&#x205f;" horiz-adv-x="249" />
<glyph unicode="&#x20ac;" horiz-adv-x="649" d="M416 713q91 0 169 -21l-11 -69q-76 13 -163 9q-79 -3 -120.5 -46.5t-55.5 -133.5h259l-7 -54h-257q0 -5 -1 -22.5t0 -26.5l1 -30h224l-7 -54h-214q11 -99 53 -147t125 -50q97 -3 176 12l9 -69q-79 -23 -180 -23q-134 0 -198.5 68t-77.5 209h-86v54h83v31q0 33 1 48h-84 v54h88q15 132 80 196.5t194 64.5z" />
<glyph unicode="&#x2122;" horiz-adv-x="978" d="M397 655h-133v-334h-63v334h-133v51h329v-51zM797 706h67q22 0 24 -24l15 -361h-58l-16 338h-11l-93 -272q-6 -21 -27 -21h-47q-19 0 -26 21l-93 272h-12l-16 -338h-57l16 361q2 24 24 24h64q18 0 26 -20l77 -223q3 -10 8 -29.5t7 -24.5h11q3 9 8 27.5t8 27.5l76 222 q6 20 25 20z" />
<glyph unicode="&#x2202;" horiz-adv-x="581" d="M133 648v66q90 1 150.5 -7t111 -31t77.5 -65t39.5 -108t7.5 -161q-10 -175 -65.5 -264.5t-182.5 -89.5q-62 0 -106.5 20.5t-68 55.5t-33.5 76t-8 89q5 102 59 165t153 62q105 -2 164 -79q6 162 -54.5 216.5t-243.5 54.5zM284 383q-69 0 -104.5 -41t-38.5 -113 q-3 -73 29.5 -118.5t101.5 -45.5q43 0 73 18.5t46.5 56.5t24.5 80t13 104q-64 59 -145 59z" />
<glyph unicode="&#x2205;" horiz-adv-x="695" d="M348 642q123 0 210 -86.5t87 -209.5t-87 -210t-210 -87t-210 87t-87 210t87 209.5t210 86.5zM348 553q-51 0 -124 -11l3 -46q61 9 121 9q67 0 67 -46q0 -21 -15.5 -45t-33.5 -43t-33.5 -53t-15.5 -73h54q0 35 15 65t33 47t33 44t15 58q0 94 -119 94zM364 174h-39 q-7 0 -7 -9v-37q0 -7 7 -7h39q9 0 9 7v37q0 9 -9 9z" />
<glyph unicode="&#x220f;" horiz-adv-x="733" d="M693 627h-105v-732h-86v732h-272v-732h-85v732h-105v73h653v-73z" />
<glyph unicode="&#x2211;" horiz-adv-x="599" d="M536 627h-376l169 -274l-183 -392h400v-72h-496v72l182 392l-170 274v73h474v-73z" />
<glyph unicode="&#x2212;" horiz-adv-x="594" d="M520 267h-445v65h445v-65z" />
<glyph unicode="&#x221a;" horiz-adv-x="574" d="M550 889l-261 -881q-3 -8 -13 -8h-100q-12 0 -14 8l-127 486h73l111 -435h13l244 830h74z" />
<glyph unicode="&#x221e;" horiz-adv-x="792" d="M592 453q60 0 99.5 -35t39.5 -102q0 -70 -43 -109.5t-109 -39.5q-98 0 -181 95q-93 -95 -187 -95q-64 0 -106.5 39.5t-42.5 109.5q0 67 40.5 102t104.5 35q100 0 190 -99q92 99 195 99zM219 389q-83 0 -83 -75q0 -41 23.5 -62t65.5 -21q41 0 70.5 19.5t62.5 58.5 q-33 41 -62.5 60.5t-76.5 19.5zM576 389q-31 0 -59 -13.5t-43 -28.5t-38 -41q59 -75 131 -75q41 0 65 21.5t24 61.5q0 75 -80 75z" />
<glyph unicode="&#x222b;" horiz-adv-x="377" d="M243 725q65 0 100 -4l-6 -62h-66q-38 0 -54 -18.5t-13 -64.5l46 -666q5 -69 -23.5 -102t-95.5 -33q-68 0 -96 4l5 62h65q38 0 54 19.5t13 65.5l-44 664q-4 66 25.5 100.5t89.5 34.5z" />
<glyph unicode="&#x2248;" horiz-adv-x="596" d="M176 454q35 -1 119 -29.5t121 -29.5q26 -1 35 9.5t9 44.5h59q8 -61 -16.5 -91t-83.5 -29q-39 1 -122 30t-117 30q-25 1 -34.5 -11t-9.5 -46h-58q-9 64 18.5 94t79.5 28zM176 260q35 -1 119 -29.5t121 -30.5q25 -1 34.5 10.5t9.5 43.5h59q8 -60 -17 -90t-83 -29 q-39 1 -122 30t-117 30q-25 1 -34.5 -11t-9.5 -46h-58q-9 64 18.5 94t79.5 28z" />
<glyph unicode="&#x2260;" horiz-adv-x="625" d="M465 533l-59 -97h135v-63h-174l-91 -151h265v-65h-305l-75 -125l-27 15l68 110h-107v65h146l91 151h-237v63h275l67 111z" />
<glyph unicode="&#x2264;" horiz-adv-x="576" d="M496 474l-340 -108l340 -98v-69l-416 133v69l416 142v-69zM504 80h-434v64h434v-64z" />
<glyph unicode="&#x2265;" horiz-adv-x="576" d="M495 401v-69l-415 -133v69l339 98l-339 108v69zM505 80h-434v64h434v-64z" />
<glyph unicode="&#x25ca;" horiz-adv-x="585" d="M301 702l247 -343q5 -8 0 -16l-247 -345q-9 -11 -16 0l-248 345q-7 8 0 16l248 343q7 11 16 0zM108 351l185 -267l185 267l-185 265z" />
<glyph unicode="&#x25fc;" horiz-adv-x="495" d="M0 495h495v-495h-495v495z" />
<glyph unicode="&#xfb00;" horiz-adv-x="722" d="M597 728q84 0 139 -7l-6 -64h-103q-48 0 -67.5 -19t-19.5 -65v-79h157v-68h-157v-426h-87v426h-249v-426h-86v426h-90v63l90 4v77q0 145 144 145q77 0 124 -8l-6 -63h-88q-50 0 -69 -17.5t-19 -66.5v-66h249v89q0 72 33.5 108.5t110.5 36.5z" />
<glyph unicode="&#xfb01;" horiz-adv-x="616" d="M262 728q67 0 116 -7v-64h-86q-49 0 -68.5 -21t-19.5 -73v-69h328v-494h-85v426h-243v-426h-86v426h-90v63l90 4v79q0 78 33.5 117t110.5 39zM468 704h41q26 0 26 -26v-58q0 -26 -26 -26h-41q-25 0 -25 26v58q0 26 25 26z" />
<glyph unicode="&#xfb02;" horiz-adv-x="679" d="M261 728q209 0 283 -12v-590q0 -67 67 -67h49l9 -55q-27 -13 -90 -13q-57 0 -89 30.5t-32 85.5v551h-167q-49 0 -68 -21t-19 -74v-69h148v-68h-148v-426h-86v426h-90v63l90 4v79q0 78 33 117.5t110 38.5z" />
<glyph unicode="&#xfb03;" horiz-adv-x="943" d="M590 728q71 0 120 -7v-64h-90q-49 0 -68.5 -21t-19.5 -73v-69h328v-494h-86v426h-242v-426h-86v426h-249v-426h-86v426h-83v63l83 4v77q0 145 144 145q77 0 124 -8l-8 -63h-86q-50 0 -69 -17.5t-19 -66.5v-66h249v78q0 78 33.5 117t110.5 39zM796 704h40q27 0 27 -26v-58 q0 -26 -27 -26h-40q-26 0 -26 26v58q0 26 26 26z" />
<glyph unicode="&#xfb04;" horiz-adv-x="1015" d="M597 728q209 0 283 -12v-590q0 -67 67 -67h48l10 -55q-27 -13 -90 -13q-57 0 -89 30.5t-32 85.5v551h-167q-49 0 -68 -21t-19 -74v-69h150v-68h-150v-426h-87v426h-249v-426h-86v426h-90v63l90 4v77q0 145 144 145q77 0 124 -8l-6 -63h-88q-50 0 -69 -17.5t-19 -66.5v-66 h249v78q0 78 33.5 117.5t110.5 38.5z" />
<glyph unicode="&#xfb06;" horiz-adv-x="872" d="M687 494h158v-68h-158v-290q0 -36 15.5 -51t52.5 -15h75l9 -66q-45 -13 -110 -13q-62 0 -94.5 34.5t-32.5 99.5v301h-345q-76 0 -99 -8.5t-23 -47.5q0 -35 15.5 -48t56.5 -23l144 -32q60 -13 87.5 -44t27.5 -92q0 -87 -47.5 -114.5t-163.5 -27.5q-104 0 -194 14l6 63 q65 -4 171 -4q86 1 115.5 13.5t29.5 55.5q0 34 -18 46.5t-61 22.5l-142 32q-60 14 -85.5 45.5t-25.5 92.5q0 75 43 99.5t150 24.5h358v146h85v-146z" />
<glyph horiz-adv-x="841" d="M657 494h158v-68h-158v-290q0 -36 15.5 -51t52.5 -15h75l9 -66q-46 -13 -112 -13q-62 0 -94 34.5t-32 99.5v301h-267q-89 0 -123.5 -38t-34.5 -140q0 -108 34 -147.5t121 -39.5q75 0 133 10l9 -58q-66 -25 -156 -25q-127 0 -179.5 58.5t-52.5 201.5q0 132 56 189t179 57 h281v146h86v-146z" />
<glyph horiz-adv-x="1222" d="M598 728q84 0 139 -7l-7 -64h-102q-48 0 -68 -19.5t-20 -64.5v-79h158q97 0 130 -92l100 -276q10 -30 18 -60h15l9 30t10 30l130 368h94l-198 -521q-67 -175 -216 -182l-9 57q57 18 89.5 49.5t54.5 81.5l9 21h-19q-25 0 -31 22l-138 361q-16 43 -64 43h-142v-426h-86v426 h-250v-426h-86v426h-90v63l90 4v77q0 145 144 145q77 0 124 -8l-6 -63h-88q-50 0 -69 -17.5t-19 -66.5v-66h250v89q0 72 33.5 108.5t110.5 36.5z" />
<glyph horiz-adv-x="726" d="M262 728q79 0 132 -7l-7 -64h-95q-48 0 -68 -19.5t-20 -64.5v-79h251v146h86v-146h157v-68h-157v-290q0 -36 15.5 -51t51.5 -15h75l10 -66q-46 -13 -111 -13q-63 0 -95 34.5t-32 99.5v301h-251v-426h-86v426h-90v63l90 4v90q0 72 33.5 108.5t110.5 36.5z" />
<glyph horiz-adv-x="886" d="M262 728q84 0 139 -7l-7 -64h-102q-48 0 -68 -19.5t-20 -64.5v-79h158q97 0 130 -92l100 -276q10 -30 18 -60h14l17 53l133 375h94l-198 -521q-68 -175 -216 -182l-9 57q57 18 89.5 49.5t54.5 81.5l9 21h-19q-25 0 -31 22l-138 361q-16 43 -64 43h-142v-426h-86v426h-90 v63l90 4v90q0 72 33.5 108.5t110.5 36.5z" />
<glyph horiz-adv-x="738" d="M554 494h158v-68h-158v-290q0 -36 15.5 -51t51.5 -15h75l10 -66q-46 -13 -111 -13q-62 0 -94.5 34.5t-32.5 99.5v301h-265v-290q0 -36 15 -51t52 -15h75l10 -66q-46 -13 -111 -13q-63 0 -95 34.5t-32 99.5v301h-90v63l90 4v147h86v-146h265v146h86v-146z" />
<glyph horiz-adv-x="908" d="M203 494h183q95 0 129 -92l99 -276q14 -40 18 -60h15l19 56l131 372h93l-198 -521q-65 -175 -216 -182l-9 57q108 33 145 131l8 21h-19q-25 0 -31 22l-138 361q-16 43 -63 43h-166v-290q0 -36 15 -51t52 -15h75l10 -66q-46 -13 -111 -13q-63 0 -95 34.5t-32 99.5v301h-90 v63l90 4v147h86v-146z" />
<glyph horiz-adv-x="389" d="M349 545v-361q0 -91 -65.5 -137.5t-187.5 -46.5h-116v80h114q178 0 178 104v361h77zM242 -181h-95v80h95v-80z" />
<glyph horiz-adv-x="389" d="M349 545v-361q0 -91 -65.5 -137.5t-187.5 -46.5h-116v80h114q178 0 178 104v361h77zM187 -181h-95v80h95v-80zM329 -181h-95v80h95v-80z" />
<glyph horiz-adv-x="470" d="M299 545v-361q0 -104 177 -104h14v-80h-16q-86 0 -139 21q-46 20 -75 55q-29 -35 -75 -55q-53 -21 -139 -21h-66v80h64q178 0 178 104v361h77zM229 -181h-95v80h95v-80zM371 -181h-95v80h95v-80z" />
<glyph d="M112 298h-224v33h224v-33zM112 215h-224v34h224v-34zM126 184v-113q0 -35 -20 -53q-18 -15 -32 -17q-30 -5 -50 6q-10 6 -25 24q-10 -17 -25 -23q-17 -10 -46 -7q-14 2 -30 14q-8 3 -17 20q-7 14 -7 36v113h28v-109q0 -26 14 -38t35 -12q35 9 35 39v98h26v-98 q0 -30 33 -39q25 -1 38 12q15 12 15 38v109h28z" />
<glyph d="M-24 454l-135 -161q-15 -19 -14 -38q3 -14 13 -27l11 -11l10 -7l-21 -15l-2 3q-8 6 -9 7q-25 25 -29 45q-6 29 19 58l136 163zM-4 420l14 10q49 29 80 -28l55 -94l-181 -105q-35 -18 -60 -8q-23 10 -47 50l21 11q14 -26 35 -35q19 -6 40 6l21 13l-30 53q-19 29 -14 51 q1 12 31 42zM50 408q-14 7 -29 -3q-8 -6 -10 -8l-33 -32q-17 -14 -19 -28q-3 -13 10 -35l28 -49l113 65l-36 64q-13 21 -24 26zM126 184v-113q0 -35 -20 -53q-18 -15 -32 -17q-30 -5 -50 6q-10 6 -25 24q-10 -17 -25 -23q-17 -10 -46 -7q-14 2 -30 14q-8 3 -17 20 q-7 14 -7 36v113h28v-109q0 -26 14 -38t35 -12q35 9 35 39v98h26v-98q0 -30 33 -39q25 -1 38 12q15 12 15 38v109h28z" />
<glyph d="M126 350v-114q0 -35 -20 -53q-20 -16 -32 -17q-33 -3 -50 7q-13 7 -25 24q-9 -17 -25 -23q-16 -11 -46 -8q-14 2 -30 14q-9 5 -17 20q-7 14 -7 36v114h28v-110q0 -26 14 -38t35 -12q35 9 35 40v97h26v-97q0 -31 33 -40q25 -1 38 12q15 12 15 38v110h28zM112 83h-224v34 h224v-34zM112 0h-224v34h224v-34z" />
<glyph d="M112 214h-224v34h224v-34zM126 184v-113q0 -35 -20 -53q-18 -15 -32 -17q-30 -5 -50 6q-10 6 -25 24q-10 -17 -25 -23q-17 -10 -46 -7q-14 2 -30 14q-8 3 -17 20q-7 14 -7 36v113h28v-109q0 -26 14 -38t35 -12q35 9 35 39v98h26v-98q0 -30 33 -39q25 -1 38 12 q15 12 15 38v109h28z" />
<glyph d="M-3 420l14 10q47 28 80 -28l54 -94l-181 -105q-35 -18 -60 -8q-22 10 -46 50l20 11q16 -27 35 -35q19 -6 40 6l21 13l-30 53q-20 33 -14 51q2 16 31 42zM50 408q-12 7 -28 -3q-8 -6 -10 -8l-33 -32q-19 -16 -19 -28q-3 -13 9 -35l29 -49l113 65l-37 64q-11 20 -24 26z M126 184v-113q0 -35 -20 -53q-18 -15 -32 -17q-30 -5 -50 6q-10 6 -25 24q-10 -17 -25 -23q-17 -10 -46 -7q-14 2 -30 14q-8 3 -17 20q-7 14 -7 36v113h28v-109q0 -26 14 -38t35 -12q35 9 35 39v98h26v-98q0 -30 33 -39q25 -1 38 12q15 12 15 38v109h28z" />
<glyph d="M126 267v-113q0 -35 -20 -53q-20 -17 -32 -18q-31 -3 -50 7q-13 7 -25 24q-9 -17 -25 -23q-14 -10 -46 -8q-14 2 -30 15q-7 3 -17 19q-7 14 -7 37v113h28v-109q0 -27 14 -38q15 -13 35 -13q35 9 35 40v98h26v-98q0 -31 33 -40q25 0 38 13q15 10 15 38v109h28zM112 0h-224 v34h224v-34z" />
</font>
</defs>
</svg>
