<?xml version="1.0" standalone="no"?>
<!DOCTYPE svg PUBLIC "-//W3C//DTD SVG 1.1//EN" "http://www.w3.org/Graphics/SVG/1.1/DTD/svg11.dtd" >
<svg xmlns="http://www.w3.org/2000/svg" xmlns:xlink="http://www.w3.org/1999/xlink" version="1.1">
<metadata></metadata>
<defs>
<font id="harmattan-regularregular" horiz-adv-x="898" >
<font-face units-per-em="2048" ascent="1638" descent="-410" />
<missing-glyph horiz-adv-x="453" />
<glyph horiz-adv-x="0" />
<glyph unicode="&#xd;" horiz-adv-x="0" />
<glyph unicode=" "  horiz-adv-x="453" />
<glyph unicode="&#x09;" horiz-adv-x="453" />
<glyph unicode="&#xa0;" horiz-adv-x="453" />
<glyph unicode="!" horiz-adv-x="572" d="M168 82q0 21 8 39.5t22 32t32 21.5t39 8t39 -8t32 -21.5t22 -32t8 -39.5t-8 -39t-22 -32t-32 -22t-39 -8t-39 8t-32 22t-22 32t-8 39zM176 1130h190q-23 -253 -25.5 -486.5t-4.5 -314.5h-131q-2 81 -4.5 307t-24.5 494z" />
<glyph unicode="&#x22;" horiz-adv-x="767" d="M180 1186h153q-25 -218 -30 -404h-94q-5 198 -29 404zM434 1186h153q-24 -206 -29 -404h-94q-6 217 -30 404z" />
<glyph unicode="#" d="M19 430v112h188l50 176h-194v112h226l75 262h113l-75 -262h205l75 262h112l-75 -262h160v-112h-192l-51 -176h199v-112h-231l-80 -281h-111l80 281h-206l-80 -281h-112l80 281h-156zM319 542h206l50 176h-205z" />
<glyph unicode="$" d="M115 93l30 142q121 -106 269 -114v364q-228 68 -250 150t-22 124q0 95 70 178.5t202 98.5v161h97v-160q112 -7 226 -60l-26 -134q-115 62 -200 73v-323q202 -62 236.5 -145.5t34.5 -141.5q0 -116 -77 -198t-194 -102v-170h-97v164q-189 8 -299 93zM274 757q0 -37 27 -69 t113 -64v291q-96 -18 -118 -69.5t-22 -88.5zM511 130q96 26 118.5 79.5t22.5 94.5q0 40 -29 76t-112 71v-321z" />
<glyph unicode="%" horiz-adv-x="1141" d="M75 773q0 260 87 297t162.5 37t133.5 -73t58 -219q0 -302 -220.5 -302t-220.5 260zM199 814q0 -109 22 -153t73 -44q99 0 99 190q0 107 -23 151t-76 44q-74 0 -84.5 -67t-10.5 -121zM218 -19l585 1126h123l-583 -1126h-125zM625 241q0 260 87.5 297.5t163 37.5t133 -72.5 t57.5 -220.5q0 -302 -220.5 -302t-220.5 260zM750 283q0 -108 22 -153t73 -45q75 0 86.5 68.5t11.5 149.5q0 168 -98 168q-74 0 -84.5 -67t-10.5 -121z" />
<glyph unicode="&#x26;" horiz-adv-x="914" d="M41 280q0 80 47 154.5t164 185.5q-57 73 -96.5 140.5t-39.5 129.5q0 115 73 168t171 53t164.5 -58t66.5 -163t-180 -281q34 -45 113 -156t116 -160q67 73 90 133l77 -101q-26 -55 -90 -128q104 -121 162 -145q-87 -71 -114 -71t-135 132q-161 -132 -293 -132t-214 86 t-82 213zM172 282q0 -67 46 -118.5t107 -51.5q105 0 229 101q-83 113 -128 176q-45 64 -64.5 89.5t-38.5 50.5q-118 -110 -134.5 -163.5t-16.5 -83.5zM236 901q0 -44 28.5 -92.5t73.5 -106.5q133 133 133 200q0 47 -26 70t-47 30.5t-55 7.5t-70.5 -32.5t-36.5 -76.5z" />
<glyph unicode="'" horiz-adv-x="393" d="M149 1186h154q-24 -206 -29 -404h-94q-5 207 -31 404z" />
<glyph unicode="(" horiz-adv-x="595" d="M85 467q0 370 128 537t202 222l56 -115q-243 -210 -243 -627q0 -418 243 -683l-71 -108q-315 327 -315 774z" />
<glyph unicode=")" horiz-adv-x="595" d="M123 -199q243 277 243 666q0 303 -90 445t-153 199l57 115q150 -112 239 -314.5t89 -438.5q0 -455 -313 -780z" />
<glyph unicode="*" horiz-adv-x="769" d="M94 1002l55 94q117 -83 187 -123q-2 53 -25 224h108q-15 -142 -15 -224q85 56 183 134l52 -93q-98 -46 -139 -68t-62 -33q44 -24 209 -90l-56 -93q-63 46 -187 123q5 -119 22 -225h-105q13 120 15 225q-65 -42 -182 -135l-53 94q111 49 202 101q-33 17 -209 89z" />
<glyph unicode="+" d="M116 494v111h277v278h111v-278h278v-111h-278v-280h-111v280h-277z" />
<glyph unicode="," horiz-adv-x="485" d="M139 37v75q9 51 46.5 62.5t68.5 11.5t62.5 -33.5t31.5 -95.5q0 -136 -131 -259l-75 29q65 69 83 125.5t18 84.5h-104z" />
<glyph unicode="-" horiz-adv-x="860" d="M80 555v150h700v-150h-700z" />
<glyph unicode="." horiz-adv-x="479" d="M139 82q0 21 7.5 39.5t21 32t32 21.5t39.5 8t39 -8t32 -21.5t22 -32t8 -39.5t-8 -39t-22 -32t-32 -22t-39 -8t-39.5 8t-32 22t-21 32t-7.5 39z" />
<glyph unicode="/" horiz-adv-x="748" d="M7 -183l621 1380h112l-620 -1380h-113z" />
<glyph unicode="0" horiz-adv-x="896" d="M66 539q0 298 107.5 435t282.5 137q267 0 320.5 -202t53.5 -361q0 -567 -389 -567q-375 0 -375 558zM217 558q0 -352 87.5 -401t143.5 -49q232 0 232 427q0 352 -87.5 400t-144.5 48q-231 0 -231 -425z" />
<glyph unicode="1" horiz-adv-x="896" d="M176 939l235 153h143v-737q0 -210 14 -355h-157v942l-216 -138z" />
<glyph unicode="2" horiz-adv-x="896" d="M89 0v126q187 136 351.5 325.5t164.5 332.5t-85.5 168t-123.5 25q-71 0 -145 -39t-125 -100l-32 126q68 99 173 123t162 24q129 0 227.5 -86.5t98.5 -227.5q0 -279 -463 -674h191q264 0 324 12v-135h-718z" />
<glyph unicode="3" horiz-adv-x="896" d="M82 104l19 161q135 -153 322 -153q95 0 171 54.5t76 148.5t-89 151t-222 57h-53v128h53q110 0 193.5 56t83.5 127t-59 108t-119 37q-108 0 -173 -26.5t-124 -88.5l-26 128q105 119 310 119q131 0 232 -70t101 -177t-75 -177.5t-164 -88.5q175 -31 225.5 -125.5 t50.5 -164.5q0 -136 -122.5 -231.5t-299.5 -95.5t-311 123z" />
<glyph unicode="4" horiz-adv-x="896" d="M66 295v116l492 696h141v-696h143v-116h-143v-295h-141v295h-492zM197 411h361v509z" />
<glyph unicode="5" horiz-adv-x="896" d="M97 60l23 157q75 -61 135.5 -81t128.5 -20t115 15.5t80.5 45.5t52.5 73.5t19 124.5t-83 133t-190 52t-233 -47v579h603v-142q-74 14 -175 14h-289v-276q40 7 122 7q165 0 276 -96t111 -256t-113 -261t-285 -101t-298 79z" />
<glyph unicode="6" horiz-adv-x="896" d="M82 505q0 243 84 386.5t185.5 181.5t162.5 38q99 0 152 -15.5t107 -52.5l-33 -145q-83 81 -205 81q-284 0 -306 -431q122 122 272 122t241.5 -89t91.5 -245t-106 -255.5t-280 -99.5t-270 140t-96 384zM230 435q14 -218 99 -270.5t138 -52.5q100 0 160.5 60.5t60.5 156.5 t-52 153t-153 57q-153 0 -253 -104z" />
<glyph unicode="7" horiz-adv-x="896" d="M75 954v138h740v-119q-321 -440 -471 -973h-139q87 299 189 517.5t257 451.5h-292q-203 0 -284 -15z" />
<glyph unicode="8" horiz-adv-x="896" d="M66 303q0 184 195 292q-149 81 -149 221t102.5 217.5t240 77.5t234 -76.5t96.5 -204.5t-62 -174.5t-84 -60.5q191 -99 191 -301q0 -67 -32.5 -127t-86 -101t-122.5 -63t-181 -22t-227 88.5t-115 233.5zM217 316q0 -96 64 -152t195.5 -56t167.5 80t36 128t-17.5 87.5 t-48.5 68t-73.5 44t-118 15.5t-140.5 -59.5t-65 -155.5zM255 826q0 -127 76.5 -153t116.5 -26t76 12t62 34.5t41.5 56.5t15.5 76t-15.5 73t-41.5 51.5t-62 31t-97.5 10.5t-116.5 -42.5t-55 -123.5z" />
<glyph unicode="9" horiz-adv-x="896" d="M84 765q0 148 109.5 247t274.5 99t265 -145t100 -385t-106 -420t-352 -180q-134 0 -231 67l34 147q80 -83 204 -83q289 0 304 447q-123 -121 -271 -121t-239.5 89.5t-91.5 237.5zM228 775q0 -147 81.5 -177t126.5 -30q148 0 247 115q-21 205 -100 250.5t-133 45.5 q-102 0 -162 -56.5t-60 -147.5z" />
<glyph unicode=":" horiz-adv-x="479" d="M139 82q0 21 7.5 39.5t21 32t32 21.5t39.5 8t39 -8t32 -21.5t22 -32t8 -39.5t-8 -39t-22 -32t-32 -22t-39 -8t-39.5 8t-32 22t-21 32t-7.5 39zM139 591q0 21 7.5 39.5t21 32.5t32 22t39.5 8t39 -8t32 -22t22 -32.5t8 -39.5t-8 -39t-22 -32t-32 -22t-39 -8t-39.5 8t-32 22 t-21 32t-7.5 39z" />
<glyph unicode=";" horiz-adv-x="485" d="M139 37v75q9 51 46.5 62.5t68.5 11.5t62.5 -33.5t31.5 -95.5q0 -136 -131 -259l-75 29q65 69 83 125.5t18 84.5h-104zM139 591q0 21 7.5 39.5t21 32.5t32 22t39.5 8t39 -8t32 -22t22 -32.5t8 -39.5t-8 -39t-22 -32t-32 -22t-39 -8t-39.5 8t-32 22t-21 32t-7.5 39z" />
<glyph unicode="&#x3c;" d="M75 483v127l732 299v-135l-590 -229l590 -227v-135z" />
<glyph unicode="=" d="M89 359v112h718v-112h-718zM89 620v113h718v-113h-718z" />
<glyph unicode="&#x3e;" d="M89 183v135l591 227l-591 229v135l734 -299v-127z" />
<glyph unicode="?" horiz-adv-x="785" d="M104 1070q87 82 240 82q201 0 238.5 -87t37.5 -129q0 -68 -28.5 -118t-75.5 -104q-47 -55 -65.5 -86.5t-32.5 -85t-14 -213.5h-139q0 228 36.5 300t72.5 119t64.5 89.5t28.5 70.5q0 114 -157 113q-89 0 -171 -85zM236 82q0 21 8 39.5t21.5 32t31.5 21.5t39 8t39.5 -8 t32.5 -21.5t22 -32t8 -39.5t-8 -39t-22 -32t-32.5 -22t-39.5 -8t-39 8t-31.5 22t-21.5 32t-8 39z" />
<glyph unicode="@" horiz-adv-x="1273" d="M71 436q0 289 170 452.5t415 163.5t395 -146t150 -383q0 -177 -80 -282.5t-186 -105.5q-67 0 -109 66.5t-48 164.5q-59 -137 -126.5 -183t-103.5 -46q-81 0 -144.5 67t-63.5 209t85 253.5t233 111.5q113 0 221 -45v-262q0 -124 22.5 -179.5t62.5 -55.5t86 72.5t46 178.5 q0 209 -116.5 336t-318.5 127q-201 0 -341 -140t-140 -367t136 -370.5t343 -143.5q106 0 198 63l78 -80q-84 -60 -171 -74t-125 -14q-232 0 -400 161.5t-168 450.5zM453 411q0 -122 43.5 -147t61.5 -25t38.5 15t51 50.5t68.5 108t51 126.5v112q-62 26 -120 26 q-100 0 -147 -72.5t-47 -193.5z" />
<glyph unicode="A" horiz-adv-x="1043" d="M29 0q10 23 33 74t73 191l299 827h161l299 -827q47 -129 71 -186t33 -79h-153l-102 288h-460l-100 -288h-154zM324 404h379l-190 542z" />
<glyph unicode="B" horiz-adv-x="961" d="M120 0q11 60 11 88v486q0 458 -11 518q168 7 290 7t254.5 -26.5t132.5 -234.5q0 -168 -183 -240q105 -29 172 -93t67 -191q0 -226 -146.5 -274t-228.5 -48t-136 0.5t-98 2t-76.5 2.5t-47.5 3zM274 116q80 -4 155 -4q134 0 206 46.5t72 155.5q0 209 -259 209h-174v-407z M274 639h145q172 0 202 68.5t30 107.5q0 83 -48.5 125.5t-166.5 42.5t-162 -4v-340z" />
<glyph unicode="C" horiz-adv-x="1014" d="M71 543q0 263 147 415.5t348 152.5t343 -105l-45 -134q-125 111 -287 111t-261 -111.5t-99 -315.5q0 -205 98.5 -324.5t240.5 -119.5q195 0 334 139l30 -147q-96 -87 -206.5 -105t-153.5 -18q-226 0 -357.5 149t-131.5 413z" />
<glyph unicode="D" horiz-adv-x="1073" d="M120 0q10 55 10 170t1 170v346q0 346 -11 406q168 7 274 7t160.5 -6.5t241.5 -71t187 -459.5t-205 -482.5t-333 -87.5q-18 0 -41.5 0.5t-50 1t-54 0.5t-71.5 2t-108 4zM274 123q91 -7 165 -7q166 0 282.5 104t116.5 328t-109.5 327.5t-287.5 103.5h-11l-156 -2v-854z" />
<glyph unicode="E" horiz-adv-x="867" d="M120 0q11 62 11 325v442q0 263 -11 325h635v-123h-481v-336h425v-120h-425v-390h197q247 0 307 12v-135h-658z" />
<glyph unicode="F" horiz-adv-x="860" d="M120 0q11 62 11 325v438q0 267 -11 329h650v-123h-496v-345h433v-120h-433v-179q0 -270 10 -325h-164z" />
<glyph unicode="G" horiz-adv-x="1062" d="M71 538q0 262 147 417.5t357 155.5q211 0 367 -105l-48 -134q-141 111 -309 111t-268 -114t-100 -316t94.5 -321.5t254.5 -119.5q128 0 246 71v251h-262v124h404v-442q-109 -77 -201.5 -106t-196.5 -29q-216 0 -350.5 147.5t-134.5 409.5z" />
<glyph unicode="H" horiz-adv-x="1103" d="M120 0q11 62 11 325v442q0 263 -11 325h154v-468h538v468h152q-10 -56 -10 -325v-442q0 -269 10 -325h-152v504h-538v-504h-154z" />
<glyph unicode="I" horiz-adv-x="730" d="M104 0v108h180v875h-180v109h506v-109h-184v-875h184v-108h-506z" />
<glyph unicode="J" horiz-adv-x="722" d="M26 66l34 139q75 -89 201 -89q127 0 153.5 91.5t26.5 155.5v370q0 276 -11 359h153v-692q0 -328 -126.5 -373.5t-176.5 -45.5q-177 0 -254 85z" />
<glyph unicode="K" horiz-adv-x="979" d="M120 0q11 62 11 325v442q0 263 -11 325h154v-503l419 503h179l-454 -513l502 -579h-183l-463 535v-535h-154z" />
<glyph unicode="L" horiz-adv-x="807" d="M120 0q11 62 11 325v442q0 263 -11 325h154v-969h167q266 0 326 12v-135h-647z" />
<glyph unicode="M" horiz-adv-x="1342" d="M120 0q22 196 52 1092h168l322 -938l325 938h165q32 -959 52 -1092h-138l-21 897l-308 -897h-146l-309 895l-24 -895h-138z" />
<glyph unicode="N" horiz-adv-x="1122" d="M120 0q11 62 11 325v442q0 263 -11 325h135l594 -864v864h134q-10 -64 -10 -325v-767h-124l-594 860v-860h-135z" />
<glyph unicode="O" horiz-adv-x="1092" d="M71 539q0 259 142 415.5t332 156.5t323.5 -150t133.5 -407t-141 -415t-330.5 -158t-324.5 149.5t-135 408.5zM217 551q0 -198 87.5 -318.5t231.5 -120.5t232.5 114t88.5 314t-87.5 319.5t-231 119.5t-232.5 -115t-89 -313z" />
<glyph unicode="P" horiz-adv-x="894" d="M120 0q11 62 11 325v353q0 354 -11 414l318 7q284 0 340 -123.5t56 -205.5t-27.5 -148t-78.5 -112t-124.5 -70.5t-173.5 -24.5t-156 8v-98q0 -270 10 -325h-164zM274 539q56 -8 152 -8q267 0 267 190.5t-94.5 224t-144.5 33.5h-18l-162 -2v-438z" />
<glyph unicode="Q" horiz-adv-x="1103" d="M71 539q0 259 142 415.5t333 156.5t323.5 -149t132.5 -396q0 -342 -195 -487q158 -96 282 -113q-7 -10 -18 -28.5t-34 -49.5t-45 -31q-21 0 -48 10.5t-59.5 26.5t-119 61t-110.5 45q-55 -19 -137 -19q-81 0 -163.5 36.5t-183 150t-100.5 371.5zM217 551 q0 -198 87.5 -318.5t231.5 -120.5t232.5 114t88.5 314t-87.5 319.5t-231 119.5t-232.5 -115t-89 -313z" />
<glyph unicode="R" horiz-adv-x="977" d="M120 0q11 62 11 325v353q0 354 -11 414q260 7 325 7q160 0 265 -75t105 -216t-70.5 -218.5t-174.5 -107.5q22 -30 54.5 -74.5t153 -207t154.5 -200.5h-192l-315 467h-151v-142q0 -270 10 -325h-164zM274 583h141q127 0 193 52.5t66 146.5q0 197 -259 197q-83 0 -141 -2 v-394z" />
<glyph unicode="S" horiz-adv-x="879" d="M71 82l33 154q141 -124 319 -124q95 0 163.5 51.5t68.5 128.5q0 76 -38 110t-91.5 59t-140.5 51t-142.5 57.5t-87 68.5t-43 79t-11.5 122.5t90.5 176t255.5 95.5t301 -68l-30 -145q-147 81 -253 81t-164 -47.5t-58 -112.5t45.5 -104.5t160.5 -74.5q115 -34 231.5 -91.5 t116.5 -230.5q0 -147 -109 -242t-267 -95t-240 39.5t-110 61.5z" />
<glyph unicode="T" horiz-adv-x="946" d="M34 954v138h864v-138q-75 15 -184 15h-179v-644q0 -258 15 -325h-172q15 75 15 325v644h-176q-108 0 -183 -15z" />
<glyph unicode="U" horiz-adv-x="1077" d="M120 1092h154v-673q0 -237 91.5 -277.5t164.5 -40.5q140 0 197.5 81t57.5 237v673h154q-12 -67 -12 -325v-382q0 -289 -147.5 -346.5t-249.5 -57.5q-198 0 -298.5 107.5t-100.5 296.5v382q0 254 -11 325z" />
<glyph unicode="V" horiz-adv-x="1021" d="M26 1092h160l317 -947l316 947h160q-42 -96 -104 -273l-288 -819h-168l-293 819q-61 175 -76 212.5t-24 60.5z" />
<glyph unicode="W" horiz-adv-x="1556" d="M29 1092h166l235 -954l269 954h139l271 -952l233 952h166q-38 -98 -87 -273l-228 -819h-169l-256 879l-255 -879h-169l-228 819q-55 196 -87 273z" />
<glyph unicode="X" horiz-adv-x="992" d="M29 0q77 103 170 255l203 329l-156 246q-105 166 -180 262h177l248 -394l239 394h174q-67 -82 -177 -262l-157 -256l203 -322q97 -154 169 -252h-172l-290 459l-279 -459h-172z" />
<glyph unicode="Y" horiz-adv-x="987" d="M26 1092h173l295 -494l280 494h172q-98 -143 -187 -295l-201 -346v-126q0 -269 10 -325h-164q11 62 11 325v132l-198 340q-89 157 -191 295z" />
<glyph unicode="Z" horiz-adv-x="920" d="M56 0v94l595 875h-255q-220 0 -295 -15v138h725v-97l-594 -872h291q246 0 326 16v-139h-793z" />
<glyph unicode="[" horiz-adv-x="591" d="M149 -307v1504h330v-113h-191v-1279h191v-112h-330z" />
<glyph unicode="\" horiz-adv-x="748" d="M7 1197h113l620 -1380h-112z" />
<glyph unicode="]" horiz-adv-x="591" d="M112 -195h191v1279h-191v113h329v-1504h-329v112z" />
<glyph unicode="^" horiz-adv-x="636" d="M0 875l255 322h126l255 -322h-113l-205 209l-206 -209h-112z" />
<glyph unicode="_" horiz-adv-x="953" d="M0 -127h953v-112h-953v112z" />
<glyph unicode="`" horiz-adv-x="434" d="M0 1197h172l262 -322h-120z" />
<glyph unicode="a" horiz-adv-x="838" d="M71 228.5q0 121.5 106 170.5t159 55t83 8t60 5t56 5t38 3v56q0 127 -180 127q-112 0 -244 -94q1 13 2.5 67t5.5 80q113 49 170 58t110 9q117 0 195.5 -60.5t78.5 -149.5v-292q0 -135 56 -276h-134q-25 57 -38 116q-127 -135 -281 -135q-104 0 -173.5 63t-69.5 184.5z M205 209q0 -51 35 -78t80 -27q81 0 135.5 27.5t117.5 111.5v127q-24 0 -43 -2l-152 -17q-173 -22 -173 -142z" />
<glyph unicode="b" horiz-adv-x="864" d="M97 1197h149v-580q123 161 289 161q112 0 185 -105t73 -284t-99 -293.5t-264 -114.5q-111 0 -198.5 28t-123.5 39v1033q0 28 -11 116zM246 139q98 -42 166 -42q119 0 182.5 77.5t63.5 203.5q0 192 -64 230.5t-102 38.5q-72 0 -140 -58.5t-106 -150.5v-299z" />
<glyph unicode="c" horiz-adv-x="763" d="M71 366q0 174 107.5 293t281.5 119q134 0 224 -64l-26 -135q-102 76 -207 76t-171 -75.5t-66 -201.5t63 -200t181 -74t219 91l16 -131q-115 -83 -264 -83t-253.5 105.5t-104.5 279.5z" />
<glyph unicode="d" horiz-adv-x="890" d="M79 357q0 180 100.5 300.5t260.5 120.5q81 0 193 -64v209q0 182 -19 274h156v-801q0 -249 56 -396h-133q-21 39 -42 139q-111 -158 -273 -158q-136 0 -217.5 98.5t-81.5 277.5zM217 364q0 -129 44.5 -196t142.5 -67q65 0 130 59.5t99 138.5v296q-105 56 -196 56 q-92 0 -156 -78.5t-64 -208.5z" />
<glyph unicode="e" horiz-adv-x="819" d="M71 371q0 185 96.5 296t264.5 111q167 0 237.5 -102.5t70.5 -254.5v-58h-531q6 -191 97 -225t142 -34q160 0 282 76l14 -124q-143 -75 -304 -75t-265 102.5t-104 287.5zM215 467h390q0 145 -73 171.5t-113 26.5q-173 0 -204 -198z" />
<glyph unicode="f" horiz-adv-x="560" d="M29 636v108h151v131q0 169 68 253t174 84t180 -53l-34 -120q-60 45 -124 45t-95 -41t-31 -139v-160h202v-108h-202v-267q0 -259 22 -369h-160v636h-151z" />
<glyph unicode="g" horiz-adv-x="819" d="M22 -143q0 115 184 195q-71 42 -71 90t22.5 83t64.5 58q-63 35 -100 93t-37 124q0 123 86 200.5t204 77.5q117 0 199 -58q95 48 211 58l-7 -120q-74 -5 -128 -22q34 -59 34 -122q0 -119 -85.5 -195t-213.5 -76q-27 0 -53 4q-74 -30 -74 -71q0 -53 217 -80 q188 -23 255 -75t67 -127q0 -128 -125.5 -200t-272.5 -72t-262 60t-115 175zM161 -138q0 -49 66 -90.5t172 -41.5q107 0 183 46t76 97q0 96 -250 123q-22 3 -41.5 5.5t-37.5 6.5q-102 -36 -129.5 -64.5t-33 -45t-5.5 -36.5zM214 508.5q0 -70.5 49 -115.5t123 -45 q75 0 123.5 45.5t48.5 115t-49 115.5t-123 46t-123 -45.5t-49 -116z" />
<glyph unicode="h" horiz-adv-x="879" d="M97 1197h149v-577q56 79 131 118.5t154 39.5q247 0 247 -311v-467h-139v411q0 194 -55.5 215t-95.5 21q-76 0 -146.5 -66t-95.5 -147v-434h-138v845q0 285 -11 352z" />
<glyph unicode="i" horiz-adv-x="423" d="M116 1006q0 42 25 71.5t57 29.5t50 -8t30.5 -22t20 -32t7.5 -49t-27 -61.5t-70 -30.5q-42 0 -67.5 30t-25.5 72zM131 763h149v-408q0 -242 15 -355h-153v396q0 284 -11 367z" />
<glyph unicode="j" horiz-adv-x="445" d="M-143 -303l27 123q37 -28 83.5 -36t61.5 -8q60 0 97.5 47.5t37.5 157.5v415q0 267 -10 367h149v-744q0 -294 -108.5 -332.5t-148.5 -38.5q-120 0 -189 49zM139 1006q0 42 25.5 71.5t57.5 29.5t49.5 -8t30 -22t20 -32t7.5 -49t-27 -61.5t-70 -30.5q-42 0 -67.5 30 t-25.5 72z" />
<glyph unicode="k" horiz-adv-x="774" d="M97 1197h149v-748l304 314h187l-371 -335l393 -428h-183l-330 390v-390h-138v845q0 285 -11 352z" />
<glyph unicode="l" horiz-adv-x="423" d="M126 1197h154v-842q0 -239 15 -355h-153v845q0 222 -16 352z" />
<glyph unicode="m" horiz-adv-x="1261" d="M94 763h134q8 -24 14 -56.5t11 -59.5q95 109 157 120t96 11q66 0 113.5 -35t70.5 -90q115 125 252 125q161 0 181.5 -107.5t20.5 -176.5v-494h-138v411q0 143 -17.5 180t-38 46.5t-50.5 9.5q-56 0 -108.5 -42t-84.5 -111v-494h-139v426q0 137 -17.5 170.5t-38.5 42 t-50 8.5q-56 0 -109 -42t-84 -111v-494h-138v460q0 175 -37 303z" />
<glyph unicode="n" horiz-adv-x="886" d="M79 763h135q14 -43 29 -146q135 161 296 161q246 0 246 -311v-467h-138v411q0 194 -56 215t-95 21q-76 0 -146 -66.5t-95 -146.5v-434h-139v460q0 186 -37 303z" />
<glyph unicode="o" horiz-adv-x="853" d="M71 376q0 188 103.5 295t260.5 107t252 -105.5t95 -292.5q0 -188 -104 -293.5t-260 -105.5t-251.5 103.5t-95.5 291.5zM209 377.5q0 -128.5 59.5 -202.5t154.5 -74q96 0 158 74.5t62 203.5t-59.5 204t-155.5 75t-157.5 -76t-61.5 -204.5z" />
<glyph unicode="p" horiz-adv-x="875" d="M79 763h135q20 -51 29 -143q120 158 277 158q127 0 205.5 -106t78.5 -284q0 -177 -98 -292t-242 -115q-60 0 -108.5 22.5t-100.5 60.5v-177q0 -163 19 -254h-158v730q0 140 -6 238t-31 162zM255 195q109 -77 146 -84t70 -7q75 0 134.5 75.5t59.5 198.5q0 193 -65.5 233 t-101.5 40q-73 0 -139 -58.5t-104 -162.5v-235z" />
<glyph unicode="q" horiz-adv-x="845" d="M79 336q0 177 98 309.5t290 132.5q106 0 266 -56v-835q0 -163 19 -254h-157v471q-107 -123 -220 -123t-204.5 89.5t-91.5 265.5zM217 388q0 -152 51 -216t121 -64q115 0 206 166v346q-76 31 -144 31q-120 0 -177 -84.5t-57 -178.5z" />
<glyph unicode="r" horiz-adv-x="665" d="M79 763h135q14 -43 29 -146q79 114 148 137.5t105 23.5q78 0 120 -70.5t42 -180.5l-119 -26q0 97 -32 119.5t-55 22.5q-45 0 -109 -66t-88 -143v-434h-139v460q0 186 -37 303z" />
<glyph unicode="s" horiz-adv-x="722" d="M82 66l38 135q77 -68 150.5 -84t105.5 -16q63 0 105 30.5t42 60.5q0 56 -45.5 88.5t-136.5 53.5q-149 35 -196.5 88.5t-47.5 129.5t69.5 151t209.5 75t248 -60l-26 -131q-123 71 -228 71t-121.5 -41t-16.5 -59q0 -39 33 -61.5t115 -41.5q145 -33 211.5 -85.5t66.5 -151.5 t-84 -168t-204 -69q-178 0 -288 85z" />
<glyph unicode="t" horiz-adv-x="624" d="M22 636v108h150v243h139v-243h243v-108h-243v-344q0 -111 17 -142t35 -38.5t43 -7.5q64 0 162 57v-120q-93 -60 -185 -60q-211 0 -211 220v435h-150z" />
<glyph unicode="u" horiz-adv-x="886" d="M101 763h154v-415q0 -129 21 -172.5t45.5 -57.5t58.5 -14q65 0 140.5 68t107.5 142v209q0 121 -14 240h153v-427q0 -205 48 -336h-127q-30 70 -41 149q-139 -168 -292 -168q-239 0 -239 322v220q0 141 -15 240z" />
<glyph unicode="v" horiz-adv-x="800" d="M15 763h157l228 -614l228 614h157q-86 -171 -314 -763h-142q-42 108 -70 177t-45 112t-32.5 82t-28.5 72t-45.5 113t-92.5 207z" />
<glyph unicode="w" horiz-adv-x="1159" d="M34 763h138l157 -602l194 602h113l194 -602l157 602h139q-29 -92 -40.5 -132.5t-20.5 -70t-18 -62.5l-138 -498h-142l-188 587l-186 -587h-142l-139 498q-13 48 -28.5 99t-26 87t-23.5 79z" />
<glyph unicode="x" horiz-adv-x="812" d="M37 0q31 40 52 67t37 49t29.5 41.5t30.5 43.5l133 193l-118 166q-34 49 -69.5 93.5t-86.5 109.5h172l194 -271l184 271h168q-29 -38 -49 -65t-36.5 -49t-31 -43t-32.5 -46l-123 -180l129 -179q20 -28 35.5 -48t31.5 -41t36.5 -47t50.5 -65h-172l-201 280l-196 -280h-168z " />
<glyph unicode="y" horiz-adv-x="793" d="M-15 -288l44 120q67 -56 129 -56q61 0 103 42t90 162l-209 518q-45 116 -120 265h150l242 -612l214 612h150q-68 -152 -108 -265l-180 -498q-106 -291 -190 -321.5t-134 -30.5q-92 0 -181 64z" />
<glyph unicode="z" horiz-adv-x="687" d="M30 0v82l429 569h-291q-89 0 -116 -12v124h594v-70l-444 -581h322q87 0 134 11v-123h-628z" />
<glyph unicode="{" horiz-adv-x="748" d="M157 460q0 9 20.5 25.5t46.5 35t50 35.5t30 25t9 47t6 95t10 213.5t41 196.5q33 39 228 93l30 -104q-139 -46 -156 -72t-19 -167.5t-3.5 -227t-7.5 -96.5q-9 -17 -64.5 -53.5t-55.5 -44.5t56.5 -46.5t61.5 -48.5t7 -47t3 -88.5t2 -110.5t5 -146t12 -98q7 -11 25.5 -21 t42 -20.5t48.5 -20t43 -16.5l-30 -105q-191 53 -226 92q-35 40 -46.5 290t-20.5 261q-9 12 -58 47t-69.5 51.5t-20.5 25.5z" />
<glyph unicode="|" horiz-adv-x="516" d="M201 -293v1490h113v-1490h-113z" />
<glyph unicode="}" horiz-adv-x="748" d="M120 -202q18 7 42.5 16.5t64 27t47.5 29.5q8 11 12 48.5t6 89.5t3 111t3.5 146.5t8.5 97.5q5 9 24 23t39.5 28.5t37.5 26.5t18 18q-1 8 -56 45.5t-61 48.5t-8 47.5t-3.5 88t-2.5 110.5t-4.5 144.5t-11.5 97.5q-24 35 -159 80l29 104q196 -54 230 -93q33 -39 44 -290.5 t19 -260.5q7 -9 31.5 -26t71 -50t46.5 -46t-71 -63.5t-77 -58.5q-7 -8 -9.5 -46.5t-12 -252.5t-37.5 -246q-41 -47 -235 -100z" />
<glyph unicode="~" horiz-adv-x="834" d="M15 280q0 74 42.5 127t113.5 53t125.5 -12.5t155 -39.5t155.5 -27t85 13t38 62h77q0 -126 -65.5 -156.5t-119.5 -30.5q-78 0 -231.5 39.5t-210.5 39.5q-81 0 -86 -68h-79z" />
<glyph unicode="&#xa1;" horiz-adv-x="572" d="M169 731.5q0 42.5 30.5 71.5t60.5 29q31 0 49 -8t31.5 -21.5t21.5 -32t8 -49.5t-29 -60t-60 -29t-49.5 7.5t-40.5 28.5t-22 63.5zM175 -307q23 275 26.5 497t5.5 304h125q6 -503 33 -801h-190z" />
<glyph unicode="&#xa2;" d="M154 401q0 149 82 256t217 131v199h97v-194q108 -5 186 -59l-24 -129q-83 61 -162 70v-518q94 9 180 83l13 -124q-90 -68 -193 -77v-197h-97v198q-131 14 -215 113t-84 248zM288 415q0 -102 43.5 -167.5t121.5 -85.5v507q-73 -20 -119 -86t-46 -168z" />
<glyph unicode="&#xa3;" d="M108 0v97q111 81 111 197q0 80 -10 222h-93v108h85q-6 78 -6 156q0 158 79.5 244.5t215.5 86.5q71 0 119.5 -20t65.5 -33l-34 -112q-64 46 -151 46q-157 0 -157 -188q0 -84 8 -180h232v-108h-223q8 -123 8 -168q0 -148 -77 -225h152q266 0 326 12v-135h-651z" />
<glyph unicode="&#xa4;" d="M28 307l157 158q-63 85 -63 196t66 188l-160 161l70 70l160 -160q90 62 193 62t186 -64l163 162l70 -70l-159 -159q65 -92 65 -197t-64 -189l158 -158l-70 -70l-159 159q-84 -69 -191 -69t-194 69l-158 -159zM219 655q0 -99 66.5 -164t164.5 -65t162.5 66.5t64.5 162.5 t-64.5 162t-163.5 66t-164.5 -64.5t-65.5 -163.5z" />
<glyph unicode="&#xa5;" d="M47 1037h152l255 -468l244 468h151q-83 -128 -163 -280l-119 -222h187v-109h-244v-78h244v-109h-244q0 -181 10 -239h-143q8 44 10 239h-238v109h238v78h-238v109h183l-118 222q-19 35 -60.5 112t-106.5 168z" />
<glyph unicode="&#xa6;" horiz-adv-x="766" d="M329 -293v626h112v-626h-112zM329 579v618h112v-618h-112z" />
<glyph unicode="&#xa7;" horiz-adv-x="766" d="M82 -265l38 134q75 -69 149.5 -85.5t106.5 -16.5q63 0 105 34.5t42 72.5q0 67 -49.5 117.5t-135.5 109.5q-144 99 -192.5 165t-48.5 161q0 150 142 213q-142 109 -142 217q0 168 104 211t207 43t216 -59l-26 -132q-124 72 -226 72t-121 -43t-19 -67t16 -48.5t45 -51 t69.5 -55.5t90.5 -65q110 -80 157.5 -140t47.5 -140t-38.5 -142t-104.5 -95q143 -116 143 -250q0 -101 -84 -174t-204 -73q-182 0 -288 87zM232 422q0 -84 157 -190q60 5 97 41t37 84t-33 91t-117 102q-63 -2 -102 -34t-39 -94z" />
<glyph unicode="&#xa8;" horiz-adv-x="508" d="M0 1016q0 32 27 61.5t59 29.5t50 -8t31 -22t20.5 -32t7.5 -39t-7.5 -39.5t-20.5 -32.5t-31 -22t-39 -8t-38.5 8t-30.5 22t-20.5 32t-7.5 50zM314 1016q0 32 27 61.5t59 29.5t50 -8t30.5 -22t20 -32t7.5 -39t-7.5 -39.5t-20 -32.5t-30.5 -22t-39 -8t-38.5 8t-30.5 22 t-20.5 32t-7.5 50z" />
<glyph unicode="&#xa9;" horiz-adv-x="1133" d="M37 543q0 268 118.5 382.5t213.5 150t177 35.5t147.5 -16t158 -65.5t168.5 -178t76 -306.5q0 -270 -159.5 -417t-374.5 -147t-370 147.5t-155 414.5zM131 546q0 -221 127 -348t306.5 -127t308.5 127t129 348t-129 348t-308.5 127t-306.5 -127t-127 -348zM265 546 q0 157 92 252.5t208 95.5t205 -68l-30 -89q-82 75 -171 75t-149.5 -70t-60.5 -183q0 -112 58 -191.5t155 -79.5t183 90l19 -98q-85 -79 -216 -79t-212 94t-81 251z" />
<glyph unicode="&#xaa;" horiz-adv-x="597" d="M55 374v74h488v-74h-488zM60 657.5q0 47.5 55 103.5t97 56l190 1v29q0 87 -122 87q-76 0 -167 -65q0 9 0.5 22.5t1 35t3.5 44.5q41 15 83.5 29.5t93.5 14.5q95 0 148 -41.5t53 -102.5v-175q0 -83 39 -188h-92q-5 13 -13 33t-13 46q-86 -92 -194 -92t-135.5 57.5 t-27.5 105zM152 653.5q0 -74.5 90 -74.5t160 95v73q-61 -1 -130 -7q-120 -12 -120 -86.5z" />
<glyph unicode="&#xab;" horiz-adv-x="973" d="M56 383l325 380h139l-292 -380l292 -383h-136zM423 383l325 380h138l-291 -380l291 -383h-136z" />
<glyph unicode="&#xac;" d="M82 485v113h715v-343h-113v230h-602z" />
<glyph unicode="&#xad;" horiz-adv-x="952" d="M63 487v90h813v-90h-813z" />
<glyph unicode="&#xae;" horiz-adv-x="1208" d="M112 543q0 268 118.5 382.5t214 150t177.5 35.5t147 -16t157.5 -65.5t168.5 -178t76 -306.5q0 -270 -159.5 -417t-374.5 -147t-370 147.5t-155 414.5zM205 546q0 -222 128 -348.5t307 -126.5t308 127t129 348t-129 348t-308 127t-307 -126.5t-128 -348.5zM408 217 q6 35 6 193v262q0 168 -6 203q88 8 164 8q270 0 270 -190q0 -114 -63 -146t-91 -39q13 -17 32.5 -43.5t42 -56.5t45.5 -61t43.5 -57.5t35.5 -46t22 -26.5h-116l-195 283h-94v-90q0 -150 9 -193h-105zM504 574h87q157 0 157 110q0 121 -157 121q-27 0 -87 -3v-228z" />
<glyph unicode="&#xaf;" horiz-adv-x="710" d="M0 1240v150h710v-150h-710z" />
<glyph unicode="&#xb0;" horiz-adv-x="479" d="M52 923q0 79 54.5 133.5t133.5 54.5t132.5 -55t53.5 -133t-54 -132t-132 -54t-133 53.5t-55 132.5zM139 923q0 -21 7.5 -39.5t21 -32t32 -21t39.5 -7.5t39.5 7.5t32 21t21.5 32t8 39.5t-8 39.5t-21.5 32t-32 21.5t-39.5 8t-39.5 -8t-32 -21.5t-21 -32t-7.5 -39.5z" />
<glyph unicode="&#xb1;" d="M116 149v112h666v-112h-666zM116 624v113h277v284h111v-284h278v-113h-278v-273h-111v273h-277z" />
<glyph unicode="&#xb2;" horiz-adv-x="628" d="M66 508v82q131 87 246.5 211t115.5 215q0 127 -160 127q-38 0 -89 -25.5t-87 -64.5l-22 82q49 65 121.5 80t112.5 15q89 0 158.5 -56.5t69.5 -147.5q0 -181 -324 -438h134q186 0 227 8v-88h-503z" />
<glyph unicode="&#xb3;" horiz-adv-x="628" d="M61 576l14 104q92 -99 213 -99t153 50t32 82q0 61 -62 98t-156 37h-37v83h37q77 0 135.5 37t58.5 82t-41.5 69.5t-94.5 24.5q-118 0 -196 -74l-18 83q31 32 87 54.5t113 22.5q110 0 180 -46.5t70 -114.5t-53 -114.5t-115 -57.5q123 -22 158 -82.5t35 -106.5 q0 -88 -85 -150t-210 -62t-218 80z" />
<glyph unicode="&#xb4;" horiz-adv-x="434" d="M0 875l261 322h173l-314 -322h-120z" />
<glyph unicode="&#xb5;" horiz-adv-x="886" d="M101 763h154v-415q0 -119 49 -181.5t111 -62.5t124.5 67t88.5 143v209q0 121 -14 240h153v-427q0 -205 48 -336h-127q-30 70 -41 149q-68 -106 -135.5 -137t-98.5 -31q-56 0 -96.5 24t-61.5 55v-173q0 -163 19 -254h-158v890q0 141 -15 240z" />
<glyph unicode="&#xb6;" horiz-adv-x="767" d="M37 833.5q0 134.5 90 196.5t202 62h393v-86h-86v-1006h-101v1006h-120v-1006h-101v573q-99 0 -188 63t-89 197.5z" />
<glyph unicode="&#xb7;" horiz-adv-x="507" d="M154 530q0 20 8 39t21.5 32.5t31.5 21.5t49 8t60.5 -29.5t29.5 -60.5t-8 -49.5t-21.5 -32t-31.5 -21.5t-39 -8t-39 8t-31.5 21.5t-21.5 32t-8 38.5z" />
<glyph unicode="&#xb8;" horiz-adv-x="292" d="M0 -330l7 75q29 -22 60 -22q114 0 115 70q0 34 -20.5 53t-54.5 19t-62 -19v191h94v-108q11 4 49 4t71 -36t33 -83q0 -81 -60 -127t-118 -46t-114 29z" />
<glyph unicode="&#xb9;" horiz-adv-x="628" d="M109 1118l165 100h100v-479q0 -164 10 -231h-110v612l-152 -89z" />
<glyph unicode="&#xba;" horiz-adv-x="597" d="M53 374v74h498v-74h-498zM53 783q0 92 73.5 162t180.5 70q171 0 207.5 -99t36.5 -190.5t-72.5 -160t-181.5 -68.5q-171 0 -207.5 97t-36.5 189zM151 754q0 -85 42 -132t109 -47q103 0 127.5 68.5t24.5 132.5t-42 112.5t-110 48.5q-101 0 -126 -70.5t-25 -112.5z" />
<glyph unicode="&#xbb;" horiz-adv-x="973" d="M85 0l293 383l-293 380h139l326 -380l-328 -383h-137zM453 0l291 383l-291 380h138l326 -380l-329 -383h-135z" />
<glyph unicode="&#xbc;" horiz-adv-x="1197" d="M83 1103l156 95h95v-455q0 -157 10 -220h-105v582l-144 -85zM172 -38l808 1235h98l-809 -1235h-97zM647 195v79l292 391h100v-391h98v-79h-98q0 -126 13 -195h-113v195h-292zM748 274h191v265z" />
<glyph unicode="&#xbd;" horiz-adv-x="1197" d="M83 1103l156 95h95v-455q0 -157 10 -220h-105v582l-144 -85zM154 -38l801 1235h98l-802 -1235h-97zM730 0v82q187 137 245 239.5t58 149.5q0 108 -120 108q-63 0 -104.5 -31.5t-56.5 -49.5l-22 81q41 60 104.5 75.5t97.5 15.5q78 0 138 -53t60 -124q0 -115 -89 -228.5 t-184 -185.5h107q154 0 195 6v-85h-429z" />
<glyph unicode="&#xbe;" horiz-adv-x="1197" d="M94 587l10 97q70 -79 176 -79q52 0 91.5 29.5t39.5 89.5q0 124 -165 125h-32v83h32q68 0 107.5 29.5t39.5 71.5q0 81 -105 81q-73 0 -146 -52l-19 79q83 60 168 60q86 0 139 -45.5t53 -124.5q0 -78 -52 -104t-76 -29q55 -5 102 -53t47 -126t-64.5 -138.5t-166.5 -60.5 t-179 67zM172 -38l802 1235h98l-803 -1235h-97zM643 195v79l292 391h101v-391h97v-79h-97q0 -136 11 -195h-112v195h-292zM744 274h191v265z" />
<glyph unicode="&#xbf;" horiz-adv-x="785" d="M104 -83q0 55 24 99.5t76 104.5q51 61 72 92t35 82.5t14 220.5h131q0 -190 -13 -248t-31.5 -90t-51.5 -68q-102 -110 -102 -174q0 -51 35 -81.5t109 -30.5q106 0 185 85l33 -133q-84 -83 -252 -83q-111 0 -187.5 57t-76.5 167zM294 732q0 21 8 39.5t21.5 32t32 21.5 t39.5 8t39 -8t31.5 -21.5t21.5 -31.5t8 -50t-28.5 -60.5t-60.5 -28.5t-50.5 7.5t-32 21t-21.5 31.5t-8 39z" />
<glyph unicode="&#xc0;" horiz-adv-x="1043" d="M29 0q10 24 21 48q35 78 85 217l299 827h161l299 -827q47 -129 71 -186t33 -79h-153l-102 288h-460l-100 -288h-154zM245 1497h172l262 -322h-120zM324 404h379l-190 542z" />
<glyph unicode="&#xc1;" horiz-adv-x="1043" d="M29 0q10 24 21 48q35 78 85 217l299 827h161l299 -827q47 -129 71 -186t33 -79h-153l-102 288h-460l-100 -288h-154zM324 404h379l-190 542zM338 1175l261 322h173l-314 -322h-120z" />
<glyph unicode="&#xc2;" horiz-adv-x="1043" d="M29 0q10 24 21 48q35 78 85 217l299 827h161l299 -827q47 -129 71 -186t33 -79h-153l-102 288h-460l-100 -288h-154zM202 1175l254 322h128l254 -322h-112l-206 209l-205 -209h-113zM324 404h379l-190 542z" />
<glyph unicode="&#xc3;" horiz-adv-x="1043" d="M29 0q10 24 21 48q35 78 85 217l299 827h161l299 -827q47 -129 71 -186t33 -79h-153l-102 288h-460l-100 -288h-154zM259 1202q1 72 29 113q52 74 114 74q33 1 124 -37t119 -38q55 0 67 63h78q0 -76 -30 -116q-52 -71 -118 -71q-33 0 -125 37t-118 37q-27 0 -43 -18 t-18 -44h-79zM324 404h379l-190 542z" />
<glyph unicode="&#xc4;" horiz-adv-x="1043" d="M29 0q10 24 21 48q35 78 85 217l299 827h161l299 -827q47 -129 71 -186t33 -79h-153l-102 288h-460l-100 -288h-154zM258 1316q0 32 28 62t58 29q32 0 50 -8t31 -22t21 -32t7 -39q1 -22 -7 -40t-21 -32t-31 -22t-39 -8t-39 8t-30 22t-20 32t-8 50zM324 404h379l-190 542z M572 1316q0 32 28 62t58 29q32 0 50 -8t30 -22t20 -32t8 -39q0 -22 -8 -40t-20 -32t-30 -22t-39 -8t-39 8t-30 22t-20 32t-8 50z" />
<glyph unicode="&#xc5;" horiz-adv-x="1043" d="M29 0q10 24 21 48q35 78 85 217l299 827h161l299 -827q47 -129 71 -186t33 -79h-153l-102 288h-460l-100 -288h-154zM324 404h379l-190 542zM353 1336q1 34 13 63t34 51t50 34q30 12 64 13q34 -1 63 -13t51 -34t34 -51t12 -63t-12 -64t-34 -50q-22 -22 -51 -34t-63 -13 q-34 1 -64 13t-50 34q-22 22 -34 50q-12 30 -13 64zM438 1336q0 -34 21 -54q21 -21 55 -21t54 21q21 20 21 54t-21 54q-20 20 -54 21q-34 -1 -55 -21t-21 -54z" />
<glyph unicode="&#xc6;" horiz-adv-x="1351" d="M60 0q82 137 160 298l385 794h633v-123h-408v-336h352v-120h-352v-390h123q248 0 308 12v-135h-584q10 65 10 288h-336l-142 -288h-149zM409 404h279v565z" />
<glyph unicode="&#xc7;" horiz-adv-x="1014" d="M71 548q0 258 147 410.5t348 152.5t343 -105l-45 -134q-125 111 -287 111t-261 -111.5t-99 -315.5q0 -205 98.5 -324.5t240.5 -119.5q195 0 334 139l30 -147q-107 -99 -301 -119v-73q11 4 49 4t71 -36t33 -83q0 -81 -60 -127t-118 -46t-114 29l7 75q29 -22 60 -22 q114 0 115 70q0 34 -20.5 53t-54.5 19t-62 -19v153q-212 12 -333 160t-121 406z" />
<glyph unicode="&#xc8;" horiz-adv-x="867" d="M120 0q11 62 11 325v442q0 263 -11 325h635v-123h-481v-336h425v-120h-425v-390h197q247 0 307 12v-135h-658zM173 1497h172l262 -322h-120z" />
<glyph unicode="&#xc9;" horiz-adv-x="867" d="M120 0q11 62 11 325v442q0 263 -11 325h635v-123h-481v-336h425v-120h-425v-390h197q247 0 307 12v-135h-658zM266 1175l261 322h173l-314 -322h-120z" />
<glyph unicode="&#xca;" horiz-adv-x="867" d="M120 0q11 62 11 325v442q0 263 -11 325h635v-123h-481v-336h425v-120h-425v-390h197q247 0 307 12v-135h-658zM130 1175l254 322h128l254 -322h-112l-206 209l-205 -209h-113z" />
<glyph unicode="&#xcb;" horiz-adv-x="867" d="M120 0q11 62 11 325v442q0 263 -11 325h635v-123h-481v-336h425v-120h-425v-390h197q247 0 307 12v-135h-658zM186 1316q0 32 28 62t58 29q32 0 50 -8t31 -22t21 -32t7 -39q1 -22 -7 -40t-21 -32t-31 -22t-39 -8t-39 8t-30 22t-20 32t-8 50zM500 1316q0 32 28 62t58 29 q32 0 50 -8t30 -22t20 -32t8 -39q0 -22 -8 -40t-20 -32t-30 -22t-39 -8t-39 8t-30 22t-20 32t-8 50z" />
<glyph unicode="&#xcc;" horiz-adv-x="730" d="M91 1497h172l262 -322h-120zM104 0v108h180v875h-180v109h506v-109h-184v-875h184v-108h-506z" />
<glyph unicode="&#xcd;" horiz-adv-x="730" d="M104 0v108h180v875h-180v109h506v-109h-184v-875h184v-108h-506zM184 1175l261 322h173l-314 -322h-120z" />
<glyph unicode="&#xce;" horiz-adv-x="730" d="M48 1175l254 322h128l254 -322h-112l-206 209l-205 -209h-113zM104 0v108h180v875h-180v109h506v-109h-184v-875h184v-108h-506z" />
<glyph unicode="&#xcf;" horiz-adv-x="730" d="M104 0v108h180v875h-180v109h506v-109h-184v-875h184v-108h-506zM104 1316q0 32 28 62t58 29q32 0 50 -8t31 -22t21 -32t7 -39q1 -22 -7 -40t-21 -32t-31 -22t-39 -8t-39 8t-30 22t-20 32t-8 50zM418 1316q0 32 28 62t58 29q32 0 50 -8t30 -22t20 -32t8 -39q0 -22 -8 -40 t-20 -32t-30 -22t-39 -8t-39 8t-30 22t-20 32t-8 50z" />
<glyph unicode="&#xd0;" horiz-adv-x="1073" d="M0 516v108h131v204q0 204 -11 264q168 7 274 7t160.5 -6.5t241.5 -71t187 -459.5t-205 -482.5t-333 -87.5q-18 0 -41.5 0.5t-50 1t-54 0.5t-71.5 2t-108 4q11 60 11 88v428h-131zM274 123q91 -7 165 -7q166 0 282.5 104t116.5 328t-109.5 327.5t-287.5 103.5h-11l-156 -2 v-353h284v-108h-284v-393z" />
<glyph unicode="&#xd1;" horiz-adv-x="1122" d="M120 0q11 62 11 325v442q0 263 -11 325h135l594 -864v864h134q-10 -64 -10 -325v-767h-124l-594 860v-860h-135zM291 1202q1 72 29 113q52 74 114 74q33 1 124 -37t119 -38q55 0 67 63h78q0 -76 -30 -116q-52 -71 -118 -71q-32 0 -125 37t-118 37q-27 0 -43 -18t-18 -44 h-79z" />
<glyph unicode="&#xd2;" horiz-adv-x="1092" d="M71 539q0 259 142 415q142 157 332 157t324 -150q133 -150 133 -407t-146 -421q-136 -152 -325 -152q-190 0 -325 150t-135 408zM217 551q0 -198 87 -318q87 -121 232 -121q144 0 232 114q89 114 89 314t-87 320q-87 119 -231 119t-233 -115t-89 -313zM276 1497h172 l262 -322h-120z" />
<glyph unicode="&#xd3;" horiz-adv-x="1092" d="M71 539q0 259 142 415q142 157 332 157t324 -150q133 -150 133 -407t-146 -421q-136 -152 -325 -152q-190 0 -325 150t-135 408zM217 551q0 -198 87 -318q87 -121 232 -121q144 0 232 114q89 114 89 314t-87 320q-87 119 -231 119t-233 -115t-89 -313zM369 1175l261 322 h173l-314 -322h-120z" />
<glyph unicode="&#xd4;" horiz-adv-x="1092" d="M71 539q0 259 142 415q142 157 332 157t324 -150q133 -150 133 -407t-146 -421q-136 -152 -325 -152q-190 0 -325 150t-135 408zM217 551q0 -198 87 -318q87 -121 232 -121q144 0 232 114q89 114 89 314t-87 320q-87 119 -231 119t-233 -115t-89 -313zM233 1175l254 322 h128l254 -322h-112l-206 209l-205 -209h-113z" />
<glyph unicode="&#xd5;" horiz-adv-x="1092" d="M71 539q0 259 142 415q142 157 332 157t324 -150q133 -150 133 -407t-146 -421q-136 -152 -325 -152q-190 0 -325 150t-135 408zM217 551q0 -198 87 -318q87 -121 232 -121q144 0 232 114q89 114 89 314t-87 320q-87 119 -231 119t-233 -115t-89 -313zM290 1202 q0 72 28 113q52 74 115 74q33 1 124 -37t119 -38q55 0 67 63h78q1 -76 -29 -116q-52 -71 -119 -71q-32 0 -125 37q-92 37 -118 37t-42 -18t-19 -44h-79z" />
<glyph unicode="&#xd6;" horiz-adv-x="1092" d="M71 539q0 259 142 415q142 157 332 157t324 -150q133 -150 133 -407t-146 -421q-136 -152 -325 -152q-190 0 -325 150t-135 408zM217 551q0 -198 87 -318q87 -121 232 -121q144 0 232 114q89 114 89 314t-87 320q-87 119 -231 119t-233 -115t-89 -313zM289 1316 q-1 32 27 62t60 29q32 0 49 -8q18 -8 31 -22q12 -14 20 -32t8 -39q0 -22 -8 -40t-20 -32q-13 -14 -31 -22t-39 -8q-20 0 -38 8t-31 22t-21 32t-7 50zM603 1316q-1 32 27 62t60 29q32 0 49 -8q19 -8 31 -22t20 -32t7 -39q1 -22 -7 -40t-20 -32t-31 -22q-18 -8 -39 -8 q-20 0 -38 8t-31 22t-21 32t-7 50z" />
<glyph unicode="&#xd7;" d="M147 764l80 79l223 -224l221 220l79 -79l-220 -220l216 -216l-80 -79l-216 216l-218 -220l-80 80l219 219z" />
<glyph unicode="&#xd8;" horiz-adv-x="1092" d="M71 530q0 268 142 424.5t332 156.5q107 0 202 -52l46 85h109l-76 -141q176 -158 176 -432t-141 -432t-330 -158q-120 0 -222 62l-53 -99h-111l86 160q-160 158 -160 426zM217 552q0 -197 85 -317l381 705q-65 39 -140 39q-148 0 -237 -115t-89 -312zM374 163 q70 -51 152 -51q154 0 242.5 114t88.5 322t-100 327z" />
<glyph unicode="&#xd9;" horiz-adv-x="1077" d="M120 1092h154v-673q0 -237 134 -296q50 -22 122 -22q140 0 197 81q58 81 58 237v673h154q-12 -67 -12 -325v-382q-1 -289 -221 -375q-74 -29 -176 -29q-198 0 -298 108q-101 108 -101 296v382q0 254 -11 325zM262 1497h172l262 -322h-120z" />
<glyph unicode="&#xda;" horiz-adv-x="1077" d="M120 1092h154v-673q0 -237 134 -296q50 -22 122 -22q140 0 197 81q58 81 58 237v673h154q-12 -67 -12 -325v-382q-1 -289 -221 -375q-74 -29 -176 -29q-198 0 -298 108q-101 108 -101 296v382q0 254 -11 325zM355 1175l261 322h173l-314 -322h-120z" />
<glyph unicode="&#xdb;" horiz-adv-x="1077" d="M120 1092h154v-673q0 -237 134 -296q50 -22 122 -22q140 0 197 81q58 81 58 237v673h154q-12 -67 -12 -325v-382q-1 -289 -221 -375q-74 -29 -176 -29q-198 0 -298 108q-101 108 -101 296v382q0 254 -11 325zM219 1175l254 322h128l254 -322h-112l-206 209l-205 -209 h-113z" />
<glyph unicode="&#xdc;" horiz-adv-x="1077" d="M120 1092h154v-673q0 -237 134 -296q50 -22 122 -22q140 0 197 81q58 81 58 237v673h154q-12 -67 -12 -325v-382q-1 -289 -221 -375q-74 -29 -176 -29q-198 0 -298 108q-101 108 -101 296v382q0 254 -11 325zM275 1316q-1 32 27 62t60 29q32 0 49 -8q18 -8 31 -22 q12 -14 20 -32t8 -39q0 -22 -8 -40t-20 -32q-13 -14 -31 -22t-39 -8q-20 0 -38 8t-31 22t-21 32t-7 50zM589 1316q-1 32 27 62t60 29q32 0 49 -8q19 -8 31 -22t20 -32t7 -39q1 -22 -7 -40t-20 -32t-31 -22q-18 -8 -39 -8q-20 0 -38 8t-31 22t-21 32t-7 50z" />
<glyph unicode="&#xdd;" horiz-adv-x="987" d="M26 1092h173l295 -494l280 494h172q-98 -143 -187 -295l-201 -346v-126q0 -269 10 -325h-164q11 62 11 325v132l-198 340q-89 157 -191 295zM314 1175l261 322h173l-314 -322h-120z" />
<glyph unicode="&#xde;" horiz-adv-x="895" d="M120 0q11 62 11 325v353q0 354 -11 414h154v-196l164 2q285 0 341 -124t56 -206q0 -165 -106.5 -259.5t-290.5 -94.5q-94 0 -164 6q0 -165 10 -220h-164zM274 336q61 -7 152 -7q267 0 267 191t-94 224.5t-171 33.5t-154 -4v-438z" />
<glyph unicode="&#xdf;" horiz-adv-x="925" d="M97 0q23 115 23 369v469q0 189 99 281.5t254 92.5t246 -74.5t91 -177.5q0 -138 -98.5 -192t-120 -78t-21.5 -55t13 -51.5t33.5 -36t46 -28.5t51.5 -29q75 -45 122.5 -100.5t47.5 -131.5q0 -136 -80.5 -206.5t-209.5 -70.5q-82 0 -132.5 22.5t-64.5 32.5l38 135 q41 -44 89 -57t76 -13q64 0 108.5 36.5t44.5 100.5q0 87 -131 155q-82 41 -134.5 96.5t-52.5 150.5t98 151t119.5 86.5t21.5 65.5q0 64 -58.5 106.5t-111.5 42.5q-105 0 -175.5 -54.5t-70.5 -170.5v-867h-161z" />
<glyph unicode="&#xe0;" horiz-adv-x="838" d="M71 191q1 159 155 231q58 26 110 32q53 6 83 8t60 5t56 5t38 3v56q0 127 -180 127q-112 0 -244 -94q1 13 1 33q2 88 7 114q113 49 170 58t110 9q117 0 196 -60q78 -60 78 -150v-292q0 -135 56 -276h-134q-25 57 -38 116q-127 -135 -281 -135q-104 0 -174 63 q-69 63 -69 147zM136 1197h172l262 -322h-120zM205 209q0 -51 35 -78t80 -27q81 0 135 28t118 111v127q-25 0 -101 -8l-94 -11q-173 -22 -173 -142z" />
<glyph unicode="&#xe1;" horiz-adv-x="838" d="M71 191q1 159 155 231q58 26 110 32q53 6 83 8t60 5t56 5t38 3v56q0 127 -180 127q-112 0 -244 -94q1 13 1 33q2 88 7 114q113 49 170 58t110 9q117 0 196 -60q78 -60 78 -150v-292q0 -135 56 -276h-134q-25 57 -38 116q-127 -135 -281 -135q-104 0 -174 63 q-69 63 -69 147zM205 209q0 -51 35 -78t80 -27q81 0 135 28t118 111v127q-25 0 -101 -8l-94 -11q-173 -22 -173 -142zM229 875l261 322h173l-314 -322h-120z" />
<glyph unicode="&#xe2;" horiz-adv-x="838" d="M71 191q1 159 155 231q58 26 110 32q53 6 83 8t60 5t56 5t38 3v56q0 127 -180 127q-112 0 -244 -94q1 13 1 33q2 88 7 114q113 49 170 58t110 9q117 0 196 -60q78 -60 78 -150v-292q0 -135 56 -276h-134q-25 57 -38 116q-127 -135 -281 -135q-104 0 -174 63 q-69 63 -69 147zM93 875l254 322h128l254 -322h-112l-206 209l-205 -209h-113zM205 209q0 -51 35 -78t80 -27q81 0 135 28t118 111v127q-25 0 -101 -8l-94 -11q-173 -22 -173 -142z" />
<glyph unicode="&#xe3;" horiz-adv-x="838" d="M71 191q1 159 155 231q58 26 110 32q53 6 83 8t60 5t56 5t38 3v56q0 127 -180 127q-112 0 -244 -94q1 13 1 33q2 88 7 114q113 49 170 58t110 9q117 0 196 -60q78 -60 78 -150v-292q0 -135 56 -276h-134q-25 57 -38 116q-127 -135 -281 -135q-104 0 -174 63 q-69 63 -69 147zM150 902q0 72 28 113q52 74 115 74q33 1 124 -37q91 -37 119 -38q55 0 67 63h78q1 -76 -29 -116q-52 -71 -119 -71q-32 0 -125 37t-118 37q-26 0 -42 -18t-19 -44h-79zM205 209q0 -51 35 -78t80 -27q81 0 135 28t118 111v127q-25 0 -101 -8l-94 -11 q-173 -22 -173 -142z" />
<glyph unicode="&#xe4;" horiz-adv-x="838" d="M71 191q1 159 155 231q58 26 110 32q53 6 83 8t60 5t56 5t38 3v56q0 127 -180 127q-112 0 -244 -94q1 13 1 33q2 88 7 114q113 49 170 58t110 9q117 0 196 -60q78 -60 78 -150v-292q0 -135 56 -276h-134q-25 57 -38 116q-127 -135 -281 -135q-104 0 -174 63 q-69 63 -69 147zM149 1016q-1 32 27 62t60 29q32 0 49 -8q18 -8 31 -22q12 -14 20 -32t8 -39q0 -22 -8 -40t-20 -32q-13 -14 -31 -22t-39 -8q-20 0 -38 8t-31 22t-21 32t-7 50zM205 209q0 -51 35 -78t80 -27q81 0 135 28t118 111v127q-25 0 -101 -8l-94 -11 q-173 -22 -173 -142zM463 1016q-1 32 27 62t60 29q32 0 49 -8q19 -8 31 -22t20 -32t7 -39q1 -22 -7 -40t-20 -32t-31 -22q-18 -8 -39 -8q-20 0 -38 8t-31 22t-21 32t-7 50z" />
<glyph unicode="&#xe5;" horiz-adv-x="838" d="M71 191q1 159 155 231q58 26 110 32q53 6 83 8t60 5t56 5t38 3v56q0 127 -180 127q-112 0 -244 -94q1 13 1 33q2 88 7 114q113 49 170 58t110 9q117 0 196 -60q78 -60 78 -150v-292q0 -135 56 -276h-134q-25 57 -38 116q-127 -135 -281 -135q-104 0 -174 63 q-69 63 -69 147zM205 209q0 -51 35 -78t80 -27q81 0 135 28t118 111v127q-25 0 -101 -8l-94 -11q-173 -22 -173 -142zM244 1036q0 34 12 63t34 51t52 34t63 13q34 -1 63 -13q28 -12 50 -34t34 -51t13 -63q-1 -34 -13 -64t-34 -50q-22 -22 -50 -34q-29 -12 -63 -13 q-33 1 -63 13t-52 34t-34 50q-12 30 -12 64zM329 1036q0 -34 21 -54q20 -21 54 -21t55 21q21 20 21 54t-21 54t-55 21q-34 -1 -54 -21q-21 -20 -21 -54z" />
<glyph unicode="&#xe6;" horiz-adv-x="1305" d="M71 226q0 119 114 174t214 60t127 5.5t38 1.5v64q0 127 -194 127q-76 0 -132 -35.5t-89 -58.5q1 13 2.5 67t5.5 80q29 12 55.5 24t73 27.5t120.5 15.5t143 -32.5t109 -98.5q106 131 269 131t231 -103t68 -252v-60h-531q4 -125 71.5 -192t175.5 -67q152 0 274 76l15 -124 q-143 -75 -308 -75q-93 0 -173 41.5t-130 123.5q-10 -13 -34 -37q-117 -128 -272 -128q-104 0 -173.5 63t-69.5 182zM209 215q0 -50 35 -80.5t78 -30.5q79 0 131.5 27t110.5 112q9 9 12 18q-12 58 -12 102q-14 -1 -39.5 -1.5t-170.5 -8t-145 -138.5zM703 467h389 q0 94 -49 146t-127 52t-136 -48t-77 -150z" />
<glyph unicode="&#xe7;" horiz-adv-x="763" d="M71 374q0 166 107.5 285t281.5 119q134 0 224 -64l-26 -135q-102 76 -207 76t-171 -75.5t-66 -201.5t63 -200t181 -74t219 91l16 -131q-100 -75 -225 -82v-69q11 4 49 4t71 -36t33 -83q0 -81 -60 -127t-118 -46t-114 29l7 75q29 -22 60 -22q114 0 115 70q0 34 -20.5 53 t-54.5 19t-62 -19v156q-131 18 -217 119.5t-86 268.5z" />
<glyph unicode="&#xe8;" horiz-adv-x="819" d="M71 371q0 185 97 296t264 111t246 -115q62 -90 62 -242v-58h-531q6 -191 145 -243q43 -16 94 -16q160 0 282 76l14 -124q-143 -75 -304 -75t-265 103t-104 287zM154 1197h172l262 -322h-120zM215 467h390q1 145 -111 185q-34 12 -75 13q-173 0 -204 -198z" />
<glyph unicode="&#xe9;" horiz-adv-x="819" d="M71 371q0 185 97 296t264 111t246 -115q62 -90 62 -242v-58h-531q6 -191 145 -243q43 -16 94 -16q160 0 282 76l14 -124q-143 -75 -304 -75t-265 103t-104 287zM215 467h390q1 145 -111 185q-34 12 -75 13q-173 0 -204 -198zM247 875l261 322h173l-314 -322h-120z" />
<glyph unicode="&#xea;" horiz-adv-x="819" d="M71 371q0 185 97 296t264 111t246 -115q62 -90 62 -242v-58h-531q6 -191 145 -243q43 -16 94 -16q160 0 282 76l14 -124q-143 -75 -304 -75t-265 103t-104 287zM111 875l254 322h128l254 -322h-112l-206 209l-205 -209h-113zM215 467h390q1 145 -111 185q-34 12 -75 13 q-173 0 -204 -198z" />
<glyph unicode="&#xeb;" horiz-adv-x="819" d="M71 371q0 185 97 296t264 111t246 -115q62 -90 62 -242v-58h-531q6 -191 145 -243q43 -16 94 -16q160 0 282 76l14 -124q-143 -75 -304 -75t-265 103t-104 287zM167 1016q-1 32 27 62t60 29q32 0 49 -8q18 -8 31 -22q12 -14 20 -32t8 -39q0 -22 -8 -40t-20 -32 q-13 -14 -31 -22t-39 -8q-20 0 -38 8t-31 22t-21 32t-7 50zM215 467h390q1 145 -111 185q-34 12 -75 13q-173 0 -204 -198zM481 1016q-1 32 27 62t60 29q32 0 49 -8q19 -8 31 -22t20 -32t7 -39q1 -22 -7 -40t-20 -32t-31 -22q-18 -8 -39 -8q-20 0 -38 8t-31 22t-21 32t-7 50 z" />
<glyph unicode="&#xec;" horiz-adv-x="423" d="M-66 1197h172l262 -322h-120zM131 763h149v-408q0 -242 15 -355h-153v396q0 284 -11 367z" />
<glyph unicode="&#xed;" horiz-adv-x="423" d="M27 875l261 322h173l-314 -322h-120zM131 763h149v-408q0 -242 15 -355h-153v396q0 284 -11 367z" />
<glyph unicode="&#xee;" horiz-adv-x="423" d="M-109 875l254 322h128l254 -322h-112l-206 209l-205 -209h-113zM131 763h149v-408q0 -242 15 -355h-153v396q0 284 -11 367z" />
<glyph unicode="&#xef;" horiz-adv-x="423" d="M-53 1016q-1 32 27 62t60 29q32 0 49 -8q18 -8 31 -22q12 -14 20 -32t8 -39q0 -22 -8 -40t-20 -32q-13 -14 -31 -22t-39 -8q-20 0 -38 8t-31 22t-21 32t-7 50zM131 763h149v-408q0 -242 15 -355h-153v396q0 284 -11 367zM261 1016q-1 32 27 62t60 29q32 0 49 -8 q19 -8 31 -22t20 -32t7 -39q1 -22 -7 -40t-20 -32t-31 -22q-18 -8 -39 -8q-20 0 -38 8t-31 22t-21 32t-7 50z" />
<glyph unicode="&#xf0;" horiz-adv-x="867" d="M71 358q0 176 100.5 283t221.5 107q85 0 137 -23.5t107 -74.5q-47 154 -160 294l-175 -108l-62 81l168 104q-83 83 -170 125l131 66q76 -47 149 -123l163 101l64 -79l-162 -101q202 -268 202 -578q0 -211 -95.5 -331t-261.5 -120t-261.5 100.5t-95.5 276.5zM209 363 q0 -121 59 -191.5t159 -70.5t158 71.5t58 192.5t-59 192t-159 71q-99 0 -157.5 -72t-58.5 -193z" />
<glyph unicode="&#xf1;" horiz-adv-x="886" d="M79 763h135q14 -43 29 -146q135 161 296 161q246 0 246 -311v-467h-138v411q0 193 -84 225q-28 10 -67 11q-76 0 -146 -67t-95 -146v-434h-139v460q0 186 -37 303zM187 902q1 72 29 113q52 74 114 74q33 1 124 -37q91 -37 119 -38q55 0 67 63h78q0 -76 -30 -116 q-52 -71 -118 -71q-32 0 -125 37q-92 37 -118 37q-27 0 -43 -18t-18 -44h-79z" />
<glyph unicode="&#xf2;" horiz-adv-x="853" d="M71 376q0 188 104 295t260 107q157 0 252 -105t95 -293t-104 -294q-104 -105 -260 -105t-252 104q-95 104 -95 291zM161 1197h172l262 -322h-120zM209 377q0 -128 59 -202t155 -74t158 74t62 204q0 129 -60 204t-155 75q-96 0 -158 -76q-61 -76 -61 -205z" />
<glyph unicode="&#xf3;" horiz-adv-x="853" d="M71 376q0 188 104 295t260 107q157 0 252 -105t95 -293t-104 -294q-104 -105 -260 -105t-252 104q-95 104 -95 291zM209 377q0 -128 59 -202t155 -74t158 74t62 204q0 129 -60 204t-155 75q-96 0 -158 -76q-61 -76 -61 -205zM254 875l261 322h173l-314 -322h-120z" />
<glyph unicode="&#xf4;" horiz-adv-x="853" d="M71 376q0 188 104 295t260 107q157 0 252 -105t95 -293t-104 -294q-104 -105 -260 -105t-252 104q-95 104 -95 291zM118 875l254 322h128l254 -322h-112l-206 209l-205 -209h-113zM209 377q0 -128 59 -202t155 -74t158 74t62 204q0 129 -60 204t-155 75q-96 0 -158 -76 q-61 -76 -61 -205z" />
<glyph unicode="&#xf5;" horiz-adv-x="853" d="M71 376q0 188 104 295t260 107q157 0 252 -105t95 -293t-104 -294q-104 -105 -260 -105t-252 104q-95 104 -95 291zM175 902q1 72 29 113q52 74 114 74q33 1 124 -37t119 -38q55 0 67 63h78q0 -76 -30 -116q-52 -71 -118 -71q-32 0 -125 37t-118 37q-27 0 -43 -18 t-18 -44h-79zM209 377q0 -128 59 -202t155 -74t158 74t62 204q0 129 -60 204t-155 75q-96 0 -158 -76q-61 -76 -61 -205z" />
<glyph unicode="&#xf6;" horiz-adv-x="853" d="M71 376q0 188 104 295t260 107q157 0 252 -105t95 -293t-104 -294q-104 -105 -260 -105t-252 104q-95 104 -95 291zM174 1016q0 32 28 62t58 29q32 0 50 -8t31 -22t21 -32t7 -39q1 -22 -7 -40t-21 -32t-31 -22t-39 -8t-39 8t-30 22t-20 32t-8 50zM209 377q0 -128 59 -202 t155 -74t158 74t62 204q0 129 -60 204t-155 75q-96 0 -158 -76q-61 -76 -61 -205zM488 1016q0 32 28 62t58 29q32 0 50 -8t30 -22t20 -32t8 -39q0 -22 -8 -40t-20 -32t-30 -22t-39 -8t-39 8t-30 22t-20 32t-8 50z" />
<glyph unicode="&#xf7;" d="M116 485v113h666v-113h-666zM342 304q0 21 8.5 40t23.5 33.5t34 22.5t40 8t40 -8t33.5 -22.5t22.5 -33.5t8 -40t-8 -40.5t-22.5 -33.5t-33.5 -22.5t-40 -8.5t-40 8.5t-34 22.5t-23.5 33.5t-8.5 40.5zM342 782q0 21 8.5 40t23.5 33t34 22t40 8t40 -8t33.5 -22t22.5 -33 t8 -40t-8 -40.5t-22.5 -33.5t-33.5 -22.5t-40 -8.5t-40 8.5t-34 22.5t-23.5 33.5t-8.5 40.5z" />
<glyph unicode="&#xf8;" horiz-adv-x="853" d="M71 367q0 197 103.5 304t259.5 107q69 0 127 -22l38 70h111l-63 -117q135 -107 135 -330q0 -186 -104 -292t-259 -106q-82 0 -149 29l-35 -66h-112l65 120q-117 107 -117 303zM209 386q0 -122 48 -195l244 453q-36 14 -78 14q-91 0 -152.5 -75.5t-61.5 -196.5zM331 123 q41 -22 91 -22q97 0 159 75t62 204t-62 206z" />
<glyph unicode="&#xf9;" horiz-adv-x="886" d="M101 763h154v-415q0 -129 21 -173q21 -43 45 -57q25 -14 59 -14q65 0 140 68q76 68 108 142v209q0 121 -14 240h153v-427q0 -205 48 -336h-127q-30 70 -41 149q-139 -168 -292 -168q-239 0 -239 322v220q0 141 -15 240zM167 1197h172l262 -322h-120z" />
<glyph unicode="&#xfa;" horiz-adv-x="886" d="M101 763h154v-415q0 -129 21 -173q21 -43 45 -57q25 -14 59 -14q65 0 140 68q76 68 108 142v209q0 121 -14 240h153v-427q0 -205 48 -336h-127q-30 70 -41 149q-139 -168 -292 -168q-239 0 -239 322v220q0 141 -15 240zM260 875l261 322h173l-314 -322h-120z" />
<glyph unicode="&#xfb;" horiz-adv-x="886" d="M101 763h154v-415q0 -129 21 -173q21 -43 45 -57q25 -14 59 -14q65 0 140 68q76 68 108 142v209q0 121 -14 240h153v-427q0 -205 48 -336h-127q-30 70 -41 149q-139 -168 -292 -168q-239 0 -239 322v220q0 141 -15 240zM124 875l254 322h128l254 -322h-112l-206 209 l-205 -209h-113z" />
<glyph unicode="&#xfc;" horiz-adv-x="886" d="M101 763h154v-415q0 -129 21 -173q21 -43 45 -57q25 -14 59 -14q65 0 140 68q76 68 108 142v209q0 121 -14 240h153v-427q0 -205 48 -336h-127q-30 70 -41 149q-139 -168 -292 -168q-239 0 -239 322v220q0 141 -15 240zM180 1016q0 32 28 62t58 29q32 0 50 -8t31 -22 t21 -32t7 -39q1 -22 -7 -40t-21 -32t-31 -22t-39 -8t-39 8t-30 22t-20 32t-8 50zM494 1016q0 32 28 62t58 29q32 0 50 -8t30 -22t20 -32t8 -39q0 -22 -8 -40t-20 -32t-30 -22t-39 -8t-39 8t-30 22t-20 32t-8 50z" />
<glyph unicode="&#xfd;" horiz-adv-x="793" d="M-15 -288l44 120q67 -56 129 -56q61 0 91 30q54 54 102 174l-209 518q-45 116 -120 265h150l242 -612l214 612h150q-68 -152 -108 -265l-180 -498q-106 -291 -232 -337q-42 -15 -92 -15q-92 0 -181 64zM240 875l261 322h173l-314 -322h-120z" />
<glyph unicode="&#xfe;" horiz-adv-x="875" d="M101 1197h154v-561q112 142 276 142q53 0 105.5 -28.5t110 -106t57.5 -255.5q0 -177 -98 -292t-242 -115q-60 0 -108.5 22.5t-100.5 60.5v-177q0 -163 19 -254h-158v1212q0 230 -15 352zM255 195q109 -77 146 -84t70 -7q75 0 134.5 75.5t59.5 198.5q0 193 -65.5 233 t-101.5 40q-73 0 -139 -58.5t-104 -162.5v-235z" />
<glyph unicode="&#xff;" horiz-adv-x="793" d="M-15 -288l44 120q67 -56 129 -56q61 0 91 30q54 54 102 174l-209 518q-45 116 -120 265h150l242 -612l214 612h150q-68 -152 -108 -265l-180 -498q-106 -291 -232 -337q-42 -15 -92 -15q-92 0 -181 64zM160 1016q0 32 28 62t58 29q32 0 50 -8t31 -22t21 -32t7 -39 q1 -22 -7 -40t-21 -32t-31 -22t-39 -8t-39 8t-30 22t-20 32t-8 50zM474 1016q0 32 28 62t58 29q32 0 50 -8t30 -22t20 -32t8 -39q0 -22 -8 -40t-20 -32t-30 -22t-39 -8t-39 8t-30 22t-20 32t-8 50z" />
<glyph unicode="&#x152;" horiz-adv-x="1458" d="M71 539q0 260 130.5 416t307.5 156q176 0 288 -141v122h549v-123h-407v-336h352v-120h-352v-390h122q248 0 308 12v-135h-572v123q-131 -142 -305 -142t-297.5 149.5t-123.5 408.5zM217 551q0 -198 78 -318.5t215 -120.5t215.5 111.5t78.5 315.5t-77 322t-214 118 t-216.5 -115t-79.5 -313z" />
<glyph unicode="&#x153;" horiz-adv-x="1392" d="M71 377q0 187 103.5 294t259.5 107q188 0 281 -142q100 142 278 142t249 -103.5t71 -253.5v-24q0 -24 -1 -34h-530q4 -127 68 -193t171 -66q158 0 280 76l16 -124q-146 -75 -326 -75q-179 0 -280 147q-104 -147 -292 -147q-158 0 -253 104.5t-95 291.5zM209 378.5 q0 -128.5 60 -203t154 -74.5q95 0 157.5 75t62.5 238.5t-84.5 203.5t-130.5 40t-86.5 -19t-86.5 -75.5t-46 -185zM788 467h390q0 144 -73 171t-113 27q-173 0 -204 -198z" />
<glyph unicode="&#x178;" horiz-adv-x="987" d="M26 1092h173l295 -494l280 494h172q-98 -143 -187 -295l-201 -346v-126q0 -269 10 -325h-164q11 62 11 325v132l-198 340q-89 157 -191 295zM234 1316q0 32 28 62t58 29q32 0 50 -8t31 -22t21 -32t7 -39q1 -22 -7 -40t-21 -32t-31 -22t-39 -8t-39 8t-30 22t-20 32t-8 50z M548 1316q0 32 28 62t58 29q32 0 50 -8t30 -22t20 -32t8 -39q0 -22 -8 -40t-20 -32t-30 -22t-39 -8t-39 8t-30 22t-20 32t-8 50z" />
<glyph unicode="&#x2c6;" horiz-adv-x="651" d="M7 875l254 322h128l254 -322h-112l-206 209l-205 -209h-113z" />
<glyph unicode="&#x2dc;" horiz-adv-x="531" d="M0 902q0 72 40 129.5t103 57.5q33 0 124 -37.5t119 -37.5q55 0 67 63h78q0 -76 -41 -131.5t-107 -55.5q-32 0 -125 37t-118 37q-26 0 -42.5 -17.5t-18.5 -44.5h-79z" />
<glyph unicode="&#x2000;" horiz-adv-x="748" />
<glyph unicode="&#x2001;" horiz-adv-x="1497" />
<glyph unicode="&#x2002;" horiz-adv-x="748" />
<glyph unicode="&#x2003;" horiz-adv-x="1497" />
<glyph unicode="&#x2004;" horiz-adv-x="499" />
<glyph unicode="&#x2005;" horiz-adv-x="374" />
<glyph unicode="&#x2006;" horiz-adv-x="249" />
<glyph unicode="&#x2007;" horiz-adv-x="249" />
<glyph unicode="&#x2008;" horiz-adv-x="187" />
<glyph unicode="&#x2009;" horiz-adv-x="299" />
<glyph unicode="&#x200a;" horiz-adv-x="83" />
<glyph unicode="&#x2010;" horiz-adv-x="860" d="M80 555v150h700v-150h-700z" />
<glyph unicode="&#x2011;" horiz-adv-x="860" d="M80 555v150h700v-150h-700z" />
<glyph unicode="&#x2012;" horiz-adv-x="860" d="M80 555v150h700v-150h-700z" />
<glyph unicode="&#x2013;" horiz-adv-x="789" d="M60 415v112h670v-112h-670z" />
<glyph unicode="&#x2014;" horiz-adv-x="1298" d="M60 415v112h1178v-112h-1178z" />
<glyph unicode="&#x2018;" horiz-adv-x="396" d="M116 926q0 134 130 260l75 -30q-65 -69 -83 -125.5t-18 -84.5h105v-74q-16 -75 -115 -75q-30 0 -62 33t-32 96z" />
<glyph unicode="&#x2019;" horiz-adv-x="408" d="M123 1036v75q17 75 115 75q30 0 62.5 -33.5t32.5 -96.5q0 -135 -132 -259l-75 29q64 60 83 120.5t19 89.5h-105z" />
<glyph unicode="&#x201a;" horiz-adv-x="568" d="M199 37v75q9 51 46.5 62.5t68.5 11.5t62.5 -33.5t31.5 -95.5q0 -135 -132 -259l-75 29q64 68 83 125t19 85h-104z" />
<glyph unicode="&#x201c;" horiz-adv-x="785" d="M154 926q0 136 130 260l75 -30q-63 -63 -82 -122.5t-19 -87.5h105v-74q-17 -75 -117 -75q-30 0 -61 33t-31 96zM475 926q0 134 130 260l75 -30q-65 -69 -83 -125.5t-18 -84.5h105v-74q-17 -75 -116 -75q-30 0 -61.5 33t-31.5 96z" />
<glyph unicode="&#x201d;" horiz-adv-x="755" d="M154 1036v75q5 33 35.5 54t71.5 21q40 0 71 -34.5t31 -96.5q0 -135 -131 -258l-75 29q64 64 82.5 122.5t18.5 87.5h-104zM475 1036v75q5 32 28.5 48.5t40 21.5t46.5 5t62 -33.5t32 -96.5q0 -137 -130 -259l-75 29q62 62 81 121.5t19 88.5h-104z" />
<glyph unicode="&#x201e;" horiz-adv-x="853" d="M161 37v75q8 36 38 55t69 19t70.5 -33.5t31.5 -95.5q0 -136 -131 -259l-75 29q65 69 83 125.5t18 84.5h-104zM483 37v75q7 36 37.5 55t69.5 19t71 -34t32 -96q0 -133 -133 -258l-75 29q65 65 83.5 123.5t18.5 86.5h-104z" />
<glyph unicode="&#x2022;" horiz-adv-x="703" d="M186 548q0 67 48.5 115.5t116.5 48.5t116.5 -48.5t48.5 -115.5t-49 -116t-116 -49t-116 49t-49 116z" />
<glyph unicode="&#x2026;" horiz-adv-x="1290" d="M139 82q0 21 7.5 39.5t21 32t32 21.5t39.5 8t39 -8t32 -21.5t22 -32t8 -39.5t-8 -39t-22 -32t-32 -22t-39 -8t-39.5 8t-32 22t-21 32t-7.5 39zM542 82q0 21 8 39.5t21.5 32t32 21.5t39.5 8t39 -8t32 -21.5t22 -32t8 -39.5t-8 -39t-22 -32t-32 -22t-39 -8t-39.5 8t-32 22 t-21.5 32t-8 39zM950 70.5q0 54.5 30.5 83.5t60.5 29q31 0 49.5 -8t32 -21.5t21.5 -32t8 -49t-38.5 -70.5t-101 -13t-62.5 81.5z" />
<glyph unicode="&#x202f;" horiz-adv-x="299" />
<glyph unicode="&#x2039;" horiz-adv-x="591" d="M56 381l325 382h123l-276 -382l276 -381h-123z" />
<glyph unicode="&#x203a;" horiz-adv-x="591" d="M56 0l277 381l-277 382h124l324 -382l-324 -381h-124z" />
<glyph unicode="&#x205f;" horiz-adv-x="374" />
<glyph unicode="&#x20ac;" d="M15 396l30 108h90v27q0 33 2 67h-122l30 109h106q36 193 152 298.5t270 105.5q113 0 172 -34.5t97 -62.5l-45 -135q-117 103 -229 103q-101 0 -174 -72t-102 -203h348l-29 -109h-334q-1 -12 -1 -15v-35q0 -33 1 -44h313l-30 -108h-270q40 -202 130.5 -243t143.5 -41 q124 0 255 131l30 -146q-124 -116 -296 -116t-276.5 110.5t-132.5 304.5h-129z" />
<glyph unicode="&#x2122;" horiz-adv-x="1245" d="M45 1014v78h475v-78q-42 8 -101 8h-97v-351q0 -136 9 -179h-96q7 42 7 179v351h-98q-59 0 -99 -8zM550 492q6 49 29 600h95l176 -516l177 516h93q19 -548 29 -600h-78l-13 486l-167 -486h-82l-169 486l-12 -486h-78z" />
<glyph unicode="&#x25fc;" horiz-adv-x="765" d="M0 0v765h765v-765h-765z" />
</font>
</defs>
</svg>
