<svg xmlns="http://www.w3.org/2000/svg" xmlns:xlink="http://www.w3.org/1999/xlink" version="1.1"><metadata/><defs><font id="hsishraq-lightuploaded_file" horiz-adv-x="624"><font-face ascent="1290" descent="-758" units-per-em="2048"/><glyph horiz-adv-x="0"/><glyph horiz-adv-x="0"/><glyph horiz-adv-x="899"/><glyph horiz-adv-x="327"/><glyph horiz-adv-x="327"/><glyph horiz-adv-x="327"/><glyph d="M123 77q1 31 23 55t54 24t56 -24t23 -56q0 -32 -24 -54q-23 -22 -55 -22t-54 22t-23 55zM135 311v908h129l-10 -908h-119z" horiz-adv-x="401" unicode="!"/><glyph d="M123 866v361h115v-361h-115zM315 866v361h113v-361h-113z" horiz-adv-x="550" unicode="&quot;"/><glyph d="M51 375v106h174l7 56q5 42 18 122q12 80 14 99h-162v102h179l43 369h114l-49 -369h189q2 23 10 75t20 152t21 142h108l-51 -369h170v-102h-180l-37 -277h170v-106h-182l-52 -375h-116l51 375h-178l-58 -375h-116l57 375h-164zM338 481h184q2 13 7 53t13 93t17 131h-180z" horiz-adv-x="876" unicode="#"/><glyph d="M51 745v265q0 113 71 166t169 53q159 0 214 -122q19 -42 19 -97v-265q0 -105 -66 -162t-166 -58q-99 -1 -170 55t-71 165zM168 754q0 -53 35 -84t87 -31t84 31t32 84v250q0 53 -32 85q-32 31 -84 31t-87 -32t-35 -84v-250zM215 -45l739 1302h127l-743 -1302h-123z M782 213v268q0 103 66 161t166 58t169 -55t68 -164v-268q0 -104 -68 -160q-69 -55 -169 -55t-165 57q-66 57 -67 158zM899 223q0 -51 33 -83t85 -32t86 32t34 83v254q0 51 -34 82t-86 31t-85 -31t-33 -82v-254z" horiz-adv-x="1302" unicode="%"/><glyph d="M123 868v361h113v-361h-113z" horiz-adv-x="358" unicode="'"/><glyph d="M123 530q0 291 174 580q53 88 119 162l78 -58q-109 -154 -169 -330q-122 -358 3 -709q63 -179 168 -329l-68 -51q-128 111 -218 324q-89 214 -87 411z" horiz-adv-x="679" unicode="("/><glyph d="M184 1214l84 52q204 -230 268 -540q20 -100 21 -200q0 -284 -180 -583q-53 -88 -115 -160l-76 63q106 146 170 326q126 357 2 709q-61 176 -174 333z" horiz-adv-x="679" unicode=")"/><glyph d="M82 891l145 147l105 -110v-72l-105 -104q-74 68 -145 139zM254 721l106 110h70l111 -110l-146 -141zM254 1067l141 145l146 -145l-111 -106h-70q-55 51 -106 106zM463 856v72l108 110l142 -147l-142 -139z" horiz-adv-x="794" unicode="*"/><glyph d="M162 434v121h315v324h119v-324h315v-121h-315v-323h-119v323h-315z" horiz-adv-x="1075" unicode="+"/><glyph d="M61 -174l50 197v153h159v-139l-86 -211h-123z" horiz-adv-x="352" unicode=","/><glyph d="M61 399v129h502v-129h-502z" unicode="-"/><glyph d="M82 82q0 34 22 58t58 24q34 0 58 -24t24 -58t-24 -58t-58 -24t-58 24q-22 24 -22 58z" horiz-adv-x="325" unicode="."/><glyph d="M31 -45l639 1302h127l-641 -1302h-125z" horiz-adv-x="827" unicode="/"/><glyph d="M76 338v553q0 155 97 247q97 91 237 91q141 0 240 -90q100 -90 100 -248v-553q0 -156 -98 -247t-239 -91q-140 0 -236 86q-103 96 -101 252zM205 348q0 -100 58 -160q59 -60 151 -61q92 0 150 60t59 161v533q-1 98 -59 161q-58 64 -150 64t-150 -64t-59 -161v-533z" horiz-adv-x="907" unicode="0"/><glyph d="M260 969v149l162 111h117v-1229h-129v1069q-10 -6 -30 -20t-61 -40q-40 -26 -59 -40z" horiz-adv-x="913" unicode="1"/><glyph d="M106 0v115l488 637q62 78 64 186q1 54 -52 111t-137 57t-140 -46t-81 -124h-135q31 132 127 212q96 79 196 80q254 3 333 -182q24 -56 24 -118q0 -123 -82 -248l-426 -551h489v-129h-668z" horiz-adv-x="919" unicode="2"/><glyph d="M100 260h131q52 -137 199 -137q97 0 166 64t69 170q1 105 -57 161t-145 55h-94v125h77q86 0 146 52t59 142q0 89 -60 151t-155 63q-57 0 -114 -39t-84 -111h-129q36 126 127 198q91 73 192 74q181 2 268 -94q86 -96 86 -239q0 -59 -30 -133t-113 -123q160 -78 160 -277 q0 -160 -104 -262t-277 -102t-265 138q-34 50 -53 124z" horiz-adv-x="894" unicode="3"/><glyph d="M61 197v104l422 928h138l-416 -905h364v362h129v-362h103v-127h-103v-197h-129v197h-508z" horiz-adv-x="821" unicode="4"/><glyph d="M90 244l123 28q46 -159 209 -159q103 -1 162 69t59 170v119q0 164 -110 215t-212 -12q-56 -35 -92 -86h-112v631h628v-123h-503v-328q57 39 110 48t119 9q66 1 126 -25q173 -74 173 -319v-75q0 -416 -350 -416q-123 0 -209 66t-121 188z" horiz-adv-x="874" unicode="5"/><glyph d="M76 362q0 102 41 195l344 672h137l-256 -522q37 16 95 16q128 1 224 -95q97 -96 97 -247q0 -193 -102 -287t-241 -94q-138 0 -234 90q-107 105 -105 272zM203 364q0 -110 57 -176t150 -66t156 67q63 66 63 175q1 108 -63 172t-152 64t-150 -63t-61 -173z" horiz-adv-x="915" unicode="6"/><glyph d="M111 1028v201h659v-105l-434 -1124h-146l431 1104h-381v-76h-129z" horiz-adv-x="862" unicode="7"/><glyph d="M74 350q0 70 37 151t120 132q-80 49 -107 122q-28 73 -28 141q0 136 98 234q98 99 244 99t243 -97q93 -97 91 -239q0 -163 -141 -260q164 -83 164 -303q0 -58 -28 -122q-57 -130 -192 -182q-65 -26 -141 -26q-150 0 -256 98t-104 252zM201 353q0 -98 70 -164t164 -66 q93 0 161 66t69 163t-68 160t-162 63t-164 -62q-70 -62 -70 -160zM222 896q-1 -97 61 -149t149 -54q87 -1 150 53t63 150q0 97 -63 155q-62 59 -149 59t-149 -58t-62 -156z" horiz-adv-x="888" unicode="8"/><glyph d="M76 870q0 176 112 275q93 82 233 83t239 -93q100 -94 100 -269q0 -108 -45 -196l-340 -670h-142l259 524q-40 -16 -98 -16q-125 0 -221 93q-97 93 -97 269zM203 865q0 -112 62 -174t154 -62t151 65t60 170q0 106 -58 177t-148 71t-156 -68q-65 -68 -65 -179z" horiz-adv-x="917" unicode="9"/><glyph d="M82 83q0 33 22 57t57 24q33 0 57 -24t24 -58t-24 -56t-58 -22t-56 22t-22 57zM82 390q0 34 22 58t57 23q33 0 57 -24q24 -23 24 -57t-24 -56t-58 -23q-34 1 -56 23t-22 56z" horiz-adv-x="323" unicode=":"/><glyph d="M61 -164l45 184v146h140v-129l-82 -201h-103zM102 379q0 35 23 59t57 23q34 0 59 -24q23 -25 23 -59t-24 -56t-58 -23q-36 1 -58 23t-22 57z" horiz-adv-x="346" unicode=";"/><glyph d="M197 444v101l727 329v-131l-553 -247l555 -242v-135z" horiz-adv-x="1124" unicode="&lt;"/><glyph d="M162 270v123h749v-123h-749zM162 567v121h749v-121h-749z" horiz-adv-x="1075" unicode="="/><glyph d="M197 117v137l548 242l-544 247v131l725 -329v-101z" horiz-adv-x="1124" unicode="&gt;"/><glyph d="M82 -172v1401h299v-113h-168v-1175h168v-113h-299z" horiz-adv-x="473" unicode="["/><glyph d="M31 1270h116l443 -1342h-119z" horiz-adv-x="620" unicode="\"/><glyph d="M92 -59h168v1175h-168v113h297v-1401h-297v113z" horiz-adv-x="471" unicode="]"/><glyph d="M61 487v82q123 33 123 234v227q0 92 42 146t120 53h105v-82h-82q-64 0 -64 -133v-240q0 -90 -29 -151t-63 -91q94 -62 92 -231v-256q0 -47 11 -89t53 -42h82v-84h-105q-78 0 -121 53t-43 146v235q0 94 -24 150q-25 55 -97 73z" horiz-adv-x="512" unicode="{"/><glyph d="M123 -268v1523h113v-1523h-113z" horiz-adv-x="358" unicode="|"/><glyph d="M61 -86h82q41 0 53 42q11 42 11 89v256q0 173 92 231q-35 28 -63 90t-29 152v240q0 133 -64 133h-82v82h105q78 0 120 -53t42 -146v-227q0 -201 123 -234v-82q-72 -18 -97 -73t-24 -150v-235q0 -91 -43 -145t-121 -54h-105v84z" horiz-adv-x="512" unicode="}"/><glyph d="M72 391l219 322h141l-215 -320l215 -315h-147zM328 393l219 320h137l-207 -320l207 -315h-139z" horiz-adv-x="755" unicode="«"/><glyph d="M61 399v129h502v-129h-502z" unicode="­"/><glyph d="M93 993q-1 100 66 167t167 68q100 0 166 -66t67 -166q0 -100 -66 -166t-165 -66q-100 0 -167 65t-68 164zM205 996q0 -50 37 -86t86 -36t84 34q34 34 34 86t-34 90q-35 38 -84 38t-86 -38t-37 -88z" horiz-adv-x="630" unicode="°"/><glyph d="M51 889q0 148 84 244t246 96h475v-129h-106v-1133h-132v1133h-122v-1133h-136v592q-135 10 -222 96t-87 234z" horiz-adv-x="907" unicode="¶"/><glyph d="M92 457q0 41 27 69t67 29q40 0 68 -29q29 -30 29 -70t-29 -68t-69 -28q-41 0 -67 28t-26 69z" horiz-adv-x="374" unicode="·"/><glyph d="M72 713h139l221 -320l-221 -315h-137l209 313zM328 78l209 313l-209 322h141l217 -322l-215 -313h-143z" horiz-adv-x="757" unicode="»"/><glyph d="M186 217l267 266l-258 262l79 86l267 -264l262 264l86 -79l-268 -269l206 -204q33 -35 58 -58l-84 -86l-264 264l-271 -272z" horiz-adv-x="1077" unicode="×"/><glyph d="M152 434v119h753v-119h-753zM440 216q0 44 29 66t64 21q35 1 63 -21t29 -66q0 -44 -27 -71q-26 -27 -66 -27t-66 28q-26 26 -26 70zM440 778q0 40 27 65q27 23 65 23t66 -24t27 -64q0 -42 -27 -68q-26 -26 -66 -26t-66 27t-26 67z" horiz-adv-x="1058" unicode="÷"/><glyph horiz-adv-x="645"/><glyph horiz-adv-x="1290"/><glyph horiz-adv-x="645"/><glyph horiz-adv-x="1290"/><glyph horiz-adv-x="430"/><glyph horiz-adv-x="322"/><glyph horiz-adv-x="215"/><glyph horiz-adv-x="215"/><glyph horiz-adv-x="161"/><glyph horiz-adv-x="258"/><glyph horiz-adv-x="71"/><glyph d="M61 399v129h502v-129h-502z" unicode="‐"/><glyph d="M61 399v129h502v-129h-502z" unicode="‑"/><glyph d="M61 399v129h502v-129h-502z" unicode="‒"/><glyph d="M61 408v127h816v-127h-816z" horiz-adv-x="937" unicode="–"/><glyph d="M61 408v127h1420v-127h-1420z" horiz-adv-x="1542" unicode="—"/><glyph d="M113 519q1 85 59 143q58 57 142 57q84 -1 138 -59q56 -58 56 -143t-55 -142t-139 -57t-142 58t-59 143z" horiz-adv-x="620" unicode="•"/><glyph horiz-adv-x="258"/><glyph d="M72 393l221 320h139l-213 -322l213 -313h-141z" horiz-adv-x="503" unicode="‹"/><glyph d="M72 78l209 313l-209 322h141l219 -320l-219 -315h-141z" horiz-adv-x="503" unicode="›"/><glyph horiz-adv-x="322"/><glyph d="M0 0z" horiz-adv-x="500" unicode="◼"/></font>
</defs>
</svg>
