<?xml version="1.0" standalone="no"?>
<!DOCTYPE svg PUBLIC "-//W3C//DTD SVG 1.1//EN" "http://www.w3.org/Graphics/SVG/1.1/DTD/svg11.dtd" >
<svg xmlns="http://www.w3.org/2000/svg" xmlns:xlink="http://www.w3.org/1999/xlink" version="1.1">
<metadata></metadata>
<defs>
<font id="hsishraq-lightuploaded_file" horiz-adv-x="0" >
<font-face units-per-em="2048" ascent="1290" descent="-758" />
<missing-glyph horiz-adv-x="327" />
<glyph unicode="&#xfedf;&#xfb51;" horiz-adv-x="692" d="M375 1417q-5 56 -47 56q-33 0 -64 -37t-31 -72h99q43 0 43 35v18zM330 1538q106 0 106 -111v-20q0 -107 -88 -107h-176q-59 0 -92 52q-27 -29 -55 -56v80l61 70h20q10 -35 30 -58.5t40 -23.5v166h57v-49q46 57 97 57zM293 1229v-998h-129v998h129zM61 0v129h359 q51 0 66.5 33t15.5 98v1112h129v-1134q0 -123 -48 -180.5t-163 -57.5h-359z" />
<glyph unicode="&#xfee0;&#xfb51;" horiz-adv-x="753" d="M375 1417q-5 56 -47 56q-33 0 -64 -37t-31 -72h99q43 0 43 35v18zM330 1538q106 0 106 -111v-20q0 -107 -88 -107h-176q-59 0 -92 52q-27 -29 -55 -56v80l61 70h20q10 -35 30 -58.5t40 -23.5v166h57v-49q46 57 97 57zM631 238q0 -59 25.5 -83t97.5 -26v-129 q-129 0 -187 45q-51 -45 -147 -45h-359v129h359q51 0 66.5 33t15.5 98v1112h129v-1134zM293 1229v-998h-129v998h129z" />
<glyph unicode="&#xfedf;&#xfee0;&#xfeea;" horiz-adv-x="1703" d="M470 129q131 0 233 115t102 268q0 94 -51.5 156.5t-122.5 62.5q-137 0 -237.5 -117t-100.5 -262q0 -98 54.5 -160.5t122.5 -62.5zM934 236q0 -59 24.5 -82t90 -24t88 29.5t22.5 92.5v936h129v-936q0 -66 26.5 -94.5t94.5 -28.5t86 33t18 98v928h129v-950 q0 -121 -54 -179.5t-182 -58.5t-183 49q-55 -49 -170 -49t-177.5 40t-70.5 132q-66 -78 -151 -125t-163 -47q-142 0 -234.5 98.5t-92.5 253.5q0 96 39 188.5t102.5 163t146.5 113.5t181.5 43t171.5 -61v61h129v-624z" />
<glyph unicode="&#x627;&#xfedf;&#xfee0;&#xfeea;" horiz-adv-x="2058" arabic-form="isolated" d="M1868 1372h129v-1372h-129v1372zM470 129q131 0 233 115t102 268q0 94 -51.5 156.5t-122.5 62.5q-137 0 -237.5 -117t-100.5 -262q0 -98 54.5 -160.5t122.5 -62.5zM934 236q0 -59 24.5 -82t90 -24t88 29.5t22.5 92.5v936h129v-936q0 -66 26.5 -94.5t94.5 -28.5t86 33 t18 98v928h129v-950q0 -121 -54 -179.5t-182 -58.5t-183 49q-55 -49 -170 -49t-177.5 40t-70.5 132q-66 -78 -151 -125t-163 -47q-142 0 -234.5 98.5t-92.5 253.5q0 96 39 188.5t102.5 163t146.5 113.5t181.5 43t171.5 -61v61h129v-624z" />
<glyph unicode="&#x631;&#xfef3;&#xfe8e;&#x644;" horiz-adv-x="2099" arabic-form="isolated" d="M190 -127q0 -100 75 -167.5t214 -67.5t228.5 87.5t89.5 213.5v1433h129v-1433q0 -178 -126.5 -304.5t-303.5 -126.5q-214 0 -324.5 102t-110.5 281.5t52 559.5h129q-52 -401 -52 -578zM1556 -383h41q123 0 212 89t89 212v696h130v-696q0 -175 -129 -302.5t-302 -127.5 h-41v129zM1274 -169q0 28 19.5 47.5t47 19.5t48 -19.5t20.5 -47.5t-20.5 -48.5t-48.5 -20.5t-47 20.5t-19 48.5zM1438 -169q0 28 19.5 47.5t47 19.5t48 -19.5t20.5 -47.5t-20.5 -48.5t-48.5 -20.5t-47 20.5t-19 48.5zM1663 238q0 -100 -63.5 -169t-183.5 -69t-178 55.5 t-58 182.5v919h129v-897q0 -72 23.5 -101.5t92 -29.5t89 33t20.5 98v518h129v-540z" />
<glyph unicode="&#xfedf;&#xfe82;" horiz-adv-x="692" arabic-form="isolated" d="M340 1374h59v-74h-61q-70 0 -112 8.5t-79 45.5l-90 -88v86l119 112q26 -56 76 -78q26 -12 88 -12zM293 1229v-998h-129v998h129zM61 0v129h359q51 0 66.5 33t15.5 98v1112h129v-1134q0 -123 -48 -180.5t-163 -57.5h-359z" />
<glyph unicode="&#xfee0;&#xfe82;" horiz-adv-x="753" arabic-form="final" d="M340 1374h59v-74h-61q-70 0 -112 8.5t-79 45.5l-90 -88v86l119 112q26 -56 76 -78q26 -12 88 -12zM631 238q0 -59 25.5 -83t97.5 -26v-129q-129 0 -187 45q-51 -45 -147 -45h-359v129h359q51 0 66.5 33t15.5 98v1112h129v-1134zM293 1229v-998h-129v998h129z" />
<glyph unicode="&#xfedf;&#xfe84;" horiz-adv-x="692" arabic-form="isolated" d="M84 1468q0 53 46 100.5t113.5 47.5t108.5 -43t51 -103h-55q-27 66 -81 66t-76.5 -24.5t-22.5 -56.5t20.5 -55.5t59.5 -23.5h151v-76h-350v76h62q-27 39 -27 92zM293 1229v-998h-129v998h129zM61 0v129h359q51 0 66.5 33t15.5 98v1112h129v-1134q0 -123 -48 -180.5 t-163 -57.5h-359z" />
<glyph unicode="&#xfee0;&#xfe84;" horiz-adv-x="753" arabic-form="final" d="M84 1468q0 53 46 100.5t113.5 47.5t108.5 -43t51 -103h-55q-27 66 -81 66t-76.5 -24.5t-22.5 -56.5t20.5 -55.5t59.5 -23.5h151v-76h-350v76h62q-27 39 -27 92zM631 238q0 -59 25.5 -83t97.5 -26v-129q-129 0 -187 45q-51 -45 -147 -45h-359v129h359q51 0 66.5 33 t15.5 98v1112h129v-1134zM293 1229v-998h-129v998h129z" />
<glyph unicode="&#xfedf;&#xfe88;" horiz-adv-x="692" arabic-form="isolated" d="M84 -236q0 53 46 100.5t113.5 47.5t108.5 -43t51 -102h-55q-27 66 -81 65.5t-76.5 -25t-22.5 -56.5t20.5 -55.5t59.5 -23.5h151v-75h-350v75h62q-27 39 -27 92zM293 1229v-998h-129v998h129zM61 0v129h359q51 0 66.5 33t15.5 98v1112h129v-1134q0 -123 -48 -180.5 t-163 -57.5h-359z" />
<glyph unicode="&#xfee0;&#xfe88;" horiz-adv-x="753" arabic-form="final" d="M84 -236q0 53 46 100.5t113.5 47.5t108.5 -43t51 -102h-55q-27 66 -81 65.5t-76.5 -25t-22.5 -56.5t20.5 -55.5t59.5 -23.5h151v-75h-350v75h62q-27 39 -27 92zM631 238q0 -59 25.5 -83t97.5 -26v-129q-129 0 -187 45q-51 -45 -147 -45h-359v129h359q51 0 66.5 33 t15.5 98v1112h129v-1134zM293 1229v-998h-129v998h129z" />
<glyph unicode="&#xfedf;&#xfe8e;" horiz-adv-x="692" arabic-form="isolated" d="M293 1229v-998h-129v998h129zM61 0v129h359q51 0 66.5 33t15.5 98v1112h129v-1134q0 -123 -48 -180.5t-163 -57.5h-359z" />
<glyph unicode="&#xfee0;&#xfe8e;" horiz-adv-x="753" arabic-form="final" d="M631 238q0 -59 25.5 -83t97.5 -26v-129q-129 0 -187 45q-51 -45 -147 -45h-359v129h359q51 0 66.5 33t15.5 98v1112h129v-1134zM293 1229v-998h-129v998h129z" />
<glyph unicode="&#x66e;" horiz-adv-x="292" d="M0 0q-70 0 -70 64t83 65q48 0 69 33q20 33 20 98v600h129v-622q0 -122 -54 -180t-177 -58z" />
<glyph unicode="&#x66e;" horiz-adv-x="354" d="M0 0q-70 0 -70 64t82 65q92 0 90 123v608h129v-608q0 -70 26 -96t97 -27v-129q-131 0 -188 49q-55 -49 -166 -49z" />
<glyph unicode="&#x66e;" horiz-adv-x="1536" d="M1536 0q-133 0 -188 47q-53 -47 -162 -47h-592q-177 0 -304 125q-126 125 -126 305v123h129v-123q0 -125 88 -213t213 -88h580q68 0 89 28.5t21 102.5v600h129v-624q0 -59 25.5 -82t97.5 -25v-129z" />
<glyph unicode="&#x66f;" horiz-adv-x="901" d="M621 129q55 0 72.5 33t17.5 98v170q0 119 -69 210t-170 91t-171 -89t-70 -214q0 -124 70 -212q70 -87 170 -87h150zM211 129q-109 118 -109 298q0 181 108 307t261.5 126t260.5 -126q108 -126 108 -304v-192q0 -123 -48.5 -180.5t-162.5 -57.5h-629q-35 0 -52.5 17.5 t-17.5 46t17.5 47t52.5 18.5h211z" />
<glyph unicode="&#x66f;" horiz-adv-x="942" d="M231 430.5q0 -61.5 18.5 -117t51.5 -96.5t77 -64.5t93 -23.5t93 23.5t76 64.5t51.5 96.5t19.5 117t-19.5 115.5t-51.5 96t-76 65.5t-93 23.5t-93 -23.5t-77 -65.5t-51.5 -96t-18.5 -115.5zM942 129v-129h-942q-35 0 -52.5 17.5t-17.5 46t17.5 47t52.5 18.5h211 q-109 118 -109 298.5t107.5 306.5t261.5 126t261.5 -126t107.5 -304.5t-109 -300.5h211z" />
<glyph unicode="&#x66f;" horiz-adv-x="1048" d="M387.5 216.5q70.5 -87.5 169.5 -87.5h240v301q0 119 -69.5 210t-170 91t-170.5 -89t-70 -213.5t70.5 -212zM61 -96.5q0 108.5 13 219.5h129q-12 -141 -12.5 -245.5t74.5 -172t214 -67.5t228.5 87.5t89.5 213.5v61h-240q-152 0 -260.5 125.5t-108.5 304t107.5 304.5 t259.5 126t261.5 -129t109.5 -309v-293h123v-129h-123v-61q0 -178 -126.5 -304.5t-303.5 -126.5q-214 0 -328 105q-53 49 -80 115.5t-27 175z" />
<glyph unicode="&#x676;" horiz-adv-x="1024" d="M362.5 217q69.5 -88 169.5 -88h240v301q0 118 -68.5 209.5t-170.5 91.5t-171 -89.5t-69 -213t69.5 -211.5zM532 0q-151 0 -259.5 124.5t-108.5 305t108 305.5t258.5 125t260.5 -128.5t110 -309.5v-293h123v-129h-123v-61q0 -179 -126 -305t-304 -126h-102v130h102 q122 0 211.5 87.5t89.5 213.5v61h-240zM553 1120q0 53 46 100.5t113.5 47.5t108.5 -43t51 -103h-55q-27 66 -81 66t-76.5 -24.5t-22.5 -56.5t20.5 -55.5t59.5 -23.5h151v-76h-350v76h62q-27 39 -27 92z" />
<glyph unicode="&#x695;" horiz-adv-x="415" d="M-178 -383h41q122 0 211 87q90 87 90 214v942h129v-731h123v-129h-123v-82q0 -178 -126 -304t-304 -126h-41v129zM76 -512l78 -143l82 145l73 -45l-123 -215h-67l-121 221z" />
<glyph unicode="&#x69c;" horiz-adv-x="946" d="M829 860q45 -450 45 -597.5t-48 -205t-169.5 -57.5t-169.5 45q-51 -45 -131 -45t-120.5 9t-69.5 36q-57 -45 -166 -45q-34 0 -52 18t-18 46q0 66 81 65q91 0 91 123v547h129v-539q0 -78 22.5 -104.5t81 -26.5t74 33t15.5 98v539h129v-539q0 -76 22.5 -103.5t81 -27.5 t73.5 33t15 163t-45 535h129zM422 1158q0 28 19.5 47.5t47 19.5t48 -19.5t20.5 -47.5t-20.5 -48t-48.5 -20t-47 20t-19 48zM340 1019q0 28 19.5 48t47.5 20t48 -20t20 -48t-20.5 -47.5t-48 -19.5t-47 19.5t-19.5 47.5zM504 1019q0 28 19.5 48t47 20t48 -20t20.5 -48 t-20.5 -47.5t-48.5 -19.5t-47 19.5t-19 47.5zM422 -306q0 28 19.5 48t47 20t48 -20.5t20.5 -48t-20.5 -47t-48.5 -19.5t-47 19.5t-19 47.5zM340 -167q0 28 19.5 47.5t47.5 19.5t48 -19.5t20 -47.5t-20.5 -48.5t-48 -20.5t-47 20.5t-19.5 48.5zM504 -167q0 28 19.5 47.5 t47 19.5t48 -19.5t20.5 -47.5t-20.5 -48.5t-48.5 -20.5t-47 20.5t-19 48.5z" />
<glyph unicode="&#x69c;" horiz-adv-x="976" d="M-70 64q0 66 81 65q91 0 91 123v547h129v-539q0 -78 22.5 -104.5t81 -26.5t74 33t15.5 98v539h129v-539q0 -78 22.5 -104.5t81 -26.5t73.5 33t15 163t-45 535h129q16 -160 30.5 -315.5t14.5 -308.5q0 -53 22 -78t81 -29v-131q-115 2 -166 47q-51 -45 -163.5 -45 t-160.5 45q-51 -45 -131 -45t-120.5 9t-69.5 36q-57 -45 -166 -45q-35 0 -52.5 18t-17.5 46zM426 1158q0 28 19.5 47.5t47.5 19.5t48 -19.5t20 -47.5t-20.5 -48t-48 -20t-47 20t-19.5 48zM344 1019q0 28 19.5 48t47.5 20t48 -20t20 -48t-20.5 -47.5t-48 -19.5t-47 19.5 t-19.5 47.5zM508 1019q0 28 19.5 48t47 20t48 -20t20.5 -48t-20.5 -47.5t-48.5 -19.5t-47 19.5t-19 47.5zM426 -306q0 28 19.5 48t47.5 20t48 -20.5t20 -48t-20.5 -47t-48 -19.5t-47 19.5t-19.5 47.5zM344 -167q0 28 19.5 47.5t47.5 19.5t48 -19.5t20 -47.5t-20.5 -48.5 t-48 -20.5t-47 20.5t-19.5 48.5zM508 -167q0 28 19.5 47.5t47 19.5t48 -19.5t20.5 -47.5t-20.5 -48.5t-48.5 -20.5t-47 20.5t-19 48.5z" />
<glyph unicode="&#x69c;" horiz-adv-x="1671" d="M190 -127q0 -100 75 -167.5t214 -67.5t228.5 87.5t89.5 213.5v860h129v-670h110q51 0 66.5 33t15.5 98v539h129v-539q0 -76 22.5 -103.5t81 -27.5t74 33t15.5 150.5t-45 547.5h129q16 -160 30.5 -315.5t14.5 -308.5q0 -53 21.5 -78t80.5 -29v-131q-115 2 -166 47 q-55 -45 -165.5 -45t-157.5 45q-55 -45 -146 -45h-110v-61q0 -178 -126.5 -304.5t-303.5 -126.5q-214 0 -324.5 102t-110.5 281.5t52 559.5h129q-52 -401 -52 -578zM1114 1158q0 28 19.5 47.5t47.5 19.5t48 -19.5t20 -47.5t-20.5 -48t-48 -20t-47 20t-19.5 48zM1032 1019 q0 28 19.5 48t47.5 20t48 -20t20 -48t-20.5 -47.5t-48 -19.5t-47 19.5t-19.5 47.5zM1196 1019q0 28 19.5 48t47.5 20t48 -20t20 -48t-20.5 -47.5t-48 -19.5t-47 19.5t-19.5 47.5zM1114 -306q0 28 19.5 48t47.5 20t48 -20.5t20 -48t-20.5 -47t-48 -19.5t-47 19.5t-19.5 47.5z M1032 -167q0 28 19.5 47.5t47.5 19.5t48 -19.5t20 -47.5t-20.5 -48.5t-48 -20.5t-47 20.5t-19.5 48.5zM1196 -167q0 28 19.5 47.5t47.5 19.5t48 -19.5t20 -47.5t-20.5 -48.5t-48 -20.5t-47 20.5t-19.5 48.5z" />
<glyph unicode="&#x6a1;" horiz-adv-x="901" d="M621 129q55 0 72.5 33t17.5 98v170q0 119 -69 210t-170 91t-171 -89t-70 -214q0 -124 70 -212q70 -87 170 -87h150zM211 129q-109 118 -109 298q0 181 108 307t261.5 126t260.5 -126q108 -126 108 -304v-192q0 -123 -48.5 -180.5t-162.5 -57.5h-629q-35 0 -52.5 17.5 t-17.5 46t17.5 47t52.5 18.5h211z" />
<glyph unicode="&#x6a1;" horiz-adv-x="942" d="M231 430.5q0 -61.5 18.5 -117t51.5 -96.5t77 -64.5t93 -23.5t93 23.5t76 64.5t51.5 96.5t19.5 117t-19.5 115.5t-51.5 96t-76 65.5t-93 23.5t-93 -23.5t-77 -65.5t-51.5 -96t-18.5 -115.5zM942 129v-129h-942q-35 0 -52.5 17.5t-17.5 46t17.5 47t52.5 18.5h211 q-109 118 -109 298.5t107.5 306.5t261.5 126t261.5 -126t107.5 -304.5t-109 -300.5h211z" />
<glyph unicode="&#x6a1;" horiz-adv-x="1746" d="M1016 430.5q0 -61.5 18.5 -117t51 -96.5t76.5 -64.5t93.5 -23.5t93.5 23.5t75.5 64.5t51 96.5t19.5 117t-19.5 115.5t-51 96t-75.5 65.5t-93.5 23.5t-93.5 -23.5t-76.5 -65.5t-51 -96t-18.5 -115.5zM1624 430q0 -180 -108 -301h231v-129h-1153q-177 0 -304 125 q-126 125 -126 305v123h129v-123q0 -125 88 -213t213 -88h401q-108 116 -108 298t107 308q107 125 261 125q153 0 261 -125t108 -305z" />
<glyph unicode="&#x6a2;" horiz-adv-x="901" d="M621 129q55 0 72.5 33t17.5 98v170q0 119 -69.5 210t-170 91t-170.5 -89t-70 -213.5t70.5 -212t169.5 -87.5h150zM211 129q-109 118 -109 298.5t107.5 306.5t261.5 126t261.5 -126t107.5 -304v-192q0 -123 -48.5 -180.5t-162.5 -57.5h-629q-35 0 -52.5 17.5t-17.5 46 t17.5 47t52.5 18.5h211zM414 -169q0 28 19.5 48.5t47 20.5t48 -20.5t20.5 -48.5t-20.5 -47.5t-48.5 -19.5t-47 19.5t-19 47.5z" />
<glyph unicode="&#x6a2;" horiz-adv-x="942" d="M231 430.5q0 -61.5 18.5 -117t51.5 -96.5t77 -64.5t93 -23.5t93 23.5t76 64.5t51.5 96.5t19.5 117t-19.5 115.5t-51.5 96t-76 65.5t-93 23.5t-93 -23.5t-77 -65.5t-51.5 -96t-18.5 -115.5zM942 129v-129h-942q-35 0 -52.5 17.5t-17.5 46t17.5 47t52.5 18.5h211 q-109 118 -109 298.5t107.5 306.5t261.5 126t261.5 -126t107.5 -304.5t-109 -300.5h211zM403 -169q0 28 19.5 48.5t47.5 20.5t48.5 -20.5t20.5 -48.5t-20.5 -47.5t-48.5 -19.5t-47.5 19.5t-19.5 47.5z" />
<glyph unicode="&#x6a2;" horiz-adv-x="1746" d="M1016 430.5q0 -61.5 18.5 -117t51 -96.5t76.5 -64.5t93.5 -23.5t93.5 23.5t75.5 64.5t51 96.5t19.5 117t-19.5 115.5t-51 96t-75.5 65.5t-93.5 23.5t-93.5 -23.5t-76.5 -65.5t-51 -96t-18.5 -115.5zM1624 430q0 -180 -108 -301h231v-129h-1153q-177 0 -303.5 125 t-126.5 305v123h129v-123q0 -125 88 -213t213 -88h401q-108 116 -108 298t107 307.5t260.5 125.5t261.5 -125t108 -305zM1192 -169q0 28 19.5 48.5t47.5 20.5t48 -20.5t20 -48.5t-20.5 -47.5t-48 -19.5t-47 19.5t-19.5 47.5z" />
<glyph unicode="&#x6a5;" horiz-adv-x="901" d="M621 129q55 0 72.5 33t17.5 98v170q0 119 -69.5 210t-170 91t-170.5 -89t-70 -213.5t70.5 -212t169.5 -87.5h150zM211 129q-109 118 -109 298.5t107.5 306.5t261.5 126t261.5 -126t107.5 -304v-192q0 -123 -48.5 -180.5t-162.5 -57.5h-629q-35 0 -52.5 17.5t-17.5 46 t17.5 47t52.5 18.5h211zM403 -306q0 28 19.5 48t47.5 20t48.5 -20.5t20.5 -48t-20.5 -47t-48.5 -19.5t-47.5 19.5t-19.5 47.5zM322 -167q0 28 19 47.5t47 19.5t48.5 -19.5t20.5 -47.5t-20.5 -48.5t-48.5 -20.5t-47 20.5t-19 48.5zM485 -167q0 28 19.5 47.5t47.5 19.5 t48.5 -19.5t20.5 -47.5t-20.5 -48.5t-48.5 -20.5t-47.5 20.5t-19.5 48.5z" />
<glyph unicode="&#x6a5;" horiz-adv-x="942" d="M231 430.5q0 -61.5 18.5 -117t51.5 -96.5t77 -64.5t93 -23.5t93 23.5t76 64.5t51.5 96.5t19.5 117t-19.5 115.5t-51.5 96t-76 65.5t-93 23.5t-93 -23.5t-77 -65.5t-51.5 -96t-18.5 -115.5zM942 129v-129h-942q-35 0 -52.5 17.5t-17.5 46t17.5 47t52.5 18.5h211 q-109 118 -109 298.5t107.5 306.5t261.5 126t261.5 -126t107.5 -304.5t-109 -300.5h211zM383 -271q0 28 19.5 48t47.5 20t48 -20.5t20 -48t-20.5 -47t-48 -19.5t-47 19.5t-19.5 47.5zM301 -132q0 28 19.5 47t47.5 19t48 -19t20 -47t-20.5 -48.5t-48 -20.5t-47 20.5 t-19.5 48.5zM465 -132q0 28 19.5 47t47 19t48 -19t20.5 -47t-20.5 -48.5t-48.5 -20.5t-47 20.5t-19 48.5z" />
<glyph unicode="&#x6a5;" horiz-adv-x="1746" d="M1016 430.5q0 -61.5 18.5 -117t51 -96.5t76.5 -64.5t93.5 -23.5t93.5 23.5t75.5 64.5t51 96.5t19.5 117t-19.5 115.5t-51 96t-75.5 65.5t-93.5 23.5t-93.5 -23.5t-76.5 -65.5t-51 -96t-18.5 -115.5zM1624 430q0 -180 -108 -301h231v-129h-1153q-177 0 -303.5 125 t-126.5 305v123h129v-123q0 -125 88 -213t213 -88h401q-108 116 -108 298t107 307.5t260.5 125.5t261.5 -125t108 -305zM1241 -306q0 28 19.5 48t47.5 20t48 -20.5t20 -48t-20.5 -47t-48 -19.5t-47 19.5t-19.5 47.5zM1159 -167q0 28 19.5 47.5t47.5 19.5t48 -19.5t20 -47.5 t-20.5 -48.5t-48 -20.5t-47 20.5t-19.5 48.5zM1323 -167q0 28 19.5 47.5t47.5 19.5t48 -19.5t20 -47.5t-20.5 -48.5t-48 -20.5t-47 20.5t-19.5 48.5z" />
<glyph unicode="&#x6a7;" horiz-adv-x="1048" d="M387.5 216.5q70.5 -87.5 169.5 -87.5h240v301q0 119 -69.5 210t-170 91t-170.5 -89t-70 -213.5t70.5 -212zM61 -96.5q0 108.5 13 219.5h129q-12 -141 -12.5 -245.5t74.5 -172t214 -67.5t228.5 87.5t89.5 213.5v61h-240q-152 0 -260.5 125.5t-108.5 304t107.5 304.5 t259.5 126t261.5 -129t109.5 -309v-293h123v-129h-123v-61q0 -178 -126.5 -304.5t-303.5 -126.5q-214 0 -328 105q-53 49 -80 115.5t-27 175zM483 1019q0 28 19.5 48t47.5 20t48 -20t20 -48t-20 -47.5t-48 -19.5t-47.5 19.5t-19.5 47.5z" />
<glyph unicode="&#x6a8;" horiz-adv-x="1048" d="M387.5 216.5q70.5 -87.5 169.5 -87.5h240v301q0 119 -69.5 210t-170 91t-170.5 -89t-70 -213.5t70.5 -212zM61 -96.5q0 108.5 13 219.5h129q-12 -141 -12.5 -245.5t74.5 -172t214 -67.5t228.5 87.5t89.5 213.5v61h-240q-152 0 -260.5 125.5t-108.5 304t107.5 304.5 t259.5 126t261.5 -129t109.5 -309v-293h123v-129h-123v-61q0 -178 -126.5 -304.5t-303.5 -126.5q-214 0 -328 105q-53 49 -80 115.5t-27 175zM487 1158q0 28 19.5 47.5t47.5 19.5t48.5 -19.5t20.5 -47.5t-20.5 -48t-48.5 -20t-47.5 20t-19.5 48zM406 1019q0 28 19 48t47 20 t48.5 -20t20.5 -48t-20.5 -47.5t-48.5 -19.5t-47 19.5t-19 47.5zM569 1019q0 28 19.5 48t47.5 20t48.5 -20t20.5 -48t-20.5 -47.5t-48.5 -19.5t-47.5 19.5t-19.5 47.5z" />
<glyph unicode="&#x6aa;" horiz-adv-x="1359" d="M1087 129q47 0 64.5 26.5t17.5 84.5q0 119 -100.5 203.5t-239.5 84.5h-634l-93 72l582 576l90 -91l-438 -430h532q181 0 305.5 -124.5t124.5 -309.5q0 -115 -50 -168t-161 -53h-1087q-35 0 -52.5 17.5t-17.5 46t17.5 47t52.5 18.5h1087z" />
<glyph unicode="&#x6aa;" horiz-adv-x="1421" d="M0 0q-35 0 -52.5 17.5t-17.5 46t17.5 47t52.5 18.5h1169v98q0 125 -99 213t-241 88h-634l-93 72l582 576l90 -91l-438 -430h532q183 0 306.5 -123.5t123.5 -304.5v-98h123v-129h-1421z" />
<glyph unicode="&#x6aa;" horiz-adv-x="1900" d="M293 553v-123q0 -125 88 -213t213 -88h1055v98q0 124 -99 212q-99 89 -241 89h-637l-92 72l583 576l90 -91l-438 -430h533q182 0 306 -124t124 -304v-98h123v-129h-1307q-177 0 -304 125q-126 125 -126 305v123h129z" />
<glyph unicode="&#x6b5;" horiz-adv-x="292" d="M82 1550l78 -143l82 145l73 -45l-122 -215h-68l-121 221zM-70 64q0 66 83 65q48 0 68.5 33t20.5 98v928h129v-950q0 -121 -54 -179.5t-177 -58.5q-35 0 -52.5 18t-17.5 46z" />
<glyph unicode="&#x6b5;" horiz-adv-x="354" d="M98 1550l78 -143l82 145l74 -45l-123 -215h-68l-121 221zM-70 64q0 66 82 65q90 0 90 123v936h129v-936q0 -70 26 -95.5t97 -27.5v-129q-131 0 -188 49q-55 -49 -166 -49q-35 0 -52.5 18t-17.5 46z" />
<glyph unicode="&#x6b5;" horiz-adv-x="1038" d="M782 1550l78 -143l82 145l74 -45l-123 -215h-68l-120 221zM190 -127q0 -102 79 -168.5t214.5 -66.5t224.5 89t89 212v1249h129v-1059h112v-129h-112v-61q0 -178 -126.5 -304.5t-321 -126.5t-306 103t-111.5 262v49q0 122 52 529h129q-52 -401 -52 -578z" />
<glyph unicode="&#x6ba;" horiz-adv-x="292" d="M-70 64q0 66 83 65q48 0 68.5 33t20.5 98v600h129v-622q0 -121 -54 -179.5t-177 -58.5q-35 0 -52.5 18t-17.5 46zM98 1019q0 28 19.5 48t47.5 20t48 -20t20 -48t-20 -47.5t-48 -19.5t-47.5 19.5t-19.5 47.5z" />
<glyph unicode="&#x6ba;" horiz-adv-x="354" d="M-70 64q0 66 82 65q90 0 90 123v608h129v-608q0 -70 26 -95.5t97 -27.5v-129q-131 0 -188 49q-55 -49 -166 -49q-35 0 -52.5 18t-17.5 46zM98 1019q0 28 19.5 48t47.5 20t48 -20t20 -48t-20 -47.5t-48 -19.5t-47.5 19.5t-19.5 47.5z" />
<glyph unicode="&#x6c2;" horiz-adv-x="757" d="M758 0q-135 0 -193.5 55.5t-58.5 182.5v391h-131q-51 0 -66.5 -33t-15.5 -98v-498h-129v520q0 117 48 177.5t163 60.5h260v-498q0 -75 24.5 -103t98.5 -28v-129zM266 1028q0 53 46 100.5t113.5 47.5t108.5 -43t52 -103h-56q-27 66 -81 66t-76.5 -24.5t-22.5 -56.5 t20.5 -55.5t59.5 -23.5h152v-76h-351v76h62q-27 39 -27 92z" />
<glyph unicode="&#x6c3;" horiz-adv-x="757" d="M758 0q-135 0 -193.5 55.5t-58.5 182.5v391h-131q-51 0 -66.5 -33t-15.5 -98v-498h-129v520q0 117 48 177.5t163 60.5h260v-498q0 -75 24.5 -103t98.5 -28v-129zM260 927q0 28 19.5 48t47.5 20t48 -20.5t20 -48t-20.5 -47t-48 -19.5t-47 19.5t-19.5 47.5zM424 927 q0 28 19.5 48t47.5 20t48 -20.5t20 -48t-20.5 -47t-48 -19.5t-47 19.5t-19.5 47.5z" />
<glyph unicode="&#x6ce;" horiz-adv-x="292" d="M-70 64q0 66 83 65q48 0 68.5 33t20.5 98v600h129v-622q0 -121 -54 -179.5t-177 -58.5q-35 0 -52.5 18t-17.5 46zM-2 -169q0 28 19.5 48.5t47.5 20.5t48 -20.5t20 -48.5t-20.5 -47.5t-48 -19.5t-47 19.5t-19.5 47.5zM162 -169q0 28 19.5 48.5t47 20.5t48 -20.5 t20.5 -48.5t-20.5 -47.5t-48.5 -19.5t-47 19.5t-19 47.5zM74 1210l78 -143l81 145l74 -45l-123 -215h-67l-121 222z" />
<glyph unicode="&#x6ce;" horiz-adv-x="354" d="M-70 64q0 66 82 65q90 0 90 123v608h129v-608q0 -70 26 -95.5t97 -27.5v-129q-131 0 -188 49q-55 -49 -166 -49q-35 0 -52.5 18t-17.5 46zM20 -169q0 28 19.5 48.5t47.5 20.5t48.5 -20.5t20.5 -48.5t-20.5 -47.5t-48.5 -19.5t-47.5 19.5t-19.5 47.5zM184 -169 q0 28 19.5 48.5t47.5 20.5t48 -20.5t20 -48.5t-20 -47.5t-48 -19.5t-47.5 19.5t-19.5 47.5zM100 1210l78 -143l82 145l74 -45l-123 -215h-68l-120 222z" />
<glyph unicode="&#x6ce;" horiz-adv-x="1546" d="M293 553v-123q0 -125 88 -213t213 -88h268q68 0 89.5 28.5t21.5 102.5v600h239q115 0 163 -60.5t48 -176.5v-363q0 -73 24 -102t99 -29v-129q-135 0 -193.5 55.5t-58.5 182.5v362q0 66 -15 98.5t-67 32.5h-110v-493q0 -127 -52.5 -182.5t-175.5 -55.5h-280 q-177 0 -304 125q-126 125 -126 305v123h129zM252 887l78 -144l82 146l73 -45l-123 -215h-67l-121 221z" />
<glyph unicode="&#x6d5;" horiz-adv-x="1056" d="M470 129q131 0 233 115t102 268q0 94 -51.5 156.5t-122.5 62.5q-137 0 -237.5 -117t-100.5 -262q0 -98 54.5 -160.5t122.5 -62.5zM934 236q0 -59 25.5 -82t97.5 -25v-129q-117 0 -180.5 40t-71.5 132q-66 -78 -151 -125t-163 -47q-142 0 -234.5 98.5t-92.5 253.5 q0 96 39 188.5t102.5 163t146.5 113.5t181.5 43t171.5 -61v61h129v-624z" />
<glyph unicode="&#x671;" horiz-adv-x="415" arabic-form="final" d="M293 1229v-969q0 -72 24.5 -100.5t98.5 -30.5v-129q-135 0 -193.5 55.5t-58.5 182.5v991h129zM399 1438q-3 65 -53 65q-41 0 -78 -44t-37 -83h117q51 0 51 41v21zM346.5 1579q58.5 0 91.5 -33t33 -96v-25q0 -125 -104 -125h-207q-69 0 -109 60q-31 -33 -63 -64v95l71 82 h23q12 -41 35.5 -69t46.5 -28v195h69v-58q55 66 113.5 66z" />
<glyph unicode="&#x67e;" horiz-adv-x="1536" arabic-form="final" d="M1536 0q-133 0 -188 47q-53 -47 -162 -47h-592q-177 0 -303.5 125t-126.5 305v123h129v-123q0 -125 88 -213t213 -88h580q68 0 89 28.5t21 102.5v600h129v-624q0 -59 25.5 -82t97.5 -25v-129zM813 -306q0 28 19.5 48t47.5 20t48 -20.5t20 -48t-20.5 -47t-48 -19.5 t-47 19.5t-19.5 47.5zM731 -167q0 28 19.5 47.5t47.5 19.5t48 -19.5t20 -47.5t-20.5 -48.5t-48 -20.5t-47 20.5t-19.5 48.5zM895 -167q0 28 19.5 47.5t47.5 19.5t48 -19.5t20 -47.5t-20.5 -48.5t-48 -20.5t-47 20.5t-19.5 48.5z" />
<glyph unicode="&#x67e;" horiz-adv-x="292" arabic-form="initial" d="M-70 64q0 66 83 65q48 0 68.5 33t20.5 98v600h129v-622q0 -121 -54 -179.5t-177 -58.5q-35 0 -52.5 18t-17.5 46zM80 -306q0 28 19.5 48t47 20t48 -20.5t20.5 -48t-20.5 -47t-48.5 -19.5t-47 19.5t-19 47.5zM-2 -167q0 28 19.5 47.5t47.5 19.5t48 -19.5t20 -47.5 t-20.5 -48.5t-48 -20.5t-47 20.5t-19.5 48.5zM162 -167q0 28 19.5 47.5t47 19.5t48 -19.5t20.5 -47.5t-20.5 -48.5t-48.5 -20.5t-47 20.5t-19 48.5z" />
<glyph unicode="&#x67e;" horiz-adv-x="354" arabic-form="medial" d="M-70 64q0 66 82 65q90 0 90 123v608h129v-608q0 -70 26 -95.5t97 -27.5v-129q-131 0 -188 49q-55 -49 -166 -49q-35 0 -52.5 18t-17.5 46zM102 -306q0 28 19.5 48t47.5 20t48.5 -20.5t20.5 -48t-20.5 -47t-48.5 -19.5t-47.5 19.5t-19.5 47.5zM20 -167q0 28 19.5 47.5 t47.5 19.5t48.5 -19.5t20.5 -47.5t-20.5 -48.5t-48.5 -20.5t-47.5 20.5t-19.5 48.5zM184 -167q0 28 19.5 47.5t47.5 19.5t48 -19.5t20 -47.5t-20 -48.5t-48 -20.5t-47.5 20.5t-19.5 48.5z" />
<glyph unicode="&#x679;" horiz-adv-x="1536" arabic-form="final" d="M1536 0q-133 0 -188 47q-53 -47 -162 -47h-592q-177 0 -303.5 125t-126.5 305v123h129v-123q0 -125 88 -213t213 -88h580q68 0 89 28.5t21 102.5v600h129v-624q0 -59 25.5 -82t97.5 -25v-129zM946 956q-6 66 -54 66q-45 0 -78.5 -44.5t-33.5 -82.5h127q16 0 27.5 12.5 t11.5 28.5v20zM1018 944q0 -125 -105 -125h-251v76h49v256h69v-119q57 66 114.5 66t90.5 -33t33 -96v-25z" />
<glyph unicode="&#x679;" horiz-adv-x="292" arabic-form="initial" d="M-70 64q0 66 83 65q48 0 68.5 33t20.5 98v600h129v-622q0 -121 -54 -179.5t-177 -58.5q-35 0 -52.5 18t-17.5 46zM272 1090q-4 65 -54 65q-43 0 -77.5 -43.5t-34.5 -83.5h127q16 0 27.5 12.5t11.5 28.5v21zM344 1077q0 -125 -104 -125h-252v76h49v256h69v-119 q57 66 115 66t90.5 -33t32.5 -96v-25z" />
<glyph unicode="&#x679;" horiz-adv-x="354" arabic-form="medial" d="M-70 64q0 66 82 65q90 0 90 123v608h129v-608q0 -70 26 -95.5t97 -27.5v-129q-131 0 -188 49q-55 -49 -166 -49q-35 0 -52.5 18t-17.5 46zM283 1090q-5 65 -55 65q-43 0 -77 -42.5t-34 -84.5h127q16 0 27.5 12.5t11.5 28.5v21zM354 1077q0 -125 -104 -125h-252v76h49v256 h70v-119q57 66 114.5 66t90 -33t32.5 -96v-25z" />
<glyph unicode="&#x6a4;" horiz-adv-x="1746" arabic-form="final" d="M1016 430.5q0 -61.5 18.5 -117t51 -96.5t76.5 -64.5t93.5 -23.5t93.5 23.5t75.5 64.5t51 96.5t19.5 117t-19.5 115.5t-51 96t-75.5 65.5t-93.5 23.5t-93.5 -23.5t-76.5 -65.5t-51 -96t-18.5 -115.5zM1624 430q0 -180 -108 -301h231v-129h-1153q-177 0 -303.5 125 t-126.5 305v123h129v-123q0 -125 88 -213t213 -88h401q-108 116 -108 298t107 307.5t260.5 125.5t261.5 -125t108 -305zM1192 1158q0 28 19.5 47.5t47.5 19.5t48 -19.5t20 -47.5t-20.5 -48t-48 -20t-47 20t-19.5 48zM1110 1019q0 28 19.5 48t47.5 20t48 -20t20 -48 t-20.5 -47.5t-48 -19.5t-47 19.5t-19.5 47.5zM1274 1019q0 28 19.5 48t47 20t48 -20t20.5 -48t-20.5 -47.5t-48.5 -19.5t-47 19.5t-19 47.5z" />
<glyph unicode="&#x6a4;" horiz-adv-x="901" arabic-form="initial" d="M621 129q55 0 72.5 33t17.5 98v170q0 119 -69.5 210t-170 91t-170.5 -89t-70 -213.5t70.5 -212t169.5 -87.5h150zM211 129q-109 118 -109 298.5t107.5 306.5t261.5 126t261.5 -126t107.5 -304v-192q0 -123 -48.5 -180.5t-162.5 -57.5h-629q-35 0 -52.5 17.5t-17.5 46 t17.5 47t52.5 18.5h211zM403 1158q0 28 19.5 47.5t47.5 19.5t48.5 -19.5t20.5 -47.5t-20.5 -48t-48.5 -20t-47.5 20t-19.5 48zM322 1019q0 28 19 48t47 20t48.5 -20t20.5 -48t-20.5 -47.5t-48.5 -19.5t-47 19.5t-19 47.5zM485 1019q0 28 19.5 48t47.5 20t48.5 -20t20.5 -48 t-20.5 -47.5t-48.5 -19.5t-47.5 19.5t-19.5 47.5z" />
<glyph unicode="&#x6a4;" horiz-adv-x="942" arabic-form="medial" d="M231 430.5q0 -61.5 18.5 -117t51.5 -96.5t77 -64.5t93 -23.5t93 23.5t76 64.5t51.5 96.5t19.5 117t-19.5 115.5t-51.5 96t-76 65.5t-93 23.5t-93 -23.5t-77 -65.5t-51.5 -96t-18.5 -115.5zM942 129v-129h-942q-35 0 -52.5 17.5t-17.5 46t17.5 47t52.5 18.5h211 q-109 118 -109 298.5t107.5 306.5t261.5 126t261.5 -126t107.5 -304.5t-109 -300.5h211zM403 1158q0 28 19.5 47.5t47.5 19.5t48.5 -19.5t20.5 -47.5t-20.5 -48t-48.5 -20t-47.5 20t-19.5 48zM322 1019q0 28 19 48t47 20t48.5 -20t20.5 -48t-20.5 -47.5t-48.5 -19.5 t-47 19.5t-19 47.5zM485 1019q0 28 19.5 48t47.5 20t48.5 -20t20.5 -48t-20.5 -47.5t-48.5 -19.5t-47.5 19.5t-19.5 47.5z" />
<glyph unicode="&#x686;" horiz-adv-x="1155" arabic-form="final" d="M532 0q-97 0 -168 -69t-71 -169t74.5 -170.5t185.5 -70.5v-129q-163 0 -276 107.5t-113 261t107.5 261t260.5 107.5h367q-44 67 -68 187q-23 120 -39 184q-55 231 -235 231q-86 0 -150.5 -72.5t-87.5 -187.5h-129q24 166 127 277.5t227 111.5t190.5 -38t105.5 -99 t59.5 -139t39.5 -160t45 -159t77 -136h94v-129h-623zM588 -353q0 28 19.5 48t47 20t48 -20.5t20.5 -48t-20.5 -47t-48.5 -19.5t-47 19.5t-19 47.5zM506 -214q0 28 19.5 47.5t47 19.5t48 -19.5t20.5 -47.5t-20.5 -48.5t-48.5 -20.5t-47 20.5t-19 48.5zM670 -214 q0 28 19.5 47.5t47 19.5t48 -19.5t20.5 -47.5t-20.5 -48.5t-48.5 -20.5t-47 20.5t-19 48.5z" />
<glyph unicode="&#x686;" horiz-adv-x="1046" arabic-form="initial" d="M0 0q-35 0 -52.5 17.5t-17.5 46t17.5 47t52.5 18.5h811q-46 70 -79.5 244t-66.5 234q-66 124 -196 124q-86 0 -150.5 -72.5t-87.5 -187.5h-129q24 166 127 277.5t228 111.5t192.5 -39t106.5 -102.5t58.5 -144t38.5 -163.5t48 -161t84 -135v-115h-985zM403 -306 q0 28 19.5 48t47.5 20t48.5 -20.5t20.5 -48t-20.5 -47t-48.5 -19.5t-47.5 19.5t-19.5 47.5zM322 -167q0 28 19 47.5t47 19.5t48.5 -19.5t20.5 -47.5t-20.5 -48.5t-48.5 -20.5t-47 20.5t-19 48.5zM485 -167q0 28 19.5 47.5t47.5 19.5t48.5 -19.5t20.5 -47.5t-20.5 -48.5 t-48.5 -20.5t-47.5 20.5t-19.5 48.5z" />
<glyph unicode="&#x686;" horiz-adv-x="1064" arabic-form="medial" d="M0 0q-35 0 -52.5 17.5t-17.5 46t17.5 47t52.5 18.5h811q-46 70 -79.5 244t-66.5 234q-66 124 -196 124q-86 0 -150.5 -72.5t-87.5 -187.5h-129q24 166 127 277.5t227 111.5t190.5 -38t105.5 -99t59 -139t38.5 -160t44.5 -159t77 -136h94v-129h-1065zM403 -306 q0 28 19.5 48t47.5 20t48.5 -20.5t20.5 -48t-20.5 -47t-48.5 -19.5t-47.5 19.5t-19.5 47.5zM322 -167q0 28 19 47.5t47 19.5t48.5 -19.5t20.5 -47.5t-20.5 -48.5t-48.5 -20.5t-47 20.5t-19 48.5zM485 -167q0 28 19.5 47.5t47.5 19.5t48.5 -19.5t20.5 -47.5t-20.5 -48.5 t-48.5 -20.5t-47.5 20.5t-19.5 48.5z" />
<glyph unicode="&#x688;" horiz-adv-x="962" arabic-form="final" d="M164 129h547v301q0 119 -69.5 210t-170.5 91h-266v129h266q154 0 261.5 -126t107.5 -304v-301h123v-129h-799v129zM526 1090q-4 65 -54 65q-43 0 -77.5 -43.5t-34.5 -83.5h127q16 0 27.5 12.5t11.5 28.5v21zM598 1077q0 -125 -104 -125h-252v76h49v256h69v-119 q57 66 114.5 66t90.5 -33t33 -96v-25z" />
<glyph unicode="&#x698;" horiz-adv-x="415" arabic-form="final" d="M-178 -383h41q122 0 211.5 87.5t89.5 213.5v942h129v-731h123v-129h-123v-82q0 -178 -126 -304t-304 -126h-41v129zM139 1158q0 28 19.5 47.5t47.5 19.5t48 -19.5t20 -47.5t-20.5 -48t-48 -20t-47 20t-19.5 48zM57 1019q0 28 19.5 48t47.5 20t48.5 -20t20.5 -48 t-20.5 -47.5t-48.5 -19.5t-47.5 19.5t-19.5 47.5zM221 1019q0 28 19.5 48t47.5 20t48 -20t20 -48t-20.5 -47.5t-48 -19.5t-47 19.5t-19.5 47.5z" />
<glyph unicode="&#x691;" horiz-adv-x="415" arabic-form="final" d="M-178 -383h41q122 0 211.5 87.5t89.5 213.5v942h129v-731h123v-129h-123v-82q0 -178 -126 -304t-304 -126h-41v129zM319 1090q-3 65 -53 65q-43 0 -77.5 -42.5t-34.5 -84.5h127q16 0 27 12.5t11 28.5v21zM391 1077q0 -125 -104 -125h-252v76h49v256h70v-119 q57 66 114.5 66t90 -33t32.5 -96v-25z" />
<glyph unicode="&#x6a9;" horiz-adv-x="1593" arabic-form="final" d="M293 553v-123q0 -125 88 -213t213 -88h747v303q0 125 -99 213t-241 88h-329l-92 72l583 575l90 -90l-438 -430h225q183 0 306.5 -123.5t123.5 -304.5v-303h123v-129h-999q-177 0 -304 125q-126 125 -126 305v123h129z" />
<glyph unicode="&#x6a9;" horiz-adv-x="862" arabic-form="initial" d="M801 432v-194q0 -123 -50.5 -180.5t-160.5 -57.5h-590q-33 0 -51.5 17.5t-18.5 46t18.5 47t51.5 18.5h588q51 0 67.5 32t16.5 99v172q0 124 -100 212q-98 88 -240 89q-70 0 -144 -31q-33 29 -96 78l606 600q43 -47 90 -90q-111 -109 -219 -216t-219 -216 q190 0 320.5 -120t130.5 -306z" />
<glyph unicode="&#x6a9;" horiz-adv-x="923" arabic-form="medial" d="M801 432v-303h123v-129h-924q-33 0 -51.5 17.5t-18.5 46t18.5 47t51.5 18.5h672v303q0 124 -100 212q-98 88 -240 89q-70 0 -144 -31q-33 29 -96 78l606 600q43 -47 90 -90q-111 -109 -219 -216t-219 -216q190 0 320.5 -120t130.5 -306z" />
<glyph unicode="&#x6af;" horiz-adv-x="1593" arabic-form="final" d="M504 860l-78 64l553 551l74 -76zM293 553v-123q0 -125 88 -213t213 -88h747v303q0 125 -99 213t-241 88h-329l-92 72l583 575l90 -90l-438 -430h225q183 0 306.5 -123.5t123.5 -304.5v-303h123v-129h-999q-177 0 -304 125q-126 125 -126 305v123h129z" />
<glyph unicode="&#x6af;" horiz-adv-x="862" arabic-form="initial" d="M23 860l-78 64l553 551l73 -76zM801 432v-194q0 -123 -50.5 -180.5t-160.5 -57.5h-590q-33 0 -51.5 17.5t-18.5 46t18.5 47t51.5 18.5h588q51 0 67.5 32t16.5 99v172q0 124 -100 212q-98 88 -240 89q-70 0 -144 -31q-33 29 -96 78l606 600q43 -47 90 -90 q-111 -109 -219 -216t-219 -216q190 0 320.5 -120t130.5 -306z" />
<glyph unicode="&#x6af;" horiz-adv-x="923" arabic-form="medial" d="M23 860l-78 64l553 551l73 -76zM801 432v-303h123v-129h-924q-33 0 -51.5 17.5t-18.5 46t18.5 47t51.5 18.5h672v303q0 124 -100 212q-98 88 -240 89q-70 0 -144 -31q-33 29 -96 78l606 600q43 -47 90 -90q-111 -109 -219 -216t-219 -216q190 0 320.5 -120t130.5 -306z " />
<glyph unicode="&#x6ba;" horiz-adv-x="1048" arabic-form="final" d="M190 -127q0 -100 75 -167.5t214 -67.5t228.5 87.5t89.5 213.5v860h129v-670h123v-129h-123v-61q0 -178 -126.5 -304.5t-303.5 -126.5q-214 0 -324.5 102t-110.5 281.5t52 559.5h129q-52 -401 -52 -578z" />
<glyph unicode="&#x6c0;" horiz-adv-x="1056" arabic-form="final" d="M470 129q131 0 233 115t102 268q0 94 -51.5 156.5t-122.5 62.5q-137 0 -237.5 -117t-100.5 -262q0 -98 54.5 -160.5t122.5 -62.5zM934 236q0 -59 25.5 -82t97.5 -25v-129q-117 0 -180.5 40t-71.5 132q-66 -78 -151 -125t-163 -47q-142 0 -234.5 98.5t-92.5 253.5 q0 96 39 188.5t102.5 163t146.5 113.5t181.5 43t171.5 -61v61h129v-624zM399 1120q0 53 46.5 100.5t113.5 47.5t108.5 -43t51.5 -103h-55q-27 66 -81.5 66t-77 -24.5t-22.5 -56.5t20.5 -55.5t59.5 -23.5h152v-76h-350v76h61q-27 39 -27 92z" />
<glyph unicode="&#x6c1;" horiz-adv-x="757" arabic-form="final" d="M758 0q-135 0 -193.5 55.5t-58.5 182.5v391h-131q-51 0 -66.5 -33t-15.5 -98v-498h-129v520q0 117 48 177.5t163 60.5h260v-498q0 -75 25 -103t98 -28v-129z" />
<glyph unicode="&#x6c1;" horiz-adv-x="585" arabic-form="initial" d="M173 -402.5q-32 27.5 -32 63.5t11 73l67 227h92q-80 -270 -80 -274q0 -31 39 -31t99 98l75 -37q-77 -147 -186 -147q-53 0 -85 27.5zM524 238q0 -123 -48 -180.5t-163 -57.5h-313q-35 0 -52.5 17.5t-17.5 46t17.5 47t52.5 18.5h102v383h129v-383h82q51 0 66.5 33t15.5 98 v395h129v-417z" />
<glyph unicode="&#x6c1;" horiz-adv-x="1222" arabic-form="medial" d="M490.5 -382q-31.5 28 -31.5 62t10 74l68 228h92q-80 -270 -80 -275q0 -31 35 -31q42 0 102 99l76 -37q-78 -148 -187 -148q-53 0 -84.5 28zM766 387q0 -142 -94 -258h299v344q0 144 -81.5 245t-197.5 101q-70 0 -129 -43q90 -47 146.5 -147t56.5 -242zM289.5 210 q58.5 -81 143.5 -81t144.5 82.5t59.5 193t-60.5 194t-143.5 83.5t-142.5 -82t-59.5 -195.5t58.5 -194.5zM195 129q-93 115 -93 273.5t87.5 275.5t211.5 129q118 141 289 141t290.5 -140t119.5 -335v-344h123v-129h-1223q-35 0 -52.5 17.5t-17.5 46t17.5 47t52.5 18.5h195z " />
<glyph unicode="&#x6be;" horiz-adv-x="1355" arabic-form="final" d="M909 386.5q0 -141.5 -94 -257.5h299v293q0 165 -73.5 281t-204.5 116q-72 0 -129 -43q90 -47 146 -147.5t56 -242zM433.5 210q58.5 -81 142.5 -81t144 81t60 194.5t-60.5 195.5t-143 82t-142 -82t-59.5 -195.5t58.5 -194.5zM338 129q-92 113 -92 273.5t88 276.5t211 128 q118 141 300 141t290 -158.5t108 -386.5v-274h113v-129h-1295v129h277z" />
<glyph unicode="&#x6be;" horiz-adv-x="1161" arabic-form="initial" d="M766 387q0 -142 -94 -258h209q55 0 72.5 33t17.5 98v213q0 144 -81.5 245t-197.5 101q-70 0 -129 -43q90 -47 146.5 -147t56.5 -242zM289.5 210q58.5 -81 143.5 -81t144.5 82.5t59.5 193t-60.5 194t-143.5 83.5t-142.5 -82t-59.5 -195.5t58.5 -194.5zM195 129 q-93 115 -93 273.5t87.5 275.5t211.5 129q118 141 289 141t290.5 -140t119.5 -335v-235q0 -123 -48 -180.5t-163 -57.5h-889q-35 0 -52.5 17.5t-17.5 46t17.5 47t52.5 18.5h195z" />
<glyph unicode="&#x6be;" horiz-adv-x="1222" arabic-form="medial" d="M766 387q0 -142 -94 -258h299v344q0 144 -81.5 245t-197.5 101q-70 0 -129 -43q90 -47 146.5 -147t56.5 -242zM289.5 210q58.5 -81 143.5 -81t144.5 82.5t59.5 193t-60.5 194t-143.5 83.5t-142.5 -82t-59.5 -195.5t58.5 -194.5zM195 129q-93 115 -93 273.5t87.5 275.5 t211.5 129q118 141 289 141t290.5 -140t119.5 -335v-344h123v-129h-1223q-35 0 -52.5 17.5t-17.5 46t17.5 47t52.5 18.5h195z" />
<glyph unicode="&#x6d2;" horiz-adv-x="573" arabic-form="final" d="M231 -118q0 -48 34 -81.5t83 -33.5h533v-129h-533q-101 0 -173.5 72.5t-72.5 173.5t73.5 173t172.5 72h225v-129h-225q-49 0 -83 -35t-34 -83z" />
<glyph unicode="&#x6d3;" horiz-adv-x="573" arabic-form="final" d="M231 -118q0 -48 34 -81.5t83 -33.5h533v-129h-533q-101 0 -173.5 72.5t-72.5 173.5t73.5 173t172.5 72h225v-129h-225q-49 0 -83 -35t-34 -83zM205 402q0 54 46 101.5t113.5 47.5t108.5 -43t51 -102h-55q-27 66 -81 65.5t-76.5 -25t-22.5 -56.5t20.5 -55.5t59.5 -23.5 h151v-75h-350v75h61q-26 37 -26 91z" />
<glyph unicode="&#x6c6;" horiz-adv-x="1024" arabic-form="final" d="M362.5 217q69.5 -88 169.5 -88h240v301q0 118 -68.5 209.5t-170.5 91.5t-171 -89.5t-69 -213t69.5 -211.5zM532 0q-151 0 -259.5 124.5t-108.5 305t108 305.5t258.5 125t260.5 -128.5t110 -309.5v-293h123v-129h-123v-61q0 -179 -126 -305t-304 -126h-102v130h102 q122 0 211.5 87.5t89.5 213.5v61h-240zM455 1210l77 -143l82 145l74 -45l-123 -215h-67l-121 222z" />
<glyph unicode="&#x649;" horiz-adv-x="292" arabic-form="initial" d="M-70 64q0 66 83 65q48 0 68.5 33t20.5 98v600h129v-622q0 -121 -54 -179.5t-177 -58.5q-35 0 -52.5 18t-17.5 46z" />
<glyph unicode="&#x649;" horiz-adv-x="354" arabic-form="medial" d="M-70 64q0 66 82 65q90 0 90 123v608h129v-608q0 -70 26 -95.5t97 -27.5v-129q-131 0 -188 49q-55 -49 -166 -49q-35 0 -52.5 18t-17.5 46z" />
<glyph unicode="&#x6cc;" horiz-adv-x="1546" arabic-form="final" d="M293 553v-123q0 -125 88 -213t213 -88h268q68 0 89.5 28.5t21.5 102.5v600h239q115 0 163 -60.5t48 -176.5v-363q0 -73 24 -102t99 -29v-129q-135 0 -193.5 55.5t-58.5 182.5v362q0 66 -15 98.5t-67 32.5h-110v-493q0 -127 -52.5 -182.5t-175.5 -55.5h-280 q-177 0 -304 125q-126 125 -126 305v123h129z" />
<glyph unicode="&#x6cc;" horiz-adv-x="292" arabic-form="initial" d="M-70 64q0 66 83 65q48 0 68.5 33t20.5 98v600h129v-622q0 -121 -54 -179.5t-177 -58.5q-35 0 -52.5 18t-17.5 46zM-2 -169q0 28 19.5 48.5t47.5 20.5t48 -20.5t20 -48.5t-20.5 -47.5t-48 -19.5t-47 19.5t-19.5 47.5zM162 -169q0 28 19.5 48.5t47 20.5t48 -20.5 t20.5 -48.5t-20.5 -47.5t-48.5 -19.5t-47 19.5t-19 47.5z" />
<glyph unicode="&#x6cc;" horiz-adv-x="354" arabic-form="medial" d="M-70 64q0 66 82 65q90 0 90 123v608h129v-608q0 -70 26 -95.5t97 -27.5v-129q-131 0 -188 49q-55 -49 -166 -49q-35 0 -52.5 18t-17.5 46zM20 -169q0 28 19.5 48.5t47.5 20.5t48.5 -20.5t20.5 -48.5t-20.5 -47.5t-48.5 -19.5t-47.5 19.5t-19.5 47.5zM184 -169 q0 28 19.5 48.5t47.5 20.5t48 -20.5t20 -48.5t-20 -47.5t-48 -19.5t-47.5 19.5t-19.5 47.5z" />
<glyph unicode="&#xfc5e;" arabic-form="isolated" d="M35 152q0 -74 47 -74t47 80v92l76 20v-116q0 -70 -33 -111t-82 -41t-76 21q-28 -70 -108 -70q-56 -1 -74 21q-35 42 -35 126v33l72 21v-72q0 -55 43 -55q27 0 40 20.5t13 44.5v96l70 27v-63zM164 496q0 33 -20.5 57.5t-55.5 24.5t-54.5 -25t-19.5 -57.5t18.5 -59 t55.5 -26.5t56.5 26.5t19.5 59.5zM-57 489q0 68 42 113t105.5 45t101 -45t37.5 -102t-29.5 -100.5t-78.5 -55.5l-240 -61l-28 10v123q0 35 -13.5 58.5t-36.5 23.5l-32 -9v72q16 8 46.5 8t67.5 -40t37 -105v-59l62 18q-41 38 -41 106z" />
<glyph unicode="&#xfc5f;" arabic-form="isolated" d="M35 500q0 -74 47 -74t47 80v92l76 20v-116q0 -70 -33 -111t-82 -41t-76 21q-28 -70 -108 -70q-56 -1 -74 21q-35 42 -35 127v32l72 21v-72q0 -55 43 -55q27 0 40 20.5t13 44.5v97l70 26v-63zM-184 -39v78l368 100v-78zM-184 94v78l368 102v-79z" />
<glyph unicode="&#xfc60;" arabic-form="isolated" d="M35 152q0 -74 47 -74t47 80v92l76 20v-116q0 -70 -33 -111t-82 -41t-76 21q-28 -70 -108 -70q-56 -1 -74 21q-35 42 -35 126v33l72 21v-72q0 -55 43 -55q27 0 40 20.5t13 44.5v96l70 27v-63zM-184 264v78l368 98v-80z" />
<glyph unicode="&#xfc61;" arabic-form="isolated" d="M35 152q0 -74 47 -74t47 80v92l76 20v-116q0 -70 -33 -111t-82 -41t-76 21q-28 -70 -108 -70q-56 -1 -74 21q-35 42 -35 126v33l72 21v-72q0 -55 43 -55q27 0 40 20.5t13 44.5v96l70 27v-63zM129 469q0 33 -20.5 57.5t-55.5 24.5t-54 -24.5t-19 -57.5t18 -59.5t55 -26.5 t56.5 26.5t19.5 59.5zM-92 462q0 68 42 113.5t105.5 45.5t101.5 -45.5t38 -101.5t-31 -98t-78 -59l-279 -77v73l144 41q-43 40 -43 108z" />
<glyph unicode="&#xfc62;" arabic-form="isolated" d="M35 348q0 -74 47 -74t47 80v92l76 21v-117q0 -70 -33 -110.5t-82 -40.5t-76 20q-28 -69 -108 -69q-56 0 -74 22q-35 42 -35 125v33l72 20v-71q0 -56 43 -56q27 0 40 20.5t13 45.5v96l70 27v-64zM-184 -51v80l368 100v-80z" />
<glyph unicode="&#xfc63;" arabic-form="isolated" d="M53 383v-100h-82v86q0 120 -24 219h88q18 -81 18 -205zM35 152q0 -74 47 -74t47 80v92l76 20v-116q0 -70 -33 -111t-82 -41t-76 21q-28 -70 -108 -70q-56 -1 -74 21q-35 42 -35 126v33l72 21v-72q0 -55 43 -55q27 0 40 20.5t13 44.5v96l70 27v-63z" />
<glyph unicode="&#xfcf2;" horiz-adv-x="522" arabic-form="medial" d="M76 1251v78l368 98v-79zM295 1176q0 -74 47 -74t47 80v92l76 20v-116q0 -70 -33 -111t-82 -41t-76 21q-28 -70 -108 -70q-54 -1 -73 21q-34 39 -36 126v33l72 21v-72q0 -55 43 -55q27 0 40 20t13 45v96l70 27v-63zM-70 63q0 29 18 47t52 19h522v-129h-522q-70 0 -70 63z " />
<glyph unicode="&#xfcf3;" horiz-adv-x="522" arabic-form="medial" d="M389 1475q0 33 -20 57q-19 24 -55 24t-55 -24t-19 -58q0 -32 18 -59t55 -27t57 27q19 27 19 60zM168 1468q0 68 42 113t106 45t101 -45q38 -45 38 -101t-31 -98t-78 -59l-278 -78v74l143 41q-43 40 -43 108zM295 1176q0 -74 47 -74t47 80v92l76 20v-116q0 -70 -33 -111 t-82 -41t-76 21q-28 -70 -108 -70q-54 -1 -73 21q-34 39 -36 126v33l72 21v-72q0 -55 43 -55q27 0 40 20t13 45v96l70 27v-63zM-70 63q0 29 18 47t52 19h522v-129h-522q-70 0 -70 63z" />
<glyph unicode="&#xfcf4;" horiz-adv-x="522" arabic-form="medial" d="M295 1288q0 -74 47 -74t47 80v92l76 21v-117q0 -70 -33 -110t-82 -41q-49 0 -76 20q-28 -69 -108 -69q-54 0 -80 29q-27 29 -29 118v33l72 20v-71q0 -55 43 -56q27 1 40 21t13 45v96l70 27v-64zM76 893v80l368 100v-80zM-70 63q0 29 18 47t52 19h522v-129h-522 q-70 0 -70 63z" />
<glyph unicode="&#xfe70;" horiz-adv-x="368" arabic-form="isolated" d="M0 1518v77l369 103v-80zM0 1384v78l369 101v-80z" />
<glyph unicode="&#xfe71;" horiz-adv-x="507" arabic-form="medial" d="M70 1108v78l368 102v-80zM70 975v78l368 100v-80zM-70 63q0 29 18 47t52 19h508v-129h-508q-70 0 -70 63z" />
<glyph unicode="&#xfe72;" horiz-adv-x="458" arabic-form="isolated" d="M393 1616q0 34 -20 58q-19 24 -55 24t-55 -25t-19 -57t18 -60q18 -26 55 -26t57 26q19 27 19 60zM172 1609q0 68 42 113t106 45t101 -45q38 -45 38 -102t-30 -100t-79 -56l-239 -61l-29 10v123q0 34 -13 58t-36 24l-33 -8v71q59 30 115 -31q37 -40 37 -106v-59l61 18 q-41 38 -41 106z" />
<glyph unicode="&#xfe74;" horiz-adv-x="368" arabic-form="isolated" d="M0 -831v77l369 101v-78zM0 -698v77l369 103v-80z" />
<glyph unicode="&#xfe76;" horiz-adv-x="368" arabic-form="isolated" d="M0 1384v78l369 99v-80z" />
<glyph unicode="&#xfe77;" horiz-adv-x="507" arabic-form="medial" d="M70 975v78l368 98v-80zM-70 63q0 29 18 47t52 19h508v-129h-508q-70 0 -70 63z" />
<glyph unicode="&#xfe78;" horiz-adv-x="387" arabic-form="isolated" d="M322 1610q0 34 -20 58t-56 24q-34 0 -54 -25t-20 -57t18 -60q18 -26 56 -26t56 26q20 26 20 60zM248 1761q64 0 102 -45t37 -101q0 -56 -31 -98t-77 -59l-279 -78v74l143 41q-41 38 -42 107t41 114t106 45z" />
<glyph unicode="&#xfe79;" horiz-adv-x="509" arabic-form="medial" d="M307 1114q37 0 57 26t19 60t-21 58t-55 24t-54 -25t-19 -57t18 -60q18 -26 55 -26zM162 1193q0 67 42 113t106 46t101 -45q38 -45 38 -101t-31 -99q-31 -42 -78 -58l-279 -78v73l144 41q-43 40 -43 108zM-70 63q0 29 18 47t52 19h510v-129h-510q-70 0 -70 63z" />
<glyph unicode="&#xfe7a;" horiz-adv-x="368" arabic-form="isolated" d="M0 -698v80l369 100v-80z" />
<glyph unicode="&#xfe7b;" horiz-adv-x="507" arabic-form="medial" d="M70 -293v80l368 100v-80zM-70 63q0 29 18 47t52 19h508v-129h-508q-70 0 -70 63z" />
<glyph unicode="&#xfe7c;" horiz-adv-x="407" arabic-form="isolated" d="M238 1585q0 -74 47 -74t47 80v92l76 21v-117q0 -71 -33 -111t-82 -40t-76 20q-27 -68 -108 -70q-53 0 -72 22q-37 40 -37 126v33l72 20v-71q0 -55 43 -56q27 0 40 20t13 46v96l70 27v-64z" />
<glyph unicode="&#xfe7d;" horiz-adv-x="522" arabic-form="medial" d="M295 1176q0 -74 47 -74t47 80v92l76 20v-116q0 -70 -33 -111t-82 -41t-76 21q-28 -70 -108 -70q-54 -1 -73 21q-34 39 -36 126v33l72 21v-72q0 -55 43 -55q27 0 40 20t13 45v96l70 27v-63zM-70 63q0 29 18 47t52 19h522v-129h-522q-70 0 -70 63z" />
<glyph unicode="&#xfe7e;" horiz-adv-x="325" arabic-form="isolated" d="M165 1509q43 0 65 31t22 68q0 38 -24 66t-64 28t-64 -29q-22 -29 -22 -65t22 -68q22 -31 65 -31zM0 1607q0 71 47 121t119 50t116 -50t44 -122q0 -70 -44 -121t-119 -51t-119 51t-44 122z" />
<glyph unicode="&#xfe7f;" horiz-adv-x="419" arabic-form="medial" d="M299 1198q0 37 -24 66q-25 28 -65 28t-63 -28t-23 -66q0 -37 22 -68q22 -30 66 -30t66 30q21 31 21 68zM47 1197q0 71 47 121t119 50t116 -50t44 -121t-44 -122t-119 -51t-119 51t-44 122zM-70 63q0 29 18 47t52 19h420v-129h-420q-70 0 -70 63z" />
<glyph unicode="&#x622;" horiz-adv-x="415" arabic-form="final" d="M293 1229v-969q0 -72 24.5 -100.5t98.5 -30.5v-129q-135 0 -193.5 55.5t-58.5 182.5v991h129zM338 1374h59v-74h-61q-70 0 -112 8.5t-79 45.5l-90 -88v86l119 112q26 -56 76 -78q26 -12 88 -12z" />
<glyph unicode="&#x623;" horiz-adv-x="415" arabic-form="final" d="M293 1229v-969q0 -72 24.5 -100.5t98.5 -30.5v-129q-135 0 -193.5 55.5t-58.5 182.5v991h129zM82 1468q0 53 46 100.5t113.5 47.5t108.5 -43t51 -103h-55q-27 66 -81 66t-76.5 -24.5t-22.5 -56.5t20.5 -55.5t59.5 -23.5h151v-76h-350v76h62q-27 39 -27 92z" />
<glyph unicode="&#x624;" horiz-adv-x="1024" arabic-form="final" d="M362.5 217q69.5 -88 169.5 -88h240v301q0 118 -68.5 209.5t-170.5 91.5t-171 -89.5t-69 -213t69.5 -211.5zM532 0q-151 0 -259.5 124.5t-108.5 305t108 305.5t258.5 125t260.5 -128.5t110 -309.5v-293h123v-129h-123v-61q0 -179 -126 -305t-304 -126h-102v130h102 q122 0 211.5 87.5t89.5 213.5v61h-240zM389 1120q0 53 46 100.5t113.5 47.5t108.5 -43t52 -103h-56q-27 66 -81 66t-76.5 -24.5t-22.5 -56.5t20.5 -55.5t59.5 -23.5h152v-76h-351v76h62q-27 39 -27 92z" />
<glyph unicode="&#x625;" horiz-adv-x="415" arabic-form="final" d="M293 1362v-1102q0 -72 24.5 -100.5t98.5 -30.5v-129q-135 0 -193.5 55.5t-58.5 182.5v1124h129zM82 -219q0 53 46 100t113.5 47t108.5 -43t51 -102h-55q-27 66 -81 65.5t-76.5 -25t-22.5 -56t20.5 -55t59.5 -23.5h151v-76h-350v76h62q-27 39 -27 92z" />
<glyph unicode="&#x626;" horiz-adv-x="1546" arabic-form="final" d="M293 553v-123q0 -125 88 -213t213 -88h268q68 0 89.5 28.5t21.5 102.5v600h239q115 0 163 -60.5t48 -176.5v-363q0 -73 24.5 -102t98.5 -29v-129q-135 0 -193.5 55.5t-58.5 182.5v362q0 66 -15 98.5t-67 32.5h-110v-493q0 -127 -52.5 -182.5t-175.5 -55.5h-280 q-177 0 -303.5 125t-126.5 305v123h129zM199 795.5q0 53.5 46 101t113 47.5t108.5 -43t51.5 -102h-55q-27 66 -81 65.5t-76.5 -25t-22.5 -56.5t20.5 -55t58.5 -23h152v-76h-350v76h61q-26 37 -26 90.5z" />
<glyph unicode="&#x626;" horiz-adv-x="292" arabic-form="initial" d="M-70 64q0 66 83 65q48 0 68.5 33t20.5 98v600h129v-622q0 -121 -54 -179.5t-177 -58.5q-35 0 -52.5 18t-17.5 46zM12 1120q0 53 46 100.5t113.5 47.5t109 -43t51.5 -103h-56q-27 66 -81 66t-76.5 -24.5t-22.5 -56.5t20.5 -55.5t59.5 -23.5h152v-76h-351v76h62 q-27 39 -27 92z" />
<glyph unicode="&#x626;" horiz-adv-x="354" arabic-form="medial" d="M-70 64q0 66 82 65q90 0 90 123v608h129v-608q0 -70 26 -95.5t97 -27.5v-129q-131 0 -188 49q-55 -49 -166 -49q-35 0 -52.5 18t-17.5 46zM27 1119q0 54 46 101.5t113 47.5t108.5 -43t51.5 -103h-55q-27 66 -81 66t-76.5 -24.5t-22.5 -56.5t20.5 -55.5t58.5 -23.5h152 v-76h-350v76h61q-26 37 -26 91z" />
<glyph unicode="&#x627;" horiz-adv-x="415" arabic-form="final" d="M293 1362v-1102q0 -72 24.5 -100.5t98.5 -30.5v-129q-135 0 -193.5 55.5t-58.5 182.5v1124h129z" />
<glyph unicode="&#x628;" horiz-adv-x="1536" arabic-form="final" d="M1536 0q-133 0 -188 47q-53 -47 -162 -47h-592q-177 0 -303.5 125t-126.5 305v123h129v-123q0 -125 88 -213t213 -88h580q68 0 89 28.5t21 102.5v600h129v-624q0 -59 25.5 -82t97.5 -25v-129zM793 -169q0 28 19 48.5t47 20.5t48.5 -20.5t20.5 -48.5t-20.5 -47.5 t-48.5 -19.5t-47 19.5t-19 47.5z" />
<glyph unicode="&#x628;" horiz-adv-x="292" arabic-form="initial" d="M-70 64q0 66 83 65q48 0 68.5 33t20.5 98v600h129v-622q0 -121 -54 -179.5t-177 -58.5q-35 0 -52.5 18t-17.5 46zM57 -169q0 28 19.5 48.5t47.5 20.5t48.5 -20.5t20.5 -48.5t-20.5 -47.5t-48.5 -19.5t-47.5 19.5t-19.5 47.5z" />
<glyph unicode="&#x628;" horiz-adv-x="354" arabic-form="medial" d="M-70 64q0 66 82 65q90 0 90 123v608h129v-608q0 -70 26 -95.5t97 -27.5v-129q-131 0 -188 49q-55 -49 -166 -49q-35 0 -52.5 18t-17.5 46zM98 -169q0 28 19.5 48.5t47.5 20.5t48 -20.5t20 -48.5t-20 -47.5t-48 -19.5t-47.5 19.5t-19.5 47.5z" />
<glyph unicode="&#x629;" horiz-adv-x="1056" arabic-form="final" d="M470 129q131 0 233 115t102 268q0 94 -51.5 156.5t-122.5 62.5q-137 0 -237.5 -117t-100.5 -262q0 -98 54.5 -160.5t122.5 -62.5zM934 236q0 -59 25.5 -82t97.5 -25v-129q-117 0 -180.5 40t-71.5 132q-66 -78 -151 -125t-163 -47q-142 0 -234.5 98.5t-92.5 253.5 q0 96 39 188.5t102.5 163t146.5 113.5t181.5 43t171.5 -61v61h129v-624zM399 1019q0 28 19.5 48t47.5 20t48.5 -20t20.5 -48t-20.5 -47.5t-48.5 -19.5t-47.5 19.5t-19.5 47.5zM563 1019q0 28 19.5 48t47.5 20t48 -20t20 -48t-20.5 -47.5t-48 -19.5t-47 19.5t-19.5 47.5z" />
<glyph unicode="&#x62a;" horiz-adv-x="1536" arabic-form="final" d="M1536 0q-133 0 -188 47q-53 -47 -162 -47h-592q-177 0 -303.5 125t-126.5 305v123h129v-123q0 -125 88 -213t213 -88h580q68 0 89 28.5t21 102.5v600h129v-624q0 -59 25.5 -82t97.5 -25v-129zM690 886q0 28 19.5 48t47.5 20t48 -20.5t20 -48t-20.5 -47t-48 -19.5 t-47 19.5t-19.5 47.5zM854 886q0 28 19.5 48t47.5 20t48 -20.5t20 -48t-20.5 -47t-48 -19.5t-47 19.5t-19.5 47.5z" />
<glyph unicode="&#x62a;" horiz-adv-x="292" arabic-form="initial" d="M-70 64q0 66 83 65q48 0 68.5 33t20.5 98v600h129v-622q0 -121 -54 -179.5t-177 -58.5q-35 0 -52.5 18t-17.5 46zM0 1019q0 28 19.5 48t47.5 20t48 -20t20 -48t-20.5 -47.5t-48 -19.5t-47 19.5t-19.5 47.5zM164 1019q0 28 19.5 48t47 20t48 -20t20.5 -48t-20.5 -47.5 t-48.5 -19.5t-47 19.5t-19 47.5z" />
<glyph unicode="&#x62a;" horiz-adv-x="354" arabic-form="medial" d="M-70 64q0 66 82 65q90 0 90 123v608h129v-608q0 -70 26 -95.5t97 -27.5v-129q-131 0 -188 49q-55 -49 -166 -49q-35 0 -52.5 18t-17.5 46zM20 1019q0 28 19.5 48t47.5 20t48.5 -20t20.5 -48t-20.5 -47.5t-48.5 -19.5t-47.5 19.5t-19.5 47.5zM184 1019q0 28 19.5 48 t47.5 20t48 -20t20 -48t-20 -47.5t-48 -19.5t-47.5 19.5t-19.5 47.5z" />
<glyph unicode="&#x62b;" horiz-adv-x="1536" arabic-form="final" d="M1536 0q-133 0 -188 47q-53 -47 -162 -47h-592q-177 0 -303.5 125t-126.5 305v123h129v-123q0 -125 88 -213t213 -88h580q68 0 89 28.5t21 102.5v600h129v-624q0 -59 25.5 -82t97.5 -25v-129zM772 1025q0 28 19.5 47.5t47.5 19.5t48 -19.5t20 -47.5t-20.5 -48.5 t-48 -20.5t-47 20.5t-19.5 48.5zM690 886q0 28 19.5 48t47.5 20t48 -20.5t20 -48t-20.5 -47t-48 -19.5t-47 19.5t-19.5 47.5zM854 886q0 28 19.5 48t47.5 20t48 -20.5t20 -48t-20.5 -47t-48 -19.5t-47 19.5t-19.5 47.5z" />
<glyph unicode="&#x62b;" horiz-adv-x="292" arabic-form="initial" d="M-70 64q0 66 83 65q48 0 68.5 33t20.5 98v600h129v-622q0 -121 -54 -179.5t-177 -58.5q-35 0 -52.5 18t-17.5 46zM82 1158q0 28 19.5 47.5t47.5 19.5t48 -19.5t20 -47.5t-20.5 -48t-48 -20t-47 20t-19.5 48zM0 1019q0 28 19.5 48t47.5 20t48 -20t20 -48t-20.5 -47.5 t-48 -19.5t-47 19.5t-19.5 47.5zM164 1019q0 28 19.5 48t47 20t48 -20t20.5 -48t-20.5 -47.5t-48.5 -19.5t-47 19.5t-19 47.5z" />
<glyph unicode="&#x62b;" horiz-adv-x="354" arabic-form="medial" d="M-70 64q0 66 82 65q90 0 90 123v608h129v-608q0 -70 26 -95.5t97 -27.5v-129q-131 0 -188 49q-55 -49 -166 -49q-35 0 -52.5 18t-17.5 46zM102 1158q0 28 19.5 47.5t47.5 19.5t48.5 -19.5t20.5 -47.5t-20.5 -48t-48.5 -20t-47.5 20t-19.5 48zM20 1019q0 28 19.5 48 t47.5 20t48.5 -20t20.5 -48t-20.5 -47.5t-48.5 -19.5t-47.5 19.5t-19.5 47.5zM184 1019q0 28 19.5 48t47.5 20t48 -20t20 -48t-20 -47.5t-48 -19.5t-47.5 19.5t-19.5 47.5z" />
<glyph unicode="&#x62c;" horiz-adv-x="1155" arabic-form="final" d="M532 0q-97 0 -168 -69t-71 -169t74.5 -170.5t185.5 -70.5v-129q-163 0 -276 107.5t-113 261t107.5 261t260.5 107.5h367q-44 67 -68 187q-23 120 -39 184q-55 231 -235 231q-86 0 -150.5 -72.5t-87.5 -187.5h-129q24 166 127 277.5t227 111.5t190.5 -38t105.5 -99 t59.5 -139t39.5 -160t45 -159t77 -136h94v-129h-623zM516 -263q0 28 19.5 48t47.5 20t48 -20.5t20 -48t-20.5 -47t-48 -19.5t-47 19.5t-19.5 47.5z" />
<glyph unicode="&#x62c;" horiz-adv-x="1046" arabic-form="initial" d="M0 0q-35 0 -52.5 17.5t-17.5 46t17.5 47t52.5 18.5h811q-46 70 -79.5 244t-66.5 234q-66 124 -196 124q-86 0 -150.5 -72.5t-87.5 -187.5h-129q24 166 127 277.5t228 111.5t192.5 -39t106.5 -102.5t58.5 -144t38.5 -163.5t48 -161t84 -135v-115h-985zM403 -169 q0 28 19.5 48.5t47.5 20.5t48.5 -20.5t20.5 -48.5t-20.5 -47.5t-48.5 -19.5t-47.5 19.5t-19.5 47.5z" />
<glyph unicode="&#x62c;" horiz-adv-x="1064" arabic-form="medial" d="M0 0q-35 0 -52.5 17.5t-17.5 46t17.5 47t52.5 18.5h811q-46 70 -79.5 244t-66.5 234q-66 124 -196 124q-86 0 -150.5 -72.5t-87.5 -187.5h-129q24 166 127 277.5t227 111.5t190.5 -38t105.5 -99t59 -139t38.5 -160t44.5 -159t77 -136h94v-129h-1065zM403 -169 q0 28 19.5 48.5t47.5 20.5t48.5 -20.5t20.5 -48.5t-20.5 -47.5t-48.5 -19.5t-47.5 19.5t-19.5 47.5z" />
<glyph unicode="&#x62d;" horiz-adv-x="1155" arabic-form="final" d="M532 0q-97 0 -168 -69t-71 -169t74.5 -170.5t185.5 -70.5v-129q-163 0 -276 107.5t-113 261t107.5 261t260.5 107.5h367q-44 67 -68 187q-23 120 -39 184q-55 231 -235 231q-86 0 -150.5 -72.5t-87.5 -187.5h-129q24 166 127 277.5t227 111.5t190.5 -38t105.5 -99 t59.5 -139t39.5 -160t45 -159t77 -136h94v-129h-623z" />
<glyph unicode="&#x62d;" horiz-adv-x="1046" arabic-form="initial" d="M0 0q-35 0 -52.5 17.5t-17.5 46t17.5 47t52.5 18.5h811q-46 70 -80 244q-33 174 -66 234q-66 124 -196 124q-86 0 -150.5 -72.5t-87.5 -187.5h-129q24 166 127 278q103 111 228 111t192.5 -39t106.5 -102.5t58.5 -144t38.5 -163.5t48 -161t84 -135v-115h-985z" />
<glyph unicode="&#x62d;" horiz-adv-x="1064" arabic-form="medial" d="M0 0q-35 0 -52.5 17.5t-17.5 46t17.5 47t52.5 18.5h811q-46 70 -80 244q-33 174 -66 234q-66 124 -196 124q-86 0 -150.5 -72.5t-87.5 -187.5h-129q24 166 127 278q103 111 227 111t190.5 -38t105.5 -99t59 -139t38.5 -160t44.5 -159t77 -136h94v-129h-1065z" />
<glyph unicode="&#x62e;" horiz-adv-x="1155" arabic-form="final" d="M532 0q-97 0 -168 -69t-71 -169t74.5 -170.5t185.5 -70.5v-129q-163 0 -276 107.5t-113 261t107.5 261t260.5 107.5h367q-44 67 -68 187q-23 120 -39 184q-55 231 -235 231q-86 0 -150.5 -72.5t-87.5 -187.5h-129q24 166 127 277.5t227 111.5t190.5 -38t105.5 -99 t59.5 -139t39.5 -160t45 -159t77 -136h94v-129h-623zM496 1019q0 28 19.5 48t47 20t48 -20t20.5 -48t-20.5 -47.5t-48.5 -19.5t-47 19.5t-19 47.5z" />
<glyph unicode="&#x62e;" horiz-adv-x="1046" arabic-form="initial" d="M0 0q-35 0 -52.5 17.5t-17.5 46t17.5 47t52.5 18.5h811q-46 70 -79.5 244t-66.5 234q-66 124 -196 124q-86 0 -150.5 -72.5t-87.5 -187.5h-129q24 166 127 277.5t228 111.5t192.5 -39t106.5 -102.5t58.5 -144t38.5 -163.5t48 -161t84 -135v-115h-985zM414 1019 q0 28 19.5 48t47 20t48 -20t20.5 -48t-20.5 -47.5t-48.5 -19.5t-47 19.5t-19 47.5z" />
<glyph unicode="&#x62e;" horiz-adv-x="1064" arabic-form="medial" d="M0 0q-35 0 -52.5 17.5t-17.5 46t17.5 47t52.5 18.5h811q-46 70 -79.5 244t-66.5 234q-66 124 -196 124q-86 0 -150.5 -72.5t-87.5 -187.5h-129q24 166 127 277.5t227 111.5t190.5 -38t105.5 -99t59 -139t38.5 -160t44.5 -159t77 -136h94v-129h-1065zM414 1019 q0 28 19.5 48t47 20t48 -20t20.5 -48t-20.5 -47.5t-48.5 -19.5t-47 19.5t-19 47.5z" />
<glyph unicode="&#x62f;" horiz-adv-x="962" arabic-form="final" d="M164 129h547v301q0 119 -69 210t-171 91h-266v129h266q154 0 261 -126q108 -126 108 -304v-301h123v-129h-799v129z" />
<glyph unicode="&#x630;" horiz-adv-x="962" arabic-form="final" d="M164 129h547v301q0 119 -69.5 210t-170.5 91h-266v129h266q154 0 261.5 -126t107.5 -304v-301h123v-129h-799v129zM342 1019q0 28 19.5 48t47.5 20t48 -20t20 -48t-20.5 -47.5t-48 -19.5t-47 19.5t-19.5 47.5z" />
<glyph unicode="&#x631;" horiz-adv-x="415" arabic-form="final" d="M-178 -383h41q122 0 211 87q90 87 90 214v942h129v-731h123v-129h-123v-82q0 -178 -126 -304t-304 -126h-41v129z" />
<glyph unicode="&#x632;" horiz-adv-x="415" arabic-form="final" d="M-178 -383h41q122 0 211.5 87.5t89.5 213.5v942h129v-731h123v-129h-123v-82q0 -178 -126 -304t-304 -126h-41v129zM160 1019q0 28 19.5 48t47 20t48 -20t20.5 -48t-20.5 -47.5t-48.5 -19.5t-47 19.5t-19 47.5z" />
<glyph unicode="&#x633;" horiz-adv-x="1671" arabic-form="final" d="M190 -127q0 -100 75 -167.5t214 -67.5t228.5 87.5t89.5 213.5v860h129v-670h110q51 0 66.5 33t15.5 98v539h129v-539q0 -76 22.5 -103.5t81 -27.5t74 33t15.5 150.5t-45 547.5h129q16 -160 30.5 -315.5t14.5 -308.5q0 -53 21.5 -78t80.5 -29v-131q-115 2 -166 47 q-55 -45 -165.5 -45t-157.5 45q-55 -45 -146 -45h-110v-61q0 -178 -126.5 -304.5t-303.5 -126.5q-214 0 -324.5 102t-110.5 281.5t52 559.5h129q-52 -401 -52 -578z" />
<glyph unicode="&#x633;" horiz-adv-x="946" arabic-form="initial" d="M829 860q45 -450 45 -597.5t-48 -205t-169.5 -57.5t-169.5 45q-51 -45 -131 -45t-120.5 9t-69.5 36q-57 -45 -166 -45q-34 0 -52 18t-18 46q0 66 81 65q91 0 91 123v547h129v-539q0 -78 22.5 -104.5t81 -26.5t74 33t15.5 98v539h129v-539q0 -76 22.5 -103.5t81 -27.5 t73.5 33t15 163t-45 535h129z" />
<glyph unicode="&#x633;" horiz-adv-x="976" arabic-form="medial" d="M-70 64q0 66 81 65q91 0 91 123v547h129v-539q0 -78 22.5 -104.5t81 -26.5t74 33t15.5 98v539h129v-539q0 -78 22.5 -104.5t81 -26.5t73.5 33t15 163t-45 535h129q16 -160 30.5 -315.5t14.5 -308.5q0 -53 22 -78t81 -29v-131q-115 2 -166 47q-51 -45 -163.5 -45 t-160.5 45q-51 -45 -131 -45t-120.5 9t-69.5 36q-57 -45 -166 -45q-35 0 -52.5 18t-17.5 46z" />
<glyph unicode="&#x634;" horiz-adv-x="1671" arabic-form="final" d="M190 -127q0 -100 75 -167.5t214 -67.5t228.5 87.5t89.5 213.5v860h129v-670h110q51 0 66.5 33t15.5 98v539h129v-539q0 -76 22.5 -103.5t81 -27.5t74 33t15.5 150.5t-45 547.5h129q16 -160 30.5 -315.5t14.5 -308.5q0 -53 21.5 -78t80.5 -29v-131q-115 2 -166 47 q-55 -45 -165.5 -45t-157.5 45q-55 -45 -146 -45h-110v-61q0 -178 -126.5 -304.5t-303.5 -126.5q-214 0 -324.5 102t-110.5 281.5t52 559.5h129q-52 -401 -52 -578zM1116 1158q0 28 19.5 47.5t47.5 19.5t48 -19.5t20 -47.5t-20.5 -48t-48 -20t-47 20t-19.5 48zM1034 1019 q0 28 19.5 48t47.5 20t48 -20t20 -48t-20.5 -47.5t-48 -19.5t-47 19.5t-19.5 47.5zM1198 1019q0 28 19.5 48t47.5 20t48 -20t20 -48t-20.5 -47.5t-48 -19.5t-47 19.5t-19.5 47.5z" />
<glyph unicode="&#x634;" horiz-adv-x="946" arabic-form="initial" d="M829 860q45 -450 45 -597.5t-48 -205t-169.5 -57.5t-169.5 45q-51 -45 -131 -45t-120.5 9t-69.5 36q-57 -45 -166 -45q-34 0 -52 18t-18 46q0 66 81 65q91 0 91 123v547h129v-539q0 -78 22.5 -104.5t81 -26.5t74 33t15.5 98v539h129v-539q0 -76 22.5 -103.5t81 -27.5 t73.5 33t15 163t-45 535h129zM420 1158q0 28 19.5 47.5t47 19.5t48 -19.5t20.5 -47.5t-20.5 -48t-48.5 -20t-47 20t-19 48zM338 1019q0 28 19.5 48t47.5 20t48 -20t20 -48t-20.5 -47.5t-48 -19.5t-47 19.5t-19.5 47.5zM502 1019q0 28 19.5 48t47 20t48 -20t20.5 -48 t-20.5 -47.5t-48.5 -19.5t-47 19.5t-19 47.5z" />
<glyph unicode="&#x634;" horiz-adv-x="976" arabic-form="medial" d="M-70 64q0 66 81 65q91 0 91 123v547h129v-539q0 -78 22.5 -104.5t81 -26.5t74 33t15.5 98v539h129v-539q0 -78 22.5 -104.5t81 -26.5t73.5 33t15 163t-45 535h129q16 -160 30.5 -315.5t14.5 -308.5q0 -53 22 -78t81 -29v-131q-115 2 -166 47q-51 -45 -163.5 -45 t-160.5 45q-51 -45 -131 -45t-120.5 9t-69.5 36q-57 -45 -166 -45q-35 0 -52.5 18t-17.5 46zM420 1158q0 28 19.5 47.5t47 19.5t48 -19.5t20.5 -47.5t-20.5 -48t-48.5 -20t-47 20t-19 48zM338 1019q0 28 19.5 48t47.5 20t48 -20t20 -48t-20.5 -47.5t-48 -19.5t-47 19.5 t-19.5 47.5zM502 1019q0 28 19.5 48t47 20t48 -20t20.5 -48t-20.5 -47.5t-48.5 -19.5t-47 19.5t-19 47.5z" />
<glyph unicode="&#x635;" horiz-adv-x="1779" arabic-form="final" d="M1528 129v301q0 123 -89 212t-210 89t-212 -80t-91 -188v-334h602zM190 -127q0 -100 75 -167.5t214 -67.5t228.5 87.5t89.5 213.5v921h129v-129q125 129 303 129t303 -126.5t125 -303.5v-301h123v-129h-854v-61q0 -178 -126.5 -304.5t-303.5 -126.5q-214 0 -324.5 102 t-110.5 281.5t52 559.5h129q-52 -401 -52 -578z" />
<glyph unicode="&#x635;" horiz-adv-x="1024" arabic-form="initial" d="M711 129q72 0 110 16q12 39 13 107v178q0 122 -90 212t-210 89q-121 0 -212 -82t-91 -194v-326h480zM231 731q125 129 302 129q178 0 304 -126t126 -304v-192q0 -127 -52.5 -182.5t-175.5 -55.5h-735q-33 0 -51.5 17.5t-18.5 46t18.5 47t51.5 18.5h102v690h129v-88z" />
<glyph unicode="&#x635;" horiz-adv-x="1085" arabic-form="medial" d="M834 129v301q0 122 -90 212t-210 89q-121 0 -212 -82t-91 -194v-326h603zM231 731q125 129 302 129q178 0 304 -126t126 -304v-301h122v-129h-1085q-35 0 -52.5 17.5t-17.5 46t17.5 47t52.5 18.5h102v690h129v-88z" />
<glyph unicode="&#x636;" horiz-adv-x="1779" arabic-form="final" d="M1528 129v301q0 123 -89 212t-210 89t-212 -80t-91 -188v-334h602zM190 -127q0 -100 75 -167.5t214 -67.5t228.5 87.5t89.5 213.5v921h129v-129q125 129 303 129t303 -126.5t125 -303.5v-301h123v-129h-854v-61q0 -178 -126.5 -304.5t-303.5 -126.5q-214 0 -324.5 102 t-110.5 281.5t52 559.5h129q-52 -401 -52 -578zM1155 1019q0 28 19.5 48t47.5 20t48 -20t20 -48t-20.5 -47.5t-48 -19.5t-47 19.5t-19.5 47.5z" />
<glyph unicode="&#x636;" horiz-adv-x="1024" arabic-form="initial" d="M711 129q72 0 110 16q12 39 13 107v178q0 122 -89.5 211.5t-210.5 89.5t-212 -82t-91 -194v-326h480zM231 731q125 129 302.5 129t303.5 -126t126 -304v-192q0 -127 -52.5 -182.5t-175.5 -55.5h-735q-33 0 -51.5 17.5t-18.5 46t18.5 47t51.5 18.5h102v690h129v-88z M455 1019q0 28 19.5 48t47 20t48 -20t20.5 -48t-20.5 -47.5t-48.5 -19.5t-47 19.5t-19 47.5z" />
<glyph unicode="&#x636;" horiz-adv-x="1085" arabic-form="medial" d="M834 129v301q0 122 -89.5 211.5t-210.5 89.5t-212 -82t-91 -194v-326h603zM231 731q125 129 302.5 129t303.5 -126t126 -304v-301h122v-129h-1085q-35 0 -52.5 17.5t-17.5 46t17.5 47t52.5 18.5h102v690h129v-88zM469 1019q0 28 19.5 48t47.5 20t48 -20t20 -48 t-20.5 -47.5t-48 -19.5t-47 19.5t-19.5 47.5z" />
<glyph unicode="&#x637;" horiz-adv-x="1228" arabic-form="final" d="M977 129v301q0 123 -89 212t-210.5 89t-212 -81.5t-90.5 -194.5v-326h602zM1106 430v-301h123v-129h-1168v129h185v1243h129v-641q125 129 303 129t303 -126.5t125 -303.5z" />
<glyph unicode="&#x637;" horiz-adv-x="1024" arabic-form="initial" d="M723 129q68 0 89.5 28.5t21.5 102.5v170q0 122 -90 212t-210 89q-121 0 -212 -82t-91 -194v-326h492zM231 731q125 129 302 129q178 0 304 -126t126 -304v-192q0 -127 -52.5 -182.5t-175.5 -55.5h-735q-35 0 -52.5 17.5t-17.5 46t17.5 47t52.5 18.5h102v1243h129v-641z " />
<glyph unicode="&#x637;" horiz-adv-x="1085" arabic-form="medial" d="M834 129v301q0 122 -90 212t-210 89q-121 0 -212 -82t-91 -194v-326h603zM231 731q125 129 302 129q178 0 304 -126t126 -304v-301h122v-129h-1085q-35 0 -52.5 17.5t-17.5 46t17.5 47t52.5 18.5h102v1243h129v-641z" />
<glyph unicode="&#x638;" horiz-adv-x="1228" arabic-form="final" d="M977 129v301q0 123 -89 212t-210.5 89t-212 -81.5t-90.5 -194.5v-326h602zM1106 430v-301h123v-129h-1168v129h185v1243h129v-641q125 129 303 129t303 -126.5t125 -303.5zM612 1019q0 28 19.5 48t47.5 20t48.5 -20t20.5 -48t-20.5 -47.5t-48.5 -19.5t-47.5 19.5 t-19.5 47.5z" />
<glyph unicode="&#x638;" horiz-adv-x="1024" arabic-form="initial" d="M723 129q68 0 89.5 28.5t21.5 102.5v170q0 122 -89.5 211.5t-210.5 89.5t-212 -82t-91 -194v-326h492zM231 731q125 129 302.5 129t303.5 -126t126 -304v-192q0 -127 -52.5 -182.5t-175.5 -55.5h-735q-35 0 -52.5 17.5t-17.5 46t17.5 47t52.5 18.5h102v1243h129v-641z M459 1019q0 28 19.5 48t47 20t48 -20t20.5 -48t-20.5 -47.5t-48.5 -19.5t-47 19.5t-19 47.5z" />
<glyph unicode="&#x638;" horiz-adv-x="1085" arabic-form="medial" d="M834 129v301q0 122 -89.5 211.5t-210.5 89.5t-212 -82t-91 -194v-326h603zM231 731q125 129 302.5 129t303.5 -126t126 -304v-301h122v-129h-1085q-35 0 -52.5 17.5t-17.5 46t17.5 47t52.5 18.5h102v1243h129v-641zM459 1019q0 28 19.5 48t47 20t48 -20t20.5 -48 t-20.5 -47.5t-48.5 -19.5t-47 19.5t-19 47.5z" />
<glyph unicode="&#x639;" horiz-adv-x="1062" arabic-form="final" d="M852 430q0 118 -68.5 209.5t-170.5 91.5t-172 -90.5t-70 -218.5l2 -33q72 -35 125 -104.5t75 -155.5h74q46 175 203 260zM244 430q0 179 107 304.5t260.5 125.5t261.5 -125t108 -305v-131q-70 -14 -121 -59t-76 -111h279v-129h-531q-97 0 -168 -69t-71 -169t74.5 -170.5 t185.5 -70.5v-129q-163 0 -276 107.5t-113 248.5t75.5 237t200.5 132q-25 70 -77 118t-119 64v131z" />
<glyph unicode="&#x639;" horiz-adv-x="899" arabic-form="initial" d="M209 129q-107 120 -107 299q0 180 108 306t253 126q146 0 249 -111t126 -278h-131q-16 109 -83 185q-67 75 -160 75t-163 -89t-70 -214q0 -124 70 -212q70 -87 170 -87h348v-129h-819q-35 0 -52.5 17.5t-17.5 46t17.5 47t52.5 18.5h209z" />
<glyph unicode="&#x639;" horiz-adv-x="942" arabic-form="medial" d="M711 430q0 119 -69.5 210t-170 91t-170.5 -89t-70 -212v-41q72 -37 125.5 -105.5t75.5 -154.5h74q46 175 203 260zM942 0h-942q-33 0 -51.5 17.5t-18.5 46t18.5 47t51.5 18.5h293q-27 66 -77 112t-114 60v129q0 178 107.5 304t261.5 126t261.5 -126t107.5 -304v-131 q-70 -14 -121 -59t-76 -111h299v-129z" />
<glyph unicode="&#x63a;" horiz-adv-x="1062" arabic-form="final" d="M852 430q0 118 -68.5 209.5t-170.5 91.5t-172 -90.5t-70 -218.5l2 -33q72 -35 125 -104.5t75 -155.5h74q46 175 203 260zM244 430q0 179 107 304.5t260.5 125.5t261.5 -125t108 -305v-131q-70 -14 -121 -59t-76 -111h279v-129h-531q-97 0 -168 -69t-71 -169t74.5 -170.5 t185.5 -70.5v-129q-163 0 -276 107.5t-113 248.5t75.5 237t200.5 132q-25 70 -77 118t-119 64v131zM545 1019q0 28 19.5 48t47 20t48 -20t20.5 -48t-20.5 -47.5t-48.5 -19.5t-47 19.5t-19 47.5z" />
<glyph unicode="&#x63a;" horiz-adv-x="899" arabic-form="initial" d="M209 129q-107 120 -107 299.5t107.5 305.5t253.5 126t249.5 -110.5t125.5 -278.5h-131q-16 109 -83 184.5t-160 75.5t-163 -89t-70 -213.5t70.5 -212t169.5 -87.5h348v-129h-819q-35 0 -52.5 17.5t-17.5 46t17.5 47t52.5 18.5h209zM401 1019q0 28 19.5 48t47.5 20 t48.5 -20t20.5 -48t-20.5 -47.5t-48.5 -19.5t-47.5 19.5t-19.5 47.5z" />
<glyph unicode="&#x63a;" horiz-adv-x="942" arabic-form="medial" d="M711 430q0 119 -69.5 210t-170 91t-170.5 -89t-70 -212v-41q72 -37 125.5 -105.5t75.5 -154.5h74q46 175 203 260zM942 0h-942q-33 0 -51.5 17.5t-18.5 46t18.5 47t51.5 18.5h293q-27 66 -77 112t-114 60v129q0 178 107.5 304t261.5 126t261.5 -126t107.5 -304v-131 q-70 -14 -121 -59t-76 -111h299v-129zM406 1019q0 28 19 48t47 20t48.5 -20t20.5 -48t-20.5 -47.5t-48.5 -19.5t-47 19.5t-19 47.5z" />
<glyph unicode="&#x641;" horiz-adv-x="1746" arabic-form="final" d="M1016 430.5q0 -61.5 18.5 -117t51 -96.5t76.5 -64.5t93.5 -23.5t93.5 23.5t75.5 64.5t51 96.5t19.5 117t-19.5 115.5t-51 96t-75.5 65.5t-93.5 23.5t-93.5 -23.5t-76.5 -65.5t-51 -96t-18.5 -115.5zM1624 430q0 -180 -108 -301h231v-129h-1153q-177 0 -303.5 125 t-126.5 305v123h129v-123q0 -125 88 -213t213 -88h401q-108 116 -108 298t107 307.5t260.5 125.5t261.5 -125t108 -305zM1192 1019q0 28 19.5 48t47.5 20t48 -20t20 -48t-20.5 -47.5t-48 -19.5t-47 19.5t-19.5 47.5z" />
<glyph unicode="&#x641;" horiz-adv-x="901" arabic-form="initial" d="M621 129q55 0 72.5 33t17.5 98v170q0 119 -69.5 210t-170 91t-170.5 -89t-70 -213.5t70.5 -212t169.5 -87.5h150zM211 129q-109 118 -109 298.5t107.5 306.5t261.5 126t261.5 -126t107.5 -304v-192q0 -123 -48.5 -180.5t-162.5 -57.5h-629q-35 0 -52.5 17.5t-17.5 46 t17.5 47t52.5 18.5h211zM403 1019q0 28 19.5 48t47.5 20t48.5 -20t20.5 -48t-20.5 -47.5t-48.5 -19.5t-47.5 19.5t-19.5 47.5z" />
<glyph unicode="&#x641;" horiz-adv-x="942" arabic-form="medial" d="M231 430.5q0 -61.5 18.5 -117t51.5 -96.5t77 -64.5t93 -23.5t93 23.5t76 64.5t51.5 96.5t19.5 117t-19.5 115.5t-51.5 96t-76 65.5t-93 23.5t-93 -23.5t-77 -65.5t-51.5 -96t-18.5 -115.5zM942 129v-129h-942q-35 0 -52.5 17.5t-17.5 46t17.5 47t52.5 18.5h211 q-109 118 -109 298.5t107.5 306.5t261.5 126t261.5 -126t107.5 -304.5t-109 -300.5h211zM403 1019q0 28 19.5 48t47.5 20t48.5 -20t20.5 -48t-20.5 -47.5t-48.5 -19.5t-47.5 19.5t-19.5 47.5z" />
<glyph unicode="&#x642;" horiz-adv-x="1048" arabic-form="final" d="M387.5 216.5q70.5 -87.5 169.5 -87.5h240v301q0 119 -69.5 210t-170 91t-170.5 -89t-70 -213.5t70.5 -212zM61 -96.5q0 108.5 13 219.5h129q-12 -141 -12.5 -245.5t74.5 -172t214 -67.5t228.5 87.5t89.5 213.5v61h-240q-152 0 -260.5 125.5t-108.5 304t107.5 304.5 t259.5 126t261.5 -129t109.5 -309v-293h123v-129h-123v-61q0 -178 -126.5 -304.5t-303.5 -126.5q-214 0 -328 105q-53 49 -80 115.5t-27 175zM412 1019q0 28 19.5 48t47 20t48 -20t20.5 -48t-20.5 -47.5t-48.5 -19.5t-47 19.5t-19 47.5zM575 1019q0 28 19.5 48t47.5 20 t48.5 -20t20.5 -48t-20.5 -47.5t-48.5 -19.5t-47.5 19.5t-19.5 47.5z" />
<glyph unicode="&#x642;" horiz-adv-x="901" arabic-form="initial" d="M621 129q55 0 72.5 33t17.5 98v170q0 119 -69.5 210t-170 91t-170.5 -89t-70 -213.5t70.5 -212t169.5 -87.5h150zM211 129q-109 118 -109 298.5t107.5 306.5t261.5 126t261.5 -126t107.5 -304v-192q0 -123 -48.5 -180.5t-162.5 -57.5h-629q-35 0 -52.5 17.5t-17.5 46 t17.5 47t52.5 18.5h211zM322 1019q0 28 19 48t47 20t48.5 -20t20.5 -48t-20.5 -47.5t-48.5 -19.5t-47 19.5t-19 47.5zM485 1019q0 28 19.5 48t47.5 20t48.5 -20t20.5 -48t-20.5 -47.5t-48.5 -19.5t-47.5 19.5t-19.5 47.5z" />
<glyph unicode="&#x642;" horiz-adv-x="942" arabic-form="medial" d="M231 430.5q0 -61.5 18.5 -117t51.5 -96.5t77 -64.5t93 -23.5t93 23.5t76 64.5t51.5 96.5t19.5 117t-19.5 115.5t-51.5 96t-76 65.5t-93 23.5t-93 -23.5t-77 -65.5t-51.5 -96t-18.5 -115.5zM942 129v-129h-942q-35 0 -52.5 17.5t-17.5 46t17.5 47t52.5 18.5h211 q-109 118 -109 298.5t107.5 306.5t261.5 126t261.5 -126t107.5 -304.5t-109 -300.5h211zM322 1019q0 28 19 48t47 20t48.5 -20t20.5 -48t-20.5 -47.5t-48.5 -19.5t-47 19.5t-19 47.5zM485 1019q0 28 19.5 48t47.5 20t48.5 -20t20.5 -48t-20.5 -47.5t-48.5 -19.5t-47.5 19.5 t-19.5 47.5z" />
<glyph unicode="&#x643;" horiz-adv-x="1679" arabic-form="final" d="M702 743q0 85 62 147t149 62h107v-78h-96q-53 0 -93 -33.5t-40 -97.5v-104h229v-86h-318v190zM293 553v-123q0 -125 88 -213t213 -88h833v1243h129v-1243h123v-129h-1085q-177 0 -304 125q-126 125 -126 305v123h129z" />
<glyph unicode="&#x643;" horiz-adv-x="862" arabic-form="initial" d="M801 432v-194q0 -123 -50.5 -180.5t-160.5 -57.5h-590q-33 0 -51.5 17.5t-18.5 46t18.5 47t51.5 18.5h588q51 0 67.5 32t16.5 99v172q0 124 -100 212q-98 88 -240 89q-70 0 -144 -31q-33 29 -96 78l606 600q43 -47 90 -90q-111 -109 -219 -216t-219 -216 q190 0 320.5 -120t130.5 -306z" />
<glyph unicode="&#x643;" horiz-adv-x="923" arabic-form="medial" d="M801 432v-303h123v-129h-924q-33 0 -51.5 17.5t-18.5 46t18.5 47t51.5 18.5h672v303q0 124 -100 212q-98 88 -240 89q-70 0 -144 -31q-33 29 -96 78l606 600q43 -47 90 -90q-111 -109 -219 -216t-219 -216q190 0 320.5 -120t130.5 -306z" />
<glyph unicode="&#x644;" horiz-adv-x="1038" arabic-form="final" d="M190 -127q0 -102 79 -168.5t214.5 -66.5t224.5 89t89 212v1433h129v-1243h112v-129h-112v-61q0 -178 -126.5 -304.5t-321 -126.5t-306 103t-111.5 262q0 198 52 578h129q-52 -401 -52 -578z" />
<glyph unicode="&#x644;" horiz-adv-x="292" arabic-form="initial" d="M-70 64q0 66 83 65q48 0 68.5 33t20.5 98v1112h129v-1134q0 -121 -54 -179.5t-177 -58.5q-35 0 -52.5 18t-17.5 46z" />
<glyph unicode="&#x644;" horiz-adv-x="354" arabic-form="medial" d="M-70 64q0 66 82 65q90 0 90 123v1120h129v-1120q0 -70 26 -95.5t97 -27.5v-129q-131 0 -188 49q-55 -49 -166 -49q-35 0 -52.5 18t-17.5 46z" />
<glyph unicode="&#x645;" horiz-adv-x="962" arabic-form="final" d="M231 427.5q0 -63.5 19.5 -118.5t51.5 -95t76 -62.5t93 -22.5t93 23.5t76 64.5t51.5 96.5t19.5 117t-19.5 115.5t-51.5 96t-76 65.5t-93 23.5t-93 -23.5t-77 -65.5t-51.5 -96.5t-18.5 -118zM231 -102q0 -172 -94 -287t-246 -127v129q94 12 152.5 90t58.5 195v532 q0 178 107.5 304t260.5 126t261.5 -127t108.5 -303v-170q0 -75 24.5 -103t98.5 -28v-129q-98 0 -156.5 28.5t-79.5 94.5q-106 -123 -251 -123t-245 106v-208z" />
<glyph unicode="&#x645;" horiz-adv-x="901" arabic-form="initial" d="M231 430.5q0 -61.5 18.5 -117t51.5 -96.5t77 -64.5t93 -23.5t93 23.5t76 64.5t51.5 96.5t19.5 117t-19.5 115.5t-51.5 96t-76 65.5t-93 23.5t-93 -23.5t-77 -65.5t-51.5 -96t-18.5 -115.5zM-70 64q0 66 83 65q48 0 68.5 33t20.5 98v170q0 178 107.5 304t261.5 126 t261.5 -126t107.5 -304.5t-108.5 -304t-262.5 -125.5t-258 125q-39 -125 -211 -125q-35 0 -52.5 18t-17.5 46z" />
<glyph unicode="&#x645;" horiz-adv-x="962" arabic-form="medial" d="M231 430.5q0 -61.5 18.5 -117t51.5 -96.5t77 -64.5t93 -23.5t93 23.5t76 64.5t51.5 96.5t19.5 117t-19.5 115.5t-51.5 96t-76 65.5t-93 23.5t-93 -23.5t-77 -65.5t-51.5 -96t-18.5 -115.5zM-70 64q0 66 83 65q48 0 68.5 33t20.5 98v170q0 178 107.5 304t261.5 126 t261.5 -126t107.5 -304v-170q0 -72 23.5 -100.5t99.5 -30.5v-129q-98 0 -155.5 29.5t-80.5 95.5q-104 -125 -258 -125t-258 125q-39 -125 -211 -125q-35 0 -52.5 18t-17.5 46z" />
<glyph unicode="&#x646;" horiz-adv-x="1048" arabic-form="final" d="M418 730q0 28 19.5 48.5t47 20.5t48 -20.5t20.5 -48.5t-20.5 -47t-48.5 -19t-47 19t-19 47zM190 -127q0 -100 75 -167.5t214 -67.5t228.5 87.5t89.5 213.5v860h129v-670h123v-129h-123v-61q0 -178 -126.5 -304.5t-303.5 -126.5q-214 0 -324.5 102t-110.5 281.5t52 559.5 h129q-52 -401 -52 -578z" />
<glyph unicode="&#x646;" horiz-adv-x="292" arabic-form="initial" d="M-70 64q0 66 83 65q48 0 68.5 33t20.5 98v600h129v-622q0 -121 -54 -179.5t-177 -58.5q-35 0 -52.5 18t-17.5 46zM98 1019q0 28 19.5 48t47.5 20t48 -20t20 -48t-20 -47.5t-48 -19.5t-47.5 19.5t-19.5 47.5z" />
<glyph unicode="&#x646;" horiz-adv-x="354" arabic-form="medial" d="M-70 64q0 66 82 65q90 0 90 123v608h129v-608q0 -70 26 -95.5t97 -27.5v-129q-131 0 -188 49q-55 -49 -166 -49q-35 0 -52.5 18t-17.5 46zM98 1019q0 28 19.5 48t47.5 20t48 -20t20 -48t-20 -47.5t-48 -19.5t-47.5 19.5t-19.5 47.5z" />
<glyph unicode="&#x647;" horiz-adv-x="962" arabic-form="isolated" d="M293 430.5q0 -61.5 18.5 -117t51 -96.5t76.5 -64.5t93.5 -23.5t93.5 23.5t75.5 64.5t51 96.5t19.5 117t-19.5 115.5t-51 96t-75.5 65.5t-93.5 23.5t-93.5 -23.5t-76.5 -65.5t-51 -96t-18.5 -115.5zM272 735q108 125 260.5 125t260.5 -125t108 -305.5t-108.5 -305 t-260 -124.5t-260 124.5t-108.5 305t108 305.5z" />
<glyph unicode="&#x647;" horiz-adv-x="1056" arabic-form="final" d="M470 129q131 0 233 115t102 268q0 94 -51.5 156.5t-122.5 62.5q-137 0 -237.5 -117t-100.5 -262q0 -98 54.5 -160.5t122.5 -62.5zM934 236q0 -59 25.5 -82t97.5 -25v-129q-117 0 -180.5 40t-71.5 132q-66 -78 -151 -125t-163 -47q-142 0 -234.5 98.5t-92.5 253.5 q0 96 39 188.5t102.5 163t146.5 113.5t181.5 43t171.5 -61v61h129v-624z" />
<glyph unicode="&#x647;" horiz-adv-x="1161" arabic-form="initial" d="M766 387q0 -142 -94 -258h209q55 0 72.5 33t17.5 98v213q0 144 -81.5 245t-197.5 101q-70 0 -129 -43q90 -47 146.5 -147t56.5 -242zM289.5 210q58.5 -81 143.5 -81t144.5 82.5t59.5 193t-60.5 194t-143.5 83.5t-142.5 -82t-59.5 -195.5t58.5 -194.5zM195 129 q-93 115 -93 273.5t87.5 275.5t211.5 129q118 141 289 141t290.5 -140t119.5 -335v-235q0 -123 -48 -180.5t-163 -57.5h-889q-35 0 -52.5 17.5t-17.5 46t17.5 47t52.5 18.5h195z" />
<glyph unicode="&#x647;" horiz-adv-x="1222" arabic-form="medial" d="M766 387q0 -142 -94 -258h299v344q0 144 -81.5 245t-197.5 101q-70 0 -129 -43q90 -47 146.5 -147t56.5 -242zM289.5 210q58.5 -81 143.5 -81t144.5 82.5t59.5 193t-60.5 194t-143.5 83.5t-142.5 -82t-59.5 -195.5t58.5 -194.5zM195 129q-93 115 -93 273.5t87.5 275.5 t211.5 129q118 141 289 141t290.5 -140t119.5 -335v-344h123v-129h-1223q-35 0 -52.5 17.5t-17.5 46t17.5 47t52.5 18.5h195z" />
<glyph unicode="&#x648;" horiz-adv-x="1024" arabic-form="final" d="M362.5 217q69.5 -88 169.5 -88h240v301q0 118 -68.5 209.5t-170.5 91.5t-171 -89.5t-69 -213t69.5 -211.5zM532 0q-151 0 -259.5 124.5t-108.5 305t108 305.5t258.5 125t260.5 -128.5t110 -309.5v-293h123v-129h-123v-61q0 -179 -126 -305t-304 -126h-102v130h102 q122 0 211.5 87.5t89.5 213.5v61h-240z" />
<glyph unicode="&#x649;" horiz-adv-x="1546" arabic-form="final" d="M293 553v-123q0 -125 88 -213t213 -88h268q68 0 89.5 28.5t21.5 102.5v600h239q115 0 163 -60.5t48 -176.5v-363q0 -73 24 -102t99 -29v-129q-135 0 -193.5 55.5t-58.5 182.5v362q0 66 -15 98.5t-67 32.5h-110v-493q0 -127 -52.5 -182.5t-175.5 -55.5h-280 q-177 0 -304 125q-126 125 -126 305v123h129z" />
<glyph unicode="&#x64a;" horiz-adv-x="1546" arabic-form="final" d="M608 -169q0 28 19.5 48.5t47.5 20.5t48 -20.5t20 -48.5t-20.5 -47.5t-48 -19.5t-47 19.5t-19.5 47.5zM772 -169q0 28 19.5 48.5t47.5 20.5t48 -20.5t20 -48.5t-20.5 -47.5t-48 -19.5t-47 19.5t-19.5 47.5zM293 553v-123q0 -125 88 -213t213 -88h268q68 0 89.5 28.5 t21.5 102.5v600h239q115 0 163 -60.5t48 -176.5v-363q0 -73 24.5 -102t98.5 -29v-129q-135 0 -193.5 55.5t-58.5 182.5v362q0 66 -15 98.5t-67 32.5h-110v-493q0 -127 -52.5 -182.5t-175.5 -55.5h-280q-177 0 -303.5 125t-126.5 305v123h129z" />
<glyph unicode="&#x64a;" horiz-adv-x="292" arabic-form="initial" d="M-70 64q0 66 83 65q48 0 68.5 33t20.5 98v600h129v-622q0 -121 -54 -179.5t-177 -58.5q-35 0 -52.5 18t-17.5 46zM-2 -169q0 28 19.5 48.5t47.5 20.5t48 -20.5t20 -48.5t-20.5 -47.5t-48 -19.5t-47 19.5t-19.5 47.5zM162 -169q0 28 19.5 48.5t47 20.5t48 -20.5 t20.5 -48.5t-20.5 -47.5t-48.5 -19.5t-47 19.5t-19 47.5z" />
<glyph unicode="&#x64a;" horiz-adv-x="354" arabic-form="medial" d="M-70 64q0 66 82 65q90 0 90 123v608h129v-608q0 -70 26 -95.5t97 -27.5v-129q-131 0 -188 49q-55 -49 -166 -49q-35 0 -52.5 18t-17.5 46zM20 -169q0 28 19.5 48.5t47.5 20.5t48.5 -20.5t20.5 -48.5t-20.5 -47.5t-48.5 -19.5t-47.5 19.5t-19.5 47.5zM184 -169 q0 28 19.5 48.5t47.5 20.5t48 -20.5t20 -48.5t-20 -47.5t-48 -19.5t-47.5 19.5t-19.5 47.5z" />
<glyph unicode=" "  horiz-adv-x="327" />
<glyph unicode="&#x09;" horiz-adv-x="327" />
<glyph unicode="&#xa0;" horiz-adv-x="327" />
<glyph unicode="!" horiz-adv-x="401" d="M123 77q1 31 23 55t54 24t56 -24t23 -56q0 -32 -24 -54q-23 -22 -55 -22t-54 22t-23 55zM135 311v908h129l-10 -908h-119z" />
<glyph unicode="&#x22;" horiz-adv-x="550" d="M123 866v361h115v-361h-115zM315 866v361h113v-361h-113z" />
<glyph unicode="#" horiz-adv-x="876" d="M338 481h184q2 13 7 53t13 93t17 131h-180zM51 375v106h174l7 56q5 42 18 122q12 80 14 99h-162v102h179l43 369h114l-49 -369h189q2 23 10 75t20 152t21 142h108l-51 -369h170v-102h-180l-37 -277h170v-106h-182l-52 -375h-116l51 375h-178l-58 -375h-116l57 375h-164z " />
<glyph unicode="%" horiz-adv-x="1302" d="M338 -45h-123l739 1302h127zM1137 477q0 51 -34 82t-86 31t-85 -31t-33 -82v-254q0 -51 33 -83t85 -32t86 32t34 83v254zM1251 213q0 -104 -68 -160q-69 -55 -169 -55t-165 57q-66 57 -67 158v268q0 103 66 161t166 58t169 -55t68 -164v-268zM406 1004q0 53 -32 85 q-32 31 -84 31t-87 -32t-35 -84v-250q0 -53 35 -84t87 -31t84 31t32 84v250zM524 745q0 -105 -66 -162t-166 -58q-99 -1 -170 55t-71 165v265q0 113 71 166t169 53q159 0 214 -122q19 -42 19 -97v-265z" />
<glyph unicode="'" horiz-adv-x="358" d="M123 868v361h113v-361h-113z" />
<glyph unicode="(" horiz-adv-x="679" d="M496 -154l-68 -51q-128 111 -218 324q-89 214 -87 411q0 291 174 580q53 88 119 162l78 -58q-109 -154 -169 -330q-122 -358 3 -709q63 -179 168 -329z" />
<glyph unicode=")" horiz-adv-x="679" d="M557 526q0 -284 -180 -583q-53 -88 -115 -160l-76 63q106 146 170 326q126 357 2 709q-61 176 -174 333l84 52q204 -230 268 -540q20 -100 21 -200z" />
<glyph unicode="*" horiz-adv-x="794" d="M713 891l-142 -139l-108 104v72l108 110zM395 1212l146 -145l-111 -106h-70q-55 51 -106 106zM332 856l-105 -104q-74 68 -145 139l145 147l105 -110v-72zM395 580l-141 141l106 110h70l111 -110z" />
<glyph unicode="+" horiz-adv-x="1075" d="M596 434v-323h-119v323h-315v121h315v324h119v-324h315v-121h-315z" />
<glyph unicode="," horiz-adv-x="352" d="M111 176h159v-139l-86 -211h-123l50 197v153z" />
<glyph unicode="-" horiz-adv-x="624" d="M61 399v129h502v-129h-502z" />
<glyph unicode="." horiz-adv-x="325" d="M82 82q0 34 22 58t58 24q34 0 58 -24t24 -58t-24 -58t-58 -24t-58 24q-22 24 -22 58z" />
<glyph unicode="/" horiz-adv-x="827" d="M156 -45h-125l639 1302h127z" />
<glyph unicode="0" horiz-adv-x="907" d="M623 881q-1 98 -59 161q-58 64 -150 64t-150 -64t-59 -161v-533q0 -100 58 -160q59 -60 151 -61q92 0 150 60t59 161v533zM750 338q0 -156 -98 -247t-239 -91q-140 0 -236 86q-103 96 -101 252v553q0 155 97 247q97 91 237 91q141 0 240 -90q100 -90 100 -248v-553z" />
<glyph unicode="1" horiz-adv-x="913" d="M539 0h-129v1069q-10 -6 -30 -20t-61 -40q-40 -26 -59 -40v149l162 111h117v-1229z" />
<glyph unicode="2" horiz-adv-x="919" d="M106 0v115l488 637q62 78 64 186q1 54 -52 111t-137 57t-140 -46t-81 -124h-135q31 132 127 212q96 79 196 80q254 3 333 -182q24 -56 24 -118q0 -123 -82 -248l-426 -551h489v-129h-668z" />
<glyph unicode="3" horiz-adv-x="894" d="M799 362q0 -160 -104 -262t-277 -102t-265 138q-34 50 -53 124h131q52 -137 199 -137q97 0 166 64t69 170q1 105 -57 161t-145 55h-94v125h77q86 0 146 52t59 142q0 89 -60 151t-155 63q-57 0 -114 -39t-84 -111h-129q36 126 127 198q91 73 192 74q181 2 268 -94 q86 -96 86 -239q0 -59 -30 -133t-113 -123q160 -78 160 -277z" />
<glyph unicode="4" horiz-adv-x="821" d="M698 197v-197h-129v197h-508v104l422 928h138l-416 -905h364v362h129v-362h103v-127h-103z" />
<glyph unicode="5" horiz-adv-x="874" d="M643 352v119q0 164 -110 215t-212 -12q-56 -35 -92 -86h-112v631h628v-123h-503v-328q57 39 110 48t119 9q66 1 126 -25q173 -74 173 -319v-75q0 -416 -350 -416q-123 0 -209 66t-121 188l123 28q46 -159 209 -159q103 -1 162 69t59 170z" />
<glyph unicode="6" horiz-adv-x="915" d="M414 600q-88 0 -150 -63t-61 -173q0 -110 57 -176t150 -66t156 67q63 66 63 175q1 108 -63 172t-152 64zM437 723q128 1 224 -95q97 -96 97 -247q0 -193 -102 -287t-241 -94q-138 0 -234 90q-107 105 -105 272q0 102 41 195l344 672h137l-256 -522q37 16 95 16z" />
<glyph unicode="7" horiz-adv-x="862" d="M240 1104v-76h-129v201h659v-105l-434 -1124h-146l431 1104h-381z" />
<glyph unicode="8" horiz-adv-x="888" d="M433 1110q-87 0 -149 -58t-62 -156q-1 -97 61 -149t149 -54q87 -1 150 53t63 150q0 97 -63 155q-62 59 -149 59zM271 189q70 -66 164 -66q93 0 161 66t69 163t-68 160t-162 63t-164 -62q-70 -62 -70 -160t70 -164zM795 330q0 -58 -28 -122q-57 -130 -192 -182 q-65 -26 -141 -26q-150 0 -256 98t-104 252q0 70 37 151t120 132q-80 49 -107 122q-28 73 -28 141q0 136 98 234q98 99 244 99t243 -97q93 -97 91 -239q0 -163 -141 -260q164 -83 164 -303z" />
<glyph unicode="9" horiz-adv-x="917" d="M265 691q62 -62 154 -62t151 65t60 170q0 106 -58 177t-148 71t-156 -68q-65 -68 -65 -179q0 -112 62 -174zM394 508q-125 0 -221 93q-97 93 -97 269t112 275q93 82 233 83t239 -93q100 -94 100 -269q0 -108 -45 -196l-340 -670h-142l259 524q-40 -16 -98 -16z" />
<glyph unicode=":" horiz-adv-x="323" d="M82 390q0 34 22 58t57 23q33 0 57 -24q24 -23 24 -57t-24 -56t-58 -23q-34 1 -56 23t-22 56zM82 83q0 33 22 57t57 24q33 0 57 -24t24 -58t-24 -56t-58 -22t-56 22t-22 57z" />
<glyph unicode=";" horiz-adv-x="346" d="M102 379q0 35 23 59t57 23q34 0 59 -24q23 -25 23 -59t-24 -56t-58 -23q-36 1 -58 23t-22 57zM106 166h140v-129l-82 -201h-103l45 184v146z" />
<glyph unicode="&#x3c;" horiz-adv-x="1124" d="M371 496l555 -242v-135l-729 325v101l727 329v-131z" />
<glyph unicode="=" horiz-adv-x="1075" d="M162 270v123h749v-123h-749zM162 567v121h749v-121h-749z" />
<glyph unicode="&#x3e;" horiz-adv-x="1124" d="M197 254l548 242l-544 247v131l725 -329v-101l-729 -327v137z" />
<glyph unicode="[" horiz-adv-x="473" d="M82 -172v1401h299v-113h-168v-1175h168v-113h-299z" />
<glyph unicode="\" horiz-adv-x="620" d="M31 1270h116l443 -1342h-119z" />
<glyph unicode="]" horiz-adv-x="471" d="M92 -172v113h168v1175h-168v113h297v-1401h-297z" />
<glyph unicode="{" horiz-adv-x="512" d="M305 45q0 -47 11 -89t53 -42h82v-84h-105q-78 0 -121 53t-43 146v235q0 94 -24 150q-25 55 -97 73v82q123 33 123 234v227q0 92 42 146t120 53h105v-82h-82q-64 0 -64 -133v-240q0 -90 -29 -151t-63 -91q94 -62 92 -231v-256z" />
<glyph unicode="|" horiz-adv-x="358" d="M123 -268v1523h113v-1523h-113z" />
<glyph unicode="}" horiz-adv-x="512" d="M328 803q0 -201 123 -234v-82q-72 -18 -97 -73t-24 -150v-235q0 -91 -43 -145t-121 -54h-105v84h82q41 0 53 42q11 42 11 89v256q0 173 92 231q-35 28 -63 90t-29 152v240q0 133 -64 133h-82v82h105q78 0 120 -53t42 -146v-227z" />
<glyph unicode="&#xab;" horiz-adv-x="755" d="M285 78l-213 313l219 322h141l-215 -320l215 -315h-147zM545 78l-217 315l219 320h137l-207 -320l207 -315h-139z" />
<glyph unicode="&#xad;" horiz-adv-x="624" d="M61 399v129h502v-129h-502z" />
<glyph unicode="&#xb0;" horiz-adv-x="630" d="M446 994q0 52 -34 90q-35 38 -84 38t-86 -38t-37 -88t37 -86t86 -36t84 34q34 34 34 86zM161 829q-67 65 -68 164q-1 100 66 167t167 68q100 0 166 -66t67 -166q0 -100 -66 -166t-165 -66q-100 0 -167 65z" />
<glyph unicode="&#xb6;" horiz-adv-x="907" d="M496 1100v-1133h-136v592q-135 10 -222 96t-87 234t84 244t246 96h475v-129h-106v-1133h-132v1133h-122z" />
<glyph unicode="&#xb7;" horiz-adv-x="374" d="M92 457q0 41 27 69t67 29q40 0 68 -29q29 -30 29 -70t-29 -68t-69 -28q-41 0 -67 28t-26 69z" />
<glyph unicode="&#xbb;" horiz-adv-x="757" d="M328 78l209 313l-209 322h141l217 -322l-215 -313h-143zM74 78l209 313l-211 322h139l221 -320l-221 -315h-137z" />
<glyph unicode="&#xd7;" horiz-adv-x="1077" d="M621 483l206 -204q33 -35 58 -58l-84 -86l-264 264l-271 -272l-80 90l267 266l-258 262l79 86l267 -264l262 264l86 -79z" />
<glyph unicode="&#xf7;" horiz-adv-x="1058" d="M440 216q0 44 29 66t64 21q35 1 63 -21t29 -66q0 -44 -27 -71q-26 -27 -66 -27t-66 28q-26 26 -26 70zM152 434v119h753v-119h-753zM625 778q0 -42 -27 -68q-26 -26 -66 -26t-66 27t-26 67t27 65q27 23 65 23t66 -24t27 -64z" />
<glyph unicode="&#x60c;" horiz-adv-x="411" d="M330 129q0 -47 -33 -88t-88 -41t-96 30t-41 86t46 145t78 145t56 104l88 -45q-28 -53 -56 -107t-57 -108q47 -10 75 -42t28 -79z" />
<glyph unicode="&#x615;" d="M106 137q-6 66 -54 66q-43 0 -77 -43.5t-34 -83.5h127q16 0 27 12t11 29v20zM178 125q0 -125 -104 -125h-252v76h49v256h70v-119q57 66 114.5 66t90 -33t32.5 -96v-25z" />
<glyph unicode="&#x61b;" horiz-adv-x="411" d="M96 113q0 47 32 80t79 33t80 -34q33 -32 33 -79t-34 -79q-32 -32 -79 -32t-79 32t-32 79zM330 481q0 -47 -33 -88t-88 -41t-96 30t-41 86t46 145t78 145t56 104l88 -45q-28 -53 -56 -107t-57 -108q47 -10 75 -42t28 -79z" />
<glyph unicode="&#x61f;" horiz-adv-x="704" d="M387 360q0 72 -43 141t-94 141t-94 148q-43 77 -43 148q0 132 84 222q84 91 209 89q86 0 146 -64t60 -153q0 -125 -110 -198h-45q33 47 34 121q2 149 -104 149q-59 0 -98 -43t-39 -117t38 -135t83 -125t83 -131q38 -68 38 -148q0 -81 -37 -123t-111 -63v27q43 42 43 114z M313 59q0 33 26 57q27 24 57 24t55 -24t25 -57t-26 -57q-24 -24 -55 -22q-31 0 -57 23t-25 56z" />
<glyph unicode="&#x621;" horiz-adv-x="894" d="M379 300.5q0 -73.5 45 -122.5t113 -49h286v-129h-659v129h133q-49 75 -49 151q0 139 85.5 226.5t201 87.5t194 -72.5t105.5 -183.5h-99q-55 133 -178 133q-68 0 -123 -48.5t-55 -122z" />
<glyph unicode="&#x622;" horiz-adv-x="354" d="M164 1239h129v-1239h-129v1239zM338 1374h59v-74h-61q-70 0 -112 8.5t-79 45.5l-90 -88v86l119 112q26 -56 76 -78q26 -12 88 -12z" />
<glyph unicode="&#x623;" horiz-adv-x="354" d="M164 1239h129v-1239h-129v1239zM82 1468q0 53 46 100.5t113.5 47.5t108.5 -43t51 -103h-55q-27 66 -81 66t-76.5 -24.5t-22.5 -56.5t20.5 -55.5t59.5 -23.5h151v-76h-350v76h62q-27 39 -27 92z" />
<glyph unicode="&#x624;" horiz-adv-x="962" d="M389 1120q0 53 46 100.5t113.5 47.5t108.5 -43t52 -103h-56q-27 66 -81 66t-76.5 -24.5t-22.5 -56.5t20.5 -55.5t59.5 -23.5h152v-76h-351v76h62q-27 39 -27 92zM293 430.5q0 -61.5 18.5 -117t51 -96.5t76.5 -64.5t93.5 -23.5t93.5 23.5t75.5 64.5t51 96.5t19.5 117 t-19.5 115.5t-51 96t-75.5 65.5t-93.5 23.5t-93.5 -23.5t-76.5 -65.5t-51 -96t-18.5 -115.5zM772 106q-98 -106 -244.5 -106t-255 124.5t-108.5 305t108 305.5t260.5 125t260.5 -125t108 -305v-491q0 -179 -126 -305t-304 -126h-102v130h102q122 0 211.5 87.5t89.5 213.5 v167z" />
<glyph unicode="&#x625;" horiz-adv-x="354" d="M82 -219q0 53 46 100t113.5 47t108.5 -43t51 -102h-55q-27 66 -81 65.5t-76.5 -25t-22.5 -56t20.5 -55t59.5 -23.5h151v-76h-350v76h62q-27 39 -27 92zM164 1372h129v-1372h-129v1372z" />
<glyph unicode="&#x626;" horiz-adv-x="1484" d="M197 795.5q0 53.5 46 101t113 47.5t108.5 -43t51.5 -102h-55q-27 66 -81 65.5t-76.5 -25t-22.5 -56.5t20.5 -55t58.5 -23h152v-76h-350v76h61q-26 37 -26 90.5zM293 553v-123q0 -125 88 -213t213 -88h268q68 0 89.5 28.5t21.5 102.5v600h239q115 0 163 -60.5t48 -176.5 v-412h-129v389q0 66 -15 98.5t-67 32.5h-110v-493q0 -127 -52.5 -182.5t-175.5 -55.5h-280q-177 0 -303.5 125t-126.5 305v123h129z" />
<glyph unicode="&#x627;" horiz-adv-x="354" d="M164 1372h129v-1372h-129v1372z" />
<glyph unicode="&#x628;" horiz-adv-x="1474" d="M293 553v-123q0 -125 88 -213t213 -88h580q68 0 89 28.5t21 102.5v600h129v-622q0 -127 -52 -182.5t-175 -55.5h-592q-177 0 -303.5 125t-126.5 305v123h129zM793 -169q0 28 19 48.5t47 20.5t48.5 -20.5t20.5 -48.5t-20.5 -47.5t-48.5 -19.5t-47 19.5t-19 47.5z" />
<glyph unicode="&#x629;" horiz-adv-x="962" d="M383 1019q0 28 19.5 48t47.5 20t48 -20t20 -48t-20.5 -47.5t-48 -19.5t-47 19.5t-19.5 47.5zM547 1019q0 28 19.5 48t47 20t48 -20t20.5 -48t-20.5 -47.5t-48.5 -19.5t-47 19.5t-19 47.5zM293 430.5q0 -61.5 18.5 -117t51 -96.5t76.5 -64.5t93.5 -23.5t93.5 23.5 t75.5 64.5t51 96.5t19.5 117t-19.5 115.5t-51 96t-75.5 65.5t-93.5 23.5t-93.5 -23.5t-76.5 -65.5t-51 -96t-18.5 -115.5zM272 735q108 125 260.5 125t260.5 -125t108 -305.5t-108.5 -305t-260 -124.5t-260 124.5t-108.5 305t108 305.5z" />
<glyph unicode="&#x62a;" horiz-adv-x="1474" d="M690 886q0 28 19.5 48t47.5 20t48 -20.5t20 -48t-20.5 -47t-48 -19.5t-47 19.5t-19.5 47.5zM854 886q0 28 19.5 48t47.5 20t48 -20.5t20 -48t-20.5 -47t-48 -19.5t-47 19.5t-19.5 47.5zM293 553v-123q0 -125 88 -213t213 -88h580q68 0 89 28.5t21 102.5v600h129v-622 q0 -127 -52 -182.5t-175 -55.5h-592q-177 0 -303.5 125t-126.5 305v123h129z" />
<glyph unicode="&#x62b;" horiz-adv-x="1474" d="M772 1025q0 28 19.5 47.5t47.5 19.5t48 -19.5t20 -47.5t-20.5 -48.5t-48 -20.5t-47 20.5t-19.5 48.5zM690 886q0 28 19.5 48t47.5 20t48 -20.5t20 -48t-20.5 -47t-48 -19.5t-47 19.5t-19.5 47.5zM854 886q0 28 19.5 48t47.5 20t48 -20.5t20 -48t-20.5 -47t-48 -19.5 t-47 19.5t-19.5 47.5zM293 553v-123q0 -125 88 -213t213 -88h580q68 0 89 28.5t21 102.5v600h129v-622q0 -127 -52 -182.5t-175 -55.5h-592q-177 0 -303.5 125t-126.5 305v123h129z" />
<glyph unicode="&#x62c;" horiz-adv-x="1134" d="M532 0q-97 0 -168 -69t-71 -169t74.5 -170.5t185.5 -70.5v-129q-163 0 -276 107.5t-113 261t107.5 261t260.5 107.5h367q-44 67 -68 187q-23 120 -39 184q-55 231 -235 231q-86 0 -150.5 -72.5t-87.5 -187.5h-129q24 166 127 277.5t228 111.5t192.5 -39t106.5 -102.5 t58.5 -144t40 -163.5t48 -161t82.5 -135v-115h-541zM516 -263q0 28 19.5 48t47.5 20t48 -20.5t20 -48t-20.5 -47t-48 -19.5t-47 19.5t-19.5 47.5z" />
<glyph unicode="&#x62d;" horiz-adv-x="1134" d="M532 0q-97 0 -168 -69t-71 -169t74.5 -170.5t185.5 -70.5v-129q-163 0 -276 107.5t-113 261t107.5 261t260.5 107.5h367q-44 67 -68 187q-23 120 -39 184q-55 231 -235 231q-86 0 -150.5 -72.5t-87.5 -187.5h-129q24 166 127 277.5t228 111.5t192.5 -39t106.5 -102.5 t58.5 -144t40 -163.5t48 -161t82.5 -135v-115h-541z" />
<glyph unicode="&#x62e;" horiz-adv-x="1134" d="M532 0q-97 0 -168 -69t-71 -169t74.5 -170.5t185.5 -70.5v-129q-163 0 -276 107.5t-113 261t107.5 261t260.5 107.5h367q-44 67 -68 187q-23 120 -39 184q-55 231 -235 231q-86 0 -150.5 -72.5t-87.5 -187.5h-129q24 166 127 277.5t228 111.5t192.5 -39t106.5 -102.5 t58.5 -144t40 -163.5t48 -161t82.5 -135v-115h-541zM496 1019q0 28 19.5 48t47 20t48 -20t20.5 -48t-20.5 -47.5t-48.5 -19.5t-47 19.5t-19 47.5z" />
<glyph unicode="&#x62f;" horiz-adv-x="901" d="M164 129h457q55 0 72.5 33t17.5 98v170q0 119 -69 210t-171 91h-266v129h266q154 0 261 -126q108 -126 108 -304v-192q0 -123 -48.5 -180.5t-162.5 -57.5h-465v129z" />
<glyph unicode="&#x630;" horiz-adv-x="901" d="M342 1019q0 28 19.5 48t47.5 20t48 -20t20 -48t-20.5 -47.5t-48 -19.5t-47 19.5t-19.5 47.5zM164 129h457q55 0 72.5 33t17.5 98v170q0 119 -69.5 210t-170.5 91h-266v129h266q154 0 261.5 -126t107.5 -304v-192q0 -123 -48.5 -180.5t-162.5 -57.5h-465v129z" />
<glyph unicode="&#x631;" horiz-adv-x="354" d="M-178 -383h41q122 0 211 87q90 87 90 214v942h129v-942q0 -178 -126 -304t-304 -126h-41v129z" />
<glyph unicode="&#x632;" horiz-adv-x="354" d="M-178 -383h41q122 0 211.5 87.5t89.5 213.5v942h129v-942q0 -178 -126 -304t-304 -126h-41v129zM160 1019q0 28 19.5 48t47 20t48 -20t20.5 -48t-20.5 -47.5t-48.5 -19.5t-47 19.5t-19 47.5z" />
<glyph unicode="&#x633;" horiz-adv-x="1630" d="M1524 860q45 -450 45 -596.5t-48 -205t-170 -58.5t-169 45q-55 -45 -146 -45h-110v-61q0 -178 -126.5 -304.5t-303.5 -126.5q-214 0 -324.5 102t-110.5 281.5t52 559.5h129q-52 -401 -52 -578q0 -100 75 -167.5t214 -67.5t228.5 87.5t89.5 213.5v860h129v-670h110 q51 0 66.5 33t15.5 98v539h129v-539q0 -76 22.5 -103.5t81 -27.5t74 33t15.5 150.5t-45 547.5h129z" />
<glyph unicode="&#x634;" horiz-adv-x="1630" d="M1116 1158q0 28 19.5 47.5t47.5 19.5t48 -19.5t20 -47.5t-20.5 -48t-48 -20t-47 20t-19.5 48zM1034 1019q0 28 19.5 48t47.5 20t48 -20t20 -48t-20.5 -47.5t-48 -19.5t-47 19.5t-19.5 47.5zM1198 1019q0 28 19.5 48t47.5 20t48 -20t20 -48t-20.5 -47.5t-48 -19.5 t-47 19.5t-19.5 47.5zM1524 860q45 -450 45 -596.5t-48 -205t-170 -58.5t-169 45q-55 -45 -146 -45h-110v-61q0 -178 -126.5 -304.5t-303.5 -126.5q-214 0 -324.5 102t-110.5 281.5t52 559.5h129q-52 -401 -52 -578q0 -100 75 -167.5t214 -67.5t228.5 87.5t89.5 213.5v860 h129v-670h110q51 0 66.5 33t15.5 98v539h129v-539q0 -76 22.5 -103.5t81 -27.5t74 33t15.5 150.5t-45 547.5h129z" />
<glyph unicode="&#x635;" horiz-adv-x="1718" d="M1417 129q68 0 89.5 28.5t21.5 102.5v170q0 123 -89 212t-210 89t-212 -80t-91 -188v-334h491zM190 -127q0 -100 75 -167.5t214 -67.5t228.5 87.5t89.5 213.5v921h129v-129q125 129 303 129t303 -126.5t125 -303.5v-192q0 -127 -52.5 -182.5t-174.5 -55.5h-504v-61 q0 -178 -126.5 -304.5t-303.5 -126.5q-214 0 -324.5 102t-110.5 281.5t52 559.5h129q-52 -401 -52 -578z" />
<glyph unicode="&#x636;" horiz-adv-x="1718" d="M1417 129q68 0 89.5 28.5t21.5 102.5v170q0 123 -89 212t-210 89t-212 -80t-91 -188v-334h491zM190 -127q0 -100 75 -167.5t214 -67.5t228.5 87.5t89.5 213.5v921h129v-129q125 129 303 129t303 -126.5t125 -303.5v-192q0 -127 -52.5 -182.5t-174.5 -55.5h-504v-61 q0 -178 -126.5 -304.5t-303.5 -126.5q-214 0 -324.5 102t-110.5 281.5t52 559.5h129q-52 -401 -52 -578zM1155 1019q0 28 19.5 48t47.5 20t48 -20t20 -48t-20.5 -47.5t-48 -19.5t-47 19.5t-19.5 47.5z" />
<glyph unicode="&#x637;" horiz-adv-x="1167" d="M866 129q68 0 89.5 28.5t21.5 102.5v170q0 123 -89 212t-210.5 89t-212 -81.5t-90.5 -194.5v-326h491zM1106 430v-192q0 -127 -52.5 -182.5t-174.5 -55.5h-818v129h185v1243h129v-641q125 129 303 129t303 -126.5t125 -303.5z" />
<glyph unicode="&#x638;" horiz-adv-x="1167" d="M866 129q68 0 89.5 28.5t21.5 102.5v170q0 123 -89 212t-210.5 89t-212 -81.5t-90.5 -194.5v-326h491zM1106 430v-192q0 -127 -52.5 -182.5t-174.5 -55.5h-818v129h185v1243h129v-641q125 129 303 129t303 -126.5t125 -303.5zM612 1019q0 28 19.5 48t47.5 20t48.5 -20 t20.5 -48t-20.5 -47.5t-48.5 -19.5t-47.5 19.5t-19.5 47.5z" />
<glyph unicode="&#x639;" horiz-adv-x="1019" d="M522 0q-96 0 -162.5 -70.5t-66.5 -169t74.5 -169t185.5 -70.5v-129q-163 0 -276 107.5t-113 260.5q0 111 55 197t148 131q-66 59 -105 147.5t-39 185.5q0 187 107.5 313t252.5 126t250 -111t125 -278h-131q-16 111 -82.5 185.5t-159.5 74.5t-163 -89t-70 -213.5 t70.5 -212t169.5 -87.5h348v-129h-418z" />
<glyph unicode="&#x63a;" horiz-adv-x="1019" d="M522 0q-96 0 -162.5 -70.5t-66.5 -169t74.5 -169t185.5 -70.5v-129q-163 0 -276 107.5t-113 260.5q0 111 55 197t148 131q-66 59 -105 147.5t-39 185.5q0 187 107.5 313t252.5 126t250 -111t125 -278h-131q-16 111 -82.5 185.5t-159.5 74.5t-163 -89t-70 -213.5 t70.5 -212t169.5 -87.5h348v-129h-418zM512 1019q0 28 19.5 48t47.5 20t48 -20t20 -48t-20.5 -47.5t-48 -19.5t-47 19.5t-19.5 47.5z" />
<glyph unicode="&#x640;" horiz-adv-x="409" d="M-70 63.5q0 28.5 17.5 47t52.5 18.5h410v-129h-410q-35 0 -52.5 17.5t-17.5 46z" />
<glyph unicode="&#x641;" horiz-adv-x="1685" d="M1405 129q55 0 72.5 33t17.5 98v170q0 118 -68.5 209.5t-170.5 91.5t-171 -89.5t-69 -213t69.5 -211.5t169.5 -88h150zM995 129q-108 116 -108 298t107 307.5t260.5 125.5t261.5 -125t108 -305v-192q0 -123 -48 -180.5t-163 -57.5h-819q-177 0 -303.5 125t-126.5 305v123 h129v-123q0 -125 88 -213t213 -88h401zM1192 1019q0 28 19.5 48t47.5 20t48 -20t20 -48t-20.5 -47.5t-48 -19.5t-47 19.5t-19.5 47.5z" />
<glyph unicode="&#x642;" horiz-adv-x="987" d="M412 1019q0 28 19.5 48t47 20t48 -20t20.5 -48t-20.5 -47.5t-48.5 -19.5t-47 19.5t-19 47.5zM575 1019q0 28 19.5 48t47.5 20t48.5 -20t20.5 -48t-20.5 -47.5t-48.5 -19.5t-47.5 19.5t-19.5 47.5zM317 430.5q0 -61.5 18.5 -117t51.5 -96.5t77 -64.5t93 -23.5t93 23.5 t76 64.5t51.5 96.5t19.5 117t-19.5 115.5t-51.5 96t-76 65.5t-93 23.5t-93 -23.5t-77 -65.5t-51.5 -96t-18.5 -115.5zM797 102q-98 -102 -245 -102t-255.5 125.5t-108.5 304t107.5 304.5t259.5 126t261.5 -129t109.5 -309v-483q0 -178 -126.5 -304.5t-303.5 -126.5 q-214 0 -324.5 102t-110.5 252t13 261h129q-12 -141 -12.5 -245.5t74.5 -172t214 -67.5t228.5 87.5t89.5 213.5v163z" />
<glyph unicode="&#x643;" horiz-adv-x="1617" d="M293 553v-123q0 -125 88 -213t213 -88h723q68 0 89 28.5t21 102.5v1112h129v-1134q0 -127 -52 -182.5t-175 -55.5h-735q-177 0 -304 125q-126 125 -126 305v123h129zM702 743q0 85 62 147t149 62h107v-78h-96q-53 0 -93 -33.5t-40 -97.5v-104h229v-86h-318v190z" />
<glyph unicode="&#x644;" horiz-adv-x="987" d="M190 -127q0 -100 75 -167.5t214 -67.5t228.5 87.5t89.5 213.5v1433h129v-1433q0 -178 -126.5 -304.5t-303.5 -126.5q-214 0 -324.5 102t-110.5 281.5t52 559.5h129q-52 -401 -52 -578z" />
<glyph unicode="&#x645;" horiz-adv-x="901" d="M231 427.5q0 -63.5 19.5 -118.5t51.5 -95t76 -62.5t93 -22.5t93 23.5t76 64.5t51.5 96.5t19.5 117t-19.5 115.5t-51.5 96t-76 65.5t-93 23.5t-93 -23.5t-77 -65.5t-51.5 -96.5t-18.5 -118zM231 -102q0 -172 -94 -287t-246 -127v129q94 12 152.5 90t58.5 195v532 q0 178 107.5 304t261.5 126t261.5 -126t107.5 -304.5t-108.5 -304t-254.5 -125.5t-246 106v-208z" />
<glyph unicode="&#x646;" horiz-adv-x="987" d="M418 730q0 28 19.5 48.5t47 20.5t48 -20.5t20.5 -48.5t-20.5 -47t-48.5 -19t-47 19t-19 47zM190 -127q0 -100 75 -167.5t214 -67.5t228.5 87.5t89.5 213.5v860h129v-860q0 -178 -126.5 -304.5t-303.5 -126.5q-214 0 -324.5 102t-110.5 281.5t52 559.5h129 q-52 -401 -52 -578z" />
<glyph unicode="&#x647;" horiz-adv-x="1304" d="M433.5 210q58.5 -81 142.5 -81t144 81t60 194.5t-60.5 195.5t-143 82t-142 -82t-59.5 -195.5t58.5 -194.5zM909 387q0 -142 -94 -258h209q55 0 72.5 33t17.5 98v213q0 144 -81.5 245t-196.5 101q-72 0 -129 -43q90 -47 146 -147t56 -242zM338 129q-92 113 -92 273.5 t88 276.5t211 128q118 141 288.5 141t290 -139t119.5 -336v-235q0 -123 -48 -180.5t-163 -57.5h-971v129h277z" />
<glyph unicode="&#x648;" horiz-adv-x="962" d="M293 430.5q0 -61.5 18.5 -117t51 -96.5t76.5 -64.5t93.5 -23.5t93.5 23.5t75.5 64.5t51 96.5t19.5 117t-19.5 115.5t-51 96t-75.5 65.5t-93.5 23.5t-93.5 -23.5t-76.5 -65.5t-51 -96t-18.5 -115.5zM772 106q-98 -106 -244 -106q-147 0 -255 125q-109 125 -109 305 t108 305t260 125q153 0 261 -125t108 -305v-491q0 -179 -126 -305t-304 -126h-102v130h102q122 0 211 87q90 87 90 214v167z" />
<glyph unicode="&#x649;" horiz-adv-x="1484" d="M293 553v-123q0 -125 88 -213t213 -88h268q68 0 89.5 28.5t21.5 102.5v600h239q115 0 163 -60.5t48 -176.5v-412h-129v389q0 66 -15 98.5t-67 32.5h-110v-493q0 -127 -52.5 -182.5t-175.5 -55.5h-280q-177 0 -304 125q-126 125 -126 305v123h129z" />
<glyph unicode="&#x64a;" horiz-adv-x="1484" d="M608 -169q0 28 19.5 48.5t47.5 20.5t48 -20.5t20 -48.5t-20.5 -47.5t-48 -19.5t-47 19.5t-19.5 47.5zM772 -169q0 28 19.5 48.5t47.5 20.5t48 -20.5t20 -48.5t-20.5 -47.5t-48 -19.5t-47 19.5t-19.5 47.5zM293 553v-123q0 -125 88 -213t213 -88h268q68 0 89.5 28.5 t21.5 102.5v600h239q115 0 163 -60.5t48 -176.5v-412h-129v389q0 66 -15 98.5t-67 32.5h-110v-493q0 -127 -52.5 -182.5t-175.5 -55.5h-280q-177 0 -303.5 125t-126.5 305v123h129z" />
<glyph unicode="&#x64b;" d="M-184 84v78l368 102v-80zM-184 -49v78l368 100v-80z" />
<glyph unicode="&#x64c;" d="M164 182q0 33 -20.5 57.5t-55.5 24.5t-54.5 -24.5t-19.5 -57.5t18.5 -59.5t55.5 -26.5t56.5 26.5t19.5 59.5zM-57 175.5q0 67.5 42 113t105.5 45.5t101 -45t37.5 -102.5t-29.5 -100.5t-78.5 -55l-240 -62l-28 11v122q0 35 -13.5 58.5t-36.5 23.5l-32 -8v72q16 8 46.5 8 t67.5 -40t37 -105v-60l62 19q-41 38 -41 105.5z" />
<glyph unicode="&#x64d;" d="M-184 -262v78l368 100v-78zM-184 -129v78l368 102v-80z" />
<glyph unicode="&#x64e;" d="M-184 -49v78l368 98v-80z" />
<glyph unicode="&#x64f;" d="M129 176q0 33 -20.5 57.5t-55.5 24.5t-54 -24.5t-19 -57.5t18 -59.5t55 -26.5t56.5 26.5t19.5 59.5zM-92 169q0 68 42 113.5t105.5 45.5t101.5 -45t38 -101.5t-31 -98.5t-78 -58l-279 -78v73l144 41q-43 40 -43 108z" />
<glyph unicode="&#x650;" d="M-184 -131v80l368 100v-80z" />
<glyph unicode="&#x651;" d="M35 152q0 -74 47 -74t47 80v92l76 20v-116q0 -70 -33 -111t-82 -41t-76 21q-28 -70 -108 -70q-56 -1 -74 21q-35 42 -35 126v33l72 21v-72q0 -55 43 -55q27 0 40 20.5t13 44.5v96l70 27v-63z" />
<glyph unicode="&#x652;" d="M90 174q0 37 -23.5 65.5t-64.5 28.5t-63.5 -28.5t-22.5 -65.5t21.5 -67.5t65.5 -30.5t65.5 30.5t21.5 67.5zM-162 173q0 71 47 121t119 50t116 -50t44 -121t-44 -122t-119 -51t-119 51t-44 122z" />
<glyph unicode="&#x653;" d="M113 74h59v-74h-61q-70 0 -112 8t-79 45l-90 -88v86l119 113q39 -85 119 -89q22 -1 45 -1z" />
<glyph unicode="&#x654;" d="M-143 167q0 54 46 101t113 47t108.5 -43t51.5 -102h-55q-27 66 -81 66t-76.5 -25t-22.5 -56.5t20.5 -55t58.5 -23.5h152v-76h-350v76h61q-26 37 -26 91z" />
<glyph unicode="&#x655;" d="M-143 -147q0 54 46 101.5t113 47.5t108.5 -43t51.5 -102h-55q-27 66 -81 65.5t-76.5 -25t-22.5 -56.5t20.5 -55.5t58.5 -23.5h152v-75h-350v75h61q-26 37 -26 91z" />
<glyph unicode="&#x656;" d="M55 -203v-100h-82v86q0 122 -24 219h88q18 -81 18 -205z" />
<glyph unicode="&#x657;" d="M-2 217q-31 0 -51.5 -17.5t-20.5 -53.5t22.5 -55t53.5 -19t48.5 21.5t17.5 51t-19.5 51t-50.5 21.5zM-152 134q0 89 58 151l192 207l47 -58l-147 -151q53 -4 98 -37t45 -93.5t-34.5 -106.5t-106.5 -46t-112 42t-40 92z" />
<glyph unicode="&#x658;" d="M1 0q-87 0 -137 50t-63 114h88q10 -33 39 -59.5t75 -26.5t74.5 26.5t39.5 59.5h82q-22 -106 -116 -148q-34 -16 -82 -16z" />
<glyph unicode="&#x65a;" d="M-78 258l78 -143l82 145l74 -45l-123 -215h-68l-121 221z" />
<glyph unicode="&#x660;" horiz-adv-x="956" d="M328 273q0 61 43 107t105 46t108 -45t45 -107q0 -62 -45 -106q-46 -43 -108 -43t-105 43t-43 105z" />
<glyph unicode="&#x661;" horiz-adv-x="784" d="M457 0h-129v1229h129v-1229z" />
<glyph unicode="&#x662;" horiz-adv-x="1101" d="M897 1229v-129h-481q-50 0 -66 -35t-16 -96l61 -969h-129l-61 989q0 123 46 181t165 59h481z" />
<glyph unicode="&#x663;" horiz-adv-x="849" d="M788 1014q0 -121 -66 -202t-169 -81h-363v-731h-129v1229h129v-369h164v348h129v-348h64q49 0 77 45t28 87q-1 93 -18 157t-26 80h133q47 -94 47 -215z" />
<glyph unicode="&#x664;" horiz-adv-x="802" d="M252 270q0 -141 219 -141h209v-129h-223q-179 0 -266 85q-68 67 -68 171t63 204t183 163q-94 27 -157 88q-62 61 -62 163q0 135 114 235q114 101 332 120v-129q-154 -16 -232 -76t-79 -150q0 -149 331 -169v-125q-180 -39 -272 -127t-92 -183z" />
<glyph unicode="&#x665;" horiz-adv-x="1048" d="M522 168q270 0 275 356q0 220 -73 364t-197 144t-200 -145q-75 -145 -75 -349t66 -287t204 -83zM926 524q0 -349 -215 -448q-78 -37 -189 -37q-205 0 -302 115t-97 378t108 446t294 183q185 0 293 -182t108 -455z" />
<glyph unicode="&#x666;" horiz-adv-x="958" d="M584 1229q114 1 162 -57t49 -181v-991h-129v969q0 67 -16 99t-66 32h-420v129h420z" />
<glyph unicode="&#x667;" horiz-adv-x="993" d="M696 1229h133l-258 -1229h-145q-80 364 -262 1229h131q15 -90 29 -156t26 -125t29 -136t52 -241q34 -165 65 -313z" />
<glyph unicode="&#x668;" horiz-adv-x="993" d="M164 0q151 718 262 1229h145l258 -1229h-133l-196 971l-205 -971h-131z" />
<glyph unicode="&#x669;" horiz-adv-x="960" d="M481 674h176v213q0 90 -53 150q-53 61 -124 62t-124 -61t-53 -150q0 -90 51 -152t127 -62zM657 0v545h-176q-129 0 -218 100t-89 241t91 242t216 101q124 0 216 -103q91 -103 89 -239v-887h-129z" />
<glyph unicode="&#x66a;" horiz-adv-x="1155" d="M297 1150q0 40 28 68q29 28 69 28t68 -28t28 -68t-28 -67t-69 -27t-69 28q-28 26 -27 66zM721 120q0 40 28 68q29 28 69 27q40 0 68 -28q28 -27 28 -67t-30 -67q-28 -27 -68 -27t-68 28q-28 26 -27 66zM133 -29l776 1317h113l-758 -1317h-131z" />
<glyph unicode="&#x66b;" horiz-adv-x="514" d="M253 256q54 0 96 -30t42 -83t-39 -125l-145 -272l-84 43l113 217q-102 18 -103 119q0 49 33 90t87 41z" />
<glyph unicode="&#x66c;" horiz-adv-x="438" d="M190 236h125v-224l-84 -248h-108l67 261v211z" />
</font>
</defs>
</svg>
