<?xml version="1.0" standalone="no"?>
<!DOCTYPE svg PUBLIC "-//W3C//DTD SVG 1.1//EN" "http://www.w3.org/Graphics/SVG/1.1/DTD/svg11.dtd" >
<svg xmlns="http://www.w3.org/2000/svg" xmlns:xlink="http://www.w3.org/1999/xlink" version="1.1">
<metadata></metadata>
<defs>
<font id="jomhuriaregular" horiz-adv-x="714" >
<font-face units-per-em="2048" ascent="1256" descent="-792" />
<missing-glyph horiz-adv-x="273" />
<glyph unicode="&#xfb01;" horiz-adv-x="688" d="M3 460h66v-460h222v460h88v120h-88v98q0 81 52 89q8 1 17 2q35 0 67 -17l26 104q-10 10 -51 22.5t-87 12.5q-52 0 -94 -12.5t-76.5 -40.5t-53.5 -78.5t-19 -119.5v-60l-69 -29v-91zM386 467l41 -25v-442h220v580h-114l-147 -40v-73zM414 756l112 -113h26l117 113v24 l-117 112h-26l-112 -112v-24z" />
<glyph unicode="&#xfb02;" horiz-adv-x="688" d="M3 460h66v-460h222v460h88v120h-88v98q0 81 52 89q8 1 17 2q35 0 67 -17l26 104q-10 10 -51 22.5t-87 12.5q-52 0 -94 -12.5t-76.5 -40.5t-53.5 -78.5t-19 -119.5v-60l-69 -29v-91zM386 797l41 -25v-772h222v894h-44l-219 -34v-63z" />
<glyph unicode="&#xfb03;" horiz-adv-x="1062" d="M3 460h66v-460h222v460h88v120h-88v98q0 81 52 89q8 1 17 2q35 0 67 -17l26 104q-10 10 -51 22.5t-87 12.5q-52 0 -94 -12.5t-76.5 -40.5t-53.5 -78.5t-19 -119.5v-60l-69 -29v-91zM377 460h66v-460h222v460h88v120h-88v98q0 81 52 89q8 1 17 2q35 0 67 -17l26 104 q-10 10 -51 22.5t-87 12.5q-52 0 -94 -12.5t-76.5 -40.5t-53.5 -78.5t-19 -119.5v-60l-69 -29v-91zM760 467l41 -25v-442h220v580h-114l-147 -40v-73zM788 756l112 -113h26l117 113v24l-117 112h-26l-112 -112v-24z" />
<glyph unicode="&#xfb04;" horiz-adv-x="1053" d="M3 460h66v-460h222v460h88v120h-88v98q0 81 52 89q8 1 17 2q35 0 67 -17l26 104q-10 10 -51 22.5t-87 12.5q-52 0 -94 -12.5t-76.5 -40.5t-53.5 -78.5t-19 -119.5v-60l-69 -29v-91zM377 460h66v-460h222v460h88v120h-88v98q0 81 52 89q8 1 17 2q35 0 67 -17l26 104 q-10 10 -51 22.5t-87 12.5q-52 0 -94 -12.5t-76.5 -40.5t-53.5 -78.5t-19 -119.5v-60l-69 -29v-91zM753 797l41 -25v-772h222v894h-44l-219 -34v-63z" />
<glyph horiz-adv-x="0" />
<glyph horiz-adv-x="682" />
<glyph unicode="&#xd;" horiz-adv-x="682" />
<glyph unicode=" "  horiz-adv-x="273" />
<glyph unicode="&#x09;" horiz-adv-x="273" />
<glyph unicode="&#xa0;" horiz-adv-x="273" />
<glyph unicode="!" horiz-adv-x="395" d="M61 708q0 -34 10 -64q40 -109 57 -183t18 -163h105q1 89 17.5 163t57.5 183q9 28 9 61q0 63 -33 99t-103 36q-67 0 -102.5 -33.5t-35.5 -98.5zM72 100l112 -113h26l117 113v24l-117 112h-26l-112 -112v-24z" />
<glyph unicode="&#x22;" horiz-adv-x="550" d="M41 913l27 -467h119l34 467h-180zM330 913l27 -467h119l34 467h-180z" />
<glyph unicode="#" horiz-adv-x="870" d="M37 235h140l-59 -235h137l59 235h151l-59 -235h136l59 235h149l34 138h-148l34 132h149l34 138h-148l60 237h-137l-60 -237h-150l59 237h-137l-59 -237h-141l-35 -138h141l-34 -132h-140zM349 373l34 132h150l-33 -132h-151z" />
<glyph unicode="$" horiz-adv-x="569" d="M23 565q0 -33 7.5 -62.5t18 -51.5t27 -42.5t31 -33.5t34.5 -26.5t31.5 -19.5t28.5 -15q68 -33 95.5 -56t27.5 -56q0 -31 -24 -42.5t-78.5 -11.5t-102 27.5t-75.5 65.5l-17 -166q22 -24 63.5 -47t102.5 -34v-122h171v122q88 20 133.5 88t45.5 180q0 83 -46.5 141 t-146.5 101q-10 6 -28.5 16t-29 16.5t-23 16.5t-18 21.5t-5.5 25.5q0 55 88 55q36 0 76 -15.5t67 -46.5l34 131q-1 3 -5 7t-16.5 15.5t-28 21.5t-41.5 20t-56 15v112h-171v-118q-55 -14 -92.5 -42.5t-57.5 -76.5t-20 -113z" />
<glyph unicode="%" horiz-adv-x="1284" d="M41 535q0 -134 55.5 -193t189.5 -59q139 0 197 62.5t58 197.5q0 65 -12 111t-40 79t-76 49t-119 16q-73 0 -122.5 -17t-78 -52t-40.5 -81.5t-12 -112.5zM242 461v189q0 76 48 76q27 0 38 -27t11 -85v-183q-1 -78 -49 -78q-25 0 -36.5 26.5t-11.5 81.5zM286 0h167l551 799 h-166zM744 237q0 -134 55.5 -193t189.5 -59q139 0 197 62t58 198q0 65 -12 110.5t-40 79t-76 49.5t-119 16q-73 0 -122.5 -17t-78 -52.5t-40.5 -82t-12 -111.5zM945 163v189q0 76 48 76q27 0 38 -27.5t11 -84.5v-183q-1 -78 -49 -78q-25 0 -36.5 26t-11.5 82z" />
<glyph unicode="&#x26;" horiz-adv-x="773" d="M9 238q0 -112 78.5 -186.5t214.5 -74.5q174 0 233 48q54 -37 154 -37q11 0 30 2l52 119q-48 10 -96 51q21 28 33 46.5t23.5 60.5t11.5 95l-183 6q5 -14 2.5 -34.5t-6 -36.5t-9.5 -32q-23 18 -50 51.5t-37 51.5q87 54 128 113.5t41 136.5q0 37 -13 70t-40 62.5t-77.5 47.5 t-117.5 18q-152 0 -216.5 -53.5t-64.5 -157.5q0 -28 9 -56t20 -46t23.5 -38.5t16.5 -28.5q-63 -26 -111.5 -77.5t-48.5 -120.5zM212 234q0 35 6 51.5t22 26.5q67 -115 178 -192q-7 -3 -18 -8.5t-16.5 -8t-13 -5.5t-14 -4t-15.5 -1q-52 0 -90.5 39.5t-38.5 101.5zM328 608 q0 112 50 112q58 0 58 -99q0 -33 -2.5 -51t-15.5 -43t-40 -46q-51 58 -50 127z" />
<glyph unicode="'" horiz-adv-x="261" d="M41 913l27 -467h119l34 467h-180z" />
<glyph unicode="(" horiz-adv-x="404" d="M61 388q0 -362 200 -579h129q-66 102 -104 236.5t-38 343t38 343t104 236.5h-129q-26 -28 -49 -59t-52 -85t-49.5 -113.5t-35 -144.5t-14.5 -178z" />
<glyph unicode=")" horiz-adv-x="404" d="M14 -191h129q26 28 49 59t52 85t49.5 113.5t35 144.5t14.5 177q0 362 -200 580h-129q31 -48 55 -99t44.5 -120.5t31.5 -160t11 -200.5q0 -208 -38 -342.5t-104 -236.5z" />
<glyph unicode="*" horiz-adv-x="675" d="M27 565q0 -35 23 -63t57 -28q17 0 87.5 38.5t90.5 45.5q-21 -44 -65 -95q-16 -18 -23 -27t-12.5 -23.5t-5.5 -29.5q0 -33 26 -56t61 -23t57.5 23.5t22.5 60.5q0 -1 -0.5 14.5t-1 33t-0.5 19.5q0 43 8 81q28 -43 48 -100q17 -48 35 -70t52 -22q33 0 61 27.5t28 59.5 q0 30 -16.5 47.5t-56.5 38.5q-67 35 -99 64q8 1 26 1q45 0 95 -10q31 -6 45 -6q33 0 56 23.5t23 54.5q0 35 -23.5 63t-56.5 28q-18 0 -85.5 -37.5t-93.5 -46.5q23 48 67 97q20 23 30 40t10 38q0 33 -24.5 56t-62.5 23q-35 0 -57.5 -24t-22.5 -60q0 1 0 -15t1 -32.5t1 -19.5 q0 -39 -8 -80q-23 34 -49 101q-20 51 -33 66q-20 24 -53.5 24t-61 -27.5t-27.5 -59.5q0 -31 17 -49t56 -37q62 -32 98 -64q-8 -1 -23 -1q-22 0 -77 8t-65 8q-34 0 -56.5 -23t-22.5 -55z" />
<glyph unicode="+" horiz-adv-x="783" d="M75 283h241v-269h152v269h241v137h-241v267h-152v-267h-241v-137z" />
<glyph unicode="," horiz-adv-x="283" d="M11 100l96 -97q-9 -45 -32.5 -81.5t-45.5 -55.5l94 -35q70 60 106.5 135.5t36.5 133.5v24l-117 112h-26l-112 -112v-24z" />
<glyph unicode="-" horiz-adv-x="517" d="M55 317h408v171h-408v-171z" />
<glyph unicode="." horiz-adv-x="279" d="M11 100l112 -113h26l117 113v24l-117 112h-26l-112 -112v-24z" />
<glyph unicode="/" horiz-adv-x="484" d="M18 0h181l267 880h-181z" />
<glyph unicode="0" d="M19 397q0 -78 7.5 -136.5t28.5 -112.5t56.5 -88t93 -54t136.5 -20q83 0 145 18.5t102 51.5t64.5 86t34 114t9.5 143q0 78 -7.5 136t-29 112.5t-56.5 89.5t-93.5 55.5t-137.5 20.5q-83 0 -145 -19t-101.5 -53t-63.5 -87t-33.5 -114t-9.5 -143zM270 309v172 q0 122 20.5 169.5t65.5 47.5q89 0 88 -194v-164q0 -99 -10 -150.5t-28 -67t-50 -15.5q-44 0 -65 45.5t-21 156.5z" />
<glyph unicode="1" horiz-adv-x="447" d="M13 519l124 13v-532h228v799h-151q-13 -37 -33.5 -62t-49 -39.5t-54.5 -21t-64 -12.5v-145z" />
<glyph unicode="2" horiz-adv-x="675" d="M49 100q0 -83 4 -92l4 -8h582v188l-410 -30q22 27 53 53.5t62 47t65.5 44t65 44t58.5 46t48 52t32 61t12 72.5q0 53 -15.5 93.5t-42 66.5t-64.5 43t-79 24t-89 7q-210 0 -284 -113l10 -160l124 -1l33 141q31 10 75 9q53 0 79 -54q15 -30 15 -63q0 -58 -47 -118t-158 -151 q-133 -104 -133 -202z" />
<glyph unicode="3" horiz-adv-x="581" d="M34 47q96 -61 208 -61q147 0 227.5 61.5t80.5 151.5q0 102 -51.5 157.5t-138.5 61.5q162 14 162 166q0 51 -15 91t-47.5 71.5t-87.5 48.5t-130 17q-111 0 -208 -62v-112q48 36 108 36q62 0 99.5 -28.5t37.5 -89.5q0 -63 -37 -85t-112 -22h-8v-94h17q140 0 140 -118 q0 -23 -5 -41t-18.5 -35.5t-42.5 -27.5t-71 -10q-60 0 -108 36v-112z" />
<glyph unicode="4" horiz-adv-x="732" d="M8 286l14 -134h354v-152h235v152h89v133h-89v515h-205zM175 285l201 302v-302h-201z" />
<glyph unicode="5" horiz-adv-x="644" d="M42 51q102 -65 209 -65q171 0 255.5 76t84.5 211q0 65 -20.5 113t-57 75.5t-80 41t-94.5 13.5q-31 0 -67 -8t-54 -19l28 142h285l47 169h-480l-45 -456q94 38 170 38q74 0 108.5 -31.5t34.5 -85.5q0 -72 -44 -102.5t-136 -30.5q-31 0 -77 13t-67 30v-124z" />
<glyph unicode="6" horiz-adv-x="737" d="M46 363q0 -105 39.5 -190.5t113 -136t166.5 -50.5q139 0 231.5 86.5t92.5 223.5q0 114 -68 186t-171 72q-100 0 -139 -28v28q0 57 59 92q46 28 100 28q85 0 128 -23l39 99l-1 4q-25 20 -54 32t-71 19t-98 7q-162 0 -264.5 -123.5t-102.5 -325.5zM304 181v203q4 35 64 34 q24 0 43.5 -17t19.5 -40v-180q0 -23 -19.5 -40t-44.5 -17q-24 0 -43.5 17t-19.5 40z" />
<glyph unicode="7" horiz-adv-x="586" d="M27 618l371 16q-76 -60 -134.5 -164t-91.5 -222.5t-46 -247.5h276q-2 37 -2 73q0 116 16.5 220.5t43.5 178.5t56 125.5t60 78.5l-39 123h-510v-181z" />
<glyph unicode="8" horiz-adv-x="686" d="M31 203q0 -66 41 -116.5t109 -75.5t151 -25q93 0 163 26t112 82t42 137q0 38 -13 69.5t-38 58t-51 46.5t-64 41q36 18 62 40t41 44.5t21.5 45t6.5 46.5q1 35 -16.5 68.5t-50.5 60t-85 42.5t-115 16q-139 0 -215 -58.5t-78 -166.5q-1 -40 8 -73t26.5 -58t37 -42.5 t46.5 -36.5q-44 -12 -77.5 -41.5t-48.5 -63t-15 -66.5zM228 235q1 50 40 81q20 -14 47.5 -29.5t41.5 -24t29 -19.5t20.5 -22.5t5.5 -25.5q0 -35 -23.5 -58.5t-56.5 -20.5q-55 5 -80 33t-24 86zM266 612q1 31 24.5 52.5t56.5 21.5t64 -26t31 -61q0 -9 -2.5 -19t-7 -20 t-10.5 -21t-13.5 -21t-15.5 -20q-16 8 -28 16q-7 4 -22 12.5t-23.5 13t-20.5 13t-18 16.5t-10.5 19t-4.5 24z" />
<glyph unicode="9" horiz-adv-x="750" d="M42 515q0 -115 68.5 -193t170.5 -78q35 0 73.5 11t64.5 31v-29q0 -35 -24 -66t-60.5 -49t-73.5 -18q-2 0 -10.5 -0.5t-13.5 0t-15 1t-18.5 3t-20 6.5t-24.5 11t-27 15l-38 -99v-4q92 -71 237 -71q104 0 185 60.5t124.5 167t43.5 241.5q0 158 -88 257.5t-231 99.5 q-91 0 -164 -35.5t-116 -103.5t-43 -158zM299 437v180q0 23 19.5 40t44.5 17q24 0 44 -17t20 -40v-189q-3 -20 -23 -34t-42 -14q-24 0 -43.5 17t-19.5 40z" />
<glyph unicode=":" horiz-adv-x="279" d="M11 100l112 -113h26l117 113v24l-117 112h-26l-112 -112v-24zM11 445l112 -113h26l117 113v24l-117 112h-26l-112 -112v-24z" />
<glyph unicode=";" horiz-adv-x="283" d="M11 100l96 -97q-9 -45 -32.5 -81.5t-45.5 -55.5l94 -35q70 60 106.5 135.5t36.5 133.5v24l-117 112h-26l-112 -112v-24zM11 445l112 -113h26l117 113v24l-117 112h-26l-112 -112v-24z" />
<glyph unicode="&#x3c;" horiz-adv-x="623" d="M18 337l338 -337h216l-338 337l337 336h-215z" />
<glyph unicode="=" horiz-adv-x="783" d="M109 145h565v138h-565v-138zM109 421h565v137h-565v-137z" />
<glyph unicode="&#x3e;" horiz-adv-x="623" d="M52 0h216l338 337l-338 336h-215l337 -336z" />
<glyph unicode="?" horiz-adv-x="578" d="M42 679l93 -56q8 25 30.5 40.5t46.5 15.5q33 0 52.5 -17.5t19.5 -55.5q0 -24 -36.5 -108t-36.5 -108q0 -47 15 -75h117l-3 9q-2 5 -2 11q0 18 18.5 44.5t44.5 54t53 58t45 64.5t18 63q0 193 -241 193q-171 0 -234 -133zM160 100l112 -113h26l117 113v24l-117 112h-26 l-112 -112v-24z" />
<glyph unicode="@" horiz-adv-x="1072" d="M29 218q0 -215 130.5 -329.5t389.5 -114.5q114 0 174 8l10 90q-80 -9 -152 -9q-94 0 -162 15t-111 40.5t-68.5 67t-35 87.5t-9.5 110q0 136 20 233t65.5 167t121 103.5t185.5 33.5q75 0 127.5 -10t87 -29t53.5 -53.5t27 -78t8 -107.5v-13v-46t-1.5 -47t-3.5 -49.5 t-6.5 -46.5t-10.5 -45t-16 -36.5t-22.5 -30.5t-30 -18.5t-38.5 -7.5l19 307q0 104 -40 145t-153 41q-129 0 -250 -75l37 -93q64 33 135 33q46 0 67 -18t21 -56q0 -6 -2 -21q-29 0 -58 -3t-66 -10.5t-67.5 -23t-57.5 -38t-42 -58.5t-15 -81q0 -40 15 -71.5t39 -49.5t51 -27 t53 -9q43 0 85.5 17t62.5 34l21 17q1 -1 8 -11.5t9.5 -13t10 -11t15 -10.5t19 -7t27.5 -6.5t35 -1.5q151 0 229.5 105t78.5 287q0 429 -432 429q-127 0 -233 -37t-185.5 -109.5t-124 -189t-44.5 -268.5zM492 178q0 101 98 101l-11 -155v-2l-4 -3q-5 -4 -13 -8t-17 -4 q-53 0 -53 71z" />
<glyph unicode="A" horiz-adv-x="669" d="M-13 0h201l26 128h194l30 -128h251l-228 800h-282l16 -55zM242 267l60 298l72 -298h-132z" />
<glyph unicode="B" horiz-adv-x="669" d="M46 0h65q37 -1 122 -3.5t138 -2.5q74 0 129.5 18.5t88 51.5t48 75.5t15.5 95.5q0 175 -161 189q63 13 96.5 65t33.5 124q0 47 -13 81t-44.5 60t-86.5 39t-135 13q-25 0 -80 -3t-98 -3h-118v-800zM271 134v222h53q36 0 65 -19t29 -63v-48q0 -38 -23 -65t-71 -27h-53z M271 471v197h50q42 0 64.5 -16t22.5 -57v-17q0 -45 -21 -76t-61 -31h-55z" />
<glyph unicode="C" horiz-adv-x="566" d="M26 398q0 -95 15.5 -167t51.5 -129t99.5 -86.5t152.5 -29.5q42 0 79 7t59.5 17.5t38.5 21t23 17.5l6 8l-31 108q-25 -18 -63 -26.5t-73 -8.5q-16 0 -29.5 4.5t-30.5 20.5t-29 43t-20.5 77.5t-8.5 118.5q0 113 12.5 173.5t37.5 81.5t70 21q8 0 21 -4l35 -81h104l10 157 q-2 3 -6.5 7.5t-21.5 17t-38.5 22t-59 17t-79.5 7.5q-92 0 -156.5 -28t-101 -83.5t-52 -129t-15.5 -174.5z" />
<glyph unicode="D" horiz-adv-x="681" d="M46 0h108q55 0 106.5 -2.5t76.5 -2.5q75 0 133.5 26t94 67.5t58.5 99.5t32 115t9 121q0 187 -75.5 284.5t-249.5 97.5q-31 0 -85 -2.5t-100 -3.5h-108v-800zM272 112v570h51q48 0 74 -58.5t26 -166.5v-69q0 -147 -28 -211.5t-80 -64.5h-43z" />
<glyph unicode="E" horiz-adv-x="546" d="M46 0h484v171l-258 -7v181l184 -13v160h-184v154l234 -7l14 161h-474v-800z" />
<glyph unicode="F" horiz-adv-x="505" d="M46 0h226v298l184 -13v169h-184v186l224 -14v174h-450v-800z" />
<glyph unicode="G" horiz-adv-x="686" d="M13 388q0 -91 16.5 -162t53 -126.5t98 -84.5t146.5 -29h3q117 0 203 86l8 -72h122l1 470h-304v-140l90 -20v-70q0 -37 -7 -60.5t-21 -35.5t-30.5 -16t-40.5 -4q-48 0 -64.5 71.5t-16.5 219.5q0 71 6.5 120.5t16 78.5t27 44.5t35.5 20t45 4.5q33 0 49 -8l38 -91h125 l10 157q-1 1 -3.5 4t-12 10.5t-21 14t-31 15t-41 14.5t-53 10t-65.5 4q-76 0 -135 -13.5t-101 -40t-70.5 -62t-45 -85t-23.5 -103.5t-7 -121z" />
<glyph unicode="H" horiz-adv-x="718" d="M46 0h226v326h175v-326h226v800h-226v-317h-175v317h-226v-800z" />
<glyph unicode="I" horiz-adv-x="327" d="M48 0h233v800h-233v-800z" />
<glyph unicode="J" horiz-adv-x="451" d="M40 169l2 -142q14 -14 54.5 -27t90.5 -13q55 0 96 14.5t65.5 38t39.5 59t20.5 73t5.5 85.5v543h-255l33 -60v-496q0 -52 -21.5 -74t-58.5 -22q-22 0 -35.5 4t-36.5 17z" />
<glyph unicode="K" horiz-adv-x="673" d="M46 0h226v373q27 -46 63 -134.5t63 -158.5t35 -80h251q-14 21 -45 88.5t-59.5 134t-61.5 127.5t-52 75l203 375h-227l-170 -383v383h-226v-800z" />
<glyph unicode="L" horiz-adv-x="492" d="M46 0h429v183h-203v617h-226v-800z" />
<glyph unicode="M" horiz-adv-x="921" d="M14 0h205l21 470l4 174l126 -564h178l105 564l8 -174l35 -470h212l-59 800h-285l-53 -269l-26 -135l-28 136l-60 268h-320z" />
<glyph unicode="N" horiz-adv-x="739" d="M12 800l34 -64v-736h217v252l-40 262l100 -198l162 -316h209v800h-218v-214l33 -304l-120 259l-125 259h-252z" />
<glyph unicode="O" d="M26 397q0 -55 3.5 -99t12.5 -88t23.5 -77t38.5 -61.5t57 -47t78 -28.5t102 -10q83 0 144.5 18.5t100.5 51.5t62 86t32 114t9 143q0 55 -3.5 98.5t-12.5 88t-23.5 77.5t-39 62.5t-57 48t-78.5 29t-103 10.5q-83 0 -144 -19t-100 -52.5t-62 -87t-31.5 -114.5t-8.5 -143z M277 309v172q0 124 17.5 170.5t61 46.5t63 -48t19.5 -146v-164q0 -100 -8.5 -150.5t-25 -66.5t-48.5 -16q-44 0 -61.5 44.5t-17.5 157.5z" />
<glyph unicode="P" horiz-adv-x="640" d="M46 0h226v169q1 0 8 -0.5t10 -0.5t11 -0.5t12 -0.5t12 -0.5t14 -1t13 -0.5h14q53 0 101 24t85.5 68.5t59.5 113.5t22 154q0 141 -68 211t-201 70q-47 0 -120 -3t-109 -3h-90v-800zM272 313v355h32q51 0 78.5 -31t27.5 -82v-101q0 -68 -29.5 -104.5t-83.5 -36.5h-25z" />
<glyph unicode="Q" d="M26 397q0 -49 2.5 -88.5t9 -79.5t18 -71.5t29 -60t41.5 -48.5t57.5 -35t75.5 -22q3 -115 40.5 -164t126.5 -49q111 0 167 48l2 2v93q-6 -4 -13 -6.5t-15.5 -4.5t-17.5 -2q-33 0 -49.5 18t-16.5 72v4q48 14 84 39.5t59 60t37.5 81t20 98t5.5 117.5q0 55 -3.5 98.5 t-12.5 88t-23.5 77.5t-39 62.5t-57 48t-78.5 29t-103 10.5q-83 0 -144 -19t-100 -52.5t-62 -87t-31.5 -114.5t-8.5 -143zM277 302v179q0 156 31 195q17 22 48 22q44 0 63 -48t19 -146v-171q0 -164 -26 -205q-16 -28 -56 -28q-44 0 -61.5 44.5t-17.5 157.5z" />
<glyph unicode="R" horiz-adv-x="660" d="M44 0h226v266q5 0 17.5 -0.5t23.5 -1t25.5 -1t27.5 -0.5h3q13 -42 20.5 -103.5t11.5 -105.5t11 -54h252q-14 18 -26 55t-21 75t-21.5 75t-34.5 64.5t-53 34.5q57 36 91 98t34 141q0 134 -72.5 198.5t-219.5 64.5q-42 0 -107 -3t-98 -3h-90v-800zM270 394v280h13 q58 0 89 -23.5t31 -82.5v-54q0 -27 -4 -47.5t-12 -33.5t-17.5 -21.5t-23.5 -12t-25.5 -5t-28.5 -0.5h-22z" />
<glyph unicode="S" horiz-adv-x="569" d="M23 565q0 -45 14 -84t31.5 -64t46 -48t45.5 -33t41 -22q68 -33 95.5 -56t27.5 -56q0 -31 -24 -42.5t-78.5 -11.5t-102 27.5t-75.5 65.5l-17 -166q13 -14 32.5 -27.5t50.5 -28.5t76 -24t98 -9q126 0 192.5 70.5t66.5 205.5q0 83 -46.5 141t-146.5 101q-10 6 -28.5 16 t-29 16.5t-23 16.5t-18 21.5t-5.5 25.5q0 55 88 55q36 0 76 -15.5t67 -46.5l34 131q-2 3 -7 9t-23 21t-40 26t-60.5 20t-82.5 9q-275 0 -275 -244z" />
<glyph unicode="T" horiz-adv-x="577" d="M13 619h160v-619h230v619h160v181h-550v-181z" />
<glyph unicode="U" horiz-adv-x="705" d="M45 251q0 -46 9 -84.5t31 -73t56.5 -57.5t89 -36.5t124.5 -13.5q72 0 126 13.5t88 36.5t54.5 57.5t28.5 71t8 82.5v553h-216v-520q0 -44 -6.5 -74.5t-18.5 -46.5t-26.5 -22.5t-33.5 -6.5q-35 0 -53 32.5t-18 119.5v518h-243v-549z" />
<glyph unicode="V" horiz-adv-x="582" d="M-45 800l226 -800h248l198 800h-180l-61 -276l-58 -289l-62 289l-59 276h-252z" />
<glyph unicode="W" horiz-adv-x="907" d="M-30 800l190 -800h216l70 322l84 -322h233l176 800h-207l-40 -276l-38 -267l-60 267l-49 276h-223l52 -203l-18 -73l-69 -267l-54 267l-36 276h-227z" />
<glyph unicode="X" horiz-adv-x="619" d="M-45 0h224l78 184l33 84l26 -84l74 -184h265l-222 439l212 361h-223l-65 -152l-33 -85l-30 86l-60 151h-269l213 -403z" />
<glyph unicode="Y" horiz-adv-x="602" d="M-34 800l227 -550v-250h245v254l200 546h-204l-53 -206l-39 -169l-47 169l-70 206h-259z" />
<glyph unicode="Z" horiz-adv-x="598" d="M29 0h553v172l-312 -15l47 53l257 473v117h-523v-174l271 15l-55 -64l-238 -436v-141z" />
<glyph unicode="[" horiz-adv-x="428" d="M68 -193h312v125h-119v910h119v125h-312v-1160z" />
<glyph unicode="\" horiz-adv-x="484" d="M18 880l267 -880h181l-267 880h-181z" />
<glyph unicode="]" horiz-adv-x="428" d="M48 -68v-125h312v1160h-312v-125h119v-910h-119z" />
<glyph unicode="^" horiz-adv-x="699" d="M14 150h179l68 208l65 207l55 -207l52 -208h252l-212 650h-248z" />
<glyph unicode="_" horiz-adv-x="653" d="M-7 -89v-92h668v92h-668z" />
<glyph unicode="`" horiz-adv-x="343" d="M34 885l163 -226h112l-95 226h-180z" />
<glyph unicode="a" horiz-adv-x="571" d="M7 168q0 -182 184 -182q27 0 53 7.5t44.5 18.5t32.5 22t20 19l7 8l22 -61h187l-19 53v278q0 75 -11.5 124t-39.5 80.5t-72 45t-113 13.5q-77 0 -151.5 -23t-120.5 -53l44 -93q26 14 71.5 24t87.5 10q49 0 71.5 -17t22.5 -59v-12q-23 0 -48.5 -2t-57.5 -8.5t-61 -15.5 t-57.5 -25t-49 -36.5t-33.5 -50.5t-13 -65zM236 191q0 48 24.5 71t66.5 23v-164l-4 -4t-12 -7.5t-17 -3.5q-58 0 -58 85z" />
<glyph unicode="b" horiz-adv-x="649" d="M3 797l41 -25v-772h222v32q61 -32 137 -32q57 0 100.5 23.5t71.5 65t42.5 96t14.5 118.5q0 137 -53 214t-165 77q-27 0 -50.5 -6t-42 -16.5t-31.5 -21.5t-24 -23v367h-44l-219 -34v-63zM266 100v355q26 18 51 18q33 0 55 -31.5t22 -90.5v-116q-1 -140 -92 -140 q-8 0 -17 1t-19 4z" />
<glyph unicode="c" horiz-adv-x="530" d="M26 282q0 -134 73.5 -215t211.5 -81q41 0 77 7t57.5 17.5t37 21t21.5 17.5l6 8l-34 93q-23 -18 -59 -26.5t-70 -8.5q-15 0 -25.5 1t-26.5 10t-25.5 25t-17 48.5t-7.5 78.5q0 105 23.5 147.5t85.5 42.5q10 0 15 -1l39 -105l97 1l10 161l-14 14q-66 57 -184 57 q-61 0 -114 -21.5t-92.5 -61t-62 -99t-22.5 -131.5z" />
<glyph unicode="d" horiz-adv-x="647" d="M21 283q0 -137 52.5 -214t165.5 -77q29 0 56 8t44.5 19t33 25.5t23 24.5t12.5 19l27 -88h174v894h-53l-242 -34v-75l75 -25v-207q-25 14 -60 23.5t-79 9.5q-74 0 -127 -41t-77.5 -108.5t-24.5 -153.5zM259 255v96q1 139 91 140q18 0 39 -5v-343q-12 -8 -25 -12.5 t-25 -4.5q-35 0 -57.5 32.5t-22.5 96.5z" />
<glyph unicode="e" horiz-adv-x="587" d="M21 284q0 -64 15 -116.5t47.5 -94t89 -64.5t132.5 -23q41 0 86 9.5t94 37t74 68.5l-40 69q-19 -18 -47.5 -31t-56 -19t-51.5 -6q-25 0 -42 4t-33.5 16.5t-25 38.5t-8.5 66v13h312v76q0 140 -58 203t-192 63q-140 0 -218 -78.5t-78 -231.5zM256 353v57q0 25 1.5 41t8 31.5 t19.5 22.5t33 7q24 0 33 -36t9 -123h-104z" />
<glyph unicode="f" horiz-adv-x="383" d="M3 460h66v-460h222v460h88v120h-88v98q0 81 52 89q8 1 17 2q35 0 67 -17l26 104q-10 10 -51 22.5t-87 12.5q-52 0 -94 -12.5t-76.5 -40.5t-53.5 -78.5t-19 -119.5v-60l-69 -29v-91z" />
<glyph unicode="g" horiz-adv-x="641" d="M21 283q0 -137 52.5 -214t165.5 -77q83 0 141 60v-58q-1 -15 -2.5 -27.5t-8.5 -27.5t-17.5 -26t-31 -18t-47.5 -7t-65.5 11t-55.5 24l-43 -94q20 -22 87 -46t120 -24q284 0 284 266v456l41 29v64l-128 6h-105l-11 -32q-62 38 -147 38q-56 0 -100.5 -23.5t-72 -65t-42 -96 t-14.5 -118.5zM259 245v106q1 139 91 140q14 0 30 -4v-359q-22 -12 -42 -12q-47 0 -68 54q-11 29 -11 68v7z" />
<glyph unicode="h" horiz-adv-x="638" d="M3 797l41 -25v-772h221v398q1 1 7.5 6.5t8 6.5t7.5 5.5t9 5.5t8.5 4t10.5 3.5t10 0.5q57 0 55 -64v-366h225v346q0 5 1 13v12q0 120 -38.5 171.5t-132.5 51.5q-27 0 -54.5 -10.5t-47 -25.5t-35.5 -30t-25 -26l-8 -10v402h-44l-219 -34v-63z" />
<glyph unicode="i" horiz-adv-x="314" d="M12 467l41 -25v-442h220v580h-114l-147 -40v-73zM40 756l112 -113h26l117 113v24l-117 112h-26l-112 -112v-24z" />
<glyph unicode="j" horiz-adv-x="333" d="M-46 -162q58 -73 153 -73q100 0 149 82.5t49 232.5v500h-107l-157 -36v-73l50 -27v-412q0 -36 -3 -62.5t-6.5 -41t-9.5 -23t-11.5 -11t-12.5 -2.5q-30 0 -60 19zM81 756l112 -113h26l117 113v24l-117 112h-26l-112 -112v-24z" />
<glyph unicode="k" horiz-adv-x="623" d="M3 797l41 -25v-772h222v894h-44l-219 -34v-63zM280 279l106 -279h266l-183 312l179 268h-256z" />
<glyph unicode="l" horiz-adv-x="305" d="M5 797l41 -25v-772h222v894h-44l-219 -34v-63z" />
<glyph unicode="m" horiz-adv-x="980" d="M12 467l41 -25v-442h221v398q1 1 5 4.5t5.5 4.5t5.5 4l6 4.5t5 4t6 3.5t6.5 2.5t7 2.5t7 1.5t7.5 0.5q57 0 55 -64v-366h225v326q0 38 -2 71q34 33 54 33q29 0 43.5 -17t14.5 -47v-366h222v346q0 97 -16.5 150.5t-52.5 75.5t-100 22q-58 0 -106 -35t-71 -76 q-15 59 -51.5 85t-104.5 26q-27 0 -53.5 -10.5t-45.5 -23.5t-37 -30t-24 -25t-10 -13v88h-116l-147 -40v-73z" />
<glyph unicode="n" horiz-adv-x="647" d="M12 467l41 -25v-442h221v398q1 1 5 4.5t5.5 4.5t5.5 4l6 4.5t5 4t6 3.5t6.5 2.5t7 2.5t7 1.5t7.5 0.5q57 0 55 -64v-366h225v346q0 5 1 13v12q0 120 -38.5 171.5t-132.5 51.5q-27 0 -54.5 -10.5t-47 -25.5t-36 -30t-24.5 -26l-8 -10v88h-116l-147 -40v-73z" />
<glyph unicode="o" horiz-adv-x="656" d="M21 283q0 -156 72.5 -226.5t228.5 -70.5q162 0 237.5 75t75.5 232q0 152 -71.5 226.5t-231.5 74.5q-165 0 -238 -78t-73 -233zM265 197v221q0 44 16.5 68t45.5 24q63 0 63 -133v-216q0 -44 -16 -68.5t-46 -24.5q-63 0 -63 129z" />
<glyph unicode="p" horiz-adv-x="658" d="M12 467l41 -25v-648h220v235q25 -12 57.5 -20.5t72.5 -8.5q57 0 100.5 23.5t71.5 65t42.5 96t14.5 118.5q0 137 -53 214t-165 77q-46 0 -81 -17t-60 -42v45h-114l-147 -40v-73zM273 98v361q24 14 46 13q33 0 54 -30t21 -91v-116q-1 -140 -92 -140q-7 0 -14 0.5t-15 2.5z " />
<glyph unicode="q" horiz-adv-x="621" d="M21 283q0 -137 52.5 -214t165.5 -77q82 0 140 59v-257h220v786h-157l-30 -41q-5 4 -15 9.5t-31 15t-51.5 16t-64.5 6.5q-74 0 -127 -41t-77.5 -108.5t-24.5 -153.5zM259 245v106q1 139 91 140q14 0 29 -3v-361q-10 -5 -20.5 -8t-20.5 -3q-47 0 -68 54q-11 29 -11 68v7z " />
<glyph unicode="r" horiz-adv-x="449" d="M12 467l41 -25v-442h221v312q20 37 89 37q48 0 63 -13l23 243q-18 6 -35 6q-152 0 -180 -167l-20 162h-55l-147 -36v-77z" />
<glyph unicode="s" horiz-adv-x="501" d="M19 49q18 -20 84 -41.5t130 -21.5q264 0 264 210q0 72 -36 120.5t-116 75.5q-14 4 -34 9t-31 8t-22.5 8.5t-16 12.5t-4.5 18q0 38 65 38q79 0 124 -44l30 97l-12 12q-55 43 -172 43q-68 0 -123.5 -20t-91 -64t-35.5 -105q0 -150 159 -198q61 -18 88.5 -32.5t27.5 -31.5 q0 -18 -15.5 -28.5t-56.5 -10.5q-57 0 -111 16.5t-77 38.5z" />
<glyph unicode="t" horiz-adv-x="389" d="M1 460h47v-232q0 -132 36.5 -187t128.5 -55q46 0 84 10t54.5 20t26.5 20v93q-8 -6 -19.5 -9.5t-25.5 -3.5q-33 0 -48.5 18t-15.5 72v254h114v120h-112v159h-120l-70 -159l-80 -25v-95z" />
<glyph unicode="u" horiz-adv-x="638" d="M23 502l24 -25v-243q0 -134 41.5 -191t137.5 -57q31 0 61 13t50.5 32t33 34.5t16.5 25.5l21 -91h189v580h-260v-78l37 -25v-321q-2 -1 -5.5 -4t-5.5 -4.5t-5.5 -4t-5.5 -3.5t-5.5 -3t-5.5 -2.5t-5.5 -1.5t-7 -1.5t-7.5 -0.5q-29 0 -40 14.5t-10 45.5v389h-248v-78z" />
<glyph unicode="v" horiz-adv-x="559" d="M-15 580l201 -580h215l174 580h-185l-50 -209l-35 -181l-31 181l-44 209h-245z" />
<glyph unicode="w" horiz-adv-x="873" d="M-14 580l174 -580h208l72 239l67 -239h207l175 580h-146l-92 -370l-70 370h-236l32 -116l-62 -254l-83 370h-246z" />
<glyph unicode="x" horiz-adv-x="559" d="M-14 580l158 -295l-148 -285h186l66 162l69 -162h258l-162 303l153 277h-186l-71 -154l-61 154h-262z" />
<glyph unicode="y" horiz-adv-x="634" d="M22 502l24 -25v-242q0 -135 42 -192t143 -57q27 0 52.5 11t43.5 26t32 30.5t21 26.5l6 11v-59q-1 -41 -9 -69t-23.5 -43.5t-35.5 -21.5t-47 -6q-86 0 -126 23l-35 -74q29 -35 91 -55.5t132 -20.5q134 0 198.5 82t64.5 233v500h-260v-78l37 -25v-321q-10 -8 -18 -13.5 t-17 -8.5t-18 -3q-30 0 -40 14.5t-10 46.5v388h-248v-78z" />
<glyph unicode="z" horiz-adv-x="546" d="M10 120q8 -23 17 -60t11 -60h486v206h-80q-12 -46 -19 -56q-17 -28 -74 -37q-38 -5 -103 -5l84 62l203 300q-11 27 -19.5 57t-12.5 53h-457v-200h95q1 4 6 17t7 19t9.5 17.5t15 17.5t22 14.5t31.5 12.5t42 7t56 3l-77 -57z" />
<glyph unicode="{" horiz-adv-x="457" d="M21 335h45q18 0 31.5 -9t20.5 -23t10.5 -28.5t3.5 -28.5v-191q0 -68 30 -124t83.5 -89t119.5 -33h64v98q-58 0 -85 35.5t-27 94.5v173q0 36 -13 67.5t-32.5 51t-44 34.5t-44 22.5t-36.5 9.5q16 3 36 10t45 21.5t44 34.5t32 51t13 68v160q0 106 77 126q16 4 35 4v98h-64 q-66 0 -119.5 -33t-83.5 -89.5t-30 -123.5v-178q0 -14 -3 -28t-10.5 -29t-21 -23.5t-31.5 -8.5h-45v-120z" />
<glyph unicode="|" horiz-adv-x="322" d="M75 -248h173v1325h-173v-1325z" />
<glyph unicode="}" horiz-adv-x="457" d="M29 -93v-98h63q100 0 167 71.5t67 174.5v191q0 50 27 75q16 14 39 14h44v120h-44q-35 0 -50.5 28t-15.5 61v178q0 51 -18 96t-48.5 78t-74.5 52.5t-93 19.5h-63v-98q58 0 84.5 -35.5t26.5 -94.5v-160q0 -31 9 -58t24.5 -46t33.5 -34t38 -24.5t35.5 -15t29.5 -7.5 q-16 -2 -36 -9.5t-44.5 -22.5t-43.5 -34.5t-32.5 -51t-13.5 -67.5v-173q0 -59 -26.5 -94.5t-84.5 -35.5z" />
<glyph unicode="~" horiz-adv-x="727" d="M27 203h139v21q0 44 29 60q11 5 23 5q26 0 81 -21t114.5 -42.5t95.5 -21.5q95 0 143 51.5t48 163.5v47h-139v-20q0 -66 -58 -66q-23 0 -56.5 13.5t-64.5 30t-76 29.5t-88 13q-37 0 -69.5 -11.5t-60.5 -35.5t-44.5 -67t-16.5 -101v-48z" />
<glyph unicode="&#xa1;" horiz-adv-x="395" d="M55 94q0 -63 33 -98.5t103 -35.5q67 0 102 33t35 98q0 34 -9 65q-40 109 -57 182.5t-18 163.5h-105q-1 -89 -18 -163t-57 -183q-9 -28 -9 -62zM63 676l117 -112h25l112 112v24l-112 112h-25l-117 -112v-24z" />
<glyph unicode="&#xa2;" horiz-adv-x="578" d="M26 282q0 -154 92 -234q38 -32 88 -47v-129h172v119q85 14 127 60q5 5 5 6l-34 93q-23 -18 -59 -26.5t-70 -8.5q-15 0 -25.5 1t-26.5 10t-25.5 25t-17 48.5t-7.5 78.5q0 105 23.5 147.5t85.5 42.5h2.5h2.5h2h2.5h2.5h3l39 -106l97 1l10 161l-14 14q-44 38 -115 50v125 h-171v-135q-42 -15 -76.5 -41.5t-60 -63.5t-39 -85.5t-13.5 -105.5z" />
<glyph unicode="&#xa3;" horiz-adv-x="778" d="M2 100l88 -116l7 6q20 18 56.5 35.5t75.5 17.5q26 0 113 -21.5t117 -21.5q32 0 67.5 5.5t75.5 20t71 36t51.5 57t20.5 80.5v95h-204v-20q1 -41 -5.5 -70t-21 -44.5t-32.5 -22.5t-42 -7q-4 0 -32 3.5t-54.5 5.5t-62.5 -3t-62 -18q25 12 45 28t32.5 29.5t21.5 33t13 33 t6.5 36t2.5 34.5v35v9h135v137h-132l1 107q0 28 30.5 41.5t83.5 13.5q36 0 76 -15.5t67 -46.5l34 131q-2 3 -6.5 9t-23 21t-40 26t-60 20t-82.5 9q-148 0 -232 -60.5t-84 -183.5v-72h-90v-137h83q1 -11 2 -17t1 -6.5t1 -0.5t1 -17q0 -140 -75 -197q-23 -17 -38 -18zM2 100z " />
<glyph unicode="&#xa4;" horiz-adv-x="978" d="M103 747l155 -217q-9 -12 -16.5 -25t-14 -27.5t-11 -29.5t-8 -30.5t-5.5 -32t-2 -32.5q0 -98 57 -177l-148 -207h186l79 110q61 -29 129 -29q70 0 133 30l80 -111h187l-150 210q55 78 54 174q0 51 -16 98t-46 86l151 210h-186l-84 -116q-58 25 -123 26q-34 0 -66 -7.5 t-63 -21.5l-86 119h-186zM357 353q0 70 41.5 119.5t105.5 49.5q66 0 107.5 -50t41.5 -119t-41.5 -118.5t-107 -49.5t-106.5 49t-41 119z" />
<glyph unicode="&#xa5;" horiz-adv-x="710" d="M16 800l165 -401h-130v-171h191v-228h245v228h189v171h-135l146 401h-203l-53 -206l-39 -169l-47 169l-71 206h-258z" />
<glyph unicode="&#xa6;" horiz-adv-x="322" d="M75 -248h173v597h-173v-597zM75 480h173v597h-173v-597z" />
<glyph unicode="&#xa7;" horiz-adv-x="717" d="M46 474q0 -98 142 -174q18 -10 45.5 -22t45.5 -21t36 -20t27.5 -23t9.5 -26q0 -33 -3 -39q-6 -13 -47 -15h-13q-55 0 -101.5 28t-74.5 65l-17 -166q13 -14 32 -27.5t50 -28.5t76 -24t98 -9q61 0 111.5 14.5t82 39t49 52.5t17.5 58q0 29 -10.5 54t-29.5 48q23 12 40 29.5 t25 36.5t12 35.5t4 31.5q0 25 -9.5 49t-23.5 41.5t-34.5 34.5t-38 27.5t-36.5 21.5q-18 10 -45.5 22.5t-46 21t-36.5 19.5t-27 23t-9 26q0 33 3 39q6 13 46 15h13q55 0 102 -28t75 -65l17 166q-13 14 -32.5 27.5t-50.5 28.5t-76 24t-98 9q-61 0 -111.5 -14.5t-81.5 -39 t-48.5 -52.5t-17.5 -58q0 -55 39 -101q-68 -36 -79 -113q-1 -11 -1 -21zM192 487q0 11 4 20t11 15t17 11q50 -28 138 -65q8 -4 33 -16t40.5 -20.5t34 -21t28 -26t9.5 -26.5q0 -32 -33 -46q-49 28 -137 66q-9 5 -28 13.5t-32.5 15t-30.5 17t-28 19.5t-18.5 21t-7.5 23z" />
<glyph unicode="&#xa8;" horiz-adv-x="557" d="M34 767l100 -100h22l104 100v21l-104 99h-22l-100 -99v-21zM297 767l100 -100h23l104 100v21l-104 99h-23l-100 -99v-21z" />
<glyph unicode="&#xa9;" horiz-adv-x="716" d="M27 564q0 -76 7 -131t27 -108t54.5 -85t92 -51.5t137.5 -19.5q59 0 107 9t83.5 26t62 43t44 57.5t28 73.5t15 86.5t4.5 100.5q0 53 -3.5 95t-12.5 84t-24 74t-39 60t-57 45.5t-79.5 28t-103.5 10.5q-83 0 -143.5 -18.5t-98.5 -50.5t-61 -83.5t-31.5 -109.5t-8.5 -136z M93 564q0 83 11.5 139.5t41.5 102.5t85.5 68t138.5 22q63 0 109 -16t73.5 -44t43.5 -72t21.5 -90.5t5.5 -108.5q0 -66 -7 -115t-25.5 -91t-49.5 -68.5t-80 -41.5t-116 -15q-63 0 -109 16.5t-73 43.5t-43 70.5t-21.5 90t-5.5 109.5zM189 565q0 -55 9.5 -97.5t29.5 -75.5 t57 -50.5t90 -17.5q39 0 69 10.5t40 21.5l10 10l-17 63q-14 -10 -36.5 -15.5t-43.5 -5.5q-69 0 -69 154q0 66 7.5 101t22 47t41.5 12h2.5h3t3.5 -0.5t3 -1.5l20 -47h61l6 92l-4 4t-13 10t-22.5 12.5t-34 10t-46.5 4.5q-104 0 -146.5 -60.5t-42.5 -180.5z" />
<glyph unicode="&#xaa;" horiz-adv-x="514" d="M18 511q0 -85 42 -134t112 -49q25 0 48.5 7t39.5 17t28.5 20t18.5 17l6 7l20 -55h156l-17 48v250q0 68 -8.5 111t-31 72.5t-61 41t-99.5 11.5q-69 0 -135.5 -20.5t-109.5 -46.5l39 -84q23 12 64 21t80 9q44 0 64 -15.5t20 -53.5v-11q-23 0 -43 -1t-49.5 -4t-53 -9.5 t-49 -19t-42.5 -29.5t-28 -42.5t-11 -57.5zM212 513q0 43 22.5 63.5t59.5 20.5v-147q-1 0 -4 -3.5t-10 -7t-15 -3.5q-53 0 -53 77z" />
<glyph unicode="&#xab;" horiz-adv-x="879" d="M55 336l226 -253h193l-152 253l152 247h-193zM412 336l205 -253h194l-132 253l132 247h-194z" />
<glyph unicode="&#xac;" horiz-adv-x="783" d="M75 283h496v-283h138v420h-634v-137z" />
<glyph unicode="&#xad;" horiz-adv-x="517" d="M55 317h408v171h-408v-171z" />
<glyph unicode="&#xae;" horiz-adv-x="716" d="M27 564q0 -76 7 -131t27 -108t54.5 -85t92 -51.5t137.5 -19.5q59 0 107 9t83.5 26t62 43t44 57.5t28 73.5t15 86.5t4.5 100.5q0 53 -3.5 95t-12.5 84t-24 74t-39 60t-57 45.5t-79.5 28t-103.5 10.5q-83 0 -143.5 -18.5t-98.5 -50.5t-61 -83.5t-31.5 -109.5t-8.5 -136z M93 564q0 83 11.5 139.5t41.5 102.5t85.5 68t138.5 22q63 0 109 -16t73.5 -44t43.5 -72t21.5 -90.5t5.5 -108.5q0 -66 -7 -115t-25.5 -91t-49.5 -68.5t-80 -41.5t-116 -15q-63 0 -109 16.5t-73 43.5t-43 70.5t-21.5 90t-5.5 109.5zM212 326h118v159q3 0 20.5 -1t28.5 -1h2 q5 -20 8.5 -47.5t5 -48t3.5 -38.5t5 -23h132q-6 10 -12 27.5t-9 35.5t-8.5 37.5t-11.5 36t-16.5 29t-24.5 16.5q20 14 34 34t23 48t9 60q0 80 -38 118.5t-115 38.5q-23 0 -57 -2t-51 -2h-46v-477zM330 560v168h7q19 0 32.5 -5t22 -19.5t8.5 -38.5v-33q0 -24 -4.5 -39 t-13.5 -21.5t-18 -9t-23 -2.5h-11z" />
<glyph unicode="&#xaf;" horiz-adv-x="460" d="M27 847h406v157h-406v-157z" />
<glyph unicode="&#xb0;" horiz-adv-x="531" d="M59 799q0 -85 60.5 -146t146.5 -61q85 0 145.5 60.5t60.5 146.5t-60 146.5t-146 60.5t-146.5 -60.5t-60.5 -146.5zM175 798q0 42 25.5 72.5t65 30.5t65 -30.5t25.5 -72.5t-25.5 -72t-65 -30t-65 30t-25.5 72z" />
<glyph unicode="&#xb1;" horiz-adv-x="783" d="M75 0h634v137h-241v228h241v137h-241v267h-152v-267h-241v-137h241v-228h-241v-137z" />
<glyph unicode="&#xb2;" horiz-adv-x="540" d="M40 739q0 -59 2 -65l3 -5h466v132l-327 -21q23 24 58 48.5t68.5 42.5t69 40.5t61.5 44.5t42.5 52t16.5 66q0 45 -18.5 78t-52 51t-73 26t-88.5 8q-168 0 -228 -79l8 -112h100l26 98q25 7 60.5 7t55.5 -26t20 -57q0 -40 -37.5 -82t-126.5 -106q-106 -72 -106 -141z" />
<glyph unicode="&#xb3;" horiz-adv-x="465" d="M27 702q77 -43 166 -43q117 0 182 43t65 106q0 72 -41 110.5t-111 43.5q130 10 130 115q0 74 -54 117t-171 43q-88 0 -166 -43v-79q39 25 86 26q50 0 80 -20t30 -63q0 -44 -29 -59.5t-90 -15.5h-7v-65h14q112 0 112 -83q0 -35 -23 -57.5t-87 -22.5q-47 0 -86 25v-78z" />
<glyph unicode="&#xb4;" horiz-adv-x="343" d="M34 659h112l163 226h-179z" />
<glyph unicode="&#xb5;" horiz-adv-x="834" d="M14 -203h141l60 310q4 -34 39 -70.5t87 -36.5q69 0 117.5 23.5t104.5 90.5l11 -114h182l22 124h-72l95 549h-252l-71 -428q-3 -20 -24 -37t-44 -17q-35 0 -48.5 25t-6.5 65l68 392h-252z" />
<glyph unicode="&#xb6;" horiz-adv-x="883" d="M46 544q0 -130 74.5 -206.5t213.5 -76.5l1 -261h162v666h110v-666h164v799h-437q-68 -1 -123 -22t-90.5 -56t-55 -80.5t-19.5 -96.5z" />
<glyph unicode="&#xb7;" horiz-adv-x="279" d="M11 263l112 -113h26l117 113v24l-117 112h-26l-112 -112v-24z" />
<glyph unicode="&#xb8;" horiz-adv-x="400" d="M34 -353q56 -32 117 -32q40 0 76.5 9t68.5 27.5t51.5 51t19.5 75.5q0 16 -1.5 30.5t-6.5 27t-8 21t-12 18.5t-12 14t-16 13t-14.5 10t-16.5 10t-16 9l25 85h-121l-72 -132h23q24 -2 44.5 -16.5t20.5 -39.5q0 -32 -21.5 -48t-55.5 -16q-23 0 -45 7z" />
<glyph unicode="&#xb9;" horiz-adv-x="357" d="M10 1032l99 10v-373h183v560h-121q-8 -21 -21 -37t-27 -25.5t-34.5 -16.5t-37.5 -10t-41 -6v-102z" />
<glyph unicode="&#xba;" horiz-adv-x="578" d="M31 592q0 -143 57 -205.5t196 -62.5q143 0 203 66t60 210q0 69 -12.5 117.5t-41.5 84t-78.5 52.5t-122.5 17q-75 0 -126 -18t-80.5 -55.5t-42 -86.5t-12.5 -119zM238 513v200q0 82 50 82q27 0 39 -29t12 -90v-194q0 -85 -50 -85q-27 0 -39 28t-12 88z" />
<glyph unicode="&#xbb;" horiz-adv-x="879" d="M68 83h194l206 253l-206 247h-194l133 -247zM405 83h194l226 253l-226 247h-194l153 -247z" />
<glyph unicode="&#xbc;" horiz-adv-x="1271" d="M34 827l99 10v-373h183v560h-121q-8 -21 -21 -37t-27 -25.5t-34.5 -16t-37.5 -10t-41 -6.5v-102zM316 0h153l335 880h-153zM684 118l11 -94h283v-106h188v106h71v94h-71v360h-165zM818 118l160 211v-211h-160z" />
<glyph unicode="&#xbd;" horiz-adv-x="1217" d="M34 827l99 10v-373h183v560h-121q-8 -21 -21 -37t-27 -25.5t-34.5 -16t-37.5 -10t-41 -6.5v-102zM316 0h153l335 880h-153zM712 -12q0 -59 2 -64l3 -6h466v132l-327 -21q23 24 58 48.5t68.5 42.5t69 40.5t61.5 44.5t42.5 52t16.5 66q0 45 -18.5 78t-52 51t-73 26t-88.5 8 q-168 0 -228 -78l8 -113h100l26 98q25 7 60.5 7t55.5 -26t20 -57q0 -40 -37.5 -82t-126.5 -106q-106 -72 -106 -141z" />
<glyph unicode="&#xbe;" horiz-adv-x="1334" d="M34 497q38 -21 79.5 -31.5t86.5 -10.5q117 0 182 42.5t65 105.5q0 72 -41 110.5t-111 43.5q130 10 130 115q0 74 -54 117t-171 43q-88 0 -166 -43v-78q39 25 86 25q50 0 80 -20t30 -63q0 -44 -29 -59.5t-90 -15.5h-7v-65h14q112 0 112 -83q0 -35 -23 -57.5t-87 -22.5 q-47 0 -86 25v-78zM380 0h153l335 880h-153zM747 118l11 -94h283v-106h188v106h71v94h-71v360h-165zM881 118l160 211v-211h-160z" />
<glyph unicode="&#xbf;" horiz-adv-x="578" d="M61 57q0 -193 242 -193q171 0 234 133l-93 56q-8 -25 -30.5 -40.5t-46.5 -15.5q-33 0 -52.5 17.5t-19.5 55.5q0 24 36.5 107.5t36.5 108.5q0 47 -15 74l-117 1l3 -9q2 -7 2 -11q0 -18 -18.5 -44.5t-45 -54.5t-53 -58t-45 -64t-18.5 -63zM164 552l117 -112h26l111 112v24 l-111 113h-26l-117 -113v-24z" />
<glyph unicode="&#xc0;" horiz-adv-x="669" d="M-13 0h201l26 128h194l30 -128h251l-228 800h-282l16 -55zM107 1105l163 -226h112l-95 226h-180zM242 267l60 298l72 -298h-132z" />
<glyph unicode="&#xc1;" horiz-adv-x="669" d="M-13 0h201l26 128h194l30 -128h251l-228 800h-282l16 -55zM242 267l60 298l72 -298h-132zM261 879h112l163 226h-180z" />
<glyph unicode="&#xc2;" horiz-adv-x="669" d="M-13 0h201l26 128h194l30 -128h251l-228 800h-282l16 -55zM131 879h125l60 100l60 -100h125l-132 226h-106zM242 267l60 298l72 -298h-132z" />
<glyph unicode="&#xc3;" horiz-adv-x="669" d="M-13 0h201l26 128h194l30 -128h251l-228 800h-282l16 -55zM70 884h93v18q0 24 10.5 41.5t30.5 17.5q23 0 100 -38t112 -38q75 0 111.5 40t36.5 138v42h-94v-18q0 -28 -11 -43.5t-34 -15.5q-18 0 -41.5 12t-45.5 26.5t-55 26.5t-65 12q-29 0 -54 -8.5t-47 -27t-34.5 -55 t-12.5 -88.5v-42zM242 267l60 298l72 -298h-132z" />
<glyph unicode="&#xc4;" horiz-adv-x="669" d="M-13 0h201l26 128h194l30 -128h251l-228 800h-282l16 -55zM72 984l100 -100h22l104 100v21l-104 100h-22l-100 -100v-21zM242 267l60 298l72 -298h-132zM335 984l100 -100h23l104 100v21l-104 100h-23l-100 -100v-21z" />
<glyph unicode="&#xc5;" horiz-adv-x="669" d="M-13 0h201l26 128h194l30 -128h251l-228 800h-282l16 -55zM167 1042.5q0 -61.5 44 -105t105 -43.5t105 43.5t44 105t-44 105t-105 43.5t-105 -43.5t-44 -105zM238 1042q0 31 23 55.5t55 24.5q31 0 54.5 -24t23.5 -55.5t-22.5 -54.5t-55.5 -23q-32 0 -55 22.5t-23 54.5z M242 267l60 298l72 -298h-132z" />
<glyph unicode="&#xc6;" horiz-adv-x="916" d="M-13 0h201l51 128h176v-128h485v171l-258 -7v181l184 -13v160h-184v154l234 -7l14 161h-598l17 -55zM295 267l120 298v-298h-120z" />
<glyph unicode="&#xc7;" horiz-adv-x="566" d="M26 398q0 -95 15.5 -167t51.5 -129t99.5 -86.5t152.5 -29.5q42 0 79 7t59.5 17.5t38.5 21t23 17.5l6 8l-31 108q-25 -18 -63 -26.5t-73 -8.5q-16 0 -29.5 4.5t-30.5 20.5t-29 43t-20.5 77.5t-8.5 118.5q0 113 12.5 173.5t37.5 81.5t70 21q8 0 21 -4l35 -81h104l10 157 q-2 3 -6.5 7.5t-21.5 17t-38.5 22t-59 17t-79.5 7.5q-92 0 -156.5 -28t-101 -83.5t-52 -129t-15.5 -174.5zM169 -337q47 -28 101 -28q47 0 88 13t71 46.5t30 82.5q0 13 -2 25t-3.5 20.5t-6.5 18t-7.5 15t-10.5 13t-10.5 10t-12 9.5t-12 8t-13.5 7.5t-12 7.5l33 105h-121 l-71 -132h22q24 -2 45 -16.5t21 -39.5q0 -32 -21.5 -48t-56.5 -16q-23 0 -45 7z" />
<glyph unicode="&#xc8;" horiz-adv-x="546" d="M46 0h484v171l-258 -7v181l184 -13v160h-184v154l234 -7l14 161h-474v-800zM78 1105l163 -226h112l-95 226h-180z" />
<glyph unicode="&#xc9;" horiz-adv-x="546" d="M46 0h484v171l-258 -7v181l184 -13v160h-184v154l234 -7l14 161h-474v-800zM232 879h112l163 226h-180z" />
<glyph unicode="&#xca;" horiz-adv-x="546" d="M46 0h484v171l-258 -7v181l184 -13v160h-184v154l234 -7l14 161h-474v-800zM102 879h125l60 100l60 -100h125l-132 226h-106z" />
<glyph unicode="&#xcb;" horiz-adv-x="546" d="M43 984l100 -100h22l104 100v21l-104 100h-22l-100 -100v-21zM46 0h484v171l-258 -7v181l184 -13v160h-184v154l234 -7l14 161h-474v-800zM306 984l100 -100h23l104 100v21l-104 100h-23l-100 -100v-21z" />
<glyph unicode="&#xcc;" horiz-adv-x="327" d="M-45 1105l163 -226h112l-95 226h-180zM48 0h233v800h-233v-800z" />
<glyph unicode="&#xcd;" horiz-adv-x="327" d="M48 0h233v800h-233v-800zM109 879h112l163 226h-180z" />
<glyph unicode="&#xce;" horiz-adv-x="327" d="M-21 879h125l60 100l60 -100h125l-132 226h-106zM48 0h233v800h-233v-800z" />
<glyph unicode="&#xcf;" horiz-adv-x="327" d="M-80 984l100 -100h22l104 100v21l-104 100h-22l-100 -100v-21zM48 0h233v800h-233v-800zM183 984l100 -100h23l104 100v21l-104 100h-23l-100 -100v-21z" />
<glyph unicode="&#xd0;" horiz-adv-x="681" d="M-20 338h66v-338h109q55 0 106 -2.5t76 -2.5q75 0 134 26t94.5 67.5t58.5 99.5t31.5 115t8.5 121q0 187 -75.5 284.5t-249.5 97.5q-31 0 -84.5 -2.5t-99.5 -3.5h-109v-309h-66v-153zM272 112v226h97v153h-97v191h52q48 0 73.5 -58.5t25.5 -166.5v-69q0 -147 -27.5 -211.5 t-79.5 -64.5h-44z" />
<glyph unicode="&#xd1;" horiz-adv-x="739" d="M12 800l34 -64v-736h217v252l-40 262l100 -198l162 -316h209v800h-218v-214l33 -304l-120 259l-125 259h-252zM121 884h93v18q0 24 10.5 41.5t30.5 17.5q23 0 100 -38t112 -38q75 0 111.5 40t36.5 138v42h-94v-18q0 -28 -11 -43.5t-34 -15.5q-18 0 -41.5 12t-45.5 26.5 t-55 26.5t-65 12q-29 0 -54 -8.5t-47 -27t-34.5 -55t-12.5 -88.5v-42z" />
<glyph unicode="&#xd2;" d="M26 397q0 -55 3.5 -99t12.5 -88t23.5 -77t38.5 -61.5t57 -47t78 -28.5t102 -10q83 0 144.5 18.5t100.5 51.5t62 86t32 114t9 143q0 55 -3.5 98.5t-12.5 88t-23.5 77.5t-39 62.5t-57 48t-78.5 29t-103 10.5q-83 0 -144 -19t-100 -52.5t-62 -87t-31.5 -114.5t-8.5 -143z M148 1105l163 -226h112l-95 226h-180zM277 309v172q0 124 17.5 170.5t61 46.5t63 -48t19.5 -146v-164q0 -100 -8.5 -150.5t-25 -66.5t-48.5 -16q-44 0 -61.5 44.5t-17.5 157.5z" />
<glyph unicode="&#xd3;" d="M26 397q0 -55 3.5 -99t12.5 -88t23.5 -77t38.5 -61.5t57 -47t78 -28.5t102 -10q83 0 144.5 18.5t100.5 51.5t62 86t32 114t9 143q0 55 -3.5 98.5t-12.5 88t-23.5 77.5t-39 62.5t-57 48t-78.5 29t-103 10.5q-83 0 -144 -19t-100 -52.5t-62 -87t-31.5 -114.5t-8.5 -143z M277 309v172q0 124 17.5 170.5t61 46.5t63 -48t19.5 -146v-164q0 -100 -8.5 -150.5t-25 -66.5t-48.5 -16q-44 0 -61.5 44.5t-17.5 157.5zM302 879h112l163 226h-180z" />
<glyph unicode="&#xd4;" d="M26 397q0 -55 3.5 -99t12.5 -88t23.5 -77t38.5 -61.5t57 -47t78 -28.5t102 -10q83 0 144.5 18.5t100.5 51.5t62 86t32 114t9 143q0 55 -3.5 98.5t-12.5 88t-23.5 77.5t-39 62.5t-57 48t-78.5 29t-103 10.5q-83 0 -144 -19t-100 -52.5t-62 -87t-31.5 -114.5t-8.5 -143z M172 879h125l60 100l60 -100h125l-132 226h-106zM277 309v172q0 124 17.5 170.5t61 46.5t63 -48t19.5 -146v-164q0 -100 -8.5 -150.5t-25 -66.5t-48.5 -16q-44 0 -61.5 44.5t-17.5 157.5z" />
<glyph unicode="&#xd5;" d="M26 397q0 -55 3.5 -99t12.5 -88t23.5 -77t38.5 -61.5t57 -47t78 -28.5t102 -10q83 0 144.5 18.5t100.5 51.5t62 86t32 114t9 143q0 55 -3.5 98.5t-12.5 88t-23.5 77.5t-39 62.5t-57 48t-78.5 29t-103 10.5q-83 0 -144 -19t-100 -52.5t-62 -87t-31.5 -114.5t-8.5 -143z M111 884h93v18q0 24 10.5 41.5t30.5 17.5q23 0 100 -38t112 -38q75 0 111.5 40t36.5 138v42h-94v-18q0 -28 -11 -43.5t-34 -15.5q-18 0 -41.5 12t-45.5 26.5t-55 26.5t-65 12q-29 0 -54 -8.5t-47 -27t-34.5 -55t-12.5 -88.5v-42zM277 309v172q0 124 17.5 170.5t61 46.5 t63 -48t19.5 -146v-164q0 -100 -8.5 -150.5t-25 -66.5t-48.5 -16q-44 0 -61.5 44.5t-17.5 157.5z" />
<glyph unicode="&#xd6;" d="M26 397q0 -55 3.5 -99t12.5 -88t23.5 -77t38.5 -61.5t57 -47t78 -28.5t102 -10q83 0 144.5 18.5t100.5 51.5t62 86t32 114t9 143q0 55 -3.5 98.5t-12.5 88t-23.5 77.5t-39 62.5t-57 48t-78.5 29t-103 10.5q-83 0 -144 -19t-100 -52.5t-62 -87t-31.5 -114.5t-8.5 -143z M113 984l100 -100h22l104 100v21l-104 100h-22l-100 -100v-21zM277 309v172q0 124 17.5 170.5t61 46.5t63 -48t19.5 -146v-164q0 -100 -8.5 -150.5t-25 -66.5t-48.5 -16q-44 0 -61.5 44.5t-17.5 157.5zM376 984l100 -100h23l104 100v21l-104 100h-23l-100 -100v-21z" />
<glyph unicode="&#xd7;" horiz-adv-x="768" d="M101 166l105 -105l180 181l181 -181l105 105l-180 181l180 180l-105 105l-181 -181l-180 181l-105 -105l181 -180z" />
<glyph unicode="&#xd8;" d="M26 397q0 -61 3.5 -108t14.5 -93t29 -80t48 -61.5t70 -44.5l-52 -94h180l41 70q79 2 136.5 21.5t94.5 53t59 86t30.5 112.5t8.5 140q0 46 -2.5 83.5t-8 76t-15.5 69.5t-25 59t-37 50t-50 38l53 96h-180l-34 -58h-18q-203 0 -282 -115q-63 -91 -64 -290v-11zM277 309v172 q0 156 31 195q17 22 48 22q44 0 63 -48t19 -146v-164q0 -164 -26 -206q-16 -27 -56 -27q-44 0 -61.5 44.5t-17.5 157.5z" />
<glyph unicode="&#xd9;" horiz-adv-x="705" d="M45 251q0 -46 9 -84.5t31 -73t56.5 -57.5t89 -36.5t124.5 -13.5q72 0 126 13.5t88 36.5t54.5 57.5t28.5 71t8 82.5v553h-216v-520q0 -44 -6.5 -74.5t-18.5 -46.5t-26.5 -22.5t-33.5 -6.5q-35 0 -53 32.5t-18 119.5v518h-243v-549zM143 1105l163 -226h112l-95 226h-180z " />
<glyph unicode="&#xda;" horiz-adv-x="705" d="M45 251q0 -46 9 -84.5t31 -73t56.5 -57.5t89 -36.5t124.5 -13.5q72 0 126 13.5t88 36.5t54.5 57.5t28.5 71t8 82.5v553h-216v-520q0 -44 -6.5 -74.5t-18.5 -46.5t-26.5 -22.5t-33.5 -6.5q-35 0 -53 32.5t-18 119.5v518h-243v-549zM297 879h112l163 226h-180z" />
<glyph unicode="&#xdb;" horiz-adv-x="705" d="M45 251q0 -46 9 -84.5t31 -73t56.5 -57.5t89 -36.5t124.5 -13.5q72 0 126 13.5t88 36.5t54.5 57.5t28.5 71t8 82.5v553h-216v-520q0 -44 -6.5 -74.5t-18.5 -46.5t-26.5 -22.5t-33.5 -6.5q-35 0 -53 32.5t-18 119.5v518h-243v-549zM167 879h125l60 100l60 -100h125 l-132 226h-106z" />
<glyph unicode="&#xdc;" horiz-adv-x="705" d="M45 251q0 -46 9 -84.5t31 -73t56.5 -57.5t89 -36.5t124.5 -13.5q72 0 126 13.5t88 36.5t54.5 57.5t28.5 71t8 82.5v553h-216v-520q0 -44 -6.5 -74.5t-18.5 -46.5t-26.5 -22.5t-33.5 -6.5q-35 0 -53 32.5t-18 119.5v518h-243v-549zM108 984l100 -100h22l104 100v21 l-104 100h-22l-100 -100v-21zM371 984l100 -100h23l104 100v21l-104 100h-23l-100 -100v-21z" />
<glyph unicode="&#xdd;" horiz-adv-x="602" d="M-34 800l227 -550v-250h245v254l200 546h-204l-53 -206l-39 -169l-47 169l-70 206h-259zM270 879h112l163 226h-180z" />
<glyph unicode="&#xde;" horiz-adv-x="640" d="M46 0h226v81q1 0 7 -0.5t9 -1t9 -0.5t10 -0.5t10.5 -1t12 -0.5t11.5 -0.5t12.5 -0.5h12.5q53 0 101 24t85.5 68.5t59.5 114t22 153.5q0 141 -68 211t-201 70q-40 0 -103 -2v84h-216v-799zM272 225v355h32q51 0 78.5 -31.5t27.5 -82.5v-101q0 -68 -29.5 -104t-83.5 -36 h-25z" />
<glyph unicode="&#xdf;" horiz-adv-x="727" d="M12 0h263v398q0 268 42 345q23 39 57 39t51 -27.5t17 -60.5v-43q0 -65 -17 -93t-45 -28h-21v-125h29q30 0 51 -24t21 -57v-60q0 -35 -4.5 -61.5t-15.5 -47t-31.5 -30.5t-49.5 -10v-115q81 0 141.5 16t95.5 41.5t56 63t28 74t7 81.5q0 81 -51 149.5t-117 68.5 q29 15 50.5 31t43.5 39.5t34 56t12 71.5q0 96 -52.5 147t-180.5 51q-68 0 -121.5 -10t-100 -34.5t-77.5 -64.5t-48.5 -100t-17.5 -140l-1 -426z" />
<glyph unicode="&#xe0;" horiz-adv-x="571" d="M7 168q0 -182 184 -182q27 0 53 7.5t44.5 18.5t32.5 22t20 19l7 8l22 -61h187l-19 53v278q0 75 -11.5 124t-39.5 80.5t-72 45t-113 13.5q-77 0 -151.5 -23t-120.5 -53l44 -93q26 14 71.5 24t87.5 10q49 0 71.5 -17t22.5 -59v-12q-23 0 -48.5 -2t-57.5 -8.5t-61 -15.5 t-57.5 -25t-49 -36.5t-33.5 -50.5t-13 -65zM73 885l163 -226h112l-95 226h-180zM236 191q0 48 24.5 71t66.5 23v-164l-4 -4t-12 -7.5t-17 -3.5q-58 0 -58 85z" />
<glyph unicode="&#xe1;" horiz-adv-x="571" d="M7 168q0 -182 184 -182q27 0 53 7.5t44.5 18.5t32.5 22t20 19l7 8l22 -61h187l-19 53v278q0 75 -11.5 124t-39.5 80.5t-72 45t-113 13.5q-77 0 -151.5 -23t-120.5 -53l44 -93q26 14 71.5 24t87.5 10q49 0 71.5 -17t22.5 -59v-12q-23 0 -48.5 -2t-57.5 -8.5t-61 -15.5 t-57.5 -25t-49 -36.5t-33.5 -50.5t-13 -65zM225 659h112l163 226h-179zM236 191q0 48 24.5 71t66.5 23v-164l-4 -4t-12 -7.5t-17 -3.5q-58 0 -58 85z" />
<glyph unicode="&#xe2;" horiz-adv-x="571" d="M7 168q0 -182 184 -182q27 0 53 7.5t44.5 18.5t32.5 22t20 19l7 8l22 -61h187l-19 53v278q0 75 -11.5 124t-39.5 80.5t-72 45t-113 13.5q-77 0 -151.5 -23t-120.5 -53l44 -93q26 14 71.5 24t87.5 10q49 0 71.5 -17t22.5 -59v-12q-23 0 -48.5 -2t-57.5 -8.5t-61 -15.5 t-57.5 -25t-49 -36.5t-33.5 -50.5t-13 -65zM97 659h125l60 100l60 -100h125l-132 226h-106zM236 191q0 48 24.5 71t66.5 23v-164l-4 -4t-12 -7.5t-17 -3.5q-58 0 -58 85z" />
<glyph unicode="&#xe3;" horiz-adv-x="571" d="M7 168q0 -182 184 -182q27 0 53 7.5t44.5 18.5t32.5 22t20 19l7 8l22 -61h187l-19 53v278q0 75 -11.5 124t-39.5 80.5t-72 45t-113 13.5q-77 0 -151.5 -23t-120.5 -53l44 -93q26 14 71.5 24t87.5 10q49 0 71.5 -17t22.5 -59v-12q-23 0 -48.5 -2t-57.5 -8.5t-61 -15.5 t-57.5 -25t-49 -36.5t-33.5 -50.5t-13 -65zM99 700h76v11q0 14 8 25.5t20 11.5q16 0 66.5 -24t75.5 -24q53 0 87 27.5t34 90.5v53h-75v-11q0 -14 -7.5 -24.5t-21.5 -10.5q-15 0 -64 23t-77 23q-52 0 -87 -35t-35 -110v-26zM236 191q0 48 24.5 71t66.5 23v-164l-4 -4 t-12 -7.5t-17 -3.5q-58 0 -58 85z" />
<glyph unicode="&#xe4;" horiz-adv-x="571" d="M7 168q0 -182 184 -182q27 0 53 7.5t44.5 18.5t32.5 22t20 19l7 8l22 -61h187l-19 53v278q0 75 -11.5 124t-39.5 80.5t-72 45t-113 13.5q-77 0 -151.5 -23t-120.5 -53l44 -93q26 14 71.5 24t87.5 10q49 0 71.5 -17t22.5 -59v-12q-23 0 -48.5 -2t-57.5 -8.5t-61 -15.5 t-57.5 -25t-49 -36.5t-33.5 -50.5t-13 -65zM38 767l100 -100h22l104 100v21l-104 99h-22l-100 -99v-21zM236 191q0 48 24.5 71t66.5 23v-164l-4 -4t-12 -7.5t-17 -3.5q-58 0 -58 85zM301 767l100 -100h23l104 100v21l-104 99h-23l-100 -99v-21z" />
<glyph unicode="&#xe5;" horiz-adv-x="571" d="M7 168q0 -182 184 -182q27 0 53 7.5t44.5 18.5t32.5 22t20 19l7 8l22 -61h187l-19 53v278q0 75 -11.5 124t-39.5 80.5t-72 45t-113 13.5q-77 0 -151.5 -23t-120.5 -53l44 -93q26 14 71.5 24t87.5 10q49 0 71.5 -17t22.5 -59v-12q-23 0 -48.5 -2t-57.5 -8.5t-61 -15.5 t-57.5 -25t-49 -36.5t-33.5 -50.5t-13 -65zM133 821.5q0 -61.5 44 -105t105 -43.5t105 43.5t44 105t-44 105t-105 43.5t-105 -43.5t-44 -105zM204 821q0 31 23 55t55 24q31 0 54.5 -23.5t23.5 -55t-22.5 -55t-55.5 -23.5q-32 0 -55 23t-23 55zM236 191q0 48 24.5 71t66.5 23 v-164l-4 -4t-12 -7.5t-17 -3.5q-58 0 -58 85z" />
<glyph unicode="&#xe6;" horiz-adv-x="897" d="M7 168q0 -182 184 -182q61 0 112 36.5t73 75.5q70 -112 239 -112q41 0 86 9.5t94 37t74 68.5l-40 69q-19 -18 -47.5 -31t-56 -19t-51.5 -6t-41.5 4t-34 16.5t-25 38.5t-8.5 66v13h312v76q0 140 -58 203t-192 63q-97 0 -163 -37q-53 37 -162 37q-77 0 -151.5 -23 t-120.5 -53l44 -93q26 14 71.5 24t87.5 10q49 0 71.5 -17t22.5 -59v-12q-23 0 -48.5 -2t-57.5 -8.5t-61 -15.5t-57.5 -25t-49 -36.5t-33.5 -50.5t-13 -65zM236 191q0 48 24.5 71t66.5 23v-164q-1 0 -4.5 -4t-11.5 -7.5t-17 -3.5q-58 0 -58 85zM565 353v29v28q0 51 12 76.5 t51 25.5q24 0 33 -36t9 -123h-105z" />
<glyph unicode="&#xe7;" horiz-adv-x="530" d="M26 282q0 -134 73.5 -215t211.5 -81q41 0 77 7t57.5 17.5t37 21t21.5 17.5l6 8l-34 93q-23 -18 -59 -26.5t-70 -8.5q-15 0 -25.5 1t-26.5 10t-25.5 25t-17 48.5t-7.5 78.5q0 105 23.5 147.5t85.5 42.5q10 0 15 -1l39 -105l97 1l10 161l-14 14q-66 57 -184 57 q-61 0 -114 -21.5t-92.5 -61t-62 -99t-22.5 -131.5zM110 -337q47 -28 101 -28q47 0 88 13t71 46.5t30 82.5q0 13 -2 25t-3.5 20.5t-6.5 18t-7.5 15t-10.5 13t-10.5 10t-12 9.5t-12 8t-13.5 7.5t-12 7.5l33 105h-121l-71 -132h22q24 -2 45 -16.5t21 -39.5q0 -32 -21.5 -48 t-56.5 -16q-23 0 -45 7z" />
<glyph unicode="&#xe8;" horiz-adv-x="587" d="M21 284q0 -64 15 -116.5t47.5 -94t89 -64.5t132.5 -23q41 0 86 9.5t94 37t74 68.5l-40 69q-19 -18 -47.5 -31t-56 -19t-51.5 -6q-25 0 -42 4t-33.5 16.5t-25 38.5t-8.5 66v13h312v76q0 140 -58 203t-192 63q-140 0 -218 -78.5t-78 -231.5zM85 885l163 -226h112l-95 226 h-180zM256 353v57q0 25 1.5 41t8 31.5t19.5 22.5t33 7q24 0 33 -36t9 -123h-104z" />
<glyph unicode="&#xe9;" horiz-adv-x="587" d="M21 284q0 -64 15 -116.5t47.5 -94t89 -64.5t132.5 -23q41 0 86 9.5t94 37t74 68.5l-40 69q-19 -18 -47.5 -31t-56 -19t-51.5 -6q-25 0 -42 4t-33.5 16.5t-25 38.5t-8.5 66v13h312v76q0 140 -58 203t-192 63q-140 0 -218 -78.5t-78 -231.5zM237 659h112l163 226h-179z M256 353v57q0 25 1.5 41t8 31.5t19.5 22.5t33 7q24 0 33 -36t9 -123h-104z" />
<glyph unicode="&#xea;" horiz-adv-x="587" d="M21 284q0 -64 15 -116.5t47.5 -94t89 -64.5t132.5 -23q41 0 86 9.5t94 37t74 68.5l-40 69q-19 -18 -47.5 -31t-56 -19t-51.5 -6q-25 0 -42 4t-33.5 16.5t-25 38.5t-8.5 66v13h312v76q0 140 -58 203t-192 63q-140 0 -218 -78.5t-78 -231.5zM109 659h125l60 100l60 -100 h125l-132 226h-106zM256 353v57q0 25 1.5 41t8 31.5t19.5 22.5t33 7q24 0 33 -36t9 -123h-104z" />
<glyph unicode="&#xeb;" horiz-adv-x="587" d="M21 284q0 -64 15 -116.5t47.5 -94t89 -64.5t132.5 -23q41 0 86 9.5t94 37t74 68.5l-40 69q-19 -18 -47.5 -31t-56 -19t-51.5 -6q-25 0 -42 4t-33.5 16.5t-25 38.5t-8.5 66v13h312v76q0 140 -58 203t-192 63q-140 0 -218 -78.5t-78 -231.5zM50 767l100 -100h22l104 100v21 l-104 99h-22l-100 -99v-21zM256 353v57q0 25 1.5 41t8 31.5t19.5 22.5t33 7q24 0 33 -36t9 -123h-104zM313 767l100 -100h23l104 100v21l-104 99h-23l-100 -99v-21z" />
<glyph unicode="&#xec;" horiz-adv-x="314" d="M-29 885l163 -226h112l-95 226h-180zM12 467l41 -25v-442h220v580h-114l-147 -40v-73z" />
<glyph unicode="&#xed;" horiz-adv-x="314" d="M12 467l41 -25v-442h220v580h-114l-147 -40v-73zM123 659h112l163 226h-179z" />
<glyph unicode="&#xee;" horiz-adv-x="314" d="M-5 659h125l60 100l60 -100h125l-132 226h-106zM12 467l41 -25v-442h220v580h-114l-147 -40v-73z" />
<glyph unicode="&#xef;" horiz-adv-x="314" d="M-64 767l100 -100h22l104 100v21l-104 99h-22l-100 -99v-21zM12 467l41 -25v-442h220v580h-114l-147 -40v-73zM199 767l100 -100h23l104 100v21l-104 99h-23l-100 -99v-21z" />
<glyph unicode="&#xf0;" horiz-adv-x="755" d="M55 283q0 -133 94.5 -215t261.5 -82q73 0 128.5 31t89 86t50.5 127t17 160q0 130 -52 240.5t-141 183.5l109 76l-45 62l-127 -94q-102 59 -215 60q-25 0 -46 -3l-9 -91q10 -3 33.5 -8.5t39 -9t36.5 -11.5t38 -17l-107 -72l45 -60l118 84q10 -12 18 -25t14.5 -30 t11.5 -35.5t8.5 -41.5t3.5 -48q-62 36 -145 36q-74 0 -127 -41t-77.5 -108.5t-24.5 -153.5zM293 255v96q1 139 93 140q20 0 43 -6l2 5v-72l-1 -129q0 -86 -17 -126.5t-43 -40.5q-29 0 -53 40.5t-24 92.5z" />
<glyph unicode="&#xf1;" horiz-adv-x="647" d="M12 467l41 -25v-442h221v398q1 1 5 4.5t5.5 4.5t5.5 4l6 4.5t5 4t6 3.5t6.5 2.5t7 2.5t7 1.5t7.5 0.5q57 0 55 -64v-366h225v346q0 5 1 13v12q0 120 -38.5 171.5t-132.5 51.5q-27 0 -54.5 -10.5t-47 -25.5t-36 -30t-24.5 -26l-8 -10v88h-116l-147 -40v-73zM150 700h76v11 q0 14 8 25.5t20 11.5q16 0 66.5 -24t75.5 -24q53 0 87 27.5t34 90.5v53h-75v-11q0 -14 -7.5 -24.5t-21.5 -10.5q-15 0 -64 23t-77 23q-52 0 -87 -35t-35 -110v-26z" />
<glyph unicode="&#xf2;" horiz-adv-x="656" d="M21 283q0 -156 72.5 -226.5t228.5 -70.5q162 0 237.5 75t75.5 232q0 152 -71.5 226.5t-231.5 74.5q-165 0 -238 -78t-73 -233zM119 885l163 -226h112l-95 226h-180zM265 197v221q0 44 16.5 68t45.5 24q63 0 63 -133v-216q0 -44 -16 -68.5t-46 -24.5q-63 0 -63 129z" />
<glyph unicode="&#xf3;" horiz-adv-x="656" d="M21 283q0 -156 72.5 -226.5t228.5 -70.5q162 0 237.5 75t75.5 232q0 152 -71.5 226.5t-231.5 74.5q-165 0 -238 -78t-73 -233zM265 197v221q0 44 16.5 68t45.5 24q63 0 63 -133v-216q0 -44 -16 -68.5t-46 -24.5q-63 0 -63 129zM271 659h112l163 226h-179z" />
<glyph unicode="&#xf4;" horiz-adv-x="656" d="M21 283q0 -156 72.5 -226.5t228.5 -70.5q162 0 237.5 75t75.5 232q0 152 -71.5 226.5t-231.5 74.5q-165 0 -238 -78t-73 -233zM143 659h125l60 100l60 -100h125l-132 226h-106zM265 197v221q0 44 16.5 68t45.5 24q63 0 63 -133v-216q0 -44 -16 -68.5t-46 -24.5 q-63 0 -63 129z" />
<glyph unicode="&#xf5;" horiz-adv-x="656" d="M21 283q0 -156 72.5 -226.5t228.5 -70.5q162 0 237.5 75t75.5 232q0 152 -71.5 226.5t-231.5 74.5q-165 0 -238 -78t-73 -233zM145 700h76v11q0 14 8 25.5t20 11.5q16 0 66.5 -24t75.5 -24q53 0 87 27.5t34 90.5v53h-75v-11q0 -14 -7.5 -24.5t-21.5 -10.5q-15 0 -64 23 t-77 23q-52 0 -87 -35t-35 -110v-26zM265 197v221q0 44 16.5 68t45.5 24q63 0 63 -133v-216q0 -44 -16 -68.5t-46 -24.5q-63 0 -63 129z" />
<glyph unicode="&#xf6;" horiz-adv-x="656" d="M21 283q0 -156 72.5 -226.5t228.5 -70.5q162 0 237.5 75t75.5 232q0 152 -71.5 226.5t-231.5 74.5q-165 0 -238 -78t-73 -233zM84 767l100 -100h22l104 100v21l-104 99h-22l-100 -99v-21zM265 197v221q0 44 16.5 68t45.5 24q63 0 63 -133v-216q0 -44 -16 -68.5t-46 -24.5 q-63 0 -63 129zM347 767l100 -100h23l104 100v21l-104 99h-23l-100 -99v-21z" />
<glyph unicode="&#xf7;" horiz-adv-x="783" d="M75 283h634v137h-634v-137zM264 100l112 -113h26l117 113v24l-117 112h-26l-112 -112v-24zM264 575l112 -113h26l117 113v24l-117 112h-26l-112 -112v-24z" />
<glyph unicode="&#xf8;" horiz-adv-x="656" d="M21 283q0 -190 111 -256q13 -8 26 -13l-47 -155h181l38 127q158 2 231.5 77t73.5 230q0 195 -118 261q-16 9 -32 15l44 145h-180l-37 -120q-154 -5 -222.5 -83t-68.5 -228zM265 197v221q0 74 44 89q9 3 18 3q63 0 63 -133v-216q0 -44 -16 -68.5t-46 -24.5q-63 0 -63 129z " />
<glyph unicode="&#xf9;" horiz-adv-x="638" d="M23 502l24 -25v-243q0 -134 41.5 -191t137.5 -57q31 0 61 13t50.5 32t33 34.5t16.5 25.5l21 -91h189v580h-260v-78l37 -25v-321q-2 -1 -5.5 -4t-5.5 -4.5t-5.5 -4t-5.5 -3.5t-5.5 -3t-5.5 -2.5t-5.5 -1.5t-7 -1.5t-7.5 -0.5q-29 0 -40 14.5t-10 45.5v389h-248v-78z M101 885l163 -226h112l-95 226h-180z" />
<glyph unicode="&#xfa;" horiz-adv-x="638" d="M23 502l24 -25v-243q0 -134 41.5 -191t137.5 -57q31 0 61 13t50.5 32t33 34.5t16.5 25.5l21 -91h189v580h-260v-78l37 -25v-321q-2 -1 -5.5 -4t-5.5 -4.5t-5.5 -4t-5.5 -3.5t-5.5 -3t-5.5 -2.5t-5.5 -1.5t-7 -1.5t-7.5 -0.5q-29 0 -40 14.5t-10 45.5v389h-248v-78z M253 659h112l163 226h-179z" />
<glyph unicode="&#xfb;" horiz-adv-x="638" d="M23 502l24 -25v-243q0 -134 41.5 -191t137.5 -57q31 0 61 13t50.5 32t33 34.5t16.5 25.5l21 -91h189v580h-260v-78l37 -25v-321q-2 -1 -5.5 -4t-5.5 -4.5t-5.5 -4t-5.5 -3.5t-5.5 -3t-5.5 -2.5t-5.5 -1.5t-7 -1.5t-7.5 -0.5q-29 0 -40 14.5t-10 45.5v389h-248v-78z M125 659h125l60 100l60 -100h125l-132 226h-106z" />
<glyph unicode="&#xfc;" horiz-adv-x="638" d="M23 502l24 -25v-243q0 -134 41.5 -191t137.5 -57q31 0 61 13t50.5 32t33 34.5t16.5 25.5l21 -91h189v580h-260v-78l37 -25v-321q-2 -1 -5.5 -4t-5.5 -4.5t-5.5 -4t-5.5 -3.5t-5.5 -3t-5.5 -2.5t-5.5 -1.5t-7 -1.5t-7.5 -0.5q-29 0 -40 14.5t-10 45.5v389h-248v-78z M66 767l100 -100h22l104 100v21l-104 99h-22l-100 -99v-21zM329 767l100 -100h23l104 100v21l-104 99h-23l-100 -99v-21z" />
<glyph unicode="&#xfd;" horiz-adv-x="634" d="M22 502l24 -25v-242q0 -135 42 -192t143 -57q27 0 52.5 11t43.5 26t32 30.5t21 26.5l6 11v-59q-1 -41 -9 -69t-23.5 -43.5t-35.5 -21.5t-47 -6q-86 0 -126 23l-35 -74q29 -35 91 -55.5t132 -20.5q134 0 198.5 82t64.5 233v500h-260v-78l37 -25v-321q-10 -8 -18 -13.5 t-17 -8.5t-18 -3q-30 0 -40 14.5t-10 46.5v388h-248v-78zM252 659h112l163 226h-179z" />
<glyph unicode="&#xfe;" horiz-adv-x="649" d="M3 797l41 -25v-980h222v240q61 -32 137 -32q57 0 100.5 23.5t71.5 65t42.5 96t14.5 118.5q0 137 -53 214t-165 77q-27 0 -50.5 -6t-42 -16.5t-31.5 -21.5t-24 -23v367h-44l-219 -34v-63zM266 100v355q24 14 49 13q35 0 57 -29.5t22 -87.5v-116q-1 -140 -92 -140 q-8 0 -17 1t-19 4z" />
<glyph unicode="&#xff;" horiz-adv-x="634" d="M22 502l24 -25v-242q0 -135 42 -192t143 -57q27 0 52.5 11t43.5 26t32 30.5t21 26.5l6 11v-59q-1 -41 -9 -69t-23.5 -43.5t-35.5 -21.5t-47 -6q-86 0 -126 23l-35 -74q29 -35 91 -55.5t132 -20.5q134 0 198.5 82t64.5 233v500h-260v-78l37 -25v-321q-10 -8 -18 -13.5 t-17 -8.5t-18 -3q-30 0 -40 14.5t-10 46.5v388h-248v-78zM65 767l100 -100h22l104 100v21l-104 99h-22l-100 -99v-21zM328 767l100 -100h23l104 100v21l-104 99h-23l-100 -99v-21z" />
<glyph unicode="&#x152;" horiz-adv-x="1090" d="M26 397q0 -55 3.5 -99t12.5 -88t23.5 -77t38.5 -61.5t57 -47t78.5 -28.5t101.5 -10q169 0 250 75v-61h484v171l-259 -7v181l185 -13v160h-185v154l235 -7l13 161h-473v-54q-74 67 -219 67q-83 0 -144 -19t-100 -52.5t-62 -87t-31.5 -114.5t-8.5 -143zM277 309v172 q0 124 17.5 170.5t61 46.5t63 -48t19.5 -146v-164q0 -100 -8.5 -150.5t-25 -66.5t-48.5 -16q-44 0 -61.5 44.5t-17.5 157.5z" />
<glyph unicode="&#x153;" horiz-adv-x="970" d="M21 283q0 -156 72.5 -226.5t228.5 -70.5q121 0 195 42q68 -42 170 -42q41 0 86.5 9.5t94 37t73.5 68.5l-40 69q-28 -26 -72.5 -41t-82.5 -15q-24 0 -41.5 4t-34 16.5t-25 38.5t-7.5 66v13h312v76q0 70 -14 119t-44 82.5t-77.5 49t-115.5 15.5q-105 0 -175 -44 q-71 44 -192 44q-165 0 -238 -78t-73 -233zM265 197v221q0 44 16.5 68t45.5 24q63 0 63 -133v-216q0 -44 -16 -68.5t-46 -24.5q-63 0 -63 129zM637 410q0 51 12.5 76.5t50.5 25.5q24 0 33 -36t9 -123h-104q0 10 -0.5 29t-0.5 28z" />
<glyph unicode="&#x178;" horiz-adv-x="602" d="M-34 800l227 -550v-250h245v254l200 546h-204l-53 -206l-39 -169l-47 169l-70 206h-259zM81 984l100 -100h22l104 100v21l-104 100h-22l-100 -100v-21zM344 984l100 -100h23l104 100v21l-104 100h-23l-100 -100v-21z" />
<glyph unicode="&#x2c6;" horiz-adv-x="438" d="M34 659h125l60 100l60 -100h125l-132 226h-105z" />
<glyph unicode="&#x2000;" horiz-adv-x="628" />
<glyph unicode="&#x2001;" horiz-adv-x="1256" />
<glyph unicode="&#x2002;" horiz-adv-x="628" />
<glyph unicode="&#x2003;" horiz-adv-x="1256" />
<glyph unicode="&#x2004;" horiz-adv-x="418" />
<glyph unicode="&#x2005;" horiz-adv-x="314" />
<glyph unicode="&#x2006;" horiz-adv-x="209" />
<glyph unicode="&#x2007;" horiz-adv-x="209" />
<glyph unicode="&#x2008;" horiz-adv-x="157" />
<glyph unicode="&#x2009;" horiz-adv-x="251" />
<glyph unicode="&#x200a;" horiz-adv-x="69" />
<glyph unicode="&#x2010;" horiz-adv-x="517" d="M55 317h408v171h-408v-171z" />
<glyph unicode="&#x2011;" horiz-adv-x="517" d="M55 317h408v171h-408v-171z" />
<glyph unicode="&#x2012;" horiz-adv-x="517" d="M55 317h408v171h-408v-171z" />
<glyph unicode="&#x2013;" horiz-adv-x="681" d="M55 317h572v171h-572v-171z" />
<glyph unicode="&#x2014;" horiz-adv-x="1043" d="M55 317h934v171h-934v-171z" />
<glyph unicode="&#x2018;" horiz-adv-x="329" d="M48 446h179l41 467h-118z" />
<glyph unicode="&#x2019;" horiz-adv-x="329" d="M61 446h119l102 467h-180z" />
<glyph unicode="&#x201a;" horiz-adv-x="329" d="M61 -316h119l102 467h-180z" />
<glyph unicode="&#x201c;" horiz-adv-x="587" d="M48 447h179l41 467h-118zM306 447h179l41 467h-118z" />
<glyph unicode="&#x201d;" horiz-adv-x="587" d="M62 448h118l102 467h-179zM320 448h118l102 467h-179z" />
<glyph unicode="&#x201e;" horiz-adv-x="585" d="M62 -314h118l102 467h-179zM318 -314h118l102 467h-179z" />
<glyph unicode="&#x2022;" horiz-adv-x="312" d="M3 321l134 -135h32l140 135v29l-140 134h-32l-134 -134v-29z" />
<glyph unicode="&#x2026;" horiz-adv-x="837" d="M11 100l112 -113h26l117 113v24l-117 112h-26l-112 -112v-24zM290 100l112 -113h26l117 113v24l-117 112h-26l-112 -112v-24zM569 100l112 -113h26l117 113v24l-117 112h-26l-112 -112v-24z" />
<glyph unicode="&#x202f;" horiz-adv-x="251" />
<glyph unicode="&#x2039;" horiz-adv-x="542" d="M55 336l226 -253h193l-152 253l152 247h-193z" />
<glyph unicode="&#x203a;" horiz-adv-x="542" d="M68 83h194l226 253l-226 247h-194l153 -247z" />
<glyph unicode="&#x205f;" horiz-adv-x="314" />
<glyph unicode="&#x20ac;" horiz-adv-x="735" d="M37 310h89q7 -76 28 -133.5t60 -101.5t101.5 -66.5t145.5 -22.5q44 0 82.5 7.5t61 17t39.5 20.5t23.5 18t6.5 8l-31 108q-14 -10 -32 -17t-37.5 -11t-38 -5.5t-35.5 -1.5q-114 0 -135 180h165v171h-166q2 29 5.5 52.5t9 42.5t12 33t16 24.5t20 17.5t24 11t27.5 6t31 2 q10 0 21 -3l35 -82h104l10 157q-2 3 -6.5 7.5t-21.5 17t-38.5 22t-59 17t-79.5 7.5q-72 0 -128 -14.5t-95 -42t-66 -69t-41 -92t-19 -114.5h-88v-171z" />
<glyph unicode="&#x2122;" horiz-adv-x="1170" d="M53 808l98 -2v-394h184v396h97v115h-379v-115zM453 412h151l14 300l3 89l79 -338h119l66 338l6 -89l22 -300h168l-34 511h-218l-34 -172l-17 -86l-18 87l-38 171h-238z" />
<glyph unicode="&#x25fc;" horiz-adv-x="580" d="M0 0v580h580v-580h-580z" />
</font>
</defs>
</svg>
