<?xml version="1.0" standalone="no"?>
<!DOCTYPE svg PUBLIC "-//W3C//DTD SVG 1.1//EN" "http://www.w3.org/Graphics/SVG/1.1/DTD/svg11.dtd" >
<svg xmlns="http://www.w3.org/2000/svg" xmlns:xlink="http://www.w3.org/1999/xlink" version="1.1">
<metadata></metadata>
<defs>
<font id="ara_jozoorregular" horiz-adv-x="0" >
<font-face units-per-em="2048" ascent="1638" descent="-410" />
<missing-glyph horiz-adv-x="438" />
<glyph unicode="fi" horiz-adv-x="1225" d="M176 918v11q0 233 106 357t300 124q99 0 154.5 -38t55.5 -103q0 -39 -24 -68.5t-74 -54.5q-40 54 -101 54q-67 0 -97 -63.5t-30 -197.5v-14q87 8 127 8q49 0 75 -22.5t26 -62.5q0 -41 -39 -125q-54 17 -118 17q-13 0 -75 -4q0 -142 4 -272t7.5 -208t3.5 -96 q0 -87 -29.5 -123.5t-103.5 -36.5q-95 0 -218 56q58 120 58 491q0 49 -4 183q-18 -1 -38.5 -2t-31 -1.5t-15.5 -0.5q-76 0 -76 80q0 36 33 116q34 -6 76 -6q30 0 48 2zM1134 1256q0 -70 -49.5 -117t-124.5 -47q-61 0 -99 36.5t-38 94.5q0 72 48 120t118 48q64 0 104.5 -38.5 t40.5 -96.5zM1144 54q-110 -52 -224 -52q-73 0 -102.5 32.5t-29.5 110.5q0 32 9 178.5t9 261.5q0 228 -47 327q115 54 221 54q71 0 103 -34.5t32 -110.5q0 -49 -10 -200t-10 -252q0 -196 49 -315z" />
<glyph unicode="fl" horiz-adv-x="1260" d="M1175 52q-104 -52 -221 -52q-81 0 -107 39.5t-26 144.5q0 40 11.5 274t11.5 429q0 260 -25 380q-6 -90 -93 -123q-35 54 -102 54q-75 0 -115.5 -67.5t-40.5 -195.5v-12q105 10 133 10q93 0 93 -87q0 -52 -37 -123q-48 17 -93 17q-14 0 -102 -4q1 -147 4.5 -279.5 t7 -208.5t3.5 -92q0 -85 -29 -120.5t-102 -35.5q-107 0 -217 52q32 73 43.5 182t11.5 278q0 120 -6 218q-19 -1 -39.5 -2t-31.5 -1.5t-16 -0.5q-74 0 -74 74q0 42 35 120q23 -4 68 -4q36 0 56 2v17q0 224 115.5 347t322.5 123q107 0 201 -49q119 49 195 49q77 0 105.5 -39 t28.5 -131q0 -26 -11.5 -248t-11.5 -417q0 -204 11 -326t43 -192z" />
<glyph unicode="&#xfedf;&#xfe82;" horiz-adv-x="1207" arabic-form="isolated" d="M294 1276q-53 29 -61 49q-13 29 3.5 78t51.5 63q24 10 42.5 12.5t47.5 -6t46 -16t69 -32.5q50 -27 79 -15.5t43 77.5q54 -29 61 -48q12 -28 -7 -78t-54 -65q-21 -9 -38 -11t-36 2.5t-44.5 15t-60.5 26.5q-14 7 -21 10q-51 27 -81.5 15t-39.5 -77zM1177 1326 q-30 -50 -30 -193q0 -177 1 -464l2 -447q0 -221 -201 -221h-770q-139 7 -139 106q0 77 54 146q38 -35 85 -37h149q1 19 1 61q0 32 -6 395l-6 387q0 55 32 89q35 32 91 32q100 0 168 -55q-30 -49 -30 -193l12 -716h224q45 0 63 28.5t18 94.5l-5 470q-1 122 -2.5 235.5t-2 162 t-0.5 54.5q0 55 33.5 87.5t90.5 32.5q98 0 168 -55z" />
<glyph unicode="&#xfee0;&#xfe82;" horiz-adv-x="1456" arabic-form="final" d="M293 1276q-51 28 -61 49q-12 30 4 78.5t52 62.5q24 10 43 12.5t47 -6t46.5 -16.5t67.5 -32q50 -27 79 -15.5t43 77.5q53 -29 62 -48q12 -29 -6.5 -78.5t-55.5 -64.5q-20 -9 -35 -11.5t-39 4t-41 13.5t-61 27q-14 7 -22 10q-53 27 -82.5 15t-40.5 -77zM1496 216v-216h-267 q-90 0 -129 57q-53 -56 -151 -56h-769q-140 8 -140 106q0 77 54 146q40 -36 86 -37h148q2 38 2 61q0 56 -7 395t-7 387q0 56 33 88.5t90 32.5q100 0 170 -55q-31 -49 -31 -193l12 -716h224q44 0 62 28.5t18 94.5q0 89 -4 470t-4 452q0 55 33 87.5t90 32.5q100 0 168 -55 q-30 -50 -30 -193l3 -814q5 -46 29 -74.5t50 -28.5h267z" />
<glyph unicode="&#xfedf;&#xfe84;" horiz-adv-x="1216" arabic-form="isolated" d="M613 1299h-317q-21 3 -34.5 19t-13.5 35q0 28 20 54q13 -13 30 -13h58q-31 41 -31 94q0 66 49 106.5t130 40.5q76 0 116 -38q13 -13 18 -37.5t-7 -46.5t-43 -22q-38 0 -60 15q8 0 13 12.5t2 27.5v1q-17 7 -35 7q-34 0 -55.5 -22t-21.5 -57q0 -69 70 -81h112q52 -3 52 -40 q0 -44 -19 -69q-17 14 -33 14zM1176 1323q-30 -49 -30 -193q0 -176 1 -462l2 -447q0 -220 -201 -220h-769q-139 7 -139 105q0 76 54 147q40 -37 85 -37h149q1 19 1 60q0 33 -6 394q-7 339 -7 388q0 55 33.5 88t90.5 33q97 0 168 -56q-31 -49 -31 -193l12 -714h224 q44 0 62.5 28.5t18.5 93.5l-5 469q-1 121 -2.5 234.5t-2 162t-0.5 54.5q0 56 33 88.5t91 32.5q97 0 168 -56z" />
<glyph unicode="&#xfee0;&#xfe84;" horiz-adv-x="1454" arabic-form="final" d="M613 1299h-317q-21 3 -34.5 19t-13.5 35q0 28 20 54q13 -13 30 -13h58q-31 41 -31 94q0 66 49 106.5t130 40.5q76 0 116 -38q13 -13 18 -37.5t-7 -46.5t-43 -22q-38 0 -60 15q8 0 13 12.5t2 27.5v1q-18 7 -35 7q-34 0 -55.5 -22t-21.5 -57q0 -69 70 -81h112q52 -3 52 -40 q0 -43 -20 -69q-16 14 -32 14zM1494 0h-267q-90 0 -129 56q-51 -55 -150 -55h-769q-139 7 -139 105q0 76 54 147q38 -37 85 -37h148q2 38 2 60q0 33 -6 394q-7 339 -7 388q0 55 33 88t90 33q98 0 169 -56q-31 -49 -31 -193l12 -714h224q44 0 62.5 28.5t18.5 93.5l-5 469 q-1 121 -2.5 234.5t-2 162t-0.5 54.5q0 56 33 88.5t90 32.5q98 0 168 -56q-30 -49 -30 -193l4 -811q5 -46 28.5 -74.5t49.5 -28.5h267v-216z" />
<glyph unicode="&#xfedf;&#xfe88;" horiz-adv-x="1219" arabic-form="isolated" d="M1179 1326q-31 -49 -31 -193l2 -464q0 -126 0.5 -235.5t1 -159.5t0.5 -52q0 -221 -201 -221h-770q-139 7 -139 106q0 76 53 146q40 -36 86 -37h148q2 38 2 61q0 32 -6 395q-7 339 -7 387q0 55 32 89q35 32 91 32q101 0 169 -55q-30 -49 -30 -193l11 -716h225 q44 0 62 28.5t18 94.5l-5 470q-4 381 -4 452q0 55 33 87.5t90 32.5q99 0 169 -55zM469 -340h114q51 -2 51 -39q0 -43 -20 -69q-14 12 -31 14l-319 -1v1q-21 2 -34.5 18.5t-13.5 35.5q0 28 20 54q13 -12 29 -13h59q-31 43 -31 94q0 66 49.5 107t130.5 41q77 0 115 -39 q13 -12 18.5 -37.5t-6.5 -47.5t-43 -22q-38 0 -60 16q7 0 12 11q6 13 3 29v2q-22 5 -35 5q-35 0 -56.5 -22t-21.5 -56q0 -70 70 -82z" />
<glyph unicode="&#xfee0;&#xfe88;" horiz-adv-x="1457" arabic-form="final" d="M1497 0h-274q-84 0 -123 57q-50 -56 -151 -56h-769q-140 8 -140 106q0 78 55 146q38 -35 85 -37h149q1 19 1 61q0 32 -6 395l-6 387q0 55 32 89q35 32 91 32q98 0 168 -55q-31 -49 -31 -193l13 -716h224q44 0 62.5 28.5t18.5 94.5l-5 470q-1 122 -2.5 235.5t-2 162 t-0.5 54.5q0 55 33.5 87.5t90.5 32.5q98 0 168 -55q-30 -50 -30 -193l3 -814q5 -46 28 -74.5t51 -28.5h267v-216zM469 -340h112q52 -1 52 -39q0 -43 -20 -69q-12 12 -32 14l-318 -1v1q-21 2 -34.5 18.5t-13.5 35.5q0 28 20 54q13 -11 30 -13h58q-30 43 -30 94q0 66 48.5 107 t129.5 41q78 0 117 -39q12 -13 17 -37.5t-6.5 -47t-42.5 -22.5q-39 0 -61 16q9 0 13.5 12t2.5 28v2q-22 5 -36 5q-33 0 -54.5 -22t-21.5 -56q0 -70 70 -82z" />
<glyph unicode="&#xfedf;&#xfe8e;" horiz-adv-x="1215" arabic-form="isolated" d="M1175 1323q-30 -49 -30 -193l2 -462q0 -126 0.5 -235.5t1 -159.5t0.5 -52q0 -220 -201 -220h-769q-139 7 -139 105q0 76 54 147q38 -37 85 -37h148q2 38 2 60q0 33 -6 394q-7 339 -7 388q0 55 33 88t90 33q98 0 169 -56q-31 -49 -31 -193l12 -714h224q44 0 62 28.5 t18 93.5q0 89 -4 469l-5 451q0 56 33 88.5t90 32.5q98 0 168 -56z" />
<glyph unicode="&#xfee0;&#xfe8e;" horiz-adv-x="1453" arabic-form="final" d="M1493 0h-273q-83 0 -122 56q-51 -55 -151 -55h-768q-139 7 -139 105q0 76 54 147q38 -37 85 -37h148q2 38 2 60q0 57 -7 394l-6 388q0 55 33 88t90 33q98 0 168 -56q-30 -49 -30 -193l12 -714h224q44 0 62 28.5t18 93.5l-5 469q-4 380 -4 451q0 56 33 88.5t90 32.5 q98 0 168 -56q-30 -49 -30 -193l3 -811q5 -46 28.5 -74.5t50.5 -28.5h266v-216z" />
<glyph unicode="&#x67e;" horiz-adv-x="1557" arabic-form="final" d="M1577 0h-274q-83 2 -123 57q-51 -57 -152 -57h-536q-243 0 -344.5 71.5t-107.5 250.5q-6 150 62.5 266.5t161.5 116.5q64 0 106 -98q-62 -26 -86.5 -101.5t-3.5 -160.5q17 -68 66.5 -97t145.5 -29h401q45 0 63.5 28.5t18.5 94.5q0 24 -5 207q-5 185 -5 188q0 57 33 89.5 t91 32.5q97 0 168 -56q-30 -49 -30 -193l3 -277q2 -51 26.5 -83.5t53.5 -33.5h267v-216zM488 -335q-48 0 -78 29t-30 76q0 52 37.5 88t90.5 36q49 0 80 -29.5t31 -74.5q0 -53 -37.5 -89t-93.5 -36zM789 -335q-49 0 -78 30q-30 29 -30 75q0 52 37 88t90 36q49 0 80.5 -29.5 t31.5 -74.5q0 -53 -37.5 -89t-93.5 -36zM618 -585q-48 0 -78 29t-30 76q0 52 37.5 88t90.5 36q49 0 80 -29.5t31 -74.5q0 -53 -37.5 -89t-93.5 -36z" />
<glyph unicode="&#x67e;" horiz-adv-x="550" arabic-form="initial" d="M510 803q-30 -49 -30 -193l2 -203q0 -49 0.5 -94t1 -66.5t0.5 -25.5q0 -221 -202 -221h-302v216h167q45 1 63 29.5t18 94.5q0 23 -5 208t-5 189q0 57 33 89.5t91 32.5q97 0 168 -56zM98 -335q-48 0 -78 29t-30 76q0 52 37.5 88t90.5 36q49 0 80 -29.5t31 -74.5 q0 -53 -37.5 -89t-93.5 -36zM399 -335q-49 0 -78 30q-30 29 -30 75q0 52 37 88t90 36q49 0 80.5 -29.5t31.5 -74.5q0 -53 -37.5 -89t-93.5 -36zM228 -585q-48 0 -78 29t-30 76q0 52 37.5 88t90.5 36q49 0 80 -29.5t31 -74.5q0 -53 -37.5 -89t-93.5 -36z" />
<glyph unicode="&#x67e;" horiz-adv-x="659" arabic-form="medial" d="M679 0h-124q-82 1 -121 57q-52 -57 -152 -57h-302v216h167q44 1 62 29.5t18 94.5q0 60 -4 208q-5 185 -5 189q0 57 33 89.5t90 32.5q99 0 170 -56q-31 -49 -31 -193l3 -277q2 -51 26.5 -83.5t53.5 -33.5h116v-216zM148 -335q-48 0 -78 29t-30 76q0 52 37.5 88t90.5 36 q49 0 80 -29.5t31 -74.5q0 -53 -37.5 -89t-93.5 -36zM449 -335q-49 0 -78 30q-30 29 -30 75q0 52 37 88t90 36q49 0 80.5 -29.5t31.5 -74.5q0 -53 -37.5 -89t-93.5 -36zM278 -585q-48 0 -78 29t-30 76q0 52 37.5 88t90.5 36q49 0 80 -29.5t31 -74.5q0 -53 -37.5 -89 t-93.5 -36z" />
<glyph unicode="&#x6a4;" horiz-adv-x="1749" arabic-form="final" d="M1308 1227q-48 0 -78 29t-30 76q0 52 37.5 88t90.5 36q49 0 80 -29.5t31 -74.5q0 -53 -37.5 -89t-93.5 -36zM1138 987q-48 0 -78 29t-30 76q0 52 37.5 88t90.5 36q49 0 80 -29.5t31 -74.5q0 -53 -37.5 -89t-93.5 -36zM1439 987q-49 0 -78 30q-30 29 -30 75q0 52 37 88 t90 36q49 0 80.5 -29.5t31.5 -74.5q0 -53 -37.5 -89t-93.5 -36zM1769 0h-117q-90 0 -129 57q-51 -57 -152 -57h-935q-211 8 -300.5 80t-95.5 240q-6 151 62 266.5t161 115.5q64 0 106 -98q-61 -24 -85.5 -100t-3.5 -160q17 -68 65.5 -97t145.5 -31h394q-53 88 -53 180 q0 202 162 343q73 64 190.5 99.5t246.5 30.5q100 0 168 -55q-30 -49 -30 -193l2 -270q2 -6 2 -11q0 -55 24.5 -89.5t54.5 -34.5h117v-216zM1237 216q47 0 63.5 21t16.5 84q0 37 -3 152q-5 175 -5 185q-99 -24 -170.5 -99.5t-71.5 -160.5q0 -95 40 -138.5t130 -43.5z" />
<glyph unicode="&#x6a4;" horiz-adv-x="978" arabic-form="initial" d="M647 1227q-48 0 -78 29t-30 76q0 52 37.5 88t90.5 36q49 0 80 -29.5t31 -74.5q0 -53 -37.5 -89t-93.5 -36zM477 987q-48 0 -78 29t-30 76q0 52 37.5 88t90.5 36q49 0 80 -29.5t31 -74.5q0 -53 -37.5 -89t-93.5 -36zM778 987q-50 0 -78 30q-30 29 -30 75q0 52 37 88t90 36 q49 0 80.5 -29.5t31.5 -74.5q0 -53 -37.5 -89t-93.5 -36zM938 814q-31 -49 -31 -193l2 -209q0 -51 0.5 -97t1 -68.5t0.5 -26.5q0 -220 -201 -220h-730v216h243q-53 88 -53 180q0 202 163 343q73 64 190.5 99.5t246.5 30.5q98 0 168 -55zM575 216q48 0 64.5 21t16.5 84 q0 13 -9 337q-99 -24 -170.5 -99.5t-71.5 -160.5q0 -94 40.5 -138t129.5 -44z" />
<glyph unicode="&#x6a4;" horiz-adv-x="1088" arabic-form="medial" d="M647 1227q-48 0 -78 29t-30 76q0 52 37.5 88t90.5 36q49 0 80 -29.5t31 -74.5q0 -53 -37.5 -89t-93.5 -36zM477 987q-48 0 -78 29t-30 76q0 52 37.5 88t90.5 36q49 0 80 -29.5t31 -74.5q0 -53 -37.5 -89t-93.5 -36zM778 987q-50 0 -78 30q-30 29 -30 75q0 52 37 88t90 36 q49 0 80.5 -29.5t31.5 -74.5q0 -53 -37.5 -89t-93.5 -36zM1108 0h-117q-90 2 -129 57q-52 -57 -152 -57h-730v216h243q-53 88 -53 180q0 202 163 343q73 64 190.5 99.5t246.5 30.5q100 0 168 -55q-30 -50 -30 -193l2 -270q1 -3 1 -11q0 -58 29 -93q22 -31 51 -31h117v-216z M575 216q48 0 64.5 21t16.5 84q0 37 -3 152q-5 175 -5 185q-99 -24 -171 -99.5t-72 -160.5q0 -94 40.5 -138t129.5 -44z" />
<glyph unicode="&#x686;" horiz-adv-x="1436" arabic-form="final" d="M1456 0h-200q-118 0 -149 85q-34 -54 -84.5 -69.5t-173.5 -15.5h-226q-142 -1 -219.5 -59.5t-77.5 -157.5t67 -161.5t174 -62.5q69 0 130 34q56 -94 56 -144q0 -53 -44.5 -77t-140.5 -24q-144 0 -265 61t-192 169.5t-71 239.5q0 159 107 266t291 132h267 q-104 37 -315.5 173.5t-245.5 201.5q-28 52 -9 107q21 61 78 105.5t124 47.5q0 -61 96 -160t244 -198q149 -99 278.5 -149.5t187.5 -27.5q5 -47 0 -100h313v-216zM746 -270q-48 0 -78 29t-30 76q0 52 37.5 88t90.5 36q49 0 80 -29.5t31 -74.5q0 -53 -37.5 -89t-93.5 -36z M1047 -270q-49 0 -78 30q-30 28 -30 75q0 52 37 88t90 36q49 0 80.5 -29.5t31.5 -74.5q0 -53 -37.5 -89t-93.5 -36zM876 -520q-48 0 -78 29t-30 76q0 52 37.5 88t90.5 36q49 0 80 -29.5t31 -74.5q0 -53 -37.5 -89t-93.5 -36z" />
<glyph unicode="&#x686;" horiz-adv-x="1207" arabic-form="initial" d="M1164 316q12 -144 -25 -212q-36 -67 -87 -85.5t-182 -18.5h-890v216h746q-104 36 -315 173t-247 202q-26 53 -8 107q21 61 78 105.5t124 47.5q0 -61 96 -160t244 -198q150 -99 279 -149.5t187 -27.5zM418 -335q-48 0 -78 29t-30 76q0 52 37.5 88t90.5 36q49 0 80 -29.5 t31 -74.5q0 -53 -37.5 -89t-93.5 -36zM719 -335q-49 0 -78 30q-30 29 -30 75q0 52 37 88t90 36q49 0 80.5 -29.5t31.5 -74.5q0 -53 -37.5 -89t-93.5 -36zM548 -585q-48 0 -78 29t-30 76q0 52 37.5 88t90.5 36q49 0 80 -29.5t31 -74.5q0 -53 -37.5 -89t-93.5 -36z" />
<glyph unicode="&#x686;" horiz-adv-x="1457" arabic-form="medial" d="M1477 0h-199q-117 2 -150 85q-34 -54 -84 -69.5t-173 -15.5h-891v216h747q-95 33 -297 162q-227 142 -265 213q-27 52 -9 107q21 61 78.5 105.5t123.5 47.5q0 -61 96 -160t244 -198q149 -99 278.5 -149.5t187.5 -27.5q4 -44 1 -100h312v-216zM418 -335q-48 0 -78 29 t-30 76q0 52 37.5 88t90.5 36q49 0 80 -29.5t31 -74.5q0 -53 -37.5 -89t-93.5 -36zM719 -335q-49 0 -78 30q-30 29 -30 75q0 52 37 88t90 36q49 0 80.5 -29.5t31.5 -74.5q0 -53 -37.5 -89t-93.5 -36zM548 -585q-48 0 -78 29t-30 76q0 52 37.5 88t90.5 36q49 0 80 -29.5 t31 -74.5q0 -53 -37.5 -89t-93.5 -36z" />
<glyph unicode="&#x698;" horiz-adv-x="836" arabic-form="final" d="M447 1227q-48 0 -78 29t-30 76q0 52 37.5 88t90.5 36q49 0 80 -29.5t31 -74.5q0 -53 -37.5 -89t-93.5 -36zM277 987q-48 0 -78 29t-30 76q0 52 37.5 88t90.5 36q49 0 80 -29.5t31 -74.5q0 -53 -37.5 -89t-93.5 -36zM578 987q-50 0 -78 30q-30 29 -30 75q0 52 37 88t90 36 q49 0 80.5 -29.5t31.5 -74.5q0 -53 -37.5 -89t-93.5 -36zM856 0h-199q-63 0 -101 24q0 -53 -2 -92t-10 -84.5t-22 -77.5t-39 -63.5t-59.5 -50.5t-85.5 -30.5t-115 -11.5q-75 0 -129 38.5t-54 89.5q0 52 54 123q40 -37 89 -37q66 0 94.5 54.5t28.5 179.5q0 42 -2 112 q1 6 1 75q0 41 -6 246q-4 183 -4 229q0 57 33.5 93t89.5 36q105 0 169 -64q-31 -49 -31 -193q0 -258 1 -380h299v-216z" />
<glyph unicode="&#x6af;" horiz-adv-x="1482" arabic-form="final" d="M1502 0h-122q-85 0 -124 59q-50 -59 -151 -59h-701q-193 14 -276 86.5t-88 234.5q-6 150 62 266t161 116q64 0 105 -98q-61 -24 -85.5 -100t-3.5 -161q17 -68 66 -96.5t145 -31.5h481q44 0 62 28.5t18 95.5q0 88 -4 468l-5 451q0 55 33 88t90 33q98 0 168 -56 q-30 -50 -30 -193l3 -783v-7q0 -54 25 -89t55 -36h116v-216zM554 1154q-18 10 -23 29.5t15 29.5l121 53q111 49 121 54q25 9 35 19q18 -11 23 -30t-16 -29l-121 -53q-33 -14 -64 -28t-43.5 -20t-14.5 -6q-26 -9 -33 -19zM500 812h58q-31 43 -31 95q0 66 49 106.5t130 40.5 q78 0 117 -39q12 -12 17 -36.5t-6.5 -47t-42.5 -22.5q-39 0 -61 15q8 0 13.5 12.5t2.5 27.5v2q-20 6 -36 6q-33 0 -55 -22t-22 -56q0 -32 19.5 -54t50.5 -28h113q52 -3 52 -40q0 -42 -20 -68q-14 12 -32 14h-317q-21 2 -35 18t-14 35q0 28 20 54q13 -11 30 -13z" />
<glyph unicode="&#x6af;" horiz-adv-x="1236" arabic-form="initial" d="M264 1161q-19 8 -27 26.5t10 30.5l111 72q100 65 111 73q21 10 32 24q19 -9 27 -26t-11 -31l-111 -72q-31 -20 -59 -38t-40 -26t-13 -9q-25 -12 -30 -24zM1193 300q13 -126 -25 -196q-36 -67 -87 -85.5t-182 -18.5h-919v216h809q-16 6 -299 217q-254 191 -366 191 q-75 64 -81 133q-6 68 41.5 119t166.5 112q552 281 593 398q121 -99 128 -184q3 -32 0.5 -48.5t-22.5 -35.5t-48.5 -35t-93.5 -49q-32 -16 -51 -26l-374 -189q86 -45 451 -333q143 -112 228 -158t131 -28z" />
<glyph unicode="&#x6af;" horiz-adv-x="1470" arabic-form="medial" d="M1490 0h-206q-102 2 -136 72q-33 -46 -82.5 -59t-166.5 -13h-919v216h809q-17 6 -298 217q-254 191 -367 191q-73 64 -81 133q-6 68 41.5 119t167.5 112q550 280 593 398q120 -99 127 -184q7 -66 -54 -109q-36 -24 -352 -182l-182 -92q82 -43 450 -333q143 -112 228 -158 t131 -28q4 -35 1 -84h296v-216zM199 1087q-19 9 -25.5 28t12.5 30q2 1 116 63l117 63q22 11 33 22q18 -10 25 -28.5t-13 -29.5q-1 0 -13.5 -7t-42.5 -23t-61 -33q-31 -16 -61 -33t-42 -23.5t-14 -6.5q-26 -12 -31 -22z" />
<glyph unicode="&#x6cc;" horiz-adv-x="1760" arabic-form="final" d="M1780 0h-201q-201 0 -201 220v69q1 58 3 85q-1 99 -1 160q0 44 -28 62t-95 18h-4q26 -190 -30.5 -330t-180.5 -219q-109 -71 -253.5 -85.5t-280.5 28.5q-118 37 -202 83.5t-145.5 112.5t-91 155.5t-29.5 206.5q0 97 23.5 141.5t76.5 44.5q52 0 144 -56q-40 -71 -34 -130 q18 -168 138.5 -267.5t278.5 -96.5q160 3 257 111.5t79 293.5q-72 -2 -73 -2q-56 0 -88.5 33t-32.5 90q0 65 56 136q49 -31 193 -31l175 2q95 1 159 1q220 0 220 -201v-299q0 -72 12.5 -96t55.5 -24h100v-216z" />
<glyph unicode="&#xfc5e;" arabic-form="isolated" d="M141 272v-6q0 -24 -12 -42q-8 7 -40 7h-101q-73 1 -85 6q-42 19 -42 75q0 7 1 11q3 22 -15.5 32.5t-38.5 9.5q-6 40 24 40q16 2 32 -7q50 -27 45 -72v-3q0 -28 39 -30v6q2 71 42 99q17 13 42 13q52 0 81.5 -38t27.5 -101zM32 354q-39 0 -35 -61h104q-5 22 -27.5 41.5 t-41.5 19.5zM156 192q17 0 36 -13q-9 -13 -9 -60v-27l2 -23q0 -39 -33 -56.5t-71.5 -10.5t-56.5 31q-22 -33 -105 -33q-69 0 -69 66v50q0 48 -9 60q20 15 35 15q34 0 34 -32q0 -13 -1 -28v-33q0 -36 30 -41q17 -3 33 6.5t16 26.5v8q0 17 -1 27q0 3 -0.5 7t-1 6.5t-0.5 5v3.5 q0 32 35 32q15 0 34 -15q-9 -12 -9 -45v-11q2 -8 2 -19q0 -17 19 -24q12 -3 25.5 -4.5t24 8.5t10.5 30q0 18 -1 33q-3 23 -3 29q0 31 34 31z" />
<glyph unicode="&#xfc5f;" arabic-form="isolated" d="M129 417q14 0 33 -13q-9 -12 -9 -54v-26l2 -21q0 -36 -30 -52t-65.5 -9t-51.5 30q-21 -32 -98 -32q-63 0 -63 60v47q0 43 -9 55q19 14 33 14q32 0 32 -29l-2 -27q0 -3 -0.5 -14t-0.5 -15t1 -12.5t4 -12.5t8.5 -8t14.5 -5q17 -3 32 5.5t13 24.5l2 -2v9q0 10 -3 24 q-2 20 -2 21q0 29 32 29q15 0 33 -12q-9 -12 -9 -44q0 -6 1 -9v-18q1 -15 20 -21q15 -9 34.5 -2t19.5 34q0 2 -2 30q-1 14 -1 25q0 30 31 30zM-141 98q10 6 41 4h114q71 -1 111 -1q23 -2 26 21.5t-11 38.5q-10 -6 -39 -6q-33 3 -227 3q-25 0 -25 -26q0 -20 10 -34zM-141 0 q11 6 41 5l114 -2h111q23 -1 26 22t-11 38q-10 -6 -39 -6l-114 2q-71 1 -113 1q-25 0 -25 -25q0 -22 10 -35z" />
<glyph unicode="&#xfc60;" arabic-form="isolated" d="M-149 257q11 6 42 6l121 -2q76 -1 119 -1q25 0 27.5 24t-11.5 40q-11 -8 -42 -6q-217 0 -241 3q-24 0 -26.5 -24.5t11.5 -39.5zM137 188q15 0 35 -14q-9 -14 -9 -58v-27q1 -12 1 -23q0 -38 -31.5 -55t-69.5 -10t-55 31q-15 -22 -56 -31t-78 7.5t-37 56.5v48q0 46 -9 58 q20 15 35 15q33 0 33 -31v-27q-2 -30 -2 -33q0 -34 29 -39q17 -3 33 5.5t16 25.5v8q0 16 -1 27q-2 20 -2 21q0 31 33 31q16 0 35 -13q-9 -13 -9 -47v-9q1 -4 1 -19q0 -17 20 -23q16 -9 37 -2t21 35q0 18 -1 33q0 3 -1.5 11.5t-1.5 12.5v10.5t2 10t5.5 7.5t10.5 5.5t16 1.5z " />
<glyph unicode="&#xfc61;" arabic-form="isolated" d="M-56 321v6q-1 69 41 99q19 13 42 14q55 1 87.5 -36.5t32.5 -103.5q0 -21 -11 -40q-19 10 -87 4h-18q-23 -1 -37 -1h-6q-39 -1 -64.5 0t-41 8.5t-22.5 23t-7 43.5q0 18 9 31q14 25 49 2q-9 -11 -9 -23q3 -27 42 -27zM73 366q-18 14 -36.5 18t-32 -10t-9.5 -51q95 4 108 4 q-6 21 -30 39zM148 204q16 0 39 -15q-10 -13 -10 -63q0 -17 1 -30v-24q0 -41 -34.5 -59.5t-75.5 -11t-59 33.5q-18 -24 -62.5 -33.5t-84 7.5t-39.5 60v54q0 49 -11 63q23 17 38 17q37 0 37 -35q0 -14 -1 -30q-2 -32 -2 -34q0 -39 32 -44q20 -3 37 6.5t17 28.5v9q0 6 -2 28 q-3 16 -3 23q0 34 38 34q16 0 37 -15q-10 -13 -10 -49q0 -7 1 -11v-21q1 -17 23 -25q12 -3 26 -4t25.5 9.5t11.5 31.5q0 11 -3 35l-2 30q0 34 36 34z" />
<glyph unicode="&#xfc62;" arabic-form="isolated" d="M129 320q13 0 33 -14q-9 -12 -9 -54v-25l2 -21q0 -36 -30 -52t-65.5 -9t-51.5 29q-21 -31 -98 -31q-63 0 -63 60v46q0 44 -9 56q17 13 33 13q32 0 32 -28l-2 -27q0 -3 -0.5 -13.5t-0.5 -15t1 -13t4 -12.5t8.5 -8t14.5 -6q16 -3 31.5 6t13.5 24l2 -1v9q0 11 -3 24 q-2 20 -2 21q0 28 32 28q15 0 33 -12q-9 -12 -9 -43q0 -6 1 -9v-18q1 -15 20 -21q15 -9 34.5 -2.5t19.5 33.5q0 2 -2 30q-1 14 -1 26q0 30 31 30zM-141 0q11 6 41 5h114l111 -2q23 -1 26 22t-11 38q-10 -6 -39 -6q-11 3 -227 3q-25 0 -25 -25q0 -21 10 -35z" />
<glyph unicode="&#xfc63;" arabic-form="isolated" d="M8 226q11 -2 23 10q-2 4 5 135q3 27 -25.5 31t-46.5 -11q22 -17 13 -134q0 -31 31 -31zM148 202q16 1 38 -15q-10 -11 -10 -62q0 -2 0.5 -11.5t0.5 -16.5v-25q3 -66 -70 -72q-70 -4 -97 35q-18 -25 -63 -34t-84 8t-39 60v53q0 50 -10 63q22 16 37 16q31 0 36.5 -20 t-0.5 -43q-1 -16 -1 -35q0 -34 24.5 -42t40.5 3q19 12 19 30v9q0 17 -2 28t-2 23q0 33 38 33q17 0 37 -14q-10 -11 -10 -50v-9q0 -2 2 -20q0 -20 20 -26q18 -10 40.5 -2.5t22.5 38.5q0 20 -1 35q0 4 -1.5 15t-2 15.5t0.5 12.5t5 11t11.5 6t19.5 3z" />
<glyph unicode="&#x622;" horiz-adv-x="626" arabic-form="final" d="M413 1506q-21 -9 -37 -12t-45 6t-45 16.5t-73 33.5q-53 27 -83 15t-41 -77q-54 29 -61 48q-12 32 4 80.5t52 62.5q25 10 44 13t48.5 -6t46 -16.5t67.5 -32.5q50 -27 79.5 -15t43.5 78q53 -29 62 -49q12 -29 -7 -79.5t-55 -65.5zM666 0h-355q-203 0 -203 222q0 97 2 577 l-6 471q0 56 33.5 89t90.5 33q100 0 170 -57q-30 -49 -30 -194v-400l-2 -401q0 -65 17 -94q19 -30 65 -30h218v-216z" />
<glyph unicode="&#x623;" horiz-adv-x="622" arabic-form="final" d="M407 1488h-318q-22 2 -35.5 18t-13.5 36q0 28 20 54q13 -11 30 -13h59q-32 44 -32 95q0 66 49.5 107t130.5 41q78 0 117 -39q12 -13 17 -37.5t-6.5 -47t-42.5 -22.5q-38 0 -61 15q9 0 14 12t1 29v1q-19 6 -35 6q-34 0 -55.5 -21.5t-21.5 -56.5q0 -70 70 -82h113 q52 -3 52 -40q0 -42 -20 -68q-14 13 -32 13zM662 0h-352q-202 0 -202 221q0 336 1 575l-5 467q0 56 33 89t90 33q98 0 169 -56q-30 -49 -30 -194q0 -142 -1 -397q-1 -256 -1 -399q0 -66 18 -94.5t63 -28.5h217v-216z" />
<glyph unicode="&#x624;" horiz-adv-x="1029" arabic-form="final" d="M669 999h-317q-21 2 -35 18.5t-14 35.5q0 28 20 54q12 -12 30 -14h59q-31 43 -31 94q0 67 48.5 107.5t129.5 40.5q77 0 116 -39q8 -8 13 -25.5t5 -35.5t-12.5 -31.5t-36.5 -13.5q-38 0 -61 15q9 0 14 12t1 28v2q-18 6 -34 6q-34 0 -56 -22t-22 -56q0 -70 71 -82h112 q51 -3 51 -39q0 -44 -19 -69q-16 14 -32 14zM1049 0h-270q-1 -142 -26 -202q-78 -183 -307 -183q-75 0 -129 38t-54 89q0 52 54 123q41 -38 88 -38q31 0 53.5 12t34.5 28t19.5 43t9.5 45t4 46h-25q-291 6 -408 184q-53 83 -53 184q0 102 44 206t119 163q161 133 436 122 q98 0 168 -52q-31 -46 -31 -180q0 -41 2 -185q0 -38 1 -77q1 -84 1 -150h269v-216zM275 371q0 -80 64 -120q68 -36 188 -35q0 62 -0.5 121t-0.5 103.5v84t-0.5 66.5t-0.5 46.5v29.5v10q-91 -21 -170.5 -120.5t-79.5 -185.5z" />
<glyph unicode="&#x625;" horiz-adv-x="625" arabic-form="final" d="M665 0h-354q-203 0 -203 222q0 97 2 577l-6 471q0 56 33 89t91 33q100 0 170 -57q-30 -49 -30 -194l-2 -400q-1 -258 -1 -401q0 -65 17 -94q20 -30 65 -30h218v-216zM324 -342h114q52 -3 52 -41q0 -42 -21 -69q-14 14 -31 14h-321v1q-21 1 -35 17.5t-14 35.5q0 28 20 56 q12 -12 30 -14h59q-31 43 -31 95q0 66 48 108q50 41 133 41q78 0 117 -39q12 -13 17 -38t-6.5 -47.5t-42.5 -22.5q-39 0 -61 16q9 0 14 13t1 28v1q-20 6 -36 6q-34 0 -55.5 -22t-21.5 -56q0 -71 71 -83z" />
<glyph unicode="&#x626;" horiz-adv-x="1760" arabic-form="final" d="M341 894h-317q-21 1 -34.5 17t-13.5 36q0 28 20 54q12 -12 30 -14h58q-31 43 -31 94q0 67 49 107.5t130 40.5q77 0 116 -39q12 -13 17 -37.5t-6.5 -46.5t-42.5 -22q-38 0 -60 15q8 0 13 12.5t2 27.5v2q-19 6 -35 6q-34 0 -55.5 -22t-21.5 -56q0 -32 19 -54t51 -28h112 q51 -3 51 -39q0 -43 -19 -68q-14 12 -32 14zM1780 0h-201q-201 0 -201 220v69q1 58 3 85q-1 99 -1 160q0 44 -28 62t-95 18h-4q26 -190 -30.5 -330t-180.5 -219q-109 -71 -253.5 -85.5t-280.5 28.5q-118 37 -202 83.5t-145.5 112.5t-91 155.5t-29.5 206.5q0 97 23.5 141.5 t76.5 44.5q52 0 144 -56q-40 -71 -34 -130q18 -168 138.5 -267.5t278.5 -96.5q160 3 257 111.5t79 293.5q-72 -2 -73 -2q-56 0 -88.5 33t-32.5 90q0 65 56 136q49 -31 193 -31l175 2q95 1 159 1q220 0 220 -201v-299q0 -72 12.5 -96t55.5 -24h100v-216z" />
<glyph unicode="&#x626;" horiz-adv-x="569" arabic-form="initial" d="M371 1086h113q51 -2 51 -39q0 -43 -20 -69q-13 13 -31 15h-317q-21 1 -34.5 17t-13.5 36q0 28 20 54q12 -12 30 -14h58q-31 43 -31 94q0 66 48.5 106.5t129.5 40.5q76 0 116 -38q12 -13 17 -37.5t-6 -46.5t-42 -22q-39 0 -61 15q8 0 13 12t3 28v2q-19 6 -35 6 q-34 0 -55.5 -22t-21.5 -57q0 -31 18 -54q20 -21 51 -27zM-20 216h186q45 0 63 28.5t18 95.5q0 22 -5 207t-5 189q0 56 33 88.5t90 32.5q98 0 169 -56q-30 -49 -30 -193l2 -202q1 -113 1 -186q0 -220 -201 -220h-321v216z" />
<glyph unicode="&#x626;" horiz-adv-x="825" arabic-form="medial" d="M483 993h-316q-21 1 -34.5 17t-13.5 36q0 28 20 54q12 -12 29 -14h59q-31 43 -31 94q0 66 49 106.5t130 40.5q77 0 115 -38q8 -9 13 -26.5t5 -35t-12.5 -31t-36.5 -13.5q-39 0 -61 15q9 0 14 12t1 28v2q-20 6 -35 6q-34 0 -54 -23q-22 -21 -22 -56q0 -31 19 -53t50 -28 h112q52 -1 52 -39q0 -43 -20 -69q-13 13 -32 15zM845 0h-284q-89 0 -128 57q-53 -57 -152 -57h-301v216h166q45 0 63 28.5t18 95.5q0 22 -5 207q-4 148 -4 189q0 56 32.5 88.5t89.5 32.5q98 0 169 -56q-30 -49 -30 -193l3 -276q2 -51 26 -83.5t53 -32.5h284v-216z" />
<glyph unicode="&#x627;" horiz-adv-x="622" arabic-form="final" d="M662 0h-352q-202 0 -202 221q0 336 1 575l-5 467q0 56 33 89t90 33q98 0 169 -56q-30 -49 -30 -194q0 -142 -1 -397q-1 -256 -1 -399q0 -66 18 -94.5t63 -28.5h217v-216z" />
<glyph unicode="&#x628;" horiz-adv-x="1557" arabic-form="final" d="M1577 0h-274q-83 2 -123 57q-51 -57 -152 -57h-536q-243 0 -344.5 71.5t-107.5 250.5q-6 150 62.5 266.5t161.5 116.5q64 0 106 -98q-62 -26 -86.5 -101.5t-3.5 -160.5q17 -68 66.5 -97t145.5 -29h401q45 0 63.5 28.5t18.5 94.5q0 24 -5 207q-5 185 -5 188q0 57 33 89.5 t91 32.5q97 0 168 -56q-30 -49 -30 -193l3 -277q2 -51 26.5 -83.5t53.5 -33.5h267v-216zM648 -112q49 0 80.5 -30t31.5 -75q0 -53 -38 -89t-94 -36q-48 0 -78 29t-30 76q0 52 37.5 88.5t90.5 36.5z" />
<glyph unicode="&#x628;" horiz-adv-x="550" arabic-form="initial" d="M510 803q-30 -49 -30 -193l2 -203q0 -49 0.5 -94t1 -66.5t0.5 -25.5q0 -221 -202 -221h-302v216h167q45 1 63 29.5t18 94.5q0 23 -5 208t-5 189q0 57 33 89.5t91 32.5q97 0 168 -56zM270 -112q48 0 79.5 -30t31.5 -75q0 -53 -37.5 -89t-93.5 -36q-49 0 -78.5 29t-29.5 76 q0 52 37 88.5t91 36.5z" />
<glyph unicode="&#x628;" horiz-adv-x="659" arabic-form="medial" d="M679 0h-124q-82 1 -121 57q-52 -57 -152 -57h-302v216h167q44 1 62 29.5t18 94.5q0 60 -4 208q-5 185 -5 189q0 57 33 89.5t90 32.5q99 0 170 -56q-31 -49 -31 -193l3 -277q2 -51 26.5 -83.5t53.5 -33.5h116v-216zM337 -112q48 0 79.5 -30t31.5 -75q0 -53 -37.5 -89 t-93.5 -36q-48 0 -78 29t-30 76q0 52 37.5 88.5t90.5 36.5z" />
<glyph unicode="&#x629;" horiz-adv-x="961" arabic-form="final" d="M381 991q-48 0 -78 29.5t-30 76.5q0 53 37 89t91 36q48 0 80 -30t32 -74q0 -54 -37.5 -90.5t-94.5 -36.5zM684 991q-49 0 -79 29.5t-30 76.5q0 53 37 89t91 36q48 0 80 -30t32 -74q0 -54 -37.5 -90.5t-93.5 -36.5zM981 0h-117q-100 2 -137 69q-72 -69 -195 -69h-96 q-188 0 -295 110.5t-101 267.5q3 103 45.5 199.5t117.5 156.5q72 61 190 95t249 30q98 0 169 -53q-30 -48 -30 -185l2 -270q1 -3 1 -9q0 -55 25 -90t55 -36h117v-216zM447 216q42 0 61.5 25.5t19.5 64.5l-9 366q-92 -22 -167.5 -113.5t-75.5 -178.5q0 -164 171 -164z" />
<glyph unicode="&#x62a;" horiz-adv-x="1558" arabic-form="final" d="M498 990q-48 0 -78 29t-30 76q0 52 37 88.5t91 36.5q48 0 79.5 -30t31.5 -75q0 -53 -37.5 -89t-93.5 -36zM799 990q-47 0 -77 29t-30 76q0 52 37 88.5t90 36.5q49 0 80.5 -30t31.5 -75q0 -53 -37.5 -89t-94.5 -36zM1578 0h-267q-90 0 -129 56q-53 -56 -152 -56h-536 q-244 0 -345.5 71t-108.5 250q-5 151 63.5 267t161.5 116q64 0 106 -98q-61 -24 -85.5 -100.5t-3.5 -163.5q17 -69 66 -97.5t146 -28.5h401q45 0 63 28.5t18 97.5q0 22 -5 207t-5 188q0 56 33 89t91 33q98 0 169 -56q-31 -49 -31 -194l3 -276q2 -52 26.5 -84t53.5 -33h267 v-216z" />
<glyph unicode="&#x62a;" horiz-adv-x="676" arabic-form="initial" d="M203 990q-48 0 -78 29t-30 76q0 52 37 88.5t91 36.5q48 0 79.5 -30t31.5 -75q0 -53 -37.5 -89t-93.5 -36zM525 1220q48 0 79.5 -30t31.5 -75q0 -53 -37.5 -89t-93.5 -36q-48 0 -78 29t-30 76q0 52 37 88.5t91 36.5zM342 859q98 0 169 -56q-30 -49 -30 -194l2 -203 q1 -113 1 -186q0 -220 -202 -220h-302v216h167q45 0 63 28.5t18 95.5q0 22 -5 207q-4 149 -4 190q0 56 33 89t90 33z" />
<glyph unicode="&#x62a;" horiz-adv-x="659" arabic-form="medial" d="M202 990q-48 0 -78 29t-30 76q0 52 37.5 88.5t90.5 36.5q49 0 80.5 -30t31.5 -75q0 -53 -37.5 -89t-94.5 -36zM504 990q-48 0 -78 29t-30 76q0 52 37.5 88.5t90.5 36.5q48 0 79.5 -30t31.5 -75q0 -53 -37.5 -89t-93.5 -36zM679 0h-116q-89 0 -130 56q-51 -56 -151 -56 h-302v216h167q44 0 62 28.5t18 95.5q0 59 -4 207q-5 187 -5 190q0 56 33 89t91 33q98 0 169 -56q-31 -49 -31 -194l3 -276q2 -52 26.5 -84t53.5 -33h116v-216z" />
<glyph unicode="&#x62b;" horiz-adv-x="1558" arabic-form="final" d="M663 1265q-48 0 -77.5 29.5t-29.5 75.5q0 52 37 88t90 36q48 0 80 -30t32 -74q0 -53 -38 -89t-94 -36zM498 990q-48 0 -78 29t-30 76q0 52 37.5 88.5t90.5 36.5q49 0 80.5 -30t31.5 -75q0 -53 -37.5 -89t-94.5 -36zM800 990q-48 0 -78 29t-30 76q0 52 37.5 88.5 t90.5 36.5q49 0 80 -31q32 -29 32 -74q0 -53 -38 -89t-94 -36zM1578 0h-267q-90 0 -129 56q-53 -56 -152 -56h-536q-244 0 -345.5 71t-108.5 250q-5 151 63.5 267t161.5 116q64 0 106 -98q-61 -24 -85.5 -100.5t-3.5 -163.5q17 -69 66 -97.5t146 -28.5h401q45 0 63 28.5 t18 97.5q0 22 -5 207t-5 188q0 56 33 89t91 33q98 0 169 -56q-31 -49 -31 -194l3 -276q2 -52 26.5 -84t53.5 -33h267v-216z" />
<glyph unicode="&#x62b;" horiz-adv-x="676" arabic-form="initial" d="M368 1265q-48 0 -77.5 29.5t-29.5 75.5q0 52 37 88t90 36q48 0 80 -30t32 -74q0 -53 -38 -89t-94 -36zM203 990q-48 0 -78 29t-30 76q0 52 37.5 88.5t90.5 36.5q49 0 80.5 -30t31.5 -75q0 -53 -37.5 -89t-94.5 -36zM505 990q-48 0 -78 29t-30 76q0 52 37.5 88.5 t90.5 36.5q49 0 80 -31q32 -29 32 -74q0 -53 -38 -89t-94 -36zM342 859q98 0 169 -56q-30 -49 -30 -194l2 -203q1 -113 1 -186q0 -220 -202 -220h-302v216h167q45 0 63 28.5t18 95.5q0 22 -5 207q-4 149 -4 190q0 56 33 89t90 33z" />
<glyph unicode="&#x62b;" horiz-adv-x="659" arabic-form="medial" d="M367 1265q-48 0 -77.5 29.5t-29.5 75.5q0 52 37 88t90 36q48 0 80 -30t32 -74q0 -53 -38 -89t-94 -36zM202 990q-48 0 -78 29t-30 76q0 52 37.5 88.5t90.5 36.5q49 0 80.5 -30t31.5 -75q0 -53 -37.5 -89t-94.5 -36zM504 990q-48 0 -78 29t-30 76q0 52 37.5 88.5 t90.5 36.5q49 0 80 -31q32 -29 32 -74q0 -53 -38 -89t-94 -36zM679 0h-116q-89 0 -130 56q-51 -56 -151 -56h-302v216h167q44 0 62 28.5t18 95.5q0 59 -4 207q-5 187 -5 190q0 56 33 89t91 33q98 0 169 -56q-31 -49 -31 -194l3 -276q2 -52 26.5 -84t53.5 -33h116v-216z" />
<glyph unicode="&#x62c;" horiz-adv-x="1436" arabic-form="final" d="M1456 0h-200q-118 0 -149 85q-34 -54 -84.5 -69.5t-173.5 -15.5h-226q-142 -1 -219.5 -59.5t-77.5 -157.5t67 -161.5t174 -62.5q69 0 130 34q56 -94 56 -144q0 -53 -44.5 -77t-140.5 -24q-144 0 -265 61t-192 169.5t-71 239.5q0 159 107 266t291 132h267 q-104 37 -315.5 173.5t-245.5 201.5q-28 52 -9 107q21 61 78 105.5t124 47.5q0 -61 96 -160t244 -198q149 -99 278.5 -149.5t187.5 -27.5q5 -47 0 -100h313v-216zM506 -230q0 52 37 88t91 36q48 0 79 -29.5t31 -74.5q0 -53 -37.5 -89t-92.5 -36q-49 0 -78.5 29t-29.5 76z " />
<glyph unicode="&#x62c;" horiz-adv-x="1207" arabic-form="initial" d="M1164 316q12 -144 -25 -212q-36 -67 -87 -85.5t-182 -18.5h-890v216h746q-104 36 -315 173t-247 202q-26 53 -8 107q21 61 78 105.5t124 47.5q0 -61 96 -160t244 -198q150 -99 279 -149.5t187 -27.5zM437 -106q48 0 80 -30t32 -74q0 -53 -37.5 -89t-94.5 -36 q-48 0 -77.5 29t-29.5 76q0 52 37 88t90 36z" />
<glyph unicode="&#x62c;" horiz-adv-x="1457" arabic-form="medial" d="M1477 0h-199q-117 2 -150 85q-34 -54 -84 -69.5t-173 -15.5h-891v216h747q-95 33 -297 162q-227 142 -265 213q-27 52 -9 107q21 61 78.5 105.5t123.5 47.5q0 -61 96 -160t244 -198q149 -99 278.5 -149.5t187.5 -27.5q4 -44 1 -100h312v-216zM406 -106q48 0 79.5 -30 t31.5 -74q0 -53 -37.5 -89t-93.5 -36q-48 0 -78 29t-30 76q0 52 37 88t91 36z" />
<glyph unicode="&#x62d;" horiz-adv-x="1436" arabic-form="final" d="M1456 0h-200q-118 0 -149 85q-34 -54 -84.5 -69.5t-173.5 -15.5h-226q-142 -1 -219.5 -59.5t-77.5 -157.5t67 -161.5t174 -62.5q69 0 130 34q56 -94 56 -144q0 -53 -44.5 -77t-140.5 -24q-144 0 -265 61t-192 169.5t-71 239.5q0 159 107 266t291 132h267 q-104 37 -315.5 173.5t-245.5 201.5q-28 52 -9 107q21 61 78 105.5t124 47.5q0 -61 96 -160t244 -198q149 -99 278.5 -149.5t187.5 -27.5q5 -47 0 -100h313v-216z" />
<glyph unicode="&#x62d;" horiz-adv-x="1207" arabic-form="initial" d="M1164 316q12 -144 -25 -212q-36 -67 -87 -85.5t-182 -18.5h-890v216h746q-104 36 -315 173t-247 202q-26 53 -8 107q21 61 78 105.5t124 47.5q0 -61 96 -160t244 -198q150 -99 279 -149.5t187 -27.5z" />
<glyph unicode="&#x62d;" horiz-adv-x="1457" arabic-form="medial" d="M1477 0h-199q-117 2 -150 85q-34 -54 -84 -69.5t-173 -15.5h-891v216h747q-95 33 -297 162q-227 142 -265 213q-27 52 -9 107q21 61 78.5 105.5t123.5 47.5q0 -61 96 -160t244 -198q149 -99 278.5 -149.5t187.5 -27.5q4 -44 1 -100h312v-216z" />
<glyph unicode="&#x62e;" horiz-adv-x="1436" arabic-form="final" d="M829 738q-48 0 -77.5 29.5t-29.5 76.5q0 52 37 88t90 36q48 0 80 -30t32 -74q0 -53 -38 -89.5t-94 -36.5zM1456 0h-200q-118 0 -149 85q-34 -54 -84.5 -69.5t-173.5 -15.5h-226q-142 -1 -219.5 -59.5t-77.5 -157.5t67 -161.5t174 -62.5q69 0 130 34q56 -94 56 -144 q0 -53 -44.5 -77t-140.5 -24q-144 0 -265 61t-192 169.5t-71 239.5q0 159 107 266t291 132h267q-104 37 -315.5 173.5t-245.5 201.5q-28 52 -9 107q21 61 78 105.5t124 47.5q0 -61 96 -160t244 -198q149 -99 278.5 -149.5t187.5 -27.5q5 -47 0 -100h313v-216z" />
<glyph unicode="&#x62e;" horiz-adv-x="1207" arabic-form="initial" d="M834 738q-48 0 -78 29.5t-30 76.5q0 52 37 88t91 36q48 0 79.5 -29.5t31.5 -74.5q0 -53 -37.5 -89.5t-93.5 -36.5zM1164 316q12 -144 -25 -212q-36 -67 -87 -85.5t-182 -18.5h-890v216h746q-104 36 -315 173t-247 202q-26 53 -8 107q21 61 78 105.5t124 47.5 q0 -61 96 -160t244 -198q150 -99 279 -149.5t187 -27.5z" />
<glyph unicode="&#x62e;" horiz-adv-x="1457" arabic-form="medial" d="M850 738q-48 0 -78 29.5t-30 76.5q0 52 37 88t91 36q48 0 79.5 -30t31.5 -74q0 -53 -37.5 -89.5t-93.5 -36.5zM1477 0h-199q-117 2 -150 85q-34 -54 -84 -69.5t-173 -15.5h-891v216h747q-95 33 -297 162q-227 142 -265 213q-27 52 -9 107q21 61 78.5 105.5t123.5 47.5 q0 -61 96 -160t244 -198q149 -99 278.5 -149.5t187.5 -27.5q4 -44 1 -100h312v-216z" />
<glyph unicode="&#x62f;" horiz-adv-x="1055" arabic-form="final" d="M1075 0h-122q-92 1 -130 69q-55 -69 -143 -69h-501q-139 6 -139 104q0 80 54 149q38 -35 85 -37h383q45 0 63 28t18 95v43q-2 94 -87 159.5t-198 65.5q-82 0 -150 -34q-67 114 -56 186q9 54 52 77.5t133 23.5q150 0 275 -57t197 -155t72 -216v-112q5 -46 28.5 -75 t49.5 -29h116v-216z" />
<glyph unicode="&#x630;" horiz-adv-x="1055" arabic-form="final" d="M374 977q-48 0 -78 29.5t-30 75.5q0 52 37 88t90 36q49 0 80 -29.5t31 -74.5q0 -53 -37.5 -89t-92.5 -36zM1075 0h-122q-92 1 -130 69q-55 -69 -143 -69h-501q-139 6 -139 104q0 80 54 149q38 -35 85 -37h383q45 0 63 28t18 95v43q-2 94 -87 159.5t-198 65.5 q-82 0 -150 -34q-67 114 -56 186q9 54 52 77.5t133 23.5q150 0 275 -57t197 -155t72 -216v-112q5 -46 28.5 -75t49.5 -29h116v-216z" />
<glyph unicode="&#x631;" horiz-adv-x="836" arabic-form="final" d="M856 0h-199q-63 0 -101 24q0 -53 -2 -92t-10 -84.5t-22 -77.5t-39 -63.5t-59.5 -50.5t-85.5 -30.5t-115 -11.5q-75 0 -129 38.5t-54 89.5q0 52 54 123q40 -37 89 -37q66 0 94.5 54.5t28.5 179.5q0 42 -2 112q1 6 1 75q0 41 -6 246q-4 183 -4 229q0 57 33.5 93t89.5 36 q105 0 169 -64q-31 -49 -31 -193q0 -258 1 -380h299v-216z" />
<glyph unicode="&#x632;" horiz-adv-x="836" arabic-form="final" d="M427 979q-47 0 -77 29.5t-30 75.5q0 52 37 88t90 36q48 0 80 -30t32 -74q0 -53 -37.5 -89t-94.5 -36zM856 0h-199q-63 0 -101 24q0 -53 -2 -92t-10 -84.5t-22 -77.5t-39 -63.5t-59.5 -50.5t-85.5 -30.5t-115 -11.5q-75 0 -129 38.5t-54 89.5q0 52 54 123q40 -37 89 -37 q66 0 94.5 54.5t28.5 179.5q0 42 -2 112q1 6 1 75q0 41 -6 246q-4 183 -4 229q0 57 33.5 93t89.5 36q105 0 169 -64q-31 -49 -31 -193q0 -258 1 -380h299v-216z" />
<glyph unicode="&#x633;" horiz-adv-x="1977" arabic-form="final" d="M1997 0h-123q-70 0 -115 66q-51 -66 -157 -66q-192 0 -269 107q-44 -107 -181 -107q-172 0 -249 84q-5 -210 -114 -337.5t-281 -127.5q-131 0 -239 70.5t-168.5 191t-60.5 263.5q0 185 100 185q51 0 143 -56q-33 -61 -33 -130q0 -106 62 -172.5t162 -66.5q175 0 175 301 q0 21 -5 216q-4 156 -4 197q0 56 32.5 88.5t90.5 32.5q97 0 167 -56q-31 -47 -31 -192q0 -140 1 -191l2 5q0 -56 28.5 -72.5t87.5 -16.5q45 0 63 28t18 94q0 40 -6 183q-4 125 -4 164q0 119 106 119q122 0 185 -54q-31 -49 -31 -226q0 -88 2 -220v1q0 -56 28.5 -72.5 t87.5 -16.5q45 0 63 28t18 94q0 21 -5 208q-5 185 -5 189q0 120 106 120q123 0 184 -55q-30 -50 -30 -225l2 -223q2 -6 2 -12q0 -55 24.5 -89.5t55.5 -34.5h115v-216z" />
<glyph unicode="&#x633;" horiz-adv-x="1463" arabic-form="initial" d="M1423 800q-31 -49 -31 -225l2 -185q0 -44 0.5 -84.5t1 -60.5t0.5 -24q0 -221 -201 -221q-191 0 -268 107q-44 -107 -181 -107q-202 0 -278 121q-52 -121 -171 -121h-317v216h182q45 0 63 28t18 94q0 28 -5 150q-4 96 -4 130q0 56 32.5 88.5t89.5 32.5q100 0 168 -56 q-31 -47 -31 -159q0 -2 2 -118l2 -118q8 -52 52 -65q15 -7 63 -7q44 0 62 28t18 94q0 25 -5 183q-4 125 -4 164q0 119 106 119q122 0 184 -54q-31 -49 -31 -175l3 -279q1 -22 8 -37t16.5 -23.5t25.5 -13t30 -5.5t36 -1q45 0 63 28t18 94q0 40 -6 208q-4 148 -4 189 q0 120 106 120q123 0 185 -55z" />
<glyph unicode="&#x633;" horiz-adv-x="1571" arabic-form="medial" d="M1591 0h-116q-78 0 -123 66q-51 -66 -157 -66q-191 0 -269 107q-44 -107 -180 -107q-203 0 -279 121q-54 -121 -171 -121h-316v216h182q45 0 63 28t18 94q0 28 -5 150q-6 108 -6 130q0 56 33.5 88.5t89.5 32.5q100 0 168 -56q-30 -48 -30 -159q0 -60 1 -118l2 -118 q6 -46 33.5 -59t81.5 -13q45 0 62.5 28t17.5 94q0 56 -4 183q-5 157 -5 164q0 119 106 119q123 0 184 -54q-30 -50 -30 -175l3 -279q1 -22 8 -37t16.5 -23.5t25.5 -13t29.5 -5.5t35.5 -1q44 0 62 28t18 94q0 59 -4 208q-5 185 -5 189q0 120 107 120q122 0 183 -55 q-30 -50 -30 -225q0 -34 3 -220q2 -8 2 -15q0 -54 25 -89t54 -35h116v-216z" />
<glyph unicode="&#x634;" horiz-adv-x="1977" arabic-form="final" d="M1227 1256q-48 0 -77 29.5t-29 75.5q0 52 36.5 88t89.5 36q48 0 79.5 -29.5t31.5 -74.5q0 -52 -37.5 -88.5t-93.5 -36.5zM1064 983q-50 0 -78 30q-30 29 -30 75q0 52 37 88t90 36q48 0 79.5 -29.5t31.5 -74.5q0 -53 -37.5 -89t-92.5 -36zM1256 1088q0 52 36.5 88t89.5 36 q48 0 79.5 -29.5t31.5 -74.5q0 -53 -37.5 -89t-92.5 -36q-48 0 -77.5 29t-29.5 76zM1997 0h-123q-70 0 -115 66q-51 -66 -157 -66q-192 0 -269 107q-44 -107 -181 -107q-172 0 -249 84q-5 -210 -114 -337.5t-281 -127.5q-131 0 -239 70.5t-168.5 191t-60.5 263.5 q0 185 100 185q51 0 143 -56q-33 -61 -33 -130q0 -106 62 -172.5t162 -66.5q175 0 175 301q0 21 -5 216q-4 156 -4 197q0 56 32.5 88.5t90.5 32.5q97 0 167 -56q-31 -47 -31 -192q0 -140 1 -191l2 5q0 -56 28.5 -72.5t87.5 -16.5q45 0 63 28t18 94q0 40 -6 183 q-4 125 -4 164q0 119 106 119q122 0 185 -54q-31 -49 -31 -226q0 -88 2 -220v1q0 -56 28.5 -72.5t87.5 -16.5q45 0 63 28t18 94q0 21 -5 208q-5 185 -5 189q0 120 106 120q123 0 184 -55q-30 -50 -30 -225l2 -223q2 -6 2 -12q0 -55 24.5 -89.5t55.5 -34.5h115v-216z" />
<glyph unicode="&#x634;" horiz-adv-x="1463" arabic-form="initial" d="M838 1256q-48 0 -78 29.5t-30 75.5q0 52 37.5 88t90.5 36q48 0 79 -29.5t31 -74.5q0 -52 -37 -88.5t-93 -36.5zM673 983q-47 0 -76.5 29t-29.5 76q0 53 37 87q36 37 90 37q48 0 79 -29.5t31 -74.5q0 -53 -37.5 -89t-93.5 -36zM866 1088q0 52 37 88t90 36q48 0 79.5 -29.5 t31.5 -74.5q0 -53 -37.5 -89t-92.5 -36q-50 0 -78 30q-30 29 -30 75zM1423 800q-31 -49 -31 -225l2 -185q0 -44 0.5 -84.5t1 -60.5t0.5 -24q0 -221 -201 -221q-191 0 -268 107q-44 -107 -181 -107q-202 0 -278 121q-52 -121 -171 -121h-317v216h182q45 0 63 28t18 94 q0 28 -5 150q-4 96 -4 130q0 56 32.5 88.5t89.5 32.5q100 0 168 -56q-31 -47 -31 -159q0 -2 2 -118l2 -118q8 -52 52 -65q15 -7 63 -7q44 0 62 28t18 94q0 25 -5 183q-4 125 -4 164q0 119 106 119q122 0 184 -54q-31 -49 -31 -175l3 -279q1 -22 8 -37t16.5 -23.5t25.5 -13 t30 -5.5t36 -1q45 0 63 28t18 94q0 40 -6 208q-4 148 -4 189q0 120 106 120q123 0 185 -55z" />
<glyph unicode="&#x634;" horiz-adv-x="1571" arabic-form="medial" d="M837 1256q-46 0 -78 29q-29 31 -29 76q0 52 36.5 88t90.5 36q48 0 79.5 -30t31.5 -74q0 -52 -38 -88.5t-93 -36.5zM673 983q-49 0 -77 30q-30 29 -30 75q0 52 37 88t90 36q48 0 79 -29.5t31 -74.5q0 -53 -37 -89t-93 -36zM866 1088q0 53 37 87q36 37 90 37q48 0 79 -29.5 t31 -74.5q0 -53 -37.5 -89t-93.5 -36q-47 0 -76.5 29t-29.5 76zM1591 0h-116q-78 0 -123 66q-51 -66 -157 -66q-191 0 -269 107q-44 -107 -180 -107q-203 0 -279 121q-54 -121 -171 -121h-316v216h182q45 0 63 28t18 94q0 28 -5 150q-6 108 -6 130q0 56 33.5 88.5t89.5 32.5 q100 0 168 -56q-30 -48 -30 -159q0 -60 1 -118l2 -118q6 -46 33.5 -59t81.5 -13q45 0 62.5 28t17.5 94q0 56 -4 183q-5 157 -5 164q0 119 106 119q123 0 184 -54q-30 -50 -30 -175l3 -279q1 -22 8 -37t16.5 -23.5t25.5 -13t29.5 -5.5t35.5 -1q44 0 62 28t18 94q0 59 -4 208 q-5 185 -5 189q0 120 107 120q122 0 183 -55q-30 -50 -30 -225q0 -34 3 -220q2 -8 2 -15q0 -54 25 -89t54 -35h116v-216z" />
<glyph unicode="&#x635;" horiz-adv-x="1980" arabic-form="final" d="M2000 0h-206q-115 0 -145 95q-149 -95 -353 -95h-395q-26 -175 -130.5 -276t-260.5 -101q-131 0 -239.5 70.5t-169.5 191.5t-61 265q0 96 24 140.5t77 44.5q50 0 144 -56q-34 -61 -34 -130q0 -107 62.5 -174t162.5 -67q92 0 134 72t42 226q0 63 -4 238q-5 220 -5 221 q0 55 33 87.5t90 32.5q99 0 169 -55q-17 -29 -28 -146q56 98 147.5 171.5t195.5 93.5q110 22 235 -2.5t193 -83.5q150 -132 150 -366q0 -99 -54 -181h226v-216zM1543 382q8 63 -34.5 118t-114 81t-143.5 12q-57 -11 -114 -50.5t-101.5 -92t-78 -107t-51.5 -103.5v-24h289 q327 0 348 166z" />
<glyph unicode="&#x635;" horiz-adv-x="1385" arabic-form="initial" d="M1195 763q150 -132 150 -366q0 -113 -70 -204.5t-191.5 -142t-270.5 -50.5h-833v216h189q0 70 -4 241q-5 205 -5 208q0 55 33 87.5t90 32.5q99 0 169 -55q-19 -29 -28 -146q53 93 137 164q98 80 206 101q110 22 235 -2.5t193 -83.5zM1060 382q8 63 -34.5 118t-114 81 t-143.5 12q-74 -14 -148.5 -77.5t-122.5 -135.5t-74 -140v-24h289q327 0 348 166z" />
<glyph unicode="&#x635;" horiz-adv-x="1497" arabic-form="medial" d="M1517 0h-206q-115 0 -145 95q-149 -95 -353 -95h-833v216h190l-6 241q-4 164 -4 208q0 55 33 87.5t90 32.5q99 0 169 -55q-18 -30 -27 -146q54 98 145.5 171.5t196.5 93.5q110 22 235 -2.5t193 -83.5q151 -132 151 -366q0 -99 -54 -181h225v-216zM1060 382 q8 63 -34.5 118t-113.5 81t-143 12q-57 -11 -114 -50.5t-101.5 -92t-78 -107t-51.5 -103.5v-24h288q327 0 348 166z" />
<glyph unicode="&#x636;" horiz-adv-x="1980" arabic-form="final" d="M1028 980q-48 0 -78 29t-30 77q0 51 37 87t90 36q49 0 80.5 -29.5t31.5 -74.5q0 -52 -37.5 -88.5t-93.5 -36.5zM2000 0h-206q-115 0 -145 95q-149 -95 -353 -95h-395q-26 -175 -130.5 -276t-260.5 -101q-131 0 -239.5 70.5t-169.5 191.5t-61 265q0 96 24 140.5t77 44.5 q50 0 144 -56q-34 -61 -34 -130q0 -107 62.5 -174t162.5 -67q92 0 134 72t42 226q0 63 -4 238q-5 220 -5 221q0 55 33 87.5t90 32.5q99 0 169 -55q-17 -29 -28 -146q56 98 147.5 171.5t195.5 93.5q110 22 235 -2.5t193 -83.5q150 -132 150 -366q0 -99 -54 -181h226v-216z M1543 382q8 63 -34.5 118t-114 81t-143.5 12q-57 -11 -114 -50.5t-101.5 -92t-78 -107t-51.5 -103.5v-24h289q327 0 348 166z" />
<glyph unicode="&#x636;" horiz-adv-x="1385" arabic-form="initial" d="M545 980q-48 0 -78 29t-30 77q0 51 37 87t91 36q49 0 80.5 -29.5t31.5 -74.5q0 -52 -38 -88.5t-94 -36.5zM1195 763q150 -132 150 -366q0 -113 -70 -204.5t-191.5 -142t-270.5 -50.5h-833v216h189q0 70 -4 241q-5 205 -5 208q0 55 33 87.5t90 32.5q99 0 169 -55 q-19 -29 -28 -146q53 93 137 164q98 80 206 101q110 22 235 -2.5t193 -83.5zM1060 382q8 63 -34.5 118t-114 81t-143.5 12q-74 -14 -148.5 -77.5t-122.5 -135.5t-74 -140v-24h289q327 0 348 166z" />
<glyph unicode="&#x636;" horiz-adv-x="1497" arabic-form="medial" d="M545 980q-48 0 -77.5 29t-29.5 77q0 51 37 87t90 36q49 0 81 -29q30 -30 30 -75q0 -52 -37.5 -88.5t-93.5 -36.5zM1517 0h-206q-115 0 -145 95q-149 -95 -353 -95h-833v216h190l-6 241q-4 164 -4 208q0 55 33 87.5t90 32.5q99 0 169 -55q-18 -30 -27 -146 q54 98 145.5 171.5t196.5 93.5q110 22 235 -2.5t193 -83.5q151 -132 151 -366q0 -99 -54 -181h225v-216zM1060 382q8 63 -34.5 118t-113.5 81t-143 12q-57 -11 -114 -50.5t-101.5 -92t-78 -107t-51.5 -103.5v-24h288q327 0 348 166z" />
<glyph unicode="&#x637;" horiz-adv-x="1674" arabic-form="final" d="M1694 0h-200q-117 0 -149 86q-146 -86 -341 -86h-825q-139 9 -139 108q0 75 53 146q41 -37 86 -38h140q26 0 33 13t7 55q0 25 -5 530l-5 445q0 55 33 88t90 33q102 0 169 -55q-30 -51 -30 -227q0 -298 1 -525q54 99 147 175t200 98q110 21 234.5 -3.5t192.5 -84.5 q151 -130 151 -361q0 -99 -54 -181h211v-216zM1251 381q8 62 -34 116.5t-113.5 80t-143.5 12.5q-60 -12 -121 -55.5t-107 -99t-78.5 -112t-42.5 -98.5v-9h293q326 0 347 165z" />
<glyph unicode="&#x637;" horiz-adv-x="1411" arabic-form="initial" d="M-20 216h175q25 0 32 13t7 55q0 76 -6 530l-4 445q0 55 33 88t90 33q101 0 168 -55q-30 -51 -30 -227q0 -71 2 -525q54 100 146.5 175.5t200.5 97.5q110 21 234.5 -3.5t192.5 -84.5q150 -130 150 -361q0 -173 -154 -287q-154 -110 -377 -110h-860v216zM1086 381 q8 62 -35 116.5t-114 80t-142 12.5q-60 -12 -121.5 -55.5t-107 -99t-77.5 -112t-43 -98.5q-1 -5 -1 -9h293q326 0 348 165z" />
<glyph unicode="&#x637;" horiz-adv-x="1509" arabic-form="medial" d="M1529 0h-206q-111 0 -143 86q-146 -86 -340 -86h-860v216h175q25 0 32 13t7 55q0 25 -5 530l-5 445q0 55 33 88t90 33q102 0 169 -55q-30 -51 -30 -227q0 -298 1 -525q54 99 147 175t200 98q111 21 235 -3.5t192 -84.5q151 -130 151 -361q0 -99 -54 -181h211v-216z M1086 381q8 62 -34 116.5t-113.5 80t-143.5 12.5q-60 -12 -121 -55.5t-107 -99t-78.5 -112t-42.5 -98.5v-9h293q326 0 347 165z" />
<glyph unicode="&#x638;" horiz-adv-x="1674" arabic-form="final" d="M1694 0h-200q-117 0 -149 86q-146 -86 -341 -86h-825q-139 9 -139 108q0 75 53 146q41 -37 86 -38h140q26 0 33 13t7 55q0 25 -5 530l-5 445q0 55 33 88t90 33q102 0 169 -55q-30 -51 -30 -227q0 -298 1 -525q54 99 147 175t200 98q110 21 234.5 -3.5t192.5 -84.5 q151 -130 151 -361q0 -99 -54 -181h211v-216zM957 979q-48 0 -78 29.5t-30 75.5q0 52 37.5 88t90.5 36q48 0 79.5 -29.5t31.5 -74.5q0 -53 -37.5 -89t-93.5 -36zM1251 381q8 62 -34 116.5t-113.5 80t-143.5 12.5q-60 -12 -121 -55.5t-107 -99t-78.5 -112t-42.5 -98.5v-9h293 q326 0 347 165z" />
<glyph unicode="&#x638;" horiz-adv-x="1411" arabic-form="initial" d="M-20 216h175q25 0 32 13t7 55q0 76 -6 530l-4 445q0 55 33 88t90 33q101 0 168 -55q-30 -51 -30 -227q0 -71 2 -525q54 100 146.5 175.5t200.5 97.5q110 21 234.5 -3.5t192.5 -84.5q150 -130 150 -361q0 -173 -154 -287q-154 -110 -377 -110h-860v216zM792 979 q-48 0 -78 29.5t-30 75.5q0 52 37 88t91 36q48 0 79.5 -30t31.5 -74q0 -53 -38 -89t-93 -36zM1086 381q8 62 -35 116.5t-114 80t-142 12.5q-60 -12 -121.5 -55.5t-107 -99t-77.5 -112t-43 -98.5q-1 -5 -1 -9h293q326 0 348 165z" />
<glyph unicode="&#x638;" horiz-adv-x="1509" arabic-form="medial" d="M1529 0h-206q-111 0 -143 86q-146 -86 -340 -86h-860v216h175q25 0 32 13t7 55q0 25 -5 530l-5 445q0 55 33 88t90 33q102 0 169 -55q-30 -51 -30 -227q0 -298 1 -525q54 99 147 175t200 98q111 21 235 -3.5t192 -84.5q151 -130 151 -361q0 -99 -54 -181h211v-216z M792 979q-48 0 -78 29.5t-30 75.5q0 52 37.5 88t90.5 36q48 0 79.5 -29.5t31.5 -74.5q0 -53 -37.5 -89t-93.5 -36zM1086 381q8 62 -34 116.5t-113.5 80t-143.5 12.5q-60 -12 -121 -55.5t-107 -99t-78.5 -112t-42.5 -98.5v-9h293q326 0 347 165z" />
<glyph unicode="&#x639;" horiz-adv-x="1290" arabic-form="final" d="M1330 0l-708 -1q-142 0 -219 -58t-77 -157q0 -100 66.5 -162.5t173.5 -62.5q70 0 129 34q57 -91 57 -143q0 -102 -184 -102q-221 0 -374.5 135.5t-153.5 335.5q0 152 119.5 269.5t286.5 126.5v1h1q-5 10 -75 225q-45 136 -79 170q3 108 48 151q104 104 312 104 q219 0 350.5 -109t131.5 -287q0 -139 -82 -254h277v-216zM531 629v-3q63 -93 150 -406q78 19 123 77t45 138q0 93 -57.5 151.5t-148.5 58.5q-63 0 -112 -16z" />
<glyph unicode="&#x639;" horiz-adv-x="1125" arabic-form="initial" d="M642 216h303q140 -8 140 -107q0 -76 -54 -146q-38 35 -86 37h-965v216h271q-82 115 -82 254q0 178 131.5 287t350.5 109q206 0 312 -104q23 -23 36.5 -69.5t12 -95.5t-35.5 -85t-97 -36q-103 0 -164 41q22 0 35.5 33t5.5 76v3q-49 16 -95 16q-91 0 -149 -58.5t-58 -151.5 q0 -86 51.5 -145t136.5 -74z" />
<glyph unicode="&#x639;" horiz-adv-x="1305" arabic-form="medial" d="M-20 0v216h461l-74 225q-44 134 -80 170q3 108 48 151q104 104 312 104q219 0 350.5 -109t131.5 -287q0 -138 -83 -254h279v-216h-1345zM525 629v-3q65 -93 150 -406q77 19 123 77t46 138q0 93 -58 151.5t-150 58.5q-62 0 -111 -16z" />
<glyph unicode="&#x63a;" horiz-adv-x="1290" arabic-form="final" d="M596 978q-48 0 -78 29.5t-30 76.5q0 52 37 88t90 36q48 0 80 -30t32 -74q0 -53 -37.5 -89.5t-93.5 -36.5zM1330 0l-708 -1q-142 0 -219 -58t-77 -157q0 -100 66.5 -162.5t173.5 -62.5q70 0 129 34q57 -91 57 -143q0 -102 -184 -102q-221 0 -374.5 135.5t-153.5 335.5 q0 152 119.5 269.5t286.5 126.5v1h1q-5 10 -75 225q-45 136 -79 170q3 108 48 151q104 104 312 104q219 0 350.5 -109t131.5 -287q0 -139 -82 -254h277v-216zM531 629v-3q63 -93 150 -406q78 19 123 77t45 138q0 93 -57.5 151.5t-148.5 58.5q-63 0 -112 -16z" />
<glyph unicode="&#x63a;" horiz-adv-x="1125" arabic-form="initial" d="M573 978q-49 0 -78.5 29.5t-29.5 76.5q0 52 37 88t90 36q48 0 79.5 -30t31.5 -74q0 -53 -37.5 -89.5t-92.5 -36.5zM642 216h303q140 -8 140 -107q0 -76 -54 -146q-38 35 -86 37h-965v216h271q-82 115 -82 254q0 178 131.5 287t350.5 109q206 0 312 -104 q23 -23 36.5 -69.5t12 -95.5t-35.5 -85t-97 -36q-103 0 -164 41q22 0 35.5 33t5.5 76v3q-49 16 -95 16q-91 0 -149 -58.5t-58 -151.5q0 -86 51.5 -145t136.5 -74z" />
<glyph unicode="&#x63a;" horiz-adv-x="1305" arabic-form="medial" d="M674 978q-49 0 -78.5 29.5t-29.5 76.5q0 52 37 88t90 36q48 0 79.5 -29.5t31.5 -74.5q0 -53 -37.5 -89.5t-92.5 -36.5zM-20 0v216h461l-74 225q-44 134 -80 170q3 108 48 151q104 104 312 104q219 0 350.5 -109t131.5 -287q0 -138 -83 -254h279v-216h-1345zM525 629v-3 q65 -93 150 -406q77 19 123 77t46 138q0 93 -58 151.5t-150 58.5q-62 0 -111 -16z" />
<glyph unicode="&#x641;" horiz-adv-x="1749" arabic-form="final" d="M1269 979q-47 0 -77 29t-30 76q0 52 37 88t91 36q48 0 79 -29.5t31 -74.5q0 -53 -37.5 -89t-93.5 -36zM1769 0h-117q-90 0 -129 57q-51 -57 -152 -57h-935q-211 8 -300.5 80t-95.5 240q-6 151 62 266.5t161 115.5q64 0 106 -98q-61 -24 -85.5 -100t-3.5 -160 q17 -68 65.5 -97t145.5 -31h394q-53 88 -53 180q0 202 162 343q73 64 190.5 99.5t246.5 30.5q100 0 168 -55q-30 -49 -30 -193l2 -270q2 -6 2 -11q0 -55 24.5 -89.5t54.5 -34.5h117v-216zM1237 216q47 0 63.5 21t16.5 84q0 37 -3 152q-5 175 -5 185q-99 -24 -170.5 -99.5 t-71.5 -160.5q0 -95 40 -138.5t130 -43.5z" />
<glyph unicode="&#x641;" horiz-adv-x="978" arabic-form="initial" d="M608 979q-48 0 -77.5 29t-29.5 76q0 52 36.5 88t90.5 36q48 0 79.5 -29.5t31.5 -74.5q0 -53 -37.5 -89t-93.5 -36zM938 814q-31 -49 -31 -193l2 -209q0 -51 0.5 -97t1 -68.5t0.5 -26.5q0 -220 -201 -220h-730v216h243q-53 88 -53 180q0 202 163 343q73 64 190.5 99.5 t246.5 30.5q98 0 168 -55zM575 216q48 0 64.5 21t16.5 84q0 13 -9 337q-99 -24 -170.5 -99.5t-71.5 -160.5q0 -94 40.5 -138t129.5 -44z" />
<glyph unicode="&#x641;" horiz-adv-x="1088" arabic-form="medial" d="M609 979q-49 0 -78.5 29t-29.5 76q0 52 37 88t90 36q48 0 80 -30t32 -74q0 -53 -38 -89t-93 -36zM1108 0h-117q-90 2 -129 57q-52 -57 -152 -57h-730v216h243q-53 88 -53 180q0 202 163 343q73 64 190.5 99.5t246.5 30.5q100 0 168 -55q-30 -50 -30 -193l2 -270 q1 -3 1 -11q0 -58 29 -93q22 -31 51 -31h117v-216zM575 216q48 0 64.5 21t16.5 84q0 37 -3 152q-5 175 -5 185q-99 -24 -171 -99.5t-72 -160.5q0 -94 40.5 -138t129.5 -44z" />
<glyph unicode="&#x642;" horiz-adv-x="1503" arabic-form="final" d="M768 987q-48 0 -77.5 29t-29.5 76q0 52 36.5 88t90.5 36q49 0 80 -29.5t31 -74.5q0 -53 -37.5 -89t-93.5 -36zM1069 987q-48 0 -77.5 29t-29.5 76q0 52 36.5 88t90.5 36q48 0 79.5 -29.5t31.5 -74.5q0 -53 -37.5 -89t-93.5 -36zM1523 0h-331q-20 -81 -57.5 -146 t-88.5 -109t-113 -73.5t-132 -42t-143.5 -11.5t-149.5 15q-62 12 -125 39.5t-125.5 72.5t-110.5 102t-77.5 134.5t-29.5 163.5q0 96 24 141t77 45q51 0 143 -57q-38 -68 -33 -129q7 -106 89.5 -185t204.5 -107q124 -28 229.5 9.5t153.5 134.5q-284 11 -399 198 q-53 88 -53 198q0 109 42.5 201.5t119 158t189.5 100.5t248 30q98 0 168 -56q-30 -49 -30 -193l2 -217q1 -123 1 -201h307v-216zM880 216q69 0 81 1q0 60 -8 455q-96 -24 -169 -107t-73 -170q0 -94 39.5 -136.5t129.5 -42.5z" />
<glyph unicode="&#x642;" horiz-adv-x="978" arabic-form="initial" d="M477 987q-48 0 -78 29t-30 76q0 52 37.5 88t90.5 36q49 0 80 -29.5t31 -74.5q0 -53 -37.5 -89t-93.5 -36zM778 987q-50 0 -78 30q-30 29 -30 75q0 52 37 88t90 36q49 0 80.5 -29.5t31.5 -74.5q0 -53 -37.5 -89t-93.5 -36zM938 814q-31 -49 -31 -193q0 -33 3 -209 q1 -117 1 -191q0 -221 -201 -221h-730v216h243q-53 88 -53 180q0 101 42.5 189.5t119 154t190 100.5t248.5 30q98 0 168 -56zM575 216q47 0 64 21.5t17 83.5q0 13 -9 337q-98 -24 -169.5 -99.5t-71.5 -159.5q0 -96 40 -139.5t129 -43.5z" />
<glyph unicode="&#x642;" horiz-adv-x="1087" arabic-form="medial" d="M460 987q-48 0 -77.5 29t-29.5 76q0 52 36.5 88t90.5 36q48 0 79.5 -29.5t31.5 -74.5q0 -53 -37.5 -89t-93.5 -36zM761 987q-48 0 -78 29t-30 76q0 52 37 88t91 36q48 0 79.5 -29.5t31.5 -74.5q0 -53 -38 -89t-93 -36zM1107 0h-123q-85 0 -122 58q-52 -58 -152 -58h-730 v216h243q-53 88 -53 180q0 101 42.5 189.5t119 154t190 100.5t248.5 30q97 0 168 -56q-31 -49 -31 -193l3 -270q1 -3 1 -11q0 -54 25 -88.5t55 -35.5h116v-216zM575 216q47 0 64 21.5t17 83.5q0 13 -9 337q-98 -24 -170 -99.5t-72 -159.5q0 -96 40 -139.5t130 -43.5z" />
<glyph unicode="&#x643;" horiz-adv-x="1482" arabic-form="final" d="M1502 0h-122q-85 0 -124 59q-50 -59 -151 -59h-701q-193 14 -276 86.5t-88 234.5q-6 150 62 266t161 116q64 0 105 -98q-61 -24 -85.5 -100t-3.5 -161q17 -68 66 -96.5t145 -31.5h481q44 0 62 28.5t18 95.5q0 88 -4 468l-5 451q0 55 33 88t90 33q98 0 168 -56 q-30 -50 -30 -193l3 -783v-7q0 -54 25 -89t55 -36h116v-216zM500 812h58q-31 43 -31 95q0 66 49 106.5t130 40.5q78 0 117 -39q12 -12 17 -36.5t-6.5 -47t-42.5 -22.5q-39 0 -61 15q8 0 13.5 12.5t2.5 27.5v2q-20 6 -36 6q-33 0 -55 -22t-22 -56q0 -32 19.5 -54t50.5 -28 h113q52 -3 52 -40q0 -42 -20 -68q-14 12 -32 14h-317q-21 2 -35 18t-14 35q0 28 20 54q13 -11 30 -13z" />
<glyph unicode="&#x643;" horiz-adv-x="1236" arabic-form="initial" d="M1193 300q13 -126 -25 -196q-36 -67 -87 -85.5t-182 -18.5h-919v216h809q-16 6 -299 217q-254 191 -366 191q-75 64 -81 133q-6 68 41.5 119t166.5 112q552 281 593 398q121 -99 128 -184q3 -32 0.5 -48.5t-22.5 -35.5t-48.5 -35t-93.5 -49q-32 -16 -51 -26l-374 -189 q86 -45 451 -333q143 -112 228 -158t131 -28z" />
<glyph unicode="&#x643;" horiz-adv-x="1470" arabic-form="medial" d="M1490 0h-206q-102 2 -136 72q-33 -46 -82.5 -59t-166.5 -13h-919v216h809q-17 6 -298 217q-254 191 -367 191q-73 64 -81 133q-6 68 41.5 119t167.5 112q550 280 593 398q120 -99 127 -184q7 -66 -54 -109q-36 -24 -352 -182l-182 -92q82 -43 450 -333q143 -112 228 -158 t131 -28q4 -35 1 -84h296v-216z" />
<glyph unicode="&#x644;" horiz-adv-x="1279" arabic-form="final" d="M1299 0h-207q-64 0 -102 29q-18 -191 -125 -302t-270 -112q-250 -1 -402.5 151.5t-152.5 410.5q0 185 101 185q50 0 144 -56q-34 -61 -34 -130q0 -141 90.5 -217.5t218.5 -57.5q94 14 135.5 82.5t41.5 215.5l-5 540q-1 143 -2.5 273.5t-2 186.5t-0.5 62q0 56 33 88.5 t91 32.5q98 0 168 -56q-30 -50 -30 -193l3 -917h307v-216z" />
<glyph unicode="&#x644;" horiz-adv-x="550" arabic-form="initial" d="M-20 216h166q45 0 63 28.5t18 94.5l-5 471q-4 381 -4 452q0 55 33 88t90 33q99 0 169 -55q-30 -50 -30 -194q0 -177 1 -464l2 -448q0 -222 -202 -222h-301v216z" />
<glyph unicode="&#x644;" horiz-adv-x="659" arabic-form="medial" d="M679 0h-123q-84 0 -123 58q-52 -58 -151 -58h-302v216h166q45 0 63 28.5t18 94.5q0 90 -4 471l-5 452q0 56 33 88.5t91 32.5q99 0 169 -55q-32 -50 -32 -194q0 -91 4 -807q3 -49 27.5 -80t52.5 -31h116v-216z" />
<glyph unicode="&#x645;" horiz-adv-x="1502" arabic-form="final" d="M1522 0h-206q-118 2 -147 102q-108 -102 -284 -102h-145q-102 0 -151 55q-39 -55 -121 -55h-66q-44 0 -62 -28.5t-18 -94.5q0 -59 4 -210q5 -188 5 -192q0 -54 -32 -88q-35 -32 -91 -32q-98 0 -168 55q31 49 31 193l-2 204q0 49 -0.5 94.5t-1 67t-0.5 25.5q0 220 201 222 h193q29 0 53.5 32t25.5 84l3 285q0 137 -30 183q70 53 168 53q272 10 430.5 -119.5t167.5 -357.5q3 -84 -31 -160h274v-216zM875 216q169 0 169 161q0 86 -75 178t-167 113l-8 -363q0 -39 19.5 -64t61.5 -25z" />
<glyph unicode="&#x645;" horiz-adv-x="998" arabic-form="initial" d="M958 376q3 -74 -22.5 -141.5t-74 -120t-125.5 -83.5t-172 -31h-145q-100 0 -151 55q-40 -55 -128 -55h-160v216h160q26 0 50 27q27 35 30 89l2 285q0 137 -31 183q71 53 169 53q272 10 431 -119.5t167 -357.5zM554 216q169 0 169 161q0 86 -75 178t-166 113l-9 -363 q0 -89 81 -89z" />
<glyph unicode="&#x645;" horiz-adv-x="1181" arabic-form="medial" d="M1201 0h-206q-119 0 -148 102q-107 -102 -283 -102h-145q-102 0 -151 55q-40 -55 -129 -55h-159v216h159q30 0 54.5 32t25.5 84l3 285q0 137 -30 183q70 53 167 53q273 10 431.5 -119t167.5 -358q3 -84 -31 -160h274v-216zM553 216q170 0 170 161q0 86 -75 178t-167 113 l-8 -363q0 -39 19 -64t61 -25z" />
<glyph unicode="&#x646;" horiz-adv-x="1391" arabic-form="final" d="M478 739q-48 0 -78 29.5t-30 76.5q0 51 37 87t91 36q48 0 79.5 -29.5t31.5 -73.5q0 -53 -37.5 -89.5t-93.5 -36.5zM1411 0h-199q-98 0 -136 60q-38 -158 -151.5 -251t-262.5 -93q-137 0 -249.5 39t-196.5 116.5t-130 202.5t-46 287q0 96 24 140.5t77 44.5t144 -57 q-34 -59 -34 -129q0 -218 129 -309q35 -24 81 -39t97.5 -18.5t100.5 13t88.5 49t64 95.5t24.5 148q0 21 -5 226q-4 164 -4 208q0 56 32.5 88.5t90.5 32.5q99 0 169 -55q-31 -49 -31 -193q0 -83 1 -186l2 -204h320v-216z" />
<glyph unicode="&#x646;" horiz-adv-x="549" arabic-form="initial" d="M343 1034q-48 0 -77.5 29.5t-29.5 76.5q0 52 36.5 88t90.5 36q48 0 79.5 -30t31.5 -74q0 -53 -37.5 -89.5t-93.5 -36.5zM509 802q-30 -50 -30 -194l2 -202q1 -113 1 -186q0 -220 -201 -220h-301v216h166q45 1 63 29t18 94q0 23 -5 208q-4 148 -4 189q0 55 32.5 88 t89.5 33q101 0 169 -55z" />
<glyph unicode="&#x646;" horiz-adv-x="657" arabic-form="medial" d="M352 979q-49 0 -78.5 29.5t-29.5 76.5q0 52 37 88t91 36q48 0 79 -29.5t31 -74.5q0 -54 -37 -90t-93 -36zM677 0h-116q-90 0 -129 57q-51 -57 -151 -57h-301v216h166q45 1 63 29t18 94q0 23 -5 208t-5 189q0 55 33.5 88t90.5 33q98 0 168 -55q-30 -50 -30 -194l2 -275 q2 -52 26.5 -84t53.5 -33h116v-216z" />
<glyph unicode="&#x647;" horiz-adv-x="961" arabic-form="final" d="M981 0h-117q-100 2 -137 69q-72 -69 -195 -69h-96q-188 0 -295 110.5t-101 267.5q3 103 45.5 199.5t117.5 156.5q72 61 190 95t249 30q98 0 169 -53q-30 -48 -30 -185l2 -270q1 -3 1 -9q0 -55 25 -90t55 -36h117v-216zM447 216q42 0 61.5 25.5t19.5 64.5l-9 366 q-92 -22 -167.5 -113.5t-75.5 -178.5q0 -164 171 -164z" />
<glyph unicode="&#x647;" horiz-adv-x="1241" arabic-form="initial" d="M1038 741q163 -141 163 -343q0 -178 -132 -288t-350 -110h-739v216h135q-35 67 -35 145q0 157 115.5 259t297.5 112q-5 22 -5 36q0 53 44.5 77t140.5 24q219 0 365 -128zM664 216h44q90 0 149 63q58 59 58 154q0 100 -67 162.5t-174 62.5h-2q-11 -44 -11 -121l2 -164 q1 -93 1 -151v-6zM339 216h101q23 21 23 85l-1 29q0 29 -2 102.5t-4 160.5q-69 -18 -117 -87t-48 -144q0 -64 10 -96.5t38 -49.5z" />
<glyph unicode="&#x647;" horiz-adv-x="1354" arabic-form="medial" d="M1374 0h-200q-114 0 -147 80q-123 -78 -308 -80h-739v216h135q-35 67 -35 145q0 157 115.5 259t297.5 112q-5 22 -5 36q0 53 44.5 77t140.5 24q221 0 375 -135.5t154 -335.5q0 -100 -45 -182h217v-216zM664 216h45q90 0 148.5 61.5t58.5 155.5q0 100 -67 162.5t-174 62.5 h-2q-11 -44 -11 -121q0 -72 1 -164q1 -93 1 -151v-6zM339 216h101q23 21 23 85l-6 292q-70 -18 -118 -87t-48 -144q0 -64 10 -96.5t38 -49.5z" />
<glyph unicode="&#x648;" horiz-adv-x="1029" arabic-form="final" d="M1049 0h-270q-1 -142 -26 -202q-78 -183 -307 -183q-75 0 -129 38t-54 89q0 52 54 123q41 -38 88 -38q31 0 53.5 12t34.5 28t19.5 43t9.5 45t4 46h-25q-291 6 -408 184q-53 83 -53 184q0 102 44 206t119 163q161 133 436 122q98 0 168 -52q-31 -46 -31 -180q0 -41 2 -185 q0 -38 1 -77q1 -84 1 -150h269v-216zM275 371q0 -80 64 -120q68 -36 188 -35q0 62 -0.5 121t-0.5 103.5v84t-0.5 66.5t-0.5 46.5v29.5v10q-91 -21 -170.5 -120.5t-79.5 -185.5z" />
<glyph unicode="&#x649;" horiz-adv-x="1753" arabic-form="final" d="M1793 0h-202q-202 0 -202 222q0 47 3 155q-1 100 -1 161q0 45 -28.5 63t-95.5 18h-4q17 -125 -3.5 -231.5t-70.5 -182.5t-124 -130t-163 -78.5t-189 -22t-200 33.5q-95 30 -167.5 65t-131.5 82.5t-96.5 107t-57.5 136.5t-20 172q0 187 102 187q53 0 144 -58 q-40 -71 -34 -130q20 -174 149 -277q117 -94 271.5 -90.5t249.5 104.5q109 112 90 304q-14 0 -32 -0.5t-28 -1t-15 -0.5q-56 0 -89 33.5t-33 90.5q0 66 56 137q49 -30 195 -30q82 0 177 1l159 2q222 0 222 -203q0 -58 1 -140v-162q0 -71 13 -95.5t55 -26.5h100v-216z" />
<glyph unicode="&#x64a;" horiz-adv-x="1760" arabic-form="final" d="M1780 0h-201q-201 0 -201 220v69q1 58 3 85q-1 99 -1 160q0 44 -28 62t-95 18h-4q26 -190 -30.5 -330t-180.5 -219q-109 -71 -253.5 -85.5t-280.5 28.5q-118 37 -202 83.5t-145.5 112.5t-91 155.5t-29.5 206.5q0 97 23.5 141.5t76.5 44.5q52 0 144 -56q-40 -71 -34 -130 q18 -168 138.5 -267.5t278.5 -96.5q160 3 257 111.5t79 293.5q-72 -2 -73 -2q-56 0 -88.5 33t-32.5 90q0 65 56 136q49 -31 193 -31l175 2q95 1 159 1q220 0 220 -201v-299q0 -72 12.5 -96t55.5 -24h100v-216zM501 -106q48 0 80 -30t32 -74q0 -54 -38 -90t-94 -36 q-48 0 -77.5 29.5t-29.5 76.5q0 52 37 88t90 36zM802 -106q48 0 80 -30t32 -74q0 -54 -38 -89q-37 -37 -94 -37q-48 0 -77.5 29.5t-29.5 76.5q0 52 37 88t90 36z" />
<glyph unicode="&#x64a;" horiz-adv-x="569" arabic-form="initial" d="M-20 216h186q45 0 63 28.5t18 95.5q0 22 -5 207t-5 189q0 56 33 88.5t90 32.5q98 0 169 -56q-30 -49 -30 -193l2 -202q1 -113 1 -186q0 -220 -201 -220h-321v216zM112 -106q48 0 80 -30t32 -74q0 -54 -38 -90t-94 -36q-48 0 -78 29.5t-30 76.5q0 52 38 87q37 37 90 37z M413 -106q49 0 80 -31q32 -29 32 -73q0 -54 -38 -89q-37 -37 -94 -37q-48 0 -78 29.5t-30 76.5q0 52 38 87q37 37 90 37z" />
<glyph unicode="&#x64a;" horiz-adv-x="825" arabic-form="medial" d="M845 0h-284q-89 0 -128 57q-53 -57 -152 -57h-301v216h166q45 0 63 28.5t18 95.5q0 22 -5 207q-4 148 -4 189q0 56 32.5 88.5t89.5 32.5q98 0 169 -56q-30 -49 -30 -193l3 -276q2 -51 26 -83.5t53 -32.5h284v-216zM225 -106q48 0 79.5 -29.5t31.5 -74.5q0 -54 -37.5 -90 t-94.5 -36q-47 0 -77 29.5t-30 76.5q0 52 37 88t91 36zM525 -106q50 0 81 -29.5t31 -74.5q0 -54 -37.5 -90t-93.5 -36q-48 0 -78 29.5t-30 76.5q0 52 37 88t90 36z" />
<glyph unicode="&#xd;" horiz-adv-x="682" />
<glyph unicode=" "  horiz-adv-x="438" />
<glyph unicode="&#x09;" horiz-adv-x="438" />
<glyph unicode="&#xa0;" horiz-adv-x="438" />
<glyph unicode="!" horiz-adv-x="607" d="M99 1314q135 83 226 83q69 0 106.5 -38.5t37.5 -112.5q0 -44 -32.5 -242t-32.5 -349q0 -134 50 -195q-77 -52 -143 -52q-83 0 -121.5 66t-38.5 206q0 49 4.5 155.5t4.5 165.5q0 109 -12.5 182t-48.5 131zM491 156q0 -68 -55 -116t-140 -48q-78 0 -127 45.5t-49 113.5 q0 74 53.5 122t137.5 48q81 0 130.5 -46t49.5 -119z" />
<glyph unicode="&#x22;" horiz-adv-x="726" d="M667 1262v-2q0 -21 -6 -45l-56 -404q-6 -40 -24 -62.5t-42 -22.5q-54 0 -66 87l-58 406q-2 12 -2 33q0 65 33 100t93 35q57 0 92.5 -35t35.5 -90zM313 1260v-2q0 -22 -4 -45l-58 -403q-6 -39 -25 -62.5t-41 -23.5q-53 0 -63 87l-60 406q-2 8 -2 33q0 65 32 100t93 35 q57 0 92.5 -35t35.5 -90z" />
<glyph unicode="#" horiz-adv-x="1124" d="M933 951h79q42 0 67.5 -25t25.5 -64q0 -50 -38 -83t-99 -33h-101l-44 -159h81q42 0 68.5 -25t26.5 -65q0 -50 -37.5 -81.5t-97.5 -31.5h-105l-96 -313q-16 -53 -50.5 -83.5t-75.5 -30.5q-40 0 -64.5 23.5t-24.5 62.5q0 25 8 46l91 294h-155l-96 -308q-18 -56 -51 -87 t-73 -31q-36 0 -62.5 25.5t-26.5 60.5q0 29 8 50l93 291h-68q-42 0 -69.5 25.5t-27.5 65.5q0 49 37.5 80.5t96.5 31.5h92l47 159h-74q-43 0 -67.5 23t-24.5 64q0 51 37 84.5t96 33.5h96l101 322q14 46 49.5 74.5t77.5 28.5q40 0 63.5 -20t23.5 -54q0 -13 -5 -33l-99 -317 h158l99 317q14 47 49.5 76t76.5 29q39 0 63 -21.5t24 -56.5q0 -18 -6 -34zM429 562h197l64 203h-199z" />
<glyph unicode="$" horiz-adv-x="1202" d="M763 1349q74 9 104 9q81 0 124 -31.5t43 -90.5q0 -71 -68 -170q-87 33 -166 33q-97 0 -153 -36.5t-56 -92.5q0 -59 68 -116q27 -23 118 -85q65 -45 100.5 -73.5t71 -68t50.5 -83t15 -98.5q0 -115 -68 -215.5t-191 -162.5q2 -51 6 -120t4 -87q0 -112 -95 -112 q-70 0 -133 60q25 61 37 199q-50 -6 -99 -6q-205 0 -205 149q0 65 57 154q89 -48 200 -48q95 0 151 38t56 97q0 13 -2 24t-8 21.5t-10.5 18.5t-17 19t-19 17t-24 18t-26 17.5t-31 20t-32.5 20.5q-58 37 -93.5 62t-71.5 57.5t-55 62.5t-31 69t-12 85q0 116 73 218t208 171 q-1 43 -2.5 81.5t-2.5 59t-1 25.5q0 68 19 95.5t72 27.5q66 0 127 -54q-25 -79 -31 -179z" />
<glyph unicode="%" horiz-adv-x="2038" d="M1227 1381q61 8 102 8q76 0 116.5 -30t40.5 -86q0 -22 -15 -58t-50 -97.5t-72 -122.5t-102 -169t-119 -200q-149 -254 -220 -405t-75 -240q-68 -8 -107 -8q-75 0 -114.5 30t-39.5 86q0 25 18 67t58.5 111.5t84.5 141t117.5 192t136.5 228.5q231 398 240 552zM479 1378 q184 0 285.5 -97t101.5 -272q0 -184 -113 -303t-287 -119q-177 0 -283 104t-106 275q0 188 109.5 300t292.5 112zM628 1005q0 92 -38 140.5t-111 48.5q-164 0 -164 -209q0 -210 156 -210q71 0 114 60.5t43 169.5zM1586 771q184 0 285.5 -96.5t101.5 -272.5 q0 -184 -113 -302.5t-287 -118.5q-177 0 -283 103.5t-106 274.5q0 188 109.5 300t292.5 112zM1735 398q0 93 -38 142t-111 49q-164 0 -164 -210q0 -211 156 -211q71 0 114 60.5t43 169.5z" />
<glyph unicode="&#x26;" horiz-adv-x="1519" d="M1470 286q25 -86 25 -137q0 -81 -34.5 -120t-108.5 -39q-136 0 -345 157q-199 -176 -449 -176q-228 0 -362 114t-134 301q0 318 344 439q-37 103 -37 174q0 171 128.5 279.5t335.5 108.5q149 0 232 -47t83 -125q0 -94 -120 -170q-62 74 -155 74q-81 0 -131 -48t-50 -126 q0 -193 320 -456q80 119 80 266q69 12 119 12q143 0 143 -108q0 -99 -148 -304q114 -73 214 -73q12 0 50 4zM806 305q-183 160 -286 319q-71 -36 -108 -90.5t-37 -120.5q0 -87 60.5 -143t155.5 -56q124 0 215 91z" />
<glyph unicode="'" horiz-adv-x="373" d="M122 813l-60 406q-2 8 -2 33q0 64 33 100.5t92 36.5q60 0 94 -34.5t34 -94.5q0 -22 -4 -45l-58 -404q-6 -40 -24 -62.5t-42 -22.5q-53 0 -63 87z" />
<glyph unicode="(" horiz-adv-x="796" d="M773 1265q-165 -99 -252.5 -288t-87.5 -453q0 -102 15.5 -198t49 -191t62.5 -161t79 -167q28 -54 28 -87t-22 -53.5t-58 -20.5q-61 0 -131 76q-157 170 -240 389t-83 469q0 217 58 401.5t161 309.5q96 117 216 117q65 0 113 -34t92 -109z" />
<glyph unicode=")" horiz-adv-x="796" d="M23 -211q165 100 252.5 289.5t87.5 452.5q0 102 -15.5 197.5t-49.5 190t-63 160.5t-79 167q-27 56 -27 89t22 53t58 20q64 0 133 -75q157 -170 239 -389.5t82 -470.5q0 -217 -58 -400.5t-161 -308.5q-97 -118 -216 -118q-64 0 -112.5 34t-92.5 109z" />
<glyph unicode="*" horiz-adv-x="966" d="M388 1273q0 65 25 98.5t72 33.5q97 0 97 -134q0 -90 -29.5 -149t-67.5 -59q-39 0 -68 59t-29 151zM182 1192q63 0 150 -75q72 -63 72 -112q0 -24 -18 -39t-48 -15q-92 0 -168.5 47.5t-76.5 102.5q0 39 25 65t64 26zM564 1005q0 49 72 112q87 75 150 75q39 0 64 -26 t25 -65q0 -55 -76.5 -102.5t-168.5 -47.5q-30 0 -48 15t-18 39zM392 914q25 0 39.5 -15.5t14.5 -42.5q0 -76 -59.5 -153t-119.5 -77q-38 0 -63.5 25.5t-25.5 61.5q0 60 78 130.5t136 70.5zM520 856q0 27 14.5 42.5t39.5 15.5q58 0 136 -70.5t78 -130.5q0 -36 -25.5 -61.5 t-63.5 -25.5q-60 0 -119.5 77t-59.5 153z" />
<glyph unicode="+" horiz-adv-x="1495" d="M858 686h373q47 0 77.5 -31t30.5 -79q0 -50 -30.5 -80t-79.5 -30h-371v-375q0 -48 -30 -78t-80 -30q-48 0 -79 30.5t-31 77.5v375h-366q-46 0 -77 30.5t-31 79.5q0 50 31 80t79 30h364v373q0 48 30.5 79t79.5 31q48 0 79 -31t31 -77v-375z" />
<glyph unicode="," horiz-adv-x="601" d="M205 -238l9 8q45 31 70 78t25 100q0 50 -23.5 69.5t-76.5 30.5q-64 15 -94 47.5t-30 91.5q0 73 46.5 119t119.5 46q106 0 172 -74.5t66 -194.5q0 -114 -70 -200.5t-205 -137.5z" />
<glyph unicode="-" horiz-adv-x="707" d="M638 634q9 -77 9 -107q0 -191 -185 -191q-44 0 -128 11.5t-123 11.5q-85 0 -149 -29q-10 72 -10 107q0 98 46.5 144.5t142.5 46.5q47 0 126.5 -11.5t111.5 -11.5q100 0 159 29z" />
<glyph unicode="." horiz-adv-x="601" d="M491 178q0 -81 -58 -135.5t-147 -54.5q-78 0 -130 50t-52 124q0 84 56 137t147 53q82 0 133 -49t51 -125z" />
<glyph unicode="/" horiz-adv-x="854" d="M10 -19l606 1310q23 49 55.5 69.5t87.5 20.5q46 0 72.5 -21.5t26.5 -57.5q0 -23 -25 -81l-607 -1310q-23 -50 -55.5 -70.5t-87.5 -20.5q-46 0 -72 21.5t-26 58.5q0 26 25 81z" />
<glyph unicode="0" horiz-adv-x="1215" d="M1150 730q0 -341 -159 -549t-406 -208q-234 0 -377.5 179.5t-143.5 486.5q0 346 153 541.5t415 195.5q246 0 382 -168t136 -478zM838 711q0 200 -59 305t-167 105q-115 0 -175 -116t-60 -342q0 -210 59 -319.5t167 -109.5t171.5 124t63.5 353z" />
<glyph unicode="1" horiz-adv-x="856" d="M672 60q-116 -60 -230 -60q-94 0 -132 40.5t-38 137.5q0 24 6.5 126.5t13 271t6.5 353.5q0 75 -6 166q-84 -42 -124 -42q-75 0 -75 85q0 62 42 168q89 11 213.5 42t165.5 31q69 0 99 -37t30 -117q0 -13 -14.5 -240.5t-14.5 -441.5q0 -357 58 -483z" />
<glyph unicode="2" horiz-adv-x="1202" d="M236 906q-112 77 -112 186q0 117 119 202t306 85q224 0 360 -118.5t136 -306.5q0 -170 -141.5 -339t-428.5 -346q16 0 46.5 -1t44.5 -1q344 0 460 69q33 -94 33 -166q0 -94 -54.5 -133t-179.5 -39q-68 0 -229.5 7t-255.5 7q-118 0 -243 -18q-35 66 -35 137q0 27 3.5 50.5 t13.5 45.5t18.5 38t28 35.5t32 31.5t41.5 32t44 30.5t52 34t55 35.5q194 128 288 236.5t94 209.5q0 87 -60 142t-158 55q-181 0 -278 -201z" />
<glyph unicode="3" horiz-adv-x="1202" d="M728 711q162 -26 246.5 -108.5t84.5 -210.5q0 -177 -176 -299t-454 -122q-346 0 -346 166q0 72 79 162q132 -77 278 -77q133 0 208 50t75 130q0 88 -65.5 127.5t-211.5 52.5q-104 7 -150.5 27.5t-46.5 72.5q0 45 35.5 67.5t113.5 34.5q172 27 247.5 68.5t75.5 128.5 q0 69 -50.5 107t-144.5 38q-172 0 -277 -98q-93 66 -93 145q0 93 107.5 149t302.5 56q215 0 344 -97t129 -245q0 -238 -311 -325z" />
<glyph unicode="4" horiz-adv-x="1204" d="M1134 597q33 -82 33 -129q0 -76 -45 -105t-156 -29h-27q2 -56 4 -109.5t3 -80t1 -34.5q0 -74 -32.5 -106.5t-108.5 -32.5q-96 0 -215 62q45 84 54 305q-84 0 -159.5 1.5t-118.5 3t-50 1.5q-165 0 -230 -17q-54 61 -54 135q0 28 7.5 56t26 61.5t36 60.5t53 71t60.5 73.5 t74.5 87t80.5 94.5t82 99t76 91.5t64.5 73.5t65 64.5t58.5 43.5t63.5 31.5t63.5 8.5q64 0 93 -29t29 -91q0 -19 -6 -113.5t-12.5 -252.5t-6.5 -332q131 3 193 37zM651 912v122q-83 -107 -181.5 -226t-134.5 -166t-36 -64q0 -15 16.5 -19.5t59.5 -4.5h52q111 0 220 6 q4 244 4 352z" />
<glyph unicode="5" horiz-adv-x="1202" d="M460 879q96 16 170 16q205 0 317 -97.5t112 -270.5q0 -239 -190.5 -394.5t-503.5 -155.5q-146 0 -216 38.5t-70 121.5q0 64 62 168q113 -75 249 -75q150 0 242 70.5t92 180.5q0 89 -69.5 139t-198.5 50q-66 0 -140 -14.5t-82 -14.5q-79 0 -79 76q0 25 16 101.5t46 227.5 t55 304q179 -11 346 -11q281 0 392 44q29 -87 29 -145q0 -92 -63 -121t-221 -29q-93 0 -253 6q-24 -115 -42 -215z" />
<glyph unicode="6" horiz-adv-x="1202" d="M396 761q143 112 317 112q194 0 305.5 -106t111.5 -288q0 -225 -150.5 -365.5t-392.5 -140.5q-243 0 -380 143.5t-137 399.5q0 223 95.5 418t261.5 316q95 69 198 106t188 37q145 0 145 -131q0 -50 -19 -120q-26 9 -79 9q-175 0 -298 -102t-166 -288zM390 543 q-6 -44 -6 -89q0 -124 55.5 -189.5t157.5 -65.5q110 0 172 65t62 182q0 95 -54.5 150t-152.5 55q-137 0 -234 -108z" />
<glyph unicode="7" horiz-adv-x="1202" d="M1036 1381q67 -85 67 -166q0 -47 -27.5 -113.5t-61.5 -124.5t-103.5 -173t-116.5 -197q-211 -376 -211 -545q0 -31 2 -52q-113 -37 -181 -37q-80 0 -121.5 36.5t-41.5 106.5q0 97 144 346q64 112 350 566q20 31 38 60q-114 6 -186 6q-259 0 -398 -66q-79 102 -79 181 q0 76 48 109.5t151 33.5q35 0 171.5 -6.5t238.5 -6.5q109 0 182.5 8t134.5 34z" />
<glyph unicode="8" horiz-adv-x="1202" d="M377 661q-248 97 -248 330q0 179 134.5 283.5t374.5 104.5q212 0 334 -92.5t122 -247.5q0 -129 -72 -217t-222 -142q150 -38 221 -109.5t71 -187.5q0 -180 -141.5 -296t-376.5 -116q-217 0 -342.5 99t-125.5 258q0 123 65.5 202.5t205.5 130.5zM612 767q97 34 146.5 91 t49.5 131q0 77 -49 120.5t-135 43.5q-92 0 -147.5 -50.5t-55.5 -132.5q0 -150 191 -203zM556 585q-164 -75 -164 -218q0 -77 55 -123.5t148 -46.5t151 50t58 126q0 67 -58.5 115t-189.5 97z" />
<glyph unicode="9" horiz-adv-x="1202" d="M798 587q-72 -59 -146.5 -84.5t-168.5 -25.5q-194 0 -305.5 106.5t-111.5 291.5q0 228 148.5 366t397.5 138q241 0 376.5 -141.5t135.5 -397.5q0 -215 -85 -401t-239 -310q-97 -78 -207 -119t-210 -41q-84 0 -120.5 31.5t-36.5 105.5q0 49 19 110q49 -11 103 -11 q163 0 286.5 102.5t163.5 279.5zM806 810q5 29 5 57q0 288 -214 288q-106 0 -170 -66t-64 -179q0 -102 53.5 -156.5t153.5 -54.5q137 0 236 111z" />
<glyph unicode=":" horiz-adv-x="616" d="M500 763q0 -80 -59 -135.5t-147 -55.5q-80 0 -130 49t-50 127q0 84 56 136.5t147 52.5q83 0 133 -48.5t50 -125.5zM497 178q0 -81 -58 -135.5t-147 -54.5q-78 0 -130 50t-52 124q0 84 56 137t147 53q82 0 133 -49t51 -125z" />
<glyph unicode=";" horiz-adv-x="616" d="M498 763q0 -80 -58 -134.5t-146 -54.5q-78 0 -130 50t-52 124q0 84 56 135.5t147 51.5q82 0 132.5 -48t50.5 -124zM220 -238l10 8q45 31 70 78t25 100q0 50 -23.5 69.5t-77.5 30.5q-64 15 -94 47.5t-30 91.5q0 73 46.5 119t120.5 46q106 0 171.5 -74.5t65.5 -194.5 q0 -115 -69.5 -201t-204.5 -137z" />
<glyph unicode="&#x3c;" horiz-adv-x="1609" d="M327 723l915 367q31 11 56 11q47 0 77 -33t30 -87q0 -29 -21 -54.5t-57 -39.5l-807 -311l809 -315q33 -13 52.5 -40.5t19.5 -60.5q0 -48 -32.5 -80t-77.5 -32q-28 0 -51 10l-919 373q-54 21 -84 60t-30 85q0 47 31 85.5t89 61.5z" />
<glyph unicode="=" horiz-adv-x="1609" d="M1279 670h-949q-46 0 -77 30.5t-31 78.5q0 49 30.5 79.5t77.5 30.5h951q46 0 77 -31.5t31 -78.5q0 -49 -31 -79t-79 -30zM1279 263h-949q-46 0 -77 31t-31 79q0 49 30 78.5t78 29.5h951q47 0 77.5 -30t30.5 -78q0 -49 -31 -79.5t-79 -30.5z" />
<glyph unicode="&#x3e;" horiz-adv-x="1609" d="M377 1090l916 -367q57 -23 88 -61.5t31 -85.5q0 -46 -30 -85t-84 -60l-919 -373q-23 -10 -51 -10q-46 0 -79 32t-33 80q0 32 20 60t54 41l809 315l-807 311q-36 14 -57 39.5t-21 54.5q0 54 30 87t77 33q25 0 56 -11z" />
<glyph unicode="?" horiz-adv-x="784" d="M120 1082q-50 94 -50 156q0 67 65.5 113t171.5 46q168 0 287 -105.5t119 -244.5q0 -130 -106 -261q-11 -13 -36 -43t-34.5 -41.5t-29 -35.5t-27 -36t-20 -32.5t-17 -34t-8.5 -30.5t-4 -33q0 -23 11 -81q-34 -7 -85 -7q-92 0 -139.5 37.5t-47.5 108.5q0 58 33 112.5 t108 142.5q39 47 55 66.5t39 52.5t31 59t8 54q0 52 -35.5 83t-99.5 31q-84 0 -189 -77zM510 156q0 -68 -54.5 -116t-138.5 -48q-77 0 -126.5 45.5t-49.5 113.5q0 73 52.5 121.5t134.5 48.5q83 0 132.5 -46t49.5 -119z" />
<glyph unicode="@" horiz-adv-x="1932" d="M1397 823q-41 -139 -68 -263.5t-34.5 -180t-7.5 -76.5q0 -19 17 -19q18 0 51 17t61 47q120 123 120 320q0 185 -118 291.5t-324 106.5q-314 0 -506 -193t-192 -506q0 -234 152 -378t404 -144q155 0 293 49t243 139q28 24 62 56.5t51 49t37.5 29t38.5 12.5 q29 0 49.5 -22.5t20.5 -55.5q0 -69 -91 -160q-287 -280 -733 -280q-164 0 -302 52.5t-234 146t-149.5 226.5t-53.5 290q0 184 71 349t203 286q258 238 639 238q299 0 472.5 -157t173.5 -417q0 -190 -99 -346q-75 -114 -187 -177.5t-236 -63.5q-120 0 -120 95q0 2 1 9.5 t1 11.5q-128 -122 -245 -122q-137 0 -221 91t-84 243q0 115 57.5 219.5t158.5 167.5q127 81 296 81q141 0 332 -62zM1151 697q-60 22 -112 22q-120 0 -202 -87.5t-82 -216.5q0 -76 38 -118t103 -42q91 0 194 120q27 129 61 322z" />
<glyph unicode="A" horiz-adv-x="1453" d="M1455 114h-2q-152 -118 -257 -118q-38 0 -68.5 14.5t-53 38.5t-46.5 73t-42.5 97.5t-46.5 132.5h-500q-84 -163 -84 -250q0 -26 12 -56q-92 -46 -187 -46q-80 0 -115.5 28.5t-35.5 97.5q0 61 62.5 191t194.5 390.5t238 511.5q-32 63 -56 91q122 68 233 68q94 0 148.5 -47 t106.5 -162q23 -50 124.5 -306t194.5 -455q86 -185 180 -294zM535 582h311q-69 204 -149 399q-87 -203 -162 -399z" />
<glyph unicode="B" horiz-adv-x="1265" d="M862 696q143 -27 219 -101.5t76 -179.5q0 -179 -186.5 -301t-493.5 -122q-194 0 -264 41.5t-70 161.5q0 41 11.5 261t11.5 400q0 376 -58 520q119 1 226.5 3.5t169.5 5t76 2.5q277 0 427 -98.5t150 -270.5q0 -111 -74.5 -193t-220.5 -129zM481 1155l-6 -357q25 -2 79 -2 q125 0 194 49.5t69 132.5q0 79 -66 130t-175 51q-33 0 -95 -4zM479 253q54 -8 74 -8q127 0 195.5 50.5t68.5 131.5q0 79 -65.5 123.5t-189.5 44.5q-29 0 -87 -4v-108q0 -14 4 -230z" />
<glyph unicode="C" horiz-adv-x="1310" d="M1155 348q76 -95 76 -178q0 -91 -97.5 -139t-287.5 -48q-356 0 -571 190.5t-215 496.5q0 332 280 551q109 86 267.5 135.5t333.5 49.5q140 0 208 -33.5t68 -105.5q0 -79 -73 -195q-107 52 -246 52q-211 0 -338 -118t-127 -312q0 -193 121.5 -310t316.5 -117q146 0 284 81 z" />
<glyph unicode="D" horiz-adv-x="1542" d="M106 1378q124 1 236.5 4t173 5t71.5 2q186 0 324.5 -26t253.5 -92q154 -87 234.5 -225t80.5 -312q0 -342 -258.5 -543t-724.5 -201q-203 0 -278.5 37.5t-75.5 148.5q0 38 10.5 253.5t10.5 393.5q0 416 -58 555zM518 284q63 -12 118 -12q221 0 349 116t128 308 q0 200 -125.5 316t-344.5 116q-72 0 -123 -9q-10 -199 -10 -495q0 -199 8 -340z" />
<glyph unicode="E" horiz-adv-x="1086" d="M124 1360q209 -6 280 -6q106 0 260 11t202 11q87 0 125.5 -28t38.5 -94q0 -74 -52 -172q-93 44 -294 44q-19 0 -189 -5l-6 -302q35 -2 118 -2q242 0 328 29q31 -71 31 -127q0 -71 -42 -100.5t-136 -29.5q-6 0 -46 1t-109.5 2t-147.5 1q-3 -209 -6 -346q102 -6 180 -6 q194 0 295 51q47 -100 47 -164q0 -76 -49.5 -102t-167.5 -26q-43 0 -124.5 2t-120.5 2q-40 0 -139.5 -2t-159.5 -2q-58 0 -80.5 21.5t-22.5 77.5q0 15 5.5 101.5t11.5 234.5t6 313q0 440 -36 612z" />
<glyph unicode="F" horiz-adv-x="1074" d="M131 1364q158 -6 269 -6q108 0 262 10.5t200 10.5q87 0 125.5 -27t38.5 -94q0 -71 -50 -176q-98 44 -296 44q-42 0 -180 -5q0 -17 -3.5 -132t-3.5 -179q108 -4 145 -4q202 0 291 31q27 -63 27 -118q0 -77 -42 -110t-135 -33q-7 0 -45.5 1t-104.5 2t-140 1q0 -387 60 -520 q-135 -62 -242 -62q-90 0 -127 39t-37 131q0 32 11.5 274t11.5 453q0 301 -35 469z" />
<glyph unicode="G" horiz-adv-x="1468" d="M1005 668q129 64 226 64t136 -55.5t39 -183.5q0 -146 -27 -241.5t-92.5 -158t-169.5 -88.5t-263 -26q-361 0 -575.5 180t-214.5 471q0 333 272 564q118 100 272.5 154.5t326.5 54.5q131 0 190 -33t59 -110t-69 -188q-100 47 -197 47q-214 0 -348.5 -124t-134.5 -319 q0 -186 116.5 -296.5t315.5 -110.5q95 0 188 29q8 67 8 135q0 81 -11.5 135.5t-46.5 99.5z" />
<glyph unicode="H" horiz-adv-x="1650" d="M1540 60q-135 -62 -253 -62q-95 0 -132.5 41.5t-37.5 144.5q0 17 2.5 69.5t6 147.5t6.5 194h-622v-73q0 -332 56 -462q-138 -62 -253 -62q-97 0 -134.5 42t-37.5 147q0 48 12.5 253t12.5 362q0 201 -13 325.5t-47 192.5q136 61 249 61q97 0 136.5 -39.5t39.5 -134.5 q0 -17 -17 -359h624v35q0 312 -56 438q137 60 247 60q96 0 135 -39t39 -135q0 -25 -11.5 -236t-11.5 -397q0 -383 60 -514z" />
<glyph unicode="I" horiz-adv-x="697" d="M585 60q-133 -62 -266 -62q-100 0 -137 41t-37 148q0 33 11.5 250t11.5 403q0 347 -58 481q127 60 261 60q97 0 137.5 -39t40.5 -133q0 -33 -12.5 -244.5t-12.5 -390.5q0 -190 13 -312.5t48 -201.5z" />
<glyph unicode="J" horiz-adv-x="867" d="M325 1320q137 59 237 59q105 0 142 -57q35 -53 39 -209q1 -44 1 -143q0 -209 -16 -363.5t-52.5 -278t-97 -199.5t-150 -116t-210.5 -40q-110 0 -170 43t-60 117q0 68 78 163q67 -60 141 -60q113 0 151 101t38 351q0 458 -71 632z" />
<glyph unicode="K" horiz-adv-x="1414" d="M1434 238q-26 -125 -82 -191t-135 -66q-80 0 -166 83q-33 30 -208 226.5t-333 341.5q0 -19 -1 -54t-1 -51q0 -330 58 -465q-126 -62 -253 -62q-96 0 -134 44t-38 149q0 37 11.5 249.5t11.5 386.5q0 182 -11.5 297.5t-44.5 194.5q132 58 247 58q99 0 138.5 -38.5 t39.5 -133.5q0 -21 -3 -73t-9 -155.5t-11 -199.5q466 428 527 614q256 -69 256 -191q0 -32 -26 -73.5t-92 -106.5t-132 -123.5t-191 -167.5q-1 -3 -6 -5q78 -71 170 -158.5t144.5 -137.5t108 -98.5t94.5 -70.5t71 -23z" />
<glyph unicode="L" horiz-adv-x="1007" d="M962 292q48 -93 48 -166q0 -72 -45.5 -99t-151.5 -27q-29 0 -94 2t-103 2q-98 0 -184.5 -1.5t-135 -3t-55.5 -1.5q-58 0 -80 20.5t-22 78.5q0 19 14.5 243t14.5 429q0 415 -60 552q136 60 255 60q94 0 131 -40t37 -139q0 -24 -12.5 -280t-12.5 -489q0 -120 2 -184 q150 -8 176 -8q168 0 278 51z" />
<glyph unicode="M" horiz-adv-x="1942" d="M1884 81q-150 -85 -265 -85q-54 0 -85.5 19t-47.5 62q-8 21 -13 63.5t-9 117t-6.5 151.5t-7.5 208.5t-11 246.5q-86 -171 -169.5 -346.5t-127.5 -269t-64 -126.5q-47 -78 -114 -78t-112 68q-20 33 -65 129t-129 272.5t-173 350.5q-6 -117 -10.5 -246.5t-6.5 -208.5 t-5.5 -154t-9.5 -119t-16 -66q-18 -40 -48 -56t-82 -16q-111 0 -257 83q149 336 149 1011q0 121 -44 206q104 85 228 85q35 0 65 -7.5t53 -18t46.5 -35t39.5 -44t38.5 -60.5t36.5 -69t41 -84q192 -399 217 -445q39 -73 52 -73q9 0 23 19t39 69t49 101t71 150.5t88 183.5 q34 70 57.5 113t53 85.5t57.5 65t63.5 36t77.5 13.5q121 0 238 -89q-54 -91 -54 -330q0 -547 149 -883z" />
<glyph unicode="N" horiz-adv-x="1582" d="M1459 68q-81 -34 -292 -89l-744 873q1 -215 10 -435.5t9 -234.5q0 -97 -33.5 -139.5t-112.5 -42.5q-104 0 -228 60q54 85 75 257.5t21 461.5q0 220 -19.5 322t-90.5 145q57 67 112.5 98.5t121.5 31.5q60 0 108.5 -31t109.5 -97q45 -48 133 -158t233.5 -290.5 t288.5 -349.5q6 165 6 267q0 238 -17 380.5t-66 223.5q123 58 207 58q91 0 123.5 -44.5t32.5 -157.5q0 -35 -9.5 -254.5t-9.5 -404.5q0 -283 31 -450z" />
<glyph unicode="O" horiz-adv-x="1675" d="M858 1406q347 0 550 -182.5t203 -489.5q0 -305 -216 -521q-240 -242 -599 -242q-310 0 -516 189q-216 200 -216 518q0 316 230 526q221 202 564 202zM1246 717q0 186 -108.5 298.5t-285.5 112.5q-193 0 -308 -119t-115 -319q0 -193 111 -312t289 -119q179 0 298 128.5 t119 329.5z" />
<glyph unicode="P" horiz-adv-x="1221" d="M104 1358q35 -2 101 -2q108 0 267.5 9t211.5 9q240 0 368 -108t128 -306q0 -227 -149 -359.5t-409 -132.5q-60 0 -124 7q0 -273 58 -415q-133 -62 -249 -62q-94 0 -131 43t-37 148q0 48 12.5 246t12.5 349q0 236 -13 374t-47 200zM497 707q48 -6 94 -6q113 0 174.5 59 t61.5 165q0 95 -55 144.5t-161 49.5q-45 0 -103 -12q-11 -183 -11 -400z" />
<glyph unicode="Q" horiz-adv-x="1700" d="M1631 35q46 -101 46 -170q0 -145 -174 -145q-74 0 -169 24t-156 47.5t-195 77.5l-50 20t-50.5 20.5t-44 17.5t-46.5 17t-41 13.5t-44 12.5t-38.5 8t-41.5 6.5t-38 1.5q-139 0 -331 -107q-90 93 -90 158q0 115 153 127q-257 187 -257 512q0 319 235 528q226 202 582 202 q344 0 549.5 -184t205.5 -484q0 -242 -126.5 -414t-363.5 -251q185 -56 322 -56q84 0 163 18zM842 261q186 0 306.5 128t120.5 330q0 186 -111.5 297.5t-297.5 111.5q-196 0 -312.5 -118.5t-116.5 -317.5q0 -194 114 -312.5t297 -118.5zM257 -122l1 1l1 -1h-2z" />
<glyph unicode="R" horiz-adv-x="1397" d="M1385 234q-28 -123 -85 -188t-133 -65q-19 0 -36.5 4t-37 15t-35 21t-37 31t-36 36t-40.5 46t-41.5 50t-47.5 58.5t-50 62.5q-70 89 -121.5 128.5t-112.5 39.5q-24 0 -72 -5q6 -296 56 -408q-133 -62 -247 -62q-95 0 -131.5 42t-36.5 147q0 37 11.5 242t11.5 373 q0 226 -11.5 356.5t-44.5 199.5q58 -2 116 -2q112 0 273 10t212 10q224 0 348.5 -99.5t124.5 -273.5q0 -300 -295 -412q25 -8 46.5 -17t42 -22.5t33 -21.5t32.5 -26.5t26 -24.5t26.5 -27.5t23.5 -24.5q80 -82 140.5 -128t127.5 -65zM497 688h32q141 0 220.5 66t79.5 179 q0 88 -56.5 137t-161.5 49q-45 0 -103 -12q-11 -202 -11 -419z" />
<glyph unicode="S" horiz-adv-x="900" d="M112 301q96 -54 203 -54q97 0 151 38t54 101q0 57 -63 108q-24 21 -117 82q-73 49 -110.5 77.5t-76.5 70.5t-54.5 88t-15.5 106q0 78 33 155t93 136q182 184 456 184q82 0 125 -33.5t43 -97.5q0 -80 -66 -178q-82 33 -170 33q-98 0 -153.5 -36t-55.5 -96q0 -63 71 -121 q27 -22 148 -103q107 -72 157.5 -147t50.5 -170q0 -183 -145 -313q-165 -150 -413 -150q-203 0 -203 156q0 78 58 164z" />
<glyph unicode="T" horiz-adv-x="1264" d="M1192 1395q64 -112 64 -186q0 -80 -45 -115t-145 -35q-11 0 -44.5 1.5t-96.5 4.5t-127 5q-14 -262 -14 -487q0 -190 13.5 -315.5t48.5 -207.5q-132 -62 -259 -62q-96 0 -131 40.5t-35 145.5q0 13 5 125t10.5 321.5t7.5 447.5h-48q-254 0 -334 -44q-62 116 -62 195 q0 73 45 103t148 30q23 0 209.5 -11.5t349.5 -11.5q176 0 280.5 12t159.5 44z" />
<glyph unicode="U" horiz-adv-x="1526" d="M978 1318q132 63 241 63q118 0 160.5 -101.5t42.5 -346.5q0 -499 -168 -730.5t-541 -231.5q-294 0 -439 139.5t-145 422.5q0 90 7 232t7 195q0 246 -58 361q133 60 247 60q98 0 136 -38.5t38 -135.5q0 -36 -8.5 -216.5t-8.5 -325.5q0 -218 57.5 -311t206.5 -93 q172 0 247.5 135t75.5 425q0 357 -98 497z" />
<glyph unicode="V" horiz-adv-x="1410" d="M993 1335q111 46 211 46q80 0 118 -44.5t38 -136.5q0 -132 -77 -337t-232 -455q-153 -248 -231 -341.5t-153 -93.5q-76 0 -136 86t-148 295q-57 134 -121 309t-100 272.5t-86.5 189.5t-104.5 135q107 121 240 121q113 0 168 -123q16 -38 37.5 -98t39.5 -115.5t50 -155.5 t56 -172q116 -348 153 -348q10 0 26.5 21t48.5 72q112 175 173 373t61 355q0 77 -31 145z" />
<glyph unicode="W" horiz-adv-x="2096" d="M1712 1335q125 46 187 46q161 0 161 -185q0 -133 -70 -321.5t-211 -412.5q-84 -139 -233 -342q-29 -40 -38 -52t-31 -37.5t-36 -33.5t-36 -16t-47 -8q-18 0 -34.5 5t-32.5 17.5t-29.5 26t-30.5 39.5t-30 47.5t-33.5 61t-35.5 69.5t-41 82.5t-46 91.5q-143 -226 -239 -333 t-165 -107q-76 0 -142.5 114.5t-175.5 401.5q-29 76 -66.5 180.5t-60 166t-53.5 136.5t-56.5 121.5t-60 89.5t-72.5 69q105 135 226 135q31 0 57 -11t46 -28t40.5 -52t35.5 -69t35.5 -95t37 -113t44.5 -139t53 -159q74 -218 109 -305.5t54 -87.5q25 0 237 325 q-106 262 -185.5 402.5t-167.5 194.5q43 72 91 105.5t112 33.5q24 0 44.5 -5t39 -19t33 -28.5t31 -43.5t28.5 -53t30.5 -68.5t31.5 -78.5t36 -94.5t41 -105.5q77 217 77 318q0 72 -29 130q80 40 158 40q77 0 116 -38.5t39 -111.5q0 -77 -61.5 -225.5t-182.5 -346.5 q160 -331 186 -331q15 0 77 95q280 436 280 744q0 71 -42 168z" />
<glyph unicode="X" horiz-adv-x="1329" d="M1277 214v-1q-79 -215 -261 -215q-53 0 -89.5 20t-68.5 65q-9 13 -36 63.5t-78.5 143.5t-109.5 189q-104 -134 -153.5 -222t-49.5 -149q0 -33 17 -69q-149 -41 -239 -41q-147 0 -147 110q0 24 10.5 53.5t40.5 74t55 79.5t84.5 106t97.5 114.5t123 140.5 q-162 238 -266.5 359.5t-160.5 133.5q86 218 265 218q51 0 85.5 -20t69.5 -67q14 -19 40.5 -67t80.5 -147t101 -182q98 132 143.5 217t45.5 150q0 18 -15 60q142 50 245 50q151 0 151 -108q0 -64 -87.5 -181.5t-316.5 -384.5q166 -241 266.5 -360.5t156.5 -132.5z" />
<glyph unicode="Y" horiz-adv-x="1260" d="M860 1335q145 50 245 50q64 0 98.5 -27.5t34.5 -78.5q0 -27 -19 -67.5t-62 -104t-89.5 -127.5t-126.5 -174.5t-147 -208.5q-2 -46 -2 -131q0 -280 54 -406q-124 -60 -255 -60q-94 0 -131 40t-37 140q0 11 3 61.5t7 141.5t6 191q-311 563 -458 597q43 108 107 164t140 56 q51 0 88.5 -28t71.5 -86q5 -8 87 -172t168 -307q232 349 232 471q0 31 -15 66z" />
<glyph unicode="Z" horiz-adv-x="1194" d="M1095 307q43 -92 43 -160q0 -85 -53.5 -115t-182.5 -30q-116 0 -312 10.5t-277 10.5q-91 0 -174 -23q-69 72 -69 156q0 83 52 169q50 86 182.5 247t159.5 197q189 252 189 309q0 21 -43.5 29t-141.5 8q-217 0 -327 -52q-44 105 -44 168q0 75 51.5 104t170.5 29 q47 0 213 -6t285 -6q125 0 217 14q69 -75 69 -153q0 -45 -20.5 -95.5t-66 -115.5t-91.5 -123.5t-123.5 -156t-136.5 -177.5q-161 -218 -161 -259q0 -19 29 -26t97 -7q350 0 465 54z" />
<glyph unicode="[" horiz-adv-x="796" d="M651 1397q81 -84 81 -132q0 -42 -28.5 -67t-79.5 -25q-11 0 -31.5 1t-54 3t-63.5 3q14 -588 14 -666q0 -217 -12 -643q37 1 71.5 3t52.5 3t23 1q51 0 79.5 -24t28.5 -65q0 -54 -79 -133q-87 21 -228 21q-20 0 -55 -1t-92 -3t-106 -3q46 160 46 846q0 700 -48 869 q183 -9 253 -9q138 0 228 21z" />
<glyph unicode="\" horiz-adv-x="854" d="M278 1293l508 -1312q22 -58 22 -81q0 -37 -27 -57.5t-76 -20.5q-56 0 -89 25t-56 85l-502 1295q-23 61 -23 75q0 36 29 57.5t79 21.5q101 0 135 -88z" />
<glyph unicode="]" horiz-adv-x="796" d="M145 -344q-81 84 -81 131q0 43 28.5 68t79.5 25q1 0 149 -8q-14 590 -14 667q0 217 12 643q-37 -1 -71.5 -3t-52.5 -3t-23 -1q-51 0 -79.5 24t-28.5 65q0 54 79 133q87 -21 228 -21q39 0 253 7q-46 -160 -46 -846q0 -700 48 -869q-171 7 -253 7q-147 0 -228 -19z" />
<glyph unicode="^" horiz-adv-x="1932" d="M1175 1277l305 -303q93 -93 93 -143q0 -40 -27.5 -66.5t-65.5 -26.5q-62 0 -164 85l-298 243q-42 35 -54 35t-50 -33l-311 -247q-105 -83 -149 -83q-39 0 -64 24.5t-25 62.5q0 51 64 118l340 350q49 48 90.5 69t104.5 21q39 0 68 -6t56 -24t41 -31t46 -45z" />
<glyph unicode="_" horiz-adv-x="966" d="M0 -272h966v-186h-966v186z" />
<glyph unicode="a" horiz-adv-x="1055" d="M989 66q-113 -66 -203 -66q-112 0 -125 108q-68 -62 -135.5 -91t-148.5 -29q-142 0 -227.5 78.5t-85.5 205.5q0 154 118.5 244.5t327.5 90.5q58 0 145 -12v35q0 73 -53 114.5t-150 41.5q-162 0 -239 -106q-78 38 -78 108q0 84 100 138t277 54q217 0 317 -92t100 -291 q0 -4 -2 -74.5t-2 -136.5q0 -231 64 -320zM651 377v62q-57 9 -104 9q-100 0 -153.5 -37.5t-53.5 -105.5q0 -57 37 -90t102 -33q95 0 174 79q-2 31 -2 116z" />
<glyph unicode="b" horiz-adv-x="1171" d="M404 854q125 116 290 116q183 0 299 -118t116 -307q0 -246 -163.5 -401.5t-427.5 -155.5q-233 0 -421 112q31 275 31 729q0 200 -12.5 326t-45.5 199q117 56 214 56q75 0 109 -38t34 -122q0 -17 -3 -66.5t-9 -143t-11 -186.5zM402 280q71 -46 151 -46q108 0 179.5 76 t71.5 194q0 102 -58 164t-151 62q-95 0 -189 -58q-8 -123 -8 -249q0 -96 4 -143z" />
<glyph unicode="c" horiz-adv-x="889" d="M792 298q62 -77 62 -145q0 -79 -78 -126.5t-218 -47.5q-225 0 -361.5 123t-136.5 323q0 259 203 429q69 57 165.5 90.5t199.5 33.5q99 0 151 -34.5t52 -97.5q0 -76 -76 -156q-63 36 -137 36q-106 0 -180.5 -76t-74.5 -186q0 -105 61 -168.5t161 -63.5q107 0 207 66z" />
<glyph unicode="d" horiz-adv-x="1192" d="M1132 58h2q-112 -60 -203 -60q-71 0 -103 32.5t-32 104.5q0 23 2 35q-118 -180 -319 -180q-182 0 -300.5 127.5t-118.5 328.5q0 225 145 375q70 74 164 113.5t199 39.5t228 -47v37q0 310 -52 392q115 54 216 54q81 0 111 -37.5t30 -132.5q0 -20 -12.5 -254.5 t-12.5 -448.5q0 -193 11 -304t45 -175zM790 361q4 94 4 161q0 123 -4 179q-100 39 -164 39q-113 0 -183 -74.5t-70 -196.5q0 -104 54 -164t145 -60q121 0 218 116z" />
<glyph unicode="e" horiz-adv-x="1049" d="M877 270q62 -67 62 -123q0 -73 -86.5 -116t-245.5 -43q-263 0 -404 126t-141 359q0 225 143 365t375 140q191 0 307 -97t116 -247q0 -128 -89.5 -177t-297.5 -49q-141 0 -264 17v-4q0 -107 72 -164.5t208 -57.5q156 0 245 71zM365 578q146 -16 211 -16q74 0 105.5 15 t31.5 61q0 66 -41.5 106t-109.5 40q-80 0 -131.5 -53.5t-65.5 -152.5z" />
<glyph unicode="f" horiz-adv-x="748" d="M178 920v5q0 235 105.5 360t299.5 125q103 0 160 -39.5t57 -105.5q0 -79 -101 -131q-41 56 -102 56q-122 0 -122 -263q144 8 145 8q99 0 99 -89q0 -52 -37 -129q-54 17 -104 17q-7 0 -21 -0.5t-39.5 -1.5t-46.5 -2q0 -141 4 -269t8 -205.5t4 -95.5q0 -88 -30 -124 t-107 -36q-99 0 -222 56q57 118 57 487q0 116 -3 181q-19 0 -38.5 -1t-31 -1.5t-15.5 -0.5q-78 0 -78 77q0 38 35 125q38 -5 75 -5q31 0 49 2z" />
<glyph unicode="g" horiz-adv-x="1024" d="M995 1030q54 -51 54 -107q0 -50 -42 -77.5t-136 -43.5q58 -70 58 -161q0 -147 -111.5 -232.5t-307.5 -85.5q-50 0 -73 4q-27 -33 -27 -57q0 -15 5 -26.5t20 -20.5t28.5 -15t45 -13t53.5 -11t70 -12q204 -35 288.5 -89t84.5 -172q0 -150 -143 -249t-381 -99 q-220 0 -341 80t-121 220q0 86 50 153t145 106q-50 31 -50 91q0 71 95 160q-178 97 -178 265q0 144 118.5 243.5t302.5 99.5q123 0 238 -58q202 51 255 107zM510 788q-76 0 -121 -39t-45 -102q0 -59 46.5 -99t117.5 -40q73 0 118.5 40t45.5 99q0 63 -44 102t-118 39zM408 25 q-114 -50 -114 -131q0 -62 58 -100.5t158 -38.5q97 0 153 34t56 87q0 18 -6 32.5t-21.5 26t-32.5 20.5t-48.5 18.5t-60.5 17t-76 18.5q-43 10 -66 16z" />
<glyph unicode="h" horiz-adv-x="1175" d="M1115 54q-105 -54 -226 -54q-78 0 -108.5 33.5t-30.5 115.5q0 36 6.5 145t6.5 183q0 142 -33 203.5t-121 61.5q-74 0 -188 -60q-8 -91 -8 -224q0 -299 51 -404q-114 -54 -223 -54q-79 0 -107 35t-28 125q0 32 11 270t11 443q0 197 -10.5 309t-42.5 172q121 56 226 56 q77 0 107.5 -36t30.5 -124q0 -20 -2.5 -72t-7.5 -146t-8 -188q150 132 317 132q162 0 248 -93.5t86 -270.5q0 -41 -3.5 -130t-3.5 -138q0 -207 50 -290z" />
<glyph unicode="i" horiz-adv-x="574" d="M313 1428q69 0 113.5 -43.5t44.5 -109.5q0 -71 -53 -120.5t-132 -49.5q-69 0 -111 40.5t-42 106.5q0 73 52.5 124.5t127.5 51.5zM485 54q-112 -54 -228 -54q-76 0 -106.5 33t-30.5 112q0 32 8.5 178.5t8.5 261.5q0 230 -46 327q112 54 226 54q73 0 106 -34t33 -111 q0 -49 -9.5 -200t-9.5 -252q0 -198 48 -315z" />
<glyph unicode="j" horiz-adv-x="597" d="M336 1428q71 0 115 -44t44 -111q0 -72 -51.5 -120t-132.5 -48q-69 0 -111 40.5t-42 106.5q0 73 52 124.5t126 51.5zM114 912q129 56 228 56q50 0 79.5 -11.5t43.5 -42t18 -65.5t4 -101q0 -580 -50 -769q-31 -115 -103 -206.5t-159 -138t-171 -46.5q-49 0 -76 22t-27 63 q0 31 22 54.5t62 49.5t59 45q35 35 58.5 80.5t36.5 90.5t19.5 115t8 127.5t1.5 154.5q0 405 -54 522z" />
<glyph unicode="k" horiz-adv-x="1097" d="M1088 162q-16 -91 -59 -139t-107 -48q-63 0 -116 46q-27 21 -78.5 77t-139 149.5t-175.5 179.5q0 -274 51 -373q-114 -54 -221 -54q-78 0 -107.5 35.5t-29.5 124.5q0 37 11 272t11 434q0 200 -10.5 314t-42.5 174q121 56 226 56q77 0 107.5 -36t30.5 -122q0 -22 -6 -119 t-12 -256.5t-6 -335.5q169 161 258 265.5t106 167.5q112 -27 165 -61.5t53 -85.5q0 -50 -76 -118.5t-272 -213.5q69 -44 138.5 -106t111.5 -106.5t92.5 -80t96.5 -40.5z" />
<glyph unicode="l" horiz-adv-x="578" d="M487 54q-130 -54 -226 -54q-83 0 -111 39.5t-28 144.5q0 29 11.5 275.5t11.5 463.5q0 165 -12 267.5t-44 163.5q117 56 226 56q75 0 107 -35.5t32 -118.5q0 -37 -10.5 -262.5t-10.5 -413.5q0 -211 11 -335t43 -191z" />
<glyph unicode="m" horiz-adv-x="1793" d="M1723 54v-2q-108 -52 -222 -52q-73 0 -104 31.5t-31 105.5q0 56 6.5 173.5t6.5 178.5q0 131 -36 190t-124 59q-63 0 -160 -64q-6 -205 -6 -305q0 -106 9 -178.5t39 -138.5q-109 -54 -222 -54q-76 0 -105.5 34.5t-29.5 118.5q0 38 5.5 147t5.5 181q0 138 -33 198.5 t-121 60.5q-76 0 -168 -64q-8 -169 -8 -284q0 -243 46 -338q-107 -54 -220 -54q-73 0 -104 34t-31 113q0 43 11.5 202t11.5 275q0 212 -46 321q86 27 158 27q83 0 126 -31.5t50 -98.5q149 130 313 130q94 0 159 -34.5t115 -112.5q160 147 335 147q164 0 248 -95.5t84 -283.5 q0 -41 -4 -119t-4 -115q0 -220 50 -303z" />
<glyph unicode="n" horiz-adv-x="1213" d="M1138 54v-2q-108 -52 -224 -52q-76 0 -108.5 31.5t-32.5 105.5q0 49 6.5 163t6.5 179q0 138 -35.5 198.5t-126.5 60.5q-84 0 -184 -68q-9 -247 -9 -280q0 -236 48 -338q-111 -52 -224 -52q-79 0 -109 36t-30 126q0 38 11.5 191t11.5 269q0 230 -46 327q89 27 160 27 q83 0 129.5 -34t52.5 -98q158 132 318 132q181 0 261 -102t80 -321q0 -40 -2 -101t-2 -83q0 -232 48 -315z" />
<glyph unicode="o" horiz-adv-x="1213" d="M1151 504q0 -191 -121 -334q-165 -193 -435 -193q-237 0 -385 137.5t-148 353.5q0 224 159 370.5t407 146.5q230 0 376.5 -136t146.5 -345zM367 475q0 -109 66.5 -176t175.5 -67q102 0 171.5 71.5t69.5 181.5q0 113 -66.5 181t-174.5 68q-107 0 -174.5 -71t-67.5 -188z " />
<glyph unicode="p" horiz-adv-x="1207" d="M423 846q133 124 307 124q183 0 299.5 -125t116.5 -323q0 -85 -23 -163.5t-62 -132.5q-163 -226 -408 -226q-131 0 -238 73v-38q0 -300 51 -398q-114 -54 -217 -54q-78 0 -107.5 36t-29.5 122q0 26 7 132.5t13.5 280t6.5 362.5q0 157 -10 255.5t-42 169.5q82 27 160 27 q82 0 125 -29.5t51 -92.5zM423 303q84 -60 174 -60q105 0 173 71t68 181q0 105 -61 170t-157 65q-92 0 -193 -67q-4 -220 -4 -360z" />
<glyph unicode="q" horiz-adv-x="1188" d="M1126 -363q-119 -54 -216 -54q-80 0 -109.5 37t-29.5 129q0 9 5 140.5t5 253.5q-127 -145 -298 -145q-185 0 -304 125.5t-119 322.5q0 236 157.5 382t418.5 146q78 0 202.5 -16.5t171.5 -16.5q44 0 85 6q-34 -245 -34 -622q0 -280 13 -440.5t52 -247.5zM788 357 q2 60 2 197q0 120 -2 167q-82 19 -149 19q-125 0 -193.5 -70t-68.5 -197q0 -104 55.5 -165t147.5 -61q121 0 208 110z" />
<glyph unicode="r" horiz-adv-x="854" d="M423 726h4q64 126 130 186t148 60q66 0 108.5 -44t42.5 -115q0 -67 -37 -115t-118 -87q-14 86 -90 86q-90 0 -169 -152q-7 -73 -7 -162q0 -222 62 -325q-129 -60 -238 -60q-76 0 -108.5 33t-32.5 108q0 33 10.5 202t10.5 304q0 177 -46 294q103 31 179 31q83 0 120 -37.5 t37 -121.5q0 -33 -6 -85z" />
<glyph unicode="s" horiz-adv-x="736" d="M124 232q76 -41 154 -41q56 0 89 21.5t33 54.5q0 11 -3 20t-11 19t-15.5 17.5t-23.5 19t-27 18.5t-34 22.5t-37 24.5q-88 58 -126 107.5t-38 125.5q0 139 127 241.5t315 102.5q70 0 106.5 -27.5t36.5 -80.5q0 -65 -58 -133q-61 29 -119 29q-64 0 -101.5 -25.5 t-37.5 -61.5q0 -46 86 -110q12 -9 47 -35t45 -34t36.5 -29.5t34.5 -32t24 -30t21 -35t10 -36t5 -43.5q0 -134 -118.5 -229t-306.5 -95q-167 0 -167 120q0 59 53 135z" />
<glyph unicode="t" horiz-adv-x="777" d="M483 922q37 2 78 5t65 4.5t37 1.5q47 0 68 -16.5t21 -56.5q0 -60 -53 -139q-39 15 -110 15q-3 0 -18 -1t-42.5 -2.5t-57.5 -2.5q-15 -190 -15 -303q0 -214 116 -214q40 0 79 30q43 -56 43 -108q0 -66 -64 -105.5t-180 -39.5q-148 0 -220 77.5t-72 235.5q0 55 10.5 195.5 t13.5 224.5q-46 -6 -80 -6q-51 0 -74.5 17t-23.5 58q0 47 35 120q31 -6 75 -6q21 0 79 4q0 10 1 29t1 27q0 134 -40 214q115 55 206 55q70 0 103 -32.5t33 -101.5q0 -15 -14 -179z" />
<glyph unicode="u" horiz-adv-x="1171" d="M1099 58q-115 -60 -208 -60q-71 0 -101.5 32.5t-30.5 106.5v23q-130 -181 -330 -181q-160 0 -243.5 92.5t-83.5 272.5q0 40 5 136t5 150q0 204 -48 284q112 54 220 54q75 0 108 -31.5t33 -103.5q0 -49 -7.5 -166.5t-7.5 -187.5q0 -135 30 -193t111 -58q107 0 197 118 q4 80 4 118q0 338 -60 444q134 60 228 60q81 0 111 -38t30 -132q0 -22 -6 -154t-6 -242q0 -252 50 -344z" />
<glyph unicode="v" horiz-adv-x="1138" d="M713 898q89 76 201 76q81 0 125.5 -48t44.5 -136q0 -116 -69 -282.5t-198 -323.5q-166 -205 -324 -205q-44 0 -76.5 14t-56 38.5t-44 67.5t-38 91.5t-40.5 119.5q-5 17 -8 26q-65 200 -110.5 298.5t-113.5 146.5q106 181 230 181q17 0 31.5 -3t28 -11.5t24 -16t22 -25.5 t19.5 -30t18.5 -38.5t17 -44t17 -53t17 -57t19.5 -65.5q65 -227 81 -266q26 -63 51 -64q24 0 69 67q122 178 122 364q0 106 -60 179z" />
<glyph unicode="w" horiz-adv-x="1739" d="M1385 941q97 33 164 33q151 0 151 -139q0 -105 -61.5 -267t-183.5 -350q-156 -237 -294 -237q-36 0 -65.5 13.5t-55 46t-45.5 70.5t-43 105.5t-41 131.5t-44 166q-85 -274 -174.5 -403.5t-203.5 -129.5q-81 0 -128.5 58.5t-101.5 200.5q-15 38 -37.5 98t-35 92.5 t-31 80.5t-30 75.5t-28 63.5t-29 57.5t-27 44.5t-29 38.5t-29.5 26.5q121 145 224 145q23 0 41 -6t32 -14t27 -27t21.5 -34t20 -47t18.5 -54t21 -66.5t24 -74.5q56 -177 85.5 -251.5t47.5 -74.5q22 0 58.5 89.5t97.5 283.5q50 160 72 201q37 71 98 78q7 1 16 1q23 0 42 -7.5 t33 -19.5t27.5 -35t22.5 -45.5t21 -59.5t20.5 -69t23 -82t26.5 -90q43 -139 68.5 -201.5t41.5 -62.5q19 0 66 87q131 236 131 444q0 55 -25 116z" />
<glyph unicode="x" horiz-adv-x="1061" d="M54 813q75 161 203 161q28 0 52.5 -11.5t43.5 -29.5t43 -50.5t44.5 -65t54.5 -84t67 -95.5q143 172 143 260q0 11 -4 29q103 41 194 41q56 0 85.5 -23.5t29.5 -65.5q0 -60 -74 -148t-242 -246q13 -17 38 -49q60 -78 89 -114t68.5 -80.5t66.5 -64t53 -26.5 q-74 -155 -211 -155q-33 0 -58.5 12t-51.5 43.5t-45.5 62t-57.5 92t-71 109.5q-153 -161 -153 -251q0 -17 6 -35q-115 -33 -187 -33q-130 0 -130 99q0 23 8 46t32.5 55t43.5 54.5t68 69t77 72.5t98 89q-120 158 -192.5 235.5t-130.5 96.5z" />
<glyph unicode="y" horiz-adv-x="1109" d="M730 912q117 54 228 54q58 0 89 -24.5t31 -68.5q0 -23 -15 -69t-48.5 -125t-71 -163.5t-99.5 -226t-116 -270.5q-15 -37 -36.5 -89.5t-33 -81t-28.5 -67.5t-28 -59.5t-27 -46t-29.5 -38.5t-31.5 -25.5t-38 -17t-43 -4.5q-105 0 -199 149q93 72 150 193l39 80 q-161 387 -256 558.5t-161 171.5q35 113 93.5 171.5t130.5 58.5q43 0 70.5 -19t51.5 -62q12 -22 38.5 -98t78 -214t111.5 -280q179 414 179 526q0 54 -29 87z" />
<glyph unicode="z" horiz-adv-x="983" d="M891 278q38 -97 38 -141q0 -72 -42 -104.5t-134 -32.5q-23 0 -175 7.5t-282 7.5q-110 0 -186 -17q-42 65 -42 124q0 62 42 116q5 7 66 74.5t147.5 172t178.5 228.5q-90 6 -148 6q-145 0 -236 -37q-39 109 -39 147q0 69 46 98t149 29q53 0 191 -7.5t223 -7.5q107 0 170 19 q46 -74 46 -129q0 -44 -21 -81t-66 -89q-2 -3 -58 -66t-130 -151t-156 -193q144 -8 186 -8q150 0 232 35z" />
<glyph unicode="{" horiz-adv-x="761" d="M317 533q118 -19 159.5 -98.5t41.5 -254.5v-93q0 -108 15.5 -160.5t55.5 -63.5q18 -4 51 -4.5t48 -3.5q31 -6 50 -27.5t19 -51.5q0 -46 -45.5 -71.5t-131.5 -25.5q-176 0 -247.5 95.5t-71.5 312.5q0 27 1 80.5t1 79.5q0 86 -20.5 130.5t-72.5 59.5q-12 3 -36.5 9.5 t-34.5 9.5t-27.5 9t-24.5 11.5t-16.5 14.5t-12.5 20t-3 26q0 33 23.5 52.5t73.5 32.5q42 11 65.5 20.5t42.5 24.5t27 39.5t12 57.5t4 86v95q0 125 14 206t51 140t100.5 84.5t162.5 25.5q164 0 164 -95q0 -52 -49 -68q-17 -6 -90 -17q-56 -7 -78 -48t-22 -128q0 -16 1 -55.5 t1 -64.5q0 -175 -42.5 -264.5t-158.5 -127.5z" />
<glyph unicode="|" horiz-adv-x="966" d="M386 1476h194v-1932h-194v1932z" />
<glyph unicode="}" horiz-adv-x="761" d="M442 533q-116 38 -158.5 127.5t-42.5 264.5q0 25 1 72.5t1 70.5q0 83 -29 116t-102 39q-55 5 -81.5 24.5t-26.5 58.5q0 95 164 95q98 0 162.5 -26t101.5 -84t51.5 -140t14.5 -206v-93q0 -102 18.5 -151t76.5 -65q13 -4 40.5 -11t38 -10.5t28.5 -11t25 -15.5t13 -21t6 -30 q0 -37 -26.5 -55.5t-85.5 -33.5q-85 -21 -110 -61.5t-25 -148.5q0 -5 0.5 -67t0.5 -119q0 -196 -76.5 -284.5t-249.5 -88.5q-81 0 -125.5 26.5t-44.5 70.5q0 56 52 73q17 6 56.5 7.5t57.5 6.5q42 11 58.5 64t16.5 160q0 18 -1 67t-1 80q0 139 47.5 210.5t153.5 88.5z" />
<glyph unicode="~" horiz-adv-x="1609" d="M1076 636q63 0 109 15t100 46q1 1 13 9t14.5 9.5t13 8t15 8.5t14.5 6t17 5.5t16.5 3t19.5 1.5q51 0 81.5 -30.5t30.5 -78.5q0 -49 -40 -92q-70 -71 -177.5 -113t-228.5 -42q-17 0 -36 2t-32.5 3.5t-36 7t-31.5 7.5t-35.5 10.5t-32 10t-35.5 12t-33 11.5q-64 23 -94.5 33 t-80.5 20.5t-92 10.5q-49 0 -93 -17t-102 -51q-5 -3 -19 -11.5t-19.5 -11.5t-17.5 -9.5t-19 -9t-17.5 -6t-19.5 -5t-19 -1.5q-47 0 -78 31t-31 77q0 51 39 93q69 77 174.5 121.5t223.5 44.5q20 0 41 -2t36.5 -3.5t39 -7.5t33 -8t36.5 -11l31.5 -10.5t35 -12.5t31.5 -11 q4 -2 36 -13t39.5 -13.5t34 -11t38.5 -11t33.5 -7t38.5 -6t35 -1.5z" />
<glyph unicode="&#xa1;" horiz-adv-x="607" d="M106 1221q0 68 55 116t140 48q78 0 127 -45t49 -113q0 -74 -53.5 -122t-137.5 -48q-81 0 -130.5 45.5t-49.5 118.5zM498 64q-135 -83 -226 -83q-69 0 -106.5 39.5t-37.5 112.5q0 44 32.5 241.5t32.5 348.5q0 133 -50 195q80 52 143 52q83 0 121.5 -66.5t38.5 -206.5 q0 -48 -4.5 -154.5t-4.5 -165.5q0 -109 12.5 -182t48.5 -131z" />
<glyph unicode="&#xa2;" horiz-adv-x="1202" d="M524 964q-1 27 -3.5 74.5t-2.5 64.5q0 64 18.5 91t68.5 27q57 0 119 -37q-30 -77 -30 -193h17q103 0 157 -34.5t54 -98.5q0 -71 -76 -153q-58 39 -152 39q-115 0 -190 -71t-75 -178q0 -110 65 -178t171 -68q118 0 210 62q60 -86 60 -141q0 -71 -63 -117.5t-178 -56.5 q1 -29 3 -77.5t2 -63.5q0 -55 -19 -79.5t-62 -24.5q-49 0 -133 42q34 69 37 211q-192 39 -294 155t-102 295q0 183 104.5 318t293.5 192z" />
<glyph unicode="&#xa3;" horiz-adv-x="1202" d="M274 684q-21 68 -21 122q0 129 62 244.5t174 191.5q195 136 450 136q112 0 166 -30.5t54 -95.5q0 -60 -58 -155q-95 43 -191 43q-181 0 -286.5 -85t-105.5 -224q0 -54 21 -135q238 11 243 11q66 0 102 -26t36 -72q0 -51 -49 -130q-76 21 -193 21q-54 0 -85 -3 q19 -69 19 -113q0 -86 -48 -170q16 -1 60 -1q149 0 253.5 18t181.5 63q69 -96 69 -163q0 -80 -66 -113t-212 -33q-100 0 -266.5 13.5t-233.5 13.5q-107 0 -205 -29q-56 91 -56 137q0 116 166 116q31 0 68 -2q36 50 36 120q0 62 -23 131q-56 -8 -108 -8q-70 0 -101.5 23 t-31.5 76q0 39 40 110q30 -6 68 -6q17 0 71 4z" />
<glyph unicode="&#xa4;" horiz-adv-x="1157" d="M925 638q23 -23 56.5 -55.5t49.5 -49t34 -37.5t25 -38t7 -35q0 -38 -27 -66.5t-67 -28.5q-17 0 -34 6.5t-40 26.5t-37 33t-50 50.5t-54 55.5q-103 -54 -208 -54q-106 0 -207 54q-16 -16 -41 -41.5t-37.5 -38.5t-31 -31t-30 -26.5t-25.5 -18t-25.5 -13t-22.5 -3.5 q-39 0 -66.5 28.5t-27.5 66.5q0 18 7 35t25 38t34 37.5t49.5 49t56.5 55.5q-58 100 -58 202q0 105 58 205q-22 23 -56 56.5t-50 49.5t-34 38t-25 39t-7 34q0 38 27.5 66t66.5 28q10 0 19 -2t20 -8t19.5 -11t21.5 -16.5t21.5 -19.5t24.5 -25t25 -27t29 -31.5t31 -33.5 q107 56 207 56q117 0 210 -56q17 17 41 42t37 38.5t30.5 31t29 26.5t25.5 18t26 12.5t24 3.5q39 0 66.5 -27t27.5 -65q0 -18 -6 -34.5t-25.5 -40t-32.5 -37t-51 -49.5l-57 -54q57 -91 57 -205q0 -101 -55 -204zM804 842q0 93 -65 158t-157 65q-93 0 -158 -65t-65 -158 q0 -95 65 -159.5t158 -64.5q92 0 157 65t65 159z" />
<glyph unicode="&#xa5;" horiz-adv-x="1242" d="M21 1157q81 192 215 192q77 0 123 -74q11 -18 44 -79t101 -188.5t135 -250.5q133 213 188.5 320.5t55.5 176.5q0 20 -6 46q142 43 217 43q113 0 113 -87q0 -79 -216 -354q61 6 106 6q52 0 74.5 -14.5t22.5 -49.5q0 -44 -44 -106q-48 19 -153 19q-28 0 -104 -4l-105 -129 q310 10 313 10q97 0 97 -70q0 -39 -41 -100q-55 17 -170 17q-57 0 -222 -6q0 -301 43 -427q-113 -52 -217 -52q-79 0 -106 30t-27 115q0 9 2 51.5t5 119t4 159.5q-247 -9 -295 -9q-69 0 -100 16.5t-31 58.5q0 35 46 106q38 -17 120 -23t233 -6q-17 27 -50 75t-38 55 q-137 -8 -207 -8q-104 0 -104 68q0 35 48 106q54 -23 178 -23q-141 227 -248 270z" />
<glyph unicode="&#xa6;" horiz-adv-x="966" d="M386 1350h194v-755h-194v755zM386 425h194v-755h-194v755z" />
<glyph unicode="&#xa7;" horiz-adv-x="1030" d="M759 1122q-51 35 -106 35q-48 0 -78 -23.5t-30 -55.5t27 -64.5t85 -74.5q11 -8 44.5 -32.5t43.5 -32t36.5 -29t35.5 -30t28.5 -28t26 -31t19 -30.5t16 -35.5t7.5 -37t4 -42.5q0 -184 -222 -281q127 -102 127 -228q0 -134 -127.5 -233t-316.5 -99q-91 0 -141.5 37 t-50.5 102q0 62 80 159q79 -53 150 -53q47 0 75 19t28 49q0 29 -24.5 56t-85.5 77q-28 22 -79 60.5t-74 57t-57 50.5t-49 57t-27 59.5t-12 73.5q0 178 222 282q-102 92 -102 203q0 139 137 243q132 104 298 104q84 0 129.5 -34t45.5 -93q0 -71 -83 -157zM531 421 q155 56 155 166q0 40 -44.5 80.5t-141.5 97.5q-158 -58 -158 -158q0 -46 45 -88t144 -98z" />
<glyph unicode="&#xa9;" horiz-adv-x="1588" d="M102 668q0 284 205 489q98 98 222 149.5t263 51.5q138 0 263.5 -52t223.5 -151q98 -98 149.5 -223.5t51.5 -263.5t-51.5 -263t-149.5 -223q-199 -201 -487 -201q-139 0 -263 51.5t-222 149.5q-205 205 -205 486zM249 670q0 -108 41.5 -207t119.5 -177q158 -158 380 -158 t383 158q77 78 118.5 177.5t41.5 206.5q0 221 -160 381q-162 160 -383 160q-222 0 -380 -158q-161 -159 -161 -383zM1051 514q50 -70 50 -114q0 -54 -59 -83t-173 -29q-212 0 -334.5 102.5t-122.5 270.5q0 177 141 292t365 115q90 0 131 -20t41 -67q0 -46 -49 -123 q-74 31 -146 31q-118 0 -188.5 -59.5t-70.5 -155.5q0 -92 67 -149t180 -57q82 0 168 46z" />
<glyph unicode="&#xaa;" horiz-adv-x="682" d="M620 869q-74 -40 -135 -40q-74 0 -83 60q-84 -68 -184 -68q-90 0 -145.5 48t-55.5 122q0 91 75 144t209 53q29 0 95 -6v12q0 45 -32 69t-92 24q-101 0 -148 -62q-54 22 -54 68q0 50 64.5 81.5t180.5 31.5q143 0 204 -55t61 -182q0 -16 -1 -52.5t-1 -57.5q0 -67 8 -110 t34 -80zM392 987v99q-58 4 -64 4q-123 0 -123 -80q0 -30 22.5 -48.5t62.5 -18.5q55 0 102 44zM593 775q31 -49 31 -91q0 -45 -27 -62t-89 -17q-35 0 -114.5 4.5t-123.5 4.5q-136 0 -206 -29q-31 46 -31 85q0 87 116 87q39 0 121 -5.5t124 -5.5q128 0 199 29z" />
<glyph unicode="&#xab;" horiz-adv-x="838" d="M402 232q0 -25 -14.5 -39.5t-39.5 -14.5q-66 0 -174 89q-114 93 -114 204q0 78 93 174q116 116 195 116q25 0 39.5 -15t14.5 -41q0 -29 -26 -68.5t-51.5 -83t-25.5 -82.5q0 -34 16 -71.5t35.5 -63.5t35.5 -55t16 -49zM773 232q0 -25 -14.5 -39.5t-39.5 -14.5 q-66 0 -174 89q-114 92 -114 204q0 80 93 176q54 55 106.5 84.5t88.5 29.5q25 0 40.5 -16t15.5 -42q0 -23 -16.5 -53t-36 -55t-36 -59t-16.5 -65q0 -44 26 -90.5t51.5 -85t25.5 -63.5z" />
<glyph unicode="&#xac;" horiz-adv-x="1609" d="M452 860h829q73 0 106 -33.5t33 -105.5v-298q0 -49 -30 -78.5t-80 -29.5q-48 0 -79 30.5t-31 77.5v195q0 13 -5 18t-18 5h-733q-56 0 -89.5 30.5t-33.5 78.5t35.5 79t95.5 31z" />
<glyph unicode="&#xad;" horiz-adv-x="707" d="M638 634q9 -77 9 -107q0 -191 -185 -191q-44 0 -128 11.5t-123 11.5q-85 0 -149 -29q-10 72 -10 107q0 98 46.5 144.5t142.5 46.5q47 0 126.5 -11.5t111.5 -11.5q100 0 159 29z" />
<glyph unicode="&#xae;" horiz-adv-x="1588" d="M102 668q0 284 205 489q98 98 222 149.5t263 51.5q138 0 263.5 -52t223.5 -151q98 -98 149.5 -223.5t51.5 -263.5t-51.5 -263t-149.5 -223q-199 -201 -487 -201q-139 0 -263 51.5t-222 149.5q-205 205 -205 486zM249 670q0 -108 41.5 -207t119.5 -177q158 -158 380 -158 q223 0 383 160q77 77 118.5 175.5t41.5 206.5q0 221 -160 381q-162 160 -383 160t-380 -156q-161 -163 -161 -385zM925 624q53 -16 137 -93.5t142 -95.5q-37 -143 -134 -143q-27 0 -59.5 20.5t-58 45t-81.5 82.5q-14 14 -39 42.5t-37 40t-31.5 22.5t-39.5 11q-17 0 -27 -2 q0 -140 35 -222q-91 -38 -152 -38q-57 0 -79 24t-22 84q0 25 7 137t7 199q0 234 -37 303h108q36 0 119 6t130 6q133 0 203 -55t70 -158q0 -151 -161 -216zM694 682h19q72 0 115 36t43 93q0 44 -29.5 70.5t-82.5 26.5q-20 0 -60 -8q-5 -128 -5 -218z" />
<glyph unicode="&#xb0;" horiz-adv-x="634" d="M607 1090q0 -121 -84 -204.5t-206 -83.5q-121 0 -203.5 83t-82.5 205t83 205t205 83q120 0 204 -84t84 -204zM185 1090q0 -56 39.5 -95t94.5 -39t94 39.5t39 94.5t-39 94t-94 39t-94.5 -39t-39.5 -94z" />
<glyph unicode="&#xb1;" horiz-adv-x="1609" d="M916 838h371q46 0 76 -29t30 -75t-30 -75t-78 -29h-369v-188q0 -48 -30 -78t-80 -30q-48 0 -79 31t-31 77v188h-366q-47 0 -78.5 29.5t-31.5 74.5q0 48 30.5 76t79.5 28h366v186q0 49 30 79.5t80 30.5q48 0 79 -30.5t31 -77.5v-188zM1279 -21h-949q-46 0 -77 31t-31 79 q0 49 30 78.5t78 29.5h951q47 0 77.5 -30t30.5 -78q0 -49 -31 -79.5t-79 -30.5z" />
<glyph unicode="&#xb2;" horiz-adv-x="840" d="M726 736q27 -63 27 -118q0 -63 -40 -89.5t-130 -26.5q-63 0 -172.5 5t-155.5 5q-94 0 -172 -14q-29 53 -29 95q0 19 5.5 37t12.5 32t23.5 31.5t29 29t39.5 31t44 31t53.5 35.5t57.5 38q96 66 141.5 117.5t45.5 102.5q0 50 -36.5 81t-96.5 31q-128 0 -186 -133 q-87 53 -87 135q0 78 82 132t214 54q158 0 252 -76t94 -197q0 -105 -89.5 -206.5t-271.5 -208.5h87q172 0 258 46z" />
<glyph unicode="&#xb3;" horiz-adv-x="840" d="M553 952q94 -19 142.5 -69.5t48.5 -127.5q0 -114 -122 -193t-319 -79q-233 0 -233 122q0 50 56 112q81 -50 197 -50q82 0 128.5 28.5t46.5 71.5q0 48 -41.5 68.5t-135.5 26.5q-77 4 -111 19t-34 54q0 41 38.5 55.5t139.5 26.5q7 1 11 1q62 7 97 33.5t35 63.5 q0 38 -31.5 59.5t-90.5 21.5q-112 0 -188 -64q-73 45 -73 108q0 62 75 100t211 38q150 0 241 -64t91 -159q0 -138 -179 -203z" />
<glyph unicode="&#xb6;" horiz-adv-x="1281" d="M1192 -122q-122 -63 -205 -63t-113 42t-30 143q0 33 6 140.5t8 184.5q-184 -58 -300 -58q-225 0 -368.5 154t-143.5 402q0 256 168.5 412t457.5 156q64 0 185.5 -10.5t178.5 -10.5q85 0 127 2q-42 -279 -42 -715q0 -290 15 -476t56 -303zM856 491v701q-61 14 -87 14 q-106 0 -165 -90.5t-59 -255.5q0 -174 61.5 -278.5t150.5 -104.5q38 0 99 14z" />
<glyph unicode="&#xb7;" horiz-adv-x="601" d="M288 495q-81 0 -130.5 48.5t-49.5 126.5q0 85 54.5 138.5t142.5 53.5q84 0 135 -50t51 -132q0 -76 -58.5 -130.5t-144.5 -54.5z" />
<glyph unicode="&#xb9;" horiz-adv-x="707" d="M524 543q-86 -43 -172 -43q-72 0 -103 28.5t-31 97.5q0 32 10 173t10 250q0 83 -2 124q-52 -22 -76 -22q-61 0 -61 62q0 51 32 118q64 5 150 25t111 20q58 0 82 -24t24 -83q0 -11 -9.5 -152t-9.5 -269q0 -205 45 -305z" />
<glyph unicode="&#xba;" horiz-adv-x="738" d="M703 1124q0 -129 -100 -221t-242 -92q-143 0 -234.5 83t-91.5 209q0 131 97.5 217t251.5 86q140 0 229.5 -80.5t89.5 -201.5zM232 1107q0 -59 38.5 -99t96.5 -40q57 0 96 41.5t39 103.5t-37 100.5t-96 38.5t-98 -40.5t-39 -104.5zM618 777q33 -58 33 -101 q0 -39 -28.5 -55t-89.5 -16q-33 0 -102.5 3.5t-105.5 3.5q-147 0 -209 -27q-27 44 -27 91q0 81 114 81q37 0 113 -5.5t115 -5.5q128 0 187 31z" />
<glyph unicode="&#xbb;" horiz-adv-x="838" d="M120 761q66 0 174 -89q114 -93 114 -204q0 -82 -93 -174q-56 -57 -109.5 -87.5t-85.5 -30.5q-26 0 -41 15t-15 41q0 29 26 69t52 84t26 83q0 44 -25.5 90.5t-51 85.5t-25.5 65q0 52 54 52zM437 709q0 52 58 52q27 0 84 -30.5t109 -81.5q91 -91 91 -181q0 -79 -93 -174 q-54 -56 -108 -87t-87 -31q-26 0 -41 15t-15 41q0 29 26 69t52 84t26 83q0 44 -25.5 90.5t-51 85.5t-25.5 65z" />
<glyph unicode="&#xbc;" horiz-adv-x="1862" d="M1157 1378q41 7 72 7q62 0 97.5 -27t35.5 -75q0 -26 -17.5 -65t-62 -105t-87 -124.5t-127.5 -174t-148 -203.5q-180 -251 -269 -396.5t-106 -235.5q-49 -6 -74 -6q-62 0 -97.5 29t-35.5 77q0 17 5.5 36.5t20.5 46.5t27.5 48t41.5 61t47.5 64.5t60 79.5t64.5 85 q269 369 395.5 563.5t156.5 314.5zM108 1335q66 7 146.5 25t99.5 18q53 0 76.5 -24t23.5 -79q0 -21 -10.5 -163.5t-10.5 -263.5q0 -105 8.5 -175.5t35.5 -129.5q-85 -41 -164 -41q-69 0 -97.5 27t-28.5 95q0 10 10 162t10 296q0 10 -4 110q-63 -27 -85 -27q-52 0 -52 62 q0 54 42 108zM1787 412q27 -59 27 -89q0 -52 -33.5 -72.5t-111.5 -20.5h-11q2 -35 2 -116q0 -64 -21 -89t-82 -25q-66 0 -158 43q34 62 40 191q-47 0 -125 1t-110 1q-83 0 -161 -12q-42 42 -42 93q0 25 9 50t35.5 60t46 57.5t67.5 74.5q14 15 21 23q161 176 217 226 q106 96 185 96q49 0 72 -23.5t23 -72.5q0 -8 -4.5 -63t-9.5 -152t-5 -207h11q55 0 118 26zM1447 676l-4 -4q-55 -64 -120.5 -137t-89.5 -101.5t-24 -37.5q0 -17 53 -17q3 0 26.5 1t65.5 2t91 1q4 154 4 218q0 50 -2 75z" />
<glyph unicode="&#xbd;" horiz-adv-x="1862" d="M1146 1378q41 7 71 7q62 0 97 -27t35 -75q0 -26 -17.5 -65t-62 -105t-87 -124t-128 -174t-148.5 -204q-181 -254 -269.5 -398t-105.5 -234q-49 -6 -73 -6q-62 0 -96.5 28.5t-34.5 77.5q0 17 5.5 36.5t20 46.5t27.5 48.5t42 61t47.5 64.5t59 78.5t64.5 85.5 q269 368 395.5 563t157.5 315zM108 1335q66 7 146.5 25t99.5 18q53 0 76.5 -24t23.5 -79q0 -21 -10.5 -163.5t-10.5 -263.5q0 -105 8.5 -175.5t35.5 -129.5q-85 -41 -164 -41q-69 0 -97.5 27t-28.5 95q0 10 10 162t10 296q0 10 -4 110q-63 -27 -85 -27q-52 0 -52 62 q0 54 42 108zM1754 238q31 -73 31 -120q0 -64 -41.5 -91t-134.5 -27q-66 0 -179 5t-159 5q-95 0 -176 -14q-27 52 -27 99q0 28 9 52t19 39.5t37 36.5t42 30.5t56.5 34t59.5 35.5q122 75 180.5 134.5t58.5 116.5q0 49 -36.5 78.5t-100.5 29.5q-121 0 -187 -128 q-93 53 -93 134q0 78 84.5 133.5t220.5 55.5q161 0 257.5 -77t96.5 -197q0 -207 -362 -412h60q189 0 284 47z" />
<glyph unicode="&#xbe;" horiz-adv-x="1984" d="M1304 1378q41 7 72 7q62 0 97.5 -27t35.5 -75q0 -26 -17.5 -65t-62 -105t-87 -124t-128 -174t-148.5 -204q-180 -252 -268.5 -397t-105.5 -235q-50 -6 -74 -6q-62 0 -96.5 28.5t-34.5 77.5q0 17 5.5 36.5t20 46t28 49t41.5 61t47.5 65t59 79t64.5 86.5q264 358 392 556.5 t159 319.5zM502 954q97 -14 148 -66t51 -135q0 -114 -114.5 -190t-300.5 -76q-222 0 -222 116q0 52 52 104q71 -48 180 -48q81 0 127 29.5t46 78.5q0 53 -38.5 72.5t-129.5 26.5q-70 4 -102.5 19.5t-32.5 51.5q0 19 8.5 31.5t29.5 20.5t43 12.5t62 10.5q18 3 27 4 q60 10 95 39t35 66q0 39 -31.5 61t-90.5 22q-105 0 -172 -64q-66 41 -66 102q0 59 73 97.5t198 38.5q142 0 227.5 -62.5t85.5 -156.5q0 -141 -188 -205zM1917 412q27 -59 27 -89q0 -52 -33.5 -72.5t-111.5 -20.5h-12q2 -35 2 -116q0 -64 -20.5 -89t-81.5 -25q-67 0 -159 43 q35 64 41 191q-47 0 -125 1t-111 1q-82 0 -160 -12q-43 43 -43 93q0 59 74 147q19 23 106 118q161 176 217 226q106 96 185 96q94 0 94 -96q0 -8 -5 -63t-9.5 -152t-4.5 -207h12q55 0 118 26zM1577 674q-39 -45 -81 -92t-67.5 -75t-48 -53t-32 -38.5t-9.5 -19.5 q0 -17 52 -17q3 0 26.5 1t66 2t91.5 1q3 115 3 218q0 50 -1 73z" />
<glyph unicode="&#xbf;" horiz-adv-x="784" d="M272 1209q0 68 55 116.5t139 48.5q77 0 126 -45.5t49 -113.5q0 -73 -52.5 -121.5t-134.5 -48.5t-132 45.5t-50 118.5zM663 284q50 -94 50 -156q0 -67 -66 -113t-172 -46q-168 0 -286.5 105.5t-118.5 244.5q0 132 106 261q12 15 40.5 48.5t39 47t31 39.5t28.5 41t19 35.5 t14.5 38.5t3.5 36q0 28 -12 83q55 5 91 5q88 0 134.5 -38t46.5 -108q0 -58 -33 -112.5t-108 -142.5q-39 -47 -55 -66.5t-39 -52.5t-31 -59t-8 -54q0 -52 35.5 -83t99.5 -31q56 0 124 34q27 16 66 43z" />
<glyph unicode="&#xc0;" horiz-adv-x="1453" d="M564 1818q35 0 64.5 -22t80 -80t81.5 -87q20 -19 44.5 -40.5t37 -32t21.5 -23t9 -24.5q0 -35 -42 -35q-31 0 -103.5 26.5t-167.5 79.5q-121 67 -121 149q0 41 25.5 65t70.5 24zM1455 114h-2q-152 -118 -257 -118q-38 0 -68.5 14.5t-53 38.5t-46.5 73t-42.5 97.5 t-46.5 132.5h-500q-84 -163 -84 -250q0 -26 12 -56q-92 -46 -187 -46q-80 0 -115.5 28.5t-35.5 97.5q0 61 62.5 191t194.5 390.5t238 511.5q-32 63 -56 91q122 68 233 68q94 0 148.5 -47t106.5 -162q23 -50 124.5 -306t194.5 -455q86 -185 180 -294zM535 582h311 q-69 204 -149 399q-87 -203 -162 -399z" />
<glyph unicode="&#xc1;" horiz-adv-x="1453" d="M943 1729q0 -78 -122 -149q-93 -53 -166 -79.5t-101 -26.5q-22 0 -35 9.5t-13 25.5t18.5 35t60 54t72.5 67q17 18 52 58.5t49 54t39.5 28t50.5 14.5q43 0 69 -25t26 -66zM1455 114h-2q-152 -118 -257 -118q-38 0 -68.5 14.5t-53 38.5t-46.5 73t-42.5 97.5t-46.5 132.5 h-500q-84 -163 -84 -250q0 -26 12 -56q-92 -46 -187 -46q-80 0 -115.5 28.5t-35.5 97.5q0 61 62.5 191t194.5 390.5t238 511.5q-32 63 -56 91q122 68 233 68q94 0 148.5 -47t106.5 -162q23 -50 124.5 -306t194.5 -455q86 -185 180 -294zM535 582h311q-69 204 -149 399 q-87 -203 -162 -399z" />
<glyph unicode="&#xc2;" horiz-adv-x="1453" d="M1024 1526q0 -19 -11.5 -31.5t-29.5 -12.5q-25 0 -118 59q-10 7 -15 10q-134 85 -151 85q-10 0 -21.5 -4.5t-33.5 -18.5t-35.5 -24t-50.5 -36q-13 -9 -36 -26t-32.5 -24t-23.5 -16t-23 -12t-16 -3q-35 0 -35 45q0 5 1.5 10.5t4.5 12t6 12.5t9.5 14t11.5 14.5t14 16.5 t15 17.5t18 20.5t19 21q53 60 77 85t59.5 47t68.5 22q31 0 64 -17t56 -36t71 -64q8 -8 13 -12q66 -59 95 -94t29 -61zM1455 114h-2q-152 -118 -257 -118q-38 0 -68.5 14.5t-53 38.5t-46.5 73t-42.5 97.5t-46.5 132.5h-500q-84 -163 -84 -250q0 -26 12 -56q-92 -46 -187 -46 q-80 0 -115.5 28.5t-35.5 97.5q0 61 62.5 191t194.5 390.5t238 511.5q-32 63 -56 91q122 68 233 68q94 0 148.5 -47t106.5 -162q23 -50 124.5 -306t194.5 -455q86 -185 180 -294zM535 582h311q-69 204 -149 399q-87 -203 -162 -399z" />
<glyph unicode="&#xc3;" horiz-adv-x="1453" d="M1051 1714q0 -80 -63.5 -142.5t-145.5 -62.5q-52 0 -143.5 31t-132.5 31t-77 -21.5t-59.5 -42.5t-33.5 -21q-31 0 -31 42q0 74 69.5 139.5t162.5 65.5q52 0 141.5 -28t127.5 -28q30 0 57.5 11.5t44 26t32 26t24.5 11.5q27 0 27 -38zM1455 114h-2q-152 -118 -257 -118 q-38 0 -68.5 14.5t-53 38.5t-46.5 73t-42.5 97.5t-46.5 132.5h-500q-84 -163 -84 -250q0 -26 12 -56q-92 -46 -187 -46q-80 0 -115.5 28.5t-35.5 97.5q0 61 62.5 191t194.5 390.5t238 511.5q-32 63 -56 91q122 68 233 68q94 0 148.5 -47t106.5 -162q23 -50 124.5 -306 t194.5 -455q86 -185 180 -294zM535 582h311q-69 204 -149 399q-87 -203 -162 -399z" />
<glyph unicode="&#xc4;" horiz-adv-x="1453" d="M653 1648q0 -55 -37 -89.5t-100 -34.5q-54 0 -87 31.5t-33 80.5q0 54 37 90t93 36q59 0 93 -31t34 -83zM1018 1648q0 -55 -37 -89.5t-100 -34.5q-53 0 -85.5 31.5t-32.5 80.5q0 54 37 90t91 36q59 0 93 -31t34 -83zM1455 114h-2q-152 -118 -257 -118q-38 0 -68.5 14.5 t-53 38.5t-46.5 73t-42.5 97.5t-46.5 132.5h-500q-84 -163 -84 -250q0 -26 12 -56q-92 -46 -187 -46q-80 0 -115.5 28.5t-35.5 97.5q0 61 62.5 191t194.5 390.5t238 511.5q-32 63 -56 91q122 68 233 68q94 0 148.5 -47t106.5 -162q23 -50 124.5 -306t194.5 -455 q86 -185 180 -294zM535 582h311q-69 204 -149 399q-87 -203 -162 -399z" />
<glyph unicode="&#xc5;" horiz-adv-x="1453" d="M1455 114q-147 -114 -259 -114q-38 0 -68 14t-53 37.5t-47 71.5t-42.5 97t-46.5 132h-500q-84 -163 -84 -250q0 -26 12 -56q-92 -46 -187 -46q-80 0 -115.5 28.5t-35.5 97.5q0 47 42 145t103 213.5t162 323t188 411.5q-32 63 -56 91q80 43 133 58q-161 74 -161 237 q0 109 73.5 182.5t182.5 73.5t183.5 -73.5t74.5 -180.5q0 -84 -43.5 -147t-124.5 -94q52 -15 91 -62.5t79 -134.5q23 -50 124.5 -306t194.5 -455q86 -185 180 -294zM699 1493q48 0 79.5 31.5t31.5 79.5q0 50 -32.5 82.5t-80.5 32.5t-81 -32.5t-33 -82.5q0 -48 32.5 -79.5 t83.5 -31.5zM535 582h311q-69 204 -149 399q-87 -203 -162 -399z" />
<glyph unicode="&#xc6;" horiz-adv-x="1758" d="M659 1279l-43 85q101 -4 331 -4q183 0 380 8t211 8q88 0 126 -28t38 -94q0 -77 -52 -172q-92 44 -294 44q-19 0 -189 -5l-6 -302q35 -2 116 -2q246 0 330 29q31 -68 31 -127q0 -71 -42 -100.5t-135 -29.5q-7 0 -47 1t-109.5 2t-147.5 1q-3 -209 -6 -346q102 -6 180 -6 q194 0 296 51q46 -98 46 -164q0 -76 -49.5 -102t-166.5 -26q-43 0 -125 2t-121 2q-61 0 -153 -3t-123 -3q-58 0 -80 21.5t-22 79.5q0 12 2 47.5t5 102t6 132.5h-402q-56 -100 -82 -162.5t-26 -116.5q0 -26 12 -56q-111 -48 -188 -48q-80 0 -125 37.5t-45 103.5q0 32 11 66 t38.5 81t50.5 81t72.5 104.5t78.5 113.5q258 379 418 694zM564 612h290q2 84 2 242q0 187 -4 276l-4 2z" />
<glyph unicode="&#xc7;" horiz-adv-x="1310" d="M846 -17q-15 -23 -15 -39q0 -12 8 -20t20 -12.5t34 -10.5q56 -15 80 -41.5t24 -81.5q0 -87 -75 -152.5t-182 -65.5q-79 0 -79 67q0 25 15 56q25 -11 56 -11q52 0 84 26t32 62q0 26 -16 35t-59 18q-50 9 -71.5 24.5t-21.5 50.5q0 36 54 100q-309 31 -491.5 216.5 t-182.5 465.5q0 332 280 551q109 86 267.5 135.5t333.5 49.5q140 0 208 -33.5t68 -105.5q0 -79 -73 -195q-107 52 -246 52q-211 0 -338 -118t-127 -312q0 -193 121.5 -310t316.5 -117q146 0 284 81q76 -95 76 -178q0 -91 -97.5 -139t-287.5 -48z" />
<glyph unicode="&#xc8;" horiz-adv-x="1086" d="M417 1818q35 0 65 -22t80 -79.5t81 -87.5q20 -19 44.5 -40.5t37 -32t21.5 -23t9 -24.5q0 -35 -42 -35q-31 0 -103 26.5t-168 79.5q-121 67 -121 149q0 41 25.5 65t70.5 24zM124 1360q209 -6 280 -6q106 0 260 11t202 11q87 0 125.5 -28t38.5 -94q0 -74 -52 -172 q-93 44 -294 44q-19 0 -189 -5l-6 -302q35 -2 118 -2q242 0 328 29q31 -71 31 -127q0 -71 -42 -100.5t-136 -29.5q-6 0 -46 1t-109.5 2t-147.5 1q-3 -209 -6 -346q102 -6 180 -6q194 0 295 51q47 -100 47 -164q0 -76 -49.5 -102t-167.5 -26q-43 0 -124.5 2t-120.5 2 q-40 0 -139.5 -2t-159.5 -2q-58 0 -80.5 21.5t-22.5 77.5q0 15 5.5 101.5t11.5 234.5t6 313q0 440 -36 612z" />
<glyph unicode="&#xc9;" horiz-adv-x="1086" d="M796 1729q0 -78 -122 -149q-93 -53 -165.5 -79.5t-100.5 -26.5q-23 0 -36 9.5t-13 25.5t18.5 35t60 54t72.5 67q17 18 52 58.5t49 54t39.5 28t50.5 14.5q43 0 69 -25t26 -66zM124 1360q209 -6 280 -6q106 0 260 11t202 11q87 0 125.5 -28t38.5 -94q0 -74 -52 -172 q-93 44 -294 44q-19 0 -189 -5l-6 -302q35 -2 118 -2q242 0 328 29q31 -71 31 -127q0 -71 -42 -100.5t-136 -29.5q-6 0 -46 1t-109.5 2t-147.5 1q-3 -209 -6 -346q102 -6 180 -6q194 0 295 51q47 -100 47 -164q0 -76 -49.5 -102t-167.5 -26q-43 0 -124.5 2t-120.5 2 q-40 0 -139.5 -2t-159.5 -2q-58 0 -80.5 21.5t-22.5 77.5q0 15 5.5 101.5t11.5 234.5t6 313q0 440 -36 612z" />
<glyph unicode="&#xca;" horiz-adv-x="1086" d="M877 1526q0 -19 -11.5 -31.5t-28.5 -12.5q-10 0 -21.5 3.5t-33 16t-32.5 19.5t-47 30q-134 85 -150 85q-18 0 -48 -18.5t-93 -64.5q-14 -10 -36.5 -26.5t-33 -23.5t-24 -15.5t-22.5 -12t-16 -3.5q-35 0 -35 45q0 5 1.5 10.5t4.5 12t6 12.5t9.5 14t11.5 14.5t14 16.5 t15 17.5t18 20.5t19 21q53 60 77 85t59.5 47t68.5 22q31 0 64 -17t56 -36t71 -64q9 -8 13 -12q66 -59 95 -94t29 -61zM124 1360q209 -6 280 -6q106 0 260 11t202 11q87 0 125.5 -28t38.5 -94q0 -74 -52 -172q-93 44 -294 44q-19 0 -189 -5l-6 -302q35 -2 118 -2 q242 0 328 29q31 -71 31 -127q0 -71 -42 -100.5t-136 -29.5q-6 0 -46 1t-109.5 2t-147.5 1q-3 -209 -6 -346q102 -6 180 -6q194 0 295 51q47 -100 47 -164q0 -76 -49.5 -102t-167.5 -26q-43 0 -124.5 2t-120.5 2q-40 0 -139.5 -2t-159.5 -2q-58 0 -80.5 21.5t-22.5 77.5 q0 15 5.5 101.5t11.5 234.5t6 313q0 440 -36 612z" />
<glyph unicode="&#xcb;" horiz-adv-x="1086" d="M506 1648q0 -55 -37 -89.5t-100 -34.5q-53 0 -86.5 31.5t-33.5 80.5q0 54 37 90t93 36q59 0 93 -31t34 -83zM871 1648q0 -55 -37 -89.5t-100 -34.5q-53 0 -85.5 31.5t-32.5 80.5q0 54 37 90t91 36q59 0 93 -31t34 -83zM124 1360q209 -6 280 -6q106 0 260 11t202 11 q87 0 125.5 -28t38.5 -94q0 -74 -52 -172q-93 44 -294 44q-19 0 -189 -5l-6 -302q35 -2 118 -2q242 0 328 29q31 -71 31 -127q0 -71 -42 -100.5t-136 -29.5q-6 0 -46 1t-109.5 2t-147.5 1q-3 -209 -6 -346q102 -6 180 -6q194 0 295 51q47 -100 47 -164q0 -76 -49.5 -102 t-167.5 -26q-43 0 -124.5 2t-120.5 2q-40 0 -139.5 -2t-159.5 -2q-58 0 -80.5 21.5t-22.5 77.5q0 15 5.5 101.5t11.5 234.5t6 313q0 440 -36 612z" />
<glyph unicode="&#xcc;" horiz-adv-x="697" d="M201 1818q35 0 64.5 -22t80 -80t81.5 -87q20 -19 44.5 -40.5t37 -32t21.5 -23t9 -24.5q0 -35 -42 -35q-31 0 -103.5 26.5t-167.5 79.5q-122 68 -122 149q0 41 26 65t71 24zM585 60q-133 -62 -266 -62q-100 0 -137 41t-37 148q0 33 11.5 250t11.5 403q0 347 -58 481 q127 60 261 60q97 0 137.5 -39t40.5 -133q0 -33 -12.5 -244.5t-12.5 -390.5q0 -190 13 -312.5t48 -201.5z" />
<glyph unicode="&#xcd;" horiz-adv-x="697" d="M582 1729q0 -78 -122 -149q-93 -53 -166 -79.5t-101 -26.5q-48 0 -48 35q0 16 18 35t60 54t73 67q17 19 51.5 58.5t49 53.5t39.5 28.5t51 14.5q43 0 69 -25t26 -66zM585 60q-133 -62 -266 -62q-100 0 -137 41t-37 148q0 33 11.5 250t11.5 403q0 347 -58 481 q127 60 261 60q97 0 137.5 -39t40.5 -133q0 -33 -12.5 -244.5t-12.5 -390.5q0 -190 13 -312.5t48 -201.5z" />
<glyph unicode="&#xce;" horiz-adv-x="697" d="M661 1526q0 -19 -12 -31.5t-29 -12.5q-25 0 -118 59q-10 7 -15 10q-134 85 -151 85q-10 0 -21.5 -4.5t-33.5 -18.5t-35.5 -24t-50.5 -36q-13 -9 -36 -26t-32.5 -24t-23.5 -16t-23 -12t-16 -3q-35 0 -35 45q0 5 1.5 10.5t4.5 12t6 12.5t9.5 14t11.5 14.5t14 16.5t15 17.5 t18 20.5t19 21q53 60 77 85t59 47t68 22q25 0 47 -7t53 -31t45 -36t60 -55q66 -60 95 -94.5t29 -60.5zM585 60q-133 -62 -266 -62q-100 0 -137 41t-37 148q0 33 11.5 250t11.5 403q0 347 -58 481q127 60 261 60q97 0 137.5 -39t40.5 -133q0 -33 -12.5 -244.5t-12.5 -390.5 q0 -190 13 -312.5t48 -201.5z" />
<glyph unicode="&#xcf;" horiz-adv-x="697" d="M290 1648q0 -55 -37 -89.5t-100 -34.5q-54 0 -87 31.5t-33 80.5q0 54 37 90t92 36q59 0 93.5 -31.5t34.5 -82.5zM655 1648q0 -55 -37 -89.5t-100 -34.5q-53 0 -85.5 31.5t-32.5 80.5q0 54 36.5 90t90.5 36q59 0 93.5 -31t34.5 -83zM585 60q-133 -62 -266 -62 q-100 0 -137 41t-37 148q0 33 11.5 250t11.5 403q0 347 -58 481q127 60 261 60q97 0 137.5 -39t40.5 -133q0 -33 -12.5 -244.5t-12.5 -390.5q0 -190 13 -312.5t48 -201.5z" />
<glyph unicode="&#xd0;" horiz-adv-x="1559" d="M124 1378q124 1 236.5 4t173 5t71.5 2q185 0 323.5 -26t253.5 -92q154 -87 234.5 -225t80.5 -312q0 -342 -258.5 -543t-724.5 -201q-203 0 -278.5 37.5t-75.5 148.5q0 13 3 70t7.5 161.5t7.5 218.5q-36 -4 -52 -4q-118 0 -118 87q0 37 33 101q73 -10 119 -10h22v23 q0 413 -58 555zM535 284q65 -12 118 -12q221 0 349 116t128 308q0 200 -125.5 316t-343.5 116q-64 0 -124 -7q-6 -164 -6 -311q47 1 91 4t69 5t32 2q115 0 115 -91q0 -43 -38 -108q-58 17 -188 17q-58 0 -85 -1v-33q0 -185 8 -321z" />
<glyph unicode="&#xd1;" horiz-adv-x="1582" d="M1136 1714q0 -80 -63.5 -142.5t-145.5 -62.5q-52 0 -143.5 31t-132.5 31t-77 -21.5t-59.5 -42.5t-33.5 -21q-31 0 -31 42q0 74 69.5 139.5t162.5 65.5q52 0 141.5 -28t127.5 -28q30 0 57.5 11.5t44 26t32 26t24.5 11.5q27 0 27 -38zM1459 68q-81 -34 -292 -89l-744 873 q1 -215 10 -435.5t9 -234.5q0 -97 -33.5 -139.5t-112.5 -42.5q-104 0 -228 60q54 85 75 257.5t21 461.5q0 220 -19.5 322t-90.5 145q57 67 112.5 98.5t121.5 31.5q60 0 108.5 -31t109.5 -97q45 -48 133 -158t233.5 -290.5t288.5 -349.5q6 165 6 267q0 238 -17 380.5 t-66 223.5q123 58 207 58q91 0 123.5 -44.5t32.5 -157.5q0 -35 -9.5 -254.5t-9.5 -404.5q0 -283 31 -450z" />
<glyph unicode="&#xd2;" horiz-adv-x="1675" d="M699 1818q35 0 65 -22t80 -79.5t81 -87.5q20 -19 44.5 -40.5t37 -32t21.5 -23t9 -24.5q0 -35 -42 -35q-31 0 -103 26.5t-168 79.5q-121 67 -121 149q0 41 25.5 65t70.5 24zM858 1406q347 0 550 -182.5t203 -489.5q0 -305 -216 -521q-240 -242 -599 -242q-310 0 -516 189 q-216 200 -216 518q0 316 230 526q221 202 564 202zM1246 717q0 186 -108.5 298.5t-285.5 112.5q-193 0 -308 -119t-115 -319q0 -193 111 -312t289 -119q179 0 298 128.5t119 329.5z" />
<glyph unicode="&#xd3;" horiz-adv-x="1675" d="M1080 1729q0 -78 -122 -149q-93 -53 -165.5 -79.5t-100.5 -26.5q-23 0 -36 9.5t-13 25.5t18.5 35t60 54t72.5 67q17 18 52 58.5t49 54t39.5 28t50.5 14.5q43 0 69 -25t26 -66zM858 1406q347 0 550 -182.5t203 -489.5q0 -305 -216 -521q-240 -242 -599 -242 q-310 0 -516 189q-216 200 -216 518q0 316 230 526q221 202 564 202zM1246 717q0 186 -108.5 298.5t-285.5 112.5q-193 0 -308 -119t-115 -319q0 -193 111 -312t289 -119q179 0 298 128.5t119 329.5z" />
<glyph unicode="&#xd4;" horiz-adv-x="1675" d="M1159 1526q0 -19 -11.5 -31.5t-28.5 -12.5q-10 0 -21.5 3.5t-33 16t-32.5 19.5t-47 30q-134 85 -150 85q-18 0 -48 -18.5t-93 -64.5q-14 -10 -36.5 -26.5t-33 -23.5t-24 -15.5t-22.5 -12t-16 -3.5q-35 0 -35 45q0 5 1.5 10.5t4.5 12t6 12.5t9.5 14t11.5 14.5t14 16.5 t15 17.5t18 20.5t19 21q53 60 77 85t59.5 47t68.5 22t69.5 -20t56.5 -37.5t79 -71.5q65 -59 94 -94t29 -61zM858 1406q347 0 550 -182.5t203 -489.5q0 -305 -216 -521q-240 -242 -599 -242q-310 0 -516 189q-216 200 -216 518q0 316 230 526q221 202 564 202zM1246 717 q0 186 -108.5 298.5t-285.5 112.5q-193 0 -308 -119t-115 -319q0 -193 111 -312t289 -119q179 0 298 128.5t119 329.5z" />
<glyph unicode="&#xd5;" horiz-adv-x="1675" d="M1186 1714q0 -80 -63 -142.5t-145 -62.5q-52 0 -144 31t-133 31t-77 -21.5t-59.5 -42.5t-33.5 -21q-31 0 -31 42q0 74 70 139.5t162 65.5q52 0 142 -28t127 -28q30 0 58 11.5t44 26t31.5 26t24.5 11.5q27 0 27 -38zM858 1406q347 0 550 -182.5t203 -489.5 q0 -305 -216 -521q-240 -242 -599 -242q-310 0 -516 189q-216 200 -216 518q0 316 230 526q221 202 564 202zM1246 717q0 186 -108.5 298.5t-285.5 112.5q-193 0 -308 -119t-115 -319q0 -193 111 -312t289 -119q179 0 298 128.5t119 329.5z" />
<glyph unicode="&#xd6;" horiz-adv-x="1675" d="M788 1648q0 -55 -37 -89.5t-100 -34.5q-53 0 -86.5 31.5t-33.5 80.5q0 54 37 90t93 36q59 0 93 -31t34 -83zM1153 1648q0 -55 -37 -89.5t-100 -34.5q-53 0 -85.5 31.5t-32.5 80.5q0 54 37 90t91 36q59 0 93 -31t34 -83zM858 1406q347 0 550 -182.5t203 -489.5 q0 -305 -216 -521q-240 -242 -599 -242q-310 0 -516 189q-216 200 -216 518q0 316 230 526q221 202 564 202zM1246 717q0 186 -108.5 298.5t-285.5 112.5q-193 0 -308 -119t-115 -319q0 -193 111 -312t289 -119q179 0 298 128.5t119 329.5z" />
<glyph unicode="&#xd7;" horiz-adv-x="1495" d="M906 578l344 -342q33 -33 33 -83q0 -39 -34 -72t-74 -33q-48 0 -81 33l-342 340l-340 -342q-35 -33 -82 -33q-40 0 -74 34.5t-34 74.5q0 48 33 83l340 340l-338 340q-33 33 -33 83q0 38 34 71t74 33q50 0 81 -33l339 -338l340 338q32 33 79 33q40 0 74 -33t34 -71 q0 -50 -33 -83z" />
<glyph unicode="&#xd8;" horiz-adv-x="1675" d="M1410 1219q201 -187 201 -485q0 -305 -216 -521q-242 -244 -599 -244q-196 0 -359 83q-94 -129 -128 -237q-209 2 -209 112q0 40 36.5 92t126.5 155q-199 205 -199 504q0 314 230 526q109 99 253.5 151.5t310.5 52.5q210 0 369 -69q67 93 106 203q211 -6 211 -112 q0 -33 -31 -79t-103 -132zM1045 1088q-77 40 -201 40q-188 0 -302.5 -117t-114.5 -308q0 -173 68 -268q408 458 550 653zM620 319q72 -56 190 -56q194 0 314 125t120 331q0 148 -67 245q-381 -422 -557 -645z" />
<glyph unicode="&#xd9;" horiz-adv-x="1526" d="M632 1818q35 0 64.5 -22t79.5 -79.5t82 -87.5q22 -22 55 -49.5t45 -41.5t12 -29q0 -35 -43 -35q-30 0 -102.5 26.5t-167.5 79.5q-122 68 -122 149q0 41 26 65t71 24zM978 1318q132 63 241 63q118 0 160.5 -101.5t42.5 -346.5q0 -499 -168 -730.5t-541 -231.5 q-294 0 -439 139.5t-145 422.5q0 90 7 232t7 195q0 246 -58 361q133 60 247 60q98 0 136 -38.5t38 -135.5q0 -36 -8.5 -216.5t-8.5 -325.5q0 -218 57.5 -311t206.5 -93q172 0 247.5 135t75.5 425q0 357 -98 497z" />
<glyph unicode="&#xda;" horiz-adv-x="1526" d="M1012 1729q0 -79 -121 -149q-93 -53 -166 -79.5t-101 -26.5q-48 0 -48 35q0 16 18 35t59.5 54t72.5 67q18 19 52.5 58.5t49 54t39.5 28.5t51 14q43 0 68.5 -25t25.5 -66zM978 1318q132 63 241 63q118 0 160.5 -101.5t42.5 -346.5q0 -499 -168 -730.5t-541 -231.5 q-294 0 -439 139.5t-145 422.5q0 90 7 232t7 195q0 246 -58 361q133 60 247 60q98 0 136 -38.5t38 -135.5q0 -36 -8.5 -216.5t-8.5 -325.5q0 -218 57.5 -311t206.5 -93q172 0 247.5 135t75.5 425q0 357 -98 497z" />
<glyph unicode="&#xdb;" horiz-adv-x="1526" d="M1092 1526q0 -19 -12 -31.5t-29 -12.5q-13 0 -34.5 10t-39 21t-59.5 38q-134 85 -151 85q-18 0 -48 -18.5t-93 -64.5q-15 -11 -36.5 -26.5t-32.5 -23t-24 -16t-22 -12t-16 -3.5q-35 0 -35 45q0 27 53 88q8 10 27 30l18 21q52 59 77 84.5t60 47.5t68 22q25 0 47 -7t53 -31 t45 -36t60 -55q66 -60 95 -94.5t29 -60.5zM978 1318q132 63 241 63q118 0 160.5 -101.5t42.5 -346.5q0 -499 -168 -730.5t-541 -231.5q-294 0 -439 139.5t-145 422.5q0 90 7 232t7 195q0 246 -58 361q133 60 247 60q98 0 136 -38.5t38 -135.5q0 -36 -8.5 -216.5t-8.5 -325.5 q0 -218 57.5 -311t206.5 -93q172 0 247.5 135t75.5 425q0 357 -98 497z" />
<glyph unicode="&#xdc;" horiz-adv-x="1526" d="M721 1648q0 -55 -37.5 -89.5t-100.5 -34.5q-53 0 -86 31.5t-33 80.5q0 54 37 90t92 36q59 0 93.5 -31.5t34.5 -82.5zM1086 1648q0 -55 -37 -89.5t-100 -34.5q-53 0 -85.5 31.5t-32.5 80.5q0 54 36.5 90t90.5 36q59 0 93.5 -31.5t34.5 -82.5zM978 1318q132 63 241 63 q118 0 160.5 -101.5t42.5 -346.5q0 -499 -168 -730.5t-541 -231.5q-294 0 -439 139.5t-145 422.5q0 90 7 232t7 195q0 246 -58 361q133 60 247 60q98 0 136 -38.5t38 -135.5q0 -36 -8.5 -216.5t-8.5 -325.5q0 -218 57.5 -311t206.5 -93q172 0 247.5 135t75.5 425 q0 357 -98 497z" />
<glyph unicode="&#xdd;" horiz-adv-x="1260" d="M862 1729q0 -78 -122 -149q-93 -53 -166 -79.5t-101 -26.5q-48 0 -48 35q0 16 18.5 35t60 54t72.5 67q17 18 52 58.5t49 54t39.5 28t50.5 14.5q43 0 69 -25t26 -66zM860 1335q145 50 245 50q64 0 98.5 -27.5t34.5 -78.5q0 -27 -19 -67.5t-62 -104t-89.5 -127.5 t-126.5 -174.5t-147 -208.5q-2 -46 -2 -131q0 -280 54 -406q-124 -60 -255 -60q-94 0 -131 40t-37 140q0 11 3 61.5t7 141.5t6 191q-311 563 -458 597q43 108 107 164t140 56q51 0 88.5 -28t71.5 -86q5 -8 87 -172t168 -307q232 349 232 471q0 31 -15 66z" />
<glyph unicode="&#xde;" horiz-adv-x="1221" d="M518 1171q100 11 164 11q242 0 371 -106.5t129 -302.5q0 -218 -149.5 -352.5t-396.5 -134.5q-45 0 -132 10q12 -153 50 -234q-137 -64 -258 -64q-91 0 -123 41.5t-32 147.5q0 42 11.5 247t11.5 368q0 395 -58 519q135 62 248 62q88 0 128 -35.5t40 -116.5q0 -10 -4 -60z M497 529q53 -5 94 -5q115 0 175.5 56t60.5 160q0 187 -213 187q-66 0 -106 -11q-11 -182 -11 -387z" />
<glyph unicode="&#xdf;" horiz-adv-x="1095" d="M75 54q56 131 56 481q0 73 -2.5 188t-2.5 156q0 265 120 399t355 134q184 0 301.5 -94t117.5 -228q0 -147 -133 -284l-32 -32t-28.5 -29t-20 -22t-14.5 -20.5t-4 -16.5t2 -16t8 -18t10.5 -16.5t16 -19.5t17.5 -19.5t22.5 -23l24.5 -24.5q81 -82 116.5 -135.5t35.5 -115.5 q0 -126 -120.5 -221.5t-292.5 -95.5q-69 0 -108 31.5t-39 84.5q0 54 62 139q76 -47 135 -47q46 0 73.5 23t27.5 58q0 20 -15 44t-33 42.5t-56.5 56t-63.5 64.5q-107 113 -107 191q0 22 7.5 42.5t27 45.5t34.5 41t50.5 52t54.5 55q74 77 74 151q0 63 -43.5 102t-117.5 39 q-111 0 -152 -86q-35 -74 -38 -278q-1 -45 -1 -138q0 -121 7.5 -298.5t7.5 -233.5q0 -87 -31.5 -124.5t-109.5 -37.5q-76 0 -199 54z" />
<glyph unicode="&#xe0;" horiz-adv-x="1055" d="M388 1397q35 0 64.5 -22t80.5 -80.5t81 -87.5q19 -19 44 -40l37.5 -31.5t21.5 -23t9 -24.5q0 -35 -42 -35q-31 0 -103 26.5t-168 79.5q-121 67 -121 149q0 41 25.5 65t70.5 24zM989 66q-113 -66 -203 -66q-112 0 -125 108q-68 -62 -135.5 -91t-148.5 -29 q-142 0 -227.5 78.5t-85.5 205.5q0 154 118.5 244.5t327.5 90.5q58 0 145 -12v35q0 73 -53 114.5t-150 41.5q-162 0 -239 -106q-78 38 -78 108q0 84 100 138t277 54q217 0 317 -92t100 -291q0 -4 -2 -74.5t-2 -136.5q0 -231 64 -320zM651 377v62q-57 9 -104 9 q-100 0 -153.5 -37.5t-53.5 -105.5q0 -57 37 -90t102 -33q95 0 174 79q-2 31 -2 116z" />
<glyph unicode="&#xe1;" horiz-adv-x="1055" d="M769 1308q0 -78 -122 -149q-93 -53 -165.5 -79.5t-100.5 -26.5q-49 0 -49 35q0 16 18.5 35t60 54t72.5 67q17 18 52 58.5t49 54t39.5 28t50.5 14.5q43 0 69 -25t26 -66zM989 66q-113 -66 -203 -66q-112 0 -125 108q-68 -62 -135.5 -91t-148.5 -29q-142 0 -227.5 78.5 t-85.5 205.5q0 154 118.5 244.5t327.5 90.5q58 0 145 -12v35q0 73 -53 114.5t-150 41.5q-162 0 -239 -106q-78 38 -78 108q0 84 100 138t277 54q217 0 317 -92t100 -291q0 -4 -2 -74.5t-2 -136.5q0 -231 64 -320zM651 377v62q-57 9 -104 9q-100 0 -153.5 -37.5t-53.5 -105.5 q0 -57 37 -90t102 -33q95 0 174 79q-2 31 -2 116z" />
<glyph unicode="&#xe2;" horiz-adv-x="1055" d="M848 1105q0 -19 -11.5 -31.5t-28.5 -12.5q-10 0 -21.5 3.5t-33 16t-32.5 19.5t-47 30q-134 85 -150 85q-18 0 -48 -18.5t-93 -64.5q-14 -10 -36.5 -26.5t-33 -23.5t-24 -15.5t-22.5 -12t-16 -3.5q-35 0 -35 44q0 5 1.5 11t4.5 12.5t6 12t9.5 14t11.5 14.5t14 17t15 17.5 t18 20t19 21.5q53 60 77 85t59.5 47t68.5 22q31 0 64 -17t56 -36t71 -64q9 -8 13 -12q66 -59 95 -94t29 -61zM989 66q-113 -66 -203 -66q-112 0 -125 108q-68 -62 -135.5 -91t-148.5 -29q-142 0 -227.5 78.5t-85.5 205.5q0 154 118.5 244.5t327.5 90.5q58 0 145 -12v35 q0 73 -53 114.5t-150 41.5q-162 0 -239 -106q-78 38 -78 108q0 84 100 138t277 54q217 0 317 -92t100 -291q0 -4 -2 -74.5t-2 -136.5q0 -231 64 -320zM651 377v62q-57 9 -104 9q-100 0 -153.5 -37.5t-53.5 -105.5q0 -57 37 -90t102 -33q95 0 174 79q-2 31 -2 116z" />
<glyph unicode="&#xe3;" horiz-adv-x="1055" d="M875 1293q0 -80 -63 -142.5t-145 -62.5q-53 0 -145 31t-132 31q-32 0 -62 -13.5t-47.5 -29t-34.5 -29t-26 -13.5q-31 0 -31 42q0 74 70 139.5t162 65.5q52 0 142 -28t127 -28q39 0 72 19t54.5 37.5t31.5 18.5q27 0 27 -38zM989 66q-113 -66 -203 -66q-112 0 -125 108 q-68 -62 -135.5 -91t-148.5 -29q-142 0 -227.5 78.5t-85.5 205.5q0 154 118.5 244.5t327.5 90.5q58 0 145 -12v35q0 73 -53 114.5t-150 41.5q-162 0 -239 -106q-78 38 -78 108q0 84 100 138t277 54q217 0 317 -92t100 -291q0 -4 -2 -74.5t-2 -136.5q0 -231 64 -320zM651 377 v62q-57 9 -104 9q-100 0 -153.5 -37.5t-53.5 -105.5q0 -57 37 -90t102 -33q95 0 174 79q-2 31 -2 116z" />
<glyph unicode="&#xe4;" horiz-adv-x="1055" d="M477 1227q0 -56 -37 -90t-100 -34q-53 0 -86.5 31.5t-33.5 80.5q0 54 37 90t93 36q58 0 92.5 -31.5t34.5 -82.5zM842 1227q0 -56 -37 -90t-100 -34q-53 0 -85.5 31.5t-32.5 80.5q0 54 37 90t91 36q58 0 92.5 -31.5t34.5 -82.5zM989 66q-113 -66 -203 -66q-112 0 -125 108 q-68 -62 -135.5 -91t-148.5 -29q-142 0 -227.5 78.5t-85.5 205.5q0 154 118.5 244.5t327.5 90.5q58 0 145 -12v35q0 73 -53 114.5t-150 41.5q-162 0 -239 -106q-78 38 -78 108q0 84 100 138t277 54q217 0 317 -92t100 -291q0 -4 -2 -74.5t-2 -136.5q0 -231 64 -320zM651 377 v62q-57 9 -104 9q-100 0 -153.5 -37.5t-53.5 -105.5q0 -57 37 -90t102 -33q95 0 174 79q-2 31 -2 116z" />
<glyph unicode="&#xe5;" horiz-adv-x="1055" d="M784 1298q0 -110 -73 -183.5t-182 -73.5q-110 0 -183.5 73t-73.5 182t73.5 182t181.5 73q110 0 183.5 -72.5t73.5 -180.5zM531 1184q48 0 79 31.5t31 78.5q0 51 -32 83.5t-80 32.5t-81 -33t-33 -83q0 -48 32.5 -79t83.5 -31zM989 66q-113 -66 -203 -66q-112 0 -125 108 q-68 -62 -135.5 -91t-148.5 -29q-142 0 -227.5 78.5t-85.5 205.5q0 154 118.5 244.5t327.5 90.5q58 0 145 -12v35q0 73 -53 114.5t-150 41.5q-162 0 -239 -106q-78 38 -78 108q0 84 100 138t277 54q217 0 317 -92t100 -291q0 -4 -2 -74.5t-2 -136.5q0 -231 64 -320zM651 377 v62q-57 9 -104 9q-100 0 -153.5 -37.5t-53.5 -105.5q0 -57 37 -90t102 -33q95 0 174 79q-2 31 -2 116z" />
<glyph unicode="&#xe6;" horiz-adv-x="1592" d="M811 840q125 130 311 130q191 0 307.5 -97t116.5 -247q0 -127 -89.5 -176.5t-297.5 -49.5q-109 0 -264 17v-4q0 -107 72 -164.5t208 -57.5q157 0 245 72q62 -68 62 -124q0 -73 -86 -114.5t-246 -41.5q-150 0 -250 38t-164 124q-89 -83 -174 -121t-185 -38 q-142 0 -227.5 76.5t-85.5 202.5q0 154 118 244t328 90q58 0 145 -12v35q0 74 -53 115.5t-150 41.5q-162 0 -239 -107q-78 38 -78 109q0 84 100 137.5t277 53.5q104 0 181 -34.5t118 -97.5zM908 580q88 -16 211 -16q75 0 106 15t31 59q0 66 -41.5 106t-109.5 40 q-79 0 -130 -52.5t-67 -151.5zM651 439q-57 9 -104 9q-100 0 -153.5 -37.5t-53.5 -105.5q0 -57 37 -90t102 -33q100 0 191 94q-19 66 -19 163z" />
<glyph unicode="&#xe7;" horiz-adv-x="889" d="M558 -21q-21 0 -59 2q-14 -22 -14 -37q0 -12 8 -20t20 -12.5t34 -10.5q56 -15 80 -41.5t24 -81.5q0 -87 -75 -152.5t-182 -65.5q-79 0 -79 67q0 25 15 56q25 -11 56 -11q52 0 84 26t32 62q0 26 -16 35t-59 18q-50 9 -71.5 24.5t-21.5 50.5q0 38 62 110 q-157 41 -246.5 154t-89.5 273q0 259 203 429q69 57 165.5 90.5t199.5 33.5q99 0 151 -34.5t52 -97.5q0 -76 -76 -156q-63 36 -137 36q-106 0 -180.5 -76t-74.5 -186q0 -105 61 -168.5t161 -63.5q107 0 207 66q62 -77 62 -145q0 -79 -78 -126.5t-218 -47.5z" />
<glyph unicode="&#xe8;" horiz-adv-x="1049" d="M427 1397q35 0 64.5 -22t80.5 -80.5t81 -87.5q19 -19 44 -40l37.5 -31.5t21.5 -23t9 -24.5q0 -35 -42 -35q-31 0 -103.5 26.5t-167.5 79.5q-122 68 -122 149q0 41 26 65t71 24zM877 270q62 -67 62 -123q0 -73 -86.5 -116t-245.5 -43q-263 0 -404 126t-141 359 q0 225 143 365t375 140q191 0 307 -97t116 -247q0 -128 -89.5 -177t-297.5 -49q-141 0 -264 17v-4q0 -107 72 -164.5t208 -57.5q156 0 245 71zM365 578q146 -16 211 -16q74 0 105.5 15t31.5 61q0 66 -41.5 106t-109.5 40q-80 0 -131.5 -53.5t-65.5 -152.5z" />
<glyph unicode="&#xe9;" horiz-adv-x="1049" d="M808 1308q0 -78 -122 -149q-93 -53 -166 -79.5t-101 -26.5q-48 0 -48 35q0 16 18 34.5t60 54t73 67.5q17 19 51.5 58.5t49 53.5t39.5 28.5t51 14.5q43 0 69 -25t26 -66zM877 270q62 -67 62 -123q0 -73 -86.5 -116t-245.5 -43q-263 0 -404 126t-141 359q0 225 143 365 t375 140q191 0 307 -97t116 -247q0 -128 -89.5 -177t-297.5 -49q-141 0 -264 17v-4q0 -107 72 -164.5t208 -57.5q156 0 245 71zM365 578q146 -16 211 -16q74 0 105.5 15t31.5 61q0 66 -41.5 106t-109.5 40q-80 0 -131.5 -53.5t-65.5 -152.5z" />
<glyph unicode="&#xea;" horiz-adv-x="1049" d="M887 1105q0 -19 -12 -31.5t-29 -12.5q-25 0 -118 59q-10 7 -15 10q-134 85 -151 85q-10 0 -21.5 -4.5t-33.5 -18.5t-35.5 -24t-50.5 -36q-13 -9 -36 -26t-32.5 -24t-23.5 -16t-23 -12t-16 -3q-35 0 -35 44q0 5 1.5 11t4.5 12.5t6 12t9.5 14t11.5 14.5t14 17t15 17.5 t18 20t19 21.5q53 60 77 85t59 47t68 22q25 0 47 -7t53 -31t45 -36t60 -55q66 -60 95 -94.5t29 -60.5zM877 270q62 -67 62 -123q0 -73 -86.5 -116t-245.5 -43q-263 0 -404 126t-141 359q0 225 143 365t375 140q191 0 307 -97t116 -247q0 -128 -89.5 -177t-297.5 -49 q-141 0 -264 17v-4q0 -107 72 -164.5t208 -57.5q156 0 245 71zM365 578q146 -16 211 -16q74 0 105.5 15t31.5 61q0 66 -41.5 106t-109.5 40q-80 0 -131.5 -53.5t-65.5 -152.5z" />
<glyph unicode="&#xeb;" horiz-adv-x="1049" d="M516 1227q0 -56 -37 -90t-100 -34q-54 0 -87 31.5t-33 80.5q0 54 37 90t92 36q59 0 93.5 -31.5t34.5 -82.5zM881 1227q0 -56 -37 -90t-100 -34q-53 0 -85.5 31.5t-32.5 80.5q0 54 36.5 90t90.5 36q59 0 93.5 -31.5t34.5 -82.5zM877 270q62 -67 62 -123q0 -73 -86.5 -116 t-245.5 -43q-263 0 -404 126t-141 359q0 225 143 365t375 140q191 0 307 -97t116 -247q0 -128 -89.5 -177t-297.5 -49q-141 0 -264 17v-4q0 -107 72 -164.5t208 -57.5q156 0 245 71zM365 578q146 -16 211 -16q74 0 105.5 15t31.5 61q0 66 -41.5 106t-109.5 40 q-80 0 -131.5 -53.5t-65.5 -152.5z" />
<glyph unicode="&#xec;" horiz-adv-x="574" d="M145 1397q35 0 64.5 -22t80.5 -80.5t81 -87.5q19 -19 44 -40l37.5 -31.5t21.5 -23t9 -24.5q0 -35 -43 -35q-30 0 -102.5 26.5t-167.5 79.5q-122 68 -122 149q0 41 26 65t71 24zM485 54q-112 -54 -228 -54q-76 0 -106.5 33t-30.5 112q0 32 8.5 178.5t8.5 261.5 q0 230 -46 327q112 54 226 54q73 0 106 -34t33 -111q0 -49 -9.5 -200t-9.5 -252q0 -198 48 -315z" />
<glyph unicode="&#xed;" horiz-adv-x="574" d="M526 1308q0 -78 -122 -149q-93 -53 -166 -79.5t-101 -26.5q-48 0 -48 35q0 16 18 34.5t60 54t73 67.5q17 19 51.5 58.5t49 53.5t39.5 28.5t51 14.5q43 0 69 -25t26 -66zM485 54q-112 -54 -228 -54q-76 0 -106.5 33t-30.5 112q0 32 8.5 178.5t8.5 261.5q0 230 -46 327 q112 54 226 54q73 0 106 -34t33 -111q0 -49 -9.5 -200t-9.5 -252q0 -198 48 -315z" />
<glyph unicode="&#xee;" horiz-adv-x="574" d="M605 1105q0 -19 -12 -31.5t-29 -12.5q-25 0 -118 59q-10 7 -15 10q-134 85 -151 85q-10 0 -21.5 -4.5t-33.5 -18.5t-35.5 -24t-50.5 -36q-15 -11 -36.5 -26.5t-32.5 -23t-24 -16t-22 -12t-16 -3.5q-35 0 -35 44q0 7 2 14t7.5 16.5t10 16.5t15.5 20t17.5 20.5t22 25 t23.5 27.5q42 47 59.5 65.5t46.5 44.5t51.5 35t47.5 9t47 -7t53 -31t45 -36t60 -55q66 -60 95 -94.5t29 -60.5zM485 54q-112 -54 -228 -54q-76 0 -106.5 33t-30.5 112q0 32 8.5 178.5t8.5 261.5q0 230 -46 327q112 54 226 54q73 0 106 -34t33 -111q0 -49 -9.5 -200 t-9.5 -252q0 -198 48 -315z" />
<glyph unicode="&#xef;" horiz-adv-x="574" d="M234 1227q0 -56 -37 -90t-100 -34q-54 0 -87 31.5t-33 80.5q0 54 37 90t92 36q59 0 93.5 -31.5t34.5 -82.5zM599 1227q0 -56 -37 -90t-100 -34q-53 0 -85.5 31.5t-32.5 80.5q0 54 36.5 90t90.5 36q59 0 93.5 -31.5t34.5 -82.5zM485 54q-112 -54 -228 -54q-76 0 -106.5 33 t-30.5 112q0 32 8.5 178.5t8.5 261.5q0 230 -46 327q112 54 226 54q73 0 106 -34t33 -111q0 -49 -9.5 -200t-9.5 -252q0 -198 48 -315z" />
<glyph unicode="&#xf0;" horiz-adv-x="1213" d="M904 1221q26 10 67.5 25.5t60.5 23t42.5 13.5t38.5 6q36 0 55.5 -19.5t19.5 -54.5q0 -26 -17 -71q-107 0 -193 -37q177 -289 177 -581q0 -249 -156 -399t-404 -150q-238 0 -386.5 131t-148.5 329q0 209 151.5 346t381.5 137q174 0 288 -95q-54 150 -106 218 q-182 -71 -238 -71q-41 0 -63 21t-22 60q0 15 14 52h15q80 0 215 48q-95 83 -192 83q-17 0 -29 -3q-27 54 -27 87q0 43 29 67.5t79 24.5q82 0 174.5 -49t173.5 -142zM848 466q0 95 -68 156.5t-175 61.5q-106 0 -173 -65t-67 -169q0 -96 66.5 -157t175.5 -61q106 0 173.5 66 t67.5 168z" />
<glyph unicode="&#xf1;" horiz-adv-x="1213" d="M958 1293q0 -80 -63 -142.5t-145 -62.5q-52 0 -144 31t-133 31q-32 0 -62 -13.5t-47.5 -29t-34.5 -29t-26 -13.5q-31 0 -31 42q0 74 70 139.5t162 65.5q52 0 142 -28t127 -28q39 0 72 19t54.5 37.5t31.5 18.5q27 0 27 -38zM1138 54v-2q-108 -52 -224 -52 q-76 0 -108.5 31.5t-32.5 105.5q0 49 6.5 163t6.5 179q0 138 -35.5 198.5t-126.5 60.5q-84 0 -184 -68q-9 -247 -9 -280q0 -236 48 -338q-111 -52 -224 -52q-79 0 -109 36t-30 126q0 38 11.5 191t11.5 269q0 230 -46 327q89 27 160 27q83 0 129.5 -34t52.5 -98 q158 132 318 132q181 0 261 -102t80 -321q0 -40 -2 -101t-2 -83q0 -232 48 -315z" />
<glyph unicode="&#xf2;" horiz-adv-x="1213" d="M468 1397q35 0 64.5 -22t80 -80t81.5 -88q22 -21 55 -48.5t45 -41.5t12 -29q0 -35 -43 -35q-31 0 -102.5 26.5t-167.5 79.5q-122 68 -122 149q0 41 26 65t71 24zM1151 504q0 -191 -121 -334q-165 -193 -435 -193q-237 0 -385 137.5t-148 353.5q0 224 159 370.5t407 146.5 q230 0 376.5 -136t146.5 -345zM367 475q0 -109 66.5 -176t175.5 -67q102 0 171.5 71.5t69.5 181.5q0 113 -66.5 181t-174.5 68q-107 0 -174.5 -71t-67.5 -188z" />
<glyph unicode="&#xf3;" horiz-adv-x="1213" d="M846 1308q0 -79 -122 -149q-93 -53 -165.5 -79.5t-100.5 -26.5q-48 0 -48 35q0 16 18 34.5t59.5 54t72.5 67.5q17 19 43 48.5t39.5 44.5t33 31.5t37.5 23.5t39 7q43 0 68.5 -25t25.5 -66zM1151 504q0 -191 -121 -334q-165 -193 -435 -193q-237 0 -385 137.5t-148 353.5 q0 224 159 370.5t407 146.5q230 0 376.5 -136t146.5 -345zM367 475q0 -109 66.5 -176t175.5 -67q102 0 171.5 71.5t69.5 181.5q0 113 -66.5 181t-174.5 68q-107 0 -174.5 -71t-67.5 -188z" />
<glyph unicode="&#xf4;" horiz-adv-x="1213" d="M927 1105q0 -19 -11.5 -31.5t-28.5 -12.5q-10 0 -21.5 3.5t-33 16t-32.5 19.5t-47 30q-134 85 -150 85q-18 0 -48 -18.5t-93 -64.5q-14 -10 -36.5 -26.5t-33 -23.5t-24 -15.5t-22.5 -12t-16 -3.5q-34 0 -34 44q0 20 18.5 45.5t61.5 74.5q12 13 18 20q53 60 77 85t59.5 47 t68.5 22t69 -19.5t58 -38.5t78 -71q65 -59 94 -94t29 -61zM1151 504q0 -191 -121 -334q-165 -193 -435 -193q-237 0 -385 137.5t-148 353.5q0 224 159 370.5t407 146.5q230 0 376.5 -136t146.5 -345zM367 475q0 -109 66.5 -176t175.5 -67q102 0 171.5 71.5t69.5 181.5 q0 113 -66.5 181t-174.5 68q-107 0 -174.5 -71t-67.5 -188z" />
<glyph unicode="&#xf5;" horiz-adv-x="1213" d="M954 1293q0 -80 -63 -142.5t-145 -62.5q-52 0 -144 31t-133 31q-32 0 -62 -13.5t-47.5 -29t-34.5 -29t-26 -13.5q-30 0 -30 42q0 74 69.5 139.5t161.5 65.5q52 0 142 -28t127 -28q39 0 72 19t54.5 37.5t31.5 18.5q27 0 27 -38zM1151 504q0 -191 -121 -334 q-165 -193 -435 -193q-237 0 -385 137.5t-148 353.5q0 224 159 370.5t407 146.5q230 0 376.5 -136t146.5 -345zM367 475q0 -109 66.5 -176t175.5 -67q102 0 171.5 71.5t69.5 181.5q0 113 -66.5 181t-174.5 68q-107 0 -174.5 -71t-67.5 -188z" />
<glyph unicode="&#xf6;" horiz-adv-x="1213" d="M556 1227q0 -56 -37 -90t-100 -34q-53 0 -86.5 31.5t-33.5 80.5q0 54 37 90t93 36q58 0 92.5 -31.5t34.5 -82.5zM922 1227q0 -56 -37.5 -90t-100.5 -34q-53 0 -85 31.5t-32 80.5q0 54 36.5 90t90.5 36q59 0 93.5 -31.5t34.5 -82.5zM1151 504q0 -191 -121 -334 q-165 -193 -435 -193q-237 0 -385 137.5t-148 353.5q0 224 159 370.5t407 146.5q230 0 376.5 -136t146.5 -345zM367 475q0 -109 66.5 -176t175.5 -67q102 0 171.5 71.5t69.5 181.5q0 113 -66.5 181t-174.5 68q-107 0 -174.5 -71t-67.5 -188z" />
<glyph unicode="&#xf7;" horiz-adv-x="1609" d="M954 945q0 -62 -43.5 -106.5t-104.5 -44.5q-64 0 -106.5 43t-42.5 108q0 62 43.5 105.5t105.5 43.5q63 0 105.5 -43t42.5 -106zM1279 468h-949q-49 0 -80.5 29.5t-31.5 78.5q0 47 32.5 78.5t79.5 31.5h951q46 0 77 -31.5t31 -78.5q0 -49 -30.5 -78.5t-79.5 -29.5z M954 205q0 -62 -43 -105.5t-105 -43.5q-64 0 -106.5 43t-42.5 108q0 62 42.5 104.5t106.5 42.5q61 0 104.5 -43.5t43.5 -105.5z" />
<glyph unicode="&#xf8;" horiz-adv-x="1213" d="M1001 852q150 -136 150 -348q0 -89 -30.5 -173t-83.5 -146q-181 -208 -448 -208q-149 0 -257 64q-73 -105 -89 -165q-158 6 -158 76q0 24 28.5 64.5t89.5 107.5q-141 149 -141 344q0 225 159 370t409 145q132 0 243 -50q74 97 89 164q159 -5 159 -75q0 -25 -28 -63.5 t-92 -106.5zM719 719q-54 19 -105 19q-110 0 -182.5 -74t-72.5 -191q0 -80 35 -127q179 193 325 373zM487 255q51 -29 118 -29q111 0 180 74t69 198q0 78 -33 134q-249 -274 -334 -377z" />
<glyph unicode="&#xf9;" horiz-adv-x="1171" d="M444 1397q35 0 64.5 -22t80.5 -80.5t81 -87.5q19 -19 44 -40l37.5 -31.5t21.5 -23t9 -24.5q0 -35 -42 -35q-31 0 -103 26.5t-168 79.5q-121 67 -121 149q0 41 25.5 65t70.5 24zM1099 58q-115 -60 -208 -60q-71 0 -101.5 32.5t-30.5 106.5v23q-130 -181 -330 -181 q-160 0 -243.5 92.5t-83.5 272.5q0 40 5 136t5 150q0 204 -48 284q112 54 220 54q75 0 108 -31.5t33 -103.5q0 -49 -7.5 -166.5t-7.5 -187.5q0 -135 30 -193t111 -58q107 0 197 118q4 80 4 118q0 338 -60 444q134 60 228 60q81 0 111 -38t30 -132q0 -22 -6 -154t-6 -242 q0 -252 50 -344z" />
<glyph unicode="&#xfa;" horiz-adv-x="1171" d="M823 1308q0 -78 -122 -149q-93 -53 -165.5 -79.5t-100.5 -26.5q-49 0 -49 35q0 16 18.5 35t60 54t72.5 67q17 18 52 58.5t49 54t39.5 28t50.5 14.5q43 0 69 -25t26 -66zM1099 58q-115 -60 -208 -60q-71 0 -101.5 32.5t-30.5 106.5v23q-130 -181 -330 -181 q-160 0 -243.5 92.5t-83.5 272.5q0 40 5 136t5 150q0 204 -48 284q112 54 220 54q75 0 108 -31.5t33 -103.5q0 -49 -7.5 -166.5t-7.5 -187.5q0 -135 30 -193t111 -58q107 0 197 118q4 80 4 118q0 338 -60 444q134 60 228 60q81 0 111 -38t30 -132q0 -22 -6 -154t-6 -242 q0 -252 50 -344z" />
<glyph unicode="&#xfb;" horiz-adv-x="1171" d="M904 1105q0 -19 -11.5 -31.5t-28.5 -12.5q-10 0 -21.5 3.5t-33 16t-32.5 19.5t-47 30q-134 85 -150 85q-18 0 -48 -18.5t-93 -64.5q-14 -10 -36.5 -26.5t-33 -23.5t-24 -15.5t-22.5 -12t-16 -3.5q-35 0 -35 44q0 5 1.5 11t4.5 12.5t6 12t9.5 14t11.5 14.5t14 17t15 17.5 t18 20t19 21.5q53 60 77 85t59.5 47t68.5 22t69.5 -20t56.5 -37.5t79 -71.5q65 -59 94 -94t29 -61zM1099 58q-115 -60 -208 -60q-71 0 -101.5 32.5t-30.5 106.5v23q-130 -181 -330 -181q-160 0 -243.5 92.5t-83.5 272.5q0 40 5 136t5 150q0 204 -48 284q112 54 220 54 q75 0 108 -31.5t33 -103.5q0 -49 -7.5 -166.5t-7.5 -187.5q0 -135 30 -193t111 -58q107 0 197 118q4 80 4 118q0 338 -60 444q134 60 228 60q81 0 111 -38t30 -132q0 -22 -6 -154t-6 -242q0 -252 50 -344z" />
<glyph unicode="&#xfc;" horiz-adv-x="1171" d="M533 1227q0 -56 -37 -90t-100 -34q-53 0 -86.5 31.5t-33.5 80.5q0 54 37 90t93 36q58 0 92.5 -31.5t34.5 -82.5zM898 1227q0 -56 -37 -90t-100 -34q-53 0 -85.5 31.5t-32.5 80.5q0 54 37 90t91 36q58 0 92.5 -31.5t34.5 -82.5zM1099 58q-115 -60 -208 -60 q-71 0 -101.5 32.5t-30.5 106.5v23q-130 -181 -330 -181q-160 0 -243.5 92.5t-83.5 272.5q0 40 5 136t5 150q0 204 -48 284q112 54 220 54q75 0 108 -31.5t33 -103.5q0 -49 -7.5 -166.5t-7.5 -187.5q0 -135 30 -193t111 -58q107 0 197 118q4 80 4 118q0 338 -60 444 q134 60 228 60q81 0 111 -38t30 -132q0 -22 -6 -154t-6 -242q0 -252 50 -344z" />
<glyph unicode="&#xfd;" horiz-adv-x="1109" d="M792 1308q0 -79 -122 -149q-93 -53 -165.5 -79.5t-100.5 -26.5q-49 0 -49 35q0 16 18.5 35t60 54t72.5 67q17 18 52 58.5t49 54t39.5 28t50.5 14.5q43 0 69 -25t26 -66zM730 912q117 54 228 54q58 0 89 -24.5t31 -68.5q0 -23 -15 -69t-48.5 -125t-71 -163.5t-99.5 -226 t-116 -270.5q-15 -37 -36.5 -89.5t-33 -81t-28.5 -67.5t-28 -59.5t-27 -46t-29.5 -38.5t-31.5 -25.5t-38 -17t-43 -4.5q-105 0 -199 149q93 72 150 193l39 80q-161 387 -256 558.5t-161 171.5q35 113 93.5 171.5t130.5 58.5q43 0 70.5 -19t51.5 -62q12 -22 38.5 -98t78 -214 t111.5 -280q179 414 179 526q0 54 -29 87z" />
<glyph unicode="&#xfe;" horiz-adv-x="1207" d="M79 1354q117 56 226 56q77 0 108 -35t31 -121q0 -31 -2.5 -85.5t-7 -149t-7.5 -173.5q124 124 303 124q183 0 299.5 -125t116.5 -323q0 -85 -23 -163.5t-62 -132.5q-163 -226 -408 -226q-137 0 -238 73q0 -330 51 -436q-114 -54 -219 -54q-77 0 -108 36.5t-31 123.5 q0 15 15.5 315.5t15.5 584.5q0 588 -60 711zM421 305q93 -62 176 -62q106 0 173.5 71t67.5 181q0 105 -61 170t-157 65q-92 0 -193 -67q-1 -20 -6 -358z" />
<glyph unicode="&#xff;" horiz-adv-x="1109" d="M500 1227q0 -56 -37 -90t-100 -34q-53 0 -86.5 31.5t-33.5 80.5q0 54 37 90t93 36q58 0 92.5 -31.5t34.5 -82.5zM866 1227q0 -56 -37.5 -90t-100.5 -34q-53 0 -85 31.5t-32 80.5q0 54 36.5 90t90.5 36q59 0 93.5 -31.5t34.5 -82.5zM730 912q117 54 228 54q58 0 89 -24.5 t31 -68.5q0 -23 -15 -69t-48.5 -125t-71 -163.5t-99.5 -226t-116 -270.5q-15 -37 -36.5 -89.5t-33 -81t-28.5 -67.5t-28 -59.5t-27 -46t-29.5 -38.5t-31.5 -25.5t-38 -17t-43 -4.5q-105 0 -199 149q93 72 150 193l39 80q-161 387 -256 558.5t-161 171.5q35 113 93.5 171.5 t130.5 58.5q43 0 70.5 -19t51.5 -62q12 -22 38.5 -98t78 -214t111.5 -280q179 414 179 526q0 54 -29 87z" />
<glyph unicode="&#x131;" horiz-adv-x="574" d="M485 54q-112 -54 -228 -54q-76 0 -106.5 33t-30.5 112q0 32 8.5 178.5t8.5 261.5q0 230 -46 327q112 54 226 54q73 0 106 -34t33 -111q0 -49 -9.5 -200t-9.5 -252q0 -198 48 -315z" />
<glyph unicode="&#x141;" horiz-adv-x="1057" d="M1012 292q45 -93 45 -164q0 -73 -49.5 -99.5t-163.5 -26.5q-22 0 -86.5 1t-106.5 1q-92 0 -173.5 -1.5t-127.5 -3t-52 -1.5q-62 0 -81.5 20.5t-19.5 80.5q0 12 2 55.5t7.5 141t9.5 191.5q-50 -39 -79 -91q-67 9 -102 37t-35 69q0 11 2.5 20.5t9 19.5t13.5 18.5t20.5 19.5 t24 19.5t30 21.5t33.5 22t40 26t43 28q2 43 2 122q0 371 -60 502q137 60 255 60q92 0 131 -41t39 -138q0 -16 -3.5 -63.5t-9 -131.5t-8.5 -172q111 81 155 158q69 -13 106 -45.5t37 -78.5q0 -20 -10 -38.5t-25 -34t-46 -36.5t-58 -37t-77 -46.5t-88 -54.5q0 -32 -1 -89.5 t-1 -82.5q0 -85 4 -201q75 -8 155 -8q196 0 299 51z" />
<glyph unicode="&#x142;" horiz-adv-x="680" d="M558 906q122 -25 122 -95q0 -39 -47.5 -80t-149.5 -95q0 -239 12 -378t44 -204q-109 -54 -226 -54q-77 0 -108 35.5t-31 122.5q0 92 13 354q-55 -48 -75 -91q-58 14 -86 36.5t-28 58.5q0 41 47 82t148 94q4 170 4 191q0 360 -56 471q117 56 226 56q78 0 108.5 -35 t30.5 -121l-19 -441q54 42 71 93z" />
<glyph unicode="&#x152;" horiz-adv-x="2145" d="M1265 1285l-13 85q131 -12 278 -12q93 0 224.5 9t169.5 9q88 0 126 -28t38 -94q0 -77 -52 -172q-89 44 -293 44q-41 0 -201 -5l-6 -302q35 -2 124 -2q246 0 334 29q31 -71 31 -127q0 -73 -41.5 -101.5t-136.5 -28.5q-6 0 -47.5 1t-114 2t-153.5 1q-3 -209 -6 -346 q102 -6 192 -6q197 0 295 51q47 -100 47 -164q0 -76 -49.5 -102t-167.5 -26q-45 0 -126.5 2t-118.5 2q-65 0 -122.5 -1.5t-90 -3t-36.5 -1.5q-68 0 -95 21.5t-27 80.5q0 5 1 15t1 16q-180 -160 -431 -160q-312 0 -516 189q-218 202 -218 518q0 315 232 526q222 202 562 202 q256 0 407 -121zM831 257q178 0 297.5 130t119.5 334q0 188 -108.5 301.5t-285.5 113.5q-193 0 -308 -120.5t-115 -321.5q0 -196 111 -316.5t289 -120.5z" />
<glyph unicode="&#x153;" horiz-adv-x="1797" d="M987 829q121 149 346 149q186 0 301.5 -98t115.5 -246q0 -128 -89 -177t-297 -49q-142 0 -265 17v-4q0 -110 72 -169t208 -59q154 0 246 72q62 -70 62 -124q0 -74 -85 -116t-244 -42q-133 0 -226.5 39t-163.5 127q-138 -163 -379 -163q-232 0 -379.5 136.5t-147.5 350.5 q0 143 72 260.5t200.5 184.5t287.5 67q228 0 365 -156zM1113 580q88 -16 210 -16q76 0 107 15t31 59q0 66 -41.5 106t-109.5 40q-80 0 -131.5 -53t-65.5 -151zM367 481q0 -109 66.5 -176t175.5 -67q102 0 171.5 71.5t69.5 181.5q0 109 -66.5 176t-174.5 67 q-105 0 -173.5 -71t-68.5 -182z" />
<glyph unicode="&#x160;" horiz-adv-x="900" d="M765 1770q0 -6 -1.5 -12.5t-5.5 -14t-8 -14t-12 -17t-14 -17t-18 -20t-19.5 -21t-23 -24.5t-24.5 -26q-44 -49 -66.5 -71t-55 -40.5t-63.5 -18.5q-12 0 -23.5 2t-24.5 9t-23 12t-26.5 18t-26 21t-30 26.5t-30.5 28t-34.5 34t-36.5 35.5q-68 65 -68 110q0 16 11.5 28 t27.5 12q5 0 10 -1t11.5 -3.5t12 -5t14 -7.5t14.5 -8.5t16.5 -10.5t17.5 -11.5t20 -13.5t21 -14q10 -7 24.5 -16.5t22.5 -15t19.5 -13.5t18 -12t15.5 -9.5t14.5 -8t11.5 -5.5t10.5 -4t8.5 -1q32 0 143 77q15 10 37.5 26.5t33 23.5t24.5 16t22.5 12t15.5 3q15 0 26 -11 t11 -27zM112 301q96 -54 203 -54q97 0 151 38t54 101q0 57 -63 108q-24 21 -117 82q-73 49 -110.5 77.5t-76.5 70.5t-54.5 88t-15.5 106q0 78 33 155t93 136q182 184 456 184q82 0 125 -33.5t43 -97.5q0 -80 -66 -178q-82 33 -170 33q-98 0 -153.5 -36t-55.5 -96 q0 -63 71 -121q27 -22 148 -103q107 -72 157.5 -147t50.5 -170q0 -183 -145 -313q-165 -150 -413 -150q-203 0 -203 156q0 78 58 164z" />
<glyph unicode="&#x161;" horiz-adv-x="736" d="M688 1349q0 -6 -1.5 -12.5t-5.5 -14t-8 -14.5t-12 -17t-14.5 -17t-18 -20t-19.5 -21.5t-23 -24.5t-24 -26q-44 -48 -67 -70t-55 -40.5t-63 -18.5q-12 0 -23.5 2t-25 9t-23.5 12t-26.5 18t-26 20.5t-29.5 26.5t-29.5 28t-35 33.5t-36.5 35.5q-68 65 -68 111q0 16 11.5 28 t27.5 12q5 0 10 -1t11.5 -3.5t12 -5t14 -7.5t14.5 -8.5t16.5 -10.5t17.5 -11.5t20 -13.5t21 -14q10 -7 24.5 -16.5t22.5 -15t19.5 -13.5t18 -12t15.5 -9.5t14.5 -8t11.5 -5.5t10.5 -4t8.5 -1q31 0 143 77q15 10 37 26t33 23.5t24.5 16t22.5 12t16 3.5q15 0 26 -11.5 t11 -26.5zM124 232q76 -41 154 -41q56 0 89 21.5t33 54.5q0 11 -3 20t-11 19t-15.5 17.5t-23.5 19t-27 18.5t-34 22.5t-37 24.5q-88 58 -126 107.5t-38 125.5q0 139 127 241.5t315 102.5q70 0 106.5 -27.5t36.5 -80.5q0 -65 -58 -133q-61 29 -119 29q-64 0 -101.5 -25.5 t-37.5 -61.5q0 -46 86 -110q12 -9 47 -35t45 -34t36.5 -29.5t34.5 -32t24 -30t21 -35t10 -36t5 -43.5q0 -134 -118.5 -229t-306.5 -95q-167 0 -167 120q0 59 53 135z" />
<glyph unicode="&#x178;" horiz-adv-x="1260" d="M572 1648q0 -55 -37 -89.5t-100 -34.5q-54 0 -87 31.5t-33 80.5q0 54 37 90t92 36q59 0 93.5 -31t34.5 -83zM937 1648q0 -55 -37 -89.5t-100 -34.5q-53 0 -85.5 31.5t-32.5 80.5q0 54 37 90t91 36q59 0 93 -31t34 -83zM860 1335q145 50 245 50q64 0 98.5 -27.5 t34.5 -78.5q0 -27 -19 -67.5t-62 -104t-89.5 -127.5t-126.5 -174.5t-147 -208.5q-2 -46 -2 -131q0 -280 54 -406q-124 -60 -255 -60q-94 0 -131 40t-37 140q0 11 3 61.5t7 141.5t6 191q-311 563 -458 597q43 108 107 164t140 56q51 0 88.5 -28t71.5 -86q5 -8 87 -172 t168 -307q232 349 232 471q0 31 -15 66z" />
<glyph unicode="&#x17d;" horiz-adv-x="1194" d="M912 1770q0 -6 -1.5 -12.5t-5.5 -14t-8 -14t-12 -17t-14 -17t-18 -20t-19.5 -21t-23 -24.5t-24.5 -26q-44 -49 -66.5 -71t-55 -40.5t-63.5 -18.5q-12 0 -23.5 2.5t-24.5 8.5t-23.5 12t-26.5 18.5t-26 20.5t-29.5 26.5t-30.5 28.5t-34.5 33.5t-36.5 35.5q-68 63 -68 110 q0 16 11.5 28t27.5 12q5 0 10 -1t11.5 -3.5t12 -5t14 -7.5t14.5 -8.5t16.5 -10.5t17.5 -11.5t20 -13.5t21 -14q10 -7 24.5 -16.5t22.5 -15t19.5 -13.5t18 -12t15.5 -9.5t14.5 -8t11.5 -5.5t10.5 -4t8.5 -1q31 0 143 77q11 8 27.5 19.5t25 18t20.5 14.5t19 12.5t15.5 9 t14.5 6t11 1.5q15 0 26 -11t11 -27zM1095 307q43 -92 43 -160q0 -85 -53.5 -115t-182.5 -30q-116 0 -312 10.5t-277 10.5q-91 0 -174 -23q-69 72 -69 156q0 83 52 169q50 86 182.5 247t159.5 197q189 252 189 309q0 21 -43.5 29t-141.5 8q-217 0 -327 -52q-44 105 -44 168 q0 75 51.5 104t170.5 29q47 0 213 -6t285 -6q125 0 217 14q69 -75 69 -153q0 -45 -20.5 -95.5t-66 -115.5t-91.5 -123.5t-123.5 -156t-136.5 -177.5q-161 -218 -161 -259q0 -19 29 -26t97 -7q350 0 465 54z" />
<glyph unicode="&#x17e;" horiz-adv-x="983" d="M811 1349q0 -23 -24 -54t-77 -88q-16 -16 -24 -25q-35 -38 -51.5 -54.5t-42 -37.5t-47 -29t-45.5 -8q-31 0 -68.5 22t-66 47.5t-89.5 85.5q-20 20 -31 30q-67 65 -67 111q0 16 11 28t27 12q18 0 44.5 -15t74.5 -47q12 -9 19 -13q12 -8 30.5 -21t28 -19t23 -15t21 -13 t16 -9t14.5 -6.5t11 -1.5q32 0 143 77q16 11 38 26.5t33 23t24.5 16t22.5 12t16 3.5q14 0 25 -11t11 -27zM891 278q38 -97 38 -141q0 -72 -42 -104.5t-134 -32.5q-23 0 -175 7.5t-282 7.5q-110 0 -186 -17q-42 65 -42 124q0 62 42 116q5 7 66 74.5t147.5 172t178.5 228.5 q-90 6 -148 6q-145 0 -236 -37q-39 109 -39 147q0 69 46 98t149 29q53 0 191 -7.5t223 -7.5q107 0 170 19q46 -74 46 -129q0 -44 -21 -81t-66 -89q-2 -3 -58 -66t-130 -151t-156 -193q144 -8 186 -8q150 0 232 35z" />
<glyph unicode="&#x192;" horiz-adv-x="1202" d="M431 813q42 286 169.5 425.5t353.5 139.5q104 0 165 -43t61 -114q0 -110 -179 -168q-15 32 -39.5 50t-51.5 18q-73 0 -114.5 -72t-65.5 -230q39 2 77.5 4.5t61 4t31.5 1.5q120 0 120 -87q0 -56 -46 -133q-53 15 -137 15q-5 0 -22 -0.5l-51 -1.5l-68 -2 q-26 -216 -59.5 -378.5t-80 -290t-108 -207.5t-141.5 -121.5t-181 -41.5q-95 0 -148 40.5t-53 108.5q0 84 137 168q51 -54 96 -54q85 0 136 175.5t108 594.5q-75 -3 -110 -3q-93 0 -93 86q0 44 42 122q41 -8 99 -8q39 0 91 2z" />
<glyph unicode="&#x3bc;" horiz-adv-x="1179" d="M466 1030l-72 -410q-29 -160 -29 -253q0 -88 39.5 -131t121.5 -43q98 0 149 81.5t84 270.5l85 485h273l-182 -1030h-253l17 110q-76 -141 -202 -141q-124 0 -201 114l-85 -496h-271l253 1443h273z" />
<glyph unicode="&#x60c;" horiz-adv-x="601" d="M363 555l-17 -14q-36 -28 -59.5 -71t-23.5 -79q0 -54 20.5 -75t73.5 -33q64 -16 93 -44t29 -84q0 -67 -45.5 -111t-114.5 -44q-102 0 -167 71.5t-65 183.5q0 102 68 183.5t198 131.5z" />
<glyph unicode="&#x61b;" horiz-adv-x="488" d="M347 914v1q-44 -20 -75 -41q-64 -42 -120 -109t-75 -126q-27 -84 2 -174t96 -127q67 -38 140.5 -18.5t110.5 85.5q38 66 18 140t-85 111q-33 17 -64 22q26 20 49 29q44 21 89 29q16 34 5 74t-39 72.5t-52 31.5zM265 271q-74 0 -105 -34t-31 -101q0 -62 29 -96 q31 -40 107 -40q136 0 136 136q0 67 -30.5 101t-105.5 34z" />
<glyph unicode="&#x61f;" horiz-adv-x="886" d="M434 1406q-78 -9 -144 -47q-122 -74 -179 -204q-30 -68 -34.5 -127.5t16.5 -115t59 -106t99 -109.5q49 -48 92 -98q98 -116 90 -220q31 -42 100 -49q58 -6 113.5 17t55.5 56q-1 89 -32.5 158t-80 116.5t-131.5 102.5q-123 81 -151 116q-30 34 -39.5 79.5t-0.5 86.5t35 75 t62 48q74 28 143 -25t92 -166q32 -27 76 -32q87 -11 182 20q16 105 -36 211q-55 107 -161 167.5t-226 45.5zM558 271q-75 0 -105.5 -34t-30.5 -101q0 -62 29 -96q31 -40 107 -40q136 0 136 136q0 67 -31 101t-105 34z" />
<glyph unicode="&#x621;" horiz-adv-x="845" d="M491 187h215q99 -5 99 -75q0 -81 -38 -131q-29 26 -61 27h-574q-40 3 -66 33.5t-26 68.5q0 53 38 103q28 -25 57 -26h79q-59 83 -59 181q0 127 93.5 204t248.5 77q148 0 221 -73q17 -17 27 -50t8.5 -67.5t-25.5 -60t-69 -25.5q-73 0 -117 29q16 0 25.5 23.5t3.5 53.5v2 q-36 12 -67 12q-65 0 -106 -42t-41 -108q0 -60 36.5 -102.5t97.5 -53.5z" />
<glyph unicode="&#x622;" horiz-adv-x="519" d="M475 1651q11 -29 -8 -79.5t-54 -65.5q-22 -9 -38 -12t-45.5 6.5t-44.5 16t-73 33.5q-53 27 -82.5 15t-40.5 -77q-54 29 -61 48q-13 32 3.5 80.5t52.5 62.5q24 10 42 13t49 -6.5t45.5 -16t69.5 -32.5q50 -27 79.5 -15t43.5 78q53 -29 62 -49zM228 1392q100 0 170 -57 q-31 -49 -31 -194q0 -64 7 -513l6 -506q0 -55 -33.5 -88.5t-90.5 -33.5q-99 0 -170 56q31 49 31 195q0 64 -7 513l-6 506q0 56 33 89t91 33z" />
<glyph unicode="&#x623;" horiz-adv-x="500" d="M294 1583h114q52 -3 52 -40q0 -43 -21 -68q-13 13 -31 13h-319q-22 2 -35.5 18t-13.5 36q0 28 20 54q14 -11 31 -13h58q-31 43 -31 95q0 66 49.5 107t130.5 41q77 0 116 -39q12 -13 17 -37.5t-6 -47t-43 -22.5q-38 0 -61 15q9 0 14 12t1 29v1q-18 6 -35 6 q-34 0 -55.5 -21.5t-21.5 -56.5q0 -70 70 -82zM228 1385q98 0 169 -56q-31 -49 -31 -194l6 -509q7 -447 7 -503t-33 -89t-91 -33q-98 0 -169 56q31 49 31 194l-6 509q-7 447 -7 503t33 89t91 33z" />
<glyph unicode="&#x624;" horiz-adv-x="847" d="M669 999h-317q-21 2 -34.5 18t-13.5 36q0 29 19 54q12 -12 31 -14h58q-31 43 -31 94q0 67 48.5 107.5t129.5 40.5q79 0 116 -39q13 -11 18 -36t-6.5 -47.5t-42.5 -22.5q-38 0 -61 15q9 0 14 12t1 28v2q-18 6 -34 6q-34 0 -55.5 -22t-21.5 -56q0 -70 70 -82h112 q51 -3 51 -39q0 -44 -19 -69q-16 14 -32 14zM778 443q0 -38 1 -77q1 -97 1 -160q0 -18 -1 -28q-1 -72 -2.5 -122t-5 -103.5t-9 -88.5t-15 -72t-22.5 -59.5t-31.5 -44.5t-42 -34t-54.5 -22t-68 -13.5t-83 -3.5q-75 0 -129 38t-54 89q0 52 54 123q41 -38 88 -38q31 0 53.5 12 t34.5 28t19.5 43t9.5 45t4 46h-25q-291 6 -408 184q-53 83 -53 184t44.5 205.5t118.5 163.5q161 133 436 122q98 0 168 -52q-31 -46 -31 -180q0 -41 2 -185zM275 371q0 -80 64 -120q68 -36 188 -35q0 62 -0.5 121t-0.5 103.5v84t-0.5 66.5t-0.5 46.5v29.5v10 q-91 -21 -170.5 -120.5t-79.5 -185.5z" />
<glyph unicode="&#x625;" horiz-adv-x="463" d="M256 0q-99 0 -170 56q31 49 31 195q0 64 -7 513l-6 506q0 56 33.5 89t90.5 33q100 0 170 -57q-31 -49 -31 -194q0 -64 7 -513l6 -506q0 -55 -33.5 -88.5t-90.5 -33.5zM257 -342h114q52 -3 52 -41q0 -42 -21 -69q-14 14 -31 14h-321v1q-21 1 -35 17.5t-14 35.5q0 28 20 56 q12 -12 30 -14h59q-30 44 -30 95q0 66 47 108q50 41 133 41q78 0 117 -39q12 -13 17 -38t-6.5 -47.5t-42.5 -22.5q-39 0 -61 16q9 0 14 13t1 28v1q-19 6 -36 6q-34 0 -55.5 -22t-21.5 -56q0 -71 71 -83z" />
<glyph unicode="&#x626;" horiz-adv-x="1344" d="M13 892v1q-21 2 -34.5 18t-13.5 35q0 28 20 54q13 -13 30 -13h58q-31 41 -31 94q0 66 49 106.5t130 40.5q77 0 115 -39q8 -8 13 -25.5t5 -35.5t-12.5 -31.5t-36.5 -13.5q-39 0 -61 16q9 0 14 11.5t1 28.5v1q-20 6 -35 6q-34 0 -55 -22t-21 -56q0 -32 19 -54t50 -27h113 q52 -3 52 -39q0 -44 -21 -69q-12 12 -31 14q-12 -1 -317 -1zM1250 565l35 -98q32 -140 -33 -257q-60 -108 -189.5 -173.5t-286.5 -69.5q-165 -4 -347 74.5t-280 197.5q-109 136 -109 346q0 83 23.5 121t76.5 38q51 0 144 -48q-41 -63 -34 -112q12 -92 56 -166t108.5 -120 t143.5 -70t164 -22q109 3 186.5 45.5t101 113.5t-21.5 165q-76 99 -224 99q-70 0 -129 -28q-56 76 -56 118q0 131 71.5 234t194.5 159t275 56q184 0 184 -102q0 -50 -53 -142q-69 34 -150 34q-94 0 -178 -45t-114 -114q189 -10 318 -103q81 -57 123 -131z" />
<glyph unicode="&#x627;" horiz-adv-x="436" d="M366 1135q0 -62 7 -509l6 -503q0 -56 -33 -89t-90 -33q-98 0 -169 56q30 49 30 194l-6 509q-7 447 -7 503t33 89t91 33q98 0 168 -56q-30 -49 -30 -194z" />
<glyph unicode="&#x628;" horiz-adv-x="1298" d="M1258 803q-31 -49 -31 -193l2 -203q0 -49 0.5 -94t1 -66.5t0.5 -25.5q0 -221 -202 -221h-537q-243 0 -344.5 71.5t-107.5 250.5q-3 98 27 187t83.5 142.5t113.5 53.5q64 0 106 -98q-62 -26 -86 -101t-3 -161q17 -68 66 -97t145 -29h402q44 0 62.5 28.5t18.5 94.5 q0 24 -5 207q-5 185 -5 188q0 57 33 89.5t91 32.5q98 0 169 -56zM648 -112q49 0 80.5 -30t31.5 -75q0 -53 -38 -89t-93 -36q-49 0 -78.5 29t-29.5 76q0 52 37 88.5t90 36.5z" />
<glyph unicode="&#x629;" horiz-adv-x="852" d="M348 991q-48 0 -78 29.5t-30 76.5q0 53 37 89t91 36q48 0 80 -30t32 -74q0 -53 -38 -90t-94 -37zM650 991q-48 0 -78 29.5t-30 76.5q0 53 37 89t91 36q48 0 80 -30t32 -74q0 -53 -38 -90t-94 -37zM812 806q-31 -47 -31 -185l2 -213q0 -52 0.5 -100t1 -71t0.5 -27 q0 -96 -72 -153t-181 -57h-96q-187 0 -294.5 110.5t-101.5 267.5q3 102 46 198.5t117 157.5q73 61 191 95t248 30q99 0 170 -53zM447 216q43 0 62.5 25.5t19.5 64.5l-9 366q-93 -22 -168.5 -113.5t-75.5 -178.5q0 -164 171 -164z" />
<glyph unicode="&#x62a;" horiz-adv-x="1298" d="M480 990q-48 0 -78 29t-30 76q0 52 37.5 88.5t90.5 36.5q49 0 80.5 -30t31.5 -75q0 -53 -37.5 -89t-94.5 -36zM782 990q-48 0 -78 29t-30 76q0 52 37.5 88.5t90.5 36.5q49 0 80 -31q32 -29 32 -74q0 -53 -38 -89t-94 -36zM1258 803q-30 -49 -30 -194q0 -90 1 -203l2 -186 q0 -220 -202 -220h-536q-243 0 -343 70q-66 46 -93 141t-13.5 197.5t60.5 180.5q67 115 161 115q63 0 105 -98q-61 -24 -85.5 -100.5t-3.5 -163.5q17 -69 66 -97.5t146 -28.5h401q45 0 63 28.5t18 97.5q0 22 -5 207t-5 188q0 56 33 89t91 33q98 0 169 -56z" />
<glyph unicode="&#x62b;" horiz-adv-x="1298" d="M645 1265q-48 0 -77.5 29.5t-29.5 75.5q0 52 37 88t90 36q48 0 80 -30t32 -74q0 -53 -38 -89t-94 -36zM480 990q-48 0 -78 29t-30 76q0 52 37.5 88.5t90.5 36.5q49 0 80.5 -30t31.5 -75q0 -53 -37.5 -89t-94.5 -36zM782 990q-48 0 -78 29t-30 76q0 52 37.5 88.5 t90.5 36.5q49 0 80 -31q32 -29 32 -74q0 -53 -38 -89t-94 -36zM1258 803q-30 -49 -30 -194q0 -90 1 -203l2 -186q0 -220 -202 -220h-536q-243 0 -343 70q-66 46 -93 141t-13.5 197.5t60.5 180.5q67 115 161 115q63 0 105 -98q-61 -24 -85.5 -100.5t-3.5 -163.5 q17 -69 66 -97.5t146 -28.5h401q45 0 63 28.5t18 97.5q0 22 -5 207t-5 188q0 56 33 89t91 33q98 0 169 -56z" />
<glyph unicode="&#x62c;" horiz-adv-x="1186" d="M1143 316q12 -142 -26 -212q-36 -67 -87 -85.5t-181 -18.5h-226q-143 -1 -220 -59.5t-77 -157.5t67 -161.5t173 -62.5q71 0 130 34q57 -93 57 -144q0 -53 -44.5 -77t-140.5 -24q-144 0 -265 61t-192 169.5t-71 239.5q0 159 107 266t291 132h267q-95 33 -297 162 q-227 142 -265 213q-27 52 -9 107q20 61 78.5 105.5t123.5 47.5q0 -61 96 -160t245 -198t278 -149.5t188 -27.5zM506 -230q0 52 37 88t90 36q48 0 80 -30t32 -74q0 -53 -38 -89t-94 -36q-48 0 -77.5 29t-29.5 76z" />
<glyph unicode="&#x62d;" horiz-adv-x="1186" d="M1143 316q12 -142 -26 -212q-36 -67 -87 -85.5t-181 -18.5h-226q-143 -1 -220 -59.5t-77 -157.5t67 -161.5t173 -62.5q71 0 130 34q57 -93 57 -144q0 -53 -44.5 -77t-140.5 -24q-144 0 -265 61t-192 169.5t-71 239.5q0 159 107 266t291 132h267q-95 33 -297 162 q-227 142 -265 213q-27 52 -9 107q20 61 78.5 105.5t123.5 47.5q0 -61 96 -160t245 -198t278 -149.5t188 -27.5z" />
<glyph unicode="&#x62e;" horiz-adv-x="1186" d="M828 738q-48 0 -77.5 29.5t-29.5 76.5q0 52 37 88t90 36q48 0 79.5 -29.5t31.5 -74.5q0 -53 -37.5 -89.5t-93.5 -36.5zM1143 316q12 -142 -26 -212q-36 -67 -87 -85.5t-181 -18.5h-226q-143 -1 -220 -59.5t-77 -157.5t67 -161.5t173 -62.5q71 0 130 34q57 -93 57 -144 q0 -53 -44.5 -77t-140.5 -24q-144 0 -265 61t-192 169.5t-71 239.5q0 159 107 266t291 132h267q-95 33 -297 162q-227 142 -265 213q-27 52 -9 107q20 61 78.5 105.5t123.5 47.5q0 -61 96 -160t245 -198t278 -149.5t188 -27.5z" />
<glyph unicode="&#x62f;" horiz-adv-x="921" d="M714 744q167 -134 167 -312v-164q0 -118 -53.5 -193t-146.5 -75h-501q-139 6 -139 104q0 79 53 149q40 -36 86 -37h383q44 0 62 28t18 95q0 33 -1 43q-1 94 -85.5 159.5t-198.5 65.5q-81 0 -149 -34q-67 114 -56 186q8 54 51 77.5t134 23.5q227 0 376 -116z" />
<glyph unicode="&#x630;" horiz-adv-x="921" d="M391 977q-48 0 -78 29.5t-30 75.5q0 52 37.5 88t90.5 36q49 0 80 -29.5t31 -74.5q0 -53 -38 -88q-37 -37 -93 -37zM714 744q167 -134 167 -312v-164q0 -118 -53.5 -193t-146.5 -75h-501q-139 6 -139 104q0 79 53 149q40 -36 86 -37h383q44 0 62 28t18 95q0 33 -1 43 q-1 94 -85.5 159.5t-198.5 65.5q-81 0 -149 -34q-67 114 -56 186q8 54 51 77.5t134 23.5q227 0 376 -116z" />
<glyph unicode="&#x631;" horiz-adv-x="626" d="M555 596q0 -360 2 -422q-2 -76 -4 -123.5t-6 -103.5t-9 -89t-15 -71t-22 -58.5t-31 -43.5t-41.5 -34t-54 -21t-68 -13t-83.5 -3q-75 0 -129 38.5t-54 89.5q0 52 53 123q40 -37 89 -37q66 0 94.5 54.5t28.5 179.5q0 42 -2 112v75q0 63 -4 246q-5 228 -5 229 q0 58 33.5 93.5t89.5 35.5q105 0 169 -64q-31 -49 -31 -193z" />
<glyph unicode="&#x632;" horiz-adv-x="626" d="M443 979q-47 0 -77 29.5t-30 75.5q0 52 37 88t90 36q48 0 80 -30t32 -74q0 -53 -37.5 -89t-94.5 -36zM555 596q0 -360 2 -422q-2 -76 -4 -123.5t-6 -103.5t-9 -89t-15 -71t-22 -58.5t-31 -43.5t-41.5 -34t-54 -21t-68 -13t-83.5 -3q-75 0 -129 38.5t-54 89.5q0 52 53 123 q40 -37 89 -37q66 0 94.5 54.5t28.5 179.5q0 42 -2 112v75q0 63 -4 246q-5 228 -5 229q0 58 33.5 93.5t89.5 35.5q105 0 169 -64q-31 -49 -31 -193z" />
<glyph unicode="&#x633;" horiz-adv-x="1868" d="M1828 800q-30 -50 -30 -225l2 -185q0 -44 0.5 -84.5t1 -60.5t0.5 -24q0 -221 -201 -221q-191 0 -269 107q-44 -107 -180 -107q-172 0 -249 84q-6 -210 -114.5 -337.5t-280.5 -127.5q-131 0 -239 70.5t-168.5 191t-60.5 263.5q0 185 100 185q51 0 143 -56 q-34 -61 -34 -130q0 -106 62.5 -172.5t161.5 -66.5q176 0 176 301q0 21 -5 216t-5 197q0 56 33 88.5t90 32.5q99 0 167 -56q-30 -48 -30 -192q0 -140 1 -191l2 5q0 -56 28.5 -72.5t87.5 -16.5q44 0 61.5 28t17.5 94q0 56 -4 183q-5 157 -5 164q0 119 107 119q123 0 184 -54 q-30 -50 -30 -226q0 -88 2 -220v1q0 -56 28.5 -72.5t87.5 -16.5q44 0 62 28t18 94q0 59 -4 208q-5 185 -5 189q0 120 106 120q123 0 184 -55z" />
<glyph unicode="&#x634;" horiz-adv-x="1868" d="M1243 1256q-47 0 -76.5 29.5t-29.5 75.5q0 52 36.5 88t90.5 36q48 0 79 -29.5t31 -74.5q0 -52 -37.5 -88.5t-93.5 -36.5zM1080 983q-49 0 -78 29t-29 76q0 52 36.5 88t89.5 36q48 0 79.5 -29.5t31.5 -74.5q0 -53 -37.5 -89t-92.5 -36zM1272 1088q0 53 37 87q36 37 90 37 q48 0 79.5 -30t31.5 -74q0 -53 -38 -89t-93 -36q-47 0 -77 29t-30 76zM1828 800q-30 -50 -30 -225l2 -185q0 -44 0.5 -84.5t1 -60.5t0.5 -24q0 -221 -201 -221q-191 0 -269 107q-44 -107 -180 -107q-172 0 -249 84q-6 -210 -114.5 -337.5t-280.5 -127.5q-131 0 -239 70.5 t-168.5 191t-60.5 263.5q0 185 100 185q51 0 143 -56q-34 -61 -34 -130q0 -106 62.5 -172.5t161.5 -66.5q176 0 176 301q0 21 -5 216t-5 197q0 56 33 88.5t90 32.5q99 0 167 -56q-30 -48 -30 -192q0 -140 1 -191l2 5q0 -56 28.5 -72.5t87.5 -16.5q44 0 61.5 28t17.5 94 q0 56 -4 183q-5 157 -5 164q0 119 107 119q123 0 184 -54q-30 -50 -30 -226q0 -88 2 -220v1q0 -56 28.5 -72.5t87.5 -16.5q44 0 62 28t18 94q0 59 -4 208q-5 185 -5 189q0 120 106 120q123 0 184 -55z" />
<glyph unicode="&#x635;" horiz-adv-x="1868" d="M1677 763q151 -132 151 -366q0 -172 -153 -284.5t-380 -112.5h-395q-25 -175 -130 -276t-260 -101q-131 0 -239.5 70.5t-169.5 191.5t-61 265q0 95 24 140t76 45q51 0 145 -56q-34 -61 -34 -130q0 -107 62.5 -174t161.5 -67q92 0 134.5 72t42.5 226q0 20 -5 238 q-5 220 -5 221q0 55 33.5 87.5t90.5 32.5q99 0 169 -55q-19 -29 -28 -146q56 98 147.5 171.5t195.5 93.5q110 22 234.5 -2.5t192.5 -83.5zM1542 382q8 63 -34.5 118t-114 81t-142.5 12q-57 -11 -114 -50.5t-101.5 -92t-78 -107t-51.5 -103.5v-24h288q327 0 348 166z" />
<glyph unicode="&#x636;" horiz-adv-x="1868" d="M1028 980q-49 0 -78.5 29t-29.5 77q0 51 37 87t91 36q48 0 79.5 -29.5t31.5 -74.5q0 -52 -37.5 -88.5t-93.5 -36.5zM1677 763q151 -132 151 -366q0 -172 -153 -284.5t-380 -112.5h-395q-25 -175 -130 -276t-260 -101q-131 0 -239.5 70.5t-169.5 191.5t-61 265 q0 95 24 140t76 45q51 0 145 -56q-34 -61 -34 -130q0 -107 62.5 -174t161.5 -67q92 0 134.5 72t42.5 226q0 20 -5 238q-5 220 -5 221q0 55 33.5 87.5t90.5 32.5q99 0 169 -55q-19 -29 -28 -146q56 98 147.5 171.5t195.5 93.5q110 22 234.5 -2.5t192.5 -83.5zM1542 382 q8 63 -34.5 118t-114 81t-142.5 12q-57 -11 -114 -50.5t-101.5 -92t-78 -107t-51.5 -103.5v-24h288q327 0 348 166z" />
<glyph unicode="&#x637;" horiz-adv-x="1577" d="M1387 758q150 -130 150 -361q0 -173 -154 -287q-154 -110 -377 -110h-826q-140 9 -140 108q0 76 54 146q41 -37 86 -38h141q25 0 32 13t7 55q0 76 -6 530l-4 445q0 55 33 88t90 33q101 0 168 -55q-30 -51 -30 -227q0 -71 2 -525q54 100 146.5 175.5t200.5 97.5 q110 21 234.5 -3.5t192.5 -84.5zM1252 381q8 62 -35 116.5t-114 80t-142 12.5q-60 -12 -121.5 -55.5t-107 -99t-77.5 -112t-43 -98.5q-1 -5 -1 -9h293q326 0 348 165z" />
<glyph unicode="&#x638;" horiz-adv-x="1577" d="M1387 758q150 -130 150 -361q0 -173 -154 -287q-154 -110 -377 -110h-826q-140 9 -140 108q0 76 54 146q41 -37 86 -38h141q25 0 32 13t7 55q0 76 -6 530l-4 445q0 55 33 88t90 33q101 0 168 -55q-30 -51 -30 -227q0 -71 2 -525q54 100 146.5 175.5t200.5 97.5 q110 21 234.5 -3.5t192.5 -84.5zM958 979q-48 0 -78 29.5t-30 75.5q0 52 37 88t91 36q48 0 79.5 -30t31.5 -74q0 -53 -38 -89t-93 -36zM1252 381q8 62 -35 116.5t-114 80t-142 12.5q-60 -12 -121.5 -55.5t-107 -99t-77.5 -112t-43 -98.5q-1 -5 -1 -9h293q326 0 348 165z" />
<glyph unicode="&#x639;" horiz-adv-x="1265" d="M783 216h303q139 -7 139 -107q0 -75 -53 -146q-40 36 -86 37l-463 -1q-143 0 -220.5 -58t-77.5 -157q0 -100 67 -162.5t174 -62.5q71 0 130 34q56 -92 56 -143q0 -102 -185 -102q-218 0 -364 128q-163 141 -163 343q0 150 96 253.5t263 132.5q-89 119 -89 265 q0 178 131 287t350 109q208 0 312 -104q23 -23 37 -69.5t12 -95t-36 -85t-97 -36.5q-104 0 -163 41q22 0 35 33t5 76v3q-48 16 -94 16q-92 0 -150 -58q-57 -59 -57 -152q0 -86 51 -145t137 -74z" />
<glyph unicode="&#x63a;" horiz-adv-x="1265" d="M779 978q-47 0 -77.5 29.5t-30.5 76.5q0 52 38 87q36 37 90 37q48 0 80 -30t32 -74q0 -53 -38 -89.5t-94 -36.5zM783 216h303q139 -7 139 -107q0 -75 -53 -146q-40 36 -86 37l-463 -1q-143 0 -220.5 -58t-77.5 -157q0 -100 67 -162.5t174 -62.5q71 0 130 34 q56 -92 56 -143q0 -102 -185 -102q-218 0 -364 128q-163 141 -163 343q0 150 96 253.5t263 132.5q-89 119 -89 265q0 178 131 287t350 109q208 0 312 -104q23 -23 37 -69.5t12 -95t-36 -85t-97 -36.5q-104 0 -163 41q22 0 35 33t5 76v3q-48 16 -94 16q-92 0 -150 -58 q-57 -59 -57 -152q0 -86 51 -145t137 -74z" />
<glyph unicode="&#x640;" horiz-adv-x="130" d="M150 0h-170v216h170v-216z" />
<glyph unicode="&#x641;" horiz-adv-x="1639" d="M1270 979q-49 0 -78.5 29t-29.5 76q0 52 37 88t90 36q48 0 80 -30t32 -74q0 -53 -37.5 -89t-93.5 -36zM1599 814q-30 -49 -30 -193l2 -209q0 -51 0.5 -97t1 -68.5t0.5 -26.5q0 -220 -202 -220h-935q-211 8 -300.5 80t-95.5 240q-4 99 26 188t83.5 141.5t114.5 52.5 q63 0 105 -98q-62 -24 -86.5 -100t-2.5 -160q15 -68 64.5 -97t146.5 -31h393q-53 88 -53 180q0 202 163 343q73 64 191 99.5t246 30.5q100 0 168 -55zM1236 216q48 0 64.5 21t16.5 84q0 37 -3 152q-5 175 -5 185q-99 -24 -171 -99.5t-72 -160.5q0 -94 40.5 -138t129.5 -44z " />
<glyph unicode="&#x642;" horiz-adv-x="1284" d="M768 987q-48 0 -77 30q-30 29 -30 75q0 52 37 88t90 36q49 0 80.5 -29.5t31.5 -74.5q0 -53 -38 -89t-94 -36zM1069 987q-48 0 -78 29t-30 76q0 52 37.5 88t90.5 36q49 0 80 -29.5t31 -74.5q0 -53 -37.5 -89t-93.5 -36zM1244 827q-31 -49 -31 -193l2 -217 q0 -53 0.5 -101.5t1 -71.5t0.5 -27v-52q-4 -98 -27 -180t-60.5 -141.5t-88.5 -104.5t-111.5 -72t-129.5 -39.5t-141.5 -11t-149.5 16.5q-62 12 -125.5 39.5t-125.5 72.5t-110 102t-78 134.5t-30 163.5q0 96 24 141t77 45q51 0 144 -57q-38 -69 -34 -129q7 -106 89.5 -185 t205.5 -107t229 10t153 134q-284 11 -399 198q-53 88 -53 198q0 220 163 359q161 141 436 131q98 0 169 -56zM881 216q48 0 64 20t16 82l-8 354q-96 -24 -169 -107t-73 -170q0 -94 40 -136.5t130 -42.5z" />
<glyph unicode="&#x643;" horiz-adv-x="1374" d="M1334 1324q-30 -50 -30 -193l2 -463q1 -287 1 -446q0 -222 -201 -222h-701q-193 14 -276 87t-89 234q-5 151 63 266.5t161 115.5q64 0 105 -98q-61 -24 -85.5 -100t-3.5 -161q17 -68 66 -96.5t145 -31.5h480q45 0 63 28.5t18 95.5q0 88 -4 468l-5 451q0 55 33 88t90 33 q98 0 168 -56zM501 812h58q-31 43 -31 95q0 66 49 106.5t131 40.5q76 0 115 -39q13 -11 18 -36t-6.5 -47.5t-42.5 -22.5q-38 0 -61 15q8 0 13.5 12.5t2.5 27.5v2q-19 6 -36 6q-33 0 -55 -22t-22 -56q0 -32 19.5 -54t50.5 -28h113q52 -3 52 -40q0 -42 -20 -68q-14 12 -32 14 h-318q-20 2 -34 18t-14 35q0 28 20 54q13 -11 30 -13z" />
<glyph unicode="&#x644;" horiz-adv-x="1061" d="M1021 1326q-31 -49 -31 -193l2 -526q0 -145 0.5 -270t1 -181t0.5 -58q0 -220 -109.5 -351t-288.5 -132q-250 -1 -402.5 151.5t-152.5 410.5q0 185 100 185q52 0 144 -56q-33 -62 -33 -130q0 -141 90.5 -217.5t218.5 -57.5q95 14 135.5 82t40.5 216q0 97 -4 540l-5 522 q0 56 33 88.5t91 32.5q98 0 169 -56z" />
<glyph unicode="&#x645;" horiz-adv-x="1319" d="M1279 376q4 -100 -40 -184.5t-136.5 -138t-217.5 -53.5h-146q-100 0 -151 55q-39 -55 -128 -55h-58q-44 0 -62.5 -28.5t-18.5 -94.5q0 -22 5 -210t5 -192q0 -55 -33 -87.5t-90 -32.5q-100 0 -168 55q30 50 30 193l-2 204q0 49 -0.5 94.5t-1 67t-0.5 25.5q0 220 201 222 h193q27 0 51 27q28 35 29 89l2 285q0 137 -30 183q71 53 168 53q273 10 431.5 -119t167.5 -358zM874 216q170 0 170 161q0 86 -75.5 177.5t-166.5 113.5l-8 -363q0 -39 19 -64t61 -25z" />
<glyph unicode="&#x646;" horiz-adv-x="1158" d="M477 739q-47 0 -77 29.5t-30 76.5q0 51 37 87t90 36q49 0 80.5 -29.5t31.5 -73.5q0 -53 -38 -89.5t-94 -36.5zM1118 799q-30 -49 -30 -193q0 -93 1 -212l3 -196q0 -215 -128 -351q-122 -131 -303 -131q-137 0 -249 39t-196 116.5t-130 202.5t-46 287q0 96 24 140.5 t77 44.5q51 0 144 -57q-34 -59 -34 -129q0 -218 129 -309q35 -24 81 -39t97.5 -18.5t100.5 13t88.5 49t64 95.5t24.5 148q0 62 -4 226q-6 185 -6 208q0 56 33 88.5t91 32.5q98 0 168 -55z" />
<glyph unicode="&#x647;" horiz-adv-x="852" d="M812 806q-31 -47 -31 -185l2 -213q0 -52 0.5 -100t1 -71t0.5 -27q0 -96 -72 -153t-181 -57h-96q-187 0 -294.5 110.5t-101.5 267.5q3 102 46 198.5t117 157.5q73 61 191 95t248 30q99 0 170 -53zM447 216q43 0 62.5 25.5t19.5 64.5l-9 366q-93 -22 -168.5 -113.5 t-75.5 -178.5q0 -164 171 -164z" />
<glyph unicode="&#x648;" horiz-adv-x="847" d="M778 443q0 -38 1 -77q1 -97 1 -160q0 -18 -1 -28q-1 -72 -2.5 -122t-5 -103.5t-9 -88.5t-15 -72t-22.5 -59.5t-31.5 -44.5t-42 -34t-54.5 -22t-68 -13.5t-83 -3.5q-75 0 -129 38t-54 89q0 52 54 123q41 -38 88 -38q31 0 53.5 12t34.5 28t19.5 43t9.5 45t4 46h-25 q-291 6 -408 184q-53 83 -53 184t44.5 205.5t118.5 163.5q161 133 436 122q98 0 168 -52q-31 -46 -31 -180q0 -41 2 -185zM275 371q0 -80 64 -120q68 -36 188 -35q0 62 -0.5 121t-0.5 103.5v84t-0.5 66.5t-0.5 46.5v29.5v10q-91 -21 -170.5 -120.5t-79.5 -185.5z" />
<glyph unicode="&#x649;" horiz-adv-x="1350" d="M1255 565l1 -1q27 -49 34 -98q33 -140 -34 -258q-60 -108 -189 -173.5t-288 -70.5q-166 -3 -315 61q-221 96 -322.5 225t-101.5 335q0 83 23.5 121.5t76.5 38.5t144 -49q-40 -62 -34 -112q13 -93 57 -167.5t109 -120.5t144 -70t164 -22q110 4 188 46.5t102 113.5t-22 166 q-76 99 -225 99q-70 0 -130 -28q-55 76 -55 118q0 131 71.5 234.5t195 160t276.5 56.5q185 0 185 -102q0 -51 -54 -143q-69 34 -150 34q-94 0 -179 -45t-115 -114q190 -10 320 -103q81 -59 123 -132z" />
<glyph unicode="&#x64a;" horiz-adv-x="1350" d="M1255 565l1 -1q27 -49 34 -98q33 -140 -34 -258q-60 -108 -189 -173.5t-288 -70.5q-166 -3 -315 61q-221 96 -322.5 225t-101.5 335q0 83 23.5 121.5t76.5 38.5t144 -49q-40 -62 -34 -112q13 -93 57 -167.5t109 -120.5t144 -70t164 -22q110 4 188 46.5t102 113.5t-22 166 q-76 99 -225 99q-70 0 -130 -28q-55 76 -55 118q0 131 71.5 234.5t195 160t276.5 56.5q185 0 185 -102q0 -51 -54 -143q-69 34 -150 34q-94 0 -179 -45t-115 -114q190 -10 320 -103q81 -59 123 -132zM575 -106q48 0 79.5 -29.5t31.5 -74.5q0 -53 -37.5 -89.5t-93.5 -36.5 q-48 0 -78 29.5t-30 76.5q0 52 37 88t91 36zM876 -106q48 0 79.5 -29.5t31.5 -74.5q0 -53 -37.5 -89.5t-92.5 -36.5q-49 0 -78.5 29.5t-29.5 76.5q0 52 36.5 88t90.5 36z" />
<glyph unicode="&#x64b;" d="M-133 140l150 -2q95 -1 150 -1q21 -1 29 13.5t4.5 34t-13.5 33.5q-14 -8 -54 -8l-152 2q-94 1 -148 1q-21 1 -29 -13.5t-4.5 -34t13.5 -33.5q14 9 54 8zM-133 8l150 -2q95 -1 150 -1q21 -1 29 13.5t4.5 34t-13.5 33.5q-14 -8 -54 -8l-152 2q-94 1 -148 1q-21 1 -29 -13.5 t-4.5 -34t13.5 -33.5q14 8 54 8z" />
<glyph unicode="&#x64c;" d="M-56 85q25 -13 46 4q7 6 16 19q-84 52 -90 114q-3 30 12 56q35 58 98 65.5t135 -38.5q27 -17 39 -39q-4 -2 -8 -5.5t-9 -9.5t-8.5 -10.5t-8.5 -13.5t-8.5 -14.5t-10 -16.5t-9.5 -17l-12 -20l-22 -39q-1 -3 -5 -7q-27 -46 -42.5 -67t-35.5 -34t-40.5 -8.5t-52.5 22.5l-6 3 q-29 20 -53.5 8t-31.5 -37q-24 9 -33 23q-8 12 1 30t30 30q61 37 109 2zM39 273q-18 -7 -32 -18t-21 -25.5t5.5 -32.5t46.5 -35q66 114 66 116q-27 9 -65 -5z" />
<glyph unicode="&#x64d;" d="M-133 -78q56 0 150 -1l150 -2q30 -1 34 30.5t-14 50.5q-13 -7 -54 -7q-57 0 -152 1l-148 2q-30 1 -34 -30.5t14 -50.5q13 9 54 7zM-133 -210q56 0 150 -1l150 -2q30 -1 34 30.5t-14 50.5q-13 -7 -54 -7q-57 0 -152 1l-148 2q-30 1 -34 -30.5t14 -50.5q13 7 54 7z" />
<glyph unicode="&#x64e;" d="M-116 8l135 -2q85 -1 133 -1q32 -2 35.5 29.5t-14.5 51.5q-16 -9 -55 -8l-135 2q-84 1 -134 1q-34 1 -34 -33q-2 -29 13 -48q16 8 56 8z" />
<glyph unicode="&#x64f;" d="M-66 80q6 4 19 17l-1 1q-73 60 -72 121q1 28 20 51q42 54 103.5 52.5t125.5 -55.5q25 -20 32 -43q-18 -6 -71 -77l-13 -16q-25 -33 -27 -36q-4 -4 -5 -6q-32 -40 -50.5 -59t-39.5 -29t-40.5 -3t-47.5 28q-19 16 -26 34q-12 36 38 47q3 -20 18.5 -29.5t36.5 2.5zM-43 227 q-30 -39 33 -83l81 104q-27 12 -63 4.5t-51 -25.5z" />
<glyph unicode="&#x650;" d="M-116 -78q51 0 135 -1l133 -2q32 -1 35.5 30.5t-14.5 50.5q-14 -9 -55 -7q-50 0 -135 1l-134 2q-34 1 -34 -33q-2 -29 13 -48q14 7 56 7z" />
<glyph unicode="&#x651;" d="M151 207q17 1 39 -15q-10 -13 -10 -64v-29q1 -14 1 -25q0 -42 -35.5 -61.5t-77 -11t-59.5 34.5q-18 -25 -63.5 -34.5t-85.5 8t-40 61.5v54q0 50 -11 64q22 17 38 17q37 0 37 -35q0 -14 -1 -30q-1 -24 0 -36q0 -24 12.5 -34.5t26 -10t27.5 5.5q19 10 19 30v9q0 18 -1 29 q0 4 -0.5 10t-1 9t-0.5 5q0 34 38 34q16 0 37 -15q-10 -13 -10 -51q0 -6 1 -9v-21q1 -19 23 -27q18 -10 41 -2t23 40q0 20 -1 36q-3 24 -3 30q0 34 37 34z" />
<glyph unicode="&#x652;" d="M72 291q35 0 59 -18q-11 -16 -11 -61v-74l2 -67q0 -32 -25 -51.5t-62 -19.5h-32q-64 0 -101 37.5t-34 90.5q1 77 56 121q54 46 148 42zM-61 125q0 -78 70 -78q33 0 33 48l2 64q2 54 0 78q-39 -9 -72 -44t-33 -68z" />
<glyph unicode="&#x653;" d="M146 145q47 -19 56 -33q11 -21 -6 -54.5t-50 -44.5q-51 -17 -180 29q-48 19 -75 11t-36 -53q-47 18 -57.5 35.5t3.5 48.5q13 34 48 47q57 18 186 -29q46 -20 72 -11.5t39 54.5z" />
<glyph unicode="&#x660;" horiz-adv-x="372" d="M185 727q-136 0 -136 -135q0 -136 136 -136t136 136q0 135 -136 135z" />
<glyph unicode="&#x661;" horiz-adv-x="441" d="M49 1284q102 -1047 85 -1204q-5 -20 14 -40t54 -30q87 -26 176 26q18 112 10.5 673.5t-38.5 655.5q-8 25 -51 33t-96 -3q-132 -26 -154 -111z" />
<glyph unicode="&#x662;" horiz-adv-x="868" d="M94 1109q-22 -60 -25 -118.5t14 -122.5t45 -125.5t75 -144.5q52 -91 76.5 -136.5t53 -104.5t39 -96.5t16 -82.5t1.5 -93q-2 -26 31 -48.5t84 -32.5q123 -23 177 46q33 123 -10.5 249.5t-164.5 318.5q-48 76 -75 123t-49 95.5t-25.5 80.5t6 62t35.5 56q32 32 71 35 t75.5 -19.5t63.5 -47.5t50 -54q88 0 149 135q25 55 30 104t-13 69q-92 92 -204 126.5t-212.5 13t-185.5 -96.5t-128 -191z" />
<glyph unicode="&#x663;" horiz-adv-x="1252" d="M1155 1382q-7 21 -44 22.5t-82 -15.5q-111 -41 -120 -113q80 -129 79.5 -259.5t-90.5 -169.5q-21 -10 -40 -11q-41 -6 -78 64q-13 24 -19 42q7 246 -60 391q-8 21 -44 23t-79 -13q-106 -39 -113 -112q42 -87 58 -177t-1 -160t-66 -96q-11 -7 -27 -10l-40 125 q-42 207 -67 411q-44 75 -149 75q-44 -1 -74.5 -17.5t-32.5 -42.5q-16 -213 160 -667q170 -434 141 -602q43 -76 151 -73q45 1 77.5 18t37.5 43q24 126 -5 236t-125 316q128 36 196 135q63 -69 139.5 -87.5t146 6t128.5 81.5q64 62 89 179t11 240.5t-58 217.5z" />
<glyph unicode="&#x664;" horiz-adv-x="909" d="M779 308q-123 -38 -256 -40q-79 0 -119 28q8 35 205 183q192 143 192 230q0 153 -393 199q-98 10 -45 78l16 17q28 23 56 39q113 64 241 94q59 44 39 160q-9 48 -29 78.5t-41 26.5q-189 -17 -335 -118.5t-191 -219.5q-33 -92 -12 -162.5t85.5 -118t157 -72t202.5 -24.5 q-172 -46 -280 -181q-64 -80 -81.5 -163t3 -144.5t66.5 -105.5q61 -56 175 -78.5t236 -8.5t214 57q21 8 22.5 44.5t-14.5 81.5q-41 111 -114 120z" />
<glyph unicode="&#x665;" horiz-adv-x="1069" d="M631 -2q-172 2 -304 94.5t-184.5 260.5t19.5 403q41 130 132.5 272t193 238t169.5 100q52 3 144 -116q89 -117 167 -294q194 -444 86 -703q-52 -128 -166.5 -192.5t-256.5 -62.5zM613 276q157 0 214 133q31 74 30 175.5t-25.5 208t-67.5 202.5q-58 133 -101 138 q-39 4 -87.5 -55.5t-89.5 -159t-63 -207.5q-22 -125 -14 -221.5t60.5 -155t143.5 -58.5z" />
<glyph unicode="&#x666;" horiz-adv-x="1004" d="M158 1401q-51 -19 -77.5 -76t-19 -112t42.5 -72q36 -17 301 2q52 4 130 14q94 11 117 3q32 -10 38 -66q4 -40 -2 -187q-6 -121 -8 -200q-12 -462 45 -688q94 -43 178 -9q33 14 50 35.5t10 41.5q-9 77 -35 717q-3 66 -5 178q-4 202 -19 266q-20 93 -89 129q-78 40 -296 38 q-105 -1 -361 -14z" />
<glyph unicode="&#x667;" horiz-adv-x="998" d="M262 1401q-130 0 -175 -33q-37 -28 -11 -335q11 -127 33 -261t60 -274.5t86.5 -249.5t116 -178.5t143.5 -69.5q195 0 365 566q51 170 75 470.5t-12 331.5q-45 33 -175 33q-55 1 -91 -22.5t-35 -54.5q17 -353 -34 -676q-57 -373 -93 -373t-93 373q-51 323 -34 676 q2 31 -34.5 54.5t-91.5 22.5z" />
<glyph unicode="&#x668;" horiz-adv-x="997" d="M768 0q134 5 174 34q37 28 12 334q-10 127 -32.5 261.5t-61 274.5t-86.5 249t-116 178.5t-143 69.5q-199 0 -365 -565q-50 -171 -74.5 -471t11.5 -331q40 -29 174 -34q55 -1 91.5 23t34.5 55q-17 347 34 676q58 373 94 373q35 0 93 -373q51 -329 34 -676q-1 -31 35.5 -55 t90.5 -23z" />
<glyph unicode="&#x669;" horiz-adv-x="865" d="M836 690l-1 74q-13 398 -150 534q-70 70 -154.5 95.5t-166.5 7t-152 -74.5q-107 -84 -133 -211.5t49 -259.5q71 -120 205.5 -187.5t273.5 -60.5q5 -247 -26 -527q-5 -20 14 -40t54 -30q86 -26 175 26q16 120 12 654zM318 1114q62 97 181 26q49 -28 64 -83t30 -216 q1 -14 2 -21q-66 4 -131 33.5t-106.5 71.5t-56.5 92.5t17 96.5z" />
<glyph unicode="&#x670;" d="M10 0q17 -2 33 16q-4 7 9 209q2 28 -17.5 40.5t-45.5 9t-45 -17.5q11 -9 17.5 -90.5t4.5 -119.5q-3 -44 44 -47z" />
<glyph unicode="&#x67e;" horiz-adv-x="1298" d="M1258 803q-31 -49 -31 -193l2 -203q0 -49 0.5 -94t1 -66.5t0.5 -25.5q0 -221 -202 -221h-537q-243 0 -344.5 71.5t-107.5 250.5q-3 98 27 187t83.5 142.5t113.5 53.5q64 0 106 -98q-62 -26 -86 -101t-3 -161q17 -68 66 -97t145 -29h402q44 0 62.5 28.5t18.5 94.5 q0 24 -5 207q-5 185 -5 188q0 57 33 89.5t91 32.5q98 0 169 -56zM488 -335q-48 0 -78 29t-30 76q0 52 37.5 88t90.5 36q49 0 80 -29.5t31 -74.5q0 -53 -37.5 -89t-93.5 -36zM789 -335q-49 0 -78 30q-30 29 -30 75q0 52 37 88t90 36q49 0 80.5 -29.5t31.5 -74.5 q0 -53 -37.5 -89t-93.5 -36zM618 -585q-48 0 -78 29t-30 76q0 52 37.5 88t90.5 36q49 0 80 -29.5t31 -74.5q0 -53 -37.5 -89t-93.5 -36z" />
<glyph unicode="&#x686;" horiz-adv-x="1186" d="M1143 316q12 -142 -26 -212q-36 -67 -87 -85.5t-181 -18.5h-226q-143 -1 -220 -59.5t-77 -157.5t67 -161.5t173 -62.5q71 0 130 34q57 -93 57 -144q0 -53 -44.5 -77t-140.5 -24q-144 0 -265 61t-192 169.5t-71 239.5q0 159 107 266t291 132h267q-95 33 -297 162 q-227 142 -265 213q-27 52 -9 107q20 61 78.5 105.5t123.5 47.5q0 -61 96 -160t245 -198t278 -149.5t188 -27.5zM726 -270q-48 0 -78 29t-30 76q0 52 37.5 88t90.5 36q49 0 80 -29.5t31 -74.5q0 -53 -37.5 -89t-93.5 -36zM1027 -270q-49 0 -78 30q-30 28 -30 75q0 52 37 88 t90 36q49 0 80.5 -29.5t31.5 -74.5q0 -53 -37.5 -89t-93.5 -36zM856 -520q-48 0 -78 29t-30 76q0 52 37.5 88t90.5 36q49 0 80 -29.5t31 -74.5q0 -53 -37.5 -89t-93.5 -36z" />
<glyph unicode="&#x698;" horiz-adv-x="626" d="M447 1227q-48 0 -78 29t-30 76q0 52 37.5 88t90.5 36q49 0 80 -29.5t31 -74.5q0 -53 -37.5 -89t-93.5 -36zM277 987q-48 0 -78 29t-30 76q0 52 37.5 88t90.5 36q49 0 80 -29.5t31 -74.5q0 -53 -37.5 -89t-93.5 -36zM578 987q-50 0 -78 30q-30 29 -30 75q0 52 37 88t90 36 q49 0 80.5 -29.5t31.5 -74.5q0 -53 -37.5 -89t-93.5 -36zM555 596q0 -360 2 -422q-2 -76 -4 -123.5t-6 -103.5t-9 -89t-15 -71t-22 -58.5t-31 -43.5t-41.5 -34t-54 -21t-68 -13t-83.5 -3q-75 0 -129 38.5t-54 89.5q0 52 53 123q40 -37 89 -37q66 0 94.5 54.5t28.5 179.5 q0 42 -2 112v75q0 63 -4 246q-5 228 -5 229q0 58 33.5 93.5t89.5 35.5q105 0 169 -64q-31 -49 -31 -193z" />
<glyph unicode="&#x6a4;" horiz-adv-x="1639" d="M1308 1227q-48 0 -78 29t-30 76q0 52 37.5 88t90.5 36q49 0 80 -29.5t31 -74.5q0 -53 -37.5 -89t-93.5 -36zM1138 987q-48 0 -78 29t-30 76q0 52 37.5 88t90.5 36q49 0 80 -29.5t31 -74.5q0 -53 -37.5 -89t-93.5 -36zM1439 987q-49 0 -78 30q-30 29 -30 75q0 52 37 88 t90 36q49 0 80.5 -29.5t31.5 -74.5q0 -53 -37.5 -89t-93.5 -36zM1599 814q-30 -49 -30 -193l2 -209q0 -51 0.5 -97t1 -68.5t0.5 -26.5q0 -220 -202 -220h-935q-211 8 -300.5 80t-95.5 240q-4 99 26 188t83.5 141.5t114.5 52.5q63 0 105 -98q-62 -24 -86.5 -100t-2.5 -160 q15 -68 64.5 -97t146.5 -31h393q-53 88 -53 180q0 202 163 343q73 64 191 99.5t246 30.5q100 0 168 -55zM1236 216q48 0 64.5 21t16.5 84q0 37 -3 152q-5 175 -5 185q-99 -24 -171 -99.5t-72 -160.5q0 -94 40.5 -138t129.5 -44z" />
<glyph unicode="&#x6af;" horiz-adv-x="1374" d="M1334 1324q-30 -50 -30 -193l2 -463q1 -287 1 -446q0 -222 -201 -222h-701q-193 14 -276 87t-89 234q-5 151 63 266.5t161 115.5q64 0 105 -98q-61 -24 -85.5 -100t-3.5 -161q17 -68 66 -96.5t145 -31.5h480q45 0 63 28.5t18 95.5q0 88 -4 468l-5 451q0 55 33 88t90 33 q98 0 168 -56zM554 1154q-18 10 -23 29.5t15 29.5l121 53q111 49 121 54q25 9 35 19q18 -11 23 -30t-16 -29l-121 -53q-33 -14 -64 -28t-43.5 -20t-14.5 -6q-26 -9 -33 -19zM501 812h58q-31 43 -31 95q0 66 49 106.5t131 40.5q76 0 115 -39q13 -11 18 -36t-6.5 -47.5 t-42.5 -22.5q-38 0 -61 15q8 0 13.5 12.5t2.5 27.5v2q-19 6 -36 6q-33 0 -55 -22t-22 -56q0 -32 19.5 -54t50.5 -28h113q52 -3 52 -40q0 -42 -20 -68q-14 12 -32 14h-318q-20 2 -34 18t-14 35q0 28 20 54q13 -11 30 -13z" />
<glyph unicode="&#x6be;" horiz-adv-x="1241" d="M1038 741q163 -141 163 -343q0 -178 -132 -288t-350 -110h-739v216h135q-35 67 -35 145q0 157 115.5 259t297.5 112q-5 22 -5 36q0 53 44.5 77t140.5 24q219 0 365 -128zM664 216h44q90 0 149 63q58 59 58 154q0 100 -67 162.5t-174 62.5h-2q-11 -44 -11 -121l2 -164 q1 -93 1 -151v-6zM339 216h101q23 21 23 85l-1 29q0 29 -2 102.5t-4 160.5q-69 -18 -117 -87t-48 -144q0 -64 10 -96.5t38 -49.5z" />
<glyph unicode="&#x6cc;" horiz-adv-x="1350" d="M1255 565l1 -1q27 -49 34 -98q33 -140 -34 -258q-60 -108 -189 -173.5t-288 -70.5q-166 -3 -315 61q-221 96 -322.5 225t-101.5 335q0 83 23.5 121.5t76.5 38.5t144 -49q-40 -62 -34 -112q13 -93 57 -167.5t109 -120.5t144 -70t164 -22q110 4 188 46.5t102 113.5t-22 166 q-76 99 -225 99q-70 0 -130 -28q-55 76 -55 118q0 131 71.5 234.5t195 160t276.5 56.5q185 0 185 -102q0 -51 -54 -143q-69 34 -150 34q-94 0 -179 -45t-115 -114q190 -10 320 -103q81 -59 123 -132z" />
<glyph unicode="&#x6f0;" horiz-adv-x="371" d="M185 728q-136 0 -136 -136q0 -135 136 -135q135 0 135 135q0 136 -135 136z" />
<glyph unicode="&#x6f1;" horiz-adv-x="441" d="M49 1285q102 -1048 85 -1205q-5 -20 14 -40t54 -30q87 -26 175 26q12 80 14 375.5t-9 593t-33 360.5q-8 25 -51 33t-96 -3q-130 -25 -153 -110z" />
<glyph unicode="&#x6f2;" horiz-adv-x="868" d="M94 1110q-22 -60 -25 -118.5t14 -122.5t45 -125.5t75 -144.5q52 -92 76.5 -137t53 -104.5t39 -97t16 -82t1.5 -92.5q-2 -26 31 -49t84 -32q123 -23 177 46q33 123 -10.5 249.5t-164.5 317.5q-61 97 -91 151.5t-48.5 108.5t-10 90t40.5 68t71.5 35t75.5 -19.5t63.5 -47.5 t50.5 -54q88 0 149 135q25 55 30 104t-13 69q-74 73 -161 111t-171.5 35.5t-162.5 -35t-139.5 -100t-95.5 -159.5z" />
<glyph unicode="&#x6f3;" horiz-adv-x="1252" d="M1155 1385q-8 21 -45 22.5t-81 -14.5q-111 -41 -119 -113q52 -87 70.5 -176.5t-2 -158.5t-79.5 -95q-11 -6 -41 -11q-39 -6 -78 64q-14 21 -18 43q4 248 -61 390q-8 21 -43.5 23t-78.5 -13q-107 -39 -114 -112q67 -130 66 -261.5t-75 -171.5q-11 -6 -26 -10q-6 16 -14 43 q-25 72 -27 82q-42 214 -66 412q-44 76 -150 74q-44 -1 -74.5 -17.5t-31.5 -42.5q-17 -214 159 -666q170 -435 141 -603q43 -75 151 -72q45 1 77.5 17.5t37.5 42.5q25 127 -4 237.5t-125 315.5q130 35 196 134q63 -69 139 -87.5t145.5 6t128.5 82.5q63 61 88.5 177t12 239 t-58.5 220z" />
<glyph unicode="&#x6f4;" horiz-adv-x="1008" d="M706 1112q2 -154 -62 -266q-8 -16 -31 -46q-35 52 -42 130.5t12.5 153t68.5 136t117 79.5q20 12 20 38t-18 51q-44 63 -107 27q-92 -53 -143 -168t-45.5 -251t68.5 -245q-52 -17 -101 5q-92 272 -120 572q-43 76 -150 74q-44 -1 -74.5 -17.5t-32.5 -42.5 q-16 -212 160 -666q170 -435 141 -603q43 -76 159 -73q47 1 78 18t29 43q-19 217 -114 481q77 -4 148 31t122.5 93.5t92 132t63 146.5t27.5 136q4 21 -27 41t-79 29q-116 20 -160 -39z" />
<glyph unicode="&#x6f5;" horiz-adv-x="973" d="M542 1089h-4q-57 0 -144 -76.5t-158 -192.5q-186 -298 -114 -567q24 -88 80 -155q60 -69 163 -78t177 39q73 -46 205 -37q67 4 126.5 71.5t83.5 159.5q72 268 -113 567q-72 115 -159 192t-143 77zM714 328q-22 -13 -31 -13q-47 0 -84 70q-37 69 -59 69t-60 -69 q-37 -70 -83 -70q-12 0 -31 13q-93 102 -1 317q36 84 85.5 146t81.5 65h16q32 -3 81 -65t85 -146q92 -215 0 -317z" />
<glyph unicode="&#x6f6;" horiz-adv-x="976" d="M871 978l-58 3q-104 2 -338 -78l-15 -6q-44 13 -78 48q-53 56 -44 100t72 70q136 55 289 -17q27 7 45.5 34.5t25.5 65t9.5 70.5t0.5 63q-71 73 -191 82.5t-231 -49.5t-154 -168q-41 -108 -6.5 -211.5t133.5 -169.5q-63 -56 -110 -120.5t-72.5 -116.5t-43.5 -124t-24 -113 t-14 -114q-4 -34 -5.5 -60t0 -48t3 -38t9.5 -29t14 -21t20.5 -14t26 -9t34 -4.5t40 -2t48.5 -0.5q56 -1 92 22t35 55q-13 236 5 334q17 89 52 153t81 99t102.5 48.5t117 5.5t125.5 -35q77 44 69 170q-2 53 -20.5 89t-44.5 36z" />
<glyph unicode="&#x6f7;" horiz-adv-x="997" d="M262 1402q-137 -5 -175 -34q-37 -28 -11 -334q11 -127 33 -261.5t60 -274.5t86.5 -249t116 -178.5t143.5 -69.5q197 0 364 566q51 169 75.5 469t-12.5 332q-37 29 -174 34q-55 1 -91 -22.5t-35 -54.5q17 -353 -34 -676q-57 -373 -93 -373t-93 373q-51 323 -34 676 q2 31 -34.5 54.5t-91.5 22.5z" />
<glyph unicode="&#x6f8;" horiz-adv-x="997" d="M768 1q131 0 174 34q37 28 12 334q-11 127 -33 261.5t-60.5 274.5t-87 249t-116 178.5t-143.5 69.5q-197 0 -364 -566q-50 -170 -74.5 -470t11.5 -331q43 -34 174 -34q56 -1 92 22t35 55q-18 339 33 676q57 373 93 373t94 -373q52 -337 33 -676q-1 -31 35.5 -54.5 t91.5 -22.5z" />
<glyph unicode="&#x6f9;" horiz-adv-x="865" d="M836 691l-1 74q-13 397 -150 534q-69 69 -154.5 94.5t-167.5 7t-152 -73.5q-106 -85 -132 -211.5t48 -259.5q71 -120 205.5 -187.5t274.5 -61.5q5 -247 -26 -527q-6 -20 13.5 -40t53.5 -30q87 -26 176 26q16 120 12 655zM318 1115q61 94 182 26q48 -28 63 -83t30 -214 q1 -15 2 -23q-66 4 -131 33t-106.5 71.5t-56.5 93t17 96.5z" />
<glyph unicode="&#x2000;" horiz-adv-x="930" />
<glyph unicode="&#x2001;" horiz-adv-x="1861" />
<glyph unicode="&#x2002;" horiz-adv-x="930" />
<glyph unicode="&#x2003;" horiz-adv-x="1861" />
<glyph unicode="&#x2004;" horiz-adv-x="620" />
<glyph unicode="&#x2005;" horiz-adv-x="465" />
<glyph unicode="&#x2006;" horiz-adv-x="310" />
<glyph unicode="&#x2007;" horiz-adv-x="310" />
<glyph unicode="&#x2008;" horiz-adv-x="232" />
<glyph unicode="&#x2009;" horiz-adv-x="372" />
<glyph unicode="&#x200a;" horiz-adv-x="103" />
<glyph unicode="&#x2010;" horiz-adv-x="707" d="M638 634q9 -77 9 -107q0 -191 -185 -191q-44 0 -128 11.5t-123 11.5q-85 0 -149 -29q-10 72 -10 107q0 98 46.5 144.5t142.5 46.5q47 0 126.5 -11.5t111.5 -11.5q100 0 159 29z" />
<glyph unicode="&#x2011;" horiz-adv-x="707" d="M638 634q9 -77 9 -107q0 -191 -185 -191q-44 0 -128 11.5t-123 11.5q-85 0 -149 -29q-10 72 -10 107q0 98 46.5 144.5t142.5 46.5q47 0 126.5 -11.5t111.5 -11.5q100 0 159 29z" />
<glyph unicode="&#x2012;" horiz-adv-x="707" d="M638 634q9 -77 9 -107q0 -191 -185 -191q-44 0 -128 11.5t-123 11.5q-85 0 -149 -29q-10 72 -10 107q0 98 46.5 144.5t142.5 46.5q47 0 126.5 -11.5t111.5 -11.5q100 0 159 29z" />
<glyph unicode="&#x2013;" horiz-adv-x="966" d="M-14 582h994v-199h-994v199z" />
<glyph unicode="&#x2014;" horiz-adv-x="1932" d="M-14 582h1960v-199h-1960v199z" />
<glyph unicode="&#x2018;" horiz-adv-x="601" d="M439 1372l-16 -8q-58 -34 -88 -79t-30 -93q0 -54 43 -75q8 -4 36.5 -16t38 -18.5t26 -21t22.5 -34t6 -46.5q0 -65 -46.5 -106.5t-123.5 -41.5q-93 0 -150 58t-57 156q0 130 92.5 225.5t246.5 116.5v-17z" />
<glyph unicode="&#x2019;" horiz-adv-x="601" d="M178 852l17 14q36 28 59.5 71t23.5 79q0 54 -20.5 75t-73.5 33q-64 16 -93 44t-29 84q0 67 45 110.5t115 43.5q102 0 167 -71t65 -184q0 -101 -68.5 -182.5t-198.5 -131.5z" />
<glyph unicode="&#x201a;" horiz-adv-x="601" d="M203 -201l17 14q36 28 59.5 71t23.5 79q0 54 -20.5 75t-73.5 33q-64 16 -93 44t-29 84q0 67 45.5 111t114.5 44q102 0 167 -71.5t65 -183.5q0 -102 -68 -183.5t-198 -131.5z" />
<glyph unicode="&#x201c;" horiz-adv-x="1094" d="M439 1372l-16 -8q-58 -34 -88 -79t-30 -93q0 -54 43 -75q8 -4 36.5 -16t38 -18.5t26 -21t22.5 -34t6 -46.5q0 -65 -46.5 -106.5t-123.5 -41.5q-93 0 -150 58t-57 156q0 130 92.5 225.5t246.5 116.5v-17zM935 1372l-15 -8q-59 -34 -89.5 -79t-30.5 -93q0 -54 44 -75 q10 -5 31 -14t31 -14t25.5 -16t22.5 -22t12.5 -29t5.5 -41q0 -65 -46 -106.5t-122 -41.5q-93 0 -150 58t-57 156q0 130 92 225.5t246 116.5v-17z" />
<glyph unicode="&#x201d;" horiz-adv-x="1094" d="M178 852l17 14q36 28 59.5 71t23.5 79q0 54 -20.5 75t-73.5 33q-64 16 -93 44t-29 84q0 67 45 110.5t115 43.5q102 0 167 -71t65 -184q0 -101 -68.5 -182.5t-198.5 -131.5zM670 852l18 14q36 28 59.5 71t23.5 79q0 54 -21 75t-74 33q-64 16 -93 44t-29 84 q0 67 45.5 110.5t115.5 43.5q102 0 167 -71t65 -184q0 -101 -68.5 -182.5t-198.5 -131.5z" />
<glyph unicode="&#x201e;" horiz-adv-x="1094" d="M203 -201l17 14q36 28 59.5 71t23.5 79q0 54 -20.5 75t-73.5 33q-64 16 -93 44t-29 84q0 67 45.5 111t114.5 44q102 0 167 -71.5t65 -183.5q0 -102 -68 -183.5t-198 -131.5zM696 -201l17 14q36 28 59.5 71t23.5 79q0 54 -21 75t-74 33q-63 16 -92 44t-29 84q0 67 45 111 t115 44q102 0 167 -71.5t65 -183.5q0 -102 -68.5 -183.5t-198.5 -131.5z" />
<glyph unicode="&#x2020;" horiz-adv-x="1030" d="M931 1016q74 -79 74 -152q0 -69 -55 -105t-162 -36q-20 0 -133 3q-6 -275 -6 -413q0 -151 16 -256t61 -188q-135 -78 -228 -78q-86 0 -120 49.5t-34 165.5q0 15 5 112t10.5 266.5t5.5 359.5q-157 -6 -259 -54q-75 75 -75 145q0 146 214 146q30 0 120 -3q-6 208 -79 326 q144 77 228 77q82 0 119 -42.5t37 -132.5q0 -36 -7 -242q169 6 268 52z" />
<glyph unicode="&#x2021;" horiz-adv-x="1030" d="M925 1068q58 -80 58 -146q0 -63 -44.5 -91.5t-140.5 -28.5q-66 0 -160 6q-6 -183 -6 -354q200 6 284 48q60 -85 60 -148q0 -120 -188 -120q-61 0 -154 6v-26q0 -245 63 -359q-130 -64 -200 -64q-72 0 -105 38t-33 121q0 12 4.5 112t5.5 191q-191 -6 -282 -46 q-62 85 -62 148q0 61 46.5 89.5t142.5 28.5q19 0 161 -5q6 185 6 351q-183 -3 -284 -46q-60 83 -60 147q0 121 185 121q7 0 26 -0.5t56 -1.5t73 -2q0 191 -54 279q123 65 201 65q69 0 101 -35.5t32 -110.5q0 -11 -1.5 -37.5t-5 -77t-5.5 -98.5q188 6 280 46z" />
<glyph unicode="&#x2022;" horiz-adv-x="1140" d="M848 719q0 -116 -82 -198t-198 -82q-117 0 -197.5 80.5t-80.5 199.5q0 117 81 197.5t199 80.5q117 0 197.5 -80.5t80.5 -197.5z" />
<glyph unicode="&#x2026;" horiz-adv-x="1932" d="M504 172q0 -75 -59 -129.5t-146 -54.5q-79 0 -129 48.5t-50 125.5q0 83 56 136.5t145 53.5q84 0 133.5 -49.5t49.5 -130.5zM1144 178q0 -81 -58 -135.5t-147 -54.5q-79 0 -129.5 48.5t-50.5 125.5q0 83 56 136.5t145 53.5q82 0 133 -48.5t51 -125.5zM1787 178 q0 -81 -58 -135.5t-147 -54.5q-79 0 -130 50t-51 124q0 84 56 137t147 53q82 0 132.5 -48.5t50.5 -125.5z" />
<glyph unicode="&#x202f;" horiz-adv-x="372" />
<glyph unicode="&#x2030;" horiz-adv-x="2917" d="M1225 1381q78 12 125 12q63 0 99.5 -28t36.5 -74q0 -40 -27 -99q-41 -80 -134 -229.5t-202 -336.5t-200 -373q-88 -182 -88 -270q-65 -12 -109 -12q-71 0 -109.5 30t-38.5 82q0 32 21 83t68 134t97.5 167t136.5 227.5t158 269.5q163 283 166 417zM479 1379 q184 0 285.5 -97t101.5 -272q0 -183 -113 -302t-287 -119q-179 0 -284 103.5t-105 275.5q0 188 109.5 299.5t292.5 111.5zM628 1007q0 92 -38 140.5t-111 48.5q-164 0 -164 -209q0 -102 39 -156t110 -54q79 0 121.5 59t42.5 171zM1975 406q0 -186 -116 -304.5t-300 -118.5 q-169 0 -272 104t-103 274q0 188 110 300t294 112t285.5 -96.5t101.5 -270.5zM2465 771q184 0 285.5 -96t101.5 -269q0 -188 -115 -306.5t-299 -118.5q-169 0 -273 104t-104 274q0 187 110 299.5t294 112.5zM1737 402q0 93 -39 142t-112 49q-164 0 -164 -210 q0 -211 155 -211q73 0 116.5 60t43.5 170zM2614 402q0 93 -39 142t-112 49q-164 0 -164 -210q0 -102 39 -156.5t110 -54.5q79 0 122.5 59.5t43.5 170.5z" />
<glyph unicode="&#x2039;" horiz-adv-x="468" d="M402 232q0 -25 -14.5 -39.5t-39.5 -14.5q-66 0 -174 89q-114 93 -114 204q0 78 93 174q116 116 195 116q25 0 39.5 -15t14.5 -41q0 -29 -26 -68.5t-51.5 -83t-25.5 -82.5q0 -34 16 -71.5t35.5 -63.5t35.5 -55t16 -49z" />
<glyph unicode="&#x203a;" horiz-adv-x="468" d="M408 469q0 -49 -21.5 -89.5t-67.5 -85.5q-58 -57 -113 -87.5t-86 -30.5q-26 0 -41 14.5t-15 39.5q0 27 26 66.5t52 85t26 87.5q0 40 -25.5 83.5t-51 83t-25.5 69.5q0 26 13.5 41t38.5 15q35 0 88.5 -30t108.5 -86q93 -96 93 -176z" />
<glyph unicode="&#x2044;" horiz-adv-x="323" d="M-137 -23q-59 -6 -87 -6q-64 0 -99.5 29t-35.5 79q0 27 13.5 61t52.5 92t69.5 100.5t105 141t118.5 158.5q222 302 329 472.5t123 269.5q59 9 83 9q68 0 105.5 -29.5t37.5 -80.5q0 -24 -15.5 -58.5t-58.5 -97.5t-80.5 -114.5t-120.5 -163.5t-140 -190 q-196 -267 -294 -429.5t-106 -242.5z" />
<glyph unicode="&#x205f;" horiz-adv-x="465" />
<glyph unicode="&#x2122;" horiz-adv-x="1505" d="M560 1372q29 -45 29 -81q0 -37 -18.5 -49.5t-64.5 -12.5q-2 0 -16.5 0.5t-40.5 1t-55 0.5q-2 -42 -4 -85t-3 -65t-1 -30q0 -142 29 -197q-64 -29 -119 -29q-44 0 -63 17.5t-19 59.5q0 7 5.5 115t6.5 214q-25 2 -54 2q-73 0 -108 -18q-29 45 -29 83q0 34 16.5 46t58.5 12 q5 0 36 -1.5t86.5 -3t117.5 -1.5q166 0 210 22zM1403 858q-68 -33 -124 -33q-20 0 -33.5 5t-22 18.5t-12.5 28.5t-6 45.5t-2.5 57.5t-1.5 76.5t-3 91.5q-27 -48 -56.5 -105t-45 -87t-33.5 -59.5t-34.5 -41t-35.5 -11.5t-35 12t-33.5 40t-33 59t-44.5 86t-57 103 q-7 -198 -8 -206q-7 -85 -41 -104q-17 -9 -42 -9q-43 0 -108 35q64 137 64 322q0 107 -27 147q58 37 114 37q28 0 50.5 -11t41.5 -33.5t37 -52.5t42 -73q6 -13 10 -19q12 -21 24.5 -44.5t19.5 -37t14 -25t11 -16.5t7 -5t7.5 6t12.5 20.5t16 30t22.5 44t28.5 54.5 q49 90 83 126t87 36q49 0 110 -37q-31 -50 -31 -147q0 -183 68 -324z" />
<glyph unicode="&#x2212;" horiz-adv-x="1609" d="M1279 468h-949q-46 0 -77 30.5t-31 77.5q0 49 30.5 79.5t77.5 30.5h951q46 0 77 -31.5t31 -78.5q0 -49 -30.5 -78.5t-79.5 -29.5z" />
<glyph unicode="&#x25fc;" horiz-adv-x="975" d="M0 975h975v-975h-975v975z" />
<glyph d="M-141 336q11 6 41 5h114l111 -2q23 -1 26 22t-11 38q-10 -6 -39 -6q-11 3 -227 3q-25 0 -25 -25q0 -21 10 -35zM-141 239q10 6 41 4q42 0 114 -1h111q23 -2 26 21.5t-11 38.5q-10 -6 -39 -6q-43 0 -114 1l-113 2q-25 0 -25 -26q0 -21 10 -34zM129 177q14 0 33 -13 q-9 -12 -9 -54v-26l2 -21q0 -36 -30 -52t-65.5 -9t-51.5 30q-21 -32 -98 -32q-63 0 -63 60v47q0 43 -9 55q19 14 33 14q32 0 32 -29l-2 -27q0 -3 -0.5 -14t-0.5 -15t1 -12.5t4 -12.5t8.5 -8t14.5 -5q17 -3 32 5.5t13 24.5l2 -2v9q0 10 -3 24q-2 20 -2 21q0 29 32 29 q15 0 33 -12q-9 -12 -9 -44q0 -6 1 -9v-18q1 -15 20 -21q15 -9 34.5 -2t19.5 34q0 2 -2 30q-1 14 -1 25q0 30 31 30z" />
</font>
</defs>
</svg>
