<?xml version="1.0" standalone="no"?>
<!DOCTYPE svg PUBLIC "-//W3C//DTD SVG 1.1//EN" "http://www.w3.org/Graphics/SVG/1.1/DTD/svg11.dtd" >
<svg xmlns="http://www.w3.org/2000/svg" xmlns:xlink="http://www.w3.org/1999/xlink" version="1.1">
<metadata></metadata>
<defs>
<font id="katibehregular" horiz-adv-x="0" >
<font-face units-per-em="1000" ascent="800" descent="-200" />
<missing-glyph horiz-adv-x="168" />
<glyph unicode="fi" horiz-adv-x="421" d="M415 42l8 -10q-39 -41 -88 -41t-61 38q-6 19 -6 50v189q-2 13 -13 14h-104v-216q0 -31 15 -39q8 -4 22 -7l13 -3l-6 -17h-156l-8 10l8 10q21 29 21 85v177h-51q0 24 8 28l6 2l38 9q12 132 112 167q31 11 68 11q84 0 112 -41q10 -14 10 -31q0 -46 -39 -57q-9 -3 -19 -3 q-20 0 -37 8q18 17 18 45q0 42 -37 53q-9 2 -18 2q-79 -2 -80 -154h104q19 0 62 9q10 2 17 2q23 -3 25 -25v-250q1 -29 19 -30q16 1 37 15z" />
<glyph unicode="fl" horiz-adv-x="429" d="M276 389q-1 85 -61 86q-47 0 -59 -67q-5 -33 -5 -87h73q-1 -27 -15 -39h-58v-216q0 -31 15 -39q8 -4 22 -7l13 -3l-6 -17h-156l-8 10l8 10q21 29 21 85v177h-51q0 24 8 28l6 2l38 9q4 135 92 169q25 9 54 9q44 -1 73 -22q33 13 60 13q26 -2 27 -21v-412q0 -30 18 -30 q19 1 37 15l8 -10q-39 -41 -87 -41q-62 0 -67 59v10v329z" />
<glyph unicode="&#xfea3;&#xfee2;" horiz-adv-x="709" arabic-form="isolated" d="M560 243q39 -12 89 -21l-65 -77q-81 5 -140 -1q-89 -9 -143 -37q50 -31 65 -60l-18 -108q-51 38 -112 38q-66 0 -99 -39q-5 -7 -8 -12q-4 -30 18 -127q5 -22 8 -36q15 -81 10 -140q-7 -64 -33 -116l-17 -8q4 67 -22 199q-4 19 -6 29q-21 106 -16 150q1 3 1 5 q11 63 45 116q37 55 87 70q-1 41 8 69q39 29 81 45q62 24 129 24q-105 39 -119 45q-19 7 -31 -5v-23l-15 -5q-6 19 -19 32.5t-23 17.5l-10 4l22 36l12 16q22 17 76 20q30 0 111 -46q13 -7 19 -10q49 -25 115 -45z" />
<glyph unicode="&#xfeb3;&#xfee2;" horiz-adv-x="838" arabic-form="isolated" d="M778 234q1 -33 -7 -63q-6 -19 -31 -54q-28 -40 -46 -41q-41 0 -68 20q-21 17 -36 49q-5 -26 -26 -48q-24 -22 -59 -22q-60 1 -93 56q-24 43 -42 54q-17 11 -40 11q-36 -1 -59 -41q72 -33 95 -77l-17 -109q-51 38 -112 38q-66 0 -99 -39q-5 -7 -8 -12q-4 -30 18 -127 q5 -22 8 -36q15 -78 10 -130q-7 -64 -33 -116l-17 -8q5 73 -25 205q-2 9 -3 13q-22 105 -15 155q9 60 45 116q37 55 87 70q-1 34 8 66q11 34 36 67q45 59 91 60q38 -1 61 -42q26 -42 41 -54q21 -14 55 -14q44 1 67 38q16 26 19 65l15 -7q4 -60 42 -82q12 -7 30 -9.5t30 -1.5 l12 1q1 29 -17 83l53 69q28 -28 30 -103z" />
<glyph unicode="&#xfebb;&#xfee2;" horiz-adv-x="897" arabic-form="isolated" d="M795 319q24 -25 42 -73q-20 -72 -57 -109q-7 -7 -15 -14q-75 -63 -192 -63q-97 1 -148 55q-9 11 -24 32q-26 36 -45 44q-12 5 -26 5q-29 -1 -59 -41q72 -31 95 -76l-18 -111q-52 39 -111 39q-66 0 -99 -39q-5 -7 -8 -12q-4 -30 18 -127q5 -22 8 -36q15 -78 10 -130 q-9 -77 -33 -126l-17 -8q5 81 -28 228q-22 105 -15 155q9 60 45 116q37 55 87 70q-1 28 7 61q17 61 53 97q37 37 75 38q38 -1 61 -42l9 -15q24 -43 47 -54q8 -3 16 -5q34 54 77 96q81 79 152 79q58 -1 93 -34zM708 185q8 2 15.5 5t13 6t9.5 5.5t7.5 5.5t5.5 5l3 3l2 2 l-12 18q-7 8 -14 14q-26 20 -60 20q-60 -1 -113 -43q-14 -11 -26.5 -24.5t-17.5 -21.5l-5 -8h84q64 0 108 13z" />
<glyph unicode="&#xfecb;&#xfee2;" horiz-adv-x="655" arabic-form="isolated" d="M73 -158q9 60 45 116q37 55 87 70q-1 28 7 61q10 37 68 74q26 17 51 25q-56 39 -68 102v3q3 49 18 85q17 38 52 62t74 24q43 -1 79 -23q27 -20 45 -50l-23 -42q-50 24 -95 24q-38 -1 -71 -27q-20 -15 -30 -31q33 -34 61 -50q34 -20 49 -25q87 29 173 50l-34 -98 q-88 -13 -201 -69q-50 -25 -72 -44q67 -27 80 -48q1 -2 1 -3l-19 -129q-51 38 -113 38q-66 0 -99 -39q-5 -7 -8 -12q-4 -30 18 -127q5 -22 8 -36q15 -78 10 -130q-9 -77 -33 -126l-17 -8q5 81 -28 228q-22 105 -15 155z" />
<glyph unicode="&#xfb90;&#xfede;" horiz-adv-x="864" arabic-form="isolated" d="M829 544q-31 -20 -136 -69q-111 -50 -134 -66q59 -31 106 -87q65 -79 65 -152q-1 -73 -29 -115q-34 -51 -124 -55q-55 0 -74 19v-51q-1 -98 -65 -153q-62 -53 -162 -53q-96 1 -150 51q-56 53 -56 143q0 48 17 101q15 45 40 74l16 -16q-33 -45 -33 -98q1 -67 53 -104 q48 -33 125 -33q47 0 86 12q51 16 77 51q-12 99 -37 299q-24 199 -36 298l64 74q11 -84 23 -187q21 29 116 85q2 2 3 2q45 25 129 66t141 77zM672 151q-18 64 -75 116q-54 50 -121 73l11 -96q11 -87 32 -115q19 -23 45 -23q76 1 108 45z" />
<glyph unicode="&#xfb90;&#xfef0;" horiz-adv-x="683" arabic-form="isolated" d="M70 -33q0 60 17 109q13 42 40 74l16 -16q-20 -22 -30 -71q-3 -15 -4 -29q1 -68 54 -106q48 -33 124 -33q48 0 87 7q83 14 118 47q2 30 -56 42q-31 6 -87 9l-11 21l26 84q85 9 112 33l9 9q-19 40 -50 81q-33 41 -60 61v-34q-38 30 -46 57q-4 18 -4 53q0 50 3 70 q5 37 65 73l10 6q45 25 129 66t141 77l-25 -113q-31 -20 -136 -69q-114 -51 -128 -61q47 -37 96 -105q58 -82 59 -139q0 -63 -35 -94q-11 -10 -25 -18q60 -21 77 -58q5 -13 3 -25q-10 -49 -14 -64q-21 -62 -118 -101q-76 -29 -156 -29q-101 1 -152 60q-45 57 -49 126z" />
<glyph unicode="&#xfedf;&#xfea2;" horiz-adv-x="583" arabic-form="isolated" d="M70 269l23 45q5 8 9 14q9 13 62 15q63 2 79 8q-16 145 -34 216l-15 14l3 39q2 8 4 15q15 41 49 47q24 -55 49 -78l14 -12q-23 -23 -23 -44q0 -8 1 -17q8 -67 8 -162q0 -17 -14 -46q41 -14 77 -23q59 -14 112 -15l37 -1l-38 -100l-55 -4q-40 -5 -75 -16q-77 -24 -131 -68 q-79 -69 -80 -163q0 -94 88 -152q3 -3 5 -4q74 -46 182 -46h96l-88 -101l-58 1q-132 2 -197 61l-3 3q-75 72 -79 195v11q1 119 70 203q66 80 177 120q-71 15 -155 34q-19 4 -30 -8v-23l-12 -5q-8 19 -22.5 30.5t-25.5 13.5z" />
<glyph unicode="&#xfedf;&#xfee2;" horiz-adv-x="437" arabic-form="isolated" d="M199 81q1 28 31 79q-3 55 -16 179q-17 152 -36 228l-15 14l3 39q2 8 4 15q15 41 49 47q24 -55 49 -78l14 -12q-23 -23 -23 -44q0 -8 1 -17q15 -117 21 -204q1 -13 3 -41q9 -115 -6 -150q66 -23 90 -66l-18 -113q-44 33 -113 33q-66 0 -99 -39q-5 -7 -8 -12 q-4 -30 18 -127q5 -22 8 -36q15 -78 10 -130q-9 -77 -33 -126l-17 -8q5 81 -28 228q-12 61 -15 87q-8 92 13 150q31 79 113 104z" />
<glyph unicode="&#xfedf;&#xfef0;" horiz-adv-x="640" arabic-form="isolated" d="M70 -33q0 60 17 109q13 42 40 74l16 -16q-20 -22 -30 -71q-3 -15 -4 -29q1 -68 54 -106q48 -33 124 -33q48 0 87 7q83 14 118 47q2 30 -56 42q-31 6 -87 9l-11 21l26 84q75 3 106 37q-4 59 -27 199q-24 146 -48 225l-15 14l1 37q1 9 3 17q13 42 46 49q28 -53 53 -74 q7 -7 15 -12q-22 -24 -21 -48l2 -14q32 -206 44 -343q5 -74 -24 -107q-10 -12 -24 -22q59 -17 79 -55q8 -17 5 -33q-7 -38 -14 -64q-17 -61 -118 -101q-76 -29 -156 -29q-101 1 -152 60q-45 57 -49 126z" />
<glyph unicode="&#xfee3;&#xfef0;" horiz-adv-x="794" arabic-form="isolated" d="M70 -33q0 60 17 109q13 42 40 74l16 -16q-20 -22 -30 -71q-3 -15 -4 -29q1 -68 54 -106q48 -33 124 -33q48 0 87 7q83 14 118 47q2 30 -56 42q-31 6 -87 9l-11 21l29 84q43 49 101 80q52 27 103 38q-16 16 -17 51v99q7 -18 70 -27q3 -1 7 -1q8 -2 11 -2q72 -12 86 -36 q6 -11 6 -23l-1 -64q-1 -53 -43 -67q-27 -9 -84 -9q-35 0 -78 -12q-70 -21 -94 -58q86 -14 116 -61q12 -20 9 -38q-10 -49 -14 -64q-21 -62 -118 -101q-76 -29 -156 -29q-101 1 -152 60q-45 57 -49 126z" />
<glyph unicode="&#xfbac;&#xfef0;" horiz-adv-x="853" arabic-form="isolated" d="M70 -63q0 60 17 109q13 42 40 74l16 -16q-20 -22 -30 -71q-3 -15 -4 -29q1 -68 54 -106q48 -33 124 -33q48 0 87 7q83 14 118 47q2 30 -56 42q-31 6 -87 9l-11 21l26 84q91 24 165 76q-38 20 -46 38q-6 15 -6 42q0 55 43 98q19 18 42 27q-9 14 -9 41v49q7 -17 96 -67 q26 -14 34 -20q50 -36 65 -52q17 -19 27 -40q27 -58 13 -138q-8 -33 -31 -60q-21 -25 -47 -26q-45 31 -100 64q-61 -59 -134 -81q62 -22 79 -58q5 -14 3 -26q-7 -39 -13 -61q-17 -61 -118 -101q-76 -29 -156 -29q-101 1 -152 60q-45 57 -49 126zM513 262q8 -23 54 -46 q10 -5 23 -11q25 20 40 44q-7 37 -42 49q-9 3 -17 3q-34 -1 -58 -39zM653 172q43 -24 67 -35l14 6q15 13 19 38q-11 30 -40 59q-12 12 -53 43q-2 1 -3 2q25 -64 0 -106q-2 -4 -4 -7z" />
<glyph unicode="&#xfb91;&#xfede;" horiz-adv-x="937" arabic-form="final" d="M70 -44q0 48 17 101q15 45 40 74l16 -16q-33 -45 -33 -98q1 -67 53 -104q48 -33 125 -33q47 0 86 12q51 16 77 51q-12 99 -37 299q-24 199 -36 298l64 74l24 -199q12 41 68 73l14 8q90 49 166 86q82 39 135 75l-25 -113q-18 -13 -139 -72q-83 -41 -126 -68q66 -52 99 -98 q26 -36 70 -106q39 -62 73 -80q8 -4 14 -6q21 -8 57 -8h65v-106h-72q-94 1 -150 85q-21 -54 -83 -76q-26 -9 -52 -9q-48 0 -74 17q-2 1 -3 2v-51q-1 -98 -65 -153q-62 -53 -162 -53q-96 1 -150 51q-56 53 -56 143zM474 352l13 -108q11 -85 32 -114q21 -24 57 -24q63 1 94 31 q-51 80 -87 122q-39 47 -109 93z" />
<glyph unicode="&#xfb91;&#xfef0;" horiz-adv-x="771" arabic-form="final" d="M70 -63q0 60 17 109q13 42 40 74l16 -16q-20 -22 -30 -71q-3 -15 -4 -29q1 -68 54 -106q48 -33 124 -33q48 0 87 7q83 14 118 47q2 30 -56 42q-31 6 -87 9l-11 21l26 84q51 9 83 23q37 17 56 40q-60 97 -108 135v-18q-40 32 -47 61q-3 16 -3 46q0 59 4 73q10 40 53 67 q9 6 22 13q34 19 134 67q82 39 135 75l-25 -113q-18 -13 -139 -72q-83 -41 -126 -68q44 -35 89 -98q26 -36 70 -106q39 -62 73 -80q8 -4 14 -6q21 -8 57 -8h65v-106h-72q-60 1 -100 26q-34 22 -62 62q-17 -41 -61 -62q62 -22 79 -58q5 -14 3 -26q-5 -28 -13 -61 q-16 -60 -118 -101q-76 -29 -156 -29q-101 1 -152 60q-45 57 -49 126z" />
<glyph unicode="&#xfee0;&#xfef0;" horiz-adv-x="714" arabic-form="final" d="M70 -63q0 60 17 109q13 42 40 74l16 -16q-20 -22 -30 -71q-3 -15 -4 -29q1 -68 54 -106q48 -33 124 -33q48 0 87 7q83 14 118 47q2 30 -56 42q-31 6 -87 9l-11 21l26 84q69 12 108 36q37 25 50 58q-7 84 -52 438l63 74q52 -432 53 -436q10 -79 32 -110q22 -29 69 -29h27 v-106h-62q-44 1 -78 31q-24 24 -36 59q-17 -43 -62 -64q62 -22 79 -58q5 -14 3 -26q-5 -28 -13 -61q-16 -60 -118 -101q-76 -29 -156 -29q-101 1 -152 60q-45 57 -49 126z" />
<glyph unicode="&#xfea3;&#xfee4;" horiz-adv-x="697" arabic-form="initial" d="M613 386h24l-56 -101q-89 9 -188 -11q-81 -16 -132 -48q45 -34 33 -95q-11 -57 -25 -102l-23 -14q-21 -9 -40 -9q-61 0 -80 56q-6 17 -6 35q-10 -39 -36 -65q-33 -32 -83 -32h-18q-33 0 -48 30q-5 11 -5 23q0 33 30 48q11 5 23 5h27q55 0 91 59q6 9 12 21q32 63 108 105 q78 43 168 48q-82 27 -127 39q-19 5 -29 -11v-25l-11 -5q-11 18 -26 28t-25 11l-10 2l20 50q4 10 9 19q9 17 64 26q11 2 19 2q35 0 97 -27q34 -15 47 -20q101 -42 196 -42zM241 100q1 1 19 40l-20 23q-21 18 -39 19q-37 0 -58 -33l-3 -6q38 -37 93 -42q5 -1 8 -1z" />
<glyph unicode="&#xfeb3;&#xfee4;" horiz-adv-x="738" arabic-form="initial" d="M678 254q1 -33 -7 -63q-6 -19 -31 -54q-28 -40 -46 -41q-41 0 -68 20q-21 17 -36 49q-5 -26 -26 -48q-24 -22 -59 -22q-60 1 -93 56q-24 43 -42 54q-17 11 -40 11q-32 0 -59 -39l-6 -10q11 -22 45 -33q8 -3 9 -3q43 -14 56 -27l-20 -133q-45 36 -108 33q-8 0 -24 -2 q-30 -2 -46 -2h-94q-34 0 -48 31q-5 10 -5 21q0 34 30 49q12 5 23 5h63q34 0 59 20q0 28 8 58q11 34 36 67q45 59 91 60q38 -1 61 -42q26 -42 41 -54q21 -14 55 -14q44 1 67 38q16 26 19 65l15 -7q4 -60 42 -82q12 -7 30 -9.5t30 -1.5l12 1q1 29 -17 83l53 69 q28 -28 30 -103z" />
<glyph unicode="&#xfebb;&#xfee4;" horiz-adv-x="798" arabic-form="initial" d="M696 339q24 -25 42 -73q-20 -72 -57 -109q-7 -7 -15 -14q-75 -63 -192 -63q-97 1 -148 55q-10 11 -25 32q-25 36 -44 44q-10 4 -20 5q-37 0 -65 -37q-4 -7 -7 -12q12 -25 49 -38q3 -1 4 -1q43 -14 56 -27l-18 -125q-44 34 -107 29q-7 0 -22 -2q-32 -3 -50 -3h-94 q-34 0 -48 31q-5 10 -5 21q0 34 30 49q12 5 23 5h63q34 0 59 20q0 49 28 103q38 75 94 84q6 1 12 1q39 -1 63 -42l9 -15q24 -43 47 -54q8 -3 16 -5q34 54 77 96q81 79 152 79q58 -1 93 -34zM609 205q8 2 15.5 5t13 6t9.5 5.5t7.5 5.5t5.5 5l3 3l2 2l-12 18q-7 8 -14 14 q-26 20 -60 20q-60 -1 -113 -43q-14 -11 -26.5 -24.5t-17.5 -21.5l-5 -8h84q64 0 108 13z" />
<glyph unicode="&#xfecb;&#xfee4;" horiz-adv-x="568" arabic-form="initial" d="M508 406l-34 -98q-96 -15 -188 -67q-14 -7 -25 -15q45 -34 33 -95q-11 -57 -25 -102l-23 -14q-21 -9 -40 -9q-61 0 -80 56q-6 17 -6 35q-10 -39 -36 -65q-33 -32 -83 -32h-18q-33 0 -48 30q-5 11 -5 23q0 33 30 48q11 5 23 5h27q55 0 91 59q6 9 12 21q35 73 108 108 q12 6 23 10q-56 39 -68 102v3q3 49 18 85q17 38 52 62t74 24q43 -1 79 -23q27 -20 45 -50l-23 -42q-50 24 -95 24q-38 -1 -71 -27q-20 -15 -30 -31q33 -34 61 -50q34 -20 49 -25q87 29 173 50zM241 100q1 1 19 40l-20 23q-21 18 -39 19q-37 0 -58 -33l-3 -6q38 -37 93 -42 q5 -1 8 -1z" />
<glyph unicode="&#xfb90;&#xfee0;" horiz-adv-x="541" arabic-form="initial" d="M-70 53q0 33 30 48q11 5 23 5h60q36 1 51 20q14 20 10 51l-51 430l63 74l30 -249q26 30 115 82q45 25 129 66t141 77l-25 -113q-31 -20 -136 -69q-111 -50 -134 -66q58 -31 104 -86q66 -79 67 -153q-1 -73 -29 -115q-37 -55 -135 -55q-78 0 -102 59q-3 6 -4 11 q-14 -57 -78 -68q-13 -2 -27 -2h-49q-33 0 -48 30q-5 11 -5 23zM157 338l12 -93q11 -80 32 -111q21 -27 50 -28q63 0 94 40q2 3 4 5q-19 61 -74 114q-53 50 -118 73z" />
<glyph unicode="&#xfedf;&#xfea4;" horiz-adv-x="548" arabic-form="initial" d="M-70 52q0 34 30 49q12 5 23 5h58q81 0 111 6q32 6 51.5 12.5t38.5 15.5l19 10q-92 31 -148 46q-19 5 -29 -11v-25l-11 -5q-11 18 -26 28t-25 11l-10 2l16 43q6 14 13 26q14 23 57 23q56 0 91 9q-21 207 -38 270l-15 14l3 39q2 8 4 15q15 41 49 47q24 -55 49 -78l14 -12 q-22 -22 -23 -45q0 -7 1 -16q10 -95 17 -216q1 -27 -17 -52q142 -56 215 -59h12h28l-52 -95q-105 6 -235 -70q-67 -39 -158 -39h-60q-33 0 -48 30q-5 11 -5 22z" />
<glyph unicode="&#xfedf;&#xfee4;" horiz-adv-x="334" arabic-form="initial" d="M-70 52q0 34 30 49q12 5 23 5h59q17 0 32 5t22 11l6 5q-14 33 -23 145q-4 43 -6 69q-11 112 -46 225l-16 14l2 38q1 9 3 16q11 42 46 49q26 -52 52 -74l16 -12q-21 -24 -20 -48q0 -6 1 -14q3 -20 9 -75q24 -192 37 -264q8 -44 46 -60q7 -2 15 -5q43 -14 56 -27l-18 -133 q-45 37 -108 33q-8 0 -25 -1q-30 -3 -46 -3h-94q-34 0 -48 31q-5 10 -5 21z" />
<glyph unicode="&#xfedf;&#xfeec;" horiz-adv-x="441" arabic-form="initial" d="M-60 53q0 32 30 47q12 6 23 6h40q29 0 50 6q-25 29 -25 66q1 37 25 75q31 46 77 62q-29 163 -56 251l-15 14l1 37q1 9 3 17q13 42 46 49q28 -53 53 -74q7 -7 15 -12q-22 -24 -21 -48l2 -14q24 -168 28 -198l58 -40q75 -54 94 -91q25 -47 2 -130q-10 -43 -49 -68 q-16 -10 -28 -10q-27 1 -105 43q-43 -38 -128 -41h-27h-40q-33 0 -48 30q-5 11 -5 23zM94 209q8 -23 54 -46q10 -5 23 -11q25 20 40 44q-7 37 -42 49q-9 3 -17 3q-34 -1 -58 -39zM234 119q43 -24 67 -35l14 6q15 13 19 38q-11 30 -40 59q-12 12 -53 43q-2 1 -3 2 q25 -64 0 -106q-2 -4 -4 -7z" />
<glyph unicode="&#xfee3;&#xfee4;" horiz-adv-x="495" arabic-form="initial" d="M343 461q72 -12 86 -36q6 -11 6 -23l-1 -64q-1 -53 -43 -67q-27 -9 -84 -9q-115 -1 -159 -70l-1 -1q7 -35 55 -45q4 0 12 -2q11 -2 16 -3q48 -13 66 -27l-20 -147q-42 39 -128 36q-9 0 -27 -1q-30 -2 -44 -2h-94q-34 0 -48 31q-5 10 -5 21q0 34 30 49q12 5 23 5h63 q19 0 38 8q-18 40 1 89q1 3 2 5q29 67 110 108q38 18 75 25q-17 15 -17 51v99q7 -18 70 -27q3 -1 7 -1q8 -2 11 -2z" />
<glyph unicode="&#xfb91;&#xfee0;" horiz-adv-x="614" arabic-form="medial" d="M-70 53q0 33 30 48q11 5 23 5h60q36 1 51 20q14 20 10 51l-51 430l63 74l31 -255q14 35 73 67q3 2 5 3q90 49 166 86q82 39 135 75l-25 -113q-18 -13 -139 -72q-83 -41 -126 -68q66 -52 99 -98q26 -36 70 -106q39 -62 73 -80q8 -4 14 -6q21 -8 57 -8h65v-106h-72 q-94 1 -150 85q-37 -82 -149 -85q-79 0 -103 60q-2 5 -3 10q-14 -57 -78 -68q-13 -2 -27 -2h-49q-33 0 -48 30q-5 11 -5 23zM156 348l13 -103q10 -79 32 -110q21 -29 59 -29q56 1 87 31q-51 80 -87 122q-33 39 -104 89z" />
<glyph unicode="&#xfec3;&#xfef0;" horiz-adv-x="930" arabic-form="isolated" d="M70 -63q0 60 17 109q13 42 40 74l16 -16q-20 -22 -30 -71q-3 -15 -4 -29q1 -68 54 -106q48 -33 124 -33q48 0 87 7q83 14 118 47q2 30 -56 42q-31 6 -87 9l-11 21l26 84q24 9 60 23q30 12 48 19q25 62 70 130q5 7 8 11q3 84 -9 150q-11 65 -48 157l-15 14l1 36q2 12 5 22 q15 39 47 45q26 -59 66 -88q-25 -23 -23 -49q1 -6 2 -13q19 -98 21 -116q7 -58 -2 -111q63 70 127 79q7 1 13 1q55 -1 89 -33q28 -28 46 -85q-28 -77 -69 -109q-36 -28 -156 -70q-9 -3 -19 -7q-108 -39 -140 -51q39 -12 62 -50q13 -22 10 -38q-7 -39 -13 -61 q-17 -61 -118 -101q-76 -29 -156 -29q-101 1 -152 60q-45 57 -49 126zM543 143l108 39q93 34 125 61q12 11 21 23q-39 44 -94 34q-60 -14 -111 -78q-37 -44 -49 -79z" />
<glyph unicode="&#xfecb;&#xfef0;" horiz-adv-x="805" arabic-form="isolated" d="M70 -33q0 60 17 109q13 42 40 74l16 -16q-20 -22 -30 -71q-3 -15 -4 -29q1 -68 54 -106q48 -33 124 -33q48 0 87 7q83 14 118 47q2 30 -56 42q-31 6 -87 9l-11 21l29 84q49 59 114 99q-56 39 -68 102v3q3 49 18 85q17 38 52 62t74 24q43 -1 79 -23q27 -20 45 -50l-23 -42 q-50 24 -95 24q-38 -1 -71 -27q-20 -15 -30 -31q33 -34 61 -50q34 -20 49 -25q87 29 173 50l-34 -98q-84 -14 -181 -62q-74 -38 -96 -72q48 -8 81 -29q49 -30 45 -66q-1 -3 -1 -4q-10 -49 -14 -64q-21 -62 -118 -101q-76 -29 -156 -29q-101 1 -152 60q-45 57 -49 126z" />
<glyph unicode="&#xfeb3;&#xfef0;" horiz-adv-x="984" arabic-form="isolated" d="M924 164q1 -33 -7 -63q-6 -19 -31 -54q-28 -40 -46 -41q-41 0 -68 20q-21 17 -36 49q-5 -26 -26 -48q-24 -22 -59 -22q-60 1 -93 56q-24 43 -42 54q-17 11 -40 11q-36 0 -58 -40l-5 -10q10 -12 56 -21q3 -1 4 -1q48 -11 57 -37q6 -17 1 -42q-9 -47 -14 -64 q-16 -46 -90 -86q-76 -43 -149 -43q-107 1 -157 55q-51 56 -51 143q1 45 17 96q15 47 40 74l16 -16q-20 -23 -30 -71q-3 -15 -3 -29q0 -67 54 -106q49 -33 117 -33q66 0 115 16q49 17 85 48q-2 12 -36 19q-15 3 -42 7q-35 6 -48 34q-11 27 0 63q16 51 46 87q42 51 85 52 q38 -1 61 -42q26 -42 41 -54q21 -14 55 -14q44 1 67 38q16 26 19 65l15 -7q4 -60 42 -82q12 -7 30 -9.5t30 -1.5l12 1q1 29 -17 83l53 69q28 -28 30 -103z" />
<glyph unicode="&#xfea3;&#xfef0;" horiz-adv-x="886" arabic-form="isolated" d="M765 191q-74 4 -194 -39q-109 -41 -137 -78q86 -14 116 -61q12 -20 9 -38q-10 -49 -14 -64q-21 -62 -118 -101q-76 -29 -156 -29q-101 1 -152 60q-45 57 -49 126q0 60 17 109q13 42 40 74l16 -16q-20 -22 -30 -71q-3 -15 -4 -29q1 -68 54 -106q48 -33 124 -33q48 0 87 7 q83 14 118 47q2 30 -56 42q-31 6 -87 9l-11 21l30 88q39 47 95 80q64 36 138 53h-1l-2 1q-39 10 -126 34l-1 1h-1q-19 5 -30 -8v-23l-12 -5q-8 19 -22.5 30.5t-25.5 13.5l-10 3l23 45q5 8 9 14q12 17 65 24q9 1 15 1q27 0 87 -27q28 -13 47 -20q61 -22 119 -33q42 -8 91 -12 z" />
<glyph unicode="&#xfebb;&#xfef0;" horiz-adv-x="1043" arabic-form="isolated" d="M70 -20q1 45 17 96q15 47 40 74l16 -16q-20 -23 -30 -71q-3 -15 -3 -29q0 -67 54 -106q49 -33 117 -33q66 0 115 16q49 17 85 48q-2 12 -36 19q-15 3 -42 7q-35 6 -48 34q-11 27 0 63q18 56 46 90q42 51 85 52q38 -1 61 -42l9 -15q24 -43 47 -54q8 -3 16 -5q34 54 77 96 q81 79 152 79q58 -1 93 -34q24 -25 42 -73q-20 -72 -57 -109q-7 -7 -15 -14q-75 -63 -192 -63q-97 1 -148 55q-9 11 -24 32q-26 36 -45 44q-12 5 -26 5q-36 0 -58 -40l-5 -10q10 -12 56 -21q3 -1 4 -1q48 -11 57 -37q6 -17 1 -42q-9 -47 -14 -64q-16 -46 -90 -86 q-76 -43 -149 -43q-107 1 -157 55q-51 56 -51 143zM662 102h84q64 0 108 13q8 2 15.5 5t13 6t9.5 5.5t7.5 5.5t4.5 5l4 3l2 2l-12 18q-7 8 -14 14q-26 20 -60 20q-60 -1 -113 -43q-14 -11 -26.5 -24.5t-17.5 -21.5z" />
<glyph unicode="&#xfeb3;&#xfeae;" horiz-adv-x="786" arabic-form="isolated" d="M726 164q1 -33 -7 -63q-6 -19 -31 -54q-28 -40 -46 -41q-41 0 -68 20q-21 17 -36 49q-8 -31 -36 -51q-29 -19 -71 -19q-45 1 -68 22q-16 14 -24 41q-50 -11 -99 -23q6 -60 -12 -114q-23 -62 -76 -98q-47 -31 -118 -33v-57h-3q-21 53 -71 51v105q107 4 151 29 q66 44 69 114v80q99 28 181 37q5 -22 17 -33q17 -15 57 -15q45 1 70 29q22 27 26 74l15 -7q4 -60 42 -82q12 -7 30 -9.5t30 -1.5l12 1q1 29 -17 83l53 69q28 -28 30 -103z" />
<glyph unicode="&#xfebb;&#xfeae;" horiz-adv-x="852" arabic-form="isolated" d="M-40 -206v105q107 4 151 29q66 44 69 114v80q92 24 181 35q-1 -27 11 -39q13 -12 54 -12q39 64 99 116q70 61 131 61q66 -1 101 -43q20 -25 35 -64q-20 -76 -70 -122q-71 -64 -195 -64q-44 0 -116 10l-23 -39l-20 22q0 1 13 29q-33 20 -39 53q-34 -7 -102 -20 q6 -60 -12 -114q-23 -62 -76 -98q-47 -31 -118 -33v-57h-3q-21 53 -71 51zM470 102h84q132 0 165 45l-13 20q-9 9 -18 16q-26 16 -56 16q-57 -1 -108 -40q-16 -12 -29.5 -26t-18.5 -23z" />
<glyph unicode="&#xfecc;&#xfef0;" horiz-adv-x="817" arabic-form="final" d="M710 106h107v-106h-123q-97 0 -130 53q-1 2 -2 3q-56 -23 -86 -30q62 -22 79 -58q5 -14 3 -26q-7 -39 -13 -61q-17 -61 -118 -101q-76 -29 -156 -29q-101 1 -152 60q-45 57 -49 126q0 60 17 109q13 42 40 74l16 -16q-20 -22 -30 -71q-3 -15 -4 -29q1 -68 54 -106 q48 -33 124 -33q48 0 87 7q83 14 118 47q2 30 -56 42q-31 6 -87 9l-11 21l26 84q67 13 84 17q50 12 83 28q-18 29 -47 43q-34 17 -68 5l13 71q59 46 137 46q90 -1 148 -46l-14 -87q-12 -10 -46 -41q15 -5 56 -5zM590 156q35 21 56 41q-55 20 -107 14q35 -26 51 -55z" />
<glyph unicode="&#xfeb4;&#xfef0;" horiz-adv-x="1030" arabic-form="final" d="M996 106h34v-106h-30q-44 1 -70 25q-16 15 -28 42q-6 -49 -61 -59q-10 -2 -21 -2q-38 1 -60 22q-18 19 -24 47q-5 -30 -28 -49q-25 -21 -57 -21q-60 1 -93 56q-24 43 -42 54q-17 11 -40 11q-36 0 -58 -40l-5 -10q10 -12 56 -21q3 -1 4 -1q48 -11 57 -37q6 -17 1 -42 q-9 -47 -14 -64q-16 -46 -90 -86q-76 -43 -149 -43q-107 1 -157 55q-51 56 -51 143q1 45 17 96q15 47 40 74l16 -16q-20 -23 -30 -71q-3 -15 -3 -29q0 -67 54 -106q49 -33 117 -33q66 0 115 16q49 17 85 48q-2 12 -36 19q-15 3 -42 7q-35 6 -48 34q-11 27 0 63q16 51 46 87 q42 51 85 52q38 -1 61 -42q20 -33 29 -43q22 -24 67 -24q41 1 65 32q18 27 21 70l15 -7q2 -29 11 -53q19 -41 68 -42q38 1 54 32q14 25 14 71l14 -8q2 -33 15 -59q26 -41 76 -42z" />
<glyph unicode="&#xfea4;&#xfef0;" horiz-adv-x="911" arabic-form="final" d="M852 106h59v-106h-60q-90 1 -127 46q-36 47 -21 131q-67 -5 -148 -32q-94 -34 -121 -71q86 -14 116 -61q12 -20 9 -38q-10 -49 -14 -64q-21 -62 -118 -101q-76 -29 -156 -29q-101 1 -152 60q-45 57 -49 126q0 60 17 109q13 42 40 74l16 -16q-20 -22 -30 -71 q-3 -15 -4 -29q1 -68 54 -106q48 -33 124 -33q48 0 87 7q83 14 118 47q2 30 -56 42q-31 6 -87 9l-11 21l29 84q40 49 99 79q60 29 128 38q-48 12 -124 36q-19 5 -30 -8v-23l-12 -5q-8 19 -22.5 30.5t-25.5 13.5l-10 3l23 45q5 8 9 14q12 17 65 24q9 1 15 1q27 0 87 -27 q28 -13 47 -20q77 -29 100 -34q39 -8 89 -11l-31 -83q-18 2 -28 1q10 -66 87 -72q10 -1 19 -1z" />
<glyph unicode="&#xfebc;&#xfef0;" horiz-adv-x="1091" arabic-form="final" d="M70 -20q1 45 17 96q15 47 40 74l16 -16q-20 -23 -30 -71q-3 -15 -3 -29q0 -67 54 -106q49 -33 117 -33q66 0 115 16q49 17 85 48q-2 12 -36 19q-15 3 -42 7q-35 6 -48 34q-11 27 0 63q18 56 46 90q42 51 85 52q38 -1 61 -42l9 -15q24 -43 47 -54q8 -3 16 -5q43 66 98 114 q70 61 131 61q66 -1 101 -43q20 -25 35 -64q-12 -39 -23 -61q17 -9 47 -9h83v-106h-87q-64 0 -90 49q-1 3 -2 4q-75 -63 -193 -63q-97 1 -148 55q-9 11 -24 32q-26 36 -45 44q-12 5 -26 5q-36 0 -58 -40l-5 -10q10 -12 56 -21q3 -1 4 -1q48 -11 57 -37q6 -17 1 -42 q-9 -47 -14 -64q-16 -46 -90 -86q-76 -43 -149 -43q-107 1 -157 55q-51 56 -51 143zM662 102h84q132 0 165 45l-13 20q-9 9 -18 16q-26 16 -56 16q-57 -1 -108 -40q-16 -12 -29.5 -26t-18.5 -23z" />
<glyph unicode="&#xfeb4;&#xfeae;" horiz-adv-x="834" arabic-form="final" d="M-40 -206v105q107 4 151 29q66 44 69 114v80q93 27 181 36q10 -25 29 -36q19 -10 47 -10q38 1 59 18q16 12 24 29q13 24 13 56l15 -8q2 -29 11 -53q19 -41 68 -42q38 1 54 32q14 25 14 71l14 -8q2 -33 15 -59q26 -41 76 -42h34v-106h-30q-44 1 -70 25q-16 15 -28 42 q-6 -49 -61 -59q-10 -2 -21 -2q-42 1 -66 30q-10 14 -18 41q-7 -34 -31 -54q-27 -23 -74 -23q-39 1 -65 19q-22 16 -33 44q-49 -8 -97 -18q6 -60 -12 -114q-23 -62 -76 -98q-47 -31 -118 -33v-57h-3q-21 53 -71 51z" />
<glyph unicode="&#xfebc;&#xfeae;" horiz-adv-x="899" arabic-form="final" d="M-40 -206v105q107 4 151 29q66 44 69 114v80q88 25 181 35q-1 -27 11 -39q13 -12 54 -12q39 64 99 116q70 61 131 61q66 -1 101 -43q20 -25 35 -64q-12 -39 -23 -61q17 -9 47 -9h83v-106h-87q-64 0 -90 49q-1 3 -2 4q-75 -63 -193 -63q-44 0 -116 10l-23 -39l-20 22 q0 1 13 29q-32 20 -39 53q-17 -3 -51 -10t-51 -10q6 -60 -12 -114q-23 -62 -76 -98q-47 -31 -118 -33v-57h-3q-21 53 -71 51zM470 102h84q132 0 165 45l-13 20q-9 9 -18 16q-26 16 -56 16q-57 -1 -108 -40q-16 -12 -29.5 -26t-18.5 -23z" />
<glyph unicode="&#xfee0;&#xfea4;&#xfef0;" horiz-adv-x="1673" arabic-form="final" d="M1670 106v-106h-68q-60 0 -85 51q-5 10 -7 19q-14 -57 -78 -68q-13 -2 -27 -2h-49q-33 0 -48 30q-5 11 -5 23q0 33 30 48q11 5 23 5h60q36 1 51 20q14 20 10 51q-11 109 -51 430l63 74q52 -432 53 -436q10 -79 32 -110q22 -29 69 -29h27zM1229 106h63v-106h-64 q-83 0 -116 34q-12 13 -19 30q-14 33 -7 75q-27 -9 -46 -23q-6 -4 -19 -14q-43 -35 -78 -55q-81 -47 -164 -47h-60q-33 0 -48 30q-5 11 -5 22q0 34 30 49q12 5 23 5h58q56 0 106 15q26 8 68 29l42 22l-141 24h-1h-2q-21 3 -29 -11v-25l-11 -5q-11 18 -26 28t-25 11l-10 2 l20 50q4 10 9 19q9 17 64 26q11 2 19 2q29 0 89 -20q27 -9 49 -15q73 -19 163 -22l43 -1l-48 -89q-16 3 -34 0q13 -33 69 -38q17 -2 38 -2zM629 106v-106h-118q15 -14 15 -43q0 -66 -90 -115q-14 -8 -28 -14q-68 -30 -137 -30q-101 1 -152 60q-49 57 -49 146q1 115 57 183 l16 -16q-33 -43 -33 -104q1 -60 30 -97q46 -58 147 -58q126 1 182 54q-23 34 -80 34h-34l-11 21l26 85h259z" />
<glyph unicode="&#x627;&#xfedf;&#xfee0;&#xfeea;" horiz-adv-x="1284" arabic-form="isolated" d="M586 830l-6 173h55l6 -173h-55zM551 620q-40 0 -53 26.5t-13 56.5q0 11 1.5 23.5t4.5 28.5l50 14q-6 -34 -6 -57q0 -37 25 -37q15 0 25 15.5t11 62.5v30l48 18v-61q0 -14 5.5 -24.5t23.5 -10.5t24 11t6 28t-4 34.5t-11 34.5l45 14q10 -19 16.5 -43.5t6.5 -44.5 q0 -33 -18.5 -59.5t-57.5 -26.5q-32 0 -52 18q-9 -23 -29.5 -37t-47.5 -14zM486 -5q-65 0 -111.5 22.5t-65.5 80.5q-53 -13 -103 -10.5t-89.5 19t-63 46t-23.5 70.5q0 54 34 99t92 76t128 42l-3 76h81l16 -330q3 -47 17 -70.5t39.5 -31t61.5 -7.5q57 0 79.5 11t26 39t1.5 78 l-13 363h83l12 -361q2 -51 16.5 -79.5t39.5 -39.5t55 -11q56 0 79 11t26.5 39t1.5 78l-19 509h81l20 -500q3 -71 -9.5 -120t-56 -74t-133.5 -25q-51 0 -80.5 19.5t-43.5 47.5q-19 -33 -61 -50t-115 -17zM1138 0l-20 714h81l20 -714h-81zM297 174l-9 183q-57 -6 -97 -26 t-61 -45t-21 -50q0 -24 18.5 -38.5t47.5 -21.5t61.5 -7t60.5 5z" />
<glyph unicode="&#xfedf;&#x627;" horiz-adv-x="509" arabic-form="isolated" d="M459 593q-23 -19 -23 -42q0 -8 1 -19q9 -110 -5 -185q-14 -70 -50 -128q30 -65 25 -87l-32 -131l-158 -3h-1h-2l-121 -2l27 110h22q50 8 95 34q51 30 77 69q-45 81 -109 158q-46 54 -101 102l-7 -27l-82 86l28 102q95 -56 193 -175q82 -100 117 -179q24 69 22 156 q-1 81 -20 135l-15 15l3 35q3 15 7 26q16 34 46 39q24 -59 61 -87q1 -2 2 -2zM264 106l86 3q7 1 11 2q-11 29 -22 52q-38 -39 -75 -57z" />
<glyph unicode="&#xfee0;&#x627;" horiz-adv-x="634" arabic-form="final" d="M594 106h40v-106h-64q-114 0 -131 125q-1 5 -1 10l-10 101q-14 -96 -88 -166q-65 -60 -167 -92l-173 10q110 44 174 81q94 51 138 104q-20 76 -72 148q-42 57 -89 89l-7 -26l-82 85l27 103q86 -40 156 -126q81 -101 104 -206q3 -14 4 -25q25 26 45 82q22 68 19 132 l-11 182l68 70q21 -359 27 -439t26 -109q19 -27 67 -27z" />
<glyph unicode="&#xfea3;&#xfee4;&#xfef0;" horiz-adv-x="1144" d="M70 -63q0 60 17 109q13 42 40 74l16 -16q-20 -22 -30 -71q-3 -15 -4 -29q1 -68 54 -106q48 -33 124 -33q48 0 87 7q83 14 117 47q2 30 -55 42q-31 6 -87 9l-11 21l26 84q121 9 178 81q11 15 18 30q27 54 87 93q35 23 81 39q53 18 108 21q-82 27 -127 39q-19 5 -29 -11 v-25l-11 -5q-11 18 -26 28t-25 11l-10 2l20 50q4 10 9 19q9 17 64 26q11 2 19 2q35 0 97 -27q34 -15 47 -20q101 -42 196 -42h24l-55 -101q-90 5 -164 -7q-95 -14 -157 -52q45 -34 33 -95q-9 -42 -25 -97l-23 -14q-21 -9 -40 -9q-53 0 -76 46q-10 19 -10 40q-20 -52 -88 -70 q-2 -1 -3 -1q62 -22 79 -58q5 -14 3 -26q-5 -28 -13 -61q-16 -60 -118 -101q-76 -29 -156 -29q-101 1 -152 60q-45 57 -49 126zM587 143q38 -37 93 -42q5 -1 8 -1q1 1 19 40l-20 23q-21 18 -39 19q-37 0 -58 -33z" />
<glyph unicode="&#xfeb3;&#xfee4;&#xfef0;" horiz-adv-x="1191" d="M1131 254q1 -33 -7 -63q-6 -19 -31 -54q-28 -41 -46 -41q-41 0 -68 20q-21 17 -36 49q-5 -26 -26 -48q-24 -22 -59 -22q-60 1 -93 56q-24 43 -42 54q-17 11 -40 11q-32 0 -59 -39l-6 -10q11 -22 44 -33q1 0 3 -1q4 -1 6 -2q43 -14 56 -27l-18 -133q-42 32 -105 45 q-62 13 -128 1q60 -21 78 -58q6 -14 4 -26q-5 -28 -13 -61q-16 -60 -118 -101q-76 -29 -156 -29q-101 1 -152 60q-45 57 -49 126q0 60 17 109q13 42 40 74l16 -16q-20 -22 -30 -71q-3 -15 -4 -29q1 -68 54 -106q48 -33 124 -33q48 0 87 7q83 14 117 47q2 30 -55 42 q-31 6 -87 9l-11 21l26 84q35 22 95 34q54 9 99 6q0 66 25 118q2 3 3 5q38 72 95 81q6 1 12 1q38 -1 61 -42q26 -42 41 -54q21 -14 55 -14q44 1 67 38q16 26 19 65l15 -7q4 -60 42 -82q12 -7 30 -9.5t30 -1.5l12 1q1 29 -17 83l53 69q28 -28 30 -103z" />
<glyph unicode="&#xfebb;&#xfee4;&#xfef0;" horiz-adv-x="1241" d="M1139 339q24 -25 42 -73q-20 -72 -57 -109q-7 -7 -15 -14q-75 -63 -192 -63q-97 1 -148 55q-10 11 -25 32q-25 36 -44 44q-10 4 -20 5q-37 0 -65 -37q-4 -7 -7 -12q12 -25 49 -38q3 -1 4 -1q43 -14 56 -27l-18 -125q-38 28 -98 40q-67 14 -125 1q60 -21 78 -58 q6 -14 4 -26q-5 -28 -13 -61q-16 -60 -118 -101q-76 -29 -156 -29q-101 1 -152 60q-45 57 -49 126q0 60 17 109q13 42 40 74l16 -16q-20 -22 -30 -71q-3 -15 -4 -29q1 -68 54 -106q48 -33 124 -33q48 0 87 7q83 14 117 47q2 30 -55 42q-31 6 -87 9l-11 21l26 84q32 20 81 31 q47 10 103 9q0 63 25 117l3 6q38 75 94 84q6 1 12 1q39 -1 63 -42l9 -15q24 -43 47 -54q8 -3 16 -5q34 54 77 96q81 79 152 79q58 -1 93 -34zM1052 205q8 2 15.5 5t13 6t9.5 5.5t7.5 5.5t5.5 5l3 3l2 2l-12 18q-7 8 -14 14q-26 20 -60 20q-60 -1 -113 -43 q-14 -11 -26.5 -24.5t-17.5 -21.5l-5 -8h84q64 0 108 13z" />
<glyph unicode="&#xfecb;&#xfee4;&#xfef0;" horiz-adv-x="1015" d="M70 -63q0 60 17 109q13 42 40 74l16 -16q-20 -22 -30 -71q-3 -15 -4 -29q1 -68 54 -106q48 -33 124 -33q48 0 87 7q83 14 117 47q2 30 -55 42q-31 6 -87 9l-11 21l26 84q138 11 192 104q2 4 4 7q35 73 116 107q8 4 15 6q-56 39 -68 102v3q3 49 18 85q17 38 52 62t74 24 q43 -1 79 -23q27 -20 45 -50l-23 -42q-50 24 -95 24q-38 -1 -71 -27q-20 -15 -30 -31q33 -34 61 -50q34 -20 49 -25q87 29 173 50l-34 -98q-110 -20 -203 -71q-6 -3 -10 -6q45 -34 33 -95q-9 -42 -25 -97l-23 -14q-21 -9 -40 -9q-53 0 -76 46q-10 19 -10 40q-13 -36 -61 -60 q-16 -8 -30 -11q62 -22 79 -58q5 -14 3 -26q-5 -28 -13 -61q-16 -60 -118 -101q-76 -29 -156 -29q-101 1 -152 60q-45 57 -49 126zM587 143q38 -37 93 -42q5 -1 8 -1q1 1 19 40l-20 23q-21 18 -39 19q-37 0 -58 -33z" />
<glyph unicode="&#xfb90;&#xfeda;" horiz-adv-x="1197" d="M1162 544q-31 -20 -136 -69q-111 -50 -134 -66q56 -30 100 -80q70 -83 71 -159q-1 -73 -29 -115q-37 -55 -132 -55t-122 81q-2 5 -3 9q-132 -113 -427 -113q-166 1 -236 72q-44 47 -44 112q0 68 34 130q11 20 22 30l16 -15q-23 -40 -24 -86q2 -77 83 -110q68 -25 192 -25 q249 0 368 75l-53 447l63 74q18 -143 30 -250q27 31 116 83q45 25 129 66t141 77zM482 186q-24 -18 -73 -11q-32 5 -53 13l8 16q31 -3 77 8q28 7 36 18l-6 5q-7 2 -17 2q-23 1 -35 11q-12 15 -12 34q1 32 34 57q29 21 67 30l-17 -54l-30 -5q-16 -7 -18 -17l9 -6q13 -6 35 -6 q27 -1 28 -24q0 -5 -1 -8q-11 -46 -32 -63zM1005 151q-18 64 -80 120q-50 44 -112 67l11 -94q11 -81 32 -111q23 -26 49 -27q69 1 100 45z" />
<glyph unicode="&#xfb91;&#xfeda;" horiz-adv-x="1270" d="M1205 106h65v-106h-72q-94 1 -150 85q-27 -85 -159 -85q-67 0 -99 55q-9 17 -13 35q-132 -113 -427 -113q-166 1 -236 72q-44 47 -44 112q0 68 34 130q11 20 22 30l16 -15q-23 -40 -24 -86q2 -77 83 -110q68 -25 192 -25q249 0 368 75l-53 447l63 74q23 -189 31 -257 q14 35 70 67q4 2 9 5q90 49 166 86q82 39 135 75l-25 -113q-18 -13 -139 -72q-83 -41 -126 -68q66 -52 99 -98q26 -36 70 -106q39 -62 73 -80q8 -4 14 -6q21 -8 57 -8zM482 186q-24 -18 -73 -11q-32 5 -53 13l8 16q31 -3 77 8q28 7 36 18l-6 5q-7 2 -17 2q-23 1 -35 11 q-12 15 -12 34q1 32 34 57q29 21 67 30l-17 -54l-30 -5q-16 -7 -18 -17l9 -6q13 -6 35 -6q27 -1 28 -24q0 -5 -1 -8q-11 -46 -32 -63zM915 106q57 1 88 31q-51 80 -87 122q-34 40 -105 90l13 -105q11 -80 32 -110q22 -28 59 -28z" />
<glyph unicode="&#xfb90;&#xfee0;&#xfe8e;" horiz-adv-x="930" d="M50 -12q110 44 174 81q94 51 138 104q-20 76 -72 148q-42 57 -89 89l-7 -26l-82 85l27 103q86 -40 156 -126q81 -101 104 -206q3 -14 4 -25q25 26 45 82q22 68 19 132l-11 182l68 70l15 -245q23 26 108 76q2 1 3 2q45 25 129 66t141 77l-25 -113q-31 -20 -136 -69 q-111 -50 -134 -66q68 -37 115 -99q56 -73 56 -140q-1 -73 -29 -115q-33 -51 -131 -55h-14q-76 1 -110 56q-24 40 -30 123l-4 57q-14 -96 -88 -166q-65 -60 -167 -92zM545 339l6 -97q6 -81 26 -110q18 -25 51 -26q78 1 110 45q-20 64 -73 114q-53 49 -120 74z" />
<glyph unicode="&#xfb91;&#xfee0;&#xfe8e;" horiz-adv-x="989" d="M40 -12q110 44 174 81q94 51 138 104q-20 76 -72 148q-42 57 -89 89l-7 -26l-82 85l27 103q86 -40 156 -126q81 -101 104 -206q3 -14 4 -25q25 26 45 82q22 68 19 132l-11 182l68 70l14 -242q19 27 72 57q90 49 166 86q82 39 135 75l-25 -113q-18 -13 -139 -72 q-83 -41 -126 -68q66 -52 99 -98q26 -36 70 -106q39 -62 73 -80q8 -4 14 -6q21 -8 57 -8h65v-106h-72q-94 1 -150 85q-31 -84 -157 -85q-78 1 -110 57q-22 41 -28 122l-4 57q-14 -96 -88 -166q-65 -60 -167 -92zM534 346l7 -104q6 -80 26 -109q18 -25 62 -27q63 2 93 31 q-51 80 -87 122q-31 37 -101 87z" />
<glyph unicode="&#xfb90;&#xfee0;&#xfef0;" horiz-adv-x="978" d="M70 -63q0 60 17 109q13 42 40 74l16 -16q-20 -22 -30 -71q-3 -15 -4 -29q1 -68 54 -106q48 -33 124 -33q48 0 87 7q83 14 118 47q2 30 -56 42q-31 6 -87 9l-11 21l26 83q82 6 135 41q30 21 43 52l-8 71l-44 369l63 74l30 -249q26 30 115 82q45 25 129 66t141 77l-25 -113 q-31 -20 -136 -69q-111 -50 -134 -66q61 -33 110 -92q61 -78 61 -147q-1 -73 -29 -115q-37 -55 -135 -55q-56 1 -91 35q-23 22 -31 55q-12 -33 -53 -54q-15 -7 -29 -10q62 -22 79 -58q5 -14 3 -26q-7 -39 -13 -61q-17 -61 -118 -101q-76 -29 -156 -29q-101 1 -152 60 q-45 57 -49 126zM594 338l12 -93q11 -80 32 -111q21 -27 50 -28q63 0 94 40q2 3 4 5q-18 64 -80 120q-53 46 -112 67z" />
<glyph unicode="&#xfb91;&#xfee0;&#xfef0;" horiz-adv-x="1051" d="M70 -63q0 60 17 109q13 42 40 74l16 -16q-20 -22 -30 -71q-3 -15 -4 -29q1 -68 54 -106q48 -33 124 -33q48 0 87 7q83 14 118 47q2 30 -56 42q-31 6 -87 9l-11 21l26 84q80 8 128 36q36 23 50 57l-26 221l-26 218l63 74l31 -255q14 35 73 67q3 2 5 3q90 49 166 86 q82 39 135 75l-25 -113q-18 -13 -139 -72q-83 -41 -126 -68q66 -52 99 -98q26 -36 70 -106q39 -62 73 -80q8 -4 14 -6q21 -8 57 -8h65v-106h-72q-94 1 -150 85q-11 -37 -46 -60q-37 -25 -103 -25q-51 1 -84 29q-26 24 -38 61q-12 -32 -54 -53q-14 -7 -28 -11q62 -22 79 -58 q5 -14 3 -26q-7 -39 -13 -61q-17 -61 -118 -101q-76 -29 -156 -29q-101 1 -152 60q-45 57 -49 126zM593 348l13 -103q10 -79 32 -110q21 -29 59 -29q56 1 87 31q-51 80 -87 122q-33 39 -104 89z" />
<glyph unicode="&#xfb90;&#xfe8e;" horiz-adv-x="480" d="M20 599q46 51 64 82h13q2 -21 6 -156l3 -73q14 17 59 44q57 32 164 84q84 41 141 77l-25 -113q-31 -20 -136 -69q-114 -51 -128 -61q47 -36 93 -100q61 -87 62 -144q-1 -73 -29 -115q-37 -55 -119 -55q-74 1 -106 36q-31 34 -33 102q-4 225 -7 297q-4 75 -22 161v3z M108 347l4 -145q3 -50 14 -71q16 -25 56 -25q57 1 81 27q7 7 15 18q-37 88 -149 179q-11 9 -21 17z" />
<glyph unicode="&#xfb91;&#xfe8e;" horiz-adv-x="557" d="M20 599q46 51 64 82h13q2 -21 6 -156l3 -71q14 12 42 27q97 53 196 101q82 39 135 75l-25 -113q-18 -13 -139 -72q-83 -41 -126 -68q44 -35 89 -98q26 -36 70 -106q39 -62 73 -80q8 -4 14 -6q21 -8 57 -8h65v-106h-72q-94 1 -150 85q-29 -54 -63 -71q-31 -14 -83 -14 q-74 1 -107 36q-31 34 -33 102q-4 225 -7 297q-4 75 -22 161v3zM109 340q0 -46 3 -138q3 -65 28 -82q20 -14 62 -14q57 1 88 31q-40 64 -91 118q-33 34 -90 85z" />
<glyph unicode="&#xfedf;&#xfea4;&#xfef0;" horiz-adv-x="886" d="M821 273l-53 -99q-76 1 -179 -28q-104 -29 -155 -72q86 -14 116 -61q12 -20 9 -38q-10 -49 -14 -64q-21 -62 -118 -101q-76 -29 -156 -29q-101 1 -152 60q-45 57 -49 126q0 60 17 109q13 42 40 74l16 -16q-20 -22 -30 -71q-3 -15 -4 -29q1 -68 54 -106q48 -33 124 -33 q48 0 87 7q83 14 118 47q2 30 -56 42q-31 6 -87 9l-11 21l29 84q39 46 97 75q64 31 130 39q-64 21 -124 39q-19 5 -30 -8v-23l-12 -5q-8 19 -22.5 30.5t-25.5 13.5l-10 3l23 45q5 8 9 14q9 13 62 15q63 2 79 8q-16 145 -34 216l-15 14l3 39q2 8 4 15q15 41 49 47 q24 -55 49 -78l14 -12q-23 -23 -23 -44q0 -8 1 -17q8 -67 8 -162q0 -17 -14 -46q86 -33 93 -35q17 -5 35 -8q40 -7 108 -7z" />
<glyph unicode="&#xfedf;&#xfee4;&#xfef0;" horiz-adv-x="797" d="M727 104l-18 -132q-37 27 -91 39q-75 18 -142 6q60 -21 78 -58q6 -14 4 -26q-5 -28 -13 -61q-16 -60 -118 -101q-76 -29 -156 -29q-101 1 -152 60q-45 57 -49 126q0 60 17 109q13 42 40 74l16 -16q-20 -22 -30 -71q-3 -15 -4 -29q1 -68 54 -106q48 -33 124 -33q48 0 87 7 q83 14 117 47q2 30 -55 42q-31 6 -87 9l-11 21l26 84q35 23 90 33q54 10 104 7q-14 32 -24 163q-3 45 -6 72q-10 102 -48 225l-16 14l2 38q1 9 3 16q11 42 46 49q26 -52 52 -74l16 -12q-21 -24 -20 -48q0 -6 1 -14q3 -20 9 -75q24 -192 37 -264q8 -44 46 -60q7 -2 15 -5 q43 -14 56 -27z" />
<glyph unicode="&#xfedf;&#xfeec;&#xfef0;" horiz-adv-x="845" d="M70 -63q0 60 17 109q13 42 40 74l16 -16q-20 -22 -30 -71q-3 -15 -4 -29q1 -68 54 -106q48 -33 124 -33q48 0 87 7q83 14 118 47q2 30 -56 42q-31 6 -87 9l-11 21l26 84q93 5 132 32q-34 28 -34 71q1 37 25 75q31 46 77 62q-29 163 -56 251l-15 14l1 37q1 9 3 17 q13 42 46 49q28 -53 53 -74q7 -7 15 -12q-22 -24 -21 -48l2 -14q25 -173 28 -197l58 -40q74 -53 94 -92q24 -46 1 -130q-10 -45 -49 -69q-15 -9 -27 -9q-31 0 -81 33q-4 3 -14 9q-19 13 -30 20q-27 -23 -83 -32q-8 -1 -13 -2q62 -22 79 -58q5 -14 3 -26q-7 -39 -13 -61 q-17 -61 -118 -101q-76 -29 -156 -29q-101 1 -152 60q-45 57 -49 126zM498 209q8 -23 54 -46q10 -5 23 -11q25 20 40 44q-7 37 -42 49q-9 3 -17 3q-34 -1 -58 -39zM638 119q43 -24 67 -35l14 6q15 13 19 38q-11 30 -40 59q-12 12 -53 43q-2 1 -3 2q25 -64 0 -106 q-2 -4 -4 -7z" />
<glyph unicode="&#xfee4;&#xfef0;" horiz-adv-x="881" d="M70 -63q0 60 17 109q13 42 40 74l16 -16q-20 -22 -30 -71q-3 -15 -4 -29q1 -68 54 -106q48 -33 124 -33q48 0 87 7q83 14 118 47q2 30 -56 42q-31 6 -87 9l-11 21l26 84q62 7 105 18q53 13 76 34q10 9 31 43q19 30 45 56q44 41 128 41v-53q1 -62 23 -86q20 -22 68 -22h41 v-106h-41q-55 0 -85 21v-72q-75 57 -174 84v31q-42 -33 -105 -38q62 -22 79 -58q5 -14 3 -26q-7 -39 -13 -61q-17 -61 -118 -101q-76 -29 -156 -29q-101 1 -152 60q-45 57 -49 126zM611 129q55 -18 105 -48q-8 30 -8 80q-61 8 -97 -32z" />
<glyph unicode="&#xfeec;&#xfef0;" horiz-adv-x="918" d="M70 -20q1 45 17 96q15 47 40 74l16 -16q-20 -23 -30 -71q-3 -15 -3 -29q0 -67 54 -106q49 -33 117 -33q66 0 115 16q49 17 85 48q-2 12 -36 19q-15 3 -42 7q-35 6 -48 34q-12 29 0 63q20 51 69 89q50 38 125 48q13 2 23 2q66 -1 85 -36q11 -21 6 -66q-5 -43 -5 -72 q0 -63 21 -92q2 -3 3 -4q1 64 38 105q49 50 138 50h60v-106h-69q-81 0 -107 -17q-26 -16 -31 -56q11 -8 32 -21v-105q-65 28 -103 83q-39 58 -39 123q0 11 7 82q6 47 -24 53q-6 1 -14 1q-47 0 -93 -19l-6 -3q-47 -24 -58 -45q10 -12 56 -21q3 -1 4 -1q36 -8 48 -22 q18 -19 10 -57q-13 -60 -14 -64q-16 -46 -90 -86q-76 -43 -149 -43q-107 1 -157 55q-51 56 -51 143z" />
<glyph unicode="&#x76a;&#x627;" horiz-adv-x="509" d="M487 537l-36 -37h-12q6 -85 -7 -153q-14 -70 -50 -128q30 -65 25 -87l-32 -131l-158 -3h-1h-2l-121 -2l27 110h22q50 8 95 34q51 30 77 69q-45 81 -109 158q-46 54 -101 102l-7 -27l-82 86l28 102q95 -56 193 -175q82 -100 117 -179q24 69 22 156q0 35 -5 68h-64l-7 7 l36 30h28q-4 17 -8 30l-15 15l3 35q3 15 7 26q16 34 46 39q24 -59 61 -87q1 -2 2 -2q-23 -19 -23 -41q0 -7 1 -15h50zM264 106l86 3q7 1 11 2q-11 29 -22 52q-38 -39 -75 -57z" />
<glyph unicode="&#xfedf;&#xfbe9;&#xfee2;" horiz-adv-x="1091" d="M963 327q6 -80 8 -155q2 -83 -4 -106q-16 -53 -72 -64q-12 -2 -25 -2h-56q-33 0 -48 30q-5 11 -5 23q0 33 30 48q11 5 23 5h40q17 0 31.5 6t21.5 12l6 5q0 58 -17 210t-36 228l-15 14l3 39q2 8 4 15q15 41 49 47q24 -55 49 -78l14 -12q-23 -23 -23 -44q0 -8 1 -17 q15 -117 21 -204zM736 148v-31q-1 -46 -34 -78q-32 -31 -82 -38q-6 -1 -11 -1h-64q-34 0 -48 31q-5 11 -5 22q0 35 31 48q11 5 22 5h56q48 0 76 13q12 6 20 12q-16 54 -75 84l29 106q39 -27 60 -65q25 -46 25 -108zM491 106h40v-106h-23q-68 0 -92 17q-12 9 -22 22 q-5 -35 -13 -55q-20 -45 -59 -46q-38 1 -58 28q-18 25 -20 66q-1 13 1 39v1q-91 -11 -113 -50q-6 -46 13 -139q5 -23 7 -35q23 -125 16 -179q-9 -77 -33 -126l-17 -8q7 83 -23 225q-5 25 -7 33q-20 91 -18 141q2 22 5 44q14 68 45 116q57 84 146 75l16 44l23 -28 q23 -23 49 -40q64 -39 137 -39z" />
<glyph unicode="&#xfedf;&#xfb51;" horiz-adv-x="503" d="M151 661q-22 0 -52.5 2t-57.5 5.5t-41 5.5l7 51q9 -1 23 -3t31 -3q14 30 34.5 60t48 50.5t64.5 20.5q32 0 60.5 -20t28.5 -67q0 -24 -12 -47.5t-43.5 -39t-90.5 -15.5zM204 796q-25 0 -48 -23t-42 -59q21 -1 37 -1q57 0 74.5 13t17.5 32q0 20 -12 29t-27 9zM393 536 q0 22 -3 53t-7 62t-8 53l86 10q3 -20 6.5 -52.5t5.5 -64.5t2 -53q0 -63 -11.5 -122.5t-37.5 -115.5q47 -49 69 -90t22 -81q0 -29 -14 -60.5t-51 -53t-107 -21.5h-230v81q150 107 214 213q-56 50 -131.5 107t-157.5 116l47 66q89 -66 158 -119.5t119 -98.5q15 40 22 82.5 t7 88.5zM234 82h126q51 0 67 18.5t16 42.5q0 18 -14.5 42t-40.5 52q-28 -42 -66.5 -81t-87.5 -74z" />
<glyph unicode="&#xfee0;&#xfb51;" horiz-adv-x="635" d="M151 661q-22 0 -52.5 2t-57.5 5.5t-41 5.5l7 51q9 -1 23 -3t31 -3q14 30 34.5 60t48 50.5t64.5 20.5q32 0 60.5 -20t28.5 -67q0 -24 -12 -47.5t-43.5 -39t-90.5 -15.5zM204 796q-25 0 -48 -23t-42 -59q21 -1 37 -1q57 0 74.5 13t17.5 32q0 20 -12 29t-27 9zM142 -5 q-27 0 -54.5 4.5t-38.5 6.5l11 79q90 -12 164.5 2.5t118.5 72.5q-39 64 -117 155.5t-186 188.5l54 57q106 -100 175 -181t111 -141q12 43 14 98l-14 377h82l20 -515q2 -49 9.5 -75.5t34 -36.5t83.5 -10q21 0 30.5 -11.5t9.5 -27.5t-14 -29.5t-36 -13.5q-70 0 -111 13.5 t-60 42t-25 73.5q-31 -55 -76 -83t-93.5 -37t-91.5 -9z" />
<glyph unicode="&#x66e;" horiz-adv-x="234" d="M174 148v-31q-1 -46 -34 -78q-32 -31 -82 -38q-6 -1 -11 -1h-64q-34 0 -48 31q-5 11 -5 22q0 35 31 48q11 5 22 5h56q48 0 76 13q12 6 20 12q-16 54 -75 84l29 106q39 -27 60 -65q25 -46 25 -108z" />
<glyph unicode="&#x66e;" horiz-adv-x="276" d="M233 106h43v-106h-47q-41 1 -67 21q-17 16 -25 34q-4 -16 -22 -31q-29 -24 -83 -24h-49q-33 0 -48 30q-5 11 -5 23q0 33 30 48q11 5 23 5h68q41 1 64 21l6 6q3 3 5 6t4 7t3 6.5t2.5 6.5t1.5 6l2 6q1 4 1.5 5t1.5 4v4l15 -8q-2 -36 17 -53t59 -17z" />
<glyph unicode="&#x66e;" horiz-adv-x="893" d="M852 106h41v-106h-40q-76 0 -95 53q-5 12 -5 24q-56 -45 -152 -69q-132 -33 -253 -33q-162 0 -235 68q-53 48 -53 119q0 66 34 129q11 20 22 30l16 -15q-24 -45 -24 -89q2 -75 84 -106q73 -27 200 -27q119 0 231 21q56 11 97 27q44 19 69 43l9 -7q-3 -13 -3 -20 q1 -14 6 -23q13 -19 51 -19z" />
<glyph unicode="&#x66f;" horiz-adv-x="613" d="M613 106v-106h-121q1 -10 1 -28q0 -96 -69 -157q-2 -1 -3 -2q-62 -52 -151 -52q-90 1 -144 51q-56 53 -56 139q0 57 16 105q14 42 41 74l16 -16q-31 -45 -34 -98q1 -65 53 -103q48 -34 124 -34q110 0 153 70q5 9 8 17q-6 22 -10 34h-66q-48 1 -73 22q-31 27 -27 70l9 88 q4 37 37 60q21 14 45 14q46 -1 77 -44q28 -40 39 -104h135zM340 106h67q-17 59 -54 60q-14 0 -25.5 -8.5t-16.5 -17.5l-5 -8l5 -13q10 -12 29 -13z" />
<glyph unicode="&#x676;" horiz-adv-x="520" d="M343 360q29 7 57 11l-15 -39q-91 -16 -154 -48l-7 5l28 42q4 2 19 7q11 4 14 5l-15 10q-13 15 -14 34q1 6 3 11q42 54 76 55q13 0 22.5 -9.5t12.5 -19.5l2 -9l-23 -21q-9 18 -24 19q-4 0 -9 -1.5t-9.5 -3.5t-8 -4t-6.5 -4l-3 -2q20 -30 54 -38zM520 106v-106h-268 q-7 -112 -80 -165q-48 -32 -98 -32v-57h-3q-23 53 -71 51v105q87 3 131 29q41 25 59 69h-51q-55 1 -82 30q-22 26 -18 62l9 88q4 37 37 60q21 14 46 14q44 -1 76 -44q29 -40 40 -104h273zM108 106h67q-17 59 -55 60q-13 0 -24.5 -8.5t-16.5 -17.5l-5 -8l5 -13q10 -12 29 -13 z" />
<glyph unicode="&#x677;" horiz-adv-x="397" d="M130 374l14 -7l-9 -37l-22 10q-27 -44 -105 -58l-8 4l24 36q17 1 34 8t26 14l9 6l-15 8q-30 16 -18 41q2 2 3 4l18 27q10 15 29 12q5 -1 8 -3q27 -14 14 -60q-1 -3 -2 -5zM238 345q30 8 35 -1l-1 -22q-75 -13 -128 -40l-6 4l23 35q12 7 29 10l-13 10q-11 13 -11 27 q0 7 1 10q1 0 4 4q35 40 59 41q12 0 20 -8t10 -16l2 -8l-20 -17q-8 15 -20 16q-3 0 -7.5 -1t-8 -3t-6.5 -4t-6 -3l-2 -1q14 -25 46 -33zM89 393l22 -12q0 22 -6 26q-2 1 -3 2q-5 2 -9.5 1.5t-7.5 -2.5l-3 -2l1 -8q3 -3 6 -5zM397 106v-106h-140q-7 -112 -80 -165 q-48 -32 -98 -32v-57h-3q-23 53 -71 51v105q87 3 131 29q41 25 59 69h-51q-55 1 -82 30q-22 26 -18 62l9 88q4 37 37 60q21 14 46 14q44 -1 76 -44q29 -40 40 -104h145zM113 106h67q-17 59 -55 60q-13 0 -24.5 -8.5t-16.5 -17.5l-5 -8l5 -13q10 -12 29 -13z" />
<glyph unicode="&#x678;" horiz-adv-x="358" d="M241 440q29 7 57 11l-15 -39q-91 -16 -154 -48l-7 5l28 42q4 2 19 7q11 4 14 5l-15 10q-13 15 -14 34q1 6 3 11q42 54 76 55q13 0 22.5 -9.5t12.5 -19.5l2 -9l-23 -21q-9 18 -24 19q-4 0 -9 -1.5t-9.5 -3.5t-8 -4t-6.5 -4l-3 -2q20 -30 54 -38zM174 148v-31 q-1 -46 -34 -78q-32 -31 -82 -38q-6 -1 -11 -1h-64q-34 0 -48 31q-5 11 -5 22q0 35 31 48q11 5 22 5h56q48 0 76 13q12 6 20 12q-16 54 -75 84l29 106q39 -27 60 -65q25 -46 25 -108z" />
<glyph unicode="&#x678;" horiz-adv-x="484" d="M292 289q29 7 57 11l-15 -39q-91 -16 -154 -48l-7 5l28 42q4 2 19 7q11 4 14 5l-15 10q-13 15 -14 34q1 6 3 11q42 54 76 55q13 0 22.5 -9.5t11.5 -18.5l3 -10l-23 -21q-9 18 -24 19q-4 0 -9 -1.5t-9.5 -3.5t-8 -4t-6.5 -4l-3 -2q20 -30 54 -38zM233 106h251v-106h-255 q-41 1 -67 21q-17 16 -25 34q-4 -16 -22 -31q-29 -24 -83 -24h-49q-33 0 -48 30q-5 11 -5 23q0 33 30 48q11 5 23 5h68q41 1 64 21l6 6q3 3 5 6t4 7t3 6.5t2.5 6.5t2.5 6l1 6q1 4 1.5 5t1.5 4v4l15 -8q-2 -36 17 -53t59 -17z" />
<glyph unicode="&#x678;" horiz-adv-x="807" d="M643 221q29 7 57 11l-15 -39q-91 -16 -154 -48l-7 5l28 42q4 2 19 7q11 4 14 5l-15 10q-13 15 -14 34q1 6 3 11q42 54 76 55q13 0 22.5 -9.5t12.5 -18.5l2 -10l-23 -21q-9 18 -24 19q-4 0 -9 -1.5t-9.5 -3.5t-8 -4t-6.5 -4l-3 -2q20 -30 54 -38zM807 106v-106h-296 q15 -14 15 -43q0 -66 -90 -115q-14 -8 -28 -14q-68 -30 -137 -30q-101 1 -152 60q-49 57 -49 146q1 115 57 183l16 -16q-33 -43 -33 -104q1 -60 30 -97q46 -58 147 -58q126 1 182 54q-23 34 -80 34h-34l-11 21l26 85h437z" />
<glyph unicode="&#x67c;" horiz-adv-x="234" d="M-1 366q-18 -23 -41 -46q-41 41 -64 54q42 47 53 62q31 -17 55 -44q27 29 37 44q40 -20 62 -52q1 -2 2 -3q-25 -33 -53 -61q-26 27 -51 46zM149 256q25 -46 25 -108v-31q-1 -46 -34 -78q-18 -17 -50 -30q7 -11 7 -27v-32q0 -34 -33 -45q-8 -2 -15 -2q-31 0 -43 26 q-5 10 -5 21v32q0 10 3 18h-21q-34 0 -48 31q-5 11 -5 22q0 35 31 48q11 5 22 5h56q48 0 76 13q12 6 20 12q-16 54 -75 84l29 106q39 -27 60 -65zM49 -53q23 1 34 17q-1 35 -34 36q-33 -2 -34 -36q12 -16 34 -17z" />
<glyph unicode="&#x67c;" horiz-adv-x="276" d="M29 258q-18 -23 -41 -46q-41 41 -64 54q42 47 53 62q31 -17 55 -44q27 29 37 44q40 -20 62 -52q1 -2 2 -3q-25 -33 -53 -61q-26 27 -51 46zM233 106h43v-106h-47q-41 1 -67 21q-17 16 -25 34q-4 -16 -22 -31q-13 -11 -34 -18q5 -11 5 -24v-32q0 -34 -33 -45q-8 -2 -15 -2 q-31 0 -43 26q-5 10 -5 21v32q0 10 3 18h-10q-33 0 -48 30q-5 11 -5 23q0 33 30 48q11 5 23 5h68q41 1 64 21l6 6q3 3 5 6t4 7t3 6.5t2.5 6.5t1.5 6l2 6q1 4 1.5 5t1.5 4v4l15 -8q-2 -36 17 -53t59 -17zM38 -53q23 1 34 17q-1 35 -34 36q-33 -2 -34 -36q12 -16 34 -17z" />
<glyph unicode="&#x67c;" horiz-adv-x="893" d="M443 285q-18 -23 -41 -46q-41 41 -64 54q42 47 53 62q31 -17 55 -44q27 29 37 44q40 -20 62 -52q1 -2 2 -3q-25 -33 -53 -61q-26 27 -51 46zM852 106h41v-106h-40q-76 0 -95 53q-5 12 -5 24q-56 -45 -152 -69q-70 -17 -129 -24q5 -12 5 -24v-32q0 -34 -33 -45 q-8 -2 -15 -2q-31 0 -43 26q-5 10 -5 21v32q0 7 2 16q-13 -1 -35 -1q-162 0 -235 68q-53 48 -53 119q0 66 34 129q11 20 22 30l16 -15q-24 -45 -24 -89q2 -75 84 -106q73 -27 200 -27q119 0 231 21q56 11 97 27q44 19 69 43l9 -7q-3 -13 -3 -20q1 -14 6 -23q13 -19 51 -19z M429 -75q23 1 34 17q-1 35 -34 36q-33 -2 -34 -36q12 -16 34 -17z" />
<glyph unicode="&#x67d;" horiz-adv-x="893" d="M338 400q42 47 53 62q31 -17 55 -44q27 29 37 44q40 -20 62 -52q1 -2 2 -3q-25 -33 -53 -61q-26 27 -51 46q-18 -23 -41 -46q-41 41 -64 54zM391 293q42 48 53 63q44 -25 64 -56q-22 -30 -53 -61q-38 39 -64 54zM852 106h41v-106h-40q-76 0 -95 53q-5 12 -5 24 q-56 -45 -152 -69q-132 -33 -253 -33q-162 0 -235 68q-53 48 -53 119q0 66 34 129q11 20 22 30l16 -15q-24 -45 -24 -89q2 -75 84 -106q73 -27 200 -27q119 0 231 21q56 11 97 27q44 19 69 43l9 -7q-3 -13 -3 -20q1 -14 6 -23q13 -19 51 -19z" />
<glyph unicode="&#x689;" horiz-adv-x="443" d="M422 106h21v-106h-26q-39 1 -75 24q-30 22 -48 53q-10 -38 -42 -60q-21 -14 -48 -20q5 -11 5 -24v-32q0 -34 -33 -45q-8 -2 -15 -2q-31 0 -43 26q-5 10 -5 21v32q0 14 4 22q-31 7 -49 26q-3 3 -5.5 6.5t-4 7t-3 7.5t-2.5 7t-1.5 6.5t-1 6t-0.5 5.5v5v4v2l3 61 q30 -41 96 -42q39 0 78 11q29 9 43 21q-18 41 -28 91q-9 48 -9 81l35 53q20 -110 49 -167q41 -80 105 -81zM161 -62q23 1 34 17q-1 35 -34 36q-33 -2 -34 -36q12 -16 34 -17z" />
<glyph unicode="&#x68a;" horiz-adv-x="443" d="M422 106h21v-106h-26q-39 1 -75 24q-30 22 -48 53q-10 -38 -42 -60q-37 -25 -101 -25q-58 1 -83 29q-3 3 -5.5 6.5t-4 7t-3 7.5t-2.5 7t-1.5 6.5t-1 6t-0.5 5.5v5v4v2l3 61q30 -41 96 -42q39 0 78 11q29 9 43 21q-18 41 -28 91q-9 48 -9 81l35 53q20 -110 49 -167 q41 -80 105 -81zM166 -54q39 -20 61 -52q1 -2 2 -3q-27 -37 -52 -61q-41 41 -64 54q42 47 53 62z" />
<glyph unicode="&#x68b;" horiz-adv-x="443" d="M116 413q1 0 36 -2l22 1q10 15 15 20q0 41 -4 67q-6 34 -15 54l-5 5q0 1 2 18q5 14 16 15q8 -17 21 -28q-9 -8 -6 -21q7 -32 9 -45q3 -28 -4 -49q27 23 48 23q18 -1 31 -13q8 -10 13 -23q-1 -1 -2 -5q-4 -12 -8 -19q-9 -13 -22 -21q-19 -13 -54 -13l-71 -1zM183 408h35 q43 1 64 18l-10 12q-9 8 -24 8q-24 -1 -45 -17q-12 -10 -20 -21zM422 106h21v-106h-26q-39 1 -75 24q-30 22 -48 53q-10 -38 -42 -60q-37 -25 -101 -25q-58 1 -83 29q-3 3 -5.5 6.5t-4 7t-3 7.5t-2.5 7t-1.5 6.5t-1 6t-0.5 5.5v5v4v2l3 61q30 -41 96 -42q39 0 78 11 q29 9 43 21q-18 41 -28 91q-9 48 -9 81l35 53q20 -110 49 -167q41 -80 105 -81zM166 -54q39 -20 61 -52q1 -2 2 -3q-27 -37 -52 -61q-41 41 -64 54q42 47 53 62z" />
<glyph unicode="&#x68f;" horiz-adv-x="443" d="M112 535q42 47 53 62q31 -17 55 -44q27 29 37 44q40 -20 62 -52q1 -2 2 -3q-25 -33 -53 -61q-26 27 -51 46q-18 -23 -41 -46q-41 41 -64 54zM165 428q42 48 53 63q44 -25 64 -56q-22 -30 -53 -61q-38 39 -64 54zM422 106h21v-106h-26q-39 1 -75 24q-30 22 -48 53 q-10 -38 -42 -60q-37 -25 -101 -25q-58 1 -83 29q-3 3 -5.5 6.5t-4 7t-3 7.5t-2.5 7t-1.5 6.5t-1 6t-0.5 5.5v5v4v2l3 61q30 -41 96 -42q39 0 78 11q29 9 43 21q-18 41 -28 91q-9 48 -9 81l35 53q20 -110 49 -167q41 -80 105 -81z" />
<glyph unicode="&#x690;" horiz-adv-x="443" d="M91 430q42 47 53 62q-32 30 -53 42q33 37 53 62q32 -18 56 -44l37 44q40 -21 62 -52q1 -2 2 -3q-23 -32 -50 -58q32 -20 50 -46q-25 -33 -53 -61q-30 32 -51 46q-14 -18 -42 -46q-38 39 -64 54zM158 483q23 -15 42 -35l37 44q-27 25 -40 34q-8 -10 -39 -43zM422 106h21 v-106h-26q-39 1 -75 24q-30 22 -48 53q-10 -38 -42 -60q-37 -25 -101 -25q-58 1 -83 29q-3 3 -5.5 6.5t-4 7t-3 7.5t-2.5 7t-1.5 6.5t-1 6t-0.5 5.5v4v5v2l3 61q30 -41 96 -42q39 0 78 11q29 9 43 21q-18 41 -28 91q-9 48 -9 81l35 53q20 -110 49 -167q41 -80 105 -81z" />
<glyph unicode="&#x693;" horiz-adv-x="345" d="M269 106h76v-106h-54q-38 0 -55 7q4 -89 -52 -147q-22 -22 -51 -37q13 -14 13 -36v-32q0 -34 -33 -45q-8 -2 -15 -2q-31 0 -43 26q-5 10 -5 21v32q0 7 2 16q-7 -1 -18 -1v-57h-3q-21 53 -71 51v105q97 4 153 37q56 37 65 104q-28 27 -31 79v13q0 11 2 28l17 16 q29 -67 91 -72h12zM98 -248q23 1 34 17q-1 35 -34 36q-33 -2 -34 -36q12 -16 34 -17z" />
<glyph unicode="&#x69a;" horiz-adv-x="912" d="M603 386q39 -20 61 -52q1 -2 2 -3q-27 -37 -52 -61q-41 41 -64 54q42 47 53 62zM879 106h33v-106h-29q-41 1 -67 22q-18 15 -32 45q-4 -26 -22 -42q-23 -19 -60 -19q-36 1 -60 22q-18 19 -23 48q-9 -34 -41 -54q-32 -17 -77 -17q2 -28 2 -37q-2 -97 -64 -153 q-64 -53 -163 -53q-97 1 -150 51q-54 54 -56 136q0 59 16 108q16 45 41 74l16 -16q-34 -46 -34 -106q1 -56 54 -95q47 -34 124 -34q49 0 86 12q72 24 93 78q1 3 2 5q-26 31 -53 65q-29 39 -29 93q0 16 4 29l16 16q15 -37 36 -50q27 -16 63 -16q24 0 45 7q18 7 33 20 q23 25 28 76l15 -8q2 -46 20 -69q21 -26 59 -26q35 1 53 29q15 28 15 74l14 -8q2 -38 18 -63q25 -37 74 -38zM603 -55q39 -20 61 -52q1 -2 2 -3q-27 -37 -52 -61q-41 41 -64 54q42 47 53 62z" />
<glyph unicode="&#x69b;" horiz-adv-x="912" d="M879 106h33v-106h-29q-41 1 -67 22q-18 15 -32 45q-4 -26 -22 -42q-23 -19 -60 -19q-36 1 -60 22q-18 19 -23 48q-9 -34 -41 -54q-32 -17 -77 -17q2 -28 2 -37q-2 -97 -64 -153q-64 -53 -163 -53q-97 1 -150 51q-54 54 -56 136q0 59 16 108q16 45 41 74l16 -16 q-34 -46 -34 -106q1 -56 54 -95q47 -34 124 -34q49 0 86 12q72 24 93 78q1 3 2 5q-26 31 -53 65q-29 39 -29 93q0 16 4 29l16 16q15 -37 36 -50q27 -16 63 -16q24 0 45 7q18 7 33 20q23 25 28 76l15 -8q2 -46 20 -69q21 -26 59 -26q35 1 53 29q15 28 15 74l14 -8 q2 -38 18 -63q25 -37 74 -38zM534 -102q42 47 53 62q31 -17 55 -44q27 29 37 44q40 -20 62 -52q1 -2 2 -3q-25 -33 -53 -61q-26 27 -51 46q-18 -23 -41 -46q-41 41 -64 54zM587 -209q42 48 53 63q44 -25 64 -56q-22 -30 -53 -61q-38 39 -64 54z" />
<glyph unicode="&#x69c;" horiz-adv-x="912" d="M547 432q30 32 53 62q38 -20 62 -52q1 -2 2 -3q-25 -33 -53 -61q-35 36 -64 54zM503 324q33 37 53 62q32 -18 56 -44l37 44q40 -21 62 -52q1 -2 2 -3q-25 -33 -53 -61q-30 32 -51 46q-14 -18 -42 -46q-38 39 -64 54zM879 106h33v-106h-29q-41 1 -67 22q-18 15 -32 45 q-4 -26 -22 -42q-23 -19 -60 -19q-36 1 -60 22q-18 19 -23 48q-9 -34 -41 -54q-32 -17 -77 -17q2 -28 2 -37q-2 -97 -64 -153q-64 -53 -163 -53q-97 1 -150 51q-54 54 -56 136q0 59 16 108q16 45 41 74l16 -16q-34 -46 -34 -106q1 -56 54 -95q47 -34 124 -34q49 0 86 12 q72 24 93 78q1 3 2 5q-26 31 -53 65q-29 39 -29 93q0 16 4 29l16 16q15 -37 36 -50q27 -16 63 -16q24 0 45 7q18 7 33 20q23 25 28 76l15 -8q2 -46 20 -69q21 -26 59 -26q35 1 53 29q15 28 15 74l14 -8q2 -38 18 -63q25 -37 74 -38zM534 -102q42 47 53 62q31 -17 55 -44 q27 29 37 44q40 -20 62 -52q1 -2 2 -3q-25 -33 -53 -61q-26 27 -51 46q-18 -23 -41 -46q-41 41 -64 54zM587 -209q42 48 53 63q44 -25 64 -56q-22 -30 -53 -61q-38 39 -64 54z" />
<glyph unicode="&#x69d;" horiz-adv-x="990" d="M907 106h83v-106h-87q-65 0 -89 49q-1 3 -2 5l-2 -2q-67 -61 -192 -62q-50 0 -116 10q1 -12 1 -32q-2 -99 -64 -153q-64 -53 -163 -53q-97 1 -150 51q-54 54 -56 136q0 59 17 108q14 44 40 74l16 -16q-34 -46 -34 -106q1 -56 54 -95q47 -34 124 -34q48 0 87 12 q71 24 92 78q1 3 2 5l-47 58q-35 45 -35 96l4 33l16 16q15 -41 41 -56q23 -13 67 -16q27 43 77 93q84 83 156 84q73 0 110 -56q13 -20 26 -51q-12 -39 -23 -61q17 -9 47 -9zM558 102h87q125 0 161 41q2 2 3 4l-14 20q-7 8 -13 13q-25 19 -59 19q-59 -1 -115 -44 q-14 -11 -26.5 -24.5t-17.5 -20.5zM553 -117q42 47 53 62q31 -17 55 -44q27 29 37 44q40 -20 62 -52q1 -2 2 -3q-25 -33 -53 -61q-26 27 -51 46q-18 -23 -41 -46q-41 41 -64 54z" />
<glyph unicode="&#x69e;" horiz-adv-x="990" d="M637 492q30 32 53 62q38 -20 62 -52q1 -2 2 -3q-25 -33 -53 -61q-35 36 -64 54zM593 384q33 37 53 62q32 -18 56 -44l37 44q40 -21 62 -52q1 -2 2 -3q-25 -33 -53 -61q-30 32 -51 46q-14 -18 -42 -46q-38 39 -64 54zM907 106h83v-106h-87q-65 0 -89 49q-1 3 -2 5l-2 -2 q-67 -61 -192 -62q-50 0 -116 10q1 -12 1 -32q-2 -99 -64 -153q-64 -53 -163 -53q-97 1 -150 51q-54 54 -56 136q0 59 17 108q14 44 40 74l16 -16q-34 -46 -34 -106q1 -56 54 -95q47 -34 124 -34q48 0 87 12q71 24 92 78q1 3 2 5l-47 58q-35 45 -35 96l4 33l16 16 q15 -41 41 -56q23 -13 67 -16q27 43 77 93q84 83 156 84q73 0 110 -56q13 -20 26 -51q-12 -39 -23 -61q17 -9 47 -9zM558 102h87q125 0 161 41q2 2 3 4l-14 20q-7 8 -13 13q-25 19 -59 19q-59 -1 -115 -44q-14 -11 -26.5 -24.5t-17.5 -20.5z" />
<glyph unicode="&#x69f;" horiz-adv-x="505" d="M422 106h83v-106h-87q-64 0 -88 47q-2 3 -3 6l-21 -15q-14 -8 -30 -14q-61 -24 -142 -24h-151q-33 0 -48 30q-5 11 -5 23q0 33 30 48q11 5 23 5h50q16 27 45 61q0 126 -12 219q-14 102 -45 179l-15 14l2 37q1 7 2 12q13 47 49 53q24 -58 66 -87q-24 -23 -22 -50 q0 -6 1 -12q21 -120 23 -135q12 -95 -4 -183q75 69 143 69q55 -1 93 -38q14 -14 23.5 -31t12.5 -28l3 -10q-11 -37 -22 -62q18 -8 46 -8zM189 540q30 32 53 62q38 -20 62 -52q1 -2 2 -3q-25 -33 -53 -61q-35 36 -64 54zM145 432q33 37 53 62q32 -18 56 -44l37 44 q40 -21 62 -52q1 -2 2 -3q-25 -33 -53 -61q-30 32 -51 46q-14 -18 -42 -46q-38 39 -64 54zM161 106q131 0 164 45q-12 21 -27 33q-25 19 -60 19q-65 -1 -123 -53q-11 -10 -20.5 -21t-13.5 -17l-4 -6h84z" />
<glyph unicode="&#x69f;" horiz-adv-x="719" d="M637 106h82v-106h-87q-67 2 -91 53l-20 -14q-14 -8 -31 -15q-56 -23 -142 -24l-118 -3l-21 -36l-20 22l6 13l-58 -1l-67 114q1 0 105 -3h73q20 33 44 61q-2 143 -17 244q-14 89 -39 154l-16 14l1 36q2 13 6 24q14 36 46 42q27 -58 66 -87q-24 -24 -21 -51q0 -6 1 -11 q1 -6 4 -23q11 -62 16 -105q14 -115 -2 -190q76 69 145 69q56 -1 92 -38q23 -25 39 -69q-11 -39 -23 -62q19 -8 47 -8zM402 540q30 32 53 62q38 -20 62 -52q1 -2 2 -3q-25 -33 -53 -61q-35 36 -64 54zM358 432q33 37 53 62q32 -18 56 -44l37 44q40 -21 62 -52q1 -2 2 -3 q-25 -33 -53 -61q-30 32 -51 46q-14 -18 -42 -46q-38 39 -64 54zM375 106q126 0 164 44l1 1q-17 23 -27 32q-26 20 -60 20q-57 -1 -108 -40q-16 -12 -29.5 -26.5t-19.5 -22.5l-5 -8h84z" />
<glyph unicode="&#x6a0;" horiz-adv-x="559" d="M243 494q30 32 53 62q38 -20 62 -52q1 -2 2 -3q-25 -33 -53 -61q-35 36 -64 54zM199 386q33 37 53 62q32 -18 56 -44l37 44q40 -21 62 -52q1 -2 2 -3q-25 -33 -53 -61q-30 32 -51 46q-14 -18 -42 -46q-38 39 -64 54zM244 26q-50 -28 -79 -62q-34 -42 -34 -88 q1 -69 79 -109q71 -36 190 -36h86l-88 -101h-48q-133 1 -200 55q-79 65 -80 177q1 77 41 134q36 50 95 85q29 17 66 34q-21 29 -41 44q-32 21 -73 9l13 71q59 46 138 46q89 -1 147 -46l-14 -87q-12 -10 -46 -41q15 -5 56 -5h107v-106h-123q-91 0 -123 47q-4 5 -7 10 q-43 -21 -62 -31zM388 197q-55 20 -107 14q35 -26 51 -55q35 21 56 41z" />
<glyph unicode="&#x6a1;" horiz-adv-x="273" d="M213 186q-1 -60 -28 -109q2 -22 1 -39t-4 -28l-2 -10q-3 30 -15 50q-38 -43 -111 -49q-8 -1 -14 -1h-57q-33 0 -48 30q-5 11 -5 23q0 33 30 48q11 5 23 5h71l61 5q-16 21 -52 35q-12 5 -29 8.5t-28 5.5l-11 1v71q0 67 57 87q18 6 39 6q54 -1 86 -34q36 -38 36 -105z M167 137q6 13 6 35q-1 26 -15 44q-18 20 -47 20q-29 -1 -54 -20q38 -7 68 -29q29 -23 42 -50z" />
<glyph unicode="&#x6a1;" horiz-adv-x="376" d="M288 106h88v-106h-88q-79 1 -132 36q-24 -24 -86 -33q-18 -3 -34 -3h-53q-33 0 -48 30q-5 11 -5 23q0 33 30 48q11 5 23 5h60q33 0 42 5q-9 23 -9 41v27q0 64 27 97q5 7 11 13q33 32 71 32q66 0 68 -107v-12v-35q0 -17 -5 -31.5t-10 -20.5l-5 -6q17 -3 55 -3zM142 131 q62 25 88 67l-22 12q-18 7 -35 7q-47 -1 -78 -44l15 -20q15 -16 32 -22z" />
<glyph unicode="&#x6a1;" horiz-adv-x="983" d="M875 106h108v-106h-109q-82 1 -140 42q-54 -26 -121 -42q-99 -23 -217 -23q-160 1 -242 56q-83 59 -84 159q0 77 38 141q9 15 18 24l16 -16q-24 -46 -24 -91q1 -81 65 -121q72 -44 239 -44q127 0 213 19q12 2 36 9q-8 24 -8 39l-1 27q-1 70 38 110q33 31 72 32 q68 -1 68 -113l-1 -41q0 -17 -4.5 -31.5t-9.5 -20.5l-5 -6q20 -3 55 -3zM729 131q61 24 87 67l-21 12q-17 7 -35 7q-48 -1 -78 -44l15 -20q15 -16 32 -22z" />
<glyph unicode="&#x6a2;" horiz-adv-x="983" d="M875 106h108v-106h-109q-82 1 -140 42q-54 -26 -121 -42q-99 -23 -217 -23q-160 1 -242 56q-83 59 -84 159q0 77 38 141q9 15 18 24l16 -16q-24 -46 -24 -91q1 -81 65 -121q72 -44 239 -44q127 0 213 19q12 2 36 9q-8 24 -8 39l-1 27q-1 70 38 110q33 31 72 32 q68 -1 68 -113l-1 -41q0 -17 -4.5 -31.5t-9.5 -20.5l-5 -6q20 -3 55 -3zM729 131q61 24 87 67l-21 12q-17 7 -35 7q-48 -1 -78 -44l15 -20q15 -16 32 -22zM731 -55q39 -20 61 -52q1 -2 2 -3q-27 -37 -52 -61q-41 41 -64 54q42 47 53 62z" />
<glyph unicode="&#x6a3;" horiz-adv-x="983" d="M736 472q39 -20 61 -52q1 -2 2 -3q-27 -37 -52 -61q-41 41 -64 54q42 47 53 62zM875 106h108v-106h-109q-82 1 -140 42q-54 -26 -121 -42q-99 -23 -217 -23q-160 1 -242 56q-83 59 -84 159q0 77 38 141q9 15 18 24l16 -16q-24 -46 -24 -91q1 -81 65 -121q72 -44 239 -44 q127 0 213 19q12 2 36 9q-8 24 -8 39l-1 27q-1 70 38 110q33 31 72 32q68 -1 68 -113l-1 -41q0 -17 -4.5 -31.5t-9.5 -20.5l-5 -6q20 -3 55 -3zM729 131q61 24 87 67l-21 12q-17 7 -35 7q-48 -1 -78 -44l15 -20q15 -16 32 -22zM731 -55q39 -20 61 -52q1 -2 2 -3 q-27 -37 -52 -61q-41 41 -64 54q42 47 53 62z" />
<glyph unicode="&#x6a5;" horiz-adv-x="983" d="M875 106h108v-106h-109q-82 1 -140 42q-54 -26 -121 -42q-99 -23 -217 -23q-160 1 -242 56q-83 59 -84 159q0 77 38 141q9 15 18 24l16 -16q-24 -46 -24 -91q1 -81 65 -121q72 -44 239 -44q127 0 213 19q12 2 36 9q-8 24 -8 39l-1 27q-1 70 38 110q33 31 72 32 q68 -1 68 -113l-1 -41q0 -17 -4.5 -31.5t-9.5 -20.5l-5 -6q20 -3 55 -3zM729 131q61 24 87 67l-21 12q-17 7 -35 7q-48 -1 -78 -44l15 -20q15 -16 32 -22zM632 -102q42 47 53 62q31 -17 55 -44q27 29 37 44q40 -20 62 -52q1 -2 2 -3q-25 -33 -53 -61q-26 27 -51 46 q-18 -23 -41 -46q-41 41 -64 54zM685 -209q42 48 53 63q44 -25 64 -56q-22 -30 -53 -61q-38 39 -64 54z" />
<glyph unicode="&#x6a7;" horiz-adv-x="613" d="M342 422q39 -20 61 -52q1 -2 2 -3q-27 -37 -52 -61q-41 41 -64 54q42 47 53 62zM613 106v-106h-121q1 -10 1 -28q0 -96 -69 -157q-2 -1 -3 -2q-62 -52 -151 -52q-90 1 -144 51q-56 53 -56 139q0 57 16 105q14 42 41 74l16 -16q-31 -45 -34 -98q1 -65 53 -103 q48 -34 124 -34q110 0 153 70q5 9 8 17q-6 22 -10 34h-66q-48 1 -73 22q-31 27 -27 70l9 88q4 37 37 60q21 14 45 14q46 -1 77 -44q28 -40 39 -104h135zM340 106h67q-17 59 -54 60q-14 0 -25.5 -8.5t-16.5 -17.5l-5 -8l5 -13q10 -12 29 -13z" />
<glyph unicode="&#x6a8;" horiz-adv-x="613" d="M286 468q30 32 53 62q38 -20 62 -52q1 -2 2 -3q-25 -33 -53 -61q-35 36 -64 54zM242 360q33 37 53 62q32 -18 56 -44l37 44q40 -21 62 -52q1 -2 2 -3q-25 -33 -53 -61q-30 32 -51 46q-14 -18 -42 -46q-38 39 -64 54zM613 106v-106h-121q1 -10 1 -28q0 -96 -69 -157 q-2 -1 -3 -2q-62 -52 -151 -52q-90 1 -144 51q-56 53 -56 139q0 57 16 105q14 42 41 74l16 -16q-31 -45 -34 -98q1 -65 53 -103q48 -34 124 -34q110 0 153 70q5 9 8 17q-6 22 -10 34h-66q-48 1 -73 22q-31 27 -27 70l9 88q4 37 37 60q21 14 45 14q46 -1 77 -44 q28 -40 39 -104h135zM340 106h67q-17 59 -54 60q-14 0 -25.5 -8.5t-16.5 -17.5l-5 -8l5 -13q10 -12 29 -13z" />
<glyph unicode="&#x6aa;" horiz-adv-x="874" d="M651 292q89 -15 130 -68q50 -66 24 -164l-31 -115q-47 28 -100 42q-71 18 -182 18q-50 0 -272 -4q-81 -1 -88 -1h-149q-33 0 -48 30q-5 11 -5 23q0 33 30 48q11 5 23 5h153q11 0 65 1q124 1 179 1q259 0 337 -31q13 -5 27 -12q20 68 -51 105q-18 9 -40 15q-58 15 -263 12 q-32 -1 -48 -1q-170 0 -250 33q-79 34 -80 112q1 64 40 116q59 79 180 85q10 1 20 1h181l-30 -99q-52 -1 -68 -57h-3v57h-105q-88 0 -124 -23q-31 -21 -45 -61q48 -46 165 -54q51 -4 160 -4q202 0 268 -10z" />
<glyph unicode="&#x6aa;" horiz-adv-x="932" d="M877 106h55v-106h-47q-67 2 -91 53l-13 -53q-82 5 -270 5q-63 0 -372 -5h-156q-33 0 -48 30q-5 11 -5 23q0 34 31 47q11 5 22 5h160h64q123 -1 184 -1q35 0 354 -6q11 37 -9 63q-28 35 -100 35h-246q-199 0 -279 28q-91 33 -92 116q1 64 40 116q67 86 200 87h181l-30 -99 q-52 -1 -68 -57h-3v57h-105q-88 0 -124 -23q-31 -21 -45 -61q50 -53 233 -58h47q89 0 187 -3q69 -2 112 -2q88 0 134 -34q60 -46 37 -137q20 -20 62 -20z" />
<glyph unicode="&#x6aa;" horiz-adv-x="1084" d="M1029 106h55v-106h-47q-67 2 -91 53l-13 -53q-82 5 -270 5q-85 0 -462 -7l-58 -1l-73 126l112 -13q61 -5 113 -5h64q123 -1 183 -1q36 0 355 -6q13 45 -17 71q-30 27 -93 27h-246q-212 0 -292 33q-78 35 -79 111q1 64 40 116q67 86 201 87h180l-29 -99q-51 0 -67 -52 q-1 -3 -1 -5h-3v57h-105q-88 0 -124 -23q-31 -21 -45 -61q49 -53 232 -58h47q90 0 188 -3q69 -2 112 -2q110 -1 153 -52q36 -45 17 -119q20 -20 63 -20z" />
<glyph unicode="&#x6ab;" horiz-adv-x="351" d="M341 657l-25 -113q-22 -14 -85 -45q14 -15 14 -37v-31q0 -32 -31 -42q-8 -3 -15 -3q-29 0 -41 25q-5 9 -5 20v31v1q-79 -35 -101 -49q47 -36 93 -100q61 -87 62 -144q-1 -73 -29 -115q-37 -55 -119 -55h-76q-33 0 -48 30q-5 11 -5 23q0 33 30 48q11 5 23 5h43 q91 2 123 45q-31 73 -89 124q-9 8 -17 14v-34q-38 30 -46 57q-4 18 -4 53q0 50 3 70q5 37 65 73l10 6q45 25 129 66t141 77zM199 428q22 1 33 17q-1 33 -33 34q-32 -2 -33 -34q12 -16 33 -17z" />
<glyph unicode="&#x6ab;" horiz-adv-x="446" d="M381 106h65v-106h-72q-94 1 -150 85q-35 -71 -109 -83q-12 -2 -24 -2h-108q-33 0 -48 30q-5 11 -5 23q0 33 30 48q11 5 23 5h108q57 1 88 31q-60 97 -109 136v-18q-40 32 -47 61q-3 16 -3 46q0 59 4 73q10 40 53 67q9 6 22 13q34 19 134 67q82 39 135 75l-25 -113 q-9 -7 -85 -45q14 -15 14 -37v-31q0 -32 -31 -42q-8 -3 -15 -3q-29 0 -41 25q-5 9 -5 20v29q-59 -29 -102 -56q44 -35 89 -98q26 -36 70 -106q39 -62 73 -80q8 -4 14 -6q21 -8 57 -8zM226 479q-7 0 -10 -1l-12 -6q-11 -11 -11 -27q12 -16 33 -17q22 1 33 17q-1 33 -33 34z " />
<glyph unicode="&#x6ab;" horiz-adv-x="975" d="M910 106h65v-106h-72q-90 1 -142 73q-65 -62 -176 -82q-4 -1 -6 -1q-85 -13 -229 -13q-154 0 -226 63q-54 48 -54 121q0 68 34 130q11 20 22 30l16 -15q-23 -40 -24 -86q2 -77 83 -110q68 -25 192 -25q214 0 318 36q3 1 5 2q-67 103 -96 131q-11 11 -21 19v-18 q-38 30 -46 57q-4 18 -4 53q0 50 3 70q5 38 67 74q5 3 9 5q39 22 120 62q102 50 149 81l-25 -113q-29 -18 -87 -46q15 -14 15 -37v-31q0 -32 -31 -42q-8 -3 -15 -3q-29 0 -41 25q-5 9 -5 20v30q-72 -36 -101 -56q41 -34 80 -86q29 -39 79 -118q37 -58 65 -75q11 -7 22 -11 q21 -8 57 -8zM754 427q22 1 33 17q-1 33 -33 34q-32 -2 -33 -34q12 -16 33 -17z" />
<glyph unicode="&#x6b0;" horiz-adv-x="351" d="M277 668q-11 -8 -168 -89q-54 -28 -71 -39l-7 5l34 53l221 112zM341 657l-25 -113q-22 -14 -85 -45q14 -14 14 -36v-31q0 -32 -31 -42q-8 -3 -15 -3q-29 0 -41 25q-5 9 -5 20v31q-79 -35 -101 -49q47 -36 93 -100q61 -87 62 -144q-1 -73 -29 -115q-37 -55 -119 -55h-76 q-33 0 -48 30q-5 11 -5 23q0 33 30 48q11 5 23 5h43q91 2 123 45q-31 73 -89 124q-9 8 -17 14v-34q-38 30 -46 57q-4 18 -4 53q0 50 3 70q5 37 65 73l10 6q45 25 129 66t141 77zM199 480q-8 0 -12 -2l-7 -3h-1q-13 -11 -13 -29q12 -16 33 -17q22 1 33 17q-1 33 -33 34z" />
<glyph unicode="&#x6b0;" horiz-adv-x="446" d="M307 675q-11 -8 -168 -89q-54 -28 -71 -39l-7 5l34 53l221 112zM381 106h65v-106h-72q-94 1 -150 85q-35 -71 -109 -83q-12 -2 -24 -2h-108q-33 0 -48 30q-5 11 -5 23q0 33 30 48q11 5 23 5h108q57 1 88 31q-60 97 -109 136v-18q-40 32 -47 61q-3 16 -3 46q0 59 4 73 q10 40 53 67q9 6 22 13q34 19 134 67q82 39 135 75l-25 -113q-12 -8 -77 -41q15 -14 15 -37v-31q0 -32 -31 -42q-8 -3 -15 -3q-29 0 -41 25q-5 9 -5 20v30q-61 -30 -111 -61q44 -35 89 -98q26 -36 70 -106q39 -62 73 -80q8 -4 14 -6q21 -8 57 -8zM235 483q-5 0 -12 -2 q-1 -1 -5 -2q-3 -2 -4 -2q-12 -10 -12 -28q12 -16 33 -17q22 1 33 17q-1 33 -33 34z" />
<glyph unicode="&#x6b0;" horiz-adv-x="975" d="M825 664q-11 -8 -168 -89q-54 -28 -71 -39l-7 5l34 53l221 112zM910 106h65v-106h-72q-90 1 -142 73q-65 -62 -176 -82q-4 -1 -6 -1q-85 -13 -229 -13q-154 0 -226 63q-54 48 -54 121q0 68 34 130q11 20 22 30l16 -15q-23 -40 -24 -86q2 -77 83 -110q68 -25 192 -25 q214 0 318 36q3 1 5 2q-67 103 -96 131q-11 11 -21 19v-18q-38 30 -46 57q-4 18 -4 53q0 50 3 70q5 38 67 74q5 3 9 5q39 22 120 62q102 50 149 81l-25 -113q-22 -14 -88 -47q15 -13 15 -37v-31q0 -32 -31 -42q-8 -3 -15 -3q-29 0 -41 25q-5 9 -5 20v31q-69 -35 -100 -56 q41 -34 80 -86q29 -39 79 -118q37 -58 65 -75q11 -7 22 -11q21 -8 57 -8zM753 426q22 1 33 17q-1 33 -33 34q-32 -2 -33 -34q12 -16 33 -17z" />
<glyph unicode="&#x6bc;" horiz-adv-x="234" d="M56 381q-27 -37 -52 -61q-41 41 -64 54q42 47 53 62q39 -20 61 -52q1 -2 2 -3zM149 256q25 -46 25 -108v-31q-1 -46 -34 -78q-21 -21 -55 -31q6 -11 6 -26v-32q0 -34 -33 -45q-8 -2 -15 -2q-31 0 -43 26q-5 10 -5 21v32q0 10 3 18h-15q-34 0 -48 31q-5 11 -5 22 q0 35 31 48q11 5 22 5h56q48 0 76 13q12 6 20 12q-16 54 -75 84l29 106q39 -27 60 -65zM43 -53q23 1 34 17q-1 35 -34 36q-33 -2 -34 -36q12 -16 34 -17z" />
<glyph unicode="&#x6bc;" horiz-adv-x="276" d="M86 273q-27 -37 -52 -61q-41 41 -64 54q42 47 53 62q39 -20 61 -52q1 -2 2 -3zM233 106h43v-106h-47q-41 1 -67 21q-17 16 -25 34q-4 -16 -22 -31q-12 -10 -26 -15q6 -11 6 -27v-32q0 -34 -33 -45q-8 -2 -15 -2q-31 0 -43 26q-5 10 -5 21v32q0 10 3 18h-19q-33 0 -48 30 q-5 11 -5 23q0 33 30 48q11 5 23 5h68q41 1 64 21l6 6q3 3 5 6t4 7t3 6.5t2.5 6.5t1.5 6l2 6q1 4 1.5 5t1.5 4v4l15 -8q-2 -36 17 -53t59 -17zM47 -53q23 1 34 17q-1 35 -34 36q-33 -2 -34 -36q12 -16 34 -17z" />
<glyph unicode="&#x6bc;" horiz-adv-x="615" d="M615 106v-106h-113q1 -12 1 -33q-2 -98 -64 -152q-48 -40 -117 -50q3 -10 3 -20v-32q0 -34 -33 -45q-8 -2 -15 -2q-31 0 -43 26q-5 10 -5 21v32q0 11 3 20q-66 10 -105 47q-55 55 -57 136q0 60 17 109q13 42 40 74l16 -16q-33 -48 -33 -107q0 -52 50 -92q2 -2 4 -3 q46 -33 123 -33q53 0 87 12q73 24 95 83l-48 58q-35 45 -35 96l4 33l16 15q18 -41 41 -55q25 -14 60 -16h108zM319 60q-27 -37 -52 -61q-41 41 -64 54q42 47 53 62q39 -20 61 -52q1 -2 2 -3zM311 -273q-1 29 -25 35h-9h-9q-24 -7 -25 -35q12 -16 34 -17q23 1 34 17z" />
<glyph unicode="&#x6bf;" horiz-adv-x="589" d="M464 204h24l-52 -95h-37q-61 0 -186 -64l-12 -6q-42 -21 -75 -29q0 -39 -4 -51q-2 -6 -4 -10q-6 26 -21 56q-32 -5 -65 -5h-49q-33 0 -48 30q-5 11 -5 23q0 33 30 48q11 5 23 5h49l-32 47v33q1 44 30 74q33 32 83 32q40 0 128 -36q30 -11 45 -17q97 -35 178 -35zM85 106 q102 2 176 44l-63 28q-59 23 -96 23q-46 -1 -65 -35q30 -34 48 -60zM104 -116q42 47 53 62q31 -17 55 -44q27 29 37 44q40 -20 62 -52q1 -2 2 -3q-25 -33 -53 -61q-26 27 -51 46q-18 -23 -41 -46q-41 41 -64 54zM157 -223q42 48 53 63q44 -25 64 -56q-22 -30 -53 -61 q-38 39 -64 54zM81 705q39 -20 61 -52q1 -2 2 -3q-27 -37 -52 -61q-41 41 -64 54q42 47 53 62z" />
<glyph unicode="&#x6bf;" horiz-adv-x="637" d="M493 106h63v-106h-64q-83 0 -116 34q-12 13 -19 30q-14 33 -7 75q-27 -9 -46 -23q-6 -4 -19 -14q-43 -35 -78 -55q-81 -47 -164 -47h-60q-33 0 -48 30q-5 11 -5 22q0 34 30 49q12 5 23 5h58q56 0 106 15q26 8 68 29l42 22l-141 24h-1h-2q-21 3 -29 -11v-25l-11 -5 q-11 18 -26 28t-25 11l-10 2l20 50q4 10 9 19q9 17 64 26q11 2 19 2q29 0 89 -20q27 -9 49 -15q73 -19 163 -22l43 -1l-48 -89q-16 3 -34 0q13 -33 69 -38q17 -2 38 -2zM0 -117q42 47 53 62q31 -17 55 -44q27 29 37 44q40 -20 62 -52q1 -2 2 -3q-25 -33 -53 -61 q-26 27 -51 46q-18 -23 -41 -46q-41 41 -64 54zM53 -224q42 48 53 63q44 -25 64 -56q-22 -30 -53 -61q-38 39 -64 54zM71 705q39 -20 61 -52q1 -2 2 -3q-27 -37 -52 -61q-41 41 -64 54q42 47 53 62z" />
<glyph unicode="&#x6bf;" horiz-adv-x="719" d="M556 106h52v-106h-56q-74 1 -112 40q-34 37 -34 97q0 25 5 43q-36 -4 -76 -16q-75 -24 -133 -68q2 -14 1 -24t-3 -15l-2 -5l-10 22l-4 4q-51 -51 -60 -124q-1 -11 -1 -21q0 -90 82 -148l12 -8q74 -46 182 -46h95l-87 -101h-58q-133 1 -201 65q-66 62 -76 172q-2 17 -2 34 q1 127 82 213q-11 11 -29.5 26.5t-31.5 25.5l-13 10v47q1 42 23 71q33 40 83 41q32 0 115 -21q109 -27 161 -29h6l37 -1l-38 -100h-16q-4 -60 52 -73q22 -5 55 -5zM184 143q50 49 128 79h1l1 1q-25 3 -67 12q-48 10 -67 10q-49 -2 -64 -29q45 -35 68 -73zM213 -34 q42 47 53 62q31 -17 55 -44q27 29 37 44q40 -20 62 -52q1 -2 2 -3q-25 -33 -53 -61q-26 27 -51 46q-18 -23 -41 -46q-41 41 -64 54zM266 -141q42 48 53 63q44 -25 64 -56q-22 -30 -53 -61q-38 39 -64 54zM226 769q39 -20 61 -52q1 -2 2 -3q-27 -37 -52 -61q-41 41 -64 54 q42 47 53 62z" />
<glyph unicode="&#x6c2;" horiz-adv-x="450" d="M237 487q29 7 57 11l-15 -39q-91 -16 -154 -48l-7 5l28 42q4 2 19 7q11 4 14 5l-15 10q-13 15 -14 34q1 6 3 11q42 54 76 55q13 0 22.5 -9.5t12.5 -18.5l2 -10l-23 -21q-9 18 -24 19q-4 0 -9 -1.5t-9.5 -3.5t-8 -4t-6.5 -4l-3 -2q20 -30 54 -38zM450 106v-106h-160 q53 -44 54 -69q-1 -32 -19 -68q-23 -45 -54 -59q-9 -4 -17 -4q-13 0 -30 4q-52 12 -99 62q-11 12 -19 23q-28 41 -28 92l-37 -15v34h-57q-33 0 -48 30q-5 11 -5 22q0 34 30 49q12 5 23 5h52q37 25 86 80q29 33 49 64q29 47 22 71l-7 20l60 39l54 -188q7 -31 -21 -63 q-11 -13 -45 -39q35 16 65 16h151zM218 245q-30 -53 -90 -112q-16 -17 -29 -27q108 26 144 61zM298 -75q-14 22 -22 30q-24 24 -59 36q-26 9 -52 9q-30 0 -58 -8q36 -55 84 -77q32 -14 58 -14q7 0 13.5 1.5t10.5 3t9 5t7 4.5l5 6z" />
<glyph unicode="&#x6c2;" horiz-adv-x="404" d="M188 493q29 7 57 11l-15 -39q-91 -16 -154 -48l-7 5l28 42q4 2 19 7q11 4 14 5l-15 10q-13 15 -14 34q1 6 3 11q42 54 76 55q13 0 22.5 -9.5t11.5 -18.5l3 -10l-23 -21q-9 18 -24 19q-4 0 -9 -1.5t-9.5 -3.5t-8 -4t-6.5 -4l-3 -2q20 -30 54 -38zM357 106h47v-106h-52 q-81 0 -102 71q-2 7 -4 15q-11 52 -15 72l-32 -57l-71 -1q-27 0 -49 30q-9 12 -9 20v77q1 39 30 62q12 10 59 29q23 9 36 18q-3 37 32 67l10 8q43 -191 52 -230q9 -36 22 -54q17 -21 46 -21zM170 195q34 0 46 11l4 4l-16 80l-23 -31q-60 -10 -84 -50q9 -13 26 -14h47z" />
<glyph unicode="&#x6c3;" horiz-adv-x="411" d="M51 368q42 47 53 62q31 -17 55 -44q27 29 37 44q40 -20 62 -52q1 -2 2 -3q-25 -33 -53 -61q-26 27 -51 46q-18 -23 -41 -46q-41 41 -64 54zM373 106h38v-106h-38q-63 1 -95 36q-13 14 -26 58q-4 12 -7 19q-21 44 -60 43q-38 -1 -68 -37q-7 -8 -14 -21q11 -16 23 -29 q13 -13 67 -51q6 -4 10 -7q56 -48 58 -94v-80h-5q-11 31 -63 67q-14 10 -15 11q-53 38 -60 44q-28 25 -40 54q-6 14 -8 37v75q1 53 33 92q38 46 82 47q31 -1 50 -28q8 -11 22 -56q6 -20 14 -31q31 -43 102 -43z" />
<glyph unicode="&#x6c4;" horiz-adv-x="352" d="M247 106h105v-106h-100q-7 -112 -80 -165q-48 -32 -98 -32v-57h-3q-23 53 -71 51v105q32 0 60 5q-1 3 -1 8v25q0 33 30 39q4 1 8 1q30 0 37 -28q1 -6 1 -12v-7q38 25 55 67h-51q-55 1 -82 30q-22 26 -18 62l9 88q4 37 37 60q21 14 46 14q44 -1 76 -44q29 -40 40 -104z M108 106h67q-17 59 -55 60q-13 0 -24.5 -8.5t-16.5 -17.5l-5 -8l5 -13q10 -12 29 -13zM70 -74q7 -10 18 -13q24 8 36 14q-1 27 -27 28q-26 -2 -27 -29z" />
<glyph unicode="&#x6ca;" horiz-adv-x="352" d="M4 358q42 47 53 62q31 -17 55 -44q27 29 37 44q40 -20 62 -52q1 -2 2 -3q-25 -33 -53 -61q-26 27 -51 46q-18 -23 -41 -46q-41 41 -64 54zM352 106v-106h-100q-7 -112 -80 -165q-48 -32 -98 -32v-57h-3q-23 53 -71 51v105q87 3 131 29q41 25 59 69h-51q-55 1 -82 30 q-22 26 -18 62l9 88q4 37 37 60q21 14 46 14q44 -1 76 -44q29 -40 40 -104h105zM108 106h67q-17 59 -55 60q-13 0 -24.5 -8.5t-16.5 -17.5l-5 -8l5 -13q10 -12 29 -13z" />
<glyph unicode="&#x6cd;" horiz-adv-x="666" d="M666 106v-106h-118q15 -14 15 -43q0 -66 -90 -115q-14 -8 -28 -14q-68 -30 -137 -30q-101 1 -152 60q-49 57 -49 146q0 70 22 122q-31 -19 -59 -50v52l94 59l16 -16q-33 -43 -33 -104q1 -60 30 -97q46 -58 147 -58q126 1 182 54q-23 34 -80 34h-34l-11 21l26 85h259z" />
<glyph unicode="&#x6cf;" horiz-adv-x="352" d="M106 420q39 -20 61 -52q1 -2 2 -3q-27 -37 -52 -61q-41 41 -64 54q42 47 53 62zM352 106v-106h-100q-7 -112 -80 -165q-48 -32 -98 -32v-57h-3q-23 53 -71 51v105q87 3 131 29q41 25 59 69h-51q-55 1 -82 30q-22 26 -18 62l9 88q4 37 37 60q21 14 46 14q44 -1 76 -44 q29 -40 40 -104h105zM108 106h67q-17 59 -55 60q-13 0 -24.5 -8.5t-16.5 -17.5l-5 -8l5 -13q10 -12 29 -13z" />
<glyph unicode="&#x6ee;" horiz-adv-x="443" d="M261 396q-15 13 -32 43q-24 41 -24 66q-7 -34 -21 -63q-17 -32 -35 -46l-15 36q21 19 41 61q17 37 21 64h18q8 -35 25 -70q19 -40 37 -55zM422 106h21v-106h-26q-39 1 -75 24q-30 22 -48 53q-10 -38 -42 -60q-37 -25 -101 -25q-58 1 -83 29q-3 3 -5.5 6.5t-4 7t-3 7.5 t-2.5 7t-1.5 6.5t-1 6t-0.5 5.5v4v5v2l3 61q30 -41 96 -42q39 0 78 11q29 9 43 21q-18 41 -28 91q-9 48 -9 81l35 53q20 -110 49 -167q41 -80 105 -81z" />
<glyph unicode="&#x6fa;" horiz-adv-x="912" d="M547 432q30 32 53 62q38 -20 62 -52q1 -2 2 -3q-25 -33 -53 -61q-35 36 -64 54zM503 324q33 37 53 62q32 -18 56 -44l37 44q40 -21 62 -52q1 -2 2 -3q-25 -33 -53 -61q-30 32 -51 46q-14 -18 -42 -46q-38 39 -64 54zM879 106h33v-106h-29q-41 1 -67 22q-18 15 -32 45 q-4 -26 -22 -42q-23 -19 -60 -19q-36 1 -60 22q-18 19 -23 48q-9 -34 -41 -54q-32 -17 -77 -17q2 -28 2 -37q-2 -97 -64 -153q-64 -53 -163 -53q-97 1 -150 51q-54 54 -56 136q0 59 16 108q16 45 41 74l16 -16q-34 -46 -34 -106q1 -56 54 -95q47 -34 124 -34q49 0 86 12 q72 24 93 78q1 3 2 5q-26 31 -53 65q-29 39 -29 93q0 16 4 29l16 16q15 -37 36 -50q27 -16 63 -16q24 0 45 7q18 7 33 20q23 25 28 76l15 -8q2 -46 20 -69q21 -26 59 -26q35 1 53 29q15 28 15 74l14 -8q2 -38 18 -63q25 -37 74 -38zM623 -55q39 -20 61 -52q1 -2 2 -3 q-27 -37 -52 -61q-41 41 -64 54q42 47 53 62z" />
<glyph unicode="&#x6fb;" horiz-adv-x="990" d="M723 446q39 -20 61 -52q1 -2 2 -3q-27 -37 -52 -61q-41 41 -64 54q42 47 53 62zM907 106h83v-106h-87q-65 0 -89 49q-1 3 -2 5l-2 -2q-67 -61 -192 -62q-50 0 -116 10q1 -12 1 -32q-2 -99 -64 -153q-64 -53 -163 -53q-97 1 -150 51q-54 54 -56 136q0 59 17 108 q14 44 40 74l16 -16q-34 -46 -34 -106q1 -56 54 -95q47 -34 124 -34q48 0 87 12q71 24 92 78q1 3 2 5l-47 58q-35 45 -35 96l4 33l16 16q15 -41 41 -56q23 -13 67 -16q27 43 77 93q84 83 156 84q73 0 110 -56q13 -20 26 -51q-12 -39 -23 -61q17 -9 47 -9zM558 102h87 q125 0 161 41q2 2 3 4l-14 20q-7 8 -13 13q-25 19 -59 19q-59 -1 -115 -44q-14 -11 -26.5 -24.5t-17.5 -20.5zM653 -54q39 -20 61 -52q1 -2 2 -3q-27 -37 -52 -61q-41 41 -64 54q42 47 53 62z" />
<glyph unicode="&#x6fc;" horiz-adv-x="559" d="M299 448q39 -20 61 -52q1 -2 2 -3q-27 -37 -52 -61q-41 41 -64 54q42 47 53 62zM244 26q-50 -28 -79 -62q-34 -42 -34 -88q1 -69 79 -109q71 -36 190 -36h86l-88 -101h-48q-133 1 -200 55q-79 65 -80 177q1 77 41 134q36 50 95 85q29 17 66 34q-21 29 -41 44 q-32 21 -73 9l13 71q59 46 138 46q89 -1 147 -46l-14 -87q-12 -10 -46 -41q15 -5 56 -5h107v-106h-123q-91 0 -123 47q-4 5 -7 10q-43 -21 -62 -31zM388 197q-55 20 -107 14q35 -26 51 -55q35 21 56 41zM298 -55q39 -20 61 -52q1 -2 2 -3q-27 -37 -52 -61q-41 41 -64 54 q42 47 53 62z" />
<glyph unicode="&#x6ff;" horiz-adv-x="499" d="M220 443q-15 13 -32 43q-24 41 -24 66q-7 -34 -21 -63q-17 -32 -35 -46l-15 36q21 19 41 61q17 37 21 64h18q8 -35 25 -70q19 -40 37 -55zM-70 53q0 32 30 47q12 6 23 6h50q29 0 50 6q-25 29 -25 66q0 55 43 98q19 18 42 27q-9 14 -9 41v49q7 -17 96 -67q26 -14 34 -20 q50 -36 65 -52q17 -19 27 -40q16 -36 18 -79q4 -25 36 -28q7 -1 15 -1h74v-106h-47q-41 1 -67 21q-15 13 -25 31q-11 -24 -22 -36q-21 -25 -47 -26q-76 47 -105 56q-31 -26 -72 -37q-36 -9 -106 -9h-25q-33 0 -48 30q-5 11 -5 23zM94 209q8 -23 54 -46q10 -5 23 -11 q25 20 40 44q-7 37 -42 49q-9 3 -17 3q-34 -1 -58 -39zM234 119q43 -24 67 -35l14 6q15 13 19 38q-11 30 -40 59q-12 12 -53 43q-2 1 -3 2q25 -64 0 -106q-2 -4 -4 -7z" />
<glyph unicode="&#x6ff;" horiz-adv-x="613" d="M334 443q-15 13 -32 43q-24 41 -24 66q-7 -34 -21 -63q-17 -32 -35 -46l-15 36q21 19 41 61q17 37 21 64h18q8 -35 25 -70q19 -40 37 -55zM50 16q117 35 179 78q-41 21 -51 42q-6 16 -6 42q0 55 43 98q19 18 42 27q-9 14 -9 41v49q7 -17 96 -67q26 -14 34 -20 q50 -36 65 -52q17 -19 27 -40q14 -29 17 -64q0 -34 23 -41q12 -3 29 -3h74v-106h-47q-41 1 -67 21q-16 15 -24 32q-8 -19 -23 -37q-21 -25 -47 -26q-47 34 -100 64q-43 -47 -105 -62q-17 -4 -30 -4l-106 -1zM208 209q8 -23 54 -46q10 -5 23 -11q25 20 40 44q-7 37 -42 49 q-9 3 -17 3q-34 -1 -58 -39zM348 119q43 -24 67 -35l14 6q15 13 19 38q-11 30 -40 59q-12 12 -53 43q-2 1 -3 2q25 -64 0 -106q-2 -4 -4 -7z" />
<glyph unicode="&#x671;" horiz-adv-x="235" arabic-form="isolated" d="M103 731q-22 0 -52.5 2t-57.5 5.5t-41 5.5l7 51q9 -1 23 -3t31 -3q14 30 34.5 60t48 50.5t64.5 20.5q32 0 60.5 -20t28.5 -67q0 -24 -12 -47.5t-43.5 -39t-90.5 -15.5zM156 866q-25 0 -48 -23t-42 -59q21 -1 37 -1q57 0 74.5 13t17.5 32q0 20 -12 29t-27 9zM89 0l-17 644 h81l17 -644h-81z" />
<glyph unicode="&#x671;" horiz-adv-x="229" arabic-form="final" d="M112 751q19 -1 32 -11q6 -5 10 -12t5 -12l1 -4q-9 -30 -26 -45q-27 -22 -69 -22q-21 0 -37 2q-4 0 -10 2q-6 1 -9 1q-7 0 -10 -12q-2 -6 -2 -7l-11 7v47l3 11q3 3 6 3q5 -1 16 -6q18 -5 19 -5q12 20 31 39q30 23 51 24zM74 685q19 0 37 4q8 2 13.5 5t7.5 5l1 2l-6 9 q-3 2 -4 3q-8 7 -21 7q-21 -1 -36 -12q-7 -4 -12.5 -9.5t-7.5 -8.5l-3 -4q3 0 14 -1h17zM169 106h60v-106h-53q-58 1 -91 32q-36 37 -36 106q-1 104 -7 227q-5 77 -21 156q-1 5 -1 8q44 48 64 82h13l6 -156q4 -100 4 -133q0 -6 1 -29q2 -63 4 -91q5 -50 11 -65 q13 -30 46 -31z" />
<glyph unicode="&#x67b;" horiz-adv-x="993" arabic-form="isolated" d="M779 169q0 -20 -2 -41.5t-4 -33.5l-2 -11l-13 -13q-44 -34 -146 -61q-132 -34 -251 -34q-146 0 -222 54q-69 50 -69 132q0 67 35 131q11 19 21 29l16 -15q-24 -45 -24 -89q2 -74 84 -107q68 -25 199 -25q115 0 208 15q81 14 135 38q-13 63 -75 99l-5 3l28 106 q34 -23 56 -57q29 -48 31 -120zM441 -197q33 -23 49 -46q-25 -33 -53 -61q-38 39 -64 54q34 37 53 61q-28 27 -53 43q31 31 53 62q43 -25 64 -55q-19 -28 -49 -58z" />
<glyph unicode="&#x67b;" horiz-adv-x="893" arabic-form="final" d="M852 106h41v-106h-40q-76 0 -95 53q-5 12 -5 24q-56 -45 -152 -69q-132 -33 -253 -33q-162 0 -235 68q-53 48 -53 119q0 66 34 129q11 20 22 30l16 -15q-24 -45 -24 -89q2 -75 84 -106q73 -27 200 -27q119 0 231 21q56 11 97 27q44 19 69 43l9 -7q-3 -13 -3 -20 q1 -14 6 -23q13 -19 51 -19zM438 -198q33 -23 49 -46q-25 -33 -53 -61q-38 39 -64 54q34 37 53 61q-28 27 -53 43q31 31 53 62q43 -25 64 -55q-19 -28 -49 -58z" />
<glyph unicode="&#x67b;" horiz-adv-x="234" arabic-form="initial" d="M174 148v-31q-1 -46 -34 -78q-32 -31 -82 -38q-6 -1 -11 -1h-64q-34 0 -48 31q-5 11 -5 22q0 35 31 48q11 5 22 5h56q48 0 76 13q12 6 20 12q-16 54 -75 84l29 106q39 -27 60 -65q25 -46 25 -108zM42 -168q33 -23 49 -46q-25 -33 -53 -61q-38 39 -64 54q34 37 53 61 q-28 27 -53 43q31 31 53 62q43 -25 64 -55q-19 -28 -49 -58z" />
<glyph unicode="&#x67b;" horiz-adv-x="276" arabic-form="medial" d="M233 106h43v-106h-47q-41 1 -67 21q-17 16 -25 34q-4 -16 -22 -31q-29 -24 -83 -24h-49q-33 0 -48 30q-5 11 -5 23q0 33 30 48q11 5 23 5h68q41 1 64 21l6 6q3 3 5 6t4 7t3 6.5t2.5 6.5t1.5 6l2 6q1 4 1.5 5t1.5 4v4l15 -8q-2 -36 17 -53t59 -17zM25 -167q33 -23 49 -46 q-25 -33 -53 -61q-38 39 -64 54q34 37 53 61q-28 27 -53 43q31 31 53 62q43 -25 64 -55q-19 -28 -49 -58z" />
<glyph unicode="&#x67e;" horiz-adv-x="993" arabic-form="isolated" d="M779 169q0 -20 -2 -41.5t-4 -33.5l-2 -11l-13 -13q-44 -34 -146 -61q-132 -34 -251 -34q-146 0 -222 54q-69 50 -69 132q0 67 35 131q11 19 21 29l16 -15q-24 -45 -24 -89q2 -74 84 -107q68 -25 199 -25q115 0 208 15q81 14 135 38q-13 63 -75 99l-5 3l28 106 q34 -23 56 -57q29 -48 31 -120zM328 -146q42 47 53 62q31 -17 55 -44q27 29 37 44q40 -20 62 -52q1 -2 2 -3q-25 -33 -53 -61q-26 27 -51 46q-18 -23 -41 -46q-41 41 -64 54zM381 -253q42 48 53 63q44 -25 64 -56q-22 -30 -53 -61q-38 39 -64 54z" />
<glyph unicode="&#x67e;" horiz-adv-x="893" arabic-form="final" d="M852 106h41v-106h-40q-76 0 -95 53q-5 12 -5 24q-56 -45 -152 -69q-132 -33 -253 -33q-162 0 -235 68q-53 48 -53 119q0 66 34 129q11 20 22 30l16 -15q-24 -45 -24 -89q2 -75 84 -106q73 -27 200 -27q119 0 231 21q56 11 97 27q44 19 69 43l9 -7q-3 -13 -3 -20 q1 -14 6 -23q13 -19 51 -19zM325 -147q42 47 53 62q31 -17 55 -44q27 29 37 44q40 -20 62 -52q1 -2 2 -3q-25 -33 -53 -61q-26 27 -51 46q-18 -23 -41 -46q-41 41 -64 54zM378 -254q42 48 53 63q44 -25 64 -56q-22 -30 -53 -61q-38 39 -64 54z" />
<glyph unicode="&#x67e;" horiz-adv-x="234" arabic-form="initial" d="M174 148v-31q-1 -46 -34 -78q-32 -31 -82 -38q-6 -1 -11 -1h-64q-34 0 -48 31q-5 11 -5 22q0 35 31 48q11 5 22 5h56q48 0 76 13q12 6 20 12q-16 54 -75 84l29 106q39 -27 60 -65q25 -46 25 -108zM-71 -117q42 47 53 62q31 -17 55 -44q27 29 37 44q40 -20 62 -52 q1 -2 2 -3q-25 -33 -53 -61q-26 27 -51 46q-18 -23 -41 -46q-41 41 -64 54zM-18 -224q42 48 53 63q44 -25 64 -56q-22 -30 -53 -61q-38 39 -64 54z" />
<glyph unicode="&#x67e;" horiz-adv-x="276" arabic-form="medial" d="M233 106h43v-106h-47q-41 1 -67 21q-17 16 -25 34q-4 -16 -22 -31q-29 -24 -83 -24h-49q-33 0 -48 30q-5 11 -5 23q0 33 30 48q11 5 23 5h68q41 1 64 21l6 6q3 3 5 6t4 7t3 6.5t2.5 6.5t1.5 6l2 6q1 4 1.5 5t1.5 4v4l15 -8q-2 -36 17 -53t59 -17zM-88 -116q42 47 53 62 q31 -17 55 -44q27 29 37 44q40 -20 62 -52q1 -2 2 -3q-25 -33 -53 -61q-26 27 -51 46q-18 -23 -41 -46q-41 41 -64 54zM-35 -223q42 48 53 63q44 -25 64 -56q-22 -30 -53 -61q-38 39 -64 54z" />
<glyph unicode="&#x680;" horiz-adv-x="993" arabic-form="isolated" d="M779 169q0 -20 -2 -41.5t-4 -33.5l-2 -11l-13 -13q-44 -34 -146 -61q-132 -34 -251 -34q-146 0 -222 54q-69 50 -69 132q0 67 35 131q11 19 21 29l16 -15q-24 -45 -24 -89q2 -74 84 -107q68 -25 199 -25q115 0 208 15q81 14 135 38q-13 63 -75 99l-5 3l28 106 q34 -23 56 -57q29 -48 31 -120zM327 -250q33 37 53 62q-29 28 -53 42q33 37 53 62q32 -18 56 -44l37 44q40 -21 62 -52q1 -2 2 -3q-21 -29 -50 -57q34 -23 50 -47q-25 -33 -53 -61q-30 32 -51 46q-14 -18 -42 -46q-38 39 -64 54zM394 -196q25 -16 42 -36l37 44 q-30 28 -40 34q-10 -13 -39 -42z" />
<glyph unicode="&#x680;" horiz-adv-x="893" arabic-form="final" d="M852 106h41v-106h-40q-76 0 -95 53q-5 12 -5 24q-56 -45 -152 -69q-132 -33 -253 -33q-162 0 -235 68q-53 48 -53 119q0 66 34 129q11 20 22 30l16 -15q-24 -45 -24 -89q2 -75 84 -106q73 -27 200 -27q119 0 231 21q56 11 97 27q44 19 69 43l9 -7q-3 -13 -3 -20 q1 -14 6 -23q13 -19 51 -19zM324 -251q33 37 53 62q-29 28 -53 42q33 37 53 62q32 -18 56 -44l37 44q40 -21 62 -52q1 -2 2 -3q-21 -29 -50 -57q34 -23 50 -47q-25 -33 -53 -61q-30 32 -51 46q-14 -18 -42 -46q-38 39 -64 54zM391 -197q25 -16 42 -36l37 44q-30 28 -40 34 q-10 -13 -39 -42z" />
<glyph unicode="&#x680;" horiz-adv-x="234" arabic-form="initial" d="M174 148v-31q-1 -46 -34 -78q-32 -31 -82 -38q-6 -1 -11 -1h-64q-34 0 -48 31q-5 11 -5 22q0 35 31 48q11 5 22 5h56q48 0 76 13q12 6 20 12q-16 54 -75 84l29 106q39 -27 60 -65q25 -46 25 -108zM-72 -221q33 37 53 62q-29 28 -53 42q33 37 53 62q32 -18 56 -44l37 44 q40 -21 62 -52q1 -2 2 -3q-21 -29 -50 -57q34 -23 50 -47q-25 -33 -53 -61q-30 32 -51 46q-14 -18 -42 -46q-38 39 -64 54zM-5 -167q25 -16 42 -36l37 44q-30 28 -40 34q-10 -13 -39 -42z" />
<glyph unicode="&#x680;" horiz-adv-x="276" arabic-form="medial" d="M233 106h43v-106h-47q-41 1 -67 21q-17 16 -25 34q-4 -16 -22 -31q-29 -24 -83 -24h-49q-33 0 -48 30q-5 11 -5 23q0 33 30 48q11 5 23 5h68q41 1 64 21l6 6q3 3 5 6t4 7t3 6.5t2.5 6.5t1.5 6l2 6q1 4 1.5 5t1.5 4v4l15 -8q-2 -36 17 -53t59 -17zM-89 -220q33 37 53 62 q-29 28 -53 42q33 37 53 62q32 -18 56 -44l37 44q40 -21 62 -52q1 -2 2 -3q-21 -29 -50 -57q34 -23 50 -47q-25 -33 -53 -61q-30 32 -51 46q-14 -18 -42 -46q-38 39 -64 54zM-22 -166q25 -16 42 -36l37 44q-30 28 -40 34q-10 -13 -39 -42z" />
<glyph unicode="&#x67a;" horiz-adv-x="993" arabic-form="isolated" d="M430 346q33 -23 49 -46q-25 -33 -53 -61q-38 39 -64 54q34 37 53 61q-28 27 -53 43q31 31 53 62q43 -25 64 -55q-19 -28 -49 -58zM779 169q0 -20 -2 -41.5t-4 -33.5l-2 -11l-13 -13q-44 -34 -146 -61q-132 -34 -251 -34q-146 0 -222 54q-69 50 -69 132q0 67 35 131 q11 19 21 29l16 -15q-24 -45 -24 -89q2 -74 84 -107q68 -25 199 -25q115 0 208 15q81 14 135 38q-13 63 -75 99l-5 3l28 106q34 -23 56 -57q29 -48 31 -120z" />
<glyph unicode="&#x67a;" horiz-adv-x="893" arabic-form="final" d="M452 346q33 -23 49 -46q-25 -33 -53 -61q-38 39 -64 54q34 37 53 61q-28 27 -53 43q31 31 53 62q43 -25 64 -55q-19 -28 -49 -58zM852 106h41v-106h-40q-76 0 -95 53q-5 12 -5 24q-56 -45 -152 -69q-132 -33 -253 -33q-162 0 -235 68q-53 48 -53 119q0 66 34 129 q11 20 22 30l16 -15q-24 -45 -24 -89q2 -75 84 -106q73 -27 200 -27q119 0 231 21q56 11 97 27q44 19 69 43l9 -7q-3 -13 -3 -20q1 -14 6 -23q13 -19 51 -19z" />
<glyph unicode="&#x67a;" horiz-adv-x="234" arabic-form="initial" d="M8 427q33 -23 49 -46q-25 -33 -53 -61q-38 39 -64 54q34 37 53 61q-28 27 -53 43q31 31 53 62q43 -25 64 -55q-19 -28 -49 -58zM174 148v-31q-1 -46 -34 -78q-32 -31 -82 -38q-6 -1 -11 -1h-64q-34 0 -48 31q-5 11 -5 22q0 35 31 48q11 5 22 5h56q48 0 76 13q12 6 20 12 q-16 54 -75 84l29 106q39 -27 60 -65q25 -46 25 -108z" />
<glyph unicode="&#x67a;" horiz-adv-x="276" arabic-form="medial" d="M38 319q33 -23 49 -46q-25 -33 -53 -61q-38 39 -64 54q34 37 53 61q-28 27 -53 43q31 31 53 62q43 -25 64 -55q-19 -28 -49 -58zM233 106h43v-106h-47q-41 1 -67 21q-17 16 -25 34q-4 -16 -22 -31q-29 -24 -83 -24h-49q-33 0 -48 30q-5 11 -5 23q0 33 30 48q11 5 23 5h68 q41 1 64 21l6 6q3 3 5 6t4 7t3 6.5t2.5 6.5t1.5 6l2 6q1 4 1.5 5t1.5 4v4l15 -8q-2 -36 17 -53t59 -17z" />
<glyph unicode="&#x67f;" horiz-adv-x="993" arabic-form="isolated" d="M315 293q42 47 53 62q-32 30 -53 42q33 37 53 62q32 -18 56 -44l37 44q40 -21 62 -52q1 -2 2 -3q-23 -32 -50 -58q32 -20 50 -46q-25 -33 -53 -61q-30 32 -51 46q-14 -18 -42 -46q-38 39 -64 54zM382 346q23 -15 42 -35l37 44q-27 25 -40 34q-8 -10 -39 -43zM779 169 q0 -20 -2 -41.5t-4 -33.5l-2 -11l-13 -13q-44 -34 -146 -61q-132 -34 -251 -34q-146 0 -222 54q-69 50 -69 132q0 67 35 131q11 19 21 29l16 -15q-24 -45 -24 -89q2 -74 84 -107q68 -25 199 -25q115 0 208 15q81 14 135 38q-13 63 -75 99l-5 3l28 106q34 -23 56 -57 q29 -48 31 -120z" />
<glyph unicode="&#x67f;" horiz-adv-x="893" arabic-form="final" d="M337 293q42 47 53 62q-32 30 -53 42q33 37 53 62q32 -18 56 -44l37 44q40 -21 62 -52q1 -2 2 -3q-23 -32 -50 -58q32 -20 50 -46q-25 -33 -53 -61q-30 32 -51 46q-14 -18 -42 -46q-38 39 -64 54zM404 346q23 -15 42 -35l37 44q-27 25 -40 34q-8 -10 -39 -43zM852 106h41 v-106h-40q-76 0 -95 53q-5 12 -5 24q-56 -45 -152 -69q-132 -33 -253 -33q-162 0 -235 68q-53 48 -53 119q0 66 34 129q11 20 22 30l16 -15q-24 -45 -24 -89q2 -75 84 -106q73 -27 200 -27q119 0 231 21q56 11 97 27q44 19 69 43l9 -7q-3 -13 -3 -20q1 -14 6 -23 q13 -19 51 -19z" />
<glyph unicode="&#x67f;" horiz-adv-x="234" arabic-form="initial" d="M-107 374q42 47 53 62q-32 30 -53 42q33 37 53 62q32 -18 56 -44l37 44q40 -21 62 -52q1 -2 2 -3q-23 -32 -50 -58q32 -20 50 -46q-25 -33 -53 -61q-30 32 -51 46q-14 -18 -42 -46q-38 39 -64 54zM-40 427q23 -15 42 -35l37 44q-27 25 -40 34q-8 -10 -39 -43zM174 148 v-31q-1 -46 -34 -78q-32 -31 -82 -38q-6 -1 -11 -1h-64q-34 0 -48 31q-5 11 -5 22q0 35 31 48q11 5 22 5h56q48 0 76 13q12 6 20 12q-16 54 -75 84l29 106q39 -27 60 -65q25 -46 25 -108z" />
<glyph unicode="&#x67f;" horiz-adv-x="276" arabic-form="medial" d="M-77 266q42 47 53 62q-32 30 -53 42q33 37 53 62q32 -18 56 -44l37 44q40 -21 62 -52q1 -2 2 -3q-23 -32 -50 -58q32 -20 50 -46q-25 -33 -53 -61q-30 32 -51 46q-14 -18 -42 -46q-38 39 -64 54zM-10 319q23 -15 42 -35l37 44q-27 25 -40 34q-8 -10 -39 -43zM233 106h43 v-106h-47q-41 1 -67 21q-17 16 -25 34q-4 -16 -22 -31q-29 -24 -83 -24h-49q-33 0 -48 30q-5 11 -5 23q0 33 30 48q11 5 23 5h68q41 1 64 21l6 6q3 3 5 6t4 7t3 6.5t2.5 6.5t1.5 6l2 6q1 4 1.5 5t1.5 4v4l15 -8q-2 -36 17 -53t59 -17z" />
<glyph unicode="&#x679;" horiz-adv-x="993" arabic-form="isolated" d="M331 276q1 0 36 -2l22 1q10 15 15 20q0 41 -4 67q-6 34 -15 54l-5 5q0 1 2 18q5 14 16 15q8 -17 21 -28q-9 -8 -6 -21q7 -32 9 -45q3 -28 -4 -49q27 23 48 23q18 -1 31 -13q8 -10 13 -23q-1 -1 -2 -5q-4 -12 -8 -19q-9 -13 -22 -21q-19 -13 -54 -13l-71 -1zM779 169 q0 -20 -2 -41.5t-4 -33.5l-2 -11l-13 -13q-44 -34 -146 -61q-132 -34 -251 -34q-146 0 -222 54q-69 50 -69 132q0 67 35 131q11 19 21 29l16 -15q-24 -45 -24 -89q2 -74 84 -107q68 -25 199 -25q115 0 208 15q81 14 135 38q-13 63 -75 99l-5 3l28 106q34 -23 56 -57 q29 -48 31 -120zM398 271h35q43 1 64 18l-10 12q-9 8 -24 8q-24 -1 -45 -17q-12 -10 -20 -21z" />
<glyph unicode="&#x679;" horiz-adv-x="893" arabic-form="final" d="M353 276q1 0 36 -2l22 1q10 15 15 20q0 41 -4 67q-6 34 -15 54l-5 5q0 1 2 18q5 14 16 15q8 -17 21 -28q-9 -8 -6 -21q7 -32 9 -45q3 -28 -4 -49q27 23 48 23q18 -1 31 -13q8 -10 13 -23q-1 -1 -2 -5q-4 -12 -8 -19q-9 -13 -22 -21q-19 -13 -54 -13l-71 -1zM852 106h41 v-106h-40q-76 0 -95 53q-5 12 -5 24q-56 -45 -152 -69q-132 -33 -253 -33q-162 0 -235 68q-53 48 -53 119q0 66 34 129q11 20 22 30l16 -15q-24 -45 -24 -89q2 -75 84 -106q73 -27 200 -27q119 0 231 21q56 11 97 27q44 19 69 43l9 -7q-3 -13 -3 -20q1 -14 6 -23 q13 -19 51 -19zM420 271h35q43 1 64 18l-10 12q-9 8 -24 8q-24 -1 -45 -17q-12 -10 -20 -21z" />
<glyph unicode="&#x679;" horiz-adv-x="234" arabic-form="initial" d="M-91 357q1 0 36 -2l22 1q10 15 15 20q0 41 -4 67q-6 34 -15 54l-5 5q0 1 2 18q5 14 16 15q8 -17 21 -28q-9 -8 -6 -21q7 -32 9 -45q3 -28 -4 -49q27 23 48 23q18 -1 31 -13q8 -10 13 -23q-1 -1 -2 -5q-4 -12 -8 -19q-9 -13 -22 -21q-19 -13 -54 -13l-71 -1zM-24 352h35 q43 1 64 18l-10 12q-9 8 -24 8q-24 -1 -45 -17q-12 -10 -20 -21zM174 148v-31q-1 -46 -34 -78q-32 -31 -82 -38q-6 -1 -11 -1h-64q-34 0 -48 31q-5 11 -5 22q0 35 31 48q11 5 22 5h56q48 0 76 13q12 6 20 12q-16 54 -75 84l29 106q39 -27 60 -65q25 -46 25 -108z" />
<glyph unicode="&#x679;" horiz-adv-x="276" arabic-form="medial" d="M-61 249q1 0 36 -2l22 1q10 15 15 20q0 41 -4 67q-6 34 -15 54l-5 5q0 1 2 18q5 14 16 15q8 -17 21 -28q-9 -8 -6 -21q7 -32 9 -45q3 -28 -4 -49q27 23 48 23q18 -1 31 -13q8 -10 13 -23q-1 -1 -2 -5q-4 -12 -8 -19q-9 -13 -22 -21q-19 -13 -54 -13l-71 -1zM6 244h35 q43 1 64 18l-10 12q-9 8 -24 8q-24 -1 -45 -17q-12 -10 -20 -21zM233 106h43v-106h-47q-41 1 -67 21q-17 16 -25 34q-4 -16 -22 -31q-29 -24 -83 -24h-49q-33 0 -48 30q-5 11 -5 23q0 33 30 48q11 5 23 5h68q41 1 64 21l6 6q3 3 5 6t4 7t3 6.5t2.5 6.5t2.5 6l1 6q1 4 1.5 5 t1.5 4v4l15 -8q-2 -36 17 -53t59 -17z" />
<glyph unicode="&#x6a4;" horiz-adv-x="983" arabic-form="isolated" d="M664 554q30 32 53 62q38 -20 62 -52q1 -2 2 -3q-25 -33 -53 -61q-35 36 -64 54zM620 446q33 37 53 62q32 -18 56 -44l37 44q40 -21 62 -52q1 -2 2 -3q-25 -33 -53 -61q-30 32 -51 46q-14 -18 -42 -46q-38 39 -64 54zM860 218q0 -28 -8 -55t-16 -41l-8 -13q2 -22 1 -39 t-3 -28l-2 -10q-5 31 -19 52q-79 -58 -193 -84q-107 -24 -218 -24q-157 0 -240 56q-83 59 -84 159q0 76 36 138q10 18 20 27l16 -15q-24 -43 -24 -91q2 -83 65 -122q78 -45 242 -45q106 0 209 21q81 17 128 39q-20 23 -52 35q-14 5 -31 9t-27 5l-10 1v71q0 67 57 87 q18 6 39 6q67 -1 98 -49q24 -37 24 -90zM758 268q-27 -1 -54 -20q37 -9 63 -28q30 -22 43 -51q10 20 10 40q-1 28 -20 45q-16 14 -42 14z" />
<glyph unicode="&#x6a4;" horiz-adv-x="983" arabic-form="final" d="M680 518q30 32 53 62q38 -20 62 -52q1 -2 2 -3q-25 -33 -53 -61q-35 36 -64 54zM636 410q33 37 53 62q32 -18 56 -44l37 44q40 -21 62 -52q1 -2 2 -3q-25 -33 -53 -61q-30 32 -51 46q-14 -18 -42 -46q-38 39 -64 54zM875 106h108v-106h-109q-82 1 -140 42 q-54 -26 -121 -42q-99 -23 -217 -23q-160 1 -242 56q-83 59 -84 159q0 77 38 141q9 15 18 24l16 -16q-24 -46 -24 -91q1 -81 65 -121q72 -44 239 -44q127 0 213 19q12 2 36 9q-8 24 -8 39l-1 27q-1 70 38 110q33 31 72 32q68 -1 68 -113l-1 -41q0 -17 -4.5 -31.5t-9.5 -20.5 l-5 -6q20 -3 55 -3zM729 131q61 24 87 67l-21 12q-17 7 -35 7q-48 -1 -78 -44l15 -20q15 -16 32 -22z" />
<glyph unicode="&#x6a4;" horiz-adv-x="273" arabic-form="initial" d="M37 521q30 32 53 62q38 -20 62 -52q1 -2 2 -3q-25 -33 -53 -61q-35 36 -64 54zM-7 413q33 37 53 62q32 -18 56 -44l37 44q40 -21 62 -52q1 -2 2 -3q-25 -33 -53 -61q-30 32 -51 46q-14 -18 -42 -46q-38 39 -64 54zM213 186q-1 -60 -28 -109q2 -22 1 -39t-4 -28l-2 -10 q-3 30 -15 50q-38 -43 -111 -49q-8 -1 -14 -1h-57q-33 0 -48 30q-5 11 -5 23q0 33 30 48q11 5 23 5h71l61 5q-16 21 -52 35q-12 5 -29 8.5t-28 5.5l-11 1v71q0 67 57 87q18 6 39 6q54 -1 86 -34q36 -38 36 -105zM167 137q6 13 6 35q-1 26 -15 44q-18 20 -47 20 q-29 -1 -54 -20q38 -7 68 -29q29 -23 42 -50z" />
<glyph unicode="&#x6a4;" horiz-adv-x="376" arabic-form="medial" d="M94 516q30 32 53 62q38 -20 62 -52q1 -2 2 -3q-25 -33 -53 -61q-35 36 -64 54zM50 408q33 37 53 62q32 -18 56 -44l37 44q40 -21 62 -52q1 -2 2 -3q-25 -33 -53 -61q-30 32 -51 46q-14 -18 -42 -46q-38 39 -64 54zM288 106h88v-106h-88q-79 1 -132 36q-24 -24 -86 -33 q-18 -3 -34 -3h-53q-33 0 -48 30q-5 11 -5 23q0 33 30 48q11 5 23 5h60q33 0 42 5q-9 23 -9 41v27q0 64 27 97q5 7 11 13q33 32 71 32q66 0 68 -107v-12v-35q0 -17 -5 -31.5t-10 -20.5l-5 -6q17 -3 55 -3zM142 131q62 25 88 67l-22 12q-18 7 -35 7q-47 -1 -78 -44l15 -20 q15 -16 32 -22z" />
<glyph unicode="&#x6a6;" horiz-adv-x="983" arabic-form="isolated" d="M620 446q42 47 53 62q-32 30 -53 42q33 37 53 62q32 -18 56 -44l37 44q40 -21 62 -52q1 -2 2 -3q-23 -32 -50 -58q32 -20 50 -46q-25 -33 -53 -61q-30 32 -51 46q-14 -18 -42 -46q-38 39 -64 54zM687 499q23 -15 42 -35l37 44q-27 25 -40 34q-8 -10 -39 -43zM860 218 q0 -28 -8 -55t-16 -41l-8 -13q2 -22 1 -39t-3 -28l-2 -10q-5 31 -19 52q-79 -58 -193 -84q-107 -24 -218 -24q-157 0 -240 56q-83 59 -84 159q0 76 36 138q10 18 20 27l16 -15q-24 -43 -24 -91q2 -83 65 -122q78 -45 242 -45q106 0 209 21q81 17 128 39q-20 23 -52 35 q-14 5 -31 9t-27 5l-10 1v71q0 67 57 87q18 6 39 6q67 -1 98 -49q24 -37 24 -90zM758 268q-27 -1 -54 -20q37 -9 63 -28q30 -22 43 -51q10 20 10 40q-1 28 -20 45q-16 14 -42 14z" />
<glyph unicode="&#x6a6;" horiz-adv-x="983" arabic-form="final" d="M636 410q42 47 53 62q-32 30 -53 42q33 37 53 62q32 -18 56 -44l37 44q40 -21 62 -52q1 -2 2 -3q-23 -32 -50 -58q32 -20 50 -46q-25 -33 -53 -61q-30 32 -51 46q-14 -18 -42 -46q-38 39 -64 54zM703 463q23 -15 42 -35l37 44q-27 25 -40 34q-8 -10 -39 -43zM875 106h108 v-106h-109q-82 1 -140 42q-54 -26 -121 -42q-99 -23 -217 -23q-160 1 -242 56q-83 59 -84 159q0 77 38 141q9 15 18 24l16 -16q-24 -46 -24 -91q1 -81 65 -121q72 -44 239 -44q127 0 213 19q12 2 36 9q-8 24 -8 39l-1 27q-1 70 38 110q33 31 72 32q68 -1 68 -113l-1 -41 q0 -17 -4.5 -31.5t-9.5 -20.5l-5 -6q20 -3 55 -3zM729 131q61 24 87 67l-21 12q-17 7 -35 7q-48 -1 -78 -44l15 -20q15 -16 32 -22z" />
<glyph unicode="&#x6a6;" horiz-adv-x="273" arabic-form="initial" d="M-7 413q42 47 53 62q-32 30 -53 42q33 37 53 62q32 -18 56 -44l37 44q40 -21 62 -52q1 -2 2 -3q-23 -32 -50 -58q32 -20 50 -46q-25 -33 -53 -61q-30 32 -51 46q-14 -18 -42 -46q-38 39 -64 54zM60 466q23 -15 42 -35l37 44q-27 25 -40 34q-8 -10 -39 -43zM213 186 q-1 -60 -28 -109q2 -22 1 -39t-4 -28l-2 -10q-3 30 -15 50q-38 -43 -111 -49q-8 -1 -14 -1h-57q-33 0 -48 30q-5 11 -5 23q0 33 30 48q11 5 23 5h71l61 5q-16 21 -52 35q-12 5 -29 8.5t-28 5.5l-11 1v71q0 67 57 87q18 6 39 6q54 -1 86 -34q36 -38 36 -105zM167 137 q6 13 6 35q-1 26 -15 44q-18 20 -47 20q-29 -1 -54 -20q38 -7 68 -29q29 -23 42 -50z" />
<glyph unicode="&#x6a6;" horiz-adv-x="376" arabic-form="medial" d="M50 408q42 47 53 62q-32 30 -53 42q33 37 53 62q32 -18 56 -44l37 44q40 -21 62 -52q1 -2 2 -3q-23 -32 -50 -58q32 -20 50 -46q-25 -33 -53 -61q-30 32 -51 46q-14 -18 -42 -46q-38 39 -64 54zM117 461q23 -15 42 -35l37 44q-27 25 -40 34q-8 -10 -39 -43zM288 106h88 v-106h-88q-79 1 -132 36q-24 -24 -86 -33q-18 -3 -34 -3h-53q-33 0 -48 30q-5 11 -5 23q0 33 30 48q11 5 23 5h60q33 0 42 5q-9 23 -9 41v27q0 64 27 97q5 7 11 13q33 32 71 32q66 0 68 -107v-12v-35q0 -17 -5 -31.5t-10 -20.5l-5 -6q17 -3 55 -3zM142 131q62 25 88 67 l-22 12q-18 7 -35 7q-47 -1 -78 -44l15 -20q15 -16 32 -22z" />
<glyph unicode="&#x684;" horiz-adv-x="639" arabic-form="isolated" d="M399 -269h96l-88 -101l-58 1q-132 2 -197 61l-3 3q-75 72 -79 195v11q1 129 82 213q-10 11 -28.5 26.5t-31.5 25.5l-14 10v47q1 41 24 71q33 40 82 41q32 0 115 -21q109 -27 161 -29h6l37 -1l-38 -100l-55 -4q-40 -5 -75 -16q-74 -23 -133 -68q2 -14 1 -24t-3 -15l-2 -5 l-10 22l-4 4q-51 -51 -59 -124q-1 -11 -1 -21q0 -94 88 -152q3 -3 5 -4q74 -46 182 -46zM117 216q45 -35 67 -73q55 51 131 80q-26 3 -68 12q-48 10 -67 10q-47 0 -62 -26q-1 -2 -1 -3zM341 -52q33 -23 49 -46q-25 -33 -53 -61q-38 39 -64 54q34 37 53 61q-28 27 -53 43 q31 31 53 62q43 -25 64 -55q-19 -28 -49 -58z" />
<glyph unicode="&#x684;" horiz-adv-x="608" arabic-form="final" d="M556 106h52v-106h-56q-74 1 -112 40q-34 37 -34 97q0 25 5 43q-36 -4 -76 -16q-75 -24 -133 -68q2 -14 1 -24t-3 -15l-2 -5l-10 22l-4 4q-51 -51 -60 -124q-1 -11 -1 -21q0 -90 82 -148l12 -8q74 -46 182 -46h95l-87 -101h-58q-133 1 -201 65q-66 62 -76 172q-2 17 -2 34 q1 127 82 213q-11 11 -29.5 26.5t-31.5 25.5l-13 10v47q1 42 23 71q33 40 83 41q32 0 115 -21q109 -27 161 -29h6l37 -1l-38 -100h-16q-4 -60 52 -73q22 -5 55 -5zM184 143q50 49 128 79h1l1 1q-25 3 -67 12q-48 10 -67 10q-49 -2 -64 -29q45 -35 68 -73zM337 -72 q33 -23 49 -46q-25 -33 -53 -61q-38 39 -64 54q34 37 53 61q-28 27 -53 43q31 31 53 62q43 -25 64 -55q-19 -28 -49 -58z" />
<glyph unicode="&#x684;" horiz-adv-x="548" arabic-form="initial" d="M464 204h24l-52 -95h-37q-61 0 -186 -64l-12 -6q-42 -21 -75 -29q0 -39 -4 -51q-2 -6 -4 -10q-6 26 -21 56q-32 -5 -65 -5h-49q-33 0 -48 30q-5 11 -5 23q0 33 30 48q11 5 23 5h49l-32 47v33q1 44 30 74q33 32 83 32q40 0 128 -36q30 -11 45 -17q97 -35 178 -35zM85 106 q102 2 176 44l-63 28q-59 23 -96 23q-46 -1 -65 -35q30 -34 48 -60zM217 -167q33 -23 49 -46q-25 -33 -53 -61q-38 39 -64 54q34 37 53 61q-28 27 -53 43q31 31 53 62q43 -25 64 -55q-19 -28 -49 -58z" />
<glyph unicode="&#x684;" horiz-adv-x="556" arabic-form="medial" d="M493 106h63v-106h-64q-83 0 -116 34q-12 13 -19 30q-14 33 -7 75q-27 -9 -46 -23q-6 -4 -19 -14q-43 -35 -78 -55q-81 -47 -164 -47h-60q-33 0 -48 30q-5 11 -5 22q0 34 30 49q12 5 23 5h58q56 0 106 15q26 8 68 29l42 22l-141 24h-1h-2q-21 3 -29 -11v-25l-11 -5 q-11 18 -26 28t-25 11l-10 2l20 50q4 10 9 19q9 17 64 26q11 2 19 2q29 0 89 -20q27 -9 49 -15q73 -19 163 -22l43 -1l-48 -89q-16 3 -34 0q13 -33 69 -38q17 -2 38 -2zM113 -168q33 -23 49 -46q-25 -33 -53 -61q-38 39 -64 54q34 37 53 61q-28 27 -53 43q31 31 53 62 q43 -25 64 -55q-19 -28 -49 -58z" />
<glyph unicode="&#x683;" horiz-adv-x="659" arabic-form="isolated" d="M399 -269h96l-88 -101l-58 1q-132 2 -197 61l-3 3q-75 72 -79 195v11q1 129 82 213q-10 11 -28.5 26.5t-31.5 25.5l-14 10v47q1 41 24 71q33 40 82 41q32 0 115 -21q109 -27 161 -29h6l37 -1l-38 -100l-55 -4q-40 -5 -75 -16q-74 -23 -133 -68q2 -14 1 -24t-3 -15l-2 -5 l-10 22l-4 4q-51 -51 -59 -124q-1 -11 -1 -21q0 -94 88 -152q3 -3 5 -4q74 -46 182 -46zM117 216q45 -35 67 -73q55 51 131 80q-26 3 -68 12q-48 10 -67 10q-47 0 -62 -26q-1 -2 -1 -3zM227 -57q42 47 53 62q31 -17 55 -44q27 29 37 44q40 -20 62 -52q1 -2 2 -3 q-25 -33 -53 -61q-26 27 -51 46q-18 -23 -41 -46q-41 41 -64 54z" />
<glyph unicode="&#x683;" horiz-adv-x="608" arabic-form="final" d="M556 106h52v-106h-56q-74 1 -112 40q-34 37 -34 97q0 25 5 43q-36 -4 -76 -16q-75 -24 -133 -68q2 -14 1 -24t-3 -15l-2 -5l-10 22l-4 4q-51 -51 -60 -124q-1 -11 -1 -21q0 -90 82 -148l12 -8q74 -46 182 -46h95l-87 -101h-58q-133 1 -201 65q-66 62 -76 172q-2 17 -2 34 q1 127 82 213q-11 11 -29.5 26.5t-31.5 25.5l-13 10v47q1 42 23 71q33 40 83 41q32 0 115 -21q109 -27 161 -29h6l37 -1l-38 -100h-16q-4 -60 52 -73q22 -5 55 -5zM184 143q50 49 128 79h1l1 1q-25 3 -67 12q-48 10 -67 10q-49 -2 -64 -29q45 -35 68 -73zM227 -83 q42 47 53 62q31 -17 55 -44q27 29 37 44q40 -20 62 -52q1 -2 2 -3q-25 -33 -53 -61q-26 27 -51 46q-18 -23 -41 -46q-41 41 -64 54z" />
<glyph unicode="&#x683;" horiz-adv-x="548" arabic-form="initial" d="M464 204h24l-52 -95h-37q-61 0 -186 -64l-12 -6q-42 -21 -75 -29q0 -39 -4 -51q-2 -6 -4 -10q-6 26 -21 56q-32 -5 -65 -5h-49q-33 0 -48 30q-5 11 -5 23q0 33 30 48q11 5 23 5h49l-32 47v33q1 44 30 74q33 32 83 32q40 0 128 -36q30 -11 45 -17q97 -35 178 -35zM85 106 q102 2 176 44l-63 28q-59 23 -96 23q-46 -1 -65 -35q30 -34 48 -60zM104 -116q42 47 53 62q31 -17 55 -44q27 29 37 44q40 -20 62 -52q1 -2 2 -3q-25 -33 -53 -61q-26 27 -51 46q-18 -23 -41 -46q-41 41 -64 54z" />
<glyph unicode="&#x683;" horiz-adv-x="556" arabic-form="medial" d="M493 106h63v-106h-64q-83 0 -116 34q-12 13 -19 30q-14 33 -7 75q-27 -9 -46 -23q-6 -4 -19 -14q-43 -35 -78 -55q-81 -47 -164 -47h-60q-33 0 -48 30q-5 11 -5 22q0 34 30 49q12 5 23 5h58q56 0 106 15q26 8 68 29l42 22l-141 24h-1h-2q-21 3 -29 -11v-25l-11 -5 q-11 18 -26 28t-25 11l-10 2l20 50q4 10 9 19q9 17 64 26q11 2 19 2q29 0 89 -20q27 -9 49 -15q73 -19 163 -22l43 -1l-48 -89q-16 3 -34 0q13 -33 69 -38q17 -2 38 -2zM0 -117q42 47 53 62q31 -17 55 -44q27 29 37 44q40 -20 62 -52q1 -2 2 -3q-25 -33 -53 -61 q-26 27 -51 46q-18 -23 -41 -46q-41 41 -64 54z" />
<glyph unicode="&#x686;" horiz-adv-x="659" arabic-form="isolated" d="M399 -269h96l-88 -101l-58 1q-132 2 -197 61l-3 3q-75 72 -79 195v11q1 129 82 213q-10 11 -28.5 26.5t-31.5 25.5l-14 10v47q1 41 24 71q33 40 82 41q32 0 115 -21q109 -27 161 -29h6l37 -1l-38 -100l-55 -4q-40 -5 -75 -16q-74 -23 -133 -68q2 -14 1 -24t-3 -15l-2 -5 l-10 22l-4 4q-51 -51 -59 -124q-1 -11 -1 -21q0 -94 88 -152q3 -3 5 -4q74 -46 182 -46zM117 216q45 -35 67 -73q55 51 131 80q-26 3 -68 12q-48 10 -67 10q-47 0 -62 -26q-1 -2 -1 -3zM227 -14q42 47 53 62q31 -17 55 -44q27 29 37 44q40 -20 62 -52q1 -2 2 -3 q-25 -33 -53 -61q-26 27 -51 46q-18 -23 -41 -46q-41 41 -64 54zM280 -121q42 48 53 63q44 -25 64 -56q-22 -30 -53 -61q-38 39 -64 54z" />
<glyph unicode="&#x686;" horiz-adv-x="608" arabic-form="final" d="M556 106h52v-106h-56q-74 1 -112 40q-34 37 -34 97q0 25 5 43q-36 -4 -76 -16q-75 -24 -133 -68q2 -14 1 -24t-3 -15l-2 -5l-10 22l-4 4q-51 -51 -60 -124q-1 -11 -1 -21q0 -90 82 -148l12 -8q74 -46 182 -46h95l-87 -101h-58q-133 1 -201 65q-66 62 -76 172q-2 17 -2 34 q1 127 82 213q-11 11 -29.5 26.5t-31.5 25.5l-13 10v47q1 42 23 71q33 40 83 41q32 0 115 -21q109 -27 161 -29h6l37 -1l-38 -100h-16q-4 -60 52 -73q22 -5 55 -5zM184 143q50 49 128 79h1l1 1q-25 3 -67 12q-48 10 -67 10q-49 -2 -64 -29q45 -35 68 -73zM213 -34 q42 47 53 62q31 -17 55 -44q27 29 37 44q40 -20 62 -52q1 -2 2 -3q-25 -33 -53 -61q-26 27 -51 46q-18 -23 -41 -46q-41 41 -64 54zM266 -141q42 48 53 63q44 -25 64 -56q-22 -30 -53 -61q-38 39 -64 54z" />
<glyph unicode="&#x686;" horiz-adv-x="548" arabic-form="initial" d="M464 204h24l-52 -95h-37q-61 0 -186 -64l-12 -6q-42 -21 -75 -29q0 -39 -4 -51q-2 -6 -4 -10q-6 26 -21 56q-32 -5 -65 -5h-49q-33 0 -48 30q-5 11 -5 23q0 33 30 48q11 5 23 5h49l-32 47v33q1 44 30 74q33 32 83 32q40 0 128 -36q30 -11 45 -17q97 -35 178 -35zM85 106 q102 2 176 44l-63 28q-59 23 -96 23q-46 -1 -65 -35q30 -34 48 -60zM104 -116q42 47 53 62q31 -17 55 -44q27 29 37 44q40 -20 62 -52q1 -2 2 -3q-25 -33 -53 -61q-26 27 -51 46q-18 -23 -41 -46q-41 41 -64 54zM157 -223q42 48 53 63q44 -25 64 -56q-22 -30 -53 -61 q-38 39 -64 54z" />
<glyph unicode="&#x686;" horiz-adv-x="556" arabic-form="medial" d="M493 106h63v-106h-64q-83 0 -116 34q-12 13 -19 30q-14 33 -7 75q-27 -9 -46 -23q-6 -4 -19 -14q-43 -35 -78 -55q-81 -47 -164 -47h-60q-33 0 -48 30q-5 11 -5 22q0 34 30 49q12 5 23 5h58q56 0 106 15q26 8 68 29l42 22l-141 24h-1h-2q-21 3 -29 -11v-25l-11 -5 q-11 18 -26 28t-25 11l-10 2l20 50q4 10 9 19q9 17 64 26q11 2 19 2q29 0 89 -20q27 -9 49 -15q73 -19 163 -22l43 -1l-48 -89q-16 3 -34 0q13 -33 69 -38q17 -2 38 -2zM0 -117q42 47 53 62q31 -17 55 -44q27 29 37 44q40 -20 62 -52q1 -2 2 -3q-25 -33 -53 -61 q-26 27 -51 46q-18 -23 -41 -46q-41 41 -64 54zM53 -224q42 48 53 63q44 -25 64 -56q-22 -30 -53 -61q-38 39 -64 54z" />
<glyph unicode="&#x687;" horiz-adv-x="659" arabic-form="isolated" d="M399 -269h96l-88 -101l-58 1q-132 2 -197 61l-3 3q-75 72 -79 195v11q1 129 82 213q-10 11 -28.5 26.5t-31.5 25.5l-14 10v47q1 41 24 71q33 40 82 41q32 0 115 -21q109 -27 161 -29h6l37 -1l-38 -100l-55 -4q-40 -5 -75 -16q-74 -23 -133 -68q2 -14 1 -24t-3 -15l-2 -5 l-10 22l-4 4q-51 -51 -59 -124q-1 -11 -1 -21q0 -94 88 -152q3 -3 5 -4q74 -46 182 -46zM117 216q45 -35 67 -73q55 51 131 80q-26 3 -68 12q-48 10 -67 10q-47 0 -62 -26q-1 -2 -1 -3zM226 -116q33 37 53 62q-29 28 -53 42q33 37 53 62q32 -18 56 -44l37 44q40 -21 62 -52 q1 -2 2 -3q-21 -29 -50 -57q34 -23 50 -47q-25 -33 -53 -61q-30 32 -51 46q-14 -18 -42 -46q-38 39 -64 54zM293 -62q25 -16 42 -36l37 44q-30 28 -40 34q-10 -13 -39 -42z" />
<glyph unicode="&#x687;" horiz-adv-x="608" arabic-form="final" d="M556 106h52v-106h-56q-74 1 -112 40q-34 37 -34 97q0 25 5 43q-36 -4 -76 -16q-75 -24 -133 -68q2 -14 1 -24t-3 -15l-2 -5l-10 22l-4 4q-51 -51 -60 -124q-1 -11 -1 -21q0 -90 82 -148l12 -8q74 -46 182 -46h95l-87 -101h-58q-133 1 -201 65q-66 62 -76 172q-2 17 -2 34 q1 127 82 213q-11 11 -29.5 26.5t-31.5 25.5l-13 10v47q1 42 23 71q33 40 83 41q32 0 115 -21q109 -27 161 -29h6l37 -1l-38 -100h-16q-4 -60 52 -73q22 -5 55 -5zM184 143q50 49 128 79h1l1 1q-25 3 -67 12q-48 10 -67 10q-49 -2 -64 -29q45 -35 68 -73zM213 -130 q33 37 53 62q-29 28 -53 42q33 37 53 62q32 -18 56 -44l37 44q40 -21 62 -52q1 -2 2 -3q-21 -29 -50 -57q34 -23 50 -47q-25 -33 -53 -61q-30 32 -51 46q-14 -18 -42 -46q-38 39 -64 54zM280 -76q25 -16 42 -36l37 44q-30 28 -40 34q-10 -13 -39 -42z" />
<glyph unicode="&#x687;" horiz-adv-x="548" arabic-form="initial" d="M464 204h24l-52 -95h-37q-61 0 -186 -64l-12 -6q-42 -21 -75 -29q0 -39 -4 -51q-2 -6 -4 -10q-6 26 -21 56q-32 -5 -65 -5h-49q-33 0 -48 30q-5 11 -5 23q0 33 30 48q11 5 23 5h49l-32 47v33q1 44 30 74q33 32 83 32q40 0 128 -36q30 -11 45 -17q97 -35 178 -35zM85 106 q102 2 176 44l-63 28q-59 23 -96 23q-46 -1 -65 -35q30 -34 48 -60zM103 -220q33 37 53 62q-29 28 -53 42q33 37 53 62q32 -18 56 -44l37 44q40 -21 62 -52q1 -2 2 -3q-21 -29 -50 -57q34 -23 50 -47q-25 -33 -53 -61q-30 32 -51 46q-14 -18 -42 -46q-38 39 -64 54z M170 -166q25 -16 42 -36l37 44q-30 28 -40 34q-10 -13 -39 -42z" />
<glyph unicode="&#x687;" horiz-adv-x="556" arabic-form="medial" d="M493 106h63v-106h-64q-83 0 -116 34q-12 13 -19 30q-14 33 -7 75q-27 -9 -46 -23q-6 -4 -19 -14q-43 -35 -78 -55q-81 -47 -164 -47h-60q-33 0 -48 30q-5 11 -5 22q0 34 30 49q12 5 23 5h58q56 0 106 15q26 8 68 29l42 22l-141 24h-1h-2q-21 3 -29 -11v-25l-11 -5 q-11 18 -26 28t-25 11l-10 2l20 50q4 10 9 19q9 17 64 26q11 2 19 2q29 0 89 -20q27 -9 49 -15q73 -19 163 -22l43 -1l-48 -89q-16 3 -34 0q13 -33 69 -38q17 -2 38 -2zM-1 -221q33 37 53 62q-29 28 -53 42q33 37 53 62q32 -18 56 -44l37 44q40 -21 62 -52q1 -2 2 -3 q-21 -29 -50 -57q34 -23 50 -47q-25 -33 -53 -61q-30 32 -51 46q-14 -18 -42 -46q-38 39 -64 54zM66 -167q25 -16 42 -36l37 44q-30 28 -40 34q-10 -13 -39 -42z" />
<glyph unicode="&#x68d;" horiz-adv-x="477" arabic-form="isolated" d="M244 280q84 -58 85 -147q-1 -68 -51 -106q-48 -35 -118 -35q-110 1 -110 93l2 54q29 -43 124 -43q72 0 116 9q-46 70 -109 102q-18 9 -28 10l-11 -18l-25 12q-21 11 -26 31q-1 6 1 11l38 84q4 -3 57 -27q33 -15 55 -30zM76 -117q42 47 53 62q31 -17 55 -44q27 29 37 44 q40 -20 62 -52q1 -2 2 -3q-25 -33 -53 -61q-26 27 -51 46q-18 -23 -41 -46q-41 41 -64 54z" />
<glyph unicode="&#x68d;" horiz-adv-x="443" arabic-form="final" d="M422 106h21v-106h-26q-39 1 -75 24q-30 22 -48 53q-10 -38 -42 -60q-37 -25 -101 -25q-58 1 -83 29q-3 3 -5.5 6.5t-4 7t-3 7.5t-2.5 7t-1.5 6.5t-1 6t-0.5 5.5v5v4v2l3 61q30 -41 96 -42q39 0 78 11q29 9 43 21q-18 41 -28 91q-9 48 -9 81l35 53q20 -110 49 -167 q41 -80 105 -81zM67 -116q42 47 53 62q31 -17 55 -44q27 29 37 44q40 -20 62 -52q1 -2 2 -3q-25 -33 -53 -61q-26 27 -51 46q-18 -23 -41 -46q-41 41 -64 54z" />
<glyph unicode="&#x68c;" horiz-adv-x="477" arabic-form="isolated" d="M35 435q42 47 53 62q31 -17 55 -44q27 29 37 44q40 -20 62 -52q1 -2 2 -3q-25 -33 -53 -61q-26 27 -51 46q-18 -23 -41 -46q-41 41 -64 54zM244 280q84 -58 85 -147q-1 -68 -51 -106q-48 -35 -118 -35q-110 1 -110 93l2 54q29 -43 124 -43q72 0 116 9q-46 70 -109 102 q-18 9 -28 10l-11 -18l-25 12q-21 11 -26 31q-1 6 1 11l38 84q4 -3 57 -27q33 -15 55 -30z" />
<glyph unicode="&#x68c;" horiz-adv-x="443" arabic-form="final" d="M93 430q42 47 53 62q31 -17 55 -44q27 29 37 44q40 -20 62 -52q1 -2 2 -3q-25 -33 -53 -61q-26 27 -51 46q-18 -23 -41 -46q-41 41 -64 54zM422 106h21v-106h-26q-39 1 -75 24q-30 22 -48 53q-10 -38 -42 -60q-37 -25 -101 -25q-58 1 -83 29q-3 3 -5.5 6.5t-4 7t-3 7.5 t-2.5 7t-1.5 6.5t-1 6t-0.5 5.5v4v5v2l3 61q30 -41 96 -42q39 0 78 11q29 9 43 21q-18 41 -28 91q-9 48 -9 81l35 53q20 -110 49 -167q41 -80 105 -81z" />
<glyph unicode="&#x68e;" horiz-adv-x="477" arabic-form="isolated" d="M78 543q30 32 53 62q38 -20 62 -52q1 -2 2 -3q-25 -33 -53 -61q-35 36 -64 54zM34 435q33 37 53 62q32 -18 56 -44l37 44q40 -21 62 -52q1 -2 2 -3q-25 -33 -53 -61q-30 32 -51 46q-14 -18 -42 -46q-38 39 -64 54zM244 280q84 -58 85 -147q-1 -68 -51 -106 q-48 -35 -118 -35q-110 1 -110 93l2 54q29 -43 124 -43q72 0 116 9q-46 70 -109 102q-18 9 -28 10l-11 -18l-25 12q-21 11 -26 31q-1 6 1 11l38 84q4 -3 57 -27q33 -15 55 -30z" />
<glyph unicode="&#x68e;" horiz-adv-x="443" arabic-form="final" d="M135 539q30 32 53 62q38 -20 62 -52q1 -2 2 -3q-25 -33 -53 -61q-35 36 -64 54zM91 431q33 37 53 62q32 -18 56 -44l37 44q40 -21 62 -52q1 -2 2 -3q-25 -33 -53 -61q-30 32 -51 46q-14 -18 -42 -46q-38 39 -64 54zM422 106h21v-106h-26q-39 1 -75 24q-30 22 -48 53 q-10 -38 -42 -60q-37 -25 -101 -25q-58 1 -83 29q-3 3 -5.5 6.5t-4 7t-3 7.5t-2.5 7t-1.5 6.5t-1 6t-0.5 5.5v5v4v2l3 61q30 -41 96 -42q39 0 78 11q29 9 43 21q-18 41 -28 91q-9 48 -9 81l35 53q20 -110 49 -167q41 -80 105 -81z" />
<glyph unicode="&#x688;" horiz-adv-x="477" arabic-form="isolated" d="M50 418q1 0 36 -2l22 1q10 15 15 20q0 41 -4 67q-6 34 -15 54l-5 5q0 1 2 18q5 14 16 15q8 -17 21 -28q-9 -8 -6 -21q7 -32 9 -45q3 -28 -4 -49q27 23 48 23q18 -1 31 -13q8 -10 13 -23q-1 -1 -2 -5q-4 -12 -8 -19q-9 -13 -22 -21q-19 -13 -54 -13l-71 -1zM117 413h35 q43 1 64 18l-10 12q-9 8 -24 8q-24 -1 -45 -17q-12 -10 -20 -21zM244 280q84 -58 85 -147q-1 -68 -51 -106q-48 -35 -118 -35q-110 1 -110 93l2 54q29 -43 124 -43q72 0 116 9q-46 70 -109 102q-18 9 -28 10l-11 -18l-25 12q-21 11 -26 31q-1 6 1 11l38 84q4 -3 57 -27 q33 -15 55 -30z" />
<glyph unicode="&#x688;" horiz-adv-x="443" arabic-form="final" d="M116 413q1 0 36 -2l22 1q10 15 15 20q0 41 -4 67q-6 34 -15 54l-5 5q0 1 2 18q5 14 16 15q8 -17 21 -28q-9 -8 -6 -21q7 -32 9 -45q3 -28 -4 -49q27 23 48 23q18 -1 31 -13q8 -10 13 -23q-1 -1 -2 -5q-4 -12 -8 -19q-9 -13 -22 -21q-19 -13 -54 -13l-71 -1zM183 408h35 q43 1 64 18l-10 12q-9 8 -24 8q-24 -1 -45 -17q-12 -10 -20 -21zM422 106h21v-106h-26q-39 1 -75 24q-30 22 -48 53q-10 -38 -42 -60q-37 -25 -101 -25q-58 1 -83 29q-3 3 -5.5 6.5t-4 7t-3 7.5t-2.5 7t-1.5 6.5t-1 6t-0.5 5.5v5v4v2l3 61q30 -41 96 -42q39 0 78 11 q29 9 43 21q-18 41 -28 91q-9 48 -9 81l35 53q20 -110 49 -167q41 -80 105 -81z" />
<glyph unicode="&#x698;" horiz-adv-x="367" arabic-form="isolated" d="M62 438q30 32 53 62q38 -20 62 -52q1 -2 2 -3q-25 -33 -53 -61q-35 36 -64 54zM18 330q33 37 53 62q32 -18 56 -44l37 44q40 -21 62 -52q1 -2 2 -3q-25 -33 -53 -61q-30 32 -51 46q-14 -18 -42 -46q-38 39 -64 54zM214 -87q-25 -52 -62 -78q-47 -31 -118 -33v-57h-3 q-21 53 -71 51v105q107 4 151 29q63 36 72 116q-18 20 -74 61q-1 2 -2 2q-20 16 -12 37l32 81q85 -46 106 -147q4 -18 5 -35q6 -69 -24 -132z" />
<glyph unicode="&#x698;" horiz-adv-x="345" arabic-form="final" d="M44 387q30 32 53 62q38 -20 62 -52q1 -2 2 -3q-25 -33 -53 -61q-35 36 -64 54zM0 279q33 37 53 62q32 -18 56 -44l37 44q40 -21 62 -52q1 -2 2 -3q-25 -33 -53 -61q-30 32 -51 46q-14 -18 -42 -46q-38 39 -64 54zM269 106h76v-106h-54q-38 0 -55 7q4 -89 -52 -147 q-57 -58 -150 -58v-57h-3q-21 53 -71 51v105q97 4 153 37q56 37 65 104q-28 27 -31 79v13q0 11 2 28l17 16q29 -67 91 -72h12z" />
<glyph unicode="&#x691;" horiz-adv-x="367" arabic-form="isolated" d="M34 313q1 0 36 -2l22 1q10 15 15 20q0 41 -4 67q-6 34 -15 54l-5 5q0 1 2 18q5 14 16 15q8 -17 21 -28q-9 -8 -6 -21q7 -32 9 -45q3 -28 -4 -49q27 23 48 23q18 -1 31 -13q8 -10 13 -23q-1 -1 -2 -5q-4 -12 -8 -19q-9 -13 -22 -21q-19 -13 -54 -13l-71 -1zM101 308h35 q43 1 64 18l-10 12q-9 8 -24 8q-24 -1 -45 -17q-12 -10 -20 -21zM214 -87q-25 -52 -62 -78q-47 -31 -118 -33v-57h-3q-21 53 -71 51v105q107 4 151 29q63 36 72 116q-18 20 -74 61q-1 2 -2 2q-20 16 -12 37l32 81q85 -46 106 -147q4 -18 5 -35q6 -69 -24 -132z" />
<glyph unicode="&#x691;" horiz-adv-x="365" arabic-form="final" d="M16 262q1 0 36 -2l22 1q10 15 15 20q0 41 -4 67q-6 34 -15 54l-5 5q0 1 2 18q5 14 16 15q8 -17 21 -28q-9 -8 -6 -21q7 -32 9 -45q3 -28 -4 -49q27 23 48 23q18 -1 31 -13q8 -10 13 -23q-1 -1 -2 -5q-4 -12 -8 -19q-9 -13 -22 -21q-19 -13 -54 -13l-71 -1zM83 257h35 q43 1 64 18l-10 12q-9 8 -24 8q-24 -1 -45 -17q-12 -10 -20 -21zM269 106h76v-106h-54q-38 0 -55 7q4 -89 -52 -147q-57 -58 -150 -58v-57h-3q-21 53 -71 51v105q97 4 153 37q56 37 65 104q-28 27 -31 79v13q0 11 2 28l17 16q29 -67 91 -72h12z" />
<glyph unicode="&#x6a9;" horiz-adv-x="877" arabic-form="isolated" d="M924 657l-25 -113q-31 -20 -147 -74q-101 -44 -117 -55q41 -28 90 -96q64 -94 65 -149q0 -37 -6 -58q-30 -61 -88 -88q-25 -12 -60 -22q-75 -21 -192 -24q-42 -1 -94 -1q-152 0 -224 62q-56 49 -56 122q0 68 34 130q11 20 22 30l16 -15q-23 -40 -24 -86q2 -77 83 -110 q68 -25 192 -25q205 0 309 33q24 7 38 16q-31 76 -90 135q-13 12 -24 20v-34q-38 30 -46 57q-4 18 -4 53q0 50 3 70q5 37 65 73l10 6q52 28 111 57q107 52 159 86z" />
<glyph unicode="&#x6a9;" horiz-adv-x="975" arabic-form="final" d="M910 106h65v-106h-72q-90 1 -142 73q-65 -62 -176 -82q-4 -1 -6 -1q-85 -13 -229 -13q-154 0 -226 63q-54 48 -54 121q0 68 34 130q11 20 22 30l16 -15q-23 -40 -24 -86q2 -77 83 -110q68 -25 192 -25q214 0 318 36q3 1 5 2q-67 103 -96 131q-11 11 -21 19v-18 q-38 30 -46 57q-4 18 -4 53q0 50 3 70q5 38 67 74q5 3 9 5q39 22 120 62q102 50 149 81l-25 -113q-23 -15 -126 -65q-104 -51 -139 -75q41 -34 80 -86q29 -39 79 -118q37 -58 65 -75q11 -7 22 -11q21 -8 57 -8z" />
<glyph unicode="&#x6a9;" horiz-adv-x="351" arabic-form="initial" d="M316 544q-31 -20 -136 -69q-114 -51 -128 -61q47 -36 93 -100q61 -87 62 -144q-1 -73 -29 -115q-37 -55 -119 -55h-76q-33 0 -48 30q-5 11 -5 23q0 33 30 48q11 5 23 5h43q91 2 123 45q-31 73 -89 124q-9 8 -17 14v-34q-38 30 -46 57q-4 18 -4 53q0 50 3 70q5 37 65 73 l10 6q45 25 129 66t141 77z" />
<glyph unicode="&#x6a9;" horiz-adv-x="446" arabic-form="medial" d="M381 106h65v-106h-72q-94 1 -150 85q-35 -71 -109 -83q-12 -2 -24 -2h-108q-33 0 -48 30q-5 11 -5 23q0 33 30 48q11 5 23 5h108q57 1 88 31q-60 97 -109 136v-18q-40 32 -47 61q-3 16 -3 46q0 59 4 73q10 40 53 67q9 6 22 13q34 19 134 67q82 39 135 75l-25 -113 q-18 -13 -139 -72q-83 -41 -126 -68q44 -35 89 -98q26 -36 70 -106q39 -62 73 -80q8 -4 14 -6q21 -8 57 -8z" />
<glyph unicode="&#x6af;" horiz-adv-x="877" arabic-form="isolated" d="M844 660q-11 -8 -168 -89q-54 -28 -71 -39l-7 5l34 53l221 112zM924 657l-25 -113q-31 -20 -147 -74q-101 -44 -117 -55q41 -28 90 -96q64 -94 65 -149q0 -37 -6 -58q-30 -61 -88 -88q-25 -12 -60 -22q-75 -21 -192 -24q-42 -1 -94 -1q-152 0 -224 62q-56 49 -56 122 q0 68 34 130q11 20 22 30l16 -15q-23 -40 -24 -86q2 -77 83 -110q68 -25 192 -25q205 0 309 33q24 7 38 16q-31 76 -90 135q-13 12 -24 20v-34q-38 30 -46 57q-4 18 -4 53q0 50 3 70q5 37 65 73l10 6q52 28 111 57q107 52 159 86z" />
<glyph unicode="&#x6af;" horiz-adv-x="975" arabic-form="final" d="M825 664q-11 -8 -168 -89q-54 -28 -71 -39l-7 5l34 53l221 112zM910 106h65v-106h-72q-90 1 -142 73q-65 -62 -176 -82q-4 -1 -6 -1q-85 -13 -229 -13q-154 0 -226 63q-54 48 -54 121q0 68 34 130q11 20 22 30l16 -15q-23 -40 -24 -86q2 -77 83 -110q68 -25 192 -25 q214 0 318 36q3 1 5 2q-67 103 -96 131q-11 11 -21 19v-18q-38 30 -46 57q-4 18 -4 53q0 50 3 70q5 38 67 74q5 3 9 5q39 22 120 62q102 50 149 81l-25 -113q-23 -15 -126 -65q-104 -51 -139 -75q41 -34 80 -86q29 -39 79 -118q37 -58 65 -75q11 -7 22 -11q21 -8 57 -8z" />
<glyph unicode="&#x6af;" horiz-adv-x="351" arabic-form="initial" d="M277 668q-11 -8 -168 -89q-54 -28 -71 -39l-7 5l34 53l221 112zM316 544q-31 -20 -136 -69q-114 -51 -128 -61q47 -36 93 -100q61 -87 62 -144q-1 -73 -29 -115q-37 -55 -119 -55h-76q-33 0 -48 30q-5 11 -5 23q0 33 30 48q11 5 23 5h43q91 2 123 45q-31 73 -89 124 q-9 8 -17 14v-34q-38 30 -46 57q-4 18 -4 53q0 50 3 70q5 37 65 73l10 6q45 25 129 66t141 77z" />
<glyph unicode="&#x6af;" horiz-adv-x="446" arabic-form="medial" d="M307 675q-11 -8 -168 -89q-54 -28 -71 -39l-7 5l34 53l221 112zM381 106h65v-106h-72q-94 1 -150 85q-35 -71 -109 -83q-12 -2 -24 -2h-108q-33 0 -48 30q-5 11 -5 23q0 33 30 48q11 5 23 5h108q57 1 88 31q-60 97 -109 136v-18q-40 32 -47 61q-3 16 -3 46q0 59 4 73 q10 40 53 67q9 6 22 13q34 19 134 67q82 39 135 75l-25 -113q-18 -13 -139 -72q-83 -41 -126 -68q44 -35 89 -98q26 -36 70 -106q39 -62 73 -80q8 -4 14 -6q21 -8 57 -8z" />
<glyph unicode="&#x6b3;" horiz-adv-x="877" arabic-form="isolated" d="M844 660q-11 -8 -168 -89q-54 -28 -71 -39l-7 5l34 53l221 112zM924 657l-25 -113q-31 -20 -147 -74q-101 -44 -117 -55q41 -28 90 -96q64 -94 65 -149q0 -37 -6 -58q-30 -61 -88 -88q-25 -12 -60 -22q-75 -21 -192 -24q-42 -1 -94 -1q-152 0 -224 62q-56 49 -56 122 q0 68 34 130q11 20 22 30l16 -15q-23 -40 -24 -86q2 -77 83 -110q68 -25 192 -25q205 0 309 33q24 7 38 16q-31 76 -90 135q-13 12 -24 20v-34q-38 30 -46 57q-4 18 -4 53q0 50 3 70q5 37 65 73l10 6q52 28 111 57q107 52 159 86zM425 -197q33 -23 49 -46q-25 -33 -53 -61 q-38 39 -64 54q34 37 53 61q-28 27 -53 43q31 31 53 62q43 -25 64 -55q-19 -28 -49 -58z" />
<glyph unicode="&#x6b3;" horiz-adv-x="975" arabic-form="final" d="M825 664q-11 -8 -168 -89q-54 -28 -71 -39l-7 5l34 53l221 112zM910 106h65v-106h-72q-90 1 -142 73q-65 -62 -176 -82q-4 -1 -6 -1q-85 -13 -229 -13q-154 0 -226 63q-54 48 -54 121q0 68 34 130q11 20 22 30l16 -15q-23 -40 -24 -86q2 -77 83 -110q68 -25 192 -25 q214 0 318 36q3 1 5 2q-67 103 -96 131q-11 11 -21 19v-18q-38 30 -46 57q-4 18 -4 53q0 50 3 70q5 38 67 74q5 3 9 5q39 22 120 62q102 50 149 81l-25 -113q-23 -15 -126 -65q-104 -51 -139 -75q41 -34 80 -86q29 -39 79 -118q37 -58 65 -75q11 -7 22 -11q21 -8 57 -8z M435 -197q33 -23 49 -46q-25 -33 -53 -61q-38 39 -64 54q34 37 53 61q-28 27 -53 43q31 31 53 62q43 -25 64 -55q-19 -28 -49 -58z" />
<glyph unicode="&#x6b3;" horiz-adv-x="351" arabic-form="initial" d="M277 668q-11 -8 -168 -89q-54 -28 -71 -39l-7 5l34 53l221 112zM316 544q-31 -20 -136 -69q-114 -51 -128 -61q47 -36 93 -100q61 -87 62 -144q-1 -73 -29 -115q-37 -55 -119 -55h-76q-33 0 -48 30q-5 11 -5 23q0 33 30 48q11 5 23 5h43q91 2 123 45q-31 73 -89 124 q-9 8 -17 14v-34q-38 30 -46 57q-4 18 -4 53q0 50 3 70q5 37 65 73l10 6q45 25 129 66t141 77zM65 -167q33 -23 49 -46q-25 -33 -53 -61q-38 39 -64 54q34 37 53 61q-28 27 -53 43q31 31 53 62q43 -25 64 -55q-19 -28 -49 -58z" />
<glyph unicode="&#x6b3;" horiz-adv-x="446" arabic-form="medial" d="M307 675q-11 -8 -168 -89q-54 -28 -71 -39l-7 5l34 53l221 112zM381 106h65v-106h-72q-94 1 -150 85q-35 -71 -109 -83q-12 -2 -24 -2h-108q-33 0 -48 30q-5 11 -5 23q0 33 30 48q11 5 23 5h108q57 1 88 31q-60 97 -109 136v-18q-40 32 -47 61q-3 16 -3 46q0 59 4 73 q10 40 53 67q9 6 22 13q34 19 134 67q82 39 135 75l-25 -113q-18 -13 -139 -72q-83 -41 -126 -68q44 -35 89 -98q26 -36 70 -106q39 -62 73 -80q8 -4 14 -6q21 -8 57 -8zM77 -167q33 -23 49 -46q-25 -33 -53 -61q-38 39 -64 54q34 37 53 61q-28 27 -53 43q31 31 53 62 q43 -25 64 -55q-19 -28 -49 -58z" />
<glyph unicode="&#x6b1;" horiz-adv-x="877" arabic-form="isolated" d="M622 776q42 47 53 62q31 -17 55 -44q27 29 37 44q40 -20 62 -52q1 -2 2 -3q-25 -33 -53 -61q-26 27 -51 46q-18 -23 -41 -46q-41 41 -64 54zM844 660q-11 -8 -168 -89q-54 -28 -71 -39l-7 5l34 53l221 112zM924 657l-25 -113q-31 -20 -147 -74q-101 -44 -117 -55 q41 -28 90 -96q64 -94 65 -149q0 -37 -6 -58q-30 -61 -88 -88q-25 -12 -60 -22q-75 -21 -192 -24q-42 -1 -94 -1q-152 0 -224 62q-56 49 -56 122q0 68 34 130q11 20 22 30l16 -15q-23 -40 -24 -86q2 -77 83 -110q68 -25 192 -25q205 0 309 33q24 7 38 16q-31 76 -90 135 q-13 12 -24 20v-34q-38 30 -46 57q-4 18 -4 53q0 50 3 70q5 37 65 73l10 6q52 28 111 57q107 52 159 86z" />
<glyph unicode="&#x6b1;" horiz-adv-x="975" arabic-form="final" d="M603 780q42 47 53 62q31 -17 55 -44q27 29 37 44q40 -20 62 -52q1 -2 2 -3q-25 -33 -53 -61q-26 27 -51 46q-18 -23 -41 -46q-41 41 -64 54zM825 664q-11 -8 -168 -89q-54 -28 -71 -39l-7 5l34 53l221 112zM910 106h65v-106h-72q-90 1 -142 73q-65 -62 -176 -82 q-4 -1 -6 -1q-85 -13 -229 -13q-154 0 -226 63q-54 48 -54 121q0 68 34 130q11 20 22 30l16 -15q-23 -40 -24 -86q2 -77 83 -110q68 -25 192 -25q214 0 318 36q3 1 5 2q-67 103 -96 131q-11 11 -21 19v-18q-38 30 -46 57q-4 18 -4 53q0 50 3 70q5 38 67 74q5 3 9 5 q39 22 120 62q102 50 149 81l-25 -113q-23 -15 -126 -65q-104 -51 -139 -75q41 -34 80 -86q29 -39 79 -118q37 -58 65 -75q11 -7 22 -11q21 -8 57 -8z" />
<glyph unicode="&#x6b1;" horiz-adv-x="351" arabic-form="initial" d="M55 784q42 47 53 62q31 -17 55 -44q27 29 37 44q40 -20 62 -52q1 -2 2 -3q-25 -33 -53 -61q-26 27 -51 46q-18 -23 -41 -46q-41 41 -64 54zM277 668q-11 -8 -168 -89q-54 -28 -71 -39l-7 5l34 53l221 112zM316 544q-31 -20 -136 -69q-114 -51 -128 -61q47 -36 93 -100 q61 -87 62 -144q-1 -73 -29 -115q-37 -55 -119 -55h-76q-33 0 -48 30q-5 11 -5 23q0 33 30 48q11 5 23 5h43q91 2 123 45q-31 73 -89 124q-9 8 -17 14v-34q-38 30 -46 57q-4 18 -4 53q0 50 3 70q5 37 65 73l10 6q45 25 129 66t141 77z" />
<glyph unicode="&#x6b1;" horiz-adv-x="446" arabic-form="medial" d="M85 791q42 47 53 62q31 -17 55 -44q27 29 37 44q40 -20 62 -52q1 -2 2 -3q-25 -33 -53 -61q-26 27 -51 46q-18 -23 -41 -46q-41 41 -64 54zM307 675q-11 -8 -168 -89q-54 -28 -71 -39l-7 5l34 53l221 112zM381 106h65v-106h-72q-94 1 -150 85q-35 -71 -109 -83 q-12 -2 -24 -2h-108q-33 0 -48 30q-5 11 -5 23q0 33 30 48q11 5 23 5h108q57 1 88 31q-60 97 -109 136v-18q-40 32 -47 61q-3 16 -3 46q0 59 4 73q10 40 53 67q9 6 22 13q34 19 134 67q82 39 135 75l-25 -113q-18 -13 -139 -72q-83 -41 -126 -68q44 -35 89 -98 q26 -36 70 -106q39 -62 73 -80q8 -4 14 -6q21 -8 57 -8z" />
<glyph unicode="&#x6ba;" horiz-adv-x="685" arabic-form="isolated" d="M508 99h-29l15 -48q9 -36 9 -66q0 -91 -66 -149l-2 -2q-62 -52 -159 -52q-96 1 -150 51q-56 53 -56 139q0 57 16 105q15 44 41 74l16 -16q-31 -45 -34 -97q1 -68 54 -105q48 -33 126 -33q118 0 163 69q6 9 9 18q-1 1 -78 115l38 98z" />
<glyph unicode="&#x6ba;" horiz-adv-x="615" arabic-form="final" d="M615 106v-106h-113q1 -12 1 -33q-2 -98 -64 -152q-62 -53 -162 -53q-97 1 -150 50q-55 55 -57 136q0 60 17 109q13 42 40 74l16 -16q-33 -48 -33 -107q0 -52 50 -92q2 -2 4 -3q46 -33 123 -33q53 0 87 12q73 24 95 83l-48 58q-35 45 -35 96l4 33l16 15q18 -41 41 -55 q25 -14 60 -16h108z" />
<glyph unicode="&#x6bb;" horiz-adv-x="685" arabic-form="isolated" d="M171 55q1 0 36 -2l22 1q10 15 15 20q0 41 -4 67q-6 34 -15 54l-5 5q0 1 2 18q5 14 16 15q8 -17 21 -28q-9 -8 -6 -21q7 -32 9 -45q3 -28 -4 -49q27 23 48 23q18 -1 31 -13q8 -10 13 -23q-1 -1 -2 -5q-4 -12 -8 -19q-9 -13 -22 -21q-19 -13 -54 -13l-71 -1zM508 99h-29 l15 -48q9 -36 9 -66q0 -91 -66 -149l-2 -2q-62 -52 -159 -52q-96 1 -150 51q-56 53 -56 139q0 57 16 105q15 44 41 74l16 -16q-31 -45 -34 -97q1 -68 54 -105q48 -33 126 -33q118 0 163 69q6 9 9 18q-1 1 -78 115l38 98zM238 50h35q43 1 64 18l-10 12q-9 8 -24 8 q-24 -1 -45 -17q-12 -10 -20 -21z" />
<glyph unicode="&#x6bb;" horiz-adv-x="615" arabic-form="final" d="M172 36q1 0 36 -2l22 1q10 15 15 20q0 41 -4 67q-6 34 -15 54l-5 5q0 1 2 18q5 14 16 15q8 -17 21 -28q-9 -8 -6 -21q7 -32 9 -45q3 -28 -4 -49q27 23 48 23q18 -1 31 -13q8 -10 13 -23q-1 -1 -2 -5q-4 -12 -8 -19q-9 -13 -22 -21q-19 -13 -54 -13l-71 -1zM615 106v-106 h-113q1 -12 1 -33q-2 -98 -64 -152q-62 -53 -162 -53q-97 1 -150 50q-55 55 -57 136q0 60 17 109q13 42 40 74l16 -16q-33 -48 -33 -107q0 -52 50 -92q2 -2 4 -3q46 -33 123 -33q53 0 87 12q73 24 95 83l-48 58q-35 45 -35 96l4 33l16 15q18 -41 41 -55q25 -14 60 -16h108z M239 31h35q43 1 64 18l-10 12q-9 8 -24 8q-24 -1 -45 -17q-12 -10 -20 -21z" />
<glyph unicode="&#x6bb;" horiz-adv-x="234" arabic-form="initial" d="M-91 357q1 0 36 -2l22 1q10 15 15 20q0 41 -4 67q-6 34 -15 54l-5 5q0 1 2 18q5 14 16 15q8 -17 21 -28q-9 -8 -6 -21q7 -32 9 -45q3 -28 -4 -49q27 23 48 23q18 -1 31 -13q8 -10 13 -23q-1 -1 -2 -5q-4 -12 -8 -19q-9 -13 -22 -21q-19 -13 -54 -13l-71 -1zM-24 352h35 q43 1 64 18l-10 12q-9 8 -24 8q-24 -1 -45 -17q-12 -10 -20 -21zM174 148v-31q-1 -46 -34 -78q-32 -31 -82 -38q-6 -1 -11 -1h-64q-34 0 -48 31q-5 11 -5 22q0 35 31 48q11 5 22 5h56q48 0 76 13q12 6 20 12q-16 54 -75 84l29 106q39 -27 60 -65q25 -46 25 -108z" />
<glyph unicode="&#x6bb;" horiz-adv-x="276" arabic-form="medial" d="M-61 249q1 0 36 -2l22 1q10 15 15 20q0 41 -4 67q-6 34 -15 54l-5 5q0 1 2 18q5 14 16 15q8 -17 21 -28q-9 -8 -6 -21q7 -32 9 -45q3 -28 -4 -49q27 23 48 23q18 -1 31 -13q8 -10 13 -23q-1 -1 -2 -5q-4 -12 -8 -19q-9 -13 -22 -21q-19 -13 -54 -13l-71 -1zM6 244h35 q43 1 64 18l-10 12q-9 8 -24 8q-24 -1 -45 -17q-12 -10 -20 -21zM233 106h43v-106h-47q-41 1 -67 21q-17 16 -25 34q-4 -16 -22 -31q-29 -24 -83 -24h-49q-33 0 -48 30q-5 11 -5 23q0 33 30 48q11 5 23 5h68q41 1 64 21l6 6q3 3 5 6t4 7t3 6.5t2.5 6.5t2.5 6l1 6q1 4 1.5 5 t1.5 4v4l15 -8q-2 -36 17 -53t59 -17z" />
<glyph unicode="&#x6c0;" horiz-adv-x="405" arabic-form="isolated" d="M270 195l1 -99q-1 -55 -46 -84q-25 -16 -59 -16q-33 1 -61 17q-35 22 -35 65v95q0 31 14 54q14 21 35 30l-21 13v90q87 -45 112 -64q6 -4 10 -8q49 -44 50 -93zM101 134q25 -29 68 -28q52 1 79 41q-10 22 -46 54q-5 4 -50 39v-61q-41 -8 -51 -45zM107 766q29 7 57 11 l-15 -39q-91 -16 -154 -48l-7 5l28 42q4 2 19 7q11 4 14 5l-15 10q-13 15 -14 34q1 6 3 11q42 54 76 55q13 0 22.5 -9.5t12.5 -18.5l2 -10l-23 -21q-9 18 -24 19q-4 0 -9 -1.5t-9.5 -3.5t-8 -4t-6.5 -4l-3 -2q20 -30 54 -38z" />
<glyph unicode="&#x6c0;" horiz-adv-x="486" arabic-form="final" d="M357 106h47v-106h-52q-81 0 -102 71q-2 7 -4 15q-11 52 -15 72l-32 -57l-71 -1q-27 0 -49 30q-9 12 -9 20v77q1 39 30 62q12 10 59 29q23 9 36 18q-3 37 32 67l10 8q43 -191 52 -230q9 -36 22 -54q17 -21 46 -21zM170 195q34 0 46 11l4 4l-16 80l-23 -31q-60 -10 -84 -50 q9 -13 26 -14h47zM143 837q29 7 57 11l-15 -39q-91 -16 -154 -48l-7 5l28 42q4 2 19 7q11 4 14 5l-15 10q-13 15 -14 34q1 6 3 11q42 54 76 55q13 0 22.5 -9.5t12.5 -18.5l2 -10l-23 -21q-9 18 -24 19q-4 0 -9 -1.5t-9.5 -3.5t-8 -4t-6.5 -4l-3 -2q20 -30 54 -38z" />
<glyph unicode="&#x6c1;" horiz-adv-x="405" arabic-form="isolated" d="M270 195l1 -99q-1 -55 -46 -84q-25 -16 -59 -16q-33 1 -61 17q-35 22 -35 65v95q0 31 14 54q14 21 35 30l-21 13v90q87 -45 112 -64q6 -4 10 -8q49 -44 50 -93zM101 134q25 -29 68 -28q52 1 79 41q-10 22 -46 54q-5 4 -50 39v-61q-41 -8 -51 -45z" />
<glyph unicode="&#x6c1;" horiz-adv-x="411" arabic-form="final" d="M373 106h38v-106h-38q-63 1 -95 36q-13 14 -26 58q-4 12 -7 19q-21 44 -60 43q-38 -1 -68 -37q-7 -8 -14 -21q11 -16 23 -29q13 -13 67 -51q6 -4 10 -7q56 -48 58 -94v-80h-5q-11 31 -63 67q-14 10 -15 11q-53 38 -60 44q-28 25 -40 54q-6 14 -8 37v75q1 53 33 92 q38 46 82 47q31 -1 50 -28q8 -11 22 -56q6 -20 14 -31q31 -43 102 -43z" />
<glyph unicode="&#x6c1;" horiz-adv-x="204" arabic-form="initial" d="M164 148v-31q-1 -46 -34 -78q-32 -31 -82 -38q-6 -1 -11 -1h-54q-34 0 -48 31q-5 11 -5 22q0 35 31 48q11 5 22 5h46q48 0 76 13q12 6 20 12q-16 54 -75 84l29 106q39 -27 60 -65q25 -46 25 -108zM113 -53q-49 -3 -74 -37q-10 -15 -10 -30q0 -36 37 -36h6q-9 -34 -40 -35 q-35 0 -43 38q-1 8 -1 16q0 53 55 84q33 19 70 19v-19z" />
<glyph unicode="&#x6c1;" horiz-adv-x="443" arabic-form="medial" d="M383 106h60v-106h-69q-81 0 -107 -17q-26 -16 -31 -56q11 -8 32 -21v-105q-68 29 -103 83q-36 60 -26 139q-43 -23 -118 -23h-38q-33 0 -48 30q-5 11 -5 23q0 33 30 48q11 5 23 5h21q80 2 124 20q63 27 102 89v-90q-37 -27 -47 -78q-9 -53 24 -96q1 64 38 105 q49 50 138 50z" />
<glyph unicode="&#x6be;" horiz-adv-x="672" arabic-form="isolated" d="M264 306q50 -36 65 -52q17 -19 27 -40q27 -58 13 -138q-8 -33 -31 -60q-21 -25 -47 -26q-76 47 -105 56q-31 -26 -72 -37q-36 -9 -106 -9h-25q-33 0 -48 30q-5 11 -5 23q0 32 30 47q12 6 23 6h50q29 0 50 6q-25 29 -25 66q0 55 43 98q19 18 42 27q-9 14 -9 41v49 q7 -17 96 -67q26 -14 34 -20zM171 152q25 20 40 44q-7 37 -42 49q-9 3 -17 3q-34 -1 -58 -39q8 -23 54 -46q10 -5 23 -11zM301 84l14 6q15 13 19 38q-11 30 -40 59q-12 12 -53 43q-2 1 -3 2q25 -64 0 -106q-2 -4 -4 -7q43 -24 67 -35z" />
<glyph unicode="&#x6be;" horiz-adv-x="613" arabic-form="final" d="M50 16q117 35 179 78q-41 21 -51 42q-6 16 -6 42q0 55 43 98q19 18 42 27q-9 14 -9 41v49q7 -17 96 -67q26 -14 34 -20q50 -36 65 -52q17 -19 27 -40q14 -29 17 -64q0 -34 23 -41q12 -3 29 -3h74v-106h-47q-41 1 -67 21q-16 15 -24 32q-8 -19 -23 -37q-21 -25 -47 -26 q-47 34 -100 64q-43 -47 -105 -62q-17 -4 -30 -4l-106 -1zM208 209q8 -23 54 -46q10 -5 23 -11q25 20 40 44q-7 37 -42 49q-9 3 -17 3q-34 -1 -58 -39zM348 119q43 -24 67 -35l14 6q15 13 19 38q-11 30 -40 59q-12 12 -53 43q-2 1 -3 2q25 -64 0 -106q-2 -4 -4 -7z" />
<glyph unicode="&#x6be;" horiz-adv-x="434" arabic-form="initial" d="M264 306q50 -36 65 -52q17 -19 27 -40q27 -58 13 -138q-8 -33 -31 -60q-21 -25 -47 -26q-76 47 -105 56q-31 -26 -72 -37q-36 -9 -106 -9h-25q-33 0 -48 30q-5 11 -5 23q0 32 30 47q12 6 23 6h50q29 0 50 6q-25 29 -25 66q0 55 43 98q19 18 42 27q-9 14 -9 41v49 q7 -17 96 -67q26 -14 34 -20zM171 152q25 20 40 44q-7 37 -42 49q-9 3 -17 3q-34 -1 -58 -39q8 -23 54 -46q10 -5 23 -11zM301 84l14 6q15 13 19 38q-11 30 -40 59q-12 12 -53 43q-2 1 -3 2q25 -64 0 -106q-2 -4 -4 -7q43 -24 67 -35z" />
<glyph unicode="&#x6be;" horiz-adv-x="499" arabic-form="medial" d="M-70 53q0 32 30 47q12 6 23 6h50q29 0 50 6q-25 29 -25 66q0 55 43 98q19 18 42 27q-9 14 -9 41v49q7 -17 96 -67q26 -14 34 -20q50 -36 65 -52q17 -19 27 -40q16 -36 18 -79q4 -25 36 -28q7 -1 15 -1h74v-106h-47q-41 1 -67 21q-15 13 -25 31q-11 -24 -22 -36 q-21 -25 -47 -26q-76 47 -105 56q-31 -26 -72 -37q-36 -9 -106 -9h-25q-33 0 -48 30q-5 11 -5 23zM94 209q8 -23 54 -46q10 -5 23 -11q25 20 40 44q-7 37 -42 49q-9 3 -17 3q-34 -1 -58 -39zM234 119q43 -24 67 -35l14 6q15 13 19 38q-11 30 -40 59q-12 12 -53 43q-2 1 -3 2 q25 -64 0 -106q-2 -4 -4 -7z" />
<glyph unicode="&#x6d2;" horiz-adv-x="942" arabic-form="isolated" d="M689 106l219 5l-66 -111h-644q-60 0 -95 19q-32 18 -33 48l9 91q5 53 50 88q26 20 60 32q7 2 22 7q38 11 60 23q43 24 81 71q26 31 39 37q9 4 20 4q44 -2 48 -58q3 -44 -21 -122h-20q20 92 -29 93q-27 -1 -53 -32q-2 -3 -9 -11q-35 -44 -53 -56q-27 -18 -97 -32 q-13 -2 -20 -4q-38 -11 -50 -50q-1 -4 -2 -7q4 -32 94 -35h7h92h391z" />
<glyph unicode="&#x6d2;" horiz-adv-x="643" arabic-form="final" d="M273 3q-82 2 -119 -10q-38 -12 -49 -35q6 -35 82 -35h41q48 -1 66 -31q3 -5 15 -42q6 -19 15 -28q22 -23 81 -23h40q41 0 98 5l-66 -111h-87q-38 1 -55 33q-5 10 -13 30q-23 56 -92 61h-74q-33 1 -56 17q-29 19 -30 50l9 91q3 43 33 83q3 2 4 4q39 43 98 44h429v-106 h-223q-68 0 -147 3z" />
<glyph unicode="&#x6d3;" horiz-adv-x="942" arabic-form="isolated" d="M442 527q29 7 57 11l-15 -39q-91 -16 -154 -48l-7 5l28 42q4 2 19 7q11 4 14 5l-14 10q-14 15 -15 34q1 6 3 11q42 54 76 55q13 0 22.5 -9.5t11.5 -18.5l3 -10l-23 -21q-9 18 -24 19q-4 0 -9 -1.5t-9.5 -3.5t-8 -4t-6.5 -4l-3 -2q20 -30 54 -38zM689 106l219 5l-66 -111 h-644q-60 0 -95 19q-32 18 -33 48l9 91q5 53 50 88q26 20 60 32q7 2 22 7q38 11 60 23q43 24 81 71q26 31 39 37q9 4 20 4q44 -2 48 -58q3 -44 -21 -122h-20q20 92 -29 93q-27 -1 -53 -32q-2 -3 -9 -11q-35 -44 -53 -56q-27 -18 -97 -32q-13 -2 -20 -4q-38 -11 -50 -50 q-1 -4 -2 -7q4 -32 94 -35h7h92h391z" />
<glyph unicode="&#x6d3;" horiz-adv-x="643" arabic-form="final" d="M199 213q29 7 57 11l-15 -39q-91 -16 -154 -48l-7 5l28 42q4 2 19 7q11 4 14 5l-15 10q-13 15 -14 34q1 6 3 11q42 54 76 55q13 0 22.5 -9.5t12.5 -18.5l2 -10l-23 -21q-9 18 -24 19q-4 0 -9 -1.5t-9.5 -3.5t-8 -4t-6.5 -4l-3 -2q20 -30 54 -38zM273 3q-82 2 -119 -10 q-38 -12 -49 -35q6 -35 82 -35h41q48 -1 66 -31q3 -5 15 -42q6 -19 15 -28q22 -23 81 -23h40q41 0 98 5l-66 -111h-87q-38 1 -55 33q-5 10 -13 30q-23 56 -92 61h-74q-33 1 -56 17q-29 19 -30 50l9 91q3 43 33 83q3 2 4 4q39 43 98 44h429v-106h-223q-68 0 -147 3z" />
<glyph unicode="&#x6ad;" horiz-adv-x="882" arabic-form="isolated" d="M769 173q1 -78 -18 -111q-24 -37 -73 -48q-104 -21 -295 -21q-158 0 -239 42q-70 39 -74 102q-3 57 38 103q3 4 5 6l16 -16q-16 -24 -16 -44q2 -88 270 -88q202 0 298 21q15 3 29 7q0 72 -16 213q-17 152 -36 228l-16 14l3 39q3 9 5 17q16 39 49 45q23 -60 63 -89 l-11 -10q-15 -21 -11 -52q14 -116 20 -204q5 -69 9 -154zM378 569q30 32 53 62q38 -20 62 -52q1 -2 2 -3q-25 -33 -53 -61q-35 36 -64 54zM334 461q33 37 53 62q32 -18 56 -44l37 44q40 -21 62 -52q1 -2 2 -3q-25 -33 -53 -61q-30 32 -51 46q-14 -18 -42 -46q-38 39 -64 54z M466 186q-24 -18 -73 -11q-32 5 -53 13l8 16q31 -3 77 8q28 7 36 18l-7 5q-6 2 -15 2q-24 1 -36 11q-12 15 -12 34q1 32 34 57q29 21 67 30l-16 -54l-31 -5q-16 -7 -18 -16l9 -7q13 -6 35 -6q27 0 28 -24q0 -5 -1 -8q-10 -44 -32 -63z" />
<glyph unicode="&#x6ad;" horiz-adv-x="953" arabic-form="final" d="M925 106h28v-106h-69q-76 1 -107 90q-132 -113 -427 -113q-166 1 -236 72q-44 47 -44 112q0 68 34 130q11 20 22 30l16 -15q-23 -40 -24 -86q2 -77 83 -110q68 -25 192 -25q249 0 368 75l-53 447l63 74q8 -62 23 -193q25 -212 30 -244q11 -80 32 -110q22 -28 69 -28z M395 569q30 32 53 62q38 -20 62 -52q1 -2 2 -3q-25 -33 -53 -61q-35 36 -64 54zM351 461q33 37 53 62q32 -18 56 -44l37 44q40 -21 62 -52q1 -2 2 -3q-25 -33 -53 -61q-30 32 -51 46q-14 -18 -42 -46q-38 39 -64 54zM482 186q-24 -18 -73 -11q-32 5 -53 13l8 16q31 -3 77 8 q28 7 36 18l-6 5q-7 2 -17 2q-23 1 -35 11q-12 15 -12 34q1 32 34 57q29 21 67 30l-17 -54l-30 -5q-16 -7 -18 -17l9 -6q13 -6 35 -6q27 -1 28 -24q0 -5 -1 -8q-11 -46 -32 -63z" />
<glyph unicode="&#x6ad;" horiz-adv-x="351" arabic-form="initial" d="M98 772q30 32 53 62q38 -20 62 -52q1 -2 2 -3q-25 -33 -53 -61q-35 36 -64 54zM54 664q33 37 53 62q32 -18 56 -44l37 44q40 -21 62 -52q1 -2 2 -3q-25 -33 -53 -61q-30 32 -51 46q-14 -18 -42 -46q-38 39 -64 54zM316 544q-31 -20 -136 -69q-114 -51 -128 -61 q47 -36 93 -100q61 -87 62 -144q-1 -73 -29 -115q-37 -55 -119 -55h-76q-33 0 -48 30q-5 11 -5 23q0 33 30 48q11 5 23 5h43q91 2 123 45q-31 73 -89 124q-9 8 -17 14v-34q-38 30 -46 57q-4 18 -4 53q0 50 3 70q5 37 65 73l10 6q45 25 129 66t141 77z" />
<glyph unicode="&#x6ad;" horiz-adv-x="446" arabic-form="medial" d="M128 779q30 32 53 62q38 -20 62 -52q1 -2 2 -3q-25 -33 -53 -61q-35 36 -64 54zM84 671q33 37 53 62q32 -18 56 -44l37 44q40 -21 62 -52q1 -2 2 -3q-25 -33 -53 -61q-30 32 -51 46q-14 -18 -42 -46q-38 39 -64 54zM381 106h65v-106h-72q-94 1 -150 85q-35 -71 -109 -83 q-12 -2 -24 -2h-108q-33 0 -48 30q-5 11 -5 23q0 33 30 48q11 5 23 5h108q57 1 88 31q-60 97 -109 136v-18q-40 32 -47 61q-3 16 -3 46q0 59 4 73q10 40 53 67q9 6 22 13q34 19 134 67q82 39 135 75l-25 -113q-18 -13 -139 -72q-83 -41 -126 -68q44 -35 89 -98 q26 -36 70 -106q39 -62 73 -80q8 -4 14 -6q21 -8 57 -8z" />
<glyph unicode="&#x6c7;" horiz-adv-x="447" arabic-form="isolated" d="M201 414l17 -8l-12 -45l-25 12q-35 -53 -128 -69l-8 5l29 43q20 1 40.5 9.5t31.5 16.5l11 7l-18 10q-38 20 -19 54l21 32q14 19 37 15q5 -2 9 -4q30 -16 17 -68q-2 -5 -3 -10zM152 437l25 -14q2 27 -9 33q-6 3 -11.5 2t-8.5 -3l-4 -2v-8q3 -5 8 -8zM131 254q52 -1 85 -59 q37 -65 37 -162q1 -74 -21 -125q-23 -47 -60 -73q-46 -32 -98 -32v-57l-3 -1q-17 48 -60 52h-11v105q88 3 131 28q48 29 66 87q-4 15 -10 35l-31 -52h-16q-50 1 -77 25q-26 26 -24 67l9 87q4 38 38 62q21 13 45 13zM109 106h67q-20 59 -52 59h-3q-14 -1 -26 -9t-17 -16 l-4 -8l4 -12q11 -13 31 -14z" />
<glyph unicode="&#x6c7;" horiz-adv-x="352" arabic-form="final" d="M181 414l17 -8l-12 -45l-25 12q-35 -53 -128 -69l-8 5l29 43q20 1 40.5 9.5t31.5 16.5l11 7l-18 10q-38 20 -19 54l21 32q14 19 37 15q5 -2 9 -4q30 -16 17 -68q-2 -5 -3 -10zM132 437l25 -14q2 27 -9 33q-6 3 -11.5 2t-8.5 -3l-4 -2v-8q3 -5 8 -8zM352 106v-106h-100 q-7 -112 -80 -165q-48 -32 -98 -32v-57h-3q-23 53 -71 51v105q87 3 131 29q41 25 59 69h-51q-55 1 -82 30q-22 26 -18 62l9 88q4 37 37 60q21 14 46 14q44 -1 76 -44q29 -40 40 -104h105zM108 106h67q-17 59 -55 60q-13 0 -24.5 -8.5t-16.5 -17.5l-5 -8l5 -13q10 -12 29 -13 z" />
<glyph unicode="&#x6c6;" horiz-adv-x="447" arabic-form="isolated" d="M187 465l15 -36q-18 -16 -37 -55q-18 -36 -25 -70h-18q-5 28 -21 64q-20 43 -41 61l15 36q19 -15 35 -46q14 -30 21 -63q1 25 24 66q18 31 32 43zM131 254q52 -1 85 -59q37 -65 37 -162q1 -74 -21 -125q-23 -47 -60 -73q-46 -32 -98 -32v-57l-3 -1q-17 48 -60 52h-11v105 q88 3 131 28q48 29 66 87q-4 15 -10 35l-31 -52h-16q-50 1 -77 25q-26 26 -24 67l9 87q4 38 38 62q21 13 45 13zM109 106h67q-20 59 -52 59h-3q-14 -1 -26 -9t-17 -16l-4 -8l4 -12q11 -13 31 -14z" />
<glyph unicode="&#x6c6;" horiz-adv-x="352" arabic-form="final" d="M167 465l15 -36q-18 -16 -37 -55q-18 -36 -25 -70h-18q-5 28 -21 64q-20 43 -41 61l15 36q19 -15 35 -46q14 -30 21 -63q1 25 24 66q18 31 32 43zM352 106v-106h-100q-7 -112 -80 -165q-48 -32 -98 -32v-57h-3q-23 53 -71 51v105q87 3 131 29q41 25 59 69h-51 q-55 1 -82 30q-22 26 -18 62l9 88q4 37 37 60q21 14 46 14q44 -1 76 -44q29 -40 40 -104h105zM108 106h67q-17 59 -55 60q-13 0 -24.5 -8.5t-16.5 -17.5l-5 -8l5 -13q10 -12 29 -13z" />
<glyph unicode="&#x6c8;" horiz-adv-x="447" arabic-form="isolated" d="M126 304q7 20 1 54q-6 25 -19 41l21 36q17 -26 22 -45q9 -40 -7 -86h-18zM131 254q52 -1 85 -59q37 -65 37 -162q1 -74 -21 -125q-23 -47 -60 -73q-46 -32 -98 -32v-57l-3 -1q-17 48 -60 52h-11v105q88 3 131 28q48 29 66 87q-4 15 -10 35l-31 -52h-16q-50 1 -77 25 q-26 26 -24 67l9 87q4 38 38 62q21 13 45 13zM109 106h67q-20 59 -52 59h-3q-14 -1 -26 -9t-17 -16l-4 -8l4 -12q11 -13 31 -14z" />
<glyph unicode="&#x6c8;" horiz-adv-x="352" arabic-form="final" d="M106 304q7 20 1 54q-6 25 -19 41l21 36q17 -26 22 -45q9 -40 -7 -86h-18zM352 106v-106h-100q-7 -112 -80 -165q-48 -32 -98 -32v-57h-3q-23 53 -71 51v105q87 3 131 29q41 25 59 69h-51q-55 1 -82 30q-22 26 -18 62l9 88q4 37 37 60q21 14 46 14q44 -1 76 -44 q29 -40 40 -104h105zM108 106h67q-17 59 -55 60q-13 0 -24.5 -8.5t-16.5 -17.5l-5 -8l5 -13q10 -12 29 -13z" />
<glyph unicode="&#x677;" horiz-adv-x="597" arabic-form="isolated" d="M137 374l14 -7l-9 -37l-22 10q-27 -44 -105 -58l-8 4l24 36q17 1 34 8t26 14l9 6l-15 8q-30 16 -18 41q2 2 3 4l18 27q10 15 29 12q5 -1 8 -3q27 -14 14 -60q-1 -3 -2 -5zM245 345q30 8 35 -1l-1 -22q-75 -13 -128 -40l-6 4l23 35q12 7 29 10l-13 10q-11 13 -11 27 q0 7 1 10q1 0 4 4q35 40 59 41q12 0 20 -8t10 -16l2 -8l-20 -17q-8 15 -20 16q-3 0 -6.5 -1t-6.5 -2t-6 -3t-5 -3l-4 -2l-2 -1q14 -25 46 -33zM96 393l22 -12q0 22 -6 26q-2 1 -3 2q-5 2 -9.5 1.5t-7.5 -2.5l-3 -2l1 -8q3 -3 6 -5zM131 254q52 -1 85 -59q37 -65 37 -162 q1 -74 -21 -125q-23 -47 -60 -73q-46 -32 -98 -32v-57l-3 -1q-17 48 -60 52h-11v105q88 3 131 28q48 29 66 87q-4 15 -10 35l-31 -52h-16q-50 1 -77 25q-26 26 -24 67l9 87q4 38 38 62q21 13 45 13zM109 106h67q-20 59 -52 59h-3q-14 -1 -26 -9t-17 -16l-4 -8l4 -12 q11 -13 31 -14z" />
<glyph unicode="&#x6cb;" horiz-adv-x="447" arabic-form="isolated" d="M70 466q30 32 53 62q38 -20 62 -52q1 -2 2 -3q-25 -33 -53 -61q-35 36 -64 54zM26 358q33 37 53 62q32 -18 56 -44l37 44q40 -21 62 -52q1 -2 2 -3q-25 -33 -53 -61q-30 32 -51 46q-14 -18 -42 -46q-38 39 -64 54zM131 254q52 -1 85 -59q37 -65 37 -162q1 -74 -21 -125 q-23 -47 -60 -73q-46 -32 -98 -32v-57l-3 -1q-17 48 -60 52h-11v105q88 3 131 28q48 29 66 87q-4 15 -10 35l-31 -52h-16q-50 1 -77 25q-26 26 -24 67l9 87q4 38 38 62q21 13 45 13zM109 106h67q-20 59 -52 59h-3q-14 -1 -26 -9t-17 -16l-4 -8l4 -12q11 -13 31 -14z" />
<glyph unicode="&#x6cb;" horiz-adv-x="352" arabic-form="final" d="M49 466q30 32 53 62q38 -20 62 -52q1 -2 2 -3q-25 -33 -53 -61q-35 36 -64 54zM5 358q33 37 53 62q32 -18 56 -44l37 44q40 -21 62 -52q1 -2 2 -3q-25 -33 -53 -61q-30 32 -51 46q-14 -18 -42 -46q-38 39 -64 54zM352 106v-106h-100q-7 -112 -80 -165q-48 -32 -98 -32 v-57h-3q-23 53 -71 51v105q87 3 131 29q41 25 59 69h-51q-55 1 -82 30q-22 26 -18 62l9 88q4 37 37 60q21 14 46 14q44 -1 76 -44q29 -40 40 -104h105zM108 106h67q-17 59 -55 60q-13 0 -24.5 -8.5t-16.5 -17.5l-5 -8l5 -13q10 -12 29 -13z" />
<glyph unicode="&#x6c5;" horiz-adv-x="447" arabic-form="isolated" d="M259 -25l-11 -11q-4 -29 -16 -56q-23 -47 -60 -73q-46 -32 -98 -32v-57l-3 -1q-17 48 -60 52h-11v105q88 3 131 28q5 3 12 8h-65l-7 7l36 30h71q11 17 19 42q-4 15 -10 35l-31 -52h-16q-50 1 -77 25q-26 26 -24 67l9 87q4 38 38 62q21 13 45 13q52 -1 85 -59 q37 -65 37 -162q0 -33 -3 -58h9zM109 106h67q-20 59 -52 59h-3q-14 -1 -26 -9t-17 -16l-4 -8l4 -12q11 -13 31 -14z" />
<glyph unicode="&#x6c5;" horiz-adv-x="352" arabic-form="final" d="M352 0h-100q0 -3 -1 -9q-1 -12 -2 -17h10l-11 -12q-16 -83 -76 -127q-48 -32 -98 -32v-57h-3q-23 53 -71 51v105q87 3 131 29l9 6h-62l-7 7l36 30h70q7 12 13 26h-51q-55 1 -82 30q-22 26 -18 62l9 88q4 37 37 60q21 14 46 14q44 -1 76 -44q29 -40 40 -104h105v-106z M108 106h67q-17 59 -55 60q-13 0 -24.5 -8.5t-16.5 -17.5l-5 -8l5 -13q10 -12 29 -13z" />
<glyph unicode="&#x6c9;" horiz-adv-x="447" arabic-form="isolated" d="M187 304q-15 13 -32 43q-24 41 -24 66q-7 -34 -21 -63q-17 -32 -35 -46l-15 36q21 19 41 61q17 37 21 64h18q8 -35 25 -70q19 -40 37 -55zM131 254q52 -1 85 -59q37 -65 37 -162q1 -74 -21 -125q-23 -47 -60 -73q-46 -32 -98 -32v-57l-3 -1q-17 48 -60 52h-11v105 q88 3 131 28q48 29 66 87q-4 15 -10 35l-31 -52h-16q-50 1 -77 25q-26 26 -24 67l9 87q4 38 38 62q21 13 45 13zM109 106h67q-20 59 -52 59h-3q-14 -1 -26 -9t-17 -16l-4 -8l4 -12q11 -13 31 -14z" />
<glyph unicode="&#x6c9;" horiz-adv-x="352" arabic-form="final" d="M167 304q-15 13 -32 43q-24 41 -24 66q-7 -34 -21 -63q-17 -32 -35 -46l-15 36q21 19 41 61q17 37 21 64h18q8 -35 25 -70q19 -40 37 -55zM352 106v-106h-100q-7 -112 -80 -165q-48 -32 -98 -32v-57h-3q-23 53 -71 51v105q87 3 131 29q41 25 59 69h-51q-55 1 -82 30 q-22 26 -18 62l9 88q4 37 37 60q21 14 46 14q44 -1 76 -44q29 -40 40 -104h105zM108 106h67q-17 59 -55 60q-13 0 -24.5 -8.5t-16.5 -17.5l-5 -8l5 -13q10 -12 29 -13z" />
<glyph unicode="&#x6d0;" horiz-adv-x="760" arabic-form="isolated" d="M432 116q55 -9 80 -27q29 -24 23 -65q-7 -46 -18 -86q-13 -44 -90 -86q-76 -43 -149 -43q-107 1 -157 55q-51 56 -51 143q1 45 17 96q15 47 40 74l16 -6q-27 -59 -31 -88q-2 -12 -2 -22q0 -67 54 -106q49 -33 117 -33q66 0 115 16q62 21 85 58q-2 10 -66 18q-13 1 -20 2 q-50 8 -73 29q-20 21 -20 59q1 67 47 136q56 80 121 81q53 0 71 -53q6 -18 6 -37q-1 -35 -15 -61l-24 -8q1 56 -30 63q-6 1 -13 1q-42 0 -89 -51q-9 -9 -19 -21q0 -25 41 -33q9 -1 34 -5zM293 -351q33 -23 49 -46q-25 -33 -53 -61q-38 39 -64 54q34 37 53 61q-28 27 -53 43 q31 31 53 62q43 -25 64 -55q-19 -28 -49 -58z" />
<glyph unicode="&#x6d0;" horiz-adv-x="629" arabic-form="final" d="M629 106v-106h-118q15 -14 15 -43q0 -66 -90 -115q-14 -8 -28 -14q-68 -30 -137 -30q-101 1 -152 60q-49 57 -49 146q1 115 57 183l16 -16q-33 -43 -33 -104q1 -60 30 -97q46 -58 147 -58q126 1 182 54q-23 34 -80 34h-34l-11 21l26 85h259zM285 -360q33 -23 49 -46 q-25 -33 -53 -61q-38 39 -64 54q34 37 53 61q-28 27 -53 43q31 31 53 62q43 -25 64 -55q-19 -28 -49 -58z" />
<glyph unicode="&#x6d0;" horiz-adv-x="234" arabic-form="initial" d="M174 148v-31q-1 -46 -34 -78q-32 -31 -82 -38q-6 -1 -11 -1h-64q-34 0 -48 31q-5 11 -5 22q0 35 31 48q11 5 22 5h56q48 0 76 13q12 6 20 12q-16 54 -75 84l29 106q39 -27 60 -65q25 -46 25 -108zM42 -168q33 -23 49 -46q-25 -33 -53 -61q-38 39 -64 54q34 37 53 61 q-28 27 -53 43q31 31 53 62q43 -25 64 -55q-19 -28 -49 -58z" />
<glyph unicode="&#x6d0;" horiz-adv-x="276" arabic-form="medial" d="M233 106h43v-106h-47q-41 1 -67 21q-17 16 -25 34q-4 -16 -22 -31q-29 -24 -83 -24h-49q-33 0 -48 30q-5 11 -5 23q0 33 30 48q11 5 23 5h68q41 1 64 21l6 6q3 3 5 6t4 7t3 6.5t2.5 6.5t1.5 6l2 6q1 4 1.5 5t1.5 4v4l15 -8q-2 -36 17 -53t59 -17zM25 -167q33 -23 49 -46 q-25 -33 -53 -61q-38 39 -64 54q34 37 53 61q-28 27 -53 43q31 31 53 62q43 -25 64 -55q-19 -28 -49 -58z" />
<glyph unicode="&#x649;" horiz-adv-x="234" arabic-form="initial" d="M174 148v-31q-1 -46 -34 -78q-32 -31 -82 -38q-6 -1 -11 -1h-64q-34 0 -48 31q-5 11 -5 22q0 35 31 48q11 5 22 5h56q48 0 76 13q12 6 20 12q-16 54 -75 84l29 106q39 -27 60 -65q25 -46 25 -108z" />
<glyph unicode="&#x649;" horiz-adv-x="276" arabic-form="medial" d="M233 106h43v-106h-47q-41 1 -67 21q-17 16 -25 34q-4 -16 -22 -31q-29 -24 -83 -24h-49q-33 0 -48 30q-5 11 -5 23q0 33 30 48q11 5 23 5h68q41 1 64 21l6 6q3 3 5 6t4 7t3 6.5t2.5 6.5t1.5 6l2 6q1 4 1.5 5t1.5 4v4l15 -8q-2 -36 17 -53t59 -17z" />
<glyph unicode="&#xfbea;" horiz-adv-x="560" arabic-form="isolated" d="M336 377q29 7 57 11l-15 -39q-91 -16 -154 -48l-7 5l28 42q4 2 19 7q11 4 14 5l-15 10q-13 15 -14 34q1 6 3 11q42 54 76 55q13 0 22.5 -9.5t12.5 -18.5l2 -10l-23 -21q-9 18 -24 19q-4 0 -9 -1.5t-9.5 -3.5t-8 -4t-6.5 -4l-3 -2q20 -30 54 -38zM465 148v-31 q-1 -46 -34 -78q-32 -31 -82 -38q-6 -1 -11 -1h-64q-34 0 -48 31q-5 11 -5 22q0 35 31 48q11 5 22 5h56q48 0 76 13q12 6 20 12q-16 54 -75 84l29 106q39 -27 60 -65q25 -46 25 -108zM169 106h60v-106h-53q-62 1 -94 36q-31 34 -33 102q-4 225 -7 297q-4 75 -22 161v3 q46 51 64 82h13q2 -21 6 -156q5 -97 5 -133q0 -97 4 -190q3 -50 14 -71q16 -24 43 -25z" />
<glyph unicode="&#xfbeb;" horiz-adv-x="634" arabic-form="final" d="M350 269q29 7 57 11l-15 -39q-91 -16 -154 -48l-7 5l28 42q4 2 19 7q11 4 14 5l-15 10q-13 15 -14 34q1 6 3 11q42 54 76 55q13 0 22.5 -9.5t12.5 -18.5l2 -10l-23 -21q-9 18 -24 19q-4 0 -9 -1.5t-9.5 -3.5t-8 -4t-6.5 -4l-3 -2q20 -30 54 -38zM524 106h43v-106h-47 q-41 1 -67 21q-17 16 -25 34q-4 -16 -22 -31q-29 -24 -83 -24h-49q-33 0 -48 30q-5 11 -5 23q0 33 30 48q11 5 23 5h68q41 1 64 21l6 6q3 3 5 6t4 7t3 6.5t2.5 6.5t1.5 6l2 6q1 4 1.5 5t1.5 4v4l15 -8q-2 -36 17 -53t59 -17zM169 106h60v-106h-53q-62 1 -94 36 q-31 34 -33 102q-4 225 -7 297q-4 75 -22 161v3q46 51 64 82h13q2 -21 6 -156q5 -97 5 -133q0 -97 4 -190q3 -50 14 -71q16 -24 43 -25z" />
<glyph unicode="&#xfbec;" horiz-adv-x="755" arabic-form="isolated" d="M531 377q29 7 57 11l-15 -39q-91 -16 -154 -48l-7 5l28 42q4 2 19 7q11 4 14 5l-15 10q-13 15 -14 34q1 6 3 11q42 54 76 55q13 0 22.5 -9.5t12.5 -18.5l2 -10l-23 -21q-9 18 -24 19q-4 0 -9 -1.5t-9.5 -3.5t-8 -4t-6.5 -4l-3 -2q20 -30 54 -38zM660 148v-31 q-1 -46 -34 -78q-32 -31 -82 -38q-6 -1 -11 -1h-64q-34 0 -48 31q-5 11 -5 22q0 35 31 48q11 5 22 5h56q48 0 76 13q12 6 20 12q-16 54 -75 84l29 106q39 -27 60 -65q25 -46 25 -108zM357 106h47v-106h-52q-81 0 -102 71q-2 7 -4 15q-11 52 -15 72l-32 -57l-71 -1 q-27 0 -49 30q-9 12 -9 20v77q1 39 30 62q12 10 59 29q23 9 36 18q-3 37 32 67l10 8q43 -191 52 -230q9 -36 22 -54q17 -21 46 -21zM170 195q34 0 46 11l4 4l-16 80l-23 -31q-60 -10 -84 -50q9 -13 26 -14h47z" />
<glyph unicode="&#xfbed;" horiz-adv-x="829" arabic-form="final" d="M545 269q29 7 57 11l-15 -39q-91 -16 -154 -48l-7 5l28 42q4 2 19 7q11 4 14 5l-15 10q-13 15 -14 34q1 6 3 11q42 54 76 55q13 0 22.5 -9.5t12.5 -18.5l2 -10l-23 -21q-9 18 -24 19q-4 0 -9 -1.5t-9.5 -3.5t-8 -4t-6.5 -4l-3 -2q20 -30 54 -38zM719 106h43v-106h-47 q-41 1 -67 21q-17 16 -25 34q-4 -16 -22 -31q-29 -24 -83 -24h-49q-33 0 -48 30q-5 11 -5 23q0 33 30 48q11 5 23 5h68q41 1 64 21l6 6q3 3 5 6t4 7t3 6.5t2.5 6.5t1.5 6l2 6q1 4 1.5 5t1.5 4v4l15 -8q-2 -36 17 -53t59 -17zM357 106h47v-106h-52q-81 0 -102 71q-2 7 -4 15 q-11 52 -15 72l-32 -57l-71 -1q-27 0 -49 30q-9 12 -9 20v77q1 39 30 62q12 10 59 29q23 9 36 18q-3 37 32 67l10 8q43 -191 52 -230q9 -36 22 -54q17 -21 46 -21zM170 195q34 0 46 11l4 4l-16 80l-23 -31q-60 -10 -84 -50q9 -13 26 -14h47z" />
<glyph unicode="&#xfbee;" horiz-adv-x="741" arabic-form="isolated" d="M517 377q29 7 57 11l-15 -39q-91 -16 -154 -48l-7 5l28 42q4 2 19 7q11 4 14 5l-15 10q-13 15 -14 34q1 6 3 11q42 54 76 55q13 0 22.5 -9.5t12.5 -18.5l2 -10l-23 -21q-9 18 -24 19q-4 0 -9 -1.5t-9.5 -3.5t-8 -4t-6.5 -4l-3 -2q20 -30 54 -38zM646 148v-31 q-1 -46 -34 -78q-32 -31 -82 -38q-6 -1 -11 -1h-64q-34 0 -48 31q-5 11 -5 22q0 35 31 48q11 5 22 5h56q48 0 76 13q12 6 20 12q-16 54 -75 84l29 106q39 -27 60 -65q25 -46 25 -108zM352 106v-106h-100q-7 -112 -80 -165q-48 -32 -98 -32v-57h-3q-23 53 -71 51v105 q87 3 131 29q41 25 59 69h-51q-55 1 -82 30q-22 26 -18 62l9 88q4 37 37 60q21 14 46 14q44 -1 76 -44q29 -40 40 -104h105zM108 106h67q-17 59 -55 60q-13 0 -24.5 -8.5t-16.5 -17.5l-5 -8l5 -13q10 -12 29 -13z" />
<glyph unicode="&#xfbef;" horiz-adv-x="815" arabic-form="final" d="M531 269q29 7 57 11l-15 -39q-91 -16 -154 -48l-7 5l28 42q4 2 19 7q11 4 14 5l-15 10q-13 15 -14 34q1 6 3 11q42 54 76 55q13 0 22.5 -9.5t12.5 -18.5l2 -10l-23 -21q-9 18 -24 19q-4 0 -9 -1.5t-9.5 -3.5t-8 -4t-6.5 -4l-3 -2q20 -30 54 -38zM705 106h43v-106h-47 q-41 1 -67 21q-17 16 -25 34q-4 -16 -22 -31q-29 -24 -83 -24h-49q-33 0 -48 30q-5 11 -5 23q0 33 30 48q11 5 23 5h68q41 1 64 21l6 6q3 3 5 6t4 7t3 6.5t2.5 6.5t1.5 6l2 6q1 4 1.5 5t1.5 4v4l15 -8q-2 -36 17 -53t59 -17zM352 106v-106h-100q-7 -112 -80 -165 q-48 -32 -98 -32v-57h-3q-23 53 -71 51v105q87 3 131 29q41 25 59 69h-51q-55 1 -82 30q-22 26 -18 62l9 88q4 37 37 60q21 14 46 14q44 -1 76 -44q29 -40 40 -104h105zM108 106h67q-17 59 -55 60q-13 0 -24.5 -8.5t-16.5 -17.5l-5 -8l5 -13q10 -12 29 -13z" />
<glyph unicode="&#xfbf0;" horiz-adv-x="741" arabic-form="isolated" d="M517 377q29 7 57 11l-15 -39q-91 -16 -154 -48l-7 5l28 42q4 2 19 7q11 4 14 5l-15 10q-13 15 -14 34q1 6 3 11q42 54 76 55q13 0 22.5 -9.5t12.5 -18.5l2 -10l-23 -21q-9 18 -24 19q-4 0 -9 -1.5t-9.5 -3.5t-8 -4t-6.5 -4l-3 -2q20 -30 54 -38zM646 148v-31 q-1 -46 -34 -78q-32 -31 -82 -38q-6 -1 -11 -1h-64q-34 0 -48 31q-5 11 -5 22q0 35 31 48q11 5 22 5h56q48 0 76 13q12 6 20 12q-16 54 -75 84l29 106q39 -27 60 -65q25 -46 25 -108zM181 414l17 -8l-12 -45l-25 12q-35 -53 -128 -69l-8 5l29 43q20 1 40.5 9.5t31.5 16.5 l11 7l-18 10q-38 20 -19 54l21 32q14 19 37 15q5 -2 9 -4q30 -16 17 -68q-2 -5 -3 -10zM132 437l25 -14q2 27 -9 33q-6 3 -11.5 2t-8.5 -3l-4 -2v-8q3 -5 8 -8zM352 106v-106h-100q-7 -112 -80 -165q-48 -32 -98 -32v-57h-3q-23 53 -71 51v105q87 3 131 29q41 25 59 69h-51 q-55 1 -82 30q-22 26 -18 62l9 88q4 37 37 60q21 14 46 14q44 -1 76 -44q29 -40 40 -104h105zM108 106h67q-17 59 -55 60q-13 0 -24.5 -8.5t-16.5 -17.5l-5 -8l5 -13q10 -12 29 -13z" />
<glyph unicode="&#xfbf1;" horiz-adv-x="815" arabic-form="final" d="M531 269q29 7 57 11l-15 -39q-91 -16 -154 -48l-7 5l28 42q4 2 19 7q11 4 14 5l-15 10q-13 15 -14 34q1 6 3 11q42 54 76 55q13 0 22.5 -9.5t12.5 -18.5l2 -10l-23 -21q-9 18 -24 19q-4 0 -9 -1.5t-9.5 -3.5t-8 -4t-6.5 -4l-3 -2q20 -30 54 -38zM705 106h43v-106h-47 q-41 1 -67 21q-17 16 -25 34q-4 -16 -22 -31q-29 -24 -83 -24h-49q-33 0 -48 30q-5 11 -5 23q0 33 30 48q11 5 23 5h68q41 1 64 21l6 6q3 3 5 6t4 7t3 6.5t2.5 6.5t1.5 6l2 6q1 4 1.5 5t1.5 4v4l15 -8q-2 -36 17 -53t59 -17zM181 414l17 -8l-12 -45l-25 12q-35 -53 -128 -69 l-8 5l29 43q20 1 40.5 9.5t31.5 16.5l11 7l-18 10q-38 20 -19 54l21 32q14 19 37 15q5 -2 9 -4q30 -16 17 -68q-2 -5 -3 -10zM132 437l25 -14q2 27 -9 33q-6 3 -11.5 2t-8.5 -3l-4 -2v-8q3 -5 8 -8zM352 106v-106h-100q-7 -112 -80 -165q-48 -32 -98 -32v-57h-3 q-23 53 -71 51v105q87 3 131 29q41 25 59 69h-51q-55 1 -82 30q-22 26 -18 62l9 88q4 37 37 60q21 14 46 14q44 -1 76 -44q29 -40 40 -104h105zM108 106h67q-17 59 -55 60q-13 0 -24.5 -8.5t-16.5 -17.5l-5 -8l5 -13q10 -12 29 -13z" />
<glyph unicode="&#xfbf2;" horiz-adv-x="741" arabic-form="isolated" d="M517 377q29 7 57 11l-15 -39q-91 -16 -154 -48l-7 5l28 42q4 2 19 7q11 4 14 5l-15 10q-13 15 -14 34q1 6 3 11q42 54 76 55q13 0 22.5 -9.5t12.5 -18.5l2 -10l-23 -21q-9 18 -24 19q-4 0 -9 -1.5t-9.5 -3.5t-8 -4t-6.5 -4l-3 -2q20 -30 54 -38zM646 148v-31 q-1 -46 -34 -78q-32 -31 -82 -38q-6 -1 -11 -1h-64q-34 0 -48 31q-5 11 -5 22q0 35 31 48q11 5 22 5h56q48 0 76 13q12 6 20 12q-16 54 -75 84l29 106q39 -27 60 -65q25 -46 25 -108zM167 465l15 -36q-18 -16 -37 -55q-18 -36 -25 -70h-18q-5 28 -21 64q-20 43 -41 61l15 36 q19 -15 35 -46q14 -30 21 -63q1 25 24 66q18 31 32 43zM352 106v-106h-100q-7 -112 -80 -165q-48 -32 -98 -32v-57h-3q-23 53 -71 51v105q87 3 131 29q41 25 59 69h-51q-55 1 -82 30q-22 26 -18 62l9 88q4 37 37 60q21 14 46 14q44 -1 76 -44q29 -40 40 -104h105zM108 106 h67q-17 59 -55 60q-13 0 -24.5 -8.5t-16.5 -17.5l-5 -8l5 -13q10 -12 29 -13z" />
<glyph unicode="&#xfbf3;" horiz-adv-x="815" arabic-form="final" d="M531 269q29 7 57 11l-15 -39q-91 -16 -154 -48l-7 5l28 42q4 2 19 7q11 4 14 5l-15 10q-13 15 -14 34q1 6 3 11q42 54 76 55q13 0 22.5 -9.5t12.5 -18.5l2 -10l-23 -21q-9 18 -24 19q-4 0 -9 -1.5t-9.5 -3.5t-8 -4t-6.5 -4l-3 -2q20 -30 54 -38zM705 106h43v-106h-47 q-41 1 -67 21q-17 16 -25 34q-4 -16 -22 -31q-29 -24 -83 -24h-49q-33 0 -48 30q-5 11 -5 23q0 33 30 48q11 5 23 5h68q41 1 64 21l6 6q3 3 5 6t4 7t3 6.5t2.5 6.5t1.5 6l2 6q1 4 1.5 5t1.5 4v4l15 -8q-2 -36 17 -53t59 -17zM167 465l15 -36q-18 -16 -37 -55 q-18 -36 -25 -70h-18q-5 28 -21 64q-20 43 -41 61l15 36q19 -15 35 -46q14 -30 21 -63q1 25 24 66q18 31 32 43zM352 106v-106h-100q-7 -112 -80 -165q-48 -32 -98 -32v-57h-3q-23 53 -71 51v105q87 3 131 29q41 25 59 69h-51q-55 1 -82 30q-22 26 -18 62l9 88q4 37 37 60 q21 14 46 14q44 -1 76 -44q29 -40 40 -104h105zM108 106h67q-17 59 -55 60q-13 0 -24.5 -8.5t-16.5 -17.5l-5 -8l5 -13q10 -12 29 -13z" />
<glyph unicode="&#xfbf4;" horiz-adv-x="741" arabic-form="isolated" d="M517 377q29 7 57 11l-15 -39q-91 -16 -154 -48l-7 5l28 42q4 2 19 7q11 4 14 5l-15 10q-13 15 -14 34q1 6 3 11q42 54 76 55q13 0 22.5 -9.5t12.5 -18.5l2 -10l-23 -21q-9 18 -24 19q-4 0 -9 -1.5t-9.5 -3.5t-8 -4t-6.5 -4l-3 -2q20 -30 54 -38zM646 148v-31 q-1 -46 -34 -78q-32 -31 -82 -38q-6 -1 -11 -1h-64q-34 0 -48 31q-5 11 -5 22q0 35 31 48q11 5 22 5h56q48 0 76 13q12 6 20 12q-16 54 -75 84l29 106q39 -27 60 -65q25 -46 25 -108zM106 304q7 20 1 54q-6 25 -19 41l21 36q17 -26 22 -45q9 -40 -7 -86h-18zM352 106v-106 h-100q-7 -112 -80 -165q-48 -32 -98 -32v-57h-3q-23 53 -71 51v105q87 3 131 29q41 25 59 69h-51q-55 1 -82 30q-22 26 -18 62l9 88q4 37 37 60q21 14 46 14q44 -1 76 -44q29 -40 40 -104h105zM108 106h67q-17 59 -55 60q-13 0 -24.5 -8.5t-16.5 -17.5l-5 -8l5 -13 q10 -12 29 -13z" />
<glyph unicode="&#xfbf5;" horiz-adv-x="815" arabic-form="final" d="M531 269q29 7 57 11l-15 -39q-91 -16 -154 -48l-7 5l28 42q4 2 19 7q11 4 14 5l-15 10q-13 15 -14 34q1 6 3 11q42 54 76 55q13 0 22.5 -9.5t12.5 -18.5l2 -10l-23 -21q-9 18 -24 19q-4 0 -9 -1.5t-9.5 -3.5t-8 -4t-6.5 -4l-3 -2q20 -30 54 -38zM705 106h43v-106h-47 q-41 1 -67 21q-17 16 -25 34q-4 -16 -22 -31q-29 -24 -83 -24h-49q-33 0 -48 30q-5 11 -5 23q0 33 30 48q11 5 23 5h68q41 1 64 21l6 6q3 3 5 6t4 7t3 6.5t2.5 6.5t1.5 6l2 6q1 4 1.5 5t1.5 4v4l15 -8q-2 -36 17 -53t59 -17zM106 304q7 20 1 54q-6 25 -19 41l21 36 q17 -26 22 -45q9 -40 -7 -86h-18zM352 106v-106h-100q-7 -112 -80 -165q-48 -32 -98 -32v-57h-3q-23 53 -71 51v105q87 3 131 29q41 25 59 69h-51q-55 1 -82 30q-22 26 -18 62l9 88q4 37 37 60q21 14 46 14q44 -1 76 -44q29 -40 40 -104h105zM108 106h67q-17 59 -55 60 q-13 0 -24.5 -8.5t-16.5 -17.5l-5 -8l5 -13q10 -12 29 -13z" />
<glyph unicode="&#xfbf6;" horiz-adv-x="1005" arabic-form="isolated" d="M781 377q29 7 57 11l-15 -39q-91 -16 -154 -48l-7 5l28 42q4 2 19 7q11 4 14 5l-15 10q-13 15 -14 34q1 6 3 11q42 54 76 55q13 0 22.5 -9.5t12.5 -18.5l2 -10l-23 -21q-9 18 -24 19q-4 0 -9 -1.5t-9.5 -3.5t-8 -4t-6.5 -4l-3 -2q20 -30 54 -38zM910 148v-31 q-1 -46 -34 -78q-32 -31 -82 -38q-6 -1 -11 -1h-64q-34 0 -48 31q-5 11 -5 22q0 35 31 48q11 5 22 5h56q48 0 76 13q12 6 20 12q-16 54 -75 84l29 106q39 -27 60 -65q25 -46 25 -108zM629 106v-106h-118q15 -14 15 -43q0 -66 -90 -115q-14 -8 -28 -14q-68 -30 -137 -30 q-101 1 -152 60q-49 57 -49 146q1 115 57 183l16 -16q-33 -43 -33 -104q1 -60 30 -97q46 -58 147 -58q126 1 182 54q-23 34 -80 34h-34l-11 21l26 85h259zM285 -360q33 -23 49 -46q-25 -33 -53 -61q-38 39 -64 54q34 37 53 61q-28 27 -53 43q31 31 53 62q43 -25 64 -55 q-19 -28 -49 -58z" />
<glyph unicode="&#xfbf7;" horiz-adv-x="1079" arabic-form="final" d="M795 269q29 7 57 11l-15 -39q-91 -16 -154 -48l-7 5l28 42q4 2 19 7q11 4 14 5l-15 10q-13 15 -14 34q1 6 3 11q42 54 76 55q13 0 22.5 -9.5t12.5 -18.5l2 -10l-23 -21q-9 18 -24 19q-4 0 -9 -1.5t-9.5 -3.5t-8 -4t-6.5 -4l-3 -2q20 -30 54 -38zM969 106h43v-106h-47 q-41 1 -67 21q-17 16 -25 34q-4 -16 -22 -31q-29 -24 -83 -24h-49q-33 0 -48 30q-5 11 -5 23q0 33 30 48q11 5 23 5h68q41 1 64 21l6 6q3 3 5 6t4 7t3 6.5t2.5 6.5t1.5 6l2 6q1 4 1.5 5t1.5 4v4l15 -8q-2 -36 17 -53t59 -17zM629 106v-106h-118q15 -14 15 -43 q0 -66 -90 -115q-14 -8 -28 -14q-68 -30 -137 -30q-101 1 -152 60q-49 57 -49 146q1 115 57 183l16 -16q-33 -43 -33 -104q1 -60 30 -97q46 -58 147 -58q126 1 182 54q-23 34 -80 34h-34l-11 21l26 85h259zM285 -360q33 -23 49 -46q-25 -33 -53 -61q-38 39 -64 54 q34 37 53 61q-28 27 -53 43q31 31 53 62q43 -25 64 -55q-19 -28 -49 -58z" />
<glyph unicode="&#xfbf8;" horiz-adv-x="612" arabic-form="initial" d="M388 377q29 7 57 11l-15 -39q-91 -16 -154 -48l-7 5l28 42q4 2 19 7q11 4 14 5l-15 10q-13 15 -14 34q1 6 3 11q42 54 76 55q13 0 22.5 -9.5t12.5 -18.5l2 -10l-23 -21q-9 18 -24 19q-4 0 -9 -1.5t-9.5 -3.5t-8 -4t-6.5 -4l-3 -2q20 -30 54 -38zM517 148v-31 q-1 -46 -34 -78q-32 -31 -82 -38q-6 -1 -11 -1h-64q-34 0 -48 31q-5 11 -5 22q0 35 31 48q11 5 22 5h56q48 0 76 13q12 6 20 12q-16 54 -75 84l29 106q39 -27 60 -65q25 -46 25 -108zM233 106h43v-106h-47q-41 1 -67 21q-17 16 -25 34q-4 -16 -22 -31q-29 -24 -83 -24h-49 q-33 0 -48 30q-5 11 -5 23q0 33 30 48q11 5 23 5h68q41 1 64 21l6 6q3 3 5 6t4 7t3 6.5t2.5 6.5t1.5 6l2 6q1 4 1.5 5t1.5 4v4l15 -8q-2 -36 17 -53t59 -17zM25 -167q33 -23 49 -46q-25 -33 -53 -61q-38 39 -64 54q34 37 53 61q-28 27 -53 43q31 31 53 62q43 -25 64 -55 q-19 -28 -49 -58z" />
<glyph unicode="&#xfbf9;" horiz-adv-x="1005" arabic-form="isolated" d="M781 377q29 7 57 11l-15 -39q-91 -16 -154 -48l-7 5l28 42q4 2 19 7q11 4 14 5l-15 10q-13 15 -14 34q1 6 3 11q42 54 76 55q13 0 22.5 -9.5t12.5 -18.5l2 -10l-23 -21q-9 18 -24 19q-4 0 -9 -1.5t-9.5 -3.5t-8 -4t-6.5 -4l-3 -2q20 -30 54 -38zM910 148v-31 q-1 -46 -34 -78q-32 -31 -82 -38q-6 -1 -11 -1h-64q-34 0 -48 31q-5 11 -5 22q0 35 31 48q11 5 22 5h56q48 0 76 13q12 6 20 12q-16 54 -75 84l29 106q39 -27 60 -65q25 -46 25 -108zM629 106v-106h-118q15 -14 15 -43q0 -66 -90 -115q-14 -8 -28 -14q-68 -30 -137 -30 q-101 1 -152 60q-49 57 -49 146q1 115 57 183l16 -16q-33 -43 -33 -104q1 -60 30 -97q46 -58 147 -58q126 1 182 54q-23 34 -80 34h-34l-11 21l26 85h259z" />
<glyph unicode="&#xfbfa;" horiz-adv-x="1079" arabic-form="final" d="M795 269q29 7 57 11l-15 -39q-91 -16 -154 -48l-7 5l28 42q4 2 19 7q11 4 14 5l-15 10q-13 15 -14 34q1 6 3 11q42 54 76 55q13 0 22.5 -9.5t12.5 -18.5l2 -10l-23 -21q-9 18 -24 19q-4 0 -9 -1.5t-9.5 -3.5t-8 -4t-6.5 -4l-3 -2q20 -30 54 -38zM969 106h43v-106h-47 q-41 1 -67 21q-17 16 -25 34q-4 -16 -22 -31q-29 -24 -83 -24h-49q-33 0 -48 30q-5 11 -5 23q0 33 30 48q11 5 23 5h68q41 1 64 21l6 6q3 3 5 6t4 7t3 6.5t2.5 6.5t1.5 6l2 6q1 4 1.5 5t1.5 4v4l15 -8q-2 -36 17 -53t59 -17zM629 106v-106h-118q15 -14 15 -43 q0 -66 -90 -115q-14 -8 -28 -14q-68 -30 -137 -30q-101 1 -152 60q-49 57 -49 146q1 115 57 183l16 -16q-33 -43 -33 -104q1 -60 30 -97q46 -58 147 -58q126 1 182 54q-23 34 -80 34h-34l-11 21l26 85h259z" />
<glyph unicode="&#xfbfb;" horiz-adv-x="612" arabic-form="initial" d="M388 377q29 7 57 11l-15 -39q-91 -16 -154 -48l-7 5l28 42q4 2 19 7q11 4 14 5l-15 10q-13 15 -14 34q1 6 3 11q42 54 76 55q13 0 22.5 -9.5t12.5 -18.5l2 -10l-23 -21q-9 18 -24 19q-4 0 -9 -1.5t-9.5 -3.5t-8 -4t-6.5 -4l-3 -2q20 -30 54 -38zM517 148v-31 q-1 -46 -34 -78q-32 -31 -82 -38q-6 -1 -11 -1h-64q-34 0 -48 31q-5 11 -5 22q0 35 31 48q11 5 22 5h56q48 0 76 13q12 6 20 12q-16 54 -75 84l29 106q39 -27 60 -65q25 -46 25 -108zM233 106h43v-106h-47q-41 1 -67 21q-17 16 -25 34q-4 -16 -22 -31q-29 -24 -83 -24h-49 q-33 0 -48 30q-5 11 -5 23q0 33 30 48q11 5 23 5h68q41 1 64 21l6 6q3 3 5 6t4 7t3 6.5t2.5 6.5t1.5 6l2 6q1 4 1.5 5t1.5 4v4l15 -8q-2 -36 17 -53t59 -17z" />
<glyph unicode="&#x6cc;" horiz-adv-x="760" arabic-form="isolated" d="M432 116q55 -9 80 -27q29 -24 23 -65q-7 -46 -18 -86q-13 -44 -90 -86q-76 -43 -149 -43q-107 1 -157 55q-51 56 -51 143q1 45 17 96q15 47 40 74l16 -6q-27 -59 -31 -88q-2 -12 -2 -22q0 -67 54 -106q49 -33 117 -33q66 0 115 16q62 21 85 58q-2 10 -66 18q-13 1 -20 2 q-50 8 -73 29q-20 21 -20 59q1 67 47 136q56 80 121 81q53 0 71 -53q6 -18 6 -37q-1 -35 -15 -61l-24 -8q1 56 -30 63q-6 1 -13 1q-42 0 -89 -51q-9 -9 -19 -21q0 -25 41 -33q9 -1 34 -5z" />
<glyph unicode="&#x6cc;" horiz-adv-x="629" arabic-form="final" d="M629 106v-106h-118q15 -14 15 -43q0 -66 -90 -115q-14 -8 -28 -14q-68 -30 -137 -30q-101 1 -152 60q-49 57 -49 146q1 115 57 183l16 -16q-33 -43 -33 -104q1 -60 30 -97q46 -58 147 -58q126 1 182 54q-23 34 -80 34h-34l-11 21l26 85h259z" />
<glyph unicode="&#x6cc;" horiz-adv-x="234" arabic-form="initial" d="M174 148v-31q-1 -46 -34 -78q-32 -31 -82 -38q-6 -1 -11 -1h-64q-34 0 -48 31q-5 11 -5 22q0 35 31 48q11 5 22 5h56q48 0 76 13q12 6 20 12q-16 54 -75 84l29 106q39 -27 60 -65q25 -46 25 -108zM-71 -117q42 47 53 62q31 -17 55 -44q27 29 37 44q40 -20 62 -52 q1 -2 2 -3q-25 -33 -53 -61q-26 27 -51 46q-18 -23 -41 -46q-41 41 -64 54z" />
<glyph unicode="&#x6cc;" horiz-adv-x="276" arabic-form="medial" d="M233 106h43v-106h-47q-41 1 -67 21q-17 16 -25 34q-4 -16 -22 -31q-29 -24 -83 -24h-49q-33 0 -48 30q-5 11 -5 23q0 33 30 48q11 5 23 5h68q41 1 64 21l6 6q3 3 5 6t4 7t3 6.5t2.5 6.5t1.5 6l2 6q1 4 1.5 5t1.5 4v4l15 -8q-2 -36 17 -53t59 -17zM-88 -116q42 47 53 62 q31 -17 55 -44q27 29 37 44q40 -20 62 -52q1 -2 2 -3q-25 -33 -53 -61q-26 27 -51 46q-18 -23 -41 -46q-41 41 -64 54z" />
<glyph unicode="&#xfc00;" horiz-adv-x="918" arabic-form="isolated" d="M694 377q29 7 57 11l-15 -39q-91 -16 -154 -48l-7 5l28 42q4 2 19 7q11 4 14 5l-15 10q-13 15 -14 34q1 6 3 11q42 54 76 55q13 0 22.5 -9.5t12.5 -18.5l2 -10l-23 -21q-9 18 -24 19q-4 0 -9 -1.5t-9.5 -3.5t-8 -4t-6.5 -4l-3 -2q20 -30 54 -38zM823 148v-31 q-1 -46 -34 -78q-32 -31 -82 -38q-6 -1 -11 -1h-64q-34 0 -48 31q-5 11 -5 22q0 35 31 48q11 5 22 5h56q48 0 76 13q12 6 20 12q-16 54 -75 84l29 106q39 -27 60 -65q25 -46 25 -108zM556 106h52v-106h-56q-74 1 -112 40q-34 37 -34 97q0 25 5 43q-36 -4 -76 -16 q-75 -24 -133 -68q2 -14 1 -24t-3 -15l-2 -5l-10 22l-4 4q-51 -51 -60 -124q-1 -11 -1 -21q0 -90 82 -148l12 -8q74 -46 182 -46h95l-87 -101h-58q-133 1 -201 65q-66 62 -76 172q-2 17 -2 34q1 127 82 213q-11 11 -29.5 26.5t-31.5 25.5l-13 10v47q1 42 23 71q33 40 83 41 q32 0 115 -21q109 -27 161 -29h6l37 -1l-38 -100h-16q-4 -60 52 -73q22 -5 55 -5zM184 143q50 49 128 79h1l1 1q-25 3 -67 12q-48 10 -67 10q-49 -2 -64 -29q45 -35 68 -73zM308 3q39 -20 61 -52q1 -2 2 -3q-27 -37 -52 -61q-41 41 -64 54q42 47 53 62z" />
<glyph unicode="&#xfc01;" horiz-adv-x="918" arabic-form="isolated" d="M694 377q29 7 57 11l-15 -39q-91 -16 -154 -48l-7 5l28 42q4 2 19 7q11 4 14 5l-15 10q-13 15 -14 34q1 6 3 11q42 54 76 55q13 0 22.5 -9.5t12.5 -18.5l2 -10l-23 -21q-9 18 -24 19q-4 0 -9 -1.5t-9.5 -3.5t-8 -4t-6.5 -4l-3 -2q20 -30 54 -38zM823 148v-31 q-1 -46 -34 -78q-32 -31 -82 -38q-6 -1 -11 -1h-64q-34 0 -48 31q-5 11 -5 22q0 35 31 48q11 5 22 5h56q48 0 76 13q12 6 20 12q-16 54 -75 84l29 106q39 -27 60 -65q25 -46 25 -108zM556 106h52v-106h-56q-74 1 -112 40q-34 37 -34 97q0 25 5 43q-36 -4 -76 -16 q-75 -24 -133 -68q2 -14 1 -24t-3 -15l-2 -5l-10 22l-4 4q-51 -51 -60 -124q-1 -11 -1 -21q0 -90 82 -148l12 -8q74 -46 182 -46h95l-87 -101h-58q-133 1 -201 65q-66 62 -76 172q-2 17 -2 34q1 127 82 213q-11 11 -29.5 26.5t-31.5 25.5l-13 10v47q1 42 23 71q33 40 83 41 q32 0 115 -21q109 -27 161 -29h6l37 -1l-38 -100h-16q-4 -60 52 -73q22 -5 55 -5zM184 143q50 49 128 79h1l1 1q-25 3 -67 12q-48 10 -67 10q-49 -2 -64 -29q45 -35 68 -73z" />
<glyph unicode="&#xfc02;" horiz-adv-x="831" arabic-form="isolated" d="M607 377q29 7 57 11l-15 -39q-91 -16 -154 -48l-7 5l28 42q4 2 19 7q11 4 14 5l-15 10q-13 15 -14 34q1 6 3 11q42 54 76 55q13 0 22.5 -9.5t12.5 -18.5l2 -10l-23 -21q-9 18 -24 19q-4 0 -9 -1.5t-9.5 -3.5t-8 -4t-6.5 -4l-3 -2q20 -30 54 -38zM736 148v-31 q-1 -46 -34 -78q-32 -31 -82 -38q-6 -1 -11 -1h-64q-34 0 -48 31q-5 11 -5 22q0 35 31 48q11 5 22 5h56q48 0 76 13q12 6 20 12q-16 54 -75 84l29 106q39 -27 60 -65q25 -46 25 -108zM491 106h40v-106h-23q-68 0 -92 17q-12 9 -22 22q-5 -35 -13 -55q-20 -45 -59 -46 q-38 1 -58 28q-18 25 -20 66q-1 13 1 39v1q-91 -11 -113 -50q-6 -46 13 -139q5 -23 7 -35q23 -125 16 -179q-9 -77 -33 -126l-17 -8q7 83 -23 225q-5 25 -7 33q-20 91 -18 141q2 22 5 44q14 68 45 116q57 84 146 75l16 44l23 -28q23 -23 49 -40q64 -39 137 -39z" />
<glyph unicode="&#xfc03;" horiz-adv-x="1005" arabic-form="isolated" d="M781 377q29 7 57 11l-15 -39q-91 -16 -154 -48l-7 5l28 42q4 2 19 7q11 4 14 5l-15 10q-13 15 -14 34q1 6 3 11q42 54 76 55q13 0 22.5 -9.5t12.5 -18.5l2 -10l-23 -21q-9 18 -24 19q-4 0 -9 -1.5t-9.5 -3.5t-8 -4t-6.5 -4l-3 -2q20 -30 54 -38zM910 148v-31 q-1 -46 -34 -78q-32 -31 -82 -38q-6 -1 -11 -1h-64q-34 0 -48 31q-5 11 -5 22q0 35 31 48q11 5 22 5h56q48 0 76 13q12 6 20 12q-16 54 -75 84l29 106q39 -27 60 -65q25 -46 25 -108zM629 106v-106h-118q15 -14 15 -43q0 -66 -90 -115q-14 -8 -28 -14q-68 -30 -137 -30 q-101 1 -152 60q-49 57 -49 146q1 115 57 183l16 -16q-33 -43 -33 -104q1 -60 30 -97q46 -58 147 -58q126 1 182 54q-23 34 -80 34h-34l-11 21l26 85h259z" />
<glyph unicode="&#xfc04;" horiz-adv-x="1005" arabic-form="isolated" d="M781 377q29 7 57 11l-15 -39q-91 -16 -154 -48l-7 5l28 42q4 2 19 7q11 4 14 5l-15 10q-13 15 -14 34q1 6 3 11q42 54 76 55q13 0 22.5 -9.5t12.5 -18.5l2 -10l-23 -21q-9 18 -24 19q-4 0 -9 -1.5t-9.5 -3.5t-8 -4t-6.5 -4l-3 -2q20 -30 54 -38zM910 148v-31 q-1 -46 -34 -78q-32 -31 -82 -38q-6 -1 -11 -1h-64q-34 0 -48 31q-5 11 -5 22q0 35 31 48q11 5 22 5h56q48 0 76 13q12 6 20 12q-16 54 -75 84l29 106q39 -27 60 -65q25 -46 25 -108zM629 106v-106h-118q15 -14 15 -43q0 -66 -90 -115q-14 -8 -28 -14q-68 -30 -137 -30 q-101 1 -152 60q-49 57 -49 146q1 115 57 183l16 -16q-33 -43 -33 -104q1 -60 30 -97q46 -58 147 -58q126 1 182 54q-23 34 -80 34h-34l-11 21l26 85h259zM172 -309q42 47 53 62q31 -17 55 -44q27 29 37 44q40 -20 62 -52q1 -2 2 -3q-25 -33 -53 -61q-26 27 -51 46 q-18 -23 -41 -46q-41 41 -64 54z" />
<glyph unicode="&#xfc05;" horiz-adv-x="918" arabic-form="isolated" d="M823 148v-31q-1 -46 -34 -78q-32 -31 -82 -38q-6 -1 -11 -1h-64q-34 0 -48 31q-5 11 -5 22q0 35 31 48q11 5 22 5h56q48 0 76 13q12 6 20 12q-16 54 -75 84l29 106q39 -27 60 -65q25 -46 25 -108zM677 -55q39 -20 61 -52q1 -2 2 -3q-27 -37 -52 -61q-41 41 -64 54 q42 47 53 62zM556 106h52v-106h-56q-74 1 -112 40q-34 37 -34 97q0 25 5 43q-36 -4 -76 -16q-75 -24 -133 -68q2 -14 1 -24t-3 -15l-2 -5l-10 22l-4 4q-51 -51 -60 -124q-1 -11 -1 -21q0 -90 82 -148l12 -8q74 -46 182 -46h95l-87 -101h-58q-133 1 -201 65q-66 62 -76 172 q-2 17 -2 34q1 127 82 213q-11 11 -29.5 26.5t-31.5 25.5l-13 10v47q1 42 23 71q33 40 83 41q32 0 115 -21q109 -27 161 -29h6l37 -1l-38 -100h-16q-4 -60 52 -73q22 -5 55 -5zM184 143q50 49 128 79h1l1 1q-25 3 -67 12q-48 10 -67 10q-49 -2 -64 -29q45 -35 68 -73zM308 3 q39 -20 61 -52q1 -2 2 -3q-27 -37 -52 -61q-41 41 -64 54q42 47 53 62z" />
<glyph unicode="&#xfc06;" horiz-adv-x="918" arabic-form="isolated" d="M823 148v-31q-1 -46 -34 -78q-32 -31 -82 -38q-6 -1 -11 -1h-64q-34 0 -48 31q-5 11 -5 22q0 35 31 48q11 5 22 5h56q48 0 76 13q12 6 20 12q-16 54 -75 84l29 106q39 -27 60 -65q25 -46 25 -108zM677 -55q39 -20 61 -52q1 -2 2 -3q-27 -37 -52 -61q-41 41 -64 54 q42 47 53 62zM556 106h52v-106h-56q-74 1 -112 40q-34 37 -34 97q0 25 5 43q-36 -4 -76 -16q-75 -24 -133 -68q2 -14 1 -24t-3 -15l-2 -5l-10 22l-4 4q-51 -51 -60 -124q-1 -11 -1 -21q0 -90 82 -148l12 -8q74 -46 182 -46h95l-87 -101h-58q-133 1 -201 65q-66 62 -76 172 q-2 17 -2 34q1 127 82 213q-11 11 -29.5 26.5t-31.5 25.5l-13 10v47q1 42 23 71q33 40 83 41q32 0 115 -21q109 -27 161 -29h6l37 -1l-38 -100h-16q-4 -60 52 -73q22 -5 55 -5zM184 143q50 49 128 79h1l1 1q-25 3 -67 12q-48 10 -67 10q-49 -2 -64 -29q45 -35 68 -73z" />
<glyph unicode="&#xfc07;" horiz-adv-x="918" arabic-form="isolated" d="M823 148v-31q-1 -46 -34 -78q-32 -31 -82 -38q-6 -1 -11 -1h-64q-34 0 -48 31q-5 11 -5 22q0 35 31 48q11 5 22 5h56q48 0 76 13q12 6 20 12q-16 54 -75 84l29 106q39 -27 60 -65q25 -46 25 -108zM677 -55q39 -20 61 -52q1 -2 2 -3q-27 -37 -52 -61q-41 41 -64 54 q42 47 53 62zM260 495q39 -20 61 -52q1 -2 2 -3q-27 -37 -52 -61q-41 41 -64 54q42 47 53 62zM556 106h52v-106h-56q-74 1 -112 40q-34 37 -34 97q0 25 5 43q-36 -4 -76 -16q-75 -24 -133 -68q2 -14 1 -24t-3 -15l-2 -5l-10 22l-4 4q-51 -51 -60 -124q-1 -11 -1 -21 q0 -90 82 -148l12 -8q74 -46 182 -46h95l-87 -101h-58q-133 1 -201 65q-66 62 -76 172q-2 17 -2 34q1 127 82 213q-11 11 -29.5 26.5t-31.5 25.5l-13 10v47q1 42 23 71q33 40 83 41q32 0 115 -21q109 -27 161 -29h6l37 -1l-38 -100h-16q-4 -60 52 -73q22 -5 55 -5zM184 143 q50 49 128 79h1l1 1q-25 3 -67 12q-48 10 -67 10q-49 -2 -64 -29q45 -35 68 -73z" />
<glyph unicode="&#xfc08;" horiz-adv-x="831" arabic-form="isolated" d="M736 148v-31q-1 -46 -34 -78q-32 -31 -82 -38q-6 -1 -11 -1h-64q-34 0 -48 31q-5 11 -5 22q0 35 31 48q11 5 22 5h56q48 0 76 13q12 6 20 12q-16 54 -75 84l29 106q39 -27 60 -65q25 -46 25 -108zM590 -55q39 -20 61 -52q1 -2 2 -3q-27 -37 -52 -61q-41 41 -64 54 q42 47 53 62zM491 106h40v-106h-23q-68 0 -92 17q-12 9 -22 22q-5 -35 -13 -55q-20 -45 -59 -46q-38 1 -58 28q-18 25 -20 66q-1 13 1 39v1q-91 -11 -113 -50q-6 -46 13 -139q5 -23 7 -35q23 -125 16 -179q-9 -77 -33 -126l-17 -8q7 83 -23 225q-5 25 -7 33q-20 91 -18 141 q2 22 5 44q14 68 45 116q57 84 146 75l16 44l23 -28q23 -23 49 -40q64 -39 137 -39z" />
<glyph unicode="&#xfc09;" horiz-adv-x="1005" arabic-form="isolated" d="M910 148v-31q-1 -46 -34 -78q-32 -31 -82 -38q-6 -1 -11 -1h-64q-34 0 -48 31q-5 11 -5 22q0 35 31 48q11 5 22 5h56q48 0 76 13q12 6 20 12q-16 54 -75 84l29 106q39 -27 60 -65q25 -46 25 -108zM764 -55q39 -20 61 -52q1 -2 2 -3q-27 -37 -52 -61q-41 41 -64 54 q42 47 53 62zM629 106v-106h-118q15 -14 15 -43q0 -66 -90 -115q-14 -8 -28 -14q-68 -30 -137 -30q-101 1 -152 60q-49 57 -49 146q1 115 57 183l16 -16q-33 -43 -33 -104q1 -60 30 -97q46 -58 147 -58q126 1 182 54q-23 34 -80 34h-34l-11 21l26 85h259z" />
<glyph unicode="&#xfc0a;" horiz-adv-x="1005" arabic-form="isolated" d="M910 148v-31q-1 -46 -34 -78q-32 -31 -82 -38q-6 -1 -11 -1h-64q-34 0 -48 31q-5 11 -5 22q0 35 31 48q11 5 22 5h56q48 0 76 13q12 6 20 12q-16 54 -75 84l29 106q39 -27 60 -65q25 -46 25 -108zM764 -55q39 -20 61 -52q1 -2 2 -3q-27 -37 -52 -61q-41 41 -64 54 q42 47 53 62zM629 106v-106h-118q15 -14 15 -43q0 -66 -90 -115q-14 -8 -28 -14q-68 -30 -137 -30q-101 1 -152 60q-49 57 -49 146q1 115 57 183l16 -16q-33 -43 -33 -104q1 -60 30 -97q46 -58 147 -58q126 1 182 54q-23 34 -80 34h-34l-11 21l26 85h259zM172 -309 q42 47 53 62q31 -17 55 -44q27 29 37 44q40 -20 62 -52q1 -2 2 -3q-25 -33 -53 -61q-26 27 -51 46q-18 -23 -41 -46q-41 41 -64 54z" />
<glyph unicode="&#xfc0b;" horiz-adv-x="948" arabic-form="isolated" d="M543 374q42 47 53 62q31 -17 55 -44q27 29 37 44q40 -20 62 -52q1 -2 2 -3q-25 -33 -53 -61q-26 27 -51 46q-18 -23 -41 -46q-41 41 -64 54zM823 148v-31q-1 -46 -34 -78q-32 -31 -82 -38q-6 -1 -11 -1h-64q-34 0 -48 31q-5 11 -5 22q0 35 31 48q11 5 22 5h56q48 0 76 13 q12 6 20 12q-16 54 -75 84l29 106q39 -27 60 -65q25 -46 25 -108zM556 106h52v-106h-56q-74 1 -112 40q-34 37 -34 97q0 25 5 43q-36 -4 -76 -16q-75 -24 -133 -68q2 -14 1 -24t-3 -15l-2 -5l-10 22l-4 4q-51 -51 -60 -124q-1 -11 -1 -21q0 -90 82 -148l12 -8 q74 -46 182 -46h95l-87 -101h-58q-133 1 -201 65q-66 62 -76 172q-2 17 -2 34q1 127 82 213q-11 11 -29.5 26.5t-31.5 25.5l-13 10v47q1 42 23 71q33 40 83 41q32 0 115 -21q109 -27 161 -29h6l37 -1l-38 -100h-16q-4 -60 52 -73q22 -5 55 -5zM184 143q50 49 128 79h1l1 1 q-25 3 -67 12q-48 10 -67 10q-49 -2 -64 -29q45 -35 68 -73zM308 3q39 -20 61 -52q1 -2 2 -3q-27 -37 -52 -61q-41 41 -64 54q42 47 53 62z" />
<glyph unicode="&#xfc0c;" horiz-adv-x="948" arabic-form="isolated" d="M543 374q42 47 53 62q31 -17 55 -44q27 29 37 44q40 -20 62 -52q1 -2 2 -3q-25 -33 -53 -61q-26 27 -51 46q-18 -23 -41 -46q-41 41 -64 54zM823 148v-31q-1 -46 -34 -78q-32 -31 -82 -38q-6 -1 -11 -1h-64q-34 0 -48 31q-5 11 -5 22q0 35 31 48q11 5 22 5h56q48 0 76 13 q12 6 20 12q-16 54 -75 84l29 106q39 -27 60 -65q25 -46 25 -108zM556 106h52v-106h-56q-74 1 -112 40q-34 37 -34 97q0 25 5 43q-36 -4 -76 -16q-75 -24 -133 -68q2 -14 1 -24t-3 -15l-2 -5l-10 22l-4 4q-51 -51 -60 -124q-1 -11 -1 -21q0 -90 82 -148l12 -8 q74 -46 182 -46h95l-87 -101h-58q-133 1 -201 65q-66 62 -76 172q-2 17 -2 34q1 127 82 213q-11 11 -29.5 26.5t-31.5 25.5l-13 10v47q1 42 23 71q33 40 83 41q32 0 115 -21q109 -27 161 -29h6l37 -1l-38 -100h-16q-4 -60 52 -73q22 -5 55 -5zM184 143q50 49 128 79h1l1 1 q-25 3 -67 12q-48 10 -67 10q-49 -2 -64 -29q45 -35 68 -73z" />
<glyph unicode="&#xfc0d;" horiz-adv-x="948" arabic-form="isolated" d="M543 374q42 47 53 62q31 -17 55 -44q27 29 37 44q40 -20 62 -52q1 -2 2 -3q-25 -33 -53 -61q-26 27 -51 46q-18 -23 -41 -46q-41 41 -64 54zM823 148v-31q-1 -46 -34 -78q-32 -31 -82 -38q-6 -1 -11 -1h-64q-34 0 -48 31q-5 11 -5 22q0 35 31 48q11 5 22 5h56q48 0 76 13 q12 6 20 12q-16 54 -75 84l29 106q39 -27 60 -65q25 -46 25 -108zM260 495q39 -20 61 -52q1 -2 2 -3q-27 -37 -52 -61q-41 41 -64 54q42 47 53 62zM556 106h52v-106h-56q-74 1 -112 40q-34 37 -34 97q0 25 5 43q-36 -4 -76 -16q-75 -24 -133 -68q2 -14 1 -24t-3 -15l-2 -5 l-10 22l-4 4q-51 -51 -60 -124q-1 -11 -1 -21q0 -90 82 -148l12 -8q74 -46 182 -46h95l-87 -101h-58q-133 1 -201 65q-66 62 -76 172q-2 17 -2 34q1 127 82 213q-11 11 -29.5 26.5t-31.5 25.5l-13 10v47q1 42 23 71q33 40 83 41q32 0 115 -21q109 -27 161 -29h6l37 -1 l-38 -100h-16q-4 -60 52 -73q22 -5 55 -5zM184 143q50 49 128 79h1l1 1q-25 3 -67 12q-48 10 -67 10q-49 -2 -64 -29q45 -35 68 -73z" />
<glyph unicode="&#xfc0e;" horiz-adv-x="861" arabic-form="isolated" d="M456 374q42 47 53 62q31 -17 55 -44q27 29 37 44q40 -20 62 -52q1 -2 2 -3q-25 -33 -53 -61q-26 27 -51 46q-18 -23 -41 -46q-41 41 -64 54zM736 148v-31q-1 -46 -34 -78q-32 -31 -82 -38q-6 -1 -11 -1h-64q-34 0 -48 31q-5 11 -5 22q0 35 31 48q11 5 22 5h56q48 0 76 13 q12 6 20 12q-16 54 -75 84l29 106q39 -27 60 -65q25 -46 25 -108zM491 106h40v-106h-23q-68 0 -92 17q-12 9 -22 22q-5 -35 -13 -55q-20 -45 -59 -46q-38 1 -58 28q-18 25 -20 66q-1 13 1 39v1q-91 -11 -113 -50q-6 -46 13 -139q5 -23 7 -35q23 -125 16 -179 q-9 -77 -33 -126l-17 -8q7 83 -23 225q-5 25 -7 33q-20 91 -18 141q2 22 5 44q14 68 45 116q57 84 146 75l16 44l23 -28q23 -23 49 -40q64 -39 137 -39z" />
<glyph unicode="&#xfc0f;" horiz-adv-x="1035" arabic-form="isolated" d="M630 374q42 47 53 62q31 -17 55 -44q27 29 37 44q40 -20 62 -52q1 -2 2 -3q-25 -33 -53 -61q-26 27 -51 46q-18 -23 -41 -46q-41 41 -64 54zM910 148v-31q-1 -46 -34 -78q-32 -31 -82 -38q-6 -1 -11 -1h-64q-34 0 -48 31q-5 11 -5 22q0 35 31 48q11 5 22 5h56q48 0 76 13 q12 6 20 12q-16 54 -75 84l29 106q39 -27 60 -65q25 -46 25 -108zM629 106v-106h-118q15 -14 15 -43q0 -66 -90 -115q-14 -8 -28 -14q-68 -30 -137 -30q-101 1 -152 60q-49 57 -49 146q1 115 57 183l16 -16q-33 -43 -33 -104q1 -60 30 -97q46 -58 147 -58q126 1 182 54 q-23 34 -80 34h-34l-11 21l26 85h259z" />
<glyph unicode="&#xfc10;" horiz-adv-x="1035" arabic-form="isolated" d="M630 374q42 47 53 62q31 -17 55 -44q27 29 37 44q40 -20 62 -52q1 -2 2 -3q-25 -33 -53 -61q-26 27 -51 46q-18 -23 -41 -46q-41 41 -64 54zM910 148v-31q-1 -46 -34 -78q-32 -31 -82 -38q-6 -1 -11 -1h-64q-34 0 -48 31q-5 11 -5 22q0 35 31 48q11 5 22 5h56q48 0 76 13 q12 6 20 12q-16 54 -75 84l29 106q39 -27 60 -65q25 -46 25 -108zM629 106v-106h-118q15 -14 15 -43q0 -66 -90 -115q-14 -8 -28 -14q-68 -30 -137 -30q-101 1 -152 60q-49 57 -49 146q1 115 57 183l16 -16q-33 -43 -33 -104q1 -60 30 -97q46 -58 147 -58q126 1 182 54 q-23 34 -80 34h-34l-11 21l26 85h259zM172 -309q42 47 53 62q31 -17 55 -44q27 29 37 44q40 -20 62 -52q1 -2 2 -3q-25 -33 -53 -61q-26 27 -51 46q-18 -23 -41 -46q-41 41 -64 54z" />
<glyph unicode="&#xfc11;" horiz-adv-x="948" arabic-form="isolated" d="M586 482q30 32 53 62q38 -20 62 -52q1 -2 2 -3q-25 -33 -53 -61q-35 36 -64 54zM542 374q33 37 53 62q32 -18 56 -44l37 44q40 -21 62 -52q1 -2 2 -3q-25 -33 -53 -61q-30 32 -51 46q-14 -18 -42 -46q-38 39 -64 54zM823 148v-31q-1 -46 -34 -78q-32 -31 -82 -38 q-6 -1 -11 -1h-64q-34 0 -48 31q-5 11 -5 22q0 35 31 48q11 5 22 5h56q48 0 76 13q12 6 20 12q-16 54 -75 84l29 106q39 -27 60 -65q25 -46 25 -108zM556 106h52v-106h-56q-74 1 -112 40q-34 37 -34 97q0 25 5 43q-36 -4 -76 -16q-75 -24 -133 -68q2 -14 1 -24t-3 -15l-2 -5 l-10 22l-4 4q-51 -51 -60 -124q-1 -11 -1 -21q0 -90 82 -148l12 -8q74 -46 182 -46h95l-87 -101h-58q-133 1 -201 65q-66 62 -76 172q-2 17 -2 34q1 127 82 213q-11 11 -29.5 26.5t-31.5 25.5l-13 10v47q1 42 23 71q33 40 83 41q32 0 115 -21q109 -27 161 -29h6l37 -1 l-38 -100h-16q-4 -60 52 -73q22 -5 55 -5zM184 143q50 49 128 79h1l1 1q-25 3 -67 12q-48 10 -67 10q-49 -2 -64 -29q45 -35 68 -73zM308 3q39 -20 61 -52q1 -2 2 -3q-27 -37 -52 -61q-41 41 -64 54q42 47 53 62z" />
<glyph unicode="&#xfc12;" horiz-adv-x="861" arabic-form="isolated" d="M499 482q30 32 53 62q38 -20 62 -52q1 -2 2 -3q-25 -33 -53 -61q-35 36 -64 54zM455 374q33 37 53 62q32 -18 56 -44l37 44q40 -21 62 -52q1 -2 2 -3q-25 -33 -53 -61q-30 32 -51 46q-14 -18 -42 -46q-38 39 -64 54zM736 148v-31q-1 -46 -34 -78q-32 -31 -82 -38 q-6 -1 -11 -1h-64q-34 0 -48 31q-5 11 -5 22q0 35 31 48q11 5 22 5h56q48 0 76 13q12 6 20 12q-16 54 -75 84l29 106q39 -27 60 -65q25 -46 25 -108zM491 106h40v-106h-23q-68 0 -92 17q-12 9 -22 22q-5 -35 -13 -55q-20 -45 -59 -46q-38 1 -58 28q-18 25 -20 66q-1 13 1 39 v1q-91 -11 -113 -50q-6 -46 13 -139q5 -23 7 -35q23 -125 16 -179q-9 -77 -33 -126l-17 -8q7 83 -23 225q-5 25 -7 33q-20 91 -18 141q2 22 5 44q14 68 45 116q57 84 146 75l16 44l23 -28q23 -23 49 -40q64 -39 137 -39z" />
<glyph unicode="&#xfc13;" horiz-adv-x="1035" arabic-form="isolated" d="M673 482q30 32 53 62q38 -20 62 -52q1 -2 2 -3q-25 -33 -53 -61q-35 36 -64 54zM629 374q33 37 53 62q32 -18 56 -44l37 44q40 -21 62 -52q1 -2 2 -3q-25 -33 -53 -61q-30 32 -51 46q-14 -18 -42 -46q-38 39 -64 54zM910 148v-31q-1 -46 -34 -78q-32 -31 -82 -38 q-6 -1 -11 -1h-64q-34 0 -48 31q-5 11 -5 22q0 35 31 48q11 5 22 5h56q48 0 76 13q12 6 20 12q-16 54 -75 84l29 106q39 -27 60 -65q25 -46 25 -108zM629 106v-106h-118q15 -14 15 -43q0 -66 -90 -115q-14 -8 -28 -14q-68 -30 -137 -30q-101 1 -152 60q-49 57 -49 146 q1 115 57 183l16 -16q-33 -43 -33 -104q1 -60 30 -97q46 -58 147 -58q126 1 182 54q-23 34 -80 34h-34l-11 21l26 85h259z" />
<glyph unicode="&#xfc14;" horiz-adv-x="1035" arabic-form="isolated" d="M673 482q30 32 53 62q38 -20 62 -52q1 -2 2 -3q-25 -33 -53 -61q-35 36 -64 54zM629 374q33 37 53 62q32 -18 56 -44l37 44q40 -21 62 -52q1 -2 2 -3q-25 -33 -53 -61q-30 32 -51 46q-14 -18 -42 -46q-38 39 -64 54zM910 148v-31q-1 -46 -34 -78q-32 -31 -82 -38 q-6 -1 -11 -1h-64q-34 0 -48 31q-5 11 -5 22q0 35 31 48q11 5 22 5h56q48 0 76 13q12 6 20 12q-16 54 -75 84l29 106q39 -27 60 -65q25 -46 25 -108zM629 106v-106h-118q15 -14 15 -43q0 -66 -90 -115q-14 -8 -28 -14q-68 -30 -137 -30q-101 1 -152 60q-49 57 -49 146 q1 115 57 183l16 -16q-33 -43 -33 -104q1 -60 30 -97q46 -58 147 -58q126 1 182 54q-23 34 -80 34h-34l-11 21l26 85h259zM172 -309q42 47 53 62q31 -17 55 -44q27 29 37 44q40 -20 62 -52q1 -2 2 -3q-25 -33 -53 -61q-26 27 -51 46q-18 -23 -41 -46q-41 41 -64 54z" />
<glyph unicode="&#xfc15;" horiz-adv-x="1238" arabic-form="isolated" d="M1113 204h24l-52 -95h-37q-61 0 -186 -64l-12 -6q-42 -21 -75 -29q0 -39 -4 -51q-2 -6 -4 -10q-6 26 -21 56q-32 -5 -65 -5h-49q-33 0 -48 30q-5 11 -5 23q0 33 30 48q11 5 23 5h49l-32 47v33q1 44 30 74q33 32 83 32q40 0 128 -36q30 -11 45 -17q97 -35 178 -35z M734 106q102 2 176 44l-63 28q-59 23 -96 23q-46 -1 -65 -35q30 -34 48 -60zM852 -54q39 -20 61 -52q1 -2 2 -3q-27 -37 -52 -61q-41 41 -64 54q42 47 53 62zM556 106h52v-106h-56q-74 1 -112 40q-34 37 -34 97q0 25 5 43q-36 -4 -76 -16q-75 -24 -133 -68q2 -14 1 -24 t-3 -15l-2 -5l-10 22l-4 4q-51 -51 -60 -124q-1 -11 -1 -21q0 -90 82 -148l12 -8q74 -46 182 -46h95l-87 -101h-58q-133 1 -201 65q-66 62 -76 172q-2 17 -2 34q1 127 82 213q-11 11 -29.5 26.5t-31.5 25.5l-13 10v47q1 42 23 71q33 40 83 41q32 0 115 -21q109 -27 161 -29 h6l37 -1l-38 -100h-16q-4 -60 52 -73q22 -5 55 -5zM184 143q50 49 128 79h1l1 1q-25 3 -67 12q-48 10 -67 10q-49 -2 -64 -29q45 -35 68 -73z" />
<glyph unicode="&#xfc16;" horiz-adv-x="1151" arabic-form="isolated" d="M1026 204h24l-52 -95h-37q-61 0 -186 -64l-12 -6q-42 -21 -75 -29q0 -39 -4 -51q-2 -6 -4 -10q-6 26 -21 56q-32 -5 -65 -5h-49q-33 0 -48 30q-5 11 -5 23q0 33 30 48q11 5 23 5h49l-32 47v33q1 44 30 74q33 32 83 32q40 0 128 -36q30 -11 45 -17q97 -35 178 -35z M647 106q102 2 176 44l-63 28q-59 23 -96 23q-46 -1 -65 -35q30 -34 48 -60zM765 -54q39 -20 61 -52q1 -2 2 -3q-27 -37 -52 -61q-41 41 -64 54q42 47 53 62zM491 106h40v-106h-23q-68 0 -92 17q-12 9 -22 22q-5 -35 -13 -55q-20 -45 -59 -46q-38 1 -58 28q-18 25 -20 66 q-1 13 1 39v1q-91 -11 -113 -50q-6 -46 13 -139q5 -23 7 -35q23 -125 16 -179q-9 -77 -33 -126l-17 -8q7 83 -23 225q-5 25 -7 33q-20 91 -18 141q2 22 5 44q14 68 45 116q57 84 146 75l16 44l23 -28q23 -23 49 -40q64 -39 137 -39z" />
<glyph unicode="&#xfc17;" horiz-adv-x="1238" arabic-form="isolated" d="M1113 204h24l-52 -95h-37q-61 0 -186 -64l-12 -6q-42 -21 -75 -29q0 -39 -4 -51q-2 -6 -4 -10q-6 26 -21 56q-32 -5 -65 -5h-49q-33 0 -48 30q-5 11 -5 23q0 33 30 48q11 5 23 5h49l-32 47v33q1 44 30 74q33 32 83 32q40 0 128 -36q30 -11 45 -17q97 -35 178 -35z M734 106q102 2 176 44l-63 28q-59 23 -96 23q-46 -1 -65 -35q30 -34 48 -60zM556 106h52v-106h-56q-74 1 -112 40q-34 37 -34 97q0 25 5 43q-36 -4 -76 -16q-75 -24 -133 -68q2 -14 1 -24t-3 -15l-2 -5l-10 22l-4 4q-51 -51 -60 -124q-1 -11 -1 -21q0 -90 82 -148l12 -8 q74 -46 182 -46h95l-87 -101h-58q-133 1 -201 65q-66 62 -76 172q-2 17 -2 34q1 127 82 213q-11 11 -29.5 26.5t-31.5 25.5l-13 10v47q1 42 23 71q33 40 83 41q32 0 115 -21q109 -27 161 -29h6l37 -1l-38 -100h-16q-4 -60 52 -73q22 -5 55 -5zM184 143q50 49 128 79h1l1 1 q-25 3 -67 12q-48 10 -67 10q-49 -2 -64 -29q45 -35 68 -73zM308 3q39 -20 61 -52q1 -2 2 -3q-27 -37 -52 -61q-41 41 -64 54q42 47 53 62z" />
<glyph unicode="&#xfc19;" horiz-adv-x="1238" arabic-form="isolated" d="M751 468q39 -20 61 -52q1 -2 2 -3q-27 -37 -52 -61q-41 41 -64 54q42 47 53 62zM1113 204h24l-52 -95h-37q-61 0 -186 -64l-12 -6q-42 -21 -75 -29q0 -39 -4 -51q-2 -6 -4 -10q-6 26 -21 56q-32 -5 -65 -5h-49q-33 0 -48 30q-5 11 -5 23q0 33 30 48q11 5 23 5h49l-32 47 v33q1 44 30 74q33 32 83 32q40 0 128 -36q30 -11 45 -17q97 -35 178 -35zM734 106q102 2 176 44l-63 28q-59 23 -96 23q-46 -1 -65 -35q30 -34 48 -60zM556 106h52v-106h-56q-74 1 -112 40q-34 37 -34 97q0 25 5 43q-36 -4 -76 -16q-75 -24 -133 -68q2 -14 1 -24t-3 -15 l-2 -5l-10 22l-4 4q-51 -51 -60 -124q-1 -11 -1 -21q0 -90 82 -148l12 -8q74 -46 182 -46h95l-87 -101h-58q-133 1 -201 65q-66 62 -76 172q-2 17 -2 34q1 127 82 213q-11 11 -29.5 26.5t-31.5 25.5l-13 10v47q1 42 23 71q33 40 83 41q32 0 115 -21q109 -27 161 -29h6l37 -1 l-38 -100h-16q-4 -60 52 -73q22 -5 55 -5zM184 143q50 49 128 79h1l1 1q-25 3 -67 12q-48 10 -67 10q-49 -2 -64 -29q45 -35 68 -73zM308 3q39 -20 61 -52q1 -2 2 -3q-27 -37 -52 -61q-41 41 -64 54q42 47 53 62z" />
<glyph unicode="&#xfc1a;" horiz-adv-x="1238" arabic-form="isolated" d="M751 468q39 -20 61 -52q1 -2 2 -3q-27 -37 -52 -61q-41 41 -64 54q42 47 53 62zM1113 204h24l-52 -95h-37q-61 0 -186 -64l-12 -6q-42 -21 -75 -29q0 -39 -4 -51q-2 -6 -4 -10q-6 26 -21 56q-32 -5 -65 -5h-49q-33 0 -48 30q-5 11 -5 23q0 33 30 48q11 5 23 5h49l-32 47 v33q1 44 30 74q33 32 83 32q40 0 128 -36q30 -11 45 -17q97 -35 178 -35zM734 106q102 2 176 44l-63 28q-59 23 -96 23q-46 -1 -65 -35q30 -34 48 -60zM556 106h52v-106h-56q-74 1 -112 40q-34 37 -34 97q0 25 5 43q-36 -4 -76 -16q-75 -24 -133 -68q2 -14 1 -24t-3 -15 l-2 -5l-10 22l-4 4q-51 -51 -60 -124q-1 -11 -1 -21q0 -90 82 -148l12 -8q74 -46 182 -46h95l-87 -101h-58q-133 1 -201 65q-66 62 -76 172q-2 17 -2 34q1 127 82 213q-11 11 -29.5 26.5t-31.5 25.5l-13 10v47q1 42 23 71q33 40 83 41q32 0 115 -21q109 -27 161 -29h6l37 -1 l-38 -100h-16q-4 -60 52 -73q22 -5 55 -5zM184 143q50 49 128 79h1l1 1q-25 3 -67 12q-48 10 -67 10q-49 -2 -64 -29q45 -35 68 -73z" />
<glyph unicode="&#xfc1b;" horiz-adv-x="1151" arabic-form="isolated" d="M664 468q39 -20 61 -52q1 -2 2 -3q-27 -37 -52 -61q-41 41 -64 54q42 47 53 62zM1026 204h24l-52 -95h-37q-61 0 -186 -64l-12 -6q-42 -21 -75 -29q0 -39 -4 -51q-2 -6 -4 -10q-6 26 -21 56q-32 -5 -65 -5h-49q-33 0 -48 30q-5 11 -5 23q0 33 30 48q11 5 23 5h49l-32 47 v33q1 44 30 74q33 32 83 32q40 0 128 -36q30 -11 45 -17q97 -35 178 -35zM647 106q102 2 176 44l-63 28q-59 23 -96 23q-46 -1 -65 -35q30 -34 48 -60zM491 106h40v-106h-23q-68 0 -92 17q-12 9 -22 22q-5 -35 -13 -55q-20 -45 -59 -46q-38 1 -58 28q-18 25 -20 66 q-1 13 1 39v1q-91 -11 -113 -50q-6 -46 13 -139q5 -23 7 -35q23 -125 16 -179q-9 -77 -33 -126l-17 -8q7 83 -23 225q-5 25 -7 33q-20 91 -18 141q2 22 5 44q14 68 45 116q57 84 146 75l16 44l23 -28q23 -23 49 -40q64 -39 137 -39z" />
<glyph unicode="&#xfc1c;" horiz-adv-x="1433" arabic-form="isolated" d="M1126 267q28 -28 30 -103q1 -33 -7 -63q-6 -19 -31 -54q-28 -40 -46 -41q-41 0 -68 20q-21 17 -36 49q-7 -31 -36 -51q-29 -19 -71 -19q-46 1 -73 27q-15 16 -26 44q-6 -28 -31 -49q-29 -27 -72 -27h-27q-37 0 -50 32q-3 10 -3 20q0 37 33 50q10 4 20 4h22q53 1 81 35 q23 31 23 73l15 -7q0 -36 15 -60q26 -35 77 -36q45 1 70 29q22 27 26 74l15 -7q4 -60 42 -82q12 -7 30 -9.5t30 -1.5l12 1q1 29 -17 83zM556 106h52v-106h-56q-74 1 -112 40q-34 37 -34 97q0 25 5 43q-36 -4 -76 -16q-75 -24 -133 -68q2 -14 1 -24t-3 -15l-2 -5l-10 22l-4 4 q-51 -51 -60 -124q-1 -11 -1 -21q0 -90 82 -148l12 -8q74 -46 182 -46h95l-87 -101h-58q-133 1 -201 65q-66 62 -76 172q-2 17 -2 34q1 127 82 213q-11 11 -29.5 26.5t-31.5 25.5l-13 10v47q1 42 23 71q33 40 83 41q32 0 115 -21q109 -27 161 -29h6l37 -1l-38 -100h-16 q-4 -60 52 -73q22 -5 55 -5zM184 143q50 49 128 79h1l1 1q-25 3 -67 12q-48 10 -67 10q-49 -2 -64 -29q45 -35 68 -73zM308 3q39 -20 61 -52q1 -2 2 -3q-27 -37 -52 -61q-41 41 -64 54q42 47 53 62z" />
<glyph unicode="&#xfc1d;" horiz-adv-x="1433" arabic-form="isolated" d="M1126 267q28 -28 30 -103q1 -33 -7 -63q-6 -19 -31 -54q-28 -40 -46 -41q-41 0 -68 20q-21 17 -36 49q-7 -31 -36 -51q-29 -19 -71 -19q-46 1 -73 27q-15 16 -26 44q-6 -28 -31 -49q-29 -27 -72 -27h-27q-37 0 -50 32q-3 10 -3 20q0 37 33 50q10 4 20 4h22q53 1 81 35 q23 31 23 73l15 -7q0 -36 15 -60q26 -35 77 -36q45 1 70 29q22 27 26 74l15 -7q4 -60 42 -82q12 -7 30 -9.5t30 -1.5l12 1q1 29 -17 83zM556 106h52v-106h-56q-74 1 -112 40q-34 37 -34 97q0 25 5 43q-36 -4 -76 -16q-75 -24 -133 -68q2 -14 1 -24t-3 -15l-2 -5l-10 22l-4 4 q-51 -51 -60 -124q-1 -11 -1 -21q0 -90 82 -148l12 -8q74 -46 182 -46h95l-87 -101h-58q-133 1 -201 65q-66 62 -76 172q-2 17 -2 34q1 127 82 213q-11 11 -29.5 26.5t-31.5 25.5l-13 10v47q1 42 23 71q33 40 83 41q32 0 115 -21q109 -27 161 -29h6l37 -1l-38 -100h-16 q-4 -60 52 -73q22 -5 55 -5zM184 143q50 49 128 79h1l1 1q-25 3 -67 12q-48 10 -67 10q-49 -2 -64 -29q45 -35 68 -73z" />
<glyph unicode="&#xfc1e;" horiz-adv-x="1433" arabic-form="isolated" d="M1126 267q28 -28 30 -103q1 -33 -7 -63q-6 -19 -31 -54q-28 -40 -46 -41q-41 0 -68 20q-21 17 -36 49q-7 -31 -36 -51q-29 -19 -71 -19q-46 1 -73 27q-15 16 -26 44q-6 -28 -31 -49q-29 -27 -72 -27h-27q-37 0 -50 32q-3 10 -3 20q0 37 33 50q10 4 20 4h22q53 1 81 35 q23 31 23 73l15 -7q0 -36 15 -60q26 -35 77 -36q45 1 70 29q22 27 26 74l15 -7q4 -60 42 -82q12 -7 30 -9.5t30 -1.5l12 1q1 29 -17 83zM260 495q39 -20 61 -52q1 -2 2 -3q-27 -37 -52 -61q-41 41 -64 54q42 47 53 62zM556 106h52v-106h-56q-74 1 -112 40q-34 37 -34 97 q0 25 5 43q-36 -4 -76 -16q-75 -24 -133 -68q2 -14 1 -24t-3 -15l-2 -5l-10 22l-4 4q-51 -51 -60 -124q-1 -11 -1 -21q0 -90 82 -148l12 -8q74 -46 182 -46h95l-87 -101h-58q-133 1 -201 65q-66 62 -76 172q-2 17 -2 34q1 127 82 213q-11 11 -29.5 26.5t-31.5 25.5l-13 10 v47q1 42 23 71q33 40 83 41q32 0 115 -21q109 -27 161 -29h6l37 -1l-38 -100h-16q-4 -60 52 -73q22 -5 55 -5zM184 143q50 49 128 79h1l1 1q-25 3 -67 12q-48 10 -67 10q-49 -2 -64 -29q45 -35 68 -73z" />
<glyph unicode="&#xfc20;" horiz-adv-x="1552" arabic-form="isolated" d="M1222 176q-20 -72 -57 -109q-7 -7 -15 -14q-75 -63 -192 -63q-45 0 -117 10l-22 -39l-21 22l14 29q-24 14 -40 43q-22 -54 -105 -55h-35q-33 0 -48 30q-5 11 -5 23q0 33 30 48q11 5 23 5h53q47 1 70 27q2 3 4.5 6t4 5.5t3 6t2.5 6t2 6t2 5.5t1.5 5t1 4t1.5 4v3l15 -8 q1 -33 10 -47q18 -23 55 -23q35 56 78 98q81 79 152 79q58 -1 93 -34q24 -25 42 -73zM1063 199q-60 -1 -113 -43q-14 -11 -26.5 -24.5t-17.5 -21.5l-5 -8h84q64 0 108 13q8 2 15.5 5t13 6t9.5 5.5t7.5 5.5t5.5 5l3 3l2 2l-12 18q-7 8 -14 14q-26 20 -60 20zM556 106h52v-106 h-56q-74 1 -112 40q-34 37 -34 97q0 25 5 43q-36 -4 -76 -16q-75 -24 -133 -68q2 -14 1 -24t-3 -15l-2 -5l-10 22l-4 4q-51 -51 -60 -124q-1 -11 -1 -21q0 -90 82 -148l12 -8q74 -46 182 -46h95l-87 -101h-58q-133 1 -201 65q-66 62 -76 172q-2 17 -2 34q1 127 82 213 q-11 11 -29.5 26.5t-31.5 25.5l-13 10v47q1 42 23 71q33 40 83 41q32 0 115 -21q109 -27 161 -29h6l37 -1l-38 -100h-16q-4 -60 52 -73q22 -5 55 -5zM184 143q50 49 128 79h1l1 1q-25 3 -67 12q-48 10 -67 10q-49 -2 -64 -29q45 -35 68 -73z" />
<glyph unicode="&#xfc22;" horiz-adv-x="1552" arabic-form="isolated" d="M1062 448q39 -20 61 -52q1 -2 2 -3q-27 -37 -52 -61q-41 41 -64 54q42 47 53 62zM1222 176q-20 -72 -57 -109q-7 -7 -15 -14q-75 -63 -192 -63q-45 0 -117 10l-22 -39l-21 22l14 29q-24 14 -40 43q-22 -54 -105 -55h-35q-33 0 -48 30q-5 11 -5 23q0 33 30 48q11 5 23 5 h53q47 1 70 27q2 3 4.5 6t4 5.5t3 6t2.5 6t2 6t2 5.5t1.5 5t1 4t1.5 4v3l15 -8q1 -33 10 -47q18 -23 55 -23q35 56 78 98q81 79 152 79q58 -1 93 -34q24 -25 42 -73zM1063 199q-60 -1 -113 -43q-14 -11 -26.5 -24.5t-17.5 -21.5l-5 -8h84q64 0 108 13q8 2 15.5 5t13 6 t9.5 5.5t7.5 5.5t4.5 5l4 3l2 2l-12 18q-7 8 -14 14q-26 20 -60 20zM556 106h52v-106h-56q-74 1 -112 40q-34 37 -34 97q0 25 5 43q-36 -4 -76 -16q-75 -24 -133 -68q2 -14 1 -24t-3 -15l-2 -5l-10 22l-4 4q-51 -51 -60 -124q-1 -11 -1 -21q0 -90 82 -148l12 -8 q74 -46 182 -46h95l-87 -101h-58q-133 1 -201 65q-66 62 -76 172q-2 17 -2 34q1 127 82 213q-11 11 -29.5 26.5t-31.5 25.5l-13 10v47q1 42 23 71q33 40 83 41q32 0 115 -21q109 -27 161 -29h6l37 -1l-38 -100h-16q-4 -60 52 -73q22 -5 55 -5zM184 143q50 49 128 79h1l1 1 q-25 3 -67 12q-48 10 -67 10q-49 -2 -64 -29q45 -35 68 -73zM308 3q39 -20 61 -52q1 -2 2 -3q-27 -37 -52 -61q-41 41 -64 54q42 47 53 62z" />
<glyph unicode="&#xfc23;" horiz-adv-x="1552" arabic-form="isolated" d="M1062 448q39 -20 61 -52q1 -2 2 -3q-27 -37 -52 -61q-41 41 -64 54q42 47 53 62zM1222 176q-20 -72 -57 -109q-7 -7 -15 -14q-75 -63 -192 -63q-45 0 -117 10l-22 -39l-21 22l14 29q-24 14 -40 43q-22 -54 -105 -55h-35q-33 0 -48 30q-5 11 -5 23q0 33 30 48q11 5 23 5 h53q47 1 70 27q2 3 4.5 6t4 5.5t3 6t2.5 6t2 6t2 5.5t1.5 5t1 4t1.5 4v3l15 -8q1 -33 10 -47q18 -23 55 -23q35 56 78 98q81 79 152 79q58 -1 93 -34q24 -25 42 -73zM1063 199q-60 -1 -113 -43q-14 -11 -26.5 -24.5t-17.5 -21.5l-5 -8h84q64 0 108 13q8 2 15.5 5t13 6 t9.5 5.5t7.5 5.5t4.5 5l4 3l2 2l-12 18q-7 8 -14 14q-26 20 -60 20zM556 106h52v-106h-56q-74 1 -112 40q-34 37 -34 97q0 25 5 43q-36 -4 -76 -16q-75 -24 -133 -68q2 -14 1 -24t-3 -15l-2 -5l-10 22l-4 4q-51 -51 -60 -124q-1 -11 -1 -21q0 -90 82 -148l12 -8 q74 -46 182 -46h95l-87 -101h-58q-133 1 -201 65q-66 62 -76 172q-2 17 -2 34q1 127 82 213q-11 11 -29.5 26.5t-31.5 25.5l-13 10v47q1 42 23 71q33 40 83 41q32 0 115 -21q109 -27 161 -29h6l37 -1l-38 -100h-16q-4 -60 52 -73q22 -5 55 -5zM184 143q50 49 128 79h1l1 1 q-25 3 -67 12q-48 10 -67 10q-49 -2 -64 -29q45 -35 68 -73z" />
<glyph unicode="&#xfc24;" horiz-adv-x="1552" arabic-form="isolated" d="M1062 448q39 -20 61 -52q1 -2 2 -3q-27 -37 -52 -61q-41 41 -64 54q42 47 53 62zM1222 176q-20 -72 -57 -109q-7 -7 -15 -14q-75 -63 -192 -63q-45 0 -117 10l-22 -39l-21 22l14 29q-24 14 -40 43q-22 -54 -105 -55h-35q-33 0 -48 30q-5 11 -5 23q0 33 30 48q11 5 23 5 h53q47 1 70 27q2 3 4.5 6t4 5.5t3 6t2.5 6t2 6t2 5.5t1.5 5t1 4t1.5 4v3l15 -8q1 -33 10 -47q18 -23 55 -23q35 56 78 98q81 79 152 79q58 -1 93 -34q24 -25 42 -73zM1063 199q-60 -1 -113 -43q-14 -11 -26.5 -24.5t-17.5 -21.5l-5 -8h84q64 0 108 13q8 2 15.5 5t13 6 t9.5 5.5t7.5 5.5t4.5 5l4 3l2 2l-12 18q-7 8 -14 14q-26 20 -60 20zM260 495q39 -20 61 -52q1 -2 2 -3q-27 -37 -52 -61q-41 41 -64 54q42 47 53 62zM556 106h52v-106h-56q-74 1 -112 40q-34 37 -34 97q0 25 5 43q-36 -4 -76 -16q-75 -24 -133 -68q2 -14 1 -24t-3 -15l-2 -5 l-10 22l-4 4q-51 -51 -60 -124q-1 -11 -1 -21q0 -90 82 -148l12 -8q74 -46 182 -46h95l-87 -101h-58q-133 1 -201 65q-66 62 -76 172q-2 17 -2 34q1 127 82 213q-11 11 -29.5 26.5t-31.5 25.5l-13 10v47q1 42 23 71q33 40 83 41q32 0 115 -21q109 -27 161 -29h6l37 -1 l-38 -100h-16q-4 -60 52 -73q22 -5 55 -5zM184 143q50 49 128 79h1l1 1q-25 3 -67 12q-48 10 -67 10q-49 -2 -64 -29q45 -35 68 -73z" />
<glyph unicode="&#xfc25;" horiz-adv-x="1465" arabic-form="isolated" d="M975 448q39 -20 61 -52q1 -2 2 -3q-27 -37 -52 -61q-41 41 -64 54q42 47 53 62zM1135 176q-20 -72 -57 -109q-7 -7 -15 -14q-75 -63 -192 -63q-45 0 -117 10l-22 -39l-21 22l14 29q-24 14 -40 43q-22 -54 -105 -55h-35q-33 0 -48 30q-5 11 -5 23q0 33 30 48q11 5 23 5h53 q47 1 70 27q2 3 4.5 6t4 5.5t3 6t2.5 6t2 6t2 5.5t1.5 5t1 4t1.5 4v3l15 -8q1 -33 10 -47q18 -23 55 -23q35 56 78 98q81 79 152 79q58 -1 93 -34q24 -25 42 -73zM976 199q-60 -1 -113 -43q-14 -11 -26.5 -24.5t-17.5 -21.5l-5 -8h84q64 0 108 13q8 2 15.5 5t13 6t9.5 5.5 t7.5 5.5t4.5 5l4 3l2 2l-12 18q-7 8 -14 14q-26 20 -60 20zM491 106h40v-106h-23q-68 0 -92 17q-12 9 -22 22q-5 -35 -13 -55q-20 -45 -59 -46q-38 1 -58 28q-18 25 -20 66q-1 13 1 39v1q-91 -11 -113 -50q-6 -46 13 -139q5 -23 7 -35q23 -125 16 -179q-9 -77 -33 -126 l-17 -8q7 83 -23 225q-5 25 -7 33q-20 91 -18 141q2 22 5 44q14 68 45 116q57 84 146 75l16 44l23 -28q23 -23 49 -40q64 -39 137 -39z" />
<glyph unicode="&#xfc26;" horiz-adv-x="1326" arabic-form="isolated" d="M912 283q63 -1 98 -40q22 -25 37 -66q-21 -74 -58 -111q-7 -7 -14 -13q-63 -53 -192 -53h-151q-33 0 -48 30q-5 11 -5 23q0 33 30 48q11 5 23 5h50q17 28 45 62q0 130 -14 222q-12 83 -43 175l-15 14l1 36q2 12 5 22q15 39 47 45q26 -59 66 -88q-24 -23 -22 -50 q0 -6 1 -12q19 -110 22 -141q11 -97 -3 -176q76 67 140 68zM810 106q105 0 156 39q5 3 8 6q-29 42 -59 49q-12 3 -26 3q-49 -1 -94 -29q-20 -13 -37 -30t-25 -28l-7 -10h84zM556 106h52v-106h-56q-74 1 -112 40q-34 37 -34 97q0 25 5 43q-36 -4 -76 -16q-75 -24 -133 -68 q2 -14 1 -24t-3 -15l-2 -5l-10 22l-4 4q-51 -51 -60 -124q-1 -11 -1 -21q0 -90 82 -148l12 -8q74 -46 182 -46h95l-87 -101h-58q-133 1 -201 65q-66 62 -76 172q-2 17 -2 34q1 127 82 213q-11 11 -29.5 26.5t-31.5 25.5l-13 10v47q1 42 23 71q33 40 83 41q32 0 115 -21 q109 -27 161 -29h6l37 -1l-38 -100h-16q-4 -60 52 -73q22 -5 55 -5zM184 143q50 49 128 79h1l1 1q-25 3 -67 12q-48 10 -67 10q-49 -2 -64 -29q45 -35 68 -73z" />
<glyph unicode="&#xfc27;" horiz-adv-x="1239" arabic-form="isolated" d="M825 283q63 -1 98 -40q22 -25 37 -66q-21 -74 -58 -111q-7 -7 -14 -13q-63 -53 -192 -53h-151q-33 0 -48 30q-5 11 -5 23q0 33 30 48q11 5 23 5h50q17 28 45 62q0 130 -14 222q-12 83 -43 175l-15 14l1 36q2 12 5 22q15 39 47 45q26 -59 66 -88q-24 -23 -22 -50 q0 -6 1 -12q19 -110 22 -141q11 -97 -3 -176q76 67 140 68zM723 106q105 0 156 39q5 3 8 6q-29 42 -59 49q-12 3 -26 3q-49 -1 -94 -29q-20 -13 -37 -30t-25 -28l-7 -10h84zM491 106h40v-106h-23q-68 0 -92 17q-12 9 -22 22q-5 -35 -13 -55q-20 -45 -59 -46q-38 1 -58 28 q-18 25 -20 66q-1 13 1 39v1q-91 -11 -113 -50q-6 -46 13 -139q5 -23 7 -35q23 -125 16 -179q-9 -77 -33 -126l-17 -8q7 83 -23 225q-5 25 -7 33q-20 91 -18 141q2 22 5 44q14 68 45 116q57 84 146 75l16 44l23 -28q23 -23 49 -40q64 -39 137 -39z" />
<glyph unicode="&#xfc28;" horiz-adv-x="1239" arabic-form="isolated" d="M825 283q63 -1 98 -40q22 -25 37 -66q-21 -74 -58 -111q-7 -7 -14 -13q-63 -53 -192 -53h-151q-33 0 -48 30q-5 11 -5 23q0 33 30 48q11 5 23 5h50q17 28 45 62q0 130 -14 222q-12 83 -43 175l-15 14l1 36q2 12 5 22q15 39 47 45q26 -59 66 -88q-24 -23 -22 -50 q0 -6 1 -12q19 -110 22 -141q11 -97 -3 -176q76 67 140 68zM820 445q39 -20 61 -52q1 -2 2 -3q-27 -37 -52 -61q-41 41 -64 54q42 47 53 62zM723 106q105 0 156 39q5 3 8 6q-29 42 -59 49q-12 3 -26 3q-49 -1 -94 -29q-20 -13 -37 -30t-25 -28l-7 -10h84zM491 106h40v-106 h-23q-68 0 -92 17q-12 9 -22 22q-5 -35 -13 -55q-20 -45 -59 -46q-38 1 -58 28q-18 25 -20 66q-1 13 1 39v1q-91 -11 -113 -50q-6 -46 13 -139q5 -23 7 -35q23 -125 16 -179q-9 -77 -33 -126l-17 -8q7 83 -23 225q-5 25 -7 33q-20 91 -18 141q2 22 5 44q14 68 45 116 q57 84 146 75l16 44l23 -28q23 -23 49 -40q64 -39 137 -39z" />
<glyph unicode="&#xfc29;" horiz-adv-x="1152" arabic-form="isolated" d="M828 129q41 2 90 12q41 9 98 25l-47 -110q-94 -26 -138 -36q-92 -20 -164 -20h-35q-33 0 -48 30q-5 11 -5 23q0 33 30 48q11 5 23 5h28q30 0 45 4q-20 23 -26 76q-1 10 -1 18q12 50 31 81q44 68 113 69q43 0 80 -26q33 -24 56 -69l-29 -38q-58 40 -102 40q-62 -1 -97 -43 q24 -36 52 -59q26 -20 46 -30zM556 106h52v-106h-56q-74 1 -112 40q-34 37 -34 97q0 25 5 43q-36 -4 -76 -16q-75 -24 -133 -68q2 -14 1 -24t-3 -15l-2 -5l-10 22l-4 4q-51 -51 -60 -124q-1 -11 -1 -21q0 -90 82 -148l12 -8q74 -46 182 -46h95l-87 -101h-58q-133 1 -201 65 q-66 62 -76 172q-2 17 -2 34q1 127 82 213q-11 11 -29.5 26.5t-31.5 25.5l-13 10v47q1 42 23 71q33 40 83 41q32 0 115 -21q109 -27 161 -29h6l37 -1l-38 -100h-16q-4 -60 52 -73q22 -5 55 -5zM184 143q50 49 128 79h1l1 1q-25 3 -67 12q-48 10 -67 10q-49 -2 -64 -29 q45 -35 68 -73zM308 3q39 -20 61 -52q1 -2 2 -3q-27 -37 -52 -61q-41 41 -64 54q42 47 53 62z" />
<glyph unicode="&#xfc2b;" horiz-adv-x="1152" arabic-form="isolated" d="M814 521q39 -20 61 -52q1 -2 2 -3q-27 -37 -52 -61q-41 41 -64 54q42 47 53 62zM828 129q41 2 90 12q41 9 98 25l-47 -110q-94 -26 -138 -36q-92 -20 -164 -20h-35q-33 0 -48 30q-5 11 -5 23q0 33 30 48q11 5 23 5h28q30 0 45 4q-20 23 -26 76q-1 10 -1 18q12 50 31 81 q44 68 113 69q43 0 80 -26q33 -24 56 -69l-29 -38q-58 40 -102 40q-62 -1 -97 -43q24 -36 52 -59q26 -20 46 -30zM556 106h52v-106h-56q-74 1 -112 40q-34 37 -34 97q0 25 5 43q-36 -4 -76 -16q-75 -24 -133 -68q2 -14 1 -24t-3 -15l-2 -5l-10 22l-4 4q-51 -51 -60 -124 q-1 -11 -1 -21q0 -90 82 -148l12 -8q74 -46 182 -46h95l-87 -101h-58q-133 1 -201 65q-66 62 -76 172q-2 17 -2 34q1 127 82 213q-11 11 -29.5 26.5t-31.5 25.5l-13 10v47q1 42 23 71q33 40 83 41q32 0 115 -21q109 -27 161 -29h6l37 -1l-38 -100h-16q-4 -60 52 -73 q22 -5 55 -5zM184 143q50 49 128 79h1l1 1q-25 3 -67 12q-48 10 -67 10q-49 -2 -64 -29q45 -35 68 -73zM308 3q39 -20 61 -52q1 -2 2 -3q-27 -37 -52 -61q-41 41 -64 54q42 47 53 62z" />
<glyph unicode="&#xfc2c;" horiz-adv-x="1065" arabic-form="isolated" d="M727 521q39 -20 61 -52q1 -2 2 -3q-27 -37 -52 -61q-41 41 -64 54q42 47 53 62zM741 129q41 2 90 12q41 9 98 25l-47 -110q-94 -26 -138 -36q-92 -20 -164 -20h-35q-33 0 -48 30q-5 11 -5 23q0 33 30 48q11 5 23 5h28q30 0 45 4q-20 23 -26 76q-1 10 -1 18q12 50 31 81 q44 68 113 69q43 0 80 -26q33 -24 56 -69l-29 -38q-58 40 -102 40q-62 -1 -97 -43q24 -36 52 -59q26 -20 46 -30zM491 106h40v-106h-23q-68 0 -92 17q-12 9 -22 22q-5 -35 -13 -55q-20 -45 -59 -46q-38 1 -58 28q-18 25 -20 66q-1 13 1 39v1q-91 -11 -113 -50 q-6 -46 13 -139q5 -23 7 -35q23 -125 16 -179q-9 -77 -33 -126l-17 -8q7 83 -23 225q-5 25 -7 33q-20 91 -18 141q2 22 5 44q14 68 45 116q57 84 146 75l16 44l23 -28q23 -23 49 -40q64 -39 137 -39z" />
<glyph unicode="&#xfc2d;" horiz-adv-x="1096" arabic-form="isolated" d="M742 475q39 -20 61 -52q1 -2 2 -3q-27 -37 -52 -61q-41 41 -64 54q42 47 53 62zM862 186q-1 -60 -28 -109q2 -22 1 -39t-4 -28l-2 -10q-3 30 -15 50q-38 -43 -111 -49q-8 -1 -14 -1h-57q-33 0 -48 30q-5 11 -5 23q0 33 30 48q11 5 23 5h71l61 5q-16 21 -52 35 q-12 5 -29 8.5t-28 5.5l-11 1v71q0 67 57 87q18 6 39 6q54 -1 86 -34q36 -38 36 -105zM816 137q6 13 6 35q-1 26 -15 44q-18 20 -47 20q-29 -1 -54 -20q38 -7 68 -29q29 -23 42 -50zM556 106h52v-106h-56q-74 1 -112 40q-34 37 -34 97q0 25 5 43q-36 -4 -76 -16 q-75 -24 -133 -68q2 -14 1 -24t-3 -15l-2 -5l-10 22l-4 4q-51 -51 -60 -124q-1 -11 -1 -21q0 -90 82 -148l12 -8q74 -46 182 -46h95l-87 -101h-58q-133 1 -201 65q-66 62 -76 172q-2 17 -2 34q1 127 82 213q-11 11 -29.5 26.5t-31.5 25.5l-13 10v47q1 42 23 71q33 40 83 41 q32 0 115 -21q109 -27 161 -29h6l37 -1l-38 -100h-16q-4 -60 52 -73q22 -5 55 -5zM184 143q50 49 128 79h1l1 1q-25 3 -67 12q-48 10 -67 10q-49 -2 -64 -29q45 -35 68 -73zM308 3q39 -20 61 -52q1 -2 2 -3q-27 -37 -52 -61q-41 41 -64 54q42 47 53 62z" />
<glyph unicode="&#xfc2e;" horiz-adv-x="1096" arabic-form="isolated" d="M742 475q39 -20 61 -52q1 -2 2 -3q-27 -37 -52 -61q-41 41 -64 54q42 47 53 62zM862 186q-1 -60 -28 -109q2 -22 1 -39t-4 -28l-2 -10q-3 30 -15 50q-38 -43 -111 -49q-8 -1 -14 -1h-57q-33 0 -48 30q-5 11 -5 23q0 33 30 48q11 5 23 5h71l61 5q-16 21 -52 35 q-12 5 -29 8.5t-28 5.5l-11 1v71q0 67 57 87q18 6 39 6q54 -1 86 -34q36 -38 36 -105zM816 137q6 13 6 35q-1 26 -15 44q-18 20 -47 20q-29 -1 -54 -20q38 -7 68 -29q29 -23 42 -50zM556 106h52v-106h-56q-74 1 -112 40q-34 37 -34 97q0 25 5 43q-36 -4 -76 -16 q-75 -24 -133 -68q2 -14 1 -24t-3 -15l-2 -5l-10 22l-4 4q-51 -51 -60 -124q-1 -11 -1 -21q0 -90 82 -148l12 -8q74 -46 182 -46h95l-87 -101h-58q-133 1 -201 65q-66 62 -76 172q-2 17 -2 34q1 127 82 213q-11 11 -29.5 26.5t-31.5 25.5l-13 10v47q1 42 23 71q33 40 83 41 q32 0 115 -21q109 -27 161 -29h6l37 -1l-38 -100h-16q-4 -60 52 -73q22 -5 55 -5zM184 143q50 49 128 79h1l1 1q-25 3 -67 12q-48 10 -67 10q-49 -2 -64 -29q45 -35 68 -73z" />
<glyph unicode="&#xfc2f;" horiz-adv-x="1096" arabic-form="isolated" d="M742 475q39 -20 61 -52q1 -2 2 -3q-27 -37 -52 -61q-41 41 -64 54q42 47 53 62zM862 186q-1 -60 -28 -109q2 -22 1 -39t-4 -28l-2 -10q-3 30 -15 50q-38 -43 -111 -49q-8 -1 -14 -1h-57q-33 0 -48 30q-5 11 -5 23q0 33 30 48q11 5 23 5h71l61 5q-16 21 -52 35 q-12 5 -29 8.5t-28 5.5l-11 1v71q0 67 57 87q18 6 39 6q54 -1 86 -34q36 -38 36 -105zM816 137q6 13 6 35q-1 26 -15 44q-18 20 -47 20q-29 -1 -54 -20q38 -7 68 -29q29 -23 42 -50zM260 495q39 -20 61 -52q1 -2 2 -3q-27 -37 -52 -61q-41 41 -64 54q42 47 53 62zM556 106 h52v-106h-56q-74 1 -112 40q-34 37 -34 97q0 25 5 43q-36 -4 -76 -16q-75 -24 -133 -68q2 -14 1 -24t-3 -15l-2 -5l-10 22l-4 4q-51 -51 -60 -124q-1 -11 -1 -21q0 -90 82 -148l12 -8q74 -46 182 -46h95l-87 -101h-58q-133 1 -201 65q-66 62 -76 172q-2 17 -2 34 q1 127 82 213q-11 11 -29.5 26.5t-31.5 25.5l-13 10v47q1 42 23 71q33 40 83 41q32 0 115 -21q109 -27 161 -29h6l37 -1l-38 -100h-16q-4 -60 52 -73q22 -5 55 -5zM184 143q50 49 128 79h1l1 1q-25 3 -67 12q-48 10 -67 10q-49 -2 -64 -29q45 -35 68 -73z" />
<glyph unicode="&#xfc30;" horiz-adv-x="1009" arabic-form="isolated" d="M655 475q39 -20 61 -52q1 -2 2 -3q-27 -37 -52 -61q-41 41 -64 54q42 47 53 62zM775 186q-1 -60 -28 -109q2 -22 1 -39t-4 -28l-2 -10q-3 30 -15 50q-38 -43 -111 -49q-8 -1 -14 -1h-57q-33 0 -48 30q-5 11 -5 23q0 33 30 48q11 5 23 5h71l61 5q-16 21 -52 35 q-12 5 -29 8.5t-28 5.5l-11 1v71q0 67 57 87q18 6 39 6q54 -1 86 -34q36 -38 36 -105zM729 137q6 13 6 35q-1 26 -15 44q-18 20 -47 20q-29 -1 -54 -20q38 -7 68 -29q29 -23 42 -50zM491 106h40v-106h-23q-68 0 -92 17q-12 9 -22 22q-5 -35 -13 -55q-20 -45 -59 -46 q-38 1 -58 28q-18 25 -20 66q-1 13 1 39v1q-91 -11 -113 -50q-6 -46 13 -139q5 -23 7 -35q23 -125 16 -179q-9 -77 -33 -126l-17 -8q7 83 -23 225q-5 25 -7 33q-20 91 -18 141q2 22 5 44q14 68 45 116q57 84 146 75l16 44l23 -28q23 -23 49 -40q64 -39 137 -39z" />
<glyph unicode="&#xfc31;" horiz-adv-x="1183" arabic-form="isolated" d="M829 475q39 -20 61 -52q1 -2 2 -3q-27 -37 -52 -61q-41 41 -64 54q42 47 53 62zM949 186q-1 -60 -28 -109q2 -22 1 -39t-4 -28l-2 -10q-3 30 -15 50q-38 -43 -111 -49q-8 -1 -14 -1h-57q-33 0 -48 30q-5 11 -5 23q0 33 30 48q11 5 23 5h71l61 5q-16 21 -52 35 q-12 5 -29 8.5t-28 5.5l-11 1v71q0 67 57 87q18 6 39 6q54 -1 86 -34q36 -38 36 -105zM903 137q6 13 6 35q-1 26 -15 44q-18 20 -47 20q-29 -1 -54 -20q38 -7 68 -29q29 -23 42 -50zM629 106v-106h-118q15 -14 15 -43q0 -66 -90 -115q-14 -8 -28 -14q-68 -30 -137 -30 q-101 1 -152 60q-49 57 -49 146q1 115 57 183l16 -16q-33 -43 -33 -104q1 -60 30 -97q46 -58 147 -58q126 1 182 54q-23 34 -80 34h-34l-11 21l26 85h259z" />
<glyph unicode="&#xfc32;" horiz-adv-x="1183" arabic-form="isolated" d="M829 475q39 -20 61 -52q1 -2 2 -3q-27 -37 -52 -61q-41 41 -64 54q42 47 53 62zM949 186q-1 -60 -28 -109q2 -22 1 -39t-4 -28l-2 -10q-3 30 -15 50q-38 -43 -111 -49q-8 -1 -14 -1h-57q-33 0 -48 30q-5 11 -5 23q0 33 30 48q11 5 23 5h71l61 5q-16 21 -52 35 q-12 5 -29 8.5t-28 5.5l-11 1v71q0 67 57 87q18 6 39 6q54 -1 86 -34q36 -38 36 -105zM903 137q6 13 6 35q-1 26 -15 44q-18 20 -47 20q-29 -1 -54 -20q38 -7 68 -29q29 -23 42 -50zM629 106v-106h-118q15 -14 15 -43q0 -66 -90 -115q-14 -8 -28 -14q-68 -30 -137 -30 q-101 1 -152 60q-49 57 -49 146q1 115 57 183l16 -16q-33 -43 -33 -104q1 -60 30 -97q46 -58 147 -58q126 1 182 54q-23 34 -80 34h-34l-11 21l26 85h259zM172 -309q42 47 53 62q31 -17 55 -44q27 29 37 44q40 -20 62 -52q1 -2 2 -3q-25 -33 -53 -61q-26 27 -51 46 q-18 -23 -41 -46q-41 41 -64 54z" />
<glyph unicode="&#xfc33;" horiz-adv-x="1096" arabic-form="isolated" d="M643 413q42 47 53 62q31 -17 55 -44q27 29 37 44q40 -20 62 -52q1 -2 2 -3q-25 -33 -53 -61q-26 27 -51 46q-18 -23 -41 -46q-41 41 -64 54zM862 186q-1 -60 -28 -109q2 -22 1 -39t-4 -28l-2 -10q-3 30 -15 50q-38 -43 -111 -49q-8 -1 -14 -1h-57q-33 0 -48 30 q-5 11 -5 23q0 33 30 48q11 5 23 5h71l61 5q-16 21 -52 35q-12 5 -29 8.5t-28 5.5l-11 1v71q0 67 57 87q18 6 39 6q54 -1 86 -34q36 -38 36 -105zM816 137q6 13 6 35q-1 26 -15 44q-18 20 -47 20q-29 -1 -54 -20q38 -7 68 -29q29 -23 42 -50zM556 106h52v-106h-56 q-74 1 -112 40q-34 37 -34 97q0 25 5 43q-36 -4 -76 -16q-75 -24 -133 -68q2 -14 1 -24t-3 -15l-2 -5l-10 22l-4 4q-51 -51 -60 -124q-1 -11 -1 -21q0 -90 82 -148l12 -8q74 -46 182 -46h95l-87 -101h-58q-133 1 -201 65q-66 62 -76 172q-2 17 -2 34q1 127 82 213 q-11 11 -29.5 26.5t-31.5 25.5l-13 10v47q1 42 23 71q33 40 83 41q32 0 115 -21q109 -27 161 -29h6l37 -1l-38 -100h-16q-4 -60 52 -73q22 -5 55 -5zM184 143q50 49 128 79h1l1 1q-25 3 -67 12q-48 10 -67 10q-49 -2 -64 -29q45 -35 68 -73z" />
<glyph unicode="&#xfc34;" horiz-adv-x="1009" arabic-form="isolated" d="M556 413q42 47 53 62q31 -17 55 -44q27 29 37 44q40 -20 62 -52q1 -2 2 -3q-25 -33 -53 -61q-26 27 -51 46q-18 -23 -41 -46q-41 41 -64 54zM775 186q-1 -60 -28 -109q2 -22 1 -39t-4 -28l-2 -10q-3 30 -15 50q-38 -43 -111 -49q-8 -1 -14 -1h-57q-33 0 -48 30 q-5 11 -5 23q0 33 30 48q11 5 23 5h71l61 5q-16 21 -52 35q-12 5 -29 8.5t-28 5.5l-11 1v71q0 67 57 87q18 6 39 6q54 -1 86 -34q36 -38 36 -105zM729 137q6 13 6 35q-1 26 -15 44q-18 20 -47 20q-29 -1 -54 -20q38 -7 68 -29q29 -23 42 -50zM491 106h40v-106h-23 q-68 0 -92 17q-12 9 -22 22q-5 -35 -13 -55q-20 -45 -59 -46q-38 1 -58 28q-18 25 -20 66q-1 13 1 39v1q-91 -11 -113 -50q-6 -46 13 -139q5 -23 7 -35q23 -125 16 -179q-9 -77 -33 -126l-17 -8q7 83 -23 225q-5 25 -7 33q-20 91 -18 141q2 22 5 44q14 68 45 116 q57 84 146 75l16 44l23 -28q23 -23 49 -40q64 -39 137 -39z" />
</font>
</defs>
</svg>
