<?xml version="1.0" standalone="no"?>
<!DOCTYPE svg PUBLIC "-//W3C//DTD SVG 1.1//EN" "http://www.w3.org/Graphics/SVG/1.1/DTD/svg11.dtd" >
<svg xmlns="http://www.w3.org/2000/svg" xmlns:xlink="http://www.w3.org/1999/xlink" version="1.1">
<metadata></metadata>
<defs>
<font id="katibeh-regularregular" horiz-adv-x="0" >
<font-face units-per-em="2048" ascent="1638" descent="-410" />
<missing-glyph horiz-adv-x="344" />
<glyph unicode="fi" horiz-adv-x="862" d="M684 680q51 0 51 -51v-512q0 -61 35 -61t80 30l16 -20q-78 -84 -166 -84t-120 38t-31 142v387q0 29 -27 29h-213v-443q-1 -49 13 -66t63 -28l27 -6l-13 -35h-319l-17 20l17 21q43 57 43 174v363h-105q0 35 4 45t25 16l78 18q17 173 111 269t258 96q106 0 178 -39t72 -101 t-34 -97q-32 -33 -79 -33t-82 16q37 31 37 86t-29 87t-84 32q-164 0 -164 -316h213q46 -1 96 11t66 12z" />
<glyph unicode="fl" horiz-adv-x="878" d="M309 657h150q0 -60 -31 -79h-119v-443q-1 -49 13 -66t63 -28l27 -6l-13 -35h-319l-17 20l17 21q43 57 43 174v363h-105q0 35 4 45t25 16l78 18q4 173 82 269t217 96q90 0 149 -45q68 27 122 27t57 -43v-844q0 -61 36 -62q39 0 76 31l17 -20q-78 -84 -179 -84 q-70 0 -104 32t-33 109v674q2 176 -125 176q-76 0 -104 -76t-27 -240z" />
<glyph unicode="&#xfea3;&#xfee2;" horiz-adv-x="1452" arabic-form="isolated" d="M644 705q42 0 92 -23t126 -66l49 -26q180 -94 418 -135l-133 -158q-68 6 -144.5 6t-142.5 -8q-180 -16 -293 -76q102 -61 134 -123l-37 -221q-105 78 -230 78q-72 0 -132 -28.5t-87 -76.5q-2 -10 -2 -51.5t33 -173.5q6 -35 25.5 -134t19.5 -171t-4 -112 q-10 -104 -66 -216l-34 -16q2 18 2 88t-45 305l-15 74q-35 184 -35 240q0 164 98 316q73 114 177 142q-4 84 16 142q198 141 430 141q-92 31 -175.5 64.5t-99 33.5t-32.5 -16v-47l-31 -11q-26 84 -106 111q25 49 69 107q16 18 64.5 29.5t90.5 11.5z" />
<glyph unicode="&#xfeb3;&#xfee2;" horiz-adv-x="1716" arabic-form="isolated" d="M1593 461q1 -90 -27 -140q-90 -165 -145 -165q-84 0 -133 37t-80 104q-8 -53 -55 -98t-118 -45q-124 0 -191 114q-26 47 -44 72q-43 61 -122.5 61t-122.5 -84q150 -66 195 -157l-35 -223q-103 77 -230 77q-72 0 -132 -28.5t-87 -75.5q-2 -10 -2 -52t33 -173 q6 -35 25.5 -134.5t19.5 -161t-4 -101.5q-10 -104 -66 -216l-34 -16q2 18 2 78.5t-13.5 140.5t-47.5 236.5t-34 220.5q1 64 5 94q18 117 92 231.5t178 143.5q-2 68 16 135q23 70 69 131q97 129 183.5 129t132.5 -86q51 -83 84 -111q41 -29 122 -28.5t128 78.5q33 53 39 133 l31 -15q9 -193 198 -190l35 2q2 57 -35 170l109 141q61 -61 61 -229z" />
<glyph unicode="&#xfebb;&#xfee2;" horiz-adv-x="1837" arabic-form="isolated" d="M1389 551q-123 0 -232 -88q-41 -31 -70.5 -69t-29.5 -42h172q129 0 201.5 21.5t93 36t41.5 34.5q0 4 -14.5 26t-39.5 40q-51 41 -122 41zM264 -142q0 -42 33 -173q5 -35 25 -135q20 -98 20 -160q0 -203 -70 -338l-34 -17q2 18 2 109t-47.5 307.5t-47.5 280.5q1 64 5 94 q18 117 92 231.5t178 143.5q-2 57 14 119q33 127 108 204.5t154 77.5t125 -86q10 -14 33 -54q47 -82 115 -97q130 212 312 313q81 45 157 45q117 0 190 -70q49 -49 86 -149q-27 -92 -57.5 -146.5t-94 -108.5t-163 -90t-220 -36t-190 29.5t-119.5 83.5q-34 42 -60 80 q-59 86 -124 85.5t-131 -84.5q147 -63 195 -155l-37 -228q-107 80 -228 80q-72 0 -132 -28.5t-87 -75.5q-2 -10 -2 -52z" />
<glyph unicode="&#xfecb;&#xfee2;" horiz-adv-x="1341" arabic-form="isolated" d="M264 -285q0 -42 33 -174q6 -35 25.5 -134t19.5 -161q0 -202 -70 -338l-34 -16q2 18 2 109t-48 307q-47 218 -47 282q1 64 5 92q18 116 92 231.5t178 143.5q-2 57 13 118.5t91 123t154 86.5q-61 43 -96 101.5t-43 113.5q13 214 141 301q72 49 157 49t158 -47 q53 -39 92 -102l-47 -86q-96 49 -184 49t-156 -55q-43 -33 -61 -64q66 -70 130.5 -106.5t94.5 -46.5q180 59 355 102l-70 -201q-127 -18 -309.5 -94t-249.5 -137q68 -27 108.5 -49.5t57.5 -55.5l-39 -264q-100 78 -232 78q-72 0 -132 -28.5t-87 -75.5q-2 -10 -2 -52z" />
<glyph unicode="&#xfb90;&#xfede;" horiz-adv-x="1769" arabic-form="isolated" d="M1155 217q160 0 221 92q-36 129 -149 234.5t-252 152.5l22 -196q19 -178 62 -230.5t96 -52.5zM293 236q-68 -93 -68 -215t102.5 -194.5t262.5 -72.5q228 0 334 129l-150 1223l131 151q23 -170 47 -383q45 61 168 134t288 154t216 108.5t125 75.5l-51 -232 q-62 -41 -285 -142t-268 -134q121 -61 217 -179q133 -161 133 -311t-59 -235q-68 -104 -254 -113q-113 0 -152 39v-105q0 -201 -130 -311.5t-331 -110t-313 106.5t-113 291q0 98 32 197.5t85 160.5z" />
<glyph unicode="&#xfb90;&#xfef0;" horiz-adv-x="1398" arabic-form="isolated" d="M588 -215q98 0 178 14q170 27 242 97q4 55 -79 76.5t-214 27.5l-23 43l53 172q94 10 153.5 26.5t94.5 59.5q-37 82 -102 166q-68 84 -123 125v-70q-68 51 -85 91t-17 138.5t6 144.5t46 82t118.5 80t222.5 114.5t195 98t124 75.5l-51 -232q-61 -41 -286 -143t-255 -123 q106 -85 197 -215q121 -167 121 -285q0 -80 -24.5 -133t-98.5 -96q76 -27 125 -74t39.5 -102.5t-29.5 -123.5q-38 -127 -242 -208q-156 -59 -288 -59q-236 -1 -342 122q-101 116 -101 296q0 84 31 177t86 160l33 -33q-20 -23 -44 -81t-26 -123q0 -137 103.5 -211t261.5 -74z " />
<glyph unicode="&#xfedf;&#xfea2;" horiz-adv-x="1193" arabic-form="isolated" d="M641 1212q-47 -47 -47 -79.5t9 -106.5t9 -270q0 -33 -28 -94q222 -77 387 -78l76 -2l-78 -205q-136 0 -280.5 -44t-254.5 -136q-164 -141 -164 -336t191 -318q150 -94 373 -94h196l-180 -207l-119 2q-139 2 -237.5 32t-174 101.5t-117.5 182t-42 237.5q0 244 138 412 t368 250q-328 71 -346.5 71t-32.5 -18v-47l-25 -10q-28 69 -90 89q-22 7 -29 7l21 41q16 33 45 80q16 26 127.5 28t161.5 19q-32 298 -70 442l-31 29q0 66 15 110q27 86 100 97q33 -74 57.5 -111t71.5 -74z" />
<glyph unicode="&#xfedf;&#xfee2;" horiz-adv-x="894" arabic-form="isolated" d="M578 1212q-48 -48 -48 -80t16.5 -158.5t28.5 -303.5l7 -90q8 -106 8 -180t-21 -121q63 -20 112.5 -57.5t72.5 -78.5l-37 -231q-89 68 -232 68q-72 0 -132 -29t-87 -76q-2 -10 -2 -52t33 -173q6 -35 25.5 -134.5t19.5 -161.5q0 -201 -70 -337l-34 -16q2 18 2 108t-60 359 q-25 125 -29.5 169t-5.5 111q0 340 263 418q0 59 63 162q-6 111 -37 395.5t-69 437.5l-31 29q0 190 115 207q33 -74 57 -111t72 -74z" />
<glyph unicode="&#xfedf;&#xfef0;" horiz-adv-x="1310" arabic-form="isolated" d="M977 1135q0 -10 18.5 -131t48 -363t29.5 -311.5t-22.5 -114.5t-77.5 -86q74 -20 124 -65.5t50 -90.5t-31 -155q-33 -125 -242 -207q-156 -59 -288 -59q-236 -1 -342 122q-101 116 -101 296q0 84 31 177t86 160l33 -33q-20 -23 -44 -81t-26 -123q0 -137 103.5 -211 t261.5 -74q98 0 178 14q170 27 242 97q4 55 -79 76.5t-214 27.5l-23 43l53 172q154 4 218 76q-15 219 -101 661q-20 102 -53 207l-31 29q-9 43 8 110q25 88 95 101q37 -72 63.5 -107t75.5 -69q-43 -46 -43 -88z" />
<glyph unicode="&#xfee3;&#xfef0;" horiz-adv-x="1626" arabic-form="isolated" d="M588 -215q98 0 178 14q170 27 242 97q4 55 -79 76.5t-214 27.5l-23 43l60 172q88 98 206 164q106 55 211 78l-18 14q-16 14 -16 90v203q10 -27 50 -37t131 -25.5t140 -40t47 -79.5l-2 -131q-1 -121 -107 -144q-56 -12 -139.5 -12t-173.5 -25q-145 -41 -192 -118 q119 -18 188.5 -72.5t69.5 -112.5q0 -12 -2 -22t-9.5 -48t-23.5 -91.5t-80.5 -105.5t-189 -100t-256.5 -48q-236 -1 -342 122q-101 116 -101 296q0 84 31 177t86 160l33 -33q-20 -23 -44 -81t-26 -123q0 -137 103.5 -211t261.5 -74z" />
<glyph unicode="&#xfbac;&#xfef0;" horiz-adv-x="1746" arabic-form="isolated" d="M1475 281q23 0 43 26.5t24 63.5q-20 59 -68.5 107.5t-84 74t-43.5 31.5q54 -135 -9 -232q87 -46 138 -71zM1171 616q-72 0 -120 -79q10 -31 43.5 -55.5t113.5 -61.5q51 39 82 90q-8 49 -45 77.5t-74 28.5zM1133 791v122q17 -39 184 -131q66 -35 79 -45q13 -9 56 -39 q172 -118 172 -325q0 -146 -74 -232q-43 -53 -96 -53q-90 63 -205 131q-125 -121 -274 -166q78 -27 128 -74t38 -111.5t-25 -111.5q-33 -125 -242 -207q-156 -59 -288 -59q-236 0 -342 123q-101 116 -101 296q0 83 31 176t86 161l33 -33q-20 -23 -44 -81t-26 -124 q0 -137 103.5 -211t261.5 -73q98 0 178 14q170 27 242 96q4 55 -79 76.5t-214 28.5l-23 43l53 172q186 49 338 155q-68 35 -87 63.5t-19 101.5t46 147.5t128 107.5q-18 24 -18 62z" />
<glyph unicode="&#xfb91;&#xfede;" horiz-adv-x="1918" arabic-form="final" d="M1178 217q130 0 194 64q-104 164 -181 254.5t-220 185.5l26 -221q10 -92 25.5 -147.5t48.5 -95.5t107 -40zM293 236q-68 -93 -68 -215t102.5 -194.5t262.5 -72.5q228 0 334 129l-150 1223l131 151l49 -407q16 55 56 91q70 62 358 205t371 200l-51 -232 q-33 -25 -216.5 -113.5t-226.5 -112.5t-100 -61q135 -106 194.5 -189t127 -189.5t107.5 -150.5t89 -62.5t123 -18.5h133v-217h-147q-119 0 -190 51t-118 123q-31 -76 -108.5 -125t-150 -49t-105.5 7t-70 32v-105q0 -201 -130 -311.5t-331 -110t-313.5 106.5t-112.5 291 q0 98 32 197.5t85 160.5z" />
<glyph unicode="&#xfb91;&#xfef0;" horiz-adv-x="1579" arabic-form="final" d="M586 -510q-236 0 -342 123q-101 116 -101 296q0 83 31 176t86 161l33 -33q-20 -23 -44 -81t-26 -124q0 -137 103.5 -211t261.5 -73q98 0 178 14q170 27 242 96q4 55 -79 76.5t-214 28.5l-23 43l53 172q208 36 285 129q-121 200 -221 276v-37q-90 70 -98 140q-4 36 -4 119 t11 125t46 76t103.5 72t264 133.5t287.5 158.5l-51 -232q-33 -25 -216.5 -113.5t-226 -112.5t-100.5 -61q90 -70 162 -171t139.5 -207.5t107.5 -150.5t89 -62.5t123 -18.5h133v-217h-147q-123 0 -199 48t-133 132q-32 -83 -125 -127q78 -27 128 -74t40 -98l-27 -125 q-29 -123 -242 -207q-156 -59 -288 -59z" />
<glyph unicode="&#xfee0;&#xfef0;" horiz-adv-x="1462" arabic-form="final" d="M1462 217v-217h-127q-90 0 -149 55t-84 129q-14 -39 -48 -74.5t-79 -56.5q78 -27 128 -74t40 -98l-27 -125q-29 -123 -242 -207q-156 -59 -288 -59q-236 0 -342 123q-101 116 -101 296q0 83 31 176t86 161l33 -33q-20 -23 -44 -81t-26 -124q0 -137 103.5 -211t261.5 -73 q98 0 178 14q170 27 242 96q4 55 -79 76.5t-214 28.5l-23 43l53 172q141 25 222 73q76 49 102 119q-20 223 -80 684l-26 213l129 152l45 -375q59 -487 63 -518q20 -162 65.5 -223.5t141.5 -61.5h55z" />
<glyph unicode="&#xfea3;&#xfee4;" horiz-adv-x="1427" arabic-form="initial" d="M406.5 373q-31.5 0 -66.5 -21.5t-53 -58.5q39 -37 97 -61.5t110 -26.5l38 82q-26 38 -60 62t-65.5 24zM519.5 776q-30.5 0 -42.5 -24v-52l-22 -10q-41 65 -99 79q-20 5 -26 5q4 10 19.5 51t39.5 90q12 20 70.5 39t103.5 19t88 -13.5t121 -48.5l82 -34q205 -86 401 -86h50 l-115 -207q-51 6 -148.5 6t-250 -31t-256.5 -96q74 -53 73.5 -133t-57.5 -271q-18 -18 -57 -32.5t-72 -14.5q-86 0 -131 54.5t-45 132.5q-18 -80 -79 -139.5t-165 -59.5h-37q-45 0 -76.5 31.5t-31.5 77t31.5 77t76.5 31.5h55q78 0 123 42t88 122q63 129 223.5 217t342.5 96 q-247 82 -277.5 82z" />
<glyph unicode="&#xfeb3;&#xfee4;" horiz-adv-x="1511" arabic-form="initial" d="M1217 197q-84 0 -133.5 37t-79.5 104q-8 -53 -55.5 -98t-118.5 -45q-122 0 -191 114q-27 47 -44 72q-41 61 -124 61q-37 0 -74 -30.5t-59 -69.5q24 -54 96 -71q94 -22 129 -58l-41 -272q-84 67 -192 67l-172 -8h-193q-45 0 -76.5 30.5t-31.5 76t31.5 78t76.5 32.5h129 q70 0 121 41q0 57 16 119q23 70 69 131q97 129 183.5 129t132.5 -86q51 -83 84 -111q41 -29 122 -28.5t128 77.5q33 53 39 134l31 -15q9 -193 199 -190l34 2q2 57 -34 170l108 141q29 -29 45 -93q32 -123 2 -247q-15 -44 -63 -110q-57 -84 -94 -84z" />
<glyph unicode="&#xfebb;&#xfee4;" horiz-adv-x="1634" arabic-form="initial" d="M854 393h172q129 0 201.5 21.5t93 36t41.5 34.5q0 3 -14 25q-55 81 -170 81.5t-224 -87.5q-41 -31 -70.5 -69t-29.5 -42zM-35 0q-45 0 -76.5 30.5t-31.5 76t31.5 78t76.5 32.5h129q70 0 121 41q0 99 48 194q97 191 226 191q80 0 129 -86q10 -14 33 -54q47 -82 115 -97 q128 210 312 313q80 45 157 45q117 0 190 -70q49 -49 86 -149q-27 -93 -57 -147t-94 -108q-148 -126 -389 -126q-200 0 -290 98q-36 39 -69 85t-58.5 68.5t-67.5 24.5t-83 -25.5t-65 -72.5q23 -50 91 -74q23 -8 63.5 -20.5t68.5 -40.5l-37 -256q-80 61 -178 61q-43 0 -86 -6 l-102 -6h-193z" />
<glyph unicode="&#xfecb;&#xfee4;" horiz-adv-x="1163" arabic-form="initial" d="M406.5 373q-31.5 0 -66.5 -21.5t-53 -58.5q39 -37 97 -61.5t110 -26.5l38 82q-26 38 -60 62t-65.5 24zM422 12q-86 0 -131 54.5t-45 132.5q-18 -80 -79 -139.5t-165 -59.5h-37q-45 0 -76.5 31.5t-31.5 77t31.5 77t76.5 31.5h55q78 0 123 42t85 120t109 144.5t163 99.5 q-119 84 -140 215q13 213 142 301q72 49 156.5 49t158.5 -47q53 -39 92 -103l-47 -86q-96 49 -184 49t-156 -55q-43 -33 -61 -63q66 -70 130.5 -107t94.5 -47q197 65 354 102l-69 -200q-96 -14 -220 -60.5t-216 -107.5q74 -53 73.5 -133t-57.5 -271q-18 -18 -57 -32.5 t-72 -14.5z" />
<glyph unicode="&#xfb90;&#xfee0;" horiz-adv-x="1107" arabic-form="initial" d="M524 217q124 0 191 92q-37 125 -149 230.5t-244 152.5l24 -190q20 -166 64 -225.5t114 -59.5zM-35 217h123q74 0 106.5 43.5t18.5 101.5l-104 881l129 152l61 -510q56 65 191 141t278.5 146.5t194.5 98t124 75.5l-51 -232q-61 -41 -284 -142t-269 -134q119 -63 213 -176 q138 -162 138 -313t-60 -236q-74 -113 -276 -113q-90 0 -145.5 41t-71.5 102q-12 -47 -57.5 -95t-157.5 -48h-101q-45 0 -76.5 31.5t-31.5 77t31.5 77t76.5 31.5z" />
<glyph unicode="&#xfedf;&#xfea4;" horiz-adv-x="1122" arabic-form="initial" d="M522 1212q-47 -47 -47 -80.5t11 -136.5t26 -350q2 -53 -35 -106q152 -59 258.5 -90t206.5 -31h57l-106 -195q-221 14 -481 -143q-140 -80 -324 -80h-123q-45 0 -76.5 31.5t-31.5 76t31.5 77t76.5 32.5h119q282 -1 410 69q26 14 41 21q-286 96 -318.5 96t-44.5 -24v-51 l-22 -11q-40 65 -98 79q-20 5 -27 5q9 55 59 142q25 47 128.5 47t174.5 18q-39 407 -78 553l-30 29q0 190 114 207q33 -74 57.5 -111t71.5 -74z" />
<glyph unicode="&#xfedf;&#xfee4;" horiz-adv-x="684" arabic-form="initial" d="M-35 0q-45 0 -76.5 30.5t-31.5 76t31.5 78t76.5 32.5h121q80 0 123 43q-36 84 -51 347.5t-103 551.5l-32 29q0 70 10 110q20 88 94 101q35 -72 61.5 -107t77.5 -69q-41 -45 -41 -79t5 -68.5t32 -266.5t60 -408q10 -63 40 -89q36 -30 103.5 -50.5t95.5 -48.5l-37 -272 q-83 69 -192 69l-174 -10h-193z" />
<glyph unicode="&#xfedf;&#xfeec;" horiz-adv-x="903" arabic-form="initial" d="M514 352q0 -55 -35 -108q86 -47 137 -72q24 0 44 26.5t24 63.5q-36 106 -197 213q27 -68 27 -123zM313 508q-72 0 -120 -80q10 -31 43.5 -55.5t113.5 -61.5q51 39 82 90q-8 49 -45 78t-74 29zM381 1135q0 -10 4 -39l14 -99q37 -264 43 -307l119 -82q153 -108 193 -186 q50 -88 9 -252q-19 -76 -69.5 -125t-98.5 -49t-210 88q-57 -49 -129 -66.5t-188 -17.5h-82q-45 0 -77 31.5t-32 76t32 77t77 32.5h82q59 0 102 12q-51 57 -51 134.5t56 163t153 118.5q-59 334 -115 514l-31 29q-9 43 8 110q25 88 95 101q37 -72 63.5 -107t75.5 -69 q-43 -46 -43 -88z" />
<glyph unicode="&#xfee3;&#xfee4;" horiz-adv-x="1013" arabic-form="initial" d="M522 803v203q10 -27 50 -37.5t131.5 -25.5t140.5 -39.5t47 -80.5l-2 -131q0 -63 -25.5 -97t-81 -46t-153.5 -12q-236 0 -326 -144l-2 -2q10 -49 44 -67.5t72 -24.5q131 -21 189 -66l-41 -301q-77 74 -227 74l-90 -2q-61 -4 -90 -4h-193q-45 0 -76.5 30.5t-31.5 76 t31.5 78t76.5 32.5h129q37 0 78 16q-16 37 -16 91t22 102q43 100 151.5 176t227.5 96q-35 25 -35 105z" />
<glyph unicode="&#xfb91;&#xfee0;" horiz-adv-x="1257" arabic-form="medial" d="M524 217q123 0 187 64q-104 164 -179 249q-66 80 -213 183l27 -211q20 -162 63.5 -223.5t114.5 -61.5zM66 0h-101q-45 0 -76.5 31.5t-31.5 77t31.5 77t76.5 31.5h123q74 0 106.5 43.5t18.5 101.5l-104 881l129 152l63 -523q18 45 57 77q79 65 354.5 200.5t364.5 196.5 l-51 -232q-33 -25 -216.5 -113.5t-226 -112.5t-100.5 -61q135 -106 194.5 -189t127 -189.5t107.5 -150.5q74 -81 212 -81h133v-217h-147q-119 0 -189.5 51t-117.5 123q-63 -174 -305 -174q-88 0 -143.5 39t-73.5 104q-12 -47 -57.5 -95t-157.5 -48z" />
<glyph unicode="&#xfec3;&#xfef0;" horiz-adv-x="1904" arabic-form="isolated" d="M1632 545q-64 76 -143 76q-143 0 -277 -166q-39 -47 -66.5 -95.5t-33.5 -66.5l221 80q129 47 191.5 80.5t107.5 91.5zM1176 1126q0 -8 4 -36l12 -64q37 -179 37 -261.5t-10 -139.5q66 74 143.5 118.5t142.5 44.5q111 0 175.5 -61t101.5 -180q-43 -117 -92.5 -176.5 t-131 -98.5t-276.5 -106l-287 -105q61 -18 108.5 -76.5t39.5 -103.5q-14 -78 -27 -125q-33 -125 -242 -207q-156 -59 -288 -59q-236 0 -342 123q-101 116 -101 296q0 83 31 176t86 161l33 -33q-20 -23 -44 -81t-26 -124q0 -137 103.5 -211t261.5 -73q98 0 178 14 q170 27 242 96q4 55 -79 76.5t-214 28.5l-23 43l53 172l222 86q25 61 79 158.5t80 129.5l2 70q0 115 -20 242t-98 317l-31 29q-10 51 14.5 126t93.5 85q53 -123 136 -180q-47 -47 -47 -91z" />
<glyph unicode="&#xfecb;&#xfef0;" horiz-adv-x="1648" arabic-form="isolated" d="M1163.5 797q-88.5 0 -155.5 -56q-43 -33 -62 -63q66 -70 130.5 -107t94.5 -47q191 63 355 103l-70 -201q-80 -14 -200.5 -56t-225 -100.5t-141.5 -117.5q95 -14 153 -50q104 -66 105 -137q0 -10 -2 -20t-9.5 -48t-23.5 -91.5t-80.5 -105.5t-189 -100t-256.5 -48 q-236 -1 -342 122q-101 116 -101 296q0 84 31 177t86 160l33 -33q-20 -23 -44 -81t-26 -123q0 -137 103.5 -211t261.5 -74q98 0 178 14q170 27 242 97q4 55 -79 76.5t-214 27.5l-23 43l60 172q98 121 233 203q-61 43 -96 101.5t-43 113.5q13 214 143 301q70 49 155 49 t159 -47q53 -39 92 -102l-47 -86q-96 49 -184.5 49z" />
<glyph unicode="&#xfeb3;&#xfef0;" horiz-adv-x="2015" arabic-form="isolated" d="M1892 317q0 -89 -28 -139q-90 -166 -144 -166q-84 0 -133 37t-80 105q-8 -53 -53 -99q-49 -45 -120 -45q-121 0 -191 115q-27 47 -44.5 71.5t-48 43t-75.5 18.5t-80 -32.5t-49 -69.5q24 -28 88 -37l35 -8q59 -14 91 -38t32 -81.5t-33 -173.5q-27 -90 -185 -176 q-155 -88 -284 -88q-239 0 -343 114t-104 291q0 89 33 191t84 157l33 -33q-20 -23 -44 -84t-24 -129q0 -133 104.5 -204.5t242.5 -71.5q266 0 413 131q-2 18 -31.5 27.5t-115.5 22.5q-124 19 -123 132q0 29 22.5 101.5t72.5 134.5q97 119 180.5 119t129.5 -86 q53 -86 84 -111q41 -29 122 -29t128 78q33 53 39 133l31 -14q9 -191 198 -191l35 3q2 57 -35 170l109 141q61 -61 61 -230z" />
<glyph unicode="&#xfea3;&#xfef0;" horiz-adv-x="1814" arabic-form="isolated" d="M987 764q39 0 75 -12.5t97 -40.5l103 -43q203 -73 430 -93l-125 -184q-150 9 -384.5 -76.5t-293.5 -162.5q119 -18 188.5 -72.5t69.5 -112.5q0 -12 -2 -22t-9.5 -48t-23.5 -91.5t-80.5 -105.5t-189 -100t-256.5 -48q-236 -1 -342 122q-101 116 -101 296q0 83 31 176.5 t86 160.5l33 -33q-20 -23 -44 -81t-26 -123q0 -137 103.5 -211t261.5 -74q98 0 178 14q170 27 242 97q4 55 -79 76.5t-214 27.5l-23 43l62 180q164 202 477 273l-289 77q-25 0 -41 -20v-47l-24 -10q-27 68 -91 89q-22 7 -28 7q4 8 20.5 42t44.5 79q14 20 69.5 35.5 t94.5 15.5z" />
<glyph unicode="&#xfebb;&#xfef0;" horiz-adv-x="2136" arabic-form="isolated" d="M1528 209q129 0 201.5 21.5t93 36t41.5 34.5q0 4 -14.5 25.5t-39.5 40.5q-51 41 -122 41q-123 0 -232 -89q-41 -31 -70.5 -68.5t-29.5 -41.5h172zM225 61q0 -133 104.5 -204.5t242.5 -71.5q266 0 413 131q-2 18 -31.5 27.5t-115.5 22.5q-124 19 -123 132q0 29 12 70 q35 115 94 184q85 107 169 107t130 -86q10 -14 33 -54q48 -84 115 -98q131 213 312 314q81 45 157 45q117 0 190 -70q49 -49 86 -150q-27 -92 -57.5 -146t-94 -108t-163 -90t-220 -36t-190 29.5t-119.5 82.5q-33 41 -59.5 80t-56 62.5t-76.5 23.5t-82 -32.5t-49 -69.5 q24 -28 88 -37l35 -8q59 -14 91 -38t32 -82t-33 -173q-27 -90 -185 -176q-155 -88 -284 -88q-239 0 -343 114t-104 291q0 89 33 191t84 157l33 -33q-20 -23 -44 -84t-24 -129z" />
<glyph unicode="&#xfeb3;&#xfeae;" horiz-adv-x="1609" arabic-form="isolated" d="M1487 327.5q0 -63.5 -12.5 -112t-65.5 -119.5q-57 -84 -94 -84q-84 0 -133 37t-80 105q-14 -63 -73.5 -103.5t-145.5 -40.5q-153 0 -189 129q-100 -20 -202 -47q2 -18 2 -83.5t-27 -149.5q-47 -127 -156 -201q-53 -37 -125.5 -52.5t-115.5 -15.5v-116h-7 q-14 43 -48.5 75.5t-96.5 28.5v215q219 5 309 60q74 41 108 96t34 137v164q203 57 370 76q10 -45 39 -72t117 -27t137 56.5t55 154.5l31 -14q9 -191 199 -191l35 3q2 57 -35 170l108 141q29 -29 45.5 -92.5t16.5 -127z" />
<glyph unicode="&#xfebb;&#xfeae;" horiz-adv-x="1744" arabic-form="isolated" d="M1135 209q172 0 244.5 31.5t93.5 60.5q0 4 -17.5 28.5t-57.5 51.5t-104 27q-117 0 -221 -82q-45 -33 -77.5 -73t-32.5 -44h172zM494 8.5q0 -65.5 -27 -149.5q-47 -127 -156 -201q-53 -37 -125.5 -52.5t-115.5 -15.5v-116h-7q-14 43 -48.5 75.5t-96.5 28.5v215 q219 5 309 60q74 41 108 96t34 137v164q186 49 370 72q-2 -55 23 -80t110 -25q78 128 212 245.5t264 117.5t202 -88q39 -49 72 -132q-39 -156 -143 -249q-143 -131 -400 -131q-88 0 -237 20l-47 -80l-41 45q10 15 26 60q-69 37 -80 108q-68 -14 -208 -41q2 -18 2 -83.5z" />
<glyph unicode="&#xfecc;&#xfef0;" horiz-adv-x="1673" arabic-form="final" d="M1180.5 434q-60.5 0 -76.5 -2q72 -51 104 -113q70 43 115 84q-82 31 -142.5 31zM1454 217h219v-217h-252q-117 0 -178 29.5t-92 85.5q-113 -47 -176 -62q78 -27 128 -74t38 -111.5t-25 -111.5q-33 -125 -242 -207q-156 -59 -288 -59q-236 0 -342 123q-101 116 -101 296 q0 83 31 176t86 161l33 -33q-20 -23 -44 -81t-26 -124q0 -137 103.5 -211t261.5 -73q98 0 178 14q170 27 242 96q4 55 -79 76.5t-214 28.5l-23 43l53 172q137 27 206 43t136 49q-35 59 -85 83.5t-85 24.5t-65 -10l27 145q119 94 280 95q92 0 172 -27t131 -68l-28 -178 q-20 -16 -95 -84q23 -10 115 -10z" />
<glyph unicode="&#xfeb4;&#xfef0;" horiz-adv-x="2109" arabic-form="final" d="M2040 217h69v-217h-61q-141 0 -201 137q-8 -59 -53 -92t-119 -33t-115 41t-53 101q-10 -61 -58 -102.5t-117 -41.5q-119 0 -189 115q-27 47 -44.5 71.5t-48 43t-75.5 18.5t-80 -32.5t-49 -69.5q24 -28 88 -37l35 -8q59 -14 91 -38t32 -81.5t-33 -173.5q-27 -90 -185 -176 q-155 -88 -284 -88q-239 0 -343 114t-104 291q0 89 33 191t84 157l33 -33q-20 -23 -44 -84t-24 -129q0 -133 104.5 -204.5t242.5 -71.5q266 0 413 131q-2 18 -31.5 27.5t-115.5 22.5q-124 19 -123 132q0 29 22.5 101.5t72.5 134.5q97 119 180.5 119t129.5 -86q39 -68 60 -88 q43 -50 132 -50t132 59.5t49 149.5l31 -14q7 -195 162 -195q139 0 139 211l28 -16q4 -66 31 -121q51 -86 156 -86z" />
<glyph unicode="&#xfea4;&#xfef0;" horiz-adv-x="1865" arabic-form="final" d="M987 723q39 0 75 -12.5t97 -40.5l150 -62q39 -14 106.5 -39t233.5 -34l-64 -170q-39 4 -57 2q10 -76 61 -113t156 -37h121v-217h-123q-186 0 -260 94q-53 70 -53 172q0 41 10 96q-137 -10 -316.5 -71.5t-234.5 -138.5q119 -18 188.5 -72.5t69.5 -112.5q0 -12 -2 -22 t-9.5 -48t-23.5 -91.5t-80.5 -105.5t-189 -100t-256.5 -48q-236 -1 -342 122q-101 116 -101 296q0 83 31 176.5t86 160.5l33 -33q-20 -23 -44 -81t-26 -123q0 -137 103.5 -211t261.5 -74q98 0 178 14q170 27 242 97q4 55 -79 76.5t-214 27.5l-23 43l60 172q159 199 465 240 l-275 77q-25 0 -41 -20v-47l-24 -10q-27 68 -91 89q-22 7 -28 7l20 41q16 33 45 80q14 20 69.5 35.5t94.5 15.5z" />
<glyph unicode="&#xfebc;&#xfef0;" horiz-adv-x="2234" arabic-form="final" d="M1528 209q172 0 244.5 31.5t93.5 60.5q0 4 -17.5 28.5t-57.5 51.5t-103 27q-117 0 -222 -82q-45 -33 -77.5 -73t-32.5 -44h172zM977 258q-47 0 -82 -32.5t-49 -69.5q24 -28 88 -37l35 -8q59 -14 91 -38t32 -81.5t-33 -173.5q-27 -90 -185 -176q-155 -88 -284 -88 q-239 0 -343 114t-104 291q0 89 33 191t84 157l33 -33q-20 -23 -44 -84t-24 -129q0 -133 104.5 -204.5t242.5 -71.5q266 0 413 131q-2 18 -31.5 27.5t-115.5 22.5q-124 19 -123 132q0 29 12 70q35 115 94 184q85 107 169 107t130 -86q10 -14 33 -54q48 -84 115 -98 q86 135 214.5 247t259 112t202.5 -88q39 -49 71 -132q-23 -80 -47 -124q35 -18 96 -19h170v-217h-178q-68 0 -117 29.5t-71 79.5q-149 -129 -395 -129q-115 0 -184.5 29.5t-119.5 82.5q-33 41 -59.5 80t-56 62.5t-76.5 23.5z" />
<glyph unicode="&#xfeb4;&#xfeae;" horiz-adv-x="1708" arabic-form="final" d="M891 0q-151 0 -201 129q-98 -16 -198 -37q2 -18 2 -83.5t-27 -149.5q-47 -127 -156 -201q-53 -37 -125.5 -52.5t-115.5 -15.5v-116h-7q-14 43 -48.5 75.5t-96.5 28.5v215q219 5 309 60q74 41 108 96t34 137v164q190 55 370 74q33 -93 156 -95q78 0 121 37q76 58 76 174 l30 -16q7 -195 162 -195q78 0 111 66q29 49 28 145l29 -16q4 -66 31 -121q51 -86 155 -86h70v-217h-61q-143 0 -201 137q-8 -59 -53 -92t-123 -33t-127 62q-20 29 -37 84q-18 -106 -130 -144q-40 -14 -85 -14z" />
<glyph unicode="&#xfebc;&#xfeae;" horiz-adv-x="1841" arabic-form="final" d="M1135 209q172 0 244.5 31.5t93.5 60.5q0 4 -17.5 28.5t-57.5 51.5t-104 27q-117 0 -221 -82q-45 -33 -77.5 -73t-32.5 -44h172zM494 8.5q0 -65.5 -27 -149.5q-47 -127 -156 -201q-53 -37 -125.5 -52.5t-115.5 -15.5v-116h-7q-14 43 -48.5 75.5t-96.5 28.5v215 q219 5 309 60q74 41 108 96t34 137v164q178 51 370 72q-2 -55 23 -80t110 -25q78 128 212 245.5t264 117.5t202 -88q39 -49 72 -132q-23 -80 -47 -124q35 -18 96 -19h170v-217h-178q-68 0 -117 29.5t-71 79.5q-149 -129 -396 -129q-88 0 -237 20l-47 -80l-41 45q10 15 26 60 q-63 34 -80 108l-208 -41q2 -18 2 -83.5z" />
<glyph unicode="&#xfedf;&#x627;" horiz-adv-x="1042" arabic-form="isolated" d="M541 217q148 0 198 10q-23 57 -45 107q-76 -80 -153 -117zM940 1214q-47 -42 -47 -76t5 -81t5 -137q0 -276 -121 -471q61 -135 52 -179l-66 -268q-10 0 -82 -2t-248 -4l-248 -4l56 225h45q102 16 200 73.5t152 137.5q-169 306 -430 533l-14 -56l-168 176l57 209 q191 -109 377.5 -337t257.5 -388q45 127 45 301.5t-41 294.5l-31 31q0 73 26 135t89 70q27 -66 54.5 -107t74.5 -76z" />
<glyph unicode="&#xfee0;&#x627;" horiz-adv-x="1298" arabic-form="final" d="M1298 217v-217h-131q-115 0 -185.5 67.5t-84.5 208.5l-20 207q-27 -197 -181 -340q-131 -123 -342 -188l-354 20q493 199 639 379q-35 148 -133 284t-197 202l-14 -54l-168 175l55 210q176 -82 320 -258q92 -115 151.5 -243.5t69.5 -229.5q51 51 94 178t37 261l-23 372 l140 144q43 -737 55 -900t50 -220.5t141 -57.5h81z" />
<glyph unicode="&#xfea3;&#xfee4;&#xfef0;" horiz-adv-x="2342" d="M1322 373q-32 0 -66.5 -21.5t-53.5 -58.5q39 -37 97.5 -61.5t109.5 -26.5l39 82q-24 37 -59 61.5t-67 24.5zM1479 973q45 0 88 -13.5t121 -48.5l81 -34q205 -86 402 -86h49l-113 -207q-66 4 -143.5 4t-191.5 -19q-195 -27 -322 -106q74 -53 74 -131t-58 -262 q-21 -21 -58.5 -34t-70.5 -13q-76 0 -126 52t-50 124q-20 -51 -69.5 -90t-116.5 -56q78 -27 128 -74t40 -98l-27 -125q-29 -123 -242 -207q-156 -59 -288 -59q-236 0 -342 123q-101 116 -101 296q0 83 31 176t86 161l33 -33q-20 -23 -44 -81t-26 -124q0 -137 103.5 -211 t261.5 -73q98 0 178 14q170 27 240 96q4 55 -78 76.5t-213 28.5l-23 43l53 172q143 10 251 70.5t156 164t173 182.5q166 111 387 123q-247 82 -277 82t-42 -24v-52l-23 -10q-40 65 -98 79q-20 5 -27 5q4 10 18.5 51t41.5 90q12 20 70.5 39t103.5 19z" />
<glyph unicode="&#xfeb3;&#xfee4;&#xfef0;" horiz-adv-x="2439" d="M2316 502q0 -90 -27.5 -140.5t-50.5 -80.5q-57 -84 -94 -84q-84 0 -133 37t-80 104q-8 -53 -55 -98t-118 -45q-124 0 -191 114q-27 47 -45 72q-43 61 -123 61q-37 0 -74 -30.5t-59 -69.5q20 -44 80 -64l28 -10q6 -2 46.5 -14.5t68.5 -40.5l-37 -272q-138 106 -350 106 q-66 0 -127 -12q76 -27 127 -75t41 -97l-27 -125q-29 -123 -242 -207q-156 -59 -288 -59q-237 0 -342 122q-101 116 -101 296q0 84 31 177t86 160l33 -32q-20 -23 -44 -81.5t-26 -123.5q0 -137 103.5 -211t261.5 -74q98 0 178 14q170 27 240 97q4 55 -78 76.5t-213 27.5 l-23 43l53 172q70 45 169.5 64.5t157 19.5t71.5 -2q1 147 65 267q34 62 92 107.5t111 45.5t82 -22.5t64.5 -83.5t70.5 -91q41 -29 122 -28.5t128 77.5q33 53 39 134l31 -15q9 -193 198 -190l35 2q2 57 -35 170l109 141q61 -61 61 -229z" />
<glyph unicode="&#xfebb;&#xfee4;&#xfef0;" horiz-adv-x="2541" d="M2093 592q-123 0 -231 -88q-41 -31 -71 -69t-30 -42h172q129 0 202 21.5t93.5 36t40.5 34.5q0 4 -14 25.5t-39 40.5q-51 41 -123 41zM1098 47q-70 0 -123 -12q76 -27 127 -75t41 -97l-27 -125q-29 -123 -242 -207q-156 -59 -288 -59q-237 0 -342 122q-101 116 -101 296 q0 84 31 177t86 160l33 -32q-20 -23 -44 -81.5t-26 -123.5q0 -137 103.5 -211t261.5 -74q98 0 178 14q170 27 240 97q4 55 -78 76.5t-213 27.5l-23 43l53 172q142 92 377 82q0 139 65 267q32 64 88 111.5t129 47.5t122 -86q10 -14 32 -54q46 -82 115 -97q129 210 313 313 q80 45 156 45q117 0 191 -70q49 -49 86 -149q-27 -92 -57.5 -146.5t-90.5 -105.5q-154 -129 -387 -129q-206 0 -296 98q-36 39 -68.5 85t-58 68.5t-67.5 24.5t-83 -25.5t-66 -72.5q23 -51 91 -74q24 -8 64 -20.5t68 -40.5l-36 -256q-76 57 -201 82q-63 14 -133 14z" />
<glyph unicode="&#xfecb;&#xfee4;&#xfef0;" horiz-adv-x="2078" d="M1322 373q-32 0 -66.5 -21.5t-53.5 -58.5q39 -37 97.5 -61.5t109.5 -26.5l39 82q-24 37 -59 61.5t-67 24.5zM1593.5 991q-88.5 0 -155.5 -55q-43 -33 -62 -64q66 -70 130.5 -106.5t95.5 -46.5q197 65 354 102l-70 -200q-100 -18 -222 -61.5t-214 -96.5q74 -53 74 -131 t-58 -262q-21 -21 -58.5 -34t-70.5 -13q-76 0 -126 52t-50 124q-18 -49 -74.5 -91t-111.5 -55q78 -27 128 -74t40 -98l-27 -125q-29 -123 -242 -207q-156 -59 -288 -59q-236 0 -342 123q-101 116 -101 296q0 83 31 176t86 161l33 -33q-20 -23 -44 -81t-26 -124 q0 -137 103.5 -211t261.5 -73q98 0 178 14q170 27 240 96q4 55 -78 76.5t-213 28.5l-23 43l53 172q294 20 402 227q35 74 103.5 136.5t164.5 94.5q-61 43 -96 101.5t-43 113.5q13 214 143 301q70 49 155 49.5t159 -47.5q53 -39 92 -102l-47 -86q-96 49 -184.5 49z" />
<glyph unicode="&#xfb90;&#xfeda;" horiz-adv-x="2451" d="M1864 217q129 0 194 92q-35 131 -150.5 233.5t-242.5 149.5l23 -192q20 -166 65 -228q45 -55 111 -55zM916 354q-88 0 -187 31l16 33q15 -2 67 2q135 10 165 51q0 2 -10.5 8t-47 6t-61.5 23q-25 29 -24 70q0 66 64 112.5t142 65.5l-34 -111q-41 0 -70 -13.5t-29 -31.5 q0 -4 20.5 -14.5t62.5 -11.5q78 -2 63 -64q-20 -94 -60.5 -125t-76.5 -31zM291 627q-49 -83 -49 -169t40 -142q101 -143 523 -142q291 0 473 46t281 108l-109 915l129 152l61 -512q56 65 238 170q90 49 233.5 119.5t194.5 98t125 75.5l-51 -232q-62 -41 -285 -142t-268 -134 q113 -58 193 -150q157 -180 157 -335t-59 -240q-74 -113 -271 -113q-115 0 -173 49t-83 135q-272 -231 -874 -231q-340 0 -484 147q-90 96 -90 230q0 88 35 187t80 140z" />
<glyph unicode="&#xfb91;&#xfeda;" horiz-adv-x="2600" d="M1868 217q122 0 186 64q-104 164 -175 247.5t-218 186.5l27 -215q20 -164 64 -223.5t116 -59.5zM916 354q-88 0 -187 31l16 33q15 -2 67 2q135 10 165 51q0 2 -10.5 8t-47 6t-61.5 23q-25 29 -24 70q0 66 64 112.5t142 65.5l-34 -111q-41 0 -70 -13.5t-29 -31.5 q0 -4 20.5 -14.5t62.5 -11.5q78 -2 63 -64q-20 -94 -60.5 -125t-76.5 -31zM291 627q-49 -83 -49 -169t40 -142q101 -143 523 -142q291 0 473 46t281 108l-109 915l129 152l63 -527q18 45 58 78q77 64 357.5 203.5t363.5 196.5l-51 -232q-33 -25 -216.5 -113.5t-226.5 -112.5 t-100 -61q135 -106 194.5 -189t127 -189.5t107.5 -150.5t89 -62.5t123 -18.5h133v-217h-147q-119 0 -190 51t-118 123q-53 -174 -325 -174q-90 0 -151.5 52t-78.5 132q-272 -231 -874 -231q-340 0 -484 147q-90 96 -90 230q0 88 35 187t80 140z" />
<glyph unicode="&#xfb90;&#xfee0;&#xfe8e;" horiz-adv-x="1904" d="M1296 217q150 0 215 92q-39 129 -148.5 231.5t-246.5 153.5l12 -198q12 -166 51 -222.5t117 -56.5zM1630 341q0 -143 -59 -228q-35 -53 -114 -83t-183 -30q-156 0 -225 115q-49 77 -62 252l-8 116q-27 -197 -169 -330t-353 -198l-355 20q494 199 639 379 q-35 148 -133 284t-196 202l-15 -54l-168 175l56 210q176 -82 319 -258q92 -115 151.5 -243.5t69.5 -229.5q51 51 94.5 178t36.5 261l-22 372l139 144l31 -502q51 55 133 103t94 57q90 49 233.5 119.5t194.5 98t125 75.5l-51 -232q-61 -41 -284.5 -142t-268.5 -134 q137 -74 243.5 -214t106.5 -283z" />
<glyph unicode="&#xfb91;&#xfee0;&#xfe8e;" horiz-adv-x="2025" d="M1108 496q12 -164 53 -224q32 -51 127 -55q131 4 191 64q-104 164 -179 249q-61 76 -206 179zM2025 217v-217h-147q-119 0 -189.5 51t-117.5 123q-29 -84 -112 -129t-210 -45q-160 0 -225 117q-45 82 -57 250l-9 116q-27 -197 -169 -330t-353 -198l-354 20 q493 199 639 379q-36 151 -134 285.5t-196 200.5l-14 -54l-168 175l55 210q176 -82 320 -258q92 -115 151.5 -243.5t69.5 -229.5q51 51 94 178t37 261l-23 372l140 144l28 -496q39 55 129 106q188 105 367 192.5t268 148.5l-51 -232q-33 -25 -216.5 -113.5t-226 -112.5 t-100.5 -61q135 -106 194.5 -189t127 -189.5t107.5 -150.5q74 -81 212 -81h133z" />
<glyph unicode="&#xfb90;&#xfee0;&#xfef0;" horiz-adv-x="2002" d="M1418 217q124 0 192 92q-35 131 -154 235.5t-239 147.5l24 -190q20 -166 63.5 -225.5t113.5 -59.5zM1393 0q-115 0 -187 72q-47 45 -63 112q-14 -43 -61.5 -80.5t-106.5 -50.5q78 -27 128 -74t38 -111.5t-25 -111.5q-33 -125 -242 -207q-156 -59 -288 -59 q-236 0 -342 123q-101 116 -101 296q0 83 31 176t86 161l33 -33q-20 -23 -44 -81t-26 -124q0 -137 103.5 -211t261.5 -73q98 0 178 14q170 27 242 96q4 55 -79 76.5t-214 28.5l-23 43l53 170q165 9 277 84q61 43 88 106l-106 901l129 152l61 -510q56 65 191 141t278.5 146.5 t194.5 98t124 75.5l-51 -232q-61 -41 -284 -142t-269 -134q125 -66 226 -189q125 -162 125 -306.5t-60 -229.5q-74 -113 -276 -113z" />
<glyph unicode="&#xfb91;&#xfee0;&#xfef0;" horiz-adv-x="2152" d="M1419 217q123 0 187 64q-104 164 -179 249q-66 80 -213 183l27 -211q20 -162 63.5 -223.5t114.5 -61.5zM586 -510q-236 0 -342 123q-101 116 -101 296q0 83 31 176t86 161l33 -33q-20 -23 -44 -81t-26 -124q0 -137 103.5 -211t261.5 -73q98 0 178 14q170 27 242 96 q4 55 -79 76.5t-214 28.5l-23 43l53 172q301 26 365 190l-106 899l129 152l63 -523q18 45 57 77q79 65 354.5 200.5t364.5 196.5l-51 -232q-33 -25 -216.5 -113.5t-226 -112.5t-100.5 -61q135 -106 194.5 -189t127 -189.5t107.5 -150.5q74 -81 212 -81h133v-217h-147 q-119 0 -189.5 51t-117.5 123q-20 -76 -94 -123q-75 -51 -211 -51q-191 0 -250 184q-14 -39 -61.5 -77.5t-106.5 -53.5q78 -27 128 -74t38 -111.5t-25 -111.5q-33 -125 -242 -207q-156 -59 -288 -59z" />
<glyph unicode="&#xfb90;&#xfe8e;" horiz-adv-x="983" d="M229 414q4 -102 31 -149.5t112 -46.5t122.5 20.5t74.5 70.5q-43 100 -122.5 194.5t-225.5 207.5zM688 348q0 -150 -59 -235q-74 -113 -234 -113t-227 74q-66 68 -68 209q-8 461 -16 634t-43 310q94 105 131 168h27q2 -31 5 -119t5 -141l2 -60l6 -149q28 36 72 61 q159 91 328.5 173.5t220.5 110t125 75.5l-52 -232q-61 -41 -286 -143t-254 -123q95 -72 171 -178q146 -204 146 -322z" />
<glyph unicode="&#xfb91;&#xfe8e;" horiz-adv-x="1140" d="M414 217q117 0 180 64q-82 131 -167 220t-204 195q0 -330 19.5 -385t57.5 -74.5t114 -19.5zM1008 217h133v-217h-148q-119 0 -189.5 51t-117.5 123q-34 -63 -68 -100q-67 -74 -225 -74t-225 74q-66 68 -68 209q-8 461 -16 634t-43 310q94 105 131 168h27q2 -31 5 -119 t5 -141l2 -60l6 -145q51 44 370 204q319 161 394 212l-51 -232q-33 -25 -216.5 -113.5t-226.5 -112.5t-100 -61q90 -70 161.5 -171t139.5 -207.5t108 -150.5t89 -62.5t123 -18.5z" />
<glyph unicode="&#xfedf;&#xfea4;&#xfef0;" horiz-adv-x="1814" d="M1255 1212q-47 -47 -47 -79.5t9 -106.5t10 -270q0 -33 -29 -94l68 -27q160 -69 310 -74q56 -2 105 -2l-108 -203q-158 4 -369 -56t-315 -148q119 -18 188.5 -72.5t69.5 -112.5q0 -12 -2 -22t-9.5 -48t-23.5 -91.5t-80.5 -105.5t-189 -100t-256.5 -48q-236 -1 -342 122 q-101 116 -101 296q0 83 31 176.5t86 160.5l33 -33q-20 -23 -44 -81t-26 -123q0 -137 103.5 -211t261.5 -74q98 0 178 14q170 27 242 97q4 55 -79 76.5t-214 27.5l-23 43l60 172q78 92 202.5 156t262.5 78q-249 83 -274.5 83t-41.5 -20v-47l-24 -10q-27 68 -91 89 q-22 7 -28 7l20 41q16 33 45 80q16 26 127.5 28t161.5 19q-32 298 -70 442l-30 29q0 190 114 207q33 -74 57.5 -111t71.5 -74z" />
<glyph unicode="&#xfedf;&#xfee4;&#xfef0;" horiz-adv-x="1632" d="M586 -528q-237 0 -342 122q-101 116 -101 296q0 84 31 177t86 160l33 -32q-20 -23 -44 -81.5t-26 -123.5q0 -137 103.5 -211t261.5 -74q98 0 178 14q170 27 240 97q4 55 -78 76.5t-213 27.5l-23 43l53 172q70 47 171.5 65.5t179.5 18.5l47 -2q-28 68 -41.5 249.5 t-20.5 231.5q-20 209 -98 461l-33 29q0 71 11 110q20 88 94 101q35 -72 61.5 -107t77.5 -69q-41 -45 -41 -79t5 -68.5t32 -266.5t59 -408q10 -63 41 -89q37 -30 104 -50.5t95 -48.5l-37 -270q-135 100 -371 100q-66 0 -106 -8q76 -27 127 -75t41 -97l-27 -125 q-29 -123 -242 -207q-156 -59 -288 -59z" />
<glyph unicode="&#xfedf;&#xfeec;&#xfef0;" horiz-adv-x="1730" d="M1444 172q24 0 43.5 26.5t23.5 63.5q-20 59 -68 107.5t-84 74t-44 31.5q54 -135 -8 -231q86 -47 137 -72zM1141 508q-73 0 -121 -80q10 -31 44 -55.5t114 -61.5q51 39 82 90q-8 49 -45 78t-74 29zM1208 1135q0 -10 23 -158t39 -285l119 -82q152 -106 192 -188 q27 -47 27 -110.5t-19.5 -141t-69 -126t-93.5 -48.5t-80.5 18.5t-112.5 67.5l-62 41q-27 -23 -87 -44.5t-109 -25.5q78 -27 128 -74t38 -111.5t-25 -111.5q-33 -125 -242 -207q-156 -59 -288 -59q-236 0 -342 123q-101 116 -101 296q0 83 31 176t86 161l33 -33 q-20 -23 -44 -81t-26 -124q0 -137 103.5 -211t261.5 -73q98 0 178 14q170 27 242 96q4 55 -79 76.5t-214 28.5l-23 43l53 172q190 8 271 65q-70 55 -70 138.5t56 169t153 118.5q-59 334 -115 514l-30 29q-9 43 12 120.5t90 90.5q37 -72 63.5 -107t75.5 -69q-43 -46 -43 -88z " />
<glyph unicode="&#xfee4;&#xfef0;" horiz-adv-x="1804" d="M1407 334q-94 0 -156 -70q115 -37 215 -98q-16 59 -16 164q-33 4 -43 4zM1534 547v-109q0 -127 47 -176q39 -45 139 -45h84v-217h-84q-113 0 -174 43v-147q-152 117 -356 172v63q-84 -68 -215 -78q78 -27 128 -74t38 -111.5t-25 -111.5q-33 -125 -242 -207 q-156 -59 -288 -59q-236 0 -342 123q-101 116 -101 296q0 83 31 176t86 161l33 -33q-20 -23 -44 -81t-26 -124q0 -137 103.5 -211t261.5 -73q98 0 178 14q170 27 242 96q4 55 -79 76.5t-214 28.5l-23 43l53 172q296 33 371 106q29 27 61.5 84.5t94.5 118.5q88 84 262 84z " />
<glyph unicode="&#xfeec;&#xfef0;" horiz-adv-x="1880" d="M225 61q0 -133 104.5 -204.5t242.5 -71.5q266 0 413 131q-2 18 -31.5 27.5t-115.5 22.5q-124 19 -123 134q0 37 12 68q39 102 141 182q59 45 149.5 74t156.5 29q188 0 188 -148q0 -29 -7 -84t-7 -123t8 -112.5t41 -85.5q0 131 78 215q98 102 282 102h123v-217h-141 q-166 0 -219 -35q-55 -31 -64 -115l66 -43v-215q-133 55 -212 171t-79 251q0 47 6 99l8 69q2 12 2 43q0 68 -80 68q-41 0 -104.5 -13.5t-103 -34t-73.5 -47t-40 -42.5q24 -28 88 -37l35 -8q74 -16 98 -45q27 -27 27 -59.5t-7 -57.5l-12 -58q-10 -55 -20 -87.5t-59.5 -77.5 t-121.5 -85q-157 -87 -285 -87q-237 0 -342 114q-104 114 -104 291q0 89 33 191t84 157l33 -33q-20 -23 -44 -84t-24 -129z" />
<glyph unicode="&#x76a;&#x627;" horiz-adv-x="1042" d="M541 217q148 0 198 10q-23 57 -45 107q-76 -80 -153 -117zM940 1214q-47 -44 -47 -74t2 -40h102l-73 -76h-25q4 -74 4 -106q0 -274 -121 -469q61 -135 52 -179l-66 -268q-10 0 -82 -2t-248 -4l-248 -4l56 225h45q102 16 200 73.5t152 137.5q-169 306 -430 533l-14 -56 l-168 176l57 209q191 -109 377.5 -337t257.5 -388q45 127 45 254t-10 205h-131l-15 14l74 62h57q-8 35 -16 61l-31 31q0 73 26 135t89 70q27 -66 54.5 -107t74.5 -76z" />
<glyph unicode="&#x66e;" horiz-adv-x="479" d="M356 303v-63q0 -154 -164 -218q-58 -22 -96 -22h-131q-45 0 -76.5 31.5t-31.5 77t31.5 77t76.5 31.5h115q141 0 196 51q-31 111 -153 172l59 217q174 -120 174 -354z" />
<glyph unicode="&#x66e;" horiz-adv-x="565" d="M565 217v-217h-96q-142 0 -188 113q-6 -31 -54 -72t-161 -41h-101q-45 0 -76.5 31.5t-31.5 77t31.5 77t76.5 31.5h139q84 0 121.5 34t48.5 62.5t17 63.5l31 -17q-12 -143 155 -143h88z" />
<glyph unicode="&#x66e;" horiz-adv-x="1828" d="M1628 303q0 -86 117 -86h84v-217h-82q-98 0 -150.5 45t-54.5 113q-112 -92 -311 -142q-275 -67 -518 -67q-332 0 -482 139q-108 97 -108 244q0 86 36 185t79 140l32 -30q-49 -92 -49 -174.5t40 -136.5q107 -144 542 -144q244 0 478 42t335 144l18 -14q-6 -25 -6 -41z" />
<glyph unicode="&#x66f;" horiz-adv-x="1255" d="M696 217h138q-33 123 -111 123q-51 0 -83 -48q-11 -16 -12 -25t12 -29.5t56 -20.5zM1255 0h-247q2 -18 2 -57q0 -104 -42 -188.5t-106 -137.5q-125 -106 -308 -106t-296 104q-115 109 -115 309q0 94 31 184.5t86 157.5l33 -33q-27 -31 -48.5 -86t-21.5 -111 q0 -138 103.5 -211t251 -73t228.5 53.5t109 124.5l-20 70h-135q-98 0 -142 37q-74 63 -63 151l18 181q6 53 52.5 102t128 49t142 -85t83.5 -218h276v-217z" />
<glyph unicode="&#x676;" horiz-adv-x="1064" d="M246 340q-45 0 -80 -48q-12 -16 -13 -25t12 -29.5t56 -20.5h137q-33 123 -112 123zM1065 0h-549q-12 -229 -164 -338q-97 -65 -200 -65v-117h-7q-45 111 -145 104v215q174 4 263 56.5t126 144.5h-104q-115 0 -168 61q-39 41 -39 107l20 201q6 55 52.5 103t126 48t143 -86 t86.5 -217h559v-217zM524 793q0 10 6 22q87 113 156 113q27 0 51.5 -24.5t24.5 -53.5l-47 -43q-20 39 -48 39t-50.5 -15.5t-24.5 -15.5q39 -63 110 -78q60 15 117 23l-31 -80q-184 -31 -315 -98l-14 10l57 86q16 8 35.5 13t32.5 11q-60 30 -60 91z" />
<glyph unicode="&#x677;" horiz-adv-x="813" d="M256 340q-45 0 -80 -48q-12 -16 -13 -25t12 -29.5t56 -20.5h138q-33 123 -113 123zM813 0h-287q-12 -229 -164 -338q-97 -65 -200 -65v-117h-6q-45 111 -146 104v215q174 4 263.5 56.5t125.5 144.5h-104q-115 0 -168 61q-39 41 -39 107l21 201q6 55 52 103t126 48 t143 -86t86 -217h297v-217zM227 799q0 43 -39 43q-13 0 -20 -11v-2q-2 -2 -2 -4q0 -12 16 -20l45 -25v19zM533.5 715q21.5 0 25.5 -10l-2 -46q-154 -25 -262 -81l-12 8l47 71q43 18 59 21q-49 24 -49 76q0 12 2 17t40 50t76 45t58.5 -20.5t20.5 -44.5l-41 -35 q-16 33 -37.5 33t-41.5 -11.5t-24 -13.5q29 -53 94 -67q25 8 46.5 8zM119 784.5q0 31.5 10 40.5l37 56q14 24 38.5 24t37.5 -6q37 -18 37 -60.5t-13 -72.5l29 -14l-19 -76l-45 20q-55 -90 -215 -118l-16 8l49 73q58 3 97.5 28.5t43.5 29.5l-30 16q-41 20 -41 51.5z" />
<glyph unicode="&#x678;" horiz-adv-x="733" d="M356 303v-63q0 -154 -164 -218q-58 -22 -96 -22h-131q-45 0 -76.5 31.5t-31.5 77t31.5 77t76.5 31.5h115q141 0 196 51q-31 111 -153 172l59 217q174 -120 174 -354zM315 956q0 10 7 23q87 113 145 113q37 0 61.5 -24.5t24.5 -53.5l-47 -43q-20 39 -48 39t-50.5 -15.5 t-24.5 -15.5q39 -63 111 -78q59 15 116 23l-30 -80q-184 -31 -316 -99l-14 11l57 86q16 8 35.5 13t32.5 11q-60 30 -60 90z" />
<glyph unicode="&#x678;" horiz-adv-x="991" d="M991 217v-217h-522q-142 0 -188 113q-6 -31 -54 -72t-161 -41h-101q-45 0 -76.5 31.5t-31.5 77t31.5 77t76.5 31.5h139q84 0 121.5 34t48.5 62.5t17 63.5l31 -17q-12 -143 155 -143h514zM420 647q0 10 6 23q86 112 156 112q48 0 68 -52q7 -18 7 -25l-47 -43 q-19 38 -47.5 38t-51 -15t-24.5 -15q39 -63 111 -78q60 14 117 22l-31 -79q-184 -31 -315 -99l-15 10l58 86q16 8 35.5 13.5t31.5 11.5q-59 30 -59 90z" />
<glyph unicode="&#x678;" horiz-adv-x="1652" d="M797 0h-70l-22 43l53 174h895v-217h-606q30 -30 30 -92t-55 -132.5t-191 -130t-257 -59.5q-225 0 -328 120t-103 302q0 232 117 375l33 -33q-68 -84 -68 -211.5t62 -199.5q92 -119 301 -119q261 0 373 110q-46 70 -164 70zM1139 508q0 10 6 22q87 113 145 113 q37 0 61.5 -24.5t24.5 -53.5l-47 -43q-20 39 -48 39t-50.5 -15.5t-24.5 -15.5q39 -63 111 -77q60 14 117 22l-31 -80q-184 -31 -316 -98l-14 10l57 86q16 8 36 13.5t32 11.5q-59 30 -59 90z" />
<glyph unicode="&#x67c;" horiz-adv-x="479" d="M100.5 0q-30.5 0 -50 -18.5t-19.5 -55.5q23 -35 69.5 -35t69.5 35q0 37 -19.5 55.5t-50 18.5zM356 240q0 -154 -172 -222q14 -20 15 -55v-65q0 -45 -31 -71t-68 -26t-67.5 26t-30.5 71v65q0 20 6 37h-43q-45 0 -76.5 31.5t-31.5 77t31.5 77t76.5 31.5h115q141 0 196 51 q-31 111 -153 172l59 217q174 -120 174 -354v-63zM-86 655q-84 84 -131 111q86 96 108 127q63 -33 113 -90q55 59 76 90q37 -18 75 -51t56 -62q-49 -68 -109 -125q-53 55 -104 95q-35 -46 -84 -95z" />
<glyph unicode="&#x67c;" horiz-adv-x="565" d="M78 0q-31 0 -50.5 -18.5t-19.5 -55.5q23 -35 69.5 -35t69.5 35q0 37 -19 55.5t-50 18.5zM565 217v-217h-96q-142 0 -188 113q-6 -31 -38 -59t-77 -42q10 -20 10 -49v-65q0 -45 -30.5 -71t-67.5 -26t-67.5 26t-30.5 71v65q0 20 6 37h-21q-45 0 -76.5 31.5t-31.5 77 t31.5 77t76.5 31.5h139q84 0 121.5 34t48.5 62.5t17 63.5l31 -17q-12 -143 155 -143h88zM-25 434q-84 84 -131 111q86 96 109 127q63 -33 113 -90q55 59 75 90q37 -18 75 -51t56 -62q-49 -68 -108 -125q-53 55 -105 94q-35 -45 -84 -94z" />
<glyph unicode="&#x67c;" horiz-adv-x="1828" d="M878.5 -45q-30.5 0 -50 -18.5t-19.5 -55.5q23 -35 69.5 -35t69.5 35q0 37 -19.5 55.5t-50 18.5zM1628 303q0 -86 117 -86h84v-217h-82q-98 0 -150.5 45t-54.5 113q-177 -145 -575 -191q10 -25 10 -49v-65q0 -45 -31 -71t-67.5 -26t-67.5 25.5t-31 71.5v65q0 12 4 33 q-25 -2 -71 -2q-332 0 -482 139q-108 97 -108 244q0 86 36 185t79 140l32 -30q-49 -92 -49 -174.5t40 -136.5q107 -144 542 -144q244 0 478 42t335 144l18 -14q-6 -25 -6 -41zM823 489q-84 84 -131 111q86 98 109 127q63 -33 112 -90q55 59 76 90q37 -18 75 -51t56 -62 q-49 -68 -108 -125q-53 55 -105 95q-35 -46 -84 -95z" />
<glyph unicode="&#x67d;" horiz-adv-x="1828" d="M1628 303q0 -86 117 -86h84v-217h-82q-98 0 -150.5 45t-54.5 113q-112 -92 -311 -142q-275 -67 -518 -67q-332 0 -482 139q-108 97 -108 244q0 86 36 185t79 140l32 -30q-49 -92 -49 -174.5t40 -136.5q107 -144 542 -144q244 0 478 42t335 144l18 -14q-6 -25 -6 -41z M909 729q37 -20 75 -53t56 -62q-43 -59 -108 -125q-76 80 -131 111q88 98 108 129zM801 946q63 -33 112 -90q55 59 76 90q37 -18 75 -51t56 -61q-49 -68 -108 -125q-53 55 -105 94q-35 -45 -84 -94q-84 84 -131 110q86 96 109 127z" />
<glyph unicode="&#x689;" horiz-adv-x="907" d="M329.5 -18q-30.5 0 -50 -18.5t-19.5 -55.5q23 -35 69.5 -35t69.5 35q0 37 -19.5 55.5t-50 18.5zM109 285q59 -86 207 -86q70 0 138 20t99 45q-33 70 -54 177.5t-22 174.5l72 109q41 -224 100 -342q84 -166 215 -166h43v-217h-53q-80 0 -154 49q-61 43 -98 109 q-18 -78 -86 -123q-43 -29 -98 -41q10 -20 10 -49v-66q0 -45 -30.5 -70.5t-67.5 -25.5t-68 25.5t-31 70.5v66q0 29 9 45q-138 31 -138 160q0 100 7 135z" />
<glyph unicode="&#x68a;" horiz-adv-x="907" d="M109 285q59 -86 207 -86q70 0 138 20t99 45q-33 70 -54 177.5t-22 174.5l72 109q41 -224 100 -342q84 -166 215 -166h43v-217h-53q-80 0 -154 49q-61 43 -98 109q-18 -78 -89 -126t-197 -48t-177 59q-37 39 -37 95q0 112 7 147zM413 -162q38 -33 56 -61 q-43 -64 -107 -125q-84 84 -131 110q86 98 109 127q35 -18 73 -51z" />
<glyph unicode="&#x68b;" horiz-adv-x="907" d="M109 285q59 -86 207 -86q70 0 138 20t99 45q-33 70 -54 177.5t-22 174.5l72 109q41 -224 100 -342q84 -166 215 -166h43v-217h-53q-80 0 -154 49q-61 43 -98 109q-18 -78 -89 -126t-197 -48t-177 59q-37 39 -37 95q0 112 7 147zM446 836q88 0 132 36q-4 4 -9.5 13.5 t-11.5 11.5q-16 16 -57 16t-79 -31t-46 -46h71zM338 1151q0 59 37 59q14 -35 43 -57q-14 -8 -14.5 -22.5t11 -63t11.5 -82t-10 -67.5q55 47 95 47t67 -27q14 -18 26 -47q-2 -3 -6 -19q-11 -43 -59 -73q-37 -27 -111 -27l-145 -2l-45 76l73 -4l45 2q20 31 31 41 q0 209 -49 258v8zM413 -162q38 -33 56 -61q-43 -64 -107 -125q-84 84 -131 110q86 98 109 127q35 -18 73 -51z" />
<glyph unicode="&#x68f;" horiz-adv-x="907" d="M109 285q59 -86 207 -86q70 0 138 20t99 45q-33 70 -54 177.5t-22 174.5l72 109q41 -224 100 -342q84 -166 215 -166h43v-217h-53q-80 0 -154 49q-61 43 -98 109q-18 -78 -89 -126t-197 -48t-177 59q-37 39 -37 95q0 112 7 147zM446 1006q37 -20 75 -53t57 -62 q-43 -59 -109 -125q-76 80 -131 111q88 98 108 129zM338 1223q63 -33 113 -90q55 59 75 90q37 -18 75 -51t56 -62q-49 -68 -108 -125q-53 55 -105 94q-35 -45 -84 -94q-84 84 -131 111q86 96 109 127z" />
<glyph unicode="&#x690;" horiz-adv-x="907" d="M109 285q59 -86 207 -86q70 0 138 20t99 45q-33 70 -54 177.5t-22 174.5l72 109q41 -224 100 -342q84 -166 215 -166h43v-217h-53q-80 0 -154 49q-61 43 -98 109q-18 -78 -89 -126t-197 -48t-177 59q-37 39 -37 95q0 112 7 147zM410 918l75 90q-53 49 -82 69 q-14 -18 -79 -88q47 -30 86 -71zM514 989q67 -39 102 -94q-49 -68 -108 -125q-61 66 -105 94q-27 -35 -86 -94q-76 80 -131 111q86 96 109 127q-66 61 -109 86q68 78 109 127q72 -40 115 -91l75 91q37 -18 75 -51t56 -62q-45 -63 -102 -119z" />
<glyph unicode="&#x693;" horiz-adv-x="706" d="M200.5 -399q-30.5 0 -50 -18.5t-19.5 -55.5q23 -35 69.5 -35t69.5 35q0 37 -19.5 55.5t-50 18.5zM707 217v-217h-111q-78 0 -113 14q8 -181 -106 -301q-43 -43 -105 -75q27 -27 27 -74v-66q0 -45 -30.5 -70.5t-67.5 -25.5t-68 25.5t-31 70.5v66q0 12 4 33q-12 -2 -36 -3 v-116h-7q-14 43 -48.5 75.5t-96.5 28.5v215q409 12 447 289q-33 31 -50.5 87t-15.5 88.5t6 70.5l35 33q35 -80 85 -114t126 -34h156z" />
<glyph unicode="&#x69a;" horiz-adv-x="1867" d="M831 365q49 -136 189 -136q114 0 174 56q29 31 40 65.5t17 89.5l31 -16q8 -193 162 -195q139 0 139 211l29 -16q4 -76 37 -129q49 -78 151 -78h68v-217h-60q-141 0 -202 137q-6 -53 -48 -89t-118 -36t-119 41t-53 103q-16 -70 -81.5 -108t-160.5 -38l4 -76 q-2 -199 -131 -313q-130 -108 -331.5 -108t-309.5 104q-115 107 -115 305q0 92 32 189.5t85 156.5l33 -32q-70 -93 -70 -218q0 -41 23.5 -95t87.5 -99q94 -70 254 -70q98 0 183 28t130 77t57 90l-108 133q-59 80 -59 190q0 33 8 60zM1308 739.5q38 -32.5 56 -61.5 q-43 -64 -107 -125q-84 84 -131 111q86 98 109 127q35 -19 73 -51.5zM1308 -164q38 -33 56 -61q-43 -64 -107 -125q-84 84 -131 110q86 96 109 127q35 -18 73 -51z" />
<glyph unicode="&#x69b;" horiz-adv-x="1867" d="M831 365q49 -136 189 -136q114 0 174 56q29 31 40 65.5t17 89.5l31 -16q8 -193 162 -195q139 0 139 211l29 -16q4 -76 37 -129q49 -78 151 -78h68v-217h-60q-141 0 -202 137q-6 -53 -48 -89t-118 -36t-119 41t-53 103q-16 -70 -81.5 -108t-160.5 -38l4 -76 q-2 -199 -131 -313q-130 -108 -331.5 -108t-309.5 104q-115 107 -115 305q0 92 32 189.5t85 156.5l33 -32q-70 -93 -70 -218q0 -41 23.5 -95t87.5 -99q94 -70 254 -70q98 0 183 28t130 77t57 90l-108 133q-59 80 -59 190q0 33 8 60zM1311 -299q37 -20 74.5 -53t56.5 -62 q-43 -59 -109 -125q-76 80 -131 111q89 98 109 129zM1202 -82q63 -33 113 -90q55 59 76 90q37 -18 74.5 -51t56.5 -62q-49 -68 -109 -124q-53 55 -104 94q-35 -45 -84 -94q-84 84 -131 110q85 98 108 127z" />
<glyph unicode="&#x69c;" horiz-adv-x="1867" d="M831 365q49 -136 189 -136q114 0 174 56q29 31 40 65.5t17 89.5l31 -16q8 -193 162 -195q139 0 139 211l29 -16q4 -76 37 -129q49 -78 151 -78h68v-217h-60q-141 0 -202 137q-6 -53 -48 -89t-118 -36t-119 41t-53 103q-16 -70 -81.5 -108t-160.5 -38l4 -76 q-2 -199 -131 -313q-130 -108 -331.5 -108t-309.5 104q-115 107 -115 305q0 92 32 189.5t85 156.5l33 -32q-70 -93 -70 -218q0 -41 23.5 -95t87.5 -99q94 -70 254 -70q98 0 183 28t130 77t57 90l-108 133q-59 80 -59 190q0 33 8 60zM1139 791q74 -41 114 -91l76 91 q37 -18 75 -51t56 -62q-49 -68 -108 -125q-61 66 -105 94q-27 -35 -86 -94q-76 80 -131 111q68 78 109 127zM1229 1012q35 -18 73.5 -51t57.5 -62q-49 -68 -109 -125q-70 72 -131 111q62 66 109 127zM1311 -299q37 -20 74.5 -53t56.5 -62q-43 -59 -109 -125q-76 80 -131 111 q89 98 109 129zM1202 -82q63 -33 113 -90q55 59 76 90q37 -18 74.5 -51t56.5 -62q-49 -68 -109 -124q-53 55 -104 94q-35 -45 -84 -94q-84 84 -131 110q85 98 108 127z" />
<glyph unicode="&#x69d;" horiz-adv-x="2027" d="M1321 209q123 0 219.5 25.5t116.5 66.5q-11 33 -58.5 70t-117.5 37q-165 0 -303 -156q-28 -32 -35 -43h178zM223 18q0 -41 23.5 -95t87.5 -99q94 -70 254 -70q98 0 183 28t130 77t57 90l-96 119q-72 92 -71 196q0 52 8 68l32 33q29 -84 79 -113t143 -35q53 86 157 191 q172 172 320 172q111 0 171 -51.5t107 -168.5q-23 -80 -47 -124q33 -18 97 -19h170v-217h-179q-88 0 -131 38t-55 73q-2 -2 -36 -34t-135 -64.5t-213.5 -32.5t-250.5 20q2 -23 2 -66q-2 -203 -131 -313q-130 -108 -331.5 -108t-309.5 104q-115 107 -115 305q0 92 31 187.5 t86 158.5l33 -32q-70 -93 -70 -218zM1241 -113q63 -33 113 -90q55 59 76 90q37 -18 74.5 -51t56.5 -61q-49 -68 -109 -125q-53 55 -104 94q-35 -45 -84 -94q-84 84 -131 110q85 96 108 127z" />
<glyph unicode="&#x69e;" horiz-adv-x="2027" d="M1321 209q123 0 219.5 25.5t116.5 66.5q-11 33 -58.5 70t-117.5 37q-165 0 -303 -156q-28 -32 -35 -43h178zM223 18q0 -41 23.5 -95t87.5 -99q94 -70 254 -70q98 0 183 28t130 77t57 90l-96 119q-72 92 -71 196q0 52 8 68l32 33q29 -84 79 -113t143 -35q53 86 157 191 q172 172 320 172q111 0 171 -51.5t107 -168.5q-23 -80 -47 -124q33 -18 97 -19h170v-217h-179q-88 0 -131 38t-55 73q-2 -2 -36 -34t-135 -64.5t-213.5 -32.5t-250.5 20q2 -23 2 -66q-2 -203 -131 -313q-130 -108 -331.5 -108t-309.5 104q-115 107 -115 305q0 92 31 187.5 t86 158.5l33 -32q-70 -93 -70 -218zM1323 913q73 -41 115 -90l75 90q37 -18 75 -51t57 -61q-49 -68 -109 -125q-61 66 -104 94q-27 -35 -86 -94q-76 80 -132 110q68 78 109 127zM1413 1135q35 -18 74 -51t57 -62q-49 -68 -108 -125q-70 72 -131 111q61 66 108 127z" />
<glyph unicode="&#x69f;" horiz-adv-x="1034" d="M330 217q172 0 243.5 32t92.5 60q-62 107 -186.5 107t-243.5 -109q-62 -58 -78 -90h172zM534 580q124 0 201 -78q39 -39 59.5 -85t20.5 -57q-23 -74 -45 -127q37 -16 94 -16h170v-217h-178q-88 0 -132 38t-54 71q0 -2 -28 -21.5t-77 -38.5q-123 -49 -291 -49h-309 q-45 0 -76.5 31.5t-31.5 77t31.5 77t76.5 31.5h103q31 53 92 125q0 532 -117 815l-31 29v39q0 29 8 61q25 98 101 109q48 -118 135 -178q-47 -43 -47 -93q0 -16 30.5 -177t30.5 -280.5t-18 -228.5q158 142 282 142zM406 1012q72 -40 114 -90l76 90q37 -18 75 -51t56 -62 q-49 -68 -109 -125q-61 66 -104 94q-27 -35 -86 -94q-76 80 -131 111q68 78 109 127zM496 1233q35 -18 73.5 -51t57.5 -62q-49 -68 -109 -125q-70 72 -131 111q62 66 109 127z" />
<glyph unicode="&#x69f;" horiz-adv-x="1472" d="M928 416q-117 0 -221 -82q-45 -35 -78 -74t-33 -43h172q123 0 196.5 19.5t97 36t44.5 36.5q-33 47 -69.5 77t-108.5 30zM987 580q192 0 268 -220q-23 -78 -47 -127q37 -16 97 -16h168v-217h-179q-86 0 -128 37t-58 72q0 -1 -26 -19q-123 -85 -369 -90l-242 -6l-43 -74 l-41 45l12 27l-118 -2l-138 233l215 -6h150q41 68 90 125q-7 534 -115 815l-32 29q0 4 -1.5 34t15.5 89q27 76 94 86q56 -122 135 -178q-45 -45 -45 -91q0 -8 4 -36l9 -48q75 -374 28 -604q154 142 297 142zM842 1012q72 -40 114 -90l76 90q37 -18 75 -51t56 -62 q-49 -68 -108 -125q-61 66 -105 94q-27 -35 -86 -94q-76 80 -131 111q68 78 109 127zM932 1233q35 -18 73.5 -51t57.5 -62q-49 -68 -109 -125q-70 72 -131 111q62 66 109 127z" />
<glyph unicode="&#x6a0;" horiz-adv-x="1144" d="M652.5 434q-60.5 0 -77.5 -2q72 -51 105 -113q70 43 115 84q-82 31 -142.5 31zM1145 217v-217h-252q-119 0 -176.5 30.5t-89.5 86.5l-56 -27q-25 -10 -99.5 -52t-119.5 -96q-84 -100 -84 -183q0 -153 162 -236q143 -74 389 -74h176l-180 -207h-98q-272 0 -410 113 q-164 132 -164 362q0 279 279 449q59 35 135 70q-87 120 -172 118q-25 0 -61 -10l26 145q119 94 283 95q90 0 170 -27t131 -68l-29 -178q-20 -16 -94 -84q22 -10 115 -10h219zM516 918q72 -40 115 -91l76 91q37 -18 74.5 -51t56.5 -62q-49 -68 -109 -125q-61 66 -104 94 q-27 -35 -86 -94q-76 80 -131 111q67 78 108 127zM606 1139q35 -18 74 -51t57 -62q-49 -68 -108 -125q-70 72 -131 111q61 66 108 127z" />
<glyph unicode="&#x6a1;" horiz-adv-x="559" d="M354 355q0 50 -32.5 89t-93 39t-111.5 -41q78 -12 138 -59t87 -102q12 24 12 74zM379 158q2 -16 2 -63t-12 -95q-6 61 -31 102q-45 -51 -119 -76.5t-137 -25.5h-117q-45 0 -76.5 31.5t-31.5 77t31.5 77t76.5 31.5h146q86 4 125 10q-55 71 -187 93q-45 8 -59 10v145 q0 90 54 140.5t153.5 50.5t169 -74t69.5 -204t-57 -230z" />
<glyph unicode="&#x6a1;" horiz-adv-x="770" d="M354 444q-96 0 -159 -90q31 -61 96 -86q127 50 180 138q-16 16 -51 27t-66 11zM518 342q0 -78 -41 -119q37 -6 113 -6h180v-217h-180q-163 0 -271 74q-27 -27 -98 -50.5t-147 -23.5h-109q-45 0 -76.5 31.5t-31.5 77t31.5 77t76.5 31.5h123q68 0 86 10q-18 47 -18 84v56 q0 78 15 128t71.5 106.5t140.5 56t109.5 -71t25.5 -172.5v-72z" />
<glyph unicode="&#x6a1;" horiz-adv-x="2013" d="M1572 444q-115 0 -175 -90q31 -61 96 -86q125 47 178 138q-38 38 -99 38zM1792 217h221v-217h-223q-165 0 -287 86q-274 -133 -692 -133q-333 0 -500.5 116.5t-167.5 323.5q0 96 35 194.5t80 143.5l33 -33q-49 -92 -49 -183q0 -169 139 -255t483 -86q248 0 436 39l74 18 q-16 49 -16 80l-2 56q-6 197 144 271q38 19 81 19q139 0 139 -231l-2 -84q0 -80 -39 -119q39 -6 113 -6z" />
<glyph unicode="&#x6a2;" horiz-adv-x="2013" d="M1570 -164q38 -33 56 -61q-44 -66 -106 -125q-84 84 -131 110q86 96 108 127q35 -18 73 -51zM1572 444q-115 0 -175 -90q31 -61 96 -86q125 47 178 138q-38 38 -99 38zM1792 217h221v-217h-223q-165 0 -287 86q-274 -133 -692 -133q-333 0 -500.5 116.5t-167.5 323.5 q0 96 35 194.5t80 143.5l33 -33q-49 -92 -49 -183q0 -169 139 -255t483 -86q248 0 436 39l74 18q-16 49 -16 80l-2 56q-6 197 144 271q38 19 81 19q139 0 139 -231l-2 -84q0 -80 -39 -119q39 -6 113 -6z" />
<glyph unicode="&#x6a3;" horiz-adv-x="2013" d="M1572 444q-115 0 -175 -90q31 -61 96 -86q125 47 178 138q-38 38 -99 38zM1792 217h221v-217h-223q-165 0 -287 86q-274 -133 -692 -133q-333 0 -500.5 116.5t-167.5 323.5q0 96 35 194.5t80 143.5l33 -33q-49 -92 -49 -183q0 -169 139 -255t483 -86q248 0 436 39l74 18 q-16 49 -16 80l-2 56q-6 197 144 271q38 19 81 19q139 0 139 -231l-2 -84q0 -80 -39 -119q39 -6 113 -6zM1580 915.5q38 -32.5 56 -61.5q-44 -66 -106 -125q-84 84 -131 111q86 98 108 127q35 -19 73 -51.5zM1570 -164q38 -33 56 -61q-44 -66 -106 -125q-84 84 -131 110 q86 96 108 127q35 -18 73 -51z" />
<glyph unicode="&#x6a5;" horiz-adv-x="2013" d="M1572 444q-115 0 -175 -90q31 -61 96 -86q125 47 178 138q-38 38 -99 38zM1792 217h221v-217h-223q-165 0 -287 86q-274 -133 -692 -133q-333 0 -500.5 116.5t-167.5 323.5q0 96 35 194.5t80 143.5l33 -33q-49 -92 -49 -183q0 -169 139 -255t483 -86q248 0 436 39l74 18 q-16 49 -16 80l-2 56q-6 197 144 271q38 19 81 19q139 0 139 -231l-2 -84q0 -80 -39 -119q39 -6 113 -6zM1511 -299q37 -20 75 -53t56 -62q-43 -59 -108 -125q-76 80 -131 111q88 98 108 129zM1403 -82q63 -33 113 -90q55 59 75 90q37 -18 75 -51t56 -62q-49 -68 -108 -124 q-53 55 -105 94q-35 -45 -84 -94q-84 84 -131 110q86 98 109 127z" />
<glyph unicode="&#x6a7;" horiz-adv-x="1255" d="M696 217h138q-33 123 -111 123q-51 0 -83 -48q-11 -16 -12 -25t12 -29.5t56 -20.5zM1255 0h-247q2 -18 2 -57q0 -104 -42 -188.5t-106 -137.5q-125 -106 -308 -106t-296 104q-115 109 -115 309q0 94 31 184.5t86 157.5l33 -33q-27 -31 -48.5 -86t-21.5 -111 q0 -138 103.5 -211t251 -73t228.5 53.5t109 124.5l-20 70h-135q-98 0 -142 37q-74 63 -63 151l18 181q6 53 52.5 102t128 49t142 -85t83.5 -218h276v-217zM773 813q38 -33 56 -61q-44 -66 -106 -125q-84 84 -131 110q86 98 108 127q35 -18 73 -51z" />
<glyph unicode="&#x6a8;" horiz-adv-x="1255" d="M696 217h138q-33 123 -111 123q-51 0 -83 -48q-11 -16 -12 -25t12 -29.5t56 -20.5zM1255 0h-247q2 -18 2 -57q0 -104 -42 -188.5t-106 -137.5q-125 -106 -308 -106t-296 104q-115 109 -115 309q0 94 31 184.5t86 157.5l33 -33q-27 -31 -48.5 -86t-21.5 -111 q0 -138 103.5 -211t251 -73t228.5 53.5t109 124.5l-20 70h-135q-98 0 -142 37q-74 63 -63 151l18 181q6 53 52.5 102t128 49t142 -85t83.5 -218h276v-217zM604 864q73 -41 115 -90l76 90q37 -18 74.5 -51t56.5 -61q-49 -68 -109 -125q-61 66 -104 94q-27 -35 -86 -94 q-76 80 -131 110q67 78 108 127zM694 1085q35 -18 74 -51t57 -61q-49 -68 -108 -125q-70 72 -131 110q61 66 108 127z" />
<glyph unicode="&#x6aa;" horiz-adv-x="1789" d="M-35 0q-45 0 -76.5 31.5t-31.5 77t31.5 77t76.5 31.5h314q70 0 133 2l366 2q454 1 616 -39q72 -18 130 -49q8 25 8 55q0 139 -202 192q-100 26 -333 26l-170 -3q-47 -2 -159.5 -2t-252 15.5t-227.5 52.5q-164 66 -163 229q0 134 81 238q59 80 165 128t245 48h371 l-62 -203q-106 0 -139 -116h-6v116h-215q-91 0 -153 -9q-145 -21 -193 -163q95 -95 343 -111q116 -8 427 -8t444 -20q182 -28 266 -139q68 -86 68 -207q0 -61 -18 -129l-64 -236q-94 57 -221 90t-338 33t-575 -8l-181 -2h-305z" />
<glyph unicode="&#x6aa;" horiz-adv-x="1908" d="M1681 354q0 -43 -12 -96q37 -41 127 -41h113v-217h-97q-86 0 -128 37t-58 72l-27 -109q-150 10 -432 10h-120q-180 0 -664 -8l-98 -2h-320q-45 0 -76.5 31.5t-31.5 77t31.5 76t76.5 30.5h328l508 -2q176 0 528 -8l197 -4q8 23 8 59.5t-27 69.5q-55 72 -204 71h-504 q-410 0 -572 58q-188 66 -188 237q0 132 82 238q61 82 164.5 130t244.5 48h371l-61 -203q-106 0 -140 -116h-6v116h-215q-91 0 -153 -9q-143 -21 -193 -163q66 -70 207 -94.5t367 -24.5l612 -10q180 0 271 -67.5t91 -186.5z" />
<glyph unicode="&#x6aa;" horiz-adv-x="2220" d="M1993 356q0 -37 -15 -98q37 -41 129 -41h113v-217h-96q-86 0 -128 37t-59 72l-26 -109q-150 10 -432 10h-121l-946 -14l-119 -2l-150 258q18 -2 141.5 -19.5t319.5 -17.5l506 -2q178 0 530 -8l197 -4q8 23 8 49q0 59 -43 96q-59 55 -190 55h-504q-429 0 -598 68 q-162 69 -162 214t82 251q61 82 165.5 130t246.5 48h368l-59 -203q-63 0 -96 -35.5t-43 -80.5h-6v116h-215q-92 0 -154 -9q-144 -21 -193 -163q63 -70 205 -94.5t367 -24.5l614 -10q225 0 314 -106q49 -57 49 -146z" />
<glyph unicode="&#x6ab;" horiz-adv-x="718" d="M407.5 877q46.5 0 67.5 34q0 35 -19.5 52.5t-48 17.5t-48 -17.5t-19.5 -52.5q21 -34 67.5 -34zM502 946v-63q0 -43 -30 -67.5t-64.5 -24.5t-64.5 24.5t-30 67.5v65q-164 -72 -207 -100q94 -72 171 -178q147 -203 147 -322q0 -150 -59 -235q-74 -113 -244 -113h-156 q-45 0 -76.5 31.5t-31.5 77t31.5 77t76.5 31.5h88q98 0 157.5 21.5t94.5 70.5q-35 80 -95 159t-122 124v-70q-68 51 -85 91t-17 138.5t6 144.5t46 82t118.5 80t222.5 114.5t195 98t124 75.5l-51 -232q-43 -29 -174 -92q29 -29 29 -76z" />
<glyph unicode="&#x6ab;" horiz-adv-x="913" d="M462.5 877q46.5 0 67.5 34q0 35 -19 52.5t-41 17.5t-28 -2l-24 -12q-23 -18 -23 -56q21 -34 67.5 -34zM913 217v-217h-147q-119 0 -189.5 51t-117.5 123q-39 -80 -111 -127t-162 -47h-221q-45 0 -76.5 31.5t-31.5 77t31.5 77t76.5 31.5h221q117 0 181 64 q-118 194 -224 278v-37q-90 70 -98 140q-4 36 -4 119t11 125t46 76t104 72t263.5 133.5t288.5 158.5l-52 -232q-14 -12 -174 -92q29 -29 29 -76v-63q0 -43 -29.5 -67.5t-64.5 -24.5t-64.5 24.5t-29.5 67.5v59q-129 -61 -209 -115q90 -70 161.5 -171t139 -207.5t107.5 -150.5 q74 -81 212 -81h133z" />
<glyph unicode="&#x6ab;" horiz-adv-x="1996" d="M1544.5 874q45.5 0 67.5 35q0 35 -19.5 52.5t-48 17.5t-48 -17.5t-19.5 -52.5q22 -35 67.5 -35zM291 627q-49 -83 -49 -169t40 -142q101 -143 523 -142q172 0 360.5 18.5t300.5 59.5q-92 141 -138 202.5t-101 104.5v-37q-68 51 -85.5 91t-17.5 138.5t6 144.5t48 82 q76 66 319.5 185t339.5 183l-51 -232q-57 -37 -178 -94q31 -27 30 -76v-63q0 -43 -29.5 -68t-64.5 -25t-64.5 25t-29.5 68v61q-147 -74 -207 -115q88 -72 154.5 -163t142.5 -209.5t114 -160.5q70 -77 210 -77h133v-217h-148q-184 0 -290 150q-70 -68 -157 -108t-237.5 -64.5 t-456.5 -24.5t-454 129q-111 96 -111 248q0 88 35 187t80 140z" />
<glyph unicode="&#x6b0;" horiz-adv-x="718" d="M407.5 879q46.5 0 67.5 34q0 35 -19.5 52.5t-41.5 17.5t-45 -10h-2q-27 -20 -27 -60q21 -34 67.5 -34zM502 948v-63q0 -43 -30 -67.5t-64.5 -24.5t-64.5 24.5t-30 67.5v63q-164 -72 -207 -100q94 -72 171 -178q147 -203 147 -322q0 -150 -59 -235q-74 -113 -244 -113 h-156q-45 0 -76.5 31.5t-31.5 77t31.5 77t76.5 31.5h88q98 0 157.5 21.5t94.5 70.5q-35 80 -95 159t-122 124v-70q-68 51 -85 91t-17 138.5t6 144.5t46 82t118.5 80t222.5 114.5t195 98t124 75.5l-51 -232q-43 -29 -174 -92q29 -25 29 -74zM567 1368q-28 -20 -242 -131 t-247 -131l-15 10l70 109l453 229z" />
<glyph unicode="&#x6b0;" horiz-adv-x="913" d="M491.5 989q-18.5 0 -34.5 -4l-19 -8q-25 -18 -24 -57q22 -35 68 -35t67 35q0 35 -19.5 52t-38 17zM913 217v-217h-147q-119 0 -189.5 51t-117.5 123q-39 -80 -111 -127t-162 -47h-221q-45 0 -76.5 31.5t-31.5 77t31.5 77t76.5 31.5h221q117 0 181 64q-118 194 -224 278 v-37q-90 70 -98 140q-4 36 -4 119t11 125t46 76t104 72t263.5 133.5t288.5 158.5l-52 -232q-23 -14 -157 -84q31 -27 30 -76v-63q0 -43 -29.5 -67.5t-64.5 -24.5t-64.5 24.5t-29.5 67.5v61q-147 -74 -227 -125q90 -70 161.5 -171t139 -207.5t107.5 -150.5q74 -81 212 -81 h133zM629 1382q-29 -20 -243 -131t-247 -131l-14 10l70 109l452 229z" />
<glyph unicode="&#x6b0;" horiz-adv-x="1996" d="M1541.5 872q44.5 0 68.5 35q0 35 -19.5 52.5t-48.5 17.5t-48 -17.5t-19 -52.5q22 -35 66.5 -35zM291 627q-49 -83 -49 -169t40 -142q101 -143 523 -142q172 0 360.5 18.5t300.5 59.5q-92 141 -138 202.5t-101 104.5v-37q-68 51 -85.5 91t-17.5 138.5t6 144.5t48 82 q76 66 319.5 185t339.5 183l-51 -232q-41 -27 -180 -96q31 -25 30 -76v-63q0 -43 -29.5 -68t-64.5 -25t-64.5 25t-29.5 68v63q-141 -70 -205 -115q88 -72 154.5 -163t142.5 -209.5t114 -160.5q70 -77 210 -77h133v-217h-148q-184 0 -290 150q-70 -68 -157 -108t-237.5 -64.5 t-456.5 -24.5t-454 129q-111 96 -111 248q0 88 35 187t80 140zM1690 1360q-29 -20 -243 -131t-247 -131l-14 10l69 109l453 229z" />
<glyph unicode="&#x6bc;" horiz-adv-x="479" d="M88 0q-31 0 -50.5 -18.5t-19.5 -55.5q23 -35 70 -35t70 35q0 37 -19.5 55.5t-50.5 18.5zM356 303v-63q0 -96 -69 -160q-43 -43 -113 -64q12 -23 12 -53v-65q0 -45 -30.5 -71t-67.5 -26t-67.5 26t-30.5 71v65q0 20 6 37h-31q-45 0 -76.5 31.5t-31.5 77t31.5 77t76.5 31.5 h115q141 0 196 51q-31 111 -153 172l59 217q174 -120 174 -354zM115 780q-56 -77 -107 -125q-84 84 -131 111q86 98 109 127q35 -18 72.5 -51t56.5 -62z" />
<glyph unicode="&#x6bc;" horiz-adv-x="565" d="M96.5 0q-30.5 0 -50 -18.5t-19.5 -55.5q23 -35 69.5 -35t69.5 35q0 37 -19.5 55.5t-50 18.5zM565 217v-217h-96q-142 0 -188 113q-6 -31 -37 -57.5t-62 -37.5q12 -23 13 -55v-65q0 -45 -31 -71t-68 -26t-67.5 26t-30.5 71v65q0 20 6 37h-39q-45 0 -76.5 31.5t-31.5 77 t31.5 77t76.5 31.5h139q84 0 121.5 34t48.5 62.5t17 63.5l31 -17q-12 -143 155 -143h88zM176 559q-44 -66 -106 -125q-84 84 -131 111q86 98 108 127q35 -18 73 -51t56 -62z" />
<glyph unicode="&#x6bc;" horiz-adv-x="1259" d="M567.5 -594q46.5 0 69.5 35q0 62 -51 72h-37q-51 -10 -51 -72q23 -35 69.5 -35zM653 123q-44 -66 -106 -125q-84 84 -131 111q86 98 108 127q35 -18 73 -51t56 -62zM293 236q-68 -94 -68 -213t101.5 -194t261.5 -75q220 0 312 103q44 49 61 92l-99 119q-72 92 -71 196 q0 52 8 68l32 30q35 -86 84 -112q49 -31 123 -33h222v-217h-232q2 -23 2 -68q-2 -201 -131 -311q-96 -82 -240 -102q6 -18 7 -41v-66q0 -45 -31 -70.5t-68 -25.5t-67.5 25.5t-30.5 70.5v66q0 23 6 41q-135 20 -206.5 87.5t-98.5 145.5t-27 170.5t31 185.5t86 160z" />
<glyph unicode="&#x6c2;" horiz-adv-x="921" d="M336 0q-57 0 -117 -16q72 -113 172 -158q66 -29 110 -29t64.5 11.5t31.5 23.5t13 14q-29 46 -45 62q-92 92 -229 92zM338 354q-76 -90 -135 -137q221 51 295 125l-52 160q-32 -58 -108 -148zM922 0h-328q111 -90 111 -147.5t-31 -117.5q-74 -145 -157.5 -145t-171 60.5 t-136.5 132.5t-49 178l-76 -31v70h-117q-45 0 -76.5 31.5t-31.5 75.5t31.5 77t76.5 33h107q71 46 153 139q172 195 172 279q0 10 -4 22l-14 41l123 80l110 -385q4 -16 4 -26q0 -47 -47 -103q-31 -35 -59.5 -56.5t-32.5 -23.5q72 33 133 33h310v-217zM307 1053q0 10 6 22 q87 113 156 113q47 0 69 -54q8 -18 7 -24l-47 -43q-20 39 -48 39t-50.5 -15.5t-24.5 -15.5q39 -63 110 -78q60 15 117 23l-31 -80q-184 -31 -315 -98l-14 10l57 86q16 8 35.5 13t32.5 12q-60 30 -60 90z" />
<glyph unicode="&#x6c2;" horiz-adv-x="827" d="M252 399h96q47 0 65.5 5.5t37.5 25.5l-33 164l-47 -64q-123 -18 -172 -102q16 -29 53 -29zM827 217v-217h-106q-109 0 -154 48t-63 128l-31 148l-65 -117l-146 -2q-39 0 -79 38t-40 64v158q0 80 62 127q33 27 98.5 50.5t95.5 45.5q-4 51 17.5 84t68.5 70l107 -471 q32 -126 88 -146q22 -8 51 -8h96zM207 1065q0 10 6 22q87 113 156 113q48 0 68 -54q7 -18 7 -24l-47 -43q-20 39 -48 39t-50.5 -15.5t-24.5 -15.5q39 -63 111 -77q60 14 117 22l-31 -80q-184 -31 -315 -98l-15 10l58 86q16 8 35.5 13.5t31.5 11.5q-59 30 -59 90z" />
<glyph unicode="&#x6c3;" horiz-adv-x="841" d="M842 217v-217h-78q-129 0 -195 74q-29 35 -47 93t-20 64q-41 92 -123 88q-99 0 -168 -118q23 -33 50.5 -62t105.5 -82l49 -34q119 -90 119 -193v-164h-11q-26 64 -116 128q-34 24 -41.5 30t-53 38t-87.5 68q-71 61 -83 172v154q0 106 74 195.5t162 89.5q61 0 102 -58 q21 -27 38 -90t36 -88q61 -88 209 -88h78zM213 881q63 -33 113 -90q55 59 75 90q37 -18 75 -51t56 -62q-49 -68 -108 -125q-53 55 -105 94q-35 -45 -83 -94q-84 84 -132 111q86 96 109 127z" />
<glyph unicode="&#x6c4;" horiz-adv-x="720" d="M198 -92q-56 0 -55 -60q12 -20 37 -26q49 16 74 28q0 29 -16 43.5t-40 14.5zM246 340q-45 0 -80 -48q-12 -16 -13 -25t12 -29.5t56 -20.5h137q-33 123 -112 123zM721 217v-217h-205q-12 -229 -164 -338q-97 -65 -200 -65v-117h-7q-45 111 -145 104v215q63 0 123 11 q-2 4 -2 16v51q0 41 23.5 61.5t55.5 20.5t54 -20.5t22 -61.5v-14q80 51 113 137h-104q-115 0 -168 61q-39 41 -39 107l20 201q6 55 52.5 103t126 48t143 -86t86.5 -217h215z" />
<glyph unicode="&#x6ca;" horiz-adv-x="720" d="M246 340q-45 0 -80 -48q-12 -16 -13 -25t12 -29.5t56 -20.5h137q-33 123 -112 123zM721 0h-205q-12 -229 -164 -338q-97 -65 -200 -65v-117h-7q-45 111 -145 104v215q174 4 263 56.5t126 144.5h-104q-115 0 -168 61q-39 41 -39 107l20 201q6 55 52.5 103t126 48t143 -86 t86.5 -217h215v-217zM117 860q63 -33 112 -90q55 59 76 90q37 -18 75 -51t56 -61q-49 -68 -108 -125q-53 55 -105 94q-35 -45 -84 -94q-84 84 -131 110q86 96 109 127z" />
<glyph unicode="&#x6cd;" horiz-adv-x="1363" d="M1364 217v-217h-242q31 -31 31 -92.5t-55.5 -132t-191.5 -130t-257 -59.5q-223 0 -326.5 119.5t-103.5 282.5t45 270q-63 -37 -121 -102v106l193 121l33 -33q-68 -84 -68 -211t61 -200q92 -119 302 -119q262 0 372 110q-46 70 -164 70h-69l-23 43l54 174h530z" />
<glyph unicode="&#x6cf;" horiz-adv-x="720" d="M246 340q-45 0 -80 -48q-12 -16 -13 -25t12 -29.5t56 -20.5h137q-33 123 -112 123zM721 0h-205q-12 -229 -164 -338q-97 -65 -200 -65v-117h-7q-45 111 -145 104v215q174 4 263 56.5t126 144.5h-104q-115 0 -168 61q-39 41 -39 107l20 201q6 55 52.5 103t126 48t143 -86 t86.5 -217h215v-217zM290 809q38 -33 56 -61q-47 -71 -106 -125q-84 84 -131 110q86 98 108 127q35 -18 73 -51z" />
<glyph unicode="&#x6ee;" horiz-adv-x="907" d="M109 285q59 -86 207 -86q70 0 138 20t99 45q-33 70 -54 177.5t-22 174.5l72 109q41 -224 100 -342q84 -166 215 -166h43v-217h-53q-80 0 -154 49q-61 43 -98 109q-18 -78 -89 -126t-197 -48t-177 59q-37 39 -37 95q0 112 7 147zM535 811q-31 25 -73 97.5t-42 125.5 q-12 -70 -45 -132.5t-70 -90.5l-31 74q43 37 81 119t46 137h37q14 -72 52 -149t75 -107z" />
<glyph unicode="&#x6fa;" horiz-adv-x="1867" d="M831 365q49 -136 189 -136q114 0 174 56q29 31 40 65.5t17 89.5l31 -16q8 -193 162 -195q139 0 139 211l29 -16q4 -76 37 -129q49 -78 151 -78h68v-217h-60q-141 0 -202 137q-6 -53 -48 -89t-118 -36t-119 41t-53 103q-16 -70 -81.5 -108t-160.5 -38l4 -76 q-2 -199 -131 -313q-130 -108 -331.5 -108t-309.5 104q-115 107 -115 305q0 92 32 189.5t85 156.5l33 -32q-70 -93 -70 -218q0 -41 23.5 -95t87.5 -99q94 -70 254 -70q98 0 183 28t130 77t57 90l-108 133q-59 80 -59 190q0 33 8 60zM1139 791q74 -41 114 -91l76 91 q37 -18 75 -51t56 -62q-49 -68 -108 -125q-61 66 -105 94q-27 -35 -86 -94q-76 80 -131 111q68 78 109 127zM1229 1012q35 -18 73.5 -51t57.5 -62q-49 -68 -109 -125q-70 72 -131 111q62 66 109 127zM1348.5 -164q37.5 -33 56.5 -61q-43 -64 -107 -125q-84 84 -131 110 q86 96 109 127q35 -18 72.5 -51z" />
<glyph unicode="&#x6fb;" horiz-adv-x="2027" d="M1321 209q123 0 219.5 25.5t116.5 66.5q-11 33 -58.5 70t-117.5 37q-165 0 -303 -156q-28 -32 -35 -43h178zM223 18q0 -41 23.5 -95t87.5 -99q94 -70 254 -70q98 0 183 28t130 77t57 90l-96 119q-72 92 -71 196q0 52 8 68l32 33q29 -84 79 -113t143 -35q53 86 157 191 q172 172 320 172q111 0 171 -51.5t107 -168.5q-23 -80 -47 -124q33 -18 97 -19h170v-217h-179q-88 0 -131 38t-55 73q-2 -2 -36 -34t-135 -64.5t-213.5 -32.5t-250.5 20q2 -23 2 -66q-2 -203 -131 -313q-130 -108 -331.5 -108t-309.5 104q-115 107 -115 305q0 92 31 187.5 t86 158.5l33 -32q-70 -93 -70 -218zM1553.5 862q37.5 -33 56.5 -61q-43 -64 -107 -125q-84 84 -131 110q86 98 109 127q35 -18 72.5 -51zM1410 -162q38 -33 56 -61q-44 -66 -106 -125q-84 84 -131 110q86 98 108 127q35 -18 73 -51z" />
<glyph unicode="&#x6fc;" horiz-adv-x="1144" d="M652.5 434q-60.5 0 -77.5 -2q72 -51 105 -113q70 43 115 84q-82 31 -142.5 31zM1145 217v-217h-252q-119 0 -176.5 30.5t-89.5 86.5l-56 -27q-25 -10 -99.5 -52t-119.5 -96q-84 -100 -84 -183q0 -153 162 -236q143 -74 389 -74h176l-180 -207h-98q-272 0 -410 113 q-164 132 -164 362q0 279 279 449q59 35 135 70q-87 120 -172 118q-25 0 -61 -10l26 145q119 94 283 95q90 0 170 -27t131 -68l-29 -178q-20 -16 -94 -84q22 -10 115 -10h219zM685 866.5q38 -32.5 56 -61.5q-44 -66 -106 -125q-84 84 -131 111q86 98 108 127 q35 -19 73 -51.5zM683 -164q38 -33 56 -61q-44 -66 -106 -125q-84 84 -131 110q86 96 108 127q35 -18 73 -51z" />
<glyph unicode="&#x6ff;" horiz-adv-x="1021" d="M514 352q0 -55 -35 -108q86 -47 137 -72q24 0 44 26.5t24 63.5q-36 106 -197 213q27 -68 27 -123zM313 508q-72 0 -120 -80q10 -31 43.5 -55.5t113.5 -61.5q51 39 82 90q-8 49 -45 78t-74 29zM274 684v121q17 -39 185 -131q66 -35 79 -45t56 -40q168 -117 172 -313 q4 -33 27.5 -46t76.5 -13h152v-217h-96q-84 0 -138 43q-29 27 -51 63q-23 -49 -45 -73q-43 -53 -96 -53q-156 96 -215 114q-61 -53 -140.5 -73.5t-224.5 -20.5h-51q-45 0 -76.5 31.5t-31.5 76t31.5 77t76.5 32.5h103q59 0 102 12q-51 57 -51 133.5t46 151t128 107.5 q-19 25 -19 63zM451 907q-31 25 -73 97.5t-42 125.5q-12 -70 -45 -132.5t-70 -90.5l-31 74q43 37 81 119t46 137h37q14 -72 52 -143q39 -82 75 -113z" />
<glyph unicode="&#x6ff;" horiz-adv-x="1255" d="M748 352q0 -55 -35 -108q86 -47 137 -72q24 0 43.5 26.5t24.5 63.5q-20 59 -68.5 107.5t-84.5 74t-44 31.5q27 -68 27 -123zM547 508q-71 0 -121 -80q10 -31 44 -55.5t114 -61.5q51 39 82 90q-8 49 -45 78t-74 29zM1159 0q-139 0 -186 109q-16 -39 -53 -84t-91 -45 q-96 70 -204 131q-51 -57 -131 -96.5t-146 -39.5l-217 -2l-29 60q240 72 367 160q-70 35 -93.5 67.5t-23.5 105.5t46 147.5t128 107.5q-18 24 -18 63v121q17 -39 184 -131q66 -35 79 -45t56 -40q158 -111 170 -282q0 -51 21.5 -70.5t85.5 -19.5h151v-217h-96zM684 907 q-31 25 -73 97.5t-42 125.5q-12 -70 -45 -132.5t-69 -90.5l-31 74q43 37 81 119t46 137h37q14 -72 52 -148.5t75 -107.5z" />
<glyph unicode="&#x671;" horiz-adv-x="468" arabic-form="final" d="M469 217v-217h-109q-119 0 -189.5 70t-70.5 213q-4 563 -40 713q-16 70 -19 87q88 93 131 168h27l12 -319l8 -273l2 -59q6 -150 8 -186q0 -195 117 -197h123zM152 1403q87 0 120 33q0 12 -20 24q-14 14 -50 14.5t-70.5 -25.5t-43.5 -44l6 -2h58zM-29 1403q0 29 19 29 l51 -19q12 -4 20 -4q23 39 64 80q104 83 170 27q16 -14 24.5 -33t8.5 -25q-19 -62 -63 -99.5t-109.5 -37.5t-88 3t-30.5 5t-18.5 2t-13.5 -5t-6 -16.5t-5 -17.5l-23 15v96z" />
<glyph unicode="&#x67b;" horiz-adv-x="1828" arabic-form="final" d="M1628 303q0 -86 117 -86h84v-217h-82q-98 0 -150.5 45t-54.5 113q-112 -92 -311 -142q-275 -67 -518 -67q-332 0 -482 139q-108 97 -108 244q0 86 36 185t79 140l32 -30q-49 -92 -49 -174.5t40 -136.5q107 -144 542 -144q244 0 478 42t335 144l18 -14q-6 -25 -6 -41z M997 -500q-49 -68 -108 -125q-76 80 -131 111q70 76 108 125q-55 55 -108 88q63 63 108 127q37 -20 75 -53t56 -60q-37 -55 -100 -119q69 -47 100 -94z" />
<glyph unicode="&#x67b;" horiz-adv-x="479" arabic-form="initial" d="M356 303v-63q0 -154 -164 -218q-58 -22 -96 -22h-131q-45 0 -76.5 31.5t-31.5 77t31.5 77t76.5 31.5h115q141 0 196 51q-31 111 -153 172l59 217q174 -120 174 -354zM186 -438q-49 -68 -108 -125q-76 80 -131 110q70 76 108 125q-55 55 -108 88q63 63 108 127 q37 -20 75 -53t56 -59q-37 -55 -100 -119q69 -47 100 -94z" />
<glyph unicode="&#x67b;" horiz-adv-x="565" arabic-form="medial" d="M565 217v-217h-96q-142 0 -188 113q-6 -31 -54 -72t-161 -41h-101q-45 0 -76.5 31.5t-31.5 77t31.5 77t76.5 31.5h139q84 0 121.5 34t48.5 62.5t17 63.5l31 -17q-12 -143 155 -143h88zM152 -436q-49 -68 -109 -125q-76 80 -131 110q70 76 108 125q-55 55 -108 88 q63 63 108 127q37 -20 75 -53t57 -59q-37 -55 -101 -119q70 -47 101 -94z" />
<glyph unicode="&#x67e;" horiz-adv-x="1828" arabic-form="final" d="M1628 303q0 -86 117 -86h84v-217h-82q-98 0 -150.5 45t-54.5 113q-112 -92 -311 -142q-275 -67 -518 -67q-332 0 -482 139q-108 97 -108 244q0 86 36 185t79 140l32 -30q-49 -92 -49 -174.5t40 -136.5q107 -144 542 -144q244 0 478 42t335 144l18 -14q-6 -25 -6 -41z M883 -391q37 -20 74.5 -53t56.5 -62q-43 -59 -109 -125q-76 80 -131 111q89 98 109 129zM774 -174q63 -33 113 -90q55 59 76 90q37 -18 74.5 -51t56.5 -62q-49 -68 -109 -125q-53 55 -104 95q-35 -45 -84 -95q-84 84 -131 111q85 96 108 127z" />
<glyph unicode="&#x67e;" horiz-adv-x="479" arabic-form="initial" d="M356 303v-63q0 -154 -164 -218q-58 -22 -96 -22h-131q-45 0 -76.5 31.5t-31.5 77t31.5 77t76.5 31.5h115q141 0 196 51q-31 111 -153 172l59 217q174 -120 174 -354zM72 -330q37 -20 74.5 -53t56.5 -61q-43 -59 -109 -125q-76 80 -131 110q89 98 109 129zM-37 -113 q63 -33 113 -90q55 59 76 90q37 -18 74.5 -51t56.5 -61q-49 -68 -109 -125q-53 55 -104 94q-35 -45 -84 -94q-84 84 -131 110q85 96 108 127z" />
<glyph unicode="&#x67e;" horiz-adv-x="565" arabic-form="medial" d="M565 217v-217h-96q-142 0 -188 113q-6 -31 -54 -72t-161 -41h-101q-45 0 -76.5 31.5t-31.5 77t31.5 77t76.5 31.5h139q84 0 121.5 34t48.5 62.5t17 63.5l31 -17q-12 -143 155 -143h88zM37 -328q37 -20 75 -53t56 -61q-43 -59 -109 -125q-76 80 -131 110q89 98 109 129z M-72 -111q63 -33 113 -90q55 59 76 90q37 -18 74.5 -51t56.5 -61q-49 -68 -109 -125q-53 55 -104 94q-35 -45 -84 -94q-84 84 -131 110q85 96 108 127z" />
<glyph unicode="&#x680;" horiz-adv-x="1828" arabic-form="final" d="M1628 303q0 -86 117 -86h84v-217h-82q-98 0 -150.5 45t-54.5 113q-112 -92 -311 -142q-275 -67 -518 -67q-332 0 -482 139q-108 97 -108 244q0 86 36 185t79 140l32 -30q-49 -92 -49 -174.5t40 -136.5q107 -144 542 -144q244 0 478 42t335 144l18 -14q-6 -25 -6 -41z M887 -477l76 90q-61 57 -82 70q-18 -25 -80 -86q49 -31 86 -74zM772 -174q70 -39 115 -90l76 90q37 -18 74.5 -51t56.5 -62q-41 -57 -103 -116q72 -47 103 -97q-49 -68 -109 -125q-61 66 -104 95q-27 -35 -86 -95q-76 80 -131 111q67 78 108 127q-57 57 -108 86 q68 78 108 127z" />
<glyph unicode="&#x680;" horiz-adv-x="479" arabic-form="initial" d="M356 303v-63q0 -154 -164 -218q-58 -22 -96 -22h-131q-45 0 -76.5 31.5t-31.5 77t31.5 77t76.5 31.5h115q141 0 196 51q-31 111 -153 172l59 217q174 -120 174 -354zM76 -416l76 90q-61 57 -82 70q-18 -25 -80 -86q49 -31 86 -74zM-39 -113q73 -41 115 -90l76 90 q37 -18 74.5 -51t56.5 -61q-41 -57 -103 -117q72 -47 103 -96q-49 -68 -109 -125q-61 66 -104 94q-27 -35 -86 -94q-76 80 -131 110q67 78 108 127q-57 57 -108 86q68 78 108 127z" />
<glyph unicode="&#x680;" horiz-adv-x="565" arabic-form="medial" d="M565 217v-217h-96q-142 0 -188 113q-6 -31 -54 -72t-161 -41h-101q-45 0 -76.5 31.5t-31.5 77t31.5 77t76.5 31.5h139q84 0 121.5 34t48.5 62.5t17 63.5l31 -17q-12 -143 155 -143h88zM41 -414l76 90q-61 57 -82 70q-18 -25 -80 -86q49 -31 86 -74zM-74 -111 q73 -41 115 -90l76 90q37 -18 74.5 -51t56.5 -61q-41 -57 -103 -117q72 -47 103 -96q-49 -68 -109 -125q-61 66 -104 94q-27 -35 -86 -94q-76 80 -131 110q67 78 108 127q-57 57 -108 86q68 78 108 127z" />
<glyph unicode="&#x67a;" horiz-adv-x="1828" arabic-form="final" d="M1628 303q0 -86 117 -86h84v-217h-82q-98 0 -150.5 45t-54.5 113q-112 -92 -311 -142q-275 -67 -518 -67q-332 0 -482 139q-108 97 -108 244q0 86 36 185t79 140l32 -30q-49 -92 -49 -174.5t40 -136.5q107 -144 542 -144q244 0 478 42t335 144l18 -14q-6 -25 -6 -41z M1026 614q-49 -68 -108 -125q-76 80 -132 111q70 76 109 125q-55 55 -109 88q63 63 109 127q37 -20 75 -53t56 -60q-37 -55 -100 -118q69 -48 100 -95z" />
<glyph unicode="&#x67a;" horiz-adv-x="479" arabic-form="initial" d="M356 303v-63q0 -154 -164 -218q-58 -22 -96 -22h-131q-45 0 -76.5 31.5t-31.5 77t31.5 77t76.5 31.5h115q141 0 196 51q-31 111 -153 172l59 217q174 -120 174 -354zM117 780q-49 -68 -109 -125q-76 80 -131 111q70 76 109 125q-55 55 -109 88q63 63 109 127 q37 -20 74.5 -53t56.5 -60q-37 -55 -101 -119q70 -47 101 -94z" />
<glyph unicode="&#x67a;" horiz-adv-x="565" arabic-form="medial" d="M565 217v-217h-96q-142 0 -188 113q-6 -31 -54 -72t-161 -41h-101q-45 0 -76.5 31.5t-31.5 77t31.5 77t76.5 31.5h139q84 0 121.5 34t48.5 62.5t17 63.5l31 -17q-12 -143 155 -143h88zM178 559q-49 -68 -108 -125q-76 80 -131 111q70 76 108 125q-55 55 -108 88 q63 63 108 127q37 -20 75 -53t56 -60q-37 -55 -100 -119q69 -47 100 -94z" />
<glyph unicode="&#x67f;" horiz-adv-x="1828" arabic-form="final" d="M1628 303q0 -86 117 -86h84v-217h-82q-98 0 -150.5 45t-54.5 113q-112 -92 -311 -142q-275 -67 -518 -67q-332 0 -482 139q-108 97 -108 244q0 86 36 185t79 140l32 -30q-49 -92 -49 -174.5t40 -136.5q107 -144 542 -144q244 0 478 42t335 144l18 -14q-6 -25 -6 -41z M913 637l76 90q-53 49 -82 70q-14 -18 -80 -88q47 -31 86 -72zM1018 709q66 -38 102 -95q-49 -68 -108 -125q-61 66 -105 95q-27 -35 -86 -95q-76 80 -131 111q86 96 109 127q-66 61 -109 86q68 78 109 127q72 -40 114 -90l76 90q37 -18 75 -51t56 -62q-45 -63 -102 -118z " />
<glyph unicode="&#x67f;" horiz-adv-x="479" arabic-form="initial" d="M356 303v-63q0 -154 -164 -218q-58 -22 -96 -22h-131q-45 0 -76.5 31.5t-31.5 77t31.5 77t76.5 31.5h115q141 0 196 51q-31 111 -153 172l59 217q174 -120 174 -354zM4 803l76 90q-53 49 -82 70q-14 -18 -80 -89q47 -30 86 -71zM109 874q67 -39 102 -94 q-49 -68 -109 -125q-61 66 -104 95q-27 -35 -86 -95q-76 80 -131 111q85 96 108 127q-66 61 -108 86q68 78 108 127q74 -41 115 -90l76 90q37 -18 75 -51t56 -62q-45 -63 -102 -119z" />
<glyph unicode="&#x67f;" horiz-adv-x="565" arabic-form="medial" d="M565 217v-217h-96q-142 0 -188 113q-6 -31 -54 -72t-161 -41h-101q-45 0 -76.5 31.5t-31.5 77t31.5 77t76.5 31.5h139q84 0 121.5 34t48.5 62.5t17 63.5l31 -17q-12 -143 155 -143h88zM66 582l75 90q-53 49 -82 69q-14 -18 -79 -88q47 -30 86 -71zM170 653 q67 -39 102 -94q-49 -68 -108 -125q-61 66 -105 94q-27 -35 -86 -94q-76 80 -131 111q86 96 109 127q-66 61 -109 86q68 78 109 127q70 -39 115 -90l75 90q37 -18 75 -51t56 -62q-45 -63 -102 -119z" />
<glyph unicode="&#x679;" horiz-adv-x="1828" arabic-form="final" d="M1628 303q0 -86 117 -86h84v-217h-82q-98 0 -150.5 45t-54.5 113q-112 -92 -311 -142q-275 -67 -518 -67q-332 0 -482 139q-108 97 -108 244q0 86 36 185t79 140l32 -30q-49 -92 -49 -174.5t40 -136.5q107 -144 542 -144q244 0 477.5 42t335.5 144l18 -14q-6 -25 -6 -41z M932 555q88 0 131 37q-4 4 -9 13t-12 11q-16 16 -57 16.5t-79.5 -31t-45.5 -46.5h72zM823 870q0 32 11.5 46t25.5 14q14 -35 43 -58q-14 -8 -14 -22t11 -64t11 -82t-10 -67q55 47 95 47t67 -27q14 -18 27 -47q-2 -4 -6 -20q-13 -43 -60 -72q-37 -27 -111 -26l-145 -3l-45 76 l74 -4l45 2q20 31 30 41q0 166 -38 248l-11 10v8z" />
<glyph unicode="&#x679;" horiz-adv-x="479" arabic-form="initial" d="M356 303v-63q0 -154 -164 -218q-58 -22 -96 -22h-131q-45 0 -76.5 31.5t-31.5 77t31.5 77t76.5 31.5h115q141 0 196 51q-31 111 -153 172l59 217q174 -120 174 -354zM23 721q88 0 131 37q-4 4 -9.5 13t-11.5 11q-16 16 -57 16.5t-79.5 -31t-45.5 -46.5h72zM-86 1036 q0 32 11.5 46t25.5 14q14 -35 43 -58q-14 -8 -14 -22t11 -64t11 -82.5t-10 -66.5q55 47 95 47t67 -27q14 -18 26 -47q-2 -4 -6 -20q-11 -43 -59 -72q-37 -27 -111 -27l-145 -2l-45 76l73 -4l45 2q20 31 31 41q0 209 -49 258v8z" />
<glyph unicode="&#x679;" horiz-adv-x="565" arabic-form="medial" d="M565 217v-217h-96q-142 0 -188 113q-6 -31 -54 -72t-161 -41h-101q-45 0 -76.5 31.5t-31.5 77t31.5 77t76.5 31.5h139q84 0 121.5 34t48.5 62.5t17 63.5l31 -17q-12 -143 155 -143h88zM84 500q88 0 131 37q-4 4 -9 13t-11 11q-16 16 -57.5 16.5t-80 -31t-45.5 -46.5h72z M-25 815q0 30 11.5 44.5t25.5 14.5q14 -35 43 -57q-14 -8 -14 -22t11 -64t11 -82.5t-10 -66.5q55 47 95.5 47t66.5 -27q14 -18 27 -47q-2 -3 -6 -19q-13 -43 -60 -73q-37 -27 -110 -27l-146 -2l-45 76l74 -4l45 2q20 31 31 41q0 164 -39 248l-11 10v8z" />
<glyph unicode="&#x6a4;" horiz-adv-x="2013" arabic-form="final" d="M1572 444q-115 0 -175 -90q31 -61 96 -86q125 47 178 138q-38 38 -99 38zM1792 217h221v-217h-223q-165 0 -287 86q-274 -133 -692 -133q-333 0 -500.5 116.5t-167.5 323.5q0 96 35 194.5t80 143.5l33 -33q-49 -92 -49 -183q0 -169 139 -255t483 -86q248 0 436 39l74 18 q-16 49 -16 80l-2 56q-6 197 144 271q38 19 81 19q139 0 139 -231l-2 -84q0 -80 -39 -119q39 -6 113 -6zM1411 967q70 -39 115 -90l76 90q37 -18 74.5 -51t56.5 -62q-49 -68 -109 -125q-61 66 -104 94q-27 -35 -86 -94q-76 80 -131 111q67 78 108 127zM1501 1188 q35 -18 74 -51t57 -62q-49 -68 -108 -125q-70 72 -131 111q61 66 108 127z" />
<glyph unicode="&#x6a4;" horiz-adv-x="559" arabic-form="initial" d="M354 355q0 50 -32.5 89t-93 39t-111.5 -41q78 -12 138 -59t87 -102q12 24 12 74zM379 158q2 -16 2 -63t-12 -95q-6 61 -31 102q-45 -51 -119 -76.5t-137 -25.5h-117q-45 0 -76.5 31.5t-31.5 77t31.5 77t76.5 31.5h146q86 4 125 10q-55 71 -187 93q-45 8 -59 10v145 q0 90 54 140.5t153.5 50.5t169 -74t69.5 -204t-57 -230zM94 973q70 -39 115 -90l76 90q37 -18 74.5 -51t56.5 -62q-49 -68 -109 -125q-61 66 -104 94q-27 -35 -86 -94q-76 80 -131 111q67 78 108 127zM184 1194q35 -18 74 -51t57 -62q-49 -68 -108 -125q-70 72 -131 111 q61 66 108 127z" />
<glyph unicode="&#x6a4;" horiz-adv-x="770" arabic-form="medial" d="M354 444q-96 0 -159 -90q31 -61 96 -86q127 50 180 138q-16 16 -51 27t-66 11zM518 342q0 -78 -41 -119q37 -6 113 -6h180v-217h-180q-163 0 -271 74q-27 -27 -98 -50.5t-147 -23.5h-109q-45 0 -76.5 31.5t-31.5 77t31.5 77t76.5 31.5h123q68 0 86 10q-18 47 -18 84v56 q0 78 15 128t71.5 106.5t140.5 56t109.5 -71t25.5 -172.5v-72zM211 963q72 -40 115 -91l75 91q37 -18 75 -51t56 -62q-49 -68 -108 -125q-61 66 -105 94q-27 -35 -86 -94q-76 80 -131 111q68 78 109 127zM301 1184q35 -18 74 -51t57 -62q-49 -68 -108 -125q-70 72 -131 111 q61 66 108 127z" />
<glyph unicode="&#x6a6;" horiz-adv-x="2013" arabic-form="final" d="M1572 444q-115 0 -175 -90q31 -61 96 -86q125 47 178 138q-38 38 -99 38zM1792 217h221v-217h-223q-165 0 -287 86q-274 -133 -692 -133q-333 0 -500.5 116.5t-167.5 323.5q0 96 35 194.5t80 143.5l33 -33q-49 -92 -49 -183q0 -169 139 -255t483 -86q248 0 436 39l74 18 q-16 49 -16 80l-2 56q-6 197 144 271q38 19 81 19q139 0 139 -231l-2 -84q0 -80 -39 -119q39 -6 113 -6zM1526 877l76 90q-53 49 -82 69q-14 -18 -80 -88q47 -30 86 -71zM1630 948q65 -37 103 -94q-49 -68 -109 -125q-61 66 -104 94q-27 -35 -86 -94q-76 80 -131 111 q85 96 108 127q-66 61 -108 86q68 78 108 127q70 -39 115 -90l76 90q37 -18 74.5 -51t56.5 -62q-45 -63 -103 -119z" />
<glyph unicode="&#x6a6;" horiz-adv-x="559" arabic-form="initial" d="M354 355q0 50 -32.5 89t-93 39t-111.5 -41q78 -12 138 -59t87 -102q12 24 12 74zM379 158q2 -16 2 -63t-12 -95q-6 61 -31 102q-45 -51 -119 -76.5t-137 -25.5h-117q-45 0 -76.5 31.5t-31.5 77t31.5 77t76.5 31.5h146q86 4 125 10q-55 71 -187 93q-45 8 -59 10v145 q0 90 54 140.5t153.5 50.5t169 -74t69.5 -204t-57 -230zM209 883l76 90q-53 49 -82 69q-14 -18 -80 -88q47 -30 86 -71zM313 954q65 -37 103 -94q-49 -68 -109 -125q-61 66 -104 94q-27 -35 -86 -94q-76 80 -131 111q85 96 108 127q-66 61 -108 86q68 78 108 127 q70 -39 115 -90l76 90q37 -18 74.5 -51t56.5 -62q-45 -63 -103 -119z" />
<glyph unicode="&#x6a6;" horiz-adv-x="770" arabic-form="medial" d="M354 444q-96 0 -159 -90q31 -61 96 -86q127 50 180 138q-16 16 -51 27t-66 11zM518 342q0 -78 -41 -119q37 -6 113 -6h180v-217h-180q-163 0 -271 74q-27 -27 -98 -50.5t-147 -23.5h-109q-45 0 -76.5 31.5t-31.5 77t31.5 77t76.5 31.5h123q68 0 86 10q-18 47 -18 84v56 q0 78 15 128t71.5 106.5t140.5 56t109.5 -71t25.5 -172.5v-72zM326 872l75 91q-53 49 -82 69q-14 -18 -79 -88q47 -31 86 -72zM430 944q64 -37 102 -94q-49 -68 -108 -125q-61 66 -105 94q-27 -35 -86 -94q-76 80 -131 111q86 96 109 127q-66 61 -109 86q68 78 109 127 q72 -40 115 -91l75 91q37 -18 75 -51t56 -62q-45 -63 -102 -119z" />
<glyph unicode="&#x684;" horiz-adv-x="1245" arabic-form="final" d="M359.5 502q-41.5 0 -76.5 -18.5t-45 -41.5q92 -72 139 -149q102 98 266 164q-46 5 -144 25t-139.5 20zM160 457q0 86 47 145q66 84 170 84q63 0 217.5 -39t219.5 -50t140 -13l76 -2l-78 -205h-32q-6 -90 47 -125t172 -35h106v-217h-115q-224 0 -282 174 q-18 53 -17.5 105.5t11.5 89.5q-72 -6 -156 -33q-154 -47 -272 -139q4 -25 4 -43t-12 -48q-12 38 -29 54q-53 -53 -89 -132t-36 -170t51 -175t141 -140q152 -94 373 -94h195l-178 -207h-119q-272 0 -412 133q-70 66 -115 176.5t-45 246.5t47.5 247t120.5 188 q-55 55 -151 127v97zM791 -242q-49 -68 -109 -125q-76 80 -131 111q70 76 108 125q-55 55 -108 88q63 63 108 127q37 -20 75 -53t57 -60q-37 -55 -101 -118q70 -48 101 -95z" />
<glyph unicode="&#x684;" horiz-adv-x="1122" arabic-form="initial" d="M209 412q-94 0 -133 -72q61 -68 98 -123q137 2 214 26.5t147 63.5q-74 42 -171.5 73.5t-154.5 31.5zM817 223q-86 0 -179 -38t-195 -89t-185 -76q0 -4 2 -42.5t-18 -81.5q-10 53 -43 114q-66 -10 -133 -10h-101q-45 0 -76.5 31.5t-31.5 77t31.5 77t76.5 31.5h101l-66 96 v68q0 90 63.5 153.5t167.5 63.5q55 0 111.5 -17.5t149.5 -54.5l94 -37q197 -72 364 -71h49l-106 -195h-76zM545 -436q-49 -68 -109 -125q-76 80 -131 110q70 76 109 125q-55 55 -109 88q63 63 109 127q37 -20 74.5 -53t56.5 -59q-37 -55 -101 -119q70 -47 101 -94z" />
<glyph unicode="&#x684;" horiz-adv-x="1138" arabic-form="medial" d="M1139 217v-217h-131q-100 0 -171 24.5t-106 106.5q-20 43 -20 83t6 71q-55 -18 -94 -47l-39 -29q-252 -209 -496 -209h-123q-45 0 -76.5 31.5t-31.5 75.5t31.5 77t76.5 33h119q214 0 385 107l57 28l-295 49l-16 2q-31 0 -43 -24v-51l-22 -11q-40 65 -98 79q-20 5 -27 5 q4 10 19 51.5t40 90.5q12 20 70.5 38.5t107.5 18.5t109.5 -19.5t95.5 -31.5t123 -35t280 -31l88 -2l-98 -182q-20 4 -32.5 4t-36.5 -4q16 -41 63 -61.5t156 -20.5h129zM332 -438q-49 -68 -109 -125q-76 80 -131 110q70 76 109 125q-55 55 -109 88q63 63 109 127 q37 -20 74.5 -53t56.5 -59q-37 -55 -101 -119q70 -47 101 -94z" />
<glyph unicode="&#x683;" horiz-adv-x="1245" arabic-form="final" d="M359.5 502q-41.5 0 -76.5 -18.5t-45 -41.5q92 -72 139 -149q102 98 266 164q-46 5 -144 25t-139.5 20zM160 457q0 86 47 145q66 84 170 84q63 0 217.5 -39t219.5 -50t140 -13l76 -2l-78 -205h-32q-6 -90 47 -125t172 -35h106v-217h-115q-224 0 -282 174 q-18 53 -17.5 105.5t11.5 89.5q-72 -6 -156 -33q-154 -47 -272 -139q4 -25 4 -43t-12 -48q-12 38 -29 54q-53 -53 -89 -132t-36 -170t51 -175t141 -140q152 -94 373 -94h195l-178 -207h-119q-272 0 -412 133q-70 66 -115 176.5t-45 246.5t47.5 247t120.5 188 q-55 55 -151 127v97zM573 -43q63 -33 113 -90q55 59 76 90q37 -18 74.5 -51t56.5 -62q-49 -68 -109 -125q-53 55 -104 95q-35 -45 -84 -95q-84 84 -131 111q85 96 108 127z" />
<glyph unicode="&#x683;" horiz-adv-x="1122" arabic-form="initial" d="M209 412q-94 0 -133 -72q61 -68 98 -123q137 2 214 26.5t147 63.5q-74 42 -171.5 73.5t-154.5 31.5zM817 223q-86 0 -179 -38t-195 -89t-185 -76q0 -4 2 -42.5t-18 -81.5q-10 53 -43 114q-66 -10 -133 -10h-101q-45 0 -76.5 31.5t-31.5 77t31.5 77t76.5 31.5h101l-66 96 v68q0 90 63.5 153.5t167.5 63.5q55 0 111.5 -17.5t149.5 -54.5l94 -37q197 -72 364 -71h49l-106 -195h-76zM322 -111q63 -33 112 -90q55 59 76 90q37 -18 75 -51t56 -61q-49 -68 -109 -125q-53 55 -104 94q-35 -45 -84 -94q-84 84 -131 110q86 96 109 127z" />
<glyph unicode="&#x683;" horiz-adv-x="1138" arabic-form="medial" d="M1139 217v-217h-131q-100 0 -171 24.5t-106 106.5q-20 43 -20 83t6 71q-55 -18 -94 -47l-39 -29q-252 -209 -496 -209h-123q-45 0 -76.5 31.5t-31.5 75.5t31.5 77t76.5 33h119q214 0 385 107l57 28l-295 49l-16 2q-31 0 -43 -24v-51l-22 -11q-40 65 -98 79q-20 5 -27 5 q4 10 19 51.5t40 90.5q12 20 70.5 38.5t107.5 18.5t109.5 -19.5t95.5 -31.5t123 -35t280 -31l88 -2l-98 -182q-20 4 -32.5 4t-36.5 -4q16 -41 63 -61.5t156 -20.5h129zM109 -113q63 -33 112 -90q55 59 76 90q37 -18 75 -51t56 -61q-49 -68 -109 -125q-53 55 -104 94 q-35 -45 -84 -94q-84 84 -131 110q86 96 109 127z" />
<glyph unicode="&#x686;" horiz-adv-x="1245" arabic-form="final" d="M359.5 502q-41.5 0 -76.5 -18.5t-45 -41.5q92 -72 139 -149q102 98 266 164q-46 5 -144 25t-139.5 20zM160 457q0 86 47 145q66 84 170 84q63 0 217.5 -39t219.5 -50t140 -13l76 -2l-78 -205h-32q-6 -90 47 -125t172 -35h106v-217h-115q-224 0 -282 174 q-18 53 -17.5 105.5t11.5 89.5q-72 -6 -156 -33q-154 -47 -272 -139q4 -25 4 -43t-12 -48q-12 38 -29 54q-53 -53 -89 -132t-36 -170t51 -175t141 -140q152 -94 373 -94h195l-178 -207h-119q-272 0 -412 133q-70 66 -115 176.5t-45 246.5t47.5 247t120.5 188 q-55 55 -151 127v97zM653 -160q37 -20 75 -53t56 -61q-43 -59 -108 -125q-76 80 -131 110q88 98 108 129zM545 57q63 -33 112 -90q55 59 76 90q37 -18 75 -51t56 -61q-49 -68 -108 -125q-53 55 -105 94q-35 -45 -84 -94q-84 84 -131 110q86 98 109 127z" />
<glyph unicode="&#x686;" horiz-adv-x="1122" arabic-form="initial" d="M209 412q-94 0 -133 -72q61 -68 98 -123q137 2 214 26.5t147 63.5q-74 42 -171.5 73.5t-154.5 31.5zM817 223q-86 0 -179 -38t-195 -89t-185 -76q0 -4 2 -42.5t-18 -81.5q-10 53 -43 114q-66 -10 -133 -10h-101q-45 0 -76.5 31.5t-31.5 77t31.5 77t76.5 31.5h101l-66 96 v68q0 90 63.5 153.5t167.5 63.5q55 0 111.5 -17.5t149.5 -54.5l94 -37q197 -72 364 -71h49l-106 -195h-76zM430 -328q37 -20 75 -53t56 -61q-43 -59 -108 -125q-76 80 -131 110q88 98 108 129zM322 -111q63 -33 112 -90q55 59 76 90q37 -18 75 -51t56 -61q-49 -68 -109 -125 q-53 55 -104 94q-35 -45 -84 -94q-84 84 -131 110q86 96 109 127z" />
<glyph unicode="&#x686;" horiz-adv-x="1138" arabic-form="medial" d="M1139 217v-217h-131q-100 0 -171 24.5t-106 106.5q-20 43 -20 83t6 71q-55 -18 -94 -47l-39 -29q-252 -209 -496 -209h-123q-45 0 -76.5 31.5t-31.5 75.5t31.5 77t76.5 33h119q214 0 385 107l57 28l-295 49l-16 2q-31 0 -43 -24v-51l-22 -11q-40 65 -98 79q-20 5 -27 5 q4 10 19 51.5t40 90.5q12 20 70.5 38.5t107.5 18.5t109.5 -19.5t95.5 -31.5t123 -35t280 -31l88 -2l-98 -182q-20 4 -32.5 4t-36.5 -4q16 -41 63 -61.5t156 -20.5h129zM217 -330q37 -20 75 -53t56 -61q-43 -59 -108 -125q-76 80 -131 110q88 98 108 129zM109 -113 q63 -33 112 -90q55 59 76 90q37 -18 75 -51t56 -61q-49 -68 -109 -125q-53 55 -104 94q-35 -45 -84 -94q-84 84 -131 110q86 96 109 127z" />
<glyph unicode="&#x687;" horiz-adv-x="1245" arabic-form="final" d="M359.5 502q-41.5 0 -76.5 -18.5t-45 -41.5q92 -72 139 -149q102 98 266 164q-46 5 -144 25t-139.5 20zM160 457q0 86 47 145q66 84 170 84q63 0 217.5 -39t219.5 -50t140 -13l76 -2l-78 -205h-32q-6 -90 47 -125t172 -35h106v-217h-115q-224 0 -282 174 q-18 53 -17.5 105.5t11.5 89.5q-72 -6 -156 -33q-154 -47 -272 -139q4 -25 4 -43t-12 -48q-12 38 -29 54q-53 -53 -89 -132t-36 -170t51 -175t141 -140q152 -94 373 -94h195l-178 -207h-119q-272 0 -412 133q-70 66 -115 176.5t-45 246.5t47.5 247t120.5 188 q-55 55 -151 127v97zM659 -229l76 90q-61 57 -82 69q-18 -25 -80 -86q49 -30 86 -73zM545 74q72 -40 114 -90l76 90q37 -18 75 -51t56 -62q-41 -57 -102 -117q72 -47 102 -96q-49 -68 -108 -125q-61 66 -105 94q-27 -35 -86 -94q-76 80 -131 111q68 78 109 127 q-57 57 -109 86q68 78 109 127z" />
<glyph unicode="&#x687;" horiz-adv-x="1122" arabic-form="initial" d="M209 412q-94 0 -133 -72q61 -68 98 -123q137 2 214 26.5t147 63.5q-74 42 -171.5 73.5t-154.5 31.5zM817 223q-86 0 -179 -38t-195 -89t-185 -76q0 -4 2 -42.5t-18 -81.5q-10 53 -43 114q-66 -10 -133 -10h-101q-45 0 -76.5 31.5t-31.5 77t31.5 77t76.5 31.5h101l-66 96 v68q0 90 63.5 153.5t167.5 63.5q55 0 111.5 -17.5t149.5 -54.5l94 -37q197 -72 364 -71h49l-106 -195h-76zM434 -414l76 90q-61 57 -82 70q-18 -25 -80 -86q49 -31 86 -74zM319 -111q77 -42 115 -90l76 90q37 -18 75 -51t56 -61q-41 -57 -102 -117q72 -47 102 -96 q-49 -68 -109 -125q-61 66 -104 94q-27 -35 -86 -94q-76 80 -131 110q67 78 108 127q-57 57 -108 86q68 78 108 127z" />
<glyph unicode="&#x687;" horiz-adv-x="1138" arabic-form="medial" d="M1139 217v-217h-131q-100 0 -171 24.5t-106 106.5q-20 43 -20 83t6 71q-55 -18 -94 -47l-39 -29q-252 -209 -496 -209h-123q-45 0 -76.5 31.5t-31.5 75.5t31.5 77t76.5 33h119q214 0 385 107l57 28l-295 49l-16 2q-31 0 -43 -24v-51l-22 -11q-40 65 -98 79q-20 5 -27 5 q4 10 19 51.5t40 90.5q12 20 70.5 38.5t107.5 18.5t109.5 -19.5t95.5 -31.5t123 -35t280 -31l88 -2l-98 -182q-20 4 -32.5 4t-36.5 -4q16 -41 63 -61.5t156 -20.5h129zM221 -416l76 90q-61 57 -82 70q-18 -25 -80 -86q49 -31 86 -74zM106 -113q77 -42 115 -90l76 90 q37 -18 75 -51t56 -61q-41 -57 -102 -117q72 -47 102 -96q-49 -68 -109 -125q-61 66 -104 94q-27 -35 -86 -94q-76 80 -131 110q67 78 108 127q-57 57 -108 86q68 78 108 127z" />
<glyph unicode="&#x68d;" horiz-adv-x="907" arabic-form="final" d="M109 285q59 -86 207 -86q70 0 138 20t99 45q-33 70 -54 177.5t-22 174.5l72 109q41 -224 100 -342q84 -166 215 -166h43v-217h-53q-80 0 -154 49q-61 43 -98 109q-18 -78 -89 -126t-197 -48t-177 59q-37 39 -37 95q0 112 7 147zM246 -111q63 -33 112 -90q55 59 76 90 q37 -18 75 -51t56 -61q-49 -68 -108 -125q-53 55 -105 94q-35 -45 -84 -94q-84 84 -131 110q86 96 109 127z" />
<glyph unicode="&#x68c;" horiz-adv-x="907" arabic-form="final" d="M109 285q59 -86 207 -86q70 0 138 20t99 45q-33 70 -54 177.5t-22 174.5l72 109q41 -224 100 -342q84 -166 215 -166h43v-217h-53q-80 0 -154 49q-61 43 -98 109q-18 -78 -89 -126t-197 -48t-177 59q-37 39 -37 95q0 112 7 147zM299 1008q63 -33 113 -90q55 59 75 90 q37 -18 75 -51t56 -62q-49 -68 -108 -125q-53 55 -104 94q-35 -45 -84 -94q-84 84 -132 111q86 96 109 127z" />
<glyph unicode="&#x68e;" horiz-adv-x="907" arabic-form="final" d="M109 285q59 -86 207 -86q70 0 138 20t99 45q-33 70 -54 177.5t-22 174.5l72 109q41 -224 100 -342q84 -166 215 -166h43v-217h-53q-80 0 -154 49q-61 43 -98 109q-18 -78 -89 -126t-197 -48t-177 59q-37 39 -37 95q0 112 7 147zM295 1010q70 -39 115 -90l75 90 q37 -18 75 -51t56 -62q-49 -68 -108 -125q-61 66 -105 94q-27 -35 -86 -94q-76 80 -131 111q68 78 109 127zM385 1231q35 -18 74 -51t57 -62q-49 -68 -108 -125q-70 72 -132 111q62 66 109 127z" />
<glyph unicode="&#x688;" horiz-adv-x="907" arabic-form="final" d="M109 285q59 -86 207 -86q70 0 138 20t99 45q-33 70 -54 177.5t-22 174.5l72 109q41 -224 100 -342q84 -166 215 -166h43v-217h-53q-80 0 -154 49q-61 43 -98 109q-18 -78 -89 -126t-197 -48t-177 59q-37 39 -37 95q0 112 7 147zM446 836q88 0 132 36q-4 4 -9.5 13.5 t-11.5 11.5q-16 16 -57 16t-79 -31t-46 -46h71zM338 1151q0 59 37 59q14 -35 43 -57q-14 -8 -14.5 -22.5t11 -63t11.5 -82t-10 -67.5q55 47 95 47t67 -27q14 -18 26 -47q-2 -3 -6 -19q-11 -43 -59 -73q-37 -27 -111 -27l-145 -2l-45 76l73 -4l45 2q20 31 31 41 q0 209 -49 258v8z" />
<glyph unicode="&#x698;" horiz-adv-x="706" arabic-form="final" d="M707 217v-217h-111q-78 0 -113 14q8 -181 -106 -300.5t-307 -119.5v-116h-7q-14 43 -48.5 75.5t-96.5 28.5v215q409 12 447 289q-33 31 -50.5 87t-15.5 88.5t6 70.5l35 33q35 -80 85 -114t126 -34h156zM109 698q75 -41 114 -90l76 90q37 -18 75 -51t56 -61 q-49 -68 -108 -125q-61 66 -105 94q-27 -35 -86 -94q-76 80 -131 110q68 78 109 127zM199 920q35 -18 73.5 -51t57.5 -62q-49 -68 -109 -125q-70 72 -131 111q62 66 109 127z" />
<glyph unicode="&#x691;" horiz-adv-x="747" arabic-form="final" d="M707 217v-217h-111q-78 0 -113 14q8 -181 -106 -300.5t-307 -119.5v-116h-7q-14 43 -48.5 75.5t-96.5 28.5v215q409 12 447 289q-33 31 -50.5 87t-15.5 88.5t6 70.5l35 33q35 -80 85 -114t126 -34h156zM242 526q88 0 131 37q-4 4 -9.5 13.5t-11.5 11.5q-16 16 -57 16 t-79.5 -31.5t-45.5 -46.5h72zM133 842q0 31 11.5 45t25.5 14q14 -35 43 -57q-14 -8 -14 -22.5t11 -64t11 -82t-10 -67.5q55 47 95 47t67 -26q14 -18 26 -47q-2 -4 -6 -20q-11 -44 -59 -73q-37 -27 -111 -26l-145 -2l-45 76l73 -5l46 3q20 31 30 40q0 205 -49 259v8z" />
<glyph unicode="&#x6a9;" horiz-adv-x="1996" arabic-form="final" d="M291 627q-49 -83 -49 -169t40 -142q101 -143 523 -142q172 0 360.5 18.5t300.5 59.5q-92 141 -138 202.5t-101 104.5v-37q-68 51 -85.5 91t-17.5 138.5t6 144.5t48 82q76 66 319.5 185t339.5 183l-51 -232q-45 -31 -258 -134t-285 -153q88 -72 154.5 -163t142.5 -209.5 t114 -160.5q70 -77 210 -77h133v-217h-148q-184 0 -290 150q-70 -68 -157 -108t-237.5 -64.5t-456.5 -24.5t-454 129q-111 96 -111 248q0 88 35 187t80 140z" />
<glyph unicode="&#x6a9;" horiz-adv-x="718" arabic-form="initial" d="M424 348q0 -150 -59 -235q-74 -113 -244 -113h-156q-45 0 -76.5 31.5t-31.5 77t31.5 77t76.5 31.5h88q98 0 157.5 21.5t94.5 70.5q-35 80 -95 159t-122 124v-70q-68 51 -85 91t-17 138.5t6 144.5t46 82t118.5 80t222.5 114.5t195 98t124 75.5l-51 -232q-61 -41 -286 -143 t-255 -123q94 -72 171 -178q147 -204 147 -322z" />
<glyph unicode="&#x6a9;" horiz-adv-x="913" arabic-form="medial" d="M913 217v-217h-147q-119 0 -189.5 51t-117.5 123q-39 -80 -111 -127t-162 -47h-221q-45 0 -76.5 31.5t-31.5 77t31.5 77t76.5 31.5h221q117 0 181 64q-118 194 -224 278v-37q-90 70 -98 140q-4 36 -4 119t11 125t46 76t104 72t263 133t289 159l-52 -232 q-33 -25 -216 -113.5t-226 -112.5t-100 -61q90 -70 161.5 -171t139 -207.5t107.5 -150.5q74 -81 212 -81h133z" />
<glyph unicode="&#x6af;" horiz-adv-x="1996" arabic-form="final" d="M291 627q-49 -83 -49 -169t40 -142q101 -143 523 -142q172 0 360.5 18.5t300.5 59.5q-92 141 -138 202.5t-101 104.5v-37q-68 51 -85.5 91t-17.5 138.5t6 144.5t48 82q76 66 319.5 185t339.5 183l-51 -232q-45 -31 -258 -134t-285 -153q88 -72 154.5 -163t142.5 -209.5 t114 -160.5q70 -77 210 -77h133v-217h-148q-184 0 -290 150q-70 -68 -157 -108t-237.5 -64.5t-456.5 -24.5t-454 129q-111 96 -111 248q0 88 35 187t80 140zM1690 1360q-31 -20 -244 -131t-246 -131l-14 10l69 109l453 229z" />
<glyph unicode="&#x6af;" horiz-adv-x="718" arabic-form="initial" d="M424 348q0 -150 -59 -235q-74 -113 -244 -113h-156q-45 0 -76.5 31.5t-31.5 77t31.5 77t76.5 31.5h88q98 0 157.5 21.5t94.5 70.5q-35 80 -95 159t-122 124v-70q-68 51 -85 91t-17 138.5t6 144.5t46 82t118.5 80t222.5 114.5t195 98t124 75.5l-51 -232q-61 -41 -286 -143 t-255 -123q94 -72 171 -178q147 -204 147 -322zM567 1368q-30 -20 -243 -131t-246 -131l-15 10l70 109l453 229z" />
<glyph unicode="&#x6af;" horiz-adv-x="913" arabic-form="medial" d="M913 217v-217h-147q-119 0 -189.5 51t-117.5 123q-39 -80 -111 -127t-162 -47h-221q-45 0 -76.5 31.5t-31.5 77t31.5 77t76.5 31.5h221q117 0 181 64q-118 194 -224 278v-37q-90 70 -98 140q-4 36 -4 119t11 125t46 76t104 72t263 133t289 159l-52 -232 q-33 -25 -216 -113.5t-226 -112.5t-100 -61q90 -70 161.5 -171t139 -207.5t107.5 -150.5q74 -81 212 -81h133zM629 1382q-31 -20 -244 -131t-246 -131l-14 10l70 109l452 229z" />
<glyph unicode="&#x6b3;" horiz-adv-x="1996" arabic-form="final" d="M291 627q-49 -83 -49 -169t40 -142q101 -143 523 -142q172 0 360.5 18.5t300.5 59.5q-92 141 -138 202.5t-101 104.5v-37q-68 51 -85.5 91t-17.5 138.5t6 144.5t48 82q76 66 319.5 185t339.5 183l-51 -232q-45 -31 -258 -134t-285 -153q88 -72 154.5 -163t142.5 -209.5 t114 -160.5q70 -77 210 -77h133v-217h-148q-184 0 -290 150q-70 -68 -157 -108t-237.5 -64.5t-456.5 -24.5t-454 129q-111 96 -111 248q0 88 35 187t80 140zM1690 1360q-31 -20 -244 -131t-246 -131l-14 10l69 109l453 229zM991 -498q-49 -68 -108 -125q-76 80 -131 111 q70 76 108 125q-55 55 -108 88q63 63 108 127q37 -20 75 -53t56 -60q-37 -55 -100 -118q69 -48 100 -95z" />
<glyph unicode="&#x6b3;" horiz-adv-x="718" arabic-form="initial" d="M424 348q0 -150 -59 -235q-74 -113 -244 -113h-156q-45 0 -76.5 31.5t-31.5 77t31.5 77t76.5 31.5h88q98 0 157.5 21.5t94.5 70.5q-35 80 -95 159t-122 124v-70q-68 51 -85 91t-17 138.5t6 144.5t46 82t118.5 80t222.5 114.5t195 98t124 75.5l-51 -232q-61 -41 -286 -143 t-255 -123q94 -72 171 -178q147 -204 147 -322zM567 1368q-30 -20 -243 -131t-246 -131l-15 10l70 109l453 229zM233 -436q-49 -68 -108 -125q-76 80 -131 110q70 76 108 125q-55 55 -108 88q63 63 108 127q37 -20 75 -53t56 -59q-37 -55 -100 -119q69 -47 100 -94z" />
<glyph unicode="&#x6b3;" horiz-adv-x="913" arabic-form="medial" d="M913 217v-217h-147q-119 0 -189.5 51t-117.5 123q-39 -80 -111 -127t-162 -47h-221q-45 0 -76.5 31.5t-31.5 77t31.5 77t76.5 31.5h221q117 0 181 64q-118 194 -224 278v-37q-90 70 -98 140q-4 36 -4 119t11 125t46 76t104 72t263 133t289 159l-52 -232 q-33 -25 -216 -113.5t-226 -112.5t-100 -61q90 -70 161.5 -171t139 -207.5t107.5 -150.5q74 -81 212 -81h133zM629 1382q-31 -20 -244 -131t-246 -131l-14 10l70 109l452 229zM258 -436q-49 -68 -108 -125q-76 80 -132 110q70 76 109 125q-55 55 -109 88q63 63 109 127 q37 -20 75 -53t56 -59q-37 -55 -100 -119q69 -47 100 -94z" />
<glyph unicode="&#x6b1;" horiz-adv-x="1996" arabic-form="final" d="M291 627q-49 -83 -49 -169t40 -142q101 -143 523 -142q172 0 360.5 18.5t300.5 59.5q-92 141 -138 202.5t-101 104.5v-37q-68 51 -85.5 91t-17.5 138.5t6 144.5t48 82q76 66 319.5 185t339.5 183l-51 -232q-45 -31 -258 -134t-285 -153q88 -72 154.5 -163t142.5 -209.5 t114 -160.5q70 -77 210 -77h133v-217h-148q-184 0 -290 150q-70 -68 -157 -108t-237.5 -64.5t-456.5 -24.5t-454 129q-111 96 -111 248q0 88 35 187t80 140zM1690 1360q-31 -20 -244 -131t-246 -131l-14 10l69 109l453 229zM1343 1724q63 -33 113 -90q55 59 76 90 q37 -18 75 -51t56 -61q-49 -68 -109 -125q-53 55 -104 94q-35 -45 -84 -94q-84 84 -131 110q85 96 108 127z" />
<glyph unicode="&#x6b1;" horiz-adv-x="718" arabic-form="initial" d="M424 348q0 -150 -59 -235q-74 -113 -244 -113h-156q-45 0 -76.5 31.5t-31.5 77t31.5 77t76.5 31.5h88q98 0 157.5 21.5t94.5 70.5q-35 80 -95 159t-122 124v-70q-68 51 -85 91t-17 138.5t6 144.5t46 82t118.5 80t222.5 114.5t195 98t124 75.5l-51 -232q-61 -41 -286 -143 t-255 -123q94 -72 171 -178q147 -204 147 -322zM567 1368q-30 -20 -243 -131t-246 -131l-15 10l70 109l453 229zM221 1733q63 -33 113 -91q55 59 76 91q37 -18 74.5 -51t56.5 -62q-49 -68 -109 -125q-53 55 -104 94q-35 -45 -84 -94q-84 84 -131 111q85 96 108 127z" />
<glyph unicode="&#x6b1;" horiz-adv-x="913" arabic-form="medial" d="M913 217v-217h-147q-119 0 -189.5 51t-117.5 123q-39 -80 -111 -127t-162 -47h-221q-45 0 -76.5 31.5t-31.5 77t31.5 77t76.5 31.5h221q117 0 181 64q-118 194 -224 278v-37q-90 70 -98 140q-4 36 -4 119t11 125t46 76t104 72t263 133t289 159l-52 -232 q-33 -25 -216 -113.5t-226 -112.5t-100 -61q90 -70 161.5 -171t139 -207.5t107.5 -150.5q74 -81 212 -81h133zM629 1382q-31 -20 -244 -131t-246 -131l-14 10l70 109l452 229zM283 1747q63 -33 112 -90q55 59 76 90q37 -18 75 -51t56 -62q-49 -68 -108 -125q-53 55 -105 95 q-35 -45 -84 -95q-84 84 -131 111q86 96 109 127z" />
<glyph unicode="&#x6ba;" horiz-adv-x="1259" arabic-form="final" d="M293 236q-68 -94 -68 -213t101.5 -194t261.5 -75q220 0 312 103q44 49 61 92l-99 119q-72 92 -71 196q0 52 8 68l32 30q35 -86 84 -112q49 -31 123 -33h222v-217h-232q2 -23 2 -68q-2 -201 -128.5 -310t-330 -109t-311.5 102q-117 109 -117 307q0 92 31 185.5t86 160.5z " />
<glyph unicode="&#x6bb;" horiz-adv-x="1259" arabic-form="final" d="M293 236q-68 -94 -68 -213t101.5 -194t261.5 -75q220 0 312 103q44 49 61 92l-99 119q-72 92 -71 196q0 52 8 68l32 30q35 -86 84 -112q49 -31 123 -33h222v-217h-232q2 -23 2 -68q-2 -201 -128.5 -310t-330 -109t-311.5 102q-117 109 -117 307q0 92 31 185.5t86 160.5z M561 63q88 0 131 37q-4 4 -9 13.5t-11 11.5q-16 16 -57 16t-78 -30t-48 -48h72zM453 379q0 32 11 45.5t25 13.5q14 -35 43 -57q-14 -8 -14 -22.5t11.5 -66.5t11.5 -82t-11 -65q100 85 162 21q14 -18 27 -47q-2 -3 -6 -19q-11 -42 -60 -73q-37 -27 -110 -27l-146 -2l-45 76 l74 -4l45 2q20 31 31 41q0 204 -49 258v8z" />
<glyph unicode="&#x6bb;" horiz-adv-x="479" arabic-form="initial" d="M356 303v-63q0 -154 -164 -218q-58 -22 -96 -22h-131q-45 0 -76.5 31.5t-31.5 77t31.5 77t76.5 31.5h115q141 0 196 51q-31 111 -153 172l59 217q174 -120 174 -354zM23 721q88 0 131 37q-4 4 -9.5 13t-11.5 11q-16 16 -57 16.5t-79.5 -31t-45.5 -46.5h72zM-86 1036 q0 32 11.5 46t25.5 14q14 -35 43 -58q-14 -8 -14 -22t11 -64t11 -82.5t-10 -66.5q55 47 95 47t67 -27q14 -18 26 -47q-2 -4 -6 -20q-11 -43 -59 -72q-37 -27 -111 -27l-145 -2l-45 76l73 -4l45 2q20 31 31 41q0 209 -49 258v8z" />
<glyph unicode="&#x6bb;" horiz-adv-x="565" arabic-form="medial" d="M565 217v-217h-96q-142 0 -188 113q-6 -31 -54 -72t-161 -41h-101q-45 0 -76.5 31.5t-31.5 77t31.5 77t76.5 31.5h139q84 0 121.5 34t48.5 62.5t17 63.5l31 -17q-12 -143 155 -143h88zM84 500q88 0 131 37q-4 4 -9 13t-11 11q-16 16 -57.5 16.5t-80 -31t-45.5 -46.5h72z M-25 815q0 30 11.5 44.5t25.5 14.5q14 -35 43 -57q-14 -8 -14 -22t11 -64t11 -82.5t-10 -66.5q55 47 95.5 47t66.5 -27q14 -18 27 -47q-2 -3 -6 -19q-13 -43 -60 -73q-37 -27 -110 -27l-146 -2l-45 76l74 -4l45 2q20 31 31 41q0 164 -39 248l-11 10v8z" />
<glyph unicode="&#x6c1;" horiz-adv-x="841" arabic-form="final" d="M842 217v-217h-78q-129 0 -195 74q-29 35 -47 93t-20 64q-41 92 -123 88q-99 0 -168 -118q23 -33 50.5 -62t105.5 -82l49 -34q119 -90 119 -193v-164h-11q-26 64 -116 128q-34 24 -41.5 30t-53 38t-87.5 68q-71 61 -83 172v154q0 106 74 195.5t162 89.5q61 0 102 -58 q21 -27 38 -90t36 -88q61 -88 209 -88h78z" />
<glyph unicode="&#x6c1;" horiz-adv-x="417" arabic-form="initial" d="M59 -239q0 -86 88 -80q-14 -72 -81 -72q-41 0 -66 29.5t-25 80.5q0 88 78 149.5t178 61.5v-39q-67 -4 -119.5 -45t-52.5 -85zM336 303v-63q0 -97 -70 -160q-37 -35 -94 -57.5t-96 -22.5h-111q-45 0 -76.5 31.5t-31.5 77t31.5 77t76.5 31.5h94q139 0 197 51 q-31 111 -154 172l60 217q174 -120 174 -354z" />
<glyph unicode="&#x6c1;" horiz-adv-x="907" arabic-form="medial" d="M471 256q-100 -69 -100 -216q0 -73 53 -140q0 131 78 215q98 102 282 102h123v-217h-141q-164 0 -219 -33t-64 -117l66 -43v-215q-139 57 -211 170q-57 96 -57 215q0 20 4 70q-89 -47 -242 -47h-78q-45 0 -76.5 31.5t-31.5 77t31.5 77t76.5 31.5h43q162 4 271.5 49 t191.5 174v-184z" />
<glyph unicode="&#x6be;" horiz-adv-x="1255" arabic-form="final" d="M748 352q0 -55 -35 -108q86 -47 137 -72q24 0 43.5 26.5t24.5 63.5q-20 59 -68.5 107.5t-84.5 74t-44 31.5q27 -68 27 -123zM547 508q-71 0 -121 -80q10 -31 44 -55.5t114 -61.5q51 39 82 90q-8 49 -45 78t-74 29zM1159 0q-139 0 -186 109q-16 -39 -53 -84t-91 -45 q-96 70 -204 131q-51 -57 -131 -96.5t-146 -39.5l-217 -2l-29 60q240 72 367 160q-70 35 -93.5 67.5t-23.5 105.5t46 147.5t128 107.5q-18 24 -18 63v121q17 -39 184 -131q66 -35 79 -45t56 -40q158 -111 170 -282q0 -51 21.5 -70.5t85.5 -19.5h151v-217h-96z" />
<glyph unicode="&#x6be;" horiz-adv-x="888" arabic-form="initial" d="M514 352q0 -55 -35 -108q86 -47 137 -72q24 0 44 26.5t24 63.5q-36 106 -197 213q27 -68 27 -123zM313 508q-72 0 -120 -80q10 -31 43.5 -55.5t113.5 -61.5q51 39 82 90q-8 49 -45 78t-74 29zM274 684v121q17 -39 185 -131q66 -35 79 -45.5t56 -40.5q172 -118 172 -324 q0 -148 -74 -231q-43 -53 -96 -53q-156 96 -215 114q-61 -53 -140.5 -73.5t-224.5 -20.5h-51q-45 0 -76.5 31.5t-31.5 76t31.5 77t76.5 32.5h103q59 0 102 12q-51 57 -51 133.5t46 151t128 107.5q-19 25 -19 63z" />
<glyph unicode="&#x6be;" horiz-adv-x="1021" arabic-form="medial" d="M514 352q0 -55 -35 -108q86 -47 137 -72q24 0 44 26.5t24 63.5q-36 106 -197 213q27 -68 27 -123zM313 508q-72 0 -120 -80q10 -31 43.5 -55.5t113.5 -61.5q51 39 82 90q-8 49 -45 78t-74 29zM274 684v121q17 -39 185 -131q66 -35 79 -45t56 -40q168 -117 172 -313 q4 -33 27.5 -46t76.5 -13h152v-217h-96q-84 0 -138 43q-29 27 -51 63q-23 -49 -45 -73q-43 -53 -96 -53q-156 96 -215 114q-61 -53 -140.5 -73.5t-224.5 -20.5h-51q-45 0 -76.5 31.5t-31.5 76t31.5 77t76.5 32.5h103q59 0 102 12q-51 57 -51 133.5t46 151t128 107.5 q-19 25 -19 63z" />
<glyph unicode="&#x6d2;" horiz-adv-x="1316" arabic-form="final" d="M467 -158q98 0 135 -63q8 -16 24 -69t41 -79q42 -43 162 -43h82q82 0 201 11l-135 -228h-178q-59 2 -86 31t-54 98q-45 117 -188 125h-152q-68 0 -114 35q-62 34 -62 102l19 187q2 31 20.5 83t55.5 95q80 90 200 90h879v-217h-457q-137 0 -301 6l-65 2q-235 0 -279 -94 q11 -72 168 -72h84z" />
<glyph unicode="&#x6d3;" horiz-adv-x="1316" arabic-form="final" d="M467 -158q98 0 135 -63q8 -16 24 -69t41 -79q42 -43 162 -43h82q82 0 201 11l-135 -228h-178q-59 2 -86 31t-54 98q-45 117 -188 125h-152q-68 0 -114 35q-62 34 -62 102l19 187q2 31 20.5 83t55.5 95q80 90 200 90h879v-217h-457q-137 0 -301 6l-65 2q-235 0 -279 -94 q11 -72 168 -72h84zM229 492q0 10 7 22q87 113 145 113q37 0 61.5 -24.5t24.5 -53.5l-47 -43q-20 39 -48 39t-50.5 -15.5t-24.5 -15.5q39 -63 111 -78q59 15 116 23l-30 -80q-184 -31 -316 -98l-14 10l57 86q16 8 35.5 13t32.5 11q-60 30 -60 91z" />
<glyph unicode="&#x6ad;" horiz-adv-x="1951" arabic-form="final" d="M916 354q-88 0 -187 31l16 33q15 -2 67 2q135 10 165 51q0 2 -10.5 8t-47 6t-61.5 23q-25 29 -24 70q0 66 64 112.5t142 65.5l-34 -111q-41 0 -70 -13.5t-29 -31.5q0 -4 20.5 -14.5t62.5 -11.5q78 -2 63 -64q-20 -94 -60.5 -125t-76.5 -31zM291 627q-49 -83 -49 -169 t40 -142q101 -143 523 -142q291 0 473 46t281 108l-109 915l129 152q23 -178 47 -396l62 -499q20 -164 65 -226q46 -57 141 -57h58v-217h-142q-156 0 -219 184q-272 -231 -874 -231q-340 0 -484 147q-90 96 -90 230q0 88 35 187t80 140zM827 1071q77 -42 115 -90l76 90 q37 -18 74.5 -51t56.5 -62q-49 -68 -109 -124q-61 66 -104 94q-27 -35 -86 -94q-76 80 -131 110q67 78 108 127zM918 1292q35 -18 73.5 -51t57.5 -61q-49 -68 -109 -125q-70 72 -131 110q62 66 109 127z" />
<glyph unicode="&#x6ad;" horiz-adv-x="718" arabic-form="initial" d="M424 348q0 -150 -59 -235q-74 -113 -244 -113h-156q-45 0 -76.5 31.5t-31.5 77t31.5 77t76.5 31.5h88q98 0 157.5 21.5t94.5 70.5q-35 80 -95 159t-122 124v-70q-68 51 -85 91t-17 138.5t6 144.5t46 82t118.5 80t222.5 114.5t195 98t124 75.5l-51 -232q-61 -41 -286 -143 t-255 -123q94 -72 171 -178q147 -204 147 -322zM219 1487q70 -39 115 -90l76 90q37 -18 74.5 -51t56.5 -62q-49 -68 -109 -125q-61 66 -104 94q-27 -35 -86 -94q-76 80 -131 111q67 78 108 127zM309 1708q35 -18 74 -51t57 -62q-49 -68 -108 -125q-70 72 -131 111 q61 66 108 127z" />
<glyph unicode="&#x6ad;" horiz-adv-x="913" arabic-form="medial" d="M913 217v-217h-147q-119 0 -189.5 51t-117.5 123q-39 -80 -111 -127t-162 -47h-221q-45 0 -76.5 31.5t-31.5 77t31.5 77t76.5 31.5h221q117 0 181 64q-118 194 -224 278v-37q-90 70 -98 140q-4 36 -4 119t11 125t46 76t104 72t263 133t289 159l-52 -232 q-33 -25 -216 -113.5t-226 -112.5t-100 -61q90 -70 161.5 -171t139 -207.5t107.5 -150.5q74 -81 212 -81h133zM281 1501q75 -41 114 -90l76 90q37 -18 75 -51t56 -61q-49 -68 -108 -125q-61 66 -105 94q-27 -35 -86 -94q-76 80 -131 110q68 78 109 127zM371 1722 q35 -18 73.5 -51t57.5 -61q-49 -68 -109 -125q-70 72 -131 110q62 66 109 127z" />
<glyph unicode="&#x6c7;" horiz-adv-x="720" arabic-form="final" d="M246 340q-45 0 -80 -48q-12 -16 -13 -25t12 -29.5t56 -20.5h137q-33 123 -112 123zM721 0h-205q-12 -229 -164 -338q-97 -65 -200 -65v-117h-7q-45 111 -145 104v215q174 4 263 56.5t126 144.5h-104q-115 0 -168 61q-39 41 -39 107l20 201q6 55 52.5 103t126 48t143 -86 t86.5 -217h215v-217zM285 938q-21 0 -31 -10v-4q-2 -2 -2 -11t18 -18l52 -29l2 27q0 45 -39 45zM193 870q0 34 12 50l43 65q23 31 51 31t43 -8q41 -23 41 -73t-12 -87l35 -17l-25 -92l-51 25q-73 -109 -262 -141l-17 10l60 88q65 3 139 48q24 15 31 19l-37 21q-51 27 -51 61 z" />
<glyph unicode="&#x6c6;" horiz-adv-x="720" arabic-form="final" d="M246 340q-45 0 -80 -48q-12 -16 -13 -25t12 -29.5t56 -20.5h137q-33 123 -112 123zM721 0h-205q-12 -229 -164 -338q-97 -65 -200 -65v-117h-7q-45 111 -145 104v215q174 4 263 56.5t126 144.5h-104q-115 0 -168 61q-39 41 -39 107l20 201q6 55 52.5 103t126 48t143 -86 t86.5 -217h215v-217zM373 879q-37 -31 -75 -108t-52 -148h-37q-8 55 -46 137t-81 119l31 73q37 -29 69.5 -91t44.5 -132q0 53 42 125.5t73 97.5z" />
<glyph unicode="&#x6c8;" horiz-adv-x="720" arabic-form="final" d="M246 340q-45 0 -80 -48q-12 -16 -13 -25t12 -29.5t56 -20.5h137q-33 123 -112 123zM721 0h-205q-12 -229 -164 -338q-97 -65 -200 -65v-117h-7q-45 111 -145 104v215q174 4 263 56.5t126 144.5h-104q-115 0 -168 61q-39 41 -39 107l20 201q6 55 52.5 103t126 48t143 -86 t86.5 -217h215v-217zM225 676q0 90 -45 141l43 74q35 -53 43 -82.5t8 -79t-20 -106.5h-37q8 24 8 53z" />
<glyph unicode="&#x6cb;" horiz-adv-x="720" arabic-form="final" d="M246 340q-45 0 -80 -48q-12 -16 -13 -25t12 -29.5t56 -20.5h137q-33 123 -112 123zM721 0h-205q-12 -229 -164 -338q-97 -65 -200 -65v-117h-7q-45 111 -145 104v215q174 4 263 56.5t126 144.5h-104q-115 0 -168 61q-39 41 -39 107l20 201q6 55 52.5 103t126 48t143 -86 t86.5 -217h215v-217zM119 860q75 -41 114 -90l76 90q37 -18 75 -51t56 -61q-49 -68 -108 -125q-61 66 -105 94q-27 -35 -86 -94q-76 80 -131 110q68 78 109 127zM209 1081q35 -18 74 -51t57 -61q-49 -68 -109 -125q-70 72 -131 110q62 66 109 127z" />
<glyph unicode="&#x6c5;" horiz-adv-x="720" arabic-form="final" d="M246 340q-45 0 -80 -48q-12 -16 -13 -25t12 -29.5t56 -20.5h137q-33 123 -112 123zM516 0q0 -23 -6 -53h20l-22 -25q-33 -170 -156 -260q-97 -65 -200 -65v-117h-7q-45 111 -145 104v215q174 4 268 60l19 12h-127l-15 14l74 62h143q14 25 27 53h-104q-115 0 -168 61 q-39 41 -39 107l20 201q6 55 52.5 103t126 48t143 -86t86.5 -217h215v-217h-205z" />
<glyph unicode="&#x6c9;" horiz-adv-x="720" arabic-form="final" d="M246 340q-45 0 -80 -48q-12 -16 -13 -25t12 -29.5t56 -20.5h137q-33 123 -112 123zM721 0h-205q-12 -229 -164 -338q-97 -65 -200 -65v-117h-7q-45 111 -145 104v215q174 4 263 56.5t126 144.5h-104q-115 0 -168 61q-39 41 -39 107l20 201q6 55 52.5 103t126 48t143 -86 t86.5 -217h215v-217zM342 623q-31 25 -73 97t-42 126q-12 -70 -45 -132.5t-69 -90.5l-31 73q43 37 81 119t46 137h37q14 -72 52 -148.5t75 -107.5z" />
<glyph unicode="&#x6d0;" horiz-adv-x="1288" arabic-form="final" d="M797 0h-70l-22 43l53 174h530v-217h-241q30 -30 30 -92t-55 -132.5t-191 -130t-257 -59.5q-225 0 -328 120t-103 302q0 232 117 375l33 -33q-68 -84 -68 -211.5t62 -199.5q92 -119 301 -119q261 0 373 110q-46 70 -164 70zM684 -831q-49 -68 -109 -125q-76 80 -131 110 q70 76 109 125q-55 55 -109 88q63 63 109 127q37 -20 75 -53t56 -59q-37 -55 -100 -119q69 -47 100 -94z" />
<glyph unicode="&#x6d0;" horiz-adv-x="479" arabic-form="initial" d="M356 303v-63q0 -154 -164 -218q-58 -22 -96 -22h-131q-45 0 -76.5 31.5t-31.5 77t31.5 77t76.5 31.5h115q141 0 196 51q-31 111 -153 172l59 217q174 -120 174 -354zM186 -438q-49 -68 -108 -125q-76 80 -131 110q70 76 108 125q-55 55 -108 88q63 63 108 127 q37 -20 75 -53t56 -59q-37 -55 -100 -119q69 -47 100 -94z" />
<glyph unicode="&#x6d0;" horiz-adv-x="565" arabic-form="medial" d="M565 217v-217h-96q-142 0 -188 113q-6 -31 -54 -72t-161 -41h-101q-45 0 -76.5 31.5t-31.5 77t31.5 77t76.5 31.5h139q84 0 121.5 34t48.5 62.5t17 63.5l31 -17q-12 -143 155 -143h88zM152 -436q-49 -68 -109 -125q-76 80 -131 110q70 76 108 125q-55 55 -108 88 q63 63 108 127q37 -20 75 -53t57 -59q-37 -55 -101 -119q70 -47 101 -94z" />
<glyph unicode="&#x649;" horiz-adv-x="479" arabic-form="initial" d="M356 303v-63q0 -154 -164 -218q-58 -22 -96 -22h-131q-45 0 -76.5 31.5t-31.5 77t31.5 77t76.5 31.5h115q141 0 196 51q-31 111 -153 172l59 217q174 -120 174 -354z" />
<glyph unicode="&#x649;" horiz-adv-x="565" arabic-form="medial" d="M565 217v-217h-96q-142 0 -188 113q-6 -31 -54 -72t-161 -41h-101q-45 0 -76.5 31.5t-31.5 77t31.5 77t76.5 31.5h139q84 0 121.5 34t48.5 62.5t17 63.5l31 -17q-12 -143 155 -143h88z" />
<glyph unicode="&#x6cc;" horiz-adv-x="1288" arabic-form="final" d="M797 0h-70l-22 43l53 174h530v-217h-241q30 -30 30 -92t-55 -132.5t-191 -130t-257 -59.5q-225 0 -328 120t-103 302q0 232 117 375l33 -33q-68 -84 -68 -211.5t62 -199.5q92 -119 301 -119q261 0 373 110q-46 70 -164 70z" />
<glyph unicode="&#x6cc;" horiz-adv-x="479" arabic-form="initial" d="M356 303v-63q0 -154 -164 -218q-58 -22 -96 -22h-131q-45 0 -76.5 31.5t-31.5 77t31.5 77t76.5 31.5h115q141 0 196 51q-31 111 -153 172l59 217q174 -120 174 -354zM-37 -113q63 -33 113 -90q55 59 76 90q37 -18 74.5 -51t56.5 -61q-49 -68 -109 -125q-53 55 -104 94 q-35 -45 -84 -94q-84 84 -131 110q85 96 108 127z" />
<glyph unicode="&#x6cc;" horiz-adv-x="565" arabic-form="medial" d="M565 217v-217h-96q-142 0 -188 113q-6 -31 -54 -72t-161 -41h-101q-45 0 -76.5 31.5t-31.5 77t31.5 77t76.5 31.5h139q84 0 121.5 34t48.5 62.5t17 63.5l31 -17q-12 -143 155 -143h88zM-72 -111q63 -33 113 -90q55 59 76 90q37 -18 74.5 -51t56.5 -61q-49 -68 -109 -125 q-53 55 -104 94q-35 -45 -84 -94q-84 84 -131 110q85 96 108 127z" />
<glyph unicode="&#xfc5b;" horiz-adv-x="796" arabic-form="isolated" d="M360 197q146 0 238 18q-89 133 -205 199q-49 28 -76 30l-22 -36l-51 24q-25 12 -42.5 39t-8.5 47l77 172q12 -12 92 -45t146.5 -78t116 -120.5t49.5 -174.5q0 -139 -99 -213.5t-247 -74.5q-225 0 -226 190q0 31 2 64.5t2 46.5q59 -88 254 -88zM347 966.5 q38 -32.5 56 -61.5q-44 -66 -106 -125q-84 84 -131 111q86 98 108 127q35 -19 73 -51.5zM332 1224.5q0 -66.5 -21 -124.5h-37q9 24 9 53q0 88 -45 141l43 74q51 -77 51 -143.5z" />
<glyph unicode="&#xfc5c;" horiz-adv-x="612" arabic-form="isolated" d="M70 -406v-116h-7q-14 43 -48.5 75.5t-96.5 28.5v215q219 5 309 60q130 75 148 237q-39 45 -90.5 82t-73 53.5t-21.5 38.5t5 31l65 166q113 -61 171 -173t58 -239t-50 -233q-83 -174 -253 -210q-72 -16 -116 -16zM299 690q0 -67 -20 -125h-37q8 24 8 53q0 91 -45 142 l43 74q51 -77 51 -144z" />
<glyph unicode="&#xfc5d;" horiz-adv-x="1222" arabic-form="isolated" d="M143 14q0 89 33 191t84 157l33 -12q-4 -10 -36 -79t-32 -154q0 -133 104.5 -205t242.5 -72t218 26.5t123 53.5t72 72q-2 14 -36 21t-93 14l-47 6q-191 26 -191 171.5t97 287.5q111 165 251 165q71 0 112.5 -53t41.5 -128t-30 -128l-50 -16q2 72 -18.5 101.5t-74.5 29.5 t-102 -36t-114 -112q0 -39 35 -52t135 -28t148.5 -52.5t48.5 -104t-39 -205.5q-24 -91 -185 -176q-155 -88 -284 -88q-239 0 -343 114t-104 291zM510 585.5q0 -66.5 -21 -124.5h-36q8 24 8 53q0 90 -45 141l43 74q51 -77 51 -143.5z" />
<glyph unicode="&#xfc90;" horiz-adv-x="1288" arabic-form="final" d="M797 0h-70l-22 43l53 174h530v-217h-241q30 -30 30 -92t-55 -132.5t-191 -130t-257 -59.5q-225 0 -328 120t-103 302q0 232 117 375l33 -33q-68 -84 -68 -211.5t62 -199.5q92 -119 301 -119q261 0 373 110q-46 70 -164 70zM567 424q0 90 -45 141l43 74q35 -53 43 -82.5 t8 -79t-20 -106.5h-37q8 24 8 53z" />
<glyph unicode="&#xfcd9;" horiz-adv-x="888" arabic-form="initial" d="M514 352q0 -55 -35 -108q86 -47 137 -72q24 0 44 26.5t24 63.5q-36 106 -197 213q27 -68 27 -123zM313 508q-72 0 -120 -80q10 -31 43.5 -55.5t113.5 -61.5q51 39 82 90q-8 49 -45 78t-74 29zM274 684v121q17 -39 185 -131q66 -35 79 -45.5t56 -40.5q172 -118 172 -324 q0 -148 -74 -231q-43 -53 -96 -53q-156 96 -215 114q-61 -53 -140.5 -73.5t-224.5 -20.5h-51q-45 0 -76.5 31.5t-31.5 76t31.5 77t76.5 32.5h103q59 0 102 12q-51 57 -51 133.5t46 151t128 107.5q-19 25 -19 63zM383 1032q0 -67 -21 -125h-36q8 25 8 54q0 90 -45 141l43 74 q51 -77 51 -144z" />
<glyph unicode="&#xfd3c;" horiz-adv-x="468" arabic-form="final" d="M469 217v-217h-109q-119 0 -189.5 70t-70.5 213q-4 563 -40 713q-16 70 -19 87q88 93 131 168h27l12 -319l8 -273l2 -59q6 -150 8 -186q0 -195 117 -197h123zM31 1389l297 116l-54 -100l-286 -113l-15 11zM31 1542l297 117l-54 -100l-286 -113l-15 10z" />
<glyph unicode="&#xfd3d;" horiz-adv-x="346" arabic-form="isolated" d="M88 748q-27 189 -27 250t37 112l99 141l67 -211l-45 11l12 -146q33 -356 33 -510.5t-7 -212t-24.5 -90.5t-37 -58.5t-25.5 -33.5h-23l3 86q0 250 -62 662zM35 1389l297 116l-53 -100l-287 -113l-15 11zM35 1542l297 117l-53 -100l-287 -113l-15 10z" />
<glyph unicode="&#xfdfc;" horiz-adv-x="2379" arabic-form="isolated" d="M1296 -117q63 -33 113 -90q55 59 76 90q37 -18 75 -51t56 -61q-49 -68 -109 -125q-53 55 -104 94q-35 -45 -84 -94q-84 84 -131 110q85 96 108 127zM1958 268q0 22 4 31l66 166q113 -61 171 -173t58 -239t-50 -232q-49 -105 -115 -151q-105 -73 -255 -76v-116h-6 q-14 43 -49 76t-96 28v215q219 5 309 60q129 74 147 237q-39 45 -90 82q-50 38 -72 54t-22 38zM1843 303v-63q0 -98 -69 -160q-36 -36 -94 -58t-97 -22h-149q-127 0 -193 74q-66 68 -67 209q-8 461 -16 625t-25 237q-16 74 -19 82q94 105 131 168h27q2 -31 5 -119t5 -141 l12 -332q0 -225 6 -358t34 -181t85 -47h148q138 0 196 51q-31 111 -153 172l59 217q174 -120 174 -354zM223 246q-1 -142 103 -215q104 -72 246 -72q246 0 341 125q-44 791 -118 1077l-31 29q0 63 16 115q29 82 99 92q33 -76 57 -112t72 -73q-29 -33 -38 -49q-9 -15 -9 -39 t9 -135t60 -839q6 -90 -32 -178t-107 -148q-125 -106 -324 -106t-311 105q-112 106 -113 290q0 99 32 197t85 163l33 -33q-27 -31 -49 -86t-21 -108z" />
<glyph unicode="&#x622;" horiz-adv-x="468" arabic-form="final" d="M469 217v-217h-109q-119 0 -189.5 70t-70.5 213q-4 563 -40 713q-16 70 -19 87q88 93 131 168h27l12 -319l8 -273l2 -59q6 -150 8 -186q0 -195 117 -197h123zM180 1493q140 0 275 111l20 -19q-51 -109 -133 -172q-96 -70 -190.5 -70t-171.5 33l-37 -84l-6 2 q0 111 -113 174l53 125q35 -35 126 -67.5t177 -32.5z" />
<glyph unicode="&#x623;" horiz-adv-x="468" arabic-form="final" d="M469 217v-217h-109q-119 0 -189.5 70t-70.5 213q-4 563 -40 713q-16 70 -19 87q88 93 131 168h27l12 -319l8 -273l2 -59q6 -150 8 -186q0 -195 117 -197h123zM35 1464q0 10 6 23q86 112 156 112q48 -1 68 -53q7 -18 7 -24l-47 -43q-20 39 -48 39t-50.5 -15.5t-24.5 -15.5 q39 -63 111 -78q60 15 117 23l-31 -80q-184 -31 -315 -99l-15 11l58 86q16 8 35.5 13t31.5 11q-59 30 -59 90z" />
<glyph unicode="&#x624;" horiz-adv-x="720" arabic-form="final" d="M246 340q-45 0 -80 -48q-12 -16 -13 -25t12 -29.5t56 -20.5h137q-33 123 -112 123zM721 0h-205q-12 -229 -164 -338q-97 -65 -200 -65v-117h-7q-45 111 -145 104v215q174 4 263 56.5t126 144.5h-104q-115 0 -168 61q-39 41 -39 107l20 201q6 55 52.5 103t126 48t143 -86 t86.5 -217h215v-217zM113 795q0 10 6 22q87 113 145 113q37 0 61.5 -24.5t24.5 -53.5l-47 -43q-20 39 -48 39t-50.5 -15.5t-24.5 -15.5q39 -63 111 -78q60 15 117 23l-31 -80q-184 -31 -316 -98l-14 10l57 86q16 8 36 13t32 12q-59 30 -59 90z" />
<glyph unicode="&#x625;" horiz-adv-x="468" arabic-form="final" d="M469 217v-217h-109q-127 0 -192 74q-66 68 -68 209q-8 461 -16.5 634.5t-42.5 309.5q94 104 131 168h27q2 -31 5 -119t5 -141l12 -332q0 -205 6 -348t34 -190.5t85 -47.5h123zM70 -217q0 10 6 22q87 113 145 113q37 0 61.5 -24.5t24.5 -53.5l-47 -43q-20 39 -48 39 t-50.5 -15.5t-24.5 -15.5q39 -63 111 -77q60 14 117 22l-31 -80q-184 -31 -316 -98l-14 10l57 86q16 8 36 13.5t32 11.5q-59 30 -59 90z" />
<glyph unicode="&#x626;" horiz-adv-x="1288" arabic-form="final" d="M797 0h-70l-22 43l53 174h530v-217h-241q30 -30 30 -92t-55 -132.5t-191 -130t-257 -59.5q-225 0 -328 120t-103 302q0 232 117 375l33 -33q-68 -84 -68 -211.5t62 -199.5q92 -119 301 -119q261 0 373 110q-46 70 -164 70zM455 543q0 10 6 22q87 113 145 113 q37 0 61.5 -24.5t24.5 -53.5l-47 -43q-20 39 -48 39t-50.5 -15.5t-24.5 -15.5q39 -63 111 -78q60 15 117 23l-31 -80q-184 -31 -316 -98l-14 10l57 86q16 8 36 13t32 12q-59 30 -59 90z" />
<glyph unicode="&#x626;" horiz-adv-x="479" arabic-form="initial" d="M356 303v-63q0 -154 -164 -218q-58 -22 -96 -22h-131q-45 0 -76.5 31.5t-31.5 77t31.5 77t76.5 31.5h115q141 0 196 51q-31 111 -153 172l59 217q174 -120 174 -354zM-86 827q0 10 6 23q87 113 156 113q46 1 68 -53q8 -18 8 -25l-48 -43q-20 39 -48 39t-50 -15.5 t-24 -15.5q39 -63 110 -78q60 15 117 23l-31 -80q-184 -31 -315 -99l-15 11l58 86q16 8 35.5 13t31.5 11q-59 30 -59 90z" />
<glyph unicode="&#x626;" horiz-adv-x="565" arabic-form="medial" d="M565 217v-217h-96q-142 0 -188 113q-6 -31 -54 -72t-161 -41h-101q-45 0 -76.5 31.5t-31.5 77t31.5 77t76.5 31.5h139q84 0 121.5 34t48.5 62.5t17 63.5l31 -17q-12 -143 155 -143h88zM-57 606q0 10 6 23q86 112 155 112q27 0 51.5 -24t24.5 -53l-47 -43q-19 38 -47.5 38 t-51 -15t-24.5 -15q39 -63 111 -78q60 14 117 22l-31 -79q-184 -31 -316 -99l-14 11l57 86q16 8 36 13t32 11q-59 30 -59 90z" />
<glyph unicode="&#x627;" horiz-adv-x="468" arabic-form="final" d="M469 217v-217h-109q-127 0 -192 74q-66 68 -68 209q-8 461 -16 634t-43 310q94 104 131 168h27q2 -31 5 -119t5 -141l12 -332q0 -205 6 -348t34 -190.5t85 -47.5h123z" />
<glyph unicode="&#x628;" horiz-adv-x="1828" arabic-form="final" d="M1628 303q0 -86 117 -86h84v-217h-82q-98 0 -150.5 45t-54.5 113q-112 -92 -311 -142q-275 -67 -518 -67q-332 0 -482 139q-108 97 -108 244q0 86 36 185t79 140l32 -30q-49 -92 -49 -174.5t40 -136.5q107 -144 542 -144q244 0 478 42t335 144l18 -14q-6 -25 -6 -41z M941 -225.5q38 -32.5 56 -61.5q-44 -66 -106 -125q-84 84 -131 111q86 98 108 127q35 -19 73 -51.5z" />
<glyph unicode="&#x628;" horiz-adv-x="479" arabic-form="initial" d="M356 303v-63q0 -154 -164 -218q-58 -22 -96 -22h-131q-45 0 -76.5 31.5t-31.5 77t31.5 77t76.5 31.5h115q141 0 196 51q-31 111 -153 172l59 217q174 -120 174 -354zM130 -164q38 -33 56 -61q-44 -66 -106 -125q-84 84 -131 110q86 98 108 127q35 -18 73 -51z" />
<glyph unicode="&#x628;" horiz-adv-x="565" arabic-form="medial" d="M565 217v-217h-96q-142 0 -188 113q-6 -31 -54 -72t-161 -41h-101q-45 0 -76.5 31.5t-31.5 77t31.5 77t76.5 31.5h139q84 0 121.5 34t48.5 62.5t17 63.5l31 -17q-12 -143 155 -143h88zM95 -162q38 -33 57 -61q-43 -64 -107 -125q-84 84 -131 110q86 98 109 127 q34 -18 72 -51z" />
<glyph unicode="&#x629;" horiz-adv-x="827" arabic-form="final" d="M252 399h96q47 0 65.5 5.5t37.5 25.5l-33 164l-47 -64q-123 -18 -172 -102q16 -29 53 -29zM827 217v-217h-106q-109 0 -154 48t-63 128l-31 148l-65 -117l-146 -2q-39 0 -79 38t-40 64v158q0 80 62 127q33 27 98.5 50.5t95.5 45.5q-4 51 17.5 84t68.5 70l107 -471 q32 -126 88 -146q22 -8 51 -8h96zM217 1130q63 -33 113 -90q55 59 76 90q37 -18 74.5 -50.5t56.5 -61.5q-49 -68 -109 -125q-53 55 -104 94q-35 -45 -84 -94q-84 84 -131 111q85 95 108 126z" />
<glyph unicode="&#x62a;" horiz-adv-x="1828" arabic-form="final" d="M1628 303q0 -86 117 -86h84v-217h-82q-98 0 -150.5 45t-54.5 113q-112 -92 -311 -142q-275 -67 -518 -67q-332 0 -482 139q-108 97 -108 244q0 86 36 185t79 140l32 -30q-49 -92 -49 -174.5t40 -136.5q107 -144 542 -144q244 0 478 42t335 144l18 -14q-6 -25 -6 -41z M801 727q63 -33 112 -90q55 59 76 90q37 -18 75 -51t56 -62q-49 -68 -108 -125q-53 55 -105 95q-35 -45 -84 -95q-84 84 -131 111q86 96 109 127z" />
<glyph unicode="&#x62a;" horiz-adv-x="479" arabic-form="initial" d="M356 303v-63q0 -154 -164 -218q-58 -22 -96 -22h-131q-45 0 -76.5 31.5t-31.5 77t31.5 77t76.5 31.5h115q141 0 196 51q-31 111 -153 172l59 217q174 -120 174 -354zM-109 893q63 -33 113 -90q55 59 76 90q37 -18 75 -51t56 -62q-49 -68 -109 -125q-53 55 -104 95 q-35 -45 -84 -95q-84 84 -131 111q85 96 108 127z" />
<glyph unicode="&#x62a;" horiz-adv-x="565" arabic-form="medial" d="M565 217v-217h-96q-142 0 -188 113q-6 -31 -54 -72t-161 -41h-101q-45 0 -76.5 31.5t-31.5 77t31.5 77t76.5 31.5h139q84 0 121.5 34t48.5 62.5t17 63.5l31 -17q-12 -143 155 -143h88zM-47 672q63 -33 113 -90q55 59 75 90q37 -18 75 -51t56 -62q-49 -68 -108 -125 q-53 55 -105 94q-35 -45 -84 -94q-84 84 -131 111q86 96 109 127z" />
<glyph unicode="&#x62b;" horiz-adv-x="1828" arabic-form="final" d="M1628 303q0 -86 117 -86h84v-217h-82q-98 0 -150.5 45t-54.5 113q-112 -92 -311 -142q-275 -67 -518 -67q-332 0 -482 139q-108 97 -108 244q0 86 36 185t79 140l32 -30q-49 -92 -49 -174.5t40 -136.5q107 -144 542 -144q244 0 478 42t335 144l18 -14q-6 -25 -6 -41z M799 727q75 -41 114 -90l76 90q37 -18 75 -51t56 -62q-49 -68 -108 -125q-61 66 -105 95q-27 -35 -86 -95q-76 80 -131 111q68 78 109 127zM889 948q35 -18 73.5 -51t57.5 -61q-49 -68 -109 -125q-70 72 -131 110q62 66 109 127z" />
<glyph unicode="&#x62b;" horiz-adv-x="479" arabic-form="initial" d="M356 303v-63q0 -154 -164 -218q-58 -22 -96 -22h-131q-45 0 -76.5 31.5t-31.5 77t31.5 77t76.5 31.5h115q141 0 196 51q-31 111 -153 172l59 217q174 -120 174 -354zM-111 893q74 -41 115 -90l76 90q37 -18 75 -51t56 -62q-49 -68 -109 -125q-61 66 -104 95 q-27 -35 -86 -95q-76 80 -131 111q67 78 108 127zM-20 1114q35 -18 73.5 -51t57.5 -62q-49 -68 -109 -124q-70 72 -131 110q62 66 109 127z" />
<glyph unicode="&#x62b;" horiz-adv-x="565" arabic-form="medial" d="M565 217v-217h-96q-142 0 -188 113q-6 -31 -54 -72t-161 -41h-101q-45 0 -76.5 31.5t-31.5 77t31.5 77t76.5 31.5h139q84 0 121.5 34t48.5 62.5t17 63.5l31 -17q-12 -143 155 -143h88zM-49 672q70 -39 115 -90l75 90q37 -18 75 -51t56 -62q-49 -68 -108 -125 q-61 66 -105 94q-27 -35 -86 -94q-76 80 -131 111q68 78 109 127zM41 893q35 -18 74 -51t57 -62q-49 -68 -109 -125q-70 72 -131 111q62 66 109 127z" />
<glyph unicode="&#x62c;" horiz-adv-x="1245" arabic-form="final" d="M359.5 502q-41.5 0 -76.5 -18.5t-45 -41.5q92 -72 139 -149q102 98 266 164q-46 5 -144 25t-139.5 20zM160 457q0 86 47 145q66 84 170 84q63 0 217.5 -39t219.5 -50t140 -13l76 -2l-78 -205h-32q-6 -90 47 -125t172 -35h106v-217h-115q-224 0 -282 174 q-18 53 -17.5 105.5t11.5 89.5q-72 -6 -156 -33q-154 -47 -272 -139q4 -25 4 -43t-12 -48q-12 38 -29 54q-53 -53 -89 -132t-36 -170t51 -175t141 -140q152 -94 373 -94h195l-178 -207h-119q-272 0 -412 133q-70 66 -115 176.5t-45 246.5t47.5 247t120.5 188 q-55 55 -151 127v97zM703.5 -45q37.5 -33 56.5 -61q-45 -68 -107 -125q-84 84 -131 110q86 96 109 127q35 -18 72.5 -51z" />
<glyph unicode="&#x62c;" horiz-adv-x="1122" arabic-form="initial" d="M209 412q-94 0 -133 -72q61 -68 98 -123q137 2 214 26.5t147 63.5q-74 42 -171.5 73.5t-154.5 31.5zM817 223q-86 0 -179 -38t-195 -89t-185 -76q0 -4 2 -42.5t-18 -81.5q-10 53 -43 114q-66 -10 -133 -10h-101q-45 0 -76.5 31.5t-31.5 77t31.5 77t76.5 31.5h101l-66 96 v68q0 90 63.5 153.5t167.5 63.5q55 0 111.5 -17.5t149.5 -54.5l94 -37q197 -72 364 -71h49l-106 -195h-76zM488.5 -162q37.5 -33 56.5 -61q-43 -64 -107 -125q-84 84 -131 110q86 98 109 127q35 -18 72.5 -51z" />
<glyph unicode="&#x62c;" horiz-adv-x="1138" arabic-form="medial" d="M1139 217v-217h-131q-100 0 -171 24.5t-106 106.5q-20 43 -20 83t6 71q-55 -18 -94 -47l-39 -29q-252 -209 -496 -209h-123q-45 0 -76.5 31.5t-31.5 75.5t31.5 77t76.5 33h119q214 0 385 107l57 28l-295 49l-16 2q-31 0 -43 -24v-51l-22 -11q-40 65 -98 79q-20 5 -27 5 q4 10 19 51.5t40 90.5q12 20 70.5 38.5t107.5 18.5t109.5 -19.5t95.5 -31.5t123 -35t280 -31l88 -2l-98 -182q-20 4 -32.5 4t-36.5 -4q16 -41 63 -61.5t156 -20.5h129zM275.5 -164q37.5 -33 56.5 -61q-43 -64 -107 -125q-84 84 -131 110q86 98 109 127q35 -18 72.5 -51z" />
<glyph unicode="&#x62d;" horiz-adv-x="1245" arabic-form="final" d="M359.5 502q-41.5 0 -76.5 -18.5t-45 -41.5q92 -72 139 -149q102 98 266 164q-46 5 -144 25t-139.5 20zM160 457q0 86 47 145q66 84 170 84q63 0 217.5 -39t219.5 -50t140 -13l76 -2l-78 -205h-32q-6 -90 47 -125t172 -35h106v-217h-115q-224 0 -282 174 q-18 53 -17.5 105.5t11.5 89.5q-72 -6 -156 -33q-154 -47 -272 -139q4 -25 4 -43t-12 -48q-12 38 -29 54q-53 -53 -89 -132t-36 -170t51 -175t141 -140q152 -94 373 -94h195l-178 -207h-119q-272 0 -412 133q-70 66 -115 176.5t-45 246.5t47.5 247t120.5 188 q-55 55 -151 127v97z" />
<glyph unicode="&#x62d;" horiz-adv-x="1122" arabic-form="initial" d="M209 412q-94 0 -133 -72q61 -68 98 -123q137 2 214 26.5t147 63.5q-74 42 -171.5 73.5t-154.5 31.5zM817 223q-86 0 -179 -38t-195 -89t-185 -76q0 -4 2 -42.5t-18 -81.5q-10 53 -43 114q-66 -10 -133 -10h-101q-45 0 -76.5 31.5t-31.5 77t31.5 77t76.5 31.5h101l-66 96 v68q0 90 63.5 153.5t167.5 63.5q55 0 111.5 -17.5t149.5 -54.5l94 -37q197 -72 364 -71h49l-106 -195h-76z" />
<glyph unicode="&#x62d;" horiz-adv-x="1138" arabic-form="medial" d="M1139 217v-217h-131q-100 0 -171 24.5t-106 106.5q-20 43 -20 83t6 71q-55 -18 -94 -47l-39 -29q-252 -209 -496 -209h-123q-45 0 -76.5 31.5t-31.5 75.5t31.5 77t76.5 33h119q214 0 385 107l57 28l-295 49l-16 2q-31 0 -43 -24v-51l-22 -11q-40 65 -98 79q-20 5 -27 5 q4 10 19 51.5t40 90.5q12 20 70.5 38.5t107.5 18.5t109.5 -19.5t95.5 -31.5t123 -35t280 -31l88 -2l-98 -182q-20 4 -32.5 4t-36.5 -4q16 -41 63 -61.5t156 -20.5h129z" />
<glyph unicode="&#x62e;" horiz-adv-x="1245" arabic-form="final" d="M359.5 502q-41.5 0 -76.5 -18.5t-45 -41.5q92 -72 139 -149q102 98 266 164q-46 5 -144 25t-139.5 20zM160 457q0 86 47 145q66 84 170 84q63 0 217.5 -39t219.5 -50t140 -13l76 -2l-78 -205h-32q-6 -90 47 -125t172 -35h106v-217h-115q-224 0 -282 174 q-18 53 -17.5 105.5t11.5 89.5q-72 -6 -156 -33q-154 -47 -272 -139q4 -25 4 -43t-12 -48q-12 38 -29 54q-53 -53 -89 -132t-36 -170t51 -175t141 -140q152 -94 373 -94h195l-178 -207h-119q-272 0 -412 133q-70 66 -115 176.5t-45 246.5t47.5 247t120.5 188 q-55 55 -151 127v97zM605 962.5q38 -32.5 57 -61.5q-43 -64 -107 -125q-84 84 -131 111q86 98 108 127q35 -19 73 -51.5z" />
<glyph unicode="&#x62e;" horiz-adv-x="1122" arabic-form="initial" d="M209 412q-94 0 -133 -72q61 -68 98 -123q137 2 214 26.5t147 63.5q-74 42 -171.5 73.5t-154.5 31.5zM817 223q-86 0 -179 -38t-195 -89t-185 -76q0 -4 2 -42.5t-18 -81.5q-10 53 -43 114q-66 -10 -133 -10h-101q-45 0 -76.5 31.5t-31.5 77t31.5 77t76.5 31.5h101l-66 96 v68q0 90 63.5 153.5t167.5 63.5q55 0 111.5 -17.5t149.5 -54.5l94 -37q197 -72 364 -71h49l-106 -195h-76zM281.5 907q37.5 -33 56.5 -61q-43 -64 -107 -125q-84 84 -131 110q86 98 109 127q35 -18 72.5 -51z" />
<glyph unicode="&#x62e;" horiz-adv-x="1138" arabic-form="medial" d="M1139 217v-217h-131q-100 0 -171 24.5t-106 106.5q-20 43 -20 83t6 71q-55 -18 -94 -47l-39 -29q-252 -209 -496 -209h-123q-45 0 -76.5 31.5t-31.5 75.5t31.5 77t76.5 33h119q214 0 385 107l57 28l-295 49l-16 2q-31 0 -43 -24v-51l-22 -11q-40 65 -98 79q-20 5 -27 5 q4 10 19 51.5t40 90.5q12 20 70.5 38.5t107.5 18.5t109.5 -19.5t95.5 -31.5t123 -35t280 -31l88 -2l-98 -182q-20 4 -32.5 4t-36.5 -4q16 -41 63 -61.5t156 -20.5h129zM357 915.5q38 -32.5 57 -61.5q-43 -64 -107 -125q-84 84 -131 111q86 98 109 127q34 -19 72 -51.5z" />
<glyph unicode="&#x62f;" horiz-adv-x="907" arabic-form="final" d="M109 285q59 -86 207 -86q70 0 138 20t99 45q-33 70 -54 177.5t-22 174.5l72 109q41 -224 100 -342q84 -166 215 -166h43v-217h-53q-80 0 -154 49q-61 43 -98 109q-18 -78 -89 -126t-197 -48t-177 59q-37 39 -37 95q0 112 7 147z" />
<glyph unicode="&#x630;" horiz-adv-x="907" arabic-form="final" d="M109 285q59 -86 207 -86q70 0 138 20t99 45q-33 70 -54 177.5t-22 174.5l72 109q41 -224 100 -342q84 -166 215 -166h43v-217h-53q-80 0 -154 49q-61 43 -98 109q-18 -78 -89 -126t-197 -48t-177 59q-37 39 -37 95q0 112 7 147zM482 956.5q38 -32.5 57 -61.5 q-43 -64 -107 -125q-84 84 -131 111q86 98 109 127q34 -19 72 -51.5z" />
<glyph unicode="&#x631;" horiz-adv-x="706" arabic-form="final" d="M707 217v-217h-111q-78 0 -113 14q8 -181 -106 -300.5t-307 -119.5v-116h-7q-14 43 -48.5 75.5t-96.5 28.5v215q409 12 447 289q-33 31 -50.5 87t-15.5 88.5t6 70.5l35 33q35 -80 85 -114t126 -34h156z" />
<glyph unicode="&#x632;" horiz-adv-x="706" arabic-form="final" d="M707 217v-217h-111q-78 0 -113 14q8 -181 -106 -300.5t-307 -119.5v-116h-7q-14 43 -48.5 75.5t-96.5 28.5v215q409 12 447 289q-33 31 -50.5 87t-15.5 88.5t6 70.5l35 33q35 -80 85 -114t126 -34h156zM277.5 647q37.5 -33 56.5 -61q-43 -64 -107 -125q-84 84 -131 110 q86 98 109 127q35 -18 72.5 -51z" />
<glyph unicode="&#x633;" horiz-adv-x="1867" arabic-form="final" d="M831 365q49 -136 189 -136q114 0 174 56q29 31 40 65.5t17 89.5l31 -16q8 -193 162 -195q139 0 139 211l29 -16q4 -76 37 -129q49 -78 151 -78h68v-217h-60q-141 0 -202 137q-6 -53 -48 -89t-118 -36t-119 41t-53 103q-16 -70 -81.5 -108t-160.5 -38l4 -76 q-2 -199 -131 -313q-130 -108 -331.5 -108t-309.5 104q-115 107 -115 305q0 92 32 189.5t85 156.5l33 -32q-70 -93 -70 -218q0 -41 23.5 -95t87.5 -99q94 -70 254 -70q98 0 183 28t130 77t57 90l-108 133q-59 80 -59 190q0 33 8 60z" />
<glyph unicode="&#x633;" horiz-adv-x="1161" arabic-form="initial" d="M1038 317q0 -89 -28 -139q-90 -166 -144 -166q-84 0 -133 37t-80 105q-16 -66 -73.5 -105t-148.5 -39q-143 0 -200 146q-9 -56 -63 -101q-59 -55 -148 -55h-55q-45 0 -76.5 29.5t-31.5 77.5t31.5 79t76.5 31h45q109 0 161 66.5t52 154.5l31 -14q0 -74 31 -123 q51 -74 150 -74q191 0 204 211l31 -14q9 -191 198 -191l35 3q2 57 -35 170l109 141q61 -61 61 -230z" />
<glyph unicode="&#x633;" horiz-adv-x="1255" arabic-form="medial" d="M1186 217h69v-217h-61q-141 0 -201 137q-8 -59 -53 -92t-123 -33t-127 62q-20 29 -37 84q-12 -70 -63 -111q-53 -47 -141.5 -47t-153.5 57q-35 33 -64 101q-10 -57 -67 -107.5t-144 -50.5h-55q-45 0 -76.5 31.5t-31.5 77t31.5 77t76.5 31.5h47q111 0 161 66.5t50 156.5 l31 -16q0 -78 37 -131q49 -63 139 -63.5t133 36.5q76 58 76 174l31 -16q7 -195 161 -195q140 0 140 211l28 -16q4 -66 31 -121q51 -86 156 -86z" />
<glyph unicode="&#x634;" horiz-adv-x="1867" arabic-form="final" d="M831 365q49 -136 189 -136q114 0 174 56q29 31 40 65.5t17 89.5l31 -16q8 -193 162 -195q139 0 139 211l29 -16q4 -76 37 -129q49 -78 151 -78h68v-217h-60q-141 0 -202 137q-6 -53 -48 -89t-118 -36t-119 41t-53 103q-16 -70 -81.5 -108t-160.5 -38l4 -76 q-2 -199 -131 -313q-130 -108 -331.5 -108t-309.5 104q-115 107 -115 305q0 92 32 189.5t85 156.5l33 -32q-70 -93 -70 -218q0 -41 23.5 -95t87.5 -99q94 -70 254 -70q98 0 183 28t130 77t57 90l-108 133q-59 80 -59 190q0 33 8 60zM1139 791q74 -41 114 -91l76 91 q37 -18 75 -51t56 -62q-49 -68 -108 -125q-61 66 -105 94q-27 -35 -86 -94q-76 80 -131 111q68 78 109 127zM1229 1012q35 -18 73.5 -51t57.5 -62q-49 -68 -109 -125q-70 72 -131 111q62 66 109 127z" />
<glyph unicode="&#x634;" horiz-adv-x="1161" arabic-form="initial" d="M1038 317q0 -89 -28 -139q-90 -166 -144 -166q-84 0 -133 37t-80 105q-16 -66 -73.5 -105t-148.5 -39q-143 0 -200 146q-9 -56 -63 -101q-59 -55 -148 -55h-55q-45 0 -76.5 29.5t-31.5 77.5t31.5 79t76.5 31h45q109 0 161 66.5t52 154.5l31 -14q0 -74 31 -123 q51 -74 150 -74q191 0 204 211l31 -14q9 -191 198 -191l35 3q2 57 -35 170l109 141q61 -61 61 -230zM532 793q76 -42 115 -91l76 91q37 -18 75 -51t56 -62q-49 -68 -109 -125q-61 66 -104 94q-27 -35 -86 -94q-76 80 -131 111q67 78 108 127zM623 1014q35 -18 73.5 -51 t57.5 -62q-49 -68 -109 -125q-70 72 -131 111q62 66 109 127z" />
<glyph unicode="&#x634;" horiz-adv-x="1255" arabic-form="medial" d="M1186 217h69v-217h-61q-141 0 -201 137q-8 -59 -53 -92t-123 -33t-127 62q-20 29 -37 84q-12 -70 -63 -111q-53 -47 -141.5 -47t-153.5 57q-35 33 -64 101q-10 -57 -67 -107.5t-144 -50.5h-55q-45 0 -76.5 31.5t-31.5 77t31.5 77t76.5 31.5h47q111 0 161 66.5t50 156.5 l31 -16q0 -78 37 -131q49 -63 139 -63.5t133 36.5q76 58 76 174l31 -16q7 -195 161 -195q140 0 140 211l28 -16q4 -66 31 -121q51 -86 156 -86zM526 793q76 -42 115 -91l76 91q37 -18 74.5 -51t56.5 -62q-49 -68 -109 -125q-61 66 -104 94q-27 -35 -86 -94q-76 80 -131 111 q67 78 108 127zM616 1014q35 -18 74 -51t58 -62q-49 -68 -109 -125q-70 72 -131 111q61 66 108 127z" />
<glyph unicode="&#x635;" horiz-adv-x="2027" arabic-form="final" d="M1321 209q123 0 219.5 25.5t116.5 66.5q-11 33 -58.5 70t-117.5 37q-165 0 -303 -156q-28 -32 -35 -43h178zM223 18q0 -41 23.5 -95t87.5 -99q94 -70 254 -70q98 0 183 28t130 77t57 90l-96 119q-72 92 -71 196q0 52 8 68l32 33q29 -84 79 -113t143 -35q53 86 157 191 q172 172 320 172q111 0 171 -51.5t107 -168.5q-23 -80 -47 -124q33 -18 97 -19h170v-217h-179q-88 0 -131 38t-55 73q-2 -2 -36 -34t-135 -64.5t-213.5 -32.5t-250.5 20q2 -23 2 -66q-2 -203 -131 -313q-130 -108 -331.5 -108t-309.5 104q-115 107 -115 305q0 92 31 187.5 t86 158.5l33 -32q-70 -93 -70 -218z" />
<glyph unicode="&#x635;" horiz-adv-x="1296" arabic-form="initial" d="M516 209h172q129 0 201.5 21.5t93.5 36t41 34.5q0 3 -14 25q-55 82 -170 81.5t-224 -88.5q-41 -31 -70.5 -68.5t-29.5 -41.5zM651.5 -20q-108.5 0 -258.5 20l-45 -80l-43 45l29 60q-33 20 -48.5 37.5t-33.5 50.5q-14 -39 -60.5 -76t-154.5 -37h-72q-45 0 -76.5 31.5 t-31.5 77t31.5 77t76.5 31.5h109q132 1 172 105q10 24 16 55l31 -17q0 -68 18 -94q35 -50 115 -49q136 219 314 318q80 45 157 45q117 0 190 -70q49 -49 87 -150q-27 -92 -58 -146t-94.5 -108t-162.5 -90t-207.5 -36z" />
<glyph unicode="&#x635;" horiz-adv-x="1392" arabic-form="medial" d="M514 209h172q172 0 245 31.5t93 60.5q0 5 -18 29q-56 78 -166.5 78t-214.5 -82q-45 -33 -78 -73t-33 -44zM37 0h-72q-45 0 -76.5 31.5t-31.5 77t31.5 77t76.5 31.5h109q80 0 116 31t48 57.5t16 46t6 25.5l31 -17q-4 -61 20 -94q20 -23 53 -36t60 -13q81 132 213.5 247.5 t262.5 115.5t202 -88q39 -49 72 -132q-23 -80 -48 -124q35 -18 97 -19h170v-217h-179q-68 0 -116.5 29.5t-71.5 79.5q-149 -129 -395 -129q-88 0 -238 20l-47 -80l-41 45q12 19 27 60q-57 33 -80 88q-14 -39 -60.5 -76t-154.5 -37z" />
<glyph unicode="&#x636;" horiz-adv-x="2027" arabic-form="final" d="M1321 209q123 0 219.5 25.5t116.5 66.5q-11 33 -58.5 70t-117.5 37q-165 0 -303 -156q-28 -32 -35 -43h178zM223 18q0 -41 23.5 -95t87.5 -99q94 -70 254 -70q98 0 183 28t130 77t57 90l-96 119q-72 92 -71 196q0 52 8 68l32 33q29 -84 79 -113t143 -35q53 86 157 191 q172 172 320 172q111 0 171 -51.5t107 -168.5q-23 -80 -47 -124q33 -18 97 -19h170v-217h-179q-88 0 -131 38t-55 73q-2 -2 -36 -34t-135 -64.5t-213.5 -32.5t-250.5 20q2 -23 2 -66q-2 -203 -131 -313q-130 -108 -331.5 -108t-309.5 104q-115 107 -115 305q0 92 31 187.5 t86 158.5l33 -32q-70 -93 -70 -218zM1553.5 862q37.5 -33 56.5 -61q-43 -64 -107 -125q-84 84 -131 110q86 98 109 127q35 -18 72.5 -51z" />
<glyph unicode="&#x636;" horiz-adv-x="1296" arabic-form="initial" d="M516 209h172q129 0 201.5 21.5t93.5 36t41 34.5q0 3 -14 25q-55 82 -170 81.5t-224 -88.5q-41 -31 -70.5 -68.5t-29.5 -41.5zM651.5 -20q-108.5 0 -258.5 20l-45 -80l-43 45l29 60q-33 20 -48.5 37.5t-33.5 50.5q-14 -39 -60.5 -76t-154.5 -37h-72q-45 0 -76.5 31.5 t-31.5 77t31.5 77t76.5 31.5h109q132 1 172 105q10 24 16 55l31 -17q0 -68 18 -94q35 -50 115 -49q136 219 314 318q80 45 157 45q117 0 190 -70q49 -49 87 -150q-27 -92 -58 -146t-94.5 -108t-162.5 -90t-207.5 -36zM918.5 866.5q37.5 -32.5 56.5 -61.5q-43 -64 -107 -125 q-84 84 -131 111q86 98 109 127q35 -19 72.5 -51.5z" />
<glyph unicode="&#x636;" horiz-adv-x="1392" arabic-form="medial" d="M514 209h172q172 0 245 31.5t93 60.5q0 5 -18 29q-56 78 -166.5 78t-214.5 -82q-45 -33 -78 -73t-33 -44zM37 0h-72q-45 0 -76.5 31.5t-31.5 77t31.5 77t76.5 31.5h109q80 0 116 31t48 57.5t16 46t6 25.5l31 -17q-4 -61 20 -94q20 -23 53 -36t60 -13q81 132 213.5 247.5 t262.5 115.5t202 -88q39 -49 72 -132q-23 -80 -48 -124q35 -18 97 -19h170v-217h-179q-68 0 -116.5 29.5t-71.5 79.5q-149 -129 -395 -129q-88 0 -238 20l-47 -80l-41 45q12 19 27 60q-57 33 -80 88q-14 -39 -60.5 -76t-154.5 -37zM920.5 858q37.5 -33 56.5 -61 q-43 -64 -107 -125q-84 84 -131 110q86 98 109 127q35 -18 72.5 -51z" />
<glyph unicode="&#x637;" horiz-adv-x="1472" arabic-form="final" d="M928 416q-117 0 -221 -82q-45 -35 -78 -74t-33 -43h172q123 0 196.5 19.5t97 36t44.5 36.5q-33 47 -69.5 77t-108.5 30zM987 580q192 0 268 -220q-23 -78 -47 -127q37 -16 97 -16h168v-217h-179q-86 0 -128 37t-58 72q0 -1 -26 -19q-123 -85 -369 -90l-242 -6l-43 -74 l-41 45l12 27l-118 -2l-138 233l215 -6h150q41 68 90 125q-7 534 -115 815l-32 29q0 4 -1.5 34t15.5 89q27 76 94 86q56 -122 135 -178q-45 -45 -45 -91q0 -8 4 -36l9 -48q75 -374 28 -604q154 142 297 142z" />
<glyph unicode="&#x637;" horiz-adv-x="937" arabic-form="initial" d="M472.5 416q-80.5 0 -170 -58.5t-144.5 -140.5h172q123 0 199.5 20.5t136.5 71.5q-41 59 -77 83t-116.5 24zM209 1126q0 -8 4 -36l10 -58q4 -31 24.5 -148.5t20.5 -238t-16 -205.5q154 139 284.5 139.5t202.5 -81.5q45 -51 76 -136q-27 -92 -57.5 -148t-89.5 -105 q-127 -109 -394 -109h-309q-45 0 -76.5 31.5t-31.5 77t31.5 77t76.5 31.5h103q35 57 92 127q0 266 -27 444.5t-90 368.5l-31 29q-10 52 13 119q27 82 96 92q53 -124 135 -180q-47 -44 -47 -91z" />
<glyph unicode="&#x637;" horiz-adv-x="1034" arabic-form="medial" d="M330 217q172 0 243.5 32t92.5 60q-62 107 -186.5 107t-243.5 -109q-62 -58 -78 -90h172zM534 580q124 0 201 -78q39 -39 59.5 -85t20.5 -57q-23 -74 -45 -127q37 -16 94 -16h170v-217h-178q-88 0 -132 38t-54 71q0 -2 -28 -21.5t-77 -38.5q-123 -49 -291 -49h-309 q-45 0 -76.5 31.5t-31.5 77t31.5 77t76.5 31.5h103q31 53 92 125q0 532 -117 815l-31 29v39q0 29 8 61q25 98 101 109q48 -118 135 -178q-47 -43 -47 -93q0 -16 30.5 -177t30.5 -280.5t-18 -228.5q158 142 282 142z" />
<glyph unicode="&#x638;" horiz-adv-x="1472" arabic-form="final" d="M928 416q-117 0 -221 -82q-45 -35 -78 -74t-33 -43h172q123 0 196.5 19.5t97 36t44.5 36.5q-33 47 -69.5 77t-108.5 30zM987 580q192 0 268 -220q-23 -78 -47 -127q37 -16 97 -16h168v-217h-179q-86 0 -128 37t-58 72q0 -1 -26 -19q-123 -85 -369 -90l-242 -6l-43 -74 l-41 45l12 27l-118 -2l-138 233l215 -6h150q41 68 90 125q-7 534 -115 815l-32 29q0 4 -1.5 34t15.5 89q27 76 94 86q56 -122 135 -178q-45 -45 -45 -91q0 -8 4 -36l9 -48q75 -374 28 -604q154 142 297 142zM1031 860q38 -33 56 -61q-44 -66 -106 -125q-84 84 -131 110 q86 98 108 127q35 -18 73 -51z" />
<glyph unicode="&#x638;" horiz-adv-x="937" arabic-form="initial" d="M472.5 416q-80.5 0 -170 -58.5t-144.5 -140.5h172q123 0 199.5 20.5t136.5 71.5q-41 59 -77 83t-116.5 24zM209 1126q0 -8 4 -36l10 -58q4 -31 24.5 -148.5t20.5 -238t-16 -205.5q154 139 284.5 139.5t202.5 -81.5q45 -51 76 -136q-27 -92 -57.5 -148t-89.5 -105 q-127 -109 -394 -109h-309q-45 0 -76.5 31.5t-31.5 77t31.5 77t76.5 31.5h103q35 57 92 127q0 266 -27 444.5t-90 368.5l-31 29q-10 52 13 119q27 82 96 92q53 -124 135 -180q-47 -44 -47 -91zM601 860q38 -33 56 -61q-44 -66 -106 -125q-84 84 -131 110q86 98 108 127 q35 -18 73 -51z" />
<glyph unicode="&#x638;" horiz-adv-x="1034" arabic-form="medial" d="M330 217q172 0 243.5 32t92.5 60q-62 107 -186.5 107t-243.5 -109q-62 -58 -78 -90h172zM534 580q124 0 201 -78q39 -39 59.5 -85t20.5 -57q-23 -74 -45 -127q37 -16 94 -16h170v-217h-178q-88 0 -132 38t-54 71q0 -2 -28 -21.5t-77 -38.5q-123 -49 -291 -49h-309 q-45 0 -76.5 31.5t-31.5 77t31.5 77t76.5 31.5h103q31 53 92 125q0 532 -117 815l-31 29v39q0 29 8 61q25 98 101 109q48 -118 135 -178q-47 -43 -47 -93q0 -16 30.5 -177t30.5 -280.5t-18 -228.5q158 142 282 142zM589 858q38 -33 56 -61q-44 -66 -106 -125 q-84 84 -131 110q86 98 108 127q35 -18 73 -51z" />
<glyph unicode="&#x639;" horiz-adv-x="1144" arabic-form="final" d="M652.5 434q-60.5 0 -77.5 -2q72 -51 105 -113q70 43 115 84q-82 31 -142.5 31zM1145 217v-217h-252q-119 0 -176.5 30.5t-89.5 86.5l-56 -27q-25 -10 -99.5 -52t-119.5 -96q-84 -100 -84 -183q0 -153 162 -236q143 -74 389 -74h176l-180 -207h-98q-272 0 -410 113 q-164 132 -164 362q0 279 279 449q59 35 135 70q-87 120 -172 118q-25 0 -61 -10l26 145q119 94 283 95q90 0 170 -27t131 -68l-29 -178q-20 -16 -94 -84q22 -10 115 -10h219z" />
<glyph unicode="&#x639;" horiz-adv-x="874" arabic-form="initial" d="M37 0h-72q-45 0 -76.5 31.5t-31.5 77t31.5 77t76.5 31.5h58q61 0 92 8q-20 23 -38 80t-18 113q23 102 64 166q88 141 231 141q178 0 279 -195l-60 -77q-63 43 -109 62.5t-110.5 19.5t-115 -30t-72.5 -59q78 -124 201 -182q146 9 385 76l-97 -225q-193 -53 -330.5 -84 t-287.5 -31z" />
<glyph unicode="&#x639;" horiz-adv-x="923" arabic-form="medial" d="M431 434q-60 0 -77 -2q72 -51 105 -113q69 43 114 84q-82 31 -142 31zM705 217h219v-217h-252q-92 0 -145.5 18.5t-73 38t-39.5 52.5q-61 -47 -159.5 -78t-193.5 -31h-96q-45 0 -76.5 31.5t-31.5 75.5t31.5 77t76.5 33h125q110 0 229 39q-68 98 -155 98q-35 0 -62 -10 l27 145q119 94 281 95q92 0 172 -27t131 -68l-29 -178q-20 -16 -94 -84q23 -10 115 -10z" />
<glyph unicode="&#x63a;" horiz-adv-x="1144" arabic-form="final" d="M652.5 434q-60.5 0 -77.5 -2q72 -51 105 -113q70 43 115 84q-82 31 -142.5 31zM1145 217v-217h-252q-119 0 -176.5 30.5t-89.5 86.5l-56 -27q-25 -10 -99.5 -52t-119.5 -96q-84 -100 -84 -183q0 -153 162 -236q143 -74 389 -74h176l-180 -207h-98q-272 0 -410 113 q-164 132 -164 362q0 279 279 449q59 35 135 70q-87 120 -172 118q-25 0 -61 -10l26 145q119 94 283 95q90 0 170 -27t131 -68l-29 -178q-20 -16 -94 -84q22 -10 115 -10h219zM685 866.5q38 -32.5 56 -61.5q-44 -66 -106 -125q-84 84 -131 111q86 98 108 127 q35 -19 73 -51.5z" />
<glyph unicode="&#x63a;" horiz-adv-x="874" arabic-form="initial" d="M37 0h-72q-45 0 -76.5 31.5t-31.5 77t31.5 77t76.5 31.5h58q61 0 92 8q-20 23 -38 80t-18 113q23 102 64 166q88 141 231 141q178 0 279 -195l-60 -77q-63 43 -109 62.5t-110.5 19.5t-115 -30t-72.5 -59q78 -124 201 -182q146 9 385 76l-97 -225q-193 -53 -330.5 -84 t-287.5 -31zM411 1016q38 -33 56 -62q-43 -64 -107 -125q-84 84 -131 111q86 98 109 127q35 -18 73 -51z" />
<glyph unicode="&#x63a;" horiz-adv-x="923" arabic-form="medial" d="M431 434q-60 0 -77 -2q72 -51 105 -113q69 43 114 84q-82 31 -142 31zM705 217h219v-217h-252q-92 0 -145.5 18.5t-73 38t-39.5 52.5q-61 -47 -159.5 -78t-193.5 -31h-96q-45 0 -76.5 31.5t-31.5 75.5t31.5 77t76.5 33h125q110 0 229 39q-68 98 -155 98q-35 0 -62 -10 l27 145q119 94 281 95q92 0 172 -27t131 -68l-29 -178q-20 -16 -94 -84q23 -10 115 -10zM464 866.5q38 -32.5 56 -61.5q-44 -66 -106 -125q-84 84 -131 111q86 98 108 127q35 -19 73 -51.5z" />
<glyph unicode="&#x641;" horiz-adv-x="2013" arabic-form="final" d="M1572 444q-115 0 -175 -90q31 -61 96 -86q125 47 178 138q-38 38 -99 38zM1792 217h221v-217h-223q-165 0 -287 86q-274 -133 -692 -133q-333 0 -500.5 116.5t-167.5 323.5q0 96 35 194.5t80 143.5l33 -33q-49 -92 -49 -183q0 -169 139 -255t483 -86q248 0 436 39l74 18 q-16 49 -16 80l-2 56q-6 197 144 271q38 19 81 19q139 0 139 -231l-2 -84q0 -80 -39 -119q39 -6 113 -6zM1580 915.5q38 -32.5 56 -61.5q-44 -66 -106 -125q-84 84 -131 111q86 98 108 127q35 -19 73 -51.5z" />
<glyph unicode="&#x641;" horiz-adv-x="559" arabic-form="initial" d="M354 355q0 50 -32.5 89t-93 39t-111.5 -41q78 -12 138 -59t87 -102q12 24 12 74zM379 158q2 -16 2 -63t-12 -95q-6 61 -31 102q-45 -51 -119 -76.5t-137 -25.5h-117q-45 0 -76.5 31.5t-31.5 77t31.5 77t76.5 31.5h146q86 4 125 10q-55 71 -187 93q-45 8 -59 10v145 q0 90 54 140.5t153.5 50.5t169 -74t69.5 -204t-57 -230zM263 921.5q38 -32.5 56 -61.5q-44 -66 -106 -125q-84 84 -131 111q86 98 108 127q35 -19 73 -51.5z" />
<glyph unicode="&#x641;" horiz-adv-x="770" arabic-form="medial" d="M354 444q-96 0 -159 -90q31 -61 96 -86q127 50 180 138q-16 16 -51 27t-66 11zM518 342q0 -78 -41 -119q37 -6 113 -6h180v-217h-180q-163 0 -271 74q-27 -27 -98 -50.5t-147 -23.5h-109q-45 0 -76.5 31.5t-31.5 77t31.5 77t76.5 31.5h123q68 0 86 10q-18 47 -18 84v56 q0 78 15 128t71.5 106.5t140.5 56t109.5 -71t25.5 -172.5v-72zM380 911.5q38 -32.5 56 -61.5q-44 -66 -106 -125q-84 84 -131 111q86 98 108 127q35 -19 73 -51.5z" />
<glyph unicode="&#x642;" horiz-adv-x="1255" arabic-form="final" d="M696 217h138q-33 123 -111 123q-51 0 -83 -48q-11 -16 -12 -25t12 -29.5t56 -20.5zM1255 0h-247q2 -18 2 -57q0 -104 -42 -188.5t-106 -137.5q-125 -106 -308 -106t-296 104q-115 109 -115 309q0 94 31 184.5t86 157.5l33 -33q-27 -31 -48.5 -86t-21.5 -111 q0 -138 103.5 -211t251 -73t228.5 53.5t109 124.5l-20 70h-135q-98 0 -142 37q-74 63 -63 151l18 181q6 53 52.5 102t128 49t142 -85t83.5 -218h276v-217zM606 864q63 -33 113 -90q55 59 76 90q37 -18 74.5 -51t56.5 -61q-49 -68 -109 -125q-53 55 -104 94q-35 -45 -84 -94 q-84 84 -131 110q85 96 108 127z" />
<glyph unicode="&#x642;" horiz-adv-x="559" arabic-form="initial" d="M354 355q0 50 -32.5 89t-93 39t-111.5 -41q78 -12 138 -59t87 -102q12 24 12 74zM379 158q2 -16 2 -63t-12 -95q-6 61 -31 102q-45 -51 -119 -76.5t-137 -25.5h-117q-45 0 -76.5 31.5t-31.5 77t31.5 77t76.5 31.5h146q86 4 125 10q-55 71 -187 93q-45 8 -59 10v145 q0 90 54 140.5t153.5 50.5t169 -74t69.5 -204t-57 -230zM96 973q63 -33 113 -90q55 59 76 90q37 -18 74.5 -51t56.5 -62q-49 -68 -109 -125q-53 55 -104 94q-35 -45 -84 -94q-84 84 -131 111q85 96 108 127z" />
<glyph unicode="&#x642;" horiz-adv-x="770" arabic-form="medial" d="M354 444q-96 0 -159 -90q31 -61 96 -86q127 50 180 138q-16 16 -51 27t-66 11zM518 342q0 -78 -41 -119q37 -6 113 -6h180v-217h-180q-163 0 -271 74q-27 -27 -98 -50.5t-147 -23.5h-109q-45 0 -76.5 31.5t-31.5 77t31.5 77t76.5 31.5h123q68 0 86 10q-18 47 -18 84v56 q0 78 15 128t71.5 106.5t140.5 56t109.5 -71t25.5 -172.5v-72zM213 963q63 -33 113 -91q55 59 75 91q37 -18 75 -51t56 -62q-49 -68 -108 -125q-53 55 -105 94q-35 -45 -83 -94q-84 84 -132 111q86 96 109 127z" />
<glyph unicode="&#x643;" horiz-adv-x="1951" arabic-form="final" d="M916 354q-88 0 -187 31l16 33q15 -2 67 2q135 10 165 51q0 2 -10.5 8t-47 6t-61.5 23q-25 29 -24 70q0 66 64 112.5t142 65.5l-34 -111q-41 0 -70 -13.5t-29 -31.5q0 -4 20.5 -14.5t62.5 -11.5q78 -2 63 -64q-20 -94 -60.5 -125t-76.5 -31zM291 627q-49 -83 -49 -169 t40 -142q101 -143 523 -142q291 0 473 46t281 108l-109 915l129 152q23 -178 47 -396l62 -499q20 -164 65 -226q46 -57 141 -57h58v-217h-142q-156 0 -219 184q-272 -231 -874 -231q-340 0 -484 147q-90 96 -90 230q0 88 35 187t80 140z" />
<glyph unicode="&#x643;" horiz-adv-x="718" arabic-form="initial" d="M424 348q0 -150 -59 -235q-74 -113 -244 -113h-156q-45 0 -76.5 31.5t-31.5 77t31.5 77t76.5 31.5h88q98 0 157.5 21.5t94.5 70.5q-35 80 -95 159t-122 124v-70q-68 51 -85 91t-17 138.5t6 144.5t46 82t118.5 80t222.5 114.5t195 98t124 75.5l-51 -232q-61 -41 -286 -143 t-255 -123q94 -72 171 -178q147 -204 147 -322z" />
<glyph unicode="&#x643;" horiz-adv-x="913" arabic-form="medial" d="M913 217v-217h-147q-119 0 -189.5 51t-117.5 123q-39 -80 -111 -127t-162 -47h-221q-45 0 -76.5 31.5t-31.5 77t31.5 77t76.5 31.5h221q117 0 181 64q-118 194 -224 278v-37q-90 70 -98 140q-4 36 -4 119t11 125t46 76t104 72t263 133t289 159l-52 -232 q-33 -25 -216 -113.5t-226 -112.5t-100 -61q90 -70 161.5 -171t139 -207.5t107.5 -150.5q74 -81 212 -81h133z" />
<glyph unicode="&#x644;" horiz-adv-x="1259" arabic-form="final" d="M293 236q-68 -93 -68 -215t102.5 -194.5t262.5 -72.5q228 0 334 129l-150 1223l131 151l92 -757q19 -176 61 -229.5t128 -53.5h74v-217h-105q-76 0 -125 39v-105q0 -201 -130 -311.5t-331 -110t-313 106.5t-113 291q0 98 32 197.5t85 160.5z" />
<glyph unicode="&#x644;" horiz-adv-x="411" arabic-form="initial" d="M272 1212q-47 -48 -47 -80q1 -32 17 -158q48 -364 47 -724q0 -74 -14 -124t-65.5 -88t-129.5 -38h-115q-45 0 -76.5 31.5t-31.5 77t31.5 77t76.5 31.5h82q74 0 121 47q0 117 -26.5 353.5t-41 338t-41.5 205.5l-30 29q0 190 114 207q33 -74 57.5 -111t71.5 -74z" />
<glyph unicode="&#x644;" horiz-adv-x="608" arabic-form="medial" d="M608 0h-139q-76 0 -125 42t-63 101q-12 -47 -57.5 -95t-157.5 -48h-101q-45 0 -76.5 31.5t-31.5 77t31.5 77t76.5 31.5h123q74 0 107 44t18 101q-25 248 -94 805l-10 76l129 152l45 -375q59 -487 63 -518q20 -162 65 -224t142 -61h55v-217z" />
<glyph unicode="&#x645;" horiz-adv-x="1087" arabic-form="final" d="M659 -127q-78 0 -116.5 53t-42.5 140v22q0 39 2 59q-183 -18 -232 -102q-4 -41 -4 -92t33 -201l12 -63q37 -210 37 -277t-6 -115.5t-17.5 -104.5t-48.5 -128l-34 -16q4 57 4 135.5t-53 337.5l-13 55q-37 159 -37 240q0 217 101.5 375t263.5 157q25 0 37 -2l33 90 q48 -72 147 -139q129 -80 281 -80h81v-217h-47q-102 0 -148 14.5t-85 65.5q-29 -207 -148 -207z" />
<glyph unicode="&#x645;" horiz-adv-x="727" arabic-form="initial" d="M406.5 373q-31.5 0 -66.5 -21.5t-53 -58.5q39 -37 97 -61.5t110 -26.5l38 82q-26 38 -60 62t-65.5 24zM604 297q0 -18 -17.5 -97t-35.5 -141q-18 -18 -57 -32.5t-72 -14.5q-86 0 -131 54.5t-45 132.5q-18 -80 -79 -139.5t-165 -59.5h-37q-45 0 -76.5 31.5t-31.5 77 t31.5 77t76.5 31.5h55q78 0 123 42t90 126t87 129t110 45q70 0 140 -130q34 -65 34 -132z" />
<glyph unicode="&#x645;" horiz-adv-x="892" arabic-form="medial" d="M496 334q-94 0 -156 -70q115 -37 215 -98q-16 59 -16 164q-33 4 -43 4zM893 217v-217h-84q-113 0 -174 43v-147q-152 117 -356 172v108q-58 -95 -109 -135.5t-160 -40.5h-45q-45 0 -76.5 31.5t-31.5 77t31.5 77t76.5 31.5h92q115 0 172 62q27 27 67 93.5t64 90.5 q88 84 263 84v-109q0 -127 47 -176q39 -45 139 -45h84z" />
<glyph unicode="&#x646;" horiz-adv-x="1259" arabic-form="final" d="M293 236q-68 -94 -68 -213t101.5 -194t261.5 -75q220 0 312 103q44 49 61 92l-99 119q-72 92 -71 196q0 52 8 68l32 30q35 -86 84 -112q49 -31 123 -33h222v-217h-232q2 -23 2 -68q-2 -201 -128.5 -310t-330 -109t-311.5 102q-117 109 -117 307q0 92 31 185.5t86 160.5z M597 184.5q38 -32.5 56 -61.5q-44 -66 -106 -125q-84 84 -131 111q86 98 108 127q35 -19 73 -51.5z" />
<glyph unicode="&#x646;" horiz-adv-x="479" arabic-form="initial" d="M356 303v-63q0 -154 -164 -218q-58 -22 -96 -22h-131q-45 0 -76.5 31.5t-31.5 77t31.5 77t76.5 31.5h115q141 0 196 51q-31 111 -153 172l59 217q174 -120 174 -354zM58 841.5q38 -32.5 57 -61.5q-43 -64 -107 -125q-84 84 -131 111q86 98 109 127q34 -19 72 -51.5z" />
<glyph unicode="&#x646;" horiz-adv-x="565" arabic-form="medial" d="M565 217v-217h-96q-142 0 -188 113q-6 -31 -54 -72t-161 -41h-101q-45 0 -76.5 31.5t-31.5 77t31.5 77t76.5 31.5h139q84 0 121.5 34t48.5 62.5t17 63.5l31 -17q-12 -143 155 -143h88zM120 620.5q38 -32.5 56 -61.5q-44 -66 -106 -125q-84 84 -131 111q86 98 108 127 q35 -19 73 -51.5z" />
<glyph unicode="&#x647;" horiz-adv-x="827" arabic-form="final" d="M252 399h96q47 0 65.5 5.5t37.5 25.5l-33 164l-47 -64q-123 -18 -172 -102q16 -29 53 -29zM827 217v-217h-106q-109 0 -154 48t-63 128l-31 148l-65 -117l-146 -2q-39 0 -79 38t-40 64v158q0 80 62 127q33 27 98.5 50.5t95.5 45.5q-4 51 17.5 84t68.5 70l107 -471 q32 -126 88 -146q22 -8 51 -8h96z" />
<glyph unicode="&#x647;" horiz-adv-x="888" arabic-form="initial" d="M514 352q0 -55 -35 -108q86 -47 137 -72q24 0 44 26.5t24 63.5q-36 106 -197 213q27 -68 27 -123zM313 508q-72 0 -120 -80q10 -31 43.5 -55.5t113.5 -61.5q51 39 82 90q-8 49 -45 78t-74 29zM274 684v121q17 -39 185 -131q66 -35 79 -45.5t56 -40.5q172 -118 172 -324 q0 -148 -74 -231q-43 -53 -96 -53q-156 96 -215 114q-61 -53 -140.5 -73.5t-224.5 -20.5h-51q-45 0 -76.5 31.5t-31.5 76t31.5 77t76.5 32.5h103q59 0 102 12q-51 57 -51 133.5t46 151t128 107.5q-19 25 -19 63z" />
<glyph unicode="&#x647;" horiz-adv-x="921" arabic-form="medial" d="M336 0q-57 0 -117 -16q72 -113 172 -158q66 -29 110 -29t64.5 11.5t31.5 23.5t13 14q-29 46 -45 62q-92 92 -229 92zM338 354q-76 -90 -135 -137q221 51 295 125l-52 160q-32 -58 -108 -148zM922 0h-328q111 -90 111 -147.5t-31 -117.5q-74 -145 -157.5 -145t-171 60.5 t-136.5 132.5t-49 178l-76 -31v70h-117q-45 0 -76.5 31.5t-31.5 75.5t31.5 77t76.5 33h107q71 46 153 139q172 195 172 279q0 10 -4 22l-14 41l123 80l110 -385q4 -16 4 -26q0 -47 -47 -103q-31 -35 -59.5 -56.5t-32.5 -23.5q72 33 133 33h310v-217z" />
<glyph unicode="&#x648;" horiz-adv-x="720" arabic-form="final" d="M246 340q-45 0 -80 -48q-12 -16 -13 -25t12 -29.5t56 -20.5h137q-33 123 -112 123zM721 0h-205q-12 -229 -164 -338q-97 -65 -200 -65v-117h-7q-45 111 -145 104v215q174 4 263 56.5t126 144.5h-104q-115 0 -168 61q-39 41 -39 107l20 201q6 55 52.5 103t126 48t143 -86 t86.5 -217h215v-217z" />
<glyph unicode="&#x649;" horiz-adv-x="1288" arabic-form="final" d="M797 0h-70l-22 43l53 174h530v-217h-241q30 -30 30 -92t-55 -132.5t-191 -130t-257 -59.5q-225 0 -328 120t-103 302q0 232 117 375l33 -33q-68 -84 -68 -211.5t62 -199.5q92 -119 301 -119q261 0 373 110q-46 70 -164 70z" />
<glyph unicode="&#x64a;" horiz-adv-x="1288" arabic-form="final" d="M797 0h-70l-22 43l53 174h530v-217h-241q30 -30 30 -92t-55 -132.5t-191 -130t-257 -59.5q-225 0 -328 120t-103 302q0 232 117 375l33 -33q-68 -84 -68 -211.5t62 -199.5q92 -119 301 -119q261 0 373 110q-46 70 -164 70zM461 -506q63 -33 112 -90q55 59 76 90 q37 -18 75 -51t56 -61q-49 -68 -108 -125q-53 55 -105 94q-35 -45 -84 -94q-84 84 -131 110q86 96 109 127z" />
<glyph unicode="&#x64a;" horiz-adv-x="479" arabic-form="initial" d="M356 303v-63q0 -154 -164 -218q-58 -22 -96 -22h-131q-45 0 -76.5 31.5t-31.5 77t31.5 77t76.5 31.5h115q141 0 196 51q-31 111 -153 172l59 217q174 -120 174 -354zM-37 -113q63 -33 113 -90q55 59 76 90q37 -18 74.5 -51t56.5 -61q-49 -68 -109 -125q-53 55 -104 94 q-35 -45 -84 -94q-84 84 -131 110q85 96 108 127z" />
<glyph unicode="&#x64a;" horiz-adv-x="565" arabic-form="medial" d="M565 217v-217h-96q-142 0 -188 113q-6 -31 -54 -72t-161 -41h-101q-45 0 -76.5 31.5t-31.5 77t31.5 77t76.5 31.5h139q84 0 121.5 34t48.5 62.5t17 63.5l31 -17q-12 -143 155 -143h88zM-72 -111q63 -33 113 -90q55 59 76 90q37 -18 74.5 -51t56.5 -61q-49 -68 -109 -125 q-53 55 -104 94q-35 -45 -84 -94q-84 84 -131 110q85 96 108 127z" />
<glyph unicode="&#xfef5;" horiz-adv-x="1042" arabic-form="isolated" d="M541 217q148 0 198 10q-23 57 -45 107q-76 -80 -153 -117zM940 1214q-47 -42 -47 -76t5 -81t5 -137q0 -276 -121 -471q61 -135 52 -179l-66 -268q-10 0 -82 -2t-248 -4l-248 -4l56 225h45q102 16 200 73.5t152 137.5q-169 306 -430 533l-14 -56l-168 176l57 209 q191 -109 377.5 -337t257.5 -388q45 127 45 301.5t-41 294.5l-31 31q0 73 26 135t89 70q27 -66 54.5 -107t74.5 -76zM90 1513q140 0 275 111l20 -18q-51 -109 -133 -172q-96 -70 -190.5 -70t-172.5 33l-36 -84l-7 2q0 111 -112 174l53 125q35 -35 125 -70q92 -31 178 -31z " />
<glyph unicode="&#xfef6;" horiz-adv-x="1298" arabic-form="final" d="M1298 217v-217h-131q-115 0 -185.5 67.5t-84.5 208.5l-20 207q-27 -197 -181 -340q-131 -123 -342 -188l-354 20q493 199 639 379q-35 148 -133 284t-197 202l-14 -54l-168 175l55 210q176 -82 320 -258q92 -115 151.5 -243.5t69.5 -229.5q51 51 94 178t37 261l-23 372 l140 144q43 -737 55 -900t50 -220.5t141 -57.5h81zM195 1401q142 0 274 110l20 -18q-51 -109 -133 -172q-96 -70 -190 -70t-172 33l-37 -84l-6 2q0 111 -113 174l53 125q35 -35 126 -67.5t178 -32.5z" />
<glyph unicode="&#xfef7;" horiz-adv-x="1042" arabic-form="isolated" d="M541 217q148 0 198 10q-23 57 -45 107q-76 -80 -153 -117zM940 1214q-47 -42 -47 -76t5 -81t5 -137q0 -276 -121 -471q61 -135 52 -179l-66 -268q-10 0 -82 -2t-248 -4l-248 -4l56 225h45q102 16 200 73.5t152 137.5q-169 306 -430 533l-14 -56l-168 176l57 209 q191 -109 377.5 -337t257.5 -388q45 127 45 301.5t-41 294.5l-31 31q0 73 26 135t89 70q27 -66 54.5 -107t74.5 -76zM-35 1534q0 10 6 22q87 113 156 113q47 1 69 -53q8 -18 7 -25l-47 -43q-20 39 -48.5 39t-50.5 -15.5t-24 -15.5q39 -63 110 -77q60 14 117 22l-31 -80 q-184 -31 -315 -98l-14 10l57 86q16 8 35.5 13.5t32.5 11.5q-60 30 -60 90z" />
<glyph unicode="&#xfef8;" horiz-adv-x="1298" arabic-form="final" d="M1298 217v-217h-131q-115 0 -185.5 67.5t-84.5 208.5l-20 207q-27 -197 -181 -340q-131 -123 -342 -188l-354 20q493 199 639 379q-35 148 -133 284t-197 202l-14 -54l-168 175l55 210q176 -82 320 -258q92 -115 151.5 -243.5t69.5 -229.5q51 51 94 178t37 261l-23 372 l140 144q43 -737 55 -900t50 -220.5t141 -57.5h81zM174 1434q0 10 6 22q87 113 156 113q46 1 68 -53q8 -18 8 -25l-47 -43q-20 39 -48.5 39t-50.5 -15.5t-24 -15.5q39 -63 110 -78q60 15 117 23l-31 -80q-184 -31 -315 -98l-14 10l57 86q16 8 35.5 13t31.5 11q-59 29 -59 91 z" />
<glyph unicode="&#xfef9;" horiz-adv-x="1042" arabic-form="isolated" d="M541 217q148 0 198 10q-23 57 -45 107q-76 -80 -153 -117zM940 1214q-47 -42 -47 -76t5 -81t5 -137q0 -276 -121 -471q61 -135 52 -179l-66 -268q-10 0 -82 -2t-248 -4l-248 -4l56 225h45q102 16 200 73.5t152 137.5q-169 306 -430 533l-14 -56l-168 176l57 209 q191 -109 377.5 -337t257.5 -388q45 127 45 301.5t-41 294.5l-31 31q0 73 26 135t89 70q27 -66 54.5 -107t74.5 -76zM414 -250q0 10 6 23q86 112 155 112q27 0 51.5 -24.5t24.5 -53.5l-47 -43q-20 39 -48 39t-50.5 -15t-24.5 -15q39 -63 111 -78q60 14 117 22l-31 -79 q-184 -31 -316 -99l-14 10l58 86q16 8 35.5 13.5t31.5 11.5q-59 30 -59 90z" />
<glyph unicode="&#xfefa;" horiz-adv-x="1298" arabic-form="final" d="M1298 217v-217h-131q-115 0 -185.5 67.5t-84.5 208.5l-20 207q-27 -197 -181 -340q-131 -123 -342 -188l-354 20q493 199 639 379q-35 148 -133 284t-197 202l-14 -54l-168 175l55 210q176 -82 320 -258q92 -115 151.5 -243.5t69.5 -229.5q51 51 94 178t37 261l-23 372 l140 144q43 -737 55 -900t50 -220.5t141 -57.5h81zM297 -268q0 10 6 22q87 113 156 113q47 1 69 -53q8 -18 7 -25l-48 -43q-20 39 -48 39t-50 -15.5t-24 -15.5q39 -63 110 -78q60 15 117 23l-31 -80q-184 -31 -315 -98l-15 10l58 86q16 8 35.5 13t31.5 12q-59 30 -59 90z " />
<glyph />
<glyph />
<glyph unicode="&#xd;" horiz-adv-x="681" />
<glyph unicode=" "  horiz-adv-x="344" />
<glyph unicode="&#x09;" horiz-adv-x="344" />
<glyph unicode="&#xa0;" horiz-adv-x="344" />
<glyph unicode="!" horiz-adv-x="346" d="M173 207q32 0 71 -40t39 -74t-39 -73q-39 -38 -71 -38t-69 40t-37 72t37 73q37 40 69 40zM173 1014q83 0 118 -37q0 -74 -36 -321t-65 -373h-34q-29 129 -66 375t-37 319q37 37 120 37z" />
<glyph unicode="&#x22;" horiz-adv-x="526" d="M398 1069q62 0 94 -39q0 -57 -25 -173t-53 -169h-35q-27 55 -51 170q-25 115 -25 172q33 39 95 39zM130 1069q62 0 93 -39q1 -55 -25 -171t-53 -171h-32q-29 53 -54 169t-24 173q33 39 95 39z" />
<glyph unicode="#" horiz-adv-x="925" d="M557 387l49 178h-237l-50 -178h238zM299 653l84 303h94l-84 -303h238l84 303h96l-84 -303h133l-24 -88h-134l-49 -178h133l-26 -88h-133l-82 -299h-94l81 299h-237l-84 -299h-94l84 299h-133l22 88h133l49 178h-131l25 88h133z" />
<glyph unicode="$" horiz-adv-x="796" d="M551 771q0 62 -35 98q-36 36 -106 36t-110 -37t-40 -91t31 -95t75 -69q44 -27 124 -67t130 -73q122 -78 122 -197q-1 -118 -86 -189t-230 -83v-176q-14 -31 -57 -31v205q-145 0 -235 55q-89 55 -89 150q0 61 42 97q43 36 99 36t101 -25q-63 -33 -64 -129q0 -57 42 -97 t114 -40t115 42q43 41 43 103q1 62 -51 104t-147 90t-149 83q-130 84 -131 221q0 106 84 178t226 82v178q16 31 57 31v-207q135 -2 218 -53t83 -137q0 -55 -37 -87t-91 -32t-103 23q55 41 55 103z" />
<glyph unicode="%" horiz-adv-x="1486" d="M301 928q-45 0 -71 -70t-26 -188t26 -185t72 -67t72 66t26 187t-28 189q-26 68 -71 68zM312 973q116 0 183 -77t67 -213t-76 -224t-192 -88t-182 82t-67 217q0 135 75 219q76 84 192 84zM907 995h70l-399 -1036h-68zM1274 282q0 120 -27 188t-71 69q-44 0 -71 -70 q-26 -69 -26 -187t26 -186t72 -68q45 0 71 68q26 66 26 186zM1186 584q118 0 184 -77t66 -213t-75 -224t-192 -88t-183 82t-67 216q0 136 75 220t192 84z" />
<glyph unicode="&#x26;" horiz-adv-x="905" d="M735 223q0 -142 -142 -208q-75 -34 -190 -33q-170 0 -270 72t-100 202q0 92 64 160q65 68 186 98q-197 49 -197 221q0 61 41 117t121 89q80 34 196 34t184 -54q66 -54 66 -131t-66 -117t-179 -42q72 55 71 157q0 59 -28 102q-29 42 -80 42t-85 -56t-34 -144t48 -138 q48 -51 126 -51v-31q-115 -28 -168 -98t-53 -161t48 -160t131 -69t137 57t54 141t-28 122q-113 0 -160 -22t-68 -60l-14 6q0 86 29 121t90 35l156 -10q156 0 155 112q0 31 -20 71t-43 58q80 -2 136 -40t56 -107q0 -148 -233 -160q63 -58 63 -125z" />
<glyph unicode="'" horiz-adv-x="258" d="M130 1069q62 0 93 -39q1 -55 -25 -171t-53 -171h-32q-29 53 -54 169t-24 173q33 39 95 39z" />
<glyph unicode="(" horiz-adv-x="487" d="M49 442q0 424 379 578l25 -31q-89 -72 -139 -216q-50 -145 -50 -333t49 -331t140 -215l-25 -33q-379 157 -379 581z" />
<glyph unicode=")" horiz-adv-x="487" d="M438 442q0 -424 -379 -581l-24 33q90 72 139 215t49 331t-49 333q-49 144 -139 216l24 31q379 -154 379 -578z" />
<glyph unicode="*" horiz-adv-x="763" d="M669 810q1 -9 -1 -22l-256 7l211 -146q-61 -92 -174 -127l-74 242l-72 -242q-109 31 -174 127l209 146l-256 -7q0 122 65 205l207 -159l-86 245q109 40 213 0l-88 -248l209 162q59 -76 66 -168q0 -6 1 -15z" />
<glyph unicode="+" horiz-adv-x="827" d="M362 526v232h101v-232h231v-102h-231v-229h-101v229h-231v102h231z" />
<glyph unicode="," horiz-adv-x="294" d="M148 209q112 0 112 -107q0 -49 -29 -97t-92 -122l-63 -69l-56 36l60 134q18 38 18 74t-35 65l-24 16l-6 39q62 31 115 31z" />
<glyph unicode="-" horiz-adv-x="473" d="M43 336q0 67 35 92l350 14q0 -68 -35 -94z" />
<glyph unicode="." horiz-adv-x="315" d="M156 217q32 0 72 -42t40 -77q0 -36 -40 -76t-72 -40t-72 41q-39 41 -39 75t39 77q39 42 72 42z" />
<glyph unicode="/" horiz-adv-x="493" d="M412 1040h69l-399 -1124h-68z" />
<glyph unicode="0" horiz-adv-x="940" d="M468 930q-93 0 -144 -124t-51 -330t51 -328t144 -122t145 125q53 125 53 327t-52 327t-146 125zM487 975q177 0 281 -129t104 -340q0 -150 -52 -270t-147 -187q-95 -68 -220 -67q-182 0 -285 139q-102 139 -102 358q0 141 52 254t148 177t221 65z" />
<glyph unicode="1" horiz-adv-x="643" d="M477 268q0 -82 13 -130t47 -93l18 -25l-18 -20h-390l-12 37l60 14q53 12 69 35t17 84v643l-193 -123q-34 21 -70 115l441 172l35 -29l-17 -24v-656z" />
<glyph unicode="2" horiz-adv-x="811" d="M770 152q0 -113 -45 -152h-651l-39 68q193 164 298 274t150 201q45 90 45 181t-36 149q-38 59 -96 59t-101 -55t-43 -116q0 -123 65 -188q-113 1 -181 49t-68 137t92 152t246 63t246 -66q93 -68 93 -186q1 -118 -123 -256t-391 -314h539z" />
<glyph unicode="3" horiz-adv-x="811" d="M248 211q0 -84 41 -128t105 -44t110 53q45 53 45 150q-1 96 -59 158t-158 63q-45 0 -101 -12l-6 38q158 39 228 97t69 170q0 76 -34 124t-89 48t-91 -45t-36 -126t37 -145q-109 0 -165 45t-56 126t84 137t225 55q141 0 237 -66t97 -166q0 -170 -260 -243q135 -22 212 -90 t77 -164q0 -125 -97 -195q-97 -69 -256 -69t-252 58t-93 143t62 133q64 48 189 49q-65 -70 -65 -154z" />
<glyph unicode="4" horiz-adv-x="827" d="M481 459q0 74 -28 121l14 20l211 37v-365h123q0 -38 -29 -57h-94q0 -51 12 -87t47 -83l19 -25l-19 -20h-389l-14 37l61 14q53 12 70 35q16 23 16 84v45h-434l-22 37l333 704h187l24 -20l-411 -664h323v187z" />
<glyph unicode="5" horiz-adv-x="811" d="M248 195q0 -66 43 -111t105 -45t104 59q41 59 41 165t-71 168t-196 63q-53 0 -124 -17l-25 47l25 432h552q0 -108 -49 -151h-452l-15 -270q92 18 181 18q176 0 280 -81q105 -81 105 -211t-98 -205q-98 -74 -252 -74t-247 58t-93 141t69 131q70 48 182 53l4 -17 q-69 -42 -69 -153z" />
<glyph unicode="6" horiz-adv-x="878" d="M447 39q60 0 97 61q36 60 36 162t-33 156t-91 55q-58 0 -95 -59q-37 -58 -37 -158t31 -159q32 -58 92 -58zM592 775q0 69 -33 110t-88 41t-101 -62q-98 -133 -98 -430q0 -47 9 -78h8q39 181 237 181q123 0 196 -67q73 -68 73 -194q-1 -126 -93 -210t-227 -84 q-260 0 -362 216q-49 104 -49 252t53 270t151 188t226 67q128 0 206 -51t78 -125t-56 -117t-173 -43q43 67 43 136z" />
<glyph unicode="7" horiz-adv-x="677" d="M399 130q0 -44 19 -85l14 -25l-16 -20h-340l-13 37l29 8q51 14 80 40t57 85l318 635h-481q-44 50 -46 151h627l25 -34l-244 -670q-29 -78 -29 -122z" />
<glyph unicode="8" horiz-adv-x="837" d="M408 27q72 0 117 40q46 40 46 99q0 99 -106 164q-41 25 -141 80q-82 -95 -80 -209q0 -78 46 -126t118 -48zM281 784q0 -68 54 -119q54 -52 157 -108q84 84 83 209q0 72 -41 117q-42 45 -104 45t-106 -38q-43 -38 -43 -106zM776 252q0 -125 -104 -199q-104 -73 -268 -73 t-250 60q-88 60 -88 152q0 180 198 252q-86 52 -135 114t-49 151q0 121 100 195t254 73q154 1 238 -61t84 -152t-56 -150t-153 -88q111 -59 170 -119t59 -155z" />
<glyph unicode="9" horiz-adv-x="878" d="M563 688q0 98 -35 163t-92 65t-95 -64t-38 -162t35 -160t92 -63q57 0 95 62q38 61 38 159zM86 642q0 103 45 177t125 115t178 41q166 0 262 -134q96 -135 96 -365t-112 -362q-113 -132 -309 -132q-115 0 -190 50t-75 120t58 106q58 37 164 39q-42 -51 -42 -126t30 -108 t77 -32q92 0 142 99q49 99 49 273l-4 115l-9 2q-71 -133 -251 -133q-96 0 -164 76q-70 76 -70 179z" />
<glyph unicode=":" horiz-adv-x="315" d="M156 217q32 0 72 -42t40 -77q0 -36 -40 -76t-72 -40t-72 41q-39 41 -39 75t39 77q39 42 72 42zM156 655q32 0 72 -42q40 -43 40 -77t-40 -75t-72 -41t-72 41q-39 41 -39 75t39 77q39 42 72 42z" />
<glyph unicode=";" horiz-adv-x="315" d="M150 209q112 0 112 -107q0 -49 -29 -97t-92 -122l-63 -69l-55 36l59 134q18 38 18 74t-34 65l-25 16l-6 39q62 31 115 31zM156 655q32 0 72 -42q40 -43 40 -77t-40 -75t-72 -41t-72 41q-39 41 -39 75t39 77q39 42 72 42z" />
<glyph unicode="&#x3c;" horiz-adv-x="827" d="M694 754v-101l-448 -178l448 -176v-102l-563 227v102z" />
<glyph unicode="=" horiz-adv-x="829" d="M696 383v-102h-563v102h563zM696 670v-101h-563v101h563z" />
<glyph unicode="&#x3e;" horiz-adv-x="829" d="M133 197v102l451 176l-451 178v101l563 -228v-102z" />
<glyph unicode="?" horiz-adv-x="675" d="M292 207q32 0 70 -40t37 -74q0 -34 -38 -73q-37 -38 -69 -38t-69 40t-37 72t37 73q37 40 69 40zM217 823q0 -107 68 -151l-4 -15q-113 3 -182 51t-69 124t82 126q81 52 215 52t223 -65t89 -157t-45 -154t-135 -149q-66 -59 -101 -99t-47 -87l-6 -25h-26l-62 64 q219 223 219 430q0 94 -30 147q-32 53 -82 53t-78 -39q-28 -40 -29 -106z" />
<glyph unicode="@" horiz-adv-x="1286" d="M606 217q51 0 85 113t38 284q-31 16 -81 16t-82 -67q-32 -68 -32 -163q0 -183 72 -183zM59 342q0 146 83 276q82 130 224 205q142 76 305 76t289 -61t196 -171q71 -110 71 -231t-46 -210t-125 -141t-171 -52q-176 0 -176 246q-39 -82 -86 -120t-116 -38t-112 59t-43 160 q0 156 84 248t226 92q51 0 157 -16l90 -11l11 -16l-11 -19q-16 -18 -18 -55q-27 -332 -27 -379t14 -78t37 -30q53 0 86 96t33 272t-100 292q-100 118 -266 118q-117 0 -212 -69q-96 -69 -150 -189t-54 -266q0 -199 104 -312t287 -112q139 0 268 61l15 -33q-151 -81 -311 -81 q-161 0 -287 61t-198 171q-71 111 -71 257z" />
<glyph unicode="A" horiz-adv-x="958" d="M561 375l-139 416l-137 -416h276zM645 108q0 22 -22 89l-41 120h-318l-16 -51q-31 -92 -31 -138t16 -83l15 -25l-19 -20h-225l-14 37l30 8q49 14 74 40t47 91l209 602q14 51 15 72q0 45 -66 63l-23 7l15 36h278l269 -772q20 -57 44.5 -91t75.5 -73l-18 -20h-371l-12 37 l31 8q57 19 57 63z" />
<glyph unicode="B" horiz-adv-x="919" d="M420 514q94 0 148 55t54 149t-44 151q-46 57 -106 57q-110 1 -110 -113v-586q0 -84 36 -133t102 -49t115 59q49 58 49 152t-64 154t-180 79v25zM866 260q0 -120 -100 -190t-270 -70h-428l-15 37q51 13 74 27t31 36t8 70v555q0 73 -11 105t-53 57l-24 14l8 27 q66 20 169 34t187 13q180 0 282 -68t101 -188q0 -76 -48 -132t-132 -85q101 -22 161 -88t60 -154z" />
<glyph unicode="C" horiz-adv-x="849" d="M43 477q0 217 116.5 357.5t338.5 140.5q141 0 230 -54.5t89 -141.5t-71.5 -136t-180.5 -49q61 66 62 178q0 66 -40 110t-104 44q-117 0 -171 -133.5t-54 -283t34 -245.5t98.5 -152.5t154.5 -56.5q160 0 272 152l25 -19q-55 -92 -142.5 -149t-205.5 -57q-220 0 -335.5 139 t-115.5 356z" />
<glyph unicode="D" horiz-adv-x="1013" d="M362 231q0 -190 121 -190q277 0 277 436q0 201 -79 323t-199 122t-120 -64v-627zM166 170v555q0 72 -11.5 104.5t-52.5 57.5l-24 14l8 27q160 47 352 47q260 0 396.5 -128t136.5 -358.5t-126 -359.5t-343 -129h-434l-15 37q51 14 74 27.5t31 36t8 69.5z" />
<glyph unicode="E" horiz-adv-x="845" d="M164 170v518q0 82 -12.5 129t-47.5 94l-16 23l16 22h453q113 0 152 27l24 18l21 -18v-256l-41 -14q-37 111 -73 151.5t-101 40.5h-93q-53 0 -69.5 -19.5t-16.5 -82.5v-291h148q61 0 91 12.5t44 48.5l10 29l27 -16v-230l-45 -16l-8 45q-8 43 -45 59.5t-119 16.5h-103v-309 q0 -61 18.5 -81t82.5 -20h100q61 0 97 43t69 150l43 -15v-245l-22 -19q-51 35 -168 35h-514l-15 37q51 14 73.5 27.5t31 36t8.5 69.5z" />
<glyph unicode="F" horiz-adv-x="759" d="M154 688q0 82 -12 129t-48 94l-16 23l16 22h430q113 0 152 27l24 18l21 -18v-256l-41 -14q-37 111 -73 151t-103 41h-68q-53 0 -69 -19t-17 -83v-307h146q80 0 104 61l10 29l27 -15v-229l-45 -16l-8 43q-8 45 -37 60t-109 15h-88v-176q0 -80 14 -128t48 -95l16 -25 l-16 -20h-357l-14 37q51 13 74 27t31 36t8 70v518z" />
<glyph unicode="G" horiz-adv-x="948" d="M653 755q0 87 -41 129t-102 42q-115 0 -183.5 -124t-68.5 -329q0 -121 36 -216t99.5 -148.5t135 -53.5t128.5 23v184q0 47 -8 68.5t-30.5 35t-73.5 27.5l12 39h330l16 -22l-16 -23q-29 -37 -38 -80t-9 -131v-176l-21 -8l-106 55q-100 -66 -226 -65q-205 0 -324.5 133 t-119.5 361t130 363.5t351 135.5q141 0 230.5 -54.5t89.5 -141.5t-72 -136t-180 -49q61 74 61 161z" />
<glyph unicode="H" horiz-adv-x="1085" d="M725 170v287h-363v-199q0 -128 24 -163.5t63 -69.5l-15 -25h-360l-13 37q68 18 86.5 41.5t18.5 91.5v532q0 98 -15.5 138.5t-74.5 89.5l16 26h348l15 -32q-59 -35 -76 -65t-17 -105v-240h363v188q0 98 -15.5 138.5t-74.5 89.5l16 26h348l17 -32q-59 -35 -76.5 -65 t-17.5 -105v-496q0 -127 24.5 -163t63.5 -70l-17 -25h-360l-12 37q47 12 68.5 25.5t28.5 37t7 70.5z" />
<glyph unicode="I" horiz-adv-x="516" d="M160 170v532q0 98 -15.5 138.5t-74.5 89.5l18 26h346l15 -32q-59 -35 -76 -65t-17 -105v-504q0 -96 15.5 -136t72.5 -89l-16 -25h-358l-15 37q47 12 68.5 25.5t29 37t7.5 70.5z" />
<glyph unicode="J" horiz-adv-x="679" d="M256 35q98 0 98 194v537q0 55 -9 81.5t-31.5 41t-73.5 31.5l14 36h356l17 -22l-17 -23q-33 -45 -46 -94t-13 -129v-334q0 -373 -322 -372q-102 0 -164.5 46t-62.5 119.5t64.5 122.5t160.5 60l6 -15q-59 -49 -59 -161q0 -52 20.5 -85.5t61.5 -33.5z" />
<glyph unicode="K" horiz-adv-x="929" d="M360 471v-221q0 -94 15.5 -134t73.5 -91l-15 -25h-368l-15 37q51 14 73.5 27.5t31 36t8.5 69.5v532q0 98 -15.5 138.5t-72.5 89.5l16 26h357l14 -32q-66 -35 -84.5 -66t-18.5 -104v-254h7l243 276q31 40 33 67t-14 68l-13 23l27 22h242l12 -36l-47 -15q-57 -25 -109 -82 l-286 -327q106 -8 167.5 -44t90.5 -106l94 -237q19 -50 56.5 -50t80.5 33l17 -22q-84 -88 -197 -88q-80 0 -123 39.5t-82 142.5l-78 201q-25 55 -47 80.5t-74 25.5z" />
<glyph unicode="L" horiz-adv-x="770" d="M356 729v-571q0 -66 18.5 -86.5t82.5 -20.5h78q59 0 94 40t71 153l41 -15v-245l-20 -19q-27 20 -59.5 27.5t-98.5 7.5h-504l-12 37q51 14 73.5 27.5t31 36t8.5 69.5v522q0 131 -24.5 167t-65.5 71l18 26h356l15 -32q-47 -27 -67.5 -47.5t-28 -51t-7.5 -96.5z" />
<glyph unicode="M" horiz-adv-x="1228" d="M905 130q0 38 -33 509l-12 178l-276 -786h-58l-274 780l-29 -467q-8 -98 -8 -144q0 -89 64 -180l-19 -20h-227l-13 37q53 17 77 29t33 34t13 70l25 393q10 137 10 193t-15 90q-15 33 -69 84l15 26h299l210 -637l224 637h264l20 -22q-39 -57 -52 -94q-13 -36 -13 -86 t8 -131l27 -365q4 -82 24 -137t66 -101l-17 -20h-356l-14 37q68 19 87 37t19 56z" />
<glyph unicode="N" horiz-adv-x="1003" d="M860 688v-571q0 -43 19 -72l18 -25l-18 -20h-213l-455 784v-516q0 -82 13.5 -130t45.5 -93l19 -25l-19 -20h-225l-14 37q53 14 74.5 26.5t29.5 35t8 71.5v541q0 90 -16 131t-72 88l17 26h266l457 -790v620q0 61 -26 86t-105 48l12 36h244l18 -22l-18 -23 q-33 -47 -46.5 -96t-13.5 -127z" />
<glyph unicode="O" horiz-adv-x="1011" d="M758 473q0 131 -32 235.5t-88 163t-130 58.5t-134 -58q-124 -122 -124 -405q0 -199 67.5 -318.5t182.5 -119.5q75 0 133.5 56t91.5 156.5t33 231.5zM43 477.5q0 229.5 125 363.5t338 134t339 -134t126 -362.5t-126 -362.5t-339 -134t-338 133t-125 362.5z" />
<glyph unicode="P" horiz-adv-x="864" d="M639 666q0 106 -50 183t-138 77q-47 0 -69 -27t-22 -59v-572q0 -82 14 -129t48 -94l16 -25l-16 -20h-356l-15 37q53 14 75 26t30 35t8 72v545q0 71 -11 109t-53 63l-24 14l8 27q154 47 350 47q194 0 302 -87t108 -231q0 -87 -42 -154t-111 -102q-150 -76 -296 7l4 18 l35 -2l35 2q80 12 125 72q45 62 45 168z" />
<glyph unicode="Q" horiz-adv-x="1011" d="M500 29q76 0 134 56t91 156.5t33 231.5t-32 235.5t-88 163t-130 58.5t-134 -58q-124 -122 -124 -405q0 -199 67.5 -318.5t182.5 -119.5zM820.5 -270q68.5 0 125.5 73l25 -18q-41 -63 -89 -94t-123 -31t-126 33t-90 97.5t-97 193.5q-188 18 -295.5 149t-107.5 352 t125 355.5t338 134.5t339 -134t126 -347.5t-96.5 -342t-264.5 -159.5q20 -45 47 -107.5t61 -108.5t102.5 -46z" />
<glyph unicode="R" horiz-adv-x="921" d="M758 -18q-74 0 -116 33.5t-73 115.5l-59 180q-20 55 -36.5 81t-51.5 40l-35 19l4 20q16 -2 42 -2q102 0 150 64.5t48 164t-51.5 164t-139.5 64.5t-88 -86v-572q0 -80 13.5 -128t48.5 -95l16 -25l-16 -20h-357l-14 37q51 14 73.5 27.5t31 36t8.5 69.5v545 q0 72 -11.5 109.5t-52.5 62.5l-24 14l8 27q63 20 162.5 33.5t177.5 13.5q195 0 307.5 -78t112.5 -213q0 -94 -60.5 -167t-154.5 -97q74 -33 102 -111l72 -200q16 -49 58 -49.5t81 32.5l16 -22q-74 -88 -192 -88z" />
<glyph unicode="S" horiz-adv-x="794" d="M551 791.5q0 62.5 -37 98.5t-107.5 36t-108.5 -37t-38 -104.5t57.5 -120t156.5 -108.5q98 -56 148 -91q118 -84 118.5 -211t-100.5 -199.5t-258.5 -72.5t-247 55t-89.5 149q0 61 42 97t98.5 36t101.5 -24q-63 -33 -64 -129q0 -57 42 -97t115 -40t115 41t42 107.5 t-52.5 112.5t-147.5 99t-149 92q-128 92 -128.5 220.5t99 201t248 72.5t234.5 -52.5t86 -138.5q0 -55 -37 -86.5t-91 -31.5t-103 22q55 41 55 103.5z" />
<glyph unicode="T" horiz-adv-x="823" d="M311 819q0 51 -9 68.5t-36 17.5h-22q-70 0 -105 -42t-71 -150l-41 14v256l20 18l25 -18q39 -27 151 -27h375q113 0 152 27l24 18l23 -18v-256l-43 -14q-39 113 -73 152.5t-101 39.5h-27q-27 0 -36 -17.5t-9 -68.5v-649q0 -84 40 -106q22 -12 75 -27l-15 -37h-356l-16 20 l16 25q35 47 48 95t11 128v551z" />
<glyph unicode="U" horiz-adv-x="985" d="M336 322q0 -279 209 -279q117 0 180 72.5t63 206.5v464q0 63 -23.5 87t-100.5 47l14 36h237l19 -22l-19 -23q-35 -47 -48 -95t-11 -128v-348q0 -176 -90 -267t-262 -91t-268.5 94t-96.5 264v367q0 94 -16.5 135t-71.5 88l15 26h358l14 -32q-47 -25 -67.5 -44.5t-27.5 -50 t-7 -92.5v-415z" />
<glyph unicode="V" horiz-adv-x="925" d="M301 848q0 -24 14 -70l205 -616l205 612q14 45 14 69q0 47 -57 62l-37 15l14 36h246l17 -22q-51 -41 -76 -74t-43 -88l-258 -772h-178l-263 772q-20 57 -44 90t-74 72l16 22h373l12 -36l-29 -9q-33 -8 -45 -23q-12 -16 -12 -40z" />
<glyph unicode="W" horiz-adv-x="1435" d="M301 847q0 -23 14 -69l205 -610l158 532l-23 72q-20 57 -43.5 89t-74.5 73l16 22h373l14 -36l-31 -9q-57 -14 -57 -63q0 -24 14 -70l181 -612l202 608q25 81 1 108q-14 15 -44 23l-37 15l13 36h248l16 -22q-51 -39 -75.5 -73t-45.5 -89l-258 -772h-176l-174 575 l-172 -575h-178l-263 772q-20 57 -43.5 89t-74.5 73l16 22h373l12 -36l-29 -9q-57 -18 -57 -64z" />
<glyph unicode="X" horiz-adv-x="915" d="M569 96q0 35 -39 92l-124 191l-136 -199q-28 -44 -28 -71q0 -28 18 -64l10 -25l-24 -20h-219l-13 37l31 8q50 13 94 72l226 323l-232 353q-61 90 -125 141l17 22h405l10 -36l-30 -9q-58 -14 -58 -49t39 -96l115 -176l127 186q27 43 28 70t-16 65l-12 23l24 22h220l12 -36 l-31 -9q-51 -13 -94 -71l-217 -312l246 -374q59 -85 120 -134l-16 -20h-405l-11 37l31 8q57 16 57 51z" />
<glyph unicode="Y" horiz-adv-x="829" d="M508 170q0 -84 40 -106q22 -12 73 -27l-13 -37h-358l-17 20l17 25q35 45 48 93t13 130v142l-194 356q-33 66 -61.5 101.5t-71.5 66.5l18 22h375l10 -36l-31 -9q-59 -12 -59 -47q0 -20 41 -96l139 -262l148 280q16 27 16 53.5t-16.5 46t-40.5 25.5l-39 9l12 36h236l16 -22 l-21 -23q-55 -68 -94 -141l-186 -356v-244z" />
<glyph unicode="Z" horiz-adv-x="794" d="M283 905q-66 0 -103 -41t-74 -151l-38 14v256l20 18l25 -18q35 -27 151 -27h514l-510 -905h275q59 0 95 43t73 150l41 -15v-245l-21 -19q-51 35 -170 35h-543l512 905h-247z" />
<glyph unicode="[" horiz-adv-x="534" d="M524 1030v-55l-106 -14q-42 -9 -58 -23t-16 -49v-897q0 -33 15 -48t59 -22l106 -16v-56h-385v1180h385z" />
<glyph unicode="\" horiz-adv-x="493" d="M14 1040h68l399 -1124h-67z" />
<glyph unicode="]" horiz-adv-x="534" d="M395 -150h-385v56l107 16q43 6 58 22t15 48v897q0 35 -15 49t-58 23l-107 14v55h385v-1180z" />
<glyph unicode="^" horiz-adv-x="827" d="M698 530h-108l-178 338l-176 -338h-109l229 426h113z" />
<glyph unicode="_" horiz-adv-x="473" d="M-35 -113q0 66 35 95h508q0 -68 -35 -95h-508z" />
<glyph unicode="`" horiz-adv-x="382" d="M57 914q0 66 76 98l209 -224l-27 -32l-168 61q-90 31 -90 97z" />
<glyph unicode="a" horiz-adv-x="747" d="M434 303q-205 0 -205 -129q0 -41 22.5 -65.5t61.5 -24.5q121 0 121 219zM434 444q0 189 -94 189t-94 -99q0 -50 37 -81q-44 -25 -95 -25q-100 0 -100 98q0 70 68.5 112t189.5 42t195.5 -57.5t74.5 -155.5v-354q0 -57 41 -58q39 0 76 31l17 -20q-76 -84 -181 -84 q-119 0 -131 127h-8q-71 -127 -211 -127q-78 0 -125 48t-47 131t84 134t227 51q27 0 76 -4v102z" />
<glyph unicode="b" horiz-adv-x="808" d="M385 29q170 0 170 296t-166 296q-51 0 -96 -31v-541q45 -20 92 -20zM454 680q96 0 163 -42t105 -116t38 -173t-50 -184t-138 -134t-197 -49q-168 0 -269 84v808q0 29 -26 29h-64l-6 21q40 36 102 58t122 22t59 -43v-345q65 64 161 64z" />
<glyph unicode="c" horiz-adv-x="688" d="M469 486q0 142 -99 143q-50 0 -84 -83t-34 -213t48 -207t146.5 -77t178.5 88l24 -16q-43 -61 -112.5 -100t-161.5 -39q-143 0 -235.5 96t-92.5 253t96.5 253t255.5 96q113 0 182.5 -50t69.5 -124t-41 -113t-94 -39t-92 25q45 41 45 107z" />
<glyph unicode="d" horiz-adv-x="835" d="M252 330q0 -250 133 -250q78 0 129 86v440q-41 20 -90 21q-172 0 -172 -297zM638 1004q60 0 60 -43v-844q0 -61 39 -61.5t76 30.5l16 -20q-76 -84 -178 -84q-63 0 -94 27.5t-41 90.5q-103 -118 -237 -118q-102 0 -167 90t-65 247.5t90 259t246 101.5q72 0 131 -33v227 q0 29 -27 29h-69l-8 21q41 37 104.5 58.5t123.5 21.5z" />
<glyph unicode="e" horiz-adv-x="706" d="M246 340v-33q127 0 180 53.5t53 121.5t-27.5 108.5t-70.5 40.5q-64 0 -99.5 -77t-35.5 -214zM655 125q-99 -143 -282 -143q-90 0 -165 45t-118 123.5t-43 179.5q0 160 97.5 255t258.5 95q115 0 188 -54.5t73 -146.5t-83 -150.5t-227 -58.5q-57 0 -104 9q10 -106 61 -168 t127 -62q114 0 193 94z" />
<glyph unicode="f" horiz-adv-x="462" d="M123 215v363h-105q0 35 4 45t25 16l76 18q0 177 77 271t220 94q90 0 146 -39t56 -98t-32 -93q-33 -34 -80 -34t-82 16q37 31 37 86q0 113 -70 113q-41 0 -63 -43t-23 -121v-152h150q0 -57 -31 -79h-119v-443q1 -49 14 -66t62 -28l27 -6l-13 -35h-319l-17 20l17 21 q43 57 43 174z" />
<glyph unicode="g" horiz-adv-x="813" d="M266 365q0 -119 31 -182.5t88 -63.5q82 0 129 86v407q-47 20 -90 21q-158 0 -158 -268zM61 339q0 151 100.5 246t270.5 95q58 0 155 -15t130 -20l16 -16l-16 -25q-18 -25 -19 -51v-553q0 -162 -93 -251t-259 -89q-102 0 -165.5 39t-63.5 98t32.5 93t79 34t82.5 -16 q-37 -37 -37 -91.5t28 -83t71 -28.5q143 0 143 234v198q-101 -117 -229 -117q-100 0 -163 84t-63 235z" />
<glyph unicode="h" horiz-adv-x="890" d="M261.5 1004q60.5 0 60.5 -43v-506q29 96 101.5 160.5t157.5 64.5t124.5 -57.5t39.5 -182.5v-323q0 -62 39 -62t76 31l17 -20q-76 -84 -164.5 -84t-120 37.5t-31.5 123.5v314q0 119 -76 118q-74 0 -118.5 -100t-44.5 -237t40 -197l17 -21l-17 -20h-296l-13 35l29 6 q33 8 43 25.5t10 68.5v731q0 37 -26 37h-64l-8 21q39 37 101.5 58.5t123 21.5z" />
<glyph unicode="i" horiz-adv-x="434" d="M344 55q39 0 76 31l16 -20q-76 -84 -164 -84t-120.5 37.5t-32.5 123.5v406q0 29 -27 29h-63l-6 22q41 35 102 57.5t105 22.5q76 0 75 -45v-518q0 -62 39 -62zM216 1004q36 0 78 -45.5t42 -83t-42 -81.5t-78 -44t-77 44t-41 81.5t41 83t77 45.5z" />
<glyph unicode="j" horiz-adv-x="403" d="M-23 -195q0 -98 68 -98q74 0 74 135v707q0 29 -27 29h-63l-6 22q39 33 102 56.5t107 23.5q76 0 75 -45v-635q0 -164 -73.5 -252t-200.5 -88q-94 0 -153.5 39t-59.5 98.5t32.5 93t79 33.5t82.5 -16q-37 -33 -37 -103zM212 1004q36 0 78 -45.5t42 -83t-42 -81.5t-78 -44 t-77 44t-41 81.5t41 83t77 45.5z" />
<glyph unicode="k" horiz-adv-x="782" d="M261.5 1004q60.5 0 60.5 -43v-555l122 90q43 31 59.5 49t16.5 43t-24 45l-17 12l17 21h247l13 -35q-51 -12 -115 -58l-242 -176q90 -10 139.5 -42.5t71.5 -94.5l58 -164q14 -45 51 -45t74 31l16 -21q-72 -80 -178 -79q-66 0 -104 28.5t-58 95.5l-63 181q-21 62 -84 80 v-154q0 -108 40 -172l17 -21l-17 -20h-296l-13 35l29 6q33 8 43 25.5t10 68.5v739q0 29 -26 29h-64l-8 21q39 37 101.5 58.5t123 21.5z" />
<glyph unicode="l" horiz-adv-x="419" d="M231.5 1004q59.5 0 59.5 -43v-844q0 -62 39 -62t76 31l16 -20q-72 -84 -178 -84q-72 0 -105 33.5t-33 107.5v751q0 29 -26 29h-66l-6 21q39 37 101.5 58.5t122 21.5z" />
<glyph unicode="m" horiz-adv-x="1280" d="M273 666q58 0 61 -43v-168q27 93 90 159t145 66t121 -54t41 -171h4q29 98 94 161q66 64 147 64q161 1 161 -240v-323q0 -61 39 -62q39 0 75 31l17 -20q-76 -84 -165 -84t-120 40t-31 140v295q0 119 -78 118q-66 1 -102 -109t-36 -213q1 -103 10 -140t32 -72l17 -21 l-17 -20h-227v457q0 119 -78 118q-67 1 -103 -109t-36 -213t9 -140t34 -72l16 -21l-16 -20h-297l-12 35l28 6q33 7 43 25t11 69v400q0 31 -27 30h-66l-6 21q41 36 103 58t119 22z" />
<glyph unicode="n" horiz-adv-x="903" d="M799 55q39 0 75 31l17 -20q-76 -84 -164 -84t-120 37.5t-32 123.5v314q0 119 -75 118q-74 0 -120 -100t-46 -234t43 -200l16 -21l-16 -20h-297l-12 35l28 6q33 8 43.5 25.5t10.5 68.5v400q0 39 -27 38h-66l-6 23q41 35 102.5 57.5t105.5 22.5q75 0 75 -45v-176 q29 96 102.5 160.5t158.5 64.5t125 -57.5t40 -182.5v-323q0 -62 39 -62z" />
<glyph unicode="o" horiz-adv-x="788" d="M394 637q-63 0 -103.5 -85t-40.5 -223t38 -220t101.5 -82t104.5 83t41 218t-39 222t-102 87zM393 680q160 0 254 -95.5t94 -255t-94 -253.5t-254 -94t-253 94t-93 255t93 255t253 94z" />
<glyph unicode="p" horiz-adv-x="817" d="M393 47q172 0 172 283q0 122 -33 186t-94 64q-82 0 -135 -109v-397q39 -27 90 -27zM537 680q104 0 169 -91q64 -91 64 -217q-1 -241 -144 -338q-69 -46 -164 -46t-159 59v-233q0 -48 13 -66t63 -29l27 -6l-13 -35h-317l-17 21l17 20q43 57 43 172v644q0 37 -27 36h-63 l-6 23q39 36 101 58t120 22t59 -45v-90q97 141 234 141z" />
<glyph unicode="q" horiz-adv-x="829" d="M252 330q0 -250 140 -250q72 0 120 86v448q-47 18 -90 19q-170 0 -170 -303zM47 320q-1 158 103 258q104 102 280 102q64 0 158 -15t129 -20l14 -16l-16 -25q-17 -20 -17 -51v-662q0 -110 41 -172l17 -20l-17 -21h-319l-14 35l28 6q52 9 66 27t14 68v286 q-100 -120 -235 -118q-102 0 -167 90t-65 248z" />
<glyph unicode="r" horiz-adv-x="649" d="M483 530.5q0 61.5 -47 61.5t-79.5 -99.5t-32.5 -211t9 -156.5t32 -84l16 -21l-16 -20h-297l-13 35l29 6q33 8 43 25.5t10 68.5v400q0 39 -26 38h-64l-8 23q39 35 97.5 57.5t100.5 22.5q74 0 74 -45v-150h6q43 199 177 199q65 0 106 -38t41 -95t-33 -91t-80 -34t-82 16 q37 31 37 92.5z" />
<glyph unicode="s" horiz-adv-x="669" d="M205 124q0 -95 101 -95q44 0 78 24.5t34 68.5t-34 69.5t-102 58.5q-68 32 -109 58q-97 62 -97 163.5t77.5 155t189 53.5t178.5 -39t67 -93q0 -99 -103 -99q-43 0 -75 18q36 35 36 79q-1 87 -96 87q-47 0 -73.5 -26.5t-26.5 -72t40 -77t115 -67.5t111 -60 q92 -59 92 -150.5t-83 -144.5t-204.5 -53t-189.5 37.5t-68 99.5q0 41 31 68.5t71 27.5t75 -14q-35 -27 -35 -77z" />
<glyph unicode="t" horiz-adv-x="485" d="M286.5 -18q-96.5 0 -133 37.5t-36.5 123.5v435h-103q0 35 4.5 45t24.5 16q125 33 161 145q16 48 30 53t69 5v-185h168q0 -58 -31 -79h-137v-461q0 -61 51 -62q51 0 101 54l16 -21q-88 -106 -184.5 -106z" />
<glyph unicode="u" horiz-adv-x="878" d="M307 225q0 -145 77 -145t123 93t46 208t-11.5 159t-39.5 76l-19 23l17 18l235 19v-559q0 -61 37 -62q39 0 76 31l16 -20q-72 -84 -164 -84t-121.5 45t-29.5 159q-29 -90 -99.5 -147t-155.5 -57q-171 0 -171 233v334q0 29 -27 29h-63l-6 22q41 35 102 57.5t105 22.5 q74 0 73 -45v-410z" />
<glyph unicode="v" horiz-adv-x="745" d="M561 368q0 152 -74 253l-18 22l16 16l172 21q6 -88 7 -141q0 -261 -80 -409t-215 -148q-106 0 -161 63q-54 63 -77 209l-43 295q-3 27 -27 29h-55l-6 22q89 80 211 80q31 0 44 -18t21 -74l54 -367q14 -100 32 -137t58 -37q65 0 103 85q38 84 38 236z" />
<glyph unicode="w" horiz-adv-x="1140" d="M211 680q31 0 44 -18.5t21 -71.5l54 -369q14 -100 32.5 -137t55.5 -37q57 0 91 70.5t34 188.5t-31 243q-4 16 -8 22.5t-19 6.5h-53l-6 22q39 37 96.5 58.5t100.5 21.5t57 -19.5t20 -70.5l52 -359q16 -111 35.5 -147.5t48.5 -36.5q55 0 88.5 83t33.5 194.5t-17 178 t-56 118.5l-17 22l15 16l172 21q6 -80 6 -141q0 -262 -75 -409.5t-214 -147.5q-84 0 -127 43t-72 157q-41 -201 -215 -200q-98 0 -152 64.5t-75 207.5l-43 295q-4 29 -27 29h-55l-6 22q89 80 211 80z" />
<glyph unicode="x" horiz-adv-x="749" d="M231 112q0 -37 23 -71l14 -21l-16 -20h-215l-12 33l268 270l-141 260q-25 45 -57 45t-68 -26l-15 22q69 76 174 76q66 0 106 -31t77 -108l69 -129q78 98 78 137t-20 74l-17 18l17 21h217l12 -33l-262 -262l147 -271q25 -45 58 -45t67 31l19 -21q-64 -79 -176 -79 q-63 0 -104 30q-40 31 -81 109l-76 139q-86 -111 -86 -148z" />
<glyph unicode="y" horiz-adv-x="831" d="M299 20q-176 0 -176 224v305q0 29 -27 29h-63l-6 22q39 35 102.5 57.5t105.5 22.5q72 0 72 -45v-414q0 -115 71 -115t114 84t43 191t-12.5 154t-39.5 81l-16 23l14 18l236 19v-676q0 -162 -93.5 -251t-258.5 -89q-102 0 -166 39t-64 98t33 93t79 34t83 -16 q-37 -37 -37 -91.5t27.5 -83t70.5 -28.5q143 0 144 234v260q-27 -78 -93.5 -128.5t-142.5 -50.5z" />
<glyph unicode="z" horiz-adv-x="659" d="M225 666h377q27 -25 27 -58l-37 -20l-338 -527h197q45 0 67.5 17.5t32.5 58.5l16 76l41 -14v-215l-16 -17q-53 33 -158 33h-387l-14 41l362 563h-188q-83 0 -101 -76l-14 -75l-43 14v215l17 16q52 -32 159 -32z" />
<glyph unicode="{" horiz-adv-x="438" d="M82 215q0 113 -20 157t-80 54v29q59 10 79 54t21 157q0 160 85 254t241 110l10 -37q-61 -18 -87 -91t-26 -222q0 -201 -147 -236q147 -31 147 -235q0 -153 26 -228t87 -92l-10 -39q-156 16 -241 110t-85 255z" />
<glyph unicode="|" horiz-adv-x="466" d="M168 991h131v-1100h-131v1100z" />
<glyph unicode="}" horiz-adv-x="438" d="M356 666q0 -113 20 -157t81 -54v-29q-59 -10 -79 -54t-22 -157q0 -160 -85 -254t-240 -111l-11 39q62 15 88 91t25 229q1 204 148 235q-147 35 -148 236q1 150 -25 222t-88 91l11 37q157 -16 241 -110t84 -254z" />
<glyph unicode="~" horiz-adv-x="827" d="M578 473q-54 0 -86 -11t-103 -43q-70 -32 -137 -32q-68 0 -121 41v102q61 -43 129 -43t136 33q69 33 101 43t68 10q80 0 129 -43v-102q-62 45 -116 45z" />
<glyph unicode="&#xa1;" horiz-adv-x="346" d="M171 -352q-83 0 -118 37q0 75 36 321t65 373h34q29 -129 66 -375t37 -319q-37 -37 -120 -37zM171 455q-32 0 -71 40q-39 39 -39 73t39 73t71 39t69 -40t37 -72t-37 -73q-37 -40 -69 -40z" />
<glyph unicode="&#xa2;" horiz-adv-x="679" d="M469 636q1 142 -99 142q-50 0 -84 -83t-34 -213t48 -207t146 -77t179 89l24 -17q-94 -135 -262 -139v-211q-14 -31 -57 -31v244q-127 17 -205 111t-78 234t76 232t207 113v213q16 31 57 31v-238h12q113 0 183 -50t70 -124q0 -75 -42 -113q-41 -38 -94 -38t-92 24 q45 42 45 108z" />
<glyph unicode="&#xa3;" horiz-adv-x="815" d="M338 659q0 -28 18 -208h254q0 -41 -30 -58h-222q-1 -76 -28 -136t-103 -105h541q0 -106 -45 -152h-647l-35 57q72 47 114 123t42 130t-7 83h-127q0 43 31 58h84q-47 141 -47 229q0 133 85 214t261 81q129 0 211 -52q82 -53 82 -137t-70 -132t-168 -52q60 64 60 180 q0 60 -35 102t-89 42t-92 -56t-38 -211z" />
<glyph unicode="&#xa4;" horiz-adv-x="845" d="M535 486q0 112 -29 173t-80 61t-84 -65t-33 -177t29 -173t79 -61t84 65t34 177zM420 197q-108 0 -189 53l-141 -141q-20 27 -20 61l116 117q-74 81 -74 195t76 194l-141 139q23 20 64 21l120 -121q76 51 190 51t191 -55l146 145q18 -25 18 -63l-121 -119q74 -80 74 -193 t-74 -192l142 -142q-27 -18 -64 -18l-121 121q-84 -53 -192 -53z" />
<glyph unicode="&#xa5;" horiz-adv-x="829" d="M756 584q0 -41 -31 -58h-154l-59 -112v-11h244q0 -41 -31 -57h-213v-176q0 -86 41 -107q23 -12 72 -26l-13 -37h-358l-16 20l16 25q35 45 48 93t13 130v78h-243q0 43 30 57h213v7l-63 116h-180q0 43 30 58h117l-98 182q-33 66 -62 102t-71 66l18 22h375l10 -36l-31 -9 q-59 -12 -59 -47q0 -22 41 -96l139 -262l148 280q16 27 16 54t-16 46t-41 25l-39 9l12 36h236l16 -22l-20 -23q-56 -67 -95 -141l-98 -186h156z" />
<glyph unicode="&#xa6;" horiz-adv-x="466" d="M168 281h131v-390h-131v390zM168 991h131v-389h-131v389z" />
<glyph unicode="&#xa7;" horiz-adv-x="610" d="M203 -184q1 -43 23 -70t60 -27t66 34t27 87q1 84 -93 178t-127 146q-34 54 -34 116t39 123l252 -247q123 -120 123 -254q0 -98 -69 -170t-214 -72q-102 0 -167 41t-65 109t65 111q65 42 157 46l6 -16q-49 -51 -49 -135zM231 793q-1 -83 93 -177t128 -147q72 -113 -3 -240 l-256 248q-123 120 -121 254q0 98 68 170q69 72 216 72q100 0 165 -42q65 -41 65 -109t-65 -111t-156 -47l-7 18q47 49 48 135q0 43 -23 70t-59 27t-65 -34q-28 -34 -28 -87z" />
<glyph unicode="&#xa8;" horiz-adv-x="561" d="M417 975q31 0 67 -39t36 -71q0 -33 -37 -69t-67 -36t-65 38q-36 38 -36 68t36 70q36 39 66 39zM142 975q30 0 66 -39t36 -71q0 -33 -36 -69t-66 -36t-66 37t-35 69q0 32 36 70q35 39 65 39z" />
<glyph unicode="&#xa9;" horiz-adv-x="903" d="M530 802q0 108 -71 105q-61 1 -91 -71t-30 -170t44 -165t120 -67t135 68l12 -10q-71 -99 -187 -99t-179 76t-64 195q-1 120 63 196t187 76q76 0 124 -32t48 -85t-40 -84t-103 -33v13q32 33 32 87zM450 313q96 0 175 47q80 47 127 127q47 79 47 175t-47 177t-127 128 t-175 47q-94 0 -176 -47t-129 -128t-47 -177t47 -175q47 -80 128 -127t177 -47zM449 279q-104 0 -193 52q-88 52 -139 140q-51 89 -51 193t51 192t139 140t192 52t193 -52q88 -52 140 -140q53 -88 53 -192t-52 -192t-141 -141q-88 -52 -192 -52z" />
<glyph unicode="&#xaa;" horiz-adv-x="552" d="M252 721q-28 -1 -49 -21t-21 -57q-1 -80 45 -80q29 0 53 38t25 110q-25 10 -53 10zM303 809q0 127 -56 127t-59 -74q0 -45 35 -65l-2 -15q-162 0 -162 82q1 49 53 80t140 31t147 -40t60 -112v-243q0 -41 20 -41q27 0 56 26l16 -22q-55 -61 -127 -62q-102 0 -115 94h-8 q-55 -94 -145 -94q-53 0 -90 32q-37 33 -37 101t58 104q57 36 123 36t93 -6v61z" />
<glyph unicode="&#xab;" horiz-adv-x="688" d="M344 371q0 25 32 82t126 209q96 -14 145 -99q-29 -46 -186 -192q152 -139 186 -191q-45 -84 -145 -98l-25 41q-82 131 -107 177q-26 46 -26 71zM49 370q0 26 32 85t124 207q96 -12 147 -99q-20 -33 -76 -88t-67 -63l-43 -41q159 -147 186 -191q-28 -51 -66 -71t-81 -27 q-94 154 -125 208t-31 80z" />
<glyph unicode="&#xac;" horiz-adv-x="829" d="M696 526v-303h-90v201h-473v102h563z" />
<glyph unicode="&#xad;" horiz-adv-x="473" d="M43 336q0 67 35 92l350 14q0 -68 -35 -94z" />
<glyph unicode="&#xae;" horiz-adv-x="903" d="M545 786q0 60 -26 92t-68 31q-59 0 -60 -53v-182q78 -1 116 25q38 27 38 87zM613 395q-78 0 -89 74l-22 104q-8 39 -34 57t-75 19v-141q0 -37 11 -53t53 -27l-8 -22h-199l-10 14q30 36 36 64t7 83v226q0 66 -43 100l6 16q96 29 200 29q105 0 159 -42t54 -100 q0 -109 -118 -137v-4q70 -18 88 -102l18 -96q4 -25 31 -25l6 -16q-37 -21 -71 -21zM450 313q96 0 175 47q80 47 127 127q47 79 47 175t-47 177t-127 128t-175 47q-94 0 -176 -47t-129 -128t-47 -177t47 -175q47 -80 128 -127t177 -47zM449 279q-104 0 -193 52 q-88 52 -139 140q-51 89 -51 193t51 192t139 140t192 52t193 -52q88 -52 140 -140q53 -88 53 -192t-52 -192t-141 -141q-88 -52 -192 -52z" />
<glyph unicode="&#xaf;" horiz-adv-x="542" d="M477 926q0 -88 -35 -117h-376q-1 84 34 117h377z" />
<glyph unicode="&#xb0;" horiz-adv-x="606" d="M211 723q0 -201 86 -201q41 0 67 56t26 154q0 96 -23 147t-64 51t-67 -56t-25 -151zM302 973q118 0 188 -67q70 -68 71 -180q0 -112 -71 -178q-72 -66 -190 -67q-118 0 -188 67t-69 179q0 112 70 179q71 67 189 67z" />
<glyph unicode="&#xb1;" horiz-adv-x="827" d="M362 526v232h101v-232h231v-102h-231v-229h-101v229h-231v102h231zM696 100v-102h-563v102h563z" />
<glyph unicode="&#xb2;" horiz-adv-x="534" d="M221 713q-176 5 -176 117q0 58 59 97q59 40 161 40t161 -42t59 -120q0 -154 -321 -326h336q0 -68 -37 -96h-414l-24 45q171 135 235 219t64 168q0 47 -18 77t-48 30q-29 0 -48 -28q-20 -28 -20 -84t35 -83z" />
<glyph unicode="&#xb3;" horiz-adv-x="534" d="M57 854q1 53 59 88t148 35t148 -40t59 -101q0 -98 -115 -148q60 -14 96 -55t36 -107t-62 -109q-62 -42 -164 -42t-162 37q-59 37 -59 89q0 105 170 107l4 -14q-29 -29 -29 -82q0 -90 66 -90q36 0 58 33t22 86t-31 84q-47 47 -147 22l-7 29l33 8q137 35 137 147 q0 43 -18 72q-17 29 -41 29t-40 -23t-15 -72q0 -49 24 -77l-4 -15q-166 4 -166 109z" />
<glyph unicode="&#xb4;" horiz-adv-x="382" d="M362 914q0 -66 -90 -97l-170 -61l-26 32l209 224q77 -32 77 -98z" />
<glyph unicode="&#xb5;" horiz-adv-x="878" d="M307 201q0 -135 84 -135q72 0 117 86t45 204t-12 178t-45 105l16 18l223 19v-676h-80l-106 147q-52 -122 -170 -151q-25 -8 -47 -8t-31 2v-269l-197 19l-16 16l16 25q19 27 19 151v617l-90 29l-6 22q35 30 91 52t115 24l21 2q55 0 53 -43v-434z" />
<glyph unicode="&#xb6;" horiz-adv-x="688" d="M297 -86q37 0 61 39t25 108v242q-152 19 -246 103t-94 200t69 182q69 68 185 68q74 0 173 -16t128 -19l14 -16l-16 -25q-18 -25 -18 -51v-496q0 -190 -77 -279t-241 -89q-96 0 -157 42q-60 41 -60 111t65 121t162 60l6 -17q-57 -51 -57 -155q1 -51 21 -82t57 -31z" />
<glyph unicode="&#xb7;" horiz-adv-x="296" d="M146 578q32 0 72 -42t40 -77t-40 -76t-73 -41t-71 41t-39 76q0 35 39 77q40 42 72 42z" />
<glyph unicode="&#xb8;" horiz-adv-x="466" d="M152 -286q0 -70 55 -70q37 0 57.5 35.5t20.5 84.5t-24.5 78t-63.5 29t-74 -21l-25 25l123 150h53l-90 -111l6 -6q19 6 46 6q76 0 132 -38t56 -109.5t-63.5 -115.5t-147.5 -44t-133 25.5t-49 64.5t21.5 62.5t58 23.5t61.5 -12q-20 -21 -20 -57z" />
<glyph unicode="&#xb9;" horiz-adv-x="460" d="M131 502v342l-88 -58q-23 4 -43 31t-25 53l293 109q25 -10 39 -35l-20 -14v-373q0 -78 35 -131l10 -16l-13 -17h-264l-12 33l43 8q29 6 37 20t8 48z" />
<glyph unicode="&#xba;" horiz-adv-x="575" d="M293 940q-43 0 -68 -59t-25 -155t24 -152t63 -56t65 57t24 143q0 86 -20 154t-63 68zM289 975q115 0 183 -67q68 -68 69 -180q0 -112 -69 -180q-70 -68 -184 -67q-114 0 -183 68t-68 180q-1 112 68 179t184 67z" />
<glyph unicode="&#xbb;" horiz-adv-x="688" d="M639 371q0 -25 -31 -80t-125 -209q-98 14 -147 98q30 48 186 191q-156 147 -186 192q49 84 147 99q96 -158 126 -212t30 -79zM342 372q0 -26 -32 -82t-126 -208q-98 14 -145 98q30 48 186 191q-156 147 -186 192q47 84 145 99q96 -154 127 -209t31 -81z" />
<glyph unicode="&#xbc;" horiz-adv-x="1255" d="M164 498v342l-88 -58q-23 4 -43 31t-25 53l293 109q25 -10 39 -35l-21 -14v-373q2 -83 46 -147l-13 -17h-264l-12 33l43 8q29 6 37 20t8 48zM756 995h69l-399 -1036h-68zM1016 272q0 46 -19 72l11 16l153 11v-187h68q0 -39 -23 -55h-45q0 -47 37 -96l12 -17l-14 -16h-256 l-8 33l37 8q27 6 37 20t10 48v20h-254l-17 23l181 421h141l16 -16l-239 -373h172v88z" />
<glyph unicode="&#xbd;" horiz-adv-x="1257" d="M164 498v342l-88 -58q-23 4 -43 31t-25 53l293 109q25 -10 39 -35l-21 -14v-373q2 -83 46 -147l-13 -17h-264l-12 33l43 8q29 6 37 20t8 48zM756 995h69l-399 -1036h-68zM944 330q-176 4 -176 116q0 58 59 98t161 40t161 -42t59 -120q0 -154 -321 -326h336q0 -68 -37 -96 h-414l-24 45q170 135 234 219t65 168q-1 47 -19 77t-47 30t-48 -28t-19 -84t34 -83z" />
<glyph unicode="&#xbe;" horiz-adv-x="1329" d="M57 850q1 53 59 88t148 35t148 -40t59 -102q0 -98 -115 -147q60 -14 96 -55t36 -108t-62 -109t-164 -41q-102 0 -162 37q-59 37 -59 89q0 103 170 107l4 -14q-29 -29 -29 -82q0 -90 66 -90q36 0 58 33t22 86t-31 84q-47 47 -147 22l-7 29l33 8q137 35 137 147 q0 43 -18 72q-17 29 -41 29t-40 -23t-15 -72q0 -49 24 -77l-4 -15q-166 4 -166 109zM829 995h70l-399 -1036h-68zM1090 272q0 44 -19 72l10 16l154 11v-187h68q0 -39 -23 -55h-45q0 -47 37 -96l12 -17l-14 -16h-256l-8 33l36 8q27 6 37 20t11 48v20h-254l-17 23l180 421h142 l16 -16l-239 -373h172v88z" />
<glyph unicode="&#xbf;" horiz-adv-x="675" d="M459 -162q0 105 -68 152l4 14q113 -4 182 -51t69 -123t-82 -127q-81 -51 -215 -51t-223 64q-89 65 -89 157q0 93 45 155t135 148q67 59 101 99t47 87l6 25h26l62 -63q-219 -223 -219 -430q0 -94 30 -148q31 -53 81 -53t79 40t29 105zM384 455q-32 0 -70 40q-38 39 -38 73 t38 73t70 39t69 -40t37 -72t-37 -73q-37 -40 -69 -40z" />
<glyph unicode="&#xc0;" horiz-adv-x="958" d="M561 375l-139 416l-137 -416h276zM645 108q0 22 -22 89l-41 120h-318l-16 -51q-31 -92 -31 -138t16 -83l15 -25l-19 -20h-225l-14 37l30 8q49 14 74 40t47 91l209 602q14 51 15 72q0 45 -66 63l-23 7l15 36h278l269 -772q20 -57 44.5 -91t75.5 -73l-18 -20h-371l-12 37 l31 8q57 19 57 63zM309 1206q0 67 76 97l209 -224l-27 -32l-170 61q-88 31 -88 98z" />
<glyph unicode="&#xc1;" horiz-adv-x="958" d="M561 375l-139 416l-137 -416h276zM645 108q0 22 -22 89l-41 120h-318l-16 -51q-31 -92 -31 -138t16 -83l15 -25l-19 -20h-225l-14 37l30 8q49 14 74 40t47 91l209 602q14 51 15 72q0 45 -66 63l-23 7l15 36h278l269 -772q20 -57 44.5 -91t75.5 -73l-18 -20h-371l-12 37 l31 8q57 19 57 63zM647 1204.5q0 -66.5 -90 -96.5l-168 -61l-27 32l209 224q76 -32 76 -98.5z" />
<glyph unicode="&#xc2;" horiz-adv-x="958" d="M561 375l-139 416l-137 -416h276zM645 108q0 22 -22 89l-41 120h-318l-16 -51q-31 -92 -31 -138t16 -83l15 -25l-19 -20h-225l-14 37l30 8q49 14 74 40t47 91l209 602q14 51 15 72q0 45 -66 63l-23 7l15 36h278l269 -772q20 -57 44.5 -91t75.5 -73l-18 -20h-371l-12 37 l31 8q57 19 57 63zM281 1073q83 157 163 223h70q68 -53 164 -223l-31 -26l-168 114l-168 -114z" />
<glyph unicode="&#xc3;" horiz-adv-x="958" d="M561 375l-139 416l-137 -416h276zM645 108q0 22 -22 89l-41 120h-318l-16 -51q-31 -92 -31 -138t16 -83l15 -25l-19 -20h-225l-14 37l30 8q49 14 74 40t47 91l209 602q14 51 15 72q0 45 -66 63l-23 7l15 36h278l269 -772q20 -57 44.5 -91t75.5 -73l-18 -20h-371l-12 37 l31 8q57 19 57 63zM530 1079q-33 0 -71.5 25.5t-72.5 25.5t-91 -51l-33 31q88 143 162 143q32 0 71.5 -26.5t73 -26.5t88.5 53l35 -30q-88 -144 -162 -144z" />
<glyph unicode="&#xc4;" horiz-adv-x="958" d="M561 375l-139 416l-137 -416h276zM645 108q0 22 -22 89l-41 120h-318l-16 -51q-31 -92 -31 -138t16 -83l15 -25l-19 -20h-225l-14 37l30 8q49 14 74 40t47 91l209 602q14 51 15 72q0 45 -66 63l-23 7l15 36h278l269 -772q20 -57 44.5 -91t75.5 -73l-18 -20h-371l-12 37 l31 8q57 19 57 63zM615.5 1266q29.5 0 66.5 -39t37 -71t-37 -68.5t-67 -36.5t-65.5 37.5t-35.5 68.5t36 70t65.5 39zM341 1266q30 0 65.5 -39t35.5 -71t-35.5 -68.5t-65.5 -36.5t-65.5 36.5t-35.5 68.5t35.5 71t65.5 39z" />
<glyph unicode="&#xc5;" horiz-adv-x="958" d="M561 375l-139 416l-137 -416h276zM645 108q0 22 -22 89l-41 120h-318l-16 -51q-31 -92 -31 -138t16 -83l15 -25l-19 -20h-225l-14 37l30 8q49 14 74 40t47 91l209 602q14 51 15 72q0 45 -66 63l-23 7l15 36h278l269 -772q20 -57 44.5 -91t75.5 -73l-18 -20h-371l-12 37 l31 8q57 19 57 63zM477 1059q51 0 51 108.5t-51 108.5q-23 0 -36 -31t-13 -77t13.5 -77.5t35.5 -31.5zM315 1167.5q0 65.5 42 106.5t122 41t123 -41t43 -106.5t-43 -106.5t-123 -41t-122 41t-42 106.5z" />
<glyph unicode="&#xc6;" horiz-adv-x="1320" d="M641 477v430h-14l-238 -430h252zM1069 0h-528l-15 37l29 8q51 14 68.5 40t17.5 85v250h-283l-118 -215q-29 -55 -29 -92.5t16 -67.5l15 -25l-19 -20h-225l-14 37l30 8q68 18 103 80l463 831h452q117 0 152 27l24 18l23 -18v-256l-43 -14q-37 115 -73 153.5t-101 38.5h-92 q-51 0 -67.5 -19.5t-16.5 -82.5v-326h145q63 0 92 13.5t43 48.5l10 26l27 -14v-236l-45 -16l-8 43q-8 43 -44 59.5t-120 16.5h-100v-266q0 -63 18 -82t82 -19h100q57 0 93 41t73 152l41 -15v-245l-20 -19q-29 20 -60.5 27.5t-95.5 7.5z" />
<glyph unicode="&#xc7;" horiz-adv-x="849" d="M342 -286q0 -70 55 -70q37 0 57.5 35.5t20.5 84.5t-24.5 78t-63.5 29t-74 -21l-24 25l96 117q-168 33 -256 165t-88 334.5t116.5 343t338.5 140.5q141 0 230 -54.5t89 -141.5t-71.5 -136t-180.5 -49q61 66 62 178q0 66 -40 110t-104 44q-117 0 -171 -133.5t-54 -283 t34 -245.5t98.5 -152.5t154.5 -56.5q160 0 272 152l25 -19q-55 -92 -142.5 -149t-205.5 -57q-42 0 -60 2l-57 -70l6 -6q18 6 45 6q76 0 132 -38t56 -109.5t-63.5 -115.5t-147.5 -44t-133 25.5t-49 64.5t21.5 62.5t58.5 23.5t61 -12q-20 -21 -20 -57z" />
<glyph unicode="&#xc8;" horiz-adv-x="845" d="M164 170v518q0 82 -12.5 129t-47.5 94l-16 23l16 22h453q113 0 152 27l24 18l21 -18v-256l-41 -14q-37 111 -73 151.5t-101 40.5h-93q-53 0 -69.5 -19.5t-16.5 -82.5v-291h148q61 0 91 12.5t44 48.5l10 29l27 -16v-230l-45 -16l-8 45q-8 43 -45 59.5t-119 16.5h-103v-309 q0 -61 18.5 -81t82.5 -20h100q61 0 97 43t69 150l43 -15v-245l-22 -19q-51 35 -168 35h-514l-15 37q51 14 73.5 27.5t31 36t8.5 69.5zM254 1206q0 67 76 97l209 -224l-27 -32l-170 61q-88 31 -88 98z" />
<glyph unicode="&#xc9;" horiz-adv-x="845" d="M164 170v518q0 82 -12.5 129t-47.5 94l-16 23l16 22h453q113 0 152 27l24 18l21 -18v-256l-41 -14q-37 111 -73 151.5t-101 40.5h-93q-53 0 -69.5 -19.5t-16.5 -82.5v-291h148q61 0 91 12.5t44 48.5l10 29l27 -16v-230l-45 -16l-8 45q-8 43 -45 59.5t-119 16.5h-103v-309 q0 -61 18.5 -81t82.5 -20h100q61 0 97 43t69 150l43 -15v-245l-22 -19q-51 35 -168 35h-514l-15 37q51 14 73.5 27.5t31 36t8.5 69.5zM592 1204.5q0 -66.5 -90 -96.5l-168 -61l-27 32l209 224q76 -32 76 -98.5z" />
<glyph unicode="&#xca;" horiz-adv-x="845" d="M164 170v518q0 82 -12.5 129t-47.5 94l-16 23l16 22h453q113 0 152 27l24 18l21 -18v-256l-41 -14q-37 111 -73 151.5t-101 40.5h-93q-53 0 -69.5 -19.5t-16.5 -82.5v-291h148q61 0 91 12.5t44 48.5l10 29l27 -16v-230l-45 -16l-8 45q-8 43 -45 59.5t-119 16.5h-103v-309 q0 -61 18.5 -81t82.5 -20h100q61 0 97 43t69 150l43 -15v-245l-22 -19q-51 35 -168 35h-514l-15 37q51 14 73.5 27.5t31 36t8.5 69.5zM225 1073q84 159 164 223h70q68 -53 164 -223l-31 -26l-168 114l-168 -114z" />
<glyph unicode="&#xcb;" horiz-adv-x="845" d="M164 170v518q0 82 -12.5 129t-47.5 94l-16 23l16 22h453q113 0 152 27l24 18l21 -18v-256l-41 -14q-37 111 -73 151.5t-101 40.5h-93q-53 0 -69.5 -19.5t-16.5 -82.5v-291h148q61 0 91 12.5t44 48.5l10 29l27 -16v-230l-45 -16l-8 45q-8 43 -45 59.5t-119 16.5h-103v-309 q0 -61 18.5 -81t82.5 -20h100q61 0 97 43t69 150l43 -15v-245l-22 -19q-51 35 -168 35h-514l-15 37q51 14 73.5 27.5t31 36t8.5 69.5zM560 1266q30 0 67 -39t37 -71t-37 -68.5t-67 -36.5t-65.5 37.5t-35.5 68.5t35.5 70t65.5 39zM286 1266q30 0 65.5 -39t35.5 -71t-36 -68.5 t-65.5 -36.5t-65.5 36.5t-36 68.5t36 71t66 39z" />
<glyph unicode="&#xcc;" horiz-adv-x="516" d="M160 170v532q0 98 -15.5 138.5t-74.5 89.5l18 26h346l15 -32q-59 -35 -76 -65t-17 -105v-504q0 -96 15.5 -136t72.5 -89l-16 -25h-358l-15 37q47 12 68.5 25.5t29 37t7.5 70.5zM90 1206q0 67 76 97l209 -224l-27 -32l-170 61q-88 31 -88 98z" />
<glyph unicode="&#xcd;" horiz-adv-x="516" d="M160 170v532q0 98 -15.5 138.5t-74.5 89.5l18 26h346l15 -32q-59 -35 -76 -65t-17 -105v-504q0 -96 15.5 -136t72.5 -89l-16 -25h-358l-15 37q47 12 68.5 25.5t29 37t7.5 70.5zM428 1204.5q0 -66.5 -90 -96.5l-168 -61l-27 32l209 224q76 -32 76 -98.5z" />
<glyph unicode="&#xce;" horiz-adv-x="516" d="M160 170v532q0 98 -15.5 138.5t-74.5 89.5l18 26h346l15 -32q-59 -35 -76 -65t-17 -105v-504q0 -96 15.5 -136t72.5 -89l-16 -25h-358l-15 37q47 12 68.5 25.5t29 37t7.5 70.5zM61 1073q84 159 164 223h70q68 -53 164 -223l-31 -26l-168 114l-168 -114z" />
<glyph unicode="&#xcf;" horiz-adv-x="516" d="M160 170v532q0 98 -15.5 138.5t-74.5 89.5l18 26h346l15 -32q-59 -35 -76 -65t-17 -105v-504q0 -96 15.5 -136t72.5 -89l-16 -25h-358l-15 37q47 12 68.5 25.5t29 37t7.5 70.5zM396.5 1266q29.5 0 66.5 -39t37 -71t-37 -68.5t-67 -36.5t-65.5 37.5t-35.5 68.5t36 70 t65.5 39zM122 1266q30 0 65.5 -39t35.5 -71t-35.5 -68.5t-65.5 -36.5t-66 36.5t-36 68.5t36 71t66 39z" />
</font>
</defs>
</svg>
