<svg xmlns="http://www.w3.org/2000/svg" xmlns:xlink="http://www.w3.org/1999/xlink" version="1.1"><metadata/><defs><font id="katibehregular" horiz-adv-x="829"><font-face ascent="1638" descent="-410" units-per-em="2048"/><glyph d="M18 578q0 35 4.5 45t24.5 16l78 18q16 172 110.5 268.5t258.5 96.5q106 0 177.5 -39t71.5 -109q0 -55 -32.5 -88.5t-85.5 -33.5q-41 0 -76 16q37 31 37 92q0 49 -29 81t-84 32q-82 0 -123 -83t-41 -233h213q47 0 109 15q37 8 53 8q25 0 38 -14.5t13 -36.5v-512 q0 -61 39 -62q31 0 76 31l16 -20q-78 -84 -180 -84q-74 0 -105.5 38.5t-31.5 141.5v387q0 29 -27 29h-213v-443q0 -49 13.5 -66.5t62.5 -27.5l27 -6l-13 -35h-319l-17 20l17 21q25 33 34 71t9 103v363h-105z" horiz-adv-x="862" unicode="ﬁ"/><glyph d="M18 578q0 35 4.5 45t24.5 16l78 18q4 172 82 268.5t217 96.5q90 0 149 -45q68 27 123 27q25 0 40.5 -11.5t15.5 -31.5v-844q0 -61 36 -62q39 0 76 31l17 -20q-78 -84 -179 -84q-70 0 -103.5 32.5t-33.5 108.5v674q0 82 -30.5 129t-94.5 47q-76 0 -103.5 -76t-27.5 -240 h150q0 -27 -8.5 -48t-22.5 -31h-119v-443q0 -49 13.5 -66.5t62.5 -27.5l27 -6l-13 -35h-319l-17 20l17 21q25 33 34 71t9 103v363h-105z" horiz-adv-x="878" unicode="ﬂ"/><glyph horiz-adv-x="0"/><glyph horiz-adv-x="0"/><glyph horiz-adv-x="681"/><glyph horiz-adv-x="344"/><glyph horiz-adv-x="344"/><glyph horiz-adv-x="344"/><glyph d="M53 977q16 16 49 26.5t70 10.5t69.5 -10.5t49.5 -26.5q0 -74 -36 -320.5t-65 -373.5h-34q-29 129 -66 374.5t-37 319.5zM68 94q0 33 36.5 73t67.5 40q33 0 72 -40t39 -73q0 -35 -39 -73.5t-72 -38.5q-31 0 -67.5 39.5t-36.5 72.5z" horiz-adv-x="346" unicode="!"/><glyph d="M35 1030q33 39 96 39q61 0 92 -39q0 -55 -25.5 -171t-52.5 -171h-32q-29 53 -53.5 169t-24.5 173zM303 1030q33 39 94 39q64 0 95 -39q0 -57 -25 -173t-53 -169h-35q-27 55 -51.5 170t-24.5 172z" horiz-adv-x="526" unicode="&quot;"/><glyph d="M68 299l22 88h133l49 178h-131l25 88h133l84 303h94l-84 -303h238l84 303h96l-84 -303h133l-24 -88h-134l-49 -178h133l-26 -88h-133l-82 -299h-94l81 299h-237l-84 -299h-94l84 299h-133zM319 387h238l49 178h-237z" horiz-adv-x="925" unicode="#"/><glyph d="M45 207q0 61 42 97t106 36q49 0 94 -25q-63 -33 -64 -129q0 -57 42 -97t114 -40t115 42t43 102q0 63 -51.5 105t-155.5 95q-86 43 -140.5 78t-92.5 90t-38 131q0 106 84 178t226 82v178q16 31 57 31v-207q135 -2 218 -53t83 -137q0 -55 -37 -87t-100 -32q-45 0 -94 23 q27 20 41 51t14 63q0 51 -35 87t-102 36q-74 0 -114 -37t-40 -90q0 -55 31 -96t75 -68.5t121 -66.5q82 -41 133.5 -74t86 -82t34.5 -117q0 -116 -85 -187t-230 -83v-176q-14 -31 -57 -31v205q-145 0 -234.5 55.5t-89.5 149.5z" horiz-adv-x="796" unicode="$"/><glyph d="M45 672q0 133 75 217t193 84q115 0 181.5 -77t66.5 -208q0 -141 -74.5 -229t-193.5 -88q-115 0 -181.5 82t-66.5 219zM205 670q0 -117 25.5 -184.5t70.5 -67.5q47 0 72.5 66.5t25.5 185.5q0 121 -26.5 189.5t-71.5 68.5t-70.5 -70t-25.5 -188zM510 -41l397 1036h70 l-400 -1036h-67zM919 283q0 133 75 217t193 84q115 0 181.5 -77t66.5 -208q0 -141 -74.5 -229t-193.5 -88q-115 0 -181.5 81.5t-66.5 219.5zM1079 281q0 -117 25.5 -184.5t70.5 -67.5q47 0 72.5 66.5t25.5 185.5q0 121 -26.5 189.5t-71.5 68.5t-70.5 -70t-25.5 -188z" horiz-adv-x="1486" unicode="%"/><glyph d="M33 256q0 92 64.5 159.5t185.5 98.5q-92 23 -144.5 78t-52.5 143q0 61 41 116.5t121 89.5t190 34q123 0 189.5 -54.5t66.5 -127.5q0 -80 -65.5 -120t-179.5 -42q72 55 71 157q0 59 -28.5 101.5t-71.5 42.5q-59 0 -93 -56.5t-34 -132.5q0 -98 48 -149t126 -51v-31 q-115 -29 -168 -98.5t-53 -159.5q0 -92 48 -160.5t134 -68.5q80 0 134 56t54 155q0 70 -28 108q-113 0 -160 -22.5t-68 -59.5l-14 6q0 86 28.5 121t90.5 35q20 0 65 -4q39 -6 91 -6q156 0 155 112q0 31 -20.5 71t-42.5 58q80 -2 136 -39.5t56 -107.5q0 -148 -233 -160 q29 -27 46 -62.5t17 -74.5q0 -55 -33.5 -108.5t-108.5 -87t-190 -33.5q-170 0 -270 71.5t-100 202.5z" horiz-adv-x="905" unicode="&amp;"/><glyph d="M35 1030q33 39 96 39q61 0 92 -39q0 -55 -25.5 -171t-52.5 -171h-32q-29 53 -53.5 169t-24.5 173z" horiz-adv-x="258" unicode="'"/><glyph d="M49 440q0 426 379 580l25 -31q-90 -72 -139.5 -216t-49.5 -333q0 -188 49 -331.5t140 -214.5l-25 -33q-379 158 -379 579z" horiz-adv-x="487" unicode="("/><glyph d="M35 -106q90 72 139 215t49 331q0 189 -49 333.5t-139 215.5l24 31q379 -154 379 -580q0 -422 -379 -579z" horiz-adv-x="487" unicode=")"/><glyph d="M82 788q0 25 2 37q2 90 63 168l207 -159l-86 245q55 20 107 21q51 0 106 -21l-88 -248l209 162q59 -76 66 -168q0 -6 1 -15t-1 -22l-256 7l211 -146q-61 -92 -174 -127l-74 242l-72 -242q-109 31 -174 127l209 146z" horiz-adv-x="763" unicode="*"/><glyph d="M131 424v102h231v232h101v-232h231v-102h-231v-229h-101v229h-231z" horiz-adv-x="827" unicode="+"/><glyph d="M20 -150l60 134q18 37 18 69q0 41 -35 70l-24 16l-6 39l16 8q44 23 103 23q49 0 78.5 -25.5t29.5 -81.5q0 -49 -28.5 -97t-92.5 -122l-63 -69z" horiz-adv-x="294" unicode=","/><glyph d="M43 336q0 26 9 53t26 39l350 14q0 -68 -35 -94z" horiz-adv-x="473" unicode="-"/><glyph d="M45 98q0 35 39 77t72 42t72.5 -42t39.5 -77t-40 -75.5t-72 -40.5q-33 0 -72 40.5t-39 75.5z" horiz-adv-x="315" unicode="."/><glyph d="M14 -84l398 1124h69l-399 -1124h-68z" horiz-adv-x="493" unicode="/"/><glyph d="M66 479q0 142 52 254.5t148 177t221 64.5q178 0 281.5 -129t103.5 -340q0 -150 -52 -269.5t-147 -187t-220 -67.5q-182 0 -284.5 139t-102.5 358zM272 477q0 -207 51.5 -328.5t145.5 -121.5q92 0 144.5 123.5t52.5 326.5t-52.5 328t-144.5 125q-94 0 -145.5 -124 t-51.5 -329z" horiz-adv-x="940" unicode="0"/><glyph d="M18 805l441 172l35 -29l-17 -24v-656q0 -82 13.5 -130t46.5 -93l18 -25l-18 -20h-390l-12 37l60 14q53 12 69.5 35t16.5 84v643l-193 -123q-16 10 -35.5 43t-34.5 72z" horiz-adv-x="643" unicode="1"/><glyph d="M35 68q193 164 298 274.5t150 200.5t45 184q0 88 -36.5 146.5t-94.5 58.5q-59 0 -102 -55.5t-43 -133.5q0 -43 19.5 -93t45.5 -77q-113 2 -181 49.5t-68 125.5q0 100 92 163.5t237 63.5q162 0 255 -66.5t93 -183.5q0 -121 -123.5 -259t-390.5 -314h539q0 -47 -12.5 -90.5 t-32.5 -61.5h-651z" horiz-adv-x="811" unicode="2"/><glyph d="M61 190q0 78 63.5 126.5t188.5 48.5q-31 -33 -48 -72t-17 -98q0 -68 41 -112t98 -44q72 0 117 53t45 141q0 106 -58.5 168t-158.5 62q-45 0 -101 -12l-6 38q158 39 227.5 97.5t69.5 169.5q0 76 -33.5 124t-93.5 48q-51 0 -87 -45t-36 -117q0 -90 37 -154q-109 0 -165 45 t-56 117q0 90 84 145.5t219 55.5q147 0 243.5 -65.5t96.5 -166.5q0 -170 -260 -243q135 -23 212 -90.5t77 -163.5q0 -125 -97.5 -194.5t-269.5 -69.5q-145 0 -238.5 58t-93.5 150z" horiz-adv-x="811" unicode="3"/><glyph d="M25 252l333 704h187l24 -20l-411 -664h323v187q0 43 -6 68.5t-22 52.5l14 20l211 37v-365h123q0 -20 -6.5 -33.5t-22.5 -23.5h-94q0 -51 12 -87t47 -83l19 -25l-19 -20h-389l-14 37l61 14q53 12 69.5 35t16.5 84v45h-434z" horiz-adv-x="827" unicode="4"/><glyph d="M61 190q0 74 70 122t182 53l4 -17q-33 -20 -51 -61t-18 -92q0 -66 43 -111t100 -45q68 0 109 59.5t41 157.5q0 113 -71 175.5t-196 62.5q-53 0 -124 -17l-25 47l25 432h552q0 -49 -13 -90t-36 -61h-452l-15 -270q92 18 181 18q176 0 280.5 -81t104.5 -216 q0 -125 -97.5 -199.5t-261.5 -74.5q-145 0 -238.5 58t-93.5 150z" horiz-adv-x="811" unicode="5"/><glyph d="M63 436q0 162 53.5 284t152 188.5t229.5 66.5q123 0 201.5 -51.5t78.5 -128.5q0 -70 -56 -113t-173 -43q20 31 31.5 70t11.5 69q0 66 -33 107t-84 41q-59 0 -105 -62.5t-72 -174t-26 -255.5q0 -47 9 -78h8q20 92 77.5 136.5t159.5 44.5q123 0 196 -67t73 -179 q0 -141 -92.5 -225t-245.5 -84q-117 0 -206 56t-138.5 159.5t-49.5 238.5zM324 260q0 -104 31.5 -162.5t88.5 -58.5q63 0 99.5 61.5t36.5 169.5q0 94 -33 148.5t-88 54.5q-60 0 -97.5 -59.5t-37.5 -153.5z" horiz-adv-x="878" unicode="6"/><glyph d="M20 956q0 -47 12.5 -88t33.5 -63h481l-318 -635q-28 -59 -57 -85t-80 -40l-29 -8l13 -37h340l16 20l-14 25q-18 41 -19 80q0 49 29 127l244 670l-25 34h-627z" horiz-adv-x="677" unicode="7"/><glyph d="M66 203q0 82 53 145.5t145 95.5q-86 51 -135 114t-49 151q0 121 100.5 194.5t261.5 73.5q145 0 229.5 -61.5t84.5 -163.5q0 -78 -56.5 -137.5t-152.5 -88.5q110 -59 169.5 -119.5t59.5 -154.5q0 -125 -104.5 -198.5t-278.5 -73.5q-152 0 -239.5 60t-87.5 163zM244 201 q0 -78 46 -126t116 -48q73 0 119 39.5t46 105.5q0 53 -32.5 93t-73.5 64.5t-141 80.5q-37 -43 -58.5 -97.5t-21.5 -111.5zM281 797q0 -80 54 -132.5t157 -107.5q84 84 83 209q0 72 -41.5 117t-105.5 45q-61 0 -104 -38t-43 -93z" horiz-adv-x="837" unicode="8"/><glyph d="M86 655q0 90 45 164t125 115t178 41q166 0 262.5 -134t96.5 -364q0 -231 -113 -363t-309 -132q-115 0 -190 50t-75 126q0 63 58.5 100t163.5 39q-41 -51 -41 -145q0 -56 29.5 -88.5t76.5 -32.5q92 0 141.5 99t49.5 273l-4 115l-9 2q-33 -63 -94 -98t-141 -35 q-111 0 -180.5 76t-69.5 192zM303 690q0 -98 35 -160.5t90 -62.5q59 0 97 62.5t38 158.5q0 98 -34.5 162.5t-90.5 64.5q-59 0 -97 -63.5t-38 -161.5z" horiz-adv-x="878" unicode="9"/><glyph d="M45 98q0 35 39 77t72 42t72.5 -42t39.5 -77t-40 -75.5t-72 -40.5q-33 0 -72 40.5t-39 75.5zM45 536q0 35 39 77t72 42t72.5 -42t39.5 -77t-40 -75.5t-72 -40.5q-33 0 -72 40.5t-39 75.5z" horiz-adv-x="315" unicode=":"/><glyph d="M22 -150l60 134q18 37 18 69q0 41 -35 70l-24 16l-6 39l16 8q44 23 103 23q49 0 78.5 -25.5t29.5 -81.5q0 -49 -28.5 -97t-92.5 -122l-63 -69zM45 536q0 35 39 77t72 42t72.5 -42t39.5 -77t-40 -75.5t-72 -40.5q-33 0 -72 40.5t-39 75.5z" horiz-adv-x="315" unicode=";"/><glyph d="M131 424v102l563 228v-101l-448 -178l448 -176v-102z" horiz-adv-x="827" unicode="&lt;"/><glyph d="M133 281v102h563v-102h-563zM133 569v101h563v-101h-563z" unicode="="/><glyph d="M133 197v102l451 176l-451 178v101l563 -228v-102z" unicode="&gt;"/><glyph d="M31 827q0 80 81 131.5t205 51.5q144 0 233 -64.5t89 -167.5q0 -82 -45 -144.5t-135 -148.5q-66 -59 -100.5 -99t-47.5 -87l-6 -25h-26l-62 64q113 115 166 220.5t53 209.5q0 94 -30.5 147.5t-86.5 53.5q-45 0 -73.5 -40t-28.5 -106q0 -49 17.5 -89t50.5 -62l-4 -15 q-113 4 -181.5 51.5t-68.5 118.5zM186 94q0 33 37 73t68 40q33 0 70.5 -40t37.5 -73q0 -35 -37.5 -73.5t-70.5 -38.5q-31 0 -68 39.5t-37 72.5z" horiz-adv-x="675" unicode="?"/><glyph d="M59 334q0 154 83 284t224.5 205.5t307.5 75.5q160 0 285.5 -61.5t196.5 -171t71 -246.5q0 -105 -46 -194t-125 -141t-171 -52q-176 0 -176 246q-39 -82 -86.5 -120t-110.5 -38q-74 0 -117 59.5t-43 159.5q0 156 84 248t226 92q51 0 157 -16l90 -11l11 -16l-11 -19 q-16 -18 -18 -55q-27 -332 -27 -373q0 -53 13.5 -83.5t37.5 -30.5q53 0 86 96t33 252q0 195 -100 312.5t-266 117.5q-117 0 -212.5 -68.5t-149.5 -188.5t-54 -267q0 -199 104.5 -311.5t286.5 -112.5q139 0 268 61l15 -33q-80 -43 -154 -62t-158 -19q-160 0 -286.5 61 t-197.5 171t-71 249zM535 375q0 -70 19 -114t52 -44q51 0 85 112.5t38 284.5q-31 16 -74 17q-57 0 -88.5 -67.5t-31.5 -188.5z" horiz-adv-x="1286" unicode="@"/><glyph d="M-10 37l30 8q49 14 74 40t47 91l209 602q14 51 15 72q0 45 -66 63l-23 7l15 36h278l269 -772q20 -57 44.5 -91t75.5 -73l-18 -20h-371l-12 37l31 8q31 10 44 25.5t13 42.5q0 16 -22 84l-41 120h-318l-16 -51q-31 -92 -31 -139q0 -45 16 -82l15 -25l-19 -20h-225zM285 375 h276l-139 416z" horiz-adv-x="958" unicode="A"/><glyph d="M53 37q51 14 74 27.5t31 36t8 69.5v555q0 72 -11.5 104.5t-52.5 57.5l-24 14l8 27q66 20 169 33.5t187 13.5q180 0 281.5 -67.5t101.5 -188.5q0 -76 -48 -132.5t-132 -84.5q100 -23 160.5 -88.5t60.5 -153.5q0 -119 -100 -189.5t-270 -70.5h-428zM362 227q0 -84 36 -133 t96 -49q73 0 121.5 59.5t48.5 151.5q0 94 -63.5 153.5t-180.5 79.5v25q94 0 148.5 55.5t54.5 149.5t-45.5 150.5t-120.5 56.5q-45 0 -70 -30t-25 -83v-586z" horiz-adv-x="919" unicode="B"/><glyph d="M43 477q0 217 116.5 357.5t338.5 140.5q141 0 230 -54.5t89 -142.5q0 -86 -71.5 -135t-180.5 -49q61 66 62 178q0 66 -40 110t-104 44q-117 0 -171 -133.5t-54 -315.5q0 -117 34 -213t98.5 -152.5t148.5 -56.5q96 0 160.5 40t117.5 112l25 -19q-55 -92 -142.5 -149 t-205.5 -57q-220 0 -335.5 139t-115.5 356z" horiz-adv-x="849" unicode="C"/><glyph d="M53 37q51 14 74 27.5t31 36t8 69.5v555q0 72 -11.5 104.5t-52.5 57.5l-24 14l8 27q68 20 168 33.5t184 13.5q260 0 396.5 -128t136.5 -370q0 -219 -126 -348t-343 -129h-434zM362 231q0 -96 30 -143t91 -47q277 0 277 436q0 201 -79 323t-208 122q-53 0 -82 -16.5 t-29 -47.5v-627z" horiz-adv-x="1013" unicode="D"/><glyph d="M51 37q51 14 73.5 27.5t31 36t8.5 69.5v518q0 82 -12.5 129t-47.5 94l-16 23l16 22h453q113 0 152 27l24 18l21 -18v-256l-41 -14q-37 111 -73 151.5t-101 40.5h-93q-53 0 -69.5 -19.5t-16.5 -82.5v-291h148q61 0 91 12.5t44 48.5l10 29l27 -16v-230l-45 -16l-8 45 q-8 43 -45 59.5t-119 16.5h-103v-309q0 -61 18.5 -81t82.5 -20h100q61 0 97 43t69 150l43 -15v-245l-22 -19q-29 20 -66 27.5t-102 7.5h-514z" horiz-adv-x="845" unicode="E"/><glyph d="M41 37q51 14 73.5 27.5t31 36t8.5 69.5v518q0 82 -12.5 129t-47.5 94l-16 23l16 22h430q113 0 152 27l24 18l21 -18v-256l-41 -14q-37 111 -73 151.5t-103 40.5h-68q-53 0 -69.5 -19.5t-16.5 -82.5v-307h146q80 0 104 61l10 29l27 -15v-229l-45 -16l-8 43q-8 45 -37 60 t-109 15h-88v-176q0 -80 13.5 -128t48.5 -95l16 -25l-16 -20h-357z" horiz-adv-x="759" unicode="F"/><glyph d="M43 473q0 231 130 366.5t351 135.5q141 0 230.5 -54.5t89.5 -142.5q0 -86 -72 -135t-180 -49q29 35 45 75t16 103q0 70 -41 112t-102 42q-115 0 -183.5 -124t-68.5 -329q0 -121 36 -216t99.5 -148.5t145.5 -53.5q61 0 118 23v184q0 47 -8 68.5t-30.5 35t-73.5 27.5l12 39 h330l16 -22l-16 -23q-29 -37 -38 -80t-9 -131v-176l-21 -8l-106 55q-99 -65 -222 -65h-4q-205 0 -324.5 133t-119.5 358z" horiz-adv-x="948" unicode="G"/><glyph d="M61 37q68 18 86.5 41.5t18.5 91.5v532q0 98 -15.5 138.5t-74.5 89.5l16 26h348l15 -32q-59 -35 -76 -65t-17 -105v-240h363v188q0 98 -15.5 138.5t-74.5 89.5l16 26h348l17 -32q-59 -35 -76.5 -65t-17.5 -105v-496q0 -72 6 -108.5t24.5 -63.5t57.5 -61l-17 -25h-360 l-12 37q47 12 68.5 25.5t28.5 37t7 70.5v287h-363v-199q0 -72 6.5 -109.5t24 -63.5t56.5 -60l-15 -25h-360z" horiz-adv-x="1085" unicode="H"/><glyph d="M55 37q47 12 68.5 25.5t29 37t7.5 70.5v532q0 98 -15.5 138.5t-74.5 89.5l18 26h346l15 -32q-59 -35 -76 -65t-17 -105v-504q0 -96 15.5 -136t72.5 -89l-16 -25h-358z" horiz-adv-x="516" unicode="I"/><glyph d="M2 143q0 78 64.5 127t160.5 60l6 -15q-27 -23 -43 -66.5t-16 -94.5t20.5 -85t61.5 -34q49 0 73.5 51t24.5 143v537q0 55 -9 81.5t-31.5 41t-73.5 31.5l14 36h356l17 -22l-17 -23q-33 -45 -46 -94t-13 -129v-334q0 -372 -320 -372h-2q-102 0 -164.5 46t-62.5 115z" horiz-adv-x="679" unicode="J"/><glyph d="M51 37q51 14 73.5 27.5t31 36t8.5 69.5v532q0 98 -15.5 138.5t-72.5 89.5l16 26h357l14 -32q-66 -35 -84.5 -66t-18.5 -104v-254h7l243 276q18 23 25.5 40.5t9.5 39.5q0 14 -16 55l-13 23l27 22h242l12 -36l-47 -15q-57 -25 -109 -82l-286 -327q106 -8 167.5 -44 t90.5 -106l94 -237q10 -27 24.5 -38.5t36.5 -11.5q33 0 76 33l17 -22q-45 -47 -92.5 -67.5t-104.5 -20.5q-80 0 -123 39.5t-82 142.5l-78 201q-25 55 -47 80.5t-74 25.5v-221q0 -94 15.5 -134t73.5 -91l-15 -25h-368z" horiz-adv-x="929" unicode="K"/><glyph d="M47 37q51 14 73.5 27.5t31 36t8.5 69.5v522q0 74 -6.5 112t-24.5 64.5t-59 61.5l18 26h356l15 -32q-47 -27 -67.5 -47.5t-28 -51t-7.5 -96.5v-571q0 -66 18.5 -86.5t82.5 -20.5h78q59 0 94 40t71 153l41 -15v-245l-20 -19q-27 20 -59.5 27.5t-98.5 7.5h-504z" horiz-adv-x="770" unicode="L"/><glyph d="M20 37q53 16 77 28.5t33 35t13 69.5l25 393q10 137 10 180q0 70 -15.5 103t-68.5 84l15 26h299l210 -637l224 637h264l20 -22q-39 -57 -52 -94t-13 -97q0 -39 8 -120l27 -365q4 -82 24.5 -137t65.5 -101l-17 -20h-356l-14 37q68 18 87 36.5t19 67.5q0 27 -33 498l-12 178 l-276 -786h-58l-274 780l-29 -467q-8 -98 -8 -137q0 -53 13.5 -93t50.5 -94l-19 -20h-227z" horiz-adv-x="1228" unicode="M"/><glyph d="M31 37q53 14 74.5 26.5t29.5 35t8 71.5v541q0 90 -16 131t-72 88l17 26h266l457 -790v620q0 61 -26 86t-105 48l12 36h244l18 -22l-18 -23q-33 -47 -46.5 -96t-13.5 -127v-571q0 -43 19 -72l18 -25l-18 -20h-213l-455 784v-516q0 -82 13.5 -130t45.5 -93l19 -25l-19 -20 h-225z" horiz-adv-x="1003" unicode="N"/><glyph d="M43 477q0 229 125 363.5t338 134.5t339 -134t126 -364q0 -227 -126 -361t-339 -134t-338 133t-125 362zM250 467q0 -199 67.5 -318.5t182.5 -119.5q75 0 133.5 56t91.5 156.5t33 231.5t-32 235.5t-88 163t-128 58.5q-76 0 -135.5 -58.5t-92 -164t-32.5 -240.5z" horiz-adv-x="1011" unicode="O"/><glyph d="M51 37q53 14 74.5 26.5t30 35t8.5 71.5v545q0 72 -11.5 109.5t-52.5 62.5l-24 14l8 27q59 18 154.5 32.5t181.5 14.5q209 0 316.5 -87t107.5 -231q0 -88 -42 -154.5t-110.5 -101t-144.5 -34.5q-80 0 -152 41l4 18l35 -2l35 2q80 12 125 72.5t45 160.5q0 113 -50 190 t-138 77q-47 0 -69 -27t-22 -59v-572q0 -82 13.5 -129t48.5 -94l16 -25l-16 -20h-356z" horiz-adv-x="864" unicode="P"/><glyph d="M43 477q0 229 125 363.5t338 134.5t339 -134t126 -364q0 -197 -96.5 -325.5t-264.5 -159.5q20 -45 29 -68q45 -102 79 -148t95 -46q41 0 73 18.5t60 54.5l25 -18q-41 -63 -89 -94t-118 -31q-80 0 -131 33t-90 97.5t-97 193.5q-188 18 -295.5 149t-107.5 344zM250 467 q0 -199 67.5 -318.5t182.5 -119.5q76 0 134 56t91 156.5t33 231.5t-32 235.5t-88 163t-128 58.5q-76 0 -135.5 -58.5t-92 -164t-32.5 -240.5z" horiz-adv-x="1011" unicode="Q"/><glyph d="M43 37q51 14 73.5 27.5t31 36t8.5 69.5v545q0 72 -11.5 109.5t-52.5 62.5l-24 14l8 27q63 20 162.5 33.5t177.5 13.5q195 0 307.5 -78t112.5 -213q0 -94 -60.5 -167t-154.5 -97q74 -33 102 -111l72 -200q16 -49 63 -50q37 0 76 33l16 -22q-74 -88 -192 -88 q-74 0 -116 33.5t-73 115.5l-59 180q-20 55 -36.5 81t-51.5 40l-35 19l4 20q16 -2 43 -2q25 0 35 2q76 12 119 69.5t43 147.5q0 109 -51.5 173.5t-135.5 64.5q-92 0 -92 -86v-572q0 -80 13.5 -128t48.5 -95l16 -25l-16 -20h-357z" horiz-adv-x="921" unicode="R"/><glyph d="M45 186q0 61 42 97t106 36q49 0 94 -24q-63 -33 -64 -129q0 -57 42 -97t114 -40q74 0 116 41t42 102q0 72 -52.5 118t-158.5 107q-84 45 -138.5 84t-91.5 96.5t-37 135.5q0 117 99.5 189.5t259.5 72.5q137 0 223 -52.5t86 -138.5q0 -55 -37 -86.5t-100 -31.5 q-45 0 -94 22q27 20 41 51t14 64q0 51 -37 87t-108 36q-70 0 -108 -37t-38 -90q0 -82 57.5 -134.5t171.5 -117.5q84 -47 133.5 -82t84 -88t34.5 -123q0 -127 -101 -199.5t-271 -72.5q-145 0 -234.5 55t-89.5 149z" horiz-adv-x="794" unicode="S"/><glyph d="M27 727v256l20 18l25 -18q39 -27 151 -27h375q113 0 152 27l24 18l23 -18v-256l-43 -14q-39 113 -73 152.5t-101 39.5h-27q-27 0 -36 -17.5t-9 -68.5v-649q0 -47 9 -70.5t31.5 -36t74.5 -26.5l-15 -37h-356l-16 20l16 25q35 47 48 95q11 42 11 107v21v551q0 51 -9 68.5 t-36 17.5h-22q-70 0 -105 -42t-71 -150z" horiz-adv-x="823" unicode="T"/><glyph d="M51 930l15 26h358l14 -32q-47 -25 -67.5 -44.5t-27.5 -50t-7 -92.5v-415q0 -137 53 -208t156 -71q117 0 180 72.5t63 206.5v464q0 63 -23.5 87t-100.5 47l14 36h237l19 -22l-19 -23q-35 -47 -48 -95q-11 -42 -11 -107v-21v-348q0 -176 -90 -267t-264 -91 q-170 0 -266.5 94t-96.5 264v367q0 94 -16.5 135t-71.5 88z" horiz-adv-x="985" unicode="U"/><glyph d="M-14 934l16 22h373l12 -36l-29 -9q-33 -8 -45 -23.5t-12 -43.5q0 -20 14 -66l205 -616l205 612q14 45 14 68q0 25 -13 40t-44 23l-37 15l14 36h246l17 -22q-51 -41 -76 -74t-43 -88l-258 -772h-178l-263 772q-20 57 -43.5 90t-74.5 72z" horiz-adv-x="925" unicode="V"/><glyph d="M-14 934l16 22h373l12 -36l-29 -9q-31 -10 -44 -25.5t-13 -41.5q0 -20 14 -66l205 -610l158 532l-23 72q-20 57 -43.5 89t-74.5 73l16 22h373l14 -36l-31 -9q-33 -8 -45 -23.5t-12 -43.5q0 -20 14 -66l181 -612l202 608q14 45 15 68q0 25 -13.5 40t-44.5 23l-37 15l13 36 h248l16 -22q-51 -39 -75.5 -73t-45.5 -89l-258 -772h-176l-174 575l-172 -575h-178l-263 772q-20 57 -43.5 89t-74.5 73z" horiz-adv-x="1435" unicode="W"/><glyph d="M8 934l17 22h405l10 -36l-30 -9q-57 -14 -58 -51q0 -33 39 -94l115 -176l127 186q16 25 22.5 40t6.5 34q0 23 -17 61l-12 23l24 22h220l12 -36l-31 -9q-31 -8 -51.5 -24.5t-42.5 -46.5l-217 -312l246 -374q59 -85 120 -134l-16 -20h-405l-11 37l31 8q57 16 57 51t-39 92 l-124 191l-136 -199q-16 -25 -22 -40t-6 -36q0 -23 18 -59l10 -25l-24 -20h-219l-13 37l31 8q31 8 51.5 24.5t42.5 47.5l226 323l-232 353q-61 90 -125 141z" horiz-adv-x="915" unicode="X"/><glyph d="M-16 934l18 22h375l10 -36l-31 -9q-59 -12 -59 -47q0 -12 10 -34.5t31 -61.5l139 -262l148 280q16 27 16 54t-16.5 46t-40.5 25l-39 9l12 36h236l16 -22l-21 -23q-55 -68 -94 -141l-186 -356v-244q0 -47 9 -70.5t31.5 -36t72.5 -26.5l-13 -37h-358l-17 20l17 25 q35 45 48 93t13 130v142l-194 356q-33 66 -61.5 101.5t-71.5 66.5z" unicode="Y"/><glyph d="M18 0l512 905h-247q-66 0 -103 -41t-74 -151l-38 14v256l20 18l25 -18q35 -27 151 -27h514l-510 -905h275q59 0 95 43t73 150l41 -15v-245l-21 -19q-29 20 -66.5 27.5t-103.5 7.5h-543z" horiz-adv-x="794" unicode="Z"/><glyph d="M139 -150v1180h385v-55l-106 -14q-43 -8 -58.5 -22.5t-15.5 -49.5v-897q0 -33 15.5 -48.5t58.5 -21.5l106 -16v-56h-385z" horiz-adv-x="534" unicode="["/><glyph d="M14 1040h68l399 -1124h-67z" horiz-adv-x="493" unicode="\"/><glyph d="M10 -94l107 16q43 6 58 21.5t15 48.5v897q0 35 -15 49t-58 23l-107 14v55h385v-1180h-385v56z" horiz-adv-x="534" unicode="]"/><glyph d="M127 530l229 426h113l229 -426h-108l-178 338l-176 -338h-109z" horiz-adv-x="827" unicode="^"/><glyph d="M-35 -113q0 27 9.5 53.5t25.5 41.5h508q0 -68 -35 -95h-508z" horiz-adv-x="473" unicode="_"/><glyph d="M57 920q0 61 76 92l209 -224l-27 -32l-168 61q-90 31 -90 103z" horiz-adv-x="382" unicode="`"/><glyph d="M47 156q0 88 84 139t227 51q27 0 76 -4v102q0 100 -24.5 144.5t-79.5 44.5q-39 0 -61.5 -24.5t-22.5 -63.5q0 -61 37 -92q-44 -25 -103 -25q-43 0 -67.5 25.5t-24.5 72.5q0 70 68.5 112t179.5 42q131 0 205.5 -57.5t74.5 -155.5v-354q0 -57 41 -58q39 0 76 31l17 -20 q-76 -84 -181 -84q-61 0 -93 30.5t-38 96.5h-8q-33 -59 -87 -93t-124 -34q-78 0 -125 48t-47 126zM229 174q0 -41 22.5 -65.5t61.5 -24.5q121 0 121 219q-102 0 -153.5 -33.5t-51.5 -95.5z" horiz-adv-x="747" unicode="a"/><glyph d="M10 924q39 37 101.5 58.5t124.5 21.5q27 0 42 -11.5t15 -31.5v-345q31 31 77 47.5t99 16.5q82 0 148.5 -42t104.5 -115.5t38 -166.5q0 -106 -50.5 -191t-138.5 -134t-196 -49q-74 0 -147.5 22.5t-121.5 61.5v808q0 16 -6 22.5t-20 6.5h-64zM293 49q45 -20 92 -20 q170 0 170 293q0 145 -42 222t-124 77q-51 0 -96 -31v-541z" horiz-adv-x="808" unicode="b"/><glyph d="M47 326q0 162 96.5 258t255.5 96q113 0 182.5 -50t69.5 -130q0 -68 -41 -107t-100 -39q-47 0 -86 25q45 41 45 115q0 59 -24.5 97t-71.5 38q-53 0 -87 -83t-34 -216q0 -127 48 -204t136 -77q61 0 105.5 22.5t83.5 65.5l24 -16q-43 -61 -112.5 -100t-161.5 -39 q-143 0 -235.5 96t-92.5 248z" horiz-adv-x="688" unicode="c"/><glyph d="M47 305q0 172 90 273.5t246 101.5q72 0 131 -33v227q0 29 -27 29h-69l-8 21q41 37 104.5 58.5t124.5 21.5q27 0 43 -11.5t16 -31.5v-844q0 -61 39 -62q39 0 76 31l16 -20q-76 -84 -178 -84q-63 0 -94 27.5t-41 90.5q-53 -61 -110.5 -89.5t-126.5 -28.5q-102 0 -167 90 t-65 233zM252 330q0 -121 33.5 -185.5t99.5 -64.5q78 0 129 86v440q-41 20 -90 21q-172 0 -172 -297z" horiz-adv-x="835" unicode="d"/><glyph d="M47 330q0 160 97.5 255t258.5 95q115 0 188 -54.5t73 -140.5q0 -98 -83 -156.5t-227 -58.5q-57 0 -104 9q10 -106 61 -168t127 -62q60 0 105 21.5t88 72.5l24 -18q-47 -68 -119.5 -105.5t-158.5 -37.5q-94 0 -169 45t-118 123.5t-43 179.5zM246 307q23 0 55 4 q86 10 132 56.5t46 121.5q0 61 -27.5 101.5t-70.5 40.5q-64 0 -99.5 -77t-35.5 -214v-33z" horiz-adv-x="706" unicode="e"/><glyph d="M18 578q0 35 4.5 45t24.5 16l76 18q0 176 76.5 270.5t220.5 94.5q90 0 146.5 -39t56.5 -102q0 -55 -33 -89t-86 -34q-41 0 -76 16q37 31 37 92q0 49 -18.5 78t-51.5 29q-41 0 -63.5 -43t-22.5 -121v-152h150q0 -57 -31 -79h-119v-443q0 -49 13.5 -66.5t62.5 -27.5l27 -6 l-13 -35h-319l-17 20l17 21q25 33 34 71t9 103v363h-105z" horiz-adv-x="462" unicode="f"/><glyph d="M61 326q0 164 100.5 259t270.5 95q45 0 99.5 -8t66.5 -10q86 -12 119 -17l16 -16l-16 -25q-18 -25 -19 -51v-553q0 -162 -93 -251t-259 -89q-102 0 -165.5 39t-63.5 102q0 55 32.5 89t86.5 34q39 0 75 -16q-37 -37 -37 -101q0 -45 28 -73.5t71 -28.5q143 0 143 234v198 q-51 -59 -106.5 -88t-122.5 -29q-100 0 -163 84t-63 222zM266 365q0 -119 31 -182.5t88 -63.5q82 0 129 86v407q-47 20 -90 21q-78 0 -118 -68.5t-40 -199.5z" horiz-adv-x="813" unicode="g"/><glyph d="M37 924q39 37 101.5 58.5t123.5 21.5q27 0 43.5 -11.5t16.5 -31.5v-506q29 96 101.5 160.5t154.5 64.5q88 0 127.5 -57.5t39.5 -182.5v-323q0 -62 39 -62t76 31l17 -20q-76 -84 -179 -84q-74 0 -105.5 37.5t-31.5 123.5v314q0 118 -75 118h-1q-74 0 -118.5 -100 t-44.5 -262q0 -63 9 -101t31 -71l17 -21l-17 -20h-296l-13 35l29 6q33 8 43 25.5t10 68.5v731q0 16 -7 26.5t-19 10.5h-64z" horiz-adv-x="890" unicode="h"/><glyph d="M23 600q41 35 102 57.5t123 22.5q25 0 41 -12.5t16 -32.5v-518q0 -62 39 -62t76 31l16 -20q-76 -84 -178 -84q-74 0 -106.5 37.5t-32.5 123.5v406q0 29 -27 29h-63zM98 877q0 36 41 81.5t76 45.5q37 0 78.5 -45.5t41.5 -81.5q0 -39 -41.5 -83t-78.5 -44q-35 0 -76 44 t-41 83z" horiz-adv-x="434" unicode="i"/><glyph d="M-180 -199q0 56 32.5 89.5t86.5 33.5q39 0 75 -16q-18 -16 -27.5 -44t-9.5 -59q0 -43 16.5 -70.5t51.5 -27.5q74 0 74 135v707q0 29 -27 29h-63l-6 22q39 33 102 56.5t123 23.5q27 0 43 -12.5t16 -32.5v-635q0 -164 -73.5 -252t-200.5 -88q-94 0 -153.5 39t-59.5 102z M94 877q0 36 41 81.5t76 45.5q37 0 78.5 -45.5t41.5 -81.5q0 -39 -41.5 -83t-78.5 -44q-35 0 -76 44t-41 83z" horiz-adv-x="403" unicode="j"/><glyph d="M37 924q39 37 101.5 58.5t123.5 21.5q27 0 43.5 -11.5t16.5 -31.5v-555l122 90q43 31 59.5 49t16.5 39q0 29 -24 49l-17 12l17 21h247l13 -35q-51 -12 -115 -58l-242 -176q90 -10 139.5 -42.5t71.5 -94.5l58 -164q14 -45 57 -45q31 0 68 31l16 -21q-71 -79 -175 -79h-3 q-66 0 -104 28.5t-58 95.5l-63 181q-12 35 -32 53t-52 27v-154q0 -63 9 -100t31 -72l17 -21l-17 -20h-296l-13 35l29 6q33 8 43 25.5t10 68.5v739q0 29 -26 29h-64z" horiz-adv-x="782" unicode="k"/><glyph d="M8 924q39 37 101.5 58.5t123.5 21.5q27 0 42.5 -11.5t15.5 -31.5v-844q0 -62 39 -62t76 31l16 -20q-72 -84 -178 -84q-72 0 -105 33.5t-33 107.5v751q0 29 -26 29h-66z" horiz-adv-x="419" unicode="l"/><glyph d="M51 586l6 -21h66q27 0 27 -30v-400q0 -51 -10.5 -68.5t-43.5 -25.5l-28 -6l12 -35h297l16 20l-16 21q-25 35 -34 72t-9 100q0 143 37 252.5t102 109.5q78 0 78 -118v-457h227l17 20l-17 21q-23 35 -32 72t-11 100q0 143 37 252.5t102 109.5q78 0 78 -118v-295 q0 -100 31 -140t107 -40q102 0 178 84l-17 20q-37 -31 -75 -31q-39 0 -39 62v323q0 123 -40 181.5t-128 58.5q-74 0 -139.5 -63.5t-94.5 -161.5h-4q-2 116 -41 170.5t-123 54.5q-80 0 -143.5 -65.5t-89.5 -159.5v168q0 20 -15.5 31.5t-42.5 11.5q-61 0 -122.5 -22.5 t-102.5 -57.5z" horiz-adv-x="1280" unicode="m"/><glyph d="M51 596q41 35 102.5 57.5t122.5 22.5q27 0 42.5 -12.5t15.5 -32.5v-176q29 96 102.5 160.5t155.5 64.5q88 0 128 -57.5t40 -182.5v-323q0 -62 39 -62t75 31l17 -20q-76 -84 -178 -84q-74 0 -106 37.5t-32 123.5v314q0 118 -74 118h-1q-74 0 -120 -100t-46 -262 q0 -61 10 -99t33 -73l16 -21l-16 -20h-297l-12 35l28 6q33 8 43.5 25.5t10.5 68.5v400q0 39 -27 38h-66z" horiz-adv-x="903" unicode="n"/><glyph d="M47 330q0 162 93 256t253 94t254 -95.5t94 -254.5q0 -160 -94 -254t-254 -94t-253 94t-93 254zM250 330q0 -139 38 -221t101 -82t104.5 83t41.5 216q0 137 -39 224t-99 87q-66 0 -106.5 -85t-40.5 -222z" horiz-adv-x="788" unicode="o"/><glyph d="M23 594q39 35 101 57.5t122 22.5q27 0 42 -12.5t15 -32.5v-90q51 74 107.5 107.5t126.5 33.5q104 0 168.5 -91t64.5 -239q0 -104 -38 -187t-106.5 -129t-154.5 -46q-49 0 -93 15t-75 44v-233q0 -49 13.5 -66.5t62.5 -28.5l27 -6l-13 -35h-317l-17 21l17 20q25 33 34 71 t9 101v644q0 37 -27 36h-63zM303 74q39 -27 90 -27q84 0 128 71.5t44 211.5q0 121 -32.5 185.5t-94.5 64.5q-82 0 -135 -109v-397z" horiz-adv-x="817" unicode="p"/><glyph d="M47 305q0 172 103.5 273.5t279.5 101.5q63 0 166 -18q86 -12 121 -17l14 -16l-16 -25q-10 -12 -13.5 -23.5t-3.5 -27.5v-662q0 -63 9.5 -101t31.5 -71l17 -20l-17 -21h-319l-14 35l28 6q51 10 65.5 27.5t14.5 67.5v286q-51 -61 -108.5 -89.5t-126.5 -28.5q-102 0 -167 90 t-65 233zM252 330q0 -121 33.5 -185.5t99.5 -64.5q80 0 127 86v448q-47 18 -90 19q-84 0 -127 -77t-43 -226z" unicode="q"/><glyph d="M39 596q39 35 97.5 57.5t115.5 22.5q27 0 43 -12.5t16 -32.5v-150h6q43 199 177 199q65 0 106 -38t41 -97q0 -55 -33 -89t-86 -34q-41 0 -76 16q37 31 37 92q0 29 -12 45.5t-33 16.5q-49 0 -81.5 -99.5t-32.5 -246.5q0 -76 9 -121t32 -84l16 -21l-16 -20h-297l-13 35 l29 6q33 8 43 25.5t10 68.5v400q0 39 -26 38h-64z" horiz-adv-x="649" unicode="r"/><glyph d="M63 119q0 41 31 68.5t76 27.5q35 0 70 -14q-35 -27 -35 -86q0 -41 28.5 -63.5t69.5 -22.5q47 0 81 24.5t34 69.5q0 43 -34 68.5t-105 60.5q-66 31 -106 56.5t-68.5 68.5t-28.5 104q0 92 77.5 145.5t196.5 53.5q104 0 171 -39t67 -100q0 -47 -29 -69.5t-74 -22.5 q-43 0 -75 18q36 34 36 85q0 38 -26.5 59.5t-69.5 21.5q-47 0 -73.5 -26.5t-26.5 -65.5q0 -52 40 -83.5t122 -70.5q68 -33 104.5 -56.5t64 -62.5t27.5 -92q0 -88 -83 -141t-222 -53q-104 0 -172 37.5t-68 99.5z" horiz-adv-x="669" unicode="s"/><glyph d="M14 578q0 35 4.5 45t24.5 16q68 18 106.5 57t63.5 113q6 23 20.5 28t69.5 5v-185h168q0 -27 -8 -48t-23 -31h-137v-461q0 -61 51 -62q23 0 50.5 14.5t50.5 39.5l16 -21q-88 -106 -197 -106q-84 0 -120.5 37.5t-36.5 123.5v435h-103z" horiz-adv-x="485" unicode="t"/><glyph d="M27 600q41 35 102 57.5t121 22.5q27 0 42 -12.5t15 -32.5v-410q0 -70 20.5 -107.5t57.5 -37.5q76 0 122 93t46 243q0 80 -11.5 124t-39.5 76l-19 23l17 18l235 19v-559q0 -61 37 -62q39 0 76 31l16 -20q-72 -84 -178 -84q-78 0 -107.5 45t-29.5 159q-29 -90 -99.5 -147 t-150.5 -57q-90 0 -133 57t-43 176v334q0 29 -27 29h-63z" horiz-adv-x="878" unicode="u"/><glyph d="M0 600q41 37 98.5 58.5t112.5 21.5q31 0 44 -18.5t21 -73.5l54 -367q14 -100 32.5 -137t57.5 -37q65 0 103 85t38 214q0 174 -74 275l-18 22l16 16l172 21q6 -88 7 -141q0 -262 -80 -409.5t-215 -147.5q-106 0 -160.5 63.5t-77.5 208.5l-43 295q-2 16 -8 22.5t-19 6.5 h-55z" horiz-adv-x="745" unicode="v"/><glyph d="M0 600q41 37 98.5 58.5t112.5 21.5q31 0 44 -18.5t21 -71.5l54 -369q14 -100 32.5 -137t55.5 -37q57 0 91 70.5t34 187.5q0 119 -31 244q-4 16 -8 22.5t-19 6.5h-53l-6 22q39 37 96.5 58.5t114.5 21.5q29 0 43 -19.5t20 -70.5l52 -359q16 -111 35.5 -147.5t48.5 -36.5 q55 0 88.5 83t33.5 216q0 90 -17 156.5t-56 118.5l-17 22l15 16l172 21q6 -80 6 -141q0 -262 -75 -409.5t-214 -147.5q-84 0 -127 43t-72 157q-41 -200 -213 -200h-2q-98 0 -152 64.5t-75 207.5l-43 295q-2 16 -8 22.5t-19 6.5h-55z" horiz-adv-x="1140" unicode="w"/><glyph d="M12 604q37 41 79 58.5t95 17.5q66 0 106 -31t77 -108l69 -129q78 98 78 145q0 31 -20 66l-17 18l17 21h217l12 -33l-262 -262l147 -271q25 -45 60 -45q31 0 65 31l19 -21q-35 -43 -78 -61t-98 -18q-63 0 -103.5 30.5t-81.5 108.5l-76 139q-86 -111 -86 -156q0 -29 23 -63 l14 -21l-16 -20h-215l-12 33l268 270l-141 260q-25 45 -60 45q-29 0 -65 -26z" horiz-adv-x="749" unicode="x"/><glyph d="M27 600q39 35 102.5 57.5t120.5 22.5q27 0 42 -12.5t15 -32.5v-414q0 -115 72 -115q70 0 113 84t43 224q0 74 -12.5 121t-39.5 81l-16 23l14 18l236 19v-676q0 -162 -93.5 -251t-258.5 -89q-102 0 -166 39t-64 102q0 55 33 89t86 34q39 0 76 -16q-37 -37 -37 -101 q0 -45 27.5 -73.5t70.5 -28.5q143 0 144 234v260q-27 -78 -93.5 -128.5t-142.5 -50.5q-90 0 -133 55.5t-43 168.5v305q0 29 -27 29h-63z" horiz-adv-x="831" unicode="y"/><glyph d="M33 41l362 563h-188q-43 0 -67.5 -18.5t-33.5 -57.5l-14 -75l-43 14v215l17 16q29 -18 62.5 -25t96.5 -7h377q27 -25 27 -58l-37 -20l-338 -527h197q45 0 67.5 17.5t32.5 58.5l16 76l41 -14v-215l-16 -17q-29 18 -62.5 25.5t-95.5 7.5h-387z" horiz-adv-x="659" unicode="z"/><glyph d="M-18 426v29q59 10 79.5 54t20.5 157q0 160 85 254t241 110l10 -37q-61 -18 -87 -91t-26 -222q0 -201 -147 -236q147 -31 147 -235q0 -154 25.5 -228.5t87.5 -91.5l-10 -39q-156 16 -241 110.5t-85 254.5q0 113 -20.5 157t-79.5 54z" horiz-adv-x="438" unicode="{"/><glyph d="M168 -109v1100h131v-1100h-131z" horiz-adv-x="466" unicode="|"/><glyph d="M20 -111q61 16 87 91t26 229q1 204 148 235q-147 35 -148 236q0 150 -25.5 222.5t-87.5 90.5l11 37q156 -16 240.5 -110.5t84.5 -253.5q0 -113 20.5 -157t80.5 -54v-29q-59 -10 -80 -54t-21 -157q0 -160 -85 -254t-240 -111z" horiz-adv-x="438" unicode="}"/><glyph d="M131 428v102q61 -43 135 -43q61 0 148 43q51 23 82.5 33t68.5 10q80 0 129 -43v-102q-61 45 -133 45q-37 0 -69.5 -11t-77.5 -32q-51 -23 -84 -33t-70 -10q-76 0 -129 41z" horiz-adv-x="827" unicode="~"/><glyph d="M53 -315q0 74 36 320.5t65 373.5h34q29 -129 66 -375t37 -319q-16 -16 -49 -26.5t-70 -10.5t-69.5 10t-49.5 27zM61 567q0 35 39 74t72 39q31 0 67.5 -40t36.5 -73q0 -32 -36.5 -72t-67.5 -40q-33 0 -72 40t-39 72z" horiz-adv-x="346" unicode="¡"/><glyph d="M47 475q0 143 76 235.5t207 112.5v213q16 31 57 31v-238h12q113 0 182.5 -50t69.5 -130q0 -68 -41 -106.5t-100 -38.5q-47 0 -86 24q45 41 45 115q0 59 -24.5 97t-71.5 38q-53 0 -87 -83t-34 -216q0 -127 48 -203.5t136 -76.5q62 0 106 22.5t83 65.5l24 -17 q-41 -59 -107.5 -98t-154.5 -41v-211q-14 -31 -57 -31v244q-127 16 -205 110.5t-78 231.5z" horiz-adv-x="679" unicode="¢"/><glyph d="M41 57q72 47 114 123t42 150q0 33 -7 63h-127q0 43 31 58h84q-6 18 -19.5 65t-20.5 87t-7 77q0 133 85 214t261 81q129 0 211 -52.5t82 -136.5t-69.5 -132t-168.5 -52q31 33 45.5 81t14.5 99q0 61 -35 102.5t-84 41.5q-59 0 -97 -55.5t-38 -211.5q0 -37 4 -82t6 -61 q4 -25 8 -65h254q0 -41 -30 -58h-222q-2 -76 -28.5 -136t-102.5 -105h541q0 -106 -45 -152h-647z" horiz-adv-x="815" unicode="£"/><glyph d="M47 815q23 20 64 21l120 -121q76 51 189 51q115 0 192 -55l146 145q18 -25 18 -63l-121 -119q74 -80 74 -193t-74 -192l142 -142q-27 -18 -64 -18l-121 121q-84 -53 -192 -53q-109 0 -189 53l-141 -141q-20 27 -20 61l116 117q-74 80 -73 194q0 115 75 195zM309 477 q0 -111 29 -172t78 -61q51 0 85 65.5t34 175.5q0 113 -29 174.5t-78 61.5q-53 0 -86 -65.5t-33 -178.5z" horiz-adv-x="845" unicode="¤"/><glyph d="M-12 934l18 22h375l10 -36l-31 -9q-59 -12 -59 -47q0 -12 10.5 -34.5t30.5 -61.5l139 -262l148 280q16 27 16 54t-16.5 46t-40.5 25l-39 9l12 36h236l16 -22l-20 -23q-56 -67 -95 -141l-98 -186h156q0 -41 -31 -58h-154l-59 -112v-11h244q0 -41 -31 -57h-213v-176 q0 -47 9 -70.5t31.5 -36t72.5 -26.5l-13 -37h-358l-16 20l16 25q35 45 48 93t13 130v78h-243q0 43 30 57h213v7l-63 116h-180q0 43 30 58h117l-98 182q-33 66 -61.5 101.5t-71.5 66.5z" unicode="¥"/><glyph d="M168 -109v390h131v-390h-131zM168 602v389h131v-389h-131z" horiz-adv-x="466" unicode="¦"/><glyph d="M25 -193q0 72 64.5 114t156.5 46l6 -16q-49 -51 -49 -135q0 -43 22.5 -70t57.5 -27q41 0 68.5 34t27.5 87q0 84 -103 189q-84 82 -117.5 135t-33.5 108q0 70 39 131l252 -247q72 -70 97.5 -131.5t25.5 -122.5q0 -98 -69 -170t-214 -72q-102 0 -166.5 41t-64.5 106z M72 731q0 98 68.5 170t215.5 72q100 0 165 -42t65 -106q0 -71 -64.5 -114t-156.5 -47l-7 18q47 49 48 135q0 43 -23 69.5t-55 26.5q-41 0 -69 -33.5t-28 -86.5q0 -84 103 -189q84 -82 117.5 -135t33.5 -111q0 -68 -36 -129l-256 248q-72 70 -96.5 131.5t-24.5 122.5z" horiz-adv-x="610" unicode="§"/><glyph d="M41 866q0 31 36 70t64 39q31 0 67 -39t36 -70q0 -33 -36 -69.5t-67 -36.5q-29 0 -64.5 37t-35.5 69zM315 866q0 31 36 70t65 39q31 0 67.5 -39t36.5 -70q0 -33 -37 -69.5t-67 -36.5q-29 0 -65 38t-36 68z" horiz-adv-x="561" unicode="¨"/><glyph d="M66 664q0 104 51 192t139 140.5t193 52.5q104 0 192 -52.5t140.5 -140.5t52.5 -192t-52.5 -192.5t-140.5 -140.5t-192 -52t-192.5 52t-139.5 140t-51 193zM98 664q0 -97 47.5 -176.5t128 -127t175.5 -47.5q96 0 176 47.5t127 127t47 176.5q0 94 -47 175t-127 128t-176 47 q-94 0 -175 -47t-128.5 -128t-47.5 -175zM219 664q0 119 63.5 195.5t186.5 76.5q76 0 124 -32t48 -83q0 -55 -40 -85.5t-103 -33.5v13q14 14 23 41.5t9 58.5q0 41 -18 66.5t-53 25.5q-61 0 -91 -71.5t-30 -171.5q0 -96 44 -163t114 -67q82 0 141 68l12 -10q-71 -99 -182 -99 q-121 0 -184.5 76t-63.5 195z" horiz-adv-x="903" unicode="©"/><glyph d="M29 604q0 78 58 114t142 36q47 0 74 -6v61q0 127 -57 127q-29 0 -43.5 -21.5t-14.5 -52.5q0 -45 35 -65l-2 -15q-162 0 -162 82q0 49 52.5 80t134.5 31q94 0 153.5 -40t59.5 -112v-243q0 -41 20 -41q27 0 56 26l16 -22q-55 -61 -127 -62q-102 0 -115 94h-8 q-55 -94 -145 -94q-53 0 -90 32t-37 91zM182 637q0 -31 11.5 -52.5t33.5 -21.5q29 0 52.5 38t25.5 110q-25 10 -51 10q-31 0 -51.5 -20.5t-20.5 -63.5z" horiz-adv-x="552" unicode="ª"/><glyph d="M49 371q0 25 32 84t124 207q96 -12 147 -99q-20 -33 -76.5 -88t-66.5 -63l-43 -41q55 -51 111.5 -106.5t74.5 -84.5q-28 -51 -66 -71.5t-81 -26.5q-94 154 -125 208t-31 81zM344 371q0 25 32 82t126 209q96 -14 145 -99q-18 -29 -74.5 -85t-111.5 -107q152 -139 186 -191 q-45 -84 -145 -98l-25 41q-82 131 -107.5 177t-25.5 71z" horiz-adv-x="688" unicode="«"/><glyph d="M133 424v102h563v-303h-90v201h-473z" unicode="¬"/><glyph d="M43 336q0 26 9 53t26 39l350 14q0 -68 -35 -94z" horiz-adv-x="473" unicode="­"/><glyph d="M66 664q0 104 51 192t139 140.5t193 52.5q104 0 192 -52.5t140.5 -140.5t52.5 -192t-52.5 -192.5t-140.5 -140.5t-192 -52t-192.5 52t-139.5 140t-51 193zM98 664q0 -97 47.5 -176.5t128 -127t175.5 -47.5q96 0 176 47.5t127 127t47 176.5q0 94 -47 175t-127 128t-176 47 q-94 0 -175 -47t-128.5 -128t-47.5 -175zM240 420l10 12q20 25 26.5 52.5t6.5 82.5v226q0 37 -6.5 56t-26.5 36l-10 8l6 16q33 10 88 19.5t106 9.5q111 0 165 -42t54 -108q0 -49 -32.5 -82.5t-85.5 -46.5v-4q70 -18 88 -102l18 -96q4 -25 31 -25l6 -16q-37 -21 -76 -21 q-29 0 -53.5 17.5t-30.5 56.5l-22 104q-8 39 -34 56.5t-75 19.5v-141q0 -37 10.5 -51.5t38.5 -24.5l15 -4l-8 -22h-199zM391 674q78 0 116 25.5t38 99.5q0 47 -25.5 78.5t-68.5 31.5q-59 0 -60 -53v-182z" horiz-adv-x="903" unicode="®"/><glyph d="M66 809q-1 84 34 117h377q0 -35 -8 -68t-27 -49h-376z" horiz-adv-x="542" unicode="¯"/><glyph d="M43 727q0 113 69.5 179.5t188.5 66.5t189.5 -66.5t70.5 -179.5t-70.5 -179.5t-189.5 -66.5t-188.5 66.5t-69.5 179.5zM211 723q0 -96 22.5 -148.5t61.5 -52.5q43 0 68.5 56.5t25.5 152.5t-22.5 147.5t-61.5 51.5q-43 0 -68.5 -55.5t-25.5 -151.5z" horiz-adv-x="606" unicode="°"/><glyph d="M131 424v102h231v232h101v-232h231v-102h-231v-229h-101v229h-231zM133 -2v102h563v-102h-563z" horiz-adv-x="827" unicode="±"/><glyph d="M25 428q170 135 234.5 219t64.5 168q0 47 -18.5 77t-47.5 30t-48.5 -28t-19.5 -71q0 -31 9.5 -57.5t25.5 -38.5l-4 -14q-84 2 -130 30.5t-46 79.5q0 64 59.5 104t153.5 40q109 0 168 -42t59 -120q0 -154 -321 -326h336q0 -68 -37 -96h-414z" horiz-adv-x="534" unicode="²"/><glyph d="M41 508q0 45 45 71.5t125 28.5l4 -14q-29 -29 -29 -82q0 -90 66 -90q35 0 57.5 32.5t22.5 85.5t-31 84t-84 31q-31 0 -63 -8l-7 29l33 8q137 35 137 147q0 43 -18 72t-45 29q-20 0 -35.5 -22.5t-15.5 -55.5q0 -29 7 -55.5t17 -38.5l-4 -15q-80 2 -123 30t-43 79 q0 53 58.5 88t148.5 35t148.5 -40t58.5 -102q0 -98 -115 -147q61 -14 96 -55t35 -99q0 -76 -61 -117.5t-170 -41.5q-96 0 -155.5 36.5t-59.5 96.5z" horiz-adv-x="534" unicode="³"/><glyph d="M76 788l209 224q77 -31 77 -92q0 -72 -90 -103l-170 -61z" horiz-adv-x="382" unicode="´"/><glyph d="M27 600q35 31 91 52.5t115 23.5l21 2q18 0 31 -6q23 -10 22 -37v-434q0 -135 84 -135q72 0 117 86t45 227q0 94 -12.5 154.5t-44.5 105.5l16 18l223 19v-676h-80l-106 147q-25 -59 -69 -98t-101 -53q-25 -8 -51 -8q-18 0 -27 2v-269l-197 19l-16 16l16 25q10 14 14.5 48 t4.5 103v617l-90 29z" horiz-adv-x="878" unicode="µ"/><glyph d="M43 16q0 72 64.5 123t162.5 60l6 -17q-57 -51 -57 -155q0 -52 20.5 -82.5t53.5 -30.5q41 0 65.5 39t24.5 108v242q-152 18 -246 102t-94 203q0 113 68.5 180.5t185.5 67.5q74 0 188 -20q84 -12 113 -15l14 -16l-16 -25q-18 -25 -18 -51v-496q0 -190 -77 -279t-241 -89 q-96 0 -156.5 42t-60.5 109z" horiz-adv-x="688" unicode="¶"/><glyph d="M35 459q0 35 39 77t71 42q33 0 73 -42t40 -77t-40 -76t-73 -41t-71.5 41t-38.5 76z" horiz-adv-x="296" unicode="·"/><glyph d="M31 -295q0 31 21.5 54.5t58.5 23.5t61 -12q-8 -8 -14 -25.5t-6 -36.5q0 -31 15 -48t40 -17q37 0 57.5 35.5t20.5 82.5q0 51 -24.5 80t-67.5 29q-35 0 -70 -21l-25 25l123 150h53l-90 -111l7 -6q18 6 45 6q76 0 132 -38t56 -109q0 -72 -63.5 -116t-161.5 -44 q-70 0 -119 25.5t-49 72.5z" horiz-adv-x="466" unicode="¸"/><glyph d="M-25 870l293 109q25 -10 39 -35l-21 -14v-373q0 -41 7.5 -69.5t27.5 -61.5l11 -17l-13 -16h-264l-12 33l43 8q29 6 37 19.5t8 48.5v342l-88 -58q-23 4 -43.5 31t-24.5 53z" horiz-adv-x="460" unicode="¹"/><glyph d="M37 729q0 113 68.5 179.5t183.5 66.5t183.5 -66.5t68.5 -179.5t-69 -180.5t-183 -67.5q-115 0 -183.5 67.5t-68.5 180.5zM201 727q0 -96 23.5 -152.5t62.5 -56.5t64.5 57.5t25.5 149.5q0 80 -20.5 147.5t-65.5 67.5q-41 0 -65.5 -59.5t-24.5 -153.5z" horiz-adv-x="575" unicode="º"/><glyph d="M39 180q30 48 186 191q-156 147 -186 192q47 84 145 99q96 -154 127 -209.5t31 -81.5q0 -25 -31.5 -81.5t-126.5 -207.5q-98 14 -145 98zM336 180q30 48 186 191q-156 147 -186 192q49 84 147 99q96 -158 126 -212.5t30 -78.5q0 -25 -30.5 -80t-125.5 -209 q-98 14 -147 98z" horiz-adv-x="688" unicode="»"/><glyph d="M8 866l293 109q25 -10 39 -35l-21 -14v-373q0 -41 7.5 -69.5t27.5 -61.5l11 -16l-13 -17h-264l-12 33l43 8q29 6 37 19.5t8 48.5v342l-88 -58q-23 4 -43.5 31t-24.5 53zM359 -41l397 1036h70l-400 -1036h-67zM746 152l180 421h141l16 -16l-239 -373h172v88q0 27 -4 42.5 t-15 29.5l11 16l153 11v-187h68q0 -39 -23 -55h-45q0 -47 37 -96l12 -17l-14 -16h-256l-8 33l37 8q27 6 37 20.5t10 47.5v20h-254z" horiz-adv-x="1255" unicode="¼"/><glyph d="M8 866l293 109q25 -10 39 -35l-21 -14v-373q0 -41 7.5 -69.5t27.5 -61.5l11 -16l-13 -17h-264l-12 33l43 8q29 6 37 19.5t8 48.5v342l-88 -58q-23 4 -43.5 31t-24.5 53zM359 -41l397 1036h70l-400 -1036h-67zM748 45q170 135 234.5 219t64.5 168q0 47 -18.5 77t-47.5 30 t-48.5 -28t-19.5 -71q0 -31 9.5 -57.5t25.5 -38.5l-4 -14q-84 2 -130 30.5t-46 79.5q0 64 59.5 104t153.5 40q109 0 168 -42t59 -120q0 -154 -321 -326h336q0 -68 -37 -96h-414z" horiz-adv-x="1257" unicode="½"/><glyph d="M41 504q0 45 45 71.5t125 28.5l4 -14q-29 -29 -29 -82q0 -90 66 -90q35 0 57.5 32.5t22.5 86.5q0 53 -31 83.5t-84 30.5q-31 0 -63 -8l-7 29l33 8q137 35 137 147q0 43 -18 72t-45 29q-20 0 -35.5 -22.5t-15.5 -55.5q0 -29 7 -55.5t17 -38.5l-4 -15q-80 2 -123 30t-43 79 q0 53 58.5 88t148.5 35t148.5 -40t58.5 -102q0 -98 -115 -147q61 -14 96 -55t35 -99q0 -76 -61 -117.5t-170 -41.5q-96 0 -155.5 36.5t-59.5 96.5zM433 -41l397 1036h70l-400 -1036h-67zM820 152l180 421h141l16 -16l-239 -373h172v88q0 27 -4 42.5t-15 29.5l11 16l153 11 v-187h68q0 -39 -23 -55h-45q0 -47 37 -96l12 -17l-14 -16h-256l-8 33l37 8q27 6 37 20.5t10 47.5v20h-254z" horiz-adv-x="1329" unicode="¾"/><glyph d="M37 -117q0 82 45 144.5t135 148.5q66 59 100.5 99t47.5 87l6 25h26l62 -63q-113 -115 -166 -220.5t-53 -209.5q0 -94 30.5 -147.5t85.5 -53.5q45 0 74 40t29 105q0 49 -17.5 89t-50.5 63l4 14q113 -4 181.5 -51t68.5 -119q0 -80 -81 -131t-206 -51q-143 0 -232 64.5 t-89 166.5zM276 567q0 35 38 74t71 39q31 0 67.5 -40t36.5 -73q0 -32 -36.5 -72t-67.5 -40q-33 0 -71 40t-38 72z" horiz-adv-x="675" unicode="¿"/><glyph d="M-10 37l30 8q49 14 74 40t47 91l209 602q14 51 15 72q0 45 -66 63l-23 7l15 36h278l269 -772q20 -57 44.5 -91t75.5 -73l-18 -20h-371l-12 37l31 8q31 10 44 25.5t13 42.5q0 16 -22 84l-41 120h-318l-16 -51q-31 -92 -31 -139q0 -45 16 -82l15 -25l-19 -20h-225zM285 375 h276l-139 416zM309 1211q0 63 76 92l209 -224l-27 -32l-170 61q-88 31 -88 103z" horiz-adv-x="958" unicode="À"/><glyph d="M-10 37l30 8q49 14 74 40t47 91l209 602q14 51 15 72q0 45 -66 63l-23 7l15 36h278l269 -772q20 -57 44.5 -91t75.5 -73l-18 -20h-371l-12 37l31 8q31 10 44 25.5t13 42.5q0 16 -22 84l-41 120h-318l-16 -51q-31 -92 -31 -139q0 -45 16 -82l15 -25l-19 -20h-225zM285 375 h276l-139 416zM363 1079l209 224q75 -31 75 -92q0 -72 -90 -103l-168 -61z" horiz-adv-x="958" unicode="Á"/><glyph d="M-10 37l30 8q49 14 74 40t47 91l209 602q14 51 15 72q0 45 -66 63l-23 7l15 36h278l269 -772q20 -57 44.5 -91t75.5 -73l-18 -20h-371l-12 37l31 8q31 10 44 25.5t13 42.5q0 16 -22 84l-41 120h-318l-16 -51q-31 -92 -31 -139q0 -45 16 -82l15 -25l-19 -20h-225z M281 1073q39 74 84 134.5t79 89.5h70q68 -53 164 -224l-31 -26l-168 114l-168 -114zM285 375h276l-139 416z" horiz-adv-x="958" unicode="Â"/><glyph d="M-10 37l30 8q49 14 74 40t47 91l209 602q14 51 15 72q0 45 -66 63l-23 7l15 36h278l269 -772q20 -57 44.5 -91t75.5 -73l-18 -20h-371l-12 37l31 8q31 10 44 25.5t13 42.5q0 16 -22 84l-41 120h-318l-16 -51q-31 -92 -31 -139q0 -45 16 -82l15 -25l-19 -20h-225z M263 1110q43 70 81.5 107t79.5 37q23 0 38.5 -7.5t35.5 -21.5q37 -25 64 -25q41 0 96 54l35 -31q-43 -70 -82 -107t-80 -37q-23 0 -38 6.5t-38 20.5q-14 10 -28.5 17.5t-32.5 7.5q-41 0 -99 -52zM285 375h276l-139 416z" horiz-adv-x="958" unicode="Ã"/><glyph d="M-10 37l30 8q49 14 74 40t47 91l209 602q14 51 15 72q0 45 -66 63l-23 7l15 36h278l269 -772q20 -57 44.5 -91t75.5 -73l-18 -20h-371l-12 37l31 8q31 10 44 25.5t13 42.5q0 16 -22 84l-41 120h-318l-16 -51q-31 -92 -31 -139q0 -45 16 -82l15 -25l-19 -20h-225z M240 1157q0 31 35.5 70t64.5 39q31 0 67 -39t36 -70q0 -33 -36 -69.5t-67 -36.5q-29 0 -64.5 37t-35.5 69zM285 375h276l-139 416zM514 1157q0 31 36 70t65 39q31 0 67.5 -39t36.5 -70q0 -33 -37 -69.5t-67 -36.5q-29 0 -65 38t-36 68z" horiz-adv-x="958" unicode="Ä"/><glyph d="M-10 37l30 8q49 14 74 40t47 91l209 602q14 51 15 72q0 45 -66 63l-23 7l15 36h278l269 -772q20 -57 44.5 -91t75.5 -73l-18 -20h-371l-12 37l31 8q31 10 44 25.5t13 42.5q0 16 -22 84l-41 120h-318l-16 -51q-31 -92 -31 -139q0 -45 16 -82l15 -25l-19 -20h-225zM285 375 h276l-139 416zM315 1168q0 66 42 106.5t120 40.5q82 0 125 -41t43 -106q0 -66 -43 -107t-125 -41q-78 0 -120 41t-42 107zM428 1168q0 -45 13 -77t36 -32q25 0 38 30.5t13 78.5q0 47 -13 77.5t-38 30.5q-23 0 -36 -30.5t-13 -77.5z" horiz-adv-x="958" unicode="Å"/><glyph d="M-16 37l30 8q68 18 103 80l463 831h452q117 0 152 27l24 18l23 -18v-256l-43 -14q-37 115 -73 153.5t-101 38.5h-92q-51 0 -67.5 -19.5t-16.5 -82.5v-326h145q63 0 92 13.5t43 48.5l10 26l27 -14v-236l-45 -16l-8 43q-8 43 -44 59.5t-120 16.5h-100v-266q0 -63 18 -82 t82 -19h100q57 0 93 41t73 152l41 -15v-245l-20 -19q-29 20 -60.5 27.5t-95.5 7.5h-528l-15 37l29 8q51 14 68.5 40t17.5 85v250h-283l-118 -215q-29 -55 -29 -101q0 -29 16 -59l15 -25l-19 -20h-225zM389 477h252v430h-14z" horiz-adv-x="1320" unicode="Æ"/><glyph d="M41 477q0 217 116.5 357.5t338.5 140.5q141 0 230 -54.5t89 -142.5q0 -86 -71.5 -135t-180.5 -49q61 66 62 178q0 66 -40 110t-104 44q-117 0 -171 -133.5t-54 -315.5q0 -117 34 -213t98.5 -152.5t148.5 -56.5q96 0 160.5 40t117.5 112l25 -19q-55 -92 -142.5 -149 t-205.5 -57q-42 0 -60 2l-57 -70l6 -6q18 6 45 6q76 0 132 -38t56 -109q0 -72 -63.5 -116t-161.5 -44q-70 0 -119 25.5t-49 72.5q0 31 21.5 54.5t58.5 23.5t61 -12q-8 -8 -14 -25.5t-6 -36.5q0 -31 15.5 -48t39.5 -17q37 0 57.5 35.5t20.5 82.5q0 51 -24.5 80t-67.5 29 q-35 0 -70 -21l-24 25l96 117q-168 33 -256 165t-88 320z" horiz-adv-x="849" unicode="Ç"/><glyph d="M51 37q51 14 73.5 27.5t31 36t8.5 69.5v518q0 82 -12.5 129t-47.5 94l-16 23l16 22h453q113 0 152 27l24 18l21 -18v-256l-41 -14q-37 111 -73 151.5t-101 40.5h-93q-53 0 -69.5 -19.5t-16.5 -82.5v-291h148q61 0 91 12.5t44 48.5l10 29l27 -16v-230l-45 -16l-8 45 q-8 43 -45 59.5t-119 16.5h-103v-309q0 -61 18.5 -81t82.5 -20h100q61 0 97 43t69 150l43 -15v-245l-22 -19q-29 20 -66 27.5t-102 7.5h-514zM254 1211q0 63 76 92l209 -224l-27 -32l-170 61q-88 31 -88 103z" horiz-adv-x="845" unicode="È"/><glyph d="M51 37q51 14 73.5 27.5t31 36t8.5 69.5v518q0 82 -12.5 129t-47.5 94l-16 23l16 22h453q113 0 152 27l24 18l21 -18v-256l-41 -14q-37 111 -73 151.5t-101 40.5h-93q-53 0 -69.5 -19.5t-16.5 -82.5v-291h148q61 0 91 12.5t44 48.5l10 29l27 -16v-230l-45 -16l-8 45 q-8 43 -45 59.5t-119 16.5h-103v-309q0 -61 18.5 -81t82.5 -20h100q61 0 97 43t69 150l43 -15v-245l-22 -19q-29 20 -66 27.5t-102 7.5h-514zM307 1079l209 224q75 -31 75 -92q0 -72 -90 -103l-168 -61z" horiz-adv-x="845" unicode="É"/><glyph d="M51 37q51 14 73.5 27.5t31 36t8.5 69.5v518q0 82 -12.5 129t-47.5 94l-16 23l16 22h453q113 0 152 27l24 18l21 -18v-256l-41 -14q-37 111 -73 151.5t-101 40.5h-93q-53 0 -69.5 -19.5t-16.5 -82.5v-291h148q61 0 91 12.5t44 48.5l10 29l27 -16v-230l-45 -16l-8 45 q-8 43 -45 59.5t-119 16.5h-103v-309q0 -61 18.5 -81t82.5 -20h100q61 0 97 43t69 150l43 -15v-245l-22 -19q-29 20 -66 27.5t-102 7.5h-514zM226 1073q39 74 84 134.5t79 89.5h70q68 -53 164 -224l-31 -26l-168 114l-168 -114z" horiz-adv-x="845" unicode="Ê"/><glyph d="M51 37q51 14 73.5 27.5t31 36t8.5 69.5v518q0 82 -12.5 129t-47.5 94l-16 23l16 22h453q113 0 152 27l24 18l21 -18v-256l-41 -14q-37 111 -73 151.5t-101 40.5h-93q-53 0 -69.5 -19.5t-16.5 -82.5v-291h148q61 0 91 12.5t44 48.5l10 29l27 -16v-230l-45 -16l-8 45 q-8 43 -45 59.5t-119 16.5h-103v-309q0 -61 18.5 -81t82.5 -20h100q61 0 97 43t69 150l43 -15v-245l-22 -19q-29 20 -66 27.5t-102 7.5h-514zM185 1157q0 31 35.5 70t64.5 39q31 0 67 -39t36 -70q0 -33 -36 -69.5t-67 -36.5q-29 0 -64.5 37t-35.5 69zM459 1157q0 31 36 70 t65 39q31 0 67.5 -39t36.5 -70q0 -33 -37 -69.5t-67 -36.5q-29 0 -65 38t-36 68z" horiz-adv-x="845" unicode="Ë"/><glyph d="M55 37q47 12 68.5 25.5t29 37t7.5 70.5v532q0 98 -15.5 138.5t-74.5 89.5l18 26h346l15 -32q-59 -35 -76 -65t-17 -105v-504q0 -96 15.5 -136t72.5 -89l-16 -25h-358zM90 1211q0 63 76 92l209 -224l-27 -32l-170 61q-88 31 -88 103z" horiz-adv-x="516" unicode="Ì"/><glyph d="M55 37q47 12 68.5 25.5t29 37t7.5 70.5v532q0 98 -15.5 138.5t-74.5 89.5l18 26h346l15 -32q-59 -35 -76 -65t-17 -105v-504q0 -96 15.5 -136t72.5 -89l-16 -25h-358zM144 1079l209 224q75 -31 75 -92q0 -72 -90 -103l-168 -61z" horiz-adv-x="516" unicode="Í"/><glyph d="M55 37q47 12 68.5 25.5t29 37t7.5 70.5v532q0 98 -15.5 138.5t-74.5 89.5l18 26h346l15 -32q-59 -35 -76 -65t-17 -105v-504q0 -96 15.5 -136t72.5 -89l-16 -25h-358zM62 1073q39 74 84 134.5t79 89.5h70q68 -53 164 -224l-31 -26l-168 114l-168 -114z" horiz-adv-x="516" unicode="Î"/><glyph d="M21 1157q0 31 35.5 70t64.5 39q31 0 67 -39t36 -70q0 -33 -36 -69.5t-67 -36.5q-29 0 -64.5 37t-35.5 69zM55 37q47 12 68.5 25.5t29 37t7.5 70.5v532q0 98 -15.5 138.5t-74.5 89.5l18 26h346l15 -32q-59 -35 -76 -65t-17 -105v-504q0 -96 15.5 -136t72.5 -89l-16 -25 h-358zM295 1157q0 31 36 70t65 39q31 0 67.5 -39t36.5 -70q0 -33 -37 -69.5t-67 -36.5q-29 0 -65 38t-36 68z" horiz-adv-x="516" unicode="Ï"/><glyph d="M45 436q0 61 25 84h96v205q0 72 -11.5 104.5t-52.5 57.5l-24 14l8 27q68 20 168 33.5t184 13.5q260 0 396.5 -128t136.5 -370q0 -219 -126 -348t-343 -129h-434l-15 37q51 14 74 27.5t31 36t8 69.5v266h-121zM362 231q0 -96 30 -143t91 -47q277 0 277 436q0 201 -79 323 t-208 122q-53 0 -82 -16.5t-29 -47.5v-338h248q0 -57 -26 -84h-222v-205z" horiz-adv-x="1013" unicode="Ð"/><glyph d="M31 37q53 14 74.5 26.5t29.5 35t8 71.5v541q0 90 -16 131t-72 88l17 26h266l457 -790v620q0 61 -26 86t-105 48l12 36h244l18 -22l-18 -23q-33 -47 -46.5 -96t-13.5 -127v-571q0 -43 19 -72l18 -25l-18 -20h-213l-455 784v-516q0 -82 13.5 -130t45.5 -93l19 -25l-19 -20 h-225zM285 1110q43 70 81.5 107t79.5 37q23 0 38.5 -7.5t35.5 -21.5q37 -25 64 -25q41 0 96 54l35 -31q-43 -70 -82 -107t-80 -37q-23 0 -38 6.5t-38 20.5q-14 10 -28.5 17.5t-32.5 7.5q-41 0 -99 -52z" horiz-adv-x="1003" unicode="Ñ"/><glyph d="M43 477q0 229 125 363.5t338 134.5t339 -134t126 -364q0 -227 -126 -361t-339 -134t-338 133t-125 362zM250 467q0 -199 67.5 -318.5t182.5 -119.5q75 0 133.5 56t91.5 156.5t33 231.5t-32 235.5t-88 163t-128 58.5q-76 0 -135.5 -58.5t-92 -164t-32.5 -240.5zM338 1211 q0 63 76 92l209 -224l-27 -32l-170 61q-88 31 -88 103z" horiz-adv-x="1011" unicode="Ò"/><glyph d="M43 477q0 229 125 363.5t338 134.5t339 -134t126 -364q0 -227 -126 -361t-339 -134t-338 133t-125 362zM250 467q0 -199 67.5 -318.5t182.5 -119.5q75 0 133.5 56t91.5 156.5t33 231.5t-32 235.5t-88 163t-128 58.5q-76 0 -135.5 -58.5t-92 -164t-32.5 -240.5zM391 1079 l209 224q75 -31 75 -92q0 -72 -90 -103l-168 -61z" horiz-adv-x="1011" unicode="Ó"/><glyph d="M43 477q0 229 125 363.5t338 134.5t339 -134t126 -364q0 -227 -126 -361t-339 -134t-338 133t-125 362zM250 467q0 -199 67.5 -318.5t182.5 -119.5q75 0 133.5 56t91.5 156.5t33 231.5t-32 235.5t-88 163t-128 58.5q-76 0 -135.5 -58.5t-92 -164t-32.5 -240.5zM310 1073 q39 74 84 134.5t79 89.5h70q68 -53 164 -224l-31 -26l-168 114l-168 -114z" horiz-adv-x="1011" unicode="Ô"/><glyph d="M43 477q0 229 125 363.5t338 134.5t339 -134t126 -364q0 -227 -126 -361t-339 -134t-338 133t-125 362zM250 467q0 -199 67.5 -318.5t182.5 -119.5q75 0 133.5 56t91.5 156.5t33 231.5t-32 235.5t-88 163t-128 58.5q-76 0 -135.5 -58.5t-92 -164t-32.5 -240.5zM291 1110 q43 70 81.5 107t79.5 37q23 0 38.5 -7.5t35.5 -21.5q37 -25 64 -25q41 0 96 54l35 -31q-43 -70 -82 -107t-80 -37q-23 0 -38 6.5t-38 20.5q-14 10 -28.5 17.5t-32.5 7.5q-41 0 -99 -52z" horiz-adv-x="1011" unicode="Õ"/><glyph d="M43 477q0 229 125 363.5t338 134.5t339 -134t126 -364q0 -227 -126 -361t-339 -134t-338 133t-125 362zM250 467q0 -199 67.5 -318.5t182.5 -119.5q75 0 133.5 56t91.5 156.5t33 231.5t-32 235.5t-88 163t-128 58.5q-76 0 -135.5 -58.5t-92 -164t-32.5 -240.5zM268 1157 q0 31 35.5 70t64.5 39q31 0 67 -39t36 -70q0 -33 -36 -69.5t-67 -36.5q-29 0 -64.5 37t-35.5 69zM542 1157q0 31 36 70t65 39q31 0 67.5 -39t36.5 -70q0 -33 -37 -69.5t-67 -36.5q-29 0 -65 38t-36 68z" horiz-adv-x="1011" unicode="Ö"/><glyph d="M150 283l190 192l-190 193l71 71l193 -192l192 192l72 -71l-193 -193l193 -192l-72 -72l-192 192l-193 -192z" horiz-adv-x="827" unicode="×"/><glyph d="M43 477q0 229 125 363.5t338 134.5q72 0 127 -14l24 69h84l-32 -94q125 -53 193.5 -173t68.5 -286q0 -227 -126 -361t-339 -134q-66 0 -121 12l-31 -88h-80l37 110q-127 51 -197.5 171t-70.5 290zM250 467q0 -117 24.5 -209t69.5 -149l268 786q-47 35 -102 35 q-76 0 -135.5 -58.5t-92 -164t-32.5 -240.5zM406 53q43 -25 94 -24q75 0 133.5 56t91.5 156.5t33 231.5q0 111 -22.5 202t-63.5 154z" horiz-adv-x="1011" unicode="Ø"/><glyph d="M51 930l15 26h358l14 -32q-47 -25 -67.5 -44.5t-27.5 -50t-7 -92.5v-415q0 -137 53 -208t156 -71q117 0 180 72.5t63 206.5v464q0 63 -23.5 87t-100.5 47l14 36h237l19 -22l-19 -23q-35 -47 -48 -95t-11 -128v-348q0 -176 -90 -267t-264 -91q-170 0 -266.5 94t-96.5 264 v367q0 94 -16.5 135t-71.5 88zM387 1211q0 63 76 92l209 -224l-27 -32l-170 61q-88 31 -88 103z" horiz-adv-x="985" unicode="Ù"/><glyph d="M51 930l15 26h358l14 -32q-47 -25 -67.5 -44.5t-27.5 -50t-7 -92.5v-415q0 -137 53 -208t156 -71q117 0 180 72.5t63 206.5v464q0 63 -23.5 87t-100.5 47l14 36h237l19 -22l-19 -23q-35 -47 -48 -95t-11 -128v-348q0 -176 -90 -267t-264 -91q-170 0 -266.5 94t-96.5 264 v367q0 94 -16.5 135t-71.5 88zM441 1079l209 224q75 -31 75 -92q0 -72 -90 -103l-168 -61z" horiz-adv-x="985" unicode="Ú"/><glyph d="M51 930l15 26h358l14 -32q-47 -25 -67.5 -44.5t-27.5 -50t-7 -92.5v-415q0 -137 53 -208t156 -71q117 0 180 72.5t63 206.5v464q0 63 -23.5 87t-100.5 47l14 36h237l19 -22l-19 -23q-35 -47 -48 -95t-11 -128v-348q0 -176 -90 -267t-264 -91q-170 0 -266.5 94t-96.5 264 v367q0 94 -16.5 135t-71.5 88zM359 1073q39 74 84 134.5t79 89.5h70q68 -53 164 -224l-31 -26l-168 114l-168 -114z" horiz-adv-x="985" unicode="Û"/><glyph d="M51 930l15 26h358l14 -32q-47 -25 -67.5 -44.5t-27.5 -50t-7 -92.5v-415q0 -137 53 -208t156 -71q117 0 180 72.5t63 206.5v464q0 63 -23.5 87t-100.5 47l14 36h237l19 -22l-19 -23q-35 -47 -48 -95t-11 -128v-348q0 -176 -90 -267t-264 -91q-170 0 -266.5 94t-96.5 264 v367q0 94 -16.5 135t-71.5 88zM318 1157q0 31 35.5 70t64.5 39q31 0 67 -39t36 -70q0 -33 -36 -69.5t-67 -36.5q-29 0 -64.5 37t-35.5 69zM592 1157q0 31 36 70t65 39q31 0 67.5 -39t36.5 -70q0 -33 -37 -69.5t-67 -36.5q-29 0 -65 38t-36 68z" horiz-adv-x="985" unicode="Ü"/><glyph d="M-16 934l18 22h375l10 -36l-31 -9q-59 -12 -59 -47q0 -12 10 -34.5t31 -61.5l139 -262l148 280q16 27 16 54t-16.5 46t-40.5 25l-39 9l12 36h236l16 -22l-21 -23q-55 -68 -94 -141l-186 -356v-244q0 -47 9 -70.5t31.5 -36t72.5 -26.5l-13 -37h-358l-17 20l17 25 q35 45 48 93t13 130v142l-194 356q-33 66 -61.5 101.5t-71.5 66.5zM334 1079l209 224q75 -31 75 -92q0 -72 -90 -103l-168 -61z" unicode="Ý"/><glyph d="M49 930l17 26h374l15 -32q-55 -29 -71.5 -56.5t-18.5 -103.5q55 18 116 18q166 0 264.5 -86t98.5 -229q0 -125 -84 -208t-211 -83q-37 0 -80 12.5t-74 28.5l4 21q29 -4 45 -5q16 0 27 3q80 12 124 73.5t44 159.5q0 121 -51 192.5t-137 71.5q-41 0 -65 -21.5t-24 -56.5 v-387q0 -90 14.5 -137t61.5 -111l-16 -20h-356l-15 37q74 20 94.5 43.5t20.5 89.5v530q0 66 -9.5 102t-32 62.5t-75.5 65.5z" horiz-adv-x="856" unicode="Þ"/><glyph d="M33 35l28 8q37 10 50.5 32.5t13.5 80.5v458q0 180 95 285t259 105q109 0 171.5 -43t62.5 -117q0 -43 -24.5 -75t-70.5 -71q-41 -33 -62 -59.5t-21 -58.5q0 -23 15 -42.5t52 -43.5l105 -74q76 -51 110.5 -106.5t34.5 -120.5q0 -92 -64.5 -151.5t-166.5 -59.5 q-60 0 -115 19t-96 60l16 23q49 -33 117 -33q57 0 90 29t33 78q0 78 -91 137l-94 65q-59 43 -79.5 75t-20.5 81q0 31 16.5 59.5t51.5 73.5q43 53 64.5 93t21.5 92q0 57 -24 88.5t-67 31.5q-61 0 -96 -70.5t-35 -199.5v-453q0 -70 11.5 -110.5t37.5 -77.5l17 -23l-17 -20 h-317z" horiz-adv-x="872" unicode="ß"/><glyph d="M47 156q0 88 84 139t227 51q27 0 76 -4v102q0 100 -24.5 144.5t-79.5 44.5q-39 0 -61.5 -24.5t-22.5 -63.5q0 -61 37 -92q-44 -25 -103 -25q-43 0 -67.5 25.5t-24.5 72.5q0 70 68.5 112t179.5 42q131 0 205.5 -57.5t74.5 -155.5v-354q0 -57 41 -58q39 0 76 31l17 -20 q-76 -84 -181 -84q-61 0 -93 30.5t-38 96.5h-8q-33 -59 -87 -93t-124 -34q-78 0 -125 48t-47 126zM174 920q0 63 76 92l209 -224l-27 -32l-170 61q-88 31 -88 103zM229 174q0 -41 22.5 -65.5t61.5 -24.5q121 0 121 219q-102 0 -153.5 -33.5t-51.5 -95.5z" horiz-adv-x="747" unicode="à"/><glyph d="M47 156q0 88 84 139t227 51q27 0 76 -4v102q0 100 -24.5 144.5t-79.5 44.5q-39 0 -61.5 -24.5t-22.5 -63.5q0 -61 37 -92q-44 -25 -103 -25q-43 0 -67.5 25.5t-24.5 72.5q0 70 68.5 112t179.5 42q131 0 205.5 -57.5t74.5 -155.5v-354q0 -57 41 -58q39 0 76 31l17 -20 q-76 -84 -181 -84q-61 0 -93 30.5t-38 96.5h-8q-33 -59 -87 -93t-124 -34q-78 0 -125 48t-47 126zM228 788l209 224q75 -31 75 -92q0 -72 -90 -103l-168 -61zM229 174q0 -41 22.5 -65.5t61.5 -24.5q121 0 121 219q-102 0 -153.5 -33.5t-51.5 -95.5z" horiz-adv-x="747" unicode="á"/><glyph d="M47 156q0 88 84 139t227 51q27 0 76 -4v102q0 100 -24.5 144.5t-79.5 44.5q-39 0 -61.5 -24.5t-22.5 -63.5q0 -61 37 -92q-44 -25 -103 -25q-43 0 -67.5 25.5t-24.5 72.5q0 70 68.5 112t179.5 42q131 0 205.5 -57.5t74.5 -155.5v-354q0 -57 41 -58q39 0 76 31l17 -20 q-76 -84 -181 -84q-61 0 -93 30.5t-38 96.5h-8q-33 -59 -87 -93t-124 -34q-78 0 -125 48t-47 126zM146 782q39 74 84 134.5t79 89.5h70q68 -53 164 -224l-31 -26l-168 114l-168 -114zM229 174q0 -41 22.5 -65.5t61.5 -24.5q121 0 121 219q-102 0 -153.5 -33.5t-51.5 -95.5z" horiz-adv-x="747" unicode="â"/><glyph d="M47 156q0 88 84 139t227 51q27 0 76 -4v102q0 100 -24.5 144.5t-79.5 44.5q-39 0 -61.5 -24.5t-22.5 -63.5q0 -61 37 -92q-44 -25 -103 -25q-43 0 -67.5 25.5t-24.5 72.5q0 70 68.5 112t179.5 42q131 0 205.5 -57.5t74.5 -155.5v-354q0 -57 41 -58q39 0 76 31l17 -20 q-76 -84 -181 -84q-61 0 -93 30.5t-38 96.5h-8q-33 -59 -87 -93t-124 -34q-78 0 -125 48t-47 126zM127 819q43 70 81.5 107t79.5 37q23 0 38.5 -7.5t35.5 -21.5q37 -25 64 -25q41 0 96 54l35 -31q-43 -70 -82 -107t-80 -37q-23 0 -38 6.5t-38 20.5q-14 10 -28.5 17.5 t-32.5 7.5q-41 0 -99 -52zM229 174q0 -41 22.5 -65.5t61.5 -24.5q121 0 121 219q-102 0 -153.5 -33.5t-51.5 -95.5z" horiz-adv-x="747" unicode="ã"/><glyph d="M47 156q0 88 84 139t227 51q27 0 76 -4v102q0 100 -24.5 144.5t-79.5 44.5q-39 0 -61.5 -24.5t-22.5 -63.5q0 -61 37 -92q-44 -25 -103 -25q-43 0 -67.5 25.5t-24.5 72.5q0 70 68.5 112t179.5 42q131 0 205.5 -57.5t74.5 -155.5v-354q0 -57 41 -58q39 0 76 31l17 -20 q-76 -84 -181 -84q-61 0 -93 30.5t-38 96.5h-8q-33 -59 -87 -93t-124 -34q-78 0 -125 48t-47 126zM105 866q0 31 35.5 70t64.5 39q31 0 67 -39t36 -70q0 -33 -36 -69.5t-67 -36.5q-29 0 -64.5 37t-35.5 69zM229 174q0 -41 22.5 -65.5t61.5 -24.5q121 0 121 219 q-102 0 -153.5 -33.5t-51.5 -95.5zM379 866q0 31 36 70t65 39q31 0 67.5 -39t36.5 -70q0 -33 -37 -69.5t-67 -36.5q-29 0 -65 38t-36 68z" horiz-adv-x="747" unicode="ä"/><glyph d="M47 156q0 88 84 139t227 51q27 0 76 -4v102q0 100 -24.5 144.5t-79.5 44.5q-39 0 -61.5 -24.5t-22.5 -63.5q0 -61 37 -92q-44 -25 -103 -25q-43 0 -67.5 25.5t-24.5 72.5q0 70 68.5 112t179.5 42q131 0 205.5 -57.5t74.5 -155.5v-354q0 -57 41 -58q39 0 76 31l17 -20 q-76 -84 -181 -84q-61 0 -93 30.5t-38 96.5h-8q-33 -59 -87 -93t-124 -34q-78 0 -125 48t-47 126zM180 877q0 66 42 106.5t120 40.5q82 0 125 -41t43 -106q0 -66 -43 -107t-125 -41q-78 0 -120 41t-42 107zM229 174q0 -41 22.5 -65.5t61.5 -24.5q121 0 121 219 q-102 0 -153.5 -33.5t-51.5 -95.5zM293 877q0 -45 13 -77t36 -32q25 0 38 30.5t13 78.5q0 47 -13 77.5t-38 30.5q-23 0 -36 -30.5t-13 -77.5z" horiz-adv-x="747" unicode="å"/><glyph d="M49 156q0 86 81 138t230 52q49 0 76 -4v102q0 100 -24.5 144.5t-79.5 44.5q-39 0 -61.5 -24.5t-22.5 -63.5q0 -61 37 -92q-43 -25 -103 -25q-43 0 -67.5 25.5t-24.5 72.5q0 70 68.5 112t179.5 42q150 0 225 -74q90 74 228 74q117 0 189.5 -55.5t72.5 -139.5 q0 -82 -76 -138t-234 -56q-29 0 -106 8q8 -113 58 -181.5t134 -68.5q64 0 108 24.5t83 69.5l24 -18q-43 -63 -112.5 -103t-163.5 -40q-104 0 -184 56t-115 150q-29 -111 -95.5 -158.5t-146.5 -47.5t-129 45t-49 129zM231 182q0 -43 17.5 -66.5t46.5 -27.5l16 -2q14 0 31 6 q43 14 68.5 63.5t25.5 153.5q-205 0 -205 -127zM635 328q20 0 57 4q96 10 139 53t43 104q0 59 -28.5 100.5t-77.5 41.5q-61 0 -97 -79t-36 -212v-12z" horiz-adv-x="1095" unicode="æ"/><glyph d="M45 326q0 162 96.5 258t255.5 96q113 0 182.5 -50t69.5 -130q0 -68 -41 -107t-100 -39q-47 0 -86 25q45 41 45 115q0 59 -24.5 97t-71.5 38q-53 0 -87 -83t-34 -216q0 -127 48 -204t136 -77q62 0 106 22.5t83 65.5l24 -16q-43 -61 -112.5 -100t-161.5 -39h-23l-55 -68 l6 -6q18 6 45 6q76 0 132.5 -38t56.5 -109q0 -72 -63.5 -116t-162.5 -44q-70 0 -119 25.5t-49 72.5q0 31 21.5 54.5t58.5 23.5t62 -12q-8 -8 -14.5 -25.5t-6.5 -36.5q0 -31 15.5 -48t39.5 -17q37 0 57.5 35.5t20.5 82.5q0 51 -24.5 80t-67.5 29q-35 0 -70 -21l-24 25l92 113 q-117 23 -186.5 115t-69.5 223z" horiz-adv-x="688" unicode="ç"/><glyph d="M47 330q0 160 97.5 255t258.5 95q115 0 188 -54.5t73 -140.5q0 -98 -83 -156.5t-227 -58.5q-57 0 -104 9q10 -106 61 -168t127 -62q60 0 105 21.5t88 72.5l24 -18q-47 -68 -119.5 -105.5t-158.5 -37.5q-94 0 -169 45t-118 123.5t-43 179.5zM213 920q0 63 76 92l209 -224 l-27 -32l-170 61q-88 31 -88 103zM246 307q23 0 55 4q86 10 132 56.5t46 121.5q0 61 -27.5 101.5t-70.5 40.5q-64 0 -99.5 -77t-35.5 -214v-33z" horiz-adv-x="706" unicode="è"/><glyph d="M47 330q0 160 97.5 255t258.5 95q115 0 188 -54.5t73 -140.5q0 -98 -83 -156.5t-227 -58.5q-57 0 -104 9q10 -106 61 -168t127 -62q60 0 105 21.5t88 72.5l24 -18q-47 -68 -119.5 -105.5t-158.5 -37.5q-94 0 -169 45t-118 123.5t-43 179.5zM246 307q23 0 55 4 q86 10 132 56.5t46 121.5q0 61 -27.5 101.5t-70.5 40.5q-64 0 -99.5 -77t-35.5 -214v-33zM266 788l209 224q75 -31 75 -92q0 -72 -90 -103l-168 -61z" horiz-adv-x="706" unicode="é"/><glyph d="M47 330q0 160 97.5 255t258.5 95q115 0 188 -54.5t73 -140.5q0 -98 -83 -156.5t-227 -58.5q-57 0 -104 9q10 -106 61 -168t127 -62q60 0 105 21.5t88 72.5l24 -18q-47 -68 -119.5 -105.5t-158.5 -37.5q-94 0 -169 45t-118 123.5t-43 179.5zM185 782q39 74 84 134.5 t79 89.5h70q68 -53 164 -224l-31 -26l-168 114l-168 -114zM246 307q23 0 55 4q86 10 132 56.5t46 121.5q0 61 -27.5 101.5t-70.5 40.5q-64 0 -99.5 -77t-35.5 -214v-33z" horiz-adv-x="706" unicode="ê"/><glyph d="M47 330q0 160 97.5 255t258.5 95q115 0 188 -54.5t73 -140.5q0 -98 -83 -156.5t-227 -58.5q-57 0 -104 9q10 -106 61 -168t127 -62q60 0 105 21.5t88 72.5l24 -18q-47 -68 -119.5 -105.5t-158.5 -37.5q-94 0 -169 45t-118 123.5t-43 179.5zM144 866q0 31 35.5 70t64.5 39 q31 0 67 -39t36 -70q0 -33 -36 -69.5t-67 -36.5q-29 0 -64.5 37t-35.5 69zM246 307q23 0 55 4q86 10 132 56.5t46 121.5q0 61 -27.5 101.5t-70.5 40.5q-64 0 -99.5 -77t-35.5 -214v-33zM418 866q0 31 36 70t65 39q31 0 67.5 -39t36.5 -70q0 -33 -37 -69.5t-67 -36.5 q-29 0 -65 38t-36 68z" horiz-adv-x="706" unicode="ë"/><glyph d="M23 600q41 35 102 57.5t123 22.5q25 0 41 -12.5t16 -32.5v-518q0 -62 39 -62t76 31l16 -20q-76 -84 -178 -84q-74 0 -106.5 37.5t-32.5 123.5v406q0 29 -27 29h-63zM47 920q0 63 76 92l209 -224l-27 -32l-170 61q-88 31 -88 103z" horiz-adv-x="434" unicode="ì"/><glyph d="M23 600q41 35 102 57.5t123 22.5q25 0 41 -12.5t16 -32.5v-518q0 -62 39 -62t76 31l16 -20q-76 -84 -178 -84q-74 0 -106.5 37.5t-32.5 123.5v406q0 29 -27 29h-63zM101 788l209 224q75 -31 75 -92q0 -72 -90 -103l-168 -61z" horiz-adv-x="434" unicode="í"/><glyph d="M19 782q39 74 84 134.5t79 89.5h70q68 -53 164 -224l-31 -26l-168 114l-168 -114zM23 600q41 35 102 57.5t123 22.5q25 0 41 -12.5t16 -32.5v-518q0 -62 39 -62t76 31l16 -20q-76 -84 -178 -84q-74 0 -106.5 37.5t-32.5 123.5v406q0 29 -27 29h-63z" horiz-adv-x="434" unicode="î"/><glyph d="M-22 866q0 31 35.5 70t64.5 39q31 0 67 -39t36 -70q0 -33 -36 -69.5t-67 -36.5q-29 0 -64.5 37t-35.5 69zM23 600q41 35 102 57.5t123 22.5q25 0 41 -12.5t16 -32.5v-518q0 -62 39 -62t76 31l16 -20q-76 -84 -178 -84q-74 0 -106.5 37.5t-32.5 123.5v406q0 29 -27 29h-63 zM252 866q0 31 36 70t65 39q31 0 67.5 -39t36.5 -70q0 -33 -37 -69.5t-67 -36.5q-29 0 -65 38t-36 68z" horiz-adv-x="434" unicode="ï"/><glyph d="M47 317q0 154 82 245t221 91q106 0 176 -69l9 4q-18 123 -48 215l-151 -76q0 41 6 58.5t25 25.5l98 49q-61 141 -150 141q-41 0 -66.5 -32.5t-25.5 -87.5q0 -47 13.5 -87t35.5 -61l-6 -18q-94 0 -148.5 43t-54.5 114q0 80 74 130.5t191 50.5q66 0 129 -36t118 -102 l162 82q0 -41 -6 -58t-22 -26l-97 -47q68 -98 106 -231t38 -277q0 -180 -92.5 -278t-262.5 -98q-164 0 -259 91t-95 244zM250 305q0 -125 43 -201.5t115 -76.5q69 0 111 75.5t42 196.5q0 129 -43 209t-112 80q-72 0 -114 -77t-42 -206z" horiz-adv-x="806" unicode="ð"/><glyph d="M51 596q41 35 102.5 57.5t122.5 22.5q27 0 42.5 -12.5t15.5 -32.5v-176q29 96 102.5 160.5t155.5 64.5q88 0 128 -57.5t40 -182.5v-323q0 -62 39 -62t75 31l17 -20q-76 -84 -178 -84q-74 0 -106 37.5t-32 123.5v314q0 119 -75 118q-74 0 -120 -100t-46 -262q0 -61 10 -99 t33 -73l16 -21l-16 -20h-297l-12 35l28 6q33 8 43.5 25.5t10.5 68.5v400q0 39 -27 38h-66zM234 819q43 70 81.5 107t79.5 37q23 0 38.5 -7.5t35.5 -21.5q37 -25 64 -25q41 0 96 54l35 -31q-43 -70 -82 -107t-80 -37q-23 0 -38 6.5t-38 20.5q-14 10 -28.5 17.5t-32.5 7.5 q-41 0 -99 -52z" horiz-adv-x="903" unicode="ñ"/><glyph d="M47 330q0 162 93 256t253 94t254 -95.5t94 -254.5q0 -160 -94 -254t-254 -94t-253 94t-93 254zM223 920q0 63 76 92l209 -224l-27 -32l-170 61q-88 31 -88 103zM250 330q0 -139 38 -221t101 -82t104.5 83t41.5 216q0 137 -39 224t-99 87q-66 0 -106.5 -85t-40.5 -222z" horiz-adv-x="788" unicode="ò"/><glyph d="M47 330q0 162 93 256t253 94t254 -95.5t94 -254.5q0 -160 -94 -254t-254 -94t-253 94t-93 254zM250 330q0 -139 38 -221t101 -82t104.5 83t41.5 216q0 137 -39 224t-99 87q-66 0 -106.5 -85t-40.5 -222zM277 788l209 224q75 -31 75 -92q0 -72 -90 -103l-168 -61z" horiz-adv-x="788" unicode="ó"/><glyph d="M47 330q0 162 93 256t253 94t254 -95.5t94 -254.5q0 -160 -94 -254t-254 -94t-253 94t-93 254zM195 782q39 74 84 134.5t79 89.5h70q68 -53 164 -224l-31 -26l-168 114l-168 -114zM250 330q0 -139 38 -221t101 -82t104.5 83t41.5 216q0 137 -39 224t-99 87 q-66 0 -106.5 -85t-40.5 -222z" horiz-adv-x="788" unicode="ô"/><glyph d="M47 330q0 162 93 256t253 94t254 -95.5t94 -254.5q0 -160 -94 -254t-254 -94t-253 94t-93 254zM177 819q43 70 81.5 107t79.5 37q23 0 38.5 -7.5t35.5 -21.5q37 -25 64 -25q41 0 96 54l35 -31q-43 -70 -82 -107t-80 -37q-23 0 -38 6.5t-38 20.5q-14 10 -28.5 17.5 t-32.5 7.5q-41 0 -99 -52zM250 330q0 -139 38 -221t101 -82t104.5 83t41.5 216q0 137 -39 224t-99 87q-66 0 -106.5 -85t-40.5 -222z" horiz-adv-x="788" unicode="õ"/><glyph d="M47 330q0 162 93 256t253 94t254 -95.5t94 -254.5q0 -160 -94 -254t-254 -94t-253 94t-93 254zM154 866q0 31 35.5 70t64.5 39q31 0 67 -39t36 -70q0 -33 -36 -69.5t-67 -36.5q-29 0 -64.5 37t-35.5 69zM250 330q0 -139 38 -221t101 -82t104.5 83t41.5 216q0 137 -39 224 t-99 87q-66 0 -106.5 -85t-40.5 -222zM428 866q0 31 36 70t65 39q31 0 67.5 -39t36.5 -70q0 -33 -37 -69.5t-67 -36.5q-29 0 -65 38t-36 68z" horiz-adv-x="788" unicode="ö"/><glyph d="M133 424v102h563v-102h-563zM319 240q0 28 34 65t63 37q27 0 61.5 -37t34.5 -65q0 -31 -34 -67t-62 -36q-29 0 -63 36t-34 67zM319 711q0 28 34 65t63 37q27 0 61.5 -37t34.5 -65q0 -31 -34 -67t-62 -36q-29 0 -63 36t-34 67z" unicode="÷"/><glyph d="M47 330q0 162 93 256t253 94q59 0 109 -12l41 88h84l-54 -117q80 -41 124 -121t44 -188q0 -160 -94 -254t-254 -94q-66 0 -114 14l-39 -84h-80l51 113q-80 41 -122 119.5t-42 185.5zM250 330q0 -106 20 -174l199 440q-31 41 -72 41q-66 0 -106.5 -85t-40.5 -222zM311 68 q31 -41 78 -41q64 0 105 83t41 216q0 102 -23 180z" horiz-adv-x="788" unicode="ø"/><glyph d="M27 600q41 35 102 57.5t121 22.5q27 0 42 -12.5t15 -32.5v-410q0 -70 20.5 -107.5t57.5 -37.5q76 0 122 93t46 243q0 80 -11.5 124t-39.5 76l-19 23l17 18l235 19v-559q0 -61 37 -62q39 0 76 31l16 -20q-72 -84 -178 -84q-78 0 -107.5 45t-29.5 159q-29 -90 -99.5 -147 t-150.5 -57q-90 0 -133 57t-43 176v334q0 29 -27 29h-63zM268 920q0 63 76 92l209 -224l-27 -32l-170 61q-88 31 -88 103z" horiz-adv-x="878" unicode="ù"/><glyph d="M27 600q41 35 102 57.5t121 22.5q27 0 42 -12.5t15 -32.5v-410q0 -70 20.5 -107.5t57.5 -37.5q76 0 122 93t46 243q0 80 -11.5 124t-39.5 76l-19 23l17 18l235 19v-559q0 -61 37 -62q39 0 76 31l16 -20q-72 -84 -178 -84q-78 0 -107.5 45t-29.5 159q-29 -90 -99.5 -147 t-150.5 -57q-90 0 -133 57t-43 176v334q0 29 -27 29h-63zM322 788l209 224q75 -31 75 -92q0 -72 -90 -103l-168 -61z" horiz-adv-x="878" unicode="ú"/><glyph d="M27 600q41 35 102 57.5t121 22.5q27 0 42 -12.5t15 -32.5v-410q0 -70 20.5 -107.5t57.5 -37.5q76 0 122 93t46 243q0 80 -11.5 124t-39.5 76l-19 23l17 18l235 19v-559q0 -61 37 -62q39 0 76 31l16 -20q-72 -84 -178 -84q-78 0 -107.5 45t-29.5 159q-29 -90 -99.5 -147 t-150.5 -57q-90 0 -133 57t-43 176v334q0 29 -27 29h-63zM240 782q39 74 84 134.5t79 89.5h70q68 -53 164 -224l-31 -26l-168 114l-168 -114z" horiz-adv-x="878" unicode="û"/><glyph d="M27 600q41 35 102 57.5t121 22.5q27 0 42 -12.5t15 -32.5v-410q0 -70 20.5 -107.5t57.5 -37.5q76 0 122 93t46 243q0 80 -11.5 124t-39.5 76l-19 23l17 18l235 19v-559q0 -61 37 -62q39 0 76 31l16 -20q-72 -84 -178 -84q-78 0 -107.5 45t-29.5 159q-29 -90 -99.5 -147 t-150.5 -57q-90 0 -133 57t-43 176v334q0 29 -27 29h-63zM199 866q0 31 35.5 70t64.5 39q31 0 67 -39t36 -70q0 -33 -36 -69.5t-67 -36.5q-29 0 -64.5 37t-35.5 69zM473 866q0 31 36 70t65 39q31 0 67.5 -39t36.5 -70q0 -33 -37 -69.5t-67 -36.5q-29 0 -65 38t-36 68z" horiz-adv-x="878" unicode="ü"/><glyph d="M27 600q39 35 102.5 57.5t120.5 22.5q27 0 42 -12.5t15 -32.5v-414q0 -115 72 -115q70 0 113 84t43 224q0 74 -12.5 121t-39.5 81l-16 23l14 18l236 19v-676q0 -162 -93.5 -251t-258.5 -89q-102 0 -166 39t-64 102q0 55 33 89t86 34q39 0 76 -16q-37 -37 -37 -101 q0 -45 27.5 -73.5t70.5 -28.5q143 0 144 234v260q-27 -78 -93.5 -128.5t-142.5 -50.5q-90 0 -133 55.5t-43 168.5v305q0 29 -27 29h-63zM299 788l209 224q75 -31 75 -92q0 -72 -90 -103l-168 -61z" horiz-adv-x="831" unicode="ý"/><glyph d="M23 924q37 37 99 58.5t124 21.5q27 0 42 -11.5t15 -31.5v-422q51 74 107.5 107.5t126.5 33.5q104 0 168.5 -91t64.5 -239q0 -104 -38 -187t-106.5 -129t-154.5 -46q-49 0 -93 15t-75 42v-231q0 -49 13.5 -66.5t62.5 -28.5l27 -6l-13 -35h-317l-17 21l17 20q25 33 34 71 t9 101v975q0 16 -7.5 26.5t-19.5 10.5h-63zM303 74q39 -27 90 -27q84 0 128 71.5t44 211.5q0 121 -32.5 185.5t-94.5 64.5q-82 0 -135 -109v-397z" horiz-adv-x="817" unicode="þ"/><glyph d="M27 600q39 35 102.5 57.5t120.5 22.5q27 0 42 -12.5t15 -32.5v-414q0 -115 72 -115q70 0 113 84t43 224q0 74 -12.5 121t-39.5 81l-16 23l14 18l236 19v-676q0 -162 -93.5 -251t-258.5 -89q-102 0 -166 39t-64 102q0 55 33 89t86 34q39 0 76 -16q-37 -37 -37 -101 q0 -45 27.5 -73.5t70.5 -28.5q143 0 144 234v260q-27 -78 -93.5 -128.5t-142.5 -50.5q-90 0 -133 55.5t-43 168.5v305q0 29 -27 29h-63zM176 866q0 31 35.5 70t64.5 39q31 0 67 -39t36 -70q0 -33 -36 -69.5t-67 -36.5q-29 0 -64.5 37t-35.5 69zM450 866q0 31 36 70t65 39 q31 0 67.5 -39t36.5 -70q0 -33 -37 -69.5t-67 -36.5q-29 0 -65 38t-36 68z" horiz-adv-x="831" unicode="ÿ"/><glyph d="M43 477q0 221 128 350t349 129h510q117 0 152 27l24 18l21 -18v-256l-41 -14q-35 109 -72 150.5t-102 41.5h-90q-53 0 -69.5 -19.5t-16.5 -82.5v-291h145q63 0 92 12.5t43 48.5l10 29l27 -16v-230l-45 -16l-8 45q-8 43 -44 59.5t-118 16.5h-102v-309q0 -61 18 -81t82 -20 h100q59 0 95 43t71 150l39 -15v-245l-18 -19q-29 21 -67 28t-101 7h-535q-221 0 -349 129t-128 348zM250 471q0 -193 72.5 -310.5t191.5 -117.5q72 0 123 29v809q-53 35 -125 34q-119 0 -190.5 -121.5t-71.5 -322.5z" horiz-adv-x="1316" unicode="Œ"/><glyph d="M47 330q0 162 93 256t253 94q150 0 240 -94q98 94 258 94q115 0 187.5 -54.5t72.5 -140.5q0 -98 -83 -156.5t-226 -58.5q-57 0 -105 9q10 -106 61.5 -168t127.5 -62q59 0 104 21.5t88 72.5l25 -18q-47 -68 -120 -105.5t-159 -37.5q-68 0 -128 24.5t-103 69.5 q-88 -94 -240 -94q-160 0 -253 94t-93 254zM250 330q0 -139 38 -221t101 -82q64 0 105 83t41 216q0 137 -39 224t-99 87q-66 0 -106.5 -85t-40.5 -222zM733 307q23 0 55 4q86 10 132.5 56.5t46.5 121.5q0 61 -28 101.5t-71 40.5q-63 0 -99 -77t-36 -214v-33z" horiz-adv-x="1193" unicode="œ"/><glyph d="M-16 934l18 22h375l10 -36l-31 -9q-59 -12 -59 -47q0 -12 10 -34.5t31 -61.5l139 -262l148 280q16 27 16 54t-16.5 46t-40.5 25l-39 9l12 36h236l16 -22l-21 -23q-55 -68 -94 -141l-186 -356v-244q0 -47 9 -70.5t31.5 -36t72.5 -26.5l-13 -37h-358l-17 20l17 25 q35 45 48 93t13 130v142l-194 356q-33 66 -61.5 101.5t-71.5 66.5zM211 1157q0 31 35.5 70t64.5 39q31 0 67 -39t36 -70q0 -33 -36 -69.5t-67 -36.5q-29 0 -64.5 37t-35.5 69zM485 1157q0 31 36 70t65 39q31 0 67.5 -39t36.5 -70q0 -33 -37 -69.5t-67 -36.5q-29 0 -65 38 t-36 68z" unicode="Ÿ"/><glyph d="M51 782q39 72 84 133.5t80 90.5h70q66 -52 166 -224l-33 -26l-178 118l8 -10q-111 -74 -166 -108z" horiz-adv-x="497" unicode="ˆ"/><glyph d="M55 819q43 70 82 107t80 37q23 0 38 -7.5t36 -21.5q37 -25 63 -25q41 0 97 54l34 -31q-43 -70 -81.5 -107t-79.5 -37q-23 0 -38.5 6.5t-37.5 20.5q-14 10 -28.5 17.5t-33.5 7.5q-41 0 -98 -52z" horiz-adv-x="542" unicode="˜"/><glyph horiz-adv-x="682"/><glyph horiz-adv-x="1365"/><glyph horiz-adv-x="682"/><glyph horiz-adv-x="1365"/><glyph horiz-adv-x="455"/><glyph horiz-adv-x="341"/><glyph horiz-adv-x="227"/><glyph horiz-adv-x="227"/><glyph horiz-adv-x="170"/><glyph horiz-adv-x="273"/><glyph horiz-adv-x="75"/><glyph d="M43 336q0 26 9 53t26 39l350 14q0 -68 -35 -94z" horiz-adv-x="473" unicode="‐"/><glyph d="M43 336q0 26 9 53t26 39l350 14q0 -68 -35 -94z" horiz-adv-x="473" unicode="‑"/><glyph d="M43 336q0 26 9 53t26 39l350 14q0 -68 -35 -94z" horiz-adv-x="473" unicode="‒"/><glyph d="M68 336q0 26 8 53t24 39l873 14q0 -68 -35 -94z" horiz-adv-x="1036" unicode="–"/><glyph d="M68 336q0 26 8 53t24 39l1043 14q0 -68 -35 -94z" horiz-adv-x="1212" unicode="—"/><glyph d="M25 754q0 49 28.5 97t91.5 122l64 69l55 -36l-59 -134q-18 -37 -19 -69q0 -41 35 -70l25 -16l6 -39l-16 -8q-44 -23 -103 -23q-49 0 -78.5 25.5t-29.5 81.5z" horiz-adv-x="299" unicode="‘"/><glyph d="M36 708l60 134q18 37 18 69q0 41 -35 70l-24 16l-6 39l16 8q44 23 103 23q49 0 78.5 -25.5t29.5 -81.5q0 -49 -28.5 -97t-92.5 -122l-63 -69z" horiz-adv-x="299" unicode="’"/><glyph d="M20 -150l60 134q18 37 18 69q0 41 -35 70l-24 16l-6 39l16 8q44 23 103 23q49 0 78.5 -25.5t29.5 -81.5q0 -49 -28.5 -97t-92.5 -122l-63 -69z" horiz-adv-x="294" unicode="‚"/><glyph d="M25 754q0 49 28.5 97t91.5 122l64 69l55 -36l-59 -134q-18 -37 -19 -69q0 -41 35 -70l25 -16l6 -39l-16 -8q-44 -23 -103 -23q-49 0 -78.5 25.5t-29.5 81.5zM291 754q0 49 28.5 97t92.5 122l63 69l55 -36l-59 -134q-18 -37 -18 -69q0 -41 34 -70l25 -16l6 -39l-16 -8 q-44 -23 -103 -23q-49 0 -78.5 25.5t-29.5 81.5z" horiz-adv-x="567" unicode="“"/><glyph d="M36 708l60 134q18 37 18 69q0 41 -35 70l-24 16l-6 39l16 8q44 23 103 23q49 0 78.5 -25.5t29.5 -81.5q0 -49 -28.5 -97t-92.5 -122l-63 -69zM303 708l60 134q18 37 18 69q0 41 -35 70l-24 16l-6 39l16 8q44 23 103 23q49 0 78.5 -25.5t29.5 -81.5q0 -49 -28.5 -97 t-92.5 -122l-63 -69z" horiz-adv-x="567" unicode="”"/><glyph d="M20 -148l60 134q18 37 18 69q0 41 -35 70l-24 16l-6 39l16 8q44 23 103 23q49 0 78.5 -25.5t29.5 -81.5q0 -49 -28.5 -97t-92.5 -122l-63 -69zM288 -148l60 134q18 37 18 69q0 41 -35 70l-24 16l-6 39l16 8q44 23 103 23q49 0 78.5 -25.5t29.5 -81.5q0 -49 -28.5 -97 t-92.5 -122l-63 -69z" horiz-adv-x="561" unicode="„"/><glyph d="M49 444q0 31 24.5 69t60.5 64.5t65 26.5t64.5 -26.5t61 -64.5t25.5 -69t-25.5 -67.5t-61.5 -63t-64 -26.5q-29 0 -65 26.5t-60.5 63.5t-24.5 67z" horiz-adv-x="397" unicode="•"/><glyph d="M45 98q0 35 39 77t72 42t72.5 -42t39.5 -77t-40 -75.5t-72 -40.5q-33 0 -72 40.5t-39 75.5zM360 98q0 35 39 77t70 42q35 0 75 -42t40 -77t-40 -75.5t-75 -40.5q-31 0 -70 40.5t-39 75.5zM674 98q0 35 39 77t69 42q35 0 74 -42t39 -77t-39 -75.5t-74 -40.5 q-31 0 -69.5 40.5t-38.5 75.5z" horiz-adv-x="942" unicode="…"/><glyph horiz-adv-x="273"/><glyph d="M49 371q0 25 32 84t124 207q96 -12 147 -99q-20 -33 -76.5 -88t-66.5 -63l-43 -41q55 -51 111.5 -106.5t74.5 -84.5q-28 -51 -66 -71.5t-81 -26.5q-94 154 -125 208t-31 81z" horiz-adv-x="391" unicode="‹"/><glyph d="M39 180q30 48 186 191q-156 147 -186 192q47 84 145 99q96 -154 127 -209.5t31 -81.5q0 -25 -31.5 -81.5t-126.5 -207.5q-98 14 -145 98z" horiz-adv-x="391" unicode="›"/><glyph horiz-adv-x="341"/><glyph d="M-2 350q0 41 31 58h57q-2 16 -2 51q0 49 2 71h-88q0 41 31 58h65q27 180 133.5 283.5t280.5 103.5q123 0 198.5 -48t75.5 -128q0 -51 -38.5 -89t-102.5 -42q-51 -4 -96 6q25 23 44 63.5t19 71.5q0 49 -29.5 83t-80.5 34q-82 0 -135.5 -90.5t-69.5 -247.5h254 q0 -37 -31 -58h-227q-2 -25 -2 -73v-49h260q0 -37 -31 -58h-225q12 -154 59 -237.5t129 -83.5q49 0 80 34.5t31 83.5q0 33 -19.5 72t-44.5 62q43 12 97 8q63 -4 102 -42t39 -89q0 -80 -76 -128t-199 -48q-174 0 -274 97t-125 271h-92z" horiz-adv-x="821" unicode="€"/><glyph d="M16 813v156l15 10l16 -10q27 -16 96 -17h244q61 0 98 17l17 10l14 -10v-156l-27 -8q-27 70 -50 93.5t-64 23.5h-17q-18 0 -24 -10.5t-6 -39.5v-391q0 -39 12 -52t63 -28l-10 -22h-229l-8 12l10 15q20 31 28.5 61.5t8.5 73.5v331q0 29 -6.5 39.5t-22.5 10.5h-18 q-41 0 -63.5 -24t-49.5 -93zM547 401q51 14 63.5 26.5t16.5 51.5l20 273l2 73q0 39 -10 61.5t-45 51.5l10 14h193l139 -381l147 381h168l15 -12q-27 -33 -35 -56.5t-8 -58.5q0 -16 2 -37.5t4 -33.5l18 -219q4 -52 17.5 -84.5t40.5 -59.5l-11 -12h-231l-10 22q47 14 58 24.5 t11 37.5l-14 203q-2 14 -16 202l-179 -477h-36l-177 471l-20 -276l-6 -80q0 -37 8 -59.5t33 -55.5l-13 -12h-147z" horiz-adv-x="1331" unicode="™"/><glyph d="M0 0v676h676v-676h-676z" horiz-adv-x="675" unicode="◼"/></font>
</defs>
</svg>
