<?xml version="1.0" standalone="no"?>
<!DOCTYPE svg PUBLIC "-//W3C//DTD SVG 1.1//EN" "http://www.w3.org/Graphics/SVG/1.1/DTD/svg11.dtd" >
<svg xmlns="http://www.w3.org/2000/svg" xmlns:xlink="http://www.w3.org/1999/xlink" version="1.1">
<metadata></metadata>
<defs>
<font id="katibeh-regularregular" horiz-adv-x="829" >
<font-face units-per-em="2048" ascent="1638" descent="-410" />
<missing-glyph horiz-adv-x="344" />
<glyph unicode="&#xfb01;" horiz-adv-x="862" d="M18 578q0 35 4 45t25 16l78 18q17 173 111 269t258 96q106 0 178 -39t72 -101t-34 -97q-32 -33 -79 -33t-82 16q37 31 37 86t-29 87t-84 32q-164 0 -164 -316h213q46 -1 96 11t66 12q51 0 51 -51v-512q0 -61 35 -61t80 30l16 -20q-78 -84 -166 -84t-120 38t-31 142v387 q0 29 -27 29h-213v-443q-1 -49 13 -66t63 -28l27 -6l-13 -35h-319l-17 20l17 21q43 57 43 174v363h-105z" />
<glyph unicode="&#xfb02;" horiz-adv-x="878" d="M18 578q0 35 4 45t25 16l78 18q4 173 82 269t217 96q90 0 149 -45q68 27 122 27t57 -43v-844q0 -61 36 -62q39 0 76 31l17 -20q-78 -84 -179 -84q-70 0 -104 32t-33 109v674q2 176 -125 176q-76 0 -104 -76t-27 -240h150q0 -60 -31 -79h-119v-443q-1 -49 13 -66t63 -28 l27 -6l-13 -35h-319l-17 20l17 21q43 57 43 174v363h-105z" />
<glyph horiz-adv-x="0" />
<glyph horiz-adv-x="0" />
<glyph unicode="&#xd;" horiz-adv-x="681" />
<glyph unicode=" "  horiz-adv-x="344" />
<glyph unicode="&#x09;" horiz-adv-x="344" />
<glyph unicode="&#xa0;" horiz-adv-x="344" />
<glyph unicode="!" horiz-adv-x="346" d="M53 977q37 37 120 37t118 -37q0 -74 -36 -321t-65 -373h-34q-29 129 -66 375t-37 319zM67 94q0 32 37 73q37 40 69 40t71 -40t39 -74t-39 -73q-39 -38 -71 -38t-69 40t-37 72z" />
<glyph unicode="&#x22;" horiz-adv-x="526" d="M35 1030q33 39 95 39t93 -39q1 -55 -25 -171t-53 -171h-32q-29 53 -54 169t-24 173zM303 1030q33 39 95 39t94 -39q0 -57 -25 -173t-53 -169h-35q-27 55 -51 170q-25 115 -25 172z" />
<glyph unicode="#" horiz-adv-x="925" d="M68 299l22 88h133l49 178h-131l25 88h133l84 303h94l-84 -303h238l84 303h96l-84 -303h133l-24 -88h-134l-49 -178h133l-26 -88h-133l-82 -299h-94l81 299h-237l-84 -299h-94l84 299h-133zM319 387h238l49 178h-237z" />
<glyph unicode="$" horiz-adv-x="796" d="M45 207q0 61 42 97q43 36 99 36t101 -25q-63 -33 -64 -129q0 -57 42 -97t114 -40t115 42q43 41 43 103q1 62 -51 104t-147 90t-149 83q-130 84 -131 221q0 106 84 178t226 82v178q16 31 57 31v-207q135 -2 218 -53t83 -137q0 -55 -37 -87t-91 -32t-103 23q55 41 55 103 t-35 98q-36 36 -106 36t-110 -37t-40 -91t31 -95t75 -69q44 -27 124 -67t130 -73q122 -78 122 -197q-1 -118 -86 -189t-230 -83v-176q-14 -31 -57 -31v205q-145 0 -235 55q-89 55 -89 150z" />
<glyph unicode="%" horiz-adv-x="1486" d="M45 670q0 135 75 219q76 84 192 84t183 -77t67 -213t-76 -224t-192 -88t-182 82t-67 217zM204 670q0 -118 26 -185t72 -67t72 66t26 187t-28 189q-26 68 -71 68t-71 -70t-26 -188zM510 -41l397 1036h70l-399 -1036h-68zM919 280q0 136 75 220t192 84q118 0 184 -77 t66 -213t-75 -224t-192 -88t-183 82t-67 216zM1079 282q0 -118 26 -186t72 -68q45 0 71 68q26 66 26 186t-27 188t-71 69q-44 0 -71 -70q-26 -69 -26 -187z" />
<glyph unicode="&#x26;" horiz-adv-x="905" d="M33 256q0 92 64 160q65 68 186 98q-197 49 -197 221q0 61 41 117t121 89q80 34 196 34t184 -54q66 -54 66 -131t-66 -117t-179 -42q72 55 71 157q0 59 -28 102q-29 42 -80 42t-85 -56t-34 -144t48 -138q48 -51 126 -51v-31q-115 -28 -168 -98t-53 -161t48 -160t131 -69 t137 57t54 141t-28 122q-113 0 -160 -22t-68 -60l-14 6q0 86 29 121t90 35l156 -10q156 0 155 112q0 31 -20 71t-43 58q80 -2 136 -40t56 -107q0 -148 -233 -160q63 -58 63 -125q0 -142 -142 -208q-75 -34 -190 -33q-170 0 -270 72t-100 202z" />
<glyph unicode="'" horiz-adv-x="258" d="M35 1030q33 39 95 39t93 -39q1 -55 -25 -171t-53 -171h-32q-29 53 -54 169t-24 173z" />
<glyph unicode="(" horiz-adv-x="487" d="M49 442q0 424 379 578l25 -31q-89 -72 -139 -216q-50 -145 -50 -333t49 -331t140 -215l-25 -33q-379 157 -379 581z" />
<glyph unicode=")" horiz-adv-x="487" d="M35 -106q90 72 139 215t49 331t-49 333q-49 144 -139 216l24 31q379 -154 379 -578t-379 -581z" />
<glyph unicode="*" horiz-adv-x="763" d="M82 788q0 122 65 205l207 -159l-86 245q109 40 213 0l-88 -248l209 162q59 -76 66 -168q0 -6 1 -15t-1 -22l-256 7l211 -146q-61 -92 -174 -127l-74 242l-72 -242q-109 31 -174 127l209 146z" />
<glyph unicode="+" horiz-adv-x="827" d="M131 424v102h231v232h101v-232h231v-102h-231v-229h-101v229h-231z" />
<glyph unicode="," horiz-adv-x="294" d="M20 -150l60 134q18 38 18 74t-35 65l-24 16l-6 39q62 31 115 31q112 0 112 -107q0 -49 -29 -97t-92 -122l-63 -69z" />
<glyph unicode="-" horiz-adv-x="473" d="M43 336q0 67 35 92l350 14q0 -68 -35 -94z" />
<glyph unicode="." horiz-adv-x="315" d="M45 98q0 34 39 77q39 42 72 42q32 0 72 -42t40 -77q0 -36 -40 -76t-72 -40t-72 41q-39 41 -39 75z" />
<glyph unicode="/" horiz-adv-x="493" d="M14 -84l398 1124h69l-399 -1124h-68z" />
<glyph unicode="0" horiz-adv-x="940" d="M66 479q0 141 52 254t148 177t221 65q177 0 281 -129t104 -340q0 -150 -52 -270t-147 -187q-95 -68 -220 -67q-182 0 -285 139q-102 139 -102 358zM273 476q0 -206 51 -328t144 -122t145 125q53 125 53 327t-52 327t-146 125q-93 0 -144 -124t-51 -330z" />
<glyph unicode="1" horiz-adv-x="643" d="M18 805l441 172l35 -29l-17 -24v-656q0 -82 13 -130t47 -93l18 -25l-18 -20h-390l-12 37l60 14q53 12 69 35t17 84v643l-193 -123q-34 21 -70 115z" />
<glyph unicode="2" horiz-adv-x="811" d="M35 68q193 164 298 274t150 201q45 90 45 181t-36 149q-38 59 -96 59t-101 -55t-43 -116q0 -123 65 -188q-113 1 -181 49t-68 137t92 152t246 63t246 -66q93 -68 93 -186q1 -118 -123 -256t-391 -314h539q0 -113 -45 -152h-651z" />
<glyph unicode="3" horiz-adv-x="811" d="M62 183q0 85 62 133q64 48 189 49q-65 -70 -65 -154t41 -128t105 -44t110 53q45 53 45 150q-1 96 -59 158t-158 63q-45 0 -101 -12l-6 38q158 39 228 97t69 170q0 76 -34 124t-89 48t-91 -45t-36 -126t37 -145q-109 0 -165 45t-56 126t84 137t225 55q141 0 237 -66 t97 -166q0 -170 -260 -243q135 -22 212 -90t77 -164q0 -125 -97 -195q-97 -69 -256 -69t-252 58t-93 143z" />
<glyph unicode="4" horiz-adv-x="827" d="M25 252l333 704h187l24 -20l-411 -664h323v187q0 74 -28 121l14 20l211 37v-365h123q0 -38 -29 -57h-94q0 -51 12 -87t47 -83l19 -25l-19 -20h-389l-14 37l61 14q53 12 70 35q16 23 16 84v45h-434z" />
<glyph unicode="5" horiz-adv-x="811" d="M62 181q0 83 69 131q70 48 182 53l4 -17q-69 -42 -69 -153q0 -66 43 -111t105 -45t104 59q41 59 41 165t-71 168t-196 63q-53 0 -124 -17l-25 47l25 432h552q0 -108 -49 -151h-452l-15 -270q92 18 181 18q176 0 280 -81q105 -81 105 -211t-98 -205q-98 -74 -252 -74 t-247 58t-93 141z" />
<glyph unicode="6" horiz-adv-x="878" d="M64 450q0 148 53 270t151 188t226 67q128 0 206 -51t78 -125t-56 -117t-173 -43q43 67 43 136t-33 110t-88 41t-101 -62q-98 -133 -98 -430q0 -47 9 -78h8q39 181 237 181q123 0 196 -67q73 -68 73 -194q-1 -126 -93 -210t-227 -84q-260 0 -362 216q-49 104 -49 252z M324 256q0 -100 31 -159q32 -58 92 -58t97 61q36 60 36 162t-33 156t-91 55q-58 0 -95 -59q-37 -58 -37 -158z" />
<glyph unicode="7" horiz-adv-x="677" d="M20 956h627l25 -34l-244 -670q-29 -78 -29 -122t19 -85l14 -25l-16 -20h-340l-13 37l29 8q51 14 80 40t57 85l318 635h-481q-44 50 -46 151z" />
<glyph unicode="8" horiz-adv-x="837" d="M66 192q0 180 198 252q-86 52 -135 114t-49 151q0 121 100 195t254 73q154 1 238 -61t84 -152t-56 -150t-153 -88q111 -59 170 -119t59 -155q0 -125 -104 -199q-104 -73 -268 -73t-250 60q-88 60 -88 152zM244 201q0 -78 46 -126t118 -48t117 40q46 40 46 99 q0 99 -106 164q-41 25 -141 80q-82 -95 -80 -209zM281 784q0 -68 54 -119q54 -52 157 -108q84 84 83 209q0 72 -41 117q-42 45 -104 45t-106 -38q-43 -38 -43 -106z" />
<glyph unicode="9" horiz-adv-x="878" d="M86 642q0 103 45 177t125 115t178 41q166 0 262 -134q96 -135 96 -365t-112 -362q-113 -132 -309 -132q-115 0 -190 50t-75 120t58 106q58 37 164 39q-42 -51 -42 -126t30 -108t77 -32q92 0 142 99q49 99 49 273l-4 115l-9 2q-71 -133 -251 -133q-96 0 -164 76 q-70 76 -70 179zM303 690q0 -98 35 -160t92 -63q57 0 95 62q38 61 38 159t-35 163t-92 65t-95 -64t-38 -162z" />
<glyph unicode=":" horiz-adv-x="315" d="M45 98q0 34 39 77q39 42 72 42q32 0 72 -42t40 -77q0 -36 -40 -76t-72 -40t-72 41q-39 41 -39 75zM45 536q0 34 39 77q39 42 72 42q32 0 72 -42q40 -43 40 -77t-40 -75t-72 -41t-72 41q-39 41 -39 75z" />
<glyph unicode=";" horiz-adv-x="315" d="M23 -150l59 134q18 38 18 74t-34 65l-25 16l-6 39q62 31 115 31q112 0 112 -107q0 -49 -29 -97t-92 -122l-63 -69zM45 536q0 34 39 77q39 42 72 42q32 0 72 -42q40 -43 40 -77t-40 -75t-72 -41t-72 41q-39 41 -39 75z" />
<glyph unicode="&#x3c;" horiz-adv-x="827" d="M131 424v102l563 228v-101l-448 -178l448 -176v-102z" />
<glyph unicode="=" d="M133 281v102h563v-102h-563zM133 569v101h563v-101h-563z" />
<glyph unicode="&#x3e;" d="M133 197v102l451 176l-451 178v101l563 -228v-102z" />
<glyph unicode="?" horiz-adv-x="675" d="M30 832q0 76 82 126q81 52 215 52t223 -65t89 -157t-45 -154t-135 -149q-66 -59 -101 -99t-47 -87l-6 -25h-26l-62 64q219 223 219 430q0 94 -30 147q-32 53 -82 53t-78 -39q-28 -40 -29 -106q0 -107 68 -151l-4 -15q-113 3 -182 51t-69 124zM186 94q0 32 37 73 q37 40 69 40t70 -40t37 -74q0 -34 -38 -73q-37 -38 -69 -38t-69 40t-37 72z" />
<glyph unicode="@" horiz-adv-x="1286" d="M59 342q0 146 83 276q82 130 224 205q142 76 305 76t289 -61t196 -171q71 -110 71 -231t-46 -210t-125 -141t-171 -52q-176 0 -176 246q-39 -82 -86 -120t-116 -38t-112 59t-43 160q0 156 84 248t226 92q51 0 157 -16l90 -11l11 -16l-11 -19q-16 -18 -18 -55 q-27 -332 -27 -379t14 -78t37 -30q53 0 86 96t33 272t-100 292q-100 118 -266 118q-117 0 -212 -69q-96 -69 -150 -189t-54 -266q0 -199 104 -312t287 -112q139 0 268 61l15 -33q-151 -81 -311 -81q-161 0 -287 61t-198 171q-71 111 -71 257zM534 400q0 -183 72 -183 q51 0 85 113t38 284q-31 16 -81 16t-82 -67q-32 -68 -32 -163z" />
<glyph unicode="A" horiz-adv-x="958" d="M-10 37l30 8q49 14 74 40t47 91l209 602q14 51 15 72q0 45 -66 63l-23 7l15 36h278l269 -772q20 -57 44.5 -91t75.5 -73l-18 -20h-371l-12 37l31 8q57 19 57 63q0 22 -22 89l-41 120h-318l-16 -51q-31 -92 -31 -138t16 -83l15 -25l-19 -20h-225zM285 375h276l-139 416z " />
<glyph unicode="B" horiz-adv-x="919" d="M53 37q51 13 74 27t31 36t8 70v555q0 73 -11 105t-53 57l-24 14l8 27q66 20 169 34q96 13 176 13h11q180 0 282 -68q101 -67 101 -186q0 -78 -48 -134t-132 -85q101 -22 161 -88t60 -154q0 -120 -100 -190t-270 -70h-428zM362 227q0 -84 36 -133t102 -49t115 59 q49 58 49 152t-64 154t-180 79v25q94 0 148 55t54 149t-44 151q-46 57 -106 57h-2q-108 0 -108 -113v-586z" />
<glyph unicode="C" horiz-adv-x="849" d="M43 477q0 217 116.5 357.5t338.5 140.5q141 0 230 -54.5t89 -141.5t-71.5 -136t-180.5 -49q61 66 62 178q0 66 -40 110t-104 44q-117 0 -171 -133.5t-54 -283t34 -245.5t98.5 -152.5t154.5 -56.5q160 0 272 152l25 -19q-55 -92 -142.5 -149t-205.5 -57q-220 0 -335.5 139 t-115.5 356z" />
<glyph unicode="D" horiz-adv-x="1013" d="M53 37q51 14 74 27.5t31 36t8 69.5v555q0 72 -11.5 104.5t-52.5 57.5l-24 14l8 27q160 47 352 47q260 0 396.5 -128t136.5 -358.5t-126 -359.5t-343 -129h-434zM362 231q0 -190 121 -190q277 0 277 436q0 201 -79 323t-199 122t-120 -64v-627z" />
<glyph unicode="E" horiz-adv-x="845" d="M51 37q51 14 73.5 27.5t31 36t8.5 69.5v518q0 82 -12.5 129t-47.5 94l-16 23l16 22h453q113 0 152 27l24 18l21 -18v-256l-41 -14q-37 111 -73 151.5t-101 40.5h-93q-53 0 -69.5 -19.5t-16.5 -82.5v-291h148q61 0 91 12.5t44 48.5l10 29l27 -16v-230l-45 -16l-8 45 q-8 43 -45 59.5t-119 16.5h-103v-309q0 -61 18.5 -81t82.5 -20h100q61 0 97 43t69 150l43 -15v-245l-22 -19q-51 35 -168 35h-514z" />
<glyph unicode="F" horiz-adv-x="759" d="M41 37q51 13 74 27t31 36t8 70v518q0 82 -12 129t-48 94l-16 23l16 22h430q113 0 152 27l24 18l21 -18v-256l-41 -14q-37 111 -73 151t-103 41h-68q-53 0 -69 -19t-17 -83v-307h146q80 0 104 61l10 29l27 -15v-229l-45 -16l-8 43q-8 45 -37 60t-109 15h-88v-176 q0 -80 14 -128t48 -95l16 -25l-16 -20h-357z" />
<glyph unicode="G" horiz-adv-x="948" d="M43 476q0 228 130 363.5t351 135.5q141 0 230.5 -54.5t89.5 -141.5t-72 -136t-180 -49q61 74 61 161t-41 129t-102 42q-115 0 -183.5 -124t-68.5 -329q0 -121 36 -216t99.5 -148.5t135 -53.5t128.5 23v184q0 47 -8 68.5t-30.5 35t-73.5 27.5l12 39h330l16 -22l-16 -23 q-29 -37 -38 -80t-9 -131v-176l-21 -8l-106 55q-99 -65 -222 -65h-4q-205 0 -324.5 133t-119.5 361z" />
<glyph unicode="H" horiz-adv-x="1085" d="M61 37q68 18 86.5 41.5t18.5 91.5v532q0 98 -15.5 138.5t-74.5 89.5l16 26h348l15 -32q-59 -35 -76 -65t-17 -105v-240h363v188q0 98 -15.5 138.5t-74.5 89.5l16 26h348l17 -32q-59 -35 -76.5 -65t-17.5 -105v-496q0 -127 24.5 -163t63.5 -70l-17 -25h-360l-12 37 q47 12 68.5 25.5t28.5 37t7 70.5v287h-363v-199q0 -128 24 -163.5t63 -69.5l-15 -25h-360z" />
<glyph unicode="I" horiz-adv-x="516" d="M55 37q47 12 68.5 25.5t29 37t7.5 70.5v532q0 98 -15.5 138.5t-74.5 89.5l18 26h346l15 -32q-59 -35 -76 -65t-17 -105v-504q0 -96 15.5 -136t72.5 -89l-16 -25h-358z" />
<glyph unicode="J" horiz-adv-x="679" d="M2 147.5q0 73.5 64.5 122.5t160.5 60l6 -15q-59 -49 -59 -161q0 -52 20.5 -85.5t61.5 -33.5q98 0 98 194v537q0 55 -9 81.5t-31.5 41t-73.5 31.5l14 36h356l17 -22l-17 -23q-33 -45 -46 -94t-13 -129v-334q0 -372 -320 -372h-2q-102 0 -164.5 46t-62.5 119.5z" />
<glyph unicode="K" horiz-adv-x="929" d="M51 37q51 14 73.5 27.5t31 36t8.5 69.5v532q0 98 -15.5 138.5t-72.5 89.5l16 26h357l14 -32q-66 -35 -84.5 -66t-18.5 -104v-254h7l243 276q31 40 33 67v6q0 25 -14 62l-13 23l27 22h242l12 -36l-47 -15q-57 -25 -109 -82l-286 -327q106 -8 167.5 -44t90.5 -106l94 -237 q19 -50 56.5 -50t80.5 33l17 -22q-84 -88 -197 -88q-80 0 -123 39.5t-82 142.5l-78 201q-25 55 -47 80.5t-74 25.5v-221q0 -94 15.5 -134t73.5 -91l-15 -25h-368z" />
<glyph unicode="L" horiz-adv-x="770" d="M47 37q51 14 73.5 27.5t31 36t8.5 69.5v522q0 131 -24.5 167t-65.5 71l18 26h356l15 -32q-47 -27 -67.5 -47.5t-28 -51t-7.5 -96.5v-571q0 -66 18.5 -86.5t82.5 -20.5h78q59 0 94 40t71 153l41 -15v-245l-20 -19q-27 20 -59.5 27.5t-98.5 7.5h-504z" />
<glyph unicode="M" horiz-adv-x="1228" d="M20 37q53 17 77 29t33 34t13 70l25 393q10 137 10 193t-15 90q-15 33 -69 84l15 26h299l210 -637l224 637h264l20 -22q-39 -57 -52 -94q-13 -36 -13 -86t8 -131l27 -365q4 -82 24 -137t66 -101l-17 -20h-356l-14 37q68 19 87 37t19 56t-33 509l-12 178l-276 -786h-58 l-274 780l-29 -467q-8 -98 -8 -144q0 -89 64 -180l-19 -20h-227z" />
<glyph unicode="N" horiz-adv-x="1003" d="M31 37q53 14 74.5 26.5t29.5 35t8 71.5v541q0 90 -16 131t-72 88l17 26h266l457 -790v620q0 61 -26 86t-105 48l12 36h244l18 -22l-18 -23q-33 -47 -46.5 -96t-13.5 -127v-571q0 -43 19 -72l18 -25l-18 -20h-213l-455 784v-516q0 -82 13.5 -130t45.5 -93l19 -25l-19 -20 h-225z" />
<glyph unicode="O" horiz-adv-x="1011" d="M43 477.5q0 229.5 125 363.5t338 134t339 -134t126 -362.5t-126 -362.5t-339 -134t-338 133t-125 362.5zM250 467q0 -199 67.5 -318.5t182.5 -119.5q75 0 133.5 56t91.5 156.5t33 231.5t-32 235.5t-88 163t-130 58.5t-134 -58q-124 -122 -124 -405z" />
<glyph unicode="P" horiz-adv-x="864" d="M51 37q53 14 75 26t30 35t8 72v545q0 71 -11 109t-53 63l-24 14l8 27q154 47 350 47q194 0 302 -87t108 -231q0 -87 -42 -154t-111 -102q-72 -36 -142 -36q-77 0 -154 43l4 18l35 -2l35 2q80 12 125 72q45 62 45 168t-50 183t-138 77q-47 0 -69 -27t-22 -59v-572 q0 -82 14 -129t48 -94l16 -25l-16 -20h-356z" />
<glyph unicode="Q" horiz-adv-x="1011" d="M43 485q0 221 125 355.5t338 134.5t339 -134t126 -347.5t-96.5 -342t-264.5 -159.5q20 -45 47 -107.5t61 -108.5t102.5 -46t125.5 73l25 -18q-41 -63 -89 -94t-123 -31t-126 33t-90 97.5t-97 193.5q-188 18 -295.5 149t-107.5 352zM250 467q0 -199 67.5 -318.5 t182.5 -119.5q76 0 134 56t91 156.5t33 231.5t-32 235.5t-88 163t-130 58.5t-134 -58q-124 -122 -124 -405z" />
<glyph unicode="R" horiz-adv-x="921" d="M43 37q51 14 73.5 27.5t31 36t8.5 69.5v545q0 72 -11.5 109.5t-52.5 62.5l-24 14l8 27q63 20 162.5 33.5t177.5 13.5q195 0 307.5 -78t112.5 -213q0 -94 -60.5 -167t-154.5 -97q74 -33 102 -111l72 -200q16 -49 58 -49q1 0 1 -1q41 0 80 33l16 -22q-74 -88 -192 -88 q-74 0 -116 33.5t-73 115.5l-59 180q-20 55 -36.5 81t-51.5 40l-35 19l4 20q16 -2 42 -2q102 0 150 64.5t48 164t-51.5 164t-139.5 64.5t-88 -86v-572q0 -80 13.5 -128t48.5 -95l16 -25l-16 -20h-357z" />
<glyph unicode="S" horiz-adv-x="794" d="M45 186q0 61 42 97t98.5 36t101.5 -24q-63 -33 -64 -129q0 -57 42 -97t115 -40t115 41t42 107.5t-52.5 112.5t-147.5 99t-149 92q-129 92 -129 222q-1 127 99 199t248.5 72.5t234.5 -52t86 -138.5q0 -55 -37 -86.5t-91 -31.5t-103 22q55 41 55 103.5t-37 98.5t-107.5 36 t-108.5 -37t-38 -104.5t57.5 -120t156.5 -108.5q98 -56 148 -91q119 -84 119 -212q0 -127 -101 -199t-258.5 -72t-247 55t-89.5 149z" />
<glyph unicode="T" horiz-adv-x="823" d="M27 727v256l20 18l25 -18q39 -27 151 -27h375q113 0 152 27l24 18l23 -18v-256l-43 -14q-39 113 -73 152.5t-101 39.5h-27q-27 0 -36 -17.5t-9 -68.5v-649q0 -84 40 -106q22 -12 75 -27l-15 -37h-356l-16 20l16 25q35 47 48 95q11 42 11 107v21v551q0 51 -9 68.5 t-36 17.5h-22q-70 0 -105 -42t-71 -150z" />
<glyph unicode="U" horiz-adv-x="985" d="M51 930l15 26h358l14 -32q-47 -25 -67.5 -44.5t-27.5 -50t-7 -92.5v-415q0 -279 209 -279q117 0 180 72.5t63 206.5v464q0 63 -23.5 87t-100.5 47l14 36h237l19 -22l-19 -23q-35 -47 -48 -95q-11 -42 -11 -107v-21v-348q0 -176 -90 -267t-262 -91t-268.5 94t-96.5 264 v367q0 94 -16.5 135t-71.5 88z" />
<glyph unicode="V" horiz-adv-x="925" d="M-14 934l16 22h373l12 -36l-29 -9q-33 -8 -45 -23q-12 -16 -12 -40t14 -70l205 -616l205 612q14 45 14 69q0 47 -57 62l-37 15l14 36h246l17 -22q-51 -41 -76 -74t-43 -88l-258 -772h-178l-263 772q-20 57 -44 90t-74 72z" />
<glyph unicode="W" horiz-adv-x="1435" d="M-14 934l16 22h373l12 -36l-29 -9q-57 -18 -57 -64q0 -23 14 -69l205 -610l158 532l-23 72q-20 57 -43.5 89t-74.5 73l16 22h373l14 -36l-31 -9q-57 -14 -57 -63q0 -24 14 -70l181 -612l202 608q13 41 13 69q0 26 -12 39q-14 15 -44 23l-37 15l13 36h248l16 -22 q-51 -39 -75.5 -73t-45.5 -89l-258 -772h-176l-174 575l-172 -575h-178l-263 772q-20 57 -43.5 89t-74.5 73z" />
<glyph unicode="X" horiz-adv-x="915" d="M8 934l17 22h405l10 -36l-30 -9q-58 -14 -58 -49t39 -96l115 -176l127 186q28 45 28 73q0 26 -16 62l-12 23l24 22h220l12 -36l-31 -9q-51 -13 -94 -71l-217 -312l246 -374q59 -85 120 -134l-16 -20h-405l-11 37l31 8q57 16 57 51t-39 92l-124 191l-136 -199 q-28 -44 -28 -71q0 -28 18 -64l10 -25l-24 -20h-219l-13 37l31 8q50 13 94 72l226 323l-232 353q-61 90 -125 141z" />
<glyph unicode="Y" d="M-16 934l18 22h375l10 -36l-31 -9q-59 -12 -59 -47q0 -20 41 -96l139 -262l148 280q16 27 16 53.5t-16.5 46t-40.5 25.5l-39 9l12 36h236l16 -22l-21 -23q-55 -68 -94 -141l-186 -356v-244q0 -84 40 -106q22 -12 73 -27l-13 -37h-358l-17 20l17 25q35 45 48 93t13 130 v142l-194 356q-33 66 -61.5 101.5t-71.5 66.5z" />
<glyph unicode="Z" horiz-adv-x="794" d="M18 0l512 905h-247q-66 0 -103 -41t-74 -151l-38 14v256l20 18l25 -18q35 -27 151 -27h514l-510 -905h275q59 0 95 43t73 150l41 -15v-245l-21 -19q-51 35 -170 35h-543z" />
<glyph unicode="[" horiz-adv-x="534" d="M139 -150v1180h385v-55l-106 -14q-42 -9 -58 -23t-16 -49v-897q0 -33 15 -48t59 -22l106 -16v-56h-385z" />
<glyph unicode="\" horiz-adv-x="493" d="M14 1040h68l399 -1124h-67z" />
<glyph unicode="]" horiz-adv-x="534" d="M10 -94l107 16q43 6 58 22t15 48v897q0 35 -15 49t-58 23l-107 14v55h385v-1180h-385v56z" />
<glyph unicode="^" horiz-adv-x="827" d="M127 530l229 426h113l229 -426h-108l-178 338l-176 -338h-109z" />
<glyph unicode="_" horiz-adv-x="473" d="M-35 -113q0 66 35 95h508q0 -68 -35 -95h-508z" />
<glyph unicode="`" horiz-adv-x="382" d="M57 914q0 66 76 98l209 -224l-27 -32l-168 61q-90 31 -90 97z" />
<glyph unicode="a" horiz-adv-x="747" d="M47 161q0 83 84 134t227 51q27 0 76 -4v102q0 189 -94 189t-94 -99q0 -50 37 -81q-44 -25 -95 -25q-100 0 -100 98q0 70 68.5 112t189.5 42t195.5 -57.5t74.5 -155.5v-354q0 -57 41 -58q39 0 76 31l17 -20q-76 -84 -181 -84q-119 0 -131 127h-8q-71 -127 -211 -127 q-78 0 -125 48t-47 131zM229 174q0 -41 22.5 -65.5t61.5 -24.5q121 0 121 219q-205 0 -205 -129z" />
<glyph unicode="b" horiz-adv-x="808" d="M10 924q40 36 102 58t122 22t59 -43v-345q65 64 161 64t163 -42t105 -116t38 -173t-50 -184t-138 -134t-197 -49q-168 0 -269 84v808q0 29 -26 29h-64zM293 49q45 -20 92 -20q170 0 170 296t-166 296q-51 0 -96 -31v-541z" />
<glyph unicode="c" horiz-adv-x="688" d="M47 331q0 157 96.5 253t255.5 96q113 0 182.5 -50t69.5 -124t-41 -113t-94 -39t-92 25q45 41 45 107q0 142 -99 143q-50 0 -84 -83t-34 -213t48 -207t146.5 -77t178.5 88l24 -16q-43 -61 -112.5 -100t-161.5 -39q-143 0 -235.5 96t-92.5 253z" />
<glyph unicode="d" horiz-adv-x="835" d="M47 319.5q0 157.5 90 259t246 101.5q72 0 131 -33v227q0 29 -27 29h-69l-8 21q41 37 104.5 58.5t123.5 21.5t60 -43v-844q0 -61 39 -61q1 0 1 -1q38 0 75 31l16 -20q-76 -84 -178 -84q-63 0 -94 27.5t-41 90.5q-103 -118 -237 -118q-102 0 -167 90t-65 247.5zM252 330 q0 -250 133 -250q78 0 129 86v440q-41 20 -90 21q-172 0 -172 -297z" />
<glyph unicode="e" horiz-adv-x="706" d="M47 330q0 160 97.5 255t258.5 95q115 0 188 -54.5t73 -146.5t-83 -150.5t-227 -58.5q-57 0 -104 9q10 -106 61 -168t127 -62q114 0 193 94l24 -18q-99 -143 -282 -143q-90 0 -165 45t-118 123.5t-43 179.5zM246 307q127 0 180 53.5t53 121.5t-27.5 108.5t-70.5 40.5 q-64 0 -99.5 -77t-35.5 -214v-33z" />
<glyph unicode="f" horiz-adv-x="462" d="M18 578q0 35 4 45t25 16l76 18q0 177 77 271t220 94q90 0 146 -39t56 -98t-32 -93q-33 -34 -80 -34t-82 16q37 31 37 86q0 113 -70 113q-41 0 -63 -43t-23 -121v-152h150q0 -57 -31 -79h-119v-443q1 -49 14 -66t62 -28l27 -6l-13 -35h-319l-17 20l17 21q43 57 43 174v363 h-105z" />
<glyph unicode="g" horiz-adv-x="813" d="M61 339q0 151 100.5 246t270.5 95q58 0 155 -15t130 -20l16 -16l-16 -25q-18 -25 -19 -51v-553q0 -162 -93 -251t-259 -89q-102 0 -165.5 39t-63.5 98t32.5 93t79 34t82.5 -16q-37 -37 -37 -91.5t28 -83t71 -28.5q143 0 143 234v198q-101 -117 -229 -117q-100 0 -163 84 t-63 235zM266 365q0 -119 31 -182.5t88 -63.5q82 0 129 86v407q-47 20 -90 21q-158 0 -158 -268z" />
<glyph unicode="h" horiz-adv-x="890" d="M37 924q39 37 101.5 58.5t123 21.5t60.5 -43v-506q29 96 101.5 160.5t157.5 64.5t124.5 -57.5t39.5 -182.5v-323q0 -62 39 -62t76 31l17 -20q-76 -84 -164.5 -84t-120 37.5t-31.5 123.5v314q0 118 -75 118h-1q-74 0 -118.5 -100t-44.5 -237t40 -197l17 -21l-17 -20h-296 l-13 35l29 6q33 8 43 25.5t10 68.5v731q0 37 -26 37h-64z" />
<glyph unicode="i" horiz-adv-x="434" d="M23 600q41 35 102 57.5t105 22.5q76 0 75 -45v-518q0 -62 39 -62t76 31l16 -20q-76 -84 -164 -84t-120.5 37.5t-32.5 123.5v406q0 29 -27 29h-63zM98 875.5q0 37.5 41 83t77 45.5t78 -45.5t42 -83t-42 -81.5t-78 -44t-77 44t-41 81.5z" />
<glyph unicode="j" horiz-adv-x="403" d="M-180 -202.5q0 59.5 32.5 93t79 33.5t82.5 -16q-37 -33 -37 -103q0 -98 68 -98q74 0 74 135v707q0 29 -27 29h-63l-6 22q39 33 102 56.5t107 23.5q76 0 75 -45v-635q0 -164 -73.5 -252t-200.5 -88q-94 0 -153.5 39t-59.5 98.5zM94 875.5q0 37.5 41 83t77 45.5t78 -45.5 t42 -83t-42 -81.5t-78 -44t-77 44t-41 81.5z" />
<glyph unicode="k" horiz-adv-x="782" d="M37 924q39 37 101.5 58.5t123 21.5t60.5 -43v-555l122 90q43 31 59.5 49t16.5 43t-24 45l-17 12l17 21h247l13 -35q-51 -12 -115 -58l-242 -176q90 -10 139.5 -42.5t71.5 -94.5l58 -164q14 -45 51 -45t74 31l16 -21q-71 -79 -175 -79h-3q-66 0 -104 28.5t-58 95.5 l-63 181q-21 62 -84 80v-154q0 -108 40 -172l17 -21l-17 -20h-296l-13 35l29 6q33 8 43 25.5t10 68.5v739q0 29 -26 29h-64z" />
<glyph unicode="l" horiz-adv-x="419" d="M8 924q39 37 101.5 58.5t122 21.5t59.5 -43v-844q0 -62 39 -62t76 31l16 -20q-72 -84 -178 -84q-72 0 -105 33.5t-33 107.5v751q0 29 -26 29h-66z" />
<glyph unicode="m" horiz-adv-x="1280" d="M51 586q41 36 103 58t119 22q58 0 61 -43v-168q27 93 90 159t145 66t121 -54t41 -171h4q29 98 94 161q66 64 147 64h1q160 0 160 -240v-323q0 -61 39 -62q39 0 75 31l17 -20q-76 -84 -165 -84t-120 40t-31 140v295q0 118 -77 118h-1h-1q-65 0 -101 -109 q-36 -110 -36 -213q1 -103 10 -140t32 -72l17 -21l-17 -20h-227v457q0 118 -77 118h-2v0q-66 0 -102 -109q-36 -110 -36 -213t9 -140t34 -72l16 -21l-16 -20h-297l-12 35l28 6q33 7 43 25t11 69v400q0 31 -27 30h-66z" />
<glyph unicode="n" horiz-adv-x="903" d="M51 596q41 35 102.5 57.5t105.5 22.5q75 0 75 -45v-176q29 96 102.5 160.5t158.5 64.5t125 -57.5t40 -182.5v-323q0 -62 39 -62t75 31l17 -20q-76 -84 -164 -84t-120 37.5t-32 123.5v314q0 118 -74 118h-1q-74 0 -120 -100t-46 -234t43 -200l16 -21l-16 -20h-297l-12 35 l28 6q33 8 43.5 25.5t10.5 68.5v400q0 39 -27 38h-66z" />
<glyph unicode="o" horiz-adv-x="788" d="M47 331q0 161 93 255t253 94t254 -95.5t94 -255t-94 -253.5t-254 -94t-253 94t-93 255zM250 329q0 -138 38 -220t101.5 -82t104.5 83t41 218t-39 222t-102 87t-103.5 -85t-40.5 -223z" />
<glyph unicode="p" horiz-adv-x="817" d="M23 594q39 36 101 58t120 22t59 -45v-90q97 141 234 141q104 0 169 -91q64 -91 64 -217q-1 -241 -144 -338q-69 -46 -164 -46t-159 59v-233q0 -48 13 -66t63 -29l27 -6l-13 -35h-317l-17 21l17 20q43 57 43 172v644q0 37 -27 36h-63zM303 74q39 -27 90 -27q172 0 172 283 q0 122 -33 186t-94 64q-82 0 -135 -109v-397z" />
<glyph unicode="q" d="M47 323q0 156 103 255q104 102 280 102q64 0 158 -15t129 -20l14 -16l-16 -25q-17 -20 -17 -51v-662q0 -110 41 -172l17 -20l-17 -21h-319l-14 35l28 6q52 9 66 27t14 68v286q-98 -118 -231 -118h-4q-102 0 -167 90t-65 251zM252 330q0 -250 140 -250q72 0 120 86v448 q-47 18 -90 19q-170 0 -170 -303z" />
<glyph unicode="r" horiz-adv-x="649" d="M39 596q39 35 97.5 57.5t100.5 22.5q74 0 74 -45v-150h6q43 199 177 199q65 0 106 -38t41 -95t-33 -91t-80 -34t-82 16q37 31 37 92.5t-47 61.5t-79.5 -99.5t-32.5 -211t9 -156.5t32 -84l16 -21l-16 -20h-297l-13 35l29 6q33 8 43 25.5t10 68.5v400q0 39 -26 38h-64z" />
<glyph unicode="s" horiz-adv-x="669" d="M63 119q0 41 31 68.5t71 27.5t75 -14q-35 -27 -35 -77q0 -95 101 -95q44 0 78 24.5t34 68.5t-34 69.5t-102 58.5q-68 32 -109 58q-97 62 -97 163.5t77.5 155t189 53.5t178.5 -39t67 -93q0 -99 -103 -99q-43 0 -75 18q36 35 36 79q-1 87 -96 87q-47 0 -73.5 -26.5 t-26.5 -72t40 -77t115 -67.5t111 -60q92 -59 92 -150.5t-83 -144.5t-204.5 -53t-189.5 37.5t-68 99.5z" />
<glyph unicode="t" horiz-adv-x="485" d="M14 578q0 35 4.5 45t24.5 16q125 33 161 145q16 48 30 53t69 5v-185h168q0 -58 -31 -79h-137v-461q0 -61 51 -62q51 0 101 54l16 -21q-88 -106 -184.5 -106t-133 37.5t-36.5 123.5v435h-103z" />
<glyph unicode="u" horiz-adv-x="878" d="M27 600q41 35 102 57.5t105 22.5q74 0 73 -45v-410q0 -145 77 -145t123 93t46 208t-11.5 159t-39.5 76l-19 23l17 18l235 19v-559q0 -61 37 -62q39 0 76 31l16 -20q-72 -84 -164 -84t-121.5 45t-29.5 159q-29 -90 -99.5 -147t-155.5 -57q-171 0 -171 233v334q0 29 -27 29 h-63z" />
<glyph unicode="v" horiz-adv-x="745" d="M0 600q89 80 211 80q31 0 44 -18t21 -74l54 -367q14 -100 32 -137t58 -37q65 0 103 85q38 84 38 236t-74 253l-18 22l16 16l172 21q6 -88 7 -141q0 -261 -80 -409t-215 -148q-106 0 -161 63q-54 63 -77 209l-43 295q-3 27 -27 29h-55z" />
<glyph unicode="w" horiz-adv-x="1140" d="M0 600q89 80 211 80q31 0 44 -18.5t21 -71.5l54 -369q14 -100 32.5 -137t55.5 -37q57 0 91 70.5t34 188.5t-31 243q-4 16 -8 22.5t-19 6.5h-53l-6 22q39 37 96.5 58.5t100.5 21.5t57 -19.5t20 -70.5l52 -359q16 -111 35.5 -147.5t48.5 -36.5q55 0 88.5 83t33.5 194.5 t-17 178t-56 118.5l-17 22l15 16l172 21q6 -80 6 -141q0 -262 -75 -409.5t-214 -147.5q-84 0 -127 43t-72 157q-41 -200 -213 -200h-2q-98 0 -152 64.5t-75 207.5l-43 295q-4 29 -27 29h-55z" />
<glyph unicode="x" horiz-adv-x="749" d="M12 604q69 76 174 76q66 0 106 -31t77 -108l69 -129q78 98 78 137t-20 74l-17 18l17 21h217l12 -33l-262 -262l147 -271q25 -45 58 -45t67 31l19 -21q-64 -79 -176 -79q-63 0 -104 30q-40 31 -81 109l-76 139q-86 -111 -86 -148t23 -71l14 -21l-16 -20h-215l-12 33 l268 270l-141 260q-25 45 -57 45t-68 -26z" />
<glyph unicode="y" horiz-adv-x="831" d="M27 600q39 35 102.5 57.5t105.5 22.5q72 0 72 -45v-414q0 -115 71 -115t114 84t43 191t-12.5 154t-39.5 81l-16 23l14 18l236 19v-676q0 -162 -93.5 -251t-258.5 -89q-102 0 -166 39t-64 98t33 93t79 34t83 -16q-37 -37 -37 -91.5t27.5 -83t70.5 -28.5q143 0 144 234v260 q-27 -78 -93.5 -128.5t-142.5 -50.5q-176 0 -176 224v305q0 29 -27 29h-63z" />
<glyph unicode="z" horiz-adv-x="659" d="M33 41l362 563h-188q-83 0 -101 -76l-14 -75l-43 14v215l17 16q52 -32 159 -32h377q27 -25 27 -58l-37 -20l-338 -527h197q45 0 67.5 17.5t32.5 58.5l16 76l41 -14v-215l-16 -17q-53 33 -158 33h-387z" />
<glyph unicode="{" horiz-adv-x="438" d="M-18 426v29q59 10 79 54t21 157q0 160 85 254t241 110l10 -37q-61 -18 -87 -91t-26 -222q0 -201 -147 -236q147 -31 147 -235q0 -153 26 -228t87 -92l-10 -39q-156 16 -241 110t-85 255q0 113 -20 157t-80 54z" />
<glyph unicode="|" horiz-adv-x="466" d="M168 -109v1100h131v-1100h-131z" />
<glyph unicode="}" horiz-adv-x="438" d="M20 -111q62 15 88 91t25 229q1 204 148 235q-147 35 -148 236q1 150 -25 222t-88 91l11 37q157 -16 241 -110t84 -254q0 -113 20 -157t81 -54v-29q-59 -10 -79 -54t-22 -157q0 -160 -85 -254t-240 -111z" />
<glyph unicode="~" horiz-adv-x="827" d="M131 428v102q61 -43 129 -43t136 33q69 33 101 43t68 10q80 0 129 -43v-102q-62 45 -116 45t-86 -11t-103 -43q-70 -32 -137 -32q-68 0 -121 41z" />
<glyph unicode="&#xa1;" horiz-adv-x="346" d="M53 -315q0 75 36 321t65 373h34q29 -129 66 -375t37 -319q-37 -37 -120 -37t-118 37zM61 568q0 34 39 73t71 39t69 -40t37 -72t-37 -73q-37 -40 -69 -40t-71 40q-39 39 -39 73z" />
<glyph unicode="&#xa2;" horiz-adv-x="679" d="M47 478q0 140 76 232t207 113v213q16 31 57 31v-238h12q113 0 183 -50t70 -124q0 -75 -42 -113q-41 -38 -94 -38t-92 24q45 42 45 108q1 142 -99 142q-50 0 -84 -83t-34 -213t48 -207t146 -77t179 89l24 -17q-94 -135 -262 -139v-211q-14 -31 -57 -31v244 q-127 17 -205 111t-78 234z" />
<glyph unicode="&#xa3;" horiz-adv-x="815" d="M41 57q72 47 114 123t42 130t-7 83h-127q0 43 31 58h84q-47 141 -47 229q0 133 85 214t261 81q129 0 211 -52q82 -53 82 -137t-70 -132t-168 -52q60 64 60 180q0 60 -35 102t-89 42t-92 -56t-38 -211q0 -28 18 -208h254q0 -41 -30 -58h-222q-1 -76 -28 -136t-103 -105 h541q0 -106 -45 -152h-647z" />
<glyph unicode="&#xa4;" horiz-adv-x="845" d="M47 815q23 20 64 21l120 -121q76 51 190 51t191 -55l146 145q18 -25 18 -63l-121 -119q74 -80 74 -193t-74 -192l142 -142q-27 -18 -64 -18l-121 121q-84 -53 -192 -53t-189 53l-141 -141q-20 27 -20 61l116 117q-74 81 -74 195t76 194zM309 478q0 -112 29 -173t79 -61 t84 65t34 177t-29 173t-80 61t-84 -65t-33 -177z" />
<glyph unicode="&#xa5;" d="M-12 934l18 22h375l10 -36l-31 -9q-59 -12 -59 -47q0 -22 41 -96l139 -262l148 280q16 27 16 54t-16 46t-41 25l-39 9l12 36h236l16 -22l-20 -23q-56 -67 -95 -141l-98 -186h156q0 -41 -31 -58h-154l-59 -112v-11h244q0 -41 -31 -57h-213v-176q0 -86 41 -107 q23 -12 72 -26l-13 -37h-358l-16 20l16 25q35 45 48 93t13 130v78h-243q0 43 30 57h213v7l-63 116h-180q0 43 30 58h117l-98 182q-33 66 -62 102t-71 66z" />
<glyph unicode="&#xa6;" horiz-adv-x="466" d="M168 -109v390h131v-390h-131zM168 602v389h131v-389h-131z" />
<glyph unicode="&#xa7;" horiz-adv-x="610" d="M24 -190q0 68 65 111q65 42 157 46l6 -16q-49 -51 -49 -135q1 -43 23 -70t60 -27t66 34t27 87q1 84 -93 178t-127 146q-34 54 -34 116t39 123l252 -247q123 -120 123 -254q0 -98 -69 -170t-214 -72q-102 0 -167 41t-65 109zM72 731q0 98 68 170q69 72 216 72 q100 0 165 -42q65 -41 65 -109t-65 -111t-156 -47l-7 18q47 49 48 135q0 43 -23 70t-59 27t-65 -34q-28 -34 -28 -87q-1 -83 93 -177t128 -147q72 -113 -3 -240l-256 248q-123 120 -121 254z" />
<glyph unicode="&#xa8;" horiz-adv-x="561" d="M41 866q0 32 36 70q35 39 65 39t66 -39t36 -71q0 -33 -36 -69t-66 -36t-66 37t-35 69zM315 866q0 30 36 70q36 39 66 39q31 0 67 -39t36 -71q0 -33 -37 -69t-67 -36t-65 38q-36 38 -36 68z" />
<glyph unicode="&#xa9;" horiz-adv-x="903" d="M66 664q0 104 51 192t139 140t192 52t193 -52q88 -52 140 -140q53 -88 53 -192t-52 -192t-141 -141q-88 -52 -192 -52t-193 52q-88 52 -139 140q-51 89 -51 193zM98 662q0 -96 47 -175q47 -80 128 -127t177 -47t175 47q80 47 127 127q47 79 47 175t-47 177t-127 128 t-175 47q-94 0 -176 -47t-129 -128t-47 -177zM219 664q-1 120 63 196t187 76q76 0 124 -32t48 -85t-40 -84t-103 -33v13q32 33 32 87q0 108 -71 105q-61 1 -91 -71t-30 -170t44 -165t120 -67t135 68l12 -10q-71 -99 -187 -99t-179 76t-64 195z" />
<glyph unicode="&#xaa;" horiz-adv-x="552" d="M29 614q0 68 58 104q57 36 123 36t93 -6v61q0 127 -56 127t-59 -74q0 -45 35 -65l-2 -15q-162 0 -162 82q1 49 53 80t140 31t147 -40t60 -112v-243q0 -41 20 -41q27 0 56 26l16 -22q-55 -61 -127 -62q-102 0 -115 94h-8q-55 -94 -145 -94q-53 0 -90 32q-37 33 -37 101z M182 643q-1 -80 45 -80q29 0 53 38t25 110q-25 10 -53 10q-28 -1 -49 -21t-21 -57z" />
<glyph unicode="&#xab;" horiz-adv-x="688" d="M49 370q0 26 32 85t124 207q96 -12 147 -99q-20 -33 -76 -88t-67 -63l-43 -41q159 -147 186 -191q-28 -51 -66 -71t-81 -27q-94 154 -125 208t-31 80zM344 371q0 25 32 82t126 209q96 -14 145 -99q-29 -46 -186 -192q152 -139 186 -191q-45 -84 -145 -98l-25 41 q-82 131 -107 177q-26 46 -26 71z" />
<glyph unicode="&#xac;" d="M133 424v102h563v-303h-90v201h-473z" />
<glyph unicode="&#xad;" horiz-adv-x="473" d="M43 336q0 67 35 92l350 14q0 -68 -35 -94z" />
<glyph unicode="&#xae;" horiz-adv-x="903" d="M66 664q0 104 51 192t139 140t192 52t193 -52q88 -52 140 -140q53 -88 53 -192t-52 -192t-141 -141q-88 -52 -192 -52t-193 52q-88 52 -139 140q-51 89 -51 193zM98 662q0 -96 47 -175q47 -80 128 -127t177 -47t175 47q80 47 127 127q47 79 47 175t-47 177t-127 128 t-175 47q-94 0 -176 -47t-129 -128t-47 -177zM240 420q30 36 36 64t7 83v226q0 66 -43 100l6 16q96 29 200 29q105 0 159 -42t54 -100q0 -109 -118 -137v-4q70 -18 88 -102l18 -96q4 -25 31 -25l6 -16q-37 -21 -71 -21q-78 0 -89 74l-22 104q-8 39 -34 57t-75 19v-141 q0 -37 11 -53t53 -27l-8 -22h-199zM391 674q78 -1 116 25q38 27 38 87t-26 92t-68 31q-59 0 -60 -53v-182z" />
<glyph unicode="&#xaf;" horiz-adv-x="542" d="M66 809q-1 84 34 117h377q0 -88 -35 -117h-376z" />
<glyph unicode="&#xb0;" horiz-adv-x="606" d="M43 727q0 112 70 179q71 67 189 67t188 -67q70 -68 71 -180q0 -112 -71 -178q-72 -66 -190 -67q-118 0 -188 67t-69 179zM211 723q0 -201 86 -201q41 0 67 56t26 154q0 96 -23 147t-64 51t-67 -56t-25 -151z" />
<glyph unicode="&#xb1;" horiz-adv-x="827" d="M131 424v102h231v232h101v-232h231v-102h-231v-229h-101v229h-231zM133 -2v102h563v-102h-563z" />
<glyph unicode="&#xb2;" horiz-adv-x="534" d="M25 428q171 135 235 219t64 168q0 47 -18 77t-48 30q-29 0 -48 -28q-20 -28 -20 -84t35 -83l-4 -14q-176 5 -176 117q0 58 59 97q59 40 161 40t161 -42t59 -120q0 -154 -321 -326h336q0 -68 -37 -96h-414z" />
<glyph unicode="&#xb3;" horiz-adv-x="534" d="M41 501q0 105 170 107l4 -14q-29 -29 -29 -82q0 -90 66 -90q36 0 58 33t22 86t-31 84q-47 47 -147 22l-7 29l33 8q137 35 137 147q0 43 -18 72q-17 29 -41 29t-40 -23t-15 -72q0 -49 24 -77l-4 -15q-166 4 -166 109q1 53 59 88t148 35t148 -40t59 -101q0 -98 -115 -148 q60 -14 96 -55t36 -107t-62 -109q-62 -42 -164 -42t-162 37q-59 37 -59 89z" />
<glyph unicode="&#xb4;" horiz-adv-x="382" d="M76 788l209 224q77 -32 77 -98t-90 -97l-170 -61z" />
<glyph unicode="&#xb5;" horiz-adv-x="878" d="M27 600q35 30 91 52t115 24l21 2q55 0 53 -43v-434q0 -135 84 -135q72 0 117 86t45 204t-12 178t-45 105l16 18l223 19v-676h-80l-106 147q-52 -122 -170 -151q-25 -8 -47 -8t-31 2v-269l-197 19l-16 16l16 25q19 27 19 151v617l-90 29z" />
<glyph unicode="&#xb6;" horiz-adv-x="688" d="M43 18q0 70 65 121t162 60l6 -17q-57 -51 -57 -155q1 -51 21 -82t57 -31t61 39t25 108v242q-152 19 -246 103t-94 200t69 182q69 68 185 68q74 0 173 -16t128 -19l14 -16l-16 -25q-18 -25 -18 -51v-496q0 -190 -77 -279t-241 -89q-96 0 -157 42q-60 41 -60 111z" />
<glyph unicode="&#xb7;" horiz-adv-x="296" d="M35 459q0 35 39 77q40 42 72 42t72 -42t40 -77t-40 -76t-73 -41t-71 41t-39 76z" />
<glyph unicode="&#xb8;" horiz-adv-x="466" d="M31 -303q0 39 21.5 62.5t58 23.5t61.5 -12q-20 -21 -20 -57q0 -70 55 -70q37 0 57.5 35.5t20.5 84.5t-24.5 78t-63.5 29t-74 -21l-25 25l123 150h53l-90 -111l6 -6q19 6 46 6q76 0 132 -38t56 -109.5t-63.5 -115.5t-147.5 -44t-133 25.5t-49 64.5z" />
<glyph unicode="&#xb9;" horiz-adv-x="460" d="M-25 870l293 109q25 -10 39 -35l-20 -14v-373q0 -78 35 -131l10 -16l-13 -17h-264l-12 33l43 8q29 6 37 20t8 48v342l-88 -58q-23 4 -43 31t-25 53z" />
<glyph unicode="&#xba;" horiz-adv-x="575" d="M37 729q-1 112 68 179t184 67t183 -67q68 -68 69 -180q0 -112 -69 -180q-70 -68 -184 -67q-114 0 -183 68t-68 180zM200 726q0 -96 24 -152t63 -56t65 57t24 143q0 86 -20 154t-63 68t-68 -59t-25 -155z" />
<glyph unicode="&#xbb;" horiz-adv-x="688" d="M39 180q30 48 186 191q-156 147 -186 192q47 84 145 99q96 -154 127 -209t31 -81t-32 -82t-126 -208q-98 14 -145 98zM336 180q30 48 186 191q-156 147 -186 192q49 84 147 99q96 -158 126 -212t30 -79t-31 -80t-125 -209q-98 14 -147 98z" />
<glyph unicode="&#xbc;" horiz-adv-x="1255" d="M8 866l293 109q25 -10 39 -35l-21 -14v-373q2 -83 46 -147l-13 -17h-264l-12 33l43 8q29 6 37 20t8 48v342l-88 -58q-23 4 -43 31t-25 53zM358 -41l398 1036h69l-399 -1036h-68zM745 152l181 421h141l16 -16l-239 -373h172v88q0 46 -19 72l11 16l153 11v-187h68 q0 -39 -23 -55h-45q0 -47 37 -96l12 -17l-14 -16h-256l-8 33l37 8q27 6 37 20t10 48v20h-254z" />
<glyph unicode="&#xbd;" horiz-adv-x="1257" d="M8 866l293 109q25 -10 39 -35l-21 -14v-373q2 -83 46 -147l-13 -17h-264l-12 33l43 8q29 6 37 20t8 48v342l-88 -58q-23 4 -43 31t-25 53zM358 -41l398 1036h69l-399 -1036h-68zM748 45q170 135 234 219t65 168q-1 47 -19 77t-47 30t-48 -28t-19 -84t34 -83l-4 -14 q-176 4 -176 116q0 58 59 98t161 40t161 -42t59 -120q0 -154 -321 -326h336q0 -68 -37 -96h-414z" />
<glyph unicode="&#xbe;" horiz-adv-x="1329" d="M41 497q0 103 170 107l4 -14q-29 -29 -29 -82q0 -90 66 -90q36 0 58 33t22 86t-31 84q-47 47 -147 22l-7 29l33 8q137 35 137 147q0 43 -18 72q-17 29 -41 29t-40 -23t-15 -72q0 -49 24 -77l-4 -15q-166 4 -166 109q1 53 59 88t148 35t148 -40t59 -102q0 -98 -115 -147 q60 -14 96 -55t36 -108t-62 -109t-164 -41q-102 0 -162 37q-59 37 -59 89zM432 -41l397 1036h70l-399 -1036h-68zM819 152l180 421h142l16 -16l-239 -373h172v88q0 44 -19 72l10 16l154 11v-187h68q0 -39 -23 -55h-45q0 -47 37 -96l12 -17l-14 -16h-256l-8 33l36 8 q27 6 37 20t11 48v20h-254z" />
<glyph unicode="&#xbf;" horiz-adv-x="675" d="M37 -127q0 93 45 155t135 148q67 59 101 99t47 87l6 25h26l62 -63q-219 -223 -219 -430q0 -94 30 -148q31 -53 81 -53t79 40t29 105q0 105 -68 152l4 14q113 -4 182 -51t69 -123t-82 -127q-81 -51 -215 -51t-223 64q-89 65 -89 157zM276 568q0 34 38 73t70 39t69 -40 t37 -72t-37 -73q-37 -40 -69 -40t-70 40q-38 39 -38 73z" />
<glyph unicode="&#xc0;" horiz-adv-x="958" d="M-10 37l30 8q49 14 74 40t47 91l209 602q14 51 15 72q0 45 -66 63l-23 7l15 36h278l269 -772q20 -57 44.5 -91t75.5 -73l-18 -20h-371l-12 37l31 8q57 19 57 63q0 22 -22 89l-41 120h-318l-16 -51q-31 -92 -31 -138t16 -83l15 -25l-19 -20h-225zM285 375h276l-139 416z M309 1206q0 67 76 97l209 -224l-27 -32l-170 61q-88 31 -88 98z" />
<glyph unicode="&#xc1;" horiz-adv-x="958" d="M-10 37l30 8q49 14 74 40t47 91l209 602q14 51 15 72q0 45 -66 63l-23 7l15 36h278l269 -772q20 -57 44.5 -91t75.5 -73l-18 -20h-371l-12 37l31 8q57 19 57 63q0 22 -22 89l-41 120h-318l-16 -51q-31 -92 -31 -138t16 -83l15 -25l-19 -20h-225zM285 375h276l-139 416z M362 1079l209 224q76 -32 76 -98.5t-90 -96.5l-168 -61z" />
<glyph unicode="&#xc2;" horiz-adv-x="958" d="M-10 37l30 8q49 14 74 40t47 91l209 602q14 51 15 72q0 45 -66 63l-23 7l15 36h278l269 -772q20 -57 44.5 -91t75.5 -73l-18 -20h-371l-12 37l31 8q57 19 57 63q0 22 -22 89l-41 120h-318l-16 -51q-31 -92 -31 -138t16 -83l15 -25l-19 -20h-225zM281 1073q83 157 163 223 h70q68 -53 164 -223l-31 -26l-168 114l-168 -114zM285 375h276l-139 416z" />
<glyph unicode="&#xc3;" horiz-adv-x="958" d="M-10 37l30 8q49 14 74 40t47 91l209 602q14 51 15 72q0 45 -66 63l-23 7l15 36h278l269 -772q20 -57 44.5 -91t75.5 -73l-18 -20h-371l-12 37l31 8q57 19 57 63q0 22 -22 89l-41 120h-318l-16 -51q-31 -92 -31 -138t16 -83l15 -25l-19 -20h-225zM262 1110q88 143 162 143 q32 0 71.5 -26.5t73 -26.5t88.5 53l35 -30q-88 -144 -162 -144q-33 0 -71.5 25.5t-72.5 25.5t-91 -51zM285 375h276l-139 416z" />
<glyph unicode="&#xc4;" horiz-adv-x="958" d="M-10 37l30 8q49 14 74 40t47 91l209 602q14 51 15 72q0 45 -66 63l-23 7l15 36h278l269 -772q20 -57 44.5 -91t75.5 -73l-18 -20h-371l-12 37l31 8q57 19 57 63q0 22 -22 89l-41 120h-318l-16 -51q-31 -92 -31 -138t16 -83l15 -25l-19 -20h-225zM240 1156q0 32 35.5 71 t65.5 39t65.5 -39t35.5 -71t-35.5 -68.5t-65.5 -36.5t-65.5 36.5t-35.5 68.5zM285 375h276l-139 416zM514 1157q0 31 36 70t65.5 39t66.5 -39t37 -71t-37 -68.5t-67 -36.5t-65.5 37.5t-35.5 68.5z" />
<glyph unicode="&#xc5;" horiz-adv-x="958" d="M-10 37l30 8q49 14 74 40t47 91l209 602q14 51 15 72q0 45 -66 63l-23 7l15 36h278l269 -772q20 -57 44.5 -91t75.5 -73l-18 -20h-371l-12 37l31 8q57 19 57 63q0 22 -22 89l-41 120h-318l-16 -51q-31 -92 -31 -138t16 -83l15 -25l-19 -20h-225zM285 375h276l-139 416z M315 1167.5q0 65.5 42 106.5t122 41t123 -41t43 -106.5t-43 -106.5t-123 -41t-122 41t-42 106.5zM428 1168q0 -46 13.5 -77.5t35.5 -31.5q51 0 51 108.5t-51 108.5q-23 0 -36 -31t-13 -77z" />
<glyph unicode="&#xc6;" horiz-adv-x="1320" d="M-16 37l30 8q68 18 103 80l463 831h452q117 0 152 27l24 18l23 -18v-256l-43 -14q-37 115 -73 153.5t-101 38.5h-92q-51 0 -67.5 -19.5t-16.5 -82.5v-326h145q63 0 92 13.5t43 48.5l10 26l27 -14v-236l-45 -16l-8 43q-8 43 -44 59.5t-120 16.5h-100v-266q0 -63 18 -82 t82 -19h100q57 0 93 41t73 152l41 -15v-245l-20 -19q-29 20 -60.5 27.5t-95.5 7.5h-528l-15 37l29 8q51 14 68.5 40t17.5 85v250h-283l-118 -215q-29 -55 -29 -92.5t16 -67.5l15 -25l-19 -20h-225zM389 477h252v430h-14z" />
<glyph unicode="&#xc7;" horiz-adv-x="849" d="M41 491.5q0 202.5 116.5 343t338.5 140.5q141 0 230 -54.5t89 -141.5t-71.5 -136t-180.5 -49q61 66 62 178q0 66 -40 110t-104 44q-117 0 -171 -133.5t-54 -283t34 -245.5t98.5 -152.5t154.5 -56.5q160 0 272 152l25 -19q-55 -92 -142.5 -149t-205.5 -57q-42 0 -60 2 l-57 -70l6 -6q18 6 45 6q76 0 132 -38t56 -109.5t-63.5 -115.5t-147.5 -44t-133 25.5t-49 64.5t21.5 62.5t58.5 23.5t61 -12q-20 -21 -20 -57q0 -70 55 -70q37 0 57.5 35.5t20.5 84.5t-24.5 78t-63.5 29t-74 -21l-24 25l96 117q-168 33 -256 165t-88 334.5z" />
<glyph unicode="&#xc8;" horiz-adv-x="845" d="M51 37q51 14 73.5 27.5t31 36t8.5 69.5v518q0 82 -12.5 129t-47.5 94l-16 23l16 22h453q113 0 152 27l24 18l21 -18v-256l-41 -14q-37 111 -73 151.5t-101 40.5h-93q-53 0 -69.5 -19.5t-16.5 -82.5v-291h148q61 0 91 12.5t44 48.5l10 29l27 -16v-230l-45 -16l-8 45 q-8 43 -45 59.5t-119 16.5h-103v-309q0 -61 18.5 -81t82.5 -20h100q61 0 97 43t69 150l43 -15v-245l-22 -19q-51 35 -168 35h-514zM254 1206q0 67 76 97l209 -224l-27 -32l-170 61q-88 31 -88 98z" />
<glyph unicode="&#xc9;" horiz-adv-x="845" d="M51 37q51 14 73.5 27.5t31 36t8.5 69.5v518q0 82 -12.5 129t-47.5 94l-16 23l16 22h453q113 0 152 27l24 18l21 -18v-256l-41 -14q-37 111 -73 151.5t-101 40.5h-93q-53 0 -69.5 -19.5t-16.5 -82.5v-291h148q61 0 91 12.5t44 48.5l10 29l27 -16v-230l-45 -16l-8 45 q-8 43 -45 59.5t-119 16.5h-103v-309q0 -61 18.5 -81t82.5 -20h100q61 0 97 43t69 150l43 -15v-245l-22 -19q-51 35 -168 35h-514zM307 1079l209 224q76 -32 76 -98.5t-90 -96.5l-168 -61z" />
<glyph unicode="&#xca;" horiz-adv-x="845" d="M51 37q51 14 73.5 27.5t31 36t8.5 69.5v518q0 82 -12.5 129t-47.5 94l-16 23l16 22h453q113 0 152 27l24 18l21 -18v-256l-41 -14q-37 111 -73 151.5t-101 40.5h-93q-53 0 -69.5 -19.5t-16.5 -82.5v-291h148q61 0 91 12.5t44 48.5l10 29l27 -16v-230l-45 -16l-8 45 q-8 43 -45 59.5t-119 16.5h-103v-309q0 -61 18.5 -81t82.5 -20h100q61 0 97 43t69 150l43 -15v-245l-22 -19q-51 35 -168 35h-514zM225 1073q84 159 164 223h70q68 -53 164 -223l-31 -26l-168 114l-168 -114z" />
<glyph unicode="&#xcb;" horiz-adv-x="845" d="M51 37q51 14 73.5 27.5t31 36t8.5 69.5v518q0 82 -12.5 129t-47.5 94l-16 23l16 22h453q113 0 152 27l24 18l21 -18v-256l-41 -14q-37 111 -73 151.5t-101 40.5h-93q-53 0 -69.5 -19.5t-16.5 -82.5v-291h148q61 0 91 12.5t44 48.5l10 29l27 -16v-230l-45 -16l-8 45 q-8 43 -45 59.5t-119 16.5h-103v-309q0 -61 18.5 -81t82.5 -20h100q61 0 97 43t69 150l43 -15v-245l-22 -19q-51 35 -168 35h-514zM184 1156q0 32 36 71t66 39t65.5 -39t35.5 -71t-36 -68.5t-65.5 -36.5t-65.5 36.5t-36 68.5zM459 1157q0 31 35.5 70t65.5 39t67 -39t37 -71 t-37 -68.5t-67 -36.5t-65.5 37.5t-35.5 68.5z" />
<glyph unicode="&#xcc;" horiz-adv-x="516" d="M55 37q47 12 68.5 25.5t29 37t7.5 70.5v532q0 98 -15.5 138.5t-74.5 89.5l18 26h346l15 -32q-59 -35 -76 -65t-17 -105v-504q0 -96 15.5 -136t72.5 -89l-16 -25h-358zM90 1206q0 67 76 97l209 -224l-27 -32l-170 61q-88 31 -88 98z" />
<glyph unicode="&#xcd;" horiz-adv-x="516" d="M55 37q47 12 68.5 25.5t29 37t7.5 70.5v532q0 98 -15.5 138.5t-74.5 89.5l18 26h346l15 -32q-59 -35 -76 -65t-17 -105v-504q0 -96 15.5 -136t72.5 -89l-16 -25h-358zM143 1079l209 224q76 -32 76 -98.5t-90 -96.5l-168 -61z" />
<glyph unicode="&#xce;" horiz-adv-x="516" d="M55 37q47 12 68.5 25.5t29 37t7.5 70.5v532q0 98 -15.5 138.5t-74.5 89.5l18 26h346l15 -32q-59 -35 -76 -65t-17 -105v-504q0 -96 15.5 -136t72.5 -89l-16 -25h-358zM61 1073q84 159 164 223h70q68 -53 164 -223l-31 -26l-168 114l-168 -114z" />
<glyph unicode="&#xcf;" horiz-adv-x="516" d="M20 1156q0 32 36 71t66 39t65.5 -39t35.5 -71t-35.5 -68.5t-65.5 -36.5t-66 36.5t-36 68.5zM55 37q47 12 68.5 25.5t29 37t7.5 70.5v532q0 98 -15.5 138.5t-74.5 89.5l18 26h346l15 -32q-59 -35 -76 -65t-17 -105v-504q0 -96 15.5 -136t72.5 -89l-16 -25h-358zM295 1157 q0 31 36 70t65.5 39t66.5 -39t37 -71t-37 -68.5t-67 -36.5t-65.5 37.5t-35.5 68.5z" />
<glyph unicode="&#xd0;" horiz-adv-x="1013" d="M45 436q0 61 25 84h96v205q0 72 -11.5 104.5t-52.5 57.5l-24 14l8 27q160 47 352 47q260 0 396.5 -128t136.5 -358.5t-126 -359.5t-343 -129h-434l-15 37q51 14 74 27.5t31 36t8 69.5v266h-121zM362 231q0 -190 121 -190q277 0 277 436q0 201 -79 323t-199 122t-120 -64 v-338h248q0 -57 -26 -84h-222v-205z" />
<glyph unicode="&#xd1;" horiz-adv-x="1003" d="M31 37q53 14 74.5 26.5t29.5 35t8 71.5v541q0 90 -16 131t-72 88l17 26h266l457 -790v620q0 61 -26 86t-105 48l12 36h244l18 -22l-18 -23q-33 -47 -46.5 -96t-13.5 -127v-571q0 -43 19 -72l18 -25l-18 -20h-213l-455 784v-516q0 -82 13.5 -130t45.5 -93l19 -25l-19 -20 h-225zM285 1110q88 143 161 143q34 0 72.5 -26.5t72.5 -26.5t89 53l35 -30q-88 -144 -162 -144q-32 0 -72 25.5t-73 25.5t-91 -51z" />
<glyph unicode="&#xd2;" horiz-adv-x="1011" d="M43 477.5q0 229.5 125 363.5t338 134t339 -134t126 -362.5t-126 -362.5t-339 -134t-338 133t-125 362.5zM250 467q0 -199 67.5 -318.5t182.5 -119.5q75 0 133.5 56t91.5 156.5t33 231.5t-32 235.5t-88 163t-130 58.5t-134 -58q-124 -122 -124 -405zM338 1206q0 67 76 97 l209 -224l-27 -32l-170 61q-88 31 -88 98z" />
<glyph unicode="&#xd3;" horiz-adv-x="1011" d="M43 477.5q0 229.5 125 363.5t338 134t339 -134t126 -362.5t-126 -362.5t-339 -134t-338 133t-125 362.5zM250 467q0 -199 67.5 -318.5t182.5 -119.5q75 0 133.5 56t91.5 156.5t33 231.5t-32 235.5t-88 163t-130 58.5t-134 -58q-124 -122 -124 -405zM391 1079l209 224 q76 -32 76 -98.5t-90 -96.5l-168 -61z" />
<glyph unicode="&#xd4;" horiz-adv-x="1011" d="M43 477.5q0 229.5 125 363.5t338 134t339 -134t126 -362.5t-126 -362.5t-339 -134t-338 133t-125 362.5zM250 467q0 -199 67.5 -318.5t182.5 -119.5q75 0 133.5 56t91.5 156.5t33 231.5t-32 235.5t-88 163t-130 58.5t-134 -58q-124 -122 -124 -405zM309 1073 q84 159 164 223h70q68 -53 164 -223l-31 -26l-168 114l-168 -114z" />
<glyph unicode="&#xd5;" horiz-adv-x="1011" d="M43 477.5q0 229.5 125 363.5t338 134t339 -134t126 -362.5t-126 -362.5t-339 -134t-338 133t-125 362.5zM250 467q0 -199 67.5 -318.5t182.5 -119.5q75 0 133.5 56t91.5 156.5t33 231.5t-32 235.5t-88 163t-130 58.5t-134 -58q-124 -122 -124 -405zM291 1110 q88 143 162 143q33 0 71.5 -26.5t72.5 -26.5t89 53l35 -30q-88 -144 -162 -144q-32 0 -72 25.5t-73 25.5t-90 -51z" />
<glyph unicode="&#xd6;" horiz-adv-x="1011" d="M43 477.5q0 229.5 125 363.5t338 134t339 -134t126 -362.5t-126 -362.5t-339 -134t-338 133t-125 362.5zM250 467q0 -199 67.5 -318.5t182.5 -119.5q75 0 133.5 56t91.5 156.5t33 231.5t-32 235.5t-88 163t-130 58.5t-134 -58q-124 -122 -124 -405zM268 1156q0 32 36 71 t66 39t65.5 -39t35.5 -71t-36 -68.5t-65.5 -36.5t-65.5 36.5t-36 68.5zM543 1157q0 31 35.5 70t65.5 39t67 -39t37 -71t-37 -68.5t-67 -36.5t-65.5 37.5t-35.5 68.5z" />
<glyph unicode="&#xd7;" horiz-adv-x="827" d="M150 283l190 192l-190 193l71 71l193 -192l192 192l72 -71l-193 -193l193 -192l-72 -72l-192 192l-193 -192z" />
<glyph unicode="&#xd8;" horiz-adv-x="1011" d="M43 477q0 229 125 363.5t338 134.5q72 0 127 -14l24 69h84l-32 -94q125 -53 193.5 -173t68.5 -286q0 -227 -126 -361t-339 -134q-66 0 -121 12l-31 -88h-80l37 110q-127 51 -197.5 171t-70.5 290zM250 489q0 -261 94 -380l268 786q-47 35 -112.5 35t-125.5 -58 q-124 -122 -124 -383zM406 53q43 -25 106 -24.5t121.5 56.5t91.5 156.5t33 221.5q0 234 -86 366z" />
<glyph unicode="&#xd9;" horiz-adv-x="985" d="M51 930l15 26h358l14 -32q-47 -25 -67.5 -44.5t-27.5 -50t-7 -92.5v-415q0 -279 209 -279q117 0 180 72.5t63 206.5v464q0 63 -23.5 87t-100.5 47l14 36h237l19 -22l-19 -23q-35 -47 -48 -95t-11 -128v-348q0 -176 -90 -267t-262 -91t-268.5 94t-96.5 264v367 q0 94 -16.5 135t-71.5 88zM387 1206q0 67 76 97l209 -224l-27 -32l-170 61q-88 31 -88 98z" />
<glyph unicode="&#xda;" horiz-adv-x="985" d="M51 930l15 26h358l14 -32q-47 -25 -67.5 -44.5t-27.5 -50t-7 -92.5v-415q0 -279 209 -279q117 0 180 72.5t63 206.5v464q0 63 -23.5 87t-100.5 47l14 36h237l19 -22l-19 -23q-35 -47 -48 -95t-11 -128v-348q0 -176 -90 -267t-262 -91t-268.5 94t-96.5 264v367 q0 94 -16.5 135t-71.5 88zM440 1079l209 224q76 -32 76 -98.5t-90 -96.5l-168 -61z" />
<glyph unicode="&#xdb;" horiz-adv-x="985" d="M51 930l15 26h358l14 -32q-47 -25 -67.5 -44.5t-27.5 -50t-7 -92.5v-415q0 -279 209 -279q117 0 180 72.5t63 206.5v464q0 63 -23.5 87t-100.5 47l14 36h237l19 -22l-19 -23q-35 -47 -48 -95t-11 -128v-348q0 -176 -90 -267t-262 -91t-268.5 94t-96.5 264v367 q0 94 -16.5 135t-71.5 88zM358 1073q84 159 164 223h70q68 -53 164 -223l-31 -26l-168 114l-168 -114z" />
<glyph unicode="&#xdc;" horiz-adv-x="985" d="M51 930l15 26h358l14 -32q-47 -25 -67.5 -44.5t-27.5 -50t-7 -92.5v-415q0 -279 209 -279q117 0 180 72.5t63 206.5v464q0 63 -23.5 87t-100.5 47l14 36h237l19 -22l-19 -23q-35 -47 -48 -95t-11 -128v-348q0 -176 -90 -267t-262 -91t-268.5 94t-96.5 264v367 q0 94 -16.5 135t-71.5 88zM317 1156q0 32 36 71t66 39t65.5 -39t35.5 -71t-35.5 -68.5t-65.5 -36.5t-66 36.5t-36 68.5zM592 1157q0 31 36 70t65.5 39t66.5 -39t37 -71t-37 -68.5t-67 -36.5t-65.5 37.5t-35.5 68.5z" />
<glyph unicode="&#xdd;" d="M-16 934l18 22h375l10 -36l-31 -9q-59 -12 -59 -47q0 -20 41 -96l139 -262l148 280q16 27 16 53.5t-16.5 46t-40.5 25.5l-39 9l12 36h236l16 -22l-21 -23q-55 -68 -94 -141l-186 -356v-244q0 -84 40 -106q22 -12 73 -27l-13 -37h-358l-17 20l17 25q35 45 48 93t13 130 v142l-194 356q-33 66 -61.5 101.5t-71.5 66.5zM334 1079l209 224q75 -32 75 -98.5t-90 -96.5l-168 -61z" />
<glyph unicode="&#xde;" horiz-adv-x="856" d="M49 930l17 26h374l15 -32q-55 -29 -71 -57t-19 -103q55 18 116 18q166 0 264 -86q99 -86 99 -220t-84 -217t-211 -83q-79 0 -154 41l4 21q53 -7 72 -2q168 25 168 244q0 110 -51 182t-137 71q-41 1 -65 -21t-24 -57v-387q0 -90 14 -137t62 -111l-16 -20h-356l-15 37 q74 20 94 44t21 89v530q0 118 -41 164q-23 27 -76 66z" />
<glyph unicode="&#xdf;" horiz-adv-x="872" d="M33 35l28 8q37 10 51 33q13 23 13 80v458q0 180 95 284t259 106q109 0 171 -43t63 -117q0 -43 -25 -75t-68 -68q-42 -37 -64 -63t-22 -54t16 -46q15 -19 52 -44l105 -74q145 -97 145 -227q0 -91 -65 -151t-181 -60t-196 79l16 23q50 -33 112 -33t95 29t33 78 q0 78 -91 137l-94 65q-59 43 -80 75q-20 32 -20 72q0 41 16 69q15 28 55 77t61 89q22 40 22 94t-24 87q-24 32 -67 31q-61 0 -96 -70t-35 -200v-453q0 -118 49 -188l17 -23l-17 -20h-317z" />
<glyph unicode="&#xe0;" horiz-adv-x="747" d="M47 161q0 83 84 134t227 51q27 0 76 -4v102q0 189 -94 189t-94 -99q0 -50 37 -81q-44 -25 -95 -25q-100 0 -100 98q0 70 68.5 112t189.5 42t195.5 -57.5t74.5 -155.5v-354q0 -57 41 -58q39 0 76 31l17 -20q-76 -84 -181 -84q-119 0 -131 127h-8q-71 -127 -211 -127 q-78 0 -125 48t-47 131zM174 915.5q0 67.5 76 96.5l209 -224l-27 -32l-170 61q-88 31 -88 98.5zM229 174q0 -41 22.5 -65.5t61.5 -24.5q121 0 121 219q-205 0 -205 -129z" />
<glyph unicode="&#xe1;" horiz-adv-x="747" d="M47 161q0 83 84 134t227 51q27 0 76 -4v102q0 189 -94 189t-94 -99q0 -50 37 -81q-44 -25 -95 -25q-100 0 -100 98q0 70 68.5 112t189.5 42t195.5 -57.5t74.5 -155.5v-354q0 -57 41 -58q39 0 76 31l17 -20q-76 -84 -181 -84q-119 0 -131 127h-8q-71 -127 -211 -127 q-78 0 -125 48t-47 131zM227 788l209 224q76 -31 76 -97.5t-90 -97.5l-168 -61zM229 174q0 -41 22.5 -65.5t61.5 -24.5q121 0 121 219q-205 0 -205 -129z" />
<glyph unicode="&#xe2;" horiz-adv-x="747" d="M47 161q0 83 84 134t227 51q27 0 76 -4v102q0 189 -94 189t-94 -99q0 -50 37 -81q-44 -25 -95 -25q-100 0 -100 98q0 70 68.5 112t189.5 42t195.5 -57.5t74.5 -155.5v-354q0 -57 41 -58q39 0 76 31l17 -20q-76 -84 -181 -84q-119 0 -131 127h-8q-71 -127 -211 -127 q-78 0 -125 48t-47 131zM145 782q82 156 164 224h70q68 -53 164 -224l-31 -26l-168 114l-168 -114zM229 174q0 -41 22.5 -65.5t61.5 -24.5q121 0 121 219q-205 0 -205 -129z" />
<glyph unicode="&#xe3;" horiz-adv-x="747" d="M47 161q0 83 84 134t227 51q27 0 76 -4v102q0 189 -94 189t-94 -99q0 -50 37 -81q-44 -25 -95 -25q-100 0 -100 98q0 70 68.5 112t189.5 42t195.5 -57.5t74.5 -155.5v-354q0 -57 41 -58q39 0 76 31l17 -20q-76 -84 -181 -84q-119 0 -131 127h-8q-71 -127 -211 -127 q-78 0 -125 48t-47 131zM127 819q88 144 162 144q32 0 71 -27t73 -27t89 54l35 -31q-88 -144 -162 -144q-32 0 -73 26t-73 26t-89 -52zM229 174q0 -41 22.5 -65.5t61.5 -24.5q121 0 121 219q-205 0 -205 -129z" />
<glyph unicode="&#xe4;" horiz-adv-x="747" d="M47 161q0 83 84 134t227 51q27 0 76 -4v102q0 189 -94 189t-94 -99q0 -50 37 -81q-44 -25 -95 -25q-100 0 -100 98q0 70 68.5 112t189.5 42t195.5 -57.5t74.5 -155.5v-354q0 -57 41 -58q39 0 76 31l17 -20q-76 -84 -181 -84q-119 0 -131 127h-8q-71 -127 -211 -127 q-78 0 -125 48t-47 131zM104 865.5q0 31.5 36 70.5t66 39t65.5 -39t35.5 -71t-35.5 -68.5t-65.5 -36.5t-66 37t-36 68.5zM229 174q0 -41 22.5 -65.5t61.5 -24.5q121 0 121 219q-205 0 -205 -129zM379 866.5q0 30.5 36 69.5t65.5 39t66.5 -39t37 -71t-37 -68.5t-67 -36.5 t-65.5 38t-35.5 68.5z" />
<glyph unicode="&#xe5;" horiz-adv-x="747" d="M47 161q0 83 84 134t227 51q27 0 76 -4v102q0 189 -94 189t-94 -99q0 -50 37 -81q-44 -25 -95 -25q-100 0 -100 98q0 70 68.5 112t189.5 42t195.5 -57.5t74.5 -155.5v-354q0 -57 41 -58q39 0 76 31l17 -20q-76 -84 -181 -84q-119 0 -131 127h-8q-71 -127 -211 -127 q-78 0 -125 48t-47 131zM180 876.5q0 65.5 42 106.5t122 41t123 -41t43 -106.5t-43 -106.5t-123 -41t-122 41t-42 106.5zM229 174q0 -41 22.5 -65.5t61.5 -24.5q121 0 121 219q-205 0 -205 -129zM293 878q0 -46 13 -78t36 -32q51 0 51 108.5t-51 108.5q-23 0 -36 -30.5 t-13 -76.5z" />
<glyph unicode="&#xe6;" horiz-adv-x="1095" d="M49 157q0 85 81 137t230 52q49 0 76 -4v102q0 189 -94 189t-94 -99q0 -50 37 -81q-43 -25 -95 -25q-100 0 -100 98q0 70 68.5 112t199 42t205.5 -74q90 74 217.5 74t200 -55.5t72.5 -138.5t-76 -139t-234 -56q-29 0 -106 8q8 -113 58 -181.5t147 -68.5t178 94l24 -18 q-98 -143 -276 -143q-104 0 -184 56t-115 150q-29 -111 -95.5 -158.5t-146.5 -47.5t-129 45t-49 130zM231 182q0 -85 64 -94l16 -2q63 0 99 70q26 50 26 153q-205 0 -205 -127zM635 328q139 0 189 50t50 110t-28.5 101.5t-83.5 41.5t-91 -79t-36 -212v-12z" />
<glyph unicode="&#xe7;" horiz-adv-x="688" d="M45 341.5q0 146.5 96.5 242.5t255.5 96q113 0 182.5 -50t69.5 -124t-41 -113t-94 -39t-92 25q45 41 45 107q0 142 -99 143q-50 0 -84 -83t-34 -213t48 -207t146.5 -77t178.5 88l24 -16q-43 -61 -112.5 -100t-161.5 -39h-23l-55 -68l6 -6q18 6 45 6q76 0 132.5 -38 t56.5 -109.5t-63.5 -115.5t-148 -44t-133.5 25.5t-49 64.5t21.5 62.5t58.5 23.5t62 -12q-21 -21 -21 -57q0 -70 55 -70q37 0 57.5 35.5t20.5 84.5t-24.5 78t-63.5 29t-74 -21l-24 25l92 113q-117 23 -186.5 115t-69.5 238.5z" />
<glyph unicode="&#xe8;" horiz-adv-x="706" d="M47 330q0 160 97.5 255t258.5 95q115 0 188 -54.5t73 -146.5t-83 -150.5t-227 -58.5q-57 0 -104 9q10 -106 61 -168t127 -62q114 0 193 94l24 -18q-99 -143 -282 -143q-90 0 -165 45t-118 123.5t-43 179.5zM213 915.5q0 67.5 76 96.5l209 -224l-27 -32l-170 61 q-88 31 -88 98.5zM246 307q127 0 180 53.5t53 121.5t-27.5 108.5t-70.5 40.5q-64 0 -99.5 -77t-35.5 -214v-33z" />
<glyph unicode="&#xe9;" horiz-adv-x="706" d="M47 330q0 160 97.5 255t258.5 95q115 0 188 -54.5t73 -146.5t-83 -150.5t-227 -58.5q-57 0 -104 9q10 -106 61 -168t127 -62q114 0 193 94l24 -18q-99 -143 -282 -143q-90 0 -165 45t-118 123.5t-43 179.5zM246 307q127 0 180 53.5t53 121.5t-27.5 108.5t-70.5 40.5 q-64 0 -99.5 -77t-35.5 -214v-33zM266 788l209 224q76 -31 76 -97.5t-90 -97.5l-168 -61z" />
<glyph unicode="&#xea;" horiz-adv-x="706" d="M47 330q0 160 97.5 255t258.5 95q115 0 188 -54.5t73 -146.5t-83 -150.5t-227 -58.5q-57 0 -104 9q10 -106 61 -168t127 -62q114 0 193 94l24 -18q-99 -143 -282 -143q-90 0 -165 45t-118 123.5t-43 179.5zM184 782q82 156 164 224h70q68 -53 164 -224l-31 -26l-168 114 l-168 -114zM246 307q127 0 180 53.5t53 121.5t-27.5 108.5t-70.5 40.5q-64 0 -99.5 -77t-35.5 -214v-33z" />
<glyph unicode="&#xeb;" horiz-adv-x="706" d="M47 330q0 160 97.5 255t258.5 95q115 0 188 -54.5t73 -146.5t-83 -150.5t-227 -58.5q-57 0 -104 9q10 -106 61 -168t127 -62q114 0 193 94l24 -18q-99 -143 -282 -143q-90 0 -165 45t-118 123.5t-43 179.5zM143 865.5q0 31.5 36 70.5t66 39t65.5 -39t35.5 -71t-36 -68.5 t-65.5 -36.5t-65.5 37t-36 68.5zM246 307q127 0 180 53.5t53 121.5t-27.5 108.5t-70.5 40.5q-64 0 -99.5 -77t-35.5 -214v-33zM418 866.5q0 30.5 35.5 69.5t65.5 39t67 -39t37 -71t-37 -68.5t-67 -36.5t-65.5 38t-35.5 68.5z" />
<glyph unicode="&#xec;" horiz-adv-x="434" d="M23 600q41 35 102 57.5t105 22.5q76 0 75 -45v-518q0 -62 39 -62t76 31l16 -20q-76 -84 -164 -84t-120.5 37.5t-32.5 123.5v406q0 29 -27 29h-63zM47 915.5q0 67.5 76 96.5l209 -224l-27 -32l-170 61q-88 31 -88 98.5z" />
<glyph unicode="&#xed;" horiz-adv-x="434" d="M23 600q41 35 102 57.5t105 22.5q76 0 75 -45v-518q0 -62 39 -62t76 31l16 -20q-76 -84 -164 -84t-120.5 37.5t-32.5 123.5v406q0 29 -27 29h-63zM100 788l209 224q76 -31 76 -97.5t-90 -97.5l-168 -61z" />
<glyph unicode="&#xee;" horiz-adv-x="434" d="M18 782q82 156 164 224h70q68 -53 164 -224l-31 -26l-168 114l-168 -114zM23 600q41 35 102 57.5t105 22.5q76 0 75 -45v-518q0 -62 39 -62t76 31l16 -20q-76 -84 -164 -84t-120.5 37.5t-32.5 123.5v406q0 29 -27 29h-63z" />
<glyph unicode="&#xef;" horiz-adv-x="434" d="M-23 865.5q0 31.5 36 70.5t66 39t65.5 -39t35.5 -71t-35.5 -68.5t-65.5 -36.5t-66 37t-36 68.5zM23 600q41 35 102 57.5t105 22.5q76 0 75 -45v-518q0 -62 39 -62t76 31l16 -20q-76 -84 -164 -84t-120.5 37.5t-32.5 123.5v406q0 29 -27 29h-63zM252 866.5q0 30.5 36 69.5 t65.5 39t66.5 -39t37 -71t-37 -68.5t-67 -36.5t-65.5 38t-35.5 68.5z" />
<glyph unicode="&#xf0;" horiz-adv-x="806" d="M47 318q0 154 82 244q83 91 205 91t192 -69l9 4q-18 123 -48 215l-151 -76q0 41 6 58t25 26l98 49q-61 141 -150 141q-41 -1 -67 -33t-25 -87q0 -101 49 -148l-6 -18q-94 0 -148 43q-54 42 -54 118t73 126q75 50 199 50t239 -137l162 82q0 -68 -28 -84l-97 -47 q144 -208 144 -526q0 -162 -92 -260t-260 -98t-262 91q-95 91 -95 245zM250 307q0 -127 43 -204t113 -77t113 76q42 76 42 201t-43 205q-44 80 -114 80t-112 -77t-42 -204z" />
<glyph unicode="&#xf1;" horiz-adv-x="903" d="M51 596q41 35 102.5 57.5t105.5 22.5q75 0 75 -45v-176q29 96 102.5 160.5t158.5 64.5t125 -57.5t40 -182.5v-323q0 -62 39 -62t75 31l17 -20q-76 -84 -164 -84t-120 37.5t-32 123.5v314q0 119 -75 118q-74 0 -120 -100t-46 -234.5t43 -199.5l16 -21l-16 -20h-297l-12 35 l28 6q33 8 43.5 25.5t10.5 68.5v400q0 39 -27 38h-66zM233 819q88 144 162 144q33 0 72 -27t72.5 -27t89.5 54l35 -31q-88 -144 -162 -144q-32 0 -73 26t-73 26t-90 -52z" />
<glyph unicode="&#xf2;" horiz-adv-x="788" d="M47 331q0 161 93 255t253 94t254 -95.5t94 -255t-94 -253.5t-254 -94t-253 94t-93 255zM223 915.5q0 67.5 76 96.5l209 -224l-27 -32l-170 61q-88 31 -88 98.5zM250 329q0 -138 38 -220t101.5 -82t104.5 83t41 218t-39 222t-102 87t-103.5 -85t-40.5 -223z" />
<glyph unicode="&#xf3;" horiz-adv-x="788" d="M47 331q0 161 93 255t253 94t254 -95.5t94 -255t-94 -253.5t-254 -94t-253 94t-93 255zM250 329q0 -138 38 -220t101.5 -82t104.5 83t41 218t-39 222t-102 87t-103.5 -85t-40.5 -223zM276 788l209 224q76 -31 76 -97.5t-90 -97.5l-168 -61z" />
<glyph unicode="&#xf4;" horiz-adv-x="788" d="M47 331q0 161 93 255t253 94t254 -95.5t94 -255t-94 -253.5t-254 -94t-253 94t-93 255zM195 782q81 154 163 224h70q68 -53 164 -224l-31 -26l-168 114l-168 -114zM250 329q0 -138 38 -220t101.5 -82t104.5 83t41 218t-39 222t-102 87t-103.5 -85t-40.5 -223z" />
<glyph unicode="&#xf5;" horiz-adv-x="788" d="M47 331q0 161 93 255t253 94t254 -95.5t94 -255t-94 -253.5t-254 -94t-253 94t-93 255zM176 819q88 144 162 144q30 0 70.5 -27t74 -27t88.5 54l35 -31q-88 -144 -162 -144q-33 0 -72.5 26t-72.5 26t-90 -52zM250 329q0 -138 38 -220t101.5 -82t104.5 83t41 218t-39 222 t-102 87t-103.5 -85t-40.5 -223z" />
<glyph unicode="&#xf6;" horiz-adv-x="788" d="M47 331q0 161 93 255t253 94t254 -95.5t94 -255t-94 -253.5t-254 -94t-253 94t-93 255zM154 865.5q0 31.5 35.5 70.5t65.5 39t65.5 -39t35.5 -71t-35.5 -68.5t-65.5 -36.5t-65.5 37t-35.5 68.5zM250 329q0 -138 38 -220t101.5 -82t104.5 83t41 218t-39 222t-102 87 t-103.5 -85t-40.5 -223zM428 866.5q0 30.5 36 69.5t65.5 39t66.5 -39t37 -71t-37 -68.5t-67 -36.5t-65.5 38t-35.5 68.5z" />
<glyph unicode="&#xf7;" d="M133 424v102h563v-102h-563zM319 238q0 30 34 67t62 37q29 0 63 -37t34 -67t-34 -65q-34 -36 -62 -36t-63 36q-34 35 -34 65zM319 710q0 30 34 66q34 37 62 37q29 0 63 -37q34 -36 34 -66t-34 -66t-62 -36t-63 36q-34 36 -34 66z" />
<glyph unicode="&#xf8;" horiz-adv-x="788" d="M47 330q0 162 93 256t253 94q59 0 109 -12l41 88h84l-54 -117q80 -41 124 -121t44 -188q0 -160 -94 -254t-254 -94q-66 0 -114 14l-39 -84h-80l51 113q-164 84 -164 305zM250 345.5q0 -121.5 20 -189.5l199 440q-31 41 -72 41q-66 0 -106.5 -85t-40.5 -206.5zM311 68 q31 -41 86.5 -41t96.5 83t41 200.5t-23 195.5z" />
<glyph unicode="&#xf9;" horiz-adv-x="878" d="M27 600q41 35 102 57.5t105 22.5q74 0 73 -45v-410q0 -145 77 -145t123 93t46 208t-11.5 159t-39.5 76l-19 23l17 18l235 19v-559q0 -61 37 -62q39 0 76 31l16 -20q-72 -84 -164 -84t-121.5 45t-29.5 159q-29 -90 -99.5 -147t-155.5 -57q-171 0 -171 233v334q0 29 -27 29 h-63zM268 915.5q0 67.5 76 96.5l209 -224l-27 -32l-170 61q-88 31 -88 98.5z" />
<glyph unicode="&#xfa;" horiz-adv-x="878" d="M27 600q41 35 102 57.5t105 22.5q74 0 73 -45v-410q0 -145 77 -145t123 93t46 208t-11.5 159t-39.5 76l-19 23l17 18l235 19v-559q0 -61 37 -62q39 0 76 31l16 -20q-72 -84 -164 -84t-121.5 45t-29.5 159q-29 -90 -99.5 -147t-155.5 -57q-171 0 -171 233v334q0 29 -27 29 h-63zM322 788l208 224q76 -31 76 -97.5t-90 -97.5l-168 -61z" />
<glyph unicode="&#xfb;" horiz-adv-x="878" d="M27 600q41 35 102 57.5t105 22.5q74 0 73 -45v-410q0 -145 77 -145t123 93t46 208t-11.5 159t-39.5 76l-19 23l17 18l235 19v-559q0 -61 37 -62q39 0 76 31l16 -20q-72 -84 -164 -84t-121.5 45t-29.5 159q-29 -90 -99.5 -147t-155.5 -57q-171 0 -171 233v334q0 29 -27 29 h-63zM240 782q81 154 163 224h70q68 -53 164 -224l-31 -26l-168 114l-168 -114z" />
<glyph unicode="&#xfc;" horiz-adv-x="878" d="M27 600q41 35 102 57.5t105 22.5q74 0 73 -45v-410q0 -145 77 -145t123 93t46 208t-11.5 159t-39.5 76l-19 23l17 18l235 19v-559q0 -61 37 -62q39 0 76 31l16 -20q-72 -84 -164 -84t-121.5 45t-29.5 159q-29 -90 -99.5 -147t-155.5 -57q-171 0 -171 233v334q0 29 -27 29 h-63zM199 865.5q0 31.5 35.5 70.5t65.5 39t65.5 -39t35.5 -71t-35.5 -68.5t-65.5 -36.5t-65.5 37t-35.5 68.5zM473 866.5q0 30.5 36 69.5t65.5 39t66.5 -39t37 -71t-37 -68.5t-67 -36.5t-65.5 38t-35.5 68.5z" />
<glyph unicode="&#xfd;" horiz-adv-x="831" d="M27 600q39 35 102.5 57.5t105.5 22.5q72 0 72 -45v-414q0 -115 71 -115t114 84t43 191t-12.5 154t-39.5 81l-16 23l14 18l236 19v-676q0 -162 -93.5 -251t-258.5 -89q-102 0 -166 39t-64 98t33 93t79 34t83 -16q-37 -37 -37 -91.5t27.5 -83t70.5 -28.5q143 0 144 234v260 q-27 -78 -93.5 -128.5t-142.5 -50.5q-176 0 -176 224v305q0 29 -27 29h-63zM299 788l209 224q76 -31 76 -97.5t-90 -97.5l-168 -61z" />
<glyph unicode="&#xfe;" horiz-adv-x="817" d="M23 924q37 36 99 58t122 22t59 -43v-422q97 141 234 141q104 0 169 -91q64 -91 64 -217q-1 -241 -144 -338q-69 -46 -163 -46t-160 57v-231q0 -48 13 -66t63 -29l27 -6l-13 -35h-317l-17 21l17 20q43 57 43 172v975q0 37 -27 37h-63zM303 74q39 -27 90 -27q172 0 172 283 q0 122 -33 186t-94 64q-82 0 -135 -109v-397z" />
<glyph unicode="&#xff;" horiz-adv-x="831" d="M27 600q39 35 102.5 57.5t105.5 22.5q72 0 72 -45v-414q0 -115 71 -115t114 84t43 191t-12.5 154t-39.5 81l-16 23l14 18l236 19v-676q0 -162 -93.5 -251t-258.5 -89q-102 0 -166 39t-64 98t33 93t79 34t83 -16q-37 -37 -37 -91.5t27.5 -83t70.5 -28.5q143 0 144 234v260 q-27 -78 -93.5 -128.5t-142.5 -50.5q-176 0 -176 224v305q0 29 -27 29h-63zM176 865.5q0 31.5 36 70.5t65.5 39t65.5 -39t36 -71t-36 -68.5t-66 -36.5t-65.5 37t-35.5 68.5zM451 866.5q0 30.5 35.5 69.5t65.5 39t66.5 -39t36.5 -71t-36.5 -68.5t-66.5 -36.5t-65.5 38 t-35.5 68.5z" />
<glyph unicode="&#x152;" horiz-adv-x="1316" d="M43 478q0 220 128 349t349 129h510q117 0 152 27l24 18l21 -18v-256l-41 -14q-35 109 -72 150.5t-102 41.5h-90q-53 0 -69.5 -19.5t-16.5 -82.5v-291h145q63 0 92 12.5t43 48.5l10 29l27 -16v-230l-45 -16l-8 45q-8 43 -44 59.5t-118 16.5h-102v-309q0 -61 18 -81t82 -20 h100q59 0 95 43t71 150l39 -15v-245l-18 -19q-48 35 -168 35h-535q-221 0 -349 129t-128 349zM250 475q0 -197 72.5 -314.5t191.5 -117.5q72 0 123 29v809q-53 35 -125 34q-119 0 -190.5 -121.5t-71.5 -318.5z" />
<glyph unicode="&#x153;" horiz-adv-x="1193" d="M47 331q0 161 93 255t248 94t245 -94q98 94 258 94q115 0 187.5 -54.5t72.5 -146.5t-83 -150.5t-226 -58.5q-57 0 -105 9q10 -106 61.5 -168t127.5 -62q113 0 192 94l25 -18q-47 -68 -120 -105.5t-159 -37.5q-141 0 -231 94q-88 -94 -244 -94t-249 94t-93 255zM250 329 q0 -138 38 -220t101.5 -82t104.5 83t41 218t-39 222t-102 87t-103.5 -85t-40.5 -223zM733 307q127 0 180.5 53.5t53.5 121.5t-28 108.5t-71 40.5q-63 0 -99 -77t-36 -214v-33z" />
<glyph unicode="&#x178;" d="M-16 934l18 22h375l10 -36l-31 -9q-59 -12 -59 -47q0 -20 41 -96l139 -262l148 280q16 27 16 53.5t-16.5 46t-40.5 25.5l-39 9l12 36h236l16 -22l-21 -23q-55 -68 -94 -141l-186 -356v-244q0 -84 40 -106q22 -12 73 -27l-13 -37h-358l-17 20l17 25q35 45 48 93t13 130 v142l-194 356q-33 66 -61.5 101.5t-71.5 66.5zM211 1156q0 32 36 71t65.5 39t65.5 -39t36 -71t-36 -68.5t-66 -36.5t-65.5 36.5t-35.5 68.5zM485 1157q0 31 36 70t66 39t66.5 -39t36.5 -71t-37 -68.5t-66.5 -36.5t-65.5 37.5t-36 68.5z" />
<glyph unicode="&#x2c6;" horiz-adv-x="497" d="M51 782q84 156 164 224h70q66 -52 166 -224l-33 -26l-178 118l8 -10q-111 -74 -166 -108z" />
<glyph unicode="&#x2dc;" horiz-adv-x="542" d="M55 819q88 144 162 144q30 0 71 -27q40 -27 74 -27t89 54l34 -31q-88 -144 -161 -144q-32 0 -73 26t-73 26q-33 0 -90 -52z" />
<glyph unicode="&#x2000;" horiz-adv-x="682" />
<glyph unicode="&#x2001;" horiz-adv-x="1365" />
<glyph unicode="&#x2002;" horiz-adv-x="682" />
<glyph unicode="&#x2003;" horiz-adv-x="1365" />
<glyph unicode="&#x2004;" horiz-adv-x="455" />
<glyph unicode="&#x2005;" horiz-adv-x="341" />
<glyph unicode="&#x2006;" horiz-adv-x="227" />
<glyph unicode="&#x2007;" horiz-adv-x="227" />
<glyph unicode="&#x2008;" horiz-adv-x="170" />
<glyph unicode="&#x2009;" horiz-adv-x="273" />
<glyph unicode="&#x200a;" horiz-adv-x="75" />
<glyph unicode="&#x2010;" horiz-adv-x="473" d="M43 336q0 67 35 92l350 14q0 -68 -35 -94z" />
<glyph unicode="&#x2011;" horiz-adv-x="473" d="M43 336q0 67 35 92l350 14q0 -68 -35 -94z" />
<glyph unicode="&#x2012;" horiz-adv-x="473" d="M43 336q0 67 35 92l350 14q0 -68 -35 -94z" />
<glyph unicode="&#x2013;" horiz-adv-x="1036" d="M68 336q0 68 32 92l873 14q0 -68 -35 -94z" />
<glyph unicode="&#x2014;" horiz-adv-x="1212" d="M68 336q0 68 32 92l1043 14q0 -68 -35 -94z" />
<glyph unicode="&#x2018;" horiz-adv-x="299" d="M25 754q0 49 28 97q29 48 92 122l64 69l55 -36l-59 -134q-44 -90 16 -139l25 -16l6 -39q-62 -31 -119 -31q-110 0 -108 107z" />
<glyph unicode="&#x2019;" horiz-adv-x="299" d="M37 709l59 133q44 90 -16 139l-25 16l-6 39q66 31 117 31q112 0 110 -106q0 -49 -28 -97t-92 -123l-64 -69z" />
<glyph unicode="&#x201a;" horiz-adv-x="294" d="M20 -150l60 134q18 38 18 74t-35 65l-24 16l-6 39q62 31 115 31q112 0 112 -107q0 -49 -29 -97t-92 -122l-63 -69z" />
<glyph unicode="&#x201c;" horiz-adv-x="567" d="M25 754q0 49 28 97q29 48 92 122l64 69l55 -36l-59 -134q-44 -90 16 -139l25 -16l6 -39q-62 -31 -119 -31q-110 0 -108 107zM291 754q0 49 28 97q29 48 93 122l63 69l55 -36l-59 -134q-18 -38 -18 -74t34 -65l25 -16l6 -39q-62 -31 -115 -31q-112 0 -112 107z" />
<glyph unicode="&#x201d;" horiz-adv-x="567" d="M37 709l59 133q44 90 -16 139l-25 16l-6 39q66 31 117 31q112 0 110 -106q0 -49 -28 -97t-92 -123l-64 -69zM303 709l59 133q44 90 -16 139l-24 16l-7 39q66 31 119 31q109 0 109 -106q0 -49 -29 -97t-92 -123l-64 -69z" />
<glyph unicode="&#x201e;" horiz-adv-x="561" d="M20 -147l60 133q18 38 18 74t-35 65l-24 16l-6 39q62 31 115 31q112 0 112 -107q0 -49 -29 -97t-92 -122l-63 -69zM289 -147l59 133q44 90 -16 139l-25 16l-6 39q62 31 119 31q110 0 108 -107q0 -49 -28 -97t-92 -122l-64 -69z" />
<glyph unicode="&#x2022;" horiz-adv-x="397" d="M49 444q0 30 25 69q25 38 60 65q36 26 65 26t65 -26t61 -65q25 -38 25 -69q0 -32 -26 -68t-61 -63q-37 -27 -65 -27t-64 28q-36 26 -60 63q-25 37 -25 67z" />
<glyph unicode="&#x2026;" horiz-adv-x="942" d="M45 98q0 34 39 77q39 42 72 42q32 0 72 -42t40 -77q0 -36 -40 -76t-72 -40t-72 41q-39 41 -39 75zM360 98q0 34 39 77q39 42 72 42t73 -42t40 -77q0 -36 -40 -76t-73 -40t-72 41t-39 75zM674 98q0 34 39 77q39 42 71 42t72 -42q39 -42 39 -77q0 -36 -39 -76t-72 -40 q-34 0 -72 41t-38 75z" />
<glyph unicode="&#x202f;" horiz-adv-x="273" />
<glyph unicode="&#x2039;" horiz-adv-x="391" d="M49 370q0 26 32 85t124 207q96 -12 147 -99q-20 -33 -76 -88t-67 -63l-43 -41q159 -147 186 -191q-28 -51 -66 -71t-81 -27q-94 154 -125 208t-31 80z" />
<glyph unicode="&#x203a;" horiz-adv-x="391" d="M39 180q30 48 186 191q-156 147 -186 192q47 84 145 99q96 -154 127 -209t31 -81t-32 -82t-126 -208q-98 14 -145 98z" />
<glyph unicode="&#x205f;" horiz-adv-x="341" />
<glyph unicode="&#x20ac;" horiz-adv-x="821" d="M-2 350q0 41 31 58h57q-2 16 -2 58t2 64h-88q0 41 31 58h65q27 180 133 283t281 104q123 0 199 -48t75 -128q0 -51 -39 -89q-67 -65 -198 -36q25 24 44 64t19 80t-29 74q-30 34 -81 34q-82 0 -136 -90t-69 -248h254q0 -37 -31 -58h-227q-2 -25 -2 -73v-49h260 q0 -37 -31 -58h-225q25 -321 188 -321q49 1 80 35t31 75t-20 80q-19 39 -44 62q44 12 102 8t97 -42t39 -89q0 -80 -76 -128t-199 -48q-174 0 -274 97t-125 271h-92z" />
<glyph unicode="&#x2122;" horiz-adv-x="1331" d="M16 813v156l15 10l16 -10q27 -16 96 -17h244q69 0 115 27l14 -10v-156l-27 -8q-27 69 -51 93t-63 24h-17q-18 0 -24 -10t-6 -40v-391q0 -39 12 -52t63 -28l-10 -22h-229l-8 12q29 44 38 76q9 31 9 74v331q0 29 -6 39t-23 11h-18q-41 0 -64 -24t-49 -93zM547 401 q51 15 63 27t17 51l20 273l2 73q0 39 -10 62t-45 51l10 14h193l139 -381l147 381h168l15 -12q-43 -53 -43 -103t6 -83l18 -219q9 -95 58 -144l-11 -12h-231l-10 22q47 15 58 25t11 37l-14 203q-2 14 -16 202l-179 -477h-36l-177 471l-26 -356q0 -37 8 -60t33 -55l-13 -12 h-147z" />
<glyph unicode="&#x25fc;" horiz-adv-x="680" d="M0 0v680h680v-680h-680z" />
</font>
</defs>
</svg>
