<svg xmlns="http://www.w3.org/2000/svg" xmlns:xlink="http://www.w3.org/1999/xlink" version="1.1"><metadata/><defs><font id="kitabbold" horiz-adv-x="1450"><font-face ascent="1638" descent="-410" units-per-em="2048"/><glyph horiz-adv-x="0"/><glyph horiz-adv-x="682"/><glyph horiz-adv-x="665"/><glyph horiz-adv-x="665"/><glyph horiz-adv-x="665"/><glyph d="M183 1088q0 32 7.5 66t25 60.5t46 43.5t71.5 17t72 -17t46 -43.5t24 -60.5t7 -66q0 -81 -15.5 -171t-33.5 -193q-9 -51 -18 -86t-15.5 -80t-11.5 -111.5t-5 -180.5q0 -10 -13.5 -15t-34.5 -5q-22 0 -37.5 5t-15.5 15q0 75 -2 130t-5 94.5t-7.5 69t-10 55t-11.5 50 t-11 56.5q-19 105 -35.5 194.5t-16.5 172.5zM192 47q0 29 11 54t30.5 44t45 30t55.5 11q29 0 55 -11t44 -30t29 -44t11 -54t-11 -54t-29 -44.5t-44 -31t-55 -11.5q-30 0 -55.5 11.5t-45 31t-30.5 44.5t-11 54z" horiz-adv-x="668" unicode="!"/><glyph d="M172 1213q0 30 11 56.5t30.5 46t46 30.5t57.5 11q30 0 56.5 -11t47 -30.5t32 -46t11.5 -56.5q0 -10 -5 -37.5t-13 -65.5t-17.5 -82.5t-20.5 -89.5q-25 -105 -56 -231h-71q-31 126 -55 231q-10 44 -20 89t-17.5 83t-12 65t-4.5 38zM645 1213q0 30 11 56.5t30.5 46t46 30.5 t57.5 11q30 0 56.5 -11t46 -30.5t31.5 -46t12 -56.5q0 -10 -5.5 -37.5t-13 -65.5t-17.5 -82.5t-20 -89.5q-23 -105 -55 -231h-71q-31 126 -55 231q-10 44 -20 89t-17.5 83t-12 65t-4.5 38z" horiz-adv-x="1108" unicode="&quot;"/><glyph d="M39 389v135h160l52 275h-212v137h240l86 421h137l-85 -421h276l83 421h139l-86 -421h134v-137h-161l-55 -275h216v-135h-243l-83 -418h-139l84 418h-273l-87 -418h-135l83 418h-131zM338 524h272l57 275h-274z" horiz-adv-x="1002" unicode="#"/><glyph d="M84 1007q0 73 33.5 134t86 106t119.5 72.5t133 32.5v91h116v-91q44 -3 84.5 -10.5t79.5 -20t78 -27t80 -29.5v-345h-89q-6 66 -24.5 125.5t-48.5 104.5t-70.5 74t-89.5 36v-420q39 -29 82.5 -56.5t86.5 -58.5t82 -67.5t69.5 -80.5t48 -98.5t17.5 -122.5q0 -96 -32.5 -166 t-86 -117t-123 -72.5t-144.5 -30.5v-122h-116v122q-88 5 -176 24.5t-170 56.5v329h95q5 -69 29.5 -125t59.5 -96.5t77 -65t85 -29.5v491q-64 40 -129.5 83t-119.5 96.5t-88.5 119.5t-34.5 153zM315 1094q0 -26 9.5 -53.5t27.5 -56.5t44 -55t60 -46v377q-82 -12 -111.5 -57.5 t-29.5 -108.5zM572 64q35 3 63 21t48 47t31 67.5t11 82.5q0 55 -37.5 116t-115.5 114v-448z" horiz-adv-x="1022" unicode="$"/><glyph d="M84 837q0 100 41 191t110 159.5t157.5 108.5t184.5 40q64 0 101.5 -16t68 -35.5t64.5 -36t88 -16.5q84 0 157.5 32.5t125.5 98.5h181l-818 -1392h-186l735 1247q-58 -26 -100.5 -41t-86.5 -15q-48 0 -108 20q9 -25 12.5 -53.5t3.5 -60.5q0 -87 -34 -179t-93.5 -167.5 t-143 -124t-181.5 -48.5q-130 0 -204.5 76t-74.5 212zM286 769q0 -56 38.5 -97.5t104.5 -41.5q35 0 72 21t72 55t65.5 77.5t54 89.5t37 90.5t13.5 82.5q0 57 -9.5 97.5t-26.5 66.5q-14 12 -24.5 20.5t-19.5 15t-18 9.5t-21 3q-38 0 -81.5 -24.5t-86.5 -67.5 q-34 -35 -65 -79.5t-54.5 -95.5t-37 -107t-13.5 -115zM880 259q0 82 39 169.5t104.5 161t152.5 120t184 46.5q79 0 128.5 -24.5t76.5 -63.5t37 -86.5t10 -92.5q0 -55 -14.5 -114.5t-41.5 -117.5t-67 -110t-92 -91.5t-115 -63t-137 -23.5q-123 0 -194 69t-71 221zM1081 173 q0 -55 37.5 -89.5t103.5 -34.5q32 0 68 19t71 51t67 74t56 89t38 94.5t14 91.5q0 57 -9 97.5t-26 65.5t-40 37t-52 12q-27 0 -61.5 -20t-71 -55.5t-71.5 -83t-62.5 -104t-44.5 -118.5t-17 -126z" horiz-adv-x="1697" unicode="%"/><glyph d="M81 311q0 84 40 154.5t102.5 126t137 98t145.5 70.5q-18 31 -33 69q-13 32 -22.5 76t-9.5 93q0 78 28.5 144t80 113t122 74.5t155.5 27.5q70 0 126.5 -18t95.5 -49.5t60.5 -73t21.5 -88.5q0 -70 -29.5 -128t-76 -104.5t-105 -81t-117.5 -55.5q36 -61 63.5 -104t55.5 -80 t62 -75.5t83 -90.5q26 27 53.5 62t49.5 70t36.5 68t14.5 60q0 42 -21 76.5t-83 43.5v65h460v-65q-14 -1 -31 -4t-33.5 -6.5t-31 -9t-23.5 -11.5q-17 -12 -31 -33t-27.5 -46.5t-28.5 -55t-32 -58.5q-30 -49 -74 -109t-107 -134q65 -65 123 -99.5t110 -34.5q17 0 33.5 4t33 15 t32.5 31.5t31 52.5l66 -45q-14 -51 -37 -100t-61 -88t-95 -63t-137 -24q-51 0 -93 12t-80 33.5t-72.5 49.5t-69.5 61q-42 -30 -91 -57.5t-105.5 -50t-121 -35.5t-134.5 -13q-95 0 -170.5 25.5t-128.5 71t-81.5 107.5t-28.5 136zM364 380q0 -60 19.5 -108t51.5 -82t73 -52 t83 -18q52 0 98.5 14.5t81.5 33.5q41 21 76 48q-58 71 -99 129.5t-73.5 110t-61 101.5t-61.5 105q-36 -14 -70 -43t-60.5 -66.5t-42 -82t-15.5 -90.5zM662 1139q0 -36 11.5 -80.5t27 -85.5t31 -74t22.5 -46q21 9 50.5 33.5t57 59t46.5 76t19 85.5q0 86 -40.5 127.5 t-111.5 41.5q-55 0 -84 -39t-29 -98z" horiz-adv-x="1667" unicode="&amp;"/><glyph d="M83 1213q0 30 11 56.5t30.5 46t46.5 30.5t58 11q30 0 56.5 -11t46 -30.5t31 -46t11.5 -56.5q0 -14 -7 -60t-21 -104l-77 -342h-83l-73 337q-13 61 -21.5 107.5t-8.5 61.5z" horiz-adv-x="456" unicode="'"/><glyph d="M77 477q0 99 18 192.5t52 179.5t82 162.5t106 140.5q66 70 143 122.5t163 82.5v-42q-86 -49 -142.5 -123t-90.5 -174q-38 -110 -52 -245t-14 -296q0 -170 16 -309t58 -250q34 -90 88.5 -158t136.5 -114v-48q-87 30 -166 83.5t-145 126.5q-117 127 -185 299t-68 370z" horiz-adv-x="687" unicode="("/><glyph d="M77 -354q82 45 136.5 113.5t88.5 158.5q42 110 58 249.5t16 309.5q0 161 -14.5 295.5t-52.5 245.5q-34 100 -90.5 174t-141.5 123v42q86 -30 162.5 -82.5t142.5 -122.5q58 -64 106.5 -140.5t82 -162.5t52 -179.5t18.5 -192.5q0 -198 -68.5 -370t-185.5 -299 q-66 -73 -144.5 -126.5t-165.5 -83.5v48z" horiz-adv-x="687" unicode=")"/><glyph d="M34 309q0 26 29 45.5t96 19.5q31 0 79 -7.5t93 -18.5t76.5 -22.5t31.5 -16.5q0 -6 -31.5 -17t-76.5 -21.5t-93 -18.5t-79 -8q-66 0 -95.5 19.5t-29.5 45.5zM155 26q0 19 12 44t42 55q21 22 58 48.5t75 49.5t68.5 38.5t40.5 15.5q3 0 3 -4q0 -8 -16 -38.5t-38 -68 t-48 -74.5t-47 -58q-30 -30 -55.5 -42.5t-45.5 -12.5q-18 0 -33.5 12.5t-15.5 34.5zM155 591q0 19 13.5 33t35.5 14q19 0 45.5 -12t55.5 -42q21 -21 47 -57.5t48 -74t38 -69t16 -39.5q0 -4 -3 -3q-10 0 -40.5 15.5t-68.5 38t-75 49.5t-58 49q-30 29 -42 54t-12 44zM417 -18 q0 31 8.5 78.5t20.5 92.5t23 76.5t17 31.5q4 0 15 -31.5t22 -76.5t19.5 -92.5t8.5 -78.5q0 -66 -19.5 -95.5t-45.5 -29.5t-47.5 29.5t-21.5 95.5zM417 636q0 66 21.5 95t47.5 29t45.5 -29t19.5 -95q0 -27 -2 -74t-8.5 -92.5t-19.5 -79.5t-35 -34q-6 0 -17 32t-23 77 t-20.5 92t-8.5 79zM517 273q0 4 4 4q9 0 40.5 -15.5t69 -38.5t74 -49t57.5 -47q30 -30 42 -55t12 -43q0 -21 -13.5 -35.5t-36.5 -14.5q-18 0 -43.5 12.5t-55.5 42.5q-21 21 -47 57t-48.5 74t-38.5 68.5t-16 39.5zM517 344q0 9 16 40.5t38.5 68.5t48.5 73.5t47 57.5 q30 30 55.5 42t43.5 12q19 0 34.5 -12t15.5 -35q0 -19 -12 -44.5t-42 -55.5q-21 -22 -57.5 -48t-74 -48.5t-69 -38t-40.5 -15.5q-4 0 -4 3zM534 309q0 5 32 16.5t76 22.5t91.5 18.5t80.5 7.5q62 0 93 -19.5t31 -45.5t-31 -45.5t-93 -19.5q-32 0 -80 8t-92 18.5t-76 21.5 t-32 17z" horiz-adv-x="1017" unicode="*"/><glyph d="M52 507v133h513v518h132v-518h513v-133h-513v-507h-132v507h-513z" horiz-adv-x="1262" unicode="+"/><glyph d="M77 139q0 34 13 63t35 51.5t51 34.5t63 12q43 0 81.5 -15.5t67 -46t45.5 -76t17 -106.5q0 -77 -24 -142t-68.5 -117t-106 -89.5t-137.5 -59.5v43q64 26 106.5 63.5t66.5 78t33.5 78t9.5 63.5q0 10 -4 22.5t-17 12.5q-12 0 -26 -11t-44 -11q-34 0 -63 11t-51 31t-35 48 t-13 62z" horiz-adv-x="521" unicode=","/><glyph d="M39 363v195h610v-195h-610z" horiz-adv-x="687" unicode="-"/><glyph d="M308 139q0 34 13 63t35 51.5t51.5 34.5t63.5 12t63.5 -12t51.5 -34.5t35 -51.5t13 -63t-13 -63t-35 -51t-52 -35t-63 -13q-34 0 -63.5 13t-51.5 35t-35 51t-13 63z" horiz-adv-x="900" unicode="."/><glyph d="M8 -29l438 1386h127l-438 -1386h-127z" horiz-adv-x="577" unicode="/"/><glyph d="M83 664q0 79 10 162t31.5 159.5t55 144t81.5 118.5t110 80t141 29q78 0 140.5 -29t110 -80t81 -118.5t55 -144t31.5 -159.5t10 -162t-10 -161.5t-31.5 -159.5t-55 -144.5t-81 -118t-110 -80t-140.5 -29.5t-140.5 29.5t-110.5 80t-81.5 118t-55 144.5t-31.5 159.5 t-10 161.5zM378 625q0 -104 6 -204t21 -178t41 -126t66 -48q26 0 46 28t34 74.5t23 109.5t15 134t8 144.5t2 143.5q0 104 -5.5 204t-19 178t-39 126.5t-64.5 48.5q-26 0 -46.5 -28t-35.5 -75t-25 -110t-16 -134t-8.5 -145t-2.5 -143z" horiz-adv-x="1022" unicode="0"/><glyph d="M133 1133l456 224h78v-1107q0 -51 7.5 -84t29 -52.5t59.5 -27.5t97 -8v-78h-698v78q60 0 101.5 8t67 27.5t36.5 52.5t11 84v683q0 32 -1 61.5t-10.5 51t-29 34.5t-55.5 13q-22 0 -52 -7t-68 -25z" horiz-adv-x="1022" unicode="1"/><glyph d="M66 932q16 83 48 160t82.5 136t120.5 94t164 35q86 0 157.5 -28.5t122 -76.5t78.5 -111t28 -132q0 -84 -21.5 -155.5t-56.5 -133.5t-79 -116.5t-90 -106.5q-64 -73 -131.5 -129t-125.5 -112h241q47 0 90.5 4.5t80 18t66 39t48.5 67.5h78l-138 -385h-758v78 q130 146 228.5 257t164.5 206t100 183t34 188q0 49 -16.5 89t-45 67.5t-66.5 42.5t-83 15q-88 0 -148.5 -46.5t-92.5 -147.5h-80z" horiz-adv-x="1022" unicode="2"/><glyph d="M62 123q0 45 27 80t83 35q42 0 74 -21.5t66.5 -48t77.5 -48t105 -21.5q78 0 126 47.5t48 125.5q0 81 -27.5 147t-79 114.5t-124.5 78t-164 37.5v78q62 5 119 21t100 44.5t69 71t26 98.5q0 42 -15 78t-42 63t-62.5 42.5t-77.5 15.5q-35 0 -68 -14t-62.5 -37t-55.5 -54.5 t-45 -66.5l-61 26q29 62 64.5 124t85 110t115 78t153.5 30q62 0 123 -19t107.5 -54.5t76 -87t29.5 -116.5q0 -45 -14 -85t-37 -73.5t-54.5 -61t-66.5 -49.5q47 -21 89 -51t75.5 -72t53 -97.5t19.5 -125.5q0 -108 -41 -198t-114.5 -156t-173 -103t-216.5 -37 q-51 0 -105.5 6.5t-100.5 23.5t-75.5 47t-29.5 75z" horiz-adv-x="1022" unicode="3"/><glyph d="M34 299v203l596 855h207v-855h146v-203h-146v-299h-269v299h-534zM181 502h387v548z" horiz-adv-x="1022" unicode="4"/><glyph d="M55 155q0 19 7 39t21 36.5t35.5 27t51.5 10.5q47 0 81.5 -25t71 -54t82.5 -54t116 -25q34 0 66.5 21t57 52t39.5 67.5t15 67.5q0 101 -48.5 173t-132 117.5t-194.5 67t-234 21.5l279 631h597l-100 -252h-471l-52 -132q120 -1 224 -29.5t180 -82t119.5 -135t43.5 -190.5 q0 -113 -47 -211t-124 -170.5t-177.5 -113.5t-205.5 -41q-51 0 -104 8.5t-96.5 30t-72 56.5t-28.5 89z" horiz-adv-x="1022" unicode="5"/><glyph d="M77 512q0 110 26.5 215.5t77 200t125 173t168.5 135.5t206.5 89t242.5 32h27v-77q-131 -10 -226 -57.5t-161 -116.5t-106 -152t-59 -164q84 57 201 57q83 0 147 -32.5t108 -86t67 -124.5t23 -146q0 -95 -29.5 -183t-84.5 -155.5t-136.5 -108t-185.5 -40.5q-101 0 -181 49 t-136 126.5t-85 173.5t-29 192zM380 499q0 -118 14 -201.5t37.5 -135.5t55.5 -76t67 -24q21 0 41 14t36 45.5t26 83.5t10 130q0 70 -8 138.5t-27.5 122.5t-54 86.5t-87.5 32.5q-18 0 -35.5 -4.5t-33.5 -11.5q-18 -6 -35 -14q-3 -40 -4 -75q-1 -30 -1.5 -61.5t-0.5 -49.5z" horiz-adv-x="1022" unicode="6"/><glyph d="M57 918l168 410h702v-78l-428 -1279h-153l362 1099h-297q-68 0 -107.5 -6t-67 -24t-49.5 -52.5t-56 -91.5z" horiz-adv-x="1022" unicode="7"/><glyph d="M79 307q0 126 69 214.5t182 138.5q-53 43 -95.5 81t-71.5 78t-44.5 87t-15.5 108q0 74 31.5 135.5t87 106.5t130 70.5t160.5 25.5q100 0 177 -23.5t128 -62.5t78 -89t27 -102q0 -112 -61.5 -186.5t-159.5 -128.5q52 -39 96.5 -81.5t77 -92t51 -108t18.5 -126.5 q0 -84 -34 -153.5t-94 -120.5t-142.5 -79t-179.5 -28q-90 0 -166 23t-131 66.5t-86.5 106t-31.5 140.5zM328 307q0 -49 11 -93.5t33.5 -77.5t57.5 -53.5t82 -20.5q38 0 69 17t52.5 43.5t33 60t11.5 65.5q0 56 -20.5 103t-55.5 88.5t-81.5 79t-96.5 76.5q-27 -23 -45.5 -57.5 t-29.5 -73.5t-16 -80t-5 -77zM365 1124q0 -58 23.5 -104t58 -82.5t74 -64t73.5 -45.5q42 43 70.5 106.5t28.5 145.5q0 43 -13 81.5t-36 67.5t-54.5 46t-68.5 17q-34 0 -61.5 -13.5t-49 -37t-33.5 -54t-12 -63.5z" horiz-adv-x="1022" unicode="8"/><glyph d="M87 -29v78q127 8 220 51t159 110t107.5 151.5t66.5 176.5q-86 -57 -202 -57q-83 0 -147.5 32.5t-108.5 86.5t-67 124t-23 147q0 95 25.5 182.5t79 155t136 108t196.5 40.5q101 0 181 -48.5t135.5 -126t84.5 -174t29 -192.5q0 -165 -59 -317.5t-168 -269.5t-264.5 -187.5 t-347.5 -70.5h-33zM370 993q0 -81 11.5 -150.5t34 -120t55 -79.5t75.5 -29q17 0 35 3.5t34 10.5q18 6 35 15q3 34 5 68q3 29 4 58t1 51q0 113 -13.5 197t-37.5 139t-56.5 82.5t-70.5 27.5q-21 0 -41 -13.5t-35.5 -45.5t-25.5 -84t-10 -130z" horiz-adv-x="1022" unicode="9"/><glyph d="M292 139q0 34 13 63t35.5 51.5t51.5 34.5t63 12t64 -12t52 -34.5t35 -51.5t13 -63t-13 -63t-35 -51t-52 -35t-64 -13t-63 13t-51.5 35t-35.5 51t-13 63zM292 780q0 34 13 63t35.5 51t51.5 35t63 13t64 -13t52 -35t35 -51t13 -63t-13 -63t-35 -51.5t-52 -35.5t-64 -13 t-63 13t-51.5 35.5t-35.5 51.5t-13 63z" horiz-adv-x="911" unicode=":"/><glyph d="M149 139q0 34 13 63t35.5 51.5t51.5 34.5t63 12q43 0 81.5 -15.5t67 -46t45.5 -76t17 -106.5q0 -77 -24.5 -142t-68.5 -117t-105.5 -89.5t-137.5 -59.5v43q64 26 106 63.5t66 78t34 78t10 63.5q0 10 -4 22.5t-17 12.5q-12 0 -26 -11t-44 -11q-34 0 -63 11t-51.5 31 t-35.5 48t-13 62zM173 780q0 34 13 63t35 51t51.5 35t62.5 13q34 0 63.5 -13t51.5 -35t35 -51t13 -63t-13 -63t-35 -51.5t-51.5 -35.5t-63.5 -13t-63 13t-51 35.5t-35 51.5t-13 63z" horiz-adv-x="600" unicode=";"/><glyph d="M364 519v121l1158 444v-121l-1036 -383l1036 -385v-121z" horiz-adv-x="1886" unicode="&lt;"/><glyph d="M47 344v120h1086v-120h-1086zM47 695v120h1086v-120h-1086z" horiz-adv-x="1185" unicode="="/><glyph d="M386 75v120l1035 383l-1035 385v120l1158 -443v-120z" horiz-adv-x="1930" unicode="&gt;"/><glyph d="M91 1040q0 52 20 108t66.5 102.5t121.5 76.5t185 30q77 0 145 -18t118.5 -56.5t80 -97t29.5 -139.5q0 -58 -27.5 -112.5t-69 -107.5t-89.5 -105t-90 -104.5t-69 -107.5t-27 -114h-78q0 47 6 89t18 84t31 86t45 97q40 82 55 149.5t15 135.5q0 231 -164 231q-23 0 -46 -5.5 t-40.5 -15.5t-27.5 -23.5t-10 -30.5q0 -14 9 -35.5t20.5 -47t20.5 -53t9 -53.5q0 -45 -28.5 -78t-77.5 -33q-68 0 -109.5 41.5t-41.5 106.5zM295 120q0 31 11.5 58t32 48t47 32.5t57.5 11.5t58.5 -11.5t47.5 -32.5t32.5 -48t12.5 -58q0 -30 -12.5 -57.5t-32.5 -47.5 t-47.5 -32t-58.5 -12t-57.5 12t-47 32t-32 47.5t-11.5 57.5z" horiz-adv-x="935" unicode="?"/><glyph d="M91 425q0 194 65.5 364t187 296t296.5 199t393 73q174 0 307 -50.5t222.5 -139.5t135 -211.5t45.5 -266.5q0 -135 -43 -260t-121 -220.5t-185.5 -152t-237.5 -56.5q-42 0 -78.5 9.5t-63.5 30.5t-43 55t-16 82q0 29 7.5 62t17.5 70q-35 -57 -71.5 -112t-77.5 -98.5 t-89 -71t-106 -27.5q-43 0 -73.5 19.5t-49.5 50.5t-28 71t-9 79q0 84 22 170.5t59.5 166.5t88.5 151t107.5 123t116 82.5t117.5 30.5q44 0 70 -18.5t40 -43t18.5 -49.5t6.5 -38l36 112l241 22q-42 -140 -74.5 -246t-56 -184.5t-39.5 -134t-26 -95t-14 -68t-4 -52.5 q0 -29 21 -54t63 -25q21 0 50.5 10.5t64.5 31.5t72 52t73 73q32 39 61.5 87t50.5 104.5t33.5 122t12.5 140.5q0 127 -45 238t-126 192t-195.5 128t-254.5 47q-201 0 -363 -74t-276 -200t-175 -292t-61 -350q0 -174 62 -314.5t167 -239t246 -151.5t300 -53q140 0 266 39.5 t229.5 111t181 171t120.5 218.5h59q-52 -135 -135.5 -245.5t-195 -188.5t-246.5 -120t-290 -42q-179 0 -336.5 60.5t-274.5 173t-185 271t-68 354.5zM729 269q0 -14 3.5 -29.5t10 -28.5t16 -21t21.5 -8q26 0 58.5 24.5t65.5 67.5t64.5 99t55.5 117.5t39 126.5t15 123 q0 22 -3.5 45t-11.5 42.5t-21 32.5t-32 13q-35 0 -69.5 -34t-65.5 -89.5t-58 -123.5t-46.5 -136t-30.5 -126.5t-11 -94.5z" horiz-adv-x="1866" unicode="@"/><glyph d="M16 0v78q34 6 60.5 16t50.5 31.5t46 58.5t47 95l443 1078h78l493 -1122q19 -44 43.5 -73t52 -48t55.5 -27t54 -9v-78h-666v78q87 0 121.5 14.5t34.5 47.5q0 8 -2.5 23t-12 44.5t-28 76.5t-50.5 120h-425q-22 -55 -39 -100q-14 -39 -26.5 -74.5t-12.5 -46.5q0 -49 42 -74 t135 -31v-78h-494zM452 519h333l-175 391z" unicode="A"/><glyph d="M40 0v78q60 0 97 9.5t57 31t27.5 57.5t7.5 87v803q0 51 -7.5 86.5t-27.5 57t-57 31t-97 9.5v78h741q113 0 193.5 -29.5t131.5 -75t75 -100.5t24 -105q0 -51 -10 -96.5t-43 -84.5t-94.5 -72t-167.5 -59q200 -40 289.5 -126.5t89.5 -216.5q0 -90 -42.5 -157.5t-112 -114 t-159 -69t-183.5 -22.5h-732zM537 231q0 -70 26.5 -92.5t81.5 -22.5q47 0 95.5 9t89.5 35t67 72.5t26 121.5q0 149 -85 217.5t-237 68.5q-12 0 -23 -1t-20 -2q-10 -1 -21 -1v-405zM537 749q10 -1 21 -2q9 -1 20 -1h23q140 0 208 67t68 180q0 55 -13.5 96t-46 68t-85 40.5 t-131.5 13.5q-12 0 -23 -1t-20 -2q-10 -1 -21 -3v-456z" horiz-adv-x="1340" unicode="B"/><glyph d="M92 638q0 87 19.5 174t57.5 166.5t95.5 149t133 120.5t170.5 80t208 29q75 0 137.5 -15t110 -33t79.5 -33t46 -15q21 0 32.5 7.5t19 21.5t12 32t10.5 38h76l29 -513h-78q-22 94 -66 168t-102 125t-125.5 78t-133.5 27q-101 0 -175.5 -47.5t-122.5 -130t-71.5 -193 t-23.5 -236.5t31.5 -228t88 -173.5t135 -110t174.5 -38.5q78 0 144.5 26t121.5 67t98.5 93t77.5 104l72 -56q-31 -52 -78 -113.5t-116.5 -114t-164.5 -88t-220 -35.5q-178 0 -310 55.5t-219 148.5t-130 213t-43 250z" unicode="C"/><glyph d="M27 0v78q60 0 97 9.5t57 31t26.5 57.5t6.5 87v803q0 51 -6.5 86.5t-26.5 57t-57 31t-97 9.5v78h664q156 0 279.5 -52.5t209 -143t130 -211.5t44.5 -257q0 -142 -44.5 -263.5t-130 -210.5t-209 -139.5t-279.5 -50.5h-664zM524 133q17 -10 50 -15t75 -5q103 0 170 49 t107.5 127.5t57.5 177t17 197.5q0 95 -18.5 192.5t-64.5 177t-123.5 129.5t-193.5 50q-18 0 -32 -1t-24 -2q-12 -1 -21 -2v-1075z" horiz-adv-x="1436" unicode="D"/><glyph d="M43 0v78q62 0 99 9.5t56.5 34t26 64.5t6.5 101v758q0 62 -5 102t-24.5 63.5t-57 32.5t-101.5 9v76h1061l15 -357h-75q-17 64 -32 110t-40.5 75t-69 43t-117.5 14h-248v-480h119q61 0 98.5 14.5t60 43t33.5 71.5t19 101h78v-555h-78q-8 58 -19 98.5t-33 66t-59 36.5 t-100 11h-119v-346q0 -39 2 -69t13 -50.5t33 -31.5t64 -11h105q87 0 144 16t99 49.5t75.5 85.5t73.5 122h81l-136 -385h-1048z" horiz-adv-x="1319" unicode="E"/><glyph d="M40 0v78q60 0 97 9.5t57 31t27.5 57.5t7.5 87v803q0 51 -7.5 86.5t-27.5 57t-57 31t-97 9.5v78h1065l14 -357h-77q-17 64 -31 110t-40 75t-69.5 43t-117.5 14h-247v-480h122q60 0 97 14.5t59 43t33 71.5t19 101h78v-555h-79q-8 58 -18.5 98.5t-32 66t-58.5 36.5t-98 11 h-122v-357q0 -48 6 -83.5t25.5 -57.5t57 -33t101.5 -11v-78h-687z" horiz-adv-x="1220" unicode="F"/><glyph d="M75 664q0 130 50 255t144.5 222.5t230.5 156.5t307 59q79 0 145 -15t117 -33t88.5 -33t60.5 -15q14 0 22.5 12.5t12.5 28.5t6 32t4 26h76l39 -479h-77q-23 88 -67.5 158t-102 117.5t-125.5 72.5t-139 25q-116 0 -198.5 -44.5t-136.5 -124t-79 -187.5t-25 -234 q0 -112 18 -217.5t65 -189t129.5 -133.5t210.5 -50q69 0 120 11.5t99 45.5v333q0 51 -7.5 86.5t-26 57t-52 31.5t-85.5 10v78h636v-78q-51 0 -82 -10t-48 -31.5t-22 -57t-5 -86.5v-354q-123 -74 -264.5 -106.5t-314.5 -32.5q-185 0 -321 59.5t-226 157t-133.5 222 t-43.5 254.5z" horiz-adv-x="1562" unicode="G"/><glyph d="M39 0v78q60 0 97 9.5t57 31t26.5 57.5t6.5 87v803q0 51 -6.5 86.5t-26.5 57t-57 31t-97 9.5v78h684v-78q-61 0 -97.5 -9.5t-57.5 -31t-27.5 -57t-6.5 -86.5v-342h494v342q0 51 -6.5 86.5t-27 57t-58 31t-96.5 9.5v78h683v-78q-60 0 -97 -9.5t-57 -31t-26.5 -57 t-6.5 -86.5v-803q0 -51 6.5 -87t26.5 -57.5t57.5 -31t96.5 -9.5v-78h-683v78q60 0 97 9.5t57.5 31t27 57.5t6.5 87v338h-494v-338q0 -51 6.5 -87t27.5 -57.5t57.5 -31t97.5 -9.5v-78h-684z" horiz-adv-x="1559" unicode="H"/><glyph d="M40 0v78q60 0 97 8t57 27.5t27.5 52.5t7.5 84v816q0 51 -7.5 86.5t-27.5 57t-57 31t-97 9.5v78h684v-78q-60 0 -97 -9.5t-57 -31t-26.5 -57t-6.5 -86.5v-816q0 -51 6.5 -84t26.5 -52.5t57 -27.5t97 -8v-78h-684z" horiz-adv-x="764" unicode="I"/><glyph d="M48 194q0 65 34.5 102t83.5 37q51 0 79.5 -19t44 -48t23.5 -62.5t18 -62.5t26 -48t49 -19q43 0 67 53.5t24 141.5v797q0 51 -9.5 86.5t-32 57t-61.5 31t-99 9.5v78h698v-78q-61 0 -97.5 -9.5t-57 -31t-27 -57t-6.5 -86.5v-536q0 -159 -42 -265t-107 -172t-144 -94 t-153 -28t-131.5 17t-97.5 47.5t-61 71t-21 87.5z" horiz-adv-x="1003" unicode="J"/><glyph d="M40 0v78q60 0 97 9.5t57 31t27.5 57.5t7.5 87v803q0 51 -7.5 86.5t-27.5 57t-57 31t-97 9.5v78h651v-78q-49 0 -79 -9.5t-46.5 -31t-22.5 -57t-6 -86.5v-312q121 108 216 199q40 39 79 77t69 71.5t48.5 57.5t18.5 34q0 39 -30.5 48t-96.5 9v78h555v-78q-44 0 -75.5 -4.5 t-56 -14t-47 -26t-51.5 -38.5l-385 -395l512 -533q44 -47 86 -78t79 -49t68.5 -26t56.5 -8v-78h-732v78q55 0 79.5 16t24.5 42q0 17 -5.5 37.5t-24.5 42.5l-353 374l-35 -30v-297q0 -51 6.5 -87t24 -57.5t48.5 -31t82 -9.5v-78h-658z" horiz-adv-x="1558" unicode="K"/><glyph d="M39 0v78q60 0 97 9.5t57 31t26.5 57.5t6.5 87v803q0 51 -6.5 86.5t-26.5 57t-57 31t-97 9.5v78h698v-78q-60 0 -99 -9.5t-62.5 -31t-32.5 -57t-9 -86.5v-803q0 -44 6 -73t28 -45t65.5 -22.5t117.5 -6.5h103q52 0 99.5 15.5t91.5 55t85.5 107t82.5 171.5h78l-142 -465 h-1110z" horiz-adv-x="1319" unicode="L"/><glyph d="M14 0v78q47 0 82 4.5t58.5 20t36 47.5t12.5 87v842q0 51 -2.5 84t-18.5 52.5t-49 27t-93 7.5v78h536l356 -874l398 874h520v-78q-60 0 -97 -7.5t-58 -27t-28 -52.5t-7 -84v-842q0 -51 7 -82.5t28 -48t58 -22.5t97 -6v-78h-711v78q60 0 100.5 6t65.5 22.5t36 48t11 82.5 v854l-484 -1091h-62l-480 1124v-887q0 -55 12.5 -87t36.5 -47.5t60.5 -20t84.5 -4.5v-78h-506z" horiz-adv-x="1886" unicode="M"/><glyph d="M32 0v78q47 0 79 5t53 21t30 43.5t9 73.5v919q-30 39 -48.5 61t-34.5 33t-35.5 14.5t-52.5 3.5v76h437l624 -808v587q0 44 -7.5 72.5t-26 44t-51 21t-80.5 5.5v78h439v-78q-47 0 -76 -5.5t-45 -21t-22.5 -43.5t-6.5 -73v-1128h-115l-776 1004v-762q0 -45 10 -73t30.5 -44 t54.5 -21t83 -5v-78h-472z" horiz-adv-x="1403" unicode="N"/><glyph d="M71 664q0 144 53 271t147 220.5t223.5 147.5t281.5 54q164 0 295 -55t223 -150t140.5 -220.5t48.5 -267.5q0 -139 -48.5 -265t-139.5 -221.5t-222 -152t-294 -56.5q-164 0 -295.5 56t-223 150.5t-140.5 221.5t-49 267zM425 672q0 -57 6.5 -124.5t23 -134.5t42.5 -129 t65 -109.5t91.5 -76t122.5 -28.5q104 0 172 56.5t108.5 143.5t57 190.5t16.5 197.5q0 66 -7.5 136t-23 137t-42 126.5t-66.5 104t-93 70.5t-122 26t-122 -26t-92 -70t-65 -102.5t-42.5 -123.5t-23 -133.5t-6.5 -130.5z" horiz-adv-x="1554" unicode="O"/><glyph d="M47 0v78q60 0 95.5 7t55 26t25.5 52t6 84v860q0 47 -6 75t-25.5 43t-55 20t-95.5 5v78h634q113 0 202 -26t151 -72.5t94.5 -113.5t32.5 -149q0 -77 -29.5 -146.5t-93.5 -122.5t-165.5 -84.5t-245.5 -31.5q-18 0 -34 1t-29 2q-14 1 -27 3v-350q0 -48 7 -78.5t26.5 -49 t55.5 -25.5t94 -7v-78h-673zM537 701q8 -1 14 -3q6 -1 13.5 -2t16.5 -1q74 0 123.5 21.5t78 58t40 86t11.5 106.5q0 55 -11.5 100.5t-40 78t-77.5 50t-124 17.5q-8 0 -15.5 -1t-14.5 -2q-8 -1 -14 -2v-507z" horiz-adv-x="1220" unicode="P"/><glyph d="M71 664q0 144 51 271t144 220.5t222 147.5t288 54q161 0 291.5 -54t223 -147.5t142.5 -220.5t50 -271q0 -117 -41.5 -226.5t-111.5 -200t-161 -155.5t-190 -91q38 -62 84.5 -118t107 -101t136 -75t171.5 -40v-78q-151 0 -287 31t-252 85.5t-210.5 131t-163.5 165.5 q-104 31 -194 93t-156.5 148.5t-105 195t-38.5 235.5zM425 664q0 -104 17 -210t58 -191t108.5 -139t167.5 -54q68 0 120.5 25t91.5 67.5t66 100.5t44 123.5t24.5 136.5t7.5 141t-5.5 141t-19.5 136.5t-39.5 123.5t-64.5 101t-94.5 67.5t-130.5 24.5q-107 0 -175 -54 t-107 -139t-54 -191t-15 -210z" horiz-adv-x="1554" unicode="Q"/><glyph d="M36 0v78q60 0 96.5 9t55.5 30.5t24.5 56.5t5.5 86v834q0 47 -5.5 77t-24.5 47.5t-55.5 24.5t-96.5 7v78h552q113 0 221.5 -9.5t193 -44.5t135.5 -103.5t51 -183.5q0 -79 -20 -140.5t-55 -105.5t-83 -71.5t-104 -39.5l287 -340q47 -56 87 -95.5t78 -65t76 -38t84 -13.5 v-78h-523l-431 601q-8 -3 -27 -3q-8 0 -16.5 0.5t-15.5 0.5v-348q0 -48 7.5 -81.5t27.5 -53.5t56 -29t94 -9v-78h-675zM526 715q14 -3 46 -5t62 -2q44 0 86.5 18.5t75 52t52 82t19.5 106.5q0 45 -8 89.5t-33 79t-74.5 56t-132.5 21.5q-25 0 -42 -1t-28 -2q-14 -1 -23 -2 v-493z" horiz-adv-x="1444" unicode="R"/><glyph d="M92 -29v501h77q8 -69 36.5 -142t79 -132.5t123.5 -97.5t169 -38q43 0 83.5 12.5t71 36.5t48.5 58.5t18 77.5q0 58 -30 103.5t-78.5 84t-111 73t-127 69t-126.5 73.5t-111 86.5t-79 107t-30 136.5q0 83 30.5 152t86 119t131.5 78t168 28q64 0 111.5 -13.5t84 -30.5 t65 -30.5t55.5 -13.5q26 0 39 26t20 62h75v-494h-82q-9 91 -43 165t-83 126t-111 80t-126 28q-39 0 -74.5 -12.5t-63 -35.5t-43 -55.5t-15.5 -71.5q0 -51 30.5 -92t80 -76.5t113 -67.5t130 -67t130 -74t113 -87t80 -108.5t30.5 -138.5q0 -90 -36.5 -165t-98.5 -128 t-147.5 -82.5t-182.5 -29.5q-74 0 -119 12t-76 27t-55 26.5t-57 11.5q-36 0 -59 -21.5t-41 -55.5h-73z" horiz-adv-x="1116" unicode="S"/><glyph d="M45 931l13 397h1208l13 -397h-78q-14 146 -84.5 214t-210.5 68h-85v-963q0 -51 7.5 -84t29 -52.5t58.5 -27.5t98 -8v-78h-692v78q60 0 98 8t58.5 27.5t27.5 52.5t7 84v963h-97q-69 0 -120.5 -15t-87.5 -48t-56.5 -87t-26.5 -132h-80z" horiz-adv-x="1337" unicode="T"/><glyph d="M-4 1250v78h681v-78q-60 0 -97.5 -7.5t-58.5 -27t-28.5 -52.5t-7.5 -84v-584q0 -109 16 -185.5t50 -125t86 -69.5t122 -21q78 0 140 21t107 71q55 58 79 149t24 232v525q0 51 -8 82t-29.5 48t-58.5 22.5t-97 5.5v78h503v-78q-55 0 -91 -8t-57.5 -27t-30 -49.5t-8.5 -73.5 v-563q0 -118 -26.5 -220t-87 -177t-158.5 -118t-241 -43q-174 0 -281 40.5t-164.5 118t-77 189t-19.5 254.5v506q0 51 -6 84t-25 52.5t-54.5 27t-95.5 7.5z" unicode="U"/><glyph d="M-4 1250v78h657v-78q-45 0 -76.5 -3.5t-50.5 -11.5t-27 -19.5t-8 -27.5q0 -8 4 -23.5t10 -33t13 -35t12 -29.5l298 -658l247 605q12 30 20.5 62.5t8.5 54.5q0 29 -16.5 50t-40.5 36t-52.5 23t-52.5 10v78h488v-78q-42 -10 -72 -23t-52 -33t-39 -48t-32 -66l-450 -1109 h-97l-505 1123q-18 43 -33.5 70t-35 43t-47 26t-71.5 17z" unicode="V"/><glyph d="M-4 1250v78h657v-78q-31 0 -58.5 -4.5t-48.5 -13.5t-33.5 -23t-12.5 -34q0 -19 5.5 -45t18.5 -58l235 -620l205 479q-32 88 -56.5 149t-50 99t-57 54.5t-75.5 16.5v78h658v-78q-38 0 -71 -3t-57 -9.5t-38.5 -19t-14.5 -29.5q0 -27 19 -75l250 -643l227 527q8 19 17 43.5 t17 48.5t13.5 45.5t5.5 33.5q0 52 -30 66.5t-83 14.5v78h382v-78q-30 0 -52.5 -9t-42 -32.5t-38 -62.5t-41.5 -97l-424 -1078h-79l-314 793l-335 -793h-79l-412 1081q-22 56 -38.5 93.5t-37 61t-51.5 33.5t-80 10z" horiz-adv-x="2040" unicode="W"/><glyph d="M0 0v78q47 8 86.5 18.5t75.5 28.5t68.5 45.5t63.5 67.5l292 376q-82 120 -147 214.5t-110 160.5q-53 78 -96 138q-27 40 -53.5 64t-49.5 37t-45.5 17.5t-41.5 4.5v78h685v-78q-70 0 -102 -13.5t-32 -43.5v-10.5t5 -15.5t17 -31.5t35.5 -57.5t60.5 -94t93 -142 q86 105 135.5 167t74.5 96t31.5 47.5t6.5 23.5q0 17 -13 31.5t-34.5 23.5t-50 14t-61.5 5v78h502v-78q-39 0 -68 -9.5t-55 -30.5t-53 -51.5t-61 -71.5l-273 -337l385 -549q14 -21 35.5 -43t50.5 -39.5t65 -29t79 -11.5v-78h-754v78q64 0 94.5 21t30.5 52q0 17 -15.5 50 t-43 78t-65 99.5t-81.5 112.5l-154 -176q-26 -30 -42.5 -52.5t-26 -40t-12.5 -32.5t-3 -31q0 -13 6.5 -27.5t23.5 -26t45.5 -19.5t71.5 -8v-78h-576z" unicode="X"/><glyph d="M17 1250v78h637v-78q-70 0 -107 -11.5t-37 -41.5q0 -16 15.5 -49t51 -93.5t94.5 -152.5t147 -226l235 400q21 34 30.5 64.5t9.5 54.5q0 26 -28.5 40.5t-98.5 14.5v78h460v-78q-34 0 -61.5 -5.5t-56.5 -29t-63 -69t-80 -124.5l-286 -485v-287q0 -51 11 -84t36 -52.5 t67 -27.5t101 -8v-78h-744v78q60 0 101.5 8t68 27.5t38 52.5t11.5 84v235l-334 564q-34 56 -60 95t-50.5 62.5t-50 33.5t-57.5 10z" unicode="Y"/><glyph d="M45 0v78l762 1135h-261q-133 0 -211 -74t-108 -238h-78l32 427h1068l-810 -1212h238q104 0 187.5 15.5t147 57t107 115.5t68.5 191l76 -13l-63 -482h-1155z" horiz-adv-x="1340" unicode="Z"/><glyph d="M160 -261v1622l398 52l18 -103l-195 -37v-1443l195 -41l-18 -104z" horiz-adv-x="687" unicode="["/><glyph d="M12 1357h124l437 -1386h-125z" horiz-adv-x="577" unicode="\"/><glyph d="M121 -211l195 41v1443l-195 37l18 103l398 -52v-1622l-398 -54z" horiz-adv-x="687" unicode="]"/><glyph d="M448 19l458 1198h118l459 -1198h-158l-359 973l-359 -973h-159z" horiz-adv-x="1930" unicode="^"/><glyph d="M0 -142h1083v-141h-1083v141z" horiz-adv-x="1082" unicode="_"/><glyph d="M17 1323q0 43 25.5 73t69.5 30q39 0 76 -19t71 -58l261 -308h-127l-279 164q-49 30 -73 57t-24 61z" horiz-adv-x="687" unicode="`"/><glyph d="M71 213q0 74 51.5 134t126.5 106.5t159.5 82t150.5 58.5v36q0 45 -7 84t-21.5 66.5t-37 43.5t-54.5 16q-51 0 -73 -29.5t-22 -112.5q0 -22 -6.5 -46t-21 -43.5t-39.5 -32.5t-63 -13q-55 0 -87.5 32.5t-32.5 89.5t35.5 102t90 75.5t119 46t121.5 15.5q104 0 177 -16 t118.5 -53t65.5 -95.5t20 -142.5v-266q0 -38 0.5 -78t4.5 -66q3 -18 12 -33t31 -15q10 0 26 7.5t31.5 18t29 21.5t20.5 19v-95q-13 -16 -42 -40.5t-67 -48.5t-84.5 -41.5t-94.5 -17.5q-31 0 -58 11t-47.5 30t-32 43t-11.5 51q-32 -27 -64 -52t-66 -43.5t-71 -29t-79 -10.5 q-100 0 -154 61t-54 170zM347 259q0 -42 21 -73t60 -31q32 0 66.5 23t64.5 56v266q-62 -27 -103 -56t-65 -59t-34 -62t-10 -64z" horiz-adv-x="995" unicode="a"/><glyph d="M-5 1283l364 109h78v-650q70 97 145.5 139.5t147.5 42.5q66 0 125.5 -28t104.5 -80.5t71 -126.5t26 -165q0 -110 -38.5 -211t-105.5 -177t-158 -121t-196 -45q-57 0 -113 13t-108.5 34t-99 46t-81.5 51v978q0 78 -11.5 105t-42.5 27q-18 0 -43 -3.5t-42 -10.5zM437 170 q31 -47 72.5 -73t83.5 -26q51 0 84 31.5t53.5 81.5t29 113t8.5 128q0 58 -8.5 113t-28 97t-51 67.5t-77.5 25.5q-35 0 -82 -27.5t-84 -75.5v-455z" horiz-adv-x="1112" unicode="b"/><glyph d="M88 413q0 117 35.5 211.5t93 160.5t132.5 102.5t155 36.5q95 0 161.5 -24.5t108 -60.5t61 -77.5t19.5 -75.5q0 -55 -29.5 -88.5t-88.5 -33.5q-49 0 -75.5 19.5t-39.5 49t-20.5 63.5t-21.5 63.5t-40 49t-76 19.5q-71 0 -111 -57t-40 -168q0 -90 22 -167t61 -134.5 t93.5 -90t119.5 -32.5q23 0 50.5 6t55 25t54 54t50.5 92l57 -25q-14 -68 -43.5 -132.5t-77 -115.5t-113 -82t-151.5 -31q-91 0 -165 34.5t-126.5 94.5t-81.5 141t-29 173z" horiz-adv-x="933" unicode="c"/><glyph d="M53 422q0 114 38 207.5t99 158.5t137 100.5t154 35.5q56 0 107.5 -18t96.5 -60v247q0 77 -11.5 104t-43.5 27q-18 0 -42.5 -3.5t-41.5 -10.5l-23 73l363 109h78v-1122q0 -77 12 -104.5t43 -27.5q16 0 41 4t44 10l23 -73l-364 -109h-78v118q-61 -61 -122 -89.5t-139 -28.5 q-65 0 -131 28t-119 84.5t-87 141.5t-34 198zM338 511q0 -97 17 -171t44 -123t62.5 -74t72.5 -25q43 0 80 30t71 68v404q0 44 -15.5 83t-40.5 68.5t-57.5 46t-64.5 16.5t-63 -16.5t-54 -54.5t-37.5 -99.5t-14.5 -152.5z" horiz-adv-x="1106" unicode="d"/><glyph d="M66 450q0 109 38.5 197.5t100 150t139.5 94.5t159 33q70 0 134 -21t112 -68.5t76 -123t28 -182.5h-562q0 -62 19.5 -125t58 -113t93 -81.5t124.5 -31.5q65 0 117 39t92 138l58 -25q-14 -68 -43.5 -132.5t-76.5 -115.5t-112 -82t-150 -31q-96 0 -171.5 34.5t-127.5 98 t-79 151.5t-27 196zM290 615h300q0 30 -7.5 67t-26.5 69.5t-49.5 54.5t-76.5 22q-26 0 -51 -15t-45.5 -43t-32 -67.5t-11.5 -87.5z" horiz-adv-x="920" unicode="e"/><glyph d="M35 786v111h179v6q0 38 10.5 89.5t32 106t56.5 107t84 94t114 67t147 25.5q70 0 122 -14.5t87 -38.5t52.5 -55t17.5 -63q0 -22 -9 -42.5t-24.5 -37.5t-37.5 -26.5t-50 -9.5q-35 0 -59.5 13.5t-43 33t-33 43.5t-30.5 43.5t-34.5 33.5t-46.5 14q-29 0 -43.5 -22.5 t-21.5 -57.5t-8.5 -78.5t-1.5 -87.5v-143h226v-111h-226v-569q0 -45 13 -72.5t34.5 -42t50 -19.5t59.5 -5v-78h-577v78q70 0 105 28.5t35 110.5v569h-179z" horiz-adv-x="712" unicode="f"/><glyph d="M45 -240q0 49 43 99.5t145 109.5q-52 14 -82 49t-30 73q0 26 15 56t39 61.5t56 63t65 59.5q-30 13 -60.5 38.5t-54.5 60.5t-39.5 78t-15.5 91q0 75 29.5 135.5t81.5 102.5t122 64.5t151 22.5q57 0 100 -11t80.5 -24t75 -24t84.5 -11q13 0 32 1.5t39 2t39.5 1.5t32.5 1 q26 0 35 -11.5t9 -43.5q0 -31 -11.5 -47.5t-44.5 -16.5q-13 0 -29.5 0.5t-34.5 1t-33.5 2t-24.5 1.5q25 -27 36.5 -66t11.5 -77q0 -56 -23.5 -112.5t-70 -101.5t-116.5 -73.5t-164 -28.5q-35 0 -71 4.5t-69 11.5q-26 -21 -48.5 -43.5t-22.5 -46.5q0 -22 30 -30.5t79 -10.5 q33 -1 71 -1h40h24q50 0 102 -3q65 -4 127 -16.5t110.5 -40t78.5 -74t30 -119.5q0 -60 -25.5 -109t-67.5 -89t-97 -68.5t-113 -48t-117.5 -28.5t-108.5 -9q-92 0 -172 14t-139.5 39.5t-94 61.5t-34.5 79zM285 -147q0 -35 33 -57.5t81.5 -35t103.5 -18t96 -5.5q44 0 95 6 t94.5 19.5t72.5 35.5t29 56q0 30 -24.5 47t-58.5 25q-38 9 -100 13.5t-130.5 7t-134 4.5t-111.5 5q-27 -32 -36.5 -58.5t-9.5 -44.5zM374 642q0 -47 6.5 -97t24 -91.5t48.5 -68t80 -26.5q39 0 63.5 20t39.5 50.5t20.5 67t5.5 70.5q0 36 -6.5 85.5t-23.5 94.5t-47 76t-78 31 q-39 0 -65 -19.5t-41 -50t-21 -68.5t-6 -74z" horiz-adv-x="1061" unicode="g"/><glyph d="M6 1276l364 116h78v-655q43 39 79.5 73t74.5 59t80.5 40t99.5 15q71 0 118.5 -30t74.5 -78.5t37.5 -109t10.5 -120.5v-369q0 -43 4.5 -70t16 -43t31 -21t49.5 -5v-78h-488v78q31 0 51.5 3t33 17t17.5 42t5 76v353q0 97 -24.5 139.5t-86.5 42.5q-21 0 -44 -10.5t-47 -28 t-47 -40t-46 -45.5v-410q0 -45 5.5 -72.5t17 -42t32.5 -19.5t52 -5v-78h-498v78q35 0 57 6.5t34 22t16.5 42t4.5 68.5v875q0 77 -15 104.5t-44 27.5q-18 0 -35 -3.5t-35 -10.5z" horiz-adv-x="1130" unicode="h"/><glyph d="M48 815l364 109h78v-708q0 -43 5 -69.5t17.5 -42.5t33.5 -21t52 -5v-78h-498v78q35 0 56.5 6t33 21t16.5 42t5 70v407q0 78 -12 105t-43 27q-17 0 -41.5 -3.5t-43.5 -10.5zM185 1253q0 34 13 63t35 50t51 32.5t63 11.5q31 0 60.5 -12t51 -33.5t34.5 -50.5t13 -61 q0 -34 -12.5 -64t-34 -52t-50 -35t-62.5 -13t-63 12.5t-51 34t-35 52t-13 65.5z" horiz-adv-x="630" unicode="i"/><glyph d="M-181 -289q0 21 9.5 42t25 38t37.5 26.5t49 9.5q35 0 58.5 -11.5t40 -28.5t28 -37t22.5 -37t24.5 -29t34.5 -12q29 0 44 22.5t22 57.5t8.5 79t1.5 88v705q0 78 -12 105t-43 27q-17 0 -42.5 -3.5t-42.5 -10.5l-23 73l364 109h78v-815q0 -116 -32.5 -215t-93 -172 t-147.5 -114.5t-196 -41.5q-101 0 -158 39.5t-57 105.5zM198 1254q0 32 13 61t35 50.5t50.5 34t60.5 12.5t62.5 -12.5t53 -34t36.5 -50.5t14 -61q0 -34 -13 -64.5t-36 -52.5t-53 -35t-64 -13q-69 0 -114 46.5t-45 118.5z" horiz-adv-x="677" unicode="j"/><glyph d="M4 1276l364 116h78v-876l213 187q16 14 29 30.5t13 34.5q0 13 -6.5 22t-17 15t-23 9.5t-24.5 4.5v78h454v-78q-42 -3 -73 -8.5t-57.5 -18t-51.5 -32t-55 -48.5l-153 -148l274 -372q29 -43 51.5 -66t43.5 -33.5t41 -12.5t44 -2v-78h-531v78q29 0 50 6t21 28 q0 10 -10.5 29.5t-22.5 36.5l-209 278v-239q0 -47 5 -75t17 -42t32.5 -18t51.5 -4v-78h-497v78q35 0 57 6.5t33.5 22t16 42t4.5 68.5v875q0 77 -15 104.5t-43 27.5q-17 0 -36 -3.5t-34 -10.5z" horiz-adv-x="1141" unicode="k"/><glyph d="M71 1278l361 114h78v-1175q0 -45 5 -72.5t17.5 -42t32.5 -19.5t51 -5v-78h-498v78q35 0 57.5 6.5t34 22t16 42t4.5 68.5v875q0 77 -15 104.5t-43 27.5q-18 0 -36 -3.5t-35 -10.5z" horiz-adv-x="687" unicode="l"/><glyph d="M13 815l364 109h78v-164q43 29 78.5 58t74 52.5t81.5 38.5t99 15q48 0 83.5 -13t62.5 -36.5t45 -56t30 -71.5q31 36 69.5 68t82.5 56.5t94.5 38.5t106.5 14q73 0 120 -30t74 -78t38 -108.5t11 -121.5v-369q0 -43 4.5 -70t16.5 -43t30.5 -21t48.5 -5v-78h-488v78 q31 0 51.5 3t33 17.5t18 42t5.5 76.5v352q0 97 -25 139.5t-87 42.5q-42 0 -90.5 -26.5t-93.5 -74.5v-434q0 -43 5 -70.5t16.5 -42.5t31 -20t49.5 -5v-78h-489v78q31 0 52 3t33.5 17.5t17.5 42t5 76.5v354q0 97 -24.5 138.5t-87.5 41.5q-42 0 -90.5 -26.5t-92.5 -74.5v-433 q0 -43 5 -70t17 -42t32.5 -21t52.5 -6v-78h-497v78q34 0 55.5 6t33.5 21t16.5 42t4.5 70v407q0 78 -11.5 105t-42.5 27q-17 0 -43 -3.5t-42 -10.5z" horiz-adv-x="1718" unicode="m"/><glyph d="M6 815l364 109h78v-164q43 29 79 58t74.5 52.5t81 38.5t98.5 15q73 0 120 -30t74 -78.5t37.5 -109t10.5 -120.5v-370q0 -43 4.5 -69.5t16 -42.5t31 -21t49.5 -5v-78h-488v78q31 0 51.5 3t33 17t17.5 42t5 76v353q0 97 -24.5 139.5t-86.5 42.5q-42 0 -90.5 -26.5 t-93.5 -74.5v-434q0 -43 5.5 -69.5t17 -41.5t32.5 -21t52 -6v-78h-497v78q35 0 56.5 5t33.5 21t16.5 42.5t4.5 69.5v408q0 78 -11.5 105t-43.5 27q-17 0 -42 -3.5t-42 -10.5z" horiz-adv-x="1130" unicode="n"/><glyph d="M53 439q0 94 31.5 181.5t90 155.5t141.5 108t188 40q101 0 186 -35.5t144.5 -98t93 -145.5t33.5 -178q0 -100 -31 -190t-88.5 -158t-140 -108.5t-186.5 -40.5q-108 0 -194 39t-145 104.5t-91 150t-32 175.5zM339 521q0 -92 19 -174t50 -143.5t71 -98t81 -36.5 q57 0 87 73.5t30 246.5q0 79 -13.5 157.5t-41 141t-67 101t-91.5 38.5q-22 0 -45 -15t-40.5 -50t-28.5 -93.5t-11 -147.5z" horiz-adv-x="1016" unicode="o"/><glyph d="M-6 806l363 116h78v-180q70 97 144 139.5t151 42.5q64 0 123 -28t105.5 -80t73.5 -126t27 -166q0 -117 -26.5 -218.5t-82.5 -175.5t-140.5 -117t-199.5 -43q-44 0 -95 15.5t-80 41.5v-241q0 -45 5.5 -73t17 -42t32.5 -19.5t52 -5.5v-78h-498v78q35 0 57 6.5t34 22.5 t16.5 42.5t4.5 68.5v835q0 77 -15 105t-44 28q-18 0 -35 -4t-35 -10zM435 233q0 -86 42 -129.5t117 -43.5q34 0 65.5 17.5t56.5 59t40 112.5t15 176q0 58 -9 115t-29.5 101.5t-53 72t-77.5 27.5q-35 0 -76.5 -23t-90.5 -73v-412z" horiz-adv-x="1120" unicode="p"/><glyph d="M65 408q0 105 35.5 199t98 164t148.5 111.5t187 41.5q79 0 143.5 -28.5t104.5 -61.5q16 6 33 19t34 26.5t33.5 26t32.5 18.5h60v-1155q0 -31 4.5 -54t20 -38.5t44 -23t78.5 -7.5v-78h-554v78q48 0 75.5 7.5t39.5 22.5t15 37.5t3 55.5v327q-64 -66 -126 -96t-140 -30 q-65 0 -130.5 26t-118.5 79.5t-87 136.5t-34 196zM337 494q0 -92 18.5 -162.5t48.5 -118t67 -71.5t75 -24q43 0 80 23.5t75 61.5v463q0 31 -10 62t-30 56.5t-50 41t-70 15.5q-44 0 -82 -18t-65 -59t-42 -107.5t-15 -162.5z" horiz-adv-x="1108" unicode="q"/><glyph d="M6 815l364 109h78v-190q22 35 52 69.5t64 61.5t72.5 43t78.5 16q31 0 59.5 -9.5t50 -27t34 -43t12.5 -56.5q0 -51 -28 -90t-88 -39q-39 0 -64 13.5t-44 29t-34.5 29.5t-34.5 14q-14 0 -30 -13t-33 -36t-34 -51.5t-33 -59.5v-369q0 -43 5.5 -69.5t17 -41.5t32.5 -21t52 -6 v-78h-497v78q35 0 56.5 5t33.5 21t16.5 42.5t4.5 69.5v408q0 78 -11.5 105t-43.5 27q-16 0 -43 -3.5t-41 -10.5z" horiz-adv-x="877" unicode="r"/><glyph d="M99 -26v372h75q10 -53 33 -104.5t56 -92.5t77.5 -66t97.5 -25q64 0 90 31t26 76q0 47 -34 79.5t-84 61t-108.5 58.5t-108.5 69t-84 93t-34 132q0 62 24 111.5t64.5 84t92.5 52.5t109 18q40 0 74.5 -5t64.5 -12.5t56 -12.5t51 -5q18 0 29 17t18 31h65v-346h-76 q-16 52 -42.5 98.5t-60.5 80t-75 53t-87 19.5q-53 0 -81.5 -26t-28.5 -66q0 -47 36 -80.5t90 -63.5t118 -60t118 -69t90 -92t36 -128q0 -68 -24.5 -121t-68 -90t-102.5 -56.5t-127 -19.5q-47 0 -87 10t-73.5 21.5t-57.5 21t-37 9.5q-6 0 -11.5 -7.5t-10 -17.5t-7.5 -19.5 t-6 -13.5h-75z" horiz-adv-x="870" unicode="s"/><glyph d="M10 801v59q53 9 106 40t101 76.5t89.5 101t73.5 115.5h65v-296h236v-96h-236v-492q0 -88 19.5 -124.5t58.5 -36.5q32 0 60 29.5t47 78.5h64q-6 -38 -25.5 -86.5t-56.5 -93.5t-94 -75.5t-136 -30.5q-105 0 -161 78.5t-56 224.5v528h-155z" horiz-adv-x="707" unicode="t"/><glyph d="M-13 816v81h407v-572q0 -97 24.5 -139.5t87.5 -42.5q42 0 90.5 32t92.5 82v421q0 43 -5.5 70t-20 42.5t-40.5 20.5t-67 5v81h412v-627q0 -78 12 -105t43 -27q17 0 42.5 4t41.5 10l24 -73l-364 -109h-78v177q-25 -27 -59.5 -58.5t-76 -57.5t-91.5 -43.5t-106 -17.5 q-73 0 -119.5 27.5t-74 73.5t-38 107t-10.5 130v370q0 43 -5 70t-19.5 42.5t-39 20.5t-63.5 5z" horiz-adv-x="1130" unicode="u"/><glyph d="M-3 819v78h544v-78q-56 0 -79 -17.5t-23 -52.5q0 -17 5 -39q6 -20 16 -44l142 -325l148 349q16 35 16 61q0 32 -25.5 50t-81.5 18v78h359v-78q-62 -3 -94 -33.5t-56 -84.5l-313 -731h-78l-315 720q-17 39 -32.5 62t-33.5 36t-42 19.5t-57 11.5z" horiz-adv-x="1020" unicode="v"/><glyph d="M-3 819v78h481v-78q-42 0 -58.5 -14.5t-16.5 -45.5q0 -14 7 -35.5t14 -38.5l153 -361l134 274q-22 58 -37.5 99t-32 68t-38.5 40t-58 14v78h494v-78q-103 0 -103 -60q0 -10 9 -39.5t23.5 -67.5t32 -82.5t34.5 -85.5t31 -74t22 -50l131 325q8 18 13 36.5t5 33.5 q0 29 -23 46.5t-75 17.5v78h347v-78q-23 -4 -44 -9t-38.5 -17t-32.5 -32t-30 -55l-299 -736h-76l-204 495l-242 -495h-75l-301 715q-14 32 -27.5 55t-30 39t-38.5 25.5t-51 14.5z" horiz-adv-x="1488" unicode="w"/><glyph d="M13 819v78h528v-78h-11q-26 0 -36 -12.5t-10 -30.5q0 -6 14.5 -28.5t33.5 -48.5q22 -30 49 -65q6 8 23 29.5t35.5 46t32.5 45.5t14 29q0 16 -17.5 25.5t-36.5 9.5v78h330v-78q-51 -1 -92.5 -26.5t-79 -65t-73 -88t-74.5 -94.5l238 -347q25 -35 42 -58.5t32.5 -37.5 t33 -19t43.5 -5v-78h-528v78q39 0 62.5 10.5t23.5 36.5q0 5 -15.5 31t-35.5 58.5t-41 63t-31 46.5q-58 -70 -93 -124t-35 -79q0 -18 19 -30.5t48 -12.5v-78h-371v78q55 0 101.5 29t106.5 98l160 214l-222 300q-25 34 -46 53.5t-40.5 29.5t-39 13.5t-42.5 3.5z" horiz-adv-x="1042" unicode="x"/><glyph d="M-3 -282q0 36 11 61t29 40.5t40 22.5t44 7q42 0 67 -15.5t45 -34.5t39 -34.5t46 -15.5q25 0 48.5 27.5t45 67.5t39.5 84.5t31 77.5l-299 684q-17 39 -32.5 62t-33.5 36t-42 19.5t-57 11.5v78h544v-78q-56 0 -79 -17.5t-23 -51.5q0 -38 21 -84l143 -328l147 352 q8 18 11.5 30.5t3.5 30.5q0 32 -25 50t-81 18v78h359v-78q-62 -3 -94.5 -33t-55.5 -85l-350 -834q-34 -81 -74.5 -138t-86 -93t-93 -53t-94.5 -17q-34 0 -67.5 9t-62.5 28t-46.5 47.5t-17.5 67.5z" horiz-adv-x="1041" unicode="y"/><glyph d="M104 0v78l486 711h-147q-56 0 -92 -15t-59 -44t-34 -72.5t-18 -101.5h-75l5 341h780v-78l-487 -712h174q55 0 93 12t64 42.5t42.5 80.5t23.5 125h73l-13 -367h-816z" horiz-adv-x="981" unicode="z"/><glyph d="M162 445v62q39 0 73.5 17.5t61.5 47t42 67t15 77.5q0 51 -8.5 90.5t-18.5 77.5t-18.5 77.5t-8.5 88.5q0 65 21 113t55.5 82.5t78 56t88.5 34t87.5 17t75.5 4.5v-45q-32 0 -66 -14.5t-61.5 -40t-45 -58.5t-17.5 -71q0 -49 8 -89.5t16.5 -78.5t16 -76.5t7.5 -85.5 q0 -65 -25.5 -119t-67 -95t-94.5 -69t-111 -39q57 -12 110.5 -39.5t95 -68t67 -94.5t25.5 -118q0 -47 -7.5 -85.5t-16 -76.5t-16.5 -78.5t-8 -88.5q0 -38 17.5 -71.5t45 -59t61 -39.5t66.5 -14v-46q-32 0 -75 4.5t-88 17.5t-88.5 35t-78 56t-55.5 81.5t-21 112.5 q0 49 8.5 88.5t18.5 77.5t18.5 78t8.5 90q0 40 -15 77t-42 65.5t-61.5 46.5t-73.5 18z" horiz-adv-x="855" unicode="{"/><glyph d="M156 -430v1787h130v-1787h-130z" horiz-adv-x="441" unicode="|"/><glyph d="M149 -357q32 0 66.5 14t61.5 39.5t44.5 59t17.5 71.5q0 48 -7.5 88.5t-16 78.5t-16.5 76.5t-8 85.5q0 64 25 118t66.5 94.5t95.5 68t111 39.5q-57 12 -111 39.5t-95.5 68.5t-66.5 95t-25 119q0 47 8 85.5t16.5 76.5t16 78.5t7.5 89.5q0 38 -17.5 71t-44.5 58.5t-61 40 t-67 14.5v45q32 0 75.5 -4.5t88 -17t87.5 -34t77.5 -56t55.5 -82.5t21 -113q0 -49 -8.5 -88.5t-18.5 -77.5t-17.5 -77.5t-7.5 -90.5q0 -40 15 -77.5t41.5 -67t61 -47t73.5 -17.5v-62q-39 0 -73.5 -18t-61 -46.5t-41.5 -65.5t-15 -77q0 -49 7.5 -89.5t17.5 -78.5t18.5 -77.5 t8.5 -88.5q0 -64 -21 -112t-55.5 -82t-77.5 -56t-87.5 -35t-87.5 -17.5t-76 -4.5v46z" horiz-adv-x="855" unicode="}"/><glyph d="M23 451q22 42 50 90.5t64.5 91t81 70t98.5 27.5q65 0 129 -27t123.5 -60t115 -60.5t103.5 -27.5q38 0 69.5 15.5t57.5 40.5t47 56.5t36 62.5l74 -83q-18 -47 -48 -95t-68 -86t-83.5 -63t-95.5 -25q-61 0 -119.5 27t-117 58.5t-116 58.5t-117.5 27q-40 0 -71.5 -18 t-57 -45t-46 -59.5t-38.5 -63.5z" horiz-adv-x="1102" unicode="~"/><glyph d="M183 -239q0 5 1.5 18.5t3.5 29.5t4 31.5t3 25.5l100 709h78l99 -709q6 -35 9.5 -61.5t3.5 -52.5q0 -34 -9 -66.5t-28.5 -59t-48.5 -43t-68 -16.5q-32 0 -59.5 15t-47 41.5t-30.5 62t-11 75.5zM192 794q0 29 11 54t30.5 44.5t45 31t55.5 11.5q29 0 55 -11.5t44 -31 t29 -44.5t11 -54t-11 -54t-29 -44t-44 -30t-55 -11q-30 0 -55.5 11t-45 30t-30.5 44.5t-11 53.5z" horiz-adv-x="668" unicode="¡"/><glyph d="M118 413q0 117 35 211.5t93 160.5t133 102.5t155 36.5q35 0 69 -4l138 379h95l-146 -398q52 -17 88.5 -43t60 -55.5t34.5 -60t11 -56.5q0 -55 -29.5 -88.5t-88.5 -33.5q-42 0 -67.5 13.5t-40.5 36t-22 49t-12 53.5l-166 -456q38 -38 82.5 -59.5t97.5 -21.5q23 0 50.5 6 t55 25t54 54t49.5 92l58 -25q-14 -68 -43.5 -132.5t-77 -115.5t-113 -82t-151.5 -31q-43 0 -82 8t-74 22l-135 -370h-95l151 415q-79 60 -123 155.5t-44 212.5zM342 603q0 -73 13.5 -136.5t39.5 -116.5l168 461q-27 17 -70 17q-71 0 -111 -57t-40 -168z" horiz-adv-x="1022" unicode="¢"/><glyph d="M10 153q0 35 11 70.5t35.5 62.5t62 44t90.5 17q10 0 22.5 -0.5t24.5 -2.5q1 6 1 15v17q0 48 -7.5 107.5t-14.5 124.5h-203v132h189q-3 48 -8 96.5t-5 98.5q0 81 19.5 156.5t65 135t120 95t185.5 35.5q66 0 123.5 -16t99.5 -46t66 -71.5t24 -93.5q0 -22 -6 -45.5t-20 -43 t-39 -32t-61 -12.5q-48 0 -71.5 20t-34 51.5t-13.5 66.5t-10 66t-24.5 51.5t-56.5 20.5q-31 0 -49 -21.5t-26.5 -56t-10.5 -79t-2 -88.5q0 -73 7.5 -145.5t13.5 -142.5h228v-132h-228q0 -65 -7 -145.5t-27 -162.5q70 -18 119.5 -34t95.5 -16q43 0 83 10t74.5 34t60.5 63 t42 98l62 -14q-13 -87 -39 -170.5t-68 -149t-102 -105t-142 -39.5q-48 0 -85.5 11t-69 29.5t-57.5 42t-50 48.5q-38 -58 -92.5 -94.5t-130.5 -36.5q-43 0 -74 14.5t-51 39.5t-30 57t-10 65zM110 151q0 -30 13.5 -53.5t45.5 -23.5q21 0 36 13t24.5 34t15 47t7.5 53 q-30 13 -56 13q-49 0 -67.5 -26t-18.5 -57z" horiz-adv-x="1022" unicode="£"/><glyph d="M39 396l203 203q-34 44 -51.5 102t-17.5 120t17.5 123.5t55.5 112.5l-206 206l104 107l207 -207q45 35 104.5 52t121.5 17q65 0 125.5 -17.5t103.5 -51.5l207 207l104 -107l-205 -204q39 -49 57.5 -110t18.5 -124q0 -64 -18.5 -123.5t-51.5 -104.5l199 -202l-104 -104 l-201 199q-52 -36 -111 -53.5t-120 -17.5q-62 0 -122 18.5t-112 55.5l-203 -202zM331 824q0 -52 19.5 -97t54 -78.5t80 -53t97.5 -19.5q51 0 96 20t78 54.5t52 80t19 96.5q0 49 -19.5 94t-53 78.5t-77.5 54t-95 20.5q-53 0 -98.5 -19.5t-79.5 -53t-53.5 -79.5t-19.5 -98z" horiz-adv-x="1158" unicode="¤"/><glyph d="M0 1250v78h525v-78q-13 -1 -30 -4t-31 -9.5t-24.5 -18.5t-10.5 -29q0 -5 11.5 -40t28.5 -85.5t38.5 -110t39.5 -112t32.5 -91.5t18.5 -49l143 414q18 34 18 74q0 19 -7 31t-19 18.5t-27 8.5t-30 3v78h347v-78q-38 0 -64 -13t-45.5 -34t-34.5 -49t-29 -57l-151 -438h308 v-104h-347l-6 -19v-117h353v-108h-353v-72q0 -42 3 -72.5t18.5 -50t49.5 -29t96 -9.5v-78h-613v78q64 0 99 10.5t51 30.5t19 50.5t3 69.5v72h-364v108h364v101l-16 35h-348v104h310l-166 448q-12 31 -24.5 56t-30.5 43t-43.5 29.5t-61.5 14.5z" horiz-adv-x="1022" unicode="¥"/><glyph d="M172 -382v772h98v-772h-98zM172 649v772h98v-772h-98z" horiz-adv-x="441" unicode="¦"/><glyph d="M91 454q0 58 19 108t48.5 91.5t66 76t71.5 60.5q-25 26 -50 53.5t-46 59.5t-34 70t-13 86q0 69 30 125.5t80 96.5t115 61t134 21q60 0 118.5 -18t105 -50.5t75.5 -78t29 -99.5q0 -49 -30.5 -81.5t-85.5 -32.5q-43 0 -75 29t-32 72q0 26 7.5 47t7.5 46q0 21 -10.5 40 t-27.5 32.5t-39.5 22t-47.5 8.5q-32 0 -63 -12.5t-54 -34t-37.5 -52t-14.5 -66.5q0 -40 24.5 -77.5t65 -72.5t92.5 -70.5t106 -73.5t106 -80t92 -90t65 -104t25 -122q0 -55 -18.5 -100t-48 -82.5t-68 -69t-77.5 -57.5q27 -30 53.5 -58.5t48 -61t34.5 -72t13 -91.5 q0 -62 -26.5 -115t-74.5 -91t-115 -59.5t-146 -21.5q-65 0 -123 15.5t-101.5 46.5t-69 76.5t-25.5 104.5q0 47 32.5 80.5t79.5 33.5q49 0 81.5 -29.5t32.5 -72.5q0 -14 -3.5 -28.5t-9 -28.5t-9.5 -28t-4 -30q0 -29 30 -50t94 -21q81 0 131 43t50 118q0 51 -43.5 97.5 t-108 93.5t-140.5 96.5t-140.5 105t-108 120.5t-43.5 145zM260 569q0 -43 19.5 -78.5t65 -77t121 -97.5t187.5 -139q40 36 67 74t27 93q0 52 -22.5 93t-70 84.5t-122 96.5t-178.5 129q-44 -38 -69 -78.5t-25 -99.5z" horiz-adv-x="1002" unicode="§"/><glyph d="M0 1234q0 27 10.5 51t28 41.5t41.5 28t51 10.5t51.5 -10.5t42 -28t28 -41.5t10.5 -51t-10.5 -51.5t-28 -42t-41.5 -28t-52 -10.5q-27 0 -51 10.5t-41.5 28t-28 41.5t-10.5 52zM370 1234q0 27 10.5 51t28 41.5t41.5 28t52 10.5q27 0 51 -10.5t41.5 -28t28 -41.5t10.5 -51 t-10.5 -51.5t-28 -42t-41.5 -28t-51 -10.5t-51.5 10.5t-42 28t-28 41.5t-10.5 52z" horiz-adv-x="633" unicode="¨"/><glyph d="M66 663q0 148 54 275t147.5 219.5t220.5 146t274 53.5q148 0 275.5 -53.5t221 -146t146.5 -219.5t53 -275q0 -146 -54 -272.5t-147.5 -221t-220.5 -148t-274 -53.5t-274 53.5t-220.5 147.5t-147.5 220.5t-54 273.5zM164 663q0 -125 46 -234t126.5 -189.5t190 -127 t235.5 -46.5t235.5 46.5t191 127t128 189.5t46.5 234q0 126 -46.5 236t-128 190.5t-191 127t-235.5 46.5t-235.5 -46.5t-190 -128t-126.5 -190.5t-46 -235zM363 642q0 78 26 156t77 139t128.5 99.5t178.5 38.5q45 0 83 -9t66 -19.5t47 -19.5t28 -9q25 0 31.5 17t13.5 41h45 l19 -308h-48q-13 56 -39.5 101t-61 75.5t-75 46.5t-80.5 16q-61 0 -105 -28.5t-73.5 -78t-43 -115.5t-13.5 -143q0 -75 18.5 -136t52.5 -104t81.5 -66.5t104.5 -23.5q47 0 86.5 15.5t72.5 40.5t59 56t47 62l42 -32q-18 -31 -46 -68.5t-69.5 -69t-98.5 -53t-132 -21.5 q-108 0 -187 33t-131 89t-78 128t-26 150z" horiz-adv-x="1498" unicode="©"/><glyph d="M49 922q0 44 37 79.5t91 63.5t114.5 49t108.5 35v22q0 55 -20 90t-65 35q-30 0 -50.5 -10t-25.5 -39q3 -9 5 -17t2 -19q0 -13 -4.5 -27t-15 -26t-29 -19.5t-45.5 -7.5q-39 0 -63 19.5t-24 53.5t26 60.5t65 44.5t86 27t88 9q75 0 127.5 -9.5t85 -31t47 -56.5t14.5 -85 v-160q0 -22 1 -46.5t3 -38.5q3 -10 9.5 -19.5t22.5 -9.5q8 0 18.5 4.5t21.5 10.5t21 13t15 11v-56q-9 -9 -29 -24t-48 -29t-62 -24.5t-69 -10.5q-45 0 -76.5 24t-31.5 56q-45 -34 -92.5 -57t-108.5 -23q-71 0 -110.5 36.5t-39.5 101.5zM57 606v78h651v-78h-651zM248 949 q0 -26 15 -44.5t44 -18.5q22 0 46.5 14.5t46.5 32.5v160q-90 -34 -121 -69.5t-31 -74.5z" horiz-adv-x="716" unicode="ª"/><glyph d="M70 342q0 136 73 252t197 178q53 25 74 -16q23 -44 -15 -74q-170 -138 -170 -338q0 -199 170 -346q35 -27 13 -72q-21 -43 -72 -18q-131 67 -199 180q-71 118 -71 254zM428 342q0 134 74 252q73 117 196 178q51 25 72 -16q24 -46 -12 -74q-170 -138 -170 -338 q0 -199 170 -346q34 -27 12 -72q-21 -43 -72 -18q-129 66 -198 180q-72 119 -72 254z" horiz-adv-x="849" unicode="«"/><glyph d="M77 669v142h1043v-446h-143v304h-900z" horiz-adv-x="1197" unicode="¬"/><glyph d="M39 363v195h610v-195h-610z" horiz-adv-x="687" unicode="­"/><glyph d="M66 663q0 148 54 275t147.5 219.5t220.5 146t274 53.5q148 0 275.5 -53.5t221 -146t146.5 -219.5t53 -275q0 -146 -54 -272.5t-147.5 -221t-220.5 -148t-274 -53.5t-274 53.5t-220.5 147.5t-147.5 220.5t-54 273.5zM164 663q0 -125 46 -234t126.5 -189.5t190 -127 t235.5 -46.5t235.5 46.5t191 127t128 189.5t46.5 234q0 126 -46.5 236t-128 190.5t-191 127t-235.5 46.5t-235.5 -46.5t-190 -128t-126.5 -190.5t-46 -235zM354 274v47q53 0 73.5 23t20.5 84v492q0 55 -20.5 74t-73.5 19v46h314q68 0 136.5 -5.5t124 -26.5t90 -61.5 t34.5 -108.5q0 -47 -17 -84t-44.5 -63t-61 -43t-66.5 -24l138 -196q12 -14 32 -35.5t44 -41t51 -34.5t54 -15v-47h-273l-256 351h-22v-203q0 -57 24 -79t73 -22v-47h-375zM632 694q43 0 83.5 6t73 23t52 46t19.5 76q0 27 -10 53.5t-31.5 48t-53.5 34.5t-76 13q-14 0 -25 -1 t-18 -3q-8 -1 -14 -2v-294z" horiz-adv-x="1498" unicode="®"/><glyph d="M0 1102v174h633v-174h-633z" horiz-adv-x="633" unicode="¯"/><glyph d="M87 1178q0 47 17.5 87t47.5 70t70.5 47.5t86.5 17.5q47 0 87.5 -17.5t70.5 -47.5t46.5 -70t16.5 -87t-16.5 -87.5t-46.5 -70.5t-70.5 -46.5t-87.5 -16.5t-87 16.5t-70 46.5t-47.5 70.5t-17.5 87.5zM185 1178q0 -52 36 -88t88 -36t88 36t36 88t-36 87.5t-88 35.5 t-88 -35.5t-36 -87.5z" horiz-adv-x="617" unicode="°"/><glyph d="M386 0v120h1158v-120h-1158zM386 691v120h520v347h118v-347h520v-120h-520v-347h-118v347h-520z" horiz-adv-x="1930" unicode="±"/><glyph d="M30 503v47q94 87 164 156.5t118 128t72 111t24 107.5q0 62 -42 98t-105 36q-44 0 -87 -27.5t-65 -88.5h-57q12 49 35 94t58.5 79t82 54t103.5 20q62 0 112.5 -17t85.5 -46t54 -67t19 -79q0 -53 -17.5 -99.5t-46 -87.5t-66.5 -76.5t-78 -67.5t-80.5 -62.5t-74.5 -59.5h174 q69 0 123 14t81 64h58l-100 -231h-545z" horiz-adv-x="681" unicode="²"/><glyph d="M30 588q0 27 19 47.5t59 20.5q22 0 43.5 -13t44 -28.5t48.5 -28.5t58 -13q27 0 50.5 11t40 28.5t26 40.5t9.5 46q0 86 -77 134t-208 57v47q44 3 85 18.5t72 40t49.5 55t18.5 64.5q0 42 -32 68t-83 26t-96 -29.5t-83 -83.5l-44 15q19 38 44 75.5t59.5 68.5t80.5 49.5 t110 18.5q109 0 172 -42t63 -120q0 -45 -36.5 -94t-87.5 -83q34 -12 64.5 -30t54 -43.5t38 -58.5t14.5 -76q0 -65 -30 -116.5t-82 -87.5t-124 -55.5t-156 -19.5q-36 0 -70 3.5t-59 14t-40 28t-15 45.5z" horiz-adv-x="670" unicode="³"/><glyph d="M220 1041l290 355q12 14 31 22t41 8q44 0 75 -30t31 -73q0 -22 -6.5 -42.5t-25.5 -31.5l-335 -208h-101z" horiz-adv-x="687" unicode="´"/><glyph d="M61 -313q0 38 9 78.5t16 74.5q14 87 22.5 172t8.5 174v708h278v-569q0 -97 25 -139.5t87 -42.5q42 0 90.5 32t92.5 82v637h264v-569q0 -27 1.5 -56.5t7 -54t16 -41t28.5 -16.5q16 0 26.5 12t17.5 30t11 40t6 42h72q-3 -70 -16 -128t-41.5 -98.5t-74 -62.5t-111.5 -22 q-48 0 -85 15t-62.5 40.5t-40.5 56.5t-19 65q-25 -27 -56 -58.5t-70.5 -57.5t-90.5 -43.5t-116 -17.5q-48 0 -84 12.5t-59 30.5v-45q0 -43 13 -73.5t29.5 -59.5t29.5 -60.5t13 -78.5q0 -62 -36.5 -96t-83.5 -34q-26 0 -47.5 9.5t-37 26.5t-24.5 39t-9 46z" horiz-adv-x="1155" unicode="µ"/><glyph d="M-13 884q0 83 32.5 163t97 142.5t159 100.5t221.5 38h558v-78h-185v-1680h-97v1677h-179v-1677h-97v903q-126 0 -221 31.5t-159.5 86.5t-97 130.5t-32.5 162.5z" horiz-adv-x="1050" unicode="¶"/><glyph d="M114 667q0 34 13 63.5t36 52.5t53 36t63 13q34 0 64.5 -13t53.5 -36t36 -52.5t13 -63.5q0 -35 -13 -65.5t-36 -53.5t-53.5 -36t-64.5 -13t-63.5 13t-52.5 36t-36 53.5t-13 65.5z" horiz-adv-x="560" unicode="·"/><glyph d="M0 -407l47 79q38 -14 74 -21.5t58 -7.5q26 0 43 7t27.5 18.5t15 25.5t4.5 28q0 34 -21.5 46t-47.5 12q-18 0 -32.5 -3t-28.5 -7l-34 23l94 207h84l-54 -127h45q34 0 70.5 -6.5t65.5 -22.5t48 -41t19 -63q0 -43 -27.5 -76.5t-69 -57t-92 -36t-98.5 -12.5q-44 0 -89.5 8.5 t-100.5 26.5z" horiz-adv-x="482" unicode="¸"/><glyph d="M147 1224l329 134h56v-665q0 -31 5.5 -50.5t21.5 -31.5t43 -16.5t70 -4.5v-47h-503v47q43 0 73 4.5t48.5 16.5t26.5 31.5t8 50.5v412q0 19 -1.5 36.5t-8 30t-20.5 20.5t-40 8q-16 0 -37.5 -4.5t-48.5 -15.5z" horiz-adv-x="826" unicode="¹"/><glyph d="M51 1053q0 56 22.5 108t64 92t102 64t136.5 24q74 0 134.5 -21t104 -58.5t67.5 -87.5t24 -106q0 -58 -22 -112t-64 -95t-101.5 -65t-135.5 -24q-78 0 -139.5 23.5t-104.5 62.5t-65.5 89.5t-22.5 105.5zM62 606v78h639v-78h-639zM256 1101q0 -55 13.5 -103.5t36.5 -85.5 t51.5 -58.5t58.5 -21.5q42 0 63 43.5t21 147.5q0 47 -9.5 93.5t-29 83.5t-48 60.5t-66.5 23.5q-16 0 -32 -9t-29 -30t-21.5 -56.5t-8.5 -87.5z" horiz-adv-x="753" unicode="º"/><glyph d="M78 754q20 42 74 18q122 -60 198 -180q72 -115 72 -252q0 -133 -72 -252q-69 -114 -198 -180q-49 -24 -72 16q-26 44 12 74q170 145 170 348q0 201 -170 336q-36 26 -14 72zM436 754q20 42 74 18q121 -59 197 -180q73 -116 73 -252q0 -131 -73 -252q-69 -114 -197 -180 q-49 -24 -72 16q-26 43 13 74q170 145 170 348q0 201 -170 336q-37 27 -15 72z" horiz-adv-x="849" unicode="»"/><glyph d="M169 1202l329 134h56v-673q0 -31 5.5 -50.5t21.5 -31.5t43 -16.5t70 -4.5v-47h-503v47q43 0 73 4.5t48.5 16.5t26.5 31.5t8 50.5v412q0 19 -1.5 37.5t-8 33.5t-20.5 23.5t-40 8.5q-16 0 -37.5 -4.5t-48.5 -15.5zM370 -16l956 1368h126l-955 -1368h-127zM854 172v122 l429 513h149v-513h104v-122h-104v-180h-193v180h-385zM959 294h280v330z" horiz-adv-x="1705" unicode="¼"/><glyph d="M104 1202l329 134h56v-673q0 -31 5.5 -50.5t21.5 -31.5t43 -16.5t70 -4.5v-47h-503v47q43 0 73 4.5t48.5 16.5t26.5 31.5t8 50.5v412q0 19 -1.5 37.5t-8 33.5t-20.5 23.5t-40 8.5q-16 0 -37.5 -4.5t-48.5 -15.5zM305 -16l956 1368h126l-955 -1368h-127zM958 -8v47 q94 87 164 155.5t118 127t72 113t24 114.5q0 62 -44 94.5t-107 32.5q-44 0 -85 -27.5t-63 -88.5h-57q12 49 34 95.5t56 81.5t79.5 56.5t102.5 21.5q62 0 113.5 -18t88 -49t56.5 -69.5t20 -80.5q0 -81 -37 -145t-92.5 -117.5t-118.5 -99.5t-115 -90h174q69 0 123 13.5 t81 64.5h58l-100 -232h-545z" horiz-adv-x="1705" unicode="½"/><glyph d="M162 589q0 27 19 48t59 21q22 0 43.5 -13t44.5 -28.5t49 -28.5t57 -13q27 0 50.5 9.5t40.5 26.5t26 38.5t9 44.5q0 86 -76.5 144t-207.5 67v46q44 3 85 16t72 34.5t49 50t18 62.5q0 51 -31.5 79.5t-82.5 28.5t-96.5 -29.5t-82.5 -83.5l-45 15q19 38 43.5 75.5t57.5 68.5 t78.5 49.5t109.5 18.5q109 0 174.5 -43.5t65.5 -121.5q0 -22 -11.5 -47.5t-29.5 -48.5t-39.5 -42.5t-42.5 -30.5q34 -12 64.5 -30t54 -43.5t37.5 -58.5t14 -76q0 -65 -30 -119t-81.5 -93.5t-124 -61.5t-155.5 -22q-36 0 -70 4t-59.5 14t-40.5 28t-15 45zM370 -16l956 1368 h126l-955 -1368h-127zM854 172v122l429 513h149v-513h104v-122h-104v-180h-193v180h-385zM959 294h280v330z" horiz-adv-x="1705" unicode="¾"/><glyph d="M75 -120q0 43 16 84.5t42 81.5t58.5 79t67.5 78t68.5 78.5t60.5 80.5t43 83t16 87h78q0 -47 -6 -89.5t-18 -84t-31 -86.5t-45 -97q-40 -82 -55 -149.5t-15 -134.5q0 -231 164 -232q23 0 45 6t39.5 16t28.5 23.5t11 30.5q0 14 -9 35.5t-20.5 47t-20.5 52.5t-9 53 q0 45 28.5 78.5t77.5 33.5q68 0 109.5 -41.5t41.5 -106.5q0 -52 -20 -108t-66.5 -102.5t-121.5 -76.5t-185 -30q-77 0 -145 18t-118.5 56.5t-80 96.5t-29.5 139zM338 807q0 30 12.5 57.5t32.5 47.5t47.5 31.5t58.5 11.5t57.5 -11.5t47 -31.5t32 -47.5t11.5 -57.5 q0 -31 -11.5 -58.5t-32 -48t-47 -32.5t-57.5 -12t-58.5 12t-47.5 32.5t-32.5 48t-12.5 58.5z" horiz-adv-x="937" unicode="¿"/><glyph d="M16 0v78q34 6 60.5 16t50.5 31.5t46 58.5t47 95l443 1078h78l493 -1122q19 -44 43.5 -73t52 -48t55.5 -27t54 -9v-78h-666v78q87 0 121.5 14.5t34.5 47.5q0 8 -2.5 23t-12 44.5t-28 76.5t-50.5 120h-425q-22 -55 -39 -100q-14 -39 -26.5 -74.5t-12.5 -46.5q0 -49 42 -74 t135 -31v-78h-494zM389 1752q0 43 25.5 73t69.5 30q39 0 76 -19t71 -58l261 -308h-127l-279 164q-49 30 -73 57t-24 61zM452 519h333l-175 391z" unicode="À"/><glyph d="M16 0v78q34 6 60.5 16t50.5 31.5t46 58.5t47 95l443 1078h78l493 -1122q19 -44 43.5 -73t52 -48t55.5 -27t54 -9v-78h-666v78q87 0 121.5 14.5t34.5 47.5q0 8 -2.5 23t-12 44.5t-28 76.5t-50.5 120h-425q-22 -55 -39 -100q-14 -39 -26.5 -74.5t-12.5 -46.5q0 -49 42 -74 t135 -31v-78h-494zM452 519h333l-175 391zM597 1470l290 355q12 14 31 22t41 8q44 0 75 -30t31 -73q0 -22 -6.5 -42.5t-25.5 -31.5l-335 -208h-101z" unicode="Á"/><glyph d="M16 0v78q34 6 60.5 16t50.5 31.5t46 58.5t47 95l443 1078h78l493 -1122q19 -44 43.5 -73t52 -48t55.5 -27t54 -9v-78h-666v78q87 0 121.5 14.5t34.5 47.5q0 8 -2.5 23t-12 44.5t-28 76.5t-50.5 120h-425q-22 -55 -39 -100q-14 -39 -26.5 -74.5t-12.5 -46.5q0 -49 42 -74 t135 -31v-78h-494zM381 1455l250 369h187l248 -369h-82l-260 195l-260 -195h-83zM452 519h333l-175 391z" unicode="Â"/><glyph d="M16 0v78q34 6 60.5 16t50.5 31.5t46 58.5t47 95l443 1078h78l493 -1122q19 -44 43.5 -73t52 -48t55.5 -27t54 -9v-78h-666v78q87 0 121.5 14.5t34.5 47.5q0 8 -2.5 23t-12 44.5t-28 76.5t-50.5 120h-425q-22 -55 -39 -100q-14 -39 -26.5 -74.5t-12.5 -46.5q0 -49 42 -74 t135 -31v-78h-494zM372 1522q8 61 30.5 113t56.5 90t76 58.5t88 20.5q45 0 81.5 -14t69 -30.5t64 -30.5t67.5 -14t60 22t34 76h77q-3 -62 -20 -114t-47.5 -89t-70.5 -58t-85 -21q-55 0 -89.5 14.5t-63.5 32t-59.5 32.5t-76.5 15q-18 0 -37.5 -8t-35 -22t-26 -33t-10.5 -40 h-83zM452 519h333l-175 391z" unicode="Ã"/><glyph d="M16 0v78q34 6 60.5 16t50.5 31.5t46 58.5t47 95l443 1078h78l493 -1122q19 -44 43.5 -73t52 -48t55.5 -27t54 -9v-78h-666v78q87 0 121.5 14.5t34.5 47.5q0 8 -2.5 23t-12 44.5t-28 76.5t-50.5 120h-425q-22 -55 -39 -100q-14 -39 -26.5 -74.5t-12.5 -46.5q0 -49 42 -74 t135 -31v-78h-494zM403 1663q0 27 10.5 51t28 41.5t41.5 28t51 10.5t51.5 -10.5t42 -28t28 -41.5t10.5 -51t-10.5 -51.5t-28 -42t-41.5 -28t-52 -10.5q-27 0 -51 10.5t-41.5 28t-28 41.5t-10.5 52zM452 519h333l-175 391zM773 1663q0 27 10.5 51t28 41.5t41.5 28t52 10.5 q27 0 51 -10.5t41.5 -28t28 -41.5t10.5 -51t-10.5 -51.5t-28 -42t-41.5 -28t-51 -10.5t-51.5 10.5t-42 28t-28 41.5t-10.5 52z" unicode="Ä"/><glyph d="M16 0v78q34 6 60.5 16t50.5 31.5t46 58.5t47 95l443 1078h78l493 -1122q19 -44 43.5 -73t52 -48t55.5 -27t54 -9v-78h-666v78q87 0 121.5 14.5t34.5 47.5q0 8 -2.5 23t-12 44.5t-28 76.5t-50.5 120h-425q-22 -55 -39 -100q-14 -39 -26.5 -74.5t-12.5 -46.5q0 -49 42 -74 t135 -31v-78h-494zM452 519h333l-175 391zM512 1677q0 43 16 80t44 65t66 44t81 16t80.5 -16t65.5 -44t44 -65t16 -80t-16 -80.5t-44 -65.5t-65.5 -44.5t-80.5 -16.5t-81 16.5t-66 44.5t-44 65.5t-16 80.5zM611 1677q0 -23 8.5 -43t22.5 -34.5t34.5 -23t42.5 -8.5t41.5 8.5 t34.5 23t23.5 34.5t8.5 43q0 44 -31.5 76t-76.5 32t-76.5 -32t-31.5 -76z" unicode="Å"/><glyph d="M92 0v78q43 0 73 17q14 9 31 18.5t36.5 27.5t42.5 48.5t49 79.5l390 754q30 57 44 90t14 57q0 17 -4.5 30.5t-19 23.5t-41.5 17t-71 9v78h1171l15 -357h-75q-17 64 -32 110t-40.5 75t-69 43t-117.5 14h-248v-480h120q61 0 98 14.5t59.5 43t33.5 71.5t19 101h78v-555h-78 q-8 58 -19 98.5t-33 66t-59 36.5t-99 11h-120v-360q0 -39 4 -67t10 -37q4 -6 10 -14t16.5 -14.5t27.5 -11t45 -4.5h104q87 0 144.5 16t99 49.5t75 85.5t74.5 122h80l-135 -381l-1049 -4v78h38q82 0 122 48q12 16 20.5 53t8.5 98v197h-377l-100 -188q-17 -31 -28 -52.5 t-17 -36t-8 -23.5t-2 -17q0 -40 43 -56.5t112 -22.5v-78h-466zM616 588h319v626z" horiz-adv-x="2012" unicode="Æ"/><glyph d="M92 638q0 87 19.5 174t57.5 166.5t95.5 149t133 120.5t170.5 80t208 29q75 0 137.5 -15t110 -33t79.5 -33t46 -15q21 0 32.5 7.5t19 21.5t12 32t10.5 38h76l29 -513h-78q-22 94 -66 168t-102 125t-125.5 78t-133.5 27q-101 0 -175.5 -47.5t-122.5 -130t-71.5 -193 t-23.5 -236.5t31.5 -228t88 -173.5t135 -110t174.5 -38.5q78 0 144.5 26t121.5 67t98.5 93t77.5 104l72 -56q-31 -52 -78 -113t-116.5 -113.5t-164 -88.5t-219.5 -36l-48 -113h46q34 0 70 -6.5t65.5 -22t48.5 -40.5t19 -63q0 -43 -27.5 -77t-69 -57.5t-92.5 -35.5t-99 -12 q-44 0 -89.5 8.5t-99.5 26.5l46 79q38 -14 74.5 -22t58.5 -8q26 0 43 7.5t27.5 19t15 25t4.5 28.5q0 34 -21.5 46t-47.5 12q-18 0 -32.5 -3t-28.5 -7l-34 23l88 196q-157 13 -273.5 72.5t-193.5 149.5t-115 204t-38 237z" unicode="Ç"/><glyph d="M43 0v78q62 0 99 9.5t56.5 34t26 64.5t6.5 101v758q0 62 -5 102t-24.5 63.5t-57 32.5t-101.5 9v76h1061l15 -357h-75q-17 64 -32 110t-40.5 75t-69 43t-117.5 14h-248v-480h119q61 0 98.5 14.5t60 43t33.5 71.5t19 101h78v-555h-78q-8 58 -19 98.5t-33 66t-59 36.5 t-100 11h-119v-346q0 -39 2 -69t13 -50.5t33 -31.5t64 -11h105q87 0 144 16t99 49.5t75.5 85.5t73.5 122h81l-136 -385h-1048zM280 1752q0 43 25.5 73t69.5 30q39 0 76 -19t71 -58l261 -308h-127l-279 164q-49 30 -73 57t-24 61z" horiz-adv-x="1319" unicode="È"/><glyph d="M43 0v78q62 0 99 9.5t56.5 34t26 64.5t6.5 101v758q0 62 -5 102t-24.5 63.5t-57 32.5t-101.5 9v76h1061l15 -357h-75q-17 64 -32 110t-40.5 75t-69 43t-117.5 14h-248v-480h119q61 0 98.5 14.5t60 43t33.5 71.5t19 101h78v-555h-78q-8 58 -19 98.5t-33 66t-59 36.5 t-100 11h-119v-346q0 -39 2 -69t13 -50.5t33 -31.5t64 -11h105q87 0 144 16t99 49.5t75.5 85.5t73.5 122h81l-136 -385h-1048zM488 1470l290 355q12 14 31 22t41 8q44 0 75 -30t31 -73q0 -22 -6.5 -42.5t-25.5 -31.5l-335 -208h-101z" horiz-adv-x="1319" unicode="É"/><glyph d="M43 0v78q62 0 99 9.5t56.5 34t26 64.5t6.5 101v758q0 62 -5 102t-24.5 63.5t-57 32.5t-101.5 9v76h1061l15 -357h-75q-17 64 -32 110t-40.5 75t-69 43t-117.5 14h-248v-480h119q61 0 98.5 14.5t60 43t33.5 71.5t19 101h78v-555h-78q-8 58 -19 98.5t-33 66t-59 36.5 t-100 11h-119v-346q0 -39 2 -69t13 -50.5t33 -31.5t64 -11h105q87 0 144 16t99 49.5t75.5 85.5t73.5 122h81l-136 -385h-1048zM272 1455l250 369h187l248 -369h-82l-260 195l-260 -195h-83z" horiz-adv-x="1319" unicode="Ê"/><glyph d="M43 0v78q62 0 99 9.5t56.5 34t26 64.5t6.5 101v758q0 62 -5 102t-24.5 63.5t-57 32.5t-101.5 9v76h1061l15 -357h-75q-17 64 -32 110t-40.5 75t-69 43t-117.5 14h-248v-480h119q61 0 98.5 14.5t60 43t33.5 71.5t19 101h78v-555h-78q-8 58 -19 98.5t-33 66t-59 36.5 t-100 11h-119v-346q0 -39 2 -69t13 -50.5t33 -31.5t64 -11h105q87 0 144 16t99 49.5t75.5 85.5t73.5 122h81l-136 -385h-1048zM294 1663q0 27 10.5 51t28 41.5t41.5 28t51 10.5t51.5 -10.5t42 -28t28 -41.5t10.5 -51t-10.5 -51.5t-28 -42t-41.5 -28t-52 -10.5 q-27 0 -51 10.5t-41.5 28t-28 41.5t-10.5 52zM664 1663q0 27 10.5 51t28 41.5t41.5 28t52 10.5q27 0 51 -10.5t41.5 -28t28 -41.5t10.5 -51t-10.5 -51.5t-28 -42t-41.5 -28t-51 -10.5t-51.5 10.5t-42 28t-28 41.5t-10.5 52z" horiz-adv-x="1319" unicode="Ë"/><glyph d="M3 1752q0 43 25.5 73t69.5 30q39 0 76 -19t71 -58l261 -308h-127l-279 164q-49 30 -73 57t-24 61zM40 0v78q60 0 97 8t57 27.5t27.5 52.5t7.5 84v816q0 51 -7.5 86.5t-27.5 57t-57 31t-97 9.5v78h684v-78q-60 0 -97 -9.5t-57 -31t-26.5 -57t-6.5 -86.5v-816 q0 -51 6.5 -84t26.5 -52.5t57 -27.5t97 -8v-78h-684z" horiz-adv-x="764" unicode="Ì"/><glyph d="M40 0v78q60 0 97 8t57 27.5t27.5 52.5t7.5 84v816q0 51 -7.5 86.5t-27.5 57t-57 31t-97 9.5v78h684v-78q-60 0 -97 -9.5t-57 -31t-26.5 -57t-6.5 -86.5v-816q0 -51 6.5 -84t26.5 -52.5t57 -27.5t97 -8v-78h-684zM211 1470l290 355q12 14 31 22t41 8q44 0 75 -30t31 -73 q0 -22 -6.5 -42.5t-25.5 -31.5l-335 -208h-101z" horiz-adv-x="764" unicode="Í"/><glyph d="M40 0v78q60 0 97 8t57 27.5t27.5 52.5t7.5 84v816q0 51 -7.5 86.5t-27.5 57t-57 31t-97 9.5v78h684v-78q-60 0 -97 -9.5t-57 -31t-26.5 -57t-6.5 -86.5v-816q0 -51 6.5 -84t26.5 -52.5t57 -27.5t97 -8v-78h-684zM40 1455l250 369h187l248 -369h-82l-260 195l-260 -195 h-83z" horiz-adv-x="764" unicode="Î"/><glyph d="M40 0v78q60 0 97 8t57 27.5t27.5 52.5t7.5 84v816q0 51 -7.5 86.5t-27.5 57t-57 31t-97 9.5v78h684v-78q-60 0 -97 -9.5t-57 -31t-26.5 -57t-6.5 -86.5v-816q0 -51 6.5 -84t26.5 -52.5t57 -27.5t97 -8v-78h-684zM73 1663q0 27 10.5 51t28 41.5t41.5 28t51 10.5 t51.5 -10.5t42 -28t28 -41.5t10.5 -51t-10.5 -51.5t-28 -42t-41.5 -28t-52 -10.5q-27 0 -51 10.5t-41.5 28t-28 41.5t-10.5 52zM443 1663q0 27 10.5 51t28 41.5t41.5 28t52 10.5q27 0 51 -10.5t41.5 -28t28 -41.5t10.5 -51t-10.5 -51.5t-28 -42t-41.5 -28t-51 -10.5 t-51.5 10.5t-42 28t-28 41.5t-10.5 52z" horiz-adv-x="764" unicode="Ï"/><glyph d="M27 0v78h54q44 0 70 11.5t40 35t18.5 58t4.5 80.5v373h-187v135h187v295q0 45 -5 81.5t-21 60.5q-27 43 -98 42h-63v78h664q97 0 182 -20.5t155 -58.5q78 -43 139 -104t103 -136.5t63 -162.5t21 -182q0 -142 -44.5 -263.5t-130 -210.5t-209 -139.5t-279.5 -50.5h-664z M524 133q17 -10 50 -15t75 -5q103 0 170 49t107.5 127.5t57.5 177t17 197.5q0 95 -18.5 192.5t-64.5 177t-123.5 129.5t-193.5 50q-18 0 -32 -1t-24 -2q-12 -1 -21 -2v-437h301v-135h-301v-503z" horiz-adv-x="1436" unicode="Ð"/><glyph d="M32 0v78q47 0 79 5t53 21t30 43.5t9 73.5v919q-30 39 -48.5 61t-34.5 33t-35.5 14.5t-52.5 3.5v76h437l624 -808v587q0 44 -7.5 72.5t-26 44t-51 21t-80.5 5.5v78h439v-78q-47 0 -76 -5.5t-45 -21t-22.5 -43.5t-6.5 -73v-1128h-115l-776 1004v-762q0 -45 10 -73t30.5 -44 t54.5 -21t83 -5v-78h-472zM367 1522q8 61 30.5 113t56.5 90t76 58.5t88 20.5q45 0 81.5 -14t69 -30.5t64 -30.5t67.5 -14t60 22t34 76h77q-3 -62 -20 -114t-47.5 -89t-70.5 -58t-85 -21q-55 0 -89.5 14.5t-63.5 32t-59.5 32.5t-76.5 15q-18 0 -37.5 -8t-35 -22t-26 -33 t-10.5 -40h-83z" horiz-adv-x="1453" unicode="Ñ"/><glyph d="M71 664q0 144 53 271t147 220.5t223.5 147.5t281.5 54q164 0 295 -55t223 -150t140.5 -220.5t48.5 -267.5q0 -139 -48.5 -265t-139.5 -221.5t-222 -152t-294 -56.5q-164 0 -295.5 56t-223 150.5t-140.5 221.5t-49 267zM425 672q0 -57 6.5 -124.5t23 -134.5t42.5 -129 t65 -109.5t91.5 -76t122.5 -28.5q104 0 172 56.5t108.5 143.5t57 190.5t16.5 197.5q0 66 -7.5 136t-23 137t-42 126.5t-66.5 104t-93 70.5t-122 26t-122 -26t-92 -70t-65 -102.5t-42.5 -123.5t-23 -133.5t-6.5 -130.5zM426 1752q0 43 25.5 73t69.5 30q39 0 76 -19t71 -58 l261 -308h-127l-279 164q-49 30 -73 57t-24 61z" horiz-adv-x="1554" unicode="Ò"/><glyph d="M71 664q0 144 53 271t147 220.5t223.5 147.5t281.5 54q164 0 295 -55t223 -150t140.5 -220.5t48.5 -267.5q0 -139 -48.5 -265t-139.5 -221.5t-222 -152t-294 -56.5q-164 0 -295.5 56t-223 150.5t-140.5 221.5t-49 267zM425 672q0 -57 6.5 -124.5t23 -134.5t42.5 -129 t65 -109.5t91.5 -76t122.5 -28.5q104 0 172 56.5t108.5 143.5t57 190.5t16.5 197.5q0 66 -7.5 136t-23 137t-42 126.5t-66.5 104t-93 70.5t-122 26t-122 -26t-92 -70t-65 -102.5t-42.5 -123.5t-23 -133.5t-6.5 -130.5zM557 1470l290 355q12 14 31 22t41 8q44 0 75 -30 t31 -73q0 -22 -6.5 -42.5t-25.5 -31.5l-335 -208h-101z" horiz-adv-x="1554" unicode="Ó"/><glyph d="M71 664q0 144 53 271t147 220.5t223.5 147.5t281.5 54q164 0 295 -55t223 -150t140.5 -220.5t48.5 -267.5q0 -139 -48.5 -265t-139.5 -221.5t-222 -152t-294 -56.5q-164 0 -295.5 56t-223 150.5t-140.5 221.5t-49 267zM425 672q0 -57 6.5 -124.5t23 -134.5t42.5 -129 t65 -109.5t91.5 -76t122.5 -28.5q104 0 172 56.5t108.5 143.5t57 190.5t16.5 197.5q0 66 -7.5 136t-23 137t-42 126.5t-66.5 104t-93 70.5t-122 26t-122 -26t-92 -70t-65 -102.5t-42.5 -123.5t-23 -133.5t-6.5 -130.5zM434 1455l250 369h187l248 -369h-82l-260 195 l-260 -195h-83z" horiz-adv-x="1554" unicode="Ô"/><glyph d="M71 664q0 144 53 271t147 220.5t223.5 147.5t281.5 54q164 0 295 -55t223 -150t140.5 -220.5t48.5 -267.5q0 -139 -48.5 -265t-139.5 -221.5t-222 -152t-294 -56.5q-164 0 -295.5 56t-223 150.5t-140.5 221.5t-49 267zM425 672q0 -57 6.5 -124.5t23 -134.5t42.5 -129 t65 -109.5t91.5 -76t122.5 -28.5q104 0 172 56.5t108.5 143.5t57 190.5t16.5 197.5q0 66 -7.5 136t-23 137t-42 126.5t-66.5 104t-93 70.5t-122 26t-122 -26t-92 -70t-65 -102.5t-42.5 -123.5t-23 -133.5t-6.5 -130.5zM435 1522q8 61 30.5 113t56.5 90t76 58.5t88 20.5 q45 0 81.5 -14t69 -30.5t64 -30.5t67.5 -14t60 22t34 76h77q-3 -62 -20 -114t-47.5 -89t-70.5 -58t-85 -21q-55 0 -89.5 14.5t-63.5 32t-59.5 32.5t-76.5 15q-18 0 -37.5 -8t-35 -22t-26 -33t-10.5 -40h-83z" horiz-adv-x="1554" unicode="Õ"/><glyph d="M71 664q0 144 53 271t147 220.5t223.5 147.5t281.5 54q164 0 295 -55t223 -150t140.5 -220.5t48.5 -267.5q0 -139 -48.5 -265t-139.5 -221.5t-222 -152t-294 -56.5q-164 0 -295.5 56t-223 150.5t-140.5 221.5t-49 267zM425 672q0 -57 6.5 -124.5t23 -134.5t42.5 -129 t65 -109.5t91.5 -76t122.5 -28.5q104 0 172 56.5t108.5 143.5t57 190.5t16.5 197.5q0 66 -7.5 136t-23 137t-42 126.5t-66.5 104t-93 70.5t-122 26t-122 -26t-92 -70t-65 -102.5t-42.5 -123.5t-23 -133.5t-6.5 -130.5zM454 1663q0 27 10.5 51t28 41.5t41.5 28t51 10.5 t51.5 -10.5t42 -28t28 -41.5t10.5 -51t-10.5 -51.5t-28 -42t-41.5 -28t-52 -10.5q-27 0 -51 10.5t-41.5 28t-28 41.5t-10.5 52zM824 1663q0 27 10.5 51t28 41.5t41.5 28t52 10.5q27 0 51 -10.5t41.5 -28t28 -41.5t10.5 -51t-10.5 -51.5t-28 -42t-41.5 -28t-51 -10.5 t-51.5 10.5t-42 28t-28 41.5t-10.5 52z" horiz-adv-x="1554" unicode="Ö"/><glyph d="M165 156l420 422l-419 420l99 99l421 -422l423 423l99 -98l-422 -422l422 -422l-99 -99l-423 428l-422 -428z" horiz-adv-x="1380" unicode="×"/><glyph d="M75 664q0 144 56 271t151.5 220.5t224.5 147.5t273 54q118 0 226 -35.5t198 -100.5l130 150l78 -70l-130 -148q96 -94 150.5 -219.5t54.5 -269.5t-56 -271t-152.5 -220.5t-225.5 -147.5t-273 -54q-114 0 -218 34t-192 95l-124 -147l-77 69l122 144q-100 94 -158 222 t-58 276zM429 664q0 -74 7 -151.5t25 -149.5l607 700q-19 48 -46.5 89t-63 70.5t-80 45.5t-98.5 16q-70 0 -123 -26.5t-92 -72t-65 -106.5t-42 -130t-22.5 -142.5t-6.5 -142.5zM499 248q40 -90 108.5 -147t172.5 -57q69 0 122 26.5t93 72t66.5 107t42 130t22.5 141.5t7 143 t-6.5 141.5t-22.5 140.5z" horiz-adv-x="1562" unicode="Ø"/><glyph d="M-4 1250v78h681v-78q-60 0 -97.5 -7.5t-58.5 -27t-28.5 -52.5t-7.5 -84v-584q0 -109 16 -185.5t50 -125t86 -69.5t122 -21q78 0 140 21t107 71q55 58 79 149t24 232v525q0 51 -8 82t-29.5 48t-58.5 22.5t-97 5.5v78h503v-78q-55 0 -91 -8t-57.5 -27t-30 -49.5t-8.5 -73.5 v-563q0 -118 -26.5 -220t-87 -177t-158.5 -118t-241 -43q-174 0 -281 40.5t-164.5 118t-77 189t-19.5 254.5v506q0 51 -6 84t-25 52.5t-54.5 27t-95.5 7.5zM397 1752q0 43 25.5 73t69.5 30q39 0 76 -19t71 -58l261 -308h-127l-279 164q-49 30 -73 57t-24 61z" unicode="Ù"/><glyph d="M-4 1250v78h681v-78q-60 0 -97.5 -7.5t-58.5 -27t-28.5 -52.5t-7.5 -84v-584q0 -109 16 -185.5t50 -125t86 -69.5t122 -21q78 0 140 21t107 71q55 58 79 149t24 232v525q0 51 -8 82t-29.5 48t-58.5 22.5t-97 5.5v78h503v-78q-55 0 -91 -8t-57.5 -27t-30 -49.5t-8.5 -73.5 v-563q0 -118 -26.5 -220t-87 -177t-158.5 -118t-241 -43q-174 0 -281 40.5t-164.5 118t-77 189t-19.5 254.5v506q0 51 -6 84t-25 52.5t-54.5 27t-95.5 7.5zM605 1470l290 355q12 14 31 22t41 8q44 0 75 -30t31 -73q0 -22 -6.5 -42.5t-25.5 -31.5l-335 -208h-101z" unicode="Ú"/><glyph d="M-4 1250v78h681v-78q-60 0 -97.5 -7.5t-58.5 -27t-28.5 -52.5t-7.5 -84v-584q0 -109 16 -185.5t50 -125t86 -69.5t122 -21q78 0 140 21t107 71q55 58 79 149t24 232v525q0 51 -8 82t-29.5 48t-58.5 22.5t-97 5.5v78h503v-78q-55 0 -91 -8t-57.5 -27t-30 -49.5t-8.5 -73.5 v-563q0 -118 -26.5 -220t-87 -177t-158.5 -118t-241 -43q-174 0 -281 40.5t-164.5 118t-77 189t-19.5 254.5v506q0 51 -6 84t-25 52.5t-54.5 27t-95.5 7.5zM389 1455l250 369h187l248 -369h-82l-260 195l-260 -195h-83z" unicode="Û"/><glyph d="M-4 1250v78h681v-78q-60 0 -97.5 -7.5t-58.5 -27t-28.5 -52.5t-7.5 -84v-584q0 -109 16 -185.5t50 -125t86 -69.5t122 -21q78 0 140 21t107 71q55 58 79 149t24 232v525q0 51 -8 82t-29.5 48t-58.5 22.5t-97 5.5v78h503v-78q-55 0 -91 -8t-57.5 -27t-30 -49.5t-8.5 -73.5 v-563q0 -118 -26.5 -220t-87 -177t-158.5 -118t-241 -43q-174 0 -281 40.5t-164.5 118t-77 189t-19.5 254.5v506q0 51 -6 84t-25 52.5t-54.5 27t-95.5 7.5zM411 1663q0 27 10.5 51t28 41.5t41.5 28t51 10.5t51.5 -10.5t42 -28t28 -41.5t10.5 -51t-10.5 -51.5t-28 -42 t-41.5 -28t-52 -10.5q-27 0 -51 10.5t-41.5 28t-28 41.5t-10.5 52zM781 1663q0 27 10.5 51t28 41.5t41.5 28t52 10.5q27 0 51 -10.5t41.5 -28t28 -41.5t10.5 -51t-10.5 -51.5t-28 -42t-41.5 -28t-51 -10.5t-51.5 10.5t-42 28t-28 41.5t-10.5 52z" unicode="Ü"/><glyph d="M17 1250v78h637v-78q-70 0 -107 -11.5t-37 -41.5q0 -16 15.5 -49t51 -93.5t94.5 -152.5t147 -226l235 400q21 34 30.5 64.5t9.5 54.5q0 26 -28.5 40.5t-98.5 14.5v78h460v-78q-34 0 -61.5 -5.5t-56.5 -29t-63 -69t-80 -124.5l-286 -485v-287q0 -51 11 -84t36 -52.5 t67 -27.5t101 -8v-78h-744v78q60 0 101.5 8t68 27.5t38 52.5t11.5 84v235l-334 564q-34 56 -60 95t-50.5 62.5t-50 33.5t-57.5 10zM596 1470l290 355q12 14 31 22t41 8q44 0 75 -30t31 -73q0 -22 -6.5 -42.5t-25.5 -31.5l-335 -208h-101z" unicode="Ý"/><glyph d="M36 0v78h35q70 0 97.5 39t27.5 118v858q0 34 -5.5 63t-20 50t-38 32.5t-58.5 11.5h-38v78h632v-78h-41q-47 0 -76.5 -11.5t-45.5 -32.5t-22.5 -50t-6.5 -63v-65h204q100 0 182 -24t139.5 -69.5t89.5 -113t32 -154.5q0 -90 -31 -159t-89.5 -115t-141 -70t-185.5 -24h-200 v-60q0 -35 4.5 -64t20 -50.5t45.5 -34t81 -12.5h41v-78h-632zM476 403h57q78 0 134 21t91 56.5t51 83t16 100.5q0 55 -18.5 102.5t-52 82.5t-79.5 55t-100 20h-99v-521z" horiz-adv-x="1198" unicode="Þ"/><glyph d="M35 0v36q38 1 62.5 9t39.5 28.5t21 55.5t6 91v729q0 118 29 203t83.5 138.5t134 79t179.5 25.5q108 0 189 -23.5t136 -65t83 -101t28 -129.5q0 -38 -11.5 -77.5t-38.5 -76t-73 -67.5t-115 -50q157 -36 243 -132t86 -260q0 -84 -29 -161t-82 -135.5t-128 -93.5t-166 -35 q-51 0 -92.5 14t-71 38.5t-46.5 58.5t-17 74q0 34 11 59t28 42.5t37.5 26t40.5 8.5q29 0 49.5 -9.5t33.5 -24t19 -33t6 -35.5q0 -6 -2 -18t-4 -24.5t-4 -23t-2 -14.5q0 -22 9.5 -33.5t34.5 -11.5q35 0 64.5 56t29.5 169q0 91 -15 166.5t-47.5 131t-85 89t-126.5 39.5v82 q79 0 131.5 67.5t52.5 198.5q0 56 -13 98t-35.5 68.5t-52 39.5t-61.5 13q-34 0 -60.5 -15t-44.5 -49t-27 -88.5t-9 -132.5v-1015h-408z" horiz-adv-x="1181" unicode="ß"/><glyph d="M71 213q0 74 51.5 134t126.5 106.5t159.5 82t150.5 58.5v36q0 45 -7 84t-21.5 66.5t-37 43.5t-54.5 16q-51 0 -73 -29.5t-22 -112.5q0 -22 -6.5 -46t-21 -43.5t-39.5 -32.5t-63 -13q-55 0 -87.5 32.5t-32.5 89.5t35.5 102t90 75.5t119 46t121.5 15.5q104 0 177 -16 t118.5 -53t65.5 -95.5t20 -142.5v-266q0 -38 0.5 -78t4.5 -66q3 -18 12 -33t31 -15q10 0 26 7.5t31.5 18t29 21.5t20.5 19v-95q-13 -16 -42 -40.5t-67 -48.5t-84.5 -41.5t-94.5 -17.5q-31 0 -58 11t-47.5 30t-32 43t-11.5 51q-32 -27 -64 -52t-66 -43.5t-71 -29t-79 -10.5 q-100 0 -154 61t-54 170zM192 1333q0 43 25.5 73t69.5 30q39 0 76 -19t71 -58l261 -308h-127l-279 164q-49 30 -73 57t-24 61zM347 259q0 -42 21 -73t60 -31q32 0 66.5 23t64.5 56v266q-62 -27 -103 -56t-65 -59t-34 -62t-10 -64z" horiz-adv-x="995" unicode="à"/><glyph d="M71 213q0 74 51.5 134t126.5 106.5t159.5 82t150.5 58.5v36q0 45 -7 84t-21.5 66.5t-37 43.5t-54.5 16q-51 0 -73 -29.5t-22 -112.5q0 -22 -6.5 -46t-21 -43.5t-39.5 -32.5t-63 -13q-55 0 -87.5 32.5t-32.5 89.5t35.5 102t90 75.5t119 46t121.5 15.5q104 0 177 -16 t118.5 -53t65.5 -95.5t20 -142.5v-266q0 -38 0.5 -78t4.5 -66q3 -18 12 -33t31 -15q10 0 26 7.5t31.5 18t29 21.5t20.5 19v-95q-13 -16 -42 -40.5t-67 -48.5t-84.5 -41.5t-94.5 -17.5q-31 0 -58 11t-47.5 30t-32 43t-11.5 51q-32 -27 -64 -52t-66 -43.5t-71 -29t-79 -10.5 q-100 0 -154 61t-54 170zM297 1051l290 355q12 14 31 22t41 8q44 0 75 -30t31 -73q0 -22 -6.5 -42.5t-25.5 -31.5l-335 -208h-101zM347 259q0 -42 21 -73t60 -31q32 0 66.5 23t64.5 56v266q-62 -27 -103 -56t-65 -59t-34 -62t-10 -64z" horiz-adv-x="995" unicode="á"/><glyph d="M71 213q0 74 51.5 134t126.5 106.5t159.5 82t150.5 58.5v36q0 45 -7 84t-21.5 66.5t-37 43.5t-54.5 16q-51 0 -73 -29.5t-22 -112.5q0 -22 -6.5 -46t-21 -43.5t-39.5 -32.5t-63 -13q-55 0 -87.5 32.5t-32.5 89.5t35.5 102t90 75.5t119 46t121.5 15.5q104 0 177 -16 t118.5 -53t65.5 -95.5t20 -142.5v-266q0 -38 0.5 -78t4.5 -66q3 -18 12 -33t31 -15q10 0 26 7.5t31.5 18t29 21.5t20.5 19v-95q-13 -16 -42 -40.5t-67 -48.5t-84.5 -41.5t-94.5 -17.5q-31 0 -58 11t-47.5 30t-32 43t-11.5 51q-32 -27 -64 -52t-66 -43.5t-71 -29t-79 -10.5 q-100 0 -154 61t-54 170zM147 1036l250 369h187l248 -369h-82l-260 195l-260 -195h-83zM347 259q0 -42 21 -73t60 -31q32 0 66.5 23t64.5 56v266q-62 -27 -103 -56t-65 -59t-34 -62t-10 -64z" horiz-adv-x="995" unicode="â"/><glyph d="M71 213q0 74 51.5 134t126.5 106.5t159.5 82t150.5 58.5v36q0 45 -7 84t-21.5 66.5t-37 43.5t-54.5 16q-51 0 -73 -29.5t-22 -112.5q0 -22 -6.5 -46t-21 -43.5t-39.5 -32.5t-63 -13q-55 0 -87.5 32.5t-32.5 89.5t35.5 102t90 75.5t119 46t121.5 15.5q104 0 177 -16 t118.5 -53t65.5 -95.5t20 -142.5v-266q0 -38 0.5 -78t4.5 -66q3 -18 12 -33t31 -15q10 0 26 7.5t31.5 18t29 21.5t20.5 19v-95q-13 -16 -42 -40.5t-67 -48.5t-84.5 -41.5t-94.5 -17.5q-31 0 -58 11t-47.5 30t-32 43t-11.5 51q-32 -27 -64 -52t-66 -43.5t-71 -29t-79 -10.5 q-100 0 -154 61t-54 170zM136 1103q8 61 30.5 113t56.5 90t76 58.5t88 20.5q45 0 81.5 -14t69 -30.5t64 -30.5t67.5 -14t60 22t34 76h77q-3 -62 -20 -114t-47.5 -89t-70.5 -58t-85 -21q-55 0 -89.5 14.5t-63.5 32t-59.5 32.5t-76.5 15q-18 0 -37.5 -8t-35 -22t-26 -33 t-10.5 -40h-83zM347 259q0 -42 21 -73t60 -31q32 0 66.5 23t64.5 56v266q-62 -27 -103 -56t-65 -59t-34 -62t-10 -64z" horiz-adv-x="995" unicode="ã"/><glyph d="M71 213q0 74 51.5 134t126.5 106.5t159.5 82t150.5 58.5v36q0 45 -7 84t-21.5 66.5t-37 43.5t-54.5 16q-51 0 -73 -29.5t-22 -112.5q0 -22 -6.5 -46t-21 -43.5t-39.5 -32.5t-63 -13q-55 0 -87.5 32.5t-32.5 89.5t35.5 102t90 75.5t119 46t121.5 15.5q104 0 177 -16 t118.5 -53t65.5 -95.5t20 -142.5v-266q0 -38 0.5 -78t4.5 -66q3 -18 12 -33t31 -15q10 0 26 7.5t31.5 18t29 21.5t20.5 19v-95q-13 -16 -42 -40.5t-67 -48.5t-84.5 -41.5t-94.5 -17.5q-31 0 -58 11t-47.5 30t-32 43t-11.5 51q-32 -27 -64 -52t-66 -43.5t-71 -29t-79 -10.5 q-100 0 -154 61t-54 170zM155 1244q0 27 10.5 51t28 41.5t41.5 28t51 10.5t51.5 -10.5t42 -28t28 -41.5t10.5 -51t-10.5 -51.5t-28 -42t-41.5 -28t-52 -10.5q-27 0 -51 10.5t-41.5 28t-28 41.5t-10.5 52zM347 259q0 -42 21 -73t60 -31q32 0 66.5 23t64.5 56v266 q-62 -27 -103 -56t-65 -59t-34 -62t-10 -64zM525 1244q0 27 10.5 51t28 41.5t41.5 28t52 10.5q27 0 51 -10.5t41.5 -28t28 -41.5t10.5 -51t-10.5 -51.5t-28 -42t-41.5 -28t-51 -10.5t-51.5 10.5t-42 28t-28 41.5t-10.5 52z" horiz-adv-x="995" unicode="ä"/><glyph d="M71 213q0 74 51.5 134t126.5 106.5t159.5 82t150.5 58.5v36q0 45 -7 84t-21.5 66.5t-37 43.5t-54.5 16q-51 0 -73 -29.5t-22 -112.5q0 -22 -6.5 -46t-21 -43.5t-39.5 -32.5t-63 -13q-55 0 -87.5 32.5t-32.5 89.5t35.5 102t90 75.5t119 46t121.5 15.5q104 0 177 -16 t118.5 -53t65.5 -95.5t20 -142.5v-266q0 -38 0.5 -78t4.5 -66q3 -18 12 -33t31 -15q10 0 26 7.5t31.5 18t29 21.5t20.5 19v-95q-13 -16 -42 -40.5t-67 -48.5t-84.5 -41.5t-94.5 -17.5q-31 0 -58 11t-47.5 30t-32 43t-11.5 51q-32 -27 -64 -52t-66 -43.5t-71 -29t-79 -10.5 q-100 0 -154 61t-54 170zM279 1258q0 43 16 80t44 65t66 44t81 16t80.5 -16t65.5 -44t44 -65t16 -80t-16 -80.5t-44 -65.5t-65.5 -44.5t-80.5 -16.5t-81 16.5t-66 44.5t-44 65.5t-16 80.5zM347 259q0 -42 21 -73t60 -31q32 0 66.5 23t64.5 56v266q-62 -27 -103 -56t-65 -59 t-34 -62t-10 -64zM378 1258q0 -23 8.5 -43t22.5 -34.5t34.5 -23t42.5 -8.5t41.5 8.5t34.5 23t23.5 34.5t8.5 43q0 44 -31.5 76t-76.5 32t-76.5 -32t-31.5 -76z" horiz-adv-x="995" unicode="å"/><glyph d="M71 213q0 74 51.5 134t126.5 106.5t159.5 82t150.5 58.5v36q0 45 -7 84t-21.5 66.5t-37 43.5t-54.5 16q-31 0 -50 -12t-28.5 -28t-12 -33t-2.5 -27v-17.5t-1 -8t-1 -5.5v-11q0 -22 -6.5 -46t-21 -43.5t-39.5 -32.5t-63 -13q-55 0 -87.5 32.5t-32.5 89.5t35.5 102t90 75.5 t119 46t121.5 15.5q61 0 108 -4.5t82.5 -14t62.5 -24t47 -32.5q42 30 100.5 53t132.5 23q70 0 134 -21t112.5 -68.5t77 -123t28.5 -182.5h-560v-39q0 -43 19.5 -96.5t57 -102t92.5 -81t125 -32.5q65 0 117 39t92 138l57 -25q-14 -68 -44 -132.5t-76.5 -115.5t-111 -82 t-149.5 -31q-75 0 -128.5 17t-91 41.5t-61 52t-38.5 48.5q-21 -14 -58 -39t-86 -49t-106 -41.5t-116 -17.5q-100 0 -154 61t-54 170zM347 259q0 -42 24 -73t83 -31q32 0 70.5 18.5t70.5 52.5q-8 25 -22 76.5t-14 147.5v52q-62 -27 -102.5 -56.5t-65 -60t-34.5 -62.5t-10 -64 zM784 615h299q0 30 -8.5 67t-27.5 69.5t-50 54.5t-77 22q-26 0 -50.5 -15t-43.5 -43t-30.5 -67.5t-11.5 -87.5z" horiz-adv-x="1406" unicode="æ"/><glyph d="M48 413q0 117 35 211.5t93 160.5t132.5 102.5t155.5 36.5q95 0 161 -24.5t108 -60.5t61.5 -77.5t19.5 -75.5q0 -55 -29.5 -88.5t-89.5 -33.5q-49 0 -75 19.5t-39 49t-21 63.5t-21.5 63.5t-39.5 49t-77 19.5q-71 0 -110.5 -57t-39.5 -168q0 -90 22 -167t61 -134.5 t93.5 -90t119.5 -32.5q23 0 50.5 6t55 25t54 54t49.5 92l57 -25q-13 -60 -37 -117.5t-62 -106.5t-90 -83t-120 -47l-53 -124h45q34 0 70.5 -6.5t65.5 -22t48 -40.5t19 -63q0 -43 -27 -77t-69 -57.5t-92.5 -35.5t-98.5 -12q-44 0 -89.5 8t-100.5 27l47 79q38 -14 74 -22 t58 -8q26 0 43 7t27.5 19t15 25.5t4.5 27.5q0 34 -21.5 46.5t-47.5 12.5q-18 0 -32.5 -3.5t-28.5 -7.5l-34 24l89 197q-88 3 -160 38t-122.5 94t-78.5 139t-28 171z" horiz-adv-x="891" unicode="ç"/><glyph d="M66 450q0 109 38.5 197.5t100 150t139.5 94.5t159 33q70 0 134 -21t112 -68.5t76 -123t28 -182.5h-562q0 -62 19.5 -125t58 -113t93 -81.5t124.5 -31.5q65 0 117 39t92 138l58 -25q-14 -68 -43.5 -132.5t-76.5 -115.5t-112 -82t-150 -31q-96 0 -171.5 34.5t-127.5 98 t-79 151.5t-27 196zM198 1323q0 43 25.5 73t69.5 30q39 0 76 -19t71 -58l261 -308h-127l-279 164q-49 30 -73 57t-24 61zM290 615h300q0 30 -7.5 67t-26.5 69.5t-49.5 54.5t-76.5 22q-26 0 -51 -15t-45.5 -43t-32 -67.5t-11.5 -87.5z" horiz-adv-x="909" unicode="è"/><glyph d="M66 450q0 109 38.5 197.5t100 150t139.5 94.5t159 33q70 0 134 -21t112 -68.5t76 -123t28 -182.5h-562q0 -62 19.5 -125t58 -113t93 -81.5t124.5 -31.5q65 0 117 39t92 138l58 -25q-14 -68 -43.5 -132.5t-76.5 -115.5t-112 -82t-150 -31q-96 0 -171.5 34.5t-127.5 98 t-79 151.5t-27 196zM290 615h300q0 30 -7.5 67t-26.5 69.5t-49.5 54.5t-76.5 22q-26 0 -51 -15t-45.5 -43t-32 -67.5t-11.5 -87.5zM328 1041l290 355q12 14 31 22t41 8q44 0 75 -30t31 -73q0 -22 -6.5 -42.5t-25.5 -31.5l-335 -208h-101z" horiz-adv-x="909" unicode="é"/><glyph d="M66 450q0 109 38.5 197.5t100 150t139.5 94.5t159 33q70 0 134 -21t112 -68.5t76 -123t28 -182.5h-562q0 -62 19.5 -125t58 -113t93 -81.5t124.5 -31.5q65 0 117 39t92 138l58 -25q-14 -68 -43.5 -132.5t-76.5 -115.5t-112 -82t-150 -31q-96 0 -171.5 34.5t-127.5 98 t-79 151.5t-27 196zM151 1026l250 369h187l248 -369h-82l-260 195l-260 -195h-83zM290 615h300q0 30 -7.5 67t-26.5 69.5t-49.5 54.5t-76.5 22q-26 0 -51 -15t-45.5 -43t-32 -67.5t-11.5 -87.5z" horiz-adv-x="909" unicode="ê"/><glyph d="M66 450q0 109 38.5 197.5t100 150t139.5 94.5t159 33q70 0 134 -21t112 -68.5t76 -123t28 -182.5h-562q0 -62 19.5 -125t58 -113t93 -81.5t124.5 -31.5q65 0 117 39t92 138l58 -25q-14 -68 -43.5 -132.5t-76.5 -115.5t-112 -82t-150 -31q-96 0 -171.5 34.5t-127.5 98 t-79 151.5t-27 196zM160 1234q0 27 10.5 51t28 41.5t41.5 28t51 10.5t51.5 -10.5t42 -28t28 -41.5t10.5 -51t-10.5 -51.5t-28 -42t-41.5 -28t-52 -10.5q-27 0 -51 10.5t-41.5 28t-28 41.5t-10.5 52zM290 615h300q0 30 -7.5 67t-26.5 69.5t-49.5 54.5t-76.5 22q-26 0 -51 -15 t-45.5 -43t-32 -67.5t-11.5 -87.5zM530 1234q0 27 10.5 51t28 41.5t41.5 28t52 10.5q27 0 51 -10.5t41.5 -28t28 -41.5t10.5 -51t-10.5 -51.5t-28 -42t-41.5 -28t-51 -10.5t-51.5 10.5t-42 28t-28 41.5t-10.5 52z" horiz-adv-x="909" unicode="ë"/><glyph d="M20 1323q0 43 25.5 73t69.5 30q39 0 76 -19t71 -58l261 -308h-127l-279 164q-49 30 -73 57t-24 61zM48 815l364 109h78v-708q0 -43 5 -69.5t17.5 -42.5t33.5 -21t52 -5v-78h-498v78q35 0 56.5 6t33 21t16.5 42t5 70v407q0 78 -12 105t-43 27q-17 0 -41.5 -3.5 t-43.5 -10.5z" horiz-adv-x="630" unicode="ì"/><glyph d="M48 815l364 109h78v-708q0 -43 5 -69.5t17.5 -42.5t33.5 -21t52 -5v-78h-498v78q35 0 56.5 6t33 21t16.5 42t5 70v407q0 78 -12 105t-43 27q-17 0 -41.5 -3.5t-43.5 -10.5zM172 1041l290 355q12 14 31 22t41 8q44 0 75 -30t31 -73q0 -22 -6.5 -42.5t-25.5 -31.5 l-335 -208h-101z" horiz-adv-x="630" unicode="í"/><glyph d="M4 1026l250 369h187l248 -369h-82l-260 195l-260 -195h-83zM48 815l364 109h78v-708q0 -43 5 -69.5t17.5 -42.5t33.5 -21t52 -5v-78h-498v78q35 0 56.5 6t33 21t16.5 42t5 70v407q0 78 -12 105t-43 27q-17 0 -41.5 -3.5t-43.5 -10.5z" horiz-adv-x="630" unicode="î"/><glyph d="M34 1234q0 27 10.5 51t28 41.5t41.5 28t51 10.5t51.5 -10.5t42 -28t28 -41.5t10.5 -51t-10.5 -51.5t-28 -42t-41.5 -28t-52 -10.5q-27 0 -51 10.5t-41.5 28t-28 41.5t-10.5 52zM48 815l364 109h78v-708q0 -43 5 -69.5t17.5 -42.5t33.5 -21t52 -5v-78h-498v78q35 0 56.5 6 t33 21t16.5 42t5 70v407q0 78 -12 105t-43 27q-17 0 -41.5 -3.5t-43.5 -10.5zM404 1234q0 27 10.5 51t28 41.5t41.5 28t52 10.5q27 0 51 -10.5t41.5 -28t28 -41.5t10.5 -51t-10.5 -51.5t-28 -42t-41.5 -28t-51 -10.5t-51.5 10.5t-42 28t-28 41.5t-10.5 52z" horiz-adv-x="630" unicode="ï"/><glyph d="M53 439q0 94 31.5 181.5t90 155.5t141.5 108t188 40q13 0 24 -0.5t22 -1.5q-18 45 -41.5 88t-52.5 83l-219 -121l-47 96l197 111q-39 44 -81 82t-86 69l39 65q25 -9 57 -25l68 -34t71.5 -39.5t67.5 -42.5l223 125l55 -96l-186 -103q83 -75 147.5 -163t108.5 -181.5 t67 -187.5t23 -181q0 -100 -31 -190t-88.5 -158t-140 -108.5t-186.5 -40.5q-108 0 -194 39t-145 104.5t-91 150t-32 175.5zM339 521q0 -92 19 -174t50 -143.5t71 -98t81 -36.5q57 0 87 73.5t30 246.5q0 225 -54 331.5t-159 106.5q-22 0 -45 -15t-40.5 -50t-28.5 -93.5 t-11 -147.5z" horiz-adv-x="1016" unicode="ð"/><glyph d="M6 815l364 109h78v-164q43 29 79 58t74.5 52.5t81 38.5t98.5 15q73 0 120 -30t74 -78.5t37.5 -109t10.5 -120.5v-370q0 -43 4.5 -69.5t16 -42.5t31 -21t49.5 -5v-78h-488v78q31 0 51.5 3t33 17t17.5 42t5 76v353q0 97 -24.5 139.5t-86.5 42.5q-42 0 -90.5 -26.5 t-93.5 -74.5v-434q0 -43 5.5 -69.5t17 -41.5t32.5 -21t52 -6v-78h-497v78q35 0 56.5 5t33.5 21t16.5 42.5t4.5 69.5v408q0 78 -11.5 105t-43.5 27q-17 0 -42 -3.5t-42 -10.5zM221 1093q8 61 30.5 113t56.5 90t76 58.5t88 20.5q45 0 81.5 -14t69 -30.5t64 -30.5t67.5 -14 t60 22t34 76h77q-3 -62 -20 -114t-47.5 -89t-70.5 -58t-85 -21q-55 0 -89.5 14.5t-63.5 32t-59.5 32.5t-76.5 15q-18 0 -37.5 -8t-35 -22t-26 -33t-10.5 -40h-83z" horiz-adv-x="1130" unicode="ñ"/><glyph d="M53 439q0 94 31.5 181.5t90 155.5t141.5 108t188 40q101 0 186 -35.5t144.5 -98t93 -145.5t33.5 -178q0 -100 -31 -190t-88.5 -158t-140 -108.5t-186.5 -40.5q-108 0 -194 39t-145 104.5t-91 150t-32 175.5zM215 1323q0 43 25.5 73t69.5 30q39 0 76 -19t71 -58l261 -308 h-127l-279 164q-49 30 -73 57t-24 61zM339 521q0 -92 19 -174t50 -143.5t71 -98t81 -36.5q57 0 87 73.5t30 246.5q0 79 -13.5 157.5t-41 141t-67 101t-91.5 38.5q-22 0 -45 -15t-40.5 -50t-28.5 -93.5t-11 -147.5z" horiz-adv-x="1016" unicode="ò"/><glyph d="M53 439q0 94 31.5 181.5t90 155.5t141.5 108t188 40q101 0 186 -35.5t144.5 -98t93 -145.5t33.5 -178q0 -100 -31 -190t-88.5 -158t-140 -108.5t-186.5 -40.5q-108 0 -194 39t-145 104.5t-91 150t-32 175.5zM319 1041l290 355q12 14 31 22t41 8q44 0 75 -30t31 -73 q0 -22 -6.5 -42.5t-25.5 -31.5l-335 -208h-101zM339 521q0 -92 19 -174t50 -143.5t71 -98t81 -36.5q57 0 87 73.5t30 246.5q0 79 -13.5 157.5t-41 141t-67 101t-91.5 38.5q-22 0 -45 -15t-40.5 -50t-28.5 -93.5t-11 -147.5z" horiz-adv-x="1016" unicode="ó"/><glyph d="M53 439q0 94 31.5 181.5t90 155.5t141.5 108t188 40q101 0 186 -35.5t144.5 -98t93 -145.5t33.5 -178q0 -100 -31 -190t-88.5 -158t-140 -108.5t-186.5 -40.5q-108 0 -194 39t-145 104.5t-91 150t-32 175.5zM168 1026l250 369h187l248 -369h-82l-260 195l-260 -195h-83z M339 521q0 -92 19 -174t50 -143.5t71 -98t81 -36.5q57 0 87 73.5t30 246.5q0 79 -13.5 157.5t-41 141t-67 101t-91.5 38.5q-22 0 -45 -15t-40.5 -50t-28.5 -93.5t-11 -147.5z" horiz-adv-x="1016" unicode="ô"/><glyph d="M53 439q0 94 31.5 181.5t90 155.5t141.5 108t188 40q101 0 186 -35.5t144.5 -98t93 -145.5t33.5 -178q0 -100 -31 -190t-88.5 -158t-140 -108.5t-186.5 -40.5q-108 0 -194 39t-145 104.5t-91 150t-32 175.5zM146 1093q8 61 30.5 113t56.5 90t76 58.5t88 20.5 q45 0 81.5 -14t69 -30.5t64 -30.5t67.5 -14t60 22t34 76h77q-3 -62 -20 -114t-47.5 -89t-70.5 -58t-85 -21q-55 0 -89.5 14.5t-63.5 32t-59.5 32.5t-76.5 15q-18 0 -37.5 -8t-35 -22t-26 -33t-10.5 -40h-83zM339 521q0 -92 19 -174t50 -143.5t71 -98t81 -36.5q57 0 87 73.5 t30 246.5q0 79 -13.5 157.5t-41 141t-67 101t-91.5 38.5q-22 0 -45 -15t-40.5 -50t-28.5 -93.5t-11 -147.5z" horiz-adv-x="1016" unicode="õ"/><glyph d="M53 439q0 94 31.5 181.5t90 155.5t141.5 108t188 40q101 0 186 -35.5t144.5 -98t93 -145.5t33.5 -178q0 -100 -31 -190t-88.5 -158t-140 -108.5t-186.5 -40.5q-108 0 -194 39t-145 104.5t-91 150t-32 175.5zM190 1234q0 27 10.5 51t28 41.5t41.5 28t51 10.5t51.5 -10.5 t42 -28t28 -41.5t10.5 -51t-10.5 -51.5t-28 -42t-41.5 -28t-52 -10.5q-27 0 -51 10.5t-41.5 28t-28 41.5t-10.5 52zM339 521q0 -92 19 -174t50 -143.5t71 -98t81 -36.5q57 0 87 73.5t30 246.5q0 79 -13.5 157.5t-41 141t-67 101t-91.5 38.5q-22 0 -45 -15t-40.5 -50 t-28.5 -93.5t-11 -147.5zM560 1234q0 27 10.5 51t28 41.5t41.5 28t52 10.5q27 0 51 -10.5t41.5 -28t28 -41.5t10.5 -51t-10.5 -51.5t-28 -42t-41.5 -28t-51 -10.5t-51.5 10.5t-42 28t-28 41.5t-10.5 52z" horiz-adv-x="1016" unicode="ö"/><glyph d="M360 494v172h1210v-172h-1210zM827 246q0 29 11 54.5t29 44t43.5 29.5t55.5 11q29 0 54 -11t44 -29.5t30 -44t11 -54.5q0 -30 -11 -55t-30 -43.5t-44.5 -29t-53.5 -10.5q-30 0 -55.5 10.5t-43.5 29t-29 43.5t-11 55zM827 914q0 29 11 54t29 44t43.5 30t55.5 11 q29 0 54 -11t44 -30t30 -44t11 -54q0 -30 -11 -55.5t-30 -44.5t-44.5 -29t-53.5 -10q-30 0 -55.5 10t-43.5 29t-29 44.5t-11 55.5z" horiz-adv-x="1930" unicode="÷"/><glyph d="M6 3l141 146q-45 62 -69.5 136.5t-24.5 153.5q0 94 31.5 181.5t90 155.5t141.5 108t188 40q86 0 159 -26t131 -71l128 132l80 -66l-135 -142q45 -58 69.5 -130t24.5 -154q0 -100 -31 -190t-88.5 -158t-140 -108.5t-186.5 -40.5q-91 0 -165 27.5t-132 75.5l-134 -139z M339 521q0 -79 15 -154l279 292q-26 74 -68 121t-101 47q-22 0 -45 -15t-40.5 -50t-28.5 -94t-11 -147zM387 250q31 -82 77.5 -131.5t95.5 -49.5q57 0 87 73.5t30 246.5q0 38 -3 75.5t-10 74.5z" horiz-adv-x="1003" unicode="ø"/><glyph d="M-13 816v81h407v-572q0 -97 24.5 -139.5t87.5 -42.5q42 0 90.5 32t92.5 82v421q0 43 -5.5 70t-20 42.5t-40.5 20.5t-67 5v81h412v-627q0 -78 12 -105t43 -27q17 0 42.5 4t41.5 10l24 -73l-364 -109h-78v177q-25 -27 -59.5 -58.5t-76 -57.5t-91.5 -43.5t-106 -17.5 q-73 0 -119.5 27.5t-74 73.5t-38 107t-10.5 130v370q0 43 -5 70t-19.5 42.5t-39 20.5t-63.5 5zM230 1323q0 43 25.5 73t69.5 30q39 0 76 -19t71 -58l261 -308h-127l-279 164q-49 30 -73 57t-24 61z" horiz-adv-x="1130" unicode="ù"/><glyph d="M-13 816v81h407v-572q0 -97 24.5 -139.5t87.5 -42.5q42 0 90.5 32t92.5 82v421q0 43 -5.5 70t-20 42.5t-40.5 20.5t-67 5v81h412v-627q0 -78 12 -105t43 -27q17 0 42.5 4t41.5 10l24 -73l-364 -109h-78v177q-25 -27 -59.5 -58.5t-76 -57.5t-91.5 -43.5t-106 -17.5 q-73 0 -119.5 27.5t-74 73.5t-38 107t-10.5 130v370q0 43 -5 70t-19.5 42.5t-39 20.5t-63.5 5zM386 1041l290 355q12 14 31 22t41 8q44 0 75 -30t31 -73q0 -22 -6.5 -42.5t-25.5 -31.5l-335 -208h-101z" horiz-adv-x="1130" unicode="ú"/><glyph d="M-13 816v81h407v-572q0 -97 24.5 -139.5t87.5 -42.5q42 0 90.5 32t92.5 82v421q0 43 -5.5 70t-20 42.5t-40.5 20.5t-67 5v81h412v-627q0 -78 12 -105t43 -27q17 0 42.5 4t41.5 10l24 -73l-364 -109h-78v177q-25 -27 -59.5 -58.5t-76 -57.5t-91.5 -43.5t-106 -17.5 q-73 0 -119.5 27.5t-74 73.5t-38 107t-10.5 130v370q0 43 -5 70t-19.5 42.5t-39 20.5t-63.5 5zM222 1026l250 369h187l248 -369h-82l-260 195l-260 -195h-83z" horiz-adv-x="1130" unicode="û"/><glyph d="M-13 816v81h407v-572q0 -97 24.5 -139.5t87.5 -42.5q42 0 90.5 32t92.5 82v421q0 43 -5.5 70t-20 42.5t-40.5 20.5t-67 5v81h412v-627q0 -78 12 -105t43 -27q17 0 42.5 4t41.5 10l24 -73l-364 -109h-78v177q-25 -27 -59.5 -58.5t-76 -57.5t-91.5 -43.5t-106 -17.5 q-73 0 -119.5 27.5t-74 73.5t-38 107t-10.5 130v370q0 43 -5 70t-19.5 42.5t-39 20.5t-63.5 5zM205 1234q0 27 10.5 51t28 41.5t41.5 28t51 10.5t51.5 -10.5t42 -28t28 -41.5t10.5 -51t-10.5 -51.5t-28 -42t-41.5 -28t-52 -10.5q-27 0 -51 10.5t-41.5 28t-28 41.5t-10.5 52z M575 1234q0 27 10.5 51t28 41.5t41.5 28t52 10.5q27 0 51 -10.5t41.5 -28t28 -41.5t10.5 -51t-10.5 -51.5t-28 -42t-41.5 -28t-51 -10.5t-51.5 10.5t-42 28t-28 41.5t-10.5 52z" horiz-adv-x="1130" unicode="ü"/><glyph d="M-3 -282q0 36 11 61t29 40.5t40 22.5t44 7q42 0 67 -15.5t45 -34.5t39 -34.5t46 -15.5q25 0 48.5 27.5t45 67.5t39.5 84.5t31 77.5l-299 684q-17 39 -32.5 62t-33.5 36t-42 19.5t-57 11.5v78h544v-78q-56 0 -79 -17.5t-23 -51.5q0 -38 21 -84l143 -328l147 352 q8 18 11.5 30.5t3.5 30.5q0 32 -25 50t-81 18v78h359v-78q-62 -3 -94.5 -33t-55.5 -85l-350 -834q-34 -81 -74.5 -138t-86 -93t-93 -53t-94.5 -17q-34 0 -67.5 9t-62.5 28t-46.5 47.5t-17.5 67.5zM395 1041l290 355q12 14 31 22t41 8q44 0 75 -30t31 -73q0 -22 -6.5 -42.5 t-25.5 -31.5l-335 -208h-101z" horiz-adv-x="1041" unicode="ý"/><glyph d="M-6 1279l363 116h78v-653q70 97 144 139.5t151 42.5q64 0 123 -28t105.5 -80t73.5 -126t27 -166q0 -117 -26.5 -218.5t-82.5 -175.5t-140.5 -117t-199.5 -43q-44 0 -95 15.5t-80 41.5v-241q0 -45 5.5 -73t17 -42t32.5 -19.5t52 -5.5v-78h-498v78q35 0 57 6.5t34 22.5 t16.5 42.5t4.5 68.5v1308q0 77 -15 105t-44 28q-18 0 -35 -4t-35 -10zM435 233q0 -39 11 -73q16 -49 53.5 -74.5t94.5 -25.5q34 0 65.5 17.5t56.5 59t40 112.5t15 176q0 58 -9 115t-29.5 101.5t-53 72t-77.5 27.5q-35 0 -76.5 -23t-90.5 -73v-412z" horiz-adv-x="1120" unicode="þ"/><glyph d="M-3 -282q0 36 11 61t29 40.5t40 22.5t44 7q42 0 67 -15.5t45 -34.5t39 -34.5t46 -15.5q25 0 48.5 27.5t45 67.5t39.5 84.5t31 77.5l-299 684q-17 39 -32.5 62t-33.5 36t-42 19.5t-57 11.5v78h544v-78q-56 0 -79 -17.5t-23 -51.5q0 -38 21 -84l143 -328l147 352 q8 18 11.5 30.5t3.5 30.5q0 32 -25 50t-81 18v78h359v-78q-62 -3 -94.5 -33t-55.5 -85l-350 -834q-34 -81 -74.5 -138t-86 -93t-93 -53t-94.5 -17q-34 0 -67.5 9t-62.5 28t-46.5 47.5t-17.5 67.5zM266 1234q0 27 10.5 51t28 41.5t41.5 28t51 10.5t51.5 -10.5t42 -28 t28 -41.5t10.5 -51t-10.5 -51.5t-28 -42t-41.5 -28t-52 -10.5q-27 0 -51 10.5t-41.5 28t-28 41.5t-10.5 52zM636 1234q0 27 10.5 51t28 41.5t41.5 28t52 10.5q27 0 51 -10.5t41.5 -28t28 -41.5t10.5 -51t-10.5 -51.5t-28 -42t-41.5 -28t-51 -10.5t-51.5 10.5t-42 28 t-28 41.5t-10.5 52z" horiz-adv-x="1041" unicode="ÿ"/><glyph d="M71 664q0 144 53.5 268.5t148 215.5t222.5 142t277 51q51 0 123 -6.5t164 -6.5h750l16 -357h-75q-17 64 -32 110t-40.5 75t-69 43t-117.5 14h-248v-480h119q61 0 98 14.5t60 43t34 71.5t19 101h78v-555h-78q-8 58 -19 98.5t-33 66t-59 36.5t-100 11h-119v-344 q0 -58 5 -91.5t26.5 -50t65 -19.5t120.5 -3q87 0 144 16t98.5 49.5t75.5 85.5t74 122h81l-137 -385h-742q-77 0 -153.5 -8t-153.5 -8q-151 0 -275.5 53.5t-213.5 146t-138 216.5t-49 264zM425 672q0 -58 6.5 -124t22 -131.5t41 -126t64 -106.5t90.5 -73.5t120 -27.5 q65 0 99.5 15t49.5 45.5t17 77.5t2 112v712q0 75 -9.5 118t-30.5 64t-51.5 26t-73.5 5q-69 0 -121 -26t-91 -70t-65 -102.5t-41.5 -123.5t-22 -133.5t-6.5 -130.5z" horiz-adv-x="1971" unicode="Œ"/><glyph d="M53 439q0 94 31.5 181.5t90 155.5t141.5 108t188 40q47 0 94 -9t89 -26t77 -39.5t57 -50.5q40 39 82.5 64t81.5 38.5t73.5 18.5t59.5 5q70 0 133.5 -22t111 -68t76 -118t28.5 -172v-15h-561v-27q0 -53 19.5 -109.5t58 -105t93 -79t124.5 -30.5q65 0 117 39t92 138l57 -25 q-13 -68 -42 -132.5t-76.5 -115.5t-112.5 -82t-151 -31q-84 0 -155.5 28t-123.5 84q-45 -43 -117.5 -77.5t-173.5 -34.5q-108 0 -194 39t-145 104.5t-91 150t-32 175.5zM339 521q0 -92 19 -174t50 -143.5t71 -98t81 -36.5q57 0 87 73.5t30 246.5q0 79 -13.5 157.5t-41 141 t-67 101t-91.5 38.5q-22 0 -45 -15t-40.5 -50t-28.5 -93.5t-11 -147.5zM905 615h300q0 30 -8 67t-26.5 69.5t-49 54.5t-76.5 22q-26 0 -51.5 -15t-45 -43t-31.5 -67.5t-12 -87.5z" horiz-adv-x="1533" unicode="œ"/><glyph d="M17 1250v78h637v-78q-70 0 -107 -11.5t-37 -41.5q0 -16 15.5 -49t51 -93.5t94.5 -152.5t147 -226l235 400q21 34 30.5 64.5t9.5 54.5q0 26 -28.5 40.5t-98.5 14.5v78h460v-78q-34 0 -61.5 -5.5t-56.5 -29t-63 -69t-80 -124.5l-286 -485v-287q0 -51 11 -84t36 -52.5 t67 -27.5t101 -8v-78h-744v78q60 0 101.5 8t68 27.5t38 52.5t11.5 84v235l-334 564q-34 56 -60 95t-50.5 62.5t-50 33.5t-57.5 10zM402 1663q0 27 10.5 51t28 41.5t41.5 28t51 10.5t51.5 -10.5t42 -28t28 -41.5t10.5 -51t-10.5 -51.5t-28 -42t-41.5 -28t-52 -10.5 q-27 0 -51 10.5t-41.5 28t-28 41.5t-10.5 52zM772 1663q0 27 10.5 51t28 41.5t41.5 28t52 10.5q27 0 51 -10.5t41.5 -28t28 -41.5t10.5 -51t-10.5 -51.5t-28 -42t-41.5 -28t-51 -10.5t-51.5 10.5t-42 28t-28 41.5t-10.5 52z" unicode="Ÿ"/><glyph d="M-26 1039l250 369h187l248 -369h-82l-260 195l-260 -195h-83z" horiz-adv-x="633" unicode="ˆ"/><glyph d="M-26 1093q8 61 30.5 113t56.5 90t76 58.5t88 20.5q45 0 81.5 -14t69 -30.5t64 -30.5t67.5 -14t60 22t34 76h77q-3 -62 -20 -114t-47.5 -89t-70.5 -58t-85 -21q-55 0 -89.5 14.5t-63.5 32t-59.5 32.5t-76.5 15q-18 0 -37.5 -8t-35 -22t-26 -33t-10.5 -40h-83z" horiz-adv-x="633" unicode="˜"/><glyph horiz-adv-x="941"/><glyph horiz-adv-x="1882"/><glyph horiz-adv-x="941"/><glyph horiz-adv-x="1882"/><glyph horiz-adv-x="627"/><glyph horiz-adv-x="470"/><glyph horiz-adv-x="313"/><glyph horiz-adv-x="313"/><glyph horiz-adv-x="235"/><glyph horiz-adv-x="376"/><glyph horiz-adv-x="104"/><glyph d="M39 363v195h610v-195h-610z" horiz-adv-x="687" unicode="‐"/><glyph d="M39 363v195h610v-195h-610z" horiz-adv-x="687" unicode="‑"/><glyph d="M39 363v195h610v-195h-610z" horiz-adv-x="687" unicode="‒"/><glyph d="M-43 376v145h1036v-145h-1036z" horiz-adv-x="965" unicode="–"/><glyph d="M0 376v145h1930v-145h-1930z" horiz-adv-x="1930" unicode="—"/><glyph d="M149 950q0 153 90.5 257.5t249.5 149.5v-45q-65 -26 -107.5 -63.5t-67 -77t-35 -76.5t-10.5 -63q0 -10 4 -22.5t17 -12.5q5 0 11.5 4t16.5 9t24 9t36 4q29 0 55 -11.5t45.5 -33t31 -50.5t11.5 -61q0 -34 -13 -63t-35 -51.5t-51 -34.5t-63 -12q-43 0 -81.5 15.5t-67 46 t-45 76t-16.5 106.5z" horiz-adv-x="670" unicode="‘"/><glyph d="M149 1196q0 32 13 62t34.5 51.5t51 34.5t63.5 13q44 0 82.5 -15.5t67 -46t44.5 -76t16 -106.5q0 -153 -90 -257.5t-249 -149.5v45q64 26 106.5 63t67.5 76t35.5 77t10.5 65q0 10 -4 22t-18 12q-5 0 -12 -4.5t-16.5 -9t-24 -9t-36.5 -4.5q-29 0 -54.5 12t-45 33t-31 49.5 t-11.5 62.5z" horiz-adv-x="670" unicode="’"/><glyph d="M149 139q0 34 13 63t34.5 51.5t51 34.5t63.5 12q44 0 82.5 -15.5t67 -46t44.5 -76t16 -106.5q0 -77 -24 -142t-68 -117t-106 -89.5t-137 -59.5v43q64 26 106 63.5t66 78t34 78t10 63.5q0 10 -4 22.5t-18 12.5q-10 0 -24 -11t-45 -11q-34 0 -63.5 11t-51 31t-34.5 48 t-13 62z" horiz-adv-x="670" unicode="‚"/><glyph d="M81 950q0 153 91 257.5t249 149.5v-45q-65 -26 -107 -63.5t-67.5 -77t-36 -76.5t-10.5 -63q0 -10 4 -22.5t18 -12.5q5 0 11.5 4t16.5 9t24.5 9t36.5 4q29 0 54.5 -11.5t45 -33t31.5 -50.5t12 -61q0 -34 -13 -63t-35.5 -51.5t-52 -34.5t-62.5 -12q-43 0 -81 15.5t-67 46 t-45.5 76t-16.5 106.5zM552 950q0 153 90.5 257.5t249.5 149.5v-45q-65 -26 -107.5 -63.5t-67 -77t-35 -76.5t-10.5 -63q0 -10 4 -22.5t17 -12.5q5 0 11.5 4t16 9t24 9t36.5 4q29 0 55.5 -11.5t46 -33t31 -50.5t11.5 -61q0 -34 -13 -63t-35 -51.5t-52 -34.5t-62 -12 q-43 0 -81.5 15.5t-67 46t-45.5 76t-17 106.5z" horiz-adv-x="1006" unicode="“"/><glyph d="M81 1196q0 32 13 62t35 51.5t51 34.5t63 13q43 0 81.5 -15.5t67 -46t45.5 -76t17 -106.5q0 -153 -90.5 -257.5t-249.5 -149.5v45q64 26 107 63t67.5 76t35 77t10.5 65q0 10 -4 22t-17 12q-6 0 -12.5 -4.5t-16.5 -9t-24 -9t-35 -4.5q-30 0 -56 12t-45.5 33t-31 49.5 t-11.5 62.5zM552 1196q0 32 13 62t35.5 51.5t51.5 34.5t63 13q43 0 81 -15.5t67 -46t45.5 -76t16.5 -106.5q0 -153 -91 -257.5t-249 -149.5v45q64 26 106.5 63t67.5 76t35.5 77t10.5 65q0 10 -3.5 22t-17.5 12q-6 0 -12 -4.5t-16 -9t-24.5 -9t-36.5 -4.5q-30 0 -55.5 12 t-45 33t-31 49.5t-11.5 62.5z" horiz-adv-x="1006" unicode="”"/><glyph d="M81 139q0 34 13 63t35 51.5t51 34.5t63 12q43 0 81.5 -15.5t67 -46t45.5 -76t17 -106.5q0 -77 -24 -142t-68.5 -117t-106 -89.5t-137.5 -59.5v43q64 26 106 63.5t66.5 78t34 78t9.5 63.5q0 10 -4 22.5t-17 12.5q-6 0 -12 -3t-14 -7.5t-18 -8t-26 -3.5q-34 0 -63 11 t-51 31t-35 48t-13 62zM552 139q0 34 13 63t35.5 51.5t51.5 34.5t63 12q43 0 81 -15.5t67 -46t45.5 -76t16.5 -106.5q0 -77 -24 -142t-68 -117t-106.5 -89.5t-137.5 -59.5v43q64 26 106 63.5t66 78t34 78t10 63.5q0 10 -3.5 22.5t-17.5 12.5q-12 0 -25.5 -11t-43.5 -11 q-34 0 -63 11t-51.5 31t-35.5 48t-13 62z" horiz-adv-x="1006" unicode="„"/><glyph d="M68 656q0 47 17.5 87.5t47 70.5t70 47.5t87.5 17.5t87 -17.5t70 -47.5t47.5 -70.5t17.5 -87.5t-17.5 -87t-47.5 -70t-70 -47.5t-87 -17.5t-87.5 17.5t-70 47.5t-47 70.5t-17.5 86.5z" horiz-adv-x="578" unicode="•"/><glyph d="M172 139q0 34 13 63t35 51.5t51 34.5t63 12t63 -12t51.5 -34.5t35.5 -51.5t13 -63t-13 -63t-35.5 -51t-51.5 -35t-63 -13t-63 13t-51 35t-35 51t-13 63zM842 139q0 34 13 63t34.5 51.5t51 34.5t62.5 12q34 0 63.5 -12t51.5 -34.5t35 -51.5t13 -63t-13 -63t-35 -51 t-51.5 -35t-63.5 -13t-63 13t-50.5 35t-34.5 51t-13 63zM1512 139q0 34 13 63t35 51.5t51 34.5t63 12q32 0 62 -12t52.5 -34.5t35.5 -51.5t13 -63t-13 -63t-35.5 -51t-52 -35t-62.5 -13q-34 0 -63 13t-51 35t-35 51t-13 63z" horiz-adv-x="2008" unicode="…"/><glyph horiz-adv-x="376"/><glyph d="M70 342q0 136 73 252t197 178q53 25 74 -16q23 -44 -15 -74q-170 -138 -170 -338q0 -199 170 -346q35 -27 13 -72q-21 -43 -72 -18q-131 67 -199 180q-71 118 -71 254z" horiz-adv-x="493" unicode="‹"/><glyph d="M78 754q20 42 74 18q122 -60 198 -180q72 -115 72 -252q0 -133 -72 -252q-69 -114 -198 -180q-49 -24 -72 16q-26 44 12 74q170 145 170 348q0 201 -170 336q-36 26 -14 72z" horiz-adv-x="491" unicode="›"/><glyph horiz-adv-x="470"/><glyph d="M0 460l53 120h78q-1 14 -1 27v27v28.5t1 30.5h-131l53 119h98q14 110 65.5 209t128.5 174t176.5 118.5t210.5 43.5q75 0 129.5 -15t92.5 -33t61.5 -33t37.5 -15q21 0 32.5 7.5t18.5 21.5t11.5 32t11.5 38h75l30 -513h-78q-22 94 -61.5 168t-90.5 125t-108.5 78t-114.5 27 q-78 0 -134 -35.5t-92.5 -95.5t-56.5 -138.5t-27 -163.5h614l-42 -119h-574q-3 -19 -3 -26.5v-28.5v-16.5t0.5 -12.5t1.5 -12.5t1 -16.5h525l-42 -120h-477q3 -60 22.5 -125.5t59.5 -120t104 -90.5t155 -36q120 0 206.5 73t157.5 209l76 -48q-88 -172 -211 -261.5 t-294 -89.5q-148 0 -253 45.5t-174.5 116.5t-109.5 157.5t-61 169.5h-151z" horiz-adv-x="1293" unicode="€"/><glyph d="M32 1045l13 283h709l15 -283h-72q-10 99 -61 144t-125 45v-531q0 -27 4 -46.5t15.5 -31t32.5 -17t54 -5.5v-65h-432v65q60 0 79 22t19 78v531h-71q-49 0 -75.5 -47.5t-36.5 -141.5h-68zM794 538v65q39 0 63 6t38 18.5t19 31t5 44.5v466q0 51 -27.5 69.5t-97.5 18.5v71 h382l215 -439l205 439h324v-71q-35 0 -54.5 -5t-28.5 -17t-11 -30t-2 -44v-458q0 -26 2 -44t11 -31t28.5 -19t54.5 -6v-65h-441v65q38 0 61.5 5.5t35.5 17t16 30.5t4 45v366l-239 -529h-55l-278 584v-419q0 -32 4.5 -51.5t18.5 -30.5t39 -14.5t67 -3.5v-65h-359z" horiz-adv-x="1953" unicode="™"/><glyph d="M0 0v895h895v-895h-895z" horiz-adv-x="895" unicode="◼"/></font>
</defs>
</svg>
