<?xml version="1.0" standalone="no"?>
<!DOCTYPE svg PUBLIC "-//W3C//DTD SVG 1.1//EN" "http://www.w3.org/Graphics/SVG/1.1/DTD/svg11.dtd" >
<svg xmlns="http://www.w3.org/2000/svg" xmlns:xlink="http://www.w3.org/1999/xlink" version="1.1">
<metadata></metadata>
<defs>
<font id="kitabregular" horiz-adv-x="1003" >
<font-face units-per-em="2048" ascent="1638" descent="-410" />
<missing-glyph horiz-adv-x="665" />
<glyph horiz-adv-x="0" />
<glyph horiz-adv-x="682" />
<glyph unicode=" "  horiz-adv-x="665" />
<glyph unicode="&#x09;" horiz-adv-x="665" />
<glyph unicode="&#xa0;" horiz-adv-x="665" />
<glyph unicode="!" horiz-adv-x="721" d="M247 18q0 23 9 44t24 36.5t35 25t44 9.5q49 0 82 -33.5t33 -81.5q0 -23 -9 -43t-24.5 -35t-36.5 -24.5t-45 -9.5q-23 0 -43.5 9.5t-35.5 24.5t-24 35t-9 43zM251 1089q0 92 31 139t77 47q49 0 80.5 -47t31.5 -139q0 -86 -12.5 -173t-32.5 -195q-8 -44 -13.5 -73 t-10 -54.5t-7 -53t-4 -67t-2 -98.5t-0.5 -149q0 -6 -9.5 -10t-19.5 -4t-18.5 4t-8.5 10q0 90 -1 149t-2 98.5t-3.5 67t-7 53t-10.5 54.5t-14 73q-19 108 -31.5 195t-12.5 173z" />
<glyph unicode="&#x22;" horiz-adv-x="817" d="M130 1240q0 51 21.5 84t77.5 33q45 0 72 -29.5t27 -73.5t-10.5 -109.5t-24.5 -134t-27 -129t-19 -93.5h-39q-10 51 -24 107t-25.5 115.5t-20 118t-8.5 111.5zM487 1240q0 53 22.5 85t79.5 32q45 0 71 -29.5t26 -73.5q0 -57 -7.5 -116t-18.5 -119t-24 -118.5t-24 -112.5 h-48q-8 44 -21 102t-25 119.5t-21.5 121.5t-9.5 109z" />
<glyph unicode="#" d="M35 419v81h183l69 336h-252v76h272l89 445h78l-85 -445h330l93 445h82l-93 -445h167v-76h-180l-69 -336h249v-81h-267l-91 -449h-80l90 449h-333l-92 -449h-83l91 449h-168zM300 500h336l70 336h-336z" />
<glyph unicode="$" d="M107 51v277h42q10 -138 89.5 -208.5t213.5 -81.5v569q-64 40 -125.5 83t-110 93t-79 111t-30.5 139q0 73 29 130.5t77 97.5t110.5 63t128.5 28v91h64v-91q44 -3 84.5 -10.5t79.5 -20t78 -27t80 -29.5v-293h-37q-12 134 -79 216.5t-206 97.5v-498q58 -42 126 -88 t125.5 -100.5t96 -121t38.5 -148.5q0 -81 -32.5 -145t-86 -110t-123 -73t-144.5 -32v-122h-64v122q-88 5 -176 24.5t-169 56.5zM259 1094q0 -45 17.5 -83.5t45.5 -71.5t62.5 -60.5t67.5 -47.5v455q-42 -6 -76.5 -19.5t-60.5 -36t-41 -56.5t-15 -80zM516 38q49 3 91.5 23 t73.5 53t48.5 76t17.5 92q0 47 -21.5 87t-55 74.5t-74.5 64.5t-80 56v-526z" />
<glyph unicode="%" horiz-adv-x="1735" d="M152 857q0 82 36 166t96 154t138 113.5t164 43.5q52 0 86.5 -17t67 -38t70 -38t97.5 -17q91 0 169 32.5t135 106.5h97l-778 -1393h-96l702 1262q-60 -26 -121 -39.5t-126 -13.5q-26 0 -51.5 3t-49.5 14q0 -29 7.5 -55.5t7.5 -53.5q0 -52 -14 -110.5t-40 -114.5 t-64 -107.5t-83.5 -90.5t-98.5 -61.5t-112 -22.5q-66 0 -111.5 20.5t-73.5 57t-41 87t-13 112.5zM307 798q0 -64 27 -106t98 -42q49 0 92 22.5t78.5 60.5t63.5 86t47 100t28.5 102.5t9.5 93.5q0 21 -7 47t-10 47q-14 4 -34 15l-40 22t-38.5 20t-27.5 9q-25 0 -50 -14 t-47.5 -35.5t-42 -45t-32.5 -40.5q-56 -74 -85.5 -160.5t-29.5 -181.5zM935 247q0 55 16 111.5t46 109t70 98t89 80t103.5 54t111.5 19.5q45 0 84.5 -17.5t68 -47.5t44.5 -70.5t16 -85.5q0 -55 -11.5 -114.5t-35 -118t-57 -112t-77 -94.5t-97.5 -65t-117 -24 q-135 0 -194.5 73.5t-59.5 203.5zM1087 173q0 -64 29 -102.5t95 -38.5q48 0 91 22.5t79 59.5t64.5 84.5t48 98t30 99.5t10.5 91q0 31 -9 61t-27 53.5t-44.5 38.5t-61.5 15q-45 0 -85.5 -24.5t-75 -65.5t-61 -93t-45.5 -105.5t-28.5 -104t-9.5 -89.5z" />
<glyph unicode="&#x26;" horiz-adv-x="1562" d="M74 264q0 84 38.5 156.5t97.5 132t131 107t141 82.5q-32 66 -57.5 143t-25.5 151t26 134t71.5 101.5t108 63.5t135.5 22q55 0 102.5 -15.5t84 -45.5t58 -74t21.5 -102q0 -69 -30.5 -122.5t-78 -96t-104.5 -75t-109 -59.5q58 -107 122.5 -207.5t138.5 -196.5 q27 34 57.5 74.5t55.5 85.5t41 92.5t16 92.5q0 19 -5.5 39t-17.5 35.5t-29.5 25.5t-40.5 10v36h413v-36q-12 0 -27.5 -3t-32.5 -6.5t-33 -11t-29 -17.5q-16 -13 -34 -36.5t-35 -50t-32 -52.5t-25 -44q-43 -78 -92 -151t-105 -143q27 -30 60 -62.5t70.5 -59t78.5 -44 t84 -17.5q74 0 118 37t63 107l35 -25q-12 -57 -38 -107t-63.5 -86.5t-87.5 -57t-112 -20.5q-52 0 -100 16t-91.5 43.5t-82.5 61.5t-73 71q-48 -42 -95.5 -77.5t-98 -61t-107.5 -39.5t-124 -14q-66 0 -129 18.5t-112.5 55.5t-80 93t-30.5 129zM277 351q0 -53 17.5 -101.5 t50 -84t78 -56.5t101.5 -21q39 0 76 11t72 29.5t67.5 41.5t61.5 46q-84 114 -154 224.5t-136 235.5q-47 -26 -89 -58.5t-74.5 -73t-51.5 -88.5t-19 -105zM567 1113q0 -34 7.5 -71t19.5 -73.5t27 -71.5t29 -66q45 21 88.5 48.5t77.5 63.5t55 80.5t21 99.5q0 32 -10.5 63 t-30.5 53t-48 35.5t-63 13.5q-36 0 -68 -13.5t-55.5 -37t-36.5 -56t-13 -68.5z" />
<glyph unicode="'" horiz-adv-x="362" d="M82 1240q0 61 25.5 89t70.5 28t70.5 -28t25.5 -89q0 -22 -5 -61.5t-16 -100.5l-53 -290h-43l-53 290q-10 58 -16 99t-6 63z" />
<glyph unicode="(" horiz-adv-x="710" d="M99 320q0 100 19.5 182.5t52.5 152.5t77 129.5t94 111.5q36 39 77 75t81.5 66.5t75.5 53t60 32.5l17 -16q-84 -82 -149 -159t-110 -166q-23 -44 -46 -94t-41 -107t-29.5 -122t-11.5 -139q0 -75 11.5 -141t29.5 -124t40.5 -108t46.5 -94q45 -88 109.5 -163.5t149.5 -160.5 l-17 -16q-25 12 -60 33.5t-75.5 51.5t-81.5 66.5t-77 75.5q-49 52 -93.5 112t-77.5 130.5t-52.5 154t-19.5 183.5z" />
<glyph unicode=")" horiz-adv-x="710" d="M56 -471q84 84 148.5 160t111.5 164q23 44 46 94t40.5 108t28.5 123.5t11 141.5q0 74 -11 139t-28.5 122t-40.5 107t-46 94q-47 88 -111.5 166t-148.5 159l15 16q25 -10 61 -32.5t75.5 -52t81 -66t79.5 -75.5q49 -53 93.5 -112.5t77.5 -129.5t52 -152.5t19 -182.5 t-19 -183.5t-52 -154t-77.5 -130.5t-93.5 -113q-38 -39 -79.5 -75t-81 -66t-75.5 -52t-61 -33z" />
<glyph unicode="*" horiz-adv-x="894" d="M16 309q0 22 25 39t81 17q27 0 68 -7t79.5 -16t66 -18.5t27.5 -14.5t-27.5 -14.5t-66 -19t-79.5 -16t-68 -6.5q-56 0 -81 17t-25 39zM130 34q0 17 10.5 37.5t36.5 46.5q18 18 50 41t63.5 42.5t58 33t34.5 13.5q3 0 3 -4q0 -6 -13 -32t-32.5 -58.5t-41.5 -64t-40 -49.5 q-26 -26 -47.5 -36t-38.5 -10t-30 11t-13 29zM130 584q0 17 12.5 28.5t30.5 11.5q17 0 38.5 -10.5t47.5 -36.5q18 -18 40 -49t41.5 -63.5t32.5 -59t13 -32.5q0 -4 -3 -4q-8 0 -34.5 13.5t-58 33t-63.5 42.5t-50 41q-26 25 -36.5 46.5t-10.5 38.5zM389 -16q0 27 7 67.5 t16.5 79t19.5 66t15 27.5q4 0 13 -27.5t19 -66t17 -79t7 -67.5q0 -57 -17 -81.5t-39 -24.5t-40 24.5t-18 81.5zM389 633q0 57 18 82t40 25t39 -25t17 -82q0 -27 -7 -67.5t-17 -79t-19 -65.5t-13 -27q-5 0 -15 27t-19.5 65.5t-16.5 79t-7 67.5zM507 244q0 4 4 4 q8 0 34.5 -13.5t58.5 -33t63 -41.5t49 -40q26 -26 36.5 -47t10.5 -38q0 -18 -11.5 -29.5t-31.5 -11.5q-17 0 -38.5 10t-45.5 36q-18 18 -40.5 49.5t-42 63.5t-33 58t-13.5 33zM507 373q0 8 13.5 34t33 58.5t41.5 63t41 48.5q25 26 46 36.5t38 10.5t30 -10.5t13 -29.5 q0 -17 -10.5 -38.5t-36.5 -47.5q-18 -18 -49 -40.5t-63 -42t-58.5 -33t-34.5 -13.5q-4 0 -4 4zM533 309q0 5 26.5 14.5t65 18.5t79.5 16t68 7q55 0 81 -17t26 -39t-26 -39t-81 -17q-27 0 -68 6.5t-79.5 16t-65 19t-26.5 14.5z" />
<glyph unicode="+" horiz-adv-x="1189" d="M48 506v83h503v503h79v-503h503v-83h-503v-501h-79v501h-503z" />
<glyph unicode="," horiz-adv-x="503" d="M109 79q0 51 37 83.5t88 32.5q40 0 70.5 -17.5t51.5 -47t32 -65.5t11 -75q0 -226 -290 -325v45q40 10 78.5 34.5t68 58t47 74t17.5 83.5q0 40 -22 40q-8 0 -16.5 -4.5t-19 -10.5t-23 -10.5t-26.5 -4.5q-47 0 -75.5 27.5t-28.5 81.5z" />
<glyph unicode="-" horiz-adv-x="668" d="M79 309v149h507v-149h-507z" />
<glyph unicode="." horiz-adv-x="833" d="M325 86q0 23 9 43t24 35t35 24.5t44 9.5q25 0 45.5 -9.5t36 -24.5t24.5 -35t9 -43q0 -49 -33 -82.5t-82 -33.5q-23 0 -43.5 9t-35.5 24.5t-24 36.5t-9 46z" />
<glyph unicode="/" horiz-adv-x="705" d="M86 -338l455 1956h82l-458 -1956h-79z" />
<glyph unicode="0" d="M71 658q0 64 10 140.5t31 153.5t54.5 150.5t81.5 130t112 90.5t146 34q81 0 143.5 -33t110 -87t80 -125t53.5 -147t30 -150.5t9 -138.5q0 -66 -9 -143.5t-30 -155t-54 -150t-82 -128t-114 -89t-148 -33.5q-78 0 -140.5 33t-109 87.5t-79.5 125.5t-54 147t-31 150.5 t-10 137.5zM264 633q0 -38 2 -96.5t9.5 -124t22.5 -132.5t42 -120t66 -86.5t94 -33.5q58 0 99.5 38.5t68 99t41 136t21.5 149.5t8.5 138.5t1.5 106.5q0 38 -2 96.5t-10 123.5t-23 130t-41 117.5t-65.5 85t-95.5 32.5q-57 0 -96.5 -38t-66.5 -99.5t-42.5 -136.5t-22.5 -148.5 t-9 -136.5t-2 -101z" />
<glyph unicode="1" d="M234 1198l325 159h35v-1123q0 -57 2.5 -95t18 -60.5t49 -31.5t95.5 -9v-38h-500v38q64 0 99 8.5t51 30.5t19.5 60t3.5 97v749q0 45 -2 84t-10 68.5t-24 46t-45 16.5q-26 0 -52 -9.5t-48 -19.5z" />
<glyph unicode="2" d="M45 0v38q61 56 131.5 122t140 138t134 149.5t113 156t78 157.5t29.5 155q0 57 -18.5 110t-52 92.5t-81.5 63.5t-110 24q-114 0 -185 -59.5t-107 -163.5h-35q10 79 38 148t75 119t113 78.5t152 28.5q75 0 143.5 -25.5t120.5 -71.5t83 -110.5t31 -143.5q0 -74 -26 -147.5 t-67 -143t-91.5 -132t-98.5 -114.5q-74 -81 -148 -163t-154 -157h346q56 0 97.5 3t74 13t60 31.5t53.5 59.5h38l-97 -256h-780z" />
<glyph unicode="3" d="M82 82q0 30 24.5 50t53.5 20q31 0 63 -14.5t66.5 -31t72 -31t83.5 -14.5q52 0 97.5 21.5t78.5 57t51.5 82.5t18.5 98q0 87 -29.5 150.5t-81.5 104.5t-122.5 61t-150.5 22v31q60 8 113.5 33t95.5 65.5t66.5 94.5t24.5 116q0 48 -15.5 89t-44 71t-69 47t-89.5 17 q-84 0 -146 -46t-108 -117l-34 16q29 60 61.5 111t74 89.5t96 60t127.5 21.5q60 0 116 -17.5t98.5 -52t68.5 -84.5t26 -116q0 -45 -16 -87t-41.5 -79.5t-57 -71t-63.5 -61.5q121 -44 184 -131.5t63 -217.5q0 -116 -41.5 -202t-113.5 -144t-167.5 -87t-203.5 -29 q-26 0 -65.5 2.5t-76 13t-62.5 31t-26 58.5z" />
<glyph unicode="4" d="M32 351v123l618 883h106v-867h176v-139h-176v-351h-162v351h-562zM127 490h467v660z" />
<glyph unicode="5" d="M96 107q0 38 20 54.5t57 16.5q30 0 58.5 -15.5t59 -35t65.5 -35t78 -15.5q61 0 114 24t91 65t60 95t22 115q0 116 -53.5 197t-138 133t-187.5 77t-200 29l254 516h475l-76 -167h-399l-89 -176q100 -10 197.5 -49.5t174 -104.5t123.5 -153.5t47 -197.5q0 -107 -43 -199.5 t-115 -160t-167 -105.5t-199 -38q-30 0 -69.5 5t-74.5 18.5t-60 39t-25 67.5z" />
<glyph unicode="6" d="M88 521q0 101 26 202.5t74.5 194.5t116.5 173t152 139t181.5 93t205.5 34h55v-36q-121 -8 -219 -58t-172 -130t-124.5 -181.5t-76.5 -211.5q64 44 135 71t149 27q81 0 143.5 -33t105.5 -88t65 -125.5t22 -144.5q0 -90 -30 -174.5t-86 -150.5t-134 -105.5t-174 -39.5 q-105 0 -183 50.5t-129.5 130t-77 175.5t-25.5 188zM272 458q0 -38 6.5 -84t19.5 -93.5t33.5 -92t49 -79.5t66.5 -56t86 -21q60 0 101.5 30t67.5 75.5t37.5 100t11.5 103.5q0 60 -11 132t-39.5 134t-78.5 104.5t-127 42.5q-23 0 -51 -8.5t-55.5 -21t-53.5 -27.5t-45 -26 q-6 -55 -12 -107.5t-6 -105.5z" />
<glyph unicode="7" d="M74 1014l129 314h707v-35l-442 -1323h-105l396 1199h-365q-58 0 -100.5 -6.5t-75.5 -25t-60.5 -49.5t-56.5 -82z" />
<glyph unicode="8" d="M120 303q0 58 25 111.5t64 99.5t86 84.5t91 69.5q-56 47 -102 89t-79 85t-51.5 91t-18.5 108q0 75 31.5 134.5t82.5 99.5t117.5 61t136.5 21q62 0 126 -17.5t115 -54t83.5 -90.5t32.5 -125q0 -58 -26.5 -108t-66.5 -90.5t-88.5 -74t-92.5 -60.5q58 -45 113 -92t97 -97.5 t67.5 -108.5t25.5 -124q0 -84 -31 -147.5t-84.5 -106t-123.5 -63.5t-147 -21q-70 0 -139 22t-123.5 64t-87.5 102.5t-33 137.5zM272 307q0 -56 15.5 -106t46 -87t76 -59.5t106.5 -22.5q47 0 88.5 13t73.5 38.5t50.5 63.5t18.5 87q0 55 -23 103.5t-65.5 96.5t-100.5 97 t-126 102q-74 -64 -117 -145t-43 -181zM279 1105q0 -51 23 -95t60 -84.5t84 -78t95 -72.5q40 38 73 71.5t56.5 68.5t36 75.5t12.5 89.5q0 218 -216 219q-44 0 -84.5 -12.5t-71.5 -37.5t-49.5 -60.5t-18.5 -83.5z" />
<glyph unicode="9" d="M79 881q0 87 28.5 173t82.5 153t131 108.5t174 41.5q105 0 184 -51.5t131.5 -130.5t79 -176.5t26.5 -188.5q0 -101 -26 -202.5t-74 -195.5t-116 -174.5t-151.5 -140t-181.5 -93.5t-205 -34h-55v38q120 3 217 52.5t171 131t125 184t78 210.5q-62 -42 -133 -71.5 t-146 -29.5q-82 0 -145 33t-107 89t-66 127t-22 147zM256 983q0 -56 10.5 -127.5t37.5 -134.5t74 -106t120 -43q21 0 52 6.5t63.5 18t60 27.5t40.5 34q6 49 12 99t6 103q0 38 -6 85t-18.5 95t-32.5 93.5t-49 81t-67.5 57t-87.5 21.5q-61 0 -102 -30.5t-66 -76t-36 -100.5 t-11 -103z" />
<glyph unicode=":" horiz-adv-x="833" d="M279 18q0 48 33.5 81.5t81.5 33.5q23 0 43.5 -9.5t35 -25t24 -36.5t9.5 -44t-9.5 -43t-24 -35t-35 -24.5t-43.5 -9.5t-44 9.5t-36.5 24.5t-25 35t-9.5 43zM279 633q0 49 33.5 81.5t81.5 32.5q23 0 43.5 -8.5t35 -24t24 -36t9.5 -45.5q0 -23 -9.5 -44t-24 -36.5t-35 -24.5 t-43.5 -9q-48 0 -81.5 33t-33.5 81z" />
<glyph unicode=";" horiz-adv-x="558" d="M168 79q0 51 37 83.5t87 32.5q40 0 71 -17.5t51.5 -47t32 -65.5t11.5 -75q0 -226 -290 -325v45q40 10 78.5 34.5t67.5 58t46.5 74t17.5 83.5q0 40 -22 40q-8 0 -16.5 -4.5t-18.5 -10.5t-22.5 -10.5t-26.5 -4.5q-47 0 -75.5 27.5t-28.5 81.5zM199 820q0 47 32 78t77 31 q44 0 75.5 -31t31.5 -78q0 -23 -8.5 -42.5t-23 -34.5t-34 -23.5t-41.5 -8.5q-45 0 -77 32t-32 77z" />
<glyph unicode="&#x3c;" horiz-adv-x="1930" d="M386 519v121l1158 444v-121l-1036 -383l1036 -385v-121z" />
<glyph unicode="=" horiz-adv-x="1189" d="M48 359v83h1085v-83h-1085zM48 653v81h1085v-81h-1085z" />
<glyph unicode="&#x3e;" horiz-adv-x="1930" d="M386 74v121l1036 385l-1036 383v121l1158 -444v-121z" />
<glyph unicode="?" horiz-adv-x="891" d="M91 1078q0 73 31 125.5t81 87t113.5 50.5t128.5 16q71 0 137.5 -18t117.5 -56t81.5 -96.5t30.5 -137.5q0 -74 -26 -133t-65.5 -112.5t-86 -104t-87.5 -108t-70 -125.5t-32 -154h-41q4 118 38.5 224t94.5 207q39 66 65 139t26 154q0 52 -13.5 100t-41.5 86t-70.5 60.5 t-100.5 22.5q-27 0 -60 -7t-61 -22.5t-46.5 -40.5t-18.5 -59q0 -19 9.5 -42.5t20.5 -46t21 -44t10 -37.5q0 -32 -21.5 -57t-55.5 -25q-30 0 -50 15t-33.5 38t-19.5 50t-6 51zM320 82q0 23 9 44t24.5 36t35.5 24t43 9q45 0 77 -33t32 -80q0 -45 -32 -76.5t-77 -31.5t-78.5 30 t-33.5 78z" />
<glyph unicode="@" horiz-adv-x="1849" d="M96 437q0 199 69 372.5t192 303.5t292.5 204.5t372.5 74.5q153 0 281.5 -46t221.5 -132.5t145 -210.5t52 -282q0 -79 -15 -160t-44.5 -158t-75 -144.5t-105.5 -117.5t-135.5 -79.5t-164.5 -29.5q-71 0 -110 34t-39 107q0 34 4.5 68.5t11.5 67.5q-31 -38 -75.5 -85 t-96.5 -90t-107 -72.5t-107 -29.5q-45 0 -78.5 20.5t-55 53t-32 72t-10.5 78.5q0 64 20.5 140t57 152t86.5 148t109 127.5t126.5 88.5t137.5 33q142 0 172 -135l28 106l155 24q-5 -16 -22 -72.5t-39.5 -134t-48 -165.5t-47 -168t-35 -142t-13.5 -85q0 -30 22.5 -51t52.5 -21 q42 0 79.5 14.5t70.5 38.5t62 54.5t53 61.5q78 101 112.5 222.5t34.5 247.5q0 139 -48.5 250.5t-134 190.5t-201 121t-249.5 42q-129 0 -242 -35.5t-206.5 -99t-167 -151t-123.5 -191.5t-76.5 -220.5t-26.5 -237.5q0 -173 55 -316.5t156 -246.5t242.5 -161t315.5 -58 q138 0 258.5 38.5t219.5 108.5t177 170t133 224h56q-38 -139 -123.5 -250.5t-200.5 -189.5t-251 -120t-274 -42q-187 0 -343.5 67t-269.5 184t-177 276t-64 344zM642 287q0 -23 7 -48t21.5 -45t35.5 -32.5t48 -12.5q55 0 106 31t96 81t82 113.5t63.5 129t41.5 127.5t15 109 q0 31 -5 59.5t-19 51t-38 35.5t-60 13q-48 0 -97 -33t-92.5 -87t-81 -121t-65 -135t-43 -130.5t-15.5 -105.5z" />
<glyph unicode="A" horiz-adv-x="1442" d="M16 0v38q47 3 79 21.5t57 49t43.5 70t38.5 85.5l469 1093h34l461 -1101q19 -45 37 -83.5t42.5 -68t60 -47t89.5 -19.5v-38h-525v38q22 0 45.5 3t43 12t32.5 25.5t13 43.5q0 26 -15.5 73t-35 96.5t-39 92t-27.5 61.5h-515q-5 -10 -16 -34.5t-25.5 -55t-28.5 -64.5 t-26.5 -66.5t-20.5 -59.5t-8 -43q0 -26 17 -42t42 -25.5t51 -12.5t45 -4v-38h-418zM434 516h458l-226 541z" />
<glyph unicode="B" horiz-adv-x="1305" d="M35 0v38q62 0 99.5 8.5t57 29.5t26 59.5t6.5 98.5v860q0 62 -5.5 101t-25 61t-57 29.5t-101.5 7.5v35h572q60 0 125.5 -5t128 -18.5t118.5 -38.5t98 -64.5t67 -96t25 -133.5q0 -56 -19 -102.5t-51.5 -83.5t-77 -64.5t-94.5 -43.5q66 -12 120.5 -35.5t95 -62t62.5 -92.5 t22 -125q0 -78 -24.5 -136t-67.5 -98.5t-99.5 -65.5t-119.5 -39t-129 -19t-127 -5h-625zM412 96q57 -13 113 -20t115 -7q66 0 130 15t115.5 48t83.5 86t32 130q0 86 -38 144t-97 93t-133 50t-147 15q-42 0 -86.5 -0.5t-87.5 -7.5v-546zM412 732q47 -10 94.5 -11.5t92.5 -1.5 q69 0 134 11t115.5 41t81.5 80.5t31 131.5q0 78 -33.5 131t-86 86.5t-118 47.5t-132.5 14q-45 0 -90 -4.5t-89 -14.5v-511z" />
<glyph unicode="C" horiz-adv-x="1338" d="M71 645q0 148 49 277.5t138 226t213 152.5t276 56q51 0 94.5 -7t84.5 -19t80.5 -28t85.5 -36q19 0 33.5 9.5t23.5 22.5t15 28.5t10 29.5h35l28 -450h-28q-25 83 -63.5 153t-92 120.5t-126 79t-163.5 28.5t-160.5 -26.5t-122 -73.5t-88.5 -109.5t-57 -134.5t-31 -149.5 t-10 -152.5q0 -120 28.5 -225.5t89 -186.5t155 -127.5t225.5 -46.5q83 0 146 19.5t114.5 55t95 87t88.5 115.5l30 -21q-90 -162 -225.5 -253t-322.5 -91q-148 0 -268 51.5t-204.5 142.5t-130 214.5t-45.5 268.5z" />
<glyph unicode="D" horiz-adv-x="1447" d="M35 0v38q62 0 99.5 7.5t57 29t26 60t6.5 99.5v860q0 62 -5.5 101.5t-25 61t-57 29t-101.5 7.5v35h540q168 0 313 -31t252.5 -107t169 -202t61.5 -317q0 -169 -56.5 -294.5t-156 -209.5t-235 -125.5t-295.5 -41.5h-593zM412 96q51 -13 103.5 -21.5t104.5 -8.5 q130 0 229 47.5t165.5 129t101 190t34.5 230.5t-34.5 230t-102.5 188.5t-168 126.5t-230 46q-52 0 -102 -7.5t-101 -22.5v-1128z" />
<glyph unicode="E" horiz-adv-x="1224" d="M43 0v38q62 0 99 7.5t56.5 29t26 60t6.5 99.5v866q0 62 -5 99.5t-24.5 58.5t-57 28t-101.5 7v35h1022l15 -289h-36q-17 64 -32 106t-40.5 66.5t-69 35t-117.5 10.5h-366v-525h292q61 0 98 8.5t60 30t34 58.5t19 95h36v-464h-36q-8 58 -19 96t-33.5 61t-59.5 32t-99 9 h-292v-437q0 -39 1.5 -67t13 -46t33.5 -27.5t63 -9.5h224q87 0 143 14.5t97 45.5t73.5 81.5t72.5 120.5h42l-117 -333h-1022z" />
<glyph unicode="F" horiz-adv-x="1115" d="M32 0v38q64 0 102 8.5t57.5 29.5t24.5 59.5t5 98.5v860q0 60 -6 98.5t-25.5 61t-57 31t-100.5 8.5v35h990l14 -289h-35q-19 65 -42.5 107t-57.5 66.5t-81.5 34.5t-113.5 10h-297v-523h244q48 0 79 12t50 35.5t28 57t15 77.5h38v-451h-38q0 95 -37 141.5t-135 46.5h-244 v-419q0 -61 6 -99.5t26 -60t58.5 -29t102.5 -7.5v-38h-570z" />
<glyph unicode="G" horiz-adv-x="1447" d="M69 645q0 148 54 278t149 227t224 152t279 55q75 0 139.5 -13t113 -28t79 -28t41.5 -13q13 0 22.5 10t15.5 23t8.5 26.5t3.5 22.5h34l35 -417h-35q-26 79 -65 144t-92 111t-123.5 71t-158.5 25q-130 0 -223.5 -51t-154.5 -135.5t-90.5 -193.5t-29.5 -225t30.5 -231.5 t93.5 -208.5t159.5 -150.5t228.5 -57.5q71 0 141 17.5t132 53.5v386q0 55 -5 91.5t-23.5 58.5t-52 31.5t-92.5 12.5v35h515v-35q-55 0 -84.5 -13t-44 -37.5t-17.5 -61t-3 -82.5v-407q-107 -62 -226 -91t-244 -29q-152 0 -286 45t-233 131.5t-157 213t-58 287.5z" />
<glyph unicode="H" horiz-adv-x="1447" d="M35 0v38q64 0 101.5 7.5t57 29t25 60t5.5 99.5v860q0 61 -6 99.5t-25.5 60.5t-57.5 30.5t-100 8.5v35h569v-35q-62 0 -99.5 -8.5t-59 -30.5t-29 -60t-7.5 -100v-380h622v380q0 61 -6.5 99.5t-27 60.5t-58.5 30.5t-101 8.5v35h570v-35q-58 0 -95 -7t-57.5 -26.5t-27.5 -55 t-7 -94.5v-889q0 -60 7 -96.5t27.5 -56t57 -25t95.5 -5.5v-38h-570v38q62 0 100.5 8.5t59 29.5t27 59.5t6.5 98.5v408h-622v-408q0 -61 6.5 -99.5t27.5 -60t59.5 -29t101.5 -7.5v-38h-569z" />
<glyph unicode="I" horiz-adv-x="668" d="M51 0v38q64 0 101.5 8.5t57 29.5t24.5 59.5t5 98.5v860q0 61 -5 99.5t-24.5 60.5t-57.5 30.5t-101 8.5v35h569v-35q-62 0 -100 -8.5t-58 -30.5t-26.5 -60t-6.5 -100v-860q0 -60 6 -98.5t25.5 -59.5t57 -29.5t102.5 -8.5v-38h-569z" />
<glyph unicode="J" horiz-adv-x="782" d="M43 120q0 101 99 101q40 0 63.5 -28t40.5 -62.5t32.5 -62.5t41.5 -28t40 16.5t21.5 39t8.5 47.5t1 43v908q0 60 -5.5 98.5t-25 61t-57.5 31t-103 8.5v35h569v-35q-64 0 -101.5 -8.5t-57 -30.5t-25 -60t-5.5 -100v-649q0 -83 -15.5 -168t-54.5 -153.5t-105 -112 t-166 -43.5q-34 0 -69 8t-63 27t-46 47.5t-18 69.5z" />
<glyph unicode="K" horiz-adv-x="1447" d="M35 0v38q64 0 101 7.5t56 29t24 60t5 99.5v860q0 60 -5 98.5t-24 61t-56 31t-101 8.5v35h564v-35q-61 0 -98 -8.5t-58 -30.5t-27.5 -60t-6.5 -100v-418q127 120 224 211.5t161.5 159t97 114.5t32.5 76q0 19 -9.5 30.5t-26 17.5t-38.5 7t-47 1v35h490v-35 q-52 0 -99.5 -19.5t-102.5 -61.5t-124 -109t-164 -162l-204 -204l493 -486q43 -43 84 -79.5t84.5 -64.5t93.5 -46t112 -23v-38h-633v38q17 0 36.5 2.5t36 9.5t26.5 20t10 34q0 10 -8.5 25t-20.5 30t-24.5 28t-20.5 21l-400 399l-59 -58v-315q0 -61 6 -99.5t26 -60t58 -29 t100 -7.5v-38h-564z" />
<glyph unicode="L" horiz-adv-x="1224" d="M38 0v38q47 0 83 5.5t60 23t37 50t13 86.5v923q0 52 -13 84.5t-37 50t-60.5 24t-82.5 6.5v37h577v-37q-48 0 -84.5 -6.5t-61 -24t-37.5 -50t-13 -84.5v-875q0 -49 7.5 -81t26.5 -51t51.5 -26t81.5 -7h133q96 0 161 11t112.5 41.5t84 85.5t73.5 144l34 -5l-114 -363h-1032 z" />
<glyph unicode="M" horiz-adv-x="1785" d="M35 0v38q62 0 98.5 7.5t56 29t25.5 59.5t6 97v869q0 53 -8.5 90t-29.5 60t-56.5 33t-91.5 10v35h374l483 -1038l474 1038h377v-35q-62 0 -100 -7.5t-57.5 -29t-25 -59.5t-5.5 -97v-869q0 -61 6.5 -98.5t26 -59t56.5 -28.5t99 -7v-38h-567v38q62 0 99.5 7.5t57.5 29 t26.5 59.5t6.5 97v887l-515 -1118h-31l-513 1118v-887q0 -61 6.5 -98.5t26 -59t56.5 -28.5t99 -7v-38h-460z" />
<glyph unicode="N" horiz-adv-x="1447" d="M10 1293v35h325l813 -995v767q0 60 -6.5 97.5t-27 59t-57.5 29t-99 7.5v35h464v-35q-62 0 -100 -7.5t-58 -29t-26 -59.5t-6 -97v-1121h-34l-878 1070v-818q0 -62 5.5 -99.5t25 -58.5t57.5 -28t100 -7v-38h-463v38q62 0 99.5 7.5t57 29t26 59.5t6.5 97v925 q-25 34 -46.5 59t-45.5 42.5t-55.5 26.5t-76.5 9z" />
<glyph unicode="O" horiz-adv-x="1447" d="M69 668q0 144 48.5 269.5t137 218.5t211 147t268.5 54q144 0 261.5 -55t201 -149.5t129 -219t45.5 -262.5q0 -142 -46.5 -269.5t-132 -224t-205.5 -153t-268 -56.5t-268.5 55.5t-205.5 151t-130.5 223t-45.5 270.5zM295 673q0 -66 8 -139t27.5 -143t50.5 -133.5t78 -112 t110.5 -77t146.5 -28.5q87 0 153 26t114 71t79.5 105.5t50.5 128.5t27 142t8 145q0 73 -7.5 148t-25.5 145.5t-49 131.5t-79.5 106.5t-116 72t-156.5 26.5q-83 0 -146.5 -26.5t-110 -72t-78 -106.5t-50 -129.5t-26.5 -140.5t-8 -140z" />
<glyph unicode="P" horiz-adv-x="1117" d="M35 0v38q62 0 99.5 7.5t57 29t24.5 60t5 99.5v860q0 62 -5 101t-24 61t-56 29.5t-101 7.5v35h484q90 0 184 -15.5t170 -56.5t124.5 -112t48.5 -183q0 -108 -37 -179t-100.5 -112.5t-148.5 -58.5t-180 -17q-42 0 -84 2.5t-87 7.5v-370q0 -61 7.5 -99.5t27.5 -60t57.5 -29 t100.5 -7.5v-38h-567zM409 671q40 -6 80.5 -9.5t82.5 -3.5q58 0 104.5 24t79 63.5t50 90.5t17.5 106q0 64 -19 120.5t-54.5 98t-88.5 66.5t-120 25q-32 0 -65.5 -6.5t-66.5 -13.5v-561z" />
<glyph unicode="Q" horiz-adv-x="1447" d="M69 666q0 144 48 270t136 219.5t209.5 147.5t269.5 54q146 0 264 -56t201 -151.5t128.5 -221t45.5 -265.5q0 -118 -33.5 -225.5t-96.5 -196t-153.5 -154t-203.5 -100.5q40 -69 89.5 -129.5t108.5 -107t130 -76t154 -37.5v-31q-108 5 -222.5 35.5t-223.5 81t-206 118 t-168 146.5q-242 84 -360 254q-117 171 -117 425zM295 666q0 -68 8 -141t27.5 -142.5t51 -132t78.5 -109.5t110.5 -75t148.5 -28q126 0 209 54.5t132 141t68.5 194t19.5 212.5q0 70 -8 144.5t-27 146.5t-50.5 136.5t-79 112.5t-113 77t-151.5 29t-150.5 -27t-111 -73 t-78 -107t-50 -130t-26.5 -142t-8 -141z" />
<glyph unicode="R" horiz-adv-x="1338" d="M35 0v38q64 0 101.5 7.5t57 29t25 60t5.5 99.5v860q0 62 -5.5 101t-25 61t-57 29.5t-101.5 7.5v35h501q57 0 119 -3.5t121.5 -16.5t112.5 -36t93.5 -61.5t64 -93t23.5 -129.5q0 -77 -25 -134t-68.5 -98t-103 -67.5t-128.5 -41.5l271 -383q36 -51 70 -90t73 -67.5 t86.5 -46t111.5 -22.5v-38h-356l-450 620q-38 -4 -78 -4q-17 0 -32.5 0.5t-31.5 2.5v-385q0 -61 7.5 -99.5t28 -60t59 -29t100.5 -7.5v-38h-569zM409 686q9 -1 24 -1.5t32 -0.5q71 0 140.5 14t124 47.5t88 88.5t33.5 138q0 64 -20.5 116t-59 89t-91 57t-116.5 20 q-38 0 -76 -5t-79 -12v-551z" />
<glyph unicode="S" horiz-adv-x="1115" d="M127 1009q0 82 32 146t85.5 109t123 69t145.5 24q44 0 90 -11.5t86.5 -25.5t74.5 -25.5t56 -11.5q16 0 26.5 8t18 19t12 24t7.5 23h38v-458h-38q-6 78 -33.5 148t-74 121t-112 81.5t-148.5 30.5q-44 0 -85.5 -14t-75 -41t-53.5 -64t-20 -83q0 -55 31 -99t82.5 -82 t116.5 -72.5t133.5 -70t133.5 -76t116 -90t82.5 -109.5t31.5 -138q0 -87 -35.5 -156t-93 -117.5t-133 -74t-156.5 -25.5q-53 0 -106 12t-100.5 26.5t-86.5 26.5t-64 12q-16 0 -27 -7t-18 -18.5t-11 -25t-5 -26.5h-35v458h35q10 -84 40 -154.5t79.5 -120.5t119 -78t157.5 -28 q48 0 95.5 14t84.5 41t60.5 68t23.5 96q0 57 -30.5 103t-80 86t-113 75.5t-129 72t-129.5 76.5t-113.5 89t-80 108t-30.5 135z" />
<glyph unicode="T" horiz-adv-x="1221" d="M48 1016l13 312h1102l13 -312h-43q-12 113 -69 171t-175 58h-186v-1014q0 -61 5.5 -98.5t25 -59t56.5 -28.5t99 -7v-38h-561v38q62 0 98.5 7.5t56 29t25 59.5t5.5 97v1014h-159q-62 0 -109 -11t-79 -37t-49.5 -70t-22.5 -111h-46z" />
<glyph unicode="U" horiz-adv-x="1447" d="M30 1293v35h534v-35q-57 0 -91 -10t-52 -34.5t-24 -62t-6 -92.5v-581q0 -92 12.5 -176t49.5 -147t105.5 -100t178.5 -37q90 0 171.5 28.5t148.5 91.5q32 30 50.5 78.5t27.5 102.5t11 107.5t2 94.5v538q0 62 -6 101t-26 61t-58 29.5t-100 7.5v35h472v-35q-60 0 -97.5 -11 t-58.5 -35t-29 -63.5t-8 -96.5v-541q0 -136 -25 -243.5t-84.5 -181.5t-158 -113.5t-245.5 -39.5q-162 0 -264.5 40t-159.5 117.5t-77 190t-20 256.5v522q0 55 -5.5 92.5t-23 62t-52 34.5t-92.5 10z" />
<glyph unicode="V" horiz-adv-x="1447" d="M18 1293v35h541v-35q-21 -1 -46.5 -5t-48 -13.5t-37.5 -27t-15 -46.5q0 -36 13 -71.5t33 -80.5l337 -777l315 772q5 13 13.5 33t15 41.5t12 41.5t5.5 36q0 26 -15 43t-36.5 28t-46.5 16.5t-44 9.5v35h411v-35q-42 -6 -73 -23t-54.5 -41.5t-40.5 -56.5t-33 -70l-462 -1134 h-35l-498 1147q-18 42 -35 73t-40 53t-55.5 34.5t-80.5 17.5z" />
<glyph unicode="W" horiz-adv-x="1895" d="M26 1293v35h490v-35q-19 0 -42 -2.5t-42 -10t-31 -23.5t-12 -43q0 -16 4.5 -36.5t11.5 -42.5t14 -43t13 -35l259 -748l221 636q-17 62 -38 124.5t-50.5 112t-69.5 80.5t-96 31v35h518v-35q-25 0 -50 -1t-45 -9.5t-32.5 -26t-12.5 -50.5q0 -40 14.5 -89t27.5 -84l256 -724 l253 735q5 16 12.5 36.5t13 42.5t9.5 43.5t4 37.5q0 29 -13.5 46t-35 27t-46.5 13t-48 3v35h394v-35q-38 0 -66 -12t-49.5 -35t-38 -55.5t-29.5 -72.5l-393 -1150h-41l-302 850l-300 -850h-38l-391 1104q-16 43 -29 83.5t-33.5 71t-53 48.5t-87.5 18z" />
<glyph unicode="X" horiz-adv-x="1447" d="M13 0v38q39 0 79.5 15t79.5 40t74.5 58.5t65.5 69.5l346 434l-264 384q-35 51 -69.5 95.5t-75.5 78.5t-90.5 55t-115.5 25v35h615v-35q-18 -1 -42.5 -4t-45.5 -11t-36 -23t-15 -38q0 -18 16.5 -52.5t42 -77t56 -88t58.5 -85t49.5 -69t27.5 -38.5q5 6 30 35t58 69t70 87 t68.5 90.5t51.5 79.5t20 54q0 23 -16 37.5t-39.5 21.5t-47.5 9t-40 3v35h471v-35q-45 -3 -80.5 -13.5t-68 -33t-65 -56.5t-71.5 -84l-292 -369l325 -482q34 -51 66 -90.5t65.5 -67t70.5 -43t80 -16.5v-38h-571v38q18 0 41.5 2t43.5 9.5t34.5 22.5t14.5 40q0 16 -21 55.5 t-52 90.5t-68 107t-69 104t-54.5 80.5t-25.5 36.5l-279 -357q-8 -10 -18.5 -24.5t-19.5 -30t-15.5 -32t-6.5 -30.5q0 -23 13 -38.5t32.5 -23t41.5 -10t41 -2.5v-38h-474z" />
<glyph unicode="Y" horiz-adv-x="1447" d="M18 1293v35h568v-35q-21 0 -47.5 -2.5t-50 -11t-39 -26t-15.5 -47.5q0 -19 24 -66.5t61 -108t80 -126t80 -121t62.5 -93t27.5 -41.5l264 409q8 13 18.5 30t19.5 36t15 38.5t6 34.5q0 27 -13 45.5t-32.5 29.5t-43 15.5t-45.5 4.5v35h464v-35q-49 0 -85.5 -13t-66.5 -37 t-56 -57.5t-53 -76.5l-349 -545v-333q0 -61 6.5 -98.5t26 -59t56.5 -28.5t100 -7v-38h-564v38q62 0 98.5 7.5t55.5 29t24 59.5t5 97v315l-361 556q-21 32 -45 66t-52.5 62t-64 45.5t-79.5 17.5z" />
<glyph unicode="Z" horiz-adv-x="1224" d="M26 0v38l850 1214h-424q-74 0 -121.5 -14t-76.5 -43.5t-45.5 -79t-27.5 -119.5h-37l29 332h983l-874 -1249h543q75 0 126.5 19t86 54.5t58 87t44.5 116.5l29 -5l-62 -351h-1081z" />
<glyph unicode="[" horiz-adv-x="896" d="M251 -261v1622l359 52l18 -103l-245 -37v-1443l245 -41l-18 -104z" />
<glyph unicode="\" horiz-adv-x="558" d="M3 1392h85l476 -1422h-79z" />
<glyph unicode="]" horiz-adv-x="896" d="M244 -218l251 40v1445l-251 41l25 102l359 -53v-1623l-359 -54z" />
<glyph unicode="^" horiz-adv-x="1930" d="M460 18l445 1158h119l445 -1158h-120l-383 1036l-386 -1036h-120z" />
<glyph unicode="_" horiz-adv-x="965" d="M0 -155h966v-71h-966v71z" />
<glyph unicode="`" horiz-adv-x="753" d="M112 1291q0 75 61 75q52 0 117 -65l279 -279h-82l-287 182q-88 55 -88 87z" />
<glyph unicode="a" horiz-adv-x="891" d="M71 213q0 55 25.5 100.5t67 83t95 68t109.5 54.5t109 42.5t95 32.5v36q0 45 -6 87.5t-24 76t-50.5 53t-87.5 19.5q-45 0 -71 -12.5t-40 -35.5t-17.5 -53.5t-3.5 -66.5q0 -44 -17 -69t-67 -25q-45 0 -63 26t-18 68q0 61 32.5 104t81 70t105.5 39.5t108 12.5q84 0 142 -16 t93 -53t50 -95.5t15 -142.5v-305v-41.5t1 -44t1.5 -40t3.5 -31.5q3 -18 11.5 -33t30.5 -15q10 0 26 9.5t31.5 22.5t29.5 26t20 21v-56q-18 -25 -41 -51.5t-49.5 -48t-57.5 -35t-65 -13.5q-31 0 -51.5 13t-32 34.5t-16 47.5t-4.5 53q-32 -26 -65 -52t-68 -47.5t-72.5 -35 t-81.5 -13.5q-51 0 -90.5 17.5t-67 48.5t-42 73.5t-14.5 91.5zM237 259q0 -30 9 -58.5t27 -52t43.5 -38t59.5 -14.5q26 0 52 9t51 24t49 32.5t44 33.5v343q-49 -18 -107.5 -44t-109.5 -60.5t-84.5 -78t-33.5 -96.5z" />
<glyph unicode="b" d="M-8 1286l272 106h45v-650q25 35 55.5 67.5t65.5 58t75.5 41t85.5 15.5q88 0 153.5 -39.5t107.5 -102.5t62.5 -141t20.5 -156q0 -99 -33.5 -192t-94 -164.5t-146 -115t-190.5 -43.5q-90 0 -172.5 34t-154.5 84v952q0 57 -1 99.5t-8.5 70t-21.5 41.5t-39 14 q-18 0 -34.5 -4.5t-34.5 -8.5zM309 144q42 -44 96 -71.5t116 -27.5q69 0 116 39t75 97.5t40 125.5t12 122q0 56 -13 119t-43.5 115.5t-78.5 87t-118 34.5q-29 0 -57 -9t-53 -24t-48.5 -33t-43.5 -38v-537z" />
<glyph unicode="c" horiz-adv-x="891" d="M66 447q0 94 30 180.5t86 152.5t135 105t178 39q44 0 98 -13.5t99.5 -41t77 -67.5t32.5 -94q0 -44 -26 -63.5t-68 -19.5q-44 0 -64.5 17.5t-30 43.5t-13 56.5t-16 56.5t-40 43.5t-81.5 17.5q-65 0 -110 -30.5t-72.5 -78.5t-39.5 -105.5t-12 -112.5q0 -66 15.5 -137.5 t50.5 -131.5t90.5 -98.5t133.5 -38.5q55 0 97.5 18.5t75.5 49.5t58.5 72t44.5 87l30 -13q-12 -70 -43 -136.5t-79.5 -118.5t-113 -84t-139.5 -32q-97 0 -169.5 42.5t-120 110.5t-71 153t-23.5 171z" />
<glyph unicode="d" d="M66 409q0 94 30 185.5t86.5 165t138 119t182.5 45.5q55 0 105 -17.5t90 -57.5v291q0 58 -16 91.5t-54 33.5q-18 0 -34.5 -3.5t-34.5 -9.5l-13 34l272 106h42v-1116q0 -39 2 -71t9.5 -55t21.5 -36t39 -13q16 0 33.5 4.5t35.5 11.5l10 -35l-271 -112h-42v131 q-55 -57 -120.5 -94t-143.5 -37q-88 0 -156.5 39t-115 102t-71.5 141.5t-25 156.5zM247 490q0 -62 14.5 -133.5t46 -133.5t84.5 -103t129 -41q53 0 98 27t79 64v463q0 42 -15.5 83.5t-43.5 74.5t-66.5 54t-82.5 21q-70 0 -117 -38t-75 -94.5t-39.5 -122t-11.5 -121.5z" />
<glyph unicode="e" horiz-adv-x="891" d="M74 439q0 97 25.5 185t76.5 154.5t130 106t184 39.5q81 0 144.5 -27t107.5 -76t67.5 -116t23.5 -146h-620q0 -73 19.5 -148.5t60 -137t102 -101t146.5 -39.5q52 0 93 16t72.5 45.5t55 69t41.5 84.5l30 -20q-10 -70 -40.5 -134.5t-78.5 -114t-111.5 -79.5t-137.5 -30 q-96 0 -169.5 40.5t-123 106.5t-74 150t-24.5 172zM213 615h415q0 44 -11 87.5t-35 76.5t-60.5 54t-87.5 21t-90 -20t-66.5 -53.5t-44 -77t-20.5 -88.5z" />
<glyph unicode="f" horiz-adv-x="668" d="M74 825v72h177v61q0 86 23.5 164.5t70 138.5t117 95.5t163.5 35.5q32 0 76 -11t81.5 -32.5t64 -53t26.5 -71.5q0 -14 -7 -28t-18 -25.5t-25.5 -18.5t-29.5 -7q-32 0 -57 27.5t-51 60.5t-58 60.5t-78 27.5q-48 0 -75.5 -27.5t-41 -72.5t-17 -104.5t-3.5 -123.5v-96h233 v-72h-233v-588q0 -68 7 -107.5t29.5 -60t63 -26t108.5 -5.5v-38h-541v38q58 0 92 11t51.5 35t23 61.5t5.5 91.5v588h-177z" />
<glyph unicode="g" d="M58 -247q0 27 21.5 64t51 73t60 68t48.5 50q-13 8 -28.5 19.5t-30 26t-24 30.5t-9.5 33q0 27 17 57.5t41.5 59.5t51 53.5t46.5 40.5q-39 18 -71 46.5t-54 64t-33.5 76.5t-11.5 84q0 75 29 135.5t78.5 102.5t114 64.5t135.5 22.5q43 0 84 -11t81 -24t80.5 -24t82.5 -11 q26 0 52 3t52 3t35 -5t9 -37q0 -31 -25 -41t-57 -10q-26 0 -52 2t-44 3q29 -38 41 -85t12 -93q0 -75 -29.5 -131.5t-78.5 -95t-113 -58t-133 -19.5q-34 0 -68 4.5t-68 14.5q-26 -21 -50 -48t-24 -61q0 -30 29 -43t76.5 -18t108.5 -5t125 -2.5t125 -12t108.5 -32t76.5 -63 t29 -106.5q0 -60 -23 -109t-62 -89t-90.5 -68.5t-107.5 -48t-113 -28.5t-107 -9q-25 0 -64.5 4.5t-83 14t-87.5 24.5t-79 36t-57.5 47.5t-22.5 60.5zM200 -173q0 -30 19.5 -52t50 -37.5t69 -26t76 -16.5t71 -8t55.5 -2q44 0 103 8.5t112.5 31t90.5 60t37 95.5q0 19 -8.5 34 t-22 24.5t-31 16t-34.5 10.5q-38 9 -103 14t-137 8.5t-141 6t-115 6.5q-14 -16 -29.5 -36t-30 -42.5t-23.5 -46.5t-9 -48zM303 642q0 -47 8.5 -100t31 -98.5t61 -75.5t96.5 -30q51 0 83.5 19.5t51.5 52t26 73.5t7 84q0 45 -8.5 99t-30.5 101t-59.5 78t-95.5 31 q-49 0 -82 -21.5t-52.5 -54.5t-28 -75.5t-8.5 -82.5z" />
<glyph unicode="h" d="M10 1286l272 106h46v-655q26 39 57 73t68 59t80 40t92 15q86 0 133.5 -39.5t70 -99.5t27 -131.5t4.5 -134.5v-336q0 -42 5 -69t19 -44.5t40 -24.5t69 -7v-38h-442v38q44 0 72 6.5t44.5 22.5t22 44t5.5 72v353q0 51 -3 98.5t-17.5 85.5t-43 60.5t-80.5 22.5q-34 0 -65 -11 t-59.5 -28.5t-53.5 -41t-45 -46.5v-493q0 -45 4.5 -73t20 -44.5t43.5 -22t75 -5.5v-38h-445v38q43 0 70 7t43 24.5t21 45t5 68.5v948q0 62 -11.5 99t-54.5 37q-18 0 -36.5 -4.5t-36.5 -10.5z" />
<glyph unicode="i" horiz-adv-x="558" d="M61 815l272 109h43v-741q0 -43 5 -71t20 -44.5t41.5 -23t70.5 -6.5v-38h-439v38q44 0 71.5 6.5t42.5 23t20 44.5t5 71v480q0 22 -2 45.5t-9 43t-20.5 31.5t-37.5 12q-16 0 -34 -4.5t-36 -10.5zM195 1204q0 42 29 69.5t71 27.5q40 0 69.5 -28.5t29.5 -68.5 q0 -42 -28.5 -72t-70.5 -30t-71 28.5t-29 73.5z" />
<glyph unicode="j" horiz-adv-x="558" d="M-155 -335q0 34 23.5 59t57.5 25t59 -16t46.5 -35t43 -35.5t47.5 -16.5q32 0 51 22.5t27.5 57.5t10.5 79t2 88v708q0 40 -2 75.5t-8.5 61t-21.5 40.5t-39 15q-31 0 -68 -13l-13 35l272 109h43v-906q0 -87 -18.5 -168t-60 -144t-109 -101.5t-167.5 -38.5q-21 0 -51 5 t-58 17t-47.5 30.5t-19.5 46.5zM191 1204q0 40 29.5 68.5t69.5 28.5t70.5 -28.5t30.5 -68.5q0 -42 -30 -72t-71 -30q-42 0 -70.5 28.5t-28.5 73.5z" />
<glyph unicode="k" d="M13 0v38q51 0 80 6.5t44.5 24t20 48.5t4.5 81v916q0 82 -13.5 117.5t-52.5 35.5q-17 0 -32.5 -4.5t-31.5 -10.5l-19 34l272 106h45v-876l226 192q8 6 23.5 20t31.5 29.5t27.5 32t11.5 28.5q0 13 -6.5 22.5t-17 15.5t-23 8.5t-23.5 3.5v29h388v-29q-42 -3 -75 -8.5 t-61.5 -18.5t-55 -32.5t-57.5 -46.5l-237 -211l282 -352q43 -53 73 -85t56.5 -49t54.5 -22t66 -5v-38h-434v38q9 0 20 0.5t20 4.5t15.5 10.5t6.5 17.5q0 22 -13 42t-25 36l-274 346v-292q0 -47 3.5 -79t17 -51.5t42.5 -27t81 -7.5v-38h-461z" />
<glyph unicode="l" horiz-adv-x="558" d="M58 1286l270 106h42v-1189q0 -45 5 -76.5t19.5 -51t43.5 -28.5t78 -9v-38h-442v38q47 0 73.5 11t40 31.5t17 51t3.5 71.5v901q0 32 -2 61.5t-10 51.5t-22 35t-39 13q-16 0 -30 -3.5t-31 -9.5z" />
<glyph unicode="m" horiz-adv-x="1562" d="M13 815l272 109h43v-190q31 34 64.5 68t72 61t81.5 44t94 17q96 0 151 -50t77 -140q31 36 64.5 70t71 61t81 43t97.5 16q73 0 119 -29t72.5 -76t36 -106.5t9.5 -121.5v-388q0 -42 3.5 -73t17 -52t41 -30.5t74.5 -9.5v-38h-445v38q52 0 81.5 7.5t43 27t16.5 51.5t3 79v388 q0 38 -5.5 76.5t-22 69.5t-45.5 50.5t-76 19.5q-34 0 -66 -10.5t-61 -28t-55 -39.5t-50 -45v-481q0 -47 4 -79t18.5 -51.5t43.5 -27t80 -7.5v-38h-455v38q53 0 82.5 7.5t43.5 26.5t17.5 51t3.5 80v388q0 39 -6.5 78t-22.5 70.5t-46 51t-77 19.5q-35 0 -67 -11t-61 -28.5 t-54.5 -40.5t-48.5 -46v-481q0 -47 3.5 -79t18 -51.5t44.5 -27t80 -7.5v-38h-444v38q48 0 74.5 9.5t40.5 29.5t17 51.5t3 74.5v429q0 30 -2 59t-8.5 52.5t-20.5 37.5t-38 14q-17 0 -34 -4.5t-32 -10.5z" />
<glyph unicode="n" d="M10 815l275 109h40v-190q27 32 60.5 66t71 61.5t80.5 45t88 17.5q73 0 119 -30t72 -78.5t35 -109t9 -120.5v-383q0 -43 4 -74.5t18 -51.5t41.5 -29.5t77.5 -9.5v-38h-450v38q51 0 80 7.5t44 26.5t19 51t4 80v366q0 38 -3.5 79.5t-17.5 76t-42.5 56.5t-78.5 22 q-35 0 -67.5 -11t-61.5 -28.5t-54.5 -41t-47.5 -46.5v-473q0 -47 4 -79t18 -51.5t43.5 -27t80.5 -7.5v-38h-448v38q49 0 76.5 9.5t41.5 29.5t16.5 51.5t2.5 74.5v413q0 34 -2 66t-9 57t-21 40.5t-37 15.5q-17 0 -34 -4.5t-34 -10.5z" />
<glyph unicode="o" d="M66 439q0 95 30.5 182t88 155t138 108t180.5 40q97 0 177 -35.5t136.5 -98t87.5 -146.5t31 -179q0 -97 -31 -187t-88 -158t-139 -109t-184 -41q-97 0 -176 39t-134.5 104.5t-86 150t-30.5 175.5zM251 521q0 -43 6 -95t19 -105t34 -103t52.5 -89t73.5 -62.5t97 -23.5 q70 0 113 33t66.5 84.5t31 112.5t7.5 116q0 43 -5 95t-18 104.5t-34 101t-52 87t-74 61t-97 22.5q-66 0 -109.5 -33t-68 -83t-33.5 -109.5t-9 -113.5z" />
<glyph unicode="p" d="M-10 -394q55 1 86 9.5t45.5 28t18.5 53.5t4 87v849q0 36 -2 65.5t-9 49.5t-21.5 31t-40.5 11q-35 0 -66 -15l-10 35l279 112h38v-211q23 40 52 78.5t64.5 68.5t78 48t92.5 18q87 0 151.5 -41t105.5 -104.5t61 -142.5t20 -154q0 -91 -26 -182.5t-78 -164.5t-129 -119 t-180 -46q-60 0 -114 21t-98 62v-274q0 -49 4 -81.5t19 -52t44.5 -29t83.5 -10.5v-38h-473v38zM312 317q0 -56 6.5 -107t28.5 -91t63 -63.5t111 -23.5q71 0 121.5 33.5t80.5 85.5t43.5 115t13.5 123q0 62 -11 134t-39.5 134.5t-78.5 104t-130 41.5q-55 0 -106 -44t-103 -106 v-336z" />
<glyph unicode="q" d="M66 409q0 101 32 195t91 165t145.5 113t195.5 42q48 0 97.5 -13t86.5 -51q60 27 111 64h35v-1155q0 -45 5 -76.5t19.5 -50.5t43.5 -27.5t78 -8.5v-38h-455v38q48 0 77.5 8t45 26.5t20 50t4.5 78.5v388q-27 -34 -60.5 -67t-70.5 -59.5t-79 -43.5t-86 -17q-84 0 -147.5 41 t-105 105.5t-62.5 141.5t-21 151zM231 482q0 -64 14.5 -130t46.5 -120t84 -88.5t127 -34.5q58 0 107.5 32.5t87.5 74.5v424q0 100 -47 157t-153 57q-77 0 -127.5 -35t-82 -89t-44.5 -119.5t-13 -128.5z" />
<glyph unicode="r" horiz-adv-x="686" d="M8 815l277 109h40v-203q17 31 40.5 66.5t52.5 66t63.5 50.5t74.5 20q23 0 47 -7t41.5 -21.5t28.5 -34.5t11 -46q0 -36 -27 -63.5t-63 -27.5q-25 0 -43 11t-34.5 23.5t-30.5 23.5t-31 11q-29 0 -64 -44.5t-66 -106.5v-434q0 -86 32.5 -128t124.5 -42v-38h-464v38 q51 0 79 7.5t42 27t17.5 51.5t3.5 79v387q0 47 -2 84t-10 63.5t-24 41t-45 14.5t-61 -13z" />
<glyph unicode="s" horiz-adv-x="782" d="M99 684q0 62 24.5 107t65 75t93 44t107.5 14q26 0 50.5 -5t49 -12.5t49 -12.5t48.5 -5q16 0 25.5 10.5t16.5 24.5h35v-307h-35q-10 48 -29 93t-47.5 80t-69.5 56.5t-96 21.5q-29 0 -59.5 -5t-55.5 -18t-41.5 -37t-16.5 -61q0 -65 37 -105.5t92.5 -71.5t119.5 -58 t119.5 -63t92.5 -88.5t37 -134.5q0 -58 -27.5 -105t-70 -81t-96.5 -52t-108 -18q-31 0 -64 10t-64 21.5t-59 21t-52 9.5q-6 0 -11.5 -5.5t-10 -13t-7.5 -15t-6 -11.5h-34v320h34q10 -53 32.5 -102.5t57 -88t80.5 -61.5t104 -23q30 0 58 8.5t49.5 25.5t34.5 42t13 57 q0 62 -34.5 104.5t-86.5 75t-111.5 61.5t-111.5 66.5t-86.5 87.5t-34.5 124z" />
<glyph unicode="t" horiz-adv-x="558" d="M16 831v29q51 19 93 56t76.5 83t61 96.5t45.5 97.5h30v-296h211v-66h-211v-600q0 -22 3.5 -48t12.5 -48.5t26.5 -37.5t44.5 -15q44 0 70.5 22.5t41.5 60.5h38q-10 -38 -31 -73t-50.5 -62t-65.5 -43.5t-77 -16.5q-53 0 -87 20t-54.5 53.5t-28.5 76t-8 88.5v623h-141z" />
<glyph unicode="u" d="M0 860v37h317v-599q0 -39 6 -75.5t22 -65t45.5 -46t74.5 -17.5q32 0 63.5 11.5t60 29.5t54 41t46.5 45v508q0 40 -8.5 66t-26 40.5t-45.5 19.5t-66 5v37h308v-660q0 -14 1.5 -38t7.5 -45t18 -37t34 -16q39 0 81 16l13 -35l-272 -112h-45v192q-30 -32 -64 -66t-72 -62 t-80.5 -46t-89.5 -18q-73 0 -118 32.5t-70.5 83t-34 113t-8.5 121.5v401q0 44 -8 71.5t-26 42.5t-47 20t-71 5z" />
<glyph unicode="v" d="M16 860v37h423v-37q-21 0 -40 -1t-33.5 -7.5t-23.5 -21t-9 -40.5q0 -22 6.5 -41.5t14.5 -37.5l208 -495l210 516q8 18 14.5 39.5t6.5 43.5q0 16 -8.5 25t-23 13.5t-32.5 5.5t-38 1v37h294v-37q-31 -1 -52 -9.5t-35 -23.5t-24.5 -36.5t-22.5 -48.5l-315 -772h-41l-322 762 q-14 32 -28 54t-31.5 36.5t-41.5 23.5t-56 14z" />
<glyph unicode="w" horiz-adv-x="1447" d="M10 860v37h379v-37q-32 0 -57 -11t-25 -51q0 -18 3 -37t10 -34l193 -516l193 419q-17 47 -28.5 88t-30.5 72t-49 50t-85 20v37h429v-37q-22 -1 -43.5 -3.5t-39 -9.5t-28.5 -22t-11 -43q0 -10 13.5 -50.5t35 -96t47.5 -118.5t50 -121t43 -103t27 -62l186 496q8 21 14.5 42 t6.5 43q0 17 -10.5 26t-25 14.5t-30.5 6.5t-29 1v37h284v-37q-48 -6 -78.5 -36.5t-48.5 -76.5l-299 -777h-40l-226 576l-258 -576h-37l-290 757q-12 31 -23 53.5t-26.5 38t-38 25.5t-57.5 16z" />
<glyph unicode="x" d="M26 860v37h424v-37h-11q-26 0 -44.5 -9t-18.5 -39q0 -12 17.5 -43t40 -67t44 -68t30.5 -45q9 13 33 45t49 67.5t44 68t19 45.5q0 29 -24.5 37t-48.5 8v37h304v-37q-52 -1 -102 -40.5t-93.5 -93t-80 -109t-61.5 -89.5l233 -330q35 -51 60.5 -82.5t47.5 -48t43.5 -22.5 t48.5 -7v-38h-424v38q14 0 30 2t29 7.5t21.5 16.5t8.5 30q0 9 -12.5 31.5t-32 53t-42 64.5t-45 64.5t-39 54.5t-24.5 34q-9 -12 -28.5 -35t-43 -52.5t-48.5 -61t-45 -61.5t-33 -53.5t-13 -36.5q0 -18 8.5 -29t21.5 -17.5t28.5 -9t30.5 -2.5v-38h-293v38q19 0 37 8.5t39.5 28 t47.5 51t62 79.5l188 250l-170 248q-23 35 -44.5 63t-45.5 49t-53.5 32.5t-69.5 12.5z" />
<glyph unicode="y" d="M10 860v37h422v-37q-19 0 -39 -1t-36 -7t-26.5 -19t-10.5 -38q0 -27 11 -54t23 -52l218 -452l200 497q8 18 14.5 36.5t6.5 36.5q0 19 -8.5 30.5t-22 16.5t-30 5.5t-31.5 0.5v37h292v-37q-31 -3 -51 -13.5t-34.5 -28t-25 -41t-22.5 -50.5l-365 -897q-19 -45 -48.5 -93 t-68.5 -85.5t-85.5 -61.5t-101.5 -24q-25 0 -49 7t-42 21.5t-30 35t-12 48.5q0 48 27.5 68t71.5 20q18 0 36 -5t35.5 -12.5t34 -12.5t32.5 -5q26 0 49.5 19t43.5 48t37 65t30.5 69.5t23.5 62t16 43.5l-322 676q-13 26 -27.5 51t-33 45.5t-44 33.5t-58.5 16z" />
<glyph unicode="z" horiz-adv-x="891" d="M40 0v38l596 793h-295q-56 0 -92.5 -6.5t-59.5 -26t-34 -55.5t-17 -93h-37l6 247h753v-37l-604 -794h330q69 0 109.5 8.5t63 31.5t33 63t18.5 105h34l-13 -274h-791z" />
<glyph unicode="{" horiz-adv-x="957" d="M213 455v51q40 5 80.5 22.5t73 45t52.5 63.5t20 79q0 40 -7 79t-15.5 78t-15.5 78t-7 80q0 73 31 136t83 110.5t117 78t134 36.5v-35q-103 -23 -160.5 -86t-57.5 -171q0 -34 6.5 -68t15 -67.5t15 -67.5t6.5 -69q0 -134 -73.5 -218t-195.5 -128q123 -45 196 -130.5 t73 -221.5q0 -35 -6.5 -68t-15 -66.5t-15 -66.5t-6.5 -67q0 -109 57.5 -172t160.5 -86v-36q-71 8 -137 40t-116.5 82t-81 115t-30.5 139q0 38 7 75t15.5 74t15.5 74t7 75q0 43 -20 80t-52.5 65t-73 45.5t-80.5 22.5z" />
<glyph unicode="|" horiz-adv-x="401" d="M157 -434v1826h85v-1826h-85z" />
<glyph unicode="}" horiz-adv-x="957" d="M200 -396q101 23 160 86t59 172q0 34 -6.5 67t-15 66.5t-15 66.5t-6.5 68q0 68 19.5 123t54.5 98.5t84.5 75.5t110.5 55q-122 44 -195.5 128t-73.5 218q0 35 6.5 69t15 67.5t15 67.5t6.5 68q0 108 -58.5 171t-160.5 86v35q69 -6 134.5 -36.5t116.5 -78t82 -110.5t31 -136 q0 -40 -6.5 -79.5t-15 -78.5t-15 -78t-6.5 -79q0 -43 20.5 -79t52 -63.5t72 -45t79.5 -22.5v-51q-39 -5 -79.5 -22.5t-72 -45.5t-52 -65t-20.5 -80q0 -38 6.5 -75t15 -74t15 -74t6.5 -75q0 -74 -30.5 -139t-81 -115t-116.5 -82t-136 -40v36z" />
<glyph unicode="~" horiz-adv-x="1091" d="M40 434q22 42 47.5 83.5t58.5 74.5t75 53.5t96 20.5q56 0 118.5 -23.5t125 -51.5t121 -51.5t106.5 -23.5q38 0 69.5 15.5t57.5 40.5t47 56.5t36 62.5l56 -74q-21 -40 -48 -78.5t-61.5 -68t-76 -48t-91.5 -18.5q-61 0 -119.5 23t-117 49.5t-116 49.5t-117.5 23 q-40 0 -71.5 -18t-57 -45t-46 -59.5t-38.5 -63.5z" />
<glyph unicode="&#xa1;" horiz-adv-x="668" d="M222 -286q0 12 1 29t3 37l89 795h39l84 -795q5 -35 6.5 -49t1.5 -26q0 -66 -32.5 -102t-82.5 -36q-18 0 -37.5 8t-35 25.5t-26 45.5t-10.5 68zM226 844q0 23 9 44t23.5 35.5t34 24t41.5 9.5q17 0 36 -6.5t35.5 -20.5t28 -35t11.5 -51q0 -26 -10.5 -45.5t-26 -33.5 t-35 -21t-39.5 -7q-19 0 -38 7t-34.5 21t-25.5 34t-10 45z" />
<glyph unicode="&#xa2;" d="M122 447q0 94 30 180.5t86 152.5t135 105t178 39q43 0 82 -8l139 383h69l-143 -402q26 -10 54 -30t51.5 -44.5t38.5 -53.5t15 -61q0 -44 -25.5 -63.5t-67.5 -19.5t-61 13t-28 34t-12.5 47t-12.5 53l-218 -599q32 -22 68.5 -34t74.5 -12q55 0 97.5 18.5t75.5 49.5t58.5 72 t44.5 87l30 -13q-12 -70 -43 -136.5t-79.5 -118.5t-113 -84t-139.5 -32q-36 0 -70 8t-68 22l-134 -370h-69l147 402q-52 35 -88.5 81.5t-58.5 99.5t-32.5 112.5t-10.5 121.5zM285 533q0 -82 20 -164t76 -148l223 617q-39 22 -85 22q-65 0 -110 -30.5t-72.5 -78.5 t-39.5 -105.5t-12 -112.5z" />
<glyph unicode="&#xa3;" d="M58 101q0 73 46.5 114t116.5 41q19 0 40.5 -2t41.5 -7q3 17 3.5 32.5t0.5 32.5q0 84 -7.5 167.5t-14.5 167.5h-189v93h189q-3 48 -8 96.5t-5 98.5q0 81 24 156.5t70 135t113.5 95t156.5 35.5q44 0 88 -13t80 -39t58 -63.5t22 -85.5q0 -29 -22 -55t-52 -26q-36 0 -50.5 17 t-20 41.5t-6.5 54.5t-11.5 54.5t-34.5 41.5t-75 17q-57 0 -92 -26t-54 -65.5t-25.5 -88.5t-6.5 -93q0 -73 7 -145.5t14 -142.5h253v-93h-253q0 -56 -2 -108.5t-8 -104t-17.5 -102t-31.5 -103.5q27 -9 69.5 -23t88 -26t89 -21.5t71.5 -9.5q162 0 208 158l36 -9 q-6 -57 -27.5 -114.5t-57 -103t-84.5 -74.5t-113 -29q-48 0 -89.5 14.5t-80.5 37.5t-76 51t-74 55q-13 -27 -30.5 -55.5t-39.5 -51.5t-50.5 -37t-62.5 -14q-60 0 -87.5 33.5t-27.5 90.5zM117 109q0 -32 13.5 -53t50.5 -21q26 0 44.5 13t32.5 33t21.5 44t12.5 43 q-35 27 -84 27q-42 0 -66.5 -20t-24.5 -66z" />
<glyph unicode="&#xa4;" horiz-adv-x="1158" d="M58 378l198 199q-42 53 -62.5 116t-20.5 132t20 135t68 118l-203 202l69 72l203 -204q55 44 120 64t134 20q68 0 128.5 -20t112.5 -64l206 204l69 -72l-201 -200q44 -55 65 -119.5t21 -135.5q0 -69 -20.5 -132t-62.5 -116l198 -199l-69 -69l-200 199q-52 -45 -114.5 -67 t-132.5 -22q-73 0 -137.5 20.5t-118.5 68.5l-201 -199zM282 825q0 -62 23.5 -116.5t64.5 -95t95.5 -63t118.5 -22.5q61 0 114 23.5t93 64t62.5 94.5t22.5 115t-22.5 115t-63 95t-94 64.5t-112.5 23.5q-64 0 -118.5 -22.5t-95.5 -63t-64.5 -95t-23.5 -117.5z" />
<glyph unicode="&#xa5;" d="M3 1293v35h434v-35q-13 -1 -34 -4t-40.5 -9.5t-33.5 -18.5t-14 -29q0 -5 15.5 -46t40 -100.5t52.5 -129.5t54 -131.5t44 -106.5l22 -55l211 495q6 17 12 36t6 38t-11 31t-27.5 18.5t-36 8.5t-34.5 3v35h340v-35q-38 0 -63 -12t-44.5 -33.5t-34 -49t-28.5 -58.5l-213 -477 h365v-69h-391l-8 -19v-156h399v-73h-399v-107q0 -57 3.5 -94.5t19 -61t49 -33.5t96.5 -10v-40h-507v40q64 0 99 9t51 31.5t19 61.5t3 97v107h-401v73h401v140l-15 35h-386v69h352l-208 487q-14 31 -26.5 56.5t-30 43t-42 28.5t-60.5 15z" />
<glyph unicode="&#xa6;" horiz-adv-x="607" d="M256 -383v772h98v-772h-98zM256 650v772h98v-772h-98z" />
<glyph unicode="&#xa7;" d="M152 495q0 56 16.5 104t45.5 89t68 75.5t86 61.5q-21 26 -42.5 56t-39 62.5t-28.5 67t-11 69.5q0 57 22 107t60 88t88 60t107 22q48 0 93.5 -14.5t80.5 -42t56 -68t21 -92.5q0 -38 -17.5 -63t-59.5 -25q-30 0 -54 22t-24 52q0 25 6.5 48t6.5 48q0 52 -30 72.5t-79 20.5 q-36 0 -67.5 -13t-54 -35.5t-35.5 -53.5t-13 -68q0 -64 37 -115t92 -98.5t119.5 -94.5t119.5 -101t92 -118.5t37 -146.5q0 -57 -16 -105.5t-45.5 -90t-68.5 -76.5t-85 -64q47 -49 82.5 -111.5t35.5 -135.5q0 -60 -21 -111t-58.5 -88t-89 -58.5t-111.5 -21.5q-47 0 -91 15.5 t-77.5 44.5t-54 69t-20.5 89q0 34 19.5 60.5t56.5 26.5q35 0 55.5 -26t20.5 -58q0 -26 -9 -53.5t-9 -53.5q0 -21 12.5 -36t30 -24t38.5 -13t36 -4q31 0 62 13t55.5 35.5t40 51t15.5 59.5q0 64 -37 116.5t-93 102t-121.5 99t-121.5 104.5t-93 120.5t-37 147.5zM251 577 q0 -51 18 -91.5t48 -76t68.5 -66t77.5 -59.5t75.5 -58.5t63.5 -60.5q29 18 56 40t48 49.5t33 59.5t12 69q0 64 -38 122.5t-93 111t-114.5 97.5t-103.5 81q-31 -18 -58.5 -40t-47.5 -49.5t-32.5 -59.5t-12.5 -69z" />
<glyph unicode="&#xa8;" horiz-adv-x="599" d="M0 1204q0 19 8.5 36.5t22 31.5t31 21.5t37.5 7.5q40 0 70.5 -28.5t30.5 -68.5q0 -21 -8.5 -40t-22 -32.5t-32.5 -21.5t-38 -8q-40 0 -69.5 30.5t-29.5 71.5zM399 1204q0 19 8.5 36.5t23 31.5t32.5 21.5t37 7.5q40 0 69.5 -28.5t29.5 -68.5q0 -21 -7.5 -40t-21.5 -32.5 t-32 -21.5t-38 -8q-40 0 -70.5 30.5t-30.5 71.5z" />
<glyph unicode="&#xa9;" horiz-adv-x="1525" d="M66 663q0 148 54 275t147.5 219.5t220.5 146t274 53.5q148 0 275.5 -53.5t221 -146t146.5 -219.5t53 -275q0 -146 -54 -272.5t-147.5 -221t-220.5 -148t-274 -53.5t-274 53.5t-220.5 147.5t-147.5 220.5t-54 273.5zM130 663q0 -133 48.5 -248t134 -200t201 -134 t248.5 -49q134 0 249.5 49t201.5 134t135 200t49 248q0 134 -49 249.5t-135 201.5t-201.5 135.5t-249.5 49.5q-133 0 -248.5 -49.5t-201 -136t-134 -202.5t-48.5 -248zM312 658q0 105 39 189.5t105.5 143.5t155.5 90.5t189 31.5q31 0 63 -7.5t61 -16t53.5 -15.5t40.5 -7 q18 0 30 15t18 31h38l21 -275h-37q-36 107 -108 168t-191 61q-84 0 -144 -31t-97.5 -84t-56 -121.5t-18.5 -144.5q0 -78 18 -150.5t56 -128.5t100.5 -89t152.5 -33q196 0 304 157l38 -21q-69 -99 -163.5 -149.5t-212.5 -50.5q-94 0 -177 32.5t-145 90.5t-97.5 138t-35.5 176 z" />
<glyph unicode="&#xaa;" horiz-adv-x="639" d="M49 918q0 30 13 56.5t52 53.5t109.5 56.5t185.5 63.5v21q0 78 -29.5 109.5t-92.5 31.5q-43 0 -68 -19.5t-28 -46.5q1 -8 2 -19t1 -17q0 -27 -16.5 -41t-42.5 -14q-60 0 -60 56q0 31 19.5 56.5t52 43t75 26.5t89.5 9q70 0 112 -13t65.5 -37t30.5 -58t7 -75v-184 q0 -78 4 -94q4 -17 10.5 -23.5t21.5 -6.5q5 0 10.5 1t13.5 5.5t20.5 14.5t30.5 27v-34q-78 -87 -152 -87q-30 0 -53 18t-23 69q-43 -27 -70.5 -44t-49 -27t-40.5 -13t-45 -3q-70 0 -112.5 37.5t-42.5 100.5zM57 641v43h570v-43h-570zM170 944q0 -40 29.5 -69t69.5 -29 q53 0 140 60v207q-82 -27 -129 -49.5t-72 -42.5t-31.5 -39t-6.5 -38z" />
<glyph unicode="&#xab;" horiz-adv-x="849" d="M100 340q0 126 68 235q68 112 184 170q25 12 35 -8q9 -18 -6 -30q-182 -144 -182 -367q0 -211 182 -367q15 -12 6 -30q-13 -20 -35 -9q-117 60 -184 170q-68 112 -68 236zM459 340q0 131 65 235q67 110 187 170q24 12 34 -8q9 -18 -6 -30q-182 -144 -182 -367 q0 -211 182 -367q15 -12 6 -30q-13 -19 -34 -9q-121 62 -187 170q-65 107 -65 236z" />
<glyph unicode="&#xac;" horiz-adv-x="1198" d="M77 695v117h1043v-447h-117v330h-926z" />
<glyph unicode="&#xad;" horiz-adv-x="668" d="M79 376v145h507v-145h-507z" />
<glyph unicode="&#xae;" horiz-adv-x="1525" d="M66 663q0 148 54 275t147.5 219.5t220.5 146t274 53.5q148 0 275.5 -53.5t221 -146t146.5 -219.5t53 -275q0 -146 -54 -272.5t-147.5 -221t-220.5 -148t-274 -53.5t-274 53.5t-220.5 147.5t-147.5 220.5t-54 273.5zM130 663q0 -133 48.5 -248t134 -200t201 -134 t248.5 -49q134 0 249.5 49t201.5 134t135 200t49 248q0 134 -49 249.5t-135 201.5t-201.5 135.5t-249.5 49.5q-133 0 -248.5 -49.5t-201 -136t-134 -202.5t-48.5 -248zM368 244v33q34 0 53.5 6.5t29 22t12 41t2.5 62.5v541q0 29 -2 49t-11 33t-26 19t-48 6v35h378 q51 0 103 -12t94.5 -38.5t69 -68t26.5 -100.5q0 -49 -18 -85.5t-48 -63t-70 -43.5t-82 -26l205 -292q25 -35 52 -58.5t68 -27.5v-33h-184l-288 398h-74v-291q0 -25 9 -40t24.5 -22.5t37 -9.5t46.5 -2v-33h-359zM610 684q45 0 95 6.5t91.5 25t68.5 53t27 91.5q0 44 -16 79 t-43 59.5t-63.5 37.5t-78.5 13q-19 0 -40.5 -3.5t-40.5 -9.5v-352z" />
<glyph unicode="&#xaf;" horiz-adv-x="627" d="M0 1102v109h628v-109h-628z" />
<glyph unicode="&#xb0;" horiz-adv-x="617" d="M96 1176q0 44 16.5 83.5t45 68.5t67.5 45t84 16q44 0 83.5 -16t68 -45t44.5 -68.5t16 -83.5t-16 -82.5t-44.5 -67t-67.5 -44.5t-84 -16t-84 16t-67.5 44.5t-45 67t-16.5 82.5zM173 1176q0 -27 10.5 -51.5t29 -42t43.5 -28t53 -10.5q27 0 52 10.5t44 28t29.5 42t10.5 51.5 q0 29 -10.5 53.5t-29.5 43t-43.5 29.5t-52.5 11q-29 0 -53.5 -11t-43 -29.5t-29 -43t-10.5 -53.5z" />
<glyph unicode="&#xb1;" horiz-adv-x="1930" d="M386 0v120h1158v-120h-1158zM386 691v121h519v346h119v-346h520v-121h-520v-348h-119v348h-519z" />
<glyph unicode="&#xb2;" horiz-adv-x="705" d="M23 503v21q75 57 155.5 122t146 134t107.5 138.5t42 135.5q0 40 -14.5 72.5t-40.5 55t-60.5 34t-73.5 11.5q-74 0 -127 -32t-81 -103h-24q16 116 85.5 171t183.5 55q45 0 94 -13t89 -39t66 -65.5t26 -93.5q0 -44 -22.5 -91.5t-58.5 -96t-82.5 -95.5t-93 -90t-91 -78.5 t-76.5 -61.5h253q39 0 68.5 1.5t53 8t43 18.5t37.5 36h27l-69 -155h-563z" />
<glyph unicode="&#xb3;" horiz-adv-x="705" d="M53 559q0 26 17 33t39 7q23 0 46 -8.5t47.5 -18t52 -18t57.5 -8.5q31 0 63 11.5t57.5 32t41.5 49.5t16 64q0 60 -24.5 99t-64.5 61t-89 31t-99 11v19q36 4 75.5 17t71 36t52 55.5t20.5 74.5q0 34 -14 59.5t-36 42.5t-50.5 25.5t-59.5 8.5q-58 0 -104 -26t-80 -72l-22 11 q40 77 104.5 122t154.5 45q36 0 75 -9t71.5 -28.5t53.5 -50t21 -74.5q0 -27 -12.5 -53.5t-30.5 -49t-41 -42t-43 -33.5q75 -25 125 -75t50 -133q0 -77 -35 -130.5t-89.5 -86.5t-121.5 -48t-132 -15q-16 0 -43 1.5t-54 8t-46.5 19t-19.5 35.5z" />
<glyph unicode="&#xb4;" horiz-adv-x="686" d="M114 1022l277 279q25 25 55 44.5t66 19.5q25 0 38.5 -18.5t13.5 -40.5q0 -34 -23.5 -58t-55.5 -44l-290 -182h-81z" />
<glyph unicode="&#xb5;" horiz-adv-x="1136" d="M122 -328q0 38 11 81.5t19 81.5q19 86 25 174t6 177v708h160v-534q0 -47 3.5 -94.5t17 -85.5t41.5 -62t77 -24q35 0 67 11t61.5 29t55 41.5t48.5 48.5v670h162v-647q0 -27 2 -56.5t8.5 -54t19.5 -41t36 -16.5q19 0 33.5 14t24 33.5t14.5 40t8 36.5h40q-3 -47 -14.5 -88.5 t-33.5 -74t-58 -51.5t-88 -19q-42 0 -69 17t-45 43.5t-27.5 59.5t-12.5 67q-30 -32 -64 -65.5t-73 -60.5t-82.5 -44t-90.5 -17q-99 0 -151 86v-46q0 -43 7.5 -85t15 -83.5l15 -83t7.5 -83.5q0 -19 -6 -38.5t-17.5 -35.5t-28.5 -25.5t-38 -9.5t-37 9.5t-26.5 25.5t-16.5 34.5 t-6 36.5z" />
<glyph unicode="&#xb6;" horiz-adv-x="907" d="M-13 961q0 99 35.5 169t96 114t140.5 64t170 20h483v-53h-130v-1709h-71v1709h-181v-1709h-72v1025q-92 1 -177.5 19.5t-150.5 61t-104 112.5t-39 177z" />
<glyph unicode="&#xb7;" horiz-adv-x="362" d="M66 658q0 48 33.5 79.5t81.5 31.5t81 -31.5t33 -79.5q0 -49 -33 -82t-81 -33t-81.5 32.5t-33.5 82.5z" />
<glyph unicode="&#xb8;" horiz-adv-x="470" d="M23 -402l30 64q64 -25 125 -25q22 0 43 4t38 14t26.5 26t9.5 42q0 44 -26 60.5t-66 16.5q-18 0 -36.5 -2t-36.5 -9l-13 11l88 213h72l-56 -143q14 3 28 4t28 1q32 0 62.5 -8.5t54 -25t37.5 -43t14 -62.5q0 -47 -26 -78.5t-65 -52t-84.5 -29t-83.5 -8.5q-81 0 -163 30z " />
<glyph unicode="&#xb9;" horiz-adv-x="705" d="M162 1224l232 94h25v-673q0 -42 3.5 -65.5t16 -36.5t36 -16t63.5 -3v-21h-360v21q40 0 64 3t37 16t17 36.5t4 65.5v475q0 44 -9 73t-47 29q-18 0 -36 -5.5t-35 -12.5z" />
<glyph unicode="&#xba;" horiz-adv-x="735" d="M56 1054q0 55 21.5 107t61.5 93t98 65.5t132 24.5q70 0 127.5 -21.5t98.5 -58.5t63 -87t22 -107q0 -52 -20 -105.5t-60 -96.5t-99 -69.5t-138 -26.5q-68 0 -124.5 23t-97 62t-63 89.5t-22.5 107.5zM68 641v43h603v-43h-603zM187 1102q0 -57 15 -109t41.5 -91.5t64.5 -63 t85 -23.5q35 0 63.5 11t48.5 35.5t32 64.5t12 97q0 60 -14 112t-40 89.5t-63 59.5t-84 22q-27 0 -55.5 -9.5t-52 -33.5t-38.5 -63t-15 -98z" />
<glyph unicode="&#xbb;" horiz-adv-x="849" d="M104 -57q-9 17 7 30q182 156 182 367q0 223 -182 367q-16 13 -7 30q10 20 35 8q120 -60 187 -170q65 -104 65 -235q0 -129 -65 -236q-66 -108 -187 -170q-22 -11 -35 9zM463 -57q-9 18 6 30q182 156 182 367q0 223 -182 367q-15 12 -6 30q10 20 35 8q116 -58 184 -170 q68 -109 68 -235q0 -124 -68 -236q-67 -110 -184 -170q-22 -11 -35 9z" />
<glyph unicode="&#xbc;" horiz-adv-x="1544" d="M191 1240l195 96h21v-678q0 -38 2 -61.5t11.5 -36.5t30 -17.5t57.5 -4.5v-25h-303v25q35 0 56 4t32 15.5t13.5 33t2.5 56.5v480q0 13 -0.5 32t-5 36.5t-13.5 29.5t-26 12q-18 0 -34 -5t-30 -13zM277 -16l912 1368h91l-907 -1368h-96zM807 208v71l375 536h63v-525h107v-82 h-107v-216h-97v216h-341zM866 290h282v399z" />
<glyph unicode="&#xbd;" horiz-adv-x="1544" d="M162 1240l194 96h22v-689q0 -35 2.5 -56.5t13 -33t31.5 -15.5t57 -4v-25h-307v25q36 0 57 4t31.5 15.5t13 33t2.5 56.5v492q0 17 -1.5 35t-7 31.5t-14.5 22.5t-22 9q-18 0 -33.5 -5t-30.5 -13zM259 -16l846 1368h93l-844 -1368h-95zM849 -8v24q62 57 129.5 121t123 132.5 t92 138.5t36.5 141q0 34 -11 65.5t-32 55.5t-51 39t-66 15q-68 0 -111 -35.5t-65 -99.5h-21q5 48 23 89t46 71.5t68 48t92 17.5q45 0 87 -15t73 -43t50 -67.5t19 -87.5q0 -69 -38.5 -140.5t-93 -140t-115.5 -130t-107 -109.5h210q32 0 57.5 1t45 7t35.5 19t32 38h25 l-59 -155h-474z" />
<glyph unicode="&#xbe;" horiz-adv-x="1544" d="M165 564q0 22 13.5 31t34.5 9q19 0 38 -8t40.5 -18t44.5 -18.5t50 -8.5q31 0 59 13t49 34.5t32.5 49.5t11.5 58q0 56 -18 94t-50 62t-75.5 35.5t-94.5 12.5v19q38 4 72 19t59 39t39.5 57.5t14.5 73.5q0 58 -35 97t-96 39q-52 0 -90 -28.5t-64 -69.5l-22 7q18 36 37 68 t44.5 55.5t58.5 36.5t78 13q36 0 70 -11t60 -31.5t42 -51.5t16 -71q0 -27 -10.5 -52t-26 -48t-35 -43.5t-38.5 -37.5q71 -29 110 -80.5t39 -129.5q0 -70 -25.5 -123t-68.5 -88t-100 -53t-122 -18q-17 0 -41 1t-47 7.5t-38.5 20.5t-15.5 37zM320 -16l912 1368h91l-904 -1368 h-99zM831 208v71l375 536h67v-525h106v-82h-106v-216h-99v216h-343zM889 290h285v399z" />
<glyph unicode="&#xbf;" horiz-adv-x="891" d="M75 -123q0 56 16 104t38.5 88t49 73t50.5 59q52 58 90 104.5t64 92t40.5 96.5t17.5 120h41q-5 -117 -36 -220t-96 -211q-16 -26 -32 -59.5t-30 -72.5t-23 -79.5t-9 -79.5q0 -74 21.5 -125.5t54.5 -84t74 -46.5t79 -14q47 0 82 12t57.5 30.5t34.5 41t12 44.5q0 21 -10 44 t-21.5 45t-21.5 43t-10 37q0 21 7.5 36.5t19 26t26 16.5t27.5 6q10 0 28 -6.5t35.5 -23.5t30.5 -47t13 -78q0 -55 -23 -106t-68 -90t-110.5 -62.5t-151.5 -23.5q-79 0 -147 21t-116.5 61t-76 97.5t-27.5 130.5zM346 844q0 27 9.5 47t25 34.5t34.5 21.5t39 7q21 0 41 -7 t35.5 -21.5t25 -35t9.5 -46.5q0 -48 -33.5 -79.5t-77.5 -31.5q-19 0 -39 8t-35.5 23t-24.5 35t-9 45z" />
<glyph unicode="&#xc0;" horiz-adv-x="1442" d="M16 0v38q47 3 79 21.5t57 49t43.5 70t38.5 85.5l469 1093h34l461 -1101q19 -45 37 -83.5t42.5 -68t60 -47t89.5 -19.5v-38h-525v38q22 0 45.5 3t43 12t32.5 25.5t13 43.5q0 26 -15.5 73t-35 96.5t-39 92t-27.5 61.5h-515q-5 -10 -16 -34.5t-25.5 -55t-28.5 -64.5 t-26.5 -66.5t-20.5 -59.5t-8 -43q0 -26 17 -42t42 -25.5t51 -12.5t45 -4v-38h-418zM434 516h458l-226 541zM451 1720q0 75 61 75q52 0 117 -65l279 -279h-82l-287 182q-88 55 -88 87z" />
<glyph unicode="&#xc1;" horiz-adv-x="1442" d="M16 0v38q47 3 79 21.5t57 49t43.5 70t38.5 85.5l469 1093h34l461 -1101q19 -45 37 -83.5t42.5 -68t60 -47t89.5 -19.5v-38h-525v38q22 0 45.5 3t43 12t32.5 25.5t13 43.5q0 26 -15.5 73t-35 96.5t-39 92t-27.5 61.5h-515q-5 -10 -16 -34.5t-25.5 -55t-28.5 -64.5 t-26.5 -66.5t-20.5 -59.5t-8 -43q0 -26 17 -42t42 -25.5t51 -12.5t45 -4v-38h-418zM434 516h458l-226 541zM540 1451l277 279q25 25 55 44.5t66 19.5q25 0 38.5 -18.5t13.5 -40.5q0 -34 -23.5 -58t-55.5 -44l-290 -182h-81z" />
<glyph unicode="&#xc2;" horiz-adv-x="1442" d="M16 0v38q47 3 79 21.5t57 49t43.5 70t38.5 85.5l469 1093h34l461 -1101q19 -45 37 -83.5t42.5 -68t60 -47t89.5 -19.5v-38h-525v38q22 0 45.5 3t43 12t32.5 25.5t13 43.5q0 26 -15.5 73t-35 96.5t-39 92t-27.5 61.5h-515q-5 -10 -16 -34.5t-25.5 -55t-28.5 -64.5 t-26.5 -66.5t-20.5 -59.5t-8 -43q0 -26 17 -42t42 -25.5t51 -12.5t45 -4v-38h-418zM407 1438l253 335h125l250 -335h-69l-244 208l-246 -208h-69zM434 516h458l-226 541z" />
<glyph unicode="&#xc3;" horiz-adv-x="1442" d="M16 0v38q47 3 79 21.5t57 49t43.5 70t38.5 85.5l469 1093h34l461 -1101q19 -45 37 -83.5t42.5 -68t60 -47t89.5 -19.5v-38h-525v38q22 0 45.5 3t43 12t32.5 25.5t13 43.5q0 26 -15.5 73t-35 96.5t-39 92t-27.5 61.5h-515q-5 -10 -16 -34.5t-25.5 -55t-28.5 -64.5 t-26.5 -66.5t-20.5 -59.5t-8 -43q0 -26 17 -42t42 -25.5t51 -12.5t45 -4v-38h-418zM387 1531q10 43 28.5 81t45.5 65t64 42.5t84 15.5q39 0 69 -13.5t58.5 -30.5t58.5 -30.5t69 -13.5q48 0 87.5 25.5t51.5 73.5h52q-4 -40 -22 -78.5t-46.5 -69t-65 -49t-79.5 -18.5 q-55 0 -88.5 14.5t-62 32t-59.5 32.5t-79 15q-21 0 -40 -8.5t-35 -21.5t-27 -30t-12 -34h-52zM434 516h458l-226 541z" />
<glyph unicode="&#xc4;" horiz-adv-x="1442" d="M16 0v38q47 3 79 21.5t57 49t43.5 70t38.5 85.5l469 1093h34l461 -1101q19 -45 37 -83.5t42.5 -68t60 -47t89.5 -19.5v-38h-525v38q22 0 45.5 3t43 12t32.5 25.5t13 43.5q0 26 -15.5 73t-35 96.5t-39 92t-27.5 61.5h-515q-5 -10 -16 -34.5t-25.5 -55t-28.5 -64.5 t-26.5 -66.5t-20.5 -59.5t-8 -43q0 -26 17 -42t42 -25.5t51 -12.5t45 -4v-38h-418zM407 1620q0 19 8.5 36.5t22 31.5t31 21.5t37.5 7.5q40 0 70.5 -28.5t30.5 -68.5q0 -21 -8.5 -40t-22 -32.5t-32.5 -21.5t-38 -8q-40 0 -69.5 30.5t-29.5 71.5zM434 516h458l-226 541z M806 1620q0 19 8.5 36.5t23 31.5t32.5 21.5t37 7.5q40 0 69.5 -28.5t29.5 -68.5q0 -21 -7.5 -40t-21.5 -32.5t-32 -21.5t-38 -8q-40 0 -70.5 30.5t-30.5 71.5z" />
<glyph unicode="&#xc5;" horiz-adv-x="1442" d="M16 0v38q47 3 79 21.5t57 49t43.5 70t38.5 85.5l469 1093h34l461 -1101q19 -45 37 -83.5t42.5 -68t60 -47t89.5 -19.5v-38h-525v38q22 0 45.5 3t43 12t32.5 25.5t13 43.5q0 26 -15.5 73t-35 96.5t-39 92t-27.5 61.5h-515q-5 -10 -16 -34.5t-25.5 -55t-28.5 -64.5 t-26.5 -66.5t-20.5 -59.5t-8 -43q0 -26 17 -42t42 -25.5t51 -12.5t45 -4v-38h-418zM434 516h458l-226 541zM534 1638q0 42 15.5 76t41.5 59t60.5 38.5t72.5 13.5q35 0 68 -13t59 -37t41.5 -59t15.5 -78q0 -42 -15.5 -76.5t-41.5 -59t-59 -38t-68 -13.5t-69 13.5t-61.5 38 t-43.5 59t-16 76.5zM602 1638q0 -29 10 -51t27 -37.5t39 -23.5t46 -8q25 0 46 10t37 26t25 38.5t9 45.5q0 27 -10 49t-26 38t-37.5 24t-43.5 8q-49 0 -85.5 -33t-36.5 -86z" />
<glyph unicode="&#xc6;" horiz-adv-x="1785" d="M-23 0v36q43 0 72 17q14 9 30.5 24t35.5 40.5t41.5 62t51.5 89.5l406 754q38 70 56.5 118t18.5 72q0 17 -7 30.5t-26 23t-51.5 17t-84.5 9.5v35h1089l14 -289h-32q-14 68 -28.5 110.5t-40.5 66.5t-71 32.5t-119 8.5h-326v-525h252q57 0 96 9.5t64 32.5t37 59.5t16 89.5 h34v-459h-34q-8 58 -18 96t-32 59.5t-60.5 30t-102.5 8.5h-252v-440q0 -39 0.5 -68t7.5 -38q4 -6 11 -13.5t18.5 -13.5t30 -10t46.5 -4h177q83 0 143 15t105 47.5t80 82t69 119.5h35l-106 -335h-996v36h48q81 0 120 48q23 31 24 151v278h-387l-123 -227q-34 -62 -52 -103 t-18 -67q0 -40 43 -56.5t112 -23.5v-36h-417zM468 588h351v669z" />
<glyph unicode="&#xc7;" horiz-adv-x="1338" d="M71 645q0 148 49 277.5t138 226t213 152.5t276 56q51 0 94.5 -7t84.5 -19t80.5 -28t85.5 -36q19 0 33.5 9.5t23.5 22.5t15 28.5t10 29.5h35l28 -450h-28q-25 83 -63.5 153t-92 120.5t-126 79t-163.5 28.5t-160.5 -26.5t-122 -73.5t-88.5 -109.5t-57 -134.5t-31 -149.5 t-10 -152.5q0 -120 28.5 -225.5t89 -186.5t155 -127.5t225.5 -46.5q83 0 146 19.5t114.5 55t95 87t88.5 115.5l30 -21q-82 -147 -199.5 -234.5t-277.5 -106.5l-50 -130q14 3 27.5 4.5t27.5 1.5q32 0 63 -8.5t54.5 -25.5t37 -43t13.5 -62q0 -47 -26 -79t-65 -52t-84.5 -28.5 t-83.5 -8.5q-81 0 -162 30l30 63q64 -25 125 -24q22 0 42.5 4t37.5 13.5t27 26t10 42.5q0 44 -26 60t-67 16q-18 0 -36 -2t-36 -8l-13 10l80 197q-147 0 -266.5 51.5t-203.5 142.5t-129.5 214.5t-45.5 268.5z" />
<glyph unicode="&#xc8;" horiz-adv-x="1224" d="M43 0v38q62 0 99 7.5t56.5 29t26 60t6.5 99.5v866q0 62 -5 99.5t-24.5 58.5t-57 28t-101.5 7v35h1022l15 -289h-36q-17 64 -32 106t-40.5 66.5t-69 35t-117.5 10.5h-366v-525h292q61 0 98 8.5t60 30t34 58.5t19 95h36v-464h-36q-8 58 -19 96t-33.5 61t-59.5 32t-99 9 h-292v-437q0 -39 1.5 -67t13 -46t33.5 -27.5t63 -9.5h224q87 0 143 14.5t97 45.5t73.5 81.5t72.5 120.5h42l-117 -333h-1022zM342 1720q0 75 61 75q52 0 117 -65l279 -279h-82l-287 182q-88 55 -88 87z" />
<glyph unicode="&#xc9;" horiz-adv-x="1224" d="M43 0v38q62 0 99 7.5t56.5 29t26 60t6.5 99.5v866q0 62 -5 99.5t-24.5 58.5t-57 28t-101.5 7v35h1022l15 -289h-36q-17 64 -32 106t-40.5 66.5t-69 35t-117.5 10.5h-366v-525h292q61 0 98 8.5t60 30t34 58.5t19 95h36v-464h-36q-8 58 -19 96t-33.5 61t-59.5 32t-99 9 h-292v-437q0 -39 1.5 -67t13 -46t33.5 -27.5t63 -9.5h224q87 0 143 14.5t97 45.5t73.5 81.5t72.5 120.5h42l-117 -333h-1022zM431 1451l277 279q25 25 55 44.5t66 19.5q25 0 38.5 -18.5t13.5 -40.5q0 -34 -23.5 -58t-55.5 -44l-290 -182h-81z" />
<glyph unicode="&#xca;" horiz-adv-x="1224" d="M43 0v38q62 0 99 7.5t56.5 29t26 60t6.5 99.5v866q0 62 -5 99.5t-24.5 58.5t-57 28t-101.5 7v35h1022l15 -289h-36q-17 64 -32 106t-40.5 66.5t-69 35t-117.5 10.5h-366v-525h292q61 0 98 8.5t60 30t34 58.5t19 95h36v-464h-36q-8 58 -19 96t-33.5 61t-59.5 32t-99 9 h-292v-437q0 -39 1.5 -67t13 -46t33.5 -27.5t63 -9.5h224q87 0 143 14.5t97 45.5t73.5 81.5t72.5 120.5h42l-117 -333h-1022zM298 1438l253 335h125l250 -335h-69l-244 208l-246 -208h-69z" />
<glyph unicode="&#xcb;" horiz-adv-x="1224" d="M43 0v38q62 0 99 7.5t56.5 29t26 60t6.5 99.5v866q0 62 -5 99.5t-24.5 58.5t-57 28t-101.5 7v35h1022l15 -289h-36q-17 64 -32 106t-40.5 66.5t-69 35t-117.5 10.5h-366v-525h292q61 0 98 8.5t60 30t34 58.5t19 95h36v-464h-36q-8 58 -19 96t-33.5 61t-59.5 32t-99 9 h-292v-437q0 -39 1.5 -67t13 -46t33.5 -27.5t63 -9.5h224q87 0 143 14.5t97 45.5t73.5 81.5t72.5 120.5h42l-117 -333h-1022zM298 1620q0 19 8.5 36.5t22 31.5t31 21.5t37.5 7.5q40 0 70.5 -28.5t30.5 -68.5q0 -21 -8.5 -40t-22 -32.5t-32.5 -21.5t-38 -8q-40 0 -69.5 30.5 t-29.5 71.5zM697 1620q0 19 8.5 36.5t23 31.5t32.5 21.5t37 7.5q40 0 69.5 -28.5t29.5 -68.5q0 -21 -7.5 -40t-21.5 -32.5t-32 -21.5t-38 -8q-40 0 -70.5 30.5t-30.5 71.5z" />
<glyph unicode="&#xcc;" horiz-adv-x="668" d="M51 0v38q64 0 101.5 8.5t57 29.5t24.5 59.5t5 98.5v860q0 61 -5 99.5t-24.5 60.5t-57.5 30.5t-101 8.5v35h569v-35q-62 0 -100 -8.5t-58 -30.5t-26.5 -60t-6.5 -100v-860q0 -60 6 -98.5t25.5 -59.5t57 -29.5t102.5 -8.5v-38h-569zM65 1720q0 75 61 75q52 0 117 -65 l279 -279h-82l-287 182q-88 55 -88 87z" />
<glyph unicode="&#xcd;" horiz-adv-x="668" d="M51 0v38q64 0 101.5 8.5t57 29.5t24.5 59.5t5 98.5v860q0 61 -5 99.5t-24.5 60.5t-57.5 30.5t-101 8.5v35h569v-35q-62 0 -100 -8.5t-58 -30.5t-26.5 -60t-6.5 -100v-860q0 -60 6 -98.5t25.5 -59.5t57 -29.5t102.5 -8.5v-38h-569zM154 1451l277 279q25 25 55 44.5 t66 19.5q25 0 38.5 -18.5t13.5 -40.5q0 -34 -23.5 -58t-55.5 -44l-290 -182h-81z" />
<glyph unicode="&#xce;" horiz-adv-x="668" d="M21 1438l253 335h125l250 -335h-69l-244 208l-246 -208h-69zM51 0v38q64 0 101.5 8.5t57 29.5t24.5 59.5t5 98.5v860q0 61 -5 99.5t-24.5 60.5t-57.5 30.5t-101 8.5v35h569v-35q-62 0 -100 -8.5t-58 -30.5t-26.5 -60t-6.5 -100v-860q0 -60 6 -98.5t25.5 -59.5t57 -29.5 t102.5 -8.5v-38h-569z" />
<glyph unicode="&#xcf;" horiz-adv-x="668" d="M21 1620q0 19 8.5 36.5t22 31.5t31 21.5t37.5 7.5q40 0 70.5 -28.5t30.5 -68.5q0 -21 -8.5 -40t-22 -32.5t-32.5 -21.5t-38 -8q-40 0 -69.5 30.5t-29.5 71.5zM51 0v38q64 0 101.5 8.5t57 29.5t24.5 59.5t5 98.5v860q0 61 -5 99.5t-24.5 60.5t-57.5 30.5t-101 8.5v35h569 v-35q-62 0 -100 -8.5t-58 -30.5t-26.5 -60t-6.5 -100v-860q0 -60 6 -98.5t25.5 -59.5t57 -29.5t102.5 -8.5v-38h-569zM420 1620q0 19 8.5 36.5t23 31.5t32.5 21.5t37 7.5q40 0 69.5 -28.5t29.5 -68.5q0 -21 -7.5 -40t-21.5 -32.5t-32 -21.5t-38 -8q-40 0 -70.5 30.5 t-30.5 71.5z" />
<glyph unicode="&#xd0;" horiz-adv-x="1450" d="M35 0v36h49q47 0 75 13t42.5 38t19 62t4.5 86v429h-190v112h190v318q0 126 -26 158q-18 22 -47.5 31.5t-67.5 9.5h-49v35h540q311 0 458 -70q74 -35 136 -91t107 -130.5t70 -166t25 -195.5q0 -140 -42 -263t-132 -215t-230 -144.5t-337 -52.5h-595zM413 97 q58 -16 112.5 -21.5t95.5 -5.5q114 0 211 41t168 117.5t111.5 186.5t40.5 249q0 138 -40 248t-110.5 186.5t-170 117.5t-217.5 41q-43 0 -92.5 -6.5t-108.5 -22.5v-452h389v-112h-389v-567z" />
<glyph unicode="&#xd1;" horiz-adv-x="1447" d="M10 1293v35h325l813 -995v767q0 60 -6.5 97.5t-27 59t-57.5 29t-99 7.5v35h464v-35q-62 0 -100 -7.5t-58 -29t-26 -59.5t-6 -97v-1121h-34l-878 1070v-818q0 -62 5.5 -99.5t25 -58.5t57.5 -28t100 -7v-38h-463v38q62 0 99.5 7.5t57 29t26 59.5t6.5 97v925 q-25 34 -46.5 59t-45.5 42.5t-55.5 26.5t-76.5 9zM382 1531q10 43 28.5 81t45.5 65t64 42.5t84 15.5q39 0 69 -13.5t58.5 -30.5t58.5 -30.5t69 -13.5q48 0 87.5 25.5t51.5 73.5h52q-4 -40 -22 -78.5t-46.5 -69t-65 -49t-79.5 -18.5q-55 0 -88.5 14.5t-62 32t-59.5 32.5 t-79 15q-21 0 -40 -8.5t-35 -21.5t-27 -30t-12 -34h-52z" />
<glyph unicode="&#xd2;" horiz-adv-x="1447" d="M69 668q0 144 48.5 269.5t137 218.5t211 147t268.5 54q144 0 261.5 -55t201 -149.5t129 -219t45.5 -262.5q0 -142 -46.5 -269.5t-132 -224t-205.5 -153t-268 -56.5t-268.5 55.5t-205.5 151t-130.5 223t-45.5 270.5zM295 673q0 -66 8 -139t27.5 -143t50.5 -133.5t78 -112 t110.5 -77t146.5 -28.5q87 0 153 26t114 71t79.5 105.5t50.5 128.5t27 142t8 145q0 73 -7.5 148t-25.5 145.5t-49 131.5t-79.5 106.5t-116 72t-156.5 26.5q-83 0 -146.5 -26.5t-110 -72t-78 -106.5t-50 -129.5t-26.5 -140.5t-8 -140zM450 1720q0 75 61 75q52 0 117 -65 l279 -279h-82l-287 182q-88 55 -88 87z" />
<glyph unicode="&#xd3;" horiz-adv-x="1447" d="M69 668q0 144 48.5 269.5t137 218.5t211 147t268.5 54q144 0 261.5 -55t201 -149.5t129 -219t45.5 -262.5q0 -142 -46.5 -269.5t-132 -224t-205.5 -153t-268 -56.5t-268.5 55.5t-205.5 151t-130.5 223t-45.5 270.5zM295 673q0 -66 8 -139t27.5 -143t50.5 -133.5t78 -112 t110.5 -77t146.5 -28.5q87 0 153 26t114 71t79.5 105.5t50.5 128.5t27 142t8 145q0 73 -7.5 148t-25.5 145.5t-49 131.5t-79.5 106.5t-116 72t-156.5 26.5q-83 0 -146.5 -26.5t-110 -72t-78 -106.5t-50 -129.5t-26.5 -140.5t-8 -140zM539 1451l277 279q25 25 55 44.5 t66 19.5q25 0 38.5 -18.5t13.5 -40.5q0 -34 -23.5 -58t-55.5 -44l-290 -182h-81z" />
<glyph unicode="&#xd4;" horiz-adv-x="1447" d="M69 668q0 144 48.5 269.5t137 218.5t211 147t268.5 54q144 0 261.5 -55t201 -149.5t129 -219t45.5 -262.5q0 -142 -46.5 -269.5t-132 -224t-205.5 -153t-268 -56.5t-268.5 55.5t-205.5 151t-130.5 223t-45.5 270.5zM295 673q0 -66 8 -139t27.5 -143t50.5 -133.5t78 -112 t110.5 -77t146.5 -28.5q87 0 153 26t114 71t79.5 105.5t50.5 128.5t27 142t8 145q0 73 -7.5 148t-25.5 145.5t-49 131.5t-79.5 106.5t-116 72t-156.5 26.5q-83 0 -146.5 -26.5t-110 -72t-78 -106.5t-50 -129.5t-26.5 -140.5t-8 -140zM406 1438l253 335h125l250 -335h-69 l-244 208l-246 -208h-69z" />
<glyph unicode="&#xd5;" horiz-adv-x="1447" d="M69 668q0 144 48.5 269.5t137 218.5t211 147t268.5 54q144 0 261.5 -55t201 -149.5t129 -219t45.5 -262.5q0 -142 -46.5 -269.5t-132 -224t-205.5 -153t-268 -56.5t-268.5 55.5t-205.5 151t-130.5 223t-45.5 270.5zM295 673q0 -66 8 -139t27.5 -143t50.5 -133.5t78 -112 t110.5 -77t146.5 -28.5q87 0 153 26t114 71t79.5 105.5t50.5 128.5t27 142t8 145q0 73 -7.5 148t-25.5 145.5t-49 131.5t-79.5 106.5t-116 72t-156.5 26.5q-83 0 -146.5 -26.5t-110 -72t-78 -106.5t-50 -129.5t-26.5 -140.5t-8 -140zM386 1531q10 43 28.5 81t45.5 65 t64 42.5t84 15.5q39 0 69 -13.5t58.5 -30.5t58.5 -30.5t69 -13.5q48 0 87.5 25.5t51.5 73.5h52q-4 -40 -22 -78.5t-46.5 -69t-65 -49t-79.5 -18.5q-55 0 -88.5 14.5t-62 32t-59.5 32.5t-79 15q-21 0 -40 -8.5t-35 -21.5t-27 -30t-12 -34h-52z" />
<glyph unicode="&#xd6;" horiz-adv-x="1447" d="M69 668q0 144 48.5 269.5t137 218.5t211 147t268.5 54q144 0 261.5 -55t201 -149.5t129 -219t45.5 -262.5q0 -142 -46.5 -269.5t-132 -224t-205.5 -153t-268 -56.5t-268.5 55.5t-205.5 151t-130.5 223t-45.5 270.5zM295 673q0 -66 8 -139t27.5 -143t50.5 -133.5t78 -112 t110.5 -77t146.5 -28.5q87 0 153 26t114 71t79.5 105.5t50.5 128.5t27 142t8 145q0 73 -7.5 148t-25.5 145.5t-49 131.5t-79.5 106.5t-116 72t-156.5 26.5q-83 0 -146.5 -26.5t-110 -72t-78 -106.5t-50 -129.5t-26.5 -140.5t-8 -140zM406 1620q0 19 8.5 36.5t22 31.5 t31 21.5t37.5 7.5q40 0 70.5 -28.5t30.5 -68.5q0 -21 -8.5 -40t-22 -32.5t-32.5 -21.5t-38 -8q-40 0 -69.5 30.5t-29.5 71.5zM805 1620q0 19 8.5 36.5t23 31.5t32.5 21.5t37 7.5q40 0 69.5 -28.5t29.5 -68.5q0 -21 -7.5 -40t-21.5 -32.5t-32 -21.5t-38 -8q-40 0 -70.5 30.5 t-30.5 71.5z" />
<glyph unicode="&#xd7;" horiz-adv-x="1189" d="M178 191l358 358l-358 353l59 59l354 -357l357 357l55 -59l-353 -353l353 -358l-55 -56l-357 355l-354 -355z" />
<glyph unicode="&#xd8;" horiz-adv-x="1450" d="M71 680q0 143 51 267t139.5 215.5t208 144.5t257.5 53q222 0 397 -147l129 158l59 -43l-134 -162q53 -56 90 -111t60.5 -115t34 -125t10.5 -140q0 -153 -53 -282.5t-142 -224t-205 -147t-244 -52.5q-49 0 -101.5 8.5t-105.5 26t-104 44t-96 62.5l-124 -157l-59 47 l130 160q-198 201 -198 520zM295 684q0 -226 72 -401l675 830q-113 177 -322 176q-123 0 -204.5 -55t-131 -143t-69.5 -195t-20 -212zM407 212q68 -96 143 -134t165 -38q91 0 169.5 32.5t137 105t92.5 187t34 278.5q0 51 -2 96t-9 91.5t-21 98t-38 113.5z" />
<glyph unicode="&#xd9;" horiz-adv-x="1447" d="M30 1293v35h534v-35q-57 0 -91 -10t-52 -34.5t-24 -62t-6 -92.5v-581q0 -92 12.5 -176t49.5 -147t105.5 -100t178.5 -37q90 0 171.5 28.5t148.5 91.5q32 30 50.5 78.5t27.5 102.5t11 107.5t2 94.5v538q0 62 -6 101t-26 61t-58 29.5t-100 7.5v35h472v-35q-60 0 -97.5 -11 t-58.5 -35t-29 -63.5t-8 -96.5v-541q0 -136 -25 -243.5t-84.5 -181.5t-158 -113.5t-245.5 -39.5q-162 0 -264.5 40t-159.5 117.5t-77 190t-20 256.5v522q0 55 -5.5 92.5t-23 62t-52 34.5t-92.5 10zM459 1720q0 75 61 75q52 0 117 -65l279 -279h-82l-287 182q-88 55 -88 87z " />
<glyph unicode="&#xda;" horiz-adv-x="1447" d="M30 1293v35h534v-35q-57 0 -91 -10t-52 -34.5t-24 -62t-6 -92.5v-581q0 -92 12.5 -176t49.5 -147t105.5 -100t178.5 -37q90 0 171.5 28.5t148.5 91.5q32 30 50.5 78.5t27.5 102.5t11 107.5t2 94.5v538q0 62 -6 101t-26 61t-58 29.5t-100 7.5v35h472v-35q-60 0 -97.5 -11 t-58.5 -35t-29 -63.5t-8 -96.5v-541q0 -136 -25 -243.5t-84.5 -181.5t-158 -113.5t-245.5 -39.5q-162 0 -264.5 40t-159.5 117.5t-77 190t-20 256.5v522q0 55 -5.5 92.5t-23 62t-52 34.5t-92.5 10zM548 1451l277 279q25 25 55 44.5t66 19.5q25 0 38.5 -18.5t13.5 -40.5 q0 -34 -23.5 -58t-55.5 -44l-290 -182h-81z" />
<glyph unicode="&#xdb;" horiz-adv-x="1447" d="M30 1293v35h534v-35q-57 0 -91 -10t-52 -34.5t-24 -62t-6 -92.5v-581q0 -92 12.5 -176t49.5 -147t105.5 -100t178.5 -37q90 0 171.5 28.5t148.5 91.5q32 30 50.5 78.5t27.5 102.5t11 107.5t2 94.5v538q0 62 -6 101t-26 61t-58 29.5t-100 7.5v35h472v-35q-60 0 -97.5 -11 t-58.5 -35t-29 -63.5t-8 -96.5v-541q0 -136 -25 -243.5t-84.5 -181.5t-158 -113.5t-245.5 -39.5q-162 0 -264.5 40t-159.5 117.5t-77 190t-20 256.5v522q0 55 -5.5 92.5t-23 62t-52 34.5t-92.5 10zM415 1438l253 335h125l250 -335h-69l-244 208l-246 -208h-69z" />
<glyph unicode="&#xdc;" horiz-adv-x="1447" d="M30 1293v35h534v-35q-57 0 -91 -10t-52 -34.5t-24 -62t-6 -92.5v-581q0 -92 12.5 -176t49.5 -147t105.5 -100t178.5 -37q90 0 171.5 28.5t148.5 91.5q32 30 50.5 78.5t27.5 102.5t11 107.5t2 94.5v538q0 62 -6 101t-26 61t-58 29.5t-100 7.5v35h472v-35q-60 0 -97.5 -11 t-58.5 -35t-29 -63.5t-8 -96.5v-541q0 -136 -25 -243.5t-84.5 -181.5t-158 -113.5t-245.5 -39.5q-162 0 -264.5 40t-159.5 117.5t-77 190t-20 256.5v522q0 55 -5.5 92.5t-23 62t-52 34.5t-92.5 10zM415 1620q0 19 8.5 36.5t22 31.5t31 21.5t37.5 7.5q40 0 70.5 -28.5 t30.5 -68.5q0 -21 -8.5 -40t-22 -32.5t-32.5 -21.5t-38 -8q-40 0 -69.5 30.5t-29.5 71.5zM814 1620q0 19 8.5 36.5t23 31.5t32.5 21.5t37 7.5q40 0 69.5 -28.5t29.5 -68.5q0 -21 -7.5 -40t-21.5 -32.5t-32 -21.5t-38 -8q-40 0 -70.5 30.5t-30.5 71.5z" />
<glyph unicode="&#xdd;" horiz-adv-x="1447" d="M18 1293v35h568v-35q-21 0 -47.5 -2.5t-50 -11t-39 -26t-15.5 -47.5q0 -19 24 -66.5t61 -108t80 -126t80 -121t62.5 -93t27.5 -41.5l264 409q8 13 18.5 30t19.5 36t15 38.5t6 34.5q0 27 -13 45.5t-32.5 29.5t-43 15.5t-45.5 4.5v35h464v-35q-49 0 -85.5 -13t-66.5 -37 t-56 -57.5t-53 -76.5l-349 -545v-333q0 -61 6.5 -98.5t26 -59t56.5 -28.5t100 -7v-38h-564v38q62 0 98.5 7.5t55.5 29t24 59.5t5 97v315l-361 556q-21 32 -45 66t-52.5 62t-64 45.5t-79.5 17.5zM539 1451l277 279q25 25 55 44.5t66 19.5q25 0 38.5 -18.5t13.5 -40.5 q0 -34 -23.5 -58t-55.5 -44l-290 -182h-81z" />
<glyph unicode="&#xde;" horiz-adv-x="1116" d="M36 0v36h35q49 0 79.5 11t46 34.5t20.5 61.5t5 92v858q0 48 -4.5 86t-20 63t-45 38t-78.5 13h-38v35h567v-35h-41q-47 0 -76.5 -13t-45.5 -38t-22.5 -63t-6.5 -86v-65h165q100 0 185 -24t147.5 -69.5t97.5 -113t35 -154.5q0 -90 -35 -159t-97.5 -115t-148 -70t-188.5 -24 h-161v-60q0 -49 4.5 -87t20 -64t45.5 -39t81 -13h41v-36h-567zM411 367h57q94 0 158.5 22.5t106.5 63t60.5 95t18.5 116.5q0 69 -22.5 123t-63.5 91t-96 56t-120 19h-99v-586z" />
<glyph unicode="&#xdf;" horiz-adv-x="1004" d="M35 0v36q38 1 62.5 9t39.5 28.5t21 55.5t6 91v729q0 118 22.5 203t67 138.5t109.5 79t150 25.5q78 0 142.5 -23.5t109.5 -65t69.5 -101t24.5 -129.5q0 -38 -7 -76t-27 -73t-56.5 -66.5t-96.5 -55.5q129 -36 198.5 -132t69.5 -260q0 -84 -23 -161t-66 -135.5t-104 -93.5 t-137 -35q-40 0 -75 12t-60 32.5t-39.5 50t-14.5 64.5q0 38 19.5 61t58.5 23t60.5 -20.5t21.5 -55.5q0 -14 -6 -36t-6 -31q0 -22 16.5 -33.5t41.5 -11.5q65 0 105 65.5t40 198.5q0 100 -17 181t-52 139.5t-89.5 92t-128.5 39.5v56q49 0 88 13.5t66.5 45t41.5 82t14 125.5 q0 66 -13.5 113t-39 77t-59.5 43.5t-76 13.5q-39 0 -72 -12t-56.5 -46t-37 -95.5t-13.5 -159.5v-1015h-293z" />
<glyph unicode="&#xe0;" horiz-adv-x="891" d="M71 213q0 55 25.5 100.5t67 83t95 68t109.5 54.5t109 42.5t95 32.5v36q0 45 -6 87.5t-24 76t-50.5 53t-87.5 19.5q-45 0 -71 -12.5t-40 -35.5t-17.5 -53.5t-3.5 -66.5q0 -44 -17 -69t-67 -25q-45 0 -63 26t-18 68q0 61 32.5 104t81 70t105.5 39.5t108 12.5q84 0 142 -16 t93 -53t50 -95.5t15 -142.5v-305v-41.5t1 -44t1.5 -40t3.5 -31.5q3 -18 11.5 -33t30.5 -15q10 0 26 9.5t31.5 22.5t29.5 26t20 21v-56q-18 -25 -41 -51.5t-49.5 -48t-57.5 -35t-65 -13.5q-31 0 -51.5 13t-32 34.5t-16 47.5t-4.5 53q-32 -26 -65 -52t-68 -47.5t-72.5 -35 t-81.5 -13.5q-51 0 -90.5 17.5t-67 48.5t-42 73.5t-14.5 91.5zM167 1291q0 75 61 75q52 0 117 -65l279 -279h-82l-287 182q-88 55 -88 87zM237 259q0 -30 9 -58.5t27 -52t43.5 -38t59.5 -14.5q26 0 52 9t51 24t49 32.5t44 33.5v343q-49 -18 -107.5 -44t-109.5 -60.5 t-84.5 -78t-33.5 -96.5z" />
<glyph unicode="&#xe1;" horiz-adv-x="891" d="M71 213q0 55 25.5 100.5t67 83t95 68t109.5 54.5t109 42.5t95 32.5v36q0 45 -6 87.5t-24 76t-50.5 53t-87.5 19.5q-45 0 -71 -12.5t-40 -35.5t-17.5 -53.5t-3.5 -66.5q0 -44 -17 -69t-67 -25q-45 0 -63 26t-18 68q0 61 32.5 104t81 70t105.5 39.5t108 12.5q84 0 142 -16 t93 -53t50 -95.5t15 -142.5v-305v-41.5t1 -44t1.5 -40t3.5 -31.5q3 -18 11.5 -33t30.5 -15q10 0 26 9.5t31.5 22.5t29.5 26t20 21v-56q-18 -25 -41 -51.5t-49.5 -48t-57.5 -35t-65 -13.5q-31 0 -51.5 13t-32 34.5t-16 47.5t-4.5 53q-32 -26 -65 -52t-68 -47.5t-72.5 -35 t-81.5 -13.5q-51 0 -90.5 17.5t-67 48.5t-42 73.5t-14.5 91.5zM237 259q0 -30 9 -58.5t27 -52t43.5 -38t59.5 -14.5q26 0 52 9t51 24t49 32.5t44 33.5v343q-49 -18 -107.5 -44t-109.5 -60.5t-84.5 -78t-33.5 -96.5zM256 1022l277 279q25 25 55 44.5t66 19.5q25 0 38.5 -18.5 t13.5 -40.5q0 -34 -23.5 -58t-55.5 -44l-290 -182h-81z" />
<glyph unicode="&#xe2;" horiz-adv-x="891" d="M71 213q0 55 25.5 100.5t67 83t95 68t109.5 54.5t109 42.5t95 32.5v36q0 45 -6 87.5t-24 76t-50.5 53t-87.5 19.5q-45 0 -71 -12.5t-40 -35.5t-17.5 -53.5t-3.5 -66.5q0 -44 -17 -69t-67 -25q-45 0 -63 26t-18 68q0 61 32.5 104t81 70t105.5 39.5t108 12.5q84 0 142 -16 t93 -53t50 -95.5t15 -142.5v-305v-41.5t1 -44t1.5 -40t3.5 -31.5q3 -18 11.5 -33t30.5 -15q10 0 26 9.5t31.5 22.5t29.5 26t20 21v-56q-18 -25 -41 -51.5t-49.5 -48t-57.5 -35t-65 -13.5q-31 0 -51.5 13t-32 34.5t-16 47.5t-4.5 53q-32 -26 -65 -52t-68 -47.5t-72.5 -35 t-81.5 -13.5q-51 0 -90.5 17.5t-67 48.5t-42 73.5t-14.5 91.5zM122 1009l253 335h125l250 -335h-69l-244 208l-246 -208h-69zM237 259q0 -30 9 -58.5t27 -52t43.5 -38t59.5 -14.5q26 0 52 9t51 24t49 32.5t44 33.5v343q-49 -18 -107.5 -44t-109.5 -60.5t-84.5 -78 t-33.5 -96.5z" />
<glyph unicode="&#xe3;" horiz-adv-x="891" d="M71 213q0 55 25.5 100.5t67 83t95 68t109.5 54.5t109 42.5t95 32.5v36q0 45 -6 87.5t-24 76t-50.5 53t-87.5 19.5q-45 0 -71 -12.5t-40 -35.5t-17.5 -53.5t-3.5 -66.5q0 -44 -17 -69t-67 -25q-45 0 -63 26t-18 68q0 61 32.5 104t81 70t105.5 39.5t108 12.5q84 0 142 -16 t93 -53t50 -95.5t15 -142.5v-305v-41.5t1 -44t1.5 -40t3.5 -31.5q3 -18 11.5 -33t30.5 -15q10 0 26 9.5t31.5 22.5t29.5 26t20 21v-56q-18 -25 -41 -51.5t-49.5 -48t-57.5 -35t-65 -13.5q-31 0 -51.5 13t-32 34.5t-16 47.5t-4.5 53q-32 -26 -65 -52t-68 -47.5t-72.5 -35 t-81.5 -13.5q-51 0 -90.5 17.5t-67 48.5t-42 73.5t-14.5 91.5zM103 1102q10 43 28.5 81t45.5 65t64 42.5t84 15.5q39 0 69 -13.5t58.5 -30.5t58.5 -30.5t69 -13.5q48 0 87.5 25.5t51.5 73.5h52q-4 -40 -22 -78.5t-46.5 -69t-65 -49t-79.5 -18.5q-55 0 -88.5 14.5t-62 32 t-59.5 32.5t-79 15q-21 0 -40 -8.5t-35 -21.5t-27 -30t-12 -34h-52zM237 259q0 -30 9 -58.5t27 -52t43.5 -38t59.5 -14.5q26 0 52 9t51 24t49 32.5t44 33.5v343q-49 -18 -107.5 -44t-109.5 -60.5t-84.5 -78t-33.5 -96.5z" />
<glyph unicode="&#xe4;" horiz-adv-x="891" d="M71 213q0 55 25.5 100.5t67 83t95 68t109.5 54.5t109 42.5t95 32.5v36q0 45 -6 87.5t-24 76t-50.5 53t-87.5 19.5q-45 0 -71 -12.5t-40 -35.5t-17.5 -53.5t-3.5 -66.5q0 -44 -17 -69t-67 -25q-45 0 -63 26t-18 68q0 61 32.5 104t81 70t105.5 39.5t108 12.5q84 0 142 -16 t93 -53t50 -95.5t15 -142.5v-305v-41.5t1 -44t1.5 -40t3.5 -31.5q3 -18 11.5 -33t30.5 -15q10 0 26 9.5t31.5 22.5t29.5 26t20 21v-56q-18 -25 -41 -51.5t-49.5 -48t-57.5 -35t-65 -13.5q-31 0 -51.5 13t-32 34.5t-16 47.5t-4.5 53q-32 -26 -65 -52t-68 -47.5t-72.5 -35 t-81.5 -13.5q-51 0 -90.5 17.5t-67 48.5t-42 73.5t-14.5 91.5zM122 1191q0 19 8.5 36.5t22 31.5t31 21.5t37.5 7.5q40 0 70.5 -28.5t30.5 -68.5q0 -21 -8.5 -40t-22 -32.5t-32.5 -21.5t-38 -8q-40 0 -69.5 30.5t-29.5 71.5zM237 259q0 -30 9 -58.5t27 -52t43.5 -38 t59.5 -14.5q26 0 52 9t51 24t49 32.5t44 33.5v343q-49 -18 -107.5 -44t-109.5 -60.5t-84.5 -78t-33.5 -96.5zM521 1191q0 19 8.5 36.5t23 31.5t32.5 21.5t37 7.5q40 0 69.5 -28.5t29.5 -68.5q0 -21 -7.5 -40t-21.5 -32.5t-32 -21.5t-38 -8q-40 0 -70.5 30.5t-30.5 71.5z" />
<glyph unicode="&#xe5;" horiz-adv-x="891" d="M71 213q0 55 25.5 100.5t67 83t95 68t109.5 54.5t109 42.5t95 32.5v36q0 45 -6 87.5t-24 76t-50.5 53t-87.5 19.5q-45 0 -71 -12.5t-40 -35.5t-17.5 -53.5t-3.5 -66.5q0 -44 -17 -69t-67 -25q-45 0 -63 26t-18 68q0 61 32.5 104t81 70t105.5 39.5t108 12.5q84 0 142 -16 t93 -53t50 -95.5t15 -142.5v-305v-41.5t1 -44t1.5 -40t3.5 -31.5q3 -18 11.5 -33t30.5 -15q10 0 26 9.5t31.5 22.5t29.5 26t20 21v-56q-18 -25 -41 -51.5t-49.5 -48t-57.5 -35t-65 -13.5q-31 0 -51.5 13t-32 34.5t-16 47.5t-4.5 53q-32 -26 -65 -52t-68 -47.5t-72.5 -35 t-81.5 -13.5q-51 0 -90.5 17.5t-67 48.5t-42 73.5t-14.5 91.5zM237 259q0 -30 9 -58.5t27 -52t43.5 -38t59.5 -14.5q26 0 52 9t51 24t49 32.5t44 33.5v343q-49 -18 -107.5 -44t-109.5 -60.5t-84.5 -78t-33.5 -96.5zM250 1209q0 42 15.5 76t41.5 59t60.5 38.5t72.5 13.5 q35 0 68 -13t59 -37t41.5 -59t15.5 -78q0 -42 -15.5 -76.5t-41.5 -59t-59 -38t-68 -13.5t-69 13.5t-61.5 38t-43.5 59t-16 76.5zM318 1209q0 -29 10 -51t27 -37.5t39 -23.5t46 -8q25 0 46 10t37 26t25 38.5t9 45.5q0 27 -10 49t-26 38t-37.5 24t-43.5 8q-49 0 -85.5 -33 t-36.5 -86z" />
<glyph unicode="&#xe6;" horiz-adv-x="1340" d="M71 198q0 68 26 117t83.5 91t149 84t222.5 95v90q0 108 -39 151.5t-106 43.5q-64 0 -102.5 -31t-38.5 -75q0 -22 2 -37.5t2 -29.5q0 -42 -24.5 -65.5t-54.5 -23.5q-48 0 -68 28t-20 66q0 36 19.5 75t59.5 71.5t102.5 53.5t148.5 21q122 0 183 -33t81 -85q48 66 111.5 92 t150.5 26q146 0 231.5 -95t88.5 -272h-560v-70q0 -79 13 -146.5t43 -116.5t78 -76t117 -27q14 0 46.5 3t73 23t82.5 64.5t76 124.5l31 -22q-18 -66 -47.5 -128t-73.5 -109t-104 -76t-139 -29q-64 0 -109.5 13t-78.5 34.5t-57 50t-43 60.5q-22 -18 -55 -45.5t-75.5 -52.5 t-94.5 -42.5t-111 -17.5q-45 0 -85 17.5t-69.5 48.5t-47.5 72.5t-18 88.5zM238 252q0 -36 12.5 -68t33 -56t49 -37.5t61.5 -13.5q19 0 38 4.5t42.5 16t53 32t71.5 52.5q-10 19 -18.5 48t-15 62t-10 70t-3.5 72v87q-55 -21 -111 -45t-101 -55t-73.5 -72t-28.5 -97zM719 620 h372q-1 62 -15.5 107t-38.5 73.5t-56.5 41.5t-70.5 13t-72.5 -14t-60.5 -43.5t-41.5 -73.5t-16.5 -104z" />
<glyph unicode="&#xe7;" horiz-adv-x="891" d="M66 447q0 94 30 180.5t86 152.5t135 105t178 39q44 0 98 -13.5t99.5 -41t77 -67.5t31.5 -94q0 -44 -25.5 -63.5t-67.5 -19.5q-44 0 -64.5 17.5t-30 43.5t-13 56.5t-16 56.5t-40 43.5t-81.5 17.5q-65 0 -110 -30.5t-72.5 -78.5t-39.5 -105.5t-12 -112.5q0 -66 15.5 -137.5 t50.5 -131.5t90.5 -98.5t133.5 -38.5q55 0 97.5 18.5t75.5 49.5t58.5 72t44.5 87l30 -13q-10 -61 -34.5 -119t-63 -107t-89 -84.5t-110.5 -49.5l-51 -130q14 3 28 4t28 1q32 0 63 -8.5t54 -25.5t37 -43t14 -62q0 -47 -26 -79t-65 -52t-84.5 -28.5t-83.5 -8.5q-81 0 -163 30 l30 64q64 -25 125 -25q22 0 43 4t38 13.5t26.5 26t9.5 42.5q0 44 -26 60t-66 16q-18 0 -36.5 -2t-36.5 -8l-13 10l78 190h-1q-97 0 -169.5 42.5t-120 110.5t-71 153t-23.5 171z" />
<glyph unicode="&#xe8;" horiz-adv-x="891" d="M74 439q0 97 25.5 185t76.5 154.5t130 106t184 39.5q81 0 144.5 -27t107.5 -76t67.5 -116t23.5 -146h-620q0 -73 19.5 -148.5t60 -137t102 -101t146.5 -39.5q52 0 93 16t72.5 45.5t55 69t41.5 84.5l30 -20q-10 -70 -40.5 -134.5t-78.5 -114t-111.5 -79.5t-137.5 -30 q-96 0 -169.5 40.5t-123 106.5t-74 150t-24.5 172zM213 615h415q0 44 -11 87.5t-35 76.5t-60.5 54t-87.5 21t-90 -20t-66.5 -53.5t-44 -77t-20.5 -88.5zM217 1291q0 75 61 75q52 0 117 -65l279 -279h-82l-287 182q-88 55 -88 87z" />
<glyph unicode="&#xe9;" horiz-adv-x="891" d="M74 439q0 97 25.5 185t76.5 154.5t130 106t184 39.5q81 0 144.5 -27t107.5 -76t67.5 -116t23.5 -146h-620q0 -73 19.5 -148.5t60 -137t102 -101t146.5 -39.5q52 0 93 16t72.5 45.5t55 69t41.5 84.5l30 -20q-10 -70 -40.5 -134.5t-78.5 -114t-111.5 -79.5t-137.5 -30 q-96 0 -169.5 40.5t-123 106.5t-74 150t-24.5 172zM213 615h415q0 44 -11 87.5t-35 76.5t-60.5 54t-87.5 21t-90 -20t-66.5 -53.5t-44 -77t-20.5 -88.5zM306 1022l277 279q25 25 55 44.5t66 19.5q25 0 38.5 -18.5t13.5 -40.5q0 -34 -23.5 -58t-55.5 -44l-290 -182h-81z" />
<glyph unicode="&#xea;" horiz-adv-x="891" d="M74 439q0 97 25.5 185t76.5 154.5t130 106t184 39.5q81 0 144.5 -27t107.5 -76t67.5 -116t23.5 -146h-620q0 -73 19.5 -148.5t60 -137t102 -101t146.5 -39.5q52 0 93 16t72.5 45.5t55 69t41.5 84.5l30 -20q-10 -70 -40.5 -134.5t-78.5 -114t-111.5 -79.5t-137.5 -30 q-96 0 -169.5 40.5t-123 106.5t-74 150t-24.5 172zM173 1009l253 335h125l250 -335h-69l-244 208l-246 -208h-69zM213 615h415q0 44 -11 87.5t-35 76.5t-60.5 54t-87.5 21t-90 -20t-66.5 -53.5t-44 -77t-20.5 -88.5z" />
<glyph unicode="&#xeb;" horiz-adv-x="891" d="M74 439q0 97 25.5 185t76.5 154.5t130 106t184 39.5q81 0 144.5 -27t107.5 -76t67.5 -116t23.5 -146h-620q0 -73 19.5 -148.5t60 -137t102 -101t146.5 -39.5q52 0 93 16t72.5 45.5t55 69t41.5 84.5l30 -20q-10 -70 -40.5 -134.5t-78.5 -114t-111.5 -79.5t-137.5 -30 q-96 0 -169.5 40.5t-123 106.5t-74 150t-24.5 172zM173 1191q0 19 8.5 36.5t22 31.5t31 21.5t37.5 7.5q40 0 70.5 -28.5t30.5 -68.5q0 -21 -8.5 -40t-22 -32.5t-32.5 -21.5t-38 -8q-40 0 -69.5 30.5t-29.5 71.5zM213 615h415q0 44 -11 87.5t-35 76.5t-60.5 54t-87.5 21 t-90 -20t-66.5 -53.5t-44 -77t-20.5 -88.5zM572 1191q0 19 8.5 36.5t23 31.5t32.5 21.5t37 7.5q40 0 69.5 -28.5t29.5 -68.5q0 -21 -7.5 -40t-21.5 -32.5t-32 -21.5t-38 -8q-40 0 -70.5 30.5t-30.5 71.5z" />
<glyph unicode="&#xec;" horiz-adv-x="558" d="M17 1291q0 75 61 75q52 0 117 -65l279 -279h-82l-287 182q-88 55 -88 87zM61 815l272 109h43v-741q0 -43 5 -71t20 -44.5t41.5 -23t70.5 -6.5v-38h-439v38q44 0 71.5 6.5t42.5 23t20 44.5t5 71v493q0 22 -2.5 43.5t-9.5 38.5t-21 27t-36 10q-16 0 -34 -4.5t-36 -10.5z " />
<glyph unicode="&#xed;" horiz-adv-x="558" d="M61 815l272 109h43v-741q0 -43 5 -71t20 -44.5t41.5 -23t70.5 -6.5v-38h-439v38q44 0 71.5 6.5t42.5 23t20 44.5t5 71v493q0 22 -2.5 43.5t-9.5 38.5t-21 27t-36 10q-16 0 -34 -4.5t-36 -10.5zM106 1022l277 279q25 25 55 44.5t66 19.5q25 0 38.5 -18.5t13.5 -40.5 q0 -34 -23.5 -58t-55.5 -44l-290 -182h-81z" />
<glyph unicode="&#xee;" horiz-adv-x="558" d="M-27 1009l253 335h125l250 -335h-69l-244 208l-246 -208h-69zM61 815l272 109h43v-741q0 -43 5 -71t20 -44.5t41.5 -23t70.5 -6.5v-38h-439v38q44 0 71.5 6.5t42.5 23t20 44.5t5 71v493q0 22 -2.5 43.5t-9.5 38.5t-21 27t-36 10q-16 0 -34 -4.5t-36 -10.5z" />
<glyph unicode="&#xef;" horiz-adv-x="558" d="M-27 1191q0 19 8.5 36.5t22 31.5t31 21.5t37.5 7.5q40 0 70.5 -28.5t30.5 -68.5q0 -21 -8.5 -40t-22 -32.5t-32.5 -21.5t-38 -8q-40 0 -69.5 30.5t-29.5 71.5zM61 815l272 109h43v-741q0 -43 5 -71t20 -44.5t41.5 -23t70.5 -6.5v-38h-439v38q44 0 71.5 6.5t42.5 23 t20 44.5t5 71v493q0 22 -2.5 43.5t-9.5 38.5t-21 27t-36 10q-16 0 -34 -4.5t-36 -10.5zM372 1191q0 19 8.5 36.5t23 31.5t32.5 21.5t37 7.5q40 0 69.5 -28.5t29.5 -68.5q0 -21 -7.5 -40t-21.5 -32.5t-32 -21.5t-38 -8q-40 0 -70.5 30.5t-30.5 71.5z" />
<glyph unicode="&#xf0;" horiz-adv-x="1004" d="M66 433q0 94 30.5 181t86 153.5t131.5 107t166 40.5q21 0 38.5 -0.5t35.5 -6t40 -17t51 -32.5q-39 81 -84.5 152.5t-101.5 136.5l-243 -134l-26 54l227 129q-32 32 -54 53t-41.5 37.5t-40 30.5t-47.5 34l25 43q60 -30 119.5 -68t123.5 -83l244 135l34 -54l-225 -128 q90 -81 160 -170.5t118 -183.5t73 -189.5t25 -189.5t-30 -182t-86.5 -157t-138.5 -111.5t-186 -42.5q-90 0 -167 35.5t-134.5 97t-90 146t-32.5 183.5zM247 508q0 -97 21 -181.5t58.5 -147.5t91 -99.5t119.5 -36.5q45 0 84 18t67.5 58t45 101.5t16.5 148.5q0 112 -20 202.5 t-57 153.5t-89 97.5t-115 34.5q-43 0 -83 -17t-70.5 -57.5t-49.5 -107.5t-19 -167z" />
<glyph unicode="&#xf1;" d="M10 815l275 109h40v-190q27 32 60.5 66t71 61.5t80.5 45t88 17.5q73 0 119 -30t72 -78.5t35 -109t9 -120.5v-383q0 -43 4 -74.5t18 -51.5t41.5 -29.5t77.5 -9.5v-38h-450v38q51 0 80 7.5t44 26.5t19 51t4 80v366q0 38 -3.5 79.5t-17.5 76t-42.5 56.5t-78.5 22 q-35 0 -67.5 -11t-61.5 -28.5t-54.5 -41t-47.5 -46.5v-473q0 -47 4 -79t18 -51.5t43.5 -27t80.5 -7.5v-38h-448v38q49 0 76.5 9.5t41.5 29.5t16.5 51.5t2.5 74.5v413q0 34 -2 66t-9 57t-21 40.5t-37 15.5q-17 0 -34 -4.5t-34 -10.5zM172 1102q10 43 28.5 81t45.5 65t64 42.5 t84 15.5q39 0 69 -13.5t58.5 -30.5t58.5 -30.5t69 -13.5q48 0 87.5 25.5t51.5 73.5h52q-4 -40 -22 -78.5t-46.5 -69t-65 -49t-79.5 -18.5q-55 0 -88.5 14.5t-62 32t-59.5 32.5t-79 15q-21 0 -40 -8.5t-35 -21.5t-27 -30t-12 -34h-52z" />
<glyph unicode="&#xf2;" d="M66 439q0 95 30.5 182t88 155t138 108t180.5 40q97 0 177 -35.5t136.5 -98t87.5 -146.5t31 -179q0 -97 -31 -187t-88 -158t-139 -109t-184 -41q-97 0 -176 39t-134.5 104.5t-86 150t-30.5 175.5zM230 1291q0 75 61 75q52 0 117 -65l279 -279h-82l-287 182q-88 55 -88 87z M251 521q0 -43 6 -95t19 -105t34 -103t52.5 -89t73.5 -62.5t97 -23.5q70 0 113 33t66.5 84.5t31 112.5t7.5 116q0 43 -5 95t-18 104.5t-34 101t-52 87t-74 61t-97 22.5q-66 0 -109.5 -33t-68 -83t-33.5 -109.5t-9 -113.5z" />
<glyph unicode="&#xf3;" d="M66 439q0 95 30.5 182t88 155t138 108t180.5 40q97 0 177 -35.5t136.5 -98t87.5 -146.5t31 -179q0 -97 -31 -187t-88 -158t-139 -109t-184 -41q-97 0 -176 39t-134.5 104.5t-86 150t-30.5 175.5zM251 521q0 -43 6 -95t19 -105t34 -103t52.5 -89t73.5 -62.5t97 -23.5 q70 0 113 33t66.5 84.5t31 112.5t7.5 116q0 43 -5 95t-18 104.5t-34 101t-52 87t-74 61t-97 22.5q-66 0 -109.5 -33t-68 -83t-33.5 -109.5t-9 -113.5zM319 1022l277 279q25 25 55 44.5t66 19.5q25 0 38.5 -18.5t13.5 -40.5q0 -34 -23.5 -58t-55.5 -44l-290 -182h-81z" />
<glyph unicode="&#xf4;" d="M66 439q0 95 30.5 182t88 155t138 108t180.5 40q97 0 177 -35.5t136.5 -98t87.5 -146.5t31 -179q0 -97 -31 -187t-88 -158t-139 -109t-184 -41q-97 0 -176 39t-134.5 104.5t-86 150t-30.5 175.5zM186 1009l253 335h125l250 -335h-69l-244 208l-246 -208h-69zM251 521 q0 -43 6 -95t19 -105t34 -103t52.5 -89t73.5 -62.5t97 -23.5q70 0 113 33t66.5 84.5t31 112.5t7.5 116q0 43 -5 95t-18 104.5t-34 101t-52 87t-74 61t-97 22.5q-66 0 -109.5 -33t-68 -83t-33.5 -109.5t-9 -113.5z" />
<glyph unicode="&#xf5;" d="M66 439q0 95 30.5 182t88 155t138 108t180.5 40q97 0 177 -35.5t136.5 -98t87.5 -146.5t31 -179q0 -97 -31 -187t-88 -158t-139 -109t-184 -41q-97 0 -176 39t-134.5 104.5t-86 150t-30.5 175.5zM166 1102q10 43 28.5 81t45.5 65t64 42.5t84 15.5q39 0 69 -13.5 t58.5 -30.5t58.5 -30.5t69 -13.5q48 0 87.5 25.5t51.5 73.5h52q-4 -40 -22 -78.5t-46.5 -69t-65 -49t-79.5 -18.5q-55 0 -88.5 14.5t-62 32t-59.5 32.5t-79 15q-21 0 -40 -8.5t-35 -21.5t-27 -30t-12 -34h-52zM251 521q0 -43 6 -95t19 -105t34 -103t52.5 -89t73.5 -62.5 t97 -23.5q70 0 113 33t66.5 84.5t31 112.5t7.5 116q0 43 -5 95t-18 104.5t-34 101t-52 87t-74 61t-97 22.5q-66 0 -109.5 -33t-68 -83t-33.5 -109.5t-9 -113.5z" />
<glyph unicode="&#xf6;" d="M66 439q0 95 30.5 182t88 155t138 108t180.5 40q97 0 177 -35.5t136.5 -98t87.5 -146.5t31 -179q0 -97 -31 -187t-88 -158t-139 -109t-184 -41q-97 0 -176 39t-134.5 104.5t-86 150t-30.5 175.5zM186 1191q0 19 8.5 36.5t22 31.5t31 21.5t37.5 7.5q40 0 70.5 -28.5 t30.5 -68.5q0 -21 -8.5 -40t-22 -32.5t-32.5 -21.5t-38 -8q-40 0 -69.5 30.5t-29.5 71.5zM251 521q0 -43 6 -95t19 -105t34 -103t52.5 -89t73.5 -62.5t97 -23.5q70 0 113 33t66.5 84.5t31 112.5t7.5 116q0 43 -5 95t-18 104.5t-34 101t-52 87t-74 61t-97 22.5 q-66 0 -109.5 -33t-68 -83t-33.5 -109.5t-9 -113.5zM585 1191q0 19 8.5 36.5t23 31.5t32.5 21.5t37 7.5q40 0 69.5 -28.5t29.5 -68.5q0 -21 -7.5 -40t-21.5 -32.5t-32 -21.5t-38 -8q-40 0 -70.5 30.5t-30.5 71.5z" />
<glyph unicode="&#xf7;" horiz-adv-x="1930" d="M386 519v121h1158v-121h-1158zM849 269q0 23 9 44t24.5 36.5t37 24.5t46.5 9q49 0 81.5 -33t32.5 -81t-32.5 -81t-81.5 -33q-25 0 -46.5 9t-37 24.5t-24.5 36.5t-9 44zM849 889q0 23 9 44.5t24.5 38t37 25.5t46.5 9q49 0 81.5 -34.5t32.5 -82.5t-32.5 -81t-81.5 -33 q-25 0 -46.5 9t-37 24.5t-24.5 36.5t-9 44z" />
<glyph unicode="&#xf8;" horiz-adv-x="1004" d="M39 -23l138 156q-23 29 -43 66.5t-33.5 79t-21.5 85t-8 82.5q0 82 29.5 166.5t85.5 154t137 113t187 43.5q40 0 75 -5.5t69 -17.5t67 -33t71 -52l130 144l44 -41l-132 -150q49 -66 76.5 -142t27.5 -162q0 -83 -27 -170t-81.5 -158.5t-138 -118t-194.5 -46.5 q-39 0 -73.5 6t-68 19t-68 35t-71.5 53l-132 -150zM255 521q0 -60 9 -124t30 -132l397 441q-27 44 -51.5 74t-50 47.5t-52 24.5t-57.5 7q-49 0 -90.5 -18t-71 -58.5t-46.5 -104.5t-17 -157zM321 201q26 -45 49.5 -75.5t49 -49t54 -26t63.5 -7.5q47 0 87 17.5t69.5 58.5 t46 108t16.5 167q0 116 -37 247z" />
<glyph unicode="&#xf9;" d="M0 860v37h317v-599q0 -39 6 -75.5t22 -65t45.5 -46t74.5 -17.5q32 0 63.5 11.5t60 29.5t54 41t46.5 45v508q0 40 -8.5 66t-26 40.5t-45.5 19.5t-66 5v37h308v-660q0 -14 1.5 -38t7.5 -45t18 -37t34 -16q39 0 81 16l13 -35l-272 -112h-45v192q-30 -32 -64 -66t-72 -62 t-80.5 -46t-89.5 -18q-73 0 -118 32.5t-70.5 83t-34 113t-8.5 121.5v401q0 44 -8 71.5t-26 42.5t-47 20t-71 5zM233 1291q0 75 61 75q52 0 117 -65l279 -279h-82l-287 182q-88 55 -88 87z" />
<glyph unicode="&#xfa;" d="M0 860v37h317v-599q0 -39 6 -75.5t22 -65t45.5 -46t74.5 -17.5q32 0 63.5 11.5t60 29.5t54 41t46.5 45v508q0 40 -8.5 66t-26 40.5t-45.5 19.5t-66 5v37h308v-660q0 -14 1.5 -38t7.5 -45t18 -37t34 -16q39 0 81 16l13 -35l-272 -112h-45v192q-30 -32 -64 -66t-72 -62 t-80.5 -46t-89.5 -18q-73 0 -118 32.5t-70.5 83t-34 113t-8.5 121.5v401q0 44 -8 71.5t-26 42.5t-47 20t-71 5zM322 1022l277 279q25 25 55 44.5t66 19.5q25 0 38.5 -18.5t13.5 -40.5q0 -34 -23.5 -58t-55.5 -44l-290 -182h-81z" />
<glyph unicode="&#xfb;" d="M0 860v37h317v-599q0 -39 6 -75.5t22 -65t45.5 -46t74.5 -17.5q32 0 63.5 11.5t60 29.5t54 41t46.5 45v508q0 40 -8.5 66t-26 40.5t-45.5 19.5t-66 5v37h308v-660q0 -14 1.5 -38t7.5 -45t18 -37t34 -16q39 0 81 16l13 -35l-272 -112h-45v192q-30 -32 -64 -66t-72 -62 t-80.5 -46t-89.5 -18q-73 0 -118 32.5t-70.5 83t-34 113t-8.5 121.5v401q0 44 -8 71.5t-26 42.5t-47 20t-71 5zM188 1009l253 335h125l250 -335h-69l-244 208l-246 -208h-69z" />
<glyph unicode="&#xfc;" d="M0 860v37h317v-599q0 -39 6 -75.5t22 -65t45.5 -46t74.5 -17.5q32 0 63.5 11.5t60 29.5t54 41t46.5 45v508q0 40 -8.5 66t-26 40.5t-45.5 19.5t-66 5v37h308v-660q0 -14 1.5 -38t7.5 -45t18 -37t34 -16q39 0 81 16l13 -35l-272 -112h-45v192q-30 -32 -64 -66t-72 -62 t-80.5 -46t-89.5 -18q-73 0 -118 32.5t-70.5 83t-34 113t-8.5 121.5v401q0 44 -8 71.5t-26 42.5t-47 20t-71 5zM188 1191q0 19 8.5 36.5t22 31.5t31 21.5t37.5 7.5q40 0 70.5 -28.5t30.5 -68.5q0 -21 -8.5 -40t-22 -32.5t-32.5 -21.5t-38 -8q-40 0 -69.5 30.5t-29.5 71.5z M587 1191q0 19 8.5 36.5t23 31.5t32.5 21.5t37 7.5q40 0 69.5 -28.5t29.5 -68.5q0 -21 -7.5 -40t-21.5 -32.5t-32 -21.5t-38 -8q-40 0 -70.5 30.5t-30.5 71.5z" />
<glyph unicode="&#xfd;" d="M10 860v37h422v-37q-19 0 -39 -1t-36 -7t-26.5 -19t-10.5 -38q0 -27 11 -54t23 -52l218 -452l200 497q8 18 14.5 36.5t6.5 36.5q0 19 -8.5 30.5t-22 16.5t-30 5.5t-31.5 0.5v37h292v-37q-31 -3 -51 -13.5t-34.5 -28t-25 -41t-22.5 -50.5l-365 -897q-19 -45 -48.5 -93 t-68.5 -85.5t-85.5 -61.5t-101.5 -24q-25 0 -49 7t-42 21.5t-30 35t-12 48.5q0 48 27.5 68t71.5 20q18 0 36 -5t35.5 -12.5t34 -12.5t32.5 -5q26 0 49.5 19t43.5 48t37 65t30.5 69.5t23.5 62t16 43.5l-322 676q-13 26 -27.5 51t-33 45.5t-44 33.5t-58.5 16zM365 1022 l277 279q25 25 55 44.5t66 19.5q25 0 38.5 -18.5t13.5 -40.5q0 -34 -23.5 -58t-55.5 -44l-290 -182h-81z" />
<glyph unicode="&#xfe;" horiz-adv-x="1004" d="M-8 -393q52 3 83.5 9t47.5 23.5t21 51t5 93.5v1362q0 21 -1.5 42.5t-9 39t-23 28t-42.5 10.5q-26 0 -64 -14l-10 32l275 111h37v-684q35 60 69.5 100t69.5 65t72.5 36t78.5 11q74 0 135.5 -34t105.5 -93t69 -139.5t25 -174.5q0 -105 -29.5 -198t-82.5 -162t-129 -109 t-170 -42q-30 0 -55 2t-50 10t-51 24t-58 45v-272q0 -53 3.5 -85.5t19.5 -50.5t46.5 -26t83.5 -11v-36h-472v36zM311 317q0 -55 2.5 -90t7.5 -54q6 -26 22 -51t41 -45.5t59.5 -33t77.5 -12.5q55 0 99 25t75.5 71.5t48 113t16.5 149.5q0 86 -16.5 158t-48 124.5t-75.5 82 t-99 29.5q-21 0 -39 -2.5t-40 -15t-53.5 -39t-77.5 -74.5v-336z" />
<glyph unicode="&#xff;" d="M10 860v37h422v-37q-19 0 -39 -1t-36 -7t-26.5 -19t-10.5 -38q0 -27 11 -54t23 -52l218 -452l200 497q8 18 14.5 36.5t6.5 36.5q0 19 -8.5 30.5t-22 16.5t-30 5.5t-31.5 0.5v37h292v-37q-31 -3 -51 -13.5t-34.5 -28t-25 -41t-22.5 -50.5l-365 -897q-19 -45 -48.5 -93 t-68.5 -85.5t-85.5 -61.5t-101.5 -24q-25 0 -49 7t-42 21.5t-30 35t-12 48.5q0 48 27.5 68t71.5 20q18 0 36 -5t35.5 -12.5t34 -12.5t32.5 -5q26 0 49.5 19t43.5 48t37 65t30.5 69.5t23.5 62t16 43.5l-322 676q-13 26 -27.5 51t-33 45.5t-44 33.5t-58.5 16zM231 1191 q0 19 8.5 36.5t22 31.5t31 21.5t37.5 7.5q40 0 70.5 -28.5t30.5 -68.5q0 -21 -8.5 -40t-22 -32.5t-32.5 -21.5t-38 -8q-40 0 -69.5 30.5t-29.5 71.5zM630 1191q0 19 8.5 36.5t23 31.5t32.5 21.5t37 7.5q40 0 69.5 -28.5t29.5 -68.5q0 -21 -7.5 -40t-21.5 -32.5t-32 -21.5 t-38 -8q-40 0 -70.5 30.5t-30.5 71.5z" />
<glyph unicode="&#x152;" horiz-adv-x="1785" d="M74 663q0 143 41.5 266.5t121.5 215t196 144t265 52.5q51 0 123 -6.5t164 -6.5h625l11 -289h-31q-14 70 -28 113t-39.5 66t-69.5 31t-119 8h-250v-523h176q103 0 154.5 41t51.5 149h40v-464h-40q-4 58 -14.5 96t-33.5 61t-61.5 32t-96.5 9h-176v-437q0 -49 6 -78.5 t28.5 -44.5t65.5 -19.5t117 -4.5q79 0 137.5 12.5t103.5 43t79.5 80t65.5 123.5h40l-106 -333h-641q-77 0 -153.5 -8t-153.5 -8q-142 0 -253 56.5t-188 150.5t-117.5 216.5t-40.5 255.5zM298 655q0 -64 7.5 -132.5t25 -135.5t47.5 -127.5t74.5 -106t104 -73t138.5 -27.5 q70 0 110 19.5t59.5 55.5t24.5 88t5 117v689q0 57 -5 103.5t-24.5 80.5t-58.5 53t-108 19q-82 0 -143.5 -28t-106 -76t-73.5 -111t-46 -132t-24 -140.5t-7 -135.5z" />
<glyph unicode="&#x153;" horiz-adv-x="1447" d="M66 434q0 95 26 183.5t78 156.5t130 109t182 41q94 0 172 -38.5t134 -116.5q48 74 116 114.5t158 40.5q79 0 139.5 -24.5t101.5 -69t61 -106.5t20 -136v-26h-538v-43q0 -62 13.5 -130.5t45 -124.5t83 -92.5t127.5 -36.5q48 0 85 17.5t66.5 47t50 68.5t35.5 80l32 -15 q-13 -68 -37.5 -133t-64 -116.5t-97 -82.5t-136.5 -31q-84 0 -154.5 42.5t-106.5 117.5q-58 -75 -137.5 -117.5t-176.5 -42.5q-100 0 -176 37.5t-128 102t-78 148.5t-26 176zM251 530q0 -38 4 -89t14 -105t28.5 -106.5t45.5 -94t66 -67t91 -25.5q66 0 105.5 32t61 80.5 t28 106t6.5 108.5q0 42 -3.5 95.5t-12.5 108.5t-26.5 108.5t-46 94.5t-69.5 66t-98 25q-66 0 -104.5 -34.5t-58 -85.5t-25.5 -110.5t-6 -107.5zM846 625h343q0 42 -8.5 84t-28.5 76t-53 54.5t-83 20.5q-45 0 -77 -22.5t-52 -57.5t-30 -76.5t-11 -78.5z" />
<glyph unicode="&#x178;" horiz-adv-x="1447" d="M18 1293v35h568v-35q-21 0 -47.5 -2.5t-50 -11t-39 -26t-15.5 -47.5q0 -19 24 -66.5t61 -108t80 -126t80 -121t62.5 -93t27.5 -41.5l264 409q8 13 18.5 30t19.5 36t15 38.5t6 34.5q0 27 -13 45.5t-32.5 29.5t-43 15.5t-45.5 4.5v35h464v-35q-49 0 -85.5 -13t-66.5 -37 t-56 -57.5t-53 -76.5l-349 -545v-333q0 -61 6.5 -98.5t26 -59t56.5 -28.5t100 -7v-38h-564v38q62 0 98.5 7.5t55.5 29t24 59.5t5 97v315l-361 556q-21 32 -45 66t-52.5 62t-64 45.5t-79.5 17.5zM406 1620q0 19 8.5 36.5t22 31.5t31 21.5t37.5 7.5q40 0 70.5 -28.5 t30.5 -68.5q0 -21 -8.5 -40t-22 -32.5t-32.5 -21.5t-38 -8q-40 0 -69.5 30.5t-29.5 71.5zM805 1620q0 19 8.5 36.5t23 31.5t32.5 21.5t37 7.5q40 0 69.5 -28.5t29.5 -68.5q0 -21 -7.5 -40t-21.5 -32.5t-32 -21.5t-38 -8q-40 0 -70.5 30.5t-30.5 71.5z" />
<glyph unicode="&#x2c6;" horiz-adv-x="627" d="M0 1022l253 335h125l250 -335h-69l-244 208l-246 -208h-69z" />
<glyph unicode="&#x2dc;" horiz-adv-x="668" d="M0 1102q10 43 28.5 81t45.5 65t64 42.5t84 15.5q39 0 69 -13.5t58.5 -30.5t58.5 -30.5t69 -13.5q48 0 87.5 25.5t51.5 73.5h52q-4 -40 -22 -78.5t-46.5 -69t-65 -49t-79.5 -18.5q-55 0 -88.5 14.5t-62 32t-59.5 32.5t-79 15q-21 0 -40 -8.5t-35 -21.5t-27 -30t-12 -34 h-52z" />
<glyph unicode="&#x2000;" horiz-adv-x="912" />
<glyph unicode="&#x2001;" horiz-adv-x="1825" />
<glyph unicode="&#x2002;" horiz-adv-x="912" />
<glyph unicode="&#x2003;" horiz-adv-x="1825" />
<glyph unicode="&#x2004;" horiz-adv-x="608" />
<glyph unicode="&#x2005;" horiz-adv-x="456" />
<glyph unicode="&#x2006;" horiz-adv-x="304" />
<glyph unicode="&#x2007;" horiz-adv-x="304" />
<glyph unicode="&#x2008;" horiz-adv-x="228" />
<glyph unicode="&#x2009;" horiz-adv-x="365" />
<glyph unicode="&#x200a;" horiz-adv-x="101" />
<glyph unicode="&#x2010;" horiz-adv-x="668" d="M79 309v149h507v-149h-507z" />
<glyph unicode="&#x2011;" horiz-adv-x="668" d="M79 309v149h507v-149h-507z" />
<glyph unicode="&#x2012;" horiz-adv-x="668" d="M79 309v149h507v-149h-507z" />
<glyph unicode="&#x2013;" horiz-adv-x="965" d="M-43 442v74h1036v-74h-1036z" />
<glyph unicode="&#x2014;" horiz-adv-x="1930" d="M0 442v74h1930v-74h-1930z" />
<glyph unicode="&#x2018;" horiz-adv-x="668" d="M181 1046q0 62 18.5 112.5t52.5 89t81 65t104 44.5v-42q-27 -16 -56 -35.5t-53.5 -45t-40 -56t-15.5 -65.5q0 -9 1 -19.5t5 -19t12 -14.5t19 -6q18 0 36 8t38 8q21 0 39.5 -8.5t31.5 -23.5t20.5 -34t7.5 -38q0 -27 -11 -48t-29 -36t-42 -23t-49 -8q-38 0 -69 17t-54 44.5 t-35 62.5t-12 71z" />
<glyph unicode="&#x2019;" horiz-adv-x="668" d="M186 1245q0 26 11 47t30 35t42 22t48 8q38 0 69 -17t54 -44t35 -62t12 -71q0 -62 -18.5 -112t-52.5 -88t-80.5 -65t-104.5 -47v43q27 16 56 36.5t53.5 46t40 55.5t15.5 65q0 9 -1 19t-5 19t-12 15t-19 6q-18 0 -36 -8t-38 -8q-42 0 -70.5 32t-28.5 73z" />
<glyph unicode="&#x201a;" horiz-adv-x="668" d="M188 79q0 27 11.5 48.5t30 36.5t42 23t48.5 8q38 0 69 -17.5t53 -45t33.5 -62.5t11.5 -70q0 -62 -18.5 -112t-52 -88.5t-80 -66t-102.5 -45.5v40q27 16 55.5 37.5t53 47t39 56t14.5 65.5q0 18 -5 38t-28 20q-21 0 -39.5 -7.5t-36.5 -7.5q-21 0 -39 8.5t-31 22.5t-21 33 t-8 38z" />
<glyph unicode="&#x201c;" horiz-adv-x="1021" d="M66 1049q0 62 19 112t52 88.5t80 66.5t103 47v-42q-27 -16 -56 -37t-53 -46t-39 -55t-15 -65q0 -19 6 -40t32 -21q18 0 35.5 7.5t35.5 7.5q21 0 39.5 -8.5t31.5 -23t20.5 -34t7.5 -38.5q0 -26 -11 -46.5t-30 -35.5t-42 -23.5t-48 -8.5q-38 0 -69 17.5t-53 45t-34 62.5 t-12 70zM536 1049q0 62 18.5 111.5t52 87.5t80 65.5t103.5 47.5v-43q-27 -16 -55.5 -36.5t-53.5 -46t-40.5 -55.5t-15.5 -65q0 -9 1.5 -19.5t5.5 -19t11.5 -14t19.5 -5.5q18 0 35.5 6.5t35.5 6.5q42 0 70.5 -31t28.5 -73q0 -26 -11 -47t-28.5 -36t-41 -23.5t-46.5 -8.5 q-39 0 -70.5 17.5t-54 45.5t-34 63.5t-11.5 71.5z" />
<glyph unicode="&#x201d;" horiz-adv-x="1021" d="M186 1245q0 26 11 47t30 35t42 22t48 8q38 0 69 -17t54 -44t35 -62t12 -71q0 -62 -18.5 -112t-52.5 -88t-80.5 -65t-104.5 -47v43q27 16 56 36.5t53.5 46t40 55.5t15.5 65q0 9 -1 19t-5 19t-12 15t-19 6q-18 0 -36 -8t-38 -8q-42 0 -70.5 32t-28.5 73zM658 1243 q0 27 10 48.5t28 35.5t41 22t48 8q38 0 69 -17t54 -45t35 -63t12 -71q0 -62 -18.5 -111.5t-52 -87.5t-81 -66t-102.5 -47v43q27 16 55.5 36.5t53 46t40.5 55t16 64.5q0 9 -1.5 19.5t-5.5 20t-11.5 16t-19.5 6.5q-18 0 -36.5 -8t-37.5 -8q-42 0 -69 30.5t-27 72.5z" />
<glyph unicode="&#x201e;" horiz-adv-x="889" d="M66 79q0 55 39 85.5t90 30.5q39 0 70 -17.5t53.5 -45t34.5 -62.5t12 -70q0 -62 -18.5 -112t-52.5 -88.5t-81 -66t-104 -45.5v40q27 16 56 37.5t53.5 47t40 56t15.5 65.5q0 9 -1 18.5t-5 19t-12 15t-19 5.5q-18 0 -36 -7.5t-36 -7.5q-44 0 -71.5 31t-27.5 71zM536 79 q0 26 10 47.5t27.5 36.5t41 23.5t48.5 8.5q39 0 70 -17.5t54 -45.5t34.5 -63.5t11.5 -71.5q0 -62 -19 -111.5t-52 -87t-79.5 -65.5t-102.5 -48v43q26 16 54.5 37t52.5 46t39.5 55t15.5 65q0 18 -6.5 38.5t-29.5 20.5q-18 0 -36.5 -6.5t-36.5 -6.5q-42 0 -69.5 30.5 t-27.5 71.5z" />
<glyph unicode="&#x2022;" horiz-adv-x="579" d="M66 658q0 45 17.5 85.5t47.5 70.5t71 47.5t88 17.5q45 0 85.5 -17.5t70.5 -47.5t47.5 -70.5t17.5 -85.5q0 -47 -17.5 -88t-47.5 -71t-70.5 -47.5t-85.5 -17.5q-47 0 -88 17.5t-71 47.5t-47.5 71t-17.5 88z" />
<glyph unicode="&#x2026;" horiz-adv-x="2009" d="M229 82q0 47 30.5 78t75.5 31t77.5 -31t32.5 -78q0 -45 -31 -78.5t-79 -33.5t-77 33t-29 79zM894 82q0 47 32 78t77 31t77.5 -31t32.5 -78q0 -45 -32 -78.5t-78 -33.5q-48 0 -78.5 33t-30.5 79zM1568 82q0 47 30.5 78t75.5 31t77 -31t32 -78q0 -45 -30.5 -78.5 t-78.5 -33.5t-77 33t-29 79z" />
<glyph unicode="&#x202f;" horiz-adv-x="365" />
<glyph unicode="&#x2039;" horiz-adv-x="491" d="M100 340q0 126 68 235q68 112 184 170q25 12 35 -8q9 -18 -6 -30q-182 -144 -182 -367q0 -211 182 -367q15 -12 6 -30q-13 -20 -35 -9q-117 60 -184 170q-68 112 -68 236z" />
<glyph unicode="&#x203a;" horiz-adv-x="490" d="M104 -57q-9 17 7 30q182 156 182 367q0 223 -182 367q-16 13 -7 30q10 20 35 8q120 -60 187 -170q65 -104 65 -235q0 -129 -65 -236q-66 -108 -187 -170q-22 -11 -35 9z" />
<glyph unicode="&#x205f;" horiz-adv-x="456" />
<glyph unicode="&#x20ac;" horiz-adv-x="1234" d="M0 716l40 96h112q22 117 73.5 217.5t129 173t176.5 113.5t216 41q60 0 104.5 -14.5t74 -30.5t45.5 -30.5t19 -14.5q19 0 45 17.5t40 72.5h35l23 -385h-28q-19 64 -52.5 121t-77 100.5t-97 69t-114.5 25.5q-101 0 -172 -39t-117 -105t-70.5 -152t-34.5 -180h626l-41 -96 h-594q-3 -16 -2.5 -32t0.5 -31v-32.5t2 -31.5h561l-41 -96h-511q13 -94 44 -174t82 -138.5t124.5 -91.5t172.5 -33q112 0 192 61t148 162l30 -20q-42 -73 -82.5 -127t-91.5 -91t-116.5 -55t-153.5 -18q-109 0 -204 38.5t-169 108.5t-125 166t-72 212h-146l40 96h95 q-3 14 -3 30.5v31.5v32t3 33h-138z" />
<glyph unicode="&#x2122;" horiz-adv-x="1966" d="M32 1133l13 195h724l16 -195h-34q-5 49 -27.5 76.5t-58 41.5t-81 16.5t-97.5 2.5v-567q0 -38 4 -63t16 -40t32.5 -21.5t54.5 -6.5v-34h-370v34q30 0 48.5 6.5t29.5 21.5t15.5 40.5t4.5 62.5v567h-71q-43 0 -74 -6t-53.5 -21t-37.5 -41.5t-25 -68.5h-29zM851 538v34 q39 0 61.5 5t34 19.5t14 40t2.5 66.5v466q0 35 -2.5 59t-13.5 38t-33 20.5t-63 6.5v35h282l267 -559l261 559h272v-35q-35 0 -56.5 -7t-33.5 -23t-15.5 -41.5t-3.5 -60.5v-458q0 -35 3.5 -59.5t15.5 -41t33.5 -23.5t56.5 -7v-34h-389v34q38 0 61.5 6.5t35.5 21.5t16 39.5 t4 61.5v483l-304 -646h-29l-304 636v-471q0 -42 4.5 -67.5t18.5 -40t39 -19t67 -4.5v-34h-302z" />
<glyph unicode="&#x25fc;" horiz-adv-x="895" d="M0 0v895h895v-895h-895z" />
</font>
</defs>
</svg>
