<?xml version="1.0" standalone="no"?>
<!DOCTYPE svg PUBLIC "-//W3C//DTD SVG 1.1//EN" "http://www.w3.org/Graphics/SVG/1.1/DTD/svg11.dtd" >
<svg xmlns="http://www.w3.org/2000/svg" xmlns:xlink="http://www.w3.org/1999/xlink" version="1.1">
<metadata></metadata>
<defs>
<font id="lateefregular" horiz-adv-x="0" >
<font-face units-per-em="2048" ascent="1638" descent="-410" />
<missing-glyph horiz-adv-x="465" />
<glyph unicode="&#x648;&#x654;" horiz-adv-x="612" d="M-107 -215q17 -2 33.5 -2h31.5q87 0 165 16.5t145 52.5t122 92.5t97 135.5q0 8 -0.5 19.5t-2 24.5t-5 26t-9.5 22q-9 -15 -22.5 -30t-30 -27t-35 -19.5t-36.5 -7.5q-22 0 -38.5 9.5t-27.5 25t-16 35t-5 39.5q0 15 5 39.5t14.5 52.5t22 56.5t28 51.5t33 37.5t35.5 14.5 q26 0 46.5 -14t35 -36.5t24.5 -50.5t16 -57t8.5 -55.5t2.5 -45.5q0 -57 -11 -116.5t-33.5 -116t-56.5 -106t-79 -87.5q-39 -30 -87 -41.5t-96 -11.5q-31 0 -68 5t-74 14.5t-71.5 23t-60.5 31.5zM364 315q-7 0 -14.5 -10.5t-14 -24.5t-11 -28t-4.5 -20q0 -12 14.5 -24.5 t37.5 -12.5q14 0 35.5 11t32.5 28q-4 15 -12 29.5t-18 26t-22 18.5t-24 7zM457 798q-15 0 -29 8.5t-32 8.5q-10 0 -23.5 -6t-25.5 -15t-20.5 -20.5t-8.5 -22.5q0 -12 11 -21t26.5 -14t31.5 -7.5t25 -2.5h164l-49 -82h-37q-35 1 -71.5 -6.5t-71 -22t-66 -35t-57.5 -44.5 l-19 26q4 7 15.5 20t23.5 27t21.5 26.5t9.5 18.5q0 9 -7 20.5t-15.5 24.5t-15.5 27t-7 29q0 11 12.5 28t31.5 36.5t43 39t46.5 35t42 25.5t29.5 10q11 0 22.5 -5.5t21.5 -14t16.5 -19t6.5 -21.5q0 -8 -4 -17t-10 -16.5t-14 -12.5t-17 -5z" />
<glyph unicode="&#x64a;&#x654;" horiz-adv-x="1016" d="M539 958q-15 0 -29 8.5t-32 8.5q-10 0 -23.5 -6t-25.5 -15t-20.5 -20.5t-8.5 -22.5q0 -12 11 -21t26.5 -14t31.5 -7.5t25 -2.5h164l-49 -82h-37q-35 1 -71.5 -6.5t-71 -22t-66 -35t-57.5 -44.5l-19 26q4 7 15.5 20t23.5 27t21.5 26.5t9.5 18.5q0 9 -7 20.5t-15.5 24.5 t-15.5 27t-7 29q0 11 12.5 28t31.5 36.5t43 39t46.5 35t42 25.5t29.5 10q11 0 22.5 -5.5t21.5 -14t16.5 -19t6.5 -21.5q0 -8 -4 -17t-10 -16.5t-14 -12.5t-17 -5zM902 389q-3 5 -8 12.5t-11 14.5t-13 11.5t-15 4.5q-26 0 -67.5 -21.5t-81 -53t-68 -66.5t-28.5 -62 q0 -24 21.5 -38.5t56 -23.5t76.5 -14t82 -9q51 -5 71 -30.5t20 -76.5q0 -25 -9 -55t-24.5 -60t-36 -57t-44.5 -45q-53 -41 -114.5 -74t-122.5 -56t-117.5 -35.5t-98.5 -12.5q-78 0 -138 23t-100.5 66t-61 104t-20.5 138q0 67 25.5 141.5t76.5 152.5q5 7 13 7l2 -2q1 -1 1 -5 q-16 -42 -28 -96.5t-12 -111.5q0 -62 18.5 -106t53 -72.5t82.5 -41.5t108 -13q49 0 102.5 7.5t104.5 20t96.5 29t80 35.5t55 38.5t20.5 37.5q0 8 -14.5 12.5t-32.5 6t-35 1.5h-22q-33 2 -68 6t-64.5 16.5t-48 38t-18.5 68.5q0 36 15.5 84t42 99.5t62 101t75 89t81 63.5 t80.5 24q26 0 45 -15.5t19 -43.5q0 -17 -7 -37.5t-17 -42t-21 -41.5t-19 -35z" />
<glyph unicode="&#x647;&#x654;" horiz-adv-x="471" d="M179 646q6 -35 26 -58.5t46 -42.5t54.5 -38t52.5 -46t39.5 -65t15.5 -96q0 -27 -6.5 -60t-19.5 -66.5t-31.5 -65.5t-41.5 -56.5t-51.5 -39.5t-60.5 -15q-74 0 -107 42t-33 112q0 32 6 68t17 72t25.5 70t32.5 61q-9 8 -11 23t-2 29q0 20 4 43t10.5 46t15.5 44.5t19 38.5z M206 175q13 0 37 7t47.5 18t41 26t17.5 31q0 9 -19.5 29.5t-46 43.5t-54.5 43t-46 26q-12 -10 -22 -26.5t-17.5 -34t-11.5 -33.5t-4 -27q0 -19 4 -38t13 -33t24 -23t37 -9zM261 992q-15 0 -29 8.5t-32 8.5q-10 0 -23.5 -6t-25.5 -15t-20.5 -20.5t-8.5 -22.5q0 -12 11 -21 t26.5 -14t31.5 -7.5t25 -2.5h164l-49 -82h-37q-35 1 -71.5 -6.5t-71 -22t-66 -35t-57.5 -44.5l-19 26q4 7 15.5 20t23.5 27t21.5 26.5t9.5 18.5q0 9 -7 20.5t-15.5 24.5t-15.5 27t-7 29q0 11 12.5 28t31.5 36.5t43 39t46.5 35t42 25.5t29.5 10q11 0 22.5 -5.5t21.5 -14 t16.5 -19t6.5 -21.5q0 -8 -4 -17t-10 -16.5t-14 -12.5t-17 -5z" />
<glyph unicode="&#x6c1;&#x654;" horiz-adv-x="471" d="M179 646q6 -35 26 -58.5t46 -42.5t54.5 -38t52.5 -46t39.5 -65t15.5 -96q0 -27 -6.5 -60t-19.5 -66.5t-31.5 -65.5t-41.5 -56.5t-51.5 -39.5t-60.5 -15q-74 0 -107 42t-33 112q0 32 6 68t17 72t25.5 70t32.5 61q-9 8 -11 23t-2 29q0 20 4 43t10.5 46t15.5 44.5t19 38.5z M206 175q13 0 37 7t47.5 18t41 26t17.5 31q0 9 -19.5 29.5t-46 43.5t-54.5 43t-46 26q-12 -10 -22 -26.5t-17.5 -34t-11.5 -33.5t-4 -27q0 -19 4 -38t13 -33t24 -23t37 -9zM261 992q-15 0 -29 8.5t-32 8.5q-10 0 -23.5 -6t-25.5 -15t-20.5 -20.5t-8.5 -22.5q0 -12 11 -21 t26.5 -14t31.5 -7.5t25 -2.5h164l-49 -82h-37q-35 1 -71.5 -6.5t-71 -22t-66 -35t-57.5 -44.5l-19 26q4 7 15.5 20t23.5 27t21.5 26.5t9.5 18.5q0 9 -7 20.5t-15.5 24.5t-15.5 27t-7 29q0 11 12.5 28t31.5 36.5t43 39t46.5 35t42 25.5t29.5 10q11 0 22.5 -5.5t21.5 -14 t16.5 -19t6.5 -21.5q0 -8 -4 -17t-10 -16.5t-14 -12.5t-17 -5z" />
<glyph unicode="&#x64b;&#x651;" d="M201 1118q-16 0 -24.5 5.5t-22.5 9.5q-9 -12 -20 -26.5t-24 -27t-28 -21.5t-33 -9q-20 0 -33 19.5t-20.5 46.5t-11 54.5t-4.5 42.5l30 17l-2 -4q0 -12 3.5 -26.5t10.5 -27t17.5 -21.5t23.5 -9q15 0 27 17.5t19 41t9 46.5t-3 34l35 18q1 -8 4 -24t9 -31.5t14.5 -27 t19.5 -11.5q15 0 25 16.5t17 38.5t10 44t3 32q0 3 -1 8.5t-3 8.5l35 18q2 -17 3 -33.5t1 -33.5q0 -23 -1.5 -55t-10 -61t-25.5 -49t-49 -20zM276 1656v-65l-305 -164v70zM276 1450l-305 -162v70l305 158v-66z" />
<glyph unicode="&#x64c;&#x651;" d="M201 1118q-16 0 -24.5 5.5t-22.5 9.5q-9 -12 -20 -26.5t-24 -27t-28 -21.5t-33 -9q-20 0 -33 19.5t-20.5 46.5t-11 54.5t-4.5 42.5l30 17l-2 -4q0 -12 3.5 -26.5t10.5 -27t17.5 -21.5t23.5 -9t23 12t17 30t11 38.5t4 36.5q0 15 -3 22l35 18q1 -8 4 -24t9 -31.5t14.5 -27 t19.5 -11.5q15 0 25 16.5t17 38.5t10 44t3 32q0 3 -1 8.5t-3 8.5l35 18q2 -17 3 -33.5t1 -33.5q0 -23 -1.5 -55t-10 -61t-25.5 -49t-49 -20zM47 1392q32 20 53.5 39t42.5 45q-17 14 -31 28q-12 12 -23 25t-13 23q-3 15 -3 28q0 36 16 61.5t37.5 41t44.5 23t37 7.5 q35 0 57 -20t22 -53q0 -16 -4 -29q-7 -24 -17 -45t-20 -37q-11 -18 -23 -33l62 -41l-35 -51l-61 37q-15 -16 -39.5 -38.5t-57.5 -46t-75.5 -45.5t-94.5 -39l38 70q26 16 36 37t10 39q0 23 -11.5 33.5t-29.5 10.5q-17 0 -38.5 -8.5t-47.5 -24.5l17 57q19 17 41 25.5t43 8.5 q35 0 57.5 -23.5t22.5 -54.5q0 -22 -13 -50zM180 1525q17 19 29 41t12 47q0 20 -10 30.5t-24 10.5q-6 0 -14.5 -4t-17 -12t-14.5 -21t-6 -31q0 -14 7.5 -25.5t15.5 -19.5q10 -9 22 -16z" />
<glyph unicode="&#x64d;&#x651;" d="M201 1449q-16 0 -24.5 5.5t-22.5 9.5q-9 -12 -20 -26.5t-24 -27t-28 -21.5t-33 -9q-20 0 -33 19.5t-20.5 46.5t-11 54.5t-4.5 42.5l30 17l-2 -4q0 -12 3.5 -26.5t10.5 -27t17.5 -21.5t23.5 -9q15 0 27 17.5t19 41t9 46.5t-3 34l35 18q1 -8 4 -24t9 -31.5t14.5 -27 t19.5 -11.5q15 0 25 16.5t17 38.5t10 44t3 32q0 3 -1 8.5t-3 8.5l35 18q2 -17 3 -33.5t1 -33.5q0 -23 -1.5 -55t-10 -61t-25.5 -49t-49 -20zM274 1414v-65l-303 -162v70zM276 1210l-305 -162v70l305 158v-66z" />
<glyph unicode="&#x64e;&#x651;" d="M201 1118q-16 0 -24.5 5.5t-22.5 9.5q-9 -12 -20 -26.5t-24 -27t-28 -21.5t-33 -9q-20 0 -33 19.5t-20.5 46.5t-11 54.5t-4.5 42.5l30 17l-2 -4q0 -12 3.5 -26.5t10.5 -27t17.5 -21.5t23.5 -9q15 0 27 17.5t19 41t9 46.5t-3 34l35 18q1 -8 4 -24t9 -31.5t14.5 -27 t19.5 -11.5q15 0 25 16.5t17 38.5t10 44t3 32q0 3 -1 8.5t-3 8.5l35 18q2 -17 3 -33.5t1 -33.5q0 -23 -1.5 -55t-10 -61t-25.5 -49t-49 -20zM276 1450l-305 -162v70l305 158v-66z" />
<glyph unicode="&#x64f;&#x651;" d="M201 1118q-16 0 -24.5 5.5t-22.5 9.5q-9 -12 -20 -26.5t-24 -27t-28 -21.5t-33 -9q-20 0 -33 19.5t-20.5 46.5t-11 54.5t-4.5 42.5l30 17l-2 -4q0 -12 3.5 -26.5t10.5 -27t17.5 -21.5t23.5 -9t23 12t17 30t11 38.5t4 36.5q0 15 -3 22l35 18q1 -8 4 -24t9 -31.5t14.5 -27 t19.5 -11.5q15 0 25 16.5t17 38.5t10 44t3 32q0 3 -1 8.5t-3 8.5l35 18q2 -17 3 -33.5t1 -33.5q0 -23 -1.5 -55t-10 -61t-25.5 -49t-49 -20zM251 1402l-61 37q-9 -10 -17.5 -18.5t-18 -17t-20.5 -18t-26 -20.5q-17 -13 -38.5 -26t-41.5 -24q-23 -13 -47 -25l-27 47 q20 11 39 22q17 10 34 20.5t29 18.5q14 10 28.5 22.5t28.5 24.5q16 14 31 29q-17 14 -31 28q-12 12 -23 25t-13 23q-3 15 -3 28q0 36 16 61.5t37.5 41t44.5 23t37 7.5q35 0 57 -20t22 -53q0 -26 -7.5 -50t-17 -43.5t-20 -33.5t-16.5 -20l59 -38zM136 1584q0 -19 15.5 -35.5 t29.5 -25.5q19 16 30 39t11 49q0 20 -10 30.5t-24 10.5q-6 0 -14.5 -4t-17 -12t-14.5 -21t-6 -31z" />
<glyph unicode="&#x650;&#x651;" d="M201 1306q-16 0 -24.5 5.5t-22.5 9.5q-9 -12 -20 -26.5t-24 -27t-28 -21.5t-33 -9q-20 0 -33 19.5t-20.5 46.5t-11 54.5t-4.5 42.5l30 17l-2 -4q0 -12 3.5 -26.5t10.5 -27t17.5 -21.5t23.5 -9q15 0 27 17.5t19 41t9 46.5t-3 34l35 18q1 -8 4 -24t9 -31.5t14.5 -27 t19.5 -11.5q15 0 25 16.5t17 38.5t10 44t3 32q0 3 -1 8.5t-3 8.5l35 18q2 -17 3 -33.5t1 -33.5q0 -23 -1.5 -55t-10 -61t-25.5 -49t-49 -20zM276 1213l-305 -162v70l305 158v-66z" />
<glyph unicode="&#x651;&#x670;" d="M201 1118q-16 0 -24.5 5.5t-22.5 9.5q-9 -12 -20 -26.5t-24 -27t-28 -21.5t-33 -9q-20 0 -33 19.5t-20.5 46.5t-11 54.5t-4.5 42.5l30 17l-2 -4q0 -12 3.5 -26.5t10.5 -27t17.5 -21.5t23.5 -9q15 0 27 17.5t19 41t9 46.5t-3 34l35 18q1 -8 4 -24t9 -31.5t14.5 -27 t19.5 -11.5q15 0 25 16.5t17 38.5t10 44t3 32q0 3 -1 8.5t-3 8.5l35 18q2 -17 3 -33.5t1 -33.5q0 -23 -1.5 -55t-10 -61t-25.5 -49t-49 -20zM152 1741l2 -92q0 -12 2 -31t4 -41.5t2.5 -46.5t-2.5 -45q-5 -42 -15.5 -64t-20.5 -33q-11 -12 -24 -14q1 16 -1 38q-2 19 -4.5 47 t-8.5 63q-4 24 -6 47t-3 42q-1 22 -1 42z" />
<glyph unicode="&#x622;" horiz-adv-x="467" arabic-form="final" d="M375 0q-50 0 -86.5 27.5t-61 72t-39 100t-22.5 111t-10.5 105.5t-3.5 84l-10 497l84 95v-514q0 -28 4 -73.5t12 -92.5t19 -89.5t26 -66.5q29 -47 66 -61.5t81 -14.5h62q14 0 24.5 -7.5t18 -20t11 -28.5t3.5 -34t-3.5 -34t-11 -28.5t-18 -20t-24.5 -7.5h-121zM466 1392 q0 -25 -26.5 -56t-64 -58t-78 -45.5t-69.5 -18.5q-59 0 -106.5 11.5t-75.5 31.5q-3 -7 -14.5 -22.5t-26 -31t-28.5 -27.5t-21 -12q-3 0 -9 3t-6 8q0 4 7 20t18 38.5t24 48t25 48.5t21.5 40.5t13.5 23.5q38 -25 88.5 -45.5t99.5 -20.5q31 0 64.5 11t64.5 24t56 24t38 11 q2 0 3.5 -2t1.5 -4z" />
<glyph unicode="&#x623;" horiz-adv-x="467" arabic-form="final" d="M375 0q-50 0 -86.5 27.5t-61 72t-39 100t-22.5 111t-10.5 105.5t-3.5 84l-10 497l84 95v-514q0 -28 4 -73.5t12 -92.5t19 -89.5t26 -66.5q29 -47 66 -61.5t81 -14.5h62q14 0 24.5 -7.5t18 -20t11 -28.5t3.5 -34t-3.5 -34t-11 -28.5t-18 -20t-24.5 -7.5h-121zM289 1453 q-15 0 -29 8.5t-32 8.5q-10 0 -23.5 -6t-25.5 -15t-20.5 -20.5t-8.5 -22.5q0 -12 11 -21t26.5 -14t31.5 -7.5t25 -2.5h164l-49 -82h-37q-35 1 -71.5 -6.5t-71 -22t-66 -35t-57.5 -44.5l-19 26q4 7 15.5 20t23.5 27t21.5 26.5t9.5 18.5q0 9 -7 20.5t-15.5 24.5t-15.5 27 t-7 29q0 11 12.5 28t31.5 36.5t43 39t46.5 35t42 25.5t29.5 10q11 0 22.5 -5.5t21.5 -14t16.5 -19t6.5 -21.5q0 -8 -4 -17t-10 -16.5t-14 -12.5t-17 -5z" />
<glyph unicode="&#x625;" horiz-adv-x="467" arabic-form="final" d="M375 0q-50 0 -86.5 27.5t-61 72t-39 100t-22.5 111t-10.5 105.5t-3.5 84l-10 497l84 95v-514q0 -28 4 -73.5t12 -92.5t19 -89.5t26 -66.5q29 -47 66 -61.5t81 -14.5h62q14 0 24.5 -7.5t18 -20t11 -28.5t3.5 -34t-3.5 -34t-11 -28.5t-18 -20t-24.5 -7.5h-121zM357 -199 q-15 0 -29 8.5t-32 8.5q-10 0 -23.5 -6t-25.5 -15t-20.5 -20.5t-8.5 -22.5q0 -12 11 -21t26.5 -14t31.5 -7.5t25 -2.5h164l-49 -82h-37q-35 1 -71.5 -6.5t-71 -22t-66 -35t-57.5 -44.5l-19 26q4 7 15.5 20t23.5 27t21.5 26.5t9.5 18.5q0 9 -7 20.5t-15.5 24.5t-15.5 27 t-7 29q0 11 12.5 28t31.5 36.5t43 39t46.5 35t42 25.5t29.5 10q11 0 22.5 -5.5t21.5 -14t16.5 -19t6.5 -21.5q0 -8 -4 -17t-10 -16.5t-14 -12.5t-17 -5z" />
<glyph unicode="&#x627;" horiz-adv-x="467" arabic-form="final" d="M375 0q-50 0 -86.5 27.5t-61 72t-39 100t-22.5 111t-10.5 105.5t-3.5 84l-10 497l84 95v-514q0 -28 4 -73.5t12 -92.5t19 -89.5t26 -66.5q29 -47 66 -61.5t81 -14.5h62q14 0 24.5 -7.5t18 -20t11 -28.5t3.5 -34t-3.5 -34t-11 -28.5t-18 -20t-24.5 -7.5h-121z" />
<glyph unicode="&#x628;" horiz-adv-x="338" arabic-form="initial" d="M215 180q5 0 10 5.5t9 13t6 15.5t2 13q0 7 -4.5 23.5t-11 34.5t-13.5 32.5t-12 18.5l57 145q29 -38 42 -87.5t13 -98.5q0 -37 -7.5 -74t-22.5 -71q-9 -21 -27.5 -47t-41.5 -49t-49 -38.5t-50 -15.5h-151q-12 0 -21.5 8t-15.5 21t-9 29.5t-3 34.5q0 35 12 61t37 26h251z M199 -333l-104 104l104 104l104 -104z" />
<glyph unicode="&#x628;" horiz-adv-x="440" arabic-form="medial" d="M-40 0q-23 0 -35 27.5t-12 62.5t12 62.5t35 27.5h53.5t53 1t48 3.5t37.5 6.5q23 6 36.5 23.5t22.5 39t15 44t13 38.5q1 3 5 4.5t8.5 1.5t7.5 -2.5t2 -7.5q-2 -16 -3 -32t-1 -21q0 -35 22.5 -55t55.5 -29.5t70.5 -12t66.5 -2.5q25 0 37.5 -27.5t12.5 -62.5t-12.5 -62.5 t-37.5 -27.5h-115q-21 0 -43 9t-42.5 25t-38 37t-29.5 46q-9 -18 -25.5 -38.5t-37 -38t-43 -29t-44.5 -11.5h-95zM203 -333l-104 104l104 104l104 -104z" />
<glyph unicode="&#x628;" horiz-adv-x="1183" arabic-form="final" d="M997 143q-46 -40 -108.5 -71.5t-137.5 -54t-160.5 -34.5t-177.5 -12q-65 0 -131.5 13t-120 44.5t-87.5 83t-34 128.5q0 61 32.5 117.5t80.5 99.5q2 2 7 -1t3 -7q-4 -9 -11 -19.5t-13.5 -24.5t-11.5 -33.5t-5 -47.5q0 -40 22 -68.5t57 -48t79 -30.5t88.5 -17t85.5 -8 t70 -2q40 0 87 5t96 15t98.5 26t93.5 38.5t80.5 51t60.5 64.5q6 0 6 -5q0 -25 6.5 -54t18 -54t27.5 -41t36 -16h74q29 0 43 -27.5t14 -62.5t-14 -62.5t-43 -27.5h-68q-28 0 -52.5 13t-43 33.5t-30.5 46t-17 50.5zM506 -370l-104 104l104 104l104 -104z" />
<glyph unicode="&#x629;" horiz-adv-x="672" arabic-form="final" d="M567 0q-31 0 -62 20t-56.5 49t-43 62.5t-20.5 61.5q-18 -41 -41 -67t-51.5 -40.5t-63 -20t-75.5 -5.5q-13 0 -35.5 0.5t-44.5 5t-38 14.5t-16 29q0 26 6.5 58t17 64.5t25 62t29.5 48.5q8 10 25 24t39 29.5t47 31t49 29t44 23.5t32 13l-17 113l56 123q9 -100 23 -199.5 t36 -196.5q5 -24 15.5 -51t26.5 -49.5t38.5 -37t52.5 -14.5h152q11 0 20 -7.5t16 -20t11 -28.5t4 -34t-4 -34t-11 -28.5t-16 -20t-20 -7.5h-150zM340 388h-2q-6 0 -22.5 -7.5t-38 -19t-45.5 -26t-43.5 -27.5t-32.5 -23t-13 -14t10 -8t23 -6t25 -3.5t16 -1.5q7 0 30 3t48 9 t44 14.5t17 18.5zM473 874l-104 104l104 104l107 -104zM263 874l-107 104l107 104l104 -104z" />
<glyph unicode="&#x62a;" horiz-adv-x="338" arabic-form="initial" d="M215 180q5 0 10 5.5t9 13t6 15.5t2 13q0 7 -4.5 23.5t-11 34.5t-13.5 32.5t-12 18.5l57 145q29 -38 42 -87.5t13 -98.5q0 -37 -7.5 -74t-22.5 -71q-9 -21 -27.5 -47t-41.5 -49t-49 -38.5t-50 -15.5h-151q-12 0 -21.5 8t-15.5 21t-9 29.5t-3 34.5q0 35 12 61t37 26h251z M311 606l-104 104l104 104l107 -104zM101 606l-107 104l107 104l104 -104z" />
<glyph unicode="&#x62a;" horiz-adv-x="440" arabic-form="medial" d="M-40 0q-23 0 -35 27.5t-12 62.5t12 62.5t35 27.5h53.5t53 1t48 3.5t37.5 6.5q23 6 36.5 23.5t22.5 39t15 44t13 38.5q1 3 5 4.5t8.5 1.5t7.5 -2.5t2 -7.5q-2 -16 -3 -32t-1 -21q0 -35 22.5 -55t55.5 -29.5t70.5 -12t66.5 -2.5q25 0 37.5 -27.5t12.5 -62.5t-12.5 -62.5 t-37.5 -27.5h-115q-21 0 -43 9t-42.5 25t-38 37t-29.5 46q-9 -18 -25.5 -38.5t-37 -38t-43 -29t-44.5 -11.5h-95zM317 462l-104 104l104 104l107 -104zM107 462l-107 104l107 104l104 -104z" />
<glyph unicode="&#x62a;" horiz-adv-x="1183" arabic-form="final" d="M997 143q-46 -40 -108.5 -71.5t-137.5 -54t-160.5 -34.5t-177.5 -12q-65 0 -131.5 13t-120 44.5t-87.5 83t-34 128.5q0 61 32.5 117.5t80.5 99.5q2 2 7 -1t3 -7q-4 -9 -11 -19.5t-13.5 -24.5t-11.5 -33.5t-5 -47.5q0 -40 22 -68.5t57 -48t79 -30.5t88.5 -17t85.5 -8 t70 -2q40 0 87 5t96 15t98.5 26t93.5 38.5t80.5 51t60.5 64.5q6 0 6 -5q0 -25 6.5 -54t18 -54t27.5 -41t36 -16h74q29 0 43 -27.5t14 -62.5t-14 -62.5t-43 -27.5h-68q-28 0 -52.5 13t-43 33.5t-30.5 46t-17 50.5zM692 419l-104 104l104 104l107 -104zM482 419l-107 104 l107 104l104 -104z" />
<glyph unicode="&#x62b;" horiz-adv-x="338" arabic-form="initial" d="M215 180q5 0 10 5.5t9 13t6 15.5t2 13q0 7 -4.5 23.5t-11 34.5t-13.5 32.5t-12 18.5l57 145q29 -38 42 -87.5t13 -98.5q0 -37 -7.5 -74t-22.5 -71q-9 -21 -27.5 -47t-41.5 -49t-49 -38.5t-50 -15.5h-151q-12 0 -21.5 8t-15.5 21t-9 29.5t-3 34.5q0 35 12 61t37 26h251z M311 605l-104 107l104 104l107 -104zM101 605l-107 107l107 104l104 -104zM206 816l-104 104l104 107l104 -107z" />
<glyph unicode="&#x62b;" horiz-adv-x="440" arabic-form="medial" d="M-40 0q-23 0 -35 27.5t-12 62.5t12 62.5t35 27.5h53.5t53 1t48 3.5t37.5 6.5q23 6 36.5 23.5t22.5 39t15 44t13 38.5q1 3 5 4.5t8.5 1.5t7.5 -2.5t2 -7.5q-2 -16 -3 -32t-1 -21q0 -35 22.5 -55t55.5 -29.5t70.5 -12t66.5 -2.5q25 0 37.5 -27.5t12.5 -62.5t-12.5 -62.5 t-37.5 -27.5h-115q-21 0 -43 9t-42.5 25t-38 37t-29.5 46q-9 -18 -25.5 -38.5t-37 -38t-43 -29t-44.5 -11.5h-95zM317 461l-104 107l104 104l107 -104zM107 461l-107 107l107 104l104 -104zM212 672l-104 104l104 107l104 -107z" />
<glyph unicode="&#x62b;" horiz-adv-x="1183" arabic-form="final" d="M997 143q-46 -40 -108.5 -71.5t-137.5 -54t-160.5 -34.5t-177.5 -12q-65 0 -131.5 13t-120 44.5t-87.5 83t-34 128.5q0 61 32.5 117.5t80.5 99.5q2 2 7 -1t3 -7q-4 -9 -11 -19.5t-13.5 -24.5t-11.5 -33.5t-5 -47.5q0 -40 22 -68.5t57 -48t79 -30.5t88.5 -17t85.5 -8 t70 -2q40 0 87 5t96 15t98.5 26t93.5 38.5t80.5 51t60.5 64.5q6 0 6 -5q0 -25 6.5 -54t18 -54t27.5 -41t36 -16h74q29 0 43 -27.5t14 -62.5t-14 -62.5t-43 -27.5h-68q-28 0 -52.5 13t-43 33.5t-30.5 46t-17 50.5zM692 418l-104 107l104 104l107 -104zM482 418l-107 107 l107 104l104 -104zM587 629l-104 104l104 107l104 -107z" />
<glyph unicode="&#x62c;" horiz-adv-x="715" arabic-form="initial" d="M-44 0q-22 0 -32.5 27.5t-10.5 62.5t10.5 62.5t32.5 27.5q34 0 62.5 -0.5t53.5 -0.5q38 0 80 4.5t84.5 15t84.5 27.5t79 43q-37 12 -70.5 28.5t-63.5 31.5t-56 25.5t-50 10.5q-25 0 -46 -8t-36.5 -17t-26.5 -17t-16 -8q-6 0 -7 3t-1 8q0 34 14.5 70t39 66t57 49t67.5 19 q30 0 67 -18.5t76.5 -42.5t79 -46.5t74.5 -31.5q52 -14 104.5 -20t106.5 -6l-51 -175q-25 0 -59 0.5t-76 -5t-89.5 -20t-99.5 -44.5q-34 -19 -72 -40.5t-75 -39.5t-71 -29.5t-61 -11.5h-103zM330 -283l-104 104l104 104l104 -104z" />
<glyph unicode="&#x62c;" horiz-adv-x="952" arabic-form="medial" d="M-40 0q-23 0 -34.5 27.5t-11.5 62.5t11.5 62.5t34.5 27.5q60 0 114.5 2.5t107 15t105.5 38t110 71.5q-15 12 -40 23t-52.5 19.5t-54 14t-45.5 5.5q-25 0 -51 -11.5t-48 -23.5q-6 -5 -12 -11t-14 -6q-5 0 -5.5 4t-0.5 9q0 35 14 71t38 64.5t56.5 46.5t69.5 18 q44 0 87.5 -17t89.5 -38t95.5 -38t104.5 -17q45 0 87 6t87 14l-29 -153l-102 -29q3 -43 34.5 -60.5t71.5 -17.5h205q27 0 40 -27.5t13 -62.5t-13 -62.5t-40 -27.5h-166q-54 0 -89.5 21.5t-57.5 56t-32 79.5t-13 91q-84 -18 -157.5 -56t-141.5 -78t-135 -73t-138 -41h-93z M443 -271l-104 104l104 104l104 -104z" />
<glyph unicode="&#x62c;" horiz-adv-x="889" arabic-form="final" d="M700 0q-49 0 -86 19t-61.5 51t-36.5 73t-12 84q0 19 0.5 37t3.5 37q-92 -27 -166.5 -76.5t-127.5 -116t-81.5 -148t-28.5 -173.5q0 -93 35.5 -156t94.5 -102t134.5 -55.5t155.5 -16.5q110 0 218.5 5t218.5 10v-27q-63 -33 -126 -61.5t-124.5 -49.5t-122 -33t-119.5 -12 q-121 0 -206 27t-137.5 83.5t-76.5 142.5t-24 204q0 82 17.5 164.5t54.5 157.5t94.5 140.5t137.5 114.5q-11 6 -26 11t-31 9t-31 6.5t-26 2.5q-28 0 -53 -9t-46 -24.5t-39.5 -36t-33.5 -42.5q-2 57 14 107t48 86.5t79 57.5t107 21q29 0 56.5 -3.5t55 -8t55.5 -8t56 -3.5 q54 0 108 5t105 16l-68 -182l-108 -17v-26q0 -38 8.5 -59t24.5 -31.5t40.5 -12.5t55.5 -2h229q32 0 47 -27.5t15 -62.5t-15 -62.5t-47 -27.5h-209zM424 -315l-104 104l104 104l104 -104z" />
<glyph unicode="&#x62d;" horiz-adv-x="715" arabic-form="initial" d="M-44 0q-22 0 -32.5 27.5t-10.5 62.5t10.5 62.5t32.5 27.5q34 0 62.5 -0.5t53.5 -0.5q38 0 80 4.5t84.5 15t84.5 27.5t79 43q-37 12 -70.5 28.5t-63.5 31.5t-56 25.5t-50 10.5q-25 0 -46 -8t-36.5 -17t-26.5 -17t-16 -8q-6 0 -7 3t-1 8q0 34 14.5 70t39 66t57 49t67.5 19 q30 0 67 -18.5t76.5 -42.5t79 -46.5t74.5 -31.5q52 -14 104.5 -20t106.5 -6l-51 -175q-25 0 -59 0.5t-76 -5t-89.5 -20t-99.5 -44.5q-34 -19 -72 -40.5t-75 -39.5t-71 -29.5t-61 -11.5h-103z" />
<glyph unicode="&#x62d;" horiz-adv-x="952" arabic-form="medial" d="M-40 0q-23 0 -34.5 27.5t-11.5 62.5t11.5 62.5t34.5 27.5q60 0 114.5 2.5t107 15t105.5 38t110 71.5q-15 12 -40 23t-52.5 19.5t-54 14t-45.5 5.5q-25 0 -51 -11.5t-48 -23.5q-6 -5 -12 -11t-14 -6q-5 0 -5.5 4t-0.5 9q0 35 14 71t38 64.5t56.5 46.5t69.5 18 q44 0 87.5 -17t89.5 -38t95.5 -38t104.5 -17q45 0 87 6t87 14l-29 -153l-102 -29q3 -43 34.5 -60.5t71.5 -17.5h205q27 0 40 -27.5t13 -62.5t-13 -62.5t-40 -27.5h-166q-54 0 -89.5 21.5t-57.5 56t-32 79.5t-13 91q-84 -18 -157.5 -56t-141.5 -78t-135 -73t-138 -41h-93z " />
<glyph unicode="&#x62d;" horiz-adv-x="889" arabic-form="final" d="M700 0q-49 0 -86 19t-61.5 51t-36.5 73t-12 84q0 19 0.5 37t3.5 37q-92 -27 -166.5 -76.5t-127.5 -116t-81.5 -148t-28.5 -173.5q0 -93 35.5 -156t94.5 -102t134.5 -55.5t155.5 -16.5q110 0 218.5 5t218.5 10v-27q-63 -33 -126 -61.5t-124.5 -49.5t-122 -33t-119.5 -12 q-121 0 -206 27t-137.5 83.5t-76.5 142.5t-24 204q0 82 17.5 164.5t54.5 157.5t94.5 140.5t137.5 114.5q-11 6 -26 11t-31 9t-31 6.5t-26 2.5q-28 0 -53 -9t-46 -24.5t-39.5 -36t-33.5 -42.5q-2 57 14 107t48 86.5t79 57.5t107 21q29 0 56.5 -3.5t55 -8t55.5 -8t56 -3.5 q54 0 108 5t105 16l-68 -182l-108 -17v-26q0 -38 8.5 -59t24.5 -31.5t40.5 -12.5t55.5 -2h229q32 0 47 -27.5t15 -62.5t-15 -62.5t-47 -27.5h-209z" />
<glyph unicode="&#x62e;" horiz-adv-x="715" arabic-form="initial" d="M-44 0q-22 0 -32.5 27.5t-10.5 62.5t10.5 62.5t32.5 27.5q34 0 62.5 -0.5t53.5 -0.5q38 0 80 4.5t84.5 15t84.5 27.5t79 43q-37 12 -70.5 28.5t-63.5 31.5t-56 25.5t-50 10.5q-25 0 -46 -8t-36.5 -17t-26.5 -17t-16 -8q-6 0 -7 3t-1 8q0 34 14.5 70t39 66t57 49t67.5 19 q30 0 67 -18.5t76.5 -42.5t79 -46.5t74.5 -31.5q52 -14 104.5 -20t106.5 -6l-51 -175q-25 0 -59 0.5t-76 -5t-89.5 -20t-99.5 -44.5q-34 -19 -72 -40.5t-75 -39.5t-71 -29.5t-61 -11.5h-103zM305 656l-104 104l104 104l104 -104z" />
<glyph unicode="&#x62e;" horiz-adv-x="952" arabic-form="medial" d="M-40 0q-23 0 -34.5 27.5t-11.5 62.5t11.5 62.5t34.5 27.5q60 0 114.5 2.5t107 15t105.5 38t110 71.5q-15 12 -40 23t-52.5 19.5t-54 14t-45.5 5.5q-25 0 -51 -11.5t-48 -23.5q-6 -5 -12 -11t-14 -6q-5 0 -5.5 4t-0.5 9q0 35 14 71t38 64.5t56.5 46.5t69.5 18 q44 0 87.5 -17t89.5 -38t95.5 -38t104.5 -17q45 0 87 6t87 14l-29 -153l-102 -29q3 -43 34.5 -60.5t71.5 -17.5h205q27 0 40 -27.5t13 -62.5t-13 -62.5t-40 -27.5h-166q-54 0 -89.5 21.5t-57.5 56t-32 79.5t-13 91q-84 -18 -157.5 -56t-141.5 -78t-135 -73t-138 -41h-93z M411 649l-104 104l104 104l104 -104z" />
<glyph unicode="&#x62e;" horiz-adv-x="889" arabic-form="final" d="M700 0q-49 0 -86 19t-61.5 51t-36.5 73t-12 84q0 19 0.5 37t3.5 37q-92 -27 -166.5 -76.5t-127.5 -116t-81.5 -148t-28.5 -173.5q0 -93 35.5 -156t94.5 -102t134.5 -55.5t155.5 -16.5q110 0 218.5 5t218.5 10v-27q-63 -33 -126 -61.5t-124.5 -49.5t-122 -33t-119.5 -12 q-121 0 -206 27t-137.5 83.5t-76.5 142.5t-24 204q0 82 17.5 164.5t54.5 157.5t94.5 140.5t137.5 114.5q-11 6 -26 11t-31 9t-31 6.5t-26 2.5q-28 0 -53 -9t-46 -24.5t-39.5 -36t-33.5 -42.5q-2 57 14 107t48 86.5t79 57.5t107 21q29 0 56.5 -3.5t55 -8t55.5 -8t56 -3.5 q54 0 108 5t105 16l-68 -182l-108 -17v-26q0 -38 8.5 -59t24.5 -31.5t40.5 -12.5t55.5 -2h229q32 0 47 -27.5t15 -62.5t-15 -62.5t-47 -27.5h-209zM436 637l-104 104l104 104l104 -104z" />
<glyph unicode="&#x62f;" horiz-adv-x="739" arabic-form="final" d="M530 201q-9 -46 -35 -85t-62.5 -67t-81 -43.5t-89.5 -15.5q-15 0 -41.5 0.5t-53 6t-46 17t-19.5 33.5v201q19 -35 54 -56.5t75 -21.5q33 0 71 8t76.5 21t73.5 30.5t62 36.5l-86 359l47 145l123 -440q35 -127 81 -144q16 -6 37 -6h52q27 0 40.5 -27.5t13.5 -62.5 t-13.5 -62.5t-40.5 -27.5h-96q-24 0 -46.5 24t-41.5 57t-33 67t-21 53z" />
<glyph unicode="&#x630;" horiz-adv-x="739" arabic-form="final" d="M530 201q-9 -46 -35 -85t-62.5 -67t-81 -43.5t-89.5 -15.5q-15 0 -41.5 0.5t-53 6t-46 17t-19.5 33.5v201q19 -35 54 -56.5t75 -21.5q33 0 71 8t76.5 21t73.5 30.5t62 36.5l-86 359l47 145l123 -440q35 -127 81 -144q16 -6 37 -6h52q27 0 40.5 -27.5t13.5 -62.5 t-13.5 -62.5t-40.5 -27.5h-96q-24 0 -46.5 24t-41.5 57t-33 67t-21 53zM474 899l-104 104l104 104l104 -104z" />
<glyph unicode="&#x631;" horiz-adv-x="610" arabic-form="final" d="M426 246q18 -22 35.5 -35.5t40 -20t53 -8.5t74.5 -2q31 0 46.5 -27.5t15.5 -62.5t-15.5 -62.5t-46.5 -27.5h-94q-7 -30 -21.5 -70t-35.5 -81.5t-47 -82t-56.5 -72.5t-64.5 -51.5t-70 -19.5q-48 0 -95 13t-86 34t-66 46.5t-36 50.5q40 -11 83 -18t85 -7q43 0 97 24.5 t105 61.5t91.5 81.5t56.5 84.5l-84 125z" />
<glyph unicode="&#x632;" horiz-adv-x="610" arabic-form="final" d="M426 246q18 -22 35.5 -35.5t40 -20t53 -8.5t74.5 -2q31 0 46.5 -27.5t15.5 -62.5t-15.5 -62.5t-46.5 -27.5h-94q-7 -30 -21.5 -70t-35.5 -81.5t-47 -82t-56.5 -72.5t-64.5 -51.5t-70 -19.5q-48 0 -95 13t-86 34t-66 46.5t-36 50.5q40 -11 83 -18t85 -7q43 0 97 24.5 t105 61.5t91.5 81.5t56.5 84.5l-84 125zM418 363l-104 104l104 104l104 -104z" />
<glyph unicode="&#x633;" horiz-adv-x="850" arabic-form="initial" d="M-36 0q-25 -1 -37.5 26.5t-12.5 62.5q0 18 3 34t9.5 29t16 20.5t21.5 7.5q52 0 82 1.5t49 6.5t31 13.5t28 23.5q6 6 16 24t19.5 37.5t18.5 34.5t13 15q5 0 11 -3.5t5 -9.5q-14 -84 13 -117.5t102 -33.5q44 0 76.5 14t56 35t39.5 45t27.5 45t20 35t16.5 14q14 0 12 -11 q-4 -22 -10 -51.5t-6 -47.5q0 -12 17.5 -22t40.5 -17t44.5 -10.5t30.5 -3.5q15 0 27 2.5t12 15.5q0 9 -2 21.5t-5.5 25.5t-8.5 24.5t-11 16.5l59 115q7 -6 11 -20t6.5 -30t3 -31t0.5 -24q0 -18 -2.5 -46.5t-8 -61.5t-15.5 -66t-24 -60t-33 -44t-44 -17q-45 0 -82.5 23.5 t-64.5 58.5q-40 -50 -83.5 -76t-93.5 -26q-32 0 -59 8t-49 20t-39.5 26.5t-30.5 27.5q-29 -38 -65.5 -59t-73.5 -21h-77z" />
<glyph unicode="&#x633;" horiz-adv-x="1032" arabic-form="medial" d="M928 0q-17 0 -33 7.5t-29 18t-22.5 22t-13.5 20.5q-23 -28 -51 -50t-56 -22q-21 0 -40.5 7t-36.5 17t-32 21.5t-27 21.5q-7 -6 -21.5 -18t-34.5 -23t-44.5 -19.5t-52.5 -8.5q-32 0 -62.5 8.5t-56 20.5t-45 26t-30.5 24q-12 -12 -27.5 -25t-33.5 -23.5t-38 -17.5t-41 -7 h-145q-21 0 -31 27.5t-10 62.5t10 62.5t31 27.5h86q16 0 41 1t51 5t48.5 12t33.5 23q4 6 12 19.5t17 29t18 30.5t14 24q2 4 9.5 5t6.5 -7q-3 -26 1 -51t8 -33q9 -19 27.5 -31t40.5 -18.5t45 -8.5t41 -2q45 0 83.5 21t61.5 59q4 6 10 17.5t12.5 25t13.5 28t13 26.5q5 9 13 3 t8 -12q0 -11 -2 -27.5t-5 -34.5t-6.5 -34.5t-7.5 -26.5q2 -10 11 -18.5t22 -15t27.5 -10t27.5 -3.5q37 0 60.5 20t38.5 47.5t23.5 56t15.5 45.5q3 6 8 7.5t9.5 -1t7.5 -6.5t2 -8q-8 -30 -11.5 -57t-3.5 -47q0 -18 13.5 -28.5t36.5 -16t54 -7t66 -1.5q29 0 42.5 -27.5 t13.5 -62.5t-13.5 -62.5t-42.5 -27.5h-129z" />
<glyph unicode="&#x633;" horiz-adv-x="1463" arabic-form="final" d="M332 -420q-134 0 -207.5 68t-73.5 205q0 33 6.5 73.5t20 82.5t33.5 82.5t47 73.5q3 4 8.5 0.5t4.5 -5.5q-15 -41 -30.5 -89.5t-15.5 -99.5q0 -60 19 -99.5t52.5 -63.5t80 -34t100.5 -10q40 0 85 6.5t88 21.5t79.5 38.5t60.5 58.5q0 80 -18 145.5t-61 131.5l81 145 q3 -22 20 -46t40.5 -44.5t49.5 -33.5t48 -13q50 0 95.5 14.5t76.5 55.5q6 7 14 21.5t17 31t17 33t12 26.5q4 8 10.5 6t6.5 -10q0 -10 -2 -28.5t-5.5 -38.5t-8 -38.5t-8.5 -27.5q19 -17 43.5 -27t49.5 -10q38 0 62 18.5t39.5 44.5t24.5 53t16 43q5 12 12.5 9.5t6.5 -10.5 q-1 -10 -3 -24t-4 -28.5t-3.5 -27.5t-1.5 -22q0 -20 10 -31.5t31 -17.5t54 -7.5t79 -1.5q27 0 40.5 -27.5t13.5 -62.5t-13.5 -62.5t-40.5 -27.5h-133q-16 0 -33 5.5t-32 14.5t-27.5 19.5t-20.5 19.5q-15 -21 -39.5 -42t-52.5 -21q-21 0 -40.5 7.5t-37.5 18.5t-33.5 23 t-27.5 20q-9 -9 -22 -20.5t-31 -22.5t-41 -18.5t-51 -7.5q-38 0 -62 10t-47 21q2 -15 2 -27v-25q0 -88 -35.5 -161t-95 -125t-137.5 -80.5t-162 -28.5z" />
<glyph unicode="&#x634;" horiz-adv-x="850" arabic-form="initial" d="M-36 0q-25 -1 -37.5 26.5t-12.5 62.5q0 18 3 34t9.5 29t16 20.5t21.5 7.5q52 0 82 1.5t49 6.5t31 13.5t28 23.5q6 6 16 24t19.5 37.5t18.5 34.5t13 15q5 0 11 -3.5t5 -9.5q-14 -84 13 -117.5t102 -33.5q44 0 76.5 14t56 35t39.5 45t27.5 45t20 35t16.5 14q14 0 12 -11 q-4 -22 -10 -51.5t-6 -47.5q0 -12 17.5 -22t40.5 -17t44.5 -10.5t30.5 -3.5q15 0 27 2.5t12 15.5q0 9 -2 21.5t-5.5 25.5t-8.5 24.5t-11 16.5l59 115q7 -6 11 -20t6.5 -30t3 -31t0.5 -24q0 -18 -2.5 -46.5t-8 -61.5t-15.5 -66t-24 -60t-33 -44t-44 -17q-45 0 -82.5 23.5 t-64.5 58.5q-40 -50 -83.5 -76t-93.5 -26q-32 0 -59 8t-49 20t-39.5 26.5t-30.5 27.5q-29 -38 -65.5 -59t-73.5 -21h-77zM591 499l-104 107l104 104l107 -104zM381 499l-107 107l107 104l104 -104zM486 710l-104 104l104 107l104 -107z" />
<glyph unicode="&#x634;" horiz-adv-x="1032" arabic-form="medial" d="M928 0q-17 0 -33 7.5t-29 18t-22.5 22t-13.5 20.5q-23 -28 -51 -50t-56 -22q-21 0 -40.5 7t-36.5 17t-32 21.5t-27 21.5q-7 -6 -21.5 -18t-34.5 -23t-44.5 -19.5t-52.5 -8.5q-32 0 -62.5 8.5t-56 20.5t-45 26t-30.5 24q-12 -12 -27.5 -25t-33.5 -23.5t-38 -17.5t-41 -7 h-145q-21 0 -31 27.5t-10 62.5t10 62.5t31 27.5h86q16 0 41 1t51 5t48.5 12t33.5 23q4 6 12 19.5t17 29t18 30.5t14 24q2 4 9.5 5t6.5 -7q-3 -26 1 -51t8 -33q9 -19 27.5 -31t40.5 -18.5t45 -8.5t41 -2q45 0 83.5 21t61.5 59q4 6 10 17.5t12.5 25t13.5 28t13 26.5q5 9 13 3 t8 -12q0 -11 -2 -27.5t-5 -34.5t-6.5 -34.5t-7.5 -26.5q2 -10 11 -18.5t22 -15t27.5 -10t27.5 -3.5q37 0 60.5 20t38.5 47.5t23.5 56t15.5 45.5q3 6 8 7.5t9.5 -1t7.5 -6.5t2 -8q-8 -30 -11.5 -57t-3.5 -47q0 -18 13.5 -28.5t36.5 -16t54 -7t66 -1.5q29 0 42.5 -27.5 t13.5 -62.5t-13.5 -62.5t-42.5 -27.5h-129zM703 493l-104 107l104 104l107 -104zM493 493l-107 107l107 104l104 -104zM598 704l-104 104l104 107l104 -107z" />
<glyph unicode="&#x634;" horiz-adv-x="1463" arabic-form="final" d="M332 -420q-134 0 -207.5 68t-73.5 205q0 33 6.5 73.5t20 82.5t33.5 82.5t47 73.5q3 4 8.5 0.5t4.5 -5.5q-15 -41 -30.5 -89.5t-15.5 -99.5q0 -60 19 -99.5t52.5 -63.5t80 -34t100.5 -10q40 0 85 6.5t88 21.5t79.5 38.5t60.5 58.5q0 80 -18 145.5t-61 131.5l81 145 q3 -22 20 -46t40.5 -44.5t49.5 -33.5t48 -13q50 0 95.5 14.5t76.5 55.5q6 7 14 21.5t17 31t17 33t12 26.5q4 8 10.5 6t6.5 -10q0 -10 -2 -28.5t-5.5 -38.5t-8 -38.5t-8.5 -27.5q19 -17 43.5 -27t49.5 -10q38 0 62 18.5t39.5 44.5t24.5 53t16 43q5 12 12.5 9.5t6.5 -10.5 q-1 -10 -3 -24t-4 -28.5t-3.5 -27.5t-1.5 -22q0 -20 10 -31.5t31 -17.5t54 -7.5t79 -1.5q27 0 40.5 -27.5t13.5 -62.5t-13.5 -62.5t-40.5 -27.5h-133q-16 0 -33 5.5t-32 14.5t-27.5 19.5t-20.5 19.5q-15 -21 -39.5 -42t-52.5 -21q-21 0 -40.5 7.5t-37.5 18.5t-33.5 23 t-27.5 20q-9 -9 -22 -20.5t-31 -22.5t-41 -18.5t-51 -7.5q-38 0 -62 10t-47 21q2 -15 2 -27v-25q0 -88 -35.5 -161t-95 -125t-137.5 -80.5t-162 -28.5zM1129 486l-104 107l104 104l107 -104zM919 486l-107 107l107 104l104 -104zM1024 697l-104 104l104 107l104 -107z" />
<glyph unicode="&#x635;" horiz-adv-x="1168" arabic-form="initial" d="M47 180q29 0 49 5.5t34 17t25 30.5t23 46q14 -60 66.5 -90t126.5 -35q33 31 80 70.5t102 81t115 81t119 70.5t114 50t100 19q29 0 54.5 -12t44.5 -32.5t30 -47.5t11 -57q0 -38 -17 -74t-39 -65q-51 -69 -126 -117t-161 -78.5t-176 -44.5t-171 -14q-39 0 -80.5 5t-80 18.5 t-71.5 36.5t-55 60q-19 -33 -37.5 -53.5t-36 -31.5t-35.5 -15t-38 -4h-53q-25 0 -37 27.5t-12 62.5t12 62.5t37 27.5h83zM850 365q-47 0 -103 -21.5t-111.5 -53.5t-105.5 -69t-84 -69q3 -3 13.5 -4.5t21.5 -2t21 -0.5h12q53 0 111.5 4t115 12.5t107 20.5t89 27.5t61 34 t22.5 39.5q0 17 -15.5 32t-40 26t-55 17.5t-59.5 6.5z" />
<glyph unicode="&#x635;" horiz-adv-x="1223" arabic-form="medial" d="M47 180q29 0 49 5t34 16.5t25 30.5t23 47q6 -30 25 -54t45.5 -40.5t58.5 -25t64 -7.5q33 31 80 71t102 81.5t115 81t119 71t114 50.5t100 19q37 0 63.5 -12.5t43.5 -33.5t25 -47.5t8 -55.5q0 -30 -14 -62.5t-35.5 -63t-46.5 -57t-48 -44.5q35 10 65 16t59 9t59.5 4 t66.5 1q29 0 43 -26t14 -61q0 -18 -3.5 -34.5t-10.5 -29.5t-18 -21t-25 -8h-428q-99 0 -196.5 -4t-196.5 -6q-95 -2 -158.5 23t-103.5 91q-20 -36 -38 -56.5t-36 -31t-35.5 -13.5t-37.5 -3h-53q-12 0 -21.5 8t-15.5 21t-9 29.5t-3 34.5q0 35 12 61t37 26h83zM850 365 q-47 0 -103 -21.5t-111.5 -53.5t-105.5 -69t-84 -69q3 -3 13.5 -4.5t21.5 -2t21 -0.5h12q33 0 77.5 2t93.5 7.5t99.5 15t95.5 24t81.5 35t56.5 47.5q2 3 2 7q0 34 -44.5 58t-125.5 24z" />
<glyph unicode="&#x635;" horiz-adv-x="1653" arabic-form="final" d="M756 -10q0 -31 -9 -65t-20 -62q-48 -134 -148.5 -208.5t-246.5 -74.5q-134 0 -207.5 68t-73.5 205q0 85 26.5 162t76.5 151q2 4 8.5 2t5.5 -5q-17 -45 -30 -93t-13 -99q0 -60 19 -99.5t52.5 -63.5t80 -34t100.5 -10q40 0 85 6.5t88 21.5t79.5 38.5t60.5 58.5 q0 80 -18 145.5t-61 131.5l51 141q2 -7 9.5 -19t16.5 -25t18 -25t13 -21q16 -25 45 -33t55 -8h19t20 2q29 31 70 71.5t89.5 82.5t102 82.5t106.5 72t103.5 51t92.5 19.5q30 0 57.5 -10t48.5 -28t33 -43.5t12 -57.5t-11 -67.5t-30 -69t-43.5 -62.5t-50.5 -47q60 11 124 9.5 t126 -1.5q25 0 37 -27.5t12 -62.5t-12 -62.5t-37 -27.5h-334q-68 0 -137.5 1.5t-132.5 10.5q-47 -4 -89 -9t-81.5 -8.5t-78 -4.5t-79.5 2v-2zM924 178q26 -2 52 -3t52 -1q45 0 94 4t96.5 11t90.5 18t75.5 25.5t52 32t19.5 38.5q0 43 -44 69.5t-142 26.5q-15 0 -45.5 -12.5 t-67 -33t-76 -45.5t-72.5 -49.5t-56.5 -46t-28.5 -34.5z" />
<glyph unicode="&#x636;" horiz-adv-x="1168" arabic-form="initial" d="M47 180q29 0 49 5.5t34 17t25 30.5t23 46q14 -60 66.5 -90t126.5 -35q33 31 80 70.5t102 81t115 81t119 70.5t114 50t100 19q29 0 54.5 -12t44.5 -32.5t30 -47.5t11 -57q0 -38 -17 -74t-39 -65q-51 -69 -126 -117t-161 -78.5t-176 -44.5t-171 -14q-39 0 -80.5 5t-80 18.5 t-71.5 36.5t-55 60q-19 -33 -37.5 -53.5t-36 -31.5t-35.5 -15t-38 -4h-53q-25 0 -37 27.5t-12 62.5t12 62.5t37 27.5h83zM850 365q-47 0 -103 -21.5t-111.5 -53.5t-105.5 -69t-84 -69q3 -3 13.5 -4.5t21.5 -2t21 -0.5h12q53 0 111.5 4t115 12.5t107 20.5t89 27.5t61 34 t22.5 39.5q0 17 -15.5 32t-40 26t-55 17.5t-59.5 6.5zM548 537l-104 104l104 104l104 -104z" />
<glyph unicode="&#x636;" horiz-adv-x="1223" arabic-form="medial" d="M47 180q29 0 49 5t34 16.5t25 30.5t23 47q6 -30 25 -54t45.5 -40.5t58.5 -25t64 -7.5q33 31 80 71t102 81.5t115 81t119 71t114 50.5t100 19q37 0 63.5 -12.5t43.5 -33.5t25 -47.5t8 -55.5q0 -30 -14 -62.5t-35.5 -63t-46.5 -57t-48 -44.5q35 10 65 16t59 9t59.5 4 t66.5 1q29 0 43 -26t14 -61q0 -18 -3.5 -34.5t-10.5 -29.5t-18 -21t-25 -8h-428q-99 0 -196.5 -4t-196.5 -6q-95 -2 -158.5 23t-103.5 91q-20 -36 -38 -56.5t-36 -31t-35.5 -13.5t-37.5 -3h-53q-12 0 -21.5 8t-15.5 21t-9 29.5t-3 34.5q0 35 12 61t37 26h83zM850 365 q-47 0 -103 -21.5t-111.5 -53.5t-105.5 -69t-84 -69q3 -3 13.5 -4.5t21.5 -2t21 -0.5h12q33 0 77.5 2t93.5 7.5t99.5 15t95.5 24t81.5 35t56.5 47.5q2 3 2 7q0 34 -44.5 58t-125.5 24zM573 556l-104 104l104 104l104 -104z" />
<glyph unicode="&#x636;" horiz-adv-x="1653" arabic-form="final" d="M756 -10q0 -31 -9 -65t-20 -62q-48 -134 -148.5 -208.5t-246.5 -74.5q-134 0 -207.5 68t-73.5 205q0 85 26.5 162t76.5 151q2 4 8.5 2t5.5 -5q-17 -45 -30 -93t-13 -99q0 -60 19 -99.5t52.5 -63.5t80 -34t100.5 -10q40 0 85 6.5t88 21.5t79.5 38.5t60.5 58.5 q0 80 -18 145.5t-61 131.5l51 141q2 -7 9.5 -19t16.5 -25t18 -25t13 -21q16 -25 45 -33t55 -8h19t20 2q29 31 70 71.5t89.5 82.5t102 82.5t106.5 72t103.5 51t92.5 19.5q30 0 57.5 -10t48.5 -28t33 -43.5t12 -57.5t-11 -67.5t-30 -69t-43.5 -62.5t-50.5 -47q60 11 124 9.5 t126 -1.5q25 0 37 -27.5t12 -62.5t-12 -62.5t-37 -27.5h-334q-68 0 -137.5 1.5t-132.5 10.5q-47 -4 -89 -9t-81.5 -8.5t-78 -4.5t-79.5 2v-2zM924 178q26 -2 52 -3t52 -1q45 0 94 4t96.5 11t90.5 18t75.5 25.5t52 32t19.5 38.5q0 43 -44 69.5t-142 26.5q-15 0 -45.5 -12.5 t-67 -33t-76 -45.5t-72.5 -49.5t-56.5 -46t-28.5 -34.5zM1049 612l-104 104l104 104l104 -104z" />
<glyph unicode="&#x637;" horiz-adv-x="788" arabic-form="initial" d="M35 180l145 152v579q-7 6 -15 14.5t-15 18t-12 19.5t-5 20q0 12 14 42.5t32.5 63t38 59t30.5 31.5q2 2 4 -1l2 -2q-4 -20 -6 -35.5t-2 -32.5q0 -18 8 -35t20.5 -31.5t29 -24.5t34.5 -13l-59 -160l-23 12v-471q18 15 44 35t56 41.5t62.5 42.5t64 37.5t60.5 26.5t51 10 q80 0 126 -36.5t46 -99.5q0 -57 -26.5 -112.5t-68 -103t-92 -85.5t-98.5 -61q-74 -34 -151 -57t-158 -23h-216q-22 0 -32.5 27.5t-10.5 62.5t10.5 62.5t32.5 27.5h79zM133 180q8 -3 21 -3.5t16 -0.5q20 0 63.5 3.5t97 12t111 21t104.5 30t77 41t30 52.5q0 15 -9.5 29.5 t-27.5 26t-43.5 18.5t-57.5 7q-27 0 -61 -12t-70.5 -32t-73 -45.5t-70 -51.5t-61 -51t-46.5 -45z" />
<glyph unicode="&#x637;" horiz-adv-x="870" arabic-form="medial" d="M35 180l145 152v579q-17 14 -32 33.5t-15 42.5q0 11 14.5 42.5t34 65t38.5 59.5t28 26q3 0 6 -3t2 -5q-5 -19 -7.5 -33t-2.5 -31q0 -18 8 -35t20.5 -31.5t29 -24.5t34.5 -13l-59 -160l-23 12v-471q18 15 44 35t56 41.5t62.5 42.5t64 37.5t60.5 26.5t51 10q80 0 126 -38.5 t46 -103.5q0 -34 -14.5 -71.5t-36.5 -74t-48.5 -69t-50.5 -55.5q32 6 66 10t66 4h174q18 0 26.5 -27.5t8.5 -62.5t-8.5 -62.5t-26.5 -27.5h-970q-20 0 -30 27.5t-10 62.5t10 62.5t30 27.5h83zM133 182q2 -2 7.5 -3t11.5 -1h11.5h6.5q20 0 63.5 5t97 14t110 22.5t103.5 31 t77.5 39t31.5 46.5q0 15 -13 28t-36 23.5t-53.5 16.5t-65.5 6q-41 0 -91 -24.5t-98.5 -60t-91.5 -75t-71 -68.5z" />
<glyph unicode="&#x637;" horiz-adv-x="1165" arabic-form="final" d="M303 156l125 123v632q-15 13 -32 32.5t-17 39.5q0 13 14.5 45.5t34.5 66t40 59.5t32 26q4 0 3 -7q-5 -18 -7 -32.5t-2 -28.5q0 -18 7 -36t19.5 -33t29 -25.5t34.5 -13.5l-58 -160l-24 12v-526q20 15 50.5 36.5t66.5 45t75 47t75.5 42.5t69 30.5t54.5 11.5q40 0 74 -13 t58.5 -35t38 -50t13.5 -58q0 -29 -13.5 -61t-34.5 -62.5t-45.5 -57.5t-45.5 -46q37 10 68.5 14t61.5 5.5t60.5 1t65.5 -0.5q27 0 40 -27.5t13 -62.5t-13 -62.5t-40 -27.5h-809q-62 0 -119 6t-107 25t-92.5 54t-76.5 93zM780 373q-43 0 -87.5 -15.5t-87 -40t-80 -55 t-66.5 -59.5q-1 -1 -6 -9t-10 -17t-8 -16t-2 -7q42 -2 96 0.5t110.5 10.5t111 20t97 27.5t68.5 34.5t26 40q0 26 -18 42.5t-43.5 26.5t-53.5 13.5t-47 3.5z" />
<glyph unicode="&#x638;" horiz-adv-x="788" arabic-form="initial" d="M35 180l145 152v579q-7 6 -15 14.5t-15 18t-12 19.5t-5 20q0 12 14 42.5t32.5 63t38 59t30.5 31.5q2 2 4 -1l2 -2q-4 -20 -6 -35.5t-2 -32.5q0 -18 8 -35t20.5 -31.5t29 -24.5t34.5 -13l-59 -160l-23 12v-471q18 15 44 35t56 41.5t62.5 42.5t64 37.5t60.5 26.5t51 10 q80 0 126 -36.5t46 -99.5q0 -57 -26.5 -112.5t-68 -103t-92 -85.5t-98.5 -61q-74 -34 -151 -57t-158 -23h-216q-22 0 -32.5 27.5t-10.5 62.5t10.5 62.5t32.5 27.5h79zM133 180q8 -3 21 -3.5t16 -0.5q20 0 63.5 3.5t97 12t111 21t104.5 30t77 41t30 52.5q0 15 -9.5 29.5 t-27.5 26t-43.5 18.5t-57.5 7q-27 0 -61 -12t-70.5 -32t-73 -45.5t-70 -51.5t-61 -51t-46.5 -45zM542 724l-104 104l104 104l104 -104z" />
<glyph unicode="&#x638;" horiz-adv-x="870" arabic-form="medial" d="M35 180l145 152v579q-17 14 -32 33.5t-15 42.5q0 11 14.5 42.5t34 65t38.5 59.5t28 26q3 0 6 -3t2 -5q-5 -19 -7.5 -33t-2.5 -31q0 -18 8 -35t20.5 -31.5t29 -24.5t34.5 -13l-59 -160l-23 12v-471q18 15 44 35t56 41.5t62.5 42.5t64 37.5t60.5 26.5t51 10q80 0 126 -38.5 t46 -103.5q0 -34 -14.5 -71.5t-36.5 -74t-48.5 -69t-50.5 -55.5q32 6 66 10t66 4h174q18 0 26.5 -27.5t8.5 -62.5t-8.5 -62.5t-26.5 -27.5h-970q-20 0 -30 27.5t-10 62.5t10 62.5t30 27.5h83zM133 182q2 -2 7.5 -3t11.5 -1h11.5h6.5q20 0 63.5 5t97 14t110 22.5t103.5 31 t77.5 39t31.5 46.5q0 15 -13 28t-36 23.5t-53.5 16.5t-65.5 6q-41 0 -91 -24.5t-98.5 -60t-91.5 -75t-71 -68.5zM555 712l-104 104l104 104l104 -104z" />
<glyph unicode="&#x638;" horiz-adv-x="1165" arabic-form="final" d="M303 156l125 123v632q-15 13 -32 32.5t-17 39.5q0 13 14.5 45.5t34.5 66t40 59.5t32 26q4 0 3 -7q-5 -18 -7 -32.5t-2 -28.5q0 -18 7 -36t19.5 -33t29 -25.5t34.5 -13.5l-58 -160l-24 12v-526q20 15 50.5 36.5t66.5 45t75 47t75.5 42.5t69 30.5t54.5 11.5q40 0 74 -13 t58.5 -35t38 -50t13.5 -58q0 -29 -13.5 -61t-34.5 -62.5t-45.5 -57.5t-45.5 -46q37 10 68.5 14t61.5 5.5t60.5 1t65.5 -0.5q27 0 40 -27.5t13 -62.5t-13 -62.5t-40 -27.5h-809q-62 0 -119 6t-107 25t-92.5 54t-76.5 93zM780 373q-43 0 -87.5 -15.5t-87 -40t-80 -55 t-66.5 -59.5q-1 -1 -6 -9t-10 -17t-8 -16t-2 -7q42 -2 96 0.5t110.5 10.5t111 20t97 27.5t68.5 34.5t26 40q0 26 -18 42.5t-43.5 26.5t-53.5 13.5t-47 3.5zM829 662l-104 104l104 104l104 -104z" />
<glyph unicode="&#x639;" horiz-adv-x="748" arabic-form="initial" d="M207 180q-16 32 -23.5 68t-7.5 71q0 46 15.5 99.5t44.5 99.5t71 76.5t96 30.5q34 0 68 -13.5t64.5 -35t55 -49.5t38.5 -58l-11 -10q-24 11 -43 19t-38 13t-40.5 7t-50.5 2q-27 0 -61.5 -10.5t-65.5 -26.5t-52 -33.5t-21 -32.5q0 -24 20.5 -54.5t50.5 -57.5t64.5 -45.5 t62.5 -18.5q24 0 61 8t77 19t78 22.5t63 18.5l-52 -145q-33 -13 -79 -29t-99.5 -32t-111.5 -31t-115.5 -26.5t-111.5 -18.5t-99 -7h-95q-23 0 -34.5 27.5t-11.5 62.5t11.5 62.5t34.5 27.5h247z" />
<glyph unicode="&#x639;" horiz-adv-x="709" arabic-form="medial" d="M74 180q9 0 29 3t45.5 7.5t53 11.5t50 15.5t37 17.5t14.5 19q0 9 -20.5 22t-47 25.5t-51.5 22.5t-34 14q3 35 24 70.5t52.5 63.5t69 45.5t73.5 17.5q34 0 72 -7t70.5 -24.5t53.5 -46t21 -70.5q0 -26 -3.5 -44t-14.5 -33.5t-30 -31t-51 -38.5q11 -15 32.5 -26t48 -18.5 t54.5 -11.5t50 -4h57q30 0 45 -27.5t15 -62.5t-15 -62.5t-45 -27.5h-84q-30 0 -66.5 12t-73 32t-69 46.5t-53.5 54.5q-31 -33 -69.5 -60t-82 -45.5t-89.5 -29t-91 -10.5h-80q-27 0 -40 27.5t-13 62.5t13 62.5t40 27.5h103z" />
<glyph unicode="&#x639;" horiz-adv-x="743" arabic-form="final" d="M782 180q23 0 34.5 -27.5t11.5 -62.5t-11.5 -62.5t-34.5 -27.5h-157q-39 0 -79.5 19.5t-77 49.5t-66 66t-44.5 70q-52 -40 -99.5 -90t-83.5 -108t-57.5 -123t-21.5 -134q0 -65 21.5 -113t58.5 -81t85.5 -53.5t102 -32t109.5 -15.5t107 -4q65 0 132 5t132 18q0 -5 -1 -13 t-3 -13q-12 -8 -40 -23t-66 -32.5t-83 -36t-90.5 -33t-89.5 -23t-80 -7.5q-95 0 -165 31.5t-115.5 89t-68 138.5t-22.5 180q0 75 18 146.5t50 138.5t76 127t96 112q-15 11 -27.5 17.5t-24 10.5t-22.5 5t-25 1h-16.5t-19.5 -1q1 47 16.5 87.5t44 70t68.5 46.5t88 17 q32 0 67.5 -3.5t65 -15.5t49 -36t19.5 -66q0 -15 -10 -38t-25.5 -44.5t-33.5 -38.5t-34 -22q56 -40 106 -54.5t106 -14.5q15 0 28 0.5t27.5 1t32.5 1t42 0.5z" />
<glyph unicode="&#x63a;" horiz-adv-x="748" arabic-form="initial" d="M207 180q-16 32 -23.5 68t-7.5 71q0 46 15.5 99.5t44.5 99.5t71 76.5t96 30.5q34 0 68 -13.5t64.5 -35t55 -49.5t38.5 -58l-11 -10q-24 11 -43 19t-38 13t-40.5 7t-50.5 2q-27 0 -61.5 -10.5t-65.5 -26.5t-52 -33.5t-21 -32.5q0 -24 20.5 -54.5t50.5 -57.5t64.5 -45.5 t62.5 -18.5q24 0 61 8t77 19t78 22.5t63 18.5l-52 -145q-33 -13 -79 -29t-99.5 -32t-111.5 -31t-115.5 -26.5t-111.5 -18.5t-99 -7h-95q-23 0 -34.5 27.5t-11.5 62.5t11.5 62.5t34.5 27.5h247zM361 755l-104 104l104 104l104 -104z" />
<glyph unicode="&#x63a;" horiz-adv-x="709" arabic-form="medial" d="M74 180q9 0 29 3t45.5 7.5t53 11.5t50 15.5t37 17.5t14.5 19q0 9 -20.5 22t-47 25.5t-51.5 22.5t-34 14q3 35 24 70.5t52.5 63.5t69 45.5t73.5 17.5q34 0 72 -7t70.5 -24.5t53.5 -46t21 -70.5q0 -26 -3.5 -44t-14.5 -33.5t-30 -31t-51 -38.5q11 -15 32.5 -26t48 -18.5 t54.5 -11.5t50 -4h57q30 0 45 -27.5t15 -62.5t-15 -62.5t-45 -27.5h-84q-30 0 -66.5 12t-73 32t-69 46.5t-53.5 54.5q-31 -33 -69.5 -60t-82 -45.5t-89.5 -29t-91 -10.5h-80q-27 0 -40 27.5t-13 62.5t13 62.5t40 27.5h103zM361 662l-104 104l104 104l104 -104z" />
<glyph unicode="&#x63a;" horiz-adv-x="743" arabic-form="final" d="M782 180q23 0 34.5 -27.5t11.5 -62.5t-11.5 -62.5t-34.5 -27.5h-157q-39 0 -79.5 19.5t-77 49.5t-66 66t-44.5 70q-52 -40 -99.5 -90t-83.5 -108t-57.5 -123t-21.5 -134q0 -65 21.5 -113t58.5 -81t85.5 -53.5t102 -32t109.5 -15.5t107 -4q65 0 132 5t132 18q0 -5 -1 -13 t-3 -13q-12 -8 -40 -23t-66 -32.5t-83 -36t-90.5 -33t-89.5 -23t-80 -7.5q-95 0 -165 31.5t-115.5 89t-68 138.5t-22.5 180q0 75 18 146.5t50 138.5t76 127t96 112q-15 11 -27.5 17.5t-24 10.5t-22.5 5t-25 1h-16.5t-19.5 -1q1 47 16.5 87.5t44 70t68.5 46.5t88 17 q32 0 67.5 -3.5t65 -15.5t49 -36t19.5 -66q0 -15 -10 -38t-25.5 -44.5t-33.5 -38.5t-34 -22q56 -40 106 -54.5t106 -14.5q15 0 28 0.5t27.5 1t32.5 1t42 0.5zM343 643l-104 104l104 104l104 -104z" />
<glyph unicode="&#x641;" horiz-adv-x="487" arabic-form="initial" d="M-36 0q-25 0 -37 27.5t-12 62.5t12 62.5t37 27.5h95t81 1t78 3t86 5q43 3 66.5 19t37.5 30q1 29 -5 55t-17 43q-28 -22 -61.5 -41t-68.5 -19q-28 0 -49 10.5t-35 28.5t-20.5 41.5t-6.5 49.5q0 17 4.5 42t13 53t21.5 56t29 50t35 36t41 14q26 0 49.5 -21.5t42.5 -55 t34 -75.5t25 -82.5t15.5 -75.5t5.5 -56q0 -67 -27.5 -121t-73.5 -92t-105 -58t-122 -20h-169zM266 508q-11 0 -23.5 -8t-22.5 -19.5t-16.5 -25t-6.5 -25.5t6.5 -21t16.5 -14t22 -7.5t22 -2.5q5 0 16 2.5t23.5 6.5t24.5 9.5t19 10.5q-3 12 -11.5 28t-20 30.5t-24.5 25 t-25 10.5zM256 774l-104 104l104 104l104 -104z" />
<glyph unicode="&#x641;" horiz-adv-x="563" arabic-form="medial" d="M461 0q-24 0 -50 7t-52.5 18.5t-51.5 26.5t-47 32q-22 -17 -54 -32t-63.5 -26.5t-58.5 -18.5t-41 -7h-79q-25 0 -37 27.5t-12 62.5t12 62.5t37 27.5h63h27.5t35 1.5t37 4t33.5 7.5q-3 21 -11 40t-8 43q0 25 7 60t20.5 73t32 75.5t41.5 67t49 48t55 18.5q32 0 52 -19.5 t32 -47.5t16.5 -59t4.5 -54q0 -30 -5 -63t-14 -66t-22.5 -63.5t-30.5 -54.5q23 -8 50 -9.5t56 -1.5h103q29 0 42.5 -27.5t13.5 -62.5t-13.5 -62.5t-42.5 -27.5h-127zM373 350q0 12 -5.5 24.5t-14.5 22.5t-20.5 16.5t-23.5 6.5q-15 0 -35 -11t-38 -27.5t-30.5 -34.5 t-12.5 -32q0 -10 9 -21.5t21.5 -22t25.5 -18.5t21 -13q17 6 35 16.5t33 24.5t25 31.5t10 37.5zM299 743l-104 104l104 104l104 -104z" />
<glyph unicode="&#x641;" horiz-adv-x="1272" arabic-form="final" d="M1186 0q-26 0 -56 8t-59 22t-54.5 32t-43.5 38q-56 -34 -123.5 -61t-139 -46t-144 -28.5t-138.5 -9.5t-137 11t-130.5 40.5t-97.5 80.5t-38 131q0 30 9 62.5t24 64t34 60t39 49.5q3 3 6.5 0.5t1.5 -7.5q-9 -15 -17 -28.5t-13.5 -27t-9 -29t-3.5 -34.5q0 -41 18 -72.5 t47 -53.5t67 -36.5t77.5 -23t78.5 -12t71 -3.5q49 0 107 5t117.5 14t116 22t103.5 29q-9 26 -15.5 46.5t-6.5 49.5q0 24 8.5 57t23.5 69t35.5 70.5t45 62.5t52 45t56.5 17q23 0 39 -20.5t26.5 -49t15.5 -58.5t5 -48q0 -65 -25 -125.5t-67 -111.5q55 -11 111.5 -16t109.5 -5 q23 0 33.5 -27.5t10.5 -62.5t-10.5 -62.5t-33.5 -27.5h-127zM1108 332q0 16 -5.5 33t-16 30.5t-24.5 22t-32 8.5q-15 0 -34 -9.5t-35.5 -24.5t-27.5 -32.5t-11 -33.5q0 -15 8 -29t19.5 -25t25.5 -20t26 -14q12 5 30 15.5t35 23t29.5 27t12.5 28.5zM1053 743l-104 104 l104 104l104 -104z" />
<glyph unicode="&#x642;" horiz-adv-x="487" arabic-form="initial" d="M-36 0q-25 0 -37 27.5t-12 62.5t12 62.5t37 27.5h95t81 1t78 3t86 5q43 3 66.5 19t37.5 30q1 29 -5 55t-17 43q-28 -22 -61.5 -41t-68.5 -19q-28 0 -49 10.5t-35 28.5t-20.5 41.5t-6.5 49.5q0 17 4.5 42t13 53t21.5 56t29 50t35 36t41 14q26 0 49.5 -21.5t42.5 -55 t34 -75.5t25 -82.5t15.5 -75.5t5.5 -56q0 -67 -27.5 -121t-73.5 -92t-105 -58t-122 -20h-169zM266 508q-11 0 -23.5 -8t-22.5 -19.5t-16.5 -25t-6.5 -25.5t6.5 -21t16.5 -14t22 -7.5t22 -2.5q5 0 16 2.5t23.5 6.5t24.5 9.5t19 10.5q-3 12 -11.5 28t-20 30.5t-24.5 25 t-25 10.5zM361 774l-104 104l104 104l107 -104zM151 774l-107 104l107 104l104 -104z" />
<glyph unicode="&#x642;" horiz-adv-x="563" arabic-form="medial" d="M461 0q-24 0 -50 7t-52.5 18.5t-51.5 26.5t-47 32q-22 -17 -54 -32t-63.5 -26.5t-58.5 -18.5t-41 -7h-79q-25 0 -37 27.5t-12 62.5t12 62.5t37 27.5h63h27.5t35 1.5t37 4t33.5 7.5q-3 21 -11 40t-8 43q0 25 7 60t20.5 73t32 75.5t41.5 67t49 48t55 18.5q32 0 52 -19.5 t32 -47.5t16.5 -59t4.5 -54q0 -30 -5 -63t-14 -66t-22.5 -63.5t-30.5 -54.5q23 -8 50 -9.5t56 -1.5h103q29 0 42.5 -27.5t13.5 -62.5t-13.5 -62.5t-42.5 -27.5h-127zM373 350q0 12 -5.5 24.5t-14.5 22.5t-20.5 16.5t-23.5 6.5q-15 0 -35 -11t-38 -27.5t-30.5 -34.5 t-12.5 -32q0 -10 9 -21.5t21.5 -22t25.5 -18.5t21 -13q17 6 35 16.5t33 24.5t25 31.5t10 37.5zM404 743l-104 104l104 104l107 -104zM194 743l-107 104l107 104l104 -104z" />
<glyph unicode="&#x642;" horiz-adv-x="889" arabic-form="final" d="M922 180q26 0 38 -27.5t12 -62.5t-12 -62.5t-38 -27.5h-127q1 -44 -14.5 -86t-35.5 -76q-31 -53 -79.5 -96t-105 -74t-116 -48t-112.5 -17q-69 0 -126.5 20t-99 58t-64 93.5t-22.5 127.5q0 42 7 85t19.5 83t30.5 75t40 62q3 4 9 2.5t4 -7.5q-7 -18 -15 -41.5t-15 -49.5 t-11.5 -53.5t-4.5 -53.5q0 -65 20.5 -107.5t56.5 -67.5t86 -34.5t109 -9.5q18 0 50 3.5t70.5 11t79.5 19.5t77.5 29t64 40t38.5 53q5 15 8 30.5t4 28.5q-17 -6 -43 -9.5t-48 -3.5q-31 0 -59.5 9.5t-50.5 27.5t-34.5 45t-12.5 62q0 26 10.5 67t29.5 79.5t46 66t59 27.5 q29 0 52.5 -20.5t40.5 -50t26 -62.5t10 -58h148zM621 256q-10 0 -21.5 -7.5t-21.5 -18.5t-16.5 -23.5t-6.5 -22.5q0 -12 7 -20t17.5 -13.5t22.5 -7.5t21 -2q11 0 32 0.5t44 12.5q0 14 -8 31.5t-19.5 33t-25 26.5t-25.5 11zM734 500l-104 104l104 104l107 -104zM524 500 l-107 104l107 104l104 -104z" />
<glyph unicode="&#x643;" horiz-adv-x="633" arabic-form="initial" d="M-33 0q-26 0 -38 27.5t-12 62.5t12 62.5t38 27.5h44t71 1t77 3t60 5q29 5 54.5 13t44.5 19t29.5 25.5t10.5 32.5q-1 49 -27.5 86t-66 66.5t-85 54.5t-84.5 50t-65 53t-26 64q0 29 13.5 54t33.5 45q25 24 72.5 54t106.5 63t125.5 67t129 64.5t116.5 56t89 41.5l-28 -113 q-20 -9 -66.5 -30.5t-105.5 -49.5t-122.5 -59.5t-116 -61.5t-86.5 -56t-34 -42q0 -9 25.5 -25.5t63 -42t80 -58.5t77.5 -75t52 -94t17 -109q0 -73 -24.5 -126t-68.5 -87.5t-104.5 -51.5t-131.5 -17h-150z" />
<glyph unicode="&#x643;" horiz-adv-x="932" arabic-form="medial" d="M350 303q0 50 -25.5 85.5t-64 62.5t-83.5 48t-83.5 43.5t-64 48.5t-25.5 62q0 29 13.5 54.5t33.5 44.5q27 24 75 54.5t106.5 63.5t123.5 66.5t127 63.5t116 55.5t91 42.5l-28 -113q-15 -7 -46 -21t-71.5 -32.5t-86.5 -40.5t-92 -45.5t-88.5 -47.5t-75 -45.5t-52 -39.5 t-19.5 -31t26.5 -33.5t61 -40.5t66.5 -37t43 -23q47 -29 94 -68t92.5 -80t90.5 -80.5t88 -70.5t84.5 -50t80.5 -19h94q31 0 46 -27.5t15 -62.5t-15 -62.5t-46 -27.5h-76q-42 0 -79.5 14.5t-69.5 35.5t-57 45t-43 42q-17 18 -40.5 47t-51 61.5t-59 65t-64.5 58.5v-29 q0 -30 -3 -61t-11 -61t-21.5 -57.5t-34.5 -49.5q-23 -25 -54.5 -46t-67.5 -35t-73 -22t-71 -8h-112q-25 0 -37 27.5t-12 62.5t12 62.5t37 27.5q19 0 55 1t77 4t81 7.5t66 11.5q47 12 77 36t30 63z" />
<glyph unicode="&#x643;" horiz-adv-x="1179" arabic-form="final" d="M1219 180q23 0 34 -27.5t11 -62.5t-11 -62.5t-34 -27.5h-84q-19 0 -48.5 7.5t-60 25t-59 47t-46.5 73.5q-13 -32 -30.5 -60t-41 -48.5t-53 -32.5t-65.5 -12h-469q-47 0 -86 13t-67.5 40t-44 68t-15.5 97q0 36 10 68t25.5 59t33.5 47t33 31q2 0 5.5 -1.5t0.5 -6.5 q-12 -22 -21.5 -52t-9.5 -59q0 -65 52 -94.5t142 -29.5h251q33 1 74 2t82.5 4.5t80 10.5t67.5 20l-29 629q-6 6 -15.5 17t-19 24t-16 25t-6.5 20q0 6 7.5 23t19.5 38.5t26.5 44.5t28 42t25 31.5t16.5 12.5q13 0 11 -8q-10 -26 -13 -47.5t-3 -36.5t9 -30.5t22.5 -30.5 t28.5 -28t26 -21q-3 -8 -8 -27t-11.5 -41t-14 -42t-13.5 -31l-9 5q4 -89 11.5 -182t9.5 -182q3 -25 7.5 -52.5t13.5 -54.5t24 -50.5t39 -41.5q32 -24 73.5 -33.5t103.5 -9.5zM689 568q0 -27 -16.5 -56t-45 -53t-65.5 -40t-79 -16q-18 0 -47.5 3.5t-59.5 10.5t-53.5 16 t-28.5 21q32 2 78.5 6.5t89.5 11t73 15t30 19.5q0 9 -12 13t-30.5 5.5t-40 3.5t-40 7.5t-30.5 17t-12 31.5q0 27 15.5 60.5t43 66.5t66.5 62.5t86 49.5q2 -9 6 -22t7.5 -26.5t6.5 -25t4 -15.5q-15 -4 -36 -11t-40.5 -15.5t-33.5 -18t-14 -20.5q0 -15 13 -21t33 -9t43 -5 t43 -8.5t33 -19.5t13 -38z" />
<glyph unicode="&#x644;" horiz-adv-x="338" arabic-form="initial" d="M-40 0q-23 0 -34.5 27.5t-11.5 62.5t11.5 62.5t34.5 27.5q53 0 87.5 1.5t60 5.5t46 11.5t45.5 18.5l-29 629q-6 6 -15.5 17t-19 24t-16 25t-6.5 20q0 10 15 39.5t35.5 62.5t41.5 60t33 31q6 2 7 -1t0 -6q-8 -25 -11 -45.5t-3 -40.5q0 -15 9 -30.5t22.5 -30.5t28.5 -28 t26 -21q-3 -8 -8 -27t-11 -40.5t-13 -42t-13 -31.5l-12 6q5 -103 14 -211t9 -211q0 -35 -4.5 -75.5t-15.5 -81t-28 -78.5t-42.5 -66.5t-59.5 -46t-78 -17.5h-95z" />
<glyph unicode="&#x644;" horiz-adv-x="438" arabic-form="medial" d="M-36 0q-25 0 -37 27.5t-12 62.5t12 62.5t37 27.5h59q58 0 93.5 33t35.5 111q0 10 -0.5 23t-2.5 38.5t-5 69.5t-7.5 117t-10.5 180.5t-15 259.5l96 106l41 -694q4 -70 14 -111.5t21 -58.5q27 -42 55 -58t72 -16h49q30 0 45 -27.5t15 -62.5t-15 -62.5t-45 -27.5h-73 q-30 0 -60.5 20t-55 48t-41.5 59t-22 53q-12 -28 -27.5 -60t-36.5 -58.5t-48.5 -44t-63.5 -17.5h-67z" />
<glyph unicode="&#x644;" horiz-adv-x="906" arabic-form="final" d="M950 180q19 0 30.5 -8.5t18 -22t9 -29t2.5 -30.5q0 -9 -2.5 -24t-9 -29.5t-18 -25.5t-30.5 -11h-94q-23 0 -47 7.5t-47.5 19.5t-44 28t-35.5 33q2 -99 -21 -188.5t-71.5 -157.5t-124.5 -108t-180 -40q-131 0 -195.5 71t-64.5 198q0 44 7 87.5t20 84.5t32 78t43 67 q3 4 7.5 -0.5t3.5 -7.5q-15 -62 -23.5 -110t-8.5 -99q0 -47 18 -79.5t48 -53t69 -30t81 -9.5q28 0 70 7t84.5 21t77.5 35t50 50q3 111 -4 241.5t-19 267.5t-25 274.5t-21 262.5l94 148l43 -541q3 -33 8 -76.5t14 -88.5t23 -87t35 -72q14 -20 39 -31.5t54 -17t57 -6t48 1.5z " />
<glyph unicode="&#x645;" horiz-adv-x="604" arabic-form="initial" d="M-32 0q-26 0 -39 27.5t-13 62.5t13 62.5t39 27.5q27 0 58.5 1.5t61 7t54.5 15.5t38 26q24 30 54 78.5t64 94.5t70 79.5t72 33.5q15 0 31.5 -15.5t33 -40.5t31 -55t26 -59.5t18 -54t6.5 -37.5q0 -26 -7.5 -59.5t-24.5 -63.5t-43.5 -51t-64.5 -21q-23 0 -51 9.5t-56 23.5 t-54 30.5t-45 31.5q-13 -34 -27.5 -62.5t-34.5 -48.5t-48 -31.5t-67 -11.5h-95zM489 242q0 18 -7.5 41.5t-21 44.5t-31 36t-38.5 15q-13 0 -26.5 -10.5t-25 -25.5t-21 -31.5t-14.5 -28.5q8 -11 28 -24t43.5 -24t45 -18.5t32.5 -7.5q15 0 25.5 8t10.5 25z" />
<glyph unicode="&#x645;" horiz-adv-x="694" arabic-form="medial" d="M-36 0q-25 0 -37 27.5t-12 62.5t12 62.5t37 27.5q40 0 69 1.5t51 5.5t38 12t30 20q15 14 38.5 42t49.5 56.5t51.5 50t46.5 21.5q33 0 53 -14.5t35.5 -37.5t30.5 -50.5t39 -54.5q25 -28 79 -40t145 -12q29 0 43 -27.5t14 -62.5t-14 -62.5t-43 -27.5h-130q-9 0 -23 3 t-29.5 8.5t-30.5 12.5t-26 15q-1 -9 -6.5 -22t-13.5 -25.5t-17.5 -21.5t-19.5 -9q-29 0 -61 11t-62.5 27.5t-58.5 36.5t-49 38q-17 -34 -39 -54t-56 -20h-134zM254 221q0 -13 18 -30t41.5 -32t47.5 -25.5t36 -10.5q11 0 11 10q0 11 -7 39.5t-17.5 58.5t-23 53t-24.5 23 t-26 -9t-26.5 -22.5t-21 -28t-8.5 -26.5z" />
<glyph unicode="&#x645;" horiz-adv-x="625" arabic-form="final" d="M582 0q-25 0 -57 11t-64 52q0 -89 -15.5 -128t-33.5 -39q-33 0 -59.5 14t-47.5 39.5t-35 61t-22 77.5q-50 -5 -83 -18t-54 -47q0 -46 2 -108t5 -131.5t6.5 -141.5t6.5 -137q0 -15 -5.5 -34.5t-12.5 -36.5t-14.5 -29.5t-12.5 -13.5l-38 589q0 23 8.5 54.5t33.5 69.5 q29 44 57 69.5t55 39t53.5 17t50.5 3.5q6 17 16.5 33.5t21.5 30t22 23.5t17 14l15 -5q9 -39 26.5 -67.5t39.5 -46.5t46 -26.5t46 -8.5h92q38 0 56.5 -27.5t18.5 -62.5q0 -17 -4.5 -33.5t-14 -29t-23.5 -20t-33 -7.5h-66z" />
<glyph unicode="&#x646;" horiz-adv-x="338" arabic-form="initial" d="M215 180q5 0 10 5.5t9 13t6 15.5t2 13q0 7 -4.5 23.5t-11 34.5t-13.5 32.5t-12 18.5l57 145q29 -38 42 -87.5t13 -98.5q0 -37 -7.5 -74t-22.5 -71q-9 -21 -27.5 -47t-41.5 -49t-49 -38.5t-50 -15.5h-151q-12 0 -21.5 8t-15.5 21t-9 29.5t-3 34.5q0 35 12 61t37 26h251z M206 606l-104 104l104 104l104 -104z" />
<glyph unicode="&#x646;" horiz-adv-x="440" arabic-form="medial" d="M-40 0q-23 0 -35 27.5t-12 62.5t12 62.5t35 27.5h53.5t53 1t48 3.5t37.5 6.5q23 6 36.5 23.5t22.5 39t15 44t13 38.5q1 3 5 4.5t8.5 1.5t7.5 -2.5t2 -7.5q-2 -16 -3 -32t-1 -21q0 -35 22.5 -55t55.5 -29.5t70.5 -12t66.5 -2.5q25 0 37.5 -27.5t12.5 -62.5t-12.5 -62.5 t-37.5 -27.5h-115q-21 0 -43 9t-42.5 25t-38 37t-29.5 46q-9 -18 -25.5 -38.5t-37 -38t-43 -29t-44.5 -11.5h-95zM212 462l-104 104l104 104l104 -104z" />
<glyph unicode="&#x646;" horiz-adv-x="907" arabic-form="final" d="M757 0q5 -92 -19.5 -169.5t-78.5 -133t-136.5 -86.5t-193.5 -31q-134 0 -207.5 68t-73.5 205q0 40 7 83t19.5 85t30 80.5t39.5 68.5q6 8 13 8q8 0 8 -4v-10q-14 -48 -28.5 -95t-14.5 -98q0 -60 19 -99.5t52.5 -63.5t80 -34t100.5 -10q40 0 85 6.5t88 21.5t79.5 38.5 t60.5 58.5q0 92 -24 156.5t-74 120.5l80 145q2 -10 7 -21.5t12 -23.5t14.5 -22.5t13.5 -18.5q11 -14 35.5 -23t55 -14t63.5 -6.5t61 -1.5q29 0 43 -27.5t14 -62.5t-14 -62.5t-43 -27.5h-174zM385 263l-104 104l104 104l104 -104z" />
<glyph unicode="&#x647;" horiz-adv-x="610" arabic-form="initial" d="M10 180q35 0 62.5 3t47.5 17q-15 21 -24.5 44.5t-9.5 46.5q0 57 24.5 108.5t59.5 96.5l-27 26q-4 4 -6 10.5t2 14.5l62 145q3 8 8 12.5t12 2.5l268 -222q27 -21 45.5 -42.5t30 -45t16.5 -50.5t5 -60q0 -22 -1 -48t-6 -51.5t-15.5 -48t-28.5 -37.5q-7 -6 -18 -9t-23 -4.5 t-23.5 -2t-19.5 -0.5q-56 0 -113.5 7t-99.5 22q-18 -17 -45 -37t-57 -37.5t-60.5 -29t-55.5 -11.5h-60q-23 0 -34.5 27.5t-11.5 62.5t11.5 62.5t34.5 27.5h50zM358 410q7 -17 10 -35.5t3 -36.5q0 -25 -6.5 -46t-17.5 -43q12 -6 36 -11.5t49.5 -9.5t48 -6.5t31.5 -2.5h8.5 t11 1.5t9.5 4.5t4 8q0 12 -11.5 29t-29.5 36t-39.5 38t-42.5 34.5t-38 26.5t-26 13zM236 440q-12 0 -28.5 -14t-32.5 -33t-27 -38.5t-11 -30.5q0 -12 10.5 -22t26 -16.5t33 -11t32.5 -6.5q9 3 22 10t25 15.5t20.5 18.5t8.5 20q0 15 -8.5 34t-21 35.5t-26 27.5t-23.5 11z" />
<glyph unicode="&#x647;" horiz-adv-x="698" arabic-form="medial" d="M-40 0q-23 -1 -34.5 26.5t-11.5 62.5q0 18 3 34t8.5 29t14 20.5t20.5 7.5q71 0 114.5 1.5t69 4.5t37.5 7t21 8q2 18 18 57.5t39.5 87.5t52.5 100t58 94t54.5 69.5t42.5 27.5q14 0 24.5 -12t18 -30t12.5 -40t7.5 -42.5t3.5 -36.5t1 -23q0 -43 -13 -84.5t-33.5 -78 t-46.5 -66.5t-52 -50q66 4 124 5t120 1h90q15 0 25.5 -7.5t18 -20.5t11 -29t3.5 -34q0 -35 -14.5 -62.5t-43.5 -26.5h-82q-40 0 -79 4.5t-81 9.5q7 -12 13 -28.5t10 -34.5t6 -34.5t2 -26.5q0 -35 -7 -75.5t-24 -75t-44 -57t-68 -22.5q-30 0 -56.5 18.5t-48.5 48.5t-40 67 t-31 75t-19.5 72.5t-7.5 58.5h-206zM238 0q3 -33 14.5 -65t32 -57t48.5 -40.5t64 -15.5q6 0 17 1t22 4t19 8t8 13q0 35 -24.5 62.5t-60 47t-74 30t-66.5 12.5zM270 215q23 5 55 14.5t61 24.5t50 35.5t21 48.5q0 9 -2.5 26.5t-8 34.5t-14.5 30t-22 13t-28 -13.5t-29 -35 t-27.5 -47.5t-24.5 -51t-19 -46.5t-12 -33.5z" />
<glyph unicode="&#x647;" horiz-adv-x="672" arabic-form="final" d="M567 0q-31 0 -62 20t-56.5 49t-43 62.5t-20.5 61.5q-18 -41 -41 -67t-51.5 -40.5t-63 -20t-75.5 -5.5q-13 0 -35.5 0.5t-44.5 5t-38 14.5t-16 29q0 26 6.5 58t17 64.5t25 62t29.5 48.5q8 10 25 24t39 29.5t47 31t49 29t44 23.5t32 13l-17 113l56 123q9 -100 23 -199.5 t36 -196.5q5 -24 15.5 -51t26.5 -49.5t38.5 -37t52.5 -14.5h152q11 0 20 -7.5t16 -20t11 -28.5t4 -34t-4 -34t-11 -28.5t-16 -20t-20 -7.5h-150zM340 388h-2q-6 0 -22.5 -7.5t-38 -19t-45.5 -26t-43.5 -27.5t-32.5 -23t-13 -14t10 -8t23 -6t25 -3.5t16 -1.5q7 0 30 3t48 9 t44 14.5t17 18.5z" />
<glyph unicode="&#x648;" horiz-adv-x="713" arabic-form="final" d="M-51 -221q86 -15 174 -15q134 0 233.5 53t165.5 173h-20q-28 0 -60 3.5t-58.5 14.5t-44 32t-17.5 56q0 15 6.5 40.5t18 55t27 60t33 55t36 40t36.5 15.5q22 0 41.5 -22t35.5 -51.5t27.5 -60t16.5 -48.5h148q26 0 38.5 -27.5t12.5 -62.5t-12.5 -62.5t-38.5 -27.5h-164 q0 -12 -3.5 -25.5t-8.5 -27.5t-10.5 -26.5t-10.5 -22.5q-21 -42 -53 -86.5t-71.5 -82t-86.5 -61.5t-98 -24q-91 0 -164 30.5t-129 104.5zM440 225q-8 0 -16 -8t-14 -19t-9.5 -22.5t-3.5 -19.5q0 -12 7.5 -19.5t19 -11.5t24 -5t21.5 -1h13t15.5 1t13 3.5t5.5 7.5q0 12 -7 28 t-18 30.5t-24.5 25t-26.5 10.5z" />
<glyph unicode="&#x649;" horiz-adv-x="338" d="M215 180q5 0 10 5.5t9 13t6 15.5t2 13q0 7 -4.5 23.5t-11 34.5t-13.5 32.5t-12 18.5l57 145q29 -38 42 -87.5t13 -98.5q0 -37 -7.5 -74t-22.5 -71q-9 -21 -27.5 -47t-41.5 -49t-49 -38.5t-50 -15.5h-151q-12 0 -21.5 8t-15.5 21t-9 29.5t-3 34.5q0 35 12 61t37 26h251z " />
<glyph unicode="&#x649;" horiz-adv-x="440" d="M-40 0q-23 0 -35 27.5t-12 62.5t12 62.5t35 27.5h53.5t53 1t48 3.5t37.5 6.5q23 6 36.5 23.5t22.5 39t15 44t13 38.5q1 3 5 4.5t8.5 1.5t7.5 -2.5t2 -7.5q-2 -16 -3 -32t-1 -21q0 -35 22.5 -55t55.5 -29.5t70.5 -12t66.5 -2.5q25 0 37.5 -27.5t12.5 -62.5t-12.5 -62.5 t-37.5 -27.5h-115q-21 0 -43 9t-42.5 25t-38 37t-29.5 46q-9 -18 -25.5 -38.5t-37 -38t-43 -29t-44.5 -11.5h-95z" />
<glyph unicode="&#x649;" horiz-adv-x="1036" arabic-form="final" d="M1075 180q24 0 36 -27.5t12 -62.5t-12 -62.5t-36 -27.5h-158q-43 0 -90 -3.5t-89 -14.5q-5 -2 -15.5 -8t-10.5 -9q0 -13 17 -21t43 -12.5t57 -8t59.5 -8t50.5 -11.5t29 -19q10 -23 10 -45q0 -33 -25 -69t-67.5 -70.5t-99.5 -65.5t-120.5 -54.5t-130 -37.5t-128.5 -14 t-127.5 13.5t-119 44t-88 81t-34.5 125.5q0 39 13.5 83.5t36.5 89t54 87t66 77.5q5 5 10 5q3 0 3 -6q-13 -22 -29 -52.5t-30 -65.5t-23 -72t-9 -72q0 -65 32 -102.5t80 -56.5t105 -24.5t107 -5.5q30 0 72 4.5t88.5 12t92.5 18t82.5 23t59.5 26.5t23 29q0 13 -19 18.5 t-48 8.5t-62 7t-62 14.5t-48 30.5t-19 56q0 53 37 99.5t91 81t114.5 54t107.5 19.5h111z" />
<glyph unicode="&#x64a;" horiz-adv-x="338" arabic-form="initial" d="M215 180q5 0 10 5.5t9 13t6 15.5t2 13q0 7 -4.5 23.5t-11 34.5t-13.5 32.5t-12 18.5l57 145q29 -38 42 -87.5t13 -98.5q0 -37 -7.5 -74t-22.5 -71q-9 -21 -27.5 -47t-41.5 -49t-49 -38.5t-50 -15.5h-151q-12 0 -21.5 8t-15.5 21t-9 29.5t-3 34.5q0 35 12 61t37 26h251z M304 -333l-104 104l104 104l107 -104zM94 -333l-107 104l107 104l104 -104z" />
<glyph unicode="&#x64a;" horiz-adv-x="440" arabic-form="medial" d="M-40 0q-23 0 -35 27.5t-12 62.5t12 62.5t35 27.5h53.5t53 1t48 3.5t37.5 6.5q23 6 36.5 23.5t22.5 39t15 44t13 38.5q1 3 5 4.5t8.5 1.5t7.5 -2.5t2 -7.5q-2 -16 -3 -32t-1 -21q0 -35 22.5 -55t55.5 -29.5t70.5 -12t66.5 -2.5q25 0 37.5 -27.5t12.5 -62.5t-12.5 -62.5 t-37.5 -27.5h-115q-21 0 -43 9t-42.5 25t-38 37t-29.5 46q-9 -18 -25.5 -38.5t-37 -38t-43 -29t-44.5 -11.5h-95zM308 -333l-104 104l104 104l107 -104zM98 -333l-107 104l107 104l104 -104z" />
<glyph unicode="&#x64a;" horiz-adv-x="1036" arabic-form="final" d="M536 -807l-104 104l104 104l107 -104zM326 -807l-107 104l107 104l104 -104zM1075 180q24 0 36 -27.5t12 -62.5t-12 -62.5t-36 -27.5h-158q-43 0 -90 -3.5t-89 -14.5q-5 -2 -15.5 -8t-10.5 -9q0 -13 17 -21t43 -12.5t57 -8t59.5 -8t50.5 -11.5t29 -19q10 -23 10 -45 q0 -33 -25 -69t-67.5 -70.5t-99.5 -65.5t-120.5 -54.5t-130 -37.5t-128.5 -14t-127.5 13.5t-119 44t-88 81t-34.5 125.5q0 39 13.5 83.5t36.5 89t54 87t66 77.5q5 5 10 5q3 0 3 -6q-13 -22 -29 -52.5t-30 -65.5t-23 -72t-9 -72q0 -65 32 -102.5t80 -56.5t105 -24.5t107 -5.5 q30 0 72 4.5t88.5 12t92.5 18t82.5 23t59.5 26.5t23 29q0 13 -19 18.5t-48 8.5t-62 7t-62 14.5t-48 30.5t-19 56q0 53 37 99.5t91 81t114.5 54t107.5 19.5h111z" />
<glyph unicode="&#x66e;" horiz-adv-x="338" d="M215 180q5 0 10 5.5t9 13t6 15.5t2 13q0 7 -4.5 23.5t-11 34.5t-13.5 32.5t-12 18.5l57 145q29 -38 42 -87.5t13 -98.5q0 -37 -7.5 -74t-22.5 -71q-9 -21 -27.5 -47t-41.5 -49t-49 -38.5t-50 -15.5h-151q-12 0 -21.5 8t-15.5 21t-9 29.5t-3 34.5q0 35 12 61t37 26h251z " />
<glyph unicode="&#x66e;" horiz-adv-x="440" d="M-40 0q-23 0 -35 27.5t-12 62.5t12 62.5t35 27.5h53.5t53 1t48 3.5t37.5 6.5q23 6 36.5 23.5t22.5 39t15 44t13 38.5q1 3 5 4.5t8.5 1.5t7.5 -2.5t2 -7.5q-2 -16 -3 -32t-1 -21q0 -35 22.5 -55t55.5 -29.5t70.5 -12t66.5 -2.5q25 0 37.5 -27.5t12.5 -62.5t-12.5 -62.5 t-37.5 -27.5h-115q-21 0 -43 9t-42.5 25t-38 37t-29.5 46q-9 -18 -25.5 -38.5t-37 -38t-43 -29t-44.5 -11.5h-95z" />
<glyph unicode="&#x66e;" horiz-adv-x="1183" d="M997 143q-46 -40 -108.5 -71.5t-137.5 -54t-160.5 -34.5t-177.5 -12q-65 0 -131.5 13t-120 44.5t-87.5 83t-34 128.5q0 61 32.5 117.5t80.5 99.5q2 2 7 -1t3 -7q-4 -9 -11 -19.5t-13.5 -24.5t-11.5 -33.5t-5 -47.5q0 -40 22 -68.5t57 -48t79 -30.5t88.5 -17t85.5 -8 t70 -2q40 0 87 5t96 15t98.5 26t93.5 38.5t80.5 51t60.5 64.5q6 0 6 -5q0 -25 6.5 -54t18 -54t27.5 -41t36 -16h74q29 0 43 -27.5t14 -62.5t-14 -62.5t-43 -27.5h-68q-28 0 -52.5 13t-43 33.5t-30.5 46t-17 50.5z" />
<glyph unicode="&#x66f;" horiz-adv-x="487" d="M-36 0q-25 0 -37 27.5t-12 62.5t12 62.5t37 27.5h95t81 1t78 3t86 5q43 3 66.5 19t37.5 30q1 29 -5 55t-17 43q-28 -22 -61.5 -41t-68.5 -19q-28 0 -49 10.5t-35 28.5t-20.5 41.5t-6.5 49.5q0 17 4.5 42t13 53t21.5 56t29 50t35 36t41 14q26 0 49.5 -21.5t42.5 -55 t34 -75.5t25 -82.5t15.5 -75.5t5.5 -56q0 -67 -27.5 -121t-73.5 -92t-105 -58t-122 -20h-169zM266 508q-11 0 -23.5 -8t-22.5 -19.5t-16.5 -25t-6.5 -25.5t6.5 -21t16.5 -14t22 -7.5t22 -2.5q5 0 16 2.5t23.5 6.5t24.5 9.5t19 10.5q-3 12 -11.5 28t-20 30.5t-24.5 25 t-25 10.5z" />
<glyph unicode="&#x66f;" horiz-adv-x="563" d="M461 0q-24 0 -50 7t-52.5 18.5t-51.5 26.5t-47 32q-22 -17 -54 -32t-63.5 -26.5t-58.5 -18.5t-41 -7h-79q-25 0 -37 27.5t-12 62.5t12 62.5t37 27.5h63h27.5t35 1.5t37 4t33.5 7.5q-3 21 -11 40t-8 43q0 25 7 60t20.5 73t32 75.5t41.5 67t49 48t55 18.5q32 0 52 -19.5 t32 -47.5t16.5 -59t4.5 -54q0 -30 -5 -63t-14 -66t-22.5 -63.5t-30.5 -54.5q23 -8 50 -9.5t56 -1.5h103q29 0 42.5 -27.5t13.5 -62.5t-13.5 -62.5t-42.5 -27.5h-127zM373 350q0 12 -5.5 24.5t-14.5 22.5t-20.5 16.5t-23.5 6.5q-15 0 -35 -11t-38 -27.5t-30.5 -34.5 t-12.5 -32q0 -10 9 -21.5t21.5 -22t25.5 -18.5t21 -13q17 6 35 16.5t33 24.5t25 31.5t10 37.5z" />
<glyph unicode="&#x66f;" horiz-adv-x="889" d="M922 180q26 0 38 -27.5t12 -62.5t-12 -62.5t-38 -27.5h-127q1 -44 -14.5 -86t-35.5 -76q-31 -53 -79.5 -96t-105 -74t-116 -48t-112.5 -17q-69 0 -126.5 20t-99 58t-64 93.5t-22.5 127.5q0 42 7 85t19.5 83t30.5 75t40 62q3 4 9 2.5t4 -7.5q-7 -18 -15 -41.5t-15 -49.5 t-11.5 -53.5t-4.5 -53.5q0 -65 20.5 -107.5t56.5 -67.5t86 -34.5t109 -9.5q18 0 50 3.5t70.5 11t79.5 19.5t77.5 29t64 40t38.5 53q5 15 8 30.5t4 28.5q-17 -6 -43 -9.5t-48 -3.5q-31 0 -59.5 9.5t-50.5 27.5t-34.5 45t-12.5 62q0 26 10.5 67t29.5 79.5t46 66t59 27.5 q29 0 52.5 -20.5t40.5 -50t26 -62.5t10 -58h148zM621 256q-10 0 -21.5 -7.5t-21.5 -18.5t-16.5 -23.5t-6.5 -22.5q0 -12 7 -20t17.5 -13.5t22.5 -7.5t21 -2q11 0 32 0.5t44 12.5q0 14 -8 31.5t-19.5 33t-25 26.5t-25.5 11z" />
<glyph unicode="&#x671;" horiz-adv-x="467" arabic-form="final" d="M375 0q-50 0 -86.5 27.5t-61 72t-39 100t-22.5 111t-10.5 105.5t-3.5 84l-10 497l84 95v-514q0 -28 4 -73.5t12 -92.5t19 -89.5t26 -66.5q29 -47 66 -61.5t81 -14.5h62q14 0 24.5 -7.5t18 -20t11 -28.5t3.5 -34t-3.5 -34t-11 -28.5t-18 -20t-24.5 -7.5h-121zM370 1354 q0 -12 -10 -33t-30.5 -41.5t-52.5 -36t-77 -15.5q-7 0 -29 1t-48 1.5t-50.5 1.5t-35.5 1q-21 0 -31 -5.5t-14.5 -11.5t-6.5 -11.5t-6 -5.5t-4 11q0 10 2.5 22.5t9 24.5t17.5 22.5t28 16.5q19 6 49.5 7t56.5 1q16 36 31.5 66t34 51.5t41 34t52.5 12.5q33 0 53 -25.5t20 -88.5 zM310 1352q0 17 -12 26t-32 9q-10 0 -22.5 -8.5t-24.5 -21t-23 -27t-18 -26.5q19 0 42 1.5t43 6.5t33.5 14.5t13.5 25.5z" />
<glyph unicode="&#x672;" horiz-adv-x="467" d="M375 0q-50 0 -86.5 27.5t-61 72t-39 100t-22.5 111t-10.5 105.5t-3.5 84l-10 497l84 95v-514q0 -28 4 -73.5t12 -92.5t19 -89.5t26 -66.5q29 -47 66 -61.5t81 -14.5h62q14 0 24.5 -7.5t18 -20t11 -28.5t3.5 -34t-3.5 -34t-11 -28.5t-18 -20t-24.5 -7.5h-121zM336 1258 h-30q-56 2 -112 -34q-21 -13 -36.5 -23t-30 -16.5t-29.5 -10t-33 -3.5q-14 0 -25.5 5t-21.5 10.5t-20 10.5t-22 5h-24t-23 -3t-26.5 -10t-33.5 -20q-2 0 -5 7q-2 4 -4 7q27 26 60 46t69 20q17 0 29 -4t21.5 -8.5t18.5 -8t21 -3.5q18 0 36.5 13t35.5 31q-8 4 -19 12.5 t-20.5 19.5t-16 24t-6.5 25q0 14 22 38t51 47.5t57.5 40.5t41.5 17q8 0 18 -4t18 -10.5t13.5 -15t5.5 -17.5q0 -14 -11.5 -28.5t-25.5 -14.5q-12 0 -24.5 7.5t-26.5 7.5q-9 0 -20 -5t-21.5 -12.5t-17.5 -17.5t-7 -19q0 -10 9.5 -16.5t22 -11t25.5 -6.5t21 -2h137z" />
<glyph unicode="&#x673;" horiz-adv-x="467" d="M375 0q-50 0 -86.5 27.5t-61 72t-39 100t-22.5 111t-10.5 105.5t-3.5 84l-10 497l84 95v-514q0 -28 4 -73.5t12 -92.5t19 -89.5t26 -66.5q29 -47 66 -61.5t81 -14.5h62q14 0 24.5 -7.5t18 -20t11 -28.5t3.5 -34t-3.5 -34t-11 -28.5t-18 -20t-24.5 -7.5h-121zM409 -341 h-30q-56 2 -112 -34q-21 -13 -36.5 -23t-30 -16.5t-29.5 -10t-33 -3.5q-14 0 -25.5 5t-21.5 10.5t-20 10.5t-22 5h-24t-23 -3t-26.5 -10t-33.5 -20q-2 0 -5 7q-2 4 -4 7q27 26 60 46t69 20q17 0 29 -4t21.5 -8.5t18.5 -8t21 -3.5q18 0 36.5 13t35.5 31q-8 4 -19 12.5 t-20.5 19.5t-16 24t-6.5 25q0 14 22 38t51 47.5t57.5 40.5t41.5 17q8 0 18 -4t18 -10.5t13.5 -15t5.5 -17.5q0 -14 -11.5 -28.5t-25.5 -14.5q-12 0 -24.5 7.5t-26.5 7.5q-9 0 -20 -5t-21.5 -12.5t-17.5 -17.5t-7 -19q0 -10 9.5 -16.5t22 -11t25.5 -6.5t21 -2h137z" />
<glyph unicode="&#x675;" horiz-adv-x="467" d="M375 0q-50 0 -86.5 27.5t-61 72t-39 100t-22.5 111t-10.5 105.5t-3.5 84l-10 497l84 95v-514q0 -28 4 -73.5t12 -92.5t19 -89.5t26 -66.5q29 -47 66 -61.5t81 -14.5h62q14 0 24.5 -7.5t18 -20t11 -28.5t3.5 -34t-3.5 -34t-11 -28.5t-18 -20t-24.5 -7.5h-121zM479 1531 q-15 0 -29 8.5t-32 8.5q-10 0 -23.5 -6t-25.5 -15t-20.5 -20.5t-8.5 -22.5q0 -12 11 -21t26.5 -14t31.5 -7.5t25 -2.5h164l-49 -82h-37q-35 1 -71.5 -6.5t-71 -22t-66 -35t-57.5 -44.5l-19 26q4 7 15.5 20t23.5 27t21.5 26.5t9.5 18.5q0 9 -7 20.5t-15.5 24.5t-15.5 27 t-7 29q0 11 12.5 28t31.5 36.5t43 39t46.5 35t42 25.5t29.5 10q11 0 22.5 -5.5t21.5 -14t16.5 -19t6.5 -21.5q0 -8 -4 -17t-10 -16.5t-14 -12.5t-17 -5z" />
<glyph unicode="&#x676;" horiz-adv-x="713" d="M-51 -221q86 -15 174 -15q134 0 233.5 53t165.5 173h-20q-28 0 -60 3.5t-58.5 14.5t-44 32t-17.5 56q0 15 6.5 40.5t18 55t27 60t33 55t36 40t36.5 15.5q22 0 41.5 -22t35.5 -51.5t27.5 -60t16.5 -48.5h148q26 0 38.5 -27.5t12.5 -62.5t-12.5 -62.5t-38.5 -27.5h-164 q0 -12 -3.5 -25.5t-8.5 -27.5t-10.5 -26.5t-10.5 -22.5q-21 -42 -53 -86.5t-71.5 -82t-86.5 -61.5t-98 -24q-91 0 -164 30.5t-129 104.5zM440 225q-8 0 -16 -8t-14 -19t-9.5 -22.5t-3.5 -19.5q0 -12 7.5 -19.5t19 -11.5t24 -5t21.5 -1h13t15.5 1t13 3.5t5.5 7.5q0 12 -7 28 t-18 30.5t-24.5 25t-26.5 10.5zM732 796q-15 0 -29 8.5t-32 8.5q-10 0 -23.5 -6t-25.5 -15t-20.5 -20.5t-8.5 -22.5q0 -12 11 -21t26.5 -14t31.5 -7.5t25 -2.5h164l-49 -82h-37q-35 1 -71.5 -6.5t-71 -22t-66 -35t-57.5 -44.5l-19 26q4 7 15.5 20t23.5 27t21.5 26.5 t9.5 18.5q0 9 -7 20.5t-15.5 24.5t-15.5 27t-7 29q0 11 12.5 28t31.5 36.5t43 39t46.5 35t42 25.5t29.5 10q11 0 22.5 -5.5t21.5 -14t16.5 -19t6.5 -21.5q0 -8 -4 -17t-10 -16.5t-14 -12.5t-17 -5z" />
<glyph unicode="&#x677;" horiz-adv-x="713" d="M-51 -221q86 -15 174 -15q134 0 233.5 53t165.5 173h-20q-28 0 -60 3.5t-58.5 14.5t-44 32t-17.5 56q0 15 6.5 40.5t18 55t27 60t33 55t36 40t36.5 15.5q22 0 41.5 -22t35.5 -51.5t27.5 -60t16.5 -48.5h148q26 0 38.5 -27.5t12.5 -62.5t-12.5 -62.5t-38.5 -27.5h-164 q0 -12 -3.5 -25.5t-8.5 -27.5t-10.5 -26.5t-10.5 -22.5q-21 -42 -53 -86.5t-71.5 -82t-86.5 -61.5t-98 -24q-91 0 -164 30.5t-129 104.5zM440 225q-8 0 -16 -8t-14 -19t-9.5 -22.5t-3.5 -19.5q0 -12 7.5 -19.5t19 -11.5t24 -5t21.5 -1h13t15.5 1t13 3.5t5.5 7.5q0 12 -7 28 t-18 30.5t-24.5 25t-26.5 10.5zM721 700q-15 0 -29 8.5t-32 8.5q-10 0 -23.5 -6t-25.5 -15t-20.5 -20.5t-8.5 -22.5q0 -12 11 -21t26.5 -14t31.5 -7.5t25 -2.5h164l-49 -82h-37h-11q-34 0 -69 -8.5t-68 -23t-63 -34.5t-55 -42l-19 26q4 7 15.5 20t24 27t21.5 26.5t9 18.5 q0 9 -7 20.5t-15.5 24.5t-15.5 27t-7 29q0 11 12.5 28t31.5 36.5t43 39t46.5 35t42 25.5t29.5 10q11 0 22.5 -5.5t21.5 -14t16.5 -19t6.5 -21.5q0 -8 -4 -17t-10 -16.5t-14 -12.5t-17 -5zM422 526l-61 37q-9 -10 -17.5 -18.5t-18 -17t-20.5 -18t-26 -20.5q-17 -13 -38.5 -26 t-41.5 -24q-23 -13 -47 -25l-27 47q20 11 39 22q17 10 34 20.5t29 18.5q13 9 28 22t29 25q16 14 31 29q-17 14 -31 28q-12 12 -23 25t-13 23q-3 15 -3 28q0 36 16 61.5t37.5 41t44.5 23t37 7.5q35 0 57 -20t22 -53q0 -26 -7.5 -50t-17 -43.5t-20 -33.5t-16.5 -20l59 -38z M307 708q0 -19 15.5 -35.5t29.5 -25.5q19 16 30 39t11 49q0 20 -10 30.5t-24 10.5q-6 0 -14.5 -4t-17 -12t-14.5 -21t-6 -31z" />
<glyph unicode="&#x678;" horiz-adv-x="338" d="M215 180q5 0 10 5.5t9 13t6 15.5t2 13q0 7 -4.5 23.5t-11 34.5t-13.5 32.5t-12 18.5l57 145q29 -38 42 -87.5t13 -98.5q0 -37 -7.5 -74t-22.5 -71q-9 -21 -27.5 -47t-41.5 -49t-49 -38.5t-50 -15.5h-151q-12 0 -21.5 8t-15.5 21t-9 29.5t-3 34.5q0 35 12 61t37 26h251z M457 912q-15 0 -29 8.5t-32 8.5q-10 0 -23.5 -6t-25.5 -15t-20.5 -20.5t-8.5 -22.5q0 -12 11 -21t26.5 -14t31.5 -7.5t25 -2.5h164l-49 -82h-37q-35 1 -71.5 -6.5t-71 -22t-66 -35t-57.5 -44.5l-19 26q4 7 15.5 20t23.5 27t21.5 26.5t9.5 18.5q0 9 -7 20.5t-15.5 24.5 t-15.5 27t-7 29q0 11 12.5 28t31.5 36.5t43 39t46.5 35t42 25.5t29.5 10q11 0 22.5 -5.5t21.5 -14t16.5 -19t6.5 -21.5q0 -8 -4 -17t-10 -16.5t-14 -12.5t-17 -5z" />
<glyph unicode="&#x678;" horiz-adv-x="440" d="M-40 0q-23 0 -35 27.5t-12 62.5t12 62.5t35 27.5h53.5t53 1t48 3.5t37.5 6.5q23 6 36.5 23.5t22.5 39t15 44t13 38.5q1 3 5 4.5t8.5 1.5t7.5 -2.5t2 -7.5q-2 -16 -3 -32t-1 -21q0 -35 22.5 -55t55.5 -29.5t70.5 -12t66.5 -2.5q25 0 37.5 -27.5t12.5 -62.5t-12.5 -62.5 t-37.5 -27.5h-115q-21 0 -43 9t-42.5 25t-38 37t-29.5 46q-9 -18 -25.5 -38.5t-37 -38t-43 -29t-44.5 -11.5h-95zM463 768q-15 0 -29 8.5t-32 8.5q-10 0 -23.5 -6t-25.5 -15t-20.5 -20.5t-8.5 -22.5q0 -12 11 -21t26.5 -14t31.5 -7.5t25 -2.5h164l-49 -82h-37 q-35 1 -71.5 -6.5t-71 -22t-66 -35t-57.5 -44.5l-19 26q4 7 15.5 20t23.5 27t21.5 26.5t9.5 18.5q0 9 -7 20.5t-15.5 24.5t-15.5 27t-7 29q0 11 12.5 28t31.5 36.5t43 39t46.5 35t42 25.5t29.5 10q11 0 22.5 -5.5t21.5 -14t16.5 -19t6.5 -21.5q0 -8 -4 -17t-10 -16.5 t-14 -12.5t-17 -5z" />
<glyph unicode="&#x678;" horiz-adv-x="1036" d="M807 618q-15 0 -29 8.5t-32 8.5q-10 0 -23.5 -6t-25.5 -15t-20.5 -20.5t-8.5 -22.5q0 -12 11 -21t26.5 -14t31.5 -7.5t25 -2.5h164l-49 -82h-37q-35 1 -71.5 -6.5t-71 -22t-66 -35t-57.5 -44.5l-19 26q4 7 15.5 20t23.5 27t21.5 26.5t9.5 18.5q0 9 -7 20.5t-15.5 24.5 t-15.5 27t-7 29q0 11 12.5 28t31.5 36.5t43 39t46.5 35t42 25.5t29.5 10q11 0 22.5 -5.5t21.5 -14t16.5 -19t6.5 -21.5q0 -8 -4 -17t-10 -16.5t-14 -12.5t-17 -5zM1075 180q24 0 36 -27.5t12 -62.5t-12 -62.5t-36 -27.5h-158q-43 0 -90 -3.5t-89 -14.5q-5 -2 -15.5 -8 t-10.5 -9q0 -13 17 -21t43 -12.5t57 -8t59.5 -8t50.5 -11.5t29 -19q10 -23 10 -45q0 -33 -25 -69t-67.5 -70.5t-99.5 -65.5t-120.5 -54.5t-130 -37.5t-128.5 -14t-127.5 13.5t-119 44t-88 81t-34.5 125.5q0 39 13.5 83.5t36.5 89t54 87t66 77.5q5 5 10 5q3 0 3 -6 q-13 -22 -29 -52.5t-30 -65.5t-23 -72t-9 -72q0 -65 32 -102.5t80 -56.5t105 -24.5t107 -5.5q30 0 72 4.5t88.5 12t92.5 18t82.5 23t59.5 26.5t23 29q0 13 -19 18.5t-48 8.5t-62 7t-62 14.5t-48 30.5t-19 56q0 53 37 99.5t91 81t114.5 54t107.5 19.5h111z" />
<glyph unicode="&#x679;" horiz-adv-x="338" arabic-form="initial" d="M215 180q5 0 10 5.5t9 13t6 15.5t2 13q0 7 -4.5 23.5t-11 34.5t-13.5 32.5t-12 18.5l57 145q29 -38 42 -87.5t13 -98.5q0 -37 -7.5 -74t-22.5 -71q-9 -21 -27.5 -47t-41.5 -49t-49 -38.5t-50 -15.5h-151q-12 0 -21.5 8t-15.5 21t-9 29.5t-3 34.5q0 35 12 61t37 26h251z M124 602q-40 0 -71.5 19.5t-51.5 54.5l117 -11l51 47v231q-9 8 -13.5 15t-4.5 18q0 5 5.5 16t12.5 23t14 21t10 9q2 0 2 -4q0 -5 -1.5 -11.5t-1.5 -8.5q0 -16 9.5 -27.5t24.5 -13.5l-20 -59h-10v-190q10 8 29 21.5t40 26.5t40.5 22.5t31.5 9.5q11 0 24 -4t24.5 -11.5 t19.5 -18t8 -24.5q0 -42 -30 -71t-74.5 -47t-94.5 -25.5t-90 -7.5zM300 747q-10 0 -31.5 -8t-43.5 -20t-39 -25.5t-17 -24.5q0 -3 7.5 -3.5t9.5 -0.5q9 0 37.5 3t59.5 9t55 15t24 20t-6.5 18t-16.5 10.5t-20.5 5t-18.5 1.5z" />
<glyph unicode="&#x679;" horiz-adv-x="440" arabic-form="medial" d="M-40 0q-23 0 -35 27.5t-12 62.5t12 62.5t35 27.5h53.5t53 1t48 3.5t37.5 6.5q23 6 36.5 23.5t22.5 39t15 44t13 38.5q1 3 5 4.5t8.5 1.5t7.5 -2.5t2 -7.5q-2 -16 -3 -32t-1 -21q0 -35 22.5 -55t55.5 -29.5t70.5 -12t66.5 -2.5q25 0 37.5 -27.5t12.5 -62.5t-12.5 -62.5 t-37.5 -27.5h-115q-21 0 -43 9t-42.5 25t-38 37t-29.5 46q-9 -18 -25.5 -38.5t-37 -38t-43 -29t-44.5 -11.5h-95zM130 458q-40 0 -71.5 19.5t-51.5 54.5l117 -11l51 47v231q-9 8 -13.5 15t-4.5 18q0 5 5.5 16t12.5 23t14 21t10 9q2 0 2 -4q0 -5 -1.5 -11.5t-1.5 -8.5 q0 -16 9.5 -27.5t24.5 -13.5l-20 -59h-10v-190q10 8 29 21.5t40 26.5t40.5 22.5t31.5 9.5q11 0 24 -4t24.5 -11.5t19.5 -18t8 -24.5q0 -42 -30 -71t-74.5 -47t-94.5 -25.5t-90 -7.5zM306 603q-10 0 -31.5 -8t-43.5 -20t-39 -25.5t-17 -24.5q0 -3 7.5 -3.5t9.5 -0.5 q9 0 37.5 3t59.5 9t55 15t24 20t-6.5 18t-16.5 10.5t-20.5 5t-18.5 1.5z" />
<glyph unicode="&#x679;" horiz-adv-x="1183" arabic-form="final" d="M997 143q-46 -40 -108.5 -71.5t-137.5 -54t-160.5 -34.5t-177.5 -12q-65 0 -131.5 13t-120 44.5t-87.5 83t-34 128.5q0 61 32.5 117.5t80.5 99.5q2 2 7 -1t3 -7q-4 -9 -11 -19.5t-13.5 -24.5t-11.5 -33.5t-5 -47.5q0 -40 22 -68.5t57 -48t79 -30.5t88.5 -17t85.5 -8 t70 -2q40 0 87 5t96 15t98.5 26t93.5 38.5t80.5 51t60.5 64.5q6 0 6 -5q0 -25 6.5 -54t18 -54t27.5 -41t36 -16h74q29 0 43 -27.5t14 -62.5t-14 -62.5t-43 -27.5h-68q-28 0 -52.5 13t-43 33.5t-30.5 46t-17 50.5zM505 415q-40 0 -71.5 19.5t-51.5 54.5l117 -11l51 47v231 q-9 8 -13.5 15t-4.5 18q0 5 5.5 16t12.5 23t14 21t10 9q2 0 2 -4q0 -5 -1.5 -11.5t-1.5 -8.5q0 -16 9.5 -27.5t24.5 -13.5l-20 -59h-10v-190q10 8 29 21.5t40 26.5t40.5 22.5t31.5 9.5q11 0 24 -4t24.5 -11.5t19.5 -18t8 -24.5q0 -42 -30 -71t-74.5 -47t-94.5 -25.5 t-90 -7.5zM681 560q-10 0 -31.5 -8t-43.5 -20t-39 -25.5t-17 -24.5q0 -3 7.5 -3.5t9.5 -0.5q9 0 37.5 3t59.5 9t55 15t24 20t-6.5 18t-16.5 10.5t-20.5 5t-18.5 1.5z" />
<glyph unicode="&#x67a;" horiz-adv-x="338" arabic-form="initial" d="M215 180q5 0 10 5.5t9 13t6 15.5t2 13q0 7 -4.5 23.5t-11 34.5t-13.5 32.5t-12 18.5l57 145q29 -38 42 -87.5t13 -98.5q0 -37 -7.5 -74t-22.5 -71q-9 -21 -27.5 -47t-41.5 -49t-49 -38.5t-50 -15.5h-151q-12 0 -21.5 8t-15.5 21t-9 29.5t-3 34.5q0 35 12 61t37 26h251z M206 604l-104 107l104 104l104 -104zM206 817l-104 104l104 107l104 -107z" />
<glyph unicode="&#x67a;" horiz-adv-x="440" arabic-form="medial" d="M-40 0q-23 0 -35 27.5t-12 62.5t12 62.5t35 27.5h53.5t53 1t48 3.5t37.5 6.5q23 6 36.5 23.5t22.5 39t15 44t13 38.5q1 3 5 4.5t8.5 1.5t7.5 -2.5t2 -7.5q-2 -16 -3 -32t-1 -21q0 -35 22.5 -55t55.5 -29.5t70.5 -12t66.5 -2.5q25 0 37.5 -27.5t12.5 -62.5t-12.5 -62.5 t-37.5 -27.5h-115q-21 0 -43 9t-42.5 25t-38 37t-29.5 46q-9 -18 -25.5 -38.5t-37 -38t-43 -29t-44.5 -11.5h-95zM212 460l-104 107l104 104l104 -104zM212 673l-104 104l104 107l104 -107z" />
<glyph unicode="&#x67a;" horiz-adv-x="1183" arabic-form="final" d="M997 143q-46 -40 -108.5 -71.5t-137.5 -54t-160.5 -34.5t-177.5 -12q-65 0 -131.5 13t-120 44.5t-87.5 83t-34 128.5q0 61 32.5 117.5t80.5 99.5q2 2 7 -1t3 -7q-4 -9 -11 -19.5t-13.5 -24.5t-11.5 -33.5t-5 -47.5q0 -40 22 -68.5t57 -48t79 -30.5t88.5 -17t85.5 -8 t70 -2q40 0 87 5t96 15t98.5 26t93.5 38.5t80.5 51t60.5 64.5q6 0 6 -5q0 -25 6.5 -54t18 -54t27.5 -41t36 -16h74q29 0 43 -27.5t14 -62.5t-14 -62.5t-43 -27.5h-68q-28 0 -52.5 13t-43 33.5t-30.5 46t-17 50.5zM587 417l-104 107l104 104l104 -104zM587 630l-104 104 l104 107l104 -107z" />
<glyph unicode="&#x67b;" horiz-adv-x="338" arabic-form="initial" d="M215 180q5 0 10 5.5t9 13t6 15.5t2 13q0 7 -4.5 23.5t-11 34.5t-13.5 32.5t-12 18.5l57 145q29 -38 42 -87.5t13 -98.5q0 -37 -7.5 -74t-22.5 -71q-9 -21 -27.5 -47t-41.5 -49t-49 -38.5t-50 -15.5h-151q-12 0 -21.5 8t-15.5 21t-9 29.5t-3 34.5q0 35 12 61t37 26h251z M199 -547l-104 107l104 104l104 -104zM199 -334l-104 104l104 107l104 -107z" />
<glyph unicode="&#x67b;" horiz-adv-x="440" arabic-form="medial" d="M-40 0q-23 0 -35 27.5t-12 62.5t12 62.5t35 27.5h53.5t53 1t48 3.5t37.5 6.5q23 6 36.5 23.5t22.5 39t15 44t13 38.5q1 3 5 4.5t8.5 1.5t7.5 -2.5t2 -7.5q-2 -16 -3 -32t-1 -21q0 -35 22.5 -55t55.5 -29.5t70.5 -12t66.5 -2.5q25 0 37.5 -27.5t12.5 -62.5t-12.5 -62.5 t-37.5 -27.5h-115q-21 0 -43 9t-42.5 25t-38 37t-29.5 46q-9 -18 -25.5 -38.5t-37 -38t-43 -29t-44.5 -11.5h-95zM203 -547l-104 107l104 104l104 -104zM203 -334l-104 104l104 107l104 -107z" />
<glyph unicode="&#x67b;" horiz-adv-x="1183" arabic-form="final" d="M997 143q-46 -40 -108.5 -71.5t-137.5 -54t-160.5 -34.5t-177.5 -12q-65 0 -131.5 13t-120 44.5t-87.5 83t-34 128.5q0 61 32.5 117.5t80.5 99.5q2 2 7 -1t3 -7q-4 -9 -11 -19.5t-13.5 -24.5t-11.5 -33.5t-5 -47.5q0 -40 22 -68.5t57 -48t79 -30.5t88.5 -17t85.5 -8 t70 -2q40 0 87 5t96 15t98.5 26t93.5 38.5t80.5 51t60.5 64.5q6 0 6 -5q0 -25 6.5 -54t18 -54t27.5 -41t36 -16h74q29 0 43 -27.5t14 -62.5t-14 -62.5t-43 -27.5h-68q-28 0 -52.5 13t-43 33.5t-30.5 46t-17 50.5zM506 -584l-104 107l104 104l104 -104zM506 -371l-104 104 l104 107l104 -107z" />
<glyph unicode="&#x67c;" horiz-adv-x="338" d="M215 180q5 0 10 5.5t9 13t6 15.5t2 13q0 7 -4.5 23.5t-11 34.5t-13.5 32.5t-12 18.5l57 145q29 -38 42 -87.5t13 -98.5q0 -37 -7.5 -74t-22.5 -71q-9 -21 -27.5 -47t-41.5 -49t-49 -38.5t-50 -15.5h-151q-12 0 -21.5 8t-15.5 21t-9 29.5t-3 34.5q0 35 12 61t37 26h251z M311 606l-104 104l104 104l107 -104zM101 606l-107 104l107 104l104 -104zM309 -69q0 -66 -37 -106t-104 -40q-33 0 -54 9t-33 25.5t-16.5 40.5t-4.5 54q0 27 8 57t23.5 54.5t39.5 40.5t56 16q31 0 54 -13.5t38 -35.5t22.5 -49t7.5 -53zM177 -121q34 0 50 9.5t16 45.5 q0 29 -17 51t-49 22q-14 0 -25.5 -8t-19.5 -20t-13 -26.5t-5 -26.5q0 -16 5 -25.5t13.5 -14t20 -6t24.5 -1.5z" />
<glyph unicode="&#x67c;" horiz-adv-x="440" d="M-40 0q-23 0 -35 27.5t-12 62.5t12 62.5t35 27.5h53.5t53 1t48 3.5t37.5 6.5q23 6 36.5 23.5t22.5 39t15 44t13 38.5q1 3 5 4.5t8.5 1.5t7.5 -2.5t2 -7.5q-2 -16 -3 -32t-1 -21q0 -35 22.5 -55t55.5 -29.5t70.5 -12t66.5 -2.5q25 0 37.5 -27.5t12.5 -62.5t-12.5 -62.5 t-37.5 -27.5h-115q-21 0 -43 9t-42.5 25t-38 37t-29.5 46q-9 -18 -25.5 -38.5t-37 -38t-43 -29t-44.5 -11.5h-95zM317 462l-104 104l104 104l107 -104zM107 462l-107 104l107 104l104 -104zM327 -33q0 -66 -37 -106t-104 -40q-33 0 -54 9t-33 25.5t-16.5 40.5t-4.5 54 q0 27 8 57t23.5 54.5t39.5 40.5t56 16q31 0 54 -13.5t38 -35.5t22.5 -49t7.5 -53zM195 -85q34 0 50 9.5t16 45.5q0 29 -17 51t-49 22q-14 0 -25.5 -8t-19.5 -20t-13 -26.5t-5 -26.5q0 -16 5 -25.5t13.5 -14t20 -6t24.5 -1.5z" />
<glyph unicode="&#x67c;" horiz-adv-x="1183" d="M997 143q-46 -40 -108.5 -71.5t-137.5 -54t-160.5 -34.5t-177.5 -12q-65 0 -131.5 13t-120 44.5t-87.5 83t-34 128.5q0 61 32.5 117.5t80.5 99.5q2 2 7 -1t3 -7q-4 -9 -11 -19.5t-13.5 -24.5t-11.5 -33.5t-5 -47.5q0 -40 22 -68.5t57 -48t79 -30.5t88.5 -17t85.5 -8 t70 -2q40 0 87 5t96 15t98.5 26t93.5 38.5t80.5 51t60.5 64.5q6 0 6 -5q0 -25 6.5 -54t18 -54t27.5 -41t36 -16h74q29 0 43 -27.5t14 -62.5t-14 -62.5t-43 -27.5h-68q-28 0 -52.5 13t-43 33.5t-30.5 46t-17 50.5zM692 419l-104 104l104 104l107 -104zM482 419l-107 104 l107 104l104 -104zM670 -116q0 -66 -37 -106t-104 -40q-33 0 -54 9t-33 25.5t-16.5 40.5t-4.5 54q0 27 8 57t23.5 54.5t39.5 40.5t56 16q31 0 54 -13.5t38 -35.5t22.5 -49t7.5 -53zM538 -168q34 0 50 9.5t16 45.5q0 29 -17 51t-49 22q-14 0 -25.5 -8t-19.5 -20t-13 -26.5 t-5 -26.5q0 -16 5 -25.5t13.5 -14t20 -6t24.5 -1.5z" />
<glyph unicode="&#x67d;" horiz-adv-x="338" d="M215 180q5 0 10 5.5t9 13t6 15.5t2 13q0 7 -4.5 23.5t-11 34.5t-13.5 32.5t-12 18.5l57 145q29 -38 42 -87.5t13 -98.5q0 -37 -7.5 -74t-22.5 -71q-9 -21 -27.5 -47t-41.5 -49t-49 -38.5t-50 -15.5h-151q-12 0 -21.5 8t-15.5 21t-9 29.5t-3 34.5q0 35 12 61t37 26h251z M311 816l-104 104l104 107l107 -107zM101 816l-107 104l107 107l104 -107zM206 605l-104 107l104 104l104 -104z" />
<glyph unicode="&#x67d;" horiz-adv-x="440" d="M-40 0q-23 0 -35 27.5t-12 62.5t12 62.5t35 27.5h53.5t53 1t48 3.5t37.5 6.5q23 6 36.5 23.5t22.5 39t15 44t13 38.5q1 3 5 4.5t8.5 1.5t7.5 -2.5t2 -7.5q-2 -16 -3 -32t-1 -21q0 -35 22.5 -55t55.5 -29.5t70.5 -12t66.5 -2.5q25 0 37.5 -27.5t12.5 -62.5t-12.5 -62.5 t-37.5 -27.5h-115q-21 0 -43 9t-42.5 25t-38 37t-29.5 46q-9 -18 -25.5 -38.5t-37 -38t-43 -29t-44.5 -11.5h-95zM317 672l-104 104l104 107l107 -107zM107 672l-107 104l107 107l104 -107zM212 461l-104 107l104 104l104 -104z" />
<glyph unicode="&#x67d;" horiz-adv-x="1183" d="M997 143q-46 -40 -108.5 -71.5t-137.5 -54t-160.5 -34.5t-177.5 -12q-65 0 -131.5 13t-120 44.5t-87.5 83t-34 128.5q0 61 32.5 117.5t80.5 99.5q2 2 7 -1t3 -7q-4 -9 -11 -19.5t-13.5 -24.5t-11.5 -33.5t-5 -47.5q0 -40 22 -68.5t57 -48t79 -30.5t88.5 -17t85.5 -8 t70 -2q40 0 87 5t96 15t98.5 26t93.5 38.5t80.5 51t60.5 64.5q6 0 6 -5q0 -25 6.5 -54t18 -54t27.5 -41t36 -16h74q29 0 43 -27.5t14 -62.5t-14 -62.5t-43 -27.5h-68q-28 0 -52.5 13t-43 33.5t-30.5 46t-17 50.5zM692 629l-104 104l104 107l107 -107zM482 629l-107 104 l107 107l104 -107zM587 418l-104 107l104 104l104 -104z" />
<glyph unicode="&#x67e;" horiz-adv-x="338" arabic-form="initial" d="M215 180q5 0 10 5.5t9 13t6 15.5t2 13q0 7 -4.5 23.5t-11 34.5t-13.5 32.5t-12 18.5l57 145q29 -38 42 -87.5t13 -98.5q0 -37 -7.5 -74t-22.5 -71q-9 -21 -27.5 -47t-41.5 -49t-49 -38.5t-50 -15.5h-151q-12 0 -21.5 8t-15.5 21t-9 29.5t-3 34.5q0 35 12 61t37 26h251z M304 -335l-104 104l104 107l107 -107zM94 -335l-107 104l107 107l104 -107zM199 -546l-104 107l104 104l104 -104z" />
<glyph unicode="&#x67e;" horiz-adv-x="440" arabic-form="medial" d="M-40 0q-23 0 -35 27.5t-12 62.5t12 62.5t35 27.5h53.5t53 1t48 3.5t37.5 6.5q23 6 36.5 23.5t22.5 39t15 44t13 38.5q1 3 5 4.5t8.5 1.5t7.5 -2.5t2 -7.5q-2 -16 -3 -32t-1 -21q0 -35 22.5 -55t55.5 -29.5t70.5 -12t66.5 -2.5q25 0 37.5 -27.5t12.5 -62.5t-12.5 -62.5 t-37.5 -27.5h-115q-21 0 -43 9t-42.5 25t-38 37t-29.5 46q-9 -18 -25.5 -38.5t-37 -38t-43 -29t-44.5 -11.5h-95zM308 -335l-104 104l104 107l107 -107zM98 -335l-107 104l107 107l104 -107zM203 -546l-104 107l104 104l104 -104z" />
<glyph unicode="&#x67e;" horiz-adv-x="1183" arabic-form="final" d="M997 143q-46 -40 -108.5 -71.5t-137.5 -54t-160.5 -34.5t-177.5 -12q-65 0 -131.5 13t-120 44.5t-87.5 83t-34 128.5q0 61 32.5 117.5t80.5 99.5q2 2 7 -1t3 -7q-4 -9 -11 -19.5t-13.5 -24.5t-11.5 -33.5t-5 -47.5q0 -40 22 -68.5t57 -48t79 -30.5t88.5 -17t85.5 -8 t70 -2q40 0 87 5t96 15t98.5 26t93.5 38.5t80.5 51t60.5 64.5q6 0 6 -5q0 -25 6.5 -54t18 -54t27.5 -41t36 -16h74q29 0 43 -27.5t14 -62.5t-14 -62.5t-43 -27.5h-68q-28 0 -52.5 13t-43 33.5t-30.5 46t-17 50.5zM611 -372l-104 104l104 107l107 -107zM401 -372l-107 104 l107 107l104 -107zM506 -583l-104 107l104 104l104 -104z" />
<glyph unicode="&#x67f;" horiz-adv-x="338" arabic-form="initial" d="M215 180q5 0 10 5.5t9 13t6 15.5t2 13q0 7 -4.5 23.5t-11 34.5t-13.5 32.5t-12 18.5l57 145q29 -38 42 -87.5t13 -98.5q0 -37 -7.5 -74t-22.5 -71q-9 -21 -27.5 -47t-41.5 -49t-49 -38.5t-50 -15.5h-151q-12 0 -21.5 8t-15.5 21t-9 29.5t-3 34.5q0 35 12 61t37 26h251z M311 604l-104 107l104 104l107 -104zM101 604l-107 107l107 104l104 -104zM311 817l-104 104l104 107l107 -107zM101 817l-107 104l107 107l104 -107z" />
<glyph unicode="&#x67f;" horiz-adv-x="440" arabic-form="medial" d="M-40 0q-23 0 -35 27.5t-12 62.5t12 62.5t35 27.5h53.5t53 1t48 3.5t37.5 6.5q23 6 36.5 23.5t22.5 39t15 44t13 38.5q1 3 5 4.5t8.5 1.5t7.5 -2.5t2 -7.5q-2 -16 -3 -32t-1 -21q0 -35 22.5 -55t55.5 -29.5t70.5 -12t66.5 -2.5q25 0 37.5 -27.5t12.5 -62.5t-12.5 -62.5 t-37.5 -27.5h-115q-21 0 -43 9t-42.5 25t-38 37t-29.5 46q-9 -18 -25.5 -38.5t-37 -38t-43 -29t-44.5 -11.5h-95zM317 460l-104 107l104 104l107 -104zM107 460l-107 107l107 104l104 -104zM317 673l-104 104l104 107l107 -107zM107 673l-107 104l107 107l104 -107z" />
<glyph unicode="&#x67f;" horiz-adv-x="1183" arabic-form="final" d="M997 143q-46 -40 -108.5 -71.5t-137.5 -54t-160.5 -34.5t-177.5 -12q-65 0 -131.5 13t-120 44.5t-87.5 83t-34 128.5q0 61 32.5 117.5t80.5 99.5q2 2 7 -1t3 -7q-4 -9 -11 -19.5t-13.5 -24.5t-11.5 -33.5t-5 -47.5q0 -40 22 -68.5t57 -48t79 -30.5t88.5 -17t85.5 -8 t70 -2q40 0 87 5t96 15t98.5 26t93.5 38.5t80.5 51t60.5 64.5q6 0 6 -5q0 -25 6.5 -54t18 -54t27.5 -41t36 -16h74q29 0 43 -27.5t14 -62.5t-14 -62.5t-43 -27.5h-68q-28 0 -52.5 13t-43 33.5t-30.5 46t-17 50.5zM692 417l-104 107l104 104l107 -104zM482 417l-107 107 l107 104l104 -104zM692 630l-104 104l104 107l107 -107zM482 630l-107 104l107 107l104 -107z" />
<glyph unicode="&#x680;" horiz-adv-x="338" arabic-form="initial" d="M215 180q5 0 10 5.5t9 13t6 15.5t2 13q0 7 -4.5 23.5t-11 34.5t-13.5 32.5t-12 18.5l57 145q29 -38 42 -87.5t13 -98.5q0 -37 -7.5 -74t-22.5 -71q-9 -21 -27.5 -47t-41.5 -49t-49 -38.5t-50 -15.5h-151q-12 0 -21.5 8t-15.5 21t-9 29.5t-3 34.5q0 35 12 61t37 26h251z M304 -547l-104 107l104 104l107 -104zM94 -547l-107 107l107 104l104 -104zM304 -334l-104 104l104 107l107 -107zM94 -334l-107 104l107 107l104 -107z" />
<glyph unicode="&#x680;" horiz-adv-x="440" arabic-form="medial" d="M-40 0q-23 0 -35 27.5t-12 62.5t12 62.5t35 27.5h53.5t53 1t48 3.5t37.5 6.5q23 6 36.5 23.5t22.5 39t15 44t13 38.5q1 3 5 4.5t8.5 1.5t7.5 -2.5t2 -7.5q-2 -16 -3 -32t-1 -21q0 -35 22.5 -55t55.5 -29.5t70.5 -12t66.5 -2.5q25 0 37.5 -27.5t12.5 -62.5t-12.5 -62.5 t-37.5 -27.5h-115q-21 0 -43 9t-42.5 25t-38 37t-29.5 46q-9 -18 -25.5 -38.5t-37 -38t-43 -29t-44.5 -11.5h-95zM308 -547l-104 107l104 104l107 -104zM98 -547l-107 107l107 104l104 -104zM308 -334l-104 104l104 107l107 -107zM98 -334l-107 104l107 107l104 -107z" />
<glyph unicode="&#x680;" horiz-adv-x="1183" arabic-form="final" d="M997 143q-46 -40 -108.5 -71.5t-137.5 -54t-160.5 -34.5t-177.5 -12q-65 0 -131.5 13t-120 44.5t-87.5 83t-34 128.5q0 61 32.5 117.5t80.5 99.5q2 2 7 -1t3 -7q-4 -9 -11 -19.5t-13.5 -24.5t-11.5 -33.5t-5 -47.5q0 -40 22 -68.5t57 -48t79 -30.5t88.5 -17t85.5 -8 t70 -2q40 0 87 5t96 15t98.5 26t93.5 38.5t80.5 51t60.5 64.5q6 0 6 -5q0 -25 6.5 -54t18 -54t27.5 -41t36 -16h74q29 0 43 -27.5t14 -62.5t-14 -62.5t-43 -27.5h-68q-28 0 -52.5 13t-43 33.5t-30.5 46t-17 50.5zM611 -584l-104 107l104 104l107 -104zM401 -584l-107 107 l107 104l104 -104zM611 -371l-104 104l104 107l107 -107zM401 -371l-107 104l107 107l104 -107z" />
<glyph unicode="&#x681;" horiz-adv-x="715" d="M-44 0q-22 0 -32.5 27.5t-10.5 62.5t10.5 62.5t32.5 27.5q34 0 62.5 -0.5t53.5 -0.5q38 0 80 4.5t84.5 15t84.5 27.5t79 43q-37 12 -70.5 28.5t-63.5 31.5t-56 25.5t-50 10.5q-25 0 -46 -8t-36.5 -17t-26.5 -17t-16 -8q-6 0 -7 3t-1 8q0 34 14.5 70t39 66t57 49t67.5 19 q30 0 67 -18.5t76.5 -42.5t79 -46.5t74.5 -31.5q52 -14 104.5 -20t106.5 -6l-51 -175q-25 0 -59 0.5t-76 -5t-89.5 -20t-99.5 -44.5q-34 -19 -72 -40.5t-75 -39.5t-71 -29.5t-61 -11.5h-103zM366 884q-15 0 -29 8.5t-32 8.5q-10 0 -23.5 -6t-25.5 -15t-20.5 -20.5 t-8.5 -22.5q0 -12 11 -21t26.5 -14t31.5 -7.5t25 -2.5h164l-49 -82h-37q-35 1 -71.5 -6.5t-71 -22t-66 -35t-57.5 -44.5l-19 26q4 7 15.5 20t23.5 27t21.5 26.5t9.5 18.5q0 9 -7 20.5t-15.5 24.5t-15.5 27t-7 29q0 11 12.5 28t31.5 36.5t43 39t46.5 35t42 25.5t29.5 10 q11 0 22.5 -5.5t21.5 -14t16.5 -19t6.5 -21.5q0 -8 -4 -17t-10 -16.5t-14 -12.5t-17 -5z" />
<glyph unicode="&#x681;" horiz-adv-x="952" d="M-40 0q-23 0 -34.5 27.5t-11.5 62.5t11.5 62.5t34.5 27.5q60 0 114.5 2.5t107 15t105.5 38t110 71.5q-15 12 -40 23t-52.5 19.5t-54 14t-45.5 5.5q-25 0 -51 -11.5t-48 -23.5q-6 -5 -12 -11t-14 -6q-5 0 -5.5 4t-0.5 9q0 35 14 71t38 64.5t56.5 46.5t69.5 18 q44 0 87.5 -17t89.5 -38t95.5 -38t104.5 -17q45 0 87 6t87 14l-29 -153l-102 -29q3 -43 34.5 -60.5t71.5 -17.5h205q27 0 40 -27.5t13 -62.5t-13 -62.5t-40 -27.5h-166q-54 0 -89.5 21.5t-57.5 56t-32 79.5t-13 91q-84 -18 -157.5 -56t-141.5 -78t-135 -73t-138 -41h-93z M472 877q-15 0 -29 8.5t-32 8.5q-10 0 -23.5 -6t-25.5 -15t-20.5 -20.5t-8.5 -22.5q0 -12 11 -21t26.5 -14t31.5 -7.5t25 -2.5h164l-49 -82h-37q-35 1 -71.5 -6.5t-71 -22t-66 -35t-57.5 -44.5l-19 26q4 7 15.5 20t23.5 27t21.5 26.5t9.5 18.5q0 9 -7 20.5t-15.5 24.5 t-15.5 27t-7 29q0 11 12.5 28t31.5 36.5t43 39t46.5 35t42 25.5t29.5 10q11 0 22.5 -5.5t21.5 -14t16.5 -19t6.5 -21.5q0 -8 -4 -17t-10 -16.5t-14 -12.5t-17 -5z" />
<glyph unicode="&#x681;" horiz-adv-x="889" d="M700 0q-49 0 -86 19t-61.5 51t-36.5 73t-12 84q0 19 0.5 37t3.5 37q-92 -27 -166.5 -76.5t-127.5 -116t-81.5 -148t-28.5 -173.5q0 -93 35.5 -156t94.5 -102t134.5 -55.5t155.5 -16.5q110 0 218.5 5t218.5 10v-27q-63 -33 -126 -61.5t-124.5 -49.5t-122 -33t-119.5 -12 q-121 0 -206 27t-137.5 83.5t-76.5 142.5t-24 204q0 82 17.5 164.5t54.5 157.5t94.5 140.5t137.5 114.5q-11 6 -26 11t-31 9t-31 6.5t-26 2.5q-28 0 -53 -9t-46 -24.5t-39.5 -36t-33.5 -42.5q-2 57 14 107t48 86.5t79 57.5t107 21q29 0 56.5 -3.5t55 -8t55.5 -8t56 -3.5 q54 0 108 5t105 16l-68 -182l-108 -17v-26q0 -38 8.5 -59t24.5 -31.5t40.5 -12.5t55.5 -2h229q32 0 47 -27.5t15 -62.5t-15 -62.5t-47 -27.5h-209zM497 865q-15 0 -29 8.5t-32 8.5q-10 0 -23.5 -6t-25.5 -15t-20.5 -20.5t-8.5 -22.5q0 -12 11 -21t26.5 -14t31.5 -7.5 t25 -2.5h164l-49 -82h-37q-35 1 -71.5 -6.5t-71 -22t-66 -35t-57.5 -44.5l-19 26q4 7 15.5 20t23.5 27t21.5 26.5t9.5 18.5q0 9 -7 20.5t-15.5 24.5t-15.5 27t-7 29q0 11 12.5 28t31.5 36.5t43 39t46.5 35t42 25.5t29.5 10q11 0 22.5 -5.5t21.5 -14t16.5 -19t6.5 -21.5 q0 -8 -4 -17t-10 -16.5t-14 -12.5t-17 -5z" />
<glyph unicode="&#x682;" horiz-adv-x="715" d="M-44 0q-22 0 -32.5 27.5t-10.5 62.5t10.5 62.5t32.5 27.5q34 0 62.5 -0.5t53.5 -0.5q38 0 80 4.5t84.5 15t84.5 27.5t79 43q-37 12 -70.5 28.5t-63.5 31.5t-56 25.5t-50 10.5q-25 0 -46 -8t-36.5 -17t-26.5 -17t-16 -8q-6 0 -7 3t-1 8q0 34 14.5 70t39 66t57 49t67.5 19 q30 0 67 -18.5t76.5 -42.5t79 -46.5t74.5 -31.5q52 -14 104.5 -20t106.5 -6l-51 -175q-25 0 -59 0.5t-76 -5t-89.5 -20t-99.5 -44.5q-34 -19 -72 -40.5t-75 -39.5t-71 -29.5t-61 -11.5h-103zM305 654l-104 107l104 104l104 -104zM305 867l-104 104l104 107l104 -107z" />
<glyph unicode="&#x682;" horiz-adv-x="952" d="M-40 0q-23 0 -34.5 27.5t-11.5 62.5t11.5 62.5t34.5 27.5q60 0 114.5 2.5t107 15t105.5 38t110 71.5q-15 12 -40 23t-52.5 19.5t-54 14t-45.5 5.5q-25 0 -51 -11.5t-48 -23.5q-6 -5 -12 -11t-14 -6q-5 0 -5.5 4t-0.5 9q0 35 14 71t38 64.5t56.5 46.5t69.5 18 q44 0 87.5 -17t89.5 -38t95.5 -38t104.5 -17q45 0 87 6t87 14l-29 -153l-102 -29q3 -43 34.5 -60.5t71.5 -17.5h205q27 0 40 -27.5t13 -62.5t-13 -62.5t-40 -27.5h-166q-54 0 -89.5 21.5t-57.5 56t-32 79.5t-13 91q-84 -18 -157.5 -56t-141.5 -78t-135 -73t-138 -41h-93z M411 647l-104 107l104 104l104 -104zM411 860l-104 104l104 107l104 -107z" />
<glyph unicode="&#x682;" horiz-adv-x="889" d="M700 0q-49 0 -86 19t-61.5 51t-36.5 73t-12 84q0 19 0.5 37t3.5 37q-92 -27 -166.5 -76.5t-127.5 -116t-81.5 -148t-28.5 -173.5q0 -93 35.5 -156t94.5 -102t134.5 -55.5t155.5 -16.5q110 0 218.5 5t218.5 10v-27q-63 -33 -126 -61.5t-124.5 -49.5t-122 -33t-119.5 -12 q-121 0 -206 27t-137.5 83.5t-76.5 142.5t-24 204q0 82 17.5 164.5t54.5 157.5t94.5 140.5t137.5 114.5q-11 6 -26 11t-31 9t-31 6.5t-26 2.5q-28 0 -53 -9t-46 -24.5t-39.5 -36t-33.5 -42.5q-2 57 14 107t48 86.5t79 57.5t107 21q29 0 56.5 -3.5t55 -8t55.5 -8t56 -3.5 q54 0 108 5t105 16l-68 -182l-108 -17v-26q0 -38 8.5 -59t24.5 -31.5t40.5 -12.5t55.5 -2h229q32 0 47 -27.5t15 -62.5t-15 -62.5t-47 -27.5h-209zM436 635l-104 107l104 104l104 -104zM436 848l-104 104l104 107l104 -107z" />
<glyph unicode="&#x683;" horiz-adv-x="715" arabic-form="initial" d="M-44 0q-22 0 -32.5 27.5t-10.5 62.5t10.5 62.5t32.5 27.5q34 0 62.5 -0.5t53.5 -0.5q38 0 80 4.5t84.5 15t84.5 27.5t79 43q-37 12 -70.5 28.5t-63.5 31.5t-56 25.5t-50 10.5q-25 0 -46 -8t-36.5 -17t-26.5 -17t-16 -8q-6 0 -7 3t-1 8q0 34 14.5 70t39 66t57 49t67.5 19 q30 0 67 -18.5t76.5 -42.5t79 -46.5t74.5 -31.5q52 -14 104.5 -20t106.5 -6l-51 -175q-25 0 -59 0.5t-76 -5t-89.5 -20t-99.5 -44.5q-34 -19 -72 -40.5t-75 -39.5t-71 -29.5t-61 -11.5h-103zM435 -283l-104 104l104 104l107 -104zM225 -283l-107 104l107 104l104 -104z" />
<glyph unicode="&#x683;" horiz-adv-x="952" arabic-form="medial" d="M-40 0q-23 0 -34.5 27.5t-11.5 62.5t11.5 62.5t34.5 27.5q60 0 114.5 2.5t107 15t105.5 38t110 71.5q-15 12 -40 23t-52.5 19.5t-54 14t-45.5 5.5q-25 0 -51 -11.5t-48 -23.5q-6 -5 -12 -11t-14 -6q-5 0 -5.5 4t-0.5 9q0 35 14 71t38 64.5t56.5 46.5t69.5 18 q44 0 87.5 -17t89.5 -38t95.5 -38t104.5 -17q45 0 87 6t87 14l-29 -153l-102 -29q3 -43 34.5 -60.5t71.5 -17.5h205q27 0 40 -27.5t13 -62.5t-13 -62.5t-40 -27.5h-166q-54 0 -89.5 21.5t-57.5 56t-32 79.5t-13 91q-84 -18 -157.5 -56t-141.5 -78t-135 -73t-138 -41h-93z M548 -271l-104 104l104 104l107 -104zM338 -271l-107 104l107 104l104 -104z" />
<glyph unicode="&#x683;" horiz-adv-x="889" arabic-form="final" d="M700 0q-49 0 -86 19t-61.5 51t-36.5 73t-12 84q0 19 0.5 37t3.5 37q-92 -27 -166.5 -76.5t-127.5 -116t-81.5 -148t-28.5 -173.5q0 -93 35.5 -156t94.5 -102t134.5 -55.5t155.5 -16.5q110 0 218.5 5t218.5 10v-27q-63 -33 -126 -61.5t-124.5 -49.5t-122 -33t-119.5 -12 q-121 0 -206 27t-137.5 83.5t-76.5 142.5t-24 204q0 82 17.5 164.5t54.5 157.5t94.5 140.5t137.5 114.5q-11 6 -26 11t-31 9t-31 6.5t-26 2.5q-28 0 -53 -9t-46 -24.5t-39.5 -36t-33.5 -42.5q-2 57 14 107t48 86.5t79 57.5t107 21q29 0 56.5 -3.5t55 -8t55.5 -8t56 -3.5 q54 0 108 5t105 16l-68 -182l-108 -17v-26q0 -38 8.5 -59t24.5 -31.5t40.5 -12.5t55.5 -2h229q32 0 47 -27.5t15 -62.5t-15 -62.5t-47 -27.5h-209zM529 -315l-104 104l104 104l107 -104zM319 -315l-107 104l107 104l104 -104z" />
<glyph unicode="&#x684;" horiz-adv-x="715" arabic-form="initial" d="M-44 0q-22 0 -32.5 27.5t-10.5 62.5t10.5 62.5t32.5 27.5q34 0 62.5 -0.5t53.5 -0.5q38 0 80 4.5t84.5 15t84.5 27.5t79 43q-37 12 -70.5 28.5t-63.5 31.5t-56 25.5t-50 10.5q-25 0 -46 -8t-36.5 -17t-26.5 -17t-16 -8q-6 0 -7 3t-1 8q0 34 14.5 70t39 66t57 49t67.5 19 q30 0 67 -18.5t76.5 -42.5t79 -46.5t74.5 -31.5q52 -14 104.5 -20t106.5 -6l-51 -175q-25 0 -59 0.5t-76 -5t-89.5 -20t-99.5 -44.5q-34 -19 -72 -40.5t-75 -39.5t-71 -29.5t-61 -11.5h-103zM330 -497l-104 107l104 104l104 -104zM330 -284l-104 104l104 107l104 -107z" />
<glyph unicode="&#x684;" horiz-adv-x="952" arabic-form="medial" d="M-40 0q-23 0 -34.5 27.5t-11.5 62.5t11.5 62.5t34.5 27.5q60 0 114.5 2.5t107 15t105.5 38t110 71.5q-15 12 -40 23t-52.5 19.5t-54 14t-45.5 5.5q-25 0 -51 -11.5t-48 -23.5q-6 -5 -12 -11t-14 -6q-5 0 -5.5 4t-0.5 9q0 35 14 71t38 64.5t56.5 46.5t69.5 18 q44 0 87.5 -17t89.5 -38t95.5 -38t104.5 -17q45 0 87 6t87 14l-29 -153l-102 -29q3 -43 34.5 -60.5t71.5 -17.5h205q27 0 40 -27.5t13 -62.5t-13 -62.5t-40 -27.5h-166q-54 0 -89.5 21.5t-57.5 56t-32 79.5t-13 91q-84 -18 -157.5 -56t-141.5 -78t-135 -73t-138 -41h-93z M443 -485l-104 107l104 104l104 -104zM443 -272l-104 104l104 107l104 -107z" />
<glyph unicode="&#x684;" horiz-adv-x="889" arabic-form="final" d="M700 0q-49 0 -86 19t-61.5 51t-36.5 73t-12 84q0 19 0.5 37t3.5 37q-92 -27 -166.5 -76.5t-127.5 -116t-81.5 -148t-28.5 -173.5q0 -93 35.5 -156t94.5 -102t134.5 -55.5t155.5 -16.5q110 0 218.5 5t218.5 10v-27q-63 -33 -126 -61.5t-124.5 -49.5t-122 -33t-119.5 -12 q-121 0 -206 27t-137.5 83.5t-76.5 142.5t-24 204q0 82 17.5 164.5t54.5 157.5t94.5 140.5t137.5 114.5q-11 6 -26 11t-31 9t-31 6.5t-26 2.5q-28 0 -53 -9t-46 -24.5t-39.5 -36t-33.5 -42.5q-2 57 14 107t48 86.5t79 57.5t107 21q29 0 56.5 -3.5t55 -8t55.5 -8t56 -3.5 q54 0 108 5t105 16l-68 -182l-108 -17v-26q0 -38 8.5 -59t24.5 -31.5t40.5 -12.5t55.5 -2h229q32 0 47 -27.5t15 -62.5t-15 -62.5t-47 -27.5h-209zM424 -423l-104 107l104 104l104 -104zM424 -210l-104 104l104 107l104 -107z" />
<glyph unicode="&#x685;" horiz-adv-x="715" d="M-44 0q-22 0 -32.5 27.5t-10.5 62.5t10.5 62.5t32.5 27.5q34 0 62.5 -0.5t53.5 -0.5q38 0 80 4.5t84.5 15t84.5 27.5t79 43q-37 12 -70.5 28.5t-63.5 31.5t-56 25.5t-50 10.5q-25 0 -46 -8t-36.5 -17t-26.5 -17t-16 -8q-6 0 -7 3t-1 8q0 34 14.5 70t39 66t57 49t67.5 19 q30 0 67 -18.5t76.5 -42.5t79 -46.5t74.5 -31.5q52 -14 104.5 -20t106.5 -6l-51 -175q-25 0 -59 0.5t-76 -5t-89.5 -20t-99.5 -44.5q-34 -19 -72 -40.5t-75 -39.5t-71 -29.5t-61 -11.5h-103zM410 655l-104 107l104 104l107 -104zM200 655l-107 107l107 104l104 -104z M305 866l-104 104l104 107l104 -107z" />
<glyph unicode="&#x685;" horiz-adv-x="952" d="M-40 0q-23 0 -34.5 27.5t-11.5 62.5t11.5 62.5t34.5 27.5q60 0 114.5 2.5t107 15t105.5 38t110 71.5q-15 12 -40 23t-52.5 19.5t-54 14t-45.5 5.5q-25 0 -51 -11.5t-48 -23.5q-6 -5 -12 -11t-14 -6q-5 0 -5.5 4t-0.5 9q0 35 14 71t38 64.5t56.5 46.5t69.5 18 q44 0 87.5 -17t89.5 -38t95.5 -38t104.5 -17q45 0 87 6t87 14l-29 -153l-102 -29q3 -43 34.5 -60.5t71.5 -17.5h205q27 0 40 -27.5t13 -62.5t-13 -62.5t-40 -27.5h-166q-54 0 -89.5 21.5t-57.5 56t-32 79.5t-13 91q-84 -18 -157.5 -56t-141.5 -78t-135 -73t-138 -41h-93z M516 648l-104 107l104 104l107 -104zM306 648l-107 107l107 104l104 -104zM411 859l-104 104l104 107l104 -107z" />
<glyph unicode="&#x685;" horiz-adv-x="889" d="M700 0q-49 0 -86 19t-61.5 51t-36.5 73t-12 84q0 19 0.5 37t3.5 37q-92 -27 -166.5 -76.5t-127.5 -116t-81.5 -148t-28.5 -173.5q0 -93 35.5 -156t94.5 -102t134.5 -55.5t155.5 -16.5q110 0 218.5 5t218.5 10v-27q-63 -33 -126 -61.5t-124.5 -49.5t-122 -33t-119.5 -12 q-121 0 -206 27t-137.5 83.5t-76.5 142.5t-24 204q0 82 17.5 164.5t54.5 157.5t94.5 140.5t137.5 114.5q-11 6 -26 11t-31 9t-31 6.5t-26 2.5q-28 0 -53 -9t-46 -24.5t-39.5 -36t-33.5 -42.5q-2 57 14 107t48 86.5t79 57.5t107 21q29 0 56.5 -3.5t55 -8t55.5 -8t56 -3.5 q54 0 108 5t105 16l-68 -182l-108 -17v-26q0 -38 8.5 -59t24.5 -31.5t40.5 -12.5t55.5 -2h229q32 0 47 -27.5t15 -62.5t-15 -62.5t-47 -27.5h-209zM541 636l-104 107l104 104l107 -104zM331 636l-107 107l107 104l104 -104zM436 847l-104 104l104 107l104 -107z" />
<glyph unicode="&#x686;" horiz-adv-x="715" arabic-form="initial" d="M-44 0q-22 0 -32.5 27.5t-10.5 62.5t10.5 62.5t32.5 27.5q34 0 62.5 -0.5t53.5 -0.5q38 0 80 4.5t84.5 15t84.5 27.5t79 43q-37 12 -70.5 28.5t-63.5 31.5t-56 25.5t-50 10.5q-25 0 -46 -8t-36.5 -17t-26.5 -17t-16 -8q-6 0 -7 3t-1 8q0 34 14.5 70t39 66t57 49t67.5 19 q30 0 67 -18.5t76.5 -42.5t79 -46.5t74.5 -31.5q52 -14 104.5 -20t106.5 -6l-51 -175q-25 0 -59 0.5t-76 -5t-89.5 -20t-99.5 -44.5q-34 -19 -72 -40.5t-75 -39.5t-71 -29.5t-61 -11.5h-103zM435 -285l-104 104l104 107l107 -107zM225 -285l-107 104l107 107l104 -107z M330 -496l-104 107l104 104l104 -104z" />
<glyph unicode="&#x686;" horiz-adv-x="952" arabic-form="medial" d="M-40 0q-23 0 -34.5 27.5t-11.5 62.5t11.5 62.5t34.5 27.5q60 0 114.5 2.5t107 15t105.5 38t110 71.5q-15 12 -40 23t-52.5 19.5t-54 14t-45.5 5.5q-25 0 -51 -11.5t-48 -23.5q-6 -5 -12 -11t-14 -6q-5 0 -5.5 4t-0.5 9q0 35 14 71t38 64.5t56.5 46.5t69.5 18 q44 0 87.5 -17t89.5 -38t95.5 -38t104.5 -17q45 0 87 6t87 14l-29 -153l-102 -29q3 -43 34.5 -60.5t71.5 -17.5h205q27 0 40 -27.5t13 -62.5t-13 -62.5t-40 -27.5h-166q-54 0 -89.5 21.5t-57.5 56t-32 79.5t-13 91q-84 -18 -157.5 -56t-141.5 -78t-135 -73t-138 -41h-93z M548 -273l-104 104l104 107l107 -107zM338 -273l-107 104l107 107l104 -107zM443 -484l-104 107l104 104l104 -104z" />
<glyph unicode="&#x686;" horiz-adv-x="889" arabic-form="final" d="M700 0q-49 0 -86 19t-61.5 51t-36.5 73t-12 84q0 19 0.5 37t3.5 37q-92 -27 -166.5 -76.5t-127.5 -116t-81.5 -148t-28.5 -173.5q0 -93 35.5 -156t94.5 -102t134.5 -55.5t155.5 -16.5q110 0 218.5 5t218.5 10v-27q-63 -33 -126 -61.5t-124.5 -49.5t-122 -33t-119.5 -12 q-121 0 -206 27t-137.5 83.5t-76.5 142.5t-24 204q0 82 17.5 164.5t54.5 157.5t94.5 140.5t137.5 114.5q-11 6 -26 11t-31 9t-31 6.5t-26 2.5q-28 0 -53 -9t-46 -24.5t-39.5 -36t-33.5 -42.5q-2 57 14 107t48 86.5t79 57.5t107 21q29 0 56.5 -3.5t55 -8t55.5 -8t56 -3.5 q54 0 108 5t105 16l-68 -182l-108 -17v-26q0 -38 8.5 -59t24.5 -31.5t40.5 -12.5t55.5 -2h229q32 0 47 -27.5t15 -62.5t-15 -62.5t-47 -27.5h-209zM529 -211l-104 104l104 107l107 -107zM319 -211l-107 104l107 107l104 -107zM424 -422l-104 107l104 104l104 -104z" />
<glyph unicode="&#x687;" horiz-adv-x="715" arabic-form="initial" d="M-44 0q-22 0 -32.5 27.5t-10.5 62.5t10.5 62.5t32.5 27.5q34 0 62.5 -0.5t53.5 -0.5q38 0 80 4.5t84.5 15t84.5 27.5t79 43q-37 12 -70.5 28.5t-63.5 31.5t-56 25.5t-50 10.5q-25 0 -46 -8t-36.5 -17t-26.5 -17t-16 -8q-6 0 -7 3t-1 8q0 34 14.5 70t39 66t57 49t67.5 19 q30 0 67 -18.5t76.5 -42.5t79 -46.5t74.5 -31.5q52 -14 104.5 -20t106.5 -6l-51 -175q-25 0 -59 0.5t-76 -5t-89.5 -20t-99.5 -44.5q-34 -19 -72 -40.5t-75 -39.5t-71 -29.5t-61 -11.5h-103zM435 -497l-104 107l104 104l107 -104zM225 -497l-107 107l107 104l104 -104z M435 -284l-104 104l104 107l107 -107zM225 -284l-107 104l107 107l104 -107z" />
<glyph unicode="&#x687;" horiz-adv-x="952" arabic-form="medial" d="M-40 0q-23 0 -34.5 27.5t-11.5 62.5t11.5 62.5t34.5 27.5q60 0 114.5 2.5t107 15t105.5 38t110 71.5q-15 12 -40 23t-52.5 19.5t-54 14t-45.5 5.5q-25 0 -51 -11.5t-48 -23.5q-6 -5 -12 -11t-14 -6q-5 0 -5.5 4t-0.5 9q0 35 14 71t38 64.5t56.5 46.5t69.5 18 q44 0 87.5 -17t89.5 -38t95.5 -38t104.5 -17q45 0 87 6t87 14l-29 -153l-102 -29q3 -43 34.5 -60.5t71.5 -17.5h205q27 0 40 -27.5t13 -62.5t-13 -62.5t-40 -27.5h-166q-54 0 -89.5 21.5t-57.5 56t-32 79.5t-13 91q-84 -18 -157.5 -56t-141.5 -78t-135 -73t-138 -41h-93z M548 -485l-104 107l104 104l107 -104zM338 -485l-107 107l107 104l104 -104zM548 -272l-104 104l104 107l107 -107zM338 -272l-107 104l107 107l104 -107z" />
<glyph unicode="&#x687;" horiz-adv-x="889" arabic-form="final" d="M700 0q-49 0 -86 19t-61.5 51t-36.5 73t-12 84q0 19 0.5 37t3.5 37q-92 -27 -166.5 -76.5t-127.5 -116t-81.5 -148t-28.5 -173.5q0 -93 35.5 -156t94.5 -102t134.5 -55.5t155.5 -16.5q110 0 218.5 5t218.5 10v-27q-63 -33 -126 -61.5t-124.5 -49.5t-122 -33t-119.5 -12 q-121 0 -206 27t-137.5 83.5t-76.5 142.5t-24 204q0 82 17.5 164.5t54.5 157.5t94.5 140.5t137.5 114.5q-11 6 -26 11t-31 9t-31 6.5t-26 2.5q-28 0 -53 -9t-46 -24.5t-39.5 -36t-33.5 -42.5q-2 57 14 107t48 86.5t79 57.5t107 21q29 0 56.5 -3.5t55 -8t55.5 -8t56 -3.5 q54 0 108 5t105 16l-68 -182l-108 -17v-26q0 -38 8.5 -59t24.5 -31.5t40.5 -12.5t55.5 -2h229q32 0 47 -27.5t15 -62.5t-15 -62.5t-47 -27.5h-209zM529 -423l-104 107l104 104l107 -104zM319 -423l-107 107l107 104l104 -104zM529 -210l-104 104l104 107l107 -107zM319 -210 l-107 104l107 107l104 -107z" />
<glyph unicode="&#x688;" horiz-adv-x="739" arabic-form="final" d="M530 201q-9 -46 -35 -85t-62.5 -67t-81 -43.5t-89.5 -15.5q-15 0 -41.5 0.5t-53 6t-46 17t-19.5 33.5v201q19 -35 54 -56.5t75 -21.5q33 0 71 8t76.5 21t73.5 30.5t62 36.5l-86 359l47 145l123 -440q35 -127 81 -144q16 -6 37 -6h52q27 0 40.5 -27.5t13.5 -62.5 t-13.5 -62.5t-40.5 -27.5h-96q-24 0 -46.5 24t-41.5 57t-33 67t-21 53zM392 895q-40 0 -71.5 19.5t-51.5 54.5l117 -11l51 47v231q-9 8 -13.5 15t-4.5 18q0 5 5.5 16t12.5 23t14 21t10 9q2 0 2 -4q0 -5 -1.5 -11.5t-1.5 -8.5q0 -16 9.5 -27.5t24.5 -13.5l-20 -59h-10v-190 q10 8 29 21.5t40 26.5t40.5 22.5t31.5 9.5q11 0 24 -4t24.5 -11.5t19.5 -18t8 -24.5q0 -42 -30 -71t-74.5 -47t-94.5 -25.5t-90 -7.5zM568 1040q-10 0 -31.5 -8t-43.5 -20t-39 -25.5t-17 -24.5q0 -3 7.5 -3.5t9.5 -0.5q9 0 37.5 3t59.5 9t55 15t24 20t-6.5 18t-16.5 10.5 t-20.5 5t-18.5 1.5z" />
<glyph unicode="&#x689;" horiz-adv-x="739" d="M530 201q-9 -46 -35 -85t-62.5 -67t-81 -43.5t-89.5 -15.5q-15 0 -41.5 0.5t-53 6t-46 17t-19.5 33.5v201q19 -35 54 -56.5t75 -21.5q33 0 71 8t76.5 21t73.5 30.5t62 36.5l-86 359l47 145l123 -440q35 -127 81 -144q16 -6 37 -6h52q27 0 40.5 -27.5t13.5 -62.5 t-13.5 -62.5t-40.5 -27.5h-96q-24 0 -46.5 24t-41.5 57t-33 67t-21 53zM434 -94q0 -66 -37 -106t-104 -40q-33 0 -54 9t-33 25.5t-16.5 40.5t-4.5 54q0 27 8 57t23.5 54.5t39.5 40.5t56 16q31 0 54 -13.5t38 -35.5t22.5 -49t7.5 -53zM302 -146q34 0 50 9.5t16 45.5 q0 29 -17 51t-49 22q-14 0 -25.5 -8t-19.5 -20t-13 -26.5t-5 -26.5q0 -16 5 -25.5t13.5 -14t20 -6t24.5 -1.5z" />
<glyph unicode="&#x68a;" horiz-adv-x="739" d="M530 201q-9 -46 -35 -85t-62.5 -67t-81 -43.5t-89.5 -15.5q-15 0 -41.5 0.5t-53 6t-46 17t-19.5 33.5v201q19 -35 54 -56.5t75 -21.5q33 0 71 8t76.5 21t73.5 30.5t62 36.5l-86 359l47 145l123 -440q35 -127 81 -144q16 -6 37 -6h52q27 0 40.5 -27.5t13.5 -62.5 t-13.5 -62.5t-40.5 -27.5h-96q-24 0 -46.5 24t-41.5 57t-33 67t-21 53zM349 -345l-104 104l104 104l104 -104z" />
<glyph unicode="&#x68b;" horiz-adv-x="739" d="M530 201q-9 -46 -35 -85t-62.5 -67t-81 -43.5t-89.5 -15.5q-15 0 -41.5 0.5t-53 6t-46 17t-19.5 33.5v201q19 -35 54 -56.5t75 -21.5q33 0 71 8t76.5 21t73.5 30.5t62 36.5l-86 359l47 145l123 -440q35 -127 81 -144q16 -6 37 -6h52q27 0 40.5 -27.5t13.5 -62.5 t-13.5 -62.5t-40.5 -27.5h-96q-24 0 -46.5 24t-41.5 57t-33 67t-21 53zM392 895q-40 0 -71.5 19.5t-51.5 54.5l117 -11l51 47v231q-9 8 -13.5 15t-4.5 18q0 5 5.5 16t12.5 23t14 21t10 9q2 0 2 -4q0 -5 -1.5 -11.5t-1.5 -8.5q0 -16 9.5 -27.5t24.5 -13.5l-20 -59h-10v-190 q10 8 29 21.5t40 26.5t40.5 22.5t31.5 9.5q11 0 24 -4t24.5 -11.5t19.5 -18t8 -24.5q0 -42 -30 -71t-74.5 -47t-94.5 -25.5t-90 -7.5zM568 1040q-10 0 -31.5 -8t-43.5 -20t-39 -25.5t-17 -24.5q0 -3 7.5 -3.5t9.5 -0.5q9 0 37.5 3t59.5 9t55 15t24 20t-6.5 18t-16.5 10.5 t-20.5 5t-18.5 1.5zM349 -345l-104 104l104 104l104 -104z" />
<glyph unicode="&#x68c;" horiz-adv-x="739" arabic-form="final" d="M530 201q-9 -46 -35 -85t-62.5 -67t-81 -43.5t-89.5 -15.5q-15 0 -41.5 0.5t-53 6t-46 17t-19.5 33.5v201q19 -35 54 -56.5t75 -21.5q33 0 71 8t76.5 21t73.5 30.5t62 36.5l-86 359l47 145l123 -440q35 -127 81 -144q16 -6 37 -6h52q27 0 40.5 -27.5t13.5 -62.5 t-13.5 -62.5t-40.5 -27.5h-96q-24 0 -46.5 24t-41.5 57t-33 67t-21 53zM579 899l-104 104l104 104l107 -104zM369 899l-107 104l107 104l104 -104z" />
<glyph unicode="&#x68d;" horiz-adv-x="739" arabic-form="final" d="M530 201q-9 -46 -35 -85t-62.5 -67t-81 -43.5t-89.5 -15.5q-15 0 -41.5 0.5t-53 6t-46 17t-19.5 33.5v201q19 -35 54 -56.5t75 -21.5q33 0 71 8t76.5 21t73.5 30.5t62 36.5l-86 359l47 145l123 -440q35 -127 81 -144q16 -6 37 -6h52q27 0 40.5 -27.5t13.5 -62.5 t-13.5 -62.5t-40.5 -27.5h-96q-24 0 -46.5 24t-41.5 57t-33 67t-21 53zM454 -345l-104 104l104 104l107 -104zM244 -345l-107 104l107 104l104 -104z" />
<glyph unicode="&#x68e;" horiz-adv-x="739" arabic-form="final" d="M530 201q-9 -46 -35 -85t-62.5 -67t-81 -43.5t-89.5 -15.5q-15 0 -41.5 0.5t-53 6t-46 17t-19.5 33.5v201q19 -35 54 -56.5t75 -21.5q33 0 71 8t76.5 21t73.5 30.5t62 36.5l-86 359l47 145l123 -440q35 -127 81 -144q16 -6 37 -6h52q27 0 40.5 -27.5t13.5 -62.5 t-13.5 -62.5t-40.5 -27.5h-96q-24 0 -46.5 24t-41.5 57t-33 67t-21 53zM579 898l-104 107l104 104l107 -104zM369 898l-107 107l107 104l104 -104zM474 1109l-104 104l104 107l104 -107z" />
<glyph unicode="&#x68f;" horiz-adv-x="739" d="M530 201q-9 -46 -35 -85t-62.5 -67t-81 -43.5t-89.5 -15.5q-15 0 -41.5 0.5t-53 6t-46 17t-19.5 33.5v201q19 -35 54 -56.5t75 -21.5q33 0 71 8t76.5 21t73.5 30.5t62 36.5l-86 359l47 145l123 -440q35 -127 81 -144q16 -6 37 -6h52q27 0 40.5 -27.5t13.5 -62.5 t-13.5 -62.5t-40.5 -27.5h-96q-24 0 -46.5 24t-41.5 57t-33 67t-21 53zM579 1109l-104 104l104 107l107 -107zM369 1109l-107 104l107 107l104 -107zM474 898l-104 107l104 104l104 -104z" />
<glyph unicode="&#x690;" horiz-adv-x="739" d="M530 201q-9 -46 -35 -85t-62.5 -67t-81 -43.5t-89.5 -15.5q-15 0 -41.5 0.5t-53 6t-46 17t-19.5 33.5v201q19 -35 54 -56.5t75 -21.5q33 0 71 8t76.5 21t73.5 30.5t62 36.5l-86 359l47 145l123 -440q35 -127 81 -144q16 -6 37 -6h52q27 0 40.5 -27.5t13.5 -62.5 t-13.5 -62.5t-40.5 -27.5h-96q-24 0 -46.5 24t-41.5 57t-33 67t-21 53zM579 897l-104 107l104 104l107 -104zM369 897l-107 107l107 104l104 -104zM579 1110l-104 104l104 107l107 -107zM369 1110l-107 104l107 107l104 -107z" />
<glyph unicode="&#x691;" horiz-adv-x="610" arabic-form="final" d="M426 246q18 -22 35.5 -35.5t40 -20t53 -8.5t74.5 -2q31 0 46.5 -27.5t15.5 -62.5t-15.5 -62.5t-46.5 -27.5h-94q-7 -30 -21.5 -70t-35.5 -81.5t-47 -82t-56.5 -72.5t-64.5 -51.5t-70 -19.5q-48 0 -95 13t-86 34t-66 46.5t-36 50.5q40 -11 83 -18t85 -7q43 0 97 24.5 t105 61.5t91.5 81.5t56.5 84.5l-84 125zM336 359q-40 0 -71.5 19.5t-51.5 54.5l117 -11l51 47v231q-9 8 -13.5 15t-4.5 18q0 5 5.5 16t12.5 23t14 21t10 9q2 0 2 -4q0 -5 -1.5 -11.5t-1.5 -8.5q0 -16 9.5 -27.5t24.5 -13.5l-20 -59h-10v-190q10 8 29 21.5t40 26.5t40.5 22.5 t31.5 9.5q11 0 24 -4t24.5 -11.5t19.5 -18t8 -24.5q0 -42 -30 -71t-74.5 -47t-94.5 -25.5t-90 -7.5zM512 504q-10 0 -31.5 -8t-43.5 -20t-39 -25.5t-17 -24.5q0 -3 7.5 -3.5t9.5 -0.5q9 0 37.5 3t59.5 9t55 15t24 20t-6.5 18t-16.5 10.5t-20.5 5t-18.5 1.5z" />
<glyph unicode="&#x692;" horiz-adv-x="610" d="M426 246q18 -22 35.5 -35.5t40 -20t53 -8.5t74.5 -2q31 0 46.5 -27.5t15.5 -62.5t-15.5 -62.5t-46.5 -27.5h-94q-7 -30 -21.5 -70t-35.5 -81.5t-47 -82t-56.5 -72.5t-64.5 -51.5t-70 -19.5q-48 0 -95 13t-86 34t-66 46.5t-36 50.5q40 -11 83 -18t85 -7q43 0 97 24.5 t105 61.5t91.5 81.5t56.5 84.5l-84 125zM277 607q19 -6 46 -26.5t47 -48.5q17 -23 30.5 -46t20.5 -49q8 18 14 32t13 26t16 23.5t22 25.5q11 12 24 23.5t25.5 20.5t23 14t16.5 5q0 -7 -1 -14q-1 -6 -2 -12.5t-5 -11.5q-20 -8 -43 -30.5t-39 -48.5q-6 -10 -14 -25t-16 -32.5 t-15 -35t-11 -32.5q-3 -11 -12 -10t-12 9q-16 38 -33.5 68.5t-34.5 54.5q-20 29 -41 42.5t-40 20.5q4 17 8 29q3 11 6.5 19.5t6.5 8.5z" />
<glyph unicode="&#x693;" horiz-adv-x="610" d="M426 246q18 -22 35.5 -35.5t40 -20t53 -8.5t74.5 -2q31 0 46.5 -27.5t15.5 -62.5t-15.5 -62.5t-46.5 -27.5h-94q-7 -30 -21.5 -70t-35.5 -81.5t-47 -82t-56.5 -72.5t-64.5 -51.5t-70 -19.5q-48 0 -95 13t-86 34t-66 46.5t-36 50.5q40 -11 83 -18t85 -7q43 0 97 24.5 t105 61.5t91.5 81.5t56.5 84.5l-84 125zM533 -374q0 -66 -37 -106t-104 -40q-33 0 -54 9t-33 25.5t-16.5 40.5t-4.5 54q0 27 8 57t23.5 54.5t39.5 40.5t56 16q31 0 54 -13.5t38 -35.5t22.5 -49t7.5 -53zM401 -426q34 0 50 9.5t16 45.5q0 29 -17 51t-49 22q-14 0 -25.5 -8 t-19.5 -20t-13 -26.5t-5 -26.5q0 -16 5 -25.5t13.5 -14t20 -6t24.5 -1.5z" />
<glyph unicode="&#x694;" horiz-adv-x="610" d="M426 246q18 -22 35.5 -35.5t40 -20t53 -8.5t74.5 -2q31 0 46.5 -27.5t15.5 -62.5t-15.5 -62.5t-46.5 -27.5h-94q-7 -30 -21.5 -70t-35.5 -81.5t-47 -82t-56.5 -72.5t-64.5 -51.5t-70 -19.5q-48 0 -95 13t-86 34t-66 46.5t-36 50.5q40 -11 83 -18t85 -7q43 0 97 24.5 t105 61.5t91.5 81.5t56.5 84.5l-84 125zM486 -595l-104 104l104 104l104 -104z" />
<glyph unicode="&#x695;" horiz-adv-x="610" d="M426 246q18 -22 35.5 -35.5t40 -20t53 -8.5t74.5 -2q31 0 46.5 -27.5t15.5 -62.5t-15.5 -62.5t-46.5 -27.5h-94q-7 -30 -21.5 -70t-35.5 -81.5t-47 -82t-56.5 -72.5t-64.5 -51.5t-70 -19.5q-48 0 -95 13t-86 34t-66 46.5t-36 50.5q40 -11 83 -18t85 -7q43 0 97 24.5 t105 61.5t91.5 81.5t56.5 84.5l-84 125zM345 -387q19 -6 46 -26.5t47 -48.5q17 -23 30.5 -46t20.5 -49q8 18 14 32t13 26t16 23.5t22 25.5q11 12 24 23.5t25.5 20.5t23 14t16.5 5q0 -7 -1 -14q-1 -6 -2 -12.5t-5 -11.5q-20 -8 -43 -30.5t-39 -48.5q-6 -10 -14 -25t-16 -32.5 t-15 -35t-11 -32.5q-3 -11 -12 -10t-12 9q-16 38 -33.5 68.5t-34.5 54.5q-20 29 -41 42.5t-40 20.5q4 17 8 29q3 11 6.5 19.5t6.5 8.5z" />
<glyph unicode="&#x696;" horiz-adv-x="610" d="M426 246q18 -22 35.5 -35.5t40 -20t53 -8.5t74.5 -2q31 0 46.5 -27.5t15.5 -62.5t-15.5 -62.5t-46.5 -27.5h-94q-7 -30 -21.5 -70t-35.5 -81.5t-47 -82t-56.5 -72.5t-64.5 -51.5t-70 -19.5q-48 0 -95 13t-86 34t-66 46.5t-36 50.5q40 -11 83 -18t85 -7q43 0 97 24.5 t105 61.5t91.5 81.5t56.5 84.5l-84 125zM486 -595l-104 104l104 104l104 -104zM192 -50l-104 104l104 104l104 -104z" />
<glyph unicode="&#x697;" horiz-adv-x="610" d="M426 246q18 -22 35.5 -35.5t40 -20t53 -8.5t74.5 -2q31 0 46.5 -27.5t15.5 -62.5t-15.5 -62.5t-46.5 -27.5h-94q-7 -30 -21.5 -70t-35.5 -81.5t-47 -82t-56.5 -72.5t-64.5 -51.5t-70 -19.5q-48 0 -95 13t-86 34t-66 46.5t-36 50.5q40 -11 83 -18t85 -7q43 0 97 24.5 t105 61.5t91.5 81.5t56.5 84.5l-84 125zM523 363l-104 104l104 104l107 -104zM313 363l-107 104l107 104l104 -104z" />
<glyph unicode="&#x698;" horiz-adv-x="610" arabic-form="final" d="M426 246q18 -22 35.5 -35.5t40 -20t53 -8.5t74.5 -2q31 0 46.5 -27.5t15.5 -62.5t-15.5 -62.5t-46.5 -27.5h-94q-7 -30 -21.5 -70t-35.5 -81.5t-47 -82t-56.5 -72.5t-64.5 -51.5t-70 -19.5q-48 0 -95 13t-86 34t-66 46.5t-36 50.5q40 -11 83 -18t85 -7q43 0 97 24.5 t105 61.5t91.5 81.5t56.5 84.5l-84 125zM523 362l-104 107l104 104l107 -104zM313 362l-107 107l107 104l104 -104zM418 573l-104 104l104 107l104 -107z" />
<glyph unicode="&#x699;" horiz-adv-x="610" d="M426 246q18 -22 35.5 -35.5t40 -20t53 -8.5t74.5 -2q31 0 46.5 -27.5t15.5 -62.5t-15.5 -62.5t-46.5 -27.5h-94q-7 -30 -21.5 -70t-35.5 -81.5t-47 -82t-56.5 -72.5t-64.5 -51.5t-70 -19.5q-48 0 -95 13t-86 34t-66 46.5t-36 50.5q40 -11 83 -18t85 -7q43 0 97 24.5 t105 61.5t91.5 81.5t56.5 84.5l-84 125zM523 361l-104 107l104 104l107 -104zM313 361l-107 107l107 104l104 -104zM523 574l-104 104l104 107l107 -107zM313 574l-107 104l107 107l104 -107z" />
<glyph unicode="&#x69a;" horiz-adv-x="850" d="M-36 0q-25 -1 -37.5 26.5t-12.5 62.5q0 18 3 34t9.5 29t16 20.5t21.5 7.5q52 0 82 1.5t49 6.5t31 13.5t28 23.5q6 6 16 24t19.5 37.5t18.5 34.5t13 15q5 0 11 -3.5t5 -9.5q-14 -84 13 -117.5t102 -33.5q44 0 76.5 14t56 35t39.5 45t27.5 45t20 35t16.5 14q14 0 12 -11 q-4 -22 -10 -51.5t-6 -47.5q0 -12 17.5 -22t40.5 -17t44.5 -10.5t30.5 -3.5q15 0 27 2.5t12 15.5q0 9 -2 21.5t-5.5 25.5t-8.5 24.5t-11 16.5l59 115q7 -6 11 -20t6.5 -30t3 -31t0.5 -24q0 -18 -2.5 -46.5t-8 -61.5t-15.5 -66t-24 -60t-33 -44t-44 -17q-45 0 -82.5 23.5 t-64.5 58.5q-40 -50 -83.5 -76t-93.5 -26q-32 0 -59 8t-49 20t-39.5 26.5t-30.5 27.5q-29 -38 -65.5 -59t-73.5 -21h-77zM486 500l-104 104l104 104l104 -104zM480 -320l-104 104l104 104l104 -104z" />
<glyph unicode="&#x69a;" horiz-adv-x="1032" d="M928 0q-17 0 -33 7.5t-29 18t-22.5 22t-13.5 20.5q-23 -28 -51 -50t-56 -22q-21 0 -40.5 7t-36.5 17t-32 21.5t-27 21.5q-7 -6 -21.5 -18t-34.5 -23t-44.5 -19.5t-52.5 -8.5q-32 0 -62.5 8.5t-56 20.5t-45 26t-30.5 24q-12 -12 -27.5 -25t-33.5 -23.5t-38 -17.5t-41 -7 h-145q-21 0 -31 27.5t-10 62.5t10 62.5t31 27.5h86q16 0 41 1t51 5t48.5 12t33.5 23q4 6 12 19.5t17 29t18 30.5t14 24q2 4 9.5 5t6.5 -7q-3 -26 1 -51t8 -33q9 -19 27.5 -31t40.5 -18.5t45 -8.5t41 -2q45 0 83.5 21t61.5 59q4 6 10 17.5t12.5 25t13.5 28t13 26.5q5 9 13 3 t8 -12q0 -11 -2 -27.5t-5 -34.5t-6.5 -34.5t-7.5 -26.5q2 -10 11 -18.5t22 -15t27.5 -10t27.5 -3.5q37 0 60.5 20t38.5 47.5t23.5 56t15.5 45.5q3 6 8 7.5t9.5 -1t7.5 -6.5t2 -8q-8 -30 -11.5 -57t-3.5 -47q0 -18 13.5 -28.5t36.5 -16t54 -7t66 -1.5q29 0 42.5 -27.5 t13.5 -62.5t-13.5 -62.5t-42.5 -27.5h-129zM598 494l-104 104l104 104l104 -104zM586 -345l-104 104l104 104l104 -104z" />
<glyph unicode="&#x69a;" horiz-adv-x="1463" d="M332 -420q-134 0 -207.5 68t-73.5 205q0 33 6.5 73.5t20 82.5t33.5 82.5t47 73.5q3 4 8.5 0.5t4.5 -5.5q-15 -41 -30.5 -89.5t-15.5 -99.5q0 -60 19 -99.5t52.5 -63.5t80 -34t100.5 -10q40 0 85 6.5t88 21.5t79.5 38.5t60.5 58.5q0 80 -18 145.5t-61 131.5l81 145 q3 -22 20 -46t40.5 -44.5t49.5 -33.5t48 -13q50 0 95.5 14.5t76.5 55.5q6 7 14 21.5t17 31t17 33t12 26.5q4 8 10.5 6t6.5 -10q0 -10 -2 -28.5t-5.5 -38.5t-8 -38.5t-8.5 -27.5q19 -17 43.5 -27t49.5 -10q38 0 62 18.5t39.5 44.5t24.5 53t16 43q5 12 12.5 9.5t6.5 -10.5 q-1 -10 -3 -24t-4 -28.5t-3.5 -27.5t-1.5 -22q0 -20 10 -31.5t31 -17.5t54 -7.5t79 -1.5q27 0 40.5 -27.5t13.5 -62.5t-13.5 -62.5t-40.5 -27.5h-133q-16 0 -33 5.5t-32 14.5t-27.5 19.5t-20.5 19.5q-15 -21 -39.5 -42t-52.5 -21q-21 0 -40.5 7.5t-37.5 18.5t-33.5 23 t-27.5 20q-9 -9 -22 -20.5t-31 -22.5t-41 -18.5t-51 -7.5q-38 0 -62 10t-47 21q2 -15 2 -27v-25q0 -88 -35.5 -161t-95 -125t-137.5 -80.5t-162 -28.5zM1024 487l-104 104l104 104l104 -104zM1061 -352l-104 104l104 104l104 -104z" />
<glyph unicode="&#x69b;" horiz-adv-x="850" d="M-36 0q-25 -1 -37.5 26.5t-12.5 62.5q0 18 3 34t9.5 29t16 20.5t21.5 7.5q52 0 82 1.5t49 6.5t31 13.5t28 23.5q6 6 16 24t19.5 37.5t18.5 34.5t13 15q5 0 11 -3.5t5 -9.5q-14 -84 13 -117.5t102 -33.5q44 0 76.5 14t56 35t39.5 45t27.5 45t20 35t16.5 14q14 0 12 -11 q-4 -22 -10 -51.5t-6 -47.5q0 -12 17.5 -22t40.5 -17t44.5 -10.5t30.5 -3.5q15 0 27 2.5t12 15.5q0 9 -2 21.5t-5.5 25.5t-8.5 24.5t-11 16.5l59 115q7 -6 11 -20t6.5 -30t3 -31t0.5 -24q0 -18 -2.5 -46.5t-8 -61.5t-15.5 -66t-24 -60t-33 -44t-44 -17q-45 0 -82.5 23.5 t-64.5 58.5q-40 -50 -83.5 -76t-93.5 -26q-32 0 -59 8t-49 20t-39.5 26.5t-30.5 27.5q-29 -38 -65.5 -59t-73.5 -21h-77zM585 -322l-104 104l104 107l107 -107zM375 -322l-107 104l107 107l104 -107zM480 -533l-104 107l104 104l104 -104z" />
<glyph unicode="&#x69b;" horiz-adv-x="1032" d="M928 0q-17 0 -33 7.5t-29 18t-22.5 22t-13.5 20.5q-23 -28 -51 -50t-56 -22q-21 0 -40.5 7t-36.5 17t-32 21.5t-27 21.5q-7 -6 -21.5 -18t-34.5 -23t-44.5 -19.5t-52.5 -8.5q-32 0 -62.5 8.5t-56 20.5t-45 26t-30.5 24q-12 -12 -27.5 -25t-33.5 -23.5t-38 -17.5t-41 -7 h-145q-21 0 -31 27.5t-10 62.5t10 62.5t31 27.5h86q16 0 41 1t51 5t48.5 12t33.5 23q4 6 12 19.5t17 29t18 30.5t14 24q2 4 9.5 5t6.5 -7q-3 -26 1 -51t8 -33q9 -19 27.5 -31t40.5 -18.5t45 -8.5t41 -2q45 0 83.5 21t61.5 59q4 6 10 17.5t12.5 25t13.5 28t13 26.5q5 9 13 3 t8 -12q0 -11 -2 -27.5t-5 -34.5t-6.5 -34.5t-7.5 -26.5q2 -10 11 -18.5t22 -15t27.5 -10t27.5 -3.5q37 0 60.5 20t38.5 47.5t23.5 56t15.5 45.5q3 6 8 7.5t9.5 -1t7.5 -6.5t2 -8q-8 -30 -11.5 -57t-3.5 -47q0 -18 13.5 -28.5t36.5 -16t54 -7t66 -1.5q29 0 42.5 -27.5 t13.5 -62.5t-13.5 -62.5t-42.5 -27.5h-129zM691 -347l-104 104l104 107l107 -107zM481 -347l-107 104l107 107l104 -107zM586 -558l-104 107l104 104l104 -104z" />
<glyph unicode="&#x69b;" horiz-adv-x="1463" d="M332 -420q-134 0 -207.5 68t-73.5 205q0 33 6.5 73.5t20 82.5t33.5 82.5t47 73.5q3 4 8.5 0.5t4.5 -5.5q-15 -41 -30.5 -89.5t-15.5 -99.5q0 -60 19 -99.5t52.5 -63.5t80 -34t100.5 -10q40 0 85 6.5t88 21.5t79.5 38.5t60.5 58.5q0 80 -18 145.5t-61 131.5l81 145 q3 -22 20 -46t40.5 -44.5t49.5 -33.5t48 -13q50 0 95.5 14.5t76.5 55.5q6 7 14 21.5t17 31t17 33t12 26.5q4 8 10.5 6t6.5 -10q0 -10 -2 -28.5t-5.5 -38.5t-8 -38.5t-8.5 -27.5q19 -17 43.5 -27t49.5 -10q38 0 62 18.5t39.5 44.5t24.5 53t16 43q5 12 12.5 9.5t6.5 -10.5 q-1 -10 -3 -24t-4 -28.5t-3.5 -27.5t-1.5 -22q0 -20 10 -31.5t31 -17.5t54 -7.5t79 -1.5q27 0 40.5 -27.5t13.5 -62.5t-13.5 -62.5t-40.5 -27.5h-133q-16 0 -33 5.5t-32 14.5t-27.5 19.5t-20.5 19.5q-15 -21 -39.5 -42t-52.5 -21q-21 0 -40.5 7.5t-37.5 18.5t-33.5 23 t-27.5 20q-9 -9 -22 -20.5t-31 -22.5t-41 -18.5t-51 -7.5q-38 0 -62 10t-47 21q2 -15 2 -27v-25q0 -88 -35.5 -161t-95 -125t-137.5 -80.5t-162 -28.5zM1166 -354l-104 104l104 107l107 -107zM956 -354l-107 104l107 107l104 -107zM1061 -565l-104 107l104 104l104 -104z " />
<glyph unicode="&#x69c;" horiz-adv-x="850" d="M-36 0q-25 -1 -37.5 26.5t-12.5 62.5q0 18 3 34t9.5 29t16 20.5t21.5 7.5q52 0 82 1.5t49 6.5t31 13.5t28 23.5q6 6 16 24t19.5 37.5t18.5 34.5t13 15q5 0 11 -3.5t5 -9.5q-14 -84 13 -117.5t102 -33.5q44 0 76.5 14t56 35t39.5 45t27.5 45t20 35t16.5 14q14 0 12 -11 q-4 -22 -10 -51.5t-6 -47.5q0 -12 17.5 -22t40.5 -17t44.5 -10.5t30.5 -3.5q15 0 27 2.5t12 15.5q0 9 -2 21.5t-5.5 25.5t-8.5 24.5t-11 16.5l59 115q7 -6 11 -20t6.5 -30t3 -31t0.5 -24q0 -18 -2.5 -46.5t-8 -61.5t-15.5 -66t-24 -60t-33 -44t-44 -17q-45 0 -82.5 23.5 t-64.5 58.5q-40 -50 -83.5 -76t-93.5 -26q-32 0 -59 8t-49 20t-39.5 26.5t-30.5 27.5q-29 -38 -65.5 -59t-73.5 -21h-77zM591 499l-104 107l104 104l107 -104zM381 499l-107 107l107 104l104 -104zM486 710l-104 104l104 107l104 -107zM585 -322l-104 104l104 107l107 -107z M375 -322l-107 104l107 107l104 -107zM480 -533l-104 107l104 104l104 -104z" />
<glyph unicode="&#x69c;" horiz-adv-x="1032" d="M928 0q-17 0 -33 7.5t-29 18t-22.5 22t-13.5 20.5q-23 -28 -51 -50t-56 -22q-21 0 -40.5 7t-36.5 17t-32 21.5t-27 21.5q-7 -6 -21.5 -18t-34.5 -23t-44.5 -19.5t-52.5 -8.5q-32 0 -62.5 8.5t-56 20.5t-45 26t-30.5 24q-12 -12 -27.5 -25t-33.5 -23.5t-38 -17.5t-41 -7 h-145q-21 0 -31 27.5t-10 62.5t10 62.5t31 27.5h86q16 0 41 1t51 5t48.5 12t33.5 23q4 6 12 19.5t17 29t18 30.5t14 24q2 4 9.5 5t6.5 -7q-3 -26 1 -51t8 -33q9 -19 27.5 -31t40.5 -18.5t45 -8.5t41 -2q45 0 83.5 21t61.5 59q4 6 10 17.5t12.5 25t13.5 28t13 26.5q5 9 13 3 t8 -12q0 -11 -2 -27.5t-5 -34.5t-6.5 -34.5t-7.5 -26.5q2 -10 11 -18.5t22 -15t27.5 -10t27.5 -3.5q37 0 60.5 20t38.5 47.5t23.5 56t15.5 45.5q3 6 8 7.5t9.5 -1t7.5 -6.5t2 -8q-8 -30 -11.5 -57t-3.5 -47q0 -18 13.5 -28.5t36.5 -16t54 -7t66 -1.5q29 0 42.5 -27.5 t13.5 -62.5t-13.5 -62.5t-42.5 -27.5h-129zM703 493l-104 107l104 104l107 -104zM493 493l-107 107l107 104l104 -104zM598 704l-104 104l104 107l104 -107zM691 -347l-104 104l104 107l107 -107zM481 -347l-107 104l107 107l104 -107zM586 -558l-104 107l104 104l104 -104z " />
<glyph unicode="&#x69c;" horiz-adv-x="1463" d="M332 -420q-134 0 -207.5 68t-73.5 205q0 33 6.5 73.5t20 82.5t33.5 82.5t47 73.5q3 4 8.5 0.5t4.5 -5.5q-15 -41 -30.5 -89.5t-15.5 -99.5q0 -60 19 -99.5t52.5 -63.5t80 -34t100.5 -10q40 0 85 6.5t88 21.5t79.5 38.5t60.5 58.5q0 80 -18 145.5t-61 131.5l81 145 q3 -22 20 -46t40.5 -44.5t49.5 -33.5t48 -13q50 0 95.5 14.5t76.5 55.5q6 7 14 21.5t17 31t17 33t12 26.5q4 8 10.5 6t6.5 -10q0 -10 -2 -28.5t-5.5 -38.5t-8 -38.5t-8.5 -27.5q19 -17 43.5 -27t49.5 -10q38 0 62 18.5t39.5 44.5t24.5 53t16 43q5 12 12.5 9.5t6.5 -10.5 q-1 -10 -3 -24t-4 -28.5t-3.5 -27.5t-1.5 -22q0 -20 10 -31.5t31 -17.5t54 -7.5t79 -1.5q27 0 40.5 -27.5t13.5 -62.5t-13.5 -62.5t-40.5 -27.5h-133q-16 0 -33 5.5t-32 14.5t-27.5 19.5t-20.5 19.5q-15 -21 -39.5 -42t-52.5 -21q-21 0 -40.5 7.5t-37.5 18.5t-33.5 23 t-27.5 20q-9 -9 -22 -20.5t-31 -22.5t-41 -18.5t-51 -7.5q-38 0 -62 10t-47 21q2 -15 2 -27v-25q0 -88 -35.5 -161t-95 -125t-137.5 -80.5t-162 -28.5zM1129 486l-104 107l104 104l107 -104zM919 486l-107 107l107 104l104 -104zM1024 697l-104 104l104 107l104 -107z M1166 -354l-104 104l104 107l107 -107zM956 -354l-107 104l107 107l104 -107zM1061 -565l-104 107l104 104l104 -104z" />
<glyph unicode="&#x69d;" horiz-adv-x="1168" d="M47 180q29 0 49 5.5t34 17t25 30.5t23 46q14 -60 66.5 -90t126.5 -35q33 31 80 70.5t102 81t115 81t119 70.5t114 50t100 19q29 0 54.5 -12t44.5 -32.5t30 -47.5t11 -57q0 -38 -17 -74t-39 -65q-51 -69 -126 -117t-161 -78.5t-176 -44.5t-171 -14q-39 0 -80.5 5t-80 18.5 t-71.5 36.5t-55 60q-19 -33 -37.5 -53.5t-36 -31.5t-35.5 -15t-38 -4h-53q-25 0 -37 27.5t-12 62.5t12 62.5t37 27.5h83zM850 365q-47 0 -103 -21.5t-111.5 -53.5t-105.5 -69t-84 -69q3 -3 13.5 -4.5t21.5 -2t21 -0.5h12q53 0 111.5 4t115 12.5t107 20.5t89 27.5t61 34 t22.5 39.5q0 17 -15.5 32t-40 26t-55 17.5t-59.5 6.5zM653 -358l-104 104l104 104l107 -104zM443 -358l-107 104l107 104l104 -104z" />
<glyph unicode="&#x69d;" horiz-adv-x="1223" d="M47 180q29 0 49 5t34 16.5t25 30.5t23 47q6 -30 25 -54t45.5 -40.5t58.5 -25t64 -7.5q33 31 80 71t102 81.5t115 81t119 71t114 50.5t100 19q37 0 63.5 -12.5t43.5 -33.5t25 -47.5t8 -55.5q0 -30 -14 -62.5t-35.5 -63t-46.5 -57t-48 -44.5q35 10 65 16t59 9t59.5 4 t66.5 1q29 0 43 -26t14 -61q0 -18 -3.5 -34.5t-10.5 -29.5t-18 -21t-25 -8h-428q-99 0 -196.5 -4t-196.5 -6q-95 -2 -158.5 23t-103.5 91q-20 -36 -38 -56.5t-36 -31t-35.5 -13.5t-37.5 -3h-53q-12 0 -21.5 8t-15.5 21t-9 29.5t-3 34.5q0 35 12 61t37 26h83zM850 365 q-47 0 -103 -21.5t-111.5 -53.5t-105.5 -69t-84 -69q3 -3 13.5 -4.5t21.5 -2t21 -0.5h12q33 0 77.5 2t93.5 7.5t99.5 15t95.5 24t81.5 35t56.5 47.5q2 3 2 7q0 34 -44.5 58t-125.5 24zM677 -343l-104 104l104 104l107 -104zM467 -343l-107 104l107 104l104 -104z" />
<glyph unicode="&#x69d;" horiz-adv-x="1653" d="M756 -10q0 -31 -9 -65t-20 -62q-48 -134 -148.5 -208.5t-246.5 -74.5q-134 0 -207.5 68t-73.5 205q0 85 26.5 162t76.5 151q2 4 8.5 2t5.5 -5q-17 -45 -30 -93t-13 -99q0 -60 19 -99.5t52.5 -63.5t80 -34t100.5 -10q40 0 85 6.5t88 21.5t79.5 38.5t60.5 58.5 q0 80 -18 145.5t-61 131.5l51 141q2 -7 9.5 -19t16.5 -25t18 -25t13 -21q16 -25 45 -33t55 -8h19t20 2q29 31 70 71.5t89.5 82.5t102 82.5t106.5 72t103.5 51t92.5 19.5q30 0 57.5 -10t48.5 -28t33 -43.5t12 -57.5t-11 -67.5t-30 -69t-43.5 -62.5t-50.5 -47q60 11 124 9.5 t126 -1.5q25 0 37 -27.5t12 -62.5t-12 -62.5t-37 -27.5h-334q-68 0 -137.5 1.5t-132.5 10.5q-47 -4 -89 -9t-81.5 -8.5t-78 -4.5t-79.5 2v-2zM924 178q26 -2 52 -3t52 -1q45 0 94 4t96.5 11t90.5 18t75.5 25.5t52 32t19.5 38.5q0 43 -44 69.5t-142 26.5q-15 0 -45.5 -12.5 t-67 -33t-76 -45.5t-72.5 -49.5t-56.5 -46t-28.5 -34.5zM1204 -333l-104 104l104 104l107 -104zM994 -333l-107 104l107 104l104 -104z" />
<glyph unicode="&#x69e;" horiz-adv-x="1168" d="M47 180q29 0 49 5.5t34 17t25 30.5t23 46q14 -60 66.5 -90t126.5 -35q33 31 80 70.5t102 81t115 81t119 70.5t114 50t100 19q29 0 54.5 -12t44.5 -32.5t30 -47.5t11 -57q0 -38 -17 -74t-39 -65q-51 -69 -126 -117t-161 -78.5t-176 -44.5t-171 -14q-39 0 -80.5 5t-80 18.5 t-71.5 36.5t-55 60q-19 -33 -37.5 -53.5t-36 -31.5t-35.5 -15t-38 -4h-53q-25 0 -37 27.5t-12 62.5t12 62.5t37 27.5h83zM850 365q-47 0 -103 -21.5t-111.5 -53.5t-105.5 -69t-84 -69q3 -3 13.5 -4.5t21.5 -2t21 -0.5h12q53 0 111.5 4t115 12.5t107 20.5t89 27.5t61 34 t22.5 39.5q0 17 -15.5 32t-40 26t-55 17.5t-59.5 6.5zM653 536l-104 107l104 104l107 -104zM443 536l-107 107l107 104l104 -104zM548 747l-104 104l104 107l104 -107z" />
<glyph unicode="&#x69e;" horiz-adv-x="1223" d="M47 180q29 0 49 5t34 16.5t25 30.5t23 47q6 -30 25 -54t45.5 -40.5t58.5 -25t64 -7.5q33 31 80 71t102 81.5t115 81t119 71t114 50.5t100 19q37 0 63.5 -12.5t43.5 -33.5t25 -47.5t8 -55.5q0 -30 -14 -62.5t-35.5 -63t-46.5 -57t-48 -44.5q35 10 65 16t59 9t59.5 4 t66.5 1q29 0 43 -26t14 -61q0 -18 -3.5 -34.5t-10.5 -29.5t-18 -21t-25 -8h-428q-99 0 -196.5 -4t-196.5 -6q-95 -2 -158.5 23t-103.5 91q-20 -36 -38 -56.5t-36 -31t-35.5 -13.5t-37.5 -3h-53q-12 0 -21.5 8t-15.5 21t-9 29.5t-3 34.5q0 35 12 61t37 26h83zM850 365 q-47 0 -103 -21.5t-111.5 -53.5t-105.5 -69t-84 -69q3 -3 13.5 -4.5t21.5 -2t21 -0.5h12q33 0 77.5 2t93.5 7.5t99.5 15t95.5 24t81.5 35t56.5 47.5q2 3 2 7q0 34 -44.5 58t-125.5 24zM678 555l-104 107l104 104l107 -104zM468 555l-107 107l107 104l104 -104zM573 766 l-104 104l104 107l104 -107z" />
<glyph unicode="&#x69e;" horiz-adv-x="1653" d="M756 -10q0 -31 -9 -65t-20 -62q-48 -134 -148.5 -208.5t-246.5 -74.5q-134 0 -207.5 68t-73.5 205q0 85 26.5 162t76.5 151q2 4 8.5 2t5.5 -5q-17 -45 -30 -93t-13 -99q0 -60 19 -99.5t52.5 -63.5t80 -34t100.5 -10q40 0 85 6.5t88 21.5t79.5 38.5t60.5 58.5 q0 80 -18 145.5t-61 131.5l51 141q2 -7 9.5 -19t16.5 -25t18 -25t13 -21q16 -25 45 -33t55 -8h19t20 2q29 31 70 71.5t89.5 82.5t102 82.5t106.5 72t103.5 51t92.5 19.5q30 0 57.5 -10t48.5 -28t33 -43.5t12 -57.5t-11 -67.5t-30 -69t-43.5 -62.5t-50.5 -47q60 11 124 9.5 t126 -1.5q25 0 37 -27.5t12 -62.5t-12 -62.5t-37 -27.5h-334q-68 0 -137.5 1.5t-132.5 10.5q-47 -4 -89 -9t-81.5 -8.5t-78 -4.5t-79.5 2v-2zM924 178q26 -2 52 -3t52 -1q45 0 94 4t96.5 11t90.5 18t75.5 25.5t52 32t19.5 38.5q0 43 -44 69.5t-142 26.5q-15 0 -45.5 -12.5 t-67 -33t-76 -45.5t-72.5 -49.5t-56.5 -46t-28.5 -34.5zM1154 611l-104 107l104 104l107 -104zM944 611l-107 107l107 104l104 -104zM1049 822l-104 104l104 107l104 -107z" />
<glyph unicode="&#x69f;" horiz-adv-x="788" d="M35 180l145 152v579q-7 6 -15 14.5t-15 18t-12 19.5t-5 20q0 12 14 42.5t32.5 63t38 59t30.5 31.5q2 2 4 -1l2 -2q-4 -20 -6 -35.5t-2 -32.5q0 -18 8 -35t20.5 -31.5t29 -24.5t34.5 -13l-59 -160l-23 12v-471q18 15 44 35t56 41.5t62.5 42.5t64 37.5t60.5 26.5t51 10 q80 0 126 -36.5t46 -99.5q0 -57 -26.5 -112.5t-68 -103t-92 -85.5t-98.5 -61q-74 -34 -151 -57t-158 -23h-216q-22 0 -32.5 27.5t-10.5 62.5t10.5 62.5t32.5 27.5h79zM133 180q8 -3 21 -3.5t16 -0.5q20 0 63.5 3.5t97 12t111 21t104.5 30t77 41t30 52.5q0 15 -9.5 29.5 t-27.5 26t-43.5 18.5t-57.5 7q-27 0 -61 -12t-70.5 -32t-73 -45.5t-70 -51.5t-61 -51t-46.5 -45zM647 723l-104 107l104 104l107 -104zM437 723l-107 107l107 104l104 -104zM542 934l-104 104l104 107l104 -107z" />
<glyph unicode="&#x69f;" horiz-adv-x="870" d="M35 180l145 152v579q-17 14 -32 33.5t-15 42.5q0 11 14.5 42.5t34 65t38.5 59.5t28 26q3 0 6 -3t2 -5q-5 -19 -7.5 -33t-2.5 -31q0 -18 8 -35t20.5 -31.5t29 -24.5t34.5 -13l-59 -160l-23 12v-471q18 15 44 35t56 41.5t62.5 42.5t64 37.5t60.5 26.5t51 10q80 0 126 -38.5 t46 -103.5q0 -34 -14.5 -71.5t-36.5 -74t-48.5 -69t-50.5 -55.5q32 6 66 10t66 4h174q18 0 26.5 -27.5t8.5 -62.5t-8.5 -62.5t-26.5 -27.5h-970q-20 0 -30 27.5t-10 62.5t10 62.5t30 27.5h83zM133 182q2 -2 7.5 -3t11.5 -1h11.5h6.5q20 0 63.5 5t97 14t110 22.5t103.5 31 t77.5 39t31.5 46.5q0 15 -13 28t-36 23.5t-53.5 16.5t-65.5 6q-41 0 -91 -24.5t-98.5 -60t-91.5 -75t-71 -68.5zM660 711l-104 107l104 104l107 -104zM450 711l-107 107l107 104l104 -104zM555 922l-104 104l104 107l104 -107z" />
<glyph unicode="&#x69f;" horiz-adv-x="1165" d="M303 156l125 123v632q-15 13 -32 32.5t-17 39.5q0 13 14.5 45.5t34.5 66t40 59.5t32 26q4 0 3 -7q-5 -18 -7 -32.5t-2 -28.5q0 -18 7 -36t19.5 -33t29 -25.5t34.5 -13.5l-58 -160l-24 12v-526q20 15 50.5 36.5t66.5 45t75 47t75.5 42.5t69 30.5t54.5 11.5q40 0 74 -13 t58.5 -35t38 -50t13.5 -58q0 -29 -13.5 -61t-34.5 -62.5t-45.5 -57.5t-45.5 -46q37 10 68.5 14t61.5 5.5t60.5 1t65.5 -0.5q27 0 40 -27.5t13 -62.5t-13 -62.5t-40 -27.5h-809q-62 0 -119 6t-107 25t-92.5 54t-76.5 93zM780 373q-43 0 -87.5 -15.5t-87 -40t-80 -55 t-66.5 -59.5q-1 -1 -6 -9t-10 -17t-8 -16t-2 -7q42 -2 96 0.5t110.5 10.5t111 20t97 27.5t68.5 34.5t26 40q0 26 -18 42.5t-43.5 26.5t-53.5 13.5t-47 3.5zM934 661l-104 107l104 104l107 -104zM724 661l-107 107l107 104l104 -104zM829 872l-104 104l104 107l104 -107z" />
<glyph unicode="&#x6a0;" horiz-adv-x="748" d="M207 180q-16 32 -23.5 68t-7.5 71q0 46 15.5 99.5t44.5 99.5t71 76.5t96 30.5q34 0 68 -13.5t64.5 -35t55 -49.5t38.5 -58l-11 -10q-24 11 -43 19t-38 13t-40.5 7t-50.5 2q-27 0 -61.5 -10.5t-65.5 -26.5t-52 -33.5t-21 -32.5q0 -24 20.5 -54.5t50.5 -57.5t64.5 -45.5 t62.5 -18.5q24 0 61 8t77 19t78 22.5t63 18.5l-52 -145q-33 -13 -79 -29t-99.5 -32t-111.5 -31t-115.5 -26.5t-111.5 -18.5t-99 -7h-95q-23 0 -34.5 27.5t-11.5 62.5t11.5 62.5t34.5 27.5h247zM466 754l-104 107l104 104l107 -104zM256 754l-107 107l107 104l104 -104z M361 965l-104 104l104 107l104 -107z" />
<glyph unicode="&#x6a0;" horiz-adv-x="709" d="M74 180q9 0 29 3t45.5 7.5t53 11.5t50 15.5t37 17.5t14.5 19q0 9 -20.5 22t-47 25.5t-51.5 22.5t-34 14q3 35 24 70.5t52.5 63.5t69 45.5t73.5 17.5q34 0 72 -7t70.5 -24.5t53.5 -46t21 -70.5q0 -26 -3.5 -44t-14.5 -33.5t-30 -31t-51 -38.5q11 -15 32.5 -26t48 -18.5 t54.5 -11.5t50 -4h57q30 0 45 -27.5t15 -62.5t-15 -62.5t-45 -27.5h-84q-30 0 -66.5 12t-73 32t-69 46.5t-53.5 54.5q-31 -33 -69.5 -60t-82 -45.5t-89.5 -29t-91 -10.5h-80q-27 0 -40 27.5t-13 62.5t13 62.5t40 27.5h103zM466 661l-104 107l104 104l107 -104zM256 661 l-107 107l107 104l104 -104zM361 872l-104 104l104 107l104 -107z" />
<glyph unicode="&#x6a0;" horiz-adv-x="743" d="M782 180q23 0 34.5 -27.5t11.5 -62.5t-11.5 -62.5t-34.5 -27.5h-157q-39 0 -79.5 19.5t-77 49.5t-66 66t-44.5 70q-52 -40 -99.5 -90t-83.5 -108t-57.5 -123t-21.5 -134q0 -65 21.5 -113t58.5 -81t85.5 -53.5t102 -32t109.5 -15.5t107 -4q65 0 132 5t132 18q0 -5 -1 -13 t-3 -13q-12 -8 -40 -23t-66 -32.5t-83 -36t-90.5 -33t-89.5 -23t-80 -7.5q-95 0 -165 31.5t-115.5 89t-68 138.5t-22.5 180q0 75 18 146.5t50 138.5t76 127t96 112q-15 11 -27.5 17.5t-24 10.5t-22.5 5t-25 1h-16.5t-19.5 -1q1 47 16.5 87.5t44 70t68.5 46.5t88 17 q32 0 67.5 -3.5t65 -15.5t49 -36t19.5 -66q0 -15 -10 -38t-25.5 -44.5t-33.5 -38.5t-34 -22q56 -40 106 -54.5t106 -14.5q15 0 28 0.5t27.5 1t32.5 1t42 0.5zM448 642l-104 107l104 104l107 -104zM238 642l-107 107l107 104l104 -104zM343 853l-104 104l104 107l104 -107z " />
<glyph unicode="&#x6a1;" horiz-adv-x="487" d="M-36 0q-25 0 -37 27.5t-12 62.5t12 62.5t37 27.5h95t81 1t78 3t86 5q43 3 66.5 19t37.5 30q1 29 -5 55t-17 43q-28 -22 -61.5 -41t-68.5 -19q-28 0 -49 10.5t-35 28.5t-20.5 41.5t-6.5 49.5q0 17 4.5 42t13 53t21.5 56t29 50t35 36t41 14q26 0 49.5 -21.5t42.5 -55 t34 -75.5t25 -82.5t15.5 -75.5t5.5 -56q0 -67 -27.5 -121t-73.5 -92t-105 -58t-122 -20h-169zM266 508q-11 0 -23.5 -8t-22.5 -19.5t-16.5 -25t-6.5 -25.5t6.5 -21t16.5 -14t22 -7.5t22 -2.5q5 0 16 2.5t23.5 6.5t24.5 9.5t19 10.5q-3 12 -11.5 28t-20 30.5t-24.5 25 t-25 10.5z" />
<glyph unicode="&#x6a1;" horiz-adv-x="563" d="M461 0q-24 0 -50 7t-52.5 18.5t-51.5 26.5t-47 32q-22 -17 -54 -32t-63.5 -26.5t-58.5 -18.5t-41 -7h-79q-25 0 -37 27.5t-12 62.5t12 62.5t37 27.5h63h27.5t35 1.5t37 4t33.5 7.5q-3 21 -11 40t-8 43q0 25 7 60t20.5 73t32 75.5t41.5 67t49 48t55 18.5q32 0 52 -19.5 t32 -47.5t16.5 -59t4.5 -54q0 -30 -5 -63t-14 -66t-22.5 -63.5t-30.5 -54.5q23 -8 50 -9.5t56 -1.5h103q29 0 42.5 -27.5t13.5 -62.5t-13.5 -62.5t-42.5 -27.5h-127zM373 350q0 12 -5.5 24.5t-14.5 22.5t-20.5 16.5t-23.5 6.5q-15 0 -35 -11t-38 -27.5t-30.5 -34.5 t-12.5 -32q0 -10 9 -21.5t21.5 -22t25.5 -18.5t21 -13q17 6 35 16.5t33 24.5t25 31.5t10 37.5z" />
<glyph unicode="&#x6a1;" horiz-adv-x="1272" d="M1186 0q-26 0 -56 8t-59 22t-54.5 32t-43.5 38q-56 -34 -123.5 -61t-139 -46t-144 -28.5t-138.5 -9.5t-137 11t-130.5 40.5t-97.5 80.5t-38 131q0 30 9 62.5t24 64t34 60t39 49.5q3 3 6.5 0.5t1.5 -7.5q-9 -15 -17 -28.5t-13.5 -27t-9 -29t-3.5 -34.5q0 -41 18 -72.5 t47 -53.5t67 -36.5t77.5 -23t78.5 -12t71 -3.5q49 0 107 5t117.5 14t116 22t103.5 29q-9 26 -15.5 46.5t-6.5 49.5q0 24 8.5 57t23.5 69t35.5 70.5t45 62.5t52 45t56.5 17q23 0 39 -20.5t26.5 -49t15.5 -58.5t5 -48q0 -65 -25 -125.5t-67 -111.5q55 -11 111.5 -16t109.5 -5 q23 0 33.5 -27.5t10.5 -62.5t-10.5 -62.5t-33.5 -27.5h-127zM1108 332q0 16 -5.5 33t-16 30.5t-24.5 22t-32 8.5q-15 0 -34 -9.5t-35.5 -24.5t-27.5 -32.5t-11 -33.5q0 -15 8 -29t19.5 -25t25.5 -20t26 -14q12 5 30 15.5t35 23t29.5 27t12.5 28.5z" />
<glyph unicode="&#x6a2;" horiz-adv-x="487" d="M-36 0q-25 0 -37 27.5t-12 62.5t12 62.5t37 27.5h95t81 1t78 3t86 5q43 3 66.5 19t37.5 30q1 29 -5 55t-17 43q-28 -22 -61.5 -41t-68.5 -19q-28 0 -49 10.5t-35 28.5t-20.5 41.5t-6.5 49.5q0 17 4.5 42t13 53t21.5 56t29 50t35 36t41 14q26 0 49.5 -21.5t42.5 -55 t34 -75.5t25 -82.5t15.5 -75.5t5.5 -56q0 -67 -27.5 -121t-73.5 -92t-105 -58t-122 -20h-169zM266 508q-11 0 -23.5 -8t-22.5 -19.5t-16.5 -25t-6.5 -25.5t6.5 -21t16.5 -14t22 -7.5t22 -2.5q5 0 16 2.5t23.5 6.5t24.5 9.5t19 10.5q-3 12 -11.5 28t-20 30.5t-24.5 25 t-25 10.5zM237 -339l-104 104l104 104l104 -104z" />
<glyph unicode="&#x6a2;" horiz-adv-x="563" d="M461 0q-24 0 -50 7t-52.5 18.5t-51.5 26.5t-47 32q-22 -17 -54 -32t-63.5 -26.5t-58.5 -18.5t-41 -7h-79q-25 0 -37 27.5t-12 62.5t12 62.5t37 27.5h63h27.5t35 1.5t37 4t33.5 7.5q-3 21 -11 40t-8 43q0 25 7 60t20.5 73t32 75.5t41.5 67t49 48t55 18.5q32 0 52 -19.5 t32 -47.5t16.5 -59t4.5 -54q0 -30 -5 -63t-14 -66t-22.5 -63.5t-30.5 -54.5q23 -8 50 -9.5t56 -1.5h103q29 0 42.5 -27.5t13.5 -62.5t-13.5 -62.5t-42.5 -27.5h-127zM373 350q0 12 -5.5 24.5t-14.5 22.5t-20.5 16.5t-23.5 6.5q-15 0 -35 -11t-38 -27.5t-30.5 -34.5 t-12.5 -32q0 -10 9 -21.5t21.5 -22t25.5 -18.5t21 -13q17 6 35 16.5t33 24.5t25 31.5t10 37.5zM249 -289l-104 104l104 104l104 -104z" />
<glyph unicode="&#x6a2;" horiz-adv-x="1272" d="M1186 0q-26 0 -56 8t-59 22t-54.5 32t-43.5 38q-56 -34 -123.5 -61t-139 -46t-144 -28.5t-138.5 -9.5t-137 11t-130.5 40.5t-97.5 80.5t-38 131q0 30 9 62.5t24 64t34 60t39 49.5q3 3 6.5 0.5t1.5 -7.5q-9 -15 -17 -28.5t-13.5 -27t-9 -29t-3.5 -34.5q0 -41 18 -72.5 t47 -53.5t67 -36.5t77.5 -23t78.5 -12t71 -3.5q49 0 107 5t117.5 14t116 22t103.5 29q-9 26 -15.5 46.5t-6.5 49.5q0 24 8.5 57t23.5 69t35.5 70.5t45 62.5t52 45t56.5 17q23 0 39 -20.5t26.5 -49t15.5 -58.5t5 -48q0 -65 -25 -125.5t-67 -111.5q55 -11 111.5 -16t109.5 -5 q23 0 33.5 -27.5t10.5 -62.5t-10.5 -62.5t-33.5 -27.5h-127zM1108 332q0 16 -5.5 33t-16 30.5t-24.5 22t-32 8.5q-15 0 -34 -9.5t-35.5 -24.5t-27.5 -32.5t-11 -33.5q0 -15 8 -29t19.5 -25t25.5 -20t26 -14q12 5 30 15.5t35 23t29.5 27t12.5 28.5zM904 -327l-104 104 l104 104l104 -104z" />
<glyph unicode="&#x6a3;" horiz-adv-x="487" d="M-36 0q-25 0 -37 27.5t-12 62.5t12 62.5t37 27.5h95t81 1t78 3t86 5q43 3 66.5 19t37.5 30q1 29 -5 55t-17 43q-28 -22 -61.5 -41t-68.5 -19q-28 0 -49 10.5t-35 28.5t-20.5 41.5t-6.5 49.5q0 17 4.5 42t13 53t21.5 56t29 50t35 36t41 14q26 0 49.5 -21.5t42.5 -55 t34 -75.5t25 -82.5t15.5 -75.5t5.5 -56q0 -67 -27.5 -121t-73.5 -92t-105 -58t-122 -20h-169zM266 508q-11 0 -23.5 -8t-22.5 -19.5t-16.5 -25t-6.5 -25.5t6.5 -21t16.5 -14t22 -7.5t22 -2.5q5 0 16 2.5t23.5 6.5t24.5 9.5t19 10.5q-3 12 -11.5 28t-20 30.5t-24.5 25 t-25 10.5zM256 774l-104 104l104 104l104 -104zM237 -339l-104 104l104 104l104 -104z" />
<glyph unicode="&#x6a3;" horiz-adv-x="563" d="M461 0q-24 0 -50 7t-52.5 18.5t-51.5 26.5t-47 32q-22 -17 -54 -32t-63.5 -26.5t-58.5 -18.5t-41 -7h-79q-25 0 -37 27.5t-12 62.5t12 62.5t37 27.5h63h27.5t35 1.5t37 4t33.5 7.5q-3 21 -11 40t-8 43q0 25 7 60t20.5 73t32 75.5t41.5 67t49 48t55 18.5q32 0 52 -19.5 t32 -47.5t16.5 -59t4.5 -54q0 -30 -5 -63t-14 -66t-22.5 -63.5t-30.5 -54.5q23 -8 50 -9.5t56 -1.5h103q29 0 42.5 -27.5t13.5 -62.5t-13.5 -62.5t-42.5 -27.5h-127zM373 350q0 12 -5.5 24.5t-14.5 22.5t-20.5 16.5t-23.5 6.5q-15 0 -35 -11t-38 -27.5t-30.5 -34.5 t-12.5 -32q0 -10 9 -21.5t21.5 -22t25.5 -18.5t21 -13q17 6 35 16.5t33 24.5t25 31.5t10 37.5zM299 743l-104 104l104 104l104 -104zM249 -289l-104 104l104 104l104 -104z" />
<glyph unicode="&#x6a3;" horiz-adv-x="1272" d="M1186 0q-26 0 -56 8t-59 22t-54.5 32t-43.5 38q-56 -34 -123.5 -61t-139 -46t-144 -28.5t-138.5 -9.5t-137 11t-130.5 40.5t-97.5 80.5t-38 131q0 30 9 62.5t24 64t34 60t39 49.5q3 3 6.5 0.5t1.5 -7.5q-9 -15 -17 -28.5t-13.5 -27t-9 -29t-3.5 -34.5q0 -41 18 -72.5 t47 -53.5t67 -36.5t77.5 -23t78.5 -12t71 -3.5q49 0 107 5t117.5 14t116 22t103.5 29q-9 26 -15.5 46.5t-6.5 49.5q0 24 8.5 57t23.5 69t35.5 70.5t45 62.5t52 45t56.5 17q23 0 39 -20.5t26.5 -49t15.5 -58.5t5 -48q0 -65 -25 -125.5t-67 -111.5q55 -11 111.5 -16t109.5 -5 q23 0 33.5 -27.5t10.5 -62.5t-10.5 -62.5t-33.5 -27.5h-127zM1108 332q0 16 -5.5 33t-16 30.5t-24.5 22t-32 8.5q-15 0 -34 -9.5t-35.5 -24.5t-27.5 -32.5t-11 -33.5q0 -15 8 -29t19.5 -25t25.5 -20t26 -14q12 5 30 15.5t35 23t29.5 27t12.5 28.5zM1053 743l-104 104 l104 104l104 -104zM904 -327l-104 104l104 104l104 -104z" />
<glyph unicode="&#x6a4;" horiz-adv-x="487" arabic-form="initial" d="M-36 0q-25 0 -37 27.5t-12 62.5t12 62.5t37 27.5h95t81 1t78 3t86 5q43 3 66.5 19t37.5 30q1 29 -5 55t-17 43q-28 -22 -61.5 -41t-68.5 -19q-28 0 -49 10.5t-35 28.5t-20.5 41.5t-6.5 49.5q0 17 4.5 42t13 53t21.5 56t29 50t35 36t41 14q26 0 49.5 -21.5t42.5 -55 t34 -75.5t25 -82.5t15.5 -75.5t5.5 -56q0 -67 -27.5 -121t-73.5 -92t-105 -58t-122 -20h-169zM266 508q-11 0 -23.5 -8t-22.5 -19.5t-16.5 -25t-6.5 -25.5t6.5 -21t16.5 -14t22 -7.5t22 -2.5q5 0 16 2.5t23.5 6.5t24.5 9.5t19 10.5q-3 12 -11.5 28t-20 30.5t-24.5 25 t-25 10.5zM361 773l-104 107l104 104l107 -104zM151 773l-107 107l107 104l104 -104zM256 984l-104 104l104 107l104 -107z" />
<glyph unicode="&#x6a4;" horiz-adv-x="563" arabic-form="medial" d="M461 0q-24 0 -50 7t-52.5 18.5t-51.5 26.5t-47 32q-22 -17 -54 -32t-63.5 -26.5t-58.5 -18.5t-41 -7h-79q-25 0 -37 27.5t-12 62.5t12 62.5t37 27.5h63h27.5t35 1.5t37 4t33.5 7.5q-3 21 -11 40t-8 43q0 25 7 60t20.5 73t32 75.5t41.5 67t49 48t55 18.5q32 0 52 -19.5 t32 -47.5t16.5 -59t4.5 -54q0 -30 -5 -63t-14 -66t-22.5 -63.5t-30.5 -54.5q23 -8 50 -9.5t56 -1.5h103q29 0 42.5 -27.5t13.5 -62.5t-13.5 -62.5t-42.5 -27.5h-127zM373 350q0 12 -5.5 24.5t-14.5 22.5t-20.5 16.5t-23.5 6.5q-15 0 -35 -11t-38 -27.5t-30.5 -34.5 t-12.5 -32q0 -10 9 -21.5t21.5 -22t25.5 -18.5t21 -13q17 6 35 16.5t33 24.5t25 31.5t10 37.5zM404 742l-104 107l104 104l107 -104zM194 742l-107 107l107 104l104 -104zM299 953l-104 104l104 107l104 -107z" />
<glyph unicode="&#x6a4;" horiz-adv-x="1272" arabic-form="final" d="M1186 0q-26 0 -56 8t-59 22t-54.5 32t-43.5 38q-56 -34 -123.5 -61t-139 -46t-144 -28.5t-138.5 -9.5t-137 11t-130.5 40.5t-97.5 80.5t-38 131q0 30 9 62.5t24 64t34 60t39 49.5q3 3 6.5 0.5t1.5 -7.5q-9 -15 -17 -28.5t-13.5 -27t-9 -29t-3.5 -34.5q0 -41 18 -72.5 t47 -53.5t67 -36.5t77.5 -23t78.5 -12t71 -3.5q49 0 107 5t117.5 14t116 22t103.5 29q-9 26 -15.5 46.5t-6.5 49.5q0 24 8.5 57t23.5 69t35.5 70.5t45 62.5t52 45t56.5 17q23 0 39 -20.5t26.5 -49t15.5 -58.5t5 -48q0 -65 -25 -125.5t-67 -111.5q55 -11 111.5 -16t109.5 -5 q23 0 33.5 -27.5t10.5 -62.5t-10.5 -62.5t-33.5 -27.5h-127zM1108 332q0 16 -5.5 33t-16 30.5t-24.5 22t-32 8.5q-15 0 -34 -9.5t-35.5 -24.5t-27.5 -32.5t-11 -33.5q0 -15 8 -29t19.5 -25t25.5 -20t26 -14q12 5 30 15.5t35 23t29.5 27t12.5 28.5zM1158 742l-104 107 l104 104l107 -104zM948 742l-107 107l107 104l104 -104zM1053 953l-104 104l104 107l104 -107z" />
<glyph unicode="&#x6a5;" horiz-adv-x="487" d="M-36 0q-25 0 -37 27.5t-12 62.5t12 62.5t37 27.5h95t81 1t78 3t86 5q43 3 66.5 19t37.5 30q1 29 -5 55t-17 43q-28 -22 -61.5 -41t-68.5 -19q-28 0 -49 10.5t-35 28.5t-20.5 41.5t-6.5 49.5q0 17 4.5 42t13 53t21.5 56t29 50t35 36t41 14q26 0 49.5 -21.5t42.5 -55 t34 -75.5t25 -82.5t15.5 -75.5t5.5 -56q0 -67 -27.5 -121t-73.5 -92t-105 -58t-122 -20h-169zM266 508q-11 0 -23.5 -8t-22.5 -19.5t-16.5 -25t-6.5 -25.5t6.5 -21t16.5 -14t22 -7.5t22 -2.5q5 0 16 2.5t23.5 6.5t24.5 9.5t19 10.5q-3 12 -11.5 28t-20 30.5t-24.5 25 t-25 10.5zM342 -341l-104 104l104 107l107 -107zM132 -341l-107 104l107 107l104 -107zM237 -552l-104 107l104 104l104 -104z" />
<glyph unicode="&#x6a5;" horiz-adv-x="563" d="M461 0q-24 0 -50 7t-52.5 18.5t-51.5 26.5t-47 32q-22 -17 -54 -32t-63.5 -26.5t-58.5 -18.5t-41 -7h-79q-25 0 -37 27.5t-12 62.5t12 62.5t37 27.5h63h27.5t35 1.5t37 4t33.5 7.5q-3 21 -11 40t-8 43q0 25 7 60t20.5 73t32 75.5t41.5 67t49 48t55 18.5q32 0 52 -19.5 t32 -47.5t16.5 -59t4.5 -54q0 -30 -5 -63t-14 -66t-22.5 -63.5t-30.5 -54.5q23 -8 50 -9.5t56 -1.5h103q29 0 42.5 -27.5t13.5 -62.5t-13.5 -62.5t-42.5 -27.5h-127zM373 350q0 12 -5.5 24.5t-14.5 22.5t-20.5 16.5t-23.5 6.5q-15 0 -35 -11t-38 -27.5t-30.5 -34.5 t-12.5 -32q0 -10 9 -21.5t21.5 -22t25.5 -18.5t21 -13q17 6 35 16.5t33 24.5t25 31.5t10 37.5zM354 -291l-104 104l104 107l107 -107zM144 -291l-107 104l107 107l104 -107zM249 -502l-104 107l104 104l104 -104z" />
<glyph unicode="&#x6a5;" horiz-adv-x="1272" d="M1186 0q-26 0 -56 8t-59 22t-54.5 32t-43.5 38q-56 -34 -123.5 -61t-139 -46t-144 -28.5t-138.5 -9.5t-137 11t-130.5 40.5t-97.5 80.5t-38 131q0 30 9 62.5t24 64t34 60t39 49.5q3 3 6.5 0.5t1.5 -7.5q-9 -15 -17 -28.5t-13.5 -27t-9 -29t-3.5 -34.5q0 -41 18 -72.5 t47 -53.5t67 -36.5t77.5 -23t78.5 -12t71 -3.5q49 0 107 5t117.5 14t116 22t103.5 29q-9 26 -15.5 46.5t-6.5 49.5q0 24 8.5 57t23.5 69t35.5 70.5t45 62.5t52 45t56.5 17q23 0 39 -20.5t26.5 -49t15.5 -58.5t5 -48q0 -65 -25 -125.5t-67 -111.5q55 -11 111.5 -16t109.5 -5 q23 0 33.5 -27.5t10.5 -62.5t-10.5 -62.5t-33.5 -27.5h-127zM1108 332q0 16 -5.5 33t-16 30.5t-24.5 22t-32 8.5q-15 0 -34 -9.5t-35.5 -24.5t-27.5 -32.5t-11 -33.5q0 -15 8 -29t19.5 -25t25.5 -20t26 -14q12 5 30 15.5t35 23t29.5 27t12.5 28.5zM1009 -329l-104 104 l104 107l107 -107zM799 -329l-107 104l107 107l104 -107zM904 -540l-104 107l104 104l104 -104z" />
<glyph unicode="&#x6a6;" horiz-adv-x="487" arabic-form="initial" d="M-36 0q-25 0 -37 27.5t-12 62.5t12 62.5t37 27.5h95t81 1t78 3t86 5q43 3 66.5 19t37.5 30q1 29 -5 55t-17 43q-28 -22 -61.5 -41t-68.5 -19q-28 0 -49 10.5t-35 28.5t-20.5 41.5t-6.5 49.5q0 17 4.5 42t13 53t21.5 56t29 50t35 36t41 14q26 0 49.5 -21.5t42.5 -55 t34 -75.5t25 -82.5t15.5 -75.5t5.5 -56q0 -67 -27.5 -121t-73.5 -92t-105 -58t-122 -20h-169zM266 508q-11 0 -23.5 -8t-22.5 -19.5t-16.5 -25t-6.5 -25.5t6.5 -21t16.5 -14t22 -7.5t22 -2.5q5 0 16 2.5t23.5 6.5t24.5 9.5t19 10.5q-3 12 -11.5 28t-20 30.5t-24.5 25 t-25 10.5zM361 772l-104 107l104 104l107 -104zM151 772l-107 107l107 104l104 -104zM361 985l-104 104l104 107l107 -107zM151 985l-107 104l107 107l104 -107z" />
<glyph unicode="&#x6a6;" horiz-adv-x="563" arabic-form="medial" d="M461 0q-24 0 -50 7t-52.5 18.5t-51.5 26.5t-47 32q-22 -17 -54 -32t-63.5 -26.5t-58.5 -18.5t-41 -7h-79q-25 0 -37 27.5t-12 62.5t12 62.5t37 27.5h63h27.5t35 1.5t37 4t33.5 7.5q-3 21 -11 40t-8 43q0 25 7 60t20.5 73t32 75.5t41.5 67t49 48t55 18.5q32 0 52 -19.5 t32 -47.5t16.5 -59t4.5 -54q0 -30 -5 -63t-14 -66t-22.5 -63.5t-30.5 -54.5q23 -8 50 -9.5t56 -1.5h103q29 0 42.5 -27.5t13.5 -62.5t-13.5 -62.5t-42.5 -27.5h-127zM373 350q0 12 -5.5 24.5t-14.5 22.5t-20.5 16.5t-23.5 6.5q-15 0 -35 -11t-38 -27.5t-30.5 -34.5 t-12.5 -32q0 -10 9 -21.5t21.5 -22t25.5 -18.5t21 -13q17 6 35 16.5t33 24.5t25 31.5t10 37.5zM404 741l-104 107l104 104l107 -104zM194 741l-107 107l107 104l104 -104zM404 954l-104 104l104 107l107 -107zM194 954l-107 104l107 107l104 -107z" />
<glyph unicode="&#x6a6;" horiz-adv-x="1272" arabic-form="final" d="M1186 0q-26 0 -56 8t-59 22t-54.5 32t-43.5 38q-56 -34 -123.5 -61t-139 -46t-144 -28.5t-138.5 -9.5t-137 11t-130.5 40.5t-97.5 80.5t-38 131q0 30 9 62.5t24 64t34 60t39 49.5q3 3 6.5 0.5t1.5 -7.5q-9 -15 -17 -28.5t-13.5 -27t-9 -29t-3.5 -34.5q0 -41 18 -72.5 t47 -53.5t67 -36.5t77.5 -23t78.5 -12t71 -3.5q49 0 107 5t117.5 14t116 22t103.5 29q-9 26 -15.5 46.5t-6.5 49.5q0 24 8.5 57t23.5 69t35.5 70.5t45 62.5t52 45t56.5 17q23 0 39 -20.5t26.5 -49t15.5 -58.5t5 -48q0 -65 -25 -125.5t-67 -111.5q55 -11 111.5 -16t109.5 -5 q23 0 33.5 -27.5t10.5 -62.5t-10.5 -62.5t-33.5 -27.5h-127zM1108 332q0 16 -5.5 33t-16 30.5t-24.5 22t-32 8.5q-15 0 -34 -9.5t-35.5 -24.5t-27.5 -32.5t-11 -33.5q0 -15 8 -29t19.5 -25t25.5 -20t26 -14q12 5 30 15.5t35 23t29.5 27t12.5 28.5zM1158 741l-104 107 l104 104l107 -104zM948 741l-107 107l107 104l104 -104zM1158 954l-104 104l104 107l107 -107zM948 954l-107 104l107 107l104 -107z" />
<glyph unicode="&#x6a7;" horiz-adv-x="487" d="M-36 0q-25 0 -37 27.5t-12 62.5t12 62.5t37 27.5h95t81 1t78 3t86 5q43 3 66.5 19t37.5 30q1 29 -5 55t-17 43q-28 -22 -61.5 -41t-68.5 -19q-28 0 -49 10.5t-35 28.5t-20.5 41.5t-6.5 49.5q0 17 4.5 42t13 53t21.5 56t29 50t35 36t41 14q26 0 49.5 -21.5t42.5 -55 t34 -75.5t25 -82.5t15.5 -75.5t5.5 -56q0 -67 -27.5 -121t-73.5 -92t-105 -58t-122 -20h-169zM266 508q-11 0 -23.5 -8t-22.5 -19.5t-16.5 -25t-6.5 -25.5t6.5 -21t16.5 -14t22 -7.5t22 -2.5q5 0 16 2.5t23.5 6.5t24.5 9.5t19 10.5q-3 12 -11.5 28t-20 30.5t-24.5 25 t-25 10.5zM256 774l-104 104l104 104l104 -104z" />
<glyph unicode="&#x6a7;" horiz-adv-x="563" d="M461 0q-24 0 -50 7t-52.5 18.5t-51.5 26.5t-47 32q-22 -17 -54 -32t-63.5 -26.5t-58.5 -18.5t-41 -7h-79q-25 0 -37 27.5t-12 62.5t12 62.5t37 27.5h63h27.5t35 1.5t37 4t33.5 7.5q-3 21 -11 40t-8 43q0 25 7 60t20.5 73t32 75.5t41.5 67t49 48t55 18.5q32 0 52 -19.5 t32 -47.5t16.5 -59t4.5 -54q0 -30 -5 -63t-14 -66t-22.5 -63.5t-30.5 -54.5q23 -8 50 -9.5t56 -1.5h103q29 0 42.5 -27.5t13.5 -62.5t-13.5 -62.5t-42.5 -27.5h-127zM373 350q0 12 -5.5 24.5t-14.5 22.5t-20.5 16.5t-23.5 6.5q-15 0 -35 -11t-38 -27.5t-30.5 -34.5 t-12.5 -32q0 -10 9 -21.5t21.5 -22t25.5 -18.5t21 -13q17 6 35 16.5t33 24.5t25 31.5t10 37.5zM299 743l-104 104l104 104l104 -104z" />
<glyph unicode="&#x6a7;" horiz-adv-x="889" d="M922 180q26 0 38 -27.5t12 -62.5t-12 -62.5t-38 -27.5h-127q1 -44 -14.5 -86t-35.5 -76q-31 -53 -79.5 -96t-105 -74t-116 -48t-112.5 -17q-69 0 -126.5 20t-99 58t-64 93.5t-22.5 127.5q0 42 7 85t19.5 83t30.5 75t40 62q3 4 9 2.5t4 -7.5q-7 -18 -15 -41.5t-15 -49.5 t-11.5 -53.5t-4.5 -53.5q0 -65 20.5 -107.5t56.5 -67.5t86 -34.5t109 -9.5q18 0 50 3.5t70.5 11t79.5 19.5t77.5 29t64 40t38.5 53q5 15 8 30.5t4 28.5q-17 -6 -43 -9.5t-48 -3.5q-31 0 -59.5 9.5t-50.5 27.5t-34.5 45t-12.5 62q0 26 10.5 67t29.5 79.5t46 66t59 27.5 q29 0 52.5 -20.5t40.5 -50t26 -62.5t10 -58h148zM621 256q-10 0 -21.5 -7.5t-21.5 -18.5t-16.5 -23.5t-6.5 -22.5q0 -12 7 -20t17.5 -13.5t22.5 -7.5t21 -2q11 0 32 0.5t44 12.5q0 14 -8 31.5t-19.5 33t-25 26.5t-25.5 11zM629 500l-104 104l104 104l104 -104z" />
<glyph unicode="&#x6a8;" horiz-adv-x="487" d="M-36 0q-25 0 -37 27.5t-12 62.5t12 62.5t37 27.5h95t81 1t78 3t86 5q43 3 66.5 19t37.5 30q1 29 -5 55t-17 43q-28 -22 -61.5 -41t-68.5 -19q-28 0 -49 10.5t-35 28.5t-20.5 41.5t-6.5 49.5q0 17 4.5 42t13 53t21.5 56t29 50t35 36t41 14q26 0 49.5 -21.5t42.5 -55 t34 -75.5t25 -82.5t15.5 -75.5t5.5 -56q0 -67 -27.5 -121t-73.5 -92t-105 -58t-122 -20h-169zM266 508q-11 0 -23.5 -8t-22.5 -19.5t-16.5 -25t-6.5 -25.5t6.5 -21t16.5 -14t22 -7.5t22 -2.5q5 0 16 2.5t23.5 6.5t24.5 9.5t19 10.5q-3 12 -11.5 28t-20 30.5t-24.5 25 t-25 10.5zM361 773l-104 107l104 104l107 -104zM151 773l-107 107l107 104l104 -104zM256 984l-104 104l104 107l104 -107z" />
<glyph unicode="&#x6a8;" horiz-adv-x="563" d="M461 0q-24 0 -50 7t-52.5 18.5t-51.5 26.5t-47 32q-22 -17 -54 -32t-63.5 -26.5t-58.5 -18.5t-41 -7h-79q-25 0 -37 27.5t-12 62.5t12 62.5t37 27.5h63h27.5t35 1.5t37 4t33.5 7.5q-3 21 -11 40t-8 43q0 25 7 60t20.5 73t32 75.5t41.5 67t49 48t55 18.5q32 0 52 -19.5 t32 -47.5t16.5 -59t4.5 -54q0 -30 -5 -63t-14 -66t-22.5 -63.5t-30.5 -54.5q23 -8 50 -9.5t56 -1.5h103q29 0 42.5 -27.5t13.5 -62.5t-13.5 -62.5t-42.5 -27.5h-127zM373 350q0 12 -5.5 24.5t-14.5 22.5t-20.5 16.5t-23.5 6.5q-15 0 -35 -11t-38 -27.5t-30.5 -34.5 t-12.5 -32q0 -10 9 -21.5t21.5 -22t25.5 -18.5t21 -13q17 6 35 16.5t33 24.5t25 31.5t10 37.5zM404 742l-104 107l104 104l107 -104zM194 742l-107 107l107 104l104 -104zM299 953l-104 104l104 107l104 -107z" />
<glyph unicode="&#x6a8;" horiz-adv-x="889" d="M922 180q26 0 38 -27.5t12 -62.5t-12 -62.5t-38 -27.5h-127q1 -44 -14.5 -86t-35.5 -76q-31 -53 -79.5 -96t-105 -74t-116 -48t-112.5 -17q-69 0 -126.5 20t-99 58t-64 93.5t-22.5 127.5q0 42 7 85t19.5 83t30.5 75t40 62q3 4 9 2.5t4 -7.5q-7 -18 -15 -41.5t-15 -49.5 t-11.5 -53.5t-4.5 -53.5q0 -65 20.5 -107.5t56.5 -67.5t86 -34.5t109 -9.5q18 0 50 3.5t70.5 11t79.5 19.5t77.5 29t64 40t38.5 53q5 15 8 30.5t4 28.5q-17 -6 -43 -9.5t-48 -3.5q-31 0 -59.5 9.5t-50.5 27.5t-34.5 45t-12.5 62q0 26 10.5 67t29.5 79.5t46 66t59 27.5 q29 0 52.5 -20.5t40.5 -50t26 -62.5t10 -58h148zM621 256q-10 0 -21.5 -7.5t-21.5 -18.5t-16.5 -23.5t-6.5 -22.5q0 -12 7 -20t17.5 -13.5t22.5 -7.5t21 -2q11 0 32 0.5t44 12.5q0 14 -8 31.5t-19.5 33t-25 26.5t-25.5 11zM734 499l-104 107l104 104l107 -104zM524 499 l-107 107l107 104l104 -104zM629 710l-104 104l104 107l104 -107z" />
<glyph unicode="&#x6a9;" horiz-adv-x="633" arabic-form="initial" d="M-33 0q-26 0 -38 27.5t-12 62.5t12 62.5t38 27.5h44t71 1t77 3t60 5q29 5 54.5 13t44.5 19t29.5 25.5t10.5 32.5q-1 49 -27.5 86t-66 66.5t-85 54.5t-84.5 50t-65 53t-26 64q0 29 13.5 54t33.5 45q25 24 72.5 54t106.5 63t125.5 67t129 64.5t116.5 56t89 41.5l-28 -113 q-20 -9 -66.5 -30.5t-105.5 -49.5t-122.5 -59.5t-116 -61.5t-86.5 -56t-34 -42q0 -9 25.5 -25.5t63 -42t80 -58.5t77.5 -75t52 -94t17 -109q0 -73 -24.5 -126t-68.5 -87.5t-104.5 -51.5t-131.5 -17h-150z" />
<glyph unicode="&#x6a9;" horiz-adv-x="932" arabic-form="medial" d="M350 303q0 50 -25.5 85.5t-64 62.5t-83.5 48t-83.5 43.5t-64 48.5t-25.5 62q0 29 13.5 54.5t33.5 44.5q27 24 75 54.5t106.5 63.5t123.5 66.5t127 63.5t116 55.5t91 42.5l-28 -113q-15 -7 -46 -21t-71.5 -32.5t-86.5 -40.5t-92 -45.5t-88.5 -47.5t-75 -45.5t-52 -39.5 t-19.5 -31t26.5 -33.5t61 -40.5t66.5 -37t43 -23q47 -29 94 -68t92.5 -80t90.5 -80.5t88 -70.5t84.5 -50t80.5 -19h94q31 0 46 -27.5t15 -62.5t-15 -62.5t-46 -27.5h-76q-42 0 -79.5 14.5t-69.5 35.5t-57 45t-43 42q-17 18 -40.5 47t-51 61.5t-59 65t-64.5 58.5v-29 q0 -30 -3 -61t-11 -61t-21.5 -57.5t-34.5 -49.5q-23 -25 -54.5 -46t-67.5 -35t-73 -22t-71 -8h-112q-25 0 -37 27.5t-12 62.5t12 62.5t37 27.5q19 0 55 1t77 4t81 7.5t66 11.5q47 12 77 36t30 63z" />
<glyph unicode="&#x6a9;" horiz-adv-x="1577" arabic-form="final" d="M1597 180q15 0 26.5 -7.5t19 -20.5t11 -29.5t3.5 -33.5q0 -35 -15 -62t-45 -27h-115q-26 0 -62 21.5t-77 56t-83.5 76.5t-81 83.5t-71 77t-52.5 56.5v-45q0 -55 -13.5 -112t-54.5 -103q-23 -25 -55 -46t-67.5 -35t-72 -22t-69.5 -8h-412q-60 0 -110 17t-86 48.5t-56 75 t-20 95.5q0 65 13 112t31.5 80t40 54.5t39.5 34.5q2 1 4 -0.5t1 -4.5q-14 -41 -24.5 -77.5t-10.5 -84.5q0 -49 15.5 -82t46.5 -52.5t78.5 -27.5t111.5 -8h360q19 0 44 2t52.5 7t54.5 14t48 22.5t34 32t13 43.5q0 33 -24 63t-60.5 58.5t-78.5 56t-78.5 56t-60.5 57.5t-24 61 q0 28 13 54t34 45q29 26 77 57t106 63.5t122 65.5t125.5 62.5t115.5 55t93 42.5l-30 -113q-23 -10 -71.5 -31.5t-107.5 -49t-121.5 -59.5t-113.5 -62.5t-84 -57.5t-33 -45q0 -15 17 -30.5t40 -29.5t46 -26t34 -19q28 -17 74.5 -53t102 -80t115.5 -90.5t114.5 -84.5 t99.5 -62.5t70 -24.5h94z" />
<glyph unicode="&#x6aa;" horiz-adv-x="1126" d="M-36 0q-25 0 -37 27.5t-12 62.5t12 62.5t37 27.5h808q25 0 68 5t85 17.5t72.5 35t30.5 57.5q0 21 -12.5 33t-30.5 19t-37.5 9t-34.5 2h-755q-29 0 -49 10.5t-32.5 28t-18 40.5t-5.5 48q0 86 34 166.5t92 142.5t135.5 99t164.5 37q18 0 40.5 -3.5t41.5 -12t32 -23.5 t13 -39q0 -1 -5 -24t-11.5 -51t-12 -53t-6.5 -30q-3 22 -13.5 36t-25.5 22t-33 11t-36 3q-24 0 -58.5 -7.5t-71.5 -21t-73.5 -32.5t-65.5 -42t-47 -49.5t-18 -54.5q0 -26 20.5 -36.5t43.5 -10.5h737q37 0 68.5 -7.5t54.5 -24.5t36 -44.5t13 -68.5q0 -51 -17 -105 q-18 -61 -44.5 -110t-65 -82.5t-90 -51.5t-119.5 -18h-802z" />
<glyph unicode="&#x6aa;" horiz-adv-x="1178" d="M1067 219q0 -25 33 -32t102 -7q29 0 43.5 -27.5t14.5 -62.5t-14.5 -62.5t-43.5 -27.5h-123q-35 0 -54.5 18.5t-37.5 44.5q-51 -40 -105 -51.5t-116 -11.5h-802q-25 0 -37 27.5t-12 62.5t12 62.5t37 27.5h808q25 0 68 5t85 17.5t72.5 35t30.5 57.5q0 21 -12.5 33t-30.5 19 t-37.5 9t-34.5 2h-755q-29 0 -49 10.5t-32.5 28t-18 40.5t-5.5 48q0 93 40.5 166t106.5 136q29 27 60.5 52.5t67 46t73.5 32.5t78 12q18 0 40.5 -3.5t41.5 -12t32 -23.5t13 -39q0 -1 -5 -24t-11.5 -51t-12 -53t-6.5 -30q-3 22 -13.5 36t-25.5 22t-33 11t-36 3 q-24 0 -58 -7.5t-71 -21t-74 -32.5t-66 -42t-47 -49.5t-18 -54.5q0 -26 20.5 -36.5t43.5 -10.5h737q34 0 65 -6t55 -21.5t38 -41t14 -64.5q0 -21 -5.5 -42t-12 -41.5t-12 -39.5t-5.5 -37z" />
<glyph unicode="&#x6aa;" horiz-adv-x="1403" d="M1292 219q0 -23 22.5 -32.5t49.5 -9.5q19 0 36.5 1.5t26.5 1.5q29 -2 43.5 -29t14.5 -62t-14.5 -62t-43.5 -27h-122q-35 0 -55 18.5t-38 44.5q-51 -40 -105 -51.5t-116 -11.5h-561q-51 0 -105.5 15.5t-108 39.5t-104 52t-94.5 53v20h979q25 0 68 5t85 17.5t72.5 35 t30.5 57.5q0 21 -12.5 33t-30 19t-37 9t-34.5 2h-756q-29 0 -49 10.5t-32 28t-17.5 40.5t-5.5 48q0 86 33.5 166.5t91.5 142.5t135.5 99t165.5 37q18 0 40 -3.5t41 -12t32 -23.5t13 -39q0 -1 -5 -24t-11 -51t-11.5 -53t-6.5 -30q-3 22 -13.5 36t-25.5 22t-33.5 11t-36.5 3 q-24 0 -58.5 -7.5t-71.5 -21t-73.5 -32.5t-65.5 -42t-47 -49.5t-18 -54.5q0 -26 20.5 -36.5t43.5 -10.5h737q34 0 65 -6t55 -21.5t38 -41t14 -64.5q0 -21 -5.5 -42t-12 -41.5t-12 -39.5t-5.5 -37z" />
<glyph unicode="&#x6ab;" horiz-adv-x="633" d="M-33 0q-26 0 -38 27.5t-12 62.5t12 62.5t38 27.5h44t71 1t77 3t60 5q29 5 54.5 13t44.5 19t29.5 25.5t10.5 32.5q-1 49 -27.5 86t-66 66.5t-85 54.5t-84.5 50t-65 53t-26 64q0 29 13.5 54t33.5 45q25 24 72.5 54t106.5 63t125.5 67t129 64.5t116.5 56t89 41.5l-28 -113 q-20 -9 -66.5 -30.5t-105.5 -49.5t-122.5 -59.5t-116 -61.5t-86.5 -56t-34 -42q0 -9 25.5 -25.5t63 -42t80 -58.5t77.5 -75t52 -94t17 -109q0 -73 -24.5 -126t-68.5 -87.5t-104.5 -51.5t-131.5 -17h-150zM527 771q0 -66 -37 -106t-104 -40q-33 0 -54 9t-33 25.5t-16.5 40.5 t-4.5 54q0 27 8 57t23.5 54.5t39.5 40.5t56 16q31 0 54 -13.5t38 -35.5t22.5 -49t7.5 -53zM395 719q34 0 50 9.5t16 45.5q0 29 -17 51t-49 22q-14 0 -25.5 -8t-19.5 -20t-13 -26.5t-5 -26.5q0 -16 5 -25.5t13.5 -14t20 -6t24.5 -1.5z" />
<glyph unicode="&#x6ab;" horiz-adv-x="932" d="M350 303q0 50 -25.5 85.5t-64 62.5t-83.5 48t-83.5 43.5t-64 48.5t-25.5 62q0 29 13.5 54.5t33.5 44.5q27 24 75 54.5t106.5 63.5t123.5 66.5t127 63.5t116 55.5t91 42.5l-28 -113q-15 -7 -46 -21t-71.5 -32.5t-86.5 -40.5t-92 -45.5t-88.5 -47.5t-75 -45.5t-52 -39.5 t-19.5 -31t26.5 -33.5t61 -40.5t66.5 -37t43 -23q47 -29 94 -68t92.5 -80t90.5 -80.5t88 -70.5t84.5 -50t80.5 -19h94q31 0 46 -27.5t15 -62.5t-15 -62.5t-46 -27.5h-76q-42 0 -79.5 14.5t-69.5 35.5t-57 45t-43 42q-17 18 -40.5 47t-51 61.5t-59 65t-64.5 58.5v-29 q0 -30 -3 -61t-11 -61t-21.5 -57.5t-34.5 -49.5q-23 -25 -54.5 -46t-67.5 -35t-73 -22t-71 -8h-112q-25 0 -37 27.5t-12 62.5t12 62.5t37 27.5q19 0 55 1t77 4t81 7.5t66 11.5q47 12 77 36t30 63zM533 771q0 -66 -37 -106t-104 -40q-33 0 -54 9t-33 25.5t-16.5 40.5t-4.5 54 q0 27 8 57t23.5 54.5t39.5 40.5t56 16q31 0 54 -13.5t38 -35.5t22.5 -49t7.5 -53zM401 719q34 0 50 9.5t16 45.5q0 29 -17 51t-49 22q-14 0 -25.5 -8t-19.5 -20t-13 -26.5t-5 -26.5q0 -16 5 -25.5t13.5 -14t20 -6t24.5 -1.5z" />
<glyph unicode="&#x6ab;" horiz-adv-x="1577" d="M1597 180q15 0 26.5 -7.5t19 -20.5t11 -29.5t3.5 -33.5q0 -35 -15 -62t-45 -27h-115q-26 0 -62 21.5t-77 56t-83.5 76.5t-81 83.5t-71 77t-52.5 56.5v-45q0 -55 -13.5 -112t-54.5 -103q-23 -25 -55 -46t-67.5 -35t-72 -22t-69.5 -8h-412q-60 0 -110 17t-86 48.5t-56 75 t-20 95.5q0 65 13 112t31.5 80t40 54.5t39.5 34.5q2 1 4 -0.5t1 -4.5q-14 -41 -24.5 -77.5t-10.5 -84.5q0 -49 15.5 -82t46.5 -52.5t78.5 -27.5t111.5 -8h360q19 0 44 2t52.5 7t54.5 14t48 22.5t34 32t13 43.5q0 33 -24 63t-60.5 58.5t-78.5 56t-78.5 56t-60.5 57.5t-24 61 q0 28 13 54t34 45q29 26 77 57t106 63.5t122 65.5t125.5 62.5t115.5 55t93 42.5l-30 -113q-23 -10 -71.5 -31.5t-107.5 -49t-121.5 -59.5t-113.5 -62.5t-84 -57.5t-33 -45q0 -15 17 -30.5t40 -29.5t46 -26t34 -19q28 -17 74.5 -53t102 -80t115.5 -90.5t114.5 -84.5 t99.5 -62.5t70 -24.5h94zM1198 771q0 -66 -37 -106t-104 -40q-33 0 -54 9t-33 25.5t-16.5 40.5t-4.5 54q0 27 8 57t23.5 54.5t39.5 40.5t56 16q31 0 54 -13.5t38 -35.5t22.5 -49t7.5 -53zM1066 719q34 0 50 9.5t16 45.5q0 29 -17 51t-49 22q-14 0 -25.5 -8t-19.5 -20 t-13 -26.5t-5 -26.5q0 -16 5 -25.5t13.5 -14t20 -6t24.5 -1.5z" />
<glyph unicode="&#x6ac;" horiz-adv-x="633" d="M-33 0q-26 0 -38 27.5t-12 62.5t12 62.5t38 27.5h44t71 1t77 3t60 5q29 5 54.5 13t44.5 19t29.5 25.5t10.5 32.5q-1 49 -27.5 86t-66 66.5t-85 54.5t-84.5 50t-65 53t-26 64q0 29 13.5 54t33.5 45q25 24 72.5 54t106.5 63t125.5 67t129 64.5t116.5 56t89 41.5l-28 -113 q-20 -9 -66.5 -30.5t-105.5 -49.5t-122.5 -59.5t-116 -61.5t-86.5 -56t-34 -42q0 -9 25.5 -25.5t63 -42t80 -58.5t77.5 -75t52 -94t17 -109q0 -73 -24.5 -126t-68.5 -87.5t-104.5 -51.5t-131.5 -17h-150zM75 924l-104 104l104 104l104 -104z" />
<glyph unicode="&#x6ac;" horiz-adv-x="932" d="M350 303q0 50 -25.5 85.5t-64 62.5t-83.5 48t-83.5 43.5t-64 48.5t-25.5 62q0 29 13.5 54.5t33.5 44.5q27 24 75 54.5t106.5 63.5t123.5 66.5t127 63.5t116 55.5t91 42.5l-28 -113q-15 -7 -46 -21t-71.5 -32.5t-86.5 -40.5t-92 -45.5t-88.5 -47.5t-75 -45.5t-52 -39.5 t-19.5 -31t26.5 -33.5t61 -40.5t66.5 -37t43 -23q47 -29 94 -68t92.5 -80t90.5 -80.5t88 -70.5t84.5 -50t80.5 -19h94q31 0 46 -27.5t15 -62.5t-15 -62.5t-46 -27.5h-76q-42 0 -79.5 14.5t-69.5 35.5t-57 45t-43 42q-17 18 -40.5 47t-51 61.5t-59 65t-64.5 58.5v-29 q0 -30 -3 -61t-11 -61t-21.5 -57.5t-34.5 -49.5q-23 -25 -54.5 -46t-67.5 -35t-73 -22t-71 -8h-112q-25 0 -37 27.5t-12 62.5t12 62.5t37 27.5q19 0 55 1t77 4t81 7.5t66 11.5q47 12 77 36t30 63zM56 917l-104 104l104 104l104 -104z" />
<glyph unicode="&#x6ac;" horiz-adv-x="1179" d="M1219 180q23 0 34 -27.5t11 -62.5t-11 -62.5t-34 -27.5h-84q-19 0 -48.5 7.5t-60 25t-59 47t-46.5 73.5q-13 -32 -30.5 -60t-41 -48.5t-53 -32.5t-65.5 -12h-469q-47 0 -86 13t-67.5 40t-44 68t-15.5 97q0 36 10 68t25.5 59t33.5 47t33 31q2 0 5.5 -1.5t0.5 -6.5 q-12 -22 -21.5 -52t-9.5 -59q0 -65 52 -94.5t142 -29.5h251q33 1 74 2t82.5 4.5t80 10.5t67.5 20l-29 629q-6 6 -15.5 17t-19 24t-16 25t-6.5 20q0 6 7.5 23t19.5 38.5t26.5 44.5t28 42t25 31.5t16.5 12.5q13 0 11 -8q-10 -26 -13 -47.5t-3 -36.5t9 -30.5t22.5 -30.5 t28.5 -28t26 -21q-3 -8 -8 -27t-11.5 -41t-14 -42t-13.5 -31l-9 5q4 -89 11.5 -182t9.5 -182q3 -25 7.5 -52.5t13.5 -54.5t24 -50.5t39 -41.5q32 -24 73.5 -33.5t103.5 -9.5zM689 568q0 -27 -16.5 -56t-45 -53t-65.5 -40t-79 -16q-18 0 -47.5 3.5t-59.5 10.5t-53.5 16 t-28.5 21q32 2 78.5 6.5t89.5 11t73 15t30 19.5q0 9 -12 13t-30.5 5.5t-40 3.5t-40 7.5t-30.5 17t-12 31.5q0 27 15.5 60.5t43 66.5t66.5 62.5t86 49.5q2 -9 6 -22t7.5 -26.5t6.5 -25t4 -15.5q-15 -4 -36 -11t-40.5 -15.5t-33.5 -18t-14 -20.5q0 -15 13 -21t33 -9t43 -5 t43 -8.5t33 -19.5t13 -38zM897 1241l-104 104l104 104l104 -104z" />
<glyph unicode="&#x6ad;" horiz-adv-x="633" arabic-form="initial" d="M-33 0q-26 0 -38 27.5t-12 62.5t12 62.5t38 27.5h44t71 1t77 3t60 5q29 5 54.5 13t44.5 19t29.5 25.5t10.5 32.5q-1 49 -27.5 86t-66 66.5t-85 54.5t-84.5 50t-65 53t-26 64q0 29 13.5 54t33.5 45q25 24 72.5 54t106.5 63t125.5 67t129 64.5t116.5 56t89 41.5l-28 -113 q-20 -9 -66.5 -30.5t-105.5 -49.5t-122.5 -59.5t-116 -61.5t-86.5 -56t-34 -42q0 -9 25.5 -25.5t63 -42t80 -58.5t77.5 -75t52 -94t17 -109q0 -73 -24.5 -126t-68.5 -87.5t-104.5 -51.5t-131.5 -17h-150zM180 923l-104 107l104 104l107 -104zM-30 923l-107 107l107 104 l104 -104zM75 1134l-104 104l104 107l104 -107z" />
<glyph unicode="&#x6ad;" horiz-adv-x="932" arabic-form="medial" d="M350 303q0 50 -25.5 85.5t-64 62.5t-83.5 48t-83.5 43.5t-64 48.5t-25.5 62q0 29 13.5 54.5t33.5 44.5q27 24 75 54.5t106.5 63.5t123.5 66.5t127 63.5t116 55.5t91 42.5l-28 -113q-15 -7 -46 -21t-71.5 -32.5t-86.5 -40.5t-92 -45.5t-88.5 -47.5t-75 -45.5t-52 -39.5 t-19.5 -31t26.5 -33.5t61 -40.5t66.5 -37t43 -23q47 -29 94 -68t92.5 -80t90.5 -80.5t88 -70.5t84.5 -50t80.5 -19h94q31 0 46 -27.5t15 -62.5t-15 -62.5t-46 -27.5h-76q-42 0 -79.5 14.5t-69.5 35.5t-57 45t-43 42q-17 18 -40.5 47t-51 61.5t-59 65t-64.5 58.5v-29 q0 -30 -3 -61t-11 -61t-21.5 -57.5t-34.5 -49.5q-23 -25 -54.5 -46t-67.5 -35t-73 -22t-71 -8h-112q-25 0 -37 27.5t-12 62.5t12 62.5t37 27.5q19 0 55 1t77 4t81 7.5t66 11.5q47 12 77 36t30 63zM161 916l-104 107l104 104l107 -104zM-49 916l-107 107l107 104l104 -104z M56 1127l-104 104l104 107l104 -107z" />
<glyph unicode="&#x6ad;" horiz-adv-x="1179" arabic-form="final" d="M1219 180q23 0 34 -27.5t11 -62.5t-11 -62.5t-34 -27.5h-84q-19 0 -48.5 7.5t-60 25t-59 47t-46.5 73.5q-13 -32 -30.5 -60t-41 -48.5t-53 -32.5t-65.5 -12h-469q-47 0 -86 13t-67.5 40t-44 68t-15.5 97q0 36 10 68t25.5 59t33.5 47t33 31q2 0 5.5 -1.5t0.5 -6.5 q-12 -22 -21.5 -52t-9.5 -59q0 -65 52 -94.5t142 -29.5h251q33 1 74 2t82.5 4.5t80 10.5t67.5 20l-29 629q-6 6 -15.5 17t-19 24t-16 25t-6.5 20q0 6 7.5 23t19.5 38.5t26.5 44.5t28 42t25 31.5t16.5 12.5q13 0 11 -8q-10 -26 -13 -47.5t-3 -36.5t9 -30.5t22.5 -30.5 t28.5 -28t26 -21q-3 -8 -8 -27t-11.5 -41t-14 -42t-13.5 -31l-9 5q4 -89 11.5 -182t9.5 -182q3 -25 7.5 -52.5t13.5 -54.5t24 -50.5t39 -41.5q32 -24 73.5 -33.5t103.5 -9.5zM689 568q0 -27 -16.5 -56t-45 -53t-65.5 -40t-79 -16q-18 0 -47.5 3.5t-59.5 10.5t-53.5 16 t-28.5 21q32 2 78.5 6.5t89.5 11t73 15t30 19.5q0 9 -12 13t-30.5 5.5t-40 3.5t-40 7.5t-30.5 17t-12 31.5q0 27 15.5 60.5t43 66.5t66.5 62.5t86 49.5q2 -9 6 -22t7.5 -26.5t6.5 -25t4 -15.5q-15 -4 -36 -11t-40.5 -15.5t-33.5 -18t-14 -20.5q0 -15 13 -21t33 -9t43 -5 t43 -8.5t33 -19.5t13 -38zM1002 1240l-104 107l104 104l107 -104zM792 1240l-107 107l107 104l104 -104zM897 1451l-104 104l104 107l104 -107z" />
<glyph unicode="&#x6ae;" horiz-adv-x="633" d="M-33 0q-26 0 -38 27.5t-12 62.5t12 62.5t38 27.5h44t71 1t77 3t60 5q29 5 54.5 13t44.5 19t29.5 25.5t10.5 32.5q-1 49 -27.5 86t-66 66.5t-85 54.5t-84.5 50t-65 53t-26 64q0 29 13.5 54t33.5 45q25 24 72.5 54t106.5 63t125.5 67t129 64.5t116.5 56t89 41.5l-28 -113 q-20 -9 -66.5 -30.5t-105.5 -49.5t-122.5 -59.5t-116 -61.5t-86.5 -56t-34 -42q0 -9 25.5 -25.5t63 -42t80 -58.5t77.5 -75t52 -94t17 -109q0 -73 -24.5 -126t-68.5 -87.5t-104.5 -51.5t-131.5 -17h-150zM242 -335l-104 104l104 107l107 -107zM32 -335l-107 104l107 107 l104 -107zM137 -546l-104 107l104 104l104 -104z" />
<glyph unicode="&#x6ae;" horiz-adv-x="932" d="M350 303q0 50 -25.5 85.5t-64 62.5t-83.5 48t-83.5 43.5t-64 48.5t-25.5 62q0 29 13.5 54.5t33.5 44.5q27 24 75 54.5t106.5 63.5t123.5 66.5t127 63.5t116 55.5t91 42.5l-28 -113q-15 -7 -46 -21t-71.5 -32.5t-86.5 -40.5t-92 -45.5t-88.5 -47.5t-75 -45.5t-52 -39.5 t-19.5 -31t26.5 -33.5t61 -40.5t66.5 -37t43 -23q47 -29 94 -68t92.5 -80t90.5 -80.5t88 -70.5t84.5 -50t80.5 -19h94q31 0 46 -27.5t15 -62.5t-15 -62.5t-46 -27.5h-76q-42 0 -79.5 14.5t-69.5 35.5t-57 45t-43 42q-17 18 -40.5 47t-51 61.5t-59 65t-64.5 58.5v-29 q0 -30 -3 -61t-11 -61t-21.5 -57.5t-34.5 -49.5q-23 -25 -54.5 -46t-67.5 -35t-73 -22t-71 -8h-112q-25 0 -37 27.5t-12 62.5t12 62.5t37 27.5q19 0 55 1t77 4t81 7.5t66 11.5q47 12 77 36t30 63zM236 -329l-104 104l104 107l107 -107zM26 -329l-107 104l107 107l104 -107z M131 -540l-104 107l104 104l104 -104z" />
<glyph unicode="&#x6ae;" horiz-adv-x="1179" d="M1219 180q23 0 34 -27.5t11 -62.5t-11 -62.5t-34 -27.5h-84q-19 0 -48.5 7.5t-60 25t-59 47t-46.5 73.5q-13 -32 -30.5 -60t-41 -48.5t-53 -32.5t-65.5 -12h-469q-47 0 -86 13t-67.5 40t-44 68t-15.5 97q0 36 10 68t25.5 59t33.5 47t33 31q2 0 5.5 -1.5t0.5 -6.5 q-12 -22 -21.5 -52t-9.5 -59q0 -65 52 -94.5t142 -29.5h251q33 1 74 2t82.5 4.5t80 10.5t67.5 20l-29 629q-6 6 -15.5 17t-19 24t-16 25t-6.5 20q0 6 7.5 23t19.5 38.5t26.5 44.5t28 42t25 31.5t16.5 12.5q13 0 11 -8q-10 -26 -13 -47.5t-3 -36.5t9 -30.5t22.5 -30.5 t28.5 -28t26 -21q-3 -8 -8 -27t-11.5 -41t-14 -42t-13.5 -31l-9 5q4 -89 11.5 -182t9.5 -182q3 -25 7.5 -52.5t13.5 -54.5t24 -50.5t39 -41.5q32 -24 73.5 -33.5t103.5 -9.5zM689 568q0 -27 -16.5 -56t-45 -53t-65.5 -40t-79 -16q-18 0 -47.5 3.5t-59.5 10.5t-53.5 16 t-28.5 21q32 2 78.5 6.5t89.5 11t73 15t30 19.5q0 9 -12 13t-30.5 5.5t-40 3.5t-40 7.5t-30.5 17t-12 31.5q0 27 15.5 60.5t43 66.5t66.5 62.5t86 49.5q2 -9 6 -22t7.5 -26.5t6.5 -25t4 -15.5q-15 -4 -36 -11t-40.5 -15.5t-33.5 -18t-14 -20.5q0 -15 13 -21t33 -9t43 -5 t43 -8.5t33 -19.5t13 -38zM834 -347l-104 104l104 107l107 -107zM624 -347l-107 104l107 107l104 -107zM729 -558l-104 107l104 104l104 -104z" />
<glyph unicode="&#x6af;" horiz-adv-x="633" arabic-form="initial" d="M-33 0q-26 0 -38 27.5t-12 62.5t12 62.5t38 27.5h44t71 1t77 3t60 5q29 5 54.5 13t44.5 19t29.5 25.5t10.5 32.5q-1 49 -27.5 86t-66 66.5t-85 54.5t-84.5 50t-65 53t-26 64q0 29 13.5 54t33.5 45q25 24 72.5 54t106.5 63t125.5 67t129 64.5t116.5 56t89 41.5l-28 -113 q-20 -9 -66.5 -30.5t-105.5 -49.5t-122.5 -59.5t-116 -61.5t-86.5 -56t-34 -42q0 -9 25.5 -25.5t63 -42t80 -58.5t77.5 -75t52 -94t17 -109q0 -73 -24.5 -126t-68.5 -87.5t-104.5 -51.5t-131.5 -17h-150zM9 934l594 297l-29 -86l-596 -297z" />
<glyph unicode="&#x6af;" horiz-adv-x="932" arabic-form="medial" d="M350 303q0 50 -25.5 85.5t-64 62.5t-83.5 48t-83.5 43.5t-64 48.5t-25.5 62q0 29 13.5 54.5t33.5 44.5q27 24 75 54.5t106.5 63.5t123.5 66.5t127 63.5t116 55.5t91 42.5l-28 -113q-15 -7 -46 -21t-71.5 -32.5t-86.5 -40.5t-92 -45.5t-88.5 -47.5t-75 -45.5t-52 -39.5 t-19.5 -31t26.5 -33.5t61 -40.5t66.5 -37t43 -23q47 -29 94 -68t92.5 -80t90.5 -80.5t88 -70.5t84.5 -50t80.5 -19h94q31 0 46 -27.5t15 -62.5t-15 -62.5t-46 -27.5h-76q-42 0 -79.5 14.5t-69.5 35.5t-57 45t-43 42q-17 18 -40.5 47t-51 61.5t-59 65t-64.5 58.5v-29 q0 -30 -3 -61t-11 -61t-21.5 -57.5t-34.5 -49.5q-23 -25 -54.5 -46t-67.5 -35t-73 -22t-71 -8h-112q-25 0 -37 27.5t-12 62.5t12 62.5t37 27.5q19 0 55 1t77 4t81 7.5t66 11.5q47 12 77 36t30 63zM-10 927l594 297l-29 -86l-596 -297z" />
<glyph unicode="&#x6af;" horiz-adv-x="1577" arabic-form="final" d="M1597 180q15 0 26.5 -7.5t19 -20.5t11 -29.5t3.5 -33.5q0 -35 -15 -62t-45 -27h-115q-26 0 -62 21.5t-77 56t-83.5 76.5t-81 83.5t-71 77t-52.5 56.5v-45q0 -55 -13.5 -112t-54.5 -103q-23 -25 -55 -46t-67.5 -35t-72 -22t-69.5 -8h-412q-60 0 -110 17t-86 48.5t-56 75 t-20 95.5q0 65 13 112t31.5 80t40 54.5t39.5 34.5q2 1 4 -0.5t1 -4.5q-14 -41 -24.5 -77.5t-10.5 -84.5q0 -49 15.5 -82t46.5 -52.5t78.5 -27.5t111.5 -8h360q19 0 44 2t52.5 7t54.5 14t48 22.5t34 32t13 43.5q0 33 -24 63t-60.5 58.5t-78.5 56t-78.5 56t-60.5 57.5t-24 61 q0 28 13 54t34 45q29 26 77 57t106 63.5t122 65.5t125.5 62.5t115.5 55t93 42.5l-30 -113q-23 -10 -71.5 -31.5t-107.5 -49t-121.5 -59.5t-113.5 -62.5t-84 -57.5t-33 -45q0 -15 17 -30.5t40 -29.5t46 -26t34 -19q28 -17 74.5 -53t102 -80t115.5 -90.5t114.5 -84.5 t99.5 -62.5t70 -24.5h94zM641 921l594 297l-29 -86l-596 -297z" />
<glyph unicode="&#x6b0;" horiz-adv-x="633" d="M-33 0q-26 0 -38 27.5t-12 62.5t12 62.5t38 27.5h44t71 1t77 3t60 5q29 5 54.5 13t44.5 19t29.5 25.5t10.5 32.5q-1 49 -27.5 86t-66 66.5t-85 54.5t-84.5 50t-65 53t-26 64q0 29 13.5 54t33.5 45q25 24 72.5 54t106.5 63t125.5 67t129 64.5t116.5 56t89 41.5l-28 -113 q-20 -9 -66.5 -30.5t-105.5 -49.5t-122.5 -59.5t-116 -61.5t-86.5 -56t-34 -42q0 -9 25.5 -25.5t63 -42t80 -58.5t77.5 -75t52 -94t17 -109q0 -73 -24.5 -126t-68.5 -87.5t-104.5 -51.5t-131.5 -17h-150zM9 934l594 297l-29 -86l-596 -297zM527 771q0 -66 -37 -106t-104 -40 q-33 0 -54 9t-33 25.5t-16.5 40.5t-4.5 54q0 27 8 57t23.5 54.5t39.5 40.5t56 16q31 0 54 -13.5t38 -35.5t22.5 -49t7.5 -53zM395 719q34 0 50 9.5t16 45.5q0 29 -17 51t-49 22q-14 0 -25.5 -8t-19.5 -20t-13 -26.5t-5 -26.5q0 -16 5 -25.5t13.5 -14t20 -6t24.5 -1.5z" />
<glyph unicode="&#x6b0;" horiz-adv-x="932" d="M350 303q0 50 -25.5 85.5t-64 62.5t-83.5 48t-83.5 43.5t-64 48.5t-25.5 62q0 29 13.5 54.5t33.5 44.5q27 24 75 54.5t106.5 63.5t123.5 66.5t127 63.5t116 55.5t91 42.5l-28 -113q-15 -7 -46 -21t-71.5 -32.5t-86.5 -40.5t-92 -45.5t-88.5 -47.5t-75 -45.5t-52 -39.5 t-19.5 -31t26.5 -33.5t61 -40.5t66.5 -37t43 -23q47 -29 94 -68t92.5 -80t90.5 -80.5t88 -70.5t84.5 -50t80.5 -19h94q31 0 46 -27.5t15 -62.5t-15 -62.5t-46 -27.5h-76q-42 0 -79.5 14.5t-69.5 35.5t-57 45t-43 42q-17 18 -40.5 47t-51 61.5t-59 65t-64.5 58.5v-29 q0 -30 -3 -61t-11 -61t-21.5 -57.5t-34.5 -49.5q-23 -25 -54.5 -46t-67.5 -35t-73 -22t-71 -8h-112q-25 0 -37 27.5t-12 62.5t12 62.5t37 27.5q19 0 55 1t77 4t81 7.5t66 11.5q47 12 77 36t30 63zM-10 927l594 297l-29 -86l-596 -297zM533 771q0 -66 -37 -106t-104 -40 q-33 0 -54 9t-33 25.5t-16.5 40.5t-4.5 54q0 27 8 57t23.5 54.5t39.5 40.5t56 16q31 0 54 -13.5t38 -35.5t22.5 -49t7.5 -53zM401 719q34 0 50 9.5t16 45.5q0 29 -17 51t-49 22q-14 0 -25.5 -8t-19.5 -20t-13 -26.5t-5 -26.5q0 -16 5 -25.5t13.5 -14t20 -6t24.5 -1.5z" />
<glyph unicode="&#x6b0;" horiz-adv-x="1577" d="M1597 180q15 0 26.5 -7.5t19 -20.5t11 -29.5t3.5 -33.5q0 -35 -15 -62t-45 -27h-115q-26 0 -62 21.5t-77 56t-83.5 76.5t-81 83.5t-71 77t-52.5 56.5v-45q0 -55 -13.5 -112t-54.5 -103q-23 -25 -55 -46t-67.5 -35t-72 -22t-69.5 -8h-412q-60 0 -110 17t-86 48.5t-56 75 t-20 95.5q0 65 13 112t31.5 80t40 54.5t39.5 34.5q2 1 4 -0.5t1 -4.5q-14 -41 -24.5 -77.5t-10.5 -84.5q0 -49 15.5 -82t46.5 -52.5t78.5 -27.5t111.5 -8h360q19 0 44 2t52.5 7t54.5 14t48 22.5t34 32t13 43.5q0 33 -24 63t-60.5 58.5t-78.5 56t-78.5 56t-60.5 57.5t-24 61 q0 28 13 54t34 45q29 26 77 57t106 63.5t122 65.5t125.5 62.5t115.5 55t93 42.5l-30 -113q-23 -10 -71.5 -31.5t-107.5 -49t-121.5 -59.5t-113.5 -62.5t-84 -57.5t-33 -45q0 -15 17 -30.5t40 -29.5t46 -26t34 -19q28 -17 74.5 -53t102 -80t115.5 -90.5t114.5 -84.5 t99.5 -62.5t70 -24.5h94zM641 921l594 297l-29 -86l-596 -297zM1198 771q0 -66 -37 -106t-104 -40q-33 0 -54 9t-33 25.5t-16.5 40.5t-4.5 54q0 27 8 57t23.5 54.5t39.5 40.5t56 16q31 0 54 -13.5t38 -35.5t22.5 -49t7.5 -53zM1066 719q34 0 50 9.5t16 45.5q0 29 -17 51 t-49 22q-14 0 -25.5 -8t-19.5 -20t-13 -26.5t-5 -26.5q0 -16 5 -25.5t13.5 -14t20 -6t24.5 -1.5z" />
<glyph unicode="&#x6b1;" horiz-adv-x="633" arabic-form="initial" d="M-33 0q-26 0 -38 27.5t-12 62.5t12 62.5t38 27.5h44t71 1t77 3t60 5q29 5 54.5 13t44.5 19t29.5 25.5t10.5 32.5q-1 49 -27.5 86t-66 66.5t-85 54.5t-84.5 50t-65 53t-26 64q0 29 13.5 54t33.5 45q25 24 72.5 54t106.5 63t125.5 67t129 64.5t116.5 56t89 41.5l-28 -113 q-20 -9 -66.5 -30.5t-105.5 -49.5t-122.5 -59.5t-116 -61.5t-86.5 -56t-34 -42q0 -9 25.5 -25.5t63 -42t80 -58.5t77.5 -75t52 -94t17 -109q0 -73 -24.5 -126t-68.5 -87.5t-104.5 -51.5t-131.5 -17h-150zM9 934l594 297l-29 -86l-596 -297zM-81 1060l-107 104l107 104 l104 -104zM129 1060l-104 104l104 104l107 -104z" />
<glyph unicode="&#x6b1;" horiz-adv-x="932" arabic-form="medial" d="M350 303q0 50 -25.5 85.5t-64 62.5t-83.5 48t-83.5 43.5t-64 48.5t-25.5 62q0 29 13.5 54.5t33.5 44.5q27 24 75 54.5t106.5 63.5t123.5 66.5t127 63.5t116 55.5t91 42.5l-28 -113q-15 -7 -46 -21t-71.5 -32.5t-86.5 -40.5t-92 -45.5t-88.5 -47.5t-75 -45.5t-52 -39.5 t-19.5 -31t26.5 -33.5t61 -40.5t66.5 -37t43 -23q47 -29 94 -68t92.5 -80t90.5 -80.5t88 -70.5t84.5 -50t80.5 -19h94q31 0 46 -27.5t15 -62.5t-15 -62.5t-46 -27.5h-76q-42 0 -79.5 14.5t-69.5 35.5t-57 45t-43 42q-17 18 -40.5 47t-51 61.5t-59 65t-64.5 58.5v-29 q0 -30 -3 -61t-11 -61t-21.5 -57.5t-34.5 -49.5q-23 -25 -54.5 -46t-67.5 -35t-73 -22t-71 -8h-112q-25 0 -37 27.5t-12 62.5t12 62.5t37 27.5q19 0 55 1t77 4t81 7.5t66 11.5q47 12 77 36t30 63zM-10 927l594 297l-29 -86l-596 -297zM-100 1053l-107 104l107 104l104 -104z M110 1053l-104 104l104 104l107 -104z" />
<glyph unicode="&#x6b1;" horiz-adv-x="1577" arabic-form="final" d="M1597 180q15 0 26.5 -7.5t19 -20.5t11 -29.5t3.5 -33.5q0 -35 -15 -62t-45 -27h-115q-26 0 -62 21.5t-77 56t-83.5 76.5t-81 83.5t-71 77t-52.5 56.5v-45q0 -55 -13.5 -112t-54.5 -103q-23 -25 -55 -46t-67.5 -35t-72 -22t-69.5 -8h-412q-60 0 -110 17t-86 48.5t-56 75 t-20 95.5q0 65 13 112t31.5 80t40 54.5t39.5 34.5q2 1 4 -0.5t1 -4.5q-14 -41 -24.5 -77.5t-10.5 -84.5q0 -49 15.5 -82t46.5 -52.5t78.5 -27.5t111.5 -8h360q19 0 44 2t52.5 7t54.5 14t48 22.5t34 32t13 43.5q0 33 -24 63t-60.5 58.5t-78.5 56t-78.5 56t-60.5 57.5t-24 61 q0 28 13 54t34 45q29 26 77 57t106 63.5t122 65.5t125.5 62.5t115.5 55t93 42.5l-30 -113q-23 -10 -71.5 -31.5t-107.5 -49t-121.5 -59.5t-113.5 -62.5t-84 -57.5t-33 -45q0 -15 17 -30.5t40 -29.5t46 -26t34 -19q28 -17 74.5 -53t102 -80t115.5 -90.5t114.5 -84.5 t99.5 -62.5t70 -24.5h94zM641 921l594 297l-29 -86l-596 -297zM551 1047l-107 104l107 104l104 -104zM761 1047l-104 104l104 104l107 -104z" />
<glyph unicode="&#x6b2;" horiz-adv-x="633" d="M-33 0q-26 0 -38 27.5t-12 62.5t12 62.5t38 27.5h44t71 1t77 3t60 5q29 5 54.5 13t44.5 19t29.5 25.5t10.5 32.5q-1 49 -27.5 86t-66 66.5t-85 54.5t-84.5 50t-65 53t-26 64q0 29 13.5 54t33.5 45q25 24 72.5 54t106.5 63t125.5 67t129 64.5t116.5 56t89 41.5l-28 -113 q-20 -9 -66.5 -30.5t-105.5 -49.5t-122.5 -59.5t-116 -61.5t-86.5 -56t-34 -42q0 -9 25.5 -25.5t63 -42t80 -58.5t77.5 -75t52 -94t17 -109q0 -73 -24.5 -126t-68.5 -87.5t-104.5 -51.5t-131.5 -17h-150zM9 934l594 297l-29 -86l-596 -297zM242 -333l-104 104l104 104 l107 -104zM32 -333l-107 104l107 104l104 -104z" />
<glyph unicode="&#x6b2;" horiz-adv-x="932" d="M350 303q0 50 -25.5 85.5t-64 62.5t-83.5 48t-83.5 43.5t-64 48.5t-25.5 62q0 29 13.5 54.5t33.5 44.5q27 24 75 54.5t106.5 63.5t123.5 66.5t127 63.5t116 55.5t91 42.5l-28 -113q-15 -7 -46 -21t-71.5 -32.5t-86.5 -40.5t-92 -45.5t-88.5 -47.5t-75 -45.5t-52 -39.5 t-19.5 -31t26.5 -33.5t61 -40.5t66.5 -37t43 -23q47 -29 94 -68t92.5 -80t90.5 -80.5t88 -70.5t84.5 -50t80.5 -19h94q31 0 46 -27.5t15 -62.5t-15 -62.5t-46 -27.5h-76q-42 0 -79.5 14.5t-69.5 35.5t-57 45t-43 42q-17 18 -40.5 47t-51 61.5t-59 65t-64.5 58.5v-29 q0 -30 -3 -61t-11 -61t-21.5 -57.5t-34.5 -49.5q-23 -25 -54.5 -46t-67.5 -35t-73 -22t-71 -8h-112q-25 0 -37 27.5t-12 62.5t12 62.5t37 27.5q19 0 55 1t77 4t81 7.5t66 11.5q47 12 77 36t30 63zM-10 927l594 297l-29 -86l-596 -297zM236 -327l-104 104l104 104l107 -104z M26 -327l-107 104l107 104l104 -104z" />
<glyph unicode="&#x6b2;" horiz-adv-x="1577" d="M1597 180q15 0 26.5 -7.5t19 -20.5t11 -29.5t3.5 -33.5q0 -35 -15 -62t-45 -27h-115q-26 0 -62 21.5t-77 56t-83.5 76.5t-81 83.5t-71 77t-52.5 56.5v-45q0 -55 -13.5 -112t-54.5 -103q-23 -25 -55 -46t-67.5 -35t-72 -22t-69.5 -8h-412q-60 0 -110 17t-86 48.5t-56 75 t-20 95.5q0 65 13 112t31.5 80t40 54.5t39.5 34.5q2 1 4 -0.5t1 -4.5q-14 -41 -24.5 -77.5t-10.5 -84.5q0 -49 15.5 -82t46.5 -52.5t78.5 -27.5t111.5 -8h360q19 0 44 2t52.5 7t54.5 14t48 22.5t34 32t13 43.5q0 33 -24 63t-60.5 58.5t-78.5 56t-78.5 56t-60.5 57.5t-24 61 q0 28 13 54t34 45q29 26 77 57t106 63.5t122 65.5t125.5 62.5t115.5 55t93 42.5l-30 -113q-23 -10 -71.5 -31.5t-107.5 -49t-121.5 -59.5t-113.5 -62.5t-84 -57.5t-33 -45q0 -15 17 -30.5t40 -29.5t46 -26t34 -19q28 -17 74.5 -53t102 -80t115.5 -90.5t114.5 -84.5 t99.5 -62.5t70 -24.5h94zM641 921l594 297l-29 -86l-596 -297zM923 -333l-104 104l104 104l107 -104zM713 -333l-107 104l107 104l104 -104z" />
<glyph unicode="&#x6b3;" horiz-adv-x="633" arabic-form="initial" d="M-33 0q-26 0 -38 27.5t-12 62.5t12 62.5t38 27.5h44t71 1t77 3t60 5q29 5 54.5 13t44.5 19t29.5 25.5t10.5 32.5q-1 49 -27.5 86t-66 66.5t-85 54.5t-84.5 50t-65 53t-26 64q0 29 13.5 54t33.5 45q25 24 72.5 54t106.5 63t125.5 67t129 64.5t116.5 56t89 41.5l-28 -113 q-20 -9 -66.5 -30.5t-105.5 -49.5t-122.5 -59.5t-116 -61.5t-86.5 -56t-34 -42q0 -9 25.5 -25.5t63 -42t80 -58.5t77.5 -75t52 -94t17 -109q0 -73 -24.5 -126t-68.5 -87.5t-104.5 -51.5t-131.5 -17h-150zM9 934l594 297l-29 -86l-596 -297zM137 -547l-104 107l104 104 l104 -104zM137 -334l-104 104l104 107l104 -107z" />
<glyph unicode="&#x6b3;" horiz-adv-x="932" arabic-form="medial" d="M350 303q0 50 -25.5 85.5t-64 62.5t-83.5 48t-83.5 43.5t-64 48.5t-25.5 62q0 29 13.5 54.5t33.5 44.5q27 24 75 54.5t106.5 63.5t123.5 66.5t127 63.5t116 55.5t91 42.5l-28 -113q-15 -7 -46 -21t-71.5 -32.5t-86.5 -40.5t-92 -45.5t-88.5 -47.5t-75 -45.5t-52 -39.5 t-19.5 -31t26.5 -33.5t61 -40.5t66.5 -37t43 -23q47 -29 94 -68t92.5 -80t90.5 -80.5t88 -70.5t84.5 -50t80.5 -19h94q31 0 46 -27.5t15 -62.5t-15 -62.5t-46 -27.5h-76q-42 0 -79.5 14.5t-69.5 35.5t-57 45t-43 42q-17 18 -40.5 47t-51 61.5t-59 65t-64.5 58.5v-29 q0 -30 -3 -61t-11 -61t-21.5 -57.5t-34.5 -49.5q-23 -25 -54.5 -46t-67.5 -35t-73 -22t-71 -8h-112q-25 0 -37 27.5t-12 62.5t12 62.5t37 27.5q19 0 55 1t77 4t81 7.5t66 11.5q47 12 77 36t30 63zM-10 927l594 297l-29 -86l-596 -297zM131 -541l-104 107l104 104l104 -104z M131 -328l-104 104l104 107l104 -107z" />
<glyph unicode="&#x6b3;" horiz-adv-x="1577" arabic-form="final" d="M1597 180q15 0 26.5 -7.5t19 -20.5t11 -29.5t3.5 -33.5q0 -35 -15 -62t-45 -27h-115q-26 0 -62 21.5t-77 56t-83.5 76.5t-81 83.5t-71 77t-52.5 56.5v-45q0 -55 -13.5 -112t-54.5 -103q-23 -25 -55 -46t-67.5 -35t-72 -22t-69.5 -8h-412q-60 0 -110 17t-86 48.5t-56 75 t-20 95.5q0 65 13 112t31.5 80t40 54.5t39.5 34.5q2 1 4 -0.5t1 -4.5q-14 -41 -24.5 -77.5t-10.5 -84.5q0 -49 15.5 -82t46.5 -52.5t78.5 -27.5t111.5 -8h360q19 0 44 2t52.5 7t54.5 14t48 22.5t34 32t13 43.5q0 33 -24 63t-60.5 58.5t-78.5 56t-78.5 56t-60.5 57.5t-24 61 q0 28 13 54t34 45q29 26 77 57t106 63.5t122 65.5t125.5 62.5t115.5 55t93 42.5l-30 -113q-23 -10 -71.5 -31.5t-107.5 -49t-121.5 -59.5t-113.5 -62.5t-84 -57.5t-33 -45q0 -15 17 -30.5t40 -29.5t46 -26t34 -19q28 -17 74.5 -53t102 -80t115.5 -90.5t114.5 -84.5 t99.5 -62.5t70 -24.5h94zM641 921l594 297l-29 -86l-596 -297zM818 -547l-104 107l104 104l104 -104zM818 -334l-104 104l104 107l104 -107z" />
<glyph unicode="&#x6b4;" horiz-adv-x="633" d="M-33 0q-26 0 -38 27.5t-12 62.5t12 62.5t38 27.5h44t71 1t77 3t60 5q29 5 54.5 13t44.5 19t29.5 25.5t10.5 32.5q-1 49 -27.5 86t-66 66.5t-85 54.5t-84.5 50t-65 53t-26 64q0 29 13.5 54t33.5 45q25 24 72.5 54t106.5 63t125.5 67t129 64.5t116.5 56t89 41.5l-28 -113 q-20 -9 -66.5 -30.5t-105.5 -49.5t-122.5 -59.5t-116 -61.5t-86.5 -56t-34 -42q0 -9 25.5 -25.5t63 -42t80 -58.5t77.5 -75t52 -94t17 -109q0 -73 -24.5 -126t-68.5 -87.5t-104.5 -51.5t-131.5 -17h-150zM9 934l594 297l-29 -86l-596 -297zM30 1265l-104 104l104 107 l104 -107zM-75 1054l-107 107l107 104l104 -104zM135 1054l-104 107l104 104l107 -104z" />
<glyph unicode="&#x6b4;" horiz-adv-x="932" d="M350 303q0 50 -25.5 85.5t-64 62.5t-83.5 48t-83.5 43.5t-64 48.5t-25.5 62q0 29 13.5 54.5t33.5 44.5q27 24 75 54.5t106.5 63.5t123.5 66.5t127 63.5t116 55.5t91 42.5l-28 -113q-15 -7 -46 -21t-71.5 -32.5t-86.5 -40.5t-92 -45.5t-88.5 -47.5t-75 -45.5t-52 -39.5 t-19.5 -31t26.5 -33.5t61 -40.5t66.5 -37t43 -23q47 -29 94 -68t92.5 -80t90.5 -80.5t88 -70.5t84.5 -50t80.5 -19h94q31 0 46 -27.5t15 -62.5t-15 -62.5t-46 -27.5h-76q-42 0 -79.5 14.5t-69.5 35.5t-57 45t-43 42q-17 18 -40.5 47t-51 61.5t-59 65t-64.5 58.5v-29 q0 -30 -3 -61t-11 -61t-21.5 -57.5t-34.5 -49.5q-23 -25 -54.5 -46t-67.5 -35t-73 -22t-71 -8h-112q-25 0 -37 27.5t-12 62.5t12 62.5t37 27.5q19 0 55 1t77 4t81 7.5t66 11.5q47 12 77 36t30 63zM-10 927l594 297l-29 -86l-596 -297zM11 1258l-104 104l104 107l104 -107z M-94 1047l-107 107l107 104l104 -104zM116 1047l-104 107l104 104l107 -104z" />
<glyph unicode="&#x6b4;" horiz-adv-x="1577" d="M1597 180q15 0 26.5 -7.5t19 -20.5t11 -29.5t3.5 -33.5q0 -35 -15 -62t-45 -27h-115q-26 0 -62 21.5t-77 56t-83.5 76.5t-81 83.5t-71 77t-52.5 56.5v-45q0 -55 -13.5 -112t-54.5 -103q-23 -25 -55 -46t-67.5 -35t-72 -22t-69.5 -8h-412q-60 0 -110 17t-86 48.5t-56 75 t-20 95.5q0 65 13 112t31.5 80t40 54.5t39.5 34.5q2 1 4 -0.5t1 -4.5q-14 -41 -24.5 -77.5t-10.5 -84.5q0 -49 15.5 -82t46.5 -52.5t78.5 -27.5t111.5 -8h360q19 0 44 2t52.5 7t54.5 14t48 22.5t34 32t13 43.5q0 33 -24 63t-60.5 58.5t-78.5 56t-78.5 56t-60.5 57.5t-24 61 q0 28 13 54t34 45q29 26 77 57t106 63.5t122 65.5t125.5 62.5t115.5 55t93 42.5l-30 -113q-23 -10 -71.5 -31.5t-107.5 -49t-121.5 -59.5t-113.5 -62.5t-84 -57.5t-33 -45q0 -15 17 -30.5t40 -29.5t46 -26t34 -19q28 -17 74.5 -53t102 -80t115.5 -90.5t114.5 -84.5 t99.5 -62.5t70 -24.5h94zM641 921l594 297l-29 -86l-596 -297zM662 1252l-104 104l104 107l104 -107zM557 1041l-107 107l107 104l104 -104zM767 1041l-104 107l104 104l107 -104z" />
<glyph unicode="&#x6b5;" horiz-adv-x="338" d="M-40 0q-23 0 -34.5 27.5t-11.5 62.5t11.5 62.5t34.5 27.5q53 0 87.5 1.5t60 5.5t46 11.5t45.5 18.5l-29 629q-6 6 -15.5 17t-19 24t-16 25t-6.5 20q0 10 15 39.5t35.5 62.5t41.5 60t33 31q6 2 7 -1t0 -6q-8 -25 -11 -45.5t-3 -40.5q0 -15 9 -30.5t22.5 -30.5t28.5 -28 t26 -21q-3 -8 -8 -27t-11 -40.5t-13 -42t-13 -31.5l-12 6q5 -103 14 -211t9 -211q0 -35 -4.5 -75.5t-15.5 -81t-28 -78.5t-42.5 -66.5t-59.5 -46t-78 -17.5h-95zM34 1479q19 -6 46 -26.5t47 -48.5q17 -23 30.5 -46t20.5 -49q8 18 14 32t13 26t16 23.5t22 25.5q11 12 24 23.5 t25.5 20.5t23 14t16.5 5q0 -7 -1 -14q-1 -6 -2 -12.5t-5 -11.5q-20 -8 -43 -30.5t-39 -48.5q-6 -10 -14 -25t-16 -32.5t-15 -35t-11 -32.5q-3 -11 -12 -10t-12 9q-16 38 -33.5 68.5t-34.5 54.5q-20 29 -41 42.5t-40 20.5q4 17 8 29q3 11 6.5 19.5t6.5 8.5z" />
<glyph unicode="&#x6b5;" horiz-adv-x="438" d="M-36 0q-25 0 -37 27.5t-12 62.5t12 62.5t37 27.5h59q58 0 93.5 33t35.5 111q0 10 -0.5 23t-2.5 38.5t-5 69.5t-7.5 117t-10.5 180.5t-15 259.5l96 106l41 -694q4 -70 14 -111.5t21 -58.5q27 -42 55 -58t72 -16h49q30 0 45 -27.5t15 -62.5t-15 -62.5t-45 -27.5h-73 q-30 0 -60.5 20t-55 48t-41.5 59t-22 53q-12 -28 -27.5 -60t-36.5 -58.5t-48.5 -44t-63.5 -17.5h-67zM27 1485q19 -6 46 -26.5t47 -48.5q17 -23 30.5 -46t20.5 -49q8 18 14 32t13 26t16 23.5t22 25.5q11 12 24 23.5t25.5 20.5t23 14t16.5 5q0 -7 -1 -14q-1 -6 -2 -12.5 t-5 -11.5q-20 -8 -43 -30.5t-39 -48.5q-6 -10 -14 -25t-16 -32.5t-15 -35t-11 -32.5q-3 -11 -12 -10t-12 9q-16 38 -33.5 68.5t-34.5 54.5q-20 29 -41 42.5t-40 20.5q4 17 8 29q3 11 6.5 19.5t6.5 8.5z" />
<glyph unicode="&#x6b5;" horiz-adv-x="906" d="M950 180q19 0 30.5 -8.5t18 -22t9 -29t2.5 -30.5q0 -9 -2.5 -24t-9 -29.5t-18 -25.5t-30.5 -11h-94q-23 0 -47 7.5t-47.5 19.5t-44 28t-35.5 33q2 -99 -21 -188.5t-71.5 -157.5t-124.5 -108t-180 -40q-131 0 -195.5 71t-64.5 198q0 44 7 87.5t20 84.5t32 78t43 67 q3 4 7.5 -0.5t3.5 -7.5q-15 -62 -23.5 -110t-8.5 -99q0 -47 18 -79.5t48 -53t69 -30t81 -9.5q28 0 70 7t84.5 21t77.5 35t50 50q3 111 -4 241.5t-19 267.5t-25 274.5t-21 262.5l94 148l43 -541q3 -33 8 -76.5t14 -88.5t23 -87t35 -72q14 -20 39 -31.5t54 -17t57 -6t48 1.5z M445 1467q19 -6 46 -26.5t47 -48.5q17 -23 30.5 -46t20.5 -49q8 18 14 32t13 26t16 23.5t22 25.5q11 12 24 23.5t25.5 20.5t23 14t16.5 5q0 -7 -1 -14q-1 -6 -2 -12.5t-5 -11.5q-20 -8 -43 -30.5t-39 -48.5q-6 -10 -14 -25t-16 -32.5t-15 -35t-11 -32.5q-3 -11 -12 -10 t-12 9q-16 38 -33.5 68.5t-34.5 54.5q-20 29 -41 42.5t-40 20.5q4 17 8 29q3 11 6.5 19.5t6.5 8.5z" />
<glyph unicode="&#x6b6;" horiz-adv-x="338" d="M-40 0q-23 0 -34.5 27.5t-11.5 62.5t11.5 62.5t34.5 27.5q53 0 87.5 1.5t60 5.5t46 11.5t45.5 18.5l-29 629q-6 6 -15.5 17t-19 24t-16 25t-6.5 20q0 10 15 39.5t35.5 62.5t41.5 60t33 31q6 2 7 -1t0 -6q-8 -25 -11 -45.5t-3 -40.5q0 -15 9 -30.5t22.5 -30.5t28.5 -28 t26 -21q-3 -8 -8 -27t-11 -40.5t-13 -42t-13 -31.5l-12 6q5 -103 14 -211t9 -211q0 -35 -4.5 -75.5t-15.5 -81t-28 -78.5t-42.5 -66.5t-59.5 -46t-78 -17.5h-95zM175 1235l-104 104l104 104l104 -104z" />
<glyph unicode="&#x6b6;" horiz-adv-x="438" d="M-36 0q-25 0 -37 27.5t-12 62.5t12 62.5t37 27.5h59q58 0 93.5 33t35.5 111q0 10 -0.5 23t-2.5 38.5t-5 69.5t-7.5 117t-10.5 180.5t-15 259.5l96 106l41 -694q4 -70 14 -111.5t21 -58.5q27 -42 55 -58t72 -16h49q30 0 45 -27.5t15 -62.5t-15 -62.5t-45 -27.5h-73 q-30 0 -60.5 20t-55 48t-41.5 59t-22 53q-12 -28 -27.5 -60t-36.5 -58.5t-48.5 -44t-63.5 -17.5h-67zM168 1241l-104 104l104 104l104 -104z" />
<glyph unicode="&#x6b6;" horiz-adv-x="906" d="M950 180q19 0 30.5 -8.5t18 -22t9 -29t2.5 -30.5q0 -9 -2.5 -24t-9 -29.5t-18 -25.5t-30.5 -11h-94q-23 0 -47 7.5t-47.5 19.5t-44 28t-35.5 33q2 -99 -21 -188.5t-71.5 -157.5t-124.5 -108t-180 -40q-131 0 -195.5 71t-64.5 198q0 44 7 87.5t20 84.5t32 78t43 67 q3 4 7.5 -0.5t3.5 -7.5q-15 -62 -23.5 -110t-8.5 -99q0 -47 18 -79.5t48 -53t69 -30t81 -9.5q28 0 70 7t84.5 21t77.5 35t50 50q3 111 -4 241.5t-19 267.5t-25 274.5t-21 262.5l94 148l43 -541q3 -33 8 -76.5t14 -88.5t23 -87t35 -72q14 -20 39 -31.5t54 -17t57 -6t48 1.5z M586 1223l-104 104l104 104l104 -104z" />
<glyph unicode="&#x6b7;" horiz-adv-x="338" d="M-40 0q-23 0 -34.5 27.5t-11.5 62.5t11.5 62.5t34.5 27.5q53 0 87.5 1.5t60 5.5t46 11.5t45.5 18.5l-29 629q-6 6 -15.5 17t-19 24t-16 25t-6.5 20q0 10 15 39.5t35.5 62.5t41.5 60t33 31q6 2 7 -1t0 -6q-8 -25 -11 -45.5t-3 -40.5q0 -15 9 -30.5t22.5 -30.5t28.5 -28 t26 -21q-3 -8 -8 -27t-11 -40.5t-13 -42t-13 -31.5l-12 6q5 -103 14 -211t9 -211q0 -35 -4.5 -75.5t-15.5 -81t-28 -78.5t-42.5 -66.5t-59.5 -46t-78 -17.5h-95zM280 1234l-104 107l104 104l107 -104zM70 1234l-107 107l107 104l104 -104zM175 1445l-104 104l104 107 l104 -107z" />
<glyph unicode="&#x6b7;" horiz-adv-x="438" d="M-36 0q-25 0 -37 27.5t-12 62.5t12 62.5t37 27.5h59q58 0 93.5 33t35.5 111q0 10 -0.5 23t-2.5 38.5t-5 69.5t-7.5 117t-10.5 180.5t-15 259.5l96 106l41 -694q4 -70 14 -111.5t21 -58.5q27 -42 55 -58t72 -16h49q30 0 45 -27.5t15 -62.5t-15 -62.5t-45 -27.5h-73 q-30 0 -60.5 20t-55 48t-41.5 59t-22 53q-12 -28 -27.5 -60t-36.5 -58.5t-48.5 -44t-63.5 -17.5h-67zM273 1240l-104 107l104 104l107 -104zM63 1240l-107 107l107 104l104 -104zM168 1451l-104 104l104 107l104 -107z" />
<glyph unicode="&#x6b7;" horiz-adv-x="906" d="M950 180q19 0 30.5 -8.5t18 -22t9 -29t2.5 -30.5q0 -9 -2.5 -24t-9 -29.5t-18 -25.5t-30.5 -11h-94q-23 0 -47 7.5t-47.5 19.5t-44 28t-35.5 33q2 -99 -21 -188.5t-71.5 -157.5t-124.5 -108t-180 -40q-131 0 -195.5 71t-64.5 198q0 44 7 87.5t20 84.5t32 78t43 67 q3 4 7.5 -0.5t3.5 -7.5q-15 -62 -23.5 -110t-8.5 -99q0 -47 18 -79.5t48 -53t69 -30t81 -9.5q28 0 70 7t84.5 21t77.5 35t50 50q3 111 -4 241.5t-19 267.5t-25 274.5t-21 262.5l94 148l43 -541q3 -33 8 -76.5t14 -88.5t23 -87t35 -72q14 -20 39 -31.5t54 -17t57 -6t48 1.5z M691 1222l-104 107l104 104l107 -104zM481 1222l-107 107l107 104l104 -104zM586 1433l-104 104l104 107l104 -107z" />
<glyph unicode="&#x6b8;" horiz-adv-x="338" d="M-40 0q-23 0 -34.5 27.5t-11.5 62.5t11.5 62.5t34.5 27.5q53 0 87.5 1.5t60 5.5t46 11.5t45.5 18.5l-29 629q-6 6 -15.5 17t-19 24t-16 25t-6.5 20q0 10 15 39.5t35.5 62.5t41.5 60t33 31q6 2 7 -1t0 -6q-8 -25 -11 -45.5t-3 -40.5q0 -15 9 -30.5t22.5 -30.5t28.5 -28 t26 -21q-3 -8 -8 -27t-11 -40.5t-13 -42t-13 -31.5l-12 6q5 -103 14 -211t9 -211q0 -35 -4.5 -75.5t-15.5 -81t-28 -78.5t-42.5 -66.5t-59.5 -46t-78 -17.5h-95zM304 -322l-104 104l104 107l107 -107zM94 -322l-107 104l107 107l104 -107zM199 -533l-104 107l104 104 l104 -104z" />
<glyph unicode="&#x6b8;" horiz-adv-x="438" d="M-36 0q-25 0 -37 27.5t-12 62.5t12 62.5t37 27.5h59q58 0 93.5 33t35.5 111q0 10 -0.5 23t-2.5 38.5t-5 69.5t-7.5 117t-10.5 180.5t-15 259.5l96 106l41 -694q4 -70 14 -111.5t21 -58.5q27 -42 55 -58t72 -16h49q30 0 45 -27.5t15 -62.5t-15 -62.5t-45 -27.5h-73 q-30 0 -60.5 20t-55 48t-41.5 59t-22 53q-12 -28 -27.5 -60t-36.5 -58.5t-48.5 -44t-63.5 -17.5h-67zM298 -297l-104 104l104 107l107 -107zM88 -297l-107 104l107 107l104 -107zM193 -508l-104 107l104 104l104 -104z" />
<glyph unicode="&#x6b8;" horiz-adv-x="906" d="M950 180q19 0 30.5 -8.5t18 -22t9 -29t2.5 -30.5q0 -9 -2.5 -24t-9 -29.5t-18 -25.5t-30.5 -11h-94q-23 0 -47 7.5t-47.5 19.5t-44 28t-35.5 33q2 -99 -21 -188.5t-71.5 -157.5t-124.5 -108t-180 -40q-131 0 -195.5 71t-64.5 198q0 44 7 87.5t20 84.5t32 78t43 67 q3 4 7.5 -0.5t3.5 -7.5q-15 -62 -23.5 -110t-8.5 -99q0 -47 18 -79.5t48 -53t69 -30t81 -9.5q28 0 70 7t84.5 21t77.5 35t50 50q3 111 -4 241.5t-19 267.5t-25 274.5t-21 262.5l94 148l43 -541q3 -33 8 -76.5t14 -88.5t23 -87t35 -72q14 -20 39 -31.5t54 -17t57 -6t48 1.5z M697 -659l-104 104l104 107l107 -107zM487 -659l-107 104l107 107l104 -107zM592 -870l-104 107l104 104l104 -104z" />
<glyph unicode="&#x6b9;" horiz-adv-x="338" d="M215 180q5 0 10 5.5t9 13t6 15.5t2 13q0 7 -4.5 23.5t-11 34.5t-13.5 32.5t-12 18.5l57 145q29 -38 42 -87.5t13 -98.5q0 -37 -7.5 -74t-22.5 -71q-9 -21 -27.5 -47t-41.5 -49t-49 -38.5t-50 -15.5h-151q-12 0 -21.5 8t-15.5 21t-9 29.5t-3 34.5q0 35 12 61t37 26h251z M206 606l-104 104l104 104l104 -104zM199 -333l-104 104l104 104l104 -104z" />
<glyph unicode="&#x6b9;" horiz-adv-x="440" d="M-40 0q-23 0 -35 27.5t-12 62.5t12 62.5t35 27.5h53.5t53 1t48 3.5t37.5 6.5q23 6 36.5 23.5t22.5 39t15 44t13 38.5q1 3 5 4.5t8.5 1.5t7.5 -2.5t2 -7.5q-2 -16 -3 -32t-1 -21q0 -35 22.5 -55t55.5 -29.5t70.5 -12t66.5 -2.5q25 0 37.5 -27.5t12.5 -62.5t-12.5 -62.5 t-37.5 -27.5h-115q-21 0 -43 9t-42.5 25t-38 37t-29.5 46q-9 -18 -25.5 -38.5t-37 -38t-43 -29t-44.5 -11.5h-95zM212 462l-104 104l104 104l104 -104zM203 -333l-104 104l104 104l104 -104z" />
<glyph unicode="&#x6b9;" horiz-adv-x="907" d="M757 0q5 -92 -19.5 -169.5t-78.5 -133t-136.5 -86.5t-193.5 -31q-134 0 -207.5 68t-73.5 205q0 40 7 83t19.5 85t30 80.5t39.5 68.5q6 8 13 8q8 0 8 -4v-10q-14 -48 -28.5 -95t-14.5 -98q0 -60 19 -99.5t52.5 -63.5t80 -34t100.5 -10q40 0 85 6.5t88 21.5t79.5 38.5 t60.5 58.5q0 92 -24 156.5t-74 120.5l80 145q2 -10 7 -21.5t12 -23.5t14.5 -22.5t13.5 -18.5q11 -14 35.5 -23t55 -14t63.5 -6.5t61 -1.5q29 0 43 -27.5t14 -62.5t-14 -62.5t-43 -27.5h-174zM385 263l-104 104l104 104l104 -104zM348 -744l-104 104l104 104l104 -104z" />
<glyph unicode="&#x6ba;" horiz-adv-x="338" d="M215 180q5 0 10 5.5t9 13t6 15.5t2 13q0 7 -4.5 23.5t-11 34.5t-13.5 32.5t-12 18.5l57 145q29 -38 42 -87.5t13 -98.5q0 -37 -7.5 -74t-22.5 -71q-9 -21 -27.5 -47t-41.5 -49t-49 -38.5t-50 -15.5h-151q-12 0 -21.5 8t-15.5 21t-9 29.5t-3 34.5q0 35 12 61t37 26h251z M206 606l-104 104l104 104l104 -104z" />
<glyph unicode="&#x6ba;" horiz-adv-x="440" d="M-40 0q-23 0 -35 27.5t-12 62.5t12 62.5t35 27.5h53.5t53 1t48 3.5t37.5 6.5q23 6 36.5 23.5t22.5 39t15 44t13 38.5q1 3 5 4.5t8.5 1.5t7.5 -2.5t2 -7.5q-2 -16 -3 -32t-1 -21q0 -35 22.5 -55t55.5 -29.5t70.5 -12t66.5 -2.5q25 0 37.5 -27.5t12.5 -62.5t-12.5 -62.5 t-37.5 -27.5h-115q-21 0 -43 9t-42.5 25t-38 37t-29.5 46q-9 -18 -25.5 -38.5t-37 -38t-43 -29t-44.5 -11.5h-95zM212 462l-104 104l104 104l104 -104z" />
<glyph unicode="&#x6ba;" horiz-adv-x="907" arabic-form="final" d="M757 0q5 -92 -19.5 -169.5t-78.5 -133t-136.5 -86.5t-193.5 -31q-134 0 -207.5 68t-73.5 205q0 40 7 83t19.5 85t30 80.5t39.5 68.5q6 8 13 8q8 0 8 -4v-10q-14 -48 -28.5 -95t-14.5 -98q0 -60 19 -99.5t52.5 -63.5t80 -34t100.5 -10q40 0 85 6.5t88 21.5t79.5 38.5 t60.5 58.5q0 92 -24 156.5t-74 120.5l80 145q2 -10 7 -21.5t12 -23.5t14.5 -22.5t13.5 -18.5q11 -14 35.5 -23t55 -14t63.5 -6.5t61 -1.5q29 0 43 -27.5t14 -62.5t-14 -62.5t-43 -27.5h-174z" />
<glyph unicode="&#x6bb;" horiz-adv-x="338" arabic-form="initial" d="M215 180q5 0 10 5.5t9 13t6 15.5t2 13q0 7 -4.5 23.5t-11 34.5t-13.5 32.5t-12 18.5l57 145q29 -38 42 -87.5t13 -98.5q0 -37 -7.5 -74t-22.5 -71q-9 -21 -27.5 -47t-41.5 -49t-49 -38.5t-50 -15.5h-151q-12 0 -21.5 8t-15.5 21t-9 29.5t-3 34.5q0 35 12 61t37 26h251z M124 602q-40 0 -71.5 19.5t-51.5 54.5l117 -11l51 47v231q-9 8 -13.5 15t-4.5 18q0 5 5.5 16t12.5 23t14 21t10 9q2 0 2 -4q0 -5 -1.5 -11.5t-1.5 -8.5q0 -16 9.5 -27.5t24.5 -13.5l-20 -59h-10v-190q10 8 29 21.5t40 26.5t40.5 22.5t31.5 9.5q11 0 24 -4t24.5 -11.5 t19.5 -18t8 -24.5q0 -42 -30 -71t-74.5 -47t-94.5 -25.5t-90 -7.5zM300 747q-10 0 -31.5 -8t-43.5 -20t-39 -25.5t-17 -24.5q0 -3 7.5 -3.5t9.5 -0.5q9 0 37.5 3t59.5 9t55 15t24 20t-6.5 18t-16.5 10.5t-20.5 5t-18.5 1.5z" />
<glyph unicode="&#x6bb;" horiz-adv-x="440" arabic-form="medial" d="M-40 0q-23 0 -35 27.5t-12 62.5t12 62.5t35 27.5h53.5t53 1t48 3.5t37.5 6.5q23 6 36.5 23.5t22.5 39t15 44t13 38.5q1 3 5 4.5t8.5 1.5t7.5 -2.5t2 -7.5q-2 -16 -3 -32t-1 -21q0 -35 22.5 -55t55.5 -29.5t70.5 -12t66.5 -2.5q25 0 37.5 -27.5t12.5 -62.5t-12.5 -62.5 t-37.5 -27.5h-115q-21 0 -43 9t-42.5 25t-38 37t-29.5 46q-9 -18 -25.5 -38.5t-37 -38t-43 -29t-44.5 -11.5h-95zM130 458q-40 0 -71.5 19.5t-51.5 54.5l117 -11l51 47v231q-9 8 -13.5 15t-4.5 18q0 5 5.5 16t12.5 23t14 21t10 9q2 0 2 -4q0 -5 -1.5 -11.5t-1.5 -8.5 q0 -16 9.5 -27.5t24.5 -13.5l-20 -59h-10v-190q10 8 29 21.5t40 26.5t40.5 22.5t31.5 9.5q11 0 24 -4t24.5 -11.5t19.5 -18t8 -24.5q0 -42 -30 -71t-74.5 -47t-94.5 -25.5t-90 -7.5zM306 603q-10 0 -31.5 -8t-43.5 -20t-39 -25.5t-17 -24.5q0 -3 7.5 -3.5t9.5 -0.5 q9 0 37.5 3t59.5 9t55 15t24 20t-6.5 18t-16.5 10.5t-20.5 5t-18.5 1.5z" />
<glyph unicode="&#x6bb;" horiz-adv-x="907" arabic-form="final" d="M757 0q5 -92 -19.5 -169.5t-78.5 -133t-136.5 -86.5t-193.5 -31q-134 0 -207.5 68t-73.5 205q0 40 7 83t19.5 85t30 80.5t39.5 68.5q6 8 13 8q8 0 8 -4v-10q-14 -48 -28.5 -95t-14.5 -98q0 -60 19 -99.5t52.5 -63.5t80 -34t100.5 -10q40 0 85 6.5t88 21.5t79.5 38.5 t60.5 58.5q0 92 -24 156.5t-74 120.5l80 145q2 -10 7 -21.5t12 -23.5t14.5 -22.5t13.5 -18.5q11 -14 35.5 -23t55 -14t63.5 -6.5t61 -1.5q29 0 43 -27.5t14 -62.5t-14 -62.5t-43 -27.5h-174zM303 259q-40 0 -71.5 19.5t-51.5 54.5l117 -11l51 47v231q-9 8 -13.5 15t-4.5 18 q0 5 5.5 16t12.5 23t14 21t10 9q2 0 2 -4q0 -5 -1.5 -11.5t-1.5 -8.5q0 -16 9.5 -27.5t24.5 -13.5l-20 -59h-10v-190q10 8 29 21.5t40 26.5t40.5 22.5t31.5 9.5q11 0 24 -4t24.5 -11.5t19.5 -18t8 -24.5q0 -42 -30 -71t-74.5 -47t-94.5 -25.5t-90 -7.5zM479 404 q-10 0 -31.5 -8t-43.5 -20t-39 -25.5t-17 -24.5q0 -3 7.5 -3.5t9.5 -0.5q9 0 37.5 3t59.5 9t55 15t24 20t-6.5 18t-16.5 10.5t-20.5 5t-18.5 1.5z" />
<glyph unicode="&#x6bc;" horiz-adv-x="338" d="M215 180q5 0 10 5.5t9 13t6 15.5t2 13q0 7 -4.5 23.5t-11 34.5t-13.5 32.5t-12 18.5l57 145q29 -38 42 -87.5t13 -98.5q0 -37 -7.5 -74t-22.5 -71q-9 -21 -27.5 -47t-41.5 -49t-49 -38.5t-50 -15.5h-151q-12 0 -21.5 8t-15.5 21t-9 29.5t-3 34.5q0 35 12 61t37 26h251z M206 606l-104 104l104 104l104 -104zM309 -69q0 -66 -37 -106t-104 -40q-33 0 -54 9t-33 25.5t-16.5 40.5t-4.5 54q0 27 8 57t23.5 54.5t39.5 40.5t56 16q31 0 54 -13.5t38 -35.5t22.5 -49t7.5 -53zM177 -121q34 0 50 9.5t16 45.5q0 29 -17 51t-49 22q-14 0 -25.5 -8 t-19.5 -20t-13 -26.5t-5 -26.5q0 -16 5 -25.5t13.5 -14t20 -6t24.5 -1.5z" />
<glyph unicode="&#x6bc;" horiz-adv-x="440" d="M-40 0q-23 0 -35 27.5t-12 62.5t12 62.5t35 27.5h53.5t53 1t48 3.5t37.5 6.5q23 6 36.5 23.5t22.5 39t15 44t13 38.5q1 3 5 4.5t8.5 1.5t7.5 -2.5t2 -7.5q-2 -16 -3 -32t-1 -21q0 -35 22.5 -55t55.5 -29.5t70.5 -12t66.5 -2.5q25 0 37.5 -27.5t12.5 -62.5t-12.5 -62.5 t-37.5 -27.5h-115q-21 0 -43 9t-42.5 25t-38 37t-29.5 46q-9 -18 -25.5 -38.5t-37 -38t-43 -29t-44.5 -11.5h-95zM212 462l-104 104l104 104l104 -104zM327 -33q0 -66 -37 -106t-104 -40q-33 0 -54 9t-33 25.5t-16.5 40.5t-4.5 54q0 27 8 57t23.5 54.5t39.5 40.5t56 16 q31 0 54 -13.5t38 -35.5t22.5 -49t7.5 -53zM195 -85q34 0 50 9.5t16 45.5q0 29 -17 51t-49 22q-14 0 -25.5 -8t-19.5 -20t-13 -26.5t-5 -26.5q0 -16 5 -25.5t13.5 -14t20 -6t24.5 -1.5z" />
<glyph unicode="&#x6bc;" horiz-adv-x="907" d="M757 0q5 -92 -19.5 -169.5t-78.5 -133t-136.5 -86.5t-193.5 -31q-134 0 -207.5 68t-73.5 205q0 40 7 83t19.5 85t30 80.5t39.5 68.5q6 8 13 8q8 0 8 -4v-10q-14 -48 -28.5 -95t-14.5 -98q0 -60 19 -99.5t52.5 -63.5t80 -34t100.5 -10q40 0 85 6.5t88 21.5t79.5 38.5 t60.5 58.5q0 92 -24 156.5t-74 120.5l80 145q2 -10 7 -21.5t12 -23.5t14.5 -22.5t13.5 -18.5q11 -14 35.5 -23t55 -14t63.5 -6.5t61 -1.5q29 0 43 -27.5t14 -62.5t-14 -62.5t-43 -27.5h-174zM385 263l-104 104l104 104l104 -104zM489 -493q0 -66 -37 -106t-104 -40 q-33 0 -54 9t-33 25.5t-16.5 40.5t-4.5 54q0 27 8 57t23.5 54.5t39.5 40.5t56 16q31 0 54 -13.5t38 -35.5t22.5 -49t7.5 -53zM357 -545q34 0 50 9.5t16 45.5q0 29 -17 51t-49 22q-14 0 -25.5 -8t-19.5 -20t-13 -26.5t-5 -26.5q0 -16 5 -25.5t13.5 -14t20 -6t24.5 -1.5z" />
<glyph unicode="&#x6bd;" horiz-adv-x="338" d="M215 180q5 0 10 5.5t9 13t6 15.5t2 13q0 7 -4.5 23.5t-11 34.5t-13.5 32.5t-12 18.5l57 145q29 -38 42 -87.5t13 -98.5q0 -37 -7.5 -74t-22.5 -71q-9 -21 -27.5 -47t-41.5 -49t-49 -38.5t-50 -15.5h-151q-12 0 -21.5 8t-15.5 21t-9 29.5t-3 34.5q0 35 12 61t37 26h251z M304 -335l-104 104l104 107l107 -107zM94 -335l-107 104l107 107l104 -107zM199 -546l-104 107l104 104l104 -104z" />
<glyph unicode="&#x6bd;" horiz-adv-x="440" d="M-40 0q-23 0 -35 27.5t-12 62.5t12 62.5t35 27.5h53.5t53 1t48 3.5t37.5 6.5q23 6 36.5 23.5t22.5 39t15 44t13 38.5q1 3 5 4.5t8.5 1.5t7.5 -2.5t2 -7.5q-2 -16 -3 -32t-1 -21q0 -35 22.5 -55t55.5 -29.5t70.5 -12t66.5 -2.5q25 0 37.5 -27.5t12.5 -62.5t-12.5 -62.5 t-37.5 -27.5h-115q-21 0 -43 9t-42.5 25t-38 37t-29.5 46q-9 -18 -25.5 -38.5t-37 -38t-43 -29t-44.5 -11.5h-95zM308 -335l-104 104l104 107l107 -107zM98 -335l-107 104l107 107l104 -107zM203 -546l-104 107l104 104l104 -104z" />
<glyph unicode="&#x6bd;" horiz-adv-x="907" d="M757 0q5 -92 -19.5 -169.5t-78.5 -133t-136.5 -86.5t-193.5 -31q-134 0 -207.5 68t-73.5 205q0 40 7 83t19.5 85t30 80.5t39.5 68.5q6 8 13 8q8 0 8 -4v-10q-14 -48 -28.5 -95t-14.5 -98q0 -60 19 -99.5t52.5 -63.5t80 -34t100.5 -10q40 0 85 6.5t88 21.5t79.5 38.5 t60.5 58.5q0 92 -24 156.5t-74 120.5l80 145q2 -10 7 -21.5t12 -23.5t14.5 -22.5t13.5 -18.5q11 -14 35.5 -23t55 -14t63.5 -6.5t61 -1.5q29 0 43 -27.5t14 -62.5t-14 -62.5t-43 -27.5h-174zM490 262l-104 107l104 104l107 -104zM280 262l-107 107l107 104l104 -104z M385 473l-104 104l104 107l104 -107z" />
<glyph unicode="&#x6be;" horiz-adv-x="610" arabic-form="initial" d="M10 180q35 0 62.5 3t47.5 17q-15 21 -24.5 44.5t-9.5 46.5q0 57 24.5 108.5t59.5 96.5l-27 26q-4 4 -6 10.5t2 14.5l62 145q3 8 8 12.5t12 2.5l268 -222q27 -21 45.5 -42.5t30 -45t16.5 -50.5t5 -60q0 -22 -1 -48t-6 -51.5t-15.5 -48t-28.5 -37.5q-7 -6 -18 -9t-23 -4.5 t-23.5 -2t-19.5 -0.5q-56 0 -113.5 7t-99.5 22q-18 -17 -45 -37t-57 -37.5t-60.5 -29t-55.5 -11.5h-60q-23 0 -34.5 27.5t-11.5 62.5t11.5 62.5t34.5 27.5h50zM358 410q7 -17 10 -35.5t3 -36.5q0 -25 -6.5 -46t-17.5 -43q12 -6 36 -11.5t49.5 -9.5t48 -6.5t31.5 -2.5h8.5 t11 1.5t9.5 4.5t4 8q0 12 -11.5 29t-29.5 36t-39.5 38t-42.5 34.5t-38 26.5t-26 13zM236 440q-12 0 -28.5 -14t-32.5 -33t-27 -38.5t-11 -30.5q0 -12 10.5 -22t26 -16.5t33 -11t32.5 -6.5q9 3 22 10t25 15.5t20.5 18.5t8.5 20q0 15 -8.5 34t-21 35.5t-26 27.5t-23.5 11z" />
<glyph unicode="&#x6be;" horiz-adv-x="698" arabic-form="medial" d="M-40 0q-23 -1 -34.5 26.5t-11.5 62.5q0 18 3 34t8.5 29t14 20.5t20.5 7.5q71 0 114.5 1.5t69 4.5t37.5 7t21 8q2 18 18 57.5t39.5 87.5t52.5 100t58 94t54.5 69.5t42.5 27.5q14 0 24.5 -12t18 -30t12.5 -40t7.5 -42.5t3.5 -36.5t1 -23q0 -43 -13 -84.5t-33.5 -78 t-46.5 -66.5t-52 -50q66 4 124 5t120 1h90q15 0 25.5 -7.5t18 -20.5t11 -29t3.5 -34q0 -35 -14.5 -62.5t-43.5 -26.5h-82q-40 0 -79 4.5t-81 9.5q7 -12 13 -28.5t10 -34.5t6 -34.5t2 -26.5q0 -35 -7 -75.5t-24 -75t-44 -57t-68 -22.5q-30 0 -56.5 18.5t-48.5 48.5t-40 67 t-31 75t-19.5 72.5t-7.5 58.5h-206zM238 0q3 -33 14.5 -65t32 -57t48.5 -40.5t64 -15.5q6 0 17 1t22 4t19 8t8 13q0 35 -24.5 62.5t-60 47t-74 30t-66.5 12.5zM270 215q23 5 55 14.5t61 24.5t50 35.5t21 48.5q0 9 -2.5 26.5t-8 34.5t-14.5 30t-22 13t-28 -13.5t-29 -35 t-27.5 -47.5t-24.5 -51t-19 -46.5t-12 -33.5z" />
<glyph unicode="&#x6be;" horiz-adv-x="799" arabic-form="final" d="M735 0q-40 0 -78 1.5t-82 12.5q6 -4 12 -19.5t10 -34.5t6.5 -36t2.5 -24q0 -45 -8 -88t-25.5 -77t-44 -54.5t-63.5 -20.5q-35 0 -63.5 21.5t-51 55.5t-39.5 76.5t-28 85.5t-16.5 81.5t-6.5 64.5l-268 -45l63 72l224 82q3 19 19.5 62.5t41.5 97.5t56 111t61.5 104t58 77.5 t45.5 30.5q15 0 27.5 -16t22 -41.5t15 -58.5t5.5 -68q0 -57 -13 -100.5t-34 -76.5t-47.5 -57.5t-53.5 -44.5q59 8 109 7t102 -1h123q16 0 28 -7.5t19.5 -20.5t11.5 -29t4 -34q0 -35 -15.5 -62t-47.5 -27h-82zM551 338q0 9 -2.5 26.5t-7.5 34.5t-14 30t-21 13 q-14 0 -29.5 -15.5t-30 -40.5t-28.5 -55t-25.5 -58.5t-20 -52.5t-12.5 -36q23 9 55.5 24t62.5 34.5t51.5 43.5t21.5 52zM557 -152q0 35 -24 62t-59 46t-73 29.5t-67 12.5q2 -33 13.5 -64.5t31.5 -56.5t49 -40t66 -15q5 0 15 1t21 4t19 8t8 13z" />
<glyph unicode="&#x6bf;" horiz-adv-x="715" d="M-44 0q-22 0 -32.5 27.5t-10.5 62.5t10.5 62.5t32.5 27.5q34 0 62.5 -0.5t53.5 -0.5q38 0 80 4.5t84.5 15t84.5 27.5t79 43q-37 12 -70.5 28.5t-63.5 31.5t-56 25.5t-50 10.5q-25 0 -46 -8t-36.5 -17t-26.5 -17t-16 -8q-6 0 -7 3t-1 8q0 34 14.5 70t39 66t57 49t67.5 19 q30 0 67 -18.5t76.5 -42.5t79 -46.5t74.5 -31.5q52 -14 104.5 -20t106.5 -6l-51 -175q-25 0 -59 0.5t-76 -5t-89.5 -20t-99.5 -44.5q-34 -19 -72 -40.5t-75 -39.5t-71 -29.5t-61 -11.5h-103zM305 656l-104 104l104 104l104 -104zM435 -285l-104 104l104 107l107 -107z M225 -285l-107 104l107 107l104 -107zM330 -496l-104 107l104 104l104 -104z" />
<glyph unicode="&#x6bf;" horiz-adv-x="952" d="M-40 0q-23 0 -34.5 27.5t-11.5 62.5t11.5 62.5t34.5 27.5q60 0 114.5 2.5t107 15t105.5 38t110 71.5q-15 12 -40 23t-52.5 19.5t-54 14t-45.5 5.5q-25 0 -51 -11.5t-48 -23.5q-6 -5 -12 -11t-14 -6q-5 0 -5.5 4t-0.5 9q0 35 14 71t38 64.5t56.5 46.5t69.5 18 q44 0 87.5 -17t89.5 -38t95.5 -38t104.5 -17q45 0 87 6t87 14l-29 -153l-102 -29q3 -43 34.5 -60.5t71.5 -17.5h205q27 0 40 -27.5t13 -62.5t-13 -62.5t-40 -27.5h-166q-54 0 -89.5 21.5t-57.5 56t-32 79.5t-13 91q-84 -18 -157.5 -56t-141.5 -78t-135 -73t-138 -41h-93z M411 649l-104 104l104 104l104 -104zM548 -273l-104 104l104 107l107 -107zM338 -273l-107 104l107 107l104 -107zM443 -484l-104 107l104 104l104 -104z" />
<glyph unicode="&#x6bf;" horiz-adv-x="889" d="M700 0q-49 0 -86 19t-61.5 51t-36.5 73t-12 84q0 19 0.5 37t3.5 37q-92 -27 -166.5 -76.5t-127.5 -116t-81.5 -148t-28.5 -173.5q0 -93 35.5 -156t94.5 -102t134.5 -55.5t155.5 -16.5q110 0 218.5 5t218.5 10v-27q-63 -33 -126 -61.5t-124.5 -49.5t-122 -33t-119.5 -12 q-121 0 -206 27t-137.5 83.5t-76.5 142.5t-24 204q0 82 17.5 164.5t54.5 157.5t94.5 140.5t137.5 114.5q-11 6 -26 11t-31 9t-31 6.5t-26 2.5q-28 0 -53 -9t-46 -24.5t-39.5 -36t-33.5 -42.5q-2 57 14 107t48 86.5t79 57.5t107 21q29 0 56.5 -3.5t55 -8t55.5 -8t56 -3.5 q54 0 108 5t105 16l-68 -182l-108 -17v-26q0 -38 8.5 -59t24.5 -31.5t40.5 -12.5t55.5 -2h229q32 0 47 -27.5t15 -62.5t-15 -62.5t-47 -27.5h-209zM436 637l-104 104l104 104l104 -104zM529 -211l-104 104l104 107l107 -107zM319 -211l-107 104l107 107l104 -107zM424 -422 l-104 107l104 104l104 -104z" />
<glyph unicode="&#x6c1;" horiz-adv-x="338" arabic-form="initial" d="M303 256q0 -28 -4 -55t-16 -51q-9 -20 -27.5 -46t-41.5 -49t-49 -39t-50 -16h-151q-25 0 -37 27.5t-12 62.5t12 62.5t37 27.5h251q8 0 13.5 7t9 16.5t5 20t1.5 16.5q0 11 -1 26.5t-4 31.5t-7.5 30.5t-10.5 23.5l41 90q20 -43 30.5 -90.5t10.5 -95.5zM295 -76 q-15 -14 -31 -33.5t-29 -42t-21.5 -46t-8.5 -44.5q0 -14 2.5 -26.5t5.5 -26.5q21 -8 37.5 -15.5t27 -18t16 -27t5.5 -43.5q0 -15 -6.5 -27.5t-17 -21.5t-23.5 -14t-27 -5q-26 0 -42.5 13.5t-26.5 34t-13.5 44.5t-3.5 45q0 39 13 83.5t35.5 85.5t53 75.5t64.5 52.5z" />
<glyph unicode="&#x6c1;" horiz-adv-x="877" arabic-form="medial" d="M922 180q31 0 46.5 -27.5t15.5 -62.5t-15.5 -62.5t-46.5 -27.5q-18 -1 -28.5 -2t-19.5 -2t-19.5 -1.5t-27.5 -0.5q-40 0 -69.5 9.5t-53 24t-43 31t-38.5 31t-39.5 24t-46.5 9.5q-64 0 -108 -30.5t-74 -80.5t-50.5 -113t-38.5 -128q-15 33 -41 73t-58.5 74.5t-70.5 58 t-78 23.5h-62q-22 -1 -32.5 26.5t-10.5 62.5q0 18 2.5 34t8 29t13.5 20.5t19 7.5h50q49 0 87.5 -22t68.5 -56t52.5 -75t39.5 -80q4 35 18 76.5t35.5 84t50 82t62 70.5t71 49.5t76.5 18.5q30 0 55.5 -12.5t49 -30.5t46 -38.5t46.5 -37.5q25 -17 50 -23t47 -6h61zM379 -346 q-15 -13 -31 -33t-29 -42.5t-21.5 -45.5t-8.5 -43q0 -15 2.5 -28t5.5 -25q21 -9 37.5 -17t27 -19t16 -27.5t5.5 -43.5q0 -15 -6.5 -27t-17 -21t-24 -14t-26.5 -5q-26 0 -42.5 14t-26.5 34.5t-13.5 44.5t-3.5 44q0 12 1 25.5t3 25.5q4 28 20 65t38.5 73t49.5 66t54 42z" />
<glyph unicode="&#x6c1;" horiz-adv-x="762" arabic-form="final" d="M801 180q23 0 34 -27.5t11 -62.5t-11 -62.5t-34 -27.5h-137q-43 0 -74 10t-55 24.5t-43 32t-38 32t-39 24.5t-46 10q-55 0 -104.5 -31.5t-91 -78t-75 -99.5t-57.5 -96l-37 2q5 40 22.5 93.5t45 110t63.5 111.5t77.5 98.5t86.5 70t90 26.5q40 0 67.5 -12t48.5 -29.5 t38 -38.5t34 -38.5t37 -29.5t48 -12h139z" />
<glyph unicode="&#x6c3;" horiz-adv-x="762" d="M801 180q23 0 34 -27.5t11 -62.5t-11 -62.5t-34 -27.5h-137q-43 0 -74 10t-55 24.5t-43 32t-38 32t-39 24.5t-46 10q-55 0 -104.5 -31.5t-91 -78t-75 -99.5t-57.5 -96l-37 2q5 40 22.5 93.5t45 110t63.5 111.5t77.5 98.5t86.5 70t90 26.5q40 0 67.5 -12t48.5 -29.5 t38 -38.5t34 -38.5t37 -29.5t48 -12h139zM507 466l-104 104l104 104l107 -104zM297 466l-107 104l107 104l104 -104z" />
<glyph unicode="&#x6c4;" horiz-adv-x="713" d="M-51 -221q86 -15 174 -15q134 0 233.5 53t165.5 173h-20q-28 0 -60 3.5t-58.5 14.5t-44 32t-17.5 56q0 15 6.5 40.5t18 55t27 60t33 55t36 40t36.5 15.5q22 0 41.5 -22t35.5 -51.5t27.5 -60t16.5 -48.5h148q26 0 38.5 -27.5t12.5 -62.5t-12.5 -62.5t-38.5 -27.5h-164 q0 -12 -3.5 -25.5t-8.5 -27.5t-10.5 -26.5t-10.5 -22.5q-21 -42 -53 -86.5t-71.5 -82t-86.5 -61.5t-98 -24q-91 0 -164 30.5t-129 104.5zM440 225q-8 0 -16 -8t-14 -19t-9.5 -22.5t-3.5 -19.5q0 -12 7.5 -19.5t19 -11.5t24 -5t21.5 -1h13t15.5 1t13 3.5t5.5 7.5q0 12 -7 28 t-18 30.5t-24.5 25t-26.5 10.5zM384 -150q0 -66 -37 -106t-104 -40q-33 0 -54 9t-33 25.5t-16.5 40.5t-4.5 54q0 27 8 57t23.5 54.5t39.5 40.5t56 16q31 0 54 -13.5t38 -35.5t22.5 -49t7.5 -53zM252 -202q34 0 50 9.5t16 45.5q0 29 -17 51t-49 22q-14 0 -25.5 -8t-19.5 -20 t-13 -26.5t-5 -26.5q0 -16 5 -25.5t13.5 -14t20 -6t24.5 -1.5z" />
<glyph unicode="&#x6c5;" horiz-adv-x="713" arabic-form="final" d="M-51 -221q86 -15 174 -15q134 0 233.5 53t165.5 173h-20q-28 0 -60 3.5t-58.5 14.5t-44 32t-17.5 56q0 15 6.5 40.5t18 55t27 60t33 55t36 40t36.5 15.5q22 0 41.5 -22t35.5 -51.5t27.5 -60t16.5 -48.5h148q26 0 38.5 -27.5t12.5 -62.5t-12.5 -62.5t-38.5 -27.5h-164 q0 -12 -3.5 -25.5t-8.5 -27.5t-10.5 -26.5t-10.5 -22.5q-21 -42 -53 -86.5t-71.5 -82t-86.5 -61.5t-98 -24q-91 0 -164 30.5t-129 104.5zM440 225q-8 0 -16 -8t-14 -19t-9.5 -22.5t-3.5 -19.5q0 -12 7.5 -19.5t19 -11.5t24 -5t21.5 -1h13t15.5 1t13 3.5t5.5 7.5q0 12 -7 28 t-18 30.5t-24.5 25t-26.5 10.5zM670 -93l-37 -68l-339 40l29 68z" />
<glyph unicode="&#x6c6;" horiz-adv-x="713" arabic-form="final" d="M-51 -221q86 -15 174 -15q134 0 233.5 53t165.5 173h-20q-28 0 -60 3.5t-58.5 14.5t-44 32t-17.5 56q0 15 6.5 40.5t18 55t27 60t33 55t36 40t36.5 15.5q22 0 41.5 -22t35.5 -51.5t27.5 -60t16.5 -48.5h148q26 0 38.5 -27.5t12.5 -62.5t-12.5 -62.5t-38.5 -27.5h-164 q0 -12 -3.5 -25.5t-8.5 -27.5t-10.5 -26.5t-10.5 -22.5q-21 -42 -53 -86.5t-71.5 -82t-86.5 -61.5t-98 -24q-91 0 -164 30.5t-129 104.5zM440 225q-8 0 -16 -8t-14 -19t-9.5 -22.5t-3.5 -19.5q0 -12 7.5 -19.5t19 -11.5t24 -5t21.5 -1h13t15.5 1t13 3.5t5.5 7.5q0 12 -7 28 t-18 30.5t-24.5 25t-26.5 10.5zM340 734q19 -6 46 -26.5t47 -48.5q17 -23 30.5 -46t20.5 -49q8 18 14 32t13 26t16 23.5t22 25.5q11 12 24 23.5t25.5 20.5t23 14t16.5 5q0 -7 -1 -14q-1 -6 -2 -12.5t-5 -11.5q-20 -8 -43 -30.5t-39 -48.5q-6 -10 -14 -25t-16 -32.5t-15 -35 t-11 -32.5q-3 -11 -12 -10t-12 9q-16 38 -33.5 68.5t-34.5 54.5q-20 29 -41 42.5t-40 20.5q4 17 8 29q3 11 6.5 19.5t6.5 8.5z" />
<glyph unicode="&#x6c7;" horiz-adv-x="713" arabic-form="final" d="M-51 -221q86 -15 174 -15q134 0 233.5 53t165.5 173h-20q-28 0 -60 3.5t-58.5 14.5t-44 32t-17.5 56q0 15 6.5 40.5t18 55t27 60t33 55t36 40t36.5 15.5q22 0 41.5 -22t35.5 -51.5t27.5 -60t16.5 -48.5h148q26 0 38.5 -27.5t12.5 -62.5t-12.5 -62.5t-38.5 -27.5h-164 q0 -12 -3.5 -25.5t-8.5 -27.5t-10.5 -26.5t-10.5 -22.5q-21 -42 -53 -86.5t-71.5 -82t-86.5 -61.5t-98 -24q-91 0 -164 30.5t-129 104.5zM440 225q-8 0 -16 -8t-14 -19t-9.5 -22.5t-3.5 -19.5q0 -12 7.5 -19.5t19 -11.5t24 -5t21.5 -1h13t15.5 1t13 3.5t5.5 7.5q0 12 -7 28 t-18 30.5t-24.5 25t-26.5 10.5zM557 519l-61 37q-9 -10 -17.5 -18.5t-18 -17t-20.5 -18t-26 -20.5q-17 -13 -38.5 -26t-41.5 -24q-23 -13 -47 -25l-27 47q20 11 39 22q17 10 34 20.5t29 18.5q13 9 28 22t29 25q16 14 31 29q-17 14 -31 28q-12 12 -23 25t-13 23q-3 15 -3 28 q0 36 16 61.5t37.5 41t44.5 23t37 7.5q35 0 57 -20t22 -53q0 -26 -7.5 -50t-17 -43.5t-20 -33.5t-16.5 -20l59 -38zM442 701q0 -19 15.5 -35.5t29.5 -25.5q19 16 30 39t11 49q0 20 -10 30.5t-24 10.5q-6 0 -14.5 -4t-17 -12t-14.5 -21t-6 -31z" />
</font>
</defs>
</svg>
