<?xml version="1.0" standalone="no"?>
<!DOCTYPE svg PUBLIC "-//W3C//DTD SVG 1.1//EN" "http://www.w3.org/Graphics/SVG/1.1/DTD/svg11.dtd" >
<svg xmlns="http://www.w3.org/2000/svg" xmlns:xlink="http://www.w3.org/1999/xlink" version="1.1">
<metadata></metadata>
<defs>
<font id="madaextrabold_italic" horiz-adv-x="1087" >
<font-face units-per-em="2048" ascent="1638" descent="-410" />
<missing-glyph horiz-adv-x="409" />
<glyph horiz-adv-x="0" />
<glyph horiz-adv-x="682" />
<glyph unicode=" "  horiz-adv-x="409" />
<glyph unicode="&#x09;" horiz-adv-x="409" />
<glyph unicode="&#xa0;" horiz-adv-x="409" />
<glyph unicode="!" horiz-adv-x="708" d="M213 172q22 84 91.5 140.5t150.5 56.5t119 -56.5t16 -140.5q-23 -84 -92 -140.5t-150 -56.5t-119.5 56.5t-15.5 140.5zM379 481l121 611l65 280h316l-86 -280l-209 -611h-207z" />
<glyph unicode="&#x22;" horiz-adv-x="1124" d="M418 707l51 415l63 281h318l-86 -281l-174 -415h-172zM918 707l51 415l63 281h318l-86 -281l-174 -415h-172z" />
<glyph unicode="#" d="M172 379l53 201h174l86 217h-159l53 200h184l131 334h178l-127 -334h205l131 334h179l-130 -334h162l-53 -200h-186l-86 -217h172l-54 -201h-194l-148 -379h-182l148 379h-205l-148 -379h-182l150 379h-152zM582 580h204l86 217h-204z" />
<glyph unicode="$" d="M115 133l194 213q125 -119 258 -119q83 0 130.5 33t66.5 102q8 29 0.5 54.5t-34 49t-50 39.5t-67.5 42q-2 1 -3.5 2t-3.5 2q-37 21 -57.5 34t-54 37t-52 44t-39.5 50t-29 60t-8.5 70t11.5 84q41 152 151.5 253t264.5 130l55 211h209l-56 -205q160 -26 261 -170l-207 -180 q-42 53 -87.5 77.5t-105.5 24.5q-74 0 -118 -29.5t-62 -95.5q-7 -27 1 -50.5t34 -45t49.5 -35.5t67.5 -37q39 -22 59 -33.5t55.5 -36t54 -44.5t41 -51.5t30 -63t8 -74t-12.5 -90.5q-41 -152 -150 -256.5t-274 -138.5l-57 -217h-209l55 204q-92 11 -179 51.5t-140 104.5z" />
<glyph unicode="%" horiz-adv-x="1763" d="M158 936q51 196 175 309t273 113t213 -113t12 -309q-53 -197 -177 -311.5t-273 -114.5t-212.5 114.5t-10.5 311.5zM355 786.5q2 -55.5 21 -79t52 -23.5q52 0 101 59.5t85 190.5q65 246 -51 246q-53 0 -101.5 -58t-82.5 -188q-26 -92 -24 -147.5zM428 -27l1088 1383h180 l-1088 -1383h-180zM1147 399q51 196 175 309t273 113t213 -113t13 -309q-53 -197 -177.5 -311.5t-273.5 -114.5t-212.5 114.5t-10.5 311.5zM1344 249.5q2 -55.5 21 -79t52 -23.5q52 0 101.5 60t85.5 190q26 92 22.5 146.5t-22 77t-52.5 22.5q-53 0 -101.5 -58t-82.5 -188 q-26 -92 -24 -147.5z" />
<glyph unicode="&#x26;" horiz-adv-x="1380" d="M133.5 237.5q-0.5 56.5 13.5 118.5q34 128 121.5 215.5t218.5 157.5q-42 151 -8 277q39 147 169 249.5t296 102.5q152 0 220.5 -83.5t31.5 -223.5q-17 -62 -54 -117.5t-93 -102.5t-106.5 -81t-123.5 -76q75 -121 199 -232q136 133 233 314h287q-141 -245 -340 -447 q111 -65 205 -80l-143 -254q-170 38 -310 134q-224 -134 -458 -134l2 -2q-87 0 -155.5 20t-111 55.5t-68 84t-26 105zM449 375q-20 -72 20.5 -117t126.5 -45q82 0 174 47q-120 120 -199 266q-104 -77 -122 -151zM739 1006q-17 -68 2 -154q92 46 146.5 92.5t70.5 106.5 q12 47 -3.5 72.5t-59.5 25.5q-49 0 -93.5 -39t-62.5 -104z" />
<glyph unicode="'" horiz-adv-x="626" d="M418 707l51 415l63 281h318l-86 -281l-174 -415h-172z" />
<glyph unicode="(" horiz-adv-x="714" d="M238.5 228q11.5 164 58.5 341q71 263 200.5 490.5t321.5 445.5l176 -82q-316 -382 -444 -854q-127 -482 -14 -854l-220 -82q-49 145 -69.5 288t-9 307z" />
<glyph unicode=")" horiz-adv-x="714" d="M25 -285q318 384 442 854q129 480 16 854l219 82q50 -145 70 -288t8.5 -307.5t-59.5 -340.5q-70 -262 -199 -490t-321 -446z" />
<glyph unicode="*" horiz-adv-x="944" d="M369 1110l94 156l225 -49l92 243h164l-39 -246l254 52l8 -156l-252 -102l68 -213l-156 -97l-118 185l-215 -185l-107 97l178 213z" />
<glyph unicode="+" d="M219 565l62 221h360l100 375h230l-101 -375h361l-62 -221h-360l-100 -375h-230l101 375h-361z" />
<glyph unicode="," horiz-adv-x="626" d="M33 -236q123 39 202 105.5t101 144.5h-19q-78 0 -120.5 47.5t-20.5 128.5q21 78 91 128.5t153 50.5q103 0 138 -78.5t-3 -216.5q-46 -173 -177 -297.5t-329 -179.5z" />
<glyph unicode="-" horiz-adv-x="684" d="M199 408l59 223h508l-59 -223h-508z" />
<glyph unicode="." horiz-adv-x="626" d="M172 172q22 84 91.5 140.5t150.5 56.5t119 -56.5t16 -140.5q-23 -84 -92 -140.5t-150 -56.5t-119.5 56.5t-15.5 140.5z" />
<glyph unicode="/" horiz-adv-x="690" d="M-61 -328l874 1782h205l-875 -1782h-204z" />
<glyph unicode="0" d="M241.5 151.5q-78.5 174.5 6.5 505.5q87 324 260 496t391 172q216 0 295.5 -169.5t-4.5 -500.5q-88 -325 -262 -502.5t-389 -177.5l-2 2q-217 0 -295.5 174.5zM500 442.5q-11 -88.5 1 -135.5t36 -66.5t63 -19.5t73.5 19.5t72 66.5t74.5 135.5t71 216.5q34 127 44 214 t-3 131.5t-37.5 62.5t-63.5 18q-31 0 -58 -10.5t-57 -38.5t-57.5 -74.5t-57 -123t-56.5 -179.5q-34 -128 -45 -216.5z" />
<glyph unicode="1" d="M141 0l68 256h283l196 729h-244l52 195q199 36 360 120h231l-280 -1046h242l-68 -254h-840z" />
<glyph unicode="2" d="M76 0l45 180q111 83 168.5 127t147 113.5t136.5 110.5t107.5 97t92.5 95.5t59.5 83.5t37.5 82q24 91 -10 139.5t-117 48.5q-61 0 -123.5 -34.5t-136.5 -96.5l-125 170q131 108 245 157.5t251 49.5q194 0 284.5 -115t39.5 -303q-20 -78 -75.5 -162t-142.5 -172.5 t-168.5 -159.5t-195.5 -163q140 16 223 16h250l-72 -264h-921z" />
<glyph unicode="3" d="M86 158l199 198q100 -129 245 -129q94 0 159 38t85 108q14 42 6.5 75t-37 56t-95.5 35t-169 12l60 223q163 0 243.5 43.5t102.5 124.5q17 66 -14 101.5t-105 35.5q-64 0 -126 -27t-142 -85l-107 192q242 168 457 168q209 0 306 -94.5t52 -265.5q-52 -196 -293 -287l-2 -8 q108 -34 156.5 -114.5t17.5 -201.5q-33 -118 -124 -206t-212 -131.5t-255 -43.5v-2q-298 0 -408 185z" />
<glyph unicode="4" d="M121 305l59 219l674 776h389l-203 -755h148l-66 -240h-145l-82 -305h-295l82 305h-561zM487 545h258l52 196q35 119 92 295h-8q-36 -52 -166 -225z" />
<glyph unicode="5" d="M82 156l194 198q106 -129 242 -129q100 0 169 50t95 145q24 92 -15.5 142t-127.5 50q-54 0 -95.5 -13.5t-111.5 -51.5l-115 90l211 659h748l-72 -264h-475l-80 -227q77 29 146 29q116 0 196.5 -43.5t115.5 -133t-3 -227.5q-38 -140 -133 -245t-217 -157.5t-252 -52.5 l-4 -2q-280 0 -416 183z" />
<glyph unicode="6" d="M216 381q2 110 38 244q47 174 127 311.5t177 221t201.5 126.5t209.5 43q231 0 346 -158l-217 -188q-24 39 -72.5 65.5t-103.5 26.5q-247 0 -369 -395q65 62 148.5 99.5t144.5 37.5q174 0 253.5 -101t26.5 -300q-54 -199 -212 -319t-343 -120l7 2q-78 0 -143 22.5 t-115.5 73t-78 124.5t-25.5 184zM508 471q-19 -137 17 -196.5t106 -59.5q68 0 125.5 50t85.5 151q47 178 -117 178q-110 0 -217 -123z" />
<glyph unicode="7" d="M324 0q108 331 242.5 559.5t377.5 474.5h-575l71 264h912l-54 -194q-99 -90 -174.5 -170t-137 -164.5t-106 -161t-88 -178.5t-76.5 -196t-77 -234h-315z" />
<glyph unicode="8" d="M172 332q52 199 305 317l2 8q-142 131 -94 306q44 165 187.5 263.5t330.5 98.5q180 0 264 -98t41 -260q-23 -87 -90 -160t-153 -121l-2 -8q192 -123 133 -340q-42 -157 -198 -260t-363 -103h-3q-196 0 -298.5 100t-61.5 257zM453 371q-22 -80 20.5 -127t124.5 -47v-2 q73 0 128.5 39.5t76.5 115.5q5 19 5.5 36t-5.5 32t-13 27.5t-23 25.5t-29 22.5t-38 22.5t-42 21.5t-48 23.5q-6 2 -14 6q-117 -87 -143 -196zM664 963q-19 -70 21.5 -114t137.5 -87v2q100 91 125 182q20 74 -9 118t-99 44q-60 0 -108.5 -37t-67.5 -108z" />
<glyph unicode="9" d="M121 131l217 188q25 -39 73.5 -66.5t102.5 -27.5q114 0 209.5 94.5t159.5 305.5q-64 -64 -148.5 -102t-148.5 -38q-174 0 -254 101.5t-27 300.5q36 132 122.5 233t198.5 153t232 52q78 0 143 -22.5t115.5 -73t78 -124t25.5 -183.5t-38 -244q-47 -174 -127 -311.5 t-176.5 -221.5t-201.5 -127t-210 -43v-2q-231 0 -346 158zM592 885q-47 -178 117 -178q111 0 221 124q30 254 -127 254q-68 0 -125.5 -49.5t-85.5 -150.5z" />
<glyph unicode=":" horiz-adv-x="626" d="M172 172q22 84 91.5 140.5t150.5 56.5t119 -56.5t16 -140.5q-23 -84 -92 -140.5t-150 -56.5t-119.5 56.5t-15.5 140.5zM172 827q22 84 91.5 140.5t150.5 56.5t119 -56.5t16 -140.5q-23 -84 -92 -140t-150 -56t-119.5 56t-15.5 140z" />
<glyph unicode=";" horiz-adv-x="626" d="M33 -236q123 39 202 105.5t101 144.5h-19q-78 0 -120.5 47.5t-20.5 128.5q21 78 91 128.5t153 50.5q103 0 138 -78.5t-3 -216.5q-46 -173 -177 -297.5t-329 -179.5zM172 827q22 84 91.5 140.5t150.5 56.5t119 -56.5t16 -140.5q-23 -84 -92 -140t-150 -56t-119.5 56 t-15.5 140z" />
<glyph unicode="&#x3c;" d="M221 571l60 217l1046 365l-70 -258l-380 -115l-306 -96l-2 -8l252 -96l322 -115l-70 -258z" />
<glyph unicode="=" d="M221 324l62 221h948l-62 -221h-948zM221 805l62 221h948l-62 -221h-948z" />
<glyph unicode="&#x3e;" d="M125 207l70 258l380 115l304 96l2 8l-250 96l-322 115l70 258l852 -365l-60 -217z" />
<glyph unicode="?" horiz-adv-x="956" d="M309 176q22 84 91.5 140.5t150.5 56.5t119 -56.5t16 -140.5q-23 -84 -92 -140t-150 -56t-119.5 56t-15.5 140zM406 1210q214 187 446 187q176 0 260 -88.5t37 -266.5q-14 -51 -43 -97t-65 -82t-77.5 -71t-81 -69.5t-73.5 -69.5t-59 -79.5t-33 -92.5h-275v4q9 77 50 147 t94.5 121t107 96t96 90.5t52.5 84.5q17 58 -11.5 89.5t-87.5 31.5q-51 0 -98 -23t-108 -69z" />
<glyph unicode="@" horiz-adv-x="1861" d="M185 72q-22 146 28 344q75 280 261.5 500t429.5 337t497 117q132 0 238 -35t176 -99.5t110 -155.5t41 -203t-31 -242q-36 -135 -108 -246t-159.5 -178.5t-179 -104t-175.5 -36.5q-91 0 -145.5 41.5t-53.5 113.5h-4q-56 -60 -136.5 -98.5t-144.5 -38.5q-122 0 -174 85.5 t-14 225.5q34 127 119.5 243t202.5 189.5t231 73.5q106 0 125 -100h4l53 86h193l-217 -455q-87 -170 45 -170q98 0 197.5 102.5t142.5 262.5q23 89 25.5 168.5t-21.5 151t-74.5 122.5t-138 81t-205.5 30q-131 0 -270 -54.5t-262 -150.5t-221.5 -240t-143.5 -311 q-38 -151 -21.5 -263t81.5 -185.5t161 -109.5t217 -36q75 0 164.5 22t163.5 56l22 -170q-202 -96 -428 -96l2 -6q-158 0 -283.5 47t-211.5 143t-108 242zM879 418q-17 -64 1 -97.5t68 -33.5l-2 -2q61 0 154 90l121 272q-16 55 -78 55q-82 0 -160 -92.5t-104 -191.5z" />
<glyph unicode="A" horiz-adv-x="1179" d="M-14 0l772 1333h379l57 -1333h-334l6 307h-397l-160 -307h-323zM598 553h272l2 115v35q0 90 7 280q1 19 2 56.5t2 56.5h-9q-192 -381 -217 -428z" />
<glyph unicode="B" horiz-adv-x="1243" d="M156 0l356 1333h463q72 0 131 -6.5t112.5 -22t89 -40t60.5 -60.5q24 -36 26 -86q0 -5 1 -10q0 -46 -13 -104q-26 -93 -96 -176t-156 -113l-2 -8q100 -27 144 -107q25 -45 24 -106q0 -46 -14 -101q-26 -99 -87 -175.5t-145 -123.5t-183 -70.5t-210 -23.5h-501zM537 244 h159q239 0 285 170q7 27 7 49q0 46 -32 71q-48 37 -170 37h-161zM686 803h135q100 0 160.5 40t79.5 111q7 24 7 43q0 39 -26 61q-40 32 -141 32h-137z" />
<glyph unicode="C" horiz-adv-x="1193" d="M250 282q-20 66 -20 145q0 104 34 232q43 162 130.5 296t198 221.5t238 135.5t254.5 48q122 0 213 -49t146 -125l-219 -203q-42 51 -89.5 77.5t-113.5 26.5q-136 0 -257.5 -112.5t-172.5 -302.5q-25 -97 -25 -173q0 -79 28 -137q55 -112 198 -112q144 0 290 121l115 -199 q-224 -197 -485 -197l-4 2q-174 0 -293.5 76.5t-165.5 228.5z" />
<glyph unicode="D" horiz-adv-x="1304" d="M156 0l358 1335h381q156 0 267.5 -38t181 -118.5t81.5 -205.5q3 -27 3 -56q0 -106 -35 -243q-91 -336 -313 -505t-525 -169h-399zM541 256l45 -2q175 0 298.5 97.5t184.5 322.5q25 93 27 164v10q0 64 -18 106q-20 46 -59.5 75t-90.5 40.5t-119 11.5h-47z" />
<glyph unicode="E" horiz-adv-x="1126" d="M156 0l356 1331h844l-70 -264h-526l-68 -252h449l-70 -264h-448l-78 -287h547l-72 -264h-864z" />
<glyph unicode="F" horiz-adv-x="1081" d="M156 0l356 1333h850l-70 -264h-534l-80 -295h457l-70 -264h-457l-137 -510h-315z" />
<glyph unicode="G" horiz-adv-x="1310" d="M256 280q-21 66 -21 148q0 103 33 229q43 162 131 296t201 221.5t244.5 135.5t265.5 48q254 0 379 -174l-219 -203q-44 51 -93.5 77.5t-127.5 26.5q-152 0 -276.5 -111.5t-176.5 -303.5q-24 -93 -24 -167q0 -87 34 -146q63 -109 246 -109q85 0 141 35l58 217h-215l67 258 h494l-166 -621q-93 -71 -222.5 -116.5t-263.5 -45.5h-2q-188 0 -314 76.5t-173 228.5z" />
<glyph unicode="H" horiz-adv-x="1384" d="M156 0l356 1333h315l-137 -510h443l137 510h315l-356 -1333h-316l148 549h-443l-147 -549h-315z" />
<glyph unicode="I" horiz-adv-x="624" d="M156 0l356 1333h315l-356 -1333h-315z" />
<glyph unicode="J" horiz-adv-x="1048" d="M90 219l256 160q18 -66 56.5 -98.5t89.5 -32.5q82 0 135.5 51t87.5 178l229 858h316l-236 -884q-27 -100 -76 -184.5t-119 -150.5t-164.5 -103.5t-203.5 -37.5h2h-2q-153 0 -242.5 60t-128.5 184z" />
<glyph unicode="K" horiz-adv-x="1265" d="M156 0l358 1333h315l-143 -530h8l523 530h346l-545 -534l264 -799h-346l-170 549l-201 -199l-94 -350h-315z" />
<glyph unicode="L" horiz-adv-x="1067" d="M156 0l356 1333h315l-284 -1069h520l-72 -264h-835z" />
<glyph unicode="M" horiz-adv-x="1568" d="M156 0l354 1333h342l57 -579q2 -39 4.5 -120.5t4.5 -121.5h8q26 42 71.5 123.5t67.5 118.5l360 579h342l-356 -1333h-287l123 463q32 120 164 459h-8l-195 -318l-313 -491h-174l-49 491l-21 318h-8q-54 -355 -82 -459l-123 -463h-282z" />
<glyph unicode="N" horiz-adv-x="1366" d="M156 0l354 1333h324l159 -643l51 -295h9q6 34 23.5 143t33.5 193t35 156l119 446h301l-357 -1333h-323l-160 645l-51 293h-8q-6 -36 -18.5 -113.5t-21 -128.5t-22.5 -121t-29 -126l-118 -449h-301z" />
<glyph unicode="O" horiz-adv-x="1404" d="M274 672q57 214 176 370t277 235t340 79q276 0 394 -182q68 -105 68 -257q0 -110 -36 -245q-87 -323 -304.5 -510t-492.5 -187t-392 187q-67 107 -67 259q0 113 37 251zM590 362q46 -114 178 -114t240 114.5t161 309.5q27 102 27 180q0 72 -22 124q-48 109 -181 109 t-239 -109.5t-158 -303.5q-28 -104 -28 -185q0 -71 22 -125z" />
<glyph unicode="P" horiz-adv-x="1228" d="M156 0l356 1333h467q76 0 139 -9t119 -30t93.5 -54t62 -81t24.5 -112t-20 -146q-31 -115 -96.5 -204.5t-153 -143.5t-188 -81.5t-209.5 -27.5h-160l-119 -444h-315zM657 694h144q232 0 286 207q10 34 10 62q0 49 -32 77q-49 42 -170 43h-133z" />
<glyph unicode="Q" horiz-adv-x="1404" d="M274 672q57 214 176 370t277 235t340 79q276 0 394 -182q68 -105 68 -257q0 -110 -36 -245q-69 -261 -229 -436.5t-371 -233.5q26 -66 96 -96.5t160 -30.5q77 0 154 25l-7 -230q-95 -45 -252 -45l3 -4q-209 0 -334 101t-156 268q-203 45 -280 224q-39 91 -39 209 q0 112 36 249zM586 349q45 -116 178 -116t241.5 116.5t163.5 324.5q27 102 27 180q0 72 -22 124q-48 109 -181 109t-239 -109.5t-158 -303.5q-30 -115 -30 -202q0 -71 20 -123z" />
<glyph unicode="R" horiz-adv-x="1265" d="M156 0l358 1335h487q74 0 135.5 -8.5t116.5 -28.5t91.5 -52t60.5 -79q24 -46 24 -107q0 -63 -20 -145q-74 -272 -334 -385l158 -528h-352l-123 469h-162l-125 -471h-315zM666 723h149q237 0 287 192q9 32 9 57q0 49 -32 74q-48 39 -168 39h-147z" />
<glyph unicode="S" horiz-adv-x="1142" d="M119 166l237 217q57 -62 133 -98.5t154 -36.5q179 0 211 119q3 14 3.5 25.5t-3.5 22t-8.5 18.5t-15 17t-19 15t-25 14.5t-28.5 14t-33 14.5q-3 1 -9 4t-9 4l-152 72q-49 22 -86.5 54t-65.5 78q-29 46 -33 104q-1 12 0 24q0 48 13 106q45 170 212.5 287t375.5 117 q119 0 221.5 -45t165.5 -131l-213 -199q-57 52 -115 77t-133 25t-126 -28.5t-66 -81.5q-3 -13 -3 -24q0 -32 25 -53q34 -28 123 -67q8 -5 16 -8l148 -67q183 -82 184 -256q0 -50 -16 -107q-48 -175 -218 -296.5t-403 -121.5l4 -2q-132 0 -251 50t-195 143z" />
<glyph unicode="T" horiz-adv-x="1142" d="M336 1069l70 264h1042l-70 -264h-362l-287 -1069h-315l284 1069h-362z" />
<glyph unicode="U" horiz-adv-x="1366" d="M313 627l191 708h315l-198 -741q-30 -105 -31 -176q0 -14 2 -26q7 -76 45.5 -109t114.5 -33q115 0 193.5 80t127.5 264l199 741h305l-191 -708q-90 -335 -264.5 -493.5t-441.5 -158.5h-2q-268 -1 -361 159q-48 82 -48 209q0 121 44 284z" />
<glyph unicode="V" horiz-adv-x="1148" d="M342 1333h334l-8 -610v-18q0 -55 -4 -213q-5 -158 -5 -195h9q42 79 113 221t104 205l315 610h324l-758 -1333h-381z" />
<glyph unicode="W" horiz-adv-x="1671" d="M270 0l109 1333h323l-75 -612q-46 -321 -62 -422h8q55 117 193 422l303 612h266l-24 -612q-6 -106 -33 -420h8q12 31 72.5 185.5t91.5 234.5l252 612h301l-590 -1333h-397l35 584q14 176 30 311h-8q-106 -246 -137 -311l-274 -584h-392z" />
<glyph unicode="X" horiz-adv-x="1173" d="M23 0l548 686l-170 647h353l45 -241q8 -34 20.5 -109t18.5 -106h8q73 116 143 215l162 241h338l-522 -661l186 -672h-352l-56 262q-21 105 -38 221h-9q-31 -49 -86.5 -129.5t-62.5 -91.5l-189 -262h-337z" />
<glyph unicode="Y" horiz-adv-x="1085" d="M340 1333h338l35 -299q4 -46 13 -144t13 -153h9q29 46 92.5 144.5t97.5 152.5l192 299h330l-633 -862l-127 -471h-315l125 471z" />
<glyph unicode="Z" horiz-adv-x="1107" d="M72 0l51 190l813 879h-522l69 264h912l-52 -190l-811 -879h582l-72 -264h-970z" />
<glyph unicode="[" horiz-adv-x="714" d="M92 -311l473 1759h441l-45 -166h-205l-383 -1427h205l-46 -166h-440z" />
<glyph unicode="\" horiz-adv-x="690" d="M371 -328l80 1782h204l-80 -1782h-204z" />
<glyph unicode="]" horiz-adv-x="714" d="M14 -311l45 168h205l383 1427h-205l45 166h441l-473 -1761h-441z" />
<glyph unicode="^" d="M250 559l536 813h252l99 -813h-258l-21 252l-18 276h-9l-165 -276l-158 -252h-258z" />
<glyph unicode="_" horiz-adv-x="1024" d="M-53 -291l47 176h975l-47 -176h-975z" />
<glyph unicode="`" horiz-adv-x="1138" d="M567 1493l269 209l217 -377l-197 -154z" />
<glyph unicode="a" horiz-adv-x="1085" d="M156 285q43 161 201.5 250.5t465.5 121.5q3 19 3 35q0 101 -121 101q-104 0 -291 -91l-54 207q256 133 474 133q200 0 274 -115q40 -62 39 -158q0 -83 -29 -191l-153 -578h-258l6 102h-8q-178 -127 -324 -127h-4q-136 -1 -196 89q-38 57 -38 130q0 43 13 91zM463 309 q-4 -15 -4 -28q1 -24 15 -39q22 -23 75 -23l-2 2q46 0 86 20t92 62l45 166q-277 -39 -307 -160z" />
<glyph unicode="b" horiz-adv-x="1177" d="M131 0l383 1432h315l-92 -345l-49 -153q146 108 291 108q183 0 253 -140q36 -73 37 -173q0 -90 -30 -201q-34 -128 -98 -234.5t-142 -175t-164 -106t-169 -37.5q-141 0 -228 134h-8l-53 -109h-246zM522 295q54 -62 137 -62q79 0 148 71t108 218q21 81 21 137q0 37 -9 62 q-23 65 -108 65q-83 0 -188 -86z" />
<glyph unicode="c" horiz-adv-x="960" d="M200 224q-15 52 -16 114q0 79 25 174q33 123 103.5 225t162.5 168.5t198 102.5t214 36q175 0 268 -108l-201 -203q-52 55 -116 55q-106 0 -189 -76t-117 -204q-15 -56 -15 -103q0 -57 23 -99q41 -76 136 -77q86 0 196 74l68 -207q-169 -121 -369 -121v5q-144 0 -240.5 63 t-130.5 181z" />
<glyph unicode="d" horiz-adv-x="1177" d="M217 510q43 161 138 285t207 186.5t220 62.5q78 0 127.5 -26t89.5 -78l29 152l90 342h316l-383 -1432h-258l4 98h-9q-70 -56 -149.5 -90.5t-149.5 -34.5l3 2q-191 1 -266 143q-40 76 -40 181q0 93 31 209zM543 514q-23 -84 -23 -142q0 -136 123 -136q92 0 178 86l109 405 q-50 61 -144 61q-73 0 -140.5 -69.5t-102.5 -204.5z" />
<glyph unicode="e" horiz-adv-x="1064" d="M202 221q-16 54 -17 118q0 78 24 171q32 120 100.5 222t154 168.5t182.5 104t190 37.5q107 0 181.5 -37.5t108.5 -103.5q34 -65 40 -155q1 -14 0 -29q0 -77 -25 -164q-19 -74 -49 -137h-603q-1 -10 -1 -20q0 -88 49 -132q54 -50 155 -49q102 0 234 66l51 -189 q-93 -55 -198 -86t-195 -31q-147 0 -246.5 63.5t-135.5 182.5zM541 623h350q10 37 10 67q0 37 -15 64q-27 49 -110 49q-71 0 -134.5 -46.5t-100.5 -133.5z" />
<glyph unicode="f" horiz-adv-x="708" d="M184 0l205 770h-135l63 236l138 10l12 43q22 84 61 153t98 124.5t143 86.5t187 31q107 0 197 -35l-119 -231q-48 20 -96 20q-56 0 -93.5 -32.5t-58.5 -106.5l-14 -51h178l-65 -248h-178l-207 -770h-316z" />
<glyph unicode="g" horiz-adv-x="1101" d="M27 -172q35 127 198 203l2 8q-55 45 -55 114q0 27 8 58q13 52 58 102.5t106 87.5l2 9q-47 40 -68 109q-10 34 -10 71q0 39 11 82q33 118 117.5 203.5t189.5 125t219 39.5q89 0 153 -24h375l-61 -230h-160q6 -22 6 -49q0 -34 -10 -75q-30 -114 -107 -192t-175.5 -113 t-213.5 -35q-54 0 -118 18q-42 -29 -54 -72q-9 -38 20 -54.5t109 -16.5h162q194 0 277 -63q58 -43 58 -122q0 -34 -11 -75q-43 -162 -227.5 -264.5t-446.5 -102.5h-2h2q-121 0 -207 25.5t-128 84.5q-28 39 -28 88q0 28 9 60zM297 -123q-3 -12 -3 -23q0 -37 39 -59 q51 -28 152 -28l2 2q97 0 169 32.5t85 83.5q2 10 2 19q0 28 -23 40q-32 15 -110 15h-98q-98 0 -141 12q-63 -48 -74 -94zM571 674q-9 -34 -9 -62q0 -35 15 -60q26 -42 85 -42t105.5 42.5t66.5 121.5q9 34 9 61q0 33 -13 55q-26 41 -85 41t-106 -40.5t-68 -116.5z" />
<glyph unicode="h" horiz-adv-x="1175" d="M129 0l385 1432h315l-92 -345l-63 -182q185 137 348 137q108 0 167 -50t66 -142q1 -16 2 -33q0 -81 -28 -186l-170 -631h-316l160 590q16 64 16 104q0 26 -7 41q-17 39 -81 39q-52 0 -95 -21t-109 -71l-183 -682h-315z" />
<glyph unicode="i" horiz-adv-x="573" d="M129 0l272 1018h316l-273 -1018h-315zM461 1323q19 70 82 116t141 46t117 -46q26 -31 26 -73q0 -20 -6 -43q-20 -71 -82.5 -116.5t-140.5 -45.5t-118 46q-26 31 -26 72q0 20 7 44z" />
<glyph unicode="j" horiz-adv-x="575" d="M-207 -371l119 232q44 -13 76 -13q58 0 90.5 37t54.5 123l270 1008h316l-268 -998q-23 -88 -61 -159.5t-94.5 -131t-140 -92t-186.5 -32.5l2 -2q-110 0 -178 28zM467 1321q19 70 82 116t141 46t117 -46q26 -31 26 -73q0 -20 -6 -43q-20 -71 -82.5 -116.5t-140.5 -45.5 t-118 46q-26 31 -26 72q0 20 7 44z" />
<glyph unicode="k" horiz-adv-x="1132" d="M129 0l381 1434h309l-215 -803h8l416 389h342l-471 -420l223 -598h-342l-116 387l-160 -139l-66 -250h-309z" />
<glyph unicode="l" horiz-adv-x="591" d="M192 139q-1 10 -1 21q0 72 24 166l295 1104h315l-297 -1117q-6 -23 -7 -40q1 -15 7 -25q12 -20 33 -21q21 0 37 4l-25 -231q-70 -25 -163 -25l-2 -4q-104 0 -158 44.5t-58 123.5z" />
<glyph unicode="m" horiz-adv-x="1761" d="M129 0l270 1022h258l-12 -129h8q91 72 173 111.5t175 39.5q201 0 236 -167q101 82 185.5 126t176.5 44q108 0 168 -50.5t68 -142.5q2 -18 2 -37q0 -79 -27 -182l-170 -631h-315l160 590q16 64 16 104q0 26 -7 41q-17 39 -79 39q-74 0 -190 -94l-183 -682h-315l160 590 q16 64 16 104q0 26 -7 41q-17 39 -81 39q-72 0 -188 -94l-183 -682h-315z" />
<glyph unicode="n" horiz-adv-x="1177" d="M129 0l272 1018h258l-12 -127h8q195 151 367 151q108 0 167 -50t66 -142q1 -16 2 -33q0 -81 -28 -186l-170 -631h-316l160 590q16 64 16 104q0 26 -7 41q-17 39 -81 39q-52 0 -95 -21t-109 -71l-183 -682h-315z" />
<glyph unicode="o" horiz-adv-x="1138" d="M201 220q-18 55 -18 120q0 76 24 168q33 123 101.5 225t156 168.5t186.5 102.5t197 36q131 0 226.5 -63t134.5 -181q18 -55 18 -122q0 -76 -23 -166q-43 -163 -148 -286.5t-233.5 -185t-259.5 -61.5h-2q-131 0 -226.5 63.5t-133.5 181.5zM517 304q25 -76 112 -75.5 t151 74.5t99 205q21 76 21 133q0 40 -10 71q-25 76 -112 76t-151 -74.5t-99 -205.5q-21 -76 -22 -133q1 -40 11 -71z" />
<glyph unicode="p" horiz-adv-x="1177" d="M29 -373l372 1389h258l-4 -98h9q166 122 317 122q182 0 251 -140q35 -73 35 -172q0 -91 -30 -204q-68 -251 -233.5 -401t-339.5 -150q-128 0 -211 107l-31 -160l-78 -293h-315zM522 293q54 -62 137 -62q79 0 148 71t108 218q21 81 21 137q0 36 -9 62q-23 65 -108 65 q-83 0 -188 -86z" />
<glyph unicode="q" horiz-adv-x="1177" d="M211 508q43 161 138 285t207 186.5t220 62.5q83 0 139 -29t99 -95h8l53 100h246l-373 -1391h-315l78 307l53 152q-62 -50 -138 -80.5t-141 -30.5q-191 0 -265 143q-40 75 -40 180q0 94 31 210zM535 514q-23 -84 -23 -142q0 -136 123 -136q92 0 178 86l109 405 q-50 61 -144 61q-73 0 -140.5 -69.5t-102.5 -204.5z" />
<glyph unicode="r" horiz-adv-x="827" d="M129 0l272 1018h258l-24 -176h8q80 99 171 150.5t171 51.5q74 0 119 -20l-127 -272q-66 16 -107 16q-63 0 -135 -45t-135 -139l-156 -584h-315z" />
<glyph unicode="s" horiz-adv-x="911" d="M68 117l192 196q112 -106 232 -106t143 80q2 6 2 12q0 38 -59 71q-22 12 -78 36q-6 2 -17.5 7t-17.5 7q-194 82 -194 230q0 33 10 69q38 145 169 233t308 88q191 0 332 -129l-193 -188q-96 86 -190 86q-108 0 -127 -74q-5 -18 1.5 -33t25 -27t38 -21t52.5 -22q5 -2 8 -3 q5 -3 11.5 -5.5t15 -6t13.5 -5.5q28 -11 50.5 -22t47 -27t42.5 -33t33 -40.5t22 -50t6.5 -60.5t-10.5 -72q-38 -145 -174 -238.5t-336 -93.5h-6q-99 0 -195 39t-157 103z" />
<glyph unicode="t" horiz-adv-x="794" d="M238 772l63 236l160 12l108 268h260l-71 -268h239l-65 -248h-240l-104 -391q-10 -38 -10 -66q0 -92 98 -92q29 0 98 19l-12 -230q-136 -37 -240 -37h-2q-184 1 -243 107q-32 58 -32 139q0 69 23 156l107 395h-137z" />
<glyph unicode="u" horiz-adv-x="1169" d="M199 166q-1 16 -1 33q0 81 27 186l170 631h316l-158 -590q-17 -66 -17 -106q0 -24 6 -39q16 -39 81 -39q54 0 97.5 23.5t102.5 82.5l178 670h316l-273 -1018h-258l15 139h-8q-89 -80 -176.5 -122t-186.5 -42l4 -2q-109 0 -168.5 50.5t-66.5 142.5z" />
<glyph unicode="v" horiz-adv-x="1083" d="M297 1018h317v-471q-2 -102 -6 -314h8q30 59 162 314l252 471h301l-602 -1018h-364z" />
<glyph unicode="w" horiz-adv-x="1601" d="M301 0l16 1018h314l-31 -459q-5 -48 -18.5 -149.5t-18.5 -155.5h8q88 203 142 305l229 459h272l-12 -459q-2 -59 -9.5 -173t-8.5 -132h8q19 45 61 148t66 157l213 459h291l-512 -1018h-369l19 391q9 143 26 299h-8q-97 -229 -129 -299l-188 -391h-361z" />
<glyph unicode="x" horiz-adv-x="1067" d="M29 0l454 530l-161 488h337l43 -158q6 -28 18.5 -87.5t18.5 -88.5h9q110 169 114 176l107 158h327l-434 -524l178 -494h-338l-51 162q-8 29 -23.5 88t-23.5 88h-8q-20 -28 -123 -176l-117 -162h-327z" />
<glyph unicode="y" horiz-adv-x="1079" d="M0 -375l121 240q54 -12 63 -12q132 0 207 124l29 52l-127 989h317l27 -424q2 -45 2 -116.5t-2 -168.5v-4h8q87 170 150 289l231 424h301l-625 -1022q-89 -137 -165.5 -218t-173 -126t-216.5 -45l-2 -2q-77 0 -145 20z" />
<glyph unicode="z" horiz-adv-x="950" d="M78 0l45 168l577 602h-368l65 248h762l-45 -168l-577 -602h430l-66 -248h-823z" />
<glyph unicode="{" horiz-adv-x="714" d="M193 475l49 184q92 3 146 46t69 104q17 63 35 167.5t38 178.5q43 164 122.5 229.5t219.5 65.5h134l-45 -166h-37q-62 0 -91.5 -27.5t-52.5 -111.5q-16 -57 -40 -164.5t-40 -165.5q-30 -115 -81 -168.5t-138 -73.5l-2 -8q76 -19 98 -70.5t-6 -170.5q-18 -69 -52 -178.5 t-46 -151.5q-22 -85 -8 -112t76 -27h37l-46 -166h-133l2 -4q-140 0 -183.5 65.5t-0.5 229.5q20 75 58 179.5t55 166.5q15 62 -15 104t-122 45z" />
<glyph unicode="|" horiz-adv-x="555" d="M39 -512l549 2048h205l-549 -2048h-205z" />
<glyph unicode="}" horiz-adv-x="714" d="M14 -311l45 170h37q62 0 91.5 27.5t52.5 111.5q16 57 39.5 164t39.5 166q30 114 81.5 167.5t138.5 73.5l2 9q-76 19 -98 70.5t6 170.5q18 69 52 178.5t46 151.5q22 85 8 112t-76 27h-37l45 166h134q141 0 185 -65.5t1 -229.5q-20 -75 -58 -179.5t-55 -166.5 q-15 -62 14.5 -104t120.5 -45l-49 -185q-93 -3 -146.5 -45.5t-68.5 -103.5q-17 -63 -35 -167.5t-38 -178.5q-43 -163 -123 -229t-222 -66h-133z" />
<glyph unicode="~" d="M236 649q197 215 368 215q47 0 86 -15.5t65 -38t49.5 -44.5t51 -37.5t57.5 -15.5q81 0 177 116l129 -124q-198 -216 -369 -216h2h-2q-46 0 -85 15.5t-64.5 38t-49 45t-51 38t-57.5 15.5q-82 0 -178 -117z" />
<glyph unicode="&#xa1;" horiz-adv-x="708" d="M100 -354l86 280l209 611h207l-121 -611l-65 -280h-316zM391 846q23 84 92 140t150 56t119.5 -56t15.5 -140q-22 -84 -91.5 -140.5t-150.5 -56.5t-119 56.5t-16 140.5z" />
<glyph unicode="&#xa2;" d="M291 627q37 142 124.5 253t204 176.5t252.5 88.5l54 194h172l-49 -186q146 -15 221 -113l-197 -194q-40 46 -92 55l-147 -543q68 10 157 68l74 -199q-138 -100 -299 -121l-51 -194h-172l51 192q-198 28 -279.5 164t-23.5 359zM589.5 476q18.5 -64 78.5 -95l133 496 q-156 -62 -205 -248q-25 -89 -6.5 -153z" />
<glyph unicode="&#xa3;" d="M98 0l52 188q107 44 190 126t111 186q4 17 8 47h-203l49 180l141 12h11q-4 100 10 156q52 194 207 310t350 116q216 0 313 -168l-217 -170q-47 84 -133 84q-81 0 -139 -47t-84 -141q-16 -63 -16 -140h301l-52 -192h-262q-2 -18 -10 -49q-19 -69 -52.5 -120.5 t-94.5 -105.5l-3 -8h525l-72 -264h-930z" />
<glyph unicode="&#xa4;" d="M119 324l157 125q-42 95 -8 227q37 131 129 223l-90 125l201 158l104 -144q112 47 222 47t190 -47l182 144l115 -158l-158 -125q44 -96 8 -223q-33 -127 -129 -227l95 -125l-201 -158l-107 145q-105 -45 -215 -45q-112 0 -192 45l-182 -145zM547 674q-23 -87 12 -140 t107 -53t134 53t85 140q24 87 -9.5 139.5t-105.5 52.5q-74 0 -136.5 -52.5t-86.5 -139.5z" />
<glyph unicode="&#xa5;" d="M158 297l39 152h311l31 108h-312l39 150h244l-137 593h323l27 -264q5 -59 29 -268h8q97 147 172 268l168 264h315l-457 -593h246l-39 -150h-313l-31 -108h314l-39 -152h-314l-80 -297h-315l82 297h-311z" />
<glyph unicode="&#xa6;" horiz-adv-x="555" d="M39 -512l250 928h205l-250 -928h-205zM348 643l240 893h205l-240 -893h-205z" />
<glyph unicode="&#xa7;" d="M88 -2l225 160q67 -105 193 -105q116 0 139 82q6 20 -1.5 38t-32.5 36t-44.5 29t-62.5 32q-35 17 -53.5 27t-52 29.5t-51.5 35.5t-43 40.5t-36.5 50.5t-21.5 58t-7.5 71t13.5 82q20 76 82 146.5t149 115.5q-37 73 -12 170q39 143 162 230t295 87q207 0 338 -135 l-197 -195q-88 99 -186 99q-104 0 -125 -74q-5 -18 2.5 -34.5t32 -34t45 -28.5t61.5 -32q31 -15 49 -24.5t49 -27t49.5 -31t43.5 -35t39 -41t28.5 -46.5t19 -55t3.5 -62.5t-11 -72.5q-45 -171 -239 -275q26 -69 4 -155q-38 -145 -167.5 -236.5t-320.5 -91.5l-4 -4 q-118 0 -214 45t-140 131zM518 659.5q0 -13.5 3 -25.5t11.5 -23.5t16.5 -21t22.5 -20t25.5 -18t30.5 -18t32 -16.5t34.5 -17q50 -25 109 -58q76 40 94 115q4 16 4 30.5t-2.5 26.5t-12.5 25t-16.5 21.5t-24 20.5t-27 18t-32.5 18t-33 17l-36 18q-49 24 -99 51 q-78 -44 -96 -115q-4 -15 -4 -28.5z" />
<glyph unicode="&#xa8;" horiz-adv-x="1138" d="M545 1313q17 65 70.5 108t119.5 43t97 -43t14 -108t-71.5 -108.5t-119.5 -43.5q-66 0 -96.5 43.5t-13.5 108.5zM997 1313q17 65 71 108t120 43t96.5 -43t13.5 -108t-71 -108.5t-119 -43.5q-66 0 -97 43.5t-14 108.5z" />
<glyph unicode="&#xa9;" horiz-adv-x="1536" d="M267.5 300q-51.5 152 2.5 366q34 124 98.5 232.5t149 188.5t185 138t208.5 87t217 29q183 0 314.5 -81t183 -231t-3.5 -363q-41 -155 -130.5 -285t-205.5 -216.5t-251 -134.5t-271 -48q-183 0 -314 83t-182.5 235zM408.5 373.5q34.5 -123.5 137.5 -193t253 -69.5 q229 0 422 154t260 401q66 246 -43.5 397t-339.5 151q-150 0 -289 -66.5t-244 -192.5t-149 -289q-42 -169 -7.5 -292.5zM578 662q46 175 192.5 285t308.5 110q88 0 144 -32t98 -89l-154 -131q-25 35 -51 52t-63 17q-92 0 -159 -59t-91 -151q-28 -101 5 -160.5t116 -59.5 q45 0 84 16t92 50l61 -145q-162 -105 -297 -105l4 -2q-176 0 -257.5 110t-32.5 294z" />
<glyph unicode="&#xaa;" horiz-adv-x="737" d="M315 956q29 108 135.5 166.5t309.5 77.5q6 42 -12 62t-64 20q-75 0 -199 -59l-39 145q176 88 326 88q134 0 186.5 -77t10.5 -230l-103 -385h-178l-2 67h-8q-107 -83 -213 -83l2 2q-94 0 -135 59.5t-17 146.5zM530 975q-6 -28 9 -42.5t49 -14.5v2q46 0 108 49l29 106 q-173 -19 -195 -100z" />
<glyph unicode="&#xab;" horiz-adv-x="995" d="M207 408l61 221l353 293l92 -95l-307 -309l141 -311l-141 -94zM598 410l61 221l353 293l92 -95l-307 -309l141 -311l-141 -94z" />
<glyph unicode="&#xac;" d="M221 565l62 221h948l-162 -596h-229l100 375h-719z" />
<glyph unicode="&#xad;" horiz-adv-x="684" d="M199 408l59 223h508l-59 -223h-508z" />
<glyph unicode="&#xae;" horiz-adv-x="954" d="M349 835.5q-28 92.5 1 215.5q49 179 199 297t321 118t257.5 -118t37.5 -297q-47 -179 -197 -297.5t-321 -118.5q-112 0 -191 54t-107 146.5zM463 1051q-36 -141 22.5 -226.5t188.5 -85.5q131 0 236 85.5t141 226.5q38 140 -21.5 225.5t-189.5 85.5t-234.5 -85.5 t-142.5 -225.5zM537 852l104 401h184q76 0 113.5 -34.5t19.5 -100.5q-20 -77 -100 -110l43 -156h-127l-29 121h-55l-33 -121h-120zM711 1057h39q29 0 49 16t26 39t-5.5 37t-39.5 14h-41z" />
<glyph unicode="&#xaf;" horiz-adv-x="1138" d="M588 1210l51 201h614l-51 -201h-614z" />
<glyph unicode="&#xb0;" horiz-adv-x="755" d="M377 1106q35 129 144.5 214t236.5 85t190.5 -85t28.5 -214q-35 -128 -144.5 -212.5t-236.5 -84.5h-2q-127 0 -189.5 84.5t-27.5 212.5zM539 1106q-19 -66 8.5 -107t87.5 -41t107.5 41t66.5 107q17 66 -10.5 106.5t-87.5 40.5t-107.5 -40.5t-64.5 -106.5z" />
<glyph unicode="&#xb1;" d="M70 -2l59 221h948l-59 -221h-948zM229 598l60 221h360l92 340h230l-92 -340h360l-59 -221h-361l-71 -268h-230l72 268h-361z" />
<glyph unicode="&#xb2;" horiz-adv-x="772" d="M90 764l31 129q214 142 323.5 231.5t128.5 155.5q15 57 -6 89t-75 32q-70 0 -166 -96l-99 118q172 166 355 166q137 0 198.5 -72t28.5 -200q-16 -60 -66.5 -126.5t-98 -112t-136.5 -122.5h231l-51 -192h-598z" />
<glyph unicode="&#xb3;" horiz-adv-x="772" d="M92 903l168 109q23 -51 56 -74t83 -23q48 0 87 25t49 66q14 51 -24 75.5t-132 24.5l35 131q155 0 178 94q10 38 -9.5 60t-62.5 22q-64 0 -149 -78l-101 115q89 72 166 104.5t170 32.5q117 0 181.5 -61t37.5 -162q-32 -116 -161 -182q57 -28 82.5 -78t7.5 -117 q-29 -108 -140 -178t-239 -70l4 2q-106 0 -180.5 41.5t-106.5 120.5z" />
<glyph unicode="&#xb4;" horiz-adv-x="1138" d="M799 1325l415 377l160 -209l-463 -322z" />
<glyph unicode="&#xb5;" horiz-adv-x="1222" d="M33 -362l373 1378h315l-158 -590q-26 -104 -9.5 -144t79.5 -40q52 0 98.5 29.5t99.5 97.5l175 647h319q-24 -79 -72.5 -236.5t-84 -275t-54.5 -189.5q-13 -48 5.5 -68t64.5 -20q28 0 65 13l-24 -232q-93 -33 -195 -33q-218 0 -227 166h-8q-118 -155 -254 -155 q-80 0 -107 41q-56 -232 -82 -389h-319z" />
<glyph unicode="&#xb6;" horiz-adv-x="1320" d="M296.5 669q-16.5 90 14.5 208q33 125 98.5 216.5t153 142t185 74t210.5 23.5h91l-250 -936h-88q-110 0 -196.5 30.5t-144 91t-74 150.5zM764 -164l399 1497h316l-400 -1497h-315z" />
<glyph unicode="&#xb7;" horiz-adv-x="626" d="M172 657q22 84 91.5 140.5t150.5 56.5t119 -56.5t16 -140.5q-23 -84 -92 -140t-150 -56t-119.5 56t-15.5 140z" />
<glyph unicode="&#xb8;" horiz-adv-x="1138" d="M227 -492l9 125q120 6 170.5 25.5t62.5 62.5q8 33 -19.5 54t-113.5 32l153 201h183l-92 -133q76 -19 104.5 -55t11.5 -99q-55 -200 -469 -213z" />
<glyph unicode="&#xb9;" horiz-adv-x="772" d="M307 1333l39 142q82 11 134.5 30t121.5 58h182l-215 -799h-233l153 569h-182z" />
<glyph unicode="&#xba;" horiz-adv-x="765" d="M343 910.5q-25 78.5 3 189.5q28 108 97.5 191t155.5 124t175 41q88 0 152 -42.5t89 -121.5t-3 -192q-28 -106 -98 -188t-156.5 -123t-173.5 -41h-2h2q-88 0 -152 42t-89 120.5zM561 970q15 -48 70 -48q105 0 153 176q48 180 -59 180q-108 0 -156 -180q-23 -80 -8 -128z " />
<glyph unicode="&#xbb;" horiz-adv-x="995" d="M164 205l309 311l-143 309l141 95l199 -293l-62 -221l-352 -293zM555 203l309 311l-143 309l141 95l199 -293l-62 -222l-352 -292z" />
<glyph unicode="&#xbc;" horiz-adv-x="1662" d="M246 1104l39 141q82 11 134.5 30t121.5 58h182l-215 -798h-234l154 569h-182zM379 -25l1087 1383h181l-1088 -1383h-180zM1010 174l30 115l422 510h289l-127 -475h117l-41 -150h-117l-47 -174h-205l47 174h-368zM1262 324h157l21 77l76 242h-9l-121 -158z" />
<glyph unicode="&#xbd;" horiz-adv-x="1740" d="M246 1104l39 141q82 11 134.5 30t121.5 58h182l-215 -798h-234l154 569h-182zM346 -25l1088 1383h180l-1088 -1383h-180zM1059 0l31 129q214 142 323.5 231.5t128.5 155.5q15 57 -6.5 89t-75.5 32q-70 0 -166 -96l-98 118q172 166 354 166q137 0 199 -72t29 -200 q-13 -46 -40 -90.5t-74 -94t-83.5 -83.5t-103.5 -92h231l-51 -193h-598z" />
<glyph unicode="&#xbe;" horiz-adv-x="1679" d="M86 674l168 108q23 -51 56 -73.5t83 -22.5q48 0 86.5 24.5t48.5 65.5q14 51 -24 76t-131 25l35 131q155 0 178 94q10 38 -9.5 60t-62.5 22q-64 0 -149 -78l-101 115q89 72 166 104.5t170 32.5q117 0 181.5 -61t37.5 -162q-32 -116 -162 -183q57 -28 83 -77.5t8 -116.5 q-29 -108 -140 -178t-239 -70l4 2q-106 0 -180.5 41.5t-106.5 120.5zM422 -23l1087 1383h181l-1088 -1383h-180zM1026 176l31 115l422 510h288l-127 -475h117l-41 -150h-117l-47 -174h-204l47 174h-369zM1278 326h158l20 77l76 242h-8l-121 -158z" />
<glyph unicode="&#xbf;" horiz-adv-x="956" d="M78 -27q14 51 43 97t65 82.5t77.5 71.5t81 69t73.5 69.5t59 80t33 92.5h276q-9 -77 -50 -147t-94 -121t-106.5 -96t-96 -90.5t-52.5 -84.5q-17 -58 11 -89.5t87 -31.5q51 0 99 23t108 69l131 -157q-220 -189 -446 -189l-2 -2q-176 0 -260 88t-37 266zM543 844 q23 84 91.5 140t149.5 56q82 0 120.5 -56.5t15.5 -139.5q-22 -84 -91.5 -140.5t-150.5 -56.5t-119 56.5t-16 140.5z" />
<glyph unicode="&#xc0;" horiz-adv-x="1179" d="M-14 0l772 1333h379l57 -1333h-334l6 307h-397l-160 -307h-323zM598 553h272l2 115q-2 83 7 315q1 19 2 56.5t2 56.5h-9q-192 -381 -217 -428zM657 1632l220 203l280 -289l-182 -157z" />
<glyph unicode="&#xc1;" horiz-adv-x="1179" d="M-14 0l772 1333h379l57 -1333h-334l6 307h-397l-160 -307h-323zM598 553h272l2 115q-2 83 7 315q1 19 2 56.5t2 56.5h-9q-192 -381 -217 -428zM840 1546l432 289l112 -203l-448 -243z" />
<glyph unicode="&#xc2;" horiz-adv-x="1179" d="M-14 0l772 1333h379l57 -1333h-334l6 307h-397l-160 -307h-323zM598 553h272l2 115q-2 83 7 315q1 19 2 56.5t2 56.5h-9q-192 -381 -217 -428zM627 1483l237 227h344l121 -227l-158 -82l-165 170h-9l-258 -170z" />
<glyph unicode="&#xc3;" horiz-adv-x="1179" d="M-14 0l772 1333h379l57 -1333h-334l6 307h-397l-160 -307h-323zM559 1446q49 152 139 225.5t203 73.5q49 0 90.5 -18t64.5 -39.5t48.5 -39.5t46.5 -18q62 0 100 96l199 -14q-50 -152 -140.5 -225.5t-203.5 -73.5q-49 0 -90.5 18t-64.5 39.5t-48.5 39.5t-46.5 18 q-60 0 -98 -96zM598 553h272l2 115q-2 83 7 315q1 19 2 56.5t2 56.5h-9q-192 -381 -217 -428z" />
<glyph unicode="&#xc4;" horiz-adv-x="1179" d="M-14 0l772 1333h379l57 -1333h-334l6 307h-397l-160 -307h-323zM598 553h272l2 115q-2 83 7 315q1 19 2 56.5t2 56.5h-9q-192 -381 -217 -428zM631 1577q17 63 69.5 105t116.5 42q66 0 96 -42t13 -105t-70 -105t-117 -42h-2h2q-64 0 -94.5 42t-13.5 105zM1090 1577 q17 64 70 105.5t118 41.5q64 0 93.5 -42t12.5 -105t-69.5 -105t-116.5 -42q-65 0 -95 41.5t-13 105.5z" />
<glyph unicode="&#xc5;" horiz-adv-x="1179" d="M-14 0l772 1333h379l57 -1333h-334l6 307h-397l-160 -307h-323zM598 553h272l2 115q-2 83 7 315q1 19 2 56.5t2 56.5h-9q-192 -381 -217 -428zM782 1628q25 93 105 149t186 56t156.5 -56t25.5 -149q-25 -92 -105 -147.5t-185 -55.5h-2h2q-106 0 -157 55.5t-26 147.5z M936 1630q-10 -39 7 -63.5t52 -24.5t66 24.5t41 63.5t-7 63.5t-51 24.5q-36 0 -67 -24.5t-41 -63.5z" />
<glyph unicode="&#xc6;" horiz-adv-x="1736" d="M-33 0l981 1331h1014l-70 -264h-503l-68 -252h426l-70 -264h-426l-77 -287h524l-72 -264h-840l78 293h-356l-209 -293h-332zM684 539h248l149 559h-8q-31 -46 -83.5 -123t-94.5 -138t-78 -112z" />
<glyph unicode="&#xc7;" horiz-adv-x="1193" d="M242.5 313.5q-33.5 143.5 21.5 345.5q43 162 130.5 296t198 221.5t238 135.5t254.5 48q122 0 213 -49t146 -125l-219 -203q-42 51 -89.5 77.5t-113.5 26.5q-136 0 -257.5 -112.5t-172.5 -302.5q-52 -199 3 -310.5t198 -111.5q144 0 290 121l115 -199q-189 -165 -405 -192 l-72 -103q76 -19 105 -54.5t12 -98.5q-55 -200 -469 -213l8 124q120 6 170.5 26t62.5 63q8 33 -19.5 54t-113.5 32l133 174q-145 22 -239.5 104t-128 225.5z" />
<glyph unicode="&#xc8;" horiz-adv-x="1126" d="M156 0l356 1331h844l-70 -264h-526l-68 -252h449l-70 -264h-448l-78 -287h547l-72 -264h-864zM668 1630l219 203l280 -289l-182 -158z" />
<glyph unicode="&#xc9;" horiz-adv-x="1126" d="M156 0l356 1331h844l-70 -264h-526l-68 -252h449l-70 -264h-448l-78 -287h547l-72 -264h-864zM848 1544l432 289l113 -203l-449 -244z" />
<glyph unicode="&#xca;" horiz-adv-x="1126" d="M156 0l356 1331h844l-70 -264h-526l-68 -252h449l-70 -264h-448l-78 -287h547l-72 -264h-864zM637 1481l237 227h345l120 -227l-157 -82l-166 170h-8l-258 -170z" />
<glyph unicode="&#xcb;" horiz-adv-x="1126" d="M156 0l356 1331h844l-70 -264h-526l-68 -252h449l-70 -264h-448l-78 -287h547l-72 -264h-864zM639 1575q17 63 69.5 105t116.5 42q66 0 96 -42t13 -105q-17 -64 -69.5 -106t-116.5 -42h-3h3q-64 0 -95 42.5t-14 105.5zM1098 1575q17 64 70 105.5t118 41.5q64 0 94 -42 t13 -105q-17 -64 -70 -106t-117 -42q-65 0 -95 42t-13 106z" />
<glyph unicode="&#xcc;" horiz-adv-x="624" d="M156 0l356 1333h315l-356 -1333h-315zM389 1632l219 203l281 -289l-182 -157z" />
<glyph unicode="&#xcd;" horiz-adv-x="624" d="M156 0l356 1333h315l-356 -1333h-315zM569 1546l432 289l113 -203l-448 -243z" />
<glyph unicode="&#xce;" horiz-adv-x="624" d="M156 0l356 1333h315l-356 -1333h-315zM358 1483l238 227h344l121 -227l-158 -82l-166 170h-8l-258 -170z" />
<glyph unicode="&#xcf;" horiz-adv-x="624" d="M156 0l356 1333h315l-356 -1333h-315zM360 1577q17 63 70 105t117 42q65 0 95 -41.5t13 -105.5q-17 -63 -69.5 -105t-116.5 -42h-2h2q-64 0 -95 42t-14 105zM819 1577q17 64 70.5 105.5t118.5 41.5q64 0 93.5 -42t12.5 -105t-69.5 -105t-116.5 -42q-66 0 -96 42t-13 105z " />
<glyph unicode="&#xd0;" horiz-adv-x="1355" d="M205 -2l166 614h-154l37 138l156 12l153 571h381q156 0 267.5 -38t181 -118.5t81.5 -205.5t-32 -299q-91 -336 -313 -505t-525 -169h-399zM590 254l45 -2q175 0 298.5 97.5t184.5 322.5q25 93 26.5 164t-18 116.5t-59 74.5t-90.5 40.5t-119 11.5h-47l-86 -317h252 l-39 -150h-252z" />
<glyph unicode="&#xd1;" horiz-adv-x="1366" d="M156 0l354 1333h324l159 -643l51 -295h9q6 34 23.5 143t33.5 193t35 156l119 446h301l-357 -1333h-323l-160 645l-51 293h-8q-6 -36 -18.5 -113.5t-21 -128.5t-22.5 -121t-29 -126l-118 -449h-301zM659 1446q49 152 139 225.5t203 73.5q49 0 90.5 -18t64.5 -39.5 t48.5 -39.5t46.5 -18q63 0 101 96l198 -14q-50 -152 -140.5 -225.5t-203.5 -73.5q-49 0 -90.5 18t-64.5 39.5t-48.5 39.5t-46.5 18q-60 0 -98 -96z" />
<glyph unicode="&#xd2;" horiz-adv-x="1404" d="M274 672q57 214 176 370t277 235t340 79q276 0 394 -182t32 -502q-87 -323 -304.5 -510t-492.5 -187t-392 187t-30 510zM589.5 362.5q46.5 -114.5 178.5 -114.5t240 114.5t161 309.5q52 195 4.5 304t-180.5 109t-239 -109.5t-158 -303.5q-53 -195 -6.5 -309.5zM778 1634 l219 203l281 -289l-182 -157z" />
<glyph unicode="&#xd3;" horiz-adv-x="1404" d="M274 672q57 214 176 370t277 235t340 79q276 0 394 -182t32 -502q-87 -323 -304.5 -510t-492.5 -187t-392 187t-30 510zM589.5 362.5q46.5 -114.5 178.5 -114.5t240 114.5t161 309.5q52 195 4.5 304t-180.5 109t-239 -109.5t-158 -303.5q-53 -195 -6.5 -309.5zM958 1548 l433 289l112 -203l-448 -243z" />
<glyph unicode="&#xd4;" horiz-adv-x="1404" d="M274 672q57 214 176 370t277 235t340 79q276 0 394 -182t32 -502q-87 -323 -304.5 -510t-492.5 -187t-392 187t-30 510zM589.5 362.5q46.5 -114.5 178.5 -114.5t240 114.5t161 309.5q52 195 4.5 304t-180.5 109t-239 -109.5t-158 -303.5q-53 -195 -6.5 -309.5zM748 1483 l237 227h344l121 -227l-158 -82l-166 170h-8l-258 -170z" />
<glyph unicode="&#xd5;" horiz-adv-x="1404" d="M274 672q57 214 176 370t277 235t340 79q276 0 394 -182t32 -502q-87 -323 -304.5 -510t-492.5 -187t-392 187t-30 510zM589.5 362.5q46.5 -114.5 178.5 -114.5t240 114.5t161 309.5q52 195 4.5 304t-180.5 109t-239 -109.5t-158 -303.5q-53 -195 -6.5 -309.5zM680 1448 q49 152 139 225.5t203 73.5q49 0 90.5 -18t64.5 -39.5t48.5 -39.5t46.5 -18q62 0 100 97l199 -15q-50 -152 -140.5 -225.5t-203.5 -73.5q-49 0 -90.5 18t-64.5 39.5t-48.5 39.5t-46.5 18q-60 0 -98 -96z" />
<glyph unicode="&#xd6;" horiz-adv-x="1404" d="M274 672q57 214 176 370t277 235t340 79q276 0 394 -182t32 -502q-87 -323 -304.5 -510t-492.5 -187t-392 187t-30 510zM589.5 362.5q46.5 -114.5 178.5 -114.5t240 114.5t161 309.5q52 195 4.5 304t-180.5 109t-239 -109.5t-158 -303.5q-53 -195 -6.5 -309.5zM750 1577 q17 63 69.5 105t116.5 42q65 0 95 -41.5t13 -105.5q-17 -63 -69.5 -105t-116.5 -42h-2h2q-64 0 -94.5 42t-13.5 105zM1208 1577q17 64 70.5 105.5t118.5 41.5q64 0 93.5 -42t12.5 -105t-69.5 -105t-116.5 -42q-66 0 -96 42t-13 105z" />
<glyph unicode="&#xd7;" d="M205 383l366 291l-211 291l201 157l211 -291l367 291l114 -157l-368 -291l211 -291l-201 -158l-211 291l-369 -291z" />
<glyph unicode="&#xd8;" horiz-adv-x="1404" d="M90 37l189 176q-76 179 -3 457q57 214 176 370t277 235t340 79q204 0 328 -105l182 170l129 -125l-209 -194q65 -175 -4 -430q-87 -323 -304.5 -510t-492.5 -187q-190 0 -311 95l-168 -156zM571 483l578 537q-54 63 -154 63q-133 0 -239 -109.5t-158 -303.5 q-27 -105 -27 -187zM633 297q51 -51 137 -51q132 0 240 114.5t161 309.5q21 83 27 149z" />
<glyph unicode="&#xd9;" horiz-adv-x="1366" d="M313 627l191 708h315l-198 -741q-36 -126 -29 -202.5t45.5 -109t114.5 -32.5q115 0 193.5 80t127.5 264l199 741h305l-191 -708q-90 -335 -264.5 -493.5t-441.5 -158.5h-2q-268 0 -361 159.5t-4 492.5zM756 1634l219 203l280 -289l-182 -157z" />
<glyph unicode="&#xda;" horiz-adv-x="1366" d="M313 627l191 708h315l-198 -741q-36 -126 -29 -202.5t45.5 -109t114.5 -32.5q115 0 193.5 80t127.5 264l199 741h305l-191 -708q-90 -335 -264.5 -493.5t-441.5 -158.5h-2q-268 0 -361 159.5t-4 492.5zM938 1548l432 289l113 -203l-449 -243z" />
<glyph unicode="&#xdb;" horiz-adv-x="1366" d="M313 627l191 708h315l-198 -741q-36 -126 -29 -202.5t45.5 -109t114.5 -32.5q115 0 193.5 80t127.5 264l199 741h305l-191 -708q-90 -335 -264.5 -493.5t-441.5 -158.5h-2q-268 0 -361 159.5t-4 492.5zM725 1483l238 227h344l120 -227l-157 -82l-166 170h-8l-258 -170z " />
<glyph unicode="&#xdc;" horiz-adv-x="1366" d="M313 627l191 708h315l-198 -741q-36 -126 -29 -202.5t45.5 -109t114.5 -32.5q115 0 193.5 80t127.5 264l199 741h305l-191 -708q-90 -335 -264.5 -493.5t-441.5 -158.5h-2q-268 0 -361 159.5t-4 492.5zM729 1577q17 63 69.5 105t116.5 42q66 0 96 -42t13 -105t-69.5 -105 t-116.5 -42h-2h2q-64 0 -95 42t-14 105zM1188 1577q17 64 70 105.5t118 41.5q64 0 94 -42t13 -105t-70 -105t-117 -42q-65 0 -95 41.5t-13 105.5z" />
<glyph unicode="&#xdd;" horiz-adv-x="1085" d="M340 1333h338l35 -299q4 -46 13 -144t13 -153h9q29 46 92.5 144.5t97.5 152.5l192 299h330l-633 -862l-127 -471h-315l125 471zM799 1548l432 289l112 -203l-448 -243z" />
<glyph unicode="&#xde;" horiz-adv-x="1271" d="M156 0l358 1335h315l-53 -198h180q74 0 136.5 -9.5t117.5 -30.5t92 -54.5t61 -82t23.5 -112.5t-20.5 -146q-31 -115 -97 -204.5t-154 -143t-188.5 -81t-209.5 -27.5h-180l-66 -246h-315zM604 498l164 2q235 0 289 205q27 97 -20 139.5t-165 42.5h-161z" />
<glyph unicode="&#xdf;" horiz-adv-x="1306" d="M131 0l266 991q55 207 215 334t404 127q83 0 148.5 -19t105.5 -51.5t64.5 -76.5t26 -94t-10.5 -103q-18 -66 -57.5 -123t-77.5 -90t-72 -71t-43 -70q-6 -24 7 -46t29.5 -34.5t53.5 -36.5q31 -21 46 -32t42 -34.5t39.5 -46t24.5 -54t10.5 -70.5t-13.5 -85 q-40 -148 -166 -244t-309 -96h-4q-86 0 -152 23.5t-133 69.5l166 213q77 -74 172 -74q49 0 84.5 26t46.5 66q11 41 -15 70.5t-85 66.5q-24 16 -37 25t-35 26.5t-33 31.5t-24.5 36t-18 44t-4.5 51t9 61q11 43 36 82t54 69.5t57.5 61t53.5 68.5t36 79q16 59 -7 96t-83 37 q-90 0 -154.5 -66t-95.5 -184l-256 -954h-311z" />
<glyph unicode="&#xe0;" horiz-adv-x="1085" d="M156 285q43 161 201.5 250.5t465.5 121.5q23 136 -118 136q-104 0 -291 -91l-54 207q256 133 474 133q200 0 273.5 -115t10.5 -349l-153 -578h-258l6 102h-8q-178 -127 -324 -127h-4q-136 0 -196 89.5t-25 220.5zM463 309q-12 -44 10.5 -67t75.5 -23l-2 2q46 0 86 20 t92 62l45 166q-277 -39 -307 -160zM559 1495l268 209l217 -377l-196 -153z" />
<glyph unicode="&#xe1;" horiz-adv-x="1085" d="M156 285q43 161 201.5 250.5t465.5 121.5q23 136 -118 136q-104 0 -291 -91l-54 207q256 133 474 133q200 0 273.5 -115t10.5 -349l-153 -578h-258l6 102h-8q-178 -127 -324 -127h-4q-136 0 -196 89.5t-25 220.5zM463 309q-12 -44 10.5 -67t75.5 -23l-2 2q46 0 86 20 t92 62l45 166q-277 -39 -307 -160zM788 1327l416 377l160 -209l-463 -321z" />
<glyph unicode="&#xe2;" horiz-adv-x="1085" d="M156 285q43 161 201.5 250.5t465.5 121.5q23 136 -118 136q-104 0 -291 -91l-54 207q256 133 474 133q200 0 273.5 -115t10.5 -349l-153 -578h-258l6 102h-8q-178 -127 -324 -127h-4q-136 0 -196 89.5t-25 220.5zM463 309q-12 -44 10.5 -67t75.5 -23l-2 2q46 0 86 20 t92 62l45 166q-277 -39 -307 -160zM518 1262l293 266h322l149 -266l-149 -111l-209 184h-9l-307 -184z" />
<glyph unicode="&#xe3;" horiz-adv-x="1085" d="M156 285q43 161 201.5 250.5t465.5 121.5q23 136 -118 136q-104 0 -291 -91l-54 207q256 133 474 133q200 0 273.5 -115t10.5 -349l-153 -578h-258l6 102h-8q-178 -127 -324 -127h-4q-136 0 -196 89.5t-25 220.5zM463 309q-12 -44 10.5 -67t75.5 -23l-2 2q46 0 86 20 t92 62l45 166q-277 -39 -307 -160zM494 1206q89 316 340 316q43 0 80 -20t58.5 -43.5t45 -43.5t43.5 -20q59 0 96 108l195 -12q-91 -315 -342 -315q-43 0 -80.5 20t-58.5 43.5t-45 43.5t-44 20q-30 0 -52.5 -24.5t-43.5 -82.5z" />
<glyph unicode="&#xe4;" horiz-adv-x="1085" d="M156 285q43 161 201.5 250.5t465.5 121.5q23 136 -118 136q-104 0 -291 -91l-54 207q256 133 474 133q200 0 273.5 -115t10.5 -349l-153 -578h-258l6 102h-8q-178 -127 -324 -127h-4q-136 0 -196 89.5t-25 220.5zM463 309q-12 -44 10.5 -67t75.5 -23l-2 2q46 0 86 20 t92 62l45 166q-277 -39 -307 -160zM537 1315q17 65 70.5 108t119.5 43t97 -43t14 -108t-71.5 -108.5t-119.5 -43.5q-66 0 -96.5 43.5t-13.5 108.5zM989 1315q17 65 71 108t120 43t96.5 -43t13.5 -108t-71 -108.5t-119 -43.5q-66 0 -97 43.5t-14 108.5z" />
<glyph unicode="&#xe5;" horiz-adv-x="1085" d="M156 285q43 161 201.5 250.5t465.5 121.5q23 136 -118 136q-104 0 -291 -91l-54 207q256 133 474 133q200 0 273.5 -115t10.5 -349l-153 -578h-258l6 102h-8q-178 -127 -324 -127h-4q-136 0 -196 89.5t-25 220.5zM463 309q-12 -44 10.5 -67t75.5 -23l-2 2q46 0 86 20 t92 62l45 166q-277 -39 -307 -160zM653 1374q24 93 112.5 154t219.5 61t187 -60.5t32 -154.5q-26 -94 -114.5 -154.5t-219.5 -60.5q-132 0 -187.5 61t-29.5 154zM846 1372q-12 -42 4.5 -69t52.5 -27t68.5 27t44.5 69t-6 69t-54 27t-67 -27t-43 -69z" />
<glyph unicode="&#xe6;" horiz-adv-x="1609" d="M172 285q43 161 201 251.5t461 122.5q11 65 -15 99.5t-102 34.5q-102 0 -289 -91l-55 207q256 133 452 133q92 0 154.5 -38.5t89.5 -108.5q177 147 338 147q99 0 168 -39t99 -106t33.5 -158t-26.5 -194q-17 -68 -47 -131h-579q-7 -96 42.5 -144.5t141.5 -48.5 q52 0 103.5 18t127.5 56l52 -203q-93 -55 -198.5 -86t-195.5 -31q-206 0 -307 156q-131 -86 -228.5 -121t-199.5 -35q-136 0 -196 89.5t-25 220.5zM391 -25h2h-2zM481 309q-12 -44 10.5 -67t75.5 -23l2 2q96 0 199 80q-6 57 4 127l8 41q-267 -40 -299 -160zM1112 610h324 q26 85 1.5 140t-100.5 55q-70 0 -129 -49t-96 -146z" />
<glyph unicode="&#xe7;" horiz-adv-x="960" d="M209 512q33 123 103.5 225t162.5 168.5t198 102.5t214 36q175 0 268 -108l-201 -203q-52 55 -116 55q-106 0 -189 -76t-117 -204q-33 -126 8 -202.5t136 -76.5q86 0 196 74l68 -207q-122 -89 -278 -114l-72 -103q76 -19 105 -54.5t12 -98.5q-55 -200 -469 -213l8 125 q120 6 170.5 25.5t62.5 62.5q8 33 -19.5 54t-113.5 32l133 176q-176 29 -252 167.5t-18 356.5z" />
<glyph unicode="&#xe8;" horiz-adv-x="1064" d="M201.5 221q-35.5 119 7.5 289q32 120 100.5 222t154 168.5t182.5 104t190 37.5q107 0 181.5 -37.5t108.5 -103.5t39.5 -155.5t-24.5 -192.5q-19 -74 -49 -137h-603q-6 -102 48 -151.5t155 -49.5q102 0 234 66l51 -189q-93 -55 -198 -86t-195 -31q-147 0 -247 63.5 t-135.5 182.5zM541 623h350q22 82 -5 131t-110 49q-71 0 -134.5 -46.5t-100.5 -133.5zM553 1493l268 209l217 -377l-196 -154z" />
<glyph unicode="&#xe9;" horiz-adv-x="1064" d="M201.5 221q-35.5 119 7.5 289q32 120 100.5 222t154 168.5t182.5 104t190 37.5q107 0 181.5 -37.5t108.5 -103.5t39.5 -155.5t-24.5 -192.5q-19 -74 -49 -137h-603q-6 -102 48 -151.5t155 -49.5q102 0 234 66l51 -189q-93 -55 -198 -86t-195 -31q-147 0 -247 63.5 t-135.5 182.5zM541 623h350q22 82 -5 131t-110 49q-71 0 -134.5 -46.5t-100.5 -133.5zM784 1325l416 377l160 -209l-463 -322z" />
<glyph unicode="&#xea;" horiz-adv-x="1064" d="M201.5 221q-35.5 119 7.5 289q32 120 100.5 222t154 168.5t182.5 104t190 37.5q107 0 181.5 -37.5t108.5 -103.5t39.5 -155.5t-24.5 -192.5q-19 -74 -49 -137h-603q-6 -102 48 -151.5t155 -49.5q102 0 234 66l51 -189q-93 -55 -198 -86t-195 -31q-147 0 -247 63.5 t-135.5 182.5zM512 1257l293 267h321l150 -267l-150 -110l-208 184h-9l-307 -184zM541 623h350q22 82 -5 131t-110 49q-71 0 -134.5 -46.5t-100.5 -133.5z" />
<glyph unicode="&#xeb;" horiz-adv-x="1064" d="M201.5 221q-35.5 119 7.5 289q32 120 100.5 222t154 168.5t182.5 104t190 37.5q107 0 181.5 -37.5t108.5 -103.5t39.5 -155.5t-24.5 -192.5q-19 -74 -49 -137h-603q-6 -102 48 -151.5t155 -49.5q102 0 234 66l51 -189q-93 -55 -198 -86t-195 -31q-147 0 -247 63.5 t-135.5 182.5zM530 1313q17 65 71 108t120 43t96.5 -43t13.5 -108t-71 -108.5t-119 -43.5q-66 0 -97 43.5t-14 108.5zM541 623h350q22 82 -5 131t-110 49q-71 0 -134.5 -46.5t-100.5 -133.5zM983 1313q17 65 71 108t120 43t96.5 -43t13.5 -108t-71 -108.5t-119 -43.5 q-66 0 -97 43.5t-14 108.5z" />
<glyph unicode="&#xec;" horiz-adv-x="573" d="M129 0l272 1018h316l-273 -1018h-315zM285 1493l268 209l217 -377l-197 -154z" />
<glyph unicode="&#xed;" horiz-adv-x="573" d="M129 0l272 1018h316l-273 -1018h-315zM514 1325l416 377l160 -209l-463 -322z" />
<glyph unicode="&#xee;" horiz-adv-x="573" d="M129 0l272 1018h316l-273 -1018h-315zM244 1257l293 267h321l150 -267l-150 -110l-209 184h-8l-307 -184z" />
<glyph unicode="&#xef;" horiz-adv-x="573" d="M129 0l272 1018h316l-273 -1018h-315zM262 1313q17 65 71 108t120 43t96.5 -43t13.5 -108t-71 -108.5t-119 -43.5q-66 0 -97 43.5t-14 108.5zM715 1313q17 65 70.5 108t119.5 43t97 -43t14 -108t-71.5 -108.5t-119.5 -43.5q-66 0 -96.5 43.5t-13.5 108.5z" />
<glyph unicode="&#xf0;" horiz-adv-x="1150" d="M204 205.5q-34 109.5 5 261.5q38 142 128 250t197.5 161.5t215.5 53.5q125 0 184 -76q-14 143 -98 256l-328 -145l-47 139l266 119q-59 48 -149 102l188 193q140 -82 235 -174l332 147l45 -139l-274 -123q202 -275 92 -682q-67 -253 -242.5 -413.5t-400.5 -160.5h-2 q-129 0 -221 60.5t-126 170zM496 467q-29 -112 11 -175t124 -63q85 0 155 75t111 226q14 53 21 86q-55 82 -166 82q-89 0 -157 -57.5t-99 -173.5z" />
<glyph unicode="&#xf1;" horiz-adv-x="1177" d="M129 0l272 1018h258l-12 -127h8q195 151 367 151q108 0 167 -50t66 -141.5t-26 -219.5l-170 -631h-316l160 590q26 106 9 145t-81 39q-52 0 -95 -21t-109 -71l-183 -682h-315zM567 1204q89 316 340 316q43 0 80.5 -20t58.5 -43.5t45 -43.5t44 -20q59 0 96 108l194 -12 q-91 -315 -342 -315q-35 0 -66 13t-52 31.5t-39 37t-36 31.5t-34 13q-30 0 -52.5 -24t-43.5 -82z" />
<glyph unicode="&#xf2;" horiz-adv-x="1138" d="M201 219.5q-38 118.5 6 288.5q33 123 101.5 225t156 168.5t186.5 102.5t197 36q131 0 226.5 -63t134.5 -181t-5 -288q-43 -163 -148 -286.5t-233.5 -185t-259.5 -61.5h-2q-131 0 -226.5 63t-133.5 181.5zM517 304.5q25 -75.5 112 -75.5t151 74t99 205q36 128 11 204 t-112 76t-151 -74.5t-99 -205.5q-36 -128 -11 -203.5zM565 1493l269 209l217 -377l-197 -154z" />
<glyph unicode="&#xf3;" horiz-adv-x="1138" d="M201 219.5q-38 118.5 6 288.5q33 123 101.5 225t156 168.5t186.5 102.5t197 36q131 0 226.5 -63t134.5 -181t-5 -288q-43 -163 -148 -286.5t-233.5 -185t-259.5 -61.5h-2q-131 0 -226.5 63t-133.5 181.5zM517 304.5q25 -75.5 112 -75.5t151 74t99 205q36 128 11 204 t-112 76t-151 -74.5t-99 -205.5q-36 -128 -11 -203.5zM795 1325l415 377l160 -209l-463 -322z" />
<glyph unicode="&#xf4;" horiz-adv-x="1138" d="M201 219.5q-38 118.5 6 288.5q33 123 101.5 225t156 168.5t186.5 102.5t197 36q131 0 226.5 -63t134.5 -181t-5 -288q-43 -163 -148 -286.5t-233.5 -185t-259.5 -61.5h-2q-131 0 -226.5 63t-133.5 181.5zM517 304.5q25 -75.5 112 -75.5t151 74t99 205q36 128 11 204 t-112 76t-151 -74.5t-99 -205.5q-36 -128 -11 -203.5zM524 1257l293 267h322l149 -267l-149 -110l-209 184h-8l-308 -184z" />
<glyph unicode="&#xf5;" horiz-adv-x="1138" d="M201 219.5q-38 118.5 6 288.5q33 123 101.5 225t156 168.5t186.5 102.5t197 36q131 0 226.5 -63t134.5 -181t-5 -288q-43 -163 -148 -286.5t-233.5 -185t-259.5 -61.5h-2q-131 0 -226.5 63t-133.5 181.5zM500 1204q89 316 340 316q43 0 80 -20t58.5 -43.5t45 -43.5 t43.5 -20q59 0 96 108l195 -12q-91 -315 -342 -315q-35 0 -66 13t-52 31.5t-39.5 37t-36.5 31.5t-34 13q-30 0 -52.5 -24t-43.5 -82zM517 304.5q25 -75.5 112 -75.5t151 74t99 205q36 128 11 204t-112 76t-151 -74.5t-99 -205.5q-36 -128 -11 -203.5z" />
<glyph unicode="&#xf6;" horiz-adv-x="1138" d="M201 219.5q-38 118.5 6 288.5q33 123 101.5 225t156 168.5t186.5 102.5t197 36q131 0 226.5 -63t134.5 -181t-5 -288q-43 -163 -148 -286.5t-233.5 -185t-259.5 -61.5h-2q-131 0 -226.5 63t-133.5 181.5zM517 304.5q25 -75.5 112 -75.5t151 74t99 205q36 128 11 204 t-112 76t-151 -74.5t-99 -205.5q-36 -128 -11 -203.5zM543 1313q17 65 70.5 108t119.5 43t97 -43t14 -108t-71.5 -108.5t-119.5 -43.5q-66 0 -96.5 43.5t-13.5 108.5zM995 1313q17 65 71 108t120 43t96.5 -43t13.5 -108t-71 -108.5t-119 -43.5q-66 0 -97 43.5t-14 108.5z " />
<glyph unicode="&#xf7;" d="M221 565l62 221h948l-62 -221h-948zM455 305q20 70 81.5 116t135.5 46t111.5 -46t17.5 -116q-19 -70 -80.5 -116t-134.5 -46h-2h2q-74 0 -112 46t-19 116zM653 1042q19 70 81 116t136 46t112 -46t19 -116q-20 -70 -81.5 -115.5t-135.5 -45.5h-2q-74 0 -111.5 45.5 t-17.5 115.5z" />
<glyph unicode="&#xf8;" horiz-adv-x="1138" d="M102 41l125 117q-76 142 -20 350q33 123 101.5 225t156 168.5t186.5 102.5t197 36q145 0 246 -75l118 110l95 -90l-127 -119q80 -143 24 -358q-43 -163 -148 -286.5t-233.5 -185t-259.5 -61.5h-2q-150 0 -252 82l-114 -106zM492 403l387 361q-34 37 -99 37 q-89 0 -161.5 -75.5t-104.5 -199.5q-19 -76 -22 -123zM524 258q33 -39 101 -39v2q89 0 161.5 74.5t104.5 198.5q18 70 24 127z" />
<glyph unicode="&#xf9;" horiz-adv-x="1169" d="M199 165.5q-7 91.5 26 219.5l170 631h316l-158 -590q-27 -106 -10.5 -145t80.5 -39q54 0 97.5 23.5t102.5 82.5l178 670h316l-273 -1018h-258l15 139h-8q-89 -80 -176.5 -122t-186.5 -42l4 -2q-109 0 -168.5 50.5t-66.5 142zM590 1491l268 209l217 -377l-196 -154z" />
<glyph unicode="&#xfa;" horiz-adv-x="1169" d="M199 165.5q-7 91.5 26 219.5l170 631h316l-158 -590q-27 -106 -10.5 -145t80.5 -39q54 0 97.5 23.5t102.5 82.5l178 670h316l-273 -1018h-258l15 139h-8q-89 -80 -176.5 -122t-186.5 -42l4 -2q-109 0 -168.5 50.5t-66.5 142zM819 1323l416 377l160 -209l-463 -322z" />
<glyph unicode="&#xfb;" horiz-adv-x="1169" d="M199 165.5q-7 91.5 26 219.5l170 631h316l-158 -590q-27 -106 -10.5 -145t80.5 -39q54 0 97.5 23.5t102.5 82.5l178 670h316l-273 -1018h-258l15 139h-8q-89 -80 -176.5 -122t-186.5 -42l4 -2q-109 0 -168.5 50.5t-66.5 142zM547 1255l293 267h321l150 -267l-150 -110 l-209 184h-8l-307 -184z" />
<glyph unicode="&#xfc;" horiz-adv-x="1169" d="M199 165.5q-7 91.5 26 219.5l170 631h316l-158 -590q-27 -106 -10.5 -145t80.5 -39q54 0 97.5 23.5t102.5 82.5l178 670h316l-273 -1018h-258l15 139h-8q-89 -80 -176.5 -122t-186.5 -42l4 -2q-109 0 -168.5 50.5t-66.5 142zM565 1311q17 65 71 108t120 43t96.5 -43 t13.5 -108t-71 -108.5t-119 -43.5q-66 0 -97 43.5t-14 108.5zM1018 1311q17 65 70.5 108t119.5 43t97 -43t14 -108t-71.5 -108.5t-119.5 -43.5q-66 0 -96.5 43.5t-13.5 108.5z" />
<glyph unicode="&#xfd;" horiz-adv-x="1079" d="M0 -375l121 240q54 -12 63 -12q132 0 207 124l29 52l-127 989h317l27 -424q4 -90 0 -285v-4h8q87 170 150 289l231 424h301l-625 -1022q-89 -137 -165.5 -218t-173 -126t-216.5 -45l-2 -2q-77 0 -145 20zM776 1323l416 377l160 -209l-463 -322z" />
<glyph unicode="&#xfe;" horiz-adv-x="1177" d="M29 -373l481 1805h315l-92 -347l-45 -141q143 98 275 98q191 0 265 -140t11 -376q-68 -251 -233.5 -401t-339.5 -150q-129 0 -211 95l-33 -150l-78 -293h-315zM520 295q54 -62 137 -62q79 0 148 71t108 218q35 134 12 199t-108 65q-83 0 -188 -86z" />
<glyph unicode="&#xff;" horiz-adv-x="1079" d="M0 -375l121 240q54 -12 63 -12q132 0 207 124l29 52l-127 989h317l27 -424q4 -90 0 -285v-4h8q87 170 150 289l231 424h301l-625 -1022q-89 -137 -165.5 -218t-173 -126t-216.5 -45l-2 -2q-77 0 -145 20zM524 1311q17 65 71 108t120 43t96.5 -43t13.5 -108t-71 -108.5 t-119 -43.5q-66 0 -97 43.5t-14 108.5zM977 1311q17 65 70.5 108t119.5 43t97 -43t14 -108t-71.5 -108.5t-119.5 -43.5q-66 0 -96.5 43.5t-13.5 108.5z" />
<glyph unicode="&#x152;" horiz-adv-x="1787" d="M241 369q-15 127 29 301q46 169 132 297.5t201 207t249 117.5t285 39h878l-69 -264h-500l-68 -252h422l-69 -264h-422l-78 -287h520l-72 -264h-915l-4 -4q-144 0 -253 40t-180 123t-86 210zM568 502.5q-1 -72.5 19 -120t61 -77.5t94 -42.5t122 -12.5h45l221 825h-43 q-88 0 -159.5 -19t-137 -63.5t-115.5 -125.5t-81 -197q-25 -95 -26 -167.5z" />
<glyph unicode="&#x153;" horiz-adv-x="1681" d="M207 510q33 123 99 225t150.5 168.5t181.5 102.5t196 36q197 0 278 -172q84 83 179 127.5t186 44.5q99 0 168 -39t99.5 -106t34.5 -158t-26 -194q-17 -68 -47 -131h-582q-7 -96 43 -144.5t142 -48.5q51 0 103.5 18.5t127.5 55.5l51 -203q-93 -55 -198 -86t-195 -31 t-162.5 44.5t-113.5 125.5q-176 -170 -381 -170l-2 2q-202 0 -299.5 143.5t-32.5 389.5zM514 306.5q23 -75.5 100 -75.5q78 0 143 75.5t99 203.5t9.5 204.5t-101.5 76.5t-140.5 -76t-97.5 -205q-35 -128 -12 -203.5zM1174 610h325q26 85 2 140t-100 55q-70 0 -130 -49 t-97 -146z" />
<glyph unicode="&#x178;" horiz-adv-x="1085" d="M340 1333h338l35 -299q4 -46 13 -144t13 -153h9q29 46 92.5 144.5t97.5 152.5l192 299h330l-633 -862l-127 -471h-315l125 471zM590 1577q17 63 69.5 105t116.5 42q66 0 96 -42t13 -105t-70 -105t-117 -42h-2h2q-64 0 -94.5 42t-13.5 105zM1049 1577q17 64 70 105.5 t118 41.5q64 0 93.5 -42t12.5 -105t-69.5 -105t-116.5 -42q-65 0 -95 41.5t-13 105.5z" />
<glyph unicode="&#x2c6;" horiz-adv-x="1138" d="M526 1257l293 267h322l149 -267l-149 -110l-209 184h-8l-308 -184z" />
<glyph unicode="&#x2dc;" horiz-adv-x="1138" d="M502 1204q89 316 340 316q43 0 80 -20t58.5 -43.5t45 -43.5t43.5 -20q59 0 96 108l195 -12q-91 -315 -342 -315q-43 0 -80 19.5t-58.5 43.5t-45 43.5t-43.5 19.5q-30 0 -53 -24.5t-44 -81.5z" />
<glyph unicode="&#x2000;" horiz-adv-x="918" />
<glyph unicode="&#x2001;" horiz-adv-x="1837" />
<glyph unicode="&#x2002;" horiz-adv-x="918" />
<glyph unicode="&#x2003;" horiz-adv-x="1837" />
<glyph unicode="&#x2004;" horiz-adv-x="612" />
<glyph unicode="&#x2005;" horiz-adv-x="459" />
<glyph unicode="&#x2006;" horiz-adv-x="306" />
<glyph unicode="&#x2007;" horiz-adv-x="306" />
<glyph unicode="&#x2008;" horiz-adv-x="229" />
<glyph unicode="&#x2009;" horiz-adv-x="367" />
<glyph unicode="&#x200a;" horiz-adv-x="102" />
<glyph unicode="&#x2010;" horiz-adv-x="684" d="M199 408l59 223h508l-59 -223h-508z" />
<glyph unicode="&#x2011;" horiz-adv-x="684" d="M199 408l59 223h508l-59 -223h-508z" />
<glyph unicode="&#x2012;" horiz-adv-x="684" d="M199 408l59 223h508l-59 -223h-508z" />
<glyph unicode="&#x2013;" horiz-adv-x="983" d="M203 420l53 201h805l-53 -201h-805z" />
<glyph unicode="&#x2014;" horiz-adv-x="1638" d="M203 420l53 201h1460l-53 -201h-1460z" />
<glyph unicode="&#x2018;" horiz-adv-x="626" d="M363 747q-32 73 4 203q78 302 417 447l33 -137q-107 -45 -169.5 -107t-88.5 -152q12 3 21 3q69 0 104.5 -43t15.5 -113q-22 -79 -79.5 -126.5t-128.5 -47.5q-97 0 -129 73z" />
<glyph unicode="&#x2019;" horiz-adv-x="626" d="M373 844q106 45 168 107t86 151q-6 -2 -19 -2q-70 0 -105.5 42t-15.5 111q22 79 79 126.5t128 47.5q98 0 130.5 -72.5t-3.5 -203.5q-78 -300 -418 -446z" />
<glyph unicode="&#x201a;" horiz-adv-x="626" d="M373 -211q106 45 168 107t86 151q-6 -2 -19 -2q-69 0 -105 42.5t-16 111.5q22 79 79 126.5t128 47.5q97 0 130 -73.5t-3 -203.5q-78 -300 -418 -446z" />
<glyph unicode="&#x201c;" horiz-adv-x="1124" d="M363 747q-32 73 4 203q78 302 417 447l33 -137q-107 -45 -169.5 -107t-88.5 -152q12 3 21 3q69 0 104.5 -43t15.5 -113q-22 -79 -79.5 -126.5t-128.5 -47.5q-97 0 -129 73zM860 747q-32 73 4 203q78 302 418 447l33 -137q-107 -45 -169.5 -107t-88.5 -152q12 3 20 3 q70 0 105.5 -43t15.5 -113q-22 -79 -80 -126.5t-129 -47.5q-97 0 -129 73z" />
<glyph unicode="&#x201d;" horiz-adv-x="1124" d="M373 844q106 45 168 107t86 151q-6 -2 -19 -2q-70 0 -105.5 42t-15.5 111q22 79 79 126.5t128 47.5q98 0 130.5 -72.5t-3.5 -203.5q-78 -300 -418 -446zM872 846q106 45 168 107t86 151q-6 -2 -18 -2q-70 0 -105.5 42t-15.5 111q22 79 79 127t128 48q97 0 130 -73 t-3 -204q-78 -300 -418 -446z" />
<glyph unicode="&#x201e;" horiz-adv-x="1124" d="M373 -211q106 45 168 107t86 151q-6 -2 -19 -2q-69 0 -105 42.5t-16 111.5q22 79 79 126.5t128 47.5q97 0 130 -73.5t-3 -203.5q-78 -300 -418 -446zM872 -209q106 45 168 107t86 151q-6 -2 -18 -2q-69 0 -105 42.5t-16 111.5q22 79 79 126.5t128 47.5q97 0 130 -73.5 t-3 -203.5q-78 -300 -418 -446z" />
<glyph unicode="&#x2022;" horiz-adv-x="714" d="M225 537q34 123 136 205.5t219 82.5t173.5 -82.5t22.5 -205.5q-32 -123 -133.5 -206t-218.5 -83t-174 83t-25 206z" />
<glyph unicode="&#x2026;" horiz-adv-x="2011" d="M201 172q22 84 91 140.5t150 56.5t119.5 -56.5t16.5 -140.5q-23 -84 -92 -140.5t-150 -56.5t-119.5 56.5t-15.5 140.5zM879 172q22 84 91 140.5t150 56.5t119 -56.5t16 -140.5q-23 -84 -91.5 -140.5t-149.5 -56.5t-119.5 56.5t-15.5 140.5zM1556 172q22 84 91.5 140.5 t150.5 56.5t119 -56.5t16 -140.5q-23 -84 -91.5 -140.5t-149.5 -56.5q-82 0 -120.5 57t-15.5 140z" />
<glyph unicode="&#x202f;" horiz-adv-x="367" />
<glyph unicode="&#x2039;" horiz-adv-x="602" d="M207 408l61 221l353 293l92 -95l-307 -309l141 -311l-141 -94z" />
<glyph unicode="&#x203a;" horiz-adv-x="602" d="M164 205l309 311l-143 309l141 95l199 -293l-62 -221l-352 -293z" />
<glyph unicode="&#x205f;" horiz-adv-x="459" />
<glyph unicode="&#x20ac;" d="M160 436l37 146l114 8q2 8 6.5 25.5t6.5 25.5t7 25.5t7 25.5h-113l41 146l133 10q106 226 286 351.5t388 125.5q93 0 170 -42t123 -118l-219 -170q-67 88 -152 88q-169 0 -284 -233h430l-43 -158h-447q-2 -6 -5 -18.5t-5 -18.5q-5 -18 -14 -61h364l-41 -158h-344 q0 -105 41.5 -160t122.5 -55q104 0 211 107l131 -162q-207 -191 -424 -191q-197 0 -304.5 119t-94.5 342h-129z" />
<glyph unicode="&#x2122;" horiz-adv-x="1406" d="M330 1198l49 186h555l-49 -186h-176l-123 -459h-205l123 459h-174zM846 739l172 645h229l25 -198l10 -133h8l80 133l131 198h230l-175 -645h-186l51 187l86 239h-8l-201 -331h-143l-22 331h-9l-41 -239l-51 -187h-186z" />
<glyph unicode="&#x25fc;" horiz-adv-x="1013" d="M0 0v1014h1014v-1014h-1014z" />
<glyph unicode="&#xfb01;" horiz-adv-x="1318" d="M184 0l205 770h-135l63 236l138 10l12 43q22 84 61 153t98 124.5t143 86.5t187 31q107 0 197 -35l-119 -231q-48 20 -96 20q-56 0 -93.5 -32.5t-58.5 -106.5l-14 -51h178l-65 -248h-178l-207 -770h-316zM874 0l273 1018h315l-272 -1018h-316zM1206 1323q19 70 82.5 116 t141.5 46t117 -46t20 -116q-20 -71 -83 -116.5t-141 -45.5t-117.5 46t-19.5 116z" />
<glyph unicode="&#xfb02;" horiz-adv-x="1302" d="M184 0l205 770h-135l63 236l138 10l12 43q22 84 61 153t98 124.5t143 86.5t187 31q107 0 197 -35l-119 -231q-48 20 -96 20q-56 0 -93.5 -32.5t-58.5 -106.5l-14 -51h178l-65 -248h-178l-207 -770h-316zM902.5 139q-3.5 79 23.5 187l295 1104h315l-297 -1117 q-12 -45 -0.5 -65.5t33.5 -20.5q21 0 37 4l-25 -231q-70 -25 -164 -25l-2 -4q-104 0 -158 44.5t-57.5 123.5z" />
<glyph unicode="&#xfb03;" horiz-adv-x="1935" d="M184 0l205 768h-139l61 236l144 12l10 37q21 81 61 148.5t100 121t145.5 83.5t189.5 30q122 0 202 -37l-119 -232q-44 23 -110 23q-52 0 -93 -33.5t-59 -99.5l-10 -41h336l10 41q22 84 61.5 153t98 124.5t143 86.5t187.5 31q106 0 196 -35l-118 -231q-48 20 -97 20 q-56 0 -93 -32.5t-58 -106.5l-15 -51h176l-65 -248h-176l-207 -770h-315l204 770h-335l-205 -768h-316zM1487 -2l272 1018h316l-273 -1018h-315zM1819 1321q19 70 82 116t141 46t117 -46t20 -116q-20 -71 -82.5 -116.5t-140.5 -45.5t-117.5 46t-19.5 116z" />
<glyph unicode="&#xfb04;" horiz-adv-x="1955" d="M184 0l205 768h-139l61 236l144 12l10 37q21 81 61 148.5t100 121t145.5 83.5t189.5 30q122 0 202 -37l-119 -232q-44 23 -110 23q-52 0 -93 -33.5t-59 -99.5l-10 -41h336l10 41q22 84 61.5 153t98 124.5t143 86.5t187.5 31q106 0 196 -35l-118 -231q-48 20 -97 20 q-56 0 -93 -32.5t-58 -106.5l-15 -51h176l-65 -248h-176l-207 -770h-315l204 770h-335l-205 -768h-316zM1549.5 137q-3.5 79 23.5 187l295 1103h315l-297 -1116q-12 -45 -0.5 -65.5t33.5 -20.5q21 0 37 4l-25 -231q-70 -25 -164 -25l-2 -4q-104 0 -158 44.5t-57.5 123.5z " />
</font>
</defs>
</svg>
