<svg xmlns="http://www.w3.org/2000/svg" xmlns:xlink="http://www.w3.org/1999/xlink" version="1.1"><metadata/><defs><font id="madamedium" horiz-adv-x="1036"><font-face ascent="1638" descent="-410" units-per-em="2048"/><glyph horiz-adv-x="0"/><glyph horiz-adv-x="682"/><glyph horiz-adv-x="409"/><glyph horiz-adv-x="409"/><glyph horiz-adv-x="409"/><glyph d="M174 119q0 64 40 105.5t99 41.5q58 0 98 -41.5t40 -105.5q0 -61 -40.5 -102.5t-97.5 -41.5q-59 0 -99 41.5t-40 102.5zM209 1372h207l-6 -215l-29 -733h-139l-27 733z" horiz-adv-x="620" unicode="!"/><glyph d="M162 1411h215l-8 -211l-41 -360h-119l-39 360zM559 1411h215l-8 -211l-41 -360h-119l-39 360z" horiz-adv-x="935" unicode="&quot;"/><glyph d="M70 408v137h176l35 282h-170v140h188l45 364h127l-45 -364h256l47 364h127l-47 -364h164v-140h-180l-35 -282h174v-137h-191l-49 -408h-127l49 408h-254l-49 -408h-129l47 408h-159zM375 545h254l35 282h-254z" unicode="#"/><glyph d="M96 137l92 142q158 -134 310 -134q104 0 157.5 50.5t53.5 140.5q0 60 -31 108t-81 81t-110 63.5t-120 64.5t-110 74.5t-81 103.5t-31 142q0 140 83 234t223 116v209h143v-207q162 -20 293 -158l-107 -120q-62 59 -115.5 85.5t-127.5 26.5q-88 0 -138.5 -47.5 t-50.5 -130.5q0 -54 31 -96.5t80.5 -72t109.5 -57.5t120.5 -62.5t110 -77.5t80.5 -111t31 -154q0 -147 -84 -245t-233 -121v-207h-143v203q-97 11 -192.5 52.5t-162.5 104.5z" unicode="$"/><glyph d="M66 944q0 198 85.5 310t227.5 112q140 0 225.5 -112t85.5 -310q0 -199 -85.5 -312.5t-225.5 -113.5q-142 0 -227.5 113t-85.5 313zM215 946q0 -150 44.5 -227.5t119.5 -77.5q74 0 118 77.5t44 227.5t-44 225.5t-118 75.5q-75 0 -119.5 -75.5t-44.5 -225.5zM420 -23 l735 1391h131l-735 -1391h-131zM1014 403q0 198 85.5 310t227.5 112q140 0 225.5 -112t85.5 -310q0 -199 -85.5 -312.5t-225.5 -113.5q-142 0 -227.5 113t-85.5 313zM1163 406q0 -150 44.5 -228t119.5 -78q73 0 117.5 78t44.5 228t-44 225.5t-118 75.5q-75 0 -119.5 -75.5 t-44.5 -225.5z" horiz-adv-x="1705" unicode="%"/><glyph d="M61 352q0 65 20.5 122.5t59 104.5t80 82.5t98.5 73.5q-86 172 -86 305q0 138 90.5 232t235.5 94q131 0 207 -75t76 -199q0 -51 -18 -99t-43 -85t-69 -77.5t-79.5 -68t-89.5 -64.5q132 -189 321 -338q120 154 180 375h191q-80 -270 -234 -475q143 -91 248 -117l-53 -168 q-157 40 -319 148q-171 -148 -396 -148l-2 2q-189 0 -303.5 106t-114.5 269zM260 365q0 -100 70 -163t176 -63q113 0 231 90q-201 170 -331 367q-70 -57 -108 -112t-38 -119zM408 1042q0 -99 57 -213q103 65 158 125t55 136q0 59 -29.5 97t-87.5 38q-68 0 -110.5 -51.5 t-42.5 -131.5z" horiz-adv-x="1280" unicode="&amp;"/><glyph d="M162 1411h215l-8 -211l-41 -360h-119l-39 360z" horiz-adv-x="538" unicode="'"/><glyph d="M162 569q0 494 270 932l127 -57q-229 -385 -229 -875q0 -489 229 -874l-127 -57q-133 216 -201.5 443t-68.5 488z" horiz-adv-x="643" unicode="("/><glyph d="M84 -305q229 385 229 874q0 490 -229 875l127 57q270 -438 270 -932q0 -261 -68.5 -488t-201.5 -443z" horiz-adv-x="643" unicode=")"/><glyph d="M109 1171l34 109l217 -51l21 227h117l20 -225l219 49l35 -109l-205 -86l117 -198l-92 -68l-152 178l-151 -178l-94 68l118 198z" horiz-adv-x="878" unicode="*"/><glyph d="M70 600v152h368v393h158v-393h369v-152h-369v-393h-158v393h-368z" unicode="+"/><glyph d="M96 -248q94 38 145.5 103t51.5 145h-19q-58 0 -97.5 35.5t-39.5 97.5q0 60 42 96.5t102 36.5q75 0 117 -59.5t42 -163.5q0 -140 -78.5 -246t-218.5 -159z" horiz-adv-x="538" unicode=","/><glyph d="M86 438v152h479v-152h-479z" horiz-adv-x="649" unicode="-"/><glyph d="M131 119q0 64 40 105.5t99 41.5q58 0 98 -41.5t40 -105.5q0 -61 -40.5 -102.5t-97.5 -41.5q-59 0 -99 41.5t-40 102.5z" horiz-adv-x="538" unicode="."/><glyph d="M23 -328l509 1782h144l-510 -1782h-143z" horiz-adv-x="710" unicode="/"/><glyph d="M86 655q0 325 115 499.5t317 174.5t317 -174t115 -498q0 -326 -115 -504t-317 -178v-2q-202 0 -317 178t-115 504zM283 653q0 -182 30.5 -300t81.5 -168t123 -50q109 0 171.5 124.5t62.5 393.5q0 510 -234 510q-235 0 -235 -510z" unicode="0"/><glyph d="M154 166h295v905h-240v131q173 32 291 103h155v-1137h263v-168h-762z" unicode="1"/><glyph d="M72 1130q93 100 188.5 150.5t218.5 50.5q184 0 293 -107t109 -286q0 -69 -26.5 -145t-66 -143.5t-111 -156t-134 -157t-162.5 -172.5q140 12 217 12h346v-176h-864v121q110 108 177 175t145 150.5t122 140.5t84 119.5t57 116t17 103.5q0 110 -59 174.5t-170 64.5 q-133 0 -267 -149z" unicode="2"/><glyph d="M49 162l101 133q146 -150 319 -150q114 0 184 59t70 158q0 115 -91.5 176.5t-307.5 61.5v152q352 0 352 223q0 88 -55 138t-152 50q-138 0 -268 -127l-107 127q181 164 385 164q184 0 296 -90t112 -248q0 -215 -232 -305v-8q123 -31 200 -116t77 -212 q0 -170 -127.5 -271.5t-317.5 -101.5l-2 2q-269 0 -436 185z" unicode="3"/><glyph d="M35 346v137l536 822h238v-797h170v-162h-170v-346h-193v346h-581zM244 508h372v330q0 60 11 264h-9q-18 -36 -106 -193z" unicode="4"/><glyph d="M55 158l97 133q69 -67 143.5 -105.5t171.5 -38.5q116 0 191 74.5t75 198.5q0 123 -70 192.5t-188 69.5q-61 0 -106 -17t-109 -59l-102 66l41 637h675v-176h-497l-31 -349q88 45 184 45q85 0 158 -24.5t129.5 -73t88.5 -128t32 -181.5q0 -104 -37 -189.5t-100 -141 t-144 -86t-170 -30.5l5 2q-256 0 -437 181z" unicode="5"/><glyph d="M92 606q0 186 41.5 328.5t113 226t160.5 125t191 41.5q198 0 332 -145l-113 -125q-39 45 -95.5 72.5t-115.5 27.5q-67 0 -121.5 -27t-99.5 -85.5t-71.5 -160.5t-30.5 -241q58 73 139.5 116.5t157.5 43.5q174 0 275 -103.5t101 -300.5q0 -188 -116 -306t-283 -118l-4 -2 q-97 0 -179.5 39t-146 115.5t-99.5 199t-36 279.5zM289 487q17 -178 85.5 -267t178.5 -89q92 0 151.5 72t59.5 194t-57 188t-164 66q-64 0 -130.5 -40t-123.5 -124z" unicode="6"/><glyph d="M88 1130v177h860v-127q-92 -116 -156 -224t-106 -210t-67.5 -223.5t-38 -239.5t-19.5 -283h-209q17 361 99 614.5t270 515.5h-633z" unicode="7"/><glyph d="M84 334q0 115 67.5 200t172.5 142v8q-181 129 -181 303q0 153 108 247.5t275 94.5q170 0 272.5 -97t102.5 -253q0 -91 -52 -172.5t-124 -134.5v-8q105 -60 166 -138.5t61 -199.5q0 -150 -120 -250.5t-312 -100.5q-188 0 -312 101.5t-124 257.5zM268 352q0 -102 74 -166.5 t184 -64.5l2 2q104 0 169 57.5t65 151.5q0 53 -21 93.5t-75.5 76t-91.5 53t-127 53.5q-4 2 -6.5 3t-6 2.5t-6.5 2.5q-160 -115 -160 -264zM330 987q0 -41 15.5 -76t38.5 -60t62.5 -49t75 -40.5t88.5 -36.5v-2q121 115 121 244q0 93 -56.5 153t-152.5 60q-83 0 -137.5 -52.5 t-54.5 -140.5z" unicode="8"/><glyph d="M80 905q0 188 116 306t283 118q98 0 180.5 -39t145.5 -115.5t99 -199t36 -279.5q0 -186 -41.5 -328.5t-113 -226t-160.5 -125t-191 -41.5v2q-199 0 -332 144l113 127q39 -45 95.5 -73t115.5 -28q67 0 122.5 27.5t101 86t72 160.5t30.5 241q-58 -73 -139 -116.5 t-156 -43.5q-174 0 -275.5 103t-101.5 300zM270 907q0 -122 57.5 -188t164.5 -66q65 0 130.5 39.5t122.5 124.5q-17 178 -85.5 267.5t-178.5 89.5q-90 0 -150.5 -73t-60.5 -194z" unicode="9"/><glyph d="M131 119q0 64 40 105.5t99 41.5q58 0 98 -41.5t40 -105.5q0 -61 -40.5 -102.5t-97.5 -41.5q-59 0 -99 41.5t-40 102.5zM131 838q0 64 40 105.5t99 41.5q58 0 98 -41.5t40 -105.5q0 -61 -40.5 -102.5t-97.5 -41.5q-59 0 -99 41.5t-40 102.5z" horiz-adv-x="538" unicode=":"/><glyph d="M96 -248q94 38 145.5 103t51.5 145h-19q-58 0 -97.5 35.5t-39.5 97.5q0 60 42 96.5t102 36.5q75 0 117 -59.5t42 -163.5q0 -140 -78.5 -246t-218.5 -159zM131 838q0 64 40 105.5t99 41.5q58 0 98 -41.5t40 -105.5q0 -61 -40.5 -102.5t-97.5 -41.5q-59 0 -99 41.5 t-40 102.5z" horiz-adv-x="538" unicode=";"/><glyph d="M70 602v156l897 348v-174l-412 -148l-274 -100v-8l274 -101l412 -147v-174z" unicode="&lt;"/><glyph d="M70 377v151h897v-151h-897zM70 825v152h897v-152h-897z" unicode="="/><glyph d="M70 254v174l411 147l275 101v8l-275 100l-411 148v174l897 -348v-156z" unicode="&gt;"/><glyph d="M82 1221q152 176 360 176q161 0 258 -88.5t97 -245.5q0 -45 -11 -86t-37 -82.5t-45 -66.5t-57 -70q-40 -48 -60 -75t-46 -72t-34.5 -90.5t-2.5 -96.5h-178q-4 29 -3.5 57t3 51.5t11 49t15.5 44t21 43t23 39t27 38t27.5 35l28.5 34.5q41 50 61.5 77t40 71t19.5 84 q0 79 -48.5 129.5t-133.5 50.5q-123 0 -221 -113zM281 115q0 64 39 105.5t98 41.5t99 -41.5t40 -105.5q0 -61 -40 -102.5t-99 -41.5t-98 41.5t-39 102.5zM324 424h2v-4z" horiz-adv-x="892" unicode="?"/><glyph d="M104 422q0 203 70.5 377t189.5 291.5t278 184t335 66.5q208 0 364 -87.5t239 -244t83 -360.5q0 -105 -25.5 -195.5t-68 -154.5t-98 -109.5t-115.5 -67.5t-119 -22q-87 0 -146 40.5t-71 115.5h-4q-51 -61 -118 -99t-132 -38q-111 0 -181.5 78.5t-70.5 214.5 q0 115 48.5 224.5t141.5 183t207 73.5q111 0 164 -100h4l25 81h133l-84 -421q-55 -222 107 -222q102 0 184 113.5t82 294.5q0 121 -35.5 223.5t-103.5 179.5t-177.5 120.5t-248.5 43.5q-135 0 -263 -56.5t-227.5 -155.5t-160 -248t-60.5 -322q0 -147 46.5 -265.5t129 -195 t192.5 -117.5t238 -41q169 0 326 89l51 -119q-178 -103 -393 -103v6q-153 0 -285.5 48.5t-233.5 139.5t-159 234.5t-58 321.5zM676 424q0 -87 35.5 -129.5t97.5 -42.5v2q81 0 174 113l57 311q-26 43 -54 61.5t-66 18.5q-72 0 -129.5 -54t-86 -129.5t-28.5 -150.5z" horiz-adv-x="1765" unicode="@"/><glyph d="M0 0l444 1341h240l444 -1341h-221l-114 385h-467l-115 -385h-211zM375 549h368l-53 182q-49 158 -127 447h-8q-65 -255 -125 -447z" horiz-adv-x="1130" unicode="A"/><glyph d="M176 0v1341h416q106 0 189.5 -18t148 -55.5t99 -102.5t34.5 -153q0 -100 -51.5 -180.5t-141.5 -110.5v-8q122 -26 194.5 -107t72.5 -213q0 -193 -140.5 -293t-373.5 -100h-447zM383 162h217q162 0 248 60t86 181q0 220 -336 220h-215v-461zM383 780h182q293 0 293 205 q0 104 -70.5 149.5t-216.5 45.5h-188v-400z" horiz-adv-x="1214" unicode="B"/><glyph d="M104 668q0 159 46.5 291t128 220t192.5 136.5t238 48.5q117 0 213.5 -47t164.5 -121l-110 -133q-118 121 -264 121q-177 0 -286.5 -139t-109.5 -373q0 -239 105.5 -378.5t284.5 -139.5q165 0 297 145l112 -129q-170 -195 -418 -195v-2q-126 0 -234.5 47t-188.5 134 t-125.5 219.5t-45.5 294.5z" horiz-adv-x="1175" unicode="C"/><glyph d="M176 0v1339h348q311 0 478 -169.5t167 -493.5q0 -325 -166 -500.5t-468 -175.5h-359zM383 166l127 2q217 0 330.5 129t113.5 379q0 247 -113 371t-331 124h-127v-1005z" horiz-adv-x="1269" unicode="D"/><glyph d="M176 0v1343h791v-174h-586v-378h496v-177h-496v-438h606v-176h-811z" horiz-adv-x="1091" unicode="E"/><glyph d="M176 0v1341h793v-174h-586v-413h498v-174h-498v-580h-207z" horiz-adv-x="1028" unicode="F"/><glyph d="M102 670q0 159 48 291t132 220t199 136.5t248 48.5q233 0 397 -168l-112 -133q-121 121 -279 121q-190 0 -304 -138.5t-114 -373.5q0 -242 110.5 -380t315.5 -138q63 0 120.5 18.5t92.5 50.5v318h-266v170h455v-580q-69 -71 -180 -114.5t-242 -43.5q-134 0 -248 47 t-197 134t-129.5 219t-46.5 295z" horiz-adv-x="1275" unicode="G"/><glyph d="M176 0v1341h207v-548h580v548h208v-1341h-208v612h-580v-612h-207z" horiz-adv-x="1347" unicode="H"/><glyph d="M176 0v1341h207v-1341h-207z" horiz-adv-x="561" unicode="I"/><glyph d="M53 199l146 104q82 -147 219 -147q102 0 151 63t49 207v913h209v-931q0 -92 -22.5 -168.5t-68 -136.5t-121 -94t-173.5 -34q-264 0 -389 224z" horiz-adv-x="999" unicode="J"/><glyph d="M176 0l2 1341h207v-639h6l514 639h232l-416 -518l483 -823h-229l-381 662l-211 -254v-408h-207z" horiz-adv-x="1206" unicode="K"/><glyph d="M176 0v1341h207v-1165h571v-176h-778z" horiz-adv-x="1013" unicode="L"/><glyph d="M176 0v1341h240l246 -682q16 -47 46 -139t44 -133h8q15 43 42.5 135t43.5 137l241 682h242v-1341h-192v670q0 98 26 413h-8l-106 -307l-236 -645h-127l-235 645l-107 307h-8q26 -315 26 -413v-670h-186z" horiz-adv-x="1509" unicode="M"/><glyph d="M176 0v1341h213l447 -794l141 -283h8q-2 33 -8 104.5t-9.5 117.5t-6.5 109t-3 114v632h197v-1341h-213l-448 797l-142 280h-8q1 -15 9 -101t10.5 -121.5t6 -100t3.5 -115.5v-639h-197z" horiz-adv-x="1335" unicode="N"/><glyph d="M104 678q0 320 160 505t422 185t423 -186t161 -504q0 -322 -161.5 -512.5t-422.5 -190.5t-421.5 190.5t-160.5 512.5zM317 678q0 -237 101 -379.5t268 -142.5t268 142.5t101 379.5q0 235 -100.5 371.5t-268.5 136.5t-268.5 -136.5t-100.5 -371.5z" horiz-adv-x="1372" unicode="O"/><glyph d="M174 1341h404q512 0 512 -405q0 -210 -137 -318t-365 -108h-205v-510h-207zM381 678h186q162 0 240 63t78 195q0 131 -79.5 185.5t-246.5 54.5h-178v-498z" horiz-adv-x="1175" unicode="P"/><glyph d="M104 678q0 320 160 505t422 185t423 -186t161 -504q0 -281 -125 -464t-336 -226q44 -82 128 -123t191 -41q77 0 144 18l39 -155q-84 -35 -205 -35v4q-184 0 -318 90t-200 238q-221 36 -352.5 220t-131.5 474zM317 676q0 -245 100.5 -388t268.5 -143t268.5 143t100.5 388 q0 235 -100.5 371.5t-268.5 136.5t-268.5 -136.5t-100.5 -371.5z" horiz-adv-x="1372" unicode="Q"/><glyph d="M176 0v1339h436q108 0 193 -20.5t152 -64.5t103 -120.5t36 -181.5q0 -149 -75 -245.5t-208 -137.5l330 -571h-234l-303 545h-223v-543h-207zM383 709h205q148 0 225.5 61.5t77.5 181.5q0 119 -75.5 170.5t-227.5 51.5h-205v-465z" horiz-adv-x="1189" unicode="R"/><glyph d="M80 174l123 143q74 -74 168 -117.5t190 -43.5q120 0 187 52.5t67 141.5q0 30 -6 54.5t-22.5 45t-31 34t-45.5 30.5t-50 26t-60 27l-186 82q-273 110 -273 350q0 157 124.5 262t314.5 105q116 0 222.5 -45t184.5 -123l-108 -133q-134 121 -297 121q-104 0 -166 -47.5 t-62 -128.5q0 -34 13.5 -62.5t30 -46.5t51.5 -38.5t56 -29.5t66 -28l185 -78q132 -57 202 -139.5t70 -220.5q0 -167 -127.5 -279.5t-341.5 -112.5v2q-137 0 -261.5 52t-217.5 145z" horiz-adv-x="1105" unicode="S"/><glyph d="M57 1167v174h998v-174h-396v-1167h-208l2 1167h-396z" horiz-adv-x="1110" unicode="T"/><glyph d="M172 571v768h207v-780q0 -405 291 -405q295 0 295 405v780h198v-768q0 -596 -493 -596h-2h2q-498 0 -498 596z" horiz-adv-x="1331" unicode="U"/><glyph d="M-6 1341h221l201 -696q21 -70 60 -213t65 -227h8q26 86 65.5 231t57.5 209l198 696h211l-419 -1341h-244z" horiz-adv-x="1077" unicode="V"/><glyph d="M45 1341h213l127 -700q11 -71 35.5 -214.5t36.5 -215.5h8q31 153 88 430l174 700h184l174 -700q16 -69 93 -432h8q64 407 69 432l127 700h199l-266 -1341h-254l-182 754q-38 159 -64 305h-8q-14 -77 -64 -305l-178 -754h-250z" horiz-adv-x="1626" unicode="W"/><glyph d="M29 0l387 692l-361 649h230l164 -319q19 -35 53.5 -104.5t48.5 -96.5h8q63 144 92 201l158 319h219l-360 -659l385 -682h-230l-178 338q-44 83 -110 215h-9q-51 -113 -102 -215l-176 -338h-219z" horiz-adv-x="1081" unicode="X"/><glyph d="M-6 1341h221l160 -358q108 -257 123 -293h8q107 238 129 293l158 358h217l-404 -833v-508h-209v508z" horiz-adv-x="1003" unicode="Y"/><glyph d="M86 0v125l674 1042h-613v174h871v-122l-676 -1043h682v-176h-938z" horiz-adv-x="1105" unicode="Z"/><glyph d="M188 -311v1763h385v-115h-231v-1534h231v-114h-385z" horiz-adv-x="643" unicode="["/><glyph d="M37 1454h141l510 -1782h-141z" horiz-adv-x="710" unicode="\"/><glyph d="M72 -199h229v1534h-229v115h383v-1761h-383v112z" horiz-adv-x="643" unicode="]"/><glyph d="M117 575l315 797h176l314 -797h-177l-122 334l-99 275h-8l-100 -275l-123 -334h-176z" unicode="^"/><glyph d="M25 -137h974v-129h-974v129z" horiz-adv-x="1024" unicode="_"/><glyph d="M238 1489l143 137l295 -350l-103 -102z" horiz-adv-x="1118" unicode="`"/><glyph d="M100 264q0 162 143 250.5t457 122.5q-4 221 -192 221q-127 0 -289 -102l-78 139q202 131 404 131q182 0 272 -110t90 -314v-602h-168l-16 115h-6q-165 -140 -322 -140q-130 0 -212.5 79t-82.5 210zM299 281q0 -72 44 -108t116 -36v-2q63 0 118.5 29.5t122.5 91.5v250 q-217 -27 -309 -82t-92 -143z" horiz-adv-x="1044" unicode="a"/><glyph d="M160 0v1452h205v-385l-5 -174q147 133 299 133q188 0 292 -137.5t104 -372.5q0 -124 -35.5 -228t-95 -171.5t-136.5 -104.5t-161 -37h-2h2q-69 0 -143 34t-138 95h-6l-16 -104h-164zM365 238q107 -93 221 -93t186 98.5t72 270.5q0 340 -240 340q-113 0 -239 -123v-493z" horiz-adv-x="1142" unicode="b"/><glyph d="M90 496q0 122 40 223.5t108 167t156.5 101.5t187.5 36q161 0 292 -115l-102 -133q-92 82 -182 82q-128 0 -209.5 -99t-81.5 -259q0 -159 79.5 -258t205.5 -99q113 0 221 93l86 -136q-140 -125 -326 -125l2 -4q-208 0 -342.5 141t-134.5 384z" horiz-adv-x="940" unicode="c"/><glyph d="M88 498q0 119 35.5 219.5t95 166.5t136.5 103t161 37q81 0 141.5 -27.5t128.5 -85.5l-8 166v373h207v-1452h-168l-16 113h-6q-140 -136 -291 -136l-4 -2q-189 0 -300.5 139t-111.5 386zM299 500q0 -170 65.5 -263.5t184.5 -93.5q121 0 229 125v492q-103 92 -221 92 q-110 0 -184 -96.5t-74 -255.5z" horiz-adv-x="1146" unicode="d"/><glyph d="M86 498q0 119 38.5 220t102.5 167.5t145.5 103.5t168.5 37q194 0 300.5 -128t106.5 -345q0 -57 -8 -107h-653q12 -144 96 -226.5t217 -82.5q120 0 242 74l69 -131q-160 -105 -336 -105h-2q-137 0 -246.5 61.5t-175 181.5t-65.5 280zM285 590h485q0 133 -57.5 204.5 t-165.5 71.5q-99 0 -173.5 -73.5t-88.5 -202.5z" horiz-adv-x="1028" unicode="e"/><glyph d="M59 838v153l136 10v129q0 162 77.5 255.5t235.5 93.5q88 0 176 -35l-41 -156q-58 25 -113 25q-133 0 -133 -180v-132h205v-163h-205v-838h-204l2 838h-136z" horiz-adv-x="626" unicode="f"/><glyph d="M88 -186q0 125 143 219v8q-88 59 -88 166q0 57 32 106t79 80v8q-56 44 -93.5 114.5t-37.5 154.5q0 163 112.5 260.5t274.5 97.5q78 0 145 -24h353v-154h-193q30 -32 49 -81.5t19 -104.5q0 -160 -106.5 -253.5t-268.5 -93.5q-71 0 -141 31q-29 -25 -43.5 -48.5 t-14.5 -57.5q0 -99 170 -99h185q180 0 269 -58.5t89 -184.5q0 -149 -143 -250t-377 -101h2h-2q-186 0 -300 69t-114 196zM264 -156q0 -73 72.5 -115t198.5 -42v-2q128 0 210 53.5t82 126.5q0 61 -46.5 85.5t-141.5 24.5h-154q-75 0 -133 17q-88 -65 -88 -148zM319 668 q0 -98 55 -157.5t136 -59.5t135.5 59.5t54.5 157.5t-54 155.5t-136 57.5t-136.5 -57.5t-54.5 -155.5z" horiz-adv-x="1048" unicode="g"/><glyph d="M156 1452h204v-385l-8 -199q80 75 157 116.5t171 41.5q307 0 307 -395v-631h-205v604q0 131 -41 188.5t-131 57.5q-66 0 -120 -32.5t-128 -106.5v-711h-204z" horiz-adv-x="1130" unicode="h"/><glyph d="M129 1313q0 55 37.5 89t95.5 34t95.5 -34t37.5 -89q0 -54 -38 -88.5t-95 -34.5t-95 34.5t-38 88.5zM158 0v1001h204v-1001h-204z" horiz-adv-x="520" unicode="i"/><glyph d="M-88 -403l41 153q50 -16 90 -16q67 0 93 45.5t26 140.5v1084h205v-1082q0 -354 -299 -354v2q-85 0 -156 27zM131 1315q0 55 37.5 89t95.5 34q56 0 93.5 -34t37.5 -89q0 -54 -37.5 -88.5t-93.5 -34.5q-57 0 -95 34.5t-38 88.5z" horiz-adv-x="524" unicode="j"/><glyph d="M158 0v1450h200v-942h7l395 491h225l-340 -405l381 -596h-223l-275 457l-170 -197v-258h-200z" horiz-adv-x="1044" unicode="k"/><glyph d="M158 236v1218h204v-1231q0 -40 14.5 -59t35.5 -19q14 0 37 5l26 -154q-44 -21 -110 -21v5q-109 0 -158 65t-49 191z" horiz-adv-x="540" unicode="l"/><glyph d="M156 997h168l16 -139h6q155 166 309 166q209 0 277 -186q84 89 161 136.5t164 47.5q155 0 231.5 -101t76.5 -294v-631h-205v604q0 131 -40.5 188.5t-127.5 57.5q-102 0 -227 -137v-711h-205v604q0 131 -40.5 188.5t-127.5 57.5q-105 0 -230 -137v-711h-204z" horiz-adv-x="1714" unicode="m"/><glyph d="M158 0v1001h168l16 -139h6q79 78 158 121t174 43q307 0 307 -395v-631h-205v604q0 131 -41 188.5t-131 57.5q-66 0 -120 -32.5t-128 -106.5v-711h-204z" horiz-adv-x="1134" unicode="n"/><glyph d="M88 500q0 122 38.5 223.5t104 167t150 101.5t178.5 36t178.5 -36t150 -101.5t104 -167t38.5 -223.5q0 -121 -38.5 -221.5t-104 -166t-150 -101.5t-178.5 -36t-178.5 36t-150 101.5t-104 166t-38.5 221.5zM299 500q0 -160 71 -258.5t189 -98.5q119 0 189.5 98t70.5 259 q0 162 -70.5 260t-189.5 98q-118 0 -189 -98t-71 -260z" horiz-adv-x="1118" unicode="o"/><glyph d="M156 1004h168l16 -111h6q161 135 311 135q188 0 292 -138t104 -374q0 -124 -35.5 -227t-95 -170.5t-137 -104.5t-162.5 -37q-131 0 -267 111l6 -170v-326h-204zM360 240q109 -93 222 -93h2q114 0 186 98.5t72 270.5q0 340 -240 340q-110 0 -242 -123v-493z" horiz-adv-x="1146" unicode="p"/><glyph d="M94 500q0 119 35.5 219.5t95 166.5t136.5 103t161 37q82 0 147 -29t134 -92h4l18 96h164v-1409h-207l2 340l9 174q-135 -131 -287 -131q-189 0 -300.5 139t-111.5 386zM305 500q0 -170 65.5 -263.5t184.5 -93.5q121 0 229 125v492q-103 92 -221 92q-110 0 -184 -96.5 t-74 -255.5z" horiz-adv-x="1146" unicode="q"/><glyph d="M156 1001h168l16 -180h6q53 96 127.5 149.5t157.5 53.5q63 0 110 -20l-36 -179q-56 17 -99 17q-68 0 -134 -52.5t-110 -164.5v-625h-204z" horiz-adv-x="739" unicode="r"/><glyph d="M55 115l99 133q145 -115 284 -115q86 0 131 38t45 99q0 26 -12.5 48t-31.5 38.5t-48 32t-56 27t-62 24.5q-7 3 -11 4q-48 18 -83.5 34t-76.5 42t-67.5 54.5t-44 70.5t-17.5 90q0 128 97 210.5t260 82.5q174 0 321 -119l-94 -127q-121 88 -225 88q-81 0 -122.5 -35.5 t-41.5 -91.5q0 -23 11 -43t26.5 -33.5t44.5 -28.5t51 -23.5t60 -22.5q15 -5 22 -8q52 -19 85 -33t77.5 -41t70 -56t44 -74t18.5 -99q0 -132 -100.5 -219t-278.5 -87q-101 0 -200.5 38.5t-174.5 101.5z" horiz-adv-x="872" unicode="s"/><glyph d="M45 836v153l156 10l24 277h172v-277h262v-163h-262v-512q0 -92 35.5 -138.5t112.5 -46.5q43 0 108 25l37 -152q-113 -37 -196 -37q-304 0 -304 349v512h-145z" horiz-adv-x="716" unicode="t"/><glyph d="M143 373v631h207v-605q0 -131 40 -188t130 -57q69 0 124.5 35t119.5 116v696h205v-1001h-168l-17 152h-6q-73 -86 -150.5 -131.5t-174.5 -45.5l-2 2q-308 0 -308 396z" horiz-adv-x="1128" unicode="u"/><glyph d="M25 1001h208l173 -540q15 -49 44 -149.5t44 -149.5h8q14 49 44 149.5t44 149.5l172 540h201l-347 -1001h-237z" horiz-adv-x="987" unicode="v"/><glyph d="M51 1001h207l133 -546q10 -48 55 -283h9q41 193 65 283l142 546h190l143 -546q14 -55 37.5 -154.5t30.5 -128.5h8q11 50 29.5 144.5t27.5 138.5l132 546h192l-260 -1001h-246l-129 500q-13 53 -34 152t-29 136h-9q-40 -202 -63 -290l-125 -498h-238z" horiz-adv-x="1503" unicode="w"/><glyph d="M29 0l321 522l-299 479h221l121 -204q11 -19 44 -77t52 -89h9q60 121 84 166l106 204h213l-299 -501l320 -500h-222l-133 213q-13 22 -48.5 84t-55.5 94h-8q-37 -64 -95 -178l-118 -213h-213z" horiz-adv-x="952" unicode="x"/><glyph d="M25 1001h208l187 -520q40 -114 92 -282h8q12 42 39 138t41 144l164 520h199l-369 -1062q-64 -176 -154.5 -267.5t-238.5 -91.5l-2 2q-62 0 -123 21l39 159q47 -14 75 -14q147 0 211 191l21 67z" horiz-adv-x="987" unicode="y"/><glyph d="M68 0v111l497 727h-442v163h700v-110l-497 -727h512v-164h-770z" horiz-adv-x="890" unicode="z"/><glyph d="M68 508v127q94 1 135 45.5t41 110.5q0 67 -9.5 187.5t-9.5 195.5q0 155 58 215.5t188 60.5h102v-115h-51q-76 0 -103.5 -38t-27.5 -136q0 -59 6 -175t6 -185q0 -104 -30.5 -156.5t-100.5 -71.5v-8q69 -19 100 -72t31 -155q0 -69 -6 -185.5t-6 -175.5q0 -98 27.5 -136 t103.5 -38h51v-114h-102v4q-130 0 -188 60.5t-58 215.5q0 75 9.5 195t9.5 186q0 67 -40.5 112t-135.5 46z" horiz-adv-x="643" unicode="{"/><glyph d="M184 -512v2048h140v-2048h-140z" horiz-adv-x="507" unicode="|"/><glyph d="M72 -201h49q76 0 103.5 38t27.5 136q0 59 -5 175.5t-5 185.5q0 103 30 155.5t99 71.5v8q-69 19 -99 71.5t-30 156.5q0 69 5 185t5 175q0 98 -27.5 136t-103.5 38h-49v115h100q130 0 188 -61t58 -216q0 -75 -9.5 -195.5t-9.5 -187.5q0 -65 41.5 -109.5t134.5 -45.5v-127 q-93 -1 -134.5 -46t-41.5 -112q0 -66 9.5 -186t9.5 -195q0 -155 -58 -215.5t-188 -60.5h-100v110z" horiz-adv-x="643" unicode="}"/><glyph d="M70 643q114 191 272 191q45 0 88.5 -17.5t77 -42t64.5 -49t65 -42t65 -17.5q91 0 156 122l111 -83q-115 -189 -273 -189h-2q-45 0 -88.5 17.5t-77 42t-64.5 49t-65 42t-65 17.5q-88 0 -154 -123z" unicode="~"/><glyph d="M170 883q0 61 40 102t99 41q57 0 97 -41t40 -102q0 -64 -39.5 -106t-97.5 -42q-59 0 -99 42t-40 106zM207 -371l4 215l29 734h139l29 -734l6 -215h-207z" horiz-adv-x="620" unicode="¡"/><glyph d="M129 635q0 206 117 335t303 158v213h123v-208q149 -8 262 -117l-98 -129q-83 70 -164 78v-662q94 7 190 88l86 -129q-123 -111 -276 -129v-203h-123v207q-192 24 -306 154t-114 344zM328 633q0 -125 58.5 -209.5t162.5 -110.5v639q-104 -28 -162.5 -112t-58.5 -207z" unicode="¢"/><glyph d="M106 0l5 131q102 53 159.5 146t57.5 206q0 39 -11 99h-206v127l137 8h31q-50 156 -50 227q0 178 109.5 283.5t286.5 105.5q197 0 327 -157l-116 -115q-82 102 -193 102q-102 0 -158.5 -61t-56.5 -166q0 -21 2 -42t7 -48t8 -39t11.5 -48t10.5 -42h324v-135h-291 q8 -66 8 -103q0 -95 -29 -163t-90 -132v-8h563v-176h-846z" unicode="£"/><glyph d="M53 1042l107 109l139 -143q97 69 221 69t221 -69l140 143l106 -109l-131 -133q76 -102 76 -235q0 -132 -76 -234l131 -131l-106 -108l-142 141q-97 -72 -221 -72t-221 72l-141 -141l-101 108l129 131q-73 98 -73 234t71 235zM299 676q0 -112 65.5 -183t159.5 -71t160 71 t66 183t-66 183t-160 71t-159.5 -71t-65.5 -183z" unicode="¤"/><glyph d="M41 1305h213l143 -328q18 -42 56.5 -133.5t60.5 -141.5h8q19 42 39 88.5t43.5 101.5t36.5 85l143 328h209l-325 -639h278v-111h-328v-127h328v-111h-328v-317h-204v317h-328v111h328v127h-328v111h279z" unicode="¥"/><glyph d="M184 432h140v-944h-140v944zM184 608v928h140v-928h-140z" horiz-adv-x="507" unicode="¦"/><glyph d="M86 694q0 82 46.5 149.5t125.5 112.5q-61 71 -61 168q0 121 86 201t239 80q178 0 332 -121l-98 -131q-117 94 -224 94q-74 0 -110.5 -32t-36.5 -85q0 -36 24 -66t64 -51.5t90.5 -46t103 -46.5t103 -54.5t90.5 -69.5t64 -93t24 -123q0 -91 -44.5 -154.5t-129.5 -112.5 q57 -70 57 -166q0 -128 -96 -210t-252 -82v4q-111 0 -206.5 40t-159.5 113l123 109q108 -105 243 -105q74 0 117 35.5t43 89.5q0 43 -30.5 77.5t-80 59.5t-109 49.5t-118.5 56t-108.5 71t-80 101t-30.5 138.5zM262 705q0 -47 24 -84t69.5 -65.5t91.5 -50t110 -50t105 -52.5 q55 29 81.5 66.5t26.5 95.5q0 48 -23.5 86t-68.5 67t-90 50t-109 49.5t-104 50.5q-113 -61 -113 -163z" unicode="§"/><glyph d="M240 1307q0 48 32 81t82 33q49 0 81 -33t32 -81t-32 -81.5t-81 -33.5q-50 0 -82 33.5t-32 81.5zM649 1307q0 48 32 81t81 33q50 0 82.5 -33t32.5 -81t-32.5 -81.5t-82.5 -33.5q-49 0 -81 33.5t-32 81.5z" horiz-adv-x="1118" unicode="¨"/><glyph d="M98 664q0 123 34.5 230.5t96.5 188t145.5 139t183 88t206.5 29.5t206.5 -29.5t183 -88t145.5 -139t96.5 -188t34.5 -230.5q0 -153 -53.5 -283t-145 -217t-212.5 -135.5t-255 -48.5t-255 48.5t-212.5 135.5t-145 217t-53.5 283zM207 664q0 -129 44 -240t119.5 -186.5 t177.5 -118.5t216 -43t216 43t177.5 118.5t119.5 186.5t44 240q0 128 -44 237.5t-119.5 184t-177 116t-216.5 41.5t-216.5 -41.5t-177 -116t-119.5 -184t-44 -237.5zM401 664q0 115 54 205.5t141 137t188 46.5q82 0 144.5 -31.5t118.5 -87.5l-84 -92q-80 80 -168 80 q-106 0 -171 -73t-65 -187q0 -126 62.5 -200.5t166.5 -74.5q57 0 102.5 22t94.5 64l72 -100q-64 -56 -128 -85.5t-147 -29.5l-2 2q-164 0 -271.5 109.5t-107.5 294.5z" horiz-adv-x="1527" unicode="©"/><glyph d="M72 975q0 107 95.5 165.5t305.5 80.5q-3 133 -119 133q-87 0 -202 -68l-56 103q145 88 279 88q123 0 184.5 -72t61.5 -209v-397h-121l-17 73h-8q-97 -90 -201 -90l2 -2q-92 0 -148 54t-56 141zM219 987q0 -45 28 -67.5t77 -22.5l-2 -2q71 0 151 74v157 q-254 -27 -254 -139z" horiz-adv-x="714" unicode="ª"/><glyph d="M94 438v152l279 311l84 -70l-238 -317l238 -319l-84 -66zM434 436v152l279 311l84 -70l-238 -317l238 -319l-84 -66z" horiz-adv-x="907" unicode="«"/><glyph d="M70 600v152h897v-545h-160v393h-737z" unicode="¬"/><glyph d="M86 438v152h479v-152h-479z" horiz-adv-x="649" unicode="­"/><glyph d="M51 1055q0 177 113.5 291t277.5 114q166 0 280 -114t114 -291t-114 -291.5t-280 -114.5q-164 0 -277.5 114.5t-113.5 291.5zM141 1055q0 -143 85.5 -233.5t215.5 -90.5q131 0 217 90.5t86 233.5t-86.5 234t-216.5 91t-215.5 -91t-85.5 -234zM291 854v412h164 q72 0 116.5 -32.5t44.5 -100.5q0 -37 -20 -68.5t-53 -44.5l92 -166h-103l-69 137h-78v-137h-94zM385 1061h51q38 0 59 17t21 48q0 64 -78 64h-53v-129z" horiz-adv-x="888" unicode="®"/><glyph d="M279 1225v137h561v-137h-561z" horiz-adv-x="1118" unicode="¯"/><glyph d="M82 1130q0 120 78 196.5t190 76.5t190 -76.5t78 -196.5q0 -119 -78 -194.5t-190 -75.5t-190 75.5t-78 194.5zM201 1130q0 -71 41.5 -116t107.5 -45t108 45t42 116q0 73 -42 119.5t-108 46.5t-107.5 -46t-41.5 -120z" horiz-adv-x="696" unicode="°"/><glyph d="M70 2v152h897v-152h-897zM70 618v152h368v377h158v-377h369v-152h-369v-339h-158v339h-368z" unicode="±"/><glyph d="M72 1462q53 74 124 116t154 42q126 0 200.5 -68t74.5 -192q0 -36 -8 -70t-30 -72.5t-39 -65t-58 -72.5t-63 -69t-75 -79h312v-133h-562l-4 82q83 73 131 117t100.5 97t78.5 89.5t43.5 74.5t17.5 72q0 73 -38.5 115.5t-104.5 42.5q-85 0 -164 -111z" horiz-adv-x="757" unicode="²"/><glyph d="M66 930l100 78q77 -113 194 -113q63 0 105.5 35t42.5 96q0 64 -60.5 97.5t-171.5 33.5v96q94 0 148.5 36t54.5 95q0 52 -36.5 83.5t-96.5 31.5q-78 0 -153 -92l-93 82q117 133 271 133q108 0 184 -59.5t76 -157.5q0 -127 -133 -195q71 -20 118.5 -71t47.5 -123 q0 -108 -84.5 -175t-206.5 -67l-4 -2q-96 0 -175 42.5t-128 115.5z" horiz-adv-x="757" unicode="³"/><glyph d="M442 1276l295 350l144 -137l-336 -315z" horiz-adv-x="1118" unicode="´"/><glyph d="M154 1004h204v-605q0 -127 39.5 -186t126.5 -59q69 0 125.5 38t114.5 140v672h207q-1 -87 -8 -369t-7 -408q0 -41 21.5 -61.5t58.5 -20.5q25 0 62 13l26 -154q-60 -29 -135 -29q-90 0 -140 45.5t-65 141.5h-4q-98 -180 -258 -180q-59 0 -101.5 18t-72.5 66 q3 -247 17 -431h-207z" horiz-adv-x="1169" unicode="µ"/><glyph d="M84 899q0 120 37.5 207t107 137.5t157.5 74t198 23.5h90v-895h-70q-113 0 -206 27.5t-164 82t-110.5 142t-39.5 201.5zM786 -164v1505h209v-1505h-209z" horiz-adv-x="1189" unicode="¶"/><glyph d="M131 655q0 64 40 106t99 42q58 0 98 -42t40 -106q0 -61 -40 -102t-98 -41q-59 0 -99 41t-40 102z" horiz-adv-x="538" unicode="·"/><glyph d="M365 -379q123 9 171 32t48 68q0 38 -35.5 60.5t-122.5 34.5l92 190h127l-59 -135q76 -18 113.5 -52t37.5 -95q0 -179 -356 -195z" horiz-adv-x="1118" unicode="¸"/><glyph d="M170 1413v100q122 20 209 84h125v-798h-156l-2 614h-176z" horiz-adv-x="757" unicode="¹"/><glyph d="M57 1128q0 160 92 254.5t226 94.5q133 0 225 -94.5t92 -254.5q0 -159 -92 -252.5t-225 -93.5q-134 0 -226 93.5t-92 252.5zM211 1130q0 -102 43.5 -163.5t120.5 -61.5t120.5 61.5t43.5 163.5q0 104 -43.5 166t-120.5 62t-120.5 -62t-43.5 -166z" horiz-adv-x="751" unicode="º"/><glyph d="M111 197l237 319l-237 318l82 69l278 -311v-152l-278 -311zM453 199l237 319l-237 318l82 69l278 -311v-152l-278 -311z" horiz-adv-x="907" unicode="»"/><glyph d="M117 1157v100q122 20 209 84h125v-798h-156l-2 614h-176zM369 -25l735 1391h131l-735 -1391h-131zM934 203v80l323 516h183v-488h119v-108h-119v-203h-140v203h-366zM1090 311h210v127l9 228h-9l-96 -164z" horiz-adv-x="1615" unicode="¼"/><glyph d="M117 1157v100q122 20 209 84h125v-798h-156l-2 614h-176zM330 -25l735 1391h131l-735 -1391h-131zM987 664q52 74 124 115.5t155 41.5q125 0 199.5 -68t74.5 -192q0 -36 -8 -70t-29.5 -72t-39.5 -65.5t-57.5 -72.5t-62.5 -69.5t-75 -78.5h311v-133h-561l-4 82 q82 73 130.5 117.5t100.5 97t78.5 89t43.5 74.5t17 72q0 73 -38.5 115.5t-104.5 42.5q-85 0 -164 -110z" horiz-adv-x="1675" unicode="½"/><glyph d="M61 674l101 78q77 -113 194 -113q63 0 105.5 35t42.5 96q0 64 -60.5 97.5t-171.5 33.5v96q94 0 148.5 36t54.5 95q0 52 -36.5 83.5t-96.5 31.5q-79 0 -154 -92l-92 82q117 133 271 133q108 0 184 -59.5t76 -157.5q0 -127 -133 -195q71 -20 118 -71t47 -123 q0 -108 -84 -175t-206 -67l-4 -2q-96 0 -175.5 43t-128.5 115zM436 -27l735 1391h132l-736 -1391h-131zM961 201v80l323 516h182v-488h119v-108h-119v-203h-139v203h-366zM1116 309h211v127l8 228h-8l-96 -164z" horiz-adv-x="1642" unicode="¾"/><glyph d="M94 -59q0 45 11 86t36.5 82t44.5 66t56 69q31 37 48 59t40.5 59t35 66.5t18 70t1.5 81.5h180q4 -29 4 -57.5t-2.5 -52t-10.5 -49.5t-15 -45t-21 -43t-23.5 -39.5t-27.5 -38.5t-28 -35.5t-29 -35.5q-32 -38 -47 -57.5t-36 -52t-29.5 -61.5t-8.5 -60q0 -79 47.5 -128.5 t134.5 -49.5q125 0 221 110l117 -106q-157 -174 -360 -174l-2 2q-161 0 -258 88.5t-97 245.5zM334 885q0 61 40 102t99 41q57 0 97 -41t40 -102q0 -64 -39.5 -106t-97.5 -42q-59 0 -99 42t-40 106z" horiz-adv-x="892" unicode="¿"/><glyph d="M0 0l444 1341h240l444 -1341h-221l-114 385h-467l-115 -385h-211zM260 1657l115 135l307 -268l-92 -105zM375 549h368l-53 182q-49 158 -127 447h-8q-65 -255 -125 -447z" horiz-adv-x="1130" unicode="À"/><glyph d="M0 0l444 1341h240l444 -1341h-221l-114 385h-467l-115 -385h-211zM375 549h368l-53 182q-49 158 -127 447h-8q-65 -255 -125 -447zM436 1524l307 268l115 -135l-330 -238z" horiz-adv-x="1130" unicode="Á"/><glyph d="M0 0l444 1341h240l444 -1341h-221l-114 385h-467l-115 -385h-211zM244 1485l207 229h217l206 -229l-90 -62l-221 185h-8l-221 -185zM375 549h368l-53 182q-49 158 -127 447h-8q-65 -255 -125 -447z" horiz-adv-x="1130" unicode="Â"/><glyph d="M0 0l444 1341h240l444 -1341h-221l-114 385h-467l-115 -385h-211zM184 1466q6 126 66 195.5t158 69.5q42 0 80 -14t65.5 -34.5t52 -41t50 -34.5t49.5 -14q36 0 60.5 31.5t31.5 93.5l137 -10q-6 -127 -65.5 -195.5t-157.5 -68.5q-51 0 -98 21.5t-75 47t-61.5 47 t-62.5 21.5q-37 0 -61.5 -32t-30.5 -93zM375 549h368l-53 182q-49 158 -127 447h-8q-65 -255 -125 -447z" horiz-adv-x="1130" unicode="Ã"/><glyph d="M0 0l444 1341h240l444 -1341h-221l-114 385h-467l-115 -385h-211zM231 1569q0 49 31.5 80.5t81.5 31.5q49 0 80 -31t31 -81q0 -48 -31 -80.5t-80 -32.5t-81 32.5t-32 80.5zM375 549h368l-53 182q-49 158 -127 447h-8q-65 -255 -125 -447zM664 1569q0 50 30.5 81t79.5 31 q50 0 81.5 -31.5t31.5 -80.5q0 -48 -32 -80.5t-81 -32.5t-79.5 32.5t-30.5 80.5z" horiz-adv-x="1130" unicode="Ä"/><glyph d="M0 0l444 1341h240l444 -1341h-221l-114 385h-467l-115 -385h-211zM352 1622q0 86 57.5 138t149.5 52q90 0 148.5 -52.5t58.5 -137.5t-58.5 -137.5t-148.5 -52.5q-92 0 -149.5 52t-57.5 138zM375 549h368l-53 182q-49 158 -127 447h-8q-65 -255 -125 -447zM459 1620 q0 -49 28.5 -76.5t71.5 -27.5q42 0 71 27.5t29 76.5q0 48 -29 76t-71 28q-43 0 -71.5 -28t-28.5 -76z" horiz-adv-x="1130" unicode="Å"/><glyph d="M4 0l684 1343h885v-174h-553v-378h463v-177h-463v-438h573v-176h-782v369h-405l-185 -369h-217zM487 532h324v648h-8q-12 -25 -87.5 -183t-115.5 -239z" horiz-adv-x="1695" unicode="Æ"/><glyph d="M104 668q0 159 46.5 291t128 220t192.5 136.5t238 48.5q117 0 213.5 -47t164.5 -121l-110 -133q-118 121 -264 121q-177 0 -286.5 -139t-109.5 -373q0 -239 105.5 -378.5t284.5 -139.5q165 0 297 145l112 -129q-145 -167 -344 -190l-49 -111q75 -18 113 -52.5t38 -95.5 q0 -178 -356 -194l-16 92q123 9 171 32t48 68q0 38 -35.5 60.5t-122.5 34.5l78 161q-116 10 -213.5 61.5t-170 138t-113 213.5t-40.5 280z" horiz-adv-x="1175" unicode="Ç"/><glyph d="M176 0v1343h791v-174h-586v-378h496v-177h-496v-438h606v-176h-811zM285 1659l114 135l308 -268l-93 -105z" horiz-adv-x="1091" unicode="È"/><glyph d="M176 0v1343h791v-174h-586v-378h496v-177h-496v-438h606v-176h-811zM461 1526l307 268l115 -135l-330 -238z" horiz-adv-x="1091" unicode="É"/><glyph d="M176 0v1343h791v-174h-586v-378h496v-177h-496v-438h606v-176h-811zM268 1487l207 229h217l207 -229l-90 -62l-221 185h-8l-222 -185z" horiz-adv-x="1091" unicode="Ê"/><glyph d="M176 0v1343h791v-174h-586v-378h496v-177h-496v-438h606v-176h-811zM256 1571q0 49 31.5 80.5t81.5 31.5q49 0 79.5 -31t30.5 -81q0 -48 -30.5 -80.5t-79.5 -32.5t-81 32.5t-32 80.5zM688 1571q0 50 31 81t80 31t80.5 -31.5t31.5 -80.5q0 -48 -31.5 -80.5t-80.5 -32.5 t-80 32.5t-31 80.5z" horiz-adv-x="1091" unicode="Ë"/><glyph d="M-20 1657l114 135l307 -268l-92 -105zM176 0v1341h207v-1341h-207z" horiz-adv-x="561" unicode="Ì"/><glyph d="M156 1524l307 268l115 -135l-330 -238zM176 0v1341h207v-1341h-207z" horiz-adv-x="561" unicode="Í"/><glyph d="M-37 1485l207 229h217l207 -229l-90 -62l-221 185h-9l-221 -185zM176 0v1341h207v-1341h-207z" horiz-adv-x="561" unicode="Î"/><glyph d="M-49 1569q0 49 31.5 80.5t80.5 31.5t80 -31t31 -81q0 -48 -31 -80.5t-80 -32.5t-80.5 32.5t-31.5 80.5zM176 0v1341h207v-1341h-207zM383 1569q0 50 31 81t80 31q50 0 81 -31.5t31 -80.5q0 -48 -31.5 -80.5t-80.5 -32.5t-80 32.5t-31 80.5z" horiz-adv-x="561" unicode="Ï"/><glyph d="M63 647v103l160 8v583h348q311 0 478.5 -170t167.5 -493q0 -325 -166.5 -500.5t-468.5 -175.5h-359v645h-160zM430 168l127 2q217 0 330.5 129t113.5 379q0 247 -113 371.5t-331 124.5h-127v-416h291v-111h-291v-479z" horiz-adv-x="1318" unicode="Ð"/><glyph d="M176 0v1341h213l447 -794l141 -283h8q-2 33 -8 104.5t-9.5 117.5t-6.5 109t-3 114v632h197v-1341h-213l-448 797l-142 280h-8q1 -15 9 -101t10.5 -121.5t6 -100t3.5 -115.5v-639h-197zM297 1466q6 126 65.5 195.5t157.5 69.5q42 0 80 -14t65.5 -34.5t52 -41t50 -34.5 t49.5 -14q36 0 60.5 31.5t31.5 93.5l138 -10q-6 -127 -66 -195.5t-158 -68.5q-51 0 -98 21.5t-75 47t-61.5 47t-62.5 21.5q-37 0 -61.5 -32t-30.5 -93z" horiz-adv-x="1335" unicode="Ñ"/><glyph d="M104 678q0 320 160 505t422 185t423 -186t161 -504q0 -322 -161.5 -512.5t-422.5 -190.5t-421.5 190.5t-160.5 512.5zM317 678q0 -237 101 -379.5t268 -142.5t268 142.5t101 379.5q0 235 -100.5 371.5t-268.5 136.5t-268.5 -136.5t-100.5 -371.5zM387 1655l115 135 l307 -268l-92 -105z" horiz-adv-x="1372" unicode="Ò"/><glyph d="M104 678q0 320 160 505t422 185t423 -186t161 -504q0 -322 -161.5 -512.5t-422.5 -190.5t-421.5 190.5t-160.5 512.5zM317 678q0 -237 101 -379.5t268 -142.5t268 142.5t101 379.5q0 235 -100.5 371.5t-268.5 136.5t-268.5 -136.5t-100.5 -371.5zM563 1522l307 268 l115 -135l-330 -238z" horiz-adv-x="1372" unicode="Ó"/><glyph d="M104 678q0 320 160 505t422 185t423 -186t161 -504q0 -322 -161.5 -512.5t-422.5 -190.5t-421.5 190.5t-160.5 512.5zM317 678q0 -237 101 -379.5t268 -142.5t268 142.5t101 379.5q0 235 -100.5 371.5t-268.5 136.5t-268.5 -136.5t-100.5 -371.5zM371 1485l207 229h217 l206 -229l-90 -62l-221 185h-8l-221 -185z" horiz-adv-x="1372" unicode="Ô"/><glyph d="M104 678q0 320 160 505t422 185t423 -186t161 -504q0 -322 -161.5 -512.5t-422.5 -190.5t-421.5 190.5t-160.5 512.5zM311 1464q6 126 66 195.5t158 69.5q51 0 97.5 -21.5t74.5 -47.5t61.5 -47.5t62.5 -21.5q36 0 61 32t32 93l137 -10q-6 -127 -65.5 -195.5t-157.5 -68.5 q-51 0 -98 21.5t-75 47t-61.5 47t-62.5 21.5q-37 0 -61.5 -32t-30.5 -93zM317 678q0 -237 101 -379.5t268 -142.5t268 142.5t101 379.5q0 235 -100.5 371.5t-268.5 136.5t-268.5 -136.5t-100.5 -371.5z" horiz-adv-x="1372" unicode="Õ"/><glyph d="M104 678q0 320 160 505t422 185t423 -186t161 -504q0 -322 -161.5 -512.5t-422.5 -190.5t-421.5 190.5t-160.5 512.5zM317 678q0 -237 101 -379.5t268 -142.5t268 142.5t101 379.5q0 235 -100.5 371.5t-268.5 136.5t-268.5 -136.5t-100.5 -371.5zM358 1569 q0 49 31.5 80.5t81.5 31.5q49 0 80 -31t31 -81q0 -48 -31 -80.5t-80 -32.5t-81 32.5t-32 80.5zM791 1569q0 50 30.5 81t79.5 31q50 0 81.5 -31.5t31.5 -80.5q0 -48 -32 -80.5t-81 -32.5t-79.5 32.5t-30.5 80.5z" horiz-adv-x="1372" unicode="Ö"/><glyph d="M102 358l312 318l-312 315l107 109l311 -318l309 318l107 -109l-311 -315l311 -318l-107 -108l-309 319l-311 -319z" unicode="×"/><glyph d="M98 20l144 185q-131 186 -131 475q0 320 159.5 505t421.5 185q215 0 361 -125l129 166l110 -86l-143 -184q127 -186 127 -461q0 -322 -161.5 -512.5t-422.5 -190.5q-207 0 -352 123l-131 -168zM324 680q0 -170 55 -299l551 706q-93 101 -238 101q-168 0 -268 -136.5 t-100 -371.5zM461 256q95 -98 231 -98q167 0 268 142.5t101 379.5q0 162 -51 283z" horiz-adv-x="1372" unicode="Ø"/><glyph d="M172 571v768h207v-780q0 -405 291 -405q295 0 295 405v780h198v-768q0 -596 -493 -596h-2h2q-498 0 -498 596zM371 1655l114 135l308 -268l-93 -105z" horiz-adv-x="1331" unicode="Ù"/><glyph d="M172 571v768h207v-780q0 -405 291 -405q295 0 295 405v780h198v-768q0 -596 -493 -596h-2h2q-498 0 -498 596zM545 1522l307 268l115 -135l-330 -238z" horiz-adv-x="1331" unicode="Ú"/><glyph d="M172 571v768h207v-780q0 -405 291 -405q295 0 295 405v780h198v-768q0 -596 -493 -596h-2h2q-498 0 -498 596zM354 1485l207 229h217l207 -229l-90 -62l-221 185h-8l-222 -185z" horiz-adv-x="1331" unicode="Û"/><glyph d="M172 571v768h207v-780q0 -405 291 -405q295 0 295 405v780h198v-768q0 -596 -493 -596h-2h2q-498 0 -498 596zM340 1569q0 49 31.5 80.5t81.5 31.5q49 0 79.5 -31t30.5 -81q0 -48 -30.5 -80.5t-79.5 -32.5t-81 32.5t-32 80.5zM772 1569q0 50 31 81t80 31t80.5 -31.5 t31.5 -80.5q0 -48 -31.5 -80.5t-80.5 -32.5t-80 32.5t-31 80.5z" horiz-adv-x="1331" unicode="Ü"/><glyph d="M-6 1341h221l160 -358q108 -257 123 -293h8q107 238 129 293l158 358h217l-404 -833v-508h-209v508zM379 1522l307 268l115 -135l-330 -238z" horiz-adv-x="1003" unicode="Ý"/><glyph d="M174 1339h207v-219h225q504 0 504 -403q0 -107 -37 -189.5t-105 -133.5t-158.5 -77t-201.5 -26h-225v-291h-207zM381 457l207 -2q162 0 239.5 63.5t77.5 196.5q0 130 -76.5 183.5t-240.5 53.5h-207v-495z" horiz-adv-x="1212" unicode="Þ"/><glyph d="M156 0v1038q0 198 111.5 316.5t314.5 118.5q168 0 263 -90.5t95 -221.5q0 -56 -18.5 -106t-44.5 -85.5t-52 -68t-44.5 -68t-18.5 -71.5t21.5 -65t56 -50.5t76.5 -42.5t83.5 -48t76 -60.5t56 -86.5t21.5 -120q0 -136 -92.5 -225t-249.5 -89q-152 0 -295 99l78 143 q103 -84 209 -84q72 0 113.5 42.5t41.5 103.5q0 43 -21.5 78t-56 58.5t-76.5 45.5t-83.5 47t-76 54t-56 74.5t-21.5 102.5q0 48 17.5 92.5t42.5 78.5t50 67.5t42.5 75.5t17.5 88q0 75 -40.5 121.5t-116.5 46.5q-105 0 -162.5 -77t-57.5 -224v-1008h-204z" horiz-adv-x="1212" unicode="ß"/><glyph d="M100 264q0 162 143 250.5t457 122.5q-4 221 -192 221q-127 0 -289 -102l-78 139q202 131 404 131q182 0 272 -110t90 -314v-602h-168l-16 115h-6q-165 -140 -322 -140q-130 0 -212.5 79t-82.5 210zM225 1487l144 137l295 -350l-103 -103zM299 281q0 -72 44 -108t116 -36 v-2q63 0 118.5 29.5t122.5 91.5v250q-217 -27 -309 -82t-92 -143z" horiz-adv-x="1044" unicode="à"/><glyph d="M100 264q0 162 143 250.5t457 122.5q-4 221 -192 221q-127 0 -289 -102l-78 139q202 131 404 131q182 0 272 -110t90 -314v-602h-168l-16 115h-6q-165 -140 -322 -140q-130 0 -212.5 79t-82.5 210zM299 281q0 -72 44 -108t116 -36v-2q63 0 118.5 29.5t122.5 91.5v250 q-217 -27 -309 -82t-92 -143zM428 1274l295 350l143 -137l-336 -316z" horiz-adv-x="1044" unicode="á"/><glyph d="M100 264q0 162 143 250.5t457 122.5q-4 221 -192 221q-127 0 -289 -102l-78 139q202 131 404 131q182 0 272 -110t90 -314v-602h-168l-16 115h-6q-165 -140 -322 -140q-130 0 -212.5 79t-82.5 210zM213 1233l231 283h207l230 -283l-84 -78l-246 219h-8l-246 -219z M299 281q0 -72 44 -108t116 -36v-2q63 0 118.5 29.5t122.5 91.5v250q-217 -27 -309 -82t-92 -143z" horiz-adv-x="1044" unicode="â"/><glyph d="M100 264q0 162 143 250.5t457 122.5q-4 221 -192 221q-127 0 -289 -102l-78 139q202 131 404 131q182 0 272 -110t90 -314v-602h-168l-16 115h-6q-165 -140 -322 -140q-130 0 -212.5 79t-82.5 210zM184 1196q5 135 59.5 211t159.5 76q48 0 92 -25t71.5 -55t61 -55 t62.5 -25q76 0 86 147l133 -8q-5 -134 -59.5 -209t-159.5 -75q-39 0 -74.5 16.5t-62 40t-50.5 46.5t-49 39.5t-48 16.5q-79 0 -89 -149zM299 281q0 -72 44 -108t116 -36v-2q63 0 118.5 29.5t122.5 91.5v250q-217 -27 -309 -82t-92 -143z" horiz-adv-x="1044" unicode="ã"/><glyph d="M100 264q0 162 143 250.5t457 122.5q-4 221 -192 221q-127 0 -289 -102l-78 139q202 131 404 131q182 0 272 -110t90 -314v-602h-168l-16 115h-6q-165 -140 -322 -140q-130 0 -212.5 79t-82.5 210zM227 1305q0 48 32.5 81t82.5 33q49 0 81 -33t32 -81t-32 -81.5 t-81 -33.5q-50 0 -82.5 33.5t-32.5 81.5zM299 281q0 -72 44 -108t116 -36v-2q63 0 118.5 29.5t122.5 91.5v250q-217 -27 -309 -82t-92 -143zM637 1305q0 48 32 81t81 33q50 0 82 -33t32 -81t-32 -81.5t-82 -33.5q-49 0 -81 33.5t-32 81.5z" horiz-adv-x="1044" unicode="ä"/><glyph d="M100 264q0 162 143 250.5t457 122.5q-4 221 -192 221q-127 0 -289 -102l-78 139q202 131 404 131q182 0 272 -110t90 -314v-602h-168l-16 115h-6q-165 -140 -322 -140q-130 0 -212.5 79t-82.5 210zM299 281q0 -72 44 -108t116 -36v-2q63 0 118.5 29.5t122.5 91.5v250 q-217 -27 -309 -82t-92 -143zM309 1343q0 88 65 145.5t173 57.5t172.5 -57.5t64.5 -145.5q0 -89 -64.5 -146.5t-172.5 -57.5t-173 57.5t-65 146.5zM438 1346q0 -54 31 -87.5t78 -33.5t77.5 33t30.5 88q0 53 -30.5 85.5t-77.5 32.5t-78 -32.5t-31 -85.5z" horiz-adv-x="1044" unicode="å"/><glyph d="M117 264q0 162 141.5 250.5t450.5 122.5q-4 221 -191 221q-123 0 -285 -102l-77 139q202 131 387 131q103 0 175 -51.5t107 -143.5q129 195 320 195q184 0 284.5 -129t100.5 -346q0 -52 -8 -102h-629q9 -139 90 -223.5t201 -84.5q105 0 233 78l74 -139 q-160 -105 -332 -105q-205 0 -350 179q-206 -179 -399 -179q-129 0 -211 79t-82 210zM315 281q0 -72 43.5 -108t114.5 -36l-2 -2q66 0 138.5 35.5t131.5 99.5q-31 75 -34 187v49q-207 -27 -299.5 -82.5t-92.5 -142.5zM408 -25h2h-2zM895 578h459q0 137 -54.5 211.5 t-158.5 74.5q-96 0 -164.5 -77t-81.5 -209z" horiz-adv-x="1607" unicode="æ"/><glyph d="M90 496q0 122 40 223.5t108 167t156.5 101.5t187.5 36q161 0 292 -115l-102 -133q-92 82 -182 82q-128 0 -209.5 -99t-81.5 -259q0 -159 79.5 -258t205.5 -99q113 0 221 93l86 -136q-110 -98 -258 -120l-49 -113q75 -18 113 -52.5t38 -95.5q0 -178 -356 -194l-17 92 q123 9 171.5 32t48.5 68q0 38 -35.5 60.5t-122.5 34.5l80 163q-185 22 -299.5 160t-114.5 361z" horiz-adv-x="940" unicode="ç"/><glyph d="M86 498q0 119 38.5 220t102.5 167.5t145.5 103.5t168.5 37q194 0 300.5 -128t106.5 -345q0 -57 -8 -107h-653q12 -144 96 -226.5t217 -82.5q120 0 242 74l69 -131q-160 -105 -336 -105h-2q-137 0 -246.5 61.5t-175 181.5t-65.5 280zM219 1489l143 137l295 -350l-102 -102 zM285 590h485q0 133 -57.5 204.5t-165.5 71.5q-99 0 -173.5 -73.5t-88.5 -202.5z" horiz-adv-x="1028" unicode="è"/><glyph d="M86 498q0 119 38.5 220t102.5 167.5t145.5 103.5t168.5 37q194 0 300.5 -128t106.5 -345q0 -57 -8 -107h-653q12 -144 96 -226.5t217 -82.5q120 0 242 74l69 -131q-160 -105 -336 -105h-2q-137 0 -246.5 61.5t-175 181.5t-65.5 280zM285 590h485q0 133 -57.5 204.5 t-165.5 71.5q-99 0 -173.5 -73.5t-88.5 -202.5zM424 1276l295 350l143 -137l-336 -315z" horiz-adv-x="1028" unicode="é"/><glyph d="M86 498q0 119 38.5 220t102.5 167.5t145.5 103.5t168.5 37q194 0 300.5 -128t106.5 -345q0 -57 -8 -107h-653q12 -144 96 -226.5t217 -82.5q120 0 242 74l69 -131q-160 -105 -336 -105h-2q-137 0 -246.5 61.5t-175 181.5t-65.5 280zM207 1237l231 283h207l229 -283 l-83 -78l-246 219h-8l-246 -219zM285 590h485q0 133 -57.5 204.5t-165.5 71.5q-99 0 -173.5 -73.5t-88.5 -202.5z" horiz-adv-x="1028" unicode="ê"/><glyph d="M86 498q0 119 38.5 220t102.5 167.5t145.5 103.5t168.5 37q194 0 300.5 -128t106.5 -345q0 -57 -8 -107h-653q12 -144 96 -226.5t217 -82.5q120 0 242 74l69 -131q-160 -105 -336 -105h-2q-137 0 -246.5 61.5t-175 181.5t-65.5 280zM221 1307q0 48 32.5 81t82.5 33 q49 0 81 -33t32 -81t-32 -81.5t-81 -33.5q-50 0 -82.5 33.5t-32.5 81.5zM285 590h485q0 133 -57.5 204.5t-165.5 71.5q-99 0 -173.5 -73.5t-88.5 -202.5zM631 1307q0 48 31.5 81t80.5 33q50 0 82.5 -33t32.5 -81t-32.5 -81.5t-82.5 -33.5q-49 0 -80.5 33.5t-31.5 81.5z" horiz-adv-x="1028" unicode="ë"/><glyph d="M-61 1489l143 137l295 -350l-103 -102zM158 0v1001h204v-1001h-204z" horiz-adv-x="520" unicode="ì"/><glyph d="M143 1276l295 350l144 -137l-336 -315zM158 0v1001h204v-1001h-204z" horiz-adv-x="520" unicode="í"/><glyph d="M-74 1237l232 283h207l229 -283l-84 -78l-246 219h-8l-246 -219zM158 0v1001h204v-1001h-204z" horiz-adv-x="520" unicode="î"/><glyph d="M-59 1307q0 48 32 81t82 33q49 0 81 -33t32 -81t-32 -81.5t-81 -33.5q-50 0 -82 33.5t-32 81.5zM158 0v1001h204v-1001h-204zM350 1307q0 48 32 81t81 33q50 0 82.5 -33t32.5 -81t-32.5 -81.5t-82.5 -33.5q-49 0 -81 33.5t-32 81.5z" horiz-adv-x="520" unicode="ï"/><glyph d="M104 459q0 207 121 335t299 128q163 0 260 -123q-55 210 -206 358l-291 -147l-58 96l254 131q-88 66 -217 135l92 127q166 -87 283 -182l293 149l57 -98l-260 -133q277 -280 277 -705q0 -247 -124.5 -401t-328.5 -154h-2h2q-89 0 -170.5 34t-144 95.5t-99.5 153.5 t-37 201zM297 459q0 -141 76.5 -228.5t187.5 -87.5q122 0 188 101.5t66 277.5q0 39 -4 109q-104 135 -252 135q-121 0 -191.5 -84.5t-70.5 -222.5z" horiz-adv-x="1124" unicode="ð"/><glyph d="M158 0v1001h168l16 -139h6q79 78 158 121t174 43q307 0 307 -395v-631h-205v604q0 131 -41 188.5t-131 57.5q-66 0 -120 -32.5t-128 -106.5v-711h-204zM246 1198q5 135 59.5 211t159.5 76q48 0 92 -25t71.5 -55t61 -55t62.5 -25q76 0 86 148l133 -9q-5 -134 -59.5 -209 t-159.5 -75q-48 0 -92 25t-71.5 54.5t-60.5 54.5t-61 25q-78 0 -88 -149z" horiz-adv-x="1134" unicode="ñ"/><glyph d="M88 500q0 122 38.5 223.5t104 167t150 101.5t178.5 36t178.5 -36t150 -101.5t104 -167t38.5 -223.5q0 -121 -38.5 -221.5t-104 -166t-150 -101.5t-178.5 -36t-178.5 36t-150 101.5t-104 166t-38.5 221.5zM238 1489l143 137l295 -350l-103 -102zM299 500q0 -160 71 -258.5 t189 -98.5q119 0 189.5 98t70.5 259q0 162 -70.5 260t-189.5 98q-118 0 -189 -98t-71 -260z" horiz-adv-x="1118" unicode="ò"/><glyph d="M88 500q0 122 38.5 223.5t104 167t150 101.5t178.5 36t178.5 -36t150 -101.5t104 -167t38.5 -223.5q0 -121 -38.5 -221.5t-104 -166t-150 -101.5t-178.5 -36t-178.5 36t-150 101.5t-104 166t-38.5 221.5zM299 500q0 -160 71 -258.5t189 -98.5q119 0 189.5 98t70.5 259 q0 162 -70.5 260t-189.5 98q-118 0 -189 -98t-71 -260zM442 1276l295 350l144 -137l-336 -315z" horiz-adv-x="1118" unicode="ó"/><glyph d="M88 500q0 122 38.5 223.5t104 167t150 101.5t178.5 36t178.5 -36t150 -101.5t104 -167t38.5 -223.5q0 -121 -38.5 -221.5t-104 -166t-150 -101.5t-178.5 -36t-178.5 36t-150 101.5t-104 166t-38.5 221.5zM225 1237l232 283h207l229 -283l-84 -78l-246 219h-8l-246 -219z M299 500q0 -160 71 -258.5t189 -98.5q119 0 189.5 98t70.5 259q0 162 -70.5 260t-189.5 98q-118 0 -189 -98t-71 -260z" horiz-adv-x="1118" unicode="ô"/><glyph d="M88 500q0 122 38.5 223.5t104 167t150 101.5t178.5 36t178.5 -36t150 -101.5t104 -167t38.5 -223.5q0 -121 -38.5 -221.5t-104 -166t-150 -101.5t-178.5 -36t-178.5 36t-150 101.5t-104 166t-38.5 221.5zM197 1198q5 135 59.5 211t159.5 76q39 0 75 -16.5t62 -40t50 -47 t49.5 -40t49.5 -16.5q76 0 86 148l134 -9q-5 -134 -59.5 -209t-160.5 -75q-39 0 -74.5 16.5t-62 40t-50.5 46.5t-49 39.5t-48 16.5q-78 0 -88 -149zM299 500q0 -160 71 -258.5t189 -98.5q119 0 189.5 98t70.5 259q0 162 -70.5 260t-189.5 98q-118 0 -189 -98t-71 -260z" horiz-adv-x="1118" unicode="õ"/><glyph d="M88 500q0 122 38.5 223.5t104 167t150 101.5t178.5 36t178.5 -36t150 -101.5t104 -167t38.5 -223.5q0 -121 -38.5 -221.5t-104 -166t-150 -101.5t-178.5 -36t-178.5 36t-150 101.5t-104 166t-38.5 221.5zM240 1307q0 48 32 81t82 33q49 0 81 -33t32 -81t-32 -81.5 t-81 -33.5q-50 0 -82 33.5t-32 81.5zM299 500q0 -160 71 -258.5t189 -98.5q119 0 189.5 98t70.5 259q0 162 -70.5 260t-189.5 98q-118 0 -189 -98t-71 -260zM649 1307q0 48 32 81t81 33q50 0 82.5 -33t32.5 -81t-32.5 -81.5t-82.5 -33.5q-49 0 -81 33.5t-32 81.5z" horiz-adv-x="1118" unicode="ö"/><glyph d="M70 600v152h897v-152h-897zM391 309q0 54 36.5 88.5t90.5 34.5q53 0 89 -35t36 -88q0 -55 -36 -90t-89 -35q-55 0 -91 35t-36 90zM391 1047q0 54 36 88t91 34q53 0 89 -34.5t36 -87.5q0 -55 -36 -90t-89 -35q-55 0 -91 35t-36 90z" unicode="÷"/><glyph d="M88 500q0 122 38.5 223.5t104 167t150 101.5t178.5 36q157 0 285 -98l96 119l84 -68l-104 -127q110 -142 110 -354q0 -121 -38.5 -221.5t-104 -166t-150 -101.5t-178.5 -36q-155 0 -280 95l-99 -121l-84 67l107 129q-115 141 -115 355zM289 510q0 -122 39 -211l401 494 q-69 69 -170 69q-119 0 -194.5 -98t-75.5 -254zM389 205q71 -68 170 -68v-2q120 0 195 97.5t75 254.5q0 120 -36 209z" horiz-adv-x="1118" unicode="ø"/><glyph d="M143 373v631h207v-605q0 -131 40 -188t130 -57q69 0 124.5 35t119.5 116v696h205v-1001h-168l-17 152h-6q-73 -86 -150.5 -131.5t-174.5 -45.5l-2 2q-308 0 -308 396zM242 1491l143 137l295 -350l-102 -102z" horiz-adv-x="1128" unicode="ù"/><glyph d="M143 373v631h207v-605q0 -131 40 -188t130 -57q69 0 124.5 35t119.5 116v696h205v-1001h-168l-17 152h-6q-73 -86 -150.5 -131.5t-174.5 -45.5l-2 2q-308 0 -308 396zM444 1278l295 350l144 -137l-336 -315z" horiz-adv-x="1128" unicode="ú"/><glyph d="M143 373v631h207v-605q0 -131 40 -188t130 -57q69 0 124.5 35t119.5 116v696h205v-1001h-168l-17 152h-6q-73 -86 -150.5 -131.5t-174.5 -45.5l-2 2q-308 0 -308 396zM229 1239l232 283h207l229 -283l-84 -78l-246 219h-8l-246 -219z" horiz-adv-x="1128" unicode="û"/><glyph d="M143 373v631h207v-605q0 -131 40 -188t130 -57q69 0 124.5 35t119.5 116v696h205v-1001h-168l-17 152h-6q-73 -86 -150.5 -131.5t-174.5 -45.5l-2 2q-308 0 -308 396zM244 1309q0 48 32 81t82 33q49 0 81 -33t32 -81t-32 -81.5t-81 -33.5q-50 0 -82 33.5t-32 81.5z M653 1309q0 48 32 81t81 33q50 0 82.5 -33t32.5 -81t-32.5 -81.5t-82.5 -33.5q-49 0 -81 33.5t-32 81.5z" horiz-adv-x="1128" unicode="ü"/><glyph d="M25 1001h208l187 -520q40 -114 92 -282h8q12 42 39 138t41 144l164 520h199l-369 -1062q-64 -176 -154.5 -267.5t-238.5 -91.5l-2 2q-62 0 -123 21l39 159q47 -14 75 -14q147 0 211 191l21 67zM391 1278l295 350l143 -137l-335 -315z" horiz-adv-x="987" unicode="ý"/><glyph d="M158 -408v1860h204v-385l-4 -162q149 121 291 121q192 0 298 -137.5t106 -374.5q0 -124 -35.5 -227t-95 -170.5t-137 -104.5t-162.5 -37q-133 0 -265 107l4 -164v-326h-204zM362 238q109 -93 222 -93h2q114 0 186 98.5t72 270.5q0 340 -240 340q-110 0 -242 -123v-493z" horiz-adv-x="1146" unicode="þ"/><glyph d="M25 1001h208l187 -520q40 -114 92 -282h8q12 42 39 138t41 144l164 520h199l-369 -1062q-64 -176 -154.5 -267.5t-238.5 -91.5l-2 2q-62 0 -123 21l39 159q47 -14 75 -14q147 0 211 191l21 67zM190 1309q0 48 32.5 81t82.5 33q49 0 81 -33t32 -81t-32 -81.5t-81 -33.5 q-50 0 -82.5 33.5t-32.5 81.5zM600 1309q0 48 32 81t81 33q50 0 82 -33t32 -81t-32 -81.5t-82 -33.5q-49 0 -81 33.5t-32 81.5z" horiz-adv-x="987" unicode="ÿ"/><glyph d="M106 680q0 321 176 492t488 171h856v-174h-553v-378h463v-177h-463v-438h574v-176h-889l2 4q-303 0 -478.5 176.5t-175.5 499.5zM317 680q0 -250 120.5 -379t346.5 -129h84v1006h-84q-227 0 -347 -124.5t-120 -373.5z" horiz-adv-x="1748" unicode="Œ"/><glyph d="M86 498q0 123 37 224t100.5 166.5t146 101.5t175.5 36q113 0 205 -59.5t147 -169.5q59 108 148.5 168.5t193.5 60.5q186 0 288.5 -129t102.5 -346q0 -52 -8 -102h-635q9 -139 92 -223.5t203 -84.5q110 0 238 78l73 -139q-160 -105 -336 -105q-110 0 -203.5 61t-152.5 169 q-121 -230 -358 -230l-2 -2q-93 0 -175 36t-144.5 101.5t-99 166t-36.5 221.5zM295 498q0 -160 69 -258.5t181 -98.5q113 0 182.5 98.5t69.5 258.5q0 161 -69.5 259.5t-182.5 98.5t-181.5 -98.5t-68.5 -259.5zM987 578h463q0 137 -56.5 211.5t-160.5 74.5q-96 0 -164.5 -77 t-81.5 -209z" horiz-adv-x="1708" unicode="œ"/><glyph d="M-6 1341h221l160 -358q108 -257 123 -293h8q107 238 129 293l158 358h217l-404 -833v-508h-209v508zM174 1569q0 49 31.5 80.5t81.5 31.5q49 0 79.5 -31t30.5 -81q0 -48 -30.5 -80.5t-79.5 -32.5t-81 32.5t-32 80.5zM606 1569q0 50 31 81t80 31t80.5 -31.5t31.5 -80.5 q0 -48 -31.5 -80.5t-80.5 -32.5t-80 32.5t-31 80.5z" horiz-adv-x="1003" unicode="Ÿ"/><glyph d="M225 1237l232 283h207l229 -283l-84 -78l-246 219h-8l-246 -219z" horiz-adv-x="1118" unicode="ˆ"/><glyph d="M197 1198q5 135 59.5 211t159.5 76q39 0 75 -16.5t62 -40t50 -47t49.5 -40t49.5 -16.5q76 0 86 148l134 -9q-5 -134 -59.5 -209t-160.5 -75q-39 0 -74.5 16.5t-62 40t-50.5 46.5t-49 39.5t-48 16.5q-78 0 -88 -149z" horiz-adv-x="1118" unicode="˜"/><glyph horiz-adv-x="906"/><glyph horiz-adv-x="1812"/><glyph horiz-adv-x="906"/><glyph horiz-adv-x="1812"/><glyph horiz-adv-x="604"/><glyph horiz-adv-x="453"/><glyph horiz-adv-x="302"/><glyph horiz-adv-x="302"/><glyph horiz-adv-x="226"/><glyph horiz-adv-x="362"/><glyph horiz-adv-x="100"/><glyph d="M86 438v152h479v-152h-479z" horiz-adv-x="649" unicode="‐"/><glyph d="M86 438v152h479v-152h-479z" horiz-adv-x="649" unicode="‑"/><glyph d="M86 438v152h479v-152h-479z" horiz-adv-x="649" unicode="‒"/><glyph d="M86 446v138h813v-138h-813z" horiz-adv-x="983" unicode="–"/><glyph d="M86 446v138h1468v-138h-1468z" horiz-adv-x="1638" unicode="—"/><glyph d="M119 1032q0 254 237 385l54 -94q-86 -51 -125 -110t-39 -146q6 2 18 2q50 0 85.5 -32t35.5 -85q0 -58 -34 -92.5t-87 -34.5q-69 2 -107 55t-38 152zM262 825h2h-2z" horiz-adv-x="538" unicode="‘"/><glyph d="M133 928q84 51 123 111t39 147q-6 -2 -16 -2q-52 0 -87.5 31.5t-35.5 84.5q0 59 34 94.5t89 35.5q69 0 107 -54.5t38 -154.5q0 -252 -238 -383z" horiz-adv-x="538" unicode="’"/><glyph d="M133 -221q84 51 123 111t39 147q-6 -2 -16 -2q-52 0 -87.5 31.5t-35.5 85.5q0 59 34 94t89 35q69 0 107 -54.5t38 -154.5q0 -252 -238 -383z" horiz-adv-x="538" unicode="‚"/><glyph d="M119 1032q0 254 237 385l54 -94q-86 -51 -125 -110t-39 -146q6 2 18 2q50 0 85.5 -32t35.5 -85q0 -58 -34 -92.5t-87 -34.5q-69 2 -107 55t-38 152zM262 825h2h-2zM520 1032q0 254 238 385l53 -94q-86 -51 -125 -110t-39 -146q6 2 19 2q50 0 85 -32t35 -85 q0 -58 -33.5 -92.5t-86.5 -34.5q-70 2 -108 55t-38 152zM664 825h2h-2z" horiz-adv-x="935" unicode="“"/><glyph d="M133 928q84 51 123 111t39 147q-6 -2 -16 -2q-52 0 -87.5 31.5t-35.5 84.5q0 59 34 94.5t89 35.5q69 0 107 -54.5t38 -154.5q0 -252 -238 -383zM528 926q84 51 123 111t39 147q-6 -2 -16 -2q-52 0 -87.5 31.5t-35.5 84.5q0 59 34 94t89 35q69 0 107 -54t38 -154 q0 -252 -237 -383z" horiz-adv-x="935" unicode="”"/><glyph d="M133 -221q84 51 123 111t39 147q-6 -2 -16 -2q-52 0 -87.5 31.5t-35.5 85.5q0 59 34 94t89 35q69 0 107 -54.5t38 -154.5q0 -252 -238 -383zM528 -223q84 51 123 111t39 147q-6 -2 -16 -2q-52 0 -87.5 31.5t-35.5 85.5q0 59 34 94t89 35q69 0 107 -54.5t38 -154.5 q0 -252 -237 -383z" horiz-adv-x="935" unicode="„"/><glyph d="M82 539q0 112 71 185t171 73t170.5 -73t70.5 -185t-70.5 -184t-170.5 -72q-101 0 -171.5 72t-70.5 184z" horiz-adv-x="645" unicode="•"/><glyph d="M182 119q0 64 40.5 105.5t99.5 41.5q58 0 97.5 -41.5t39.5 -105.5q0 -61 -40 -102.5t-97 -41.5q-59 0 -99.5 41.5t-40.5 102.5zM866 119q0 64 40.5 105.5t99.5 41.5q58 0 97.5 -41.5t39.5 -105.5q0 -61 -40 -102.5t-97 -41.5q-59 0 -99.5 41.5t-40.5 102.5zM1550 119 q0 64 40.5 105.5t99.5 41.5q58 0 97.5 -41.5t39.5 -105.5q0 -61 -40 -102.5t-97 -41.5q-59 0 -99.5 41.5t-40.5 102.5z" horiz-adv-x="1957" unicode="…"/><glyph horiz-adv-x="362"/><glyph d="M94 438v152l279 311l84 -70l-238 -317l238 -319l-84 -66z" horiz-adv-x="567" unicode="‹"/><glyph d="M111 197l237 319l-237 318l82 69l278 -311v-152l-278 -311z" horiz-adv-x="567" unicode="›"/><glyph horiz-adv-x="453"/><glyph d="M43 471v102l119 9q-2 23 -2 67t2 64h-119v104l131 10q38 236 175 369t339 133q90 0 172 -43.5t141 -116.5l-118 -114q-92 110 -201 110q-119 0 -195.5 -88.5t-103.5 -249.5h496v-114h-506q-2 -18 -2 -60q0 -46 2 -69h424v-113h-412q27 -160 102 -248t189 -88 q68 0 121.5 34t105.5 103l119 -108q-146 -189 -358 -189h-2q-190 0 -321 131t-167 365h-131z" unicode="€"/><glyph d="M6 1255v129h537v-129h-197v-507h-143v507h-197zM639 748v636h170l92 -227l53 -153h9l53 153l90 227h168v-636h-131v258l16 221h-8l-139 -381h-109l-139 381h-8l16 -221v-258h-133z" horiz-adv-x="1331" unicode="™"/><glyph d="M0 0v1004h1004v-1004h-1004z" horiz-adv-x="1003" unicode="◼"/><glyph d="M59 838v153l136 10v129q0 162 77.5 255.5t235.5 93.5q88 0 176 -35l-41 -156q-58 25 -113 25q-133 0 -133 -180v-132h205v-163h-205v-838h-204l2 838h-136zM793 1313q0 55 37.5 89t95.5 34t95.5 -34t37.5 -89q0 -54 -38 -88.5t-95 -34.5t-95 34.5t-38 88.5zM821 0v1001 h205v-1001h-205z" horiz-adv-x="1183" unicode="ﬁ"/><glyph d="M59 838v153l136 10v129q0 162 77.5 255.5t235.5 93.5q88 0 176 -35l-41 -156q-58 25 -113 25q-133 0 -133 -180v-132h205v-163h-205v-838h-204l2 838h-136zM784 236v1218h205v-1231q0 -40 14 -59t35 -19q14 0 37 5l27 -154q-44 -21 -111 -21v5q-109 0 -158 65t-49 191z" horiz-adv-x="1165" unicode="ﬂ"/><glyph d="M61 840l2 153l132 11v106q0 161 82.5 253.5t246.5 92.5q112 0 191 -37l-41 -153q-62 24 -131 24t-107.5 -47.5t-38.5 -136.5v-102h402v129q0 162 77.5 255t235.5 93q88 0 176 -35l-41 -156q-58 25 -112 25q-134 0 -134 -180v-131h205v-164h-205v-838h-204l2 838h-402 v-840h-204l2 840h-134zM1362 1315q0 55 37.5 89t95.5 34t95.5 -34t37.5 -89q0 -54 -38 -88.5t-95 -34.5t-95 34.5t-38 88.5zM1391 2v1002h204v-1002h-204z" horiz-adv-x="1748" unicode="ﬃ"/><glyph d="M61 840l2 153l132 11v106q0 161 82.5 253.5t246.5 92.5q112 0 191 -37l-41 -153q-62 24 -131 24t-107.5 -47.5t-38.5 -136.5v-102h402v129q0 162 77.5 255t235.5 93q88 0 176 -35l-41 -156q-58 25 -112 25q-134 0 -134 -180v-131h205v-164h-205v-838h-204l2 838h-402 v-840h-204l2 840h-134zM1389 238v1218h204v-1231q0 -40 14 -59t35 -19q14 0 37 5l27 -154q-44 -21 -111 -21v5q-109 0 -157.5 65t-48.5 191z" horiz-adv-x="1767" unicode="ﬄ"/></font>
</defs>
</svg>
