<?xml version="1.0" standalone="no"?>
<!DOCTYPE svg PUBLIC "-//W3C//DTD SVG 1.1//EN" "http://www.w3.org/Graphics/SVG/1.1/DTD/svg11.dtd" >
<svg xmlns="http://www.w3.org/2000/svg" xmlns:xlink="http://www.w3.org/1999/xlink" version="1.1">
<metadata></metadata>
<defs>
<font id="madaitalic" horiz-adv-x="497" >
<font-face units-per-em="1000" ascent="800" descent="-200" />
<missing-glyph horiz-adv-x="200" />
<glyph horiz-adv-x="0" />
<glyph horiz-adv-x="333" />
<glyph unicode=" "  horiz-adv-x="200" />
<glyph unicode="&#x09;" horiz-adv-x="200" />
<glyph unicode="&#xa0;" horiz-adv-x="200" />
<glyph unicode="!" horiz-adv-x="289" d="M98 50q8 28 30.5 46t47.5 18t37 -18t4 -46q-7 -27 -29 -44.5t-46 -17.5q-25 0 -38 17.5t-6 44.5zM169 198l90 378l24 94h83l-28 -94l-112 -378h-57z" />
<glyph unicode="&#x22;" horiz-adv-x="426" d="M214 431l29 167l22 92h88l-28 -92l-61 -167h-50zM391 431l29 167l22 92h88l-28 -92l-61 -167h-50z" />
<glyph unicode="#" d="M90 0l80 204h-80l15 57h87l58 148h-85l15 58h92l72 183h53l-72 -183h133l73 183h53l-73 -183h81l-15 -58h-87l-58 -148h85l-15 -57h-92l-80 -204h-53l79 204h-132l-80 -204h-54zM246 261h132l58 148h-132z" />
<glyph unicode="$" d="M70 66l53 57q60 -67 137 -67q54 0 90 27.5t49 75.5q4 16 4 30.5t-2.5 25.5t-11 22.5t-15 18.5t-20 17t-22 15t-24.5 15q-18 11 -27.5 16.5t-25 17t-23 20.5t-17 23t-12.5 28t-3 33t6 40q18 66 69.5 111t120.5 56l26 100h60l-26 -99q74 -8 122 -76l-58 -49 q-22 30 -45 43.5t-61 13.5q-46 0 -80.5 -26.5t-45.5 -69.5q-3 -12 -4 -22.5t2.5 -20t6.5 -17t11.5 -15.5t13.5 -13t17.5 -13t18.5 -11.5t20 -11.5q22 -12 33.5 -19.5t30 -21.5t27 -27.5t17 -32.5t8 -42.5t-8.5 -52.5q-19 -71 -73 -117.5t-128 -56.5l-27 -101h-60l27 99 q-46 4 -86 25.5t-64 51.5z" />
<glyph unicode="%" horiz-adv-x="824" d="M87 308q-25 54 1 154q26 97 81 151.5t123 54.5t94 -54.5t0 -151.5q-27 -98 -82 -153t-123 -55q-69 0 -94 54zM142 344.5q12 -39.5 52 -39.5q39 0 74 40.5t55 116.5q19 78 6.5 116.5t-51.5 38.5q-40 0 -74 -39.5t-54 -115.5q-20 -78 -8 -117.5zM200 -12l544 680h56 l-544 -680h-56zM544 42q-25 54 1 154q26 97 81 151.5t123 54.5t94 -54.5t0 -151.5q-27 -98 -82 -153t-123 -55q-69 0 -94 54zM599 78.5q12 -39.5 52 -39.5q39 0 74 40.5t55 116.5q19 78 6.5 116.5t-51.5 38.5q-40 0 -74 -39.5t-54 -115.5q-20 -78 -8 -117.5z" />
<glyph unicode="&#x26;" horiz-adv-x="609" d="M78 170q16 60 62 104t118 85q-21 87 -3 154q18 66 72.5 110.5t121.5 44.5q60 0 85 -35.5t9 -94.5q-7 -25 -22.5 -48.5t-32 -41t-45.5 -39t-47 -33t-53 -32.5q36 -96 117 -184q85 84 144 194h77q-74 -132 -178 -235q56 -48 106 -63l-40 -68q-68 21 -131 75 q-103 -75 -209 -75q-89 0 -131 51t-20 131zM159 175q-15 -54 13 -87.5t83 -33.5q65 0 140 53q-80 89 -120 195q-101 -66 -116 -127zM327 399q64 36 101 67.5t48 70.5q8 31 -2 51.5t-41 20.5q-36 0 -65.5 -27t-40.5 -68q-14 -51 0 -115z" />
<glyph unicode="'" horiz-adv-x="249" d="M214 431l29 167l22 92h88l-28 -92l-61 -167h-50z" />
<glyph unicode="(" horiz-adv-x="303" d="M156 278q66 242 254 454l45 -24q-166 -190 -231 -430q-64 -242 0 -430l-57 -24q-75 214 -11 454z" />
<glyph unicode=")" horiz-adv-x="303" d="M-3 -152q167 191 230 430q65 241 1 430l57 24q75 -215 10 -454q-65 -242 -253 -454z" />
<glyph unicode="*" horiz-adv-x="418" d="M214 583l28 46l95 -25l38 108h49l-20 -107l110 24l2 -46l-108 -40l31 -94l-46 -29l-48 86l-94 -86l-33 29l82 94z" />
<glyph unicode="+" d="M114 299l17 62h182l52 195h65l-52 -195h182l-17 -62h-182l-52 -195h-65l52 195h-182z" />
<glyph unicode="," horiz-adv-x="249" d="M14 -122q48 19 80.5 50.5t42.5 71.5q-3 -1 -10 -1q-25 0 -38 15t-6 42q7 26 29 42t48 16q32 0 43.5 -26t-0.5 -71q-17 -64 -65 -112.5t-117 -74.5z" />
<glyph unicode="-" horiz-adv-x="311" d="M100 219l17 63h230l-17 -63h-230z" />
<glyph unicode="." horiz-adv-x="249" d="M78 50q8 28 30.5 46t47.5 18t37 -18t4 -46q-7 -27 -29 -44.5t-46 -17.5q-25 0 -38 17.5t-6 44.5z" />
<glyph unicode="/" horiz-adv-x="350" d="M-33 -160l500 870h60l-500 -870h-60z" />
<glyph unicode="0" d="M118.5 74q-30.5 86 11.5 247q42 159 119 244t174 85q96 0 127 -84t-11 -245q-42 -159 -119.5 -246t-173.5 -87q-97 0 -127.5 86zM210 321q-71 -267 53 -267q58 0 109 66t87 201q70 263 -54 263q-125 0 -195 -263z" />
<glyph unicode="1" d="M79 0l18 68h146l126 470h-116l14 53q83 14 148 47h63l-153 -570h132l-18 -68h-360z" />
<glyph unicode="2" d="M40 0l13 49q208 164 299.5 251t110.5 158q15 57 -7 91t-81 34q-70 0 -156 -77l-35 47q115 97 219 97q88 0 126 -51.5t15 -136.5q-22 -82 -106.5 -168t-260.5 -229q72 6 109 6h185l-19 -71h-412z" />
<glyph unicode="3" d="M47 78l56 54q53 -76 143 -76q58 0 103.5 32t59.5 85q17 61 -22 94t-148 33l17 63q181 0 213 119q13 47 -9.5 74t-73.5 27q-71 0 -153 -65l-30 52q106 80 204 80q85 0 126.5 -43t21.5 -119q-30 -108 -157 -152l-1 -4q57 -14 84.5 -56.5t10.5 -105.5q-23 -83 -96 -132.5 t-163 -49.5q-129 0 -186 90z" />
<glyph unicode="4" d="M64 176l15 54l382 408h92l-106 -396h87l-18 -66h-87l-47 -176h-78l47 176h-287zM169 242h200l49 185q18 61 38 123h-4q-19 -25 -76 -90z" />
<glyph unicode="5" d="M45 75l55 54q52 -73 141 -73q60 0 110.5 40.5t68.5 105.5t-9 102.5t-89 37.5q-50 0 -120 -39l-36 28l103 307h319l-19 -71h-247l-68 -189q57 26 105 26q87 0 129 -50.5t16 -149.5q-27 -99 -106 -157.5t-167 -58.5q-123 0 -186 87z" />
<glyph unicode="6" d="M127 67.5q-40 79.5 0 227.5q49 180 141 267.5t197 87.5q91 0 136 -68l-60 -51q-27 50 -91 50q-73 0 -136.5 -64.5t-104.5 -206.5q87 80 171 80q85 0 120 -50.5t9 -146.5q-24 -90 -94.5 -147.5t-149.5 -57.5q-98 0 -138 79.5zM193 243q-17 -93 6 -141.5t83 -48.5 q48 0 90 39t59 101q17 64 -3.5 99.5t-78.5 35.5q-74 0 -156 -85z" />
<glyph unicode="7" d="M177 0q57 181 132.5 308.5t204.5 258.5h-318l19 71h411l-14 -51q-144 -138 -216 -263t-134 -324h-85z" />
<glyph unicode="8" d="M85 163q29 108 166 172l1 4q-73 63 -50 147q19 73 83 118.5t142 45.5q82 0 118.5 -47.5t16.5 -122.5q-12 -46 -49.5 -86.5t-80.5 -67.5l-1 -4q94 -64 67 -164q-19 -73 -89.5 -121.5t-161.5 -48.5q-90 0 -136 49.5t-26 125.5zM161 171q-14 -53 15.5 -87.5t88.5 -34.5 q55 0 98 31t57 81q3 13 3.5 25t-1.5 21.5t-8.5 19t-11 16t-16.5 15t-19 13t-23 12.5l-24 12t-26 12q-1 1 -3.5 2t-3.5 1q-106 -60 -126 -139zM274 459.5q0 -12.5 3.5 -23t8.5 -19.5t14 -17.5t17.5 -15t21.5 -13t23.5 -12t25.5 -11.5q83 60 102 128q12 49 -9 81t-72 32 q-45 0 -81.5 -28.5t-49.5 -74.5q-4 -14 -4 -26.5z" />
<glyph unicode="9" d="M66 55l60 52q28 -51 91 -51q74 0 138 65t104 209q-87 -82 -172 -82q-84 0 -119 50.5t-9 146.5q24 90 94.5 147.5t148.5 57.5q98 0 138 -79t0 -228q-49 -180 -141 -267.5t-197 -87.5q-92 0 -136 67zM236 445q-17 -64 3.5 -99.5t78.5 -35.5q74 0 157 86q17 92 -6 140.5 t-84 48.5q-47 0 -89.5 -39t-59.5 -101z" />
<glyph unicode=":" horiz-adv-x="249" d="M78 50q8 28 30.5 46t47.5 18t37 -18t4 -46q-7 -27 -29 -44.5t-46 -17.5q-25 0 -38 17.5t-6 44.5zM78 411q8 28 30.5 46t47.5 18t37 -18t4 -46q-7 -27 -29 -44.5t-46 -17.5q-25 0 -38 17.5t-6 44.5z" />
<glyph unicode=";" horiz-adv-x="249" d="M14 -122q48 19 80.5 50.5t42.5 71.5q-3 -1 -10 -1q-25 0 -38 15t-6 42q7 26 29 42t48 16q32 0 43.5 -26t-0.5 -71q-17 -64 -65 -112.5t-117 -74.5zM78 411q8 28 30.5 46t47.5 18t37 -18t4 -46q-7 -27 -29 -44.5t-46 -17.5q-25 0 -38 17.5t-6 44.5z" />
<glyph unicode="&#x3c;" d="M114 299l18 66l474 168l-19 -71l-232 -78l-148 -50l-1 -4l121 -50l190 -78l-19 -71z" />
<glyph unicode="=" d="M114 192l17 62h429l-17 -62h-429zM114 406l17 62h429l-17 -62h-429z" />
<glyph unicode="&#x3e;" d="M69 131l19 71l232 78l147 50l1 4l-120 50l-190 78l19 71l384 -168l-18 -66z" />
<glyph unicode="?" horiz-adv-x="425" d="M152 50q8 28 30 46t47 18t37.5 -18t4.5 -46q-7 -27 -29 -44.5t-47 -17.5t-37.5 17.5t-5.5 44.5zM199 599q93 83 194 83q76 0 109.5 -43t14.5 -117q-10 -36 -35.5 -70t-55.5 -61t-59.5 -55t-52.5 -63.5t-29 -74.5h-72q6 43 28 82t51 68t58.5 55t53.5 55.5t32 58.5 q11 42 -7 69.5t-64 27.5q-65 0 -131 -58z" />
<glyph unicode="@" horiz-adv-x="847" d="M105 203q53 196 208 319.5t328 123.5q150 0 214.5 -91t24.5 -240q-32 -122 -113.5 -194t-157.5 -72q-42 0 -64.5 19.5t-18.5 56.5h-2q-75 -68 -140 -68q-53 0 -76.5 37.5t-5.5 103.5q23 87 97 159.5t157 72.5q54 0 67 -48h2l22 40h55l-93 -200q-61 -117 23 -117 q51 0 108 57.5t82 149.5q33 125 -18.5 202t-184.5 77q-140 0 -273.5 -108t-179.5 -277q-38 -143 23.5 -224.5t192.5 -81.5q84 0 174 45l9 -49q-98 -51 -204 -51q-153 0 -227 94.5t-29 263.5zM369 203q-12 -46 1 -68t45 -22q43 0 108 59l72 159q-15 42 -53 42 q-56 0 -106.5 -54t-66.5 -116z" />
<glyph unicode="A" horiz-adv-x="544" d="M3 0l398 656h94l46 -656h-89l-9 200h-239l-116 -200h-85zM243 267h197l-4 100q-6 109 -6 221h-4q-70 -130 -125 -221z" />
<glyph unicode="B" horiz-adv-x="588" d="M90 0l176 656h195q105 0 155 -38q34 -27 34 -75q0 -21 -7 -47q-14 -50 -49.5 -89t-84.5 -54l-1 -4q58 -12 84 -52q15 -23 15 -55q0 -23 -8 -50q-25 -94 -105.5 -143t-194.5 -49h-209zM191 66h114q179 0 213 129q5 18 5 33q-1 36 -27 56q-38 29 -125 29h-114zM274 377h97 q158 0 187 108q5 18 5 33q1 32 -21 48q-32 24 -110 24h-101z" />
<glyph unicode="C" horiz-adv-x="571" d="M140 328q41 155 147.5 247.5t234.5 92.5q109 0 158 -81l-59 -54q-42 62 -118 62q-93 0 -168.5 -71.5t-108.5 -193.5q-16 -60 -16 -108q0 -50 18 -88q36 -72 129 -73q85 0 172 74l32 -52q-108 -95 -226 -95q-125 0 -181 92q-32 52 -32 125q0 55 18 123z" />
<glyph unicode="D" horiz-adv-x="615" d="M90 0l176 656h164q152 0 208 -84q33 -49 32 -122q0 -53 -17 -119q-42 -158 -144.5 -244.5t-250.5 -86.5h-168zM191 68h75q113 0 190 68.5t111 194.5q15 57 15 101q0 54 -22 90q-40 66 -154 66h-75z" />
<glyph unicode="E" horiz-adv-x="527" d="M90 0l176 656h378l-19 -70h-295l-55 -206h249l-19 -71h-249l-64 -238h305l-19 -71h-388z" />
<glyph unicode="F" horiz-adv-x="494" d="M90 0l176 656h378l-19 -70h-295l-59 -222h250l-19 -70h-250l-79 -294h-83z" />
<glyph unicode="G" horiz-adv-x="617" d="M140 328q41 156 150 248t242 92q112 0 167 -81l-60 -54q-44 62 -125 62q-99 0 -177 -71.5t-111 -193.5q-15 -59 -15 -105q0 -54 19 -92q38 -72 142 -72q75 0 129 39l46 171h-139l18 69h215l-74 -276q-93 -76 -222 -76q-132 0 -189 91q-34 53 -34 128q0 54 18 121z" />
<glyph unicode="H" horiz-adv-x="652" d="M90 0l176 656h83l-74 -275h305l74 275h84l-176 -656h-84l83 309h-305l-83 -309h-83z" />
<glyph unicode="I" horiz-adv-x="263" d="M90 0l176 656h83l-176 -656h-83z" />
<glyph unicode="J" horiz-adv-x="480" d="M56 93l71 42q21 -74 93 -74q54 0 88.5 33t54.5 107l122 455h84l-124 -463q-25 -91 -85 -148t-151 -57q-124 0 -153 105z" />
<glyph unicode="K" horiz-adv-x="579" d="M90 0l176 656h83l-88 -329h3l361 329h94l-272 -250l128 -406h-93l-105 341l-148 -133l-56 -208h-83z" />
<glyph unicode="L" horiz-adv-x="486" d="M90 0l176 656h83l-157 -585h287l-19 -71h-370z" />
<glyph unicode="M" horiz-adv-x="727" d="M90 0l176 656h100l32 -350q2 -23 5 -68.5t5 -68.5h4q14 22 41 68t41 69l218 350h101l-176 -656h-78l97 361q12 45 63 194h-4l-92 -149l-215 -340h-55l-33 340l-12 149h-4q-33 -158 -42 -194l-97 -361h-75z" />
<glyph unicode="N" horiz-adv-x="647" d="M90 0l176 656h86l126 -412l35 -136h4q39 183 46 209l91 339h79l-176 -656h-86l-127 413l-35 135h-4q-29 -148 -44 -205l-92 -343h-79z" />
<glyph unicode="O" horiz-adv-x="664" d="M141 331q41 155 143 246t227 91t179 -91q30 -52 30 -124q0 -55 -18 -122q-42 -157 -145 -250t-228 -93t-177 93q-29 52 -30 123q0 57 19 127zM227 134q33 -74 121 -73.5t161 74t106 196.5q16 59 16 106q0 50 -18 87q-34 71 -122 71t-160 -71t-104 -193q-16 -62 -16 -111 t16 -86z" />
<glyph unicode="P" horiz-adv-x="566" d="M90 0l176 656h187q118 0 170 -45q34 -29 34 -83q0 -29 -10 -65q-27 -100 -105.5 -151.5t-190.5 -51.5h-108l-70 -260h-83zM261 328h98q169 0 205 135q7 25 7 44q-1 35 -23 53q-34 28 -123 29h-94z" />
<glyph unicode="Q" horiz-adv-x="664" d="M141 331q41 155 143 246t227 91t179 -91q30 -52 30 -124q0 -55 -18 -122q-38 -140 -125.5 -230.5t-197.5 -108.5q10 -43 46.5 -65t91.5 -22q37 0 71 9l-1 -64q-41 -15 -98 -15q-87 0 -138.5 42.5t-61.5 113.5q-104 15 -145 106q-21 47 -21 108q0 57 18 126zM226 131 q33 -74 121 -74t161 74.5t107 199.5q16 59 16 106q0 50 -18 87q-34 71 -122 71t-160 -71t-104 -193q-17 -63 -17 -114q0 -49 16 -86z" />
<glyph unicode="R" horiz-adv-x="569" d="M90 0l176 656h205q189 0 189 -124q0 -27 -9 -60q-20 -74 -71.5 -121t-125.5 -65l90 -286h-94l-84 277h-119l-74 -277h-83zM265 345h110q160 0 193 127q6 22 6 39q0 33 -21 51q-32 28 -112 27h-110z" />
<glyph unicode="S" horiz-adv-x="534" d="M65 85l65 58q57 -82 159 -82q64 0 108.5 29t57.5 78q4 15 4 28q1 14 -5 26q-10 22 -26 33t-51 29l-83 41q-94 45 -94 126q0 21 6 43q20 75 92 124.5t161 49.5q115 0 172 -81l-59 -54q-49 62 -133 62q-55 0 -95 -26t-52 -70q-3 -12 -3.5 -22t2.5 -18.5t6.5 -15.5t11 -14 t13 -11.5t16 -10t17 -9t17.5 -8.5l82 -40q58 -28 82 -68q14 -23 13 -55q0 -24 -7 -52q-22 -80 -97 -133.5t-176 -53.5q-137 0 -204 97z" />
<glyph unicode="T" horiz-adv-x="536" d="M185 586l19 70h480l-19 -70h-198l-157 -586h-84l157 586h-198z" />
<glyph unicode="U" horiz-adv-x="645" d="M160 271l103 385h83l-104 -387q-15 -55 -15 -96q0 -112 112 -112q156 0 211 208l104 387h80l-103 -385q-76 -283 -311 -283q-179 0 -179 162q0 52 19 121z" />
<glyph unicode="V" horiz-adv-x="515" d="M176 656h89l10 -354q1 -29 2 -101.5t4 -115.5h4q24 42 63 113t58 104l200 354h85l-384 -656h-97z" />
<glyph unicode="W" horiz-adv-x="786" d="M162 0l37 656h86l-27 -357q-3 -36 -9 -106.5t-10 -105.5h4q15 32 32.5 67.5t38 78t32.5 66.5l187 357h76l-5 -357q-1 -31 -2.5 -66t-3.5 -78.5t-3 -67.5h4q62 142 94 212l165 357h80l-312 -656h-100l7 395q4 94 8 149h-4q-1 -2 -73 -149l-203 -395h-99z" />
<glyph unicode="X" horiz-adv-x="513" d="M15 0l282 339l-93 317h92l44 -168l25 -95h4q35 48 73 95l132 168h88l-265 -321l101 -335h-92l-49 177q-4 15 -13 49.5t-14 55.5h-4q-25 -33 -81 -105l-142 -177h-88z" />
<glyph unicode="Y" horiz-adv-x="476" d="M175 656h89l35 -185q12 -74 25 -143h4q89 121 104 143l134 185h87l-305 -402l-68 -254h-84l68 254z" />
<glyph unicode="Z" horiz-adv-x="539" d="M45 0l13 50l489 536h-314l19 70h418l-13 -49l-490 -536h349l-19 -71h-452z" />
<glyph unicode="[" horiz-adv-x="303" d="M53 -152l231 860h179l-13 -47h-117l-205 -766h117l-13 -47h-179z" />
<glyph unicode="\" horiz-adv-x="350" d="M204 710h59l34 -870h-59z" />
<glyph unicode="]" horiz-adv-x="303" d="M-10 -152l13 47h116l205 766h-116l13 47h178l-231 -860h-178z" />
<glyph unicode="^" d="M136 284l256 386h73l48 -386h-72l-18 176l-13 133h-4l-86 -133l-112 -176h-72z" />
<glyph unicode="_" horiz-adv-x="500" d="M-22 -126l15 55h476l-15 -55h-476z" />
<glyph unicode="`" horiz-adv-x="542" d="M323 726l72 55l97 -167l-53 -41z" />
<glyph unicode="a" horiz-adv-x="504" d="M86 126q21 79 103.5 122t243.5 60q7 29 7 51q0 71 -75 71q-69 0 -159 -52l-16 57q113 63 207 63q85 0 113 -52q14 -28 15 -67q0 -36 -12 -81l-80 -298h-68l9 58h-3q-105 -70 -180 -70q-63 0 -93 37q-19 23 -19 57q0 20 7 44zM167 132q-4 -14 -4 -25q1 -21 13 -33 q18 -20 56 -20q60 0 150 65l36 135q-121 -15 -179.5 -44.5t-71.5 -77.5z" />
<glyph unicode="b" horiz-adv-x="553" d="M82 0l191 712h82l-52 -194l-26 -88q96 68 170 68q93 0 125 -66q17 -34 17 -80q0 -44 -15 -101q-32 -120 -112.5 -191.5t-167.5 -71.5q-71 0 -123 62h-3l-20 -50h-66zM193 108q45 -51 105 -51q61 0 114 52.5t77 140.5q13 49 13 85q0 94 -93 94q-59 0 -148 -66z" />
<glyph unicode="c" horiz-adv-x="456" d="M111 242q32 118 118 187t184 69q79 0 127 -57l-56 -54q-38 43 -86 43q-66 0 -123 -52.5t-79 -135.5q-10 -37 -10 -68q0 -38 16 -66q28 -52 94 -52q60 0 127 49l21 -55q-86 -62 -173 -62q-99 0 -145 68q-27 40 -28 99q0 39 13 87z" />
<glyph unicode="d" horiz-adv-x="555" d="M112 242q30 115 111 185.5t168 70.5q68 0 121 -56l19 83l50 187h83l-191 -712h-68l8 57h-3q-90 -69 -165 -69q-93 0 -129 67q-19 35 -20 85q0 45 16 102zM196 106q22 -50 85 -49q65 0 142 67l68 254q-43 51 -104 51q-59 0 -113.5 -52t-76.5 -134q-12 -45 -13 -80 q1 -33 12 -57z" />
<glyph unicode="e" horiz-adv-x="496" d="M111 242q30 114 114 185t172 71q92 0 127 -62q19 -34 19 -80q0 -39 -13 -86q-6 -25 -15 -47h-328q-6 -27 -6 -50q1 -43 21 -73q32 -46 101 -46q61 0 132 38l14 -54q-91 -50 -173 -50q-100 0 -148 69q-29 42 -29 101q0 38 12 84zM202 282h260q9 35 9 62q0 30 -11 50 q-21 39 -78 39q-53 0 -104 -40.5t-76 -110.5z" />
<glyph unicode="f" horiz-adv-x="292" d="M96 0l112 419h-66l17 62l67 5l21 77q20 76 67 118.5t118 42.5q41 0 77 -16l-35 -63q-24 12 -52 12q-69 0 -93 -94l-21 -77h103l-18 -67h-103l-112 -419h-82z" />
<glyph unicode="g" horiz-adv-x="504" d="M20 -93q16 61 101 110l1 4q-26 19 -26 52q0 12 4 27q15 55 77 90l1 4q-34 36 -34 86q0 21 6 45q20 77 86 125t143 48q39 0 66 -12h169l-17 -63h-100q20 -25 20 -60q0 -19 -6 -40q-21 -76 -84.5 -122.5t-139.5 -46.5q-39 0 -68 17q-38 -27 -47 -58q-2 -8 -2 -14 q0 -15 11 -25q16 -14 63 -14h94q86 0 120 -28q24 -19 24 -53q0 -16 -5 -35q-19 -70 -100 -119t-191 -49q-91 0 -136 34q-34 26 -34 67q0 14 4 30zM95 -82q-3 -10 -3 -19q0 -26 24 -43q31 -23 97 -23q67 0 118.5 29.5t62.5 69.5q3 10 3 18q0 19 -15 28q-21 14 -70 14h-84 q-36 0 -61 8q-59 -35 -72 -82zM230 325q-6 -21 -6 -38q0 -27 14 -46q21 -32 64 -32t81.5 32t52.5 84q6 21 6 38q0 26 -14 45q-21 30 -65 30t-81.5 -30.5t-51.5 -82.5z" />
<glyph unicode="h" horiz-adv-x="544" d="M82 0l191 712h82l-52 -194l-30 -100q105 80 183 80q111 0 111 -105q0 -36 -13 -85l-83 -308h-82l80 297q10 38 10 65q0 21 -6 34q-14 31 -62 31q-35 0 -68.5 -17.5t-84.5 -57.5l-94 -352h-82z" />
<glyph unicode="i" horiz-adv-x="246" d="M82 0l130 486h82l-130 -486h-82zM238 639q7 24 27 38.5t44 14.5q25 0 37 -14q8 -9 8 -23q0 -7 -2 -16q-6 -23 -26.5 -38t-44.5 -15q-25 0 -37 15q-8 10 -8 24q0 7 2 14z" />
<glyph unicode="j" horiz-adv-x="247" d="M-95 -204l34 62q22 -8 44 -8q34 0 53 23.5t32 71.5l145 541h82l-145 -541q-43 -162 -176 -162q-41 0 -69 13zM239 639q7 24 27 38.5t44 14.5t36 -15q9 -10 9 -23q0 -7 -3 -15q-6 -23 -26 -38t-44 -15t-36 15q-9 10 -9 24q0 7 2 14z" />
<glyph unicode="k" horiz-adv-x="495" d="M82 0l191 712h81l-129 -482h3l275 256h91l-215 -195l107 -291h-90l-79 234l-120 -106l-34 -128h-81z" />
<glyph unicode="l" horiz-adv-x="255" d="M108 98l165 614h82l-166 -620q-3 -11 -3 -19q0 -17 16 -17q9 0 19 2l-6 -62q-19 -8 -49 -8q-65 0 -65 62q0 20 7 48z" />
<glyph unicode="m" horiz-adv-x="829" d="M82 0l130 486h68l-12 -70h3q98 82 173 82q102 0 110 -93q110 93 184 93q111 0 111 -105q0 -36 -13 -85l-83 -308h-82l80 297q10 38 10 65q0 21 -6 34q-14 31 -60 31q-53 0 -142 -75l-94 -352h-82l80 297q10 38 10 65q0 21 -6 34q-14 31 -61 31q-54 0 -142 -75l-94 -352 h-82z" />
<glyph unicode="n" horiz-adv-x="547" d="M82 0l130 486h68l-12 -70h3q105 82 185 82q111 0 111 -105q0 -36 -13 -85l-83 -308h-82l80 297q10 38 10 65q0 21 -6 34q-14 31 -62 31q-35 0 -68.5 -17.5t-84.5 -57.5l-94 -352h-82z" />
<glyph unicode="o" horiz-adv-x="542" d="M111 242q32 118 115.5 187t177.5 69t142 -70q28 -42 28 -100q0 -39 -13 -86q-31 -116 -115 -185t-178 -69t-141 69q-28 42 -28 100q0 39 12 85zM196 242q-10 -39 -10 -71q0 -35 13 -63q25 -52 87 -52q63 0 115 51.5t75 134.5q11 40 11 73q0 36 -13 63q-25 52 -88 52 q-62 0 -115 -52t-75 -136z" />
<glyph unicode="p" horiz-adv-x="555" d="M27 -205l185 691h68l-8 -56h3q99 68 173 68q92 0 124 -66q17 -35 17 -81q0 -45 -15 -101q-32 -119 -112.5 -190.5t-167.5 -71.5q-64 0 -120 56l-21 -85l-44 -164h-82zM193 108q47 -51 105 -51q61 0 114 52.5t77 140.5q13 49 13 85q0 94 -93 94q-56 0 -148 -66z" />
<glyph unicode="q" horiz-adv-x="555" d="M112 242q30 115 111 185.5t168 70.5q72 0 124 -58h2l20 46h66l-185 -691h-83l46 173l28 88q-88 -68 -164 -68q-93 0 -129 67q-20 35 -20 85q0 45 16 102zM196 106q22 -49 85 -49q65 0 142 67l68 254q-43 51 -104 51q-59 0 -113.5 -52t-76.5 -134q-12 -45 -12 -80 q0 -33 11 -57z" />
<glyph unicode="r" horiz-adv-x="347" d="M82 0l130 486h68l-16 -88h3q80 100 164 100q30 0 50 -10l-36 -72q-22 8 -44 8q-78 0 -153 -112l-84 -312h-82z" />
<glyph unicode="s" horiz-adv-x="419" d="M43 55l55 55q56 -58 128 -58q46 0 76.5 21.5t39.5 54.5q2 9 2 17t-2 15q-5 14 -21 25.5t-28.5 18t-36.5 16.5q-18 7 -31 13t-29.5 16t-25 19.5t-18.5 23.5q-9 13 -8 28q0 10 4 40q16 60 71.5 99t132.5 39q84 0 137 -55l-53 -52q-46 43 -100 43q-43 0 -71.5 -20t-35.5 -50 q-4 -15 -0.5 -27.5t17.5 -22t25 -15.5t33 -15q2 0 5.5 -1.5t4.5 -2.5l24 -10.5t22.5 -10.5t22 -13t18 -14.5t15.5 -18.5t9 -22t3 -26.5t-5 -31.5q-17 -62 -75.5 -103.5t-141.5 -41.5q-100 0 -163 67z" />
<glyph unicode="t" horiz-adv-x="338" d="M136 150l72 269h-72l17 62l77 5l47 136h69l-37 -136h131l-18 -67h-131l-72 -270q-7 -24 -8 -43q0 -16 6 -26q11 -24 52 -25q21 0 58 13v-62q-60 -18 -95 -18q-107 0 -107 94q0 29 11 68z" />
<glyph unicode="u" horiz-adv-x="544" d="M123 178l82 308h83l-79 -297q-11 -40 -11 -67q0 -19 6 -32q14 -31 61 -31q37 0 71.5 19t81.5 63l92 345h82l-130 -486h-68l13 76h-3q-98 -88 -183 -88q-111 0 -111 105q0 36 13 85z" />
<glyph unicode="v" horiz-adv-x="467" d="M142 486h85l18 -276q1 -52 7 -143h4q12 21 40 69.5t42 73.5l166 276h81l-302 -486h-96z" />
<glyph unicode="w" horiz-adv-x="718" d="M154 486h84l-3 -281q-1 -45 -7 -135h4l69 135l150 281h80l1 -281q0 -45 -2 -135h4q22 44 66 135l146 281h78l-260 -486h-100v261q0 26 2 74t2 66h-4q-51 -105 -71 -141l-138 -260h-96z" />
<glyph unicode="x" horiz-adv-x="446" d="M14 0l227 254l-85 232h89l37 -107q20 -64 26 -81h4q29 37 66 81l87 107h86l-211 -241l92 -245h-89l-41 113q-14 44 -29 87h-4q-33 -37 -73 -87l-96 -113h-86z" />
<glyph unicode="y" horiz-adv-x="467" d="M-20 -199l33 65q21 -7 35 -7q76 0 138 104l21 36l-65 487h85l27 -269q3 -30 10 -137h4q28 47 78 137l159 269h80l-324 -526q-104 -169 -227 -169q-31 0 -54 10z" />
<glyph unicode="z" horiz-adv-x="425" d="M31 0l12 44l356 375h-228l18 67h332l-12 -44l-356 -375h264l-18 -67h-368z" />
<glyph unicode="{" horiz-adv-x="303" d="M102 252l13 52q87 1 107 77q9 34 21 95.5t22 98.5q20 75 55.5 104t97.5 29h45l-13 -47h-27q-39 0 -59 -20.5t-33 -70.5q-9 -32 -21.5 -90t-21.5 -91q-13 -49 -34 -74.5t-55 -34.5l-1 -4q56 -17 31 -109q-10 -37 -29 -95.5t-26 -85.5q-14 -49 -4.5 -70t48.5 -21h27 l-13 -47h-45q-62 0 -81.5 29t0.5 104q10 38 31 99.5t30 93.5q20 77 -65 78z" />
<glyph unicode="|" horiz-adv-x="241" d="M25 -250l268 1000h58l-268 -1000h-58z" />
<glyph unicode="}" horiz-adv-x="303" d="M-10 -152l13 47h26q39 0 59 20.5t33 70.5q9 32 22.5 90.5t21.5 90.5q13 49 33.5 74.5t54.5 34.5l1 4q-30 9 -36.5 34.5t6.5 74.5q10 37 28.5 96t25.5 85q14 49 4.5 70t-48.5 21h-26l13 47h44q62 0 81.5 -29t-0.5 -104q-10 -38 -31 -99.5t-30 -94.5t5 -54.5t60 -22.5 l-13 -52q-87 -1 -107 -78q-9 -34 -21.5 -95.5t-21.5 -97.5q-20 -75 -55.5 -104t-97.5 -29h-44z" />
<glyph unicode="~" d="M120 313q75 90 149 90q34 0 60.5 -21t48.5 -42t45 -21q44 0 94 61l37 -34q-75 -89 -149 -89q-34 0 -60.5 21t-49 42t-45.5 21q-43 0 -93 -61z" />
<glyph unicode="&#xa1;" horiz-adv-x="289" d="M54 -184l27 94l112 378h57l-90 -378l-23 -94h-83zM202 436q7 27 29 44.5t47 17.5q24 0 37 -17.5t6 -44.5q-7 -28 -29 -46t-47 -18t-37.5 18t-5.5 46z" />
<glyph unicode="&#xa2;" d="M144 310q27 100 100.5 162.5t164.5 74.5l28 106h52l-28 -103q74 -5 116 -58l-54 -52q-33 39 -80 42l-92 -344q58 4 117 47l22 -52q-80 -57 -157 -63l-28 -103h-52l28 104q-89 10 -126.5 72.5t-10.5 166.5zM226 310q-18 -66 1.5 -110.5t72.5 -57.5l90 335 q-59 -13 -102.5 -57t-61.5 -110z" />
<glyph unicode="&#xa3;" d="M54 0l13 50q58 28 99 75.5t56 104.5q6 24 8 55h-101l14 52l68 4h18v8q-4 75 7 117q22 84 86.5 134t148.5 50q95 0 135 -75l-61 -47q-27 53 -86 53q-53 0 -90.5 -32t-52.5 -85q-9 -33 -9 -107v-16h159l-15 -56h-146q-3 -29 -10 -56q-23 -90 -103 -154l-1 -4h281l-19 -71 h-399z" />
<glyph unicode="&#xa4;" d="M66 148l81 65q-23 47 -5 116q18 68 68 117l-47 66l56 45l49 -70q59 37 121 37q63 0 100 -37l87 70l32 -45l-82 -66q23 -50 5 -117q-17 -65 -68 -116l48 -65l-56 -45l-50 69q-58 -38 -120 -38q-65 0 -101 38l-86 -69zM218 329q-15 -59 9 -96.5t74 -37.5q49 0 94 37.5 t60 96.5q16 59 -8.5 96.5t-73.5 37.5q-50 0 -94.5 -37.5t-60.5 -96.5z" />
<glyph unicode="&#xa5;" d="M87 158l13 48h162l18 65h-162l12 47h141l-77 320h86l32 -171q16 -88 24 -135h4q20 27 52.5 73t44.5 62l124 171h84l-250 -320h142l-12 -47h-163l-18 -65h163l-13 -48h-163l-42 -158h-82l42 158h-162z" />
<glyph unicode="&#xa6;" horiz-adv-x="241" d="M25 -250l124 464h58l-124 -464h-58zM170 291l123 459h58l-123 -459h-58z" />
<glyph unicode="&#xa7;" d="M65 7l62 45q39 -52 109 -52q39 0 67 20t36 49q5 18 1 32.5t-20 27t-28.5 19.5t-38.5 20q-20 10 -29.5 15t-27.5 16t-26.5 19.5t-19.5 22.5t-14.5 28t-4 33t5.5 41q23 82 120 129q-22 34 -10 82q15 55 65 92.5t122 37.5q84 0 139 -57l-54 -53q-44 46 -99 46 q-40 0 -64.5 -17.5t-31.5 -45.5q-5 -17 -0.5 -30.5t20 -26t27.5 -19.5t38 -20q17 -9 26 -13.5t25 -13.5t24 -16.5t20 -18.5t17 -22.5t9.5 -25.5t3.5 -31t-6 -36q-20 -81 -119 -129q21 -35 8 -82q-17 -60 -72.5 -98.5t-125.5 -38.5q-107 0 -154 71zM206.5 326 q-0.5 -10 3.5 -19t7.5 -16.5t12.5 -15l15 -12.5t19 -12t20 -11t22 -11q46 -22 66 -36q68 28 82 85q3 12 3.5 23t-3 20.5t-7.5 17t-13.5 15t-15.5 13t-19 12.5t-20 11t-22 11q-37 17 -62 34q-71 -35 -85 -87q-3 -12 -3.5 -22z" />
<glyph unicode="&#xa8;" horiz-adv-x="542" d="M296 637q5 21 23 35.5t40 14.5q21 0 31 -14.5t5 -35.5q-6 -21 -24 -35.5t-39 -14.5q-22 0 -32 14.5t-4 35.5zM489 637q5 21 23 35.5t39 14.5q22 0 32 -14.5t5 -35.5q-6 -21 -24 -35.5t-40 -14.5q-21 0 -31 14.5t-4 35.5z" />
<glyph unicode="&#xa9;" horiz-adv-x="744" d="M136 323q39 148 157.5 239t253.5 91t204.5 -91t30.5 -239q-40 -149 -159 -241.5t-254 -92.5t-204 92.5t-29 241.5zM183 323q-35 -129 23 -210.5t174 -81.5t218 81.5t137 210.5q34 128 -24.5 208.5t-174.5 80.5t-217.5 -80.5t-135.5 -208.5zM285 323q22 84 90.5 136.5 t144.5 52.5q67 0 110 -57l-46 -39q-32 41 -76 41q-54 0 -98 -37.5t-59 -96.5q-18 -66 4 -104.5t76 -38.5q51 0 114 44l19 -42q-82 -57 -151 -57q-78 0 -115.5 53.5t-12.5 144.5z" />
<glyph unicode="&#xaa;" horiz-adv-x="345" d="M166 481q14 52 69 80t162 39q17 73 -43 73q-46 0 -110 -34l-11 43q80 42 144 42q115 0 79 -133l-52 -196h-50l3 37h-4q-64 -45 -113 -45q-44 0 -64.5 25.5t-9.5 68.5zM228 486q-13 -50 43 -50q38 0 93 40l22 85q-142 -15 -158 -75z" />
<glyph unicode="&#xab;" horiz-adv-x="429" d="M104 221l17 62l177 155l28 -30l-159 -156l75 -158l-43 -28zM262 221l17 62l177 155l28 -30l-159 -156l75 -158l-43 -28z" />
<glyph unicode="&#xac;" d="M114 299l17 62h429l-69 -257h-66l52 195h-363z" />
<glyph unicode="&#xad;" horiz-adv-x="311" d="M100 219l17 63h230l-17 -63h-230z" />
<glyph unicode="&#xae;" horiz-adv-x="423" d="M161 516q24 86 93 141.5t148 55.5q80 0 120 -55.5t16 -141.5q-23 -86 -92.5 -141.5t-149.5 -55.5q-79 0 -118.5 55.5t-16.5 141.5zM201 516q-19 -71 11 -115.5t94 -44.5t118.5 45t73.5 115t-11.5 115.5t-94.5 45.5q-63 0 -117.5 -45.5t-73.5 -115.5zM251 417l54 203h76 q35 0 52.5 -15.5t8.5 -49.5q-5 -18 -19.5 -33.5t-32.5 -21.5l24 -83h-46l-17 70h-41l-18 -70h-41zM319 519h26q43 0 52 34q10 33 -32 33h-28z" />
<glyph unicode="&#xaf;" horiz-adv-x="542" d="M299 601l15 57h266l-15 -57h-266z" />
<glyph unicode="&#xb0;" horiz-adv-x="331" d="M190 556q15 58 61.5 93.5t98.5 35.5t78.5 -35.5t11.5 -93.5q-15 -56 -61 -91.5t-98 -35.5t-79 35.5t-12 91.5zM240 556q-10 -35 5 -58t48 -23t60 23t37 58q10 37 -5 60t-48 23t-60 -23t-37 -60z" />
<glyph unicode="&#xb1;" d="M34 0l17 62h429l-17 -62h-429zM115 304l17 62h182l51 190h65l-51 -190h182l-17 -62h-182l-47 -177h-65l47 177h-182z" />
<glyph unicode="&#xb2;" horiz-adv-x="367" d="M52 395l10 37q128 93 181.5 140.5t64.5 88.5q10 38 -4 60t-49 22q-44 0 -99 -57l-29 35q71 76 151 76q60 0 86 -33t10 -93q-7 -27 -23 -52t-49.5 -56.5t-55.5 -50.5t-76 -62h165l-15 -55h-268z" />
<glyph unicode="&#xb3;" horiz-adv-x="367" d="M52 459l52 33q23 -58 83 -58q33 0 60.5 19t36.5 51q9 33 -18 51t-84 18l11 41q49 0 82.5 19.5t41.5 50.5q8 28 -7 45t-47 17q-40 0 -92 -47l-29 34q72 64 145 64q52 0 80 -28.5t16 -76.5q-18 -64 -94 -96q33 -9 50.5 -34t7.5 -62q-14 -53 -62.5 -85t-107.5 -32 q-46 0 -78.5 21t-46.5 55z" />
<glyph unicode="&#xb4;" horiz-adv-x="542" d="M380 614l185 167l44 -55l-198 -153z" />
<glyph unicode="&#xb5;" horiz-adv-x="562" d="M34 -179l178 665h82l-79 -297q-35 -130 54 -130q37 0 72.5 19.5t81.5 75.5l89 332h83q-10 -35 -51 -179t-60 -212q-10 -39 26 -39q13 0 31 6l-6 -62q-27 -12 -61 -12q-41 0 -56 22.5t-7 71.5h-2q-77 -92 -160 -92q-65 0 -81 47q-30 -116 -51 -216h-83z" />
<glyph unicode="&#xb6;" horiz-adv-x="560" d="M160 443q57 213 298 213h44l-115 -430h-33q-115 0 -169 54t-25 163zM359 -80l197 736h84l-197 -736h-84z" />
<glyph unicode="&#xb7;" horiz-adv-x="249" d="M78 321q8 28 30.5 46t47.5 18t37 -18t4 -46q-7 -27 -29 -44.5t-46 -17.5q-25 0 -38 17.5t-6 44.5z" />
<glyph unicode="&#xb8;" horiz-adv-x="542" d="M129 -226l3 40q63 4 90 16t33 34q5 20 -9.5 31t-55.5 17l69 91h53l-47 -67q68 -17 54 -71q-23 -83 -190 -91z" />
<glyph unicode="&#xb9;" horiz-adv-x="367" d="M170 703l11 42q59 10 108 40h52l-105 -390h-64l83 308h-85z" />
<glyph unicode="&#xba;" horiz-adv-x="365" d="M179 555q21 78 76.5 123.5t120.5 45.5q64 0 96 -45.5t11 -123.5q-21 -77 -77 -122.5t-120 -45.5q-65 0 -96.5 45.5t-10.5 122.5zM242 555q-14 -52 1 -84.5t56 -32.5t73.5 32t46.5 85q14 54 -1 86t-56 32t-73.5 -32t-46.5 -86z" />
<glyph unicode="&#xbb;" horiz-adv-x="429" d="M79 94l161 158l-77 156l43 30l96 -155l-17 -62l-178 -155zM237 94l161 158l-77 156l43 30l96 -155l-17 -62l-178 -155z" />
<glyph unicode="&#xbc;" horiz-adv-x="781" d="M146 574l11 42q59 10 108 40h52l-105 -390h-64l83 308h-85zM177 -12l544 680h56l-544 -680h-56zM483 104l9 33l232 253h72l-65 -240h58l-12 -46h-58l-28 -104h-58l28 104h-178zM562 150h111l19 70l33 109h-4l-72 -81z" />
<glyph unicode="&#xbd;" horiz-adv-x="808" d="M146 574l11 42q59 10 108 40h52l-105 -390h-64l83 308h-85zM157 -12l544 680h56l-544 -680h-56zM493 0l10 37q128 93 181.5 140.5t64.5 88.5q10 38 -4 60t-49 22q-44 0 -99 -57l-29 35q71 76 151 76q60 0 86 -33t10 -93q-7 -27 -23 -52t-49.5 -56.5t-55.5 -50.5t-76 -62 h165l-15 -55h-268z" />
<glyph unicode="&#xbe;" horiz-adv-x="796" d="M51 330l52 33q23 -58 83 -58q33 0 60.5 19t36.5 51q9 33 -18 51t-84 18l11 41q49 0 82.5 19.5t41.5 50.5q8 28 -7 45t-47 17q-40 0 -92 -47l-29 34q72 64 145 64q52 0 80 -28.5t16 -76.5q-18 -64 -94 -96q33 -9 50.5 -34t7.5 -62q-14 -53 -62.5 -85t-107.5 -32 q-46 0 -78.5 21t-46.5 55zM215 -12l544 680h56l-544 -680h-56zM498 104l9 33l232 253h72l-65 -240h58l-12 -46h-58l-28 -104h-58l28 104h-178zM577 150h111l19 70l33 109h-4l-72 -81z" />
<glyph unicode="&#xbf;" horiz-adv-x="425" d="M38 -36q10 36 35.5 70t55.5 61t59.5 55t52 63.5t28.5 74.5h73q-6 -43 -28 -82t-51 -68t-58 -55t-53 -55.5t-32 -58.5q-12 -42 6 -69t65 -27q66 0 129 57l37 -43q-99 -83 -195 -83q-76 0 -109.5 43t-14.5 117zM284 436q7 27 29 44.5t47 17.5q24 0 37 -17.5t6 -44.5 q-7 -28 -29 -46t-47 -18t-37.5 18t-5.5 46z" />
<glyph unicode="&#xc0;" horiz-adv-x="544" d="M3 0l398 656h94l46 -656h-89l-9 200h-239l-116 -200h-85zM243 267h197l-4 100q-6 109 -6 221h-4q-70 -130 -125 -221zM353 812l61 55l108 -128l-48 -42z" />
<glyph unicode="&#xc1;" horiz-adv-x="544" d="M3 0l398 656h94l46 -656h-89l-9 200h-239l-116 -200h-85zM243 267h197l-4 100q-6 109 -6 221h-4q-70 -130 -125 -221zM414 739l176 128l33 -55l-183 -115z" />
<glyph unicode="&#xc2;" horiz-adv-x="544" d="M3 0l398 656h94l46 -656h-89l-9 200h-239l-116 -200h-85zM243 267h197l-4 100q-6 109 -6 221h-4q-70 -130 -125 -221zM316 725l136 113h86l74 -113l-43 -26l-85 93h-4l-135 -93z" />
<glyph unicode="&#xc3;" horiz-adv-x="544" d="M3 0l398 656h94l46 -656h-89l-9 200h-239l-116 -200h-85zM243 267h197l-4 100q-6 109 -6 221h-4q-70 -130 -125 -221zM285 718q19 57 54.5 90t80.5 33q25 0 45 -11t30 -24.5t24.5 -24.5t29.5 -11q40 0 66 66l55 -4q-19 -58 -54.5 -90.5t-80.5 -32.5q-25 0 -45 11 t-30 24.5t-24.5 24.5t-29.5 11q-41 0 -66 -66z" />
<glyph unicode="&#xc4;" horiz-adv-x="544" d="M3 0l398 656h94l46 -656h-89l-9 200h-239l-116 -200h-85zM243 267h197l-4 100q-6 109 -6 221h-4q-70 -130 -125 -221zM323 764q5 21 23 35t39 14q22 0 31.5 -13.5t4.5 -35.5q-6 -21 -23.5 -35t-38.5 -14t-31.5 14t-4.5 35zM529 764q5 22 22.5 35.5t39.5 13.5 q21 0 31 -13.5t5 -35.5q-6 -21 -23.5 -35t-38.5 -14q-22 0 -32 14t-4 35z" />
<glyph unicode="&#xc5;" horiz-adv-x="544" d="M3 0l398 656h94l46 -656h-89l-9 200h-239l-116 -200h-85zM243 267h197l-4 100q-6 109 -6 221h-4q-70 -130 -125 -221zM384 789q11 41 45.5 66t76.5 25t62.5 -25t9.5 -66q-10 -40 -44.5 -65t-76.5 -25t-62.5 25t-10.5 65zM429 789q-7 -25 4 -39.5t34 -14.5q21 0 40 14.5 t25 39.5q7 25 -4 39.5t-32 14.5q-22 0 -41 -14.5t-26 -39.5z" />
<glyph unicode="&#xc6;" horiz-adv-x="822" d="M8 0l520 656h411l-19 -70h-278l-55 -206h232l-19 -71h-232l-64 -238h288l-19 -71h-372l51 191h-206l-150 -191h-88zM298 258h172l89 332h-4q-96 -126 -164 -214z" />
<glyph unicode="&#xc7;" horiz-adv-x="571" d="M140 328q41 155 147.5 247.5t234.5 92.5q109 0 158 -81l-59 -54q-42 62 -118 62q-93 0 -168.5 -71.5t-108.5 -193.5q-33 -124 2.5 -196.5t128.5 -72.5q85 0 172 74l32 -52q-93 -82 -192 -93l-38 -54q68 -17 54 -71q-23 -83 -190 -91l3 40q63 4 90 16t33 34q5 20 -9.5 31 t-55.5 17l58 77q-115 8 -164.5 98.5t-9.5 240.5z" />
<glyph unicode="&#xc8;" horiz-adv-x="527" d="M90 0l176 656h378l-19 -70h-295l-55 -206h249l-19 -71h-249l-64 -238h305l-19 -71h-388zM367 812l61 55l108 -128l-48 -42z" />
<glyph unicode="&#xc9;" horiz-adv-x="527" d="M90 0l176 656h378l-19 -70h-295l-55 -206h249l-19 -71h-249l-64 -238h305l-19 -71h-388zM428 739l176 128l33 -55l-183 -115z" />
<glyph unicode="&#xca;" horiz-adv-x="527" d="M90 0l176 656h378l-19 -70h-295l-55 -206h249l-19 -71h-249l-64 -238h305l-19 -71h-388zM330 725l136 113h86l74 -113l-43 -26l-85 93h-4l-135 -93z" />
<glyph unicode="&#xcb;" horiz-adv-x="527" d="M90 0l176 656h378l-19 -70h-295l-55 -206h249l-19 -71h-249l-64 -238h305l-19 -71h-388zM337 764q5 21 23 35t39 14q22 0 31.5 -13.5t4.5 -35.5q-6 -21 -23.5 -35t-38.5 -14t-31.5 14t-4.5 35zM543 764q5 22 22.5 35.5t39.5 13.5q21 0 31 -13.5t5 -35.5q-6 -21 -23.5 -35 t-38.5 -14q-22 0 -32 14t-4 35z" />
<glyph unicode="&#xcc;" horiz-adv-x="263" d="M90 0l176 656h83l-176 -656h-83zM214 812l61 55l108 -128l-48 -42z" />
<glyph unicode="&#xcd;" horiz-adv-x="263" d="M90 0l176 656h83l-176 -656h-83zM275 739l176 128l33 -55l-183 -115z" />
<glyph unicode="&#xce;" horiz-adv-x="263" d="M90 0l176 656h83l-176 -656h-83zM177 725l136 113h86l74 -113l-43 -26l-85 93h-4l-135 -93z" />
<glyph unicode="&#xcf;" horiz-adv-x="263" d="M90 0l176 656h83l-176 -656h-83zM184 764q5 21 23 35t39 14q22 0 31.5 -13.5t4.5 -35.5q-6 -21 -23.5 -35t-38.5 -14t-31.5 14t-4.5 35zM390 764q5 22 22.5 35.5t39.5 13.5q21 0 31 -13.5t5 -35.5q-6 -21 -23.5 -35t-38.5 -14q-22 0 -32 14t-4 35z" />
<glyph unicode="&#xd0;" horiz-adv-x="638" d="M112 0l86 321h-79l12 43l80 4l77 288h164q151 0 207.5 -84t15.5 -241q-42 -158 -144.5 -244.5t-250.5 -86.5h-168zM213 68h75q113 0 190 68.5t111 194.5q33 125 -7 191t-154 66h-75l-59 -220h149l-13 -47h-149z" />
<glyph unicode="&#xd1;" horiz-adv-x="647" d="M90 0l176 656h86l126 -412l35 -136h4q39 183 46 209l91 339h79l-176 -656h-86l-127 413l-35 135h-4q-29 -148 -44 -205l-92 -343h-79zM342 718q19 57 54.5 90t80.5 33q25 0 45 -11t30 -24.5t24.5 -24.5t29.5 -11q40 0 66 66l55 -4q-19 -58 -54.5 -90.5t-80.5 -32.5 q-25 0 -45 11t-30 24.5t-24.5 24.5t-29.5 11q-41 0 -66 -66z" />
<glyph unicode="&#xd2;" horiz-adv-x="664" d="M141 331q41 155 143 246t227 91t178.5 -91t12.5 -246q-42 -157 -145 -250t-228 -93t-177.5 93t-10.5 250zM227 134.5q33 -73.5 121 -73.5t161 73.5t106 196.5q32 122 -2 193t-122 71t-160 -71t-104 -193q-33 -123 0 -196.5zM415 812l61 55l108 -128l-48 -42z" />
<glyph unicode="&#xd3;" horiz-adv-x="664" d="M141 331q41 155 143 246t227 91t178.5 -91t12.5 -246q-42 -157 -145 -250t-228 -93t-177.5 93t-10.5 250zM227 134.5q33 -73.5 121 -73.5t161 73.5t106 196.5q32 122 -2 193t-122 71t-160 -71t-104 -193q-33 -123 0 -196.5zM476 739l176 128l33 -55l-183 -115z" />
<glyph unicode="&#xd4;" horiz-adv-x="664" d="M141 331q41 155 143 246t227 91t178.5 -91t12.5 -246q-42 -157 -145 -250t-228 -93t-177.5 93t-10.5 250zM227 134.5q33 -73.5 121 -73.5t161 73.5t106 196.5q32 122 -2 193t-122 71t-160 -71t-104 -193q-33 -123 0 -196.5zM378 725l136 113h86l74 -113l-43 -26l-85 93 h-4l-135 -93z" />
<glyph unicode="&#xd5;" horiz-adv-x="664" d="M141 331q41 155 143 246t227 91t178.5 -91t12.5 -246q-42 -157 -145 -250t-228 -93t-177.5 93t-10.5 250zM227 134.5q33 -73.5 121 -73.5t161 73.5t106 196.5q32 122 -2 193t-122 71t-160 -71t-104 -193q-33 -123 0 -196.5zM347 718q19 57 54.5 90t80.5 33q25 0 45 -11 t30 -24.5t24.5 -24.5t29.5 -11q40 0 66 66l55 -4q-19 -58 -54.5 -90.5t-80.5 -32.5q-25 0 -45 11t-30 24.5t-24.5 24.5t-29.5 11q-41 0 -66 -66z" />
<glyph unicode="&#xd6;" horiz-adv-x="664" d="M141 331q41 155 143 246t227 91t178.5 -91t12.5 -246q-42 -157 -145 -250t-228 -93t-177.5 93t-10.5 250zM227 134.5q33 -73.5 121 -73.5t161 73.5t106 196.5q32 122 -2 193t-122 71t-160 -71t-104 -193q-33 -123 0 -196.5zM385 764q5 21 23 35t39 14q22 0 31.5 -13.5 t4.5 -35.5q-6 -21 -23.5 -35t-38.5 -14t-31.5 14t-4.5 35zM591 764q5 22 22.5 35.5t39.5 13.5q21 0 31 -13.5t5 -35.5q-6 -21 -23.5 -35t-38.5 -14q-22 0 -32 14t-4 35z" />
<glyph unicode="&#xd7;" d="M96 171l197 159l-112 158l56 45l112 -159l197 159l32 -45l-198 -158l113 -159l-56 -45l-111 160l-198 -160z" />
<glyph unicode="&#xd8;" horiz-adv-x="664" d="M52 6l94 91q-41 91 -2 234q41 155 143 246t227 91q104 0 159 -63l84 81l36 -35l-92 -89q42 -92 4 -231q-42 -157 -145 -250t-228 -93q-104 0 -158 65l-86 -83zM219 167l388 374q-37 54 -113 54q-88 0 -160 -71t-104 -193q-25 -95 -11 -164zM240 117q36 -56 111 -56 q88 0 161 73.5t106 196.5q25 93 9 160z" />
<glyph unicode="&#xd9;" horiz-adv-x="645" d="M160 271l103 385h83l-104 -387q-55 -208 97 -208q156 0 211 208l104 387h80l-103 -385q-76 -283 -311 -283q-236 0 -160 283zM406 812l61 55l108 -128l-48 -42z" />
<glyph unicode="&#xda;" horiz-adv-x="645" d="M160 271l103 385h83l-104 -387q-55 -208 97 -208q156 0 211 208l104 387h80l-103 -385q-76 -283 -311 -283q-236 0 -160 283zM467 739l176 128l33 -55l-183 -115z" />
<glyph unicode="&#xdb;" horiz-adv-x="645" d="M160 271l103 385h83l-104 -387q-55 -208 97 -208q156 0 211 208l104 387h80l-103 -385q-76 -283 -311 -283q-236 0 -160 283zM369 725l136 113h86l74 -113l-43 -26l-85 93h-4l-135 -93z" />
<glyph unicode="&#xdc;" horiz-adv-x="645" d="M160 271l103 385h83l-104 -387q-55 -208 97 -208q156 0 211 208l104 387h80l-103 -385q-76 -283 -311 -283q-236 0 -160 283zM376 764q5 21 23 35t39 14q22 0 31.5 -13.5t4.5 -35.5q-6 -21 -23.5 -35t-38.5 -14t-31.5 14t-4.5 35zM582 764q5 22 22.5 35.5t39.5 13.5 q21 0 31 -13.5t5 -35.5q-6 -21 -23.5 -35t-38.5 -14q-22 0 -32 14t-4 35z" />
<glyph unicode="&#xdd;" horiz-adv-x="476" d="M175 656h89l35 -185q12 -74 25 -143h4q89 121 104 143l134 185h87l-305 -402l-68 -254h-84l68 254zM382 739l176 128l33 -55l-183 -115z" />
<glyph unicode="&#xde;" horiz-adv-x="583" d="M90 0l176 656h83l-30 -110h118q242 0 191 -193q-28 -101 -106.5 -152t-190.5 -51h-118l-40 -150h-83zM231 218h108q86 0 136.5 32.5t69.5 102.5q18 69 -15 97t-121 28h-108z" />
<glyph unicode="&#xdf;" horiz-adv-x="576" d="M82 0l138 515q25 95 91.5 151t159.5 56q76 0 108.5 -42t15.5 -104q-9 -34 -31 -64t-44 -48.5t-43 -42.5t-27 -47q-5 -20 3 -36.5t19.5 -25t34.5 -22.5q16 -10 24 -15.5t21.5 -16.5t20 -21.5t12.5 -25.5t5.5 -33.5t-6.5 -40.5q-18 -65 -72.5 -107t-127.5 -42 q-74 0 -128 49l48 58q42 -43 95 -43q39 0 67.5 23.5t37.5 56.5q7 26 -2.5 47t-22 30.5t-39.5 26.5q-13 8 -19 12t-17 12.5t-16.5 14.5t-12 16t-8.5 20.5t-1.5 24t4.5 28.5q10 38 41 71.5t61.5 65.5t39.5 67q11 39 -4 63t-55 24q-54 0 -94 -39.5t-61 -115.5l-134 -500h-82z " />
<glyph unicode="&#xe0;" horiz-adv-x="504" d="M86 126q21 79 103.5 122t243.5 60q31 122 -68 122q-69 0 -159 -52l-16 57q113 63 207 63q86 0 113.5 -52.5t2.5 -147.5l-80 -298h-68l9 58h-3q-105 -70 -180 -70q-62 0 -92.5 37t-12.5 101zM167 132q-10 -39 8.5 -58.5t56.5 -19.5q60 0 150 65l36 135 q-121 -15 -179.5 -44.5t-71.5 -77.5zM315 726l72 55l97 -167l-53 -41z" />
<glyph unicode="&#xe1;" horiz-adv-x="504" d="M86 126q21 79 103.5 122t243.5 60q31 122 -68 122q-69 0 -159 -52l-16 57q113 63 207 63q86 0 113.5 -52.5t2.5 -147.5l-80 -298h-68l9 58h-3q-105 -70 -180 -70q-62 0 -92.5 37t-12.5 101zM167 132q-10 -39 8.5 -58.5t56.5 -19.5q60 0 150 65l36 135 q-121 -15 -179.5 -44.5t-71.5 -77.5zM372 614l185 167l44 -55l-198 -153z" />
<glyph unicode="&#xe2;" horiz-adv-x="504" d="M86 126q21 79 103.5 122t243.5 60q31 122 -68 122q-69 0 -159 -52l-16 57q113 63 207 63q86 0 113.5 -52.5t2.5 -147.5l-80 -298h-68l9 58h-3q-105 -70 -180 -70q-62 0 -92.5 37t-12.5 101zM167 132q-10 -39 8.5 -58.5t56.5 -19.5q60 0 150 65l36 135 q-121 -15 -179.5 -44.5t-71.5 -77.5zM269 600l151 140h82l77 -140l-44 -32l-88 113h-4l-148 -113z" />
<glyph unicode="&#xe3;" horiz-adv-x="504" d="M86 126q21 79 103.5 122t243.5 60q31 122 -68 122q-69 0 -159 -52l-16 57q113 63 207 63q86 0 113.5 -52.5t2.5 -147.5l-80 -298h-68l9 58h-3q-105 -70 -180 -70q-62 0 -92.5 37t-12.5 101zM167 132q-10 -39 8.5 -58.5t56.5 -19.5q60 0 150 65l36 135 q-121 -15 -179.5 -44.5t-71.5 -77.5zM247 585q42 136 137 136q24 0 42.5 -13t27.5 -29t23 -29t29 -13q41 0 67 79l54 -4q-42 -135 -137 -135q-24 0 -42.5 13t-27.5 29t-22.5 29t-28.5 13q-41 0 -68 -79z" />
<glyph unicode="&#xe4;" horiz-adv-x="504" d="M86 126q21 79 103.5 122t243.5 60q31 122 -68 122q-69 0 -159 -52l-16 57q113 63 207 63q86 0 113.5 -52.5t2.5 -147.5l-80 -298h-68l9 58h-3q-105 -70 -180 -70q-62 0 -92.5 37t-12.5 101zM167 132q-10 -39 8.5 -58.5t56.5 -19.5q60 0 150 65l36 135 q-121 -15 -179.5 -44.5t-71.5 -77.5zM288 637q5 21 23 35.5t40 14.5q21 0 31 -14.5t5 -35.5q-6 -21 -24 -35.5t-39 -14.5q-22 0 -32 14.5t-4 35.5zM481 637q5 21 23 35.5t39 14.5q22 0 32 -14.5t5 -35.5q-6 -21 -24 -35.5t-40 -14.5q-21 0 -31 14.5t-4 35.5z" />
<glyph unicode="&#xe5;" horiz-adv-x="504" d="M86 126q21 79 103.5 122t243.5 60q31 122 -68 122q-69 0 -159 -52l-16 57q113 63 207 63q86 0 113.5 -52.5t2.5 -147.5l-80 -298h-68l9 58h-3q-105 -70 -180 -70q-62 0 -92.5 37t-12.5 101zM167 132q-10 -39 8.5 -58.5t56.5 -19.5q60 0 150 65l36 135 q-121 -15 -179.5 -44.5t-71.5 -77.5zM328 653q11 43 49 70.5t87 27.5q50 0 72.5 -27.5t11.5 -70.5t-49 -71t-88 -28t-72 28t-11 71zM381 653q-7 -28 4.5 -45t35.5 -17q25 0 46 17t28 45q7 27 -4.5 44t-36.5 17q-24 0 -45 -17t-28 -44z" />
<glyph unicode="&#xe6;" horiz-adv-x="785" d="M92 126q21 79 103 122t240 60q31 122 -67 122q-65 0 -155 -52l-17 57q113 63 200 63q53 0 81.5 -27.5t30.5 -75.5q90 103 187 103q88 0 120 -61.5t4 -167.5q-8 -30 -15 -46h-315q-17 -75 13 -121.5t93 -46.5q55 0 128 40l15 -57q-91 -50 -171 -50q-101 0 -147 91 q-126 -91 -222 -91q-63 0 -93.5 37t-12.5 101zM174 132q-10 -39 8 -58.5t56 -19.5q35 0 80.5 20t87.5 55q-8 39 7 100l7 25q-117 -15 -175 -44.5t-71 -77.5zM503 278h246q20 75 1.5 115t-74.5 40q-51 0 -99 -42.5t-74 -112.5z" />
<glyph unicode="&#xe7;" horiz-adv-x="456" d="M111 242q32 118 118 187t184 69q79 0 127 -57l-56 -54q-38 43 -86 43q-66 0 -123 -52.5t-79 -135.5t5.5 -134.5t94.5 -51.5q60 0 127 49l21 -55q-73 -53 -146 -60l-38 -54q68 -17 54 -71q-23 -83 -190 -91l3 40q63 4 90 16t33 34q5 20 -9.5 31t-55.5 17l59 77 q-87 10 -124.5 77t-8.5 176z" />
<glyph unicode="&#xe8;" horiz-adv-x="496" d="M111 242q30 114 114 185t172 71q92 0 127 -61.5t6 -166.5q-6 -25 -15 -47h-328q-17 -77 14.5 -123t101.5 -46q61 0 132 38l14 -54q-91 -50 -173 -50q-100 0 -148 69t-17 185zM202 282h260q19 73 -2 112t-78 39q-53 0 -104 -40.5t-76 -110.5zM316 726l72 55l97 -167 l-53 -41z" />
<glyph unicode="&#xe9;" horiz-adv-x="496" d="M111 242q30 114 114 185t172 71q92 0 127 -61.5t6 -166.5q-6 -25 -15 -47h-328q-17 -77 14.5 -123t101.5 -46q61 0 132 38l14 -54q-91 -50 -173 -50q-100 0 -148 69t-17 185zM202 282h260q19 73 -2 112t-78 39q-53 0 -104 -40.5t-76 -110.5zM373 614l185 167l44 -55 l-198 -153z" />
<glyph unicode="&#xea;" horiz-adv-x="496" d="M111 242q30 114 114 185t172 71q92 0 127 -61.5t6 -166.5q-6 -25 -15 -47h-328q-17 -77 14.5 -123t101.5 -46q61 0 132 38l14 -54q-91 -50 -173 -50q-100 0 -148 69t-17 185zM202 282h260q19 73 -2 112t-78 39q-53 0 -104 -40.5t-76 -110.5zM270 600l151 140h82l77 -140 l-44 -32l-88 113h-4l-148 -113z" />
<glyph unicode="&#xeb;" horiz-adv-x="496" d="M111 242q30 114 114 185t172 71q92 0 127 -61.5t6 -166.5q-6 -25 -15 -47h-328q-17 -77 14.5 -123t101.5 -46q61 0 132 38l14 -54q-91 -50 -173 -50q-100 0 -148 69t-17 185zM202 282h260q19 73 -2 112t-78 39q-53 0 -104 -40.5t-76 -110.5zM289 637q5 21 23 35.5 t40 14.5q21 0 31 -14.5t5 -35.5q-6 -21 -24 -35.5t-39 -14.5q-22 0 -32 14.5t-4 35.5zM482 637q5 21 23 35.5t39 14.5q22 0 32 -14.5t5 -35.5q-6 -21 -24 -35.5t-40 -14.5q-21 0 -31 14.5t-4 35.5z" />
<glyph unicode="&#xec;" horiz-adv-x="246" d="M82 0l130 486h82l-130 -486h-82zM175 726l72 55l97 -167l-53 -41z" />
<glyph unicode="&#xed;" horiz-adv-x="246" d="M82 0l130 486h82l-130 -486h-82zM232 614l185 167l44 -55l-198 -153z" />
<glyph unicode="&#xee;" horiz-adv-x="246" d="M82 0l130 486h82l-130 -486h-82zM129 600l151 140h82l77 -140l-44 -32l-88 113h-4l-148 -113z" />
<glyph unicode="&#xef;" horiz-adv-x="246" d="M82 0l130 486h82l-130 -486h-82zM148 637q5 21 23 35.5t40 14.5q21 0 31 -14.5t5 -35.5q-6 -21 -24 -35.5t-39 -14.5q-22 0 -32 14.5t-4 35.5zM341 637q5 21 23 35.5t39 14.5q22 0 32 -14.5t5 -35.5q-6 -21 -24 -35.5t-40 -14.5q-21 0 -31 14.5t-4 35.5z" />
<glyph unicode="&#xf0;" horiz-adv-x="545" d="M112 222q27 100 102.5 162.5t164.5 62.5q84 0 116 -66q4 112 -55 192l-161 -73l-13 41l144 65q-38 38 -92 72l52 52q71 -45 113 -91l162 73l13 -41l-147 -66q99 -138 43 -348q-32 -120 -111.5 -194.5t-176.5 -74.5q-88 0 -135 64.5t-19 169.5zM190 222 q-19 -73 9.5 -119.5t86.5 -46.5q66 0 115 54t73 144q1 2 13 55q-35 74 -113 74q-65 0 -115 -45t-69 -116z" />
<glyph unicode="&#xf1;" horiz-adv-x="547" d="M82 0l130 486h68l-12 -70h3q105 82 185 82q149 0 98 -190l-83 -308h-82l80 297q18 68 4 99t-62 31q-35 0 -68.5 -17.5t-84.5 -57.5l-94 -352h-82zM276 585q42 136 137 136q24 0 42.5 -13t27.5 -29t23 -29t29 -13q41 0 67 79l54 -4q-42 -135 -137 -135q-24 0 -42.5 13 t-27.5 29t-22.5 29t-28.5 13q-41 0 -68 -79z" />
<glyph unicode="&#xf2;" horiz-adv-x="542" d="M111 242q32 118 115.5 187t177.5 69t141.5 -69.5t15.5 -186.5q-31 -116 -115 -185t-178 -69t-141 69t-16 185zM196 242q-22 -83 3 -134.5t87 -51.5q63 0 115 51.5t75 134.5q23 84 -2 136t-88 52q-62 0 -115 -52t-75 -136zM323 726l72 55l97 -167l-53 -41z" />
<glyph unicode="&#xf3;" horiz-adv-x="542" d="M111 242q32 118 115.5 187t177.5 69t141.5 -69.5t15.5 -186.5q-31 -116 -115 -185t-178 -69t-141 69t-16 185zM196 242q-22 -83 3 -134.5t87 -51.5q63 0 115 51.5t75 134.5q23 84 -2 136t-88 52q-62 0 -115 -52t-75 -136zM380 614l185 167l44 -55l-198 -153z" />
<glyph unicode="&#xf4;" horiz-adv-x="542" d="M111 242q32 118 115.5 187t177.5 69t141.5 -69.5t15.5 -186.5q-31 -116 -115 -185t-178 -69t-141 69t-16 185zM196 242q-22 -83 3 -134.5t87 -51.5q63 0 115 51.5t75 134.5q23 84 -2 136t-88 52q-62 0 -115 -52t-75 -136zM277 600l151 140h82l77 -140l-44 -32l-88 113h-4 l-148 -113z" />
<glyph unicode="&#xf5;" horiz-adv-x="542" d="M111 242q32 118 115.5 187t177.5 69t141.5 -69.5t15.5 -186.5q-31 -116 -115 -185t-178 -69t-141 69t-16 185zM196 242q-22 -83 3 -134.5t87 -51.5q63 0 115 51.5t75 134.5q23 84 -2 136t-88 52q-62 0 -115 -52t-75 -136zM255 585q42 136 137 136q24 0 42.5 -13t27.5 -29 t23 -29t29 -13q41 0 67 79l54 -4q-42 -135 -137 -135q-24 0 -42.5 13t-27.5 29t-22.5 29t-28.5 13q-41 0 -68 -79z" />
<glyph unicode="&#xf6;" horiz-adv-x="542" d="M111 242q32 118 115.5 187t177.5 69t141.5 -69.5t15.5 -186.5q-31 -116 -115 -185t-178 -69t-141 69t-16 185zM196 242q-22 -83 3 -134.5t87 -51.5q63 0 115 51.5t75 134.5q23 84 -2 136t-88 52q-62 0 -115 -52t-75 -136zM296 637q5 21 23 35.5t40 14.5q21 0 31 -14.5 t5 -35.5q-6 -21 -24 -35.5t-39 -14.5q-22 0 -32 14.5t-4 35.5zM489 637q5 21 23 35.5t39 14.5q22 0 32 -14.5t5 -35.5q-6 -21 -24 -35.5t-40 -14.5q-21 0 -31 14.5t-4 35.5z" />
<glyph unicode="&#xf7;" d="M114 299l17 62h429l-17 -62h-429zM234 150q6 23 26 38t43 15t34.5 -15t5.5 -38q-6 -24 -25.5 -39t-42.5 -15t-35 15t-6 39zM331 510q6 23 26 38t43 15t34.5 -15t5.5 -38q-7 -24 -26.5 -39t-42.5 -15q-24 0 -35.5 15t-4.5 39z" />
<glyph unicode="&#xf8;" horiz-adv-x="542" d="M48 6l71 65q-36 68 -8 171q32 118 115.5 187t177.5 69q79 0 126 -50l66 61l29 -29l-71 -66q34 -69 7 -172q-31 -116 -115 -185t-178 -69q-79 0 -125 49l-66 -60zM186 133l283 260q-27 39 -82 39q-63 0 -117.5 -52t-76.5 -134q-18 -67 -7 -113zM203 93q28 -39 82 -39 q63 0 117.5 51.5t76.5 133.5q18 67 7 113z" />
<glyph unicode="&#xf9;" horiz-adv-x="544" d="M123 178l82 308h83l-79 -297q-19 -68 -5.5 -99t61.5 -31q37 0 71.5 19t81.5 63l92 345h82l-130 -486h-68l13 76h-3q-98 -88 -183 -88q-150 0 -98 190zM324 726l72 55l97 -167l-53 -41z" />
<glyph unicode="&#xfa;" horiz-adv-x="544" d="M123 178l82 308h83l-79 -297q-19 -68 -5.5 -99t61.5 -31q37 0 71.5 19t81.5 63l92 345h82l-130 -486h-68l13 76h-3q-98 -88 -183 -88q-150 0 -98 190zM381 614l185 167l44 -55l-198 -153z" />
<glyph unicode="&#xfb;" horiz-adv-x="544" d="M123 178l82 308h83l-79 -297q-19 -68 -5.5 -99t61.5 -31q37 0 71.5 19t81.5 63l92 345h82l-130 -486h-68l13 76h-3q-98 -88 -183 -88q-150 0 -98 190zM278 600l151 140h82l77 -140l-44 -32l-88 113h-4l-148 -113z" />
<glyph unicode="&#xfc;" horiz-adv-x="544" d="M123 178l82 308h83l-79 -297q-19 -68 -5.5 -99t61.5 -31q37 0 71.5 19t81.5 63l92 345h82l-130 -486h-68l13 76h-3q-98 -88 -183 -88q-150 0 -98 190zM297 637q5 21 23 35.5t40 14.5q21 0 31 -14.5t5 -35.5q-6 -21 -24 -35.5t-39 -14.5q-22 0 -32 14.5t-4 35.5zM490 637 q5 21 23 35.5t39 14.5q22 0 32 -14.5t5 -35.5q-6 -21 -24 -35.5t-40 -14.5q-21 0 -31 14.5t-4 35.5z" />
<glyph unicode="&#xfd;" horiz-adv-x="467" d="M-20 -199l33 65q21 -7 35 -7q76 0 138 104l21 36l-65 487h85l27 -269q3 -30 10 -137h4q28 47 78 137l159 269h80l-324 -526q-104 -169 -227 -169q-31 0 -54 10zM352 614l185 167l44 -55l-198 -153z" />
<glyph unicode="&#xfe;" horiz-adv-x="555" d="M27 -205l246 917h82l-52 -194l-23 -83q96 63 164 63q94 0 127.5 -66.5t2.5 -181.5q-32 -119 -112.5 -190.5t-167.5 -71.5q-64 0 -120 54l-21 -83l-44 -164h-82zM193 108q47 -51 105 -51q61 0 114 52.5t77 140.5q49 179 -80 179q-56 0 -148 -66z" />
<glyph unicode="&#xff;" horiz-adv-x="467" d="M-20 -199l33 65q21 -7 35 -7q76 0 138 104l21 36l-65 487h85l27 -269q3 -30 10 -137h4q28 47 78 137l159 269h80l-324 -526q-104 -169 -227 -169q-31 0 -54 10zM268 637q5 21 23 35.5t40 14.5q21 0 31 -14.5t5 -35.5q-6 -21 -24 -35.5t-39 -14.5q-22 0 -32 14.5t-4 35.5z M461 637q5 21 23 35.5t39 14.5q22 0 32 -14.5t5 -35.5q-6 -21 -24 -35.5t-40 -14.5q-21 0 -31 14.5t-4 35.5z" />
<glyph unicode="&#x152;" horiz-adv-x="847" d="M141 331q41 155 148 240t260 85h415l-19 -70h-278l-55 -206h232l-19 -71h-232l-64 -238h288l-19 -71h-429q-149 0 -209.5 87t-18.5 244zM227 331q-34 -126 9 -194.5t161 -68.5h48l140 520h-48q-118 0 -197.5 -66t-112.5 -191z" />
<glyph unicode="&#x153;" horiz-adv-x="839" d="M111 242q32 118 114 187t174 69q56 0 95 -32t49 -90q43 57 96.5 89.5t106.5 32.5q89 0 122 -61.5t5 -167.5q-8 -30 -15 -46h-319q-17 -75 14 -121.5t94 -46.5q57 0 130 40l15 -57q-91 -50 -173 -50q-57 0 -95.5 32t-51.5 89q-89 -121 -211 -121q-92 0 -136.5 68.5 t-13.5 185.5zM195 242q-22 -83 2 -134.5t84 -51.5t112 51.5t74 134.5q22 84 -2 136t-84 52t-112 -52t-74 -136zM553 278h250q20 75 0 115t-76 40q-51 0 -99.5 -42.5t-74.5 -112.5z" />
<glyph unicode="&#x178;" horiz-adv-x="476" d="M175 656h89l35 -185q12 -74 25 -143h4q89 121 104 143l134 185h87l-305 -402l-68 -254h-84l68 254zM291 764q5 21 23 35t39 14q22 0 31.5 -13.5t4.5 -35.5q-6 -21 -23.5 -35t-38.5 -14t-31.5 14t-4.5 35zM497 764q5 22 22.5 35.5t39.5 13.5q21 0 31 -13.5t5 -35.5 q-6 -21 -23.5 -35t-38.5 -14q-22 0 -32 14t-4 35z" />
<glyph unicode="&#x2c6;" horiz-adv-x="542" d="M277 600l151 140h82l77 -140l-44 -32l-88 113h-4l-148 -113z" />
<glyph unicode="&#x2dc;" horiz-adv-x="542" d="M255 585q42 136 137 136q24 0 42.5 -13t27.5 -29t23 -29t29 -13q41 0 67 79l54 -4q-42 -135 -137 -135q-24 0 -42.5 13t-27.5 29t-22.5 29t-28.5 13q-41 0 -68 -79z" />
<glyph unicode="&#x2000;" horiz-adv-x="440" />
<glyph unicode="&#x2001;" horiz-adv-x="880" />
<glyph unicode="&#x2002;" horiz-adv-x="440" />
<glyph unicode="&#x2003;" horiz-adv-x="880" />
<glyph unicode="&#x2004;" horiz-adv-x="293" />
<glyph unicode="&#x2005;" horiz-adv-x="220" />
<glyph unicode="&#x2006;" horiz-adv-x="146" />
<glyph unicode="&#x2007;" horiz-adv-x="146" />
<glyph unicode="&#x2008;" horiz-adv-x="110" />
<glyph unicode="&#x2009;" horiz-adv-x="176" />
<glyph unicode="&#x200a;" horiz-adv-x="48" />
<glyph unicode="&#x2010;" horiz-adv-x="311" d="M100 219l17 63h230l-17 -63h-230z" />
<glyph unicode="&#x2011;" horiz-adv-x="311" d="M100 219l17 63h230l-17 -63h-230z" />
<glyph unicode="&#x2012;" horiz-adv-x="311" d="M100 219l17 63h230l-17 -63h-230z" />
<glyph unicode="&#x2013;" horiz-adv-x="480" d="M101 223l15 57h398l-15 -57h-398z" />
<glyph unicode="&#x2014;" horiz-adv-x="800" d="M101 223l15 57h718l-15 -57h-718z" />
<glyph unicode="&#x2018;" horiz-adv-x="249" d="M194.5 451q-10.5 23 1.5 67q30 116 153 178l14 -39q-46 -25 -71.5 -53.5t-37.5 -70.5q3 1 9 1q22 0 33.5 -13.5t5.5 -37.5q-7 -25 -25 -40t-42 -15q-30 0 -40.5 23z" />
<glyph unicode="&#x2019;" horiz-adv-x="249" d="M189 469q45 26 70.5 54.5t37.5 69.5h-8q-22 0 -34 13.5t-6 36.5q7 26 25.5 41t42.5 15q29 0 39.5 -23.5t-0.5 -67.5q-32 -115 -155 -177z" />
<glyph unicode="&#x201a;" horiz-adv-x="249" d="M189 -107q45 26 70.5 54.5t37.5 69.5h-8q-22 0 -34 13.5t-6 36.5q7 26 25.5 41t42.5 15q29 0 39.5 -23.5t-0.5 -67.5q-32 -115 -155 -177z" />
<glyph unicode="&#x201c;" horiz-adv-x="426" d="M194.5 451q-10.5 23 1.5 67q30 116 153 178l14 -39q-46 -25 -71.5 -53.5t-37.5 -70.5q3 1 9 1q22 0 33.5 -13.5t5.5 -37.5q-7 -25 -25 -40t-42 -15q-30 0 -40.5 23zM371.5 451q-10.5 23 1.5 67q30 116 153 178l14 -39q-46 -25 -71.5 -53.5t-37.5 -70.5q3 1 9 1 q22 0 33.5 -13.5t5.5 -37.5q-7 -25 -25 -40t-42 -15q-30 0 -40.5 23z" />
<glyph unicode="&#x201d;" horiz-adv-x="426" d="M189 469q45 26 70.5 54.5t37.5 69.5h-8q-22 0 -34 13.5t-6 36.5q7 26 25.5 41t42.5 15q29 0 39.5 -23.5t-0.5 -67.5q-32 -115 -155 -177zM366 469q45 26 70.5 54.5t37.5 69.5h-8q-22 0 -34 13.5t-6 36.5q7 26 25.5 41t42.5 15q29 0 39.5 -23.5t-0.5 -67.5 q-32 -115 -155 -177z" />
<glyph unicode="&#x201e;" horiz-adv-x="426" d="M189 -107q45 26 70.5 54.5t37.5 69.5h-8q-22 0 -34 13.5t-6 36.5q7 26 25.5 41t42.5 15q29 0 39.5 -23.5t-0.5 -67.5q-32 -115 -155 -177zM366 -107q45 26 70.5 54.5t37.5 69.5h-8q-22 0 -34 13.5t-6 36.5q7 26 25.5 41t42.5 15q29 0 39.5 -23.5t-0.5 -67.5 q-32 -115 -155 -177z" />
<glyph unicode="&#x2022;" horiz-adv-x="304" d="M110 263q15 53 57 87t88 34t70 -34t9 -87q-14 -53 -56 -86.5t-88 -33.5t-70 33.5t-10 86.5z" />
<glyph unicode="&#x2026;" horiz-adv-x="948" d="M107 50q8 28 30.5 46t47.5 18t37 -18t4 -46q-7 -27 -29 -44.5t-46 -17.5q-25 0 -38 17.5t-6 44.5zM442 50q8 28 30.5 46t47.5 18t37 -18t4 -46q-7 -27 -29 -44.5t-46 -17.5q-25 0 -38 17.5t-6 44.5zM777 50q8 28 30.5 46t47.5 18t37 -18t4 -46q-7 -27 -29 -44.5 t-46 -17.5q-25 0 -38 17.5t-6 44.5z" />
<glyph unicode="&#x202f;" horiz-adv-x="176" />
<glyph unicode="&#x2039;" horiz-adv-x="271" d="M104 221l17 62l177 155l28 -30l-159 -156l75 -158l-43 -28z" />
<glyph unicode="&#x203a;" horiz-adv-x="271" d="M79 94l161 158l-77 156l43 30l96 -155l-17 -62l-178 -155z" />
<glyph unicode="&#x205f;" horiz-adv-x="220" />
<glyph unicode="&#x20ac;" d="M86 235l11 43l60 4l9 36q6 22 9 32h-58l12 44l64 5q49 118 132.5 184.5t181.5 66.5q43 0 76.5 -21.5t51.5 -56.5l-61 -47q-32 59 -88 59q-65 0 -118.5 -48.5t-89.5 -136.5h254l-13 -49h-259q-2 -5 -4.5 -15l-3.5 -14q-6 -19 -9 -38h218l-13 -48h-213q-11 -86 15.5 -133.5 t87.5 -47.5q66 0 137 71l38 -44q-96 -93 -197 -93q-91 0 -135.5 65.5t-30.5 181.5h-64z" />
<glyph unicode="&#x2122;" horiz-adv-x="637" d="M170 622l14 54h259l-14 -54h-100l-69 -256h-60l69 256h-99zM408 366l83 310h73l16 -116l7 -78h4l49 78l77 116h72l-83 -310h-55l37 137l35 105h-4l-125 -194h-47l-21 194h-4l-21 -105l-37 -137h-56z" />
<glyph unicode="&#xfb01;" horiz-adv-x="556" d="M96 0l112 419h-66l17 62l67 5l21 77q20 76 67 118.5t118 42.5q41 0 77 -16l-35 -63q-24 12 -52 12q-69 0 -93 -94l-21 -77h103l-18 -67h-103l-112 -419h-82zM392 0l130 486h82l-130 -486h-82zM548 639q7 24 27 38.5t44 14.5q25 0 37.5 -14.5t5.5 -38.5q-6 -23 -26.5 -38 t-44.5 -15t-36.5 15t-6.5 38z" />
<glyph unicode="&#xfb02;" horiz-adv-x="547" d="M96 0l112 419h-66l17 62l67 5l21 77q20 76 67 118.5t118 42.5q41 0 77 -16l-35 -63q-24 12 -52 12q-69 0 -93 -94l-21 -77h103l-18 -67h-103l-112 -419h-82zM400 98l165 614h82l-166 -620q-10 -36 13 -36q9 0 19 2l-6 -62q-19 -8 -49 -8q-87 0 -58 110z" />
<glyph unicode="&#xfb03;" horiz-adv-x="823" d="M96 0l112 419h-66l17 62l67 5l17 64q21 77 71 120.5t124 43.5q50 0 84 -18l-33 -62q-27 13 -62 13q-36 0 -62.5 -25.5t-39.5 -73.5l-17 -62h203l21 77q20 76 67 118.5t118 42.5q41 0 77 -16l-35 -63q-24 12 -52 12q-69 0 -93 -94l-21 -77h103l-18 -67h-103l-112 -419h-82 l112 419h-203l-112 -419h-82zM659 0l130 486h82l-130 -486h-82zM815 639q7 24 27 38.5t44 14.5q25 0 37.5 -14.5t5.5 -38.5q-6 -23 -26.5 -38t-44.5 -15t-36.5 15t-6.5 38z" />
<glyph unicode="&#xfb04;" horiz-adv-x="832" d="M96 0l112 419h-66l17 62l67 5l17 64q21 77 71 120.5t124 43.5q50 0 84 -18l-33 -62q-27 13 -62 13q-36 0 -62.5 -25.5t-39.5 -73.5l-17 -62h203l21 77q20 76 67 118.5t118 42.5q41 0 77 -16l-35 -63q-24 12 -52 12q-69 0 -93 -94l-21 -77h103l-18 -67h-103l-112 -419h-82 l112 419h-203l-112 -419h-82zM685 98l165 614h82l-166 -620q-10 -36 13 -36q9 0 19 2l-6 -62q-19 -8 -49 -8q-87 0 -58 110z" />
</font>
</defs>
</svg>
