<svg xmlns="http://www.w3.org/2000/svg" xmlns:xlink="http://www.w3.org/1999/xlink" version="1.1"><metadata/><defs><font id="madabold" horiz-adv-x="1071"><font-face ascent="1638" descent="-410" units-per-em="2048"/><glyph horiz-adv-x="0"/><glyph horiz-adv-x="682"/><glyph horiz-adv-x="409"/><glyph horiz-adv-x="409"/><glyph horiz-adv-x="409"/><glyph d="M168 154q0 77 49.5 128.5t122.5 51.5t122.5 -51.5t49.5 -128.5q0 -75 -49.5 -127t-122.5 -52t-122.5 52t-49.5 127zM201 1372h278l-8 -258l-39 -651h-184l-39 651z" horiz-adv-x="679" unicode="!"/><glyph d="M158 1407h282l-10 -258l-55 -397h-154l-53 397zM625 1407h282l-10 -258l-55 -397h-154l-53 397z" horiz-adv-x="1060" unicode="&quot;"/><glyph d="M68 389v180h174l28 240h-164v180h187l43 344h162l-41 -344h221l45 344h162l-41 -344h162v-180h-185l-28 -240h172v-180h-193l-47 -389h-164l47 389h-221l-47 -389h-164l45 389h-153zM406 569h221l28 240h-221z" unicode="#"/><glyph d="M82 133l123 189q159 -125 299 -125q178 0 178 153q0 47 -30 85.5t-78 67.5t-106 58t-116.5 63.5t-106.5 76t-78 103.5t-30 138q0 146 80.5 244t222.5 127v213h187v-207q169 -23 305 -166l-141 -160q-59 55 -111 81t-117 26q-160 0 -160 -142q0 -43 30 -78t78 -61.5 t106.5 -53.5t116.5 -61t106 -76t78 -107t30 -146q0 -151 -83 -254t-238 -135v-213h-187v204q-95 11 -192 51.5t-166 104.5z" unicode="$"/><glyph d="M55 938q0 196 91.5 309t238.5 113q146 0 237 -113t91 -309q0 -197 -91.5 -311.5t-236.5 -114.5q-147 0 -238.5 114t-91.5 312zM254 938q0 -138 36 -203t95 -65t95 65t36 203q0 137 -35.5 200.5t-95.5 63.5t-95.5 -63.5t-35.5 -200.5zM430 -25l725 1385h164l-725 -1385 h-164zM1032 401q0 196 91.5 309t238.5 113q146 0 237 -113t91 -309q0 -197 -91.5 -311.5t-236.5 -114.5q-147 0 -238.5 114t-91.5 312zM1231 401q0 -138 36 -203t95 -65t95 65t36 203q0 137 -35.5 201t-95.5 64t-95.5 -64t-35.5 -201z" horiz-adv-x="1744" unicode="%"/><glyph d="M51 356q0 127 66 215.5t180 161.5q-82 161 -82 285q0 144 98.5 243t257.5 99q146 0 232 -80.5t86 -214.5q0 -51 -16.5 -98.5t-41.5 -84t-65.5 -75t-76 -65t-85.5 -60.5q122 -143 283 -264q105 139 157 330h254q-76 -255 -223 -455q134 -75 234 -92l-68 -226 q-167 36 -336 138q-182 -138 -413 -138l-3 2q-205 0 -321.5 108.5t-116.5 270.5zM317 371q0 -82 58 -132.5t151 -50.5q90 0 187 62q-163 132 -293 297q-103 -86 -103 -176zM446 1020q0 -81 48 -172q87 52 133.5 103t46.5 116q0 51 -25 81t-74 30q-56 0 -92.5 -43.5 t-36.5 -114.5z" horiz-adv-x="1347" unicode="&amp;"/><glyph d="M158 1407h282l-10 -258l-55 -397h-154l-53 397z" horiz-adv-x="598" unicode="'"/><glyph d="M152 573q0 262 68 489.5t202 444.5l174 -73q-219 -380 -219 -863q0 -482 219 -862l-174 -74v5q-134 217 -202 444t-68 489z" horiz-adv-x="690" unicode="("/><glyph d="M96 -295q219 380 219 862q0 483 -219 863l174 73q134 -217 202.5 -444.5t68.5 -489.5t-68.5 -489.5t-202.5 -444.5z" horiz-adv-x="690" unicode=")"/><glyph d="M88 1130l45 140l232 -49l24 237h148l24 -239l234 51l45 -140l-219 -96l120 -209l-118 -86l-162 183l-162 -183l-115 86l121 209z" horiz-adv-x="921" unicode="*"/><glyph d="M70 578v198h362v381h205v-381h362v-198h-362v-381h-205v381h-362z" unicode="+"/><glyph d="M98 -238q106 39 163.5 104t57.5 144h-18q-71 0 -121.5 43.5t-50.5 118.5q0 72 51.5 118t126.5 46q94 0 145.5 -72t51.5 -201q0 -162 -91 -280t-259 -172z" horiz-adv-x="598" unicode=","/><glyph d="M88 418v198h498v-198h-498z" horiz-adv-x="671" unicode="-"/><glyph d="M127 154q0 77 49.5 128.5t122.5 51.5t122.5 -51.5t49.5 -128.5q0 -75 -49.5 -127t-122.5 -52t-122.5 52t-49.5 127z" horiz-adv-x="598" unicode="."/><glyph d="M25 -328l434 1782h184l-434 -1782h-184z" horiz-adv-x="696" unicode="/"/><glyph d="M80 657q0 325 122.5 497.5t334.5 172.5q211 0 333.5 -173t122.5 -497q0 -326 -122.5 -504t-333.5 -178t-334 178t-123 504zM344 657q0 -173 26 -279t67 -145.5t100 -39.5t99.5 39.5t66.5 145.5t26 279q0 131 -14 222.5t-41 141t-60 70.5t-77 21t-77.5 -21t-60.5 -70.5 t-41 -141t-14 -222.5z" unicode="0"/><glyph d="M145 0v227h287v789h-242v174q182 34 314 113h207v-1078h247v-225h-813z" unicode="1"/><glyph d="M63 1120q99 105 198.5 155t232.5 50q191 0 307.5 -112t116.5 -298q0 -65 -25 -136.5t-62 -135t-99 -142t-116.5 -139t-134.5 -143.5q145 17 217 17h283v-236h-903l-2 160q105 100 163 157t135.5 136t118.5 130.5t81.5 111.5t57.5 109.5t17 96.5q0 97 -51 151t-143 54 q-111 0 -240 -137z" unicode="2"/><glyph d="M45 158l131 176q141 -137 295 -137q100 0 160.5 45t60.5 123q0 48 -16.5 82t-56 61t-111.5 40t-178 13v199q172 0 244.5 49t72.5 137q0 74 -45 115t-127 41q-67 0 -125.5 -29.5t-122.5 -89.5l-141 170q193 168 403 168q200 0 319.5 -93t119.5 -259q0 -201 -219 -291v-8 q119 -32 190.5 -113.5t71.5 -204.5q0 -116 -65.5 -203t-172 -130.5t-237.5 -43.5v-2q-287 0 -451 185z" unicode="3"/><glyph d="M39 319v193l489 791h338v-771h156v-213h-156v-319h-260v319h-567zM309 532h295v242q0 43 12 283h-8q-29 -62 -106 -213z" unicode="4"/><glyph d="M47 160l127 176q142 -135 291 -135q105 0 167 57.5t62 161.5q0 102 -59 159.5t-158 57.5q-56 0 -94.5 -14.5t-101.5 -53.5l-127 82l36 652h723v-236h-483l-24 -268q71 32 153 32q86 0 160 -24.5t131.5 -73t90 -127t32.5 -180.5q0 -105 -38.5 -191.5t-103.5 -142.5 t-150 -86.5t-179 -30.5v2q-272 0 -455 183z" unicode="5"/><glyph d="M82 614q0 178 43 317t116.5 223t165 126.5t195.5 42.5q221 0 371 -154l-148 -168q-35 41 -91 69t-113 28q-124 0 -200 -102.5t-83 -333.5q52 67 128.5 107t143.5 40q175 0 280 -101.5t105 -299.5q0 -194 -122.5 -313.5t-301.5 -119.5l-4 -4q-97 0 -182.5 38t-154 113.5 t-108.5 202t-40 289.5zM346 469q19 -150 76.5 -218.5t140.5 -68.5q76 0 125 57.5t49 166.5q0 104 -48.5 154t-133.5 50q-122 0 -209 -141z" unicode="6"/><glyph d="M90 1067v236h895v-173q-76 -92 -131 -175t-94.5 -170t-65 -166.5t-42 -183t-25 -200t-15.5 -235.5h-282q19 341 95.5 578t258.5 489h-594z" unicode="7"/><glyph d="M86 334q0 204 225 325v9q-176 130 -176 303q0 161 114.5 257.5t295.5 96.5q177 0 284 -97t107 -257q0 -89 -49.5 -164.5t-122.5 -124.5v-8q105 -58 165 -138.5t60 -201.5q0 -154 -126.5 -256.5t-327.5 -102.5q-193 0 -321 101t-128 258zM326 358q0 -87 61.5 -139.5 t153.5 -52.5h2q83 0 134.5 45t51.5 127q0 57 -42 102t-84 66t-150 66q-9 4 -13 6q-52 -43 -83 -100.5t-31 -119.5zM383 971q0 -79 58 -127t177 -94v-5q91 101 91 205q0 81 -46 130.5t-124 49.5q-67 0 -111.5 -42t-44.5 -117z" unicode="8"/><glyph d="M72 895q0 194 122.5 313t301.5 119q98 0 183.5 -38t154 -113.5t108 -202t39.5 -289.5q0 -178 -43 -317t-116.5 -223t-165 -126.5t-195.5 -42.5l-2 7q-222 0 -369 151l148 168q35 -41 91 -68.5t113 -27.5q59 0 107 23t87.5 72t63 135t27.5 204q-52 -67 -127.5 -106 t-142.5 -39q-175 0 -280 101.5t-105 299.5zM328 897q0 -104 48.5 -154.5t133.5 -50.5q56 0 110.5 33.5t98.5 103.5q-19 152 -76.5 221.5t-140.5 69.5q-75 0 -124.5 -57t-49.5 -166z" unicode="9"/><glyph d="M127 154q0 77 49.5 128.5t122.5 51.5t122.5 -51.5t49.5 -128.5q0 -75 -49.5 -127t-122.5 -52t-122.5 52t-49.5 127zM127 829q0 77 49.5 129t122.5 52t122.5 -52t49.5 -129q0 -75 -49.5 -126.5t-122.5 -51.5t-122.5 51.5t-49.5 126.5z" horiz-adv-x="598" unicode=":"/><glyph d="M98 -240q106 39 163.5 104t57.5 144h-18q-71 0 -121.5 43.5t-50.5 118.5q0 72 51.5 118t126.5 46q94 0 145.5 -72t51.5 -201q0 -162 -91 -280t-259 -172zM127 829q0 77 49.5 129t122.5 52t122.5 -52t49.5 -129q0 -75 -49.5 -126.5t-122.5 -51.5t-122.5 51.5t-49.5 126.5z" horiz-adv-x="598" unicode=";"/><glyph d="M70 582v196l931 359v-230l-372 -125l-277 -98v-8l277 -98l372 -125v-230z" unicode="&lt;"/><glyph d="M70 342v199h931v-199h-931zM70 811v199h931v-199h-931z" unicode="="/><glyph d="M70 223v230l372 125l277 98v8l-277 98l-372 125v230l931 -359v-196z" unicode="&gt;"/><glyph d="M86 1210q160 185 383 185q171 0 275 -88t104 -258q0 -45 -11 -84.5t-36.5 -78t-44.5 -62t-56 -64.5q-38 -43 -57 -67t-44 -64t-33.5 -80.5t-4.5 -85.5h-239q-4 27 -4 54t3 49.5t11 46.5t15.5 42.5t21 40.5t23 37t26.5 36t27 32.5t28 32.5q37 42 56.5 66.5t37 60 t17.5 67.5q0 65 -41 103t-109 38q-97 0 -194 -100zM272 152q0 77 49.5 128.5t122.5 51.5t122.5 -51.5t49.5 -128.5q0 -75 -49.5 -127t-122.5 -52t-122.5 52t-49.5 127zM317 463h5v-2z" horiz-adv-x="935" unicode="?"/><glyph d="M100 424q0 208 73 386.5t197 299.5t290.5 189.5t351.5 68.5q162 0 296.5 -53t226.5 -148t143 -228.5t51 -291.5q0 -134 -41.5 -244t-108 -177.5t-145.5 -103.5t-160 -36q-90 0 -153.5 41.5t-78.5 114.5h-4q-44 -61 -113 -99.5t-134 -38.5q-118 0 -191.5 83t-73.5 223 q0 123 52.5 237t148 187t209.5 73q109 0 158 -100h4l28 84h172l-90 -445q-46 -188 97 -188q99 0 174 106.5t75 272.5q0 92 -20 173t-63.5 152t-108 122t-159 80.5t-210.5 29.5q-132 0 -258 -55t-224 -152.5t-158 -243.5t-60 -315q0 -147 48 -263.5t131 -189.5t190.5 -111 t230.5 -38q160 0 313 80l62 -154q-177 -98 -400 -98v4q-157 0 -293.5 48t-243.5 140.5t-169 241t-62 336.5zM733 426q0 -72 30.5 -108.5t84.5 -36.5l-2 2q70 0 145 96l51 285q-37 63 -102 63q-61 0 -110 -49.5t-73 -117.5t-24 -134z" horiz-adv-x="1828" unicode="@"/><glyph d="M-10 0l424 1337h331l426 -1335h-297l-88 332h-419l-91 -334h-286zM424 553h303l-37 137q-23 79 -63.5 240.5t-48.5 191.5h-9q-69 -299 -108 -434z" horiz-adv-x="1163" unicode="A"/><glyph d="M162 0v1339h446q488 0 488 -329q0 -95 -49.5 -178t-131.5 -113v-8q112 -28 180 -108.5t68 -209.5q0 -131 -69.5 -221t-183.5 -131t-265 -41h-483zM438 219h180q271 0 271 195q0 92 -67.5 135t-203.5 43h-180v-373zM440 799h150q116 0 172.5 44.5t56.5 125.5 q0 82 -54.5 117.5t-170.5 35.5h-154v-323z" horiz-adv-x="1232" unicode="B"/><glyph d="M94 662q0 161 50 294t136 220.5t199 135.5t240 48q121 0 222.5 -48t174.5 -124l-147 -180q-113 110 -242 110q-150 0 -246 -121.5t-96 -326.5q0 -212 91.5 -332.5t246.5 -120.5q148 0 270 129l148 -176q-170 -195 -428 -195h-4q-128 0 -239 45t-195 129.5t-132.5 216.5 t-48.5 296z" horiz-adv-x="1187" unicode="C"/><glyph d="M160 1337h370q316 0 491 -165t175 -496q0 -333 -173 -504.5t-476 -171.5h-385zM438 227l74 -2q395 0 395 451q0 232 -102 334t-293 102h-74v-885z" horiz-adv-x="1292" unicode="D"/><glyph d="M162 0v1337h825v-233h-547v-295h465v-236h-465v-337h568v-236h-846z" horiz-adv-x="1114" unicode="E"/><glyph d="M160 1333h831v-233h-551v-334h471v-234h-471v-532h-278z" horiz-adv-x="1062" unicode="F"/><glyph d="M90 664q0 161 50.5 294t138.5 220.5t205 135.5t251 48q248 0 416 -172l-147 -180q-56 52 -116 80t-143 28q-165 0 -266.5 -120.5t-101.5 -327.5q0 -217 99 -335t290 -118q103 0 160 45v250h-232v229h482v-606q-71 -71 -186.5 -115.5t-248.5 -44.5l-6 2q-138 0 -255 45 t-204 129.5t-136.5 216t-49.5 296.5z" horiz-adv-x="1298" unicode="G"/><glyph d="M162 0v1335h278v-522h488v522h280v-1335h-280v569h-488v-569h-278z" horiz-adv-x="1372" unicode="H"/><glyph d="M162 0v1335h278v-1335h-278z" horiz-adv-x="604" unicode="I"/><glyph d="M33 215l192 141q74 -137 195 -137q90 0 133 55t43 187v876h281v-901q0 -97 -25 -179t-75 -146t-131.5 -100t-186.5 -36l-4 5q-148 0 -251 58t-171 177z" horiz-adv-x="1032" unicode="J"/><glyph d="M160 1335h278v-567h8l426 567h308l-406 -528l479 -807h-307l-338 586l-168 -217v-369h-278z" horiz-adv-x="1245" unicode="K"/><glyph d="M162 0l2 1337h278v-1101h537v-236h-817z" horiz-adv-x="1048" unicode="L"/><glyph d="M162 0v1335h307l223 -614q15 -43 41.5 -128.5t40.5 -125.5h8q14 40 39.5 126t40.5 128l217 614h310v-1335h-256v532q0 45 4 110.5t8 108.5t12 125.5t10 100.5h-8l-108 -313l-201 -543h-158l-200 543l-107 313h-8q2 -26 10 -102t12.5 -123t8.5 -111t4 -109v-532h-250z" horiz-adv-x="1548" unicode="M"/><glyph d="M162 0v1337h287l370 -694l135 -291h9q-2 25 -13 137t-16.5 190t-5.5 148v508h266v-1335h-287l-372 696l-136 289h-8q3 -31 11.5 -110t13 -126t8.5 -114.5t4 -122.5v-512h-266z" horiz-adv-x="1355" unicode="N"/><glyph d="M96 674q0 321 164.5 503.5t435.5 182.5t436.5 -183.5t165.5 -502.5q0 -323 -165.5 -511t-436.5 -188q-270 0 -435 188t-165 511zM381 674q0 -209 85 -333t230 -124t230.5 124t85.5 333q0 208 -85 326t-231 118t-230.5 -118t-84.5 -326z" horiz-adv-x="1394" unicode="O"/><glyph d="M160 1337h446q116 0 208 -22t165.5 -70t113.5 -132t40 -200q0 -113 -40.5 -199.5t-112.5 -139.5t-164.5 -80t-201.5 -27h-174v-467h-278zM438 690h158q260 0 260 223q0 109 -66.5 156t-203.5 47h-148v-426z" horiz-adv-x="1210" unicode="P"/><glyph d="M96 674q0 321 164.5 503.5t435.5 182.5t436.5 -183.5t165.5 -502.5q0 -267 -115.5 -444t-314.5 -232q43 -70 123 -103.5t176 -33.5q75 0 146 22l49 -205q-84 -43 -229 -43h-3h3q-198 0 -343 96.5t-217 254.5q-220 42 -348.5 222.5t-128.5 465.5zM381 676 q0 -220 84.5 -345.5t230.5 -125.5t231 125.5t85 345.5q0 208 -85 326t-231 118t-230.5 -118t-84.5 -326z" horiz-adv-x="1394" unicode="Q"/><glyph d="M160 1339h471q508 0 508 -409q0 -146 -65.5 -242.5t-182.5 -144.5l305 -539h-313l-265 492h-178v-496h-278zM438 721h166q126 0 192 53.5t66 157.5q0 101 -63.5 143.5t-194.5 42.5h-166v-397z" horiz-adv-x="1241" unicode="R"/><glyph d="M70 176l161 193q73 -66 161.5 -106t172.5 -40q99 0 152 38.5t53 105.5q0 32 -10.5 55t-42.5 44t-53.5 31t-78.5 34q-9 4 -14 6l-176 75q-117 47 -193.5 136.5t-76.5 224.5q0 166 132.5 278.5t334.5 112.5q118 0 230 -45t196 -129l-144 -176q-133 108 -280 108 q-84 0 -133 -35.5t-49 -97.5q0 -25 10.5 -46t25 -36t42.5 -30.5t51 -25.5t62 -26q3 -1 4 -1.5t3.5 -1.5t4 -1.5t3.5 -1.5l175 -71q129 -52 197.5 -139.5t68.5 -223.5q0 -83 -34 -157.5t-96 -130.5t-156 -89t-208 -33l-4 9q-134 0 -263.5 50t-227.5 142z" horiz-adv-x="1130" unicode="S"/><glyph d="M51 1102v233h1028v-233h-372v-1102h-281l-2 1102h-373z" horiz-adv-x="1132" unicode="T"/><glyph d="M156 608v729h278v-753q0 -196 62.5 -280.5t183.5 -84.5q123 0 186.5 84.5t63.5 280.5v753h270v-729q0 -327 -131.5 -480t-386.5 -153h-2h2q-258 0 -392 153.5t-134 479.5z" horiz-adv-x="1353" unicode="U"/><glyph d="M-12 1335h297l170 -639q18 -67 52.5 -209.5t57.5 -222.5h8q23 84 58.5 228.5t50.5 203.5l168 639h287l-406 -1335h-336z" horiz-adv-x="1124" unicode="V"/><glyph d="M31 1335h286l101 -641q9 -70 28.5 -212t28.5 -212h8q25 131 82 424l152 641h239l152 -641q17 -81 48.5 -239t37.5 -187h8q10 76 30 219.5t28 206.5l100 641h266l-244 -1335h-350l-143 641q-31 136 -58 307h-8q-23 -144 -55 -307l-139 -641h-344z" horiz-adv-x="1656" unicode="W"/><glyph d="M25 0l370 690l-350 647h311l127 -268q14 -27 29 -59.5t35.5 -76t34.5 -73.5h8q52 128 90 209l119 268h299l-350 -661l372 -676h-311l-143 287q-60 123 -103 219h-8q-44 -109 -94 -219l-137 -287h-299z" horiz-adv-x="1142" unicode="X"/><glyph d="M-12 1335h299l129 -319q24 -64 112 -295h9q13 35 53 136.5t61 158.5l127 319h293l-401 -852v-483h-281v483z" horiz-adv-x="1058" unicode="Y"/><glyph d="M76 0l2 170l610 934h-553v233h897v-168l-610 -933h614v-236h-960z" horiz-adv-x="1107" unicode="Z"/><glyph d="M180 -311v1761h422v-150h-213v-1462h213v-149h-422z" horiz-adv-x="690" unicode="["/><glyph d="M53 1454h185l434 -1782h-185z" horiz-adv-x="696" unicode="\"/><glyph d="M90 -162h213v1462h-213v150h422v-1761h-422v149z" horiz-adv-x="690" unicode="]"/><glyph d="M106 565l318 807h227l316 -807h-232l-100 279l-94 276h-9l-94 -276l-100 -279h-232z" unicode="^"/><glyph d="M25 -123h974v-160h-974v160z" horiz-adv-x="1024" unicode="_"/><glyph d="M190 1493l191 184l309 -368l-137 -138z" horiz-adv-x="1132" unicode="`"/><glyph d="M86 279q0 162 137.5 251t440.5 121q-7 164 -166 164q-112 0 -273 -94l-100 184q215 133 426 133q194 0 294.5 -113.5t100.5 -338.5v-586h-227l-21 106h-8q-148 -131 -301 -131h-2q-134 0 -217.5 86.5t-83.5 217.5zM354 301q0 -54 33.5 -81t91.5 -27q52 0 94 23.5t93 72.5 v194q-167 -22 -239.5 -68t-72.5 -114z" unicode="a"/><glyph d="M137 2v1438h279v-359l-6 -159q129 116 276 116q185 0 291 -139.5t106 -374.5q0 -126 -35.5 -231.5t-95.5 -174t-136.5 -106t-160.5 -37.5v2q-142 0 -268 132h-8l-23 -107h-219zM416 279q80 -72 176 -72q91 0 148 79.5t57 235.5q0 289 -191 289q-95 0 -190 -98v-434z" horiz-adv-x="1165" unicode="b"/><glyph d="M78 504q0 123 42.5 225t114.5 168.5t165.5 102.5t197.5 36q172 0 295 -110l-133 -181q-75 66 -148 66q-114 0 -182 -83.5t-68 -221.5q0 -136 68 -220.5t174 -84.5q97 0 191 80l110 -183q-140 -123 -332 -123l2 -2q-105 0 -196 36t-158 103t-105 168t-38 224z" horiz-adv-x="954" unicode="c"/><glyph d="M84 504q0 121 35.5 222.5t95 168.5t135.5 104t158 37q80 0 137.5 -26t116.5 -80l-10 155v353h278v-1438h-227l-21 102h-8q-58 -57 -131 -92t-145 -35l2 -2q-190 0 -303 142t-113 389zM371 506q0 -151 51.5 -227t148.5 -76l-4 -4q107 0 183 100v434q-77 72 -179 72 q-86 0 -143 -78t-57 -221z" horiz-adv-x="1167" unicode="d"/><glyph d="M76 504q0 120 40 222t106.5 168.5t152 104t176.5 37.5q206 0 316 -133t110 -350q0 -77 -12 -127h-619q18 -116 91.5 -176t185.5 -60q108 0 225 68l92 -170q-76 -53 -169 -83t-185 -30l-2 -2q-108 0 -200.5 36.5t-161 103.5t-107.5 167.5t-39 223.5zM342 610l395 -2 q0 99 -45 156t-137 57q-80 0 -139.5 -55t-73.5 -156z" horiz-adv-x="1052" unicode="e"/><glyph d="M51 791l2 206l133 11v73q0 83 20 150t61.5 120t113 82t166.5 29q98 0 196 -35l-51 -206q-55 22 -106 22q-121 0 -121 -153v-80h188v-219h-188v-791h-279v791h-135z" horiz-adv-x="681" unicode="f"/><glyph d="M76 -172q0 125 143 207v8q-92 63 -92 170q0 54 31 104t80 84v9q-58 42 -97 111t-39 153q0 115 59 200t151.5 125.5t203.5 40.5q88 0 156 -24h366v-205h-170q43 -57 43 -145q0 -165 -111 -253.5t-284 -88.5q-58 0 -129 22q-41 -35 -41 -82q0 -41 36 -61.5t120 -20.5h170 q189 0 285 -62t96 -194q0 -158 -152.5 -260t-404.5 -102l2 4q-189 0 -305.5 65.5t-116.5 194.5zM307 -127q0 -61 63.5 -94t172.5 -33v2q107 0 177.5 39.5t70.5 97.5q0 50 -39 68t-123 18h-117q-88 0 -141 15q-64 -52 -64 -113zM367 676q0 -85 42 -132.5t109 -47.5 t109.5 47.5t42.5 132.5q0 84 -42.5 130t-109.5 46t-109 -46t-42 -130z" horiz-adv-x="1083" unicode="g"/><glyph d="M137 1440h279v-359l-13 -188q72 67 147.5 106t170.5 39q313 0 313 -405v-631h-278v594q0 113 -33 159t-105 46q-56 0 -97.5 -25t-102.5 -84v-692h-279z" horiz-adv-x="1161" unicode="h"/><glyph d="M115 1317q0 66 46.5 107.5t117.5 41.5t117 -41.5t46 -107.5q0 -64 -46 -106t-117 -42t-117.5 42t-46.5 106zM139 0v1012h279v-1012h-279z" horiz-adv-x="555" unicode="i"/><glyph d="M-100 -379l51 205q47 -14 82 -14q61 0 85.5 39.5t24.5 128.5v1032h279v-1026q0 -86 -18 -155t-56.5 -124.5t-108 -86t-165.5 -30.5l2 2q-102 0 -176 29zM121 1319q0 66 46.5 107.5t117.5 41.5t117.5 -41.5t46.5 -107.5q0 -64 -46.5 -106t-117.5 -42t-117.5 42t-46.5 106z" horiz-adv-x="559" unicode="j"/><glyph d="M139 0v1440h273v-850h8l340 424h303l-352 -416l383 -598h-303l-240 410l-139 -158v-252h-273z" horiz-adv-x="1103" unicode="k"/><glyph d="M139 297v1143h279v-1155q0 -43 15.5 -63.5t37.5 -20.5q21 0 37 4l33 -205q-55 -25 -142 -25q-139 0 -199.5 83t-60.5 239z" horiz-adv-x="575" unicode="l"/><glyph d="M139 0v1016h228l20 -133h8q73 74 146.5 115.5t163.5 41.5q201 0 278 -174q80 84 155 129t165 45q159 0 237 -105t78 -300v-631h-279v594q0 113 -32 159t-103 46q-83 0 -186 -109v-692h-279v594q0 113 -32 159t-103 46q-83 0 -186 -109v-692h-279z" horiz-adv-x="1744" unicode="m"/><glyph d="M137 1014h228l20 -131h8q159 155 328 155q313 0 313 -405v-631h-278v594q0 113 -33 159t-105 46q-56 0 -97.5 -25t-102.5 -84v-692h-279z" horiz-adv-x="1163" unicode="n"/><glyph d="M78 506q0 123 40.5 225t108 168.5t155 102.5t183.5 36t183.5 -36t155.5 -102.5t108.5 -168.5t40.5 -225q0 -122 -40.5 -224t-108.5 -168t-155.5 -102.5t-183.5 -36.5t-183.5 36.5t-155 102.5t-108 168t-40.5 224zM362 506q0 -140 53 -222.5t150 -82.5q98 0 150.5 82 t52.5 223t-52.5 223t-150.5 82q-97 0 -150 -82.5t-53 -222.5z" horiz-adv-x="1132" unicode="o"/><glyph d="M139 -385v1399h228l20 -103h8q145 127 295 127q184 0 289.5 -139.5t105.5 -376.5q0 -126 -35.5 -231t-95.5 -173t-137 -105.5t-160 -37.5q-127 0 -247 107l8 -164v-303h-279zM418 276q82 -71 174 -71q91 0 148 79.5t57 235.5q0 289 -191 289q-93 0 -188 -98v-435z" horiz-adv-x="1167" unicode="p"/><glyph d="M82 506q0 121 35.5 222.5t95 168.5t135.5 104t158 37t146 -30t126 -95h6l25 99h219v-1397h-278v317l10 160q-54 -53 -124 -85t-138 -32q-190 0 -303 142t-113 389zM369 506q0 -151 51.5 -227t148.5 -76l-4 -4q107 0 183 100v434q-77 72 -179 72q-86 0 -143 -78t-57 -221z" horiz-adv-x="1167" unicode="q"/><glyph d="M139 0v1014h228l20 -178h8q53 97 130 149.5t157 52.5q67 0 119 -20l-47 -242q-74 17 -107 17q-65 0 -127 -47.5t-102 -147.5v-598h-279z" horiz-adv-x="798" unicode="r"/><glyph d="M45 115l127 176q140 -109 266 -109q69 0 104.5 27.5t35.5 73.5q0 12 -3.5 23t-11.5 21t-15.5 18t-22.5 16.5t-25.5 14.5t-30.5 14.5t-31 13t-35 13.5t-34 13q-55 21 -97.5 44.5t-85.5 58.5t-66.5 84.5t-23.5 109.5q0 139 104.5 225t276.5 86q188 0 350 -127l-125 -168 q-120 88 -217 88q-63 0 -95 -24.5t-32 -67.5q0 -11 3 -21.5t11 -19.5t15.5 -16.5t21.5 -15t24.5 -13t29.5 -13t31 -12t34.5 -12t34.5 -12.5q47 -17 80.5 -32.5t73.5 -42.5t65 -56.5t42.5 -74.5t17.5 -99q0 -141 -108.5 -232.5t-301.5 -91.5q-99 0 -204 38.5t-183 101.5z" horiz-adv-x="899" unicode="s"/><glyph d="M35 791v208l155 13l33 270h232v-270h247v-219h-247v-433q0 -165 135 -165q40 0 98 20l45 -203q-123 -37 -217 -37l-2 -4q-177 0 -258.5 102t-81.5 283v435h-139z" horiz-adv-x="768" unicode="t"/><glyph d="M131 381v631h279v-594q0 -113 31.5 -159t103.5 -46q59 0 102 27.5t94 93.5v678h279v-1012h-227l-21 143h-8q-69 -82 -146 -125t-176 -43h2h-2q-311 0 -311 406z" horiz-adv-x="1155" unicode="u"/><glyph d="M23 1012h280l141 -494q46 -171 82 -309h9q61 234 81 309l142 494h268l-336 -1012h-321z" horiz-adv-x="1050" unicode="v"/><glyph d="M51 1010h279l106 -488q11 -58 27.5 -169.5t19.5 -127.5h9q37 203 61 297l119 488h246l120 -488q21 -83 64 -297h8q9 48 24.5 147.5t24.5 149.5l105 488h258l-246 -1012h-328l-102 428q-25 120 -58 297h-8q-28 -172 -55 -297l-98 -426h-320z" horiz-adv-x="1568" unicode="w"/><glyph d="M29 0l313 526l-295 486h299l98 -174q81 -153 91 -172h8q26 63 71 172l78 174h289l-295 -516l313 -496h-299l-106 178q-16 29 -49 88t-49 88h-9q-13 -29 -81 -176l-89 -178h-288z" horiz-adv-x="1028" unicode="x"/><glyph d="M25 1014h280l156 -457q20 -63 82 -287h8q13 47 37 143.5t37 143.5l133 457h266l-356 -1037q-36 -97 -74 -163t-88.5 -116.5t-117 -74.5t-152.5 -24l2 -2q-74 0 -142 20l49 213q54 -12 70 -12q136 0 186 147l17 58z" horiz-adv-x="1048" unicode="y"/><glyph d="M74 0v150l442 643h-393v219h741v-150l-442 -643h457v-219h-805z" horiz-adv-x="929" unicode="z"/><glyph d="M66 485v166q93 3 134.5 46.5t41.5 107.5t-10.5 173t-10.5 183q0 161 60.5 225t197.5 64h123v-150h-41q-68 0 -91.5 -30.5t-23.5 -118.5q0 -55 5.5 -165t5.5 -175q0 -111 -35.5 -165t-112.5 -73v-8q78 -19 113 -72.5t35 -164.5q0 -65 -5.5 -175t-5.5 -165q0 -88 24 -119 t91 -31h41v-149h-123v-2q-137 0 -197.5 64t-60.5 224q0 74 10.5 183.5t10.5 173.5q0 63 -41.5 106.5t-134.5 46.5z" horiz-adv-x="690" unicode="{"/><glyph d="M178 -512v2048h182v-2048h-182z" horiz-adv-x="538" unicode="|"/><glyph d="M90 -160h41q67 0 91 31t24 119q0 55 -4 165t-4 175q0 111 35 164.5t112 72.5v8q-77 19 -112 73t-35 165q0 65 4 175t4 165q0 88 -24 119t-91 31h-41v149h123q137 0 197.5 -64t60.5 -225q0 -74 -10 -183t-10 -173q0 -63 42 -107t134 -47v-166q-92 -3 -134 -46.5 t-42 -106.5q0 -64 10 -173.5t10 -183.5q0 -160 -60.5 -224t-197.5 -64h-123v151z" horiz-adv-x="690" unicode="}"/><glyph d="M61 645q131 207 299 207q46 0 89.5 -16.5t76.5 -39.5t63 -46t62.5 -39.5t63.5 -16.5q83 0 149 119l146 -111q-131 -204 -299 -204l-2 -2q-46 0 -89.5 16t-76.5 39t-63 46.5t-62.5 39.5t-63.5 16q-82 0 -147 -118z" unicode="~"/><glyph d="M168 856q0 75 49.5 126.5t122.5 51.5t122.5 -51.5t49.5 -126.5q0 -77 -49.5 -128.5t-122.5 -51.5t-122.5 51.5t-49.5 128.5zM201 -360l8 258l39 651h184l39 -651l8 -258h-278z" horiz-adv-x="679" unicode="¡"/><glyph d="M119 631q0 209 121 342.5t315 165.5v202h156v-194q156 -11 260 -115l-129 -172q-65 56 -131 62v-582q76 10 161 76l113 -176q-117 -105 -274 -125v-195h-156v199q-202 25 -319 159t-117 353zM393 631q0 -100 42 -170t120 -101v541q-79 -32 -120.5 -101.5t-41.5 -168.5z" unicode="¢"/><glyph d="M100 0v172q97 46 157 131.5t60 192.5q0 30 -6 65h-205v164l140 10h16q-37 125 -37 178q0 188 119.5 301t308.5 113q208 0 348 -166l-151 -151q-74 90 -170 90q-88 0 -137 -52.5t-49 -150.5q0 -60 26 -162h307v-174h-268q4 -46 4 -69q0 -76 -23 -133t-75 -115v-8h536v-236 h-901z" unicode="£"/><glyph d="M41 319l127 127q-70 95 -70 228t68 229l-125 127l141 141l142 -143q95 53 211 53q113 0 208 -53l142 143l141 -141l-127 -127q72 -98 72 -229q0 -130 -72 -228l129 -127l-141 -141l-144 144q-95 -56 -208 -56q-114 0 -209 56l-144 -144zM346 676q0 -95 54.5 -154 t134.5 -59t134 59t54 154t-54 154t-134 59t-134.5 -59t-54.5 -154z" unicode="¤"/><glyph d="M29 1300h286l113 -284q77 -198 107 -271h8q20 50 55.5 141t50.5 130l113 284h280l-307 -608h256v-137h-317v-115h317v-137h-317v-303h-279v303h-317v137h317v115h-317v137h256z" unicode="¥"/><glyph d="M178 422h182v-934h-182v934zM178 631v905h182v-905h-182z" horiz-adv-x="538" unicode="¦"/><glyph d="M80 674q0 77 45 146t121 116q-60 70 -60 168q0 135 95 220t260 85q198 0 358 -129l-129 -174q-112 98 -215 98q-119 0 -119 -88q0 -28 24 -53t63 -44.5t89 -42.5t102.5 -46t102.5 -57t89 -72.5t63 -95t24 -123.5q0 -166 -168 -271q52 -68 52 -159q0 -139 -101.5 -227.5 t-281.5 -88.5l-2 -4q-116 0 -221 44t-171 126l162 143q101 -104 230 -104q64 0 97.5 26.5t33.5 69.5q0 34 -30 63t-78 52t-105.5 47t-115.5 56.5t-106 73t-78 104t-30 141.5zM317 692q0 -39 21 -70t61.5 -56.5t81 -44t100 -45t97.5 -46.5q80 47 80 129q0 39 -20.5 71 t-61.5 58t-80.5 44.5t-101.5 45t-99 45.5q-78 -50 -78 -131z" unicode="§"/><glyph d="M209 1311q0 59 39 99t100 40q59 0 98 -40t39 -99t-39 -99.5t-98 -40.5q-61 0 -100 40.5t-39 99.5zM649 1311q0 59 39 99t98 40q61 0 100.5 -40t39.5 -99t-39.5 -99.5t-100.5 -40.5q-59 0 -98 40.5t-39 99.5z" horiz-adv-x="1132" unicode="¨"/><glyph d="M94 666q0 154 54.5 283t146.5 213.5t214 131.5t257 47t257 -47t214 -132t146.5 -214t54.5 -282q0 -154 -54.5 -284t-146.5 -217t-214 -135t-257 -48t-257 48t-214 135t-146.5 217t-54.5 284zM225 666q0 -125 42 -231.5t114.5 -179.5t172 -114t212.5 -41t212.5 41t172 114 t114.5 179.5t42 231.5t-42 230.5t-115 177t-172 111.5t-212 40t-212 -40t-172 -111.5t-115 -177t-42 -230.5zM397 666q0 116 56 207.5t145.5 138.5t192.5 47q86 0 149.5 -32t120.5 -89l-107 -119q-72 72 -145 72q-97 0 -152 -64t-55 -163q0 -109 53 -173.5t144 -64.5 q50 0 88 18.5t84 55.5l90 -131q-135 -109 -270 -109v2q-172 0 -283 110t-111 294z" horiz-adv-x="1533" unicode="©"/><glyph d="M59 961q0 107 92.5 166t294.5 79q-6 101 -104 101q-74 0 -188 -64l-70 131q148 88 293 88q131 0 200.5 -75t69.5 -222v-389h-160l-18 70h-8q-90 -86 -193 -86l-2 -2q-93 0 -150 58t-57 145zM250 977q0 -68 82 -68v2q53 0 114 58v123q-196 -21 -196 -115z" horiz-adv-x="729" unicode="ª"/><glyph d="M98 416v198l277 299l106 -86l-229 -311l229 -313l-106 -84zM473 414v198l277 299l106 -86l-229 -311l229 -313l-106 -84z" horiz-adv-x="966" unicode="«"/><glyph d="M70 578v198h931v-579h-206v381h-725z" unicode="¬"/><glyph d="M88 418v198h498v-198h-498z" horiz-adv-x="671" unicode="­"/><glyph d="M63 1053q0 179 117 296t285 117q170 0 286.5 -117t116.5 -296t-117 -296.5t-286 -117.5q-168 0 -285 117.5t-117 296.5zM170 1051q0 -141 82.5 -228.5t212.5 -87.5t213.5 87.5t83.5 228.5t-83.5 229t-213.5 88t-212.5 -87.5t-82.5 -229.5zM303 852v405h178 q75 0 120.5 -34t45.5 -101q0 -36 -19 -65.5t-53 -44.5l87 -160h-119l-64 127h-63v-127h-113zM416 1059h43q32 0 49.5 16.5t17.5 42.5q0 56 -65 56h-45v-115z" horiz-adv-x="931" unicode="®"/><glyph d="M268 1214v181h596v-181h-596z" horiz-adv-x="1132" unicode="¯"/><glyph d="M80 1112q0 126 83.5 207.5t205.5 81.5t205 -81.5t83 -207.5q0 -125 -83 -206t-205 -81t-205.5 81.5t-83.5 205.5zM229 1112q0 -67 39 -109t101 -42t100.5 42t38.5 109q0 69 -38.5 111.5t-100.5 42.5t-101 -42.5t-39 -111.5z" horiz-adv-x="735" unicode="°"/><glyph d="M70 0v199h931v-199h-931zM70 606v199h362v352h205v-352h362v-199h-362v-293h-205v293h-362z" unicode="±"/><glyph d="M61 1434q120 163 297 163q132 0 211.5 -71t79.5 -197q0 -48 -16 -94.5t-53.5 -98.5t-68.5 -88.5t-89 -99.5h258v-172h-586l2 111q187 156 272 247.5t85 161.5q0 63 -32.5 98.5t-90.5 35.5q-76 0 -152 -103z" horiz-adv-x="768" unicode="²"/><glyph d="M63 915l127 99q72 -103 175 -103q53 0 87.5 27.5t34.5 75.5q0 110 -200 110v119q79 0 124.5 27.5t45.5 79.5q0 43 -29.5 67.5t-79.5 24.5q-69 0 -135 -84l-119 104q65 70 132 102.5t157 32.5q113 0 192.5 -61t79.5 -160q0 -117 -118 -186q66 -25 107.5 -75t41.5 -118 q0 -108 -90 -176.5t-217 -68.5l6 4q-103 0 -186 41t-136 118z" horiz-adv-x="768" unicode="³"/><glyph d="M442 1307l310 368l190 -184l-362 -320z" horiz-adv-x="1132" unicode="´"/><glyph d="M135 1010h279v-594q0 -111 32 -158t103 -47q58 0 102.5 32.5t87.5 112.5v656h283q-2 -81 -7 -242t-8 -281.5t-3 -201.5q0 -86 88 -86q31 0 61 12l33 -205q-75 -33 -168 -33q-202 0 -248 172h-6q-82 -163 -225 -163q-95 0 -140 55q6 -224 23 -401h-283z" horiz-adv-x="1204" unicode="µ"/><glyph d="M82 883q0 99 26.5 177t72.5 129t112.5 84.5t141 47.5t163.5 14h90v-921h-80q-149 0 -266 51t-188.5 159t-71.5 259zM801 -164v1499h280v-1499h-280z" horiz-adv-x="1277" unicode="¶"/><glyph d="M127 655q0 77 49.5 129t122.5 52t122.5 -52t49.5 -129q0 -75 -49.5 -126.5t-122.5 -51.5t-122.5 51.5t-49.5 126.5z" horiz-adv-x="598" unicode="·"/><glyph d="M344 -371q120 7 165.5 28t45.5 64q0 35 -34 56.5t-122 32.5l99 196h164l-58 -133q79 -19 117.5 -55t38.5 -99q0 -191 -393 -204z" horiz-adv-x="1132" unicode="¸"/><glyph d="M160 1362v127q75 11 122.5 30.5t100.5 55.5h164v-799h-207v586h-180z" horiz-adv-x="768" unicode="¹"/><glyph d="M51 1110q0 161 96.5 256.5t233.5 95.5q136 0 232 -95.5t96 -256.5q0 -159 -96.5 -254.5t-231.5 -95.5q-137 0 -233.5 95t-96.5 255zM254 1110q0 -89 32 -140.5t95 -51.5t95 51.5t32 140.5q0 92 -32 144.5t-95 52.5t-95 -52.5t-32 -144.5z" horiz-adv-x="761" unicode="º"/><glyph d="M111 205l229 313l-229 311l104 86l277 -299v-198l-277 -299zM485 207l230 313l-230 311l105 87l276 -300v-198l-276 -299z" horiz-adv-x="966" unicode="»"/><glyph d="M100 1122v127q75 11 123 30.5t101 55.5h163v-798h-206v585h-181zM379 -25l725 1385h164l-725 -1385h-164zM952 184v103l297 512h254v-480h117v-135h-117v-184h-182v184h-369zM1145 319h176v95l10 237h-8l-86 -159z" horiz-adv-x="1646" unicode="¼"/><glyph d="M100 1122v127q75 11 123 30.5t101 55.5h163v-798h-206v585h-181zM344 -25l725 1385h164l-725 -1385h-164zM1012 657q121 164 297 164q132 0 211 -71t79 -197q0 -48 -16 -94.5t-53.5 -98.5t-68.5 -88.5t-89 -99.5h258v-172h-586l3 111q186 155 271 247t85 162 q0 63 -32.5 98t-90.5 35q-77 0 -152 -102z" horiz-adv-x="1718" unicode="½"/><glyph d="M57 676l127 98q71 -102 174 -102q53 0 88 27t35 75q0 111 -200 111v119q80 0 125 27t45 79q0 43 -29.5 67.5t-79.5 24.5q-69 0 -135 -84l-119 105q65 70 132 102.5t157 32.5q113 0 192.5 -61t79.5 -160q0 -118 -119 -187q66 -25 108 -74.5t42 -117.5q0 -108 -90.5 -177 t-216.5 -69l6 4q-102 0 -185.5 41.5t-136.5 118.5zM436 -20l725 1384h164l-725 -1384h-164zM979 188v103l297 512h254v-479h117v-136h-117v-184h-182v184h-369zM1171 324h177v94l10 237h-8l-86 -159z" horiz-adv-x="1667" unicode="¾"/><glyph d="M88 -37q0 45 11 84.5t36.5 78t44.5 62t56 64.5q31 35 46 53t38.5 51.5t33.5 59t16.5 61t2.5 72.5h243q4 -27 3.5 -54t-3 -49.5t-10.5 -47t-15 -42t-21 -41t-23.5 -37.5t-27 -36t-26.5 -33t-28 -33q-37 -42 -56.5 -66.5t-37 -60t-17.5 -67.5q0 -66 40 -104t108 -38 q98 0 194 99l156 -142q-165 -182 -383 -182l-2 2q-171 0 -275 88t-104 258zM322 860q0 75 49.5 126.5t122.5 51.5t122.5 -51.5t49.5 -126.5q0 -77 -49.5 -128.5t-122.5 -51.5t-122.5 51.5t-49.5 128.5z" horiz-adv-x="935" unicode="¿"/><glyph d="M-10 0l424 1337h331l426 -1335h-297l-88 332h-419l-91 -334h-286zM231 1642l150 181l340 -283l-123 -139zM424 553h303l-37 137q-23 79 -63.5 240.5t-48.5 191.5h-9q-69 -299 -108 -434z" horiz-adv-x="1163" unicode="À"/><glyph d="M-10 0l424 1337h331l426 -1335h-297l-88 332h-419l-91 -334h-286zM424 553h303l-37 137q-23 79 -63.5 240.5t-48.5 191.5h-9q-69 -299 -108 -434zM424 1540l340 283l149 -181l-364 -241z" horiz-adv-x="1163" unicode="Á"/><glyph d="M-10 0l424 1337h331l426 -1335h-297l-88 332h-419l-91 -334h-286zM233 1485l191 227h301l188 -227l-120 -76l-215 174h-9l-215 -174zM424 553h303l-37 137q-23 79 -63.5 240.5t-48.5 191.5h-9q-69 -299 -108 -434z" horiz-adv-x="1163" unicode="Â"/><glyph d="M-10 0l424 1337h331l426 -1335h-297l-88 332h-419l-91 -334h-286zM176 1456q7 143 74 215t176 72q41 0 78.5 -12.5t65 -30.5t52 -36.5t48 -31t43.5 -12.5q67 0 78 106l180 -12q-7 -144 -74 -216.5t-176 -72.5l2 2q-41 0 -78.5 12.5t-65 30.5t-52 36.5t-48 31t-43.5 12.5 q-69 0 -80 -106zM424 553h303l-37 137q-23 79 -63.5 240.5t-48.5 191.5h-9q-69 -299 -108 -434z" horiz-adv-x="1163" unicode="Ã"/><glyph d="M-10 0l424 1337h331l426 -1335h-297l-88 332h-419l-91 -334h-286zM211 1577q0 59 38.5 97t98.5 38t97.5 -38t37.5 -97t-38 -98t-97 -39q-60 0 -98.5 39t-38.5 98zM424 553h303l-37 137q-23 79 -63.5 240.5t-48.5 191.5h-9q-69 -299 -108 -434zM662 1577q0 59 37.5 97 t97.5 38t98.5 -38t38.5 -97t-38.5 -98t-98.5 -39q-59 0 -97 39t-38 98z" horiz-adv-x="1163" unicode="Ä"/><glyph d="M-10 0l424 1337h331l426 -1335h-297l-88 332h-419l-91 -334h-286zM346 1628q0 90 62.5 144.5t164.5 54.5q101 0 164.5 -54.5t63.5 -144.5t-63.5 -144t-164.5 -54q-102 0 -164.5 54t-62.5 144zM424 553h303l-37 137q-23 79 -63.5 240.5t-48.5 191.5h-9q-69 -299 -108 -434 zM485 1628q0 -42 25 -67t63 -25q37 0 63 25.5t26 66.5q0 42 -26 68t-63 26q-38 0 -63 -26t-25 -68z" horiz-adv-x="1163" unicode="Å"/><glyph d="M-20 0l647 1339h970v-233h-520v-295h439v-236h-439v-337h541v-236h-821v320h-375l-150 -322h-292zM526 541h271v585h-9q-94 -223 -172 -391z" horiz-adv-x="1722" unicode="Æ"/><glyph d="M94 662q0 161 50 294t136 220.5t199 135.5t240 48q121 0 222.5 -48t174.5 -124l-147 -180q-113 110 -242 110q-150 0 -246 -121.5t-96 -326.5q0 -212 91.5 -332.5t246.5 -120.5q148 0 270 129l148 -176q-140 -162 -350 -190l-48 -107q79 -19 117.5 -55t38.5 -99 q0 -191 -393 -204l-23 114q120 7 165.5 28t45.5 64q0 35 -34 56.5t-121 32.5l86 170q-113 14 -209 65t-168.5 135.5t-113 208t-40.5 273.5z" horiz-adv-x="1187" unicode="Ç"/><glyph d="M162 0v1337h825v-233h-547v-295h465v-236h-465v-337h568v-236h-846zM246 1642l149 181l340 -283l-123 -139z" horiz-adv-x="1114" unicode="È"/><glyph d="M162 0v1337h825v-233h-547v-295h465v-236h-465v-337h568v-236h-846zM440 1540l340 283l150 -181l-365 -241z" horiz-adv-x="1114" unicode="É"/><glyph d="M162 0v1337h825v-233h-547v-295h465v-236h-465v-337h568v-236h-846zM248 1485l190 227h301l189 -227l-121 -76l-215 174h-8l-215 -174z" horiz-adv-x="1114" unicode="Ê"/><glyph d="M162 0v1337h825v-233h-547v-295h465v-236h-465v-337h568v-236h-846zM227 1577q0 59 39 97t99 38t97.5 -38t37.5 -97t-38 -98t-97 -39q-60 0 -99 39t-39 98zM678 1577q0 59 37.5 97t97.5 38t98.5 -38t38.5 -97t-38.5 -98t-98.5 -39q-59 0 -97 39t-38 98z" horiz-adv-x="1114" unicode="Ë"/><glyph d="M-41 1640l150 181l340 -283l-123 -139zM162 0v1335h278v-1335h-278z" horiz-adv-x="604" unicode="Ì"/><glyph d="M152 1538l340 283l149 -181l-365 -241zM162 0v1335h278v-1335h-278z" horiz-adv-x="604" unicode="Í"/><glyph d="M-39 1483l191 227h301l188 -227l-121 -76l-215 174h-8l-215 -174zM162 0v1335h278v-1335h-278z" horiz-adv-x="604" unicode="Î"/><glyph d="M-61 1575q0 59 38.5 97t98.5 38t97.5 -38t37.5 -97t-38 -98t-97 -39q-60 0 -98.5 39t-38.5 98zM162 0v1335h278v-1335h-278zM389 1575q0 59 37.5 97t97.5 38t99 -38t39 -97t-39 -98t-99 -39q-59 0 -97 39t-38 98z" horiz-adv-x="604" unicode="Ï"/><glyph d="M57 625v127l154 10v577h371q316 0 490.5 -164.5t174.5 -496.5q0 -333 -173 -504.5t-476 -171.5h-385v623h-156zM489 229l74 -2q395 0 395 451q0 232 -102 334t-293 102h-74v-352h269v-137h-269v-396z" horiz-adv-x="1343" unicode="Ð"/><glyph d="M162 0v1337h287l370 -694l135 -291h9q-2 25 -13 137t-16.5 190t-5.5 148v508h266v-1335h-287l-372 696l-136 289h-8q3 -31 11.5 -110t13 -126t8.5 -114.5t4 -122.5v-512h-266zM283 1456q7 143 74 215t175 72q41 0 78.5 -12.5t65 -30.5t52 -36.5t48 -31t43.5 -12.5 q67 0 78 106l180 -12q-7 -144 -74 -216.5t-176 -72.5l2 2q-50 0 -96 19t-74.5 42.5t-60 42.5t-55.5 19q-69 0 -80 -106z" horiz-adv-x="1355" unicode="Ñ"/><glyph d="M96 674q0 321 164.5 503.5t435.5 182.5t436.5 -183.5t165.5 -502.5q0 -323 -165.5 -511t-436.5 -188q-270 0 -435 188t-165 511zM354 1640l150 181l340 -283l-123 -139zM381 674q0 -209 85 -333t230 -124t230.5 124t85.5 333q0 208 -85 326t-231 118t-230.5 -118 t-84.5 -326z" horiz-adv-x="1394" unicode="Ò"/><glyph d="M96 674q0 321 164.5 503.5t435.5 182.5t436.5 -183.5t165.5 -502.5q0 -323 -165.5 -511t-436.5 -188q-270 0 -435 188t-165 511zM381 674q0 -209 85 -333t230 -124t230.5 124t85.5 333q0 208 -85 326t-231 118t-230.5 -118t-84.5 -326zM547 1538l340 283l149 -181 l-364 -241z" horiz-adv-x="1394" unicode="Ó"/><glyph d="M96 674q0 321 164.5 503.5t435.5 182.5t436.5 -183.5t165.5 -502.5q0 -323 -165.5 -511t-436.5 -188q-270 0 -435 188t-165 511zM356 1483l191 227h301l188 -227l-121 -76l-215 174h-8l-215 -174zM381 674q0 -209 85 -333t230 -124t230.5 124t85.5 333q0 208 -85 326 t-231 118t-230.5 -118t-84.5 -326z" horiz-adv-x="1394" unicode="Ô"/><glyph d="M96 674q0 321 164.5 503.5t435.5 182.5t436.5 -183.5t165.5 -502.5q0 -323 -165.5 -511t-436.5 -188q-270 0 -435 188t-165 511zM299 1454q7 143 74 215t176 72q41 0 78.5 -12.5t65 -30.5t52 -36.5t48 -31t43.5 -12.5q66 0 77 106l181 -12q-7 -144 -74 -216.5t-176 -72.5 l2 2q-41 0 -78.5 12.5t-65 30.5t-52 36.5t-48 31t-43.5 12.5q-69 0 -80 -106zM381 674q0 -209 85 -333t230 -124t230.5 124t85.5 333q0 208 -85 326t-231 118t-230.5 -118t-84.5 -326z" horiz-adv-x="1394" unicode="Õ"/><glyph d="M96 674q0 321 164.5 503.5t435.5 182.5t436.5 -183.5t165.5 -502.5q0 -323 -165.5 -511t-436.5 -188q-270 0 -435 188t-165 511zM334 1575q0 59 38.5 97t98.5 38t97.5 -38t37.5 -97t-38 -98t-97 -39q-60 0 -98.5 39t-38.5 98zM381 674q0 -209 85 -333t230 -124t230.5 124 t85.5 333q0 208 -85 326t-231 118t-230.5 -118t-84.5 -326zM784 1575q0 59 38 97t98 38t98.5 -38t38.5 -97t-38.5 -98t-98.5 -39t-98 39t-38 98z" horiz-adv-x="1394" unicode="Ö"/><glyph d="M98 375l297 299l-297 299l142 141l297 -299l294 299l142 -141l-297 -299l297 -299l-142 -142l-294 302l-297 -302z" unicode="×"/><glyph d="M86 33l141 178q-127 186 -127 463q0 321 164.5 503.5t435.5 182.5q208 0 359 -111l133 168l145 -112l-151 -191q117 -179 117 -440q0 -323 -166 -511t-437 -188q-200 0 -342 103l-127 -160zM385 674q0 -121 33 -225l475 593q-79 76 -193 76q-146 0 -230.5 -118 t-84.5 -326zM522 283q75 -66 178 -66q145 0 230.5 124t85.5 333q0 107 -25 196z" horiz-adv-x="1394" unicode="Ø"/><glyph d="M156 608v729h278v-753q0 -196 62.5 -280.5t183.5 -84.5q123 0 186.5 84.5t63.5 280.5v753h270v-729q0 -327 -131.5 -480t-386.5 -153h-2h2q-258 0 -392 153.5t-134 479.5zM336 1640l149 181l340 -283l-123 -139z" horiz-adv-x="1353" unicode="Ù"/><glyph d="M156 608v729h278v-753q0 -196 62.5 -280.5t183.5 -84.5q123 0 186.5 84.5t63.5 280.5v753h270v-729q0 -327 -131.5 -480t-386.5 -153h-2h2q-258 0 -392 153.5t-134 479.5zM530 1538l340 283l150 -181l-365 -241z" horiz-adv-x="1353" unicode="Ú"/><glyph d="M156 608v729h278v-753q0 -196 62.5 -280.5t183.5 -84.5q123 0 186.5 84.5t63.5 280.5v753h270v-729q0 -327 -131.5 -480t-386.5 -153h-2h2q-258 0 -392 153.5t-134 479.5zM340 1483l190 227h301l189 -227l-121 -76l-215 174h-8l-215 -174z" horiz-adv-x="1353" unicode="Û"/><glyph d="M156 608v729h278v-753q0 -196 62.5 -280.5t183.5 -84.5q123 0 186.5 84.5t63.5 280.5v753h270v-729q0 -327 -131.5 -480t-386.5 -153h-2h2q-258 0 -392 153.5t-134 479.5zM317 1575q0 59 39 97t99 38t97.5 -38t37.5 -97t-38 -98t-97 -39q-60 0 -99 39t-39 98zM768 1575 q0 59 37.5 97t97.5 38t98.5 -38t38.5 -97t-38.5 -98t-98.5 -39q-59 0 -97 39t-38 98z" horiz-adv-x="1353" unicode="Ü"/><glyph d="M-12 1335h299l129 -319q24 -64 112 -295h9q13 35 53 136.5t61 158.5l127 319h293l-401 -852v-483h-281v483zM381 1538l340 283l149 -181l-364 -241z" horiz-adv-x="1058" unicode="Ý"/><glyph d="M162 0v1335h278v-205h195q90 0 165.5 -13t142 -44t112.5 -79t72 -121t26 -166q0 -113 -40.5 -200t-112 -140t-164 -80t-201.5 -27h-195v-260h-278zM440 483h178q261 0 261 224q0 107 -65 153.5t-198 46.5h-176v-424z" horiz-adv-x="1251" unicode="Þ"/><glyph d="M139 -2v1008q0 204 121.5 328t351.5 124q191 0 297.5 -97t106.5 -235q0 -55 -17 -102.5t-41 -81t-48 -63t-41 -60.5t-17 -61q0 -33 27.5 -62t68.5 -49t88.5 -50t88.5 -64t68.5 -93t27.5 -133q0 -144 -98 -238t-273 -94h2h-2q-150 0 -301 95l98 190q100 -78 197 -78 q57 0 90 32t33 79q0 34 -20.5 62t-53 49t-71.5 42t-78.5 45.5t-72 54t-53 74t-20.5 99.5q0 54 24 105t52 85t52 83.5t24 101.5q0 64 -36 103.5t-102 39.5q-96 0 -146 -69.5t-50 -196.5v-973h-277z" horiz-adv-x="1275" unicode="ß"/><glyph d="M86 279q0 162 137.5 251t440.5 121q-7 164 -166 164q-112 0 -273 -94l-100 184q215 133 426 133q194 0 294.5 -113.5t100.5 -338.5v-586h-227l-21 106h-8q-148 -131 -301 -131h-2q-134 0 -217.5 86.5t-83.5 217.5zM180 1495l191 184l309 -368l-137 -137zM354 301 q0 -54 33.5 -81t91.5 -27q52 0 94 23.5t93 72.5v194q-167 -22 -239.5 -68t-72.5 -114z" unicode="à"/><glyph d="M86 279q0 162 137.5 251t440.5 121q-7 164 -166 164q-112 0 -273 -94l-100 184q215 133 426 133q194 0 294.5 -113.5t100.5 -338.5v-586h-227l-21 106h-8q-148 -131 -301 -131h-2q-134 0 -217.5 86.5t-83.5 217.5zM354 301q0 -54 33.5 -81t91.5 -27q52 0 94 23.5t93 72.5 v194q-167 -22 -239.5 -68t-72.5 -114zM432 1309l309 368l191 -184l-363 -319z" unicode="á"/><glyph d="M86 279q0 162 137.5 251t440.5 121q-7 164 -166 164q-112 0 -273 -94l-100 184q215 133 426 133q194 0 294.5 -113.5t100.5 -338.5v-586h-227l-21 106h-8q-148 -131 -301 -131h-2q-134 0 -217.5 86.5t-83.5 217.5zM190 1251l224 273h282l224 -273l-107 -100l-254 197h-8 l-254 -197zM354 301q0 -54 33.5 -81t91.5 -27q52 0 94 23.5t93 72.5v194q-167 -22 -239.5 -68t-72.5 -114z" unicode="â"/><glyph d="M86 279q0 162 137.5 251t440.5 121q-7 164 -166 164q-112 0 -273 -94l-100 184q215 133 426 133q194 0 294.5 -113.5t100.5 -338.5v-586h-227l-21 106h-8q-148 -131 -301 -131h-2q-134 0 -217.5 86.5t-83.5 217.5zM174 1202q3 151 65.5 228t180.5 77q44 0 87 -21.5 t70 -47t57.5 -47t53.5 -21.5q64 0 76 121l176 -10q-3 -151 -65.5 -228t-178.5 -77h-2h2q-44 0 -87 21.5t-70 47t-57.5 47t-53.5 21.5q-66 0 -78 -121zM354 301q0 -54 33.5 -81t91.5 -27q52 0 94 23.5t93 72.5v194q-167 -22 -239.5 -68t-72.5 -114z" unicode="ã"/><glyph d="M86 279q0 162 137.5 251t440.5 121q-7 164 -166 164q-112 0 -273 -94l-100 184q215 133 426 133q194 0 294.5 -113.5t100.5 -338.5v-586h-227l-21 106h-8q-148 -131 -301 -131h-2q-134 0 -217.5 86.5t-83.5 217.5zM199 1311q0 59 39 99t100 40q59 0 98 -40t39 -99 t-39 -99.5t-98 -40.5q-61 0 -100 40.5t-39 99.5zM354 301q0 -54 33.5 -81t91.5 -27q52 0 94 23.5t93 72.5v194q-167 -22 -239.5 -68t-72.5 -114zM639 1311q0 59 39 99t98 40q61 0 100 -40t39 -99t-39 -99.5t-100 -40.5q-59 0 -98 40.5t-39 99.5z" unicode="ä"/><glyph d="M86 279q0 162 137.5 251t440.5 121q-7 164 -166 164q-112 0 -273 -94l-100 184q215 133 426 133q194 0 294.5 -113.5t100.5 -338.5v-586h-227l-21 106h-8q-148 -131 -301 -131h-2q-134 0 -217.5 86.5t-83.5 217.5zM295 1366q0 91 69.5 151t192.5 60t192.5 -60t69.5 -151 q0 -93 -69.5 -153t-192.5 -60t-192.5 60t-69.5 153zM354 301q0 -54 33.5 -81t91.5 -27q52 0 94 23.5t93 72.5v194q-167 -22 -239.5 -68t-72.5 -114zM465 1364q0 -46 26.5 -75t65.5 -29t65.5 29t26.5 75q0 45 -26.5 73.5t-65.5 28.5t-65.5 -28.5t-26.5 -73.5z" unicode="å"/><glyph d="M94 279q0 162 137 252t437 122q-7 164 -164 164q-110 0 -271 -94l-100 184q215 133 410 133q97 0 169.5 -42.5t114.5 -118.5q136 161 308 161q128 0 219.5 -64.5t135.5 -173.5t44 -251q0 -71 -12 -121h-596q15 -111 84 -171t170 -60q56 0 106 18t113 55l96 -182 q-76 -53 -168.5 -83t-183.5 -30q-203 0 -348 162q-106 -87 -199.5 -125.5t-194.5 -38.5h-6q-134 0 -217.5 86.5t-83.5 217.5zM362 301q0 -54 33 -81t92 -27h2q111 0 209 98q-23 63 -30 147l-2 43q-304 -43 -304 -180zM924 600h368q0 105 -42.5 165t-127.5 60 q-79 0 -132.5 -58t-65.5 -167z" horiz-adv-x="1609" unicode="æ"/><glyph d="M78 504q0 123 42.5 225t114.5 168.5t165.5 102.5t197.5 36q172 0 295 -110l-133 -181q-75 66 -148 66q-114 0 -182 -83.5t-68 -221.5q0 -136 68 -220.5t174 -84.5q97 0 191 80l110 -183q-105 -89 -248 -116l-47 -111q79 -19 117.5 -55t38.5 -99q0 -191 -393 -204l-23 114 q120 7 165.5 28t45.5 64q0 34 -33.5 55.5t-121.5 32.5l86 173q-185 27 -299.5 165.5t-114.5 358.5z" horiz-adv-x="954" unicode="ç"/><glyph d="M76 504q0 120 40 222t106.5 168.5t152 104t176.5 37.5q206 0 316 -133t110 -350q0 -77 -12 -127h-619q18 -116 91.5 -176t185.5 -60q108 0 225 68l92 -170q-76 -53 -169 -83t-185 -30l-2 -2q-108 0 -200.5 36.5t-161 103.5t-107.5 167.5t-39 223.5zM174 1491l191 184 l309 -368l-137 -138zM342 610l395 -2q0 99 -45 156t-137 57q-80 0 -139.5 -55t-73.5 -156z" horiz-adv-x="1052" unicode="è"/><glyph d="M76 504q0 120 40 222t106.5 168.5t152 104t176.5 37.5q206 0 316 -133t110 -350q0 -77 -12 -127h-619q18 -116 91.5 -176t185.5 -60q108 0 225 68l92 -170q-76 -53 -169 -83t-185 -30l-2 -2q-108 0 -200.5 36.5t-161 103.5t-107.5 167.5t-39 223.5zM342 610l395 -2 q0 99 -45 156t-137 57q-80 0 -139.5 -55t-73.5 -156zM424 1305l309 368l191 -184l-363 -320z" horiz-adv-x="1052" unicode="é"/><glyph d="M76 504q0 120 40 222t106.5 168.5t152 104t176.5 37.5q206 0 316 -133t110 -350q0 -77 -12 -127h-619q18 -116 91.5 -176t185.5 -60q108 0 225 68l92 -170q-76 -53 -169 -83t-185 -30l-2 -2q-108 0 -200.5 36.5t-161 103.5t-107.5 167.5t-39 223.5zM184 1247l224 273h282 l223 -273l-106 -100l-254 196h-8l-254 -196zM342 610l395 -2q0 99 -45 156t-137 57q-80 0 -139.5 -55t-73.5 -156z" horiz-adv-x="1052" unicode="ê"/><glyph d="M76 504q0 120 40 222t106.5 168.5t152 104t176.5 37.5q206 0 316 -133t110 -350q0 -77 -12 -127h-619q18 -116 91.5 -176t185.5 -60q108 0 225 68l92 -170q-76 -53 -169 -83t-185 -30l-2 -2q-108 0 -200.5 36.5t-161 103.5t-107.5 167.5t-39 223.5zM190 1307 q0 59 39.5 99t100.5 40q59 0 98 -40t39 -99t-39 -99.5t-98 -40.5q-61 0 -100.5 40.5t-39.5 99.5zM342 610l395 -2q0 99 -45 156t-137 57q-80 0 -139.5 -55t-73.5 -156zM631 1307q0 59 39 99t98 40q61 0 100 -40t39 -99t-39 -99.5t-100 -40.5q-59 0 -98 40.5t-39 99.5z" horiz-adv-x="1052" unicode="ë"/><glyph d="M-96 1493l190 184l309 -368l-137 -138zM139 0v1012h279v-1012h-279z" horiz-adv-x="555" unicode="ì"/><glyph d="M139 0v1012h279v-1012h-279zM154 1307l309 368l190 -184l-362 -320z" horiz-adv-x="555" unicode="í"/><glyph d="M-86 1249l223 273h283l223 -273l-106 -100l-254 197h-9l-254 -197zM139 0v1012h279v-1012h-279z" horiz-adv-x="555" unicode="î"/><glyph d="M-80 1311q0 59 39 99t100 40q60 0 99 -40t39 -99t-39.5 -99.5t-98.5 -40.5q-61 0 -100 40.5t-39 99.5zM139 0v1012h279v-1012h-279zM360 1311q0 59 39 99t99 40q61 0 100 -40t39 -99t-39 -99.5t-100 -40.5q-59 0 -98.5 40.5t-39.5 99.5z" horiz-adv-x="555" unicode="ï"/><glyph d="M86 465q0 106 34.5 195t92.5 147t132.5 90.5t156.5 32.5q147 0 229 -94q-52 164 -180 292l-293 -147l-74 123l244 125q-90 62 -192 114l122 170q170 -88 285 -178l289 148l74 -125l-248 -125q278 -278 278 -690q0 -251 -130.5 -409.5t-348.5 -158.5h-4 q-126 0 -231.5 58.5t-170.5 172t-65 259.5zM342 465q0 -122 64 -193t157 -71q97 0 153 84t56 243q0 35 -4 97q-85 98 -209 98q-99 0 -158 -67.5t-59 -190.5z" horiz-adv-x="1142" unicode="ð"/><glyph d="M137 1014h228l20 -131h8q159 155 328 155q313 0 313 -405v-631h-278v594q0 113 -33 159t-105 46q-56 0 -97.5 -25t-102.5 -84v-692h-279zM242 1204q3 152 65 228.5t180 76.5q44 0 87 -21.5t70.5 -47t58 -47t53.5 -21.5q63 0 75 121l177 -10q-3 -151 -65.5 -228 t-178.5 -77h-2h2q-44 0 -87 21.5t-70 47t-57.5 47t-53.5 21.5q-66 0 -78 -121z" horiz-adv-x="1163" unicode="ñ"/><glyph d="M78 506q0 123 40.5 225t108 168.5t155 102.5t183.5 36t183.5 -36t155.5 -102.5t108.5 -168.5t40.5 -225q0 -122 -40.5 -224t-108.5 -168t-155.5 -102.5t-183.5 -36.5t-183.5 36.5t-155 102.5t-108 168t-40.5 224zM190 1493l191 184l309 -368l-137 -138zM362 506 q0 -140 53 -222.5t150 -82.5q98 0 150.5 82t52.5 223t-52.5 223t-150.5 82q-97 0 -150 -82.5t-53 -222.5z" horiz-adv-x="1132" unicode="ò"/><glyph d="M78 506q0 123 40.5 225t108 168.5t155 102.5t183.5 36t183.5 -36t155.5 -102.5t108.5 -168.5t40.5 -225q0 -122 -40.5 -224t-108.5 -168t-155.5 -102.5t-183.5 -36.5t-183.5 36.5t-155 102.5t-108 168t-40.5 224zM362 506q0 -140 53 -222.5t150 -82.5q98 0 150.5 82 t52.5 223t-52.5 223t-150.5 82q-97 0 -150 -82.5t-53 -222.5zM440 1307l310 368l190 -184l-362 -320z" horiz-adv-x="1132" unicode="ó"/><glyph d="M78 506q0 123 40.5 225t108 168.5t155 102.5t183.5 36t183.5 -36t155.5 -102.5t108.5 -168.5t40.5 -225q0 -122 -40.5 -224t-108.5 -168t-155.5 -102.5t-183.5 -36.5t-183.5 36.5t-155 102.5t-108 168t-40.5 224zM201 1251l223 273h283l223 -273l-107 -100l-254 197h-8 l-254 -197zM362 506q0 -140 53 -222.5t150 -82.5q98 0 150.5 82t52.5 223t-52.5 223t-150.5 82q-97 0 -150 -82.5t-53 -222.5z" horiz-adv-x="1132" unicode="ô"/><glyph d="M78 506q0 123 40.5 225t108 168.5t155 102.5t183.5 36t183.5 -36t155.5 -102.5t108.5 -168.5t40.5 -225q0 -122 -40.5 -224t-108.5 -168t-155.5 -102.5t-183.5 -36.5t-183.5 36.5t-155 102.5t-108 168t-40.5 224zM182 1202q3 151 65.5 228t180.5 77q44 0 87 -21.5t70 -47 t57.5 -47t53.5 -21.5q64 0 76 121l176 -10q-3 -151 -65 -228t-178 -77h-3h3q-44 0 -87 21.5t-70.5 47t-58 47t-53.5 21.5q-66 0 -78 -121zM362 506q0 -140 53 -222.5t150 -82.5q98 0 150.5 82t52.5 223t-52.5 223t-150.5 82q-97 0 -150 -82.5t-53 -222.5z" horiz-adv-x="1132" unicode="õ"/><glyph d="M78 506q0 123 40.5 225t108 168.5t155 102.5t183.5 36t183.5 -36t155.5 -102.5t108.5 -168.5t40.5 -225q0 -122 -40.5 -224t-108.5 -168t-155.5 -102.5t-183.5 -36.5t-183.5 36.5t-155 102.5t-108 168t-40.5 224zM207 1311q0 59 39 99t100 40q59 0 98 -40t39 -99 t-39 -99.5t-98 -40.5q-61 0 -100 40.5t-39 99.5zM362 506q0 -140 53 -222.5t150 -82.5q98 0 150.5 82t52.5 223t-52.5 223t-150.5 82q-97 0 -150 -82.5t-53 -222.5zM647 1311q0 59 39 99t98 40q61 0 100.5 -40t39.5 -99t-39.5 -99.5t-100.5 -40.5q-59 0 -98 40.5t-39 99.5z" horiz-adv-x="1132" unicode="ö"/><glyph d="M70 578v198h931v-198h-931zM377 307q0 64 46 106t114 42q67 0 112 -42t45 -106q0 -65 -45 -107t-112 -42q-68 0 -114 42t-46 107zM377 1044q0 64 46 106t114 42q67 0 112 -42t45 -106q0 -65 -45 -107t-112 -42q-68 0 -114 42t-46 107z" unicode="÷"/><glyph d="M78 506q0 123 40.5 225t108 168.5t155 102.5t183.5 36q154 0 275 -86l90 113l106 -82l-98 -121q115 -148 115 -356q0 -122 -40.5 -224t-108.5 -168t-155.5 -102.5t-183.5 -36.5q-152 0 -276 86l-90 -112l-107 82l101 123q-115 141 -115 352zM346 520q0 -85 19 -153 l327 405q-53 47 -129 47q-98 0 -157.5 -82.5t-59.5 -216.5zM434 240q53 -47 131 -47l-2 -3q99 0 159 82.5t60 216.5q0 91 -18 158z" horiz-adv-x="1132" unicode="ø"/><glyph d="M131 381v631h279v-594q0 -113 31.5 -159t103.5 -46q59 0 102 27.5t94 93.5v678h279v-1012h-227l-21 143h-8q-69 -82 -146 -125t-176 -43h2h-2q-311 0 -311 406zM207 1493l190 184l310 -368l-138 -138z" horiz-adv-x="1155" unicode="ù"/><glyph d="M131 381v631h279v-594q0 -113 31.5 -159t103.5 -46q59 0 102 27.5t94 93.5v678h279v-1012h-227l-21 143h-8q-69 -82 -146 -125t-176 -43h2h-2q-311 0 -311 406zM459 1307l309 368l190 -184l-362 -320z" horiz-adv-x="1155" unicode="ú"/><glyph d="M131 381v631h279v-594q0 -113 31.5 -159t103.5 -46q59 0 102 27.5t94 93.5v678h279v-1012h-227l-21 143h-8q-69 -82 -146 -125t-176 -43h2h-2q-311 0 -311 406zM217 1251l223 273h283l223 -273l-106 -100l-254 197h-8l-254 -197z" horiz-adv-x="1155" unicode="û"/><glyph d="M131 381v631h279v-594q0 -113 31.5 -159t103.5 -46q59 0 102 27.5t94 93.5v678h279v-1012h-227l-21 143h-8q-69 -82 -146 -125t-176 -43h2h-2q-311 0 -311 406zM223 1311q0 59 39 99t100 40q60 0 99 -40t39 -99t-39.5 -99.5t-98.5 -40.5q-61 0 -100 40.5t-39 99.5z M664 1311q0 59 39 99t98 40q61 0 100 -40t39 -99t-39 -99.5t-100 -40.5q-59 0 -98 40.5t-39 99.5z" horiz-adv-x="1155" unicode="ü"/><glyph d="M25 1014h280l156 -457q20 -63 82 -287h8q13 47 37 143.5t37 143.5l133 457h266l-356 -1037q-36 -97 -74 -163t-88.5 -116.5t-117 -74.5t-152.5 -24l2 -2q-74 0 -142 20l49 213q54 -12 70 -12q136 0 186 147l17 58zM416 1307l309 368l190 -184l-362 -320z" horiz-adv-x="1048" unicode="ý"/><glyph d="M139 -385l2 1823h279v-359l-6 -147q126 104 260 104q192 0 301.5 -139.5t109.5 -376.5q0 -126 -35.5 -231t-95.5 -173t-137 -105.5t-160 -37.5q-125 0 -245 99l6 -154v-303h-279zM420 274q82 -71 174 -71q91 0 148 79.5t57 235.5q0 289 -191 289q-93 0 -188 -98v-435z" horiz-adv-x="1167" unicode="þ"/><glyph d="M25 1014h280l156 -457q20 -63 82 -287h8q13 47 37 143.5t37 143.5l133 457h266l-356 -1037q-36 -97 -74 -163t-88.5 -116.5t-117 -74.5t-152.5 -24l2 -2q-74 0 -142 20l49 213q54 -12 70 -12q136 0 186 147l17 58zM182 1309q0 59 39.5 99t100.5 40q59 0 98 -40t39 -99 t-39 -99.5t-98 -40.5q-61 0 -100.5 40.5t-39.5 99.5zM623 1309q0 59 39 99t98 40q61 0 100 -40t39 -99t-39 -99.5t-100 -40.5q-59 0 -98 40.5t-39 99.5z" horiz-adv-x="1048" unicode="ÿ"/><glyph d="M98 676q0 166 50 293.5t141 207.5t214 120t275 40h871v-233h-519v-295h437v-236h-437v-337h539v-236h-905q-146 0 -266.5 42.5t-210.5 124.5t-139.5 212t-49.5 297zM387 674q0 -449 410 -449h57v885h-57q-198 0 -304 -101.5t-106 -334.5z" horiz-adv-x="1775" unicode="Œ"/><glyph d="M74 506q0 123 38 225t103.5 168.5t151.5 102.5t182 36q105 0 190.5 -49.5t143.5 -140.5q62 91 147 140.5t180 49.5q193 0 298.5 -136t105.5 -353q0 -71 -12 -121h-601q15 -111 84.5 -171t171.5 -60q96 0 222 73l96 -182q-76 -53 -169 -83t-185 -30q-97 0 -185 50 t-149 141q-125 -191 -342 -191h-2q-96 0 -181 36.5t-149.5 102.5t-101.5 167.5t-37 224.5zM356 506q0 -139 52 -222t141 -83t141.5 83t52.5 222t-52.5 222t-141.5 83t-141 -83t-52 -222zM1001 598h371q0 105 -43.5 165t-128.5 60q-79 0 -133 -58t-66 -167z" horiz-adv-x="1689" unicode="œ"/><glyph d="M-12 1335h299l129 -319q24 -64 112 -295h9q13 35 53 136.5t61 158.5l127 319h293l-401 -852v-483h-281v483zM168 1575q0 59 38.5 97t98.5 38t97.5 -38t37.5 -97t-38 -98t-97 -39q-60 0 -98.5 39t-38.5 98zM618 1575q0 59 38 97t98 38t98.5 -38t38.5 -97t-38.5 -98 t-98.5 -39t-98 39t-38 98z" horiz-adv-x="1058" unicode="Ÿ"/><glyph d="M201 1251l223 273h283l223 -273l-107 -100l-254 197h-8l-254 -197z" horiz-adv-x="1132" unicode="ˆ"/><glyph d="M184 1202q3 151 65.5 228t180.5 77q44 0 87 -21.5t70 -47t57.5 -47t53.5 -21.5q64 0 76 121l176 -10q-3 -151 -65 -228t-178 -77h-2h2q-44 0 -87 21.5t-70.5 47t-58 47t-53.5 21.5q-66 0 -78 -121z" horiz-adv-x="1132" unicode="˜"/><glyph horiz-adv-x="913"/><glyph horiz-adv-x="1827"/><glyph horiz-adv-x="913"/><glyph horiz-adv-x="1827"/><glyph horiz-adv-x="609"/><glyph horiz-adv-x="456"/><glyph horiz-adv-x="304"/><glyph horiz-adv-x="304"/><glyph horiz-adv-x="228"/><glyph horiz-adv-x="365"/><glyph horiz-adv-x="101"/><glyph d="M88 418v198h498v-198h-498z" horiz-adv-x="671" unicode="‐"/><glyph d="M88 418v198h498v-198h-498z" horiz-adv-x="671" unicode="‑"/><glyph d="M88 418v198h498v-198h-498z" horiz-adv-x="671" unicode="‒"/><glyph d="M88 428v180h807v-180h-807z" horiz-adv-x="983" unicode="–"/><glyph d="M88 428v180h1462v-180h-1462z" horiz-adv-x="1638" unicode="—"/><glyph d="M111 977q0 286 278 426l64 -123q-93 -47 -137 -108t-44 -150q6 2 21 2q63 0 106 -38.5t43 -102.5q0 -71 -41 -114.5t-106 -43.5h-2q-89 0 -135.5 65.5t-46.5 186.5z" horiz-adv-x="598" unicode="‘"/><glyph d="M143 872q91 47 135 108t44 150q-6 -2 -19 -2q-63 0 -106 39t-43 103q0 73 41 116.5t106 43.5q88 0 135 -66.5t47 -187.5q0 -286 -278 -426z" horiz-adv-x="598" unicode="’"/><glyph d="M143 -215q91 47 135 108t44 150q-6 -2 -19 -2q-63 0 -106 38.5t-43 102.5q0 73 41 116.5t106 43.5q88 0 135 -66.5t47 -187.5q0 -286 -278 -426z" horiz-adv-x="598" unicode="‚"/><glyph d="M111 977q0 286 278 426l64 -123q-93 -47 -137 -108t-44 -150q6 2 21 2q63 0 106 -38.5t43 -102.5q0 -71 -41 -114.5t-106 -43.5h-2q-89 0 -135.5 65.5t-46.5 186.5zM573 977q0 285 279 426l63 -123q-93 -47 -136.5 -108t-43.5 -150q6 2 21 2q63 0 106 -38.5t43 -102.5 q0 -71 -41 -114.5t-106 -43.5h-2q-89 0 -136 65.5t-47 186.5z" horiz-adv-x="1060" unicode="“"/><glyph d="M143 872q91 47 135 108t44 150q-6 -2 -19 -2q-63 0 -106 39t-43 103q0 73 41 116.5t106 43.5q88 0 135 -66.5t47 -187.5q0 -286 -278 -426zM610 872q91 47 134.5 108t43.5 150q-6 -2 -18 -2q-63 0 -106 39t-43 103q0 73 41 116.5t106 43.5q88 0 135 -66.5t47 -187.5 q0 -286 -278 -426z" horiz-adv-x="1060" unicode="”"/><glyph d="M143 -215q91 47 135 108t44 150q-6 -2 -19 -2q-63 0 -106 38.5t-43 102.5q0 73 41 116.5t106 43.5q88 0 135 -66.5t47 -187.5q0 -286 -278 -426zM610 -215q91 47 134.5 108t43.5 150q-6 -2 -18 -2q-63 0 -106 38.5t-43 102.5q0 73 41 116.5t106 43.5q88 0 135 -66.5 t47 -187.5q0 -286 -278 -426z" horiz-adv-x="1060" unicode="„"/><glyph d="M82 539q0 119 76.5 198.5t187.5 79.5t187.5 -79.5t76.5 -198.5t-76.5 -199t-187.5 -80t-187.5 80t-76.5 199z" horiz-adv-x="692" unicode="•"/><glyph d="M164 154q0 77 49.5 128.5t122.5 51.5t122.5 -51.5t49.5 -128.5q0 -75 -49.5 -127t-122.5 -52t-122.5 52t-49.5 127zM844 154q0 77 49.5 128.5t122.5 51.5t122.5 -51.5t49.5 -128.5q0 -75 -49.5 -127t-122.5 -52t-122.5 52t-49.5 127zM1524 154q0 77 49.5 128.5 t122.5 51.5t122.5 -51.5t49.5 -128.5q0 -75 -49.5 -127t-122.5 -52t-122.5 52t-49.5 127z" horiz-adv-x="1992" unicode="…"/><glyph horiz-adv-x="365"/><glyph d="M98 416v198l277 299l106 -86l-229 -311l229 -313l-106 -84z" horiz-adv-x="589" unicode="‹"/><glyph d="M111 205l229 313l-229 311l104 86l277 -299v-198l-277 -299z" horiz-adv-x="589" unicode="›"/><glyph horiz-adv-x="456"/><glyph d="M41 446v132l115 10q-2 16 -2 53q0 39 2 57h-115v131l131 11q44 230 186.5 357.5t348.5 127.5q92 0 178 -42t151 -118l-155 -151q-91 94 -185 94t-156 -68.5t-89 -197.5h450v-144h-467v-47q0 -41 2 -61h383v-144h-364q26 -124 88.5 -190t154.5 -66q112 0 199 117l156 -143 q-153 -189 -369 -189l-2 -2q-194 0 -331 123.5t-181 349.5h-129z" unicode="€"/><glyph d="M6 1217v167h549v-167h-182v-476h-185v476h-182zM643 741v643h209l82 -208l47 -140h8l47 140l82 208h209v-643h-168v211l21 234h-9l-120 -348h-131l-121 348h-8l20 -234v-211h-168z" horiz-adv-x="1382" unicode="™"/><glyph d="M0 0v1014h1014v-1014h-1014z" horiz-adv-x="1013" unicode="◼"/><glyph d="M51 791l2 206l133 11v73q0 83 20 150t61.5 120t113 82t166.5 29q98 0 196 -35l-51 -206q-55 22 -106 22q-121 0 -121 -153v-80h188v-219h-188v-791h-279v791h-135zM834 1313q0 66 46 107.5t117 41.5t117.5 -41.5t46.5 -107.5q0 -64 -46.5 -106t-117.5 -42t-117 42 t-46 106zM858 -4v1012h279v-1012h-279z" horiz-adv-x="1273" unicode="ﬁ"/><glyph d="M51 791l2 206l133 11v73q0 83 20 150t61.5 120t113 82t166.5 29q98 0 196 -35l-51 -206q-55 22 -106 22q-121 0 -121 -153v-80h188v-219h-188v-791h-279v791h-135zM821 293v1143h279v-1155q0 -43 15.5 -63.5t37.5 -20.5q21 0 37 4l33 -205q-55 -25 -142 -25 q-139 0 -199.5 83t-60.5 239z" horiz-adv-x="1257" unicode="ﬂ"/><glyph d="M53 791v206l135 11v65q0 167 91.5 269t279.5 102q118 0 205 -37l-51 -205q-57 23 -121 23q-58 0 -92.5 -39t-34.5 -113v-63h360v71q0 83 20 150t61.5 120t113 82t166.5 29q98 0 196 -35l-51 -206q-55 22 -106 22q-121 0 -121 -153v-80h186v-219h-186v-791h-279v791h-360 v-791h-279l2 791h-135zM1434 1313q0 66 46 107.5t117 41.5t117.5 -41.5t46.5 -107.5q0 -64 -46.5 -106t-117.5 -42t-117 42t-46 106zM1458 -4v1012h279v-1012h-279z" horiz-adv-x="1873" unicode="ﬃ"/><glyph d="M53 791v206l135 11v65q0 167 91.5 269t279.5 102q118 0 205 -37l-51 -205q-57 23 -121 23q-58 0 -92.5 -39t-34.5 -113v-63h360v71q0 83 20 150t61.5 120t113 82t166.5 29q98 0 196 -35l-51 -206q-55 22 -106 22q-121 0 -121 -153v-80h186v-219h-186v-791h-279v791h-360 v-791h-279l2 791h-135zM1458 293v1143h279v-1155q0 -43 15.5 -63.5t37.5 -20.5q21 0 37 4l33 -205q-55 -25 -142 -25q-139 0 -199.5 83t-60.5 239z" horiz-adv-x="1892" unicode="ﬄ"/></font>
</defs>
</svg>
