<?xml version="1.0" standalone="no"?>
<!DOCTYPE svg PUBLIC "-//W3C//DTD SVG 1.1//EN" "http://www.w3.org/Graphics/SVG/1.1/DTD/svg11.dtd" >
<svg xmlns="http://www.w3.org/2000/svg" xmlns:xlink="http://www.w3.org/1999/xlink" version="1.1">
<metadata></metadata>
<defs>
<font id="madabold_italic" horiz-adv-x="1000" >
<font-face units-per-em="1000" ascent="800" descent="-200" />
<missing-glyph horiz-adv-x="200" />
<glyph unicode="ff" horiz-adv-x="644" d="M91 0l103 386h-66l27 101l68 5l8 32q22 82 80 131.5t150 49.5q59 0 95 -18l-52 -100q-24 11 -56 11q-28 0 -50 -19t-31 -55l-8 -31h175l9 35q22 84 78 135t147 51q50 0 92 -17l-52 -101q-24 11 -49 11q-59 0 -79 -75l-10 -39h91l-29 -107h-91l-104 -386h-136l104 386 h-175l-103 -386h-136z" />
<glyph unicode="ft" horiz-adv-x="672" d="M91 0l104 385h-67l27 102l68 5l10 36q22 84 78 135t147 51q50 0 92 -17l-52 -101q-24 11 -49 11q-59 0 -79 -75l-10 -39h162l52 132h112l-36 -132h121l-29 -107h-121l-56 -211q-21 -81 45 -81q21 0 51 10l-4 -99q-65 -18 -111 -18l-1 -2q-166 0 -116 188l57 212h-156 l-103 -385h-136z" />
<glyph unicode="fft" horiz-adv-x="983" d="M91 0l103 385h-67l27 102l69 5l8 32q22 82 80 131.5t150 49.5q59 0 95 -18l-52 -100q-24 11 -56 11q-28 0 -50 -19t-31 -55l-8 -31h175l9 35q22 84 78 135t147 51q50 0 92 -17l-52 -101q-24 11 -49 11q-59 0 -79 -75l-10 -39h162l52 132h112l-36 -132h121l-29 -107h-121 l-56 -211q-21 -81 45 -81q21 0 51 10l-4 -99q-65 -18 -111 -18l-1 -2q-166 0 -116 188l57 212h-156l-103 -385h-136l104 385h-175l-103 -385h-136z" />
<glyph unicode=" "  horiz-adv-x="200" />
<glyph unicode="&#x09;" horiz-adv-x="200" />
<glyph unicode="&#xa0;" horiz-adv-x="200" />
<glyph unicode="!" horiz-adv-x="332" d="M181 226l67 318l30 126h136l-39 -126l-104 -318h-90zM163 -12q-36 0 -53.5 25t-7.5 62t41 62.5t67 25.5t53 -25t7 -63q-10 -37 -40.5 -62t-66.5 -25z" />
<glyph unicode="&#x22;" horiz-adv-x="518" d="M206 367l25 194l29 126h138l-38 -126l-79 -194h-75zM432 367l25 194l29 126h138l-38 -126l-79 -194h-75z" />
<glyph unicode="#" horiz-adv-x="523" d="M86 0l74 190h-75l23 88h85l46 117h-80l23 88h91l66 168h79l-65 -168h108l66 168h79l-65 -168h79l-23 -88h-90l-46 -117h84l-23 -88h-94l-74 -190h-80l74 190h-108l-74 -190h-80zM274 278h108l46 117h-108z" />
<glyph unicode="$" horiz-adv-x="523" d="M186 -111l27 100q-103 12 -155 76l84 92q61 -61 129 -61q87 0 107 75q5 18 1 32.5t-19 28.5t-26.5 22t-36.5 23q-19 12 -27.5 17t-25.5 17.5t-25 21.5t-18.5 23.5t-13.5 29t-3.5 34t5.5 40.5q19 72 72 119.5t126 61.5l28 104h91l-27 -102q77 -11 127 -80l-90 -78 q-41 52 -97 52q-78 0 -97 -69q-6 -21 5.5 -38.5t26 -27.5t45.5 -27q19 -10 28.5 -16t27 -18t26 -21.5t19.5 -24.5t14.5 -30.5t3 -36.5t-6.5 -45q-19 -73 -73 -123.5t-133 -65.5l-28 -105h-91z" />
<glyph unicode="%" horiz-adv-x="852" d="M661 -12q-72 0 -101.5 55.5t-3.5 152.5q25 96 84 151t131 55q71 0 101 -55t5 -151q-26 -96 -85.5 -152t-130.5 -56zM185 250q-72 0 -101.5 55.5t-3.5 152.5q25 96 84 151t131 55q71 0 101 -55t5 -151q-26 -96 -85.5 -152t-130.5 -56zM207 -12l534 676h80l-534 -676h-80z M681 65q29 0 56 32t45 99q34 129 -30 129q-65 0 -99 -129q-36 -131 28 -131zM205 327q29 0 56 32t45 99q34 129 -30 129q-65 0 -99 -129q-36 -131 28 -131z" />
<glyph unicode="&#x26;" horiz-adv-x="658" d="M237 -12l-2 1q-100 0 -143 53t-22 132q16 62 60.5 105.5t110.5 79.5q-19 77 -3 138q19 70 80.5 118.5t138.5 48.5q71 0 102.5 -39.5t14.5 -104.5q-8 -31 -26.5 -58.5t-47.5 -51.5t-54.5 -40.5t-62.5 -37.5q38 -69 104 -130q74 72 122 163h124q-70 -122 -170 -222 q55 -36 101 -45l-62 -110q-75 17 -145 67q-106 -67 -220 -67zM380 122q-64 67 -103 145q-61 -41 -73 -86q-11 -40 11 -64.5t67 -24.5q44 0 98 30zM350 414q50 26 79 50.5t37 56.5q15 54 -34 54q-27 0 -50.5 -21t-32.5 -56q-10 -37 1 -84z" />
<glyph unicode="'" horiz-adv-x="292" d="M206 367l25 194l29 126h138l-38 -126l-79 -194h-75z" />
<glyph unicode="(" horiz-adv-x="337" d="M158 -178l1 2q-74 215 -10 456q66 243 254 456l76 -36q-158 -189 -221 -421q-62 -236 -5 -421z" />
<glyph unicode=")" horiz-adv-x="337" d="M84 -178l-77 34q159 190 220 421q64 235 6 421l95 36q75 -216 9 -456q-65 -243 -253 -456z" />
<glyph unicode="*" horiz-adv-x="450" d="M243 361l-47 42l86 102l-93 47l41 68l106 -24l43 116h72l-19 -117l121 25l3 -68l-119 -47l32 -102l-69 -42l-55 89z" />
<glyph unicode="+" horiz-adv-x="523" d="M237 96l50 186h-177l27 97h177l50 186h100l-50 -186h177l-27 -97h-177l-50 -186h-100z" />
<glyph unicode="," horiz-adv-x="292" d="M23 -190l-10 74q57 19 93.5 50.5t47.5 70.5h-9q-35 0 -53.5 21t-8.5 58q10 35 41 57.5t68 22.5q46 0 62 -35.5t-1 -97.5q-21 -79 -81 -137t-149 -84z" />
<glyph unicode="-" horiz-adv-x="328" d="M98 204l26 97h243l-26 -97h-243z" />
<glyph unicode="." horiz-adv-x="292" d="M143 -12q-36 0 -53.5 25t-7.5 62t41 62.5t67 25.5t53 -25t7 -63q-10 -37 -40.5 -62t-66.5 -25z" />
<glyph unicode="/" horiz-adv-x="340" d="M-31 -160l445 870h90l-445 -870h-90z" />
<glyph unicode="0" horiz-adv-x="523" d="M259 -12q-103 0 -139.5 85.5t5.5 247.5q43 159 125 243t186 84t140.5 -83t-4.5 -244q-43 -159 -126.5 -246t-186.5 -87zM287 94q95 0 156 227q23 84 23.5 135t-14.5 69t-44 18q-45 0 -83 -49.5t-71 -172.5q-61 -227 33 -227z" />
<glyph unicode="1" horiz-adv-x="523" d="M71 0l29 111h140l103 385h-118l22 85q94 16 169 55h101l-141 -526h121l-29 -110h-397z" />
<glyph unicode="2" horiz-adv-x="523" d="M38 0l18 78q78 60 119 91.5t95 76.5t81.5 73.5t51 61t30.5 59.5q13 47 -5 73.5t-63 26.5q-54 0 -134 -67l-54 74q62 51 117 75.5t120 24.5q93 0 135.5 -54.5t18.5 -145.5q-20 -74 -96.5 -154t-208.5 -186q70 8 109 8h138l-31 -115h-441z" />
<glyph unicode="3" horiz-adv-x="523" d="M239 -12l1 -1q-141 0 -196 90l87 86q51 -67 126 -67q49 0 84 22t45 60q13 48 -19 72t-132 24l26 97q156 0 180 91q10 36 -7 56t-57 20q-58 0 -137 -58l-47 83q115 82 219 82q98 0 143.5 -45.5t24.5 -126.5q-26 -98 -146 -142l-1 -4q54 -16 78.5 -55.5t8.5 -99.5 q-23 -85 -103 -134.5t-178 -49.5z" />
<glyph unicode="4" horiz-adv-x="523" d="M296 0l42 156h-277l25 94l342 386h165l-101 -376h77l-28 -104h-76l-42 -156h-127zM366 260l32 118q5 18 42 138h-4q-27 -37 -80 -104l-135 -152h145z" />
<glyph unicode="5" horiz-adv-x="523" d="M242 -12v1q-133 0 -198 89l85 86q51 -66 124 -66q51 0 89 28t52 79q13 50 -8.5 78t-69.5 28q-44 0 -105 -33l-51 40l103 318h353l-31 -115h-236l-46 -131q41 16 79 16q88 0 132 -50.5t18 -147.5q-27 -101 -110.5 -160.5t-179.5 -59.5z" />
<glyph unicode="6" horiz-adv-x="523" d="M276 -12l-1 -2q-101 0 -148 79.5t-5 234.5q46 170 143 258t204 88q108 0 161 -75l-95 -82q-12 20 -35.5 33.5t-51.5 13.5q-130 0 -194 -211q34 32 76 51t75 19q85 0 123 -49.5t12 -146.5q-26 -95 -101.5 -153t-162.5 -58zM232 231q-20 -142 68 -142q37 0 69 28t46 81 q13 51 -4.5 75.5t-58.5 24.5q-59 0 -120 -67z" />
<glyph unicode="7" horiz-adv-x="523" d="M299 0h-138q54 167 122 282.5t190 238.5h-290l31 115h437l-23 -84q-139 -128 -202.5 -240t-126.5 -312z" />
<glyph unicode="8" horiz-adv-x="523" d="M258 -12q-94 0 -143 49t-29 126q27 100 154 159l1 4q-69 64 -46 148q21 78 89.5 125.5t156.5 47.5q86 0 125.5 -47.5t18.5 -125.5q-23 -84 -123 -141l-1 -4q94 -61 65 -166q-20 -75 -95 -125t-173 -50zM288 81q40 0 71.5 22t42.5 62q3 11 3.5 20.5t-3 17.5t-7.5 15 t-13 14t-16 12t-20 12t-22 11t-25 12l-6 3q-68 -47 -84 -107q-12 -42 11 -68t68 -26zM400 366l1 -2q57 49 71 100q11 39 -5 63.5t-55 24.5q-33 0 -60 -20.5t-37 -57.5q-10 -39 12 -62t73 -46z" />
<glyph unicode="9" horiz-adv-x="523" d="M222 -12l-3 3q-107 0 -161 74l95 82q12 -20 35.5 -33.5t51.5 -13.5q131 0 195 210q-34 -32 -75.5 -50.5t-73.5 -18.5q-85 0 -123 49.5t-12 146.5q26 95 101.5 153t162.5 58q101 0 148.5 -79.5t5.5 -234.5q-46 -170 -143 -258t-204 -88zM456 404q22 143 -67 143 q-37 0 -68.5 -28t-45.5 -81q-13 -51 4 -75.5t59 -24.5q59 0 118 66z" />
<glyph unicode=":" horiz-adv-x="292" d="M143 -12q-36 0 -53.5 25t-7.5 62t41 62.5t67 25.5t53 -25t7 -63q-10 -37 -40.5 -62t-66.5 -25zM143 318q-36 0 -53.5 25t-7.5 62t41 62.5t67 25.5t53 -25t7 -63q-10 -37 -40.5 -62t-66.5 -25z" />
<glyph unicode=";" horiz-adv-x="292" d="M23 -191l-10 74q57 19 93.5 50.5t47.5 70.5h-9q-35 0 -53.5 21t-8.5 58q10 35 41 57.5t68 22.5q46 0 62 -35.5t-1 -97.5q-21 -79 -81 -137t-149 -84zM143 318q-36 0 -53.5 25t-7.5 62t41 62.5t67 25.5t53 -25t7 -63q-10 -37 -40.5 -62t-66.5 -25z" />
<glyph unicode="&#x3c;" horiz-adv-x="523" d="M518 109l-408 175l26 96l502 175l-30 -112l-198 -61l-149 -48l-1 -4l123 -48l165 -61z" />
<glyph unicode="=" horiz-adv-x="523" d="M109 167l27 97h455l-27 -97h-455zM109 396l27 97h455l-27 -97h-455z" />
<glyph unicode="&#x3e;" horiz-adv-x="523" d="M63 109l30 112l198 61l148 48l1 4l-122 48l-165 61l30 112l408 -175l-26 -96z" />
<glyph unicode="?" horiz-adv-x="457" d="M217 226q6 47 36.5 90t63.5 69.5t64.5 58.5t38.5 58q9 32 -6 50.5t-48 18.5q-48 0 -109 -49l-57 69q102 90 211 90q83 0 122.5 -43t17.5 -126q-9 -34 -33 -65t-52 -55l-56 -48t-49 -54t-27 -64h-117zM214 -13q-36 0 -53.5 25t-7.5 62q10 38 40.5 63t66.5 25t53 -25t7 -63 q-10 -37 -40.5 -62t-65.5 -25zM215 226h2v-1zM213 -13h1h-1z" />
<glyph unicode="@" horiz-adv-x="893" d="M378 -169v2q-103 0 -175 41t-103 124t3 209q36 135 125.5 241.5t206 163t237.5 56.5q159 0 228.5 -97.5t27.5 -254.5q-34 -127 -122 -200.5t-173 -73.5q-44 0 -69.5 20t-24.5 56h-2q-29 -30 -68 -48.5t-71 -18.5q-58 0 -83 40.5t-6 108.5q25 93 103 168t162 75 q53 0 64 -49h2l25 41h84l-103 -217q-47 -92 22 -92q48 0 99 52t73 133q17 55 12 104t-26 86.5t-69.5 59.5t-118.5 22q-135 0 -266 -105t-175 -269q-38 -141 25 -217.5t189 -76.5q79 0 164 39l11 -75q-100 -48 -208 -48zM450 137l1 1q33 0 83 47l62 139q-10 31 -42 31 q-44 0 -85.5 -47.5t-54.5 -99.5q-19 -71 36 -71z" />
<glyph unicode="A" horiz-adv-x="568" d="M-5 0l385 653h162l33 -652h-145v162h-207l-88 -163h-140zM280 270h150v67q-2 55 0 172q1 13 1 39h-4q-87 -169 -111 -212z" />
<glyph unicode="B" horiz-adv-x="602" d="M79 0l175 654h218q111 0 164.5 -37t30.5 -124q-12 -47 -46.5 -87t-78.5 -55l-1 -4q51 -14 73.5 -53t5.5 -102q-25 -95 -108.5 -143.5t-196.5 -48.5h-236zM244 107h88q132 0 157 95q13 45 -14.5 66t-93.5 21h-88zM320 390h73q112 0 135 83q11 40 -11 57.5t-79 17.5h-75z " />
<glyph unicode="C" horiz-adv-x="580" d="M345 -12q-130 0 -191.5 88.5t-18.5 246.5q41 156 153.5 248.5t241.5 92.5q115 0 171 -84l-95 -88q-42 54 -104 54q-73 0 -136.5 -59.5t-90.5 -159.5q-28 -103 1 -162t105 -59q73 0 148 63l50 -86q-109 -95 -234 -95z" />
<glyph unicode="D" horiz-adv-x="631" d="M79 0l174 653h181q154 0 218 -80.5t21 -242.5q-44 -163 -151 -246.5t-255 -83.5h-188zM244 111l35 -1q193 0 253 220q30 113 -6.5 163t-129.5 50h-36z" />
<glyph unicode="E" horiz-adv-x="544" d="M79 0l174 653h403l-30 -114h-267l-39 -144h227l-30 -115h-227l-44 -165h277l-31 -115h-413z" />
<glyph unicode="F" horiz-adv-x="519" d="M79 0l173 651h406l-30 -114h-269l-44 -163h230l-30 -114h-230l-70 -260h-136z" />
<glyph unicode="G" horiz-adv-x="634" d="M359 -12l-2 1q-139 0 -203.5 88t-21.5 247q42 157 156.5 249t249.5 92q122 0 181 -84l-95 -88q-44 53 -113 53q-80 0 -146 -59t-93 -160q-28 -106 4.5 -163.5t125.5 -57.5q50 0 85 22l33 122h-113l29 112h235l-79 -296q-44 -35 -106 -56.5t-127 -21.5z" />
<glyph unicode="H" horiz-adv-x="670" d="M79 0l175 652h136l-69 -255h238l69 255h137l-175 -652h-137l75 278h-238l-75 -278h-136z" />
<glyph unicode="I" horiz-adv-x="295" d="M79 0l175 652h136l-175 -652h-136z" />
<glyph unicode="J" horiz-adv-x="504" d="M221 -12l-3 2q-141 0 -175 115l112 69q19 -67 77 -67q44 0 72.5 27t45.5 91l115 428h137l-117 -440q-26 -99 -94.5 -162t-169.5 -63z" />
<glyph unicode="K" horiz-adv-x="608" d="M79 0l174 652h136l-74 -277h4l282 277h150l-268 -258l129 -394h-150l-88 286l-111 -106l-48 -180h-136z" />
<glyph unicode="L" horiz-adv-x="512" d="M79 0l176 653h136l-144 -538h262l-31 -115h-399z" />
<glyph unicode="M" horiz-adv-x="756" d="M79 0l175 652h150l29 -300q1 -18 2 -38.5t2 -46t2 -39.5h4q13 22 36.5 63.5t34.5 60.5l186 300h151l-175 -652h-125l69 260q16 60 77 217h-4l-94 -153l-169 -265h-77l-26 265l-11 153h-4q-32 -179 -42 -217l-69 -260h-122z" />
<glyph unicode="N" horiz-adv-x="662" d="M79 0l175 653h140l90 -339l28 -142h4q3 16 9 53t10.5 61t11.5 57.5t14 60.5l66 248h130l-175 -652h-140l-90 340l-28 141h-4q-30 -178 -44 -231l-67 -250h-130z" />
<glyph unicode="O" horiz-adv-x="681" d="M337 -12q-132 0 -188 91.5t-14 249.5q42 157 146 246t237 89t189.5 -89.5t14.5 -245.5q-42 -158 -147.5 -249.5t-237.5 -91.5zM368 106q70 0 128 60.5t86 162.5q27 102 1 159.5t-97 57.5t-127.5 -58t-83.5 -159q-28 -102 -2.5 -162.5t95.5 -60.5z" />
<glyph unicode="P" horiz-adv-x="591" d="M79 0l174 653h218q118 0 174.5 -48.5t26.5 -158.5q-29 -108 -114.5 -163t-196.5 -55h-85l-61 -228h-136zM305 337h77q127 0 156 109q15 53 -11.5 76t-93.5 23h-72z" />
<glyph unicode="Q" horiz-adv-x="681" d="M504 -178q-98 0 -156.5 47t-71.5 125q-101 21 -139.5 109.5t-1.5 225.5q42 157 146 246t237 89t189.5 -89.5t14.5 -245.5q-35 -131 -115.5 -217.5t-185.5 -113.5q25 -66 129 -66q36 0 74 11l-2 -100q-47 -21 -118 -21zM366 100q71 0 129 61.5t86 168.5q27 102 1 159.5 t-97 57.5t-127.5 -58t-83.5 -159q-28 -108 -3.5 -169t95.5 -61z" />
<glyph unicode="R" horiz-adv-x="606" d="M79 0l174 654h230q248 0 194 -200q-37 -139 -172 -189l79 -263h-153l-65 240h-87l-64 -242h-136zM308 352h80q127 0 154 103q14 49 -11.5 70t-89.5 21h-81z" />
<glyph unicode="S" horiz-adv-x="552" d="M273 -12l-1 4q-65 0 -121.5 24.5t-92.5 69.5l103 94q59 -71 144 -71q99 0 119 70q8 29 -8 44.5t-59 35.5l-6 3l-76 37q-117 53 -85 176q22 81 101 136t178 55q123 0 185 -85l-93 -86q-53 53 -124 53q-41 0 -69.5 -17t-36.5 -48q-6 -20 4 -35.5t24.5 -23.5t44.5 -21l6 -3 l75 -35q116 -52 83 -177q-23 -84 -104 -142t-191 -58z" />
<glyph unicode="T" horiz-adv-x="553" d="M208 0l143 538h-182l30 114h502l-30 -114h-182l-144 -538h-137z" />
<glyph unicode="U" horiz-adv-x="661" d="M329 -12q-256 0 -174 309l95 356h136l-99 -368q-23 -100 -5 -139t77 -39q60 0 102.5 41t67.5 137l99 368h132l-95 -356q-82 -309 -336 -309z" />
<glyph unicode="V" horiz-adv-x="549" d="M193 0l-25 652h145l-1 -312q1 -37 -1 -105q-1 -35 -1 -106h4q22 41 59 111.5t52 99.5l165 312h140l-373 -652h-164z" />
<glyph unicode="W" horiz-adv-x="809" d="M139 0l50 652h140l-35 -313q-3 -23 -8.5 -65t-10 -76.5t-8.5 -65.5h4q11 23 30.5 65.5t35.5 77t30 64.5l158 313h117l-10 -313q-2 -40 -8 -119t-7 -89h4q56 140 84 208l133 313h130l-294 -652h-171l14 313q5 86 13 150h-4q-58 -129 -68 -150l-151 -313h-168z" />
<glyph unicode="X" horiz-adv-x="558" d="M12 0l272 337l-86 316h152l27 -131q4 -17 11 -53.5t9 -48.5h4q30 46 71 102l92 131h146l-258 -323l94 -330h-152l-32 140q-13 61 -21 107h-4q-36 -54 -75 -107l-104 -140h-146z" />
<glyph unicode="Y" horiz-adv-x="517" d="M190 0l64 236l-85 416h146l21 -156q2 -23 7.5 -70.5t8.5 -73.5h4q94 143 95 144l104 156h143l-308 -416l-63 -236h-137z" />
<glyph unicode="Z" horiz-adv-x="541" d="M37 0l24 83l420 456h-270l30 114h438l-22 -82l-420 -456h300l-31 -115h-469z" />
<glyph unicode="[" horiz-adv-x="337" d="M47 -152l232 860h206l-20 -73h-104l-192 -714h104l-20 -73h-206z" />
<glyph unicode="\" horiz-adv-x="340" d="M195 -160l21 870h90l-21 -870h-90z" />
<glyph unicode="]" horiz-adv-x="337" d="M3 -152l19 73h104l192 714h-104l20 73h206l-231 -860h-206z" />
<glyph unicode="^" horiz-adv-x="523" d="M125 276l261 394h111l48 -394h-113l-12 136l-10 135h-4l-82 -135l-86 -136h-113z" />
<glyph unicode="_" horiz-adv-x="500" d="M-25 -138l21 78h476l-21 -78h-476z" />
<glyph unicode="`" horiz-adv-x="553" d="M423 572l-135 157l116 90l104 -180z" />
<glyph unicode="a" horiz-adv-x="523" d="M187 -12q-66 0 -95.5 42t-11.5 106q21 79 100 122.5t231 59.5q16 80 -61 80q-54 0 -146 -46l-24 90q121 65 225 65q193 0 134 -221l-76 -286h-111l4 52h-4q-92 -64 -165 -64zM260 94q43 0 103 47l25 95q-158 -20 -176 -89q-13 -53 48 -53z" />
<glyph unicode="b" horiz-adv-x="569" d="M317 -12l1 1q-70 0 -114 64h-4l-25 -52h-107l188 702h136l-47 -175l-24 -78q78 57 150 57q90 0 123.5 -68t2.5 -183q-32 -122 -113 -195t-167 -73zM317 101h1q44 0 82.5 39t58.5 115q38 141 -55 141q-46 0 -106 -48l-57 -212q30 -35 76 -35z" />
<glyph unicode="c" horiz-adv-x="466" d="M277 -12l-2 -1q-106 0 -155.5 69.5t-17.5 189.5q32 119 124.5 189.5t198.5 70.5q84 0 131 -54l-88 -88q-29 32 -64 32q-55 0 -99.5 -40.5t-62.5 -108.5q-18 -67 4 -108t74 -41q47 0 104 39l30 -89q-83 -60 -177 -60z" />
<glyph unicode="d" horiz-adv-x="570" d="M240 -12l1 -1q-93 0 -129.5 69t-4.5 190q31 117 111.5 188.5t164.5 71.5q68 0 110 -52l15 76l46 172h136l-188 -702h-111l3 50h-4q-80 -62 -150 -62zM305 99v-2q51 0 101 49l57 212q-28 35 -78 35q-42 0 -80.5 -38t-57.5 -108q-40 -148 58 -148z" />
<glyph unicode="e" horiz-adv-x="514" d="M283 -12l1 -1q-108 0 -159.5 70t-19.5 189q31 116 119.5 188t181.5 72q100 0 136.5 -65t7.5 -171q-8 -35 -22 -62h-302q-7 -57 20.5 -86t82.5 -29q53 0 119 33l22 -83q-94 -55 -187 -55zM250 298l194 -1q27 104 -62 104q-39 0 -75.5 -27t-56.5 -76z" />
<glyph unicode="f" horiz-adv-x="333" d="M91 0l104 386h-66l28 101l66 5l10 36q22 84 78 135t147 51q50 0 92 -17l-52 -101q-24 11 -49 11q-59 0 -79 -75l-10 -39h92l-29 -107h-92l-104 -386h-136z" />
<glyph unicode="g" horiz-adv-x="529" d="M185 -213v2q-92 0 -140.5 32t-32.5 95q16 61 98 101l1 4q-37 30 -23 83q15 54 80 92l1 4q-52 48 -31 129q23 84 94.5 131.5t155.5 47.5q43 0 73 -12h179l-27 -100h-83q13 -29 2 -71q-22 -81 -87.5 -124t-150.5 -43q-28 0 -59 11q-25 -17 -32 -40q-5 -20 10 -30t56 -10h83 q92 0 131 -30t22 -95q-21 -77 -109 -127t-211 -50zM229 -124l1 1q53 0 92 19.5t47 47.5q6 24 -11 33t-58 9h-57q-46 0 -67 7q-37 -24 -45 -55q-8 -30 18.5 -46t79.5 -16zM316 242q33 0 59.5 23t37.5 65q11 41 -3.5 63.5t-47.5 22.5t-59.5 -22.5t-37.5 -63.5q-11 -42 3.5 -65 t47.5 -23z" />
<glyph unicode="h" horiz-adv-x="567" d="M68 0l188 703h136l-47 -175l-31 -92q95 71 173 71q154 0 101 -198l-83 -308h-136l78 290q14 56 4.5 78t-44.5 22q-27 0 -51.5 -12.5t-61.5 -40.5l-90 -338h-136z" />
<glyph unicode="i" horiz-adv-x="271" d="M68 0l132 494h136l-132 -494h-136zM289 571q-35 0 -52 20.5t-8 51.5q8 32 36 52.5t63 20.5t52 -20.5t9 -52.5q-9 -31 -37 -51.5t-63 -20.5z" />
<glyph unicode="j" horiz-adv-x="273" d="M-18 -200l1 1q-51 0 -83 14l52 100q21 -7 38 -7q30 0 47 19.5t29 62.5l135 504h136l-134 -501q-51 -193 -221 -193zM292 572q-35 0 -52 20.5t-8 51.5q8 32 36 52.5t63 20.5t52 -20.5t9 -52.5q-9 -31 -37 -51.5t-63 -20.5z" />
<glyph unicode="k" horiz-adv-x="539" d="M68 0l188 703h133l-111 -415h4l221 207h148l-226 -203l109 -292h-148l-63 200l-89 -77l-33 -123h-133z" />
<glyph unicode="l" horiz-adv-x="281" d="M192 -12h-2q-128 0 -85 157l149 558h136l-150 -564q-5 -23 -0.5 -32t15.5 -9q10 0 19 2l-10 -100q-29 -12 -72 -12z" />
<glyph unicode="m" horiz-adv-x="852" d="M68 0l130 496h111l-7 -65h4q95 77 171 77q98 0 114 -85q103 85 178 85q78 0 103 -52.5t-1 -145.5l-83 -308h-136l78 290q14 56 4.5 78t-44.5 22q-41 0 -104 -53l-90 -338h-136l78 290q14 56 4.5 78t-44.5 22q-41 0 -104 -53l-90 -338h-136z" />
<glyph unicode="n" horiz-adv-x="568" d="M68 0l130 495h111l-7 -64h4q100 76 181 76q154 0 101 -198l-83 -308h-136l78 290q14 56 4.5 78t-44.5 22q-27 0 -51.5 -12.5t-61.5 -40.5l-90 -338h-136z" />
<glyph unicode="o" horiz-adv-x="553" d="M273 -12q-98 0 -149.5 70.5t-19.5 188.5q32 119 121 189.5t187 70.5t149.5 -70.5t19.5 -189.5q-32 -118 -121 -188.5t-187 -70.5zM302 98h1q48 0 84.5 40t54.5 109q19 67 3.5 108t-63.5 41q-47 0 -84 -40t-55 -109q-19 -67 -3.5 -108t62.5 -41z" />
<glyph unicode="p" horiz-adv-x="570" d="M17 -188l182 683h111l-3 -50h4q87 62 160 62q90 0 123.5 -68t2.5 -184q-32 -122 -113.5 -194.5t-166.5 -72.5q-63 0 -107 52l-17 -80l-40 -148h-136zM315 100q44 0 82.5 39t58.5 115q38 141 -55 141q-46 0 -106 -48l-57 -212q31 -35 77 -35z" />
<glyph unicode="q" horiz-adv-x="570" d="M316 -188l41 155l26 78q-73 -57 -142 -57q-93 0 -129.5 69t-4.5 190q31 117 111.5 188.5t164.5 71.5q74 0 118 -61h3l24 48h107l-183 -682h-136zM304 99v-2q51 0 101 49l57 212q-28 35 -78 35q-42 0 -80.5 -38t-57.5 -108q-40 -148 58 -148z" />
<glyph unicode="r" horiz-adv-x="390" d="M68 0l133 495h111l-13 -87h4q81 99 166 99q34 0 56 -10l-55 -118q-32 8 -50 8q-74 0 -138 -95l-78 -292h-136z" />
<glyph unicode="s" horiz-adv-x="439" d="M210 -12q-49 0 -94.5 18.5t-74.5 49.5l84 86q55 -53 116 -53q67 0 81 49q3 12 -0.5 21.5t-16.5 18t-22.5 13.5t-30.5 14q-5 1 -13 5q-120 51 -95 145q18 68 80 110t146 42q91 0 155 -62l-84 -82q-46 43 -95 43q-62 0 -74 -45q-4 -14 6 -25.5t23 -18t39 -16.5q4 -2 14 -6 q56 -23 84 -55.5t12 -93.5q-19 -69 -82.5 -113t-157.5 -45zM208 -12h2h-2z" />
<glyph unicode="t" horiz-adv-x="375" d="M249 -12l-3 -2q-166 0 -116 188l57 212h-68l27 102l78 6l52 132h113l-36 -132h121l-29 -107h-121l-56 -211q-21 -81 45 -81q21 0 51 10l-4 -99q-65 -18 -111 -18z" />
<glyph unicode="u" horiz-adv-x="564" d="M213 -12q-153 0 -100 198l83 308h136l-78 -290q-14 -56 -4.5 -78t44.5 -22q51 0 111 59l88 331h136l-132 -494h-111l9 70h-4q-90 -82 -178 -82h1h-1z" />
<glyph unicode="v" horiz-adv-x="513" d="M180 0l-36 494h137l5 -241q-1 -49 -1 -151h4q27 54 79 151l134 241h131l-296 -494h-157z" />
<glyph unicode="w" horiz-adv-x="766" d="M150 0l5 493h136l-12 -238q-2 -27 -8 -77t-8 -68h4q44 98 69 145l121 238h120l-4 -238q-1 -46 -7 -145h4q10 22 30.5 70.5t32.5 74.5l115 238h126l-253 -494h-160l7 209q2 53 11 145h-4q-43 -98 -65 -145l-104 -208h-156z" />
<glyph unicode="x" horiz-adv-x="502" d="M14 0l223 257l-81 237h146l25 -85l6.5 -26t8 -31.5t6.5 -26.5h4q8 12 28 40.5t30 43.5l61 85h141l-212 -252l88 -242h-146l-29 87q-4 14 -12 43t-12 43h-4q-21 -28 -63 -86l-67 -87h-141z" />
<glyph unicode="y" horiz-adv-x="512" d="M63 -196l1 -1q-36 0 -66 10l52 104q27 -6 33 -6q67 0 110 72l16 28l-63 484h137l16 -223q2 -44 2 -140h4q50 96 74 140l124 223h130l-310 -506q-61 -95 -120 -140t-140 -45z" />
<glyph unicode="z" horiz-adv-x="454" d="M36 0l20 73l300 314h-192l29 107h362l-20 -73l-300 -314h223l-29 -107h-393z" />
<glyph unicode="{" horiz-adv-x="337" d="M193 -152l1 -1q-67 0 -88 31.5t0 109.5q10 36 29 89.5t27 84.5q18 72 -66 75l21 81q87 3 105 75q8 31 17.5 84t19.5 90q21 78 59 109.5t105 31.5h60l-20 -73h-20q-33 0 -49 -15t-27 -58q-7 -26 -19 -80t-21 -86q-14 -54 -38 -80.5t-64 -35.5l-1 -4q35 -9 45 -34.5 t-3 -81.5q-9 -32 -26 -85.5t-24 -80.5q-11 -43 -3.5 -58t40.5 -15h20l-20 -73h-60z" />
<glyph unicode="|" horiz-adv-x="263" d="M20 -250l268 1000h89l-268 -1000h-89z" />
<glyph unicode="}" horiz-adv-x="337" d="M3 -152l19 74h20q33 0 49 15t27 58q7 26 19 80t21 86q14 54 38 80.5t64 35.5l1 4q-35 9 -45 34.5t4 81.5q9 32 25.5 85.5t23.5 80.5q11 43 3.5 58t-40.5 15h-20l20 73h60q67 0 88 -31.5t0 -109.5q-10 -36 -29 -89.5t-27 -84.5t7 -52.5t60 -22.5l-21 -81q-46 -1 -72 -22.5 t-34 -52.5t-17.5 -84t-19.5 -90q-21 -78 -59 -109.5t-105 -31.5h-60z" />
<glyph unicode="~" horiz-adv-x="523" d="M412 243l1 -1q-28 0 -51 12t-36 26.5t-30.5 26.5t-35.5 12q-41 0 -88 -58l-57 54q91 101 173 101q28 0 50.5 -12t35.5 -26.5t30.5 -26.5t35.5 -12q41 0 88 58l57 -54q-92 -100 -173 -100z" />
<glyph unicode="&#xa1;" horiz-adv-x="332" d="M50 -176l39 126l104 318h90l-67 -318l-30 -126h-136zM255 330q-36 0 -53 25t-7 63q10 37 40.5 62t66.5 25t53.5 -25t7.5 -62t-41 -62.5t-67 -25.5z" />
<glyph unicode="&#xa2;" horiz-adv-x="523" d="M260 -39l26 97q-95 12 -135 77.5t-11 172.5q27 102 103.5 167t176.5 81l26 99h76l-25 -95q72 -6 110 -56l-85 -84q-24 27 -55 30l-76 -284q40 5 89 37l32 -86q-70 -51 -151 -61l-25 -95h-76zM318 176l70 264q-87 -31 -114 -132t44 -132z" />
<glyph unicode="&#xa3;" horiz-adv-x="523" d="M49 0l24 84q54 23 94.5 64.5t54.5 93.5q5 17 6 32h-101l22 80l69 5h8q-4 53 5 87q24 92 97 147t165 55q103 0 149 -81l-95 -74q-24 44 -70 44q-43 0 -74 -25.5t-44 -73.5q-7 -26 -9 -79h152l-23 -85h-133q-4 -22 -7 -34q-17 -67 -80 -121l-1 -4h262l-31 -115h-440z" />
<glyph unicode="&#xa4;" horiz-adv-x="523" d="M112 87l-48 69l78 62q-21 46 -5 111q18 66 64 112l-45 62l87 69l50 -70q55 26 110 26t95 -26l88 70l50 -69l-78 -62q21 -49 4 -112q-15 -61 -65 -111l46 -62l-87 -69l-51 70q-54 -27 -110 -27t-95 27zM324 226q39 0 73 29t47 75q12 46 -6.5 75t-57.5 29t-73 -29t-47 -75 q-12 -46 6.5 -75t57.5 -29z" />
<glyph unicode="&#xa5;" horiz-adv-x="523" d="M193 0l39 148h-155l18 67h155l16 56h-155l17 67h125l-69 297h140l18 -139q5 -44 17 -132h4q45 68 87 132l93 139h137l-230 -297h125l-17 -67h-155l-16 -56h155l-18 -67h-155l-40 -148h-136z" />
<glyph unicode="&#xa6;" horiz-adv-x="263" d="M20 -250l122 456h89l-122 -456h-89zM170 308l118 442h89l-118 -442h-89z" />
<glyph unicode="&#xa7;" horiz-adv-x="523" d="M216 -80l1 -2q-56 0 -101.5 21.5t-67.5 61.5l98 70q36 -51 98 -51q63 0 77 47q3 12 -0.5 22t-16.5 20t-23.5 15.5t-32.5 16.5q-20 10 -30 15.5t-28.5 17t-28 20.5t-21 24t-15.5 30.5t-4 36.5t6 44q10 38 40.5 71.5t73.5 55.5q-20 36 -7 83q18 66 75 107.5t138 41.5 q96 0 159 -63l-85 -85q-43 48 -92 48q-59 0 -70 -43q-4 -14 7 -27.5t24.5 -21.5t42.5 -23q18 -9 27 -14t26 -15t26 -17.5t21.5 -19.5t18 -24.5t11 -27.5t4.5 -33t-6 -38q-23 -83 -119 -133q14 -33 3 -77q-19 -68 -80 -111t-149 -43zM385 210q45 22 56 63q5 18 0.5 33 t-21.5 28t-29 20t-40 21q-25 11 -52 27q-44 -24 -56 -64q-5 -18 -0.5 -31.5t21 -27t27.5 -20t39 -20.5q38 -18 55 -29z" />
<glyph unicode="&#xa8;" horiz-adv-x="553" d="M537 572q-29 0 -43 19.5t-6 48.5t32 48.5t53 19.5q30 0 44 -19.5t6 -48.5t-32 -48.5t-54 -19.5zM323 572q-30 0 -44 19.5t-6 48.5t32 48.5t54 19.5q29 0 43 -19.5t6 -48.5t-32 -48.5t-53 -19.5z" />
<glyph unicode="&#xa9;" horiz-adv-x="749" d="M372 -9q-137 0 -208 92t-31 242t159.5 240t256.5 90t208.5 -90.5t31.5 -239.5q-40 -150 -160 -242t-257 -92zM387 49q113 0 209.5 76.5t129.5 199.5q32 122 -23 197.5t-168 75.5t-209 -75.5t-128 -197.5q-33 -123 21.5 -199.5t167.5 -76.5zM419 127l-1 1q-84 0 -123 53.5 t-15 143.5q22 85 93.5 138.5t149.5 53.5q72 0 116 -59l-68 -58q-25 35 -61 35q-47 0 -83 -31.5t-48 -79.5q-14 -53 3.5 -84.5t61.5 -31.5q39 0 94 36l27 -64q-79 -53 -146 -53z" />
<glyph unicode="&#xaa;" horiz-adv-x="356" d="M230 371v-1q-45 0 -65.5 28.5t-8.5 70.5q14 53 66.5 81.5t153.5 38.5q9 49 -38 49q-36 0 -100 -31l-17 64q83 43 155 43q64 0 88 -36.5t4 -108.5l-50 -190h-78v34h-4q-56 -42 -106 -42zM282 444l-1 1q27 0 64 28l16 60q-99 -11 -111 -56q-8 -33 32 -33z" />
<glyph unicode="&#xab;" horiz-adv-x="472" d="M380 57l-97 145l27 97l173 146l41 -42l-152 -152l70 -153zM198 58l-97 145l27 97l173 146l41 -42l-152 -152l70 -153z" />
<glyph unicode="&#xac;" horiz-adv-x="523" d="M414 96l49 186h-354l27 97h455l-76 -283h-101z" />
<glyph unicode="&#xad;" horiz-adv-x="328" d="M98 204l26 97h243l-26 -97h-243z" />
<glyph unicode="&#xae;" horiz-adv-x="455" d="M311 312q-82 0 -123.5 57.5t-18.5 144.5q24 87 96 144.5t154 57.5q83 0 125 -57.5t18 -144.5q-23 -87 -95.5 -144.5t-155.5 -57.5zM323 359q64 0 116 42.5t70 111.5q19 69 -10.5 112t-93.5 43q-63 0 -115 -43t-71 -112q-18 -69 11 -111.5t93 -42.5zM259 416l51 198h87 q37 0 55 -16.5t9 -49.5q-10 -39 -49 -54l22 -78h-58l-15 62h-31l-16 -62h-55zM339 517h21q32 0 41 29q7 27 -25 27h-22z" />
<glyph unicode="&#xaf;" horiz-adv-x="553" d="M290 593l23 88h291l-23 -88h-291z" />
<glyph unicode="&#xb0;" horiz-adv-x="359" d="M288 403q-59 0 -89 39.5t-14 100.5t68 101t111 40t89 -40t14 -101t-68 -100.5t-111 -39.5zM306 469q30 0 54.5 20.5t33.5 53.5q9 34 -4.5 54.5t-43.5 20.5t-54.5 -20.5t-33.5 -54.5q-9 -33 4.5 -53.5t43.5 -20.5z" />
<glyph unicode="&#xb1;" horiz-adv-x="523" d="M252 153l38 143h-177l26 97h177l46 172h100l-46 -172h177l-26 -97h-177l-38 -143h-100zM34 0l26 97h455l-26 -97h-455z" />
<glyph unicode="&#xb2;" horiz-adv-x="375" d="M46 379l14 54q111 76 164.5 121t63.5 79q8 31 -3 48t-40 17q-36 0 -86 -50l-43 52q80 80 167 80q65 0 94 -35t13 -96q-8 -31 -35 -65t-51.5 -56.5t-74.5 -64.5h126l-23 -84h-286z" />
<glyph unicode="&#xb3;" horiz-adv-x="375" d="M182 367l1 2q-104 0 -135 78l75 48q22 -50 72 -50q26 0 46.5 13.5t26.5 36.5q7 27 -13.5 40.5t-69.5 13.5l16 58q82 0 96 52q6 21 -5 33t-35 12q-33 0 -78 -41l-44 51q80 66 159 66q55 0 86 -29.5t18 -78.5q-15 -58 -82 -91q65 -27 47 -94q-14 -53 -66.5 -86.5 t-114.5 -33.5z" />
<glyph unicode="&#xb4;" horiz-adv-x="553" d="M436 572l-49 66l199 180l69 -90z" />
<glyph unicode="&#xb5;" horiz-adv-x="588" d="M20 -177l180 670h136l-78 -290q-14 -55 -4.5 -77.5t44.5 -22.5q55 0 112 71l86 320h138q-12 -39 -35.5 -117.5t-41 -137.5t-28.5 -99q-12 -42 31 -42q16 0 32 6l-10 -100q-41 -16 -87 -16q-99 0 -99 84h-3q-63 -80 -133 -80q-45 0 -60 27q-28 -112 -42 -196h-138z" />
<glyph unicode="&#xb6;" horiz-adv-x="624" d="M351 202q-112 0 -168.5 59.5t-26.5 169.5q59 221 311 221h44l-120 -450h-40zM370 -80l196 732h137l-196 -732h-137z" />
<glyph unicode="&#xb7;" horiz-adv-x="292" d="M143 233q-36 0 -53.5 25t-7.5 62t41 62.5t67 25.5t53 -25t7 -63q-10 -37 -40.5 -62t-66.5 -25z" />
<glyph unicode="&#xb8;" horiz-adv-x="553" d="M116 -237l3 56q60 4 85.5 14t31.5 31q4 17 -10 27t-56 16l74 96h80l-46 -65q72 -18 57 -75q-26 -94 -219 -100z" />
<glyph unicode="&#xb9;" horiz-adv-x="375" d="M166 379l76 286h-88l17 62q63 9 121 42h80l-105 -390h-101z" />
<glyph unicode="&#xba;" horiz-adv-x="372" d="M285 371h-1q-67 0 -101 46.5t-13 124.5q21 79 80.5 125.5t126.5 46.5q66 0 100.5 -46.5t13.5 -125.5q-21 -78 -80.5 -124.5t-125.5 -46.5zM305 448q31 0 53 25.5t34 68.5q25 96 -37 96t-87 -96q-12 -42 -3 -68t40 -26z" />
<glyph unicode="&#xbb;" horiz-adv-x="472" d="M121 58l-40 42l154 153l-72 152l62 42l97 -146l-27 -97zM305 59l-40 42l154 153l-72 152l62 42l97 -146l-27 -97z" />
<glyph unicode="&#xbc;" horiz-adv-x="804" d="M643 0l24 90h-180l14 50l212 250h124l-63 -234h57l-18 -66h-57l-24 -90h-89zM181 -12l534 676h80l-534 -676h-80zM137 262l76 286h-88l17 62q63 9 121 42h80l-105 -390h-101zM684 156l12 46l36 116h-4l-62 -78l-67 -84h85z" />
<glyph unicode="&#xbd;" horiz-adv-x="839" d="M510 0l14 54q111 76 164.5 121t63.5 79q8 31 -3 48t-40 17q-36 0 -86 -50l-43 52q80 80 167 80q65 0 94 -35t13 -96q-8 -31 -35 -65t-51.5 -56.5t-74.5 -64.5h126l-23 -84h-286zM165 -12l534 676h80l-534 -676h-80zM137 262l76 286h-88l17 62q63 9 121 42h80l-105 -390 h-101z" />
<glyph unicode="&#xbe;" horiz-adv-x="814" d="M655 2l24 90h-180l14 50l212 250h124l-63 -234h57l-18 -66h-57l-24 -90h-89zM179 250l1 2q-104 0 -135 78l75 48q22 -50 72 -50q26 0 46.5 13.5t26.5 36.5q7 27 -13.5 40.5t-69.5 13.5l16 58q82 0 96 52q6 21 -5 33t-35 12q-33 0 -78 -41l-44 51q79 66 159 66 q55 0 86 -29.5t18 -78.5q-15 -58 -82 -91q65 -27 47 -94q-14 -53 -66.5 -86.5t-114.5 -33.5zM208 -10l534 676h80l-534 -676h-80zM696 158l12 46l36 116h-4l-62 -78l-67 -84h85z" />
<glyph unicode="&#xbf;" horiz-adv-x="457" d="M178 -188l-1 1q-83 0 -122.5 43t-17.5 126q11 41 45 79.5t68.5 64t65.5 63.5t38 79h119q-5 -39 -25.5 -74t-47.5 -61t-53.5 -49t-48 -47t-27.5 -46q-9 -32 6 -50.5t48 -18.5q49 0 107 48l57 -69q-104 -89 -211 -89zM329 332q-36 0 -53 25t-7 63q10 37 40.5 62t66.5 25 t53.5 -25t7.5 -62t-41 -62.5t-67 -25.5z" />
<glyph unicode="&#xc0;" horiz-adv-x="568" d="M-5 0l385 653h162l33 -652h-145v162h-207l-88 -163h-140zM478 684l-147 118l96 88l130 -138zM280 270h150v67q-2 55 0 172q1 13 1 39h-4q-87 -169 -111 -212z" />
<glyph unicode="&#xc1;" horiz-adv-x="568" d="M-5 0l385 653h162l33 -652h-145v162h-207l-88 -163h-140zM455 684l-42 68l202 138l50 -88zM280 270h150v67q-2 55 0 172q1 13 1 39h-4q-87 -169 -111 -212z" />
<glyph unicode="&#xc2;" horiz-adv-x="568" d="M-5 0l385 653h162l33 -652h-145v162h-207l-88 -163h-140zM311 725l122 111h147l63 -111l-69 -37l-82 85h-4l-128 -85zM280 270h150v67q-2 55 0 172q1 13 1 39h-4q-87 -169 -111 -212z" />
<glyph unicode="&#xc3;" horiz-adv-x="568" d="M-5 0l385 653h162l33 -652h-145v162h-207l-88 -163h-140zM542 696l-1 1q-31 0 -54 15t-39.5 30t-30.5 15q-32 0 -53 -52l-86 6q23 70 65 105t95 35q24 0 44.5 -9.5t31 -20.5t23.5 -20.5t25 -9.5q33 0 54 52l87 -6q-23 -70 -65.5 -105.5t-95.5 -35.5zM280 270h150v67 q-2 55 0 172q1 13 1 39h-4q-87 -169 -111 -212z" />
<glyph unicode="&#xc4;" horiz-adv-x="568" d="M-5 0l385 653h162l33 -652h-145v162h-207l-88 -163h-140zM280 270h150v67q-2 55 0 172q1 13 1 39h-4q-87 -169 -111 -212zM582 703q-29 0 -43 19t-6 48t31.5 47.5t52.5 18.5t43 -18.5t6 -47.5t-31.5 -48t-52.5 -19zM362 703h1q-29 0 -43 19t-6 48t31.5 47.5t52.5 18.5 t42.5 -18.5t5.5 -47.5t-31.5 -48t-51.5 -19h-1z" />
<glyph unicode="&#xc5;" horiz-adv-x="568" d="M-5 0l385 653h162l33 -652h-145v162h-207l-88 -163h-140zM470 698q-50 0 -73.5 26.5t-11.5 70.5t50 70.5t88 26.5q49 0 72.5 -26.5t11.5 -70.5t-50 -70.5t-87 -26.5zM280 270h150v67q-2 55 0 172q1 13 1 39h-4q-87 -169 -111 -212zM484 750q18 0 33.5 12.5t21.5 32.5 t-3 33t-27 13t-34 -12.5t-22 -33.5q-6 -20 3 -32.5t28 -12.5z" />
<glyph unicode="&#xc6;" horiz-adv-x="841" d="M-10 0l490 654h474l-30 -114h-254l-39 -144h214l-30 -115h-214l-44 -165h264l-31 -115h-401l42 156h-183l-115 -157h-143zM327 264h132l77 286h-4q-97 -139 -135 -191z" />
<glyph unicode="&#xc7;" horiz-adv-x="580" d="M186 -237l3 56q60 4 85.5 14t31.5 31q4 17 -10 27t-56 16l64 83q-110 14 -159 101t-10 232q41 156 153.5 248.5t241.5 92.5q115 0 171 -84l-95 -88q-42 54 -104 54q-73 0 -136.5 -59.5t-90.5 -159.5q-28 -103 1 -162t105 -59q73 0 148 63l50 -86q-93 -80 -194 -92 l-37 -53q72 -18 57 -75q-26 -94 -219 -100z" />
<glyph unicode="&#xc8;" horiz-adv-x="544" d="M79 0l174 653h403l-30 -114h-267l-39 -144h227l-30 -115h-227l-44 -165h277l-31 -115h-413zM482 684l-147 118l96 88l130 -138z" />
<glyph unicode="&#xc9;" horiz-adv-x="544" d="M79 0l174 653h403l-30 -114h-267l-39 -144h227l-30 -115h-227l-44 -165h277l-31 -115h-413zM458 684l-42 68l202 138l50 -88z" />
<glyph unicode="&#xca;" horiz-adv-x="544" d="M79 0l174 653h403l-30 -114h-267l-39 -144h227l-30 -115h-227l-44 -165h277l-31 -115h-413zM315 725l122 111h147l63 -111l-69 -37l-82 85h-4l-128 -85z" />
<glyph unicode="&#xcb;" horiz-adv-x="544" d="M79 0l174 653h403l-30 -114h-267l-39 -144h227l-30 -115h-227l-44 -165h277l-31 -115h-413zM585 703q-29 0 -43 19t-6 48t31.5 47.5t52.5 18.5t43 -18.5t6 -47.5t-31.5 -48t-52.5 -19zM365 703h1q-29 0 -43 19t-6 48t31.5 47.5t52.5 18.5t42.5 -18.5t5.5 -47.5t-31.5 -48 t-51.5 -19h-1z" />
<glyph unicode="&#xcc;" horiz-adv-x="295" d="M79 0l175 652h136l-175 -652h-136zM342 683l-147 118l96 88l130 -138z" />
<glyph unicode="&#xcd;" horiz-adv-x="295" d="M79 0l175 652h136l-175 -652h-136zM319 683l-42 68l202 138l50 -88z" />
<glyph unicode="&#xce;" horiz-adv-x="295" d="M79 0l175 652h136l-175 -652h-136zM175 724l122 111h147l63 -111l-69 -37l-82 85h-4l-128 -85z" />
<glyph unicode="&#xcf;" horiz-adv-x="295" d="M79 0l175 652h136l-175 -652h-136zM446 702q-29 0 -43 19t-6 48t31.5 47.5t52.5 18.5t43 -18.5t6 -47.5t-31.5 -48t-52.5 -19zM226 702h1q-29 0 -43 19t-6 48t31.5 47.5t52.5 18.5t42.5 -18.5t5.5 -47.5t-31.5 -48t-51.5 -19h-1z" />
<glyph unicode="&#xd0;" horiz-adv-x="656" d="M109 305l17 62l76 5l75 282h181q154 0 218 -80.5t21 -242.5q-44 -163 -151 -246.5t-255 -83.5h-188l81 304h-75zM268 112l35 -1q193 0 253 220q30 113 -6.5 163t-129.5 50h-36l-46 -172h131l-18 -67h-131z" />
<glyph unicode="&#xd1;" horiz-adv-x="662" d="M79 0l175 653h140l90 -339l28 -142h4q3 16 9 53t10.5 61t11.5 57.5t14 60.5l66 248h130l-175 -652h-140l-90 340l-28 141h-4q-30 -178 -44 -231l-67 -250h-130zM591 696l-1 1q-24 0 -44.5 9.5t-31 20.5t-23.5 20.5t-25 9.5q-32 0 -53 -52l-86 6q23 70 65 105t95 35 q31 0 54 -15t39.5 -30t30.5 -15q33 0 54 52l87 -6q-23 -70 -65.5 -105.5t-95.5 -35.5z" />
<glyph unicode="&#xd2;" horiz-adv-x="681" d="M337 -12q-132 0 -188 91.5t-14 249.5q42 157 146 246t237 89t189.5 -89.5t14.5 -245.5q-42 -158 -147.5 -249.5t-237.5 -91.5zM368 106q70 0 128 60.5t86 162.5q27 102 1 159.5t-97 57.5t-127.5 -58t-83.5 -159q-28 -102 -2.5 -162.5t95.5 -60.5zM535 683l-147 118l96 88 l130 -138z" />
<glyph unicode="&#xd3;" horiz-adv-x="681" d="M337 -12q-132 0 -188 91.5t-14 249.5q42 157 146 246t237 89t189.5 -89.5t14.5 -245.5q-42 -158 -147.5 -249.5t-237.5 -91.5zM368 106q70 0 128 60.5t86 162.5q27 102 1 159.5t-97 57.5t-127.5 -58t-83.5 -159q-28 -102 -2.5 -162.5t95.5 -60.5zM512 683l-42 68l202 138 l50 -88z" />
<glyph unicode="&#xd4;" horiz-adv-x="681" d="M337 -12q-132 0 -188 91.5t-14 249.5q42 157 146 246t237 89t189.5 -89.5t14.5 -245.5q-42 -158 -147.5 -249.5t-237.5 -91.5zM368 106q70 0 128 60.5t86 162.5q27 102 1 159.5t-97 57.5t-127.5 -58t-83.5 -159q-28 -102 -2.5 -162.5t95.5 -60.5zM368 724l122 111h147 l63 -111l-69 -37l-82 85h-4l-128 -85z" />
<glyph unicode="&#xd5;" horiz-adv-x="681" d="M337 -12q-132 0 -188 91.5t-14 249.5q42 157 146 246t237 89t189.5 -89.5t14.5 -245.5q-42 -158 -147.5 -249.5t-237.5 -91.5zM368 106q70 0 128 60.5t86 162.5q27 102 1 159.5t-97 57.5t-127.5 -58t-83.5 -159q-28 -102 -2.5 -162.5t95.5 -60.5zM598 695l-1 1 q-31 0 -54 15t-39.5 30t-30.5 15q-32 0 -53 -52l-86 6q23 70 65 105t95 35q24 0 44.5 -9.5t31 -20.5t23.5 -20.5t25 -9.5q33 0 54 52l87 -6q-23 -70 -65.5 -105.5t-95.5 -35.5z" />
<glyph unicode="&#xd6;" horiz-adv-x="681" d="M337 -12q-132 0 -188 91.5t-14 249.5q42 157 146 246t237 89t189.5 -89.5t14.5 -245.5q-42 -158 -147.5 -249.5t-237.5 -91.5zM368 106q70 0 128 60.5t86 162.5q27 102 1 159.5t-97 57.5t-127.5 -58t-83.5 -159q-28 -102 -2.5 -162.5t95.5 -60.5zM639 702q-29 0 -43 19 t-6 48t31.5 47.5t52.5 18.5t43 -18.5t6 -47.5t-31.5 -48t-52.5 -19zM419 702h1q-29 0 -43 19t-6 48t31.5 47.5t52.5 18.5t42.5 -18.5t5.5 -47.5t-31.5 -48t-51.5 -19h-1z" />
<glyph unicode="&#xd7;" horiz-adv-x="523" d="M147 114l-51 69l184 146l-105 146l87 69l105 -146l184 146l50 -69l-184 -146l106 -146l-87 -69l-105 147z" />
<glyph unicode="&#xd8;" horiz-adv-x="681" d="M102 -40l-56 56l93 87q-39 89 -2 226q42 157 146 246t237 89q101 0 160 -54l87 82l56 -55l-99 -93q35 -85 0 -215q-42 -158 -147.5 -249.5t-237.5 -91.5q-96 0 -154 50zM263 220l309 289q-28 37 -84 37q-71 0 -127.5 -58t-83.5 -159q-17 -63 -14 -109zM370 106 q70 0 128 60.5t86 162.5q15 52 13 96l-305 -287q27 -32 78 -32z" />
<glyph unicode="&#xd9;" horiz-adv-x="661" d="M329 -12q-256 0 -174 309l95 356h136l-99 -368q-23 -100 -5 -139t77 -39q60 0 102.5 41t67.5 137l99 368h132l-95 -356q-82 -309 -336 -309zM526 683l-147 118l96 88l130 -138z" />
<glyph unicode="&#xda;" horiz-adv-x="661" d="M329 -12q-256 0 -174 309l95 356h136l-99 -368q-23 -100 -5 -139t77 -39q60 0 102.5 41t67.5 137l99 368h132l-95 -356q-82 -309 -336 -309zM503 683l-42 68l202 138l50 -88z" />
<glyph unicode="&#xdb;" horiz-adv-x="661" d="M329 -12q-256 0 -174 309l95 356h136l-99 -368q-23 -100 -5 -139t77 -39q60 0 102.5 41t67.5 137l99 368h132l-95 -356q-82 -309 -336 -309zM359 724l122 111h147l63 -111l-69 -37l-82 85h-4l-128 -85z" />
<glyph unicode="&#xdc;" horiz-adv-x="661" d="M329 -12q-256 0 -174 309l95 356h136l-99 -368q-23 -100 -5 -139t77 -39q60 0 102.5 41t67.5 137l99 368h132l-95 -356q-82 -309 -336 -309zM630 702q-29 0 -43 19t-6 48t31.5 47.5t52.5 18.5t43 -18.5t6 -47.5t-31.5 -48t-52.5 -19zM410 702h1q-29 0 -43 19t-6 48 t31.5 47.5t52.5 18.5t42.5 -18.5t5.5 -47.5t-31.5 -48t-51.5 -19h-1z" />
<glyph unicode="&#xdd;" horiz-adv-x="517" d="M190 0l64 236l-85 416h146l21 -156q2 -23 7.5 -70.5t8.5 -73.5h4q94 143 95 144l104 156h143l-308 -416l-63 -236h-137zM431 683l-42 68l202 138l50 -88z" />
<glyph unicode="&#xde;" horiz-adv-x="611" d="M79 0l175 652h136l-27 -100h95q253 0 197 -207q-29 -108 -114.5 -163t-196.5 -55h-95l-34 -127h-136zM278 236h86q128 0 157 109q15 53 -10.5 75.5t-90.5 22.5h-86z" />
<glyph unicode="&#xdf;" horiz-adv-x="623" d="M412 -12q-75 0 -135 46l73 93q38 -38 86 -38q28 0 48 15.5t26 38.5q5 17 -3 31.5t-18 22.5t-32 22q-12 8 -18.5 12t-17 12.5t-16 15.5t-12 17.5t-9 21t-2 24.5t4.5 29q11 40 61.5 92.5t60.5 90.5q9 31 -3.5 50.5t-44.5 19.5q-47 0 -80.5 -34t-50.5 -96l-127 -475h-135 l132 492q27 100 102 160.5t188 60.5q94 0 133 -47.5t21 -114.5q-11 -41 -40 -74.5t-55.5 -59t-32.5 -46.5q-5 -19 6.5 -32.5t40.5 -31.5q14 -9 22.5 -15t21 -17t19 -22.5t12 -26.5t5 -34t-6.5 -41q-19 -70 -79 -116t-145 -46h1h-1z" />
<glyph unicode="&#xe0;" horiz-adv-x="523" d="M187 -12q-66 0 -95.5 42t-11.5 106q21 79 100 122.5t231 59.5q16 80 -61 80q-54 0 -146 -46l-24 90q121 65 225 65q193 0 134 -221l-76 -286h-111l4 52h-4q-92 -64 -165 -64zM420 573l-135 157l116 90l104 -180zM260 94q43 0 103 47l25 95q-158 -20 -176 -89 q-13 -53 48 -53z" />
<glyph unicode="&#xe1;" horiz-adv-x="523" d="M187 -12q-66 0 -95.5 42t-11.5 106q21 79 100 122.5t231 59.5q16 80 -61 80q-54 0 -146 -46l-24 90q121 65 225 65q193 0 134 -221l-76 -286h-111l4 52h-4q-92 -64 -165 -64zM433 573l-49 66l199 180l69 -90zM260 94q43 0 103 47l25 95q-158 -20 -176 -89q-13 -53 48 -53 z" />
<glyph unicode="&#xe2;" horiz-adv-x="523" d="M187 -12q-66 0 -95.5 42t-11.5 106q21 79 100 122.5t231 59.5q16 80 -61 80q-54 0 -146 -46l-24 90q121 65 225 65q193 0 134 -221l-76 -286h-111l4 52h-4q-92 -64 -165 -64zM259 611l145 133h138l74 -133l-66 -49l-99 96h-4l-149 -96zM260 94q43 0 103 47l25 95 q-158 -20 -176 -89q-13 -53 48 -53z" />
<glyph unicode="&#xe3;" horiz-adv-x="523" d="M187 -12q-66 0 -95.5 42t-11.5 106q21 79 100 122.5t231 59.5q16 80 -61 80q-54 0 -146 -46l-24 90q121 65 225 65q193 0 134 -221l-76 -286h-111l4 52h-4q-92 -64 -165 -64zM494 574q-28 0 -48.5 17t-36 33.5t-28.5 16.5q-31 0 -53 -59l-84 5q44 149 160 149 q28 0 48.5 -17t36 -33.5t28.5 -16.5q31 0 52 59l85 -5q-44 -149 -160 -149zM260 94q43 0 103 47l25 95q-158 -20 -176 -89q-13 -53 48 -53z" />
<glyph unicode="&#xe4;" horiz-adv-x="523" d="M187 -12q-66 0 -95.5 42t-11.5 106q21 79 100 122.5t231 59.5q16 80 -61 80q-54 0 -146 -46l-24 90q121 65 225 65q193 0 134 -221l-76 -286h-111l4 52h-4q-92 -64 -165 -64zM260 94q43 0 103 47l25 95q-158 -20 -176 -89q-13 -53 48 -53zM534 572q-29 0 -43 19.5 t-6 48.5t32 48.5t53 19.5q30 0 44 -19.5t6 -48.5t-32 -48.5t-54 -19.5zM320 572q-30 0 -44 19.5t-6 48.5t32 48.5t54 19.5q29 0 43 -19.5t6 -48.5t-32 -48.5t-53 -19.5z" />
<glyph unicode="&#xe5;" horiz-adv-x="523" d="M187 -12q-66 0 -95.5 42t-11.5 106q21 79 100 122.5t231 59.5q16 80 -61 80q-54 0 -146 -46l-24 90q121 65 225 65q193 0 134 -221l-76 -286h-111l4 52h-4q-92 -64 -165 -64zM423 563h-1q-60 0 -85.5 29.5t-13.5 74.5t53.5 74t101.5 29t86.5 -29t14.5 -74 q-13 -45 -54.5 -74.5t-101.5 -29.5zM260 94q43 0 103 47l25 95q-158 -20 -176 -89q-13 -53 48 -53zM436 615q19 0 36 14t23 37q6 22 -3.5 36t-28.5 14t-35.5 -14t-22.5 -36q-6 -23 3 -37t28 -14z" />
<glyph unicode="&#xe6;" horiz-adv-x="786" d="M193 -12h1q-66 0 -95.5 42t-11.5 106q21 79 99.5 123t229.5 60q16 80 -60 80q-53 0 -145 -46l-24 90q121 65 216 65t118 -79q87 79 170 79q94 0 126.5 -66.5t4.5 -172.5q-10 -34 -22 -59h-291q-7 -54 19 -83.5t75 -29.5q44 0 116 36l23 -89q-94 -55 -187 -55 q-101 0 -149 79q-119 -80 -212 -80h-1zM267 94q54 0 115 48q-4 30 4 72l5 21q-152 -21 -171 -88q-13 -53 47 -53zM532 293h181q15 49 1.5 79.5t-55.5 30.5q-39 0 -73 -28.5t-54 -81.5z" />
<glyph unicode="&#xe7;" horiz-adv-x="466" d="M116 -238l3 56q60 4 85.5 14t31.5 31q4 17 -10 27t-56 16l65 84q-86 13 -124 80.5t-9 175.5q32 119 124.5 189.5t198.5 70.5q84 0 131 -54l-88 -88q-29 32 -64 32q-55 0 -99.5 -40.5t-62.5 -108.5q-18 -67 4 -108t74 -41q47 0 104 39l30 -89q-64 -45 -138 -57l-38 -54 q72 -18 57 -75q-26 -94 -219 -100z" />
<glyph unicode="&#xe8;" horiz-adv-x="514" d="M283 -12l1 -1q-108 0 -159.5 70t-19.5 189q31 116 119.5 188t181.5 72q100 0 136.5 -65t7.5 -171q-8 -35 -22 -62h-302q-7 -57 20.5 -86t82.5 -29q53 0 119 33l22 -83q-94 -55 -187 -55zM419 571l-135 157l116 90l104 -180zM250 298l194 -1q27 104 -62 104 q-39 0 -75.5 -27t-56.5 -76z" />
<glyph unicode="&#xe9;" horiz-adv-x="514" d="M283 -12l1 -1q-108 0 -159.5 70t-19.5 189q31 116 119.5 188t181.5 72q100 0 136.5 -65t7.5 -171q-8 -35 -22 -62h-302q-7 -57 20.5 -86t82.5 -29q53 0 119 33l22 -83q-94 -55 -187 -55zM432 571l-49 66l199 180l69 -90zM250 298l194 -1q27 104 -62 104q-39 0 -75.5 -27 t-56.5 -76z" />
<glyph unicode="&#xea;" horiz-adv-x="514" d="M283 -12l1 -1q-108 0 -159.5 70t-19.5 189q31 116 119.5 188t181.5 72q100 0 136.5 -65t7.5 -171q-8 -35 -22 -62h-302q-7 -57 20.5 -86t82.5 -29q53 0 119 33l22 -83q-94 -55 -187 -55zM257 609l145 133h138l74 -133l-66 -49l-99 96h-4l-149 -96zM250 298l194 -1 q27 104 -62 104q-39 0 -75.5 -27t-56.5 -76z" />
<glyph unicode="&#xeb;" horiz-adv-x="514" d="M283 -12l1 -1q-108 0 -159.5 70t-19.5 189q31 116 119.5 188t181.5 72q100 0 136.5 -65t7.5 -171q-8 -35 -22 -62h-302q-7 -57 20.5 -86t82.5 -29q53 0 119 33l22 -83q-94 -55 -187 -55zM250 298l194 -1q27 104 -62 104q-39 0 -75.5 -27t-56.5 -76zM532 570 q-29 0 -43 19.5t-6 48.5t32 48.5t53 19.5q30 0 44 -19.5t6 -48.5t-32 -48.5t-54 -19.5zM318 570q-30 0 -44 19.5t-6 48.5t32 48.5t54 19.5q29 0 43 -19.5t6 -48.5t-32 -48.5t-53 -19.5z" />
<glyph unicode="&#xec;" horiz-adv-x="271" d="M68 0l132 494h136l-132 -494h-136zM283 572l-135 157l116 90l104 -180z" />
<glyph unicode="&#xed;" horiz-adv-x="271" d="M68 0l132 494h136l-132 -494h-136zM295 572l-49 66l199 180l69 -90z" />
<glyph unicode="&#xee;" horiz-adv-x="271" d="M68 0l132 494h136l-132 -494h-136zM121 610l145 133h138l74 -133l-66 -49l-99 96h-4l-149 -96z" />
<glyph unicode="&#xef;" horiz-adv-x="271" d="M68 0l132 494h136l-132 -494h-136zM396 572q-29 0 -43 19.5t-6 48.5t32 48.5t53 19.5q30 0 44 -19.5t6 -48.5t-32 -48.5t-54 -19.5zM182 572q-30 0 -44 19.5t-6 48.5t32 48.5t54 19.5q29 0 43 -19.5t6 -48.5t-32 -48.5t-53 -19.5z" />
<glyph unicode="&#xf0;" horiz-adv-x="558" d="M269 -12h-3q-95 0 -143.5 66t-20.5 173q27 103 104 165t160 62q71 0 99 -46q-4 82 -50 143l-162 -72l-20 60l136 61q-38 31 -79 56l82 83q71 -43 115 -86l160 71l20 -61l-136 -61q99 -136 45 -337q-33 -123 -117 -200t-190 -77zM456 305q-29 48 -90 48q-48 0 -85.5 -33 t-53.5 -93q-16 -59 6 -94t67 -35q47 0 85.5 41t59.5 119q8 32 11 47z" />
<glyph unicode="&#xf1;" horiz-adv-x="568" d="M68 0l130 495h111l-7 -64h4q100 76 181 76q154 0 101 -198l-83 -308h-136l78 290q14 56 4.5 78t-44.5 22q-27 0 -51.5 -12.5t-61.5 -40.5l-90 -338h-136zM524 575q-22 0 -40 10.5t-28 23t-22 23t-23 10.5q-31 0 -53 -59l-84 5q44 149 160 149q22 0 40 -10.5t28 -23 t22 -23t23 -10.5q31 0 52 59l85 -5q-44 -149 -160 -149z" />
<glyph unicode="&#xf2;" horiz-adv-x="553" d="M273 -12q-98 0 -149.5 70.5t-19.5 188.5q32 119 121 189.5t187 70.5t149.5 -70.5t19.5 -189.5q-32 -118 -121 -188.5t-187 -70.5zM302 98h1q48 0 84.5 40t54.5 109q19 67 3.5 108t-63.5 41q-47 0 -84 -40t-55 -109q-19 -67 -3.5 -108t62.5 -41zM424 572l-135 157l116 90 l104 -180z" />
<glyph unicode="&#xf3;" horiz-adv-x="553" d="M273 -12q-98 0 -149.5 70.5t-19.5 188.5q32 119 121 189.5t187 70.5t149.5 -70.5t19.5 -189.5q-32 -118 -121 -188.5t-187 -70.5zM302 98h1q48 0 84.5 40t54.5 109q19 67 3.5 108t-63.5 41q-47 0 -84 -40t-55 -109q-19 -67 -3.5 -108t62.5 -41zM436 572l-49 66l199 180 l69 -90z" />
<glyph unicode="&#xf4;" horiz-adv-x="553" d="M273 -12q-98 0 -149.5 70.5t-19.5 188.5q32 119 121 189.5t187 70.5t149.5 -70.5t19.5 -189.5q-32 -118 -121 -188.5t-187 -70.5zM302 98h1q48 0 84.5 40t54.5 109q19 67 3.5 108t-63.5 41q-47 0 -84 -40t-55 -109q-19 -67 -3.5 -108t62.5 -41zM262 611l145 133h138 l74 -133l-66 -49l-99 96h-4l-149 -96z" />
<glyph unicode="&#xf5;" horiz-adv-x="553" d="M273 -12q-98 0 -149.5 70.5t-19.5 188.5q32 119 121 189.5t187 70.5t149.5 -70.5t19.5 -189.5q-32 -118 -121 -188.5t-187 -70.5zM302 98h1q48 0 84.5 40t54.5 109q19 67 3.5 108t-63.5 41q-47 0 -84 -40t-55 -109q-19 -67 -3.5 -108t62.5 -41zM498 574q-28 0 -48.5 17 t-36 33.5t-28.5 16.5q-31 0 -53 -59l-84 5q44 149 160 149q28 0 48.5 -17t36 -33.5t28.5 -16.5q31 0 52 59l85 -5q-44 -149 -160 -149z" />
<glyph unicode="&#xf6;" horiz-adv-x="553" d="M273 -12q-98 0 -149.5 70.5t-19.5 188.5q32 119 121 189.5t187 70.5t149.5 -70.5t19.5 -189.5q-32 -118 -121 -188.5t-187 -70.5zM302 98h1q48 0 84.5 40t54.5 109q19 67 3.5 108t-63.5 41q-47 0 -84 -40t-55 -109q-19 -67 -3.5 -108t62.5 -41zM537 572q-29 0 -43 19.5 t-6 48.5t32 48.5t53 19.5q30 0 44 -19.5t6 -48.5t-32 -48.5t-54 -19.5zM323 572q-30 0 -44 19.5t-6 48.5t32 48.5t54 19.5q29 0 43 -19.5t6 -48.5t-32 -48.5t-53 -19.5z" />
<glyph unicode="&#xf7;" horiz-adv-x="523" d="M109 282l27 97h455l-27 -97h-455zM379 437q-33 0 -50 20.5t-8 52.5q8 31 36 51.5t61 20.5q32 0 48.5 -20.5t8.5 -51.5q-9 -32 -36 -52.5t-60 -20.5zM282 77q-33 0 -49.5 20.5t-8.5 52.5q9 31 36.5 51.5t60.5 20.5t49.5 -20.5t7.5 -51.5q-8 -32 -35.5 -52.5t-60.5 -20.5z " />
<glyph unicode="&#xf8;" horiz-adv-x="553" d="M273 -12q-75 0 -123 42l-59 -55l-42 40l65 60q-37 70 -10 172q32 119 121 189.5t187 70.5q74 0 123 -41l58 54l42 -40l-64 -59q37 -71 10 -174q-32 -118 -121 -188.5t-187 -70.5zM301 94v-1q49 0 89 40.5t57 105.5q12 45 12 77l-215 -199q20 -23 57 -23zM226 180l214 198 q-19 22 -56 22q-48 0 -88.5 -40.5t-57.5 -105.5q-12 -43 -12 -74z" />
<glyph unicode="&#xf9;" horiz-adv-x="564" d="M213 -12q-153 0 -100 198l83 308h136l-78 -290q-14 -56 -4.5 -78t44.5 -22q51 0 111 59l88 331h136l-132 -494h-111l9 70h-4q-90 -82 -178 -82h1h-1zM431 572l-135 157l116 90l104 -180z" />
<glyph unicode="&#xfa;" horiz-adv-x="564" d="M213 -12q-153 0 -100 198l83 308h136l-78 -290q-14 -56 -4.5 -78t44.5 -22q51 0 111 59l88 331h136l-132 -494h-111l9 70h-4q-90 -82 -178 -82h1h-1zM444 572l-49 66l199 180l69 -90z" />
<glyph unicode="&#xfb;" horiz-adv-x="564" d="M213 -12q-153 0 -100 198l83 308h136l-78 -290q-14 -56 -4.5 -78t44.5 -22q51 0 111 59l88 331h136l-132 -494h-111l9 70h-4q-90 -82 -178 -82h1h-1zM270 611l145 133h138l74 -133l-66 -49l-99 96h-4l-149 -96z" />
<glyph unicode="&#xfc;" horiz-adv-x="564" d="M213 -12q-153 0 -100 198l83 308h136l-78 -290q-14 -56 -4.5 -78t44.5 -22q51 0 111 59l88 331h136l-132 -494h-111l9 70h-4q-90 -82 -178 -82h1h-1zM545 572q-29 0 -43 19.5t-6 48.5t32 48.5t53 19.5q30 0 44 -19.5t6 -48.5t-32 -48.5t-54 -19.5zM331 572 q-30 0 -44 19.5t-6 48.5t32 48.5t54 19.5q29 0 43 -19.5t6 -48.5t-32 -48.5t-53 -19.5z" />
<glyph unicode="&#xfd;" horiz-adv-x="512" d="M63 -196l1 -1q-36 0 -66 10l52 104q27 -6 33 -6q67 0 110 72l16 28l-63 484h137l16 -223q2 -44 2 -140h4q50 96 74 140l124 223h130l-310 -506q-61 -95 -120 -140t-140 -45zM424 572l-49 66l199 180l69 -90z" />
<glyph unicode="&#xfe;" horiz-adv-x="570" d="M17 -188l238 890h136l-47 -175l-22 -72q75 51 141 51q94 0 129.5 -68t4.5 -184q-32 -122 -113.5 -194.5t-166.5 -72.5q-64 0 -107 48l-17 -75l-40 -148h-136zM315 99q44 0 82.5 39t58.5 115q38 141 -55 141q-46 0 -106 -48l-57 -212q31 -35 77 -35z" />
<glyph unicode="&#xff;" horiz-adv-x="512" d="M63 -196l1 -1q-36 0 -66 10l52 104q27 -6 33 -6q67 0 110 72l16 28l-63 484h137l16 -223q2 -44 2 -140h4q50 96 74 140l124 223h130l-310 -506q-61 -95 -120 -140t-140 -45zM525 571q-29 0 -43 19.5t-6 48.5t32 48.5t53 19.5q30 0 44 -19.5t6 -48.5t-32 -48.5t-54 -19.5z M311 571q-30 0 -44 19.5t-6 48.5t32 48.5t54 19.5q29 0 43 -19.5t6 -48.5t-32 -48.5t-53 -19.5z" />
<glyph unicode="&#x100;" horiz-adv-x="568" d="M-5 0l385 653h162l33 -652h-145v162h-207l-88 -163h-140zM329 724l23 88h297l-23 -88h-297zM280 270h150v67q-2 55 0 172q1 13 1 39h-4q-87 -169 -111 -212z" />
<glyph unicode="&#x101;" horiz-adv-x="523" d="M187 -12q-66 0 -95.5 42t-11.5 106q21 79 100 122.5t231 59.5q16 80 -61 80q-54 0 -146 -46l-24 90q121 65 225 65q193 0 134 -221l-76 -286h-111l4 52h-4q-92 -64 -165 -64zM287 594l23 88h291l-23 -88h-291zM260 94q43 0 103 47l25 95q-158 -20 -176 -89 q-13 -53 48 -53z" />
<glyph unicode="&#x102;" horiz-adv-x="568" d="M-5 0l385 653h162l33 -652h-145v162h-207l-88 -163h-140zM471 699h-2q-72 0 -103 35t-21 101l79 13q-2 -32 15 -50t52 -18q72 0 104 68l71 -13q-49 -136 -195 -136zM280 270h150v67q-2 55 0 172q1 13 1 39h-4q-87 -169 -111 -212z" />
<glyph unicode="&#x103;" horiz-adv-x="523" d="M187 -12q-66 0 -95.5 42t-11.5 106q21 79 100 122.5t231 59.5q16 80 -61 80q-54 0 -146 -46l-24 90q121 65 225 65q193 0 134 -221l-76 -286h-111l4 52h-4q-92 -64 -165 -64zM426 572q-80 0 -110 43.5t-15 112.5l82 13q-4 -36 12 -59.5t55 -23.5t67.5 23.5t43.5 59.5 l74 -13q-21 -69 -74.5 -112.5t-134.5 -43.5zM260 94q43 0 103 47l25 95q-158 -20 -176 -89q-13 -53 48 -53z" />
<glyph unicode="&#x104;" horiz-adv-x="568" d="M436 -222l2 2q-48 0 -73 25t-13 69q11 41 45 76t69 52h-36v162h-207l-88 -163h-140l382 652h162l33 -652q-40 -6 -72.5 -34t-41.5 -60q-4 -19 4.5 -29t25.5 -10q21 0 44 14l13 -70q-54 -34 -109 -34zM280 271h150v67q-2 55 0 172q1 13 1 39h-4q-87 -169 -111 -212z" />
<glyph unicode="&#x105;" horiz-adv-x="523" d="M329 -210l1 -2q-45 0 -68 24t-11 67q10 39 40 69.5t62 48.5l3 53h-4q-92 -64 -165 -64q-66 0 -95.5 42t-11.5 106q21 79 100 122.5t231 59.5q16 80 -61 80q-54 0 -146 -46l-24 90q121 65 225 65q193 0 134 -221l-76 -286q-48 -13 -76.5 -37t-35.5 -51q-5 -19 4.5 -29 t27.5 -10q20 0 40 13l12 -62q-51 -32 -106 -32zM261 91q43 0 103 47l25 95q-158 -20 -176 -89q-13 -53 48 -53z" />
<glyph unicode="&#x106;" horiz-adv-x="580" d="M345 -12q-130 0 -191.5 88.5t-18.5 246.5q41 156 153.5 248.5t241.5 92.5q115 0 171 -84l-95 -88q-42 54 -104 54q-73 0 -136.5 -59.5t-90.5 -159.5q-28 -103 1 -162t105 -59q73 0 148 63l50 -86q-109 -95 -234 -95zM513 683l-42 68l202 138l50 -88z" />
<glyph unicode="&#x107;" horiz-adv-x="466" d="M277 -12l-2 -1q-106 0 -155.5 69.5t-17.5 189.5q32 119 124.5 189.5t198.5 70.5q84 0 131 -54l-88 -88q-29 32 -64 32q-55 0 -99.5 -40.5t-62.5 -108.5q-18 -67 4 -108t74 -41q47 0 104 39l30 -89q-83 -60 -177 -60zM446 571l-49 66l199 180l69 -90z" />
<glyph unicode="&#x108;" horiz-adv-x="580" d="M345 -12q-130 0 -191.5 88.5t-18.5 246.5q41 156 153.5 248.5t241.5 92.5q115 0 171 -84l-95 -88q-42 54 -104 54q-73 0 -136.5 -59.5t-90.5 -159.5q-28 -103 1 -162t105 -59q73 0 148 63l50 -86q-109 -95 -234 -95zM369 724l122 111h147l63 -111l-69 -37l-82 85h-4 l-128 -85z" />
<glyph unicode="&#x109;" horiz-adv-x="466" d="M277 -12l-2 -1q-106 0 -155.5 69.5t-17.5 189.5q32 119 124.5 189.5t198.5 70.5q84 0 131 -54l-88 -88q-29 32 -64 32q-55 0 -99.5 -40.5t-62.5 -108.5q-18 -67 4 -108t74 -41q47 0 104 39l30 -89q-83 -60 -177 -60zM272 610l145 133h138l74 -133l-66 -49l-99 96h-4 l-149 -96z" />
<glyph unicode="&#x10a;" horiz-adv-x="580" d="M345 -12q-130 0 -191.5 88.5t-18.5 246.5q41 156 153.5 248.5t241.5 92.5q115 0 171 -84l-95 -88q-42 54 -104 54q-73 0 -136.5 -59.5t-90.5 -159.5q-28 -103 1 -162t105 -59q73 0 148 63l50 -86q-109 -95 -234 -95zM529 703q-35 0 -52 20.5t-8 52.5q8 31 36 51.5 t63 20.5t52 -20.5t9 -51.5q-9 -32 -37 -52.5t-63 -20.5z" />
<glyph unicode="&#x10b;" horiz-adv-x="466" d="M277 -12l-2 -1q-106 0 -155.5 69.5t-17.5 189.5q32 119 124.5 189.5t198.5 70.5q84 0 131 -54l-88 -88q-29 32 -64 32q-55 0 -99.5 -40.5t-62.5 -108.5q-18 -67 4 -108t74 -41q47 0 104 39l30 -89q-83 -60 -177 -60zM440 571q-34 0 -50 20.5t-7 52.5q8 32 35 52.5 t61 20.5t50 -20.5t8 -52.5q-9 -32 -36 -52.5t-61 -20.5z" />
<glyph unicode="&#x10c;" horiz-adv-x="580" d="M345 -12q-130 0 -191.5 88.5t-18.5 246.5q41 156 153.5 248.5t241.5 92.5q115 0 171 -84l-95 -88q-42 54 -104 54q-73 0 -136.5 -59.5t-90.5 -159.5q-28 -103 1 -162t105 -59q73 0 148 63l50 -86q-109 -95 -234 -95zM456 702l-63 111l69 37l82 -85h4l128 85l49 -37 l-122 -111h-147z" />
<glyph unicode="&#x10d;" horiz-adv-x="466" d="M277 -12l-2 -1q-106 0 -155.5 69.5t-17.5 189.5q32 119 124.5 189.5t198.5 70.5q84 0 131 -54l-88 -88q-29 32 -64 32q-55 0 -99.5 -40.5t-62.5 -108.5q-18 -67 4 -108t74 -41q47 0 104 39l30 -89q-83 -60 -177 -60zM372 575l-75 133l66 49l99 -96h4l149 96l39 -49 l-144 -133h-138z" />
<glyph unicode="&#x10e;" horiz-adv-x="631" d="M79 0l174 653h181q154 0 218 -80.5t21 -242.5q-44 -163 -151 -246.5t-255 -83.5h-188zM244 111l35 -1q193 0 253 220q30 113 -6.5 163t-129.5 50h-36zM429 702l-63 111l69 37l82 -85h4l128 85l49 -37l-122 -111h-147z" />
<glyph unicode="&#x10f;" horiz-adv-x="607" d="M240 -12l1 -1q-93 0 -129.5 69t-4.5 190q31 117 111.5 188.5t164.5 71.5q68 0 110 -52l15 76l46 172h136l-188 -702h-111l3 50h-4q-80 -62 -150 -62zM305 99v-2q51 0 101 49l57 212q-28 35 -78 35q-42 0 -80.5 -38t-57.5 -108q-40 -148 58 -148zM696 545l53 220h88 l-19 -67l-63 -153h-59z" />
<glyph unicode="&#x110;" horiz-adv-x="656" d="M104 0l81 305h-77l17 62l78 5l75 281h181q154 0 218 -80.5t21 -242.5q-44 -163 -151 -246.5t-255 -83.5h-188zM269 111l35 -1q193 0 253 220q30 113 -6.5 163t-129.5 50h-36l-46 -171h129l-18 -67h-129z" />
<glyph unicode="&#x111;" horiz-adv-x="570" d="M240 -12q-92 0 -130 64t-9 172q27 102 106.5 168.5t162.5 66.5q66 0 111 -53l15 77l20 76h-151l19 68h151l20 75h136l-20 -75h69l-17 -62l-70 -5l-150 -560h-114l4 46h-4q-75 -58 -149 -58zM304 100h1q51 0 101 49l44 165q-28 35 -78 35q-41 0 -79 -33t-53 -89 q-16 -61 0.5 -94t63.5 -33z" />
<glyph unicode="&#x112;" horiz-adv-x="544" d="M79 0l174 653h403l-30 -114h-267l-39 -144h227l-30 -115h-227l-44 -165h277l-31 -115h-413zM332 724l23 88h297l-23 -88h-297z" />
<glyph unicode="&#x113;" horiz-adv-x="514" d="M283 -12l1 -1q-108 0 -159.5 70t-19.5 189q31 116 119.5 188t181.5 72q100 0 136.5 -65t7.5 -171q-8 -35 -22 -62h-302q-7 -57 20.5 -86t82.5 -29q53 0 119 33l22 -83q-94 -55 -187 -55zM285 591l23 88h291l-23 -88h-291zM250 298l194 -1q27 104 -62 104q-39 0 -75.5 -27 t-56.5 -76z" />
<glyph unicode="&#x114;" horiz-adv-x="544" d="M79 0l174 653h403l-30 -114h-267l-39 -144h227l-30 -115h-227l-44 -165h277l-31 -115h-413zM474 699h-2q-72 0 -103 35t-21 101l79 13q-2 -32 15 -50t52 -18q72 0 104 68l71 -13q-49 -136 -195 -136z" />
<glyph unicode="&#x115;" horiz-adv-x="514" d="M283 -12l1 -1q-108 0 -159.5 70t-19.5 189q31 116 119.5 188t181.5 72q100 0 136.5 -65t7.5 -171q-8 -35 -22 -62h-302q-7 -57 20.5 -86t82.5 -29q53 0 119 33l22 -83q-94 -55 -187 -55zM425 570q-80 0 -110 43.5t-15 112.5l82 13q-4 -36 12 -59.5t55 -23.5t67.5 23.5 t43.5 59.5l74 -13q-21 -69 -74.5 -112.5t-134.5 -43.5zM250 298l194 -1q27 104 -62 104q-39 0 -75.5 -27t-56.5 -76z" />
<glyph unicode="&#x116;" horiz-adv-x="544" d="M79 0l174 653h403l-30 -114h-267l-39 -144h227l-30 -115h-227l-44 -165h277l-31 -115h-413zM475 704q-35 0 -52 20.5t-8 52.5q8 31 36 51.5t63 20.5t52 -20.5t9 -51.5q-9 -32 -37 -52.5t-63 -20.5z" />
<glyph unicode="&#x117;" horiz-adv-x="514" d="M283 -12l1 -1q-108 0 -159.5 70t-19.5 189q31 116 119.5 188t181.5 72q100 0 136.5 -65t7.5 -171q-8 -35 -22 -62h-302q-7 -57 20.5 -86t82.5 -29q53 0 119 33l22 -83q-94 -55 -187 -55zM425 570q-34 0 -50 20.5t-7 52.5q8 32 35 52.5t61 20.5t50 -20.5t8 -52.5 q-9 -32 -36 -52.5t-61 -20.5zM250 298l194 -1q27 104 -62 104q-39 0 -75.5 -27t-56.5 -76z" />
<glyph unicode="&#x118;" horiz-adv-x="544" d="M352 -222q-47 0 -72 25t-13 69q11 41 43.5 75t68.5 54h-299l175 652h403l-30 -114h-267l-39 -144h227l-30 -115h-227l-44 -165h277l-31 -115h-5q-35 -1 -69 -29.5t-44 -63.5q-5 -19 5 -29t28 -10q16 0 40 14l13 -70q-54 -34 -110 -34h1h-1z" />
<glyph unicode="&#x119;" horiz-adv-x="514" d="M305 -210l2 -2q-45 0 -67.5 23.5t-10.5 67.5q16 62 86 111q-14 -4 -32 -4q-108 0 -159.5 70t-19.5 189q31 116 119.5 188t181.5 72q100 0 136.5 -65t7.5 -171q-8 -35 -22 -62h-302q-7 -57 20.5 -86t82.5 -29q53 0 119 33l22 -83q-76 -44 -105.5 -72.5t-37.5 -59.5 q-5 -19 4.5 -29t28.5 -10q18 0 40 13l12 -62q-51 -32 -106 -32zM250 296l194 -1q27 104 -62 104q-39 0 -75.5 -27t-56.5 -76z" />
<glyph unicode="&#x11a;" horiz-adv-x="544" d="M79 0l174 653h403l-30 -114h-267l-39 -144h227l-30 -115h-227l-44 -165h277l-31 -115h-413zM401 703l-63 111l69 37l82 -85h4l128 85l49 -37l-122 -111h-147z" />
<glyph unicode="&#x11b;" horiz-adv-x="514" d="M283 -12l1 -1q-108 0 -159.5 70t-19.5 189q31 116 119.5 188t181.5 72q100 0 136.5 -65t7.5 -171q-8 -35 -22 -62h-302q-7 -57 20.5 -86t82.5 -29q53 0 119 33l22 -83q-94 -55 -187 -55zM357 575l-75 133l66 49l99 -96h4l149 96l39 -49l-144 -133h-138zM250 298l194 -1 q27 104 -62 104q-39 0 -75.5 -27t-56.5 -76z" />
<glyph unicode="&#x11c;" horiz-adv-x="634" d="M359 -12l-2 1q-139 0 -203.5 88t-21.5 247q42 157 156.5 249t249.5 92q122 0 181 -84l-95 -88q-44 53 -113 53q-80 0 -146 -59t-93 -160q-28 -106 4.5 -163.5t125.5 -57.5q50 0 85 22l33 122h-113l29 112h235l-79 -296q-44 -35 -106 -56.5t-127 -21.5zM390 725l122 111 h147l63 -111l-69 -37l-82 85h-4l-128 -85z" />
<glyph unicode="&#x11d;" horiz-adv-x="529" d="M185 -213v2q-92 0 -140.5 32t-32.5 95q16 61 98 101l1 4q-37 30 -23 83q15 54 80 92l1 4q-52 48 -31 129q23 84 94.5 131.5t155.5 47.5q43 0 73 -12h179l-27 -100h-83q13 -29 2 -71q-22 -81 -87.5 -124t-150.5 -43q-28 0 -59 11q-25 -17 -32 -40q-5 -20 10 -30t56 -10h83 q92 0 131 -30t22 -95q-21 -77 -109 -127t-211 -50zM263 615l145 133h138l74 -133l-66 -49l-99 96h-4l-149 -96zM229 -124l1 1q53 0 92 19.5t47 47.5q6 24 -11 33t-58 9h-57q-46 0 -67 7q-37 -24 -45 -55q-8 -30 18.5 -46t79.5 -16zM316 242q33 0 59.5 23t37.5 65 q11 41 -3.5 63.5t-47.5 22.5t-59.5 -22.5t-37.5 -63.5q-11 -42 3.5 -65t47.5 -23z" />
<glyph unicode="&#x11e;" horiz-adv-x="634" d="M359 -12l-2 1q-139 0 -203.5 88t-21.5 247q42 157 156.5 249t249.5 92q122 0 181 -84l-95 -88q-44 53 -113 53q-80 0 -146 -59t-93 -160q-28 -106 4.5 -163.5t125.5 -57.5q50 0 85 22l33 122h-113l29 112h235l-79 -296q-44 -35 -106 -56.5t-127 -21.5zM550 699h-2 q-72 0 -103 35t-21 101l79 13q-2 -32 15 -50t52 -18q72 0 104 68l71 -13q-49 -136 -195 -136z" />
<glyph unicode="&#x11f;" horiz-adv-x="529" d="M185 -213v2q-92 0 -140.5 32t-32.5 95q16 61 98 101l1 4q-37 30 -23 83q15 54 80 92l1 4q-52 48 -31 129q23 84 94.5 131.5t155.5 47.5q43 0 73 -12h179l-27 -100h-83q13 -29 2 -71q-22 -81 -87.5 -124t-150.5 -43q-28 0 -59 11q-25 -17 -32 -40q-5 -20 10 -30t56 -10h83 q92 0 131 -30t22 -95q-21 -77 -109 -127t-211 -50zM431 575q-80 0 -110 43.5t-15 112.5l82 13q-4 -36 12 -59.5t55 -23.5t67.5 23.5t43.5 59.5l74 -13q-21 -69 -74.5 -112.5t-134.5 -43.5zM229 -124l1 1q53 0 92 19.5t47 47.5q6 24 -11 33t-58 9h-57q-46 0 -67 7 q-37 -24 -45 -55q-8 -30 18.5 -46t79.5 -16zM316 242q33 0 59.5 23t37.5 65q11 41 -3.5 63.5t-47.5 22.5t-59.5 -22.5t-37.5 -63.5q-11 -42 3.5 -65t47.5 -23z" />
<glyph unicode="&#x120;" horiz-adv-x="634" d="M359 -12l-2 1q-139 0 -203.5 88t-21.5 247q42 157 156.5 249t249.5 92q122 0 181 -84l-95 -88q-44 53 -113 53q-80 0 -146 -59t-93 -160q-28 -106 4.5 -163.5t125.5 -57.5q50 0 85 22l33 122h-113l29 112h235l-79 -296q-44 -35 -106 -56.5t-127 -21.5zM550 704 q-35 0 -52 20.5t-8 52.5q8 31 36 51.5t63 20.5t52 -20.5t9 -51.5q-9 -32 -37 -52.5t-63 -20.5z" />
<glyph unicode="&#x121;" horiz-adv-x="529" d="M185 -213v2q-92 0 -140.5 32t-32.5 95q16 61 98 101l1 4q-37 30 -23 83q15 54 80 92l1 4q-52 48 -31 129q23 84 94.5 131.5t155.5 47.5q43 0 73 -12h179l-27 -100h-83q13 -29 2 -71q-22 -81 -87.5 -124t-150.5 -43q-28 0 -59 11q-25 -17 -32 -40q-5 -20 10 -30t56 -10h83 q92 0 131 -30t22 -95q-21 -77 -109 -127t-211 -50zM229 -124l1 1q53 0 92 19.5t47 47.5q6 24 -11 33t-58 9h-57q-46 0 -67 7q-37 -24 -45 -55q-8 -30 18.5 -46t79.5 -16zM316 242q33 0 59.5 23t37.5 65q11 41 -3.5 63.5t-47.5 22.5t-59.5 -22.5t-37.5 -63.5q-11 -42 3.5 -65 t47.5 -23zM431 575q-34 0 -50 20.5t-7 52.5q8 32 35 52.5t61 20.5t50 -20.5t8 -52.5q-9 -32 -36 -52.5t-61 -20.5z" />
<glyph unicode="&#x122;" horiz-adv-x="634" d="M359 -12l-2 1q-139 0 -203.5 88t-21.5 247q42 157 156.5 249t249.5 92q122 0 181 -84l-95 -88q-44 53 -113 53q-80 0 -146 -59t-93 -160q-28 -106 4.5 -163.5t125.5 -57.5q50 0 85 22l33 122h-113l29 112h235l-79 -296q-44 -35 -106 -56.5t-127 -21.5zM195 -236l4 55 q59 4 84.5 13.5t30.5 27.5q4 15 -9.5 24t-45.5 12l40 51q74 -7 99.5 -26.5t15.5 -56.5q-26 -94 -219 -100z" />
<glyph unicode="&#x123;" horiz-adv-x="529" d="M185 -213v2q-92 0 -140.5 32t-32.5 95q16 61 98 101l1 4q-37 30 -23 83q15 54 80 92l1 4q-52 48 -31 129q23 84 94.5 131.5t155.5 47.5q43 0 73 -12h179l-27 -100h-83q13 -29 2 -71q-22 -81 -87.5 -124t-150.5 -43q-28 0 -59 11q-25 -17 -32 -40q-5 -20 10 -30t56 -10h83 q92 0 131 -30t22 -95q-21 -77 -109 -127t-211 -50zM229 -124l1 1q53 0 92 19.5t47 47.5q6 24 -11 33t-58 9h-57q-46 0 -67 7q-37 -24 -45 -55q-8 -30 18.5 -46t79.5 -16zM475 573v-1q-74 7 -99.5 26.5t-15.5 56.5q24 93 219 101l-5 -56q-59 -3 -84 -12.5t-30 -27.5 q-4 -15 9.5 -24t45.5 -12zM316 242q33 0 59.5 23t37.5 65q11 41 -3.5 63.5t-47.5 22.5t-59.5 -22.5t-37.5 -63.5q-11 -42 3.5 -65t47.5 -23z" />
<glyph unicode="&#x124;" horiz-adv-x="670" d="M79 0l175 652h136l-69 -255h238l69 255h137l-175 -652h-137l75 278h-238l-75 -278h-136zM362 724l122 111h147l63 -111l-69 -37l-82 85h-4l-128 -85z" />
<glyph unicode="&#x125;" horiz-adv-x="567" d="M68 0l188 703h136l-47 -175l-31 -92q95 71 173 71q154 0 101 -198l-83 -308h-136l78 290q14 56 4.5 78t-44.5 22q-27 0 -51.5 -12.5t-61.5 -40.5l-90 -338h-136zM163 772l122 111h147l63 -111l-69 -37l-82 85h-4l-128 -85z" />
<glyph unicode="&#x126;" horiz-adv-x="708" d="M157 487l16 61l75 6l26 98h136l-27 -98h238l27 98h137l-26 -98h71l-17 -67h-72l-131 -487h-137l75 278h-238l-75 -278h-136l131 487h-73zM603 487h-238l-24 -90h238z" />
<glyph unicode="&#x127;" horiz-adv-x="567" d="M68 0l149 557h-69l16 61l71 5l21 78h136l-20 -77h170l-18 -67h-170l-21 -78l-31 -92q95 71 174 71q153 0 100 -198l-70 -261h-136l65 244q14 56 4.5 78t-44.5 22q-46 0 -113 -52l-78 -291h-136z" />
<glyph unicode="&#x128;" horiz-adv-x="295" d="M79 0l175 652h136l-175 -652h-136zM406 695l-1 1q-31 0 -54 15t-39.5 30t-30.5 15q-32 0 -53 -52l-86 6q23 70 65 105t95 35q24 0 44.5 -9.5t31 -20.5t23.5 -20.5t25 -9.5q33 0 54 52l87 -6q-23 -70 -65.5 -105.5t-95.5 -35.5z" />
<glyph unicode="&#x129;" horiz-adv-x="271" d="M68 0l132 494h136l-132 -494h-136zM357 574q-28 0 -48.5 17t-36 33.5t-28.5 16.5q-31 0 -53 -59l-84 5q44 149 160 149q22 0 40 -10.5t28 -23t22 -23t23 -10.5q31 0 52 59l85 -5q-44 -149 -160 -149z" />
<glyph unicode="&#x12a;" horiz-adv-x="295" d="M79 0l175 652h136l-175 -652h-136zM193 723l23 88h297l-23 -88h-297z" />
<glyph unicode="&#x12b;" horiz-adv-x="271" d="M68 0l132 494h136l-132 -494h-136zM149 593l23 88h291l-23 -88h-291z" />
<glyph unicode="&#x12c;" horiz-adv-x="295" d="M79 0l175 652h136l-175 -652h-136zM334 698h-2q-72 0 -103 35t-21 101l79 13q-2 -32 15 -50t52 -18q72 0 104 68l71 -13q-49 -136 -195 -136z" />
<glyph unicode="&#x12d;" horiz-adv-x="271" d="M68 0l132 494h136l-132 -494h-136zM289 571q-80 0 -110 43.5t-15 112.5l82 13q-4 -36 12 -59.5t55 -23.5t67.5 23.5t43.5 59.5l74 -13q-21 -69 -74.5 -112.5t-134.5 -43.5z" />
<glyph unicode="&#x12e;" horiz-adv-x="295" d="M95 -222v2q-48 0 -73 25t-13 69q20 73 108 127h-36l175 652h136l-175 -652q-82 -34 -99 -94q-5 -19 5 -29t27 -10q19 0 41 14l13 -70q-54 -34 -109 -34z" />
<glyph unicode="&#x12f;" horiz-adv-x="271" d="M88 -210v-2q-45 0 -68 24t-11 67q18 67 97 119h-38l132 494h136l-132 -494q-77 -29 -94 -88q-5 -19 5 -29t28 -10q15 0 39 13l12 -62q-51 -32 -106 -32zM289 569q-35 0 -52 20.5t-8 51.5q8 32 36 52.5t63 20.5t52 -20.5t9 -52.5q-9 -31 -37 -51.5t-63 -20.5z" />
<glyph unicode="&#x130;" horiz-adv-x="295" d="M79 0l175 652h136l-175 -652h-136zM335 703q-35 0 -52 20.5t-8 52.5q8 31 36 51.5t63 20.5t52 -20.5t9 -51.5q-9 -32 -37 -52.5t-63 -20.5z" />
<glyph unicode="&#x131;" horiz-adv-x="271" d="M68 0l132 494h136l-132 -494h-136z" />
<glyph unicode="&#x132;" horiz-adv-x="590" d="M293 -179q-50 0 -83 13l52 102q23 -7 39 -7q30 0 47 20t29 63l172 640h136l-171 -638q-51 -193 -221 -193zM79 0l175 652h136l-175 -652h-136z" />
<glyph unicode="&#x133;" horiz-adv-x="544" d="M253 -200l1 1q-52 0 -83 14l52 100q21 -7 38 -7q30 0 47 19.5t29 62.5l135 504h136l-134 -501q-51 -193 -221 -193zM68 0l132 494h136l-132 -494h-136zM289 571q-35 0 -52 20.5t-8 51.5q8 32 36 52.5t63 20.5t52 -20.5t9 -52.5q-9 -31 -37 -51.5t-63 -20.5zM563 572 q-35 0 -52 20.5t-8 51.5q8 32 36 52.5t63 20.5t52 -20.5t9 -52.5q-9 -31 -37 -51.5t-63 -20.5z" />
<glyph unicode="&#x134;" horiz-adv-x="504" d="M221 -12l-3 2q-141 0 -175 115l112 69q19 -67 77 -67q44 0 72.5 27t45.5 91l115 428h137l-117 -440q-26 -99 -94.5 -162t-169.5 -63zM383 726l122 111h147l63 -111l-69 -37l-82 85h-4l-128 -85z" />
<glyph unicode="&#x135;" horiz-adv-x="273" d="M-18 -200l1 1q-51 0 -83 14l52 100q21 -7 38 -7q30 0 47 19.5t29 62.5l135 504h136l-134 -501q-51 -193 -221 -193zM123 611l145 133h138l74 -133l-66 -49l-99 96h-4l-149 -96z" />
<glyph unicode="&#x136;" horiz-adv-x="608" d="M79 0l174 652h136l-74 -277h4l282 277h150l-268 -258l129 -394h-150l-88 286l-111 -106l-48 -180h-136zM167 -237l4 55q59 4 84.5 13.5t30.5 27.5q4 15 -9.5 24t-45.5 12l40 51q74 -7 99.5 -26.5t15.5 -56.5q-26 -94 -219 -100z" />
<glyph unicode="&#x137;" horiz-adv-x="539" d="M68 0l188 703h133l-111 -415h4l221 207h148l-226 -203l109 -292h-148l-63 200l-89 -77l-33 -123h-133zM128 -236l4 55q59 4 84.5 13.5t30.5 27.5q4 15 -9.5 24t-45.5 12l40 51q74 -7 99.5 -26.5t15.5 -56.5q-26 -94 -219 -100z" />
<glyph unicode="&#x138;" horiz-adv-x="539" d="M68 0l131 494h136l-56 -210h4l219 210h148l-223 -203l106 -292h-148l-64 196l-85 -77l-32 -118h-136z" />
<glyph unicode="&#x139;" horiz-adv-x="512" d="M79 0l176 653h136l-144 -538h262l-31 -115h-399zM324 684l-42 68l202 138l50 -88z" />
<glyph unicode="&#x13a;" horiz-adv-x="281" d="M192 -12h-2q-128 0 -85 157l149 558h136l-150 -564q-5 -23 -0.5 -32t15.5 -9q10 0 19 2l-10 -100q-29 -12 -72 -12zM307 738l-42 68l202 138l50 -88z" />
<glyph unicode="&#x13b;" horiz-adv-x="512" d="M79 0l176 653h136l-144 -538h262l-31 -115h-399zM128 -236l4 55q59 4 84.5 13.5t30.5 27.5q4 15 -9.5 24t-45.5 12l40 51q74 -7 99.5 -26.5t15.5 -56.5q-26 -94 -219 -100z" />
<glyph unicode="&#x13c;" horiz-adv-x="281" d="M192 -12h-2q-128 0 -85 157l149 558h136l-150 -564q-5 -23 -0.5 -32t15.5 -9q10 0 19 2l-10 -100q-29 -12 -72 -12zM17 -237l4 55q59 4 84.5 13.5t30.5 27.5q4 15 -9.5 24t-45.5 12l40 51q74 -7 99.5 -26.5t15.5 -56.5q-26 -94 -219 -100z" />
<glyph unicode="&#x13d;" horiz-adv-x="512" d="M79 0l176 653h136l-144 -538h262l-31 -115h-399zM498 511l53 220h88l-19 -67l-63 -153h-59z" />
<glyph unicode="&#x13e;" horiz-adv-x="311" d="M192 -12h-2q-128 0 -85 157l149 558h136l-150 -564q-5 -23 -0.5 -32t15.5 -9q10 0 19 2l-10 -100q-29 -12 -72 -12zM394 548l53 220h88l-19 -67l-63 -153h-59z" />
<glyph unicode="&#x13f;" horiz-adv-x="512" d="M79 0l176 653h136l-144 -538h262l-31 -115h-399zM403 241q-36 0 -53.5 25t-7.5 62t41 62.5t67 25.5t53 -25t7 -63q-10 -37 -40.5 -62t-66.5 -25z" />
<glyph unicode="&#x140;" horiz-adv-x="438" d="M192 -12h-2q-128 0 -85 157l149 558h136l-95 -359q14 32 42 52t60 20q36 0 53 -25t7 -63q-10 -37 -40.5 -62t-66.5 -25q-32 0 -49.5 20t-14.5 51l-46 -173q-5 -23 -0.5 -32t15.5 -9q10 0 19 2l-10 -100q-29 -12 -72 -12z" />
<glyph unicode="&#x141;" horiz-adv-x="518" d="M74 180l-24 81l123 60l89 331h136l-72 -269l183 89l25 -82l-236 -112l-44 -164h262l-31 -115h-399l59 218z" />
<glyph unicode="&#x142;" horiz-adv-x="296" d="M98 257l-24 86l106 52l82 309h136l-64 -242l58 30l24 -85l-112 -55l-56 -212q-5 -23 -0.5 -32t15.5 -9q10 0 19 2l-10 -100q-29 -12 -72 -12h-2q-128 0 -85 157l37 139z" />
<glyph unicode="&#x143;" horiz-adv-x="662" d="M79 0l175 653h140l90 -339l28 -142h4q3 16 9 53t10.5 61t11.5 57.5t14 60.5l66 248h130l-175 -652h-140l-90 340l-28 141h-4q-30 -178 -44 -231l-67 -250h-130zM504 684l-42 68l202 138l50 -88z" />
<glyph unicode="&#x144;" horiz-adv-x="568" d="M68 0l130 495h111l-7 -64h4q100 76 181 76q154 0 101 -198l-83 -308h-136l78 290q14 56 4.5 78t-44.5 22q-27 0 -51.5 -12.5t-61.5 -40.5l-90 -338h-136zM463 573l-49 66l199 180l69 -90z" />
<glyph unicode="&#x145;" horiz-adv-x="662" d="M79 0l175 653h140l90 -339l28 -142h4q3 16 9 53t10.5 61t11.5 57.5t14 60.5l66 248h130l-175 -652h-140l-90 340l-28 141h-4q-30 -178 -44 -231l-67 -250h-130zM178 -236l4 55q59 4 84.5 13.5t30.5 27.5q4 15 -9.5 24t-45.5 12l40 51q74 -7 99.5 -26.5t15.5 -56.5 q-26 -94 -219 -100z" />
<glyph unicode="&#x146;" horiz-adv-x="568" d="M68 0l130 495h111l-7 -64h4q100 76 181 76q154 0 101 -198l-83 -308h-136l78 290q14 56 4.5 78t-44.5 22q-27 0 -51.5 -12.5t-61.5 -40.5l-90 -338h-136zM124 -236l4 55q59 4 84.5 13.5t30.5 27.5q4 15 -9.5 24t-45.5 12l40 51q74 -7 99.5 -26.5t15.5 -56.5 q-26 -94 -219 -100z" />
<glyph unicode="&#x147;" horiz-adv-x="662" d="M79 0l175 653h140l90 -339l28 -142h4q3 16 9 53t10.5 61t11.5 57.5t14 60.5l66 248h130l-175 -652h-140l-90 340l-28 141h-4q-30 -178 -44 -231l-67 -250h-130zM447 703l-63 111l69 37l82 -85h4l128 85l49 -37l-122 -111h-147z" />
<glyph unicode="&#x148;" horiz-adv-x="568" d="M68 0l130 495h111l-7 -64h4q100 76 181 76q154 0 101 -198l-83 -308h-136l78 290q14 56 4.5 78t-44.5 22q-27 0 -51.5 -12.5t-61.5 -40.5l-90 -338h-136zM389 577l-75 133l66 49l99 -96h4l149 96l39 -49l-144 -133h-138z" />
<glyph unicode="&#x149;" horiz-adv-x="839" d="M336 0l130 495h111l-7 -64h4q100 76 181 76q154 0 101 -198l-83 -308h-136l78 290q14 56 4.5 78t-44.5 22q-27 0 -51.5 -12.5t-61.5 -40.5l-90 -338h-136zM195 366l-16 60q99 45 122 126q-3 -1 -9 -1q-31 0 -47 19t-7 50q10 36 35.5 57t57.5 21q43 0 57.5 -33t-1.5 -91 q-36 -139 -192 -208z" />
<glyph unicode="&#x14a;" horiz-adv-x="661" d="M408 -12h1q-60 0 -84 18l62 119q18 -9 40 -9q37 0 70 47.5t66 169.5q59 214 -67 214q-33 0 -77 -23t-79 -62l-123 -462h-136l175 652h132l-20 -72q98 84 200 84q67 0 106.5 -32t51 -106t-22.5 -194q-47 -176 -119.5 -260t-174.5 -84h-1z" />
<glyph unicode="&#x14b;" horiz-adv-x="568" d="M286 -186l-2 1q-50 0 -82 14l52 101q21 -7 38 -7q30 0 47 19.5t29 62.5l77 286q14 56 4.5 78t-44.5 22q-27 0 -51.5 -12.5t-61.5 -40.5l-90 -338h-136l132 494h111l-7 -64h4q100 76 181 76q154 0 101 -198l-81 -301q-51 -193 -221 -193z" />
<glyph unicode="&#x14c;" horiz-adv-x="681" d="M337 -12q-132 0 -188 91.5t-14 249.5q42 157 146 246t237 89t189.5 -89.5t14.5 -245.5q-42 -158 -147.5 -249.5t-237.5 -91.5zM368 106q70 0 128 60.5t86 162.5q27 102 1 159.5t-97 57.5t-127.5 -58t-83.5 -159q-28 -102 -2.5 -162.5t95.5 -60.5zM386 724l23 88h297 l-23 -88h-297z" />
<glyph unicode="&#x14d;" horiz-adv-x="553" d="M273 -12q-98 0 -149.5 70.5t-19.5 188.5q32 119 121 189.5t187 70.5t149.5 -70.5t19.5 -189.5q-32 -118 -121 -188.5t-187 -70.5zM302 98h1q48 0 84.5 40t54.5 109q19 67 3.5 108t-63.5 41q-47 0 -84 -40t-55 -109q-19 -67 -3.5 -108t62.5 -41zM290 593l23 88h291 l-23 -88h-291z" />
<glyph unicode="&#x14e;" horiz-adv-x="681" d="M337 -12q-132 0 -188 91.5t-14 249.5q42 157 146 246t237 89t189.5 -89.5t14.5 -245.5q-42 -158 -147.5 -249.5t-237.5 -91.5zM368 106q70 0 128 60.5t86 162.5q27 102 1 159.5t-97 57.5t-127.5 -58t-83.5 -159q-28 -102 -2.5 -162.5t95.5 -60.5zM527 698h-2 q-72 0 -103 35t-21 101l79 13q-2 -32 15 -50t52 -18q72 0 104 68l71 -13q-49 -136 -195 -136z" />
<glyph unicode="&#x14f;" horiz-adv-x="553" d="M273 -12q-98 0 -149.5 70.5t-19.5 188.5q32 119 121 189.5t187 70.5t149.5 -70.5t19.5 -189.5q-32 -118 -121 -188.5t-187 -70.5zM302 98h1q48 0 84.5 40t54.5 109q19 67 3.5 108t-63.5 41q-47 0 -84 -40t-55 -109q-19 -67 -3.5 -108t62.5 -41zM430 572q-80 0 -110 43.5 t-15 112.5l82 13q-4 -36 12 -59.5t55 -23.5t67.5 23.5t43.5 59.5l74 -13q-21 -69 -74.5 -112.5t-134.5 -43.5z" />
<glyph unicode="&#x150;" horiz-adv-x="681" d="M337 -12q-132 0 -188 91.5t-14 249.5q42 157 146 246t237 89t189.5 -89.5t14.5 -245.5q-42 -158 -147.5 -249.5t-237.5 -91.5zM368 106q70 0 128 60.5t86 162.5q27 102 1 159.5t-97 57.5t-127.5 -58t-83.5 -159q-28 -102 -2.5 -162.5t95.5 -60.5zM406 728l143 160l73 -49 l-157 -143zM590 729l143 160l73 -49l-157 -143z" />
<glyph unicode="&#x151;" horiz-adv-x="553" d="M273 -12q-98 0 -149.5 70.5t-19.5 188.5q32 119 121 189.5t187 70.5t149.5 -70.5t19.5 -189.5q-32 -118 -121 -188.5t-187 -70.5zM302 98h1q48 0 84.5 40t54.5 109q19 67 3.5 108t-63.5 41q-47 0 -84 -40t-55 -109q-19 -67 -3.5 -108t62.5 -41zM376 566l-63 32l135 179 l81 -41zM550 566l-63 32l135 179l81 -41z" />
<glyph unicode="&#x152;" horiz-adv-x="867" d="M372 0q-147 0 -213.5 84.5t-22.5 245.5q43 160 154.5 241.5t263.5 81.5h425l-30 -114h-253l-39 -144h213l-30 -115h-213l-44 -165h263l-31 -115h-443zM417 110h28l116 432h-28q-201 0 -257 -213q-59 -219 141 -219z" />
<glyph unicode="&#x153;" horiz-adv-x="825" d="M263 -12q-97 0 -144 70t-15 189q32 120 117.5 190t183.5 70q103 0 137 -93q88 93 185 93q94 0 127.5 -66.5t5.5 -172.5q-10 -34 -22 -59h-293q-7 -54 19 -83.5t76 -29.5q46 0 118 36l23 -89q-94 -55 -187 -55q-47 0 -83.5 24.5t-54.5 68.5q-87 -93 -193 -93zM242 247 q-18 -67 -3.5 -108t57.5 -41t79.5 40.5t54.5 108.5q18 67 3 108t-58 41t-79 -40.5t-54 -108.5zM568 292h182q15 50 1 80t-56 30q-39 0 -73 -28.5t-54 -81.5z" />
<glyph unicode="&#x154;" horiz-adv-x="606" d="M79 0l174 654h230q248 0 194 -200q-37 -139 -172 -189l79 -263h-153l-65 240h-87l-64 -242h-136zM308 352h80q127 0 154 103q14 49 -11.5 70t-89.5 21h-81zM475 685l-42 68l202 138l50 -88z" />
<glyph unicode="&#x155;" horiz-adv-x="390" d="M68 0l133 495h111l-13 -87h4q81 99 166 99q34 0 56 -10l-55 -118q-32 8 -50 8q-74 0 -138 -95l-78 -292h-136zM403 573l-49 66l199 180l69 -90z" />
<glyph unicode="&#x156;" horiz-adv-x="606" d="M79 0l174 654h230q248 0 194 -200q-37 -139 -172 -189l79 -263h-153l-65 240h-87l-64 -242h-136zM308 352h80q127 0 154 103q14 49 -11.5 70t-89.5 21h-81zM157 -235l4 55q59 4 84.5 13.5t30.5 27.5q4 15 -9.5 24t-45.5 12l40 51q74 -7 99.5 -26.5t15.5 -56.5 q-26 -94 -219 -100z" />
<glyph unicode="&#x157;" horiz-adv-x="390" d="M68 0l133 495h111l-13 -87h4q81 99 166 99q34 0 56 -10l-55 -118q-32 8 -50 8q-74 0 -138 -95l-78 -292h-136zM-27 -236l4 55q59 4 84.5 13.5t30.5 27.5q4 15 -9.5 24t-45.5 12l40 51q74 -7 99.5 -26.5t15.5 -56.5q-26 -94 -219 -100z" />
<glyph unicode="&#x158;" horiz-adv-x="606" d="M79 0l174 654h230q248 0 194 -200q-37 -139 -172 -189l79 -263h-153l-65 240h-87l-64 -242h-136zM308 352h80q127 0 154 103q14 49 -11.5 70t-89.5 21h-81zM418 705l-63 111l69 37l82 -85h4l128 85l49 -37l-122 -111h-147z" />
<glyph unicode="&#x159;" horiz-adv-x="390" d="M68 0l133 495h111l-13 -87h4q81 99 166 99q34 0 56 -10l-55 -118q-32 8 -50 8q-74 0 -138 -95l-78 -292h-136zM328 577l-75 133l66 49l99 -96h4l149 96l39 -49l-144 -133h-138z" />
<glyph unicode="&#x15a;" horiz-adv-x="552" d="M273 -12l-1 4q-65 0 -121.5 24.5t-92.5 69.5l103 94q59 -71 144 -71q99 0 119 70q8 29 -8 44.5t-59 35.5l-6 3l-76 37q-117 53 -85 176q22 81 101 136t178 55q123 0 185 -85l-93 -86q-53 53 -124 53q-41 0 -69.5 -17t-36.5 -48q-6 -20 4 -35.5t24.5 -23.5t44.5 -21l6 -3 l75 -35q116 -52 83 -177q-23 -84 -104 -142t-191 -58zM460 687l-42 68l202 138l50 -88z" />
<glyph unicode="&#x15b;" horiz-adv-x="439" d="M210 -12q-49 0 -94.5 18.5t-74.5 49.5l84 86q55 -53 116 -53q67 0 81 49q3 12 -0.5 21.5t-16.5 18t-22.5 13.5t-30.5 14q-5 1 -13 5q-120 51 -95 145q18 68 80 110t146 42q91 0 155 -62l-84 -82q-46 43 -95 43q-62 0 -74 -45q-4 -14 6 -25.5t23 -18t39 -16.5q4 -2 14 -6 q56 -23 84 -55.5t12 -93.5q-19 -69 -82.5 -113t-157.5 -45zM396 572l-49 66l199 180l69 -90zM208 -12h2h-2z" />
<glyph unicode="&#x15c;" horiz-adv-x="552" d="M273 -12l-1 4q-65 0 -121.5 24.5t-92.5 69.5l103 94q59 -71 144 -71q99 0 119 70q8 29 -8 44.5t-59 35.5l-6 3l-76 37q-117 53 -85 176q22 81 101 136t178 55q123 0 185 -85l-93 -86q-53 53 -124 53q-41 0 -69.5 -17t-36.5 -48q-6 -20 4 -35.5t24.5 -23.5t44.5 -21l6 -3 l75 -35q116 -52 83 -177q-23 -84 -104 -142t-191 -58zM317 728l122 111h147l63 -111l-69 -37l-82 85h-4l-128 -85z" />
<glyph unicode="&#x15d;" horiz-adv-x="439" d="M210 -12q-49 0 -94.5 18.5t-74.5 49.5l84 86q55 -53 116 -53q67 0 81 49q3 12 -0.5 21.5t-16.5 18t-22.5 13.5t-30.5 14q-5 1 -13 5q-120 51 -95 145q18 68 80 110t146 42q91 0 155 -62l-84 -82q-46 43 -95 43q-62 0 -74 -45q-4 -14 6 -25.5t23 -18t39 -16.5q4 -2 14 -6 q56 -23 84 -55.5t12 -93.5q-19 -69 -82.5 -113t-157.5 -45zM222 611l145 133h138l74 -133l-66 -49l-99 96h-4l-149 -96zM208 -12h2h-2z" />
<glyph unicode="&#x15e;" horiz-adv-x="552" d="M115 -233l3 56q60 4 85.5 14t31.5 31q4 17 -10 27t-56 16l64 83q-114 14 -175 92l103 94q59 -71 144 -71q99 0 119 70q8 29 -8 44.5t-59 35.5l-6 3l-76 37q-117 53 -85 176q22 81 101 136t178 55q123 0 185 -85l-93 -86q-53 53 -124 53q-41 0 -69.5 -17t-36.5 -48 q-6 -20 4 -35.5t24.5 -23.5t44.5 -21l6 -3l75 -35q116 -52 83 -177q-21 -77 -90.5 -132.5t-166.5 -65.5l-34 -48q72 -18 57 -75q-26 -94 -219 -100z" />
<glyph unicode="&#x15f;" horiz-adv-x="439" d="M74 -237l3 56q60 4 85.5 14t31.5 31q4 17 -10 27t-56 16l63 82q-94 8 -150 67l84 86q55 -53 116 -53q67 0 81 49q3 12 -0.5 21.5t-16.5 18t-22.5 13.5t-30.5 14q-5 1 -13 5q-120 51 -95 145q18 68 80 110t146 42q91 0 155 -62l-84 -82q-46 43 -95 43q-62 0 -74 -45 q-4 -14 6 -25.5t23 -18t39 -16.5q4 -2 14 -6q56 -23 84 -55.5t12 -93.5q-15 -55 -60.5 -95.5t-113.5 -55.5l-40 -57q72 -18 57 -75q-26 -94 -219 -100zM208 -12h3h-1h-2z" />
<glyph unicode="&#x160;" horiz-adv-x="552" d="M273 -12l-1 4q-65 0 -121.5 24.5t-92.5 69.5l103 94q59 -71 144 -71q99 0 119 70q8 29 -8 44.5t-59 35.5l-6 3l-76 37q-117 53 -85 176q22 81 101 136t178 55q123 0 185 -85l-93 -86q-53 53 -124 53q-41 0 -69.5 -17t-36.5 -48q-6 -20 4 -35.5t24.5 -23.5t44.5 -21l6 -3 l75 -35q116 -52 83 -177q-23 -84 -104 -142t-191 -58zM403 706l-63 111l69 37l82 -85h4l128 85l49 -37l-122 -111h-147z" />
<glyph unicode="&#x161;" horiz-adv-x="439" d="M210 -12q-49 0 -94.5 18.5t-74.5 49.5l84 86q55 -53 116 -53q67 0 81 49q3 12 -0.5 21.5t-16.5 18t-22.5 13.5t-30.5 14q-5 1 -13 5q-120 51 -95 145q18 68 80 110t146 42q91 0 155 -62l-84 -82q-46 43 -95 43q-62 0 -74 -45q-4 -14 6 -25.5t23 -18t39 -16.5q4 -2 14 -6 q56 -23 84 -55.5t12 -93.5q-19 -69 -82.5 -113t-157.5 -45zM322 576l-75 133l66 49l99 -96h4l149 96l39 -49l-144 -133h-138zM208 -12h2h-2z" />
<glyph unicode="&#x162;" horiz-adv-x="553" d="M208 0l143 538h-182l30 114h502l-30 -114h-182l-144 -538h-26l-44 -62q72 -18 57 -75q-26 -94 -219 -100l3 56q60 4 85.5 14t31.5 31q4 17 -10 27t-56 16l72 93h-31z" />
<glyph unicode="&#x163;" horiz-adv-x="375" d="M70 -239l3 56q60 4 85.5 14t31.5 31q4 17 -10 27t-56 16l68 88q-103 30 -62 181l57 212h-68l27 102l78 6l52 132h113l-36 -132h121l-29 -107h-121l-56 -211q-21 -81 45 -81q21 0 51 10l-4 -99q-53 -15 -91 -17l-37 -53q72 -18 57 -75q-26 -94 -219 -100z" />
<glyph unicode="&#x164;" horiz-adv-x="553" d="M208 0l143 538h-182l30 114h502l-30 -114h-182l-144 -538h-137zM389 702l-63 111l69 37l82 -85h4l128 85l49 -37l-122 -111h-147z" />
<glyph unicode="&#x165;" horiz-adv-x="375" d="M249 -12l-3 -2q-166 0 -116 188l57 212h-68l27 102l78 6l52 132h113l-36 -132h121l-29 -107h-121l-56 -211q-21 -81 45 -81q21 0 51 10l-4 -99q-65 -18 -111 -18zM419 546l53 220h88l-19 -67l-63 -153h-59z" />
<glyph unicode="&#x166;" horiz-adv-x="553" d="M208 0l77 290h-120l16 62l94 5h28l48 181h-182l30 114h502l-30 -114h-182l-48 -181h116l-18 -67h-116l-78 -290h-137z" />
<glyph unicode="&#x167;" horiz-adv-x="375" d="M78 224l17 61l68 5l25 95h-68l27 102l78 6l52 132h113l-36 -132h121l-29 -107h-121l-25 -95h122l-18 -67h-122l-13 -49q-21 -81 45 -81q21 0 51 10l-4 -99q-65 -18 -111 -18l-3 -2q-166 0 -116 188l14 51h-67z" />
<glyph unicode="&#x168;" horiz-adv-x="661" d="M329 -12q-256 0 -174 309l95 356h136l-99 -368q-23 -100 -5 -139t77 -39q60 0 102.5 41t67.5 137l99 368h132l-95 -356q-82 -309 -336 -309zM589 695l-1 1q-24 0 -44.5 9.5t-31 20.5t-23.5 20.5t-25 9.5q-32 0 -53 -52l-86 6q23 70 65 105t95 35q31 0 54 -15t39.5 -30 t30.5 -15q33 0 54 52l87 -6q-23 -70 -65.5 -105.5t-95.5 -35.5z" />
<glyph unicode="&#x169;" horiz-adv-x="564" d="M213 -12q-153 0 -100 198l83 308h136l-78 -290q-14 -56 -4.5 -78t44.5 -22q51 0 111 59l88 331h136l-132 -494h-111l9 70h-4q-90 -82 -178 -82h1h-1zM505 574q-28 0 -48.5 17t-36 33.5t-28.5 16.5q-31 0 -53 -59l-84 5q44 149 160 149q22 0 40 -10.5t28 -23t22 -23 t23 -10.5q31 0 52 59l85 -5q-44 -149 -160 -149z" />
<glyph unicode="&#x16a;" horiz-adv-x="661" d="M329 -12q-256 0 -174 309l95 356h136l-99 -368q-23 -100 -5 -139t77 -39q60 0 102.5 41t67.5 137l99 368h132l-95 -356q-82 -309 -336 -309zM376 724l23 88h297l-23 -88h-297z" />
<glyph unicode="&#x16b;" horiz-adv-x="564" d="M213 -12q-153 0 -100 198l83 308h136l-78 -290q-14 -56 -4.5 -78t44.5 -22q51 0 111 59l88 331h136l-132 -494h-111l9 70h-4q-90 -82 -178 -82h1h-1zM297 593l23 88h291l-23 -88h-291z" />
<glyph unicode="&#x16c;" horiz-adv-x="661" d="M329 -12q-256 0 -174 309l95 356h136l-99 -368q-23 -100 -5 -139t77 -39q60 0 102.5 41t67.5 137l99 368h132l-95 -356q-82 -309 -336 -309zM518 698h-2q-72 0 -103 35t-21 101l79 13q-2 -32 15 -50t52 -18q72 0 104 68l71 -13q-49 -136 -195 -136z" />
<glyph unicode="&#x16d;" horiz-adv-x="564" d="M213 -12q-153 0 -100 198l83 308h136l-78 -290q-14 -56 -4.5 -78t44.5 -22q51 0 111 59l88 331h136l-132 -494h-111l9 70h-4q-90 -82 -178 -82h1h-1zM437 572q-80 0 -110 43.5t-15 112.5l82 13q-4 -36 12 -59.5t55 -23.5t67.5 23.5t43.5 59.5l74 -13 q-21 -69 -74.5 -112.5t-134.5 -43.5z" />
<glyph unicode="&#x16e;" horiz-adv-x="661" d="M329 -12q-256 0 -174 309l95 356h136l-99 -368q-23 -100 -5 -139t77 -39q60 0 102.5 41t67.5 137l99 368h132l-95 -356q-82 -309 -336 -309zM517 697q-50 0 -73.5 26.5t-11.5 70.5t50 70.5t88 26.5q49 0 72.5 -26.5t11.5 -70.5t-50 -70.5t-87 -26.5zM531 749 q18 0 33.5 12.5t21.5 32.5t-3 33t-27 13t-34 -12.5t-22 -33.5q-6 -20 3 -32.5t28 -12.5z" />
<glyph unicode="&#x16f;" horiz-adv-x="564" d="M213 -12q-153 0 -100 198l83 308h136l-78 -290q-14 -56 -4.5 -78t44.5 -22q51 0 111 59l88 331h136l-132 -494h-111l9 70h-4q-90 -82 -178 -82h1h-1zM435 562h-1q-60 0 -85.5 29.5t-13.5 74.5t53.5 74t101.5 29t86.5 -29t14.5 -74q-13 -45 -54.5 -74.5t-101.5 -29.5z M448 614q19 0 36 14t23 37q6 22 -3.5 36t-28.5 14t-35.5 -14t-22.5 -36q-6 -23 3 -37t28 -14z" />
<glyph unicode="&#x170;" horiz-adv-x="661" d="M329 -12q-256 0 -174 309l95 356h136l-99 -368q-23 -100 -5 -139t77 -39q60 0 102.5 41t67.5 137l99 368h132l-95 -356q-82 -309 -336 -309zM396 728l143 160l73 -49l-157 -143zM580 729l143 160l73 -49l-157 -143z" />
<glyph unicode="&#x171;" horiz-adv-x="564" d="M213 -12q-153 0 -100 198l83 308h136l-78 -290q-14 -56 -4.5 -78t44.5 -22q51 0 111 59l88 331h136l-132 -494h-111l9 70h-4q-90 -82 -178 -82h1h-1zM384 566l-63 32l135 179l81 -41zM558 566l-63 32l135 179l81 -41z" />
<glyph unicode="&#x172;" horiz-adv-x="661" d="M297 -222l1 2q-48 0 -73 25t-13 69q16 58 95 117q-229 12 -150 306l95 356h136l-99 -368q-23 -100 -5 -139t77 -39q60 0 102.5 41t67.5 137l99 368h132l-95 -356q-35 -132 -91 -196.5t-158 -105.5q-40 -16 -65.5 -40t-31.5 -48q-5 -19 5 -29t28 -10q16 0 40 14l13 -70 q-54 -34 -110 -34z" />
<glyph unicode="&#x173;" horiz-adv-x="564" d="M364 -210l2 -3q-45 0 -68 24t-11 67q18 68 103 119l7 71h-4q-90 -82 -178 -82q-154 0 -101 198l83 308h136l-78 -290q-14 -56 -4.5 -78t44.5 -22q51 0 111 59l88 331h136l-132 -494q-95 -29 -112 -88q-5 -18 5 -28.5t27 -10.5q20 0 40 13l12 -62q-51 -32 -106 -32z" />
<glyph unicode="&#x174;" horiz-adv-x="809" d="M139 0l50 652h140l-35 -313q-3 -23 -8.5 -65t-10 -76.5t-8.5 -65.5h4q11 23 30.5 65.5t35.5 77t30 64.5l158 313h117l-10 -313q-2 -40 -8 -119t-7 -89h4q56 140 84 208l133 313h130l-294 -652h-171l14 313q5 86 13 150h-4q-58 -129 -68 -150l-151 -313h-168zM431 724 l122 111h147l63 -111l-69 -37l-82 85h-4l-128 -85z" />
<glyph unicode="&#x175;" horiz-adv-x="766" d="M150 0l5 493h136l-12 -238q-2 -27 -8 -77t-8 -68h4q44 98 69 145l121 238h120l-4 -238q-1 -46 -7 -145h4q10 22 30.5 70.5t32.5 74.5l115 238h126l-253 -494h-160l7 209q2 53 11 145h-4q-43 -98 -65 -145l-104 -208h-156zM368 609l145 133h138l74 -133l-66 -49l-99 96h-4 l-149 -96z" />
<glyph unicode="&#x176;" horiz-adv-x="517" d="M190 0l64 236l-85 416h146l21 -156q2 -23 7.5 -70.5t8.5 -73.5h4q94 143 95 144l104 156h143l-308 -416l-63 -236h-137zM287 724l122 111h147l63 -111l-69 -37l-82 85h-4l-128 -85z" />
<glyph unicode="&#x177;" horiz-adv-x="512" d="M63 -196l1 -1q-36 0 -66 10l52 104q27 -6 33 -6q67 0 110 72l16 28l-63 484h137l16 -223q2 -44 2 -140h4q50 96 74 140l124 223h130l-310 -506q-61 -95 -120 -140t-140 -45zM250 610l145 133h138l74 -133l-66 -49l-99 96h-4l-149 -96z" />
<glyph unicode="&#x178;" horiz-adv-x="517" d="M190 0l64 236l-85 416h146l21 -156q2 -23 7.5 -70.5t8.5 -73.5h4q94 143 95 144l104 156h143l-308 -416l-63 -236h-137zM558 702q-29 0 -43 19t-6 48t31.5 47.5t52.5 18.5t43 -18.5t6 -47.5t-31.5 -48t-52.5 -19zM338 702h1q-29 0 -43 19t-6 48t31.5 47.5t52.5 18.5 t42.5 -18.5t5.5 -47.5t-31.5 -48t-51.5 -19h-1z" />
<glyph unicode="&#x179;" horiz-adv-x="541" d="M37 0l24 83l420 456h-270l30 114h438l-22 -82l-420 -456h300l-31 -115h-469zM456 684l-42 68l202 138l50 -88z" />
<glyph unicode="&#x17a;" horiz-adv-x="454" d="M36 0l20 73l300 314h-192l29 107h362l-20 -73l-300 -314h223l-29 -107h-393zM402 573l-49 66l199 180l69 -90z" />
<glyph unicode="&#x17b;" horiz-adv-x="541" d="M37 0l24 83l420 456h-270l30 114h438l-22 -82l-420 -456h300l-31 -115h-469zM473 704q-35 0 -52 20.5t-8 52.5q8 31 36 51.5t63 20.5t52 -20.5t9 -51.5q-9 -32 -37 -52.5t-63 -20.5z" />
<glyph unicode="&#x17c;" horiz-adv-x="454" d="M36 0l20 73l300 314h-192l29 107h362l-20 -73l-300 -314h223l-29 -107h-393zM396 572q-34 0 -50 20.5t-7 52.5q8 32 35 52.5t61 20.5t50 -20.5t8 -52.5q-9 -32 -36 -52.5t-61 -20.5z" />
<glyph unicode="&#x17d;" horiz-adv-x="541" d="M37 0l24 83l420 456h-270l30 114h438l-22 -82l-420 -456h300l-31 -115h-469zM399 703l-63 111l69 37l82 -85h4l128 85l49 -37l-122 -111h-147z" />
<glyph unicode="&#x17e;" horiz-adv-x="454" d="M36 0l20 73l300 314h-192l29 107h362l-20 -73l-300 -314h223l-29 -107h-393zM328 577l-75 133l66 49l99 -96h4l149 96l39 -49l-144 -133h-138z" />
<glyph unicode="&#x180;" horiz-adv-x="567" d="M317 -12v1q-70 0 -114 64h-4l-25 -52h-107l149 558h-69l16 61l71 5l21 78h136l-20 -77h170l-18 -67h-170l-21 -78l-24 -78q79 57 149 57q90 0 125.5 -62t8.5 -164q-30 -110 -109.5 -178t-164.5 -68zM316 101l-1 -1q44 0 81.5 35t54.5 97q16 54 1 85.5t-62 31.5 q-48 0 -106 -48l-44 -165q30 -35 76 -35z" />
<glyph unicode="&#x18f;" horiz-adv-x="672" d="M332 -12v-3q-132 0 -183.5 88t-9.5 248q7 25 15 46h434q36 184 -116 184q-77 0 -162 -62l-39 94q109 80 246 80q132 0 186 -87t10 -249t-145.5 -250.5t-235.5 -88.5zM559 267h-295q-35 -169 97 -169t198 169z" />
<glyph unicode="&#x192;" horiz-adv-x="523" d="M86 -96l-1 1q-58 2 -80 15l46 101q16 -7 43 -9q38 1 63 30.5t57 113.5l60 159h-78l26 95l74 5h16l17 44q42 109 100 157.5t152 48.5q49 0 80 -18l-54 -102q-26 12 -45 12q-66 0 -100 -87l-21 -55h107l-27 -100h-118l-76 -198q-39 -102 -94.5 -157.5t-146.5 -55.5z" />
<glyph unicode="&#x193;" horiz-adv-x="634" d="M359 -12h-1q-139 0 -203.5 88t-21.5 247q42 157 156.5 249t249.5 92q28 0 56 -5q2 14 4 22q15 58 62.5 97t111.5 39q42 0 78 -14l-52 -101q-16 7 -27 7q-23 0 -40.5 -13t-23.5 -36q-7 -27 14 -66l1 -1l-96 -88q-48 41 -116 41q-80 0 -146 -59t-93 -160 q-28 -106 4.5 -163.5t125.5 -57.5q50 0 85 22l33 122h-113l29 112h235l-79 -296q-44 -35 -106 -56.5t-127 -21.5z" />
<glyph unicode="&#x1a0;" horiz-adv-x="681" d="M338 -13q-132 0 -188 91.5t-14 249.5q42 157 146 246t237 89q76 0 129 -31q35 10 54.5 26t28.5 48q8 34 2 64l113 41q17 -42 3 -95q-27 -100 -149 -130q69 -91 23 -258q-42 -158 -147.5 -249.5t-237.5 -91.5zM369 105q70 0 128 60.5t86 162.5q27 102 1 159.5t-97 57.5 t-127.5 -58t-83.5 -159q-28 -102 -2.5 -162.5t95.5 -60.5z" />
<glyph unicode="&#x1a1;" horiz-adv-x="553" d="M274 -11q-98 0 -149.5 70.5t-19.5 188.5q32 119 121 189.5t187 70.5q51 0 92 -21q74 18 93 90q8 29 0 57l113 44q17 -40 4 -92q-16 -56 -57.5 -92t-98.5 -53q55 -71 23 -193q-32 -118 -121 -188.5t-187 -70.5zM303 99h1q48 0 84.5 40t54.5 109q19 68 3.5 108.5 t-63.5 40.5q-47 0 -84 -40t-55 -109q-19 -68 -3.5 -108.5t62.5 -40.5z" />
<glyph unicode="&#x1af;" horiz-adv-x="679" d="M747 601l-1 1l-81 -305q-82 -309 -336 -309q-256 0 -174 309l95 356h136l-99 -368q-23 -100 -5 -139t77 -39q60 0 102.5 41t67.5 137l99 368h75q75 7 93 74q8 34 2 64l113 41q17 -42 3 -95q-30 -110 -167 -136z" />
<glyph unicode="&#x1b0;" horiz-adv-x="564" d="M212 -12q-153 0 -100 198l83 308h136l-78 -290q-14 -56 -4.5 -78t44.5 -22q51 0 111 59l88 331h43q83 6 106 93q7 25 0 57l113 44q17 -40 4 -92q-15 -57 -53 -93.5t-89 -51.5l-120 -451h-111l9 70h-4q-90 -82 -178 -82h1h-1z" />
<glyph unicode="&#x1c2;" horiz-adv-x="323" d="M94 330l16 62l78 5h37l95 353h89l-95 -353h107l-18 -67h-107l-33 -124h106l-18 -67h-106l-104 -389h-89l104 389h-114l16 61l78 6h38l33 124h-113z" />
<glyph unicode="&#x1cd;" horiz-adv-x="568" d="M-5 0l385 653h162l33 -652h-145v162h-207l-88 -163h-140zM398 703l-63 111l69 37l82 -85h4l128 85l49 -37l-122 -111h-147zM280 270h150v67q-2 55 0 172q1 13 1 39h-4q-87 -169 -111 -212z" />
<glyph unicode="&#x1ce;" horiz-adv-x="523" d="M187 -12q-66 0 -95.5 42t-11.5 106q21 79 100 122.5t231 59.5q16 80 -61 80q-54 0 -146 -46l-24 90q121 65 225 65q193 0 134 -221l-76 -286h-111l4 52h-4q-92 -64 -165 -64zM358 577l-75 133l66 49l99 -96h4l149 96l39 -49l-144 -133h-138zM260 94q43 0 103 47l25 95 q-158 -20 -176 -89q-13 -53 48 -53z" />
<glyph unicode="&#x1cf;" horiz-adv-x="295" d="M79 0l175 652h136l-175 -652h-136zM262 702l-63 111l69 37l82 -85h4l128 85l49 -37l-122 -111h-147z" />
<glyph unicode="&#x1d0;" horiz-adv-x="271" d="M68 0l132 494h136l-132 -494h-136zM221 576l-75 133l66 49l99 -96h4l149 96l39 -49l-144 -133h-138z" />
<glyph unicode="&#x1d1;" horiz-adv-x="681" d="M337 -12q-132 0 -188 91.5t-14 249.5q42 157 146 246t237 89t189.5 -89.5t14.5 -245.5q-42 -158 -147.5 -249.5t-237.5 -91.5zM368 106q70 0 128 60.5t86 162.5q27 102 1 159.5t-97 57.5t-127.5 -58t-83.5 -159q-28 -102 -2.5 -162.5t95.5 -60.5zM455 702l-63 111l69 37 l82 -85h4l128 85l49 -37l-122 -111h-147z" />
<glyph unicode="&#x1d2;" horiz-adv-x="553" d="M273 -12q-98 0 -149.5 70.5t-19.5 188.5q32 119 121 189.5t187 70.5t149.5 -70.5t19.5 -189.5q-32 -118 -121 -188.5t-187 -70.5zM302 98h1q48 0 84.5 40t54.5 109q19 67 3.5 108t-63.5 41q-47 0 -84 -40t-55 -109q-19 -67 -3.5 -108t62.5 -41zM362 576l-75 133l66 49 l99 -96h4l149 96l39 -49l-144 -133h-138z" />
<glyph unicode="&#x1d3;" horiz-adv-x="661" d="M329 -12q-256 0 -174 309l95 356h136l-99 -368q-23 -100 -5 -139t77 -39q60 0 102.5 41t67.5 137l99 368h132l-95 -356q-82 -309 -336 -309zM446 702l-63 111l69 37l82 -85h4l128 85l49 -37l-122 -111h-147z" />
<glyph unicode="&#x1d4;" horiz-adv-x="564" d="M213 -12q-153 0 -100 198l83 308h136l-78 -290q-14 -56 -4.5 -78t44.5 -22q51 0 111 59l88 331h136l-132 -494h-111l9 70h-4q-90 -82 -178 -82h1h-1zM370 576l-75 133l66 49l99 -96h4l149 96l39 -49l-144 -133h-138z" />
<glyph unicode="&#x1d5;" horiz-adv-x="661" d="M329 -12q-256 0 -174 309l95 356h136l-99 -368q-23 -100 -5 -139t77 -39q60 0 102.5 41t67.5 137l99 368h132l-95 -356q-82 -309 -336 -309zM417 870l17 65h297l-17 -65h-297zM630 702h-1q-25 0 -37.5 17t-5.5 43q7 25 28.5 42t46.5 17t37.5 -17t5.5 -42q-7 -26 -28 -43 t-46 -17zM410 702h1q-25 0 -37.5 17t-5.5 43q7 25 28 42t46 17t37.5 -17t5.5 -42q-7 -26 -28 -43t-46 -17h-1z" />
<glyph unicode="&#x1d6;" horiz-adv-x="564" d="M213 -12q-153 0 -100 198l83 308h136l-78 -290q-14 -56 -4.5 -78t44.5 -22q51 0 111 59l88 331h136l-132 -494h-111l9 70h-4q-90 -82 -178 -82h1h-1zM339 755l18 66h292l-18 -66h-292zM331 574h-1q-25 0 -37.5 17t-5.5 42t28.5 42t46.5 17t37.5 -17t5.5 -42t-28 -42 t-46 -17zM544 574h1q-25 0 -37.5 17t-5.5 42t28 42t46 17t37.5 -17t5.5 -42t-28 -42t-46 -17h-1z" />
<glyph unicode="&#x1d7;" horiz-adv-x="661" d="M329 -12q-256 0 -174 309l95 356h136l-99 -368q-23 -100 -5 -139t77 -39q60 0 102.5 41t67.5 137l99 368h132l-95 -356q-82 -309 -336 -309zM510 861l133 140l71 -53l-154 -124zM630 702h-1q-25 0 -37.5 17t-5.5 43q7 25 28.5 42t46.5 17t37.5 -17t5.5 -42 q-7 -26 -28 -43t-46 -17zM410 702h1q-25 0 -37.5 17t-5.5 43q7 25 28 42t46 17t37.5 -17t5.5 -42q-7 -26 -28 -43t-46 -17h-1z" />
<glyph unicode="&#x1d8;" horiz-adv-x="564" d="M213 -12q-153 0 -100 198l83 308h136l-78 -290q-14 -56 -4.5 -78t44.5 -22q51 0 111 59l88 331h136l-132 -494h-111l9 70h-4q-90 -82 -178 -82h1h-1zM479 712l-43 33l113 130l61 -48zM331 573h-1q-25 0 -37.5 17t-5.5 42t28.5 42t46.5 17t37.5 -17t5.5 -42t-28 -42 t-46 -17zM544 573h1q-25 0 -37.5 17t-5.5 42t28 42t46 17t37.5 -17t5.5 -42t-28 -42t-46 -17h-1z" />
<glyph unicode="&#x1d9;" horiz-adv-x="661" d="M329 -12q-256 0 -174 309l95 356h136l-99 -368q-23 -100 -5 -139t77 -39q60 0 102.5 41t67.5 137l99 368h132l-95 -356q-82 -309 -336 -309zM500 852l-65 101l64 37l76 -73h4l115 73l44 -37l-120 -101h-118zM630 703h-1q-25 0 -37.5 17t-5.5 43q7 25 28.5 42t46.5 17 t37.5 -17t5.5 -42q-7 -26 -28 -43t-46 -17zM410 703h1q-25 0 -37.5 17t-5.5 43q7 25 28 42t46 17t37.5 -17t5.5 -42q-7 -26 -28 -43t-46 -17h-1z" />
<glyph unicode="&#x1da;" horiz-adv-x="564" d="M213 -12q-153 0 -100 198l83 308h136l-78 -290q-14 -56 -4.5 -78t44.5 -22q51 0 111 59l88 331h136l-132 -494h-111l9 70h-4q-90 -82 -178 -82h1h-1zM415 868l83 -66h4l117 66l34 -41l-117 -92h-109l-67 92zM332 574h-1q-25 0 -37.5 17t-5.5 42t28.5 42t46.5 17t37.5 -17 t5.5 -42t-28 -42t-46 -17zM545 574h1q-25 0 -37.5 17t-5.5 42t28 42t46 17t37.5 -17t5.5 -42t-28 -42t-46 -17h-1z" />
<glyph unicode="&#x1db;" horiz-adv-x="661" d="M329 -12q-256 0 -174 309l95 356h136l-99 -368q-23 -100 -5 -139t77 -39q60 0 102.5 41t67.5 137l99 368h132l-95 -356q-82 -309 -336 -309zM614 862l-69 -37l-88 124l99 53zM630 703h-1q-25 0 -37.5 17t-5.5 43q7 25 28.5 42t46.5 17t37.5 -17t5.5 -42q-7 -26 -28 -43 t-46 -17zM410 703h1q-25 0 -37.5 17t-5.5 43q7 25 28 42t46 17t37.5 -17t5.5 -42q-7 -26 -28 -43t-46 -17h-1z" />
<glyph unicode="&#x1dc;" horiz-adv-x="564" d="M213 -12q-153 0 -100 198l83 308h136l-78 -290q-14 -56 -4.5 -78t44.5 -22q51 0 111 59l88 331h136l-132 -494h-111l9 70h-4q-90 -82 -178 -82h1h-1zM471 712l-69 116l86 48l44 -130zM331 575h-1q-25 0 -37.5 17t-5.5 42t28.5 42t46.5 17t37.5 -17t5.5 -42t-28 -42 t-46 -17zM544 575h1q-25 0 -37.5 17t-5.5 42t28 42t46 17t37.5 -17t5.5 -42t-28 -42t-46 -17h-1z" />
<glyph unicode="&#x1e2;" horiz-adv-x="841" d="M-10 0l490 654h474l-30 -114h-254l-39 -144h214l-30 -115h-214l-44 -165h264l-31 -115h-401l42 156h-183l-115 -157h-143zM587 742l23 88h297l-23 -88h-297zM327 264h132l77 286h-4q-97 -139 -135 -191z" />
<glyph unicode="&#x1e3;" horiz-adv-x="786" d="M193 -12h1q-66 0 -95.5 42t-11.5 106q21 79 99.5 123t229.5 60q16 80 -60 80q-53 0 -145 -46l-24 90q121 65 216 65t118 -79q87 79 170 79q94 0 126.5 -66.5t4.5 -172.5q-10 -34 -22 -59h-291q-7 -54 19 -83.5t75 -29.5q44 0 116 36l23 -89q-94 -55 -187 -55 q-101 0 -149 79q-119 -80 -212 -80h-1zM427 594l23 88h291l-23 -88h-291zM267 94q54 0 115 48q-4 30 4 72l5 21q-152 -21 -171 -88q-13 -53 47 -53zM532 293h181q15 49 1.5 79.5t-55.5 30.5q-39 0 -73 -28.5t-54 -81.5z" />
<glyph unicode="&#x1e6;" horiz-adv-x="634" d="M359 -12l-2 1q-139 0 -203.5 88t-21.5 247q42 157 156.5 249t249.5 92q122 0 181 -84l-95 -88q-44 53 -113 53q-80 0 -146 -59t-93 -160q-28 -106 4.5 -163.5t125.5 -57.5q50 0 85 22l33 122h-113l29 112h235l-79 -296q-44 -35 -106 -56.5t-127 -21.5zM477 703l-63 111 l69 37l82 -85h4l128 85l49 -37l-122 -111h-147z" />
<glyph unicode="&#x1e7;" horiz-adv-x="529" d="M185 -213v2q-92 0 -140.5 32t-32.5 95q16 61 98 101l1 4q-37 30 -23 83q15 54 80 92l1 4q-52 48 -31 129q23 84 94.5 131.5t155.5 47.5q43 0 73 -12h179l-27 -100h-83q13 -29 2 -71q-22 -81 -87.5 -124t-150.5 -43q-28 0 -59 11q-25 -17 -32 -40q-5 -20 10 -30t56 -10h83 q92 0 131 -30t22 -95q-21 -77 -109 -127t-211 -50zM363 580l-75 133l66 49l99 -96h4l149 96l39 -49l-144 -133h-138zM229 -124l1 1q53 0 92 19.5t47 47.5q6 24 -11 33t-58 9h-57q-46 0 -67 7q-37 -24 -45 -55q-8 -30 18.5 -46t79.5 -16zM316 242q33 0 59.5 23t37.5 65 q11 41 -3.5 63.5t-47.5 22.5t-59.5 -22.5t-37.5 -63.5q-11 -42 3.5 -65t47.5 -23z" />
<glyph unicode="&#x1ea;" horiz-adv-x="681" d="M307 -222q-47 0 -72 25t-13 69q17 65 94 118q-123 8 -171.5 98.5t-8.5 240.5q42 157 146 246t237 89t189.5 -89.5t14.5 -245.5q-35 -131 -108.5 -209t-188.5 -125q-40 -16 -65 -40.5t-31 -47.5q-5 -19 5 -29t28 -10q17 0 41 14l13 -70q-54 -34 -110 -34h1h-1zM369 106 q70 0 128 60.5t86 162.5q27 102 1 159.5t-97 57.5t-127.5 -58t-83.5 -159q-28 -102 -2.5 -162.5t95.5 -60.5z" />
<glyph unicode="&#x1eb;" horiz-adv-x="553" d="M241 -210v-2q-45 0 -67.5 24t-10.5 67q17 62 85 109q-87 10 -129.5 79t-13.5 178q32 119 121 189.5t187 70.5t149.5 -70.5t19.5 -189.5q-25 -94 -82.5 -152.5t-144.5 -94.5q-76 -31 -91 -88q-5 -19 4.5 -29t27.5 -10t40 13l12 -62q-51 -32 -107 -32zM303 96h1 q48 0 84.5 40t54.5 109q19 67 3.5 108t-63.5 41q-47 0 -84 -40t-55 -109q-19 -67 -3.5 -108t62.5 -41z" />
<glyph unicode="&#x1f4;" horiz-adv-x="634" d="M359 -12l-2 1q-139 0 -203.5 88t-21.5 247q42 157 156.5 249t249.5 92q122 0 181 -84l-95 -88q-44 53 -113 53q-80 0 -146 -59t-93 -160q-28 -106 4.5 -163.5t125.5 -57.5q50 0 85 22l33 122h-113l29 112h235l-79 -296q-44 -35 -106 -56.5t-127 -21.5zM534 684l-42 68 l202 138l50 -88z" />
<glyph unicode="&#x1f5;" horiz-adv-x="529" d="M185 -213v2q-92 0 -140.5 32t-32.5 95q16 61 98 101l1 4q-37 30 -23 83q15 54 80 92l1 4q-52 48 -31 129q23 84 94.5 131.5t155.5 47.5q43 0 73 -12h179l-27 -100h-83q13 -29 2 -71q-22 -81 -87.5 -124t-150.5 -43q-28 0 -59 11q-25 -17 -32 -40q-5 -20 10 -30t56 -10h83 q92 0 131 -30t22 -95q-21 -77 -109 -127t-211 -50zM438 576l-49 66l199 180l69 -90zM229 -124l1 1q53 0 92 19.5t47 47.5q6 24 -11 33t-58 9h-57q-46 0 -67 7q-37 -24 -45 -55q-8 -30 18.5 -46t79.5 -16zM316 242q33 0 59.5 23t37.5 65q11 41 -3.5 63.5t-47.5 22.5 t-59.5 -22.5t-37.5 -63.5q-11 -42 3.5 -65t47.5 -23z" />
<glyph unicode="&#x1f8;" horiz-adv-x="662" d="M79 0l175 653h140l90 -339l28 -142h4q3 16 9 53t10.5 61t11.5 57.5t14 60.5l66 248h130l-175 -652h-140l-90 340l-28 141h-4q-30 -178 -44 -231l-67 -250h-130zM527 684l-147 118l96 88l130 -138z" />
<glyph unicode="&#x1f9;" horiz-adv-x="568" d="M68 0l130 495h111l-7 -64h4q100 76 181 76q154 0 101 -198l-83 -308h-136l78 290q14 56 4.5 78t-44.5 22q-27 0 -51.5 -12.5t-61.5 -40.5l-90 -338h-136zM450 573l-135 157l116 90l104 -180z" />
<glyph unicode="&#x1fc;" horiz-adv-x="841" d="M-10 0l490 654h474l-30 -114h-254l-39 -144h214l-30 -115h-214l-44 -165h264l-31 -115h-401l42 156h-183l-115 -157h-143zM714 701l-42 68l202 138l50 -88zM327 264h132l77 286h-4q-97 -139 -135 -191z" />
<glyph unicode="&#x1fd;" horiz-adv-x="786" d="M193 -12h1q-66 0 -95.5 42t-11.5 106q21 79 99.5 123t229.5 60q16 80 -60 80q-53 0 -145 -46l-24 90q121 65 216 65t118 -79q87 79 170 79q94 0 126.5 -66.5t4.5 -172.5q-10 -34 -22 -59h-291q-7 -54 19 -83.5t75 -29.5q44 0 116 36l23 -89q-94 -55 -187 -55 q-101 0 -149 79q-119 -80 -212 -80h-1zM573 573l-49 66l199 180l69 -90zM267 94q54 0 115 48q-4 30 4 72l5 21q-152 -21 -171 -88q-13 -53 47 -53zM532 293h181q15 49 1.5 79.5t-55.5 30.5q-39 0 -73 -28.5t-54 -81.5z" />
<glyph unicode="&#x218;" horiz-adv-x="552" d="M273 -12l-1 4q-65 0 -121.5 24.5t-92.5 69.5l103 94q59 -71 144 -71q99 0 119 70q8 29 -8 44.5t-59 35.5l-6 3l-76 37q-117 53 -85 176q22 81 101 136t178 55q123 0 185 -85l-93 -86q-53 53 -124 53q-41 0 -69.5 -17t-36.5 -48q-6 -20 4 -35.5t24.5 -23.5t44.5 -21l6 -3 l75 -35q116 -52 83 -177q-23 -84 -104 -142t-191 -58zM115 -233l4 55q59 4 84.5 13.5t30.5 27.5q4 15 -9.5 24t-45.5 12l40 51q74 -7 99.5 -26.5t15.5 -56.5q-26 -94 -219 -100z" />
<glyph unicode="&#x219;" horiz-adv-x="439" d="M210 -12q-49 0 -94.5 18.5t-74.5 49.5l84 86q55 -53 116 -53q67 0 81 49q3 12 -0.5 21.5t-16.5 18t-22.5 13.5t-30.5 14q-5 1 -13 5q-120 51 -95 145q18 68 80 110t146 42q91 0 155 -62l-84 -82q-46 43 -95 43q-62 0 -74 -45q-4 -14 6 -25.5t23 -18t39 -16.5q4 -2 14 -6 q56 -23 84 -55.5t12 -93.5q-19 -69 -82.5 -113t-157.5 -45zM71 -237l4 55q59 4 84.5 13.5t30.5 27.5q4 15 -9.5 24t-45.5 12l40 51q74 -7 99.5 -26.5t15.5 -56.5q-26 -94 -219 -100zM208 -12h2h-2z" />
<glyph unicode="&#x21a;" horiz-adv-x="553" d="M208 0l143 538h-182l30 114h502l-30 -114h-182l-144 -538h-137zM112 -237l4 55q59 4 84.5 13.5t30.5 27.5q4 15 -9.5 24t-45.5 12l40 51q74 -7 99.5 -26.5t15.5 -56.5q-26 -94 -219 -100z" />
<glyph unicode="&#x21b;" horiz-adv-x="375" d="M249 -12l-3 -2q-166 0 -116 188l57 212h-68l27 102l78 6l52 132h113l-36 -132h121l-29 -107h-121l-56 -211q-21 -81 45 -81q21 0 51 10l-4 -99q-65 -18 -111 -18zM65 -239l4 55q59 4 84.5 13.5t30.5 27.5q4 15 -9.5 24t-45.5 12l40 51q74 -7 99.5 -26.5t15.5 -56.5 q-26 -94 -219 -100z" />
<glyph unicode="&#x237;" horiz-adv-x="273" d="M-18 -200l1 1q-51 0 -83 14l52 100q21 -7 38 -7q30 0 47 19.5t29 62.5l135 504h136l-134 -501q-51 -193 -221 -193z" />
<glyph unicode="&#x243;" horiz-adv-x="624" d="M102 0l47 175h-77l17 62l78 5l110 410h218q110 0 164 -37t31 -120q-12 -46 -49 -81.5t-96 -49.5l-1 -4q137 -26 100 -161q-27 -98 -110 -148.5t-196 -50.5h-236zM265 98h86q135 0 165 111q14 53 -13 78t-93 25h-88l-19 -70h129l-18 -67h-128zM344 394h74q116 0 138 85 q10 39 -13.5 57t-80.5 18h-75z" />
<glyph unicode="&#x250;" horiz-adv-x="530" d="M273 -12l-1 2q-105 0 -144.5 57.5t-9.5 168.5l75 280h111l-7 -62h3q89 74 181 74q61 0 87.5 -37.5t10.5 -97.5q-44 -166 -335 -197q-16 -79 77 -79q52 0 142 46l25 -90q-118 -65 -215 -65zM265 262h1q158 21 176 91q13 50 -41 50q-48 0 -113 -57z" />
<glyph unicode="&#x251;" horiz-adv-x="570" d="M240 -12v-1q-93 0 -129.5 69t-4.5 190q31 116 113 188t166 72q71 0 115 -61h3l24 49h107l-132 -494h-111l3 50h-4q-80 -62 -150 -62zM304 99v-2q51 0 101 49l57 212q-28 35 -78 35q-42 0 -80.5 -38t-57.5 -108q-40 -148 58 -148z" />
<glyph unicode="&#x252;" horiz-adv-x="570" d="M317 -12q-71 0 -115 61h-4l-24 -49h-107l132 494h111l-3 -50h4q86 63 160 63q90 0 123.5 -68t2.5 -184q-32 -122 -113.5 -194.5t-166.5 -72.5zM316 100q44 0 82.5 39t58.5 115q38 141 -55 141q-46 0 -106 -48l-57 -212q31 -35 77 -35z" />
<glyph unicode="&#x253;" horiz-adv-x="570" d="M317 -12h1q-70 0 -114 64h-4l-25 -52h-107l136 506q25 93 89 150.5t165 57.5q50 0 92 -17l-53 -101q-24 11 -49 11q-76 0 -108 -98l-23 -75q80 57 150 57q90 0 124 -66t5 -177q-32 -119 -112.5 -189.5t-165.5 -70.5h-1zM317 100q44 0 82.5 37t57.5 109q35 134 -57 134 q-46 0 -106 -48l-53 -197q30 -35 76 -35z" />
<glyph unicode="&#x254;" horiz-adv-x="466" d="M184 -12q-94 0 -147 60l78 89q39 -39 84 -39q52 0 96 41t62 108t-3 108.5t-70 41.5q-46 0 -91 -32l-42 88q81 54 177 54q100 0 149.5 -69.5t17.5 -190.5q-32 -120 -119 -189.5t-192 -69.5zM183 -12h1h-1z" />
<glyph unicode="&#x255;" horiz-adv-x="466" d="M115 -72l-94 45q40 60 86 114q-28 64 -3 159q32 119 124.5 189.5t198.5 70.5q84 0 131 -54l-82 -82q-29 32 -68 32q-59 0 -105.5 -42.5t-65.5 -113.5q-7 -30 -7 -47q88 62 162 62q61 0 87.5 -34t10.5 -92q-17 -63 -73.5 -105.5t-132.5 -42.5q-68 0 -113 27 q-30 -40 -56 -86zM257 115q23 -23 61 -23q26 0 46 12.5t25 30.5q4 14 -3.5 25t-27.5 11q-40 0 -101 -56z" />
<glyph unicode="&#x256;" horiz-adv-x="570" d="M476 -186l1 -1q-76 0 -104.5 42t-11.5 107l23 83q-76 -57 -143 -57q-93 0 -129.5 69t-4.5 190q31 117 111.5 188.5t164.5 71.5q68 0 110 -52l15 76l49 184h136l-193 -720q-10 -37 -4.5 -55t29.5 -18q13 0 32 7l-3 -101q-33 -14 -78 -14zM305 99v-2q51 0 101 49l57 212 q-28 35 -78 35q-42 0 -80.5 -38t-57.5 -108q-40 -148 58 -148z" />
<glyph unicode="&#x257;" horiz-adv-x="570" d="M240 -12l-2 2q-93 0 -129.5 69t-4.5 190q31 117 111.5 188.5t164.5 71.5q68 0 110 -52l24 90q21 77 74 123.5t138 46.5q39 0 64 -10l-52 -101q-9 3 -20 3q-54 0 -73 -76l-143 -533h-111l3 50h-4q-80 -62 -150 -62zM302 102v-2q51 0 101 49l57 212q-28 35 -78 35 q-42 0 -80.5 -38t-57.5 -108q-40 -148 58 -148z" />
<glyph unicode="&#x258;" horiz-adv-x="514" d="M229 -12v1q-98 0 -163 55l68 83q47 -33 105 -33q113 0 161 115h-302q0 20 10 62q28 104 104.5 170t177.5 66q93 0 138 -71.5t14 -188.5q-32 -120 -119 -189.5t-194 -69.5zM233 300l193 1q14 103 -68 103q-46 0 -79.5 -28.5t-45.5 -75.5z" />
<glyph unicode="&#x259;" horiz-adv-x="514" d="M245 -12v2q-101 0 -138.5 65.5t-8.5 172.5q10 36 23 62h302q15 113 -88 113q-54 0 -121 -35l-21 89q87 50 192 50q99 0 145 -70.5t14 -188.5q-31 -117 -117 -188.5t-182 -71.5zM270 94q87 0 130 106h-192q-29 -106 62 -106z" />
<glyph unicode="&#x25a;" horiz-adv-x="697" d="M255 -12q-53 0 -90.5 18.5t-54 49.5t-22 72t5.5 85l328 125q-13 64 -91 64q-54 0 -119 -35l-22 89q89 50 187 50q143 0 172 -120l101 39l59 -25q-13 -56 -8 -75.5t28 -19.5q20 0 44 12l11 -65q-44 -25 -81 -25q-92 0 -91 97l-59 -23q-3 -29 -12 -62 q-28 -106 -108.5 -178.5t-177.5 -72.5h1h-1zM417 249l-216 -83q-1 -36 19.5 -56t56.5 -20q43 0 80.5 38t53.5 98q4 16 6 23z" />
<glyph unicode="&#x25b;" horiz-adv-x="458" d="M262 -12v-1q-89 0 -143 41t-35 111q24 92 137 120l1 4q-36 12 -49.5 41t-4.5 62q18 69 84 104.5t151 35.5q84 0 145 -46l-74 -88q-46 30 -93 30q-32 0 -55 -14.5t-30 -39.5q-7 -24 8.5 -36.5t54.5 -12.5h66l-24 -91h-81q-85 0 -99 -54q-7 -28 16 -44.5t67 -16.5 q52 0 115 33l31 -87q-93 -51 -188 -51z" />
<glyph unicode="&#x25c;" horiz-adv-x="473" d="M212 -12l-1 1q-100 0 -167 51l77 87q46 -33 97 -33q44 0 76 16.5t39 44.5t-10 41t-60 13h-81l24 91h65q76 0 90 49q7 25 -8 39.5t-47 14.5q-49 0 -109 -30l-27 88q90 46 179 46q82 0 126 -35.5t26 -104.5q-9 -33 -37.5 -62t-71.5 -41l-1 -4q97 -28 73 -120 q-19 -70 -92 -111t-160 -41z" />
<glyph unicode="&#x25e;" horiz-adv-x="563" d="M266 -12q-92 0 -146 41t-35 111q24 92 137 120l1 4q-36 12 -49.5 41t-4.5 62q19 69 84 104.5t151 35.5q109 0 165.5 -68t23.5 -192q-33 -125 -123.5 -192t-203.5 -67zM295 92l-3 -1q119 0 161 154q42 156 -75 156q-29 0 -51.5 -15t-29.5 -39t7 -36.5t48 -12.5h31l-24 -91 h-46q-77 0 -91 -54q-7 -28 13 -44.5t60 -16.5zM265 -12h1h-1z" />
<glyph unicode="&#x25f;" horiz-adv-x="312" d="M72 224l17 61l78 6l54 202h136l-54 -202h72l-18 -67h-72l-62 -232q-51 -193 -221 -193l1 1q-52 0 -83 14l52 100q21 -7 38 -7q30 0 47 19.5t29 62.5l63 235h-77z" />
<glyph unicode="&#x260;" horiz-adv-x="579" d="M208 -198q-98 0 -169 54l70 90q56 -38 128 -38q101 0 133 88l21 67q-70 -52 -141 -52q-92 0 -128.5 67.5t-7.5 176.5q29 110 110.5 180t164.5 70q64 0 106 -52l9 34q18 69 71 115t138 46q38 0 65 -10l-52 -101q-8 4 -21 4q-53 0 -73 -75l-125 -466q-25 -95 -103 -146.5 t-196 -51.5zM315 122q48 0 102 50l50 189q-30 35 -79 35q-42 0 -80.5 -37.5t-55.5 -100.5q-17 -64 -0.5 -100t63.5 -36z" />
<glyph unicode="&#x261;" horiz-adv-x="579" d="M208 -198l1 1q-99 0 -169 54l70 90q56 -38 128 -38q101 0 133 88l21 67q-70 -52 -141 -52q-92 0 -128.5 67.5t-7.5 176.5q29 110 110.5 180t164.5 70q75 0 114 -58h3l22 46h110l-132 -494q-25 -95 -103 -146.5t-196 -51.5zM316 123q48 0 102 50l50 189q-30 35 -79 35 q-42 0 -80.5 -37.5t-55.5 -100.5q-17 -65 -0.5 -100.5t63.5 -35.5z" />
<glyph unicode="&#x262;" horiz-adv-x="513" d="M284 -12v-1q-105 0 -159.5 66.5t-21.5 190.5q32 119 125.5 190t197.5 71q96 0 154 -60l-83 -82q-16 14 -24 20t-25.5 12t-39.5 6q-52 0 -98.5 -40.5t-67.5 -115.5q-19 -72 3 -112.5t78 -40.5q36 0 62 17l24 91h-88l24 91h204l-64 -238q-88 -65 -201 -65z" />
<glyph unicode="&#x263;" horiz-adv-x="513" d="M202 -213q-67 0 -96 38.5t-12 101.5q6 23 21 49t29.5 44.5t47.5 59.5l-49 415h137l12 -216q0 -21 3.5 -58.5t4.5 -60.5h4q14 25 37.5 63.5t33.5 55.5l127 216h131l-264 -412q17 -58 21 -84t-4 -72q-17 -63 -67.5 -101.5t-116.5 -38.5h1h-1zM226 -127h1q16 0 28.5 12 t17.5 32q12 43 -5 105h-5q-50 -67 -61 -105q-5 -20 1.5 -32t22.5 -12z" />
<glyph unicode="&#x264;" horiz-adv-x="560" d="M277 -12h-2q-90 0 -129 47t-16 132q23 88 150 183q-27 46 -74 46q-26 0 -51 -14l-12 98q42 25 111 25q89 0 138 -81q91 81 181 81q70 0 98 -25l-66 -98q-16 14 -42 14q-47 0 -97 -46q75 -94 52 -183q-23 -85 -87 -132t-154 -47zM304 98q31 0 53.5 20t30.5 53 q16 58 -33 119q-80 -60 -97 -119q-9 -33 3 -53t43 -20z" />
<glyph unicode="&#x265;" horiz-adv-x="568" d="M314 -188l44 155l32 96q-91 -75 -176 -75q-154 0 -101 198l83 308h136l-78 -290q-14 -56 -4.5 -78t44.5 -22q53 0 115 59l88 331h136l-183 -682h-136z" />
<glyph unicode="&#x266;" horiz-adv-x="567" d="M68 0l135 505q25 93 89 150.5t165 57.5q50 0 92 -17l-53 -101q-24 11 -49 11q-76 0 -108 -98l-29 -89q95 71 174 71q153 0 100 -198l-79 -293h-136l74 276q14 56 4.5 78t-44.5 22q-45 0 -112 -52l-87 -323h-136z" />
<glyph unicode="&#x267;" horiz-adv-x="567" d="M286 -186l-1 -1q-51 0 -82 14l52 101q21 -7 38 -7q30 0 47 19.5t29 62.5l73 272q14 56 4.5 78t-44.5 22q-45 0 -112 -52l-87 -323h-136l136 506q25 93 89 150.5t165 57.5q50 0 92 -17l-53 -101q-24 11 -49 11q-76 0 -108 -98l-29 -89q95 71 174 71q153 0 100 -198 l-77 -286q-51 -193 -221 -193z" />
<glyph unicode="&#x268;" horiz-adv-x="312" d="M72 224l17 61l78 6l54 202h136l-54 -202h72l-18 -67h-72l-60 -225h-136l60 225h-77zM310 570q-35 0 -52 20.5t-8 51.5q8 32 36 52.5t63 20.5t52 -20.5t9 -52.5q-9 -31 -37 -51.5t-63 -20.5z" />
<glyph unicode="&#x26a;" horiz-adv-x="386" d="M51 0l29 107h74l75 280h-74l29 107h284l-29 -107h-74l-75 -280h74l-29 -107h-284z" />
<glyph unicode="&#x26c;" horiz-adv-x="364" d="M214 297q-72 0 -100.5 28t-16.5 73q11 41 46 68.5t78 27.5q30 0 48 -15l60 224h136l-90 -339h74l-18 -67h-74l-42 -158q-5 -23 -0.5 -32t15.5 -9q10 0 19 2l-10 -100q-29 -12 -72 -12h-2q-128 0 -85 157l41 152h-7zM238 364l6 20q4 45 -34 45q-30 0 -39 -30 q-4 -15 7.5 -25t39.5 -10h20z" />
<glyph unicode="&#x26d;" horiz-adv-x="281" d="M178 -186h-2q-158 0 -110 185l189 704h136l-189 -708q-10 -37 -4.5 -55t29.5 -18q12 0 31 7l-2 -101q-33 -14 -78 -14z" />
<glyph unicode="&#x26e;" horiz-adv-x="629" d="M68 0l188 702h136l-56 -208h10v1h372l-20 -73l-210 -205q82 -4 115.5 -56t12.5 -134q-28 -105 -109 -166t-175 -61l-2 1q-122 0 -183 81l84 84q46 -55 113 -55q46 0 83 31t51 83q13 47 -7.5 73.5t-68.5 26.5q-27 0 -63 -13l-28 66l215 210h-106v-1h-112l-104 -387h-136z " />
<glyph unicode="&#x26f;" horiz-adv-x="852" d="M217 -12l-1 -3q-78 0 -103 52.5t1 145.5l83 308h136l-78 -290q-14 -56 -4.5 -78t44.5 -22q42 0 105 53l90 338h136l-78 -290q-14 -56 -5 -78t44 -22q42 0 105 53l90 338h136l-132 -494h-111l7 65h-3q-96 -76 -171 -76q-99 0 -113 85q-103 -85 -178 -85z" />
<glyph unicode="&#x270;" horiz-adv-x="852" d="M601 -188l42 153l32 95q-91 -74 -166 -74q-99 0 -113 85q-103 -85 -178 -85q-78 0 -103 52.5t1 145.5l83 308h136l-78 -290q-14 -56 -4.5 -78t44.5 -22q42 0 105 53l90 338h136l-78 -290q-14 -56 -5 -78t44 -22q42 0 105 53l90 338h136l-183 -682h-136z" />
<glyph unicode="&#x271;" horiz-adv-x="852" d="M578 -186l-2 2q-45 0 -75 14l52 101q16 -7 31 -7q26 0 41 19t27 63l77 286q14 56 4.5 78t-44.5 22q-41 0 -104 -53l-90 -338h-136l78 290q14 56 4.5 78t-44.5 22q-41 0 -104 -53l-90 -338h-136l132 494h111l-7 -65h4q95 77 171 77q98 0 114 -85q103 85 178 85 q78 0 103 -52.5t-1 -145.5l-81 -301q-51 -193 -213 -193z" />
<glyph unicode="&#x272;" horiz-adv-x="568" d="M-6 -186h-2q-45 0 -73 14l52 101q16 -7 29 -7q24 0 38.5 17.5t24.5 55.5l134 500h112l-8 -64h4q100 76 181 76q154 0 101 -198l-83 -308h-136l78 290q14 56 4.5 78t-44.5 22q-27 0 -51.5 -12.5t-61.5 -40.5l-91 -339q-48 -185 -208 -185z" />
<glyph unicode="&#x273;" horiz-adv-x="568" d="M479 -186h-3q-158 0 -110 185l79 292q14 56 4.5 78t-44.5 22q-27 0 -51.5 -12.5t-61.5 -40.5l-90 -338h-136l132 494h111l-7 -64h4q100 76 181 76q154 0 101 -198l-84 -313q-10 -37 -4.5 -55t29.5 -18q12 0 31 7l-3 -101q-33 -14 -78 -14z" />
<glyph unicode="&#x274;" horiz-adv-x="558" d="M68 0l134 494h126l68 -220q4 -14 11.5 -51t11.5 -52h3q24 132 35 175l40 149h127l-132 -494h-126l-69 220q-5 16 -13 56t-10 48h-4q-23 -130 -35 -176l-40 -149h-127z" />
<glyph unicode="&#x275;" horiz-adv-x="553" d="M273 -12q-100 0 -151 68.5t-18 190.5q33 123 120.5 191.5t187.5 68.5t151 -69t18 -191t-120.5 -190.5t-187.5 -68.5zM300 91q94 0 141 117h-219q-8 -56 12.5 -86.5t65.5 -30.5zM248 299h216q4 51 -17 78.5t-64 27.5q-88 0 -135 -106z" />
<glyph unicode="&#x276;" horiz-adv-x="721" d="M287 -12l1 1q-105 0 -161 67t-23 191q33 123 125 191.5t197 68.5q56 0 109 -12h284l-27 -100h-209l-26 -96h178l-24 -91h-178l-29 -110h219l-27 -98h-294q-56 -12 -115 -12zM324 97l-1 -1q18 0 48 7l77 287q-22 8 -44 8q-51 0 -95 -37.5t-65 -113.5q-21 -78 3 -114 t77 -36z" />
<glyph unicode="&#x278;" horiz-adv-x="728" d="M252 -187l48 180q-109 6 -168 74t-28 182t126 181.5t207 73.5l53 199h124l-53 -199q109 -5 168 -73t28 -182t-126.5 -182t-206.5 -74l-48 -180h-124zM451 94q58 4 103 44.5t63 110.5q19 71 -3.5 110.5t-80.5 42.5zM409 402q-58 -4 -102 -43.5t-63 -109.5 q-18 -70 5 -110.5t78 -44.5z" />
<glyph unicode="&#x279;" horiz-adv-x="390" d="M54 -12h-1q-33 0 -56 10l55 118q32 -8 50 -8q32 0 68.5 23t68.5 72l78 292h136l-132 -494h-111l13 87h-3q-39 -48 -83 -74t-83 -26z" />
<glyph unicode="&#x27a;" horiz-adv-x="390" d="M54 -12h-1q-33 0 -56 10l55 118q32 -8 50 -8q32 0 68.5 23t68.5 72l134 500h136l-188 -702h-111l13 87h-3q-39 -48 -83 -74t-83 -26z" />
<glyph unicode="&#x27b;" horiz-adv-x="390" d="M296 -186l-1 1q-144 0 -101 165l29 108h-3q-39 -48 -83 -74t-83 -26q-33 0 -56 10l55 118q32 -8 50 -8q32 0 68.5 23t68.5 72l78 292h136l-134 -500q-10 -37 -4.5 -55t29.5 -18q12 0 31 7l-2 -101q-33 -14 -78 -14z" />
<glyph unicode="&#x27d;" horiz-adv-x="390" d="M178 -186h-1q-158 0 -110 185l133 496h111l-13 -87h4q81 99 166 99q34 0 56 -10l-55 -118q-32 8 -50 8q-74 0 -138 -95l-79 -297q-10 -37 -4.5 -55t29.5 -18q12 0 31 7l-2 -101q-33 -14 -78 -14z" />
<glyph unicode="&#x27e;" horiz-adv-x="372" d="M68 0l81 306q24 90 88.5 145.5t163.5 55.5q66 0 103 -14l-52 -114q-30 10 -63 10q-31 0 -63.5 -28.5t-47.5 -84.5l-74 -276h-136z" />
<glyph unicode="&#x280;" horiz-adv-x="526" d="M68 0l132 495h199q92 0 137 -38t22 -123q-26 -96 -122 -140l71 -194h-151l-48 167h-60l-44 -167h-136zM273 260h45q41 0 68.5 18.5t35.5 51.5q8 32 -9.5 48t-59.5 16h-45z" />
<glyph unicode="&#x281;" horiz-adv-x="526" d="M458 0h-200q-92 0 -136.5 38t-21.5 123q26 96 121 139l-73 195h151l49 -167h62l44 166h136zM302 101h45l37 135h-45q-41 0 -68 -19t-36 -52q-8 -32 9 -48t58 -16z" />
<glyph unicode="&#x282;" horiz-adv-x="439" d="M208 -12l2 1q-32 0 -66 8q-10 -38 -2 -57.5t36 -19.5q16 0 42 7l-2 -98q-38 -14 -88 -14q-154 0 -103 193l12 43l-1 1l85 85q52 -48 118 -48q67 0 81 49q3 12 -0.5 21.5t-16.5 18t-22.5 13.5t-30.5 14q-5 1 -13 5q-120 51 -95 145q18 68 80 110t146 42q91 0 155 -62 l-84 -82q-46 43 -95 43q-62 0 -74 -45q-4 -14 6 -25.5t23 -18t39 -16.5q4 -2 14 -6q56 -23 84 -55.5t12 -93.5q-19 -69 -83.5 -113.5t-158.5 -44.5zM129 -185h1h-1z" />
<glyph unicode="&#x283;" horiz-adv-x="273" d="M-18 -200l1 2q-51 0 -83 14l52 100q21 -7 38 -7q30 0 47 19.5t29 62.5l143 532q52 193 232 193q43 0 71 -14l-52 -101q-16 7 -28 7q-35 0 -54.5 -20t-31.5 -63l-143 -532q-51 -193 -221 -193z" />
<glyph unicode="&#x284;" horiz-adv-x="312" d="M72 224l17 61l78 6l62 231q52 193 232 193q43 0 71 -14l-52 -101q-16 7 -28 7q-35 0 -54.5 -20t-31.5 -63l-63 -233h72l-18 -67h-72l-62 -232q-51 -193 -221 -193l1 2q-52 0 -83 14l52 100q21 -7 38 -7q30 0 47 19.5t29 62.5l63 234h-77z" />
<glyph unicode="&#x288;" horiz-adv-x="375" d="M203 -186l-1 -1q-166 0 -116 187l104 386h-68l27 102l78 6l52 132h113l-36 -132h121l-29 -107h-121l-103 -385q-21 -81 45 -81q20 0 50 10l-5 -99q-65 -18 -111 -18z" />
<glyph unicode="&#x289;" horiz-adv-x="610" d="M83 267l17 61l79 6l43 160h136l-43 -160h161l43 160h136l-43 -160h72l-18 -67h-72l-71 -267h-111l9 70h-4q-90 -82 -178 -82h1h-1q-153 0 -100 198l22 81h-78zM459 267h-162l-17 -63q-14 -56 -4.5 -78t44.5 -22q51 0 111 59z" />
<glyph unicode="&#x28a;" horiz-adv-x="555" d="M275 -12h1q-108 0 -155 64t-24 150q29 108 123 182l1 3h-85l29 107h209l-24 -88q-81 -72 -108 -175q-17 -56 -1 -95t65 -39t84.5 37.5t51.5 96.5q27 104 -16 175l24 88h209l-29 -107h-85l-1 -3q54 -74 25 -182q-23 -86 -104.5 -150t-188.5 -64h-1z" />
<glyph unicode="&#x28b;" horiz-adv-x="548" d="M269 -12v2q-97 0 -137.5 58t-11.5 168l75 280h136l-74 -277q-31 -120 48 -120q43 0 80 48t59 130q34 124 -23 124q-10 0 -22 -3l11 101q27 8 68 8q76 0 107.5 -52.5t3.5 -157.5q-38 -142 -121.5 -225.5t-198.5 -83.5z" />
<glyph unicode="&#x28c;" horiz-adv-x="513" d="M12 0l296 494h157l36 -494h-137l-5 241q1 49 1 151h-4q-40 -78 -80 -151l-133 -241h-131z" />
<glyph unicode="&#x28d;" horiz-adv-x="766" d="M24 0l256 495h160l-7 -209q-6 -92 -11 -145h4q43 98 65 145l103 208h156l-6 -494h-136l12 238q15 140 15 145h-4q-44 -98 -69 -145l-121 -238h-120l4 238q1 23 3.5 71.5t3.5 73.5h-4q-8 -18 -29 -68t-34 -77l-115 -238h-126z" />
<glyph unicode="&#x28e;" horiz-adv-x="512" d="M12 0l326 530q61 95 120.5 140t140.5 45q36 0 66 -10l-52 -104q-24 6 -32 6q-68 0 -111 -72l-31 -51l63 -484h-137l-17 223q0 3 -3 140h-4q-50 -96 -74 -140l-124 -223h-131z" />
<glyph unicode="&#x28f;" horiz-adv-x="458" d="M162 0l41 152l-77 342h143l16 -113q2 -22 6.5 -61.5t6.5 -55.5h4q73 111 77 117l76 113h142l-258 -342l-41 -152h-136z" />
<glyph unicode="&#x290;" horiz-adv-x="454" d="M394 -186h-1q-82 0 -108 48t-7 121l5 17h-247l20 73l300 314h-192l29 107h362l-20 -73l-300 -314h213l-30 -112q-10 -37 -4.5 -55t29.5 -18q13 0 32 7l-3 -101q-33 -14 -78 -14z" />
<glyph unicode="&#x291;" horiz-adv-x="494" d="M257 -82l-62 13l34 68h-192l20 73l300 314h-192l29 107h353l-20 -73l-300 -314q20 -2 64 -4q98 144 181 144q49 0 68.5 -27t5.5 -79q-16 -62 -70 -101.5t-140 -39.5h-39q-16 -29 -40 -81zM359 99h39q30 0 50 13t25 32q8 30 -24 30q-37 0 -90 -75z" />
<glyph unicode="&#x292;" horiz-adv-x="454" d="M156 -200l-2 1q-122 0 -183 81l84 84q46 -55 113 -55q46 0 83 31t51 83q13 47 -7.5 73.5t-68.5 26.5q-27 0 -63 -13l-28 66l215 210h-209l29 107h372l-20 -73l-210 -205q82 -4 115.5 -56t12.5 -134q-28 -105 -109 -166t-175 -61z" />
<glyph unicode="&#x294;" horiz-adv-x="443" d="M132 0l85 318q102 55 148.5 96t59.5 91q13 47 -6.5 73t-65.5 26q-69 0 -146 -66l-45 86q107 89 234 89q95 0 144 -52.5t23 -149.5q-20 -76 -73.5 -130.5t-149.5 -114.5l-72 -266h-136z" />
<glyph unicode="&#x295;" horiz-adv-x="495" d="M198 0l72 266q-63 60 -87.5 114.5t-4.5 130.5q26 97 106 149.5t179 52.5q119 0 177 -89l-91 -86q-37 66 -100 66q-51 0 -87 -26t-49 -73q-13 -50 10.5 -91t95.5 -96l-85 -318h-136z" />
<glyph unicode="&#x298;" horiz-adv-x="551" d="M273 -12h1q-104 0 -139 90.5t12 275.5q47 177 132.5 269t189.5 92t139 -89.5t-11 -271.5q-49 -180 -134.5 -273t-188.5 -93h-1zM303 98q44 0 88.5 60t80.5 196q18 67 23.5 117t-1.5 78.5t-21 42t-34 13.5q-43 0 -88 -60.5t-80 -190.5q-15 -57 -21.5 -101.5t-5 -73 t9.5 -47.5t20.5 -26.5t28.5 -7.5zM356 294q-25 0 -38.5 17.5t-6.5 42.5t29.5 42.5t47.5 17.5t38.5 -17.5t6.5 -42.5t-29.5 -42.5t-47.5 -17.5z" />
<glyph unicode="&#x299;" horiz-adv-x="525" d="M68 0l132 495h207q90 0 135 -30.5t27 -99.5q-10 -35 -38 -63t-72 -39l-1 -4q95 -26 71 -117q-19 -72 -85.5 -107t-157.5 -35h-218zM226 92h76q80 0 97 60q7 26 -9.5 41.5t-57.5 15.5h-75zM281 299l65 1q76 0 89 52q7 25 -7.5 38.5t-52.5 13.5h-66z" />
<glyph unicode="&#x29c;" horiz-adv-x="579" d="M69 0l132 494h136l-49 -182h172l49 182h136l-132 -494h-136l52 193h-172l-52 -193h-136z" />
<glyph unicode="&#x29d;" horiz-adv-x="348" d="M224 -260v1q-13 70 -32 117q-65 -57 -152 -57q-68 0 -98 40t-14 101q15 58 63 92.5t116 34.5q26 0 54 -11l117 437h136l-131 -488q-8 -26 -13 -39q52 -73 72 -181zM365 572q-35 0 -52 20.5t-8 51.5q8 32 36 52.5t63 20.5t52 -20.5t9 -52.5q-9 -31 -37 -51.5t-63 -20.5z M131 -43q-25 23 -49 23q-19 0 -32.5 -9.5t-17.5 -24.5q-5 -17 3.5 -28.5t28.5 -11.5q44 0 67 51z" />
<glyph unicode="&#x29f;" horiz-adv-x="428" d="M68 0l133 494h136l-104 -387h199l-29 -107h-335z" />
<glyph unicode="&#x2a1;" horiz-adv-x="470" d="M146 0l56 210h-136l27 102l77 6h78q167 98 191 187q13 47 -6 73t-65 26q-69 0 -146 -66l-45 86q107 89 233 89q95 0 144 -52.5t23 -149.5q-25 -93 -171 -193h132l-29 -107h-171l-56 -211h-136z" />
<glyph unicode="&#x2a2;" horiz-adv-x="470" d="M188 0l55 212h-171l29 107h132q-92 103 -68 193q26 97 106 149.5t179 52.5q119 0 177 -89l-91 -86q-37 66 -100 66q-51 0 -87 -26t-49 -73q-24 -87 90 -187h78l75 -6l-27 -102h-136l-56 -211h-136z" />
<glyph unicode="&#x2b0;" horiz-adv-x="381" d="M145 379l125 465h97l-31 -115l-23 -62q60 48 117 48q103 0 68 -133l-54 -202h-97l51 190q10 32 4.5 48t-31.5 16q-27 0 -70 -34l-59 -221h-97z" />
<glyph unicode="&#x2b2;" horiz-adv-x="186" d="M91 242q-29 0 -55 8l37 72q10 -5 26 -5q19 0 29 12t18 41l90 336h97l-89 -332q-36 -132 -153 -132h1h-1zM298 754q-25 0 -37 14t-6 36t26 36.5t45 14.5q24 0 36 -14.5t6 -36.5t-26 -36t-44 -14z" />
<glyph unicode="&#x2b3;" horiz-adv-x="266" d="M145 379l89 327h78l-7 -57h2q55 65 110 65q26 0 40 -7l-40 -84q-24 6 -34 6q-49 0 -91 -60l-50 -190h-97z" />
<glyph unicode="&#x2b7;" horiz-adv-x="517" d="M201 379l5 328h96l-9 -153l-11 -98h3l45 98l81 153h79v-153l-6 -98h3l42 98l73 153h89l-168 -328h-113l4 132l7 91h-2l-41 -91l-66 -132h-111z" />
<glyph unicode="&#x2b8;" horiz-adv-x="347" d="M148 253q-26 0 -46 6l37 73q13 -5 22 -5q45 0 71 45l9 16l-43 318h97l10 -142v-61v-33h4q7 14 15.5 29.5t18.5 34.5t16 30l77 142h93l-202 -330q-42 -64 -82 -93.5t-97 -29.5z" />
<glyph unicode="&#x2b9;" horiz-adv-x="292" d="M189 398l96 288h136l-54 -120l-90 -168h-88z" />
<glyph unicode="&#x2bb;" horiz-adv-x="292" d="M239 354q-43 0 -57.5 32t1.5 91q36 139 192 208l15 -60q-99 -45 -122 -126q4 1 10 1q31 0 47 -19t7 -50q-10 -35 -35.5 -56t-57.5 -21z" />
<glyph unicode="&#x2bc;" horiz-adv-x="292" d="M198 366l-16 60q99 45 122 126q-3 -1 -9 -1q-31 0 -47 19t-7 50q10 36 35.5 57t57.5 21q43 0 57.5 -33t-1.5 -91q-36 -139 -192 -208z" />
<glyph unicode="&#x2be;" horiz-adv-x="174" d="M-43 550l16 51q67 -1 81 51q6 24 -6.5 38t-48.5 13l14 51q69 3 95 -25t13 -77t-55 -77t-109 -25z" />
<glyph unicode="&#x2bf;" horiz-adv-x="174" d="M78 550h-2q-69 -3 -95 25t-13 77t55 77t109 25l-14 -51q-67 1 -81 -51q-6 -24 6 -38t48 -13z" />
<glyph unicode="&#x2c1;" horiz-adv-x="336" d="M234 379l48 175q-42 40 -58.5 76t-3.5 86q17 65 71 100t121 35q81 0 119 -60l-64 -60q-23 42 -66 42q-32 0 -55 -16t-31 -46q-9 -33 7 -60t64 -63l-56 -209h-96z" />
<glyph unicode="&#x2c6;" horiz-adv-x="553" d="M262 611l145 133h138l74 -133l-66 -49l-99 96h-4l-149 -96z" />
<glyph unicode="&#x2c7;" horiz-adv-x="553" d="M362 576l-75 133l66 49l99 -96h4l149 96l39 -49l-144 -133h-138z" />
<glyph unicode="&#x2c8;" horiz-adv-x="142" d="M166 538l48 203h110l-60 -203h-98z" />
<glyph unicode="&#x2c9;" horiz-adv-x="303" d="M165 593l23 88h291l-23 -88h-291z" />
<glyph unicode="&#x2ca;" horiz-adv-x="234" d="M276 572l-49 66l199 180l69 -90z" />
<glyph unicode="&#x2cb;" horiz-adv-x="234" d="M263 572l-135 157l116 90l104 -180z" />
<glyph unicode="&#x2cc;" horiz-adv-x="142" d="M-56 -268l60 203h98l-48 -203h-110z" />
<glyph unicode="&#x2d0;" horiz-adv-x="292" d="M44 0l144 181h14l46 -181h-204zM222 305l-47 180h204l-143 -180h-14z" />
<glyph unicode="&#x2d1;" horiz-adv-x="292" d="M214 282l-47 180h204l-143 -180h-14z" />
<glyph unicode="&#x2d8;" horiz-adv-x="553" d="M429 572q-80 0 -110 43.5t-15 112.5l82 13q-4 -36 12 -59.5t55 -23.5t67.5 23.5t43.5 59.5l74 -13q-21 -69 -74.5 -112.5t-134.5 -43.5z" />
<glyph unicode="&#x2d9;" horiz-adv-x="553" d="M430 572q-34 0 -50 20.5t-7 52.5q8 32 35 52.5t61 20.5t50 -20.5t8 -52.5q-9 -32 -36 -52.5t-61 -20.5z" />
<glyph unicode="&#x2da;" horiz-adv-x="553" d="M427 562h-1q-60 0 -85.5 29.5t-13.5 74.5t53.5 74t101.5 29t86.5 -29t14.5 -74q-13 -45 -54.5 -74.5t-101.5 -29.5zM440 614q19 0 36 14t23 37q6 22 -3.5 36t-28.5 14t-35.5 -14t-22.5 -36q-6 -23 3 -37t28 -14z" />
<glyph unicode="&#x2db;" horiz-adv-x="553" d="M241 -210l-1 -2q-45 0 -67.5 24t-10.5 67q10 39 40 70.5t63 51.5h78q-68 -44 -81 -91q-5 -19 4.5 -29t27.5 -10q20 0 40 13l13 -62q-51 -32 -106 -32z" />
<glyph unicode="&#x2dc;" horiz-adv-x="553" d="M497 574q-22 0 -40 10.5t-28 23t-22 23t-23 10.5q-31 0 -53 -59l-84 5q44 149 160 149q28 0 48.5 -17t36 -33.5t28.5 -16.5q31 0 52 59l85 -5q-44 -149 -160 -149z" />
<glyph unicode="&#x2dd;" horiz-adv-x="553" d="M376 566l-63 32l135 179l81 -41zM550 566l-63 32l135 179l81 -41z" />
<glyph unicode="&#x2de;" horiz-adv-x="183" d="M186 227q-82 0 -87 97l-138 -53l27 98l201 77q-7 -55 -4.5 -87t10 -43.5t21.5 -11.5q19 0 43 12l11 -65q-42 -24 -84 -24z" />
<glyph unicode="&#x2e0;" horiz-adv-x="347" d="M241 238q-47 0 -67.5 25.5t-8.5 68.5q8 33 65 101l-32 272h97l7 -139q0 -16 2 -41.5t2 -37.5h3q9 17 25 42.5t22 36.5l81 139h92l-174 -270q22 -68 13 -103q-12 -43 -46.5 -68.5t-80.5 -25.5zM257 298v1q23 0 31 28q7 30 -5 67h-3q-33 -46 -38 -68q-8 -28 15 -28z" />
<glyph unicode="&#x2e1;" horiz-adv-x="191" d="M232 371l1 -1q-90 0 -60 109l97 362h97l-98 -366q-8 -28 9 -28q7 0 13 2l-7 -70q-21 -8 -52 -8z" />
<glyph unicode="&#x2e2;" horiz-adv-x="294" d="M243 371q-70 0 -116 44l58 61q39 -34 79 -34q41 0 50 29q2 7 0 12.5t-10 10.5t-13.5 7.5t-18.5 8.5q-2 1 -7 3t-7 3q-79 33 -62 97q12 45 54 73.5t98 28.5q61 0 106 -41l-59 -58q-33 28 -63 28q-38 0 -45 -27q-3 -13 7 -20t35 -17q2 -1 6.5 -3t7.5 -3q17 -7 28 -13.5 t23.5 -18.5t13.5 -27t-2 -38q-12 -47 -56 -76.5t-107 -29.5z" />
<glyph unicode="&#x2e3;" horiz-adv-x="341" d="M110 379l150 170l-55 157h104l15 -54l15 -50h4l35 50l39 54h101l-142 -168l60 -159h-103l-18 54l-18 52h-4l-41 -52l-41 -54h-101z" />
<glyph unicode="&#x300;" horiz-adv-x="0" d="M147 572l-135 157l116 90l104 -180z" />
<glyph unicode="&#x301;" horiz-adv-x="0" d="M160 572l-49 66l199 180l69 -90z" />
<glyph unicode="&#x302;" horiz-adv-x="0" d="M-14 611l145 133h138l74 -133l-66 -49l-99 96h-4l-149 -96z" />
<glyph unicode="&#x303;" horiz-adv-x="0" d="M221 574q-28 0 -48.5 17t-36 33.5t-28.5 16.5q-31 0 -53 -59l-84 5q44 149 160 149q28 0 48.5 -17t36 -33.5t28.5 -16.5q31 0 52 59l85 -5q-44 -149 -160 -149z" />
<glyph unicode="&#x304;" horiz-adv-x="0" d="M14 593l23 88h291l-23 -88h-291z" />
<glyph unicode="&#x305;" horiz-adv-x="0" d="M14 593l23 88h291l-23 -88h-291z" />
<glyph unicode="&#x306;" horiz-adv-x="0" d="M153 572q-80 0 -110 43.5t-15 112.5l82 13q-4 -36 12 -59.5t55 -23.5t67.5 23.5t43.5 59.5l74 -13q-21 -69 -74.5 -112.5t-134.5 -43.5z" />
<glyph unicode="&#x307;" horiz-adv-x="0" d="M153 572q-34 0 -50 20.5t-7 52.5q8 32 35 52.5t61 20.5t50 -20.5t8 -52.5q-9 -32 -36 -52.5t-61 -20.5z" />
<glyph unicode="&#x308;" horiz-adv-x="0" d="M261 572q-29 0 -43 19.5t-6 48.5t32 48.5t53 19.5q30 0 44 -19.5t6 -48.5t-32 -48.5t-54 -19.5zM47 572q-30 0 -44 19.5t-6 48.5t32 48.5t54 19.5q29 0 43 -19.5t6 -48.5t-32 -48.5t-53 -19.5z" />
<glyph unicode="&#x309;" horiz-adv-x="0" d="M111 568l4 56q49 9 56 36q5 19 -11.5 29.5t-57.5 13.5l31 84q89 -2 122 -32.5t19 -84.5q-13 -46 -57.5 -71t-105.5 -31z" />
<glyph unicode="&#x30a;" horiz-adv-x="0" d="M150 562h-1q-60 0 -85.5 29.5t-13.5 74.5t53.5 74t101.5 29t86.5 -29t14.5 -74q-13 -45 -54.5 -74.5t-101.5 -29.5zM163 614q19 0 36 14t23 37q6 22 -3.5 36t-28.5 14t-35.5 -14t-22.5 -36q-6 -23 3 -37t28 -14z" />
<glyph unicode="&#x30b;" horiz-adv-x="0" d="M100 566l-63 32l135 179l81 -41zM274 566l-63 32l135 179l81 -41z" />
<glyph unicode="&#x30c;" horiz-adv-x="0" d="M85 576l-75 133l66 49l99 -96h4l149 96l39 -49l-144 -133h-138z" />
<glyph unicode="&#x30f;" horiz-adv-x="0" d="M29 566l-62 170l103 41l40 -179zM202 566l-61 170l103 41l39 -179z" />
<glyph unicode="&#x311;" horiz-adv-x="0" d="M63 566l-75 13q22 69 75.5 112.5t134.5 43.5t111 -43.5t14 -112.5l-81 -13q4 36 -12 59.5t-55 23.5t-67.5 -23.5t-44.5 -59.5z" />
<glyph unicode="&#x312;" horiz-adv-x="0" d="M154 582v1q-64 0 -42 80q23 89 130 127l10 -43q-64 -23 -78 -62q2 1 8 1q21 0 32.5 -14t5.5 -36q-7 -25 -25.5 -39.5t-40.5 -14.5z" />
<glyph unicode="&#x313;" horiz-adv-x="0" d="M122 579l-9 44q63 22 79 60q-3 -1 -9 -1q-21 0 -32.5 13.5t-5.5 35.5q7 25 25.5 40t40.5 15q63 0 41 -80q-23 -89 -130 -127z" />
<glyph unicode="&#x318;" horiz-adv-x="0" d="M28 -256h-73l18 67h-109l18 67h109l18 67h73z" />
<glyph unicode="&#x319;" horiz-adv-x="0" d="M35 -188h-109l-18 -67h-73l54 201h73l-18 -67h109z" />
<glyph unicode="&#x31a;" horiz-adv-x="0" d="M250 574h-73l22 82h-109l17 67h182z" />
<glyph unicode="&#x31b;" horiz-adv-x="0" d="M116 428l6 58q73 13 90 75q6 25 0 57l113 44q17 -41 3 -93q-18 -65 -75.5 -99.5t-136.5 -41.5z" />
<glyph unicode="&#x31c;" horiz-adv-x="0" d="M-8 -260h-2q-69 -3 -95 25t-13 77t55 77t109 25l-14 -51q-67 1 -81 -51q-6 -24 6 -38t48 -13z" />
<glyph unicode="&#x31d;" horiz-adv-x="0" d="M45 -226h-211l18 67h69l28 105h73l-28 -105h69z" />
<glyph unicode="&#x31e;" horiz-adv-x="0" d="M65 -151h-69l-28 -105h-73l28 105h-69l18 67h211z" />
<glyph unicode="&#x31f;" horiz-adv-x="0" d="M55 -188h-69l-18 -67h-73l18 67h-69l18 67h69l18 67h73l-18 -67h69z" />
<glyph unicode="&#x320;" horiz-adv-x="0" d="M-156 -188l18 67h211l-18 -67h-211z" />
<glyph unicode="&#x323;" horiz-adv-x="0" d="M153 -223q-34 0 -50 20.5t-7 52.5q8 32 35 52.5t61 20.5t50 -20.5t8 -52.5q-9 -32 -36 -52.5t-61 -20.5z" />
<glyph unicode="&#x324;" horiz-adv-x="0" d="M47 -215q-30 0 -44 19.5t-6 48.5t32 48.5t54 19.5q29 0 43 -19.5t6 -48.5t-32 -48.5t-53 -19.5zM261 -215q-29 0 -43 19.5t-6 48.5t32 48.5t53 19.5q30 0 44 -19.5t6 -48.5t-32 -48.5t-54 -19.5z" />
<glyph unicode="&#x325;" horiz-adv-x="0" d="M150 -248h-1q-60 0 -85.5 29.5t-13.5 74.5t53.5 74t101.5 29t86.5 -29t14.5 -74q-13 -45 -54.5 -74.5t-101.5 -29.5zM163 -196q19 0 36 14t23 37q6 22 -3.5 36t-28.5 14t-35.5 -14t-22.5 -36q-6 -23 3 -37t28 -14z" />
<glyph unicode="&#x326;" horiz-adv-x="0" d="M-163 -237l4 55q59 4 84.5 13.5t30.5 27.5q4 15 -9.5 24t-45.5 12l40 51q74 -7 99.5 -26.5t15.5 -56.5q-26 -94 -219 -100z" />
<glyph unicode="&#x327;" horiz-adv-x="0" d="M-163 -237l3 56q60 4 85.5 14t31.5 31q4 17 -10 27t-56 16l74 96h80l-46 -65q72 -18 57 -75q-26 -94 -219 -100z" />
<glyph unicode="&#x328;" horiz-adv-x="0" d="M-36 -210l-1 -2q-45 0 -67.5 24t-10.5 67q10 39 40 70.5t63 51.5h78q-68 -44 -81 -91q-5 -19 4.5 -29t27.5 -10q20 0 40 13l13 -62q-51 -32 -106 -32z" />
<glyph unicode="&#x329;" horiz-adv-x="0" d="M-126 -268l60 203h98l-48 -203h-110z" />
<glyph unicode="&#x32a;" horiz-adv-x="0" d="M0 -221l21 76h-118l-20 -76h-68l38 143h253l-38 -143h-68z" />
<glyph unicode="&#x32c;" horiz-adv-x="0" d="M85 -225l-75 133l66 49l99 -96h4l149 96l39 -49l-144 -133h-138z" />
<glyph unicode="&#x32e;" horiz-adv-x="0" d="M153 -233q-80 0 -110 43.5t-15 112.5l82 13q-4 -36 12 -59.5t55 -23.5t67.5 23.5t43.5 59.5l74 -13q-21 -69 -74.5 -112.5t-134.5 -43.5z" />
<glyph unicode="&#x32f;" horiz-adv-x="0" d="M63 -245l-75 13q22 69 75.5 112.5t134.5 43.5t111 -43.5t14 -112.5l-81 -13q4 36 -12 59.5t-55 23.5t-67.5 -23.5t-44.5 -59.5z" />
<glyph unicode="&#x330;" horiz-adv-x="0" d="M221 -226q-22 0 -40 10.5t-28 23t-22 23t-23 10.5q-31 0 -53 -59l-84 5q44 149 160 149q22 0 40 -10.5t28 -23t22 -23t23 -10.5q31 0 52 59l85 -5q-44 -149 -160 -149z" />
<glyph unicode="&#x331;" horiz-adv-x="0" d="M14 -186l23 88h291l-23 -88h-291z" />
<glyph unicode="&#x334;" horiz-adv-x="0" d="M221 180q-22 0 -40 10.5t-28 23t-22 23t-23 10.5q-31 0 -53 -59l-84 5q44 149 160 149q22 0 40 -10.5t28 -23t22 -23t23 -10.5q31 0 52 59l85 -5q-44 -149 -160 -149z" />
<glyph unicode="&#x339;" horiz-adv-x="0" d="M-131 -260l16 51q67 -1 81 51q6 24 -6.5 38t-48.5 13l14 51q69 3 95 -25t13 -77t-55 -77t-109 -25z" />
<glyph unicode="&#x33a;" horiz-adv-x="0" d="M-184 -216l37 142h68l-21 -76h118l21 76h68l-38 -142h-253z" />
<glyph unicode="&#x33b;" horiz-adv-x="0" d="M-192 -246l47 178h253l-47 -178h-253zM-111 -194h118l21 76h-118z" />
<glyph unicode="&#x33c;" horiz-adv-x="0" d="M-247 -234q43 158 149 158q58 0 61 -54h3q32 54 91 54q107 0 64 -158l-73 -10q12 50 7.5 66t-25.5 16q-40 0 -55 -59l-6 -21h-67l6 21q15 59 -24 59q-21 0 -35.5 -17.5t-27.5 -64.5z" />
<glyph unicode="&#x33d;" horiz-adv-x="0" d="M94 543l-34 47l65 51l-37 51l59 47l37 -51l65 51l34 -47l-65 -51l37 -51l-59 -47l-37 51z" />
<glyph unicode="&#x342;" horiz-adv-x="0" d="M221 574q-28 0 -48.5 17t-36 33.5t-28.5 16.5q-31 0 -53 -59l-84 5q44 149 160 149q28 0 48.5 -17t36 -33.5t28.5 -16.5q31 0 52 59l85 -5q-44 -149 -160 -149z" />
<glyph unicode="&#x345;" horiz-adv-x="0" d="M-5 -214v1q-106 0 -73 121l10 36h99q-4 -10 -13 -43q-9 -32 27 -32q8 0 18 2l-6 -74q-29 -11 -62 -11z" />
<glyph unicode="&#x361;" horiz-adv-x="0" d="M-276 538l-16 64q236 124 489 124q252 0 422 -124l-53 -64q-147 100 -394 100t-448 -100z" />
<glyph unicode="&#x374;" horiz-adv-x="292" d="M189 398l97 289h136l-54 -121l-90 -168h-89z" />
<glyph unicode="&#x375;" horiz-adv-x="292" d="M54 0l54 121l90 168h89l-97 -289h-136z" />
<glyph unicode="&#x37a;" horiz-adv-x="553" d="M274 -214v1q-106 0 -73 121l10 36h99q-4 -10 -13 -43q-9 -32 27 -32q8 0 18 2l-6 -74q-29 -11 -62 -11z" />
<glyph unicode="&#x37e;" horiz-adv-x="292" d="M23 -191l-10 74q57 19 93.5 50.5t47.5 70.5h-9q-35 0 -53.5 21t-8.5 58q10 35 41 57.5t68 22.5q46 0 62 -35.5t-1 -97.5q-21 -79 -81 -137t-149 -84zM143 318q-36 0 -53.5 25t-7.5 62t41 62.5t67 25.5t53 -25t7 -63q-10 -37 -40.5 -62t-66.5 -25z" />
<glyph unicode="&#x384;" horiz-adv-x="553" d="M379 572l94 218l127 -23l-134 -211z" />
<glyph unicode="&#x385;" horiz-adv-x="553" d="M384 580l96 217l91 -20l-129 -211zM305 586q-23 0 -34.5 15t-4.5 39q6 24 25.5 39t42.5 15t34.5 -15t5.5 -39q-7 -24 -26.5 -39t-42.5 -15zM563 586q-23 0 -34.5 15t-4.5 39q6 24 25.5 39t42.5 15t34.5 -15t5.5 -39q-7 -24 -26.5 -39t-42.5 -15z" />
<glyph unicode="&#x386;" horiz-adv-x="613" d="M40 0l385 653h162l33 -652h-145v162h-207l-88 -163h-140zM123 461l85 210l112 -16l-115 -210zM325 270h150v67q-2 55 0 172q1 13 1 39h-4q-87 -169 -111 -212z" />
<glyph unicode="&#x387;" horiz-adv-x="292" d="M143 318q-36 0 -53.5 25t-7.5 62t41 62.5t67 25.5t53 -25t7 -63q-10 -37 -40.5 -62t-66.5 -25z" />
<glyph unicode="&#x388;" horiz-adv-x="654" d="M189 0l174 653h403l-30 -114h-267l-39 -144h227l-30 -115h-227l-44 -165h277l-31 -115h-413zM109 461l85 210l112 -16l-115 -210z" />
<glyph unicode="&#x389;" horiz-adv-x="780" d="M189 0l175 652h136l-69 -255h238l69 255h137l-175 -652h-137l75 278h-238l-75 -278h-136zM110 460l85 210l112 -16l-115 -210z" />
<glyph unicode="&#x38a;" horiz-adv-x="404" d="M189 0l175 652h136l-175 -652h-136zM110 460l85 210l112 -16l-115 -210z" />
<glyph unicode="&#x38c;" horiz-adv-x="766" d="M422 -12q-132 0 -188 91.5t-14 249.5q42 157 146 246t237 89t189.5 -89.5t14.5 -245.5q-42 -158 -147.5 -249.5t-237.5 -91.5zM453 106q70 0 128 60.5t86 162.5q27 102 1 159.5t-97 57.5t-127.5 -58t-83.5 -159q-28 -102 -2.5 -162.5t95.5 -60.5zM110 460l85 210l112 -16 l-115 -210z" />
<glyph unicode="&#x38e;" horiz-adv-x="686" d="M360 0l64 236l-85 416h146l21 -156q2 -23 7.5 -70.5t8.5 -73.5h4q94 143 95 144l104 156h143l-308 -416l-63 -236h-137zM111 460l85 210l112 -16l-115 -210z" />
<glyph unicode="&#x38f;" horiz-adv-x="790" d="M129 0l28 110h114l1 4q-71 99 -33 242q37 137 141 222.5t235 85.5q132 0 190 -85.5t21 -222.5q-38 -142 -164 -242l-1 -4h114l-29 -110h-261l26 99q132 96 172 245q24 90 -2.5 146.5t-97.5 56.5t-127 -56.5t-80 -146.5q-40 -149 40 -245l-26 -99h-261zM101 460l85 210 l112 -16l-115 -210z" />
<glyph unicode="&#x390;" horiz-adv-x="294" d="M199 -12q-73 0 -93 43t3 115l93 348h138q-12 -39 -35.5 -117.5t-41 -137.5t-28.5 -99q-12 -42 28 -42q14 0 32 6l-10 -100q-41 -16 -86 -16zM244 580l96 217l91 -20l-129 -211zM165 586q-23 0 -34.5 15t-4.5 39q6 24 25.5 39t42.5 15t34.5 -15t5.5 -39q-7 -24 -26.5 -39 t-42.5 -15zM423 586q-23 0 -34.5 15t-4.5 39q6 24 25.5 39t42.5 15t34.5 -15t5.5 -39q-7 -24 -26.5 -39t-42.5 -15zM198 -12h1h-1z" />
<glyph unicode="&#x391;" horiz-adv-x="568" d="M-5 0l385 653h162l33 -652h-145v162h-207l-88 -163h-140zM280 270h150v67q-2 55 0 172q1 13 1 39h-4q-87 -169 -111 -212z" />
<glyph unicode="&#x392;" horiz-adv-x="602" d="M79 0l175 654h218q111 0 164.5 -37t30.5 -124q-12 -47 -46.5 -87t-78.5 -55l-1 -4q51 -14 73.5 -53t5.5 -102q-25 -95 -108.5 -143.5t-196.5 -48.5h-236zM244 107h88q132 0 157 95q13 45 -14.5 66t-93.5 21h-88zM320 390h73q112 0 135 83q11 40 -11 57.5t-79 17.5h-75z " />
<glyph unicode="&#x393;" horiz-adv-x="517" d="M79 0l173 652h406l-30 -114h-269l-144 -538h-136z" />
<glyph unicode="&#x394;" horiz-adv-x="631" d="M34 0l22 82l353 570h163l48 -570l-22 -82h-564zM211 114h267l-12 234l-5 197h-4l-111 -197z" />
<glyph unicode="&#x395;" horiz-adv-x="544" d="M79 0l174 653h403l-30 -114h-267l-39 -144h227l-30 -115h-227l-44 -165h277l-31 -115h-413z" />
<glyph unicode="&#x396;" horiz-adv-x="541" d="M37 0l24 83l420 456h-270l30 114h438l-22 -82l-420 -456h300l-31 -115h-469z" />
<glyph unicode="&#x397;" horiz-adv-x="670" d="M79 0l175 652h136l-69 -255h238l69 255h137l-175 -652h-137l75 278h-238l-75 -278h-136z" />
<glyph unicode="&#x398;" horiz-adv-x="681" d="M338 -12q-132 0 -188 91.5t-14 249.5q42 157 146 246t237 89t189.5 -89.5t14.5 -245.5q-42 -158 -147.5 -249.5t-237.5 -91.5zM369 106q70 0 128 60.5t86 162.5q27 102 1 159.5t-97 57.5t-127.5 -58t-83.5 -159q-28 -102 -2.5 -162.5t95.5 -60.5zM315 278l32 119h200 l-32 -119h-200z" />
<glyph unicode="&#x399;" horiz-adv-x="295" d="M79 0l175 652h136l-175 -652h-136z" />
<glyph unicode="&#x39a;" horiz-adv-x="608" d="M79 0l174 652h136l-74 -277h4l282 277h150l-268 -258l129 -394h-150l-88 286l-111 -106l-48 -180h-136z" />
<glyph unicode="&#x39b;" horiz-adv-x="549" d="M-6 0l374 652h163l24 -652h-144v312q0 15 0.5 43t0.5 41q2 83 1 126h-4q-18 -33 -53.5 -102t-56.5 -108l-165 -312h-140z" />
<glyph unicode="&#x39c;" horiz-adv-x="756" d="M79 0l175 652h150l29 -300q1 -18 2 -38.5t2 -46t2 -39.5h4q13 22 36.5 63.5t34.5 60.5l186 300h151l-175 -652h-125l69 260q16 60 77 217h-4l-94 -153l-169 -265h-77l-26 265l-11 153h-4q-32 -179 -42 -217l-69 -260h-122z" />
<glyph unicode="&#x39d;" horiz-adv-x="662" d="M79 0l175 653h140l90 -339l28 -142h4q3 16 9 53t10.5 61t11.5 57.5t14 60.5l66 248h130l-175 -652h-140l-90 340l-28 141h-4q-30 -178 -44 -231l-67 -250h-130z" />
<glyph unicode="&#x39e;" horiz-adv-x="565" d="M52 0l31 115h461l-31 -115h-461zM206 539l30 114h441l-30 -114h-441zM197 280l30 115h322l-30 -115h-322z" />
<glyph unicode="&#x39f;" horiz-adv-x="681" d="M337 -12q-132 0 -188 91.5t-14 249.5q42 157 146 246t237 89t189.5 -89.5t14.5 -245.5q-42 -158 -147.5 -249.5t-237.5 -91.5zM368 106q70 0 128 60.5t86 162.5q27 102 1 159.5t-97 57.5t-127.5 -58t-83.5 -159q-28 -102 -2.5 -162.5t95.5 -60.5z" />
<glyph unicode="&#x3a0;" horiz-adv-x="660" d="M79 0l174 652h502l-175 -652h-136l144 538h-229l-144 -538h-136z" />
<glyph unicode="&#x3a1;" horiz-adv-x="591" d="M79 0l174 653h218q118 0 174.5 -48.5t26.5 -158.5q-29 -108 -114.5 -163t-196.5 -55h-85l-61 -228h-136zM305 337h77q127 0 156 109q15 53 -11.5 76t-93.5 23h-72z" />
<glyph unicode="&#x3a3;" horiz-adv-x="548" d="M39 0l21 82l272 248l-138 240l22 82h443l-30 -114h-272l114 -205l-230 -218h302l-31 -115h-473z" />
<glyph unicode="&#x3a4;" horiz-adv-x="553" d="M208 0l143 538h-182l30 114h502l-30 -114h-182l-144 -538h-137z" />
<glyph unicode="&#x3a5;" horiz-adv-x="517" d="M190 0l64 236l-85 416h146l21 -156q2 -23 7.5 -70.5t8.5 -73.5h4q94 143 95 144l104 156h143l-308 -416l-63 -236h-137z" />
<glyph unicode="&#x3a6;" horiz-adv-x="753" d="M311 -22l23 87q-120 10 -174.5 79t-22.5 185q31 116 121.5 183.5t216.5 76.5l23 85h121l-23 -86q120 -9 174 -76.5t23 -182.5q-32 -116 -122.5 -185t-214.5 -78l-24 -88h-121zM568 485l-85 -316q67 9 116 51.5t67 108.5q17 65 -9.5 106.5t-88.5 49.5zM362 169l85 316 q-66 -8 -114.5 -49.5t-65.5 -106.5q-18 -66 8 -109t87 -51z" />
<glyph unicode="&#x3a7;" horiz-adv-x="558" d="M12 0l272 337l-86 316h152l27 -131q4 -17 11 -53.5t9 -48.5h4q30 46 71 102l92 131h146l-258 -323l94 -330h-152l-32 140q-13 61 -21 107h-4q-36 -54 -75 -107l-104 -140h-146z" />
<glyph unicode="&#x3a8;" horiz-adv-x="743" d="M309 0l60 224q-248 18 -182 268l43 160h134l-41 -153q-21 -87 -2.5 -124.5t77.5 -43.5l86 321h128l-86 -321q62 6 101 45t62 123l41 153h134l-43 -160q-66 -250 -324 -268l-60 -224h-128z" />
<glyph unicode="&#x3a9;" horiz-adv-x="706" d="M44 0l28 110h114l1 4q-71 99 -33 242q37 137 140.5 222.5t235.5 85.5t190 -85.5t21 -222.5q-38 -142 -164 -242l-1 -4h114l-29 -110h-261l26 99q132 96 172 245q24 90 -2.5 146.5t-97.5 56.5t-127 -56.5t-80 -146.5q-40 -149 40 -245l-26 -99h-261z" />
<glyph unicode="&#x3aa;" horiz-adv-x="295" d="M79 0l175 652h136l-175 -652h-136zM446 702q-29 0 -43 19t-6 48t31.5 47.5t52.5 18.5t43 -18.5t6 -47.5t-31.5 -48t-52.5 -19zM226 702h1q-29 0 -43 19t-6 48t31.5 47.5t52.5 18.5t42.5 -18.5t5.5 -47.5t-31.5 -48t-51.5 -19h-1z" />
<glyph unicode="&#x3ab;" horiz-adv-x="517" d="M190 0l64 236l-85 416h146l21 -156q2 -23 7.5 -70.5t8.5 -73.5h4q94 143 95 144l104 156h143l-308 -416l-63 -236h-137zM558 702q-29 0 -43 19t-6 48t31.5 47.5t52.5 18.5t43 -18.5t6 -47.5t-31.5 -48t-52.5 -19zM338 702h1q-29 0 -43 19t-6 48t31.5 47.5t52.5 18.5 t42.5 -18.5t5.5 -47.5t-31.5 -48t-51.5 -19h-1z" />
<glyph unicode="&#x3ac;" horiz-adv-x="589" d="M232 -12l3 1q-90 0 -125.5 68t-3.5 188q32 119 115 191t173 72q94 0 111 -104h3l41 92h134q-8 -16 -35 -71l-40.5 -82.5t-33 -70.5t-31 -73.5t-17.5 -52.5q-14 -47 35 -47q13 0 34 7l-10 -101q-40 -16 -87 -16q-52 0 -76.5 20t-23.5 65h-4q-73 -86 -162 -86zM296 101v-1 q36 0 74 34t54 81l30 87q-4 94 -69 94q-41 0 -80.5 -38.5t-58.5 -111.5q-19 -74 -5.5 -109.5t55.5 -35.5zM397 572l94 218l127 -23l-134 -211z" />
<glyph unicode="&#x3ad;" horiz-adv-x="467" d="M262 -12l-2 -2q-99 0 -152.5 40t-33.5 112q25 93 129 119l1 4q-33 12 -45 42t-3 63q18 69 87.5 104.5t158.5 35.5q91 0 155 -51l-74 -88q-41 35 -102 35q-37 0 -63 -14.5t-33 -39.5q-7 -24 9 -36.5t55 -12.5q21 0 69 4l-26 -98q-42 3 -82 3q-84 0 -98 -54q-8 -29 16 -45 t76 -16q62 0 126 40l30 -87q-96 -58 -198 -58zM359 570l94 218l127 -23l-134 -211z" />
<glyph unicode="&#x3ae;" horiz-adv-x="558" d="M311 -177l-1 -1q84 278 135 467q15 56 7 78t-43 22q-28 0 -56 -18t-67 -60l-84 -312h-136l93 345q22 79 30 149h121l-13 -88h4q101 101 187 101q144 0 91 -198l-130 -485h-138zM406 571l94 218l127 -23l-134 -211z" />
<glyph unicode="&#x3af;" horiz-adv-x="294" d="M199 -12q-73 0 -93 43t3 115l93 348h138q-12 -39 -35.5 -117.5t-41 -137.5t-28.5 -99q-12 -42 28 -42q14 0 32 6l-10 -100q-41 -16 -86 -16zM241 572l94 218l127 -23l-134 -211zM198 -12h1h-1z" />
<glyph unicode="&#x3b0;" horiz-adv-x="528" d="M255 -12l-4 1q-103 0 -139.5 55.5t-10.5 152.5q7 25 22.5 75t22.5 75q23 80 29 149h132q-1 -37 -23 -121q-6 -23 -27 -91t-29 -98q-11 -43 5 -65.5t51 -22.5q89 0 129 153q28 104 27 227l139 29q3 -134 -27 -249q-34 -128 -111.5 -199t-185.5 -71zM361 581l96 217l91 -20 l-129 -211zM282 587q-23 0 -34.5 15t-4.5 39q6 24 25.5 39t42.5 15t34.5 -15t5.5 -39q-7 -24 -26.5 -39t-42.5 -15zM540 587q-23 0 -34.5 15t-4.5 39q6 24 25.5 39t42.5 15t34.5 -15t5.5 -39q-7 -24 -26.5 -39t-42.5 -15z" />
<glyph unicode="&#x3b1;" horiz-adv-x="589" d="M232 -12l3 1q-90 0 -125.5 68t-3.5 188q32 119 115 191t173 72q94 0 111 -104h3l41 92h134q-8 -16 -35 -71l-40.5 -82.5t-33 -70.5t-31 -73.5t-17.5 -52.5q-14 -47 35 -47q13 0 34 7l-10 -101q-40 -16 -87 -16q-52 0 -76.5 20t-23.5 65h-4q-73 -86 -162 -86zM296 101v-1 q36 0 74 34t54 81l30 87q-4 94 -69 94q-41 0 -80.5 -38.5t-58.5 -111.5q-19 -74 -5.5 -109.5t55.5 -35.5z" />
<glyph unicode="&#x3b2;" horiz-adv-x="594" d="M19 -177l174 647q29 110 104.5 177.5t187.5 67.5q88 0 137 -46.5t26 -134.5q-26 -98 -126 -152l-1 -4q57 -11 83 -60.5t8 -119.5q-27 -101 -100.5 -155.5t-152.5 -54.5q-102 0 -148 68q-12 -53 -54 -233h-138zM347 100q44 1 80.5 29t50.5 79q13 44 -5.5 72.5t-66.5 28.5 q-22 0 -42 -6l9 100q113 18 140 119q11 41 -6 63.5t-51 22.5q-45 0 -79.5 -38.5t-54.5 -107.5q-35 -118 -84 -298q33 -64 109 -64z" />
<glyph unicode="&#x3b3;" horiz-adv-x="525" d="M280 -177h-140q20 49 43 134q27 99 11.5 255t-64.5 265l146 30q22 -54 34 -150.5t9 -201.5h4q123 161 183 340h135q-60 -135 -127 -238t-196 -245q-7 -74 -38 -189z" />
<glyph unicode="&#x3b4;" horiz-adv-x="545" d="M269 -12l1 3q-97 0 -147 61.5t-22 164.5q20 75 77.5 128t135.5 82q-86 78 -62 168q14 51 68.5 85t140.5 34q98 0 207 -39l-58 -102q-104 40 -177 40q-51 0 -60 -31q-5 -20 11.5 -40.5t58.5 -55.5q5 -4 17.5 -15t19.5 -17q60 -55 82 -105.5t2 -126.5q-28 -106 -107.5 -170 t-187.5 -64zM387 364q-126 -31 -155 -146q-15 -55 6.5 -87t64.5 -32q46 0 80 31.5t51 92.5q19 75 -47 141z" />
<glyph unicode="&#x3b5;" horiz-adv-x="467" d="M262 -12l-2 -2q-99 0 -152.5 40t-33.5 112q25 93 129 119l1 4q-33 12 -45 42t-3 63q18 69 87.5 104.5t158.5 35.5q91 0 155 -51l-74 -88q-41 35 -102 35q-37 0 -63 -14.5t-33 -39.5q-7 -24 9 -36.5t55 -12.5q21 0 69 4l-26 -98q-42 3 -82 3q-84 0 -98 -54q-8 -29 16 -45 t76 -16q62 0 126 40l30 -87q-96 -58 -198 -58z" />
<glyph unicode="&#x3b6;" horiz-adv-x="459" d="M334 -186l-97 36l35.5 35.5t21 25t13.5 26.5q5 21 -11.5 32t-72.5 24q-29 7 -51 16.5t-41.5 28t-29.5 43t-10.5 62.5t12.5 85q24 89 120 192t223 184q-158 -4 -213 -8l28 107h361l-28 -107h-6q-113 -60 -218.5 -170t-126.5 -190q-17 -64 2.5 -93.5t84.5 -42.5 q71 -15 95.5 -43t10.5 -83q-19 -71 -102 -160z" />
<glyph unicode="&#x3b7;" horiz-adv-x="558" d="M311 -177l-1 -1q84 278 135 467q15 56 7 78t-43 22q-28 0 -56 -18t-67 -60l-84 -312h-136l93 345q22 79 30 149h121l-13 -88h4q101 101 187 101q144 0 91 -198l-130 -485h-138z" />
<glyph unicode="&#x3b8;" horiz-adv-x="545" d="M269 -12h1q-104 0 -137.5 90.5t13.5 275.5q48 178 132 269.5t187 91.5t137 -89.5t-12 -271.5q-49 -181 -133 -273.5t-187 -92.5h-1zM265 309q-50 -211 34 -211q82 0 146 211h-180zM289 400h180q48 204 -35 204q-39 0 -74.5 -45t-70.5 -159z" />
<glyph unicode="&#x3b9;" horiz-adv-x="294" d="M199 -12q-73 0 -93 43t3 115l93 348h138q-12 -39 -35.5 -117.5t-41 -137.5t-28.5 -99q-12 -42 28 -42q14 0 32 6l-10 -100q-41 -16 -86 -16zM198 -12h1h-1z" />
<glyph unicode="&#x3ba;" horiz-adv-x="537" d="M68 0l94 347q24 85 29 149h134q-1 -37 -23 -121l-28 -103h4q191 213 344 236l-23 -127q-77 -17 -175 -88q18 -73 51.5 -155t67.5 -137l-155 -10h-1q-42 77 -74 214q-3 -3 -9 -8.5t-9 -7.5q-61 -52 -91 -160l-8 -29h-128z" />
<glyph unicode="&#x3bb;" horiz-adv-x="542" d="M157 -10l-145 9l346 498l1 16q1 42 -18 64.5t-53 22.5q-30 0 -73 -16v110q57 20 120 20q83 0 120 -49.5t40 -158.5l42 -506h-146l-10 346h-4z" />
<glyph unicode="&#x3bc;" horiz-adv-x="588" d="M20 -177l180 670h136l-78 -290q-14 -55 -4.5 -77.5t44.5 -22.5q55 0 112 71l86 320h138q-12 -39 -35.5 -117.5t-41 -137.5t-28.5 -99q-12 -42 31 -42q16 0 32 6l-10 -100q-41 -16 -87 -16q-99 0 -99 84h-3q-63 -80 -133 -80q-45 0 -60 27q-28 -112 -42 -196h-138z" />
<glyph unicode="&#x3bd;" horiz-adv-x="515" d="M185 0q27 260 -56 476l146 30q23 -66 31.5 -172.5t2.5 -194.5h4q114 160 182 355h135q-59 -135 -130.5 -248t-185.5 -246h-129zM184 0h1v-1z" />
<glyph unicode="&#x3be;" horiz-adv-x="463" d="M338 -186l-96 33l35.5 35.5t21 25t13.5 26.5q5 21 -12 32.5t-72 23.5q-83 19 -121 62.5t-14 130.5q17 64 70 113.5t117 69.5l2 4q-39 17 -54 53t-2 82q17 64 76 97q-44 -1 -123 -8l28 107h420l-28 -107h-117q-43 0 -76.5 -25t-45.5 -68q-11 -38 8 -66.5t59 -28.5 q37 0 74 9l-29 -107q-32 8 -78 8q-54 0 -98.5 -30.5t-57.5 -79.5q-14 -51 10.5 -72t94.5 -35q73 -15 93 -41.5t5 -83.5q-7 -28 -34.5 -72t-68.5 -88z" />
<glyph unicode="&#x3bf;" horiz-adv-x="550" d="M272 -12q-98 0 -149 70t-19 188q32 119 119.5 189t186.5 70t150 -70t19 -189q-32 -118 -120 -188t-187 -70zM301 98h1q48 0 84 39.5t54 108.5q19 68 4 109t-63 41t-84 -40t-54 -110q-19 -68 -4.5 -108t62.5 -40z" />
<glyph unicode="&#x3c0;" horiz-adv-x="627" d="M515 -12q-75 1 -97.5 44.5t0.5 117.5q3 12 28.5 100t39.5 137h-125q-37 -141 -132 -395l-134 8q90 201 139 387h-109l27 102l75 6h512l-29 -108h-94q-42 -128 -72 -243q-14 -46 32 -46q11 0 38 5l-11 -101q-42 -14 -88 -14zM513 -12h2h-2z" />
<glyph unicode="&#x3c1;" horiz-adv-x="565" d="M16 -177l113 416q36 133 118 200.5t186 67.5q107 0 149.5 -66.5t10.5 -185.5q-32 -121 -112 -194t-163 -73q-80 0 -114 58q-14 -63 -50 -223h-138zM317 100q42 0 80 39t58 115q38 141 -56 141q-44 0 -82 -39t-56 -106l-29 -106q28 -44 85 -44z" />
<glyph unicode="&#x3c2;" horiz-adv-x="444" d="M294 -185l-99 37q67 65 74 92q7 24 -2 39.5t-39 25.5q-24 9 -41.5 18.5t-37 23.5t-31 32.5t-19.5 43t-6.5 57.5t12.5 73q31 115 119 182.5t190 67.5q88 0 132 -54l-88 -88q-29 32 -64 32q-51 0 -91.5 -38t-57.5 -102q-16 -61 2.5 -90.5t68.5 -48.5q63 -25 81 -53t3 -87 q-8 -30 -36 -74.5t-70 -88.5z" />
<glyph unicode="&#x3c3;" horiz-adv-x="569" d="M267 -12l-1 -2q-100 0 -148.5 67.5t-16.5 186.5q33 121 120 187t187 66h280l-30 -112q-97 9 -140 11l-1 -4q67 -45 36 -168q-29 -106 -108 -169t-178 -63zM297 96q43 0 78 36t52 100q18 61 4 105.5t-57 44.5q-94 0 -133 -143q-18 -67 -2.5 -105t58.5 -38z" />
<glyph unicode="&#x3c4;" horiz-adv-x="486" d="M304 -12v-1q-71 0 -91.5 44t2.5 118l64 238h-149l27 102l75 6h361l-29 -107h-152q-47 -156 -70 -244q-14 -46 26 -46q20 0 55 8l-9 -102q-62 -16 -110 -16z" />
<glyph unicode="&#x3c5;" horiz-adv-x="528" d="M255 -12l-4 1q-103 0 -139.5 55.5t-10.5 152.5q7 25 22.5 75t22.5 75q23 80 29 149h132q-1 -37 -23 -121q-6 -23 -27 -91t-29 -98q-11 -43 5 -65.5t51 -22.5q89 0 129 153q28 104 27 227l139 29q3 -134 -27 -249q-34 -128 -111.5 -199t-185.5 -71z" />
<glyph unicode="&#x3c6;" horiz-adv-x="728" d="M255 -177l46 170q-109 6 -168.5 74t-28.5 182t126.5 181.5t207.5 73.5l33 123h124l-33 -123q109 -6 167.5 -73.5t27.5 -181.5t-126 -182t-206 -74l-46 -170h-124zM410 402q-58 -4 -102.5 -43.5t-63.5 -109.5q-18 -71 5 -111.5t79 -43.5zM452 94q58 4 102.5 44t62.5 111 q19 70 -3.5 109.5t-79.5 43.5z" />
<glyph unicode="&#x3c7;" horiz-adv-x="519" d="M98 -189l-139 11l281 342l-105 312l142 30l61 -222h4l150 210h142l-258 -326l111 -327l-141 -30l-64 246h-4z" />
<glyph unicode="&#x3c8;" horiz-adv-x="741" d="M259 -176l44 164q-130 2 -171.5 70t-12.5 177l30 110q22 79 30 149h132q-2 -37 -24 -121q-7 -25 -24 -84.5t-18 -64.5q-15 -56 4.5 -92t82.5 -37l143 533h124l-143 -532q64 2 106 43.5t66 133.5q26 96 22 205l139 29q8 -116 -22 -228q-37 -139 -124 -214t-216 -77 l-44 -164h-124z" />
<glyph unicode="&#x3c9;" horiz-adv-x="739" d="M229 -12q-88 0 -121 67.5t0 193.5q17 63 57.5 133t90.5 125l114 -49q-111 -125 -141 -235q-16 -56 -7 -90t41 -34q69 0 95 98q9 35 23 132h144q-38 -99 -47 -132q-27 -98 38 -98q31 0 59.5 37.5t47.5 107.5q16 62 14.5 109.5t-22.5 107.5l137 46q46 -124 11 -254 q-34 -127 -100 -196t-155 -69q-105 0 -116 93h-4q-62 -93 -159 -93z" />
<glyph unicode="&#x3ca;" horiz-adv-x="294" d="M199 -12q-73 0 -93 43t3 115l93 348h138q-12 -39 -35.5 -117.5t-41 -137.5t-28.5 -99q-12 -42 28 -42q14 0 32 6l-10 -100q-41 -16 -86 -16zM399 572q-29 0 -43 19.5t-6 48.5t32 48.5t53 19.5q30 0 44 -19.5t6 -48.5t-32 -48.5t-54 -19.5zM185 572q-30 0 -44 19.5 t-6 48.5t32 48.5t54 19.5q29 0 43 -19.5t6 -48.5t-32 -48.5t-53 -19.5zM198 -12h1h-1z" />
<glyph unicode="&#x3cb;" horiz-adv-x="528" d="M255 -12l-4 1q-103 0 -139.5 55.5t-10.5 152.5q7 25 22.5 75t22.5 75q23 80 29 149h132q-1 -37 -23 -121q-6 -23 -27 -91t-29 -98q-11 -43 5 -65.5t51 -22.5q89 0 129 153q28 104 27 227l139 29q3 -134 -27 -249q-34 -128 -111.5 -199t-185.5 -71zM516 573 q-29 0 -43 19.5t-6 48.5t32 48.5t53 19.5q30 0 44 -19.5t6 -48.5t-32 -48.5t-54 -19.5zM302 573q-30 0 -44 19.5t-6 48.5t32 48.5t54 19.5q29 0 43 -19.5t6 -48.5t-32 -48.5t-53 -19.5z" />
<glyph unicode="&#x3cc;" horiz-adv-x="550" d="M272 -12q-98 0 -149 70t-19 188q32 119 119.5 189t186.5 70t150 -70t19 -189q-32 -118 -120 -188t-187 -70zM301 98h1q48 0 84 39.5t54 108.5q19 68 4 109t-63 41t-84 -40t-54 -110q-19 -68 -4.5 -108t62.5 -40zM382 572l94 218l127 -23l-134 -211z" />
<glyph unicode="&#x3cd;" horiz-adv-x="528" d="M255 -12l-4 1q-103 0 -139.5 55.5t-10.5 152.5q7 25 22.5 75t22.5 75q23 80 29 149h132q-1 -37 -23 -121q-6 -23 -27 -91t-29 -98q-11 -43 5 -65.5t51 -22.5q89 0 129 153q28 104 27 227l139 29q3 -134 -27 -249q-34 -128 -111.5 -199t-185.5 -71zM358 573l94 218 l127 -23l-134 -211z" />
<glyph unicode="&#x3ce;" horiz-adv-x="739" d="M229 -12q-88 0 -121 67.5t0 193.5q17 63 57.5 133t90.5 125l114 -49q-111 -125 -141 -235q-16 -56 -7 -90t41 -34q69 0 95 98q9 35 23 132h144q-38 -99 -47 -132q-27 -98 38 -98q31 0 59.5 37.5t47.5 107.5q16 62 14.5 109.5t-22.5 107.5l137 46q46 -124 11 -254 q-34 -127 -100 -196t-155 -69q-105 0 -116 93h-4q-62 -93 -159 -93zM472 572l94 218l127 -23l-134 -211z" />
<glyph unicode="&#x3d0;" horiz-adv-x="586" d="M313 -12l1 -2q-104 0 -160.5 62.5t-22.5 190.5l61 230q29 109 102.5 176t181.5 67q87 0 136.5 -46t26.5 -133q-28 -107 -144 -152l-1 -4q68 -9 98 -59.5t11 -121.5q-27 -101 -108 -154.5t-182 -53.5zM341 104l-2 3q45 0 82 26.5t49 73.5q12 45 -7 75t-74 30 q-25 0 -119 -27l-9 -33q-21 -77 6 -112.5t74 -35.5zM298 382q103 23 148.5 56t58.5 81q11 42 -4 63.5t-47 21.5q-87 0 -132 -144q-8 -28 -24 -78z" />
<glyph unicode="&#x3d1;" horiz-adv-x="545" d="M269 -12v2q-99 0 -133.5 49t-11.5 136q22 76 21 110h128q4 -18 -15 -91q-12 -54 -1 -74.5t47 -20.5q41 0 75 46.5t72 177.5q-64 -6 -110.5 -2t-76.5 21t-47.5 37t-24 46.5t-5.5 50t7 47.5q21 80 92 135.5t153 55.5q120 0 159.5 -93t-7.5 -265q-51 -188 -130.5 -278 t-191.5 -90zM472 406q21 115 6 158t-62 41q-34 -1 -61.5 -26t-36.5 -61q-9 -24 -5 -46.5t17 -39.5t49.5 -24.5t92.5 -1.5z" />
<glyph unicode="&#x3d5;" horiz-adv-x="728" d="M256 -177l46 169q-113 4 -171 73.5t-26 190.5q18 65 65 134t109 124l91 -79q-103 -97 -128 -193q-17 -65 4.5 -104.5t82.5 -44.5l46 171q33 123 98 182.5t149 59.5q95 0 132.5 -64.5t6.5 -179.5q-32 -120 -128 -192.5t-207 -78.5q-26 -105 -40 -168h-130zM451 93 q129 12 168 161q37 141 -32 141q-57 0 -87 -112q-17 -62 -49 -190z" />
<glyph unicode="&#x3d7;" horiz-adv-x="537" d="M361 -188l-157 11q109 91 182 169q-42 77 -74 213q-3 -3 -9 -8.5t-9 -7.5q-61 -52 -91 -160l-8 -29h-128l94 347q24 85 29 149h134q-1 -37 -23 -121l-28 -103h4q191 213 344 236l-23 -127q-77 -17 -175 -88q18 -73 51.5 -155t67.5 -137l-9 -1h9q-109 -121 -181 -188z" />
<glyph unicode="&#x3d9;" horiz-adv-x="550" d="M166 -178l46 174q-72 20 -103.5 86t-4.5 164q32 119 119.5 189t186.5 70t150 -70t19 -189q-26 -96 -90.5 -161.5t-145.5 -86.5q-8 -33 -20.5 -92t-18.5 -84h-138zM300 92h1q48 0 84 41t56 114q19 68 4 109t-63 41t-84 -40t-54 -110q-21 -71 -6.5 -113t62.5 -42z" />
<glyph unicode="&#x3db;" horiz-adv-x="486" d="M327 -186l-100 36q64 59 70 85q5 20 -6 32.5t-52 23.5q-84 23 -126 84t-14 167q33 123 123 188t205 65h164l-30 -112q-46 2 -152 2q-130 0 -169 -143q-15 -56 7.5 -89t85.5 -50q71 -20 90.5 -47.5t5.5 -81.5q-7 -28 -35 -73t-67 -87z" />
<glyph unicode="&#x3dd;" horiz-adv-x="429" d="M20 -177l180 672h336l-29 -107h-209l-43 -168h187l-24 -91h-186q-30 -111 -74 -306h-138z" />
<glyph unicode="&#x3e1;" horiz-adv-x="529" d="M446 -181l-127 15q44 98 67 185q7 26 17 76q-120 -49 -250 -111l-25 114l285 113q1 46 -7 99q-118 -47 -289 -127l-26 114l286 114q-44 110 -142 187l114 100q140 -116 183.5 -293.5t-14.5 -386.5q-25 -98 -72 -199z" />
<glyph unicode="&#x400;" horiz-adv-x="544" d="M79 0l174 653h403l-30 -114h-267l-39 -144h227l-30 -115h-227l-44 -165h277l-31 -115h-413zM482 684l-147 118l96 88l130 -138z" />
<glyph unicode="&#x401;" horiz-adv-x="544" d="M79 0l174 653h403l-30 -114h-267l-39 -144h227l-30 -115h-227l-44 -165h277l-31 -115h-413zM585 703q-29 0 -43 19t-6 48t31.5 47.5t52.5 18.5t43 -18.5t6 -47.5t-31.5 -48t-52.5 -19zM365 703h1q-29 0 -43 19t-6 48t31.5 47.5t52.5 18.5t42.5 -18.5t5.5 -47.5t-31.5 -48 t-51.5 -19h-1z" />
<glyph unicode="&#x402;" horiz-adv-x="698" d="M467 -12l-1 -1q-42 0 -65 10l50 105q14 -6 28 -6q28 0 56 23.5t40 70.5q28 107 -92 107q-42 0 -82 -8l-78 -290h-137l144 538h-162l30 114h510l-30 -114h-210l-38 -139q51 8 103 8q65 0 110 -21.5t66.5 -69t-0.5 -123.5q-28 -104 -92.5 -154t-149.5 -50z" />
<glyph unicode="&#x403;" horiz-adv-x="517" d="M79 0l173 652h406l-30 -114h-269l-144 -538h-136zM465 683l-42 68l202 138l50 -88z" />
<glyph unicode="&#x404;" horiz-adv-x="580" d="M345 -12l-1 -1q-134 0 -194.5 85.5t-15.5 250.5q44 165 153 253t243 88q59 0 102.5 -23.5t68.5 -60.5l-95 -88q-42 54 -104 54q-140 0 -209 -152h232l-30 -115h-236q-27 -173 122 -173q73 0 148 63l50 -86q-109 -95 -234 -95z" />
<glyph unicode="&#x405;" horiz-adv-x="552" d="M273 -12l-1 4q-65 0 -121.5 24.5t-92.5 69.5l103 94q59 -71 144 -71q99 0 119 70q8 29 -8 44.5t-59 35.5l-6 3l-76 37q-117 53 -85 176q22 81 101 136t178 55q123 0 185 -85l-93 -86q-53 53 -124 53q-41 0 -69.5 -17t-36.5 -48q-6 -20 4 -35.5t24.5 -23.5t44.5 -21l6 -3 l75 -35q116 -52 83 -177q-23 -84 -104 -142t-191 -58z" />
<glyph unicode="&#x406;" horiz-adv-x="295" d="M79 0l175 652h136l-175 -652h-136z" />
<glyph unicode="&#x407;" horiz-adv-x="295" d="M79 0l175 652h136l-175 -652h-136zM446 702q-29 0 -43 19t-6 48t31.5 47.5t52.5 18.5t43 -18.5t6 -47.5t-31.5 -48t-52.5 -19zM226 702h1q-29 0 -43 19t-6 48t31.5 47.5t52.5 18.5t42.5 -18.5t5.5 -47.5t-31.5 -48t-51.5 -19h-1z" />
<glyph unicode="&#x408;" horiz-adv-x="504" d="M221 -12l-3 2q-141 0 -175 115l112 69q19 -67 77 -67q44 0 72.5 27t45.5 91l115 428h137l-117 -440q-26 -99 -94.5 -162t-169.5 -63z" />
<glyph unicode="&#x409;" horiz-adv-x="917" d="M73 -12v1q-47 0 -70 10l58 123q12 -5 27 -5q28 0 54.5 30t74.5 129q57 118 172 376h352l-65 -243h60q116 0 171 -48t28 -149q-29 -110 -111.5 -160.5t-199.5 -50.5h-59v-1h-136v1l27 99l117 438h-110q-10 -22 -54.5 -123.5t-68.5 -154.5q-72 -157 -130.5 -214.5 t-136.5 -57.5zM595 108h48q131 0 159 101q13 46 -14 68.5t-93 22.5h-48z" />
<glyph unicode="&#x40a;" horiz-adv-x="932" d="M79 0l175 652h136l-69 -255h228l69 255h137v-1h1l-65 -243h60q116 0 171 -48t28 -149q-29 -110 -111.5 -160.5t-199.5 -50.5h-196l75 278h-228l-75 -278h-136zM610 107h48q131 0 159 101q13 46 -14 68.5t-93 22.5h-48z" />
<glyph unicode="&#x40b;" horiz-adv-x="714" d="M188 0l144 540h-162l30 114h510l-30 -114h-211l-37 -140q51 8 94 8q236 0 178 -220l-50 -187h-134l50 187q15 57 -6 83.5t-82 26.5q-39 0 -79 -8l-78 -290h-137z" />
<glyph unicode="&#x40c;" horiz-adv-x="615" d="M79 0l174 653h136l-69 -260h78l127 154q55 66 100 92t100 26q33 0 49 -8l-56 -124q-9 4 -26 4q-22 0 -41.5 -13t-50.5 -50l-106 -126l121 -348h-144l-102 283h-78l-76 -283h-136zM510 692l-42 68l202 138l50 -88z" />
<glyph unicode="&#x40d;" horiz-adv-x="673" d="M79 0l175 651h135l-66 -248q-16 -58 -80 -232h4l103 141l274 340h144l-175 -652h-135l67 250q14 54 79 231h-4l-103 -141l-274 -340h-144zM535 689l-147 118l96 88l130 -138z" />
<glyph unicode="&#x40e;" horiz-adv-x="548" d="M151 -12l-1 -1q-49 0 -77 13l57 119q20 -8 46 -8q48 0 76 34l16 22l-91 485h145l28 -207l13 -151h4l92 151l132 207h137l-340 -509q-105 -155 -237 -155zM468 697h1q-88 0 -119.5 37t-18.5 100h115q-13 -68 40 -68q56 0 76 68h115q-43 -137 -208 -137h-1z" />
<glyph unicode="&#x40f;" horiz-adv-x="660" d="M79 0l176 652h136l-144 -538h229l144 538h136l-175 -652h-177l-60 -188h-122l50 188h-193z" />
<glyph unicode="&#x410;" horiz-adv-x="568" d="M-5 0l385 653h162l33 -652h-145v162h-207l-88 -163h-140zM280 270h150v67q-2 55 0 172q1 13 1 39h-4q-87 -169 -111 -212z" />
<glyph unicode="&#x411;" horiz-adv-x="597" d="M79 0l175 652h438l-30 -114h-302l-39 -144h96q112 0 168 -45t29 -144q-28 -105 -108 -155t-191 -50h-236zM244 105h85q126 0 152 98q12 48 -13.5 69t-89.5 21h-84z" />
<glyph unicode="&#x412;" horiz-adv-x="602" d="M79 0l175 654h218q111 0 164.5 -37t30.5 -124q-12 -47 -46.5 -87t-78.5 -55l-1 -4q51 -14 73.5 -53t5.5 -102q-25 -95 -108.5 -143.5t-196.5 -48.5h-236zM244 107h88q132 0 157 95q13 45 -14.5 66t-93.5 21h-88zM320 390h73q112 0 135 83q11 40 -11 57.5t-79 17.5h-75z " />
<glyph unicode="&#x413;" horiz-adv-x="517" d="M79 0l173 652h406l-30 -114h-269l-144 -538h-136z" />
<glyph unicode="&#x414;" horiz-adv-x="664" d="M149 0l-49 -188h-122l46 218l23 85h30q57 18 153 227q52 112 139 310h378l-144 -537h78l-23 -85l-70 -218h-122l50 188h-367zM466 115l114 423h-136q-21 -46 -50.5 -112.5t-44.5 -101.5q-65 -139 -125 -209h242z" />
<glyph unicode="&#x415;" horiz-adv-x="544" d="M79 0l174 653h403l-30 -114h-267l-39 -144h227l-30 -115h-227l-44 -165h277l-31 -115h-413z" />
<glyph unicode="&#x416;" horiz-adv-x="857" d="M2 0l283 344h-2l-23 130q-7 37 -20.5 50t-37.5 13q-18 0 -30 -4l11 124q20 8 52 8q57 0 90 -26t47 -92l32 -154h65l69 260h130l-69 -260h59l114 154q51 66 97.5 92t103.5 26q33 0 49 -8l-56 -124q-9 4 -25 4q-24 0 -45 -13t-48 -50l-91 -129l98 -345h-147l-67 283h-72 l-76 -283h-130l76 283h-72l-218 -283h-147z" />
<glyph unicode="&#x417;" horiz-adv-x="562" d="M273 -12l2 1q-145 0 -216 92l98 94q54 -67 147 -67q54 0 94.5 25t52.5 70t-14.5 65.5t-91.5 20.5h-85l27 101h65q116 0 138 80q11 39 -10.5 58t-66.5 19q-71 0 -151 -52l-45 91q107 79 232 79q108 0 155 -46t25 -128q-13 -49 -45 -87t-78 -56l-1 -4q48 -13 69.5 -54 t5.5 -99q-26 -97 -111 -150t-196 -53z" />
<glyph unicode="&#x418;" horiz-adv-x="673" d="M79 0l175 651h135l-66 -248q-16 -58 -80 -232h4l103 141l274 340h144l-175 -652h-135l67 250q14 54 79 231h-4l-103 -141l-274 -340h-144z" />
<glyph unicode="&#x419;" horiz-adv-x="673" d="M79 0l175 651h135l-66 -248q-16 -58 -80 -232h4l103 141l274 340h144l-175 -652h-135l67 250q14 54 79 231h-4l-103 -141l-274 -340h-144zM528 705h1q-88 0 -119.5 37t-18.5 100h115q-13 -68 40 -68q56 0 76 68h115q-43 -137 -208 -137h-1z" />
<glyph unicode="&#x41a;" horiz-adv-x="615" d="M79 0l174 653h136l-69 -260h78l127 154q55 66 100 92t100 26q33 0 49 -8l-56 -124q-9 4 -26 4q-22 0 -41.5 -13t-50.5 -50l-106 -126l121 -348h-144l-102 283h-78l-76 -283h-136z" />
<glyph unicode="&#x41b;" horiz-adv-x="653" d="M61 -12l1 1q-47 0 -70 10l58 123q13 -5 27 -5q28 0 55 30t74 129q57 118 172 376h371l-175 -652h-136l144 538h-130q-69 -156 -125 -277q-72 -158 -130.5 -215.5t-135.5 -57.5z" />
<glyph unicode="&#x41c;" horiz-adv-x="756" d="M79 0l175 652h150l29 -300q1 -18 2 -38.5t2 -46t2 -39.5h4q13 22 36.5 63.5t34.5 60.5l186 300h151l-175 -652h-125l69 260q16 60 77 217h-4l-94 -153l-169 -265h-77l-26 265l-11 153h-4q-32 -179 -42 -217l-69 -260h-122z" />
<glyph unicode="&#x41d;" horiz-adv-x="670" d="M79 0l175 652h136l-69 -255h238l69 255h137l-175 -652h-137l75 278h-238l-75 -278h-136z" />
<glyph unicode="&#x41e;" horiz-adv-x="681" d="M337 -12q-132 0 -188 91.5t-14 249.5q42 157 146 246t237 89t189.5 -89.5t14.5 -245.5q-42 -158 -147.5 -249.5t-237.5 -91.5zM368 106q70 0 128 60.5t86 162.5q27 102 1 159.5t-97 57.5t-127.5 -58t-83.5 -159q-28 -102 -2.5 -162.5t95.5 -60.5z" />
<glyph unicode="&#x41f;" horiz-adv-x="660" d="M79 0l174 652h502l-175 -652h-136l144 538h-229l-144 -538h-136z" />
<glyph unicode="&#x420;" horiz-adv-x="591" d="M79 0l174 653h218q118 0 174.5 -48.5t26.5 -158.5q-29 -108 -114.5 -163t-196.5 -55h-85l-61 -228h-136zM305 337h77q127 0 156 109q15 53 -11.5 76t-93.5 23h-72z" />
<glyph unicode="&#x421;" horiz-adv-x="580" d="M345 -12q-130 0 -191.5 88.5t-18.5 246.5q41 156 153.5 248.5t241.5 92.5q115 0 171 -84l-95 -88q-42 54 -104 54q-73 0 -136.5 -59.5t-90.5 -159.5q-28 -103 1 -162t105 -59q73 0 148 63l50 -86q-109 -95 -234 -95z" />
<glyph unicode="&#x422;" horiz-adv-x="553" d="M208 0l143 538h-182l30 114h502l-30 -114h-182l-144 -538h-137z" />
<glyph unicode="&#x423;" horiz-adv-x="548" d="M151 -12l-1 -1q-49 0 -77 13l57 119q20 -8 46 -8q48 0 76 34l16 22l-91 485h145l28 -207l13 -151h4l92 151l132 207h137l-340 -509q-105 -155 -237 -155z" />
<glyph unicode="&#x424;" horiz-adv-x="758" d="M317 -12l24 89q-128 7 -183.5 71t-24.5 181t120 179.5t222 68.5l23 87h118l-23 -87q128 -7 183.5 -69.5t24.5 -178.5t-120.5 -180.5t-221.5 -71.5l-24 -89h-118zM566 476l-80 -298q71 5 120 43t67 108q36 137 -107 147zM368 178l80 298q-150 -10 -186 -147 q-18 -70 9.5 -108t96.5 -43z" />
<glyph unicode="&#x425;" horiz-adv-x="558" d="M12 0l272 337l-86 316h152l27 -131q4 -17 11 -53.5t9 -48.5h4q30 46 71 102l92 131h146l-258 -323l94 -330h-152l-32 140q-13 61 -21 107h-4q-36 -54 -75 -107l-104 -140h-146z" />
<glyph unicode="&#x426;" horiz-adv-x="665" d="M79 0l176 652h136l-144 -538h219l144 538h136l-144 -537h80l-23 -85l-70 -218h-122l51 188h-439z" />
<glyph unicode="&#x427;" horiz-adv-x="624" d="M409 0l72 269q-51 -8 -105 -8q-120 0 -168 55t-15 179l42 157h134l-42 -157q-18 -68 4.5 -96.5t88.5 -28.5q53 0 90 8l74 274h136l-175 -652h-136z" />
<glyph unicode="&#x428;" horiz-adv-x="903" d="M79 0l174 652h134l-144 -538h173l144 538h131l-144 -538h173l144 538h134l-175 -652h-744z" />
<glyph unicode="&#x429;" horiz-adv-x="917" d="M718 -188l51 188h-689l174 652h134l-144 -538h173l144 538h131l-144 -538h173l144 538h134l-144 -537h78l-23 -85l-70 -218h-122z" />
<glyph unicode="&#x42a;" horiz-adv-x="728" d="M220 0l143 538h-194l30 114h331l-65 -243h77q112 0 171 -49.5t33 -148.5q-29 -109 -111 -160t-197 -51h-218zM384 109l73 -1q127 0 155 101q12 45 -15 68.5t-93 23.5h-68z" />
<glyph unicode="&#x42b;" horiz-adv-x="844" d="M79 0l175 651h136l-65 -243h71q116 0 171 -48t28 -149q-29 -110 -111.5 -160.5t-199.5 -50.5h-205zM628 -2l175 652h136l-175 -652h-136zM244 107h60q130 0 158 101q13 46 -14 68.5t-93 22.5h-59z" />
<glyph unicode="&#x42c;" horiz-adv-x="597" d="M79 0l176 651h136l-65 -243h90q116 0 171 -48t28 -149q-29 -110 -111.5 -160.5t-199.5 -50.5h-225zM245 107h78q131 0 159 101q13 46 -14 68.5t-93 22.5h-78z" />
<glyph unicode="&#x42d;" horiz-adv-x="580" d="M237 -12h-1q-128 0 -191 95l95 86q47 -63 125 -63q141 0 204 174h-235l30 115h234q18 151 -117 151q-69 0 -143 -53l-49 88q110 84 230 84q130 0 187 -87.5t13 -253.5q-44 -165 -148.5 -250.5t-233.5 -85.5z" />
<glyph unicode="&#x42e;" horiz-adv-x="943" d="M79 0l176 652h136l-69 -255h120q50 127 141.5 197t206.5 70q130 0 183 -89t11 -246q-42 -159 -143.5 -250t-231.5 -91q-119 0 -172 77t-28 213h-119l-75 -278h-136zM640 106q68 0 122.5 60t82.5 163q27 102 5 159.5t-91 57.5t-122 -57.5t-80 -159.5q-29 -102 -7 -162.5 t90 -60.5z" />
<glyph unicode="&#x42f;" horiz-adv-x="611" d="M395 0l63 240h-82l-207 -241h-156l239 261q-116 49 -78 192q54 200 302 200h230l-175 -652h-136zM406 349h82l52 194h-81q-64 0 -101 -21t-51 -70q-27 -103 99 -103z" />
<glyph unicode="&#x430;" horiz-adv-x="523" d="M187 -12q-66 0 -95.5 42t-11.5 106q21 79 100 122.5t231 59.5q16 80 -61 80q-54 0 -146 -46l-24 90q121 65 225 65q193 0 134 -221l-76 -286h-111l4 52h-4q-92 -64 -165 -64zM260 94q43 0 103 47l25 95q-158 -20 -176 -89q-13 -53 48 -53z" />
<glyph unicode="&#x431;" horiz-adv-x="558" d="M284 -12l-3 -2q-116 0 -157 84t0 236q24 89 57 155t69.5 107.5t85.5 69t95.5 40.5t109.5 22q77 10 124 29l-6 -119q-40 -25 -124 -36q-46 -6 -67.5 -9.5t-51.5 -11.5t-44.5 -18t-32.5 -28.5t-30.5 -43.5t-25.5 -62q73 68 166 68q83 0 122 -60t10 -168 q-30 -113 -113.5 -183t-183.5 -70zM258 323q-11 -41 -13 -48q-46 -178 65 -178q43 0 78 38.5t52 104.5q34 128 -58 128q-65 0 -128 -66z" />
<glyph unicode="&#x432;" horiz-adv-x="525" d="M68 0l132 495h207q90 0 135 -30.5t27 -99.5q-10 -35 -38 -63t-72 -39l-1 -4q95 -26 71 -117q-19 -72 -85.5 -107t-157.5 -35h-218zM226 92h76q80 0 97 60q7 26 -9.5 41.5t-57.5 15.5h-75zM281 299l65 1q76 0 89 52q7 25 -7.5 38.5t-52.5 13.5h-66z" />
<glyph unicode="&#x433;" horiz-adv-x="428" d="M68 0l133 494h335l-29 -107h-199l-104 -387h-136z" />
<glyph unicode="&#x434;" horiz-adv-x="575" d="M143 0l-46 -172h-117l37 190l24 89h31q23 11 47 49.5t63 137.5l77 200h358l-104 -387h77l-24 -89l-63 -190h-117l46 172h-289zM377 107l76 280h-115l-47 -123q-38 -101 -85 -157h171z" />
<glyph unicode="&#x435;" horiz-adv-x="514" d="M283 -12l1 -1q-108 0 -159.5 70t-19.5 189q31 116 119.5 188t181.5 72q100 0 136.5 -65t7.5 -171q-8 -35 -22 -62h-302q-7 -57 20.5 -86t82.5 -29q53 0 119 33l22 -83q-94 -55 -187 -55zM250 298l194 -1q27 104 -62 104q-39 0 -75.5 -27t-56.5 -76z" />
<glyph unicode="&#x436;" horiz-adv-x="748" d="M8 0l224 256l-12 68q-5 31 -17 42t-33 11q-10 0 -19 -3l12 126q18 7 40 7q54 0 84 -23t41 -81l18 -94h50l49 186h120l-49 -186h48l69 94q42 58 84 81t96 23q23 0 37 -7l-55 -126q-9 3 -18 3q-42 0 -79 -53l-47 -66l88 -258h-146l-53 202h-52l-54 -202h-120l54 202h-52 l-162 -202h-146z" />
<glyph unicode="&#x437;" horiz-adv-x="473" d="M217 -12q-110 0 -175 60l77 86q46 -41 114 -41q42 0 74 16.5t39 44.5t-10.5 41.5t-59.5 13.5h-77l24 91h67q78 0 92 53q7 25 -10 38t-55 13q-67 0 -129 -36l-28 88q92 52 193 52q85 0 133 -35.5t30 -104.5q-9 -34 -37 -63t-69 -42l-1 -4q91 -26 66 -119 q-19 -70 -94.5 -111t-163.5 -41h1h-1z" />
<glyph unicode="&#x438;" horiz-adv-x="580" d="M68 0l134 495h132l-40 -149q-12 -48 -59 -177h3q12 14 43 51.5t43 52.5l197 221h124l-132 -494h-132l40 149q10 40 59 177h-4q-14 -18 -47 -57.5t-39 -46.5l-198 -222h-124z" />
<glyph unicode="&#x439;" horiz-adv-x="580" d="M68 0l134 495h132l-40 -149q-12 -48 -59 -177h3q12 14 43 51.5t43 52.5l197 221h124l-132 -494h-132l40 149q10 40 59 177h-4q-14 -18 -47 -57.5t-39 -46.5l-198 -222h-124zM450 573q-83 0 -113.5 43.5t-12.5 118.5h106q-11 -42 -2 -65.5t42 -23.5q62 0 87 89h106 q-23 -75 -76.5 -118.5t-136.5 -43.5z" />
<glyph unicode="&#x43a;" horiz-adv-x="538" d="M68 0l132 495h136l-49 -186h57l70 95q44 60 84.5 82t94.5 22q23 0 37 -7l-55 -126q-9 3 -18 3q-21 0 -38.5 -10.5t-40.5 -42.5l-45 -64l97 -261h-149l-63 202h-60l-54 -202h-136z" />
<glyph unicode="&#x43b;" horiz-adv-x="566" d="M60 -12l-2 -3q-29 0 -54 11l56 123q14 -4 24 -4q45 0 77 79q6 16 114 299h355l-132 -494h-136l104 387h-111q-61 -159 -90 -228q-70 -170 -205 -170z" />
<glyph unicode="&#x43c;" horiz-adv-x="655" d="M68 0l131 494h156l20 -180q3 -40 7 -112h4q5 8 29 48.5t37 63.5l113 180h155l-132 -494h-121l38 142q15 55 70 206h-4q-14 -23 -43.5 -69.5t-40.5 -65.5l-109 -170h-76l-19 170q-1 20 -5.5 67t-6.5 68h-4q-30 -168 -41 -206l-38 -142h-120z" />
<glyph unicode="&#x43d;" horiz-adv-x="579" d="M68 0l132 494h136l-49 -182h172l49 182h136l-132 -494h-136l52 193h-172l-52 -193h-136z" />
<glyph unicode="&#x43e;" horiz-adv-x="553" d="M273 -12q-98 0 -149.5 70.5t-19.5 188.5q32 119 121 189.5t187 70.5t149.5 -70.5t19.5 -189.5q-32 -118 -121 -188.5t-187 -70.5zM302 98h1q48 0 84.5 40t54.5 109q19 67 3.5 108t-63.5 41q-47 0 -84 -40t-55 -109q-19 -67 -3.5 -108t62.5 -41z" />
<glyph unicode="&#x43f;" horiz-adv-x="570" d="M68 0l132 494h435l-132 -494h-136l104 387h-163l-104 -387h-136z" />
<glyph unicode="&#x440;" horiz-adv-x="570" d="M17 -188l182 683h111l-3 -50h4q87 62 160 62q90 0 123.5 -68t2.5 -184q-32 -122 -113.5 -194.5t-166.5 -72.5q-63 0 -107 52l-17 -80l-40 -148h-136zM315 100q44 0 82.5 39t58.5 115q38 141 -55 141q-46 0 -106 -48l-57 -212q31 -35 77 -35z" />
<glyph unicode="&#x441;" horiz-adv-x="466" d="M277 -12l-2 -1q-106 0 -155.5 69.5t-17.5 189.5q32 119 124.5 189.5t198.5 70.5q84 0 131 -54l-88 -88q-29 32 -64 32q-55 0 -99.5 -40.5t-62.5 -108.5q-18 -67 4 -108t74 -41q47 0 104 39l30 -89q-83 -60 -177 -60z" />
<glyph unicode="&#x442;" horiz-adv-x="486" d="M175 0l104 387h-149l29 107h434l-29 -107h-149l-104 -387h-136z" />
<glyph unicode="&#x443;" horiz-adv-x="512" d="M63 -196l1 -1q-36 0 -66 10l52 104q27 -6 33 -6q67 0 110 72l16 28l-63 484h137l16 -223q2 -44 2 -140h4q50 96 74 140l124 223h130l-310 -506q-61 -95 -120 -140t-140 -45z" />
<glyph unicode="&#x444;" horiz-adv-x="771" d="M269 -188l36 132l24 74q-58 -30 -101 -30q-87 0 -120 69t-1 190q31 117 106.5 188.5t152.5 71.5q49 0 86 -28l15 72l41 152h133l-41 -152l-25 -76q60 32 110 32q84 0 114.5 -68.5t-0.5 -183.5q-32 -122 -108 -194.5t-156 -72.5q-47 0 -83 28l-15 -72l-35 -132h-133z M533 97v1q39 0 72.5 39t53.5 115q38 141 -42 141q-34 0 -70 -24l-67 -250q19 -22 53 -22zM292 99l-1 -2q34 0 65 24l67 250q-21 22 -57 22q-35 0 -68 -38t-52 -108q-40 -148 46 -148z" />
<glyph unicode="&#x445;" horiz-adv-x="502" d="M14 0l223 257l-81 237h146l25 -85l6.5 -26t8 -31.5t6.5 -26.5h4q8 12 28 40.5t30 43.5l61 85h141l-212 -252l88 -242h-146l-29 87q-4 14 -12 43t-12 43h-4q-21 -28 -63 -86l-67 -87h-141z" />
<glyph unicode="&#x446;" horiz-adv-x="588" d="M68 0l132 494h136l-104 -387h158l104 387h136l-103 -387h76l-24 -89l-63 -190h-117l45 172h-376z" />
<glyph unicode="&#x447;" horiz-adv-x="543" d="M340 0l45 173q-40 -8 -91 -8q-94 0 -135.5 45.5t-14.5 142.5l37 141h136l-37 -141q-11 -42 6 -61.5t67 -19.5q29 0 61 6l58 216h136l-132 -494h-136z" />
<glyph unicode="&#x448;" horiz-adv-x="794" d="M68 0l132 494h135l-104 -387h130l104 387h130l-104 -387h130l104 387h134l-132 -494h-659z" />
<glyph unicode="&#x449;" horiz-adv-x="816" d="M628 -172l45 172h-606l132 494h135l-104 -387h130l104 387h130l-104 -387h130l104 387h134l-103 -387h77l-24 -89l-63 -190h-117z" />
<glyph unicode="&#x44a;" horiz-adv-x="619" d="M179 0l103 388h-153l29 107h289l-43 -162h58q97 0 142.5 -39.5t22.5 -125.5q-45 -168 -254 -168h-194zM343 105h52q85 0 103 65q8 31 -9 46.5t-61 15.5h-51z" />
<glyph unicode="&#x44b;" horiz-adv-x="728" d="M68 0l132 495h136l-43 -162h42q96 0 142 -39.5t23 -125.5q-45 -168 -254 -168h-178zM525 1l132 494h136l-132 -494h-136zM232 105h35q85 0 103 65q8 32 -9 47t-60 15h-35z" />
<glyph unicode="&#x44c;" horiz-adv-x="512" d="M68 0l132 495h136l-43 -162h62q96 0 142 -39.5t23 -125.5q-45 -168 -254 -168h-198zM232 105h55q85 0 103 65q8 32 -9 47t-60 15h-55z" />
<glyph unicode="&#x44d;" horiz-adv-x="466" d="M183 -12l1 -2q-101 0 -148 60l73 80q35 -35 89 -35q111 0 157 115h-180l24 91h179q8 103 -92 103q-49 0 -98 -31l-38 79q74 57 171 57q107 0 157 -66.5t16 -192.5q-34 -125 -118.5 -191.5t-192.5 -66.5z" />
<glyph unicode="&#x44e;" horiz-adv-x="769" d="M68 0l133 494h136l-49 -183h81q42 92 116 144t160 52q96 0 141 -70t13 -190q-32 -119 -114.5 -189t-178.5 -70h1h-1q-87 0 -133.5 54.5t-36.5 149.5h-80l-52 -192h-136zM529 98q45 0 79 40t52 109q19 67 6 108t-58 41q-43 0 -79 -40.5t-54 -108.5q-18 -67 -3.5 -108 t57.5 -41z" />
<glyph unicode="&#x44f;" horiz-adv-x="539" d="M336 0l43 166h-61l-150 -167h-152l187 194q-77 44 -51 140q43 161 247 161h205l-132 -494h-136zM353 259h51l35 134h-51q-88 0 -104 -64q-8 -33 9.5 -51.5t59.5 -18.5z" />
<glyph unicode="&#x450;" horiz-adv-x="514" d="M283 -12l1 -1q-108 0 -159.5 70t-19.5 189q31 116 119.5 188t181.5 72q100 0 136.5 -65t7.5 -171q-8 -35 -22 -62h-302q-7 -57 20.5 -86t82.5 -29q53 0 119 33l22 -83q-94 -55 -187 -55zM419 571l-135 157l116 90l104 -180zM250 298l194 -1q27 104 -62 104 q-39 0 -75.5 -27t-56.5 -76z" />
<glyph unicode="&#x451;" horiz-adv-x="514" d="M283 -12l1 -1q-108 0 -159.5 70t-19.5 189q31 116 119.5 188t181.5 72q100 0 136.5 -65t7.5 -171q-8 -35 -22 -62h-302q-7 -57 20.5 -86t82.5 -29q53 0 119 33l22 -83q-94 -55 -187 -55zM250 298l194 -1q27 104 -62 104q-39 0 -75.5 -27t-56.5 -76zM532 570 q-29 0 -43 19.5t-6 48.5t32 48.5t53 19.5q30 0 44 -19.5t6 -48.5t-32 -48.5t-54 -19.5zM318 570q-30 0 -44 19.5t-6 48.5t32 48.5t54 19.5q29 0 43 -19.5t6 -48.5t-32 -48.5t-53 -19.5z" />
<glyph unicode="&#x452;" horiz-adv-x="568" d="M247 -200l-2 1q-44 0 -72 14l52 100q21 -7 36 -7q101 0 169 254q20 72 19.5 113t-16 54.5t-48.5 13.5q-41 0 -105 -52l-78 -292h-136l150 560h-70l16 61l72 6l20 75h136l-20 -75h170l-18 -67h-170l-21 -80l-31 -90q91 70 166 70q183 0 109 -281q-55 -206 -135.5 -292 t-192.5 -86z" />
<glyph unicode="&#x453;" horiz-adv-x="428" d="M68 0l133 494h335l-29 -107h-199l-104 -387h-136zM405 572l-49 66l199 180l69 -90z" />
<glyph unicode="&#x454;" horiz-adv-x="466" d="M277 -12l-2 3q-109 0 -158 66.5t-15 191.5q34 124 124 191.5t199 67.5q85 0 132 -54l-81 -83q-31 33 -78 33q-100 0 -148 -102h176l-24 -91h-179q-16 -118 96 -118q51 0 108 38l27 -83q-83 -60 -177 -60z" />
<glyph unicode="&#x455;" horiz-adv-x="439" d="M210 -12q-49 0 -94.5 18.5t-74.5 49.5l84 86q55 -53 116 -53q67 0 81 49q3 12 -0.5 21.5t-16.5 18t-22.5 13.5t-30.5 14q-5 1 -13 5q-120 51 -95 145q18 68 80 110t146 42q91 0 155 -62l-84 -82q-46 43 -95 43q-62 0 -74 -45q-4 -14 6 -25.5t23 -18t39 -16.5q4 -2 14 -6 q56 -23 84 -55.5t12 -93.5q-19 -69 -82.5 -113t-157.5 -45zM208 -12h2h-2z" />
<glyph unicode="&#x456;" horiz-adv-x="271" d="M68 0l132 494h136l-132 -494h-136zM289 571q-35 0 -52 20.5t-8 51.5q8 32 36 52.5t63 20.5t52 -20.5t9 -52.5q-9 -31 -37 -51.5t-63 -20.5z" />
<glyph unicode="&#x457;" horiz-adv-x="271" d="M68 0l132 494h136l-132 -494h-136zM396 572q-29 0 -43 19.5t-6 48.5t32 48.5t53 19.5q30 0 44 -19.5t6 -48.5t-32 -48.5t-54 -19.5zM182 572q-30 0 -44 19.5t-6 48.5t32 48.5t54 19.5q29 0 43 -19.5t6 -48.5t-32 -48.5t-53 -19.5z" />
<glyph unicode="&#x458;" horiz-adv-x="273" d="M-18 -200l1 1q-51 0 -83 14l52 100q21 -7 38 -7q30 0 47 19.5t29 62.5l135 504h136l-134 -501q-51 -193 -221 -193zM292 572q-35 0 -52 20.5t-8 51.5q8 32 36 52.5t63 20.5t52 -20.5t9 -52.5q-9 -31 -37 -51.5t-63 -20.5z" />
<glyph unicode="&#x459;" horiz-adv-x="773" d="M61 -12l-2 -1q-29 0 -54 11l55 123q16 -4 24 -4q43 0 79 79q45 101 106 299h345l-44 -163h44q96 0 142 -39.5t23 -125.5q-45 -168 -254 -168h-180l104 389h-91q-64 -186 -97 -254q-70 -146 -200 -146zM543 231l-33 -127h36q85 0 103 65q8 31 -9 46.5t-61 15.5h-36z" />
<glyph unicode="&#x45a;" horiz-adv-x="783" d="M68 0l132 494h136l-49 -182h153l49 183h136v-1h1l-43 -161h43q97 0 143 -39.5t23 -125.5q-45 -168 -255 -168h-180l51 193h-152l-52 -193h-136zM556 232l-34 -127h36q85 0 103 65q8 32 -9 47t-60 15h-36z" />
<glyph unicode="&#x45b;" horiz-adv-x="567" d="M68 0l149 557h-69l16 61l71 5l21 78h136l-20 -77h170l-18 -67h-170l-21 -78l-31 -92q95 71 174 71q153 0 100 -198l-70 -261h-136l65 244q14 56 4.5 78t-44.5 22q-46 0 -113 -52l-78 -291h-136z" />
<glyph unicode="&#x45c;" horiz-adv-x="538" d="M68 0l132 495h136l-49 -186h57l70 95q44 60 84.5 82t94.5 22q23 0 37 -7l-55 -126q-9 3 -18 3q-21 0 -38.5 -10.5t-40.5 -42.5l-45 -64l97 -261h-149l-63 202h-60l-54 -202h-136zM452 574l-49 66l199 180l69 -90z" />
<glyph unicode="&#x45d;" horiz-adv-x="580" d="M68 0l134 495h132l-40 -149q-12 -48 -59 -177h3q12 14 43 51.5t43 52.5l197 221h124l-132 -494h-132l40 149q10 40 59 177h-4q-14 -18 -47 -57.5t-39 -46.5l-198 -222h-124zM444 573l-135 157l116 90l104 -180z" />
<glyph unicode="&#x45e;" horiz-adv-x="512" d="M63 -196l1 -1q-36 0 -66 10l52 104q27 -6 33 -6q67 0 110 72l16 28l-63 484h137l16 -223q2 -44 2 -140h4q50 96 74 140l124 223h130l-310 -506q-61 -95 -120 -140t-140 -45zM417 571q-83 0 -113.5 43.5t-12.5 118.5h106q-11 -42 -2 -65.5t42 -23.5q62 0 87 89h106 q-23 -75 -76.5 -118.5t-136.5 -43.5z" />
<glyph unicode="&#x45f;" horiz-adv-x="575" d="M68 0l132 494h136l-104 -387h168l104 387h136l-132 -494h-150l-61 -172h-117l42 172h-154z" />
<glyph unicode="&#x462;" horiz-adv-x="622" d="M148 0l130 486h-123l29 109h123l27 101h137l-27 -101h218l-29 -109h-219l-27 -102h47q115 0 172.5 -42.5t32.5 -134.5q-55 -207 -303 -207h-188zM312 105l43 -1q63 0 99 22.5t51 74.5q13 46 -12.5 66t-93.5 20h-38z" />
<glyph unicode="&#x463;" horiz-adv-x="596" d="M159 0l115 428h-133l28 107h133l25 92h136l-25 -92h171l-28 -107h-171l-26 -95h55q97 0 142.5 -39.5t22.5 -125.5q-45 -168 -254 -168h-191zM323 105h49q85 0 103 65q8 31 -9 46.5t-61 15.5h-48z" />
<glyph unicode="&#x472;" horiz-adv-x="681" d="M337 -12h1q-133 0 -189.5 89.5t-12.5 251.5q43 161 146.5 248t236.5 87t190 -87.5t14 -247.5q-44 -162 -148.5 -251.5t-236.5 -89.5h-1zM368 100q65 0 118.5 47.5t86.5 135.5h-311q-16 -88 12.5 -135.5t93.5 -47.5zM293 392h307q10 78 -19.5 119t-91.5 41t-113 -41 t-83 -119z" />
<glyph unicode="&#x473;" horiz-adv-x="553" d="M273 -12q-100 0 -151 68.5t-18 190.5q33 123 120.5 191.5t187.5 68.5t151 -69t18 -191t-120.5 -190.5t-187.5 -68.5zM300 91q94 0 141 117h-219q-8 -56 12.5 -86.5t65.5 -30.5zM248 299h216q4 51 -17 78.5t-64 27.5q-88 0 -135 -106z" />
<glyph unicode="&#x474;" horiz-adv-x="567" d="M193 0l-24 653h145l-1 -312q0 -16 -0.5 -46t-0.5 -45q-2 -78 -1 -119h4q7 15 44 91t59 119l83 156q46 90 94.5 129t116.5 39q40 0 65 -11l-58 -123q-21 6 -28 6q-40 0 -76 -66l-252 -471h-170z" />
<glyph unicode="&#x475;" horiz-adv-x="523" d="M180 0l-36 494h137l5 -241q-1 -49 -1 -151h4q46 102 72 151l48 84q47 89 93 129t109 40q37 0 65 -11l-55 -116q-14 6 -26 6q-39 0 -75 -65l-176 -320h-164z" />
<glyph unicode="&#x490;" horiz-adv-x="517" d="M79 0l173 652h280l65 172h117l-86 -286h-269l-144 -538h-136z" />
<glyph unicode="&#x491;" horiz-adv-x="430" d="M68 0l133 494h215l66 172h111l-84 -279h-201l-104 -387h-136z" />
<glyph unicode="&#x492;" horiz-adv-x="542" d="M104 287l16 62l77 5l79 298h406l-30 -114h-269l-49 -184h130l-18 -67h-130l-77 -287h-136l76 287h-75z" />
<glyph unicode="&#x493;" horiz-adv-x="452" d="M78 197l17 61l68 5l62 231h335l-29 -107h-199l-33 -123h121l-18 -67h-121l-53 -197h-136l53 197h-67z" />
<glyph unicode="&#x496;" horiz-adv-x="896" d="M697 -188l50 188h-38l-67 283h-72l-76 -283h-130l76 283h-72l-218 -283h-147l283 344h-2l-23 130q-7 37 -20.5 50t-37.5 13q-18 0 -30 -4l11 124q20 8 52 8q57 0 90 -26t47 -92l32 -154h65l69 260h130l-69 -260h59l114 154q51 66 97.5 92t103.5 26q33 0 49 -8l-56 -124 q-9 4 -25 4q-24 0 -45 -13t-48 -50l-91 -129l65 -230h89l-23 -85l-70 -218h-122z" />
<glyph unicode="&#x497;" horiz-adv-x="789" d="M602 -172l45 172h-55l-53 202h-52l-54 -202h-120l54 202h-52l-162 -202h-146l224 256l-12 68q-5 31 -17 42t-33 11q-10 0 -19 -3l12 126q18 7 40 7q54 0 84 -23t41 -81l18 -94h50l49 186h120l-49 -186h48l69 94q42 58 84 81t96 23q23 0 37 -7l-55 -126q-9 3 -18 3 q-42 0 -79 -53l-47 -66l52 -151h103l-24 -89l-63 -190h-116z" />
<glyph unicode="&#x498;" horiz-adv-x="562" d="M170 -188l48 181q-103 16 -159 88l98 94q54 -67 147 -67q54 0 94.5 25t52.5 70t-14.5 65.5t-91.5 20.5h-85l27 101h65q116 0 138 80q11 39 -10.5 58t-66.5 19q-71 0 -151 -52l-45 91q107 79 232 79q108 0 155 -46t25 -128q-13 -49 -45 -87t-78 -56l-1 -4q48 -13 69.5 -54 t5.5 -99q-21 -79 -82.5 -129.5t-146.5 -66.5l-59 -183h-122z" />
<glyph unicode="&#x499;" horiz-adv-x="473" d="M121 -172l40 164q-69 11 -118 56l77 86q46 -41 114 -41q42 0 74 16.5t39 44.5t-10.5 41.5t-59.5 13.5h-77l24 91h67q78 0 92 53q7 25 -10 38t-55 13q-67 0 -129 -36l-28 88q92 52 193 52q85 0 133 -35.5t30 -104.5q-9 -34 -37 -63t-69 -42l-1 -4q91 -26 66 -119 q-14 -54 -63.5 -91t-116.5 -52l-60 -169h-115zM218 -12h1h-1z" />
<glyph unicode="&#x49a;" horiz-adv-x="660" d="M462 -188l50 188h-40l-102 283h-78l-76 -283h-136l174 653h136l-69 -260h78l127 154q55 66 100 92t100 26q33 0 49 -8l-56 -124q-9 4 -26 4q-22 0 -41.5 -13t-50.5 -50l-106 -126l81 -233h101l-23 -85l-70 -218h-122z" />
<glyph unicode="&#x49b;" horiz-adv-x="579" d="M392 -172l46 172h-57l-63 202h-60l-54 -202h-136l132 495h136l-49 -186h57l70 95q44 60 84.5 82t94.5 22q23 0 37 -7l-55 -126q-9 3 -18 3q-21 0 -38.5 -10.5t-40.5 -42.5l-45 -64l57 -154h106l-24 -89l-64 -190h-116z" />
<glyph unicode="&#x4a0;" horiz-adv-x="744" d="M207 0l144 539h-182l30 114h319l-69 -260h79l126 153q55 66 100.5 92t100.5 26q33 0 49 -8l-56 -124q-9 4 -25 4q-23 0 -42.5 -13t-50.5 -50l-107 -127l121 -346h-144l-102 283h-78l-76 -283h-137z" />
<glyph unicode="&#x4a1;" horiz-adv-x="649" d="M179 0l102 388h-153l29 107h289l-49 -186h59l69 94q44 60 84.5 82t94.5 22q23 0 37 -7l-55 -126q-9 3 -18 3q-20 0 -37.5 -10.5t-40.5 -42.5l-46 -65l97 -259h-149l-63 202h-60l-54 -202h-136z" />
<glyph unicode="&#x4a2;" horiz-adv-x="684" d="M486 -188l51 188h-82l75 278h-238l-75 -278h-136l175 652h136l-69 -255h238l69 255h137l-144 -537h78l-23 -85l-70 -218h-122z" />
<glyph unicode="&#x4a3;" horiz-adv-x="601" d="M412 -172l46 172h-81l52 193h-172l-52 -193h-136l132 494h136l-49 -182h172l49 182h136l-103 -387h75l-24 -89l-64 -190h-117z" />
<glyph unicode="&#x4aa;" horiz-adv-x="580" d="M233 -188l49 182q-100 21 -142 106.5t-5 222.5q41 156 153.5 248.5t241.5 92.5q115 0 171 -84l-95 -88q-42 54 -104 54q-73 0 -136.5 -59.5t-90.5 -159.5q-28 -103 1 -162t105 -59q73 0 148 63l50 -86q-76 -67 -165 -87l-59 -184h-122z" />
<glyph unicode="&#x4ab;" horiz-adv-x="466" d="M169 -172l40 167q-73 21 -103 86.5t-4 164.5q32 119 124.5 189.5t198.5 70.5q84 0 131 -54l-88 -88q-29 32 -64 32q-55 0 -99.5 -40.5t-62.5 -108.5q-18 -67 4 -108t74 -41q47 0 104 39l30 -89q-49 -36 -110 -51l-60 -169h-115z" />
<glyph unicode="&#x4ae;" horiz-adv-x="517" d="M190 0l64 236l-85 416h146l21 -156q2 -23 7.5 -70.5t8.5 -73.5h4q94 143 95 144l104 156h143l-308 -416l-63 -236h-137z" />
<glyph unicode="&#x4af;" horiz-adv-x="513" d="M142 -188l51 188l-48 494h137l7 -227q-1 -28 1 -84q0 -10 0.5 -30.5t0.5 -31.5h4q12 22 39 70.5t41 75.5l128 227h131l-306 -494l-50 -188h-136z" />
<glyph unicode="&#x4b0;" horiz-adv-x="517" d="M108 220l16 62l94 5h26l-75 365h146l21 -156q2 -23 7.5 -70.5t8.5 -73.5h4q94 143 95 144l104 156h143l-270 -365h116l-18 -67h-140l-59 -220h-137l60 220h-142z" />
<glyph unicode="&#x4b1;" horiz-adv-x="513" d="M142 -188l51 188h-143l17 61l78 6h41l-41 427h137l7 -227q-1 -28 1 -84q0 -10 0.5 -30.5t0.5 -31.5h4q12 22 39 70.5t41 75.5l128 227h131l-264 -427h113l-18 -67h-137l-50 -188h-136z" />
<glyph unicode="&#x4b2;" horiz-adv-x="596" d="M400 -188l51 188h-56l-32 140q-13 61 -21 107h-4q-36 -54 -75 -107l-104 -140h-146l272 337l-86 316h152l27 -131q4 -17 11 -53.5t9 -48.5h4q30 46 71 102l92 131h146l-258 -323l61 -215h98l-23 -85l-70 -218h-119z" />
<glyph unicode="&#x4b3;" horiz-adv-x="537" d="M350 -172l45 172h-54l-29 87q-4 14 -12 43t-12 43h-4q-21 -28 -63 -86l-67 -87h-141l223 257l-81 237h146l25 -85l6.5 -26t8 -31.5t6.5 -26.5h4q8 12 28 40.5t30 43.5l61 85h141l-212 -252l49 -135h105l-24 -89l-63 -190h-116z" />
<glyph unicode="&#x4b6;" horiz-adv-x="639" d="M443 -188l50 188h-84l72 269q-51 -8 -105 -8q-120 0 -168 55t-15 179l42 157h134l-42 -157q-18 -68 4.5 -96.5t88.5 -28.5q53 0 90 8l74 274h136l-144 -537h78l-23 -85l-70 -218h-118z" />
<glyph unicode="&#x4b7;" horiz-adv-x="566" d="M378 -172l47 172h-85l45 173q-40 -8 -91 -8q-94 0 -135.5 45.5t-14.5 142.5l37 141h136l-37 -141q-11 -42 6 -61.5t67 -19.5q29 0 61 6l58 216h136l-103 -387h77l-24 -89l-64 -190h-116z" />
<glyph unicode="&#x4ba;" horiz-adv-x="624" d="M79 0l174 652h136l-64 -240q54 7 104 7q120 0 168 -55t15 -179l-50 -186h-134l50 186q18 68 -4 96.5t-88 28.5q-50 0 -90 -7l-81 -303h-136z" />
<glyph unicode="&#x4bb;" horiz-adv-x="567" d="M68 0l188 703h136l-47 -175l-31 -92q95 71 173 71q154 0 101 -198l-83 -308h-136l78 290q14 56 4.5 78t-44.5 22q-27 0 -51.5 -12.5t-61.5 -40.5l-90 -338h-136z" />
<glyph unicode="&#x4c0;" horiz-adv-x="295" d="M79 0l175 652h136l-175 -652h-136z" />
<glyph unicode="&#x4c1;" horiz-adv-x="857" d="M2 0l283 344h-2l-23 130q-7 37 -20.5 50t-37.5 13q-18 0 -30 -4l11 124q20 8 52 8q57 0 90 -26t47 -92l32 -154h65l69 260h130l-69 -260h59l114 154q51 66 97.5 92t103.5 26q33 0 49 -8l-56 -124q-9 4 -25 4q-24 0 -45 -13t-48 -50l-91 -129l98 -345h-147l-67 283h-72 l-76 -283h-130l76 283h-72l-218 -283h-147zM614 699h1q-88 0 -119.5 37t-18.5 100h115q-13 -68 40 -68q56 0 76 68h115q-43 -137 -208 -137h-1z" />
<glyph unicode="&#x4c2;" horiz-adv-x="748" d="M8 0l224 256l-12 68q-5 31 -17 42t-33 11q-10 0 -19 -3l12 126q18 7 40 7q54 0 84 -23t41 -81l18 -94h50l49 186h120l-49 -186h48l69 94q42 58 84 81t96 23q23 0 37 -7l-55 -126q-9 3 -18 3q-42 0 -79 -53l-47 -66l88 -258h-146l-53 202h-52l-54 -202h-120l54 202h-52 l-162 -202h-146zM525 572q-83 0 -113.5 43.5t-12.5 118.5h106q-11 -42 -2 -65.5t42 -23.5q62 0 87 89h106q-23 -75 -76.5 -118.5t-136.5 -43.5z" />
<glyph unicode="&#x4cf;" horiz-adv-x="281" d="M192 -12h-2q-128 0 -85 157l149 558h136l-150 -564q-5 -23 -0.5 -32t15.5 -9q10 0 19 2l-10 -100q-29 -12 -72 -12z" />
<glyph unicode="&#x4d0;" horiz-adv-x="568" d="M-5 0l385 653h162l33 -652h-145v162h-207l-88 -163h-140zM474 699h1q-88 0 -119.5 37t-18.5 100h115q-13 -68 40 -68q56 0 76 68h115q-43 -137 -208 -137h-1zM280 270h150v67q-2 55 0 172q1 13 1 39h-4q-87 -169 -111 -212z" />
<glyph unicode="&#x4d1;" horiz-adv-x="523" d="M187 -12q-66 0 -95.5 42t-11.5 106q21 79 100 122.5t231 59.5q16 80 -61 80q-54 0 -146 -46l-24 90q121 65 225 65q193 0 134 -221l-76 -286h-111l4 52h-4q-92 -64 -165 -64zM426 572q-83 0 -113.5 43.5t-12.5 118.5h106q-11 -42 -2 -65.5t42 -23.5q62 0 87 89h106 q-23 -75 -76.5 -118.5t-136.5 -43.5zM260 94q43 0 103 47l25 95q-158 -20 -176 -89q-13 -53 48 -53z" />
<glyph unicode="&#x4d4;" horiz-adv-x="841" d="M-10 0l490 654h474l-30 -114h-254l-39 -144h214l-30 -115h-214l-44 -165h264l-31 -115h-401l42 156h-183l-115 -157h-143zM327 264h132l77 286h-4q-97 -139 -135 -191z" />
<glyph unicode="&#x4d5;" horiz-adv-x="786" d="M193 -12h1q-66 0 -95.5 42t-11.5 106q21 79 99.5 123t229.5 60q16 80 -60 80q-53 0 -145 -46l-24 90q121 65 216 65t118 -79q87 79 170 79q94 0 126.5 -66.5t4.5 -172.5q-10 -34 -22 -59h-291q-7 -54 19 -83.5t75 -29.5q44 0 116 36l23 -89q-94 -55 -187 -55 q-101 0 -149 79q-119 -80 -212 -80h-1zM267 94q54 0 115 48q-4 30 4 72l5 21q-152 -21 -171 -88q-13 -53 47 -53zM532 293h181q15 49 1.5 79.5t-55.5 30.5q-39 0 -73 -28.5t-54 -81.5z" />
<glyph unicode="&#x4d6;" horiz-adv-x="544" d="M79 0l174 653h403l-30 -114h-267l-39 -144h227l-30 -115h-227l-44 -165h277l-31 -115h-413zM474 699h1q-88 0 -119.5 37t-18.5 100h115q-13 -68 40 -68q56 0 76 68h115q-43 -137 -208 -137h-1z" />
<glyph unicode="&#x4d7;" horiz-adv-x="514" d="M283 -12l1 -1q-108 0 -159.5 70t-19.5 189q31 116 119.5 188t181.5 72q100 0 136.5 -65t7.5 -171q-8 -35 -22 -62h-302q-7 -57 20.5 -86t82.5 -29q53 0 119 33l22 -83q-94 -55 -187 -55zM425 570q-83 0 -113.5 43.5t-12.5 118.5h106q-11 -42 -2 -65.5t42 -23.5 q62 0 87 89h106q-23 -75 -76.5 -118.5t-136.5 -43.5zM250 298l194 -1q27 104 -62 104q-39 0 -75.5 -27t-56.5 -76z" />
<glyph unicode="&#x4d8;" horiz-adv-x="672" d="M332 -12v-3q-132 0 -183.5 88t-9.5 248q7 25 15 46h434q36 184 -116 184q-77 0 -162 -62l-39 94q109 80 246 80q132 0 186 -87t10 -249t-145.5 -250.5t-235.5 -88.5zM559 267h-295q-35 -169 97 -169t198 169z" />
<glyph unicode="&#x4d9;" horiz-adv-x="514" d="M245 -12v2q-101 0 -138.5 65.5t-8.5 172.5q10 36 23 62h302q15 113 -88 113q-54 0 -121 -35l-21 89q87 50 192 50q99 0 145 -70.5t14 -188.5q-31 -117 -117 -188.5t-182 -71.5zM270 94q87 0 130 106h-192q-29 -106 62 -106z" />
<glyph unicode="&#x4e2;" horiz-adv-x="673" d="M79 0l175 651h135l-66 -248q-16 -58 -80 -232h4l103 141l274 340h144l-175 -652h-135l67 250q14 54 79 231h-4l-103 -141l-274 -340h-144zM386 730l23 88h297l-23 -88h-297z" />
<glyph unicode="&#x4e3;" horiz-adv-x="580" d="M68 0l134 495h132l-40 -149q-12 -48 -59 -177h3q12 14 43 51.5t43 52.5l197 221h124l-132 -494h-132l40 149q10 40 59 177h-4q-14 -18 -47 -57.5t-39 -46.5l-198 -222h-124zM310 594l23 88h291l-23 -88h-291z" />
<glyph unicode="&#x4e6;" horiz-adv-x="681" d="M337 -12q-132 0 -188 91.5t-14 249.5q42 157 146 246t237 89t189.5 -89.5t14.5 -245.5q-42 -158 -147.5 -249.5t-237.5 -91.5zM368 106q70 0 128 60.5t86 162.5q27 102 1 159.5t-97 57.5t-127.5 -58t-83.5 -159q-28 -102 -2.5 -162.5t95.5 -60.5zM639 702q-29 0 -43 19 t-6 48t31.5 47.5t52.5 18.5t43 -18.5t6 -47.5t-31.5 -48t-52.5 -19zM419 702h1q-29 0 -43 19t-6 48t31.5 47.5t52.5 18.5t42.5 -18.5t5.5 -47.5t-31.5 -48t-51.5 -19h-1z" />
<glyph unicode="&#x4e7;" horiz-adv-x="553" d="M273 -12q-98 0 -149.5 70.5t-19.5 188.5q32 119 121 189.5t187 70.5t149.5 -70.5t19.5 -189.5q-32 -118 -121 -188.5t-187 -70.5zM302 98h1q48 0 84.5 40t54.5 109q19 67 3.5 108t-63.5 41q-47 0 -84 -40t-55 -109q-19 -67 -3.5 -108t62.5 -41zM537 572q-29 0 -43 19.5 t-6 48.5t32 48.5t53 19.5q30 0 44 -19.5t6 -48.5t-32 -48.5t-54 -19.5zM323 572q-30 0 -44 19.5t-6 48.5t32 48.5t54 19.5q29 0 43 -19.5t6 -48.5t-32 -48.5t-53 -19.5z" />
<glyph unicode="&#x4e8;" horiz-adv-x="681" d="M337 -12h1q-133 0 -189.5 89.5t-12.5 251.5q43 161 146.5 248t236.5 87t190 -87.5t14 -247.5q-44 -162 -148.5 -251.5t-236.5 -89.5h-1zM368 100q65 0 118.5 47.5t86.5 135.5h-311q-16 -88 12.5 -135.5t93.5 -47.5zM293 392h307q10 78 -19.5 119t-91.5 41t-113 -41 t-83 -119z" />
<glyph unicode="&#x4e9;" horiz-adv-x="553" d="M273 -12q-100 0 -151 68.5t-18 190.5q33 123 120.5 191.5t187.5 68.5t151 -69t18 -191t-120.5 -190.5t-187.5 -68.5zM300 91q94 0 141 117h-219q-8 -56 12.5 -86.5t65.5 -30.5zM248 299h216q4 51 -17 78.5t-64 27.5q-88 0 -135 -106z" />
<glyph unicode="&#x4ee;" horiz-adv-x="548" d="M151 -12l-1 -1q-49 0 -77 13l57 119q20 -8 46 -8q48 0 76 34l16 22l-91 485h145l28 -207l13 -151h4l92 151l132 207h137l-340 -509q-105 -155 -237 -155zM324 723l23 88h297l-23 -88h-297z" />
<glyph unicode="&#x4ef;" horiz-adv-x="512" d="M63 -196l1 -1q-36 0 -66 10l52 104q27 -6 33 -6q67 0 110 72l16 28l-63 484h137l16 -223q2 -44 2 -140h4q50 96 74 140l124 223h130l-310 -506q-61 -95 -120 -140t-140 -45zM278 593l23 88h291l-23 -88h-291z" />
<glyph unicode="&#x4f2;" horiz-adv-x="548" d="M151 -12l-1 -1q-49 0 -77 13l57 119q20 -8 46 -8q48 0 76 34l16 22l-91 485h145l28 -207l13 -151h4l92 151l132 207h137l-340 -509q-105 -155 -237 -155zM344 727l143 160l73 -49l-157 -143zM528 728l143 160l73 -49l-157 -143z" />
<glyph unicode="&#x4f3;" horiz-adv-x="512" d="M63 -196l1 -1q-36 0 -66 10l52 104q27 -6 33 -6q67 0 110 72l16 28l-63 484h137l16 -223q2 -44 2 -140h4q50 96 74 140l124 223h130l-310 -506q-61 -95 -120 -140t-140 -45zM364 565l-63 32l135 179l81 -41zM538 565l-63 32l135 179l81 -41z" />
<glyph unicode="&#x60c;" horiz-adv-x="292" d="M308 342l8 -74q-118 -40 -140 -121h8q35 0 53.5 -21t8.5 -58q-10 -35 -40.5 -57.5t-67.5 -22.5q-46 0 -62 35.5t2 97.5q21 79 81 137t149 84z" />
<glyph unicode="&#x61b;" horiz-adv-x="292" d="M397 672l9 -74q-119 -40 -140 -121h8q35 0 53.5 -21t8.5 -58q-10 -35 -40.5 -57.5t-67.5 -22.5q-46 0 -62 35.5t1 97.5q21 79 81 137t149 84zM190 163q36 0 53 -25t7 -62q-11 -38 -41.5 -63t-66.5 -25t-53 25.5t-7 62.5t41 62t67 25z" />
<glyph unicode="&#x61f;" horiz-adv-x="457" d="M359 226h-116q9 22 10 41.5t-6 39.5t-13 31.5t-19 32.5q-11 17 -15.5 25t-12 24t-9.5 28t-2 29t5 35q22 83 84.5 126t145.5 43q109 0 163 -90l-94 -69q-34 49 -82 49q-33 0 -58 -18.5t-34 -50.5q-10 -35 28 -95q14 -23 21 -37.5t14.5 -38.5t4.5 -50t-15 -55zM236 -13 q-36 0 -53.5 25t-7.5 62t41 62.5t67 25.5t53 -25t7 -63q-10 -37 -40.5 -62t-66.5 -25zM362 226l-3 -1v1h3z" />
<glyph unicode="&#x620;" d="M-54 -200h1000l268 1000h-1000z" />
<glyph unicode="&#x621;" horiz-adv-x="509" d="M487 308l-36 -134h-78l10 -52q0 -1 0.5 -3t0.5 -3q9 -46 -21 -78q-19 -21 -45.5 -30t-40.5 -8h-172l36 135h91l-10 50q-2 6 -3.5 16t5 34.5t26.5 41.5q34 30 84 30z" />
<glyph unicode="&#x622;" d="M-54 -200h1000l268 1000h-1000z" />
<glyph unicode="&#x623;" d="M-54 -200h1000l268 1000h-1000z" />
<glyph unicode="&#x624;" d="M-54 -200h1000l268 1000h-1000z" />
<glyph unicode="&#x625;" d="M-54 -200h1000l268 1000h-1000z" />
<glyph unicode="&#x626;" d="M-54 -200h1000l268 1000h-1000z" />
<glyph unicode="&#x627;" d="M-54 -200h1000l268 1000h-1000z" />
<glyph unicode="&#x628;" d="M-54 -200h1000l268 1000h-1000z" />
<glyph unicode="&#x629;" d="M-54 -200h1000l268 1000h-1000z" />
<glyph unicode="&#x62a;" d="M-54 -200h1000l268 1000h-1000z" />
<glyph unicode="&#x62b;" d="M-54 -200h1000l268 1000h-1000z" />
<glyph unicode="&#x62c;" d="M-54 -200h1000l268 1000h-1000z" />
<glyph unicode="&#x62d;" d="M-54 -200h1000l268 1000h-1000z" />
<glyph unicode="&#x62e;" d="M-54 -200h1000l268 1000h-1000z" />
<glyph unicode="&#x62f;" d="M-54 -200h1000l268 1000h-1000z" />
<glyph unicode="&#x630;" d="M-54 -200h1000l268 1000h-1000z" />
<glyph unicode="&#x631;" d="M-54 -200h1000l268 1000h-1000z" />
<glyph unicode="&#x632;" d="M-54 -200h1000l268 1000h-1000z" />
<glyph unicode="&#x633;" d="M-54 -200h1000l268 1000h-1000z" />
<glyph unicode="&#x634;" d="M-54 -200h1000l268 1000h-1000z" />
<glyph unicode="&#x635;" d="M-54 -200h1000l268 1000h-1000z" />
<glyph unicode="&#x636;" d="M-54 -200h1000l268 1000h-1000z" />
<glyph unicode="&#x637;" d="M-54 -200h1000l268 1000h-1000z" />
<glyph unicode="&#x638;" d="M-54 -200h1000l268 1000h-1000z" />
<glyph unicode="&#x639;" d="M-54 -200h1000l268 1000h-1000z" />
<glyph unicode="&#x63a;" d="M-54 -200h1000l268 1000h-1000z" />
<glyph unicode="&#x63b;" d="M-54 -200h1000l268 1000h-1000z" />
<glyph unicode="&#x63c;" d="M-54 -200h1000l268 1000h-1000z" />
<glyph unicode="&#x63d;" d="M-54 -200h1000l268 1000h-1000z" />
<glyph unicode="&#x63e;" d="M-54 -200h1000l268 1000h-1000z" />
<glyph unicode="&#x63f;" d="M-54 -200h1000l268 1000h-1000z" />
<glyph unicode="&#x640;" horiz-adv-x="269" d="M288 0l36 135h-288l-36 -135h288z" />
<glyph unicode="&#x641;" d="M-54 -200h1000l268 1000h-1000z" />
<glyph unicode="&#x642;" d="M-54 -200h1000l268 1000h-1000z" />
<glyph unicode="&#x643;" d="M-54 -200h1000l268 1000h-1000z" />
<glyph unicode="&#x644;" d="M-54 -200h1000l268 1000h-1000z" />
<glyph unicode="&#x645;" d="M-54 -200h1000l268 1000h-1000z" />
<glyph unicode="&#x646;" d="M-54 -200h1000l268 1000h-1000z" />
<glyph unicode="&#x647;" d="M-54 -200h1000l268 1000h-1000z" />
<glyph unicode="&#x648;" d="M-54 -200h1000l268 1000h-1000z" />
<glyph unicode="&#x649;" d="M-54 -200h1000l268 1000h-1000z" />
<glyph unicode="&#x64a;" d="M-54 -200h1000l268 1000h-1000z" />
<glyph unicode="&#x64b;" horiz-adv-x="0" d="M-130 -1q-1 13 7.5 24t22.5 16l218 72q14 5 24.5 0t11.5 -18t-7.5 -24t-22.5 -16l-219 -74q-13 -4 -23 1.5t-12 18.5zM-130 113q-1 13 7.5 24t22.5 16l218 72q14 5 24.5 0t11.5 -18t-7.5 -24t-22.5 -16l-219 -74q-13 -4 -23 1.5t-12 18.5z" />
<glyph unicode="&#x64c;" horiz-adv-x="0" d="M6 45l-4 38q-3 31 19 60t56 39q49 13 80.5 -8t36.5 -57q3 -29 -14 -54.5t-54 -37.5l-162 -54q-39 -13 -71.5 1.5t-35.5 53.5l-5 46q-1 13 7 24t22 16q13 4 23 -1.5t12 -17.5l5 -47q1 -11 12 -16t25 0zM69 66l49 17q9 3 9 11q-1 10 -11.5 19.5t-27.5 8.5q-9 0 -16 -4.5 t-6 -14.5z" />
<glyph unicode="&#x64d;" horiz-adv-x="0" d="M-130 -139q-1 13 7.5 24t22.5 16l218 72q14 5 24.5 0t11.5 -18t-7.5 -24t-22.5 -16l-219 -74q-13 -4 -23 1.5t-12 18.5zM-130 -253q-1 13 7.5 24t22.5 16l218 72q14 5 24.5 0t11.5 -18t-7.5 -24t-22.5 -16l-219 -74q-13 -4 -23 1.5t-12 18.5z" />
<glyph unicode="&#x64e;" horiz-adv-x="0" d="M-130 0q-1 13 7.5 24t22.5 16l218 72q14 5 24.5 0t11.5 -18t-7.5 -24t-22.5 -16l-219 -74q-13 -4 -23 1.5t-12 18.5z" />
<glyph unicode="&#x64f;" horiz-adv-x="0" d="M-27 51l-3 38q-2 32 19.5 61t54.5 39q48 13 80 -8t36 -57q3 -27 -15 -54.5t-52 -38.5l-199 -65q-13 -4 -23 1.5t-12 18.5q-1 13 7 24t22 16zM37 75l51 17q8 3 8 7q0 10 -10.5 21t-29.5 10q-10 -1 -16.5 -5.5t-5.5 -14.5z" />
<glyph unicode="&#x650;" horiz-adv-x="0" d="M-130 -139q-1 13 7.5 24t22.5 16l218 72q14 5 24.5 0t11.5 -18t-7.5 -24t-22.5 -16l-219 -74q-13 -4 -23 1.5t-12 18.5z" />
<glyph unicode="&#x651;" horiz-adv-x="0" d="M-108 116q4 13 15 22t24 9t20 -9t3 -22l-24 -90l51 16l23 92q4 14 15.5 23t24.5 9q14 0 21 -9.5t3 -22.5l-18 -69q1 1 2 1l51 17l23 91q4 13 15.5 22.5t24.5 9.5t20 -9t3 -23l-26 -99q-5 -20 -21.5 -33.5t-33.5 -18.5l-52 -18q-16 -6 -27 5q-18 -21 -44 -28l-64 -21 q-8 -3 -16 -1q-28 -4 -38 14q-8 12 -3 35q1 2 1 4z" />
<glyph unicode="&#x652;" horiz-adv-x="0" d="M-104 87q14 53 62 90.5t101 37.5t80 -37.5t13 -90.5t-62 -91t-101 -38t-80 38t-13 91zM-41 87q-8 -28 5.5 -47t41.5 -19t52.5 19t31.5 47t-6.5 46.5t-41.5 18.5t-52 -18.5t-31 -46.5z" />
<glyph unicode="&#x653;" horiz-adv-x="0" d="M-99 -6h-82l14 53q9 33 39 55.5t63 22.5h239l-22 -82h-237z" />
<glyph unicode="&#x654;" horiz-adv-x="0" d="M148 194l-22 -82h-54l7 -36v-3q6 -28 -14 -49q-21 -22 -53 -22h-110l22 82h61l-8 35q-11 34 16 58q21 19 52 19z" />
<glyph unicode="&#x655;" horiz-adv-x="0" d="M148 1l-22 -82h-54l7 -36v-3q6 -28 -14 -49q-21 -22 -53 -22h-110l22 82h61l-8 35q-11 34 16 58q21 19 52 19z" />
<glyph unicode="&#x656;" horiz-adv-x="0" d="M-52 -188l60 224h101l-37 -140q-10 -39 -48.5 -61.5t-75.5 -22.5z" />
<glyph unicode="&#x657;" horiz-adv-x="0" d="M25 110l21 -32q18 -26 14.5 -62.5t-28.5 -61.5q-40 -35 -76 -32.5t-58 31.5q-17 19 -14.5 52.5t26.5 60.5l139 156q10 11 21.5 11t19.5 -10t6.5 -24.5t-11.5 -24.5zM-19 57l-35 -40q-5 -7 -3 -10q4 -8 17 -12t33 5q19 14 10 28z" />
<glyph unicode="&#x658;" horiz-adv-x="0" d="M-104 87l12 45l63 1l-12 -46q-8 -28 5.5 -47t41.5 -19t52.5 19t31.5 47h63q-14 -53 -62 -91t-101 -38t-80 38t-13 91h-1z" />
<glyph unicode="&#x659;" horiz-adv-x="0" d="M-124 47q9 29 40 31h211q14 0 21 -8.5t3 -21.5q-4 -14 -15.5 -23t-24.5 -9l-211 -1q-14 0 -20.5 9t-2.5 22z" />
<glyph unicode="&#x65a;" horiz-adv-x="0" d="M-69 0l-74 133l65 49l99 -96h4l149 96l40 -49l-145 -133h-138z" />
<glyph unicode="&#x65b;" horiz-adv-x="0" d="M-165 49l145 132h138l74 -132l-66 -49l-98 96h-4l-150 -96z" />
<glyph unicode="&#x65c;" horiz-adv-x="0" d="M-68 0q8 29 33.5 49t53.5 20q29 0 43.5 -20.5t7.5 -48.5q-8 -29 -33.5 -49t-53.5 -20q-29 0 -43.5 20.5t-7.5 48.5z" />
<glyph unicode="&#x65d;" horiz-adv-x="0" d="M55 51l68 -25q12 -4 14 -15.5t-6 -24.5t-21 -18.5t-24 -1.5l-163 65q-28 11 -32 39.5t14 53.5q24 36 67 57t85 8q28 -10 34 -39.5t-14 -60.5zM1 75l25 35q11 18 -12 20q-19 1 -35.5 -10t-21.5 -21q-2 -5 3 -7z" />
<glyph unicode="&#x65e;" horiz-adv-x="0" d="M-122 -44q-12 26 14 47l181 143q11 9 23 7.5t17 -12.5q12 -26 -14 -47l-180 -144q-11 -10 -23 -8t-17 13zM28 -20q5 20 23 34t38 14t29.5 -14t4.5 -34q-5 -19 -22.5 -33t-37.5 -14q-19 0 -29 13.5t-5 33.5h-1zM-146 108q5 19 22.5 33t37.5 14t30 -14t5 -33 q-5 -20 -23 -34t-37 -14q-20 0 -30 14t-4 34h-1z" />
<glyph unicode="&#x65f;" horiz-adv-x="0" d="M-61 -193h-19q-44 0 -59 27q-4 6 -6.5 13t-4 9.5t-5.5 2.5q-7 0 -14.5 -17.5t-11.5 -34.5h-81q16 61 50 100t79 39q38 0 54 -28q2 -3 5 -9t5 -8.5t4.5 -5.5t5.5 -4.5t7 -1.5h3v1h36l-8 35q-11 34 16 58q21 19 52 19l103 -2l-22 -82h-54l7 -36v-3q6 -28 -14 -49 q-21 -22 -53 -22h-75v-1z" />
<glyph unicode="&#x660;" horiz-adv-x="426" d="M216 329q10 35 41.5 59.5t66.5 24.5q34 0 52 -24.5t8 -59.5t-41.5 -59.5t-65.5 -24.5q-35 0 -53.5 24.5t-8.5 59.5h1z" />
<glyph unicode="&#x661;" horiz-adv-x="392" d="M298 633l-169 -633h135l169 633h-135z" />
<glyph unicode="&#x662;" horiz-adv-x="477" d="M206 0h-134l137 513q13 50 58 85t95 35h215l-36 -135h-202z" />
<glyph unicode="&#x663;" horiz-adv-x="680" d="M241 633h134l-43 -162h68l43 162h135l-43 -162h66l44 162h135l-47 -178q-13 -49 -58 -84t-95 -35h-94l17 65q-23 -29 -56.5 -47t-68.5 -18h-82l-90 -336h-134z" />
<glyph unicode="&#x664;" horiz-adv-x="521" d="M482 677l51 -108l-160 -98l74 -63q20 -18 17 -47.5t-27 -54.5l-167 -173h215l-36 -134h-283q-36 0 -58.5 26.5t-12.5 64.5q3 11 7 21t10 20t10.5 16.5t12.5 15.5t11 12l12 12l9 9l131 137l-58 50q-40 35 -24 87.5t77 90.5z" />
<glyph unicode="&#x665;" horiz-adv-x="649" d="M586 628q61 -45 77 -153.5t-14 -213.5q-30 -114 -113.5 -198.5t-213.5 -85.5q-123 -1 -168.5 78.5t-11.5 206.5q28 109 102.5 214t151.5 148q51 29 102.5 30t88.5 -26h-1zM486 513q-18 14 -46 -2q-36 -20 -85.5 -97.5t-72.5 -151.5q-25 -68 -8.5 -110t84.5 -41 q65 1 101 37t56 112q19 85 7.5 161t-35.5 93z" />
<glyph unicode="&#x666;" horiz-adv-x="529" d="M205 497l36 134h267q50 0 75.5 -35t12.5 -84l-137 -512h-134l133 497h-253z" />
<glyph unicode="&#x667;" horiz-adv-x="659" d="M635 660l121 -34l-307 -580q-15 -29 -44 -46.5t-62 -18.5q-32 -1 -53 14.5t-22 46.5l-30 579l140 41l22 -444z" />
<glyph unicode="&#x668;" horiz-adv-x="659" d="M452 -26l2 443l-262 -445l-117 41l340 579q37 63 109 61q32 -1 51.5 -19t18.5 -46l-3 -580z" />
<glyph unicode="&#x669;" horiz-adv-x="557" d="M423 259q-87 -6 -144.5 10t-80.5 78q-29 77 16.5 161t124.5 123q47 26 101.5 32t103 -16.5t67.5 -72.5q17 -47 1 -108l-124 -465h-134zM459 394l19 72q7 28 -9 44q-14 17 -43.5 18.5t-53.5 -14.5q-22 -13 -36.5 -40t-4.5 -54q9 -20 34.5 -24t93.5 -2z" />
<glyph unicode="&#x66a;" horiz-adv-x="564" d="M48 -12l535 677h110l-535 -677h-110zM456 73q10 35 41.5 59.5t66.5 24.5q34 0 52 -24.5t8 -59.5t-41.5 -59.5t-65.5 -24.5q-35 0 -53.5 24.5t-8.5 59.5h1zM116 580q10 35 41.5 59.5t66.5 24.5q34 0 52 -24.5t8 -59.5t-41.5 -59.5t-65.5 -24.5q-35 0 -53.5 24.5t-8.5 59.5 h1z" />
<glyph unicode="&#x66b;" horiz-adv-x="339" d="M209 116h101l-40 -152q-16 -61 -69.5 -106t-117.5 -45h-73l27 101h73q20 0 36 13.5t23 37.5z" />
<glyph unicode="&#x66c;" horiz-adv-x="339" d="M130 374h-101l40 152q16 61 69.5 106t117.5 45h73l-27 -101h-73q-20 0 -36 -13.5t-23 -37.5z" />
<glyph unicode="&#x66e;" d="M-54 -200h1000l268 1000h-1000z" />
<glyph unicode="&#x66f;" d="M-54 -200h1000l268 1000h-1000z" />
<glyph unicode="&#x670;" horiz-adv-x="0" d="M-52 -6l60 224h101l-37 -140q-10 -39 -48.5 -61.5t-75.5 -22.5z" />
<glyph unicode="&#x671;" d="M-54 -200h1000l268 1000h-1000z" />
<glyph unicode="&#x672;" d="M-54 -200h1000l268 1000h-1000z" />
<glyph unicode="&#x673;" d="M-54 -200h1000l268 1000h-1000z" />
<glyph unicode="&#x674;" horiz-adv-x="509" d="M487 569l-36 -134h-78l10 -52q0 -1 0.5 -3t0.5 -3q9 -46 -21 -78q-19 -21 -45.5 -30t-40.5 -8h-172l36 135h91l-10 50q-2 6 -3.5 16t5 34.5t26.5 41.5q34 30 84 30z" />
<glyph unicode="&#x675;" d="M-54 -200h1000l268 1000h-1000z" />
<glyph unicode="&#x676;" d="M-54 -200h1000l268 1000h-1000z" />
<glyph unicode="&#x677;" d="M-54 -200h1000l268 1000h-1000z" />
<glyph unicode="&#x678;" d="M-54 -200h1000l268 1000h-1000z" />
<glyph unicode="&#x679;" d="M-54 -200h1000l268 1000h-1000z" />
<glyph unicode="&#x67a;" d="M-54 -200h1000l268 1000h-1000z" />
<glyph unicode="&#x67b;" d="M-54 -200h1000l268 1000h-1000z" />
<glyph unicode="&#x67c;" d="M-54 -200h1000l268 1000h-1000z" />
<glyph unicode="&#x67d;" d="M-54 -200h1000l268 1000h-1000z" />
<glyph unicode="&#x67e;" d="M-54 -200h1000l268 1000h-1000z" />
<glyph unicode="&#x67f;" d="M-54 -200h1000l268 1000h-1000z" />
<glyph unicode="&#x680;" d="M-54 -200h1000l268 1000h-1000z" />
<glyph unicode="&#x681;" d="M-54 -200h1000l268 1000h-1000z" />
<glyph unicode="&#x682;" d="M-54 -200h1000l268 1000h-1000z" />
<glyph unicode="&#x683;" d="M-54 -200h1000l268 1000h-1000z" />
<glyph unicode="&#x684;" d="M-54 -200h1000l268 1000h-1000z" />
<glyph unicode="&#x685;" d="M-54 -200h1000l268 1000h-1000z" />
<glyph unicode="&#x686;" d="M-54 -200h1000l268 1000h-1000z" />
<glyph unicode="&#x687;" d="M-54 -200h1000l268 1000h-1000z" />
<glyph unicode="&#x688;" d="M-54 -200h1000l268 1000h-1000z" />
<glyph unicode="&#x689;" d="M-54 -200h1000l268 1000h-1000z" />
<glyph unicode="&#x68a;" d="M-54 -200h1000l268 1000h-1000z" />
<glyph unicode="&#x68b;" d="M-54 -200h1000l268 1000h-1000z" />
<glyph unicode="&#x68c;" d="M-54 -200h1000l268 1000h-1000z" />
<glyph unicode="&#x68d;" d="M-54 -200h1000l268 1000h-1000z" />
<glyph unicode="&#x68e;" d="M-54 -200h1000l268 1000h-1000z" />
<glyph unicode="&#x68f;" d="M-54 -200h1000l268 1000h-1000z" />
<glyph unicode="&#x690;" d="M-54 -200h1000l268 1000h-1000z" />
<glyph unicode="&#x691;" d="M-54 -200h1000l268 1000h-1000z" />
<glyph unicode="&#x692;" d="M-54 -200h1000l268 1000h-1000z" />
<glyph unicode="&#x693;" d="M-54 -200h1000l268 1000h-1000z" />
<glyph unicode="&#x694;" d="M-54 -200h1000l268 1000h-1000z" />
<glyph unicode="&#x695;" d="M-54 -200h1000l268 1000h-1000z" />
<glyph unicode="&#x696;" d="M-54 -200h1000l268 1000h-1000z" />
</font>
</defs>
</svg>
