<?xml version="1.0" standalone="no"?>
<!DOCTYPE svg PUBLIC "-//W3C//DTD SVG 1.1//EN" "http://www.w3.org/Graphics/SVG/1.1/DTD/svg11.dtd" >
<svg xmlns="http://www.w3.org/2000/svg" xmlns:xlink="http://www.w3.org/1999/xlink" version="1.1">
<metadata></metadata>
<defs>
<font id="madaregular" horiz-adv-x="0" >
<font-face units-per-em="1000" ascent="800" descent="-200" />
<missing-glyph horiz-adv-x="200" />
<glyph unicode="ff" horiz-adv-x="577" d="M96 0v419h-66v62l66 5v64q0 127 96 157q25 7 55 7q50 0 89 -18l-17 -62q-31 13 -65 13q-63 0 -74 -72q-2 -13 -2 -27v-62h203v77q0 137 105 158q18 3 37 3q42 0 81 -16l-18 -63q-27 12 -55 12q-67 -2 -68 -94v-77h103v-67h-103v-419h-82v419h-203v-419h-82z" />
<glyph unicode="&#xfedf;&#xfef0;" horiz-adv-x="996" arabic-form="isolated" d="M736 -5l9 82q57 0 80 11t26.5 39t1.5 78l-19 509h81l20 -500q3 -71 -9.5 -120t-56 -74t-133.5 -25zM30 -1q0 36 10 80t32 97l72 -28q-16 -42 -24 -77t-8 -65q0 -55 32.5 -90t86 -51t117.5 -16q77 0 140.5 18t101.5 47.5t38 65.5q0 26 -40 45t-112 39l19 83 q104 -40 162 -55t89 -15q21 0 30.5 -11.5t9.5 -27.5t-14 -29.5t-36 -13.5h-37q2 -9 3 -14.5t1 -14.5q0 -49 -45 -94.5t-129.5 -74.5t-202.5 -29q-79 0 -146.5 25.5t-108.5 76.5t-41 129z" />
<glyph unicode="&#xfee0;&#xfef0;" horiz-adv-x="1036" arabic-form="final" d="M736 -5l9 82q57 0 80 11t26.5 39t1.5 78l-17 509h83l16 -507q2 -51 16.5 -79.5t39.5 -39.5t55 -11q21 0 30.5 -11.5t9.5 -27.5t-14 -29.5t-36 -13.5q-51 0 -81 19.5t-43 47.5q-20 -33 -61.5 -50t-114.5 -17zM30 -1q0 36 10 80t32 97l72 -28q-16 -42 -24 -77t-8 -65 q0 -55 32.5 -90t86 -51t117.5 -16q77 0 140.5 18t101.5 47.5t38 65.5q0 26 -40 45t-112 39l19 83q104 -40 162 -55t89 -15q21 0 30.5 -11.5t9.5 -27.5t-14 -29.5t-36 -13.5h-37q2 -9 3 -14.5t1 -14.5q0 -49 -45 -94.5t-129.5 -74.5t-202.5 -29q-79 0 -146.5 25.5 t-108.5 76.5t-41 129z" />
<glyph unicode="&#xfee0;&#xfea4;&#xfef0;" horiz-adv-x="1673" arabic-form="final" d="M1373 -5l9 82q57 0 80 11t26.5 39t1.5 78l-17 509h83l16 -507q2 -51 16.5 -79.5t39.5 -39.5t55 -11q21 0 30.5 -11.5t9.5 -27.5t-14 -29.5t-36 -13.5q-51 0 -81 19.5t-43 47.5q-20 -33 -61.5 -50t-114.5 -17zM736 -5l9 82q104 0 200.5 31t176.5 86q-39 35 -95.5 55.5 t-124.5 20.5q-25 0 -44 -2.5t-46 -8.5l-16 76q56 17 106 17q52 0 94 -12.5t76.5 -30.5t65 -36t59.5 -30.5t60 -12.5h21l7 -72q-31 0 -60 -7q19 -45 54 -59.5t104 -14.5q21 0 30.5 -11.5t9.5 -27.5t-14 -29.5t-36 -13.5q-54 0 -96.5 9.5t-72.5 38t-44 85.5 q-38 -18 -77.5 -40.5t-87.5 -43.5t-111 -35t-148 -14zM30 -1q0 36 10 80t32 97l72 -28q-16 -42 -24 -77t-8 -65q0 -55 32.5 -90t86 -51t117.5 -16q77 0 140.5 18t101.5 47.5t38 65.5q0 26 -40 45t-112 39l19 83q104 -40 162 -55t89 -15q21 0 30.5 -11.5t9.5 -27.5t-14 -29.5 t-36 -13.5h-37q2 -9 3 -14.5t1 -14.5q0 -49 -45 -94.5t-129.5 -74.5t-202.5 -29q-79 0 -146.5 25.5t-108.5 76.5t-41 129z" />
<glyph unicode="&#x627;&#xfedf;&#xfee0;&#xfeea;" horiz-adv-x="1284" arabic-form="isolated" d="M586 830l-6 173h55l6 -173h-55zM551 620q-40 0 -53 26.5t-13 56.5q0 11 1.5 23.5t4.5 28.5l50 14q-6 -34 -6 -57q0 -37 25 -37q15 0 25 15.5t11 62.5v30l48 18v-61q0 -14 5.5 -24.5t23.5 -10.5t24 11t6 28t-4 34.5t-11 34.5l45 14q10 -19 16.5 -43.5t6.5 -44.5 q0 -33 -18.5 -59.5t-57.5 -26.5q-32 0 -52 18q-9 -23 -29.5 -37t-47.5 -14zM486 -5q-65 0 -111.5 22.5t-65.5 80.5q-53 -13 -103 -10.5t-89.5 19t-63 46t-23.5 70.5q0 54 34 99t92 76t128 42l-3 76h81l16 -330q3 -47 17 -70.5t39.5 -31t61.5 -7.5q57 0 79.5 11t26 39t1.5 78 l-13 363h83l12 -361q2 -51 16.5 -79.5t39.5 -39.5t55 -11q56 0 79 11t26.5 39t1.5 78l-19 509h81l20 -500q3 -71 -9.5 -120t-56 -74t-133.5 -25q-51 0 -80.5 19.5t-43.5 47.5q-19 -33 -61 -50t-115 -17zM1138 0l-20 714h81l20 -714h-81zM297 174l-9 183q-57 -6 -97 -26 t-61 -45t-21 -50q0 -24 18.5 -38.5t47.5 -21.5t61.5 -7t60.5 5z" />
<glyph unicode="&#xfedf;&#xfe82;" horiz-adv-x="678" arabic-form="isolated" d="M393 536q0 22 -3 53t-7 62t-8 53l86 10q3 -20 6.5 -52.5t5.5 -64.5t2 -53q0 -63 -11.5 -122.5t-37.5 -115.5q47 -49 69 -90t22 -81q0 -29 -14 -60.5t-51 -53t-107 -21.5h-230v81q150 107 214 213q-56 50 -131.5 107t-157.5 116l47 66q89 -66 158 -119.5t119 -98.5 q15 40 22 82.5t7 88.5zM234 82h126q51 0 67 18.5t16 42.5q0 18 -14.5 42t-40.5 52q-28 -42 -66.5 -81t-87.5 -74zM-71 18h-56v53q0 45 40 60q13 5 27 5h239v-56h-250v-62z" />
<glyph unicode="&#xfee0;&#xfe82;" horiz-adv-x="689" arabic-form="final" d="M142 -5q-27 0 -54.5 4.5t-38.5 6.5l11 79q90 -12 164.5 2.5t118.5 72.5q-39 64 -117 155.5t-186 188.5l54 57q106 -100 175 -181t111 -141q12 43 14 98l-14 377h82l20 -515q2 -49 9.5 -75.5t34 -36.5t83.5 -10q21 0 30.5 -11.5t9.5 -27.5t-14 -29.5t-36 -13.5 q-70 0 -111 13.5t-60 42t-25 73.5q-31 -55 -76 -83t-93.5 -37t-91.5 -9zM-71 18h-56v53q0 45 40 60q13 5 27 5h239v-56h-250v-62z" />
<glyph unicode="&#xfedf;&#xfe84;" horiz-adv-x="582" arabic-form="isolated" d="M393 536q0 22 -3 53t-7 62t-8 53l86 10q3 -20 6.5 -52.5t5.5 -64.5t2 -53q0 -63 -11.5 -122.5t-37.5 -115.5q47 -49 69 -90t22 -81q0 -29 -14 -60.5t-51 -53t-107 -21.5h-230v81q150 107 214 213q-56 50 -131.5 107t-157.5 116l47 66q89 -66 158 -119.5t119 -98.5 q15 40 22 82.5t7 88.5zM234 82h126q51 0 67 18.5t16 42.5q0 18 -14.5 42t-40.5 52q-28 -42 -66.5 -81t-87.5 -74zM109 225v-56h-74l26 -54v-1l1 -2q11 -24 0 -39q-10 -15 -35 -15h-110v56h82l-26 54l-6 18q-1 14 5 23q12 15 37 16h100z" />
<glyph unicode="&#xfee0;&#xfe84;" horiz-adv-x="599" arabic-form="final" d="M142 -5q-27 0 -54.5 4.5t-38.5 6.5l11 79q90 -12 164.5 2.5t118.5 72.5q-39 64 -117 155.5t-186 188.5l54 57q106 -100 175 -181t111 -141q12 43 14 98l-14 377h82l20 -515q2 -49 9.5 -75.5t34 -36.5t83.5 -10q21 0 30.5 -11.5t9.5 -27.5t-14 -29.5t-36 -13.5 q-70 0 -111 13.5t-60 42t-25 73.5q-31 -55 -76 -83t-93.5 -37t-91.5 -9zM109 225v-56h-74l26 -54v-1l1 -2q11 -24 0 -39q-10 -15 -35 -15h-110v56h82l-26 54l-6 18q-1 14 5 23q12 15 37 16h100z" />
<glyph unicode="&#xfedf;&#xfe88;" horiz-adv-x="582" arabic-form="isolated" d="M393 536q0 22 -3 53t-7 62t-8 53l86 10q3 -20 6.5 -52.5t5.5 -64.5t2 -53q0 -63 -11.5 -122.5t-37.5 -115.5q47 -49 69 -90t22 -81q0 -29 -14 -60.5t-51 -53t-107 -21.5h-230v81q150 107 214 213q-56 50 -131.5 107t-157.5 116l47 66q89 -66 158 -119.5t119 -98.5 q15 40 22 82.5t7 88.5zM234 82h126q51 0 67 18.5t16 42.5q0 18 -14.5 42t-40.5 52q-28 -42 -66.5 -81t-87.5 -74zM154 0v-56h-74l26 -54q0 -1 1 -3q11 -24 0 -39q-10 -15 -35 -15h-110v56h82l-26 54l-6 18q-1 14 5 23q12 15 37 16h100z" />
<glyph unicode="&#xfee0;&#xfe88;" horiz-adv-x="599" arabic-form="final" d="M142 -5q-27 0 -54.5 4.5t-38.5 6.5l11 79q90 -12 164.5 2.5t118.5 72.5q-39 64 -117 155.5t-186 188.5l54 57q106 -100 175 -181t111 -141q12 43 14 98l-14 377h82l20 -515q2 -49 9.5 -75.5t34 -36.5t83.5 -10q21 0 30.5 -11.5t9.5 -27.5t-14 -29.5t-36 -13.5 q-70 0 -111 13.5t-60 42t-25 73.5q-31 -55 -76 -83t-93.5 -37t-91.5 -9zM154 0v-56h-74l26 -54q0 -1 1 -3q11 -24 0 -39q-10 -15 -35 -15h-110v56h82l-26 54l-6 18q-1 14 5 23q12 15 37 16h100z" />
<glyph unicode="&#xfedf;&#xfe8e;" horiz-adv-x="582" arabic-form="isolated" d="M393 536q0 22 -3 53t-7 62t-8 53l86 10q3 -20 6.5 -52.5t5.5 -64.5t2 -53q0 -63 -11.5 -122.5t-37.5 -115.5q47 -49 69 -90t22 -81q0 -29 -14 -60.5t-51 -53t-107 -21.5h-230v81q150 107 214 213q-56 50 -131.5 107t-157.5 116l47 66q89 -66 158 -119.5t119 -98.5 q15 40 22 82.5t7 88.5zM234 82h126q51 0 67 18.5t16 42.5q0 18 -14.5 42t-40.5 52q-28 -42 -66.5 -81t-87.5 -74z" />
<glyph unicode="&#xfee0;&#xfe8e;" horiz-adv-x="599" arabic-form="final" d="M142 -5q-27 0 -54.5 4.5t-38.5 6.5l11 79q90 -12 164.5 2.5t118.5 72.5q-39 64 -117 155.5t-186 188.5l54 57q106 -100 175 -181t111 -141q12 43 14 98l-14 377h82l20 -515q2 -49 9.5 -75.5t34 -36.5t83.5 -10q21 0 30.5 -11.5t9.5 -27.5t-14 -29.5t-36 -13.5 q-70 0 -111 13.5t-60 42t-25 73.5q-31 -55 -76 -83t-93.5 -37t-91.5 -9z" />
<glyph unicode="ft" horiz-adv-x="594" d="M96 0v419h-66v62l66 5v77q0 137 105 158q18 3 37 3q42 0 81 -16l-18 -63q-27 12 -55 12q-67 -2 -68 -94v-77h178l10 136h68v-136h132v-67h-132v-270q0 -87 64 -93q6 -1 12 -1q21 0 55 13l16 -62q-54 -18 -90 -18q-138 2 -139 162v269h-174v-419h-82z" />
<glyph unicode="fft" horiz-adv-x="879" d="M96 0v419h-66v62l66 5v64q0 127 96 157q25 7 55 7q50 0 89 -18l-17 -62q-31 13 -65 13q-63 0 -74 -72q-2 -13 -2 -27v-62h203v77q0 137 105 158q18 3 37 3q42 0 81 -16l-18 -63q-27 12 -55 12q-67 -2 -68 -94v-77h178l10 136h68v-136h132v-67h-132v-270q0 -87 64 -93 q6 -1 12 -1q21 0 55 13l16 -62q-54 -18 -90 -18q-138 2 -139 162v269h-174v-419h-82v419h-203v-419h-82z" />
<glyph unicode="&#xfedf;&#xfbe9;&#xfee2;" horiz-adv-x="1091" d="M831 -5l9 82q57 0 80 11t26.5 39t1.5 78l-19 509h81l20 -500q3 -71 -9.5 -120t-56 -74t-133.5 -25zM562 -5l10 82q49 0 78 6t42 24.5t13 55.5q0 38 -17.5 95.5t-39.5 114.5l81 30q13 -32 24.5 -73t19.5 -81t8 -70q0 -100 -53.5 -142t-165.5 -42zM77 -393 q-21 77 -36 150.5t-23 131.5t-8 86q0 74 24 135t62 107.5t82 79t85.5 49t70.5 16.5q25 0 44 -11t37 -43t38 -94q19 -57 36 -86.5t37 -40t46 -10.5q21 0 30.5 -11.5t9.5 -27.5t-14 -29.5t-36 -13.5q-35 0 -60.5 11.5t-45.5 31.5q-19 -29 -46 -42.5t-58 -13.5 q-37 0 -77.5 17.5t-77.5 51.5t-64 82q-25 -38 -33 -81.5t-8 -76.5q0 -28 6 -71.5t15.5 -92.5t21 -97.5t21.5 -87.5zM360 64q26 0 39 16t3 47q-23 73 -41.5 109.5t-40.5 36.5t-61.5 -19.5t-71.5 -56.5q22 -45 53.5 -75t63 -44t56.5 -14z" />
<glyph unicode="&#xfedf;&#xfb51;" horiz-adv-x="503" d="M151 661q-22 0 -52.5 2t-57.5 5.5t-41 5.5l7 51q9 -1 23 -3t31 -3q14 30 34.5 60t48 50.5t64.5 20.5q32 0 60.5 -20t28.5 -67q0 -24 -12 -47.5t-43.5 -39t-90.5 -15.5zM204 796q-25 0 -48 -23t-42 -59q21 -1 37 -1q57 0 74.5 13t17.5 32q0 20 -12 29t-27 9zM393 536 q0 22 -3 53t-7 62t-8 53l86 10q3 -20 6.5 -52.5t5.5 -64.5t2 -53q0 -63 -11.5 -122.5t-37.5 -115.5q47 -49 69 -90t22 -81q0 -29 -14 -60.5t-51 -53t-107 -21.5h-230v81q150 107 214 213q-56 50 -131.5 107t-157.5 116l47 66q89 -66 158 -119.5t119 -98.5q15 40 22 82.5 t7 88.5zM234 82h126q51 0 67 18.5t16 42.5q0 18 -14.5 42t-40.5 52q-28 -42 -66.5 -81t-87.5 -74z" />
<glyph unicode="&#xfee0;&#xfb51;" horiz-adv-x="635" d="M151 661q-22 0 -52.5 2t-57.5 5.5t-41 5.5l7 51q9 -1 23 -3t31 -3q14 30 34.5 60t48 50.5t64.5 20.5q32 0 60.5 -20t28.5 -67q0 -24 -12 -47.5t-43.5 -39t-90.5 -15.5zM204 796q-25 0 -48 -23t-42 -59q21 -1 37 -1q57 0 74.5 13t17.5 32q0 20 -12 29t-27 9zM142 -5 q-27 0 -54.5 4.5t-38.5 6.5l11 79q90 -12 164.5 2.5t118.5 72.5q-39 64 -117 155.5t-186 188.5l54 57q106 -100 175 -181t111 -141q12 43 14 98l-14 377h82l20 -515q2 -49 9.5 -75.5t34 -36.5t83.5 -10q21 0 30.5 -11.5t9.5 -27.5t-14 -29.5t-36 -13.5q-70 0 -111 13.5 t-60 42t-25 73.5q-31 -55 -76 -83t-93.5 -37t-91.5 -9z" />
<glyph unicode="&#x671;" horiz-adv-x="235" arabic-form="isolated" d="M103 731q-22 0 -52.5 2t-57.5 5.5t-41 5.5l7 51q9 -1 23 -3t31 -3q14 30 34.5 60t48 50.5t64.5 20.5q32 0 60.5 -20t28.5 -67q0 -24 -12 -47.5t-43.5 -39t-90.5 -15.5zM156 866q-25 0 -48 -23t-42 -59q21 -1 37 -1q57 0 74.5 13t17.5 32q0 20 -12 29t-27 9zM89 0l-17 644 h81l17 -644h-81z" />
<glyph unicode="&#x671;" horiz-adv-x="235" arabic-form="final" d="M103 731q-22 0 -52.5 2t-57.5 5.5t-41 5.5l7 51q9 -1 23 -3t31 -3q14 30 34.5 60t48 50.5t64.5 20.5q32 0 60.5 -20t28.5 -67q0 -24 -12 -47.5t-43.5 -39t-90.5 -15.5zM156 866q-25 0 -48 -23t-42 -59q21 -1 37 -1q57 0 74.5 13t17.5 32q0 20 -12 29t-27 9zM89 0l-17 644 h81l17 -644h-81z" />
<glyph unicode="&#x67b;" horiz-adv-x="993" arabic-form="isolated" d="M0 -200h1000v1000h-1000v-1000z" />
<glyph unicode="&#x67b;" horiz-adv-x="1093" arabic-form="final" d="M390 -21q-178 0 -269 47t-91 156q0 37 9 78.5t19 78.5l75 -19q-6 -22 -13.5 -55.5t-7.5 -59.5q0 -52 26.5 -83.5t92.5 -46t185 -14.5q61 0 129 7.5t135.5 27t128.5 53.5t107 86l63 -37q-9 -23 -12 -36.5t-3 -24.5q0 -15 11 -28.5t41.5 -22.5t86.5 -9q21 0 30.5 -11.5 t9.5 -27.5t-14 -29.5t-36 -13.5q-88 0 -144.5 26t-57.5 85q-83 -64 -215 -95.5t-286 -31.5zM463 -212q-21 0 -35.5 14.5t-14.5 34.5t14.5 35t35.5 15q20 0 34.5 -15t14.5 -35t-14.5 -34.5t-34.5 -14.5zM464 -341q-21 0 -35.5 14.5t-14.5 34.5t14.5 35t35.5 15q20 0 34.5 -15 t14.5 -35t-14.5 -34.5t-34.5 -14.5z" />
<glyph unicode="&#x67b;" horiz-adv-x="269" arabic-form="initial" d="M0 -5l10 82q49 0 78 6t42 24.5t13 55.5q0 38 -17.5 95.5t-39.5 114.5l81 30q13 -32 24.5 -73t19.5 -81t8 -70q0 -100 -53.5 -142t-165.5 -42zM107 -192q-21 0 -35.5 14.5t-14.5 34.5t14.5 35t35.5 15q20 0 34.5 -15t14.5 -35t-14.5 -34.5t-34.5 -14.5zM108 -321 q-21 0 -35.5 14.5t-14.5 34.5t14.5 35t35.5 15q20 0 34.5 -15t14.5 -35t-14.5 -34.5t-34.5 -14.5z" />
<glyph unicode="&#x67b;" horiz-adv-x="343" arabic-form="medial" d="M0 -5l10 82q42 0 66 7.5t36.5 29t21.5 62.5t22 107l78 -15q-6 -27 -13.5 -62t-7.5 -59q0 -20 9 -36t39 -25t92 -9q21 0 30.5 -11.5t9.5 -27.5t-14 -29.5t-36 -13.5q-79 0 -117 17t-52 51q-30 -42 -69 -55t-105 -13zM170 -192q-21 0 -35.5 14.5t-14.5 34.5t14.5 35 t35.5 15q20 0 34.5 -15t14.5 -35t-14.5 -34.5t-34.5 -14.5zM171 -321q-21 0 -35.5 14.5t-14.5 34.5t14.5 35t35.5 15q20 0 34.5 -15t14.5 -35t-14.5 -34.5t-34.5 -14.5z" />
<glyph unicode="&#x67e;" horiz-adv-x="993" arabic-form="isolated" d="M0 -200h1000v1000h-1000v-1000z" />
<glyph unicode="&#x67e;" horiz-adv-x="1093" arabic-form="final" d="M390 -21q-178 0 -269 47t-91 156q0 37 9 78.5t19 78.5l75 -19q-6 -22 -13.5 -55.5t-7.5 -59.5q0 -52 26.5 -83.5t92.5 -46t185 -14.5q61 0 129 7.5t135.5 27t128.5 53.5t107 86l63 -37q-9 -23 -12 -36.5t-3 -24.5q0 -15 11 -28.5t41.5 -22.5t86.5 -9q21 0 30.5 -11.5 t9.5 -27.5t-14 -29.5t-36 -13.5q-88 0 -144.5 26t-57.5 85q-83 -64 -215 -95.5t-286 -31.5zM395 -214q-21 0 -35.5 14.5t-14.5 34.5t14.5 35t35.5 15q20 0 34.5 -15t14.5 -35t-14.5 -34.5t-34.5 -14.5zM531 -214q-21 0 -35.5 14.5t-14.5 34.5t14.5 35t35.5 15q20 0 34.5 -15 t14.5 -35t-14.5 -34.5t-34.5 -14.5zM463 -324q-21 0 -35.5 14.5t-14.5 34.5t14.5 35t35.5 15q20 0 34.5 -15t14.5 -35t-14.5 -34.5t-34.5 -14.5z" />
<glyph unicode="&#x67e;" horiz-adv-x="299" arabic-form="initial" d="M0 -5l10 82q59 0 92 4.5t47 23t14 58.5q0 38 -17.5 95.5t-39.5 114.5l81 30q13 -32 24.5 -73t19.5 -81t8 -70q0 -100 -56 -142t-183 -42zM45 -194q-21 0 -35.5 14.5t-14.5 34.5t14.5 35t35.5 15q20 0 34.5 -15t14.5 -35t-14.5 -34.5t-34.5 -14.5zM181 -194 q-21 0 -35.5 14.5t-14.5 34.5t14.5 35t35.5 15q20 0 34.5 -15t14.5 -35t-14.5 -34.5t-34.5 -14.5zM113 -304q-21 0 -35.5 14.5t-14.5 34.5t14.5 35t35.5 15q20 0 34.5 -15t14.5 -35t-14.5 -34.5t-34.5 -14.5z" />
<glyph unicode="&#x67e;" horiz-adv-x="373" arabic-form="medial" d="M0 -5l10 82q50 0 78 7.5t42.5 29t23.5 62.5t22 107l78 -15q-6 -27 -13.5 -62t-7.5 -59q0 -15 2 -28t15 -22t44 -14.5t89 -5.5q21 0 30.5 -11.5t9.5 -27.5t-14 -29.5t-36 -13.5q-65 0 -101.5 7.5t-54 22t-25.5 36.5q-29 -41 -71.5 -53.5t-120.5 -12.5zM112 -194 q-21 0 -35.5 14.5t-14.5 34.5t14.5 35t35.5 15q20 0 34.5 -15t14.5 -35t-14.5 -34.5t-34.5 -14.5zM248 -194q-21 0 -35.5 14.5t-14.5 34.5t14.5 35t35.5 15q20 0 34.5 -15t14.5 -35t-14.5 -34.5t-34.5 -14.5zM180 -304q-21 0 -35.5 14.5t-14.5 34.5t14.5 35t35.5 15 q20 0 34.5 -15t14.5 -35t-14.5 -34.5t-34.5 -14.5z" />
<glyph unicode="&#x680;" horiz-adv-x="993" arabic-form="isolated" d="M0 -200h1000v1000h-1000v-1000z" />
<glyph unicode="&#x680;" horiz-adv-x="1093" arabic-form="final" d="M390 -21q-178 0 -269 47t-91 156q0 37 9 78.5t19 78.5l75 -19q-6 -22 -13.5 -55.5t-7.5 -59.5q0 -52 26.5 -83.5t92.5 -46t185 -14.5q61 0 129 7.5t135.5 27t128.5 53.5t107 86l63 -37q-9 -23 -12 -36.5t-3 -24.5q0 -15 11 -28.5t41.5 -22.5t86.5 -9q21 0 30.5 -11.5 t9.5 -27.5t-14 -29.5t-36 -13.5q-88 0 -144.5 26t-57.5 85q-83 -64 -215 -95.5t-286 -31.5zM535 -212q-21 0 -35.5 14.5t-14.5 34.5t14.5 35t35.5 15q20 0 34.5 -15t14.5 -35t-14.5 -34.5t-34.5 -14.5zM399 -212q-21 0 -35.5 14.5t-14.5 34.5t14.5 35t35.5 15q20 0 34.5 -15 t14.5 -35t-14.5 -34.5t-34.5 -14.5zM535 -337q-21 0 -35.5 14.5t-14.5 34.5t14.5 35t35.5 15q20 0 34.5 -15t14.5 -35t-14.5 -34.5t-34.5 -14.5zM399 -337q-21 0 -35.5 14.5t-14.5 34.5t14.5 35t35.5 15q20 0 34.5 -15t14.5 -35t-14.5 -34.5t-34.5 -14.5z" />
<glyph unicode="&#x680;" horiz-adv-x="299" arabic-form="initial" d="M0 -5l10 82q59 0 92 4.5t47 23t14 58.5q0 38 -17.5 95.5t-39.5 114.5l81 30q13 -32 24.5 -73t19.5 -81t8 -70q0 -100 -56 -142t-183 -42zM185 -192q-21 0 -35.5 14.5t-14.5 34.5t14.5 35t35.5 15q20 0 34.5 -15t14.5 -35t-14.5 -34.5t-34.5 -14.5zM49 -192 q-21 0 -35.5 14.5t-14.5 34.5t14.5 35t35.5 15q20 0 34.5 -15t14.5 -35t-14.5 -34.5t-34.5 -14.5zM185 -317q-21 0 -35.5 14.5t-14.5 34.5t14.5 35t35.5 15q20 0 34.5 -15t14.5 -35t-14.5 -34.5t-34.5 -14.5zM49 -317q-21 0 -35.5 14.5t-14.5 34.5t14.5 35t35.5 15 q20 0 34.5 -15t14.5 -35t-14.5 -34.5t-34.5 -14.5z" />
<glyph unicode="&#x680;" horiz-adv-x="373" arabic-form="medial" d="M0 -5l10 82q50 0 78 7.5t42.5 29t23.5 62.5t22 107l78 -15q-6 -27 -13.5 -62t-7.5 -59q0 -15 2 -28t15 -22t44 -14.5t89 -5.5q21 0 30.5 -11.5t9.5 -27.5t-14 -29.5t-36 -13.5q-65 0 -101.5 7.5t-54 22t-25.5 36.5q-29 -41 -71.5 -53.5t-120.5 -12.5zM252 -192 q-21 0 -35.5 14.5t-14.5 34.5t14.5 35t35.5 15q20 0 34.5 -15t14.5 -35t-14.5 -34.5t-34.5 -14.5zM116 -192q-21 0 -35.5 14.5t-14.5 34.5t14.5 35t35.5 15q20 0 34.5 -15t14.5 -35t-14.5 -34.5t-34.5 -14.5zM252 -317q-21 0 -35.5 14.5t-14.5 34.5t14.5 35t35.5 15 q20 0 34.5 -15t14.5 -35t-14.5 -34.5t-34.5 -14.5zM116 -317q-21 0 -35.5 14.5t-14.5 34.5t14.5 35t35.5 15q20 0 34.5 -15t14.5 -35t-14.5 -34.5t-34.5 -14.5z" />
<glyph unicode="&#x67a;" horiz-adv-x="993" arabic-form="isolated" d="M0 -200h1000v1000h-1000v-1000z" />
<glyph unicode="&#x67a;" horiz-adv-x="1093" arabic-form="final" d="M390 -21q-178 0 -269 47t-91 156q0 37 9 78.5t19 78.5l75 -19q-6 -22 -13.5 -55.5t-7.5 -59.5q0 -52 26.5 -83.5t92.5 -46t185 -14.5q61 0 129 7.5t135.5 27t128.5 53.5t107 86l63 -37q-9 -23 -12 -36.5t-3 -24.5q0 -15 11 -28.5t41.5 -22.5t86.5 -9q21 0 30.5 -11.5 t9.5 -27.5t-14 -29.5t-36 -13.5q-88 0 -144.5 26t-57.5 85q-83 -64 -215 -95.5t-286 -31.5zM487 530q-21 0 -35.5 14.5t-14.5 34.5t14.5 35t35.5 15q20 0 34.5 -15t14.5 -35t-14.5 -34.5t-34.5 -14.5zM488 401q-21 0 -35.5 14.5t-14.5 34.5t14.5 35t35.5 15q20 0 34.5 -15 t14.5 -35t-14.5 -34.5t-34.5 -14.5z" />
<glyph unicode="&#x67a;" horiz-adv-x="269" arabic-form="initial" d="M0 -5l10 82q49 0 78 6t42 24.5t13 55.5q0 38 -17.5 95.5t-39.5 114.5l81 30q13 -32 24.5 -73t19.5 -81t8 -70q0 -100 -53.5 -142t-165.5 -42zM127 636q-21 0 -35.5 14.5t-14.5 34.5t14.5 35t35.5 15q20 0 34.5 -15t14.5 -35t-14.5 -34.5t-34.5 -14.5zM128 507 q-21 0 -35.5 14.5t-14.5 34.5t14.5 35t35.5 15q20 0 34.5 -15t14.5 -35t-14.5 -34.5t-34.5 -14.5z" />
<glyph unicode="&#x67a;" horiz-adv-x="343" arabic-form="medial" d="M0 -5l10 82q42 0 66 7.5t36.5 29t21.5 62.5t22 107l78 -15q-6 -27 -13.5 -62t-7.5 -59q0 -20 9 -36t39 -25t92 -9q21 0 30.5 -11.5t9.5 -27.5t-14 -29.5t-36 -13.5q-79 0 -117 17t-52 51q-30 -42 -69 -55t-105 -13zM186 515q-21 0 -35.5 14.5t-14.5 34.5t14.5 35t35.5 15 q20 0 34.5 -15t14.5 -35t-14.5 -34.5t-34.5 -14.5zM187 386q-21 0 -35.5 14.5t-14.5 34.5t14.5 35t35.5 15q20 0 34.5 -15t14.5 -35t-14.5 -34.5t-34.5 -14.5z" />
<glyph unicode="&#x67f;" horiz-adv-x="993" arabic-form="isolated" d="M0 -200h1000v1000h-1000v-1000z" />
<glyph unicode="&#x67f;" horiz-adv-x="1093" arabic-form="final" d="M390 -21q-178 0 -269 47t-91 156q0 37 9 78.5t19 78.5l75 -19q-6 -22 -13.5 -55.5t-7.5 -59.5q0 -52 26.5 -83.5t92.5 -46t185 -14.5q61 0 129 7.5t135.5 27t128.5 53.5t107 86l63 -37q-9 -23 -12 -36.5t-3 -24.5q0 -15 11 -28.5t41.5 -22.5t86.5 -9q21 0 30.5 -11.5 t9.5 -27.5t-14 -29.5t-36 -13.5q-88 0 -144.5 26t-57.5 85q-83 -64 -215 -95.5t-286 -31.5zM422 526q-21 0 -35.5 14.5t-14.5 34.5t14.5 35t35.5 15q20 0 34.5 -15t14.5 -35t-14.5 -34.5t-34.5 -14.5zM558 526q-21 0 -35.5 14.5t-14.5 34.5t14.5 35t35.5 15q20 0 34.5 -15 t14.5 -35t-14.5 -34.5t-34.5 -14.5zM422 401q-21 0 -35.5 14.5t-14.5 34.5t14.5 35t35.5 15q20 0 34.5 -15t14.5 -35t-14.5 -34.5t-34.5 -14.5zM558 401q-21 0 -35.5 14.5t-14.5 34.5t14.5 35t35.5 15q20 0 34.5 -15t14.5 -35t-14.5 -34.5t-34.5 -14.5z" />
<glyph unicode="&#x67f;" horiz-adv-x="299" arabic-form="initial" d="M82 632q-21 0 -35.5 14.5t-14.5 34.5t14.5 35t35.5 15q20 0 34.5 -15t14.5 -35t-14.5 -34.5t-34.5 -14.5zM218 632q-21 0 -35.5 14.5t-14.5 34.5t14.5 35t35.5 15q20 0 34.5 -15t14.5 -35t-14.5 -34.5t-34.5 -14.5zM82 507q-21 0 -35.5 14.5t-14.5 34.5t14.5 35t35.5 15 q20 0 34.5 -15t14.5 -35t-14.5 -34.5t-34.5 -14.5zM218 507q-21 0 -35.5 14.5t-14.5 34.5t14.5 35t35.5 15q20 0 34.5 -15t14.5 -35t-14.5 -34.5t-34.5 -14.5zM0 -5l10 82q59 0 92 4.5t47 23t14 58.5q0 38 -17.5 95.5t-39.5 114.5l81 30q13 -32 24.5 -73t19.5 -81t8 -70 q0 -100 -56 -142t-183 -42z" />
<glyph unicode="&#x67f;" horiz-adv-x="373" arabic-form="medial" d="M131 511q-21 0 -35.5 14.5t-14.5 34.5t14.5 35t35.5 15q20 0 34.5 -15t14.5 -35t-14.5 -34.5t-34.5 -14.5zM267 511q-21 0 -35.5 14.5t-14.5 34.5t14.5 35t35.5 15q20 0 34.5 -15t14.5 -35t-14.5 -34.5t-34.5 -14.5zM131 386q-21 0 -35.5 14.5t-14.5 34.5t14.5 35 t35.5 15q20 0 34.5 -15t14.5 -35t-14.5 -34.5t-34.5 -14.5zM267 386q-21 0 -35.5 14.5t-14.5 34.5t14.5 35t35.5 15q20 0 34.5 -15t14.5 -35t-14.5 -34.5t-34.5 -14.5zM0 -5l10 82q50 0 78 7.5t42.5 29t23.5 62.5t22 107l78 -15q-6 -27 -13.5 -62t-7.5 -59q0 -15 2 -28 t15 -22t44 -14.5t89 -5.5q21 0 30.5 -11.5t9.5 -27.5t-14 -29.5t-36 -13.5q-65 0 -101.5 7.5t-54 22t-25.5 36.5q-29 -41 -71.5 -53.5t-120.5 -12.5z" />
<glyph unicode="&#x679;" horiz-adv-x="993" arabic-form="isolated" d="M0 -200h1000v1000h-1000v-1000z" />
<glyph unicode="&#x679;" horiz-adv-x="1093" arabic-form="final" d="M390 -21q-178 0 -269 47t-91 156q0 37 9 78.5t19 78.5l75 -19q-6 -22 -13.5 -55.5t-7.5 -59.5q0 -52 26.5 -83.5t92.5 -46t185 -14.5q61 0 129 7.5t135.5 27t128.5 53.5t107 86l63 -37q-9 -23 -12 -36.5t-3 -24.5q0 -15 11 -28.5t41.5 -22.5t86.5 -9q21 0 30.5 -11.5 t9.5 -27.5t-14 -29.5t-36 -13.5q-88 0 -144.5 26t-57.5 85q-83 -64 -215 -95.5t-286 -31.5zM491 429q-18 0 -42.5 1.5t-46.5 3.5l-33 3l2 58q6 -1 13 -1.5t15 -1.5q10 18 22 34l-5 162h55l5 -106q18 13 37.5 20.5t39.5 7.5q38 0 60 -23t22 -57q0 -20 -11.5 -43.5 t-42.5 -40.5t-90 -17zM545 551q-18 0 -35 -11t-31.5 -26t-22.5 -26q16 -1 28 -1q49 0 71 10.5t22 27.5q0 14 -9 20t-23 6z" />
<glyph unicode="&#x679;" horiz-adv-x="299" arabic-form="initial" d="M151 535q-18 0 -42.5 1.5t-46.5 3.5l-33 3l2 58q6 -1 13 -1.5t15 -1.5q10 18 22 34l-5 162h55l5 -106q18 13 37.5 20.5t39.5 7.5q38 0 60 -23t22 -57q0 -20 -11.5 -43.5t-42.5 -40.5t-90 -17zM205 657q-18 0 -35 -11t-31.5 -26t-22.5 -26q16 -1 28 -1q49 0 71 10.5 t22 27.5q0 14 -9 20t-23 6zM0 -5l10 82q59 0 92 4.5t47 23t14 58.5q0 38 -17.5 95.5t-39.5 114.5l81 30q13 -32 24.5 -73t19.5 -81t8 -70q0 -100 -56 -142t-183 -42z" />
<glyph unicode="&#x679;" horiz-adv-x="343" arabic-form="medial" d="M0 -5l10 82q42 0 66 7.5t36.5 29t21.5 62.5t22 107l78 -15q-6 -27 -13.5 -62t-7.5 -59q0 -20 9 -36t39 -25t92 -9q21 0 30.5 -11.5t9.5 -27.5t-14 -29.5t-36 -13.5q-79 0 -117 17t-52 51q-30 -42 -69 -55t-105 -13zM190 414q-18 0 -42.5 1.5t-46.5 3.5l-33 3l2 58 q6 -1 13 -1.5t15 -1.5q10 18 22 34l-5 162h55l5 -106q18 13 37.5 20.5t39.5 7.5q38 0 60 -23t22 -57q0 -20 -11.5 -43.5t-42.5 -40.5t-90 -17zM244 536q-18 0 -35 -11t-31.5 -26t-22.5 -26q16 -1 28 -1q49 0 71 10.5t22 27.5q0 14 -9 20t-23 6z" />
<glyph unicode="&#x6a4;" horiz-adv-x="983" arabic-form="isolated" d="M0 -200h1000v1000h-1000v-1000z" />
<glyph unicode="&#x6a4;" horiz-adv-x="1098" arabic-form="final" d="M390 -21q-178 0 -269 47t-91 156q0 37 9 78.5t19 78.5l75 -19q-6 -22 -13.5 -55.5t-7.5 -59.5q0 -52 26.5 -83.5t92.5 -46t185 -14.5q110 0 197 6.5t141 15.5q-24 20 -47 54.5t-23 84.5q0 54 24.5 97.5t64.5 69.5t86 26q49 0 86 -27.5t57.5 -70t20.5 -87.5 q0 -47 -19 -83.5t-52 -63.5q41 -3 83 -4.5t73 -1.5q21 0 30.5 -11.5t9.5 -27.5t-14 -29.5t-36 -13.5q-129 0 -242 33q-16 -6 -34 -11q-30 -9 -95.5 -17.5t-153 -14.5t-183.5 -6zM766 220q0 -40 25.5 -67.5t56.5 -44.5q39 18 66 46.5t27 69.5q0 23 -11 48t-30 43t-44 18 q-24 0 -44.5 -17t-33 -43t-12.5 -53zM852 628q-21 0 -35.5 14.5t-14.5 34.5t14.5 35t35.5 15q20 0 34.5 -15t14.5 -35t-14.5 -34.5t-34.5 -14.5zM784 518q-21 0 -35.5 14.5t-14.5 34.5t14.5 35t35.5 15q20 0 34.5 -15t14.5 -35t-14.5 -34.5t-34.5 -14.5zM920 518 q-21 0 -35.5 14.5t-14.5 34.5t14.5 35t35.5 15q20 0 34.5 -15t14.5 -35t-14.5 -34.5t-34.5 -14.5z" />
<glyph unicode="&#x6a4;" horiz-adv-x="447" arabic-form="initial" d="M0 -5l10 82q33 0 75.5 0.5t82.5 4t63 11.5q32 11 51.5 28.5t29.5 45.5q-18 -6 -38.5 -8.5t-40.5 -2.5q-76 0 -117.5 36t-41.5 91q0 38 12 76.5t34 70.5t53 51.5t69 19.5q54 0 89.5 -35t53 -91.5t17.5 -119.5q0 -75 -25.5 -128.5t-84.5 -88.5q-31 -18 -77.5 -27.5 t-101.5 -12.5t-113 -3zM153 303q0 -31 20 -49.5t69 -18.5q43 0 82 12v14q0 42 -11 78t-31 58t-48 22q-23 0 -41.5 -17.5t-29 -44.5t-10.5 -54zM225 714q-21 0 -35.5 14.5t-14.5 34.5t14.5 35t35.5 15q20 0 34.5 -15t14.5 -35t-14.5 -34.5t-34.5 -14.5zM157 604 q-21 0 -35.5 14.5t-14.5 34.5t14.5 35t35.5 15q20 0 34.5 -15t14.5 -35t-14.5 -34.5t-34.5 -14.5zM293 604q-21 0 -35.5 14.5t-14.5 34.5t14.5 35t35.5 15q20 0 34.5 -15t14.5 -35t-14.5 -34.5t-34.5 -14.5z" />
<glyph unicode="&#x6a4;" horiz-adv-x="495" arabic-form="medial" d="M0 -5l10 82q34 0 70.5 1t70.5 5q-24 22 -47 57t-23 85q0 54 25 97t65 68t85 25q49 0 86 -27t57.5 -68.5t20.5 -86.5q0 -47 -19 -84t-51 -65q40 -3 82 -5t73 -2q21 0 30.5 -11.5t9.5 -27.5t-14 -29.5t-36 -13.5q-61 0 -127 9.5t-116 23.5q-16 -6 -33 -11 q-46 -13 -105 -17.5t-114 -4.5zM163 223q0 -39 24 -68.5t54 -47.5q41 18 69 48t28 72q0 23 -11 47.5t-30 41.5t-44 17q-24 0 -44.5 -16t-33 -41.5t-12.5 -52.5zM249 628q-21 0 -35.5 14.5t-14.5 34.5t14.5 35t35.5 15q20 0 34.5 -15t14.5 -35t-14.5 -34.5t-34.5 -14.5z M181 518q-21 0 -35.5 14.5t-14.5 34.5t14.5 35t35.5 15q20 0 34.5 -15t14.5 -35t-14.5 -34.5t-34.5 -14.5zM317 518q-21 0 -35.5 14.5t-14.5 34.5t14.5 35t35.5 15q20 0 34.5 -15t14.5 -35t-14.5 -34.5t-34.5 -14.5z" />
<glyph unicode="&#x6a6;" horiz-adv-x="983" arabic-form="isolated" d="M0 -200h1000v1000h-1000v-1000z" />
<glyph unicode="&#x6a6;" horiz-adv-x="1098" arabic-form="final" d="M390 -21q-178 0 -269 47t-91 156q0 37 9 78.5t19 78.5l75 -19q-6 -22 -13.5 -55.5t-7.5 -59.5q0 -52 26.5 -83.5t92.5 -46t185 -14.5q110 0 197 6.5t141 15.5q-24 20 -47 54.5t-23 84.5q0 54 24.5 97.5t64.5 69.5t86 26q49 0 86 -27.5t57.5 -70t20.5 -87.5 q0 -47 -19 -83.5t-52 -63.5q41 -3 83 -4.5t73 -1.5q21 0 30.5 -11.5t9.5 -27.5t-14 -29.5t-36 -13.5q-129 0 -242 33q-16 -6 -34 -11q-30 -9 -95.5 -17.5t-153 -14.5t-183.5 -6zM766 220q0 -40 25.5 -67.5t56.5 -44.5q39 18 66 46.5t27 69.5q0 23 -11 48t-30 43t-44 18 q-24 0 -44.5 -17t-33 -43t-12.5 -53zM784 643q-21 0 -35.5 14.5t-14.5 34.5t14.5 35t35.5 15q20 0 34.5 -15t14.5 -35t-14.5 -34.5t-34.5 -14.5zM920 643q-21 0 -35.5 14.5t-14.5 34.5t14.5 35t35.5 15q20 0 34.5 -15t14.5 -35t-14.5 -34.5t-34.5 -14.5zM784 518 q-21 0 -35.5 14.5t-14.5 34.5t14.5 35t35.5 15q20 0 34.5 -15t14.5 -35t-14.5 -34.5t-34.5 -14.5zM920 518q-21 0 -35.5 14.5t-14.5 34.5t14.5 35t35.5 15q20 0 34.5 -15t14.5 -35t-14.5 -34.5t-34.5 -14.5z" />
<glyph unicode="&#x6a6;" horiz-adv-x="447" arabic-form="initial" d="M0 -5l10 82q33 0 75.5 0.5t82.5 4t63 11.5q32 11 51.5 28.5t29.5 45.5q-18 -6 -38.5 -8.5t-40.5 -2.5q-76 0 -117.5 36t-41.5 91q0 38 12 76.5t34 70.5t53 51.5t69 19.5q54 0 89.5 -35t53 -91.5t17.5 -119.5q0 -75 -25.5 -128.5t-84.5 -88.5q-31 -18 -77.5 -27.5 t-101.5 -12.5t-113 -3zM153 303q0 -31 20 -49.5t69 -18.5q43 0 82 12v14q0 42 -11 78t-31 58t-48 22q-23 0 -41.5 -17.5t-29 -44.5t-10.5 -54zM157 729q-21 0 -35.5 14.5t-14.5 34.5t14.5 35t35.5 15q20 0 34.5 -15t14.5 -35t-14.5 -34.5t-34.5 -14.5zM293 729 q-21 0 -35.5 14.5t-14.5 34.5t14.5 35t35.5 15q20 0 34.5 -15t14.5 -35t-14.5 -34.5t-34.5 -14.5zM157 604q-21 0 -35.5 14.5t-14.5 34.5t14.5 35t35.5 15q20 0 34.5 -15t14.5 -35t-14.5 -34.5t-34.5 -14.5zM293 604q-21 0 -35.5 14.5t-14.5 34.5t14.5 35t35.5 15 q20 0 34.5 -15t14.5 -35t-14.5 -34.5t-34.5 -14.5z" />
<glyph unicode="&#x6a6;" horiz-adv-x="495" arabic-form="medial" d="M0 -5l10 82q34 0 70.5 1t70.5 5q-24 22 -47 57t-23 85q0 54 25 97t65 68t85 25q49 0 86 -27t57.5 -68.5t20.5 -86.5q0 -47 -19 -84t-51 -65q40 -3 82 -5t73 -2q21 0 30.5 -11.5t9.5 -27.5t-14 -29.5t-36 -13.5q-61 0 -127 9.5t-116 23.5q-16 -6 -33 -11 q-46 -13 -105 -17.5t-114 -4.5zM163 223q0 -39 24 -68.5t54 -47.5q41 18 69 48t28 72q0 23 -11 47.5t-30 41.5t-44 17q-24 0 -44.5 -16t-33 -41.5t-12.5 -52.5zM181 643q-21 0 -35.5 14.5t-14.5 34.5t14.5 35t35.5 15q20 0 34.5 -15t14.5 -35t-14.5 -34.5t-34.5 -14.5z M317 643q-21 0 -35.5 14.5t-14.5 34.5t14.5 35t35.5 15q20 0 34.5 -15t14.5 -35t-14.5 -34.5t-34.5 -14.5zM181 518q-21 0 -35.5 14.5t-14.5 34.5t14.5 35t35.5 15q20 0 34.5 -15t14.5 -35t-14.5 -34.5t-34.5 -14.5zM317 518q-21 0 -35.5 14.5t-14.5 34.5t14.5 35t35.5 15 q20 0 34.5 -15t14.5 -35t-14.5 -34.5t-34.5 -14.5z" />
<glyph unicode="&#x684;" horiz-adv-x="639" arabic-form="isolated" d="M0 -200h1000v1000h-1000v-1000z" />
<glyph unicode="&#x684;" horiz-adv-x="649" arabic-form="final" d="M360 -394q-70 0 -133.5 16t-112 49.5t-76.5 84.5t-28 120q0 92 43 171t123.5 139.5t191.5 97.5q-49 16 -102.5 32.5t-124.5 16.5q-30 0 -52.5 -5t-42.5 -10l-14 74q26 11 58.5 17.5t65.5 6.5q46 0 82 -8.5t68.5 -20.5t68.5 -24.5t80.5 -21t105.5 -9.5h9l2 -82 q-52 0 -109 -12q8 -56 26 -88.5t44.5 -48t58.5 -20t67 -4.5q21 0 30.5 -11.5t9.5 -27.5t-13.5 -29.5t-35.5 -13.5q-42 0 -84.5 6t-79 27t-60.5 66.5t-29 125.5q-58 -20 -113 -51t-98 -73t-68.5 -94.5t-25.5 -115.5q0 -70 38 -113.5t101.5 -63.5t138.5 -20q99 0 201 40 l28 -68q-58 -28 -119 -41.5t-120 -13.5zM321 -82q-21 0 -35.5 14.5t-14.5 34.5t14.5 35t35.5 15q20 0 34.5 -15t14.5 -35t-14.5 -34.5t-34.5 -14.5zM322 -210q-21 0 -35.5 14.5t-14.5 34.5t14.5 35t35.5 15q20 0 34.5 -15t14.5 -35t-14.5 -34.5t-34.5 -14.5z" />
<glyph unicode="&#x684;" horiz-adv-x="589" arabic-form="initial" d="M0 -5l9 82q104 0 200.5 31t176.5 86q-39 35 -95.5 55.5t-124.5 20.5q-25 0 -44 -2.5t-46 -8.5l-16 76q56 17 106 17q52 0 94 -12.5t76.5 -30.5t65 -36t59.5 -30.5t60 -12.5h21l7 -72q-51 0 -93 -16.5t-84.5 -40.5t-93 -48.5t-117.5 -41t-161 -16.5zM279 -187 q-21 0 -35.5 14.5t-14.5 34.5t14.5 35t35.5 15q20 0 34.5 -15t14.5 -35t-14.5 -34.5t-34.5 -14.5zM280 -316q-21 0 -35.5 14.5t-14.5 34.5t14.5 35t35.5 15q20 0 34.5 -15t14.5 -35t-14.5 -34.5t-34.5 -14.5z" />
<glyph unicode="&#x684;" horiz-adv-x="637" arabic-form="medial" d="M0 -5l9 82q104 0 200.5 31t176.5 86q-39 35 -95.5 55.5t-124.5 20.5q-25 0 -44 -2.5t-46 -8.5l-16 76q56 17 106 17q52 0 94 -12.5t76.5 -30.5t65 -36t59.5 -30.5t60 -12.5h21l7 -72q-31 0 -60 -7q19 -45 54 -59.5t104 -14.5q21 0 30.5 -11.5t9.5 -27.5t-14 -29.5 t-36 -13.5q-54 0 -96.5 9.5t-72.5 38t-44 85.5q-38 -18 -77.5 -40.5t-87.5 -43.5t-111 -35t-148 -14zM261 -187q-21 0 -35.5 14.5t-14.5 34.5t14.5 35t35.5 15q20 0 34.5 -15t14.5 -35t-14.5 -34.5t-34.5 -14.5zM262 -316q-21 0 -35.5 14.5t-14.5 34.5t14.5 35t35.5 15 q20 0 34.5 -15t14.5 -35t-14.5 -34.5t-34.5 -14.5z" />
<glyph unicode="&#x683;" horiz-adv-x="659" arabic-form="isolated" d="M0 -200h1000v1000h-1000v-1000z" />
<glyph unicode="&#x683;" horiz-adv-x="719" arabic-form="final" d="M380 -394q-70 0 -136.5 16t-119 49.5t-83.5 84.5t-31 120q0 92 48 171t133 139.5t197 97.5q-49 16 -105.5 32.5t-141.5 16.5q-30 0 -52.5 -5t-42.5 -10l-14 74q26 11 58.5 17.5t65.5 6.5q52 0 91.5 -8.5t74.5 -20.5t71.5 -24.5t81.5 -21t106 -9.5h9l2 -82q-29 0 -60 -4 q7 -58 25 -92.5t44.5 -50.5t59.5 -21t68 -5q21 0 30.5 -11.5t9.5 -27.5t-13.5 -29.5t-35.5 -13.5q-43 0 -86.5 6t-80.5 29t-60.5 71.5t-26.5 132.5q-66 -15 -132.5 -45.5t-121 -74.5t-87.5 -101t-33 -127q0 -52 25 -89.5t67.5 -61.5t96 -35t109.5 -11q99 0 201 40l28 -68 q-58 -28 -119 -41.5t-120 -13.5zM407 -146q-21 0 -35.5 14.5t-14.5 34.5t14.5 35t35.5 15q20 0 34.5 -15t14.5 -35t-14.5 -34.5t-34.5 -14.5zM270 -146q-21 0 -35.5 14.5t-14.5 34.5t14.5 35t35.5 15q20 0 34.5 -15t14.5 -35t-14.5 -34.5t-34.5 -14.5z" />
<glyph unicode="&#x683;" horiz-adv-x="589" arabic-form="initial" d="M0 -5l9 82q104 0 200.5 31t176.5 86q-39 35 -95.5 55.5t-124.5 20.5q-25 0 -44 -2.5t-46 -8.5l-16 76q56 17 106 17q52 0 94 -12.5t76.5 -30.5t65 -36t59.5 -30.5t60 -12.5h21l7 -72q-51 0 -93 -16.5t-84.5 -40.5t-93 -48.5t-117.5 -41t-161 -16.5zM351 -189 q-21 0 -35.5 14.5t-14.5 34.5t14.5 35t35.5 15q20 0 34.5 -15t14.5 -35t-14.5 -34.5t-34.5 -14.5zM214 -189q-21 0 -35.5 14.5t-14.5 34.5t14.5 35t35.5 15q20 0 34.5 -15t14.5 -35t-14.5 -34.5t-34.5 -14.5z" />
<glyph unicode="&#x683;" horiz-adv-x="637" arabic-form="medial" d="M0 -5l9 82q104 0 200.5 31t176.5 86q-39 35 -95.5 55.5t-124.5 20.5q-25 0 -44 -2.5t-46 -8.5l-16 76q56 17 106 17q52 0 94 -12.5t76.5 -30.5t65 -36t59.5 -30.5t60 -12.5h21l7 -72q-31 0 -60 -7q19 -45 54 -59.5t104 -14.5q21 0 30.5 -11.5t9.5 -27.5t-14 -29.5 t-36 -13.5q-54 0 -96.5 9.5t-72.5 38t-44 85.5q-38 -18 -77.5 -40.5t-87.5 -43.5t-111 -35t-148 -14zM333 -189q-21 0 -35.5 14.5t-14.5 34.5t14.5 35t35.5 15q20 0 34.5 -15t14.5 -35t-14.5 -34.5t-34.5 -14.5zM196 -189q-21 0 -35.5 14.5t-14.5 34.5t14.5 35t35.5 15 q20 0 34.5 -15t14.5 -35t-14.5 -34.5t-34.5 -14.5z" />
<glyph unicode="&#x686;" horiz-adv-x="659" arabic-form="isolated" d="M0 -200h1000v1000h-1000v-1000z" />
<glyph unicode="&#x686;" horiz-adv-x="719" arabic-form="final" d="M380 -394q-70 0 -136.5 16t-119 49.5t-83.5 84.5t-31 120q0 92 48 171t133 139.5t197 97.5q-49 16 -105.5 32.5t-141.5 16.5q-30 0 -52.5 -5t-42.5 -10l-14 74q26 11 58.5 17.5t65.5 6.5q52 0 91.5 -8.5t74.5 -20.5t71.5 -24.5t81.5 -21t106 -9.5h9l2 -82q-29 0 -60 -4 q7 -58 25 -92.5t44.5 -50.5t59.5 -21t68 -5q21 0 30.5 -11.5t9.5 -27.5t-13.5 -29.5t-35.5 -13.5q-43 0 -86.5 6t-80.5 29t-60.5 71.5t-26.5 132.5q-66 -15 -132.5 -45.5t-121 -74.5t-87.5 -101t-33 -127q0 -52 25 -89.5t67.5 -61.5t96 -35t109.5 -11q99 0 201 40l28 -68 q-58 -28 -119 -41.5t-120 -13.5zM271 -113q-21 0 -35.5 14.5t-14.5 34.5t14.5 35t35.5 15q20 0 34.5 -15t14.5 -35t-14.5 -34.5t-34.5 -14.5zM407 -113q-21 0 -35.5 14.5t-14.5 34.5t14.5 35t35.5 15q20 0 34.5 -15t14.5 -35t-14.5 -34.5t-34.5 -14.5zM339 -223 q-21 0 -35.5 14.5t-14.5 34.5t14.5 35t35.5 15q20 0 34.5 -15t14.5 -35t-14.5 -34.5t-34.5 -14.5z" />
<glyph unicode="&#x686;" horiz-adv-x="589" arabic-form="initial" d="M0 -5l9 82q104 0 200.5 31t176.5 86q-39 35 -95.5 55.5t-124.5 20.5q-25 0 -44 -2.5t-46 -8.5l-16 76q56 17 106 17q52 0 94 -12.5t76.5 -30.5t65 -36t59.5 -30.5t60 -12.5h21l7 -72q-51 0 -93 -16.5t-84.5 -40.5t-93 -48.5t-117.5 -41t-161 -16.5zM211 -189 q-21 0 -35.5 14.5t-14.5 34.5t14.5 35t35.5 15q20 0 34.5 -15t14.5 -35t-14.5 -34.5t-34.5 -14.5zM347 -189q-21 0 -35.5 14.5t-14.5 34.5t14.5 35t35.5 15q20 0 34.5 -15t14.5 -35t-14.5 -34.5t-34.5 -14.5zM279 -299q-21 0 -35.5 14.5t-14.5 34.5t14.5 35t35.5 15 q20 0 34.5 -15t14.5 -35t-14.5 -34.5t-34.5 -14.5z" />
<glyph unicode="&#x686;" horiz-adv-x="637" arabic-form="medial" d="M0 -5l9 82q104 0 200.5 31t176.5 86q-39 35 -95.5 55.5t-124.5 20.5q-25 0 -44 -2.5t-46 -8.5l-16 76q56 17 106 17q52 0 94 -12.5t76.5 -30.5t65 -36t59.5 -30.5t60 -12.5h21l7 -72q-31 0 -60 -7q19 -45 54 -59.5t104 -14.5q21 0 30.5 -11.5t9.5 -27.5t-14 -29.5 t-36 -13.5q-54 0 -96.5 9.5t-72.5 38t-44 85.5q-38 -18 -77.5 -40.5t-87.5 -43.5t-111 -35t-148 -14zM193 -189q-21 0 -35.5 14.5t-14.5 34.5t14.5 35t35.5 15q20 0 34.5 -15t14.5 -35t-14.5 -34.5t-34.5 -14.5zM329 -189q-21 0 -35.5 14.5t-14.5 34.5t14.5 35t35.5 15 q20 0 34.5 -15t14.5 -35t-14.5 -34.5t-34.5 -14.5zM261 -299q-21 0 -35.5 14.5t-14.5 34.5t14.5 35t35.5 15q20 0 34.5 -15t14.5 -35t-14.5 -34.5t-34.5 -14.5z" />
<glyph unicode="&#x687;" horiz-adv-x="659" arabic-form="isolated" d="M0 -200h1000v1000h-1000v-1000z" />
<glyph unicode="&#x687;" horiz-adv-x="719" arabic-form="final" d="M380 -394q-70 0 -136.5 16t-119 49.5t-83.5 84.5t-31 120q0 92 48 171t133 139.5t197 97.5q-49 16 -105.5 32.5t-141.5 16.5q-30 0 -52.5 -5t-42.5 -10l-14 74q26 11 58.5 17.5t65.5 6.5q52 0 91.5 -8.5t74.5 -20.5t71.5 -24.5t81.5 -21t106 -9.5h9l2 -82q-29 0 -60 -4 q7 -58 25 -92.5t44.5 -50.5t59.5 -21t68 -5q21 0 30.5 -11.5t9.5 -27.5t-13.5 -29.5t-35.5 -13.5q-43 0 -86.5 6t-80.5 29t-60.5 71.5t-26.5 132.5q-66 -15 -132.5 -45.5t-121 -74.5t-87.5 -101t-33 -127q0 -52 25 -89.5t67.5 -61.5t96 -35t109.5 -11q99 0 201 40l28 -68 q-58 -28 -119 -41.5t-120 -13.5zM271 -98q-21 0 -35.5 14.5t-14.5 34.5t14.5 35t35.5 15q20 0 34.5 -15t14.5 -35t-14.5 -34.5t-34.5 -14.5zM407 -98q-21 0 -35.5 14.5t-14.5 34.5t14.5 35t35.5 15q20 0 34.5 -15t14.5 -35t-14.5 -34.5t-34.5 -14.5zM271 -223 q-21 0 -35.5 14.5t-14.5 34.5t14.5 35t35.5 15q20 0 34.5 -15t14.5 -35t-14.5 -34.5t-34.5 -14.5zM407 -223q-21 0 -35.5 14.5t-14.5 34.5t14.5 35t35.5 15q20 0 34.5 -15t14.5 -35t-14.5 -34.5t-34.5 -14.5z" />
<glyph unicode="&#x687;" horiz-adv-x="589" arabic-form="initial" d="M0 -5l9 82q104 0 200.5 31t176.5 86q-39 35 -95.5 55.5t-124.5 20.5q-25 0 -44 -2.5t-46 -8.5l-16 76q56 17 106 17q52 0 94 -12.5t76.5 -30.5t65 -36t59.5 -30.5t60 -12.5h21l7 -72q-51 0 -93 -16.5t-84.5 -40.5t-93 -48.5t-117.5 -41t-161 -16.5zM351 -187 q-21 0 -35.5 14.5t-14.5 34.5t14.5 35t35.5 15q20 0 34.5 -15t14.5 -35t-14.5 -34.5t-34.5 -14.5zM215 -187q-21 0 -35.5 14.5t-14.5 34.5t14.5 35t35.5 15q20 0 34.5 -15t14.5 -35t-14.5 -34.5t-34.5 -14.5zM351 -312q-21 0 -35.5 14.5t-14.5 34.5t14.5 35t35.5 15 q20 0 34.5 -15t14.5 -35t-14.5 -34.5t-34.5 -14.5zM215 -312q-21 0 -35.5 14.5t-14.5 34.5t14.5 35t35.5 15q20 0 34.5 -15t14.5 -35t-14.5 -34.5t-34.5 -14.5z" />
<glyph unicode="&#x687;" horiz-adv-x="637" arabic-form="medial" d="M0 -5l9 82q104 0 200.5 31t176.5 86q-39 35 -95.5 55.5t-124.5 20.5q-25 0 -44 -2.5t-46 -8.5l-16 76q56 17 106 17q52 0 94 -12.5t76.5 -30.5t65 -36t59.5 -30.5t60 -12.5h21l7 -72q-31 0 -60 -7q19 -45 54 -59.5t104 -14.5q21 0 30.5 -11.5t9.5 -27.5t-14 -29.5 t-36 -13.5q-54 0 -96.5 9.5t-72.5 38t-44 85.5q-38 -18 -77.5 -40.5t-87.5 -43.5t-111 -35t-148 -14zM333 -187q-21 0 -35.5 14.5t-14.5 34.5t14.5 35t35.5 15q20 0 34.5 -15t14.5 -35t-14.5 -34.5t-34.5 -14.5zM197 -187q-21 0 -35.5 14.5t-14.5 34.5t14.5 35t35.5 15 q20 0 34.5 -15t14.5 -35t-14.5 -34.5t-34.5 -14.5zM333 -312q-21 0 -35.5 14.5t-14.5 34.5t14.5 35t35.5 15q20 0 34.5 -15t14.5 -35t-14.5 -34.5t-34.5 -14.5zM197 -312q-21 0 -35.5 14.5t-14.5 34.5t14.5 35t35.5 15q20 0 34.5 -15t14.5 -35t-14.5 -34.5t-34.5 -14.5z" />
<glyph unicode="&#x68d;" horiz-adv-x="477" arabic-form="isolated" d="M0 -200h1000v1000h-1000v-1000z" />
<glyph unicode="&#x68d;" horiz-adv-x="532" arabic-form="final" d="M215 77q74 0 105 22.5t31 62.5q0 26 -18 67t-47.5 91.5t-65.5 103.5l69 45q58 -89 94.5 -162.5t54.5 -132.5q14 -44 31.5 -65t36.5 -26.5t35 -5.5q21 0 31 -11.5t10 -27.5t-14 -29.5t-36 -13.5q-39 0 -75 17t-58 58q-20 -33 -63.5 -54.5t-120.5 -21.5q-55 0 -102 13.5 t-78 37.5l40 69q20 -13 56 -25t84 -12zM306 -194q-21 0 -35.5 14.5t-14.5 34.5t14.5 35t35.5 15q20 0 34.5 -15t14.5 -35t-14.5 -34.5t-34.5 -14.5zM169 -194q-21 0 -35.5 14.5t-14.5 34.5t14.5 35t35.5 15q20 0 34.5 -15t14.5 -35t-14.5 -34.5t-34.5 -14.5z" />
<glyph unicode="&#x68c;" horiz-adv-x="477" arabic-form="isolated" d="M0 -200h1000v1000h-1000v-1000z" />
<glyph unicode="&#x68c;" horiz-adv-x="532" arabic-form="final" d="M215 77q74 0 105 22.5t31 62.5q0 26 -18 67t-47.5 91.5t-65.5 103.5l69 45q58 -89 94.5 -162.5t54.5 -132.5q14 -44 31.5 -65t36.5 -26.5t35 -5.5q21 0 31 -11.5t10 -27.5t-14 -29.5t-36 -13.5q-39 0 -75 17t-58 58q-20 -33 -63.5 -54.5t-120.5 -21.5q-55 0 -102 13.5 t-78 37.5l40 69q20 -13 56 -25t84 -12zM291 560q-21 0 -35.5 14.5t-14.5 34.5t14.5 35t35.5 15q20 0 34.5 -15t14.5 -35t-14.5 -34.5t-34.5 -14.5zM154 560q-21 0 -35.5 14.5t-14.5 34.5t14.5 35t35.5 15q20 0 34.5 -15t14.5 -35t-14.5 -34.5t-34.5 -14.5z" />
<glyph unicode="&#x68e;" horiz-adv-x="477" arabic-form="isolated" d="M0 -200h1000v1000h-1000v-1000z" />
<glyph unicode="&#x68e;" horiz-adv-x="532" arabic-form="final" d="M215 77q74 0 105 22.5t31 62.5q0 26 -18 67t-47.5 91.5t-65.5 103.5l69 45q58 -89 94.5 -162.5t54.5 -132.5q14 -44 31.5 -65t36.5 -26.5t35 -5.5q21 0 31 -11.5t10 -27.5t-14 -29.5t-36 -13.5q-39 0 -75 17t-58 58q-20 -33 -63.5 -54.5t-120.5 -21.5q-55 0 -102 13.5 t-78 37.5l40 69q20 -13 56 -25t84 -12zM223 670q-21 0 -35.5 14.5t-14.5 34.5t14.5 35t35.5 15q20 0 34.5 -15t14.5 -35t-14.5 -34.5t-34.5 -14.5zM155 560q-21 0 -35.5 14.5t-14.5 34.5t14.5 35t35.5 15q20 0 34.5 -15t14.5 -35t-14.5 -34.5t-34.5 -14.5zM291 560 q-21 0 -35.5 14.5t-14.5 34.5t14.5 35t35.5 15q20 0 34.5 -15t14.5 -35t-14.5 -34.5t-34.5 -14.5z" />
<glyph unicode="&#x688;" horiz-adv-x="477" arabic-form="isolated" d="M0 -200h1000v1000h-1000v-1000z" />
<glyph unicode="&#x688;" horiz-adv-x="532" arabic-form="final" d="M215 77q74 0 105 22.5t31 62.5q0 26 -18 67t-47.5 91.5t-65.5 103.5l69 45q58 -89 94.5 -162.5t54.5 -132.5q14 -44 31.5 -65t36.5 -26.5t35 -5.5q21 0 31 -11.5t10 -27.5t-14 -29.5t-36 -13.5q-39 0 -75 17t-58 58q-20 -33 -63.5 -54.5t-120.5 -21.5q-55 0 -102 13.5 t-78 37.5l40 69q20 -13 56 -25t84 -12zM224 588q-18 0 -42.5 1.5t-46.5 3.5l-33 3l2 58q6 -1 13 -1.5t15 -1.5q10 18 22 34l-5 162h55l5 -106q18 13 37.5 20.5t39.5 7.5q38 0 60 -23t22 -57q0 -20 -11.5 -43.5t-42.5 -40.5t-90 -17zM278 710q-18 0 -35 -11t-31.5 -26 t-22.5 -26q16 -1 28 -1q49 0 71 10.5t22 27.5q0 14 -9 20t-23 6z" />
<glyph unicode="&#x698;" horiz-adv-x="367" arabic-form="isolated" d="M0 -200h1000v1000h-1000v-1000z" />
<glyph unicode="&#x698;" horiz-adv-x="396" arabic-form="final" d="M4 -232l-29 76q97 32 151.5 76t77 92.5t22.5 94.5q0 49 -21.5 99.5t-47.5 95.5l73 37q28 -53 47.5 -102t30.5 -86q14 -43 36.5 -58.5t61.5 -15.5q21 0 30.5 -11.5t9.5 -27.5t-14 -29.5t-36 -13.5q-38 0 -63.5 12t-41.5 32q-10 -56 -42 -102t-75 -80.5t-88 -56.5t-82 -32z M165 564q-21 0 -35.5 14.5t-14.5 34.5t14.5 35t35.5 15q20 0 34.5 -15t14.5 -35t-14.5 -34.5t-34.5 -14.5zM97 454q-21 0 -35.5 14.5t-14.5 34.5t14.5 35t35.5 15q20 0 34.5 -15t14.5 -35t-14.5 -34.5t-34.5 -14.5zM233 454q-21 0 -35.5 14.5t-14.5 34.5t14.5 35t35.5 15 q20 0 34.5 -15t14.5 -35t-14.5 -34.5t-34.5 -14.5z" />
<glyph unicode="&#x691;" horiz-adv-x="367" arabic-form="isolated" d="M0 -200h1000v1000h-1000v-1000z" />
<glyph unicode="&#x691;" horiz-adv-x="396" arabic-form="final" d="M4 -232l-29 76q97 32 151.5 76t77 92.5t22.5 94.5q0 49 -21.5 99.5t-47.5 95.5l73 37q28 -53 47.5 -102t30.5 -86q14 -43 36.5 -58.5t61.5 -15.5q21 0 30.5 -11.5t9.5 -27.5t-14 -29.5t-36 -13.5q-38 0 -63.5 12t-41.5 32q-10 -56 -42 -102t-75 -80.5t-88 -56.5t-82 -32z M166 482q-18 0 -42.5 1.5t-46.5 3.5l-33 3l2 58q6 -1 13 -1.5t15 -1.5q10 18 22 34l-5 162h55l5 -106q18 13 37.5 20.5t39.5 7.5q38 0 60 -23t22 -57q0 -20 -11.5 -43.5t-42.5 -40.5t-90 -17zM220 604q-18 0 -35 -11t-31.5 -26t-22.5 -26q16 -1 28 -1q49 0 71 10.5t22 27.5 q0 14 -9 20t-23 6z" />
<glyph unicode="&#x6a9;" horiz-adv-x="877" arabic-form="isolated" d="M0 -200h1000v1000h-1000v-1000z" />
<glyph unicode="&#x6a9;" horiz-adv-x="975" arabic-form="final" d="M390 -21q-178 0 -269 47t-91 156q0 37 9 78.5t19 78.5l75 -19q-6 -22 -13.5 -55.5t-7.5 -59.5q0 -52 26.5 -83.5t92.5 -46t185 -14.5q125 0 196 13t100.5 32t29.5 35q0 24 -18 53t-46 59.5t-59.5 60.5t-59.5 55t-46 43.5t-18 26.5q0 23 5.5 43t15.5 31q27 29 79.5 60.5 t120.5 65t139 68.5l34 -74q-88 -44 -172.5 -85t-147.5 -85q55 -47 103 -91t89 -94.5t75 -114.5q21 -39 49 -57t55.5 -23.5t44.5 -5.5q21 0 30.5 -11.5t9.5 -27.5t-14 -29.5t-36 -13.5q-24 0 -56 6.5t-63.5 25t-55.5 54.5q-17 -22 -45 -41t-74.5 -32.5t-117.5 -21t-173 -7.5z " />
<glyph unicode="&#x6a9;" horiz-adv-x="412" arabic-form="initial" d="M0 -5l10 82h94q59 0 93.5 6.5t51 17t22 23t5.5 25.5q0 23 -17.5 57t-71.5 88q-37 38 -74 67t-61 49t-24 29q0 23 5.5 43t15.5 31q40 43 125.5 86.5t213.5 107.5l34 -74q-91 -44 -148.5 -72.5t-95 -50t-69.5 -43.5q117 -95 179.5 -170.5t62.5 -152.5q0 -22 -8 -48t-34 -49 t-78 -37.5t-140 -14.5h-91z" />
<glyph unicode="&#x6a9;" horiz-adv-x="508" arabic-form="medial" d="M0 -5l10 82h77q83 0 123 9t52.5 24t12.5 31q0 24 -18 53t-46 59.5t-59.5 60.5t-59.5 55t-46 43.5t-18 26.5q0 23 5.5 43t15.5 31q27 29 79.5 60.5t120.5 65t139 68.5l34 -74q-88 -44 -172.5 -85t-147.5 -85q55 -47 103 -91t89 -94.5t75 -114.5q21 -39 49 -57t55.5 -23.5 t44.5 -5.5q21 0 30.5 -11.5t9.5 -27.5t-14 -29.5t-36 -13.5q-24 0 -55.5 6.5t-63.5 25t-56 54.5q-20 -29 -50 -48t-78 -28.5t-122 -9.5h-83z" />
<glyph unicode="&#x6af;" horiz-adv-x="877" arabic-form="isolated" d="M0 -200h1000v1000h-1000v-1000z" />
<glyph unicode="&#x6af;" horiz-adv-x="975" arabic-form="final" d="M462 550l-37 56q58 35 152.5 91.5t223.5 123.5l28 -61q-130 -69 -218 -120.5t-149 -89.5zM390 -21q-178 0 -269 47t-91 156q0 37 9 78.5t19 78.5l75 -19q-6 -22 -13.5 -55.5t-7.5 -59.5q0 -52 26.5 -83.5t92.5 -46t185 -14.5q125 0 196 13t100.5 32t29.5 35q0 24 -18 53 t-46 59.5t-59.5 60.5t-59.5 55t-46 43.5t-18 26.5q0 23 5.5 43t15.5 31q27 29 79.5 60.5t120.5 65t139 68.5l34 -74q-88 -44 -172.5 -85t-147.5 -85q55 -47 103 -91t89 -94.5t75 -114.5q21 -39 49 -57t55.5 -23.5t44.5 -5.5q21 0 30.5 -11.5t9.5 -27.5t-14 -29.5t-36 -13.5 q-24 0 -56 6.5t-63.5 25t-55.5 54.5q-17 -22 -45 -41t-74.5 -32.5t-117.5 -21t-173 -7.5z" />
<glyph unicode="&#x6af;" horiz-adv-x="412" arabic-form="initial" d="M-1 550l-37 56q58 35 152.5 91.5t223.5 123.5l28 -61q-130 -69 -218 -120.5t-149 -89.5zM0 -5l10 82h94q59 0 93.5 6.5t51 17t22 23t5.5 25.5q0 23 -17.5 57t-71.5 88q-37 38 -74 67t-61 49t-24 29q0 23 5.5 43t15.5 31q40 43 125.5 86.5t213.5 107.5l34 -74 q-91 -44 -148.5 -72.5t-95 -50t-69.5 -43.5q117 -95 179.5 -170.5t62.5 -152.5q0 -22 -8 -48t-34 -49t-78 -37.5t-140 -14.5h-91z" />
<glyph unicode="&#x6af;" horiz-adv-x="508" arabic-form="medial" d="M-1 550l-37 56q58 35 152.5 91.5t223.5 123.5l28 -61q-130 -69 -218 -120.5t-149 -89.5zM0 -5l10 82h77q83 0 123 9t52.5 24t12.5 31q0 24 -18 53t-46 59.5t-59.5 60.5t-59.5 55t-46 43.5t-18 26.5q0 23 5.5 43t15.5 31q27 29 79.5 60.5t120.5 65t139 68.5l34 -74 q-88 -44 -172.5 -85t-147.5 -85q55 -47 103 -91t89 -94.5t75 -114.5q21 -39 49 -57t55.5 -23.5t44.5 -5.5q21 0 30.5 -11.5t9.5 -27.5t-14 -29.5t-36 -13.5q-24 0 -55.5 6.5t-63.5 25t-56 54.5q-20 -29 -50 -48t-78 -28.5t-122 -9.5h-83z" />
<glyph unicode="&#x6b3;" horiz-adv-x="877" arabic-form="isolated" d="M0 -200h1000v1000h-1000v-1000z" />
<glyph unicode="&#x6b3;" horiz-adv-x="975" arabic-form="final" d="M462 550l-37 56q58 35 152.5 91.5t223.5 123.5l28 -61q-130 -69 -218 -120.5t-149 -89.5zM390 -21q-178 0 -269 47t-91 156q0 37 9 78.5t19 78.5l75 -19q-6 -22 -13.5 -55.5t-7.5 -59.5q0 -52 26.5 -83.5t92.5 -46t185 -14.5q125 0 196 13t100.5 32t29.5 35q0 24 -18 53 t-46 59.5t-59.5 60.5t-59.5 55t-46 43.5t-18 26.5q0 23 5.5 43t15.5 31q27 29 79.5 60.5t120.5 65t139 68.5l34 -74q-88 -44 -172.5 -85t-147.5 -85q55 -47 103 -91t89 -94.5t75 -114.5q21 -39 49 -57t55.5 -23.5t44.5 -5.5q21 0 30.5 -11.5t9.5 -27.5t-14 -29.5t-36 -13.5 q-24 0 -56 6.5t-63.5 25t-55.5 54.5q-17 -22 -45 -41t-74.5 -32.5t-117.5 -21t-173 -7.5zM410 -208q-21 0 -35.5 14.5t-14.5 34.5t14.5 35t35.5 15q20 0 34.5 -15t14.5 -35t-14.5 -34.5t-34.5 -14.5zM411 -337q-21 0 -35.5 14.5t-14.5 34.5t14.5 35t35.5 15q20 0 34.5 -15 t14.5 -35t-14.5 -34.5t-34.5 -14.5z" />
<glyph unicode="&#x6b3;" horiz-adv-x="412" arabic-form="initial" d="M-1 550l-37 56q58 35 152.5 91.5t223.5 123.5l28 -61q-130 -69 -218 -120.5t-149 -89.5zM0 -5l10 82h94q59 0 93.5 6.5t51 17t22 23t5.5 25.5q0 23 -17.5 57t-71.5 88q-37 38 -74 67t-61 49t-24 29q0 23 5.5 43t15.5 31q40 43 125.5 86.5t213.5 107.5l34 -74 q-91 -44 -148.5 -72.5t-95 -50t-69.5 -43.5q117 -95 179.5 -170.5t62.5 -152.5q0 -22 -8 -48t-34 -49t-78 -37.5t-140 -14.5h-91zM163 -187q-21 0 -35.5 14.5t-14.5 34.5t14.5 35t35.5 15q20 0 34.5 -15t14.5 -35t-14.5 -34.5t-34.5 -14.5zM164 -316q-21 0 -35.5 14.5 t-14.5 34.5t14.5 35t35.5 15q20 0 34.5 -15t14.5 -35t-14.5 -34.5t-34.5 -14.5z" />
<glyph unicode="&#x6b3;" horiz-adv-x="508" arabic-form="medial" d="M-1 550l-37 56q58 35 152.5 91.5t223.5 123.5l28 -61q-130 -69 -218 -120.5t-149 -89.5zM0 -5l10 82h77q83 0 123 9t52.5 24t12.5 31q0 24 -18 53t-46 59.5t-59.5 60.5t-59.5 55t-46 43.5t-18 26.5q0 23 5.5 43t15.5 31q27 29 79.5 60.5t120.5 65t139 68.5l34 -74 q-88 -44 -172.5 -85t-147.5 -85q55 -47 103 -91t89 -94.5t75 -114.5q21 -39 49 -57t55.5 -23.5t44.5 -5.5q21 0 30.5 -11.5t9.5 -27.5t-14 -29.5t-36 -13.5q-24 0 -55.5 6.5t-63.5 25t-56 54.5q-20 -29 -50 -48t-78 -28.5t-122 -9.5h-83zM163 -187q-21 0 -35.5 14.5 t-14.5 34.5t14.5 35t35.5 15q20 0 34.5 -15t14.5 -35t-14.5 -34.5t-34.5 -14.5zM164 -316q-21 0 -35.5 14.5t-14.5 34.5t14.5 35t35.5 15q20 0 34.5 -15t14.5 -35t-14.5 -34.5t-34.5 -14.5z" />
<glyph unicode="&#x6b1;" horiz-adv-x="877" arabic-form="isolated" d="M0 -200h1000v1000h-1000v-1000z" />
<glyph unicode="&#x6b1;" horiz-adv-x="975" arabic-form="final" d="M639 801q-21 0 -35.5 14.5t-14.5 34.5t14.5 35t35.5 15q20 0 34.5 -15t14.5 -35t-14.5 -34.5t-34.5 -14.5zM524 748q-21 0 -35.5 14.5t-14.5 34.5t14.5 35t35.5 15q20 0 34.5 -15t14.5 -35t-14.5 -34.5t-34.5 -14.5zM462 550l-37 56q58 35 152.5 91.5t223.5 123.5l28 -61 q-130 -69 -218 -120.5t-149 -89.5zM390 -21q-178 0 -269 47t-91 156q0 37 9 78.5t19 78.5l75 -19q-6 -22 -13.5 -55.5t-7.5 -59.5q0 -52 26.5 -83.5t92.5 -46t185 -14.5q125 0 196 13t100.5 32t29.5 35q0 24 -18 53t-46 59.5t-59.5 60.5t-59.5 55t-46 43.5t-18 26.5 q0 23 5.5 43t15.5 31q27 29 79.5 60.5t120.5 65t139 68.5l34 -74q-88 -44 -172.5 -85t-147.5 -85q55 -47 103 -91t89 -94.5t75 -114.5q21 -39 49 -57t55.5 -23.5t44.5 -5.5q21 0 30.5 -11.5t9.5 -27.5t-14 -29.5t-36 -13.5q-24 0 -56 6.5t-63.5 25t-55.5 54.5 q-17 -22 -45 -41t-74.5 -32.5t-117.5 -21t-173 -7.5z" />
<glyph unicode="&#x6b1;" horiz-adv-x="412" arabic-form="initial" d="M187 799q-21 0 -35.5 14.5t-14.5 34.5t14.5 35t35.5 15q20 0 34.5 -15t14.5 -35t-14.5 -34.5t-34.5 -14.5zM72 746q-21 0 -35.5 14.5t-14.5 34.5t14.5 35t35.5 15q20 0 34.5 -15t14.5 -35t-14.5 -34.5t-34.5 -14.5zM-1 550l-37 56q58 35 152.5 91.5t223.5 123.5l28 -61 q-130 -69 -218 -120.5t-149 -89.5zM0 -5l10 82h94q59 0 93.5 6.5t51 17t22 23t5.5 25.5q0 23 -17.5 57t-71.5 88q-37 38 -74 67t-61 49t-24 29q0 23 5.5 43t15.5 31q40 43 125.5 86.5t213.5 107.5l34 -74q-91 -44 -148.5 -72.5t-95 -50t-69.5 -43.5q117 -95 179.5 -170.5 t62.5 -152.5q0 -22 -8 -48t-34 -49t-78 -37.5t-140 -14.5h-91z" />
<glyph unicode="&#x6b1;" horiz-adv-x="508" arabic-form="medial" d="M182 799q-21 0 -35.5 14.5t-14.5 34.5t14.5 35t35.5 15q20 0 34.5 -15t14.5 -35t-14.5 -34.5t-34.5 -14.5zM67 746q-21 0 -35.5 14.5t-14.5 34.5t14.5 35t35.5 15q20 0 34.5 -15t14.5 -35t-14.5 -34.5t-34.5 -14.5zM-1 550l-37 56q58 35 152.5 91.5t223.5 123.5l28 -61 q-130 -69 -218 -120.5t-149 -89.5zM0 -5l10 82h77q83 0 123 9t52.5 24t12.5 31q0 24 -18 53t-46 59.5t-59.5 60.5t-59.5 55t-46 43.5t-18 26.5q0 23 5.5 43t15.5 31q27 29 79.5 60.5t120.5 65t139 68.5l34 -74q-88 -44 -172.5 -85t-147.5 -85q55 -47 103 -91t89 -94.5 t75 -114.5q21 -39 49 -57t55.5 -23.5t44.5 -5.5q21 0 30.5 -11.5t9.5 -27.5t-14 -29.5t-36 -13.5q-24 0 -55.5 6.5t-63.5 25t-56 54.5q-20 -29 -50 -48t-78 -28.5t-122 -9.5h-83z" />
<glyph unicode="&#x6ba;" horiz-adv-x="685" arabic-form="isolated" d="M0 -200h1000v1000h-1000v-1000z" />
<glyph unicode="&#x6ba;" horiz-adv-x="730" arabic-form="final" d="M30 -1q0 36 10 80t32 97l72 -28q-16 -42 -24 -77t-8 -65q0 -55 27.5 -89.5t74 -50.5t102.5 -16q91 0 142.5 25.5t73 65.5t21.5 85q0 66 -14.5 121.5t-31.5 114.5l81 22q16 -57 22.5 -82.5t10.5 -41.5q11 -37 29 -54.5t41.5 -23t48.5 -5.5q21 0 30.5 -11.5t9.5 -27.5 t-14 -29.5t-36 -13.5q-31 0 -54.5 8.5t-39.5 21.5q-5 -49 -23 -95t-54.5 -82.5t-96.5 -58t-149 -21.5q-75 0 -139.5 25t-104 76.5t-39.5 129.5z" />
<glyph unicode="&#x6bb;" horiz-adv-x="685" arabic-form="isolated" d="M0 -200h1000v1000h-1000v-1000z" />
<glyph unicode="&#x6bb;" horiz-adv-x="730" arabic-form="final" d="M30 -1q0 36 10 80t32 97l72 -28q-16 -42 -24 -77t-8 -65q0 -55 27.5 -89.5t74 -50.5t102.5 -16q91 0 142.5 25.5t73 65.5t21.5 85q0 66 -14.5 121.5t-31.5 114.5l81 22q16 -57 22.5 -82.5t10.5 -41.5q11 -37 29 -54.5t41.5 -23t48.5 -5.5q21 0 30.5 -11.5t9.5 -27.5 t-14 -29.5t-36 -13.5q-31 0 -54.5 8.5t-39.5 21.5q-5 -49 -23 -95t-54.5 -82.5t-96.5 -58t-149 -21.5q-75 0 -139.5 25t-104 76.5t-39.5 129.5zM335 426q-18 0 -42.5 1.5t-46.5 3.5l-33 3l2 58q6 -1 13 -1.5t15 -1.5q10 18 22 34l-5 162h55l5 -106q18 13 37.5 20.5t39.5 7.5 q38 0 60 -23t22 -57q0 -20 -11.5 -43.5t-42.5 -40.5t-90 -17zM389 548q-18 0 -35 -11t-31.5 -26t-22.5 -26q16 -1 28 -1q49 0 71 10.5t22 27.5q0 14 -9 20t-23 6z" />
<glyph unicode="&#x6bb;" horiz-adv-x="299" arabic-form="initial" d="M151 535q-18 0 -42.5 1.5t-46.5 3.5l-33 3l2 58q6 -1 13 -1.5t15 -1.5q10 18 22 34l-5 162h55l5 -106q18 13 37.5 20.5t39.5 7.5q38 0 60 -23t22 -57q0 -20 -11.5 -43.5t-42.5 -40.5t-90 -17zM205 657q-18 0 -35 -11t-31.5 -26t-22.5 -26q16 -1 28 -1q49 0 71 10.5 t22 27.5q0 14 -9 20t-23 6zM0 -5l10 82q59 0 92 4.5t47 23t14 58.5q0 38 -17.5 95.5t-39.5 114.5l81 30q13 -32 24.5 -73t19.5 -81t8 -70q0 -100 -56 -142t-183 -42z" />
<glyph unicode="&#x6bb;" horiz-adv-x="343" arabic-form="medial" d="M0 -5l10 82q42 0 66 7.5t36.5 29t21.5 62.5t22 107l78 -15q-6 -27 -13.5 -62t-7.5 -59q0 -20 9 -36t39 -25t92 -9q21 0 30.5 -11.5t9.5 -27.5t-14 -29.5t-36 -13.5q-79 0 -117 17t-52 51q-30 -42 -69 -55t-105 -13zM190 414q-18 0 -42.5 1.5t-46.5 3.5l-33 3l2 58 q6 -1 13 -1.5t15 -1.5q10 18 22 34l-5 162h55l5 -106q18 13 37.5 20.5t39.5 7.5q38 0 60 -23t22 -57q0 -20 -11.5 -43.5t-42.5 -40.5t-90 -17zM244 536q-18 0 -35 -11t-31.5 -26t-22.5 -26q16 -1 28 -1q49 0 71 10.5t22 27.5q0 14 -9 20t-23 6z" />
<glyph unicode="&#x6c0;" horiz-adv-x="405" arabic-form="isolated" d="M0 -200h1000v1000h-1000v-1000z" />
<glyph unicode="&#x6c0;" horiz-adv-x="486" arabic-form="final" d="M486 -5q-65 0 -111.5 22t-65.5 81q-54 -13 -103.5 -10.5t-89.5 19t-63 46t-23 70.5q0 54 34 98.5t92 75.5t128 43l-3 76h81l16 -330q3 -47 17 -70.5t39.5 -31t61.5 -7.5q21 0 30.5 -11.5t9.5 -27.5t-14 -29.5t-36 -13.5zM109 236q0 -23 18.5 -38t47.5 -22t61.5 -7t60.5 5 l-9 183q-57 -6 -97 -25.5t-61 -45t-21 -50.5zM210 227v-56h-74l26 -54v-1l1 -2q11 -24 0 -39q-10 -15 -35 -15h-110v56h82l-26 54l-6 18q-1 14 5 23q12 15 37 16h100z" />
<glyph unicode="&#x6c1;" horiz-adv-x="405" arabic-form="isolated" d="M0 -200h1000v1000h-1000v-1000z" />
<glyph unicode="&#x6c1;" horiz-adv-x="479" arabic-form="final" d="M479 -5q-57 0 -91.5 17t-56 47.5t-37.5 72.5t-34 91q-4 13 -19 18t-32 5q-26 0 -51.5 -11t-42 -33t-16.5 -54q0 -28 8.5 -53.5t19.5 -57.5l-72 -20q-13 35 -24 65.5t-11 73.5q0 55 31 93.5t78 58.5t94 20q17 0 36.5 -3t36 -14.5t24.5 -36.5q16 -45 28.5 -81.5t28.5 -62.5 t42.5 -39.5t69.5 -13.5q21 0 30.5 -11.5t9.5 -27.5t-14 -29.5t-36 -13.5z" />
<glyph unicode="&#x6c1;" horiz-adv-x="269" arabic-form="initial" d="M0 -5l10 82q49 0 78 6t42 24.5t13 55.5q0 38 -17.5 95.5t-39.5 114.5l81 30q13 -32 24.5 -73t19.5 -81t8 -70q0 -100 -53.5 -142t-165.5 -42zM136 -27l26 -26q-43 -24 -44 -61h3q18 0 30 -8.5t12 -24.5q0 -13 -10 -27t-33 -14q-19 0 -32.5 14t-13.5 42q0 25 14.5 57 t47.5 48z" />
<glyph unicode="&#x6c1;" horiz-adv-x="438" arabic-form="medial" d="M251 -269q-46 32 -76.5 83t-47 108.5t-20.5 106.5q-30 -34 -107 -34l9 82q16 0 36.5 3.5t41 19.5t35.5 56l67 -17q-14 -53 -11 -107.5t21 -103t48 -83.5q0 70 18.5 122t62.5 81t120 29q20 0 30 -11.5t10 -27.5t-13.5 -29.5t-34.5 -13.5q-55 0 -83 -22.5t-37.5 -69 t-9.5 -118.5z" />
<glyph unicode="&#x6be;" horiz-adv-x="672" arabic-form="isolated" d="M0 -200h1000v1000h-1000v-1000z" />
<glyph unicode="&#x6be;" horiz-adv-x="614" arabic-form="final" d="M152 -5q-38 0 -71 8t-66 23l23 67q34 -11 65 -15.5t65 -4.5h22q3 76 22.5 139t49.5 108.5t65.5 70.5t71.5 25q49 0 84 -43t35 -122q0 -37 -14 -78.5t-53 -74.5q40 -9 82.5 -15t90.5 -6q21 0 30.5 -11.5t9.5 -27.5t-14 -29.5t-36 -13.5q-34 0 -77 5q23 -34 25.5 -71.5 t-14 -70.5t-50 -54t-84.5 -21q-86 0 -148 53t-74 161q-21 -2 -40 -2zM392 334q-20 0 -47 -32t-49 -88.5t-26 -129.5q48 7 85.5 24.5t59 49.5t21.5 84q0 21 -4.5 42t-14.5 35.5t-25 14.5zM416 -135q26 0 51 15t25 55q0 25 -12.5 45.5t-43.5 33.5t-88 13q-17 0 -36 -2.5 t-40 -6.5q6 -50 22 -80t37.5 -46t43.5 -21.5t41 -5.5z" />
<glyph unicode="&#x6be;" horiz-adv-x="574" arabic-form="initial" d="M385 -8q-87 0 -170 46q-48 -21 -103.5 -32t-111.5 -11l10 82q39 0 72 4t60 12q-28 29 -45.5 65.5t-17.5 79.5q0 57 30.5 103t82.5 60q-23 18 -49 36l47 62q96 -70 158.5 -123.5t99 -93t54 -69t22.5 -52t5 -42.5q0 -33 -14.5 -62t-46 -47t-83.5 -18zM154 248q0 -38 19 -69 t48 -54q45 28 62.5 63t17.5 62q0 32 -18.5 58.5t-51.5 26.5q-34 0 -55.5 -27t-21.5 -60zM375 238q0 -46 -21.5 -84.5t-57.5 -67.5q44 -15 85 -15q34 0 50 11.5t16 38.5q0 6 -2.5 20t-17.5 39.5t-52 64.5v-7z" />
<glyph unicode="&#x6be;" horiz-adv-x="507" arabic-form="medial" d="M0 -5l10 82h37q18 0 36 1q4 75 24 137t51 107t67 69.5t71 24.5q49 0 82 -41.5t33 -111.5q0 -44 -14 -87.5t-53 -76.5q40 -10 82.5 -16t90.5 -6q21 0 30.5 -11.5t9.5 -27.5t-14 -29.5t-36 -13.5q-34 0 -77 5q23 -34 25.5 -71.5t-14 -70.5t-50 -54t-84.5 -21 q-87 0 -149.5 54.5t-73.5 164.5q-20 -3 -41.5 -5t-42.5 -2zM289 334q-20 0 -48 -32t-51 -88t-27 -130q48 7 85.5 24.5t59 52t21.5 93.5q0 15 -3.5 34t-12.5 32.5t-24 13.5zM309 -135q26 0 51 15t25 55q0 25 -12.5 45.5t-43.5 33.5t-88 13q-16 0 -35.5 -2.5t-39.5 -7.5 q5 -49 21 -79t37.5 -46t43.5 -21.5t41 -5.5z" />
<glyph unicode="&#x6d2;" horiz-adv-x="942" arabic-form="isolated" d="M0 -200h1000v1000h-1000v-1000z" />
<glyph unicode="&#x6d2;" horiz-adv-x="549" arabic-form="final" d="M439 -298q-225 0 -332 40t-107 118q0 55 61.5 104.5t186 81t311.5 31.5q21 0 30.5 -11.5t9.5 -27.5t-14 -29.5t-36 -13.5q-100 0 -185 -11t-148.5 -29t-99 -40.5t-35.5 -46.5q0 -35 88 -59.5t271 -24.5q154 0 267 12t168 22l-14 -78q-27 -7 -73 -14t-104 -12.5t-121 -8.5 t-124 -3z" />
<glyph unicode="&#x6d3;" horiz-adv-x="942" arabic-form="isolated" d="M0 -200h1000v1000h-1000v-1000z" />
<glyph unicode="&#x6d3;" horiz-adv-x="549" arabic-form="final" d="M439 -298q-225 0 -332 40t-107 118q0 55 61.5 104.5t186 81t311.5 31.5q21 0 30.5 -11.5t9.5 -27.5t-14 -29.5t-36 -13.5q-100 0 -185 -11t-148.5 -29t-99 -40.5t-35.5 -46.5q0 -35 88 -59.5t271 -24.5q154 0 267 12t168 22l-14 -78q-27 -7 -73 -14t-104 -12.5t-121 -8.5 t-124 -3zM162 -262v-56h-74l26 -54v-1l1 -2q11 -24 0 -39q-10 -15 -35 -15h-110v56h82l-26 54l-6 18q-1 14 5 23q12 15 37 16h100z" />
<glyph unicode="&#x6ad;" horiz-adv-x="882" arabic-form="isolated" d="M0 -200h1000v1000h-1000v-1000z" />
<glyph unicode="&#x6ad;" horiz-adv-x="922" arabic-form="final" d="M390 -21q-178 0 -269 47t-91 156q0 37 9 78.5t19 78.5l75 -19q-6 -22 -13.5 -55.5t-7.5 -59.5q0 -52 26.5 -83.5t92.5 -46t185 -14.5q98 0 162 7.5t99.5 24t49.5 43t12 64.5l-19 514h81l20 -505q2 -51 16.5 -80t39.5 -40.5t55 -11.5q21 0 30.5 -11.5t9.5 -27.5t-14 -29.5 t-36 -13.5q-60 0 -91.5 23t-43.5 54q-45 -51 -140 -72t-257 -21zM364 204l-19 63q63 17 90 27.5t27 22.5q0 11 -11.5 20.5t-26 20t-26 24.5t-11.5 34q0 26 25 57t99 67l31 -57q-46 -22 -67.5 -37.5t-21.5 -27.5q0 -9 11.5 -19t26 -22t26 -27.5t11.5 -36.5q0 -19 -12 -36.5 t-47 -35.5t-105 -37zM469 741q-21 0 -35.5 14.5t-14.5 34.5t14.5 35t35.5 15q20 0 34.5 -15t14.5 -35t-14.5 -34.5t-34.5 -14.5zM401 631q-21 0 -35.5 14.5t-14.5 34.5t14.5 35t35.5 15q20 0 34.5 -15t14.5 -35t-14.5 -34.5t-34.5 -14.5zM537 631q-21 0 -35.5 14.5 t-14.5 34.5t14.5 35t35.5 15q20 0 34.5 -15t14.5 -35t-14.5 -34.5t-34.5 -14.5z" />
<glyph unicode="&#x6ad;" horiz-adv-x="412" arabic-form="initial" d="M157 796q-21 0 -35.5 14.5t-14.5 34.5t14.5 35t35.5 15q20 0 34.5 -15t14.5 -35t-14.5 -34.5t-34.5 -14.5zM262 722q-21 0 -35.5 14.5t-14.5 34.5t14.5 35t35.5 15q20 0 34.5 -15t14.5 -35t-14.5 -34.5t-34.5 -14.5zM147 671q-21 0 -35.5 14.5t-14.5 34.5t14.5 35 t35.5 15q20 0 34.5 -15t14.5 -35t-14.5 -34.5t-34.5 -14.5zM0 -5l10 82h94q59 0 93.5 6.5t51 17t22 23t5.5 25.5q0 23 -17.5 57t-71.5 88q-37 38 -74 67t-61 49t-24 29q0 23 5.5 43t15.5 31q40 43 125.5 86.5t213.5 107.5l34 -74q-91 -44 -148.5 -72.5t-95 -50t-69.5 -43.5 q117 -95 179.5 -170.5t62.5 -152.5q0 -22 -8 -48t-34 -49t-78 -37.5t-140 -14.5h-91z" />
<glyph unicode="&#x6ad;" horiz-adv-x="508" arabic-form="medial" d="M125 796q-21 0 -35.5 14.5t-14.5 34.5t14.5 35t35.5 15q20 0 34.5 -15t14.5 -35t-14.5 -34.5t-34.5 -14.5zM230 722q-21 0 -35.5 14.5t-14.5 34.5t14.5 35t35.5 15q20 0 34.5 -15t14.5 -35t-14.5 -34.5t-34.5 -14.5zM115 671q-21 0 -35.5 14.5t-14.5 34.5t14.5 35 t35.5 15q20 0 34.5 -15t14.5 -35t-14.5 -34.5t-34.5 -14.5zM0 -5l10 82h77q83 0 123 9t52.5 24t12.5 31q0 24 -18 53t-46 59.5t-59.5 60.5t-59.5 55t-46 43.5t-18 26.5q0 23 5.5 43t15.5 31q27 29 79.5 60.5t120.5 65t139 68.5l34 -74q-88 -44 -172.5 -85t-147.5 -85 q55 -47 103 -91t89 -94.5t75 -114.5q21 -39 49 -57t55.5 -23.5t44.5 -5.5q21 0 30.5 -11.5t9.5 -27.5t-14 -29.5t-36 -13.5q-24 0 -55.5 6.5t-63.5 25t-56 54.5q-20 -29 -50 -48t-78 -28.5t-122 -9.5h-83z" />
<glyph unicode="&#x6c7;" horiz-adv-x="447" arabic-form="isolated" d="M0 -200h1000v1000h-1000v-1000z" />
<glyph unicode="&#x6c7;" horiz-adv-x="472" arabic-form="final" d="M58 -230l-18 82q62 8 113.5 23.5t88.5 43.5t55 76h-64q-45 0 -83.5 13t-62 40.5t-23.5 72.5q0 56 22 105t60.5 80t85.5 31q69 0 114.5 -60.5t45.5 -185.5v-14h90q21 0 30.5 -11.5t9.5 -27.5t-14 -29.5t-36 -13.5h-92q-51 -194 -322 -225zM271 77h42q1 10 1 20 q0 68 -25 113t-65 45q-21 0 -39 -16t-29.5 -43t-11.5 -59q0 -35 31.5 -47.5t95.5 -12.5zM32 -84l-11 36q-14 37 13 65q11 11 24 15q54 15 92 -26q11 -13 17 -28q13 -36 -14 -61q-9 -8 -20 -12l-167 -60q-19 -6 -27 9q-1 3 -1 4q-6 19 9 27q3 1 4 1zM75 -68l43 16q11 3 9 11 q-1 2 -1 3q-8 22 -35 27q-11 1 -21 -1q-11 -4 -8 -18q1 -2 1 -3z" />
<glyph unicode="&#x6c6;" horiz-adv-x="447" arabic-form="isolated" d="M0 -200h1000v1000h-1000v-1000z" />
<glyph unicode="&#x6c6;" horiz-adv-x="472" arabic-form="final" d="M58 -230l-18 82q62 8 113.5 23.5t88.5 43.5t55 76h-64q-45 0 -83.5 13t-62 40.5t-23.5 72.5q0 56 22 105t60.5 80t85.5 31q69 0 114.5 -60.5t45.5 -185.5v-14h90q21 0 30.5 -11.5t9.5 -27.5t-14 -29.5t-36 -13.5h-92q-51 -194 -322 -225zM271 77h42q1 10 1 20 q0 68 -25 113t-65 45q-21 0 -39 -16t-29.5 -43t-11.5 -59q0 -35 31.5 -47.5t95.5 -12.5zM76 -99l-114 140l35 32l118 -113h4l118 113l35 -32l-114 -140h-82z" />
<glyph unicode="&#x6c8;" horiz-adv-x="447" arabic-form="isolated" d="M0 -200h1000v1000h-1000v-1000z" />
<glyph unicode="&#x6c8;" horiz-adv-x="472" arabic-form="final" d="M58 -230l-18 82q62 8 113.5 23.5t88.5 43.5t55 76h-64q-45 0 -83.5 13t-62 40.5t-23.5 72.5q0 56 22 105t60.5 80t85.5 31q69 0 114.5 -60.5t45.5 -185.5v-14h90q21 0 30.5 -11.5t9.5 -27.5t-14 -29.5t-36 -13.5h-92q-51 -194 -322 -225zM271 77h42q1 10 1 20 q0 68 -25 113t-65 45q-21 0 -39 -16t-29.5 -43t-11.5 -59q0 -35 31.5 -47.5t95.5 -12.5zM124 -127v180h59v-131q0 -27 -31 -42q-14 -7 -28 -7z" />
<glyph unicode="&#x677;" horiz-adv-x="597" arabic-form="isolated" d="M0 -200h1000v1000h-1000v-1000z" />
<glyph unicode="&#x6cb;" horiz-adv-x="447" arabic-form="isolated" d="M0 -200h1000v1000h-1000v-1000z" />
<glyph unicode="&#x6cb;" horiz-adv-x="472" arabic-form="final" d="M58 -230l-18 82q62 8 113.5 23.5t88.5 43.5t55 76h-64q-45 0 -83.5 13t-62 40.5t-23.5 72.5q0 56 22 105t60.5 80t85.5 31q69 0 114.5 -60.5t45.5 -185.5v-14h90q21 0 30.5 -11.5t9.5 -27.5t-14 -29.5t-36 -13.5h-92q-51 -194 -322 -225zM271 77h42q1 10 1 20 q0 68 -25 113t-65 45q-21 0 -39 -16t-29.5 -43t-11.5 -59q0 -35 31.5 -47.5t95.5 -12.5zM235 544q-21 0 -35.5 14.5t-14.5 34.5t14.5 35t35.5 15q20 0 34.5 -15t14.5 -35t-14.5 -34.5t-34.5 -14.5zM167 434q-21 0 -35.5 14.5t-14.5 34.5t14.5 35t35.5 15q20 0 34.5 -15 t14.5 -35t-14.5 -34.5t-34.5 -14.5zM303 434q-21 0 -35.5 14.5t-14.5 34.5t14.5 35t35.5 15q20 0 34.5 -15t14.5 -35t-14.5 -34.5t-34.5 -14.5z" />
<glyph unicode="&#x6c5;" horiz-adv-x="447" arabic-form="isolated" d="M0 -200h1000v1000h-1000v-1000z" />
<glyph unicode="&#x6c5;" horiz-adv-x="472" arabic-form="final" d="M72 -103v59h223q7 18 12 39h-74q-45 0 -83.5 13t-62 40.5t-23.5 72.5q0 38 13 75t35.5 67.5t53 49t66.5 18.5q67 0 114 -61t50 -193h86q21 0 30.5 -11.5t9.5 -27.5t-14 -29.5t-36 -13.5h-81q-13 -83 -57.5 -132.5t-112.5 -72t-151 -22.5h-12q-3 0 -12 1l-6 79 q72 2 125 12t87 37h-180zM271 77h43q0 83 -26 128t-64 45q-21 0 -39 -16t-29.5 -42t-11.5 -55q0 -35 31.5 -47.5t95.5 -12.5z" />
<glyph unicode="&#x6c9;" horiz-adv-x="447" arabic-form="isolated" d="M0 -200h1000v1000h-1000v-1000z" />
<glyph unicode="&#x6c9;" horiz-adv-x="472" arabic-form="final" d="M58 -230l-18 82q62 8 113.5 23.5t88.5 43.5t55 76h-64q-45 0 -83.5 13t-62 40.5t-23.5 72.5q0 56 22 105t60.5 80t85.5 31q69 0 114.5 -60.5t45.5 -185.5v-14h90q21 0 30.5 -11.5t9.5 -27.5t-14 -29.5t-36 -13.5h-92q-51 -194 -322 -225zM271 77h42q1 10 1 20 q0 68 -25 113t-65 45q-21 0 -39 -16t-29.5 -43t-11.5 -59q0 -35 31.5 -47.5t95.5 -12.5zM-38 -67l114 139h82l114 -139l-35 -32l-118 113h-4l-118 -113z" />
<glyph unicode="&#x6d0;" horiz-adv-x="760" arabic-form="isolated" d="M0 -200h1000v1000h-1000v-1000z" />
<glyph unicode="&#x6d0;" horiz-adv-x="736" arabic-form="final" d="M30 -1q0 36 10 80t32 97l72 -28q-16 -42 -24 -77t-8 -65q0 -55 32.5 -90t86 -51t117.5 -16q77 0 140.5 18t101.5 47.5t38 65.5q0 26 -40 45t-112 39l19 83q104 -40 162 -55t89 -15q21 0 30.5 -11.5t9.5 -27.5t-14 -29.5t-36 -13.5h-37q2 -9 3 -14.5t1 -14.5 q0 -49 -45 -94.5t-129.5 -74.5t-202.5 -29q-79 0 -146.5 25.5t-108.5 76.5t-41 129zM326 -419q-21 0 -35.5 14.5t-14.5 34.5t14.5 35t35.5 15q20 0 34.5 -15t14.5 -35t-14.5 -34.5t-34.5 -14.5zM327 -548q-21 0 -35.5 14.5t-14.5 34.5t14.5 35t35.5 15q20 0 34.5 -15 t14.5 -35t-14.5 -34.5t-34.5 -14.5z" />
<glyph unicode="&#x6d0;" horiz-adv-x="269" arabic-form="initial" d="M0 -5l10 82q49 0 78 6t42 24.5t13 55.5q0 38 -17.5 95.5t-39.5 114.5l81 30q13 -32 24.5 -73t19.5 -81t8 -70q0 -100 -53.5 -142t-165.5 -42zM107 -192q-21 0 -35.5 14.5t-14.5 34.5t14.5 35t35.5 15q20 0 34.5 -15t14.5 -35t-14.5 -34.5t-34.5 -14.5zM108 -321 q-21 0 -35.5 14.5t-14.5 34.5t14.5 35t35.5 15q20 0 34.5 -15t14.5 -35t-14.5 -34.5t-34.5 -14.5z" />
<glyph unicode="&#x6d0;" horiz-adv-x="343" arabic-form="medial" d="M0 -5l10 82q42 0 66 7.5t36.5 29t21.5 62.5t22 107l78 -15q-6 -27 -13.5 -62t-7.5 -59q0 -20 9 -36t39 -25t92 -9q21 0 30.5 -11.5t9.5 -27.5t-14 -29.5t-36 -13.5q-79 0 -117 17t-52 51q-30 -42 -69 -55t-105 -13zM170 -192q-21 0 -35.5 14.5t-14.5 34.5t14.5 35 t35.5 15q20 0 34.5 -15t14.5 -35t-14.5 -34.5t-34.5 -14.5zM171 -321q-21 0 -35.5 14.5t-14.5 34.5t14.5 35t35.5 15q20 0 34.5 -15t14.5 -35t-14.5 -34.5t-34.5 -14.5z" />
<glyph unicode="&#x649;" horiz-adv-x="269" arabic-form="initial" d="M0 -5l10 82q49 0 78 6t42 24.5t13 55.5q0 38 -17.5 95.5t-39.5 114.5l81 30q13 -32 24.5 -73t19.5 -81t8 -70q0 -100 -53.5 -142t-165.5 -42z" />
<glyph unicode="&#x649;" horiz-adv-x="343" arabic-form="medial" d="M0 -5l10 82q42 0 66 7.5t36.5 29t21.5 62.5t22 107l78 -15q-6 -27 -13.5 -62t-7.5 -59q0 -20 9 -36t39 -25t92 -9q21 0 30.5 -11.5t9.5 -27.5t-14 -29.5t-36 -13.5q-79 0 -117 17t-52 51q-30 -42 -69 -55t-105 -13z" />
<glyph unicode="&#xfbea;" horiz-adv-x="560" arabic-form="isolated" d="M291 -5l10 82q49 0 78 6t42 24.5t13 55.5q0 38 -17.5 95.5t-39.5 114.5l81 30q13 -32 24.5 -73t19.5 -81t8 -70q0 -100 -53.5 -142t-165.5 -42zM385 103v-56h-74l26 -54v-1l1 -2q11 -24 0 -39q-10 -15 -35 -15h-110v56h82l-26 54l-6 18q-1 14 5 23q12 15 37 16h100z M291 -5q-80 0 -122.5 18t-58.5 56t-18 98l-20 547h82l20 -515q2 -49 9.5 -75.5t34 -36.5t83.5 -10q21 0 30.5 -11.5t9.5 -27.5t-14 -29.5t-36 -13.5z" />
<glyph unicode="&#xfbeb;" horiz-adv-x="634" arabic-form="final" d="M291 -5l10 82q42 0 66 7.5t36.5 29t21.5 62.5t22 107l78 -15q-6 -27 -13.5 -62t-7.5 -59q0 -20 9 -36t39 -25t92 -9q21 0 30.5 -11.5t9.5 -27.5t-14 -29.5t-36 -13.5q-79 0 -117 17t-52 51q-30 -42 -69 -55t-105 -13zM444 -18v-56h-74l26 -54v-1l1 -2q11 -24 0 -39 q-10 -15 -35 -15h-110v56h82l-26 54l-6 18q-1 14 5 23q12 15 37 16h100zM291 -5q-80 0 -122.5 18t-58.5 56t-18 98l-20 547h82l20 -515q2 -49 9.5 -75.5t34 -36.5t83.5 -10q21 0 30.5 -11.5t9.5 -27.5t-14 -29.5t-36 -13.5z" />
<glyph unicode="&#xfbec;" horiz-adv-x="755" arabic-form="isolated" d="M486 -5l10 82q49 0 78 6t42 24.5t13 55.5q0 38 -17.5 95.5t-39.5 114.5l81 30q13 -32 24.5 -73t19.5 -81t8 -70q0 -100 -53.5 -142t-165.5 -42zM580 103v-56h-74l26 -54v-1l1 -2q11 -24 0 -39q-10 -15 -35 -15h-110v56h82l-26 54l-6 18q-1 14 5 23q12 15 37 16h100z M486 -5q-65 0 -111.5 22t-65.5 81q-54 -13 -103.5 -10.5t-89.5 19t-63 46t-23 70.5q0 54 34 98.5t92 75.5t128 43l-3 76h81l16 -330q3 -47 17 -70.5t39.5 -31t61.5 -7.5q21 0 30.5 -11.5t9.5 -27.5t-14 -29.5t-36 -13.5zM109 236q0 -23 18.5 -38t47.5 -22t61.5 -7t60.5 5 l-9 183q-57 -6 -97 -25.5t-61 -45t-21 -50.5z" />
<glyph unicode="&#xfbed;" horiz-adv-x="829" arabic-form="final" d="M486 -5l10 82q42 0 66 7.5t36.5 29t21.5 62.5t22 107l78 -15q-6 -27 -13.5 -62t-7.5 -59q0 -20 9 -36t39 -25t92 -9q21 0 30.5 -11.5t9.5 -27.5t-14 -29.5t-36 -13.5q-79 0 -117 17t-52 51q-30 -42 -69 -55t-105 -13zM639 -18v-56h-74l26 -54v-1l1 -2q11 -24 0 -39 q-10 -15 -35 -15h-110v56h82l-26 54l-6 18q-1 14 5 23q12 15 37 16h100zM486 -5q-65 0 -111.5 22t-65.5 81q-54 -13 -103.5 -10.5t-89.5 19t-63 46t-23 70.5q0 54 34 98.5t92 75.5t128 43l-3 76h81l16 -330q3 -47 17 -70.5t39.5 -31t61.5 -7.5q21 0 30.5 -11.5t9.5 -27.5 t-14 -29.5t-36 -13.5zM109 236q0 -23 18.5 -38t47.5 -22t61.5 -7t60.5 5l-9 183q-57 -6 -97 -25.5t-61 -45t-21 -50.5z" />
<glyph unicode="&#xfbee;" horiz-adv-x="741" arabic-form="isolated" d="M472 -5l10 82q49 0 78 6t42 24.5t13 55.5q0 38 -17.5 95.5t-39.5 114.5l81 30q13 -32 24.5 -73t19.5 -81t8 -70q0 -100 -53.5 -142t-165.5 -42zM566 103v-56h-74l26 -54v-1l1 -2q11 -24 0 -39q-10 -15 -35 -15h-110v56h82l-26 54l-6 18q-1 14 5 23q12 15 37 16h100z M58 -230l-18 82q62 8 113.5 23.5t88.5 43.5t55 76h-64q-45 0 -83.5 13t-62 40.5t-23.5 72.5q0 56 22 105t60.5 80t85.5 31q69 0 114.5 -60.5t45.5 -185.5v-14h90q21 0 30.5 -11.5t9.5 -27.5t-14 -29.5t-36 -13.5h-92q-51 -194 -322 -225zM271 77h42q1 10 1 20q0 68 -25 113 t-65 45q-21 0 -39 -16t-29.5 -43t-11.5 -59q0 -35 31.5 -47.5t95.5 -12.5z" />
<glyph unicode="&#xfbef;" horiz-adv-x="815" arabic-form="final" d="M472 -5l10 82q42 0 66 7.5t36.5 29t21.5 62.5t22 107l78 -15q-6 -27 -13.5 -62t-7.5 -59q0 -20 9 -36t39 -25t92 -9q21 0 30.5 -11.5t9.5 -27.5t-14 -29.5t-36 -13.5q-79 0 -117 17t-52 51q-30 -42 -69 -55t-105 -13zM625 -18v-56h-74l26 -54v-1l1 -2q11 -24 0 -39 q-10 -15 -35 -15h-110v56h82l-26 54l-6 18q-1 14 5 23q12 15 37 16h100zM58 -230l-18 82q62 8 113.5 23.5t88.5 43.5t55 76h-64q-45 0 -83.5 13t-62 40.5t-23.5 72.5q0 56 22 105t60.5 80t85.5 31q69 0 114.5 -60.5t45.5 -185.5v-14h90q21 0 30.5 -11.5t9.5 -27.5t-14 -29.5 t-36 -13.5h-92q-51 -194 -322 -225zM271 77h42q1 10 1 20q0 68 -25 113t-65 45q-21 0 -39 -16t-29.5 -43t-11.5 -59q0 -35 31.5 -47.5t95.5 -12.5z" />
<glyph unicode="&#xfbf0;" horiz-adv-x="741" arabic-form="isolated" d="M472 -5l10 82q49 0 78 6t42 24.5t13 55.5q0 38 -17.5 95.5t-39.5 114.5l81 30q13 -32 24.5 -73t19.5 -81t8 -70q0 -100 -53.5 -142t-165.5 -42zM566 103v-56h-74l26 -54v-1l1 -2q11 -24 0 -39q-10 -15 -35 -15h-110v56h82l-26 54l-6 18q-1 14 5 23q12 15 37 16h100z M58 -230l-18 82q62 8 113.5 23.5t88.5 43.5t55 76h-64q-45 0 -83.5 13t-62 40.5t-23.5 72.5q0 56 22 105t60.5 80t85.5 31q69 0 114.5 -60.5t45.5 -185.5v-14h90q21 0 30.5 -11.5t9.5 -27.5t-14 -29.5t-36 -13.5h-92q-51 -194 -322 -225zM271 77h42q1 10 1 20q0 68 -25 113 t-65 45q-21 0 -39 -16t-29.5 -43t-11.5 -59q0 -35 31.5 -47.5t95.5 -12.5zM32 -84l-11 36q-14 37 13 65q11 11 24 15q54 15 92 -26q11 -13 17 -28q13 -36 -14 -61q-9 -8 -20 -12l-167 -60q-19 -6 -27 9q-1 3 -1 4q-6 19 9 27q3 1 4 1zM75 -68l43 16q11 3 9 11q-1 2 -1 3 q-8 22 -35 27q-11 1 -21 -1q-11 -4 -8 -18q1 -2 1 -3z" />
<glyph unicode="&#xfbf1;" horiz-adv-x="815" arabic-form="final" d="M472 -5l10 82q42 0 66 7.5t36.5 29t21.5 62.5t22 107l78 -15q-6 -27 -13.5 -62t-7.5 -59q0 -20 9 -36t39 -25t92 -9q21 0 30.5 -11.5t9.5 -27.5t-14 -29.5t-36 -13.5q-79 0 -117 17t-52 51q-30 -42 -69 -55t-105 -13zM625 -18v-56h-74l26 -54v-1l1 -2q11 -24 0 -39 q-10 -15 -35 -15h-110v56h82l-26 54l-6 18q-1 14 5 23q12 15 37 16h100zM58 -230l-18 82q62 8 113.5 23.5t88.5 43.5t55 76h-64q-45 0 -83.5 13t-62 40.5t-23.5 72.5q0 56 22 105t60.5 80t85.5 31q69 0 114.5 -60.5t45.5 -185.5v-14h90q21 0 30.5 -11.5t9.5 -27.5t-14 -29.5 t-36 -13.5h-92q-51 -194 -322 -225zM271 77h42q1 10 1 20q0 68 -25 113t-65 45q-21 0 -39 -16t-29.5 -43t-11.5 -59q0 -35 31.5 -47.5t95.5 -12.5zM32 -84l-11 36q-14 37 13 65q11 11 24 15q54 15 92 -26q11 -13 17 -28q13 -36 -14 -61q-9 -8 -20 -12l-167 -60q-19 -6 -27 9 q-1 3 -1 4q-6 19 9 27q3 1 4 1zM75 -68l43 16q11 3 9 11q-1 2 -1 3q-8 22 -35 27q-11 1 -21 -1q-11 -4 -8 -18q1 -2 1 -3z" />
<glyph unicode="&#xfbf2;" horiz-adv-x="741" arabic-form="isolated" d="M472 -5l10 82q49 0 78 6t42 24.5t13 55.5q0 38 -17.5 95.5t-39.5 114.5l81 30q13 -32 24.5 -73t19.5 -81t8 -70q0 -100 -53.5 -142t-165.5 -42zM566 103v-56h-74l26 -54v-1l1 -2q11 -24 0 -39q-10 -15 -35 -15h-110v56h82l-26 54l-6 18q-1 14 5 23q12 15 37 16h100z M58 -230l-18 82q62 8 113.5 23.5t88.5 43.5t55 76h-64q-45 0 -83.5 13t-62 40.5t-23.5 72.5q0 56 22 105t60.5 80t85.5 31q69 0 114.5 -60.5t45.5 -185.5v-14h90q21 0 30.5 -11.5t9.5 -27.5t-14 -29.5t-36 -13.5h-92q-51 -194 -322 -225zM271 77h42q1 10 1 20q0 68 -25 113 t-65 45q-21 0 -39 -16t-29.5 -43t-11.5 -59q0 -35 31.5 -47.5t95.5 -12.5zM76 -99l-114 140l35 32l118 -113h4l118 113l35 -32l-114 -140h-82z" />
<glyph unicode="&#xfbf3;" horiz-adv-x="815" arabic-form="final" d="M472 -5l10 82q42 0 66 7.5t36.5 29t21.5 62.5t22 107l78 -15q-6 -27 -13.5 -62t-7.5 -59q0 -20 9 -36t39 -25t92 -9q21 0 30.5 -11.5t9.5 -27.5t-14 -29.5t-36 -13.5q-79 0 -117 17t-52 51q-30 -42 -69 -55t-105 -13zM625 -18v-56h-74l26 -54v-1l1 -2q11 -24 0 -39 q-10 -15 -35 -15h-110v56h82l-26 54l-6 18q-1 14 5 23q12 15 37 16h100zM58 -230l-18 82q62 8 113.5 23.5t88.5 43.5t55 76h-64q-45 0 -83.5 13t-62 40.5t-23.5 72.5q0 56 22 105t60.5 80t85.5 31q69 0 114.5 -60.5t45.5 -185.5v-14h90q21 0 30.5 -11.5t9.5 -27.5t-14 -29.5 t-36 -13.5h-92q-51 -194 -322 -225zM271 77h42q1 10 1 20q0 68 -25 113t-65 45q-21 0 -39 -16t-29.5 -43t-11.5 -59q0 -35 31.5 -47.5t95.5 -12.5zM76 -99l-114 140l35 32l118 -113h4l118 113l35 -32l-114 -140h-82z" />
<glyph unicode="&#xfbf4;" horiz-adv-x="741" arabic-form="isolated" d="M472 -5l10 82q49 0 78 6t42 24.5t13 55.5q0 38 -17.5 95.5t-39.5 114.5l81 30q13 -32 24.5 -73t19.5 -81t8 -70q0 -100 -53.5 -142t-165.5 -42zM566 103v-56h-74l26 -54v-1l1 -2q11 -24 0 -39q-10 -15 -35 -15h-110v56h82l-26 54l-6 18q-1 14 5 23q12 15 37 16h100z M58 -230l-18 82q62 8 113.5 23.5t88.5 43.5t55 76h-64q-45 0 -83.5 13t-62 40.5t-23.5 72.5q0 56 22 105t60.5 80t85.5 31q69 0 114.5 -60.5t45.5 -185.5v-14h90q21 0 30.5 -11.5t9.5 -27.5t-14 -29.5t-36 -13.5h-92q-51 -194 -322 -225zM271 77h42q1 10 1 20q0 68 -25 113 t-65 45q-21 0 -39 -16t-29.5 -43t-11.5 -59q0 -35 31.5 -47.5t95.5 -12.5zM124 -127v180h59v-131q0 -27 -31 -42q-14 -7 -28 -7z" />
<glyph unicode="&#xfbf5;" horiz-adv-x="815" arabic-form="final" d="M472 -5l10 82q42 0 66 7.5t36.5 29t21.5 62.5t22 107l78 -15q-6 -27 -13.5 -62t-7.5 -59q0 -20 9 -36t39 -25t92 -9q21 0 30.5 -11.5t9.5 -27.5t-14 -29.5t-36 -13.5q-79 0 -117 17t-52 51q-30 -42 -69 -55t-105 -13zM625 -18v-56h-74l26 -54v-1l1 -2q11 -24 0 -39 q-10 -15 -35 -15h-110v56h82l-26 54l-6 18q-1 14 5 23q12 15 37 16h100zM58 -230l-18 82q62 8 113.5 23.5t88.5 43.5t55 76h-64q-45 0 -83.5 13t-62 40.5t-23.5 72.5q0 56 22 105t60.5 80t85.5 31q69 0 114.5 -60.5t45.5 -185.5v-14h90q21 0 30.5 -11.5t9.5 -27.5t-14 -29.5 t-36 -13.5h-92q-51 -194 -322 -225zM271 77h42q1 10 1 20q0 68 -25 113t-65 45q-21 0 -39 -16t-29.5 -43t-11.5 -59q0 -35 31.5 -47.5t95.5 -12.5zM124 -127v180h59v-131q0 -27 -31 -42q-14 -7 -28 -7z" />
<glyph unicode="&#xfbf6;" horiz-adv-x="1005" arabic-form="isolated" d="M736 -5l10 82q49 0 78 6t42 24.5t13 55.5q0 38 -17.5 95.5t-39.5 114.5l81 30q13 -32 24.5 -73t19.5 -81t8 -70q0 -100 -53.5 -142t-165.5 -42zM830 103v-56h-74l26 -54v-1l1 -2q11 -24 0 -39q-10 -15 -35 -15h-110v56h82l-26 54l-6 18q-1 14 5 23q12 15 37 16h100z M30 -1q0 36 10 80t32 97l72 -28q-16 -42 -24 -77t-8 -65q0 -55 32.5 -90t86 -51t117.5 -16q77 0 140.5 18t101.5 47.5t38 65.5q0 26 -40 45t-112 39l19 83q104 -40 162 -55t89 -15q21 0 30.5 -11.5t9.5 -27.5t-14 -29.5t-36 -13.5h-37q2 -9 3 -14.5t1 -14.5q0 -49 -45 -94.5 t-129.5 -74.5t-202.5 -29q-79 0 -146.5 25.5t-108.5 76.5t-41 129zM326 -419q-21 0 -35.5 14.5t-14.5 34.5t14.5 35t35.5 15q20 0 34.5 -15t14.5 -35t-14.5 -34.5t-34.5 -14.5zM327 -548q-21 0 -35.5 14.5t-14.5 34.5t14.5 35t35.5 15q20 0 34.5 -15t14.5 -35t-14.5 -34.5 t-34.5 -14.5z" />
<glyph unicode="&#xfbf7;" horiz-adv-x="1079" arabic-form="final" d="M736 -5l10 82q42 0 66 7.5t36.5 29t21.5 62.5t22 107l78 -15q-6 -27 -13.5 -62t-7.5 -59q0 -20 9 -36t39 -25t92 -9q21 0 30.5 -11.5t9.5 -27.5t-14 -29.5t-36 -13.5q-79 0 -117 17t-52 51q-30 -42 -69 -55t-105 -13zM889 -18v-56h-74l26 -54v-1l1 -2q11 -24 0 -39 q-10 -15 -35 -15h-110v56h82l-26 54l-6 18q-1 14 5 23q12 15 37 16h100zM30 -1q0 36 10 80t32 97l72 -28q-16 -42 -24 -77t-8 -65q0 -55 32.5 -90t86 -51t117.5 -16q77 0 140.5 18t101.5 47.5t38 65.5q0 26 -40 45t-112 39l19 83q104 -40 162 -55t89 -15q21 0 30.5 -11.5 t9.5 -27.5t-14 -29.5t-36 -13.5h-37q2 -9 3 -14.5t1 -14.5q0 -49 -45 -94.5t-129.5 -74.5t-202.5 -29q-79 0 -146.5 25.5t-108.5 76.5t-41 129zM326 -419q-21 0 -35.5 14.5t-14.5 34.5t14.5 35t35.5 15q20 0 34.5 -15t14.5 -35t-14.5 -34.5t-34.5 -14.5zM327 -548 q-21 0 -35.5 14.5t-14.5 34.5t14.5 35t35.5 15q20 0 34.5 -15t14.5 -35t-14.5 -34.5t-34.5 -14.5z" />
<glyph unicode="&#xfbf8;" horiz-adv-x="612" arabic-form="initial" d="M343 -5l10 82q49 0 78 6t42 24.5t13 55.5q0 38 -17.5 95.5t-39.5 114.5l81 30q13 -32 24.5 -73t19.5 -81t8 -70q0 -100 -53.5 -142t-165.5 -42zM437 103v-56h-74l26 -54v-1l1 -2q11 -24 0 -39q-10 -15 -35 -15h-110v56h82l-26 54l-6 18q-1 14 5 23q12 15 37 16h100zM0 -5 l10 82q42 0 66 7.5t36.5 29t21.5 62.5t22 107l78 -15q-6 -27 -13.5 -62t-7.5 -59q0 -20 9 -36t39 -25t92 -9q21 0 30.5 -11.5t9.5 -27.5t-14 -29.5t-36 -13.5q-79 0 -117 17t-52 51q-30 -42 -69 -55t-105 -13zM170 -192q-21 0 -35.5 14.5t-14.5 34.5t14.5 35t35.5 15 q20 0 34.5 -15t14.5 -35t-14.5 -34.5t-34.5 -14.5zM171 -321q-21 0 -35.5 14.5t-14.5 34.5t14.5 35t35.5 15q20 0 34.5 -15t14.5 -35t-14.5 -34.5t-34.5 -14.5z" />
<glyph unicode="&#xfbf9;" horiz-adv-x="1005" arabic-form="isolated" d="M736 -5l10 82q49 0 78 6t42 24.5t13 55.5q0 38 -17.5 95.5t-39.5 114.5l81 30q13 -32 24.5 -73t19.5 -81t8 -70q0 -100 -53.5 -142t-165.5 -42zM830 103v-56h-74l26 -54v-1l1 -2q11 -24 0 -39q-10 -15 -35 -15h-110v56h82l-26 54l-6 18q-1 14 5 23q12 15 37 16h100z M30 -1q0 36 10 80t32 97l72 -28q-16 -42 -24 -77t-8 -65q0 -55 32.5 -90t86 -51t117.5 -16q77 0 140.5 18t101.5 47.5t38 65.5q0 26 -40 45t-112 39l19 83q104 -40 162 -55t89 -15q21 0 30.5 -11.5t9.5 -27.5t-14 -29.5t-36 -13.5h-37q2 -9 3 -14.5t1 -14.5q0 -49 -45 -94.5 t-129.5 -74.5t-202.5 -29q-79 0 -146.5 25.5t-108.5 76.5t-41 129z" />
<glyph unicode="&#xfbfa;" horiz-adv-x="1079" arabic-form="final" d="M736 -5l10 82q42 0 66 7.5t36.5 29t21.5 62.5t22 107l78 -15q-6 -27 -13.5 -62t-7.5 -59q0 -20 9 -36t39 -25t92 -9q21 0 30.5 -11.5t9.5 -27.5t-14 -29.5t-36 -13.5q-79 0 -117 17t-52 51q-30 -42 -69 -55t-105 -13zM889 -18v-56h-74l26 -54v-1l1 -2q11 -24 0 -39 q-10 -15 -35 -15h-110v56h82l-26 54l-6 18q-1 14 5 23q12 15 37 16h100zM30 -1q0 36 10 80t32 97l72 -28q-16 -42 -24 -77t-8 -65q0 -55 32.5 -90t86 -51t117.5 -16q77 0 140.5 18t101.5 47.5t38 65.5q0 26 -40 45t-112 39l19 83q104 -40 162 -55t89 -15q21 0 30.5 -11.5 t9.5 -27.5t-14 -29.5t-36 -13.5h-37q2 -9 3 -14.5t1 -14.5q0 -49 -45 -94.5t-129.5 -74.5t-202.5 -29q-79 0 -146.5 25.5t-108.5 76.5t-41 129z" />
<glyph unicode="&#xfbfb;" horiz-adv-x="612" arabic-form="initial" d="M343 -5l10 82q49 0 78 6t42 24.5t13 55.5q0 38 -17.5 95.5t-39.5 114.5l81 30q13 -32 24.5 -73t19.5 -81t8 -70q0 -100 -53.5 -142t-165.5 -42zM437 103v-56h-74l26 -54v-1l1 -2q11 -24 0 -39q-10 -15 -35 -15h-110v56h82l-26 54l-6 18q-1 14 5 23q12 15 37 16h100zM0 -5 l10 82q42 0 66 7.5t36.5 29t21.5 62.5t22 107l78 -15q-6 -27 -13.5 -62t-7.5 -59q0 -20 9 -36t39 -25t92 -9q21 0 30.5 -11.5t9.5 -27.5t-14 -29.5t-36 -13.5q-79 0 -117 17t-52 51q-30 -42 -69 -55t-105 -13z" />
<glyph unicode="&#x6cc;" horiz-adv-x="760" arabic-form="isolated" d="M0 -200h1000v1000h-1000v-1000z" />
<glyph unicode="&#x6cc;" horiz-adv-x="736" arabic-form="final" d="M30 -1q0 36 10 80t32 97l72 -28q-16 -42 -24 -77t-8 -65q0 -55 32.5 -90t86 -51t117.5 -16q77 0 140.5 18t101.5 47.5t38 65.5q0 26 -40 45t-112 39l19 83q104 -40 162 -55t89 -15q21 0 30.5 -11.5t9.5 -27.5t-14 -29.5t-36 -13.5h-37q2 -9 3 -14.5t1 -14.5 q0 -49 -45 -94.5t-129.5 -74.5t-202.5 -29q-79 0 -146.5 25.5t-108.5 76.5t-41 129z" />
<glyph unicode="&#x6cc;" horiz-adv-x="299" arabic-form="initial" d="M0 -5l10 82q59 0 92 4.5t47 23t14 58.5q0 38 -17.5 95.5t-39.5 114.5l81 30q13 -32 24.5 -73t19.5 -81t8 -70q0 -100 -56 -142t-183 -42zM185 -194q-21 0 -35.5 14.5t-14.5 34.5t14.5 35t35.5 15q20 0 34.5 -15t14.5 -35t-14.5 -34.5t-34.5 -14.5zM48 -194 q-21 0 -35.5 14.5t-14.5 34.5t14.5 35t35.5 15q20 0 34.5 -15t14.5 -35t-14.5 -34.5t-34.5 -14.5z" />
<glyph unicode="&#x6cc;" horiz-adv-x="373" arabic-form="medial" d="M0 -5l10 82q50 0 78 7.5t42.5 29t23.5 62.5t22 107l78 -15q-6 -27 -13.5 -62t-7.5 -59q0 -15 2 -28t15 -22t44 -14.5t89 -5.5q21 0 30.5 -11.5t9.5 -27.5t-14 -29.5t-36 -13.5q-65 0 -101.5 7.5t-54 22t-25.5 36.5q-29 -41 -71.5 -53.5t-120.5 -12.5zM252 -194 q-21 0 -35.5 14.5t-14.5 34.5t14.5 35t35.5 15q20 0 34.5 -15t14.5 -35t-14.5 -34.5t-34.5 -14.5zM115 -194q-21 0 -35.5 14.5t-14.5 34.5t14.5 35t35.5 15q20 0 34.5 -15t14.5 -35t-14.5 -34.5t-34.5 -14.5z" />
<glyph unicode="&#xfc00;" horiz-adv-x="918" arabic-form="isolated" d="M649 -5l10 82q49 0 78 6t42 24.5t13 55.5q0 38 -17.5 95.5t-39.5 114.5l81 30q13 -32 24.5 -73t19.5 -81t8 -70q0 -100 -53.5 -142t-165.5 -42zM743 103v-56h-74l26 -54v-1l1 -2q11 -24 0 -39q-10 -15 -35 -15h-110v56h82l-26 54l-6 18q-1 14 5 23q12 15 37 16h100z M360 -394q-70 0 -133.5 16t-112 49.5t-76.5 84.5t-28 120q0 92 43 171t123.5 139.5t191.5 97.5q-49 16 -102.5 32.5t-124.5 16.5q-30 0 -52.5 -5t-42.5 -10l-14 74q26 11 58.5 17.5t65.5 6.5q46 0 82 -8.5t68.5 -20.5t68.5 -24.5t80.5 -21t105.5 -9.5h9l2 -82 q-52 0 -109 -12q8 -56 26 -88.5t44.5 -48t58.5 -20t67 -4.5q21 0 30.5 -11.5t9.5 -27.5t-13.5 -29.5t-35.5 -13.5q-42 0 -84.5 6t-79 27t-60.5 66.5t-29 125.5q-58 -20 -113 -51t-98 -73t-68.5 -94.5t-25.5 -115.5q0 -70 38 -113.5t101.5 -63.5t138.5 -20q99 0 201 40 l28 -68q-58 -28 -119 -41.5t-120 -13.5zM329 -124q-21 0 -35.5 14.5t-14.5 34.5t14.5 35t35.5 15q20 0 34.5 -15t14.5 -35t-14.5 -34.5t-34.5 -14.5z" />
<glyph unicode="&#xfc01;" horiz-adv-x="918" arabic-form="isolated" d="M649 -5l10 82q49 0 78 6t42 24.5t13 55.5q0 38 -17.5 95.5t-39.5 114.5l81 30q13 -32 24.5 -73t19.5 -81t8 -70q0 -100 -53.5 -142t-165.5 -42zM743 103v-56h-74l26 -54v-1l1 -2q11 -24 0 -39q-10 -15 -35 -15h-110v56h82l-26 54l-6 18q-1 14 5 23q12 15 37 16h100z M360 -394q-70 0 -133.5 16t-112 49.5t-76.5 84.5t-28 120q0 92 43 171t123.5 139.5t191.5 97.5q-49 16 -102.5 32.5t-124.5 16.5q-30 0 -52.5 -5t-42.5 -10l-14 74q26 11 58.5 17.5t65.5 6.5q46 0 82 -8.5t68.5 -20.5t68.5 -24.5t80.5 -21t105.5 -9.5h9l2 -82 q-52 0 -109 -12q8 -56 26 -88.5t44.5 -48t58.5 -20t67 -4.5q21 0 30.5 -11.5t9.5 -27.5t-13.5 -29.5t-35.5 -13.5q-42 0 -84.5 6t-79 27t-60.5 66.5t-29 125.5q-58 -20 -113 -51t-98 -73t-68.5 -94.5t-25.5 -115.5q0 -70 38 -113.5t101.5 -63.5t138.5 -20q99 0 201 40 l28 -68q-58 -28 -119 -41.5t-120 -13.5z" />
<glyph unicode="&#xfc02;" horiz-adv-x="831" arabic-form="isolated" d="M562 -5l10 82q49 0 78 6t42 24.5t13 55.5q0 38 -17.5 95.5t-39.5 114.5l81 30q13 -32 24.5 -73t19.5 -81t8 -70q0 -100 -53.5 -142t-165.5 -42zM656 103v-56h-74l26 -54v-1l1 -2q11 -24 0 -39q-10 -15 -35 -15h-110v56h82l-26 54l-6 18q-1 14 5 23q12 15 37 16h100z M77 -393q-21 77 -36 150.5t-23 131.5t-8 86q0 74 24 135t62 107.5t82 79t85.5 49t70.5 16.5q25 0 44 -11t37 -43t38 -94q19 -57 36 -86.5t37 -40t46 -10.5q21 0 30.5 -11.5t9.5 -27.5t-14 -29.5t-36 -13.5q-35 0 -60.5 11.5t-45.5 31.5q-19 -29 -46 -42.5t-58 -13.5 q-37 0 -77.5 17.5t-77.5 51.5t-64 82q-25 -38 -33 -81.5t-8 -76.5q0 -28 6 -71.5t15.5 -92.5t21 -97.5t21.5 -87.5zM360 64q26 0 39 16t3 47q-23 73 -41.5 109.5t-40.5 36.5t-61.5 -19.5t-71.5 -56.5q22 -45 53.5 -75t63 -44t56.5 -14z" />
<glyph unicode="&#xfc03;" horiz-adv-x="1005" arabic-form="isolated" d="M736 -5l10 82q49 0 78 6t42 24.5t13 55.5q0 38 -17.5 95.5t-39.5 114.5l81 30q13 -32 24.5 -73t19.5 -81t8 -70q0 -100 -53.5 -142t-165.5 -42zM830 103v-56h-74l26 -54v-1l1 -2q11 -24 0 -39q-10 -15 -35 -15h-110v56h82l-26 54l-6 18q-1 14 5 23q12 15 37 16h100z M30 -1q0 36 10 80t32 97l72 -28q-16 -42 -24 -77t-8 -65q0 -55 32.5 -90t86 -51t117.5 -16q77 0 140.5 18t101.5 47.5t38 65.5q0 26 -40 45t-112 39l19 83q104 -40 162 -55t89 -15q21 0 30.5 -11.5t9.5 -27.5t-14 -29.5t-36 -13.5h-37q2 -9 3 -14.5t1 -14.5q0 -49 -45 -94.5 t-129.5 -74.5t-202.5 -29q-79 0 -146.5 25.5t-108.5 76.5t-41 129z" />
<glyph unicode="&#xfc04;" horiz-adv-x="1005" arabic-form="isolated" d="M736 -5l10 82q49 0 78 6t42 24.5t13 55.5q0 38 -17.5 95.5t-39.5 114.5l81 30q13 -32 24.5 -73t19.5 -81t8 -70q0 -100 -53.5 -142t-165.5 -42zM830 103v-56h-74l26 -54v-1l1 -2q11 -24 0 -39q-10 -15 -35 -15h-110v56h82l-26 54l-6 18q-1 14 5 23q12 15 37 16h100z M30 -1q0 36 10 80t32 97l72 -28q-16 -42 -24 -77t-8 -65q0 -55 32.5 -90t86 -51t117.5 -16q77 0 140.5 18t101.5 47.5t38 65.5q0 26 -40 45t-112 39l19 83q104 -40 162 -55t89 -15q21 0 30.5 -11.5t9.5 -27.5t-14 -29.5t-36 -13.5h-37q2 -9 3 -14.5t1 -14.5q0 -49 -45 -94.5 t-129.5 -74.5t-202.5 -29q-79 0 -146.5 25.5t-108.5 76.5t-41 129zM398 -421q-21 0 -35.5 14.5t-14.5 34.5t14.5 35t35.5 15q20 0 34.5 -15t14.5 -35t-14.5 -34.5t-34.5 -14.5zM261 -421q-21 0 -35.5 14.5t-14.5 34.5t14.5 35t35.5 15q20 0 34.5 -15t14.5 -35t-14.5 -34.5 t-34.5 -14.5z" />
<glyph unicode="&#xfc05;" horiz-adv-x="918" arabic-form="isolated" d="M649 -5l10 82q49 0 78 6t42 24.5t13 55.5q0 38 -17.5 95.5t-39.5 114.5l81 30q13 -32 24.5 -73t19.5 -81t8 -70q0 -100 -53.5 -142t-165.5 -42zM756 -191q-21 0 -35.5 14.5t-14.5 34.5t14.5 35t35.5 15q20 0 34.5 -15t14.5 -35t-14.5 -34.5t-34.5 -14.5zM360 -394 q-70 0 -133.5 16t-112 49.5t-76.5 84.5t-28 120q0 92 43 171t123.5 139.5t191.5 97.5q-49 16 -102.5 32.5t-124.5 16.5q-30 0 -52.5 -5t-42.5 -10l-14 74q26 11 58.5 17.5t65.5 6.5q46 0 82 -8.5t68.5 -20.5t68.5 -24.5t80.5 -21t105.5 -9.5h9l2 -82q-52 0 -109 -12 q8 -56 26 -88.5t44.5 -48t58.5 -20t67 -4.5q21 0 30.5 -11.5t9.5 -27.5t-13.5 -29.5t-35.5 -13.5q-42 0 -84.5 6t-79 27t-60.5 66.5t-29 125.5q-58 -20 -113 -51t-98 -73t-68.5 -94.5t-25.5 -115.5q0 -70 38 -113.5t101.5 -63.5t138.5 -20q99 0 201 40l28 -68 q-58 -28 -119 -41.5t-120 -13.5zM329 -124q-21 0 -35.5 14.5t-14.5 34.5t14.5 35t35.5 15q20 0 34.5 -15t14.5 -35t-14.5 -34.5t-34.5 -14.5z" />
<glyph unicode="&#xfc06;" horiz-adv-x="918" arabic-form="isolated" d="M649 -5l10 82q49 0 78 6t42 24.5t13 55.5q0 38 -17.5 95.5t-39.5 114.5l81 30q13 -32 24.5 -73t19.5 -81t8 -70q0 -100 -53.5 -142t-165.5 -42zM756 -191q-21 0 -35.5 14.5t-14.5 34.5t14.5 35t35.5 15q20 0 34.5 -15t14.5 -35t-14.5 -34.5t-34.5 -14.5zM360 -394 q-70 0 -133.5 16t-112 49.5t-76.5 84.5t-28 120q0 92 43 171t123.5 139.5t191.5 97.5q-49 16 -102.5 32.5t-124.5 16.5q-30 0 -52.5 -5t-42.5 -10l-14 74q26 11 58.5 17.5t65.5 6.5q46 0 82 -8.5t68.5 -20.5t68.5 -24.5t80.5 -21t105.5 -9.5h9l2 -82q-52 0 -109 -12 q8 -56 26 -88.5t44.5 -48t58.5 -20t67 -4.5q21 0 30.5 -11.5t9.5 -27.5t-13.5 -29.5t-35.5 -13.5q-42 0 -84.5 6t-79 27t-60.5 66.5t-29 125.5q-58 -20 -113 -51t-98 -73t-68.5 -94.5t-25.5 -115.5q0 -70 38 -113.5t101.5 -63.5t138.5 -20q99 0 201 40l28 -68 q-58 -28 -119 -41.5t-120 -13.5z" />
<glyph unicode="&#xfc07;" horiz-adv-x="918" arabic-form="isolated" d="M649 -5l10 82q49 0 78 6t42 24.5t13 55.5q0 38 -17.5 95.5t-39.5 114.5l81 30q13 -32 24.5 -73t19.5 -81t8 -70q0 -100 -53.5 -142t-165.5 -42zM756 -191q-21 0 -35.5 14.5t-14.5 34.5t14.5 35t35.5 15q20 0 34.5 -15t14.5 -35t-14.5 -34.5t-34.5 -14.5zM360 -394 q-70 0 -133.5 16t-112 49.5t-76.5 84.5t-28 120q0 92 43 171t123.5 139.5t191.5 97.5q-49 16 -102.5 32.5t-124.5 16.5q-30 0 -52.5 -5t-42.5 -10l-14 74q26 11 58.5 17.5t65.5 6.5q46 0 82 -8.5t68.5 -20.5t68.5 -24.5t80.5 -21t105.5 -9.5h9l2 -82q-52 0 -109 -12 q8 -56 26 -88.5t44.5 -48t58.5 -20t67 -4.5q21 0 30.5 -11.5t9.5 -27.5t-13.5 -29.5t-35.5 -13.5q-42 0 -84.5 6t-79 27t-60.5 66.5t-29 125.5q-58 -20 -113 -51t-98 -73t-68.5 -94.5t-25.5 -115.5q0 -70 38 -113.5t101.5 -63.5t138.5 -20q99 0 201 40l28 -68 q-58 -28 -119 -41.5t-120 -13.5zM312 519q-21 0 -35.5 14.5t-14.5 34.5t14.5 35t35.5 15q20 0 34.5 -15t14.5 -35t-14.5 -34.5t-34.5 -14.5z" />
<glyph unicode="&#xfc08;" horiz-adv-x="831" arabic-form="isolated" d="M562 -5l10 82q49 0 78 6t42 24.5t13 55.5q0 38 -17.5 95.5t-39.5 114.5l81 30q13 -32 24.5 -73t19.5 -81t8 -70q0 -100 -53.5 -142t-165.5 -42zM669 -191q-21 0 -35.5 14.5t-14.5 34.5t14.5 35t35.5 15q20 0 34.5 -15t14.5 -35t-14.5 -34.5t-34.5 -14.5zM77 -393 q-21 77 -36 150.5t-23 131.5t-8 86q0 74 24 135t62 107.5t82 79t85.5 49t70.5 16.5q25 0 44 -11t37 -43t38 -94q19 -57 36 -86.5t37 -40t46 -10.5q21 0 30.5 -11.5t9.5 -27.5t-14 -29.5t-36 -13.5q-35 0 -60.5 11.5t-45.5 31.5q-19 -29 -46 -42.5t-58 -13.5 q-37 0 -77.5 17.5t-77.5 51.5t-64 82q-25 -38 -33 -81.5t-8 -76.5q0 -28 6 -71.5t15.5 -92.5t21 -97.5t21.5 -87.5zM360 64q26 0 39 16t3 47q-23 73 -41.5 109.5t-40.5 36.5t-61.5 -19.5t-71.5 -56.5q22 -45 53.5 -75t63 -44t56.5 -14z" />
<glyph unicode="&#xfc09;" horiz-adv-x="1005" arabic-form="isolated" d="M736 -5l10 82q49 0 78 6t42 24.5t13 55.5q0 38 -17.5 95.5t-39.5 114.5l81 30q13 -32 24.5 -73t19.5 -81t8 -70q0 -100 -53.5 -142t-165.5 -42zM843 -191q-21 0 -35.5 14.5t-14.5 34.5t14.5 35t35.5 15q20 0 34.5 -15t14.5 -35t-14.5 -34.5t-34.5 -14.5zM30 -1 q0 36 10 80t32 97l72 -28q-16 -42 -24 -77t-8 -65q0 -55 32.5 -90t86 -51t117.5 -16q77 0 140.5 18t101.5 47.5t38 65.5q0 26 -40 45t-112 39l19 83q104 -40 162 -55t89 -15q21 0 30.5 -11.5t9.5 -27.5t-14 -29.5t-36 -13.5h-37q2 -9 3 -14.5t1 -14.5q0 -49 -45 -94.5 t-129.5 -74.5t-202.5 -29q-79 0 -146.5 25.5t-108.5 76.5t-41 129z" />
<glyph unicode="&#xfc0a;" horiz-adv-x="1005" arabic-form="isolated" d="M736 -5l10 82q49 0 78 6t42 24.5t13 55.5q0 38 -17.5 95.5t-39.5 114.5l81 30q13 -32 24.5 -73t19.5 -81t8 -70q0 -100 -53.5 -142t-165.5 -42zM843 -191q-21 0 -35.5 14.5t-14.5 34.5t14.5 35t35.5 15q20 0 34.5 -15t14.5 -35t-14.5 -34.5t-34.5 -14.5zM30 -1 q0 36 10 80t32 97l72 -28q-16 -42 -24 -77t-8 -65q0 -55 32.5 -90t86 -51t117.5 -16q77 0 140.5 18t101.5 47.5t38 65.5q0 26 -40 45t-112 39l19 83q104 -40 162 -55t89 -15q21 0 30.5 -11.5t9.5 -27.5t-14 -29.5t-36 -13.5h-37q2 -9 3 -14.5t1 -14.5q0 -49 -45 -94.5 t-129.5 -74.5t-202.5 -29q-79 0 -146.5 25.5t-108.5 76.5t-41 129zM398 -421q-21 0 -35.5 14.5t-14.5 34.5t14.5 35t35.5 15q20 0 34.5 -15t14.5 -35t-14.5 -34.5t-34.5 -14.5zM261 -421q-21 0 -35.5 14.5t-14.5 34.5t14.5 35t35.5 15q20 0 34.5 -15t14.5 -35t-14.5 -34.5 t-34.5 -14.5z" />
<glyph unicode="&#xfc0b;" horiz-adv-x="948" arabic-form="isolated" d="M867 507q-21 0 -35.5 14.5t-14.5 34.5t14.5 35t35.5 15q20 0 34.5 -15t14.5 -35t-14.5 -34.5t-34.5 -14.5zM730 507q-21 0 -35.5 14.5t-14.5 34.5t14.5 35t35.5 15q20 0 34.5 -15t14.5 -35t-14.5 -34.5t-34.5 -14.5zM649 -5l10 82q59 0 92 4.5t47 23t14 58.5 q0 38 -17.5 95.5t-39.5 114.5l81 30q13 -32 24.5 -73t19.5 -81t8 -70q0 -100 -56 -142t-183 -42zM360 -394q-70 0 -133.5 16t-112 49.5t-76.5 84.5t-28 120q0 92 43 171t123.5 139.5t191.5 97.5q-49 16 -102.5 32.5t-124.5 16.5q-30 0 -52.5 -5t-42.5 -10l-14 74 q26 11 58.5 17.5t65.5 6.5q46 0 82 -8.5t68.5 -20.5t68.5 -24.5t80.5 -21t105.5 -9.5h9l2 -82q-52 0 -109 -12q8 -56 26 -88.5t44.5 -48t58.5 -20t67 -4.5q21 0 30.5 -11.5t9.5 -27.5t-13.5 -29.5t-35.5 -13.5q-42 0 -84.5 6t-79 27t-60.5 66.5t-29 125.5q-58 -20 -113 -51 t-98 -73t-68.5 -94.5t-25.5 -115.5q0 -70 38 -113.5t101.5 -63.5t138.5 -20q99 0 201 40l28 -68q-58 -28 -119 -41.5t-120 -13.5zM329 -124q-21 0 -35.5 14.5t-14.5 34.5t14.5 35t35.5 15q20 0 34.5 -15t14.5 -35t-14.5 -34.5t-34.5 -14.5z" />
<glyph unicode="&#xfc0c;" horiz-adv-x="948" arabic-form="isolated" d="M867 507q-21 0 -35.5 14.5t-14.5 34.5t14.5 35t35.5 15q20 0 34.5 -15t14.5 -35t-14.5 -34.5t-34.5 -14.5zM730 507q-21 0 -35.5 14.5t-14.5 34.5t14.5 35t35.5 15q20 0 34.5 -15t14.5 -35t-14.5 -34.5t-34.5 -14.5zM649 -5l10 82q59 0 92 4.5t47 23t14 58.5 q0 38 -17.5 95.5t-39.5 114.5l81 30q13 -32 24.5 -73t19.5 -81t8 -70q0 -100 -56 -142t-183 -42zM360 -394q-70 0 -133.5 16t-112 49.5t-76.5 84.5t-28 120q0 92 43 171t123.5 139.5t191.5 97.5q-49 16 -102.5 32.5t-124.5 16.5q-30 0 -52.5 -5t-42.5 -10l-14 74 q26 11 58.5 17.5t65.5 6.5q46 0 82 -8.5t68.5 -20.5t68.5 -24.5t80.5 -21t105.5 -9.5h9l2 -82q-52 0 -109 -12q8 -56 26 -88.5t44.5 -48t58.5 -20t67 -4.5q21 0 30.5 -11.5t9.5 -27.5t-13.5 -29.5t-35.5 -13.5q-42 0 -84.5 6t-79 27t-60.5 66.5t-29 125.5q-58 -20 -113 -51 t-98 -73t-68.5 -94.5t-25.5 -115.5q0 -70 38 -113.5t101.5 -63.5t138.5 -20q99 0 201 40l28 -68q-58 -28 -119 -41.5t-120 -13.5z" />
<glyph unicode="&#xfc0d;" horiz-adv-x="948" arabic-form="isolated" d="M867 507q-21 0 -35.5 14.5t-14.5 34.5t14.5 35t35.5 15q20 0 34.5 -15t14.5 -35t-14.5 -34.5t-34.5 -14.5zM730 507q-21 0 -35.5 14.5t-14.5 34.5t14.5 35t35.5 15q20 0 34.5 -15t14.5 -35t-14.5 -34.5t-34.5 -14.5zM649 -5l10 82q59 0 92 4.5t47 23t14 58.5 q0 38 -17.5 95.5t-39.5 114.5l81 30q13 -32 24.5 -73t19.5 -81t8 -70q0 -100 -56 -142t-183 -42zM360 -394q-70 0 -133.5 16t-112 49.5t-76.5 84.5t-28 120q0 92 43 171t123.5 139.5t191.5 97.5q-49 16 -102.5 32.5t-124.5 16.5q-30 0 -52.5 -5t-42.5 -10l-14 74 q26 11 58.5 17.5t65.5 6.5q46 0 82 -8.5t68.5 -20.5t68.5 -24.5t80.5 -21t105.5 -9.5h9l2 -82q-52 0 -109 -12q8 -56 26 -88.5t44.5 -48t58.5 -20t67 -4.5q21 0 30.5 -11.5t9.5 -27.5t-13.5 -29.5t-35.5 -13.5q-42 0 -84.5 6t-79 27t-60.5 66.5t-29 125.5q-58 -20 -113 -51 t-98 -73t-68.5 -94.5t-25.5 -115.5q0 -70 38 -113.5t101.5 -63.5t138.5 -20q99 0 201 40l28 -68q-58 -28 -119 -41.5t-120 -13.5zM312 519q-21 0 -35.5 14.5t-14.5 34.5t14.5 35t35.5 15q20 0 34.5 -15t14.5 -35t-14.5 -34.5t-34.5 -14.5z" />
<glyph unicode="&#xfc0e;" horiz-adv-x="861" arabic-form="isolated" d="M780 507q-21 0 -35.5 14.5t-14.5 34.5t14.5 35t35.5 15q20 0 34.5 -15t14.5 -35t-14.5 -34.5t-34.5 -14.5zM643 507q-21 0 -35.5 14.5t-14.5 34.5t14.5 35t35.5 15q20 0 34.5 -15t14.5 -35t-14.5 -34.5t-34.5 -14.5zM562 -5l10 82q59 0 92 4.5t47 23t14 58.5 q0 38 -17.5 95.5t-39.5 114.5l81 30q13 -32 24.5 -73t19.5 -81t8 -70q0 -100 -56 -142t-183 -42zM77 -393q-21 77 -36 150.5t-23 131.5t-8 86q0 74 24 135t62 107.5t82 79t85.5 49t70.5 16.5q25 0 44 -11t37 -43t38 -94q19 -57 36 -86.5t37 -40t46 -10.5q21 0 30.5 -11.5 t9.5 -27.5t-14 -29.5t-36 -13.5q-35 0 -60.5 11.5t-45.5 31.5q-19 -29 -46 -42.5t-58 -13.5q-37 0 -77.5 17.5t-77.5 51.5t-64 82q-25 -38 -33 -81.5t-8 -76.5q0 -28 6 -71.5t15.5 -92.5t21 -97.5t21.5 -87.5zM360 64q26 0 39 16t3 47q-23 73 -41.5 109.5t-40.5 36.5 t-61.5 -19.5t-71.5 -56.5q22 -45 53.5 -75t63 -44t56.5 -14z" />
<glyph unicode="&#xfc0f;" horiz-adv-x="1035" arabic-form="isolated" d="M954 507q-21 0 -35.5 14.5t-14.5 34.5t14.5 35t35.5 15q20 0 34.5 -15t14.5 -35t-14.5 -34.5t-34.5 -14.5zM817 507q-21 0 -35.5 14.5t-14.5 34.5t14.5 35t35.5 15q20 0 34.5 -15t14.5 -35t-14.5 -34.5t-34.5 -14.5zM736 -5l10 82q59 0 92 4.5t47 23t14 58.5 q0 38 -17.5 95.5t-39.5 114.5l81 30q13 -32 24.5 -73t19.5 -81t8 -70q0 -100 -56 -142t-183 -42zM30 -1q0 36 10 80t32 97l72 -28q-16 -42 -24 -77t-8 -65q0 -55 32.5 -90t86 -51t117.5 -16q77 0 140.5 18t101.5 47.5t38 65.5q0 26 -40 45t-112 39l19 83q104 -40 162 -55 t89 -15q21 0 30.5 -11.5t9.5 -27.5t-14 -29.5t-36 -13.5h-37q2 -9 3 -14.5t1 -14.5q0 -49 -45 -94.5t-129.5 -74.5t-202.5 -29q-79 0 -146.5 25.5t-108.5 76.5t-41 129z" />
<glyph unicode="&#xfc10;" horiz-adv-x="1035" arabic-form="isolated" d="M954 507q-21 0 -35.5 14.5t-14.5 34.5t14.5 35t35.5 15q20 0 34.5 -15t14.5 -35t-14.5 -34.5t-34.5 -14.5zM817 507q-21 0 -35.5 14.5t-14.5 34.5t14.5 35t35.5 15q20 0 34.5 -15t14.5 -35t-14.5 -34.5t-34.5 -14.5zM736 -5l10 82q59 0 92 4.5t47 23t14 58.5 q0 38 -17.5 95.5t-39.5 114.5l81 30q13 -32 24.5 -73t19.5 -81t8 -70q0 -100 -56 -142t-183 -42zM30 -1q0 36 10 80t32 97l72 -28q-16 -42 -24 -77t-8 -65q0 -55 32.5 -90t86 -51t117.5 -16q77 0 140.5 18t101.5 47.5t38 65.5q0 26 -40 45t-112 39l19 83q104 -40 162 -55 t89 -15q21 0 30.5 -11.5t9.5 -27.5t-14 -29.5t-36 -13.5h-37q2 -9 3 -14.5t1 -14.5q0 -49 -45 -94.5t-129.5 -74.5t-202.5 -29q-79 0 -146.5 25.5t-108.5 76.5t-41 129zM398 -421q-21 0 -35.5 14.5t-14.5 34.5t14.5 35t35.5 15q20 0 34.5 -15t14.5 -35t-14.5 -34.5 t-34.5 -14.5zM261 -421q-21 0 -35.5 14.5t-14.5 34.5t14.5 35t35.5 15q20 0 34.5 -15t14.5 -35t-14.5 -34.5t-34.5 -14.5z" />
<glyph unicode="&#xfc11;" horiz-adv-x="948" arabic-form="isolated" d="M799 617q-21 0 -35.5 14.5t-14.5 34.5t14.5 35t35.5 15q20 0 34.5 -15t14.5 -35t-14.5 -34.5t-34.5 -14.5zM731 507q-21 0 -35.5 14.5t-14.5 34.5t14.5 35t35.5 15q20 0 34.5 -15t14.5 -35t-14.5 -34.5t-34.5 -14.5zM867 507q-21 0 -35.5 14.5t-14.5 34.5t14.5 35 t35.5 15q20 0 34.5 -15t14.5 -35t-14.5 -34.5t-34.5 -14.5zM649 -5l10 82q59 0 92 4.5t47 23t14 58.5q0 38 -17.5 95.5t-39.5 114.5l81 30q13 -32 24.5 -73t19.5 -81t8 -70q0 -100 -56 -142t-183 -42zM360 -394q-70 0 -133.5 16t-112 49.5t-76.5 84.5t-28 120q0 92 43 171 t123.5 139.5t191.5 97.5q-49 16 -102.5 32.5t-124.5 16.5q-30 0 -52.5 -5t-42.5 -10l-14 74q26 11 58.5 17.5t65.5 6.5q46 0 82 -8.5t68.5 -20.5t68.5 -24.5t80.5 -21t105.5 -9.5h9l2 -82q-52 0 -109 -12q8 -56 26 -88.5t44.5 -48t58.5 -20t67 -4.5q21 0 30.5 -11.5 t9.5 -27.5t-13.5 -29.5t-35.5 -13.5q-42 0 -84.5 6t-79 27t-60.5 66.5t-29 125.5q-58 -20 -113 -51t-98 -73t-68.5 -94.5t-25.5 -115.5q0 -70 38 -113.5t101.5 -63.5t138.5 -20q99 0 201 40l28 -68q-58 -28 -119 -41.5t-120 -13.5zM329 -124q-21 0 -35.5 14.5t-14.5 34.5 t14.5 35t35.5 15q20 0 34.5 -15t14.5 -35t-14.5 -34.5t-34.5 -14.5z" />
<glyph unicode="&#xfc12;" horiz-adv-x="861" arabic-form="isolated" d="M712 617q-21 0 -35.5 14.5t-14.5 34.5t14.5 35t35.5 15q20 0 34.5 -15t14.5 -35t-14.5 -34.5t-34.5 -14.5zM644 507q-21 0 -35.5 14.5t-14.5 34.5t14.5 35t35.5 15q20 0 34.5 -15t14.5 -35t-14.5 -34.5t-34.5 -14.5zM780 507q-21 0 -35.5 14.5t-14.5 34.5t14.5 35 t35.5 15q20 0 34.5 -15t14.5 -35t-14.5 -34.5t-34.5 -14.5zM562 -5l10 82q59 0 92 4.5t47 23t14 58.5q0 38 -17.5 95.5t-39.5 114.5l81 30q13 -32 24.5 -73t19.5 -81t8 -70q0 -100 -56 -142t-183 -42zM77 -393q-21 77 -36 150.5t-23 131.5t-8 86q0 74 24 135t62 107.5t82 79 t85.5 49t70.5 16.5q25 0 44 -11t37 -43t38 -94q19 -57 36 -86.5t37 -40t46 -10.5q21 0 30.5 -11.5t9.5 -27.5t-14 -29.5t-36 -13.5q-35 0 -60.5 11.5t-45.5 31.5q-19 -29 -46 -42.5t-58 -13.5q-37 0 -77.5 17.5t-77.5 51.5t-64 82q-25 -38 -33 -81.5t-8 -76.5q0 -28 6 -71.5 t15.5 -92.5t21 -97.5t21.5 -87.5zM360 64q26 0 39 16t3 47q-23 73 -41.5 109.5t-40.5 36.5t-61.5 -19.5t-71.5 -56.5q22 -45 53.5 -75t63 -44t56.5 -14z" />
<glyph unicode="&#xfc13;" horiz-adv-x="1035" arabic-form="isolated" d="M886 617q-21 0 -35.5 14.5t-14.5 34.5t14.5 35t35.5 15q20 0 34.5 -15t14.5 -35t-14.5 -34.5t-34.5 -14.5zM818 507q-21 0 -35.5 14.5t-14.5 34.5t14.5 35t35.5 15q20 0 34.5 -15t14.5 -35t-14.5 -34.5t-34.5 -14.5zM954 507q-21 0 -35.5 14.5t-14.5 34.5t14.5 35 t35.5 15q20 0 34.5 -15t14.5 -35t-14.5 -34.5t-34.5 -14.5zM736 -5l10 82q59 0 92 4.5t47 23t14 58.5q0 38 -17.5 95.5t-39.5 114.5l81 30q13 -32 24.5 -73t19.5 -81t8 -70q0 -100 -56 -142t-183 -42zM30 -1q0 36 10 80t32 97l72 -28q-16 -42 -24 -77t-8 -65q0 -55 32.5 -90 t86 -51t117.5 -16q77 0 140.5 18t101.5 47.5t38 65.5q0 26 -40 45t-112 39l19 83q104 -40 162 -55t89 -15q21 0 30.5 -11.5t9.5 -27.5t-14 -29.5t-36 -13.5h-37q2 -9 3 -14.5t1 -14.5q0 -49 -45 -94.5t-129.5 -74.5t-202.5 -29q-79 0 -146.5 25.5t-108.5 76.5t-41 129z" />
<glyph unicode="&#xfc14;" horiz-adv-x="1035" arabic-form="isolated" d="M886 617q-21 0 -35.5 14.5t-14.5 34.5t14.5 35t35.5 15q20 0 34.5 -15t14.5 -35t-14.5 -34.5t-34.5 -14.5zM818 507q-21 0 -35.5 14.5t-14.5 34.5t14.5 35t35.5 15q20 0 34.5 -15t14.5 -35t-14.5 -34.5t-34.5 -14.5zM954 507q-21 0 -35.5 14.5t-14.5 34.5t14.5 35 t35.5 15q20 0 34.5 -15t14.5 -35t-14.5 -34.5t-34.5 -14.5zM736 -5l10 82q59 0 92 4.5t47 23t14 58.5q0 38 -17.5 95.5t-39.5 114.5l81 30q13 -32 24.5 -73t19.5 -81t8 -70q0 -100 -56 -142t-183 -42zM30 -1q0 36 10 80t32 97l72 -28q-16 -42 -24 -77t-8 -65q0 -55 32.5 -90 t86 -51t117.5 -16q77 0 140.5 18t101.5 47.5t38 65.5q0 26 -40 45t-112 39l19 83q104 -40 162 -55t89 -15q21 0 30.5 -11.5t9.5 -27.5t-14 -29.5t-36 -13.5h-37q2 -9 3 -14.5t1 -14.5q0 -49 -45 -94.5t-129.5 -74.5t-202.5 -29q-79 0 -146.5 25.5t-108.5 76.5t-41 129z M398 -421q-21 0 -35.5 14.5t-14.5 34.5t14.5 35t35.5 15q20 0 34.5 -15t14.5 -35t-14.5 -34.5t-34.5 -14.5zM261 -421q-21 0 -35.5 14.5t-14.5 34.5t14.5 35t35.5 15q20 0 34.5 -15t14.5 -35t-14.5 -34.5t-34.5 -14.5z" />
<glyph unicode="&#xfc15;" horiz-adv-x="1238" arabic-form="isolated" d="M649 -5l9 82q104 0 200.5 31t176.5 86q-39 35 -95.5 55.5t-124.5 20.5q-25 0 -44 -2.5t-46 -8.5l-16 76q56 17 106 17q52 0 94 -12.5t76.5 -30.5t65 -36t59.5 -30.5t60 -12.5h21l7 -72q-51 0 -93 -16.5t-84.5 -40.5t-93 -48.5t-117.5 -41t-161 -16.5zM928 -186 q-21 0 -35.5 14.5t-14.5 34.5t14.5 35t35.5 15q20 0 34.5 -15t14.5 -35t-14.5 -34.5t-34.5 -14.5zM360 -394q-70 0 -133.5 16t-112 49.5t-76.5 84.5t-28 120q0 92 43 171t123.5 139.5t191.5 97.5q-49 16 -102.5 32.5t-124.5 16.5q-30 0 -52.5 -5t-42.5 -10l-14 74 q26 11 58.5 17.5t65.5 6.5q46 0 82 -8.5t68.5 -20.5t68.5 -24.5t80.5 -21t105.5 -9.5h9l2 -82q-52 0 -109 -12q8 -56 26 -88.5t44.5 -48t58.5 -20t67 -4.5q21 0 30.5 -11.5t9.5 -27.5t-13.5 -29.5t-35.5 -13.5q-42 0 -84.5 6t-79 27t-60.5 66.5t-29 125.5q-58 -20 -113 -51 t-98 -73t-68.5 -94.5t-25.5 -115.5q0 -70 38 -113.5t101.5 -63.5t138.5 -20q99 0 201 40l28 -68q-58 -28 -119 -41.5t-120 -13.5z" />
<glyph unicode="&#xfc16;" horiz-adv-x="1151" arabic-form="isolated" d="M562 -5l9 82q104 0 200.5 31t176.5 86q-39 35 -95.5 55.5t-124.5 20.5q-25 0 -44 -2.5t-46 -8.5l-16 76q56 17 106 17q52 0 94 -12.5t76.5 -30.5t65 -36t59.5 -30.5t60 -12.5h21l7 -72q-51 0 -93 -16.5t-84.5 -40.5t-93 -48.5t-117.5 -41t-161 -16.5zM841 -186 q-21 0 -35.5 14.5t-14.5 34.5t14.5 35t35.5 15q20 0 34.5 -15t14.5 -35t-14.5 -34.5t-34.5 -14.5zM77 -393q-21 77 -36 150.5t-23 131.5t-8 86q0 74 24 135t62 107.5t82 79t85.5 49t70.5 16.5q25 0 44 -11t37 -43t38 -94q19 -57 36 -86.5t37 -40t46 -10.5q21 0 30.5 -11.5 t9.5 -27.5t-14 -29.5t-36 -13.5q-35 0 -60.5 11.5t-45.5 31.5q-19 -29 -46 -42.5t-58 -13.5q-37 0 -77.5 17.5t-77.5 51.5t-64 82q-25 -38 -33 -81.5t-8 -76.5q0 -28 6 -71.5t15.5 -92.5t21 -97.5t21.5 -87.5zM360 64q26 0 39 16t3 47q-23 73 -41.5 109.5t-40.5 36.5 t-61.5 -19.5t-71.5 -56.5q22 -45 53.5 -75t63 -44t56.5 -14z" />
<glyph unicode="&#xfc17;" horiz-adv-x="1238" arabic-form="isolated" d="M649 -5l9 82q104 0 200.5 31t176.5 86q-39 35 -95.5 55.5t-124.5 20.5q-25 0 -44 -2.5t-46 -8.5l-16 76q56 17 106 17q52 0 94 -12.5t76.5 -30.5t65 -36t59.5 -30.5t60 -12.5h21l7 -72q-51 0 -93 -16.5t-84.5 -40.5t-93 -48.5t-117.5 -41t-161 -16.5zM360 -394 q-70 0 -133.5 16t-112 49.5t-76.5 84.5t-28 120q0 92 43 171t123.5 139.5t191.5 97.5q-49 16 -102.5 32.5t-124.5 16.5q-30 0 -52.5 -5t-42.5 -10l-14 74q26 11 58.5 17.5t65.5 6.5q46 0 82 -8.5t68.5 -20.5t68.5 -24.5t80.5 -21t105.5 -9.5h9l2 -82q-52 0 -109 -12 q8 -56 26 -88.5t44.5 -48t58.5 -20t67 -4.5q21 0 30.5 -11.5t9.5 -27.5t-13.5 -29.5t-35.5 -13.5q-42 0 -84.5 6t-79 27t-60.5 66.5t-29 125.5q-58 -20 -113 -51t-98 -73t-68.5 -94.5t-25.5 -115.5q0 -70 38 -113.5t101.5 -63.5t138.5 -20q99 0 201 40l28 -68 q-58 -28 -119 -41.5t-120 -13.5zM329 -124q-21 0 -35.5 14.5t-14.5 34.5t14.5 35t35.5 15q20 0 34.5 -15t14.5 -35t-14.5 -34.5t-34.5 -14.5z" />
<glyph unicode="&#xfc18;" horiz-adv-x="1151" arabic-form="isolated" d="M562 -5l9 82q104 0 200.5 31t176.5 86q-39 35 -95.5 55.5t-124.5 20.5q-25 0 -44 -2.5t-46 -8.5l-16 76q56 17 106 17q52 0 94 -12.5t76.5 -30.5t65 -36t59.5 -30.5t60 -12.5h21l7 -72q-51 0 -93 -16.5t-84.5 -40.5t-93 -48.5t-117.5 -41t-161 -16.5zM77 -393 q-21 77 -36 150.5t-23 131.5t-8 86q0 74 24 135t62 107.5t82 79t85.5 49t70.5 16.5q25 0 44 -11t37 -43t38 -94q19 -57 36 -86.5t37 -40t46 -10.5q21 0 30.5 -11.5t9.5 -27.5t-14 -29.5t-36 -13.5q-35 0 -60.5 11.5t-45.5 31.5q-19 -29 -46 -42.5t-58 -13.5 q-37 0 -77.5 17.5t-77.5 51.5t-64 82q-25 -38 -33 -81.5t-8 -76.5q0 -28 6 -71.5t15.5 -92.5t21 -97.5t21.5 -87.5zM360 64q26 0 39 16t3 47q-23 73 -41.5 109.5t-40.5 36.5t-61.5 -19.5t-71.5 -56.5q22 -45 53.5 -75t63 -44t56.5 -14z" />
<glyph unicode="&#xfc19;" horiz-adv-x="1238" arabic-form="isolated" d="M649 -5l9 82q104 0 200.5 31t176.5 86q-39 35 -95.5 55.5t-124.5 20.5q-25 0 -44 -2.5t-46 -8.5l-16 76q56 17 106 17q52 0 94 -12.5t76.5 -30.5t65 -36t59.5 -30.5t60 -12.5h21l7 -72q-51 0 -93 -16.5t-84.5 -40.5t-93 -48.5t-117.5 -41t-161 -16.5zM816 455 q-21 0 -35.5 14.5t-14.5 34.5t14.5 35t35.5 15q20 0 34.5 -15t14.5 -35t-14.5 -34.5t-34.5 -14.5zM360 -394q-70 0 -133.5 16t-112 49.5t-76.5 84.5t-28 120q0 92 43 171t123.5 139.5t191.5 97.5q-49 16 -102.5 32.5t-124.5 16.5q-30 0 -52.5 -5t-42.5 -10l-14 74 q26 11 58.5 17.5t65.5 6.5q46 0 82 -8.5t68.5 -20.5t68.5 -24.5t80.5 -21t105.5 -9.5h9l2 -82q-52 0 -109 -12q8 -56 26 -88.5t44.5 -48t58.5 -20t67 -4.5q21 0 30.5 -11.5t9.5 -27.5t-13.5 -29.5t-35.5 -13.5q-42 0 -84.5 6t-79 27t-60.5 66.5t-29 125.5q-58 -20 -113 -51 t-98 -73t-68.5 -94.5t-25.5 -115.5q0 -70 38 -113.5t101.5 -63.5t138.5 -20q99 0 201 40l28 -68q-58 -28 -119 -41.5t-120 -13.5zM329 -124q-21 0 -35.5 14.5t-14.5 34.5t14.5 35t35.5 15q20 0 34.5 -15t14.5 -35t-14.5 -34.5t-34.5 -14.5z" />
<glyph unicode="&#xfc1a;" horiz-adv-x="1238" arabic-form="isolated" d="M649 -5l9 82q104 0 200.5 31t176.5 86q-39 35 -95.5 55.5t-124.5 20.5q-25 0 -44 -2.5t-46 -8.5l-16 76q56 17 106 17q52 0 94 -12.5t76.5 -30.5t65 -36t59.5 -30.5t60 -12.5h21l7 -72q-51 0 -93 -16.5t-84.5 -40.5t-93 -48.5t-117.5 -41t-161 -16.5zM816 455 q-21 0 -35.5 14.5t-14.5 34.5t14.5 35t35.5 15q20 0 34.5 -15t14.5 -35t-14.5 -34.5t-34.5 -14.5zM360 -394q-70 0 -133.5 16t-112 49.5t-76.5 84.5t-28 120q0 92 43 171t123.5 139.5t191.5 97.5q-49 16 -102.5 32.5t-124.5 16.5q-30 0 -52.5 -5t-42.5 -10l-14 74 q26 11 58.5 17.5t65.5 6.5q46 0 82 -8.5t68.5 -20.5t68.5 -24.5t80.5 -21t105.5 -9.5h9l2 -82q-52 0 -109 -12q8 -56 26 -88.5t44.5 -48t58.5 -20t67 -4.5q21 0 30.5 -11.5t9.5 -27.5t-13.5 -29.5t-35.5 -13.5q-42 0 -84.5 6t-79 27t-60.5 66.5t-29 125.5q-58 -20 -113 -51 t-98 -73t-68.5 -94.5t-25.5 -115.5q0 -70 38 -113.5t101.5 -63.5t138.5 -20q99 0 201 40l28 -68q-58 -28 -119 -41.5t-120 -13.5z" />
<glyph unicode="&#xfc1b;" horiz-adv-x="1151" arabic-form="isolated" d="M562 -5l9 82q104 0 200.5 31t176.5 86q-39 35 -95.5 55.5t-124.5 20.5q-25 0 -44 -2.5t-46 -8.5l-16 76q56 17 106 17q52 0 94 -12.5t76.5 -30.5t65 -36t59.5 -30.5t60 -12.5h21l7 -72q-51 0 -93 -16.5t-84.5 -40.5t-93 -48.5t-117.5 -41t-161 -16.5zM729 455 q-21 0 -35.5 14.5t-14.5 34.5t14.5 35t35.5 15q20 0 34.5 -15t14.5 -35t-14.5 -34.5t-34.5 -14.5zM77 -393q-21 77 -36 150.5t-23 131.5t-8 86q0 74 24 135t62 107.5t82 79t85.5 49t70.5 16.5q25 0 44 -11t37 -43t38 -94q19 -57 36 -86.5t37 -40t46 -10.5q21 0 30.5 -11.5 t9.5 -27.5t-14 -29.5t-36 -13.5q-35 0 -60.5 11.5t-45.5 31.5q-19 -29 -46 -42.5t-58 -13.5q-37 0 -77.5 17.5t-77.5 51.5t-64 82q-25 -38 -33 -81.5t-8 -76.5q0 -28 6 -71.5t15.5 -92.5t21 -97.5t21.5 -87.5zM360 64q26 0 39 16t3 47q-23 73 -41.5 109.5t-40.5 36.5 t-61.5 -19.5t-71.5 -56.5q22 -45 53.5 -75t63 -44t56.5 -14z" />
<glyph unicode="&#xfc1c;" horiz-adv-x="1433" arabic-form="isolated" d="M649 -5l10 82q32 0 52 4.5t33.5 23t25.5 58.5t28 112l75 -21q-6 -25 -14 -60t-8 -64q0 -25 19 -39t69 -14q30 0 49 5t31.5 24t22.5 61t21 115l76 -14q-3 -18 -7 -44t-7.5 -51.5t-3.5 -42.5q0 -14 6.5 -26.5t26 -19.5t58.5 -7q44 0 69.5 17t25.5 69q0 38 -17.5 95.5 t-39.5 114.5l81 30q13 -32 24.5 -73t19.5 -81t8 -70q0 -93 -46 -138.5t-126 -45.5q-55 0 -86.5 14.5t-45.5 45.5q-24 -37 -57.5 -48.5t-94.5 -11.5q-21 0 -44.5 5t-43.5 19.5t-31 43.5q-26 -44 -64.5 -56t-94.5 -12zM360 -394q-70 0 -133.5 16t-112 49.5t-76.5 84.5t-28 120 q0 92 43 171t123.5 139.5t191.5 97.5q-49 16 -102.5 32.5t-124.5 16.5q-30 0 -52.5 -5t-42.5 -10l-14 74q26 11 58.5 17.5t65.5 6.5q46 0 82 -8.5t68.5 -20.5t68.5 -24.5t80.5 -21t105.5 -9.5h9l2 -82q-52 0 -109 -12q8 -56 26 -88.5t44.5 -48t58.5 -20t67 -4.5 q21 0 30.5 -11.5t9.5 -27.5t-13.5 -29.5t-35.5 -13.5q-42 0 -84.5 6t-79 27t-60.5 66.5t-29 125.5q-58 -20 -113 -51t-98 -73t-68.5 -94.5t-25.5 -115.5q0 -70 38 -113.5t101.5 -63.5t138.5 -20q99 0 201 40l28 -68q-58 -28 -119 -41.5t-120 -13.5zM329 -124 q-21 0 -35.5 14.5t-14.5 34.5t14.5 35t35.5 15q20 0 34.5 -15t14.5 -35t-14.5 -34.5t-34.5 -14.5z" />
<glyph unicode="&#xfc1d;" horiz-adv-x="1433" arabic-form="isolated" d="M649 -5l10 82q32 0 52 4.5t33.5 23t25.5 58.5t28 112l75 -21q-6 -25 -14 -60t-8 -64q0 -25 19 -39t69 -14q30 0 49 5t31.5 24t22.5 61t21 115l76 -14q-3 -18 -7 -44t-7.5 -51.5t-3.5 -42.5q0 -14 6.5 -26.5t26 -19.5t58.5 -7q44 0 69.5 17t25.5 69q0 38 -17.5 95.5 t-39.5 114.5l81 30q13 -32 24.5 -73t19.5 -81t8 -70q0 -93 -46 -138.5t-126 -45.5q-55 0 -86.5 14.5t-45.5 45.5q-24 -37 -57.5 -48.5t-94.5 -11.5q-21 0 -44.5 5t-43.5 19.5t-31 43.5q-26 -44 -64.5 -56t-94.5 -12zM360 -394q-70 0 -133.5 16t-112 49.5t-76.5 84.5t-28 120 q0 92 43 171t123.5 139.5t191.5 97.5q-49 16 -102.5 32.5t-124.5 16.5q-30 0 -52.5 -5t-42.5 -10l-14 74q26 11 58.5 17.5t65.5 6.5q46 0 82 -8.5t68.5 -20.5t68.5 -24.5t80.5 -21t105.5 -9.5h9l2 -82q-52 0 -109 -12q8 -56 26 -88.5t44.5 -48t58.5 -20t67 -4.5 q21 0 30.5 -11.5t9.5 -27.5t-13.5 -29.5t-35.5 -13.5q-42 0 -84.5 6t-79 27t-60.5 66.5t-29 125.5q-58 -20 -113 -51t-98 -73t-68.5 -94.5t-25.5 -115.5q0 -70 38 -113.5t101.5 -63.5t138.5 -20q99 0 201 40l28 -68q-58 -28 -119 -41.5t-120 -13.5z" />
<glyph unicode="&#xfc1e;" horiz-adv-x="1433" arabic-form="isolated" d="M649 -5l10 82q32 0 52 4.5t33.5 23t25.5 58.5t28 112l75 -21q-6 -25 -14 -60t-8 -64q0 -25 19 -39t69 -14q30 0 49 5t31.5 24t22.5 61t21 115l76 -14q-3 -18 -7 -44t-7.5 -51.5t-3.5 -42.5q0 -14 6.5 -26.5t26 -19.5t58.5 -7q44 0 69.5 17t25.5 69q0 38 -17.5 95.5 t-39.5 114.5l81 30q13 -32 24.5 -73t19.5 -81t8 -70q0 -93 -46 -138.5t-126 -45.5q-55 0 -86.5 14.5t-45.5 45.5q-24 -37 -57.5 -48.5t-94.5 -11.5q-21 0 -44.5 5t-43.5 19.5t-31 43.5q-26 -44 -64.5 -56t-94.5 -12zM360 -394q-70 0 -133.5 16t-112 49.5t-76.5 84.5t-28 120 q0 92 43 171t123.5 139.5t191.5 97.5q-49 16 -102.5 32.5t-124.5 16.5q-30 0 -52.5 -5t-42.5 -10l-14 74q26 11 58.5 17.5t65.5 6.5q46 0 82 -8.5t68.5 -20.5t68.5 -24.5t80.5 -21t105.5 -9.5h9l2 -82q-52 0 -109 -12q8 -56 26 -88.5t44.5 -48t58.5 -20t67 -4.5 q21 0 30.5 -11.5t9.5 -27.5t-13.5 -29.5t-35.5 -13.5q-42 0 -84.5 6t-79 27t-60.5 66.5t-29 125.5q-58 -20 -113 -51t-98 -73t-68.5 -94.5t-25.5 -115.5q0 -70 38 -113.5t101.5 -63.5t138.5 -20q99 0 201 40l28 -68q-58 -28 -119 -41.5t-120 -13.5zM312 519 q-21 0 -35.5 14.5t-14.5 34.5t14.5 35t35.5 15q20 0 34.5 -15t14.5 -35t-14.5 -34.5t-34.5 -14.5z" />
<glyph unicode="&#xfc1f;" horiz-adv-x="1346" arabic-form="isolated" d="M562 -5l10 82q32 0 52 4.5t33.5 23t25.5 58.5t28 112l75 -21q-6 -25 -14 -60t-8 -64q0 -25 19 -39t69 -14q30 0 49 5t31.5 24t22.5 61t21 115l76 -14q-3 -18 -7 -44t-7.5 -51.5t-3.5 -42.5q0 -14 6.5 -26.5t26 -19.5t58.5 -7q44 0 69.5 17t25.5 69q0 38 -17.5 95.5 t-39.5 114.5l81 30q13 -32 24.5 -73t19.5 -81t8 -70q0 -93 -46 -138.5t-126 -45.5q-55 0 -86.5 14.5t-45.5 45.5q-24 -37 -57.5 -48.5t-94.5 -11.5q-21 0 -44.5 5t-43.5 19.5t-31 43.5q-26 -44 -64.5 -56t-94.5 -12zM77 -393q-21 77 -36 150.5t-23 131.5t-8 86q0 74 24 135 t62 107.5t82 79t85.5 49t70.5 16.5q25 0 44 -11t37 -43t38 -94q19 -57 36 -86.5t37 -40t46 -10.5q21 0 30.5 -11.5t9.5 -27.5t-14 -29.5t-36 -13.5q-35 0 -60.5 11.5t-45.5 31.5q-19 -29 -46 -42.5t-58 -13.5q-37 0 -77.5 17.5t-77.5 51.5t-64 82q-25 -38 -33 -81.5 t-8 -76.5q0 -28 6 -71.5t15.5 -92.5t21 -97.5t21.5 -87.5zM360 64q26 0 39 16t3 47q-23 73 -41.5 109.5t-40.5 36.5t-61.5 -19.5t-71.5 -56.5q22 -45 53.5 -75t63 -44t56.5 -14z" />
<glyph unicode="&#xfc20;" horiz-adv-x="1552" arabic-form="isolated" d="M1133 -18q-107 0 -172.5 9.5t-99.5 29t-47 49.5q-24 -35 -50.5 -50.5t-55 -20t-59.5 -4.5l10 82q47 0 72 18.5t40 61.5t32 118l73 -19q-10 -35 -15.5 -63t-5.5 -42q0 -28 15.5 -46.5t64.5 -27.5q32 50 76 101.5t96 94.5t108.5 69.5t114.5 26.5q55 0 94.5 -22.5t61 -60.5 t21.5 -86q0 -59 -34.5 -108.5t-116.5 -79.5t-223 -30zM1324 287q-45 0 -90.5 -22.5t-86.5 -57.5t-74 -72.5t-55 -67.5q53 -3 133 -3q132 0 205.5 32.5t73.5 95.5q0 22 -11 43.5t-34 36.5t-61 15zM360 -394q-70 0 -133.5 16t-112 49.5t-76.5 84.5t-28 120q0 92 43 171 t123.5 139.5t191.5 97.5q-49 16 -102.5 32.5t-124.5 16.5q-30 0 -52.5 -5t-42.5 -10l-14 74q26 11 58.5 17.5t65.5 6.5q46 0 82 -8.5t68.5 -20.5t68.5 -24.5t80.5 -21t105.5 -9.5h9l2 -82q-52 0 -109 -12q8 -56 26 -88.5t44.5 -48t58.5 -20t67 -4.5q21 0 30.5 -11.5 t9.5 -27.5t-13.5 -29.5t-35.5 -13.5q-42 0 -84.5 6t-79 27t-60.5 66.5t-29 125.5q-58 -20 -113 -51t-98 -73t-68.5 -94.5t-25.5 -115.5q0 -70 38 -113.5t101.5 -63.5t138.5 -20q99 0 201 40l28 -68q-58 -28 -119 -41.5t-120 -13.5z" />
<glyph unicode="&#xfc21;" horiz-adv-x="1465" arabic-form="isolated" d="M1046 -18q-107 0 -172.5 9.5t-99.5 29t-47 49.5q-24 -35 -50.5 -50.5t-55 -20t-59.5 -4.5l10 82q47 0 72 18.5t40 61.5t32 118l73 -19q-10 -35 -15.5 -63t-5.5 -42q0 -28 15.5 -46.5t64.5 -27.5q32 50 76 101.5t96 94.5t108.5 69.5t114.5 26.5q55 0 94.5 -22.5t61 -60.5 t21.5 -86q0 -59 -34.5 -108.5t-116.5 -79.5t-223 -30zM1237 287q-45 0 -90.5 -22.5t-86.5 -57.5t-74 -72.5t-55 -67.5q53 -3 133 -3q132 0 205.5 32.5t73.5 95.5q0 22 -11 43.5t-34 36.5t-61 15zM77 -393q-21 77 -36 150.5t-23 131.5t-8 86q0 74 24 135t62 107.5t82 79 t85.5 49t70.5 16.5q25 0 44 -11t37 -43t38 -94q19 -57 36 -86.5t37 -40t46 -10.5q21 0 30.5 -11.5t9.5 -27.5t-14 -29.5t-36 -13.5q-35 0 -60.5 11.5t-45.5 31.5q-19 -29 -46 -42.5t-58 -13.5q-37 0 -77.5 17.5t-77.5 51.5t-64 82q-25 -38 -33 -81.5t-8 -76.5q0 -28 6 -71.5 t15.5 -92.5t21 -97.5t21.5 -87.5zM360 64q26 0 39 16t3 47q-23 73 -41.5 109.5t-40.5 36.5t-61.5 -19.5t-71.5 -56.5q22 -45 53.5 -75t63 -44t56.5 -14z" />
<glyph unicode="&#xfc22;" horiz-adv-x="1552" arabic-form="isolated" d="M1133 -18q-107 0 -172.5 9.5t-99.5 29t-47 49.5q-24 -35 -50.5 -50.5t-55 -20t-59.5 -4.5l10 82q47 0 72 18.5t40 61.5t32 118l73 -19q-10 -35 -15.5 -63t-5.5 -42q0 -28 15.5 -46.5t64.5 -27.5q32 50 76 101.5t96 94.5t108.5 69.5t114.5 26.5q55 0 94.5 -22.5t61 -60.5 t21.5 -86q0 -59 -34.5 -108.5t-116.5 -79.5t-223 -30zM1324 287q-45 0 -90.5 -22.5t-86.5 -57.5t-74 -72.5t-55 -67.5q53 -3 133 -3q132 0 205.5 32.5t73.5 95.5q0 22 -11 43.5t-34 36.5t-61 15zM1301 472q-21 0 -35.5 14.5t-14.5 34.5t14.5 35t35.5 15q20 0 34.5 -15 t14.5 -35t-14.5 -34.5t-34.5 -14.5zM360 -394q-70 0 -133.5 16t-112 49.5t-76.5 84.5t-28 120q0 92 43 171t123.5 139.5t191.5 97.5q-49 16 -102.5 32.5t-124.5 16.5q-30 0 -52.5 -5t-42.5 -10l-14 74q26 11 58.5 17.5t65.5 6.5q46 0 82 -8.5t68.5 -20.5t68.5 -24.5 t80.5 -21t105.5 -9.5h9l2 -82q-52 0 -109 -12q8 -56 26 -88.5t44.5 -48t58.5 -20t67 -4.5q21 0 30.5 -11.5t9.5 -27.5t-13.5 -29.5t-35.5 -13.5q-42 0 -84.5 6t-79 27t-60.5 66.5t-29 125.5q-58 -20 -113 -51t-98 -73t-68.5 -94.5t-25.5 -115.5q0 -70 38 -113.5t101.5 -63.5 t138.5 -20q99 0 201 40l28 -68q-58 -28 -119 -41.5t-120 -13.5zM329 -124q-21 0 -35.5 14.5t-14.5 34.5t14.5 35t35.5 15q20 0 34.5 -15t14.5 -35t-14.5 -34.5t-34.5 -14.5z" />
<glyph unicode="&#xfc23;" horiz-adv-x="1552" arabic-form="isolated" d="M1133 -18q-107 0 -172.5 9.5t-99.5 29t-47 49.5q-24 -35 -50.5 -50.5t-55 -20t-59.5 -4.5l10 82q47 0 72 18.5t40 61.5t32 118l73 -19q-10 -35 -15.5 -63t-5.5 -42q0 -28 15.5 -46.5t64.5 -27.5q32 50 76 101.5t96 94.5t108.5 69.5t114.5 26.5q55 0 94.5 -22.5t61 -60.5 t21.5 -86q0 -59 -34.5 -108.5t-116.5 -79.5t-223 -30zM1324 287q-45 0 -90.5 -22.5t-86.5 -57.5t-74 -72.5t-55 -67.5q53 -3 133 -3q132 0 205.5 32.5t73.5 95.5q0 22 -11 43.5t-34 36.5t-61 15zM1301 472q-21 0 -35.5 14.5t-14.5 34.5t14.5 35t35.5 15q20 0 34.5 -15 t14.5 -35t-14.5 -34.5t-34.5 -14.5zM360 -394q-70 0 -133.5 16t-112 49.5t-76.5 84.5t-28 120q0 92 43 171t123.5 139.5t191.5 97.5q-49 16 -102.5 32.5t-124.5 16.5q-30 0 -52.5 -5t-42.5 -10l-14 74q26 11 58.5 17.5t65.5 6.5q46 0 82 -8.5t68.5 -20.5t68.5 -24.5 t80.5 -21t105.5 -9.5h9l2 -82q-52 0 -109 -12q8 -56 26 -88.5t44.5 -48t58.5 -20t67 -4.5q21 0 30.5 -11.5t9.5 -27.5t-13.5 -29.5t-35.5 -13.5q-42 0 -84.5 6t-79 27t-60.5 66.5t-29 125.5q-58 -20 -113 -51t-98 -73t-68.5 -94.5t-25.5 -115.5q0 -70 38 -113.5t101.5 -63.5 t138.5 -20q99 0 201 40l28 -68q-58 -28 -119 -41.5t-120 -13.5z" />
<glyph unicode="&#xfc24;" horiz-adv-x="1552" arabic-form="isolated" d="M1133 -18q-107 0 -172.5 9.5t-99.5 29t-47 49.5q-24 -35 -50.5 -50.5t-55 -20t-59.5 -4.5l10 82q47 0 72 18.5t40 61.5t32 118l73 -19q-10 -35 -15.5 -63t-5.5 -42q0 -28 15.5 -46.5t64.5 -27.5q32 50 76 101.5t96 94.5t108.5 69.5t114.5 26.5q55 0 94.5 -22.5t61 -60.5 t21.5 -86q0 -59 -34.5 -108.5t-116.5 -79.5t-223 -30zM1324 287q-45 0 -90.5 -22.5t-86.5 -57.5t-74 -72.5t-55 -67.5q53 -3 133 -3q132 0 205.5 32.5t73.5 95.5q0 22 -11 43.5t-34 36.5t-61 15zM1301 472q-21 0 -35.5 14.5t-14.5 34.5t14.5 35t35.5 15q20 0 34.5 -15 t14.5 -35t-14.5 -34.5t-34.5 -14.5zM360 -394q-70 0 -133.5 16t-112 49.5t-76.5 84.5t-28 120q0 92 43 171t123.5 139.5t191.5 97.5q-49 16 -102.5 32.5t-124.5 16.5q-30 0 -52.5 -5t-42.5 -10l-14 74q26 11 58.5 17.5t65.5 6.5q46 0 82 -8.5t68.5 -20.5t68.5 -24.5 t80.5 -21t105.5 -9.5h9l2 -82q-52 0 -109 -12q8 -56 26 -88.5t44.5 -48t58.5 -20t67 -4.5q21 0 30.5 -11.5t9.5 -27.5t-13.5 -29.5t-35.5 -13.5q-42 0 -84.5 6t-79 27t-60.5 66.5t-29 125.5q-58 -20 -113 -51t-98 -73t-68.5 -94.5t-25.5 -115.5q0 -70 38 -113.5t101.5 -63.5 t138.5 -20q99 0 201 40l28 -68q-58 -28 -119 -41.5t-120 -13.5zM312 519q-21 0 -35.5 14.5t-14.5 34.5t14.5 35t35.5 15q20 0 34.5 -15t14.5 -35t-14.5 -34.5t-34.5 -14.5z" />
<glyph unicode="&#xfc25;" horiz-adv-x="1465" arabic-form="isolated" d="M1046 -18q-107 0 -172.5 9.5t-99.5 29t-47 49.5q-24 -35 -50.5 -50.5t-55 -20t-59.5 -4.5l10 82q47 0 72 18.5t40 61.5t32 118l73 -19q-10 -35 -15.5 -63t-5.5 -42q0 -28 15.5 -46.5t64.5 -27.5q32 50 76 101.5t96 94.5t108.5 69.5t114.5 26.5q55 0 94.5 -22.5t61 -60.5 t21.5 -86q0 -59 -34.5 -108.5t-116.5 -79.5t-223 -30zM1237 287q-45 0 -90.5 -22.5t-86.5 -57.5t-74 -72.5t-55 -67.5q53 -3 133 -3q132 0 205.5 32.5t73.5 95.5q0 22 -11 43.5t-34 36.5t-61 15zM1214 472q-21 0 -35.5 14.5t-14.5 34.5t14.5 35t35.5 15q20 0 34.5 -15 t14.5 -35t-14.5 -34.5t-34.5 -14.5zM77 -393q-21 77 -36 150.5t-23 131.5t-8 86q0 74 24 135t62 107.5t82 79t85.5 49t70.5 16.5q25 0 44 -11t37 -43t38 -94q19 -57 36 -86.5t37 -40t46 -10.5q21 0 30.5 -11.5t9.5 -27.5t-14 -29.5t-36 -13.5q-35 0 -60.5 11.5t-45.5 31.5 q-19 -29 -46 -42.5t-58 -13.5q-37 0 -77.5 17.5t-77.5 51.5t-64 82q-25 -38 -33 -81.5t-8 -76.5q0 -28 6 -71.5t15.5 -92.5t21 -97.5t21.5 -87.5zM360 64q26 0 39 16t3 47q-23 73 -41.5 109.5t-40.5 36.5t-61.5 -19.5t-71.5 -56.5q22 -45 53.5 -75t63 -44t56.5 -14z" />
<glyph unicode="&#xfc26;" horiz-adv-x="1326" arabic-form="isolated" d="M649 -5l10 82h50q16 25 34 49l-19 588h81l18 -494q61 62 133.5 105.5t147.5 43.5q55 0 94.5 -22.5t61 -60.5t21.5 -86q0 -47 -34 -94.5t-117 -74.5q-64 -21 -154 -28.5t-222 -7.5h-105zM1098 287q-43 0 -86.5 -21t-83.5 -53.5t-73 -69t-55 -66.5h68q174 0 255 30t81 94 q0 17 -11 37t-34 34.5t-61 14.5zM360 -394q-70 0 -133.5 16t-112 49.5t-76.5 84.5t-28 120q0 92 43 171t123.5 139.5t191.5 97.5q-49 16 -102.5 32.5t-124.5 16.5q-30 0 -52.5 -5t-42.5 -10l-14 74q26 11 58.5 17.5t65.5 6.5q46 0 82 -8.5t68.5 -20.5t68.5 -24.5t80.5 -21 t105.5 -9.5h9l2 -82q-52 0 -109 -12q8 -56 26 -88.5t44.5 -48t58.5 -20t67 -4.5q21 0 30.5 -11.5t9.5 -27.5t-13.5 -29.5t-35.5 -13.5q-42 0 -84.5 6t-79 27t-60.5 66.5t-29 125.5q-58 -20 -113 -51t-98 -73t-68.5 -94.5t-25.5 -115.5q0 -70 38 -113.5t101.5 -63.5 t138.5 -20q99 0 201 40l28 -68q-58 -28 -119 -41.5t-120 -13.5z" />
<glyph unicode="&#xfc27;" horiz-adv-x="1239" arabic-form="isolated" d="M562 -5l10 82h50q16 25 34 49l-19 588h81l18 -494q61 62 133.5 105.5t147.5 43.5q55 0 94.5 -22.5t61 -60.5t21.5 -86q0 -47 -34 -94.5t-117 -74.5q-64 -21 -154 -28.5t-222 -7.5h-105zM1011 287q-43 0 -86.5 -21t-83.5 -53.5t-73 -69t-55 -66.5h68q174 0 255 30t81 94 q0 17 -11 37t-34 34.5t-61 14.5zM77 -393q-21 77 -36 150.5t-23 131.5t-8 86q0 74 24 135t62 107.5t82 79t85.5 49t70.5 16.5q25 0 44 -11t37 -43t38 -94q19 -57 36 -86.5t37 -40t46 -10.5q21 0 30.5 -11.5t9.5 -27.5t-14 -29.5t-36 -13.5q-35 0 -60.5 11.5t-45.5 31.5 q-19 -29 -46 -42.5t-58 -13.5q-37 0 -77.5 17.5t-77.5 51.5t-64 82q-25 -38 -33 -81.5t-8 -76.5q0 -28 6 -71.5t15.5 -92.5t21 -97.5t21.5 -87.5zM360 64q26 0 39 16t3 47q-23 73 -41.5 109.5t-40.5 36.5t-61.5 -19.5t-71.5 -56.5q22 -45 53.5 -75t63 -44t56.5 -14z" />
<glyph unicode="&#xfc28;" horiz-adv-x="1239" arabic-form="isolated" d="M562 -5l10 82h50q16 25 34 49l-19 588h81l18 -494q61 62 133.5 105.5t147.5 43.5q55 0 94.5 -22.5t61 -60.5t21.5 -86q0 -47 -34 -94.5t-117 -74.5q-64 -21 -154 -28.5t-222 -7.5h-105zM1011 287q-43 0 -86.5 -21t-83.5 -53.5t-73 -69t-55 -66.5h68q174 0 255 30t81 94 q0 17 -11 37t-34 34.5t-61 14.5zM968 472q-21 0 -35.5 14.5t-14.5 34.5t14.5 35t35.5 15q20 0 34.5 -15t14.5 -35t-14.5 -34.5t-34.5 -14.5zM77 -393q-21 77 -36 150.5t-23 131.5t-8 86q0 74 24 135t62 107.5t82 79t85.5 49t70.5 16.5q25 0 44 -11t37 -43t38 -94 q19 -57 36 -86.5t37 -40t46 -10.5q21 0 30.5 -11.5t9.5 -27.5t-14 -29.5t-36 -13.5q-35 0 -60.5 11.5t-45.5 31.5q-19 -29 -46 -42.5t-58 -13.5q-37 0 -77.5 17.5t-77.5 51.5t-64 82q-25 -38 -33 -81.5t-8 -76.5q0 -28 6 -71.5t15.5 -92.5t21 -97.5t21.5 -87.5zM360 64 q26 0 39 16t3 47q-23 73 -41.5 109.5t-40.5 36.5t-61.5 -19.5t-71.5 -56.5q22 -45 53.5 -75t63 -44t56.5 -14z" />
<glyph unicode="&#xfc29;" horiz-adv-x="1152" arabic-form="isolated" d="M649 -5l10 82q63 0 97.5 1t50.5 2.5t22 1.5q-18 10 -42 31.5t-42 55t-18 79.5q0 57 26.5 100t73 67t106.5 24q48 0 99 -16l-17 -77q-42 11 -82 11q-55 0 -89.5 -29.5t-34.5 -79.5q0 -33 17 -58.5t42.5 -43t53 -26.5t49.5 -8q16 5 29.5 9.5t34.5 13t59 25.5l28 -73 q-67 -27 -136.5 -48t-151 -32.5t-185.5 -11.5zM360 -394q-70 0 -133.5 16t-112 49.5t-76.5 84.5t-28 120q0 92 43 171t123.5 139.5t191.5 97.5q-49 16 -102.5 32.5t-124.5 16.5q-30 0 -52.5 -5t-42.5 -10l-14 74q26 11 58.5 17.5t65.5 6.5q46 0 82 -8.5t68.5 -20.5 t68.5 -24.5t80.5 -21t105.5 -9.5h9l2 -82q-52 0 -109 -12q8 -56 26 -88.5t44.5 -48t58.5 -20t67 -4.5q21 0 30.5 -11.5t9.5 -27.5t-13.5 -29.5t-35.5 -13.5q-42 0 -84.5 6t-79 27t-60.5 66.5t-29 125.5q-58 -20 -113 -51t-98 -73t-68.5 -94.5t-25.5 -115.5q0 -70 38 -113.5 t101.5 -63.5t138.5 -20q99 0 201 40l28 -68q-58 -28 -119 -41.5t-120 -13.5zM329 -124q-21 0 -35.5 14.5t-14.5 34.5t14.5 35t35.5 15q20 0 34.5 -15t14.5 -35t-14.5 -34.5t-34.5 -14.5z" />
<glyph unicode="&#xfc2a;" horiz-adv-x="1065" arabic-form="isolated" d="M562 -5l10 82q63 0 97.5 1t50.5 2.5t22 1.5q-18 10 -42 31.5t-42 55t-18 79.5q0 57 26.5 100t73 67t106.5 24q48 0 99 -16l-17 -77q-42 11 -82 11q-55 0 -89.5 -29.5t-34.5 -79.5q0 -33 17 -58.5t42.5 -43t53 -26.5t49.5 -8q16 5 29.5 9.5t34.5 13t59 25.5l28 -73 q-67 -27 -136.5 -48t-151 -32.5t-185.5 -11.5zM77 -393q-21 77 -36 150.5t-23 131.5t-8 86q0 74 24 135t62 107.5t82 79t85.5 49t70.5 16.5q25 0 44 -11t37 -43t38 -94q19 -57 36 -86.5t37 -40t46 -10.5q21 0 30.5 -11.5t9.5 -27.5t-14 -29.5t-36 -13.5q-35 0 -60.5 11.5 t-45.5 31.5q-19 -29 -46 -42.5t-58 -13.5q-37 0 -77.5 17.5t-77.5 51.5t-64 82q-25 -38 -33 -81.5t-8 -76.5q0 -28 6 -71.5t15.5 -92.5t21 -97.5t21.5 -87.5zM360 64q26 0 39 16t3 47q-23 73 -41.5 109.5t-40.5 36.5t-61.5 -19.5t-71.5 -56.5q22 -45 53.5 -75t63 -44 t56.5 -14z" />
<glyph unicode="&#xfc2b;" horiz-adv-x="1152" arabic-form="isolated" d="M649 -5l10 82q63 0 97.5 1t50.5 2.5t22 1.5q-18 10 -42 31.5t-42 55t-18 79.5q0 57 26.5 100t73 67t106.5 24q48 0 99 -16l-17 -77q-42 11 -82 11q-55 0 -89.5 -29.5t-34.5 -79.5q0 -33 17 -58.5t42.5 -43t53 -26.5t49.5 -8q16 5 29.5 9.5t34.5 13t59 25.5l28 -73 q-67 -27 -136.5 -48t-151 -32.5t-185.5 -11.5zM914 542q-21 0 -35.5 14.5t-14.5 34.5t14.5 35t35.5 15q20 0 34.5 -15t14.5 -35t-14.5 -34.5t-34.5 -14.5zM360 -394q-70 0 -133.5 16t-112 49.5t-76.5 84.5t-28 120q0 92 43 171t123.5 139.5t191.5 97.5q-49 16 -102.5 32.5 t-124.5 16.5q-30 0 -52.5 -5t-42.5 -10l-14 74q26 11 58.5 17.5t65.5 6.5q46 0 82 -8.5t68.5 -20.5t68.5 -24.5t80.5 -21t105.5 -9.5h9l2 -82q-52 0 -109 -12q8 -56 26 -88.5t44.5 -48t58.5 -20t67 -4.5q21 0 30.5 -11.5t9.5 -27.5t-13.5 -29.5t-35.5 -13.5q-42 0 -84.5 6 t-79 27t-60.5 66.5t-29 125.5q-58 -20 -113 -51t-98 -73t-68.5 -94.5t-25.5 -115.5q0 -70 38 -113.5t101.5 -63.5t138.5 -20q99 0 201 40l28 -68q-58 -28 -119 -41.5t-120 -13.5zM329 -124q-21 0 -35.5 14.5t-14.5 34.5t14.5 35t35.5 15q20 0 34.5 -15t14.5 -35t-14.5 -34.5 t-34.5 -14.5z" />
<glyph unicode="&#xfc2c;" horiz-adv-x="1065" arabic-form="isolated" d="M562 -5l10 82q63 0 97.5 1t50.5 2.5t22 1.5q-18 10 -42 31.5t-42 55t-18 79.5q0 57 26.5 100t73 67t106.5 24q48 0 99 -16l-17 -77q-42 11 -82 11q-55 0 -89.5 -29.5t-34.5 -79.5q0 -33 17 -58.5t42.5 -43t53 -26.5t49.5 -8q16 5 29.5 9.5t34.5 13t59 25.5l28 -73 q-67 -27 -136.5 -48t-151 -32.5t-185.5 -11.5zM827 542q-21 0 -35.5 14.5t-14.5 34.5t14.5 35t35.5 15q20 0 34.5 -15t14.5 -35t-14.5 -34.5t-34.5 -14.5zM77 -393q-21 77 -36 150.5t-23 131.5t-8 86q0 74 24 135t62 107.5t82 79t85.5 49t70.5 16.5q25 0 44 -11t37 -43 t38 -94q19 -57 36 -86.5t37 -40t46 -10.5q21 0 30.5 -11.5t9.5 -27.5t-14 -29.5t-36 -13.5q-35 0 -60.5 11.5t-45.5 31.5q-19 -29 -46 -42.5t-58 -13.5q-37 0 -77.5 17.5t-77.5 51.5t-64 82q-25 -38 -33 -81.5t-8 -76.5q0 -28 6 -71.5t15.5 -92.5t21 -97.5t21.5 -87.5z M360 64q26 0 39 16t3 47q-23 73 -41.5 109.5t-40.5 36.5t-61.5 -19.5t-71.5 -56.5q22 -45 53.5 -75t63 -44t56.5 -14z" />
<glyph unicode="&#xfc2d;" horiz-adv-x="1096" arabic-form="isolated" d="M649 -5l10 82q33 0 75.5 0.5t82.5 4t63 11.5q32 11 51.5 28.5t29.5 45.5q-18 -6 -38.5 -8.5t-40.5 -2.5q-76 0 -117.5 36t-41.5 91q0 38 12 76.5t34 70.5t53 51.5t69 19.5q54 0 89.5 -35t53 -91.5t17.5 -119.5q0 -75 -25.5 -128.5t-84.5 -88.5q-31 -18 -77.5 -27.5 t-101.5 -12.5t-113 -3zM802 303q0 -31 20 -49.5t69 -18.5q43 0 82 12v14q0 42 -11 78t-31 58t-48 22q-23 0 -41.5 -17.5t-29 -44.5t-10.5 -54zM872 604q-21 0 -35.5 14.5t-14.5 34.5t14.5 35t35.5 15q20 0 34.5 -15t14.5 -35t-14.5 -34.5t-34.5 -14.5zM360 -394 q-70 0 -133.5 16t-112 49.5t-76.5 84.5t-28 120q0 92 43 171t123.5 139.5t191.5 97.5q-49 16 -102.5 32.5t-124.5 16.5q-30 0 -52.5 -5t-42.5 -10l-14 74q26 11 58.5 17.5t65.5 6.5q46 0 82 -8.5t68.5 -20.5t68.5 -24.5t80.5 -21t105.5 -9.5h9l2 -82q-52 0 -109 -12 q8 -56 26 -88.5t44.5 -48t58.5 -20t67 -4.5q21 0 30.5 -11.5t9.5 -27.5t-13.5 -29.5t-35.5 -13.5q-42 0 -84.5 6t-79 27t-60.5 66.5t-29 125.5q-58 -20 -113 -51t-98 -73t-68.5 -94.5t-25.5 -115.5q0 -70 38 -113.5t101.5 -63.5t138.5 -20q99 0 201 40l28 -68 q-58 -28 -119 -41.5t-120 -13.5zM329 -124q-21 0 -35.5 14.5t-14.5 34.5t14.5 35t35.5 15q20 0 34.5 -15t14.5 -35t-14.5 -34.5t-34.5 -14.5z" />
<glyph unicode="&#xfc2e;" horiz-adv-x="1096" arabic-form="isolated" d="M649 -5l10 82q33 0 75.5 0.5t82.5 4t63 11.5q32 11 51.5 28.5t29.5 45.5q-18 -6 -38.5 -8.5t-40.5 -2.5q-76 0 -117.5 36t-41.5 91q0 38 12 76.5t34 70.5t53 51.5t69 19.5q54 0 89.5 -35t53 -91.5t17.5 -119.5q0 -75 -25.5 -128.5t-84.5 -88.5q-31 -18 -77.5 -27.5 t-101.5 -12.5t-113 -3zM802 303q0 -31 20 -49.5t69 -18.5q43 0 82 12v14q0 42 -11 78t-31 58t-48 22q-23 0 -41.5 -17.5t-29 -44.5t-10.5 -54zM872 604q-21 0 -35.5 14.5t-14.5 34.5t14.5 35t35.5 15q20 0 34.5 -15t14.5 -35t-14.5 -34.5t-34.5 -14.5zM360 -394 q-70 0 -133.5 16t-112 49.5t-76.5 84.5t-28 120q0 92 43 171t123.5 139.5t191.5 97.5q-49 16 -102.5 32.5t-124.5 16.5q-30 0 -52.5 -5t-42.5 -10l-14 74q26 11 58.5 17.5t65.5 6.5q46 0 82 -8.5t68.5 -20.5t68.5 -24.5t80.5 -21t105.5 -9.5h9l2 -82q-52 0 -109 -12 q8 -56 26 -88.5t44.5 -48t58.5 -20t67 -4.5q21 0 30.5 -11.5t9.5 -27.5t-13.5 -29.5t-35.5 -13.5q-42 0 -84.5 6t-79 27t-60.5 66.5t-29 125.5q-58 -20 -113 -51t-98 -73t-68.5 -94.5t-25.5 -115.5q0 -70 38 -113.5t101.5 -63.5t138.5 -20q99 0 201 40l28 -68 q-58 -28 -119 -41.5t-120 -13.5z" />
<glyph unicode="&#xfc2f;" horiz-adv-x="1096" arabic-form="isolated" d="M649 -5l10 82q33 0 75.5 0.5t82.5 4t63 11.5q32 11 51.5 28.5t29.5 45.5q-18 -6 -38.5 -8.5t-40.5 -2.5q-76 0 -117.5 36t-41.5 91q0 38 12 76.5t34 70.5t53 51.5t69 19.5q54 0 89.5 -35t53 -91.5t17.5 -119.5q0 -75 -25.5 -128.5t-84.5 -88.5q-31 -18 -77.5 -27.5 t-101.5 -12.5t-113 -3zM802 303q0 -31 20 -49.5t69 -18.5q43 0 82 12v14q0 42 -11 78t-31 58t-48 22q-23 0 -41.5 -17.5t-29 -44.5t-10.5 -54zM872 604q-21 0 -35.5 14.5t-14.5 34.5t14.5 35t35.5 15q20 0 34.5 -15t14.5 -35t-14.5 -34.5t-34.5 -14.5zM360 -394 q-70 0 -133.5 16t-112 49.5t-76.5 84.5t-28 120q0 92 43 171t123.5 139.5t191.5 97.5q-49 16 -102.5 32.5t-124.5 16.5q-30 0 -52.5 -5t-42.5 -10l-14 74q26 11 58.5 17.5t65.5 6.5q46 0 82 -8.5t68.5 -20.5t68.5 -24.5t80.5 -21t105.5 -9.5h9l2 -82q-52 0 -109 -12 q8 -56 26 -88.5t44.5 -48t58.5 -20t67 -4.5q21 0 30.5 -11.5t9.5 -27.5t-13.5 -29.5t-35.5 -13.5q-42 0 -84.5 6t-79 27t-60.5 66.5t-29 125.5q-58 -20 -113 -51t-98 -73t-68.5 -94.5t-25.5 -115.5q0 -70 38 -113.5t101.5 -63.5t138.5 -20q99 0 201 40l28 -68 q-58 -28 -119 -41.5t-120 -13.5zM312 519q-21 0 -35.5 14.5t-14.5 34.5t14.5 35t35.5 15q20 0 34.5 -15t14.5 -35t-14.5 -34.5t-34.5 -14.5z" />
<glyph unicode="&#xfc30;" horiz-adv-x="1009" arabic-form="isolated" d="M562 -5l10 82q33 0 75.5 0.5t82.5 4t63 11.5q32 11 51.5 28.5t29.5 45.5q-18 -6 -38.5 -8.5t-40.5 -2.5q-76 0 -117.5 36t-41.5 91q0 38 12 76.5t34 70.5t53 51.5t69 19.5q54 0 89.5 -35t53 -91.5t17.5 -119.5q0 -75 -25.5 -128.5t-84.5 -88.5q-31 -18 -77.5 -27.5 t-101.5 -12.5t-113 -3zM715 303q0 -31 20 -49.5t69 -18.5q43 0 82 12v14q0 42 -11 78t-31 58t-48 22q-23 0 -41.5 -17.5t-29 -44.5t-10.5 -54zM785 604q-21 0 -35.5 14.5t-14.5 34.5t14.5 35t35.5 15q20 0 34.5 -15t14.5 -35t-14.5 -34.5t-34.5 -14.5zM77 -393 q-21 77 -36 150.5t-23 131.5t-8 86q0 74 24 135t62 107.5t82 79t85.5 49t70.5 16.5q25 0 44 -11t37 -43t38 -94q19 -57 36 -86.5t37 -40t46 -10.5q21 0 30.5 -11.5t9.5 -27.5t-14 -29.5t-36 -13.5q-35 0 -60.5 11.5t-45.5 31.5q-19 -29 -46 -42.5t-58 -13.5 q-37 0 -77.5 17.5t-77.5 51.5t-64 82q-25 -38 -33 -81.5t-8 -76.5q0 -28 6 -71.5t15.5 -92.5t21 -97.5t21.5 -87.5zM360 64q26 0 39 16t3 47q-23 73 -41.5 109.5t-40.5 36.5t-61.5 -19.5t-71.5 -56.5q22 -45 53.5 -75t63 -44t56.5 -14z" />
<glyph unicode="&#xfc31;" horiz-adv-x="1183" arabic-form="isolated" d="M736 -5l10 82q33 0 75.5 0.5t82.5 4t63 11.5q32 11 51.5 28.5t29.5 45.5q-18 -6 -38.5 -8.5t-40.5 -2.5q-76 0 -117.5 36t-41.5 91q0 38 12 76.5t34 70.5t53 51.5t69 19.5q54 0 89.5 -35t53 -91.5t17.5 -119.5q0 -75 -25.5 -128.5t-84.5 -88.5q-31 -18 -77.5 -27.5 t-101.5 -12.5t-113 -3zM889 303q0 -31 20 -49.5t69 -18.5q43 0 82 12v14q0 42 -11 78t-31 58t-48 22q-23 0 -41.5 -17.5t-29 -44.5t-10.5 -54zM959 604q-21 0 -35.5 14.5t-14.5 34.5t14.5 35t35.5 15q20 0 34.5 -15t14.5 -35t-14.5 -34.5t-34.5 -14.5zM30 -1q0 36 10 80 t32 97l72 -28q-16 -42 -24 -77t-8 -65q0 -55 32.5 -90t86 -51t117.5 -16q77 0 140.5 18t101.5 47.5t38 65.5q0 26 -40 45t-112 39l19 83q104 -40 162 -55t89 -15q21 0 30.5 -11.5t9.5 -27.5t-14 -29.5t-36 -13.5h-37q2 -9 3 -14.5t1 -14.5q0 -49 -45 -94.5t-129.5 -74.5 t-202.5 -29q-79 0 -146.5 25.5t-108.5 76.5t-41 129z" />
<glyph unicode="&#xfc32;" horiz-adv-x="1183" arabic-form="isolated" d="M736 -5l10 82q33 0 75.5 0.5t82.5 4t63 11.5q32 11 51.5 28.5t29.5 45.5q-18 -6 -38.5 -8.5t-40.5 -2.5q-76 0 -117.5 36t-41.5 91q0 38 12 76.5t34 70.5t53 51.5t69 19.5q54 0 89.5 -35t53 -91.5t17.5 -119.5q0 -75 -25.5 -128.5t-84.5 -88.5q-31 -18 -77.5 -27.5 t-101.5 -12.5t-113 -3zM889 303q0 -31 20 -49.5t69 -18.5q43 0 82 12v14q0 42 -11 78t-31 58t-48 22q-23 0 -41.5 -17.5t-29 -44.5t-10.5 -54zM959 604q-21 0 -35.5 14.5t-14.5 34.5t14.5 35t35.5 15q20 0 34.5 -15t14.5 -35t-14.5 -34.5t-34.5 -14.5zM30 -1q0 36 10 80 t32 97l72 -28q-16 -42 -24 -77t-8 -65q0 -55 32.5 -90t86 -51t117.5 -16q77 0 140.5 18t101.5 47.5t38 65.5q0 26 -40 45t-112 39l19 83q104 -40 162 -55t89 -15q21 0 30.5 -11.5t9.5 -27.5t-14 -29.5t-36 -13.5h-37q2 -9 3 -14.5t1 -14.5q0 -49 -45 -94.5t-129.5 -74.5 t-202.5 -29q-79 0 -146.5 25.5t-108.5 76.5t-41 129zM398 -421q-21 0 -35.5 14.5t-14.5 34.5t14.5 35t35.5 15q20 0 34.5 -15t14.5 -35t-14.5 -34.5t-34.5 -14.5zM261 -421q-21 0 -35.5 14.5t-14.5 34.5t14.5 35t35.5 15q20 0 34.5 -15t14.5 -35t-14.5 -34.5t-34.5 -14.5z " />
<glyph unicode="&#xfc33;" horiz-adv-x="1096" arabic-form="isolated" d="M649 -5l10 82q33 0 75.5 0.5t82.5 4t63 11.5q32 11 51.5 28.5t29.5 45.5q-18 -6 -38.5 -8.5t-40.5 -2.5q-76 0 -117.5 36t-41.5 91q0 38 12 76.5t34 70.5t53 51.5t69 19.5q54 0 89.5 -35t53 -91.5t17.5 -119.5q0 -75 -25.5 -128.5t-84.5 -88.5q-31 -18 -77.5 -27.5 t-101.5 -12.5t-113 -3zM802 303q0 -31 20 -49.5t69 -18.5q43 0 82 12v14q0 42 -11 78t-31 58t-48 22q-23 0 -41.5 -17.5t-29 -44.5t-10.5 -54zM942 604q-21 0 -35.5 14.5t-14.5 34.5t14.5 35t35.5 15q20 0 34.5 -15t14.5 -35t-14.5 -34.5t-34.5 -14.5zM805 604 q-21 0 -35.5 14.5t-14.5 34.5t14.5 35t35.5 15q20 0 34.5 -15t14.5 -35t-14.5 -34.5t-34.5 -14.5zM360 -394q-70 0 -133.5 16t-112 49.5t-76.5 84.5t-28 120q0 92 43 171t123.5 139.5t191.5 97.5q-49 16 -102.5 32.5t-124.5 16.5q-30 0 -52.5 -5t-42.5 -10l-14 74 q26 11 58.5 17.5t65.5 6.5q46 0 82 -8.5t68.5 -20.5t68.5 -24.5t80.5 -21t105.5 -9.5h9l2 -82q-52 0 -109 -12q8 -56 26 -88.5t44.5 -48t58.5 -20t67 -4.5q21 0 30.5 -11.5t9.5 -27.5t-13.5 -29.5t-35.5 -13.5q-42 0 -84.5 6t-79 27t-60.5 66.5t-29 125.5q-58 -20 -113 -51 t-98 -73t-68.5 -94.5t-25.5 -115.5q0 -70 38 -113.5t101.5 -63.5t138.5 -20q99 0 201 40l28 -68q-58 -28 -119 -41.5t-120 -13.5z" />
<glyph unicode="&#xfc34;" horiz-adv-x="1009" arabic-form="isolated" d="M562 -5l10 82q33 0 75.5 0.5t82.5 4t63 11.5q32 11 51.5 28.5t29.5 45.5q-18 -6 -38.5 -8.5t-40.5 -2.5q-76 0 -117.5 36t-41.5 91q0 38 12 76.5t34 70.5t53 51.5t69 19.5q54 0 89.5 -35t53 -91.5t17.5 -119.5q0 -75 -25.5 -128.5t-84.5 -88.5q-31 -18 -77.5 -27.5 t-101.5 -12.5t-113 -3zM715 303q0 -31 20 -49.5t69 -18.5q43 0 82 12v14q0 42 -11 78t-31 58t-48 22q-23 0 -41.5 -17.5t-29 -44.5t-10.5 -54zM855 604q-21 0 -35.5 14.5t-14.5 34.5t14.5 35t35.5 15q20 0 34.5 -15t14.5 -35t-14.5 -34.5t-34.5 -14.5zM718 604 q-21 0 -35.5 14.5t-14.5 34.5t14.5 35t35.5 15q20 0 34.5 -15t14.5 -35t-14.5 -34.5t-34.5 -14.5zM77 -393q-21 77 -36 150.5t-23 131.5t-8 86q0 74 24 135t62 107.5t82 79t85.5 49t70.5 16.5q25 0 44 -11t37 -43t38 -94q19 -57 36 -86.5t37 -40t46 -10.5q21 0 30.5 -11.5 t9.5 -27.5t-14 -29.5t-36 -13.5q-35 0 -60.5 11.5t-45.5 31.5q-19 -29 -46 -42.5t-58 -13.5q-37 0 -77.5 17.5t-77.5 51.5t-64 82q-25 -38 -33 -81.5t-8 -76.5q0 -28 6 -71.5t15.5 -92.5t21 -97.5t21.5 -87.5zM360 64q26 0 39 16t3 47q-23 73 -41.5 109.5t-40.5 36.5 t-61.5 -19.5t-71.5 -56.5q22 -45 53.5 -75t63 -44t56.5 -14z" />
<glyph unicode="&#xfc35;" horiz-adv-x="1183" arabic-form="isolated" d="M736 -5l10 82q33 0 75.5 0.5t82.5 4t63 11.5q32 11 51.5 28.5t29.5 45.5q-18 -6 -38.5 -8.5t-40.5 -2.5q-76 0 -117.5 36t-41.5 91q0 38 12 76.5t34 70.5t53 51.5t69 19.5q54 0 89.5 -35t53 -91.5t17.5 -119.5q0 -75 -25.5 -128.5t-84.5 -88.5q-31 -18 -77.5 -27.5 t-101.5 -12.5t-113 -3zM889 303q0 -31 20 -49.5t69 -18.5q43 0 82 12v14q0 42 -11 78t-31 58t-48 22q-23 0 -41.5 -17.5t-29 -44.5t-10.5 -54zM1029 604q-21 0 -35.5 14.5t-14.5 34.5t14.5 35t35.5 15q20 0 34.5 -15t14.5 -35t-14.5 -34.5t-34.5 -14.5zM892 604 q-21 0 -35.5 14.5t-14.5 34.5t14.5 35t35.5 15q20 0 34.5 -15t14.5 -35t-14.5 -34.5t-34.5 -14.5zM30 -1q0 36 10 80t32 97l72 -28q-16 -42 -24 -77t-8 -65q0 -55 32.5 -90t86 -51t117.5 -16q77 0 140.5 18t101.5 47.5t38 65.5q0 26 -40 45t-112 39l19 83q104 -40 162 -55 t89 -15q21 0 30.5 -11.5t9.5 -27.5t-14 -29.5t-36 -13.5h-37q2 -9 3 -14.5t1 -14.5q0 -49 -45 -94.5t-129.5 -74.5t-202.5 -29q-79 0 -146.5 25.5t-108.5 76.5t-41 129z" />
<glyph unicode="&#xfc36;" horiz-adv-x="1183" arabic-form="isolated" d="M736 -5l10 82q33 0 75.5 0.5t82.5 4t63 11.5q32 11 51.5 28.5t29.5 45.5q-18 -6 -38.5 -8.5t-40.5 -2.5q-76 0 -117.5 36t-41.5 91q0 38 12 76.5t34 70.5t53 51.5t69 19.5q54 0 89.5 -35t53 -91.5t17.5 -119.5q0 -75 -25.5 -128.5t-84.5 -88.5q-31 -18 -77.5 -27.5 t-101.5 -12.5t-113 -3zM889 303q0 -31 20 -49.5t69 -18.5q43 0 82 12v14q0 42 -11 78t-31 58t-48 22q-23 0 -41.5 -17.5t-29 -44.5t-10.5 -54zM1029 604q-21 0 -35.5 14.5t-14.5 34.5t14.5 35t35.5 15q20 0 34.5 -15t14.5 -35t-14.5 -34.5t-34.5 -14.5zM892 604 q-21 0 -35.5 14.5t-14.5 34.5t14.5 35t35.5 15q20 0 34.5 -15t14.5 -35t-14.5 -34.5t-34.5 -14.5zM30 -1q0 36 10 80t32 97l72 -28q-16 -42 -24 -77t-8 -65q0 -55 32.5 -90t86 -51t117.5 -16q77 0 140.5 18t101.5 47.5t38 65.5q0 26 -40 45t-112 39l19 83q104 -40 162 -55 t89 -15q21 0 30.5 -11.5t9.5 -27.5t-14 -29.5t-36 -13.5h-37q2 -9 3 -14.5t1 -14.5q0 -49 -45 -94.5t-129.5 -74.5t-202.5 -29q-79 0 -146.5 25.5t-108.5 76.5t-41 129zM398 -421q-21 0 -35.5 14.5t-14.5 34.5t14.5 35t35.5 15q20 0 34.5 -15t14.5 -35t-14.5 -34.5 t-34.5 -14.5zM261 -421q-21 0 -35.5 14.5t-14.5 34.5t14.5 35t35.5 15q20 0 34.5 -15t14.5 -35t-14.5 -34.5t-34.5 -14.5z" />
<glyph unicode="&#xfc37;" horiz-adv-x="703" arabic-form="isolated" d="M291 -5l10 82h94q59 0 93.5 6.5t51 17t22 23t5.5 25.5q0 23 -17.5 57t-71.5 88q-37 38 -74 67t-61 49t-24 29q0 23 5.5 43t15.5 31q40 43 125.5 86.5t213.5 107.5l34 -74q-91 -44 -148.5 -72.5t-95 -50t-69.5 -43.5q117 -95 179.5 -170.5t62.5 -152.5q0 -22 -8 -48 t-34 -49t-78 -37.5t-140 -14.5h-91zM291 -5q-80 0 -122.5 18t-58.5 56t-18 98l-20 547h82l20 -515q2 -49 9.5 -75.5t34 -36.5t83.5 -10q21 0 30.5 -11.5t9.5 -27.5t-14 -29.5t-36 -13.5z" />
<glyph unicode="&#xfc38;" horiz-adv-x="1061" arabic-form="isolated" d="M649 -5l10 82h94q59 0 93.5 6.5t51 17t22 23t5.5 25.5q0 23 -17.5 57t-71.5 88q-37 38 -74 67t-61 49t-24 29q0 23 5.5 43t15.5 31q40 43 125.5 86.5t213.5 107.5l34 -74q-91 -44 -148.5 -72.5t-95 -50t-69.5 -43.5q117 -95 179.5 -170.5t62.5 -152.5q0 -22 -8 -48 t-34 -49t-78 -37.5t-140 -14.5h-91zM360 -394q-70 0 -133.5 16t-112 49.5t-76.5 84.5t-28 120q0 92 43 171t123.5 139.5t191.5 97.5q-49 16 -102.5 32.5t-124.5 16.5q-30 0 -52.5 -5t-42.5 -10l-14 74q26 11 58.5 17.5t65.5 6.5q46 0 82 -8.5t68.5 -20.5t68.5 -24.5 t80.5 -21t105.5 -9.5h9l2 -82q-52 0 -109 -12q8 -56 26 -88.5t44.5 -48t58.5 -20t67 -4.5q21 0 30.5 -11.5t9.5 -27.5t-13.5 -29.5t-35.5 -13.5q-42 0 -84.5 6t-79 27t-60.5 66.5t-29 125.5q-58 -20 -113 -51t-98 -73t-68.5 -94.5t-25.5 -115.5q0 -70 38 -113.5t101.5 -63.5 t138.5 -20q99 0 201 40l28 -68q-58 -28 -119 -41.5t-120 -13.5zM329 -124q-21 0 -35.5 14.5t-14.5 34.5t14.5 35t35.5 15q20 0 34.5 -15t14.5 -35t-14.5 -34.5t-34.5 -14.5z" />
<glyph unicode="&#xfc39;" horiz-adv-x="1061" arabic-form="isolated" d="M649 -5l10 82h94q59 0 93.5 6.5t51 17t22 23t5.5 25.5q0 23 -17.5 57t-71.5 88q-37 38 -74 67t-61 49t-24 29q0 23 5.5 43t15.5 31q40 43 125.5 86.5t213.5 107.5l34 -74q-91 -44 -148.5 -72.5t-95 -50t-69.5 -43.5q117 -95 179.5 -170.5t62.5 -152.5q0 -22 -8 -48 t-34 -49t-78 -37.5t-140 -14.5h-91zM360 -394q-70 0 -133.5 16t-112 49.5t-76.5 84.5t-28 120q0 92 43 171t123.5 139.5t191.5 97.5q-49 16 -102.5 32.5t-124.5 16.5q-30 0 -52.5 -5t-42.5 -10l-14 74q26 11 58.5 17.5t65.5 6.5q46 0 82 -8.5t68.5 -20.5t68.5 -24.5 t80.5 -21t105.5 -9.5h9l2 -82q-52 0 -109 -12q8 -56 26 -88.5t44.5 -48t58.5 -20t67 -4.5q21 0 30.5 -11.5t9.5 -27.5t-13.5 -29.5t-35.5 -13.5q-42 0 -84.5 6t-79 27t-60.5 66.5t-29 125.5q-58 -20 -113 -51t-98 -73t-68.5 -94.5t-25.5 -115.5q0 -70 38 -113.5t101.5 -63.5 t138.5 -20q99 0 201 40l28 -68q-58 -28 -119 -41.5t-120 -13.5z" />
<glyph unicode="&#xfc3a;" horiz-adv-x="1061" arabic-form="isolated" d="M649 -5l10 82h94q59 0 93.5 6.5t51 17t22 23t5.5 25.5q0 23 -17.5 57t-71.5 88q-37 38 -74 67t-61 49t-24 29q0 23 5.5 43t15.5 31q40 43 125.5 86.5t213.5 107.5l34 -74q-91 -44 -148.5 -72.5t-95 -50t-69.5 -43.5q117 -95 179.5 -170.5t62.5 -152.5q0 -22 -8 -48 t-34 -49t-78 -37.5t-140 -14.5h-91zM360 -394q-70 0 -133.5 16t-112 49.5t-76.5 84.5t-28 120q0 92 43 171t123.5 139.5t191.5 97.5q-49 16 -102.5 32.5t-124.5 16.5q-30 0 -52.5 -5t-42.5 -10l-14 74q26 11 58.5 17.5t65.5 6.5q46 0 82 -8.5t68.5 -20.5t68.5 -24.5 t80.5 -21t105.5 -9.5h9l2 -82q-52 0 -109 -12q8 -56 26 -88.5t44.5 -48t58.5 -20t67 -4.5q21 0 30.5 -11.5t9.5 -27.5t-13.5 -29.5t-35.5 -13.5q-42 0 -84.5 6t-79 27t-60.5 66.5t-29 125.5q-58 -20 -113 -51t-98 -73t-68.5 -94.5t-25.5 -115.5q0 -70 38 -113.5t101.5 -63.5 t138.5 -20q99 0 201 40l28 -68q-58 -28 -119 -41.5t-120 -13.5zM312 519q-21 0 -35.5 14.5t-14.5 34.5t14.5 35t35.5 15q20 0 34.5 -15t14.5 -35t-14.5 -34.5t-34.5 -14.5z" />
<glyph unicode="&#xfc3b;" horiz-adv-x="1142" arabic-form="isolated" d="M730 -5l10 82h94q59 0 93.5 6.5t51 17t22 23t5.5 25.5q0 23 -17.5 57t-71.5 88q-37 38 -74 67t-61 49t-24 29q0 23 5.5 43t15.5 31q40 43 125.5 86.5t213.5 107.5l34 -74q-91 -44 -148.5 -72.5t-95 -50t-69.5 -43.5q117 -95 179.5 -170.5t62.5 -152.5q0 -22 -8 -48 t-34 -49t-78 -37.5t-140 -14.5h-91zM30 -1q0 36 10 80t32 97l72 -28q-16 -42 -24 -77t-8 -65q0 -51 27 -86t70.5 -52.5t93.5 -17.5q98 0 153 34.5t77 91t19 123.5l-22 615h83l16 -507q2 -51 16.5 -79.5t39.5 -39.5t55 -11q21 0 30.5 -11.5t9.5 -27.5t-14 -29.5t-36 -13.5 q-37 0 -60.5 11.5t-37.5 28.5q-7 -50 -27.5 -97.5t-59.5 -86t-99.5 -61t-147.5 -22.5q-70 0 -131 27.5t-99 79t-38 124.5z" />
<glyph unicode="&#xfc3c;" horiz-adv-x="974" arabic-form="isolated" d="M562 -5l10 82h94q59 0 93.5 6.5t51 17t22 23t5.5 25.5q0 23 -17.5 57t-71.5 88q-37 38 -74 67t-61 49t-24 29q0 23 5.5 43t15.5 31q40 43 125.5 86.5t213.5 107.5l34 -74q-91 -44 -148.5 -72.5t-95 -50t-69.5 -43.5q117 -95 179.5 -170.5t62.5 -152.5q0 -22 -8 -48 t-34 -49t-78 -37.5t-140 -14.5h-91zM77 -393q-21 77 -36 150.5t-23 131.5t-8 86q0 74 24 135t62 107.5t82 79t85.5 49t70.5 16.5q25 0 44 -11t37 -43t38 -94q19 -57 36 -86.5t37 -40t46 -10.5q21 0 30.5 -11.5t9.5 -27.5t-14 -29.5t-36 -13.5q-35 0 -60.5 11.5t-45.5 31.5 q-19 -29 -46 -42.5t-58 -13.5q-37 0 -77.5 17.5t-77.5 51.5t-64 82q-25 -38 -33 -81.5t-8 -76.5q0 -28 6 -71.5t15.5 -92.5t21 -97.5t21.5 -87.5zM360 64q26 0 39 16t3 47q-23 73 -41.5 109.5t-40.5 36.5t-61.5 -19.5t-71.5 -56.5q22 -45 53.5 -75t63 -44t56.5 -14z" />
<glyph unicode="&#xfc3d;" horiz-adv-x="1148" arabic-form="isolated" d="M736 -5l10 82h94q59 0 93.5 6.5t51 17t22 23t5.5 25.5q0 23 -17.5 57t-71.5 88q-37 38 -74 67t-61 49t-24 29q0 23 5.5 43t15.5 31q40 43 125.5 86.5t213.5 107.5l34 -74q-91 -44 -148.5 -72.5t-95 -50t-69.5 -43.5q117 -95 179.5 -170.5t62.5 -152.5q0 -22 -8 -48 t-34 -49t-78 -37.5t-140 -14.5h-91zM30 -1q0 36 10 80t32 97l72 -28q-16 -42 -24 -77t-8 -65q0 -55 32.5 -90t86 -51t117.5 -16q77 0 140.5 18t101.5 47.5t38 65.5q0 26 -40 45t-112 39l19 83q104 -40 162 -55t89 -15q21 0 30.5 -11.5t9.5 -27.5t-14 -29.5t-36 -13.5h-37 q2 -9 3 -14.5t1 -14.5q0 -49 -45 -94.5t-129.5 -74.5t-202.5 -29q-79 0 -146.5 25.5t-108.5 76.5t-41 129z" />
<glyph unicode="&#xfc3e;" horiz-adv-x="1148" arabic-form="isolated" d="M736 -5l10 82h94q59 0 93.5 6.5t51 17t22 23t5.5 25.5q0 23 -17.5 57t-71.5 88q-37 38 -74 67t-61 49t-24 29q0 23 5.5 43t15.5 31q40 43 125.5 86.5t213.5 107.5l34 -74q-91 -44 -148.5 -72.5t-95 -50t-69.5 -43.5q117 -95 179.5 -170.5t62.5 -152.5q0 -22 -8 -48 t-34 -49t-78 -37.5t-140 -14.5h-91zM30 -1q0 36 10 80t32 97l72 -28q-16 -42 -24 -77t-8 -65q0 -55 32.5 -90t86 -51t117.5 -16q77 0 140.5 18t101.5 47.5t38 65.5q0 26 -40 45t-112 39l19 83q104 -40 162 -55t89 -15q21 0 30.5 -11.5t9.5 -27.5t-14 -29.5t-36 -13.5h-37 q2 -9 3 -14.5t1 -14.5q0 -49 -45 -94.5t-129.5 -74.5t-202.5 -29q-79 0 -146.5 25.5t-108.5 76.5t-41 129zM398 -421q-21 0 -35.5 14.5t-14.5 34.5t14.5 35t35.5 15q20 0 34.5 -15t14.5 -35t-14.5 -34.5t-34.5 -14.5zM261 -421q-21 0 -35.5 14.5t-14.5 34.5t14.5 35t35.5 15 q20 0 34.5 -15t14.5 -35t-14.5 -34.5t-34.5 -14.5z" />
<glyph unicode="&#xfc3f;" horiz-adv-x="909" arabic-form="isolated" d="M649 -5l9 82q57 0 80 11t26.5 39t1.5 78l-19 509h81l20 -500q3 -71 -9.5 -120t-56 -74t-133.5 -25zM360 -394q-70 0 -133.5 16t-112 49.5t-76.5 84.5t-28 120q0 92 43 171t123.5 139.5t191.5 97.5q-49 16 -102.5 32.5t-124.5 16.5q-30 0 -52.5 -5t-42.5 -10l-14 74 q26 11 58.5 17.5t65.5 6.5q46 0 82 -8.5t68.5 -20.5t68.5 -24.5t80.5 -21t105.5 -9.5h9l2 -82q-52 0 -109 -12q8 -56 26 -88.5t44.5 -48t58.5 -20t67 -4.5q21 0 30.5 -11.5t9.5 -27.5t-13.5 -29.5t-35.5 -13.5q-42 0 -84.5 6t-79 27t-60.5 66.5t-29 125.5q-58 -20 -113 -51 t-98 -73t-68.5 -94.5t-25.5 -115.5q0 -70 38 -113.5t101.5 -63.5t138.5 -20q99 0 201 40l28 -68q-58 -28 -119 -41.5t-120 -13.5zM329 -124q-21 0 -35.5 14.5t-14.5 34.5t14.5 35t35.5 15q20 0 34.5 -15t14.5 -35t-14.5 -34.5t-34.5 -14.5z" />
<glyph unicode="&#xfc40;" horiz-adv-x="909" arabic-form="isolated" d="M649 -5l9 82q57 0 80 11t26.5 39t1.5 78l-19 509h81l20 -500q3 -71 -9.5 -120t-56 -74t-133.5 -25zM360 -394q-70 0 -133.5 16t-112 49.5t-76.5 84.5t-28 120q0 92 43 171t123.5 139.5t191.5 97.5q-49 16 -102.5 32.5t-124.5 16.5q-30 0 -52.5 -5t-42.5 -10l-14 74 q26 11 58.5 17.5t65.5 6.5q46 0 82 -8.5t68.5 -20.5t68.5 -24.5t80.5 -21t105.5 -9.5h9l2 -82q-52 0 -109 -12q8 -56 26 -88.5t44.5 -48t58.5 -20t67 -4.5q21 0 30.5 -11.5t9.5 -27.5t-13.5 -29.5t-35.5 -13.5q-42 0 -84.5 6t-79 27t-60.5 66.5t-29 125.5q-58 -20 -113 -51 t-98 -73t-68.5 -94.5t-25.5 -115.5q0 -70 38 -113.5t101.5 -63.5t138.5 -20q99 0 201 40l28 -68q-58 -28 -119 -41.5t-120 -13.5z" />
<glyph unicode="&#xfc41;" horiz-adv-x="909" arabic-form="isolated" d="M649 -5l9 82q57 0 80 11t26.5 39t1.5 78l-19 509h81l20 -500q3 -71 -9.5 -120t-56 -74t-133.5 -25zM360 -394q-70 0 -133.5 16t-112 49.5t-76.5 84.5t-28 120q0 92 43 171t123.5 139.5t191.5 97.5q-49 16 -102.5 32.5t-124.5 16.5q-30 0 -52.5 -5t-42.5 -10l-14 74 q26 11 58.5 17.5t65.5 6.5q46 0 82 -8.5t68.5 -20.5t68.5 -24.5t80.5 -21t105.5 -9.5h9l2 -82q-52 0 -109 -12q8 -56 26 -88.5t44.5 -48t58.5 -20t67 -4.5q21 0 30.5 -11.5t9.5 -27.5t-13.5 -29.5t-35.5 -13.5q-42 0 -84.5 6t-79 27t-60.5 66.5t-29 125.5q-58 -20 -113 -51 t-98 -73t-68.5 -94.5t-25.5 -115.5q0 -70 38 -113.5t101.5 -63.5t138.5 -20q99 0 201 40l28 -68q-58 -28 -119 -41.5t-120 -13.5zM312 519q-21 0 -35.5 14.5t-14.5 34.5t14.5 35t35.5 15q20 0 34.5 -15t14.5 -35t-14.5 -34.5t-34.5 -14.5z" />
<glyph unicode="&#xfc42;" horiz-adv-x="822" arabic-form="isolated" d="M562 -5l9 82q57 0 80 11t26.5 39t1.5 78l-19 509h81l20 -500q3 -71 -9.5 -120t-56 -74t-133.5 -25zM77 -393q-21 77 -36 150.5t-23 131.5t-8 86q0 74 24 135t62 107.5t82 79t85.5 49t70.5 16.5q25 0 44 -11t37 -43t38 -94q19 -57 36 -86.5t37 -40t46 -10.5 q21 0 30.5 -11.5t9.5 -27.5t-14 -29.5t-36 -13.5q-35 0 -60.5 11.5t-45.5 31.5q-19 -29 -46 -42.5t-58 -13.5q-37 0 -77.5 17.5t-77.5 51.5t-64 82q-25 -38 -33 -81.5t-8 -76.5q0 -28 6 -71.5t15.5 -92.5t21 -97.5t21.5 -87.5zM360 64q26 0 39 16t3 47q-23 73 -41.5 109.5 t-40.5 36.5t-61.5 -19.5t-71.5 -56.5q22 -45 53.5 -75t63 -44t56.5 -14z" />
<glyph unicode="&#xfc44;" horiz-adv-x="996" arabic-form="isolated" d="M736 -5l9 82q57 0 80 11t26.5 39t1.5 78l-19 509h81l20 -500q3 -71 -9.5 -120t-56 -74t-133.5 -25zM30 -1q0 36 10 80t32 97l72 -28q-16 -42 -24 -77t-8 -65q0 -55 32.5 -90t86 -51t117.5 -16q77 0 140.5 18t101.5 47.5t38 65.5q0 26 -40 45t-112 39l19 83 q104 -40 162 -55t89 -15q21 0 30.5 -11.5t9.5 -27.5t-14 -29.5t-36 -13.5h-37q2 -9 3 -14.5t1 -14.5q0 -49 -45 -94.5t-129.5 -74.5t-202.5 -29q-79 0 -146.5 25.5t-108.5 76.5t-41 129zM398 -421q-21 0 -35.5 14.5t-14.5 34.5t14.5 35t35.5 15q20 0 34.5 -15t14.5 -35 t-14.5 -34.5t-34.5 -14.5zM261 -421q-21 0 -35.5 14.5t-14.5 34.5t14.5 35t35.5 15q20 0 34.5 -15t14.5 -35t-14.5 -34.5t-34.5 -14.5z" />
<glyph unicode="&#xfc45;" horiz-adv-x="1174" arabic-form="isolated" d="M649 -5l10 82q28 0 47 12t37 40t39 75q29 64 57.5 97t57 45t56.5 12q34 0 63 -17.5t51 -46.5t34.5 -63.5t12.5 -68.5q0 -60 -21 -95.5t-53.5 -51t-67.5 -15.5q-29 0 -73.5 10t-111.5 52q-32 -46 -64 -56.5t-74 -10.5zM836 151q-6 -13 -11 -25q43 -25 78.5 -34.5 t59.5 -9.5q43 0 61 19t18 50q0 29 -14 58t-35.5 48t-45.5 19q-18 0 -35 -10t-35 -37t-41 -78zM360 -394q-70 0 -133.5 16t-112 49.5t-76.5 84.5t-28 120q0 92 43 171t123.5 139.5t191.5 97.5q-49 16 -102.5 32.5t-124.5 16.5q-30 0 -52.5 -5t-42.5 -10l-14 74 q26 11 58.5 17.5t65.5 6.5q46 0 82 -8.5t68.5 -20.5t68.5 -24.5t80.5 -21t105.5 -9.5h9l2 -82q-52 0 -109 -12q8 -56 26 -88.5t44.5 -48t58.5 -20t67 -4.5q21 0 30.5 -11.5t9.5 -27.5t-13.5 -29.5t-35.5 -13.5q-42 0 -84.5 6t-79 27t-60.5 66.5t-29 125.5q-58 -20 -113 -51 t-98 -73t-68.5 -94.5t-25.5 -115.5q0 -70 38 -113.5t101.5 -63.5t138.5 -20q99 0 201 40l28 -68q-58 -28 -119 -41.5t-120 -13.5zM329 -124q-21 0 -35.5 14.5t-14.5 34.5t14.5 35t35.5 15q20 0 34.5 -15t14.5 -35t-14.5 -34.5t-34.5 -14.5z" />
<glyph unicode="&#xfc46;" horiz-adv-x="1174" arabic-form="isolated" d="M649 -5l10 82q28 0 47 12t37 40t39 75q29 64 57.5 97t57 45t56.5 12q34 0 63 -17.5t51 -46.5t34.5 -63.5t12.5 -68.5q0 -60 -21 -95.5t-53.5 -51t-67.5 -15.5q-29 0 -73.5 10t-111.5 52q-32 -46 -64 -56.5t-74 -10.5zM836 151q-6 -13 -11 -25q43 -25 78.5 -34.5 t59.5 -9.5q43 0 61 19t18 50q0 29 -14 58t-35.5 48t-45.5 19q-18 0 -35 -10t-35 -37t-41 -78zM360 -394q-70 0 -133.5 16t-112 49.5t-76.5 84.5t-28 120q0 92 43 171t123.5 139.5t191.5 97.5q-49 16 -102.5 32.5t-124.5 16.5q-30 0 -52.5 -5t-42.5 -10l-14 74 q26 11 58.5 17.5t65.5 6.5q46 0 82 -8.5t68.5 -20.5t68.5 -24.5t80.5 -21t105.5 -9.5h9l2 -82q-52 0 -109 -12q8 -56 26 -88.5t44.5 -48t58.5 -20t67 -4.5q21 0 30.5 -11.5t9.5 -27.5t-13.5 -29.5t-35.5 -13.5q-42 0 -84.5 6t-79 27t-60.5 66.5t-29 125.5q-58 -20 -113 -51 t-98 -73t-68.5 -94.5t-25.5 -115.5q0 -70 38 -113.5t101.5 -63.5t138.5 -20q99 0 201 40l28 -68q-58 -28 -119 -41.5t-120 -13.5z" />
<glyph unicode="&#xfc47;" horiz-adv-x="1174" arabic-form="isolated" d="M649 -5l10 82q28 0 47 12t37 40t39 75q29 64 57.5 97t57 45t56.5 12q34 0 63 -17.5t51 -46.5t34.5 -63.5t12.5 -68.5q0 -60 -21 -95.5t-53.5 -51t-67.5 -15.5q-29 0 -73.5 10t-111.5 52q-32 -46 -64 -56.5t-74 -10.5zM836 151q-6 -13 -11 -25q43 -25 78.5 -34.5 t59.5 -9.5q43 0 61 19t18 50q0 29 -14 58t-35.5 48t-45.5 19q-18 0 -35 -10t-35 -37t-41 -78zM360 -394q-70 0 -133.5 16t-112 49.5t-76.5 84.5t-28 120q0 92 43 171t123.5 139.5t191.5 97.5q-49 16 -102.5 32.5t-124.5 16.5q-30 0 -52.5 -5t-42.5 -10l-14 74 q26 11 58.5 17.5t65.5 6.5q46 0 82 -8.5t68.5 -20.5t68.5 -24.5t80.5 -21t105.5 -9.5h9l2 -82q-52 0 -109 -12q8 -56 26 -88.5t44.5 -48t58.5 -20t67 -4.5q21 0 30.5 -11.5t9.5 -27.5t-13.5 -29.5t-35.5 -13.5q-42 0 -84.5 6t-79 27t-60.5 66.5t-29 125.5q-58 -20 -113 -51 t-98 -73t-68.5 -94.5t-25.5 -115.5q0 -70 38 -113.5t101.5 -63.5t138.5 -20q99 0 201 40l28 -68q-58 -28 -119 -41.5t-120 -13.5zM312 519q-21 0 -35.5 14.5t-14.5 34.5t14.5 35t35.5 15q20 0 34.5 -15t14.5 -35t-14.5 -34.5t-34.5 -14.5z" />
<glyph unicode="&#xfc48;" horiz-adv-x="1087" arabic-form="isolated" d="M562 -5l10 82q28 0 47 12t37 40t39 75q29 64 57.5 97t57 45t56.5 12q34 0 63 -17.5t51 -46.5t34.5 -63.5t12.5 -68.5q0 -60 -21 -95.5t-53.5 -51t-67.5 -15.5q-29 0 -73.5 10t-111.5 52q-32 -46 -64 -56.5t-74 -10.5zM749 151q-6 -13 -11 -25q43 -25 78.5 -34.5 t59.5 -9.5q43 0 61 19t18 50q0 29 -14 58t-35.5 48t-45.5 19q-18 0 -35 -10t-35 -37t-41 -78zM77 -393q-21 77 -36 150.5t-23 131.5t-8 86q0 74 24 135t62 107.5t82 79t85.5 49t70.5 16.5q25 0 44 -11t37 -43t38 -94q19 -57 36 -86.5t37 -40t46 -10.5q21 0 30.5 -11.5 t9.5 -27.5t-14 -29.5t-36 -13.5q-35 0 -60.5 11.5t-45.5 31.5q-19 -29 -46 -42.5t-58 -13.5q-37 0 -77.5 17.5t-77.5 51.5t-64 82q-25 -38 -33 -81.5t-8 -76.5q0 -28 6 -71.5t15.5 -92.5t21 -97.5t21.5 -87.5zM360 64q26 0 39 16t3 47q-23 73 -41.5 109.5t-40.5 36.5 t-61.5 -19.5t-71.5 -56.5q22 -45 53.5 -75t63 -44t56.5 -14z" />
<glyph unicode="&#xfc49;" horiz-adv-x="1261" arabic-form="isolated" d="M736 -5l10 82q28 0 47 12t37 40t39 75q29 64 57.5 97t57 45t56.5 12q34 0 63 -17.5t51 -46.5t34.5 -63.5t12.5 -68.5q0 -60 -21 -95.5t-53.5 -51t-67.5 -15.5q-29 0 -73.5 10t-111.5 52q-32 -46 -64 -56.5t-74 -10.5zM923 151q-6 -13 -11 -25q43 -25 78.5 -34.5 t59.5 -9.5q43 0 61 19t18 50q0 29 -14 58t-35.5 48t-45.5 19q-18 0 -35 -10t-35 -37t-41 -78zM30 -1q0 36 10 80t32 97l72 -28q-16 -42 -24 -77t-8 -65q0 -55 32.5 -90t86 -51t117.5 -16q77 0 140.5 18t101.5 47.5t38 65.5q0 26 -40 45t-112 39l19 83q104 -40 162 -55 t89 -15q21 0 30.5 -11.5t9.5 -27.5t-14 -29.5t-36 -13.5h-37q2 -9 3 -14.5t1 -14.5q0 -49 -45 -94.5t-129.5 -74.5t-202.5 -29q-79 0 -146.5 25.5t-108.5 76.5t-41 129z" />
<glyph unicode="&#xfc4a;" horiz-adv-x="1261" arabic-form="isolated" d="M736 -5l10 82q28 0 47 12t37 40t39 75q29 64 57.5 97t57 45t56.5 12q34 0 63 -17.5t51 -46.5t34.5 -63.5t12.5 -68.5q0 -60 -21 -95.5t-53.5 -51t-67.5 -15.5q-29 0 -73.5 10t-111.5 52q-32 -46 -64 -56.5t-74 -10.5zM923 151q-6 -13 -11 -25q43 -25 78.5 -34.5 t59.5 -9.5q43 0 61 19t18 50q0 29 -14 58t-35.5 48t-45.5 19q-18 0 -35 -10t-35 -37t-41 -78zM30 -1q0 36 10 80t32 97l72 -28q-16 -42 -24 -77t-8 -65q0 -55 32.5 -90t86 -51t117.5 -16q77 0 140.5 18t101.5 47.5t38 65.5q0 26 -40 45t-112 39l19 83q104 -40 162 -55 t89 -15q21 0 30.5 -11.5t9.5 -27.5t-14 -29.5t-36 -13.5h-37q2 -9 3 -14.5t1 -14.5q0 -49 -45 -94.5t-129.5 -74.5t-202.5 -29q-79 0 -146.5 25.5t-108.5 76.5t-41 129zM398 -421q-21 0 -35.5 14.5t-14.5 34.5t14.5 35t35.5 15q20 0 34.5 -15t14.5 -35t-14.5 -34.5 t-34.5 -14.5zM261 -421q-21 0 -35.5 14.5t-14.5 34.5t14.5 35t35.5 15q20 0 34.5 -15t14.5 -35t-14.5 -34.5t-34.5 -14.5z" />
<glyph unicode="&#xfc4b;" horiz-adv-x="918" arabic-form="isolated" d="M649 -5l10 82q49 0 78 6t42 24.5t13 55.5q0 38 -17.5 95.5t-39.5 114.5l81 30q13 -32 24.5 -73t19.5 -81t8 -70q0 -100 -53.5 -142t-165.5 -42zM777 507q-21 0 -35.5 14.5t-14.5 34.5t14.5 35t35.5 15q20 0 34.5 -15t14.5 -35t-14.5 -34.5t-34.5 -14.5zM360 -394 q-70 0 -133.5 16t-112 49.5t-76.5 84.5t-28 120q0 92 43 171t123.5 139.5t191.5 97.5q-49 16 -102.5 32.5t-124.5 16.5q-30 0 -52.5 -5t-42.5 -10l-14 74q26 11 58.5 17.5t65.5 6.5q46 0 82 -8.5t68.5 -20.5t68.5 -24.5t80.5 -21t105.5 -9.5h9l2 -82q-52 0 -109 -12 q8 -56 26 -88.5t44.5 -48t58.5 -20t67 -4.5q21 0 30.5 -11.5t9.5 -27.5t-13.5 -29.5t-35.5 -13.5q-42 0 -84.5 6t-79 27t-60.5 66.5t-29 125.5q-58 -20 -113 -51t-98 -73t-68.5 -94.5t-25.5 -115.5q0 -70 38 -113.5t101.5 -63.5t138.5 -20q99 0 201 40l28 -68 q-58 -28 -119 -41.5t-120 -13.5zM329 -124q-21 0 -35.5 14.5t-14.5 34.5t14.5 35t35.5 15q20 0 34.5 -15t14.5 -35t-14.5 -34.5t-34.5 -14.5z" />
<glyph unicode="&#xfc4c;" horiz-adv-x="918" arabic-form="isolated" d="M649 -5l10 82q49 0 78 6t42 24.5t13 55.5q0 38 -17.5 95.5t-39.5 114.5l81 30q13 -32 24.5 -73t19.5 -81t8 -70q0 -100 -53.5 -142t-165.5 -42zM777 507q-21 0 -35.5 14.5t-14.5 34.5t14.5 35t35.5 15q20 0 34.5 -15t14.5 -35t-14.5 -34.5t-34.5 -14.5zM360 -394 q-70 0 -133.5 16t-112 49.5t-76.5 84.5t-28 120q0 92 43 171t123.5 139.5t191.5 97.5q-49 16 -102.5 32.5t-124.5 16.5q-30 0 -52.5 -5t-42.5 -10l-14 74q26 11 58.5 17.5t65.5 6.5q46 0 82 -8.5t68.5 -20.5t68.5 -24.5t80.5 -21t105.5 -9.5h9l2 -82q-52 0 -109 -12 q8 -56 26 -88.5t44.5 -48t58.5 -20t67 -4.5q21 0 30.5 -11.5t9.5 -27.5t-13.5 -29.5t-35.5 -13.5q-42 0 -84.5 6t-79 27t-60.5 66.5t-29 125.5q-58 -20 -113 -51t-98 -73t-68.5 -94.5t-25.5 -115.5q0 -70 38 -113.5t101.5 -63.5t138.5 -20q99 0 201 40l28 -68 q-58 -28 -119 -41.5t-120 -13.5z" />
<glyph unicode="&#xfc4d;" horiz-adv-x="918" arabic-form="isolated" d="M649 -5l10 82q49 0 78 6t42 24.5t13 55.5q0 38 -17.5 95.5t-39.5 114.5l81 30q13 -32 24.5 -73t19.5 -81t8 -70q0 -100 -53.5 -142t-165.5 -42zM777 507q-21 0 -35.5 14.5t-14.5 34.5t14.5 35t35.5 15q20 0 34.5 -15t14.5 -35t-14.5 -34.5t-34.5 -14.5zM360 -394 q-70 0 -133.5 16t-112 49.5t-76.5 84.5t-28 120q0 92 43 171t123.5 139.5t191.5 97.5q-49 16 -102.5 32.5t-124.5 16.5q-30 0 -52.5 -5t-42.5 -10l-14 74q26 11 58.5 17.5t65.5 6.5q46 0 82 -8.5t68.5 -20.5t68.5 -24.5t80.5 -21t105.5 -9.5h9l2 -82q-52 0 -109 -12 q8 -56 26 -88.5t44.5 -48t58.5 -20t67 -4.5q21 0 30.5 -11.5t9.5 -27.5t-13.5 -29.5t-35.5 -13.5q-42 0 -84.5 6t-79 27t-60.5 66.5t-29 125.5q-58 -20 -113 -51t-98 -73t-68.5 -94.5t-25.5 -115.5q0 -70 38 -113.5t101.5 -63.5t138.5 -20q99 0 201 40l28 -68 q-58 -28 -119 -41.5t-120 -13.5zM312 519q-21 0 -35.5 14.5t-14.5 34.5t14.5 35t35.5 15q20 0 34.5 -15t14.5 -35t-14.5 -34.5t-34.5 -14.5z" />
<glyph unicode="&#xfc4e;" horiz-adv-x="831" arabic-form="isolated" d="M562 -5l10 82q49 0 78 6t42 24.5t13 55.5q0 38 -17.5 95.5t-39.5 114.5l81 30q13 -32 24.5 -73t19.5 -81t8 -70q0 -100 -53.5 -142t-165.5 -42zM690 507q-21 0 -35.5 14.5t-14.5 34.5t14.5 35t35.5 15q20 0 34.5 -15t14.5 -35t-14.5 -34.5t-34.5 -14.5zM77 -393 q-21 77 -36 150.5t-23 131.5t-8 86q0 74 24 135t62 107.5t82 79t85.5 49t70.5 16.5q25 0 44 -11t37 -43t38 -94q19 -57 36 -86.5t37 -40t46 -10.5q21 0 30.5 -11.5t9.5 -27.5t-14 -29.5t-36 -13.5q-35 0 -60.5 11.5t-45.5 31.5q-19 -29 -46 -42.5t-58 -13.5 q-37 0 -77.5 17.5t-77.5 51.5t-64 82q-25 -38 -33 -81.5t-8 -76.5q0 -28 6 -71.5t15.5 -92.5t21 -97.5t21.5 -87.5zM360 64q26 0 39 16t3 47q-23 73 -41.5 109.5t-40.5 36.5t-61.5 -19.5t-71.5 -56.5q22 -45 53.5 -75t63 -44t56.5 -14z" />
<glyph unicode="&#xfc4f;" horiz-adv-x="1005" arabic-form="isolated" d="M736 -5l10 82q49 0 78 6t42 24.5t13 55.5q0 38 -17.5 95.5t-39.5 114.5l81 30q13 -32 24.5 -73t19.5 -81t8 -70q0 -100 -53.5 -142t-165.5 -42zM864 507q-21 0 -35.5 14.5t-14.5 34.5t14.5 35t35.5 15q20 0 34.5 -15t14.5 -35t-14.5 -34.5t-34.5 -14.5zM30 -1q0 36 10 80 t32 97l72 -28q-16 -42 -24 -77t-8 -65q0 -55 32.5 -90t86 -51t117.5 -16q77 0 140.5 18t101.5 47.5t38 65.5q0 26 -40 45t-112 39l19 83q104 -40 162 -55t89 -15q21 0 30.5 -11.5t9.5 -27.5t-14 -29.5t-36 -13.5h-37q2 -9 3 -14.5t1 -14.5q0 -49 -45 -94.5t-129.5 -74.5 t-202.5 -29q-79 0 -146.5 25.5t-108.5 76.5t-41 129z" />
<glyph unicode="&#xfc50;" horiz-adv-x="1005" arabic-form="isolated" d="M736 -5l10 82q49 0 78 6t42 24.5t13 55.5q0 38 -17.5 95.5t-39.5 114.5l81 30q13 -32 24.5 -73t19.5 -81t8 -70q0 -100 -53.5 -142t-165.5 -42zM864 507q-21 0 -35.5 14.5t-14.5 34.5t14.5 35t35.5 15q20 0 34.5 -15t14.5 -35t-14.5 -34.5t-34.5 -14.5zM30 -1q0 36 10 80 t32 97l72 -28q-16 -42 -24 -77t-8 -65q0 -55 32.5 -90t86 -51t117.5 -16q77 0 140.5 18t101.5 47.5t38 65.5q0 26 -40 45t-112 39l19 83q104 -40 162 -55t89 -15q21 0 30.5 -11.5t9.5 -27.5t-14 -29.5t-36 -13.5h-37q2 -9 3 -14.5t1 -14.5q0 -49 -45 -94.5t-129.5 -74.5 t-202.5 -29q-79 0 -146.5 25.5t-108.5 76.5t-41 129zM398 -421q-21 0 -35.5 14.5t-14.5 34.5t14.5 35t35.5 15q20 0 34.5 -15t14.5 -35t-14.5 -34.5t-34.5 -14.5zM261 -421q-21 0 -35.5 14.5t-14.5 34.5t14.5 35t35.5 15q20 0 34.5 -15t14.5 -35t-14.5 -34.5t-34.5 -14.5z " />
<glyph unicode="&#xfc51;" horiz-adv-x="1223" arabic-form="isolated" d="M1034 -8q-87 0 -170 46q-48 -21 -103.5 -32t-111.5 -11l10 82q39 0 72 4t60 12q-28 29 -45.5 65.5t-17.5 79.5q0 57 30.5 103t82.5 60q-23 18 -49 36l47 62q96 -70 158.5 -123.5t99 -93t54 -69t22.5 -52t5 -42.5q0 -33 -14.5 -62t-46 -47t-83.5 -18zM803 248 q0 -38 19 -69t48 -54q45 28 62.5 63t17.5 62q0 32 -18.5 58.5t-51.5 26.5q-34 0 -55.5 -27t-21.5 -60zM1024 238q0 -46 -21.5 -84.5t-57.5 -67.5q44 -15 85 -15q34 0 50 11.5t16 38.5q0 6 -2.5 20t-17.5 39.5t-52 64.5v-7zM360 -394q-70 0 -133.5 16t-112 49.5t-76.5 84.5 t-28 120q0 92 43 171t123.5 139.5t191.5 97.5q-49 16 -102.5 32.5t-124.5 16.5q-30 0 -52.5 -5t-42.5 -10l-14 74q26 11 58.5 17.5t65.5 6.5q46 0 82 -8.5t68.5 -20.5t68.5 -24.5t80.5 -21t105.5 -9.5h9l2 -82q-52 0 -109 -12q8 -56 26 -88.5t44.5 -48t58.5 -20t67 -4.5 q21 0 30.5 -11.5t9.5 -27.5t-13.5 -29.5t-35.5 -13.5q-42 0 -84.5 6t-79 27t-60.5 66.5t-29 125.5q-58 -20 -113 -51t-98 -73t-68.5 -94.5t-25.5 -115.5q0 -70 38 -113.5t101.5 -63.5t138.5 -20q99 0 201 40l28 -68q-58 -28 -119 -41.5t-120 -13.5zM329 -124 q-21 0 -35.5 14.5t-14.5 34.5t14.5 35t35.5 15q20 0 34.5 -15t14.5 -35t-14.5 -34.5t-34.5 -14.5z" />
<glyph unicode="&#xfc52;" horiz-adv-x="1136" arabic-form="isolated" d="M947 -8q-87 0 -170 46q-48 -21 -103.5 -32t-111.5 -11l10 82q39 0 72 4t60 12q-28 29 -45.5 65.5t-17.5 79.5q0 57 30.5 103t82.5 60q-23 18 -49 36l47 62q96 -70 158.5 -123.5t99 -93t54 -69t22.5 -52t5 -42.5q0 -33 -14.5 -62t-46 -47t-83.5 -18zM716 248q0 -38 19 -69 t48 -54q45 28 62.5 63t17.5 62q0 32 -18.5 58.5t-51.5 26.5q-34 0 -55.5 -27t-21.5 -60zM937 238q0 -46 -21.5 -84.5t-57.5 -67.5q44 -15 85 -15q34 0 50 11.5t16 38.5q0 6 -2.5 20t-17.5 39.5t-52 64.5v-7zM77 -393q-21 77 -36 150.5t-23 131.5t-8 86q0 74 24 135t62 107.5 t82 79t85.5 49t70.5 16.5q25 0 44 -11t37 -43t38 -94q19 -57 36 -86.5t37 -40t46 -10.5q21 0 30.5 -11.5t9.5 -27.5t-14 -29.5t-36 -13.5q-35 0 -60.5 11.5t-45.5 31.5q-19 -29 -46 -42.5t-58 -13.5q-37 0 -77.5 17.5t-77.5 51.5t-64 82q-25 -38 -33 -81.5t-8 -76.5 q0 -28 6 -71.5t15.5 -92.5t21 -97.5t21.5 -87.5zM360 64q26 0 39 16t3 47q-23 73 -41.5 109.5t-40.5 36.5t-61.5 -19.5t-71.5 -56.5q22 -45 53.5 -75t63 -44t56.5 -14z" />
<glyph unicode="&#xfc53;" horiz-adv-x="1310" arabic-form="isolated" d="M1121 -8q-87 0 -170 46q-48 -21 -103.5 -32t-111.5 -11l10 82q39 0 72 4t60 12q-28 29 -45.5 65.5t-17.5 79.5q0 57 30.5 103t82.5 60q-23 18 -49 36l47 62q96 -70 158.5 -123.5t99 -93t54 -69t22.5 -52t5 -42.5q0 -33 -14.5 -62t-46 -47t-83.5 -18zM890 248 q0 -38 19 -69t48 -54q45 28 62.5 63t17.5 62q0 32 -18.5 58.5t-51.5 26.5q-34 0 -55.5 -27t-21.5 -60zM1111 238q0 -46 -21.5 -84.5t-57.5 -67.5q44 -15 85 -15q34 0 50 11.5t16 38.5q0 6 -2.5 20t-17.5 39.5t-52 64.5v-7zM30 -1q0 36 10 80t32 97l72 -28q-16 -42 -24 -77 t-8 -65q0 -55 32.5 -90t86 -51t117.5 -16q77 0 140.5 18t101.5 47.5t38 65.5q0 26 -40 45t-112 39l19 83q104 -40 162 -55t89 -15q21 0 30.5 -11.5t9.5 -27.5t-14 -29.5t-36 -13.5h-37q2 -9 3 -14.5t1 -14.5q0 -49 -45 -94.5t-129.5 -74.5t-202.5 -29q-79 0 -146.5 25.5 t-108.5 76.5t-41 129z" />
<glyph unicode="&#xfc54;" horiz-adv-x="1310" arabic-form="isolated" d="M1121 -8q-87 0 -170 46q-48 -21 -103.5 -32t-111.5 -11l10 82q39 0 72 4t60 12q-28 29 -45.5 65.5t-17.5 79.5q0 57 30.5 103t82.5 60q-23 18 -49 36l47 62q96 -70 158.5 -123.5t99 -93t54 -69t22.5 -52t5 -42.5q0 -33 -14.5 -62t-46 -47t-83.5 -18zM890 248 q0 -38 19 -69t48 -54q45 28 62.5 63t17.5 62q0 32 -18.5 58.5t-51.5 26.5q-34 0 -55.5 -27t-21.5 -60zM1111 238q0 -46 -21.5 -84.5t-57.5 -67.5q44 -15 85 -15q34 0 50 11.5t16 38.5q0 6 -2.5 20t-17.5 39.5t-52 64.5v-7zM30 -1q0 36 10 80t32 97l72 -28q-16 -42 -24 -77 t-8 -65q0 -55 32.5 -90t86 -51t117.5 -16q77 0 140.5 18t101.5 47.5t38 65.5q0 26 -40 45t-112 39l19 83q104 -40 162 -55t89 -15q21 0 30.5 -11.5t9.5 -27.5t-14 -29.5t-36 -13.5h-37q2 -9 3 -14.5t1 -14.5q0 -49 -45 -94.5t-129.5 -74.5t-202.5 -29q-79 0 -146.5 25.5 t-108.5 76.5t-41 129zM398 -421q-21 0 -35.5 14.5t-14.5 34.5t14.5 35t35.5 15q20 0 34.5 -15t14.5 -35t-14.5 -34.5t-34.5 -14.5zM261 -421q-21 0 -35.5 14.5t-14.5 34.5t14.5 35t35.5 15q20 0 34.5 -15t14.5 -35t-14.5 -34.5t-34.5 -14.5z" />
<glyph unicode="&#xfc55;" horiz-adv-x="948" arabic-form="isolated" d="M649 -5l10 82q59 0 92 4.5t47 23t14 58.5q0 38 -17.5 95.5t-39.5 114.5l81 30q13 -32 24.5 -73t19.5 -81t8 -70q0 -100 -56 -142t-183 -42zM834 -194q-21 0 -35.5 14.5t-14.5 34.5t14.5 35t35.5 15q20 0 34.5 -15t14.5 -35t-14.5 -34.5t-34.5 -14.5zM697 -194 q-21 0 -35.5 14.5t-14.5 34.5t14.5 35t35.5 15q20 0 34.5 -15t14.5 -35t-14.5 -34.5t-34.5 -14.5zM360 -394q-70 0 -133.5 16t-112 49.5t-76.5 84.5t-28 120q0 92 43 171t123.5 139.5t191.5 97.5q-49 16 -102.5 32.5t-124.5 16.5q-30 0 -52.5 -5t-42.5 -10l-14 74 q26 11 58.5 17.5t65.5 6.5q46 0 82 -8.5t68.5 -20.5t68.5 -24.5t80.5 -21t105.5 -9.5h9l2 -82q-52 0 -109 -12q8 -56 26 -88.5t44.5 -48t58.5 -20t67 -4.5q21 0 30.5 -11.5t9.5 -27.5t-13.5 -29.5t-35.5 -13.5q-42 0 -84.5 6t-79 27t-60.5 66.5t-29 125.5q-58 -20 -113 -51 t-98 -73t-68.5 -94.5t-25.5 -115.5q0 -70 38 -113.5t101.5 -63.5t138.5 -20q99 0 201 40l28 -68q-58 -28 -119 -41.5t-120 -13.5zM329 -124q-21 0 -35.5 14.5t-14.5 34.5t14.5 35t35.5 15q20 0 34.5 -15t14.5 -35t-14.5 -34.5t-34.5 -14.5z" />
<glyph unicode="&#xfc56;" horiz-adv-x="948" arabic-form="isolated" d="M649 -5l10 82q59 0 92 4.5t47 23t14 58.5q0 38 -17.5 95.5t-39.5 114.5l81 30q13 -32 24.5 -73t19.5 -81t8 -70q0 -100 -56 -142t-183 -42zM834 -194q-21 0 -35.5 14.5t-14.5 34.5t14.5 35t35.5 15q20 0 34.5 -15t14.5 -35t-14.5 -34.5t-34.5 -14.5zM697 -194 q-21 0 -35.5 14.5t-14.5 34.5t14.5 35t35.5 15q20 0 34.5 -15t14.5 -35t-14.5 -34.5t-34.5 -14.5zM360 -394q-70 0 -133.5 16t-112 49.5t-76.5 84.5t-28 120q0 92 43 171t123.5 139.5t191.5 97.5q-49 16 -102.5 32.5t-124.5 16.5q-30 0 -52.5 -5t-42.5 -10l-14 74 q26 11 58.5 17.5t65.5 6.5q46 0 82 -8.5t68.5 -20.5t68.5 -24.5t80.5 -21t105.5 -9.5h9l2 -82q-52 0 -109 -12q8 -56 26 -88.5t44.5 -48t58.5 -20t67 -4.5q21 0 30.5 -11.5t9.5 -27.5t-13.5 -29.5t-35.5 -13.5q-42 0 -84.5 6t-79 27t-60.5 66.5t-29 125.5q-58 -20 -113 -51 t-98 -73t-68.5 -94.5t-25.5 -115.5q0 -70 38 -113.5t101.5 -63.5t138.5 -20q99 0 201 40l28 -68q-58 -28 -119 -41.5t-120 -13.5z" />
<glyph unicode="&#xfc57;" horiz-adv-x="948" arabic-form="isolated" d="M649 -5l10 82q59 0 92 4.5t47 23t14 58.5q0 38 -17.5 95.5t-39.5 114.5l81 30q13 -32 24.5 -73t19.5 -81t8 -70q0 -100 -56 -142t-183 -42zM834 -194q-21 0 -35.5 14.5t-14.5 34.5t14.5 35t35.5 15q20 0 34.5 -15t14.5 -35t-14.5 -34.5t-34.5 -14.5zM697 -194 q-21 0 -35.5 14.5t-14.5 34.5t14.5 35t35.5 15q20 0 34.5 -15t14.5 -35t-14.5 -34.5t-34.5 -14.5zM360 -394q-70 0 -133.5 16t-112 49.5t-76.5 84.5t-28 120q0 92 43 171t123.5 139.5t191.5 97.5q-49 16 -102.5 32.5t-124.5 16.5q-30 0 -52.5 -5t-42.5 -10l-14 74 q26 11 58.5 17.5t65.5 6.5q46 0 82 -8.5t68.5 -20.5t68.5 -24.5t80.5 -21t105.5 -9.5h9l2 -82q-52 0 -109 -12q8 -56 26 -88.5t44.5 -48t58.5 -20t67 -4.5q21 0 30.5 -11.5t9.5 -27.5t-13.5 -29.5t-35.5 -13.5q-42 0 -84.5 6t-79 27t-60.5 66.5t-29 125.5q-58 -20 -113 -51 t-98 -73t-68.5 -94.5t-25.5 -115.5q0 -70 38 -113.5t101.5 -63.5t138.5 -20q99 0 201 40l28 -68q-58 -28 -119 -41.5t-120 -13.5zM312 519q-21 0 -35.5 14.5t-14.5 34.5t14.5 35t35.5 15q20 0 34.5 -15t14.5 -35t-14.5 -34.5t-34.5 -14.5z" />
<glyph unicode="&#xfc58;" horiz-adv-x="861" arabic-form="isolated" d="M562 -5l10 82q59 0 92 4.5t47 23t14 58.5q0 38 -17.5 95.5t-39.5 114.5l81 30q13 -32 24.5 -73t19.5 -81t8 -70q0 -100 -56 -142t-183 -42zM747 -194q-21 0 -35.5 14.5t-14.5 34.5t14.5 35t35.5 15q20 0 34.5 -15t14.5 -35t-14.5 -34.5t-34.5 -14.5zM610 -194 q-21 0 -35.5 14.5t-14.5 34.5t14.5 35t35.5 15q20 0 34.5 -15t14.5 -35t-14.5 -34.5t-34.5 -14.5zM77 -393q-21 77 -36 150.5t-23 131.5t-8 86q0 74 24 135t62 107.5t82 79t85.5 49t70.5 16.5q25 0 44 -11t37 -43t38 -94q19 -57 36 -86.5t37 -40t46 -10.5q21 0 30.5 -11.5 t9.5 -27.5t-14 -29.5t-36 -13.5q-35 0 -60.5 11.5t-45.5 31.5q-19 -29 -46 -42.5t-58 -13.5q-37 0 -77.5 17.5t-77.5 51.5t-64 82q-25 -38 -33 -81.5t-8 -76.5q0 -28 6 -71.5t15.5 -92.5t21 -97.5t21.5 -87.5zM360 64q26 0 39 16t3 47q-23 73 -41.5 109.5t-40.5 36.5 t-61.5 -19.5t-71.5 -56.5q22 -45 53.5 -75t63 -44t56.5 -14z" />
<glyph unicode="&#xfc59;" horiz-adv-x="1035" arabic-form="isolated" d="M736 -5l10 82q59 0 92 4.5t47 23t14 58.5q0 38 -17.5 95.5t-39.5 114.5l81 30q13 -32 24.5 -73t19.5 -81t8 -70q0 -100 -56 -142t-183 -42zM921 -194q-21 0 -35.5 14.5t-14.5 34.5t14.5 35t35.5 15q20 0 34.5 -15t14.5 -35t-14.5 -34.5t-34.5 -14.5zM784 -194 q-21 0 -35.5 14.5t-14.5 34.5t14.5 35t35.5 15q20 0 34.5 -15t14.5 -35t-14.5 -34.5t-34.5 -14.5zM30 -1q0 36 10 80t32 97l72 -28q-16 -42 -24 -77t-8 -65q0 -55 32.5 -90t86 -51t117.5 -16q77 0 140.5 18t101.5 47.5t38 65.5q0 26 -40 45t-112 39l19 83q104 -40 162 -55 t89 -15q21 0 30.5 -11.5t9.5 -27.5t-14 -29.5t-36 -13.5h-37q2 -9 3 -14.5t1 -14.5q0 -49 -45 -94.5t-129.5 -74.5t-202.5 -29q-79 0 -146.5 25.5t-108.5 76.5t-41 129z" />
<glyph unicode="&#xfc5a;" horiz-adv-x="1035" arabic-form="isolated" d="M736 -5l10 82q59 0 92 4.5t47 23t14 58.5q0 38 -17.5 95.5t-39.5 114.5l81 30q13 -32 24.5 -73t19.5 -81t8 -70q0 -100 -56 -142t-183 -42zM921 -194q-21 0 -35.5 14.5t-14.5 34.5t14.5 35t35.5 15q20 0 34.5 -15t14.5 -35t-14.5 -34.5t-34.5 -14.5zM784 -194 q-21 0 -35.5 14.5t-14.5 34.5t14.5 35t35.5 15q20 0 34.5 -15t14.5 -35t-14.5 -34.5t-34.5 -14.5zM30 -1q0 36 10 80t32 97l72 -28q-16 -42 -24 -77t-8 -65q0 -55 32.5 -90t86 -51t117.5 -16q77 0 140.5 18t101.5 47.5t38 65.5q0 26 -40 45t-112 39l19 83q104 -40 162 -55 t89 -15q21 0 30.5 -11.5t9.5 -27.5t-14 -29.5t-36 -13.5h-37q2 -9 3 -14.5t1 -14.5q0 -49 -45 -94.5t-129.5 -74.5t-202.5 -29q-79 0 -146.5 25.5t-108.5 76.5t-41 129zM398 -421q-21 0 -35.5 14.5t-14.5 34.5t14.5 35t35.5 15q20 0 34.5 -15t14.5 -35t-14.5 -34.5 t-34.5 -14.5zM261 -421q-21 0 -35.5 14.5t-14.5 34.5t14.5 35t35.5 15q20 0 34.5 -15t14.5 -35t-14.5 -34.5t-34.5 -14.5z" />
<glyph unicode="&#xfc5b;" horiz-adv-x="477" arabic-form="isolated" d="M0 -200h1000v1000h-1000v-1000zM310 -73v180h59v-131q0 -27 -31 -42q-14 -7 -28 -7z" />
<glyph unicode="&#xfc5c;" horiz-adv-x="367" arabic-form="isolated" d="M0 -200h1000v1000h-1000v-1000zM268 -177v180h59v-131q0 -27 -31 -42q-14 -7 -28 -7z" />
<glyph unicode="&#xfc5d;" horiz-adv-x="760" arabic-form="isolated" d="M0 -200h1000v1000h-1000v-1000zM108 -308v180h59v-131q0 -27 -31 -42q-14 -7 -28 -7z" />
<glyph unicode="&#xfc5e;" arabic-form="isolated" d="M-65 110q0 18 16 22q3 1 5 1q18 -5 22 -23v-97l53 18v98q5 19 23 22q20 -3 23 -22v-86q5 6 11 9l45 16v97q3 20 21 22q20 -3 22 -22v-99q-1 -31 -34 -44l-38 -14q-19 -4 -28 11q-8 -24 -38 -34l-48 -17h-3q-2 -1 -3 -1q-25 -3 -38 10q-11 12 -11 34v99zM27 239l-13 36 q-14 38 14 65q11 10 23 14q54 15 92 -26q12 -14 18 -28q13 -38 -16 -63q-9 -6 -18 -10l-139 -50q-41 -16 -75 11q-16 14 -23 33l-14 39q-7 20 11 28q1 1 2 1q18 6 27 -10q2 -2 2 -3l14 -40q6 -20 30 -19q6 0 11 2zM69 254l42 16q11 4 9 12q-1 2 -1 3q-8 21 -35 26 q-10 2 -20 -1q-12 -4 -9 -18q1 -2 1 -3z" />
<glyph unicode="&#xfc5f;" arabic-form="isolated" d="M-96 -3q-4 22 14 29l198 72q20 7 29 -10q1 -2 1 -3q5 -21 -12 -27q-1 -1 -2 -1l-198 -73q-20 -7 -29 10q-1 2 -1 3zM-96 102q-4 22 14 29l198 72q20 7 29 -10q1 -2 1 -3q5 -21 -12 -27q-1 -1 -2 -1l-198 -73q-20 -7 -29 10q-1 2 -1 3zM-106 360q0 18 16 22q3 1 5 1 q18 -5 22 -23v-97l53 18v98q5 19 23 22q20 -3 23 -22v-86q5 6 11 9l45 16v97q3 20 21 22q20 -3 22 -22v-99q-1 -31 -34 -44l-38 -14q-19 -4 -28 11q-8 -24 -38 -34l-48 -17h-3q-2 -1 -3 -1q-25 -3 -38 10q-11 12 -11 34v99z" />
<glyph unicode="&#xfc60;" arabic-form="isolated" d="M-120 110q0 18 16 22q3 1 5 1q18 -5 22 -23v-97l53 18v98q5 19 23 22q20 -3 23 -22v-86q5 6 11 9l45 16v97q3 20 21 22q20 -3 22 -22v-99q-1 -31 -34 -44l-38 -14q-19 -4 -28 11q-8 -24 -38 -34l-48 -17h-3q-2 -1 -3 -1q-25 -3 -38 10q-11 12 -11 34v99zM-123 198 q-4 22 14 29l198 72q20 7 29 -10q1 -2 1 -3q5 -21 -12 -27q-1 -1 -2 -1l-198 -73q-20 -7 -29 10q-1 2 -1 3z" />
<glyph unicode="&#xfc61;" arabic-form="isolated" d="M-119 110q0 18 16 22q3 1 5 1q18 -5 22 -23v-97l53 18v98q5 19 23 22q20 -3 23 -22v-86q5 6 11 9l45 16v97q3 20 21 22q20 -3 22 -22v-99q-1 -31 -34 -44l-38 -14q-19 -4 -28 11q-8 -24 -38 -34l-48 -17h-3q-2 -1 -3 -1q-25 -3 -38 10q-11 12 -11 34v99zM-17 259l-11 36 q-14 37 13 65q11 11 24 15q54 15 92 -26q11 -13 17 -28q13 -36 -14 -61q-9 -8 -20 -12l-167 -60q-19 -6 -27 9q-1 3 -1 4q-6 19 9 27q3 1 4 1zM26 275l43 16q11 3 9 11q-1 2 -1 3q-8 22 -35 27q-11 1 -21 -1q-11 -4 -8 -18q1 -2 1 -3z" />
<glyph unicode="&#xfc62;" arabic-form="isolated" d="M-93 -2q-4 22 14 29l198 72q20 7 29 -10q1 -2 1 -3q5 -21 -12 -27q-1 -1 -2 -1l-198 -73q-20 -7 -29 10q-1 2 -1 3zM-106 288q0 18 16 22q3 1 5 1q18 -5 22 -23v-97l53 18v98q5 19 23 22q20 -3 23 -22v-86q5 6 11 9l45 16v97q3 20 21 22q20 -3 22 -22v-99q-1 -31 -34 -44 l-38 -14q-19 -4 -28 11q-8 -24 -38 -34l-48 -17h-3q-2 -1 -3 -1q-25 -3 -38 10q-11 12 -11 34v99z" />
<glyph unicode="&#xfc63;" arabic-form="isolated" d="M-120 110q0 18 16 22q3 1 5 1q18 -5 22 -23v-97l53 18v98q5 19 23 22q20 -3 23 -22v-86q5 6 11 9l45 16v97q3 20 21 22q20 -3 22 -22v-99q-1 -31 -34 -44l-38 -14q-19 -4 -28 11q-8 -24 -38 -34l-48 -17h-3q-2 -1 -3 -1q-25 -3 -38 10q-11 12 -11 34v99zM46 200v180h59 v-131q0 -27 -31 -42q-14 -7 -28 -7z" />
<glyph unicode="&#xfc64;" horiz-adv-x="739" arabic-form="final" d="M396 -5l10 82q42 0 66 7.5t36.5 29t21.5 62.5t22 107l78 -15q-6 -27 -13.5 -62t-7.5 -59q0 -20 9 -36t39 -25t92 -9q21 0 30.5 -11.5t9.5 -27.5t-14 -29.5t-36 -13.5q-79 0 -117 17t-52 51q-30 -42 -69 -55t-105 -13zM549 -18v-56h-74l26 -54v-1l1 -2q11 -24 0 -39 q-10 -15 -35 -15h-110v56h82l-26 54l-6 18q-1 14 5 23q12 15 37 16h100zM4 -232l-29 76q97 32 151.5 76t77 92.5t22.5 94.5q0 49 -21.5 99.5t-47.5 95.5l73 37q28 -53 47.5 -102t30.5 -86q14 -43 36.5 -58.5t61.5 -15.5q21 0 30.5 -11.5t9.5 -27.5t-14 -29.5t-36 -13.5 q-38 0 -63.5 12t-41.5 32q-10 -56 -42 -102t-75 -80.5t-88 -56.5t-82 -32z" />
<glyph unicode="&#xfc65;" horiz-adv-x="739" arabic-form="final" d="M396 -5l10 82q42 0 66 7.5t36.5 29t21.5 62.5t22 107l78 -15q-6 -27 -13.5 -62t-7.5 -59q0 -20 9 -36t39 -25t92 -9q21 0 30.5 -11.5t9.5 -27.5t-14 -29.5t-36 -13.5q-79 0 -117 17t-52 51q-30 -42 -69 -55t-105 -13zM549 -18v-56h-74l26 -54v-1l1 -2q11 -24 0 -39 q-10 -15 -35 -15h-110v56h82l-26 54l-6 18q-1 14 5 23q12 15 37 16h100zM4 -232l-29 76q97 32 151.5 76t77 92.5t22.5 94.5q0 49 -21.5 99.5t-47.5 95.5l73 37q28 -53 47.5 -102t30.5 -86q14 -43 36.5 -58.5t61.5 -15.5q21 0 30.5 -11.5t9.5 -27.5t-14 -29.5t-36 -13.5 q-38 0 -63.5 12t-41.5 32q-10 -56 -42 -102t-75 -80.5t-88 -56.5t-82 -32zM163 454q-21 0 -35.5 14.5t-14.5 34.5t14.5 35t35.5 15q20 0 34.5 -15t14.5 -35t-14.5 -34.5t-34.5 -14.5z" />
<glyph unicode="&#xfc66;" horiz-adv-x="905" arabic-form="final" d="M562 -5l10 82q42 0 66 7.5t36.5 29t21.5 62.5t22 107l78 -15q-6 -27 -13.5 -62t-7.5 -59q0 -20 9 -36t39 -25t92 -9q21 0 30.5 -11.5t9.5 -27.5t-14 -29.5t-36 -13.5q-79 0 -117 17t-52 51q-30 -42 -69 -55t-105 -13zM715 -18v-56h-74l26 -54v-1l1 -2q11 -24 0 -39 q-10 -15 -35 -15h-110v56h82l-26 54l-6 18q-1 14 5 23q12 15 37 16h100zM77 -393q-21 77 -36 150.5t-23 131.5t-8 86q0 74 24 135t62 107.5t82 79t85.5 49t70.5 16.5q25 0 44 -11t37 -43t38 -94q19 -57 36 -86.5t37 -40t46 -10.5q21 0 30.5 -11.5t9.5 -27.5t-14 -29.5 t-36 -13.5q-35 0 -60.5 11.5t-45.5 31.5q-19 -29 -46 -42.5t-58 -13.5q-37 0 -77.5 17.5t-77.5 51.5t-64 82q-25 -38 -33 -81.5t-8 -76.5q0 -28 6 -71.5t15.5 -92.5t21 -97.5t21.5 -87.5zM360 64q26 0 39 16t3 47q-23 73 -41.5 109.5t-40.5 36.5t-61.5 -19.5t-71.5 -56.5 q22 -45 53.5 -75t63 -44t56.5 -14z" />
<glyph unicode="&#xfc67;" horiz-adv-x="1073" arabic-form="final" d="M730 -5l10 82q42 0 66 7.5t36.5 29t21.5 62.5t22 107l78 -15q-6 -27 -13.5 -62t-7.5 -59q0 -20 9 -36t39 -25t92 -9q21 0 30.5 -11.5t9.5 -27.5t-14 -29.5t-36 -13.5q-79 0 -117 17t-52 51q-30 -42 -69 -55t-105 -13zM883 -18v-56h-74l26 -54v-1l1 -2q11 -24 0 -39 q-10 -15 -35 -15h-110v56h82l-26 54l-6 18q-1 14 5 23q12 15 37 16h100zM30 -1q0 36 10 80t32 97l72 -28q-16 -42 -24 -77t-8 -65q0 -55 27.5 -89.5t74 -50.5t102.5 -16q91 0 142.5 25.5t73 65.5t21.5 85q0 66 -14.5 121.5t-31.5 114.5l81 22q16 -57 22.5 -82.5t10.5 -41.5 q11 -37 29 -54.5t41.5 -23t48.5 -5.5q21 0 30.5 -11.5t9.5 -27.5t-14 -29.5t-36 -13.5q-31 0 -54.5 8.5t-39.5 21.5q-5 -49 -23 -95t-54.5 -82.5t-96.5 -58t-149 -21.5q-75 0 -139.5 25t-104 76.5t-39.5 129.5zM332 398q-21 0 -35.5 14.5t-14.5 34.5t14.5 35t35.5 15 q20 0 34.5 -15t14.5 -35t-14.5 -34.5t-34.5 -14.5z" />
<glyph unicode="&#xfc68;" horiz-adv-x="1079" arabic-form="final" d="M736 -5l10 82q42 0 66 7.5t36.5 29t21.5 62.5t22 107l78 -15q-6 -27 -13.5 -62t-7.5 -59q0 -20 9 -36t39 -25t92 -9q21 0 30.5 -11.5t9.5 -27.5t-14 -29.5t-36 -13.5q-79 0 -117 17t-52 51q-30 -42 -69 -55t-105 -13zM889 -18v-56h-74l26 -54v-1l1 -2q11 -24 0 -39 q-10 -15 -35 -15h-110v56h82l-26 54l-6 18q-1 14 5 23q12 15 37 16h100zM30 -1q0 36 10 80t32 97l72 -28q-16 -42 -24 -77t-8 -65q0 -55 32.5 -90t86 -51t117.5 -16q77 0 140.5 18t101.5 47.5t38 65.5q0 26 -40 45t-112 39l19 83q104 -40 162 -55t89 -15q21 0 30.5 -11.5 t9.5 -27.5t-14 -29.5t-36 -13.5h-37q2 -9 3 -14.5t1 -14.5q0 -49 -45 -94.5t-129.5 -74.5t-202.5 -29q-79 0 -146.5 25.5t-108.5 76.5t-41 129z" />
<glyph unicode="&#xfc69;" horiz-adv-x="1079" arabic-form="final" d="M736 -5l10 82q42 0 66 7.5t36.5 29t21.5 62.5t22 107l78 -15q-6 -27 -13.5 -62t-7.5 -59q0 -20 9 -36t39 -25t92 -9q21 0 30.5 -11.5t9.5 -27.5t-14 -29.5t-36 -13.5q-79 0 -117 17t-52 51q-30 -42 -69 -55t-105 -13zM889 -18v-56h-74l26 -54v-1l1 -2q11 -24 0 -39 q-10 -15 -35 -15h-110v56h82l-26 54l-6 18q-1 14 5 23q12 15 37 16h100zM30 -1q0 36 10 80t32 97l72 -28q-16 -42 -24 -77t-8 -65q0 -55 32.5 -90t86 -51t117.5 -16q77 0 140.5 18t101.5 47.5t38 65.5q0 26 -40 45t-112 39l19 83q104 -40 162 -55t89 -15q21 0 30.5 -11.5 t9.5 -27.5t-14 -29.5t-36 -13.5h-37q2 -9 3 -14.5t1 -14.5q0 -49 -45 -94.5t-129.5 -74.5t-202.5 -29q-79 0 -146.5 25.5t-108.5 76.5t-41 129zM398 -421q-21 0 -35.5 14.5t-14.5 34.5t14.5 35t35.5 15q20 0 34.5 -15t14.5 -35t-14.5 -34.5t-34.5 -14.5zM261 -421 q-21 0 -35.5 14.5t-14.5 34.5t14.5 35t35.5 15q20 0 34.5 -15t14.5 -35t-14.5 -34.5t-34.5 -14.5z" />
<glyph unicode="&#xfc6a;" horiz-adv-x="739" arabic-form="final" d="M396 -5l10 82q42 0 66 7.5t36.5 29t21.5 62.5t22 107l78 -15q-6 -27 -13.5 -62t-7.5 -59q0 -20 9 -36t39 -25t92 -9q21 0 30.5 -11.5t9.5 -27.5t-14 -29.5t-36 -13.5q-79 0 -117 17t-52 51q-30 -42 -69 -55t-105 -13zM566 -191q-21 0 -35.5 14.5t-14.5 34.5t14.5 35 t35.5 15q20 0 34.5 -15t14.5 -35t-14.5 -34.5t-34.5 -14.5zM4 -232l-29 76q97 32 151.5 76t77 92.5t22.5 94.5q0 49 -21.5 99.5t-47.5 95.5l73 37q28 -53 47.5 -102t30.5 -86q14 -43 36.5 -58.5t61.5 -15.5q21 0 30.5 -11.5t9.5 -27.5t-14 -29.5t-36 -13.5q-38 0 -63.5 12 t-41.5 32q-10 -56 -42 -102t-75 -80.5t-88 -56.5t-82 -32z" />
<glyph unicode="&#xfc6b;" horiz-adv-x="739" arabic-form="final" d="M396 -5l10 82q42 0 66 7.5t36.5 29t21.5 62.5t22 107l78 -15q-6 -27 -13.5 -62t-7.5 -59q0 -20 9 -36t39 -25t92 -9q21 0 30.5 -11.5t9.5 -27.5t-14 -29.5t-36 -13.5q-79 0 -117 17t-52 51q-30 -42 -69 -55t-105 -13zM566 -191q-21 0 -35.5 14.5t-14.5 34.5t14.5 35 t35.5 15q20 0 34.5 -15t14.5 -35t-14.5 -34.5t-34.5 -14.5zM4 -232l-29 76q97 32 151.5 76t77 92.5t22.5 94.5q0 49 -21.5 99.5t-47.5 95.5l73 37q28 -53 47.5 -102t30.5 -86q14 -43 36.5 -58.5t61.5 -15.5q21 0 30.5 -11.5t9.5 -27.5t-14 -29.5t-36 -13.5q-38 0 -63.5 12 t-41.5 32q-10 -56 -42 -102t-75 -80.5t-88 -56.5t-82 -32zM163 454q-21 0 -35.5 14.5t-14.5 34.5t14.5 35t35.5 15q20 0 34.5 -15t14.5 -35t-14.5 -34.5t-34.5 -14.5z" />
<glyph unicode="&#xfc6c;" horiz-adv-x="905" arabic-form="final" d="M562 -5l10 82q42 0 66 7.5t36.5 29t21.5 62.5t22 107l78 -15q-6 -27 -13.5 -62t-7.5 -59q0 -20 9 -36t39 -25t92 -9q21 0 30.5 -11.5t9.5 -27.5t-14 -29.5t-36 -13.5q-79 0 -117 17t-52 51q-30 -42 -69 -55t-105 -13zM732 -191q-21 0 -35.5 14.5t-14.5 34.5t14.5 35 t35.5 15q20 0 34.5 -15t14.5 -35t-14.5 -34.5t-34.5 -14.5zM77 -393q-21 77 -36 150.5t-23 131.5t-8 86q0 74 24 135t62 107.5t82 79t85.5 49t70.5 16.5q25 0 44 -11t37 -43t38 -94q19 -57 36 -86.5t37 -40t46 -10.5q21 0 30.5 -11.5t9.5 -27.5t-14 -29.5t-36 -13.5 q-35 0 -60.5 11.5t-45.5 31.5q-19 -29 -46 -42.5t-58 -13.5q-37 0 -77.5 17.5t-77.5 51.5t-64 82q-25 -38 -33 -81.5t-8 -76.5q0 -28 6 -71.5t15.5 -92.5t21 -97.5t21.5 -87.5zM360 64q26 0 39 16t3 47q-23 73 -41.5 109.5t-40.5 36.5t-61.5 -19.5t-71.5 -56.5 q22 -45 53.5 -75t63 -44t56.5 -14z" />
<glyph unicode="&#xfc6d;" horiz-adv-x="1073" arabic-form="final" d="M730 -5l10 82q42 0 66 7.5t36.5 29t21.5 62.5t22 107l78 -15q-6 -27 -13.5 -62t-7.5 -59q0 -20 9 -36t39 -25t92 -9q21 0 30.5 -11.5t9.5 -27.5t-14 -29.5t-36 -13.5q-79 0 -117 17t-52 51q-30 -42 -69 -55t-105 -13zM900 -191q-21 0 -35.5 14.5t-14.5 34.5t14.5 35 t35.5 15q20 0 34.5 -15t14.5 -35t-14.5 -34.5t-34.5 -14.5zM30 -1q0 36 10 80t32 97l72 -28q-16 -42 -24 -77t-8 -65q0 -55 27.5 -89.5t74 -50.5t102.5 -16q91 0 142.5 25.5t73 65.5t21.5 85q0 66 -14.5 121.5t-31.5 114.5l81 22q16 -57 22.5 -82.5t10.5 -41.5 q11 -37 29 -54.5t41.5 -23t48.5 -5.5q21 0 30.5 -11.5t9.5 -27.5t-14 -29.5t-36 -13.5q-31 0 -54.5 8.5t-39.5 21.5q-5 -49 -23 -95t-54.5 -82.5t-96.5 -58t-149 -21.5q-75 0 -139.5 25t-104 76.5t-39.5 129.5zM332 398q-21 0 -35.5 14.5t-14.5 34.5t14.5 35t35.5 15 q20 0 34.5 -15t14.5 -35t-14.5 -34.5t-34.5 -14.5z" />
<glyph unicode="&#xfc6e;" horiz-adv-x="1079" arabic-form="final" d="M736 -5l10 82q42 0 66 7.5t36.5 29t21.5 62.5t22 107l78 -15q-6 -27 -13.5 -62t-7.5 -59q0 -20 9 -36t39 -25t92 -9q21 0 30.5 -11.5t9.5 -27.5t-14 -29.5t-36 -13.5q-79 0 -117 17t-52 51q-30 -42 -69 -55t-105 -13zM906 -191q-21 0 -35.5 14.5t-14.5 34.5t14.5 35 t35.5 15q20 0 34.5 -15t14.5 -35t-14.5 -34.5t-34.5 -14.5zM30 -1q0 36 10 80t32 97l72 -28q-16 -42 -24 -77t-8 -65q0 -55 32.5 -90t86 -51t117.5 -16q77 0 140.5 18t101.5 47.5t38 65.5q0 26 -40 45t-112 39l19 83q104 -40 162 -55t89 -15q21 0 30.5 -11.5t9.5 -27.5 t-14 -29.5t-36 -13.5h-37q2 -9 3 -14.5t1 -14.5q0 -49 -45 -94.5t-129.5 -74.5t-202.5 -29q-79 0 -146.5 25.5t-108.5 76.5t-41 129z" />
<glyph unicode="&#xfc6f;" horiz-adv-x="1079" arabic-form="final" d="M736 -5l10 82q42 0 66 7.5t36.5 29t21.5 62.5t22 107l78 -15q-6 -27 -13.5 -62t-7.5 -59q0 -20 9 -36t39 -25t92 -9q21 0 30.5 -11.5t9.5 -27.5t-14 -29.5t-36 -13.5q-79 0 -117 17t-52 51q-30 -42 -69 -55t-105 -13zM906 -191q-21 0 -35.5 14.5t-14.5 34.5t14.5 35 t35.5 15q20 0 34.5 -15t14.5 -35t-14.5 -34.5t-34.5 -14.5zM30 -1q0 36 10 80t32 97l72 -28q-16 -42 -24 -77t-8 -65q0 -55 32.5 -90t86 -51t117.5 -16q77 0 140.5 18t101.5 47.5t38 65.5q0 26 -40 45t-112 39l19 83q104 -40 162 -55t89 -15q21 0 30.5 -11.5t9.5 -27.5 t-14 -29.5t-36 -13.5h-37q2 -9 3 -14.5t1 -14.5q0 -49 -45 -94.5t-129.5 -74.5t-202.5 -29q-79 0 -146.5 25.5t-108.5 76.5t-41 129zM398 -421q-21 0 -35.5 14.5t-14.5 34.5t14.5 35t35.5 15q20 0 34.5 -15t14.5 -35t-14.5 -34.5t-34.5 -14.5zM261 -421q-21 0 -35.5 14.5 t-14.5 34.5t14.5 35t35.5 15q20 0 34.5 -15t14.5 -35t-14.5 -34.5t-34.5 -14.5z" />
<glyph unicode="&#xfc70;" horiz-adv-x="769" arabic-form="final" d="M663 386q-21 0 -35.5 14.5t-14.5 34.5t14.5 35t35.5 15q20 0 34.5 -15t14.5 -35t-14.5 -34.5t-34.5 -14.5zM526 386q-21 0 -35.5 14.5t-14.5 34.5t14.5 35t35.5 15q20 0 34.5 -15t14.5 -35t-14.5 -34.5t-34.5 -14.5zM396 -5l10 82q50 0 78 7.5t42.5 29t23.5 62.5t22 107 l78 -15q-6 -27 -13.5 -62t-7.5 -59q0 -15 2 -28t15 -22t44 -14.5t89 -5.5q21 0 30.5 -11.5t9.5 -27.5t-14 -29.5t-36 -13.5q-65 0 -101.5 7.5t-54 22t-25.5 36.5q-29 -41 -71.5 -53.5t-120.5 -12.5zM4 -232l-29 76q97 32 151.5 76t77 92.5t22.5 94.5q0 49 -21.5 99.5 t-47.5 95.5l73 37q28 -53 47.5 -102t30.5 -86q14 -43 36.5 -58.5t61.5 -15.5q21 0 30.5 -11.5t9.5 -27.5t-14 -29.5t-36 -13.5q-38 0 -63.5 12t-41.5 32q-10 -56 -42 -102t-75 -80.5t-88 -56.5t-82 -32z" />
<glyph unicode="&#xfc71;" horiz-adv-x="769" arabic-form="final" d="M663 386q-21 0 -35.5 14.5t-14.5 34.5t14.5 35t35.5 15q20 0 34.5 -15t14.5 -35t-14.5 -34.5t-34.5 -14.5zM526 386q-21 0 -35.5 14.5t-14.5 34.5t14.5 35t35.5 15q20 0 34.5 -15t14.5 -35t-14.5 -34.5t-34.5 -14.5zM396 -5l10 82q50 0 78 7.5t42.5 29t23.5 62.5t22 107 l78 -15q-6 -27 -13.5 -62t-7.5 -59q0 -15 2 -28t15 -22t44 -14.5t89 -5.5q21 0 30.5 -11.5t9.5 -27.5t-14 -29.5t-36 -13.5q-65 0 -101.5 7.5t-54 22t-25.5 36.5q-29 -41 -71.5 -53.5t-120.5 -12.5zM4 -232l-29 76q97 32 151.5 76t77 92.5t22.5 94.5q0 49 -21.5 99.5 t-47.5 95.5l73 37q28 -53 47.5 -102t30.5 -86q14 -43 36.5 -58.5t61.5 -15.5q21 0 30.5 -11.5t9.5 -27.5t-14 -29.5t-36 -13.5q-38 0 -63.5 12t-41.5 32q-10 -56 -42 -102t-75 -80.5t-88 -56.5t-82 -32zM163 454q-21 0 -35.5 14.5t-14.5 34.5t14.5 35t35.5 15q20 0 34.5 -15 t14.5 -35t-14.5 -34.5t-34.5 -14.5z" />
<glyph unicode="&#xfc72;" horiz-adv-x="935" arabic-form="final" d="M829 386q-21 0 -35.5 14.5t-14.5 34.5t14.5 35t35.5 15q20 0 34.5 -15t14.5 -35t-14.5 -34.5t-34.5 -14.5zM692 386q-21 0 -35.5 14.5t-14.5 34.5t14.5 35t35.5 15q20 0 34.5 -15t14.5 -35t-14.5 -34.5t-34.5 -14.5zM562 -5l10 82q50 0 78 7.5t42.5 29t23.5 62.5t22 107 l78 -15q-6 -27 -13.5 -62t-7.5 -59q0 -15 2 -28t15 -22t44 -14.5t89 -5.5q21 0 30.5 -11.5t9.5 -27.5t-14 -29.5t-36 -13.5q-65 0 -101.5 7.5t-54 22t-25.5 36.5q-29 -41 -71.5 -53.5t-120.5 -12.5zM77 -393q-21 77 -36 150.5t-23 131.5t-8 86q0 74 24 135t62 107.5t82 79 t85.5 49t70.5 16.5q25 0 44 -11t37 -43t38 -94q19 -57 36 -86.5t37 -40t46 -10.5q21 0 30.5 -11.5t9.5 -27.5t-14 -29.5t-36 -13.5q-35 0 -60.5 11.5t-45.5 31.5q-19 -29 -46 -42.5t-58 -13.5q-37 0 -77.5 17.5t-77.5 51.5t-64 82q-25 -38 -33 -81.5t-8 -76.5q0 -28 6 -71.5 t15.5 -92.5t21 -97.5t21.5 -87.5zM360 64q26 0 39 16t3 47q-23 73 -41.5 109.5t-40.5 36.5t-61.5 -19.5t-71.5 -56.5q22 -45 53.5 -75t63 -44t56.5 -14z" />
<glyph unicode="&#xfc73;" horiz-adv-x="1103" arabic-form="final" d="M997 386q-21 0 -35.5 14.5t-14.5 34.5t14.5 35t35.5 15q20 0 34.5 -15t14.5 -35t-14.5 -34.5t-34.5 -14.5zM860 386q-21 0 -35.5 14.5t-14.5 34.5t14.5 35t35.5 15q20 0 34.5 -15t14.5 -35t-14.5 -34.5t-34.5 -14.5zM730 -5l10 82q50 0 78 7.5t42.5 29t23.5 62.5t22 107 l78 -15q-6 -27 -13.5 -62t-7.5 -59q0 -15 2 -28t15 -22t44 -14.5t89 -5.5q21 0 30.5 -11.5t9.5 -27.5t-14 -29.5t-36 -13.5q-65 0 -101.5 7.5t-54 22t-25.5 36.5q-29 -41 -71.5 -53.5t-120.5 -12.5zM30 -1q0 36 10 80t32 97l72 -28q-16 -42 -24 -77t-8 -65q0 -55 27.5 -89.5 t74 -50.5t102.5 -16q91 0 142.5 25.5t73 65.5t21.5 85q0 66 -14.5 121.5t-31.5 114.5l81 22q16 -57 22.5 -82.5t10.5 -41.5q11 -37 29 -54.5t41.5 -23t48.5 -5.5q21 0 30.5 -11.5t9.5 -27.5t-14 -29.5t-36 -13.5q-31 0 -54.5 8.5t-39.5 21.5q-5 -49 -23 -95t-54.5 -82.5 t-96.5 -58t-149 -21.5q-75 0 -139.5 25t-104 76.5t-39.5 129.5zM332 398q-21 0 -35.5 14.5t-14.5 34.5t14.5 35t35.5 15q20 0 34.5 -15t14.5 -35t-14.5 -34.5t-34.5 -14.5z" />
<glyph unicode="&#xfc74;" horiz-adv-x="1109" arabic-form="final" d="M1003 386q-21 0 -35.5 14.5t-14.5 34.5t14.5 35t35.5 15q20 0 34.5 -15t14.5 -35t-14.5 -34.5t-34.5 -14.5zM866 386q-21 0 -35.5 14.5t-14.5 34.5t14.5 35t35.5 15q20 0 34.5 -15t14.5 -35t-14.5 -34.5t-34.5 -14.5zM736 -5l10 82q50 0 78 7.5t42.5 29t23.5 62.5t22 107 l78 -15q-6 -27 -13.5 -62t-7.5 -59q0 -15 2 -28t15 -22t44 -14.5t89 -5.5q21 0 30.5 -11.5t9.5 -27.5t-14 -29.5t-36 -13.5q-65 0 -101.5 7.5t-54 22t-25.5 36.5q-29 -41 -71.5 -53.5t-120.5 -12.5zM30 -1q0 36 10 80t32 97l72 -28q-16 -42 -24 -77t-8 -65q0 -55 32.5 -90 t86 -51t117.5 -16q77 0 140.5 18t101.5 47.5t38 65.5q0 26 -40 45t-112 39l19 83q104 -40 162 -55t89 -15q21 0 30.5 -11.5t9.5 -27.5t-14 -29.5t-36 -13.5h-37q2 -9 3 -14.5t1 -14.5q0 -49 -45 -94.5t-129.5 -74.5t-202.5 -29q-79 0 -146.5 25.5t-108.5 76.5t-41 129z" />
<glyph unicode="&#xfc75;" horiz-adv-x="1109" arabic-form="final" d="M1003 386q-21 0 -35.5 14.5t-14.5 34.5t14.5 35t35.5 15q20 0 34.5 -15t14.5 -35t-14.5 -34.5t-34.5 -14.5zM866 386q-21 0 -35.5 14.5t-14.5 34.5t14.5 35t35.5 15q20 0 34.5 -15t14.5 -35t-14.5 -34.5t-34.5 -14.5zM736 -5l10 82q50 0 78 7.5t42.5 29t23.5 62.5t22 107 l78 -15q-6 -27 -13.5 -62t-7.5 -59q0 -15 2 -28t15 -22t44 -14.5t89 -5.5q21 0 30.5 -11.5t9.5 -27.5t-14 -29.5t-36 -13.5q-65 0 -101.5 7.5t-54 22t-25.5 36.5q-29 -41 -71.5 -53.5t-120.5 -12.5zM30 -1q0 36 10 80t32 97l72 -28q-16 -42 -24 -77t-8 -65q0 -55 32.5 -90 t86 -51t117.5 -16q77 0 140.5 18t101.5 47.5t38 65.5q0 26 -40 45t-112 39l19 83q104 -40 162 -55t89 -15q21 0 30.5 -11.5t9.5 -27.5t-14 -29.5t-36 -13.5h-37q2 -9 3 -14.5t1 -14.5q0 -49 -45 -94.5t-129.5 -74.5t-202.5 -29q-79 0 -146.5 25.5t-108.5 76.5t-41 129z M398 -421q-21 0 -35.5 14.5t-14.5 34.5t14.5 35t35.5 15q20 0 34.5 -15t14.5 -35t-14.5 -34.5t-34.5 -14.5zM261 -421q-21 0 -35.5 14.5t-14.5 34.5t14.5 35t35.5 15q20 0 34.5 -15t14.5 -35t-14.5 -34.5t-34.5 -14.5z" />
<glyph unicode="&#xfc76;" horiz-adv-x="769" arabic-form="final" d="M595 496q-21 0 -35.5 14.5t-14.5 34.5t14.5 35t35.5 15q20 0 34.5 -15t14.5 -35t-14.5 -34.5t-34.5 -14.5zM527 386q-21 0 -35.5 14.5t-14.5 34.5t14.5 35t35.5 15q20 0 34.5 -15t14.5 -35t-14.5 -34.5t-34.5 -14.5zM663 386q-21 0 -35.5 14.5t-14.5 34.5t14.5 35 t35.5 15q20 0 34.5 -15t14.5 -35t-14.5 -34.5t-34.5 -14.5zM396 -5l10 82q50 0 78 7.5t42.5 29t23.5 62.5t22 107l78 -15q-6 -27 -13.5 -62t-7.5 -59q0 -15 2 -28t15 -22t44 -14.5t89 -5.5q21 0 30.5 -11.5t9.5 -27.5t-14 -29.5t-36 -13.5q-65 0 -101.5 7.5t-54 22 t-25.5 36.5q-29 -41 -71.5 -53.5t-120.5 -12.5zM4 -232l-29 76q97 32 151.5 76t77 92.5t22.5 94.5q0 49 -21.5 99.5t-47.5 95.5l73 37q28 -53 47.5 -102t30.5 -86q14 -43 36.5 -58.5t61.5 -15.5q21 0 30.5 -11.5t9.5 -27.5t-14 -29.5t-36 -13.5q-38 0 -63.5 12t-41.5 32 q-10 -56 -42 -102t-75 -80.5t-88 -56.5t-82 -32z" />
<glyph unicode="&#xfc77;" horiz-adv-x="769" arabic-form="final" d="M595 496q-21 0 -35.5 14.5t-14.5 34.5t14.5 35t35.5 15q20 0 34.5 -15t14.5 -35t-14.5 -34.5t-34.5 -14.5zM527 386q-21 0 -35.5 14.5t-14.5 34.5t14.5 35t35.5 15q20 0 34.5 -15t14.5 -35t-14.5 -34.5t-34.5 -14.5zM663 386q-21 0 -35.5 14.5t-14.5 34.5t14.5 35 t35.5 15q20 0 34.5 -15t14.5 -35t-14.5 -34.5t-34.5 -14.5zM396 -5l10 82q50 0 78 7.5t42.5 29t23.5 62.5t22 107l78 -15q-6 -27 -13.5 -62t-7.5 -59q0 -15 2 -28t15 -22t44 -14.5t89 -5.5q21 0 30.5 -11.5t9.5 -27.5t-14 -29.5t-36 -13.5q-65 0 -101.5 7.5t-54 22 t-25.5 36.5q-29 -41 -71.5 -53.5t-120.5 -12.5zM4 -232l-29 76q97 32 151.5 76t77 92.5t22.5 94.5q0 49 -21.5 99.5t-47.5 95.5l73 37q28 -53 47.5 -102t30.5 -86q14 -43 36.5 -58.5t61.5 -15.5q21 0 30.5 -11.5t9.5 -27.5t-14 -29.5t-36 -13.5q-38 0 -63.5 12t-41.5 32 q-10 -56 -42 -102t-75 -80.5t-88 -56.5t-82 -32zM163 454q-21 0 -35.5 14.5t-14.5 34.5t14.5 35t35.5 15q20 0 34.5 -15t14.5 -35t-14.5 -34.5t-34.5 -14.5z" />
<glyph unicode="&#xfc78;" horiz-adv-x="935" arabic-form="final" d="M761 496q-21 0 -35.5 14.5t-14.5 34.5t14.5 35t35.5 15q20 0 34.5 -15t14.5 -35t-14.5 -34.5t-34.5 -14.5zM693 386q-21 0 -35.5 14.5t-14.5 34.5t14.5 35t35.5 15q20 0 34.5 -15t14.5 -35t-14.5 -34.5t-34.5 -14.5zM829 386q-21 0 -35.5 14.5t-14.5 34.5t14.5 35 t35.5 15q20 0 34.5 -15t14.5 -35t-14.5 -34.5t-34.5 -14.5zM562 -5l10 82q50 0 78 7.5t42.5 29t23.5 62.5t22 107l78 -15q-6 -27 -13.5 -62t-7.5 -59q0 -15 2 -28t15 -22t44 -14.5t89 -5.5q21 0 30.5 -11.5t9.5 -27.5t-14 -29.5t-36 -13.5q-65 0 -101.5 7.5t-54 22 t-25.5 36.5q-29 -41 -71.5 -53.5t-120.5 -12.5zM77 -393q-21 77 -36 150.5t-23 131.5t-8 86q0 74 24 135t62 107.5t82 79t85.5 49t70.5 16.5q25 0 44 -11t37 -43t38 -94q19 -57 36 -86.5t37 -40t46 -10.5q21 0 30.5 -11.5t9.5 -27.5t-14 -29.5t-36 -13.5q-35 0 -60.5 11.5 t-45.5 31.5q-19 -29 -46 -42.5t-58 -13.5q-37 0 -77.5 17.5t-77.5 51.5t-64 82q-25 -38 -33 -81.5t-8 -76.5q0 -28 6 -71.5t15.5 -92.5t21 -97.5t21.5 -87.5zM360 64q26 0 39 16t3 47q-23 73 -41.5 109.5t-40.5 36.5t-61.5 -19.5t-71.5 -56.5q22 -45 53.5 -75t63 -44 t56.5 -14z" />
<glyph unicode="&#xfc79;" horiz-adv-x="1103" arabic-form="final" d="M929 496q-21 0 -35.5 14.5t-14.5 34.5t14.5 35t35.5 15q20 0 34.5 -15t14.5 -35t-14.5 -34.5t-34.5 -14.5zM861 386q-21 0 -35.5 14.5t-14.5 34.5t14.5 35t35.5 15q20 0 34.5 -15t14.5 -35t-14.5 -34.5t-34.5 -14.5zM997 386q-21 0 -35.5 14.5t-14.5 34.5t14.5 35 t35.5 15q20 0 34.5 -15t14.5 -35t-14.5 -34.5t-34.5 -14.5zM730 -5l10 82q50 0 78 7.5t42.5 29t23.5 62.5t22 107l78 -15q-6 -27 -13.5 -62t-7.5 -59q0 -15 2 -28t15 -22t44 -14.5t89 -5.5q21 0 30.5 -11.5t9.5 -27.5t-14 -29.5t-36 -13.5q-65 0 -101.5 7.5t-54 22 t-25.5 36.5q-29 -41 -71.5 -53.5t-120.5 -12.5zM30 -1q0 36 10 80t32 97l72 -28q-16 -42 -24 -77t-8 -65q0 -55 27.5 -89.5t74 -50.5t102.5 -16q91 0 142.5 25.5t73 65.5t21.5 85q0 66 -14.5 121.5t-31.5 114.5l81 22q16 -57 22.5 -82.5t10.5 -41.5q11 -37 29 -54.5 t41.5 -23t48.5 -5.5q21 0 30.5 -11.5t9.5 -27.5t-14 -29.5t-36 -13.5q-31 0 -54.5 8.5t-39.5 21.5q-5 -49 -23 -95t-54.5 -82.5t-96.5 -58t-149 -21.5q-75 0 -139.5 25t-104 76.5t-39.5 129.5zM332 398q-21 0 -35.5 14.5t-14.5 34.5t14.5 35t35.5 15q20 0 34.5 -15t14.5 -35 t-14.5 -34.5t-34.5 -14.5z" />
<glyph unicode="&#xfc7a;" horiz-adv-x="1109" arabic-form="final" d="M935 496q-21 0 -35.5 14.5t-14.5 34.5t14.5 35t35.5 15q20 0 34.5 -15t14.5 -35t-14.5 -34.5t-34.5 -14.5zM867 386q-21 0 -35.5 14.5t-14.5 34.5t14.5 35t35.5 15q20 0 34.5 -15t14.5 -35t-14.5 -34.5t-34.5 -14.5zM1003 386q-21 0 -35.5 14.5t-14.5 34.5t14.5 35 t35.5 15q20 0 34.5 -15t14.5 -35t-14.5 -34.5t-34.5 -14.5zM736 -5l10 82q50 0 78 7.5t42.5 29t23.5 62.5t22 107l78 -15q-6 -27 -13.5 -62t-7.5 -59q0 -15 2 -28t15 -22t44 -14.5t89 -5.5q21 0 30.5 -11.5t9.5 -27.5t-14 -29.5t-36 -13.5q-65 0 -101.5 7.5t-54 22 t-25.5 36.5q-29 -41 -71.5 -53.5t-120.5 -12.5zM30 -1q0 36 10 80t32 97l72 -28q-16 -42 -24 -77t-8 -65q0 -55 32.5 -90t86 -51t117.5 -16q77 0 140.5 18t101.5 47.5t38 65.5q0 26 -40 45t-112 39l19 83q104 -40 162 -55t89 -15q21 0 30.5 -11.5t9.5 -27.5t-14 -29.5 t-36 -13.5h-37q2 -9 3 -14.5t1 -14.5q0 -49 -45 -94.5t-129.5 -74.5t-202.5 -29q-79 0 -146.5 25.5t-108.5 76.5t-41 129z" />
<glyph unicode="&#xfc7b;" horiz-adv-x="1109" arabic-form="final" d="M935 496q-21 0 -35.5 14.5t-14.5 34.5t14.5 35t35.5 15q20 0 34.5 -15t14.5 -35t-14.5 -34.5t-34.5 -14.5zM867 386q-21 0 -35.5 14.5t-14.5 34.5t14.5 35t35.5 15q20 0 34.5 -15t14.5 -35t-14.5 -34.5t-34.5 -14.5zM1003 386q-21 0 -35.5 14.5t-14.5 34.5t14.5 35 t35.5 15q20 0 34.5 -15t14.5 -35t-14.5 -34.5t-34.5 -14.5zM736 -5l10 82q50 0 78 7.5t42.5 29t23.5 62.5t22 107l78 -15q-6 -27 -13.5 -62t-7.5 -59q0 -15 2 -28t15 -22t44 -14.5t89 -5.5q21 0 30.5 -11.5t9.5 -27.5t-14 -29.5t-36 -13.5q-65 0 -101.5 7.5t-54 22 t-25.5 36.5q-29 -41 -71.5 -53.5t-120.5 -12.5zM30 -1q0 36 10 80t32 97l72 -28q-16 -42 -24 -77t-8 -65q0 -55 32.5 -90t86 -51t117.5 -16q77 0 140.5 18t101.5 47.5t38 65.5q0 26 -40 45t-112 39l19 83q104 -40 162 -55t89 -15q21 0 30.5 -11.5t9.5 -27.5t-14 -29.5 t-36 -13.5h-37q2 -9 3 -14.5t1 -14.5q0 -49 -45 -94.5t-129.5 -74.5t-202.5 -29q-79 0 -146.5 25.5t-108.5 76.5t-41 129zM398 -421q-21 0 -35.5 14.5t-14.5 34.5t14.5 35t35.5 15q20 0 34.5 -15t14.5 -35t-14.5 -34.5t-34.5 -14.5zM261 -421q-21 0 -35.5 14.5t-14.5 34.5 t14.5 35t35.5 15q20 0 34.5 -15t14.5 -35t-14.5 -34.5t-34.5 -14.5z" />
<glyph unicode="&#xfc7c;" horiz-adv-x="1231" arabic-form="final" d="M736 -5l10 82q34 0 70.5 1t70.5 5q-24 22 -47 57t-23 85q0 54 25 97t65 68t85 25q49 0 86 -27t57.5 -68.5t20.5 -86.5q0 -47 -19 -84t-51 -65q40 -3 82 -5t73 -2q21 0 30.5 -11.5t9.5 -27.5t-14 -29.5t-36 -13.5q-61 0 -127 9.5t-116 23.5q-16 -6 -33 -11 q-46 -13 -105 -17.5t-114 -4.5zM899 223q0 -39 24 -68.5t54 -47.5q41 18 69 48t28 72q0 23 -11 47.5t-30 41.5t-44 17q-24 0 -44.5 -16t-33 -41.5t-12.5 -52.5zM983 518q-21 0 -35.5 14.5t-14.5 34.5t14.5 35t35.5 15q20 0 34.5 -15t14.5 -35t-14.5 -34.5t-34.5 -14.5z M30 -1q0 36 10 80t32 97l72 -28q-16 -42 -24 -77t-8 -65q0 -55 32.5 -90t86 -51t117.5 -16q77 0 140.5 18t101.5 47.5t38 65.5q0 26 -40 45t-112 39l19 83q104 -40 162 -55t89 -15q21 0 30.5 -11.5t9.5 -27.5t-14 -29.5t-36 -13.5h-37q2 -9 3 -14.5t1 -14.5q0 -49 -45 -94.5 t-129.5 -74.5t-202.5 -29q-79 0 -146.5 25.5t-108.5 76.5t-41 129z" />
<glyph unicode="&#xfc7d;" horiz-adv-x="1231" arabic-form="final" d="M736 -5l10 82q34 0 70.5 1t70.5 5q-24 22 -47 57t-23 85q0 54 25 97t65 68t85 25q49 0 86 -27t57.5 -68.5t20.5 -86.5q0 -47 -19 -84t-51 -65q40 -3 82 -5t73 -2q21 0 30.5 -11.5t9.5 -27.5t-14 -29.5t-36 -13.5q-61 0 -127 9.5t-116 23.5q-16 -6 -33 -11 q-46 -13 -105 -17.5t-114 -4.5zM899 223q0 -39 24 -68.5t54 -47.5q41 18 69 48t28 72q0 23 -11 47.5t-30 41.5t-44 17q-24 0 -44.5 -16t-33 -41.5t-12.5 -52.5zM983 518q-21 0 -35.5 14.5t-14.5 34.5t14.5 35t35.5 15q20 0 34.5 -15t14.5 -35t-14.5 -34.5t-34.5 -14.5z M30 -1q0 36 10 80t32 97l72 -28q-16 -42 -24 -77t-8 -65q0 -55 32.5 -90t86 -51t117.5 -16q77 0 140.5 18t101.5 47.5t38 65.5q0 26 -40 45t-112 39l19 83q104 -40 162 -55t89 -15q21 0 30.5 -11.5t9.5 -27.5t-14 -29.5t-36 -13.5h-37q2 -9 3 -14.5t1 -14.5q0 -49 -45 -94.5 t-129.5 -74.5t-202.5 -29q-79 0 -146.5 25.5t-108.5 76.5t-41 129zM398 -421q-21 0 -35.5 14.5t-14.5 34.5t14.5 35t35.5 15q20 0 34.5 -15t14.5 -35t-14.5 -34.5t-34.5 -14.5zM261 -421q-21 0 -35.5 14.5t-14.5 34.5t14.5 35t35.5 15q20 0 34.5 -15t14.5 -35t-14.5 -34.5 t-34.5 -14.5z" />
<glyph unicode="&#xfc7e;" horiz-adv-x="1231" arabic-form="final" d="M736 -5l10 82q34 0 70.5 1t70.5 5q-24 22 -47 57t-23 85q0 54 25 97t65 68t85 25q49 0 86 -27t57.5 -68.5t20.5 -86.5q0 -47 -19 -84t-51 -65q40 -3 82 -5t73 -2q21 0 30.5 -11.5t9.5 -27.5t-14 -29.5t-36 -13.5q-61 0 -127 9.5t-116 23.5q-16 -6 -33 -11 q-46 -13 -105 -17.5t-114 -4.5zM899 223q0 -39 24 -68.5t54 -47.5q41 18 69 48t28 72q0 23 -11 47.5t-30 41.5t-44 17q-24 0 -44.5 -16t-33 -41.5t-12.5 -52.5zM1053 518q-21 0 -35.5 14.5t-14.5 34.5t14.5 35t35.5 15q20 0 34.5 -15t14.5 -35t-14.5 -34.5t-34.5 -14.5z M916 518q-21 0 -35.5 14.5t-14.5 34.5t14.5 35t35.5 15q20 0 34.5 -15t14.5 -35t-14.5 -34.5t-34.5 -14.5zM30 -1q0 36 10 80t32 97l72 -28q-16 -42 -24 -77t-8 -65q0 -55 32.5 -90t86 -51t117.5 -16q77 0 140.5 18t101.5 47.5t38 65.5q0 26 -40 45t-112 39l19 83 q104 -40 162 -55t89 -15q21 0 30.5 -11.5t9.5 -27.5t-14 -29.5t-36 -13.5h-37q2 -9 3 -14.5t1 -14.5q0 -49 -45 -94.5t-129.5 -74.5t-202.5 -29q-79 0 -146.5 25.5t-108.5 76.5t-41 129z" />
<glyph unicode="&#xfc7f;" horiz-adv-x="1231" arabic-form="final" d="M736 -5l10 82q34 0 70.5 1t70.5 5q-24 22 -47 57t-23 85q0 54 25 97t65 68t85 25q49 0 86 -27t57.5 -68.5t20.5 -86.5q0 -47 -19 -84t-51 -65q40 -3 82 -5t73 -2q21 0 30.5 -11.5t9.5 -27.5t-14 -29.5t-36 -13.5q-61 0 -127 9.5t-116 23.5q-16 -6 -33 -11 q-46 -13 -105 -17.5t-114 -4.5zM899 223q0 -39 24 -68.5t54 -47.5q41 18 69 48t28 72q0 23 -11 47.5t-30 41.5t-44 17q-24 0 -44.5 -16t-33 -41.5t-12.5 -52.5zM1053 518q-21 0 -35.5 14.5t-14.5 34.5t14.5 35t35.5 15q20 0 34.5 -15t14.5 -35t-14.5 -34.5t-34.5 -14.5z M916 518q-21 0 -35.5 14.5t-14.5 34.5t14.5 35t35.5 15q20 0 34.5 -15t14.5 -35t-14.5 -34.5t-34.5 -14.5zM30 -1q0 36 10 80t32 97l72 -28q-16 -42 -24 -77t-8 -65q0 -55 32.5 -90t86 -51t117.5 -16q77 0 140.5 18t101.5 47.5t38 65.5q0 26 -40 45t-112 39l19 83 q104 -40 162 -55t89 -15q21 0 30.5 -11.5t9.5 -27.5t-14 -29.5t-36 -13.5h-37q2 -9 3 -14.5t1 -14.5q0 -49 -45 -94.5t-129.5 -74.5t-202.5 -29q-79 0 -146.5 25.5t-108.5 76.5t-41 129zM398 -421q-21 0 -35.5 14.5t-14.5 34.5t14.5 35t35.5 15q20 0 34.5 -15t14.5 -35 t-14.5 -34.5t-34.5 -14.5zM261 -421q-21 0 -35.5 14.5t-14.5 34.5t14.5 35t35.5 15q20 0 34.5 -15t14.5 -35t-14.5 -34.5t-34.5 -14.5z" />
<glyph unicode="&#xfc80;" horiz-adv-x="799" arabic-form="final" d="M291 -5l10 82h77q83 0 123 9t52.5 24t12.5 31q0 24 -18 53t-46 59.5t-59.5 60.5t-59.5 55t-46 43.5t-18 26.5q0 23 5.5 43t15.5 31q27 29 79.5 60.5t120.5 65t139 68.5l34 -74q-88 -44 -172.5 -85t-147.5 -85q55 -47 103 -91t89 -94.5t75 -114.5q21 -39 49 -57 t55.5 -23.5t44.5 -5.5q21 0 30.5 -11.5t9.5 -27.5t-14 -29.5t-36 -13.5q-24 0 -55.5 6.5t-63.5 25t-56 54.5q-20 -29 -50 -48t-78 -28.5t-122 -9.5h-83zM291 -5q-80 0 -122.5 18t-58.5 56t-18 98l-20 547h82l20 -515q2 -49 9.5 -75.5t34 -36.5t83.5 -10q21 0 30.5 -11.5 t9.5 -27.5t-14 -29.5t-36 -13.5z" />
<glyph unicode="&#xfc81;" horiz-adv-x="1238" arabic-form="final" d="M730 -5l10 82h77q83 0 123 9t52.5 24t12.5 31q0 24 -18 53t-46 59.5t-59.5 60.5t-59.5 55t-46 43.5t-18 26.5q0 23 5.5 43t15.5 31q27 29 79.5 60.5t120.5 65t139 68.5l34 -74q-88 -44 -172.5 -85t-147.5 -85q55 -47 103 -91t89 -94.5t75 -114.5q21 -39 49 -57 t55.5 -23.5t44.5 -5.5q21 0 30.5 -11.5t9.5 -27.5t-14 -29.5t-36 -13.5q-24 0 -55.5 6.5t-63.5 25t-56 54.5q-20 -29 -50 -48t-78 -28.5t-122 -9.5h-83zM30 -1q0 36 10 80t32 97l72 -28q-16 -42 -24 -77t-8 -65q0 -51 27 -86t70.5 -52.5t93.5 -17.5q98 0 153 34.5t77 91 t19 123.5l-22 615h83l16 -507q2 -51 16.5 -79.5t39.5 -39.5t55 -11q21 0 30.5 -11.5t9.5 -27.5t-14 -29.5t-36 -13.5q-37 0 -60.5 11.5t-37.5 28.5q-7 -50 -27.5 -97.5t-59.5 -86t-99.5 -61t-147.5 -22.5q-70 0 -131 27.5t-99 79t-38 124.5z" />
<glyph unicode="&#xfc82;" horiz-adv-x="1070" arabic-form="final" d="M562 -5l10 82h77q83 0 123 9t52.5 24t12.5 31q0 24 -18 53t-46 59.5t-59.5 60.5t-59.5 55t-46 43.5t-18 26.5q0 23 5.5 43t15.5 31q27 29 79.5 60.5t120.5 65t139 68.5l34 -74q-88 -44 -172.5 -85t-147.5 -85q55 -47 103 -91t89 -94.5t75 -114.5q21 -39 49 -57 t55.5 -23.5t44.5 -5.5q21 0 30.5 -11.5t9.5 -27.5t-14 -29.5t-36 -13.5q-24 0 -55.5 6.5t-63.5 25t-56 54.5q-20 -29 -50 -48t-78 -28.5t-122 -9.5h-83zM77 -393q-21 77 -36 150.5t-23 131.5t-8 86q0 74 24 135t62 107.5t82 79t85.5 49t70.5 16.5q25 0 44 -11t37 -43t38 -94 q19 -57 36 -86.5t37 -40t46 -10.5q21 0 30.5 -11.5t9.5 -27.5t-14 -29.5t-36 -13.5q-35 0 -60.5 11.5t-45.5 31.5q-19 -29 -46 -42.5t-58 -13.5q-37 0 -77.5 17.5t-77.5 51.5t-64 82q-25 -38 -33 -81.5t-8 -76.5q0 -28 6 -71.5t15.5 -92.5t21 -97.5t21.5 -87.5zM360 64 q26 0 39 16t3 47q-23 73 -41.5 109.5t-40.5 36.5t-61.5 -19.5t-71.5 -56.5q22 -45 53.5 -75t63 -44t56.5 -14z" />
<glyph unicode="&#xfc83;" horiz-adv-x="1244" arabic-form="final" d="M736 -5l10 82h77q83 0 123 9t52.5 24t12.5 31q0 24 -18 53t-46 59.5t-59.5 60.5t-59.5 55t-46 43.5t-18 26.5q0 23 5.5 43t15.5 31q27 29 79.5 60.5t120.5 65t139 68.5l34 -74q-88 -44 -172.5 -85t-147.5 -85q55 -47 103 -91t89 -94.5t75 -114.5q21 -39 49 -57 t55.5 -23.5t44.5 -5.5q21 0 30.5 -11.5t9.5 -27.5t-14 -29.5t-36 -13.5q-24 0 -55.5 6.5t-63.5 25t-56 54.5q-20 -29 -50 -48t-78 -28.5t-122 -9.5h-83zM30 -1q0 36 10 80t32 97l72 -28q-16 -42 -24 -77t-8 -65q0 -55 32.5 -90t86 -51t117.5 -16q77 0 140.5 18t101.5 47.5 t38 65.5q0 26 -40 45t-112 39l19 83q104 -40 162 -55t89 -15q21 0 30.5 -11.5t9.5 -27.5t-14 -29.5t-36 -13.5h-37q2 -9 3 -14.5t1 -14.5q0 -49 -45 -94.5t-129.5 -74.5t-202.5 -29q-79 0 -146.5 25.5t-108.5 76.5t-41 129z" />
<glyph unicode="&#xfc84;" horiz-adv-x="1244" arabic-form="final" d="M736 -5l10 82h77q83 0 123 9t52.5 24t12.5 31q0 24 -18 53t-46 59.5t-59.5 60.5t-59.5 55t-46 43.5t-18 26.5q0 23 5.5 43t15.5 31q27 29 79.5 60.5t120.5 65t139 68.5l34 -74q-88 -44 -172.5 -85t-147.5 -85q55 -47 103 -91t89 -94.5t75 -114.5q21 -39 49 -57 t55.5 -23.5t44.5 -5.5q21 0 30.5 -11.5t9.5 -27.5t-14 -29.5t-36 -13.5q-24 0 -55.5 6.5t-63.5 25t-56 54.5q-20 -29 -50 -48t-78 -28.5t-122 -9.5h-83zM30 -1q0 36 10 80t32 97l72 -28q-16 -42 -24 -77t-8 -65q0 -55 32.5 -90t86 -51t117.5 -16q77 0 140.5 18t101.5 47.5 t38 65.5q0 26 -40 45t-112 39l19 83q104 -40 162 -55t89 -15q21 0 30.5 -11.5t9.5 -27.5t-14 -29.5t-36 -13.5h-37q2 -9 3 -14.5t1 -14.5q0 -49 -45 -94.5t-129.5 -74.5t-202.5 -29q-79 0 -146.5 25.5t-108.5 76.5t-41 129zM398 -421q-21 0 -35.5 14.5t-14.5 34.5t14.5 35 t35.5 15q20 0 34.5 -15t14.5 -35t-14.5 -34.5t-34.5 -14.5zM261 -421q-21 0 -35.5 14.5t-14.5 34.5t14.5 35t35.5 15q20 0 34.5 -15t14.5 -35t-14.5 -34.5t-34.5 -14.5z" />
<glyph unicode="&#xfc85;" horiz-adv-x="862" arabic-form="final" d="M562 -5l9 82q57 0 80 11t26.5 39t1.5 78l-17 509h83l16 -507q2 -51 16.5 -79.5t39.5 -39.5t55 -11q21 0 30.5 -11.5t9.5 -27.5t-14 -29.5t-36 -13.5q-51 0 -81 19.5t-43 47.5q-20 -33 -61.5 -50t-114.5 -17zM77 -393q-21 77 -36 150.5t-23 131.5t-8 86q0 74 24 135 t62 107.5t82 79t85.5 49t70.5 16.5q25 0 44 -11t37 -43t38 -94q19 -57 36 -86.5t37 -40t46 -10.5q21 0 30.5 -11.5t9.5 -27.5t-14 -29.5t-36 -13.5q-35 0 -60.5 11.5t-45.5 31.5q-19 -29 -46 -42.5t-58 -13.5q-37 0 -77.5 17.5t-77.5 51.5t-64 82q-25 -38 -33 -81.5 t-8 -76.5q0 -28 6 -71.5t15.5 -92.5t21 -97.5t21.5 -87.5zM360 64q26 0 39 16t3 47q-23 73 -41.5 109.5t-40.5 36.5t-61.5 -19.5t-71.5 -56.5q22 -45 53.5 -75t63 -44t56.5 -14z" />
<glyph unicode="&#xfc87;" horiz-adv-x="1036" arabic-form="final" d="M736 -5l9 82q57 0 80 11t26.5 39t1.5 78l-17 509h83l16 -507q2 -51 16.5 -79.5t39.5 -39.5t55 -11q21 0 30.5 -11.5t9.5 -27.5t-14 -29.5t-36 -13.5q-51 0 -81 19.5t-43 47.5q-20 -33 -61.5 -50t-114.5 -17zM30 -1q0 36 10 80t32 97l72 -28q-16 -42 -24 -77t-8 -65 q0 -55 32.5 -90t86 -51t117.5 -16q77 0 140.5 18t101.5 47.5t38 65.5q0 26 -40 45t-112 39l19 83q104 -40 162 -55t89 -15q21 0 30.5 -11.5t9.5 -27.5t-14 -29.5t-36 -13.5h-37q2 -9 3 -14.5t1 -14.5q0 -49 -45 -94.5t-129.5 -74.5t-202.5 -29q-79 0 -146.5 25.5 t-108.5 76.5t-41 129zM398 -421q-21 0 -35.5 14.5t-14.5 34.5t14.5 35t35.5 15q20 0 34.5 -15t14.5 -35t-14.5 -34.5t-34.5 -14.5zM261 -421q-21 0 -35.5 14.5t-14.5 34.5t14.5 35t35.5 15q20 0 34.5 -15t14.5 -35t-14.5 -34.5t-34.5 -14.5z" />
<glyph unicode="&#xfc88;" horiz-adv-x="869" arabic-form="final" d="M291 -5l10 82q28 0 44.5 12t32 40t39.5 75q32 64 64.5 98t62.5 47t53 13q33 0 59 -14.5t49 -49t47 -94.5q23 -55 41.5 -82.5t39 -36t46.5 -8.5q21 0 30.5 -11.5t9.5 -27.5t-14 -29.5t-36 -13.5q-39 0 -71.5 12.5t-51.5 38.5q-19 -34 -47.5 -49.5t-61.5 -15.5 q-49 0 -101.5 31.5t-88.5 83.5q-26 -46 -49.5 -67.5t-48.5 -27.5t-58 -6zM485 172q34 -57 76 -83.5t75 -26.5q35 0 51.5 25t-1.5 70q-12 30 -25 59t-30 48t-40 18q-22 -1 -48 -24t-58 -86zM291 -5q-80 0 -122.5 18t-58.5 56t-18 98l-20 547h82l20 -515q2 -49 9.5 -75.5 t34 -36.5t83.5 -10q21 0 30.5 -11.5t9.5 -27.5t-14 -29.5t-36 -13.5z" />
<glyph unicode="&#xfc89;" horiz-adv-x="1140" arabic-form="final" d="M562 -5l10 82q28 0 44.5 12t32 40t39.5 75q32 64 64.5 98t62.5 47t53 13q33 0 59 -14.5t49 -49t47 -94.5q23 -55 41.5 -82.5t39 -36t46.5 -8.5q21 0 30.5 -11.5t9.5 -27.5t-14 -29.5t-36 -13.5q-39 0 -71.5 12.5t-51.5 38.5q-19 -34 -47.5 -49.5t-61.5 -15.5 q-49 0 -101.5 31.5t-88.5 83.5q-26 -46 -49.5 -67.5t-48.5 -27.5t-58 -6zM756 172q34 -57 76 -83.5t75 -26.5q35 0 51.5 25t-1.5 70q-12 30 -25 59t-30 48t-40 18q-22 -1 -48 -24t-58 -86zM77 -393q-21 77 -36 150.5t-23 131.5t-8 86q0 74 24 135t62 107.5t82 79t85.5 49 t70.5 16.5q25 0 44 -11t37 -43t38 -94q19 -57 36 -86.5t37 -40t46 -10.5q21 0 30.5 -11.5t9.5 -27.5t-14 -29.5t-36 -13.5q-35 0 -60.5 11.5t-45.5 31.5q-19 -29 -46 -42.5t-58 -13.5q-37 0 -77.5 17.5t-77.5 51.5t-64 82q-25 -38 -33 -81.5t-8 -76.5q0 -28 6 -71.5 t15.5 -92.5t21 -97.5t21.5 -87.5zM360 64q26 0 39 16t3 47q-23 73 -41.5 109.5t-40.5 36.5t-61.5 -19.5t-71.5 -56.5q22 -45 53.5 -75t63 -44t56.5 -14z" />
<glyph unicode="&#xfc8a;" horiz-adv-x="739" arabic-form="final" d="M396 -5l10 82q42 0 66 7.5t36.5 29t21.5 62.5t22 107l78 -15q-6 -27 -13.5 -62t-7.5 -59q0 -20 9 -36t39 -25t92 -9q21 0 30.5 -11.5t9.5 -27.5t-14 -29.5t-36 -13.5q-79 0 -117 17t-52 51q-30 -42 -69 -55t-105 -13zM583 386q-21 0 -35.5 14.5t-14.5 34.5t14.5 35 t35.5 15q20 0 34.5 -15t14.5 -35t-14.5 -34.5t-34.5 -14.5zM4 -232l-29 76q97 32 151.5 76t77 92.5t22.5 94.5q0 49 -21.5 99.5t-47.5 95.5l73 37q28 -53 47.5 -102t30.5 -86q14 -43 36.5 -58.5t61.5 -15.5q21 0 30.5 -11.5t9.5 -27.5t-14 -29.5t-36 -13.5q-38 0 -63.5 12 t-41.5 32q-10 -56 -42 -102t-75 -80.5t-88 -56.5t-82 -32z" />
<glyph unicode="&#xfc8b;" horiz-adv-x="739" arabic-form="final" d="M396 -5l10 82q42 0 66 7.5t36.5 29t21.5 62.5t22 107l78 -15q-6 -27 -13.5 -62t-7.5 -59q0 -20 9 -36t39 -25t92 -9q21 0 30.5 -11.5t9.5 -27.5t-14 -29.5t-36 -13.5q-79 0 -117 17t-52 51q-30 -42 -69 -55t-105 -13zM583 386q-21 0 -35.5 14.5t-14.5 34.5t14.5 35 t35.5 15q20 0 34.5 -15t14.5 -35t-14.5 -34.5t-34.5 -14.5zM4 -232l-29 76q97 32 151.5 76t77 92.5t22.5 94.5q0 49 -21.5 99.5t-47.5 95.5l73 37q28 -53 47.5 -102t30.5 -86q14 -43 36.5 -58.5t61.5 -15.5q21 0 30.5 -11.5t9.5 -27.5t-14 -29.5t-36 -13.5q-38 0 -63.5 12 t-41.5 32q-10 -56 -42 -102t-75 -80.5t-88 -56.5t-82 -32zM163 454q-21 0 -35.5 14.5t-14.5 34.5t14.5 35t35.5 15q20 0 34.5 -15t14.5 -35t-14.5 -34.5t-34.5 -14.5z" />
<glyph unicode="&#xfc8c;" horiz-adv-x="905" arabic-form="final" d="M562 -5l10 82q42 0 66 7.5t36.5 29t21.5 62.5t22 107l78 -15q-6 -27 -13.5 -62t-7.5 -59q0 -20 9 -36t39 -25t92 -9q21 0 30.5 -11.5t9.5 -27.5t-14 -29.5t-36 -13.5q-79 0 -117 17t-52 51q-30 -42 -69 -55t-105 -13zM749 386q-21 0 -35.5 14.5t-14.5 34.5t14.5 35 t35.5 15q20 0 34.5 -15t14.5 -35t-14.5 -34.5t-34.5 -14.5zM77 -393q-21 77 -36 150.5t-23 131.5t-8 86q0 74 24 135t62 107.5t82 79t85.5 49t70.5 16.5q25 0 44 -11t37 -43t38 -94q19 -57 36 -86.5t37 -40t46 -10.5q21 0 30.5 -11.5t9.5 -27.5t-14 -29.5t-36 -13.5 q-35 0 -60.5 11.5t-45.5 31.5q-19 -29 -46 -42.5t-58 -13.5q-37 0 -77.5 17.5t-77.5 51.5t-64 82q-25 -38 -33 -81.5t-8 -76.5q0 -28 6 -71.5t15.5 -92.5t21 -97.5t21.5 -87.5zM360 64q26 0 39 16t3 47q-23 73 -41.5 109.5t-40.5 36.5t-61.5 -19.5t-71.5 -56.5 q22 -45 53.5 -75t63 -44t56.5 -14z" />
<glyph unicode="&#xfc8d;" horiz-adv-x="1073" arabic-form="final" d="M730 -5l10 82q42 0 66 7.5t36.5 29t21.5 62.5t22 107l78 -15q-6 -27 -13.5 -62t-7.5 -59q0 -20 9 -36t39 -25t92 -9q21 0 30.5 -11.5t9.5 -27.5t-14 -29.5t-36 -13.5q-79 0 -117 17t-52 51q-30 -42 -69 -55t-105 -13zM917 386q-21 0 -35.5 14.5t-14.5 34.5t14.5 35 t35.5 15q20 0 34.5 -15t14.5 -35t-14.5 -34.5t-34.5 -14.5zM30 -1q0 36 10 80t32 97l72 -28q-16 -42 -24 -77t-8 -65q0 -55 27.5 -89.5t74 -50.5t102.5 -16q91 0 142.5 25.5t73 65.5t21.5 85q0 66 -14.5 121.5t-31.5 114.5l81 22q16 -57 22.5 -82.5t10.5 -41.5 q11 -37 29 -54.5t41.5 -23t48.5 -5.5q21 0 30.5 -11.5t9.5 -27.5t-14 -29.5t-36 -13.5q-31 0 -54.5 8.5t-39.5 21.5q-5 -49 -23 -95t-54.5 -82.5t-96.5 -58t-149 -21.5q-75 0 -139.5 25t-104 76.5t-39.5 129.5zM332 398q-21 0 -35.5 14.5t-14.5 34.5t14.5 35t35.5 15 q20 0 34.5 -15t14.5 -35t-14.5 -34.5t-34.5 -14.5z" />
</font>
</defs>
</svg>
