<svg xmlns="http://www.w3.org/2000/svg" xmlns:xlink="http://www.w3.org/1999/xlink" version="1.1"><metadata/><defs><font id="madalight_italic" horiz-adv-x="993"><font-face ascent="1638" descent="-410" units-per-em="2048"/><glyph horiz-adv-x="0"/><glyph horiz-adv-x="682"/><glyph horiz-adv-x="409"/><glyph horiz-adv-x="409"/><glyph horiz-adv-x="409"/><glyph d="M207 78q13 48 50 77t77 29t60 -29t7 -77q-12 -44 -47 -72.5t-75 -30.5q-40 2 -61 30.5t-11 72.5zM276 -25h3h-3zM336 379l213 833l41 160h117l-48 -160l-239 -833h-84z" horiz-adv-x="550" unicode="!"/><glyph d="M446 948l64 316l39 155h129l-45 -155l-109 -316h-78zM760 950l63 316l39 155h129l-45 -155l-108 -316h-78z" horiz-adv-x="780" unicode="&quot;"/><glyph d="M188 0l183 438h-168l22 86h178l132 334h-181l23 88h188l154 389h82l-156 -391h295l156 389h82l-156 -391h166l-23 -88h-176l-131 -334h174l-24 -88h-187l-168 -432h-84l166 432h-295l-168 -432h-84zM489 526h295l131 334h-294z" unicode="#"/><glyph d="M174 147l78 80q114 -143 285 -143q122 0 204 64.5t111 173.5q10 39 10.5 73.5t-5.5 60t-23.5 51.5t-32.5 42.5t-44.5 37.5t-48 32.5t-53.5 31.5q-37 22 -55.5 33.5t-50 34.5t-47 40.5t-34 46t-24 57t-5 67t11.5 82.5q35 134 143 223.5t246 101.5l57 211h92l-57 -211 q83 -10 136 -47.5t97 -101.5l-86 -72q-48 64 -96 92.5t-133 28.5q-102 0 -182.5 -62.5t-106.5 -160.5q-9 -33 -9 -62.5t5 -51.5t21.5 -44t29.5 -36.5t40.5 -33.5t44.5 -28.5t50 -28.5q38 -22 58.5 -34t54 -36t50.5 -44t37 -52t26 -65.5t4.5 -78.5t-15.5 -97 q-38 -139 -144 -229t-247 -111l-51 -195h-92l55 203q-97 7 -176.5 50.5t-128.5 106.5z" unicode="$"/><glyph d="M185 642q-49 110 5 314q54 199 162 309.5t244 110.5q135 0 183.5 -111t-3.5 -313q-55 -203 -164 -315.5t-245 -112.5l4 8q-137 0 -186 110zM270.5 703q28.5 -91 120.5 -91l8 4q91 0 169 91.5t122 255.5q41 167 11.5 254.5t-121.5 87.5q-93 0 -171.5 -90t-121.5 -254 q-45 -167 -16.5 -258zM416 -10l1124 1396h90l-1124 -1396h-90zM1117 108q-49 110 5 314q54 199 162 309.5t244 110.5q135 0 183.5 -111t-3.5 -313q-55 -203 -164 -315.5t-246 -112.5l5 8q-137 0 -186 110zM1202.5 168.5q28.5 -90.5 120.5 -90.5l8 4q91 0 169.5 91t121.5 255 q41 167 11 254.5t-122 87.5t-170.5 -90t-121.5 -254q-45 -167 -16.5 -257.5z" horiz-adv-x="1660" unicode="%"/><glyph d="M188 362q17 63 52.5 119t88.5 105t104.5 86.5t121.5 79.5q-41 180 -2 323q36 132 139.5 218.5t229.5 86.5q112 0 155.5 -70.5t12.5 -183.5q-11 -41 -32.5 -79.5t-55.5 -75t-64.5 -64.5t-81 -63t-82.5 -56t-90 -57q72 -231 244 -432q170 167 307 416h108 q-156 -280 -356 -477q114 -111 221 -152l-61 -98q-134 48 -252 164q-223 -177 -434 -177l26 19q-171 0 -257 102t-42 266zM287 356q-34 -125 29 -202.5t186 -77.5q154 0 332 141q-176 207 -254 449q-121 -77 -195.5 -150t-97.5 -160zM662 815q57 34 94.5 57.5t84 57t75.5 63 t53.5 66.5t34.5 76q10 43 8 80t-29 61t-76 24q-84 0 -150.5 -61.5t-92.5 -153.5q-32 -115 -2 -270z" horiz-adv-x="1200" unicode="&amp;"/><glyph d="M446 948l64 316l39 155h129l-45 -155l-109 -316h-78z" horiz-adv-x="468" unicode="'"/><glyph d="M276.5 232.5q10.5 164.5 57.5 340.5q71 262 200.5 489t317.5 439l59 -37q-171 -194 -294.5 -423t-188.5 -470q-64 -243 -64 -472t68 -421l-82 -36l8 4q-50 141 -71 281.5t-10.5 305z" horiz-adv-x="587" unicode="("/><glyph d="M-8 -317q171 193 293.5 420.5t185.5 467.5q65 237 64.5 467t-68.5 422l80 37q49 -141 69 -282t8.5 -305.5t-59.5 -340.5q-70 -261 -199.5 -488t-320.5 -439z" horiz-adv-x="587" unicode=")"/><glyph d="M467 1229l43 71l184 -53l72 213h76l-41 -211l213 49l4 -71l-211 -76l63 -184l-73 -47l-90 172l-185 -172l-49 49l162 184z" horiz-adv-x="823" unicode="*"/><glyph d="M244 633l24 92h377l109 408h98l-111 -410h377l-24 -92h-377l-111 -410h-100l115 412h-377z" unicode="+"/><glyph d="M41 -248q87 38 146.5 100.5t82.5 145.5q-8 -2 -24 -2q-42 0 -63 25t-9 69q11 44 47.5 70t77.5 26q52 0 71 -44t-1 -119q-31 -116 -118.5 -207.5t-207.5 -143.5z" horiz-adv-x="468" unicode=","/><glyph d="M209 465l27 96h456l-26 -96h-457z" horiz-adv-x="620" unicode="-"/><glyph d="M160 78q13 48 50 77t77 29t60 -29t7 -77q-12 -44 -47.5 -72.5t-75.5 -30.5q-39 2 -60 30t-11 73zM229 -25h2h-2z" horiz-adv-x="468" unicode="."/><glyph d="M-70 -328l1080 1782h92l-1079 -1782h-93z" horiz-adv-x="727" unicode="/"/><glyph d="M247 157.5q-58 177.5 29 504.5q87 325 238.5 499t343.5 174q190 0 247 -174.5t-30 -501.5q-88 -327 -240 -505.5t-343 -178.5l4 5q-191 0 -249 177.5zM353.5 222q34.5 -146 166.5 -146l8 4q133 0 249 149t192 437q74 295 38 436t-169 141q-135 0 -250.5 -145.5 t-192.5 -433.5q-76 -296 -41.5 -442z" unicode="0"/><glyph d="M170 0l31 100h305l278 1047h-235l20 76q159 25 281 86h90l-324 -1211h281l-27 -98h-700z" unicode="1"/><glyph d="M84 0l35 84q179 142 291 234.5t225 193t177.5 172.5t112 145t64.5 138q32 125 -18 201.5t-185 76.5q-160 0 -342 -168l-53 68q108 93 212 143.5t218 50.5q175 0 248.5 -101.5t28.5 -272.5q-13 -47 -35.5 -94.5t-60.5 -99.5t-73.5 -96t-98.5 -105t-110 -105t-133 -117.5 t-142 -120t-162 -133.5q148 8 221 8h424l-29 -102h-815z" unicode="2"/><glyph d="M117 172l84 78q49 -75 120 -119.5t187 -44.5q129 0 230.5 75t133.5 197q37 136 -49 212.5t-317 76.5l24 94q208 0 321.5 74t145.5 197q29 106 -22.5 168.5t-167.5 62.5q-159 0 -332 -141l-45 76q209 161 404 161q161 0 239.5 -86.5t38.5 -236.5q-32 -120 -120 -200.5 t-212 -121.5l-2 -8q120 -28 179 -117t24 -221q-45 -168 -189 -270.5t-321 -102.5l18 15q-249 0 -372 182z" unicode="3"/><glyph d="M137 381l19 72l821 856h115l-224 -832h193l-27 -96h-190l-103 -381h-110l104 381h-598zM297 477h465l125 451q20 78 69 233h-8q-27 -33 -79.5 -90.5t-73.5 -81.5z" unicode="4"/><glyph d="M106 162l82 78q32 -46 66 -77.5t97 -56t143 -24.5q131 0 246.5 93.5t154.5 240.5q39 150 -21 235.5t-200 85.5q-67 0 -125 -20.5t-135 -65.5l-60 45l211 617h619l-27 -103h-518l-160 -446q125 61 238 61q114 0 190.5 -43t108 -134.5t-7.5 -233.5q-36 -135 -126 -237 t-199 -152t-220 -50l14 11q-142 0 -227.5 48.5t-143.5 127.5z" unicode="5"/><glyph d="M277.5 151q-73.5 159 3.5 461q42 158 102 284t127.5 209.5t144.5 139t153 79.5t155 24q167 0 251 -134l-88 -75q-60 104 -192 104q-79 0 -152.5 -32.5t-145 -102.5t-134.5 -192.5t-109 -288.5q88 78 183 123t180 45q173 0 241 -104.5t15 -301.5q-49 -179 -188 -296.5 t-292 -117.5l19 17q-200 0 -273.5 159zM367 520q-42 -209 7 -325.5t193 -116.5q108 0 204.5 90.5t133.5 226.5q38 143 -7 227.5t-181 84.5q-71 0 -162.5 -46t-187.5 -141z" unicode="6"/><glyph d="M379 0l4 6q120 386 281.5 659t431.5 547h-678l26 101h816l-19 -72q-157 -152 -270 -292.5t-198.5 -292.5t-146 -301.5t-124.5 -354.5h-123z" unicode="7"/><glyph d="M184 348q32 119 131.5 212t221.5 151l2 8q-154 124 -107 297q38 143 162 234t274 91q164 0 235 -97t30 -249q-26 -97 -107 -184.5t-168 -144.5l-2 -9q27 -20 46.5 -37.5t41 -41t34 -49.5t21.5 -57t7 -69t-13 -81q-39 -148 -178 -247.5t-319 -99.5l12 15q-181 0 -273 102 t-51 256zM305 365q-32 -119 35 -199t201 -80l4 4q129 0 228.5 73t129.5 183q8 30 8.5 57.5t-3.5 49.5t-18 43.5t-26.5 37.5t-37.5 34t-42.5 29.5t-50.5 28t-52.5 25t-57.5 25.5q-3 1 -8.5 3t-8.5 3q-251 -133 -301 -317zM539.5 961q-0.5 -29 8 -53t19.5 -44.5t32.5 -39.5 t40 -33t49 -30t51.5 -26.5t55 -25.5l6 4q197 133 239 288q29 109 -20 182.5t-166 73.5q-104 0 -190 -66t-115 -169q-9 -32 -9.5 -61z" unicode="8"/><glyph d="M152 119l88 76q28 -52 77.5 -80.5t112.5 -28.5q78 0 151.5 32.5t145 102t135 191.5t109.5 288q-89 -84 -187 -132t-188 -48q-173 0 -242 104.5t-16 299.5q46 178 184.5 294.5t290.5 116.5q199 0 271.5 -158.5t-5.5 -463.5q-52 -196 -131 -342.5t-170.5 -230.5 t-187 -124.5t-195.5 -40.5l11 15q-174 0 -254 129zM455 930q-38 -145 6 -229.5t178 -84.5q73 0 166.5 47.5t191.5 145.5q42 208 -8 323t-196 115q-108 0 -204.5 -90.5t-133.5 -226.5z" unicode="9"/><glyph d="M160 848q13 48 50 77t77 29t60 -29t7 -77q-12 -44 -47.5 -72.5t-75.5 -30.5q-39 2 -60 30t-11 73zM164 80q13 48 50 77t77 29t60 -29t7 -77q-12 -44 -47 -72.5t-75 -30.5q-40 2 -61 30.5t-11 72.5zM229 745h2h-2zM233 -23h3h-3z" horiz-adv-x="468" unicode=":"/><glyph d="M45 -246q87 38 146.5 100.5t82.5 145.5q-8 -2 -24 -2q-42 0 -63 25t-9 69q11 44 47.5 70t77.5 26q52 0 71 -44t-1 -119q-31 -116 -118.5 -207.5t-207.5 -143.5zM160 848q13 48 50 77t77 29t60 -29t7 -77q-12 -44 -47.5 -72.5t-75.5 -30.5q-39 2 -60 30t-11 73zM229 745h2 h-2z" horiz-adv-x="468" unicode=";"/><glyph d="M244 631l28 104l942 338l-28 -106l-510 -176l-301 -105l-2 -8l243 -105l414 -176l-29 -106z" unicode="&lt;"/><glyph d="M240 842l26 92h852l-24 -92h-854zM242 418l26 92h852l-24 -92h-854z" unicode="="/><glyph d="M147 291l33 106l508 176l299 105l2 8l-244 105l-413 176l26 104l762 -338l-28 -104z" unicode="&gt;"/><glyph d="M328 86q13 48 49 77.5t76 29.5t60 -29.5t7 -77.5q-12 -43 -48 -71.5t-75 -30.5q-39 2 -59 30.5t-10 71.5zM393 -16h4h4h-8zM412 1239q187 162 379 162q148 0 211 -89t26 -231q-17 -64 -59 -126.5t-91.5 -110.5t-106 -103.5t-104 -105.5t-83.5 -117.5t-47 -138.5h-103l8 8 q9 68 37 130.5t66 111t82.5 94t90 88t85 83.5t71 88.5t44.5 96.5q25 96 -15.5 161t-148.5 65q-149 0 -289 -127z" horiz-adv-x="839" unicode="?"/><glyph d="M228 46q-48 159 12 390q52 197 164.5 365.5t256 282t310.5 177.5t332 64q148 0 258 -47.5t169 -134t73.5 -208t-27.5 -269.5q-34 -126 -98 -231.5t-138.5 -171t-151.5 -101t-145 -35.5q-85 0 -129.5 40t-32.5 116h-4q-166 -144 -289 -144q-103 0 -149.5 74t-11.5 207 q21 78 69.5 159t114.5 149t152 111.5t172 43.5q109 0 139 -101h4l41 82h82l-180 -393q-139 -266 45 -266q49 0 107 30.5t115 85t106.5 140.5t76.5 188q70 262 -40 420t-376 158q-139 0 -285 -58t-274.5 -160t-230.5 -254.5t-150 -328.5q-78 -295 45.5 -468t397.5 -173 q177 0 364 96l17 -76q-197 -108 -416 -108l22 22q-200 0 -334.5 84t-182.5 243zM737 436q-29 -104 1.5 -153.5t101.5 -49.5l6 7q98 0 244 131l155 344q-20 53 -47 73.5t-74 20.5q-64 0 -128.5 -34.5t-115 -89t-88.5 -120t-55 -129.5z" horiz-adv-x="1689" unicode="@"/><glyph d="M14 0l836 1352h125l106 -1348h-127l-28 447h-520l-271 -451h-121zM465 549h455l-15 235q-18 276 -20 461h-8q-110 -198 -271 -463z" horiz-adv-x="1089" unicode="A"/><glyph d="M195 0l372 1354h375q210 0 308 -82q67 -57 67 -153q0 -43 -14 -95q-30 -107 -105 -186t-182 -109l-2 -8q126 -24 180 -107q32 -49 31 -117q0 -47 -15 -102q-51 -192 -214 -293.5t-398 -101.5h-403zM354 109l267 4q197 0 323.5 73.5t165.5 223.5q10 39 10 73q0 82 -62 130 q-88 67 -290 67h-260zM528 768l226 4q368 0 434 244q11 41 11 75q-1 73 -51 112q-74 57 -255 57h-234z" horiz-adv-x="1189" unicode="B"/><glyph d="M303 684q85 317 296.5 505.5t471.5 188.5q112 0 191 -46.5t120 -117.5l-88 -77q-85 133 -254 133q-212 0 -379 -159t-241 -431q-36 -133 -35 -239q0 -114 40 -197q79 -162 288 -162q184 0 372 162l48 -74q-221 -195 -457 -195l12 9q-254 0 -362 190q-60 106 -60 253 q0 116 37 257z" horiz-adv-x="1161" unicode="C"/><glyph d="M195 0l364 1350h320q305 0 415 -176q62 -99 62 -244q0 -112 -37 -250q-87 -319 -292.5 -499.5t-508.5 -180.5h-323zM342 100l199 2q253 0 420.5 154.5t240.5 425.5q32 120 32 217q0 117 -48 201q-87 150 -342 151h-193z" horiz-adv-x="1245" unicode="D"/><glyph d="M195 0l368 1350h750l-29 -101h-633l-129 -483h531l-27 -102h-532l-152 -562h651l-28 -102h-770z" horiz-adv-x="1062" unicode="E"/><glyph d="M195 0l366 1348h748l-29 -101h-631l-137 -512h532l-28 -100h-533l-170 -635h-118z" horiz-adv-x="987" unicode="F"/><glyph d="M303 684q57 211 175.5 369t277.5 241.5t336 83.5q220 0 327 -164l-88 -77q-89 135 -268 135q-222 0 -394.5 -159t-246.5 -431q-35 -132 -35 -237q0 -116 43 -201q81 -160 305 -160q85 0 167 25t140 69l107 397h-311l24 99h420l-145 -545q-85 -71 -200.5 -112.5 t-244.5 -41.5l15 9q-265 0 -377 190q-64 107 -64 257q0 114 37 253z" horiz-adv-x="1247" unicode="G"/><glyph d="M195 0l368 1352h117l-158 -584h690l156 582h119l-363 -1348h-118l178 662h-692l-179 -664h-118z" horiz-adv-x="1316" unicode="H"/><glyph d="M195 0l364 1348h117l-363 -1348h-118z" horiz-adv-x="507" unicode="I"/><glyph d="M133 182l103 60q26 -84 75.5 -121t130.5 -37q120 0 197 73.5t119 233.5l256 959h119l-261 -973q-49 -180 -164 -291t-292 -111l10 5q-236 0 -293 202z" horiz-adv-x="958" unicode="J"/><glyph d="M195 0l370 1352h117l-195 -727h5l817 725h137l-563 -504l262 -844h-135l-232 752l-342 -301l-123 -453h-118z" horiz-adv-x="1157" unicode="K"/><glyph d="M195 0l364 1350h117l-334 -1248h610l-28 -102h-729z" horiz-adv-x="968" unicode="L"/><glyph d="M195 0l374 1358h156l68 -768q4 -49 11 -148.5t11 -148.5h8q30 48 88.5 145.5t89.5 145.5l478 768h155l-362 -1348h-113l225 840q22 87 115 375h-8l-186 -304l-486 -770h-92l-76 770l-26 302h-9q-57 -261 -88 -375l-225 -842h-108z" horiz-adv-x="1460" unicode="M"/><glyph d="M195 0l368 1354h123l295 -918l78 -272h8q68 311 92 403l211 785h111l-363 -1348h-123l-297 918l-77 270h-9q-68 -309 -92 -395l-213 -797h-112z" horiz-adv-x="1310" unicode="N"/><glyph d="M299 682q85 317 290.5 504.5t454.5 187.5q248 0 354 -188q58 -104 59 -249q0 -116 -38 -257q-87 -320 -295 -512.5t-458 -192.5l8 5q-250 0 -355 192q-58 106 -58 251q0 117 38 259zM428 684q-36 -134 -36 -241q0 -109 38 -193q75 -164 272 -164l9 4q197 0 360.5 163.5 t235.5 434.5q35 129 35 233q0 113 -41 195q-78 158 -277 158t-361.5 -160t-234.5 -430z" horiz-adv-x="1343" unicode="O"/><glyph d="M195 0l366 1350h352q93 0 164 -12.5t126 -40.5t83 -73q28 -44 35 -108q2 -14 2 -29q0 -53 -20 -120q-54 -199 -209.5 -300.5t-384.5 -101.5h-244l-152 -565h-118zM496 666l225 4q198 0 312.5 72t156.5 229q14 53 14 96q0 82 -52 123q-79 63 -286 63h-213z" horiz-adv-x="1134" unicode="P"/><glyph d="M299 682q85 317 290.5 504.5t454.5 187.5t354 -188q59 -105 59 -249q0 -116 -38 -257q-79 -290 -259 -477t-404 -221q22 -94 95.5 -142.5t192.5 -48.5q68 0 142 16l-2 -96q-89 -26 -185 -26l7 4q-165 0 -261.5 80t-117.5 213q-226 19 -317 208q-49 101 -49 233 q0 117 38 259zM426 684q-36 -136 -36 -244q0 -112 38 -196q75 -164 272 -164l5 4q197 0 362 165t238 439q35 129 35 233q0 112 -41 195q-78 158 -277 158t-361.5 -160t-234.5 -430z" horiz-adv-x="1343" unicode="Q"/><glyph d="M195 0l364 1350h395q214 0 310 -87q63 -57 63 -156q0 -54 -18 -120q-40 -154 -152 -249t-272 -124l194 -608h-135l-188 598h-281l-162 -604h-118zM504 705l256 2q174 0 285 70.5t147 211.5q13 48 13 87q0 76 -48 116q-73 62 -252 61h-254z" horiz-adv-x="1130" unicode="R"/><glyph d="M158 193l94 81q52 -84 140.5 -132t199.5 -48q147 0 251.5 69.5t135.5 184.5q9 33 9.5 61.5t-4 49.5t-18.5 41.5t-26.5 33.5t-37.5 29t-42 25.5t-49 25.5l-178 88q-26 12 -46.5 24t-45 30.5t-42 37.5t-32.5 45.5t-22 55.5q-6 25 -6 57v10q1 38 12 78q40 148 179 244 t312 96q116 0 202.5 -45t135.5 -118l-88 -78q-94 135 -283 135q-128 0 -222.5 -63t-123.5 -167q-9 -31 -8.5 -59t6 -48.5t21 -40.5t28.5 -32.5t37 -27.5t38 -22.5t40 -20.5l176 -88q37 -19 64 -36.5t54.5 -41t44.5 -51.5q16 -26 27 -60q9 -28 9 -64v-13q-2 -43 -15 -93 q-42 -160 -191 -265.5t-347 -105.5l18 17q-141 0 -243.5 53.5t-163.5 147.5z" horiz-adv-x="1075" unicode="S"/><glyph d="M395 1247l27 101h962l-28 -101h-422l-334 -1247h-119l336 1247h-422z" horiz-adv-x="1081" unicode="T"/><glyph d="M305 315q1 96 35 220l219 817h117l-219 -813q-27 -102 -31 -181q-1 -13 0 -26q0 -62 14 -104q17 -51 53 -84t81.5 -46.5t103.5 -13.5q74 0 140.5 23t130 73.5t115.5 141.5t85 217l217 811h113l-219 -820q-34 -124 -85 -221t-109.5 -159t-129.5 -102t-141.5 -56.5 t-147.5 -16.5l8 7q-77 0 -138.5 16.5t-111 56.5t-75.5 102q-25 60 -25 151v7z" horiz-adv-x="1306" unicode="U"/><glyph d="M375 1348h125l32 -768q2 -54 4.5 -145t5.5 -162.5t7 -143.5h8q42 72 84 144.5t91.5 160.5t82.5 146l445 768h118l-798 -1348h-134z" horiz-adv-x="1021" unicode="V"/><glyph d="M354 0l68 1368h123l-47 -776q-6 -79 -31 -440h8q96 200 217 436l412 774h115l-5 -776q-2 -71 -7 -218.5t-7 -222.5h8q22 48 92.5 201t110.5 236l369 774h114l-657 -1348h-135l6 889q11 279 12 301h-8q-29 -60 -83 -164t-73 -143l-467 -891h-135z" horiz-adv-x="1587" unicode="W"/><glyph d="M35 0l600 707l-199 649h129l107 -381q6 -20 24 -83t31 -106h8q73 97 148 187l309 381h123l-551 -658l215 -692h-129l-117 397q-16 60 -63 213h-8q-34 -42 -91.5 -112.5t-83.5 -102.5l-329 -399h-123z" horiz-adv-x="1007" unicode="X"/><glyph d="M373 1352h125l86 -410q41 -224 57 -293h8q166 215 221 291l304 408h120l-622 -809l-146 -539h-118l153 543z" horiz-adv-x="933" unicode="Y"/><glyph d="M100 0l23 72l1069 1177h-688l26 101h836l-18 -70l-1072 -1178h762l-28 -102h-910z" horiz-adv-x="1103" unicode="Z"/><glyph d="M115 -311l479 1763h338l-21 -72h-252l-434 -1620h250l-20 -71h-340z" horiz-adv-x="587" unicode="["/><glyph d="M410 1454h90l123 -1782h-93z" horiz-adv-x="727" unicode="\"/><glyph d="M-33 -311l21 71h250l434 1620h-250l18 70h338l-473 -1761h-338z" horiz-adv-x="587" unicode="]"/><glyph d="M289 590l522 784h111l98 -782h-107l-43 399l-30 271h-9l-178 -273l-258 -399h-106z" unicode="^"/><glyph d="M-41 -246l25 90h974l-24 -90h-975z" horiz-adv-x="1024" unicode="_"/><glyph d="M698 1489l103 76l192 -330l-78 -59z" horiz-adv-x="1099" unicode="`"/><glyph d="M195 256q42 161 214.5 247t510.5 122q16 59 19 107q1 10 1 19q0 38 -10 73q-12 44 -52 69t-106 25q-154 0 -340 -113l-26 82q224 127 405 127q86 0 141.5 -29t77.5 -83q22 -52 22 -117v-6q-1 -69 -24 -156l-168 -623h-96l22 125h-6q-227 -150 -385 -150l15 9 q-126 0 -188 70q-40 45 -40 115q0 40 13 87zM313 266q-9 -35 -10 -64q-1 -48 27 -76q42 -46 131 -46l6 4q77 0 160.5 36.5t191.5 112.5l84 316q-194 -22 -318.5 -61t-187.5 -92.5t-84 -129.5z" horiz-adv-x="1013" unicode="a"/><glyph d="M188 4l394 1469h114l-112 -418l-56 -189q215 148 369 148q191 0 257 -135q33 -69 33 -163q0 -91 -30 -206q-44 -163 -137.5 -286.5t-208 -186t-231.5 -62.5l10 7q-70 0 -139 32.5t-123 89.5h-6l-39 -100h-95zM362 203q55 -62 119 -91.5t123 -29.5l6 6q142 0 265.5 119.5 t175.5 312.5q24 90 27 162v18q0 61 -17 109q-20 55 -70 85t-129 30q-134 0 -348 -156z" horiz-adv-x="1118" unicode="b"/><glyph d="M246 502q64 238 233 378t361 140q158 0 256 -121l-84 -78q-85 99 -197 99q-148 0 -277 -118t-180 -304q-23 -84 -23 -154q1 -86 35 -150q62 -116 214 -116q132 0 282 108l33 -80q-178 -131 -350 -131l12 13q-199 0 -289 138q-53 80 -53 195q0 82 27 181z" horiz-adv-x="923" unicode="c"/><glyph d="M246 498q41 155 133 275t207 182.5t231 62.5q82 0 139.5 -29.5t118.5 -91.5l41 176l107 397h114l-393 -1468h-96l20 123h-6q-191 -150 -356 -150l10 7q-189 0 -263 136q-39 71 -39 172q0 92 32 208zM366 196q51 -114 197 -114l8 4q141 0 330 154l150 563 q-102 119 -240 119q-139 0 -266 -120.5t-176 -301.5q-28 -98 -28 -175q0 -74 25 -129z" horiz-adv-x="1122" unicode="d"/><glyph d="M232 226q-13 49 -14 106q0 77 24 170q41 155 136 275.5t209 181.5t226 61q180 0 249 -122q37 -66 37 -161q0 -79 -26 -178q-7 -35 -26 -82h-697q-17 -71 -18 -131q0 -92 42 -159q68 -111 224 -111q136 0 283 82l20 -82q-87 -47 -167 -74t-175 -27l8 13q-129 0 -217 62 t-118 176zM377 573l600 2q22 84 22 149q0 70 -25 116q-49 90 -179 90q-123 0 -241.5 -97.5t-176.5 -259.5z" horiz-adv-x="997" unicode="e"/><glyph d="M201 0l243 895h-133l27 90l133 8l55 199q38 148 125 226.5t213 78.5q72 0 140 -35l-54 -92q-53 27 -110 27q-149 0 -207 -213l-51 -191h229l-27 -98h-229l-240 -895h-114z" horiz-adv-x="557" unicode="f"/><glyph d="M70 -178q17 62 72.5 122.5t136.5 108.5l2 8q-54 39 -54 107q0 24 6 51q16 58 60.5 104.5t95.5 75.5l2 9q-26 28 -43 66.5t-22 91.5q-2 13 -2 27q0 40 12 83q41 153 169 250.5t277 97.5q71 0 127 -27h336l-24 -94h-222q34 -40 45 -99q4 -22 4 -46q0 -42 -12 -90 q-41 -152 -168.5 -250.5t-277.5 -98.5q-89 0 -150 39q-92 -65 -112 -137q-5 -18 -5 -34q0 -34 23 -57q33 -32 133 -32h205q168 0 234 -56q44 -38 44 -104q0 -32 -10 -71q-37 -136 -197 -236t-372 -100l23 20q-187 0 -278 73q-66 53 -66 136q0 29 8 62zM190 -156 q-7 -24 -7 -45q0 -59 51 -99q69 -54 217 -54l12 6q152 0 267.5 70.5t141.5 162.5q6 22 6 41q0 43 -32 66q-47 33 -158 33h-199q-62 0 -122 16q-146 -85 -177 -197zM461 686q-12 -45 -12 -83q0 -63 31 -109q50 -74 149 -74l6 6q100 0 189.5 73.5t119.5 188.5q12 45 12 83 q0 61 -31 105q-50 70 -153 70t-191.5 -71t-119.5 -189z" horiz-adv-x="1007" unicode="g"/><glyph d="M182 0l400 1473h114l-112 -418l-62 -213q110 85 200 129.5t183 44.5q153 0 202 -95q24 -46 24 -115q0 -73 -27 -171l-170 -631h-115l164 614q23 85 23 144q0 46 -14 78q-32 71 -144 71q-81 0 -159 -41t-195 -135l-197 -735h-115z" horiz-adv-x="1091" unicode="h"/><glyph d="M182 0l264 987h115l-264 -987h-115zM504 1307q10 40 42.5 64t71.5 24q40 0 60 -25q13 -16 12 -38q0 -13 -4 -27q-10 -39 -45 -65t-74 -26l8 5q-39 0 -59 25q-14 17 -15 41q0 10 3 22z" horiz-adv-x="479" unicode="i"/><glyph d="M-180 -430l49 90q52 -18 94 -18q74 0 114 51.5t68 154.5l306 1143h114l-307 -1149q-41 -151 -118.5 -227t-200.5 -76l8 6q-67 0 -127 25zM516 1315q10 40 43 64t72 24q38 0 57 -25q13 -15 13 -37q0 -13 -5 -28q-10 -39 -44.5 -64.5t-73.5 -25.5l10 4q-39 0 -60 25 q-15 18 -15 41q0 11 3 22z" horiz-adv-x="481" unicode="j"/><glyph d="M182 0l402 1470h112l-282 -1054h4l618 573h129l-430 -393l215 -596h-127l-178 512l-276 -246l-72 -266h-115z" horiz-adv-x="970" unicode="k"/><glyph d="M231 156l353 1314h114l-356 -1327q-5 -19 -4 -33q0 -34 29 -34q16 0 36 4l-8 -90q-43 -15 -80 -15l9 5q-104 0 -104 99q0 33 11 77z" horiz-adv-x="497" unicode="l"/><glyph d="M182 0l277 997h96l-29 -149h4q204 174 357 174q212 0 219 -199q230 197 381 197q118 0 172 -57q49 -53 49 -154q0 -73 -25 -170l-170 -631h-114l164 615q21 83 21 142q0 47 -14 79q-32 70 -140 71q-125 0 -328 -176l-197 -735h-114l163 614q22 83 22 141q0 48 -15 81 q-33 71 -140 71q-124 0 -327 -176l-197 -735h-115z" horiz-adv-x="1675" unicode="m"/><glyph d="M182 0l271 991h96l-29 -149h4q108 84 198 129t183 45q153 0 202 -95q24 -46 24 -115q0 -73 -27 -171l-170 -631h-115l164 614q23 85 23 144q0 46 -14 78q-32 71 -144 71q-81 0 -159 -41t-195 -135l-197 -735h-115z" horiz-adv-x="1099" unicode="n"/><glyph d="M230 220q-13 48 -13 104q0 78 25 174q64 238 230 378t353 140q121 0 205.5 -61.5t115.5 -177.5q13 -48 13 -105q0 -80 -26 -178q-64 -237 -232 -378t-356 -141l8 9q-122 0 -207 61t-116 175zM367 502q-23 -85 -23 -155q0 -84 33 -148q61 -117 203 -117l6 4 q143 0 266 115.5t174 300.5q22 82 22 152q0 87 -34 152q-62 118 -205 118t-267 -117.5t-175 -304.5z" horiz-adv-x="1099" unicode="o"/><glyph d="M66 -436l393 1433h96l-23 -120h5q216 143 364 143q191 0 256 -136q33 -68 33 -163q0 -91 -31 -207q-33 -122 -95.5 -224.5t-140.5 -169t-166 -103.5t-175 -37q-135 0 -260 116l-48 -180l-94 -352h-114zM362 207q110 -121 242 -121l6 6q142 0 265.5 119.5t175.5 312.5 q24 90 27 162v18q0 61 -17 109q-20 55 -70 85t-129 30q-128 0 -348 -156z" horiz-adv-x="1122" unicode="p"/><glyph d="M240 494q41 155 133 275t207 182.5t231 62.5q83 0 141.5 -28.5t116.5 -88.5h4l37 92h94l-381 -1425h-116l104 373l57 190q-199 -150 -358 -150q-189 0 -263 135q-39 72 -39 173q0 92 32 209zM362 192q51 -114 197 -114l8 4q141 0 330 154l150 563q-102 119 -240 119 q-139 0 -266 -120.5t-176 -301.5q-28 -98 -28 -175q0 -74 25 -129z" horiz-adv-x="1122" unicode="q"/><glyph d="M182 0l273 993h96l-37 -182h4q77 95 163 150t169 55q52 0 94 -23l-53 -102q-41 14 -86 14q-72 0 -158.5 -59.5t-171.5 -186.5l-178 -659h-115z" horiz-adv-x="669" unicode="r"/><glyph d="M117 121l84 80q57 -60 118.5 -91.5t153.5 -31.5q106 0 178.5 52t93.5 130q5 19 5 36.5t-3.5 32t-12.5 28.5t-19 24.5t-25 22t-28 19t-32 17t-33 15.5t-34 14q-31 12 -50.5 20t-48 21.5t-46.5 26t-39 29t-32 35.5t-19.5 41.5t-8 49.5t8.5 58q30 115 136.5 191.5 t256.5 76.5q79 0 147.5 -30t112.5 -77l-80 -77q-48 42 -96.5 65t-114.5 23q-103 0 -170 -49t-86 -119q-6 -19 -6.5 -35.5t6 -31t13 -26.5t21.5 -24t26.5 -20t32.5 -18.5t34.5 -17t36.5 -16.5q2 -1 5 -2t5 -2q14 -5 19 -8q36 -15 56 -24t51 -25.5t48 -31t36 -37.5t26 -47 q8 -26 8 -60q0 -32 -10 -68q-34 -121 -147.5 -203t-272.5 -82l24 11q-201 0 -329 135z" horiz-adv-x="839" unicode="s"/><glyph d="M277 128v17q0 63 20 144l162 606h-152l23 88l157 8l91 283h96l-78 -283h278l-26 -98h-281l-164 -612q-17 -61 -16 -106q1 -47 31 -73t92 -26q49 0 127 28l2 -90q-123 -39 -180 -39l14 7q-95 0 -144 39t-52 107z" horiz-adv-x="655" unicode="t"/><glyph d="M266 79q-24 46 -24 113q0 73 28 173l168 630h115l-164 -616q-24 -87 -25 -149q0 -46 14 -76q31 -72 142 -72q83 0 162.5 43.5t189.5 144.5l193 719h115l-265 -987h-96l31 162h-6q-102 -92 -194 -140.5t-189 -48.5l8 9q-154 0 -203 95z" horiz-adv-x="1093" unicode="u"/><glyph d="M297 989h121l49 -600q5 -117 20 -287h9q19 32 79 131t91 154l370 600h115l-625 -987h-135z" horiz-adv-x="911" unicode="v"/><glyph d="M324 1001h120l2 -618q-4 -172 -8 -268h8q89 167 142 264l336 616h125l6 -618v-268h8q71 134 139 266l330 616h113l-541 -987h-146l-6 586v139v141h-8q-84 -168 -153 -286l-318 -584h-137z" horiz-adv-x="1423" unicode="w"/><glyph d="M29 0l481 526l-178 471h125l86 -241q23 -75 55 -164h8q23 26 70.5 80.5t71.5 81.5l204 239h121l-434 -483l195 -506h-127l-97 256q-36 106 -65 178h-8q-36 -38 -160 -180l-227 -258h-121z" horiz-adv-x="858" unicode="x"/><glyph d="M-43 -412l49 95q38 -17 74 -17q160 0 307 246l47 82l-135 999h121l65 -598q23 -245 27 -278h8q32 53 162 276l358 596h115l-678 -1098q-202 -331 -434 -331l16 8q-57 0 -102 20z" horiz-adv-x="913" unicode="y"/><glyph d="M59 0l19 66l784 827h-502l25 96h649l-16 -61l-785 -830h582l-27 -98h-729z" horiz-adv-x="841" unicode="z"/><glyph d="M238 543l20 78q177 0 217 159q18 70 45 204t47 210q40 150 109 207t190 57h76l-20 -72h-62q-88 0 -133 -47t-74 -157q-19 -68 -47 -193t-47 -194q-25 -96 -64.5 -147.5t-105.5 -69.5l-2 -9q55 -18 66.5 -72.5t-15.5 -144.5q-21 -78 -62 -203.5t-57 -183.5 q-31 -106 -10.5 -155.5t107.5 -49.5h59l-20 -71h-78l29 18q-122 0 -162 57t0 207q20 78 64.5 211t62.5 199q45 162 -133 162z" horiz-adv-x="587" unicode="{"/><glyph d="M55 -512l549 2048h88l-549 -2048h-88z" horiz-adv-x="473" unicode="|"/><glyph d="M-33 -311l37 88h59q87 0 131.5 47t73.5 156q17 63 44.5 187t47.5 198q24 94 62 145.5t102 69.5l2 8q-57 18 -68 70.5t15 144.5q20 75 59 199t56 186q31 104 10 153.5t-109 49.5h-59l19 69h75q61 0 99 -12.5t59.5 -42.5t21 -81.5t-21.5 -129.5t-66.5 -213.5t-64.5 -204.5 q-11 -30 -9 -59t13.5 -51.5t44 -36.5t82.5 -15l-20 -77q-177 -3 -222 -166q-18 -67 -45.5 -202t-48.5 -214q-41 -151 -111 -208.5t-192 -57.5h-76z" horiz-adv-x="587" unicode="}"/><glyph d="M258 641q69 87 142.5 130.5t138.5 43.5q44 0 82 -18.5t65 -45t52.5 -53t55.5 -45t62 -18.5q93 0 195 127l55 -49q-69 -86 -143 -129t-140 -43l11 4q-44 0 -83 18.5t-66.5 45t-53.5 53t-56.5 45t-62.5 18.5q-95 0 -197 -129z" unicode="~"/><glyph d="M115 -385l49 160l237 833h82l-209 -833l-41 -160h-118zM432 909q12 45 48 74t75 29t60.5 -29t9.5 -74q-13 -46 -49 -75t-76 -31q-39 2 -59.5 31t-8.5 75zM498 803h2h4h-6z" horiz-adv-x="550" unicode="¡"/><glyph d="M303 643q55 204 203 329.5t328 145.5l59 225h82l-60 -221q144 -7 236 -123l-80 -73q-71 88 -182 96l-205 -762q126 8 262 105l35 -74q-166 -122 -324 -133l-57 -211h-82l60 221q-176 18 -253.5 143t-21.5 332zM416 641q-43 -155 7.5 -256t180.5 -121l201 752 q-135 -21 -241.5 -122t-147.5 -253z" unicode="¢"/><glyph d="M115 0l35 84q123 60 206 162.5t115 224.5q18 71 18 139h-204l24 80l137 6h43q0 25 -2 37q-4 54 -1 124.5t18 127.5q44 164 166.5 260t285.5 96q186 0 261 -149l-91 -70q-66 117 -196 117q-117 0 -201.5 -72.5t-116.5 -187.5q-20 -82 -20 -236v-47h346l-25 -86h-323 q-3 -65 -25 -149q-31 -116 -87.5 -197.5t-147.5 -152.5l-2 -9h594l-29 -102h-778z" unicode="£"/><glyph d="M164 315l168 136q-52 99 -15 239q38 147 140 244l-99 137l84 68l99 -144q122 86 256 86q132 0 209 -86l174 142l47 -70l-172 -139q47 -107 8 -248q-38 -134 -143 -244l98 -137l-84 -70l-100 140q-124 -88 -261 -88t-213 88l-174 -142zM436 694q-36 -132 19 -217.5 t166 -85.5h6q111 0 212 85.5t136 217.5q36 132 -20 218.5t-167 86.5q-112 0 -214 -86t-138 -219z" unicode="¤"/><glyph d="M203 342l20 78h338l37 141h-338l21 76h303l-166 678h123l80 -383q44 -221 55 -281h8q43 55 112 149.5t95 129.5l285 381h118l-532 -678h307l-20 -78h-342l-39 -143h340l-23 -78h-342l-90 -334h-115l103 342h-338z" unicode="¥"/><glyph d="M57 -510l256 959h88l-256 -959h-88zM348 580l258 958h88l-258 -958h-88z" horiz-adv-x="473" unicode="¦"/><glyph d="M166 45l92 68q42 -54 96 -81.5t138 -27.5q87 0 152 47t83 115q6 22 6.5 42t-6.5 37t-14.5 31t-24.5 28.5t-30 24.5t-37.5 23t-40 20.5t-43.5 20.5q-118 59 -162 95q-113 96 -72 249q47 164 244 260q-44 66 -19 160q27 100 122 173t233 73q158 0 264 -113l-80 -78 q-44 46 -91.5 70.5t-115.5 24.5q-92 0 -150 -43.5t-75 -106.5q-6 -21 -6 -40t6 -35.5t13.5 -30t23.5 -27.5t29 -24t36 -22.5t38 -20.5t42 -21q35 -17 52.5 -26.5t49 -27.5t48 -32.5t39 -36.5t32.5 -44.5t18.5 -50.5t6.5 -62t-12 -72q-25 -91 -83 -151t-151 -107 q43 -65 17 -162q-30 -114 -138.5 -189t-236.5 -75l10 12q-205 0 -303 133zM400 689.5q-1 -23.5 6 -44t15.5 -36.5t27 -33t32.5 -28.5t40.5 -26t42.5 -23t46 -23.5q100 -47 148 -84q83 35 129 78t65 115q8 28 8.5 52t-6.5 45.5t-16 38.5t-28 34t-33.5 28.5t-41.5 26.5 t-43 23.5t-47 23.5q-98 48 -143 82q-78 -38 -126.5 -85t-67.5 -114q-7 -26 -8 -49.5z" unicode="§"/><glyph d="M633 1303q9 35 39 59t65 24t53 -24t9 -59q-10 -35 -40.5 -58.5t-66.5 -25.5q-35 1 -51.5 25t-7.5 59zM690 1219h2h4h-6zM1014 1303q9 35 39 59t65 24t53 -24t9 -59q-10 -35 -40.5 -58.5t-66.5 -25.5q-35 1 -51.5 25t-7.5 59zM1069 1219h4h-4z" horiz-adv-x="1099" unicode="¨"/><glyph d="M278 304q-47 152 5 362q54 200 186.5 355.5t302.5 236.5t348 81t305 -83.5t174.5 -234t-4.5 -359.5q-33 -122 -96.5 -230.5t-146.5 -190.5t-181 -142t-204.5 -91t-212.5 -31l4 5q-178 0 -305.5 85t-174.5 237zM358.5 344q39.5 -137 150.5 -215t267 -78l8 6 q156 0 307.5 75.5t269 217.5t165.5 320q45 185 4 319.5t-153 210.5t-269 76t-308.5 -74.5t-269 -215t-165.5 -318.5q-46 -187 -6.5 -324zM608 678q46 172 183 277.5t290 105.5q77 0 127.5 -29.5t91.5 -85.5l-71 -63q-36 45 -75.5 66.5t-96.5 21.5q-120 0 -218.5 -82.5 t-133.5 -214.5q-40 -147 9 -233.5t169 -86.5q114 0 254 99l28 -66q-83 -60 -153.5 -90.5t-159.5 -30.5l12 6q-155 0 -230 110t-26 296z" horiz-adv-x="1519" unicode="©"/><glyph d="M360 1006q29 106 143 162.5t337 78.5q11 50 11.5 88.5t-25.5 62t-78 23.5q-55 0 -121.5 -22.5t-116.5 -52.5l-18 65q158 86 284 86q218 0 148 -262l-109 -408h-74l9 78h-9q-141 -96 -241 -96l12 10q-91 0 -133 50t-19 137zM459 1016q-17 -60 9.5 -89.5t88.5 -29.5l8 6 q89 0 215 92l51 197q-179 -19 -265.5 -63t-106.5 -113z" horiz-adv-x="696" unicode="ª"/><glyph d="M221 471l25 92l366 326l43 -49l-333 -324l157 -328l-69 -45zM526 473l25 92l367 326l43 -49l-334 -324l157 -328l-69 -45z" horiz-adv-x="837" unicode="«"/><glyph d="M242 631l24 92h852l-135 -502h-100l112 410h-753z" unicode="¬"/><glyph d="M209 465l27 96h456l-26 -96h-457z" horiz-adv-x="620" unicode="­"/><glyph d="M330 1063q46 175 185 287t296 112q103 0 176 -50.5t98 -139.5t-6 -211q-46 -176 -186 -287.5t-299 -111.5l6 4q-158 0 -237 111t-33 286zM403 1067q-39 -146 23 -241t192 -95l7 6q131 0 245 94t152 238q38 145 -25.5 240.5t-193.5 95.5t-245.5 -96.5t-154.5 -241.5z M520 868l117 424h145q69 0 105.5 -31.5t17.5 -101.5q-11 -38 -42 -71.5t-68 -43.5l51 -176h-82l-37 152h-94l-41 -152h-72zM651 1083l62 2q99 0 116 74q20 74 -73 74h-64z" horiz-adv-x="835" unicode="®"/><glyph d="M623 1239l22 88h518l-22 -88h-518z" horiz-adv-x="1099" unicode="¯"/><glyph d="M401 1155q30 113 119 181.5t187 68.5t149.5 -69t20.5 -183q-30 -111 -119.5 -179.5t-188.5 -68.5l9 4q-99 0 -153 68t-24 178zM483 1157q-20 -75 12.5 -124.5t102.5 -49.5l2 4q70 0 128.5 49t78.5 123q20 77 -12.5 126.5t-102.5 49.5t-128.5 -50t-80.5 -128z" horiz-adv-x="651" unicode="°"/><glyph d="M76 2l28 92h852l-26 -92h-854zM244 633l24 92h377l109 408h98l-111 -408h377l-24 -92h-377l-107 -397h-100l111 397h-377z" unicode="±"/><glyph d="M113 825l26 72q278 205 388.5 305.5t134.5 190.5q23 84 -10.5 133t-110.5 49q-101 0 -217 -125l-48 53q59 66 138 108t153 42q117 0 167.5 -65.5t17.5 -188.5q-12 -46 -40.5 -93t-62 -86t-92 -91.5t-107.5 -92.5t-131 -105q-19 -15 -28 -22h375l-23 -84h-530z" horiz-adv-x="745" unicode="²"/><glyph d="M133 971l82 51q22 -59 69 -93t111 -34q75 0 137 43t82 117t-41 114.5t-188 40.5l16 66q110 0 186.5 46.5t94.5 115.5q17 63 -16.5 102t-108.5 39q-91 0 -207 -104l-45 53q137 127 281 127q103 0 158 -58t28 -155q-19 -70 -74 -122t-131 -81q72 -16 110.5 -69t16.5 -132 q-29 -108 -124 -172.5t-212 -64.5l23 16q-91 0 -155.5 43.5t-92.5 110.5z" horiz-adv-x="745" unicode="³"/><glyph d="M772 1237l367 328l63 -78l-385 -311z" horiz-adv-x="1099" unicode="´"/><glyph d="M84 -367l385 1368h115l-164 -616q-80 -295 125 -295q85 0 166 43.5t190 173.5l184 692h115q-144 -508 -235 -839q-10 -38 2 -58t41 -20q22 0 59 12l-8 -90q-49 -22 -103 -22q-76 0 -97 47t5 153h-4q-174 -200 -356 -200q-78 0 -124.5 24t-66.5 90q-68 -255 -112 -463 h-117z" horiz-adv-x="1124" unicode="µ"/><glyph d="M321.5 724q-13.5 82 14.5 196q59 222 215 325t381 103h90l-231 -861h-62l6 2q-115 0 -200.5 24.5t-142.5 76.5t-70.5 134zM725 -164l405 1512h119l-405 -1512h-119z" horiz-adv-x="1083" unicode="¶"/><glyph d="M160 659q13 48 50 77.5t77 29.5t60 -29.5t7 -77.5q-12 -44 -47.5 -72t-75.5 -30q-40 2 -60.5 30t-10.5 72zM229 557h2h-2z" horiz-adv-x="468" unicode="·"/><glyph d="M281 -453l12 76q88 6 143 20t81 34t34 51q11 43 -20.5 66.5t-114.5 35.5l135 180h82l-98 -139q67 -18 94.5 -51.5t11.5 -93.5q-45 -161 -360 -179z" horiz-adv-x="1099" unicode="¸"/><glyph d="M358 825l179 654h-172l16 65q115 21 207 80h80l-215 -799h-95z" horiz-adv-x="745" unicode="¹"/><glyph d="M377 1153q43 159 153.5 250.5t239.5 91.5q130 0 192 -92.5t19 -251.5q-43 -157 -154.5 -249.5t-240.5 -92.5l6 2q-130 0 -193.5 92.5t-21.5 249.5zM477 1155q-32 -118 5 -191t130 -73l9 6q93 0 168 72.5t106 189.5q32 119 -5 190.5t-132 71.5t-172 -73t-109 -193z" horiz-adv-x="741" unicode="º"/><glyph d="M164 190l336 328l-164 324l70 49l194 -328l-25 -92l-368 -328zM465 193l336 327l-164 324l70 49l194 -328l-24 -92l-369 -328z" horiz-adv-x="837" unicode="»"/><glyph d="M313 549l179 653h-173l17 66q115 21 207 80h80l-215 -799h-95zM362 -25l1125 1397h90l-1124 -1397h-91zM991 229l13 50l493 520h96l-133 -496h121l-20 -74h-121l-62 -229h-88l64 229h-363zM1122 303h252l47 170l66 215h-8l-156 -170z" horiz-adv-x="1576" unicode="¼"/><glyph d="M313 549l179 653h-173l17 66q115 21 207 80h80l-215 -799h-95zM317 -25l1125 1397h90l-1124 -1397h-91zM997 0l27 72q115 85 180 134.5t134.5 106.5t105.5 95.5t64 79.5t38 79q23 84 -10.5 133.5t-110.5 49.5q-101 0 -217 -125l-47 53q59 65 138 107t153 42 q117 0 167 -65.5t17 -188.5q-12 -46 -41 -93.5t-59.5 -84t-94 -93t-104.5 -90t-132 -105.5q-19 -15 -29 -23h374l-22 -84h-531z" horiz-adv-x="1624" unicode="½"/><glyph d="M133 694l82 51q22 -59 69 -93t111 -34q75 0 137 43t82 117t-41 115t-188 41l16 65q110 0 186.5 46.5t94.5 115.5q17 63 -17 102.5t-108 39.5q-90 0 -207 -105l-45 53q137 127 281 127q103 0 158 -58t28 -155q-19 -70 -74 -121.5t-131 -80.5q72 -16 110.5 -69t16.5 -132 q-29 -108 -124 -173t-212 -65l23 17q-91 0 -155.5 43t-92.5 110zM473 -8l1124 1397h91l-1125 -1397h-90zM1049 246l12 49l493 520h97l-133 -496h120l-20 -73h-121l-61 -230h-88l63 230h-362zM1180 319h252l47 170l65 216h-8l-156 -170z" horiz-adv-x="1611" unicode="¾"/><glyph d="M88 -84q17 64 58.5 126t91 109.5t105.5 102.5t103 105t83 117t46 138h103q-11 -78 -46.5 -150.5t-82.5 -124.5t-102 -106.5t-103 -99t-88 -101t-55 -112.5q-27 -97 12 -162t147 -65q149 0 287 125l53 -64q-194 -164 -383 -164l11 11q-150 0 -213.5 87.5t-26.5 227.5z M610 920q12 45 48 73.5t75 28.5t60.5 -28.5t9.5 -73.5q-13 -46 -49 -75.5t-76 -31.5q-39 2 -59.5 31.5t-8.5 75.5zM676 813h2h4h-6z" horiz-adv-x="839" unicode="¿"/><glyph d="M14 0l836 1352h125l106 -1348h-127l-28 447h-520l-271 -451h-121zM465 549h455l-15 235q-18 276 -20 461h-8q-110 -198 -271 -463zM754 1679l92 80l198 -254l-69 -59z" horiz-adv-x="1089" unicode="À"/><glyph d="M14 0l836 1352h125l106 -1348h-127l-28 447h-520l-271 -451h-121zM465 549h455l-15 235q-18 276 -20 461h-8q-110 -198 -271 -463zM860 1507l334 254l49 -82l-348 -233z" horiz-adv-x="1089" unicode="Á"/><glyph d="M14 0l836 1352h125l106 -1348h-127l-28 447h-520l-271 -451h-121zM465 549h455l-15 235q-18 276 -20 461h-8q-110 -198 -271 -463zM664 1491l288 235h117l164 -233l-64 -43l-176 197h-8l-283 -199z" horiz-adv-x="1089" unicode="Â"/><glyph d="M14 0l836 1352h125l106 -1348h-127l-28 447h-520l-271 -451h-121zM465 549h455l-15 235q-18 276 -20 461h-8q-110 -198 -271 -463zM606 1489q33 104 99.5 168.5t150.5 64.5q43 0 76.5 -16t54.5 -39t39.5 -46.5t42.5 -39.5t53 -16q43 0 82.5 39t65.5 108l80 -6 q-33 -106 -100.5 -171t-151.5 -65l10 9q-44 0 -78 16t-55.5 38.5t-40.5 45.5t-43.5 39t-54.5 16q-43 0 -83.5 -40.5t-66.5 -110.5z" horiz-adv-x="1089" unicode="Ã"/><glyph d="M14 0l836 1352h125l106 -1348h-127l-28 447h-520l-271 -451h-121zM465 549h455l-15 235q-18 276 -20 461h-8q-110 -198 -271 -463zM684 1569q9 36 38.5 59t65.5 23t52.5 -23t7.5 -61q-11 -37 -40.5 -60.5t-66.5 -23.5l4 4q-36 0 -53.5 23t-7.5 59zM1096 1573 q9 36 37.5 59t64.5 23t53.5 -23t8.5 -61q-10 -37 -41 -60.5t-66 -23.5l4 4q-37 0 -54 22.5t-7 59.5z" horiz-adv-x="1089" unicode="Ä"/><glyph d="M14 0l836 1352h125l106 -1348h-127l-28 447h-520l-271 -451h-121zM465 549h455l-15 235q-18 276 -20 461h-8q-110 -198 -271 -463zM801 1618q21 80 86 129t145 49q78 0 118 -50t17 -130q-21 -78 -88 -128t-145 -50l8 2q-80 0 -120.5 49.5t-20.5 128.5zM877 1618 q-15 -57 8.5 -88t72.5 -31l5 4q47 0 88 31.5t55 87.5q14 53 -10 85t-70 32q-49 0 -90.5 -32.5t-58.5 -88.5z" horiz-adv-x="1089" unicode="Å"/><glyph d="M35 0l1102 1352h778l-29 -101h-594l-129 -483h494l-27 -102h-493l-152 -562h614l-28 -102h-733l114 430h-444l-348 -432h-125zM588 530h391l192 721h-8q-19 -24 -368 -465z" horiz-adv-x="1665" unicode="Æ"/><glyph d="M276.5 316q-27.5 154 26.5 368q85 317 296.5 505.5t471.5 188.5q112 0 191 -46.5t120 -117.5l-88 -77q-85 133 -254 133q-212 0 -379 -159t-241 -431q-74 -274 5 -436t288 -162q184 0 372 162l48 -74q-186 -165 -383 -190l-72 -101q67 -18 94.5 -51.5t11.5 -93.5 q-45 -160 -360 -178l12 75q88 6 143 20t81 34t34 51q11 43 -20.5 66.5t-114.5 35.5l109 146q-159 5 -261.5 91.5t-130 240.5z" horiz-adv-x="1161" unicode="Ç"/><glyph d="M195 0l368 1350h750l-29 -101h-633l-129 -483h531l-27 -102h-532l-152 -562h651l-28 -102h-770zM791 1677l92 80l198 -254l-69 -59z" horiz-adv-x="1062" unicode="È"/><glyph d="M195 0l368 1350h750l-29 -101h-633l-129 -483h531l-27 -102h-532l-152 -562h651l-28 -102h-770zM897 1505l334 254l49 -82l-348 -233z" horiz-adv-x="1062" unicode="É"/><glyph d="M195 0l368 1350h750l-29 -101h-633l-129 -483h531l-27 -102h-532l-152 -562h651l-28 -102h-770zM700 1489l289 235h117l164 -233l-64 -43l-176 197h-8l-283 -199z" horiz-adv-x="1062" unicode="Ê"/><glyph d="M195 0l368 1350h750l-29 -101h-633l-129 -483h531l-27 -102h-532l-152 -562h651l-28 -102h-770zM721 1567q9 36 38.5 59t65.5 23t52.5 -23t7.5 -61q-11 -37 -40.5 -60.5t-66.5 -23.5l4 4q-36 0 -53.5 23t-7.5 59zM1133 1571q9 36 37.5 59t64.5 23t53 -23t8 -61 q-10 -37 -40.5 -60.5t-65.5 -23.5l4 4q-37 0 -54 22.5t-7 59.5z" horiz-adv-x="1062" unicode="Ë"/><glyph d="M195 0l364 1348h117l-363 -1348h-118zM461 1675l92 80l199 -254l-70 -59z" horiz-adv-x="507" unicode="Ì"/><glyph d="M195 0l364 1348h117l-363 -1348h-118zM567 1503l334 254l49 -82l-348 -233z" horiz-adv-x="507" unicode="Í"/><glyph d="M195 0l364 1348h117l-363 -1348h-118zM371 1487l288 235h117l164 -233l-63 -43l-177 196h-8l-282 -198z" horiz-adv-x="507" unicode="Î"/><glyph d="M195 0l364 1348h117l-363 -1348h-118zM391 1565q9 36 39 59t66 23q35 0 51.5 -23t7.5 -61q-11 -37 -40 -60.5t-66 -23.5l4 4q-36 0 -54 23t-8 59zM803 1569q9 36 37.5 59t64.5 23t53.5 -23t8.5 -61q-10 -37 -40.5 -60.5t-66.5 -23.5l4 4q-37 0 -54 22.5t-7 59.5z" horiz-adv-x="507" unicode="Ï"/><glyph d="M242 2l182 672h-170l22 71l168 7l162 600h320q306 0 415.5 -176.5t24.5 -493.5q-87 -319 -292.5 -499.5t-508.5 -180.5h-323zM389 102l199 2q253 0 420.5 154.5t240.5 425.5q71 268 -16 418.5t-342 150.5h-193l-135 -501h322l-23 -78h-319z" horiz-adv-x="1288" unicode="Ð"/><glyph d="M195 0l368 1354h123l295 -918l78 -272h8q68 311 92 403l211 785h111l-363 -1348h-123l-297 918l-77 270h-9q-68 -309 -92 -395l-213 -797h-112zM729 1491q33 104 99.5 168.5t150.5 64.5q43 0 76.5 -16t54.5 -39t39.5 -46.5t42.5 -39.5t53 -16q43 0 82.5 39t65.5 108 l80 -6q-33 -105 -100.5 -170t-151.5 -65l10 8q-44 0 -78 16t-55.5 38.5t-41 45.5t-44 39t-54.5 16q-43 0 -83 -40.5t-66 -110.5z" horiz-adv-x="1310" unicode="Ñ"/><glyph d="M299 682q85 317 290.5 504.5t454.5 187.5t354.5 -188.5t20.5 -505.5q-87 -320 -295 -512.5t-458 -192.5l8 5q-250 0 -355 192t-20 510zM428 684q-73 -271 2 -434.5t272 -163.5l9 4q197 0 360.5 163.5t235.5 434.5q72 269 -6 427.5t-277 158.5t-361.5 -160t-234.5 -430z M895 1683l92 80l199 -254l-70 -59z" horiz-adv-x="1343" unicode="Ò"/><glyph d="M299 682q85 317 290.5 504.5t454.5 187.5t354.5 -188.5t20.5 -505.5q-87 -320 -295 -512.5t-458 -192.5l8 5q-250 0 -355 192t-20 510zM428 684q-73 -271 2 -434.5t272 -163.5l9 4q197 0 360.5 163.5t235.5 434.5q72 269 -6 427.5t-277 158.5t-361.5 -160t-234.5 -430z M1001 1511l334 254l49 -82l-348 -233z" horiz-adv-x="1343" unicode="Ó"/><glyph d="M299 682q85 317 290.5 504.5t454.5 187.5t354.5 -188.5t20.5 -505.5q-87 -320 -295 -512.5t-458 -192.5l8 5q-250 0 -355 192t-20 510zM428 684q-73 -271 2 -434.5t272 -163.5l9 4q197 0 360.5 163.5t235.5 434.5q72 269 -6 427.5t-277 158.5t-361.5 -160t-234.5 -430z M803 1495l289 236h116l164 -234l-63 -43l-176 197h-9l-282 -199z" horiz-adv-x="1343" unicode="Ô"/><glyph d="M299 682q85 317 290.5 504.5t454.5 187.5t354.5 -188.5t20.5 -505.5q-87 -320 -295 -512.5t-458 -192.5l8 5q-250 0 -355 192t-20 510zM428 684q-73 -271 2 -434.5t272 -163.5l9 4q197 0 360.5 163.5t235.5 434.5q72 269 -6 427.5t-277 158.5t-361.5 -160t-234.5 -430z M748 1493q33 105 99 169t150 64q43 0 76.5 -16t55 -39t40 -46.5t42.5 -39.5t53 -16q43 0 82 39t65 108l80 -6q-33 -105 -100.5 -170t-151.5 -65l10 8q-44 0 -78 16t-55.5 38.5t-40.5 45.5t-43.5 39t-54.5 16q-43 0 -83.5 -40.5t-66.5 -110.5z" horiz-adv-x="1343" unicode="Õ"/><glyph d="M299 682q85 317 290.5 504.5t454.5 187.5t354.5 -188.5t20.5 -505.5q-87 -320 -295 -512.5t-458 -192.5l8 5q-250 0 -355 192t-20 510zM428 684q-73 -271 2 -434.5t272 -163.5l9 4q197 0 360.5 163.5t235.5 434.5q72 269 -6 427.5t-277 158.5t-361.5 -160t-234.5 -430z M825 1573q9 36 39 59t66 23q35 0 51.5 -23t7.5 -61q-11 -37 -40 -60.5t-66 -23.5l4 4q-36 0 -54 23t-8 59zM1237 1577q9 36 37.5 59t64.5 23t53.5 -23t8.5 -61q-10 -36 -40.5 -60t-66.5 -24l4 4q-37 0 -54 22.5t-7 59.5z" horiz-adv-x="1343" unicode="Ö"/><glyph d="M199 346l415 336l-235 336l84 67l235 -340l416 338l47 -69l-418 -336l238 -338l-84 -70l-235 340l-418 -340z" unicode="×"/><glyph d="M113 4l200 197q-84 191 -6 483q85 317 291 504.5t455 187.5q210 0 321 -139l166 164l55 -53l-180 -177q93 -188 12 -489q-87 -320 -295 -512.5t-458 -192.5l8 5q-219 0 -328 149l-186 -182zM420 303l868 852q-82 121 -256 121q-199 0 -361.5 -160t-234.5 -430 q-61 -228 -16 -383zM451 225q79 -137 260 -137l8 4q197 0 360.5 163.5t235.5 434.5q63 236 8 391z" horiz-adv-x="1343" unicode="Ø"/><glyph d="M305 315q1 96 35 220l219 817h117l-219 -813q-27 -102 -30.5 -181t13.5 -130t53 -84t81.5 -46.5t103.5 -13.5q74 0 140.5 23t130 73.5t115.5 141.5t85 217l217 811h113l-219 -820q-34 -124 -85 -221t-109.5 -159t-129.5 -102t-141.5 -56.5t-147.5 -16.5l8 7 q-77 0 -138.5 16.5t-111 56.5t-75.5 102t-25 158zM868 1681l93 80l198 -254l-69 -59z" horiz-adv-x="1306" unicode="Ù"/><glyph d="M305 315q1 96 35 220l219 817h117l-219 -813q-27 -102 -30.5 -181t13.5 -130t53 -84t81.5 -46.5t103.5 -13.5q74 0 140.5 23t130 73.5t115.5 141.5t85 217l217 811h113l-219 -820q-34 -124 -85 -221t-109.5 -159t-129.5 -102t-141.5 -56.5t-147.5 -16.5l8 7 q-77 0 -138.5 16.5t-111 56.5t-75.5 102t-25 158zM975 1509l334 254l49 -82l-348 -233z" horiz-adv-x="1306" unicode="Ú"/><glyph d="M305 315q1 96 35 220l219 817h117l-219 -813q-27 -102 -30.5 -181t13.5 -130t53 -84t81.5 -46.5t103.5 -13.5q74 0 140.5 23t130 73.5t115.5 141.5t85 217l217 811h113l-219 -820q-34 -124 -85 -221t-109.5 -159t-129.5 -102t-141.5 -56.5t-147.5 -16.5l8 7 q-77 0 -138.5 16.5t-111 56.5t-75.5 102t-25 158zM776 1493l289 236h117l164 -234l-64 -43l-176 197h-8l-283 -199z" horiz-adv-x="1306" unicode="Û"/><glyph d="M305 315q1 96 35 220l219 817h117l-219 -813q-27 -102 -30.5 -181t13.5 -130t53 -84t81.5 -46.5t103.5 -13.5q74 0 140.5 23t130 73.5t115.5 141.5t85 217l217 811h113l-219 -820q-34 -124 -85 -221t-109.5 -159t-129.5 -102t-141.5 -56.5t-147.5 -16.5l8 7 q-77 0 -138.5 16.5t-111 56.5t-75.5 102t-25 158zM799 1571q9 36 38.5 59t65.5 23t52.5 -23t7.5 -61q-11 -37 -40.5 -60.5t-66.5 -23.5l4 4q-36 0 -53.5 23t-7.5 59zM1210 1575q9 36 38 59t65 23t53 -23t8 -61q-10 -37 -40.5 -60.5t-65.5 -23.5l4 4q-37 0 -54.5 23t-7.5 59z" horiz-adv-x="1306" unicode="Ü"/><glyph d="M373 1352h125l86 -410q41 -224 57 -293h8q166 215 221 291l304 408h120l-622 -809l-146 -539h-118l153 543zM788 1507l334 254l49 -82l-348 -233z" horiz-adv-x="933" unicode="Ý"/><glyph d="M195 0l366 1350h117l-64 -236h265q92 0 162 -12.5t123.5 -40.5t80.5 -73t33.5 -108.5t-18.5 -148.5q-54 -200 -209 -300.5t-385 -100.5h-265l-88 -330h-118zM432 430l246 2q199 0 313 71.5t156 229.5q41 156 -35.5 219.5t-280.5 63.5h-241z" horiz-adv-x="1167" unicode="Þ"/><glyph d="M190 8l289 1077q51 189 178.5 299.5t296.5 110.5q137 0 197 -81.5t27 -203.5q-15 -58 -49.5 -109.5t-74 -90.5t-78.5 -75t-70.5 -78t-43.5 -85q-6 -21 -5 -40t4 -33t15 -29.5t20 -24.5t28.5 -23.5t30 -20.5t34.5 -21q32 -19 50 -30.5t45 -33t40.5 -43.5t25.5 -52.5 t10.5 -69t-13.5 -83.5q-34 -126 -142.5 -209.5t-244.5 -83.5l18 15q-157 0 -256 102l74 84q88 -94 203 -94q92 0 157.5 55.5t87.5 134.5q7 28 7 52.5t-4 43t-17 37.5t-23 30.5t-32 27.5t-34 23.5t-38 23.5q-25 14 -39.5 23.5t-36 25t-33.5 29t-25 33.5t-17.5 41t-4 48 t8.5 58q12 46 37.5 88t55 72.5t63.5 64t63.5 63t54 69t35.5 81.5q24 88 -10 141.5t-125 53.5q-119 0 -208.5 -86.5t-135.5 -257.5l-281 -1049h-115z" horiz-adv-x="1132" unicode="ß"/><glyph d="M195 256q42 161 214.5 247t510.5 122q16 59 19 107t-9 92t-52 69t-106 25q-154 0 -340 -113l-26 82q224 127 405 127q86 0 141.5 -29t78 -83t21.5 -123t-24 -156l-168 -623h-96l22 125h-6q-227 -150 -385 -150l15 9q-126 0 -188 70.5t-27 201.5zM313 266 q-25 -95 17.5 -140.5t130.5 -45.5l6 4q77 0 160.5 36.5t191.5 112.5l84 316q-194 -22 -318.5 -61t-187.5 -92.5t-84 -129.5zM696 1501l103 76l192 -330l-78 -59z" horiz-adv-x="1013" unicode="à"/><glyph d="M195 256q42 161 214.5 247t510.5 122q16 59 19 107t-9 92t-52 69t-106 25q-154 0 -340 -113l-26 82q224 127 405 127q86 0 141.5 -29t78 -83t21.5 -123t-24 -156l-168 -623h-96l22 125h-6q-227 -150 -385 -150l15 9q-126 0 -188 70.5t-27 201.5zM313 266 q-25 -95 17.5 -140.5t130.5 -45.5l6 4q77 0 160.5 36.5t191.5 112.5l84 316q-194 -22 -318.5 -61t-187.5 -92.5t-84 -129.5zM770 1249l367 328l63 -78l-385 -311z" horiz-adv-x="1013" unicode="á"/><glyph d="M195 256q42 161 214.5 247t510.5 122q16 59 19 107t-9 92t-52 69t-106 25q-154 0 -340 -113l-26 82q224 127 405 127q86 0 141.5 -29t78 -83t21.5 -123t-24 -156l-168 -623h-96l22 125h-6q-227 -150 -385 -150l15 9q-126 0 -188 70.5t-27 201.5zM313 266 q-25 -95 17.5 -140.5t130.5 -45.5l6 4q77 0 160.5 36.5t191.5 112.5l84 316q-194 -22 -318.5 -61t-187.5 -92.5t-84 -129.5zM582 1231l317 295h113l159 -293l-67 -49l-170 248h-8l-303 -250z" horiz-adv-x="1013" unicode="â"/><glyph d="M195 256q42 161 214.5 247t510.5 122q16 59 19 107t-9 92t-52 69t-106 25q-154 0 -340 -113l-26 82q224 127 405 127q86 0 141.5 -29t78 -83t21.5 -123t-24 -156l-168 -623h-96l22 125h-6q-227 -150 -385 -150l15 9q-126 0 -188 70.5t-27 201.5zM313 266 q-25 -95 17.5 -140.5t130.5 -45.5l6 4q77 0 160.5 36.5t191.5 112.5l84 316q-194 -22 -318.5 -61t-187.5 -92.5t-84 -129.5zM535 1214q86 263 258 263q41 0 72.5 -19.5t51 -47.5t36.5 -55.5t40.5 -47t53.5 -19.5q48 0 87 49.5t64 130.5l80 -6q-87 -264 -260 -264l8 6 q-42 0 -74 19.5t-52 47t-37.5 55.5t-40.5 47.5t-52 19.5q-96 0 -154 -183z" horiz-adv-x="1013" unicode="ã"/><glyph d="M195 256q42 161 214.5 247t510.5 122q16 59 19 107t-9 92t-52 69t-106 25q-154 0 -340 -113l-26 82q224 127 405 127q86 0 141.5 -29t78 -83t21.5 -123t-24 -156l-168 -623h-96l22 125h-6q-227 -150 -385 -150l15 9q-126 0 -188 70.5t-27 201.5zM313 266 q-25 -95 17.5 -140.5t130.5 -45.5l6 4q77 0 160.5 36.5t191.5 112.5l84 316q-194 -22 -318.5 -61t-187.5 -92.5t-84 -129.5zM631 1315q9 35 39 59.5t65 24.5t53 -24.5t9 -59.5q-10 -35 -40.5 -58.5t-66.5 -25.5q-35 1 -51.5 25t-7.5 59zM688 1231h2h4h-6zM1012 1315 q9 35 39 59.5t65 24.5t53 -24.5t9 -59.5q-10 -35 -40.5 -58.5t-66.5 -25.5q-35 1 -51.5 25t-7.5 59zM1067 1231h4h-4z" horiz-adv-x="1013" unicode="ä"/><glyph d="M195 256q42 161 214.5 247t510.5 122q16 59 19 107t-9 92t-52 69t-106 25q-154 0 -340 -113l-26 82q224 127 405 127q86 0 141.5 -29t78 -83t21.5 -123t-24 -156l-168 -623h-96l22 125h-6q-227 -150 -385 -150l15 9q-126 0 -188 70.5t-27 201.5zM313 266 q-25 -95 17.5 -140.5t130.5 -45.5l6 4q77 0 160.5 36.5t191.5 112.5l84 316q-194 -22 -318.5 -61t-187.5 -92.5t-84 -129.5zM702 1337q23 86 95.5 141.5t163.5 55.5q90 0 132 -55t19 -142q-23 -88 -96.5 -143t-165.5 -55l8 2q-92 0 -135.5 55t-20.5 141zM784 1339 q-17 -62 9 -99.5t81 -37.5l5 2q55 0 101.5 37.5t61.5 99.5q17 60 -10 98t-82 38t-102 -38t-64 -100z" horiz-adv-x="1013" unicode="å"/><glyph d="M217 264q42 162 213 248.5t502 122.5q80 293 -146 293q-143 0 -329 -113l-27 82q224 127 393 127q114 0 170.5 -63t53.5 -173q85 108 189.5 171t207.5 63q174 0 238.5 -122t5.5 -339q-11 -40 -27 -80h-670q-45 -175 20.5 -288t207.5 -113q125 0 272 84l22 -86 q-59 -32 -99.5 -50.5t-105 -34.5t-130.5 -16q-119 0 -189 54t-112 143q-122 -93 -246.5 -146t-218.5 -53l20 19q-126 0 -188 70t-27 200zM336 276q-25 -95 17 -140.5t130 -45.5l6 6q79 0 188 47.5t206 130.5q-18 84 16 232l14 53q-275 -33 -410 -101.5t-167 -181.5z M1032 580l572 2q46 178 1.5 269t-171.5 91q-118 0 -231 -100.5t-171 -261.5z" horiz-adv-x="1607" unicode="æ"/><glyph d="M246 502q64 238 233 378t361 140q158 0 256 -121l-84 -78q-85 99 -197 99q-148 0 -277 -118t-180 -304q-51 -188 11.5 -304t214.5 -116q132 0 282 108l33 -80q-151 -112 -303 -129l-68 -94q68 -19 95.5 -52t11.5 -93q-45 -159 -361 -178l13 75q88 6 143 20t81 34t34 51 q11 43 -20.5 66.5t-114.5 35.5l110 148q-178 14 -256.5 151t-17.5 361z" horiz-adv-x="923" unicode="ç"/><glyph d="M231.5 225.5q-30.5 114.5 10.5 276.5q41 155 136 275.5t209 181.5t226 61q180 0 249 -122t11 -339q-7 -35 -26 -82h-697q-44 -179 23.5 -290t224.5 -111q136 0 283 82l20 -82q-87 -47 -167 -74t-175 -27l8 13q-129 0 -217 61.5t-118.5 176zM377 573l600 2 q46 174 -3 264.5t-179 90.5q-123 0 -241.5 -97.5t-176.5 -259.5zM696 1503l103 76l192 -330l-78 -59z" horiz-adv-x="997" unicode="è"/><glyph d="M231.5 225.5q-30.5 114.5 10.5 276.5q41 155 136 275.5t209 181.5t226 61q180 0 249 -122t11 -339q-7 -35 -26 -82h-697q-44 -179 23.5 -290t224.5 -111q136 0 283 82l20 -82q-87 -47 -167 -74t-175 -27l8 13q-129 0 -217 61.5t-118.5 176zM377 573l600 2 q46 174 -3 264.5t-179 90.5q-123 0 -241.5 -97.5t-176.5 -259.5zM770 1251l367 328l63 -78l-385 -311z" horiz-adv-x="997" unicode="é"/><glyph d="M231.5 225.5q-30.5 114.5 10.5 276.5q41 155 136 275.5t209 181.5t226 61q180 0 249 -122t11 -339q-7 -35 -26 -82h-697q-44 -179 23.5 -290t224.5 -111q136 0 283 82l20 -82q-87 -47 -167 -74t-175 -27l8 13q-129 0 -217 61.5t-118.5 176zM377 573l600 2 q46 174 -3 264.5t-179 90.5q-123 0 -241.5 -97.5t-176.5 -259.5zM582 1233l317 295h113l159 -293l-67 -49l-170 248h-8l-303 -250z" horiz-adv-x="997" unicode="ê"/><glyph d="M231.5 225.5q-30.5 114.5 10.5 276.5q41 155 136 275.5t209 181.5t226 61q180 0 249 -122t11 -339q-7 -35 -26 -82h-697q-44 -179 23.5 -290t224.5 -111q136 0 283 82l20 -82q-87 -47 -167 -74t-175 -27l8 13q-129 0 -217 61.5t-118.5 176zM377 573l600 2 q46 174 -3 264.5t-179 90.5q-123 0 -241.5 -97.5t-176.5 -259.5zM631 1317q9 35 39 59.5t65 24.5t53 -24.5t9 -59.5q-10 -35 -40.5 -58.5t-66.5 -25.5q-35 1 -51.5 25t-7.5 59zM688 1233h2h4h-6zM1012 1317q9 35 39 59.5t65 24.5t53 -24.5t9 -59.5q-10 -35 -40.5 -58.5 t-66.5 -25.5q-35 1 -51.5 25t-7.5 59zM1067 1233h4h-4z" horiz-adv-x="997" unicode="ë"/><glyph d="M182 0l264 987h115l-264 -987h-115zM387 1489l102 76l193 -330l-78 -59z" horiz-adv-x="479" unicode="ì"/><glyph d="M182 0l264 987h115l-264 -987h-115zM461 1237l366 328l64 -78l-385 -311z" horiz-adv-x="479" unicode="í"/><glyph d="M182 0l264 987h115l-264 -987h-115zM272 1219l318 294h112l160 -292l-67 -50l-170 248h-9l-303 -250z" horiz-adv-x="479" unicode="î"/><glyph d="M182 0l264 987h115l-264 -987h-115zM322 1303q9 35 39 59t65 24t52.5 -24t8.5 -59q-10 -35 -40.5 -58.5t-65.5 -25.5q-35 1 -51.5 25t-7.5 59zM379 1219h2h4h-6zM702 1303q9 35 39.5 59t65.5 24t52.5 -24t8.5 -59q-10 -35 -40.5 -58.5t-65.5 -25.5q-35 1 -52 25t-8 59z M758 1219h4h-4z" horiz-adv-x="479" unicode="ï"/><glyph d="M256 463q55 203 207.5 330t339.5 127q167 0 244 -136q13 242 -119 418l-314 -143l-18 67l285 129q-76 78 -199 160l74 76q136 -86 227 -188l354 159l19 -65l-328 -150q204 -285 84 -727q-66 -245 -223 -395t-346 -150l18 15q-175 0 -268 130t-37 343zM360 459 q-43 -164 21 -270.5t197 -106.5q152 0 263 121.5t163 318.5q16 67 30 140q-44 91 -106.5 126t-145.5 35q-151 0 -265 -104t-157 -260z" horiz-adv-x="1103" unicode="ð"/><glyph d="M182 0l271 991h96l-29 -149h4q108 84 198 129t183 45q153 0 202 -95t-3 -286l-170 -631h-115l164 614q41 151 9 222t-144 71q-81 0 -159 -41t-195 -135l-197 -735h-115zM578 1206q86 262 258 262q41 0 72.5 -19.5t51 -47t36.5 -55t40.5 -47t53.5 -19.5q48 0 87 49.5 t64 130.5l80 -6q-87 -264 -260 -264l8 6q-42 0 -74 19.5t-52 47t-37.5 55t-40.5 47t-52 19.5q-96 0 -154 -182z" horiz-adv-x="1099" unicode="ñ"/><glyph d="M230 220q-31 114 12 278q64 238 230 378t353 140q121 0 205.5 -61.5t115.5 -177.5t-13 -283q-64 -237 -232 -378t-356 -141l8 9q-122 0 -207 61t-116 175zM367 502q-51 -186 10 -303t203 -117l6 4q143 0 266 115.5t174 300.5q49 186 -12.5 304t-204.5 118t-267 -117.5 t-175 -304.5zM715 1501l102 76l193 -330l-78 -59z" horiz-adv-x="1099" unicode="ò"/><glyph d="M230 220q-31 114 12 278q64 238 230 378t353 140q121 0 205.5 -61.5t115.5 -177.5t-13 -283q-64 -237 -232 -378t-356 -141l8 9q-122 0 -207 61t-116 175zM367 502q-51 -186 10 -303t203 -117l6 4q143 0 266 115.5t174 300.5q49 186 -12.5 304t-204.5 118t-267 -117.5 t-175 -304.5zM788 1249l367 328l64 -78l-385 -311z" horiz-adv-x="1099" unicode="ó"/><glyph d="M230 220q-31 114 12 278q64 238 230 378t353 140q121 0 205.5 -61.5t115.5 -177.5t-13 -283q-64 -237 -232 -378t-356 -141l8 9q-122 0 -207 61t-116 175zM367 502q-51 -186 10 -303t203 -117l6 4q143 0 266 115.5t174 300.5q49 186 -12.5 304t-204.5 118t-267 -117.5 t-175 -304.5zM600 1231l318 295h112l160 -293l-68 -49l-170 248h-8l-303 -250z" horiz-adv-x="1099" unicode="ô"/><glyph d="M230 220q-31 114 12 278q64 238 230 378t353 140q121 0 205.5 -61.5t115.5 -177.5t-13 -283q-64 -237 -232 -378t-356 -141l8 9q-122 0 -207 61t-116 175zM367 502q-51 -186 10 -303t203 -117l6 4q143 0 266 115.5t174 300.5q49 186 -12.5 304t-204.5 118t-267 -117.5 t-175 -304.5zM553 1214q86 263 258 263q41 0 72.5 -19.5t51 -47.5t36.5 -55.5t40.5 -47t53.5 -19.5q48 0 87.5 50t64.5 130l79 -6q-87 -264 -260 -264l8 6q-42 0 -74 19.5t-52 47t-37.5 55.5t-40.5 47.5t-52 19.5q-95 0 -153 -183z" horiz-adv-x="1099" unicode="õ"/><glyph d="M230 220q-31 114 12 278q64 238 230 378t353 140q121 0 205.5 -61.5t115.5 -177.5t-13 -283q-64 -237 -232 -378t-356 -141l8 9q-122 0 -207 61t-116 175zM367 502q-51 -186 10 -303t203 -117l6 4q143 0 266 115.5t174 300.5q49 186 -12.5 304t-204.5 118t-267 -117.5 t-175 -304.5zM649 1315q9 35 39.5 59.5t65.5 24.5t52.5 -24.5t8.5 -59.5q-10 -35 -40.5 -58.5t-65.5 -25.5q-35 2 -52 25.5t-8 58.5zM707 1231h2h4h-6zM1030 1315q9 35 39.5 59.5t65.5 24.5t52.5 -24.5t8.5 -59.5q-10 -35 -40.5 -58.5t-65.5 -25.5q-35 2 -52 25.5t-8 58.5z M1085 1231h5h-5z" horiz-adv-x="1099" unicode="ö"/><glyph d="M240 631l26 92h852l-24 -92h-854zM498 311q10 38 41.5 63t68.5 25t55.5 -25.5t8.5 -64.5q-10 -40 -42.5 -66t-70.5 -26l6 2q-39 0 -58 25.5t-9 66.5zM702 1051q9 38 41.5 63t69.5 25t55.5 -25.5t8.5 -64.5q-12 -41 -45 -67t-70 -26l6 2q-39 0 -57.5 26t-8.5 67z" unicode="÷"/><glyph d="M113 18l143 132q-70 140 -14 348q64 238 230 378t353 140q167 0 258 -111l156 142l47 -50l-166 -151q70 -139 13 -352q-64 -237 -232 -378t-356 -141l8 9q-169 0 -258 108l-137 -125zM354 238l647 591q-65 97 -194 97q-144 0 -271 -118t-176 -302q-42 -154 -6 -268z M385 174q65 -94 193 -94l6 4q144 0 268.5 116t173.5 300q41 158 6 264z" horiz-adv-x="1099" unicode="ø"/><glyph d="M266 79q-49 95 4 286l168 630h115l-164 -616q-42 -152 -11 -224.5t142 -72.5q83 0 162.5 43.5t189.5 144.5l193 719h115l-265 -987h-96l31 162h-6q-102 -92 -194 -140.5t-189 -48.5l8 9q-154 0 -203 95zM702 1497l103 76l192 -330l-77 -59z" horiz-adv-x="1093" unicode="ù"/><glyph d="M266 79q-49 95 4 286l168 630h115l-164 -616q-42 -152 -11 -224.5t142 -72.5q83 0 162.5 43.5t189.5 144.5l193 719h115l-265 -987h-96l31 162h-6q-102 -92 -194 -140.5t-189 -48.5l8 9q-154 0 -203 95zM776 1245l367 328l63 -78l-385 -311z" horiz-adv-x="1093" unicode="ú"/><glyph d="M266 79q-49 95 4 286l168 630h115l-164 -616q-42 -152 -11 -224.5t142 -72.5q83 0 162.5 43.5t189.5 144.5l193 719h115l-265 -987h-96l31 162h-6q-102 -92 -194 -140.5t-189 -48.5l8 9q-154 0 -203 95zM588 1227l317 295h113l160 -293l-68 -49l-170 247h-8l-303 -249z" horiz-adv-x="1093" unicode="û"/><glyph d="M266 79q-49 95 4 286l168 630h115l-164 -616q-42 -152 -11 -224.5t142 -72.5q83 0 162.5 43.5t189.5 144.5l193 719h115l-265 -987h-96l31 162h-6q-102 -92 -194 -140.5t-189 -48.5l8 9q-154 0 -203 95zM637 1311q9 35 39 59.5t65 24.5t53 -24.5t9 -59.5 q-10 -35 -40.5 -58.5t-66.5 -25.5q-35 1 -51.5 25t-7.5 59zM694 1227h2h4h-6zM1018 1311q9 35 39 59.5t65 24.5t53 -24.5t9 -59.5q-10 -35 -40.5 -58.5t-66.5 -25.5q-35 1 -51.5 25t-7.5 59zM1073 1227h4h-4z" horiz-adv-x="1093" unicode="ü"/><glyph d="M-43 -412l49 95q38 -17 74 -17q160 0 307 246l47 82l-135 999h121l65 -598q23 -245 27 -278h8q32 53 162 276l358 596h115l-678 -1098q-202 -331 -434 -331l16 8q-57 0 -102 20zM717 1245l366 328l64 -78l-385 -311z" horiz-adv-x="913" unicode="ý"/><glyph d="M66 -436l520 1913h114l-110 -416l-51 -182q216 139 358 139q194 0 259.5 -135t2.5 -371q-44 -163 -137.5 -286.5t-208 -186t-231.5 -62.5q-134 0 -260 117l-48 -178l-94 -352h-114zM360 205q110 -121 242 -121l6 6q142 0 265.5 119.5t175.5 312.5q24 90 27 162t-17 127 t-70 85t-129 30q-128 0 -348 -156z" horiz-adv-x="1122" unicode="þ"/><glyph d="M-43 -412l49 95q38 -17 74 -17q160 0 307 246l47 82l-135 999h121l65 -598q23 -245 27 -278h8q32 53 162 276l358 596h115l-678 -1098q-202 -331 -434 -331l16 8q-57 0 -102 20zM578 1311q9 35 39 59.5t65 24.5t52.5 -24.5t8.5 -59.5q-10 -35 -40.5 -58.5t-65.5 -25.5 q-35 1 -51.5 25t-7.5 59zM635 1227h2h4h-6zM958 1311q9 35 39.5 59.5t65.5 24.5t52.5 -24.5t8.5 -59.5q-10 -35 -40.5 -58.5t-65.5 -25.5q-35 1 -52 25t-8 59zM1014 1227h4h-4z" horiz-adv-x="913" unicode="ÿ"/><glyph d="M301 682q83 315 296.5 491.5t526.5 176.5h840l-29 -101h-594l-129 -483h494l-27 -102h-493l-152 -562h615l-29 -102h-866l10 4q-310 0 -429 181t-34 497zM396.5 445.5q6.5 -107.5 50 -184t134.5 -118t224 -41.5l123 2l307 1151h-119q-264 0 -440 -151.5t-248 -419.5 q-38 -131 -31.5 -238.5z" horiz-adv-x="1716" unicode="Œ"/><glyph d="M238.5 228q-29.5 114 13.5 278q64 238 228 378t347 140q121 0 202.5 -73.5t96.5 -207.5q90 130 205 204.5t230 74.5q177 0 243.5 -122t7.5 -339q-13 -48 -26 -80h-680q-45 -175 21.5 -288t209.5 -113q132 0 279 84l22 -86q-87 -47 -167 -74t-175 -27q-125 0 -207 74 t-104 201q-93 -136 -209 -206.5t-244 -70.5l19 17q-118 0 -200.5 61t-112 175zM373 510q-51 -186 8.5 -303t198.5 -117l4 4q140 0 260.5 115.5t171.5 300.5q49 187 -10 304.5t-199 117.5q-139 0 -261 -118t-173 -304zM1143 575l581 3q46 175 -2 267.5t-176 92.5 q-118 0 -231.5 -101t-171.5 -262z" horiz-adv-x="1732" unicode="œ"/><glyph d="M373 1352h125l86 -410q41 -224 57 -293h8q166 215 221 291l304 408h120l-622 -809l-146 -539h-118l153 543zM612 1569q9 36 39 59t66 23q35 0 51.5 -23t7.5 -61q-11 -37 -40 -60.5t-66 -23.5l4 4q-36 0 -54 23t-8 59zM1024 1573q9 36 37.5 59t64.5 23t53.5 -23t8.5 -61 q-10 -37 -41 -60.5t-66 -23.5l4 4q-37 0 -54 22.5t-7 59.5z" horiz-adv-x="933" unicode="Ÿ"/><glyph d="M584 1219l317 294h113l160 -292l-68 -50l-170 248h-8l-303 -250z" horiz-adv-x="1099" unicode="ˆ"/><glyph d="M537 1202q86 262 258 262q41 0 72.5 -19.5t51 -47t36.5 -55t40.5 -47t53.5 -19.5q48 0 87 49.5t64 130.5l80 -6q-87 -264 -260 -264l8 6q-42 0 -74 19.5t-52 47t-37.5 55t-40.5 47t-52 19.5q-96 0 -154 -182z" horiz-adv-x="1099" unicode="˜"/><glyph horiz-adv-x="898"/><glyph horiz-adv-x="1796"/><glyph horiz-adv-x="898"/><glyph horiz-adv-x="1796"/><glyph horiz-adv-x="598"/><glyph horiz-adv-x="449"/><glyph horiz-adv-x="299"/><glyph horiz-adv-x="299"/><glyph horiz-adv-x="224"/><glyph horiz-adv-x="359"/><glyph horiz-adv-x="99"/><glyph d="M209 465l27 96h456l-26 -96h-457z" horiz-adv-x="620" unicode="‐"/><glyph d="M209 465l27 96h456l-26 -96h-457z" horiz-adv-x="620" unicode="‑"/><glyph d="M209 465l27 96h456l-26 -96h-457z" horiz-adv-x="620" unicode="‒"/><glyph d="M209 471l24 88h818l-25 -88h-817z" horiz-adv-x="983" unicode="–"/><glyph d="M209 471l24 88h1473l-25 -88h-1472z" horiz-adv-x="1638" unicode="—"/><glyph d="M424 997q-17 39 2 113q55 214 274 334l25 -60q-91 -57 -141 -115.5t-72 -142.5q6 2 16 2q35 0 55 -23t9 -63q-12 -42 -43.5 -67t-71.5 -25l12 8q-48 0 -65 39z" horiz-adv-x="468" unicode="‘"/><glyph d="M406 1014q88 55 136 111t70 139q-4 -2 -18 -2q-36 0 -57.5 22.5t-12.5 61.5q12 42 43 66t70 24q46 0 62.5 -40t-3.5 -114q-58 -214 -280 -334z" horiz-adv-x="468" unicode="’"/><glyph d="M406 -211q88 55 136 111t70 139q-4 -2 -18 -2q-36 0 -57.5 22.5t-12.5 61.5q12 42 43 66t70 24q46 0 62.5 -40.5t-3.5 -113.5q-57 -213 -280 -333z" horiz-adv-x="468" unicode="‚"/><glyph d="M424 997q-17 39 2 113q55 214 274 334l25 -60q-91 -57 -141 -115.5t-72 -142.5q6 2 16 2q35 0 55 -23t9 -63q-12 -42 -43.5 -67t-71.5 -25l12 8q-48 0 -65 39zM750 1005.5q-17 38.5 2 112.5q55 214 274 334l25 -59q-91 -57 -141 -115.5t-72 -142.5q6 2 16 2q35 0 55 -23 t9 -63q-12 -42 -43.5 -67.5t-71.5 -25.5l12 9q-48 0 -65 38.5z" horiz-adv-x="780" unicode="“"/><glyph d="M406 1014q88 55 136 111t70 139q-4 -2 -18 -2q-36 0 -57.5 22.5t-12.5 61.5q12 42 43 66t70 24q46 0 62.5 -40t-3.5 -114q-58 -214 -280 -334zM731 1022q88 56 136.5 111.5t70.5 138.5q-4 -2 -18 -2q-36 0 -57.5 22.5t-12.5 61.5q12 42 43 66t70 24q46 0 62.5 -40 t-3.5 -114q-58 -214 -281 -334z" horiz-adv-x="780" unicode="”"/><glyph d="M406 -211q88 55 136 111t70 139q-4 -2 -18 -2q-36 0 -57.5 22.5t-12.5 61.5q12 42 43 66t70 24q46 0 62.5 -40.5t-3.5 -113.5q-57 -213 -280 -333zM731 -203q88 56 136.5 111.5t70.5 138.5q-4 -2 -18 -2q-36 0 -57.5 22.5t-12.5 61.5q12 42 43 66t70 24q46 0 62.5 -39.5 t-3.5 -113.5q-58 -214 -281 -334z" horiz-adv-x="780" unicode="„"/><glyph d="M229 543q27 102 107.5 166.5t167.5 64.5t132 -65.5t17 -167.5t-109 -167t-167 -65l4 2q-87 0 -133 65t-19 167z" horiz-adv-x="589" unicode="•"/><glyph d="M229 78q13 48 50 77t77 29t60.5 -29t7.5 -77q-12 -44 -47.5 -72.5t-75.5 -30.5q-40 2 -61 30.5t-11 72.5zM299 -25h2h-2zM924 78q13 48 50 77t77 29t60 -29t7 -77q-12 -44 -47.5 -72.5t-75.5 -30.5q-39 2 -60 30t-11 73zM993 -25h2h-2zM1618 78q13 48 50 77t77 29t60 -29 t7 -77q-12 -44 -47 -72.5t-75 -30.5q-40 2 -61 30.5t-11 72.5zM1688 -25h2h-2z" horiz-adv-x="1916" unicode="…"/><glyph horiz-adv-x="359"/><glyph d="M221 471l25 92l366 326l43 -49l-333 -324l157 -328l-69 -45z" horiz-adv-x="538" unicode="‹"/><glyph d="M164 190l336 328l-164 324l70 49l194 -328l-25 -92l-368 -328z" horiz-adv-x="538" unicode="›"/><glyph horiz-adv-x="449"/><glyph d="M197 504l18 69l127 9q7 42 18 80q3 14 10.5 37.5t10.5 33.5h-121l21 72l129 8q97 246 263.5 386t364.5 140q87 0 152 -44.5t98 -114.5l-92 -70q-66 131 -190 131q-150 0 -274.5 -113t-205.5 -315h561l-20 -80h-569q-3 -10 -10.5 -33.5t-10.5 -37.5q-12 -41 -18 -80h483 l-20 -78h-478q-30 -202 28.5 -316t197.5 -114q80 0 152.5 38.5t152.5 118.5l55 -63q-96 -95 -192 -144t-205 -49l14 7q-182 0 -266.5 139t-52.5 383h-131z" unicode="€"/><glyph d="M358 1300l21 84h520l-22 -84h-215l-148 -546h-92l151 546h-215zM838 754l178 635h119l34 -252l17 -170h8l106 170l168 252h119l-170 -631h-88l84 313l66 205h-9l-276 -422h-80l-51 422h-8l-43 -207l-86 -315h-88z" horiz-adv-x="1267" unicode="™"/><glyph d="M0 0v993h993v-993h-993z" unicode="◼"/><glyph d="M201 0l243 895h-133l27 90l133 8l55 199q38 148 125 226.5t213 78.5q72 0 140 -35l-54 -92q-53 27 -110 27q-149 0 -207 -213l-51 -191h229l-27 -98h-229l-240 -895h-114zM786 8l265 987h114l-264 -987h-115zM1108 1315q10 40 43 64t72 24t59 -25t8 -65 q-10 -39 -45 -64.5t-74 -25.5l9 4q-39 0 -60 25t-12 63z" horiz-adv-x="1073" unicode="ﬁ"/><glyph d="M201 0l243 895h-133l27 90l133 8l55 199q38 148 125 226.5t213 78.5q72 0 140 -35l-54 -92q-53 27 -110 27q-149 0 -207 -213l-51 -191h229l-27 -98h-229l-240 -895h-114zM799 164l352 1315h115l-357 -1327q-17 -68 25 -68q17 0 37 4l-8 -90q-40 -14 -80 -14l8 4 q-138 0 -92 176z" horiz-adv-x="1054" unicode="ﬂ"/><glyph d="M201 0l243 901h-127l27 90l127 8l43 160q41 153 136 235.5t229 82.5q89 0 159 -39l-51 -90q-60 28 -133 28q-83 0 -142 -59.5t-89 -169.5l-39 -148h452l54 199q38 148 124.5 226.5t212.5 78.5q72 0 140 -35l-54 -92q-52 27 -110 27q-149 0 -207 -213l-51 -191h229 l-26 -98h-230l-239 -895h-115l244 895h-451l-242 -901h-114zM1315 14l264 987h115l-264 -987h-115zM1636 1321q10 40 43 64t72 24t59.5 -25t8.5 -65q-10 -39 -45 -64.5t-74 -25.5l8 4q-39 0 -60 25t-12 63z" horiz-adv-x="1595" unicode="ﬃ"/><glyph d="M201 0l243 901h-127l27 90l127 8l43 160q41 153 136 235.5t229 82.5q89 0 159 -39l-51 -90q-60 28 -133 28q-83 0 -142 -59.5t-89 -169.5l-39 -148h452l54 199q38 148 124.5 226.5t212.5 78.5q72 0 140 -35l-54 -92q-52 27 -110 27q-149 0 -207 -213l-51 -191h229 l-26 -98h-230l-239 -895h-115l244 895h-451l-242 -901h-114zM1362 170l352 1315h115l-356 -1327q-17 -68 24 -68q17 0 37 4l-8 -90q-40 -14 -80 -14l8 4q-138 0 -92 176z" horiz-adv-x="1611" unicode="ﬄ"/></font>
</defs>
</svg>
