<svg xmlns="http://www.w3.org/2000/svg" xmlns:xlink="http://www.w3.org/1999/xlink" version="1.1"><metadata/><defs><font id="madaextralight_italic" horiz-adv-x="966"><font-face ascent="1638" descent="-410" units-per-em="2048"/><glyph horiz-adv-x="0"/><glyph horiz-adv-x="682"/><glyph horiz-adv-x="409"/><glyph horiz-adv-x="409"/><glyph horiz-adv-x="409"/><glyph d="M195 53q10 38 38 60t58 22t45.5 -22t5.5 -60q-9 -35 -36.5 -56.5t-57.5 -21.5q-29 0 -45.5 21.5t-7.5 56.5zM324 352l231 893l35 127h65l-34 -127l-248 -893h-49z" horiz-adv-x="507" unicode="!"/><glyph d="M455 1012l65 286l33 123h78l-33 -123l-90 -286h-53zM717 1012l65 286l33 123h78l-33 -123l-90 -286h-53z" horiz-adv-x="688" unicode="&quot;"/><glyph d="M193 0l172 446h-172l16 58h180l143 364h-184l14 58h189l162 405h57l-162 -405h320l162 405h57l-162 -405h168l-14 -58h-172l-144 -364h176l-16 -58h-184l-172 -446h-58l172 446h-319l-172 -446h-57zM446 504h320l143 364h-319z" unicode="#"/><glyph d="M164 135l49 45q111 -147 295 -147q132 0 225.5 73t124.5 193q9 35 11.5 67.5t1.5 57.5t-12 50t-19 42t-29 37.5t-33 31.5t-39.5 29.5t-40 26t-43.5 25.5q-36 21 -55 32.5t-50 33.5t-46 39.5t-33 45.5t-23.5 57t-4.5 67.5t12 82.5q35 126 139 212t231 97l54 203h61 l-53 -201q90 -5 143 -41.5t96 -101.5l-51 -41q-33 45 -58.5 69t-70.5 41t-108 17q-109 0 -198.5 -72t-117.5 -178q-8 -29 -9.5 -56t-1 -47.5t11.5 -42.5t17.5 -35.5t26.5 -32t29.5 -27t37 -26t37 -23t40.5 -23.5q34 -19 52 -29.5t48.5 -30.5t46.5 -37t37 -42t29.5 -51.5 t15 -60t2.5 -74t-16 -87.5q-39 -142 -152.5 -230.5t-251.5 -97.5l-53 -200h-61l53 202q-182 13 -297 158z" unicode="$"/><glyph d="M184.5 638q-44.5 110 10.5 316q54 201 158 311.5t237 110.5t178 -110t-8 -312q-55 -204 -160 -315t-238 -111t-177.5 110zM242 680.5q33 -98.5 135 -98.5t188 99t133 273q45 175 12 272t-135 97t-188 -98t-131 -271q-47 -175 -14 -273.5zM395 -25l1133 1401h65 l-1132 -1401h-66zM1082.5 85.5q-44.5 110.5 9.5 315.5q54 201 158 311.5t237 110.5t178 -109.5t-8 -312.5q-55 -204 -159.5 -315t-237.5 -111t-177.5 110.5zM1139 127.5q33 -98.5 135 -98.5t188 99t133 273q45 175 12.5 272t-134.5 97t-188.5 -98t-131.5 -271 q-47 -175 -14 -273.5z" horiz-adv-x="1634" unicode="%"/><glyph d="M168 340q17 62 54 119t95 108t109.5 88t128.5 86q-41 191 0 340q35 129 132 212t214 83q101 0 140 -66t10 -171q-13 -48 -44 -95t-65 -82.5t-90.5 -78t-97.5 -70t-108 -70.5q-4 -3 -6.5 -4.5t-6 -3.5t-6.5 -4q33 -133 100.5 -262.5t153.5 -232.5q196 184 348 464h61 q-174 -308 -375 -501q107 -116 220 -166l-39 -58q-118 49 -234 177q-213 -177 -409 -177q-159 0 -243.5 100.5t-41.5 264.5zM236 344q-37 -137 32.5 -224t202.5 -87q165 0 358 157q-191 236 -262 504q-138 -90 -221 -170.5t-110 -179.5zM616 778q64 40 101.5 64.5t89.5 63.5 t83 71t58.5 73.5t38.5 84.5q11 47 10 88t-30.5 68.5t-83.5 27.5q-92 0 -165 -67.5t-100 -166.5q-37 -144 -2 -307z" horiz-adv-x="1150" unicode="&amp;"/><glyph d="M455 1012l65 286l33 123h78l-33 -123l-90 -286h-53z" horiz-adv-x="425" unicode="'"/><glyph d="M336 569q135 497 520 926l29 -25q-174 -194 -300 -425t-192 -476q-134 -513 10 -901l-45 -24q-152 437 -22 925z" horiz-adv-x="552" unicode="("/><glyph d="M-27 -332q174 194 300 425t190 476q67 245 65 477t-73 424l45 25q153 -439 20 -926q-132 -494 -518 -925z" horiz-adv-x="552" unicode=")"/><glyph d="M489 1257l29 50l174 -54l68 205h53l-41 -201l201 50l4 -50l-201 -69l64 -176l-54 -33l-81 168l-177 -168l-36 33l157 176z" horiz-adv-x="790" unicode="*"/><glyph d="M244 647l14 58h381l113 417h65l-112 -417h380l-14 -58h-381l-112 -418h-66l113 418h-381z" unicode="+"/><glyph d="M29 -258q78 39 134.5 102t78.5 146q-8 -2 -25 -2q-32 0 -47 18.5t-6 54.5q8 35 36 54.5t58 19.5q40 0 55 -34.5t0 -92.5q-26 -99 -100 -180.5t-172 -134.5z" horiz-adv-x="425" unicode=","/><glyph d="M211 479l16 62h443l-17 -62h-442z" horiz-adv-x="602" unicode="-"/><glyph d="M154 53q10 38 38 60t58 22t45.5 -22t5.5 -60q-9 -35 -36.5 -56.5t-57.5 -21.5q-29 0 -45.5 21.5t-7.5 56.5z" horiz-adv-x="425" unicode="."/><glyph d="M-72 -328l1133 1782h61l-1132 -1782h-62z" horiz-adv-x="737" unicode="/"/><glyph d="M242 154.5q-51 179.5 37 504.5q88 326 233.5 501t329.5 175t235 -175.5t-37 -500.5q-88 -327 -234 -505.5t-329 -178.5q-184 0 -235 179.5zM304.5 193.5q40.5 -160.5 187.5 -160.5t274.5 163t208.5 463q79 305 38 462t-188 157t-274 -159.5t-207 -459.5 q-80 -305 -39.5 -465.5z" unicode="0"/><glyph d="M176 0l17 57h311l301 1131h-234l13 45q152 23 262 78h53l-334 -1254h291l-16 -57h-664z" unicode="1"/><glyph d="M86 0l10 41q236 190 375.5 308.5t262.5 238.5t185 210.5t85 176.5q36 134 -17.5 218.5t-202.5 84.5q-170 0 -362 -176l-33 41q219 192 416 192q169 0 238 -97.5t26 -262.5q-18 -65 -53.5 -130t-96 -137.5t-124.5 -138t-167.5 -155.5t-193.5 -165.5t-231 -191.5 q-7 -5 -10 -8q152 8 225 8h471l-17 -57h-786z" unicode="2"/><glyph d="M104 160l54 45q24 -37 49 -64t63 -53.5t92 -40.5t121 -14q139 0 252.5 85t149.5 222q40 148 -53 233.5t-332 85.5l16 62q220 0 343.5 82.5t158.5 216.5q32 117 -25.5 187.5t-183.5 70.5q-88 0 -178.5 -41t-167.5 -107l-29 46q202 159 391 159q149 0 224 -83.5t36 -227.5 q-33 -125 -125 -207.5t-217 -120.5l-2 -8q124 -26 186 -117.5t25 -226.5q-44 -166 -181 -267.5t-306 -101.5q-75 0 -135 16t-103 45.5t-70 57.5t-53 66z" unicode="3"/><glyph d="M141 401l9 33l860 877h41l-228 -852h201l-14 -58h-203l-107 -401h-61l109 401h-607zM242 459h520l139 516q24 96 66 217h-9q-24 -27 -73 -77.5t-74 -78.5z" unicode="4"/><glyph d="M94 152l53 45q24 -35 48.5 -61t62.5 -51t92 -38.5t121 -13.5q90 0 180 46.5t160.5 133t99.5 193.5q44 165 -20.5 260.5t-218.5 95.5q-71 0 -134 -22.5t-141 -67.5l-45 33l211 606h586l-14 -58h-529l-180 -503q139 73 266 73q176 0 258.5 -104t28.5 -309 q-28 -101 -85.5 -185t-129.5 -137.5t-152.5 -83t-158.5 -29.5q-74 0 -134.5 15t-102.5 43.5t-69 55.5t-53 63z" unicode="5"/><glyph d="M257.5 136.5q-67.5 161.5 10.5 453.5q44 162 104 290.5t126.5 212.5t143 139.5t150.5 79t152 23.5q152 0 230 -123l-54 -45q-62 111 -196 111q-84 0 -164 -36t-158 -113t-147 -211.5t-119 -317.5q206 186 391 186q172 0 238 -104.5t14 -300.5q-47 -172 -180.5 -289 t-276.5 -117q-197 0 -264.5 161.5zM293.5 325.5q1.5 -89.5 26 -154.5t80.5 -101.5t141 -36.5q119 0 226 101t146 247q22 74 20 137.5t-23.5 110.5t-73 73.5t-129.5 26.5q-79 0 -181 -50.5t-209 -156.5q-25 -107 -23.5 -196.5z" unicode="6"/><glyph d="M393 0q124 403 291.5 687t445.5 566h-704l14 58h791l-8 -37q-211 -207 -354.5 -408t-232.5 -397.5t-173 -468.5h-70z" unicode="7"/><glyph d="M172 336q34 123 138.5 220.5t228.5 156.5l2 8q-156 122 -109 299q38 136 158 225.5t260 89.5q161 0 228 -95.5t28 -244.5q-18 -68 -70.5 -139.5t-104 -118t-104.5 -82.5l-2 -8q27 -21 46 -37.5t41.5 -40.5t35 -49t22 -56t8 -68.5t-12.5 -80.5q-37 -144 -172.5 -242 t-307.5 -98q-178 0 -266 103t-47 258zM238 336q-34 -128 39.5 -215.5t222.5 -87.5q145 0 256.5 81t142.5 201q8 31 10 58.5t-3.5 51.5t-12.5 44.5t-24 40t-31 34.5t-40 31.5t-44 27t-50 26t-51.5 24t-54.5 23.5q-3 1 -9 4t-9 4q-287 -143 -342 -348zM489.5 958.5 q-0.5 -29.5 4 -53t18 -46.5t27 -40t37.5 -35.5t42 -30.5t49 -28t50 -25t53 -24q225 146 270 319q32 119 -22 201t-184 82q-116 0 -210.5 -73.5t-125.5 -184.5q-8 -32 -8.5 -61.5z" unicode="8"/><glyph d="M145 98l54 45q58 -110 194 -110q84 0 164 36t158 113t147 211.5t119 317.5q-204 -187 -389 -187q-173 0 -239.5 105.5t-12.5 300.5q45 172 179.5 288.5t277.5 116.5q197 0 263.5 -161t-11.5 -453q-44 -162 -104 -291t-126 -213t-142 -139.5t-150 -79t-152 -23.5 q-159 0 -230 123zM386 792q0 -62 22 -109.5t73 -74t129 -26.5q79 0 180.5 50t208.5 156q23 109 23 197t-24.5 154.5t-80.5 102.5t-141 36q-119 0 -225 -101t-145 -247q-20 -76 -20 -138z" unicode="9"/><glyph d="M154 53q10 38 38 60t58 22t45.5 -22t5.5 -60q-9 -35 -36.5 -56.5t-57.5 -21.5q-29 0 -45.5 21.5t-7.5 56.5zM154 852q10 38 38 60t58 22t45.5 -22t5.5 -60q-9 -35 -36.5 -56.5t-57.5 -21.5q-29 0 -45.5 21.5t-7.5 56.5z" horiz-adv-x="425" unicode=":"/><glyph d="M29 -258q78 39 134.5 102t78.5 146q-8 -2 -25 -2q-32 0 -47 18.5t-6 54.5q8 35 36 54.5t58 19.5q40 0 55 -34.5t0 -92.5q-26 -99 -100 -180.5t-172 -134.5zM154 852q10 38 38 60t58 22t45.5 -22t5.5 -60q-9 -35 -36.5 -56.5t-57.5 -21.5q-29 0 -45.5 21.5t-7.5 56.5z" horiz-adv-x="425" unicode=";"/><glyph d="M242 643l20 74l916 332l-17 -66l-545 -192l-299 -107l-2 -8l242 -107l440 -192l-16 -66z" unicode="&lt;"/><glyph d="M244 442l14 58h827l-14 -58h-827zM244 852l14 57h827l-14 -57h-827z" unicode="="/><glyph d="M154 311l16 66l543 192l299 107l2 8l-242 107l-438 192l16 66l740 -332l-21 -74z" unicode="&gt;"/><glyph d="M313 53q10 38 38.5 60t58.5 22t45.5 -22t5.5 -60q-9 -35 -36.5 -56.5t-57.5 -21.5q-29 0 -46 21.5t-8 56.5zM406 1241q185 156 362 156q143 0 201.5 -88t23.5 -219q-18 -66 -61 -130.5t-94 -115t-109.5 -109t-107.5 -112t-86 -124.5t-48 -147h-57q10 71 39 136t68.5 116 t85.5 98.5t93 92.5t88.5 88.5t74.5 96t47 105.5q29 107 -14 180.5t-164 73.5q-77 0 -159.5 -35.5t-150.5 -99.5z" horiz-adv-x="806" unicode="?"/><glyph d="M203.5 34.5q-43.5 156.5 13.5 379.5q51 193 161 358.5t250 276.5t301.5 174t319.5 63q290 0 414 -174.5t47 -464.5q-33 -123 -94.5 -226.5t-132 -167.5t-143.5 -99t-136 -35q-83 0 -124.5 39t-26.5 116h-4q-172 -143 -289 -143q-98 0 -144.5 71.5t-11.5 203.5 q20 74 66.5 152.5t111 146.5t150 111.5t172.5 43.5q108 0 145 -98h4l37 82h53l-169 -377q-151 -291 49 -291q50 0 110.5 31.5t120 89t112 148.5t81.5 198q72 269 -41 427.5t-375 158.5q-113 0 -231 -36.5t-229 -108t-207 -168t-170.5 -225.5t-112.5 -273q-79 -297 41.5 -474 t400.5 -177q185 0 377 102l14 -49q-199 -111 -409 -111q-197 0 -327.5 84.5t-174 241zM668 410q-32 -116 1.5 -169t110.5 -53q108 0 271 144l163 364q-23 61 -52 84t-79 23q-92 0 -181.5 -61.5t-149.5 -150t-84 -181.5z" horiz-adv-x="1642" unicode="@"/><glyph d="M20 0l846 1352h58l120 -1352h-69l-39 483h-549l-301 -483h-66zM422 541h510l-23 270q-25 340 -28 471h-9q-98 -175 -282 -471z" horiz-adv-x="1064" unicode="A"/><glyph d="M205 0l362 1352h353q207 0 300 -83q64 -57 64 -150q0 -43 -14 -95q-30 -109 -105.5 -187t-187.5 -108l-2 -8q134 -22 191 -106q35 -51 34 -122q0 -46 -14 -100q-50 -190 -210 -291.5t-394 -101.5h-377zM287 57h286q219 0 360.5 82.5t186.5 249.5q12 45 12 83 q0 91 -69 144q-98 76 -320 76h-286zM471 750h246q413 0 485 270q13 48 13 87q1 81 -55 123q-82 64 -286 64h-258z" horiz-adv-x="1175" unicode="B"/><glyph d="M297 680q86 319 291.5 507.5t464.5 188.5q109 0 185.5 -45t115.5 -114l-54 -46q-82 144 -264 144q-232 0 -411.5 -171t-257.5 -464q-37 -140 -37 -253q0 -124 44 -215q86 -175 312 -175q105 0 200 42t197 130l31 -41q-108 -95 -215 -144t-233 -49q-250 -1 -352 193 q-56 105 -56 248q0 119 39 264z" horiz-adv-x="1150" unicode="C"/><glyph d="M205 0l362 1352h303q123 0 214.5 -31.5t147.5 -89.5q55 -57 80 -141q21 -71 21 -155q0 -15 -1 -31q-4 -102 -36 -224q-85 -314 -285.5 -497t-502.5 -183h-303zM287 57h229q141 0 259.5 46.5t205 132t148 196.5t98.5 248q35 122 35 225v21q-4 112 -45 194t-135.5 128 t-235.5 46h-230z" horiz-adv-x="1228" unicode="D"/><glyph d="M205 0l362 1352h725l-16 -58h-660l-145 -544h553l-14 -58h-553l-170 -635h680l-17 -57h-745z" horiz-adv-x="1044" unicode="E"/><glyph d="M205 0l362 1352h721l-16 -58h-656l-151 -569h553l-17 -57h-552l-179 -668h-65z" horiz-adv-x="962" unicode="F"/><glyph d="M297 680q86 319 297 507.5t479 188.5q213 0 318 -159l-54 -46q-90 144 -280 144q-242 0 -427 -171t-263 -464q-37 -139 -37 -251q0 -126 46 -217q88 -175 322 -175q99 0 193.5 29t159.5 81l120 447h-335l14 57h401l-139 -524q-83 -70 -194.5 -111t-239.5 -41 q-258 0 -362 193q-58 106 -58 250q0 118 39 262z" horiz-adv-x="1228" unicode="G"/><glyph d="M205 0l362 1352h66l-162 -602h758l162 602h65l-362 -1352h-66l186 692h-757l-187 -692h-65z" horiz-adv-x="1298" unicode="H"/><glyph d="M205 0l362 1352h66l-363 -1352h-65z" horiz-adv-x="475" unicode="I"/><glyph d="M135 168l62 33q29 -88 82.5 -126t144.5 -38q129 0 212.5 80t129.5 248l264 987h66l-267 -996q-22 -83 -57.5 -150t-87 -120t-123 -82t-158.5 -29q-106 0 -174.5 50t-93.5 143z" horiz-adv-x="933" unicode="J"/><glyph d="M205 0l362 1352h66l-209 -779h4l897 779h82l-567 -496l262 -856h-78l-246 807l-379 -328l-129 -479h-65z" horiz-adv-x="1126" unicode="K"/><glyph d="M205 0l362 1352h66l-346 -1295h635l-17 -57h-700z" horiz-adv-x="942" unicode="L"/><glyph d="M205 0l362 1352h107l71 -820q4 -51 13.5 -153.5t13.5 -153.5h8q33 51 95.5 153.5t95.5 153.5l510 820h106l-362 -1352h-66l252 942q31 112 102 352h-8l-184 -299l-530 -843h-70l-82 843l-27 299h-8q-48 -213 -86 -352l-252 -942h-61z" horiz-adv-x="1429" unicode="M"/><glyph d="M205 0l362 1352h70l332 -992l84 -266h8q51 216 94 381l236 877h61l-362 -1352h-70l-332 991l-84 266h-8q-73 -299 -92 -368l-238 -889h-61z" horiz-adv-x="1294" unicode="N"/><glyph d="M268 308q-8 50 -8 107q0 119 37 265q57 209 170 368t259.5 243.5t305.5 84.5q244 0 346 -190q56 -104 55 -246q0 -117 -38 -260q-86 -317 -291.5 -511t-446.5 -194q-159 0 -261 88t-128 245zM367 680q-37 -140 -37 -253q0 -123 44 -214q84 -176 300 -176t394.5 176 t256.5 467q37 138 37 250q0 122 -44 212q-86 172 -302 172.5t-393.5 -172t-255.5 -462.5z" horiz-adv-x="1327" unicode="O"/><glyph d="M205 0l362 1352h324q239 0 338 -86q65 -57 65 -161q0 -55 -18 -122q-52 -191 -201 -288t-379 -97h-266l-160 -598h-65zM446 655h242q221 0 346 77.5t172 250.5q16 60 16 108q0 89 -56 134q-86 69 -316 69h-234z" horiz-adv-x="1110" unicode="P"/><glyph d="M297 680q57 209 170 368t259.5 243.5t305.5 84.5q243 0 346 -190q56 -105 56 -246q0 -117 -39 -260q-82 -306 -277 -497.5t-426 -205.5q17 -107 93.5 -165t205.5 -58q65 0 139 17v-62q-88 -20 -161 -20q-158 0 -248.5 79t-104.5 209q-221 17 -311 209q-47 100 -47 231 q0 119 39 263zM367 680q-38 -141 -38 -255q0 -122 44 -215q84 -177 299 -177q216 0 395.5 178t257.5 469q37 138 37 250q0 122 -44 212q-86 173 -302 173t-393.5 -172.5t-255.5 -462.5z" horiz-adv-x="1327" unicode="Q"/><glyph d="M205 0l362 1352h373q357 0 357 -234q0 -51 -17 -114q-42 -160 -163.5 -253t-297.5 -108l213 -643h-78l-211 639h-301l-172 -639h-65zM457 696h282q390 0 471 308q14 53 14 96q0 82 -52 126q-79 68 -273 68h-283z" horiz-adv-x="1093" unicode="R"/><glyph d="M147 180l56 45q52 -88 144 -138t212 -50q161 0 279.5 80.5t154.5 210.5q11 44 13 80v9q0 31 -10 55q-11 28 -25 49.5t-41.5 41.5t-49 32.5t-57.5 31.5l-184 94q-27 14 -45 24.5t-44 28.5t-43 36t-34 44t-23 54q-6 26 -7 60q1 4 1 6q0 38 11 79q38 143 170 233t297 90 q115 0 197 -44.5t128 -114.5l-53 -46q-89 144 -289 144q-141 0 -247 -70.5t-138 -187.5q-9 -35 -9 -66t6.5 -54t22.5 -45.5t29.5 -36t38 -29.5t38 -23.5t38.5 -20.5l184 -94q38 -20 64 -36t56 -39.5t46 -50.5q18 -26 30 -60q11 -30 11 -67q-1 -4 -1 -9q-2 -43 -15 -94 q-40 -155 -183.5 -256t-332.5 -101q-275 0 -396 205z" horiz-adv-x="1056" unicode="S"/><glyph d="M408 1294l16 58h942l-16 -58h-439l-346 -1294h-65l346 1294h-438z" horiz-adv-x="1064" unicode="T"/><glyph d="M303 292q0 93 33 212l227 848h66l-223 -832q-29 -110 -31 -194q0 -8 -1 -15q0 -75 19 -123q20 -54 59.5 -88.5t89 -48.5t111.5 -14q80 0 152 24t142 77t127 150t93 232l224 832h61l-227 -848q-33 -121 -84 -215t-109 -152t-127 -95.5t-134 -52t-134 -14.5t-126 14.5 t-106 52t-75 95.5q-27 59 -27 155z" horiz-adv-x="1290" unicode="U"/><glyph d="M375 1352h69l45 -811q16 -326 25 -457h8q87 142 271 457l479 811h65l-809 -1352h-65z" horiz-adv-x="987" unicode="V"/><glyph d="M377 0l47 1352h70l-39 -820q-12 -217 -21 -442h8q102 209 226 442l440 820h74l2 -820q-4 -146 -8 -442h8q28 57 100 208.5t113 233.5l399 820h66l-674 -1352h-66l-2 971q2 53 4 151.5t4 151.5h-8q-26 -53 -79 -151.5t-80 -151.5l-519 -971h-65z" horiz-adv-x="1564" unicode="W"/><glyph d="M37 0l598 700l-207 652h70l125 -418q24 -72 63 -180h8q71 89 150 180l350 418h66l-558 -656l224 -696h-70l-133 434q-2 5 -70 213h-8q-157 -189 -176 -213l-367 -434h-65z" horiz-adv-x="962" unicode="X"/><glyph d="M371 1352h69l101 -439q4 -18 27.5 -125t39.5 -165h8q18 22 58.5 71t62.5 76t54 68t57 75l334 439h65l-618 -795l-150 -557h-65l149 557z" horiz-adv-x="892" unicode="Y"/><glyph d="M106 0l11 37l1138 1257h-733l17 58h815l-11 -37l-1138 -1258h811l-17 -57h-893z" horiz-adv-x="1101" unicode="Z"/><glyph d="M121 -311l473 1761h311l-12 -45h-262l-449 -1671h262l-12 -45h-311z" horiz-adv-x="552" unicode="["/><glyph d="M393 1454h62l178 -1782h-62z" horiz-adv-x="737" unicode="\"/><glyph d="M-47 -311l12 45h262l449 1671h-262l12 45h311l-473 -1761h-311z" horiz-adv-x="552" unicode="]"/><glyph d="M299 598l516 774h74l98 -774h-65l-50 438l-34 271h-9l-178 -271l-286 -438h-66z" unicode="^"/><glyph d="M-39 -233l19 65h974l-18 -65h-975z" horiz-adv-x="1024" unicode="_"/><glyph d="M729 1483l59 41l187 -316l-45 -32z" horiz-adv-x="1089" unicode="`"/><glyph d="M186 240q44 162 219.5 247.5t524.5 122.5q15 52 22 97q5 30 5 60q1 15 -1 30q-4 45 -22 77t-57.5 52t-98.5 20q-167 0 -352 -119l-18 50q209 127 389 127q83 0 135 -30t71 -82q17 -48 18 -104q0 -6 -1 -12q-2 -64 -23 -141l-170 -635h-53l27 131h-4q-238 -156 -398 -156 q-123 1 -185 67q-40 43 -41 112q0 39 13 86zM254 242q-11 -40 -11 -73q0 -54 30 -85q48 -51 145 -51q87 0 182 41t219 127l96 356q-220 -24 -359 -66.5t-209 -102.5t-93 -146z" horiz-adv-x="995" unicode="a"/><glyph d="M197 0l395 1479h61l-116 -439l-58 -196q236 160 391 160q130 0 203.5 -62.5t84.5 -173.5q2 -24 2 -51q0 -94 -30 -213q-43 -161 -135.5 -283t-207 -184t-232.5 -62q-69 0 -139 33t-127 90h-4l-35 -98h-53zM303 168q62 -69 134 -102t136 -33q160 0 298 132.5t194 338.5 q26 97 29 175v18q0 67 -19 121q-22 61 -78.5 94.5t-144.5 33.5q-148 0 -387 -172z" horiz-adv-x="1101" unicode="b"/><glyph d="M242 487q64 237 228 377t347 140q92 0 150.5 -33.5t103.5 -89.5l-53 -45q-88 110 -215 110q-159 0 -301 -129.5t-195 -329.5q-25 -91 -25 -166q0 -93 38 -163q69 -126 237 -125q148 0 307 119l25 -46q-181 -131 -346 -131q-193 -1 -279 137q-49 79 -49 191q0 83 27 184z" horiz-adv-x="913" unicode="c"/><glyph d="M242 487q41 153 132.5 272.5t207.5 182t235 62.5q84 0 143.5 -29.5t126.5 -93.5l46 184l110 414h62l-396 -1479h-53l27 131h-4q-198 -156 -369 -156q-188 -1 -261 133q-38 70 -38 171q0 92 31 208zM307 158q58 -126 221 -125q157 0 375 172l162 606q-62 72 -125 103.5 t-141 31.5q-156 0 -298.5 -133.5t-193.5 -325.5q-29 -102 -29 -184t29 -145z" horiz-adv-x="1105" unicode="d"/><glyph d="M230 212q-12 47 -12 102q0 78 24 173q41 154 133.5 274t204 181.5t221.5 61.5q171 0 239 -118q36 -63 36 -155q0 -79 -27 -178q-5 -27 -21 -66h-721q-24 -86 -24 -159q0 -96 41 -168q72 -128 245 -127q146 0 295 90l15 -53q-59 -31 -93.5 -46.5t-100.5 -32t-134 -16.5 q-124 0 -208.5 61.5t-112.5 175.5zM322 545h663q27 98 27 172q0 76 -28 127q-55 102 -198 102q-137 0 -268.5 -109.5t-195.5 -291.5z" horiz-adv-x="978" unicode="e"/><glyph d="M205 0l248 922h-136l13 49l137 8l65 242q37 141 116 211.5t186 70.5q60 0 124 -33l-34 -53q-51 29 -111 29q-159 0 -221 -234l-64 -233h234l-14 -57h-234l-248 -922h-61z" horiz-adv-x="516" unicode="f"/><glyph d="M55 -205q17 64 74 128t139 114l2 8q-52 37 -52 103q0 25 7 53q29 105 156 180l2 8q-25 28 -41 67t-21 92q-1 13 -1 26q0 41 12 85q40 147 163 246t265 99q69 0 121 -25h327l-14 -57h-238q42 -45 56 -112q5 -26 5 -54q0 -45 -13 -97q-38 -147 -162.5 -247.5t-266.5 -100.5 q-98 0 -155 45q-50 -34 -82.5 -68.5t-44.5 -82.5q-6 -21 -6 -39q0 -35 23 -60q33 -36 139 -36h217q163 0 225 -54q41 -36 41 -99q0 -31 -10 -69q-34 -129 -187.5 -228t-351.5 -99q-186 0 -273 75q-64 54 -64 135q0 30 9 64zM123 -201q-7 -27 -7 -51q0 -65 54 -110 q73 -60 233 -60q167 0 295.5 81t157.5 185q7 27 7 49q0 47 -33 73q-48 38 -168 38h-226q-49 0 -114 16q-168 -95 -199 -221zM397 659q-12 -46 -12 -86q0 -70 37 -122q58 -82 168 -82q111 0 213 82t135 208q13 47 13 88q0 69 -36 119q-57 80 -170 80q-114 0 -214 -79.5 t-134 -207.5z" horiz-adv-x="983" unicode="g"/><glyph d="M197 0l395 1479h61l-116 -439l-60 -221q116 91 208 138t185 47q152 0 200 -91q24 -44 23 -112q0 -72 -26 -170l-170 -631h-61l165 623q26 92 26 158q1 51 -15 85q-36 80 -160 80q-88 0 -176 -46t-217 -150l-201 -750h-61z" horiz-adv-x="1069" unicode="h"/><glyph d="M197 0l262 979h61l-262 -979h-61zM508 1298q9 32 34 51t54 19t44.5 -19t6.5 -51q-7 -30 -33 -49.5t-55 -19.5q-28 0 -43 19.5t-8 49.5z" horiz-adv-x="454" unicode="i"/><glyph d="M-182 -455l28 54q60 -21 103 -21q79 0 121.5 56t72.5 165l316 1180h61l-317 -1188q-38 -140 -105.5 -205t-169.5 -65q-60 0 -110 24zM508 1298q9 32 34 51t54 19t44.5 -19t6.5 -51q-7 -30 -33 -49.5t-55 -19.5q-28 0 -43 19.5t-8 49.5z" horiz-adv-x="454" unicode="j"/><glyph d="M197 0l395 1479h61l-299 -1123h4l674 623h74l-418 -385l213 -594h-70l-194 545l-307 -275l-72 -270h-61z" horiz-adv-x="925" unicode="k"/><glyph d="M225 106l367 1373h61l-370 -1385q-4 -17 -4 -29q0 -32 28 -32q16 0 39 4l-2 -53q-40 -9 -55 -9q-73 0 -73 72q0 25 9 59z" horiz-adv-x="471" unicode="l"/><glyph d="M197 0l262 979h53l-33 -156h4q93 81 188 131t171 50q217 0 217 -205q237 205 389 205q218 0 217 -207q0 -71 -25 -166l-170 -631h-61l166 623q25 91 25 156q0 51 -16 87q-36 80 -154 80q-141 0 -365 -196l-201 -750h-61l166 623q25 91 25 155q0 52 -16 88q-36 80 -155 80 q-140 0 -364 -196l-201 -750h-61z" horiz-adv-x="1650" unicode="m"/><glyph d="M197 0l262 979h53l-33 -156h4q111 88 202.5 134.5t184.5 46.5q152 0 200 -91q24 -44 23 -112q0 -72 -26 -170l-170 -631h-61l165 623q26 92 26 158q1 51 -15 85q-36 80 -160 80q-88 0 -176 -46t-217 -150l-201 -750h-61z" horiz-adv-x="1077" unicode="n"/><glyph d="M228 210q-12 46 -12 100q0 80 26 177q43 159 135 278.5t205 179t231 59.5t200 -61t111 -176q12 -46 11 -101q0 -81 -25 -179q-64 -235 -226.5 -373.5t-344.5 -138.5q-118 0 -200 60.5t-111 174.5zM307 487q-24 -87 -24 -161q0 -95 40 -166q71 -127 230 -127 q158 0 297 126.5t194 327.5q23 87 23 161q1 96 -39 169q-70 129 -228.5 129t-298.5 -129t-194 -330z" horiz-adv-x="1089" unicode="o"/><glyph d="M76 -455l383 1434h53l-27 -127h4q236 152 381 152q130 0 203.5 -62.5t84.5 -173.5q2 -24 2 -51q0 -94 -30 -213q-43 -161 -135.5 -283t-207 -184t-232.5 -62q-134 0 -270 123l-148 -553h-61zM303 168q127 -135 270 -135q160 0 298 132.5t194 338.5q26 97 29 175v18 q0 67 -19 121q-22 61 -78.5 94.5t-144.5 33.5q-142 0 -387 -172z" horiz-adv-x="1105" unicode="p"/><glyph d="M242 487q41 153 132.5 272.5t207.5 182t235 62.5q83 0 141.5 -28t122.5 -87h4l33 90h53l-383 -1434h-61l102 389l60 201q-214 -160 -379 -160q-188 0 -261 133q-38 71 -38 171q0 92 31 208zM307 158q58 -125 221 -125q157 0 375 172l162 606q-62 72 -125 103.5t-141 31.5 q-156 0 -298.5 -133.5t-193.5 -325.5q-29 -101 -29 -183.5t29 -145.5z" horiz-adv-x="1105" unicode="q"/><glyph d="M197 0l262 979h53l-41 -184h4q172 209 334 209q52 0 90 -21l-33 -57q-39 16 -82 16q-74 0 -163.5 -63t-180.5 -199l-182 -680h-61z" horiz-adv-x="626" unicode="r"/><glyph d="M98 111l56 49q55 -61 119 -94t165 -33q118 0 200 60.5t107 148.5q4 26 6.5 46t-6 39.5t-16.5 34t-25 29t-31 24.5t-35.5 21t-38 18.5t-38.5 16.5l-4 2l-46.5 18t-44 19t-43.5 22t-37.5 23.5t-33.5 28t-24 32.5t-17 38.5t-3.5 44t7.5 51.5q29 107 130 180.5t245 73.5 q72 0 137.5 -27.5t106.5 -71.5l-49 -49q-47 44 -95 67t-118 23q-116 0 -192 -56.5t-97 -135.5q-6 -22 -6.5 -41t6.5 -35.5t14 -29.5t24 -26.5t29 -22t36 -20t37 -17.5t40 -17q24 -10 33 -15q33 -13 49.5 -20.5t45.5 -21t43.5 -25t35 -28.5t29 -35t16.5 -41.5t6.5 -51.5 t-10.5 -61q-31 -113 -137.5 -192t-253.5 -79q-197 0 -322 136z" horiz-adv-x="819" unicode="s"/><glyph d="M266 113q0 62 21 145l178 664h-156l13 49l157 8l86 287h53l-77 -287h290l-14 -57h-291l-180 -672q-16 -64 -18 -112q0 -3 -1 -6q0 -45 31 -71q32 -28 101 -28q48 0 137 33l6 -54q-117 -37 -162 -37q-87 0 -130 36q-44 36 -44 102z" horiz-adv-x="618" unicode="t"/><glyph d="M270 66q-23 44 -23 111q0 72 27 171l168 631h62l-166 -623q-26 -92 -26 -158q0 -51 16 -85q36 -80 159 -80q90 0 179.5 49.5t214.5 163.5l196 733h62l-262 -979h-54l37 168h-4q-106 -94 -199 -143.5t-188 -49.5q-151 -1 -199 91z" horiz-adv-x="1073" unicode="u"/><glyph d="M287 979h69l64 -635q9 -107 29 -278h8q143 224 176 278l403 635h66l-631 -979h-74z" horiz-adv-x="864" unicode="v"/><glyph d="M311 979h70l12 -660v-90v-168h8q23 41 71 126t73 132l364 660h86l13 -660q0 -86 4 -258h8q22 41 69.5 126t73.5 132l361 660h65l-549 -979h-86l-12 639q-2 47 -2 139.5t-2 139.5h-8q-83 -160 -158 -283l-350 -635h-78z" horiz-adv-x="1376" unicode="w"/><glyph d="M29 0l473 512l-183 467h70l98 -262q20 -58 64 -160h8q26 26 75.5 79.5t74.5 80.5l233 262h66l-435 -471l201 -508h-69l-109 283q-26 81 -70 180h-8q-25 -25 -53 -55t-62 -67t-53 -58l-256 -283h-65z" horiz-adv-x="802" unicode="x"/><glyph d="M-76 -434l33 57q36 -16 78 -16q169 0 336 278l53 90l-137 1004h69l78 -643q23 -190 37 -275h8q31 48 90 146t78 129l393 643h66l-692 -1118q-37 -62 -78 -114.5t-92 -100t-110.5 -74.5t-119.5 -27q-50 0 -90 21z" horiz-adv-x="868" unicode="y"/><glyph d="M53 0l8 33l842 889h-536l14 57h618l-8 -33l-839 -889h622l-16 -57h-705z" horiz-adv-x="811" unicode="z"/><glyph d="M199 -180q2 50 20 127q20 74 66 215.5t65 214.5q49 168 -131 168l14 49q174 0 220 164q19 71 49 213.5t51 220.5q40 147 107.5 202.5t183.5 55.5h61l-12 -45h-66q-94 0 -143 -52.5t-80 -168.5q-18 -67 -46.5 -196t-49.5 -206q-25 -91 -59.5 -141t-94.5 -68l-2 -8 q51 -18 59.5 -72.5t-16.5 -136.5q-21 -80 -62.5 -208.5t-58.5 -192.5q-33 -110 -11 -165.5t116 -55.5h65l-12 -45h-61q-58 0 -93.5 11.5t-58 40.5t-20.5 79z" horiz-adv-x="552" unicode="{"/><glyph d="M59 -512l549 2048h58l-549 -2048h-58z" horiz-adv-x="450" unicode="|"/><glyph d="M-47 -311l12 45h66q94 0 143 52.5t80 168.5q18 67 46.5 195.5t49.5 205.5q23 89 58.5 140t95.5 69l2 8q-52 18 -60.5 71t17.5 138q21 80 62.5 209.5t58.5 192.5q33 110 11 165.5t-116 55.5h-65l12 45h61q58 0 93.5 -11.5t58 -40.5t20.5 -79t-20 -127 q-20 -75 -66.5 -217.5t-66.5 -216.5q-46 -164 133 -164l-14 -49q-173 0 -222 -168q-17 -66 -46.5 -208t-51.5 -222q-40 -147 -107.5 -202.5t-183.5 -55.5h-61z" horiz-adv-x="552" unicode="}"/><glyph d="M256 635q61 81 129 122.5t129 41.5q43 0 81 -19.5t66 -47.5t54.5 -55.5t57 -47t63.5 -19.5q96 0 198 131l37 -28q-60 -77 -128 -118.5t-128 -41.5q-43 0 -81 19.5t-66 47t-54 55t-56.5 47t-63.5 19.5q-97 0 -199 -131z" unicode="~"/><glyph d="M117 -393l33 127l247 893h49l-231 -893l-33 -127h-65zM428 926q10 35 37.5 56.5t56.5 21.5q30 0 46.5 -21.5t6.5 -56.5q-10 -38 -38 -60t-58 -22t-45.5 22t-5.5 60z" horiz-adv-x="507" unicode="¡"/><glyph d="M299 639q36 136 117.5 239.5t183 158.5t213.5 67l61 231h58l-62 -229q87 -1 143.5 -34.5t102.5 -88.5l-49 -41q-83 104 -213 107l-219 -820q142 3 297 115l26 -41q-178 -128 -337 -131l-62 -225h-57l61 227q-169 15 -244 138t-20 327zM365 639q-47 -169 11.5 -280 t201.5 -128l219 816q-146 -19 -267.5 -130.5t-164.5 -277.5z" unicode="¢"/><glyph d="M119 0l10 37q129 64 211 172.5t115 236.5q19 73 22 160h-205l15 53l137 5h53v63q-8 170 19 268q43 157 157.5 248.5t270.5 91.5q176 0 247 -143l-55 -41q-71 127 -213 127q-127 0 -217.5 -79.5t-122.5 -199.5q-24 -91 -20 -251q2 -27 2 -84h342l-17 -58h-327 q-7 -90 -27 -160q-34 -129 -96 -217t-160 -163l-2 -9h614l-16 -57h-737z" unicode="£"/><glyph d="M143 287l172 139q-52 104 -12 246q40 149 146 252l-99 141l53 45l99 -141q126 96 266 96t217 -96l172 141l29 -45l-174 -141q51 -108 12 -252q-38 -136 -143 -246l98 -139l-53 -45l-99 139q-124 -98 -268 -98q-141 0 -217 98l-170 -139zM369 672q-39 -145 21.5 -238.5 t182.5 -93.5q123 0 234.5 93.5t150.5 238.5t-21.5 240.5t-182.5 95.5t-234 -95.5t-151 -240.5z" unicode="¤"/><glyph d="M199 344l16 57h344l39 152h-344l16 57h320l-174 701h69l95 -414q32 -126 63 -283h8q43 53 114 147t105 136l316 414h65l-551 -701h324l-16 -57h-349l-38 -152h348l-17 -57h-348l-92 -344h-61l92 344h-344z" unicode="¥"/><glyph d="M59 -512l258 967h58l-258 -967h-58zM346 561l262 975h58l-263 -975h-57z" horiz-adv-x="450" unicode="¦"/><glyph d="M162 25l57 45q44 -55 99 -83t147 -28q95 0 170 54t96 130q7 26 7.5 48.5t-6.5 42t-15.5 35t-26.5 31.5t-32.5 27t-39.5 24.5t-42 22t-46 21.5q-116 59 -159 95q-108 91 -70 239q26 93 91.5 156t164.5 112q-50 66 -25 166q25 90 112.5 160t215.5 70q146 0 246 -107 l-49 -45q-45 46 -91.5 70t-119.5 24q-103 0 -168 -50t-82 -118q-7 -24 -8 -45.5t6 -40t15 -33.5t25 -30.5t31 -26t38 -24t40.5 -22t44.5 -21.5q31 -15 45.5 -22.5t43.5 -23.5t43 -26.5t36 -29.5t32.5 -35t22.5 -39.5t14.5 -47.5t1 -54.5t-10.5 -63.5q-26 -97 -87.5 -157 t-160.5 -106q51 -71 25 -172q-27 -104 -130 -174.5t-214 -70.5q-183 0 -287 123zM356 678q-1 -26 6.5 -48t16 -40t28 -35.5t34 -29.5t42.5 -27t44.5 -23.5t47.5 -23.5q112 -55 154 -91q97 40 149.5 87t75.5 131q7 27 8 52t-1.5 44.5t-13.5 39t-20 33.5t-29 30t-33 25.5 t-39.5 24.5t-40 22t-42.5 21q-114 58 -149 88q-97 -46 -152 -96t-77 -129q-8 -29 -9 -55z" unicode="§"/><glyph d="M651 1298q8 28 31 47t51 19t42 -19t7 -47t-31.5 -46.5t-52.5 -18.5t-41.5 18.5t-5.5 46.5zM1004 1298q8 28 31 47t50 19q28 0 42.5 -19t7.5 -47t-31.5 -46.5t-52.5 -18.5t-41.5 18.5t-5.5 46.5z" horiz-adv-x="1089" unicode="¨"/><glyph d="M277 298q-46 152 6 361q41 150 127.5 278t198.5 214.5t243.5 135t263.5 48.5q177 0 303 -84t172 -234.5t-6 -357.5q-54 -201 -185.5 -359t-301.5 -241.5t-346 -83.5q-177 0 -303 85.5t-172 237.5zM339 328q42 -140 155.5 -219.5t271.5 -79.5q118 0 237.5 46t222 127 t182 200t116.5 257q47 189 5 327.5t-155.5 217t-271.5 78.5q-118 0 -237.5 -45.5t-222 -125.5t-182 -198t-116.5 -254q-47 -191 -5 -331zM590 659q46 172 181 276.5t286 104.5q75 0 124 -28t89 -82l-49 -45q-39 48 -81 71t-104 23q-127 0 -233 -88.5t-144 -231.5 q-42 -159 11.5 -251.5t183.5 -92.5q125 0 274 107l21 -45q-83 -61 -153 -92t-162 -31q-148 0 -220.5 109t-23.5 296z" horiz-adv-x="1515" unicode="©"/><glyph d="M360 1008q29 106 145.5 162.5t344.5 78.5q14 57 16 101.5t-24.5 72t-83.5 27.5q-59 0 -129 -24.5t-117 -53.5l-14 45q154 86 278 86q75 0 112.5 -32t38 -87.5t-17.5 -130.5l-110 -413h-45l10 82h-8q-145 -99 -248 -99q-89 0 -130.5 49t-17.5 136zM422 1012 q-18 -68 12.5 -101.5t100.5 -33.5q105 0 245 106l60 221q-202 -21 -299.5 -68t-118.5 -124z" horiz-adv-x="684" unicode="ª"/><glyph d="M217 487l14 58l373 336l31 -37l-340 -328l164 -332l-49 -32zM492 487l14 58l373 336l30 -37l-340 -328l164 -332l-49 -32z" horiz-adv-x="794" unicode="«"/><glyph d="M244 647l14 58h827l-127 -476h-65l113 418h-762z" unicode="¬"/><glyph d="M211 479l16 62h443l-17 -62h-442z" horiz-adv-x="602" unicode="­"/><glyph d="M317 1061q31 116 106 207.5t172 140.5t198 49q154 0 231 -111t31 -286q-46 -174 -183 -283.5t-292 -109.5t-232 109t-31 284zM375 1061q-39 -146 25 -243t194 -97t247 97t156 243q39 147 -25 245.5t-194 98.5t-247 -98.5t-156 -245.5zM496 856l114 426h135 q67 0 103.5 -30.5t17.5 -100.5q-10 -39 -43 -72.5t-69 -42.5l53 -180h-70l-39 160h-102l-43 -160h-57zM610 1069h62q112 0 131 78q10 40 -7.5 61t-72.5 21h-70z" horiz-adv-x="802" unicode="®"/><glyph d="M633 1245l14 58h492l-15 -58h-491z" horiz-adv-x="1089" unicode="¯"/><glyph d="M397 1163q29 109 113.5 173.5t175.5 64.5q92 0 141.5 -64.5t20.5 -173.5q-28 -106 -112 -169.5t-175 -63.5t-141.5 64t-22.5 169zM455 1163q-20 -77 13.5 -128.5t106.5 -51.5t134.5 51.5t81.5 128.5q22 80 -12 132.5t-107 52.5t-134 -52.5t-83 -132.5z" horiz-adv-x="622" unicode="°"/><glyph d="M70 0l16 57h827l-16 -57h-827zM242 639l14 57h381l115 426h65l-115 -426h381l-14 -57h-381l-117 -430h-65l117 430h-381z" unicode="±"/><glyph d="M119 840l10 41q292 219 404.5 324.5t138.5 203.5q26 92 -9.5 146.5t-119.5 54.5q-55 0 -116 -37t-112 -94l-32 37q54 62 131 104.5t147 42.5q111 0 159 -63.5t15 -186.5q-15 -59 -52 -115t-102 -117.5t-130.5 -115t-172.5 -136.5q-31 -24 -47 -36h414l-14 -53h-512z" horiz-adv-x="737" unicode="²"/><glyph d="M121 967l57 37q22 -60 74 -98t121 -38q83 0 152 49t91 132q23 82 -43.5 127t-203.5 45l12 49q121 0 206 53t105 127q19 71 -18 115.5t-119 44.5q-98 0 -219 -111l-31 37q131 127 268 127q102 0 155 -57t26 -152q-19 -73 -77 -126t-136 -79q75 -13 117 -66t20 -134 q-29 -108 -120 -171t-204 -63q-86 0 -146.5 44t-86.5 108z" horiz-adv-x="737" unicode="³"/><glyph d="M762 1208l354 316l39 -41l-364 -307z" horiz-adv-x="1089" unicode="´"/><glyph d="M98 -369l361 1348h61l-166 -623q-88 -323 142 -323q45 0 83 8t87.5 31.5t107 74t123.5 127.5l188 705h62q-51 -185 -238 -873q-9 -36 1.5 -54.5t35.5 -18.5q21 0 62 12l-2 -53q-42 -17 -78 -17q-66 0 -77.5 49.5t23.5 163.5h-4q-190 -213 -381 -213q-87 0 -138.5 29 t-71.5 107q-84 -320 -119 -480h-62z" horiz-adv-x="1097" unicode="µ"/><glyph d="M320.5 736.5q-12.5 79.5 15.5 193.5q29 111 85 193.5t133 132t168 73t198 23.5h90l-226 -840h-53q-117 0 -201 22.5t-140.5 72.5t-69 129.5zM715 -164l405 1516h66l-406 -1516h-65z" horiz-adv-x="1019" unicode="¶"/><glyph d="M154 659q10 38 38 60t58 22t45.5 -22t5.5 -60q-9 -35 -36.5 -56t-57.5 -21q-29 0 -45.5 21t-7.5 56z" horiz-adv-x="425" unicode="·"/><glyph d="M295 -442l2 53q133 9 192 35.5t72 74.5q12 45 -20 70t-113 37l131 176h57l-100 -139q66 -16 94.5 -48.5t12.5 -90.5q-40 -150 -328 -168z" horiz-adv-x="1089" unicode="¸"/><glyph d="M365 840l180 676h-168l12 45q116 24 195 77h53l-215 -798h-57z" horiz-adv-x="737" unicode="¹"/><glyph d="M381 1163q43 158 151.5 249t235.5 91q128 0 187 -91t16 -249q-42 -156 -150 -248t-235 -92t-187 92.5t-18 247.5zM442 1163q-34 -126 10 -206t148 -80t189.5 79.5t119.5 206.5q35 129 -8 208t-147 79t-190.5 -79t-121.5 -208z" horiz-adv-x="733" unicode="º"/><glyph d="M160 184l344 332l-168 328l51 37l193 -336l-15 -58l-372 -335zM434 184l344 332l-168 328l52 37l192 -336l-14 -58l-373 -335z" horiz-adv-x="794" unicode="»"/><glyph d="M324 553l180 676h-168l12 45q114 23 195 78h53l-215 -799h-57zM354 -25l1133 1401h65l-1132 -1401h-66zM979 242l8 32l514 525h45l-135 -504h119l-14 -53h-119l-66 -242h-57l65 242h-360zM1075 295h279l51 192l63 209h-8l-164 -172z" horiz-adv-x="1552" unicode="¼"/><glyph d="M305 -25l1133 1401h65l-1132 -1401h-66zM324 553l180 676h-168l12 45q114 23 195 78h53l-215 -799h-57zM975 0l10 41q292 219 404.5 324.5t138.5 203.5q26 92 -9.5 146.5t-119.5 54.5q-55 0 -116 -37t-112 -94l-32 37q54 62 131 104.5t147 42.5q111 0 159 -63.5 t15 -186.5q-15 -59 -52 -115t-102 -117.5t-130.5 -115t-172.5 -136.5q-31 -24 -47 -36h414l-14 -53h-512z" horiz-adv-x="1593" unicode="½"/><glyph d="M121 680l57 37q22 -60 74 -97.5t121 -37.5q83 0 152 48.5t91 131.5q23 82 -43.5 127t-203.5 45l12 49q121 0 206 53t105 127q19 71 -18 115.5t-119 44.5q-98 0 -219 -111l-31 37q131 127 268 127q102 0 155 -57t26 -152q-19 -73 -77 -125.5t-136 -78.5q75 -13 117 -66.5 t20 -134.5q-29 -108 -120 -171t-204 -63q-86 0 -146.5 44t-86.5 108zM457 -25l1132 1401h66l-1133 -1401h-65zM1020 242l8 32l514 525h45l-135 -504h119l-15 -53h-118l-66 -242h-57l65 242h-360zM1116 295h279l51 192l63 209h-8l-164 -172z" horiz-adv-x="1593" unicode="¾"/><glyph d="M72 -265q-14 68 6 154q15 57 49 112.5t76.5 102t90.5 93t95 94.5t86.5 98t68.5 111.5t38 126.5h57q-10 -71 -39 -136t-68.5 -116t-85.5 -98.5t-93 -92.5t-88.5 -88.5t-74.5 -96t-47 -105.5q-29 -107 14.5 -180.5t164.5 -73.5q77 0 159 35.5t152 99.5l31 -37 q-185 -156 -363 -156q-95 0 -155 42.5t-74 110.5zM608 926q10 35 37.5 56.5t56.5 21.5q30 0 47 -21.5t7 -56.5q-10 -38 -38.5 -60t-58.5 -22t-45.5 22t-5.5 60z" horiz-adv-x="806" unicode="¿"/><glyph d="M20 0l846 1352h58l120 -1352h-69l-39 483h-549l-301 -483h-66zM422 541h510l-23 270q-25 340 -28 471h-9q-98 -175 -282 -471zM770 1683l59 50l177 -246l-39 -33z" horiz-adv-x="1064" unicode="À"/><glyph d="M20 0l846 1352h58l120 -1352h-69l-39 483h-549l-301 -483h-66zM422 541h510l-23 270q-25 340 -28 471h-9q-98 -175 -282 -471zM858 1487l307 246l31 -50l-319 -229z" horiz-adv-x="1064" unicode="Á"/><glyph d="M20 0l846 1352h58l120 -1352h-69l-39 483h-549l-301 -483h-66zM422 541h510l-23 270q-25 340 -28 471h-9q-98 -175 -282 -471zM666 1487l299 233h57l176 -233l-39 -33l-178 205h-8l-289 -205z" horiz-adv-x="1064" unicode="Â"/><glyph d="M20 0l846 1352h58l120 -1352h-69l-39 483h-549l-301 -483h-66zM422 541h510l-23 270q-25 340 -28 471h-9q-98 -175 -282 -471zM604 1487q28 93 88.5 155t136.5 62q44 0 78 -17.5t54.5 -42t39.5 -49t44.5 -42t58.5 -17.5q47 0 90.5 45t71.5 119l49 -4q-28 -92 -90 -154.5 t-138 -62.5q-44 0 -77.5 17.5t-54.5 42t-39.5 49t-44 42t-58.5 17.5q-47 0 -91.5 -45t-70.5 -119z" horiz-adv-x="1064" unicode="Ã"/><glyph d="M20 0l846 1352h58l120 -1352h-69l-39 483h-549l-301 -483h-66zM422 541h510l-23 270q-25 340 -28 471h-9q-98 -175 -282 -471zM688 1556q7 30 30.5 48t51.5 18t42 -18t7 -48q-9 -30 -32.5 -47.5t-51.5 -17.5q-29 0 -42.5 17.5t-4.5 47.5zM1081 1556q7 30 30.5 48t51.5 18 t42 -18t7 -48q-9 -30 -32.5 -47.5t-51.5 -17.5q-29 0 -42.5 17.5t-4.5 47.5z" horiz-adv-x="1064" unicode="Ä"/><glyph d="M20 0l846 1352h58l120 -1352h-69l-39 483h-549l-301 -483h-66zM422 541h510l-23 270q-25 340 -28 471h-9q-98 -175 -282 -471zM791 1606q21 77 83.5 124.5t135.5 47.5q71 0 108.5 -48t16.5 -124q-20 -75 -83 -123.5t-134 -48.5q-73 0 -110 48.5t-17 123.5zM840 1606 q-17 -61 9 -94t79 -33q50 0 93.5 33.5t59.5 93.5q17 58 -8.5 92.5t-75.5 34.5q-52 0 -96 -34t-61 -93z" horiz-adv-x="1064" unicode="Å"/><glyph d="M53 0l1125 1352h716l-16 -58h-618l-146 -544h512l-14 -58h-512l-170 -635h639l-17 -57h-704l125 463h-467l-383 -463h-70zM555 520h432l207 770h-8q-236 -285 -398 -487z" horiz-adv-x="1646" unicode="Æ"/><glyph d="M297 680q86 319 291.5 507.5t464.5 188.5q109 0 185.5 -45t115.5 -114l-54 -46q-82 144 -264 144q-232 0 -411.5 -171t-257.5 -464t7.5 -468t311.5 -175q105 0 200 42t197 130l31 -41q-194 -170 -389 -191l-82 -112q66 -16 94.5 -48.5t12.5 -90.5q-40 -150 -328 -168 l2 53q133 9 192 35.5t72 74.5q12 45 -20 70t-113 37l111 147q-250 0 -352.5 193.5t-16.5 511.5z" horiz-adv-x="1150" unicode="Ç"/><glyph d="M205 0l362 1352h725l-16 -58h-660l-145 -544h553l-14 -58h-553l-170 -635h680l-17 -57h-745zM813 1683l59 50l177 -246l-39 -33z" horiz-adv-x="1044" unicode="È"/><glyph d="M205 0l362 1352h725l-16 -58h-660l-145 -544h553l-14 -58h-553l-170 -635h680l-17 -57h-745zM901 1487l307 246l31 -50l-319 -229z" horiz-adv-x="1044" unicode="É"/><glyph d="M205 0l362 1352h725l-16 -58h-660l-145 -544h553l-14 -58h-553l-170 -635h680l-17 -57h-745zM709 1487l299 233h57l176 -233l-39 -33l-178 205h-8l-289 -205z" horiz-adv-x="1044" unicode="Ê"/><glyph d="M205 0l362 1352h725l-16 -58h-660l-145 -544h553l-14 -58h-553l-170 -635h680l-17 -57h-745zM731 1556q7 30 30.5 48t51.5 18t42 -18t7 -48q-9 -30 -32.5 -47.5t-51.5 -17.5q-29 0 -42.5 17.5t-4.5 47.5zM1124 1556q7 30 30.5 48t51.5 18t42 -18t7 -48 q-9 -30 -32.5 -47.5t-51.5 -17.5q-29 0 -42.5 17.5t-4.5 47.5z" horiz-adv-x="1044" unicode="Ë"/><glyph d="M205 0l362 1352h66l-363 -1352h-65zM475 1683l60 50l176 -246l-39 -33z" horiz-adv-x="475" unicode="Ì"/><glyph d="M205 0l362 1352h66l-363 -1352h-65zM563 1487l307 246l31 -50l-319 -229z" horiz-adv-x="475" unicode="Í"/><glyph d="M205 0l362 1352h66l-363 -1352h-65zM371 1487l299 233h57l176 -233l-39 -33l-178 205h-8l-289 -205z" horiz-adv-x="475" unicode="Î"/><glyph d="M205 0l362 1352h66l-363 -1352h-65zM393 1556q7 30 30.5 48t51.5 18t42 -18t7 -48q-9 -30 -32.5 -47.5t-51.5 -17.5q-29 0 -42.5 17.5t-4.5 47.5zM786 1556q7 30 30.5 48t51.5 18t42.5 -18t7.5 -48q-9 -30 -32.5 -47.5t-51.5 -17.5q-29 0 -43 17.5t-5 47.5z" horiz-adv-x="475" unicode="Ï"/><glyph d="M246 0l184 688h-168l14 53l170 4l162 607h303q123 0 214.5 -31.5t147 -89.5t80.5 -141.5t20.5 -185.5t-36.5 -224q-85 -314 -285.5 -497t-502.5 -183h-303zM328 57h229q141 0 259.5 46.5t205 132t148 196.5t98.5 248q39 134 35 246.5t-45 194t-135.5 127.5t-235.5 46 h-230l-145 -549h344l-16 -57h-344z" horiz-adv-x="1269" unicode="Ð"/><glyph d="M205 0l362 1352h70l332 -992l84 -266h8q51 216 94 381l236 877h61l-362 -1352h-70l-332 991l-84 266h-8q-73 -299 -92 -368l-238 -889h-61zM729 1487q28 93 88.5 155t136.5 62q44 0 78 -17.5t54.5 -42t39.5 -49t44.5 -42t58.5 -17.5q47 0 90.5 45t71.5 119l49 -4 q-28 -92 -90 -154.5t-138 -62.5q-44 0 -77.5 17.5t-54.5 42t-39.5 49t-44 42t-58.5 17.5q-47 0 -91.5 -45t-70.5 -119z" horiz-adv-x="1294" unicode="Ñ"/><glyph d="M268 308q-26 157 29 372q57 209 170 368t259.5 243.5t305.5 84.5q243 0 345.5 -190.5t17.5 -505.5q-86 -317 -291.5 -511t-446.5 -194q-159 0 -261 88t-128 245zM367 680q-78 -291 6.5 -467t300.5 -176t394.5 176t256.5 467q78 290 -7.5 462.5t-301.5 172.5 t-393.5 -172.5t-255.5 -462.5zM901 1683l60 50l176 -246l-39 -33z" horiz-adv-x="1327" unicode="Ò"/><glyph d="M268 308q-26 157 29 372q57 209 170 368t259.5 243.5t305.5 84.5q243 0 345.5 -190.5t17.5 -505.5q-86 -317 -291.5 -511t-446.5 -194q-159 0 -261 88t-128 245zM367 680q-78 -291 6.5 -467t300.5 -176t394.5 176t256.5 467q78 290 -7.5 462.5t-301.5 172.5 t-393.5 -172.5t-255.5 -462.5zM989 1487l307 246l31 -50l-319 -229z" horiz-adv-x="1327" unicode="Ó"/><glyph d="M268 308q-26 157 29 372q57 209 170 368t259.5 243.5t305.5 84.5q243 0 345.5 -190.5t17.5 -505.5q-86 -317 -291.5 -511t-446.5 -194q-159 0 -261 88t-128 245zM367 680q-78 -291 6.5 -467t300.5 -176t394.5 176t256.5 467q78 290 -7.5 462.5t-301.5 172.5 t-393.5 -172.5t-255.5 -462.5zM797 1487l299 233h57l176 -233l-39 -33l-178 205h-8l-289 -205z" horiz-adv-x="1327" unicode="Ô"/><glyph d="M268 308q-26 157 29 372q57 209 170 368t259.5 243.5t305.5 84.5q243 0 345.5 -190.5t17.5 -505.5q-86 -317 -291.5 -511t-446.5 -194q-159 0 -261 88t-128 245zM367 680q-78 -291 6.5 -467t300.5 -176t394.5 176t256.5 467q78 290 -7.5 462.5t-301.5 172.5 t-393.5 -172.5t-255.5 -462.5zM735 1487q28 93 89 155t137 62q44 0 77.5 -17.5t54.5 -42t39.5 -49t44 -42t58.5 -17.5q47 0 90.5 45t71.5 119l49 -4q-28 -92 -89.5 -154.5t-137.5 -62.5q-44 0 -78 17.5t-54.5 42t-39.5 49t-44.5 42t-58.5 17.5q-47 0 -91.5 -45t-70.5 -119z" horiz-adv-x="1327" unicode="Õ"/><glyph d="M268 308q-26 157 29 372q57 209 170 368t259.5 243.5t305.5 84.5q243 0 345.5 -190.5t17.5 -505.5q-86 -317 -291.5 -511t-446.5 -194q-159 0 -261 88t-128 245zM367 680q-78 -291 6.5 -467t300.5 -176t394.5 176t256.5 467q78 290 -7.5 462.5t-301.5 172.5 t-393.5 -172.5t-255.5 -462.5zM819 1556q7 30 30.5 48t51.5 18t42 -18t7 -48q-9 -30 -32.5 -47.5t-51.5 -17.5q-29 0 -42.5 17.5t-4.5 47.5zM1212 1556q7 30 30.5 48t51.5 18t42 -18t7 -48q-9 -30 -32 -47.5t-51 -17.5q-29 0 -43 17.5t-5 47.5z" horiz-adv-x="1327" unicode="Ö"/><glyph d="M195 328l428 348l-242 348l53 45l242 -352l430 352l29 -45l-430 -348l243 -348l-53 -45l-242 352l-430 -352z" unicode="×"/><glyph d="M117 -8l196 194q-88 198 -8 494q57 209 170 368t259.5 243.5t305.5 84.5q214 0 320 -149l168 166l37 -33l-179 -176q101 -194 17 -504q-86 -317 -291 -511t-446 -194q-222 0 -328 166l-184 -182zM369 242l940 932q-90 141 -285 141q-216 0 -393.5 -172.5t-255.5 -462.5 q-70 -265 -6 -438zM391 195q42 -76 116.5 -117t174.5 -41q216 0 394.5 176t256.5 467q74 280 -2 448z" horiz-adv-x="1327" unicode="Ø"/><glyph d="M303.5 289q-0.5 94 32.5 215l227 848h66l-223 -832q-29 -109 -31 -193.5t18 -138t59.5 -88.5t89 -49t111.5 -14q80 0 152 24t142 77t127 150t93 232l224 832h61l-227 -848q-33 -121 -84 -215t-109 -152t-127 -95.5t-134 -52t-134 -14.5t-126 14.5t-106 52t-75 95.5 t-26.5 152zM883 1683l59 50l176 -246l-39 -33z" horiz-adv-x="1290" unicode="Ù"/><glyph d="M303.5 289q-0.5 94 32.5 215l227 848h66l-223 -832q-29 -109 -31 -193.5t18 -138t59.5 -88.5t89 -49t111.5 -14q80 0 152 24t142 77t127 150t93 232l224 832h61l-227 -848q-33 -121 -84 -215t-109 -152t-127 -95.5t-134 -52t-134 -14.5t-126 14.5t-106 52t-75 95.5 t-26.5 152zM971 1487l307 246l31 -50l-320 -229z" horiz-adv-x="1290" unicode="Ú"/><glyph d="M303.5 289q-0.5 94 32.5 215l227 848h66l-223 -832q-29 -109 -31 -193.5t18 -138t59.5 -88.5t89 -49t111.5 -14q80 0 152 24t142 77t127 150t93 232l224 832h61l-227 -848q-33 -121 -84 -215t-109 -152t-127 -95.5t-134 -52t-134 -14.5t-126 14.5t-106 52t-75 95.5 t-26.5 152zM778 1487l299 233h58l176 -233l-39 -33l-178 205h-9l-288 -205z" horiz-adv-x="1290" unicode="Û"/><glyph d="M303.5 289q-0.5 94 32.5 215l227 848h66l-223 -832q-29 -109 -31 -193.5t18 -138t59.5 -88.5t89 -49t111.5 -14q80 0 152 24t142 77t127 150t93 232l224 832h61l-227 -848q-33 -121 -84 -215t-109 -152t-127 -95.5t-134 -52t-134 -14.5t-126 14.5t-106 52t-75 95.5 t-26.5 152zM801 1556q7 30 30.5 48t51.5 18t42 -18t7 -48q-9 -30 -32.5 -47.5t-51.5 -17.5q-29 0 -42.5 17.5t-4.5 47.5zM1194 1556q7 30 30.5 48t51.5 18t42 -18t7 -48q-9 -30 -32.5 -47.5t-51.5 -17.5q-29 0 -42.5 17.5t-4.5 47.5z" horiz-adv-x="1290" unicode="Ü"/><glyph d="M371 1352h69l101 -439q4 -18 27.5 -125t39.5 -165h8q18 22 58.5 71t62.5 76t54 68t57 75l334 439h65l-618 -795l-150 -557h-65l149 557zM772 1487l307 246l31 -50l-319 -229z" horiz-adv-x="892" unicode="Ý"/><glyph d="M205 0l362 1352h66l-66 -246h287q236 0 332.5 -86.5t42.5 -282.5q-50 -191 -199 -288t-379 -97h-286l-95 -352h-65zM381 410h262q221 0 346 77t170 250q48 173 -36 242.5t-310 69.5h-262z" horiz-adv-x="1138" unicode="Þ"/><glyph d="M197 0l295 1102q50 185 169 291t269 106q121 0 173 -75t21 -191q-16 -59 -51.5 -112t-76.5 -93t-82 -78.5t-74.5 -83.5t-46.5 -92q-6 -24 -6 -45.5t4 -37.5t16 -32.5t22 -27t30.5 -24t33 -21t37.5 -21.5q29 -17 44 -26t41 -28t38.5 -34t27.5 -40t19.5 -50t3.5 -59.5 t-12 -73.5q-32 -120 -135 -199.5t-226 -79.5q-157 0 -246 107l50 49q47 -51 95.5 -74.5t114.5 -23.5q104 0 180 63.5t101 153.5q9 32 9 60t-3.5 48.5t-17.5 41.5t-25 33.5t-34.5 29.5t-36.5 25t-41 24t-41.5 24t-36.5 24.5t-34 29t-25 33t-18 41t-3.5 48t8.5 58.5 q15 56 50 107t76.5 90t82 77t75 85.5t48.5 99.5q26 95 -12 154t-136 59q-124 0 -219.5 -92t-146.5 -277l-287 -1073h-61z" horiz-adv-x="1085" unicode="ß"/><glyph d="M186 240q44 162 219.5 247.5t524.5 122.5q15 52 22 97t3.5 90t-21.5 77t-57.5 52t-98.5 20q-167 0 -352 -119l-18 50q209 127 389 127q83 0 135 -29.5t71 -82t17 -116t-23 -141.5l-170 -635h-53l27 131h-4q-238 -156 -398 -156q-123 0 -185.5 66.5t-27.5 198.5zM254 242 q-29 -107 19 -158t145 -51q87 0 182 41t219 127l96 356q-220 -24 -359 -66.5t-209 -102.5t-93 -146zM700 1483l60 41l186 -316l-45 -32z" horiz-adv-x="995" unicode="à"/><glyph d="M186 240q44 162 219.5 247.5t524.5 122.5q15 52 22 97t3.5 90t-21.5 77t-57.5 52t-98.5 20q-167 0 -352 -119l-18 50q209 127 389 127q83 0 135 -29.5t71 -82t17 -116t-23 -141.5l-170 -635h-53l27 131h-4q-238 -156 -398 -156q-123 0 -185.5 66.5t-27.5 198.5zM254 242 q-29 -107 19 -158t145 -51q87 0 182 41t219 127l96 356q-220 -24 -359 -66.5t-209 -102.5t-93 -146zM733 1208l354 316l39 -41l-364 -307z" horiz-adv-x="995" unicode="á"/><glyph d="M186 240q44 162 219.5 247.5t524.5 122.5q15 52 22 97t3.5 90t-21.5 77t-57.5 52t-98.5 20q-167 0 -352 -119l-18 50q209 127 389 127q83 0 135 -29.5t71 -82t17 -116t-23 -141.5l-170 -635h-53l27 131h-4q-238 -156 -398 -156q-123 0 -185.5 66.5t-27.5 198.5zM254 242 q-29 -107 19 -158t145 -51q87 0 182 41t219 127l96 356q-220 -24 -359 -66.5t-209 -102.5t-93 -146zM569 1208l322 299h57l162 -299l-45 -32l-158 266h-8l-301 -266z" horiz-adv-x="995" unicode="â"/><glyph d="M186 240q44 162 219.5 247.5t524.5 122.5q15 52 22 97t3.5 90t-21.5 77t-57.5 52t-98.5 20q-167 0 -352 -119l-18 50q209 127 389 127q83 0 135 -29.5t71 -82t17 -116t-23 -141.5l-170 -635h-53l27 131h-4q-238 -156 -398 -156q-123 0 -185.5 66.5t-27.5 198.5zM254 242 q-29 -107 19 -158t145 -51q87 0 182 41t219 127l96 356q-220 -24 -359 -66.5t-209 -102.5t-93 -146zM508 1196q88 250 240 250q43 0 75 -21t50.5 -51t36 -60.5t42.5 -51.5t58 -21q54 0 97.5 57t70.5 144l51 -4q-85 -250 -238 -250q-44 0 -76 21t-51 51t-36 60.5t-41.5 51.5 t-57.5 21q-55 0 -98 -55.5t-70 -145.5z" horiz-adv-x="995" unicode="ã"/><glyph d="M186 240q44 162 219.5 247.5t524.5 122.5q15 52 22 97t3.5 90t-21.5 77t-57.5 52t-98.5 20q-167 0 -352 -119l-18 50q209 127 389 127q83 0 135 -29.5t71 -82t17 -116t-23 -141.5l-170 -635h-53l27 131h-4q-238 -156 -398 -156q-123 0 -185.5 66.5t-27.5 198.5zM254 242 q-29 -107 19 -158t145 -51q87 0 182 41t219 127l96 356q-220 -24 -359 -66.5t-209 -102.5t-93 -146zM623 1298q8 28 31 47t51 19t42 -19t7 -47t-31.5 -46.5t-52.5 -18.5t-41.5 18.5t-5.5 46.5zM975 1298q8 28 31 47t51 19t42 -19t7 -47t-31.5 -46.5t-52.5 -18.5t-41.5 18.5 t-5.5 46.5z" horiz-adv-x="995" unicode="ä"/><glyph d="M186 240q44 162 219.5 247.5t524.5 122.5q15 52 22 97t3.5 90t-21.5 77t-57.5 52t-98.5 20q-167 0 -352 -119l-18 50q209 127 389 127q83 0 135 -29.5t71 -82t17 -116t-23 -141.5l-170 -635h-53l27 131h-4q-238 -156 -398 -156q-123 0 -185.5 66.5t-27.5 198.5zM254 242 q-29 -107 19 -158t145 -51q87 0 182 41t219 127l96 356q-220 -24 -359 -66.5t-209 -102.5t-93 -146zM678 1311q23 85 92 138.5t150 53.5t119.5 -53.5t15.5 -138.5t-91 -139t-149 -54t-120.5 54t-16.5 139zM727 1311q-17 -66 11.5 -107t88.5 -41t111 41t68 107 q18 66 -10.5 106.5t-88.5 40.5t-111 -40.5t-69 -106.5z" horiz-adv-x="995" unicode="å"/><glyph d="M203 238q43 162 218 248t513 124q15 52 22 97t3.5 90t-21.5 77t-57.5 52t-98.5 20q-155 0 -340 -119l-18 50q209 127 377 127q119 0 173.5 -69t45.5 -190q84 119 195.5 189t220.5 70q170 0 233.5 -117t5.5 -334q-6 -32 -20 -66h-692q-57 -195 13 -324.5t228 -129.5 q138 0 287 90l14 -53q-106 -56 -160 -72q-75 -23 -159 -23q-64 0 -115 17.5t-85.5 49.5t-56.5 65.5t-40 76.5q-119 -94 -249.5 -151.5t-223.5 -57.5q-123 0 -185.5 66t-27.5 197zM270 242q-29 -107 19 -158t145 -51q87 0 210 55t235 150q-19 95 24 262l17 57 q-313 -36 -464.5 -111.5t-185.5 -203.5zM977 541h635q51 203 0.5 304t-191.5 101q-130 0 -255.5 -114t-188.5 -291z" horiz-adv-x="1605" unicode="æ"/><glyph d="M242 487q64 237 228 377t347 140q92 0 150.5 -33.5t103.5 -89.5l-53 -45q-88 110 -215 110q-159 0 -301 -129.5t-195 -329.5q-56 -203 13 -328.5t237 -125.5q148 0 307 119l25 -46q-167 -121 -320 -131l-80 -110q66 -16 94.5 -48.5t12.5 -90.5q-40 -150 -328 -168l2 53 q133 9 192.5 35.5t72.5 74.5q12 45 -20.5 70t-113.5 37l111 147q-178 12 -255 149t-15 363z" horiz-adv-x="913" unicode="ç"/><glyph d="M229.5 212.5q-28.5 113.5 12.5 274.5q41 154 133.5 274t204 181.5t221.5 61.5q171 0 238.5 -118t9.5 -333q-5 -27 -21 -66h-721q-55 -199 17 -326.5t245 -127.5q146 0 295 90l15 -53q-59 -31 -93.5 -46.5t-100.5 -32t-134 -16.5q-124 0 -208.5 62t-113 175.5zM322 545 h663q54 197 -1 299t-198 102q-137 0 -268.5 -109.5t-195.5 -291.5zM717 1483l59 41l187 -316l-45 -32z" horiz-adv-x="978" unicode="è"/><glyph d="M229.5 212.5q-28.5 113.5 12.5 274.5q41 154 133.5 274t204 181.5t221.5 61.5q171 0 238.5 -118t9.5 -333q-5 -27 -21 -66h-721q-55 -199 17 -326.5t245 -127.5q146 0 295 90l15 -53q-59 -31 -93.5 -46.5t-100.5 -32t-134 -16.5q-124 0 -208.5 62t-113 175.5zM322 545 h663q54 197 -1 299t-198 102q-137 0 -268.5 -109.5t-195.5 -291.5zM750 1208l354 316l39 -41l-365 -307z" horiz-adv-x="978" unicode="é"/><glyph d="M229.5 212.5q-28.5 113.5 12.5 274.5q41 154 133.5 274t204 181.5t221.5 61.5q171 0 238.5 -118t9.5 -333q-5 -27 -21 -66h-721q-55 -199 17 -326.5t245 -127.5q146 0 295 90l15 -53q-59 -31 -93.5 -46.5t-100.5 -32t-134 -16.5q-124 0 -208.5 62t-113 175.5zM322 545 h663q54 197 -1 299t-198 102q-137 0 -268.5 -109.5t-195.5 -291.5zM586 1208l321 299h58l161 -299l-45 -32l-157 266h-9l-301 -266z" horiz-adv-x="978" unicode="ê"/><glyph d="M229.5 212.5q-28.5 113.5 12.5 274.5q41 154 133.5 274t204 181.5t221.5 61.5q171 0 238.5 -118t9.5 -333q-5 -27 -21 -66h-721q-55 -199 17 -326.5t245 -127.5q146 0 295 90l15 -53q-59 -31 -93.5 -46.5t-100.5 -32t-134 -16.5q-124 0 -208.5 62t-113 175.5zM322 545 h663q54 197 -1 299t-198 102q-137 0 -268.5 -109.5t-195.5 -291.5zM639 1298q8 28 31 47t51 19t42 -19t7 -47t-31.5 -46.5t-52.5 -18.5t-41.5 18.5t-5.5 46.5zM991 1298q8 28 31 47t51 19t42 -19t7 -47t-31.5 -46.5t-52.5 -18.5t-41.5 18.5t-5.5 46.5z" horiz-adv-x="978" unicode="ë"/><glyph d="M197 0l262 979h61l-262 -979h-61zM412 1483l59 41l186 -316l-45 -32z" horiz-adv-x="454" unicode="ì"/><glyph d="M197 0l262 979h61l-262 -979h-61zM444 1208l355 316l39 -41l-365 -307z" horiz-adv-x="454" unicode="í"/><glyph d="M197 0l262 979h61l-262 -979h-61zM281 1208l321 299h57l162 -299l-45 -32l-158 266h-8l-301 -266z" horiz-adv-x="454" unicode="î"/><glyph d="M197 0l262 979h61l-262 -979h-61zM334 1298q8 28 31 47t51 19t42 -19t7 -47t-31.5 -46.5t-52.5 -18.5t-41.5 18.5t-5.5 46.5zM686 1298q8 28 31 47t51 19t42 -19t7 -47t-31.5 -46.5t-52.5 -18.5t-41.5 18.5t-5.5 46.5z" horiz-adv-x="454" unicode="ï"/><glyph d="M239.5 192.5q-31.5 104.5 6.5 253.5q54 201 205.5 328t343.5 127q186 0 270 -162q27 284 -119 478l-330 -152l-12 45l314 143q-77 89 -213 181l43 45q140 -90 231 -197l332 152l12 -45l-315 -146q200 -278 79 -731q-65 -244 -216.5 -390.5t-331.5 -146.5 q-108 0 -188 56.5t-111.5 161zM311 446q-47 -179 24 -296t218 -117q87 0 163.5 37.5t134.5 104t101 151.5t70 186q22 85 31 135q-47 112 -117.5 154.5t-161.5 42.5q-86 0 -163.5 -32.5t-135.5 -88.5t-100 -126.5t-64 -150.5z" horiz-adv-x="1089" unicode="ð"/><glyph d="M197 0l262 979h53l-33 -156h4q111 88 202.5 134.5t184.5 46.5q151 0 199.5 -91t-2.5 -282l-170 -631h-61l165 623q46 163 10.5 243t-159.5 80q-88 0 -176 -46t-217 -150l-201 -750h-61zM563 1196q88 250 240 250q43 0 75 -21t50.5 -51t36 -60.5t42.5 -51.5t58 -21 q54 0 97.5 57t70.5 144l51 -4q-85 -250 -237 -250q-44 0 -76 21t-51 51t-36.5 60.5t-42 51.5t-57.5 21q-55 0 -98 -55.5t-70 -145.5z" horiz-adv-x="1077" unicode="ñ"/><glyph d="M228 210q-29 114 14 277q43 159 135 278.5t205 179t231 59.5t200 -61t111 -176t-14 -280q-64 -235 -226.5 -373.5t-344.5 -138.5q-118 0 -200 60.5t-111 174.5zM307 487q-55 -200 16 -327t230 -127q158 0 297 126.5t194 327.5q54 201 -16.5 330t-228.5 129t-298 -129 t-194 -330zM729 1483l59 41l187 -316l-45 -32z" horiz-adv-x="1089" unicode="ò"/><glyph d="M228 210q-29 114 14 277q43 159 135 278.5t205 179t231 59.5t200 -61t111 -176t-14 -280q-64 -235 -226.5 -373.5t-344.5 -138.5q-118 0 -200 60.5t-111 174.5zM307 487q-55 -200 16 -327t230 -127q158 0 297 126.5t194 327.5q54 201 -16.5 330t-228.5 129t-298 -129 t-194 -330zM762 1208l354 316l39 -41l-364 -307z" horiz-adv-x="1089" unicode="ó"/><glyph d="M228 210q-29 114 14 277q43 159 135 278.5t205 179t231 59.5t200 -61t111 -176t-14 -280q-64 -235 -226.5 -373.5t-344.5 -138.5q-118 0 -200 60.5t-111 174.5zM307 487q-55 -200 16 -327t230 -127q158 0 297 126.5t194 327.5q54 201 -16.5 330t-228.5 129t-298 -129 t-194 -330zM598 1208l322 299h57l162 -299l-45 -32l-158 266h-8l-301 -266z" horiz-adv-x="1089" unicode="ô"/><glyph d="M228 210q-29 114 14 277q43 159 135 278.5t205 179t231 59.5t200 -61t111 -176t-14 -280q-64 -235 -226.5 -373.5t-344.5 -138.5q-118 0 -200 60.5t-111 174.5zM307 487q-55 -200 16 -327t230 -127q158 0 297 126.5t194 327.5q54 201 -16.5 330t-228.5 129t-298 -129 t-194 -330zM537 1196q18 50 37 89.5t48 78.5t68 60.5t86 21.5q43 0 75 -21t50.5 -51t36 -60.5t42.5 -51.5t58 -21q54 0 97.5 57t70.5 144l51 -4q-85 -250 -237 -250q-44 0 -76 21t-51 51t-36 60.5t-41.5 51.5t-57.5 21q-55 0 -98 -55.5t-70 -145.5z" horiz-adv-x="1089" unicode="õ"/><glyph d="M228 210q-29 114 14 277q43 159 135 278.5t205 179t231 59.5t200 -61t111 -176t-14 -280q-64 -235 -226.5 -373.5t-344.5 -138.5q-118 0 -200 60.5t-111 174.5zM307 487q-55 -200 16 -327t230 -127q158 0 297 126.5t194 327.5q54 201 -16.5 330t-228.5 129t-298 -129 t-194 -330zM651 1298q8 28 31 47t51 19t42 -19t7 -47t-31.5 -46.5t-52.5 -18.5t-41.5 18.5t-5.5 46.5zM1004 1298q8 28 31 47t50 19q28 0 42.5 -19t7.5 -47t-31.5 -46.5t-52.5 -18.5t-41.5 18.5t-5.5 46.5z" horiz-adv-x="1089" unicode="ö"/><glyph d="M244 647l14 58h827l-14 -58h-827zM500 307q9 31 32.5 50.5t51.5 19.5t42 -20t5 -50q-9 -33 -32.5 -53.5t-51.5 -20.5t-42 20.5t-5 53.5zM698 1044q7 30 31.5 50t52.5 20t41 -19.5t6 -50.5q-9 -33 -33.5 -53t-52.5 -20t-41 20t-4 53z" unicode="÷"/><glyph d="M92 -8l162 147q-69 137 -12 348q43 159 135 278.5t205 179t231 59.5q174 0 260 -121l150 137l37 -37l-160 -145q67 -140 10 -351q-64 -235 -226.5 -373.5t-344.5 -138.5q-171 0 -258 119l-154 -139zM307 487q-48 -173 2 -299l709 646q-70 112 -219 112q-158 0 -298 -129 t-194 -330zM334 143q71 -110 219 -110q158 0 297 126.5t194 327.5q46 178 -2 299z" horiz-adv-x="1089" unicode="ø"/><glyph d="M270 66.5q-48 91.5 4 281.5l168 631h62l-166 -623q-46 -163 -10.5 -243t159.5 -80q90 0 179.5 49.5t214.5 163.5l196 733h62l-262 -979h-54l37 168h-4q-106 -94 -199 -143.5t-188 -49.5q-151 0 -199 91.5zM721 1483l59 41l187 -316l-45 -32z" horiz-adv-x="1073" unicode="ù"/><glyph d="M270 66.5q-48 91.5 4 281.5l168 631h62l-166 -623q-46 -163 -10.5 -243t159.5 -80q90 0 179.5 49.5t214.5 163.5l196 733h62l-262 -979h-54l37 168h-4q-106 -94 -199 -143.5t-188 -49.5q-151 0 -199 91.5zM754 1208l354 316l39 -41l-365 -307z" horiz-adv-x="1073" unicode="ú"/><glyph d="M270 66.5q-48 91.5 4 281.5l168 631h62l-166 -623q-46 -163 -10.5 -243t159.5 -80q90 0 179.5 49.5t214.5 163.5l196 733h62l-262 -979h-54l37 168h-4q-106 -94 -199 -143.5t-188 -49.5q-151 0 -199 91.5zM590 1208l321 299h58l161 -299l-45 -32l-157 266h-8l-302 -266z" horiz-adv-x="1073" unicode="û"/><glyph d="M270 66.5q-48 91.5 4 281.5l168 631h62l-166 -623q-46 -163 -10.5 -243t159.5 -80q90 0 179.5 49.5t214.5 163.5l196 733h62l-262 -979h-54l37 168h-4q-106 -94 -199 -143.5t-188 -49.5q-151 0 -199 91.5zM643 1298q8 28 31 47t51 19t42 -19t7 -47t-31.5 -46.5 t-52.5 -18.5t-41.5 18.5t-5.5 46.5zM995 1298q8 28 31 47t51 19t42 -19t7 -47t-31.5 -46.5t-52.5 -18.5t-41.5 18.5t-5.5 46.5z" horiz-adv-x="1073" unicode="ü"/><glyph d="M-76 -434l33 57q36 -16 78 -16q169 0 336 278l53 90l-137 1004h69l78 -643q23 -190 37 -275h8q31 48 90 146t78 129l393 643h66l-692 -1118q-37 -62 -78 -114.5t-92 -100t-110.5 -74.5t-119.5 -27q-50 0 -90 21zM676 1208l354 316l39 -41l-364 -307z" horiz-adv-x="868" unicode="ý"/><glyph d="M76 -455l516 1934h61l-114 -435l-54 -192q113 70 207 111t178 41q130 0 203.5 -62.5t84.5 -173.5t-28 -264q-43 -161 -135.5 -283t-207 -184t-232.5 -62q-134 0 -270 123l-148 -553h-61zM303 168q127 -135 270 -135q160 0 298 132.5t194 338.5q26 97 29 175t-19 139 t-78.5 94.5t-144.5 33.5q-142 0 -387 -172z" horiz-adv-x="1105" unicode="þ"/><glyph d="M-76 -434l33 57q36 -16 78 -16q169 0 336 278l53 90l-137 1004h69l78 -643q23 -190 37 -275h8q31 48 90 146t78 129l393 643h66l-692 -1118q-37 -62 -78 -114.5t-92 -100t-110.5 -74.5t-119.5 -27q-50 0 -90 21zM565 1298q8 28 31 47t51 19t42 -19t7 -47t-31.5 -46.5 t-52.5 -18.5t-41.5 18.5t-5.5 46.5zM918 1298q8 28 31 47t50 19q28 0 42.5 -19t7.5 -47t-31.5 -46.5t-52.5 -18.5t-41.5 18.5t-5.5 46.5z" horiz-adv-x="868" unicode="ÿ"/><glyph d="M260.5 455.5q3.5 103.5 36.5 224.5q54 204 162 352.5t275.5 234t377.5 85.5h832l-17 -58h-618l-146 -544h512l-14 -58h-512l-170 -635h639l-16 -57h-852q-127 0 -222.5 32.5t-154.5 91.5t-87.5 143.5t-25 188zM334 478.5q-4 -93.5 20.5 -171.5t76.5 -133.5t139 -86 t204 -30.5h139l330 1237h-139q-145 0 -268 -45.5t-214 -128.5t-154.5 -193.5t-100.5 -246.5q-29 -108 -33 -201.5z" horiz-adv-x="1695" unicode="Œ"/><glyph d="M242 487q64 237 225 377t338 140q126 0 211.5 -80t95.5 -228q92 143 212.5 225.5t242.5 82.5q171 0 238.5 -118t9.5 -333q-5 -27 -21 -66h-704q-56 -195 15.5 -324.5t229.5 -129.5q146 0 295 90l15 -53q-59 -31 -93.5 -46.5t-100.5 -32t-134 -16.5q-134 0 -218.5 82.5 t-99.5 221.5q-94 -149 -215 -226.5t-254 -77.5q-177 0 -264 139t-24 373zM307 487q-55 -200 13.5 -327t224.5 -127q158 0 293 126t190 328q54 202 -13 330.5t-224 128.5q-155 0 -292.5 -129t-191.5 -330zM1104 541h647q53 198 -2 301.5t-197 103.5q-130 0 -258 -114 t-190 -291z" horiz-adv-x="1744" unicode="œ"/><glyph d="M371 1352h69l101 -439q4 -18 27.5 -125t39.5 -165h8q18 22 58.5 71t62.5 76t54 68t57 75l334 439h65l-618 -795l-150 -557h-65l149 557zM602 1556q7 30 30.5 48t51.5 18t42 -18t7 -48q-9 -30 -32.5 -47.5t-51.5 -17.5q-29 0 -42.5 17.5t-4.5 47.5zM995 1556q7 30 30.5 48 t51.5 18t42 -18t7 -48q-9 -30 -32.5 -47.5t-51.5 -17.5q-29 0 -42.5 17.5t-4.5 47.5z" horiz-adv-x="892" unicode="Ÿ"/><glyph d="M598 1208l322 299h57l162 -299l-45 -32l-158 266h-8l-301 -266z" horiz-adv-x="1089" unicode="ˆ"/><glyph d="M537 1196q18 50 37 89.5t48 78.5t68 60.5t86 21.5q43 0 75 -21t50.5 -51t36 -60.5t42.5 -51.5t58 -21q54 0 97.5 57t70.5 144l51 -4q-85 -250 -237 -250q-44 0 -76 21t-51 51t-36 60.5t-41.5 51.5t-57.5 21q-55 0 -98 -55.5t-70 -145.5z" horiz-adv-x="1089" unicode="˜"/><glyph horiz-adv-x="889"/><glyph horiz-adv-x="1778"/><glyph horiz-adv-x="889"/><glyph horiz-adv-x="1778"/><glyph horiz-adv-x="592"/><glyph horiz-adv-x="444"/><glyph horiz-adv-x="296"/><glyph horiz-adv-x="296"/><glyph horiz-adv-x="222"/><glyph horiz-adv-x="355"/><glyph horiz-adv-x="98"/><glyph d="M211 479l16 62h443l-17 -62h-442z" horiz-adv-x="602" unicode="‐"/><glyph d="M211 479l16 62h443l-17 -62h-442z" horiz-adv-x="602" unicode="‑"/><glyph d="M211 479l16 62h443l-17 -62h-442z" horiz-adv-x="602" unicode="‒"/><glyph d="M211 483l16 58h820l-17 -58h-819z" horiz-adv-x="983" unicode="–"/><glyph d="M211 483l16 58h1475l-16 -58h-1475z" horiz-adv-x="1638" unicode="—"/><glyph d="M423 1054q-13 30 3 89q50 190 240 303l22 -37q-84 -60 -130 -115t-69 -137q6 2 19 2q27 0 43 -16.5t8 -48.5q-9 -33 -33 -51.5t-55 -18.5q-35 0 -48 30z" horiz-adv-x="425" unicode="‘"/><glyph d="M395 1049q84 59 129.5 113.5t69.5 135.5h-16q-27 0 -44 17t-10 49q9 33 33.5 51.5t56.5 18.5q35 0 47 -30t-2 -89q-50 -189 -241 -303z" horiz-adv-x="425" unicode="’"/><glyph d="M395 -221q84 59 129.5 114t69.5 136h-16q-28 0 -44.5 17t-9.5 48q9 33 33.5 51.5t56.5 18.5q35 0 47 -30t-2 -89q-50 -189 -241 -303z" horiz-adv-x="425" unicode="‚"/><glyph d="M423 1054q-13 30 3 89q50 190 240 303l22 -37q-84 -60 -130 -115t-69 -137q6 2 19 2q27 0 43 -16.5t8 -48.5q-9 -33 -33 -51.5t-55 -18.5q-35 0 -48 30zM685 1054q-13 30 3 89q50 190 240 303l22 -37q-84 -59 -129 -114.5t-69 -137.5q6 2 18 2q27 0 43 -16.5t8 -48.5 q-9 -33 -33 -51.5t-55 -18.5q-35 0 -48 30z" horiz-adv-x="688" unicode="“"/><glyph d="M395 1049q84 59 129.5 113.5t69.5 135.5h-16q-27 0 -44 17t-10 49q9 33 33.5 51.5t56.5 18.5q35 0 47 -30t-2 -89q-50 -189 -241 -303zM657 1049q84 59 129.5 113.5t69.5 135.5h-16q-27 0 -44 17t-10 49q9 33 34 51.5t57 18.5q35 0 47 -30t-2 -89q-50 -188 -242 -303z" horiz-adv-x="688" unicode="”"/><glyph d="M395 -221q84 59 129.5 114t69.5 136h-16q-28 0 -44.5 17t-9.5 48q9 33 33.5 51.5t56.5 18.5q35 0 47 -30t-2 -89q-50 -189 -241 -303zM657 -221q84 59 129.5 114t69.5 136h-16q-28 0 -44.5 17t-9.5 48q9 33 34 51.5t57 18.5q35 0 47 -30t-2 -89q-50 -188 -242 -303z" horiz-adv-x="688" unicode="„"/><glyph d="M227 541q25 97 100.5 157t153.5 60t121.5 -60t18.5 -157q-27 -97 -102.5 -157t-153.5 -60t-121.5 60t-16.5 157z" horiz-adv-x="557" unicode="•"/><glyph d="M236 53q10 38 38 60t58 22t45.5 -22t5.5 -60q-9 -35 -36.5 -56.5t-57.5 -21.5q-29 0 -45.5 21.5t-7.5 56.5zM928 53q10 38 38 60t58 22t45.5 -22t5.5 -60q-9 -35 -36.5 -56.5t-57.5 -21.5q-29 0 -45.5 21.5t-7.5 56.5zM1620 53q10 38 38 60t58 22t45.5 -22t5.5 -60 q-9 -35 -36.5 -56.5t-57.5 -21.5q-29 0 -45.5 21.5t-7.5 56.5z" horiz-adv-x="1892" unicode="…"/><glyph horiz-adv-x="355"/><glyph d="M217 487l14 58l373 336l31 -37l-340 -328l164 -332l-49 -32z" horiz-adv-x="520" unicode="‹"/><glyph d="M160 184l344 332l-168 328l51 37l193 -336l-15 -58l-372 -335z" horiz-adv-x="520" unicode="›"/><glyph horiz-adv-x="444"/><glyph d="M186 512l13 49l133 8q13 63 20 90q2 8 23 74h-129l12 49l135 9q96 254 260.5 399t360.5 145q86 0 148 -45.5t91 -113.5l-57 -41q-62 143 -199 143q-170 0 -309 -129t-223 -358h586l-15 -58h-592q-17 -53 -22 -74q-12 -47 -21 -90h508l-14 -57h-504q-36 -223 27 -351 t217 -128q87 0 166.5 42t167.5 130l35 -37q-94 -95 -186.5 -144t-201.5 -49q-177 0 -255 144t-39 393h-136z" unicode="€"/><glyph d="M360 1327l15 57h512l-15 -57h-225l-153 -569h-62l154 569h-226zM829 758l168 626h90l39 -266l19 -180h8l113 180l178 266h90l-168 -626h-61l94 348l59 197h-8l-295 -447h-61l-58 447h-8l-43 -197l-94 -348h-62z" horiz-adv-x="1228" unicode="™"/><glyph d="M0 0v983h983v-983h-983z" horiz-adv-x="983" unicode="◼"/><glyph d="M205 0l248 922h-136l13 49l137 8l65 242q37 141 116 211.5t186 70.5q60 0 124 -33l-34 -53q-51 29 -111 29q-159 0 -221 -234l-64 -233h234l-14 -57h-234l-248 -922h-61zM750 0l262 979h61l-262 -979h-61zM1061 1298q9 32 34 51t54 19t44.5 -19t6.5 -51q-7 -30 -33 -49.5 t-55 -19.5q-28 0 -43 19.5t-8 49.5z" horiz-adv-x="1007" unicode="ﬁ"/><glyph d="M205 0l248 922h-136l13 49l137 8l65 242q37 141 116 211.5t186 70.5q60 0 124 -33l-34 -53q-51 29 -111 29q-159 0 -221 -234l-64 -233h234l-14 -57h-234l-248 -922h-61zM741 106l367 1373h61l-370 -1385q-15 -61 24 -61q16 0 39 4l-2 -53q-40 -9 -55 -9q-99 0 -64 131z" horiz-adv-x="987" unicode="ﬂ"/><glyph d="M205 0l246 922h-134l13 49l137 8l53 201q40 150 127.5 226.5t204.5 76.5q79 0 149 -37l-34 -53q-58 32 -136 32q-91 0 -154.5 -66t-96.5 -188l-52 -192h471l66 242q37 141 115.5 211.5t185.5 70.5q61 0 125 -33l-35 -53q-51 29 -110 29q-160 0 -222 -234l-63 -233h233 l-14 -57h-233l-248 -922h-62l248 922h-473l-246 -922h-61zM1245 0l262 979h62l-262 -979h-62zM1556 1298q9 32 34.5 51t54.5 19t44.5 -19t6.5 -51q-7 -30 -33 -49.5t-55 -19.5q-28 0 -43.5 19.5t-8.5 49.5z" horiz-adv-x="1503" unicode="ﬃ"/><glyph d="M205 0l246 922h-134l13 49l137 8l53 201q40 150 127.5 226.5t204.5 76.5q79 0 149 -37l-34 -53q-58 32 -136 32q-91 0 -154.5 -66t-96.5 -188l-52 -192h471l66 242q37 141 115.5 211.5t185.5 70.5q61 0 125 -33l-35 -53q-51 29 -110 29q-160 0 -222 -234l-63 -233h233 l-14 -57h-233l-248 -922h-62l248 922h-473l-246 -922h-61zM1274 106l366 1373h62l-371 -1385q-15 -61 25 -61q16 0 39 4l-2 -53q-41 -9 -56 -9q-98 0 -63 131z" horiz-adv-x="1519" unicode="ﬄ"/></font>
</defs>
</svg>
