<?xml version="1.0" standalone="no"?>
<!DOCTYPE svg PUBLIC "-//W3C//DTD SVG 1.1//EN" "http://www.w3.org/Graphics/SVG/1.1/DTD/svg11.dtd" >
<svg xmlns="http://www.w3.org/2000/svg" xmlns:xlink="http://www.w3.org/1999/xlink" version="1.1">
<metadata></metadata>
<defs>
<font id="madamedium_italic" horiz-adv-x="1000" >
<font-face units-per-em="1000" ascent="800" descent="-200" />
<missing-glyph horiz-adv-x="200" />
<glyph unicode="ff" horiz-adv-x="599" d="M94 0l110 410h-64l21 75l65 5l14 52q21 79 73.5 124t132.5 45q54 0 88 -18l-39 -75q-27 12 -61 12q-33 0 -58 -23t-37 -67l-13 -50h195l17 63q20 79 70 124.5t128 45.5q44 0 82 -17l-41 -76q-24 12 -52 12q-66 0 -88 -88l-17 -64h101l-22 -80h-101l-109 -409h-100 l110 409h-195l-110 -410h-100z" />
<glyph unicode="ft" horiz-adv-x="620" d="M94 0l110 408h-65l20 75l67 5l17 64q20 79 70 124.5t128 45.5q44 0 82 -17l-41 -76q-24 12 -52 12q-66 0 -88 -88l-17 -65h175l49 135h83l-37 -135h128l-22 -80h-128l-67 -250q-24 -90 48 -90q24 0 56 12l-1 -74q-60 -18 -101 -18h1h-1q-147 0 -102 170l67 250h-170 l-109 -408h-100z" />
<glyph unicode="fft" horiz-adv-x="914" d="M94 0l110 409h-63l20 75l65 4l14 54q21 79 73.5 124t132.5 45q54 0 88 -18l-39 -75q-27 12 -61 12q-33 0 -58 -23t-37 -67l-14 -51h196l17 64q20 79 70 124.5t128 45.5q44 0 82 -17l-41 -76q-24 12 -52 12q-66 0 -88 -88l-17 -65h175l49 135h83l-37 -135h128l-22 -80 h-128l-67 -250q-24 -90 48 -90q24 0 56 12l-1 -74q-60 -18 -100 -18q-147 0 -102 170l67 250h-171l-109 -408h-100l110 408h-195l-110 -409h-100zM803 -11h1h-1z" />
<glyph unicode=" "  horiz-adv-x="200" />
<glyph unicode="&#x09;" horiz-adv-x="200" />
<glyph unicode="&#xa0;" horiz-adv-x="200" />
<glyph unicode="!" horiz-adv-x="303" d="M173 207l82 358l26 105h101l-32 -105l-109 -358h-68zM149 -12q-29 0 -43 20t-7 50q9 31 34 51.5t54 20.5q28 0 42 -20.5t5 -51.5q-7 -30 -32 -50t-53 -20z" />
<glyph unicode="&#x22;" horiz-adv-x="457" d="M211 410l27 176l24 103h105l-31 -103l-67 -176h-58zM404 410l27 176l24 103h105l-31 -103l-67 -176h-58z" />
<glyph unicode="#" horiz-adv-x="506" d="M89 0l77 199h-78l18 67h86l54 138h-83l18 68h92l70 178h62l-70 -178h125l71 178h62l-70 -178h80l-18 -68h-88l-54 -138h85l-18 -67h-93l-78 -199h-62l77 199h-124l-78 -199h-63zM255 266h124l54 138h-124z" />
<glyph unicode="$" horiz-adv-x="506" d="M191 -109l26 99q-98 11 -151 77l63 69q60 -65 134 -65q102 0 128 93q3 12 3.5 23.5t-2.5 21.5t-6.5 18t-11.5 16.5t-14 14t-17.5 13.5t-19 12.5t-20.5 12.5q-18 10 -27.5 16t-25 17.5t-23.5 20.5t-17.5 23t-12.5 28.5t-3 33.5t6 40q19 68 70.5 114t121.5 57l27 102h70 l-26 -101q77 -9 124 -77l-69 -59q-22 29 -44.5 42t-58.5 13q-43 0 -74.5 -23.5t-41.5 -63.5q-7 -27 5 -49.5t28 -33.5t50 -30q19 -11 29 -17t26.5 -17.5t25 -21.5t19 -25t13.5 -31t2.5 -37.5t-6.5 -45.5q-19 -71 -73 -119.5t-130 -60.5l-27 -100h-70z" />
<glyph unicode="%" horiz-adv-x="833" d="M646 -11q-69 0 -96 55t0 153q26 97 82.5 151.5t125.5 54.5t96 -54.5t1 -151.5q-27 -97 -83.5 -152.5t-125.5 -55.5zM182 253q-69 0 -96 55t0 153q26 97 82.5 151.5t125.5 54.5t96 -54.5t1 -151.5q-27 -97 -83.5 -152.5t-125.5 -55.5zM202 -11l541 679h64l-541 -679h-64z M197 313q36 0 67.5 38t51.5 111q18 76 7 111.5t-47 35.5q-37 0 -68 -37t-50 -110q-19 -76 -8 -112.5t47 -36.5zM661 49q36 0 67.5 38t51.5 111q18 76 7 111.5t-47 35.5q-37 0 -68 -37t-50 -110q-19 -76 -8 -112.5t47 -36.5z" />
<glyph unicode="&#x26;" horiz-adv-x="625" d="M232 -12l-1 1q-92 0 -134.5 52t-21.5 131q16 61 61.5 104.5t115.5 83.5q-21 81 -3 148t74.5 113t127.5 46q64 0 91.5 -36.5t10.5 -97.5q-8 -31 -27 -58t-49.5 -52t-55 -41.5t-65.5 -40.5q38 -88 112 -165q81 77 137 183h93q-73 -130 -176 -232q56 -44 106 -57l-47 -82 q-71 19 -137 72q-103 -72 -212 -72zM390 113q-75 83 -115 178q-86 -57 -101 -113q-13 -49 12.5 -79.5t77.5 -30.5q57 0 126 45zM335 405q59 33 93 61.5t44 65.5q8 29 -1 47.5t-38 18.5q-34 0 -61 -25t-37 -64q-12 -49 0 -104z" />
<glyph unicode="'" horiz-adv-x="263" d="M211 410l27 176l24 103h105l-31 -103l-67 -176h-58z" />
<glyph unicode="(" horiz-adv-x="314" d="M164 -177q-75 215 -11 455q66 242 254 455l55 -28q-163 -190 -227 -427q-63 -239 -1 -427z" />
<glyph unicode=")" horiz-adv-x="314" d="M56 -177l-55 28q164 191 226 427q64 238 2 427l70 28q75 -216 10 -455q-64 -241 -253 -455z" />
<glyph unicode="*" horiz-adv-x="429" d="M248 400l-37 33l83 97l-88 42l32 53l99 -25l40 111h57l-20 -110l114 24l2 -53l-112 -42l31 -97l-54 -33l-50 87z" />
<glyph unicode="+" horiz-adv-x="506" d="M242 101l51 192h-180l20 74h180l51 192h77l-51 -192h180l-20 -74h-180l-51 -192h-77z" />
<glyph unicode="," horiz-adv-x="263" d="M22 -177l-9 56q108 40 130 122q-3 -1 -9 -1q-28 0 -43 17.5t-7 47.5q8 29 33.5 47t54.5 18q37 0 50 -29t-1 -80q-19 -69 -71 -120.5t-128 -77.5z" />
<glyph unicode="-" horiz-adv-x="317" d="M99 214l20 74h234l-20 -74h-234z" />
<glyph unicode="." horiz-adv-x="263" d="M129 -12q-29 0 -43 20t-7 50q9 31 34 51.5t54 20.5q28 0 42 -20.5t5 -51.5q-7 -30 -32 -50t-53 -20z" />
<glyph unicode="/" horiz-adv-x="347" d="M-32 -160l482 870h70l-482 -870h-70z" />
<glyph unicode="0" horiz-adv-x="506" d="M250 -12l1 -1q-99 0 -131.5 86t9.5 247q42 159 120.5 244t177.5 85t131.5 -83.5t-8.5 -244.5q-42 -159 -121.5 -246t-178.5 -87zM272 66q114 0 182 253q67 249 -47 249t-181 -249q-68 -253 46 -253z" />
<glyph unicode="1" horiz-adv-x="506" d="M76 0l22 81h144l118 442h-117l17 64q88 15 155 50h76l-149 -555h128l-22 -82h-372z" />
<glyph unicode="2" horiz-adv-x="506" d="M39 0l17 59q202 157 291 240.5t108 152.5q14 54 -7 85.5t-75 31.5q-65 0 -149 -73l-41 56q59 49 111.5 73.5t112.5 24.5q90 0 129 -52.5t16 -139.5q-11 -42 -40 -86t-80.5 -94.5t-99 -92t-126.5 -105.5q72 6 109 6h169l-23 -86h-422z" />
<glyph unicode="3" horiz-adv-x="506" d="M235 -12v1q-132 0 -189 90l66 65q52 -73 137 -73q55 0 97 29t55 77q15 56 -21.5 86t-142.5 30l20 74q172 0 202 109q12 43 -8.5 67.5t-67.5 24.5q-68 0 -148 -62l-36 62q109 80 209 80q90 0 133 -44t22 -121q-28 -105 -153 -149l-1 -4q56 -15 82.5 -56.5t9.5 -103.5 q-23 -83 -98 -132.5t-168 -49.5z" />
<glyph unicode="4" horiz-adv-x="506" d="M301 0l45 169h-283l18 67l369 401h116l-104 -389h83l-21 -79h-84l-45 -169h-94zM368 248l43 161q4 15 39 129h-4q-19 -25 -77 -94l-183 -196h182z" />
<glyph unicode="5" horiz-adv-x="506" d="M235 -12l2 1q-126 0 -189 88l65 65q51 -70 135 -70q57 0 103.5 36.5t62.5 96.5t-9 94t-83 34q-48 0 -115 -37l-41 32l103 311h330l-23 -86h-243l-61 -170q52 22 96 22q87 0 129.5 -50.5t16.5 -148.5q-27 -100 -107.5 -159t-171.5 -59z" />
<glyph unicode="6" horiz-adv-x="506" d="M269 -12l-3 -1q-99 0 -141 79t-2 230q48 177 142 264.5t200 87.5q96 0 144 -71l-72 -61q-27 49 -89 49q-68 0 -127 -59t-97 -191q38 36 82.5 56.5t81.5 20.5q85 0 121.5 -50.5t10.5 -146.5q-25 -92 -97 -149.5t-154 -57.5zM205 239q-29 -175 82 -175q45 0 83.5 35.5 t54.5 94.5q16 60 -3.5 92t-71.5 32q-69 0 -145 -79z" />
<glyph unicode="7" horiz-adv-x="506" d="M274 0h-103q55 176 128.5 300t200.5 252h-309l23 86h420l-17 -62q-98 -93 -161.5 -181t-101.5 -174t-80 -221z" />
<glyph unicode="8" horiz-adv-x="506" d="M251 -12h1q-92 0 -139 49.5t-27 125.5q29 105 162 167l1 4q-71 63 -48 148q20 75 85.5 121t146.5 46q83 0 120 -47.5t17 -123.5q-12 -45 -48.5 -84t-79.5 -66l-1 -4q43 -29 62.5 -67.5t3.5 -97.5q-19 -73 -90.5 -122t-164.5 -49h-1zM273 59v1q51 0 90 28t52 74q4 13 4 25 t-4 22.5t-8.5 18.5t-15 16.5t-18.5 14.5t-23.5 14t-25.5 12.5t-28 12.5l-6 3q-93 -56 -112 -129q-13 -50 14 -81.5t81 -31.5zM393 354v-1q74 56 91 119q12 46 -7.5 75t-66.5 29q-41 0 -74 -25.5t-45 -68.5q-12 -47 15 -74.5t87 -53.5z" />
<glyph unicode="9" horiz-adv-x="506" d="M209 -12v1q-97 0 -144 70l72 62q27 -49 89 -49q69 0 128 59t97 191q-82 -77 -163 -77q-85 0 -121 50t-10 147q25 92 97 149.5t154 57.5q99 0 141 -79t2 -230q-48 -177 -142 -264.5t-200 -87.5zM470 398q29 175 -82 175q-44 0 -83 -35.5t-55 -94.5q-16 -60 3.5 -92 t71.5 -32q69 0 145 79z" />
<glyph unicode=":" horiz-adv-x="263" d="M129 -12q-29 0 -43 20t-7 50q9 31 34 51.5t54 20.5q28 0 42 -20.5t5 -51.5q-7 -30 -32 -50t-53 -20zM129 339q-29 0 -43 20t-7 50q9 31 34 51.5t54 20.5q28 0 42 -20.5t5 -51.5q-7 -30 -32 -50t-53 -20z" />
<glyph unicode=";" horiz-adv-x="263" d="M22 -177l-9 56q108 40 130 122q-3 -1 -9 -1q-28 0 -43 17.5t-7 47.5q8 29 33.5 47t54.5 18q37 0 50 -29t-1 -80q-19 -69 -71 -120.5t-128 -77.5zM129 339q-29 0 -43 20t-7 50q9 31 34 51.5t54 20.5q28 0 42 -20.5t5 -51.5q-7 -30 -32 -50t-53 -20z" />
<glyph unicode="&#x3c;" horiz-adv-x="506" d="M505 124l-392 170l21 76l483 170l-23 -85l-221 -72l-148 -49l-1 -4l122 -49l182 -72z" />
<glyph unicode="=" horiz-adv-x="506" d="M112 184l20 74h438l-20 -74h-438zM112 403l20 74h438l-20 -74h-438z" />
<glyph unicode="&#x3e;" horiz-adv-x="506" d="M67 124l23 85l221 72l147 49l1 4l-121 49l-182 72l23 85l392 -170l-21 -76z" />
<glyph unicode="?" horiz-adv-x="436" d="M214 207q6 42 28 79.5t50 65t56.5 52.5t52 52.5t30.5 54.5q10 39 -6.5 63.5t-58.5 24.5q-60 0 -123 -55l-42 52q96 86 199 86q79 0 114.5 -43t15.5 -120q-10 -35 -35 -68t-54.5 -59.5t-58.5 -53t-51.5 -60.5t-28.5 -71h-88zM201 -14q-29 0 -43 20t-6 50q9 31 33.5 51.5 t53.5 20.5t43 -20.5t5 -51.5q-7 -30 -32 -50t-54 -20zM214 207v-2v2z" />
<glyph unicode="@" horiz-adv-x="862" d="M367 -160l-1 3q-155 0 -231.5 95.5t-30.5 267.5q35 132 122 235.5t198.5 158.5t226.5 55q153 0 219 -93.5t25 -244.5q-33 -124 -117 -196t-163 -72q-42 0 -66 19.5t-20 56.5h-2q-72 -67 -140 -67q-55 0 -79 38t-6 105q24 89 99 162t158 73q54 0 67 -49h2l23 40h65 l-96 -206q-56 -108 23 -108q50 0 105 55.5t79 143.5q33 123 -17.5 200t-184.5 77q-138 0 -271 -107t-178 -275q-38 -142 24.5 -222t191.5 -80q83 0 171 43l10 -58q-100 -50 -206 -50zM426 123l1 1q41 0 100 55l69 152q-14 39 -49 39q-52 0 -99.5 -52t-63.5 -111 q-23 -84 42 -84z" />
<glyph unicode="A" horiz-adv-x="552" d="M0 0l393 655h117l42 -655h-108l-6 188h-229l-106 -188h-103zM255 268h181l-3 89q-4 95 -4 218h-4q-73 -139 -120 -218z" />
<glyph unicode="B" horiz-adv-x="593" d="M86 0l176 655h203q107 0 158 -38.5t28 -122.5q-13 -49 -48.5 -88t-82.5 -54l-1 -4q56 -13 80.5 -52.5t6.5 -103.5q-25 -94 -106.5 -143t-195.5 -49h-218zM208 79h106q163 0 194 118q15 55 -19.5 81t-115.5 26h-105zM289 381h89q143 0 170 100q13 51 -15.5 73t-99.5 22 h-92z" />
<glyph unicode="C" horiz-adv-x="574" d="M338 -12l2 -1q-127 0 -184 90.5t-15 248.5q41 155 149.5 247.5t236.5 92.5q57 0 98.5 -23t63.5 -59l-71 -65q-42 59 -114 59q-86 0 -157.5 -67.5t-102.5 -182.5q-31 -117 2 -185t120 -68q80 0 163 71l38 -63q-107 -95 -229 -95z" />
<glyph unicode="D" horiz-adv-x="620" d="M86 0l175 654h170q152 0 211 -83t17 -241q-43 -159 -146.5 -244.5t-251.5 -85.5h-175zM208 81l63 1q106 0 178.5 63t105.5 185q64 242 -153 242h-62z" />
<glyph unicode="E" horiz-adv-x="533" d="M86 0l176 656h386l-23 -85h-286l-50 -185h242l-23 -86h-242l-57 -214h296l-23 -86h-396z" />
<glyph unicode="F" horiz-adv-x="502" d="M86 0l176 655h387l-23 -85h-286l-54 -202h243l-23 -85h-243l-76 -283h-101z" />
<glyph unicode="G" horiz-adv-x="623" d="M350 -12q-134 0 -194 90.5t-17 248.5q41 156 151.5 248t244.5 92q115 0 171 -82l-72 -65q-43 59 -120 59q-93 0 -167 -67.5t-105 -182.5q-32 -119 4 -186t136 -67q67 0 114 34l42 155h-130l22 83h222l-76 -283q-96 -77 -226 -77h1h-1z" />
<glyph unicode="H" horiz-adv-x="658" d="M86 0l176 655h101l-72 -268h283l72 268h102l-176 -655h-102l80 299h-283l-80 -299h-101z" />
<glyph unicode="I" horiz-adv-x="274" d="M86 0l176 655h101l-176 -655h-101z" />
<glyph unicode="J" horiz-adv-x="488" d="M213 -12h-1q-130 0 -160 109l85 51q20 -72 87 -72q50 0 82.5 31t51.5 101l120 446h102l-122 -455q-26 -93 -88.5 -152t-156.5 -59z" />
<glyph unicode="K" horiz-adv-x="589" d="M86 0l175 655h101l-83 -312h3l335 312h113l-271 -253l128 -402h-112l-99 323l-136 -124l-53 -199h-101z" />
<glyph unicode="L" horiz-adv-x="495" d="M86 0l176 655h101l-153 -569h279l-23 -86h-380z" />
<glyph unicode="M" horiz-adv-x="737" d="M86 0l177 655h117l31 -333q2 -19 3.5 -41.5t3 -49.5t2.5 -42h4q12 20 38.5 65t40.5 68l207 333h118l-176 -655h-94l88 327q12 44 68 202h-4l-93 -150l-200 -315h-62l-31 315l-12 150h-4q-35 -172 -43 -202l-88 -327h-91z" />
<glyph unicode="N" horiz-adv-x="652" d="M86 0l177 655h104l114 -388l33 -138h4q33 173 46 217l83 309h96l-176 -655h-104l-115 389l-33 137h-4q-31 -161 -45 -214l-84 -312h-96z" />
<glyph unicode="O" horiz-adv-x="670" d="M332 -12q-127 0 -181 93t-12 250q41 156 143.5 246.5t230.5 90.5t182.5 -91t13.5 -246q-42 -157 -146 -250t-231 -93zM355 76q82 0 150 69.5t99 185.5q31 115 -0.5 181.5t-113.5 66.5t-148.5 -66.5t-97.5 -181.5q-31 -116 -1 -185.5t112 -69.5z" />
<glyph unicode="P" horiz-adv-x="574" d="M86 0l176 655h197q250 0 196 -198q-27 -103 -108.5 -155.5t-192.5 -52.5h-100l-67 -249h-101zM276 331h90q155 0 189 126q17 64 -14 90.5t-113 26.5h-87z" />
<glyph unicode="Q" horiz-adv-x="670" d="M495 -170l-1 2q-91 0 -144 44t-65 116q-103 17 -143.5 107.5t-2.5 231.5q41 156 143.5 246.5t230.5 90.5t182.5 -91t13.5 -246q-37 -138 -122 -227t-194 -110q23 -80 135 -80q37 0 73 9l-1 -76q-45 -17 -105 -17zM354 71q82 0 150 70t100 189q31 115 -0.5 181.5 t-113.5 66.5t-148.5 -66.5t-97.5 -181.5q-32 -120 -2 -189.5t112 -69.5z" />
<glyph unicode="R" horiz-adv-x="581" d="M86 0l175 654h213q236 0 185 -189q-39 -146 -189 -187l86 -279h-114l-77 266h-107l-71 -265h-101zM279 346h99q148 0 180 119q16 58 -14 83t-104 25h-100z" />
<glyph unicode="S" horiz-adv-x="540" d="M270 -12l-2 1q-138 0 -207 96l78 70q57 -79 154 -79q59 0 99 26t51 69q8 28 -2 48.5t-25 30.5t-49 26l-1 1l-81 40q-118 54 -87 171q21 77 95 128t167 51q117 0 176 -82l-70 -65q-49 59 -129 59q-50 0 -86.5 -23t-46.5 -63q-3 -10 -3 -19.5t2.5 -17t6 -14t10.5 -12.5 t12.5 -10.5t16 -9.5t17 -8t17.5 -8l1 -1l80 -38q57 -28 80.5 -68.5t5.5 -107.5q-22 -81 -99 -136t-181 -55z" />
<glyph unicode="T" horiz-adv-x="542" d="M220 0l154 570h-193l23 85h487l-23 -85h-193l-153 -570h-102z" />
<glyph unicode="U" horiz-adv-x="650" d="M323 -12h1q-243 0 -165 291l100 375h101l-102 -381q-53 -198 88 -198q144 0 197 198l102 381h97l-100 -375q-78 -291 -318 -291h-1z" />
<glyph unicode="V" horiz-adv-x="526" d="M204 0l-31 655h108l6 -340q1 -32 1 -90q0 -81 2 -125h4q25 44 64.5 117t53.5 98l188 340h103l-380 -655h-119z" />
<glyph unicode="W" horiz-adv-x="794" d="M154 0l44 655h104l-30 -342q-4 -35 -11 -105t-11 -105h4q30 64 100 210l177 342h90l-7 -342q-1 -30 -3 -65.5t-5 -78t-4 -67.5h4q60 142 91 211l154 342h97l-306 -655h-124l9 368q3 81 10 149h-4q-31 -68 -71 -149l-186 -368h-122z" />
<glyph unicode="X" horiz-adv-x="528" d="M14 0l279 338l-91 317h112l38 -156q3 -11 23 -98h4q29 42 72 98l119 156h107l-263 -322l99 -333h-112l-43 165q-14 55 -25 105h-4q-39 -54 -79 -105l-129 -165h-107z" />
<glyph unicode="Y" horiz-adv-x="490" d="M194 0l67 248l-88 407h108l30 -175q11 -77 22 -143h4q85 119 101 143l124 175h106l-306 -407l-66 -248h-102z" />
<glyph unicode="Z" horiz-adv-x="540" d="M42 0l16 61l466 509h-299l23 85h425l-16 -60l-467 -509h333l-23 -86h-458z" />
<glyph unicode="[" horiz-adv-x="314" d="M51 -152l231 861h188l-15 -56h-113l-201 -749h113l-15 -56h-188z" />
<glyph unicode="\" horiz-adv-x="347" d="M224 -160l-16 870h69l16 -870h-69z" />
<glyph unicode="]" horiz-adv-x="314" d="M-6 -152l15 55h112l201 749h-112l15 56h187l-231 -860h-187z" />
<glyph unicode="^" horiz-adv-x="506" d="M132 281l258 389h86l48 -389h-86l-16 163l-12 134h-4l-85 -134l-103 -163h-86z" />
<glyph unicode="_" horiz-adv-x="500" d="M-23 -130l17 63h476l-17 -63h-476z" />
<glyph unicode="`" horiz-adv-x="546" d="M434 573l-122 154l87 67l99 -171z" />
<glyph unicode="a" horiz-adv-x="510" d="M191 -12q-63 0 -93 38.5t-12 102.5q21 79 102 122t240 60q27 108 -66 108q-63 0 -155 -50l-19 68q116 64 213 64q176 0 122 -207l-79 -294h-82l7 56h-3q-100 -68 -175 -68zM244 67l1 -1q55 0 134 59l32 122q-109 -13 -161.5 -40t-64.5 -70q-9 -35 7.5 -52.5t51.5 -17.5z M190 -12h1h-1z" />
<glyph unicode="b" horiz-adv-x="558" d="M302 -12q-71 0 -121 63h-3l-22 -51h-80l190 709h100l-50 -188l-25 -85q91 65 164 65q92 0 124.5 -67t2.5 -182q-32 -120 -112.5 -192t-167.5 -72zM304 71q56 0 104 48t71 132q46 166 -72 166q-56 0 -134 -60l-64 -241q40 -45 95 -45z" />
<glyph unicode="c" horiz-adv-x="459" d="M273 -12v-2q-102 0 -149 68.5t-16 187.5q32 119 120.5 188.5t188.5 69.5q79 0 128 -56l-67 -65q-35 40 -79 40q-63 0 -115 -48.5t-73 -126.5t5 -126t88 -48q56 0 119 45l24 -66q-84 -61 -174 -61z" />
<glyph unicode="d" horiz-adv-x="560" d="M243 -12l-1 -1q-93 0 -129.5 68t-3.5 188q30 115 111 186t166 71q68 0 118 -55l18 81l49 182h101l-190 -709h-82l6 55h-3q-86 -66 -160 -66zM287 70h1q60 0 128 61l64 240q-38 45 -95 45q-54 0 -103 -47t-70 -125q-22 -83 -2.5 -128.5t77.5 -45.5z" />
<glyph unicode="e" horiz-adv-x="502" d="M278 -12q-103 0 -152 69t-18 186q30 115 115.5 186.5t174.5 71.5q95 0 130.5 -63t6.5 -168q-7 -28 -17 -52h-319q-13 -70 17 -110.5t95 -40.5q58 0 128 36l17 -64q-91 -51 -178 -51zM217 288h237q17 65 -1.5 100t-71.5 35q-48 0 -94 -36t-70 -99z" />
<glyph unicode="f" horiz-adv-x="306" d="M94 0l110 409h-66l20 75l68 5l17 63q20 79 70 124.5t128 45.5q44 0 82 -17l-41 -76q-24 12 -52 12q-66 0 -88 -88l-17 -64h100l-22 -80h-100l-109 -409h-100z" />
<glyph unicode="g" horiz-adv-x="512" d="M186 -220h-2q-91 0 -138 33.5t-31 95.5q16 60 100 107l1 4q-35 28 -22 81q15 56 78 91l1 4q-50 50 -29 131q21 80 88.5 127.5t146.5 47.5q39 0 68 -12h172l-20 -75h-94q25 -36 10 -91q-21 -78 -85.5 -123.5t-143.5 -45.5q-36 0 -64 15q-33 -24 -41 -52q-6 -23 10 -35.5 t61 -12.5h90q88 0 124 -29t20 -90q-19 -72 -102.5 -121.5t-197.5 -49.5zM217 -153l-1 -1q63 0 110.5 26t57.5 62q8 30 -11.5 42t-65.5 12h-75q-39 0 -63 8q-51 -31 -63 -72q-10 -36 19.5 -56.5t91.5 -20.5zM305 220q40 0 74.5 29t47.5 77t-6 76t-59 28t-74 -28t-47 -76 t6 -77t58 -29z" />
<glyph unicode="h" horiz-adv-x="552" d="M77 0l189 709h100l-50 -188l-30 -97q103 77 180 77q150 0 99 -193l-83 -308h-100l79 295q17 65 4.5 92.5t-56.5 27.5q-32 0 -62.5 -16t-76.5 -52l-93 -347h-100z" />
<glyph unicode="i" horiz-adv-x="254" d="M77 0l131 489h100l-131 -489h-100zM284 581q-28 0 -42 17t-7 43q7 27 30 43.5t51 16.5t42 -16.5t7 -43.5q-7 -26 -30 -43t-51 -17z" />
<glyph unicode="j" horiz-adv-x="256" d="M-23 -211l-1 1q-43 0 -73 13l40 75q22 -8 42 -8q33 0 51.5 22.5t31.5 68.5l142 529h100l-141 -528q-46 -173 -192 -173zM284 582q-28 0 -42 17t-7 43q7 27 30 43.5t51 16.5t41.5 -16.5t6.5 -43.5q-7 -26 -30 -43t-50 -17z" />
<glyph unicode="k" horiz-adv-x="510" d="M77 0l191 708h98l-123 -460h3l257 240h110l-219 -198l108 -291h-109l-74 223l-110 -96l-34 -126h-98z" />
<glyph unicode="l" horiz-adv-x="264" d="M175 -12l1 2q-101 0 -68 125l160 595h100l-161 -601q-11 -38 13 -38q9 0 19 2l-7 -75q-23 -10 -57 -10z" />
<glyph unicode="m" horiz-adv-x="837" d="M77 0l132 487h82l-10 -68h3q97 81 172 81q101 0 112 -91q107 90 182 90q150 0 99 -193l-83 -308h-100l79 295q17 65 4.5 92.5t-55.5 27.5q-49 0 -129 -67l-93 -347h-100l79 295q17 64 4.5 92t-55.5 28q-50 0 -130 -67l-93 -347h-100z" />
<glyph unicode="n" horiz-adv-x="554" d="M77 0l131 489h82l-10 -68h3q104 80 183 80q150 0 99 -193l-83 -308h-100l79 295q17 65 4.5 92.5t-56.5 27.5q-32 0 -62.5 -16t-76.5 -52l-93 -347h-100z" />
<glyph unicode="o" horiz-adv-x="546" d="M270 -12h1q-95 0 -144 69.5t-18 186.5q32 118 117.5 188t180.5 70t144 -70t17 -188q-31 -117 -116.5 -186.5t-180.5 -69.5h-1zM293 70q58 0 105 47.5t68 126.5t-0.5 127t-79.5 48t-105 -48t-68 -127q-21 -78 0.5 -126t79.5 -48z" />
<glyph unicode="p" horiz-adv-x="560" d="M24 -199l184 689h82l-6 -54h3q95 66 169 66q92 0 124.5 -67t2.5 -183q-32 -120 -112.5 -191.5t-167.5 -71.5q-64 0 -116 54l-20 -83l-43 -159h-100zM304 72q56 0 104 48t71 132q46 166 -72 166q-53 0 -134 -60l-64 -241q41 -45 95 -45z" />
<glyph unicode="q" horiz-adv-x="560" d="M329 -199l46 166l27 85q-84 -64 -157 -64q-93 0 -129.5 68t-3.5 188q30 115 111 186t166 71q72 0 122 -59h2l21 47h80l-184 -688h-101zM291 70h1q60 0 128 61l64 240q-38 45 -95 45q-54 0 -103 -47t-70 -125q-22 -83 -2.5 -128.5t77.5 -45.5z" />
<glyph unicode="r" horiz-adv-x="361" d="M77 0l131 489h82l-15 -88h3q80 99 165 99q32 0 52 -10l-42 -87q-24 8 -46 8q-77 0 -148 -106l-82 -305h-100z" />
<glyph unicode="s" horiz-adv-x="426" d="M209 -12q-100 0 -165 68l65 65q56 -56 124 -56q42 0 69 18.5t35 48.5q5 16 0.5 28.5t-20 23t-26.5 16.5t-35 16h-1q-1 1 -2 1q-17 7 -30 13.5t-28.5 16.5t-24 20t-17.5 24.5t-8 30t4 37.5q17 63 74.5 103t137.5 40q86 0 142 -58l-63 -62q-46 43 -98 43q-39 0 -64.5 -17.5 t-31.5 -44.5q-7 -26 11.5 -41.5t61.5 -32.5q2 -1 5.5 -2.5t4.5 -1.5q14 -6 23 -10t22 -10.5t21 -13t17.5 -15t14.5 -18.5t8.5 -22.5t2.5 -27t-5 -31.5q-18 -64 -78 -106t-146 -43zM207 -12h2h-2z" />
<glyph unicode="t" horiz-adv-x="350" d="M238 -12q-147 0 -102 170l67 250h-71l20 75l77 5l49 135h84l-37 -135h128l-22 -80h-128l-67 -250q-24 -90 48 -90q24 0 56 12l-1 -74q-60 -18 -101 -18h1h-1z" />
<glyph unicode="u" horiz-adv-x="551" d="M218 -12l-2 1q-151 0 -98 193l82 308h101l-79 -295q-17 -65 -5 -92.5t56 -27.5q61 0 139 74l91 340h100l-131 -489h-82l12 74h-3q-96 -86 -181 -86z" />
<glyph unicode="v" horiz-adv-x="482" d="M185 0l-42 489h102l14 -264q0 -50 4 -146h4q29 54 81 146l155 264h98l-300 -489h-116z" />
<glyph unicode="w" horiz-adv-x="734" d="M156 0l1 489h101l-6 -267q-2 -45 -10 -138h4q8 15 21.5 43.5t25 51.5t22.5 43l140 267h93l-1 -267q0 -46 -4 -138h4q6 13 65 138l136 267h94l-258 -489h-120l2 244q1 27 3 77.5t3 63.5h-4q-58 -122 -69 -142l-127 -243h-116z" />
<glyph unicode="x" horiz-adv-x="465" d="M14 0l225 255l-84 234h108l33 -100q24 -78 25 -81h4q27 36 63 81l78 100h104l-211 -245l91 -244h-108l-37 104q-3 10 -8.5 28t-10 32.5t-8.5 26.5h-4q-31 -36 -70 -87l-86 -104h-104z" />
<glyph unicode="y" horiz-adv-x="482" d="M44 -205l1 1q-32 0 -57 10l39 78q21 -7 35 -7q73 0 128 93l19 33l-64 486h102l23 -254q3 -38 7 -138h4q40 72 76 138l147 254h97l-319 -519q-53 -86 -109 -130.5t-129 -44.5z" />
<glyph unicode="z" horiz-adv-x="435" d="M33 0l15 54l337 355h-216l22 80h342l-15 -54l-337 -355h250l-22 -80h-376z" />
<glyph unicode="{" horiz-adv-x="314" d="M189 -152l-1 2q-64 0 -84 29.5t0 105.5q10 38 30.5 96.5t29.5 89.5q9 33 -5 54.5t-60 22.5l16 62q87 1 107 76q9 33 20 92t21 95q20 76 56.5 105.5t100.5 29.5h50l-15 -56h-25q-38 0 -56.5 -19t-30.5 -66q-8 -28 -20.5 -85t-21.5 -91q-13 -50 -35.5 -76t-58.5 -35l-1 -4 q32 -9 39.5 -35t-5.5 -76q-9 -34 -27 -90.5t-26 -85.5q-13 -47 -4 -66t46 -19h25l-15 -56h-50z" />
<glyph unicode="|" horiz-adv-x="248" d="M23 -250l268 1000h68l-268 -1000h-68z" />
<glyph unicode="}" horiz-adv-x="314" d="M-6 -152l15 54h24q38 0 56.5 19t30.5 66q8 28 21 85t22 91q13 50 35 76t58 35l1 4q-31 9 -39 34.5t6 76.5q9 34 26.5 90.5t25.5 85.5q13 47 4 66t-46 19h-24l15 56h49q64 0 83.5 -29.5t-0.5 -105.5q-10 -37 -30.5 -96t-29.5 -91t5.5 -53.5t60.5 -22.5l-16 -62 q-87 -1 -107 -77q-9 -33 -20.5 -91.5t-20.5 -94.5q-20 -76 -56 -105.5t-100 -29.5h-49z" />
<glyph unicode="~" horiz-adv-x="506" d="M407 252h-1q-34 0 -61 20.5t-49 41t-45 20.5q-41 0 -91 -60l-44 40q81 93 158 93q34 0 60.5 -20.5t48.5 -41t45 -20.5q43 0 93 60l44 -41q-81 -92 -158 -92z" />
<glyph unicode="&#xa1;" horiz-adv-x="303" d="M53 -181l31 105l109 358h68l-82 -358l-25 -105h-101zM249 359q-29 0 -43 20.5t-6 51.5q7 30 32 50t54 20q28 0 42 -20t7 -50q-8 -31 -33 -51.5t-53 -20.5z" />
<glyph unicode="&#xa2;" horiz-adv-x="506" d="M256 -34l27 101q-90 11 -128.5 75t-10.5 168q27 100 101 163.5t168 77.5l28 104h60l-27 -101q74 -5 114 -58l-64 -63q-30 35 -72 38l-87 -324q52 4 108 44l25 -63q-76 -55 -155 -63l-27 -99h-60zM306 153l84 311q-54 -14 -92.5 -55t-54.5 -100q-16 -60 0.5 -101t62.5 -55 z" />
<glyph unicode="&#xa3;" horiz-adv-x="506" d="M52 0l16 64q57 26 97.5 71.5t55.5 100.5q5 21 7 48h-101l17 62l68 4h16h-1q-2 78 7 111q23 87 90.5 138.5t153.5 51.5q98 0 140 -77l-72 -56q-27 50 -81 50q-50 0 -85.5 -29.5t-49.5 -81.5q-9 -35 -9 -102v-5h156l-18 -66h-141q-2 -25 -9 -50q-20 -82 -95 -144l-1 -4h275 l-23 -86h-413z" />
<glyph unicode="&#xa4;" horiz-adv-x="506" d="M103 98l-35 53l80 64q-23 47 -5 114t66 115l-46 65l66 53l49 -70q57 34 117 34t99 -34l87 70l38 -53l-81 -65q22 -50 5 -115q-17 -63 -68 -114l47 -64l-66 -53l-50 69q-56 -35 -117 -35t-99 35zM311 206h1q46 0 87 35t56 89t-8 89t-69 35t-87 -35t-56 -89t7.5 -89 t68.5 -35z" />
<glyph unicode="&#xa5;" horiz-adv-x="506" d="M202 0l40 155h-160l15 54h160l17 62h-160l14 54h136l-74 312h104l27 -160q14 -88 21 -134h4q19 27 52 74.5t42 59.5l114 160h102l-243 -312h136l-14 -54h-160l-17 -62h160l-15 -54h-160l-41 -155h-100z" />
<glyph unicode="&#xa6;" horiz-adv-x="248" d="M23 -250l123 461h68l-123 -461h-68zM170 297l121 453h68l-121 -453h-68z" />
<glyph unicode="&#xa7;" horiz-adv-x="506" d="M218 -71l2 2q-114 0 -159 75l74 53q38 -51 105 -51q36 0 61.5 17.5t32.5 43.5q4 16 0 29t-19 24.5t-26.5 18.5t-36.5 19l-30 15t-28 16.5t-27 20t-20 23t-14.5 29t-4 34t5.5 41.5q20 80 118 127q-21 36 -9 83q16 59 68.5 98t126.5 39q87 0 146 -59l-64 -64q-44 46 -97 46 q-73 0 -87 -57q-7 -28 13.5 -46t68.5 -42q18 -9 26.5 -13.5t25 -14.5t25 -17t20 -18.5t17 -23t10 -26t3.5 -32t-6 -36.5q-21 -80 -119 -130q19 -34 7 -81q-18 -62 -75.5 -102.5t-133.5 -40.5zM377 197q60 28 73 79q6 22 1.5 39t-23 32t-31 22.5t-42.5 22.5q-40 20 -58 31 q-62 -31 -75 -79q-3 -9 -3 -18t1.5 -16t6.5 -14.5t8.5 -12.5t12.5 -12t14.5 -10.5t17 -10t17 -9.5t18.5 -9q46 -24 62 -35z" />
<glyph unicode="&#xa8;" horiz-adv-x="546" d="M329 582q-25 0 -36.5 16.5t-4.5 39.5q6 24 26.5 40t44.5 16t35.5 -16.5t5.5 -39.5q-7 -24 -27 -40t-44 -16zM528 582q-24 0 -35.5 16.5t-4.5 39.5q6 23 26 39.5t44 16.5t36 -16t6 -40q-7 -24 -27.5 -40t-44.5 -16z" />
<glyph unicode="&#xa9;" horiz-adv-x="746" d="M370 -10q-136 0 -205.5 92.5t-29.5 241.5q39 148 158 239t255 91t206 -90.5t31 -239.5q-40 -149 -159.5 -241.5t-255.5 -92.5zM382 37q115 0 215 80t134 207q33 126 -24.5 204.5t-172.5 78.5t-214.5 -78.5t-132.5 -204.5q-34 -127 23 -207t172 -80zM415 126l-2 1 q-80 0 -118 53.5t-13 143.5q23 84 92.5 137t145.5 53q68 0 112 -58l-53 -45q-30 39 -72 39q-52 0 -93 -35.5t-55 -91.5q-16 -61 4.5 -97.5t71.5 -36.5q47 0 108 42l22 -49q-81 -56 -150 -56z" />
<glyph unicode="&#xaa;" horiz-adv-x="349" d="M237 382l-1 -1q-45 0 -65 26.5t-9 68.5q14 52 68.5 80.5t159.5 39.5q15 65 -41 65q-41 0 -107 -33l-13 50q80 43 147 43q120 0 83 -137l-51 -194h-59l2 36h-4q-61 -44 -110 -44zM274 438v-1q34 0 84 36l20 77q-128 -13 -143 -68q-12 -44 39 -44z" />
<glyph unicode="&#xab;" horiz-adv-x="443" d="M366 62l-95 151l20 74l176 152l32 -34l-157 -155l73 -156zM199 63l-95 151l20 74l176 152l32 -34l-157 -155l73 -156z" />
<glyph unicode="&#xac;" horiz-adv-x="506" d="M421 101l51 192h-360l20 74h438l-71 -266h-78z" />
<glyph unicode="&#xad;" horiz-adv-x="317" d="M99 214l20 74h234l-20 -74h-234z" />
<glyph unicode="&#xae;" horiz-adv-x="434" d="M301 317q-80 0 -120.5 56t-17.5 142q24 86 94 142t150 56q81 0 122 -56t17 -142q-23 -86 -93.5 -142t-151.5 -56zM312 357q64 0 117.5 44t72.5 114t-11 114.5t-94 44.5q-63 0 -116.5 -44.5t-72.5 -114.5t10.5 -114t93.5 -44zM254 417l55 201h80q35 0 52.5 -16t8.5 -49 q-12 -41 -52 -55l23 -81h-50l-16 67h-38l-17 -67h-46zM328 518h25q38 0 48 32q8 31 -30 31h-26z" />
<glyph unicode="&#xaf;" horiz-adv-x="546" d="M296 598l18 67h274l-18 -67h-274z" />
<glyph unicode="&#xb0;" horiz-adv-x="340" d="M283 420h1q-55 0 -83 37t-13 95q15 59 63 96t103 37t82.5 -37t12.5 -96q-15 -58 -63 -95t-102 -37h-1zM298 473q32 0 58.5 22t36.5 57q10 36 -4.5 58.5t-46.5 22.5t-58.5 -22.5t-36.5 -58.5q-10 -35 4.5 -57t46.5 -22z" />
<glyph unicode="&#xb1;" horiz-adv-x="506" d="M251 136l44 166h-180l20 74h180l49 184h77l-49 -184h180l-20 -74h-180l-44 -166h-77zM34 1l20 74h438l-20 -74h-438z" />
<glyph unicode="&#xb2;" horiz-adv-x="370" d="M50 390l13 40q122 88 175.5 134.5t63.5 85.5q10 36 -3.5 56.5t-45.5 20.5q-41 0 -95 -54l-34 41q74 77 156 77q61 0 88 -33.5t11 -93.5q-9 -34 -39.5 -71.5t-58.5 -62t-91 -75.5h152l-18 -65h-274z" />
<glyph unicode="&#xb3;" horiz-adv-x="370" d="M179 378l-2 -1q-47 0 -80 21t-48 56l60 38q22 -55 79 -55q31 0 56 17t33 47q8 31 -17 47.5t-79 16.5l13 47q46 0 76.5 17.5t38.5 46.5q7 26 -6.5 41t-42.5 15q-39 0 -87 -45l-34 40q75 65 150 65q53 0 82 -29t17 -77q-16 -62 -90 -95q32 -10 48 -35t6 -60 q-14 -53 -64 -85.5t-109 -32.5z" />
<glyph unicode="&#xb4;" horiz-adv-x="546" d="M419 573l-37 50l190 171l52 -67z" />
<glyph unicode="&#xb5;" horiz-adv-x="571" d="M29 -178l177 668h100l-79 -295q-17 -61 -5 -90.5t54 -29.5q68 0 139 87l88 328h101q-8 -27 -49.5 -171.5t-58.5 -207.5q-11 -40 28 -40q14 0 32 6l-7 -75q-31 -14 -69 -14q-44 0 -62 22t-13 69h-2q-72 -88 -150 -88q-59 0 -75 41q-28 -108 -48 -210h-101z" />
<glyph unicode="&#xb6;" horiz-adv-x="581" d="M389 218h-34q-114 0 -169 56t-26 165q58 216 302 216h44zM363 -80l197 735h102l-197 -735h-102z" />
<glyph unicode="&#xb7;" horiz-adv-x="263" d="M129 250q-29 0 -43 20t-7 50q9 31 34 51.5t54 20.5q28 0 42 -20.5t5 -51.5q-7 -30 -32 -50t-53 -20z" />
<glyph unicode="&#xb8;" horiz-adv-x="546" d="M125 -230l4 45q62 4 88.5 15.5t32.5 33.5q5 18 -10 29t-56 17l71 93h62l-47 -66q70 -17 55 -72q-24 -87 -200 -95z" />
<glyph unicode="&#xb9;" horiz-adv-x="370" d="M170 390l80 300h-86l13 49q61 10 113 41h61l-105 -390h-76z" />
<glyph unicode="&#xba;" horiz-adv-x="367" d="M286 382h-1q-66 0 -98.5 45.5t-11.5 123.5t78 124t123 46q65 0 98 -46t12 -124t-78 -123.5t-122 -45.5zM301 442q38 0 67 30t43 80t1 80.5t-51 30.5t-67 -30t-43 -81q-14 -49 -1 -79.5t51 -30.5z" />
<glyph unicode="&#xbb;" horiz-adv-x="443" d="M112 63l-32 33l159 156l-75 155l49 34l96 -152l-20 -74zM279 64l-32 33l159 156l-75 155l49 34l96 -152l-20 -74z" />
<glyph unicode="&#xbc;" horiz-adv-x="789" d="M635 0l26 99h-178l11 39l225 252h89l-64 -238h58l-14 -53h-58l-27 -99h-68zM177 -12l541 679h64l-541 -679h-64zM144 265l80 300h-86l13 49q61 10 113 41h61l-105 -390h-76zM675 152l17 62l34 111h-4l-69 -80l-80 -93h102z" />
<glyph unicode="&#xbd;" horiz-adv-x="818" d="M498 0l13 40q122 88 175.5 134.5t63.5 85.5q10 36 -3.5 56.5t-45.5 20.5q-41 0 -95 -54l-34 41q74 77 156 77q61 0 88 -33.5t11 -93.5q-9 -34 -39.5 -71.5t-58.5 -62t-91 -75.5h152l-18 -65h-274zM159 -12l541 679h64l-541 -679h-64zM144 265l80 300h-86l13 49 q61 10 113 41h61l-105 -390h-76z" />
<glyph unicode="&#xbe;" horiz-adv-x="802" d="M648 -1l26 99h-178l11 39l225 252h89l-64 -238h58l-14 -53h-58l-27 -99h-68zM177 253l-2 -1q-47 0 -80 21t-48 56l60 38q22 -55 79 -55q31 0 56 17t33 47q8 31 -17 47.5t-79 16.5l13 47q46 0 76.5 17.5t38.5 46.5q7 26 -6.5 41t-42.5 15q-39 0 -87 -45l-34 40 q75 65 150 65q53 0 82 -29t17 -77q-16 -62 -90 -95q32 -10 48 -35t6 -60q-14 -53 -64 -85.5t-109 -32.5zM210 -13l541 679h64l-541 -679h-64zM688 151l17 62l34 111h-4l-69 -80l-80 -93h102z" />
<glyph unicode="&#xbf;" horiz-adv-x="436" d="M167 -193l1 1q-79 0 -114.5 43t-15.5 120q10 35 35 68t54.5 59.5t58.5 53t51 60.5t28 71h88q-5 -42 -27 -79.5t-50 -65.5t-56.5 -53.5t-52 -53.5t-30.5 -54q-11 -39 6 -63t59 -24q61 0 121 54l44 -52q-101 -85 -200 -85zM329 360q-29 0 -43 20.5t-6 51.5q7 30 32 50 t54 20q28 0 42 -20t7 -50q-8 -31 -33 -51.5t-53 -20.5z" />
<glyph unicode="&#xc0;" horiz-adv-x="552" d="M0 0l393 655h117l42 -655h-108l-6 188h-229l-106 -188h-103zM255 268h181l-3 89q-4 95 -4 218h-4q-73 -139 -120 -218zM475 693l-130 116l73 66l115 -131z" />
<glyph unicode="&#xc1;" horiz-adv-x="552" d="M0 0l393 655h117l42 -655h-108l-6 188h-229l-106 -188h-103zM255 268h181l-3 89q-4 95 -4 218h-4q-73 -139 -120 -218zM444 693l-32 51l185 131l39 -66z" />
<glyph unicode="&#xc2;" horiz-adv-x="552" d="M0 0l393 655h117l42 -655h-108l-6 188h-229l-106 -188h-103zM255 268h181l-3 89q-4 95 -4 218h-4q-73 -139 -120 -218zM314 725l133 112h106l70 -112l-52 -30l-84 90h-4l-133 -90z" />
<glyph unicode="&#xc3;" horiz-adv-x="552" d="M0 0l393 655h117l42 -655h-108l-6 188h-229l-106 -188h-103zM537 705q-25 0 -45 10.5t-30.5 23t-24 23t-27.5 10.5q-38 0 -62 -61l-65 5q20 62 58 95.5t86 33.5q25 0 45 -10.5t30.5 -23t24 -23t27.5 -10.5q37 0 61 61l66 -5q-20 -62 -58 -95.5t-86 -33.5zM255 268h181 l-3 89q-4 95 -4 218h-4q-73 -139 -120 -218z" />
<glyph unicode="&#xc4;" horiz-adv-x="552" d="M0 0l393 655h117l42 -655h-108l-6 188h-229l-106 -188h-103zM255 268h181l-3 89q-4 95 -4 218h-4q-73 -139 -120 -218zM359 711h-1q-24 0 -35.5 16t-4.5 39q6 24 26 39.5t44 15.5t35 -15.5t5 -39.5q-7 -24 -26 -39.5t-43 -15.5zM568 711q-24 0 -35.5 16t-4.5 39 q6 24 25.5 39.5t43.5 15.5t35.5 -15.5t5.5 -39.5q-7 -24 -26.5 -39.5t-43.5 -15.5z" />
<glyph unicode="&#xc5;" horiz-adv-x="552" d="M0 0l393 655h117l42 -655h-108l-6 188h-229l-106 -188h-103zM461 699h-1q-45 0 -66 25.5t-10 67.5t46.5 67.5t80.5 25.5q44 0 65.5 -25.5t10.5 -67.5t-46.5 -67.5t-79.5 -25.5zM255 268h181l-3 89q-4 95 -4 218h-4q-73 -139 -120 -218zM471 740h1q20 0 38 13.5t24 37.5 q7 23 -4 37t-31 14q-21 0 -38.5 -14t-24.5 -37q-7 -24 3.5 -37.5t31.5 -13.5z" />
<glyph unicode="&#xc6;" horiz-adv-x="828" d="M2 0l511 656h432l-23 -85h-270l-50 -185h226l-23 -86h-226l-57 -214h280l-23 -86h-382l48 180h-198l-139 -180h-106zM308 260h159l84 316h-4q-94 -127 -154 -206z" />
<glyph unicode="&#xc7;" horiz-adv-x="574" d="M194 -231l4 45q62 4 88.5 15.5t32.5 33.5q5 18 -10 29t-56 17l60 79q-114 10 -163 99.5t-9 238.5q41 155 149.5 247.5t236.5 92.5q57 0 98.5 -23t63.5 -59l-71 -65q-42 59 -114 59q-86 0 -157.5 -67.5t-102.5 -182.5q-31 -117 2 -185t120 -68q80 0 163 71l38 -63 q-90 -79 -189 -92l-39 -55q70 -17 55 -72q-24 -87 -200 -95z" />
<glyph unicode="&#xc8;" horiz-adv-x="533" d="M86 0l176 656h386l-23 -85h-286l-50 -185h242l-23 -86h-242l-57 -214h296l-23 -86h-396zM486 694l-130 116l73 66l115 -131z" />
<glyph unicode="&#xc9;" horiz-adv-x="533" d="M86 0l176 656h386l-23 -85h-286l-50 -185h242l-23 -86h-242l-57 -214h296l-23 -86h-396zM456 694l-32 51l185 131l39 -66z" />
<glyph unicode="&#xca;" horiz-adv-x="533" d="M86 0l176 656h386l-23 -85h-286l-50 -185h242l-23 -86h-242l-57 -214h296l-23 -86h-396zM325 726l133 112h106l70 -112l-52 -30l-84 90h-4l-133 -90z" />
<glyph unicode="&#xcb;" horiz-adv-x="533" d="M86 0l176 656h386l-23 -85h-286l-50 -185h242l-23 -86h-242l-57 -214h296l-23 -86h-396zM371 712h-1q-24 0 -35.5 16t-4.5 39q6 24 26 39.5t44 15.5t35 -15.5t5 -39.5q-7 -24 -26 -39.5t-43 -15.5zM580 712q-24 0 -35.5 16t-4.5 39q6 24 25.5 39.5t43.5 15.5t35.5 -15.5 t5.5 -39.5q-7 -24 -26.5 -39.5t-43.5 -15.5z" />
<glyph unicode="&#xcc;" horiz-adv-x="274" d="M86 0l176 655h101l-176 -655h-101zM337 693l-130 116l73 66l115 -131z" />
<glyph unicode="&#xcd;" horiz-adv-x="274" d="M86 0l176 655h101l-176 -655h-101zM307 693l-32 51l185 131l39 -66z" />
<glyph unicode="&#xce;" horiz-adv-x="274" d="M86 0l176 655h101l-176 -655h-101zM176 725l133 112h106l70 -112l-52 -30l-84 90h-4l-133 -90z" />
<glyph unicode="&#xcf;" horiz-adv-x="274" d="M86 0l176 655h101l-176 -655h-101zM222 711h-1q-24 0 -35.5 16t-4.5 39q6 24 26 39.5t44 15.5t35 -15.5t5 -39.5q-7 -24 -26 -39.5t-43 -15.5zM431 711q-24 0 -35.5 16t-4.5 39q6 24 25.5 39.5t43.5 15.5t35.5 -15.5t5.5 -39.5q-7 -24 -26.5 -39.5t-43.5 -15.5z" />
<glyph unicode="&#xd0;" horiz-adv-x="644" d="M116 316l14 50l79 4l76 285h170q152 0 211 -83t17 -241q-43 -159 -146.5 -244.5t-251.5 -85.5h-175l84 315h-78zM232 82l63 1q106 0 178.5 63t105.5 185q64 242 -153 242h-62l-55 -203h143l-15 -54h-142z" />
<glyph unicode="&#xd1;" horiz-adv-x="652" d="M86 0l177 655h104l114 -388l33 -138h4q33 173 46 217l83 309h96l-176 -655h-104l-115 389l-33 137h-4q-31 -161 -45 -214l-84 -312h-96zM593 705q-25 0 -45 10.5t-30.5 23t-24 23t-27.5 10.5q-38 0 -62 -61l-65 5q20 62 58 95.5t86 33.5q25 0 45 -10.5t30.5 -23t24 -23 t27.5 -10.5q37 0 61 61l66 -5q-20 -62 -58 -95.5t-86 -33.5z" />
<glyph unicode="&#xd2;" horiz-adv-x="670" d="M332 -12q-127 0 -181 93t-12 250q41 156 143.5 246.5t230.5 90.5t182.5 -91t13.5 -246q-42 -157 -146 -250t-231 -93zM355 76q82 0 150 69.5t99 185.5q31 115 -0.5 181.5t-113.5 66.5t-148.5 -66.5t-97.5 -181.5q-31 -116 -1 -185.5t112 -69.5zM536 692l-130 116l73 66 l115 -131z" />
<glyph unicode="&#xd3;" horiz-adv-x="670" d="M332 -12q-127 0 -181 93t-12 250q41 156 143.5 246.5t230.5 90.5t182.5 -91t13.5 -246q-42 -157 -146 -250t-231 -93zM355 76q82 0 150 69.5t99 185.5q31 115 -0.5 181.5t-113.5 66.5t-148.5 -66.5t-97.5 -181.5q-31 -116 -1 -185.5t112 -69.5zM506 692l-32 51l185 131 l39 -66z" />
<glyph unicode="&#xd4;" horiz-adv-x="670" d="M332 -12q-127 0 -181 93t-12 250q41 156 143.5 246.5t230.5 90.5t182.5 -91t13.5 -246q-42 -157 -146 -250t-231 -93zM355 76q82 0 150 69.5t99 185.5q31 115 -0.5 181.5t-113.5 66.5t-148.5 -66.5t-97.5 -181.5q-31 -116 -1 -185.5t112 -69.5zM375 725l133 112h106 l70 -112l-52 -30l-84 90h-4l-133 -90z" />
<glyph unicode="&#xd5;" horiz-adv-x="670" d="M332 -12q-127 0 -181 93t-12 250q41 156 143.5 246.5t230.5 90.5t182.5 -91t13.5 -246q-42 -157 -146 -250t-231 -93zM355 76q82 0 150 69.5t99 185.5q31 115 -0.5 181.5t-113.5 66.5t-148.5 -66.5t-97.5 -181.5q-31 -116 -1 -185.5t112 -69.5zM598 704q-32 0 -54.5 17 t-39 33.5t-33.5 16.5q-38 0 -62 -61l-65 5q20 62 58 95.5t86 33.5q32 0 54.5 -17t39 -33.5t33.5 -16.5q37 0 61 61l66 -5q-20 -62 -58 -95.5t-86 -33.5z" />
<glyph unicode="&#xd6;" horiz-adv-x="670" d="M332 -12q-127 0 -181 93t-12 250q41 156 143.5 246.5t230.5 90.5t182.5 -91t13.5 -246q-42 -157 -146 -250t-231 -93zM355 76q82 0 150 69.5t99 185.5q31 115 -0.5 181.5t-113.5 66.5t-148.5 -66.5t-97.5 -181.5q-31 -116 -1 -185.5t112 -69.5zM421 711h-1 q-24 0 -35.5 16t-4.5 39q6 24 26 39.5t44 15.5t35 -15.5t5 -39.5q-7 -24 -26 -39.5t-43 -15.5zM630 711q-24 0 -35.5 16t-4.5 39q6 24 25.5 39.5t43.5 15.5t35.5 -15.5t5.5 -39.5q-7 -24 -26.5 -39.5t-43.5 -15.5z" />
<glyph unicode="&#xd7;" horiz-adv-x="506" d="M134 122l-40 53l193 155l-110 154l66 53l110 -155l193 155l38 -53l-193 -154l111 -155l-66 -53l-109 156z" />
<glyph unicode="&#xd8;" horiz-adv-x="670" d="M93 -33l-43 43l94 90q-41 92 -3 232q41 156 143.5 246.5t230.5 90.5q105 0 160 -61l85 81l43 -42l-94 -90q38 -91 2 -225q-42 -157 -146 -250t-231 -93q-100 0 -156 59zM234 186l361 345q-34 49 -103 49q-82 0 -148.5 -66.5t-97.5 -181.5q-23 -86 -12 -146zM357 77 q82 0 150 69.5t99 185.5q21 81 12 138l-361 -346q34 -47 100 -47z" />
<glyph unicode="&#xd9;" horiz-adv-x="650" d="M323 -12h1q-243 0 -165 291l100 375h101l-102 -381q-53 -198 88 -198q144 0 197 198l102 381h97l-100 -375q-78 -291 -318 -291h-1zM528 692l-130 116l73 66l115 -131z" />
<glyph unicode="&#xda;" horiz-adv-x="650" d="M323 -12h1q-243 0 -165 291l100 375h101l-102 -381q-53 -198 88 -198q144 0 197 198l102 381h97l-100 -375q-78 -291 -318 -291h-1zM497 692l-32 51l185 131l39 -66z" />
<glyph unicode="&#xdb;" horiz-adv-x="650" d="M323 -12h1q-243 0 -165 291l100 375h101l-102 -381q-53 -198 88 -198q144 0 197 198l102 381h97l-100 -375q-78 -291 -318 -291h-1zM367 725l133 112h106l70 -112l-52 -30l-84 90h-4l-133 -90z" />
<glyph unicode="&#xdc;" horiz-adv-x="650" d="M323 -12h1q-243 0 -165 291l100 375h101l-102 -381q-53 -198 88 -198q144 0 197 198l102 381h97l-100 -375q-78 -291 -318 -291h-1zM412 711h-1q-24 0 -35.5 16t-4.5 39q6 24 26 39.5t44 15.5t35 -15.5t5 -39.5q-7 -24 -26 -39.5t-43 -15.5zM621 711q-24 0 -35.5 16 t-4.5 39q6 24 25.5 39.5t43.5 15.5t35.5 -15.5t5.5 -39.5q-7 -24 -26.5 -39.5t-43.5 -15.5z" />
<glyph unicode="&#xdd;" horiz-adv-x="490" d="M194 0l67 248l-88 407h108l30 -175q11 -77 22 -143h4q85 119 101 143l124 175h106l-306 -407l-66 -248h-102zM416 692l-32 51l185 131l39 -66z" />
<glyph unicode="&#xde;" horiz-adv-x="592" d="M86 0l175 654h101l-29 -107h110q245 0 193 -197q-28 -103 -109 -155.5t-192 -52.5h-110l-38 -142h-101zM246 223l100 -1q155 0 190 127q17 63 -13.5 89.5t-110.5 26.5h-101z" />
<glyph unicode="&#xdf;" horiz-adv-x="592" d="M394 -12q-74 0 -130 48l56 70q40 -41 92 -41q35 0 60.5 20.5t33.5 50.5q6 23 -3 42t-20.5 28t-37.5 25q-13 9 -18.5 12.5t-17 12.5t-16.5 15t-12 16.5t-8.5 20.5t-1.5 24t4 29q12 44 68.5 100t66.5 96q10 37 -4 59.5t-51 22.5q-51 0 -89.5 -38t-57.5 -109l-132 -492h-100 l136 507q25 97 95 154.5t169 57.5q82 0 117 -44t18 -108q-9 -33 -30.5 -63t-42.5 -48t-41 -40.5t-26 -43.5q-7 -25 7 -41t47 -36q16 -10 23.5 -15.5t21.5 -16.5t19.5 -21.5t11.5 -25.5t5.5 -34t-6.5 -41q-18 -66 -74 -109.5t-132 -43.5zM393 -12h1h-1z" />
<glyph unicode="&#xe0;" horiz-adv-x="510" d="M191 -12q-63 0 -93 38.5t-12 102.5q21 79 102 122t240 60q27 108 -66 108q-63 0 -155 -50l-19 68q116 64 213 64q176 0 122 -207l-79 -294h-82l7 56h-3q-100 -68 -175 -68zM244 67l1 -1q55 0 134 59l32 122q-109 -13 -161.5 -40t-64.5 -70q-9 -35 7.5 -52.5t51.5 -17.5z M431 572l-122 154l87 67l99 -171zM190 -12h1h-1z" />
<glyph unicode="&#xe1;" horiz-adv-x="510" d="M191 -12q-63 0 -93 38.5t-12 102.5q21 79 102 122t240 60q27 108 -66 108q-63 0 -155 -50l-19 68q116 64 213 64q176 0 122 -207l-79 -294h-82l7 56h-3q-100 -68 -175 -68zM244 67l1 -1q55 0 134 59l32 122q-109 -13 -161.5 -40t-64.5 -70q-9 -35 7.5 -52.5t51.5 -17.5z M417 572l-37 50l190 171l52 -67zM190 -12h1h-1z" />
<glyph unicode="&#xe2;" horiz-adv-x="510" d="M191 -12q-63 0 -93 38.5t-12 102.5q21 79 102 122t240 60q27 108 -66 108q-63 0 -155 -50l-19 68q116 64 213 64q176 0 122 -207l-79 -294h-82l7 56h-3q-100 -68 -175 -68zM244 67l1 -1q55 0 134 59l32 122q-109 -13 -161.5 -40t-64.5 -70q-9 -35 7.5 -52.5t51.5 -17.5z M269 602l148 138h101l76 -138l-51 -38l-92 107h-4l-148 -107zM190 -12h1h-1z" />
<glyph unicode="&#xe3;" horiz-adv-x="510" d="M191 -12q-63 0 -93 38.5t-12 102.5q21 79 102 122t240 60q27 108 -66 108q-63 0 -155 -50l-19 68q116 64 213 64q176 0 122 -207l-79 -294h-82l7 56h-3q-100 -68 -175 -68zM495 575q-30 0 -50.5 19.5t-36 39t-32.5 19.5q-37 0 -63 -73l-64 4q43 140 145 140 q23 0 41.5 -12t28.5 -27t23 -27t27 -12q37 0 62 72l64 -4q-43 -139 -145 -139zM244 67l1 -1q55 0 134 59l32 122q-109 -13 -161.5 -40t-64.5 -70q-9 -35 7.5 -52.5t51.5 -17.5zM190 -12h1h-1z" />
<glyph unicode="&#xe4;" horiz-adv-x="510" d="M191 -12q-63 0 -93 38.5t-12 102.5q21 79 102 122t240 60q27 108 -66 108q-63 0 -155 -50l-19 68q116 64 213 64q176 0 122 -207l-79 -294h-82l7 56h-3q-100 -68 -175 -68zM244 67l1 -1q55 0 134 59l32 122q-109 -13 -161.5 -40t-64.5 -70q-9 -35 7.5 -52.5t51.5 -17.5z M525 581q-24 0 -35.5 16.5t-4.5 39.5q6 23 26 39.5t44 16.5t36 -16t6 -40q-7 -24 -27.5 -40t-44.5 -16zM326 581q-25 0 -36.5 16.5t-4.5 39.5q6 24 26.5 40t44.5 16t35.5 -16.5t5.5 -39.5q-7 -24 -27 -40t-44 -16zM190 -12h1h-1z" />
<glyph unicode="&#xe5;" horiz-adv-x="510" d="M191 -12q-63 0 -93 38.5t-12 102.5q21 79 102 122t240 60q27 108 -66 108q-63 0 -155 -50l-19 68q116 64 213 64q176 0 122 -207l-79 -294h-82l7 56h-3q-100 -68 -175 -68zM419 556q-53 0 -76.5 28t-11.5 72q12 43 50.5 71t91.5 28t77 -28t12 -71q-11 -44 -50.5 -72 t-92.5 -28zM244 67l1 -1q55 0 134 59l32 122q-109 -13 -161.5 -40t-64.5 -70q-9 -35 7.5 -52.5t51.5 -17.5zM430 598q23 0 42.5 16.5t26.5 42.5t-4.5 42t-34.5 16t-42 -16t-26 -42q-7 -27 4 -43t34 -16zM190 -12h1h-1z" />
<glyph unicode="&#xe6;" horiz-adv-x="785" d="M196 -12h-2q-64 0 -94 38.5t-12 102.5q21 79 102 122t237 60q27 108 -64 108q-60 0 -152 -50l-19 68q116 64 206 64q51 0 80 -25t34 -70q89 95 181 95q90 0 122 -63t4 -169q-10 -33 -17 -50h-307q-14 -68 14.5 -109t87.5 -41q51 0 124 38l18 -68q-91 -51 -176 -51 q-102 0 -148 87q-125 -87 -219 -87zM245 67l-1 -1q71 0 151 66q-6 37 7 91l6 24q-198 -25 -221 -110q-9 -35 7 -52.5t51 -17.5zM509 282h224q18 67 1.5 103.5t-67.5 36.5q-47 0 -90.5 -37.5t-67.5 -102.5z" />
<glyph unicode="&#xe7;" horiz-adv-x="459" d="M122 -232l4 45q62 4 88.5 15.5t32.5 33.5q5 18 -10 29t-56 17l61 80q-87 11 -125 78t-9 176q32 119 120.5 188.5t188.5 69.5q79 0 128 -56l-67 -65q-35 40 -79 40q-63 0 -115 -48.5t-73 -126.5t5 -126t88 -48q56 0 119 45l24 -66q-66 -48 -141 -59l-39 -55q70 -17 55 -72 q-24 -87 -200 -95z" />
<glyph unicode="&#xe8;" horiz-adv-x="502" d="M278 -12q-103 0 -152 69t-18 186q30 115 115.5 186.5t174.5 71.5q95 0 130.5 -63t6.5 -168q-7 -28 -17 -52h-319q-13 -70 17 -110.5t95 -40.5q58 0 128 36l17 -64q-91 -51 -178 -51zM217 288h237q17 65 -1.5 100t-71.5 35q-48 0 -94 -36t-70 -99zM426 573l-122 154l87 67 l99 -171z" />
<glyph unicode="&#xe9;" horiz-adv-x="502" d="M278 -12q-103 0 -152 69t-18 186q30 115 115.5 186.5t174.5 71.5q95 0 130.5 -63t6.5 -168q-7 -28 -17 -52h-319q-13 -70 17 -110.5t95 -40.5q58 0 128 36l17 -64q-91 -51 -178 -51zM217 288h237q17 65 -1.5 100t-71.5 35q-48 0 -94 -36t-70 -99zM411 573l-37 50l190 171 l52 -67z" />
<glyph unicode="&#xea;" horiz-adv-x="502" d="M278 -12q-103 0 -152 69t-18 186q30 115 115.5 186.5t174.5 71.5q95 0 130.5 -63t6.5 -168q-7 -28 -17 -52h-319q-13 -70 17 -110.5t95 -40.5q58 0 128 36l17 -64q-91 -51 -178 -51zM264 604l148 138h101l76 -138l-51 -38l-92 107h-4l-148 -107zM217 288h237 q17 65 -1.5 100t-71.5 35q-48 0 -94 -36t-70 -99z" />
<glyph unicode="&#xeb;" horiz-adv-x="502" d="M278 -12q-103 0 -152 69t-18 186q30 115 115.5 186.5t174.5 71.5q95 0 130.5 -63t6.5 -168q-7 -28 -17 -52h-319q-13 -70 17 -110.5t95 -40.5q58 0 128 36l17 -64q-91 -51 -178 -51zM217 288h237q17 65 -1.5 100t-71.5 35q-48 0 -94 -36t-70 -99zM321 582 q-25 0 -36.5 16.5t-4.5 39.5q6 24 26.5 40t44.5 16t35.5 -16.5t5.5 -39.5q-7 -24 -27 -40t-44 -16zM520 582q-24 0 -35.5 16.5t-4.5 39.5q6 23 26 39.5t44 16.5t36 -16t6 -40q-7 -24 -27.5 -40t-44.5 -16z" />
<glyph unicode="&#xec;" horiz-adv-x="254" d="M77 0l131 489h100l-131 -489h-100zM288 573l-122 154l87 67l99 -171z" />
<glyph unicode="&#xed;" horiz-adv-x="254" d="M77 0l131 489h100l-131 -489h-100zM274 573l-37 50l190 171l52 -67z" />
<glyph unicode="&#xee;" horiz-adv-x="254" d="M77 0l131 489h100l-131 -489h-100zM126 604l148 138h101l76 -138l-51 -38l-92 107h-4l-148 -107z" />
<glyph unicode="&#xef;" horiz-adv-x="254" d="M77 0l131 489h100l-131 -489h-100zM183 582q-25 0 -36.5 16.5t-4.5 39.5q6 24 26.5 40t44.5 16t35.5 -16.5t5.5 -39.5q-7 -24 -27 -40t-44 -16zM382 582q-24 0 -35.5 16.5t-4.5 39.5q6 23 26 39.5t44 16.5t36 -16t6 -40q-7 -24 -27.5 -40t-44.5 -16z" />
<glyph unicode="&#xf0;" horiz-adv-x="549" d="M267 -12h1q-91 0 -138.5 65t-19.5 171q27 101 103 163.5t163 62.5q81 0 111 -62q3 103 -54 177l-161 -72l-15 47l141 64q-35 32 -88 66l62 62q68 -41 114 -89l162 73l15 -48l-144 -65q98 -135 43 -344q-32 -121 -113 -196t-181 -75h-1zM478 307q-33 67 -105 67 q-59 0 -105 -41t-64 -109q-18 -69 8 -111.5t80 -42.5q60 0 105.5 49.5t68.5 135.5q7 25 12 52z" />
<glyph unicode="&#xf1;" horiz-adv-x="554" d="M77 0l131 489h82l-10 -68h3q104 80 183 80q150 0 99 -193l-83 -308h-100l79 295q17 65 4.5 92.5t-56.5 27.5q-32 0 -62.5 -16t-76.5 -52l-93 -347h-100zM521 576q-29 0 -50 19.5t-36.5 39t-32.5 19.5q-37 0 -63 -73l-64 4q43 140 145 140q23 0 41.5 -12t28.5 -27t23 -27 t27 -12q37 0 62 72l64 -4q-43 -139 -145 -139z" />
<glyph unicode="&#xf2;" horiz-adv-x="546" d="M270 -12h1q-95 0 -144 69.5t-18 186.5q32 118 117.5 188t180.5 70t144 -70t17 -188q-31 -117 -116.5 -186.5t-180.5 -69.5h-1zM293 70q58 0 105 47.5t68 126.5t-0.5 127t-79.5 48t-105 -48t-68 -127q-21 -78 0.5 -126t79.5 -48zM435 573l-122 154l87 67l99 -171z" />
<glyph unicode="&#xf3;" horiz-adv-x="546" d="M270 -12h1q-95 0 -144 69.5t-18 186.5q32 118 117.5 188t180.5 70t144 -70t17 -188q-31 -117 -116.5 -186.5t-180.5 -69.5h-1zM293 70q58 0 105 47.5t68 126.5t-0.5 127t-79.5 48t-105 -48t-68 -127q-21 -78 0.5 -126t79.5 -48zM421 573l-37 50l190 171l52 -67z" />
<glyph unicode="&#xf4;" horiz-adv-x="546" d="M270 -12h1q-95 0 -144 69.5t-18 186.5q32 118 117.5 188t180.5 70t144 -70t17 -188q-31 -117 -116.5 -186.5t-180.5 -69.5h-1zM293 70q58 0 105 47.5t68 126.5t-0.5 127t-79.5 48t-105 -48t-68 -127q-21 -78 0.5 -126t79.5 -48zM273 604l148 138h101l76 -138l-51 -38 l-92 107h-4l-148 -107z" />
<glyph unicode="&#xf5;" horiz-adv-x="546" d="M270 -12h1q-95 0 -144 69.5t-18 186.5q32 118 117.5 188t180.5 70t144 -70t17 -188q-31 -117 -116.5 -186.5t-180.5 -69.5h-1zM293 70q58 0 105 47.5t68 126.5t-0.5 127t-79.5 48t-105 -48t-68 -127q-21 -78 0.5 -126t79.5 -48zM499 576q-29 0 -50 19.5t-36.5 39 t-32.5 19.5q-37 0 -63 -73l-64 4q43 140 145 140q23 0 41.5 -12t28.5 -27t23 -27t27 -12q37 0 62 72l64 -4q-43 -139 -145 -139z" />
<glyph unicode="&#xf6;" horiz-adv-x="546" d="M270 -12h1q-95 0 -144 69.5t-18 186.5q32 118 117.5 188t180.5 70t144 -70t17 -188q-31 -117 -116.5 -186.5t-180.5 -69.5h-1zM293 70q58 0 105 47.5t68 126.5t-0.5 127t-79.5 48t-105 -48t-68 -127q-21 -78 0.5 -126t79.5 -48zM330 582q-25 0 -36.5 16.5t-4.5 39.5 q6 24 26.5 40t44.5 16t35.5 -16.5t5.5 -39.5q-7 -24 -27 -40t-44 -16zM529 582q-24 0 -35.5 16.5t-4.5 39.5q6 23 26 39.5t44 16.5t36 -16t6 -40q-7 -24 -27.5 -40t-44.5 -16z" />
<glyph unicode="&#xf7;" horiz-adv-x="506" d="M112 293l20 74h438l-20 -74h-438zM277 90h-1q-26 0 -39.5 17t-6.5 44q7 26 29 43t49 17q26 0 39.5 -17t6.5 -43q-7 -27 -29 -44t-48 -17zM372 450q-26 0 -39 17t-6 44q7 26 29 43t49 17q26 0 39 -17t6 -43q-7 -27 -29.5 -44t-48.5 -17h1h-1z" />
<glyph unicode="&#xf8;" horiz-adv-x="546" d="M270 -12h1q-76 0 -124 46l-64 -59l-33 33l69 63q-37 70 -10 173q32 118 117.5 188t180.5 70q79 0 127 -48l63 58l33 -33l-69 -64q34 -70 7 -171q-31 -117 -116.5 -186.5t-180.5 -69.5h-1zM201 147l260 240q-23 34 -73 34q-58 0 -108 -48t-70 -124q-16 -60 -9 -102z M292 67v-1q59 0 108.5 48t69.5 124q16 60 9 102l-260 -240q25 -33 73 -33z" />
<glyph unicode="&#xf9;" horiz-adv-x="551" d="M218 -12l-2 1q-151 0 -98 193l82 308h101l-79 -295q-17 -65 -5 -92.5t56 -27.5q61 0 139 74l91 340h100l-131 -489h-82l12 74h-3q-96 -86 -181 -86zM434 574l-122 154l87 67l99 -171z" />
<glyph unicode="&#xfa;" horiz-adv-x="551" d="M218 -12l-2 1q-151 0 -98 193l82 308h101l-79 -295q-17 -65 -5 -92.5t56 -27.5q61 0 139 74l91 340h100l-131 -489h-82l12 74h-3q-96 -86 -181 -86zM420 574l-37 50l190 171l52 -67z" />
<glyph unicode="&#xfb;" horiz-adv-x="551" d="M218 -12l-2 1q-151 0 -98 193l82 308h101l-79 -295q-17 -65 -5 -92.5t56 -27.5q61 0 139 74l91 340h100l-131 -489h-82l12 74h-3q-96 -86 -181 -86zM273 605l148 138h101l76 -138l-51 -38l-92 107h-4l-148 -107z" />
<glyph unicode="&#xfc;" horiz-adv-x="551" d="M218 -12l-2 1q-151 0 -98 193l82 308h101l-79 -295q-17 -65 -5 -92.5t56 -27.5q61 0 139 74l91 340h100l-131 -489h-82l12 74h-3q-96 -86 -181 -86zM330 583q-25 0 -36.5 16.5t-4.5 39.5q6 24 26.5 40t44.5 16t35.5 -16.5t5.5 -39.5q-7 -24 -27 -40t-44 -16zM529 583 q-24 0 -35.5 16.5t-4.5 39.5q6 23 26 39.5t44 16.5t36 -16t6 -40q-7 -24 -27.5 -40t-44.5 -16z" />
<glyph unicode="&#xfd;" horiz-adv-x="482" d="M44 -205l1 1q-32 0 -57 10l39 78q21 -7 35 -7q73 0 128 93l19 33l-64 486h102l23 -254q3 -38 7 -138h4q40 72 76 138l147 254h97l-319 -519q-53 -86 -109 -130.5t-129 -44.5zM398 574l-37 50l190 171l52 -67z" />
<glyph unicode="&#xfe;" horiz-adv-x="560" d="M24 -199l244 908h100l-50 -188l-23 -79q88 59 156 59q94 0 127.5 -67t3.5 -183q-32 -120 -112.5 -191.5t-167.5 -71.5q-65 0 -115 52l-20 -80l-43 -159h-100zM305 71q56 0 104 48t71 132q46 166 -72 166q-53 0 -134 -60l-64 -241q41 -45 95 -45z" />
<glyph unicode="&#xff;" horiz-adv-x="482" d="M44 -205l1 1q-32 0 -57 10l39 78q21 -7 35 -7q73 0 128 93l19 33l-64 486h102l23 -254q3 -38 7 -138h4q40 72 76 138l147 254h97l-319 -519q-53 -86 -109 -130.5t-129 -44.5zM307 583q-25 0 -36.5 16.5t-4.5 39.5q6 24 26.5 40t44.5 16t35.5 -16.5t5.5 -39.5 q-7 -24 -27 -40t-44 -16zM506 583q-24 0 -35.5 16.5t-4.5 39.5q6 23 26 39.5t44 16.5t36 -16t6 -40q-7 -24 -27.5 -40t-44.5 -16z" />
<glyph unicode="&#x100;" horiz-adv-x="552" d="M0 0l393 655h117l42 -655h-108l-6 188h-229l-106 -188h-103zM255 268h181l-3 89q-4 95 -4 218h-4q-73 -139 -120 -218zM331 731l18 67h278l-18 -67h-278z" />
<glyph unicode="&#x101;" horiz-adv-x="510" d="M191 -12q-63 0 -93 38.5t-12 102.5q21 79 102 122t240 60q27 108 -66 108q-63 0 -155 -50l-19 68q116 64 213 64q176 0 122 -207l-79 -294h-82l7 56h-3q-100 -68 -175 -68zM244 67l1 -1q55 0 134 59l32 122q-109 -13 -161.5 -40t-64.5 -70q-9 -35 7.5 -52.5t51.5 -17.5z M293 597l18 67h274l-18 -67h-274zM190 -12h1h-1z" />
<glyph unicode="&#x102;" horiz-adv-x="552" d="M0 0l393 655h117l42 -655h-108l-6 188h-229l-106 -188h-103zM255 268h181l-3 89q-4 95 -4 218h-4q-73 -139 -120 -218zM462 703h-2q-68 0 -96.5 35.5t-19.5 95.5l62 10q-3 -35 15 -56.5t57 -21.5t68.5 21.5t46.5 56.5l55 -10q-22 -59 -70 -95t-116 -36z" />
<glyph unicode="&#x103;" horiz-adv-x="510" d="M191 -12q-63 0 -93 38.5t-12 102.5q21 79 102 122t240 60q27 108 -66 108q-63 0 -155 -50l-19 68q116 64 213 64q176 0 122 -207l-79 -294h-82l7 56h-3q-100 -68 -175 -68zM244 67l1 -1q55 0 134 59l32 122q-109 -13 -161.5 -40t-64.5 -70q-9 -35 7.5 -52.5t51.5 -17.5z M423 570h-1q-76 0 -104 44t-15 109l63 10q-5 -41 13 -69t61 -28t75.5 28t50.5 69l57 -10q-21 -65 -72.5 -109t-127.5 -44zM190 -12h1h-1z" />
<glyph unicode="&#x104;" horiz-adv-x="552" d="M435 -215q-44 0 -66.5 23.5t-10.5 65.5q10 38 42.5 72t67.5 54h-25l-6 188h-229l-106 -188h-103l393 655h117l42 -655q-39 -11 -70.5 -41t-40.5 -62q-5 -21 5 -32t28 -11q23 0 45 14l12 -53q-49 -30 -95 -30zM254 268h181l-3 89q-4 95 -4 218h-4q-73 -139 -120 -218z" />
<glyph unicode="&#x105;" horiz-adv-x="510" d="M324 -207l4 -1q-41 0 -62 23t-10 64q10 38 41.5 70.5t67.5 52.5l6 54h-3q-100 -68 -176 -68q-64 0 -94 38.5t-12 102.5q21 79 102 122t240 60q27 108 -66 108q-63 0 -155 -50l-19 68q116 64 213 64q176 0 122 -207l-79 -294q-46 -15 -76 -43t-38 -57q-6 -21 4 -32.5 t29 -11.5q21 0 42 13l11 -48q-44 -28 -92 -28zM246 66l1 -1q55 0 134 59l32 122q-109 -13 -161.5 -40t-64.5 -70q-9 -35 7.5 -52.5t51.5 -17.5z" />
<glyph unicode="&#x106;" horiz-adv-x="574" d="M338 -12l2 -1q-127 0 -184 90.5t-15 248.5q41 155 149.5 247.5t236.5 92.5q57 0 98.5 -23t63.5 -59l-71 -65q-42 59 -114 59q-86 0 -157.5 -67.5t-102.5 -182.5q-31 -117 2 -185t120 -68q80 0 163 71l38 -63q-107 -95 -229 -95zM506 691l-32 51l185 131l39 -66z" />
<glyph unicode="&#x107;" horiz-adv-x="459" d="M273 -12v-2q-102 0 -149 68.5t-16 187.5q32 119 120.5 188.5t188.5 69.5q79 0 128 -56l-67 -65q-35 40 -79 40q-63 0 -115 -48.5t-73 -126.5t5 -126t88 -48q56 0 119 45l24 -66q-84 -61 -174 -61zM429 571l-37 50l190 171l52 -67z" />
<glyph unicode="&#x108;" horiz-adv-x="574" d="M338 -12l2 -1q-127 0 -184 90.5t-15 248.5q41 155 149.5 247.5t236.5 92.5q57 0 98.5 -23t63.5 -59l-71 -65q-42 59 -114 59q-86 0 -157.5 -67.5t-102.5 -182.5q-31 -117 2 -185t120 -68q80 0 163 71l38 -63q-107 -95 -229 -95zM375 724l133 112h106l70 -112l-52 -30 l-84 90h-4l-133 -90z" />
<glyph unicode="&#x109;" horiz-adv-x="459" d="M273 -12v-2q-102 0 -149 68.5t-16 187.5q32 119 120.5 188.5t188.5 69.5q79 0 128 -56l-67 -65q-35 40 -79 40q-63 0 -115 -48.5t-73 -126.5t5 -126t88 -48q56 0 119 45l24 -66q-84 -61 -174 -61zM281 602l148 138h101l76 -138l-51 -38l-92 107h-4l-148 -107z" />
<glyph unicode="&#x10a;" horiz-adv-x="574" d="M338 -12l2 -1q-127 0 -184 90.5t-15 248.5q41 155 149.5 247.5t236.5 92.5q57 0 98.5 -23t63.5 -59l-71 -65q-42 59 -114 59q-86 0 -157.5 -67.5t-102.5 -182.5q-31 -117 2 -185t120 -68q80 0 163 71l38 -63q-107 -95 -229 -95zM525 709q-28 0 -41.5 17t-6.5 44 q7 26 30 43t51 17t42 -17t7 -43q-7 -27 -30.5 -44t-51.5 -17z" />
<glyph unicode="&#x10b;" horiz-adv-x="459" d="M273 -12v-2q-102 0 -149 68.5t-16 187.5q32 119 120.5 188.5t188.5 69.5q79 0 128 -56l-67 -65q-35 40 -79 40q-63 0 -115 -48.5t-73 -126.5t5 -126t88 -48q56 0 119 45l24 -66q-84 -61 -174 -61zM438 579q-27 0 -40 17t-6 44q8 26 30 43.5t49 17.5t40 -17.5t5 -43.5 q-7 -27 -29 -44t-49 -17z" />
<glyph unicode="&#x10c;" horiz-adv-x="574" d="M338 -12l2 -1q-127 0 -184 90.5t-15 248.5q41 155 149.5 247.5t236.5 92.5q57 0 98.5 -23t63.5 -59l-71 -65q-42 59 -114 59q-86 0 -157.5 -67.5t-102.5 -182.5q-31 -117 2 -185t120 -68q80 0 163 71l38 -63q-107 -95 -229 -95zM471 704l-72 112l52 30l85 -90h4l132 90 l36 -30l-131 -112h-106z" />
<glyph unicode="&#x10d;" horiz-adv-x="459" d="M273 -12v-2q-102 0 -149 68.5t-16 187.5q32 119 120.5 188.5t188.5 69.5q79 0 128 -56l-67 -65q-35 40 -79 40q-63 0 -115 -48.5t-73 -126.5t5 -126t88 -48q56 0 119 45l24 -66q-84 -61 -174 -61zM386 573l-75 138l51 38l92 -107h4l148 107l30 -38l-149 -138h-101z" />
<glyph unicode="&#x10e;" horiz-adv-x="620" d="M86 0l175 654h170q152 0 211 -83t17 -241q-43 -159 -146.5 -244.5t-251.5 -85.5h-175zM208 81l63 1q106 0 178.5 63t105.5 185q64 242 -153 242h-62zM446 705l-72 112l52 30l85 -90h4l132 90l36 -30l-131 -112h-106z" />
<glyph unicode="&#x10f;" horiz-adv-x="584" d="M243 -12l-1 -1q-93 0 -129.5 68t-3.5 188q30 115 111 186t166 71q68 0 118 -55l18 81l49 182h101l-190 -709h-82l6 55h-3q-86 -66 -160 -66zM287 70h1q60 0 128 61l64 240q-38 45 -95 45q-54 0 -103 -47t-70 -125q-22 -83 -2.5 -128.5t77.5 -45.5zM682 547l53 214h69 l-18 -60l-58 -154h-46z" />
<glyph unicode="&#x110;" horiz-adv-x="644" d="M109 0l85 316h-78l14 50l78 4l76 284h170q152 0 211 -83t17 -241q-43 -159 -146.5 -244.5t-251.5 -85.5h-175zM231 81l63 1q106 0 178.5 63t105.5 185q64 242 -153 242h-62l-54 -202h143l-15 -54h-143z" />
<glyph unicode="&#x111;" horiz-adv-x="560" d="M243 -12q-92 0 -130 63.5t-8 172.5q28 103 107.5 169t164.5 66q39 0 65 -13.5t53 -42.5l17 82l22 83h-159l15 54h159l23 87h101l-23 -87h69l-14 -49l-70 -5l-152 -568h-85l7 52h-3q-82 -64 -159 -64zM288 71v1q60 0 128 61l53 198q-38 45 -95 45q-53 0 -101 -43t-66 -109 q-19 -72 2.5 -112.5t78.5 -40.5z" />
<glyph unicode="&#x112;" horiz-adv-x="533" d="M86 0l176 656h386l-23 -85h-286l-50 -185h242l-23 -86h-242l-57 -214h296l-23 -86h-396zM342 732l18 67h278l-18 -67h-278z" />
<glyph unicode="&#x113;" horiz-adv-x="502" d="M278 -12q-103 0 -152 69t-18 186q30 115 115.5 186.5t174.5 71.5q95 0 130.5 -63t6.5 -168q-7 -28 -17 -52h-319q-13 -70 17 -110.5t95 -40.5q58 0 128 36l17 -64q-91 -51 -178 -51zM217 288h237q17 65 -1.5 100t-71.5 35q-48 0 -94 -36t-70 -99zM288 599l18 67h274 l-18 -67h-274z" />
<glyph unicode="&#x114;" horiz-adv-x="533" d="M86 0l176 656h386l-23 -85h-286l-50 -185h242l-23 -86h-242l-57 -214h296l-23 -86h-396zM474 704h-2q-68 0 -96.5 35.5t-19.5 95.5l62 10q-3 -35 15 -56.5t57 -21.5t68.5 21.5t46.5 56.5l55 -10q-22 -59 -70 -95t-116 -36z" />
<glyph unicode="&#x115;" horiz-adv-x="502" d="M278 -12q-103 0 -152 69t-18 186q30 115 115.5 186.5t174.5 71.5q95 0 130.5 -63t6.5 -168q-7 -28 -17 -52h-319q-13 -70 17 -110.5t95 -40.5q58 0 128 36l17 -64q-91 -51 -178 -51zM418 572h-1q-76 0 -104 44t-15 109l63 10q-5 -41 13 -69t61 -28t75.5 28t50.5 69 l57 -10q-21 -65 -72.5 -109t-127.5 -44zM217 288h237q17 65 -1.5 100t-71.5 35q-48 0 -94 -36t-70 -99z" />
<glyph unicode="&#x116;" horiz-adv-x="533" d="M86 0l176 656h386l-23 -85h-286l-50 -185h242l-23 -86h-242l-57 -214h296l-23 -86h-396zM475 712q-28 0 -41.5 17t-6.5 44q7 26 30 43t51 17t42 -17t7 -43q-7 -27 -30.5 -44t-51.5 -17z" />
<glyph unicode="&#x117;" horiz-adv-x="502" d="M278 -12q-103 0 -152 69t-18 186q30 115 115.5 186.5t174.5 71.5q95 0 130.5 -63t6.5 -168q-7 -28 -17 -52h-319q-13 -70 17 -110.5t95 -40.5q58 0 128 36l17 -64q-91 -51 -178 -51zM217 288h237q17 65 -1.5 100t-71.5 35q-48 0 -94 -36t-70 -99zM420 582q-27 0 -40 17 t-6 44q8 26 30 43.5t49 17.5t40 -17.5t5 -43.5q-7 -27 -29 -44t-49 -17z" />
<glyph unicode="&#x118;" horiz-adv-x="533" d="M355 -215l2 2q-44 0 -66.5 23.5t-10.5 65.5q10 39 42 72.5t68 53.5h-302l176 655h386l-23 -85h-286l-50 -185h242l-23 -86h-242l-57 -214h296l-23 -86h-4q-36 -4 -72 -34.5t-46 -68.5q-6 -21 4.5 -32.5t29.5 -11.5q18 0 42 14l12 -53q-47 -30 -95 -30z" />
<glyph unicode="&#x119;" horiz-adv-x="502" d="M304 -207l2 -2q-41 0 -61.5 23t-9.5 64q16 63 89 115q-20 -6 -45 -6q-103 0 -152 69t-18 186q30 115 115.5 186.5t174.5 71.5q95 0 130.5 -63t6.5 -168q-7 -28 -17 -52h-319q-13 -70 17 -110.5t95 -40.5q58 0 128 36l17 -64q-75 -45 -106.5 -76t-40.5 -63q-6 -21 4 -32 t30 -11t41 13l11 -48q-44 -28 -92 -28zM220 286h237q17 65 -1.5 100t-71.5 35q-48 0 -94 -36t-70 -99z" />
<glyph unicode="&#x11a;" horiz-adv-x="533" d="M86 0l176 656h386l-23 -85h-286l-50 -185h242l-23 -86h-242l-57 -214h296l-23 -86h-396zM421 706l-72 112l52 30l85 -90h4l132 90l36 -30l-131 -112h-106z" />
<glyph unicode="&#x11b;" horiz-adv-x="502" d="M278 -12q-103 0 -152 69t-18 186q30 115 115.5 186.5t174.5 71.5q95 0 130.5 -63t6.5 -168q-7 -28 -17 -52h-319q-13 -70 17 -110.5t95 -40.5q58 0 128 36l17 -64q-91 -51 -178 -51zM368 575l-75 138l51 38l92 -107h4l148 107l30 -38l-149 -138h-101zM217 288h237 q17 65 -1.5 100t-71.5 35q-48 0 -94 -36t-70 -99z" />
<glyph unicode="&#x11c;" horiz-adv-x="623" d="M350 -12q-134 0 -194 90.5t-17 248.5q41 156 151.5 248t244.5 92q115 0 171 -82l-72 -65q-43 59 -120 59q-93 0 -167 -67.5t-105 -182.5q-32 -119 4 -186t136 -67q67 0 114 34l42 155h-130l22 83h222l-76 -283q-96 -77 -226 -77h1h-1zM399 725l133 112h106l70 -112 l-52 -30l-84 90h-4l-133 -90z" />
<glyph unicode="&#x11d;" horiz-adv-x="512" d="M186 -220h-2q-91 0 -138 33.5t-31 95.5q16 60 100 107l1 4q-35 28 -22 81q15 56 78 91l1 4q-50 50 -29 131q21 80 88.5 127.5t146.5 47.5q39 0 68 -12h172l-20 -75h-94q25 -36 10 -91q-21 -78 -85.5 -123.5t-143.5 -45.5q-36 0 -64 15q-33 -24 -41 -52q-6 -23 10 -35.5 t61 -12.5h90q88 0 124 -29t20 -90q-19 -72 -102.5 -121.5t-197.5 -49.5zM217 -153l-1 -1q63 0 110.5 26t57.5 62q8 30 -11.5 42t-65.5 12h-75q-39 0 -63 8q-51 -31 -63 -72q-10 -36 19.5 -56.5t91.5 -20.5zM305 220q40 0 74.5 29t47.5 77t-6 76t-59 28t-74 -28t-47 -76 t6 -77t58 -29zM268 603l148 138h101l76 -138l-51 -38l-92 107h-4l-148 -107z" />
<glyph unicode="&#x11e;" horiz-adv-x="623" d="M350 -12q-134 0 -194 90.5t-17 248.5q41 156 151.5 248t244.5 92q115 0 171 -82l-72 -65q-43 59 -120 59q-93 0 -167 -67.5t-105 -182.5q-32 -119 4 -186t136 -67q67 0 114 34l42 155h-130l22 83h222l-76 -283q-96 -77 -226 -77h1h-1zM547 703h-2q-68 0 -96.5 35.5 t-19.5 95.5l62 10q-3 -35 15 -56.5t57 -21.5t68.5 21.5t46.5 56.5l55 -10q-22 -59 -70 -95t-116 -36z" />
<glyph unicode="&#x11f;" horiz-adv-x="512" d="M186 -220h-2q-91 0 -138 33.5t-31 95.5q16 60 100 107l1 4q-35 28 -22 81q15 56 78 91l1 4q-50 50 -29 131q21 80 88.5 127.5t146.5 47.5q39 0 68 -12h172l-20 -75h-94q25 -36 10 -91q-21 -78 -85.5 -123.5t-143.5 -45.5q-36 0 -64 15q-33 -24 -41 -52q-6 -23 10 -35.5 t61 -12.5h90q88 0 124 -29t20 -90q-19 -72 -102.5 -121.5t-197.5 -49.5zM217 -153l-1 -1q63 0 110.5 26t57.5 62q8 30 -11.5 42t-65.5 12h-75q-39 0 -63 8q-51 -31 -63 -72q-10 -36 19.5 -56.5t91.5 -20.5zM305 220q40 0 74.5 29t47.5 77t-6 76t-59 28t-74 -28t-47 -76 t6 -77t58 -29zM422 571h-1q-76 0 -104 44t-15 109l63 10q-5 -41 13 -69t61 -28t75.5 28t50.5 69l57 -10q-21 -65 -72.5 -109t-127.5 -44z" />
<glyph unicode="&#x120;" horiz-adv-x="623" d="M350 -12q-134 0 -194 90.5t-17 248.5q41 156 151.5 248t244.5 92q115 0 171 -82l-72 -65q-43 59 -120 59q-93 0 -167 -67.5t-105 -182.5q-32 -119 4 -186t136 -67q67 0 114 34l42 155h-130l22 83h222l-76 -283q-96 -77 -226 -77h1h-1zM549 710q-28 0 -41.5 17t-6.5 44 q7 26 30 43t51 17t42 -17t7 -43q-7 -27 -30.5 -44t-51.5 -17z" />
<glyph unicode="&#x121;" horiz-adv-x="512" d="M186 -220h-2q-91 0 -138 33.5t-31 95.5q16 60 100 107l1 4q-35 28 -22 81q15 56 78 91l1 4q-50 50 -29 131q21 80 88.5 127.5t146.5 47.5q39 0 68 -12h172l-20 -75h-94q25 -36 10 -91q-21 -78 -85.5 -123.5t-143.5 -45.5q-36 0 -64 15q-33 -24 -41 -52q-6 -23 10 -35.5 t61 -12.5h90q88 0 124 -29t20 -90q-19 -72 -102.5 -121.5t-197.5 -49.5zM217 -153l-1 -1q63 0 110.5 26t57.5 62q8 30 -11.5 42t-65.5 12h-75q-39 0 -63 8q-51 -31 -63 -72q-10 -36 19.5 -56.5t91.5 -20.5zM305 220q40 0 74.5 29t47.5 77t-6 76t-59 28t-74 -28t-47 -76 t6 -77t58 -29zM424 581q-27 0 -40 17t-6 44q8 26 30 43.5t49 17.5t40 -17.5t5 -43.5q-7 -27 -29 -44t-49 -17z" />
<glyph unicode="&#x122;" horiz-adv-x="623" d="M350 -12q-134 0 -194 90.5t-17 248.5q41 156 151.5 248t244.5 92q115 0 171 -82l-72 -65q-43 59 -120 59q-93 0 -167 -67.5t-105 -182.5q-32 -119 4 -186t136 -67q67 0 114 34l42 155h-130l22 83h222l-76 -283q-96 -77 -226 -77h1h-1zM200 -230l3 46q61 4 88 15t32 31 q4 18 -10 27.5t-48 12.5l32 42q66 -7 89 -25.5t14 -53.5q-24 -87 -200 -95z" />
<glyph unicode="&#x123;" horiz-adv-x="512" d="M186 -220h-2q-91 0 -138 33.5t-31 95.5q16 60 100 107l1 4q-35 28 -22 81q15 56 78 91l1 4q-50 50 -29 131q21 80 88.5 127.5t146.5 47.5q39 0 68 -12h172l-20 -75h-94q25 -36 10 -91q-21 -78 -85.5 -123.5t-143.5 -45.5q-36 0 -64 15q-33 -24 -41 -52q-6 -23 10 -35.5 t61 -12.5h90q88 0 124 -29t20 -90q-19 -72 -102.5 -121.5t-197.5 -49.5zM217 -153l-1 -1q63 0 110.5 26t57.5 62q8 30 -11.5 42t-65.5 12h-75q-39 0 -63 8q-51 -31 -63 -72q-10 -36 19.5 -56.5t91.5 -20.5zM305 220q40 0 74.5 29t47.5 77t-6 76t-59 28t-74 -28t-47 -76 t6 -77t58 -29zM463 573l1 -1q-66 7 -89 25.5t-14 53.5q23 87 199 96l-4 -46q-61 -4 -87.5 -14.5t-31.5 -31.5q-4 -18 10 -27.5t48 -12.5z" />
<glyph unicode="&#x124;" horiz-adv-x="658" d="M86 0l176 655h101l-72 -268h283l72 268h102l-176 -655h-102l80 299h-283l-80 -299h-101zM368 725l133 112h106l70 -112l-52 -30l-84 90h-4l-133 -90z" />
<glyph unicode="&#x125;" horiz-adv-x="552" d="M77 0l189 709h100l-50 -188l-30 -97q103 77 180 77q150 0 99 -193l-83 -308h-100l79 295q17 65 4.5 92.5t-56.5 27.5q-32 0 -62.5 -16t-76.5 -52l-93 -347h-100zM166 769l133 112h106l70 -112l-52 -30l-84 90h-4l-133 -90z" />
<glyph unicode="&#x126;" horiz-adv-x="694" d="M162 490l13 49l78 5l30 111h101l-30 -111h283l30 111h102l-30 -111h70l-14 -54h-70l-132 -490h-102l80 299h-283l-80 -299h-101l132 490h-77zM623 490h-283l-28 -103h283z" />
<glyph unicode="&#x127;" horiz-adv-x="552" d="M77 0l151 567h-73l14 49l73 5l24 88h100l-24 -88h179l-15 -54h-178l-24 -88l-30 -97q103 77 181 77q149 0 98 -193l-71 -266h-100l68 253q17 65 4.5 92.5t-56.5 27.5q-33 0 -63 -15.5t-76 -51.5l-82 -306h-100z" />
<glyph unicode="&#x128;" horiz-adv-x="274" d="M86 0l176 655h101l-176 -655h-101zM399 705q-25 0 -45 10.5t-30.5 23t-24 23t-27.5 10.5q-38 0 -62 -61l-65 5q20 62 58 95.5t86 33.5q25 0 45 -10.5t30.5 -23t24 -23t27.5 -10.5q37 0 61 61l66 -5q-20 -62 -58 -95.5t-86 -33.5z" />
<glyph unicode="&#x129;" horiz-adv-x="254" d="M77 0l131 489h100l-131 -489h-100zM352 576q-30 0 -50.5 19.5t-36 39t-32.5 19.5q-37 0 -63 -73l-64 4q43 140 145 140q23 0 41.5 -12t28.5 -27t23 -27t27 -12q37 0 62 72l64 -4q-43 -139 -145 -139z" />
<glyph unicode="&#x12a;" horiz-adv-x="274" d="M86 0l176 655h101l-176 -655h-101zM194 731l18 67h278l-18 -67h-278z" />
<glyph unicode="&#x12b;" horiz-adv-x="254" d="M77 0l131 489h100l-131 -489h-100zM150 599l18 67h274l-18 -67h-274z" />
<glyph unicode="&#x12c;" horiz-adv-x="274" d="M86 0l176 655h101l-176 -655h-101zM325 703h-2q-68 0 -96.5 35.5t-19.5 95.5l62 10q-3 -35 15 -56.5t57 -21.5t68.5 21.5t46.5 56.5l55 -10q-22 -59 -70 -95t-116 -36z" />
<glyph unicode="&#x12d;" horiz-adv-x="254" d="M77 0l131 489h100l-131 -489h-100zM281 571h-1q-76 0 -104 44t-15 109l63 10q-5 -41 13 -69t61 -28t75.5 28t50.5 69l57 -10q-21 -65 -72.5 -109t-127.5 -44z" />
<glyph unicode="&#x12e;" horiz-adv-x="274" d="M86 -215q-44 0 -66.5 23.5t-10.5 65.5q18 67 103 126h-25l176 655h101l-176 -655q-80 -44 -96 -102q-6 -21 4.5 -32.5t28.5 -11.5q19 0 44 14l12 -53q-49 -30 -95 -30z" />
<glyph unicode="&#x12f;" horiz-adv-x="254" d="M79 -207l2 -3q-41 0 -62 23t-10 64q16 61 96 121h-26l131 489h100l-131 -489q-78 -40 -94 -99q-6 -21 4.5 -32t29.5 -11q18 0 41 13l11 -48q-44 -28 -92 -28zM285 578q-28 0 -42 17t-7 43q7 27 30 43.5t51 16.5q27 0 41 -16.5t7 -43.5q-7 -26 -30 -43t-50 -17z" />
<glyph unicode="&#x130;" horiz-adv-x="274" d="M86 0l176 655h101l-176 -655h-101zM326 711q-28 0 -41.5 17t-6.5 44q7 26 30 43t51 17t42 -17t7 -43q-7 -27 -30.5 -44t-51.5 -17z" />
<glyph unicode="&#x131;" horiz-adv-x="254" d="M77 0l131 489h100l-131 -489h-100z" />
<glyph unicode="&#x132;" horiz-adv-x="547" d="M270 -169q-41 0 -73 12l40 78q24 -8 41 -8q33 0 51.5 22.5t31.5 69.5l175 651h101l-175 -652q-46 -173 -192 -173zM86 0l176 655h101l-176 -655h-101z" />
<glyph unicode="&#x133;" horiz-adv-x="510" d="M231 -211l-1 1q-43 0 -73 13l40 75q22 -8 42 -8q33 0 51.5 22.5t31.5 68.5l142 529h100l-141 -528q-46 -173 -192 -173zM77 0l131 489h100l-131 -489h-100zM284 581q-28 0 -42 17t-7 43q7 27 30 43.5t51 16.5t42 -16.5t7 -43.5q-7 -26 -30 -43t-51 -17zM538 582 q-28 0 -42 17t-7 43q7 27 30 43.5t51 16.5t41.5 -16.5t6.5 -43.5q-7 -26 -30 -43t-50 -17z" />
<glyph unicode="&#x134;" horiz-adv-x="488" d="M213 -12h-1q-130 0 -160 109l85 51q20 -72 87 -72q50 0 82.5 31t51.5 101l120 446h102l-122 -455q-26 -93 -88.5 -152t-156.5 -59zM390 725l133 112h106l70 -112l-52 -30l-84 90h-4l-133 -90z" />
<glyph unicode="&#x135;" horiz-adv-x="256" d="M-23 -211l-1 1q-43 0 -73 13l40 75q22 -8 42 -8q33 0 51.5 22.5t31.5 68.5l142 529h100l-141 -528q-46 -173 -192 -173zM127 605l148 138h101l76 -138l-51 -38l-92 107h-4l-148 -107z" />
<glyph unicode="&#x136;" horiz-adv-x="589" d="M86 0l175 655h101l-83 -312h3l335 312h113l-271 -253l128 -402h-112l-99 323l-136 -124l-53 -199h-101zM174 -229l3 46q61 4 88 15t32 31q4 18 -10 27.5t-48 12.5l32 42q66 -7 89 -25.5t14 -53.5q-24 -87 -200 -95z" />
<glyph unicode="&#x137;" horiz-adv-x="510" d="M77 0l191 708h98l-123 -460h3l257 240h110l-219 -198l108 -291h-109l-74 223l-110 -96l-34 -126h-98zM125 -230l3 46q61 4 88 15t32 31q4 18 -10 27.5t-48 12.5l32 42q66 -7 89 -25.5t14 -53.5q-24 -87 -200 -95z" />
<glyph unicode="&#x138;" horiz-adv-x="510" d="M77 0l132 489h100l-65 -242h3l256 242h110l-216 -198l105 -291h-109l-75 219l-108 -96l-33 -123h-100z" />
<glyph unicode="&#x139;" horiz-adv-x="495" d="M86 0l176 655h101l-153 -569h279l-23 -86h-380zM310 693l-32 51l185 131l39 -66z" />
<glyph unicode="&#x13a;" horiz-adv-x="264" d="M175 -12l1 2q-101 0 -68 125l160 595h100l-161 -601q-11 -38 13 -38q9 0 19 2l-7 -75q-23 -10 -57 -10zM297 747l-32 51l185 131l39 -66z" />
<glyph unicode="&#x13b;" horiz-adv-x="495" d="M86 0l176 655h101l-153 -569h279l-23 -86h-380zM136 -229l3 46q61 4 88 15t32 31q4 18 -10 27.5t-48 12.5l32 42q66 -7 89 -25.5t14 -53.5q-24 -87 -200 -95z" />
<glyph unicode="&#x13c;" horiz-adv-x="264" d="M175 -12l1 2q-101 0 -68 125l160 595h100l-161 -601q-11 -38 13 -38q9 0 19 2l-7 -75q-23 -10 -57 -10zM14 -228l3 46q61 4 88 15t32 31q4 18 -10 27.5t-48 12.5l32 42q66 -7 89 -25.5t14 -53.5q-24 -87 -200 -95z" />
<glyph unicode="&#x13d;" horiz-adv-x="495" d="M86 0l176 655h101l-153 -569h279l-23 -86h-380zM486 513l53 214h69l-18 -60l-58 -154h-46z" />
<glyph unicode="&#x13e;" horiz-adv-x="284" d="M175 -12l1 2q-101 0 -68 125l160 595h100l-161 -601q-11 -38 13 -38q9 0 19 2l-7 -75q-23 -10 -57 -10zM379 550l53 214h69l-18 -60l-58 -154h-46z" />
<glyph unicode="&#x13f;" horiz-adv-x="495" d="M86 0l176 655h101l-153 -569h279l-23 -86h-380zM383 256q-29 0 -43 20t-7 50q9 31 34 51.5t54 20.5q28 0 42 -20.5t5 -51.5q-7 -30 -32 -50t-53 -20z" />
<glyph unicode="&#x140;" horiz-adv-x="387" d="M175 -12l1 2q-101 0 -68 125l160 595h100l-161 -601q-11 -38 13 -38q9 0 19 2l-7 -75q-23 -10 -57 -10zM319 258q-29 0 -43 20t-7 50q9 31 34 51.5t54 20.5q28 0 42 -20.5t5 -51.5q-7 -30 -32 -50t-53 -20z" />
<glyph unicode="&#x141;" horiz-adv-x="499" d="M77 193l-18 63l118 57l92 342h101l-80 -296l195 92l19 -63l-235 -110l-52 -192h279l-23 -86h-380l62 232z" />
<glyph unicode="&#x142;" horiz-adv-x="273" d="M105 282l-19 63l104 54l83 310h100l-69 -259l61 33l19 -64l-103 -53l-69 -258q-11 -38 13 -38q9 0 19 2l-7 -75q-23 -10 -57 -10l1 2q-101 0 -68 125l54 201z" />
<glyph unicode="&#x143;" horiz-adv-x="652" d="M86 0l177 655h104l114 -388l33 -138h4q33 173 46 217l83 309h96l-176 -655h-104l-115 389l-33 137h-4q-31 -161 -45 -214l-84 -312h-96zM500 693l-32 51l185 131l39 -66z" />
<glyph unicode="&#x144;" horiz-adv-x="554" d="M77 0l131 489h82l-10 -68h3q104 80 183 80q150 0 99 -193l-83 -308h-100l79 295q17 65 4.5 92.5t-56.5 27.5q-32 0 -62.5 -16t-76.5 -52l-93 -347h-100zM443 573l-37 50l190 171l52 -67z" />
<glyph unicode="&#x145;" horiz-adv-x="652" d="M86 0l177 655h104l114 -388l33 -138h4q33 173 46 217l83 309h96l-176 -655h-104l-115 389l-33 137h-4q-31 -161 -45 -214l-84 -312h-96zM180 -229l3 46q61 4 88 15t32 31q4 18 -10 27.5t-48 12.5l32 42q66 -7 89 -25.5t14 -53.5q-24 -87 -200 -95z" />
<glyph unicode="&#x146;" horiz-adv-x="554" d="M77 0l131 489h82l-10 -68h3q104 80 183 80q150 0 99 -193l-83 -308h-100l79 295q17 65 4.5 92.5t-56.5 27.5q-32 0 -62.5 -16t-76.5 -52l-93 -347h-100zM129 -229l3 46q61 4 88 15t32 31q4 18 -10 27.5t-48 12.5l32 42q66 -7 89 -25.5t14 -53.5q-24 -87 -200 -95z" />
<glyph unicode="&#x147;" horiz-adv-x="652" d="M86 0l177 655h104l114 -388l33 -138h4q33 173 46 217l83 309h96l-176 -655h-104l-115 389l-33 137h-4q-31 -161 -45 -214l-84 -312h-96zM465 705l-72 112l52 30l85 -90h4l132 90l36 -30l-131 -112h-106z" />
<glyph unicode="&#x148;" horiz-adv-x="554" d="M77 0l131 489h82l-10 -68h3q104 80 183 80q150 0 99 -193l-83 -308h-100l79 295q17 65 4.5 92.5t-56.5 27.5q-32 0 -62.5 -16t-76.5 -52l-93 -347h-100zM400 575l-75 138l51 38l92 -107h4l148 107l30 -38l-149 -138h-101z" />
<glyph unicode="&#x149;" horiz-adv-x="796" d="M315 0l131 489h82l-10 -68h3q104 80 183 80q150 0 99 -193l-83 -308h-100l79 295q17 65 4.5 92.5t-56.5 27.5q-32 0 -62.5 -16t-76.5 -52l-93 -347h-100zM200 409l-13 44q93 48 113 125h-8q-25 0 -38.5 15.5t-6.5 41.5q8 29 29 46t48 17q34 0 45.5 -26.5t-1.5 -75.5 q-34 -123 -168 -187z" />
<glyph unicode="&#x14a;" horiz-adv-x="644" d="M405 -12l1 -3q-55 0 -77 16l47 90q18 -10 44 -10q91 0 159 251q67 245 -84 245q-38 0 -88.5 -26t-89.5 -67l-130 -485h-101l176 655h98l-21 -78q105 90 207 90q68 0 107.5 -32t51.5 -105.5t-22 -194.5q-92 -346 -278 -346z" />
<glyph unicode="&#x14b;" horiz-adv-x="554" d="M288 -184q-42 0 -72 13l39 76q22 -8 42 -8q33 0 51.5 22.5t31.5 69.5l82 307q17 64 4.5 92t-56.5 28q-32 0 -62.5 -16t-76.5 -52l-93 -347h-100l131 489h82l-10 -68h3q104 80 183 80q150 0 99 -193l-86 -320q-46 -173 -192 -173z" />
<glyph unicode="&#x14c;" horiz-adv-x="670" d="M332 -12q-127 0 -181 93t-12 250q41 156 143.5 246.5t230.5 90.5t182.5 -91t13.5 -246q-42 -157 -146 -250t-231 -93zM355 76q82 0 150 69.5t99 185.5q31 115 -0.5 181.5t-113.5 66.5t-148.5 -66.5t-97.5 -181.5q-31 -116 -1 -185.5t112 -69.5zM392 731l18 67h278 l-18 -67h-278z" />
<glyph unicode="&#x14d;" horiz-adv-x="546" d="M270 -12h1q-95 0 -144 69.5t-18 186.5q32 118 117.5 188t180.5 70t144 -70t17 -188q-31 -117 -116.5 -186.5t-180.5 -69.5h-1zM293 70q58 0 105 47.5t68 126.5t-0.5 127t-79.5 48t-105 -48t-68 -127q-21 -78 0.5 -126t79.5 -48zM297 598l18 67h274l-18 -67h-274z" />
<glyph unicode="&#x14e;" horiz-adv-x="670" d="M332 -12q-127 0 -181 93t-12 250q41 156 143.5 246.5t230.5 90.5t182.5 -91t13.5 -246q-42 -157 -146 -250t-231 -93zM355 76q82 0 150 69.5t99 185.5q31 115 -0.5 181.5t-113.5 66.5t-148.5 -66.5t-97.5 -181.5q-31 -116 -1 -185.5t112 -69.5zM523 703h-2 q-68 0 -96.5 35.5t-19.5 95.5l62 10q-3 -35 15 -56.5t57 -21.5t68.5 21.5t46.5 56.5l55 -10q-22 -59 -70 -95t-116 -36z" />
<glyph unicode="&#x14f;" horiz-adv-x="546" d="M270 -12h1q-95 0 -144 69.5t-18 186.5q32 118 117.5 188t180.5 70t144 -70t17 -188q-31 -117 -116.5 -186.5t-180.5 -69.5h-1zM293 70q58 0 105 47.5t68 126.5t-0.5 127t-79.5 48t-105 -48t-68 -127q-21 -78 0.5 -126t79.5 -48zM427 571h-1q-76 0 -104 44t-15 109l63 10 q-5 -41 13 -69t61 -28t75.5 28t50.5 69l57 -10q-21 -65 -72.5 -109t-127.5 -44z" />
<glyph unicode="&#x150;" horiz-adv-x="670" d="M332 -12q-127 0 -181 93t-12 250q41 156 143.5 246.5t230.5 90.5t182.5 -91t13.5 -246q-42 -157 -146 -250t-231 -93zM355 76q82 0 150 69.5t99 185.5q31 115 -0.5 181.5t-113.5 66.5t-148.5 -66.5t-97.5 -181.5q-31 -116 -1 -185.5t112 -69.5zM418 725l136 155l56 -38 l-148 -142zM586 726l136 155l56 -38l-148 -142z" />
<glyph unicode="&#x151;" horiz-adv-x="546" d="M270 -12h1q-95 0 -144 69.5t-18 186.5q32 118 117.5 188t180.5 70t144 -70t17 -188q-31 -117 -116.5 -186.5t-180.5 -69.5h-1zM293 70q58 0 105 47.5t68 126.5t-0.5 127t-79.5 48t-105 -48t-68 -127q-21 -78 0.5 -126t79.5 -48zM375 567l-47 25l133 174l61 -32zM534 567 l-48 25l134 174l60 -32z" />
<glyph unicode="&#x152;" horiz-adv-x="854" d="M370 0l2 2q-148 0 -210.5 86t-20.5 244q41 157 150 240.5t261 83.5h418l-23 -85h-270l-50 -185h226l-23 -86h-226l-57 -214h280l-23 -86h-434zM406 84h40l132 491h-41q-228 0 -292 -243q-33 -122 9 -185t152 -63z" />
<glyph unicode="&#x153;" horiz-adv-x="834" d="M262 -12l1 -1q-94 0 -139.5 69.5t-14.5 186.5q32 119 115 188.5t177 69.5q55 0 92.5 -29t49.5 -83q43 53 94.5 82.5t102.5 29.5q90 0 123 -63t5 -169q-10 -33 -17 -50h-310q-14 -68 15.5 -109t88.5 -41q53 0 126 38l18 -68q-91 -51 -178 -51q-54 0 -92 29.5t-52 82.5 q-88 -112 -205 -112zM287 69q55 0 101.5 48t67.5 126q21 79 0 127t-76 48t-101.5 -48t-67.5 -127q-21 -78 0 -126t76 -48zM559 282h227q18 67 0 103.5t-69 36.5q-47 0 -90.5 -37.5t-67.5 -102.5z" />
<glyph unicode="&#x154;" horiz-adv-x="581" d="M86 0l175 654h213q236 0 185 -189q-39 -146 -189 -187l86 -279h-114l-77 266h-107l-71 -265h-101zM279 346h99q148 0 180 119q16 58 -14 83t-104 25h-100zM463 692l-32 51l185 131l39 -66z" />
<glyph unicode="&#x155;" horiz-adv-x="361" d="M77 0l131 489h82l-15 -88h3q80 99 165 99q32 0 52 -10l-42 -87q-24 8 -46 8q-77 0 -148 -106l-82 -305h-100zM373 573l-37 50l190 171l52 -67z" />
<glyph unicode="&#x156;" horiz-adv-x="581" d="M86 0l175 654h213q236 0 185 -189q-39 -146 -189 -187l86 -279h-114l-77 266h-107l-71 -265h-101zM279 346h99q148 0 180 119q16 58 -14 83t-104 25h-100zM155 -230l3 46q61 4 88 15t32 31q4 18 -10 27.5t-48 12.5l32 42q66 -7 89 -25.5t14 -53.5q-24 -87 -200 -95z" />
<glyph unicode="&#x157;" horiz-adv-x="361" d="M77 0l131 489h82l-15 -88h3q80 99 165 99q32 0 52 -10l-42 -87q-24 8 -46 8q-77 0 -148 -106l-82 -305h-100zM-27 -229l3 46q61 4 88 15t32 31q4 18 -10 27.5t-48 12.5l32 42q66 -7 89 -25.5t14 -53.5q-24 -87 -200 -95z" />
<glyph unicode="&#x158;" horiz-adv-x="581" d="M86 0l175 654h213q236 0 185 -189q-39 -146 -189 -187l86 -279h-114l-77 266h-107l-71 -265h-101zM279 346h99q148 0 180 119q16 58 -14 83t-104 25h-100zM428 704l-72 112l52 30l85 -90h4l132 90l36 -30l-131 -112h-106z" />
<glyph unicode="&#x159;" horiz-adv-x="361" d="M77 0l131 489h82l-15 -88h3q80 99 165 99q32 0 52 -10l-42 -87q-24 8 -46 8q-77 0 -148 -106l-82 -305h-100zM330 575l-75 138l51 38l92 -107h4l148 107l30 -38l-149 -138h-101z" />
<glyph unicode="&#x15a;" horiz-adv-x="540" d="M270 -12l-2 1q-138 0 -207 96l78 70q57 -79 154 -79q59 0 99 26t51 69q8 28 -2 48.5t-25 30.5t-49 26l-1 1l-81 40q-118 54 -87 171q21 77 95 128t167 51q117 0 176 -82l-70 -65q-49 59 -129 59q-50 0 -86.5 -23t-46.5 -63q-3 -10 -3 -19.5t2.5 -17t6 -14t10.5 -12.5 t12.5 -10.5t16 -9.5t17 -8t17.5 -8l1 -1l80 -38q57 -28 80.5 -68.5t5.5 -107.5q-22 -81 -99 -136t-181 -55zM451 693l-32 51l185 131l39 -66z" />
<glyph unicode="&#x15b;" horiz-adv-x="426" d="M209 -12q-100 0 -165 68l65 65q56 -56 124 -56q42 0 69 18.5t35 48.5q5 16 0.5 28.5t-20 23t-26.5 16.5t-35 16h-1q-1 1 -2 1q-17 7 -30 13.5t-28.5 16.5t-24 20t-17.5 24.5t-8 30t4 37.5q17 63 74.5 103t137.5 40q86 0 142 -58l-63 -62q-46 43 -98 43q-39 0 -64.5 -17.5 t-31.5 -44.5q-7 -26 11.5 -41.5t61.5 -32.5q2 -1 5.5 -2.5t4.5 -1.5q14 -6 23 -10t22 -10.5t21 -13t17.5 -15t14.5 -18.5t8.5 -22.5t2.5 -27t-5 -31.5q-18 -64 -78 -106t-146 -43zM374 573l-37 50l190 171l52 -67zM207 -12h2h-2z" />
<glyph unicode="&#x15c;" horiz-adv-x="540" d="M270 -12l-2 1q-138 0 -207 96l78 70q57 -79 154 -79q59 0 99 26t51 69q8 28 -2 48.5t-25 30.5t-49 26l-1 1l-81 40q-118 54 -87 171q21 77 95 128t167 51q117 0 176 -82l-70 -65q-49 59 -129 59q-50 0 -86.5 -23t-46.5 -63q-3 -10 -3 -19.5t2.5 -17t6 -14t10.5 -12.5 t12.5 -10.5t16 -9.5t17 -8t17.5 -8l1 -1l80 -38q57 -28 80.5 -68.5t5.5 -107.5q-22 -81 -99 -136t-181 -55zM320 726l133 112h106l70 -112l-52 -30l-84 90h-4l-133 -90z" />
<glyph unicode="&#x15d;" horiz-adv-x="426" d="M209 -12q-100 0 -165 68l65 65q56 -56 124 -56q42 0 69 18.5t35 48.5q5 16 0.5 28.5t-20 23t-26.5 16.5t-35 16h-1q-1 1 -2 1q-17 7 -30 13.5t-28.5 16.5t-24 20t-17.5 24.5t-8 30t4 37.5q17 63 74.5 103t137.5 40q86 0 142 -58l-63 -62q-46 43 -98 43q-39 0 -64.5 -17.5 t-31.5 -44.5q-7 -26 11.5 -41.5t61.5 -32.5q2 -1 5.5 -2.5t4.5 -1.5q14 -6 23 -10t22 -10.5t21 -13t17.5 -15t14.5 -18.5t8.5 -22.5t2.5 -27t-5 -31.5q-18 -64 -78 -106t-146 -43zM227 604l148 138h101l76 -138l-51 -38l-92 107h-4l-148 -107zM207 -12h2h-2z" />
<glyph unicode="&#x15e;" horiz-adv-x="540" d="M120 -229l4 45q62 4 88.5 15.5t32.5 33.5q5 18 -10 29t-56 17l60 79q-119 11 -178 95l78 70q57 -79 154 -79q59 0 99 26t51 69q8 28 -2 48.5t-25 30.5t-49 26l-1 1l-81 40q-118 54 -87 171q21 77 95 128t167 51q117 0 176 -82l-70 -65q-49 59 -129 59q-50 0 -86.5 -23 t-46.5 -63q-3 -10 -3 -19.5t2.5 -17t6 -14t10.5 -12.5t12.5 -10.5t16 -9.5t17 -8t17.5 -8l1 -1l80 -38q57 -28 80.5 -68.5t5.5 -107.5q-20 -75 -87.5 -128t-160.5 -62l-37 -51q70 -17 55 -72q-24 -87 -200 -95z" />
<glyph unicode="&#x15f;" horiz-adv-x="426" d="M76 -230l4 45q62 4 88.5 15.5t32.5 33.5q5 18 -10 29t-56 17l60 78q-92 6 -151 68l65 65q56 -56 124 -56q42 0 69 18.5t35 48.5q5 16 0.5 28.5t-20 23t-26.5 16.5t-35 16h-1q-1 1 -2 1q-17 7 -30 13.5t-28.5 16.5t-24 20t-17.5 24.5t-8 30t4 37.5q17 63 74.5 103 t137.5 40q86 0 142 -58l-63 -62q-46 43 -98 43q-39 0 -64.5 -17.5t-31.5 -44.5q-7 -26 11.5 -41.5t61.5 -32.5q2 -1 5.5 -2.5t4.5 -1.5q14 -6 23 -10t22 -10.5t21 -13t17.5 -15t14.5 -18.5t8.5 -22.5t2.5 -27t-5 -31.5q-15 -53 -60.5 -92.5t-111.5 -51.5l-40 -56 q70 -17 55 -72q-24 -87 -200 -95zM207 -12h3h-1h-2z" />
<glyph unicode="&#x160;" horiz-adv-x="540" d="M270 -12l-2 1q-138 0 -207 96l78 70q57 -79 154 -79q59 0 99 26t51 69q8 28 -2 48.5t-25 30.5t-49 26l-1 1l-81 40q-118 54 -87 171q21 77 95 128t167 51q117 0 176 -82l-70 -65q-49 59 -129 59q-50 0 -86.5 -23t-46.5 -63q-3 -10 -3 -19.5t2.5 -17t6 -14t10.5 -12.5 t12.5 -10.5t16 -9.5t17 -8t17.5 -8l1 -1l80 -38q57 -28 80.5 -68.5t5.5 -107.5q-22 -81 -99 -136t-181 -55zM416 706l-72 112l52 30l85 -90h4l132 90l36 -30l-131 -112h-106z" />
<glyph unicode="&#x161;" horiz-adv-x="426" d="M209 -12q-100 0 -165 68l65 65q56 -56 124 -56q42 0 69 18.5t35 48.5q5 16 0.5 28.5t-20 23t-26.5 16.5t-35 16h-1q-1 1 -2 1q-17 7 -30 13.5t-28.5 16.5t-24 20t-17.5 24.5t-8 30t4 37.5q17 63 74.5 103t137.5 40q86 0 142 -58l-63 -62q-46 43 -98 43q-39 0 -64.5 -17.5 t-31.5 -44.5q-7 -26 11.5 -41.5t61.5 -32.5q2 -1 5.5 -2.5t4.5 -1.5q14 -6 23 -10t22 -10.5t21 -13t17.5 -15t14.5 -18.5t8.5 -22.5t2.5 -27t-5 -31.5q-18 -64 -78 -106t-146 -43zM332 575l-75 138l51 38l92 -107h4l148 107l30 -38l-149 -138h-101zM207 -12h2h-2z" />
<glyph unicode="&#x162;" horiz-adv-x="542" d="M220 0l154 570h-193l23 85h487l-23 -85h-193l-153 -570h-15l-45 -63q70 -17 55 -72q-24 -87 -200 -95l4 45q62 4 88.5 15.5t32.5 33.5q5 18 -10 29t-56 17l69 90h-25z" />
<glyph unicode="&#x163;" horiz-adv-x="350" d="M72 -230l4 45q62 4 88.5 15.5t32.5 33.5q5 18 -10 29t-56 17l63 83q-96 24 -58 165l67 250h-71l20 75l77 5l49 135h84l-37 -135h128l-22 -80h-128l-67 -250q-24 -90 48 -90q24 0 56 12l-1 -74q-47 -14 -85 -17l-37 -52q70 -17 55 -72q-24 -87 -200 -95zM238 -12h1h-1z " />
<glyph unicode="&#x164;" horiz-adv-x="542" d="M220 0l154 570h-193l23 85h487l-23 -85h-193l-153 -570h-102zM407 705l-72 112l52 30l85 -90h4l132 90l36 -30l-131 -112h-106z" />
<glyph unicode="&#x165;" horiz-adv-x="350" d="M238 -12q-147 0 -102 170l67 250h-71l20 75l77 5l49 135h84l-37 -135h128l-22 -80h-128l-67 -250q-24 -90 48 -90q24 0 56 12l-1 -74q-60 -18 -101 -18h1h-1zM411 548l53 214h69l-18 -60l-58 -154h-46z" />
<glyph unicode="&#x166;" horiz-adv-x="542" d="M220 0l82 305h-121l14 50l90 4h32l57 211h-193l23 85h487l-23 -85h-193l-57 -211h122l-14 -54h-122l-82 -305h-102z" />
<glyph unicode="&#x167;" horiz-adv-x="350" d="M83 229l13 49l73 5l34 125h-71l20 75l77 5l49 135h84l-37 -135h128l-22 -80h-128l-33 -125h127l-15 -54h-127l-19 -71q-24 -90 48 -90q24 0 56 12l-1 -74q-60 -18 -101 -18h1h-1q-147 0 -102 170l19 71h-72z" />
<glyph unicode="&#x168;" horiz-adv-x="650" d="M323 -12h1q-243 0 -165 291l100 375h101l-102 -381q-53 -198 88 -198q144 0 197 198l102 381h97l-100 -375q-78 -291 -318 -291h-1zM589 704q-32 0 -54.5 17t-39 33.5t-33.5 16.5q-38 0 -62 -61l-65 5q20 62 58 95.5t86 33.5q32 0 54.5 -17t39 -33.5t33.5 -16.5 q37 0 61 61l66 -5q-20 -62 -58 -95.5t-86 -33.5z" />
<glyph unicode="&#x169;" horiz-adv-x="551" d="M218 -12l-2 1q-151 0 -98 193l82 308h101l-79 -295q-17 -65 -5 -92.5t56 -27.5q61 0 139 74l91 340h100l-131 -489h-82l12 74h-3q-96 -86 -181 -86zM498 577q-30 0 -50.5 19.5t-36 39t-32.5 19.5q-37 0 -63 -73l-64 4q43 140 145 140q23 0 41.5 -12t28.5 -27t23 -27 t27 -12q37 0 62 72l64 -4q-43 -139 -145 -139z" />
<glyph unicode="&#x16a;" horiz-adv-x="650" d="M323 -12h1q-243 0 -165 291l100 375h101l-102 -381q-53 -198 88 -198q144 0 197 198l102 381h97l-100 -375q-78 -291 -318 -291h-1zM384 731l18 67h278l-18 -67h-278z" />
<glyph unicode="&#x16b;" horiz-adv-x="551" d="M218 -12l-2 1q-151 0 -98 193l82 308h101l-79 -295q-17 -65 -5 -92.5t56 -27.5q61 0 139 74l91 340h100l-131 -489h-82l12 74h-3q-96 -86 -181 -86zM294 599l18 67h274l-18 -67h-274z" />
<glyph unicode="&#x16c;" horiz-adv-x="650" d="M323 -12h1q-243 0 -165 291l100 375h101l-102 -381q-53 -198 88 -198q144 0 197 198l102 381h97l-100 -375q-78 -291 -318 -291h-1zM515 703h-2q-68 0 -96.5 35.5t-19.5 95.5l62 10q-3 -35 15 -56.5t57 -21.5t68.5 21.5t46.5 56.5l55 -10q-22 -59 -70 -95t-116 -36z" />
<glyph unicode="&#x16d;" horiz-adv-x="551" d="M218 -12l-2 1q-151 0 -98 193l82 308h101l-79 -295q-17 -65 -5 -92.5t56 -27.5q61 0 139 74l91 340h100l-131 -489h-82l12 74h-3q-96 -86 -181 -86zM426 572h-1q-76 0 -104 44t-15 109l63 10q-5 -41 13 -69t61 -28t75.5 28t50.5 69l57 -10q-21 -65 -72.5 -109t-127.5 -44 z" />
<glyph unicode="&#x16e;" horiz-adv-x="650" d="M323 -12h1q-243 0 -165 291l100 375h101l-102 -381q-53 -198 88 -198q144 0 197 198l102 381h97l-100 -375q-78 -291 -318 -291h-1zM513 698h-1q-45 0 -66 25.5t-10 67.5t46.5 67.5t80.5 25.5q44 0 65.5 -25.5t10.5 -67.5t-46.5 -67.5t-79.5 -25.5zM523 739h1 q20 0 38 13.5t24 37.5q7 23 -4 37t-31 14q-21 0 -38.5 -14t-24.5 -37q-7 -24 3.5 -37.5t31.5 -13.5z" />
<glyph unicode="&#x16f;" horiz-adv-x="551" d="M218 -12l-2 1q-151 0 -98 193l82 308h101l-79 -295q-17 -65 -5 -92.5t56 -27.5q61 0 139 74l91 340h100l-131 -489h-82l12 74h-3q-96 -86 -181 -86zM422 558q-53 0 -76.5 28t-11.5 72q12 43 50.5 71t91.5 28t77 -28t12 -71q-11 -44 -50.5 -72t-92.5 -28zM433 600 q23 0 42.5 16.5t26.5 42.5t-4.5 42t-34.5 16t-42 -16t-26 -42q-7 -27 4 -43t34 -16z" />
<glyph unicode="&#x170;" horiz-adv-x="650" d="M323 -12h1q-243 0 -165 291l100 375h101l-102 -381q-53 -198 88 -198q144 0 197 198l102 381h97l-100 -375q-78 -291 -318 -291h-1zM410 725l136 155l56 -38l-148 -142zM578 726l136 155l56 -38l-148 -142z" />
<glyph unicode="&#x171;" horiz-adv-x="551" d="M218 -12l-2 1q-151 0 -98 193l82 308h101l-79 -295q-17 -65 -5 -92.5t56 -27.5q61 0 139 74l91 340h100l-131 -489h-82l12 74h-3q-96 -86 -181 -86zM374 568l-47 25l133 174l61 -32zM533 568l-48 25l134 174l60 -32z" />
<glyph unicode="&#x172;" horiz-adv-x="650" d="M294 -215l2 -1q-44 0 -66.5 23.5t-10.5 65.5q7 26 27 51.5t31.5 35t36.5 28.5q-231 8 -154 291l100 375h101l-102 -381q-53 -198 88 -198q144 0 197 198l102 381h97l-100 -375q-34 -125 -89 -185.5t-150 -99.5q-41 -17 -68.5 -43.5t-34.5 -52.5q-6 -21 4.5 -32.5 t29.5 -11.5q17 0 42 14l12 -53q-47 -30 -95 -30z" />
<glyph unicode="&#x173;" horiz-adv-x="551" d="M355 -207v-2q-41 0 -62 23t-10 64q17 66 110 123l10 72h-3q-96 -86 -181 -86q-151 0 -98 193l82 308h101l-79 -295q-17 -65 -5 -92.5t56 -27.5q61 0 139 74l91 340h100l-131 -489q-97 -37 -114 -99q-6 -20 4.5 -31.5t28.5 -11.5q21 0 42 13l11 -48q-44 -28 -92 -28z" />
<glyph unicode="&#x174;" horiz-adv-x="794" d="M154 0l44 655h104l-30 -342q-4 -35 -11 -105t-11 -105h4q30 64 100 210l177 342h90l-7 -342q-1 -30 -3 -65.5t-5 -78t-4 -67.5h4q60 142 91 211l154 342h97l-306 -655h-124l9 368q3 81 10 149h-4q-31 -68 -71 -149l-186 -368h-122zM439 725l133 112h106l70 -112l-52 -30 l-84 90h-4l-133 -90z" />
<glyph unicode="&#x175;" horiz-adv-x="734" d="M156 0l1 489h101l-6 -267q-2 -45 -10 -138h4q8 15 21.5 43.5t25 51.5t22.5 43l140 267h93l-1 -267q0 -46 -4 -138h4q6 13 65 138l136 267h94l-258 -489h-120l2 244q1 27 3 77.5t3 63.5h-4q-58 -122 -69 -142l-127 -243h-116zM369 604l148 138h101l76 -138l-51 -38 l-92 107h-4l-148 -107z" />
<glyph unicode="&#x176;" horiz-adv-x="490" d="M194 0l67 248l-88 407h108l30 -175q11 -77 22 -143h4q85 119 101 143l124 175h106l-306 -407l-66 -248h-102zM285 725l133 112h106l70 -112l-52 -30l-84 90h-4l-133 -90z" />
<glyph unicode="&#x177;" horiz-adv-x="482" d="M44 -205l1 1q-32 0 -57 10l39 78q21 -7 35 -7q73 0 128 93l19 33l-64 486h102l23 -254q3 -38 7 -138h4q40 72 76 138l147 254h97l-319 -519q-53 -86 -109 -130.5t-129 -44.5zM250 604l148 138h101l76 -138l-51 -38l-92 107h-4l-148 -107z" />
<glyph unicode="&#x178;" horiz-adv-x="490" d="M194 0l67 248l-88 407h108l30 -175q11 -77 22 -143h4q85 119 101 143l124 175h106l-306 -407l-66 -248h-102zM331 711h-1q-24 0 -35.5 16t-4.5 39q6 24 26 39.5t44 15.5t35 -15.5t5 -39.5q-7 -24 -26 -39.5t-43 -15.5zM540 711q-24 0 -35.5 16t-4.5 39q6 24 25.5 39.5 t43.5 15.5t35.5 -15.5t5.5 -39.5q-7 -24 -26.5 -39.5t-43.5 -15.5z" />
<glyph unicode="&#x179;" horiz-adv-x="540" d="M42 0l16 61l466 509h-299l23 85h425l-16 -60l-467 -509h333l-23 -86h-458zM452 693l-32 51l185 131l39 -66z" />
<glyph unicode="&#x17a;" horiz-adv-x="435" d="M33 0l15 54l337 355h-216l22 80h342l-15 -54l-337 -355h250l-22 -80h-376zM381 573l-37 50l190 171l52 -67z" />
<glyph unicode="&#x17b;" horiz-adv-x="540" d="M42 0l16 61l466 509h-299l23 85h425l-16 -60l-467 -509h333l-23 -86h-458zM471 711q-28 0 -41.5 17t-6.5 44q7 26 30 43t51 17t42 -17t7 -43q-7 -27 -30.5 -44t-51.5 -17z" />
<glyph unicode="&#x17c;" horiz-adv-x="435" d="M33 0l15 54l337 355h-216l22 80h342l-15 -54l-337 -355h250l-22 -80h-376zM390 582q-27 0 -40 17t-6 44q8 26 30 43.5t49 17.5t40 -17.5t5 -43.5q-7 -27 -29 -44t-49 -17z" />
<glyph unicode="&#x17d;" horiz-adv-x="540" d="M42 0l16 61l466 509h-299l23 85h425l-16 -60l-467 -509h333l-23 -86h-458zM417 705l-72 112l52 30l85 -90h4l132 90l36 -30l-131 -112h-106z" />
<glyph unicode="&#x17e;" horiz-adv-x="435" d="M33 0l15 54l337 355h-216l22 80h342l-15 -54l-337 -355h250l-22 -80h-376zM338 575l-75 138l51 38l92 -107h4l148 107l30 -38l-149 -138h-101z" />
<glyph unicode="&#x180;" horiz-adv-x="552" d="M302 -12l3 -1q-71 0 -121 63h-3l-22 -51h-80l151 565h-69l14 49l70 4l24 91h100l-24 -90h182l-15 -54h-182l-23 -86l-25 -84q91 65 163 65q92 0 126 -61.5t6 -164.5q-30 -111 -109.5 -178t-165.5 -67zM307 70l1 -2q55 0 102.5 44t66.5 116q20 64 1 104.5t-79 40.5 q-57 0 -134 -60l-53 -198q40 -45 95 -45z" />
<glyph unicode="&#x18f;" horiz-adv-x="663" d="M327 -12v1q-128 0 -177 89.5t-7 246.5q6 17 12 31h454q50 228 -127 228q-88 0 -173 -64l-30 69q103 78 234 78q130 0 181 -88t7 -250q-43 -162 -143 -251.5t-231 -89.5zM587 280h-351q-22 -100 8.5 -154.5t105.5 -54.5q78 0 139.5 53.5t97.5 155.5z" />
<glyph unicode="&#x192;" horiz-adv-x="506" d="M205 334l20 71l71 4h22l19 51q40 105 94.5 155t138.5 50q43 0 75 -18l-41 -76q-28 14 -50 14q-73 0 -118 -115l-23 -61h120l-20 -75h-128l-85 -224q-39 -100 -92 -153.5t-136 -53.5q-49 0 -72 15l37 75q20 -10 46 -10q42 0 71 34.5t60 116.5l75 200h-84zM72 -97h1h-1z " />
<glyph unicode="&#x193;" horiz-adv-x="623" d="M350 -12q-134 0 -194 90.5t-17 248.5q41 156 151.5 248t244.5 92q45 0 78 -9q0 17 4 32q14 52 56 85t97 33q32 0 65 -13l-39 -76q-20 8 -30 8q-24 0 -42 -14.5t-24 -37.5q-9 -31 10 -73l1 -1v-1h-1l-72 -65q-48 44 -124 44q-93 0 -167 -67.5t-105 -182.5q-32 -119 4 -186 t136 -67q67 0 114 34l42 155h-130l22 83h222l-76 -283q-96 -77 -226 -77h1h-1z" />
<glyph unicode="&#x1a0;" horiz-adv-x="670" d="M335 -13q-127 0 -181 93t-12 250q41 156 143.5 246.5t230.5 90.5q75 0 125 -32q78 16 96 79q8 34 1 61l86 32q14 -40 2 -85q-25 -95 -143 -124q77 -93 29 -268q-42 -157 -146 -250t-231 -93zM358 75q82 0 150 69.5t99 185.5q31 115 -0.5 181.5t-113.5 66.5t-148.5 -66.5 t-97.5 -181.5q-31 -116 -1 -185.5t112 -69.5z" />
<glyph unicode="&#x1a1;" horiz-adv-x="546" d="M271 -13h1q-95 0 -144 69.5t-18 186.5q32 118 117.5 188t180.5 70q50 0 92 -22q82 19 103 94q7 30 -1 55l86 35q14 -39 3 -83q-26 -101 -148 -137q60 -74 26 -200q-31 -117 -116.5 -186.5t-180.5 -69.5h-1zM294 69q58 0 105 47.5t68 126.5t-0.5 127t-79.5 48t-105 -48 t-68 -127q-21 -78 0.5 -126t79.5 -48z" />
<glyph unicode="&#x1af;" horiz-adv-x="666" d="M732 614l-90 -336q-78 -291 -318 -291h-1h1q-243 0 -165 291l100 375h101l-102 -381q-53 -198 88 -198q144 0 197 198l102 381h45l-1 1q91 10 109 80q8 34 1 61l86 32q14 -40 2 -85q-28 -102 -155 -128z" />
<glyph unicode="&#x1b0;" horiz-adv-x="551" d="M219 -12l-2 1q-151 0 -98 193l82 308h101l-79 -295q-17 -65 -5 -92.5t56 -27.5q61 0 139 74l91 340h29q86 11 109 95q6 24 0 55l86 35q14 -39 3 -83q-28 -103 -137 -138l-121 -453h-82l12 74h-3q-96 -86 -181 -86z" />
<glyph unicode="&#x1c2;" horiz-adv-x="300" d="M95 331l12 50l78 4h36l98 367h68l-98 -367h106l-14 -54h-107l-33 -122h106l-15 -54h-105l-108 -403h-68l108 403h-113l12 49l79 5h36l33 122h-111z" />
<glyph unicode="&#x1cd;" horiz-adv-x="552" d="M0 0l393 655h117l42 -655h-108l-6 188h-229l-106 -188h-103zM255 268h181l-3 89q-4 95 -4 218h-4q-73 -139 -120 -218zM409 705l-72 112l52 30l85 -90h4l132 90l36 -30l-131 -112h-106z" />
<glyph unicode="&#x1ce;" horiz-adv-x="510" d="M191 -12q-63 0 -93 38.5t-12 102.5q21 79 102 122t240 60q27 108 -66 108q-63 0 -155 -50l-19 68q116 64 213 64q176 0 122 -207l-79 -294h-82l7 56h-3q-100 -68 -175 -68zM244 67l1 -1q55 0 134 59l32 122q-109 -13 -161.5 -40t-64.5 -70q-9 -35 7.5 -52.5t51.5 -17.5z M374 574l-75 138l51 38l92 -107h4l148 107l30 -38l-149 -138h-101zM190 -12h1h-1z" />
<glyph unicode="&#x1cf;" horiz-adv-x="274" d="M86 0l176 655h101l-176 -655h-101zM272 705l-72 112l52 30l85 -90h4l132 90l36 -30l-131 -112h-106z" />
<glyph unicode="&#x1d0;" horiz-adv-x="254" d="M77 0l131 489h100l-131 -489h-100zM231 575l-75 138l51 38l92 -107h4l148 107l30 -38l-149 -138h-101z" />
<glyph unicode="&#x1d1;" horiz-adv-x="670" d="M332 -12q-127 0 -181 93t-12 250q41 156 143.5 246.5t230.5 90.5t182.5 -91t13.5 -246q-42 -157 -146 -250t-231 -93zM355 76q82 0 150 69.5t99 185.5q31 115 -0.5 181.5t-113.5 66.5t-148.5 -66.5t-97.5 -181.5q-31 -116 -1 -185.5t112 -69.5zM471 705l-72 112l52 30 l85 -90h4l132 90l36 -30l-131 -112h-106z" />
<glyph unicode="&#x1d2;" horiz-adv-x="546" d="M270 -12h1q-95 0 -144 69.5t-18 186.5q32 118 117.5 188t180.5 70t144 -70t17 -188q-31 -117 -116.5 -186.5t-180.5 -69.5h-1zM293 70q58 0 105 47.5t68 126.5t-0.5 127t-79.5 48t-105 -48t-68 -127q-21 -78 0.5 -126t79.5 -48zM378 575l-75 138l51 38l92 -107h4l148 107 l30 -38l-149 -138h-101z" />
<glyph unicode="&#x1d3;" horiz-adv-x="650" d="M323 -12h1q-243 0 -165 291l100 375h101l-102 -381q-53 -198 88 -198q144 0 197 198l102 381h97l-100 -375q-78 -291 -318 -291h-1zM462 705l-72 112l52 30l85 -90h4l132 90l36 -30l-131 -112h-106z" />
<glyph unicode="&#x1d4;" horiz-adv-x="551" d="M218 -12l-2 1q-151 0 -98 193l82 308h101l-79 -295q-17 -65 -5 -92.5t56 -27.5q61 0 139 74l91 340h100l-131 -489h-82l12 74h-3q-96 -86 -181 -86zM377 576l-75 138l51 38l92 -107h4l148 107l30 -38l-149 -138h-101z" />
<glyph unicode="&#x1d5;" horiz-adv-x="650" d="M323 -12h1q-243 0 -165 291l100 375h101l-102 -381q-53 -198 88 -198q144 0 197 198l102 381h97l-100 -375q-78 -291 -318 -291h-1zM419 864l14 52h278l-14 -52h-278zM412 711q-22 0 -32 14t-4 36q6 21 23.5 35t39.5 14t32.5 -14t4.5 -35q-6 -22 -24 -36t-40 -14z M622 710q-22 0 -32.5 14t-4.5 36q6 21 24 35t40 14t32 -14t4 -35q-6 -22 -23.5 -36t-39.5 -14z" />
<glyph unicode="&#x1d6;" horiz-adv-x="551" d="M218 -12l-2 1q-151 0 -98 193l82 308h101l-79 -295q-17 -65 -5 -92.5t56 -27.5q61 0 139 74l91 340h100l-131 -489h-82l12 74h-3q-96 -86 -181 -86zM336 752l15 53h275l-15 -53h-275zM330 584q-22 0 -32.5 14.5t-4.5 35.5t24 35.5t40 14.5t32 -14.5t4 -35.5t-24 -35.5 t-39 -14.5zM529 583q-22 0 -32 14.5t-4 35.5t24 35.5t39 14.5q22 0 32.5 -14.5t4.5 -35.5t-24 -35.5t-40 -14.5z" />
<glyph unicode="&#x1d7;" horiz-adv-x="650" d="M323 -12h1q-243 0 -165 291l100 375h101l-102 -381q-53 -198 88 -198q144 0 197 198l102 381h97l-100 -375q-78 -291 -318 -291h-1zM512 853l129 126l53 -42l-145 -114zM412 711q-22 0 -32 14t-4 36q6 21 23.5 35t39.5 14t32.5 -14t4.5 -35q-6 -22 -24 -36t-40 -14z M623 711q-22 0 -32.5 14t-4.5 36q6 21 24 35t40 14t32 -14t4 -35q-6 -22 -23.5 -36t-39.5 -14z" />
<glyph unicode="&#x1d8;" horiz-adv-x="551" d="M218 -12l-2 1q-151 0 -98 193l82 308h101l-79 -295q-17 -65 -5 -92.5t56 -27.5q61 0 139 74l91 340h100l-131 -489h-82l12 74h-3q-96 -86 -181 -86zM460 708l-34 27l113 120l47 -39zM330 584q-22 0 -32.5 14.5t-4.5 35.5t24 35.5t40 14.5t32 -14.5t4 -35.5t-24 -35.5 t-39 -14.5zM529 584q-22 0 -32 14.5t-4 35.5t24 35.5t39 14.5q22 0 32.5 -14.5t4.5 -35.5t-24 -35.5t-40 -14.5z" />
<glyph unicode="&#x1d9;" horiz-adv-x="650" d="M323 -12h1q-243 0 -165 291l100 375h101l-102 -381q-53 -198 88 -198q144 0 197 198l102 381h97l-100 -375q-78 -291 -318 -291h-1zM509 843l-71 98l48 30l79 -74h4l118 74l32 -30l-123 -98h-87zM412 711q-22 0 -32 14t-4 36q6 21 23.5 35t39.5 14t32.5 -14t4.5 -35 q-6 -22 -24 -36t-40 -14zM622 711q-22 0 -32.5 14t-4.5 36q6 21 24 35t40 14t32 -14t4 -35q-6 -22 -23.5 -36t-39.5 -14z" />
<glyph unicode="&#x1da;" horiz-adv-x="551" d="M218 -12l-2 1q-151 0 -98 193l82 308h101l-79 -295q-17 -65 -5 -92.5t56 -27.5q61 0 139 74l91 340h100l-131 -489h-82l12 74h-3q-96 -86 -181 -86zM402 850l78 -71h4l116 71l27 -32l-118 -92h-82l-68 92zM330 584q-22 0 -32.5 14.5t-4.5 35.5t24 35.5t40 14.5t32 -14.5 t4 -35.5t-24 -35.5t-39 -14.5zM529 584q-22 0 -32 14.5t-4 35.5t24 35.5t39 14.5q22 0 32.5 -14.5t4.5 -35.5t-24 -35.5t-40 -14.5z" />
<glyph unicode="&#x1db;" horiz-adv-x="650" d="M323 -12h1q-243 0 -165 291l100 375h101l-102 -381q-53 -198 88 -198q144 0 197 198l102 381h97l-100 -375q-78 -291 -318 -291h-1zM598 853l-51 -30l-84 114l74 42zM413 710q-22 0 -32 14t-4 36q6 21 23.5 35t39.5 14t32.5 -14t4.5 -35q-6 -22 -24 -36t-40 -14zM623 710 q-22 0 -32.5 14t-4.5 36q6 21 24 35t40 14t32 -14t4 -35q-6 -22 -23.5 -36t-39.5 -14z" />
<glyph unicode="&#x1dc;" horiz-adv-x="551" d="M218 -12l-2 1q-151 0 -98 193l82 308h101l-79 -295q-17 -65 -5 -92.5t56 -27.5q61 0 139 74l91 340h100l-131 -489h-82l12 74h-3q-96 -86 -181 -86zM466 708l-68 108l67 39l49 -120zM330 584q-22 0 -32.5 14.5t-4.5 35.5t24 35.5t40 14.5t32 -14.5t4 -35.5t-24 -35.5 t-39 -14.5zM529 584q-22 0 -32 14.5t-4 35.5t24 35.5t39 14.5q22 0 32.5 -14.5t4.5 -35.5t-24 -35.5t-40 -14.5z" />
<glyph unicode="&#x1e2;" horiz-adv-x="828" d="M2 0l511 656h432l-23 -85h-270l-50 -185h226l-23 -86h-226l-57 -214h280l-23 -86h-382l48 180h-198l-139 -180h-106zM308 260h159l84 316h-4q-94 -127 -154 -206zM615 743l18 67h278l-18 -67h-278z" />
<glyph unicode="&#x1e3;" horiz-adv-x="785" d="M196 -12h-2q-64 0 -94 38.5t-12 102.5q21 79 102 122t237 60q27 108 -64 108q-60 0 -152 -50l-19 68q116 64 206 64q51 0 80 -25t34 -70q89 95 181 95q90 0 122 -63t4 -169q-10 -33 -17 -50h-307q-14 -68 14.5 -109t87.5 -41q51 0 124 38l18 -68q-91 -51 -176 -51 q-102 0 -148 87q-125 -87 -219 -87zM245 67l-1 -1q71 0 151 66q-6 37 7 91l6 24q-198 -25 -221 -110q-9 -35 7 -52.5t51 -17.5zM509 282h224q18 67 1.5 103.5t-67.5 36.5q-47 0 -90.5 -37.5t-67.5 -102.5zM432 598l18 67h274l-18 -67h-274z" />
<glyph unicode="&#x1e6;" horiz-adv-x="623" d="M350 -12q-134 0 -194 90.5t-17 248.5q41 156 151.5 248t244.5 92q115 0 171 -82l-72 -65q-43 59 -120 59q-93 0 -167 -67.5t-105 -182.5q-32 -119 4 -186t136 -67q67 0 114 34l42 155h-130l22 83h222l-76 -283q-96 -77 -226 -77h1h-1zM494 705l-72 112l52 30l85 -90h4 l132 90l36 -30l-131 -112h-106z" />
<glyph unicode="&#x1e7;" horiz-adv-x="512" d="M186 -220h-2q-91 0 -138 33.5t-31 95.5q16 60 100 107l1 4q-35 28 -22 81q15 56 78 91l1 4q-50 50 -29 131q21 80 88.5 127.5t146.5 47.5q39 0 68 -12h172l-20 -75h-94q25 -36 10 -91q-21 -78 -85.5 -123.5t-143.5 -45.5q-36 0 -64 15q-33 -24 -41 -52q-6 -23 10 -35.5 t61 -12.5h90q88 0 124 -29t20 -90q-19 -72 -102.5 -121.5t-197.5 -49.5zM217 -153l-1 -1q63 0 110.5 26t57.5 62q8 30 -11.5 42t-65.5 12h-75q-39 0 -63 8q-51 -31 -63 -72q-10 -36 19.5 -56.5t91.5 -20.5zM305 220q40 0 74.5 29t47.5 77t-6 76t-59 28t-74 -28t-47 -76 t6 -77t58 -29zM372 574l-75 138l51 38l92 -107h4l148 107l30 -38l-149 -138h-101z" />
<glyph unicode="&#x1ea;" horiz-adv-x="670" d="M305 -215v1q-44 0 -66 23.5t-10 65.5q17 63 92 115q-125 5 -173.5 96.5t-7.5 244.5q41 156 143.5 246.5t230.5 90.5t182.5 -91t13.5 -246q-35 -130 -108 -210t-188 -127q-42 -17 -69 -43.5t-34 -52.5q-6 -21 4.5 -32.5t29.5 -11.5t43 14l12 -53q-47 -30 -95 -30zM355 77 q82 0 150 69.5t99 185.5q31 115 -0.5 181.5t-113.5 66.5t-148.5 -66.5t-97.5 -181.5q-31 -116 -1 -185.5t112 -69.5z" />
<glyph unicode="&#x1eb;" horiz-adv-x="546" d="M240 -207l2 1q-41 0 -61.5 23t-9.5 64q16 63 84 109q-89 6 -132.5 74.5t-13.5 179.5q32 118 117.5 188t180.5 70t144 -70t17 -188q-26 -95 -82.5 -153t-143.5 -94q-38 -15 -63 -42t-32 -55q-6 -21 4 -32.5t29 -11.5t42 13l11 -48q-44 -28 -93 -28zM293 71q58 0 105 47.5 t68 126.5t-0.5 127t-79.5 48t-105 -48t-68 -127q-21 -78 0.5 -126t79.5 -48z" />
<glyph unicode="&#x1f4;" horiz-adv-x="623" d="M350 -12q-134 0 -194 90.5t-17 248.5q41 156 151.5 248t244.5 92q115 0 171 -82l-72 -65q-43 59 -120 59q-93 0 -167 -67.5t-105 -182.5q-32 -119 4 -186t136 -67q67 0 114 34l42 155h-130l22 83h222l-76 -283q-96 -77 -226 -77h1h-1zM529 692l-32 51l185 131l39 -66z " />
<glyph unicode="&#x1f5;" horiz-adv-x="512" d="M186 -220h-2q-91 0 -138 33.5t-31 95.5q16 60 100 107l1 4q-35 28 -22 81q15 56 78 91l1 4q-50 50 -29 131q21 80 88.5 127.5t146.5 47.5q39 0 68 -12h172l-20 -75h-94q25 -36 10 -91q-21 -78 -85.5 -123.5t-143.5 -45.5q-36 0 -64 15q-33 -24 -41 -52q-6 -23 10 -35.5 t61 -12.5h90q88 0 124 -29t20 -90q-19 -72 -102.5 -121.5t-197.5 -49.5zM217 -153l-1 -1q63 0 110.5 26t57.5 62q8 30 -11.5 42t-65.5 12h-75q-39 0 -63 8q-51 -31 -63 -72q-10 -36 19.5 -56.5t91.5 -20.5zM305 220q40 0 74.5 29t47.5 77t-6 76t-59 28t-74 -28t-47 -76 t6 -77t58 -29zM415 572l-37 50l190 171l52 -67z" />
<glyph unicode="&#x1f8;" horiz-adv-x="652" d="M86 0l177 655h104l114 -388l33 -138h4q33 173 46 217l83 309h96l-176 -655h-104l-115 389l-33 137h-4q-31 -161 -45 -214l-84 -312h-96zM531 693l-130 116l73 66l115 -131z" />
<glyph unicode="&#x1f9;" horiz-adv-x="554" d="M77 0l131 489h82l-10 -68h3q104 80 183 80q150 0 99 -193l-83 -308h-100l79 295q17 65 4.5 92.5t-56.5 27.5q-32 0 -62.5 -16t-76.5 -52l-93 -347h-100zM457 573l-122 154l87 67l99 -171z" />
<glyph unicode="&#x1fc;" horiz-adv-x="828" d="M2 0l511 656h432l-23 -85h-270l-50 -185h226l-23 -86h-226l-57 -214h280l-23 -86h-382l48 180h-198l-139 -180h-106zM308 260h159l84 316h-4q-94 -127 -154 -206zM728 704l-32 51l185 131l39 -66z" />
<glyph unicode="&#x1fd;" horiz-adv-x="785" d="M196 -12h-2q-64 0 -94 38.5t-12 102.5q21 79 102 122t237 60q27 108 -64 108q-60 0 -152 -50l-19 68q116 64 206 64q51 0 80 -25t34 -70q89 95 181 95q90 0 122 -63t4 -169q-10 -33 -17 -50h-307q-14 -68 14.5 -109t87.5 -41q51 0 124 38l18 -68q-91 -51 -176 -51 q-102 0 -148 87q-125 -87 -219 -87zM245 67l-1 -1q71 0 151 66q-6 37 7 91l6 24q-198 -25 -221 -110q-9 -35 7 -52.5t51 -17.5zM509 282h224q18 67 1.5 103.5t-67.5 36.5q-47 0 -90.5 -37.5t-67.5 -102.5zM556 572l-37 50l190 171l52 -67z" />
<glyph unicode="&#x218;" horiz-adv-x="540" d="M270 -12l-2 1q-138 0 -207 96l78 70q57 -79 154 -79q59 0 99 26t51 69q8 28 -2 48.5t-25 30.5t-49 26l-1 1l-81 40q-118 54 -87 171q21 77 95 128t167 51q117 0 176 -82l-70 -65q-49 59 -129 59q-50 0 -86.5 -23t-46.5 -63q-3 -10 -3 -19.5t2.5 -17t6 -14t10.5 -12.5 t12.5 -10.5t16 -9.5t17 -8t17.5 -8l1 -1l80 -38q57 -28 80.5 -68.5t5.5 -107.5q-22 -81 -99 -136t-181 -55zM120 -229l3 46q61 4 88 15t32 31q4 18 -10 27.5t-48 12.5l32 42q66 -7 89 -25.5t14 -53.5q-24 -87 -200 -95z" />
<glyph unicode="&#x219;" horiz-adv-x="426" d="M209 -12q-100 0 -165 68l65 65q56 -56 124 -56q42 0 69 18.5t35 48.5q5 16 0.5 28.5t-20 23t-26.5 16.5t-35 16h-1q-1 1 -2 1q-17 7 -30 13.5t-28.5 16.5t-24 20t-17.5 24.5t-8 30t4 37.5q17 63 74.5 103t137.5 40q86 0 142 -58l-63 -62q-46 43 -98 43q-39 0 -64.5 -17.5 t-31.5 -44.5q-7 -26 11.5 -41.5t61.5 -32.5q2 -1 5.5 -2.5t4.5 -1.5q14 -6 23 -10t22 -10.5t21 -13t17.5 -15t14.5 -18.5t8.5 -22.5t2.5 -27t-5 -31.5q-18 -64 -78 -106t-146 -43zM76 -230l3 46q61 4 88 15t32 31q4 18 -10 27.5t-48 12.5l32 42q66 -7 89 -25.5t14 -53.5 q-24 -87 -200 -95zM207 -12h2h-2z" />
<glyph unicode="&#x21a;" horiz-adv-x="542" d="M220 0l154 570h-193l23 85h487l-23 -85h-193l-153 -570h-102zM120 -230l3 46q61 4 88 15t32 31q4 18 -10 27.5t-48 12.5l32 42q66 -7 89 -25.5t14 -53.5q-24 -87 -200 -95z" />
<glyph unicode="&#x21b;" horiz-adv-x="350" d="M238 -12q-147 0 -102 170l67 250h-71l20 75l77 5l49 135h84l-37 -135h128l-22 -80h-128l-67 -250q-24 -90 48 -90q24 0 56 12l-1 -74q-60 -18 -101 -18h1h-1zM67 -230l3 46q61 4 88 15t32 31q4 18 -10 27.5t-48 12.5l32 42q66 -7 89 -25.5t14 -53.5q-24 -87 -200 -95z " />
<glyph unicode="&#x237;" horiz-adv-x="256" d="M-23 -211l-1 1q-43 0 -73 13l40 75q22 -8 42 -8q33 0 51.5 22.5t31.5 68.5l142 529h100l-141 -528q-46 -173 -192 -173z" />
<glyph unicode="&#x243;" horiz-adv-x="610" d="M105 0l48 179h-76l14 50l76 4l114 423h203q107 0 157.5 -38t28.5 -120q-13 -49 -51 -85.5t-98 -50.5l-1 -4q142 -25 107 -161q-26 -97 -107.5 -147t-195.5 -50h-219zM226 76l107 1q164 0 198 128q16 60 -18.5 88.5t-114.5 28.5h-106l-24 -89h146l-15 -54h-145zM309 386 h90q144 0 172 103q13 49 -17 71t-101 22h-92z" />
<glyph unicode="&#x250;" horiz-adv-x="518" d="M269 -12h-1q-102 0 -137 56t-7 158l76 287h82l-10 -66h2q96 78 190 78q59 0 86 -35t11 -95q-22 -82 -105 -129.5t-240 -64.5q-11 -47 7.5 -77t79.5 -30q59 0 149 50l20 -68q-112 -64 -203 -64zM234 241l2 1q110 14 162 42t64 74q9 32 -6 48t-46 16q-63 0 -146 -70z" />
<glyph unicode="&#x251;" horiz-adv-x="560" d="M243 -12v-1q-93 0 -129.5 68t-3.5 188q30 115 111.5 186t167.5 71q72 0 121 -60h2l21 48h80l-131 -489h-82l6 55h-3q-86 -66 -160 -66zM288 70h1q60 0 128 61l64 240q-38 45 -95 45q-54 0 -103 -47t-70 -125q-22 -83 -2.5 -128.5t77.5 -45.5z" />
<glyph unicode="&#x252;" horiz-adv-x="560" d="M302 -12l-2 1q-70 0 -120 59h-3l-21 -48h-80l131 489h82l-6 -55h3q94 67 169 67q92 0 124.5 -67t2.5 -183q-32 -120 -112.5 -191.5t-167.5 -71.5zM302 72q56 0 104 48t71 132q46 166 -72 166q-53 0 -134 -60l-64 -241q41 -45 95 -45z" />
<glyph unicode="&#x253;" horiz-adv-x="560" d="M305 -12q-71 2 -119 61h-3l-22 -49h-80l141 527q24 88 83 141t148 53q44 0 82 -17l-42 -76q-24 12 -52 12q-87 0 -121 -113l-30 -100q93 65 164 65q92 0 124.5 -65.5t2.5 -178.5q-32 -118 -111 -188t-165 -72zM309 71l1 -1q56 0 104 46.5t70 127.5q43 162 -74 162 q-56 0 -134 -60l-62 -230q40 -45 95 -45zM302 -12h3h2h-5z" />
<glyph unicode="&#x254;" horiz-adv-x="459" d="M181 -12q-90 0 -142 61l59 66q41 -45 95 -45q61 0 113 48t73 126t-4 127t-83 49q-55 0 -108 -39l-33 65q79 56 173 56q95 0 142 -69t15 -189q-31 -118 -115 -187t-185 -69zM180 -12h1h-1z" />
<glyph unicode="&#x255;" horiz-adv-x="459" d="M108 -70l-69 32q42 62 81 106q-40 68 -12 175q32 119 120.5 188.5t188.5 69.5q79 0 128 -56l-63 -61q-35 40 -82 40q-65 0 -119.5 -50t-75.5 -130q-15 -55 -4 -97q99 79 182 79q56 0 79.5 -30t9.5 -80q-15 -55 -67.5 -92t-123.5 -37q-68 0 -114 31q-34 -44 -59 -88z M233 91q29 -24 70 -24q33 0 58.5 14.5t30.5 35.5q5 17 -4 29.5t-32 12.5q-50 0 -123 -68z" />
<glyph unicode="&#x256;" horiz-adv-x="560" d="M469 -184v-1q-66 0 -89 37.5t-6 103.5l26 96q-85 -64 -157 -64q-93 0 -129.5 68t-3.5 188q30 115 111 186t166 71q68 0 118 -55l18 81l52 194h101l-199 -741q-12 -40 -6.5 -61.5t32.5 -21.5q14 0 36 8l-2 -76q-30 -13 -68 -13zM289 70h1q60 0 128 61l64 240 q-38 45 -95 45q-54 0 -103 -47t-70 -125q-22 -83 -2.5 -128.5t77.5 -45.5z" />
<glyph unicode="&#x257;" horiz-adv-x="560" d="M243 -12l-1 -1q-93 0 -129.5 68t-3.5 188q30 115 111 186t166 71q68 0 118 -55l31 119q20 74 66 116t118 42q34 0 57 -10l-39 -76q-12 5 -26 5q-58 0 -80 -86l-149 -556h-82l6 55h-3q-86 -66 -160 -66zM287 70h1q60 0 128 61l64 240q-38 45 -95 45q-54 0 -103 -47 t-70 -125q-22 -83 -2.5 -128.5t77.5 -45.5z" />
<glyph unicode="&#x258;" horiz-adv-x="502" d="M222 -12q-90 0 -155 51l52 64q47 -36 110 -36q65 0 114.5 40t74.5 111h-319q2 24 9 52q29 105 102 168t169 63q91 0 133.5 -70.5t11.5 -187.5q-32 -118 -115.5 -186.5t-186.5 -68.5zM202 288h236q10 65 -11 100t-71 35q-54 0 -95.5 -35.5t-58.5 -99.5z" />
<glyph unicode="&#x259;" horiz-adv-x="502" d="M238 -12h-2q-95 0 -132.5 64t-8.5 172q7 23 19 52h319q13 69 -12 108t-85 39q-59 0 -131 -40l-16 68q87 50 185 50q95 0 138.5 -69t11.5 -186q-31 -117 -112 -187.5t-174 -70.5zM254 67q51 0 93.5 36t67.5 104h-237q-19 -68 1 -104t75 -36z" />
<glyph unicode="&#x25a;" horiz-adv-x="664" d="M249 -12q-97 0 -136 61t-22 154l349 130q-9 90 -103 90q-59 0 -129 -40l-17 68q87 50 179 50q71 0 113.5 -35t51.5 -98l93 35l46 -20q-10 -57 -4 -75t29 -18q20 0 44 14l10 -50q-42 -25 -75 -25q-35 0 -57.5 22.5t-19.5 74.5l-65 -24q-3 -30 -12 -63 q-28 -106 -105.5 -178.5t-169.5 -72.5zM435 264l-262 -97q-4 -47 21.5 -73.5t72.5 -26.5q52 0 97 47t63 117q7 28 8 33z" />
<glyph unicode="&#x25b;" horiz-adv-x="446" d="M251 -12h-1q-87 0 -135.5 40.5t-30.5 107.5q26 93 140 121l1 4q-36 13 -49.5 42t-4.5 64q18 66 79.5 100t140.5 34q82 0 138 -47l-57 -66q-49 36 -99 36q-39 0 -68 -18t-38 -50q-9 -31 12 -48.5t71 -17.5h59l-19 -70h-74q-110 0 -130 -73q-10 -36 17 -57.5t79 -21.5 q61 0 131 40l24 -66q-92 -54 -186 -54z" />
<glyph unicode="&#x25c;" horiz-adv-x="462" d="M209 -12q-96 0 -161 54l58 66q50 -40 109 -40q52 0 90 21.5t48 57.5t-13.5 54.5t-77.5 18.5h-73l19 70h58q100 0 118 66q9 32 -9.5 50t-56.5 18q-53 0 -120 -36l-21 66q85 47 170 47q76 0 117 -34t23 -100q-9 -34 -38.5 -63.5t-71.5 -42.5l-1 -4q44 -12 65.5 -42.5 t8.5 -78.5q-18 -68 -87 -108t-154 -40h1h-1z" />
<glyph unicode="&#x25e;" horiz-adv-x="552" d="M259 -12h-2q-91 0 -141 40t-32 108q26 93 140 121l1 4q-36 13 -49.5 42t-4.5 64q18 66 79.5 100t142.5 34q107 0 160.5 -67t21.5 -190t-119.5 -189.5t-196.5 -66.5zM278 67l-1 -1q68 0 118 45.5t74 131.5q24 87 -2 133.5t-94 46.5q-39 0 -68.5 -18t-38.5 -50 q-9 -31 10.5 -48.5t66.5 -17.5h28l-19 -70h-43q-105 0 -125 -73q-10 -37 15.5 -58t78.5 -21z" />
<glyph unicode="&#x25f;" horiz-adv-x="284" d="M71 229l13 49l84 5l56 207h100l-55 -207h79l-15 -54h-79l-71 -267q-46 -173 -192 -173l-1 1q-43 0 -73 13l40 75q22 -8 42 -8q33 0 51.5 22.5t31.5 68.5l72 268h-83z" />
<glyph unicode="&#x260;" horiz-adv-x="566" d="M203 -210l-1 -1q-95 0 -163 54l54 69q55 -42 130 -42q120 0 156 114l24 84q-79 -60 -155 -60q-92 0 -128.5 66t-6.5 178q30 110 110.5 179.5t165.5 69.5q66 0 115 -55l10 39q18 68 65 109.5t119 41.5q33 0 58 -10l-39 -76q-11 6 -26 6q-57 0 -80 -87l-130 -485 q-25 -92 -97.5 -143t-180.5 -51zM217 252q-20 -76 0.5 -120t77.5 -44q56 0 129 61l59 222q-40 45 -96 45q-53 0 -102 -46t-68 -118z" />
<glyph unicode="&#x261;" horiz-adv-x="566" d="M203 -210l2 -1q-95 0 -163 54l54 69q55 -42 130 -42q120 0 156 114l24 84q-79 -60 -155 -60q-92 0 -128.5 66t-6.5 178q30 110 110.5 179.5t165.5 69.5q74 0 119 -57h2l20 45h83l-135 -505q-25 -92 -97.5 -143t-180.5 -51zM220 252q-20 -76 0.5 -120t77.5 -44 q56 0 129 61l59 222q-40 45 -96 45q-53 0 -102 -46t-68 -118z" />
<glyph unicode="&#x262;" horiz-adv-x="502" d="M279 -12l1 -3q-103 0 -153 67.5t-18 189.5q32 117 120.5 187t191.5 70q92 0 143 -60l-63 -61q-21 21 -41.5 32t-54.5 11q-63 0 -118.5 -47.5t-78.5 -130.5q-22 -83 5 -130.5t94 -47.5q49 0 85 26l29 110h-101l19 70h189l-59 -221q-83 -62 -190 -62z" />
<glyph unicode="&#x263;" horiz-adv-x="482" d="M182 -220h-1q-57 0 -80.5 34t-8.5 90q6 23 22 50t30 45.5t50 64.5l-54 425h102l19 -245q1 -22 5.5 -61t5.5 -61h4q13 22 38 61t38 61l150 245h98l-277 -428q10 -41 14 -60.5t6 -50.5t-6 -46q-15 -56 -57 -90t-98 -34zM199 -153h1q37 0 51 50q13 50 -5 118h-4 q-55 -73 -68 -118q-6 -22 0.5 -36t24.5 -14z" />
<glyph unicode="&#x264;" horiz-adv-x="527" d="M261 -12q-86 0 -121.5 45t-13.5 126q25 95 165 200q-33 60 -85 60q-28 0 -51 -14l-10 73q37 23 96 23q83 0 135 -85q96 85 179 85q59 0 85 -23l-51 -73q-16 14 -43 14q-50 0 -118 -60q84 -105 59 -200q-22 -81 -81.5 -126t-144.5 -45zM283 70q41 0 69.5 25.5t39.5 66.5 q20 73 -44 152q-105 -79 -125 -152q-11 -41 4 -66.5t56 -25.5z" />
<glyph unicode="&#x265;" horiz-adv-x="554" d="M323 -199l44 167l33 103q-98 -83 -183 -83q-151 0 -98 193l82 308h101l-79 -295q-17 -64 -5 -92t56 -28q34 0 66.5 17.5t75.5 57.5l91 340h101l-184 -688h-101z" />
<glyph unicode="&#x266;" horiz-adv-x="552" d="M77 0l141 528q24 88 83 141t148 53q44 0 82 -17l-42 -76q-24 12 -52 12q-87 0 -121 -113l-34 -114q103 77 181 77q149 0 98 -193l-80 -298h-100l77 285q17 65 4.5 92.5t-56.5 27.5q-32 0 -62 -15.5t-77 -51.5l-90 -338h-100z" />
<glyph unicode="&#x267;" horiz-adv-x="552" d="M288 -184l1 1q-42 0 -72 13l39 76q22 -8 42 -8q33 0 51.5 22.5t31.5 69.5l80 297q17 65 4.5 92.5t-56.5 27.5q-32 0 -62 -15.5t-77 -51.5l-90 -338h-100l141 527q24 88 83 141t148 53q44 0 82 -17l-42 -76q-24 12 -52 12q-87 0 -121 -113l-34 -114q103 77 181 77 q149 0 98 -193l-84 -310q-46 -173 -192 -173z" />
<glyph unicode="&#x268;" horiz-adv-x="284" d="M71 229l13 49l85 5l55 206h100l-55 -206h79l-15 -54h-79l-61 -229h-100l61 229h-83zM300 581q-28 0 -42 17t-7 43q7 27 30 43.5t51 16.5t42 -16.5t7 -43.5q-7 -26 -30 -43t-51 -17z" />
<glyph unicode="&#x26a;" horiz-adv-x="356" d="M48 0l22 80h81l88 328h-81l22 80h261l-22 -80h-80l-88 -328h80l-22 -80h-261z" />
<glyph unicode="&#x26c;" horiz-adv-x="323" d="M236 -12l1 2q-101 0 -68 125l53 197h-10q-66 0 -92.5 25t-15.5 66q10 36 41 60t70 24q33 0 49 -19l65 242h100l-92 -344h76l-15 -54h-76l-54 -203q-11 -38 13 -38q9 0 19 2l-7 -75q-23 -10 -57 -10zM236 366l2 4h-1q8 20 1 42.5t-33 22.5q-33 0 -42 -32q-5 -16 7.5 -26.5 t42.5 -10.5h23z" />
<glyph unicode="&#x26d;" horiz-adv-x="264" d="M163 -184h-1q-135 0 -91 165l196 728h100l-196 -729q-22 -83 26 -83q14 0 36 8l-1 -76q-30 -13 -69 -13z" />
<glyph unicode="&#x26e;" horiz-adv-x="594" d="M77 -1l190 709h100l-59 -220h375l-15 -54l-240 -237q92 6 132 -47t17 -140q-27 -102 -105 -162t-166 -60l-1 -2q-117 0 -179 79l65 63q49 -59 126 -59q51 0 96 38t61 100q15 57 -9 89.5t-82 32.5q-27 0 -66 -15l-23 52l246 242h-253l-110 -409h-100z" />
<glyph unicode="&#x26f;" horiz-adv-x="837" d="M220 -12l-1 2q-151 0 -98 193l82 308h100l-79 -295q-17 -64 -4.5 -92t55.5 -28q52 0 129 67l93 347h101l-79 -295q-17 -65 -5 -92.5t55 -27.5q51 0 130 67l93 347h100l-131 -489h-82l10 68h-2q-98 -80 -173 -80q-101 0 -111 90q-107 -90 -183 -90z" />
<glyph unicode="&#x270;" horiz-adv-x="837" d="M608 -199l43 169l32 100q-94 -80 -170 -80q-101 0 -111 90q-107 -90 -183 -90q-151 0 -98 193l82 308h100l-79 -295q-17 -64 -4.5 -92t55.5 -28q52 0 129 67l93 347h101l-79 -295q-17 -65 -5 -92.5t55 -27.5q51 0 130 67l93 347h100l-184 -688h-100z" />
<glyph unicode="&#x271;" horiz-adv-x="837" d="M576 -184v-2q-38 0 -68 13l39 76q20 -8 38 -8q31 0 48 22t30 70l82 307q17 64 4.5 92t-55.5 28q-49 0 -129 -67l-93 -347h-100l79 295q17 65 4.5 92.5t-55.5 27.5q-50 0 -130 -67l-93 -347h-100l131 489h82l-10 -68h3q97 81 172 81q101 0 112 -91q107 90 182 90 q150 0 99 -193l-86 -320q-46 -173 -186 -173z" />
<glyph unicode="&#x272;" horiz-adv-x="554" d="M-7 -184h-1q-38 0 -62 13l39 76q18 -8 32 -8q48 0 70 83l137 509h84l-12 -68h3q104 80 183 80q150 0 99 -193l-83 -308h-100l79 295q17 65 4.5 92.5t-56.5 27.5q-32 0 -62.5 -16t-76.5 -52l-98 -366q-44 -165 -179 -165z" />
<glyph unicode="&#x273;" horiz-adv-x="554" d="M468 -184q-135 0 -91 165l85 314q17 65 4.5 92.5t-56.5 27.5q-32 0 -62.5 -16t-76.5 -52l-93 -347h-100l131 489h82l-10 -68h3q104 80 183 80q150 0 99 -193l-89 -328q-22 -83 26 -83q14 0 36 8l-2 -76q-30 -13 -69 -13z" />
<glyph unicode="&#x274;" horiz-adv-x="548" d="M77 0l131 490h94l87 -257q2 -8 12 -47.5t15 -56.5h4q25 127 38 176l49 184h94l-131 -489h-93l-88 257q-6 17 -16 58.5t-11 45.5h-4q-24 -126 -38 -177l-49 -184h-94z" />
<glyph unicode="&#x275;" horiz-adv-x="546" d="M270 -12q-98 0 -146 67.5t-16 188.5q32 122 116 190t182 68t146 -68t16 -190q-32 -121 -116.5 -188.5t-181.5 -67.5zM290 66q57 0 104 40t71 112h-268q-13 -72 11.5 -112t81.5 -40zM217 288h265q7 65 -18.5 101t-78.5 36t-97 -36t-71 -101z" />
<glyph unicode="&#x276;" horiz-adv-x="706" d="M285 -12q-104 0 -156.5 67t-19.5 189q32 121 120.5 189t192.5 68q55 0 102 -12h281l-20 -75h-222l-33 -126h187l-19 -70h-187l-38 -143h232l-20 -75h-291q-53 -12 -109 -12zM312 69v1q20 0 62 10l88 330q-28 10 -56 10q-64 0 -117 -44.5t-76 -130.5q-24 -88 5.5 -132 t93.5 -44z" />
<glyph unicode="&#x278;" horiz-adv-x="696" d="M248 -199l51 190q-105 4 -163 72t-28 182q31 113 124.5 180.5t201.5 71.5l57 212h92l-57 -212q108 -3 165 -70.5t26 -181.5q-30 -114 -124.5 -182.5t-201.5 -71.5l-51 -190h-92zM411 67q70 3 126.5 50.5t76.5 127.5q21 80 -8.5 126.5t-99.5 49.5zM414 421 q-69 -3 -125.5 -50t-77.5 -126q-20 -80 11 -127.5t97 -50.5z" />
<glyph unicode="&#x279;" horiz-adv-x="361" d="M49 -12v1q-31 0 -52 10l42 87q24 -8 47 -8q77 0 148 106l81 305h100l-131 -489h-82l16 88h-2q-83 -100 -167 -100z" />
<glyph unicode="&#x27a;" horiz-adv-x="361" d="M49 -12l-1 1q-31 0 -52 10l42 87q24 -8 47 -8q77 0 148 106l141 525h100l-190 -709h-82l16 88h-2q-83 -100 -167 -100z" />
<glyph unicode="&#x27b;" horiz-adv-x="361" d="M270 -184v1q-125 0 -84 151l32 121h-2q-83 -100 -167 -100q-31 0 -52 10l42 87q24 -8 47 -8q77 0 148 106l81 305h100l-137 -509q-22 -83 26 -83q14 0 36 8l-1 -76q-30 -13 -69 -13z" />
<glyph unicode="&#x27d;" horiz-adv-x="361" d="M163 -184v1q-135 0 -91 165l136 508h82l-15 -88h3q80 99 165 99q32 0 52 -10l-42 -87q-24 8 -46 8q-77 0 -148 -106l-88 -326q-22 -83 26 -83q14 0 36 8l-1 -76q-30 -13 -69 -13z" />
<glyph unicode="&#x27e;" horiz-adv-x="347" d="M77 0l83 311q24 87 84 138.5t146 51.5q59 0 90 -14l-40 -84q-26 11 -61 11q-37 0 -72.5 -32t-51.5 -92l-78 -290h-100z" />
<glyph unicode="&#x280;" horiz-adv-x="505" d="M77 0l131 490h181q189 0 150 -150q-27 -102 -136 -141l75 -198h-111l-60 183h-81l-49 -184h-100zM246 256h66q50 0 83 21.5t44 60.5q10 38 -12 57t-73 19h-66z" />
<glyph unicode="&#x281;" horiz-adv-x="505" d="M247 0q-87 0 -128.5 36t-20.5 115q28 102 134 141l-75 196h112l60 -180h82l48 181h100l-131 -489h-181zM282 76l66 -1l44 160h-66q-49 0 -83 -22t-45 -61q-10 -38 11.5 -57t72.5 -19z" />
<glyph unicode="&#x282;" horiz-adv-x="426" d="M207 -12l2 2q-48 0 -90 15l-4 -16q-14 -44 -7 -68.5t40 -24.5q18 0 46 8l-1 -73q-35 -13 -78 -13v-2q-136 0 -90 173l17 61h1l-1 1l65 64q55 -50 126 -50q42 0 69 18.5t35 48.5q5 16 0.5 28.5t-20 23t-26.5 16.5t-35 16h-1q-1 1 -2 1q-17 7 -30 13.5t-28.5 16.5t-24 20 t-17.5 24.5t-8 30t4 37.5q17 63 74.5 103t137.5 40q86 0 142 -58l-63 -62q-46 43 -98 43q-39 0 -64.5 -17.5t-31.5 -44.5q-7 -26 11.5 -41.5t61.5 -32.5q2 -1 5.5 -2.5t4.5 -1.5q14 -6 23 -10t22 -10.5t21 -13t17.5 -15t14.5 -18.5t8.5 -22.5t2.5 -27t-5 -31.5 q-18 -64 -78.5 -106.5t-147.5 -42.5z" />
<glyph unicode="&#x283;" horiz-adv-x="256" d="M-23 -211l-2 1q-43 0 -73 13l40 75q22 -8 42 -8q33 0 51.5 22.5t31.5 68.5l158 590q47 173 203 173q36 0 62 -13l-39 -76q-18 8 -31 8q-38 0 -59 -23t-34 -69l-158 -589q-46 -173 -192 -173z" />
<glyph unicode="&#x284;" horiz-adv-x="284" d="M71 229l13 49l83 5l72 268q47 173 203 173q36 0 62 -13l-39 -76q-18 8 -31 8q-38 0 -59 -23t-34 -69l-72 -268h79l-15 -54h-78l-72 -267q-46 -173 -192 -173l-2 1q-43 0 -73 13l40 75q22 -8 42 -8q33 0 51.5 22.5t31.5 68.5l72 268h-82z" />
<glyph unicode="&#x288;" horiz-adv-x="350" d="M193 -185q-147 0 -102 170l113 423h-71l20 75l77 5l49 135h84l-37 -135h128l-22 -80h-128l-113 -423q-24 -90 48 -90q22 0 56 12l-2 -74q-60 -18 -100 -18zM192 -185h1h-1z" />
<glyph unicode="&#x289;" horiz-adv-x="587" d="M80 264l13 49l82 5l46 172h101l-46 -172h202l46 171h100l-46 -171h81l-15 -54h-80l-71 -264h-82l12 74h-3q-96 -86 -181 -86l-2 1q-151 0 -98 193l22 82h-81zM464 264h-203l-18 -69q-17 -65 -5 -92.5t56 -27.5q61 0 139 74z" />
<glyph unicode="&#x28a;" horiz-adv-x="546" d="M270 -12q-104 0 -148 65t-20 154q32 121 135 200v2h-94l22 80h194l-17 -65q-101 -74 -133 -196q-18 -68 3 -113t81 -45t104.5 45t62.5 113q32 122 -29 196l17 65h193l-22 -80h-94v-2q62 -80 30 -200q-24 -89 -103 -154t-182 -65z" />
<glyph unicode="&#x28b;" horiz-adv-x="536" d="M262 -12v-1q-89 0 -127 55t-9 163l76 283h101l-74 -277q-18 -76 -2 -109t61 -33q55 0 101 56.5t71 148.5q39 147 -32 147q-10 0 -27 -5l6 76q25 8 63 8q72 0 99 -53t-1 -158q-36 -136 -117 -218.5t-189 -82.5z" />
<glyph unicode="&#x28c;" horiz-adv-x="482" d="M12 0l300 489h116l42 -489h-102l-14 264q0 2 -3 146h-4q-59 -104 -83 -146l-154 -264h-98z" />
<glyph unicode="&#x28d;" horiz-adv-x="734" d="M24 0l256 489h121l-2 -244q-5 -103 -6 -141h4q45 98 69 142l126 243h116l1 -489h-101l6 267q4 50 10 138h-4q-33 -69 -69 -138l-140 -267h-93l1 267q1 24 2.5 69.5t1.5 68.5h-4q-6 -13 -28.5 -62t-36.5 -76l-136 -267h-94z" />
<glyph unicode="&#x28e;" horiz-adv-x="482" d="M12 0l338 545q53 86 109 130.5t129 44.5q32 0 57 -10l-39 -78q-21 7 -35 7q-73 0 -128 -93l-37 -60l64 -486h-102l-24 254q-2 22 -4 69t-3 69h-4q-9 -16 -35.5 -64.5t-40.5 -73.5l-147 -254h-98z" />
<glyph unicode="&#x28f;" horiz-adv-x="429" d="M165 0l43 160l-80 329h106l25 -130q3 -22 10.5 -60.5t10.5 -53.5h4q9 12 36.5 52t43.5 62l94 130h105l-255 -329l-43 -160h-100z" />
<glyph unicode="&#x290;" horiz-adv-x="435" d="M386 -184h-1q-70 0 -92 42t-3 113l8 30h-266l15 54l337 355h-216l22 80h342l-15 -54l-337 -355h240l-27 -101q-22 -83 27 -83q14 0 36 8l-2 -76q-30 -13 -68 -13z" />
<glyph unicode="&#x291;" horiz-adv-x="464" d="M230 -81l-49 10q16 33 36 70h-182l15 54l337 355h-216l22 80h336l-15 -54l-337 -355q1 0 35 -1.5t51 -1.5q99 147 183 147q45 0 63 -25t5 -72q-15 -56 -65.5 -91.5t-129.5 -35.5h-49q-19 -36 -40 -80zM316 74h49q35 0 59.5 16.5t30.5 38.5q10 37 -29 37q-47 0 -110 -92z " />
<glyph unicode="&#x292;" horiz-adv-x="435" d="M147 -211l-1 -2q-117 0 -179 79l65 63q49 -59 126 -59q51 0 96 38t61 100q15 57 -9 89.5t-82 32.5q-27 0 -66 -15l-23 52l246 242h-230l22 80h351l-15 -54l-240 -237q92 6 132 -47t17 -140q-27 -102 -105 -162t-166 -60z" />
<glyph unicode="&#x294;" horiz-adv-x="426" d="M141 0l85 321q103 53 153 97.5t65 102.5q15 54 -7.5 85.5t-77.5 31.5q-78 0 -159 -70l-34 65q103 88 224 88q91 0 136 -51t20 -145q-21 -78 -76.5 -133t-153.5 -112l-75 -280h-100z" />
<glyph unicode="&#x295;" horiz-adv-x="460" d="M199 0l77 281q-67 58 -94 112.5t-6 132.5q25 94 100.5 145t170.5 51q112 0 167 -88l-70 -65q-40 70 -111 70q-60 0 -102 -31.5t-57 -85.5q-15 -58 10.5 -102.5t100.5 -97.5l-86 -322h-100z" />
<glyph unicode="&#x298;" horiz-adv-x="534" d="M264 -12l1 -1q-99 0 -130 89.5t17 280.5q47 177 128.5 270.5t179.5 93.5q97 0 128 -92t-15 -271q-50 -185 -130 -277.5t-179 -92.5zM287 69q52 0 102.5 68.5t90.5 219.5q26 95 27 160t-17 93.5t-51 28.5q-52 0 -103.5 -70.5t-89.5 -211.5q-27 -103 -28.5 -169t17 -92.5 t52.5 -26.5zM351 305q-21 0 -32.5 15t-5.5 36q6 22 25.5 36.5t40.5 14.5t32.5 -14.5t5.5 -36.5q-6 -21 -25.5 -36t-40.5 -15z" />
<glyph unicode="&#x299;" horiz-adv-x="514" d="M77 0l131 488h194q86 0 127.5 -30t23.5 -95q-20 -79 -109 -103v-3q95 -25 70 -117q-19 -70 -82 -105t-152 -35h-203zM195 69l97 -1q105 0 126 77q9 34 -14 53t-77 19h-92zM253 287h83q100 0 118 66q9 32 -10 49t-69 17h-87z" />
<glyph unicode="&#x29c;" horiz-adv-x="568" d="M78 0l131 489h100l-52 -192h213l52 192h100l-131 -489h-100l56 208h-213l-56 -208h-100z" />
<glyph unicode="&#x29d;" horiz-adv-x="305" d="M187 -269l-1 -1q-18 75 -40 119q-62 -60 -147 -60q-60 0 -86.5 35t-12.5 86q13 49 55 79t103 30q35 0 67 -17l131 487h100l-134 -502q-8 -31 -19 -54q48 -65 71 -166zM332 580q-28 0 -42 17t-7 43q7 27 30 43.5t51 16.5t42 -16.5t7 -43.5q-7 -26 -30 -43t-51 -17zM98 -79 q-30 28 -60 28q-23 0 -39 -10.5t-21 -27.5q-5 -18 5.5 -31t33.5 -13q51 0 81 54z" />
<glyph unicode="&#x29f;" horiz-adv-x="417" d="M77 0l131 488h100l-109 -408h214l-22 -80h-314z" />
<glyph unicode="&#x2a1;" horiz-adv-x="451" d="M154 0l64 241h-146l20 75l78 5h85q92 51 141.5 99.5t63.5 100.5q15 54 -7 85.5t-77 31.5q-78 0 -159 -70l-34 65q103 88 224 88q91 0 136 -51t20 -145q-28 -105 -184 -203h140l-22 -80h-178l-65 -242h-100z" />
<glyph unicode="&#x2a2;" horiz-adv-x="451" d="M196 0l66 243h-178l22 80h140q-102 99 -74 203q25 94 100.5 145t170.5 51q111 0 168 -88l-70 -65q-40 70 -111 70q-60 0 -102 -31.5t-57 -85.5q-28 -100 98 -200h85l74 -5l-20 -75h-147l-65 -242h-100z" />
<glyph unicode="&#x2b0;" horiz-adv-x="371" d="M154 390l126 467h74l-32 -122l-22 -65q64 52 120 52q102 0 68 -129l-54 -203h-74l52 193q11 36 3.5 56t-39.5 20q-33 0 -88 -43l-60 -226h-74z" />
<glyph unicode="&#x2b2;" horiz-adv-x="175" d="M90 247h-1q-28 0 -50 8l30 57q11 -6 27 -6q21 0 32 13.5t20 43.5l93 349h74l-92 -345q-32 -120 -133 -120zM294 770q-20 0 -30 12t-5 30q5 19 22 31t37 12t30 -12t5 -31q-5 -18 -22 -30t-37 -12z" />
<glyph unicode="&#x2b3;" horiz-adv-x="249" d="M154 390l87 322h59l-8 -56h3q54 65 108 65q27 0 37 -6l-31 -65q-17 5 -31 5q-51 0 -97 -66l-53 -199h-74z" />
<glyph unicode="&#x2b7;" horiz-adv-x="497" d="M208 390l-1 323h75l-6 -170l-7 -93h4l46 93l90 170h64l1 -170l-3 -93h4l44 93l85 170h69l-171 -323h-88l2 153l4 92h-2l-44 -92l-80 -153h-86z" />
<glyph unicode="&#x2b8;" horiz-adv-x="328" d="M139 258l-1 1q-24 0 -41 6l30 58q14 -6 23 -6q49 0 83 58l11 19l-44 319h74l15 -160q2 -32 4 -93h4q11 20 53 93l90 160h72l-207 -337q-37 -59 -76 -88.5t-90 -29.5z" />
<glyph unicode="&#x2b9;" horiz-adv-x="263" d="M198 433l90 256l99 -1l-45 -101l-79 -155z" />
<glyph unicode="&#x2bb;" horiz-adv-x="263" d="M236 403q-35 0 -46 26t2 75q32 123 166 188l14 -46q-92 -47 -113 -125q3 1 9 1q24 0 37.5 -15.5t6.5 -41.5q-7 -28 -28 -45t-48 -17z" />
<glyph unicode="&#x2bc;" horiz-adv-x="263" d="M200 409l-13 44q93 48 113 125h-8q-25 0 -38.5 15.5t-6.5 41.5q8 29 29 46t48 17q34 0 45.5 -26.5t-1.5 -75.5q-34 -123 -168 -187z" />
<glyph unicode="&#x2be;" horiz-adv-x="169" d="M-40 549l10 40q72 0 87 59t-56 59l11 40q62 2 87 -24.5t13 -74.5t-51.5 -74.5t-100.5 -24.5z" />
<glyph unicode="&#x2bf;" horiz-adv-x="169" d="M71 549h-1q-62 -2 -87 24.5t-13 74.5t51.5 74.5t100.5 24.5l-11 -40q-71 0 -86 -59t56 -59z" />
<glyph unicode="&#x2c1;" horiz-adv-x="313" d="M238 390l51 183q-45 39 -62.5 74.5t-3.5 86.5q17 63 68 97t115 34q76 0 113 -58l-50 -47q-24 46 -73 46q-38 0 -65 -19.5t-36 -53.5q-10 -38 6.5 -67t66.5 -64l-57 -212h-73z" />
<glyph unicode="&#x2c6;" horiz-adv-x="546" d="M272 604l148 138h101l76 -138l-51 -38l-92 107h-4l-148 -107z" />
<glyph unicode="&#x2c7;" horiz-adv-x="546" d="M377 575l-75 138l51 38l92 -107h4l148 107l30 -38l-149 -138h-101z" />
<glyph unicode="&#x2c8;" horiz-adv-x="123" d="M169 535l47 198h83l-59 -198h-71z" />
<glyph unicode="&#x2c9;" horiz-adv-x="286" d="M166 598l18 67h274l-18 -67h-274z" />
<glyph unicode="&#x2ca;" horiz-adv-x="228" d="M259 573l-37 50l190 171l52 -67z" />
<glyph unicode="&#x2cb;" horiz-adv-x="228" d="M274 573l-122 154l87 67l99 -171z" />
<glyph unicode="&#x2cc;" horiz-adv-x="123" d="M-51 -267l59 198h71l-47 -198h-83z" />
<glyph unicode="&#x2d0;" horiz-adv-x="263" d="M48 0l118 152h12l37 -152h-167zM211 319l-37 151h167l-118 -151h-12z" />
<glyph unicode="&#x2d1;" horiz-adv-x="263" d="M199 273l-37 151h167l-118 -151h-12z" />
<glyph unicode="&#x2d8;" horiz-adv-x="546" d="M426 571h-1q-76 0 -104 44t-15 109l63 10q-5 -41 13 -69t61 -28t75.5 28t50.5 69l57 -10q-21 -65 -72.5 -109t-127.5 -44z" />
<glyph unicode="&#x2d9;" horiz-adv-x="546" d="M429 581q-27 0 -40 17t-6 44q8 26 30 43.5t49 17.5t40 -17.5t5 -43.5q-7 -27 -29 -44t-49 -17z" />
<glyph unicode="&#x2da;" horiz-adv-x="546" d="M422 557q-53 0 -76.5 28t-11.5 72q12 43 50.5 71t91.5 28t77 -28t12 -71q-11 -44 -50.5 -72t-92.5 -28zM433 599q23 0 42.5 16.5t26.5 42.5t-4.5 42t-34.5 16t-42 -16t-26 -42q-7 -27 4 -43t34 -16z" />
<glyph unicode="&#x2db;" horiz-adv-x="546" d="M240 -207l1 -1q-41 0 -61.5 23t-9.5 64q10 37 40 69.5t64 53.5h65q-77 -48 -92 -102q-6 -21 4 -32.5t29 -11.5q22 0 41 13l12 -48q-44 -28 -93 -28z" />
<glyph unicode="&#x2dc;" horiz-adv-x="546" d="M498 576q-30 0 -50.5 19.5t-36 39t-32.5 19.5q-37 0 -63 -73l-64 4q43 140 145 140q23 0 41.5 -12t28.5 -27t23 -27t27 -12q37 0 62 72l64 -4q-43 -139 -145 -139z" />
<glyph unicode="&#x2dd;" horiz-adv-x="546" d="M373 567l-47 25l133 174l61 -32zM532 567l-48 25l134 174l60 -32z" />
<glyph unicode="&#x2de;" horiz-adv-x="162" d="M173 229v-1q-75 0 -76 96l-124 -46l20 75l175 66q-8 -52 -5 -81t10.5 -39t22.5 -10q17 0 43 14l10 -50q-40 -24 -76 -24z" />
<glyph unicode="&#x2e0;" horiz-adv-x="328" d="M230 245q-39 0 -56 23t-6 61q4 15 14 32.5t19.5 30t32.5 41.5l-36 280h74l12 -157q1 -16 3.5 -42.5t3.5 -37.5h3q9 16 26 41.5t24 38.5l96 157h71l-183 -281q0 -1 0.5 -3t0.5 -3q18 -67 11 -97q-11 -38 -40.5 -61t-69.5 -23zM243 292q25 0 35 32q8 32 -4 76h-3 q-36 -50 -43 -76q-10 -32 15 -32z" />
<glyph unicode="&#x2e1;" horiz-adv-x="180" d="M225 382h-1q-73 0 -49 90l103 384h74l-104 -389q-6 -26 9 -26q8 0 15 2l-5 -55q-16 -6 -42 -6z" />
<glyph unicode="&#x2e2;" horiz-adv-x="287" d="M246 382l-2 -2q-68 0 -114 44l47 48q39 -36 84 -36q52 0 63 39q3 12 -4.5 22t-17.5 15.5t-29 13.5q-2 0 -6 2q-38 16 -57.5 37.5t-10.5 58.5q12 41 50.5 68t91.5 27q58 0 100 -38l-47 -46q-31 28 -66 28q-23 0 -38.5 -10.5t-19.5 -24.5q-3 -11 4 -20t14.5 -13t26.5 -12 q2 -1 6 -2.5t6 -2.5q11 -4 17.5 -7t16.5 -8.5t15 -10t12 -12.5t8 -15.5t3 -18.5t-3 -23q-11 -45 -52 -73t-98 -28z" />
<glyph unicode="&#x2e3;" horiz-adv-x="318" d="M113 390l153 169l-57 154h80l20 -62l17 -51h4l38 51l50 62h78l-141 -163l61 -160h-80l-23 64l-19 54h-4l-46 -54l-53 -64h-78z" />
<glyph unicode="&#x300;" horiz-adv-x="0" d="M161 573l-122 154l87 67l99 -171z" />
<glyph unicode="&#x301;" horiz-adv-x="0" d="M147 573l-37 50l190 171l52 -67z" />
<glyph unicode="&#x302;" horiz-adv-x="0" d="M-1 604l148 138h101l76 -138l-51 -38l-92 107h-4l-148 -107z" />
<glyph unicode="&#x303;" horiz-adv-x="0" d="M225 576q-30 0 -50.5 19.5t-36 39t-32.5 19.5q-37 0 -63 -73l-64 4q43 140 145 140q23 0 41.5 -12t28.5 -27t23 -27t27 -12q37 0 62 72l64 -4q-43 -139 -145 -139z" />
<glyph unicode="&#x304;" horiz-adv-x="0" d="M23 598l18 67h274l-18 -67h-274z" />
<glyph unicode="&#x305;" horiz-adv-x="0" d="M23 598l18 67h274l-18 -67h-274z" />
<glyph unicode="&#x306;" horiz-adv-x="0" d="M153 571h-1q-76 0 -104 44t-15 109l63 10q-5 -41 13 -69t61 -28t75.5 28t50.5 69l57 -10q-21 -65 -72.5 -109t-127.5 -44z" />
<glyph unicode="&#x307;" horiz-adv-x="0" d="M156 581q-27 0 -40 17t-6 44q8 26 30 43.5t49 17.5t40 -17.5t5 -43.5q-7 -27 -29 -44t-49 -17z" />
<glyph unicode="&#x308;" horiz-adv-x="0" d="M56 582q-25 0 -36.5 16.5t-4.5 39.5q6 24 26.5 40t44.5 16t35.5 -16.5t5.5 -39.5q-7 -24 -27 -40t-44 -16zM255 582q-24 0 -35.5 16.5t-4.5 39.5q6 23 26 39.5t44 16.5t36 -16t6 -40q-7 -24 -27.5 -40t-44.5 -16z" />
<glyph unicode="&#x309;" horiz-adv-x="0" d="M118 571l1 44q56 12 65 44q5 21 -12 32.5t-58 13.5l24 64q75 -1 106.5 -27.5t18.5 -73.5q-20 -78 -145 -97z" />
<glyph unicode="&#x30a;" horiz-adv-x="0" d="M149 557q-53 0 -76.5 28t-11.5 72q12 43 50.5 71t91.5 28t77 -28t12 -71q-11 -44 -50.5 -72t-92.5 -28zM160 599q23 0 42.5 16.5t26.5 42.5t-4.5 42t-34.5 16t-42 -16t-26 -42q-7 -27 4 -43t34 -16z" />
<glyph unicode="&#x30b;" horiz-adv-x="0" d="M101 567l-47 25l133 174l61 -32zM260 567l-48 25l134 174l60 -32z" />
<glyph unicode="&#x30c;" horiz-adv-x="0" d="M104 575l-75 138l51 38l92 -107h4l148 107l30 -38l-149 -138h-101z" />
<glyph unicode="&#x30f;" horiz-adv-x="0" d="M44 567l-57 167l78 32l41 -174zM203 567l-58 167l79 32l40 -174z" />
<glyph unicode="&#x311;" horiz-adv-x="0" d="M52 567l-57 10q22 65 73.5 109t127.5 44t104 -44t14 -109l-62 -10q5 41 -13 69t-61 28t-75.5 -28t-50.5 -69z" />
<glyph unicode="&#x312;" horiz-adv-x="0" d="M151 570l-1 4q-55 0 -35 72q22 83 118 120l9 -36q-61 -24 -76 -69q2 1 8 1q18 0 28 -12t5 -32q-6 -22 -21.5 -35t-34.5 -13z" />
<glyph unicode="&#x313;" horiz-adv-x="0" d="M121 568l-8 33q62 27 77 69q-3 -1 -9 -1q-18 0 -28 11.5t-5 31.5q6 23 22 36t35 13q54 0 34 -72q-22 -84 -118 -121z" />
<glyph unicode="&#x318;" horiz-adv-x="0" d="M21 -251h-58l19 70h-110l14 54h110l19 70h58z" />
<glyph unicode="&#x319;" horiz-adv-x="0" d="M31 -181h-110l-19 -70h-58l52 194h58l-19 -70h110z" />
<glyph unicode="&#x31a;" horiz-adv-x="0" d="M243 573h-58l24 90h-110l14 54h168z" />
<glyph unicode="&#x31b;" horiz-adv-x="0" d="M115 432l4 44q83 14 100 80q7 24 1 57l86 35q14 -40 2 -84q-16 -59 -68 -92t-125 -40z" />
<glyph unicode="&#x31c;" horiz-adv-x="0" d="M-12 -259h-1q-62 -2 -87 24.5t-13 74.5t51.5 74.5t100.5 24.5l-11 -40q-71 0 -86 -59t56 -59z" />
<glyph unicode="&#x31d;" horiz-adv-x="0" d="M41 -216h-198l15 54h70l28 106h58l-28 -106h70z" />
<glyph unicode="&#x31e;" horiz-adv-x="0" d="M60 -146h-70l-29 -106h-58l29 106h-70l14 54h198z" />
<glyph unicode="&#x31f;" horiz-adv-x="0" d="M51 -181h-70l-19 -70h-58l19 70h-70l14 54h70l19 70h58l-19 -70h70z" />
<glyph unicode="&#x320;" horiz-adv-x="0" d="M-147 -181l14 54h198l-14 -54h-198z" />
<glyph unicode="&#x323;" horiz-adv-x="0" d="M156 -212q-27 0 -40 17t-6 44q8 26 30 43.5t49 17.5t40 -17.5t5 -43.5q-7 -27 -29 -44t-49 -17z" />
<glyph unicode="&#x324;" horiz-adv-x="0" d="M255 -206q-24 0 -35.5 16.5t-4.5 39.5q6 23 26 39.5t44 16.5t36 -16t6 -40q-7 -24 -27.5 -40t-44.5 -16zM56 -206q-25 0 -36.5 16.5t-4.5 39.5q6 24 26.5 40t44.5 16t35.5 -16.5t5.5 -39.5q-7 -24 -27 -40t-44 -16z" />
<glyph unicode="&#x325;" horiz-adv-x="0" d="M149 -251q-53 0 -76.5 28t-11.5 72q12 43 50.5 71t91.5 28t77 -28t12 -71q-11 -44 -50.5 -72t-92.5 -28zM160 -209q23 0 42.5 16.5t26.5 42.5t-4.5 42t-34.5 16t-42 -16t-26 -42q-7 -27 4 -43t34 -16z" />
<glyph unicode="&#x326;" horiz-adv-x="0" d="M-153 -230l3 46q61 4 88 15t32 31q4 18 -10 27.5t-48 12.5l32 42q66 -7 89 -25.5t14 -53.5q-24 -87 -200 -95z" />
<glyph unicode="&#x327;" horiz-adv-x="0" d="M-153 -230l4 45q62 4 88.5 15.5t32.5 33.5q5 18 -10 29t-56 17l71 93h62l-47 -66q70 -17 55 -72q-24 -87 -200 -95z" />
<glyph unicode="&#x328;" horiz-adv-x="0" d="M-33 -207l1 -1q-41 0 -61.5 23t-9.5 64q10 37 40 69.5t64 53.5h65q-77 -48 -92 -102q-6 -21 4 -32.5t29 -11.5q21 0 41 13l12 -48q-44 -28 -93 -28z" />
<glyph unicode="&#x329;" horiz-adv-x="0" d="M-113 -267l59 198h71l-47 -198h-83z" />
<glyph unicode="&#x32a;" horiz-adv-x="0" d="M9 -224l23 90h-139l-24 -90h-53l39 144h246l-39 -144h-53z" />
<glyph unicode="&#x32c;" horiz-adv-x="0" d="M104 -224l-75 138l51 38l92 -107h4l148 107l30 -38l-149 -138h-101z" />
<glyph unicode="&#x32e;" horiz-adv-x="0" d="M153 -232h-1q-76 0 -104 44t-15 109l63 10q-5 -41 13 -69t61 -28t75.5 28t50.5 69l57 -10q-21 -65 -72.5 -109t-127.5 -44z" />
<glyph unicode="&#x32f;" horiz-adv-x="0" d="M52 -240l-57 10q22 65 73.5 109t127.5 44t104 -44t14 -109l-62 -10q5 41 -13 69t-61 28t-75.5 -28t-50.5 -69z" />
<glyph unicode="&#x330;" horiz-adv-x="0" d="M225 -224q-29 0 -50 19.5t-36.5 39t-32.5 19.5q-37 0 -63 -73l-64 4q43 140 145 140q23 0 41.5 -12t28.5 -27t23 -27t27 -12q37 0 62 72l64 -4q-43 -139 -145 -139z" />
<glyph unicode="&#x331;" horiz-adv-x="0" d="M23 -175l18 67h274l-18 -67h-274z" />
<glyph unicode="&#x334;" horiz-adv-x="0" d="M225 185q-29 0 -50 19.5t-36.5 39t-32.5 19.5q-37 0 -63 -73l-64 4q43 140 145 140q23 0 41.5 -12t28.5 -27t23 -27t27 -12q37 0 62 72l64 -4q-43 -139 -145 -139z" />
<glyph unicode="&#x339;" horiz-adv-x="0" d="M-126 -259l10 40q72 0 87 59t-56 59l11 40q62 2 87 -24.5t13 -74.5t-51.5 -74.5t-100.5 -24.5z" />
<glyph unicode="&#x33a;" horiz-adv-x="0" d="M-182 -222l39 143h53l-24 -89h139l24 89h53l-38 -143h-246z" />
<glyph unicode="&#x33b;" horiz-adv-x="0" d="M-187 -242l44 168h246l-44 -168h-246zM-123 -198h139l22 81h-139z" />
<glyph unicode="&#x33c;" horiz-adv-x="0" d="M-235 -230h-1q40 151 139 151q59 0 59 -56h2q29 56 89 56q98 0 58 -151l-58 -7q14 56 8.5 75t-29.5 19q-44 0 -63 -73l-5 -20h-54l5 20q19 73 -25 73q-23 0 -40 -20.5t-32 -73.5z" />
<glyph unicode="&#x33d;" horiz-adv-x="0" d="M97 551l-27 38l64 51l-37 51l48 38l37 -51l65 51l27 -38l-65 -51l38 -51l-48 -38l-38 51z" />
<glyph unicode="&#x342;" horiz-adv-x="0" d="M225 576q-30 0 -50.5 19.5t-36 39t-32.5 19.5q-37 0 -63 -73l-64 4q43 140 145 140q23 0 41.5 -12t28.5 -27t23 -27t27 -12q37 0 62 72l64 -4q-43 -139 -145 -139z" />
<glyph unicode="&#x345;" horiz-adv-x="0" d="M-8 -205l-1 -2q-86 0 -59 103l11 43h76q-3 -8 -15 -50q-8 -31 24 -31q9 0 22 3l-5 -57q-27 -9 -53 -9z" />
<glyph unicode="&#x361;" horiz-adv-x="0" d="M-281 546l-13 49q241 126 488 126t421 -126l-42 -49q-151 107 -398 107q-248 0 -456 -107z" />
<glyph unicode="&#x374;" horiz-adv-x="263" d="M198 432l91 257h99l-45 -102l-79 -155h-66z" />
<glyph unicode="&#x375;" horiz-adv-x="263" d="M61 0l44 102l79 156h66l-90 -258h-99z" />
<glyph unicode="&#x37a;" horiz-adv-x="546" d="M269 -205l-1 -2q-86 0 -59 103l11 43h76q-3 -8 -15 -50q-8 -31 24 -31q9 0 22 3l-5 -57q-27 -9 -53 -9z" />
<glyph unicode="&#x37e;" horiz-adv-x="263" d="M22 -177l-9 56q108 40 130 122q-3 -1 -9 -1q-28 0 -43 17.5t-7 47.5q8 29 33.5 47t54.5 18q37 0 50 -29t-1 -80q-19 -69 -71 -120.5t-128 -77.5zM129 339q-29 0 -43 20t-7 50q9 31 34 51.5t54 20.5q28 0 42 -20.5t5 -51.5q-7 -30 -32 -50t-53 -20z" />
<glyph unicode="&#x384;" horiz-adv-x="546" d="M386 570l97 207l96 -18l-127 -202z" />
<glyph unicode="&#x385;" horiz-adv-x="546" d="M389 575l98 207l72 -16l-124 -202zM318 592q-20 0 -29.5 12.5t-3.5 33.5q5 21 21.5 33.5t36.5 12.5q19 0 28.5 -12.5t4.5 -33.5q-6 -21 -22.5 -33.5t-35.5 -12.5zM555 592q-19 0 -28.5 12.5t-3.5 33.5q5 21 21.5 33.5t35.5 12.5q20 0 29.5 -12.5t4.5 -33.5 q-6 -21 -22.5 -33.5t-36.5 -12.5z" />
<glyph unicode="&#x386;" horiz-adv-x="582" d="M30 0l393 655h117l42 -655h-108l-6 188h-229l-106 -188h-103zM285 268h181l-3 89q-4 95 -4 218h-4q-73 -139 -120 -218zM129 470l83 200l86 -13l-107 -200z" />
<glyph unicode="&#x387;" horiz-adv-x="263" d="M129 339q-29 0 -43 20t-7 50q9 31 34 51.5t54 20.5q28 0 42 -20.5t5 -51.5q-7 -30 -32 -50t-53 -20z" />
<glyph unicode="&#x388;" horiz-adv-x="612" d="M166 0l176 656h386l-23 -85h-286l-50 -185h242l-23 -86h-242l-57 -214h296l-23 -86h-396zM109 471l83 200l86 -13l-107 -200z" />
<glyph unicode="&#x389;" horiz-adv-x="737" d="M166 0l176 655h101l-72 -268h283l72 268h102l-176 -655h-102l80 299h-283l-80 -299h-101zM109 470l83 200l86 -13l-107 -200z" />
<glyph unicode="&#x38a;" horiz-adv-x="353" d="M166 0l176 655h101l-176 -655h-101zM109 470l83 200l86 -13l-107 -200z" />
<glyph unicode="&#x38c;" horiz-adv-x="729" d="M391 -12q-127 0 -181 93t-12 250q41 156 143.5 246.5t230.5 90.5t182.5 -91t13.5 -246q-42 -157 -146 -250t-231 -93zM414 76q82 0 150 69.5t99 185.5q31 115 -0.5 181.5t-113.5 66.5t-148.5 -66.5t-97.5 -181.5q-31 -116 -1 -185.5t112 -69.5zM108 470l83 200l86 -13 l-107 -200z" />
<glyph unicode="&#x38e;" horiz-adv-x="629" d="M333 0l67 248l-88 407h108l30 -175q11 -77 22 -143h4q85 119 101 143l124 175h106l-306 -407l-66 -248h-102zM109 470l83 200l86 -13l-107 -200z" />
<glyph unicode="&#x38f;" horiz-adv-x="745" d="M104 0l20 82h125l1 4q-81 110 -39 267q37 138 139 226t230 88t183 -88t18 -226q-41 -155 -183 -267l-1 -4h125l-22 -82h-242l19 74q153 103 198 272q28 103 -4 168.5t-115 65.5t-148.5 -65.5t-93.5 -168.5q-45 -171 51 -272l-19 -74h-242zM101 470l83 200l86 -13 l-107 -200z" />
<glyph unicode="&#x390;" horiz-adv-x="273" d="M181 -12l-1 1q-58 0 -74.5 34t1.5 94l100 373h101q-8 -27 -49.5 -171.5t-58.5 -207.5q-11 -40 25 -40q13 0 33 6l-7 -75q-33 -14 -70 -14zM239 576l98 207l72 -16l-124 -202zM168 593q-20 0 -29.5 12.5t-3.5 33.5q5 21 21.5 33.5t36.5 12.5q19 0 28.5 -12.5t4.5 -33.5 q-6 -21 -22.5 -33.5t-35.5 -12.5zM405 593q-19 0 -28.5 12.5t-3.5 33.5q5 21 21.5 33.5t35.5 12.5q20 0 29.5 -12.5t4.5 -33.5q-6 -21 -22.5 -33.5t-36.5 -12.5z" />
<glyph unicode="&#x391;" horiz-adv-x="552" d="M0 0l393 655h117l42 -655h-108l-6 188h-229l-106 -188h-103zM255 268h181l-3 89q-4 95 -4 218h-4q-73 -139 -120 -218z" />
<glyph unicode="&#x392;" horiz-adv-x="593" d="M86 0l176 655h203q107 0 158 -38.5t28 -122.5q-13 -49 -48.5 -88t-82.5 -54l-1 -4q56 -13 80.5 -52.5t6.5 -103.5q-25 -94 -106.5 -143t-195.5 -49h-218zM208 79h106q163 0 194 118q15 55 -19.5 81t-115.5 26h-105zM289 381h89q143 0 170 100q13 51 -15.5 73t-99.5 22 h-92z" />
<glyph unicode="&#x393;" horiz-adv-x="504" d="M86 0l176 655h387l-23 -85h-286l-153 -570h-101z" />
<glyph unicode="&#x394;" horiz-adv-x="602" d="M31 0l17 61l370 594h118l51 -594l-16 -61h-540zM164 86h320l-19 278l-10 206h-4l-121 -206z" />
<glyph unicode="&#x395;" horiz-adv-x="533" d="M86 0l176 656h386l-23 -85h-286l-50 -185h242l-23 -86h-242l-57 -214h296l-23 -86h-396z" />
<glyph unicode="&#x396;" horiz-adv-x="540" d="M42 0l16 61l466 509h-299l23 85h425l-16 -60l-467 -509h333l-23 -86h-458z" />
<glyph unicode="&#x397;" horiz-adv-x="658" d="M86 0l176 655h101l-72 -268h283l72 268h102l-176 -655h-102l80 299h-283l-80 -299h-101z" />
<glyph unicode="&#x398;" horiz-adv-x="670" d="M332 -11q-127 0 -181 93t-12 250q41 156 143.5 246.5t230.5 90.5t182.5 -91t13.5 -246q-42 -157 -146 -250t-231 -93zM355 77q82 0 150 69.5t99 185.5q31 115 -0.5 181.5t-113.5 66.5t-148.5 -66.5t-97.5 -181.5q-31 -116 -1 -185.5t112 -69.5zM307 299l23 88h216 l-23 -88h-216z" />
<glyph unicode="&#x399;" horiz-adv-x="274" d="M86 0l176 655h101l-176 -655h-101z" />
<glyph unicode="&#x39a;" horiz-adv-x="589" d="M86 0l175 655h101l-83 -312h3l335 312h113l-271 -253l128 -402h-112l-99 323l-136 -124l-53 -199h-101z" />
<glyph unicode="&#x39b;" horiz-adv-x="526" d="M-2 0l380 655h118l31 -655h-107l-7 341v72q0 92 -3 143h-4q-19 -34 -56.5 -104t-60.5 -111l-188 -341h-103z" />
<glyph unicode="&#x39c;" horiz-adv-x="737" d="M86 0l177 655h117l31 -333q2 -19 3.5 -41.5t3 -49.5t2.5 -42h4q12 20 38.5 65t40.5 68l207 333h118l-176 -655h-94l88 327q12 44 68 202h-4l-93 -150l-200 -315h-62l-31 315l-12 150h-4q-35 -172 -43 -202l-88 -327h-91z" />
<glyph unicode="&#x39d;" horiz-adv-x="652" d="M86 0l177 655h104l114 -388l33 -138h4q33 173 46 217l83 309h96l-176 -655h-104l-115 389l-33 137h-4q-31 -161 -45 -214l-84 -312h-96z" />
<glyph unicode="&#x39e;" horiz-adv-x="544" d="M50 0l23 86h444l-23 -86h-444zM213 571l23 85h424l-23 -85h-424zM204 300l23 86h297l-23 -86h-297z" />
<glyph unicode="&#x39f;" horiz-adv-x="670" d="M332 -12q-127 0 -181 93t-12 250q41 156 143.5 246.5t230.5 90.5t182.5 -91t13.5 -246q-42 -157 -146 -250t-231 -93zM355 76q82 0 150 69.5t99 185.5q31 115 -0.5 181.5t-113.5 66.5t-148.5 -66.5t-97.5 -181.5q-31 -116 -1 -185.5t112 -69.5z" />
<glyph unicode="&#x3a0;" horiz-adv-x="650" d="M86 0l177 655h477l-176 -655h-101l153 570h-276l-153 -570h-101z" />
<glyph unicode="&#x3a1;" horiz-adv-x="574" d="M86 0l176 655h197q250 0 196 -198q-27 -103 -108.5 -155.5t-192.5 -52.5h-100l-67 -249h-101zM276 331h90q155 0 189 126q17 64 -14 90.5t-113 26.5h-87z" />
<glyph unicode="&#x3a3;" horiz-adv-x="541" d="M42 0l16 62l292 271l-145 263l16 60h430l-23 -85h-303l127 -236l-260 -249h335l-23 -86h-462z" />
<glyph unicode="&#x3a4;" horiz-adv-x="542" d="M220 0l154 570h-193l23 85h487l-23 -85h-193l-153 -570h-102z" />
<glyph unicode="&#x3a5;" horiz-adv-x="490" d="M194 0l67 248l-88 407h108l30 -175q11 -77 22 -143h4q85 119 101 143l124 175h106l-306 -407l-66 -248h-102z" />
<glyph unicode="&#x3a6;" horiz-adv-x="730" d="M314 -21l24 91q-123 7 -178 76t-23 184q31 115 122.5 182t217.5 74l25 92h90l-25 -92q124 -6 180 -73.5t25 -182.5q-32 -116 -124.5 -184.5t-219.5 -75.5l-24 -91h-90zM547 509l-98 -361q82 6 143 55.5t82 127.5q20 77 -14.5 124.5t-112.5 53.5zM359 148l98 361 q-82 -6 -142.5 -53.5t-80.5 -124.5q-21 -78 13 -127.5t112 -55.5z" />
<glyph unicode="&#x3a7;" horiz-adv-x="528" d="M14 0l279 338l-91 317h112l38 -156q3 -11 23 -98h4q29 42 72 98l119 156h107l-263 -322l99 -333h-112l-43 165q-14 55 -25 105h-4q-39 -54 -79 -105l-129 -165h-107z" />
<glyph unicode="&#x3a8;" horiz-adv-x="714" d="M309 0l64 239q-245 11 -180 255l43 161h99l-42 -156q-25 -90 1 -132.5t101 -47.5l90 336h95l-90 -336q76 5 124.5 47.5t73.5 132.5l42 156h100l-43 -161q-66 -244 -319 -255l-64 -239h-95z" />
<glyph unicode="&#x3a9;" horiz-adv-x="687" d="M45 0l20 82h125l1 4q-81 110 -39 267q37 138 139 226t230 88t183 -88t18 -226q-41 -155 -183 -267l-1 -4h125l-22 -82h-242l19 74q153 103 198 272q28 103 -4 168.5t-115 65.5t-148.5 -65.5t-93.5 -168.5q-45 -171 51 -272l-19 -74h-242z" />
<glyph unicode="&#x3aa;" horiz-adv-x="274" d="M86 0l176 655h101l-176 -655h-101zM222 711h-1q-24 0 -35.5 16t-4.5 39q6 24 26 39.5t44 15.5t35 -15.5t5 -39.5q-7 -24 -26 -39.5t-43 -15.5zM431 711q-24 0 -35.5 16t-4.5 39q6 24 25.5 39.5t43.5 15.5t35.5 -15.5t5.5 -39.5q-7 -24 -26.5 -39.5t-43.5 -15.5z" />
<glyph unicode="&#x3ab;" horiz-adv-x="490" d="M194 0l67 248l-88 407h108l30 -175q11 -77 22 -143h4q85 119 101 143l124 175h106l-306 -407l-66 -248h-102zM331 711h-1q-24 0 -35.5 16t-4.5 39q6 24 26 39.5t44 15.5t35 -15.5t5 -39.5q-7 -24 -26 -39.5t-43 -15.5zM540 711q-24 0 -35.5 16t-4.5 39q6 24 25.5 39.5 t43.5 15.5t35.5 -15.5t5.5 -39.5q-7 -24 -26.5 -39.5t-43.5 -15.5z" />
<glyph unicode="&#x3ac;" horiz-adv-x="570" d="M231 -12l1 -1q-87 0 -121.5 66t-2.5 184q32 120 114 191.5t171 71.5q48 0 79.5 -29t35.5 -90h2l48 107h99q-7 -14 -26 -54t-28.5 -59.5t-26 -55.5t-26.5 -59t-22 -51t-19.5 -50t-12.5 -40q-6 -24 3.5 -36.5t30.5 -12.5q13 0 35 8l-7 -76q-34 -14 -73 -14q-98 0 -79 94h-3 q-78 -94 -172 -94zM276 70l1 -1q44 0 91.5 41.5t66.5 97.5l31 90q0 118 -82 118q-51 0 -100 -47t-72 -132q-21 -81 -4 -124t68 -43zM403 568l97 207l96 -18l-127 -202z" />
<glyph unicode="&#x3ad;" horiz-adv-x="454" d="M253 -12q-94 0 -142.5 39.5t-30.5 108.5q26 94 132 120l1 4q-33 13 -45 43t-2 65q18 66 82 100t147 34q87 0 146 -53l-56 -66q-46 40 -108 40q-43 0 -75 -18t-41 -50q-9 -31 11.5 -48.5t70.5 -17.5q27 0 64 3l-20 -75q-28 2 -78 2q-107 0 -127 -73q-10 -37 17 -58t86 -21 q68 0 140 46l23 -66q-96 -59 -195 -59zM365 570l97 207l96 -18l-127 -202z" />
<glyph unicode="&#x3ae;" horiz-adv-x="547" d="M326 -178l1 1q66 223 134 473q17 64 8 92t-49 28q-36 0 -71 -22t-86 -77l-85 -316h-100l94 350q21 81 29 138h90l-18 -97h3q103 109 197 109q136 0 85 -193l-131 -486h-101zM410 571l97 207l96 -18l-127 -202z" />
<glyph unicode="&#x3af;" horiz-adv-x="273" d="M181 -12l-1 1q-58 0 -74.5 34t1.5 94l100 373h101q-8 -27 -49.5 -171.5t-58.5 -207.5q-11 -40 25 -40q13 0 33 6l-7 -75q-33 -14 -70 -14zM241 571l97 207l96 -18l-127 -202z" />
<glyph unicode="&#x3b0;" horiz-adv-x="516" d="M249 -12l2 4q-93 0 -129 50.5t-10 146.5q7 28 23.5 83t24.5 82q22 82 28 138h97q-2 -37 -22 -116q-7 -24 -28.5 -93t-30.5 -101q-14 -55 6 -82.5t63 -27.5q51 0 92.5 43.5t63.5 129.5q32 118 25 234l103 22q8 -128 -26 -253q-33 -123 -108 -191.5t-174 -68.5zM362 579 l98 207l72 -16l-124 -202zM291 596q-20 0 -29.5 12.5t-3.5 33.5q5 21 21.5 33.5t36.5 12.5q19 0 28.5 -12.5t4.5 -33.5q-6 -21 -22.5 -33.5t-35.5 -12.5zM528 596q-19 0 -28.5 12.5t-3.5 33.5q5 21 21.5 33.5t35.5 12.5q20 0 29.5 -12.5t4.5 -33.5q-6 -21 -22.5 -33.5 t-36.5 -12.5z" />
<glyph unicode="&#x3b1;" horiz-adv-x="570" d="M231 -12l1 -1q-87 0 -121.5 66t-2.5 184q32 120 114 191.5t171 71.5q48 0 79.5 -29t35.5 -90h2l48 107h99q-7 -14 -26 -54t-28.5 -59.5t-26 -55.5t-26.5 -59t-22 -51t-19.5 -50t-12.5 -40q-6 -24 3.5 -36.5t30.5 -12.5q13 0 35 8l-7 -76q-34 -14 -73 -14q-98 0 -79 94h-3 q-78 -94 -172 -94zM276 70l1 -1q44 0 91.5 41.5t66.5 97.5l31 90q0 118 -82 118q-51 0 -100 -47t-72 -132q-21 -81 -4 -124t68 -43z" />
<glyph unicode="&#x3b2;" horiz-adv-x="575" d="M27 -178l176 663q28 107 98.5 172t173.5 65q80 0 124 -45.5t21 -129.5q-28 -104 -135 -162l-1 -4q65 -11 92 -61t8 -125q-26 -96 -97.5 -151.5t-149.5 -55.5q-104 0 -151 72q-23 -97 -58 -238h-101zM332 72l2 2q51 0 94 35t59 95q15 55 -8 89.5t-83 34.5q-24 0 -48 -6 l6 75q70 13 112.5 52t55.5 90q13 49 -7 76t-60 27q-53 0 -93.5 -43.5t-62.5 -123.5q-39 -131 -93 -331q37 -72 126 -72z" />
<glyph unicode="&#x3b3;" horiz-adv-x="498" d="M148 -178q18 49 37 123q30 116 13.5 271t-65.5 259l107 24q27 -62 42 -169t8 -215h4q157 202 216 373h100q-55 -128 -124.5 -233t-197.5 -248q-8 -71 -39 -185h-101zM145 -178h3q-1 -1 -1 -2z" />
<glyph unicode="&#x3b4;" horiz-adv-x="536" d="M267 -12l-2 3q-91 0 -140 61t-22 162q22 80 86.5 137t150.5 85q-48 41 -70 81.5t-8 92.5q13 48 64 80t132 32q93 0 202 -39l-45 -78q-103 40 -178 40q-69 0 -82 -44q-5 -19 6 -40t24 -34.5t45 -41.5q11 -9 31 -27q61 -55 85.5 -107.5t3.5 -130.5q-28 -105 -104 -168.5 t-179 -63.5zM395 387q-75 -17 -126 -61t-68 -110q-17 -64 9.5 -103.5t78.5 -39.5q58 0 100 40t61 110q24 89 -55 164z" />
<glyph unicode="&#x3b5;" horiz-adv-x="454" d="M253 -12q-94 0 -142.5 39.5t-30.5 108.5q26 94 132 120l1 4q-33 13 -45 43t-2 65q18 66 82 100t147 34q87 0 146 -53l-56 -66q-46 40 -108 40q-43 0 -75 -18t-41 -50q-9 -31 11.5 -48.5t70.5 -17.5q27 0 64 3l-20 -75q-28 2 -78 2q-107 0 -127 -73q-10 -37 17 -58t86 -21 q68 0 140 46l23 -66q-96 -59 -195 -59z" />
<glyph unicode="&#x3b6;" horiz-adv-x="436" d="M319 -185l-75 31q38 36 52 52.5t20 35.5q6 22 -12 34t-79 25q-79 17 -115 69t-6 162q27 100 136 216t234 195q-149 0 -229 -5l21 80h340l-21 -80h-5q-117 -67 -231.5 -187.5t-138.5 -212.5q-20 -76 4 -110t93 -47q71 -15 95.5 -40t11.5 -75q-16 -61 -95 -143z" />
<glyph unicode="&#x3b7;" horiz-adv-x="547" d="M326 -178l1 1q66 223 134 473q17 64 8 92t-49 28q-36 0 -71 -22t-86 -77l-85 -316h-100l94 350q21 81 29 138h90l-18 -97h3q103 109 197 109q136 0 85 -193l-131 -486h-101z" />
<glyph unicode="&#x3b8;" horiz-adv-x="530" d="M262 -12v-1q-99 0 -128.5 89.5t18.5 280.5q47 177 127.5 270.5t178.5 93.5t127.5 -92t-16.5 -271q-50 -186 -129 -278t-178 -92zM284 69q104 0 179 254h-222q-62 -254 43 -254zM260 393h221q60 244 -44 244t-177 -244z" />
<glyph unicode="&#x3b9;" horiz-adv-x="273" d="M181 -12l-1 1q-58 0 -74.5 34t1.5 94l100 373h101q-8 -27 -49.5 -171.5t-58.5 -207.5q-11 -40 25 -40q13 0 33 6l-7 -75q-33 -14 -70 -14z" />
<glyph unicode="&#x3ba;" horiz-adv-x="508" d="M77 0l95 352q23 86 26 138h99q0 -32 -21 -116l-37 -136h4q201 231 357 263l-16 -94q-83 -23 -192 -110q43 -173 121 -295l-113 -9q-53 90 -89 234q-23 -21 -48 -45q-56 -53 -85 -156l-7 -26h-94zM399 -7h1h-1z" />
<glyph unicode="&#x3bb;" horiz-adv-x="510" d="M120 -9l-105 10l345 497v19q-3 119 -76 119q-27 0 -69 -16l-1 82q50 19 105 19q74 0 105.5 -50.5t35.5 -159.5l45 -511h-107l-21 384h-4z" />
<glyph unicode="&#x3bc;" horiz-adv-x="571" d="M29 -178l177 668h100l-79 -295q-17 -61 -5 -90.5t54 -29.5q68 0 139 87l88 328h101q-8 -27 -49.5 -171.5t-58.5 -207.5q-11 -40 28 -40q14 0 32 6l-7 -75q-31 -14 -69 -14q-44 0 -62 22t-13 69h-2q-72 -88 -150 -88q-59 0 -75 41q-28 -108 -48 -210h-101z" />
<glyph unicode="&#x3bd;" horiz-adv-x="488" d="M287 0h-95q10 133 -5.5 258.5t-52.5 218.5l107 24q26 -71 37.5 -184.5t5.5 -213.5h4q146 200 212 386h100q-55 -129 -128.5 -243.5t-184.5 -245.5z" />
<glyph unicode="&#x3be;" horiz-adv-x="442" d="M325 -185l-72 29q38 36 52 52.5t20 35.5q6 22 -12.5 34t-78.5 25q-84 18 -122 61.5t-14 131.5q17 67 73 119t123 71l1 4q-41 18 -57.5 55t-3.5 86q21 79 95 114q-61 0 -136 -5l21 80h399l-21 -80h-115q-48 0 -88.5 -30t-54.5 -81q-12 -46 13.5 -79.5t69.5 -33.5 q36 0 69 7l-22 -82q-26 6 -72 6q-62 0 -117 -37.5t-72 -98.5t12.5 -87t102.5 -40q71 -14 93.5 -38.5t9.5 -75.5q-15 -59 -96 -143z" />
<glyph unicode="&#x3bf;" horiz-adv-x="540" d="M267 -12q-96 0 -143 69t-15 187q32 119 115.5 188t178.5 69q96 0 143.5 -69t15.5 -188q-32 -118 -115.5 -187t-179.5 -69zM289 70h1q58 0 103.5 47t66.5 127q22 80 1.5 128t-78.5 48t-103.5 -47.5t-66.5 -128.5q-22 -79 -2 -126.5t78 -47.5z" />
<glyph unicode="&#x3c0;" horiz-adv-x="600" d="M492 -12l2 -1q-62 0 -81 35.5t0 100.5q4 13 34.5 119.5t46.5 164.5h-156q-38 -143 -139 -413l-99 6q93 215 144 407h-112l20 76l72 5h483l-22 -81h-96q-59 -186 -85 -290q-12 -47 33 -47q13 0 40 6l-8 -76q-40 -12 -77 -12z" />
<glyph unicode="&#x3c1;" horiz-adv-x="554" d="M25 -178l112 423q34 125 113 190.5t176 65.5q103 0 142 -66t7 -184q-32 -119 -111 -191t-161 -72q-85 0 -123 65q-30 -132 -54 -231h-101zM305 71l-3 1q51 0 98 48t70 132q46 166 -71 166q-52 0 -98 -44.5t-68 -125.5l-32 -118q34 -59 104 -59z" />
<glyph unicode="&#x3c2;" horiz-adv-x="436" d="M277 -182l-72 28q69 64 78 96q7 25 -3 40.5t-45 27.5q-23 9 -41 18t-37 23t-31 32t-19.5 42t-6 56.5t11.5 71.5q30 114 113 180t178 66q82 0 127 -56l-67 -65q-35 40 -76 40q-58 0 -105.5 -45t-66.5 -119q-19 -72 4 -106t80 -55q59 -22 76 -47.5t3 -77.5 q-17 -65 -101 -150z" />
<glyph unicode="&#x3c3;" horiz-adv-x="554" d="M263 -12v2q-95 0 -141 67t-15 184q32 121 115 185t179 64h271l-23 -84q-92 7 -147 8l-1 -4q76 -51 41 -185q-29 -109 -106.5 -173t-172.5 -64zM211 241q-21 -78 0.5 -123.5t74.5 -45.5q52 0 96.5 44.5t65.5 119.5q21 69 2 121t-73 52q-55 0 -99.5 -43t-66.5 -125z" />
<glyph unicode="&#x3c4;" horiz-adv-x="469" d="M291 -12l-2 -1q-59 0 -76 35.5t2 100.5l77 285h-158l20 75l72 5h346l-22 -80h-160q-50 -170 -82 -291q-12 -47 28 -47q14 0 52 8l-6 -76q-48 -14 -91 -14z" />
<glyph unicode="&#x3c5;" horiz-adv-x="516" d="M249 -12l2 4q-93 0 -129 50.5t-10 146.5q7 28 23.5 83t24.5 82q22 82 28 138h97q-2 -37 -22 -116q-7 -24 -28.5 -93t-30.5 -101q-14 -55 6 -82.5t63 -27.5q51 0 92.5 43.5t63.5 129.5q32 118 25 234l103 22q8 -128 -26 -253q-33 -123 -108 -191.5t-174 -68.5z" />
<glyph unicode="&#x3c6;" horiz-adv-x="696" d="M254 -179l46 170q-106 4 -164 72t-28 182q31 114 125 181t202 71l34 126h92l-34 -126q107 -4 164 -71t26 -181q-30 -114 -124 -182t-201 -72l-46 -170h-92zM415 421q-69 -2 -126 -49.5t-78 -126.5q-20 -80 11 -128t98 -50zM412 67q69 3 125.5 50.5t76.5 127.5 q21 80 -8.5 126.5t-98.5 49.5z" />
<glyph unicode="&#x3c7;" horiz-adv-x="494" d="M60 -190l-97 12l284 342l-106 313l105 24l72 -247h4l177 235h105l-259 -323l113 -332l-104 -24l-79 273h-4z" />
<glyph unicode="&#x3c8;" horiz-adv-x="706" d="M253 -179l45 167q-121 2 -162.5 66.5t-12.5 172.5l33 123q21 81 29 138h97q-3 -37 -23 -116q-4 -15 -21 -74.5t-22 -78.5q-17 -68 7.5 -108.5t95.5 -42.5l149 555h93l-149 -555q154 5 206 198q28 102 20 213l103 22q12 -116 -19 -231q-35 -133 -121.5 -206t-209.5 -76 l-45 -167h-93z" />
<glyph unicode="&#x3c9;" horiz-adv-x="714" d="M221 -12l-2 -1q-80 0 -110 62.5t0 185.5q36 133 157 265l83 -38q-60 -64 -95 -120t-54 -125q-18 -69 -5.5 -107.5t51.5 -38.5q37 0 67 28t46 86q11 44 26 131h108q-37 -99 -45 -131q-30 -114 49 -114q38 0 72.5 41.5t55.5 120.5q18 72 15.5 121t-26.5 111l100 36 q51 -125 15 -262q-33 -122 -95.5 -186.5t-144.5 -64.5q-45 0 -75 22t-36 67h-4q-59 -89 -153 -89z" />
<glyph unicode="&#x3ca;" horiz-adv-x="273" d="M181 -12l-1 1q-58 0 -74.5 34t1.5 94l100 373h101q-8 -27 -49.5 -171.5t-58.5 -207.5q-11 -40 25 -40q13 0 33 6l-7 -75q-33 -14 -70 -14zM184 583q-25 0 -36.5 16.5t-4.5 39.5q6 24 26.5 40t44.5 16t35.5 -16.5t5.5 -39.5q-7 -24 -27 -40t-44 -16zM383 583 q-24 0 -35.5 16.5t-4.5 39.5q6 23 26 39.5t44 16.5t36 -16t6 -40q-7 -24 -27.5 -40t-44.5 -16z" />
<glyph unicode="&#x3cb;" horiz-adv-x="516" d="M249 -12l2 4q-93 0 -129 50.5t-10 146.5q7 28 23.5 83t24.5 82q22 82 28 138h97q-2 -37 -22 -116q-7 -24 -28.5 -93t-30.5 -101q-14 -55 6 -82.5t63 -27.5q51 0 92.5 43.5t63.5 129.5q32 118 25 234l103 22q8 -128 -26 -253q-33 -123 -108 -191.5t-174 -68.5zM307 586 q-25 0 -36.5 16.5t-4.5 39.5q6 24 26.5 40t44.5 16t35.5 -16.5t5.5 -39.5q-7 -24 -27 -40t-44 -16zM506 586q-24 0 -35.5 16.5t-4.5 39.5q6 23 26 39.5t44 16.5t36 -16t6 -40q-7 -24 -27.5 -40t-44.5 -16z" />
<glyph unicode="&#x3cc;" horiz-adv-x="540" d="M267 -12q-96 0 -143 69t-15 187q32 119 115.5 188t178.5 69q96 0 143.5 -69t15.5 -188q-32 -118 -115.5 -187t-179.5 -69zM289 70h1q58 0 103.5 47t66.5 127q22 80 1.5 128t-78.5 48t-103.5 -47.5t-66.5 -128.5q-22 -79 -2 -126.5t78 -47.5zM387 570l97 207l96 -18 l-127 -202z" />
<glyph unicode="&#x3cd;" horiz-adv-x="516" d="M249 -12l2 4q-93 0 -129 50.5t-10 146.5q7 28 23.5 83t24.5 82q22 82 28 138h97q-2 -37 -22 -116q-7 -24 -28.5 -93t-30.5 -101q-14 -55 6 -82.5t63 -27.5q51 0 92.5 43.5t63.5 129.5q32 118 25 234l103 22q8 -128 -26 -253q-33 -123 -108 -191.5t-174 -68.5zM365 574 l97 207l96 -18l-127 -202z" />
<glyph unicode="&#x3ce;" horiz-adv-x="714" d="M221 -12l-2 -1q-80 0 -110 62.5t0 185.5q36 133 157 265l83 -38q-60 -64 -95 -120t-54 -125q-18 -69 -5.5 -107.5t51.5 -38.5q37 0 67 28t46 86q11 44 26 131h108q-37 -99 -45 -131q-30 -114 49 -114q38 0 72.5 41.5t55.5 120.5q18 72 15.5 121t-26.5 111l100 36 q51 -125 15 -262q-33 -122 -95.5 -186.5t-144.5 -64.5q-45 0 -75 22t-36 67h-4q-59 -89 -153 -89zM468 569l97 207l96 -18l-127 -202z" />
<glyph unicode="&#x3d0;" horiz-adv-x="569" d="M306 -12h-2q-44 0 -80 13t-64.5 41.5t-35 75t9.5 113.5l68 253q28 106 97 170.5t170 64.5q79 0 124 -44.5t22 -128.5q-30 -111 -152 -161l-1 -4q74 -8 105.5 -60t11.5 -129q-25 -95 -102 -149.5t-171 -54.5zM324 75l1 1q54 0 97 33t58 89t-8 92.5t-88 36.5 q-36 0 -136 -27q-2 -8 -7.5 -27t-8.5 -30q-24 -89 8 -128.5t84 -39.5zM269 375q117 22 174 62t72 99q14 50 -4.5 75.5t-57.5 25.5q-108 0 -156 -164q-21 -71 -28 -98z" />
<glyph unicode="&#x3d1;" horiz-adv-x="530" d="M260 -12h-1q-88 0 -121 47t-10 136q23 84 23 118h95q3 -20 -16 -88q0 -2 -1.5 -8t-2.5 -9q-30 -114 58 -114q52 0 95 57t85 208q-64 -6 -110 -3t-76.5 19t-48.5 35.5t-25 46t-6.5 51.5t7.5 51q22 80 87.5 132.5t141.5 52.5q114 0 148.5 -92t-12.5 -268 q-53 -196 -130.5 -284t-179.5 -88zM481 399q57 242 -66 240q-39 0 -72 -30t-45 -76q-11 -29 -6 -56.5t21.5 -47.5t59.5 -29t108 -1z" />
<glyph unicode="&#x3d5;" horiz-adv-x="696" d="M255 -178l46 171q-108 4 -164.5 71t-25.5 185q37 135 176 259l66 -58q-59 -53 -92.5 -101.5t-49.5 -109.5q-21 -76 9.5 -120.5t101.5 -49.5l59 218q29 107 86.5 161t130.5 54q87 0 121.5 -65.5t3.5 -178.5q-32 -119 -127 -190.5t-204 -75.5q-28 -114 -41 -170h-96z M412 68q71 5 126.5 53t78.5 132q20 79 7 122.5t-54 43.5q-30 0 -56.5 -31.5t-43.5 -92.5q-20 -75 -58 -227zM313 -7h1h-1z" />
<glyph unicode="&#x3d7;" horiz-adv-x="508" d="M328 -187l-115 9q105 86 186 173q-51 87 -88 232q-23 -21 -48 -45q-56 -53 -85 -156l-7 -26h-94l95 352q23 86 26 138h99q0 -32 -21 -116l-37 -136h4q201 231 357 263l-16 -94q-83 -23 -192 -110q43 -173 121 -295l-18 -1l16 -1q-99 -110 -183 -187zM399 -7h1h-1z" />
<glyph unicode="&#x3d9;" horiz-adv-x="540" d="M178 -178l45 170q-75 16 -108 82.5t-6 169.5q32 119 115.5 188t178.5 69q96 0 143.5 -69t15.5 -188q-28 -102 -94 -167.5t-148 -82.5q-25 -109 -41 -172h-101zM288 67h1q59 0 104 47.5t67 129.5q22 80 1.5 128t-78.5 48t-103.5 -47.5t-66.5 -128.5q-23 -81 -3 -129 t78 -48z" />
<glyph unicode="&#x3db;" horiz-adv-x="473" d="M310 -185l-70 31q64 60 71 87q6 22 -7 36t-60 27q-188 49 -136 244q32 122 118 185.5t197 63.5h155l-23 -84q-41 2 -147 2q-72 0 -124 -42.5t-74 -125.5q-19 -69 8 -106.5t94 -55.5t87 -44t7 -75q-6 -25 -32.5 -64.5t-63.5 -78.5z" />
<glyph unicode="&#x3dd;" horiz-adv-x="418" d="M29 -178l180 667h315l-22 -80h-222l-52 -201h200l-19 -70h-199q-28 -102 -80 -316h-101z" />
<glyph unicode="&#x3e1;" horiz-adv-x="508" d="M421 -180l-95 12q40 85 68 186q14 50 22 109q-128 -51 -275 -118l-19 85l300 119q0 62 -10 113q-150 -60 -304 -130l-19 85l303 121q-46 134 -160 217l83 74q143 -108 189 -288.5t-12 -387.5q-27 -100 -71 -197z" />
<glyph unicode="&#x400;" horiz-adv-x="533" d="M86 0l176 656h386l-23 -85h-286l-50 -185h242l-23 -86h-242l-57 -214h296l-23 -86h-396zM486 694l-130 116l73 66l115 -131z" />
<glyph unicode="&#x401;" horiz-adv-x="533" d="M86 0l176 656h386l-23 -85h-286l-50 -185h242l-23 -86h-242l-57 -214h296l-23 -86h-396zM371 712h-1q-24 0 -35.5 16t-4.5 39q6 24 26 39.5t44 15.5t35 -15.5t5 -39.5q-7 -24 -26 -39.5t-43 -15.5zM580 712q-24 0 -35.5 16t-4.5 39q6 24 25.5 39.5t43.5 15.5t35.5 -15.5 t5.5 -39.5q-7 -24 -26.5 -39.5t-43.5 -15.5z" />
<glyph unicode="&#x402;" horiz-adv-x="691" d="M459 -12l1 -1q-38 0 -63 10l39 80q14 -7 34 -7q38 0 75 29.5t53 90.5q35 130 -113 130q-52 0 -99 -10l-83 -311h-102l153 570h-173l23 85h497l-23 -85h-223l-47 -176q55 10 112 10q105 0 155 -52t21 -159q-28 -105 -92.5 -154.5t-144.5 -49.5z" />
<glyph unicode="&#x403;" horiz-adv-x="504" d="M86 0l176 655h387l-23 -85h-286l-153 -570h-101zM462 693l-32 51l185 131l39 -66z" />
<glyph unicode="&#x404;" horiz-adv-x="574" d="M338 -12v1q-131 0 -187 87t-12 251q44 163 149.5 251.5t237.5 88.5q57 0 98.5 -23t63.5 -59l-71 -65q-42 59 -114 59q-80 0 -144 -49.5t-101 -143.5h260l-23 -86h-263q-23 -112 12 -168.5t122 -56.5q80 0 163 71l38 -63q-107 -95 -229 -95z" />
<glyph unicode="&#x405;" horiz-adv-x="540" d="M270 -12l-2 1q-138 0 -207 96l78 70q57 -79 154 -79q59 0 99 26t51 69q8 28 -2 48.5t-25 30.5t-49 26l-1 1l-81 40q-118 54 -87 171q21 77 95 128t167 51q117 0 176 -82l-70 -65q-49 59 -129 59q-50 0 -86.5 -23t-46.5 -63q-3 -10 -3 -19.5t2.5 -17t6 -14t10.5 -12.5 t12.5 -10.5t16 -9.5t17 -8t17.5 -8l1 -1l80 -38q57 -28 80.5 -68.5t5.5 -107.5q-22 -81 -99 -136t-181 -55z" />
<glyph unicode="&#x406;" horiz-adv-x="274" d="M86 0l176 655h101l-176 -655h-101z" />
<glyph unicode="&#x407;" horiz-adv-x="274" d="M86 0l176 655h101l-176 -655h-101zM222 711h-1q-24 0 -35.5 16t-4.5 39q6 24 26 39.5t44 15.5t35 -15.5t5 -39.5q-7 -24 -26 -39.5t-43 -15.5zM431 711q-24 0 -35.5 16t-4.5 39q6 24 25.5 39.5t43.5 15.5t35.5 -15.5t5.5 -39.5q-7 -24 -26.5 -39.5t-43.5 -15.5z" />
<glyph unicode="&#x408;" horiz-adv-x="488" d="M213 -12h-1q-130 0 -160 109l85 51q20 -72 87 -72q50 0 82.5 31t51.5 101l120 446h102l-122 -455q-26 -93 -88.5 -152t-156.5 -59z" />
<glyph unicode="&#x409;" horiz-adv-x="908" d="M64 -12h-1q-38 0 -60 9l45 92q12 -6 26 -6q29 0 57.5 33t78.5 138q54 113 182 401h322v-1l-70 -260h81q114 0 167.5 -46t27.5 -143q-27 -105 -106 -155t-194 -50h-183l153 570h-143q-27 -60 -74.5 -169t-69.5 -158q-68 -149 -120 -202t-119 -53zM560 81h71q157 0 190 122 q15 56 -17 83t-112 27h-69z" />
<glyph unicode="&#x40a;" horiz-adv-x="930" d="M86 0l176 655h101l-72 -268h272l71 267h2v1h102l-70 -261h79q114 0 167.5 -46t27.5 -143q-27 -105 -106 -155t-194 -50h-182l80 299h-273l-80 -299h-101zM646 313l-62 -232h69q157 0 190 122q15 56 -17 83t-112 27h-68z" />
<glyph unicode="&#x40b;" horiz-adv-x="702" d="M200 0l151 569h-173l23 85h497l-23 -85h-222l-47 -176q55 10 107 10q231 0 175 -210l-51 -192h-99l51 192q19 67 -7.5 97.5t-99.5 30.5q-50 0 -97 -10l-83 -311h-102z" />
<glyph unicode="&#x40c;" horiz-adv-x="592" d="M86 0l176 655h101l-72 -271h102l133 162q59 71 99 96t88 25q25 0 39 -7l-42 -93q-11 4 -24 4q-22 0 -43.5 -15t-59.5 -61l-120 -145l128 -350h-109l-113 302h-101l-81 -302h-101zM500 697l-32 51l185 131l39 -66z" />
<glyph unicode="&#x40d;" horiz-adv-x="662" d="M86 0l176 655h100l-83 -309q-16 -57 -71 -217h4l106 136l326 389h107l-176 -655h-100l84 312q9 34 70 214h-4l-106 -136l-326 -389h-107zM536 698l-130 116l73 66l115 -131z" />
<glyph unicode="&#x40e;" horiz-adv-x="525" d="M139 -12l-1 -1q-40 0 -67 11l44 90q16 -7 42 -7q55 0 91 47l21 31l-90 496h108l39 -264l14 -136h4l85 136l171 264h102l-353 -528q-94 -139 -210 -139zM453 702h1q-81 0 -108.5 37t-14.5 96h86q-16 -80 51 -80q70 0 93 80h86q-44 -133 -193 -133h-1z" />
<glyph unicode="&#x40f;" horiz-adv-x="650" d="M86 0l175 655h101l-153 -569h276l153 569h101l-176 -655h-185l-58 -188h-89l49 188h-194z" />
<glyph unicode="&#x410;" horiz-adv-x="552" d="M0 0l393 655h117l42 -655h-108l-6 188h-229l-106 -188h-103zM255 268h181l-3 89q-4 95 -4 218h-4q-73 -139 -120 -218z" />
<glyph unicode="&#x411;" horiz-adv-x="586" d="M86 0l176 654h416l-23 -85h-315l-50 -185h116q111 0 165 -44t28 -139q-27 -101 -104 -151t-188 -50h-221zM209 78l105 -1q154 0 186 120q15 58 -16.5 84t-109.5 26h-104z" />
<glyph unicode="&#x412;" horiz-adv-x="593" d="M86 0l176 655h203q107 0 158 -38.5t28 -122.5q-13 -49 -48.5 -88t-82.5 -54l-1 -4q56 -13 80.5 -52.5t6.5 -103.5q-25 -94 -106.5 -143t-195.5 -49h-218zM208 79h106q163 0 194 118q15 55 -19.5 81t-115.5 26h-105zM289 381h89q143 0 170 100q13 51 -15.5 73t-99.5 22 h-92z" />
<glyph unicode="&#x413;" horiz-adv-x="504" d="M86 0l176 655h387l-23 -85h-286l-153 -570h-101z" />
<glyph unicode="&#x414;" horiz-adv-x="647" d="M122 0l-50 -188h-89l47 212l16 62h36q57 28 149 232q44 97 148 337h347l-153 -569h75l-16 -62l-67 -212h-89l50 188h-404zM471 86l131 483h-167q-25 -55 -60.5 -138.5t-55.5 -128.5q-71 -152 -129 -216h281z" />
<glyph unicode="&#x415;" horiz-adv-x="533" d="M86 0l176 656h386l-23 -85h-286l-50 -185h242l-23 -86h-242l-57 -214h296l-23 -86h-396z" />
<glyph unicode="&#x416;" horiz-adv-x="822" d="M5 0l290 348l-27 147q-9 46 -23 61t-38 15q-14 0 -27 -4l8 93q17 7 43 7q50 0 78.5 -25.5t43.5 -94.5l32 -163h81l72 271h96l-72 -271h78l120 163q53 69 95.5 94.5t92.5 25.5q25 0 39 -7l-42 -93q-11 4 -23 4q-24 0 -47 -15t-57 -61l-104 -148l102 -347h-110l-80 302h-87 l-81 -302h-96l81 302h-87l-241 -302h-110z" />
<glyph unicode="&#x417;" horiz-adv-x="557" d="M274 -12l-1 -1q-144 0 -211 94l74 69q57 -75 160 -75q62 0 111 31.5t64 86.5q15 56 -18.5 83.5t-112.5 27.5h-78l20 76h58q147 0 175 102q13 46 -13 71t-79 25q-82 0 -163 -58l-35 68q102 79 225 79q98 0 144 -45.5t25 -124.5q-14 -51 -48.5 -89.5t-84.5 -56.5l-1 -4 q54 -12 78 -54.5t7 -105.5q-25 -93 -108 -146t-188 -53z" />
<glyph unicode="&#x418;" horiz-adv-x="662" d="M86 0l176 655h100l-83 -309q-16 -57 -71 -217h4l106 136l326 389h107l-176 -655h-100l84 312q9 34 70 214h-4l-106 -136l-326 -389h-107z" />
<glyph unicode="&#x419;" horiz-adv-x="662" d="M86 0l176 655h100l-83 -309q-16 -57 -71 -217h4l106 136l326 389h107l-176 -655h-100l84 312q9 34 70 214h-4l-106 -136l-326 -389h-107zM523 708h1q-81 0 -108.5 37t-14.5 96h86q-16 -80 51 -80q70 0 93 80h86q-44 -133 -193 -133h-1z" />
<glyph unicode="&#x41a;" horiz-adv-x="592" d="M86 0l176 655h101l-72 -271h102l133 162q59 71 99 96t88 25q25 0 39 -7l-42 -93q-11 4 -24 4q-22 0 -43.5 -15t-59.5 -61l-120 -145l128 -350h-109l-113 302h-101l-81 -302h-101z" />
<glyph unicode="&#x41b;" horiz-adv-x="638" d="M56 -12q-37 0 -59 9l45 92q13 -6 26 -6q29 0 58 33t78 138q54 113 182 401h342l-176 -655h-101l153 570h-163q-117 -262 -146 -326q-68 -150 -120 -203t-119 -53zM56 -12h1h-1z" />
<glyph unicode="&#x41c;" horiz-adv-x="737" d="M86 0l177 655h117l31 -333q2 -19 3.5 -41.5t3 -49.5t2.5 -42h4q12 20 38.5 65t40.5 68l207 333h118l-176 -655h-94l88 327q12 44 68 202h-4l-93 -150l-200 -315h-62l-31 315l-12 150h-4q-35 -172 -43 -202l-88 -327h-91z" />
<glyph unicode="&#x41d;" horiz-adv-x="658" d="M86 0l176 655h101l-72 -268h283l72 268h102l-176 -655h-102l80 299h-283l-80 -299h-101z" />
<glyph unicode="&#x41e;" horiz-adv-x="670" d="M332 -12q-127 0 -181 93t-12 250q41 156 143.5 246.5t230.5 90.5t182.5 -91t13.5 -246q-42 -157 -146 -250t-231 -93zM355 76q82 0 150 69.5t99 185.5q31 115 -0.5 181.5t-113.5 66.5t-148.5 -66.5t-97.5 -181.5q-31 -116 -1 -185.5t112 -69.5z" />
<glyph unicode="&#x41f;" horiz-adv-x="650" d="M86 0l177 655h477l-176 -655h-101l153 570h-276l-153 -570h-101z" />
<glyph unicode="&#x420;" horiz-adv-x="574" d="M86 0l176 655h197q250 0 196 -198q-27 -103 -108.5 -155.5t-192.5 -52.5h-100l-67 -249h-101zM276 331h90q155 0 189 126q17 64 -14 90.5t-113 26.5h-87z" />
<glyph unicode="&#x421;" horiz-adv-x="574" d="M338 -12l2 -1q-127 0 -184 90.5t-15 248.5q41 155 149.5 247.5t236.5 92.5q57 0 98.5 -23t63.5 -59l-71 -65q-42 59 -114 59q-86 0 -157.5 -67.5t-102.5 -182.5q-31 -117 2 -185t120 -68q80 0 163 71l38 -63q-107 -95 -229 -95z" />
<glyph unicode="&#x422;" horiz-adv-x="542" d="M220 0l154 570h-193l23 85h487l-23 -85h-193l-153 -570h-102z" />
<glyph unicode="&#x423;" horiz-adv-x="525" d="M139 -12l-1 -1q-40 0 -67 11l44 90q16 -7 42 -7q55 0 91 47l21 31l-90 496h108l39 -264l14 -136h4l85 136l171 264h102l-353 -528q-94 -139 -210 -139z" />
<glyph unicode="&#x424;" horiz-adv-x="741" d="M323 -12l25 92q-132 5 -188 69.5t-25 180.5q30 114 120.5 177t224.5 68l25 92h89l-25 -92q132 -5 188.5 -67.5t26.5 -177.5q-31 -115 -122.5 -180t-224.5 -70l-25 -92h-89zM368 156l92 343q-185 -8 -229 -169q-22 -80 14 -125t123 -49zM549 499l-92 -343q89 4 148.5 49 t81.5 125q22 79 -14 122t-124 47z" />
<glyph unicode="&#x425;" horiz-adv-x="528" d="M14 0l279 338l-91 317h112l38 -156q3 -11 23 -98h4q29 42 72 98l119 156h107l-263 -322l99 -333h-112l-43 165q-14 55 -25 105h-4q-39 -54 -79 -105l-129 -165h-107z" />
<glyph unicode="&#x426;" horiz-adv-x="650" d="M86 0l176 655h101l-153 -569h264l153 569h101l-153 -569h75l-16 -62l-67 -212h-89l50 188h-442z" />
<glyph unicode="&#x427;" horiz-adv-x="607" d="M420 0l79 285q-55 -10 -117 -10q-118 0 -165.5 51.5t-16.5 169.5l43 158h99l-43 -158q-20 -75 8.5 -106.5t105.5 -31.5q63 0 106 10l77 287h101l-176 -655h-101z" />
<glyph unicode="&#x428;" horiz-adv-x="878" d="M86 0l177 655h99l-153 -569h204l153 569h98l-153 -569h204l153 569h99l-176 -655h-705z" />
<glyph unicode="&#x429;" horiz-adv-x="888" d="M717 -188l50 188h-680l177 655h99l-153 -569h204l153 569h98l-153 -569h204l153 569h99l-153 -569h74l-16 -62l-67 -212h-89z" />
<glyph unicode="&#x42a;" horiz-adv-x="723" d="M232 0l152 569h-205l23 85h306l-70 -260h98q112 0 168.5 -47.5t30.5 -141.5q-27 -104 -105.5 -154.5t-192.5 -50.5h-205zM354 81h93q155 0 188 122q14 55 -19 82.5t-112 27.5h-87z" />
<glyph unicode="&#x42b;" horiz-adv-x="813" d="M86 0l174 654h101l-70 -260h92q114 0 167.5 -46t27.5 -143q-27 -105 -106 -155t-194 -50h-192zM625 -1l176 655h101l-176 -655h-101zM207 81h83q156 0 189 122q15 56 -17 83t-112 27h-80z" />
<glyph unicode="&#x42c;" horiz-adv-x="586" d="M86 0l175 654h101l-70 -260h111q114 0 167.5 -46t27.5 -143q-27 -105 -106 -155t-194 -50h-212zM208 81h101q157 0 190 122q15 56 -17 83t-112 27h-99z" />
<glyph unicode="&#x42d;" horiz-adv-x="574" d="M239 -12l2 -1q-126 0 -188 95l72 63q50 -71 136 -71q81 0 144 56.5t98 167.5h-261l23 86h260q16 95 -18 144.5t-112 49.5q-79 0 -156 -59l-38 65q45 36 104.5 59t117.5 23q127 0 180 -88t9 -252q-44 -163 -145.5 -250.5t-227.5 -87.5z" />
<glyph unicode="&#x42e;" horiz-adv-x="920" d="M86 0l175 655h101l-72 -268h139q48 132 139 206.5t204 74.5q125 0 176 -90.5t9 -246.5q-42 -158 -142 -250.5t-224 -92.5h-1h1q-118 0 -168.5 83t-19.5 228h-136l-80 -299h-101zM614 76q80 0 144 69t96 186q31 115 3 181.5t-108 66.5q-79 0 -142 -66t-94 -182 q-32 -116 -5 -185.5t106 -69.5z" />
<glyph unicode="&#x42f;" horiz-adv-x="592" d="M404 0l72 266h-109l-232 -265h-116l252 278q-128 41 -90 187q51 189 287 189h213l-176 -655h-101zM397 348h100l61 227h-100q-74 0 -117.5 -25t-59.5 -83q-16 -59 14 -89t102 -30z" />
<glyph unicode="&#x430;" horiz-adv-x="510" d="M191 -12q-63 0 -93 38.5t-12 102.5q21 79 102 122t240 60q27 108 -66 108q-63 0 -155 -50l-19 68q116 64 213 64q176 0 122 -207l-79 -294h-82l7 56h-3q-100 -68 -175 -68zM244 67l1 -1q55 0 134 59l32 122q-109 -13 -161.5 -40t-64.5 -70q-9 -35 7.5 -52.5t51.5 -17.5z M190 -12h1h-1z" />
<glyph unicode="&#x431;" horiz-adv-x="549" d="M281 -12h-1q-111 0 -150.5 81t0.5 230q25 94 58.5 162t69 110t84.5 69.5t94.5 40t109.5 21.5q68 9 113 28l-5 -90q-39 -23 -114 -33q-42 -6 -63 -9.5t-51 -11t-45.5 -16.5t-36 -24t-34 -36t-28 -50t-28.5 -68q82 77 180 77q86 0 124.5 -61t9.5 -167q-31 -113 -112.5 -183 t-174.5 -70zM229 311l-9 -33q-27 -100 -6 -154t88 -54q52 0 97 47.5t66 123.5q19 73 -1 112.5t-76 39.5q-77 0 -159 -82z" />
<glyph unicode="&#x432;" horiz-adv-x="514" d="M77 0l131 488h194q86 0 127.5 -30t23.5 -95q-20 -79 -109 -103v-3q95 -25 70 -117q-19 -70 -82 -105t-152 -35h-203zM195 69l97 -1q105 0 126 77q9 34 -14 53t-77 19h-92zM253 287h83q100 0 118 66q9 32 -10 49t-69 17h-87z" />
<glyph unicode="&#x433;" horiz-adv-x="417" d="M77 0l131 488h314l-22 -80h-214l-109 -408h-100z" />
<glyph unicode="&#x434;" horiz-adv-x="546" d="M114 0l-46 -172h-86l40 188l17 64h26v1q26 12 52 52.5t67 145.5l81 210h321l-110 -409h73l-17 -64l-60 -188h-86l46 172h-318zM376 80l89 329h-142l-58 -150q-46 -121 -98 -179h209z" />
<glyph unicode="&#x435;" horiz-adv-x="502" d="M278 -12q-103 0 -152 69t-18 186q30 115 115.5 186.5t174.5 71.5q95 0 130.5 -63t6.5 -168q-7 -28 -17 -52h-319q-13 -70 17 -110.5t95 -40.5q58 0 128 36l17 -64q-91 -51 -178 -51zM217 288h237q17 65 -1.5 100t-71.5 35q-48 0 -94 -36t-70 -99z" />
<glyph unicode="&#x436;" horiz-adv-x="703" d="M11 0l225 257l-12 85q-6 36 -18 49t-34 13q-11 0 -18 -2l8 93q15 6 33 6q46 0 72.5 -23t36.5 -81l17 -103h66l52 195h89l-52 -195h70l73 103q40 58 78.5 81t84.5 23q20 0 30 -6l-42 -93q-5 2 -16 2q-43 0 -86 -62l-60 -88l85 -254h-108l-60 213h-71l-57 -213h-89l57 213 h-71l-175 -213h-108z" />
<glyph unicode="&#x437;" horiz-adv-x="462" d="M218 -12l1 -3q-110 0 -171 61l59 64q47 -47 123 -47q48 0 86.5 21.5t47.5 57.5q19 73 -91 73h-70l19 70h59q103 0 122 69q9 32 -11.5 49.5t-63.5 17.5q-70 0 -138 -40l-23 65q92 54 188 54q79 0 122.5 -34.5t25.5 -99.5q-9 -35 -38 -63.5t-71 -42.5l-1 -4q94 -27 68 -120 q-18 -67 -89 -107.5t-154 -40.5z" />
<glyph unicode="&#x438;" horiz-adv-x="570" d="M77 0l131 489h97l-49 -184q-14 -51 -57 -178h4q10 12 43 49.5t46 54.5l238 258h93l-131 -489h-97l49 184q12 45 57 179h-4q-12 -14 -44.5 -51.5t-44.5 -52.5l-239 -259h-92z" />
<glyph unicode="&#x439;" horiz-adv-x="570" d="M77 0l131 489h97l-49 -184q-14 -51 -57 -178h4q10 12 43 49.5t46 54.5l238 258h93l-131 -489h-97l49 184q12 45 57 179h-4q-12 -14 -44.5 -51.5t-44.5 -52.5l-239 -259h-92zM441 573h-1q-80 0 -108 43.5t-12 112.5h81q-23 -100 54 -100q78 0 108 100h81 q-21 -69 -72 -112.5t-131 -43.5z" />
<glyph unicode="&#x43a;" horiz-adv-x="511" d="M77 0l131 489h100l-52 -195h83l75 103q43 60 79.5 82t83.5 22q19 0 30 -6l-42 -93q-5 2 -16 2q-22 0 -41 -12t-45 -49l-59 -86l96 -257h-110l-72 213h-84l-57 -213h-100z" />
<glyph unicode="&#x43b;" horiz-adv-x="543" d="M55 -12q-24 0 -45 9l43 92q12 -4 21 -4q50 0 87 95q41 103 119 309h318l-131 -489h-101l109 408h-138q-67 -177 -99 -255q-67 -165 -183 -165zM54 -12h1h-1z" />
<glyph unicode="&#x43c;" horiz-adv-x="640" d="M77 0l132 489h115l29 -212q9 -88 11 -116h4q59 94 72 116l140 212h114l-131 -489h-90l51 193q12 42 60 181h-4q-13 -21 -40.5 -63t-38.5 -59l-138 -207h-62l-28 207q-2 18 -7 60t-7 62h-4q-28 -146 -38 -181l-51 -193h-89z" />
<glyph unicode="&#x43d;" horiz-adv-x="568" d="M77 0l131 489h100l-52 -192h213l52 192h100l-131 -489h-100l56 208h-213l-56 -208h-100z" />
<glyph unicode="&#x43e;" horiz-adv-x="546" d="M270 -12h1q-95 0 -144 69.5t-18 186.5q32 118 117.5 188t180.5 70t144 -70t17 -188q-31 -117 -116.5 -186.5t-180.5 -69.5h-1zM293 70q58 0 105 47.5t68 126.5t-0.5 127t-79.5 48t-105 -48t-68 -127q-21 -78 0.5 -126t79.5 -48z" />
<glyph unicode="&#x43f;" horiz-adv-x="559" d="M77 0l131 489h404l-131 -489h-100l109 408h-204l-109 -408h-100z" />
<glyph unicode="&#x440;" horiz-adv-x="560" d="M24 -199l184 689h82l-6 -54h3q95 66 169 66q92 0 124.5 -67t2.5 -183q-32 -120 -112.5 -191.5t-167.5 -71.5q-64 0 -116 54l-20 -83l-43 -159h-100zM304 72q56 0 104 48t71 132q46 166 -72 166q-53 0 -134 -60l-64 -241q41 -45 95 -45z" />
<glyph unicode="&#x441;" horiz-adv-x="459" d="M273 -12v-2q-102 0 -149 68.5t-16 187.5q32 119 120.5 188.5t188.5 69.5q79 0 128 -56l-67 -65q-35 40 -79 40q-63 0 -115 -48.5t-73 -126.5t5 -126t88 -48q56 0 119 45l24 -66q-84 -61 -174 -61z" />
<glyph unicode="&#x442;" horiz-adv-x="469" d="M184 0l108 408h-158l22 80h417l-22 -80h-158l-109 -408h-100z" />
<glyph unicode="&#x443;" horiz-adv-x="482" d="M44 -205l1 1q-32 0 -57 10l39 78q21 -7 35 -7q73 0 128 93l19 33l-64 486h102l23 -254q3 -38 7 -138h4q40 72 76 138l147 254h97l-319 -519q-53 -86 -109 -130.5t-129 -44.5z" />
<glyph unicode="&#x444;" horiz-adv-x="746" d="M271 -199l39 148l22 73q-57 -34 -106 -34q-85 0 -117.5 68t0.5 188q30 115 103.5 186t150.5 71q48 0 88 -33l16 72l46 169h98l-46 -169l-22 -75q60 36 113 36q84 0 113.5 -68t-1.5 -182q-32 -120 -106 -191.5t-152 -71.5q-46 0 -85 33l-16 -72l-40 -148h-98zM445 100 q25 -29 66 -29q47 0 89 47.5t65 132.5q46 166 -57 166q-42 0 -86 -30zM272 71h1q42 0 82 31l76 286q-25 29 -69 29t-86 -47t-63 -125q-22 -83 -6.5 -128.5t65.5 -45.5z" />
<glyph unicode="&#x445;" horiz-adv-x="465" d="M14 0l225 255l-84 234h108l33 -100q24 -78 25 -81h4q27 36 63 81l78 100h104l-211 -245l91 -244h-108l-37 104q-3 10 -8.5 28t-10 32.5t-8.5 26.5h-4q-31 -36 -70 -87l-86 -104h-104z" />
<glyph unicode="&#x446;" horiz-adv-x="565" d="M77 0l131 489h100l-109 -408h198l109 408h100l-110 -409h73l-17 -64l-60 -188h-86l45 172h-374z" />
<glyph unicode="&#x447;" horiz-adv-x="522" d="M345 0l49 187q-49 -10 -95 -10q-196 0 -149 176l36 136h100l-36 -136q-14 -50 8.5 -72.5t83.5 -22.5q32 0 75 8l59 223h100l-131 -489h-100z" />
<glyph unicode="&#x448;" horiz-adv-x="764" d="M77 0l131 489h100l-109 -408h157l109 408h96l-109 -408h158l109 408h99l-131 -489h-610z" />
<glyph unicode="&#x449;" horiz-adv-x="777" d="M618 -172l45 172h-587l131 489h100l-109 -408h157l109 408h96l-109 -408h158l109 408h99l-110 -409h74l-17 -64l-60 -188h-86z" />
<glyph unicode="&#x44a;" horiz-adv-x="604" d="M192 0l109 408h-166l22 80h266l-46 -173h73q92 0 135 -38t21 -118q-22 -81 -85.5 -120t-155.5 -39h-173zM313 78l68 -1q108 0 130 81q10 41 -12 60.5t-77 19.5h-66z" />
<glyph unicode="&#x44b;" horiz-adv-x="692" d="M77 0l131 488h100l-46 -173h60q92 0 135 -38t21 -118q-22 -81 -85.5 -120t-155.5 -39h-160zM517 -2l131 489h100l-131 -489h-100zM199 78l53 -1q109 0 131 81q10 41 -11.5 60.5t-77.5 19.5h-52z" />
<glyph unicode="&#x44c;" horiz-adv-x="498" d="M77 0l131 488h100l-46 -173h82q92 0 135 -38t21 -118q-22 -81 -85.5 -120t-155.5 -39h-182zM199 78l75 -1q109 0 131 81q10 41 -11.5 60.5t-77.5 19.5h-74z" />
<glyph unicode="&#x44d;" horiz-adv-x="459" d="M181 -12h-1q-96 0 -145 61l56 60q38 -43 99 -43q134 0 187 152h-203l19 70h201q9 67 -18 100.5t-82 33.5q-56 0 -114 -39l-30 60q76 58 170 58q100 0 147 -66t14 -191q-33 -124 -114.5 -190t-185.5 -66z" />
<glyph unicode="&#x44e;" horiz-adv-x="748" d="M77 0l131 488h100l-52 -194h98q38 97 111.5 152t158.5 55q92 0 135 -69.5t11 -188.5q-31 -118 -110.5 -187t-171.5 -69l-1 1q-88 0 -131.5 58.5t-26.5 159.5h-97l-55 -206h-100zM504 70q55 0 98.5 47.5t64.5 126.5q22 79 3.5 127t-73.5 48q-54 0 -99.5 -48t-66.5 -127 q-21 -78 -1 -126t74 -48z" />
<glyph unicode="&#x44f;" horiz-adv-x="522" d="M345 0l49 183h-80l-174 -184h-113l198 199q-95 37 -67 141q39 150 235 150h183l-131 -489h-100zM346 254h68l42 158h-68q-111 0 -131 -76q-10 -39 13 -60.5t76 -21.5z" />
<glyph unicode="&#x450;" horiz-adv-x="502" d="M278 -12q-103 0 -152 69t-18 186q30 115 115.5 186.5t174.5 71.5q95 0 130.5 -63t6.5 -168q-7 -28 -17 -52h-319q-13 -70 17 -110.5t95 -40.5q58 0 128 36l17 -64q-91 -51 -178 -51zM217 288h237q17 65 -1.5 100t-71.5 35q-48 0 -94 -36t-70 -99zM426 573l-122 154l87 67 l99 -171z" />
<glyph unicode="&#x451;" horiz-adv-x="502" d="M278 -12q-103 0 -152 69t-18 186q30 115 115.5 186.5t174.5 71.5q95 0 130.5 -63t6.5 -168q-7 -28 -17 -52h-319q-13 -70 17 -110.5t95 -40.5q58 0 128 36l17 -64q-91 -51 -178 -51zM217 288h237q17 65 -1.5 100t-71.5 35q-48 0 -94 -36t-70 -99zM321 582 q-25 0 -36.5 16.5t-4.5 39.5q6 24 26.5 40t44.5 16t35.5 -16.5t5.5 -39.5q-7 -24 -27 -40t-44 -16zM520 582q-24 0 -35.5 16.5t-4.5 39.5q6 23 26 39.5t44 16.5t36 -16t6 -40q-7 -24 -27.5 -40t-44.5 -16z" />
<glyph unicode="&#x452;" horiz-adv-x="555" d="M240 -211l1 -1q-38 0 -62 13l39 75q22 -8 37 -8q54 0 102.5 65t91.5 228q30 123 16 167t-72 44q-53 0 -134 -65l-82 -307h-100l152 566h-72l14 49l72 5l24 89h100l-24 -89h180l-15 -54h-180l-23 -87l-30 -95q99 75 176 75q180 0 104 -285q-57 -212 -133.5 -298.5 t-181.5 -86.5z" />
<glyph unicode="&#x453;" horiz-adv-x="417" d="M77 0l131 488h314l-22 -80h-214l-109 -408h-100zM393 573l-37 50l190 171l52 -67z" />
<glyph unicode="&#x454;" horiz-adv-x="459" d="M273 -12l-1 -2q-105 0 -151.5 66t-13.5 190q33 123 119 190t189 67q80 0 129 -56l-62 -62q-36 41 -87 41q-57 0 -104 -35t-74 -101h211l-19 -70h-212q-14 -74 13.5 -112t91.5 -38q57 0 123 45l22 -62q-84 -61 -174 -61z" />
<glyph unicode="&#x455;" horiz-adv-x="426" d="M209 -12q-100 0 -165 68l65 65q56 -56 124 -56q42 0 69 18.5t35 48.5q5 16 0.5 28.5t-20 23t-26.5 16.5t-35 16h-1q-1 1 -2 1q-17 7 -30 13.5t-28.5 16.5t-24 20t-17.5 24.5t-8 30t4 37.5q17 63 74.5 103t137.5 40q86 0 142 -58l-63 -62q-46 43 -98 43q-39 0 -64.5 -17.5 t-31.5 -44.5q-7 -26 11.5 -41.5t61.5 -32.5q2 -1 5.5 -2.5t4.5 -1.5q14 -6 23 -10t22 -10.5t21 -13t17.5 -15t14.5 -18.5t8.5 -22.5t2.5 -27t-5 -31.5q-18 -64 -78 -106t-146 -43zM207 -12h2h-2z" />
<glyph unicode="&#x456;" horiz-adv-x="254" d="M77 0l131 489h100l-131 -489h-100zM284 581q-28 0 -42 17t-7 43q7 27 30 43.5t51 16.5t42 -16.5t7 -43.5q-7 -26 -30 -43t-51 -17z" />
<glyph unicode="&#x457;" horiz-adv-x="254" d="M77 0l131 489h100l-131 -489h-100zM183 582q-25 0 -36.5 16.5t-4.5 39.5q6 24 26.5 40t44.5 16t35.5 -16.5t5.5 -39.5q-7 -24 -27 -40t-44 -16zM382 582q-24 0 -35.5 16.5t-4.5 39.5q6 23 26 39.5t44 16.5t36 -16t6 -40q-7 -24 -27.5 -40t-44.5 -16z" />
<glyph unicode="&#x458;" horiz-adv-x="256" d="M-23 -211l-1 1q-43 0 -73 13l40 75q22 -8 42 -8q33 0 51.5 22.5t31.5 68.5l142 529h100l-141 -528q-46 -173 -192 -173zM284 582q-28 0 -42 17t-7 43q7 27 30 43.5t51 16.5t41.5 -16.5t6.5 -43.5q-7 -26 -30 -43t-50 -17z" />
<glyph unicode="&#x459;" horiz-adv-x="748" d="M56 -12q-26 0 -45 9l42 92q14 -4 21 -4q49 0 91 95q45 104 109 309h310l-47 -174h57q92 0 135 -38t21 -118q-22 -81 -85.5 -120t-155.5 -39h-158l110 408h-122q-69 -201 -101 -272q-66 -148 -182 -148zM517 238l-43 -160l50 -1q109 0 131 81q10 41 -12 60.5t-78 19.5h-48 z" />
<glyph unicode="&#x45a;" horiz-adv-x="766" d="M77 0l131 489h100l-52 -192h193l52 192h100v-1l-46 -173h57q93 0 136 -38t21 -118q-22 -81 -85.5 -120t-156.5 -39h-157l56 208h-193l-56 -208h-100zM492 78l51 -1q109 0 131 81q10 41 -11.5 60.5t-77.5 19.5h-50z" />
<glyph unicode="&#x45b;" horiz-adv-x="552" d="M77 0l151 567h-73l14 49l73 5l24 88h100l-24 -88h179l-15 -54h-178l-24 -88l-30 -97q103 77 181 77q149 0 98 -193l-71 -266h-100l68 253q17 65 4.5 92.5t-56.5 27.5q-33 0 -63 -15.5t-76 -51.5l-82 -306h-100z" />
<glyph unicode="&#x45c;" horiz-adv-x="511" d="M77 0l131 489h100l-52 -195h83l75 103q43 60 79.5 82t83.5 22q19 0 30 -6l-42 -93q-5 2 -16 2q-22 0 -41 -12t-45 -49l-59 -86l96 -257h-110l-72 213h-84l-57 -213h-100zM430 574l-37 50l190 171l52 -67z" />
<glyph unicode="&#x45d;" horiz-adv-x="570" d="M77 0l131 489h97l-49 -184q-14 -51 -57 -178h4q10 12 43 49.5t46 54.5l238 258h93l-131 -489h-97l49 184q12 45 57 179h-4q-12 -14 -44.5 -51.5t-44.5 -52.5l-239 -259h-92zM449 574l-122 154l87 67l99 -171z" />
<glyph unicode="&#x45e;" horiz-adv-x="482" d="M44 -205l1 1q-32 0 -57 10l39 78q21 -7 35 -7q73 0 128 93l19 33l-64 486h102l23 -254q3 -38 7 -138h4q40 72 76 138l147 254h97l-319 -519q-53 -86 -109 -130.5t-129 -44.5zM404 573h-1q-80 0 -108 43.5t-12 112.5h81q-23 -100 54 -100q78 0 108 100h81 q-21 -69 -72 -112.5t-131 -43.5z" />
<glyph unicode="&#x45f;" horiz-adv-x="564" d="M77 0l131 489h100l-109 -408h209l109 408h100l-131 -489h-151l-58 -172h-86l43 172h-157z" />
<glyph unicode="&#x462;" horiz-adv-x="617" d="M160 0l134 501h-132l22 82h132l31 116h102l-31 -116h229l-22 -82h-229l-34 -125h68q114 0 168.5 -42t30.5 -133q-53 -201 -294 -201h-175zM282 79l65 1q77 0 120.5 27.5t60.5 89.5q15 56 -16 80.5t-113 24.5h-57z" />
<glyph unicode="&#x463;" horiz-adv-x="583" d="M172 0l118 435h-146l21 80h146l29 108h100l-29 -108h182l-21 -80h-182l-33 -120h72q92 0 135 -38t21 -118q-22 -81 -85.5 -120t-155.5 -39h-172zM294 79l66 -1q109 0 131 81q10 41 -12 60.5t-78 19.5h-64z" />
<glyph unicode="&#x472;" horiz-adv-x="670" d="M332 -12q-129 0 -182.5 90.5t-10.5 252.5q43 161 144 249t230 88t184 -88.5t12 -248.5q-43 -162 -145.5 -252.5t-231.5 -90.5zM355 72q80 0 144.5 60t100.5 170h-367q-24 -110 9 -170t113 -60zM257 384h363q16 94 -18.5 146t-109.5 52t-136.5 -51.5t-98.5 -146.5z" />
<glyph unicode="&#x473;" horiz-adv-x="546" d="M270 -12q-98 0 -146 67.5t-16 188.5q32 122 116 190t182 68t146 -68t16 -190q-32 -121 -116.5 -188.5t-181.5 -67.5zM290 66q57 0 104 40t71 112h-268q-13 -72 11.5 -112t81.5 -40zM217 288h265q7 65 -18.5 101t-78.5 36t-97 -36t-71 -101z" />
<glyph unicode="&#x474;" horiz-adv-x="542" d="M204 0l-28 654h108l6 -340v-73q0 -91 3 -142h4q6 12 46 91t64 124l111 203q42 80 83 114.5t98 34.5q31 0 52 -9l-45 -92q-12 6 -25 6q-38 0 -78 -71l-274 -500h-125z" />
<glyph unicode="&#x475;" horiz-adv-x="492" d="M185 0l-44 487h102l14 -264q0 -26 5 -146h4q57 114 75 146l75 127q43 80 82 115t93 35q29 0 52 -9l-42 -88q-9 6 -23 6q-37 0 -78 -70l-193 -339h-122z" />
<glyph unicode="&#x490;" horiz-adv-x="504" d="M86 0l176 655h294l62 172h86l-78 -257h-286l-153 -570h-101z" />
<glyph unicode="&#x491;" horiz-adv-x="421" d="M77 0l131 488h228l63 172h82l-77 -252h-218l-109 -408h-100z" />
<glyph unicode="&#x492;" horiz-adv-x="528" d="M111 300l14 50l79 4l81 301h387l-23 -85h-286l-58 -216h142l-15 -54h-141l-81 -300h-101l81 300h-79z" />
<glyph unicode="&#x493;" horiz-adv-x="433" d="M84 208l13 49l68 5l61 227h314l-22 -80h-214l-39 -147h129l-15 -54h-129l-55 -207h-100l56 207h-67z" />
<glyph unicode="&#x496;" horiz-adv-x="863" d="M692 -188l50 188h-36l-80 302h-87l-81 -302h-96l81 302h-87l-241 -302h-110l290 348l-27 147q-9 46 -23 61t-38 15q-14 0 -27 -4l8 93q17 7 43 7q50 0 78.5 -25.5t43.5 -94.5l32 -163h81l72 271h96l-72 -271h78l120 163q53 69 95.5 94.5t92.5 25.5q25 0 39 -7l-42 -93 q-11 4 -23 4q-24 0 -47 -15t-57 -61l-104 -148l77 -261h73l-16 -62l-67 -212h-89z" />
<glyph unicode="&#x497;" horiz-adv-x="742" d="M583 -172l46 172h-44l-60 213h-71l-57 -213h-89l57 213h-71l-175 -213h-108l225 257l-12 85q-6 36 -18 49t-34 13q-11 0 -18 -2l8 93q15 6 33 6q46 0 72.5 -23t36.5 -81l17 -103h66l52 195h89l-52 -195h70l73 103q40 58 78.5 81t84.5 23q20 0 30 -6l-42 -93q-5 2 -16 2 q-43 0 -86 -62l-60 -88l58 -174h80l-17 -64l-60 -188h-86z" />
<glyph unicode="&#x498;" horiz-adv-x="557" d="M184 -188l46 177q-111 11 -169 92l74 69q57 -75 160 -75q62 0 111 31.5t64 86.5q15 56 -18.5 83.5t-112.5 27.5h-78l20 76h58q147 0 175 102q13 46 -13 71t-79 25q-82 0 -163 -58l-35 68q102 79 225 79q98 0 144 -45.5t25 -124.5q-14 -51 -48.5 -89.5t-84.5 -56.5l-1 -4 q54 -12 78 -54.5t7 -105.5q-22 -80 -87 -131t-153 -64l-56 -180h-89z" />
<glyph unicode="&#x499;" horiz-adv-x="462" d="M134 -172l39 160q-76 10 -124 58l59 64q47 -47 123 -47q48 0 86.5 21.5t47.5 57.5q19 73 -91 73h-70l19 70h59q103 0 122 69q9 32 -11.5 49.5t-63.5 17.5q-70 0 -138 -40l-23 65q92 54 188 54q79 0 122.5 -34.5t25.5 -99.5q-9 -35 -38 -63.5t-71 -42.5l-1 -4 q94 -27 68 -120q-15 -56 -67.5 -93.5t-121.5 -49.5l-55 -165h-84z" />
<glyph unicode="&#x49a;" horiz-adv-x="639" d="M467 -188l50 188h-35l-113 302h-101l-81 -302h-101l176 655h101l-72 -271h102l133 162q59 71 99 96t88 25q25 0 39 -7l-42 -93q-11 4 -24 4q-22 0 -43.5 -15t-59.5 -61l-120 -145l97 -264h79l-16 -62l-67 -212h-89z" />
<glyph unicode="&#x49b;" horiz-adv-x="550" d="M392 -172l46 172h-48l-72 213h-84l-57 -213h-100l131 489h100l-52 -195h83l75 103q43 60 79.5 82t83.5 22q19 0 30 -6l-42 -93q-5 2 -16 2q-22 0 -41 -12t-45 -49l-59 -86l66 -177h85l-17 -64l-61 -188h-85z" />
<glyph unicode="&#x4a0;" horiz-adv-x="725" d="M219 0l153 570h-193l23 85h294l-72 -271h101l133 162q58 70 98 95.5t89 25.5q25 0 39 -7l-42 -93q-11 4 -23 4q-23 0 -44 -15t-59 -61l-119 -146l127 -349h-108l-113 302h-101l-81 -302h-102z" />
<glyph unicode="&#x4a1;" horiz-adv-x="626" d="M191 0l108 409h-166l22 80h266l-52 -195h82l75 103q43 60 79.5 82t83.5 22q19 0 31 -6l-42 -93q-5 2 -16 2q-21 0 -40 -12t-45 -49l-60 -87l96 -256h-110l-72 213h-83l-57 -213h-100z" />
<glyph unicode="&#x4a2;" horiz-adv-x="669" d="M497 -188l50 188h-77l80 299h-283l-80 -299h-101l176 655h101l-72 -268h283l72 268h102l-153 -569h74l-16 -62l-67 -212h-89z" />
<glyph unicode="&#x4a3;" horiz-adv-x="580" d="M421 -172l45 172h-75l56 208h-213l-56 -208h-100l131 489h100l-52 -192h213l52 192h100l-110 -409h73l-17 -64l-61 -188h-86z" />
<glyph unicode="&#x4aa;" horiz-adv-x="574" d="M244 -188l47 179q-103 18 -145.5 106t-4.5 229q41 155 149.5 247.5t236.5 92.5q57 0 98.5 -23t63.5 -59l-71 -65q-42 59 -114 59q-86 0 -157.5 -67.5t-102.5 -182.5q-31 -117 2 -185t120 -68q80 0 163 71l38 -63q-84 -75 -178 -91l-56 -180h-89z" />
<glyph unicode="&#x4ab;" horiz-adv-x="459" d="M182 -172l40 163q-76 17 -108 83t-5 168q32 119 120.5 188.5t188.5 69.5q79 0 128 -56l-67 -65q-35 40 -79 40q-63 0 -115 -48.5t-73 -126.5t5 -126t88 -48q56 0 119 45l24 -66q-60 -44 -127 -56l-55 -165h-84z" />
<glyph unicode="&#x4ae;" horiz-adv-x="490" d="M194 0l67 248l-88 407h108l30 -175q11 -77 22 -143h4q85 119 101 143l124 175h106l-306 -407l-66 -248h-102z" />
<glyph unicode="&#x4af;" horiz-adv-x="482" d="M141 -199l52 199l-51 489h102l16 -252q0 -5 6 -143h4q10 17 38.5 66t43.5 77l151 252h98l-307 -489l-53 -199h-100z" />
<glyph unicode="&#x4b0;" horiz-adv-x="490" d="M117 235l14 50l91 4h30l-79 366h108l30 -175q11 -77 22 -143h4q85 119 101 143l124 175h106l-275 -366h120l-15 -54h-139l-63 -235h-102l63 235h-140z" />
<glyph unicode="&#x4b1;" horiz-adv-x="482" d="M141 -199l52 199h-146l13 49l79 5h48l-45 435h102l16 -252q0 -5 6 -143h4q10 17 38.5 66t43.5 77l151 252h98l-273 -435h120l-15 -54h-139l-53 -199h-100z" />
<glyph unicode="&#x4b2;" horiz-adv-x="566" d="M397 -188l50 188h-46l-43 165q-14 55 -25 105h-4q-39 -54 -79 -105l-129 -165h-107l279 338l-91 317h112l38 -156q3 -11 23 -98h4q29 42 72 98l119 156h107l-263 -322l73 -247h81l-16 -62l-67 -212h-88z" />
<glyph unicode="&#x4b3;" horiz-adv-x="500" d="M342 -172l45 172h-46l-37 104q-3 10 -8.5 28t-10 32.5t-8.5 26.5h-4q-31 -36 -70 -87l-86 -104h-104l225 255l-84 234h108l33 -100q24 -78 25 -81h4q27 36 63 81l78 100h104l-211 -245l61 -164h85l-17 -64l-60 -188h-85z" />
<glyph unicode="&#x4b6;" horiz-adv-x="618" d="M448 -188l51 188h-79l79 285q-55 -10 -117 -10q-118 0 -165.5 51.5t-16.5 169.5l43 158h99l-43 -158q-20 -75 8.5 -106.5t105.5 -31.5q63 0 106 10l77 287h101l-153 -569h74l-16 -62l-67 -212h-87z" />
<glyph unicode="&#x4b7;" horiz-adv-x="535" d="M377 -172l45 172h-78l49 187q-49 -10 -95 -10q-196 0 -149 176l36 136h100l-36 -136q-14 -50 8.5 -72.5t83.5 -22.5q32 0 75 8l59 223h100l-110 -409h75l-17 -64l-61 -188h-85z" />
<glyph unicode="&#x4ba;" horiz-adv-x="607" d="M86 0l174 655h101l-67 -252q58 9 115 9q118 0 165.5 -51.5t16.5 -169.5l-51 -191h-99l51 191q20 76 -8 107t-106 31q-58 0 -105 -9l-86 -320h-101z" />
<glyph unicode="&#x4bb;" horiz-adv-x="552" d="M77 0l189 709h100l-50 -188l-30 -97q103 77 180 77q150 0 99 -193l-83 -308h-100l79 295q17 65 4.5 92.5t-56.5 27.5q-32 0 -62.5 -16t-76.5 -52l-93 -347h-100z" />
<glyph unicode="&#x4c0;" horiz-adv-x="274" d="M86 0l176 655h101l-176 -655h-101z" />
<glyph unicode="&#x4c1;" horiz-adv-x="822" d="M5 0l290 348l-27 147q-9 46 -23 61t-38 15q-14 0 -27 -4l8 93q17 7 43 7q50 0 78.5 -25.5t43.5 -94.5l32 -163h81l72 271h96l-72 -271h78l120 163q53 69 95.5 94.5t92.5 25.5q25 0 39 -7l-42 -93q-11 4 -23 4q-24 0 -47 -15t-57 -61l-104 -148l102 -347h-110l-80 302h-87 l-81 -302h-96l81 302h-87l-241 -302h-110zM599 703h1q-81 0 -108.5 37t-14.5 96h86q-16 -80 51 -80q70 0 93 80h86q-44 -133 -193 -133h-1z" />
<glyph unicode="&#x4c2;" horiz-adv-x="703" d="M11 0l225 257l-12 85q-6 36 -18 49t-34 13q-11 0 -18 -2l8 93q15 6 33 6q46 0 72.5 -23t36.5 -81l17 -103h66l52 195h89l-52 -195h70l73 103q40 58 78.5 81t84.5 23q20 0 30 -6l-42 -93q-5 2 -16 2q-43 0 -86 -62l-60 -88l85 -254h-108l-60 213h-71l-57 -213h-89l57 213 h-71l-175 -213h-108zM509 572h-1q-80 0 -108 43.5t-12 112.5h81q-23 -100 54 -100q78 0 108 100h81q-21 -69 -72 -112.5t-131 -43.5z" />
<glyph unicode="&#x4cf;" horiz-adv-x="264" d="M175 -12l1 2q-101 0 -68 125l160 595h100l-161 -601q-11 -38 13 -38q9 0 19 2l-7 -75q-23 -10 -57 -10z" />
<glyph unicode="&#x4d0;" horiz-adv-x="552" d="M0 0l393 655h117l42 -655h-108l-6 188h-229l-106 -188h-103zM255 268h181l-3 89q-4 95 -4 218h-4q-73 -139 -120 -218zM465 703h1q-81 0 -108.5 37t-14.5 96h86q-16 -80 51 -80q70 0 93 80h86q-44 -133 -193 -133h-1z" />
<glyph unicode="&#x4d1;" horiz-adv-x="510" d="M191 -12q-63 0 -93 38.5t-12 102.5q21 79 102 122t240 60q27 108 -66 108q-63 0 -155 -50l-19 68q116 64 213 64q176 0 122 -207l-79 -294h-82l7 56h-3q-100 -68 -175 -68zM423 571h-1q-80 0 -108 43.5t-12 112.5h81q-23 -100 54 -100q78 0 108 100h81 q-21 -69 -72 -112.5t-131 -43.5zM244 67l1 -1q55 0 134 59l32 122q-109 -13 -161.5 -40t-64.5 -70q-9 -35 7.5 -52.5t51.5 -17.5zM190 -12h1h-1z" />
<glyph unicode="&#x4d4;" horiz-adv-x="828" d="M2 0l511 656h432l-23 -85h-270l-50 -185h226l-23 -86h-226l-57 -214h280l-23 -86h-382l48 180h-198l-139 -180h-106zM308 260h159l84 316h-4q-94 -127 -154 -206z" />
<glyph unicode="&#x4d5;" horiz-adv-x="785" d="M196 -12h-2q-64 0 -94 38.5t-12 102.5q21 79 102 122t237 60q27 108 -64 108q-60 0 -152 -50l-19 68q116 64 206 64q51 0 80 -25t34 -70q89 95 181 95q90 0 122 -63t4 -169q-10 -33 -17 -50h-307q-14 -68 14.5 -109t87.5 -41q51 0 124 38l18 -68q-91 -51 -176 -51 q-102 0 -148 87q-125 -87 -219 -87zM245 67l-1 -1q71 0 151 66q-6 37 7 91l6 24q-198 -25 -221 -110q-9 -35 7 -52.5t51 -17.5zM509 282h224q18 67 1.5 103.5t-67.5 36.5q-47 0 -90.5 -37.5t-67.5 -102.5z" />
<glyph unicode="&#x4d6;" horiz-adv-x="533" d="M86 0l176 656h386l-23 -85h-286l-50 -185h242l-23 -86h-242l-57 -214h296l-23 -86h-396zM474 704h1q-81 0 -108.5 37t-14.5 96h86q-16 -80 51 -80q70 0 93 80h86q-44 -133 -193 -133h-1z" />
<glyph unicode="&#x4d7;" horiz-adv-x="502" d="M278 -12q-103 0 -152 69t-18 186q30 115 115.5 186.5t174.5 71.5q95 0 130.5 -63t6.5 -168q-7 -28 -17 -52h-319q-13 -70 17 -110.5t95 -40.5q58 0 128 36l17 -64q-91 -51 -178 -51zM418 572h-1q-80 0 -108 43.5t-12 112.5h81q-23 -100 54 -100q78 0 108 100h81 q-21 -69 -72 -112.5t-131 -43.5zM217 288h237q17 65 -1.5 100t-71.5 35q-48 0 -94 -36t-70 -99z" />
<glyph unicode="&#x4d8;" horiz-adv-x="663" d="M327 -12v1q-128 0 -177 89.5t-7 246.5q6 17 12 31h454q50 228 -127 228q-88 0 -173 -64l-30 69q103 78 234 78q130 0 181 -88t7 -250q-43 -162 -143 -251.5t-231 -89.5zM587 280h-351q-22 -100 8.5 -154.5t105.5 -54.5q78 0 139.5 53.5t97.5 155.5z" />
<glyph unicode="&#x4d9;" horiz-adv-x="502" d="M238 -12h-2q-95 0 -132.5 64t-8.5 172q7 23 19 52h319q13 69 -12 108t-85 39q-59 0 -131 -40l-16 68q87 50 185 50q95 0 138.5 -69t11.5 -186q-31 -117 -112 -187.5t-174 -70.5zM254 67q51 0 93.5 36t67.5 104h-237q-19 -68 1 -104t75 -36z" />
<glyph unicode="&#x4e2;" horiz-adv-x="662" d="M86 0l176 655h100l-83 -309q-16 -57 -71 -217h4l106 136l326 389h107l-176 -655h-100l84 312q9 34 70 214h-4l-106 -136l-326 -389h-107zM392 737l18 67h278l-18 -67h-278z" />
<glyph unicode="&#x4e3;" horiz-adv-x="570" d="M77 0l131 489h97l-49 -184q-14 -51 -57 -178h4q10 12 43 49.5t46 54.5l238 258h93l-131 -489h-97l49 184q12 45 57 179h-4q-12 -14 -44.5 -51.5t-44.5 -52.5l-239 -259h-92zM311 599l18 67h274l-18 -67h-274z" />
<glyph unicode="&#x4e6;" horiz-adv-x="670" d="M332 -12q-127 0 -181 93t-12 250q41 156 143.5 246.5t230.5 90.5t182.5 -91t13.5 -246q-42 -157 -146 -250t-231 -93zM355 76q82 0 150 69.5t99 185.5q31 115 -0.5 181.5t-113.5 66.5t-148.5 -66.5t-97.5 -181.5q-31 -116 -1 -185.5t112 -69.5zM421 711h-1 q-24 0 -35.5 16t-4.5 39q6 24 26 39.5t44 15.5t35 -15.5t5 -39.5q-7 -24 -26 -39.5t-43 -15.5zM630 711q-24 0 -35.5 16t-4.5 39q6 24 25.5 39.5t43.5 15.5t35.5 -15.5t5.5 -39.5q-7 -24 -26.5 -39.5t-43.5 -15.5z" />
<glyph unicode="&#x4e7;" horiz-adv-x="546" d="M270 -12h1q-95 0 -144 69.5t-18 186.5q32 118 117.5 188t180.5 70t144 -70t17 -188q-31 -117 -116.5 -186.5t-180.5 -69.5h-1zM293 70q58 0 105 47.5t68 126.5t-0.5 127t-79.5 48t-105 -48t-68 -127q-21 -78 0.5 -126t79.5 -48zM330 582q-25 0 -36.5 16.5t-4.5 39.5 q6 24 26.5 40t44.5 16t35.5 -16.5t5.5 -39.5q-7 -24 -27 -40t-44 -16zM529 582q-24 0 -35.5 16.5t-4.5 39.5q6 23 26 39.5t44 16.5t36 -16t6 -40q-7 -24 -27.5 -40t-44.5 -16z" />
<glyph unicode="&#x4e8;" horiz-adv-x="670" d="M332 -12q-129 0 -182.5 90.5t-10.5 252.5q43 161 144 249t230 88t184 -88.5t12 -248.5q-43 -162 -145.5 -252.5t-231.5 -90.5zM355 72q80 0 144.5 60t100.5 170h-367q-24 -110 9 -170t113 -60zM257 384h363q16 94 -18.5 146t-109.5 52t-136.5 -51.5t-98.5 -146.5z" />
<glyph unicode="&#x4e9;" horiz-adv-x="546" d="M270 -12q-98 0 -146 67.5t-16 188.5q32 122 116 190t182 68t146 -68t16 -190q-32 -121 -116.5 -188.5t-181.5 -67.5zM290 66q57 0 104 40t71 112h-268q-13 -72 11.5 -112t81.5 -40zM217 288h265q7 65 -18.5 101t-78.5 36t-97 -36t-71 -101z" />
<glyph unicode="&#x4ee;" horiz-adv-x="525" d="M139 -12l-1 -1q-40 0 -67 11l44 90q16 -7 42 -7q55 0 91 47l21 31l-90 496h108l39 -264l14 -136h4l85 136l171 264h102l-353 -528q-94 -139 -210 -139zM317 730l18 67h278l-18 -67h-278z" />
<glyph unicode="&#x4ef;" horiz-adv-x="482" d="M44 -205l1 1q-32 0 -57 10l39 78q21 -7 35 -7q73 0 128 93l19 33l-64 486h102l23 -254q3 -38 7 -138h4q40 72 76 138l147 254h97l-319 -519q-53 -86 -109 -130.5t-129 -44.5zM274 599l18 67h274l-18 -67h-274z" />
<glyph unicode="&#x4f2;" horiz-adv-x="525" d="M139 -12l-1 -1q-40 0 -67 11l44 90q16 -7 42 -7q55 0 91 47l21 31l-90 496h108l39 -264l14 -136h4l85 136l171 264h102l-353 -528q-94 -139 -210 -139zM343 724l136 155l56 -38l-148 -142zM511 725l136 155l56 -38l-148 -142z" />
<glyph unicode="&#x4f3;" horiz-adv-x="482" d="M44 -205l1 1q-32 0 -57 10l39 78q21 -7 35 -7q73 0 128 93l19 33l-64 486h102l23 -254q3 -38 7 -138h4q40 72 76 138l147 254h97l-319 -519q-53 -86 -109 -130.5t-129 -44.5zM352 568l-47 25l133 174l61 -32zM511 568l-48 25l134 174l60 -32z" />
<glyph unicode="&#x60c;" horiz-adv-x="263" d="M273 295l7 -56q-51 -19 -85 -50.5t-44 -71.5q3 1 9 1q28 0 43 -17.5t7 -47.5q-7 -29 -32 -47t-54 -18q-37 0 -50 29t1 80q19 69 71 120.5t127 77.5z" />
<glyph unicode="&#x61b;" horiz-adv-x="263" d="M367 646l9 -56q-51 -19 -85 -50.5t-44 -70.5h8q28 0 43 -17.5t7 -47.5q-8 -29 -33 -47t-54 -18q-37 0 -50 29t1 80q19 69 71 120.5t127 77.5zM167 130q29 0 43 -20t6 -50q-8 -31 -33 -51.5t-54 -20.5q-28 0 -42 20.5t-6 51.5q8 30 33 50t53 20z" />
<glyph unicode="&#x61f;" horiz-adv-x="436" d="M333 207h-88q10 25 11.5 47t-5.5 44t-13 35t-20 37q-11 19 -15 27t-11.5 26t-9 30t-1.5 30t5 36q20 77 79 120t138 43q101 0 154 -86l-71 -52q-34 55 -94 55q-42 0 -72 -24.5t-40 -63.5q-3 -12 -3 -25t1.5 -22t8 -23.5t10 -20.5t12.5 -23q14 -26 20.5 -40t14 -40t4.5 -53 t-15 -57zM228 -14q-29 0 -43 20t-7 50q9 31 34 51.5t54 20.5t42.5 -20.5t4.5 -51.5q-7 -30 -31.5 -50t-53.5 -20zM333 207l-1 -2q0 1 0.5 1t0.5 1z" />
<glyph unicode="&#x620;" d="M-54 -200h1000l268 1000h-1000z" />
<glyph unicode="&#x621;" horiz-adv-x="447" d="M426 253l-26 -97h-89l13 -63v-2q1 -2 1 -3q8 -36 -16 -61q-26 -27 -65 -27h-155l26 98h100l-13 61v1q-13 38 18 68q26 24 66 24z" />
<glyph unicode="&#x622;" d="M-54 -200h1000l268 1000h-1000z" />
<glyph unicode="&#x623;" d="M-54 -200h1000l268 1000h-1000z" />
<glyph unicode="&#x624;" d="M-54 -200h1000l268 1000h-1000z" />
<glyph unicode="&#x625;" d="M-54 -200h1000l268 1000h-1000z" />
<glyph unicode="&#x626;" d="M-54 -200h1000l268 1000h-1000z" />
<glyph unicode="&#x627;" d="M-54 -200h1000l268 1000h-1000z" />
<glyph unicode="&#x628;" d="M-54 -200h1000l268 1000h-1000z" />
<glyph unicode="&#x629;" d="M-54 -200h1000l268 1000h-1000z" />
<glyph unicode="&#x62a;" d="M-54 -200h1000l268 1000h-1000z" />
<glyph unicode="&#x62b;" d="M-54 -200h1000l268 1000h-1000z" />
<glyph unicode="&#x62c;" d="M-54 -200h1000l268 1000h-1000z" />
<glyph unicode="&#x62d;" d="M-54 -200h1000l268 1000h-1000z" />
<glyph unicode="&#x62e;" d="M-54 -200h1000l268 1000h-1000z" />
<glyph unicode="&#x62f;" d="M-54 -200h1000l268 1000h-1000z" />
<glyph unicode="&#x630;" d="M-54 -200h1000l268 1000h-1000z" />
<glyph unicode="&#x631;" d="M-54 -200h1000l268 1000h-1000z" />
<glyph unicode="&#x632;" d="M-54 -200h1000l268 1000h-1000z" />
<glyph unicode="&#x633;" d="M-54 -200h1000l268 1000h-1000z" />
<glyph unicode="&#x634;" d="M-54 -200h1000l268 1000h-1000z" />
<glyph unicode="&#x635;" d="M-54 -200h1000l268 1000h-1000z" />
<glyph unicode="&#x636;" d="M-54 -200h1000l268 1000h-1000z" />
<glyph unicode="&#x637;" d="M-54 -200h1000l268 1000h-1000z" />
<glyph unicode="&#x638;" d="M-54 -200h1000l268 1000h-1000z" />
<glyph unicode="&#x639;" d="M-54 -200h1000l268 1000h-1000z" />
<glyph unicode="&#x63a;" d="M-54 -200h1000l268 1000h-1000z" />
<glyph unicode="&#x63b;" d="M-54 -200h1000l268 1000h-1000z" />
<glyph unicode="&#x63c;" d="M-54 -200h1000l268 1000h-1000z" />
<glyph unicode="&#x63d;" d="M-54 -200h1000l268 1000h-1000z" />
<glyph unicode="&#x63e;" d="M-54 -200h1000l268 1000h-1000z" />
<glyph unicode="&#x63f;" d="M-54 -200h1000l268 1000h-1000z" />
<glyph unicode="&#x640;" horiz-adv-x="258" d="M275 0l26 98h-275l-26 -98h275z" />
<glyph unicode="&#x641;" d="M-54 -200h1000l268 1000h-1000z" />
<glyph unicode="&#x642;" d="M-54 -200h1000l268 1000h-1000z" />
<glyph unicode="&#x643;" d="M-54 -200h1000l268 1000h-1000z" />
<glyph unicode="&#x644;" d="M-54 -200h1000l268 1000h-1000z" />
<glyph unicode="&#x645;" d="M-54 -200h1000l268 1000h-1000z" />
<glyph unicode="&#x646;" d="M-54 -200h1000l268 1000h-1000z" />
<glyph unicode="&#x647;" d="M-54 -200h1000l268 1000h-1000z" />
<glyph unicode="&#x648;" d="M-54 -200h1000l268 1000h-1000z" />
<glyph unicode="&#x649;" d="M-54 -200h1000l268 1000h-1000z" />
<glyph unicode="&#x64a;" d="M-54 -200h1000l268 1000h-1000z" />
<glyph unicode="&#x64b;" horiz-adv-x="0" d="M-125 -2q0 25 25 33l218 72q11 4 19.5 -0.5t9.5 -14.5q0 -25 -24 -32l-218 -73q-11 -4 -20 0.5t-10 14.5zM-125 106q0 25 25 33l218 72q11 4 19.5 -0.5t9.5 -14.5q0 -25 -24 -32l-218 -73q-11 -4 -20 0.5t-10 14.5z" />
<glyph unicode="&#x64c;" horiz-adv-x="0" d="M13 41l-3 37q-2 27 17 52.5t47 33.5q42 11 70 -7.5t32 -50.5q2 -24 -13 -46.5t-45 -32.5l-155 -51q-34 -12 -62.5 1t-30.5 47l-4 41q-2 24 24 33q11 4 19 -0.5t9 -14.5l4 -42q0 -12 11 -17t25 0zM65 59l48 16q11 4 11 13q-2 11 -14.5 20t-31.5 6q-17 -2 -16 -20z" />
<glyph unicode="&#x64d;" horiz-adv-x="0" d="M-125 -239q0 25 25 33l218 72q11 4 19.5 -0.5t9.5 -14.5q0 -25 -24 -32l-218 -73q-11 -4 -20 0.5t-10 14.5zM-125 -131q0 25 25 33l218 72q11 4 19.5 -0.5t9.5 -14.5q0 -25 -24 -32l-218 -73q-11 -4 -20 0.5t-10 14.5z" />
<glyph unicode="&#x64e;" horiz-adv-x="0" d="M-125 -1q0 25 25 33l218 72q11 4 19.5 -0.5t9.5 -14.5q0 -25 -24 -32l-218 -73q-11 -4 -20 0.5t-10 14.5z" />
<glyph unicode="&#x64f;" horiz-adv-x="0" d="M-18 46l-2 37q-2 27 17 53t47 34q42 11 70 -7.5t31 -50.5q2 -23 -13.5 -46t-44.5 -33l-189 -62q-11 -4 -19 0.5t-9 14.5q-1 11 6 20t17 12zM34 65l48 16q10 3 10 12q-1 12 -13.5 21.5t-32.5 6.5q-17 -5 -16 -21z" />
<glyph unicode="&#x650;" horiz-adv-x="0" d="M-125 -131q0 25 25 33l218 72q11 4 19.5 -0.5t9.5 -14.5q0 -25 -24 -32l-218 -73q-11 -4 -20 0.5t-10 14.5z" />
<glyph unicode="&#x651;" horiz-adv-x="0" d="M-97 112q3 11 12.5 18.5t19.5 7.5q11 0 16 -7.5t2 -18.5l-26 -96l58 18l26 96q7 26 33 26q11 0 17 -7.5t3 -18.5l-22 -79q5 3 10 5l50 16l23 95q7 26 31 26q11 0 16.5 -7.5t2.5 -18.5l-26 -99q-9 -34 -48 -47l-45 -15q-19 -5 -27 9q-14 -22 -46 -32l-57 -18q-9 -2 -13 -1 q-24 -2 -32 11q-7 10 -2 34v2z" />
<glyph unicode="&#x652;" horiz-adv-x="0" d="M-91 78q12 46 53.5 79t88.5 33q46 0 70 -32.5t12 -79.5q-13 -47 -55 -80t-88 -33t-70 33t-11 80zM-41 78q-7 -26 6 -44t39 -18t49 18t30 44t-6.5 44t-39.5 18t-48.5 -18t-29.5 -44z" />
<glyph unicode="&#x653;" horiz-adv-x="0" d="M-110 -13h-65l14 53q8 30 34 49.5t56 19.5h239l-17 -65h-246z" />
<glyph unicode="&#x654;" horiz-adv-x="0" d="M143 176l-17 -65h-67l10 -48v-2q5 -27 -11 -44q-17 -18 -44 -18h-110l17 65h75l-11 48q-8 27 12 47q19 17 45 17h101z" />
<glyph unicode="&#x655;" horiz-adv-x="0" d="M143 0l-17 -65h-67l10 -48v-2q5 -27 -11 -44q-17 -18 -44 -18h-110l17 65h75l-11 48q-8 27 12 47q19 17 45 17h101z" />
<glyph unicode="&#x656;" horiz-adv-x="0" d="M-37 -182l52 194h73l-36 -134q-7 -25 -34.5 -42.5t-54.5 -17.5zM-37 -183v1v-1z" />
<glyph unicode="&#x657;" horiz-adv-x="0" d="M18 90l20 -31q16 -22 13 -53.5t-24 -53.5q-35 -30 -66.5 -28t-50.5 28q-14 17 -12 45.5t23 52.5l132 147q8 9 17 9.5t15 -8.5q15 -20 -4 -39zM-17 48l-34 -39q-8 -8 -3 -15q6 -10 21 -11.5t32 10.5q13 13 3 25z" />
<glyph unicode="&#x658;" horiz-adv-x="0" d="M-91 78l11 41h50l-11 -41q-7 -26 6 -44t39 -18t49 18t30 44h50q-13 -47 -55 -80t-88 -33t-70 33t-11 80z" />
<glyph unicode="&#x659;" horiz-adv-x="0" d="M-119 44q3 11 12.5 18.5t20.5 7.5l210 -1q12 0 18 -6.5t3 -17.5t-12.5 -18.5t-20.5 -7.5h-211q-11 0 -17 7t-2 18h-1z" />
<glyph unicode="&#x65a;" horiz-adv-x="0" d="M-50 0l-74 138l50 38l92 -107h4l148 107l31 -38l-150 -138h-101z" />
<glyph unicode="&#x65b;" horiz-adv-x="0" d="M-152 38l148 137h101l76 -137l-51 -38l-91 107h-4l-149 -107z" />
<glyph unicode="&#x65c;" horiz-adv-x="0" d="M-51 0q5 22 23.5 36.5t40.5 14.5t32.5 -14.5t5.5 -36.5t-23.5 -36.5t-40.5 -14.5t-32.5 14.5t-5.5 36.5z" />
<glyph unicode="&#x65d;" horiz-adv-x="0" d="M44 46l70 -28q10 -3 11.5 -12.5t-4.5 -19.5q-5 -10 -16 -14.5t-20 -0.5l-154 62q-24 10 -27.5 34t11.5 45q20 32 58 50.5t76 7.5q24 -8 28.5 -34t-12.5 -53zM-1 65l21 35q11 16 -5 21q-18 3 -35.5 -6.5t-24.5 -21.5q-6 -8 4 -12z" />
<glyph unicode="&#x65e;" horiz-adv-x="0" d="M-117 -43q-8 23 12 38l180 142q9 7 19 6t14 -10q9 -22 -12 -38l-179 -143q-9 -7 -18.5 -6t-14.5 10zM-131 96q4 19 20 31.5t35 12.5t28.5 -12.5t4.5 -31.5t-21 -31.5t-35 -12.5t-28 12.5t-4 31.5zM23 -14q4 19 20 31.5t35 12.5t28.5 -12.5t4.5 -31.5t-21 -31.5t-35 -12.5 t-28 12.5t-4 31.5z" />
<glyph unicode="&#x65f;" horiz-adv-x="0" d="M144 -1l-17 -65h-67l10 -48v-2q6 -28 -11 -44q-17 -18 -44 -18h-73l1 2h-11q-45 0 -61 35q-10 18 -15 19q-6 0 -15.5 -14.5t-15.5 -39.5h-64q13 53 42.5 86.5t67.5 33.5t55 -32q13 -24 25 -24h17v-1h29l-11 48q-8 27 12 47q19 17 45 17h101z" />
<glyph unicode="&#x660;" horiz-adv-x="351" d="M195 329q8 28 33.5 48t53.5 20t42.5 -20t6.5 -48t-33 -48t-53 -20t-43.5 20t-7.5 48h1z" />
<glyph unicode="&#x661;" horiz-adv-x="311" d="M279 642l-172 -642h98l172 642h-98z" />
<glyph unicode="&#x662;" horiz-adv-x="412" d="M149 0h-97l144 540q11 43 48.5 72.5t79.5 29.5h207l-26 -98h-212z" />
<glyph unicode="&#x663;" horiz-adv-x="581" d="M224 642h97l-47 -176h92l47 176h98l-46 -173q0 -1 -0.5 -2.5t-0.5 -2.5h93l46 176h98l-46 -173q-11 -42 -49 -71.5t-80 -29.5h-95l19 68q-19 -30 -50 -48t-64 -18h-88l-99 -368h-97z" />
<glyph unicode="&#x664;" horiz-adv-x="464" d="M447 644l36 -79l-184 -113l88 -74q16 -16 12.5 -39.5t-23.5 -43.5l-189 -196l252 -1l-26 -97l-283 1q-30 0 -48 20.5t-10 50.5q10 40 65 95l146 152l-71 61q-36 34 -21.5 75t66.5 73z" />
<glyph unicode="&#x665;" horiz-adv-x="573" d="M531 601q55 -42 70 -146.5t-13 -206.5q-13 -50 -37 -95t-60 -84t-89.5 -62t-117.5 -23q-120 -1 -159 73t-5 197q29 104 99 204t140 139q47 26 92.5 27t78.5 -23h1zM456 517q-26 20 -67 -2q-41 -23 -93.5 -103.5t-76.5 -160.5q-53 -172 89 -172q136 0 180 168q20 89 8 169 t-41 100z" />
<glyph unicode="&#x666;" horiz-adv-x="472" d="M198 543l26 97h266q42 0 63.5 -29.5t10.5 -71.5l-144 -539h-97l145 542z" />
<glyph unicode="&#x667;" horiz-adv-x="585" d="M612 646l88 -25l-306 -579q-27 -50 -86 -52q-25 0 -41.5 13.5t-17.5 37.5l-31 578l101 30l26 -508z" />
<glyph unicode="&#x668;" horiz-adv-x="585" d="M437 -9l3 506l-299 -509l-84 30l339 578q14 24 38 37.5t49 13.5q27 -1 42.5 -15t15.5 -37l-4 -579z" />
<glyph unicode="&#x669;" horiz-adv-x="481" d="M408 286q-1 0 -2.5 -0.5t-2.5 -0.5q-47 -1 -90 -1t-80.5 20t-53.5 62q-26 71 15.5 147.5t111.5 111.5q42 24 92 29t94.5 -15.5t62.5 -65.5q15 -41 0 -99l-127 -474h-97zM433 382l25 92q8 29 -3 49q-14 26 -54.5 30t-68.5 -14q-30 -15 -49.5 -51t-7.5 -72q9 -19 27.5 -27 t47 -8t68.5 1h15z" />
<glyph unicode="&#x66a;" horiz-adv-x="530" d="M41 -12l542 680h83l-542 -680h-83zM448 57q8 28 33.5 48t53.5 20t42.5 -20t6.5 -48t-33 -48t-53 -20t-43.5 20t-7.5 48h1zM121 599q8 28 33.5 48t53.5 20t42.5 -20t6.5 -48t-33 -48t-53 -20t-43.5 20t-7.5 48h1z" />
<glyph unicode="&#x66b;" horiz-adv-x="313" d="M206 99h73l-35 -135q-14 -52 -59 -90.5t-101 -38.5h-68l20 72h68q23 0 41.5 15.5t25.5 41.5z" />
<glyph unicode="&#x66c;" horiz-adv-x="313" d="M107 391h-73l35 135q14 52 59 90.5t101 38.5h68l-20 -72h-68q-23 0 -41.5 -15.5t-25.5 -41.5z" />
<glyph unicode="&#x66e;" d="M-54 -200h1000l268 1000h-1000z" />
<glyph unicode="&#x66f;" d="M-54 -200h1000l268 1000h-1000z" />
<glyph unicode="&#x670;" horiz-adv-x="0" d="M-37 -1l52 194h73l-36 -134q-7 -25 -34.5 -42.5t-54.5 -17.5zM-37 -2v1v-1z" />
<glyph unicode="&#x671;" d="M-54 -200h1000l268 1000h-1000z" />
<glyph unicode="&#x672;" d="M-54 -200h1000l268 1000h-1000z" />
<glyph unicode="&#x673;" d="M-54 -200h1000l268 1000h-1000z" />
<glyph unicode="&#x674;" horiz-adv-x="447" d="M426 514l-26 -97h-89l13 -63v-2q1 -2 1 -3q8 -36 -16 -61q-26 -27 -65 -27h-155l26 98h100l-13 61v1q-13 38 18 68q26 24 66 24z" />
<glyph unicode="&#x675;" d="M-54 -200h1000l268 1000h-1000z" />
<glyph unicode="&#x676;" d="M-54 -200h1000l268 1000h-1000z" />
<glyph unicode="&#x677;" d="M-54 -200h1000l268 1000h-1000z" />
<glyph unicode="&#x678;" d="M-54 -200h1000l268 1000h-1000z" />
<glyph unicode="&#x679;" d="M-54 -200h1000l268 1000h-1000z" />
<glyph unicode="&#x67a;" d="M-54 -200h1000l268 1000h-1000z" />
<glyph unicode="&#x67b;" d="M-54 -200h1000l268 1000h-1000z" />
<glyph unicode="&#x67c;" d="M-54 -200h1000l268 1000h-1000z" />
<glyph unicode="&#x67d;" d="M-54 -200h1000l268 1000h-1000z" />
<glyph unicode="&#x67e;" d="M-54 -200h1000l268 1000h-1000z" />
<glyph unicode="&#x67f;" d="M-54 -200h1000l268 1000h-1000z" />
<glyph unicode="&#x680;" d="M-54 -200h1000l268 1000h-1000z" />
<glyph unicode="&#x681;" d="M-54 -200h1000l268 1000h-1000z" />
<glyph unicode="&#x682;" d="M-54 -200h1000l268 1000h-1000z" />
<glyph unicode="&#x683;" d="M-54 -200h1000l268 1000h-1000z" />
</font>
</defs>
</svg>
