<svg xmlns="http://www.w3.org/2000/svg" xmlns:xlink="http://www.w3.org/1999/xlink" version="1.1"><metadata/><defs><font id="madaextralight" horiz-adv-x="966"><font-face ascent="1638" descent="-410" units-per-em="2048"/><glyph horiz-adv-x="0"/><glyph horiz-adv-x="682"/><glyph horiz-adv-x="409"/><glyph horiz-adv-x="409"/><glyph horiz-adv-x="409"/><glyph d="M180 53q0 38 22 60t52 22t52 -22t22 -60q0 -35 -22.5 -56.5t-51.5 -21.5t-51.5 21.5t-22.5 56.5zM221 1245v127h66v-127l-8 -893h-50z" horiz-adv-x="507" unicode="!"/><glyph d="M172 1298v123h78v-123l-12 -286h-54zM434 1298v123h78v-123l-12 -286h-54z" horiz-adv-x="688" unicode="&quot;"/><glyph d="M74 446v58h180l45 364h-184v58h188l53 405h58l-54 -405h320l53 405h58l-54 -405h168v-58h-172l-45 -364h176v-58h-184l-53 -446h-58l54 446h-320l-53 -446h-57l53 446h-172zM311 504h320l45 364h-320z" unicode="#"/><glyph d="M127 135l37 45q155 -147 336 -147q132 0 205 73t73 193q0 87 -33 152.5t-85.5 106t-116.5 74t-128 66.5t-116.5 72.5t-85.5 104t-33 149.5q0 126 81.5 212t205.5 97v203h61v-201q91 -5 154.5 -41.5t124.5 -101.5l-41 -41q-67 67 -123.5 97t-146.5 30q-109 0 -179.5 -72 t-70.5 -178q0 -61 20.5 -109t55 -81t79.5 -60.5t94.5 -51.5t99 -49t94.5 -58.5t79.5 -74.5t55 -102.5t20.5 -138.5q0 -142 -89.5 -230.5t-226.5 -97.5v-200h-61v202q-187 13 -340 158z" unicode="$"/><glyph d="M86 954q0 201 75 311.5t208 110.5t207.5 -110.5t74.5 -311.5q0 -204 -74.5 -315t-207.5 -111t-208 111t-75 315zM147 954q0 -174 60 -273t162 -99t161.5 99t59.5 273q0 173 -59.5 271t-161.5 98t-162 -98t-60 -271zM401 -25l758 1401h66l-758 -1401h-66zM983 401 q0 201 75 311.5t208 110.5t207.5 -110.5t74.5 -311.5q0 -204 -74.5 -315t-207.5 -111t-208 111t-75 315zM1044 401q0 -174 60 -273t162 -99t161.5 99t59.5 273q0 173 -59.5 271t-161.5 98t-162 -98t-60 -271z" horiz-adv-x="1634" unicode="%"/><glyph d="M78 340q0 62 22 118.5t66 108t86 88.5t106 86q-92 189 -92 340q0 129 74.5 212t191.5 83q101 0 157 -66t56 -171q0 -36 -10.5 -71.5t-23 -62.5t-42.5 -62t-48 -54.5t-61.5 -55.5t-61.5 -50t-68 -52q69 -133 172 -262.5t215 -232.5q146 182 223 464h62q-86 -305 -242 -501 q141 -118 266 -166l-24 -58q-130 49 -281 177q-167 -177 -362 -177q-159 0 -270 100.5t-111 264.5zM143 344q0 -137 93.5 -224t226.5 -87q165 0 315 157q-254 237 -395 504q-115 -89 -177.5 -170t-62.5 -180zM328 1085q0 -134 80 -307q54 41 84 65t72.5 63.5t64.5 71 t38.5 73t16.5 84.5q0 77 -38 130.5t-118 53.5q-92 0 -146 -67.5t-54 -166.5z" horiz-adv-x="1150" unicode="&amp;"/><glyph d="M172 1298v123h78v-123l-12 -286h-54z" horiz-adv-x="425" unicode="'"/><glyph d="M184 569q0 490 271 926l37 -25q-123 -193 -186.5 -423.5t-63.5 -477.5t63.5 -477.5t186.5 -423.5l-37 -24q-271 436 -271 925z" horiz-adv-x="552" unicode="("/><glyph d="M61 -332q123 193 186.5 423.5t63.5 477.5t-63.5 477.5t-186.5 423.5l37 25q271 -436 271 -926q0 -489 -271 -925z" horiz-adv-x="552" unicode=")"/><glyph d="M152 1257l16 50l188 -54l13 205h53l12 -201l189 50l16 -50l-180 -69l110 -176l-45 -33l-127 168l-131 -168l-45 33l111 176z" horiz-adv-x="790" unicode="*"/><glyph d="M70 647v58h381v417h65v-417h381v-58h-381v-418h-65v418h-381z" unicode="+"/><glyph d="M98 -258q67 39 107 102t41 146q-8 -2 -25 -2q-32 0 -53 19t-21 54t22 54.5t52 19.5q40 0 65 -34.5t25 -92.5q0 -99 -51.5 -180.5t-136.5 -134.5z" horiz-adv-x="425" unicode=","/><glyph d="M82 479v62h442v-62h-442z" horiz-adv-x="602" unicode="-"/><glyph d="M139 53q0 38 22 60t52 22t52 -22t22 -60q0 -35 -22.5 -56.5t-51.5 -21.5t-51.5 21.5t-22.5 56.5z" horiz-adv-x="425" unicode="."/><glyph d="M16 -328l656 1782h61l-655 -1782h-62z" horiz-adv-x="737" unicode="/"/><glyph d="M102 659q0 326 98.5 501t282.5 175t282.5 -175t98.5 -501q0 -327 -98.5 -505.5t-282.5 -178.5t-282.5 178.5t-98.5 505.5zM168 659q0 -300 84 -463t231 -163t231.5 163t84.5 463q0 299 -84.5 459t-231.5 160t-231 -159.5t-84 -459.5z" unicode="0"/><glyph d="M176 0v57h311v1131h-233v45q147 23 242 78h53v-1254h291v-57h-664z" unicode="1"/><glyph d="M82 1143q170 192 364 192q170 0 265.5 -97.5t95.5 -262.5q0 -55 -15.5 -113t-38.5 -110.5t-69 -119.5t-87.5 -121t-114.5 -136t-130 -143.5t-153 -162.5q-13 -13 -19 -20q148 8 221 8h471v-57h-786v41q147 151 240 251.5t180 205t133.5 181t74 152t27.5 144.5 q0 134 -75 218.5t-224 84.5q-88 0 -169 -47.5t-146 -128.5z" unicode="2"/><glyph d="M61 160l41 45q71 -78 158 -125t215 -47q139 0 229.5 85t90.5 222q0 148 -116 233.5t-355 85.5v62q219 0 320 82.5t101 216.5q0 117 -76 187.5t-202 70.5q-88 0 -167.5 -41t-139.5 -107l-41 46q159 159 348 159q149 0 246.5 -83.5t97.5 -227.5q0 -125 -69.5 -207.5 t-184.5 -120.5v-8q130 -26 216.5 -117.5t86.5 -226.5q0 -166 -110 -267.5t-279 -101.5q-98 0 -182 30.5t-131 66.5t-97 88z" unicode="3"/><glyph d="M33 401v33l626 877h41v-852h201v-58h-201v-401h-61v401h-606zM119 459h520v516q0 103 8 217h-8q-17 -28 -53.5 -79t-53.5 -77z" unicode="4"/><glyph d="M53 152l41 45q72 -76 157 -120t212 -44q139 0 239.5 105.5t100.5 267.5q0 165 -91 260.5t-245 95.5q-71 0 -127 -22.5t-123 -67.5l-53 33l49 606h586v-58h-529l-45 -503q119 73 246 73q176 0 286.5 -104t110.5 -309q0 -101 -35 -185t-93 -137.5t-130.5 -83t-150.5 -29.5 q-74 0 -138 15t-114 43.5t-83.5 55t-70.5 63.5z" unicode="5"/><glyph d="M111 590q0 162 25.5 290.5t69.5 212.5t105.5 139.5t129 79t145.5 23.5q152 0 262 -123l-41 -45q-88 111 -225 111q-84 0 -154.5 -36t-128 -113t-90 -211.5t-33.5 -317.5q71 87 159 136.5t181 49.5q173 0 267 -104.5t94 -300.5q0 -172 -103 -289t-246 -117 q-197 0 -307 162t-110 453zM178 522q11 -225 99.5 -357t254.5 -132q119 0 199 101t80 247q0 158 -73.5 253t-225.5 95q-78 0 -166 -50.5t-168 -156.5z" unicode="6"/><glyph d="M90 1253v58h791v-37q-117 -157 -195 -303t-125 -302t-68.5 -311.5t-29.5 -357.5h-70q15 401 107.5 685.5t294.5 567.5h-705z" unicode="7"/><glyph d="M82 336q0 85 42.5 162.5t99 127.5t124.5 87v8q-188 122 -188 299q0 136 96 225.5t236 89.5q162 0 255 -95.5t93 -244.5q0 -99 -59 -190t-130 -150v-8q40 -25 67 -44.5t61 -51.5t54 -63.5t34 -76.5t14 -96q0 -144 -108.5 -242t-280.5 -98q-178 0 -294 103t-116 258z M147 336q0 -128 98 -215.5t247 -87.5q145 0 234 81t89 201q0 73 -28.5 129t-99 101.5t-116.5 67t-152 62.5q-7 3 -12 5l-10 4q-250 -143 -250 -348zM225 1020q0 -41 12 -77.5t28.5 -64t48.5 -54.5t57.5 -44.5t70 -39t72 -33t76.5 -31.5q184 145 184 319q0 119 -76 201 t-206 82q-116 0 -191.5 -73.5t-75.5 -184.5z" unicode="8"/><glyph d="M90 930q0 172 102.5 288.5t245.5 116.5q197 0 307.5 -161.5t110.5 -452.5q0 -162 -25.5 -291t-69.5 -213t-105.5 -139.5t-129 -79t-145.5 -23.5q-157 0 -262 123l41 45q88 -110 225 -110q84 0 154.5 36t128 113t90 211.5t33.5 317.5q-71 -87 -159 -137t-181 -50 q-172 0 -266.5 105t-94.5 301zM156 930q0 -158 73.5 -253t225.5 -95q79 0 166 50t167 156q-11 225 -99.5 357.5t-254.5 132.5q-119 0 -198.5 -101t-79.5 -247z" unicode="9"/><glyph d="M139 53q0 38 22 60t52 22t52 -22t22 -60q0 -35 -22.5 -56.5t-51.5 -21.5t-51.5 21.5t-22.5 56.5zM139 852q0 38 22 60t52 22t52 -22t22 -60q0 -35 -22.5 -56.5t-51.5 -21.5t-51.5 21.5t-22.5 56.5z" horiz-adv-x="425" unicode=":"/><glyph d="M98 -258q67 39 107 102t41 146q-8 -2 -25 -2q-32 0 -53 19t-21 54t22 54.5t52 19.5q40 0 65 -34.5t25 -92.5q0 -99 -51.5 -180.5t-136.5 -134.5zM139 852q0 38 22 60t52 22t52 -22t22 -60q0 -35 -22.5 -56.5t-51.5 -21.5t-51.5 21.5t-22.5 56.5z" horiz-adv-x="425" unicode=";"/><glyph d="M70 643v74l827 332v-66l-491 -192l-271 -107v-8l271 -107l491 -192v-66z" unicode="&lt;"/><glyph d="M70 442v58h827v-58h-827zM70 852v57h827v-57h-827z" unicode="="/><glyph d="M70 311v66l491 192l270 107v8l-270 107l-491 192v66l827 -332v-74z" unicode="&gt;"/><glyph d="M74 1241q141 156 319 156q143 0 225 -88t82 -219q0 -47 -11 -90t-37.5 -89.5t-45 -73.5t-57.5 -79q-44 -58 -66.5 -91t-51.5 -88t-37.5 -110.5t-0.5 -116.5h-57q-4 28 -4.5 55t3 53t7.5 48t14 46t16.5 41.5t21 41.5t22.5 37.5t25.5 37.5t25.5 35t27 35q48 62 71.5 97 t46.5 92.5t23 113.5q0 107 -62.5 180.5t-183.5 73.5q-77 0 -149.5 -35.5t-124.5 -99.5zM299 53q0 38 22 60t52 22t51.5 -22t21.5 -60q0 -35 -22 -56.5t-51 -21.5t-51.5 21.5t-22.5 56.5z" horiz-adv-x="806" unicode="?"/><glyph d="M106 414q0 155 42.5 293t117.5 242.5t175 181t219 116t245 39.5q290 0 460.5 -174.5t170.5 -464.5q0 -123 -33.5 -226.5t-87.5 -167.5t-117.5 -99t-126.5 -35q-83 0 -134.5 39t-57.5 116h-4q-136 -143 -250 -143q-98 0 -163.5 71.5t-65.5 203.5q0 59 15.5 121.5t47.5 122 t76 106.5t105.5 75.5t131.5 28.5q111 0 172 -98h5l16 82h53l-69 -377q-72 -291 127 -291q50 0 102 31.5t96.5 89t72.5 148.5t28 198q0 269 -156 427.5t-418 158.5q-113 0 -221 -36.5t-200 -107.5t-162 -168t-110 -226t-40 -273q0 -297 169 -474t449 -177q185 0 349 102 l28 -49q-173 -111 -381 -111q-147 0 -271.5 48.5t-214 138t-140 222.5t-50.5 296zM557 410q0 -116 47.5 -169t124.5 -53q108 0 234 144l65 364q-39 61 -74.5 84t-85.5 23q-92 0 -165 -61.5t-109.5 -150t-36.5 -181.5z" horiz-adv-x="1642" unicode="@"/><glyph d="M20 0l484 1352h57l483 -1352h-69l-168 483h-551l-170 -483h-66zM276 541h510l-94 270q-110 315 -155 471h-9q-45 -156 -155 -471z" horiz-adv-x="1064" unicode="A"/><glyph d="M205 0v1352h352q207 0 322.5 -83t115.5 -245q0 -109 -55 -187t-158 -108v-8q139 -22 219 -106t80 -222q0 -191 -132.5 -292t-366.5 -101h-377zM270 57h287q219 0 339 82.5t120 249.5q0 151 -118.5 227t-340.5 76h-287v-635zM270 750h246q414 0 414 270q0 147 -99.5 210.5 t-302.5 63.5h-258v-544z" horiz-adv-x="1175" unicode="B"/><glyph d="M115 680q0 319 155 507.5t414 188.5q109 0 197 -45t147 -114l-41 -46q-124 144 -303 144q-232 0 -366 -171t-134 -464t133 -468t359 -175q105 0 189.5 42t162.5 130l41 -41q-81 -95 -176 -144t-221 -49q-250 0 -403.5 193.5t-153.5 511.5z" horiz-adv-x="1150" unicode="C"/><glyph d="M205 0v1352h303q154 0 270.5 -48t189.5 -138t109.5 -211.5t36.5 -274.5t-36.5 -276t-109.5 -214t-189.5 -140.5t-270.5 -49.5h-303zM270 57h230q113 0 204 31t154 86t105 133t61.5 171t19.5 202q0 137 -31.5 247t-95.5 193t-170 128.5t-247 45.5h-230v-1237z" horiz-adv-x="1228" unicode="D"/><glyph d="M205 0v1352h725v-58h-660v-544h553v-58h-553v-635h680v-57h-745z" horiz-adv-x="1044" unicode="E"/><glyph d="M205 0v1352h721v-58h-656v-569h553v-57h-553v-668h-65z" horiz-adv-x="962" unicode="F"/><glyph d="M115 680q0 318 161 507t429 189q210 0 360 -159l-41 -46q-129 144 -319 144q-242 0 -381.5 -171t-139.5 -464q0 -294 135 -468.5t369 -174.5q99 0 185.5 29t138.5 81v447h-336v57h401v-524q-64 -70 -164.5 -111t-228.5 -41q-258 0 -413.5 192.5t-155.5 512.5z" horiz-adv-x="1228" unicode="G"/><glyph d="M205 0v1352h65v-602h758v602h66v-1352h-66v692h-758v-692h-65z" horiz-adv-x="1298" unicode="H"/><glyph d="M205 0v1352h65v-1352h-65z" horiz-adv-x="475" unicode="I"/><glyph d="M90 168l53 33q52 -88 116 -126t155 -38q129 0 191.5 80t62.5 248v987h65v-996q0 -83 -17.5 -150t-54.5 -120t-100.5 -82t-150.5 -29q-106 0 -188 50t-132 143z" horiz-adv-x="933" unicode="J"/><glyph d="M205 0v1352h65v-779h4l689 779h81l-434 -496l492 -856h-78l-463 807l-291 -328v-479h-65z" horiz-adv-x="1126" unicode="K"/><glyph d="M205 0v1352h65v-1295h635v-57h-700z" horiz-adv-x="942" unicode="L"/><glyph d="M205 0v1352h106l291 -820l111 -307h8q18 51 52.5 153.5t53.5 153.5l291 820h107v-1352h-66v942q0 130 8 352h-8l-104 -299l-305 -843h-70l-307 843l-107 299h-8q8 -222 8 -352v-942h-61z" horiz-adv-x="1429" unicode="M"/><glyph d="M205 0v1352h69l598 -992l156 -266h8q-8 262 -8 381v877h62v-1352h-70l-598 991l-156 266h-8q8 -254 8 -368v-889h-61z" horiz-adv-x="1294" unicode="N"/><glyph d="M115 680q0 316 153.5 506t395.5 190t395 -190t153 -506q0 -317 -153.5 -511t-394.5 -194q-119 0 -220.5 50.5t-174 141.5t-113.5 223.5t-41 289.5zM184 680q0 -291 132 -467t348 -176t347.5 176t131.5 467q0 290 -131.5 462.5t-347.5 172.5q-217 0 -348.5 -172.5 t-131.5 -462.5z" horiz-adv-x="1327" unicode="O"/><glyph d="M205 0v1352h323q240 0 362 -86.5t122 -282.5q0 -191 -122.5 -288t-352.5 -97h-267v-598h-65zM270 655h242q221 0 325.5 77.5t104.5 250.5t-104.5 242t-333.5 69h-234v-639z" horiz-adv-x="1110" unicode="P"/><glyph d="M115 680q0 316 153.5 506t395.5 190t395 -190t153 -506q0 -306 -143 -497.5t-371 -205.5q45 -107 137.5 -165t221.5 -58q65 0 135 17l16 -62q-82 -20 -155 -20q-158 0 -269.5 79t-160.5 209q-227 17 -367.5 208.5t-140.5 494.5zM184 680q0 -291 132 -469t348 -178 q215 0 347 177.5t132 469.5q0 290 -131.5 462.5t-347.5 172.5q-217 0 -348.5 -172.5t-131.5 -462.5z" horiz-adv-x="1327" unicode="Q"/><glyph d="M205 0v1352h373q434 0 434 -348q0 -159 -97 -252.5t-268 -108.5l385 -643h-78l-381 639h-303v-639h-65zM270 696h283q190 0 289.5 76.5t99.5 231.5t-97 222.5t-292 67.5h-283v-598z" horiz-adv-x="1093" unicode="R"/><glyph d="M98 180l45 45q75 -88 180 -138t226 -50q162 0 259 80.5t97 210.5q0 52 -14 94.5t-34 70.5t-57 54.5t-66 41.5t-79 38l-209 94q-43 19 -73.5 35t-71.5 46t-66.5 62.5t-44 81.5t-18.5 107q0 143 108 233t273 90q115 0 209.5 -44.5t159.5 -114.5l-41 -46q-131 144 -328 144 q-141 0 -228 -70.5t-87 -187.5q0 -40 10 -75t31 -62t40.5 -47t52 -38.5t51.5 -28t52 -24.5l209 -94q53 -24 88.5 -43.5t76.5 -51t65 -66t40.5 -84.5t16.5 -111q0 -156 -117 -256.5t-305 -100.5q-275 0 -451 205z" horiz-adv-x="1056" unicode="S"/><glyph d="M61 1294v58h943v-58h-439v-1294h-65v1294h-439z" horiz-adv-x="1064" unicode="T"/><glyph d="M201 504v848h65v-832q0 -109 20.5 -193.5t55 -138t84 -88.5t102.5 -49t115 -14q63 0 117.5 14t104.5 49t85.5 88.5t56.5 138t21 193.5v832h62v-848q0 -121 -26 -215t-68.5 -152t-102 -95.5t-120.5 -52t-130 -14.5t-129.5 14.5t-119.5 52t-100.5 95.5t-67 152t-25.5 215z" horiz-adv-x="1290" unicode="U"/><glyph d="M12 1352h70l262 -811q101 -320 148 -457h8q35 101 147 457l262 811h66l-447 -1352h-65z" horiz-adv-x="987" unicode="V"/><glyph d="M61 1352h70l180 -820l99 -442h8q43 193 106 442l221 820h74l221 -820l111 -442h8q17 73 47 220.5t47 221.5l181 820h65l-311 -1352h-66l-262 971q-13 53 -37.5 151.5t-36.5 151.5h-8q-12 -53 -39 -151.5t-39 -151.5l-258 -971h-65z" horiz-adv-x="1564" unicode="W"/><glyph d="M37 0l409 700l-380 652h69l238 -418q19 -31 53.5 -87.5t56.5 -92.5h9q76 137 102 180l237 418h66l-381 -656l410 -696h-70l-250 434q-4 8 -127 213h-8q-19 -35 -119 -213l-250 -434h-65z" horiz-adv-x="962" unicode="X"/><glyph d="M8 1352h70l217 -439q121 -241 147 -290h9q118 218 151 290l217 439h66l-406 -795v-557h-65v557z" horiz-adv-x="892" unicode="Y"/><glyph d="M106 0v37l803 1257h-733v58h815v-37l-803 -1258h811v-57h-893z" horiz-adv-x="1101" unicode="Z"/><glyph d="M205 -311v1761h311v-45h-262v-1671h262v-45h-311z" horiz-adv-x="552" unicode="["/><glyph d="M4 1454h62l655 -1782h-62z" horiz-adv-x="737" unicode="\"/><glyph d="M37 -266h262v1671h-262v45h311v-1761h-311v45z" horiz-adv-x="552" unicode="]"/><glyph d="M139 598l307 774h74l307 -774h-65l-168 438l-107 271h-8l-106 -271l-168 -438h-66z" unicode="^"/><glyph d="M25 -168h974v-65h-974v65z" horiz-adv-x="1024" unicode="_"/><glyph d="M332 1483l49 41l270 -316l-37 -32z" horiz-adv-x="1089" unicode="`"/><glyph d="M123 240q0 162 153 247.5t490 122.5v23q0 53 -8 98q-10 55 -34.5 106t-75.5 80t-124 29q-93 0 -177 -36t-142 -83l-33 50q65 48 157.5 87.5t198.5 39.5q83 0 143 -29.5t93 -82t48 -116t15 -141.5v-635h-53l-8 131h-4q-194 -156 -356 -156q-123 0 -203 66.5t-80 198.5z M188 242q0 -107 62 -158t160 -51q86 0 170 41t186 127v356q-213 -24 -341 -66.5t-182.5 -102.5t-54.5 -146z" horiz-adv-x="995" unicode="a"/><glyph d="M197 0v1479h61v-439l-4 -196q190 160 348 160q195 0 294 -133t99 -367q0 -121 -35 -222t-94.5 -167.5t-138 -103t-166.5 -36.5q-69 0 -148 33t-151 90h-4l-8 -98h-53zM258 168q81 -69 162 -102t145 -33q160 0 262.5 132.5t102.5 338.5q0 97 -18.5 175t-56.5 139 t-103.5 94.5t-153.5 33.5q-149 0 -340 -172v-606z" horiz-adv-x="1101" unicode="b"/><glyph d="M111 487q0 120 35.5 219t96 163.5t139.5 99.5t167 35q91 0 158.5 -33.5t128.5 -89.5l-41 -45q-119 110 -246 110q-159 0 -266 -129.5t-107 -329.5q0 -203 102.5 -328.5t270.5 -125.5q148 0 274 119l37 -46q-145 -131 -311 -131q-192 0 -315 137.5t-123 374.5z" horiz-adv-x="913" unicode="c"/><glyph d="M111 487q0 230 127 373.5t311 143.5q84 0 151.5 -29.5t151.5 -93.5l-4 184v414h61v-1479h-53l-8 131h-4q-156 -156 -328 -156q-188 0 -296.5 133.5t-108.5 378.5zM176 487q0 -206 90.5 -330t253.5 -124q84 0 163 43t165 129v606q-82 72 -153.5 103.5t-149.5 31.5 q-103 0 -188 -61.5t-133 -167t-48 -230.5z" horiz-adv-x="1105" unicode="d"/><glyph d="M111 487q0 116 35 214.5t94 164t134.5 102t157.5 36.5q171 0 270 -118t99 -333q0 -41 -4 -66h-721q0 -199 106 -326.5t279 -127.5q144 0 270 90l29 -53q-50 -31 -81 -46.5t-92.5 -32t-129.5 -16.5q-190 0 -318 139.5t-128 372.5zM176 545h664q0 197 -83 299t-225 102 q-137 0 -239 -109.5t-117 -291.5z" horiz-adv-x="978" unicode="e"/><glyph d="M70 922v49l135 8v242q0 141 59 211.5t166 70.5q61 0 135 -33l-20 -53q-59 29 -119 29q-160 0 -160 -234v-233h234v-57h-234v-922h-61v922h-135z" horiz-adv-x="516" unicode="f"/><glyph d="M111 -205q0 64 39.5 128t107.5 114v8q-86 51 -86 156q0 104 107 180v8q-51 45 -87 116t-36 154q0 147 97 246t239 99q66 0 126 -25h328v-57h-237q54 -44 86 -113t32 -150q0 -147 -97 -247.5t-238 -100.5q-98 0 -168 45q-40 -33 -63 -68t-23 -83q0 -135 192 -135h217 q163 0 239.5 -54t76.5 -168q0 -129 -126.5 -228t-324.5 -99q-186 0 -293.5 75t-107.5 199zM176 -201q0 -100 90 -160.5t250 -60.5q167 0 274 81t107 185q0 84 -59 122t-179 38h-225q-48 0 -119 16q-139 -94 -139 -221zM221 659q0 -126 80.5 -208t190.5 -82t190 82t80 208 q0 127 -78.5 207t-191.5 80q-114 0 -192.5 -79t-78.5 -208z" horiz-adv-x="983" unicode="g"/><glyph d="M197 0v1479h61v-660q91 91 170.5 138t173.5 47q151 0 223 -91t72 -282v-631h-61v623q0 165 -57 244t-181 79q-88 0 -163.5 -45.5t-176.5 -150.5v-750h-61z" horiz-adv-x="1069" unicode="h"/><glyph d="M160 1298q0 32 20 51t49 19t49.5 -19t20.5 -51q0 -30 -20.5 -49.5t-49.5 -19.5q-28 0 -48.5 19.5t-20.5 49.5zM197 0v979h61v-979h-61z" horiz-adv-x="454" unicode="i"/><glyph d="M-61 -455l16 54q66 -21 106 -21q42 0 69.5 16t41.5 47.5t19.5 68.5t5.5 89v1180h61v-1188q0 -140 -49.5 -205t-151.5 -65q-60 0 -118 24zM160 1298q0 32 20 51t49 19t49.5 -19t20.5 -51q0 -30 -20.5 -49.5t-49.5 -19.5q-28 0 -48.5 19.5t-20.5 49.5z" horiz-adv-x="454" unicode="j"/><glyph d="M197 0v1479h61v-1123h4l508 623h74l-316 -385l373 -594h-70l-339 545l-234 -275v-270h-61z" horiz-adv-x="925" unicode="k"/><glyph d="M197 106v1373h61v-1385q0 -61 41 -61q17 0 37 4l12 -53q-36 -9 -53 -9q-98 0 -98 131z" horiz-adv-x="471" unicode="l"/><glyph d="M197 0v979h53l8 -156h4q72 81 153.5 131t157.5 50q216 0 271 -205q186 205 336 205q146 0 218 -92t72 -281v-631h-61v623q0 164 -57 243.5t-176 79.5q-140 0 -312 -196v-750h-61v623q0 163 -57.5 243t-176.5 80q-139 0 -311 -196v-750h-61z" horiz-adv-x="1650" unicode="m"/><glyph d="M197 0v979h53l8 -156h4q88 88 167.5 134.5t172.5 46.5q151 0 223 -91t72 -282v-631h-61v623q0 165 -57 244t-181 79q-88 0 -163.5 -45.5t-176.5 -150.5v-750h-61z" horiz-adv-x="1077" unicode="n"/><glyph d="M111 487q0 120 35 219t94.5 163.5t138 99.5t166.5 35t166.5 -35t138 -99.5t94.5 -163.5t35 -219q0 -118 -35 -216t-94.5 -162t-138 -99t-166.5 -35t-166.5 35t-138 99t-94.5 162t-35 216zM176 487q0 -200 105 -327t264 -127t263.5 127t104.5 327q0 201 -105 330t-263 129 t-263.5 -129t-105.5 -330z" horiz-adv-x="1089" unicode="o"/><glyph d="M197 -455v1434h53l8 -127h4q191 152 340 152q195 0 294 -133t99 -367q0 -121 -35 -222t-94.5 -167.5t-138 -103t-166.5 -36.5q-136 0 -303 123v-553h-61zM258 168q164 -135 307 -135q160 0 262.5 132.5t102.5 338.5q0 97 -18.5 175t-56.5 139t-103.5 94.5t-153.5 33.5 q-143 0 -340 -172v-606z" horiz-adv-x="1105" unicode="p"/><glyph d="M111 487q0 230 127 373.5t311 143.5q83 0 150 -28.5t145 -86.5h4l8 90h53v-1434h-61v389l4 201q-167 -160 -336 -160q-188 0 -296.5 133.5t-108.5 378.5zM176 487q0 -206 90.5 -330t253.5 -124q84 0 163 43t165 129v606q-82 72 -153.5 103.5t-149.5 31.5 q-103 0 -188 -61.5t-133 -167t-48 -230.5z" horiz-adv-x="1105" unicode="q"/><glyph d="M197 0v979h53l8 -184h4q116 209 279 209q51 0 94 -21l-17 -57q-44 16 -86 16q-74 0 -146.5 -63t-127.5 -199v-680h-61z" horiz-adv-x="626" unicode="r"/><glyph d="M70 111l41 49q72 -61 145 -94t174 -33q118 0 184 60.5t66 148.5q0 38 -15.5 70.5t-37.5 55t-57.5 43t-65 33t-70.5 27.5l-46.5 16.5t-44.5 16.5t-45 19t-41.5 20.5t-39.5 24t-33 27t-29.5 31.5t-20.5 35.5t-14.5 41.5t-4.5 47q0 107 81.5 180.5t225.5 73.5 q71 0 143.5 -27.5t126.5 -71.5l-37 -49q-59 44 -113 67t-124 23q-115 0 -176.5 -56.5t-61.5 -135.5q0 -29 8.5 -53.5t28 -44.5t37 -34t51 -29.5t53.5 -24t60 -23.5q9 -3 46 -17t48.5 -18.5t44 -18.5t44.5 -21.5t38 -23.5t36.5 -28.5t27.5 -32.5t24 -40t12.5 -45.5t5.5 -53.5 q0 -113 -85.5 -192t-233.5 -79q-198 0 -356 136z" horiz-adv-x="819" unicode="s"/><glyph d="M61 922v49l156 8l8 287h54v-287h290v-57h-290v-672q0 -52 7 -88.5t25 -67t53 -46t87 -15.5q51 0 127 33l20 -54q-105 -37 -152 -37q-127 0 -178 73t-51 210v664h-156z" horiz-adv-x="618" unicode="t"/><glyph d="M180 348v631h62v-623q0 -165 56.5 -244t180.5 -79q90 0 165 49.5t171 163.5v733h62v-979h-54l-8 168h-4q-80 -94 -160.5 -143.5t-175.5 -49.5q-151 0 -223 91t-72 282z" horiz-adv-x="1073" unicode="u"/><glyph d="M25 979h69l234 -635q50 -143 102 -278h8q63 165 103 278l233 635h66l-369 -979h-74z" horiz-adv-x="864" unicode="v"/><glyph d="M49 979h70l188 -660q61 -221 70 -258h8q52 181 74 258l188 660h86l189 -660q43 -155 73 -258h9q30 103 73 258l185 660h65l-287 -979h-86l-184 639q-15 47 -39.5 139.5t-38.5 139.5h-8q-54 -204 -82 -283l-180 -635h-78z" horiz-adv-x="1376" unicode="w"/><glyph d="M29 0l336 512l-308 467h70l168 -262q47 -76 106 -160h9q19 27 53.5 80.5t52.5 79.5l164 262h65l-307 -471l336 -508h-69l-185 283q-56 93 -119 180h-8q-24 -33 -65 -97t-54 -83l-180 -283h-65z" horiz-adv-x="802" unicode="x"/><glyph d="M25 979h69l250 -643q106 -263 111 -275h8q19 49 51.5 148.5t42.5 126.5l221 643h66l-393 -1118q-20 -62 -47 -114.5t-65.5 -100t-91 -74.5t-112.5 -27q-50 0 -94 21l16 57q40 -16 82 -16q88 0 154 75t108 203l29 90z" horiz-adv-x="868" unicode="y"/><glyph d="M53 0v33l602 889h-536v57h618v-33l-602 -889h623v-57h-705z" horiz-adv-x="811" unicode="z"/><glyph d="M74 545v49q176 0 176 164q0 73 -8.5 215t-8.5 219q0 101 26 158t72.5 78.5t123.5 21.5h61v-45h-65q-94 0 -129 -52.5t-35 -168.5q0 -65 6 -194.5t6 -207.5q0 -92 -21 -141.5t-77 -67.5v-8q55 -18 76.5 -68.5t21.5 -140.5q0 -78 -6 -207t-6 -194q0 -116 35 -168.5 t129 -52.5h65v-45h-61q-77 0 -123.5 21.5t-72.5 78.5t-26 158q0 77 8.5 218.5t8.5 211.5q0 168 -176 168z" horiz-adv-x="552" unicode="{"/><glyph d="M197 -512v2048h57v-2048h-57z" horiz-adv-x="450" unicode="|"/><glyph d="M37 -266h65q94 0 129 52.5t35 168.5q0 65 -6 194t-6 207q0 90 21.5 140.5t76.5 68.5v8q-56 18 -77 67.5t-21 141.5q0 78 6 207.5t6 194.5q0 116 -35 168.5t-129 52.5h-65v45h61q116 0 168.5 -55.5t52.5 -202.5q0 -77 -8 -219t-8 -215q0 -164 176 -164v-49 q-176 0 -176 -168q0 -70 8 -211.5t8 -218.5q0 -147 -52.5 -202.5t-168.5 -55.5h-61v45z" horiz-adv-x="552" unicode="}"/><glyph d="M86 635q38 80 95 122t118 42q52 0 107 -29.5t93.5 -65t86 -65t86.5 -29.5q98 0 164 131l45 -28q-39 -77 -96 -118.5t-117 -41.5q-52 0 -107 29.5t-93.5 64.5t-86 64.5t-86.5 29.5q-99 0 -164 -131z" unicode="~"/><glyph d="M180 926q0 35 22.5 56.5t51.5 21.5t51.5 -21.5t22.5 -56.5q0 -38 -22 -60t-52 -22t-52 22t-22 60zM221 -266l8 893h50l8 -893v-127h-66v127z" horiz-adv-x="507" unicode="¡"/><glyph d="M127 639q0 203 110 325t279 140v231h57v-229q150 -2 279 -123l-37 -41q-111 104 -242 107v-820q142 3 267 115l37 -41q-143 -128 -304 -131v-225h-57v227q-174 15 -281.5 138t-107.5 327zM193 639q0 -170 87.5 -280.5t235.5 -127.5v813q-141 -18 -232 -128.5t-91 -276.5z" unicode="¢"/><glyph d="M111 606v53l135 5h53q-4 14 -22.5 78t-25 90t-14.5 74t-8 89q0 157 90 248.5t246 91.5q177 0 287 -143l-45 -41q-103 127 -246 127q-127 0 -196.5 -79.5t-69.5 -199.5q0 -41 7.5 -88t16 -78t25 -87t23.5 -82h342v-58h-330q18 -73 18 -160q0 -129 -38.5 -217t-116.5 -163 v-9h614v-57h-737v37q111 64 164 172t53 237q0 71 -21 160h-204z" unicode="£"/><glyph d="M66 287l135 139q-78 105 -78 246q0 147 78 252l-135 141l40 45l136 -141q99 96 241 96q138 0 242 -96l135 141l41 -45l-137 -141q80 -108 80 -252q0 -136 -78 -246l135 -139l-41 -45l-135 139q-98 -98 -242 -98q-140 0 -243 98l-134 -139zM188 672q0 -145 86 -238.5 t209 -93.5t209 93.5t86 238.5t-86.5 240.5t-208.5 95.5t-208.5 -95.5t-86.5 -240.5z" unicode="¤"/><glyph d="M66 1311h69l205 -414q78 -156 139 -283h8q21 40 69 136.5t75 146.5l205 414h65l-364 -701h323v-57h-348v-152h348v-57h-348v-344h-61v344h-345v57h345v152h-345v57h320z" unicode="¥"/><glyph d="M197 455h57v-967h-57v967zM197 561v975h57v-975h-57z" horiz-adv-x="450" unicode="¦"/><glyph d="M106 729q0 94 49 156.5t136 111.5q-70 67 -70 166q0 56 27 107t89.5 87t149.5 36q145 0 275 -107l-37 -45q-58 46 -111.5 70t-126.5 24q-102 0 -153 -49.5t-51 -118.5q0 -58 32 -102t82.5 -72.5t112.5 -54.5t123.5 -56t112 -67t82.5 -96.5t32 -136.5q0 -97 -46 -156 t-132 -104q72 -72 72 -175q0 -104 -84 -174.5t-195 -70.5q-182 0 -319 123l45 45q59 -55 121 -83t153 -28q96 0 156.5 54t60.5 130q0 60 -32.5 105.5t-84 75t-114 56t-125 56t-114 65.5t-84 94t-32.5 134zM168 733q0 -55 23 -99t59 -73t87 -56t98.5 -46t103.5 -46t94 -53 q86 41 126 87.5t40 130.5q0 56 -23 102t-58.5 75.5t-86.5 57.5t-98.5 47t-102.5 45.5t-92 52.5q-85 -47 -127.5 -97t-42.5 -128z" unicode="§"/><glyph d="M303 1298q0 28 19 47t47 19t46.5 -19t18.5 -47t-18.5 -46.5t-46.5 -18.5t-47 18.5t-19 46.5zM655 1298q0 28 19 47t47 19t46.5 -19t18.5 -47t-18.5 -46.5t-46.5 -18.5t-47 18.5t-19 46.5z" horiz-adv-x="1089" unicode="¨"/><glyph d="M106 659q0 150 52.5 278t141.5 214.5t207.5 135t250.5 48.5t250.5 -48.5t207 -135t141 -214.5t52.5 -278q0 -151 -52.5 -280.5t-141 -217t-207 -137t-250.5 -49.5t-250.5 49.5t-207.5 137t-141.5 217t-52.5 280.5zM168 659q0 -138 48 -257t129 -200t188 -127t225 -46 t225 46t188 127t129 200t48 257q0 136 -48 254t-129 198t-188 125.5t-225 45.5t-225 -45.5t-188 -125.5t-129 -198t-48 -254zM414 659q0 172 106.5 276.5t257.5 104.5q75 0 131.5 -28t110.5 -82l-37 -45q-53 49 -100.5 71.5t-108.5 22.5q-127 0 -209 -88.5t-82 -231.5 q0 -159 78.5 -251.5t208.5 -92.5q126 0 246 107l33 -45q-66 -61 -128.5 -92t-154.5 -31q-148 0 -250 109.5t-102 295.5z" horiz-adv-x="1515" unicode="©"/><glyph d="M90 1008q0 106 101.5 162.5t324.5 78.5q0 94 -32 147.5t-115 53.5q-59 0 -122.5 -24.5t-103.5 -53.5l-24 45q128 86 254 86q110 0 155 -65t45 -185v-413h-45l-12 82h-8q-115 -99 -221 -99q-88 0 -142.5 49t-54.5 136zM152 1012q0 -135 147 -135q105 0 217 106v221 q-196 -21 -280 -68t-84 -124z" horiz-adv-x="684" unicode="ª"/><glyph d="M86 487v58l283 336l41 -37l-254 -328l254 -332l-41 -32zM360 487v58l283 336l41 -37l-254 -328l254 -332l-41 -32z" horiz-adv-x="794" unicode="«"/><glyph d="M70 647v58h827v-476h-66v418h-761z" unicode="¬"/><glyph d="M82 479v62h442v-62h-442z" horiz-adv-x="602" unicode="­"/><glyph d="M33 1061q0 175 107 286t261 111t261.5 -111t107.5 -286q0 -174 -107 -283.5t-262 -109.5t-261.5 109.5t-106.5 283.5zM90 1061q0 -146 90.5 -243t220.5 -97q131 0 221.5 97t90.5 243t-91 245t-221 99t-220.5 -98.5t-90.5 -245.5zM266 856v426h135q67 0 111.5 -30.5 t44.5 -100.5q0 -39 -24 -72.5t-58 -42.5l103 -180h-70l-82 160h-102v-160h-58zM324 1069h61q111 0 111 78q0 82 -103 82h-69v-160z" horiz-adv-x="802" unicode="®"/><glyph d="M299 1245v58h492v-58h-492z" horiz-adv-x="1089" unicode="¯"/><glyph d="M86 1163q0 109 66.5 173.5t158.5 64.5t159 -64.5t67 -173.5q0 -105 -67.5 -169t-158.5 -64t-158 63.5t-67 169.5zM143 1163q0 -77 47.5 -128.5t120.5 -51.5t120.5 51.5t47.5 128.5q0 80 -47.5 132.5t-120.5 52.5t-120.5 -52.5t-47.5 -132.5z" horiz-adv-x="622" unicode="°"/><glyph d="M70 0v57h827v-57h-827zM70 639v57h381v426h65v-426h381v-57h-381v-430h-65v430h-381z" unicode="±"/><glyph d="M102 1516q35 61 101 104t137 43q111 0 176.5 -64t65.5 -186q0 -48 -16.5 -95.5t-41.5 -89t-71.5 -94.5t-89 -96.5t-111.5 -110.5q-23 -22 -35 -34h414v-53h-512v41q120 112 184.5 177t120 132.5t76 117t20.5 101.5q0 92 -50 146.5t-134 54.5q-55 0 -105.5 -37t-87.5 -94z" horiz-adv-x="737" unicode="²"/><glyph d="M86 967l49 37q38 -60 99.5 -98t130.5 -38q83 0 139.5 49t56.5 132q0 82 -79 127t-216 45v49q121 0 191.5 53t70.5 127q0 71 -49 115.5t-131 44.5q-48 0 -97.5 -30t-90.5 -81l-41 37q43 57 103 92t130 35q102 0 170 -57t68 -152q0 -73 -44 -126t-116 -79q80 -13 136.5 -66 t56.5 -134q0 -107 -74.5 -170.5t-188.5 -63.5q-86 0 -158 43.5t-116 108.5z" horiz-adv-x="737" unicode="³"/><glyph d="M438 1208l271 316l49 -41l-283 -307z" horiz-adv-x="1089" unicode="´"/><glyph d="M197 -369v1348h61v-623q0 -323 229 -323q45 0 80.5 8t79 31.5t87.5 74t89 127.5v705h62q-4 -590 -4 -873q0 -36 15.5 -54.5t41.5 -18.5q20 0 57 12l13 -53q-38 -17 -74 -17q-66 0 -90 48t-21 165h-4q-130 -213 -323 -213q-87 0 -146.5 29t-99.5 107q0 -312 8 -480h-61z" horiz-adv-x="1097" unicode="µ"/><glyph d="M86 930q0 111 34 193.5t97.5 132t148 73t191.5 23.5h90v-840h-53q-117 0 -208 23t-159.5 72t-104.5 130.5t-36 192.5zM758 -164v1516h65v-1516h-65z" horiz-adv-x="1019" unicode="¶"/><glyph d="M139 659q0 38 22 60t52 22t52 -22t22 -60q0 -35 -22 -56t-52 -21t-52 21t-22 56z" horiz-adv-x="425" unicode="·"/><glyph d="M401 -389q130 9 182 35.5t52 74.5q0 45 -38 70t-122 37l82 176h57l-61 -139q70 -16 106.5 -48.5t36.5 -90.5q0 -150 -282 -168z" horiz-adv-x="1089" unicode="¸"/><glyph d="M197 1516v45q106 23 172 77h53v-798h-57v676h-168z" horiz-adv-x="737" unicode="¹"/><glyph d="M70 1163q0 158 84 249t211 91t210.5 -91t83.5 -249q0 -156 -83.5 -248t-210.5 -92t-211 92t-84 248zM131 1163q0 -126 65 -206t169 -80t168.5 80t64.5 206q0 129 -64.5 208t-168.5 79t-169 -79t-65 -208z" horiz-adv-x="733" unicode="º"/><glyph d="M111 184l254 332l-254 328l41 37l282 -336v-58l-282 -335zM385 184l254 332l-254 328l41 37l283 -336v-58l-283 -335z" horiz-adv-x="794" unicode="»"/><glyph d="M156 1229v45q105 23 172 78h53v-799h-57v676h-168zM360 -25l758 1401h66l-758 -1401h-66zM913 242v32l373 525h45v-504h119v-53h-119v-242h-57v242h-361zM995 295h279v192l8 209h-8l-119 -172z" horiz-adv-x="1552" unicode="¼"/><glyph d="M156 1229v45q105 23 172 78h53v-799h-57v676h-168zM311 -25l758 1401h66l-758 -1401h-66zM958 676q35 61 101 104t137 43q111 0 176.5 -64t65.5 -186q0 -48 -16.5 -95.5t-41.5 -89t-71.5 -94.5t-89 -96.5t-111.5 -110.5q-23 -22 -35 -34h414v-53h-512v41 q120 112 184.5 177t120 132.5t76 117t20.5 101.5q0 92 -50 146.5t-134 54.5q-55 0 -105.5 -37t-87.5 -94z" horiz-adv-x="1593" unicode="½"/><glyph d="M86 680l49 37q38 -60 99.5 -97.5t130.5 -37.5q83 0 139.5 48.5t56.5 131.5q0 82 -79 127t-216 45v49q121 0 191.5 53t70.5 127q0 71 -49 115.5t-131 44.5q-48 0 -97.5 -30t-90.5 -81l-41 37q43 57 103 92t130 35q102 0 170 -57t68 -152q0 -73 -44 -125.5t-116 -78.5 q80 -13 136.5 -66.5t56.5 -134.5q0 -107 -74.5 -170.5t-188.5 -63.5q-86 0 -158 43.5t-116 108.5zM463 -25l758 1401h65l-758 -1401h-65zM954 242v32l373 525h45v-504h119v-53h-119v-242h-57v242h-361zM1036 295h279v192l8 209h-8l-119 -172z" horiz-adv-x="1593" unicode="¾"/><glyph d="M106 -111q0 47 11 90t38 90t45 72.5t58 79.5q44 58 66.5 91t51.5 88t37.5 110.5t0.5 116.5h57q4 -28 4.5 -55t-3 -53t-7.5 -48t-14 -46t-16.5 -41.5t-21 -41.5t-22.5 -37.5t-25.5 -37.5t-25.5 -35t-27 -35q-48 -62 -71.5 -97t-46.5 -92.5t-23 -113.5q0 -107 62.5 -180.5 t183.5 -73.5q77 0 149.5 35.5t124.5 99.5l41 -37q-141 -156 -319 -156q-143 0 -225.5 88t-82.5 219zM360 926q0 35 22.5 56.5t51.5 21.5t51.5 -21.5t22.5 -56.5q0 -38 -22 -60t-52 -22t-52 22t-22 60z" horiz-adv-x="806" unicode="¿"/><glyph d="M20 0l484 1352h57l483 -1352h-69l-168 483h-551l-170 -483h-66zM276 541h510l-94 270q-110 315 -155 471h-9q-45 -156 -155 -471zM319 1683l46 50l241 -246l-28 -33z" horiz-adv-x="1064" unicode="À"/><glyph d="M20 0l484 1352h57l483 -1352h-69l-168 483h-551l-170 -483h-66zM276 541h510l-94 270q-110 315 -155 471h-9q-45 -156 -155 -471zM459 1487l241 246l45 -50l-258 -229z" horiz-adv-x="1064" unicode="Á"/><glyph d="M20 0l484 1352h57l483 -1352h-69l-168 483h-551l-170 -483h-66zM266 1487l238 233h57l238 -233l-29 -33l-233 205h-9l-233 -205zM276 541h510l-94 270q-110 315 -155 471h-9q-45 -156 -155 -471z" horiz-adv-x="1064" unicode="Â"/><glyph d="M20 0l484 1352h57l483 -1352h-69l-168 483h-551l-170 -483h-66zM205 1487q3 93 47.5 155t120.5 62q44 0 82.5 -17.5t65.5 -42t52.5 -49t55.5 -42t63 -17.5q47 0 78.5 44.5t40.5 119.5l49 -4q-3 -93 -47.5 -155t-120.5 -62q-54 0 -100.5 26.5t-74.5 57.5t-66.5 57.5 t-77.5 26.5q-47 0 -80 -45.5t-39 -118.5zM276 541h510l-94 270q-110 315 -155 471h-9q-45 -156 -155 -471z" horiz-adv-x="1064" unicode="Ã"/><glyph d="M20 0l484 1352h57l483 -1352h-69l-168 483h-551l-170 -483h-66zM270 1556q0 30 19 48t47 18t46.5 -18t18.5 -48t-18.5 -47.5t-46.5 -17.5q-29 0 -47.5 17.5t-18.5 47.5zM276 541h510l-94 270q-110 315 -155 471h-9q-45 -156 -155 -471zM664 1556q0 30 18.5 48t46.5 18 t47 -18t19 -48t-18.5 -47.5t-47.5 -17.5q-28 0 -46.5 17.5t-18.5 47.5z" horiz-adv-x="1064" unicode="Ä"/><glyph d="M20 0l484 1352h57l483 -1352h-69l-168 483h-551l-170 -483h-66zM276 541h510l-94 270q-110 315 -155 471h-9q-45 -156 -155 -471zM360 1606q0 77 49.5 124.5t122.5 47.5q71 0 122 -48t51 -124q0 -75 -51 -123.5t-122 -48.5q-73 0 -122.5 48.5t-49.5 123.5zM410 1606 q0 -61 34.5 -94t87.5 -33q50 0 84.5 33.5t34.5 93.5q0 58 -35 92.5t-84 34.5q-53 0 -87.5 -34.5t-34.5 -92.5z" horiz-adv-x="1064" unicode="Å"/><glyph d="M53 0l762 1352h717v-58h-619v-544h512v-58h-512v-635h639v-57h-704v463h-465l-260 -463h-70zM416 520h432v770h-8q-216 -392 -267 -487z" horiz-adv-x="1646" unicode="Æ"/><glyph d="M115 680q0 319 155 507.5t414 188.5q109 0 197 -45t147 -114l-41 -46q-124 144 -303 144q-232 0 -366 -171t-134 -464t133 -468t359 -175q105 0 189.5 42t162.5 130l41 -41q-147 -170 -340 -191l-49 -112q70 -16 106.5 -48.5t36.5 -90.5q0 -150 -282 -168l-13 53 q130 9 182 35.5t52 74.5q0 45 -38 70t-122 37l68 147q-248 0 -401.5 193.5t-153.5 511.5z" horiz-adv-x="1150" unicode="Ç"/><glyph d="M205 0v1352h725v-58h-660v-544h553v-58h-553v-635h680v-57h-745zM362 1683l46 50l241 -246l-28 -33z" horiz-adv-x="1044" unicode="È"/><glyph d="M205 0v1352h725v-58h-660v-544h553v-58h-553v-635h680v-57h-745zM502 1487l241 246l45 -50l-258 -229z" horiz-adv-x="1044" unicode="É"/><glyph d="M205 0v1352h725v-58h-660v-544h553v-58h-553v-635h680v-57h-745zM309 1487l238 233h57l238 -233l-29 -33l-233 205h-9l-233 -205z" horiz-adv-x="1044" unicode="Ê"/><glyph d="M205 0v1352h725v-58h-660v-544h553v-58h-553v-635h680v-57h-745zM313 1556q0 30 19 48t47 18t46.5 -18t18.5 -48t-18.5 -47.5t-46.5 -17.5q-29 0 -47.5 17.5t-18.5 47.5zM707 1556q0 30 18.5 48t46.5 18t47 -18t19 -48t-18.5 -47.5t-47.5 -17.5q-28 0 -46.5 17.5 t-18.5 47.5z" horiz-adv-x="1044" unicode="Ë"/><glyph d="M25 1683l45 50l241 -246l-28 -33zM205 0v1352h65v-1352h-65z" horiz-adv-x="475" unicode="Ì"/><glyph d="M164 1487l242 246l45 -50l-258 -229zM205 0v1352h65v-1352h-65z" horiz-adv-x="475" unicode="Í"/><glyph d="M-29 1487l238 233h57l238 -233l-29 -33l-233 205h-9l-233 -205zM205 0v1352h65v-1352h-65z" horiz-adv-x="475" unicode="Î"/><glyph d="M-25 1556q0 30 19 48t47 18t46.5 -18t18.5 -48t-18.5 -47.5t-46.5 -17.5q-29 0 -47.5 17.5t-18.5 47.5zM205 0v1352h65v-1352h-65zM369 1556q0 30 18.5 48t46.5 18t47 -18t19 -48t-18.5 -47.5t-47.5 -17.5q-28 0 -46.5 17.5t-18.5 47.5z" horiz-adv-x="475" unicode="Ï"/><glyph d="M78 688v53l168 4v607h303q154 0 270.5 -48t189.5 -138t109.5 -211.5t36.5 -274.5t-36.5 -276t-109.5 -214t-189.5 -140.5t-270.5 -49.5h-303v688h-168zM311 57h230q113 0 204 31t154 86t105 133t61.5 171t19.5 202q0 137 -31.5 247t-95.5 193t-170 128.5t-247 45.5h-230 v-549h344v-57h-344v-631z" horiz-adv-x="1269" unicode="Ð"/><glyph d="M205 0v1352h69l598 -992l156 -266h8q-8 262 -8 381v877h62v-1352h-70l-598 991l-156 266h-8q8 -254 8 -368v-889h-61zM330 1487q3 93 47.5 155t120.5 62q44 0 82.5 -17.5t65.5 -42t52.5 -49t55.5 -42t63 -17.5q47 0 78.5 44.5t40.5 119.5l49 -4q-3 -93 -47.5 -155 t-120.5 -62q-54 0 -100.5 26.5t-74.5 57.5t-66.5 57.5t-77.5 26.5q-47 0 -80 -45.5t-39 -118.5z" horiz-adv-x="1294" unicode="Ñ"/><glyph d="M115 680q0 316 153.5 506t395.5 190t395 -190t153 -506q0 -317 -153.5 -511t-394.5 -194q-119 0 -220.5 50.5t-174 141.5t-113.5 223.5t-41 289.5zM184 680q0 -291 132 -467t348 -176t347.5 176t131.5 467q0 290 -131.5 462.5t-347.5 172.5q-217 0 -348.5 -172.5 t-131.5 -462.5zM451 1683l45 50l241 -246l-28 -33z" horiz-adv-x="1327" unicode="Ò"/><glyph d="M115 680q0 316 153.5 506t395.5 190t395 -190t153 -506q0 -317 -153.5 -511t-394.5 -194q-119 0 -220.5 50.5t-174 141.5t-113.5 223.5t-41 289.5zM184 680q0 -291 132 -467t348 -176t347.5 176t131.5 467q0 290 -131.5 462.5t-347.5 172.5q-217 0 -348.5 -172.5 t-131.5 -462.5zM590 1487l241 246l46 -50l-259 -229z" horiz-adv-x="1327" unicode="Ó"/><glyph d="M115 680q0 316 153.5 506t395.5 190t395 -190t153 -506q0 -317 -153.5 -511t-394.5 -194q-119 0 -220.5 50.5t-174 141.5t-113.5 223.5t-41 289.5zM184 680q0 -291 132 -467t348 -176t347.5 176t131.5 467q0 290 -131.5 462.5t-347.5 172.5q-217 0 -348.5 -172.5 t-131.5 -462.5zM397 1487l238 233h57l238 -233l-29 -33l-233 205h-9l-233 -205z" horiz-adv-x="1327" unicode="Ô"/><glyph d="M115 680q0 316 153.5 506t395.5 190t395 -190t153 -506q0 -317 -153.5 -511t-394.5 -194q-119 0 -220.5 50.5t-174 141.5t-113.5 223.5t-41 289.5zM184 680q0 -291 132 -467t348 -176t347.5 176t131.5 467q0 290 -131.5 462.5t-347.5 172.5q-217 0 -348.5 -172.5 t-131.5 -462.5zM336 1487q3 93 47.5 155t120.5 62q44 0 82.5 -17.5t65.5 -42t52.5 -49t55.5 -42t63 -17.5q47 0 78.5 44.5t40.5 119.5l49 -4q-3 -93 -47.5 -155t-120.5 -62q-54 0 -100.5 26.5t-74.5 57.5t-66.5 57.5t-77.5 26.5q-47 0 -80 -45.5t-39 -118.5z" horiz-adv-x="1327" unicode="Õ"/><glyph d="M115 680q0 316 153.5 506t395.5 190t395 -190t153 -506q0 -317 -153.5 -511t-394.5 -194q-119 0 -220.5 50.5t-174 141.5t-113.5 223.5t-41 289.5zM184 680q0 -291 132 -467t348 -176t347.5 176t131.5 467q0 290 -131.5 462.5t-347.5 172.5q-217 0 -348.5 -172.5 t-131.5 -462.5zM401 1556q0 30 19 48t47 18t46.5 -18t18.5 -48t-18.5 -47.5t-46.5 -17.5q-29 0 -47.5 17.5t-18.5 47.5zM795 1556q0 30 18.5 48t46.5 18t47 -18t19 -48t-18.5 -47.5t-47.5 -17.5q-28 0 -46.5 17.5t-18.5 47.5z" horiz-adv-x="1327" unicode="Ö"/><glyph d="M106 328l336 348l-336 348l41 45l336 -352l336 352l41 -45l-336 -348l336 -348l-41 -45l-336 352l-336 -352z" unicode="×"/><glyph d="M119 -8l143 194q-139 194 -139 494q0 316 153.5 506t395.5 190q214 0 360 -149l123 166l45 -33l-131 -176q152 -192 152 -504q0 -157 -41 -289.5t-113.5 -223.5t-174 -141.5t-220.5 -50.5q-223 0 -373 166l-135 -182zM193 680q0 -264 110 -438l690 932q-126 141 -321 141 q-216 0 -347.5 -172.5t-131.5 -462.5zM338 195q133 -158 334 -158q216 0 347.5 176t131.5 467q0 274 -121 448z" horiz-adv-x="1327" unicode="Ø"/><glyph d="M201 504v848h65v-832q0 -109 20.5 -193.5t55 -138t84 -88.5t102.5 -49t115 -14q63 0 117.5 14t104.5 49t85.5 88.5t56.5 138t21 193.5v832h62v-848q0 -121 -26 -215t-68.5 -152t-102 -95.5t-120.5 -52t-130 -14.5t-129.5 14.5t-119.5 52t-100.5 95.5t-67 152t-25.5 215z M432 1683l45 50l242 -246l-29 -33z" horiz-adv-x="1290" unicode="Ù"/><glyph d="M201 504v848h65v-832q0 -109 20.5 -193.5t55 -138t84 -88.5t102.5 -49t115 -14q63 0 117.5 14t104.5 49t85.5 88.5t56.5 138t21 193.5v832h62v-848q0 -121 -26 -215t-68.5 -152t-102 -95.5t-120.5 -52t-130 -14.5t-129.5 14.5t-119.5 52t-100.5 95.5t-67 152t-25.5 215z M571 1487l242 246l45 -50l-258 -229z" horiz-adv-x="1290" unicode="Ú"/><glyph d="M201 504v848h65v-832q0 -109 20.5 -193.5t55 -138t84 -88.5t102.5 -49t115 -14q63 0 117.5 14t104.5 49t85.5 88.5t56.5 138t21 193.5v832h62v-848q0 -121 -26 -215t-68.5 -152t-102 -95.5t-120.5 -52t-130 -14.5t-129.5 14.5t-119.5 52t-100.5 95.5t-67 152t-25.5 215z M379 1487l237 233h58l237 -233l-28 -33l-234 205h-8l-233 -205z" horiz-adv-x="1290" unicode="Û"/><glyph d="M201 504v848h65v-832q0 -109 20.5 -193.5t55 -138t84 -88.5t102.5 -49t115 -14q63 0 117.5 14t104.5 49t85.5 88.5t56.5 138t21 193.5v832h62v-848q0 -121 -26 -215t-68.5 -152t-102 -95.5t-120.5 -52t-130 -14.5t-129.5 14.5t-119.5 52t-100.5 95.5t-67 152t-25.5 215z M383 1556q0 30 19 48t47 18t46.5 -18t18.5 -48t-18.5 -47.5t-46.5 -17.5q-29 0 -47.5 17.5t-18.5 47.5zM776 1556q0 30 19 48t47 18t46.5 -18t18.5 -48t-18.5 -47.5t-46.5 -17.5q-29 0 -47.5 17.5t-18.5 47.5z" horiz-adv-x="1290" unicode="Ü"/><glyph d="M8 1352h70l217 -439q121 -241 147 -290h9q118 218 151 290l217 439h66l-406 -795v-557h-65v557zM373 1487l241 246l45 -50l-258 -229z" horiz-adv-x="892" unicode="Ý"/><glyph d="M205 0v1352h65v-246h287q236 0 355.5 -86.5t119.5 -282.5q0 -191 -122.5 -288t-352.5 -97h-287v-352h-65zM270 410h262q221 0 326 77.5t105 249.5q0 173 -102.5 242.5t-328.5 69.5h-262v-639z" horiz-adv-x="1138" unicode="Þ"/><glyph d="M197 0v1102q0 185 90.5 291t240.5 106q121 0 194 -75t73 -191q0 -59 -21.5 -112t-52.5 -93t-61.5 -78.5t-52 -83.5t-21.5 -92q0 -50 24 -88.5t63 -63.5t85.5 -47.5t93 -49t85.5 -59.5t63 -87t24 -125q0 -120 -82 -199.5t-205 -79.5q-154 0 -274 107l37 49 q60 -51 115.5 -74.5t121.5 -23.5q105 0 163 64t58 153q0 61 -24 108t-63 76t-85.5 53.5t-93 48.5t-85.5 52.5t-63 74.5t-24 107q0 56 21.5 107t52 90t61.5 77t52.5 85.5t21.5 99.5q0 95 -53.5 154t-151.5 59q-124 0 -195 -92t-71 -277v-1073h-61z" horiz-adv-x="1085" unicode="ß"/><glyph d="M123 240q0 162 153 247.5t490 122.5q2 66 -7.5 121t-34.5 106t-76 80t-124 29q-93 0 -177 -36t-142 -83l-33 50q65 48 157.5 87.5t198.5 39.5q83 0 143 -29.5t93 -82t48 -116t15 -141.5v-635h-53l-8 131h-4q-194 -156 -356 -156q-123 0 -203 66.5t-80 198.5zM188 242 q0 -107 62 -158t160 -51q86 0 170 41t186 127v356q-213 -24 -341 -66.5t-182.5 -102.5t-54.5 -146zM303 1483l49 41l271 -316l-37 -32z" horiz-adv-x="995" unicode="à"/><glyph d="M123 240q0 162 153 247.5t490 122.5q2 66 -7.5 121t-34.5 106t-76 80t-124 29q-93 0 -177 -36t-142 -83l-33 50q65 48 157.5 87.5t198.5 39.5q83 0 143 -29.5t93 -82t48 -116t15 -141.5v-635h-53l-8 131h-4q-194 -156 -356 -156q-123 0 -203 66.5t-80 198.5zM188 242 q0 -107 62 -158t160 -51q86 0 170 41t186 127v356q-213 -24 -341 -66.5t-182.5 -102.5t-54.5 -146zM410 1208l270 316l49 -41l-283 -307z" horiz-adv-x="995" unicode="á"/><glyph d="M123 240q0 162 153 247.5t490 122.5q2 66 -7.5 121t-34.5 106t-76 80t-124 29q-93 0 -177 -36t-142 -83l-33 50q65 48 157.5 87.5t198.5 39.5q83 0 143 -29.5t93 -82t48 -116t15 -141.5v-635h-53l-8 131h-4q-194 -156 -356 -156q-123 0 -203 66.5t-80 198.5zM188 242 q0 -107 62 -158t160 -51q86 0 170 41t186 127v356q-213 -24 -341 -66.5t-182.5 -102.5t-54.5 -146zM246 1208l241 299h58l241 -299l-36 -32l-230 266h-8l-229 -266z" horiz-adv-x="995" unicode="â"/><glyph d="M123 240q0 162 153 247.5t490 122.5q2 66 -7.5 121t-34.5 106t-76 80t-124 29q-93 0 -177 -36t-142 -83l-33 50q65 48 157.5 87.5t198.5 39.5q83 0 143 -29.5t93 -82t48 -116t15 -141.5v-635h-53l-8 131h-4q-194 -156 -356 -156q-123 0 -203 66.5t-80 198.5zM188 242 q0 -107 62 -158t160 -51q86 0 170 41t186 127v356q-213 -24 -341 -66.5t-182.5 -102.5t-54.5 -146zM188 1196q17 250 172 250q43 0 80.5 -21t64.5 -51t53 -60.5t56.5 -51.5t63.5 -21q54 0 82 57t31 144l53 -4q-17 -250 -170 -250q-44 0 -81.5 21t-65 51t-53 60.5t-55.5 51.5 t-63 21q-55 0 -83 -55.5t-31 -145.5z" horiz-adv-x="995" unicode="ã"/><glyph d="M123 240q0 162 153 247.5t490 122.5q2 66 -7.5 121t-34.5 106t-76 80t-124 29q-93 0 -177 -36t-142 -83l-33 50q65 48 157.5 87.5t198.5 39.5q83 0 143 -29.5t93 -82t48 -116t15 -141.5v-635h-53l-8 131h-4q-194 -156 -356 -156q-123 0 -203 66.5t-80 198.5zM188 242 q0 -107 62 -158t160 -51q86 0 170 41t186 127v356q-213 -24 -341 -66.5t-182.5 -102.5t-54.5 -146zM274 1298q0 28 19 47t47 19t47 -19t19 -47t-19 -46.5t-47 -18.5t-47 18.5t-19 46.5zM627 1298q0 28 18.5 47t46.5 19t47 -19t19 -47t-19 -46.5t-47 -18.5t-46.5 18.5 t-18.5 46.5z" horiz-adv-x="995" unicode="ä"/><glyph d="M123 240q0 162 153 247.5t490 122.5q2 66 -7.5 121t-34.5 106t-76 80t-124 29q-93 0 -177 -36t-142 -83l-33 50q65 48 157.5 87.5t198.5 39.5q83 0 143 -29.5t93 -82t48 -116t15 -141.5v-635h-53l-8 131h-4q-194 -156 -356 -156q-123 0 -203 66.5t-80 198.5zM188 242 q0 -107 62 -158t160 -51q86 0 170 41t186 127v356q-213 -24 -341 -66.5t-182.5 -102.5t-54.5 -146zM328 1311q0 85 53.5 138.5t134.5 53.5t135 -53.5t54 -138.5t-54 -139t-135 -54t-134.5 54t-53.5 139zM377 1311q0 -66 39.5 -107t99.5 -41t99.5 41t39.5 107t-39.5 106.5 t-99.5 40.5t-99.5 -40.5t-39.5 -106.5z" horiz-adv-x="995" unicode="å"/><glyph d="M139 238q0 162 152 248t479 124q2 66 -7.5 121t-34.5 106t-76 80t-124 29q-86 0 -167.5 -36.5t-139.5 -82.5l-33 50q65 48 156 87.5t188 39.5q119 0 191.5 -69t95.5 -190q53 119 146 189t202 70q170 0 265.5 -117.5t95.5 -333.5q0 -41 -4 -66h-693q-3 -195 102 -324.5 t263 -129.5q136 0 262 90l29 -53q-55 -34 -80 -47.5t-86 -30.5t-129 -17q-64 0 -120 17.5t-98.5 49.5t-73 65.5t-60.5 76.5q-95 -95 -210 -152t-208 -57q-123 0 -203 66t-80 197zM205 242q0 -107 62 -158t159 -51q87 0 195 55t194 150q-45 95 -45 262v57 q-302 -36 -433.5 -111.5t-131.5 -203.5zM831 541h635q0 199 -79 302t-220 103q-130 0 -225.5 -114t-110.5 -291z" horiz-adv-x="1605" unicode="æ"/><glyph d="M111 487q0 120 35.5 219t96 163.5t139.5 99.5t167 35q91 0 158.5 -33.5t128.5 -89.5l-41 -45q-119 110 -246 110q-159 0 -266 -129.5t-107 -329.5q0 -203 102.5 -328.5t270.5 -125.5q148 0 274 119l37 -46q-135 -121 -285 -131l-49 -110q70 -16 107 -48.5t37 -90.5 q0 -150 -283 -168l-12 53q130 9 181.5 35.5t51.5 74.5q0 45 -37.5 70t-121.5 37l69 147q-181 12 -294 148.5t-113 363.5z" horiz-adv-x="913" unicode="ç"/><glyph d="M111 487q0 116 35 214.5t94 164t134.5 102t157.5 36.5q171 0 270 -118t99 -333q0 -41 -4 -66h-721q0 -199 106 -326.5t279 -127.5q144 0 270 90l29 -53q-50 -31 -81 -46.5t-92.5 -32t-129.5 -16.5q-190 0 -318 139.5t-128 372.5zM176 545h664q0 197 -83 299t-225 102 q-137 0 -239 -109.5t-117 -291.5zM319 1483l50 41l270 -316l-37 -32z" horiz-adv-x="978" unicode="è"/><glyph d="M111 487q0 116 35 214.5t94 164t134.5 102t157.5 36.5q171 0 270 -118t99 -333q0 -41 -4 -66h-721q0 -199 106 -326.5t279 -127.5q144 0 270 90l29 -53q-50 -31 -81 -46.5t-92.5 -32t-129.5 -16.5q-190 0 -318 139.5t-128 372.5zM176 545h664q0 197 -83 299t-225 102 q-137 0 -239 -109.5t-117 -291.5zM426 1208l270 316l49 -41l-282 -307z" horiz-adv-x="978" unicode="é"/><glyph d="M111 487q0 116 35 214.5t94 164t134.5 102t157.5 36.5q171 0 270 -118t99 -333q0 -41 -4 -66h-721q0 -199 106 -326.5t279 -127.5q144 0 270 90l29 -53q-50 -31 -81 -46.5t-92.5 -32t-129.5 -16.5q-190 0 -318 139.5t-128 372.5zM176 545h664q0 197 -83 299t-225 102 q-137 0 -239 -109.5t-117 -291.5zM262 1208l242 299h57l242 -299l-37 -32l-229 266h-9l-229 -266z" horiz-adv-x="978" unicode="ê"/><glyph d="M111 487q0 116 35 214.5t94 164t134.5 102t157.5 36.5q171 0 270 -118t99 -333q0 -41 -4 -66h-721q0 -199 106 -326.5t279 -127.5q144 0 270 90l29 -53q-50 -31 -81 -46.5t-92.5 -32t-129.5 -16.5q-190 0 -318 139.5t-128 372.5zM176 545h664q0 197 -83 299t-225 102 q-137 0 -239 -109.5t-117 -291.5zM291 1298q0 28 18.5 47t46.5 19t47 -19t19 -47t-19 -46.5t-47 -18.5t-46.5 18.5t-18.5 46.5zM643 1298q0 28 19 47t47 19t46.5 -19t18.5 -47t-18.5 -46.5t-46.5 -18.5t-47 18.5t-19 46.5z" horiz-adv-x="978" unicode="ë"/><glyph d="M14 1483l49 41l271 -316l-37 -32zM197 0v979h61v-979h-61z" horiz-adv-x="454" unicode="ì"/><glyph d="M121 1208l270 316l49 -41l-282 -307zM197 0v979h61v-979h-61z" horiz-adv-x="454" unicode="í"/><glyph d="M-43 1208l242 299h57l242 -299l-37 -32l-230 266h-8l-229 -266zM197 0v979h61v-979h-61z" horiz-adv-x="454" unicode="î"/><glyph d="M-14 1298q0 28 18.5 47t46.5 19t47 -19t19 -47t-19 -46.5t-47 -18.5t-46.5 18.5t-18.5 46.5zM197 0v979h61v-979h-61zM338 1298q0 28 18.5 47t46.5 19t47 -19t19 -47t-19 -46.5t-47 -18.5t-46.5 18.5t-18.5 46.5z" horiz-adv-x="454" unicode="ï"/><glyph d="M127 446q0 201 117 328t309 127q185 0 313 -162q-50 286 -245 478l-289 -152l-25 45l273 143q-95 86 -261 181l33 45q167 -92 283 -197l291 152l24 -45l-276 -146q276 -279 276 -731q0 -244 -112.5 -390.5t-292.5 -146.5q-80 0 -155 32.5t-133.5 91.5t-94 149.5 t-35.5 197.5zM193 446q0 -179 102.5 -296t249.5 -117q70 0 126.5 25t96 68.5t66 104t39 131t12.5 150.5q0 72 -6 133q-77 113 -158 156t-172 43q-86 0 -155 -32.5t-112 -88t-66 -126.5t-23 -151z" horiz-adv-x="1089" unicode="ð"/><glyph d="M197 0v979h53l8 -156h4q88 88 167.5 134.5t172.5 46.5q151 0 223 -91t72 -282v-631h-61v623q0 165 -57 244t-181 79q-88 0 -163.5 -45.5t-176.5 -150.5v-750h-61zM244 1196q17 250 172 250q43 0 80.5 -21t64.5 -51t52.5 -60.5t56 -51.5t63.5 -21q54 0 82 57t31 144l53 -4 q-17 -250 -170 -250q-44 0 -81.5 21t-64.5 51t-52.5 60.5t-55.5 51.5t-63 21q-55 0 -83.5 -55.5t-31.5 -145.5z" horiz-adv-x="1077" unicode="ñ"/><glyph d="M111 487q0 120 35 219t94.5 163.5t138 99.5t166.5 35t166.5 -35t138 -99.5t94.5 -163.5t35 -219q0 -118 -35 -216t-94.5 -162t-138 -99t-166.5 -35t-166.5 35t-138 99t-94.5 162t-35 216zM176 487q0 -200 105 -327t264 -127t263.5 127t104.5 327q0 201 -105 330t-263 129 t-263.5 -129t-105.5 -330zM332 1483l49 41l270 -316l-37 -32z" horiz-adv-x="1089" unicode="ò"/><glyph d="M111 487q0 120 35 219t94.5 163.5t138 99.5t166.5 35t166.5 -35t138 -99.5t94.5 -163.5t35 -219q0 -118 -35 -216t-94.5 -162t-138 -99t-166.5 -35t-166.5 35t-138 99t-94.5 162t-35 216zM176 487q0 -200 105 -327t264 -127t263.5 127t104.5 327q0 201 -105 330t-263 129 t-263.5 -129t-105.5 -330zM438 1208l271 316l49 -41l-283 -307z" horiz-adv-x="1089" unicode="ó"/><glyph d="M111 487q0 120 35 219t94.5 163.5t138 99.5t166.5 35t166.5 -35t138 -99.5t94.5 -163.5t35 -219q0 -118 -35 -216t-94.5 -162t-138 -99t-166.5 -35t-166.5 35t-138 99t-94.5 162t-35 216zM176 487q0 -200 105 -327t264 -127t263.5 127t104.5 327q0 201 -105 330t-263 129 t-263.5 -129t-105.5 -330zM274 1208l242 299h57l242 -299l-37 -32l-229 266h-8l-230 -266z" horiz-adv-x="1089" unicode="ô"/><glyph d="M111 487q0 120 35 219t94.5 163.5t138 99.5t166.5 35t166.5 -35t138 -99.5t94.5 -163.5t35 -219q0 -118 -35 -216t-94.5 -162t-138 -99t-166.5 -35t-166.5 35t-138 99t-94.5 162t-35 216zM176 487q0 -200 105 -327t264 -127t263.5 127t104.5 327q0 201 -105 330t-263 129 t-263.5 -129t-105.5 -330zM217 1196q17 250 172 250q43 0 80.5 -21t64.5 -51t53 -60.5t56.5 -51.5t63.5 -21q53 0 81 57t31 144l53 -4q-17 -250 -170 -250q-44 0 -81.5 21t-64.5 51t-52.5 60.5t-55.5 51.5t-63 21q-55 0 -83.5 -55.5t-31.5 -145.5z" horiz-adv-x="1089" unicode="õ"/><glyph d="M111 487q0 120 35 219t94.5 163.5t138 99.5t166.5 35t166.5 -35t138 -99.5t94.5 -163.5t35 -219q0 -118 -35 -216t-94.5 -162t-138 -99t-166.5 -35t-166.5 35t-138 99t-94.5 162t-35 216zM176 487q0 -200 105 -327t264 -127t263.5 127t104.5 327q0 201 -105 330t-263 129 t-263.5 -129t-105.5 -330zM303 1298q0 28 19 47t47 19t46.5 -19t18.5 -47t-18.5 -46.5t-46.5 -18.5t-47 18.5t-19 46.5zM655 1298q0 28 19 47t47 19t46.5 -19t18.5 -47t-18.5 -46.5t-46.5 -18.5t-47 18.5t-19 46.5z" horiz-adv-x="1089" unicode="ö"/><glyph d="M70 647v58h827v-58h-827zM418 307q0 31 18.5 50.5t46.5 19.5t47 -20t19 -50q0 -33 -19 -53.5t-47 -20.5t-46.5 20.5t-18.5 53.5zM418 1044q0 31 18.5 50.5t46.5 19.5t47 -20t19 -50q0 -33 -19 -53t-47 -20t-46.5 20t-18.5 53z" unicode="÷"/><glyph d="M94 -8l123 147q-106 138 -106 348q0 120 35 219t94.5 163.5t138 99.5t166.5 35q170 0 291 -121l114 137l45 -37l-121 -145q105 -137 105 -351q0 -118 -35 -216t-94.5 -162t-138 -99t-166.5 -35q-170 0 -289 119l-117 -139zM176 487q0 -175 82 -297l537 644 q-103 112 -250 112q-158 0 -263.5 -129t-105.5 -330zM295 143q104 -110 250 -110q159 0 263.5 127t104.5 327q0 174 -82 299z" horiz-adv-x="1089" unicode="ø"/><glyph d="M180 348v631h62v-623q0 -165 56.5 -244t180.5 -79q90 0 165 49.5t171 163.5v733h62v-979h-54l-8 168h-4q-80 -94 -160.5 -143.5t-175.5 -49.5q-151 0 -223 91t-72 282zM324 1483l49 41l270 -316l-37 -32z" horiz-adv-x="1073" unicode="ù"/><glyph d="M180 348v631h62v-623q0 -165 56.5 -244t180.5 -79q90 0 165 49.5t171 163.5v733h62v-979h-54l-8 168h-4q-80 -94 -160.5 -143.5t-175.5 -49.5q-151 0 -223 91t-72 282zM430 1208l270 316l50 -41l-283 -307z" horiz-adv-x="1073" unicode="ú"/><glyph d="M180 348v631h62v-623q0 -165 56.5 -244t180.5 -79q90 0 165 49.5t171 163.5v733h62v-979h-54l-8 168h-4q-80 -94 -160.5 -143.5t-175.5 -49.5q-151 0 -223 91t-72 282zM266 1208l242 299h57l242 -299l-37 -32l-229 266h-9l-229 -266z" horiz-adv-x="1073" unicode="û"/><glyph d="M180 348v631h62v-623q0 -165 56.5 -244t180.5 -79q90 0 165 49.5t171 163.5v733h62v-979h-54l-8 168h-4q-80 -94 -160.5 -143.5t-175.5 -49.5q-151 0 -223 91t-72 282zM295 1298q0 28 18.5 47t46.5 19t47 -19t19 -47t-19 -46.5t-47 -18.5t-46.5 18.5t-18.5 46.5z M647 1298q0 28 19 47t47 19t46.5 -19t18.5 -47t-18.5 -46.5t-46.5 -18.5t-47 18.5t-19 46.5z" horiz-adv-x="1073" unicode="ü"/><glyph d="M25 979h69l250 -643q106 -263 111 -275h8q19 49 51.5 148.5t42.5 126.5l221 643h66l-393 -1118q-20 -62 -47 -114.5t-65.5 -100t-91 -74.5t-112.5 -27q-50 0 -94 21l16 57q40 -16 82 -16q88 0 154 75t108 203l29 90zM352 1208l271 316l49 -41l-283 -307z" horiz-adv-x="868" unicode="ý"/><glyph d="M197 -455v1934h61v-627q199 152 344 152q195 0 294 -133t99 -367q0 -121 -35 -222t-94.5 -167.5t-138 -103t-166.5 -36.5q-136 0 -303 123v-553h-61zM258 168q164 -135 307 -135q160 0 262.5 132.5t102.5 338.5q0 97 -18.5 175t-56.5 139t-103.5 94.5t-153.5 33.5 q-143 0 -340 -172v-606z" horiz-adv-x="1105" unicode="þ"/><glyph d="M25 979h69l250 -643q106 -263 111 -275h8q19 49 51.5 148.5t42.5 126.5l221 643h66l-393 -1118q-20 -62 -47 -114.5t-65.5 -100t-91 -74.5t-112.5 -27q-50 0 -94 21l16 57q40 -16 82 -16q88 0 154 75t108 203l29 90zM217 1298q0 28 19 47t47 19t46.5 -19t18.5 -47 t-18.5 -46.5t-46.5 -18.5t-47 18.5t-19 46.5zM569 1298q0 28 19 47t47 19t46.5 -19t18.5 -47t-18.5 -46.5t-46.5 -18.5t-47 18.5t-19 46.5z" horiz-adv-x="868" unicode="ÿ"/><glyph d="M115 680q0 311 161 491.5t474 180.5h831v-58h-618v-544h512v-58h-512v-635h639v-57h-852q-158 0 -280 49.5t-199 140.5t-116.5 214.5t-39.5 275.5zM184 680q0 -136 34.5 -248t103 -196.5t180 -131.5t256.5 -47h139v1237h-139q-145 0 -256.5 -45.5t-180 -128.5 t-103 -193.5t-34.5 -246.5z" horiz-adv-x="1695" unicode="Œ"/><glyph d="M111 487q0 119 35 218.5t94 164t135.5 99.5t161.5 35q125 0 231.5 -80t157.5 -228q53 143 151.5 225.5t220.5 82.5q171 0 270 -118t99 -333q0 -41 -4 -66h-705q-3 -195 104 -324.5t265 -129.5q144 0 270 90l29 -53q-50 -31 -81 -46.5t-92.5 -32t-129.5 -16.5 q-133 0 -238.5 82t-158.5 222q-55 -149 -155.5 -226.5t-233.5 -77.5q-85 0 -161.5 35t-135.5 99t-94 162t-35 216zM176 487q0 -200 103 -327t258 -127q158 0 259 126.5t101 327.5q0 202 -101.5 330.5t-258.5 128.5q-155 0 -258 -129t-103 -330zM958 541h648q0 197 -83 301 t-225 104q-130 0 -227.5 -114t-112.5 -291z" horiz-adv-x="1744" unicode="œ"/><glyph d="M8 1352h70l217 -439q121 -241 147 -290h9q118 218 151 290l217 439h66l-406 -795v-557h-65v557zM184 1556q0 30 19 48t47 18t46.5 -18t18.5 -48t-18.5 -47.5t-46.5 -17.5q-29 0 -47.5 17.5t-18.5 47.5zM578 1556q0 30 18.5 48t46.5 18t47 -18t19 -48t-18.5 -47.5 t-47.5 -17.5q-28 0 -46.5 17.5t-18.5 47.5z" horiz-adv-x="892" unicode="Ÿ"/><glyph d="M274 1208l242 299h57l242 -299l-37 -32l-229 266h-8l-230 -266z" horiz-adv-x="1089" unicode="ˆ"/><glyph d="M217 1196q17 250 172 250q43 0 80.5 -21t64.5 -51t53 -60.5t56.5 -51.5t63.5 -21q53 0 81 57t31 144l53 -4q-17 -250 -170 -250q-44 0 -81.5 21t-64.5 51t-52.5 60.5t-55.5 51.5t-63 21q-55 0 -83.5 -55.5t-31.5 -145.5z" horiz-adv-x="1089" unicode="˜"/><glyph horiz-adv-x="889"/><glyph horiz-adv-x="1778"/><glyph horiz-adv-x="889"/><glyph horiz-adv-x="1778"/><glyph horiz-adv-x="592"/><glyph horiz-adv-x="444"/><glyph horiz-adv-x="296"/><glyph horiz-adv-x="296"/><glyph horiz-adv-x="222"/><glyph horiz-adv-x="355"/><glyph horiz-adv-x="98"/><glyph d="M82 479v62h442v-62h-442z" horiz-adv-x="602" unicode="‐"/><glyph d="M82 479v62h442v-62h-442z" horiz-adv-x="602" unicode="‑"/><glyph d="M82 479v62h442v-62h-442z" horiz-adv-x="602" unicode="‒"/><glyph d="M82 483v58h819v-58h-819z" horiz-adv-x="983" unicode="–"/><glyph d="M82 483v58h1474v-58h-1474z" horiz-adv-x="1638" unicode="—"/><glyph d="M119 1143q0 189 160 303l32 -37q-69 -60 -100 -115t-31 -137q4 2 17 2q28 0 48.5 -17t20.5 -48q0 -33 -19 -51.5t-50 -18.5q-35 0 -56.5 31t-21.5 88z" horiz-adv-x="425" unicode="‘"/><glyph d="M115 1049q69 60 100 114.5t31 136.5q-4 -2 -17 -2q-27 0 -48 17t-21 49q0 33 19 51.5t50 18.5q35 0 56.5 -31t21.5 -88q0 -189 -160 -303z" horiz-adv-x="425" unicode="’"/><glyph d="M115 -221q69 60 100 115t31 137q-4 -2 -17 -2q-28 0 -48.5 17t-20.5 48q0 33 19 51.5t50 18.5q35 0 56.5 -31t21.5 -88q0 -189 -160 -303z" horiz-adv-x="425" unicode="‚"/><glyph d="M119 1143q0 189 160 303l32 -37q-69 -60 -100 -115t-31 -137q4 2 17 2q28 0 48.5 -17t20.5 -48q0 -33 -19 -51.5t-50 -18.5q-35 0 -56.5 31t-21.5 88zM381 1143q0 189 160 303l32 -37q-69 -60 -100 -115t-31 -137q4 2 17 2q28 0 48.5 -17t20.5 -48q0 -33 -19 -51.5 t-50 -18.5q-35 0 -56.5 31t-21.5 88z" horiz-adv-x="688" unicode="“"/><glyph d="M115 1049q69 60 100 114.5t31 136.5q-4 -2 -17 -2q-27 0 -48 17t-21 49q0 33 19 51.5t50 18.5q35 0 56.5 -31t21.5 -88q0 -189 -160 -303zM377 1049q69 60 100 114.5t31 136.5q-4 -2 -16 -2q-28 0 -49 17.5t-21 48.5q0 33 19.5 51.5t50.5 18.5q35 0 56 -31t21 -88 q0 -189 -159 -303z" horiz-adv-x="688" unicode="”"/><glyph d="M115 -221q69 60 100 115t31 137q-4 -2 -17 -2q-28 0 -48.5 17t-20.5 48q0 33 19 51.5t50 18.5q35 0 56.5 -31t21.5 -88q0 -189 -160 -303zM377 -221q69 60 100 115t31 137q-4 -2 -16 -2q-28 0 -49 17t-21 48q0 33 19.5 51.5t50.5 18.5q35 0 56 -31t21 -88 q0 -189 -159 -303z" horiz-adv-x="688" unicode="„"/><glyph d="M82 541q0 97 59.5 157t137.5 60t137 -60t59 -157t-59 -157t-137 -60t-137.5 60t-59.5 157z" horiz-adv-x="557" unicode="•"/><glyph d="M221 53q0 38 22 60t52 22t52 -22t22 -60q0 -35 -22.5 -56.5t-51.5 -21.5t-51.5 21.5t-22.5 56.5zM913 53q0 38 22 60t52 22t52 -22t22 -60q0 -35 -22.5 -56.5t-51.5 -21.5t-51.5 21.5t-22.5 56.5zM1606 53q0 38 21.5 60t51.5 22t52 -22t22 -60q0 -35 -22.5 -56.5 t-51.5 -21.5t-51 21.5t-22 56.5z" horiz-adv-x="1892" unicode="…"/><glyph horiz-adv-x="355"/><glyph d="M86 487v58l283 336l41 -37l-254 -328l254 -332l-41 -32z" horiz-adv-x="520" unicode="‹"/><glyph d="M111 184l254 332l-254 328l41 37l282 -336v-58l-282 -335z" horiz-adv-x="520" unicode="›"/><glyph horiz-adv-x="444"/><glyph d="M49 512v49l129 8q-2 29 -2 90q0 49 2 74h-129v49l133 9q26 254 151.5 399t321.5 145q87 0 161.5 -45.5t121.5 -113.5l-45 -41q-101 143 -238 143q-170 0 -274.5 -129t-128.5 -358h588v-58h-592q-2 -25 -2 -74q0 -61 2 -90h510v-57h-504q25 -224 122 -351.5t251 -127.5 q87 0 154 41.5t132 130.5l45 -37q-67 -95 -146.5 -144t-188.5 -49q-178 0 -294.5 144t-144.5 393h-135z" unicode="€"/><glyph d="M4 1327v57h512v-57h-225v-569h-62v569h-225zM627 758v626h90l110 -266l66 -180h8l66 180l106 266h90v-626h-61v348l8 197h-8l-176 -447h-62l-176 447h-8l8 -197v-348h-61z" horiz-adv-x="1228" unicode="™"/><glyph d="M0 0v983h983v-983h-983z" horiz-adv-x="983" unicode="◼"/><glyph d="M70 922v49l135 8v242q0 141 59 211.5t166 70.5q61 0 135 -33l-20 -53q-59 29 -119 29q-160 0 -160 -234v-233h234v-57h-234v-922h-61v922h-135zM713 1298q0 32 20 51t49 19t49.5 -19t20.5 -51q0 -30 -20.5 -49.5t-49.5 -19.5q-28 0 -48.5 19.5t-20.5 49.5zM750 0v979h61 v-979h-61z" horiz-adv-x="1007" unicode="ﬁ"/><glyph d="M70 922v49l135 8v242q0 141 59 211.5t166 70.5q61 0 135 -33l-20 -53q-59 29 -119 29q-160 0 -160 -234v-233h234v-57h-234v-922h-61v922h-135zM713 106v1373h61v-1385q0 -61 41 -61q17 0 37 4l12 -53q-36 -9 -53 -9q-98 0 -98 131z" horiz-adv-x="987" unicode="ﬂ"/><glyph d="M70 922v49l135 8v201q0 150 66.5 226.5t183.5 76.5q81 0 159 -37l-20 -53q-65 32 -143 32q-91 0 -138 -66t-47 -188v-192h471v242q0 141 59.5 211.5t166.5 70.5q61 0 135 -33l-21 -53q-59 29 -119 29q-159 0 -159 -234v-233h233v-57h-233v-922h-62v922h-471v-922h-61v922 h-135zM1208 1298q0 32 20.5 51t49.5 19t49.5 -19t20.5 -51q0 -30 -20.5 -49.5t-49.5 -19.5t-49.5 19.5t-20.5 49.5zM1245 0v979h62v-979h-62z" horiz-adv-x="1503" unicode="ﬃ"/><glyph d="M70 922v49l135 8v201q0 150 66.5 226.5t183.5 76.5q81 0 159 -37l-20 -53q-65 32 -143 32q-91 0 -138 -66t-47 -188v-192h471v242q0 141 59.5 211.5t166.5 70.5q61 0 135 -33l-21 -53q-59 29 -119 29q-159 0 -159 -234v-233h233v-57h-233v-922h-62v922h-471v-922h-61v922 h-135zM1245 106v1373h62v-1385q0 -61 41 -61q16 0 36 4l13 -53q-36 -9 -54 -9q-98 0 -98 131z" horiz-adv-x="1519" unicode="ﬄ"/></font>
</defs>
</svg>
