<?xml version="1.0" standalone="no"?>
<!DOCTYPE svg PUBLIC "-//W3C//DTD SVG 1.1//EN" "http://www.w3.org/Graphics/SVG/1.1/DTD/svg11.dtd" >
<svg xmlns="http://www.w3.org/2000/svg" xmlns:xlink="http://www.w3.org/1999/xlink" version="1.1">
<metadata></metadata>
<defs>
<font id="quran_madina.normal" horiz-adv-x="0" >
<font-face units-per-em="2048" ascent="1638" descent="-410" />
<missing-glyph horiz-adv-x="500" />
<glyph unicode="&#xd;" horiz-adv-x="500" />
<glyph unicode=" "  horiz-adv-x="500" />
<glyph unicode="&#x09;" horiz-adv-x="500" />
<glyph unicode="&#xa0;" horiz-adv-x="500" />
<glyph unicode="!" horiz-adv-x="556" d="M159 535q0 51 36 87t87 36q48 0 86 -36.5t38 -86.5q0 -51 -36 -87t-88 -36q-51 0 -87 36t-36 87z" />
<glyph unicode="&#x22;" horiz-adv-x="574" d="M394 752h-66v310h66v-310zM244 752h-68v310h68v-310z" />
<glyph unicode="#" horiz-adv-x="992" d="M918 1531l-311 -145l-18 29l311 145zM918 965l-64 -66q-30 0 -68 29q-36 30 -42 55l-3 33l1 19q0 7 7 22l67 80q-8 -22 -8 -45q0 -20 9 -48t39 -57l30 -16q15 -6 32 -6zM371 1435l-311 -145l-18 29l311 145zM377 1144l-45 -53q-3 -3 -13 -3l-19 1l-19 1l-21 8l-33 -7 q-15 -3 -43 -22l-42 -28l40 66l13 11l12 8l-27 24q-9 12 -12 29q0 22 14 36l45 54q15 17 35 17q25 0 39.5 -12.5t27.5 -43.5l-44 -51q-6 24 -24 39q-15 15 -44 15h-4q0 -23 26 -45l46 -28l4 -2h48l22 -6zM842 694v-39v-31l-2 -14l-1 -27l-6 -35l-15 -87q-3 -28 -7 -36 l-7 -28l-10 -34l-11 -25l-31 -56q12 -12 33 -63.5t21 -83.5q0 -31 -13 -63l-12 -26l-12 -24q-10 -14 -121 -38q-83 -12 -160 -12q-36 0 -41 4l-4 30q0 38 13 48q3 3 12 3l15 -1q10 0 18 4q44 21 105 96q57 70 69 107q2 5 -61 108l-59 95l-54 82l-45 61q-21 30 -50 59l-44 44 l-58 57l-17 5l-15 -1l-10 -4l-44 42q-36 41 -50 88l-1 13q0 21 9 57l9 29q13 11 120 -95l48 -47l53 -56l87 -99l49 -67l56 -84q41 -67 85 -146l35 -66l31 103l24 107l6 46l2 40v44v22v19v16v13v11l-1 38v17l-4 18l-1 29v18l-4 13l-6 31q0 10 -4 18q-2 13 -7 24l79 -66 q0 -34 2 -37zM754 91q0 7 -23 62l-9 23l-4 13l-10 19q-42 -63 -97 -112l-48 -36q47 0 128 15l25 6zM769 1301l22 45l22 -48q14 -23 41 -23q10 2 12 5l-1 22l-8 21l-4 4l-12 10l21 45q8 -4 20 -34l7 -28l4 -17q0 -13 -2 -16l-5 -16l-6 -12l-11 -14q-14 -15 -36 -15 q-11 0 -37 21l-15 -30q-6 -10 -32 -26l-12 -2q-8 0 -29 12l-16 28l-4 29v10l4 17l21 45l-3 -27l3 -28q3 -15 16 -28t30 -13l11 2l13 9v20z" />
<glyph unicode="$" d="M43 1067l51 28l88 44l-16 -2q-19 0 -27 2l-30 9l-32 8l-24 3q-7 0 -25 -15l-7 -16q0 19 5 24l6 21q15 45 31 46q25 0 34 -5l41 -14l22 -5l23 -2q25 0 30 -8q7 -7 -10.5 -39t-29.5 -40l-39 -15l-51 -15z" />
<glyph unicode="%" horiz-adv-x="992" d="M754 91q0 7 -23 62l-9 23l-4 13l-10 19q-42 -63 -97 -112l-48 -36q47 0 128 15l25 6zM816 1137q-8 -22 -8 -45q0 -20 9 -48t39 -57l30 -16q15 -6 32 -6l-64 -66q-30 0 -68 29q-36 30 -42 55l-3 33l1 19q0 7 7 22zM833 899q0 -34 2 -37l7 -168v-39v-31l-2 -14l-1 -27 l-6 -35l-15 -87q-3 -28 -7 -36l-7 -28l-10 -34l-11 -25l-31 -56q12 -12 33 -63.5t21 -83.5q0 -31 -13 -63l-12 -26l-12 -24q-10 -14 -121 -38q-83 -12 -160 -12q-36 0 -41 4l-4 30q0 38 13 48q3 3 12 3l15 -1q10 0 18 4q44 21 105 96q57 70 69 107q2 5 -61 108l-59 95 l-54 82l-45 61q-21 30 -50 59l-44 44l-58 57l-17 5l-15 -1l-10 -4l-44 42q-36 41 -50 88l-1 13q0 21 9 57l9 29q13 11 120 -95l48 -47l53 -56l87 -99l49 -67l56 -84q41 -67 85 -146l35 -66l31 103l24 107l6 46l2 40v44v22v19v16v13v11l-1 38v17l-4 18l-1 29v18l-4 13l-6 31 q0 10 -4 18q-2 13 -7 24zM329 1230l-44 -51q-6 24 -24 39q-15 15 -44 15h-4q0 -23 26 -45l46 -28l31 -13l29 -5l20 -1q9 0 12 3l-45 -53l-3 2l-13 5l-24 7l-65 -14q-15 -3 -43 -22l-42 -28l40 66q18 18 53 34l50 17h52l22 -6l18 -8l-45 -53q-3 -3 -13 -3l-19 1l-26 3l-36 16 q-15 5 -42.5 26.5t-27.5 44.5q0 22 14 36l45 54q15 17 35 17q25 0 39.5 -12.5t27.5 -43.5zM589 1275l311 145l18 -29l-311 -145zM291 1366l-32 -38l-34 21l-11 -14l-14 -12q-41 -32 -74 -52q-10 -6 -42 -19l-74 -12q16 3 36 16l56 31q63 39 90 63l12 14l-27 21 q-21 20 -24 29l-2 19q0 33 25 59q25 22 51 22q18 0 29.5 -20t11.5 -42q0 -18 -18 -62zM227 1406v6q0 28 -3.5 40t-23.5 21q-18 8 -18 -12q0 -9 4 -16l14 -17z" />
<glyph unicode="&#x26;" horiz-adv-x="992" d="M291 1366l-32 -38l-34 21l-11 -14l-14 -12q-41 -32 -74 -52q-10 -6 -42 -19l-74 -12q16 3 36 16l56 31q63 39 90 63l12 14l-27 21q-21 20 -24 29l-2 19q0 33 25 59q25 22 51 22q18 0 29.5 -20t11.5 -42q0 -18 -18 -62zM377 1144l-45 -53q-3 -3 -13 -3l-19 1l-19 1l-21 8 l-33 -7q-15 -3 -43 -22l-42 -28l40 66l13 11l12 8l-27 24q-9 12 -12 29q0 22 14 36l45 54q15 17 35 17q25 0 39.5 -12.5t27.5 -43.5l-44 -51q-6 24 -24 39q-15 15 -44 15h-4q0 -23 26 -45l46 -28l4 -2h48l22 -6zM965 -103l-316 -143l6 57l310 138v-52zM227 1406v6 q0 28 -3.5 40t-23.5 21q-18 8 -18 -12q0 -9 4 -16l14 -17zM754 91q0 7 -23 62l-9 23l-4 13l-10 19q-42 -63 -97 -112l-48 -36q47 0 128 15l25 6zM816 1137q-8 -22 -8 -45q0 -20 9 -48t39 -57l30 -16q15 -6 32 -6l-64 -66q-30 0 -68 29q-36 30 -42 55l-3 33l1 19q0 7 7 22z M833 899q0 -34 2 -37l7 -168v-39v-31l-2 -14l-1 -27l-6 -35l-15 -87q-3 -28 -7 -36l-7 -28l-10 -34l-11 -25l-31 -56q12 -12 33 -63.5t21 -83.5q0 -31 -13 -63l-12 -26l-12 -24q-10 -14 -121 -38q-83 -12 -160 -12q-36 0 -41 4l-4 30q0 38 13 48q3 3 12 3l15 -1q10 0 18 4 q44 21 105 96q57 70 69 107q2 5 -61 108l-59 95l-54 82l-45 61q-21 30 -50 59l-44 44l-58 57l-17 5l-15 -1l-10 -4l-44 42q-36 41 -50 88l-1 13q0 21 9 57l9 29q13 11 120 -95l48 -47l53 -56l87 -99l49 -67l56 -84q41 -67 85 -146l35 -66l31 103l24 107l6 46l2 40v44v22v19 v16v13v11l-1 38v17l-4 18l-1 29v18l-4 13l-6 31q0 10 -4 18q-2 13 -7 24z" />
<glyph unicode="'" horiz-adv-x="878" d="M1041 -21h-1027l-3 60h1030v-60z" />
<glyph unicode="(" horiz-adv-x="455" d="M374 26q-90 69 -160 178q-54 86 -83.5 183.5t-29.5 148.5q0 96 63 228q75 159 203 262l-60 -121q-32 -74 -63 -176q-15 -52 -23 -100t-8 -93q0 -144 54 -297q21 -63 48 -117q12 -27 27 -51q8 -13 14.5 -23t17.5 -22z" />
<glyph unicode=")" horiz-adv-x="455" d="M425 536q0 -61 -25 -142q-30 -99 -87 -189q-66 -108 -161 -179q51 73 106 213q55 171 55 297l-3 67v15l-4 20q0 12 -2 15q0 9 -5 19q-12 69 -45 150l-17 45l-21 46q-11 28 -57 113q117 -93 203 -262q63 -132 63 -228z" />
<glyph unicode="*" d="M373 482l-65 -83l-86 64l65 86zM544 518l-64 -84l-87 65l66 85z" />
<glyph unicode="+" d="M362 499l68 68l68 -68l-68 -68zM289 631l68 68l68 -68l-68 -68zM209 501l68 68l68 -68l-68 -68z" />
<glyph unicode="," horiz-adv-x="480" d="M249 443l-34 -44l-26 -36l-49 -77q-12 -22 -28 -61l-5 -19l-1 -16q0 -13 15 -37q8 -8 19 -9l21 -3l25 -3q9 0 26 -16q27 -24 27 -56l-1 -20q0 -13 -8 -24l-9 -16l-14 -15q-25 -23 -70 -23l-23 2q-12 0 -37.5 18t-40.5 37q-15 26 -21 46l-5 32v16v15l2 18q5 49 41 109 q43 70 107 120l60 42z" />
<glyph unicode="-" d="M625 470l-39 -59q-31 0 -60 -4t-73 -15l-75 -19l55 49l11 4l11 5l-30 24q-15 15 -15 29l9 23l11 13l45 54q15 17 35 17q28 0 46 -11t18 -36q0 -12 -28 -40l-13 -11q-6 23 -16 30l-22 11l-30 4h-4q0 -21 22 -43q15 -12 42 -27l12 -5l38 3l33 3z" />
<glyph unicode="." horiz-adv-x="480" d="M435 203l-33 -39q-12 15 -73 27t-61 53q0 21 15 39l10 13l18 20l18 9q12 6 22 6q24 0 38 -26l6 -21l2 -29q0 -41 -62 -120.5t-129 -104.5l-90 -25l-49 -12q48 15 131 67t125 86l23 27q16 22 16 47q0 34 -8 50q-11 26 -38 26l-11 -1l-2 -16q0 -36 60 -47.5t72 -28.5z M58 -1h10h-10z" />
<glyph unicode="/" horiz-adv-x="433" d="M2 95q0 33 29.5 60.5t66.5 27.5q38 0 63.5 -28.5t25.5 -67.5q0 -38 -28.5 -63t-68.5 -25q-36 0 -63 28q-25 31 -25 68z" />
<glyph unicode="0" horiz-adv-x="742" d="M508 270l-112 -151l-187 154l115 149z" />
<glyph unicode="1" horiz-adv-x="742" d="M216 858l-36 -126l23 -30l36 -48q58 -84 109 -190q60 -132 60 -236v-71l1 -36l1 -40v-19l2 -20l8 -48l16 94l12 111l4 100v13v11v11l-1 27l-3 34q0 22 -4 38l-12 47q-18 72 -75 168q-14 29 -43 71l-51 76l-34 47z" />
<glyph unicode="2" horiz-adv-x="742" d="M574 844q0 -87 -25 -146q-30 -69 -94 -93q-42 -15 -102 -15l23 -88l31 -165l4 -61l1 -37l-3 -100v-38l-4 -27l-6 -43l-7 -47l-32 164q-40 212 -59 266q-15 66 -45 129l-18 40l-30 55l-16 27l-6 9l32 132q30 -42 59 -65q30 -21 76 -30l30 -3q69 0 130 43t61 93z" />
<glyph unicode="3" horiz-adv-x="742" d="M592 857l4 -14l5 -33l2 -32q0 -37 -9.5 -64t-33.5 -45q-33 -13 -48 -13q-34 0 -57 29l-16 -34q-21 -36 -45 -42l-19 -3l-19 -1q-33 0 -42 5q-7 0 -17 5l39 -97l24 -85l8 -37l9 -50l8 -74l3 -72q0 -65 -7 -99l-24 -111q0 111 -25 224.5t-79 244.5q-24 64 -79 163l-49 87 l35 105l48 -38q57 -39 95 -39q61 0 109 54q12 18 27 54q17 -55 32 -70t49 -15q30 0 54 48q8 16 18 49z" />
<glyph unicode="4" horiz-adv-x="742" d="M665 178q-54 -101 -92 -136q-50 -48 -128 -48q-80 0 -129.5 23.5t-97.5 84.5q-21 29 -21 73q0 56 45 157l36 70l6 11q-56 32 -91 61q-42 36 -58 65l-8 23l-5 32q0 66 68 125q72 63 202 96l-52 -118l-23 2l-23 1q-43 0 -70 -10q-37 -14 -37 -44q0 -21 56 -52l112 -60 q60 -39 60 -74l-1 -11q-6 -31 -88 -113q-74 -69 -74 -123q0 -34 44 -60q50 -30 130 -30q44 0 106.5 12t132.5 43z" />
<glyph unicode="5" horiz-adv-x="742" d="M564 21q-25 -22 -82.5 -42.5t-105.5 -20.5q-41 0 -101 9q-70 12 -104 43l-22 22q-9 9 -19 32l-11 73l-4 74v29l4 43l3 33q0 13 2 15l8 24q33 143 92 216q27 36 57 63l31 22l41 25q83 -36 147 -124q54 -72 97 -185l8 -28l10 -49l4 -46l1 -26l-1 -48l-6 -51l-7 -42 q-12 -35 -42 -61zM590 189q-48 129 -139 235l-46 50l-33 31q-32 24 -70 24q-11 0 -23 -8q-7 -2 -23 -18q-6 -7 -16.5 -23t-25.5 -42l-16 -39l-19 -63q-12 -66 -12 -154v-13q0 -11 52.5 -35.5t109.5 -24.5h13h11l38 1q19 0 34 4q19 0 38 4.5t47 13.5q80 24 80 57z" />
<glyph unicode="6" horiz-adv-x="742" d="M615 -21q-26 23 -71 127l-50 161l-19 81l-24 256l-87 -2l-72 -1q-69 0 -133 16l-28 6q-24 3 -33 11l13 46l8 37l6 36l-1 11l46 -16q76 -17 149 -17l66 2l61 3q24 0 69 6l-4 -55l-4 -120v-40l4 -49q11 -109 25 -160l19 -62l33 -74l7 -18l10 -16l15 -25l19 -32z" />
<glyph unicode="7" horiz-adv-x="742" d="M623 644l-73 -135l-25 -49l-34 -75l-27 -68l-30 -86l-44 -143l-27 -96l-15 58l-38 134l-12 40l-13 35l-25 66q-24 63 -69 135q-33 61 -70 112l-28 40l-5 7l43 178l29 -50l65 -118q42 -73 64 -137l26 -79l20 -59l35 -133l13 -59l36 116l72 209l57 138l55 125l22 47l4 8z " />
<glyph unicode="8" horiz-adv-x="742" d="M118 149l73 135l60 127l32 85l24 66l44 143l27 96l15 -58l38 -134l17 -57l9 -24l24 -61l25 -53q9 -19 18.5 -36t25.5 -45q33 -61 70 -112l28 -40l5 -7l-43 -178l-29 50l-65 118q-42 73 -64 137l-26 79l-20 59l-35 133l-13 59l-36 -116l-72 -209l-57 -138l-55 -125 l-22 -47l-4 -8z" />
<glyph unicode="9" horiz-adv-x="742" d="M607 -10l-56 76q-63 93 -102 186q-24 61 -48 167l-18 95q-25 -18 -53 -27l-29 -6l-33 -2q-39 0 -77.5 15t-55.5 41q-9 29 -9 58q0 64 45 142q42 65 90 81q8 3 19 3q41 0 82 -28q37 -22 62 -89l70 -394q27 -67 73 -131l61 -66l2 -10v-12l-2 -17l-9 -38zM357 596 q0 25 -15 61q-18 36 -61 52l-17 3q-29 0 -60.5 -29t-41.5 -78q0 -12 28 -22q35 -8 60 -8l30 1q16 0 29 4q31 6 48 16z" />
<glyph unicode=":" horiz-adv-x="420" d="M-20 507q0 32 30 64.5t71 32.5t69 -29q14 -16 21 -35l4 -18l3 -18q0 -32 -30 -70q-16 -13 -34 -21l-37 -7q-40 0 -69 29q-28 31 -28 72zM-20 97q0 32 30 64.5t71 32.5t69 -29q14 -16 21 -35l4 -18l3 -18q0 -32 -30 -70q-16 -13 -34 -21l-37 -7q-40 0 -69 29 q-28 31 -28 72z" />
<glyph unicode=";" horiz-adv-x="476" d="M30 97q0 32 30 64.5t71 32.5t69 -29q14 -16 21 -35l4 -18l3 -18q0 -32 -30 -70q-16 -13 -34 -21l-37 -7q-40 0 -69 29q-28 31 -28 72zM259 833l-34 -44l-26 -36l-49 -77q-12 -22 -28 -61l-5 -19l-1 -16q0 -13 15 -37q8 -8 19 -9l21 -3l25 -3q9 0 26 -16q27 -24 27 -56 l-1 -20q0 -13 -8 -24l-9 -16l-14 -15q-25 -23 -70 -23l-23 2q-11 0 -38.5 19.5t-39.5 35.5q-15 26 -21 46l-5 32v16v15l2 18q5 49 41 109q43 70 107 120l60 42z" />
<glyph unicode="&#x3c;" horiz-adv-x="693" d="M574 183v-70l-467 369l463 369v-72l-378 -297z" />
<glyph unicode="=" horiz-adv-x="681" d="M539 410h-400v51h400v-51zM539 233h-400v50h400v-50z" />
<glyph unicode="&#x3e;" horiz-adv-x="693" d="M627 482l-463 -369v72l378 297l-384 307l2 62z" />
<glyph unicode="?" horiz-adv-x="744" d="M482 908q0 -33 -21.5 -56t-54.5 -23q-9 0 -41 18q-27 21 -27 45l3 14q8 22 8 40q0 29 -42 53l-42 7q-72 0 -117.5 -60.5t-45.5 -140.5l2 -38q0 -20 77 -88l29 -25l41 -31l37 -25l46 -28q29 -15 51 -56l16 -38q6 -18 6 -35v-18v-13l-3 -19q0 -9 -7 -23l-28 -60h-49v53 l-3 52q0 13 -2 17q0 7 -8 18q-12 25 -62 56l-82 47l-40 24q-49 31 -85 84q-12 19 -23 53q-4 16 -6 31.5t-2 34.5q0 36 3 62t11 51q15 44 61 98q42 42 97.5 60.5t123.5 18.5q69 0 124 -49t55 -111zM244 76q0 29 27 58.5t63 29.5q28 0 58 -26.5t30 -63.5q0 -36 -27 -63 q-28 -25 -63 -25q-37 0 -63 26q-25 28 -25 64z" />
<glyph unicode="@" horiz-adv-x="993" d="M893 1303q0 -13 -2 -16l-5 -16l-6 -12l-11 -14q-14 -15 -36 -15q-13 0 -37 21l-15 -30q-6 -10 -32 -26l-12 -2q-8 0 -29 12l-16 28l-4 29v10l4 17l21 45l-3 -27l3 -28q3 -15 16 -28t30 -13l11 2l13 9v20q0 6 -7 17l-7 15l22 45l22 -48q14 -23 41 -23q10 2 12 5l-1 22 l-8 21l-4 4l-12 10l21 45q8 -4 20 -34l7 -28zM291 1366l-32 -38l-34 21l-11 -14l-14 -12q-41 -32 -74 -52q-10 -6 -42 -19l-74 -12q16 3 36 16l56 31q63 39 90 63l12 14l-27 21q-21 20 -24 29l-2 19q0 33 25 59q25 22 51 22q18 0 29.5 -20t11.5 -42q0 -18 -18 -62zM377 1144 l-45 -53q-3 -3 -13 -3l-19 1l-19 1l-21 8l-33 -7q-15 -3 -43 -22l-42 -28l40 66l13 11l12 8l-27 24q-9 12 -12 29q0 22 14 36l45 54q15 17 35 17q25 0 39.5 -12.5t27.5 -43.5l-44 -51q-6 24 -24 39q-15 15 -44 15h-4q0 -23 26 -45l46 -28l4 -2h48l22 -6zM963 -268l-402 -185 v57l402 180v-52zM227 1406v6q0 28 -3.5 40t-23.5 21q-18 8 -18 -12q0 -9 4 -16l14 -17zM754 91q0 7 -23 62l-9 23l-4 13l-10 19q-42 -63 -97 -112l-48 -36q47 0 128 15l25 6zM816 1137q-8 -22 -8 -45q0 -20 9 -48t39 -57l30 -16q15 -6 32 -6l-64 -66q-30 0 -68 29 q-36 30 -42 55l-3 33l1 19q0 7 7 22zM833 899q0 -34 2 -37l7 -168v-39v-31l-2 -14l-1 -27l-6 -35l-15 -87q-3 -28 -7 -36l-7 -28l-10 -34l-11 -25l-31 -56q12 -12 33 -63.5t21 -83.5q0 -31 -13 -63l-12 -26l-12 -24q-10 -14 -121 -38q-83 -12 -160 -12q-36 0 -41 4l-4 30 q0 38 13 48q3 3 12 3l15 -1q10 0 18 4q44 21 105 96q57 70 69 107q2 5 -61 108l-59 95l-54 82l-45 61q-21 30 -50 59l-44 44l-58 57l-17 5l-15 -1l-10 -4l-44 42q-36 41 -50 88l-1 13q0 21 9 57l9 29q13 11 120 -95l48 -47l53 -56l87 -99l49 -67l56 -84q41 -67 85 -146 l35 -66l31 103l24 107l6 46l2 40v44v22v19v16v13v11l-1 38v17l-4 18l-1 29v18l-4 13l-6 31q0 10 -4 18q-2 13 -7 24z" />
<glyph unicode="A" horiz-adv-x="51" d="M460 811q-17 -36 -67 -88l-46 -43l21 47q21 62 21 137q6 43 -67 141q-24 33 -76 91l38 143l43 -50l34 -43q39 -53 80 -130q35 -68 35 -129q0 -41 -16 -76z" />
<glyph unicode="B" horiz-adv-x="992" d="M649 -349l311 145l18 -29l-311 -145zM42 1319l311 145l18 -29l-311 -145zM329 1230l-44 -51q-6 24 -24 39q-15 15 -44 15h-4q0 -23 26 -45l46 -28l31 -13l29 -5l20 -1q9 0 12 3l-45 -53l-3 2l-13 5l-24 7l-65 -14q-15 -3 -43 -22l-42 -28l40 66q18 18 53 34l50 17h52 l22 -6l18 -8l-45 -53q-3 -3 -13 -3l-19 1l-26 3l-36 16q-15 5 -42.5 26.5t-27.5 44.5q0 22 14 36l45 54q15 17 35 17q25 0 39.5 -12.5t27.5 -43.5zM862 1382q8 -4 20 -34l7 -28l4 -17q0 -13 -2 -16l-5 -16l-6 -12l-11 -14q-14 -15 -36 -15q-21 0 -41 26l-10 15l-13 30l22 45 l15 -49l2 -12q0 -10 -5 -19l-22 -45q-6 -10 -32 -26l-12 -2q-8 0 -29 12l-16 28l-4 29v10l4 17l21 45l-3 -27l3 -28q3 -15 16 -28t30 -13l11 2l13 9v20q0 6 -7 17l-7 15l22 45l22 -48q14 -23 41 -23q10 2 12 5l-1 22l-8 21l-4 4l-12 10zM754 91q0 7 -23 62l-9 23l-4 13 l-10 19q-42 -63 -97 -112l-48 -36q47 0 128 15l25 6zM816 1137q-8 -22 -8 -45q0 -20 9 -48t39 -57l30 -16q15 -6 32 -6l-64 -66q-30 0 -68 29q-36 30 -42 55l-3 33l1 19q0 7 7 22zM833 899q0 -34 2 -37l7 -168v-39v-31l-2 -14l-1 -27l-6 -35l-15 -87q-3 -28 -7 -36l-7 -28 l-10 -34l-11 -25l-31 -56q12 -12 33 -63.5t21 -83.5q0 -31 -13 -63l-12 -26l-12 -24q-10 -14 -121 -38q-83 -12 -160 -12q-36 0 -41 4l-4 30q0 38 13 48q3 3 12 3l15 -1q10 0 18 4q44 21 105 96q57 70 69 107q2 5 -61 108l-59 95l-54 82l-45 61q-21 30 -50 59l-44 44l-58 57 l-17 5l-15 -1l-10 -4l-44 42q-36 41 -50 88l-1 13q0 21 9 57l9 29q13 11 120 -95l48 -47l53 -56l87 -99l49 -67l56 -84q41 -67 85 -146l35 -66l31 103l24 107l6 46l2 40v44v22v19v16v13v11l-1 38v17l-4 18l-1 29v18l-4 13l-6 31q0 10 -4 18q-2 13 -7 24z" />
<glyph unicode="C" d="M385 -259l311 145l18 -29l-311 -145z" />
<glyph unicode="D" d="M64 1119q-15 21 -15 54q0 41 26.5 86t43.5 49q42 0 78.5 -43t36.5 -81l-1 -10q-6 -43 -35 -66t-62 -23q-48 0 -72 34zM102 1236l-12 -19q-12 -23 -12 -43l3 -18l19 -14q17 -6 35 -6t33 6t21 21q6 18 -24.5 48t-51.5 30q-6 0 -11 -5z" />
<glyph unicode="E" horiz-adv-x="992" d="M754 91q0 7 -23 62l-9 23l-4 13l-10 19q-42 -63 -97 -112l-48 -36q47 0 128 15l25 6zM816 1137q-8 -22 -8 -45q0 -20 9 -48t39 -57l30 -16q15 -6 32 -6l-64 -66q-30 0 -68 29q-36 30 -42 55l-3 33l1 19q0 7 7 22zM833 899q0 -34 2 -37l7 -168v-39v-31l-2 -14l-1 -27 l-6 -35l-15 -87q-3 -28 -7 -36l-7 -28l-10 -34l-11 -25l-31 -56q12 -12 33 -63.5t21 -83.5q0 -31 -13 -63l-12 -26l-12 -24q-10 -14 -121 -38q-83 -12 -160 -12q-36 0 -41 4l-4 30q0 38 13 48q3 3 12 3l15 -1q10 0 18 4q44 21 105 96q57 70 69 107q2 5 -61 108l-59 95 l-54 82l-45 61q-21 30 -50 59l-44 44l-58 57l-17 5l-15 -1l-10 -4l-44 42q-36 41 -50 88l-1 13q0 21 9 57l9 29q13 11 120 -95l48 -47l53 -56l87 -99l49 -67l56 -84q41 -67 85 -146l35 -66l31 103l24 107l6 46l2 40v44v22v19v16v13v11l-1 38v17l-4 18l-1 29v18l-4 13l-6 31 q0 10 -4 18q-2 13 -7 24zM589 1275l311 145l18 -29l-311 -145z" />
<glyph unicode="F" horiz-adv-x="1264" d="M1159 161q-6 -63 -48.5 -113t-88.5 -50h-12l-14 2q-126 15 -168 131q-30 -66 -86 -99.5t-135 -33.5q-81 0 -145 58q-12 13 -50 75q-18 48 -18 89l-47 -20q-55 -20 -97 -20l-22 2l-65 11q-36 11 -36 32q0 40 25 84q29 53 76 81l170 99l16 28l8 21l3 5l21 29l23 25l-3 -77 v-11l-1 -44v-24l-4 -27l-4 -70l3 -91q3 -36 17 -54q10 -24 51 -50q24 -12 73 -18q13 0 17 -2h13q46 0 89 21t69 59q8 16 8 44q0 32 -37 186q-18 78 -18 130q0 40 19 81l38 74l21 -78l26 -224q20 -141 45 -207q9 -24 53.5 -54.5t85.5 -30.5q21 0 36 6t28 25q6 9 6 26 q0 25 -30 115l-58 159q-32 94 -32 141q0 39 21 105t36 69l5 -16l1 -34l1 -16q0 -10 4 -22l3 -27q0 -9 5 -19l15 -50l60 -216q30 -108 30 -180v-18zM398 290l12 120q-74 -24 -136 -54l-83 -46l34 -10l38 -7l38 -3h72h25zM597 1075l311 145l18 -29l-311 -145zM870 1042 q8 -4 20 -34l7 -28l4 -17q0 -13 -2 -16l-5 -16l-6 -12l-11 -14q-14 -15 -36 -15q-21 0 -41 26l-10 15l-13 30l22 45l15 -49l2 -12q0 -10 -5 -19l-22 -45q-6 -10 -32 -26l-12 -2q-8 0 -29 12l-16 28l-4 29v10l4 17l21 45l-3 -27l3 -28q3 -15 16 -28t30 -13l11 2l13 9v20 q0 6 -7 17l-7 15l22 45l22 -48q14 -23 41 -23q10 2 12 5l-1 22l-8 21l-4 4l-12 10z" />
<glyph unicode="G" d="M74 1331l293 136v-37l-293 -137v38z" />
<glyph unicode="H" d="M291 1366l-32 -38l-34 21l-11 -14l-14 -12q-41 -32 -74 -52q-10 -6 -42 -19l-74 -12q16 3 36 16l56 31q63 39 90 63l12 14l-27 21q-21 20 -24 29l-2 19q0 33 25 59q25 22 51 22q18 0 29.5 -20t11.5 -42q0 -18 -18 -62zM227 1406v6q0 28 -3.5 40t-23.5 21q-18 8 -18 -12 q0 -9 4 -16l14 -17z" />
<glyph unicode="I" d="M310 -818l-229 -149v50l229 143v-44z" />
<glyph unicode="J" d="M319 1555l-291 -135v24l291 138v-27zM319 1421l-291 -138v27l291 135v-24z" />
<glyph unicode="K" d="M21 1333q3 12 -4 12l-7 -4l-7 -5l-4 -6l-2 -4l8 1zM233 1282l1 14l-1 23q0 6 -7 20q-5 16 -24 16q-6 0 -10 -7l-6 -18q-3 -15 9 -28zM217 1244l-33 12q-9 3 -16 11q-11 13 -11 29t14 44q9 18 23 32q22 19 42 19q18 0 27 -12.5t9 -30.5l-2 -16l-8 -32l-11 -23l41 -9l31 -9 l-35 -35l-29 8l-31 9l-8 -10q-30 -39 -63.5 -63.5t-72.5 -24.5q-17 0 -44 18q-18 18 -15 43l9 33l6 17l8 17l3 14l1 13q-2 9 -9 9l-14 -5l-14 -6l-47 -42l13 13l22 27l-12 -2l-5 2l-8 4q-8 6 -8 25q0 15 9 30t24 21l11 3l16 4l12 -7q0 -1 1 -1q3 -5 7 -13q0 -13 -5 -21 q6 0 20 -9l4 -24v-16l-4 -11l-9 -41q0 -14 18 -41q19 -19 45 -19q36 0 60 21l33 38z" />
<glyph unicode="L" d="M324 -970l-293 -133v23l293 137v-27zM324 -1068l-293 -135v24l293 138v-27z" />
<glyph unicode="M" d="M27 1335l51 28l88 44l-16 -2q-19 0 -27 2l-30 9l-32 8l-24 3q-7 0 -25 -15l-7 -16q0 19 5 24l6 21q15 45 31 46q25 0 34 -5l41 -14l22 -5l23 -2q25 0 30 -8q7 -7 -10.5 -39t-29.5 -40l-39 -15l-51 -15z" />
<glyph unicode="N" d="M206 1262q8 -4 20 -34l7 -28l4 -17q0 -13 -2 -16l-5 -16l-6 -12l-11 -14q-14 -15 -36 -15q-21 0 -41 26l-10 15l-13 30l22 45l15 -49l2 -12q0 -10 -5 -19l-22 -45q-6 -10 -32 -26l-12 -2q-8 0 -29 12l-16 28l-4 29v10l4 17l21 45l-3 -27l3 -28q3 -15 16 -28t30 -13l11 2 l13 9v20q0 6 -7 17l-7 15l22 45l22 -48q14 -23 41 -23q10 2 12 5l-1 22l-8 21l-4 4l-12 10z" />
<glyph unicode="O" d="M227 1397q30 0 52.5 -18.5t22.5 -50.5q0 -18 -22 -46l-19 -21l-22 -21q-14 -10 -52 -28q-29 -9 -58 -9q-44 0 -102 40q-29 20 -53 20q-21 0 -43 -23l-29 -34q9 38 16 56q24 57 61 57q28 0 84 -33t101 -33q21 0 56 9q26 12 44 34q3 9 -19 27.5t-46 18.5l-10 -1 q-28 -6 -88 -45l-19 -15l-16 -15q27 44 47 65q59 66 114 66z" />
<glyph unicode="P" d="M2 1279l-3 -18q-5 -19 -25 -39l-21 -18l9 21l5 29q0 34 -30 58l35 35q23 -18 80 -41q21 -5 48 -9t43 -4q66 0 146 15t126 47l-27 -33q-28 -18 -116 -47q-69 -18 -133 -18h-20l-11 1q-55 6 -106 21z" />
<glyph unicode="Q" d="M83 1502l41 -45l32 -52l13 -34l4 -35q0 -46 -29 -92q-9 -15 -29 -38l9 27q9 30 9 52q0 36 -34 91l-14 21l-21 28z" />
<glyph unicode="R" d="M90 1343l311 145l18 -29l-311 -145zM363 1310q8 -4 20 -34l7 -28l4 -17q0 -13 -2 -16l-5 -16l-6 -12l-11 -14q-14 -15 -36 -15q-21 0 -41 26l-10 15l-13 30l22 45l15 -49l2 -12q0 -10 -5 -19l-22 -45q-6 -10 -32 -26l-12 -2q-8 0 -29 12l-16 28l-4 29v10l4 17l21 45 l-3 -27l3 -28q3 -15 16 -28t30 -13l11 2l13 9v20q0 6 -7 17l-7 15l22 45l22 -48q14 -23 41 -23q10 2 12 5l-1 22l-8 21l-4 4l-12 10z" />
<glyph unicode="S" d="M224 1292q8 -4 20 -34l7 -28l4 -17q0 -13 -2 -16l-5 -16l-6 -12l-11 -14q-14 -15 -36 -15q-21 0 -41 26l-10 15l-13 30l22 45l15 -49l2 -12q0 -10 -5 -19l-22 -45q-6 -10 -32 -26l-12 -2q-8 0 -29 12l-16 28l-4 29v10l4 17l21 45l-3 -27l3 -28q3 -15 16 -28t30 -13l11 2 l13 9v20q0 6 -7 17l-7 15l22 45l22 -48q14 -23 41 -23q10 2 12 5l-1 22l-8 21l-4 4l-12 10zM271 1546l-32 -38l-34 21l-11 -14l-14 -12q-41 -32 -74 -52q-10 -6 -42 -19l-74 -12q16 3 36 16l56 31q63 39 90 63l12 14l-27 21q-21 20 -24 29l-2 19q0 33 25 59q25 22 51 22 q18 0 29.5 -20t11.5 -42q0 -18 -18 -62zM207 1586v6q0 28 -3.5 40t-23.5 21q-18 8 -18 -12q0 -9 4 -16l14 -17z" />
<glyph unicode="T" d="M324 1268l-293 -135v24l293 138v-27zM224 1462q8 -4 20 -34l7 -28l4 -17q0 -13 -2 -16l-5 -16l-6 -12l-11 -14q-14 -15 -36 -15q-21 0 -41 26l-10 15l-13 30l22 45l15 -49l2 -12q0 -10 -5 -19l-22 -45q-6 -10 -32 -26l-12 -2q-8 0 -29 12l-16 28l-4 29v10l4 17l21 45 l-3 -27l3 -28q3 -15 16 -28t30 -13l11 2l13 9v20q0 6 -7 17l-7 15l22 45l22 -48q14 -23 41 -23q10 2 12 5l-1 22l-8 21l-4 4l-12 10z" />
<glyph unicode="U" d="M296 1578l-293 -135v24l293 138v-27zM296 1488l-293 -135v24l293 138v-27zM170 1189l-15 -30q-6 -10 -32 -26l-12 -2q-8 0 -29 12l-16 28l-4 29v10l4 17l21 45l-3 -27l3 -28q3 -15 16 -28t30 -13l11 2l13 9v20q0 6 -7 17l-7 15l22 45l22 -48q14 -23 41 -23q10 2 12 5 l-1 22l-8 21l-4 4l-12 10l21 45q8 -4 20 -34l7 -28l4 -17q0 -13 -2 -16l-5 -16l-6 -12l-11 -14q-14 -15 -36 -15q-13 0 -37 21z" />
<glyph unicode="V" d="M190 1099l-15 -30q-6 -10 -32 -26l-12 -2q-8 0 -29 12l-16 28l-4 29v10l4 17l21 45l-3 -27l3 -28q3 -15 16 -28t30 -13l11 2l13 9v20q0 6 -7 17l-7 15l22 45l22 -48q14 -23 42 -23l10 3q3 3 3 11l-3 14l-9 20l-3 4l-12 10l21 45q12 -6 21 -33.5t9 -50.5l-1 -11 q-6 -24 -21 -47l-19 -9l-18 -1q-13 0 -37 21zM291 1586l-32 -38l-34 21l-11 -14l-14 -12q-41 -32 -74 -52q-10 -6 -42 -19l-74 -12q16 3 36 16l56 31q63 39 90 63l12 14l-27 21q-21 20 -24 29l-2 19q0 33 25 59q25 22 51 22q18 0 29.5 -20t11.5 -42q0 -18 -18 -62zM227 1626 v6q0 28 -3.5 40t-23.5 21q-18 8 -18 -12q0 -9 4 -16l14 -17zM24 1385l32 38l34 -21l10 13l15 13q41 32 74 52q10 6 42 19l74 12q-15 -5 -91 -48l-26 -15l-5 -2l-26 -18q-20 -11 -34 -27l-12 -14l27 -21q21 -18 24 -30l2 -18q0 -29 -27 -61q-23 -20 -49 -20q-19 0 -30 20 t-11 42q0 18 18 62zM88 1345v-6l3 -35q3 -11 24 -26q18 -8 18 12q0 10 -4 15q-3 10 -14 18z" />
<glyph unicode="W" d="M325 1342l-291 -135v28l291 137v-30zM325 1271l-291 -140v30l291 135v-25zM164 1391l-15 -30q-6 -10 -32 -26l-12 -2q-8 0 -29 12l-16 28l-4 29v10l4 17l21 45l-3 -27l3 -28q3 -15 16 -28t30 -13l11 2l13 9v20q0 6 -7 17l-7 15l22 45l22 -48q14 -23 42 -23l10 3q3 3 3 11 l-3 14l-9 20l-3 4l-12 10l21 45q12 -6 21 -33.5t9 -50.5l-1 -11q-6 -24 -21 -47l-19 -9l-18 -1q-13 0 -37 21z" />
<glyph unicode="X" />
<glyph unicode="Y" horiz-adv-x="724" d="M232 13q-28 15 -46 38t-18 55q0 54 34 88l22 27l24 25l24 19q34 21 49 27l17 4l18 1q25 0 36 -4q15 -3 31 -16q27 -20 27 -52l-1 -12q-6 -24 -39 -56l-32 -15q0 42 -24.5 63t-68.5 21q-13 0 -29.5 -14t-16.5 -35q0 -50 44 -81q27 -21 89 -37l118 31l88 22l-80 -87 l-105 -21q-22 -3 -44 -10l-43 -13q-52 -12 -95 -28l-41 -14l-19 -7l-22 -10l67 78z" />
<glyph unicode="Z" horiz-adv-x="294" d="M293 1048v-932q0 -21 -35 -68l-36 -44v913z" />
<glyph unicode="[" horiz-adv-x="1320" d="M1136 -259l-97 -103l-40 32l-68 58l97 106l67 -59q23 -22 41 -34zM1164 486l49 -50l34 -46q20 -35 20 -69l-6 -34l-51 -141q-18 -51 -98 -97q-46 -30 -125 -52q-93 -26 -231 -39.5t-231 -13.5q-151 0 -261 55q-135 66 -147 190l-1 17v12l6 47q0 13 10 42q9 37 41 86 l11 18l20 27l-23 -53l-5 -27l-2 -28q0 -129 137 -196q106 -50 265 -50q135 0 246 12t216 42l27 8l28 11l50 22q36 18 66 42q-9 20 -40 65q-24 30 -56 59z" />
<glyph unicode="\" horiz-adv-x="1320" d="M752 550l-92 -108l-112 85l91 111zM1164 486l49 -50l34 -46q20 -35 20 -69l-6 -34l-51 -141q-18 -51 -98 -97q-46 -30 -125 -52q-93 -26 -231 -39.5t-231 -13.5q-151 0 -261 55q-135 66 -147 190l-1 17v12l6 47q0 13 10 42q9 37 41 86l11 18l20 27l-23 -53l-5 -27l-2 -28 q0 -129 137 -196q106 -50 265 -50q135 0 246 12t216 42l27 8l28 11l50 22q36 18 66 42q-9 20 -40 65q-24 30 -56 59zM956 576l-92 -108l-112 85l91 111z" />
<glyph unicode="]" horiz-adv-x="1320" d="M752 560l-92 -118l-112 85l91 111zM1164 486l49 -50l34 -46q20 -35 20 -69l-6 -34l-51 -141q-18 -51 -98 -97q-46 -30 -125 -52q-93 -26 -231 -39.5t-231 -13.5q-151 0 -261 55q-135 66 -147 190l-1 17v12l6 47q0 13 10 42q9 37 41 86l11 18l20 27l-23 -53l-5 -27l-2 -28 q0 -129 137 -196q106 -50 265 -50q135 0 246 12t216 42l27 8l28 11l50 22q36 18 66 42q-9 20 -40 65q-24 30 -56 59zM956 586l-92 -108l-112 85l91 111zM826 746l-92 -108l-112 85l91 111z" />
<glyph unicode="^" horiz-adv-x="640" d="M508 629q-17 -36 -67 -88l-46 -43l21 47q21 62 21 137q6 43 -67 141q-24 33 -76 91l38 143l43 -50l34 -43q39 -53 80 -130q35 -68 35 -129q0 -41 -16 -76zM491 129q-18 39 -51 75q-38 44 -63 44q-24 0 -40.5 -14t-16.5 -36q0 -15 21 -33q15 -12 42 -24l33 -10l43 -4h12z M509 73l-30 -34l-37 -29q-29 -13 -72 -13q-48 0 -78 15q-39 18 -46 61l-1 12q0 17 12 59l9 25l15 34q23 54 60 103q49 70 85 70q60 0 106 -56q30 -36 51 -93l13 -42l10 -51q6 -32 6 -74l-1 -30v-29q0 -43 -49 -145l-17 -36q-15 -32 -33 -60l-58 -89q-61 -86 -115 -107 l-54 -11l-47 -9l-54 -5l-52 -2l-79 3l-30 1l-54 9l-23 4l-44 9q159 36 190 47q47 13 70 22l47 17l57 22q27 9 59 25q61 26 123.5 110t89.5 165l-1 21l-6 24l-8 27l-6 15z" />
<glyph unicode="_" horiz-adv-x="976" d="M229 325l-14 -35l-120 19h-69l48 141q32 12 60.5 18t62.5 6q53 0 148 -24l140 -36l108 -15l106 -4l10 2h216l23 4l25 2l-2 -5l-49 -140l-49 -3h-51h-15h-14h-12h-37l-36 1h-11h-39q-162 -39 -279.5 -114t-183.5 -206l-12 -45l-8 -36q-6 -42 -6 -89q0 -183 162 -291 q142 -92 340 -92l226 3l86 3l26 1h18q14 3 21 4l56 6l45 3q9 1 22.5 4t26.5 7q19 3 61 19l-201 -135q-55 -17 -106 -27l-62 -11l-56 -7q-52 -5 -202 -5q-192 0 -345 96q-161 100 -185 287l-4 81q0 72 19 144l4 26l7 19l2 11l8 19l31 68l48 86l58 77q49 58 134 116l-90 22z M620 -56l65 -42l63 -46l-75 -130l-62 46l-66 42z" />
<glyph unicode="`" horiz-adv-x="976" d="M229 325l-14 -35l-120 19h-69l48 141q32 12 60.5 18t62.5 6q53 0 148 -24l140 -36l108 -15l106 -4l10 2h216l23 4l25 2l-2 -5l-49 -140l-49 -3h-51h-15h-14h-12h-37l-36 1h-11h-39q-162 -39 -279.5 -114t-183.5 -206l-12 -45l-8 -36q-6 -42 -6 -89q0 -183 162 -291 q142 -92 340 -92l226 3l86 3l26 1h18q14 3 21 4l56 6l45 3q9 1 22.5 4t26.5 7q19 3 61 19l-201 -135q-55 -17 -106 -27l-62 -11l-56 -7q-52 -5 -202 -5q-192 0 -345 96q-161 100 -185 287l-4 81q0 72 19 144l4 26l7 19l2 11l8 19l31 68l48 86l58 77q49 58 134 116l-90 22z " />
<glyph unicode="a" horiz-adv-x="976" d="M229 325l-14 -35l-120 19h-69l48 141q32 12 60.5 18t62.5 6q53 0 148 -24l140 -36l108 -15l106 -4l10 2h216l23 4l25 2l-2 -5l-49 -140l-49 -3h-51h-15h-14h-12h-37l-36 1h-11h-39q-162 -39 -279.5 -114t-183.5 -206l-12 -45l-8 -36q-6 -42 -6 -89q0 -183 162 -291 q142 -92 340 -92l226 3l86 3l26 1h18q14 3 21 4l56 6l45 3q9 1 22.5 4t26.5 7q19 3 61 19l-201 -135q-55 -17 -106 -27l-62 -11l-56 -7q-52 -5 -202 -5q-192 0 -345 96q-161 100 -185 287l-4 81q0 72 19 144l4 26l7 19l2 11l8 19l31 68l48 86l58 77q49 58 134 116l-90 22z M485 945l65 -42l63 -46l-75 -130l-30 23l-32 22l-66 43z" />
<glyph unicode="b" d="M884 1481l-50 -87l-12 12l50 87zM859 1520l-75 -130l-12 9l75 130zM1023 1237l-305 -144v60l305 135v-51zM700 1489h-40q-32 0 -75.5 -11.5t-60.5 -26.5q-12 -9 -12 -34l4 -38l5 -30l8 -22l35 -117l19 -93q9 -54 9 -85q0 -15 -12 -42l-12 -23q0 79 -24 178l-34 108 q-18 59 -18 116v22q0 13 5 26l9 35q5 16 14 29l12 19q6 9 16 16q25 20 97 35q-25 22 -49 22q-12 0 -24.5 -11.5t-21.5 -34.5l24 66q9 25 17 30q15 15 29 15q12 0 23 -3.5t25 -16.5l55 -66z" />
<glyph unicode="c" horiz-adv-x="789" d="M446 641l23 11l25 7q29 0 65 -23q15 -9 55 -43q72 -60 123 -156t51 -192q0 -22 -10 -39l-75 -130q-29 -50 -139 -69q-69 -12 -169 -12q-84 0 -117 21q-30 21 -45 93l75 130q12 -72 44 -94q34 -20 118 -20h17h14h12h47l24 4l28 1l36 3q20 3 62 22q-9 87 -58 169 q-22 43 -50 73q-18 21 -63 64l-29 24l-26 20q-38 24 -65 24l-25 -6l-23 -12z" />
<glyph unicode="d" horiz-adv-x="789" d="M446 641l23 11l25 7q29 0 65 -23q15 -9 55 -43q72 -60 123 -156t51 -192q0 -22 -10 -39l-75 -130q-29 -50 -139 -69q-69 -12 -169 -12q-84 0 -117 21q-30 21 -45 93l75 130q12 -72 44 -94q34 -20 118 -20h17h14h12h47l24 4l28 1l36 3q20 3 62 22q-9 87 -58 169 q-22 43 -50 73q-18 21 -63 64l-29 24l-26 20q-38 24 -65 24l-25 -6l-23 -12zM398 1018l45 -28l75 -50l-75 -130l-120 78z" />
<glyph unicode="e" horiz-adv-x="640" d="M413 182l79 128q75 -69 103 -161q8 -29 12 -64l4 -84q0 -43 -49 -145l-17 -36q-15 -32 -33 -60l-58 -89q-61 -86 -115 -107l-54 -11l-47 -9l-54 -5l-52 -2l-79 3l-30 1l-54 9l-23 4l-44 9l188 45q123 36 235 87q49 23 128 117q55 74 85 159q0 47 -36 127q-41 84 -89 84z " />
<glyph unicode="f" horiz-adv-x="760" d="M311 719l140 -60l-75 -130l-85 37l-55 27zM413 182l79 128q75 -69 103 -161q8 -29 12 -64l4 -84q0 -43 -49 -145l-17 -36q-15 -32 -33 -60l-58 -89q-61 -86 -115 -107l-54 -11l-47 -9l-54 -5l-52 -2l-79 3l-30 1l-54 9l-23 4l-44 9l188 45q123 36 235 87q49 23 128 117 q55 74 85 159q0 47 -36 127q-41 84 -89 84z" />
<glyph unicode="g" d="M465 -746l-50 -87l-21 6l-25 2l-33 -1q-31 0 -33 -2l-38 -3l-20 -5l-20 -9q-37 -14 -48 -38l-3 -14l-1 -15v-41l4 -29l3 -35l10 -44q39 -191 39 -252l-34 -90l-3 98l-3 39q0 18 -2 21l-6 24l-39 190l-3 31l1 35l2 25q0 20 18 62l8 13l24 33q33 42 83 67q52 23 105 23h12 q10 0 12 2l29 2l15 -1zM267 -673q12 14 29 25q23 10 42 10q27 0 57 -24q9 -7 70 -84l-50 -87l-34 44l-19 23q-39 41 -74 41q-15 0 -35 -19l-8 -20l-4 21l6 37q7 19 20 33zM911 -879l-305 -144v60l305 135v-51z" />
<glyph unicode="h" horiz-adv-x="1770" d="M1383 180l13 45l7 46l36 59l-2 -35l-5 -45q0 -27 44 -63.5t116 -51.5l15 -1h12q13 0 16 2l27 9q0 36 -8.5 54.5t-31.5 35.5l75 130q13 -9 31 -51l10 -42l3 -34q0 -52 -17 -83l-25 -35l-28 -35l-25 -28l-45 -43q-25 -19 -54 -19q-22 0 -30 5q-54 18 -89 37q-17 9 -37 30 l-1 16l1 32l-30 -71q-14 -19 -69 -37l-42 -5l-56 -2h-37q0 -81 -37 -170q-8 -23 -33 -65l-19 -27l-28 -36q-90 -108 -177 -162q-110 -61 -216 -61q-36 0 -75 6q-117 18 -201 120.5t-84 224.5q0 63 60 179q10 19 60 91q-18 -48 -30 -96l-7 -46l-3 -50q0 -113 59 -185 q71 -87 221 -108l54 -4q92 0 179 42t160 121q13 19 27.5 48.5t14.5 47.5q0 70 -36 157q-21 49 -84 128l75 130q52 -74 77 -104q44 -51 113 -51h14l58 1l16 1l10 1l20 7l20 11z" />
<glyph unicode="i" horiz-adv-x="1638" d="M1223 180l13 45l7 46l36 59l-2 -35l-5 -45q0 -27 44 -63.5t116 -51.5l15 -1h12q13 0 16 2l27 9q0 36 -8.5 54.5t-31.5 35.5l75 130q13 -9 31 -51l10 -42l3 -34q0 -52 -17 -83l-25 -35l-28 -35l-25 -28l-45 -43q-25 -19 -54 -19q-22 0 -30 5q-54 18 -89 37q-17 9 -37 30 l-1 16l1 32l-30 -71q-14 -19 -69 -37l-42 -5l-56 -2h-37l-3 -65v-15l-4 -20q0 -11 -2 -15q0 -8 -5 -19l-7 -36l-10 -33q-6 -24 -21 -48q-24 -47 -105 -121q-64 -56 -135 -94q-48 -24 -108 -39l-57 -12l-53 -4q-36 0 -75 6q-117 18 -201 120.5t-84 224.5q0 63 60 179 q10 19 60 91q-18 -48 -30 -96l-7 -46l-3 -50q0 -113 59 -185q71 -87 221 -108l54 -4q92 0 179 42t160 121q13 19 27.5 48.5t14.5 47.5q0 70 -36 157q-21 49 -84 128l75 130q52 -74 77 -104q44 -51 113 -51h14l58 1l16 1l10 1l20 7l20 11zM1294 692q60 -54 126 -93l-84 -124 l-63 43l-36 26l-24 21zM1084 662q60 -54 126 -93l-84 -124l-63 43l-36 26l-24 21zM1154 852q60 -54 126 -93l-84 -124l-63 43l-36 26l-24 21z" />
<glyph unicode="j" horiz-adv-x="1770" d="M1791 355l-1 -21q0 -7 -7 -21l-11 -27q-8 -23 -45 -85l-30 -45q-39 -66 -172 -112l-86 -24l-116 -20q-63 -9 -114 -9q-48 0 -102 9q0 -81 -37 -170l-17 -40l-18 -32q-6 -13 -45 -59q-93 -105 -190 -142q-78 -30 -220 -30q-132 0 -234.5 95.5t-102.5 217.5q0 84 57 186 q18 33 57 84q-18 -48 -30 -96l-7 -46l-3 -50q0 -111 59 -176q71 -77 221 -77l130 3l44 3l18 2q13 0 24 5q108 21 177 96q13 19 27.5 48.5t14.5 47.5q0 70 -36 157q-21 49 -84 128l75 130l66 -92q32 -34 95 -63l85 92q75 78 186 175q108 93 183 108l12 1q51 0 114 -50.5 t63 -100.5zM1716 224q0 45 -60.5 99t-115.5 54l-16 -2q-65 -15 -178 -90q-40 -28 -95 -76q-42 -39 -73 -82l57 -10l84 6q57 6 84 6q63 0 153 24q109 27 160 71z" />
<glyph unicode="k" horiz-adv-x="1750" d="M1791 355l-1 -21q0 -7 -7 -21l-11 -27q-8 -23 -45 -85l-30 -45q-39 -66 -172 -112l-86 -24l-116 -20q-63 -9 -114 -9q-48 0 -102 9q0 -81 -37 -170l-17 -40l-18 -32q-6 -13 -45 -59q-93 -105 -190 -142q-78 -30 -220 -30q-132 0 -234.5 95.5t-102.5 217.5q0 84 57 186 q18 33 57 84q-18 -48 -30 -96l-7 -46l-3 -50q0 -111 59 -176q71 -77 221 -77l130 3l44 3l18 2q13 0 24 5q108 21 177 96q13 19 27.5 48.5t14.5 47.5q0 70 -36 157q-21 49 -84 128l75 130l66 -92q32 -34 95 -63l85 92q75 78 186 175q108 93 183 108l12 1q51 0 114 -50.5 t63 -100.5zM1716 224q0 45 -60.5 99t-115.5 54l-16 -2q-65 -15 -178 -90q-40 -28 -95 -76q-42 -39 -73 -82l57 -10l84 6q57 6 84 6q63 0 153 24q109 27 160 71zM1202 698q60 -54 126 -93l-84 -124l-63 43l-36 26l-24 21z" />
<glyph unicode="l" horiz-adv-x="1014" d="M912 229q0 49 -59 102.5t-109 53.5q-16 0 -24 -5l-23 -9l-25 -16q-28 -15 -61 -40q-57 -39 -126 -93l-111 -90l105 1l120 1q63 0 153 24q109 27 160 71zM320 848q-21 36 -21 91l75 130l3 -70q3 -27 16 -49l2 2v-5q12 -21 31 -33l24 -7l28 -3l-63 -121l-11 3l-9 4l16 -205 l1 -43l1 -42l6 -134v-13v-12q0 -47 -5 -60l-4 -27q0 -10 -4 -22l-16 -41l-8 -13l121 122l76 68l82 65q73 56 137 77l17 2q53 0 112.5 -51.5t59.5 -100.5v-17l-5 -22l-5 -15l-9 -24q-12 -36 -31 -65l-16 -22l-28 -34q-69 -81 -189 -126q-96 -36 -183 -36h-387q-30 0 -83 68 l-44 68h333q8 33 12 81l5 66l1 31l-1 67l-1 71z" />
<glyph unicode="m" horiz-adv-x="1770" d="M912 229q0 49 -59 102.5t-109 53.5q-16 0 -24 -5l-23 -9l-25 -16q-28 -15 -61 -40q-57 -39 -126 -93l-111 -90l105 1l120 1q63 0 153 24q109 27 160 71zM320 848q-21 36 -21 91l75 130l3 -70q3 -27 16 -49l2 2v-5q12 -21 31 -33l24 -7l28 -3l-63 -121l-11 3l-9 4l16 -205 l1 -43l1 -42l6 -134v-13v-12q0 -47 -5 -60l-4 -27q0 -10 -4 -22l-16 -41l-8 -13l121 122l76 68l82 65q73 56 137 77l17 2q53 0 112.5 -51.5t59.5 -100.5v-17l-5 -22l-5 -15l-9 -24q-12 -36 -31 -65l-16 -22l-28 -34q-69 -81 -189 -126q-96 -36 -183 -36h-387q-30 0 -83 68 l-44 68h333q8 33 12 81l5 66l1 31l-1 67l-1 71zM630 810q60 -54 126 -93l-84 -124l-63 43l-36 26l-24 21z" />
<glyph unicode="n" horiz-adv-x="808" d="M426 208q-58 20 -82 38q-82 55 -82 139q0 95 81 202q69 83 173 83q60 0 140 -68q24 -21 68 -68l-120 32q-63 15 -88 15q-59 0 -119.5 -33.5t-69.5 -82.5l-1 -12q0 -57 104 -102q13 -6 105 -34q34 28 121 77q19 10 143 56l-75 -130q-111 -33 -139 -53q-67 -33 -127 -95 q-23 -24 -50 -55q-21 -24 -45 -53q-21 -31 -70 -117l-22 -71q-9 -45 -9 -92q0 -161 140 -238q113 -62 295 -62q99 0 179 11l116 10l75 9l94 12l-75 -39q-87 -44 -132 -60l-74 -24l-70 -20q-118 -26 -203 -26q-93 0 -182 18q-119 27 -186 88q-85 79 -85 209q0 64 16 122 q12 47 46 128q15 39 39 78q11 17 26.5 39.5t34.5 47.5q52 70 110 121z" />
<glyph unicode="o" horiz-adv-x="808" d="M426 208q-58 20 -82 38q-82 55 -82 139q0 95 81 202q69 83 173 83q60 0 140 -68q24 -21 68 -68l-120 32q-63 15 -88 15q-59 0 -119.5 -33.5t-69.5 -82.5l-1 -12q0 -57 104 -102q13 -6 105 -34q34 28 121 77q19 10 143 56l-75 -130q-111 -33 -139 -53q-67 -33 -127 -95 q-23 -24 -50 -55q-21 -24 -45 -53q-21 -31 -70 -117l-22 -71q-9 -45 -9 -92q0 -161 140 -238q113 -62 295 -62q99 0 179 11l116 10l75 9l94 12l-75 -39q-87 -44 -132 -60l-74 -24l-70 -20q-118 -26 -203 -26q-93 0 -182 18q-119 27 -186 88q-85 79 -85 209q0 64 16 122 q12 47 46 128q15 39 39 78q11 17 26.5 39.5t34.5 47.5q52 70 110 121zM426 1062q60 -54 126 -93l-84 -124l-63 43l-36 26l-24 21z" />
<glyph unicode="p" horiz-adv-x="1384" d="M1241 856l-84 -124l-63 43l-36 26l-24 21l81 127q60 -54 126 -93zM1405 331v-18l-1 -24q0 -13 -5 -22q-6 -24 -13 -38q-5 -14 -13 -28q-14 -24 -49 -64q-67 -70 -203 -113q-90 -24 -211 -24l-61 -1l-63 -1l-256 -7q-158 0 -222 8t-113 28t-98 69q-44 49 -44 90 q0 63 42 149l16 27l26 35l2 -2q-15 -51 -15 -89q0 -51 20.5 -85.5t84.5 -59.5q42 -12 102 -24l62 -7l71 -3l141 -4l143 -3h162h17h14h12h11q13 0 28 0.5t35 3.5q29 0 62 6l42 10q143 24 207 74q0 43 -18 82l-19 22q-16 -26 -57 -52q-37 -17 -78 -17q-24 0 -59 13 q-33 14 -52 31q-15 17 -24 36l-7 40l2 20l4 19q9 37 37 88l29 53l37 57q22 34 61 34l24 -3l34 -11q40 -14 93 -95q62 -92 62 -173v-13zM1274 386l-36 59q-14 22 -56 41q-21 6 -36 6q-22 0 -33 -11q-11 -9 -11 -26q0 -18 30 -47l49 -16q33 -6 93 -6z" />
<glyph unicode="q" horiz-adv-x="1088" d="M871 228q-19 40 -44 60q-29 23 -69 23q-12 0 -26 -14q-12 -14 -12 -33q0 -11 4 -19q20 -45 59 -45q32 0 88 28zM886 190q-21 -57 -63.5 -84t-84.5 -27q-56 0 -92 40q-23 32 -23 82q0 52 23 110q18 47 56 85q48 48 101 48q67 0 128 -64.5t102 -189.5l16 -64l10 -54l2 -65 l3 -51q0 -36 -34 -104l-35 -62q-58 -82 -180 -142q-57 -26 -129.5 -39t-115.5 -13l-46 1l-46 6q-127 18 -214 81q-94 73 -94 199q0 53 9 103q3 23 13 48t22 48l5 12q2 10 11 18l29 41l-9 -29l-14 -37q-15 -41 -15 -74q0 -135 84.5 -207.5t247.5 -72.5q140 0 254 36.5 t188 113.5l4 17l1 21q0 97 -73 225zM790 804q60 -54 126 -93l-84 -124l-63 43l-36 26l-24 21zM580 774q60 -54 126 -93l-84 -124l-63 43l-36 26l-24 21z" />
<glyph unicode="r" horiz-adv-x="640" d="M508 649q-17 -36 -67 -88l-46 -43l21 47q21 62 21 137q6 43 -67 141q-24 33 -76 91l38 143l43 -50l34 -43q39 -53 80 -130q35 -68 35 -129q0 -41 -16 -76zM481 129q-18 39 -51 75q-38 44 -63 44q-24 0 -40.5 -14t-16.5 -36q0 -15 21 -33q15 -12 42 -24l33 -10l43 -4h12z M499 73l-30 -34l-37 -29q-29 -13 -72 -13q-48 0 -78 15q-39 18 -46 61l-1 12q0 17 12 59l9 25l15 34q23 54 60 103q49 70 85 70q60 0 106 -56q30 -36 51 -93l13 -42l10 -51q6 -32 6 -74l-1 -30v-29q0 -43 -49 -145l-17 -36q-15 -32 -33 -60l-58 -89q-61 -86 -115 -107 l-54 -11l-47 -9l-54 -5l-52 -2l-79 3l-30 1l-54 9l-23 4l-44 9q159 36 190 47q47 13 70 22l47 17l57 22q27 9 59 25q61 26 123.5 110t89.5 165l-1 21l-6 24l-8 27l-6 15z" />
<glyph unicode="s" horiz-adv-x="1101" d="M723 515q5 -13 5 -29q0 -25 -17 -52l-20 -26l-20 -22l-27 -24l-30 -20l-30 -12l-32 -4l-19 2q-54 12 -95 63q-9 12 -19 50q14 -17 70 -24l84 -4l29 1l20 3l19 5q30 6 30 19q0 16 -48 28q-49 6 -57 13l-13 13q-9 9 -15 21l-5 18l-2 20v15l2 15q6 48 35 86q31 37 71 37 q22 0 37 -6.5t35 -29.5l-40 -51q-23 23 -48 23q-24 0 -40 -23q-3 -5 -3 -11q0 -12 9 -24t26 -18l64 -18q28 -12 44 -34zM949 907q-49 40 -49 99q0 25 2 29l9 32l63 114q0 -111 27 -149l109 -41l-71 -130l-7 2l1 -67l5 -135l12 -241l7 -165q0 -22 -13 -51l-21 -41l-51 -75 q-27 -33 -61 -61q-63 -50 -184 -90q-64 -20 -119 -30l-58 -7l-62 -3q-141 0 -222.5 9.5t-127.5 38.5q-39 21 -57.5 62.5t-18.5 83.5q0 102 49 197q16 34 49 75l-24 -62q-15 -48 -15 -89t18 -78.5t67 -65.5q46 -23 115.5 -36t127.5 -13l59 1l55 7q49 6 112 21.5t110 40.5 q48 20 87 42l45 27q16 10 24 15.5t21 16.5l10 40l3 34l-1 24v30v10z" />
<glyph unicode="t" horiz-adv-x="1378" d="M963 -811q-28 15 -46 38t-18 55q0 54 34 88l22 27l24 26l24 18q34 21 49 27l17 4l18 1q25 0 36 -4q15 -3 31 -16q27 -20 27 -52l-1 -12q-6 -24 -39 -56l-32 -15q0 42 -25 64q-25 20 -68 20q-13 0 -29.5 -14t-16.5 -35q0 -50 44 -81q27 -21 89 -37l118 31l88 22l-80 -87 l-105 -21q-22 -3 -44 -10l-43 -13q-52 -12 -95 -28l-41 -14l-19 -7l-22 -10l67 78zM1283 -885l-423 -120v44l423 119v-43zM1297 506q6 -37 -34 -87q-13 -19 -41 -43q-15 66 -37.5 82.5t-61.5 16.5q-51 0 -101 -32t-85.5 -91.5t-35.5 -115.5q0 -66 75 -99q21 -9 249 -45 q52 -6 74 -17q42 -18 52 -55l3 -22q0 -31 -17 -65q-11 -23 -31 -52l-46 -65q-13 -15 -61 -62l-58 -47q-124 -107 -295 -172q-66 -23 -166 -43l-92 -12l-95 -4q-164 0 -257.5 77.5t-93.5 246.5l1 37l3 19l6 19q11 39 30 87l8 21l11 22l31 51l33 50q-17 -31 -32.5 -82.5 t-15.5 -93.5q0 -169 92 -249q86 -75 259 -75q185 0 349.5 63.5t298.5 179.5q21 17 28 26q16 22 16 40q0 26 -48 40l-62 7l-200 28q-124 32 -124 116q0 44 6 93.5t28 96.5q24 59 75 130q64 85 125 126q73 53 138 53q44 0 70 -29q14 -16 29 -70z" />
<glyph unicode="u" horiz-adv-x="1024" d="M807 838q-18 15 -33 36q-12 21 -12 49q0 34 2 38l13 42l75 130l-12 -41l-3 -39q0 -50 44 -84q23 -20 91 -41l-75 -130l-14 4l24 -275l25 -267l12 -143v-22v-12q0 -8 -2 -12q0 -14 -1 -20q-5 -13 -6 -20q-6 -27 -24 -68q-15 -43 -34 -66l-18 -27l-26 -30 q-69 -78 -171 -111q-81 -27 -193 -27q-126 0 -203 68q-82 73 -82 197q0 42 12 89q3 14 33 81q14 34 46 85l11 20l18 25q-24 -48 -33 -78q-12 -39 -12 -92q0 -122 81.5 -193.5t203.5 -71.5q109 0 175 28q84 36 133 125q5 7 14 38q3 20 3 57l-1 53l-1 51l-6 162v12q0 39 -3 63 q0 27 -22 197l-12 100q0 23 -6 64z" />
<glyph unicode="v" horiz-adv-x="650" d="M323 -871l-10 -2l-11 3l-15 -2q-7 -3 -17 0l-27 169l-19 127l-11 80l-4 33q0 16 -7 43l-22 114l-7 66l-3 77l-3 37l-3 32v26l4 35q3 29 20 59q9 17 28 33l37 32q22 22 73 53q85 37 179 37l21 -1q-27 33 -56 49l-33 15q-15 6 -31 6t-18 -2q-33 -8 -42.5 -15t-50.5 -77 l-7 54l-1 24l6 37q18 52 57 82t86 30q84 0 150 -85q7 -10 21 -33q8 -14 17 -28l52 -100l-51 -141l-79 30l-21 5l-28 6l-55 3l-33 -1h-14l-21 -4l-29 -5q-10 0 -13 -2l-16 -6q-25 -8 -47 -24q-13 -16 -13 -37l1 -44q0 -24 2 -30l6 -34l13 -110l11 -116l9 -89l5 -75l14 -176 l3 -92z" />
<glyph unicode="w" horiz-adv-x="1104" d="M955 322q56 -40 97 -129q29 -76 29 -171q0 -62 -22 -140l-12 -39l-5 -15l-15 -35q-3 -16 -11 -24q-39 -111 -163 -175q-99 -51 -261 -72l-50 -6l-46 -4q-42 0 -72 10q-119 30 -188.5 111.5t-69.5 215.5q0 49 12 106l30 94l63 129l-13 -66l-9 -60l-4 -53q0 -273 230 -336 l18 -4l18 -4l36 -2h27l22 4l47 6q140 17 216 59q97 45 156 127l1 33q0 96 -21 170q-26 81 -91 129zM533 566l136 -98l-59 -145l-85 58l-50 36z" />
<glyph unicode="x" horiz-adv-x="744" d="M340 344l-11 1q-10 0 -16 -5q-37 -27 -58 -99l-2 -17q0 -36 27 -63q28 -25 72 -25l42 1l26 1h18l29 5q21 0 54 17q-18 43 -73 104l-29 26l-21 16zM399 480q78 -45 127.5 -121.5t49.5 -153.5l-3 -38l-4 -17l-7 -18q-14 -39 -41 -66q-36 -45 -107 -61q-41 -9 -113 -9 q-54 0 -87 43q-29 38 -29 86l1 17q15 105 53 185q54 121 126 154l12 2l13 -1z" />
<glyph unicode="y" horiz-adv-x="768" d="M631 129q-18 39 -51 75q-38 44 -63 44q-24 0 -40.5 -14t-16.5 -36q0 -15 21 -33q15 -12 42 -24l33 -10l43 -4h12zM649 73l-30 -34l-37 -29q-29 -13 -72 -13q-48 0 -78 15q-39 18 -46 61l-1 12q0 17 12 59l9 25l15 34q23 54 60 103q49 70 85 70q60 0 106 -56 q30 -36 51 -93l13 -42l10 -51q6 -32 6 -74l-1 -30v-29q0 -43 -49 -145l-17 -36q-15 -32 -33 -60l-58 -89q-61 -86 -115 -107l-54 -11l-47 -9l-54 -5l-52 -2l-79 3l-30 1l-50 8l-29 5l-42 9q159 36 190 47q47 13 70 22l47 17l57 22q27 9 59 25q61 26 123.5 110t89.5 165 l-1 21l-6 24l-8 27l-6 15z" />
<glyph unicode="z" horiz-adv-x="1358" d="M1297 506q6 -37 -34 -87q-13 -19 -41 -43q-15 66 -37.5 82.5t-61.5 16.5q-51 0 -101 -32t-85.5 -91.5t-35.5 -115.5q0 -66 75 -99q21 -9 249 -45q52 -6 74 -17q42 -18 52 -55l3 -22q0 -31 -17 -65q-11 -23 -31 -52l-46 -65q-13 -15 -61 -62l-58 -47q-124 -107 -295 -172 q-66 -23 -166 -43l-92 -12l-95 -4q-164 0 -257.5 77.5t-93.5 246.5l1 37l3 19l6 19q11 39 30 87l8 21l11 22l31 51l33 50q-17 -31 -32.5 -82.5t-15.5 -93.5q0 -169 92 -249q86 -75 259 -75q185 0 349.5 63.5t298.5 179.5q21 17 28 26q16 22 16 40q0 26 -48 40l-62 7l-200 28 q-124 32 -124 116q0 44 6 93.5t28 96.5q24 59 75 130q64 85 125 126q73 53 138 53q44 0 70 -29q14 -16 29 -70zM835 -818q69 -51 143 -91l-90 -107q-65 32 -143 91zM577 -855q78 -45 156 -78l-90 -107q-75 30 -156 78z" />
<glyph unicode="{" horiz-adv-x="696" d="M291 704l-65 -83l-86 64l65 86zM458 728l-64 -84l-87 65l66 85zM340 344l-11 1q-10 0 -16 -5q-37 -27 -58 -99l-2 -17q0 -36 27 -63q28 -25 72 -25l42 1l26 1h18l29 5q21 0 54 17q-18 43 -73 104l-29 26l-21 16zM399 480q78 -45 127.5 -121.5t49.5 -153.5l-3 -38l-4 -17 l-7 -18q-14 -39 -41 -66q-36 -45 -107 -61q-41 -9 -113 -9q-54 0 -87 43q-29 38 -29 86l1 17q15 105 53 185q54 121 126 154l12 2l13 -1z" />
<glyph unicode="|" horiz-adv-x="1358" d="M1297 506q6 -37 -34 -87q-13 -19 -41 -43q-15 66 -37.5 82.5t-61.5 16.5q-51 0 -101 -32t-85.5 -91.5t-35.5 -115.5q0 -66 75 -99q21 -9 249 -45q52 -6 74 -17q42 -18 52 -55l3 -22q0 -31 -17 -65q-11 -23 -31 -52l-46 -65q-13 -15 -61 -62l-58 -47q-124 -107 -295 -172 q-66 -23 -166 -43l-92 -12l-95 -4q-164 0 -257.5 77.5t-93.5 246.5l1 37l3 19l6 19q11 39 30 87l8 21l11 22l31 51l33 50q-17 -31 -32.5 -82.5t-15.5 -93.5q0 -169 92 -249q86 -75 259 -75q185 0 349.5 63.5t298.5 179.5q21 17 28 26q16 22 16 40q0 26 -48 40l-62 7l-200 28 q-124 32 -124 116q0 44 6 93.5t28 96.5q24 59 75 130q64 85 125 126q73 53 138 53q44 0 70 -29q14 -16 29 -70z" />
<glyph unicode="}" horiz-adv-x="448" d="M293 1048v-932q0 -21 -35 -68l-36 -44v913zM260 1164l-33 -7q-15 -3 -43 -22l-42 -28l40 66l13 11l12 8l-27 24q-9 12 -12 29q0 22 14 36l45 54q15 17 35 17q25 0 39.5 -12.5t27.5 -43.5l-44 -51q-6 24 -24 39q-15 15 -44 15h-4q0 -23 26 -45l46 -28l4 -2h48l22 -6l18 -8 l-45 -53q-3 -3 -13 -3l-19 1l-19 1z" />
<glyph unicode="~" horiz-adv-x="448" d="M293 1048v-932q0 -21 -35 -68l-36 -44v913zM248 -234l-33 -7q-15 -3 -43 -22l-42 -28l40 66l13 11l12 8l-27 24q-9 12 -12 29q0 22 14 36l45 54q15 17 35 17q25 0 40 -12l9 -11q9 -12 18 -33l-44 -51q-6 25 -23 39.5t-45 14.5h-4q0 -23 26 -45l46 -28l4 -2h48l22 -6 l18 -8l-45 -53q-3 -3 -13 -3l-19 1q-16 0 -19 2q-7 0 -21 7z" />
<glyph horiz-adv-x="780" d="M564 523l-33 -7q-15 -3 -43 -22l-42 -28l40 66l13 11l12 8l-27 24q-9 12 -12 29q0 22 14 36l45 54q15 17 35 17q25 0 39.5 -12.5t27.5 -43.5l-44 -51q-6 24 -24 39q-15 15 -44 15h-4q0 -23 26 -45l46 -28l4 -2h48l22 -6l18 -8l-45 -53q-3 -3 -13 -3l-19 1l-19 1zM631 129 q-18 39 -51 75q-38 44 -63 44q-24 0 -40.5 -14t-16.5 -36q0 -15 21 -33q15 -12 42 -24l33 -10l43 -4h12zM649 73l-30 -34l-37 -29q-29 -13 -72 -13q-48 0 -78 15q-39 18 -46 61l-1 12q0 17 12 59l9 25l15 34q23 54 60 103q49 70 85 70q60 0 106 -56q30 -36 51 -93l13 -42 l10 -51q6 -32 6 -74l-1 -30v-29q0 -43 -49 -145l-17 -36q-15 -32 -33 -60l-58 -89q-61 -86 -115 -107l-54 -11l-47 -9l-54 -5l-52 -2l-79 3l-30 1l-50 8l-29 5l-42 9q159 36 190 47q47 13 70 22l47 17l57 22q27 9 59 25q61 26 123.5 110t89.5 165l-1 21l-6 24l-8 27l-6 15z " />
<glyph horiz-adv-x="1314" d="M1237 506q6 -37 -34 -87q-13 -19 -41 -43q-15 66 -37.5 82.5t-61.5 16.5q-51 0 -101 -32t-85.5 -91.5t-35.5 -115.5q0 -66 75 -99q21 -9 249 -45q52 -6 74 -17q42 -18 52 -55l3 -22q0 -31 -17 -65q-11 -23 -31 -52l-46 -65q-13 -15 -61 -62l-58 -47q-124 -107 -295 -172 q-66 -23 -166 -43l-92 -12l-95 -4q-164 0 -257.5 77.5t-93.5 246.5l1 37l3 18l6 20q11 39 30 87l8 21l11 22l31 51l33 50q-17 -31 -32.5 -82.5t-15.5 -93.5q0 -169 92 -249q86 -75 259 -75q185 0 349.5 63.5t298.5 179.5q21 17 28 26q16 22 16 40q0 26 -48 40l-62 7l-200 28 q-124 32 -124 116q0 44 6 93.5t28 96.5q24 59 75 130q64 85 125 126q73 53 138 53q44 0 70 -29q14 -16 29 -70zM284 418l-33 -7q-15 -3 -43 -22l-42 -28l40 66l13 11l12 8l-27 24q-9 12 -12 29q0 22 14 36l45 54q15 17 35 17q25 0 39.5 -12.5t27.5 -43.5l-44 -51 q-6 24 -24 39q-15 15 -44 15h-4q0 -23 26 -45l46 -28l4 -2h48l22 -6l18 -8l-45 -53q-3 -3 -13 -3l-19 1l-19 1z" />
<glyph horiz-adv-x="966" d="M595 111q-9 -20 -20 -32q-62 -72 -193 -72q-52 0 -115 38l-55 39l-3 10q3 6 3 17l-22 -27q-30 -32 -109 -62l-62 -17q-11 -3 -30.5 -6.5t-30.5 -4.5v143l35 -1h13q48 0 96 9q55 12 110 42l41 100l40 60l-30 -120q43 -41 76 -60q53 -30 118 -30q35 0 73 9q36 12 65 41 q15 15 27 43q18 39 18 57l33 42v-11q0 -9 -2 -12q0 -10 -7 -30l-9 -31l-3 -16q0 -14 74 -54q82 -44 127 -44l34 3l5 22l3 22q0 12 -12 44l-22 43l49 113q29 -45 39 -69q18 -39 18 -82q0 -20 -12 -49l-75 -130q-11 -18 -35 -33.5t-48 -15.5q-16 0 -19 2q-51 12 -123 63 l-26 19z" />
<glyph horiz-adv-x="966" d="M595 111q-9 -20 -20 -32q-62 -72 -193 -72q-52 0 -115 38l-55 39l-3 10q3 6 3 17l-22 -27q-30 -32 -109 -62l-25 -5l-36 -6l-62 -4v130l35 -1h13q48 0 96 9q55 12 110 42l41 100l40 60l-30 -120q43 -41 76 -60q53 -30 118 -30q35 0 73 9q36 12 65 41q15 15 27 43 q18 39 18 57l33 42q0 -16 -2 -21l-9 -29l-10 -50q0 -14 74 -54q82 -44 127 -44l34 3l5 22l3 22q0 12 -12 44l-22 43l49 113q29 -45 39 -69q18 -39 18 -82q0 -20 -12 -49l-75 -130q-11 -18 -35 -33.5t-48 -15.5q-16 0 -19 2q-51 12 -123 63l-26 19zM674 668q60 -54 126 -93 l-84 -124l-63 43l-36 26l-24 21zM464 638q60 -54 126 -93l-84 -124l-63 43l-36 26l-24 21zM534 828q60 -54 126 -93l-84 -124l-63 43l-36 26l-24 21z" />
<glyph horiz-adv-x="1075" d="M469 109l56 -5h24h20h17h14h11l36 1q19 0 31 4q82 8 142 31l78 27l35 13q28 11 46 22q0 60 -51.5 111t-116.5 51q-21 0 -48 -12l-42 -24l-53 -31q-24 -15 -43 -31l-41 -32l-13 -11l-24 -24l-38 -40zM353 -9q-54 14 -90 30q-45 21 -69 48l-14 18l-14 22l-16 -25l-14 -18 l-22 -23q-33 -24 -69 -36l-25 -5l-22 -2h-8l-4 1v135l67 4h24h16l18 3q10 0 14 2l17 5l28 33q27 32 34 83l19 18q0 -26 15 -58q9 -12 27 -27q29 -21 71 -43q55 -29 95 -39q24 37 61.5 82t119.5 129q46 46 80 73l40 32l44 30q21 11 57 21l27 6l26 4q66 0 117 -51.5t51 -119.5 q0 -36 -16 -65l-75 -130q-30 -51 -128 -87l-90 -31q-31 -12 -131 -29l-80 -3l-84 -4l-35 1l-40 6l-30 -33l-32 -34z" />
<glyph horiz-adv-x="1080" d="M469 109l56 -5h24h20h17h14h11l36 1q19 0 31 4q82 8 142 31l78 27l35 13q28 11 46 22q0 60 -51.5 111t-116.5 51q-21 0 -48 -12l-42 -24l-53 -31q-24 -15 -43 -31l-41 -32l-13 -11l-24 -24l-38 -40zM353 -9q-54 14 -90 30q-45 21 -69 48l-14 18l-14 22l-16 -25l-14 -18 l-22 -23q-33 -24 -69 -36l-25 -5l-22 -2h-8l-4 1v135l67 4h24h16l18 3q10 0 14 2l17 5l28 33q27 32 34 83l19 18q0 -26 15 -58q9 -12 27 -27q29 -21 71 -43q55 -29 95 -39q24 37 61.5 82t119.5 129q46 46 80 73l40 32l44 30q21 11 57 21l27 6l26 4q66 0 117 -51.5t51 -119.5 q0 -36 -16 -65l-75 -130q-30 -51 -128 -87l-90 -31q-31 -12 -131 -29l-80 -3l-84 -4l-35 1l-40 6l-30 -33l-32 -34zM530 892q60 -54 126 -93l-84 -124l-63 43l-36 26l-24 21z" />
<glyph horiz-adv-x="658" d="M363 501q-43 -12 -88 -39q-51 -33 -51 -68q0 -23 37 -56l135 -60l3 23l1 26q0 66 -6.5 99.5t-30.5 74.5zM449 622q95 -83 157 -213q23 -55 39 -128q8 -39 12 -72.5t4 -71.5l-77 -142l-36 23l-90 55l-119 65q-54 -54 -146 -91l-59 -19l-88 -22l-67 -11v130l90 9 q110 14 180 40q-66 27 -87 48l-15 21l-5 23q0 39 25 83l75 130q21 40 56 70l-36 22l75 130l9 -5l3 5q47 -18 89 -70l19 5zM565 182q-29 108 -88 193l-3 -18l-5 -10l-15 -28l-32 -55l74 -40z" />
<glyph horiz-adv-x="390" d="M191 -230l-80 -100l-105 74l80 106zM251 458q44 -24 87 -105l17 -36l15 -39q12 -35 12 -64q0 -22 -5 -31l-51 -141q-6 -18 -38 -31q-31 -11 -103 -11h-33l-28 1h-162v141h207h30h14h13h12h33h25l21 4q-18 54 -51.5 102t-65.5 69zM371 -210l-80 -100l-105 74l80 106z" />
<glyph unicode="&#xa0;" horiz-adv-x="460" d="M321 458q44 -24 87 -105l17 -36l15 -39q12 -35 12 -64q0 -22 -5 -31l-51 -141q-6 -18 -38 -31q-31 -11 -103 -11h-33l-28 1h-206v141h251h30h14h13h12h33h25l21 4q-18 54 -51.5 102t-65.5 69z" />
<glyph unicode="&#xa1;" horiz-adv-x="390" d="M251 458q44 -24 87 -105l17 -36l15 -39q12 -35 12 -64q0 -22 -5 -31l-51 -141q-6 -18 -38 -31q-31 -11 -103 -11h-33l-28 1h-136v141h181h30h14h13h12h33h25l21 4q-18 54 -51.5 102t-65.5 69zM214 568l-33 -7q-15 -3 -43 -22l-42 -28l40 66l13 11l12 8l-27 24 q-9 12 -12 29q0 22 14 36l45 54q15 17 35 17q25 0 39.5 -12.5t27.5 -43.5l-44 -51q-6 24 -24 39q-15 15 -44 15h-4q0 -23 26 -45l46 -28l4 -2h48l22 -6l18 -8l-45 -53q-3 -3 -13 -3l-19 1l-19 1z" />
<glyph unicode="&#xa2;" horiz-adv-x="390" d="M251 458q44 -24 87 -105l17 -36l15 -39q12 -35 12 -64q0 -22 -5 -31l-51 -141q-6 -18 -38 -31q-31 -11 -103 -11h-33l-28 1h-136v141h181h30h14h13h12h33h25l21 4q-18 54 -51.5 102t-65.5 69zM214 568l-33 -7q-15 -3 -43 -22l-42 -28l40 66l13 11l12 8l-27 24 q-9 12 -12 29q0 22 14 36l45 54q15 17 35 17q25 0 39.5 -12.5t27.5 -43.5l-44 -51q-6 24 -24 39q-15 15 -44 15h-4q0 -23 26 -45l46 -28l4 -2h48l22 -6l18 -8l-45 -53q-3 -3 -13 -3l-19 1l-19 1z" />
<glyph unicode="&#xa3;" horiz-adv-x="448" d="M512 130v-134l-29 -2l-44 -1l-38 3q-63 18 -96 45t-63 84l-10 33l-3 39v24l1 26v723l87 121v-836q0 -51 49.5 -90.5t105.5 -39.5l22 1z" />
<glyph unicode="&#xa4;" horiz-adv-x="527" d="M563 -2q-64 0 -125.5 9t-95.5 29q-54 27 -84 72l-18 40q-21 -49 -114 -106q-80 -42 -147 -42v139l26 -1h15q45 0 95 9q67 14 105 49q21 18 39 66l13 43q11 -69 42 -105q16 -20 87 -52q15 -6 40 -9l44 -3h59l-7 3zM343 -269l-85 -95l-98 70l80 105z" />
<glyph unicode="&#xa5;" horiz-adv-x="530" d="M589 -2q-68 0 -142 9q-17 2 -31 4t-35 7.5t-39 17.5q-54 27 -84 72l-18 40q-21 -49 -114 -106q-32 -18 -83 -31l-42 -8l-35 -3v139l39 -1h15q45 0 95 9q67 14 105 49q21 18 39 66l13 43q11 -69 42 -105q16 -20 87 -52l21 -7l19 -2l57 -3h20l32 3zM275 614l-85 -95l-98 70 l80 105zM455 644l-85 -95l-98 70l80 105z" />
<glyph unicode="&#xa6;" horiz-adv-x="528" d="M563 1q-64 0 -125.5 9t-95.5 29q-54 27 -84 72l-18 40q-21 -49 -114 -106l-34 -17l-59 -21q-54 -17 -80 -17l13 152l39 -1h15q45 0 95 9q67 14 105 49q21 18 39 66l13 43q11 -69 42 -105q16 -20 87 -52q15 -6 40 -9l44 -3h33l45 3v-141zM242 593l-80 -107l-100 65l64 110 zM485 623l-84 -107l-87 77l68 109zM342 797l-70 -95l-110 70l80 105z" />
<glyph unicode="&#xa7;" d="M502 743q-6 16 -11 18q-12 14 -29 14q-14 0 -22 -7l-12 -13q0 -31 26 -31q29 0 48 19zM510 719q-3 -19 -11 -32q-13 -22 -44 -22q-21 0 -34.5 10.5t-18.5 25.5l-2 22l3 24q3 18 11 27l12 25l13 19l14 14q15 12 31 12q26 0 45 -40l12 -34l4 -34q0 -23 -6 -46t-22 -46 l-30 -44q-10 -16 -29 -34l-26 -27l-35 -32l-33 -23l-34 -21q-22 -8 -69 -8l-125 11l18 1q10 0 23 4l26 6l34 11q39 12 93 36l45 25l50 35q54 45 92 89l-2 20q0 13 -5 26z" />
<glyph unicode="&#xa8;" horiz-adv-x="900" d="M557 -261l-82 -102l-100 77l78 105zM684 209q32 -42 86 -60t130 -18l28 -6l21 -4l-2 5l-3 7l8 4l13 -138l-78 -3l-67 -3q-48 0 -95 6t-72 20q-77 33 -77 107l1 27l6 29q-38 -15 -88 -46l-145 -86q-55 -26 -140 -39t-132 -13h-135v154l115 -13h71q102 0 149 11l36 7l34 10 q21 6 53 24l38 20l63 36l-82 33q-64 23 -146 43l-46 -7l-35 -7l-46 -9l-69 -16l-21 -6l-30 -10l12 41q15 45 34 70q71 92 168 92q62 0 145 -27l129 -54q81 -33 150 -39l47 -3l56 -1l68 1l53 3l-51 -141l-43 2l-39 1l-66 -3z" />
<glyph unicode="&#xa9;" horiz-adv-x="900" d="M684 209q32 -42 86 -60t130 -18q17 0 20 2l19 3l26 1v-138l-78 -3l-67 -3q-48 0 -95 6t-72 20q-77 33 -77 107l1 27l6 29q-38 -15 -88 -46l-145 -86q-55 -26 -140 -39t-132 -13h-122v141h102h71q102 0 149 11l36 7l34 10q21 6 53 24l38 20l63 36l-82 33q-64 23 -146 43 l-46 -7l-35 -7l-46 -9l-69 -16l-21 -6l-30 -10l12 41q15 45 34 70q71 92 168 92q62 0 145 -27l129 -54q81 -33 150 -39l47 -3l56 -1l68 1l53 3l-51 -141l-43 2l-39 1l-66 -3z" />
<glyph unicode="&#xaa;" horiz-adv-x="900" d="M557 729l-82 -102l-100 77l78 105zM684 209q32 -42 86 -60t130 -18l46 7l42 9l-31 -6l-5 -4l26 -151l-91 10l-67 -3q-48 0 -95 6t-72 20q-77 33 -77 107l1 27l6 29q-38 -15 -88 -46l-145 -86q-55 -26 -140 -39t-132 -13h-109l-13 128l102 13h71q102 0 149 11l36 7l34 10 q21 6 53 24l38 20l63 36l-82 33q-64 23 -146 43l-46 -7l-35 -7l-46 -9l-69 -16l-21 -6l-30 -10l12 41q15 45 34 70q71 92 168 92q62 0 145 -27l129 -54q81 -33 150 -39l47 -3l56 -1l68 1l53 3l-51 -141l-43 2l-39 1l-66 -3z" />
<glyph unicode="&#xab;" horiz-adv-x="32" d="M301 667l-9 -17l-12 -18l-32 -35l-37 -34l16 37l13 53l4 57q6 34 -53 112q-18 26 -61 73l30 115l57 -68l39 -54q58 -99 58 -160q0 -32 -13 -61z" />
<glyph unicode="&#xac;" horiz-adv-x="791" d="M657 210l-3 9l-114 456l81 136l47 -232l30 -130l18 -65l14 -39q33 -93 60 -138q51 -80 125 -80l20 3q6 3 24 3v-136h-119q-66 0 -114 63q-30 39 -61 125l-12 -21q-51 -87 -144 -129q-85 -38 -203 -38q-102 0 -135 12q-41 18 -67 90q0 54 28 97l11 15l18 18q0 -64 35 -87 q27 -18 90 -18l58 1l37 2q86 0 155 19.5t121 63.5z" />
<glyph unicode="&#xad;" horiz-adv-x="846" d="M657 210l-3 9l-114 456l81 136l47 -232l30 -130l18 -65l14 -39q33 -93 60 -138q51 -80 125 -80l20 3q6 3 24 3v-136h-119q-66 0 -114 63q-30 39 -61 125l-12 -21q-51 -87 -144 -129q-85 -38 -203 -38q-102 0 -135 12q-41 18 -67 90q0 54 28 97l11 15l18 18q0 -64 35 -87 q27 -18 90 -18l58 1l37 2q86 0 155 19.5t121 63.5zM531 1119l-82 -102l-100 77l78 105z" />
<glyph unicode="&#xae;" horiz-adv-x="640" d="M685 143v-142q-50 0 -72 6t-63 41l1 -47q0 -43 -49 -145l-17 -36q-15 -32 -33 -60l-58 -89q-61 -86 -115 -107l-54 -11l-47 -9l-54 -5l-52 -2l-79 3l-30 1l-54 9l-23 4l-44 9l188 45q123 36 235 87q49 23 128 117q55 74 85 159q0 33 -33 105q-39 87 -92 106l79 128 q42 -54 109 -100q37 -23 100 -52q38 -15 44 -15z" />
<glyph unicode="&#xaf;" horiz-adv-x="760" d="M424 677l-75 -130l-85 37l-55 27l69 132q37 -25 146 -66zM785 143v-142q-50 0 -72 6t-63 41l1 -47q0 -43 -49 -145l-17 -36q-15 -32 -33 -60l-58 -89q-61 -86 -115 -107l-54 -11l-47 -9l-54 -5l-52 -2l-79 3l-30 1l-54 9l-23 4l-44 9l188 45q123 36 235 87q49 23 128 117 q55 74 85 159q0 33 -33 105q-39 87 -92 106l79 128q51 -57 118 -100q31 -23 96 -52z" />
<glyph unicode="&#xb0;" d="M484 1018q-9 0 -15 10l-11 95l-18 131q-12 73 -27 139l-4 31q0 16 4 28l13 31q20 34 60 61q39 21 93 21q8 0 10 -2q-9 14 -31.5 24t-37.5 10q-20 0 -36 -23l-12 -23l-3 29l3 29q3 12 10 22l25 22q18 13 37 13q42 0 75 -43q10 -13 20.5 -31.5t24.5 -48.5l-25 -72l-40 15 l-22 5l-24 2h-19q-13 0 -21 -2q-18 0 -36 -9q-30 -9 -27 -32l7 -55l10 -94l13 -196z" />
<glyph unicode="&#xb1;" horiz-adv-x="1056" d="M818 157l-17 -24q-32 -58 -86 -93q-59 -41 -125 -41q-38 0 -61 21q-15 21 -15 71q-36 -36 -93 -63q-24 -10 -51.5 -17.5t-43.5 -7.5q-120 0 -120 115q-23 -37 -72 -74q-40 -27 -92 -41l-96 -4l13 130l59 -5h29h31q15 0 39 9l61 21q20 10 47 40l40 61l34 72l13 -11 l-19 -43l-8 -30q0 -48 29 -80q30 -30 87 -30q52 0 91 16q25 9 41 25q8 8 16.5 20.5t22.5 37.5l40 77l6 -2l11 -6l-29 -53l-10 -34q0 -38 13 -58q18 -27 62 -27q45 0 90 21q21 9 40 25l40 39q8 8 16 23l19 36l17 36l13 -8q-3 -3 -6 -14l-3 -14l3 -29q3 -20 15 -46 q12 -16 47 -38q11 -5 35 -10.5t43 -9.5l53 -5l49 -2l13 -130h-127q-78 0 -134 24q-57 30 -70 104v26z" />
<glyph unicode="&#xb2;" horiz-adv-x="1058" d="M818 157l-17 -24q-32 -58 -86 -93q-59 -41 -125 -41q-38 0 -61 21q-15 21 -15 71q-36 -36 -93 -63q-24 -10 -51.5 -17.5t-43.5 -7.5q-120 0 -120 115q-23 -37 -72 -74q-40 -27 -92 -41l-83 -4v130l59 -5h29h31q15 0 39 9l61 21q20 10 47 40l40 61l34 72l13 -11l-19 -43 l-8 -30q0 -48 29 -80q30 -30 87 -30q52 0 91 16q13 4 53 36q15 15 31 47l13 29l29 48l6 -4l8 -7l-21 -30q-12 -22 -22 -51q0 -40 14 -61q18 -27 62 -27q38 0 85.5 21t87.5 64q8 9 38 59l17 36l14 -11l-7 -10l-7 -31q0 -56 63 -97q16 -7 72 -20l48 -5l47 -2v-130h-101 q-78 0 -134 24q-57 30 -70 104v26zM664 675l51 -61l57 -53l-104 -107l-19 17l-36 36l-24 24l-27 32zM452 681q23 -30 52 -61l23 -24l33 -28l-104 -108l-68 67l-38 43zM554 856q23 -30 52 -61l23 -24l33 -28l-104 -108l-68 67l-38 43z" />
<glyph unicode="&#xb3;" horiz-adv-x="1075" d="M973 223q0 60 -51.5 111t-116.5 51q-21 0 -48 -12l-42 -24l-53 -31q-24 -15 -43 -31l-41 -32l-13 -11l-24 -24l-38 -40l-40 -50l56 -5h24h20h17h14h11l36 1q19 0 31 4q82 8 142 31l78 27l35 13q28 11 46 22zM944 131l173 -1v-129h-516l-74 -5l-83 -1l-35 1l-40 6l-30 -33 l-32 -34l40 77l-90 25q-47 17 -69 43l-13 14l-15 21l-16 -23l-15 -19l-21 -19q-34 -24 -70 -39h-71v135l54 -8q11 0 15 -2h14q25 0 55 9l31 12l28 33q27 32 34 83l19 18q0 -26 15 -58l12 -13l18 -16q20 -14 70 -36l46 -18l47 -16q24 37 61.5 82t119.5 129q46 46 80 73l40 32 l44 30q21 11 57 21l27 6l26 4q66 0 117 -51.5t51 -119.5q0 -36 -16 -65l-75 -130z" />
<glyph unicode="&#xb4;" horiz-adv-x="1079" d="M973 223q0 60 -51.5 111t-116.5 51q-21 0 -48 -12l-42 -24l-53 -31q-24 -15 -43 -31l-41 -32l-13 -11l-24 -24l-38 -40l-40 -50l56 -5h24h20h17h14h11l36 1q19 0 31 4q82 8 142 31l78 27l35 13q28 11 46 22zM944 131l199 -1v-129h-542l-74 -5l-83 -1l-35 1l-40 6l-30 -33 l-32 -34l40 77l-90 25q-47 17 -69 43l-13 14l-15 21l-16 -23l-15 -19l-21 -19q-34 -24 -70 -39l-71 -13v148l54 -8q11 0 15 -2h14q25 0 55 9l31 12l28 33q27 32 34 83l19 18q0 -26 15 -58l12 -13l18 -16q20 -14 70 -36l46 -18l47 -16q24 37 61.5 82t119.5 129q46 46 80 73 l40 32l44 30q21 11 57 21l27 6l26 4q66 0 117 -51.5t51 -119.5q0 -36 -16 -65l-75 -130zM571 822l132 -84l-75 -130l-132 84z" />
<glyph unicode="&#xb5;" horiz-adv-x="1027" d="M912 223q0 49 -59 102.5t-109 53.5q-16 0 -24 -5l-23 -9l-25 -16q-28 -15 -61 -40q-57 -39 -126 -93l-111 -90l105 1l120 1q63 0 153 24q109 27 160 71zM870 131h190v-130h-1073v128h353q8 33 12 81l5 66l1 31l-1 67l-1 71l-36 397q-21 36 -21 91l75 130l3 -70 q3 -27 16 -49l2 2v-5q12 -21 31 -33l24 -7l28 -3l-63 -121l-11 3l-9 4l16 -205l1 -43l1 -42l6 -134v-13v-12q0 -47 -5 -60l-4 -27q0 -10 -4 -22l-16 -41l-8 -13l121 122l76 68l82 65q73 56 137 77l17 2q53 0 112.5 -51.5t59.5 -100.5v-17l-5 -22l-5 -15l-9 -24 q-12 -36 -31 -65l-16 -22l-28 -34z" />
<glyph unicode="&#xb6;" horiz-adv-x="1020" d="M892 223q0 49 -59 102.5t-109 53.5q-16 0 -24 -5l-23 -9l-25 -16q-28 -15 -61 -40q-57 -39 -126 -93l-111 -90l105 1l120 1q63 0 153 24q109 27 160 71zM850 131h190v-130l-1073 -8v136h353q8 33 12 81l5 66l1 31l-1 67l-1 71l-36 397q-21 36 -21 91l75 130l3 -70 q3 -27 16 -49l2 2v-5q12 -21 31 -33l24 -7l28 -3l-63 -121l-11 3l-9 4l16 -205l1 -43l1 -42l6 -134v-13v-12q0 -47 -5 -60l-4 -27q0 -10 -4 -22l-16 -41l-8 -13l121 122l76 68l82 65q73 56 137 77l17 2q53 0 112.5 -51.5t59.5 -100.5v-17l-5 -22l-5 -15l-9 -24 q-12 -36 -31 -65l-16 -22l-28 -34zM601 822l132 -84l-75 -130l-132 84z" />
<glyph unicode="&#xb8;" horiz-adv-x="636" d="M398 689l-84 -94l-101 69l80 105zM298 187l-16 16q-39 36 -75 48l-27 6l-35 2h-23l19 52q24 49 57 79q27 19 67 34q35 9 74 9h36q40 0 82 -26q50 -30 50 -74q0 -25 -26 -61l-33 -43q38 -47 118 -80q25 -9 62 -15l66 -5v-130l-101 3q-23 0 -35 2t-44 10q-65 15 -120 65 l-23 20l-24 28l-65 -43l-72 -33l-66 -25l-61 -19l-42 -6l-87 -2h24l-13 130h54h17l71 1l50 7q36 5 75 22q42 12 66 28z" />
<glyph unicode="&#xb9;" horiz-adv-x="558" d="M240 273q6 -19 59 -57q44 -32 105 -59l24 -6q48 -11 63 -14l69 -3q12 0 27 -8l21 -10v-117h-55l-37 -1h-11l-40 1l-19 1q-12 0 -28 4l-36 10l-41 13q-62 21 -122 61q-72 53 -72 115l2 20q8 44 28 89l23 47l16 28l19 30q75 116 125 116h6l5 -2q63 -21 109.5 -76.5 t46.5 -116.5l-1 -22q0 -7 -7 -22q-42 -120 -136 -190q-71 -52 -196 -85q-46 -9 -104 -15q-26 0 -68.5 -2.5t-52.5 -2.5v130q119 0 181 6q93 9 150 34q75 30 134 86q3 3 3 8q0 11 -33 61q-41 53 -94 68q-24 -18 -45 -63.5t-18 -55.5zM279 873l120 -98l-96 -115l-120 98z" />
<glyph unicode="&#xba;" horiz-adv-x="558" d="M240 273q6 -19 59 -57q44 -32 105 -59l47 -16l48 -5h20l23 -2l23 -1l59 -4v-130h-80l-36 -1l-41 1q-24 0 -36 4q-33 6 -90 24q-62 21 -122 61q-72 53 -72 115l2 20q8 44 28 89l23 47l16 28l19 30q75 116 125 116h6l5 -2q63 -21 109.5 -76.5t46.5 -116.5l-1 -22 q0 -7 -7 -22q-42 -120 -133 -190q-75 -57 -191 -85q-46 -9 -98 -15l-54 -4l-84 -1v130h91q50 0 100 6q84 9 146 34q72 29 131 86q3 3 3 8q0 11 -33 61q-41 53 -94 68q-24 -18 -45 -63.5t-18 -55.5zM169 861l120 -98l-96 -115l-120 98zM389 881l120 -98l-96 -115l-120 98z " />
<glyph unicode="&#xbb;" d="M428 736l5 16l2 17l13 20l-1 -12l-1 -16q0 -9 12.5 -21.5t43.5 -18.5l5 -1l10 1l9 3l-3 19q0 6 -11 13l26 45q8 -6 12 -18l4 -26q0 -9 -6 -29l-9 -13l-18 -21l-16 -16l-19 -7l-11 2l-18 7l-12 7l-14 10v6v11l-10 -25l-24 -13l-34 -3h-14q0 -20 -12 -59l-12 -23l-16 -22 q-31 -37 -62 -57q-36 -21 -76 -21h-11h-8l-7 2q-35 6 -71 42q-29 37 -29 79q0 24 21 63l21 31l-11 -33l-3 -34q0 -38 22 -67q23 -27 76 -36l19 -1l29 3q19 3 30 11q31 16 60 43l9 16l6 18l-3 25q-3 19 -10 30l-11 20l-18 25l25 45q19 -28 28 -36q15 -18 39 -18h5l20 1l16 2 l7 5z" />
<glyph unicode="&#xbc;" horiz-adv-x="936" d="M999 1638l-75 -130l-159 -80l-78 -42l-80 -45l-151 -94q-87 -60 -174 -129q-75 -60 -159 -141q-8 -8 -8 -20q0 -10 5 -23l6 -20l-75 -130l-14 37q-11 31 -11 48q0 12 42 93l43 80q29 51 106 122q19 17 150 116l161 109l35 24l36 21l82 46l158 80zM960 1q-170 0 -271 73 q-63 44 -166 156l-149 175l-111 128l-102 115l-56 65l-54 71l75 130q90 -121 151 -192l154 -186l76 -89l82 -86q98 -97 175 -157q49 -35 97 -54l11 -3q7 0 13 -5l21 -5l28 -5l26 -1v-130zM432 347q0 -64 -25 -108l-75 -130q-35 -65 -142 -95q-85 -13 -204 -13v130 q131 0 200 6q51 0 92.5 12t76.5 36l2 32q0 124 -49 222q-33 69 -118 169q-106 127 -139 176l75 130q16 -25 138 -176q77 -92 118 -169q50 -103 50 -222z" />
<glyph unicode="&#xbd;" horiz-adv-x="752" d="M977 1637l-75 -130l-159 -80l-78 -42l-80 -45l-151 -94q-87 -60 -174 -129q-75 -60 -159 -141q-8 -8 -8 -20q0 -10 5 -23l6 -20l-75 -130l-14 37q-11 31 -11 48q0 12 42 93l43 80q29 51 106 122q19 17 150 116l161 109l35 24l36 21l82 46l158 80zM948 0q-170 0 -271 73 q-63 44 -166 156l-149 175q-48 59 -113 128l-108 115q-51 59 -112 136l75 130l53 -70l54 -65l100 -116l109 -128l78 -90l37 -41l42 -43q98 -97 175 -157q49 -35 97 -54l11 -3q7 0 13 -5l21 -5l28 -5l26 -1v-130zM420 346q0 -64 -25 -108l-75 -130q-35 -65 -147 -95 q-88 -13 -209 -13v130q134 0 205 6q120 11 174 48l2 32q0 122 -52 222l-21 36q-13 23 -28 42q-29 42 -73 91q-109 125 -142 176l75 130q9 -16 54 -73l87 -103q88 -103 123 -169q52 -107 52 -222z" />
<glyph unicode="&#xbe;" horiz-adv-x="472" d="M255 257q0 -15 -12 -54l-14 -37l-20 -38q-30 -54 -66 -81q-63 -48 -162 -48l-19 1v115l36 1l41 1l31 7q33 8 69 24q19 8 28 17q17 15 17 39v787l9 17q3 13 11 22l15 23l36 58v-854zM567 133l-75 -130q-103 0 -176 32q-87 36 -118 116q-6 14 -9 42l-5 54l71 130l7 -57 q3 -24 9 -39q27 -75 119 -115q77 -33 177 -33z" />
<glyph unicode="&#xbf;" horiz-adv-x="622" d="M355 298l-24 5l-23 2q-19 0 -28 -5q-12 -3 -23 -20q36 -48 71 -77q18 -15 122 -64q-12 80 -23 93q-21 45 -72 66zM538 212q17 -48 48 -69q7 -4 75 -10l65 -4h-13l-9 2l13 -133h-90l-25 -1q-25 0 -46 11l-33 20l-31 17q-18 12 -27 30l-35 -41l-28 -26q-58 0 -123 46 q-57 39 -103 103l-46 -51l-52 -53l-25 -21l-114 -30l36 2l-6 -4l-26 152l22 -1l35 -1l38 1q16 2 32 6.5t50 27.5l45 35q12 9 31 31l31 41l25 35l48 65q20 22 69 43l27 4q33 0 65 -22q28 -19 45 -50q6 -14 12 -47l10 -70q5 -26 10 -38z" />
<glyph unicode="&#xc0;" horiz-adv-x="538" d="M541 0h-15h-12l-37 1h-11l-19 4q-102 12 -148 61q-6 4 -31 33l-24 49l-23 -35l-47 -47l-50 -27l-62 -29q-33 -12 -53 -12l-13 2v139l16 -1l54 1l38 7q46 12 101 39q21 12 42 45q23 52 28 73q3 -26 15 -59q9 -17 55 -68q23 -21 70 -30l45 -6l48 -2h21l12 1v-139zM227 735 l116 -102l-75 -130l-45 37l-71 65z" />
<glyph unicode="&#xc1;" horiz-adv-x="582" d="M598 133v-130h-262q-109 0 -179 -27t-135 -113l75 130q62 83 134.5 111.5t181.5 28.5h185zM431 347q-12 -64 -24.5 -94t-45.5 -78q-60 -84 -168 -132q-51 -20 -95 -30t-88 -10h-32v130h107q78 0 146 34q38 18 115 84l5 31l2 33q0 16 -1 29t-4 23q-3 23 -18 54l75 130 l12 -33q6 -16 12 -47l5 -32l2 -38q0 -43 -5 -54zM216 -29l22 -48l27 -47q17 -32 34 -50q33 -44 72 -44l20 2l6 3l17 12l7 10l10 14q-15 47 -54 94q-51 54 -126 54l-22 1zM101 49v14v-14zM97 -7l-2 18l1 20l2 18q0 47 10 81l17 55l33 81q39 94 121 180q68 72 126 105 l-75 -130q-18 -18 -64 -75l-50 -82l-11 -26l-15 -50l-7 -41l-3 -45v-18l2 -19l60 25q36 12 68 12l16 -1q66 -6 123 -65.5t57 -132.5v-19l-2 -25q0 -15 -9 -36q-14 -43 -31 -69q-11 -25 -49 -64t-83 -39h-11q-8 0 -10 2q-42 9 -70 34q-20 17 -51 64l-27 46l-23 44l-16 43 l-13 53z" />
<glyph unicode="&#xc2;" horiz-adv-x="674" d="M601 129h87v-130h-87l-36 -99q-48 -117 -109 -199q-84 -116 -182 -147q-24 -8 -61 -12l-69 -4q-71 0 -172 15l-32 6l-47 10l123 26q186 39 284 94.5t164 164.5q40 69 61 145l-80 -2l-64 -2q-76 0 -106 11q-39 9 -55 49q-3 8 -3 21q0 79 65 196q72 129 137 120 q41 -6 111.5 -107.5t70.5 -155.5zM356 255q-25 -13 -46 -31.5t-21 -45.5q0 -30 41 -42l37 -5l60 -2h46q-18 30 -70 82z" />
<glyph unicode="&#xc3;" horiz-adv-x="538" d="M541 0h-15h-12l-37 1h-11l-19 4q-102 12 -148 61q-6 4 -31 33l-24 49l-23 -35l-47 -47l-50 -27l-62 -29q-33 -12 -53 -12l-13 2v139l16 -1l54 1l38 7q46 12 101 39q21 12 42 45q23 52 28 73q3 -26 15 -59q9 -17 55 -68q23 -21 70 -30l45 -6l48 -2h21l12 1v-139zM259 -338 l-65 -83l-86 64l65 86zM430 -302l-64 -84l-87 65l66 85z" />
<glyph unicode="&#xc4;" horiz-adv-x="536" d="M541 0h-15h-12l-37 1h-11l-19 4q-102 12 -148 61q-6 4 -31 33l-24 49l-23 -35l-47 -47l-50 -27l-62 -29q-33 -12 -53 -12l-13 2v139l16 -1l54 1l38 7q46 12 101 39q21 12 42 45q23 52 28 73q3 -26 15 -59q9 -17 55 -68q23 -21 70 -30l45 -6l48 -2h21l12 1v-139zM279 632 l-65 -83l-86 64l65 86zM450 668l-64 -84l-87 65l66 85z" />
<glyph unicode="&#xc5;" horiz-adv-x="538" d="M541 0h-15h-12l-37 1h-11l-19 4q-102 12 -148 61q-6 4 -31 33l-24 49l-23 -35l-47 -47l-50 -27l-62 -29q-33 -12 -53 -12l-13 2v139l16 -1l54 1l38 7q46 12 101 39q21 12 42 45q23 52 28 73q3 -26 15 -59q9 -17 55 -68q23 -21 70 -30l45 -6l48 -2h21l12 1v-139zM259 -288 l-65 -83l-86 64l65 86zM430 -252l-64 -84l-87 65l66 85z" />
<glyph unicode="&#xc6;" horiz-adv-x="438" d="M441 0q-33 0 -63 9q-58 21 -142 87l-25 48l-6 26l-2 21v681q0 19 35 70l29 40l28 34v-788l6 -34l25 -26l26 -13l34 -12l25 -5h15l15 1v-139zM238 1185l-33 -7q-15 -3 -43 -22l-42 -28l40 66l13 11l12 8l-27 24q-9 12 -12 29q0 22 14 36l45 54q15 17 35 17 q25 0 39.5 -12.5t27.5 -43.5l-44 -51q-6 24 -24 39q-15 15 -44 15h-4q0 -23 26 -45l46 -28l4 -2h48l22 -6l18 -8l-45 -53q-3 -3 -13 -3l-19 1l-19 1z" />
<glyph unicode="&#xc7;" horiz-adv-x="438" d="M441 0q-33 0 -63 9q-58 21 -142 87l-25 48l-6 26l-2 21v754q0 19 35 70l29 40l28 34v-861l6 -34l25 -26l26 -13l34 -12l25 -5h15l15 1v-139zM260 -189l4 -7l8 -10q9 -6 21 -6l30 4q16 0 19 2l63 23l-20 -56l-39 -11l-142 -36l19 43l18 9l-7 7l-8 26l3 22l6 16l12 15 l15 16l22 15l20 12q13 3 21 10l14 1h6l10 -3q7 -2 30 -19l-27 -41q-16 19 -20 21l-21 8l-18 -5q-21 -6 -27 -16l-11 -20z" />
<glyph unicode="&#xc8;" horiz-adv-x="819" d="M557 523l-33 -7q-15 -3 -43 -22l-42 -28l40 66l13 11l12 8l-27 24q-9 12 -12 29q0 22 14 36l45 54q15 17 35 17q25 0 39.5 -12.5t27.5 -43.5l-44 -51q-6 24 -24 39q-15 15 -44 15l-3 -3q0 -21 25 -42l46 -28l4 -2h48l22 -6l18 -8l-45 -53q-3 -3 -13 -3l-19 1l-19 1z M751 129h87v-130h-87l-36 -99q-48 -117 -109 -199q-84 -116 -182 -147q-24 -8 -61 -12l-69 -4q-71 0 -172 15l-33 6l-46 10l123 26q186 39 284 94.5t164 164.5q40 69 61 145l-80 -2l-64 -2q-76 0 -106 11q-39 9 -55 49q-3 8 -3 21q0 79 65 196q72 129 137 120 q41 -6 111.5 -107.5t70.5 -155.5zM506 255q-25 -13 -46 -31.5t-21 -45.5q0 -30 41 -42l37 -5l60 -2h46q-18 30 -70 82z" />
<glyph unicode="&#xc9;" horiz-adv-x="538" d="M541 0h-15h-12l-37 1h-11l-19 4q-102 12 -148 61q-6 4 -31 33l-24 49l-23 -35l-47 -47l-50 -27l-62 -29q-33 -12 -53 -12l-13 2v139l16 -1l54 1l38 7q46 12 101 39q21 12 42 45q23 52 28 73q3 -26 15 -59q9 -17 55 -68q23 -21 70 -30l45 -6l48 -2h21l12 1v-139zM254 552 l-33 -7q-15 -3 -43 -22l-42 -28l40 66l13 11l12 8l-27 24q-9 12 -12 29q0 22 14 36l45 54q15 17 35 17q25 0 39.5 -12.5t27.5 -43.5l-44 -51q-6 24 -24 39q-15 15 -44 15h-4q0 -23 26 -45l46 -28l4 -2h48l22 -6l18 -8l-45 -53q-3 -3 -13 -3l-19 1l-19 1z" />
<glyph unicode="&#xca;" horiz-adv-x="129" d="M136 0h-143v139h143v-139z" />
<glyph unicode="&#xcb;" horiz-adv-x="538" d="M541 0h-15h-12l-37 1h-11l-19 4q-102 12 -148 61q-6 4 -31 33l-24 49l-23 -35l-47 -47l-50 -27l-62 -29q-33 -12 -53 -12l-13 2v139l16 -1l54 1l38 7q46 12 101 39q21 12 42 45q23 52 28 73q3 -26 15 -59q9 -17 55 -68q23 -21 70 -30l45 -6l48 -2h21l12 1v-139zM254 568 l-33 -7q-15 -3 -43 -22l-42 -28l40 66l13 11l12 8l-27 24q-9 12 -12 29q0 22 14 36l45 54q15 17 35 17q25 0 39.5 -12.5t27.5 -43.5l-44 -51q-6 24 -24 39q-15 15 -44 15h-4q0 -23 26 -45l46 -28l4 -2h48l22 -6l18 -8l-45 -53q-3 -3 -13 -3l-19 1l-19 1z" />
<glyph unicode="&#xcc;" horiz-adv-x="1305" d="M794 -317l-97 -103l-49 40l-59 50l97 106l56 -51zM1207 332l-2 -17v-13q0 -76 47 -126q12 -14 31 -24l37 -16v-137q-46 0 -82 9q-19 5 -30 13l-14 9l-16 14q-11 11 -25 33l-10 42q-27 -36 -82 -67l-27 -14l-29 -13l-70 -26q-93 -26 -231 -39.5t-231 -13.5q-151 0 -261 55 q-135 66 -147 190l-1 17v12l6 47q0 13 10 42q9 37 41 86l11 18l20 27l-23 -53l-5 -27l-2 -28q0 -129 137 -196q106 -50 265 -50q135 0 246 12q68 6 120 15l52 10l55 13q80 21 139 78q16 19 71 118z" />
<glyph unicode="&#xcd;" horiz-adv-x="1305" d="M679 632l-97 -103l-49 39l-59 51l97 106l56 -51zM1207 332l-2 -17v-13q0 -76 47 -126q12 -14 31 -24l37 -16v-137q-46 0 -82 9q-19 5 -30 13l-14 9l-16 14q-11 11 -25 33l-10 42q-27 -36 -82 -67l-27 -14l-29 -13l-70 -26q-93 -26 -231 -39.5t-231 -13.5q-151 0 -261 55 q-135 66 -147 190l-1 17v12l6 47q0 13 10 42q9 37 41 86l11 18l20 27l-23 -53l-5 -27l-2 -28q0 -129 137 -196q106 -50 265 -50q135 0 246 12q68 6 120 15l52 10l55 13q80 21 139 78q16 19 71 118zM899 642l-97 -103l-49 39l-59 51l97 106l56 -51z" />
<glyph unicode="&#xce;" horiz-adv-x="1305" d="M679 632l-97 -103l-49 39l-59 51l97 106l56 -51zM1207 332l-2 -17v-13q0 -76 47 -126q12 -14 31 -24l37 -16v-137q-46 0 -82 9q-19 5 -30 13l-14 9l-16 14q-11 11 -25 33l-10 42q-27 -36 -82 -67l-27 -14l-29 -13l-70 -26q-93 -26 -231 -39.5t-231 -13.5q-151 0 -261 55 q-135 66 -147 190l-1 17v12l6 47q0 13 10 42q9 37 41 86l11 18l20 27l-23 -53l-5 -27l-2 -28q0 -129 137 -196q106 -50 265 -50q135 0 246 12q68 6 120 15l52 10l55 13q80 21 139 78q16 19 71 118zM899 642l-97 -103l-49 39l-59 51l97 106l56 -51zM779 822l-97 -103l-49 39 l-59 51l97 106l56 -51z" />
<glyph unicode="&#xcf;" d="M308 460l-33 -7q-15 -3 -43 -22l-42 -28l40 66l13 11l12 8l-27 24q-9 12 -12 29q0 22 14 36l45 54q15 17 35 17q25 0 39.5 -12.5t27.5 -43.5l-44 -51q-6 24 -24 39q-15 15 -44 15h-4q0 -23 26 -45l46 -28l4 -2h48l22 -6l18 -8l-45 -53q-3 -3 -13 -3l-19 1l-19 1z" />
<glyph unicode="&#xd0;" horiz-adv-x="1040" d="M613 -203l-75 -130l-30 23l-32 22l-66 43l75 130l65 -42zM677 256q42 -69 146 -105.5t237 -36.5v-134q-105 0 -164 6.5t-113 21.5t-97 40q-112 65 -112 184q-109 -33 -196 -87q-118 -78 -183 -209l-12 -45l-8 -36q-6 -42 -6 -89q0 -183 162 -291q142 -92 340 -92l226 3 l86 3l26 1h18q14 3 21 4l56 6l45 3q9 1 22.5 4t26.5 7q19 3 61 19l-201 -135q-55 -17 -106 -27l-62 -11l-56 -7q-52 -5 -202 -5q-192 0 -345 96q-161 100 -185 287l-4 81q0 72 19 144l4 26l7 19l2 11l8 19l31 68l48 86l58 77q49 58 134 116l-90 22l-90 25l-14 -35l-120 19 h-69l48 141q32 12 60.5 18t62.5 6q53 0 148 -24l140 -36l108 -15l106 -4l10 2h216l23 4l25 2l-2 -5l-49 -140l-49 -3h-51h-15h-14h-12h-37l-36 1h-11h-20z" />
<glyph unicode="&#xd1;" horiz-adv-x="1040" d="M677 256q42 -69 146 -105.5t237 -36.5v-134q-105 0 -164 6.5t-113 21.5t-97 40q-112 65 -112 184q-109 -33 -196 -87q-118 -78 -183 -209l-12 -45l-8 -36q-6 -42 -6 -89q0 -183 162 -291q142 -92 340 -92l226 3l86 3l26 1h18q14 3 21 4l56 6l45 3q9 1 22.5 4t26.5 7 q19 3 61 19l-201 -135q-55 -17 -106 -27l-62 -11l-56 -7q-52 -5 -202 -5q-192 0 -345 96q-161 100 -185 287l-4 81q0 72 19 144l4 26l7 19l2 11l8 19l31 68l48 86l58 77q49 58 134 116l-90 22l-90 25l-14 -35l-120 19h-69l48 141q32 12 60.5 18t62.5 6q53 0 148 -24l140 -36 l108 -15l106 -4l10 2h216l23 4l25 2l-2 -5l-49 -140l-49 -3h-51h-15h-14h-12h-37l-36 1h-11h-20z" />
<glyph unicode="&#xd2;" horiz-adv-x="1040" d="M613 867l-75 -130q-49 39 -128 88l75 130l14 -7l13 -9q16 -8 27 -19zM677 256q42 -69 146 -105.5t237 -36.5v-134q-105 0 -164 6.5t-113 21.5t-97 40q-112 65 -112 184q-109 -33 -196 -87q-118 -78 -183 -209l-12 -45l-8 -36q-6 -42 -6 -89q0 -183 162 -291 q142 -92 340 -92l226 3l86 3l26 1h18q14 3 21 4l56 6l45 3q9 1 22.5 4t26.5 7q19 3 61 19l-201 -135q-55 -17 -106 -27l-62 -11l-56 -7q-52 -5 -202 -5q-192 0 -345 96q-161 100 -185 287l-4 81q0 72 19 144l4 26l7 19l2 11l8 19l31 68l48 86l58 77q49 58 134 116l-90 22 l-90 25l-14 -35l-120 19h-69l48 141q32 12 60.5 18t62.5 6q53 0 148 -24l140 -36l108 -15l106 -4l10 2h216l23 4l25 2l-2 -5l-49 -140l-49 -3h-51h-15h-14h-12h-37l-36 1h-11h-20z" />
<glyph unicode="&#xd3;" d="M588 970q-58 0 -123 46q-57 39 -103 103l-46 -51l-52 -53l-25 -21l-23 -17l-29 -11l-111 -19v144l92 10q22 0 85 18q21 6 53 28l45 35q12 9 31 31l31 41l25 35l47 71q20 27 70 41l16 1q38 0 72 -22q22 -13 49 -51q17 -34 17 -101v-22v-12q0 -9 -2 -12q0 -12 -6 -36 q-6 -39 -18 -63t-42.5 -60.5t-52.5 -52.5zM628 1101h4l3 2l2 15q0 46 -23 81q-27 46 -74 62l-23 4l-23 2q-19 0 -28 -5q-12 -3 -23 -20q45 -63 90 -93q11 -7 32.5 -17.5t62.5 -30.5z" />
<glyph unicode="&#xd4;" horiz-adv-x="1770" d="M1516 57l-29 -29l-16 -14q-25 -19 -54 -19q-22 0 -30 5q-54 18 -89 37q-17 9 -37 30l-1 16l1 32l-30 -71q-14 -19 -69 -37l-42 -5l-56 -2h-37l-3 -65v-15l-4 -20q0 -11 -2 -15q0 -8 -5 -19l-7 -36l-10 -33q-6 -24 -21 -48q-24 -47 -105 -121q-64 -56 -135 -94 q-48 -24 -108 -39l-57 -12l-53 -4q-36 0 -75 6q-117 18 -201 120.5t-84 224.5q0 63 60 179q10 19 60 91q-18 -48 -30 -96l-7 -46l-3 -50q0 -113 59 -185q71 -87 221 -108l54 -4q92 0 179 42t160 121q13 19 27.5 48.5t14.5 47.5q0 70 -36 157q-21 49 -84 128l75 130 q52 -74 77 -104q44 -51 113 -51h14l58 1l16 1l10 1l20 7l20 11l18 29l13 45l7 46l36 59l-2 -35l-5 -45q0 -27 44 -63.5t116 -51.5l15 -1h12h8l10 3q6 0 10 4l18 10l18 29l13 45l7 46l36 59l-2 -35l-5 -45q0 -27 44 -63.5t116 -51.5l30 -1v-134h-73h-14l-18 4l-20 4l-20 7 l-24 10l-27 13q-21 12 -35 29v20v28z" />
<glyph unicode="&#xd5;" horiz-adv-x="1770" d="M1310 759l-84 -124l-63 43l-36 26l-24 21l81 127q60 -54 126 -93zM1450 599l-84 -124l-63 43l-36 26l-24 21l81 127q60 -54 126 -93zM1240 569l-84 -124l-63 43l-36 26l-24 21l81 127q60 -54 126 -93zM1516 57l-29 -29l-16 -14q-25 -19 -54 -19q-22 0 -30 5 q-54 18 -89 37q-17 9 -37 30l-1 16l1 32l-30 -71q-14 -19 -69 -37l-42 -5l-56 -2h-37l-3 -65v-15l-4 -20q0 -11 -2 -15q0 -8 -5 -19l-7 -36l-10 -33q-6 -24 -21 -48q-24 -47 -105 -121q-64 -56 -135 -94q-48 -24 -108 -39l-57 -12l-53 -4q-36 0 -75 6q-117 18 -201 120.5 t-84 224.5q0 63 60 179q10 19 60 91q-18 -48 -30 -96l-7 -46l-3 -50q0 -113 59 -185q71 -87 221 -108l54 -4q92 0 179 42t160 121q13 19 27.5 48.5t14.5 47.5q0 70 -36 157q-21 49 -84 128l75 130q52 -74 77 -104q44 -51 113 -51h14l58 1l16 1l10 1l20 7l20 11l18 29l13 45 l7 46l36 59l-2 -35l-5 -45q0 -27 44 -63.5t116 -51.5l15 -1h12h8l10 3q6 0 10 4l18 10l18 29l13 45l7 46l36 59l-2 -35l-5 -45q0 -27 44 -63.5t116 -51.5l30 -1v-134h-73h-14l-18 4l-20 4l-20 7l-24 10l-27 13q-21 12 -35 29v20v28z" />
<glyph unicode="&#xd6;" horiz-adv-x="1770" d="M1606 224q0 45 -60.5 99t-115.5 54l-16 -2q-65 -15 -178 -90q-40 -28 -95 -76q-42 -39 -73 -82l57 -10l84 6q57 6 84 6q63 0 153 24q109 27 160 71zM1623 212q36 -30 80 -49l41 -13l52 -12v-137q-93 0 -148.5 20.5t-119.5 75.5q-18 -12 -47 -25l-68 -28q-29 -10 -79 -21 t-116 -23q-69 -9 -119 -9q-48 0 -102 9q0 -81 -37 -170l-17 -40l-18 -32q-6 -13 -45 -59q-93 -105 -190 -142q-78 -30 -220 -30q-132 0 -234.5 95.5t-102.5 217.5q0 84 57 186q18 33 57 84q-18 -48 -30 -96l-7 -46l-3 -50q0 -111 59 -176q71 -77 221 -77l130 3l44 3l18 2 q13 0 24 5q108 21 177 96q13 19 27.5 48.5t14.5 47.5q0 70 -36 157q-21 49 -84 128l75 130l66 -92q32 -34 95 -63l85 92q75 78 186 175q108 93 183 108l12 1q51 0 114 -50.5t63 -100.5l-1 -21q0 -7 -7 -21l-11 -27q-3 -13 -39 -74z" />
<glyph unicode="&#xd7;" horiz-adv-x="1845" d="M1606 224q0 45 -60.5 99t-115.5 54l-16 -2q-65 -15 -178 -90q-40 -28 -95 -76q-42 -39 -73 -82l57 -10l84 6q57 6 84 6q63 0 153 24q109 27 160 71zM1623 212q36 -30 80 -49l41 -13l52 -12v-137q-93 0 -148.5 20.5t-119.5 75.5q-18 -12 -47 -25l-68 -28q-29 -10 -79 -21 t-116 -23q-69 -9 -119 -9q-48 0 -102 9q0 -81 -37 -170l-17 -40l-18 -32q-6 -13 -45 -59q-93 -105 -190 -142q-78 -30 -220 -30q-132 0 -234.5 95.5t-102.5 217.5q0 84 57 186q18 33 57 84q-18 -48 -30 -96l-7 -46l-3 -50q0 -111 59 -176q71 -77 221 -77l130 3l44 3l18 2 q13 0 24 5q108 21 177 96q13 19 27.5 48.5t14.5 47.5q0 70 -36 157q-21 49 -84 128l75 130l66 -92q32 -34 95 -63l85 92q75 78 186 175q108 93 183 108l12 1q51 0 114 -50.5t63 -100.5l-1 -21q0 -7 -7 -21l-11 -27q-3 -13 -39 -74zM1220 824l119 -108l-78 -118l-128 100z " />
<glyph unicode="&#xd8;" horiz-adv-x="1062" d="M912 223q0 49 -59 102.5t-109 53.5q-16 0 -24 -5l-23 -9l-25 -16q-28 -15 -61 -40q-57 -39 -126 -93l-111 -90l105 1l120 1q63 0 153 24q109 27 160 71zM870 131h200v-130h-894q-33 0 -97 64q-8 8 -26 28t-31 36h318q8 33 12 81l5 66l1 31l-1 67l-1 71l-36 397 q-21 36 -21 91l75 130l3 -70q3 -27 16 -49l2 2v-5q12 -21 31 -33l24 -7l28 -3l-63 -121l-11 3l-9 4l16 -205l1 -43l1 -42l6 -134v-13v-12q0 -47 -5 -60l-4 -27q0 -10 -4 -22l-16 -41l-8 -13l121 122l76 68l82 65q73 56 137 77l17 2q53 0 112.5 -51.5t59.5 -100.5v-17l-5 -22 l-5 -15l-9 -24q-12 -36 -31 -65l-16 -22l-28 -34z" />
<glyph unicode="&#xd9;" horiz-adv-x="1062" d="M912 223q0 49 -59 102.5t-109 53.5q-16 0 -24 -5l-23 -9l-25 -16q-28 -15 -61 -40q-57 -39 -126 -93l-111 -90l105 1l120 1q63 0 153 24q109 27 160 71zM870 131h200v-130h-894q-36 0 -100 64l-54 64h318q8 33 12 81l5 66l1 31l-1 67l-1 71l-36 397q-21 36 -21 91l75 130 l3 -70q3 -27 16 -49l2 2v-5q12 -21 31 -33l24 -7l28 -3l-63 -121l-11 3l-9 4l16 -205l1 -43l1 -42l6 -134v-13v-12q0 -47 -5 -60l-4 -27q0 -10 -4 -22l-16 -41l-8 -13l121 122l76 68l82 65q73 56 137 77l17 2q53 0 112.5 -51.5t59.5 -100.5v-17l-5 -22l-5 -15l-9 -24 q-12 -36 -31 -65l-16 -22l-28 -34zM679 876l119 -108l-78 -118l-128 100z" />
<glyph unicode="&#xda;" horiz-adv-x="825" d="M436 186q-53 47 -85 63l-34 12l-39 4l19 52q24 49 57 79q27 19 67 34q35 9 74 9h36q40 0 82 -26q50 -30 50 -74q0 -25 -26 -61l-33 -43q39 -47 124 -83q72 -22 108 -22v-130q-86 0 -153 18t-133 67l-23 20l-24 28q-105 -72 -155 -122q-42 -42 -70 -95l-14 -33l-16 -50 l-11 -52l-4 -55q0 -70 30 -139q36 -75 117 -126t202 -84q15 -3 42 -8t67 -10t95 -5q72 0 159 9l105 12q88 9 167 34l-201 -135l-164 -28l-96 -12l-93 -4h-14h-12l-39 1q-21 0 -36 4q-15 0 -25 2t-19 3.5t-17 3.5t-27 9q-93 26 -163 79q-61 46 -96 107l-31 62q-12 30 -21 66 l-5 34l-2 35v27q0 20 2 26l3 30l6 26q11 68 31 131.5t83 148.5q72 97 155 161z" />
<glyph unicode="&#xdb;" horiz-adv-x="819" d="M550 819l-75 -130q-49 39 -128 88l75 130l14 -7l13 -9q16 -8 27 -19zM436 186q-53 47 -85 63l-34 12l-39 4l19 52q24 49 57 79q27 19 67 34q35 9 74 9h36q40 0 82 -26q50 -30 50 -74q0 -25 -26 -61l-33 -43q37 -40 123 -83q61 -23 107 -23v-130h-12h-11l-29 1l-32 3 q-29 3 -73 15q-66 18 -127 67l-23 20l-24 28q-105 -72 -155 -122q-42 -42 -70 -95l-14 -33l-16 -50l-11 -52l-4 -55q0 -70 30 -139q36 -75 117 -126t202 -84q15 -3 42 -8t67 -10t95 -5q72 0 159 9l105 12q88 9 167 34l-201 -135l-164 -28l-96 -12l-93 -4h-14h-12l-39 1 q-21 0 -36 4q-15 0 -25 2t-19 3.5t-17 3.5t-27 9q-93 26 -163 79q-61 46 -96 107l-31 62q-12 30 -21 66l-5 34l-2 35v27q0 20 2 26l3 30l6 26q11 68 31 131.5t83 148.5q72 97 155 161z" />
<glyph unicode="&#xdc;" horiz-adv-x="1590" d="M1280 876l120 -98l-96 -115l-120 98zM976 125q150 0 245 21q121 29 207 112q3 3 3 8q0 11 -33 61q-41 53 -94 68q-24 -18 -45 -63.5t-18 -55.5q6 -19 59 -57q44 -32 105 -59l24 -6q48 -11 63 -14l69 -3q25 0 35 -5v-130l-42 -1h-37h-11l-40 1l-19 1q-12 0 -28 4l-36 10 l-41 13q-62 21 -122 61q-72 53 -72 115l2 20q8 44 28 89l23 47l16 28l19 30q75 116 125 116h6l5 -2q63 -21 109.5 -76.5t46.5 -116.5l-1 -22q0 -7 -7 -22q-42 -112 -136 -191q-67 -54 -196 -89l-100 -16q-54 -6 -112 -6h-137l-158 -1l-72 -1l-68 -1h-25h-21h-18h-15h-12 l-32 1l-33 3l-36 4q-15 0 -23 2l-17 3l-34 8l-29 12q-54 18 -97 67t-43 91q0 63 42 149l16 27l26 35l2 -2q-15 -51 -15 -89q0 -51 20.5 -85.5t84.5 -59.5q42 -12 102 -24l62 -7l71 -3l143 -4l141 -3l43 1l46 1z" />
<glyph unicode="&#xdd;" horiz-adv-x="1095" d="M864 633l-84 -124l-69 47q-40 28 -54 43l81 127q60 -54 126 -93zM654 603l-84 -121l-123 87l81 127q60 -54 126 -93zM1107 134v-133h-414v133h134h280zM1012 -122q0 -36 -34 -104l-35 -62q-58 -82 -180 -142q-57 -26 -129.5 -39t-115.5 -13l-46 1l-46 6q-127 18 -214 81 q-94 73 -94 199q0 53 9 103q2 15 4 23t9 25q4 12 9 24q2 4 13 24l5 12q2 10 11 18l29 41l-9 -29l-14 -37q-15 -41 -15 -74q0 -135 84.5 -207.5t247.5 -72.5q140 0 254 36.5t188 113.5l4 17l1 21q0 97 -73 225l-41 44q-21 -57 -65 -86l-18 -10l-21 -11l-14 -3l-23 -1 q-27 0 -53.5 9t-45.5 31q-23 29 -23 82q0 52 23 110q18 47 56 85q48 48 101 48q67 0 128 -64.5t102 -189.5l16 -64l10 -54l2 -65zM834 123q-9 24 -27 48q-19 31 -32 39q-29 23 -69 23q-12 0 -26 -14q-12 -14 -12 -33l3 -19l9 -14l9 -13l12 -13l18 -16q14 -9 32 -12l36 3z " />
<glyph unicode="&#xde;" d="M605 1513l7 23l3 23l18 29l-1 -17l-2 -23q0 -15 21 -33t59 -24l7 -1l14 1l14 5q0 19 -5 27q-3 9 -15 18l37 65q8 -8 15 -26l5 -18l2 -20q0 -26 -8 -41l-13 -18l-26 -31l-23 -22l-27 -10l-15 3l-25 9l-21 10l-17 15v8v16l-15 -36q-8 -14 -34 -18l-49 -4h-19q0 -32 -18 -85 l-17 -33l-23 -31q-42 -51 -90.5 -81.5t-106.5 -30.5l-37 3q-60 9 -101.5 61t-41.5 112q0 33 30 90l30 45l-15 -48l-5 -48q0 -54 30 -93t110 -54l27 -2q41 0 84 21t86 61l13 22l4 12l4 14q0 40 -17 74q-15 37 -43 69l37 65l39 -52q21 -26 56 -26h7l29 1l23 4l10 6z" />
<glyph unicode="&#xdf;" horiz-adv-x="1232" d="M723 552q0 -25 -17 -52l-20 -26l-20 -22l-27 -24l-30 -20l-30 -12l-32 -4l-19 2q-54 12 -95 63q-9 12 -19 50q14 -17 70 -24l84 -4l29 1l20 3l19 5q30 6 30 19q0 16 -48 28q-49 6 -57 13l-13 13q-9 9 -15 21l-5 18l-2 20v15l2 15q6 48 35 86q31 37 71 37q22 0 37 -6.5 t35 -29.5l-40 -51q-23 23 -48 23q-24 0 -40 -23q-3 -5 -3 -11q0 -12 9 -24t26 -18l64 -18q28 -12 44 -34q5 -13 5 -29zM976 167l-9 -13q-27 -33 -61 -61q-63 -50 -184 -90q-64 -20 -119 -30l-58 -7l-62 -3q-141 0 -222.5 9.5t-127.5 38.5q-39 21 -57.5 62.5t-18.5 83.5 q0 102 49 197q16 34 49 75l-24 -62q-15 -48 -15 -89t18 -78.5t67 -65.5q46 -23 115.5 -36t127.5 -13l59 1l55 7q49 6 112 21.5t110 40.5q48 20 87 42l45 27q16 10 24 15.5t21 16.5l9 36l3 72v20v10l-25 579q-49 40 -49 99q0 25 2 29l9 32l63 114q0 -111 27 -149l109 -41 l-71 -130l-7 2l1 -67l5 -135l12 -241l1 -19l6 -60l-1 -30v-29v-36v-19l4 -15q5 -19 16 -36q29 -51 72 -78q40 -23 110 -35v-130h-44q-146 0 -213 113l-13 30z" />
<glyph unicode="&#xe0;" d="M322 1125l-84 -109l-109 85l83 110zM647 1164l-82 -113l-109 89l83 110zM459 1310l-82 -107l-108 83l81 110z" />
<glyph unicode="&#xe1;" horiz-adv-x="1200" d="M916 444q27 -132 102 -203t230 -106v-140h-26l-30 5l-18 3l-19 6q-42 11 -78 27q-76 31 -123 83l1 -9l4 -56l1 -34q0 -105 -22 -177q-27 -101 -93.5 -169.5t-148.5 -103t-170 -34.5l-46 1q-13 0 -20 1t-28 6q-139 23 -201 95q-23 26 -40 70q-13 46 -13 84q0 66 30 150 q6 21 24 58l15 32l17 29l22 36l8 12l-10 -29l-19 -66l-8 -48l-3 -47q0 -108 63 -171q77 -75 242 -75q101 0 164 27.5t104 95.5q20 34 30 65l7 31l3 34v19l-2 22l-36 398l-40 446l-19 212l75 130l15 -194q0 -93 10 -154l13 -93z" />
<glyph unicode="&#xe2;" horiz-adv-x="774" d="M726 125l64 -4v-130l-22 -1l-29 -1h-25l-23 3l-33 3q-22 0 -33 11l-79 20l-21 5l-28 6l-55 3l-33 -1h-14l-21 -4l-29 -5q-10 0 -13 -2l-16 -6q-25 -8 -47 -24q-13 -16 -13 -37l1 -44q0 -24 2 -30l6 -34l13 -111l11 -118l9 -87l5 -74l14 -176l3 -101l3 -75q-6 -3 -12 1 l-12 -2q-6 -3 -14 0l-32 193l-22 118q-5 49 -13 79l-16 77l-15 111q-12 100 -24 152l-2 13v10l1 23l2 20v25l3 34q3 20 21 55q3 7 30 38l35 33q22 22 73 53q85 37 179 37l21 -1q-27 33 -56 49l-33 15q-15 6 -31 6t-18 -2q-33 -8 -42.5 -15t-50.5 -77l-7 54l-1 24l6 37 q18 52 57 82t86 30q84 0 150 -85l38 -56q21 -33 52 -95q21 -18 50 -22z" />
<glyph unicode="&#xe3;" horiz-adv-x="967" d="M549 468l-59 -145q-15 6 -46 28l-89 66l58 149zM961 22q0 -62 -22 -140q-6 -30 -15 -54l-28 -59q-36 -69 -66 -102q-22 -28 -99 -74q-49 -26 -168 -55q-24 -6 -42.5 -9.5t-57.5 -9.5l-46 -5l-41 -2q-138 0 -232 91q-98 95 -98 246l3 51l9 55q11 64 53 146l40 77l-16 -84 l-7 -47l-3 -48q0 -142 68.5 -228.5t197.5 -115.5l19 -1l26 -1h11l60 3l43 6l20 4l26 7q84 18 143 49q97 45 156 127l1 33q0 96 -21 170q-7 20 -30 61q-27 39 -37 62l75 130l25 -55l24 -57q29 -76 29 -171zM1099 128zM1099 128v-129l-18 -2l-36 3l-17 4l-22 7 q-69 21 -119.5 63.5t-78.5 100.5l75 130l13 -31l16 -30q17 -27 39 -48q42 -44 118 -65l19 -3h11z" />
<glyph unicode="&#xe4;" horiz-adv-x="485" d="M317 584l11 49q5 21 33 89q6 18 22 47l1 -52l1 -42l1 -49q0 -22 4 -41l5 -40l8 -32q23 -105 54 -177q35 -81 90 -135q20 -18 42 -33q11 -6 25 -12t26 -10v-147q-45 0 -92 18q-40 18 -76 55.5t-71 99.5t-59 137l-34 -95h-11l-37 1l-20 1q-11 0 -23 4q-17 2 -31 5.5 t-32 11.5q-58 18 -134 65l75 130q29 29 77 65q41 29 145 87zM335 336l-7 47l-10 84l-4 78l-31 -48q-19 -10 -48 -34l-43 -31l-46 -31l46 -27l38 -19q60 -19 105 -19z" />
<glyph unicode="&#xe5;" horiz-adv-x="1090" d="M1036 -359l-130 74q-55 30 -130 54q-36 11 -74.5 17t-76.5 6l70 136q84 144 170 181q37 14 238 37v-148l-185 -15q-79 -14 -129 -68q87 -15 204 -69t123 -80l2 -23q0 -20 -12 -56q-6 -16 -25 -46l-23 -48q-27 -51 -52 -82q-67 -83 -168 -127q-39 -14 -96 -24l-56 -7 l-61 -3l-91 3l-36 3q-15 1 -19.5 2t-23.5 6q-68 12 -130 45q-73 38 -114 97.5t-41 137.5v17l-2 18v20q0 90 30 180l24 59l13 29l19 30q12 25 25 36l5 6q-18 -69 -27 -126q-12 -72 -12 -134q0 -165 147 -240q115 -59 308 -59q106 0 186 39.5t150 121.5zM757 -719 q22 -25 80 -65l55 -35l-75 -130l-71 45q-36 24 -64 55zM547 -749q22 -25 80 -65l55 -35l-75 -130l-71 45q-36 24 -64 55z" />
<glyph unicode="&#xe6;" horiz-adv-x="526" d="M337 584l11 49q5 21 33 89q6 18 22 47l1 -52l1 -42l1 -49q0 -22 4 -41l5 -40l8 -32q23 -105 54 -177q35 -81 90 -135q20 -18 42 -33q11 -6 25 -12t26 -10v-147q-45 0 -92 18q-40 18 -76 55.5t-71 99.5t-59 137l-34 -95h-11l-37 1l-20 1q-11 0 -23 4q-17 2 -31 5.5 t-32 11.5q-58 18 -134 65l75 130q29 29 77 65q41 29 145 87zM355 336l-7 47l-10 84l-4 78l-31 -48q-19 -10 -48 -34l-43 -31l-46 -31l46 -27l38 -19q60 -19 105 -19zM278 1007l-97 -103l-49 39l-59 51l97 106l56 -51zM498 1017l-97 -103l-49 39l-59 51l97 106l56 -51z" />
<glyph unicode="&#xe7;" horiz-adv-x="1090" d="M1036 -359l-130 74q-55 30 -130 54q-36 11 -74.5 17t-76.5 6l70 136q84 144 170 181q37 14 238 37v-148l-185 -15q-79 -14 -129 -68q87 -15 204 -69t123 -80l2 -23q0 -20 -12 -56q-6 -16 -25 -46l-23 -48q-27 -51 -52 -82q-67 -83 -168 -127q-39 -14 -96 -24l-56 -7 l-61 -3l-91 3l-36 3q-15 1 -19.5 2t-23.5 6q-68 12 -130 45q-73 38 -114 97.5t-41 137.5v17l-2 18v20q0 90 30 180l24 59l13 29l19 30q12 25 25 36l5 6q-18 -69 -27 -126q-12 -72 -12 -134q0 -165 147 -240q115 -59 308 -59q106 0 186 39.5t150 121.5z" />
<glyph unicode="&#xe8;" horiz-adv-x="1065" d="M1036 -359l-130 74q-55 30 -130 54q-36 11 -74.5 17t-76.5 6l70 136q84 144 170 181q37 14 238 37v-148l-185 -15q-79 -14 -129 -68q87 -15 204 -69t123 -80l2 -23q0 -20 -12 -56q-6 -16 -25 -46l-23 -48q-27 -51 -52 -82q-67 -83 -168 -127q-39 -14 -96 -24l-56 -7 l-61 -3l-91 3l-36 3q-15 1 -19.5 2t-23.5 6q-68 12 -130 45q-73 38 -114 97.5t-41 137.5v17l-2 18v20q0 90 30 180l24 59l13 29l19 30q12 25 25 36l5 6q-18 -69 -27 -126q-12 -72 -12 -134q0 -165 147 -240q115 -59 308 -59q106 0 186 39.5t150 121.5zM294 412l-33 -7 q-15 -3 -43 -22l-42 -28l40 66l13 11l12 8l-27 24q-9 12 -12 29q0 22 14 36l45 54q15 17 35 17q25 0 39.5 -12.5t27.5 -43.5l-44 -51q-6 24 -24 39q-15 15 -44 15h-4q0 -23 26 -45l46 -28l4 -2h48l22 -6l18 -8l-45 -53q-3 -3 -13 -3l-19 1l-19 1z" />
<glyph unicode="&#xe9;" d="M804 620l-23 -63h-528l-21 1l-17 12l-11 17l-3 21q0 19 11 41l15 25l23 29q9 12 28 25l64 37q24 14 50 49l21 38l13 25q8 12 23 12q16 0 24 -14q8 -11 8 -31l-2 -12v-10l-24 -64l3 10v11q0 14 -6 26.5t-18 20.5l-9 -3l-8 -5l-10 -8l-16 -27q-17 -34 -29 -46q-2 -3 -4 -5 q-5 -6 -15 -15l-24 -16l-32 -16l-22 -11q-20 -6 -38 -30l-2 -9l3 -8l17 -6l31 -1h528l-23 -63z" />
<glyph unicode="&#xea;" horiz-adv-x="992" d="M754 91q0 7 -23 62l-9 23l-4 13l-10 19q-42 -63 -97 -112l-48 -36q47 0 128 15l25 6zM816 1137q-8 -22 -8 -45q0 -20 9 -48t39 -57l30 -16q15 -6 32 -6l-64 -66q-30 0 -68 29q-36 30 -42 55l-3 33l1 19q0 7 7 22zM833 899q0 -34 2 -37l7 -168v-39v-31l-2 -14l-1 -27 l-6 -35l-15 -87q-3 -28 -7 -36l-7 -28l-10 -34l-11 -25l-31 -56q12 -12 33 -63.5t21 -83.5q0 -31 -13 -63l-12 -26l-12 -24q-10 -14 -121 -38q-83 -12 -160 -12q-36 0 -41 4l-4 30q0 38 13 48q3 3 12 3l15 -1q10 0 18 4q44 21 105 96q57 70 69 107q2 5 -61 108l-59 95 l-54 82l-45 61q-21 30 -50 59l-44 44l-58 57l-17 5l-15 -1l-10 -4l-44 42q-36 41 -50 88l-1 13q0 21 9 57l9 29q13 11 120 -95l48 -47l53 -56l87 -99l49 -67l56 -84q41 -67 85 -146l35 -66l31 103l24 107l6 46l2 40v44v22v19v16v13v11l-1 38v17l-4 18l-1 29v18l-4 13l-6 31 q0 10 -4 18q-2 13 -7 24z" />
<glyph unicode="&#xeb;" horiz-adv-x="980" d="M999 1h-8h-10h-12h-11q-8 0 -10 2h-12q-6 0 -12 2l-15 3l-24 6q-15 6 -48 27l-25 17l-22 21q-3 4 -11.5 21t-14.5 30l-2 11v262l-42 -83q-44 -74 -97 -139q-66 -81 -127 -118q-28 -18 -134 -50q-55 -14 -148 -30l-70 -11l69 31q34 15 70.5 34.5t81.5 46.5q97 58 147 112 q21 23 38.5 44t27.5 36l52 76l-92 168q-12 26 -40 65l-47 64l-54 62l-32 34l-18 -21l-12 9l-36 30l-45 40q-6 0 -18 16l-8 17q0 39 3 60t23 47l5 3l15 8l7 2l22 -22l80 -84q53 -62 103 -131q42 -57 63 -93l23 -40l36 -70l33 -71l19 -44l27 39l21 34l16 27l17 34q21 47 21 76 v391l75 136v-870q0 -19 14 -44q15 -21 41 -41l52 -26l34 -14l21 -2v-140zM837 1138z" />
<glyph unicode="&#xec;" horiz-adv-x="992" d="M754 91q0 7 -23 62l-9 23l-4 13l-10 19q-42 -63 -97 -112l-48 -36q47 0 128 15l25 6zM816 1137q-8 -22 -8 -45q0 -20 9 -48t39 -57l30 -16q15 -6 32 -6l-64 -66q-30 0 -68 29q-36 30 -42 55l-3 33l1 19q0 7 7 22zM833 899q0 -34 2 -37l7 -168v-39v-31l-2 -14l-1 -27 l-6 -35l-15 -87q-3 -28 -7 -36l-7 -28l-10 -34l-11 -25l-31 -56q12 -12 33 -63.5t21 -83.5q0 -31 -13 -63l-12 -26l-12 -24q-10 -14 -121 -38q-83 -12 -160 -12q-36 0 -41 4l-4 30q0 38 13 48q3 3 12 3l15 -1q10 0 18 4q44 21 105 96q57 70 69 107q2 5 -61 108l-59 95 l-54 82l-45 61q-21 30 -50 59l-44 44l-58 57l-17 5l-15 -1l-10 -4l-44 42q-36 41 -50 88l-1 13q0 21 9 57l9 29q13 11 120 -95l48 -47l53 -56l87 -99l49 -67l56 -84q41 -67 85 -146l35 -66l31 103l24 107l6 46l2 40v44v22v19v16v13v11l-1 38v17l-4 18l-1 29v18l-4 13l-6 31 q0 10 -4 18q-2 13 -7 24zM218 1194l-33 -7q-15 -3 -43 -22l-42 -28l40 66l13 11l12 8l-27 24q-9 12 -12 29q0 22 14 36l45 54q15 17 35 17q25 0 39.5 -12.5t27.5 -43.5l-44 -51q-6 24 -24 39q-15 15 -44 15h-4q0 -23 26 -45l46 -28l4 -2h48l22 -6l18 -8l-45 -53 q-3 -3 -13 -3l-19 1l-19 1z" />
<glyph unicode="&#xed;" horiz-adv-x="980" d="M999 1h-8h-10h-12h-11q-8 0 -10 2h-12q-6 0 -12 2l-15 3l-24 6q-15 6 -48 27l-25 17l-22 21q-3 4 -11.5 21t-14.5 30l-2 11v262l-42 -83q-44 -74 -97 -139q-66 -81 -127 -118q-28 -18 -134 -50q-55 -14 -148 -30l-70 -11l69 31q34 15 70.5 34.5t81.5 46.5q97 58 147 112 q21 23 38.5 44t27.5 36l52 76l-92 168q-12 26 -40 65l-47 64l-54 62l-32 34l-18 -21l-12 9l-36 30l-45 40q-6 0 -18 16l-8 17q0 39 3 60t23 47l5 3l15 8l7 2l22 -22l80 -84q53 -62 103 -131q42 -57 63 -93l23 -40l36 -70l33 -71l19 -44l27 39l21 34l16 27l17 34q21 47 21 76 v391l75 136v-870q0 -19 14 -44q15 -21 41 -41l52 -26l34 -14l21 -2v-140zM837 1138zM218 1194l-33 -7q-15 -3 -43 -22l-42 -28l40 66l13 11l12 8l-27 24q-9 12 -12 29q0 22 14 36l45 54q15 17 35 17q25 0 39.5 -12.5t27.5 -43.5l-44 -51q-6 24 -24 39q-15 15 -44 15h-4 q0 -23 26 -45l46 -28l4 -2h48l22 -6l18 -8l-45 -53q-3 -3 -13 -3l-19 1l-19 1z" />
<glyph unicode="&#xee;" horiz-adv-x="928" d="M754 91q0 7 -23 62l-9 23l-4 13l-10 19q-42 -63 -97 -112l-48 -36q47 0 128 15l25 6zM816 1137q-8 -22 -8 -45q0 -20 9 -48t39 -57l30 -16q15 -6 32 -6l-64 -66q-30 0 -68 29q-36 30 -42 55l-3 33l1 19q0 7 7 22zM833 899q0 -34 2 -37l7 -168v-39v-31l-2 -14l-1 -27 l-6 -35l-15 -87q-3 -28 -7 -36l-7 -28l-10 -34l-11 -25l-31 -56q12 -12 33 -63.5t21 -83.5q0 -31 -13 -63l-12 -26l-12 -24q-10 -14 -121 -38q-83 -12 -160 -12q-36 0 -41 4l-4 30q0 38 13 48q3 3 12 3l15 -1q10 0 18 4q44 21 105 96q57 70 69 107q2 5 -61 108l-59 95 l-54 82l-45 61q-21 30 -50 59l-44 44l-58 57l-17 5l-15 -1l-10 -4l-44 42q-36 41 -50 88l-1 13q0 21 9 57l9 29q13 11 120 -95l48 -47l53 -56l87 -99l49 -67l56 -84q41 -67 85 -146l35 -66l31 103l24 107l6 46l2 40v44v22v19v16v13v11l-1 38v17l-4 18l-1 29v18l-4 13l-6 31 q0 10 -4 18q-2 13 -7 24zM515 -362l-33 -7q-15 -3 -43 -22l-42 -28l40 66l13 11l12 8l-27 24q-9 12 -12 29q0 22 14 36l45 54q15 17 35 17q24 0 39 -12t28 -44l-44 -51q-6 25 -23 39.5t-45 14.5h-4q0 -23 26 -45l46 -28l4 -2h48l22 -6l18 -8l-45 -53q-3 -3 -13 -3l-19 1 l-19 1z" />
<glyph unicode="&#xef;" horiz-adv-x="980" d="M999 1h-8h-10h-12h-11q-8 0 -10 2h-12q-6 0 -12 2l-15 3l-24 6q-15 6 -48 27l-25 17l-22 21q-3 4 -11.5 21t-14.5 30l-2 11v262l-42 -83q-44 -74 -97 -139q-66 -81 -127 -118q-28 -18 -134 -50q-55 -14 -148 -30l-70 -11l69 31q34 15 70.5 34.5t81.5 46.5q97 58 147 112 q21 23 38.5 44t27.5 36l52 76l-92 168q-12 26 -40 65l-47 64l-54 62l-32 34l-18 -21l-12 9l-36 30l-45 40q-6 0 -18 16l-8 17q0 39 3 60t23 47l5 3l15 8l7 2l22 -22l80 -84q53 -62 103 -131q42 -57 63 -93l23 -40l36 -70l33 -71l19 -44l27 39l21 34l16 27l17 34q21 47 21 76 v391l75 136v-870q0 -19 14 -44q15 -21 41 -41l52 -26l34 -14l21 -2v-140zM837 1138zM368 -336l-33 -7q-15 -3 -43 -22l-42 -28l40 66l13 11l12 8l-27 24q-9 12 -12 29q0 22 14 36l45 54q15 17 35 17q24 0 39 -12t28 -44l-44 -51q-6 25 -23 39.5t-45 14.5h-4q0 -23 26 -45 l46 -28l4 -2h48l22 -6l18 -8l-45 -53q-3 -3 -13 -3l-19 1l-19 1z" />
<glyph unicode="&#xf0;" horiz-adv-x="1112" d="M568 1257q-36 -39 -84 -66q-27 -15 -57 -24l-28 -6l-33 -2q-24 0 -75 9l-43 5q-25 0 -28 -2q-44 -6 -112 -39l-53 -31q18 50 66.5 87.5t98.5 37.5l26 -3l60 -10l59 -3l40 1h25q13 3 28.5 5t54.5 17zM754 91q0 7 -23 62l-9 23l-4 13l-10 19q-42 -63 -97 -112l-48 -36 q47 0 128 15l25 6zM816 1137q-8 -22 -8 -45q0 -20 9 -48t39 -57l30 -16q15 -6 32 -6l-64 -66q-30 0 -68 29q-36 30 -42 55l-3 33l1 19q0 7 7 22zM833 899q0 -34 2 -37l7 -168v-39v-31l-2 -14l-1 -27l-6 -35l-15 -87q-3 -28 -7 -36l-7 -28l-10 -34l-11 -25l-31 -56 q12 -12 33 -63.5t21 -83.5q0 -31 -13 -63l-12 -26l-12 -24q-10 -14 -121 -38q-83 -12 -160 -12q-36 0 -41 4l-4 30q0 38 13 48q3 3 12 3l15 -1q10 0 18 4q44 21 105 96q57 70 69 107q2 5 -61 108l-59 95l-54 82l-45 61q-21 30 -50 59l-44 44l-58 57l-17 5l-15 -1l-10 -4 l-44 42q-36 41 -50 88l-1 13q0 21 9 57l9 29q13 11 120 -95l48 -47l53 -56l87 -99l49 -67l56 -84q41 -67 85 -146l35 -66l31 103l24 107l6 46l2 40v44v22v19v16v13v11l-1 38v17l-4 18l-1 29v18l-4 13l-6 31q0 10 -4 18q-2 13 -7 24z" />
<glyph unicode="&#xf1;" horiz-adv-x="984" d="M999 1h-8h-10h-12h-11q-8 0 -10 2h-12q-6 0 -12 2l-15 3l-24 6q-15 6 -48 27l-25 17l-22 21q-3 4 -11.5 21t-14.5 30l-2 11v262l-42 -83q-44 -74 -97 -139q-66 -81 -127 -118q-28 -18 -134 -50q-55 -14 -148 -30l-70 -11l69 31q34 15 70.5 34.5t81.5 46.5q97 58 147 112 q21 23 38.5 44t27.5 36l52 76l-92 168q-12 26 -40 65l-47 64l-54 62l-32 34l-18 -21l-12 9l-36 30l-45 40q-6 0 -18 16l-8 17q0 39 3 60t23 47l5 3l15 8l7 2l22 -22l80 -84q53 -62 103 -131q42 -57 63 -93l23 -40l36 -70l33 -71l19 -44l27 39l21 34l16 27l17 34q21 47 21 76 v391l75 136v-870q0 -19 14 -44q15 -21 41 -41l52 -26l34 -14l21 -2v-140zM837 1138zM533 1273l-40 -37l-44 -34q-68 -37 -118 -37q-24 0 -75 9l-43 5l-37 -3l-44 -11q-27 -8 -59 -22l-53 -26q18 50 66.5 87.5t98.5 37.5l26 -3l60 -10l59 -3l40 1h25q13 3 28.5 5t54.5 17z " />
<glyph unicode="&#xf2;" horiz-adv-x="472" d="M307 145q0 -16 -8 -27q-4 -14 -27 -55q-3 -12 -20.5 -29.5t-40.5 -30.5v937l96 148v-943zM533 1273l-40 -37l-44 -34q-68 -37 -118 -37q-24 0 -75 9l-43 5l-37 -3l-44 -11q-27 -8 -59 -22l-53 -26q18 50 66.5 87.5t98.5 37.5l26 -3l60 -10l59 -3l40 1h25q13 3 28.5 5 t54.5 17z" />
<glyph unicode="&#xf3;" horiz-adv-x="438" d="M441 0q-33 0 -63 9q-58 21 -142 87l-25 48l-6 26l-2 21v681q0 19 35 70l29 40l28 34v-788l6 -34l25 -26l26 -13l34 -12l25 -5h15l15 1v-139zM533 1273l-40 -37l-44 -34q-68 -37 -118 -37q-24 0 -75 9l-43 5l-37 -3l-44 -11q-27 -8 -59 -22l-53 -26q18 50 66.5 87.5 t98.5 37.5l26 -3l60 -10l59 -3l40 1h25q13 3 28.5 5t54.5 17z" />
<glyph unicode="&#xf4;" horiz-adv-x="424" d="M275 145q0 -12 -9.5 -36.5t-25.5 -45.5q-9 -15 -20 -26q-17 -20 -41 -34v937l11 28l11 23q7 16 14 25q13 22 37 48l23 24v-943zM372 1272l-293 -135v34l293 138v-37zM372 1182l-293 -135v34l293 138v-37z" />
<glyph unicode="&#xf5;" horiz-adv-x="416" d="M424 3q-33 0 -63 9q-58 21 -142 87l-25 48l-6 26l-2 21v754q0 19 35 70l29 40l28 34v-861l6 -34l25 -26l26 -13l34 -12l25 -5h15l15 1v-139zM361 1374l-293 -135v24l293 138v-27zM361 1284l-293 -135v24l293 138v-27z" />
<glyph unicode="&#xf6;" horiz-adv-x="992" d="M465 1459l-402 -182v33l402 184v-35zM963 -241l-402 -182v27l402 180v-25zM754 91q0 7 -23 62l-9 23l-4 13l-10 19q-42 -63 -97 -112l-48 -36q47 0 128 15l25 6zM816 1137q-8 -22 -8 -45q0 -20 9 -48t39 -57l30 -16q15 -6 32 -6l-64 -66q-30 0 -68 29q-36 30 -42 55 l-3 33l1 19q0 7 7 22zM833 899q0 -34 2 -37l7 -168v-39v-31l-2 -14l-1 -27l-6 -35l-15 -87q-3 -28 -7 -36l-7 -28l-10 -34l-11 -25l-31 -56q12 -12 33 -63.5t21 -83.5q0 -31 -13 -63l-12 -26l-12 -24q-10 -14 -121 -38q-83 -12 -160 -12q-36 0 -41 4l-4 30q0 38 13 48 q3 3 12 3l15 -1q10 0 18 4q44 21 105 96q57 70 69 107q2 5 -61 108l-59 95l-54 82l-45 61q-21 30 -50 59l-44 44l-58 57l-17 5l-15 -1l-10 -4l-44 42q-36 41 -50 88l-1 13q0 21 9 57l9 29q13 11 120 -95l48 -47l53 -56l87 -99l49 -67l56 -84q41 -67 85 -146l35 -66l31 103 l24 107l6 46l2 40v44v22v19v16v13v11l-1 38v17l-4 18l-1 29v18l-4 13l-6 31q0 10 -4 18q-2 13 -7 24zM216 1089l-33 -7q-15 -3 -43 -22l-42 -28l40 66l13 11l12 8l-27 24q-9 12 -12 29q0 22 14 36l45 54q15 17 35 17q25 0 39.5 -12.5t27.5 -43.5l-44 -51q-6 24 -24 39 q-15 15 -44 15h-4q0 -23 26 -45l46 -28l4 -2h48l22 -6l18 -8l-45 -53q-3 -3 -13 -3l-19 1l-19 1zM769 1301l22 45l22 -48q14 -23 41 -23q10 2 12 5l-1 22l-8 21l-4 4l-12 10l21 45q8 -4 20 -34l7 -28l4 -17q0 -13 -2 -16l-5 -16l-6 -12l-11 -14q-14 -15 -36 -15 q-11 0 -37 21l-15 -30q-6 -10 -32 -26l-12 -2q-8 0 -29 12l-16 28l-4 29v10l4 17l21 45l-3 -27l3 -28q3 -15 16 -28t30 -13l11 2l13 9v20z" />
<glyph unicode="&#xf7;" horiz-adv-x="1125" d="M829 -631l-75 -130l-33 16l-37 22l-68 46l75 130l68 -45zM595 -662l-75 -130l-144 96l75 130q23 -23 69 -51zM897 836q-18 18 -31 41q-10 40 -10 60l3 49q3 14 15 40l75 130q-18 -30 -18 -89q0 -52 22 -81q21 -31 116 -69l-75 -130l-26 11v-553l-75 -130v10l-7 -12 l-7 -12l-19 -20q105 -27 153 -48q82 -33 141 -88l-75 -130l-5 5l-8 -14q-108 -120 -244 -186q-147 -72 -308 -72q-133 0 -234 71q-114 78 -114 205v54v20.5t2 18.5l4 35l6 27q3 16 12 37l75 130l-19 -88l-5 -70v-34q0 -126 113 -205q101 -71 235 -71q71 0 126.5 9.5 t114.5 34.5l53 21q18 8 20 9q16 8 36 20q50 27 104 72q-55 41 -131 69l-136 41q-20 5 -39 9q-26 7 -54 17q-36 10 -54 21l75 130l43 3l54 12q37 9 92 36v647z" />
<glyph unicode="&#xf8;" horiz-adv-x="992" d="M932 1528l-289 -133v35l289 129v-31zM13 1136l-13 -43l29 35l25 40l9 23l5 6l3 3l8 -7l12 -9l61 -26q40 -14 61 -14q38 0 81 34l68 57l45 48l-56 -37l-36 -20q-67 -35 -105 -35l-53 15l-57 24l-14 10l-13 10q-5 0 -46 -72zM754 91q0 7 -23 62l-9 23l-4 13l-10 19 q-42 -63 -97 -112l-48 -36q47 0 128 15l25 6zM816 1137q-8 -22 -8 -45q0 -20 9 -48t39 -57l30 -16q15 -6 32 -6l-64 -66q-30 0 -68 29q-36 30 -42 55l-3 33l1 19q0 7 7 22zM833 899q0 -34 2 -37l7 -168v-39v-31l-2 -14l-1 -27l-6 -35l-15 -87q-3 -28 -7 -36l-7 -28l-10 -34 l-11 -25l-31 -56q12 -12 33 -63.5t21 -83.5q0 -31 -13 -63l-12 -26l-12 -24q-10 -14 -121 -38q-83 -12 -160 -12q-36 0 -41 4l-4 30q0 38 13 48q3 3 12 3l15 -1q10 0 18 4q44 21 105 96q57 70 69 107q2 5 -61 108l-59 95l-54 82l-45 61q-21 30 -50 59l-44 44l-58 57l-17 5 l-15 -1l-10 -4l-44 42q-36 41 -50 88l-1 13q0 21 9 57l9 29q13 11 120 -95l48 -47l53 -56l87 -99l49 -67l56 -84q41 -67 85 -146l35 -66l31 103l24 107l6 46l2 40v44v22v19v16v13v11l-1 38v17l-4 18l-1 29v18l-4 13l-6 31q0 10 -4 18q-2 13 -7 24zM769 1301l22 45l22 -48 q14 -23 41 -23q10 2 12 5l-1 22l-8 21l-4 4l-12 10l21 45q8 -4 20 -34l7 -28l4 -17q0 -13 -2 -16l-5 -16l-6 -12l-11 -14q-14 -15 -36 -15q-11 0 -37 21l-15 -30q-6 -10 -32 -26l-12 -2q-8 0 -29 12l-16 28l-4 29v10l4 17l21 45l-3 -27l3 -28q3 -15 16 -28t30 -13l11 2l13 9 v20z" />
<glyph unicode="&#xf9;" horiz-adv-x="1125" d="M897 836q-18 18 -31 41q-10 40 -10 60l3 49q3 14 15 40l75 130q-18 -30 -18 -89q0 -52 22 -81q21 -31 116 -69l-75 -130l-26 11v-553l-75 -130v10l-7 -12l-7 -12l-19 -20q105 -27 153 -48q82 -33 141 -88l-75 -130l-5 5l-8 -14q-108 -120 -244 -186q-147 -72 -308 -72 q-133 0 -234 71q-114 78 -114 205v54v20.5t2 18.5l4 35l6 27q3 16 12 37l75 130l-19 -88l-5 -70v-34q0 -126 113 -205q101 -71 235 -71q71 0 126.5 9.5t114.5 34.5l53 21q18 8 20 9q16 8 36 20q50 27 104 72q-55 41 -131 69l-136 41q-20 5 -39 9q-26 7 -54 17q-36 10 -54 21 l75 130l43 3l54 12q37 9 92 36v647z" />
<glyph unicode="&#xfa;" horiz-adv-x="992" d="M965 1330l-292 -137l-9 36l301 138v-37zM475 1439l-402 -182v39l402 180v-37zM754 91q0 7 -23 62l-9 23l-4 13l-10 19q-42 -63 -97 -112l-48 -36q47 0 128 15l25 6zM816 1137q-8 -22 -8 -45q0 -20 9 -48t39 -57l30 -16q15 -6 32 -6l-64 -66q-30 0 -68 29q-36 30 -42 55 l-3 33l1 19q0 7 7 22zM833 899q0 -34 2 -37l7 -168v-39v-31l-2 -14l-1 -27l-6 -35l-15 -87q-3 -28 -7 -36l-7 -28l-10 -34l-11 -25l-31 -56q12 -12 33 -63.5t21 -83.5q0 -31 -13 -63l-12 -26l-12 -24q-10 -14 -121 -38q-83 -12 -160 -12q-36 0 -41 4l-4 30q0 38 13 48 q3 3 12 3l15 -1q10 0 18 4q44 21 105 96q57 70 69 107q2 5 -61 108l-59 95l-54 82l-45 61q-21 30 -50 59l-44 44l-58 57l-17 5l-15 -1l-10 -4l-44 42q-36 41 -50 88l-1 13q0 21 9 57l9 29q13 11 120 -95l48 -47l53 -56l87 -99l49 -67l56 -84q41 -67 85 -146l35 -66l31 103 l24 107l6 46l2 40v44v22v19v16v13v11l-1 38v17l-4 18l-1 29v18l-4 13l-6 31q0 10 -4 18q-2 13 -7 24zM216 1081l-33 -7q-15 -3 -43 -22l-42 -28l40 66l13 11l12 8l-27 24q-9 12 -12 29q0 22 14 36l45 54q15 17 35 17q25 0 39.5 -12.5t27.5 -43.5l-44 -51q-6 24 -24 39 q-15 15 -44 15h-4q0 -23 26 -45l46 -28l4 -2h48l22 -6l18 -8l-45 -53q-3 -3 -13 -3l-19 1l-19 1z" />
<glyph unicode="&#xfb;" horiz-adv-x="472" d="M232 157v107v288l-1 40l-1 38l-7 150l-9 108l5 8l-16 34q-6 17 -6 36l1 26l10 23l75 130l-3 -31q0 -49 26.5 -91.5t72.5 -69.5l-72 -128h-10l5 -96l5 -177l1 -123l1 -59l1 -58v-13v-11l-1 -27l-3 -36q-3 -21 -16 -43l-7 -9l9 2h6l27 -2q60 0 111 -45q36 -33 69 -99 l-75 -130q-30 63 -69 99q-48 45 -111 45l-21 -1q-13 0 -24 -4l-26 -6l-35 -11q-79 -22 -98 -22h-66v130h141h24q13 0 32 8z" />
<glyph unicode="&#xfc;" horiz-adv-x="590" d="M376 981q-15 15 -25 38q-8 22 -8 50q0 31 2 35l11 43q4 16 42 80l32 44l-9 -35l-3 -37q0 -52 39 -94q20 -19 93 -44l-75 -130l-36 11q0 -94 16 -250q9 -99 9 -158l-3 -43q-3 -23 -11 -36q-9 -28 -26 -49l-32 -38q46 -18 98 -76q7 -10 21 -33q8 -14 17 -28l52 -100 l-51 -141l-79 30l-21 5l-28 6l-55 3l-33 -1h-14l-21 -4l-29 -5q-10 0 -13 -2l-16 -6q-70 -21 -70 -61q0 -34 19 -139l15 -103l4 -59l1 -33q0 -79 10 -156l20 -201q11 -129 11 -186l-6 3l-17 10l-18 13l-26 193l-15 121l-13 96q0 16 -10 60l-24 141l-11 60l-11 47l-8 45 l-3 33q0 42 36 111q23 42 52 73q31 31 74 54q85 37 179 37l21 -1q-27 33 -56 49l-33 15q-15 6 -31 6t-18 -2q-33 -8 -42.5 -15t-50.5 -77l-7 54l-1 24l6 37q33 96 125 111l38 34q13 13 32 45l8 43l3 67v39v25l-2 20l-6 87z" />
<glyph unicode="&#xfd;" horiz-adv-x="742" d="M293 714v21q0 10 5 18q3 13 15 34q30 45 62 64q40 19 64 19q56 0 109 -63q14 -22 14 -38l-10 2l-37 4l-18 1q-20 0 -53 -6q-27 -3 -50 -19q-52 -35 -52 -79l6 -37q24 -17 55.5 -23.5t73.5 -6.5q75 0 121 53l55 71l-18 -56q-24 -63 -49 -94q-44 -53 -86 -79 q-44 -25 -112 -25l6 -34l16 -117l5 -65l2 -63v-16l-1 -15l-1 -16v-17v-13l-2 -10q0 -33 -9 -84l-10 -46q0 68 -19 141l-21 83q-13 64 -36 131q-19 68 -44 119l-10 25l-13 28l-28 57l-29 57l-36 63l75 130z" />
<glyph unicode="&#xfe;" horiz-adv-x="1000" d="M511 1507q0 -55 94 -153l175 -174q95 -103 95 -168q0 -35 -25 -64l-45 -34q-26 -20 -26 -50v-691l9 -38l28 -35q47 -40 109 -72l51 -24l-468 -1l-464 1l25 10l26 13q59 30 109 73q24 21 31 43l6 30v691q0 33 -37 58q-28 19 -34 26q-25 31 -25 64q0 66 94 167l176 174 q96 99 96 154zM511 1394q0 -41 -71 -115l-133 -131q-71 -77 -71 -126q0 -26 19 -48l22 -15l19 -15q12 -12 12 -33v-770l-9 -29q-2 -10 -5 -13l-10 -16q-8 -11 -23 -22l-11 -7h260h253l-8 7l-22 24q-11 14 -15 29l-6 27v770q0 21 18 36l35 27q19 22 19 48q0 50 -70 126 l-132 130q-71 74 -71 116zM667 117l-2 812q0 17 13 27l27 20q14 16 14 36q0 36 -52 94l-98 98q-54 56 -54 87q0 -30 -52 -83l-100 -101q-54 -57 -54 -95q0 -22 14 -36l18 -14q21 -14 21 -33l-1 -812h306z" />
<glyph unicode="&#xff;" horiz-adv-x="836" d="M504 516q0 38 -26 64t-64 26t-64 -26t-26 -64t26 -64t64 -26t64 26t26 64zM344 952q0 30 20 50t50 20t50 -20t20 -50q0 -36 -31 -58v-4q20 22 51 22q30 0 50 -20t20 -50t-20 -50t-50 -20t-51 22v-17q96 -15 159.5 -88t63.5 -173q0 -92 -62 -165.5t-161 -95.5v-13 q20 22 51 22q30 0 50 -20t20 -50t-20 -50t-50 -20t-51 22v-4q31 -20 31 -58q0 -30 -20 -50t-50 -20t-50 20t-20 50t23 52q-21 -12 -43 -12q-30 0 -50 20t-20 50t20 50t50 20q17 0 43 -15v7q-93 15 -156 88.5t-63 171.5q0 96 62.5 170t156.5 90v10q-19 -14 -43 -14 q-30 0 -50 20t-20 50t20 50t50 20q17 0 43 -15q-23 26 -23 55z" />
<glyph unicode="&#x152;" horiz-adv-x="1030" d="M978 95l-34 -94h-768q-19 0 -32 4.5t-24 16.5q-19 22 -19 55q0 30 15 60l22 36l33 43q10 11 41 35l94 56q45 27 73 71l30 55l19 36q12 18 34 18q23 0 34 -20q12 -18 12 -46l-2 -17q0 -13 -2 -15l-34 -94l3 16l1 16q0 35 -8 51.5t-27 16.5l-13 -3q-9 -3 -24 -21l-13 -18 l-11 -20q-23 -44 -44 -68t-62 -52l-79 -39q-42 -21 -55 -44l-4 -13l3 -11q3 -3 26 -9l47 -2h768l-34 -94z" />
<glyph unicode="&#x153;" horiz-adv-x="330" d="M271 650l-80 -100l-105 74l80 106zM191 458q44 -24 87 -105l17 -36l15 -39q12 -35 12 -64q0 -22 -5 -31l-51 -141q-6 -18 -38 -31q-31 -11 -103 -11h-33l-28 1h-76v141h121h30h14h13h12h33h25l21 4q-18 54 -51.5 102t-65.5 69z" />
<glyph unicode="&#x160;" horiz-adv-x="924" d="M838 210l-43 2l-39 1l-66 -3q-15 0 -21 -0.5t-19 -4.5q-24 -5 -51 -16l-45 -18l-22 -11l-23 -15l-159 -95q-55 -26 -140 -39t-132 -13h-96v141h76h71q102 0 149 11l36 7l34 10q21 6 53 24l38 20l63 36l-82 33q-64 23 -146 43l-46 -7l-35 -7l-46 -9l-69 -16l-21 -6 l-30 -10l12 41q15 45 34 70q71 92 168 92q62 0 145 -27l129 -54q81 -33 150 -39l47 -3l56 -1l68 1l53 3z" />
<glyph unicode="&#x161;" horiz-adv-x="481" d="M362 941l-63 -132h-14v-552q0 -15 -12 -54l-14 -37l-20 -38q-30 -54 -66 -81q-63 -48 -162 -48h-11l-8 1v115l36 1l41 1l31 7q33 8 69 24q19 8 28 17q17 15 17 39v669q-8 6 -25 39l-5 27l-2 25l1 19l37 68l34 59q0 -35 5 -46l8 -22l8 -15q19 -34 87 -86z" />
<glyph unicode="&#x178;" horiz-adv-x="390" d="M191 640l-80 -100l-105 74l80 106zM251 458q44 -24 87 -105l17 -36l15 -39q12 -35 12 -64q0 -22 -5 -31l-51 -141q-6 -18 -38 -31q-31 -11 -103 -11h-33l-28 1h-162v141h207h30h14h13h12h33h25l21 4q-18 54 -51.5 102t-65.5 69zM371 660l-80 -100l-105 74l80 106z" />
<glyph unicode="&#x192;" horiz-adv-x="360" d="M486 0h-601v140h601v-140z" />
<glyph unicode="&#x2c6;" horiz-adv-x="300" d="M256 597q-17 -36 -67 -88l-46 -43l21 47q21 62 21 137q6 43 -67 141q-24 33 -76 91l38 143l43 -50l34 -43q39 -53 80 -130q35 -68 35 -129q0 -41 -16 -76z" />
<glyph unicode="&#x2dc;" horiz-adv-x="936" d="M999 1638l-75 -130l-159 -80l-78 -42l-80 -45l-151 -94q-87 -60 -174 -129q-75 -60 -159 -141q-8 -8 -8 -20q0 -10 5 -23l6 -20l-75 -130l-14 37q-11 31 -11 48q0 12 42 93l43 80q29 51 106 122q19 17 150 116l161 109l35 24l36 21l82 46l158 80zM542 347v-11 q0 -19 -1 -33.5t-4 -24.5q-5 -27 -17 -42l-75 -130q-42 -65 -198 -94l-103 -8l-158 -3v130l129 1l121 5q86 0 139.5 13.5t80.5 34.5l6 14l5 18q0 117 -78 222q-35 48 -171 169q-113 98 -167 176l75 130q45 -69 167 -176q130 -113 171 -169q78 -102 78 -222z" />
<glyph unicode="&#x2000;" horiz-adv-x="867" />
<glyph unicode="&#x2001;" horiz-adv-x="1734" />
<glyph unicode="&#x2002;" horiz-adv-x="867" />
<glyph unicode="&#x2003;" horiz-adv-x="1734" />
<glyph unicode="&#x2004;" horiz-adv-x="578" />
<glyph unicode="&#x2005;" horiz-adv-x="433" />
<glyph unicode="&#x2006;" horiz-adv-x="289" />
<glyph unicode="&#x2007;" horiz-adv-x="289" />
<glyph unicode="&#x2008;" horiz-adv-x="216" />
<glyph unicode="&#x2009;" horiz-adv-x="346" />
<glyph unicode="&#x200a;" horiz-adv-x="96" />
<glyph unicode="&#x2010;" d="M625 470l-39 -59q-31 0 -60 -4t-73 -15l-75 -19l55 49l11 4l11 5l-30 24q-15 15 -15 29l9 23l11 13l45 54q15 17 35 17q28 0 46 -11t18 -36q0 -12 -28 -40l-13 -11q-6 23 -16 30l-22 11l-30 4h-4q0 -21 22 -43q15 -12 42 -27l12 -5l38 3l33 3z" />
<glyph unicode="&#x2011;" d="M625 470l-39 -59q-31 0 -60 -4t-73 -15l-75 -19l55 49l11 4l11 5l-30 24q-15 15 -15 29l9 23l11 13l45 54q15 17 35 17q28 0 46 -11t18 -36q0 -12 -28 -40l-13 -11q-6 23 -16 30l-22 11l-30 4h-4q0 -21 22 -43q15 -12 42 -27l12 -5l38 3l33 3z" />
<glyph unicode="&#x2012;" d="M625 470l-39 -59q-31 0 -60 -4t-73 -15l-75 -19l55 49l11 4l11 5l-30 24q-15 15 -15 29l9 23l11 13l45 54q15 17 35 17q28 0 46 -11t18 -36q0 -12 -28 -40l-13 -11q-6 23 -16 30l-22 11l-30 4h-4q0 -21 22 -43q15 -12 42 -27l12 -5l38 3l33 3z" />
<glyph unicode="&#x2013;" horiz-adv-x="486" d="M250 856l-84 -124l-63 43l-36 26l-24 21l81 127q60 -54 126 -93zM-29 120h17h14h12h11q13 0 28 0.5t35 3.5q29 0 62 6l42 10q143 24 207 74q0 43 -18 82l-19 22q-16 -26 -57 -52q-37 -17 -78 -17q-24 0 -59 13q-33 14 -52 31q-15 17 -24 36l-7 40l2 20l4 19q9 37 37 88 l29 53l37 57q22 34 61 34l24 -3l34 -11q40 -14 93 -95q62 -92 62 -173v-13l-2 -14v-18l-1 -24q0 -13 -5 -22q-6 -24 -13 -38q-5 -14 -13 -28q-14 -24 -49 -64q-67 -70 -203 -113q-90 -24 -211 -24v120zM335 386l-36 59q-14 22 -56 41q-21 6 -36 6q-22 0 -33 -11 q-11 -9 -11 -26q0 -18 30 -47l49 -16q33 -6 93 -6zM460 886l-84 -124l-63 43l-36 26l-24 21l81 127q60 -54 126 -93z" />
<glyph unicode="&#x2014;" d="M521 -601q-9 -9 -23 -10l-18 3l-13 3q-7 0 -21 10l-14 9l-15 -15q-18 -15 -31 -15t-26 5l-16 6v-17l1 -17q0 -18 -6 -36q-18 -49 -60.5 -81.5t-88.5 -32.5l-17 1q-57 8 -82 38q-21 26 -21 65q0 30 13 68l4 13l9 18l-7 -18l-5 -21l-2 -20q0 -22 2 -25l12 -23 q18 -23 44.5 -37.5t60.5 -14.5l23 1q16 0 25 5q14 3 33 18q23 18 27 25l10 21l2 16q0 31 -17 57l-18 28l27 48l22 -26l19 -14l18 -4l17 1q6 0 15 6l11 6l21 39q9 -15 21 -24l22 -16q10 -6 26 -7q17 0 21 8q3 6 -6 21l-11 14l22 35l11 -17l11 -35q0 -10 -12 -37z" />
<glyph unicode="&#x2018;" horiz-adv-x="1014" d="M912 229q0 49 -59 102.5t-109 53.5q-16 0 -24 -5l-23 -9l-25 -16q-28 -15 -61 -40q-57 -39 -126 -93l-111 -90l105 1l120 1q63 0 153 24q109 27 160 71zM320 848q-21 36 -21 91l75 130l3 -70q3 -27 16 -49l2 2v-5q12 -21 31 -33l24 -7l28 -3l-63 -121l-11 3l-9 4l16 -205 l1 -43l1 -42l6 -134v-13v-12q0 -47 -5 -60l-4 -27q0 -10 -4 -22l-16 -41l-8 -13l121 122l76 68l82 65q73 56 137 77l17 2q53 0 112.5 -51.5t59.5 -100.5v-17l-5 -22l-5 -15l-9 -24q-12 -36 -31 -65l-16 -22l-28 -34q-69 -81 -189 -126q-96 -36 -183 -36h-534v136h353 q8 33 12 81l5 66l1 31l-1 67l-1 71z" />
<glyph unicode="&#x2019;" horiz-adv-x="936" d="M655 711l-82 -94l-100 69l80 103zM847 219q0 49 -59 102.5t-109 53.5q-16 0 -24 -5l-23 -9l-25 -16q-28 -15 -61 -40q-57 -39 -126 -93l-111 -90l105 1l120 1q63 0 153 24q109 27 160 71zM255 838q-21 36 -21 91l75 130l3 -70q3 -27 16 -49l2 2v-5q12 -21 31 -33l24 -7 l28 -3l-63 -121l-11 3l-9 4l16 -205l1 -43l1 -42l6 -134v-13v-12q0 -47 -5 -60l-4 -27q0 -10 -4 -22l-16 -41l-8 -13l121 122l76 68l82 65q73 56 137 77l17 2q53 0 112.5 -51.5t59.5 -100.5v-17l-5 -22l-5 -15l-9 -24q-12 -36 -31 -65l-16 -22l-28 -34q-69 -81 -189 -126 q-96 -36 -183 -36h-494v136h313q8 33 12 81l5 66l1 31l-1 67l-1 71z" />
<glyph unicode="&#x201a;" horiz-adv-x="992" d="M918 1531l-311 -145l-18 29l311 145zM891 1287l-5 -16l-6 -12l-11 -14q-14 -15 -36 -15q-21 0 -41 26l-10 15l-13 30l22 45l15 -49l2 -12q0 -10 -5 -19l-22 -45q-6 -10 -32 -26l-12 -2q-8 0 -29 12l-16 28l-4 29v10l4 17l21 45l-3 -27l3 -28q3 -15 16 -28t30 -13l11 2 l13 9v20q0 6 -7 17l-7 15l22 45l22 -48q14 -23 41 -23q10 2 12 5l-1 22l-8 21l-4 4l-12 10l21 45q8 -4 20 -34l7 -28l4 -17q0 -13 -2 -16zM754 91q0 7 -23 62l-9 23l-4 13l-10 19q-42 -63 -97 -112l-48 -36q47 0 128 15l25 6zM816 1137q-8 -22 -8 -45q0 -20 9 -48t39 -57 l30 -16q15 -6 32 -6l-64 -66q-30 0 -68 29q-36 30 -42 55l-3 33l1 19q0 7 7 22zM833 899q0 -34 2 -37l7 -168v-39v-31l-2 -14l-1 -27l-6 -35l-15 -87q-3 -28 -7 -36l-7 -28l-10 -34l-11 -25l-31 -56q12 -12 33 -63.5t21 -83.5q0 -31 -13 -63l-12 -26l-12 -24 q-10 -14 -121 -38q-83 -12 -160 -12q-36 0 -41 4l-4 30q0 38 13 48q3 3 12 3l15 -1q10 0 18 4q44 21 105 96q57 70 69 107q2 5 -61 108l-59 95l-54 82l-45 61q-21 30 -50 59l-44 44l-58 57l-17 5l-15 -1l-10 -4l-44 42q-36 41 -50 88l-1 13q0 21 9 57l9 29q13 11 120 -95 l48 -47l53 -56l87 -99l49 -67l56 -84q41 -67 85 -146l35 -66l31 103l24 107l6 46l2 40v44v22v19v16v13v11l-1 38v17l-4 18l-1 29v18l-4 13l-6 31q0 10 -4 18q-2 13 -7 24z" />
<glyph unicode="&#x201c;" horiz-adv-x="666" d="M150 429q0 -112 153 -175l128 -43l70 26l42 18l57 26l56 30l-64 -123q-78 -45 -171 -81l-74 -25l-99 -28l-198 -44l-132 -15v137l256 12q-37 17 -61 41t-37 65l-6 27l-2 34q0 22 9 73l9 38l3 12q2 7 8 16l15 26l23 29q36 42 76 64l18 8l30 10l19 4l27 1q63 0 150 -72 q27 -24 72 -72l-91 19l-88 15l-59 5q-42 0 -98 -24q-32 -15 -41 -34z" />
<glyph unicode="&#x201d;" horiz-adv-x="640" d="M388 832l-101 -109l-113 109l109 108zM150 429q0 -112 153 -175l128 -43l70 26l42 18l57 26l56 30l-64 -123q-78 -45 -171 -81l-74 -25l-46 -13l-53 -15l-237 -57l-80 -2v124l243 25q-37 17 -61 41t-37 65l-6 27l-2 34q0 22 9 73l9 38l3 12q2 7 8 16l15 26l23 29 q36 42 76 64l18 8l30 10l19 4l27 1q63 0 150 -72q27 -24 72 -72l-91 19l-88 15l-59 5q-42 0 -98 -24q-32 -15 -41 -34z" />
<glyph unicode="&#x201e;" d="M263 -552q2 -6 24 -26q17 -9 35 -9h11h16l35 6l30 13l85 31l-5 -75l-100 -32l-124 -40l-123 -35l9 59l94 41l-19 12l-12 12l-11 18l1 26l1 16l1 6l6 9l4 23l1 3q3 10 11 20l29 36l28 23l32 20l31 17q14 0 32.5 -6t68.5 -33l-43 -61l-34 30l-32 15l-25 -14 q-27 -15 -41 -35l-11 -27l-7 -30q0 -10 2 -13zM577 -746l-420 -152l-2 50l142 60l153 56l133 52z" />
<glyph unicode="&#x2020;" horiz-adv-x="416" d="M271 652l-65 -83l-86 64l65 86zM442 678l-64 -84l-87 65l66 85zM281 458q44 -24 87 -105l17 -36l15 -39q12 -35 12 -64q0 -22 -5 -31l-51 -141q-6 -18 -38 -31q-31 -11 -103 -11h-33l-28 1h-166v141h211h30h14h13h12h33h25l21 4q-18 54 -51.5 102t-65.5 69z" />
<glyph unicode="&#x2021;" horiz-adv-x="420" d="M271 652l-65 -83l-86 64l65 86zM442 678l-64 -84l-87 65l66 85zM281 458q44 -24 87 -105l17 -36l15 -39q12 -35 12 -64q0 -22 -5 -31l-51 -141q-6 -18 -38 -31q-31 -11 -103 -11h-33l-28 1h-166v141h211h30h14h13h12h33h25l21 4q-18 54 -51.5 102t-65.5 69zM342 818 l-64 -84l-87 65l66 85z" />
<glyph unicode="&#x2022;" horiz-adv-x="486" d="M302 856l-84 -124l-63 43l-36 26l-24 21l81 127q60 -54 126 -93zM-29 120h17h14h12h11q13 0 28 0.5t35 3.5q29 0 62 6l42 10q143 24 207 74q0 43 -18 82l-19 22q-16 -26 -57 -52q-37 -17 -78 -17q-24 0 -59 13q-33 14 -52 31q-15 17 -24 36l-7 40l2 20l4 19q9 37 37 88 l29 53l37 57q22 34 61 34l24 -3l34 -11q40 -14 93 -95q62 -92 62 -173v-13l-2 -14v-18l-1 -24q0 -13 -5 -22q-6 -24 -13 -38q-5 -14 -13 -28q-14 -24 -49 -64q-67 -70 -203 -113q-90 -24 -211 -24v120zM335 386l-36 59q-14 22 -56 41q-21 6 -36 6q-22 0 -33 -11 q-11 -9 -11 -26q0 -18 30 -47l49 -16q33 -6 93 -6z" />
<glyph unicode="&#x2026;" horiz-adv-x="330" d="M271 -230l-80 -100l-105 74l80 106zM191 458q44 -24 87 -105l17 -36l15 -39q12 -35 12 -64q0 -22 -5 -31l-51 -141q-6 -18 -38 -31q-31 -11 -103 -11h-33l-28 1h-76v141h121h30h14h13h12h33h25l21 4q-18 54 -51.5 102t-65.5 69z" />
<glyph unicode="&#x202f;" horiz-adv-x="346" />
<glyph unicode="&#x2030;" horiz-adv-x="900" d="M557 -261l-82 -102l-100 77l78 105zM848 212l-43 2l-39 1l-66 -3q-15 0 -21 -0.5t-19 -4.5q-24 -5 -51 -16l-45 -18l-22 -11l-23 -15l-159 -95q-55 -26 -140 -39t-132 -13h-116v141h96h71q102 0 149 11l36 7l34 10q21 6 53 24l38 20l63 36l-82 33q-64 23 -146 43l-46 -7 l-35 -7l-46 -9l-69 -16l-21 -6l-30 -10l12 41q15 45 34 70q71 92 168 92q62 0 145 -27l129 -54q81 -33 150 -39l47 -3l56 -1l68 1l53 3z" />
<glyph unicode="&#x2039;" horiz-adv-x="900" d="M505 775l-82 -102l-100 77l78 105zM838 210l-43 2l-39 1l-66 -3q-15 0 -21 -0.5t-19 -4.5q-24 -5 -51 -16l-45 -18l-22 -11l-23 -15l-159 -95q-55 -26 -140 -39t-132 -13h-96v141h76h71q102 0 149 11l36 7l34 10q21 6 53 24l38 20l63 36l-82 33q-64 23 -146 43l-46 -7 l-35 -7l-46 -9l-69 -16l-21 -6l-30 -10l12 41q15 45 34 70q71 92 168 92q62 0 145 -27l129 -54q81 -33 150 -39l47 -3l56 -1l68 1l53 3z" />
<glyph unicode="&#x203a;" horiz-adv-x="517" d="M402 8q-58 0 -123 46q-57 39 -103 103l-46 -51l-52 -53l-25 -21l-23 -17l-29 -11l-58 -4v139h24q21 3 33 4q34 4 60.5 11.5t59.5 30.5l45 35q12 9 31 31l31 41l25 35l47 71q20 27 70 41l16 1q38 0 72 -22q22 -13 49 -51q17 -34 17 -101v-22v-12q0 -9 -2 -12q0 -12 -6 -36 q-6 -39 -18 -63t-42.5 -60.5t-52.5 -52.5zM442 139h4l3 2l2 15q0 46 -23 81q-27 46 -74 62l-23 4l-23 2q-19 0 -28 -5q-12 -3 -23 -20q45 -63 90 -93q11 -7 32.5 -17.5t62.5 -30.5z" />
<glyph unicode="&#x205f;" horiz-adv-x="433" />
<glyph unicode="&#x2122;" horiz-adv-x="936" d="M999 1638l-75 -130l-159 -80l-78 -42l-80 -45l-151 -94q-87 -60 -174 -129q-75 -60 -159 -141q-8 -8 -8 -20q0 -10 5 -23l6 -20l-75 -130l-14 37q-11 31 -11 48q0 12 42 93l43 80q29 51 106 122q19 17 150 116l161 109l35 24l36 21l82 46l158 80zM542 347v-11 q0 -19 -1 -33.5t-4 -24.5q-5 -27 -17 -42l-75 -130q-42 -65 -198 -94l-103 -8l-158 -3v130l129 1l121 5q86 0 139.5 13.5t80.5 34.5l6 14l5 18q0 117 -78 222q-35 48 -171 169q-113 98 -167 176l75 130q45 -69 167 -176q130 -113 171 -169q78 -102 78 -222z" />
<glyph unicode="&#x2219;" horiz-adv-x="636" d="M298 187l-16 16q-39 36 -75 48l-27 6l-35 2h-23l19 52q24 49 57 79q27 19 67 34q35 9 74 9h36q40 0 82 -26q50 -30 50 -74q0 -25 -26 -61l-33 -43q38 -47 118 -80q24 -9 72 -15l82 -5v-130l-118 3q-29 0 -44 2.5t-44 9.5q-65 15 -120 65l-23 20l-24 28l-65 -43l-72 -33 l-66 -25l-61 -19l-42 -6l-61 -2l-28 130h67h17l71 1l50 7q36 5 75 22q42 12 66 28z" />
<glyph unicode="&#x25fc;" horiz-adv-x="485" d="M0 485h485v-485h-485v485z" />
</font>
</defs>
</svg>
