<?xml version="1.0" standalone="no"?>
<!DOCTYPE svg PUBLIC "-//W3C//DTD SVG 1.1//EN" "http://www.w3.org/Graphics/SVG/1.1/DTD/svg11.dtd" >
<svg xmlns="http://www.w3.org/2000/svg" xmlns:xlink="http://www.w3.org/1999/xlink" version="1.1">
<metadata></metadata>
<defs>
<font id="me_quran2regular" horiz-adv-x="0" >
<font-face units-per-em="1000" ascent="760" descent="-240" />
<missing-glyph horiz-adv-x="317" />
<glyph unicode="&#xfee0;&#xfea4;&#xfef0;" horiz-adv-x="1673" arabic-form="final" d="M1497 693h5q10 0 41 -171q57 -348 71 -377q39 -36 68 -36h74q28 -16 29 -54q0 -37 -29 -55h-84q-58 5 -107 55l-8 3q-73 -58 -125 -58h-59v109h47h17q79 0 95 47v8l-76 466q15 63 41 63zM914 347q203 -74 270 -93l31 -3h16l47 6q60 -5 60 -38q0 -55 -77 -73v-19v-1 q0 -17 55 -17h50q31 -16 31 -54t-31 -55h-31q-102 0 -120 27q-12 19 -11 49q0 14 2 30v28q-11 13 -32 12h-18q-3 0 -7 1q-45 0 -123 -44q-85 -48 -121 -64.5t-64.5 -24.5t-70.5 -14h-34v109q31 0 77 9.5t99.5 30t72.5 45.5q-25 35 -80 35h-2q-35 0 -104 -41h-11q-7 0 -14 20 q6 85 126 137zM710 109h19q27 -21 27 -53q0 -39 -27 -56h-28q-46 0 -76.5 -3.5t-68 -21.5t-49.5 -32q10 -14 142 -49q27 -21 28 -62q0 -139 -323 -222q-38 -8 -74 -8q-168 0 -246 134q-24 55 -24 103q0 88 95 214l22 8q11 -10 11 -22h3q0 -8 -58 -109q-14 -36 -13 -55 q0 -83 153 -153l24 -3h63q142 0 249 74v8q0 12 -98 31q-65 26 -66 70q0 61 88 126q74 51 108 66t119 15z" />
<glyph unicode="&#xfedf;&#xfbe9;&#xfee2;" horiz-adv-x="1091" d="M935 714h12q7 0 16 -66q0 -19 52 -41l3 -3v-24q0 -22 -30 -80v-11q0 -42 43 -301l5 -63q-7 -63 -41 -92.5t-70 -32.5h-94v109h89q47 7 47 54l-78 458v5q15 88 46 88zM751 328q47 0 99 -164q-3 -96 -78 -125q-70 -36 -159 -39h-51v109q116 0 158.5 7t49.5 40q-2 24 -32 61 t-30 54q19 57 43 57zM599 674l30 9q27 -46 34 -209q-4 -126 -14 -126q-35 170 -61 251l-13 35q0 26 24 40zM275 207q11 0 126 -77q69 -21 99 -21h71q30 -14 30 -55q0 -38 -30 -54h-61q-47 2 -74 10q-31 0 -41 -93q-10 -55 -33 -55q-112 27 -112 112q-9 79 -27 79 q-126 -10 -140 -46q-14 -28 -13 -66l52 -426q-8 -65 -33 -66h-6q-12 0 -30 183q-44 299 -43 345q0 92 104 161q153 39 152 66l3 3h6z" />
<glyph unicode="&#xfedf;&#xfb51;" horiz-adv-x="503" d="M151 661q-22 0 -52.5 2t-57.5 5.5t-41 5.5l7 51q9 -1 23 -3t31 -3q14 30 34.5 60t48 50.5t64.5 20.5q32 0 60.5 -20t28.5 -67q0 -24 -12 -47.5t-43.5 -39t-90.5 -15.5zM204 796q-25 0 -48 -23t-42 -59q21 -1 37 -1q57 0 74.5 13t17.5 32q0 20 -12 29t-27 9zM393 536 q0 22 -3 53t-7 62t-8 53l86 10q3 -20 6.5 -52.5t5.5 -64.5t2 -53q0 -63 -11.5 -122.5t-37.5 -115.5q47 -49 69 -90t22 -81q0 -29 -14 -60.5t-51 -53t-107 -21.5h-230v81q150 107 214 213q-56 50 -131.5 107t-157.5 116l47 66q89 -66 158 -119.5t119 -98.5q15 40 22 82.5 t7 88.5zM234 82h126q51 0 67 18.5t16 42.5q0 18 -14.5 42t-40.5 52q-28 -42 -66.5 -81t-87.5 -74z" />
<glyph unicode="&#xfee0;&#xfb51;" horiz-adv-x="635" d="M151 661q-22 0 -52.5 2t-57.5 5.5t-41 5.5l7 51q9 -1 23 -3t31 -3q14 30 34.5 60t48 50.5t64.5 20.5q32 0 60.5 -20t28.5 -67q0 -24 -12 -47.5t-43.5 -39t-90.5 -15.5zM204 796q-25 0 -48 -23t-42 -59q21 -1 37 -1q57 0 74.5 13t17.5 32q0 20 -12 29t-27 9zM142 -5 q-27 0 -54.5 4.5t-38.5 6.5l11 79q90 -12 164.5 2.5t118.5 72.5q-39 64 -117 155.5t-186 188.5l54 57q106 -100 175 -181t111 -141q12 43 14 98l-14 377h82l20 -515q2 -49 9.5 -75.5t34 -36.5t83.5 -10q21 0 30.5 -11.5t9.5 -27.5t-14 -29.5t-36 -13.5q-70 0 -111 13.5 t-60 42t-25 73.5q-31 -55 -76 -83t-93.5 -37t-91.5 -9z" />
<glyph unicode="&#x671;" horiz-adv-x="290" arabic-form="isolated" d="M158 632q30 0 35 -77q60 -427 60 -456q-9 -99 -29 -99h-3q-19 0 -19 60l-82 487q17 85 38 85zM226 810q-3 5 -8 6q-5 0 -13 -6q-16 -11 -31 -42q4 -1 8 -1q14 0 26 12q20 17 19 27q0 2 -1 4zM226 881q42 0 55 -63q0 -72 -104 -120q-23 -8 -44 -8l-49 10h-14 q-11 0 -46 -21q-5 0 -14 21q18 77 77 77q47 0 60 33q38 71 79 71z" />
<glyph unicode="&#x671;" horiz-adv-x="371" arabic-form="final" d="M155 622h8q25 -3 49 -215q26 -279 76 -290q13 -6 42 -8h56q21 -13 22 -55q0 -41 -22 -54h-45q-114 0 -148 82q-26 58 -73 469q-1 40 35 71zM226 806q-3 5 -8 6q-5 0 -13 -6q-16 -11 -31 -42q4 -1 8 -1q14 0 26 12q20 17 19 27q0 2 -1 4zM226 877q42 0 55 -63 q0 -72 -104 -120q-23 -8 -44 -8l-49 10h-14q-11 0 -46 -21q-5 0 -14 21q18 77 77 77q47 0 60 33q38 71 79 71z" />
<glyph unicode="&#x67b;" horiz-adv-x="993" arabic-form="isolated" d="M833 343q27 0 69 -68q19 -38 19 -66v-2q0 -112 -55 -140q-181 -87 -527 -88q-214 0 -280 129q-11 34 -10 55q0 61 76 164q12 11 30 11q9 0 17 -22l-44 -123v-5q0 -67 205 -96l41 -3q473 29 473 90v3q0 12 -57 79l-6 16q16 66 49 66zM549 -192l-79 51l55 80l77 -52z M573 -335l-79 51l55 80l77 -52z" />
<glyph unicode="&#x67b;" horiz-adv-x="1093" arabic-form="final" d="M390 -21q-178 0 -269 47t-91 156q0 37 9 78.5t19 78.5l75 -19q-6 -22 -13.5 -55.5t-7.5 -59.5q0 -52 26.5 -83.5t92.5 -46t185 -14.5q61 0 129 7.5t135.5 27t128.5 53.5t107 86l63 -37q-9 -23 -12 -36.5t-3 -24.5q0 -15 11 -28.5t41.5 -22.5t86.5 -9q21 0 30.5 -11.5 t9.5 -27.5t-14 -29.5t-36 -13.5q-88 0 -144.5 26t-57.5 85q-83 -64 -215 -95.5t-286 -31.5zM463 -212q-21 0 -35.5 14.5t-14.5 34.5t14.5 35t35.5 15q20 0 34.5 -15t14.5 -35t-14.5 -34.5t-34.5 -14.5zM464 -341q-21 0 -35.5 14.5t-14.5 34.5t14.5 35t35.5 15q20 0 34.5 -15 t14.5 -35t-14.5 -34.5t-34.5 -14.5z" />
<glyph unicode="&#x67b;" horiz-adv-x="269" arabic-form="initial" d="M0 -5l10 82q49 0 78 6t42 24.5t13 55.5q0 38 -17.5 95.5t-39.5 114.5l81 30q13 -32 24.5 -73t19.5 -81t8 -70q0 -100 -53.5 -142t-165.5 -42zM107 -192q-21 0 -35.5 14.5t-14.5 34.5t14.5 35t35.5 15q20 0 34.5 -15t14.5 -35t-14.5 -34.5t-34.5 -14.5zM108 -321 q-21 0 -35.5 14.5t-14.5 34.5t14.5 35t35.5 15q20 0 34.5 -15t14.5 -35t-14.5 -34.5t-34.5 -14.5z" />
<glyph unicode="&#x67b;" horiz-adv-x="343" arabic-form="medial" d="M0 -5l10 82q42 0 66 7.5t36.5 29t21.5 62.5t22 107l78 -15q-6 -27 -13.5 -62t-7.5 -59q0 -20 9 -36t39 -25t92 -9q21 0 30.5 -11.5t9.5 -27.5t-14 -29.5t-36 -13.5q-79 0 -117 17t-52 51q-30 -42 -69 -55t-105 -13zM170 -192q-21 0 -35.5 14.5t-14.5 34.5t14.5 35 t35.5 15q20 0 34.5 -15t14.5 -35t-14.5 -34.5t-34.5 -14.5zM171 -321q-21 0 -35.5 14.5t-14.5 34.5t14.5 35t35.5 15q20 0 34.5 -15t14.5 -35t-14.5 -34.5t-34.5 -14.5z" />
<glyph unicode="&#x67e;" horiz-adv-x="993" arabic-form="isolated" d="M833 343q27 0 69 -68q19 -38 19 -66v-2q0 -112 -55 -140q-181 -87 -527 -88q-214 0 -280 129q-11 34 -10 55q0 61 76 164q12 11 30 11q9 0 17 -22l-44 -123v-5q0 -67 205 -96l41 -3q473 29 473 90v3q0 12 -57 79l-6 16q16 66 49 66zM577 -216l51 79l80 -55l-52 -77z M421 -238l51 79l80 -55l-52 -77zM520 -375l52 79l80 -55l-52 -77z" />
<glyph unicode="&#x67e;" horiz-adv-x="1093" arabic-form="final" d="M390 -21q-178 0 -269 47t-91 156q0 37 9 78.5t19 78.5l75 -19q-6 -22 -13.5 -55.5t-7.5 -59.5q0 -52 26.5 -83.5t92.5 -46t185 -14.5q61 0 129 7.5t135.5 27t128.5 53.5t107 86l63 -37q-9 -23 -12 -36.5t-3 -24.5q0 -15 11 -28.5t41.5 -22.5t86.5 -9q21 0 30.5 -11.5 t9.5 -27.5t-14 -29.5t-36 -13.5q-88 0 -144.5 26t-57.5 85q-83 -64 -215 -95.5t-286 -31.5zM395 -214q-21 0 -35.5 14.5t-14.5 34.5t14.5 35t35.5 15q20 0 34.5 -15t14.5 -35t-14.5 -34.5t-34.5 -14.5zM531 -214q-21 0 -35.5 14.5t-14.5 34.5t14.5 35t35.5 15q20 0 34.5 -15 t14.5 -35t-14.5 -34.5t-34.5 -14.5zM463 -324q-21 0 -35.5 14.5t-14.5 34.5t14.5 35t35.5 15q20 0 34.5 -15t14.5 -35t-14.5 -34.5t-34.5 -14.5z" />
<glyph unicode="&#x67e;" horiz-adv-x="299" arabic-form="initial" d="M0 -5l10 82q59 0 92 4.5t47 23t14 58.5q0 38 -17.5 95.5t-39.5 114.5l81 30q13 -32 24.5 -73t19.5 -81t8 -70q0 -100 -56 -142t-183 -42zM45 -194q-21 0 -35.5 14.5t-14.5 34.5t14.5 35t35.5 15q20 0 34.5 -15t14.5 -35t-14.5 -34.5t-34.5 -14.5zM181 -194 q-21 0 -35.5 14.5t-14.5 34.5t14.5 35t35.5 15q20 0 34.5 -15t14.5 -35t-14.5 -34.5t-34.5 -14.5zM113 -304q-21 0 -35.5 14.5t-14.5 34.5t14.5 35t35.5 15q20 0 34.5 -15t14.5 -35t-14.5 -34.5t-34.5 -14.5z" />
<glyph unicode="&#x67e;" horiz-adv-x="373" arabic-form="medial" d="M0 -5l10 82q50 0 78 7.5t42.5 29t23.5 62.5t22 107l78 -15q-6 -27 -13.5 -62t-7.5 -59q0 -15 2 -28t15 -22t44 -14.5t89 -5.5q21 0 30.5 -11.5t9.5 -27.5t-14 -29.5t-36 -13.5q-65 0 -101.5 7.5t-54 22t-25.5 36.5q-29 -41 -71.5 -53.5t-120.5 -12.5zM112 -194 q-21 0 -35.5 14.5t-14.5 34.5t14.5 35t35.5 15q20 0 34.5 -15t14.5 -35t-14.5 -34.5t-34.5 -14.5zM248 -194q-21 0 -35.5 14.5t-14.5 34.5t14.5 35t35.5 15q20 0 34.5 -15t14.5 -35t-14.5 -34.5t-34.5 -14.5zM180 -304q-21 0 -35.5 14.5t-14.5 34.5t14.5 35t35.5 15 q20 0 34.5 -15t14.5 -35t-14.5 -34.5t-34.5 -14.5z" />
<glyph unicode="&#x680;" horiz-adv-x="993" arabic-form="isolated" d="M833 343q27 0 69 -68q19 -38 19 -66v-2q0 -112 -55 -140q-181 -87 -527 -88q-214 0 -280 129q-11 34 -10 55q0 61 76 164q12 11 30 11q9 0 17 -22l-44 -123v-5q0 -67 205 -96l41 -3q473 29 473 90v3q0 12 -57 79l-6 16q16 66 49 66zM520 -144l-51 -79l-80 55l52 77z M663 -120l-51 -79l-80 55l52 77zM554 -315l-51 -79l-80 55l52 77zM697 -291l-51 -79l-80 55l52 77z" />
<glyph unicode="&#x680;" horiz-adv-x="1093" arabic-form="final" d="M390 -21q-178 0 -269 47t-91 156q0 37 9 78.5t19 78.5l75 -19q-6 -22 -13.5 -55.5t-7.5 -59.5q0 -52 26.5 -83.5t92.5 -46t185 -14.5q61 0 129 7.5t135.5 27t128.5 53.5t107 86l63 -37q-9 -23 -12 -36.5t-3 -24.5q0 -15 11 -28.5t41.5 -22.5t86.5 -9q21 0 30.5 -11.5 t9.5 -27.5t-14 -29.5t-36 -13.5q-88 0 -144.5 26t-57.5 85q-83 -64 -215 -95.5t-286 -31.5zM535 -212q-21 0 -35.5 14.5t-14.5 34.5t14.5 35t35.5 15q20 0 34.5 -15t14.5 -35t-14.5 -34.5t-34.5 -14.5zM399 -212q-21 0 -35.5 14.5t-14.5 34.5t14.5 35t35.5 15q20 0 34.5 -15 t14.5 -35t-14.5 -34.5t-34.5 -14.5zM535 -337q-21 0 -35.5 14.5t-14.5 34.5t14.5 35t35.5 15q20 0 34.5 -15t14.5 -35t-14.5 -34.5t-34.5 -14.5zM399 -337q-21 0 -35.5 14.5t-14.5 34.5t14.5 35t35.5 15q20 0 34.5 -15t14.5 -35t-14.5 -34.5t-34.5 -14.5z" />
<glyph unicode="&#x680;" horiz-adv-x="299" arabic-form="initial" d="M0 -5l10 82q59 0 92 4.5t47 23t14 58.5q0 38 -17.5 95.5t-39.5 114.5l81 30q13 -32 24.5 -73t19.5 -81t8 -70q0 -100 -56 -142t-183 -42zM185 -192q-21 0 -35.5 14.5t-14.5 34.5t14.5 35t35.5 15q20 0 34.5 -15t14.5 -35t-14.5 -34.5t-34.5 -14.5zM49 -192 q-21 0 -35.5 14.5t-14.5 34.5t14.5 35t35.5 15q20 0 34.5 -15t14.5 -35t-14.5 -34.5t-34.5 -14.5zM185 -317q-21 0 -35.5 14.5t-14.5 34.5t14.5 35t35.5 15q20 0 34.5 -15t14.5 -35t-14.5 -34.5t-34.5 -14.5zM49 -317q-21 0 -35.5 14.5t-14.5 34.5t14.5 35t35.5 15 q20 0 34.5 -15t14.5 -35t-14.5 -34.5t-34.5 -14.5z" />
<glyph unicode="&#x680;" horiz-adv-x="373" arabic-form="medial" d="M0 -5l10 82q50 0 78 7.5t42.5 29t23.5 62.5t22 107l78 -15q-6 -27 -13.5 -62t-7.5 -59q0 -15 2 -28t15 -22t44 -14.5t89 -5.5q21 0 30.5 -11.5t9.5 -27.5t-14 -29.5t-36 -13.5q-65 0 -101.5 7.5t-54 22t-25.5 36.5q-29 -41 -71.5 -53.5t-120.5 -12.5zM252 -192 q-21 0 -35.5 14.5t-14.5 34.5t14.5 35t35.5 15q20 0 34.5 -15t14.5 -35t-14.5 -34.5t-34.5 -14.5zM116 -192q-21 0 -35.5 14.5t-14.5 34.5t14.5 35t35.5 15q20 0 34.5 -15t14.5 -35t-14.5 -34.5t-34.5 -14.5zM252 -317q-21 0 -35.5 14.5t-14.5 34.5t14.5 35t35.5 15 q20 0 34.5 -15t14.5 -35t-14.5 -34.5t-34.5 -14.5zM116 -317q-21 0 -35.5 14.5t-14.5 34.5t14.5 35t35.5 15q20 0 34.5 -15t14.5 -35t-14.5 -34.5t-34.5 -14.5z" />
<glyph unicode="&#x67a;" horiz-adv-x="993" arabic-form="isolated" d="M833 343q27 0 69 -68q19 -38 19 -66v-2q0 -112 -55 -140q-181 -87 -527 -88q-214 0 -280 129q-11 34 -10 55q0 61 76 164q12 11 30 11q9 0 17 -22l-44 -123v-5q0 -67 205 -96l41 -3q473 29 473 90v3q0 12 -57 79l-6 16q16 66 49 66zM470 447l79 -51l-55 -80l-77 52z M446 590l79 -51l-55 -80l-77 52z" />
<glyph unicode="&#x67a;" horiz-adv-x="1093" arabic-form="final" d="M390 -21q-178 0 -269 47t-91 156q0 37 9 78.5t19 78.5l75 -19q-6 -22 -13.5 -55.5t-7.5 -59.5q0 -52 26.5 -83.5t92.5 -46t185 -14.5q61 0 129 7.5t135.5 27t128.5 53.5t107 86l63 -37q-9 -23 -12 -36.5t-3 -24.5q0 -15 11 -28.5t41.5 -22.5t86.5 -9q21 0 30.5 -11.5 t9.5 -27.5t-14 -29.5t-36 -13.5q-88 0 -144.5 26t-57.5 85q-83 -64 -215 -95.5t-286 -31.5zM487 530q-21 0 -35.5 14.5t-14.5 34.5t14.5 35t35.5 15q20 0 34.5 -15t14.5 -35t-14.5 -34.5t-34.5 -14.5zM488 401q-21 0 -35.5 14.5t-14.5 34.5t14.5 35t35.5 15q20 0 34.5 -15 t14.5 -35t-14.5 -34.5t-34.5 -14.5z" />
<glyph unicode="&#x67a;" horiz-adv-x="269" arabic-form="initial" d="M0 -5l10 82q49 0 78 6t42 24.5t13 55.5q0 38 -17.5 95.5t-39.5 114.5l81 30q13 -32 24.5 -73t19.5 -81t8 -70q0 -100 -53.5 -142t-165.5 -42zM127 636q-21 0 -35.5 14.5t-14.5 34.5t14.5 35t35.5 15q20 0 34.5 -15t14.5 -35t-14.5 -34.5t-34.5 -14.5zM128 507 q-21 0 -35.5 14.5t-14.5 34.5t14.5 35t35.5 15q20 0 34.5 -15t14.5 -35t-14.5 -34.5t-34.5 -14.5z" />
<glyph unicode="&#x67a;" horiz-adv-x="343" arabic-form="medial" d="M0 -5l10 82q42 0 66 7.5t36.5 29t21.5 62.5t22 107l78 -15q-6 -27 -13.5 -62t-7.5 -59q0 -20 9 -36t39 -25t92 -9q21 0 30.5 -11.5t9.5 -27.5t-14 -29.5t-36 -13.5q-79 0 -117 17t-52 51q-30 -42 -69 -55t-105 -13zM186 515q-21 0 -35.5 14.5t-14.5 34.5t14.5 35t35.5 15 q20 0 34.5 -15t14.5 -35t-14.5 -34.5t-34.5 -14.5zM187 386q-21 0 -35.5 14.5t-14.5 34.5t14.5 35t35.5 15q20 0 34.5 -15t14.5 -35t-14.5 -34.5t-34.5 -14.5z" />
<glyph unicode="&#x67f;" horiz-adv-x="993" arabic-form="isolated" d="M833 343q27 0 69 -68q19 -38 19 -66v-2q0 -112 -55 -140q-181 -87 -527 -88q-214 0 -280 129q-11 34 -10 55q0 61 76 164q12 11 30 11q9 0 17 -22l-44 -123v-5q0 -67 205 -96l41 -3q473 29 473 90v3q0 12 -57 79l-6 16q16 66 49 66zM464 470l-51 -79l-80 55l52 77z M607 494l-51 -79l-80 55l52 77zM438 633l-51 -79l-80 55l52 77zM581 657l-51 -79l-80 55l52 77z" />
<glyph unicode="&#x67f;" horiz-adv-x="1093" arabic-form="final" d="M390 -21q-178 0 -269 47t-91 156q0 37 9 78.5t19 78.5l75 -19q-6 -22 -13.5 -55.5t-7.5 -59.5q0 -52 26.5 -83.5t92.5 -46t185 -14.5q61 0 129 7.5t135.5 27t128.5 53.5t107 86l63 -37q-9 -23 -12 -36.5t-3 -24.5q0 -15 11 -28.5t41.5 -22.5t86.5 -9q21 0 30.5 -11.5 t9.5 -27.5t-14 -29.5t-36 -13.5q-88 0 -144.5 26t-57.5 85q-83 -64 -215 -95.5t-286 -31.5zM422 526q-21 0 -35.5 14.5t-14.5 34.5t14.5 35t35.5 15q20 0 34.5 -15t14.5 -35t-14.5 -34.5t-34.5 -14.5zM558 526q-21 0 -35.5 14.5t-14.5 34.5t14.5 35t35.5 15q20 0 34.5 -15 t14.5 -35t-14.5 -34.5t-34.5 -14.5zM422 401q-21 0 -35.5 14.5t-14.5 34.5t14.5 35t35.5 15q20 0 34.5 -15t14.5 -35t-14.5 -34.5t-34.5 -14.5zM558 401q-21 0 -35.5 14.5t-14.5 34.5t14.5 35t35.5 15q20 0 34.5 -15t14.5 -35t-14.5 -34.5t-34.5 -14.5z" />
<glyph unicode="&#x67f;" horiz-adv-x="299" arabic-form="initial" d="M82 632q-21 0 -35.5 14.5t-14.5 34.5t14.5 35t35.5 15q20 0 34.5 -15t14.5 -35t-14.5 -34.5t-34.5 -14.5zM218 632q-21 0 -35.5 14.5t-14.5 34.5t14.5 35t35.5 15q20 0 34.5 -15t14.5 -35t-14.5 -34.5t-34.5 -14.5zM82 507q-21 0 -35.5 14.5t-14.5 34.5t14.5 35t35.5 15 q20 0 34.5 -15t14.5 -35t-14.5 -34.5t-34.5 -14.5zM218 507q-21 0 -35.5 14.5t-14.5 34.5t14.5 35t35.5 15q20 0 34.5 -15t14.5 -35t-14.5 -34.5t-34.5 -14.5zM0 -5l10 82q59 0 92 4.5t47 23t14 58.5q0 38 -17.5 95.5t-39.5 114.5l81 30q13 -32 24.5 -73t19.5 -81t8 -70 q0 -100 -56 -142t-183 -42z" />
<glyph unicode="&#x67f;" horiz-adv-x="373" arabic-form="medial" d="M131 511q-21 0 -35.5 14.5t-14.5 34.5t14.5 35t35.5 15q20 0 34.5 -15t14.5 -35t-14.5 -34.5t-34.5 -14.5zM267 511q-21 0 -35.5 14.5t-14.5 34.5t14.5 35t35.5 15q20 0 34.5 -15t14.5 -35t-14.5 -34.5t-34.5 -14.5zM131 386q-21 0 -35.5 14.5t-14.5 34.5t14.5 35 t35.5 15q20 0 34.5 -15t14.5 -35t-14.5 -34.5t-34.5 -14.5zM267 386q-21 0 -35.5 14.5t-14.5 34.5t14.5 35t35.5 15q20 0 34.5 -15t14.5 -35t-14.5 -34.5t-34.5 -14.5zM0 -5l10 82q50 0 78 7.5t42.5 29t23.5 62.5t22 107l78 -15q-6 -27 -13.5 -62t-7.5 -59q0 -15 2 -28 t15 -22t44 -14.5t89 -5.5q21 0 30.5 -11.5t9.5 -27.5t-14 -29.5t-36 -13.5q-65 0 -101.5 7.5t-54 22t-25.5 36.5q-29 -41 -71.5 -53.5t-120.5 -12.5z" />
<glyph unicode="&#x679;" horiz-adv-x="993" arabic-form="isolated" d="M833 343q27 0 69 -68q19 -38 19 -66v-2q0 -112 -55 -140q-181 -87 -527 -88q-214 0 -280 129q-11 34 -10 55q0 61 76 164q12 11 30 11q9 0 17 -22l-44 -123v-5q0 -67 205 -96l41 -3q473 29 473 90v3q0 12 -57 79l-6 16q16 66 49 66zM400.006 663.619 q7.60059 0 7.60059 -16.4014q16.4014 -16.4014 16.4014 -24.4014l-5.60059 -25.2012v-12.001q18.4014 -107.207 18.8018 -120.407v-8.80078q0 -5.60059 4 -6.40039q40.8027 32.8018 61.6035 32.8018q16.8008 0 38.002 -18.4014q5.60059 -8.40039 7.60059 -17.6006 q0 -21.2012 -36.8018 -63.6045q-42.4023 -27.2012 -100.807 -27.2012h-32.8018q-16.8008 0 -65.6045 27.2012l-6.40039 10.001q4.00098 8.80078 10.8008 8.80078q34.002 -9.60059 41.6025 -10.001h5.60059q34.8027 0 51.2031 35.2021l1.2002 5.2002v2.40039 q0 12.001 -30.8018 170.811q-6.80078 12.001 -6.40039 20.4014q10 37.6025 20.8008 37.6025zM426.008 396.402l6.80078 -2h5.59961q28.002 0 68.4043 24.002q10.001 7.59961 10.001 12.8008q-13.6006 12 -24.002 12.4004h-7.60059q-20.4004 0 -59.2031 -46.0029v-1.2002z " />
<glyph unicode="&#x679;" horiz-adv-x="1093" arabic-form="final" d="M390 -21q-178 0 -269 47t-91 156q0 37 9 78.5t19 78.5l75 -19q-6 -22 -13.5 -55.5t-7.5 -59.5q0 -52 26.5 -83.5t92.5 -46t185 -14.5q61 0 129 7.5t135.5 27t128.5 53.5t107 86l63 -37q-9 -23 -12 -36.5t-3 -24.5q0 -15 11 -28.5t41.5 -22.5t86.5 -9q21 0 30.5 -11.5 t9.5 -27.5t-14 -29.5t-36 -13.5q-88 0 -144.5 26t-57.5 85q-83 -64 -215 -95.5t-286 -31.5zM820 -639q-7 -72 -34 -89l-240 -137q0 31 3.5 43t9.5 20.5t15 15.5t25 15zM553 -471q20 0 79 -66q19 -16 18 -33q-12 -44 -31 -45h-89q-51 -10 -51 -28l38 -256q-6 -46 -22 -47 q-16 0 -23 82l-30 204q0 34 52 106v9q0 44 46 73z" />
<glyph unicode="&#x679;" horiz-adv-x="299" arabic-form="initial" d="M151 535q-18 0 -42.5 1.5t-46.5 3.5l-33 3l2 58q6 -1 13 -1.5t15 -1.5q10 18 22 34l-5 162h55l5 -106q18 13 37.5 20.5t39.5 7.5q38 0 60 -23t22 -57q0 -20 -11.5 -43.5t-42.5 -40.5t-90 -17zM205 657q-18 0 -35 -11t-31.5 -26t-22.5 -26q16 -1 28 -1q49 0 71 10.5 t22 27.5q0 14 -9 20t-23 6zM0 -5l10 82q59 0 92 4.5t47 23t14 58.5q0 38 -17.5 95.5t-39.5 114.5l81 30q13 -32 24.5 -73t19.5 -81t8 -70q0 -100 -56 -142t-183 -42z" />
<glyph unicode="&#x679;" horiz-adv-x="343" arabic-form="medial" d="M0 -5l10 82q42 0 66 7.5t36.5 29t21.5 62.5t22 107l78 -15q-6 -27 -13.5 -62t-7.5 -59q0 -20 9 -36t39 -25t92 -9q21 0 30.5 -11.5t9.5 -27.5t-14 -29.5t-36 -13.5q-79 0 -117 17t-52 51q-30 -42 -69 -55t-105 -13zM519 -654q-7 -72 -34 -89l-240 -137q0 31 3.5 43 t9.5 20.5t15 15.5t25 15zM252 -486q20 0 79 -66q19 -16 18 -33q-12 -44 -31 -45h-89q-51 -10 -51 -28l38 -256q-6 -46 -22 -47q-16 0 -23 82l-30 204q0 34 52 106v9q0 44 46 73z" />
<glyph unicode="&#x6a4;" horiz-adv-x="983" arabic-form="isolated" d="M688 437q79 0 140 -205v-14q0 -51 -49 -134q-61 -57 -194 -84q-183 -38 -274 -39q-198 0 -252 109q-11 39 -10 60v14q0 90 84 164h8q17 0 17 -14q-38 -88 -38 -98v-16q0 -81 125 -110l33 -2h30q240 0 438 87q18 15 22 25v3q-3 22 -17 22l-82 -39q-61 0 -90 101v20 q0 93 88 147zM650 316v-16q5 -11 19 -11h30l6 5q-22 44 -38 44q-17 -5 -17 -22z" />
<glyph unicode="&#x6a4;" horiz-adv-x="1098" arabic-form="final" d="M390 -21q-178 0 -269 47t-91 156q0 37 9 78.5t19 78.5l75 -19q-6 -22 -13.5 -55.5t-7.5 -59.5q0 -52 26.5 -83.5t92.5 -46t185 -14.5q110 0 197 6.5t141 15.5q-24 20 -47 54.5t-23 84.5q0 54 24.5 97.5t64.5 69.5t86 26q49 0 86 -27.5t57.5 -70t20.5 -87.5 q0 -47 -19 -83.5t-52 -63.5q41 -3 83 -4.5t73 -1.5q21 0 30.5 -11.5t9.5 -27.5t-14 -29.5t-36 -13.5q-129 0 -242 33q-16 -6 -34 -11q-30 -9 -95.5 -17.5t-153 -14.5t-183.5 -6zM766 220q0 -40 25.5 -67.5t56.5 -44.5q39 18 66 46.5t27 69.5q0 23 -11 48t-30 43t-44 18 q-24 0 -44.5 -17t-33 -43t-12.5 -53zM903 432l30 9q27 -46 34 -209q-4 -126 -14 -126q-35 170 -61 251l-13 35q0 26 24 40zM936.195 643.392q32.999 0 32.3984 -32.3984q-3.59961 -29.3994 -28.1982 -29.999l-27.5986 18.5996h-8.40039q-11.3994 0 -25.7988 -21.5996 q17.999 -26.3984 50.3984 -26.3984l68.9971 11.3994q19.7988 -2.40039 19.7988 -8.39941v-4.80078q0 -28.1982 -58.7979 -34.1982q-20.3984 0 -83.9961 -42.5986l-16.1992 -6.59961l-3.59961 9.59961v1.80078l13.1992 26.3984l-31.1992 34.1982l-1.19922 10.2002 q0 46.1982 85.1963 91.7959q14.999 1.2002 14.999 3zM850 862l42 7q39 -3 57 -11.5t23 -26.5l-2 -16q0 -60 -123 -134l-41 -11l-33 8q0 25 91 77q8 6 8 11q0 4 -6 9q-14 9 -41 10q-9 0 -57 -38q-7 -5 -12 -5q-2 0 -4 1q-6 3 -6 12q0 62 85 101z" />
<glyph unicode="&#x6a4;" horiz-adv-x="447" arabic-form="initial" d="M0 -5l10 82q33 0 75.5 0.5t82.5 4t63 11.5q32 11 51.5 28.5t29.5 45.5q-18 -6 -38.5 -8.5t-40.5 -2.5q-76 0 -117.5 36t-41.5 91q0 38 12 76.5t34 70.5t53 51.5t69 19.5q54 0 89.5 -35t53 -91.5t17.5 -119.5q0 -75 -25.5 -128.5t-84.5 -88.5q-31 -18 -77.5 -27.5 t-101.5 -12.5t-113 -3zM153 303q0 -31 20 -49.5t69 -18.5q43 0 82 12v14q0 42 -11 78t-31 58t-48 22q-23 0 -41.5 -17.5t-29 -44.5t-10.5 -54zM276 518l30 9q27 -46 34 -209q-4 -126 -14 -126q-35 170 -61 251l-13 35q0 26 24 40zM309.195 729.392 q32.999 0 32.3984 -32.3984q-3.59961 -29.3994 -28.1982 -29.999l-27.5986 18.5996h-8.40039q-11.3994 0 -25.7988 -21.5996q17.999 -26.3984 50.3984 -26.3984l68.9971 11.3994q19.7988 -2.40039 19.7988 -8.39941v-4.80078q0 -28.1982 -58.7979 -34.1982 q-20.3984 0 -83.9961 -42.5986l-16.1992 -6.59961l-3.59961 9.59961v1.80078l13.1992 26.3984l-31.1992 34.1982l-1.19922 10.2002q0 46.1982 85.1963 91.7959q14.999 1.2002 14.999 3zM223 948l42 7q39 -3 57 -11.5t23 -26.5l-2 -16q0 -60 -123 -134l-41 -11l-33 8 q0 25 91 77q8 6 8 11q0 4 -6 9q-14 9 -41 10q-9 0 -57 -38q-7 -5 -12 -5q-2 0 -4 1q-6 3 -6 12q0 62 85 101z" />
<glyph unicode="&#x6a4;" horiz-adv-x="495" arabic-form="medial" d="M0 -5l10 82q34 0 70.5 1t70.5 5q-24 22 -47 57t-23 85q0 54 25 97t65 68t85 25q49 0 86 -27t57.5 -68.5t20.5 -86.5q0 -47 -19 -84t-51 -65q40 -3 82 -5t73 -2q21 0 30.5 -11.5t9.5 -27.5t-14 -29.5t-36 -13.5q-61 0 -127 9.5t-116 23.5q-16 -6 -33 -11 q-46 -13 -105 -17.5t-114 -4.5zM163 223q0 -39 24 -68.5t54 -47.5q41 18 69 48t28 72q0 23 -11 47.5t-30 41.5t-44 17q-24 0 -44.5 -16t-33 -41.5t-12.5 -52.5zM300 432l30 9q27 -46 34 -209q-4 -126 -14 -126q-35 170 -61 251l-13 35q0 26 24 40zM333.195 643.392 q32.999 0 32.3984 -32.3984q-3.59961 -29.3994 -28.1982 -29.999l-27.5986 18.5996h-8.40039q-11.3994 0 -25.7988 -21.5996q17.999 -26.3984 50.3984 -26.3984l68.9971 11.3994q19.7988 -2.40039 19.7988 -8.39941v-4.80078q0 -28.1982 -58.7979 -34.1982 q-20.3984 0 -83.9961 -42.5986l-16.1992 -6.59961l-3.59961 9.59961v1.80078l13.1992 26.3984l-31.1992 34.1982l-1.19922 10.2002q0 46.1982 85.1963 91.7959q14.999 1.2002 14.999 3zM247 862l42 7q39 -3 57 -11.5t23 -26.5l-2 -16q0 -60 -123 -134l-41 -11l-33 8 q0 25 91 77q8 6 8 11q0 4 -6 9q-14 9 -41 10q-9 0 -57 -38q-7 -5 -12 -5q-2 0 -4 1q-6 3 -6 12q0 62 85 101z" />
<glyph unicode="&#x6a6;" horiz-adv-x="983" arabic-form="isolated" d="M688 437q79 0 140 -205v-14q0 -51 -49 -134q-61 -57 -194 -84q-183 -38 -274 -39q-198 0 -252 109q-11 39 -10 60v14q0 90 84 164h8q17 0 17 -14q-38 -88 -38 -98v-16q0 -81 125 -110l33 -2h30q240 0 438 87q18 15 22 25v3q-3 22 -17 22l-82 -39q-61 0 -90 101v20 q0 93 88 147zM650 316v-16q5 -11 19 -11h30l6 5q-22 44 -38 44q-17 -5 -17 -22zM581 582l-51 -79l-80 55l52 77zM724 606l-51 -79l-80 55l52 77zM551 763l-51 -79l-80 55l52 77zM694 787l-51 -79l-80 55l52 77z" />
<glyph unicode="&#x6a6;" horiz-adv-x="1098" arabic-form="final" d="M390 -21q-178 0 -269 47t-91 156q0 37 9 78.5t19 78.5l75 -19q-6 -22 -13.5 -55.5t-7.5 -59.5q0 -52 26.5 -83.5t92.5 -46t185 -14.5q110 0 197 6.5t141 15.5q-24 20 -47 54.5t-23 84.5q0 54 24.5 97.5t64.5 69.5t86 26q49 0 86 -27.5t57.5 -70t20.5 -87.5 q0 -47 -19 -83.5t-52 -63.5q41 -3 83 -4.5t73 -1.5q21 0 30.5 -11.5t9.5 -27.5t-14 -29.5t-36 -13.5q-129 0 -242 33q-16 -6 -34 -11q-30 -9 -95.5 -17.5t-153 -14.5t-183.5 -6zM766 220q0 -40 25.5 -67.5t56.5 -44.5q39 18 66 46.5t27 69.5q0 23 -11 48t-30 43t-44 18 q-24 0 -44.5 -17t-33 -43t-12.5 -53zM784 643q-21 0 -35.5 14.5t-14.5 34.5t14.5 35t35.5 15q20 0 34.5 -15t14.5 -35t-14.5 -34.5t-34.5 -14.5zM920 643q-21 0 -35.5 14.5t-14.5 34.5t14.5 35t35.5 15q20 0 34.5 -15t14.5 -35t-14.5 -34.5t-34.5 -14.5zM784 518 q-21 0 -35.5 14.5t-14.5 34.5t14.5 35t35.5 15q20 0 34.5 -15t14.5 -35t-14.5 -34.5t-34.5 -14.5zM920 518q-21 0 -35.5 14.5t-14.5 34.5t14.5 35t35.5 15q20 0 34.5 -15t14.5 -35t-14.5 -34.5t-34.5 -14.5z" />
<glyph unicode="&#x6a6;" horiz-adv-x="447" arabic-form="initial" d="M0 -5l10 82q33 0 75.5 0.5t82.5 4t63 11.5q32 11 51.5 28.5t29.5 45.5q-18 -6 -38.5 -8.5t-40.5 -2.5q-76 0 -117.5 36t-41.5 91q0 38 12 76.5t34 70.5t53 51.5t69 19.5q54 0 89.5 -35t53 -91.5t17.5 -119.5q0 -75 -25.5 -128.5t-84.5 -88.5q-31 -18 -77.5 -27.5 t-101.5 -12.5t-113 -3zM153 303q0 -31 20 -49.5t69 -18.5q43 0 82 12v14q0 42 -11 78t-31 58t-48 22q-23 0 -41.5 -17.5t-29 -44.5t-10.5 -54zM157 729q-21 0 -35.5 14.5t-14.5 34.5t14.5 35t35.5 15q20 0 34.5 -15t14.5 -35t-14.5 -34.5t-34.5 -14.5zM293 729 q-21 0 -35.5 14.5t-14.5 34.5t14.5 35t35.5 15q20 0 34.5 -15t14.5 -35t-14.5 -34.5t-34.5 -14.5zM157 604q-21 0 -35.5 14.5t-14.5 34.5t14.5 35t35.5 15q20 0 34.5 -15t14.5 -35t-14.5 -34.5t-34.5 -14.5zM293 604q-21 0 -35.5 14.5t-14.5 34.5t14.5 35t35.5 15 q20 0 34.5 -15t14.5 -35t-14.5 -34.5t-34.5 -14.5z" />
<glyph unicode="&#x6a6;" horiz-adv-x="495" arabic-form="medial" d="M0 -5l10 82q34 0 70.5 1t70.5 5q-24 22 -47 57t-23 85q0 54 25 97t65 68t85 25q49 0 86 -27t57.5 -68.5t20.5 -86.5q0 -47 -19 -84t-51 -65q40 -3 82 -5t73 -2q21 0 30.5 -11.5t9.5 -27.5t-14 -29.5t-36 -13.5q-61 0 -127 9.5t-116 23.5q-16 -6 -33 -11 q-46 -13 -105 -17.5t-114 -4.5zM163 223q0 -39 24 -68.5t54 -47.5q41 18 69 48t28 72q0 23 -11 47.5t-30 41.5t-44 17q-24 0 -44.5 -16t-33 -41.5t-12.5 -52.5zM181 643q-21 0 -35.5 14.5t-14.5 34.5t14.5 35t35.5 15q20 0 34.5 -15t14.5 -35t-14.5 -34.5t-34.5 -14.5z M317 643q-21 0 -35.5 14.5t-14.5 34.5t14.5 35t35.5 15q20 0 34.5 -15t14.5 -35t-14.5 -34.5t-34.5 -14.5zM181 518q-21 0 -35.5 14.5t-14.5 34.5t14.5 35t35.5 15q20 0 34.5 -15t14.5 -35t-14.5 -34.5t-34.5 -14.5zM317 518q-21 0 -35.5 14.5t-14.5 34.5t14.5 35t35.5 15 q20 0 34.5 -15t14.5 -35t-14.5 -34.5t-34.5 -14.5z" />
<glyph unicode="&#x684;" horiz-adv-x="639" arabic-form="isolated" d="M248 271h331q17 0 16 -17v-8q0 -58 -65 -79q-47 0 -213 -66q-169 -77 -170 -295v-8q0 -176 156 -233q68 -27 164 -27h24l361 36q47 0 47 -22v-3q-208 -71 -312 -115q-51 -8 -112 -8h-33q-375 0 -374 355q0 221 150 359v5q0 8 -27 8q-47 0 -112 -74l-11 -2q-12 0 -19 24 q0 40 90 145q28 25 109 25zM498 -124l-79 51l55 80l77 -52zM522 -267l-79 51l55 80l77 -52z" />
<glyph unicode="&#x684;" horiz-adv-x="649" arabic-form="final" d="M360 -394q-70 0 -133.5 16t-112 49.5t-76.5 84.5t-28 120q0 92 43 171t123.5 139.5t191.5 97.5q-49 16 -102.5 32.5t-124.5 16.5q-30 0 -52.5 -5t-42.5 -10l-14 74q26 11 58.5 17.5t65.5 6.5q46 0 82 -8.5t68.5 -20.5t68.5 -24.5t80.5 -21t105.5 -9.5h9l2 -82 q-52 0 -109 -12q8 -56 26 -88.5t44.5 -48t58.5 -20t67 -4.5q21 0 30.5 -11.5t9.5 -27.5t-13.5 -29.5t-35.5 -13.5q-42 0 -84.5 6t-79 27t-60.5 66.5t-29 125.5q-58 -20 -113 -51t-98 -73t-68.5 -94.5t-25.5 -115.5q0 -70 38 -113.5t101.5 -63.5t138.5 -20q99 0 201 40 l28 -68q-58 -28 -119 -41.5t-120 -13.5zM321 -82q-21 0 -35.5 14.5t-14.5 34.5t14.5 35t35.5 15q20 0 34.5 -15t14.5 -35t-14.5 -34.5t-34.5 -14.5zM322 -210q-21 0 -35.5 14.5t-14.5 34.5t14.5 35t35.5 15q20 0 34.5 -15t14.5 -35t-14.5 -34.5t-34.5 -14.5z" />
<glyph unicode="&#x684;" horiz-adv-x="589" arabic-form="initial" d="M184 332q35 0 208 -96q73 -33 199 -32h28l10 3q15 0 17 -36q0 -61 -82 -68h-38l-107 5q-55 0 -293 -87q-58 -21 -90 -21h-36v109h36l14 2q66 0 197 55v2q-28 49 -82 49l-102 -43h-8q-21 0 -24 30q0 66 126 126zM279 -187q-21 0 -35.5 14.5t-14.5 34.5t14.5 35t35.5 15 q20 0 34.5 -15t14.5 -35t-14.5 -34.5t-34.5 -14.5zM280 -316q-21 0 -35.5 14.5t-14.5 34.5t14.5 35t35.5 15q20 0 34.5 -15t14.5 -35t-14.5 -34.5t-34.5 -14.5z" />
<glyph unicode="&#x684;" horiz-adv-x="637" arabic-form="medial" d="M178 347q203 -74 270 -93l31 -3h16l47 6q60 -5 60 -38q0 -55 -77 -73v-19v-1q0 -17 55 -17h50q31 -16 31 -54t-31 -55h-31q-102 0 -120 27q-12 19 -11 49q0 14 2 30v28q-11 13 -32 12h-18q-3 0 -7 1q-45 0 -123 -44q-85 -48 -121 -64.5t-64.5 -24.5t-70.5 -14h-34v109 q31 0 77 9.5t99.5 30t72.5 45.5q-25 35 -80 35h-2q-35 0 -104 -41h-11q-7 0 -14 20q6 85 126 137zM261 -187q-21 0 -35.5 14.5t-14.5 34.5t14.5 35t35.5 15q20 0 34.5 -15t14.5 -35t-14.5 -34.5t-34.5 -14.5zM262 -316q-21 0 -35.5 14.5t-14.5 34.5t14.5 35t35.5 15 q20 0 34.5 -15t14.5 -35t-14.5 -34.5t-34.5 -14.5z" />
<glyph unicode="&#x683;" horiz-adv-x="659" arabic-form="isolated" d="M248 271h331q17 0 16 -17v-8q0 -58 -65 -79q-47 0 -213 -66q-169 -77 -170 -295v-8q0 -176 156 -233q68 -27 164 -27h24l361 36q47 0 47 -22v-3q-208 -71 -312 -115q-51 -8 -112 -8h-33q-375 0 -374 355q0 221 150 359v5q0 8 -27 8q-47 0 -112 -74l-11 -2q-12 0 -19 24 q0 40 90 145q28 25 109 25zM464 -167l-51 -79l-80 55l52 77zM607 -143l-51 -79l-80 55l52 77z" />
<glyph unicode="&#x683;" horiz-adv-x="719" arabic-form="final" d="M380 -394q-70 0 -136.5 16t-119 49.5t-83.5 84.5t-31 120q0 92 48 171t133 139.5t197 97.5q-49 16 -105.5 32.5t-141.5 16.5q-30 0 -52.5 -5t-42.5 -10l-14 74q26 11 58.5 17.5t65.5 6.5q52 0 91.5 -8.5t74.5 -20.5t71.5 -24.5t81.5 -21t106 -9.5h9l2 -82q-29 0 -60 -4 q7 -58 25 -92.5t44.5 -50.5t59.5 -21t68 -5q21 0 30.5 -11.5t9.5 -27.5t-13.5 -29.5t-35.5 -13.5q-43 0 -86.5 6t-80.5 29t-60.5 71.5t-26.5 132.5q-66 -15 -132.5 -45.5t-121 -74.5t-87.5 -101t-33 -127q0 -52 25 -89.5t67.5 -61.5t96 -35t109.5 -11q99 0 201 40l28 -68 q-58 -28 -119 -41.5t-120 -13.5zM407 -146q-21 0 -35.5 14.5t-14.5 34.5t14.5 35t35.5 15q20 0 34.5 -15t14.5 -35t-14.5 -34.5t-34.5 -14.5zM270 -146q-21 0 -35.5 14.5t-14.5 34.5t14.5 35t35.5 15q20 0 34.5 -15t14.5 -35t-14.5 -34.5t-34.5 -14.5z" />
<glyph unicode="&#x683;" horiz-adv-x="589" arabic-form="initial" d="M184 332q35 0 208 -96q73 -33 199 -32h28l10 3q15 0 17 -36q0 -61 -82 -68h-38l-107 5q-55 0 -293 -87q-58 -21 -90 -21h-36v109h36l14 2q66 0 197 55v2q-28 49 -82 49l-102 -43h-8q-21 0 -24 30q0 66 126 126zM323 668l30 9q27 -46 34 -209q-4 -126 -14 -126 q-35 170 -61 251l-13 35q0 26 24 40zM414.99 811.796q12 0 11.4004 -9.59961q0 -49.1982 -130.795 -70.7969q-2.40039 -0.599609 -6 -0.599609q-8.39941 0 -22.1992 2.99902q-19.7988 4.2002 -34.1982 4.2002h-3.59961l-29.3994 -20.999q-13.1992 0 -13.1992 12.5996 q0 22.1992 40.7988 59.3975l11.3994 3l47.998 -14.3994q65.9971 0 114.595 34.1982h13.1992z" />
<glyph unicode="&#x683;" horiz-adv-x="637" arabic-form="medial" d="M178 347q203 -74 270 -93l31 -3h16l47 6q60 -5 60 -38q0 -55 -77 -73v-19v-1q0 -17 55 -17h50q31 -16 31 -54t-31 -55h-31q-102 0 -120 27q-12 19 -11 49q0 14 2 30v28q-11 13 -32 12h-18q-3 0 -7 1q-45 0 -123 -44q-85 -48 -121 -64.5t-64.5 -24.5t-70.5 -14h-34v109 q31 0 77 9.5t99.5 30t72.5 45.5q-25 35 -80 35h-2q-35 0 -104 -41h-11q-7 0 -14 20q6 85 126 137zM305 668l30 9q27 -46 34 -209q-4 -126 -14 -126q-35 170 -61 251l-13 35q0 26 24 40zM396.99 811.796q12 0 11.4004 -9.59961q0 -49.1982 -130.795 -70.7969 q-2.40039 -0.599609 -6 -0.599609q-8.39941 0 -22.1992 2.99902q-19.7988 4.2002 -34.1982 4.2002h-3.59961l-29.3994 -20.999q-13.1992 0 -13.1992 12.5996q0 22.1992 40.7988 59.3975l11.3994 3l47.998 -14.3994q65.9971 0 114.595 34.1982h13.1992z" />
<glyph unicode="&#x686;" horiz-adv-x="659" arabic-form="isolated" d="M248 271h331q17 0 16 -17v-8q0 -58 -65 -79q-47 0 -213 -66q-169 -77 -170 -295v-8q0 -176 156 -233q68 -27 164 -27h24l361 36q47 0 47 -22v-3q-208 -71 -312 -115q-51 -8 -112 -8h-33q-375 0 -374 355q0 221 150 359v5q0 8 -27 8q-47 0 -112 -74l-11 -2q-12 0 -19 24 q0 40 90 145q28 25 109 25zM481 -100l51 79l80 -55l-52 -77zM325 -122l51 79l80 -55l-52 -77zM424 -259l52 79l80 -55l-52 -77z" />
<glyph unicode="&#x686;" horiz-adv-x="719" arabic-form="final" d="M380 -394q-70 0 -136.5 16t-119 49.5t-83.5 84.5t-31 120q0 92 48 171t133 139.5t197 97.5q-49 16 -105.5 32.5t-141.5 16.5q-30 0 -52.5 -5t-42.5 -10l-14 74q26 11 58.5 17.5t65.5 6.5q52 0 91.5 -8.5t74.5 -20.5t71.5 -24.5t81.5 -21t106 -9.5h9l2 -82q-29 0 -60 -4 q7 -58 25 -92.5t44.5 -50.5t59.5 -21t68 -5q21 0 30.5 -11.5t9.5 -27.5t-13.5 -29.5t-35.5 -13.5q-43 0 -86.5 6t-80.5 29t-60.5 71.5t-26.5 132.5q-66 -15 -132.5 -45.5t-121 -74.5t-87.5 -101t-33 -127q0 -52 25 -89.5t67.5 -61.5t96 -35t109.5 -11q99 0 201 40l28 -68 q-58 -28 -119 -41.5t-120 -13.5zM271 -113q-21 0 -35.5 14.5t-14.5 34.5t14.5 35t35.5 15q20 0 34.5 -15t14.5 -35t-14.5 -34.5t-34.5 -14.5zM407 -113q-21 0 -35.5 14.5t-14.5 34.5t14.5 35t35.5 15q20 0 34.5 -15t14.5 -35t-14.5 -34.5t-34.5 -14.5zM339 -223 q-21 0 -35.5 14.5t-14.5 34.5t14.5 35t35.5 15q20 0 34.5 -15t14.5 -35t-14.5 -34.5t-34.5 -14.5z" />
<glyph unicode="&#x686;" horiz-adv-x="589" arabic-form="initial" d="M184 332q35 0 208 -96q73 -33 199 -32h28l10 3q15 0 17 -36q0 -61 -82 -68h-38l-107 5q-55 0 -293 -87q-58 -21 -90 -21h-36v109h36l14 2q66 0 197 55v2q-28 49 -82 49l-102 -43h-8q-21 0 -24 30q0 66 126 126zM211 -189q-21 0 -35.5 14.5t-14.5 34.5t14.5 35t35.5 15 q20 0 34.5 -15t14.5 -35t-14.5 -34.5t-34.5 -14.5zM347 -189q-21 0 -35.5 14.5t-14.5 34.5t14.5 35t35.5 15q20 0 34.5 -15t14.5 -35t-14.5 -34.5t-34.5 -14.5zM279 -299q-21 0 -35.5 14.5t-14.5 34.5t14.5 35t35.5 15q20 0 34.5 -15t14.5 -35t-14.5 -34.5t-34.5 -14.5z" />
<glyph unicode="&#x686;" horiz-adv-x="637" arabic-form="medial" d="M178 347q203 -74 270 -93l31 -3h16l47 6q60 -5 60 -38q0 -55 -77 -73v-19v-1q0 -17 55 -17h50q31 -16 31 -54t-31 -55h-31q-102 0 -120 27q-12 19 -11 49q0 14 2 30v28q-11 13 -32 12h-18q-3 0 -7 1q-45 0 -123 -44q-85 -48 -121 -64.5t-64.5 -24.5t-70.5 -14h-34v109 q31 0 77 9.5t99.5 30t72.5 45.5q-25 35 -80 35h-2q-35 0 -104 -41h-11q-7 0 -14 20q6 85 126 137zM193 -189q-21 0 -35.5 14.5t-14.5 34.5t14.5 35t35.5 15q20 0 34.5 -15t14.5 -35t-14.5 -34.5t-34.5 -14.5zM329 -189q-21 0 -35.5 14.5t-14.5 34.5t14.5 35t35.5 15 q20 0 34.5 -15t14.5 -35t-14.5 -34.5t-34.5 -14.5zM261 -299q-21 0 -35.5 14.5t-14.5 34.5t14.5 35t35.5 15q20 0 34.5 -15t14.5 -35t-14.5 -34.5t-34.5 -14.5z" />
<glyph unicode="&#x687;" horiz-adv-x="659" arabic-form="isolated" d="M248 271h331q17 0 16 -17v-8q0 -58 -65 -79q-47 0 -213 -66q-169 -77 -170 -295v-8q0 -176 156 -233q68 -27 164 -27h24l361 36q47 0 47 -22v-3q-208 -71 -312 -115q-51 -8 -112 -8h-33q-375 0 -374 355q0 221 150 359v5q0 8 -27 8q-47 0 -112 -74l-11 -2q-12 0 -19 24 q0 40 90 145q28 25 109 25zM398 -85l-51 -79l-80 55l52 77zM541 -61l-51 -79l-80 55l52 77zM432 -256l-51 -79l-80 55l52 77zM575 -232l-51 -79l-80 55l52 77z" />
<glyph unicode="&#x687;" horiz-adv-x="719" arabic-form="final" d="M380 -394q-70 0 -136.5 16t-119 49.5t-83.5 84.5t-31 120q0 92 48 171t133 139.5t197 97.5q-49 16 -105.5 32.5t-141.5 16.5q-30 0 -52.5 -5t-42.5 -10l-14 74q26 11 58.5 17.5t65.5 6.5q52 0 91.5 -8.5t74.5 -20.5t71.5 -24.5t81.5 -21t106 -9.5h9l2 -82q-29 0 -60 -4 q7 -58 25 -92.5t44.5 -50.5t59.5 -21t68 -5q21 0 30.5 -11.5t9.5 -27.5t-13.5 -29.5t-35.5 -13.5q-43 0 -86.5 6t-80.5 29t-60.5 71.5t-26.5 132.5q-66 -15 -132.5 -45.5t-121 -74.5t-87.5 -101t-33 -127q0 -52 25 -89.5t67.5 -61.5t96 -35t109.5 -11q99 0 201 40l28 -68 q-58 -28 -119 -41.5t-120 -13.5zM271 -98q-21 0 -35.5 14.5t-14.5 34.5t14.5 35t35.5 15q20 0 34.5 -15t14.5 -35t-14.5 -34.5t-34.5 -14.5zM407 -98q-21 0 -35.5 14.5t-14.5 34.5t14.5 35t35.5 15q20 0 34.5 -15t14.5 -35t-14.5 -34.5t-34.5 -14.5zM271 -223 q-21 0 -35.5 14.5t-14.5 34.5t14.5 35t35.5 15q20 0 34.5 -15t14.5 -35t-14.5 -34.5t-34.5 -14.5zM407 -223q-21 0 -35.5 14.5t-14.5 34.5t14.5 35t35.5 15q20 0 34.5 -15t14.5 -35t-14.5 -34.5t-34.5 -14.5z" />
<glyph unicode="&#x687;" horiz-adv-x="589" arabic-form="initial" d="M184 332q35 0 208 -96q73 -33 199 -32h28l10 3q15 0 17 -36q0 -61 -82 -68h-38l-107 5q-55 0 -293 -87q-58 -21 -90 -21h-36v109h36l14 2q66 0 197 55v2q-28 49 -82 49l-102 -43h-8q-21 0 -24 30q0 66 126 126zM351 -187q-21 0 -35.5 14.5t-14.5 34.5t14.5 35t35.5 15 q20 0 34.5 -15t14.5 -35t-14.5 -34.5t-34.5 -14.5zM215 -187q-21 0 -35.5 14.5t-14.5 34.5t14.5 35t35.5 15q20 0 34.5 -15t14.5 -35t-14.5 -34.5t-34.5 -14.5zM351 -312q-21 0 -35.5 14.5t-14.5 34.5t14.5 35t35.5 15q20 0 34.5 -15t14.5 -35t-14.5 -34.5t-34.5 -14.5z M215 -312q-21 0 -35.5 14.5t-14.5 34.5t14.5 35t35.5 15q20 0 34.5 -15t14.5 -35t-14.5 -34.5t-34.5 -14.5z" />
<glyph unicode="&#x687;" horiz-adv-x="637" arabic-form="medial" d="M178 347q203 -74 270 -93l31 -3h16l47 6q60 -5 60 -38q0 -55 -77 -73v-19v-1q0 -17 55 -17h50q31 -16 31 -54t-31 -55h-31q-102 0 -120 27q-12 19 -11 49q0 14 2 30v28q-11 13 -32 12h-18q-3 0 -7 1q-45 0 -123 -44q-85 -48 -121 -64.5t-64.5 -24.5t-70.5 -14h-34v109 q31 0 77 9.5t99.5 30t72.5 45.5q-25 35 -80 35h-2q-35 0 -104 -41h-11q-7 0 -14 20q6 85 126 137zM333 -187q-21 0 -35.5 14.5t-14.5 34.5t14.5 35t35.5 15q20 0 34.5 -15t14.5 -35t-14.5 -34.5t-34.5 -14.5zM197 -187q-21 0 -35.5 14.5t-14.5 34.5t14.5 35t35.5 15 q20 0 34.5 -15t14.5 -35t-14.5 -34.5t-34.5 -14.5zM333 -312q-21 0 -35.5 14.5t-14.5 34.5t14.5 35t35.5 15q20 0 34.5 -15t14.5 -35t-14.5 -34.5t-34.5 -14.5zM197 -312q-21 0 -35.5 14.5t-14.5 34.5t14.5 35t35.5 15q20 0 34.5 -15t14.5 -35t-14.5 -34.5t-34.5 -14.5z" />
<glyph unicode="&#x68d;" horiz-adv-x="477" arabic-form="isolated" d="M158 398h3q131 -12 177 -191l5 -49q-2 -102 -33 -122q-34 -23 -180 -36h-30q-52 0 -51 58v5q5 55 32 55q12 -5 36 -6h19q45 0 89.5 12t44.5 22q-15 108 -120 145q-36 4 -36 49q11 58 44 58z" />
<glyph unicode="&#x68d;" horiz-adv-x="532" arabic-form="final" d="M313 514h5q13 0 91 -221q32 -118 75 -152q30 -32 80 -32h29q24 -14 24 -55q0 -38 -24 -54h-44q-59 0 -118 61l-43 57q-78 -78 -131.5 -98t-125.5 -20q-97 0 -101 63q0 31 30 52q4 2 13 2q11 0 28 -3q31 -5 79 -5q81 0 161 58q18 20 18 36q0 6 -3 11l-78 215q0 14 35 85z M278 663l30 9q27 -46 34 -209q-4 -126 -14 -126q-35 170 -61 251l-13 35q0 26 24 40zM369.99 806.796q12 0 11.4004 -9.59961q0 -49.1982 -130.795 -70.7969q-2.40039 -0.599609 -6 -0.599609q-8.39941 0 -22.1992 2.99902q-19.7988 4.2002 -34.1982 4.2002h-3.59961 l-29.3994 -20.999q-13.1992 0 -13.1992 12.5996q0 22.1992 40.7988 59.3975l11.3994 3l47.998 -14.3994q65.9971 0 114.595 34.1982h13.1992z" />
<glyph unicode="&#x68c;" horiz-adv-x="477" arabic-form="isolated" d="M158 398h3q131 -12 177 -191l5 -49q-2 -102 -33 -122q-34 -23 -180 -36h-30q-52 0 -51 58v5q5 55 32 55q12 -5 36 -6h19q45 0 89.5 12t44.5 22q-15 108 -120 145q-36 4 -36 49q11 58 44 58z" />
<glyph unicode="&#x68c;" horiz-adv-x="532" arabic-form="final" d="M313 514h5q13 0 91 -221q32 -118 75 -152q30 -32 80 -32h29q24 -14 24 -55q0 -38 -24 -54h-44q-59 0 -118 61l-43 57q-78 -78 -131.5 -98t-125.5 -20q-97 0 -101 63q0 31 30 52q4 2 13 2q11 0 28 -3q31 -5 79 -5q81 0 161 58q18 20 18 36q0 6 -3 11l-78 215q0 14 35 85z M129 662l30 9q27 -46 34 -209q-4 -126 -14 -126q-35 170 -61 251l-13 35q0 26 24 40z" />
<glyph unicode="&#x68e;" horiz-adv-x="477" arabic-form="isolated" d="M158 398h3q131 -12 177 -191l5 -49q-2 -102 -33 -122q-34 -23 -180 -36h-30q-52 0 -51 58v5q5 55 32 55q12 -5 36 -6h19q45 0 89.5 12t44.5 22q-15 108 -120 145q-36 4 -36 49q11 58 44 58z" />
<glyph unicode="&#x68e;" horiz-adv-x="532" arabic-form="final" d="M313 514h5q13 0 91 -221q32 -118 75 -152q30 -32 80 -32h29q24 -14 24 -55q0 -38 -24 -54h-44q-59 0 -118 61l-43 57q-78 -78 -131.5 -98t-125.5 -20q-97 0 -101 63q0 31 30 52q4 2 13 2q11 0 28 -3q31 -5 79 -5q81 0 161 58q18 20 18 36q0 6 -3 11l-78 215q0 14 35 85z M274 474l30 9q27 -46 34 -209q-4 -126 -14 -126q-35 170 -61 251l-13 35q0 26 24 40zM307.195 685.392q32.999 0 32.3984 -32.3984q-3.59961 -29.3994 -28.1982 -29.999l-27.5986 18.5996h-8.40039q-11.3994 0 -25.7988 -21.5996q17.999 -26.3984 50.3984 -26.3984 l68.9971 11.3994q19.7988 -2.40039 19.7988 -8.39941v-4.80078q0 -28.1982 -58.7979 -34.1982q-20.3984 0 -83.9961 -42.5986l-16.1992 -6.59961l-3.59961 9.59961v1.80078l13.1992 26.3984l-31.1992 34.1982l-1.19922 10.2002q0 46.1982 85.1963 91.7959 q14.999 1.2002 14.999 3zM221 904l42 7q39 -3 57 -11.5t23 -26.5l-2 -16q0 -60 -123 -134l-41 -11l-33 8q0 25 91 77q8 6 8 11q0 4 -6 9q-14 9 -41 10q-9 0 -57 -38q-7 -5 -12 -5q-2 0 -4 1q-6 3 -6 12q0 62 85 101z" />
<glyph unicode="&#x688;" horiz-adv-x="477" arabic-form="isolated" d="M158 398h3q131 -12 177 -191l5 -49q-2 -102 -33 -122q-34 -23 -180 -36h-30q-52 0 -51 58v5q5 55 32 55q12 -5 36 -6h19q45 0 89.5 12t44.5 22q-15 108 -120 145q-36 4 -36 49q11 58 44 58z" />
<glyph unicode="&#x688;" horiz-adv-x="532" arabic-form="final" d="M313 514h5q13 0 91 -221q32 -118 75 -152q30 -32 80 -32h29q24 -14 24 -55q0 -38 -24 -54h-44q-59 0 -118 61l-43 57q-78 -78 -131.5 -98t-125.5 -20q-97 0 -101 63q0 31 30 52q4 2 13 2q11 0 28 -3q31 -5 79 -5q81 0 161 58q18 20 18 36q0 6 -3 11l-78 215q0 14 35 85z M553 -480q-7 -72 -34 -89l-240 -137q0 31 3.5 43t9.5 20.5t15 15.5t25 15zM286 -312q20 0 79 -66q19 -16 18 -33q-12 -44 -31 -45h-89q-51 -10 -51 -28l38 -256q-6 -46 -22 -47q-16 0 -23 82l-30 204q0 34 52 106v9q0 44 46 73z" />
<glyph unicode="&#x698;" horiz-adv-x="367" arabic-form="isolated" d="M426 276q79 0 112 -191v-3q0 -91 -104 -224q-47 -63 -194 -63q-181 17 -181 41l-10 11q0 19 24 19l140 -8q117 0 246 164q17 35 16 68q0 24 -71 91q-8 10 -8 24v8q3 63 30 63z" />
<glyph unicode="&#x698;" horiz-adv-x="396" arabic-form="final" d="M570 109q25 -19 25 -54q0 -39 -25 -55h-52q-13 0 -28.5 -52t-39 -97t-61.5 -86q-71 -66 -166 -66q-181 32 -213 72v5q14 22 32 22q110 -27 126 -27h9q127 0 256 183q5 9 6 19q0 5 -1 11q-4 16 -29 27q-21 15 -22 47q7 50 42 51h141zM216 368l30 9q27 -46 34 -209 q-4 -126 -14 -126q-35 170 -61 251l-13 35q0 26 24 40zM249.195 579.392q32.999 0 32.3984 -32.3984q-3.59961 -29.3994 -28.1982 -29.999l-27.5986 18.5996h-8.40039q-11.3994 0 -25.7988 -21.5996q17.999 -26.3984 50.3984 -26.3984l68.9971 11.3994 q19.7988 -2.40039 19.7988 -8.39941v-4.80078q0 -28.1982 -58.7979 -34.1982q-20.3984 0 -83.9961 -42.5986l-16.1992 -6.59961l-3.59961 9.59961v1.80078l13.1992 26.3984l-31.1992 34.1982l-1.19922 10.2002q0 46.1982 85.1963 91.7959q14.999 1.2002 14.999 3zM163 798 l42 7q39 -3 57 -11.5t23 -26.5l-2 -16q0 -60 -123 -134l-41 -11l-33 8q0 25 91 77q8 6 8 11q0 4 -6 9q-14 9 -41 10q-9 0 -57 -38q-7 -5 -12 -5q-2 0 -4 1q-6 3 -6 12q0 62 85 101z" />
<glyph unicode="&#x691;" horiz-adv-x="367" arabic-form="isolated" d="M426 276q79 0 112 -191v-3q0 -91 -104 -224q-47 -63 -194 -63q-181 17 -181 41l-10 11q0 19 24 19l140 -8q117 0 246 164q17 35 16 68q0 24 -71 91q-8 10 -8 24v8q3 63 30 63z" />
<glyph unicode="&#x691;" horiz-adv-x="396" arabic-form="final" d="M570 109q25 -19 25 -54q0 -39 -25 -55h-52q-13 0 -28.5 -52t-39 -97t-61.5 -86q-71 -66 -166 -66q-181 32 -213 72v5q14 22 32 22q110 -27 126 -27h9q127 0 256 183q5 9 6 19q0 5 -1 11q-4 16 -29 27q-21 15 -22 47q7 50 42 51h141zM495 -586q-7 -72 -34 -89l-240 -137 q0 31 3.5 43t9.5 20.5t15 15.5t25 15zM228 -418q20 0 79 -66q19 -16 18 -33q-12 -44 -31 -45h-89q-51 -10 -51 -28l38 -256q-6 -46 -22 -47q-16 0 -23 82l-30 204q0 34 52 106v9q0 44 46 73z" />
<glyph unicode="&#x6a9;" horiz-adv-x="877" arabic-form="isolated" />
<glyph unicode="&#x6a9;" horiz-adv-x="975" arabic-form="final" d="M390 -21q-178 0 -269 47t-91 156q0 37 9 78.5t19 78.5l75 -19q-6 -22 -13.5 -55.5t-7.5 -59.5q0 -52 26.5 -83.5t92.5 -46t185 -14.5q125 0 196 13t100.5 32t29.5 35q0 24 -18 53t-46 59.5t-59.5 60.5t-59.5 55t-46 43.5t-18 26.5q0 23 5.5 43t15.5 31q27 29 79.5 60.5 t120.5 65t139 68.5l34 -74q-88 -44 -172.5 -85t-147.5 -85q55 -47 103 -91t89 -94.5t75 -114.5q21 -39 49 -57t55.5 -23.5t44.5 -5.5q21 0 30.5 -11.5t9.5 -27.5t-14 -29.5t-36 -13.5q-24 0 -56 6.5t-63.5 25t-55.5 54.5q-17 -22 -45 -41t-74.5 -32.5t-117.5 -21t-173 -7.5z " />
<glyph unicode="&#x6a9;" horiz-adv-x="412" arabic-form="initial" d="M581 856h5q17 0 17 -17q-21 -84 -52 -84q-235 -118 -367 -186q-63 -43 -87 -69q208 -213 208 -237q27 -56 27 -102v-35q0 -102 -151 -126h-181v109h168q102 0 101 36q0 65 -136 186q-109 33 -110 63q-4 0 -8 38q0 171 251 276q269 148 315 148z" />
<glyph unicode="&#x6a9;" horiz-adv-x="508" arabic-form="medial" d="M740 924q19 0 22 -25q-22 -71 -60 -70l-229 -101l-353 -140q-29 -18 -43 -36q372 -373 421 -408t136 -35h193q25 -20 25 -53q0 -41 -25 -56h-212q-112 12 -177 68q-123 128 -154 137v-5q0 -19 7 -44l4 -36q-8 -67 -39 -93t-104 -27h-152v109h137q68 0 72 47l-8 49 q-10 49 -37 85q-104 127 -150 191l-14 47q0 128 273 219q219 93 445 177h22z" />
<glyph unicode="&#x6af;" horiz-adv-x="877" arabic-form="isolated" />
<glyph unicode="&#x6af;" horiz-adv-x="975" arabic-form="final" d="M462 550l-37 56q58 35 152.5 91.5t223.5 123.5l28 -61q-130 -69 -218 -120.5t-149 -89.5zM390 -21q-178 0 -269 47t-91 156q0 37 9 78.5t19 78.5l75 -19q-6 -22 -13.5 -55.5t-7.5 -59.5q0 -52 26.5 -83.5t92.5 -46t185 -14.5q125 0 196 13t100.5 32t29.5 35q0 24 -18 53 t-46 59.5t-59.5 60.5t-59.5 55t-46 43.5t-18 26.5q0 23 5.5 43t15.5 31q27 29 79.5 60.5t120.5 65t139 68.5l34 -74q-88 -44 -172.5 -85t-147.5 -85q55 -47 103 -91t89 -94.5t75 -114.5q21 -39 49 -57t55.5 -23.5t44.5 -5.5q21 0 30.5 -11.5t9.5 -27.5t-14 -29.5t-36 -13.5 q-24 0 -56 6.5t-63.5 25t-55.5 54.5q-17 -22 -45 -41t-74.5 -32.5t-117.5 -21t-173 -7.5z" />
<glyph unicode="&#x6af;" horiz-adv-x="412" arabic-form="initial" d="M-1 550l-37 56q58 35 152.5 91.5t223.5 123.5l28 -61q-130 -69 -218 -120.5t-149 -89.5zM0 -5l10 82h94q59 0 93.5 6.5t51 17t22 23t5.5 25.5q0 23 -17.5 57t-71.5 88q-37 38 -74 67t-61 49t-24 29q0 23 5.5 43t15.5 31q40 43 125.5 86.5t213.5 107.5l34 -74 q-91 -44 -148.5 -72.5t-95 -50t-69.5 -43.5q117 -95 179.5 -170.5t62.5 -152.5q0 -22 -8 -48t-34 -49t-78 -37.5t-140 -14.5h-91z" />
<glyph unicode="&#x6af;" horiz-adv-x="508" arabic-form="medial" d="M-1 550l-37 56q58 35 152.5 91.5t223.5 123.5l28 -61q-130 -69 -218 -120.5t-149 -89.5zM0 -5l10 82h77q83 0 123 9t52.5 24t12.5 31q0 24 -18 53t-46 59.5t-59.5 60.5t-59.5 55t-46 43.5t-18 26.5q0 23 5.5 43t15.5 31q27 29 79.5 60.5t120.5 65t139 68.5l34 -74 q-88 -44 -172.5 -85t-147.5 -85q55 -47 103 -91t89 -94.5t75 -114.5q21 -39 49 -57t55.5 -23.5t44.5 -5.5q21 0 30.5 -11.5t9.5 -27.5t-14 -29.5t-36 -13.5q-24 0 -55.5 6.5t-63.5 25t-56 54.5q-20 -29 -50 -48t-78 -28.5t-122 -9.5h-83z" />
<glyph unicode="&#x6b3;" horiz-adv-x="877" arabic-form="isolated" />
<glyph unicode="&#x6b3;" horiz-adv-x="975" arabic-form="final" d="M462 550l-37 56q58 35 152.5 91.5t223.5 123.5l28 -61q-130 -69 -218 -120.5t-149 -89.5zM390 -21q-178 0 -269 47t-91 156q0 37 9 78.5t19 78.5l75 -19q-6 -22 -13.5 -55.5t-7.5 -59.5q0 -52 26.5 -83.5t92.5 -46t185 -14.5q125 0 196 13t100.5 32t29.5 35q0 24 -18 53 t-46 59.5t-59.5 60.5t-59.5 55t-46 43.5t-18 26.5q0 23 5.5 43t15.5 31q27 29 79.5 60.5t120.5 65t139 68.5l34 -74q-88 -44 -172.5 -85t-147.5 -85q55 -47 103 -91t89 -94.5t75 -114.5q21 -39 49 -57t55.5 -23.5t44.5 -5.5q21 0 30.5 -11.5t9.5 -27.5t-14 -29.5t-36 -13.5 q-24 0 -56 6.5t-63.5 25t-55.5 54.5q-17 -22 -45 -41t-74.5 -32.5t-117.5 -21t-173 -7.5zM410 -208q-21 0 -35.5 14.5t-14.5 34.5t14.5 35t35.5 15q20 0 34.5 -15t14.5 -35t-14.5 -34.5t-34.5 -14.5zM411 -337q-21 0 -35.5 14.5t-14.5 34.5t14.5 35t35.5 15q20 0 34.5 -15 t14.5 -35t-14.5 -34.5t-34.5 -14.5z" />
<glyph unicode="&#x6b3;" horiz-adv-x="412" arabic-form="initial" d="M-1 550l-37 56q58 35 152.5 91.5t223.5 123.5l28 -61q-130 -69 -218 -120.5t-149 -89.5zM0 -5l10 82h94q59 0 93.5 6.5t51 17t22 23t5.5 25.5q0 23 -17.5 57t-71.5 88q-37 38 -74 67t-61 49t-24 29q0 23 5.5 43t15.5 31q40 43 125.5 86.5t213.5 107.5l34 -74 q-91 -44 -148.5 -72.5t-95 -50t-69.5 -43.5q117 -95 179.5 -170.5t62.5 -152.5q0 -22 -8 -48t-34 -49t-78 -37.5t-140 -14.5h-91zM163 -187q-21 0 -35.5 14.5t-14.5 34.5t14.5 35t35.5 15q20 0 34.5 -15t14.5 -35t-14.5 -34.5t-34.5 -14.5zM164 -316q-21 0 -35.5 14.5 t-14.5 34.5t14.5 35t35.5 15q20 0 34.5 -15t14.5 -35t-14.5 -34.5t-34.5 -14.5z" />
<glyph unicode="&#x6b3;" horiz-adv-x="508" arabic-form="medial" d="M-1 550l-37 56q58 35 152.5 91.5t223.5 123.5l28 -61q-130 -69 -218 -120.5t-149 -89.5zM0 -5l10 82h77q83 0 123 9t52.5 24t12.5 31q0 24 -18 53t-46 59.5t-59.5 60.5t-59.5 55t-46 43.5t-18 26.5q0 23 5.5 43t15.5 31q27 29 79.5 60.5t120.5 65t139 68.5l34 -74 q-88 -44 -172.5 -85t-147.5 -85q55 -47 103 -91t89 -94.5t75 -114.5q21 -39 49 -57t55.5 -23.5t44.5 -5.5q21 0 30.5 -11.5t9.5 -27.5t-14 -29.5t-36 -13.5q-24 0 -55.5 6.5t-63.5 25t-56 54.5q-20 -29 -50 -48t-78 -28.5t-122 -9.5h-83zM163 -187q-21 0 -35.5 14.5 t-14.5 34.5t14.5 35t35.5 15q20 0 34.5 -15t14.5 -35t-14.5 -34.5t-34.5 -14.5zM164 -316q-21 0 -35.5 14.5t-14.5 34.5t14.5 35t35.5 15q20 0 34.5 -15t14.5 -35t-14.5 -34.5t-34.5 -14.5z" />
<glyph unicode="&#x6b1;" horiz-adv-x="877" arabic-form="isolated" />
<glyph unicode="&#x6b1;" horiz-adv-x="975" arabic-form="final" d="M639 801q-21 0 -35.5 14.5t-14.5 34.5t14.5 35t35.5 15q20 0 34.5 -15t14.5 -35t-14.5 -34.5t-34.5 -14.5zM524 748q-21 0 -35.5 14.5t-14.5 34.5t14.5 35t35.5 15q20 0 34.5 -15t14.5 -35t-14.5 -34.5t-34.5 -14.5zM462 550l-37 56q58 35 152.5 91.5t223.5 123.5l28 -61 q-130 -69 -218 -120.5t-149 -89.5zM390 -21q-178 0 -269 47t-91 156q0 37 9 78.5t19 78.5l75 -19q-6 -22 -13.5 -55.5t-7.5 -59.5q0 -52 26.5 -83.5t92.5 -46t185 -14.5q125 0 196 13t100.5 32t29.5 35q0 24 -18 53t-46 59.5t-59.5 60.5t-59.5 55t-46 43.5t-18 26.5 q0 23 5.5 43t15.5 31q27 29 79.5 60.5t120.5 65t139 68.5l34 -74q-88 -44 -172.5 -85t-147.5 -85q55 -47 103 -91t89 -94.5t75 -114.5q21 -39 49 -57t55.5 -23.5t44.5 -5.5q21 0 30.5 -11.5t9.5 -27.5t-14 -29.5t-36 -13.5q-24 0 -56 6.5t-63.5 25t-55.5 54.5 q-17 -22 -45 -41t-74.5 -32.5t-117.5 -21t-173 -7.5z" />
<glyph unicode="&#x6b1;" horiz-adv-x="412" arabic-form="initial" d="M187 799q-21 0 -35.5 14.5t-14.5 34.5t14.5 35t35.5 15q20 0 34.5 -15t14.5 -35t-14.5 -34.5t-34.5 -14.5zM72 746q-21 0 -35.5 14.5t-14.5 34.5t14.5 35t35.5 15q20 0 34.5 -15t14.5 -35t-14.5 -34.5t-34.5 -14.5zM-1 550l-37 56q58 35 152.5 91.5t223.5 123.5l28 -61 q-130 -69 -218 -120.5t-149 -89.5zM0 -5l10 82h94q59 0 93.5 6.5t51 17t22 23t5.5 25.5q0 23 -17.5 57t-71.5 88q-37 38 -74 67t-61 49t-24 29q0 23 5.5 43t15.5 31q40 43 125.5 86.5t213.5 107.5l34 -74q-91 -44 -148.5 -72.5t-95 -50t-69.5 -43.5q117 -95 179.5 -170.5 t62.5 -152.5q0 -22 -8 -48t-34 -49t-78 -37.5t-140 -14.5h-91z" />
<glyph unicode="&#x6b1;" horiz-adv-x="508" arabic-form="medial" d="M182 799q-21 0 -35.5 14.5t-14.5 34.5t14.5 35t35.5 15q20 0 34.5 -15t14.5 -35t-14.5 -34.5t-34.5 -14.5zM67 746q-21 0 -35.5 14.5t-14.5 34.5t14.5 35t35.5 15q20 0 34.5 -15t14.5 -35t-14.5 -34.5t-34.5 -14.5zM-1 550l-37 56q58 35 152.5 91.5t223.5 123.5l28 -61 q-130 -69 -218 -120.5t-149 -89.5zM0 -5l10 82h77q83 0 123 9t52.5 24t12.5 31q0 24 -18 53t-46 59.5t-59.5 60.5t-59.5 55t-46 43.5t-18 26.5q0 23 5.5 43t15.5 31q27 29 79.5 60.5t120.5 65t139 68.5l34 -74q-88 -44 -172.5 -85t-147.5 -85q55 -47 103 -91t89 -94.5 t75 -114.5q21 -39 49 -57t55.5 -23.5t44.5 -5.5q21 0 30.5 -11.5t9.5 -27.5t-14 -29.5t-36 -13.5q-24 0 -55.5 6.5t-63.5 25t-56 54.5q-20 -29 -50 -48t-78 -28.5t-122 -9.5h-83z" />
<glyph unicode="&#x6ba;" horiz-adv-x="685" arabic-form="isolated" d="M390 290h6q47 0 107 -184l7 -84q0 -128 -202 -202l-63 -8q-128 0 -188 120l-8 49q0 69 73 159h9q17 -1 16 -9v-5l-35 -99v-3q0 -80 131 -106h43q61 0 151 58q11 19 11 29v14q0 50 -82 175l-8 33q17 63 32 63z" />
<glyph unicode="&#x6ba;" horiz-adv-x="730" arabic-form="final" d="M30 -1q0 36 10 80t32 97l72 -28q-16 -42 -24 -77t-8 -65q0 -55 27.5 -89.5t74 -50.5t102.5 -16q91 0 142.5 25.5t73 65.5t21.5 85q0 66 -14.5 121.5t-31.5 114.5l81 22q16 -57 22.5 -82.5t10.5 -41.5q11 -37 29 -54.5t41.5 -23t48.5 -5.5q21 0 30.5 -11.5t9.5 -27.5 t-14 -29.5t-36 -13.5q-31 0 -54.5 8.5t-39.5 21.5q-5 -49 -23 -95t-54.5 -82.5t-96.5 -58t-149 -21.5q-75 0 -139.5 25t-104 76.5t-39.5 129.5z" />
<glyph unicode="&#x6bb;" horiz-adv-x="685" arabic-form="isolated" d="M390 290h6q47 0 107 -184l7 -84q0 -128 -202 -202l-63 -8q-128 0 -188 120l-8 49q0 69 73 159h9q17 -1 16 -9v-5l-35 -99v-3q0 -80 131 -106h43q61 0 151 58q11 19 11 29v14q0 50 -82 175l-8 33q17 63 32 63z" />
<glyph unicode="&#x6bb;" horiz-adv-x="730" arabic-form="final" d="M30 -1q0 36 10 80t32 97l72 -28q-16 -42 -24 -77t-8 -65q0 -55 27.5 -89.5t74 -50.5t102.5 -16q91 0 142.5 25.5t73 65.5t21.5 85q0 66 -14.5 121.5t-31.5 114.5l81 22q16 -57 22.5 -82.5t10.5 -41.5q11 -37 29 -54.5t41.5 -23t48.5 -5.5q21 0 30.5 -11.5t9.5 -27.5 t-14 -29.5t-36 -13.5q-31 0 -54.5 8.5t-39.5 21.5q-5 -49 -23 -95t-54.5 -82.5t-96.5 -58t-149 -21.5q-75 0 -139.5 25t-104 76.5t-39.5 129.5zM664 -642q-7 -72 -34 -89l-240 -137q0 31 3.5 43t9.5 20.5t15 15.5t25 15zM397 -474q20 0 79 -66q19 -16 18 -33 q-12 -44 -31 -45h-89q-51 -10 -51 -28l38 -256q-6 -46 -22 -47q-16 0 -23 82l-30 204q0 34 52 106v9q0 44 46 73z" />
<glyph unicode="&#x6bb;" horiz-adv-x="299" arabic-form="initial" d="M151 535q-18 0 -42.5 1.5t-46.5 3.5l-33 3l2 58q6 -1 13 -1.5t15 -1.5q10 18 22 34l-5 162h55l5 -106q18 13 37.5 20.5t39.5 7.5q38 0 60 -23t22 -57q0 -20 -11.5 -43.5t-42.5 -40.5t-90 -17zM205 657q-18 0 -35 -11t-31.5 -26t-22.5 -26q16 -1 28 -1q49 0 71 10.5 t22 27.5q0 14 -9 20t-23 6zM0 -5l10 82q59 0 92 4.5t47 23t14 58.5q0 38 -17.5 95.5t-39.5 114.5l81 30q13 -32 24.5 -73t19.5 -81t8 -70q0 -100 -56 -142t-183 -42z" />
<glyph unicode="&#x6bb;" horiz-adv-x="343" arabic-form="medial" d="M0 -5l10 82q42 0 66 7.5t36.5 29t21.5 62.5t22 107l78 -15q-6 -27 -13.5 -62t-7.5 -59q0 -20 9 -36t39 -25t92 -9q21 0 30.5 -11.5t9.5 -27.5t-14 -29.5t-36 -13.5q-79 0 -117 17t-52 51q-30 -42 -69 -55t-105 -13zM519 -654q-7 -72 -34 -89l-240 -137q0 31 3.5 43 t9.5 20.5t15 15.5t25 15zM252 -486q20 0 79 -66q19 -16 18 -33q-12 -44 -31 -45h-89q-51 -10 -51 -28l38 -256q-6 -46 -22 -47q-16 0 -23 82l-30 204q0 34 52 106v9q0 44 46 73z" />
<glyph unicode="&#x6c0;" horiz-adv-x="405" arabic-form="isolated" d="M147 325h3q86 0 164 -150l5 -38q0 -55 -101 -134l-68 -11q-101 10 -101 90l51 156q0 77 25 76q0 7 22 11zM122 123q29 -19 47 -19h16q31 0 50 30v6q-39 57 -72 57h-10q-22 0 -31 -74zM226.195 558.392q32.999 0 32.3984 -32.3984q-3.59961 -29.3994 -28.1982 -29.999 l-27.5986 18.5996h-8.40039q-11.3994 0 -25.7988 -21.5996q17.999 -26.3984 50.3984 -26.3984l68.9971 11.3994q19.7988 -2.40039 19.7988 -8.39941v-4.80078q0 -28.1982 -58.7979 -34.1982q-20.3984 0 -83.9961 -42.5986l-16.1992 -6.59961l-3.59961 9.59961v1.80078 l13.1992 26.3984l-31.1992 34.1982l-1.19922 10.2002q0 46.1982 85.1963 91.7959q14.999 1.2002 14.999 3z" />
<glyph unicode="&#x6c0;" horiz-adv-x="486" arabic-form="final" d="M234 439q29 0 63 -205q31 -91 58 -107t59 -16q25 -13 25 -55t-25 -56h-13q-90 0 -151 106h-3q-72 -63 -120 -63h-13q-104 0 -104 52q0 84 158 180q41 17 41 104q1 52 25 60zM136 161v-6l5 -5h5q55 0 85 41v5l-11 14h-24q-23 0 -60 -49zM312.195 969.392 q32.999 0 32.3984 -32.3984q-3.59961 -29.3994 -28.1982 -29.999l-27.5986 18.5996h-8.40039q-11.3994 0 -25.7988 -21.5996q17.999 -26.3984 50.3984 -26.3984l68.9971 11.3994q19.7988 -2.40039 19.7988 -8.39941v-4.80078q0 -28.1982 -58.7979 -34.1982 q-20.3984 0 -83.9961 -42.5986l-16.1992 -6.59961l-3.59961 9.59961v1.80078l13.1992 26.3984l-31.1992 34.1982l-1.19922 10.2002q0 46.1982 85.1963 91.7959q14.999 1.2002 14.999 3z" />
<glyph unicode="&#x6c1;" horiz-adv-x="405" arabic-form="isolated" />
<glyph unicode="&#x6c1;" horiz-adv-x="479" arabic-form="final" d="M479 -5q-57 0 -91.5 17t-56 47.5t-37.5 72.5t-34 91q-4 13 -19 18t-32 5q-26 0 -51.5 -11t-42 -33t-16.5 -54q0 -28 8.5 -53.5t19.5 -57.5l-72 -20q-13 35 -24 65.5t-11 73.5q0 55 31 93.5t78 58.5t94 20q17 0 36.5 -3t36 -14.5t24.5 -36.5q16 -45 28.5 -81.5t28.5 -62.5 t42.5 -39.5t69.5 -13.5q21 0 30.5 -11.5t9.5 -27.5t-14 -29.5t-36 -13.5z" />
<glyph unicode="&#x6c1;" horiz-adv-x="269" arabic-form="initial" d="M0 -5l10 82q49 0 78 6t42 24.5t13 55.5q0 38 -17.5 95.5t-39.5 114.5l81 30q13 -32 24.5 -73t19.5 -81t8 -70q0 -100 -53.5 -142t-165.5 -42zM136 -27l26 -26q-43 -24 -44 -61h3q18 0 30 -8.5t12 -24.5q0 -13 -10 -27t-33 -14q-19 0 -32.5 14t-13.5 42q0 25 14.5 57 t47.5 48z" />
<glyph unicode="&#x6c1;" horiz-adv-x="438" arabic-form="medial" d="M251 -269q-46 32 -76.5 83t-47 108.5t-20.5 106.5q-30 -34 -107 -34l9 82q16 0 36.5 3.5t41 19.5t35.5 56l67 -17q-14 -53 -11 -107.5t21 -103t48 -83.5q0 70 18.5 122t62.5 81t120 29q20 0 30 -11.5t10 -27.5t-13.5 -29.5t-34.5 -13.5q-55 0 -83 -22.5t-37.5 -69 t-9.5 -118.5z" />
<glyph unicode="&#x6be;" horiz-adv-x="672" arabic-form="isolated" />
<glyph unicode="&#x6be;" horiz-adv-x="614" arabic-form="final" d="M152 -5q-38 0 -71 8t-66 23l23 67q34 -11 65 -15.5t65 -4.5h22q3 76 22.5 139t49.5 108.5t65.5 70.5t71.5 25q49 0 84 -43t35 -122q0 -37 -14 -78.5t-53 -74.5q40 -9 82.5 -15t90.5 -6q21 0 30.5 -11.5t9.5 -27.5t-14 -29.5t-36 -13.5q-34 0 -77 5q23 -34 25.5 -71.5 t-14 -70.5t-50 -54t-84.5 -21q-86 0 -148 53t-74 161q-21 -2 -40 -2zM392 334q-20 0 -47 -32t-49 -88.5t-26 -129.5q48 7 85.5 24.5t59 49.5t21.5 84q0 21 -4.5 42t-14.5 35.5t-25 14.5zM416 -135q26 0 51 15t25 55q0 25 -12.5 45.5t-43.5 33.5t-88 13q-17 0 -36 -2.5 t-40 -6.5q6 -50 22 -80t37.5 -46t43.5 -21.5t41 -5.5z" />
<glyph unicode="&#x6be;" horiz-adv-x="574" arabic-form="initial" d="M229 482h3q36 0 164 -82q186 -93 186 -218v-3q0 -116 -77 -150h-8l-186 43h-3q-163 -69 -223 -72h-85v109h79l52 -3q38 6 38 27v13q0 96 49 189q-14 34 -13 52v19q8 76 24 76zM237 229v-22q0 -8 50 -17h16q36 0 35 30q-24 63 -38 63h-13q-50 -33 -50 -54zM410 256 q-14 -35 -14 -66q20 -24 79 -44h27q17 11 19 20q0 41 -109 92z" />
<glyph unicode="&#x6be;" horiz-adv-x="507" arabic-form="medial" d="M339 403q49 0 74 -161q0 -47 -38 -101v-3q9 -17 75 -29h51q33 -13 33 -54q0 -42 -33 -55h-62l-26 4q25 -83 25 -98q-15 -134 -102 -134h-3q-51 0 -111 55l-72 123q0 13 -30 32q-28 18 -101 18h-19v111l33 -3h60q68 13 68 38q102 198 145 241l14 8zM246 174v-17 q93 28 93 69v22q0 15 -16 24h-6q-71 -82 -71 -98zM241 -31v-31q35 -52 84 -51h6q15 0 22 13v3q0 21 -61 60l-24 6h-27z" />
<glyph unicode="&#x6d2;" horiz-adv-x="942" arabic-form="isolated" />
<glyph unicode="&#x6d2;" horiz-adv-x="549" arabic-form="final" d="M439 -298q-225 0 -332 40t-107 118q0 55 61.5 104.5t186 81t311.5 31.5q21 0 30.5 -11.5t9.5 -27.5t-14 -29.5t-36 -13.5q-100 0 -185 -11t-148.5 -29t-99 -40.5t-35.5 -46.5q0 -35 88 -59.5t271 -24.5q154 0 267 12t168 22l-14 -78q-27 -7 -73 -14t-104 -12.5t-121 -8.5 t-124 -3z" />
<glyph unicode="&#x6d3;" horiz-adv-x="942" arabic-form="isolated" />
<glyph unicode="&#x6d3;" horiz-adv-x="549" arabic-form="final" d="M439 -298q-225 0 -332 40t-107 118q0 55 61.5 104.5t186 81t311.5 31.5q21 0 30.5 -11.5t9.5 -27.5t-14 -29.5t-36 -13.5q-100 0 -185 -11t-148.5 -29t-99 -40.5t-35.5 -46.5q0 -35 88 -59.5t271 -24.5q154 0 267 12t168 22l-14 -78q-27 -7 -73 -14t-104 -12.5t-121 -8.5 t-124 -3zM264.195 480.392q32.999 0 32.3984 -32.3984q-3.59961 -29.3994 -28.1982 -29.999l-27.5986 18.5996h-8.40039q-11.3994 0 -25.7988 -21.5996q17.999 -26.3984 50.3984 -26.3984l68.9971 11.3994q19.7988 -2.40039 19.7988 -8.39941v-4.80078 q0 -28.1982 -58.7979 -34.1982q-20.3984 0 -83.9961 -42.5986l-16.1992 -6.59961l-3.59961 9.59961v1.80078l13.1992 26.3984l-31.1992 34.1982l-1.19922 10.2002q0 46.1982 85.1963 91.7959q14.999 1.2002 14.999 3z" />
<glyph unicode="&#x6ad;" horiz-adv-x="882" arabic-form="isolated" d="M546 815q19 0 27 -71q39 -33 39 -60l-20 -82v-3q39 -204 69 -449q-21 -120 -93 -120q-178 -17 -410 -30q-81 0 -109 41v8q0 65 35 79q53 -19 104 -19h35q303 0 367 36q0 77 -77 489q-24 50 -24 74q17 107 57 107zM377 569q19 0 24 -27q0 -31 -74 -72v-16q0 -3 77 -30 q22 -15 22 -49q0 -54 -96 -121l-30 -8q-90 24 -90 55q3 11 16 11h72q23 0 32 16q0 10 -52 22q-30 23 -30 52q44 167 129 167z" />
<glyph unicode="&#x6ad;" horiz-adv-x="922" arabic-form="final" d="M573 731q32 0 38 -87q44 -397 75 -453q18 -82 91 -82h30q25 -12 25 -54q0 -37 -25 -55h-49q-91 0 -120 75q-12 44 -19 44h-5q-153 -134 -358 -134h-6q-168 0 -227 118q-11 32 -13 68q0 69 60 142l8 3l3 -3v-120q0 -73 158 -110h22q146 0 312 91q30 28 30 52l-60 440 q7 65 30 65zM395 537q21 0 30 -35q0 -48 -65 -71q-18 0 -19 -9v-13q7 -12 95 -36q24 -18 25 -41q0 -76 -104 -117l-33 -6h-11q-63 5 -63 27v3q14 15 98 38v3q-82 42 -82 60v6q0 60 75 158q31 33 54 33zM520 545l30 9q27 -46 34 -209q-4 -126 -14 -126q-35 170 -61 251 l-13 35q0 26 24 40zM553.195 756.392q32.999 0 32.3984 -32.3984q-3.59961 -29.3994 -28.1982 -29.999l-27.5986 18.5996h-8.40039q-11.3994 0 -25.7988 -21.5996q17.999 -26.3984 50.3984 -26.3984l68.9971 11.3994q19.7988 -2.40039 19.7988 -8.39941v-4.80078 q0 -28.1982 -58.7979 -34.1982q-20.3984 0 -83.9961 -42.5986l-16.1992 -6.59961l-3.59961 9.59961v1.80078l13.1992 26.3984l-31.1992 34.1982l-1.19922 10.2002q0 46.1982 85.1963 91.7959q14.999 1.2002 14.999 3zM467 975l42 7q39 -3 57 -11.5t23 -26.5l-2 -16 q0 -60 -123 -134l-41 -11l-33 8q0 25 91 77q8 6 8 11q0 4 -6 9q-14 9 -41 10q-9 0 -57 -38q-7 -5 -12 -5q-2 0 -4 1q-6 3 -6 12q0 62 85 101z" />
<glyph unicode="&#x6ad;" horiz-adv-x="412" arabic-form="initial" d="M157 796q-21 0 -35.5 14.5t-14.5 34.5t14.5 35t35.5 15q20 0 34.5 -15t14.5 -35t-14.5 -34.5t-34.5 -14.5zM262 722q-21 0 -35.5 14.5t-14.5 34.5t14.5 35t35.5 15q20 0 34.5 -15t14.5 -35t-14.5 -34.5t-34.5 -14.5zM147 671q-21 0 -35.5 14.5t-14.5 34.5t14.5 35 t35.5 15q20 0 34.5 -15t14.5 -35t-14.5 -34.5t-34.5 -14.5zM0 -5l10 82h94q59 0 93.5 6.5t51 17t22 23t5.5 25.5q0 23 -17.5 57t-71.5 88q-37 38 -74 67t-61 49t-24 29q0 23 5.5 43t15.5 31q40 43 125.5 86.5t213.5 107.5l34 -74q-91 -44 -148.5 -72.5t-95 -50t-69.5 -43.5 q117 -95 179.5 -170.5t62.5 -152.5q0 -22 -8 -48t-34 -49t-78 -37.5t-140 -14.5h-91z" />
<glyph unicode="&#x6ad;" horiz-adv-x="508" arabic-form="medial" d="M125 796q-21 0 -35.5 14.5t-14.5 34.5t14.5 35t35.5 15q20 0 34.5 -15t14.5 -35t-14.5 -34.5t-34.5 -14.5zM230 722q-21 0 -35.5 14.5t-14.5 34.5t14.5 35t35.5 15q20 0 34.5 -15t14.5 -35t-14.5 -34.5t-34.5 -14.5zM115 671q-21 0 -35.5 14.5t-14.5 34.5t14.5 35 t35.5 15q20 0 34.5 -15t14.5 -35t-14.5 -34.5t-34.5 -14.5zM0 -5l10 82h77q83 0 123 9t52.5 24t12.5 31q0 24 -18 53t-46 59.5t-59.5 60.5t-59.5 55t-46 43.5t-18 26.5q0 23 5.5 43t15.5 31q27 29 79.5 60.5t120.5 65t139 68.5l34 -74q-88 -44 -172.5 -85t-147.5 -85 q55 -47 103 -91t89 -94.5t75 -114.5q21 -39 49 -57t55.5 -23.5t44.5 -5.5q21 0 30.5 -11.5t9.5 -27.5t-14 -29.5t-36 -13.5q-24 0 -55.5 6.5t-63.5 25t-56 54.5q-20 -29 -50 -48t-78 -28.5t-122 -9.5h-83z" />
<glyph unicode="&#x6c7;" horiz-adv-x="447" arabic-form="isolated" d="M462 343q89 0 142 -183l2 -27v-3q0 -180 -188 -303q-65 -36 -129 -36h-5l-3 -3l-3 3h-8q-70 0 -216 46l-5 19l2 3h134q179 0 325 181q33 50 34 63l-6 5q-47 -38 -69 -38q-83 0 -106 109q44 164 99 164zM445 207v-9l3 -13h19q22 0 30 30q0 19 -19 19h-22q-8 0 -11 -27z " />
<glyph unicode="&#x6c7;" horiz-adv-x="472" arabic-form="final" d="M379 236q58 0 89.5 -37t50.5 -90h57q30 -13 30 -54q0 -40 -30 -55h-53q-20 -51 -73 -125q-92 -130 -238 -130h-16q-186 11 -186 49q0 14 16 14h129q106 0 251 130l19 28v8q-4 11 -19 11h-38q-99 20 -99 87q0 86 82 157zM343 111q19 -19 33 -19h16q4 4 4 9q0 6 -5 15 q-9 17 -12 18t-15 1t-16.5 -4t-4.5 -20zM394 1113q33 -12 38 -63v-5q0 -35 -12 -80q36 -40 35 -52q0 -46 -27 -46h-2q-8 0 -41 24q-134 -125 -215 -139h-6l-8 8v6q0 17 77 70q101 83 101 91q-27 15 -41 44l-3 24q0 63 79 115zM370 997q10 21 10 33q0 5 -2 9q-4 9 -10 8 q-2 0 -5 -1q-10 -5 -12 -23q0 -3 -1 -6q0 -20 20 -20z" />
<glyph unicode="&#x6c6;" horiz-adv-x="447" arabic-form="isolated" d="M462 343q89 0 142 -183l2 -27v-3q0 -180 -188 -303q-65 -36 -129 -36h-5l-3 -3l-3 3h-8q-70 0 -216 46l-5 19l2 3h134q179 0 325 181q33 50 34 63l-6 5q-47 -38 -69 -38q-83 0 -106 109q44 164 99 164zM445 207v-9l3 -13h19q22 0 30 30q0 19 -19 19h-22q-8 0 -11 -27z " />
<glyph unicode="&#x6c6;" horiz-adv-x="472" arabic-form="final" d="M379 236q58 0 89.5 -37t50.5 -90h57q30 -13 30 -54q0 -40 -30 -55h-53q-20 -51 -73 -125q-92 -130 -238 -130h-16q-186 11 -186 49q0 14 16 14h129q106 0 251 130l19 28v8q-4 11 -19 11h-38q-99 20 -99 87q0 86 82 157zM343 111q19 -19 33 -19h16q4 4 4 9q0 6 -5 15 q-9 17 -12 18t-15 1t-16.5 -4t-4.5 -20z" />
<glyph unicode="&#x6c8;" horiz-adv-x="447" arabic-form="isolated" d="M462 343q89 0 142 -183l2 -27v-3q0 -180 -188 -303q-65 -36 -129 -36h-5l-3 -3l-3 3h-8q-70 0 -216 46l-5 19l2 3h134q179 0 325 181q33 50 34 63l-6 5q-47 -38 -69 -38q-83 0 -106 109q44 164 99 164zM445 207v-9l3 -13h19q22 0 30 30q0 19 -19 19h-22q-8 0 -11 -27z " />
<glyph unicode="&#x6c8;" horiz-adv-x="472" arabic-form="final" d="M379 236q58 0 89.5 -37t50.5 -90h57q30 -13 30 -54q0 -40 -30 -55h-53q-20 -51 -73 -125q-92 -130 -238 -130h-16q-186 11 -186 49q0 14 16 14h129q106 0 251 130l19 28v8q-4 11 -19 11h-38q-99 20 -99 87q0 86 82 157zM343 111q19 -19 33 -19h16q4 4 4 9q0 6 -5 15 q-9 17 -12 18t-15 1t-16.5 -4t-4.5 -20zM276 834l30 9q27 -46 34 -209q-4 -126 -14 -126q-35 170 -61 251l-13 35q0 26 24 40z" />
<glyph unicode="&#x677;" horiz-adv-x="597" arabic-form="isolated" d="M462 343q89 0 142 -183l2 -27v-3q0 -180 -188 -303q-65 -36 -129 -36h-5l-3 -3l-3 3h-8q-70 0 -216 46l-5 19l2 3h134q179 0 325 181q33 50 34 63l-6 5q-47 -38 -69 -38q-83 0 -106 109q44 164 99 164zM445 207v-9l3 -13h19q22 0 30 30q0 19 -19 19h-22q-8 0 -11 -27z M677.195 588.392q32.999 0 32.3984 -32.3984q-3.59961 -29.3994 -28.1982 -29.999l-27.5986 18.5996h-8.40039q-11.3994 0 -25.7988 -21.5996q17.999 -26.3984 50.3984 -26.3984l68.9971 11.3994q19.7988 -2.40039 19.7988 -8.39941v-4.80078q0 -28.1982 -58.7979 -34.1982 q-20.3984 0 -83.9961 -42.5986l-16.1992 -6.59961l-3.59961 9.59961v1.80078l13.1992 26.3984l-31.1992 34.1982l-1.19922 10.2002q0 46.1982 85.1963 91.7959q14.999 1.2002 14.999 3zM337 -295q33 -12 38 -63v-5q0 -35 -12 -80q36 -40 35 -52q0 -46 -27 -46h-2 q-8 0 -41 24q-134 -125 -215 -139h-6l-8 8v6q0 17 77 70q101 83 101 91q-27 15 -41 44l-3 24q0 63 79 115zM313 -411q10 21 10 33q0 5 -2 9q-4 9 -10 8q-2 0 -5 -1q-10 -5 -12 -23q0 -3 -1 -6q0 -20 20 -20z" />
<glyph unicode="&#x6cb;" horiz-adv-x="447" arabic-form="isolated" d="M462 343q89 0 142 -183l2 -27v-3q0 -180 -188 -303q-65 -36 -129 -36h-5l-3 -3l-3 3h-8q-70 0 -216 46l-5 19l2 3h134q179 0 325 181q33 50 34 63l-6 5q-47 -38 -69 -38q-83 0 -106 109q44 164 99 164zM445 207v-9l3 -13h19q22 0 30 30q0 19 -19 19h-22q-8 0 -11 -27z M408 508l-51 -79l-80 55l52 77zM564 530l-51 -79l-80 55l52 77zM465 667l-52 -79l-80 55l52 77z" />
<glyph unicode="&#x6cb;" horiz-adv-x="472" arabic-form="final" d="M379 236q58 0 89.5 -37t50.5 -90h57q30 -13 30 -54q0 -40 -30 -55h-53q-20 -51 -73 -125q-92 -130 -238 -130h-16q-186 11 -186 49q0 14 16 14h129q106 0 251 130l19 28v8q-4 11 -19 11h-38q-99 20 -99 87q0 86 82 157zM343 111q19 -19 33 -19h16q4 4 4 9q0 6 -5 15 q-9 17 -12 18t-15 1t-16.5 -4t-4.5 -20zM286 348l30 9q27 -46 34 -209q-4 -126 -14 -126q-35 170 -61 251l-13 35q0 26 24 40zM319.195 559.392q32.999 0 32.3984 -32.3984q-3.59961 -29.3994 -28.1982 -29.999l-27.5986 18.5996h-8.40039q-11.3994 0 -25.7988 -21.5996 q17.999 -26.3984 50.3984 -26.3984l68.9971 11.3994q19.7988 -2.40039 19.7988 -8.39941v-4.80078q0 -28.1982 -58.7979 -34.1982q-20.3984 0 -83.9961 -42.5986l-16.1992 -6.59961l-3.59961 9.59961v1.80078l13.1992 26.3984l-31.1992 34.1982l-1.19922 10.2002 q0 46.1982 85.1963 91.7959q14.999 1.2002 14.999 3zM233 778l42 7q39 -3 57 -11.5t23 -26.5l-2 -16q0 -60 -123 -134l-41 -11l-33 8q0 25 91 77q8 6 8 11q0 4 -6 9q-14 9 -41 10q-9 0 -57 -38q-7 -5 -12 -5q-2 0 -4 1q-6 3 -6 12q0 62 85 101z" />
<glyph unicode="&#x6c5;" horiz-adv-x="447" arabic-form="isolated" d="M462 343q89 0 142 -183l2 -27v-3q0 -180 -188 -303q-65 -36 -129 -36h-5l-3 -3l-3 3h-8q-70 0 -216 46l-5 19l2 3h134q179 0 325 181q33 50 34 63l-6 5q-47 -38 -69 -38q-83 0 -106 109q44 164 99 164zM445 207v-9l3 -13h19q22 0 30 30q0 19 -19 19h-22q-8 0 -11 -27z " />
<glyph unicode="&#x6c5;" horiz-adv-x="472" arabic-form="final" d="M72 -103v59h223q7 18 12 39h-74q-45 0 -83.5 13t-62 40.5t-23.5 72.5q0 38 13 75t35.5 67.5t53 49t66.5 18.5q67 0 114 -61t50 -193h86q21 0 30.5 -11.5t9.5 -27.5t-14 -29.5t-36 -13.5h-81q-13 -83 -57.5 -132.5t-112.5 -72t-151 -22.5h-12t-12 1l-6 79q72 2 125 12 t87 37h-180zM271 77h43q0 83 -26 128t-64 45q-21 0 -39 -16t-29.5 -42t-11.5 -55q0 -35 31.5 -47.5t95.5 -12.5z" />
<glyph unicode="&#x6c9;" horiz-adv-x="447" arabic-form="isolated" d="M462 343q89 0 142 -183l2 -27v-3q0 -180 -188 -303q-65 -36 -129 -36h-5l-3 -3l-3 3h-8q-70 0 -216 46l-5 19l2 3h134q179 0 325 181q33 50 34 63l-6 5q-47 -38 -69 -38q-83 0 -106 109q44 164 99 164zM445 207v-9l3 -13h19q22 0 30 30q0 19 -19 19h-22q-8 0 -11 -27z " />
<glyph unicode="&#x6c9;" horiz-adv-x="472" arabic-form="final" d="M379 236q58 0 89.5 -37t50.5 -90h57q30 -13 30 -54q0 -40 -30 -55h-53q-20 -51 -73 -125q-92 -130 -238 -130h-16q-186 11 -186 49q0 14 16 14h129q106 0 251 130l19 28v8q-4 11 -19 11h-38q-99 20 -99 87q0 86 82 157zM343 111q19 -19 33 -19h16q4 4 4 9q0 6 -5 15 q-9 17 -12 18t-15 1t-16.5 -4t-4.5 -20z" />
<glyph unicode="&#x6d0;" horiz-adv-x="760" arabic-form="isolated" d="M604 487q50 0 79 -66l5 -16q-5 -66 -35 -66l-61 41h-13q-48 0 -123 -101q-11 -19 -11 -33v-17q0 -74 156 -73q87 -12 87 -82q0 -140 -311 -241l-72 -8h-2q-177 0 -238 132q-11 33 -16 84q0 98 82 186l27 14l3 -3v-14q0 -21 -49 -137v-2q0 -107 139 -142l54 -5h31 q135 0 262 103v3q0 9 -30 14h-17l-48 -3q-131 21 -132 120v8q6 100 129 252q58 50 104 52zM456 -331l-79 51l55 80l77 -52zM480 -474l-79 51l55 80l77 -52z" />
<glyph unicode="&#x6d0;" horiz-adv-x="736" arabic-form="final" d="M710 109h19q27 -21 27 -53q0 -39 -27 -56h-28q-46 0 -76.5 -3.5t-68 -21.5t-49.5 -32q10 -14 142 -49q27 -21 28 -62q0 -139 -323 -222q-38 -8 -74 -8q-168 0 -246 134q-24 55 -24 103q0 88 95 214l22 8q11 -10 11 -22h3q0 -8 -58 -109q-14 -36 -13 -55q0 -83 153 -153 l24 -3h63q142 0 249 74v8q0 12 -98 31q-65 26 -66 70q0 61 88 126q74 51 108 66t119 15zM326 -419q-21 0 -35.5 14.5t-14.5 34.5t14.5 35t35.5 15q20 0 34.5 -15t14.5 -35t-14.5 -34.5t-34.5 -14.5zM327 -548q-21 0 -35.5 14.5t-14.5 34.5t14.5 35t35.5 15q20 0 34.5 -15 t14.5 -35t-14.5 -34.5t-34.5 -14.5z" />
<glyph unicode="&#x6d0;" horiz-adv-x="269" arabic-form="initial" d="M0 -5l10 82q49 0 78 6t42 24.5t13 55.5q0 38 -17.5 95.5t-39.5 114.5l81 30q13 -32 24.5 -73t19.5 -81t8 -70q0 -100 -53.5 -142t-165.5 -42zM107 -192q-21 0 -35.5 14.5t-14.5 34.5t14.5 35t35.5 15q20 0 34.5 -15t14.5 -35t-14.5 -34.5t-34.5 -14.5zM108 -321 q-21 0 -35.5 14.5t-14.5 34.5t14.5 35t35.5 15q20 0 34.5 -15t14.5 -35t-14.5 -34.5t-34.5 -14.5z" />
<glyph unicode="&#x6d0;" horiz-adv-x="343" arabic-form="medial" d="M0 -5l10 82q42 0 66 7.5t36.5 29t21.5 62.5t22 107l78 -15q-6 -27 -13.5 -62t-7.5 -59q0 -20 9 -36t39 -25t92 -9q21 0 30.5 -11.5t9.5 -27.5t-14 -29.5t-36 -13.5q-79 0 -117 17t-52 51q-30 -42 -69 -55t-105 -13zM170 -192q-21 0 -35.5 14.5t-14.5 34.5t14.5 35 t35.5 15q20 0 34.5 -15t14.5 -35t-14.5 -34.5t-34.5 -14.5zM171 -321q-21 0 -35.5 14.5t-14.5 34.5t14.5 35t35.5 15q20 0 34.5 -15t14.5 -35t-14.5 -34.5t-34.5 -14.5z" />
<glyph unicode="&#x649;" horiz-adv-x="297" arabic-form="initial" d="M189 328q47 0 99 -164q-3 -96 -78 -125q-70 -36 -159 -39h-51v109q116 0 158.5 7t49.5 40q-2 24 -32 61t-30 54q19 57 43 57zM37 674l30 9q27 -46 34 -209q-4 -126 -14 -126q-35 170 -61 251l-13 35q0 26 24 40z" />
<glyph unicode="&#x649;" horiz-adv-x="375" arabic-form="medial" d="M230 229q12 0 20 -22q18 -63 66 -91q12 -7 37 -7h28q24 -14 24 -53q0 -40 -24 -56h-43q-28 0 -59 27.5t-49 47.5q-66 -75 -203 -75h-27v109h62q116 1 133 76q14 44 35 44z" />
<glyph unicode="&#xfbea;" horiz-adv-x="560" arabic-form="isolated" d="M480 328q47 0 99 -164q-3 -96 -78 -125q-70 -36 -159 -39h-51v109q116 0 158.5 7t49.5 40q-2 24 -32 61t-30 54q19 57 43 57zM473.235 565.872q39.5996 0 38.8789 -38.8789q-4.31934 -35.2793 -33.8379 -35.999l-33.1191 22.3203h-10.0811q-13.6787 0 -30.958 -25.9199 q21.5986 -31.6787 60.4785 -31.6787l82.7969 13.6797q23.7588 -2.88086 23.7588 -10.0791v-5.76172q0 -33.8379 -70.5576 -41.0381q-24.4785 0 -100.797 -51.1191l-19.4395 -7.91895l-4.31934 11.5195v2.16113l15.8398 31.6777l-37.4395 41.0391l-1.43945 12.2402 q0 55.4385 102.236 110.156q17.999 1.43945 17.999 3.59961zM94 622h8q25 -3 49 -215q26 -279 76 -290q13 -6 42 -8h56q21 -13 22 -55q0 -41 -22 -54h-45q-114 0 -148 82q-26 58 -73 469q-1 40 35 71z" />
<glyph unicode="&#xfbeb;" horiz-adv-x="634" arabic-form="final" d="M521 229q12 0 20 -22q18 -63 66 -91q12 -7 37 -7h28q24 -14 24 -53q0 -40 -24 -56h-43q-28 0 -59 27.5t-49 47.5q-66 -75 -203 -75h-27v109h62q116 1 133 76q14 44 35 44zM505.235 473.872q39.5996 0 38.8789 -38.8789q-4.31934 -35.2793 -33.8379 -35.999 l-33.1191 22.3203h-10.0811q-13.6787 0 -30.958 -25.9199q21.5986 -31.6787 60.4785 -31.6787l82.7969 13.6797q23.7588 -2.88086 23.7588 -10.0791v-5.76172q0 -33.8379 -70.5576 -41.0381q-24.4785 0 -100.797 -51.1191l-19.4395 -7.91895l-4.31934 11.5195v2.16113 l15.8398 31.6777l-37.4395 41.0391l-1.43945 12.2402q0 55.4385 102.236 110.156q17.999 1.43945 17.999 3.59961zM94 622h8q25 -3 49 -215q26 -279 76 -290q13 -6 42 -8h56q21 -13 22 -55q0 -41 -22 -54h-45q-114 0 -148 82q-26 58 -73 469q-1 40 35 71z" />
<glyph unicode="&#xfbec;" horiz-adv-x="755" arabic-form="isolated" d="M675 328q47 0 99 -164q-3 -96 -78 -125q-70 -36 -159 -39h-51v109q116 0 158.5 7t49.5 40q-2 24 -32 61t-30 54q19 57 43 57zM668.235 565.872q39.5996 0 38.8789 -38.8789q-4.31934 -35.2793 -33.8379 -35.999l-33.1191 22.3203h-10.0811q-13.6787 0 -30.958 -25.9199 q21.5986 -31.6787 60.4785 -31.6787l82.7969 13.6797q23.7588 -2.88086 23.7588 -10.0791v-5.76172q0 -33.8379 -70.5576 -41.0381q-24.4785 0 -100.797 -51.1191l-19.4395 -7.91895l-4.31934 11.5195v2.16113l15.8398 31.6777l-37.4395 41.0391l-1.43945 12.2402 q0 55.4385 102.236 110.156q17.999 1.43945 17.999 3.59961zM234 439q29 0 63 -205q31 -91 58 -107t59 -16q25 -13 25 -55t-25 -56h-13q-90 0 -151 106h-3q-72 -63 -120 -63h-13q-104 0 -104 52q0 84 158 180q41 17 41 104q1 52 25 60zM136 161v-6l5 -5h5q55 0 85 41v5 l-11 14h-24q-23 0 -60 -49z" />
<glyph unicode="&#xfbed;" horiz-adv-x="829" arabic-form="final" d="M716 229q12 0 20 -22q18 -63 66 -91q12 -7 37 -7h28q24 -14 24 -53q0 -40 -24 -56h-43q-28 0 -59 27.5t-49 47.5q-66 -75 -203 -75h-27v109h62q116 1 133 76q14 44 35 44zM700.235 473.872q39.5996 0 38.8789 -38.8789q-4.31934 -35.2793 -33.8379 -35.999 l-33.1191 22.3203h-10.0811q-13.6787 0 -30.958 -25.9199q21.5986 -31.6787 60.4785 -31.6787l82.7969 13.6797q23.7588 -2.88086 23.7588 -10.0791v-5.76172q0 -33.8379 -70.5576 -41.0381q-24.4785 0 -100.797 -51.1191l-19.4395 -7.91895l-4.31934 11.5195v2.16113 l15.8398 31.6777l-37.4395 41.0391l-1.43945 12.2402q0 55.4385 102.236 110.156q17.999 1.43945 17.999 3.59961zM234 439q29 0 63 -205q31 -91 58 -107t59 -16q25 -13 25 -55t-25 -56h-13q-90 0 -151 106h-3q-72 -63 -120 -63h-13q-104 0 -104 52q0 84 158 180 q41 17 41 104q1 52 25 60zM136 161v-6l5 -5h5q55 0 85 41v5l-11 14h-24q-23 0 -60 -49z" />
<glyph unicode="&#xfbee;" horiz-adv-x="741" arabic-form="isolated" d="M661 328q47 0 99 -164q-3 -96 -78 -125q-70 -36 -159 -39h-51v109q116 0 158.5 7t49.5 40q-2 24 -32 61t-30 54q19 57 43 57zM654.235 565.872q39.5996 0 38.8789 -38.8789q-4.31934 -35.2793 -33.8379 -35.999l-33.1191 22.3203h-10.0811q-13.6787 0 -30.958 -25.9199 q21.5986 -31.6787 60.4785 -31.6787l82.7969 13.6797q23.7588 -2.88086 23.7588 -10.0791v-5.76172q0 -33.8379 -70.5576 -41.0381q-24.4785 0 -100.797 -51.1191l-19.4395 -7.91895l-4.31934 11.5195v2.16113l15.8398 31.6777l-37.4395 41.0391l-1.43945 12.2402 q0 55.4385 102.236 110.156q17.999 1.43945 17.999 3.59961zM379 236q58 0 89.5 -37t50.5 -90h57q30 -13 30 -54q0 -40 -30 -55h-53q-20 -51 -73 -125q-92 -130 -238 -130h-16q-186 11 -186 49q0 14 16 14h129q106 0 251 130l19 28v8q-4 11 -19 11h-38q-99 20 -99 87 q0 86 82 157zM343 111q19 -19 33 -19h16q4 4 4 9q0 6 -5 15q-9 17 -12 18t-15 1t-16.5 -4t-4.5 -20z" />
<glyph unicode="&#xfbef;" horiz-adv-x="815" arabic-form="final" d="M702 229q12 0 20 -22q18 -63 66 -91q12 -7 37 -7h28q24 -14 24 -53q0 -40 -24 -56h-43q-28 0 -59 27.5t-49 47.5q-66 -75 -203 -75h-27v109h62q116 1 133 76q14 44 35 44zM686.235 473.872q39.5996 0 38.8789 -38.8789q-4.31934 -35.2793 -33.8379 -35.999 l-33.1191 22.3203h-10.0811q-13.6787 0 -30.958 -25.9199q21.5986 -31.6787 60.4785 -31.6787l82.7969 13.6797q23.7588 -2.88086 23.7588 -10.0791v-5.76172q0 -33.8379 -70.5576 -41.0381q-24.4785 0 -100.797 -51.1191l-19.4395 -7.91895l-4.31934 11.5195v2.16113 l15.8398 31.6777l-37.4395 41.0391l-1.43945 12.2402q0 55.4385 102.236 110.156q17.999 1.43945 17.999 3.59961zM379 236q58 0 89.5 -37t50.5 -90h57q30 -13 30 -54q0 -40 -30 -55h-53q-20 -51 -73 -125q-92 -130 -238 -130h-16q-186 11 -186 49q0 14 16 14h129 q106 0 251 130l19 28v8q-4 11 -19 11h-38q-99 20 -99 87q0 86 82 157zM343 111q19 -19 33 -19h16q4 4 4 9q0 6 -5 15q-9 17 -12 18t-15 1t-16.5 -4t-4.5 -20z" />
<glyph unicode="&#xfbf0;" horiz-adv-x="741" arabic-form="isolated" d="M661 328q47 0 99 -164q-3 -96 -78 -125q-70 -36 -159 -39h-51v109q116 0 158.5 7t49.5 40q-2 24 -32 61t-30 54q19 57 43 57zM654.235 565.872q39.5996 0 38.8789 -38.8789q-4.31934 -35.2793 -33.8379 -35.999l-33.1191 22.3203h-10.0811q-13.6787 0 -30.958 -25.9199 q21.5986 -31.6787 60.4785 -31.6787l82.7969 13.6797q23.7588 -2.88086 23.7588 -10.0791v-5.76172q0 -33.8379 -70.5576 -41.0381q-24.4785 0 -100.797 -51.1191l-19.4395 -7.91895l-4.31934 11.5195v2.16113l15.8398 31.6777l-37.4395 41.0391l-1.43945 12.2402 q0 55.4385 102.236 110.156q17.999 1.43945 17.999 3.59961zM379 236q58 0 89.5 -37t50.5 -90h57q30 -13 30 -54q0 -40 -30 -55h-53q-20 -51 -73 -125q-92 -130 -238 -130h-16q-186 11 -186 49q0 14 16 14h129q106 0 251 130l19 28v8q-4 11 -19 11h-38q-99 20 -99 87 q0 86 82 157zM343 111q19 -19 33 -19h16q4 4 4 9q0 6 -5 15q-9 17 -12 18t-15 1t-16.5 -4t-4.5 -20zM394 1113q33 -12 38 -63v-5q0 -35 -12 -80q36 -40 35 -52q0 -46 -27 -46h-2q-8 0 -41 24q-134 -125 -215 -139h-6l-8 8v6q0 17 77 70q101 83 101 91q-27 15 -41 44l-3 24 q0 63 79 115zM370 997q10 21 10 33q0 5 -2 9q-4 9 -10 8q-2 0 -5 -1q-10 -5 -12 -23q0 -3 -1 -6q0 -20 20 -20z" />
<glyph unicode="&#xfbf1;" horiz-adv-x="815" arabic-form="final" d="M702 229q12 0 20 -22q18 -63 66 -91q12 -7 37 -7h28q24 -14 24 -53q0 -40 -24 -56h-43q-28 0 -59 27.5t-49 47.5q-66 -75 -203 -75h-27v109h62q116 1 133 76q14 44 35 44zM686.235 473.872q39.5996 0 38.8789 -38.8789q-4.31934 -35.2793 -33.8379 -35.999 l-33.1191 22.3203h-10.0811q-13.6787 0 -30.958 -25.9199q21.5986 -31.6787 60.4785 -31.6787l82.7969 13.6797q23.7588 -2.88086 23.7588 -10.0791v-5.76172q0 -33.8379 -70.5576 -41.0381q-24.4785 0 -100.797 -51.1191l-19.4395 -7.91895l-4.31934 11.5195v2.16113 l15.8398 31.6777l-37.4395 41.0391l-1.43945 12.2402q0 55.4385 102.236 110.156q17.999 1.43945 17.999 3.59961zM379 236q58 0 89.5 -37t50.5 -90h57q30 -13 30 -54q0 -40 -30 -55h-53q-20 -51 -73 -125q-92 -130 -238 -130h-16q-186 11 -186 49q0 14 16 14h129 q106 0 251 130l19 28v8q-4 11 -19 11h-38q-99 20 -99 87q0 86 82 157zM343 111q19 -19 33 -19h16q4 4 4 9q0 6 -5 15q-9 17 -12 18t-15 1t-16.5 -4t-4.5 -20zM394 1113q33 -12 38 -63v-5q0 -35 -12 -80q36 -40 35 -52q0 -46 -27 -46h-2q-8 0 -41 24q-134 -125 -215 -139h-6 l-8 8v6q0 17 77 70q101 83 101 91q-27 15 -41 44l-3 24q0 63 79 115zM370 997q10 21 10 33q0 5 -2 9q-4 9 -10 8q-2 0 -5 -1q-10 -5 -12 -23q0 -3 -1 -6q0 -20 20 -20z" />
<glyph unicode="&#xfbf2;" horiz-adv-x="741" arabic-form="isolated" d="M661 328q47 0 99 -164q-3 -96 -78 -125q-70 -36 -159 -39h-51v109q116 0 158.5 7t49.5 40q-2 24 -32 61t-30 54q19 57 43 57zM654.235 565.872q39.5996 0 38.8789 -38.8789q-4.31934 -35.2793 -33.8379 -35.999l-33.1191 22.3203h-10.0811q-13.6787 0 -30.958 -25.9199 q21.5986 -31.6787 60.4785 -31.6787l82.7969 13.6797q23.7588 -2.88086 23.7588 -10.0791v-5.76172q0 -33.8379 -70.5576 -41.0381q-24.4785 0 -100.797 -51.1191l-19.4395 -7.91895l-4.31934 11.5195v2.16113l15.8398 31.6777l-37.4395 41.0391l-1.43945 12.2402 q0 55.4385 102.236 110.156q17.999 1.43945 17.999 3.59961zM379 236q58 0 89.5 -37t50.5 -90h57q30 -13 30 -54q0 -40 -30 -55h-53q-20 -51 -73 -125q-92 -130 -238 -130h-16q-186 11 -186 49q0 14 16 14h129q106 0 251 130l19 28v8q-4 11 -19 11h-38q-99 20 -99 87 q0 86 82 157zM343 111q19 -19 33 -19h16q4 4 4 9q0 6 -5 15q-9 17 -12 18t-15 1t-16.5 -4t-4.5 -20z" />
<glyph unicode="&#xfbf3;" horiz-adv-x="815" arabic-form="final" d="M702 229q12 0 20 -22q18 -63 66 -91q12 -7 37 -7h28q24 -14 24 -53q0 -40 -24 -56h-43q-28 0 -59 27.5t-49 47.5q-66 -75 -203 -75h-27v109h62q116 1 133 76q14 44 35 44zM686.235 473.872q39.5996 0 38.8789 -38.8789q-4.31934 -35.2793 -33.8379 -35.999 l-33.1191 22.3203h-10.0811q-13.6787 0 -30.958 -25.9199q21.5986 -31.6787 60.4785 -31.6787l82.7969 13.6797q23.7588 -2.88086 23.7588 -10.0791v-5.76172q0 -33.8379 -70.5576 -41.0381q-24.4785 0 -100.797 -51.1191l-19.4395 -7.91895l-4.31934 11.5195v2.16113 l15.8398 31.6777l-37.4395 41.0391l-1.43945 12.2402q0 55.4385 102.236 110.156q17.999 1.43945 17.999 3.59961zM379 236q58 0 89.5 -37t50.5 -90h57q30 -13 30 -54q0 -40 -30 -55h-53q-20 -51 -73 -125q-92 -130 -238 -130h-16q-186 11 -186 49q0 14 16 14h129 q106 0 251 130l19 28v8q-4 11 -19 11h-38q-99 20 -99 87q0 86 82 157zM343 111q19 -19 33 -19h16q4 4 4 9q0 6 -5 15q-9 17 -12 18t-15 1t-16.5 -4t-4.5 -20z" />
<glyph unicode="&#xfbf4;" horiz-adv-x="741" arabic-form="isolated" d="M661 328q47 0 99 -164q-3 -96 -78 -125q-70 -36 -159 -39h-51v109q116 0 158.5 7t49.5 40q-2 24 -32 61t-30 54q19 57 43 57zM654.235 565.872q39.5996 0 38.8789 -38.8789q-4.31934 -35.2793 -33.8379 -35.999l-33.1191 22.3203h-10.0811q-13.6787 0 -30.958 -25.9199 q21.5986 -31.6787 60.4785 -31.6787l82.7969 13.6797q23.7588 -2.88086 23.7588 -10.0791v-5.76172q0 -33.8379 -70.5576 -41.0381q-24.4785 0 -100.797 -51.1191l-19.4395 -7.91895l-4.31934 11.5195v2.16113l15.8398 31.6777l-37.4395 41.0391l-1.43945 12.2402 q0 55.4385 102.236 110.156q17.999 1.43945 17.999 3.59961zM379 236q58 0 89.5 -37t50.5 -90h57q30 -13 30 -54q0 -40 -30 -55h-53q-20 -51 -73 -125q-92 -130 -238 -130h-16q-186 11 -186 49q0 14 16 14h129q106 0 251 130l19 28v8q-4 11 -19 11h-38q-99 20 -99 87 q0 86 82 157zM343 111q19 -19 33 -19h16q4 4 4 9q0 6 -5 15q-9 17 -12 18t-15 1t-16.5 -4t-4.5 -20zM276 834l30 9q27 -46 34 -209q-4 -126 -14 -126q-35 170 -61 251l-13 35q0 26 24 40z" />
<glyph unicode="&#xfbf5;" horiz-adv-x="815" arabic-form="final" d="M702 229q12 0 20 -22q18 -63 66 -91q12 -7 37 -7h28q24 -14 24 -53q0 -40 -24 -56h-43q-28 0 -59 27.5t-49 47.5q-66 -75 -203 -75h-27v109h62q116 1 133 76q14 44 35 44zM686.235 473.872q39.5996 0 38.8789 -38.8789q-4.31934 -35.2793 -33.8379 -35.999 l-33.1191 22.3203h-10.0811q-13.6787 0 -30.958 -25.9199q21.5986 -31.6787 60.4785 -31.6787l82.7969 13.6797q23.7588 -2.88086 23.7588 -10.0791v-5.76172q0 -33.8379 -70.5576 -41.0381q-24.4785 0 -100.797 -51.1191l-19.4395 -7.91895l-4.31934 11.5195v2.16113 l15.8398 31.6777l-37.4395 41.0391l-1.43945 12.2402q0 55.4385 102.236 110.156q17.999 1.43945 17.999 3.59961zM379 236q58 0 89.5 -37t50.5 -90h57q30 -13 30 -54q0 -40 -30 -55h-53q-20 -51 -73 -125q-92 -130 -238 -130h-16q-186 11 -186 49q0 14 16 14h129 q106 0 251 130l19 28v8q-4 11 -19 11h-38q-99 20 -99 87q0 86 82 157zM343 111q19 -19 33 -19h16q4 4 4 9q0 6 -5 15q-9 17 -12 18t-15 1t-16.5 -4t-4.5 -20zM276 834l30 9q27 -46 34 -209q-4 -126 -14 -126q-35 170 -61 251l-13 35q0 26 24 40z" />
<glyph unicode="&#xfbf6;" horiz-adv-x="1005" arabic-form="isolated" d="M925 328q47 0 99 -164q-3 -96 -78 -125q-70 -36 -159 -39h-51v109q116 0 158.5 7t49.5 40q-2 24 -32 61t-30 54q19 57 43 57zM918.235 565.872q39.5996 0 38.8789 -38.8789q-4.31934 -35.2793 -33.8379 -35.999l-33.1191 22.3203h-10.0811q-13.6787 0 -30.958 -25.9199 q21.5986 -31.6787 60.4785 -31.6787l82.7969 13.6797q23.7588 -2.88086 23.7588 -10.0791v-5.76172q0 -33.8379 -70.5576 -41.0381q-24.4785 0 -100.797 -51.1191l-19.4395 -7.91895l-4.31934 11.5195v2.16113l15.8398 31.6777l-37.4395 41.0391l-1.43945 12.2402 q0 55.4385 102.236 110.156q17.999 1.43945 17.999 3.59961zM710 109h19q27 -21 27 -53q0 -39 -27 -56h-28q-46 0 -76.5 -3.5t-68 -21.5t-49.5 -32q10 -14 142 -49q27 -21 28 -62q0 -139 -323 -222q-38 -8 -74 -8q-168 0 -246 134q-24 55 -24 103q0 88 95 214l22 8 q11 -10 11 -22h3q0 -8 -58 -109q-14 -36 -13 -55q0 -83 153 -153l24 -3h63q142 0 249 74v8q0 12 -98 31q-65 26 -66 70q0 61 88 126q74 51 108 66t119 15zM326 -419q-21 0 -35.5 14.5t-14.5 34.5t14.5 35t35.5 15q20 0 34.5 -15t14.5 -35t-14.5 -34.5t-34.5 -14.5zM327 -548 q-21 0 -35.5 14.5t-14.5 34.5t14.5 35t35.5 15q20 0 34.5 -15t14.5 -35t-14.5 -34.5t-34.5 -14.5z" />
<glyph unicode="&#xfbf7;" horiz-adv-x="1079" arabic-form="final" d="M966 229q12 0 20 -22q18 -63 66 -91q12 -7 37 -7h28q24 -14 24 -53q0 -40 -24 -56h-43q-28 0 -59 27.5t-49 47.5q-66 -75 -203 -75h-27v109h62q116 1 133 76q14 44 35 44zM950.235 473.872q39.5996 0 38.8789 -38.8789q-4.31934 -35.2793 -33.8379 -35.999 l-33.1191 22.3203h-10.0811q-13.6787 0 -30.958 -25.9199q21.5986 -31.6787 60.4785 -31.6787l82.7969 13.6797q23.7588 -2.88086 23.7588 -10.0791v-5.76172q0 -33.8379 -70.5576 -41.0381q-24.4785 0 -100.797 -51.1191l-19.4395 -7.91895l-4.31934 11.5195v2.16113 l15.8398 31.6777l-37.4395 41.0391l-1.43945 12.2402q0 55.4385 102.236 110.156q17.999 1.43945 17.999 3.59961zM710 109h19q27 -21 27 -53q0 -39 -27 -56h-28q-46 0 -76.5 -3.5t-68 -21.5t-49.5 -32q10 -14 142 -49q27 -21 28 -62q0 -139 -323 -222q-38 -8 -74 -8 q-168 0 -246 134q-24 55 -24 103q0 88 95 214l22 8q11 -10 11 -22h3q0 -8 -58 -109q-14 -36 -13 -55q0 -83 153 -153l24 -3h63q142 0 249 74v8q0 12 -98 31q-65 26 -66 70q0 61 88 126q74 51 108 66t119 15zM326 -419q-21 0 -35.5 14.5t-14.5 34.5t14.5 35t35.5 15 q20 0 34.5 -15t14.5 -35t-14.5 -34.5t-34.5 -14.5zM327 -548q-21 0 -35.5 14.5t-14.5 34.5t14.5 35t35.5 15q20 0 34.5 -15t14.5 -35t-14.5 -34.5t-34.5 -14.5z" />
<glyph unicode="&#xfbf8;" horiz-adv-x="612" arabic-form="initial" d="M532 328q47 0 99 -164q-3 -96 -78 -125q-70 -36 -159 -39h-51v109q116 0 158.5 7t49.5 40q-2 24 -32 61t-30 54q19 57 43 57zM525.235 565.872q39.5996 0 38.8789 -38.8789q-4.31934 -35.2793 -33.8379 -35.999l-33.1191 22.3203h-10.0811q-13.6787 0 -30.958 -25.9199 q21.5986 -31.6787 60.4785 -31.6787l82.7969 13.6797q23.7588 -2.88086 23.7588 -10.0791v-5.76172q0 -33.8379 -70.5576 -41.0381q-24.4785 0 -100.797 -51.1191l-19.4395 -7.91895l-4.31934 11.5195v2.16113l15.8398 31.6777l-37.4395 41.0391l-1.43945 12.2402 q0 55.4385 102.236 110.156q17.999 1.43945 17.999 3.59961zM0 -5l10 82q42 0 66 7.5t36.5 29t21.5 62.5t22 107l78 -15q-6 -27 -13.5 -62t-7.5 -59q0 -20 9 -36t39 -25t92 -9q21 0 30.5 -11.5t9.5 -27.5t-14 -29.5t-36 -13.5q-79 0 -117 17t-52 51q-30 -42 -69 -55 t-105 -13zM170 -192q-21 0 -35.5 14.5t-14.5 34.5t14.5 35t35.5 15q20 0 34.5 -15t14.5 -35t-14.5 -34.5t-34.5 -14.5zM171 -321q-21 0 -35.5 14.5t-14.5 34.5t14.5 35t35.5 15q20 0 34.5 -15t14.5 -35t-14.5 -34.5t-34.5 -14.5z" />
<glyph unicode="&#xfbf9;" horiz-adv-x="1005" arabic-form="isolated" d="M925 328q47 0 99 -164q-3 -96 -78 -125q-70 -36 -159 -39h-51v109q116 0 158.5 7t49.5 40q-2 24 -32 61t-30 54q19 57 43 57zM918.235 565.872q39.5996 0 38.8789 -38.8789q-4.31934 -35.2793 -33.8379 -35.999l-33.1191 22.3203h-10.0811q-13.6787 0 -30.958 -25.9199 q21.5986 -31.6787 60.4785 -31.6787l82.7969 13.6797q23.7588 -2.88086 23.7588 -10.0791v-5.76172q0 -33.8379 -70.5576 -41.0381q-24.4785 0 -100.797 -51.1191l-19.4395 -7.91895l-4.31934 11.5195v2.16113l15.8398 31.6777l-37.4395 41.0391l-1.43945 12.2402 q0 55.4385 102.236 110.156q17.999 1.43945 17.999 3.59961zM710 109h19q27 -21 27 -53q0 -39 -27 -56h-28q-46 0 -76.5 -3.5t-68 -21.5t-49.5 -32q10 -14 142 -49q27 -21 28 -62q0 -139 -323 -222q-38 -8 -74 -8q-168 0 -246 134q-24 55 -24 103q0 88 95 214l22 8 q11 -10 11 -22h3q0 -8 -58 -109q-14 -36 -13 -55q0 -83 153 -153l24 -3h63q142 0 249 74v8q0 12 -98 31q-65 26 -66 70q0 61 88 126q74 51 108 66t119 15z" />
<glyph unicode="&#xfbfa;" horiz-adv-x="1079" arabic-form="final" d="M966 229q12 0 20 -22q18 -63 66 -91q12 -7 37 -7h28q24 -14 24 -53q0 -40 -24 -56h-43q-28 0 -59 27.5t-49 47.5q-66 -75 -203 -75h-27v109h62q116 1 133 76q14 44 35 44zM950.235 473.872q39.5996 0 38.8789 -38.8789q-4.31934 -35.2793 -33.8379 -35.999 l-33.1191 22.3203h-10.0811q-13.6787 0 -30.958 -25.9199q21.5986 -31.6787 60.4785 -31.6787l82.7969 13.6797q23.7588 -2.88086 23.7588 -10.0791v-5.76172q0 -33.8379 -70.5576 -41.0381q-24.4785 0 -100.797 -51.1191l-19.4395 -7.91895l-4.31934 11.5195v2.16113 l15.8398 31.6777l-37.4395 41.0391l-1.43945 12.2402q0 55.4385 102.236 110.156q17.999 1.43945 17.999 3.59961zM710 109h19q27 -21 27 -53q0 -39 -27 -56h-28q-46 0 -76.5 -3.5t-68 -21.5t-49.5 -32q10 -14 142 -49q27 -21 28 -62q0 -139 -323 -222q-38 -8 -74 -8 q-168 0 -246 134q-24 55 -24 103q0 88 95 214l22 8q11 -10 11 -22h3q0 -8 -58 -109q-14 -36 -13 -55q0 -83 153 -153l24 -3h63q142 0 249 74v8q0 12 -98 31q-65 26 -66 70q0 61 88 126q74 51 108 66t119 15z" />
<glyph unicode="&#xfbfb;" horiz-adv-x="612" arabic-form="initial" d="M532 328q47 0 99 -164q-3 -96 -78 -125q-70 -36 -159 -39h-51v109q116 0 158.5 7t49.5 40q-2 24 -32 61t-30 54q19 57 43 57zM525.235 565.872q39.5996 0 38.8789 -38.8789q-4.31934 -35.2793 -33.8379 -35.999l-33.1191 22.3203h-10.0811q-13.6787 0 -30.958 -25.9199 q21.5986 -31.6787 60.4785 -31.6787l82.7969 13.6797q23.7588 -2.88086 23.7588 -10.0791v-5.76172q0 -33.8379 -70.5576 -41.0381q-24.4785 0 -100.797 -51.1191l-19.4395 -7.91895l-4.31934 11.5195v2.16113l15.8398 31.6777l-37.4395 41.0391l-1.43945 12.2402 q0 55.4385 102.236 110.156q17.999 1.43945 17.999 3.59961zM0 -5l10 82q42 0 66 7.5t36.5 29t21.5 62.5t22 107l78 -15q-6 -27 -13.5 -62t-7.5 -59q0 -20 9 -36t39 -25t92 -9q21 0 30.5 -11.5t9.5 -27.5t-14 -29.5t-36 -13.5q-79 0 -117 17t-52 51q-30 -42 -69 -55 t-105 -13z" />
<glyph unicode="&#x6cc;" horiz-adv-x="760" arabic-form="isolated" d="M604 487q50 0 79 -66l5 -16q-5 -66 -35 -66l-61 41h-13q-48 0 -123 -101q-11 -19 -11 -33v-17q0 -74 156 -73q87 -12 87 -82q0 -140 -311 -241l-72 -8h-2q-177 0 -238 132q-11 33 -16 84q0 98 82 186l27 14l3 -3v-14q0 -21 -49 -137v-2q0 -107 139 -142l54 -5h31 q135 0 262 103v3q0 9 -30 14h-17l-48 -3q-131 21 -132 120v8q6 100 129 252q58 50 104 52z" />
<glyph unicode="&#x6cc;" horiz-adv-x="736" arabic-form="final" d="M710 109h19q27 -21 27 -53q0 -39 -27 -56h-28q-46 0 -76.5 -3.5t-68 -21.5t-49.5 -32q10 -14 142 -49q27 -21 28 -62q0 -139 -323 -222q-38 -8 -74 -8q-168 0 -246 134q-24 55 -24 103q0 88 95 214l22 8q11 -10 11 -22h3q0 -8 -58 -109q-14 -36 -13 -55q0 -83 153 -153 l24 -3h63q142 0 249 74v8q0 12 -98 31q-65 26 -66 70q0 61 88 126q74 51 108 66t119 15z" />
<glyph unicode="&#x6cc;" horiz-adv-x="299" arabic-form="initial" d="M0 -5l10 82q59 0 92 4.5t47 23t14 58.5q0 38 -17.5 95.5t-39.5 114.5l81 30q13 -32 24.5 -73t19.5 -81t8 -70q0 -100 -56 -142t-183 -42zM185 -194q-21 0 -35.5 14.5t-14.5 34.5t14.5 35t35.5 15q20 0 34.5 -15t14.5 -35t-14.5 -34.5t-34.5 -14.5zM48 -194 q-21 0 -35.5 14.5t-14.5 34.5t14.5 35t35.5 15q20 0 34.5 -15t14.5 -35t-14.5 -34.5t-34.5 -14.5z" />
<glyph unicode="&#x6cc;" horiz-adv-x="373" arabic-form="medial" d="M0 -5l10 82q50 0 78 7.5t42.5 29t23.5 62.5t22 107l78 -15q-6 -27 -13.5 -62t-7.5 -59q0 -15 2 -28t15 -22t44 -14.5t89 -5.5q21 0 30.5 -11.5t9.5 -27.5t-14 -29.5t-36 -13.5q-65 0 -101.5 7.5t-54 22t-25.5 36.5q-29 -41 -71.5 -53.5t-120.5 -12.5zM252 -194 q-21 0 -35.5 14.5t-14.5 34.5t14.5 35t35.5 15q20 0 34.5 -15t14.5 -35t-14.5 -34.5t-34.5 -14.5zM115 -194q-21 0 -35.5 14.5t-14.5 34.5t14.5 35t35.5 15q20 0 34.5 -15t14.5 -35t-14.5 -34.5t-34.5 -14.5z" />
<glyph unicode="&#xfc00;" horiz-adv-x="918" arabic-form="isolated" d="M838 328q47 0 99 -164q-3 -96 -78 -125q-70 -36 -159 -39h-51v109q116 0 158.5 7t49.5 40q-2 24 -32 61t-30 54q19 57 43 57zM831.235 565.872q39.5996 0 38.8789 -38.8789q-4.31934 -35.2793 -33.8379 -35.999l-33.1191 22.3203h-10.0811q-13.6787 0 -30.958 -25.9199 q21.5986 -31.6787 60.4785 -31.6787l82.7969 13.6797q23.7588 -2.88086 23.7588 -10.0791v-5.76172q0 -33.8379 -70.5576 -41.0381q-24.4785 0 -100.797 -51.1191l-19.4395 -7.91895l-4.31934 11.5195v2.16113l15.8398 31.6777l-37.4395 41.0391l-1.43945 12.2402 q0 55.4385 102.236 110.156q17.999 1.43945 17.999 3.59961zM218 322h352l8 -8v-22q0 -37 -57 -74q-55 -10 -55 -35q46 -75 173 -75h55q24 -15 24 -53q0 -41 -24 -55h-86q-138 0 -180 68q-8 14 -8 35v85l-6 5h-8q-105 -14 -194 -79q-131 -115 -131 -279q25 -126 76 -172 q93 -84 312 -84q174 0 347 38h14q24 -4 24 -28v-3q0 -21 -142 -51q-184 -60 -314 -60q-282 0 -366 191q-22 74 -22 126q0 210 172 399q16 11 16 21l-16 6h-14q-42 0 -107 -49h-16l-8 8v19q0 42 106 118q34 8 75 8zM404 -17q-33 -60 -69 -69q-31 5 -68 69l68 68z" />
<glyph unicode="&#xfc01;" horiz-adv-x="918" arabic-form="isolated" d="M838 328q47 0 99 -164q-3 -96 -78 -125q-70 -36 -159 -39h-51v109q116 0 158.5 7t49.5 40q-2 24 -32 61t-30 54q19 57 43 57zM831.235 565.872q39.5996 0 38.8789 -38.8789q-4.31934 -35.2793 -33.8379 -35.999l-33.1191 22.3203h-10.0811q-13.6787 0 -30.958 -25.9199 q21.5986 -31.6787 60.4785 -31.6787l82.7969 13.6797q23.7588 -2.88086 23.7588 -10.0791v-5.76172q0 -33.8379 -70.5576 -41.0381q-24.4785 0 -100.797 -51.1191l-19.4395 -7.91895l-4.31934 11.5195v2.16113l15.8398 31.6777l-37.4395 41.0391l-1.43945 12.2402 q0 55.4385 102.236 110.156q17.999 1.43945 17.999 3.59961zM218 322h352l8 -8v-22q0 -37 -57 -74q-55 -10 -55 -35q46 -75 173 -75h55q24 -15 24 -53q0 -41 -24 -55h-86q-138 0 -180 68q-8 14 -8 35v85l-6 5h-8q-105 -14 -194 -79q-131 -115 -131 -279q25 -126 76 -172 q93 -84 312 -84q174 0 347 38h14q24 -4 24 -28v-3q0 -21 -142 -51q-184 -60 -314 -60q-282 0 -366 191q-22 74 -22 126q0 210 172 399q16 11 16 21l-16 6h-14q-42 0 -107 -49h-16l-8 8v19q0 42 106 118q34 8 75 8z" />
<glyph unicode="&#xfc02;" horiz-adv-x="831" arabic-form="isolated" d="M751 328q47 0 99 -164q-3 -96 -78 -125q-70 -36 -159 -39h-51v109q116 0 158.5 7t49.5 40q-2 24 -32 61t-30 54q19 57 43 57zM744.235 565.872q39.5996 0 38.8789 -38.8789q-4.31934 -35.2793 -33.8379 -35.999l-33.1191 22.3203h-10.0811q-13.6787 0 -30.958 -25.9199 q21.5986 -31.6787 60.4785 -31.6787l82.7969 13.6797q23.7588 -2.88086 23.7588 -10.0791v-5.76172q0 -33.8379 -70.5576 -41.0381q-24.4785 0 -100.797 -51.1191l-19.4395 -7.91895l-4.31934 11.5195v2.16113l15.8398 31.6777l-37.4395 41.0391l-1.43945 12.2402 q0 55.4385 102.236 110.156q17.999 1.43945 17.999 3.59961zM275 207q11 0 126 -77q69 -21 99 -21h71q30 -14 30 -55q0 -38 -30 -54h-61q-47 2 -74 10q-31 0 -41 -93q-10 -55 -33 -55q-112 27 -112 112q-9 79 -27 79q-126 -10 -140 -46q-14 -28 -13 -66l52 -426 q-8 -65 -33 -66h-6q-12 0 -30 183q-44 299 -43 345q0 92 104 161q153 39 152 66l3 3h6z" />
<glyph unicode="&#xfc03;" horiz-adv-x="1005" arabic-form="isolated" d="M925 328q47 0 99 -164q-3 -96 -78 -125q-70 -36 -159 -39h-51v109q116 0 158.5 7t49.5 40q-2 24 -32 61t-30 54q19 57 43 57zM918.235 565.872q39.5996 0 38.8789 -38.8789q-4.31934 -35.2793 -33.8379 -35.999l-33.1191 22.3203h-10.0811q-13.6787 0 -30.958 -25.9199 q21.5986 -31.6787 60.4785 -31.6787l82.7969 13.6797q23.7588 -2.88086 23.7588 -10.0791v-5.76172q0 -33.8379 -70.5576 -41.0381q-24.4785 0 -100.797 -51.1191l-19.4395 -7.91895l-4.31934 11.5195v2.16113l15.8398 31.6777l-37.4395 41.0391l-1.43945 12.2402 q0 55.4385 102.236 110.156q17.999 1.43945 17.999 3.59961zM710 109h19q27 -21 27 -53q0 -39 -27 -56h-28q-46 0 -76.5 -3.5t-68 -21.5t-49.5 -32q10 -14 142 -49q27 -21 28 -62q0 -139 -323 -222q-38 -8 -74 -8q-168 0 -246 134q-24 55 -24 103q0 88 95 214l22 8 q11 -10 11 -22h3q0 -8 -58 -109q-14 -36 -13 -55q0 -83 153 -153l24 -3h63q142 0 249 74v8q0 12 -98 31q-65 26 -66 70q0 61 88 126q74 51 108 66t119 15z" />
<glyph unicode="&#xfc04;" horiz-adv-x="1005" arabic-form="isolated" d="M925 328q47 0 99 -164q-3 -96 -78 -125q-70 -36 -159 -39h-51v109q116 0 158.5 7t49.5 40q-2 24 -32 61t-30 54q19 57 43 57zM918.235 565.872q39.5996 0 38.8789 -38.8789q-4.31934 -35.2793 -33.8379 -35.999l-33.1191 22.3203h-10.0811q-13.6787 0 -30.958 -25.9199 q21.5986 -31.6787 60.4785 -31.6787l82.7969 13.6797q23.7588 -2.88086 23.7588 -10.0791v-5.76172q0 -33.8379 -70.5576 -41.0381q-24.4785 0 -100.797 -51.1191l-19.4395 -7.91895l-4.31934 11.5195v2.16113l15.8398 31.6777l-37.4395 41.0391l-1.43945 12.2402 q0 55.4385 102.236 110.156q17.999 1.43945 17.999 3.59961zM710 109h19q27 -21 27 -53q0 -39 -27 -56h-28q-46 0 -76.5 -3.5t-68 -21.5t-49.5 -32q10 -14 142 -49q27 -21 28 -62q0 -139 -323 -222q-38 -8 -74 -8q-168 0 -246 134q-24 55 -24 103q0 88 95 214l22 8 q11 -10 11 -22h3q0 -8 -58 -109q-14 -36 -13 -55q0 -83 153 -153l24 -3h63q142 0 249 74v8q0 12 -98 31q-65 26 -66 70q0 61 88 126q74 51 108 66t119 15zM369 -540l-51 -79l-80 55l52 77zM512 -516l-51 -79l-80 55l52 77z" />
<glyph unicode="&#xfc05;" horiz-adv-x="918" arabic-form="isolated" d="M838 328q47 0 99 -164q-3 -96 -78 -125q-70 -36 -159 -39h-51v109q116 0 158.5 7t49.5 40q-2 24 -32 61t-30 54q19 57 43 57zM913 -107q-33 -60 -69 -69q-31 5 -68 69l68 68zM218 322h352l8 -8v-22q0 -37 -57 -74q-55 -10 -55 -35q46 -75 173 -75h55q24 -15 24 -53 q0 -41 -24 -55h-86q-138 0 -180 68q-8 14 -8 35v85l-6 5h-8q-105 -14 -194 -79q-131 -115 -131 -279q25 -126 76 -172q93 -84 312 -84q174 0 347 38h14q24 -4 24 -28v-3q0 -21 -142 -51q-184 -60 -314 -60q-282 0 -366 191q-22 74 -22 126q0 210 172 399q16 11 16 21l-16 6 h-14q-42 0 -107 -49h-16l-8 8v19q0 42 106 118q34 8 75 8zM404 -17q-33 -60 -69 -69q-31 5 -68 69l68 68z" />
<glyph unicode="&#xfc06;" horiz-adv-x="918" arabic-form="isolated" d="M838 328q47 0 99 -164q-3 -96 -78 -125q-70 -36 -159 -39h-51v109q116 0 158.5 7t49.5 40q-2 24 -32 61t-30 54q19 57 43 57zM913 -107q-33 -60 -69 -69q-31 5 -68 69l68 68zM218 322h352l8 -8v-22q0 -37 -57 -74q-55 -10 -55 -35q46 -75 173 -75h55q24 -15 24 -53 q0 -41 -24 -55h-86q-138 0 -180 68q-8 14 -8 35v85l-6 5h-8q-105 -14 -194 -79q-131 -115 -131 -279q25 -126 76 -172q93 -84 312 -84q174 0 347 38h14q24 -4 24 -28v-3q0 -21 -142 -51q-184 -60 -314 -60q-282 0 -366 191q-22 74 -22 126q0 210 172 399q16 11 16 21l-16 6 h-14q-42 0 -107 -49h-16l-8 8v19q0 42 106 118q34 8 75 8z" />
<glyph unicode="&#xfc07;" horiz-adv-x="918" arabic-form="isolated" d="M838 328q47 0 99 -164q-3 -96 -78 -125q-70 -36 -159 -39h-51v109q116 0 158.5 7t49.5 40q-2 24 -32 61t-30 54q19 57 43 57zM913 -107q-33 -60 -69 -69q-31 5 -68 69l68 68zM218 322h352l8 -8v-22q0 -37 -57 -74q-55 -10 -55 -35q46 -75 173 -75h55q24 -15 24 -53 q0 -41 -24 -55h-86q-138 0 -180 68q-8 14 -8 35v85l-6 5h-8q-105 -14 -194 -79q-131 -115 -131 -279q25 -126 76 -172q93 -84 312 -84q174 0 347 38h14q24 -4 24 -28v-3q0 -21 -142 -51q-184 -60 -314 -60q-282 0 -366 191q-22 74 -22 126q0 210 172 399q16 11 16 21l-16 6 h-14q-42 0 -107 -49h-16l-8 8v19q0 42 106 118q34 8 75 8zM319 529q-33 -60 -69 -69q-31 5 -68 69l68 68z" />
<glyph unicode="&#xfc08;" horiz-adv-x="831" arabic-form="isolated" d="M751 328q47 0 99 -164q-3 -96 -78 -125q-70 -36 -159 -39h-51v109q116 0 158.5 7t49.5 40q-2 24 -32 61t-30 54q19 57 43 57zM826 -107q-33 -60 -69 -69q-31 5 -68 69l68 68zM275 207q11 0 126 -77q69 -21 99 -21h71q30 -14 30 -55q0 -38 -30 -54h-61q-47 2 -74 10 q-31 0 -41 -93q-10 -55 -33 -55q-112 27 -112 112q-9 79 -27 79q-126 -10 -140 -46q-14 -28 -13 -66l52 -426q-8 -65 -33 -66h-6q-12 0 -30 183q-44 299 -43 345q0 92 104 161q153 39 152 66l3 3h6z" />
<glyph unicode="&#xfc09;" horiz-adv-x="1005" arabic-form="isolated" d="M925 328q47 0 99 -164q-3 -96 -78 -125q-70 -36 -159 -39h-51v109q116 0 158.5 7t49.5 40q-2 24 -32 61t-30 54q19 57 43 57zM1000 -107q-33 -60 -69 -69q-31 5 -68 69l68 68zM710 109h19q27 -21 27 -53q0 -39 -27 -56h-28q-46 0 -76.5 -3.5t-68 -21.5t-49.5 -32 q10 -14 142 -49q27 -21 28 -62q0 -139 -323 -222q-38 -8 -74 -8q-168 0 -246 134q-24 55 -24 103q0 88 95 214l22 8q11 -10 11 -22h3q0 -8 -58 -109q-14 -36 -13 -55q0 -83 153 -153l24 -3h63q142 0 249 74v8q0 12 -98 31q-65 26 -66 70q0 61 88 126q74 51 108 66t119 15z " />
<glyph unicode="&#xfc0a;" horiz-adv-x="1005" arabic-form="isolated" d="M925 328q47 0 99 -164q-3 -96 -78 -125q-70 -36 -159 -39h-51v109q116 0 158.5 7t49.5 40q-2 24 -32 61t-30 54q19 57 43 57zM1000 -107q-33 -60 -69 -69q-31 5 -68 69l68 68zM710 109h19q27 -21 27 -53q0 -39 -27 -56h-28q-46 0 -76.5 -3.5t-68 -21.5t-49.5 -32 q10 -14 142 -49q27 -21 28 -62q0 -139 -323 -222q-38 -8 -74 -8q-168 0 -246 134q-24 55 -24 103q0 88 95 214l22 8q11 -10 11 -22h3q0 -8 -58 -109q-14 -36 -13 -55q0 -83 153 -153l24 -3h63q142 0 249 74v8q0 12 -98 31q-65 26 -66 70q0 61 88 126q74 51 108 66t119 15z M369 -540l-51 -79l-80 55l52 77zM512 -516l-51 -79l-80 55l52 77z" />
<glyph unicode="&#xfc0b;" horiz-adv-x="948" arabic-form="isolated" d="M838 328q47 0 99 -164q-3 -96 -78 -125q-70 -36 -159 -39h-51v109q116 0 158.5 7t49.5 40q-2 24 -32 61t-30 54q19 57 43 57zM784 465l-51 -79l-80 55l52 77zM927 489l-51 -79l-80 55l52 77zM218 322h352l8 -8v-22q0 -37 -57 -74q-55 -10 -55 -35q46 -75 173 -75h55 q24 -15 24 -53q0 -41 -24 -55h-86q-138 0 -180 68q-8 14 -8 35v85l-6 5h-8q-105 -14 -194 -79q-131 -115 -131 -279q25 -126 76 -172q93 -84 312 -84q174 0 347 38h14q24 -4 24 -28v-3q0 -21 -142 -51q-184 -60 -314 -60q-282 0 -366 191q-22 74 -22 126q0 210 172 399 q16 11 16 21l-16 6h-14q-42 0 -107 -49h-16l-8 8v19q0 42 106 118q34 8 75 8zM404 -17q-33 -60 -69 -69q-31 5 -68 69l68 68z" />
<glyph unicode="&#xfc0c;" horiz-adv-x="948" arabic-form="isolated" d="M838 328q47 0 99 -164q-3 -96 -78 -125q-70 -36 -159 -39h-51v109q116 0 158.5 7t49.5 40q-2 24 -32 61t-30 54q19 57 43 57zM784 465l-51 -79l-80 55l52 77zM927 489l-51 -79l-80 55l52 77zM218 322h352l8 -8v-22q0 -37 -57 -74q-55 -10 -55 -35q46 -75 173 -75h55 q24 -15 24 -53q0 -41 -24 -55h-86q-138 0 -180 68q-8 14 -8 35v85l-6 5h-8q-105 -14 -194 -79q-131 -115 -131 -279q25 -126 76 -172q93 -84 312 -84q174 0 347 38h14q24 -4 24 -28v-3q0 -21 -142 -51q-184 -60 -314 -60q-282 0 -366 191q-22 74 -22 126q0 210 172 399 q16 11 16 21l-16 6h-14q-42 0 -107 -49h-16l-8 8v19q0 42 106 118q34 8 75 8z" />
<glyph unicode="&#xfc0d;" horiz-adv-x="948" arabic-form="isolated" d="M838 328q47 0 99 -164q-3 -96 -78 -125q-70 -36 -159 -39h-51v109q116 0 158.5 7t49.5 40q-2 24 -32 61t-30 54q19 57 43 57zM784 465l-51 -79l-80 55l52 77zM927 489l-51 -79l-80 55l52 77zM218 322h352l8 -8v-22q0 -37 -57 -74q-55 -10 -55 -35q46 -75 173 -75h55 q24 -15 24 -53q0 -41 -24 -55h-86q-138 0 -180 68q-8 14 -8 35v85l-6 5h-8q-105 -14 -194 -79q-131 -115 -131 -279q25 -126 76 -172q93 -84 312 -84q174 0 347 38h14q24 -4 24 -28v-3q0 -21 -142 -51q-184 -60 -314 -60q-282 0 -366 191q-22 74 -22 126q0 210 172 399 q16 11 16 21l-16 6h-14q-42 0 -107 -49h-16l-8 8v19q0 42 106 118q34 8 75 8zM319 529q-33 -60 -69 -69q-31 5 -68 69l68 68z" />
<glyph unicode="&#xfc0e;" horiz-adv-x="861" arabic-form="isolated" d="M751 328q47 0 99 -164q-3 -96 -78 -125q-70 -36 -159 -39h-51v109q116 0 158.5 7t49.5 40q-2 24 -32 61t-30 54q19 57 43 57zM697 465l-51 -79l-80 55l52 77zM840 489l-51 -79l-80 55l52 77zM275 207q11 0 126 -77q69 -21 99 -21h71q30 -14 30 -55q0 -38 -30 -54h-61 q-47 2 -74 10q-31 0 -41 -93q-10 -55 -33 -55q-112 27 -112 112q-9 79 -27 79q-126 -10 -140 -46q-14 -28 -13 -66l52 -426q-8 -65 -33 -66h-6q-12 0 -30 183q-44 299 -43 345q0 92 104 161q153 39 152 66l3 3h6z" />
<glyph unicode="&#xfc0f;" horiz-adv-x="1035" arabic-form="isolated" d="M925 328q47 0 99 -164q-3 -96 -78 -125q-70 -36 -159 -39h-51v109q116 0 158.5 7t49.5 40q-2 24 -32 61t-30 54q19 57 43 57zM871 465l-51 -79l-80 55l52 77zM1014 489l-51 -79l-80 55l52 77zM710 109h19q27 -21 27 -53q0 -39 -27 -56h-28q-46 0 -76.5 -3.5t-68 -21.5 t-49.5 -32q10 -14 142 -49q27 -21 28 -62q0 -139 -323 -222q-38 -8 -74 -8q-168 0 -246 134q-24 55 -24 103q0 88 95 214l22 8q11 -10 11 -22h3q0 -8 -58 -109q-14 -36 -13 -55q0 -83 153 -153l24 -3h63q142 0 249 74v8q0 12 -98 31q-65 26 -66 70q0 61 88 126q74 51 108 66 t119 15z" />
<glyph unicode="&#xfc10;" horiz-adv-x="1035" arabic-form="isolated" d="M925 328q47 0 99 -164q-3 -96 -78 -125q-70 -36 -159 -39h-51v109q116 0 158.5 7t49.5 40q-2 24 -32 61t-30 54q19 57 43 57zM871 465l-51 -79l-80 55l52 77zM1014 489l-51 -79l-80 55l52 77zM710 109h19q27 -21 27 -53q0 -39 -27 -56h-28q-46 0 -76.5 -3.5t-68 -21.5 t-49.5 -32q10 -14 142 -49q27 -21 28 -62q0 -139 -323 -222q-38 -8 -74 -8q-168 0 -246 134q-24 55 -24 103q0 88 95 214l22 8q11 -10 11 -22h3q0 -8 -58 -109q-14 -36 -13 -55q0 -83 153 -153l24 -3h63q142 0 249 74v8q0 12 -98 31q-65 26 -66 70q0 61 88 126q74 51 108 66 t119 15zM369 -540l-51 -79l-80 55l52 77zM512 -516l-51 -79l-80 55l52 77z" />
<glyph unicode="&#xfc11;" horiz-adv-x="948" arabic-form="isolated" d="M838 328q47 0 99 -164q-3 -96 -78 -125q-70 -36 -159 -39h-51v109q116 0 158.5 7t49.5 40q-2 24 -32 61t-30 54q19 57 43 57zM780 441l-51 -79l-80 55l52 77zM936 463l-51 -79l-80 55l52 77zM837 600l-52 -79l-80 55l52 77zM218 322h352l8 -8v-22q0 -37 -57 -74 q-55 -10 -55 -35q46 -75 173 -75h55q24 -15 24 -53q0 -41 -24 -55h-86q-138 0 -180 68q-8 14 -8 35v85l-6 5h-8q-105 -14 -194 -79q-131 -115 -131 -279q25 -126 76 -172q93 -84 312 -84q174 0 347 38h14q24 -4 24 -28v-3q0 -21 -142 -51q-184 -60 -314 -60q-282 0 -366 191 q-22 74 -22 126q0 210 172 399q16 11 16 21l-16 6h-14q-42 0 -107 -49h-16l-8 8v19q0 42 106 118q34 8 75 8zM404 -17q-33 -60 -69 -69q-31 5 -68 69l68 68z" />
<glyph unicode="&#xfc12;" horiz-adv-x="861" arabic-form="isolated" d="M751 328q47 0 99 -164q-3 -96 -78 -125q-70 -36 -159 -39h-51v109q116 0 158.5 7t49.5 40q-2 24 -32 61t-30 54q19 57 43 57zM693 441l-51 -79l-80 55l52 77zM849 463l-51 -79l-80 55l52 77zM750 600l-52 -79l-80 55l52 77zM275 207q11 0 126 -77q69 -21 99 -21h71 q30 -14 30 -55q0 -38 -30 -54h-61q-47 2 -74 10q-31 0 -41 -93q-10 -55 -33 -55q-112 27 -112 112q-9 79 -27 79q-126 -10 -140 -46q-14 -28 -13 -66l52 -426q-8 -65 -33 -66h-6q-12 0 -30 183q-44 299 -43 345q0 92 104 161q153 39 152 66l3 3h6z" />
<glyph unicode="&#xfc13;" horiz-adv-x="1035" arabic-form="isolated" d="M925 328q47 0 99 -164q-3 -96 -78 -125q-70 -36 -159 -39h-51v109q116 0 158.5 7t49.5 40q-2 24 -32 61t-30 54q19 57 43 57zM867 441l-51 -79l-80 55l52 77zM1023 463l-51 -79l-80 55l52 77zM924 600l-52 -79l-80 55l52 77zM710 109h19q27 -21 27 -53q0 -39 -27 -56h-28 q-46 0 -76.5 -3.5t-68 -21.5t-49.5 -32q10 -14 142 -49q27 -21 28 -62q0 -139 -323 -222q-38 -8 -74 -8q-168 0 -246 134q-24 55 -24 103q0 88 95 214l22 8q11 -10 11 -22h3q0 -8 -58 -109q-14 -36 -13 -55q0 -83 153 -153l24 -3h63q142 0 249 74v8q0 12 -98 31 q-65 26 -66 70q0 61 88 126q74 51 108 66t119 15z" />
<glyph unicode="&#xfc14;" horiz-adv-x="1035" arabic-form="isolated" d="M925 328q47 0 99 -164q-3 -96 -78 -125q-70 -36 -159 -39h-51v109q116 0 158.5 7t49.5 40q-2 24 -32 61t-30 54q19 57 43 57zM867 441l-51 -79l-80 55l52 77zM1023 463l-51 -79l-80 55l52 77zM924 600l-52 -79l-80 55l52 77zM710 109h19q27 -21 27 -53q0 -39 -27 -56h-28 q-46 0 -76.5 -3.5t-68 -21.5t-49.5 -32q10 -14 142 -49q27 -21 28 -62q0 -139 -323 -222q-38 -8 -74 -8q-168 0 -246 134q-24 55 -24 103q0 88 95 214l22 8q11 -10 11 -22h3q0 -8 -58 -109q-14 -36 -13 -55q0 -83 153 -153l24 -3h63q142 0 249 74v8q0 12 -98 31 q-65 26 -66 70q0 61 88 126q74 51 108 66t119 15zM369 -540l-51 -79l-80 55l52 77zM512 -516l-51 -79l-80 55l52 77z" />
<glyph unicode="&#xfc15;" horiz-adv-x="1238" arabic-form="isolated" d="M833 332q35 0 208 -96q73 -33 199 -32h28l10 3q15 0 17 -36q0 -61 -82 -68h-38l-107 5q-55 0 -293 -87q-58 -21 -90 -21h-36v109h36l14 2q66 0 197 55v2q-28 49 -82 49l-102 -43h-8q-21 0 -24 30q0 66 126 126zM1013 -112q-33 -60 -69 -69q-31 5 -68 69l68 68zM218 322 h352l8 -8v-22q0 -37 -57 -74q-55 -10 -55 -35q46 -75 173 -75h55q24 -15 24 -53q0 -41 -24 -55h-86q-138 0 -180 68q-8 14 -8 35v85l-6 5h-8q-105 -14 -194 -79q-131 -115 -131 -279q25 -126 76 -172q93 -84 312 -84q174 0 347 38h14q24 -4 24 -28v-3q0 -21 -142 -51 q-184 -60 -314 -60q-282 0 -366 191q-22 74 -22 126q0 210 172 399q16 11 16 21l-16 6h-14q-42 0 -107 -49h-16l-8 8v19q0 42 106 118q34 8 75 8z" />
<glyph unicode="&#xfc16;" horiz-adv-x="1151" arabic-form="isolated" d="M746 332q35 0 208 -96q73 -33 199 -32h28l10 3q15 0 17 -36q0 -61 -82 -68h-38l-107 5q-55 0 -293 -87q-58 -21 -90 -21h-36v109h36l14 2q66 0 197 55v2q-28 49 -82 49l-102 -43h-8q-21 0 -24 30q0 66 126 126zM926 -112q-33 -60 -69 -69q-31 5 -68 69l68 68zM275 207 q11 0 126 -77q69 -21 99 -21h71q30 -14 30 -55q0 -38 -30 -54h-61q-47 2 -74 10q-31 0 -41 -93q-10 -55 -33 -55q-112 27 -112 112q-9 79 -27 79q-126 -10 -140 -46q-14 -28 -13 -66l52 -426q-8 -65 -33 -66h-6q-12 0 -30 183q-44 299 -43 345q0 92 104 161q153 39 152 66 l3 3h6z" />
<glyph unicode="&#xfc17;" horiz-adv-x="1238" arabic-form="isolated" d="M833 332q35 0 208 -96q73 -33 199 -32h28l10 3q15 0 17 -36q0 -61 -82 -68h-38l-107 5q-55 0 -293 -87q-58 -21 -90 -21h-36v109h36l14 2q66 0 197 55v2q-28 49 -82 49l-102 -43h-8q-21 0 -24 30q0 66 126 126zM218 322h352l8 -8v-22q0 -37 -57 -74q-55 -10 -55 -35 q46 -75 173 -75h55q24 -15 24 -53q0 -41 -24 -55h-86q-138 0 -180 68q-8 14 -8 35v85l-6 5h-8q-105 -14 -194 -79q-131 -115 -131 -279q25 -126 76 -172q93 -84 312 -84q174 0 347 38h14q24 -4 24 -28v-3q0 -21 -142 -51q-184 -60 -314 -60q-282 0 -366 191q-22 74 -22 126 q0 210 172 399q16 11 16 21l-16 6h-14q-42 0 -107 -49h-16l-8 8v19q0 42 106 118q34 8 75 8zM404 -17q-33 -60 -69 -69q-31 5 -68 69l68 68z" />
<glyph unicode="&#xfc18;" horiz-adv-x="1151" arabic-form="isolated" d="M746 332q35 0 208 -96q73 -33 199 -32h28l10 3q15 0 17 -36q0 -61 -82 -68h-38l-107 5q-55 0 -293 -87q-58 -21 -90 -21h-36v109h36l14 2q66 0 197 55v2q-28 49 -82 49l-102 -43h-8q-21 0 -24 30q0 66 126 126zM275 207q11 0 126 -77q69 -21 99 -21h71q30 -14 30 -55 q0 -38 -30 -54h-61q-47 2 -74 10q-31 0 -41 -93q-10 -55 -33 -55q-112 27 -112 112q-9 79 -27 79q-126 -10 -140 -46q-14 -28 -13 -66l52 -426q-8 -65 -33 -66h-6q-12 0 -30 183q-44 299 -43 345q0 92 104 161q153 39 152 66l3 3h6z" />
<glyph unicode="&#xfc19;" horiz-adv-x="1238" arabic-form="isolated" d="M833 332q35 0 208 -96q73 -33 199 -32h28l10 3q15 0 17 -36q0 -61 -82 -68h-38l-107 5q-55 0 -293 -87q-58 -21 -90 -21h-36v109h36l14 2q66 0 197 55v2q-28 49 -82 49l-102 -43h-8q-21 0 -24 30q0 66 126 126zM877 507q-33 -60 -69 -69q-31 5 -68 69l68 68zM218 322h352 l8 -8v-22q0 -37 -57 -74q-55 -10 -55 -35q46 -75 173 -75h55q24 -15 24 -53q0 -41 -24 -55h-86q-138 0 -180 68q-8 14 -8 35v85l-6 5h-8q-105 -14 -194 -79q-131 -115 -131 -279q25 -126 76 -172q93 -84 312 -84q174 0 347 38h14q24 -4 24 -28v-3q0 -21 -142 -51 q-184 -60 -314 -60q-282 0 -366 191q-22 74 -22 126q0 210 172 399q16 11 16 21l-16 6h-14q-42 0 -107 -49h-16l-8 8v19q0 42 106 118q34 8 75 8zM404 -17q-33 -60 -69 -69q-31 5 -68 69l68 68z" />
<glyph unicode="&#xfc1a;" horiz-adv-x="1238" arabic-form="isolated" d="M833 332q35 0 208 -96q73 -33 199 -32h28l10 3q15 0 17 -36q0 -61 -82 -68h-38l-107 5q-55 0 -293 -87q-58 -21 -90 -21h-36v109h36l14 2q66 0 197 55v2q-28 49 -82 49l-102 -43h-8q-21 0 -24 30q0 66 126 126zM877 507q-33 -60 -69 -69q-31 5 -68 69l68 68zM218 322h352 l8 -8v-22q0 -37 -57 -74q-55 -10 -55 -35q46 -75 173 -75h55q24 -15 24 -53q0 -41 -24 -55h-86q-138 0 -180 68q-8 14 -8 35v85l-6 5h-8q-105 -14 -194 -79q-131 -115 -131 -279q25 -126 76 -172q93 -84 312 -84q174 0 347 38h14q24 -4 24 -28v-3q0 -21 -142 -51 q-184 -60 -314 -60q-282 0 -366 191q-22 74 -22 126q0 210 172 399q16 11 16 21l-16 6h-14q-42 0 -107 -49h-16l-8 8v19q0 42 106 118q34 8 75 8z" />
<glyph unicode="&#xfc1b;" horiz-adv-x="1151" arabic-form="isolated" d="M746 332q35 0 208 -96q73 -33 199 -32h28l10 3q15 0 17 -36q0 -61 -82 -68h-38l-107 5q-55 0 -293 -87q-58 -21 -90 -21h-36v109h36l14 2q66 0 197 55v2q-28 49 -82 49l-102 -43h-8q-21 0 -24 30q0 66 126 126zM790 507q-33 -60 -69 -69q-31 5 -68 69l68 68zM275 207 q11 0 126 -77q69 -21 99 -21h71q30 -14 30 -55q0 -38 -30 -54h-61q-47 2 -74 10q-31 0 -41 -93q-10 -55 -33 -55q-112 27 -112 112q-9 79 -27 79q-126 -10 -140 -46q-14 -28 -13 -66l52 -426q-8 -65 -33 -66h-6q-12 0 -30 183q-44 299 -43 345q0 92 104 161q153 39 152 66 l3 3h6z" />
<glyph unicode="&#xfc1c;" horiz-adv-x="1433" arabic-form="isolated" d="M1202 304q35 -10 44 -116v-5q0 -114 -38.5 -124t-49.5 -11h-1q-15 0 -108 23q-8 0 -34 -19t-49 -24.5t-43 -6.5h-7q-25 0 -100 6q-46 -27 -167 -27v109q91 0 127 14t43 33q34 58 41 60h3q17 0 22 -76l11 -9h38l30 -3q47 0 80 96l27 44h2q25 0 25 -30v-50q0 -33 60 -32 q19 7 19 27l-8 60q10 61 33 61zM218 322h352l8 -8v-22q0 -37 -57 -74q-55 -10 -55 -35q46 -75 173 -75h55q24 -15 24 -53q0 -41 -24 -55h-86q-138 0 -180 68q-8 14 -8 35v85l-6 5h-8q-105 -14 -194 -79q-131 -115 -131 -279q25 -126 76 -172q93 -84 312 -84q174 0 347 38h14 q24 -4 24 -28v-3q0 -21 -142 -51q-184 -60 -314 -60q-282 0 -366 191q-22 74 -22 126q0 210 172 399q16 11 16 21l-16 6h-14q-42 0 -107 -49h-16l-8 8v19q0 42 106 118q34 8 75 8zM404 -17q-33 -60 -69 -69q-31 5 -68 69l68 68z" />
<glyph unicode="&#xfc1d;" horiz-adv-x="1433" arabic-form="isolated" d="M1202 304q35 -10 44 -116v-5q0 -114 -38.5 -124t-49.5 -11h-1q-15 0 -108 23q-8 0 -34 -19t-49 -24.5t-43 -6.5h-7q-25 0 -100 6q-46 -27 -167 -27v109q91 0 127 14t43 33q34 58 41 60h3q17 0 22 -76l11 -9h38l30 -3q47 0 80 96l27 44h2q25 0 25 -30v-50q0 -33 60 -32 q19 7 19 27l-8 60q10 61 33 61zM218 322h352l8 -8v-22q0 -37 -57 -74q-55 -10 -55 -35q46 -75 173 -75h55q24 -15 24 -53q0 -41 -24 -55h-86q-138 0 -180 68q-8 14 -8 35v85l-6 5h-8q-105 -14 -194 -79q-131 -115 -131 -279q25 -126 76 -172q93 -84 312 -84q174 0 347 38h14 q24 -4 24 -28v-3q0 -21 -142 -51q-184 -60 -314 -60q-282 0 -366 191q-22 74 -22 126q0 210 172 399q16 11 16 21l-16 6h-14q-42 0 -107 -49h-16l-8 8v19q0 42 106 118q34 8 75 8z" />
<glyph unicode="&#xfc1e;" horiz-adv-x="1433" arabic-form="isolated" d="M1202 304q35 -10 44 -116v-5q0 -114 -38.5 -124t-49.5 -11h-1q-15 0 -108 23q-8 0 -34 -19t-49 -24.5t-43 -6.5h-7q-25 0 -100 6q-46 -27 -167 -27v109q91 0 127 14t43 33q34 58 41 60h3q17 0 22 -76l11 -9h38l30 -3q47 0 80 96l27 44h2q25 0 25 -30v-50q0 -33 60 -32 q19 7 19 27l-8 60q10 61 33 61zM218 322h352l8 -8v-22q0 -37 -57 -74q-55 -10 -55 -35q46 -75 173 -75h55q24 -15 24 -53q0 -41 -24 -55h-86q-138 0 -180 68q-8 14 -8 35v85l-6 5h-8q-105 -14 -194 -79q-131 -115 -131 -279q25 -126 76 -172q93 -84 312 -84q174 0 347 38h14 q24 -4 24 -28v-3q0 -21 -142 -51q-184 -60 -314 -60q-282 0 -366 191q-22 74 -22 126q0 210 172 399q16 11 16 21l-16 6h-14q-42 0 -107 -49h-16l-8 8v19q0 42 106 118q34 8 75 8zM319 529q-33 -60 -69 -69q-31 5 -68 69l68 68z" />
<glyph unicode="&#xfc1f;" horiz-adv-x="1346" arabic-form="isolated" d="M1115 304q35 -10 44 -116v-5q0 -114 -38.5 -124t-49.5 -11h-1q-15 0 -108 23q-8 0 -34 -19t-49 -24.5t-43 -6.5h-7q-25 0 -100 6q-46 -27 -167 -27v109q91 0 127 14t43 33q34 58 41 60h3q17 0 22 -76l11 -9h38l30 -3q47 0 80 96l27 44h2q25 0 25 -30v-50q0 -33 60 -32 q19 7 19 27l-8 60q10 61 33 61zM275 207q11 0 126 -77q69 -21 99 -21h71q30 -14 30 -55q0 -38 -30 -54h-61q-47 2 -74 10q-31 0 -41 -93q-10 -55 -33 -55q-112 27 -112 112q-9 79 -27 79q-126 -10 -140 -46q-14 -28 -13 -66l52 -426q-8 -65 -33 -66h-6q-12 0 -30 183 q-44 299 -43 345q0 92 104 161q153 39 152 66l3 3h6z" />
<glyph unicode="&#xfc20;" horiz-adv-x="1552" arabic-form="isolated" d="M1259 325q142 -32 142 -103q0 -141 -254 -195l-192 -24q-12 -10 -33 -85q-12 -14 -16 -14q-9 0 -19 20l8 71v8q0 17 -63 46q-38 24 -52 25q-70 -74 -102 -74h-29v109h10q57 0 127 66l19 3q15 0 87 -52l25 -6h30q25 0 222 159q53 39 90 46zM1084 131v-8l19 -3h22 q189 32 189 71q-25 27 -66 28h-28q-44 -1 -136 -88zM218 322h352l8 -8v-22q0 -37 -57 -74q-55 -10 -55 -35q46 -75 173 -75h55q24 -15 24 -53q0 -41 -24 -55h-86q-138 0 -180 68q-8 14 -8 35v85l-6 5h-8q-105 -14 -194 -79q-131 -115 -131 -279q25 -126 76 -172 q93 -84 312 -84q174 0 347 38h14q24 -4 24 -28v-3q0 -21 -142 -51q-184 -60 -314 -60q-282 0 -366 191q-22 74 -22 126q0 210 172 399q16 11 16 21l-16 6h-14q-42 0 -107 -49h-16l-8 8v19q0 42 106 118q34 8 75 8z" />
<glyph unicode="&#xfc21;" horiz-adv-x="1465" arabic-form="isolated" d="M1172 325q142 -32 142 -103q0 -141 -254 -195l-192 -24q-12 -10 -33 -85q-12 -14 -16 -14q-9 0 -19 20l8 71v8q0 17 -63 46q-38 24 -52 25q-70 -74 -102 -74h-29v109h10q57 0 127 66l19 3q15 0 87 -52l25 -6h30q25 0 222 159q53 39 90 46zM997 131v-8l19 -3h22 q189 32 189 71q-25 27 -66 28h-28q-44 -1 -136 -88zM275 207q11 0 126 -77q69 -21 99 -21h71q30 -14 30 -55q0 -38 -30 -54h-61q-47 2 -74 10q-31 0 -41 -93q-10 -55 -33 -55q-112 27 -112 112q-9 79 -27 79q-126 -10 -140 -46q-14 -28 -13 -66l52 -426q-8 -65 -33 -66h-6 q-12 0 -30 183q-44 299 -43 345q0 92 104 161q153 39 152 66l3 3h6z" />
<glyph unicode="&#xfc22;" horiz-adv-x="1552" arabic-form="isolated" d="M1259 325q142 -32 142 -103q0 -141 -254 -195l-192 -24q-12 -10 -33 -85q-12 -14 -16 -14q-9 0 -19 20l8 71v8q0 17 -63 46q-38 24 -52 25q-70 -74 -102 -74h-29v109h10q57 0 127 66l19 3q15 0 87 -52l25 -6h30q25 0 222 159q53 39 90 46zM1084 131v-8l19 -3h22 q189 32 189 71q-25 27 -66 28h-28q-44 -1 -136 -88zM1086 449q-33 -60 -69 -69q-31 5 -68 69l68 68zM218 322h352l8 -8v-22q0 -37 -57 -74q-55 -10 -55 -35q46 -75 173 -75h55q24 -15 24 -53q0 -41 -24 -55h-86q-138 0 -180 68q-8 14 -8 35v85l-6 5h-8q-105 -14 -194 -79 q-131 -115 -131 -279q25 -126 76 -172q93 -84 312 -84q174 0 347 38h14q24 -4 24 -28v-3q0 -21 -142 -51q-184 -60 -314 -60q-282 0 -366 191q-22 74 -22 126q0 210 172 399q16 11 16 21l-16 6h-14q-42 0 -107 -49h-16l-8 8v19q0 42 106 118q34 8 75 8zM404 -17 q-33 -60 -69 -69q-31 5 -68 69l68 68z" />
<glyph unicode="&#xfc23;" horiz-adv-x="1552" arabic-form="isolated" d="M1259 325q142 -32 142 -103q0 -141 -254 -195l-192 -24q-12 -10 -33 -85q-12 -14 -16 -14q-9 0 -19 20l8 71v8q0 17 -63 46q-38 24 -52 25q-70 -74 -102 -74h-29v109h10q57 0 127 66l19 3q15 0 87 -52l25 -6h30q25 0 222 159q53 39 90 46zM1084 131v-8l19 -3h22 q189 32 189 71q-25 27 -66 28h-28q-44 -1 -136 -88zM1086 449q-33 -60 -69 -69q-31 5 -68 69l68 68zM218 322h352l8 -8v-22q0 -37 -57 -74q-55 -10 -55 -35q46 -75 173 -75h55q24 -15 24 -53q0 -41 -24 -55h-86q-138 0 -180 68q-8 14 -8 35v85l-6 5h-8q-105 -14 -194 -79 q-131 -115 -131 -279q25 -126 76 -172q93 -84 312 -84q174 0 347 38h14q24 -4 24 -28v-3q0 -21 -142 -51q-184 -60 -314 -60q-282 0 -366 191q-22 74 -22 126q0 210 172 399q16 11 16 21l-16 6h-14q-42 0 -107 -49h-16l-8 8v19q0 42 106 118q34 8 75 8z" />
<glyph unicode="&#xfc24;" horiz-adv-x="1552" arabic-form="isolated" d="M1259 325q142 -32 142 -103q0 -141 -254 -195l-192 -24q-12 -10 -33 -85q-12 -14 -16 -14q-9 0 -19 20l8 71v8q0 17 -63 46q-38 24 -52 25q-70 -74 -102 -74h-29v109h10q57 0 127 66l19 3q15 0 87 -52l25 -6h30q25 0 222 159q53 39 90 46zM1084 131v-8l19 -3h22 q189 32 189 71q-25 27 -66 28h-28q-44 -1 -136 -88zM1086 449q-33 -60 -69 -69q-31 5 -68 69l68 68zM218 322h352l8 -8v-22q0 -37 -57 -74q-55 -10 -55 -35q46 -75 173 -75h55q24 -15 24 -53q0 -41 -24 -55h-86q-138 0 -180 68q-8 14 -8 35v85l-6 5h-8q-105 -14 -194 -79 q-131 -115 -131 -279q25 -126 76 -172q93 -84 312 -84q174 0 347 38h14q24 -4 24 -28v-3q0 -21 -142 -51q-184 -60 -314 -60q-282 0 -366 191q-22 74 -22 126q0 210 172 399q16 11 16 21l-16 6h-14q-42 0 -107 -49h-16l-8 8v19q0 42 106 118q34 8 75 8zM319 529 q-33 -60 -69 -69q-31 5 -68 69l68 68z" />
<glyph unicode="&#xfc25;" horiz-adv-x="1465" arabic-form="isolated" d="M1172 325q142 -32 142 -103q0 -141 -254 -195l-192 -24q-12 -10 -33 -85q-12 -14 -16 -14q-9 0 -19 20l8 71v8q0 17 -63 46q-38 24 -52 25q-70 -74 -102 -74h-29v109h10q57 0 127 66l19 3q15 0 87 -52l25 -6h30q25 0 222 159q53 39 90 46zM997 131v-8l19 -3h22 q189 32 189 71q-25 27 -66 28h-28q-44 -1 -136 -88zM999 449q-33 -60 -69 -69q-31 5 -68 69l68 68zM275 207q11 0 126 -77q69 -21 99 -21h71q30 -14 30 -55q0 -38 -30 -54h-61q-47 2 -74 10q-31 0 -41 -93q-10 -55 -33 -55q-112 27 -112 112q-9 79 -27 79q-126 -10 -140 -46 q-14 -28 -13 -66l52 -426q-8 -65 -33 -66h-6q-12 0 -30 183q-44 299 -43 345q0 92 104 161q153 39 152 66l3 3h6z" />
<glyph unicode="&#xfc26;" horiz-adv-x="1326" arabic-form="isolated" d="M790 782h16q13 0 58 -115q-14 -55 -14 -73q0 -42 31 -329l9 -8q93 65 114 74l36 5q145 -28 145 -87q0 -88 -57 -156q-185 -93 -405 -93h-74v109q36 0 52 -3h13q42 0 102 85l8 22q-5 41 -75 454q0 65 41 115zM851 128q6 -11 17 -10q65 0 199 54q26 19 28 25q-53 33 -91 32 h-5q-28 0 -148 -101zM218 322h352l8 -8v-22q0 -37 -57 -74q-55 -10 -55 -35q46 -75 173 -75h55q24 -15 24 -53q0 -41 -24 -55h-86q-138 0 -180 68q-8 14 -8 35v85l-6 5h-8q-105 -14 -194 -79q-131 -115 -131 -279q25 -126 76 -172q93 -84 312 -84q174 0 347 38h14 q24 -4 24 -28v-3q0 -21 -142 -51q-184 -60 -314 -60q-282 0 -366 191q-22 74 -22 126q0 210 172 399q16 11 16 21l-16 6h-14q-42 0 -107 -49h-16l-8 8v19q0 42 106 118q34 8 75 8z" />
<glyph unicode="&#xfc27;" horiz-adv-x="1239" arabic-form="isolated" d="M703 782h16q13 0 58 -115q-14 -55 -14 -73q0 -42 31 -329l9 -8q93 65 114 74l36 5q145 -28 145 -87q0 -88 -57 -156q-185 -93 -405 -93h-74v109q36 0 52 -3h13q42 0 102 85l8 22q-5 41 -75 454q0 65 41 115zM764 128q6 -11 17 -10q65 0 199 54q26 19 28 25q-53 33 -91 32 h-5q-28 0 -148 -101zM275 207q11 0 126 -77q69 -21 99 -21h71q30 -14 30 -55q0 -38 -30 -54h-61q-47 2 -74 10q-31 0 -41 -93q-10 -55 -33 -55q-112 27 -112 112q-9 79 -27 79q-126 -10 -140 -46q-14 -28 -13 -66l52 -426q-8 -65 -33 -66h-6q-12 0 -30 183q-44 299 -43 345 q0 92 104 161q153 39 152 66l3 3h6z" />
<glyph unicode="&#xfc28;" horiz-adv-x="1239" arabic-form="isolated" d="M703 782h16q13 0 58 -115q-14 -55 -14 -73q0 -42 31 -329l9 -8q93 65 114 74l36 5q145 -28 145 -87q0 -88 -57 -156q-185 -93 -405 -93h-74v109q36 0 52 -3h13q42 0 102 85l8 22q-5 41 -75 454q0 65 41 115zM764 128q6 -11 17 -10q65 0 199 54q26 19 28 25q-53 33 -91 32 h-5q-28 0 -148 -101zM954 544q-33 -60 -69 -69q-31 5 -68 69l68 68zM275 207q11 0 126 -77q69 -21 99 -21h71q30 -14 30 -55q0 -38 -30 -54h-61q-47 2 -74 10q-31 0 -41 -93q-10 -55 -33 -55q-112 27 -112 112q-9 79 -27 79q-126 -10 -140 -46q-14 -28 -13 -66l52 -426 q-8 -65 -33 -66h-6q-12 0 -30 183q-44 299 -43 345q0 92 104 161q153 39 152 66l3 3h6z" />
<glyph unicode="&#xfc29;" horiz-adv-x="1152" arabic-form="isolated" d="M974 394q59 0 140 -88v-8q0 -24 -19 -25l-96 36q-134 -36 -134 -74v-6q0 -50 93 -92h30q39 0 224 73q13 -5 14 -10q-20 -71 -55 -94q-258 -106 -457 -106h-65v109q98 0 128 -4q5 -1 10 -1q21 0 21 16q-22 40 -22 63q0 65 120 183q33 28 68 28zM218 322h352l8 -8v-22 q0 -37 -57 -74q-55 -10 -55 -35q46 -75 173 -75h55q24 -15 24 -53q0 -41 -24 -55h-86q-138 0 -180 68q-8 14 -8 35v85l-6 5h-8q-105 -14 -194 -79q-131 -115 -131 -279q25 -126 76 -172q93 -84 312 -84q174 0 347 38h14q24 -4 24 -28v-3q0 -21 -142 -51q-184 -60 -314 -60 q-282 0 -366 191q-22 74 -22 126q0 210 172 399q16 11 16 21l-16 6h-14q-42 0 -107 -49h-16l-8 8v19q0 42 106 118q34 8 75 8zM404 -17q-33 -60 -69 -69q-31 5 -68 69l68 68z" />
<glyph unicode="&#xfc2a;" horiz-adv-x="1065" arabic-form="isolated" d="M887 394q59 0 140 -88v-8q0 -24 -19 -25l-96 36q-134 -36 -134 -74v-6q0 -50 93 -92h30q39 0 224 73q13 -5 14 -10q-20 -71 -55 -94q-258 -106 -457 -106h-65v109q98 0 128 -4q5 -1 10 -1q21 0 21 16q-22 40 -22 63q0 65 120 183q33 28 68 28zM275 207q11 0 126 -77 q69 -21 99 -21h71q30 -14 30 -55q0 -38 -30 -54h-61q-47 2 -74 10q-31 0 -41 -93q-10 -55 -33 -55q-112 27 -112 112q-9 79 -27 79q-126 -10 -140 -46q-14 -28 -13 -66l52 -426q-8 -65 -33 -66h-6q-12 0 -30 183q-44 299 -43 345q0 92 104 161q153 39 152 66l3 3h6z" />
<glyph unicode="&#xfc2b;" horiz-adv-x="1152" arabic-form="isolated" d="M974 394q59 0 140 -88v-8q0 -24 -19 -25l-96 36q-134 -36 -134 -74v-6q0 -50 93 -92h30q39 0 224 73q13 -5 14 -10q-20 -71 -55 -94q-258 -106 -457 -106h-65v109q98 0 128 -4q5 -1 10 -1q21 0 21 16q-22 40 -22 63q0 65 120 183q33 28 68 28zM994 569q-33 -60 -69 -69 q-31 5 -68 69l68 68zM218 322h352l8 -8v-22q0 -37 -57 -74q-55 -10 -55 -35q46 -75 173 -75h55q24 -15 24 -53q0 -41 -24 -55h-86q-138 0 -180 68q-8 14 -8 35v85l-6 5h-8q-105 -14 -194 -79q-131 -115 -131 -279q25 -126 76 -172q93 -84 312 -84q174 0 347 38h14 q24 -4 24 -28v-3q0 -21 -142 -51q-184 -60 -314 -60q-282 0 -366 191q-22 74 -22 126q0 210 172 399q16 11 16 21l-16 6h-14q-42 0 -107 -49h-16l-8 8v19q0 42 106 118q34 8 75 8zM404 -17q-33 -60 -69 -69q-31 5 -68 69l68 68z" />
<glyph unicode="&#xfc2c;" horiz-adv-x="1065" arabic-form="isolated" d="M887 394q59 0 140 -88v-8q0 -24 -19 -25l-96 36q-134 -36 -134 -74v-6q0 -50 93 -92h30q39 0 224 73q13 -5 14 -10q-20 -71 -55 -94q-258 -106 -457 -106h-65v109q98 0 128 -4q5 -1 10 -1q21 0 21 16q-22 40 -22 63q0 65 120 183q33 28 68 28zM907 569q-33 -60 -69 -69 q-31 5 -68 69l68 68zM275 207q11 0 126 -77q69 -21 99 -21h71q30 -14 30 -55q0 -38 -30 -54h-61q-47 2 -74 10q-31 0 -41 -93q-10 -55 -33 -55q-112 27 -112 112q-9 79 -27 79q-126 -10 -140 -46q-14 -28 -13 -66l52 -426q-8 -65 -33 -66h-6q-12 0 -30 183q-44 299 -43 345 q0 92 104 161q153 39 152 66l3 3h6z" />
<glyph unicode="&#xfc2d;" horiz-adv-x="1096" arabic-form="isolated" d="M786 435q61 0 118 -118q19 -56 27 -120q0 -137 -131 -183q-50 -14 -98 -14h-53v109h46q15 0 51.5 4.5t113.5 47.5l3 3v17l-11 10l-55 -30l-13 -2q-73 0 -104 82l-6 32v14q0 82 82 142zM753 304v-3q2 -17 9 -17h38v14q-6 27 -33 27q-14 -4 -14 -21zM831 611 q-33 -60 -69 -69q-31 5 -68 69l68 68zM218 322h352l8 -8v-22q0 -37 -57 -74q-55 -10 -55 -35q46 -75 173 -75h55q24 -15 24 -53q0 -41 -24 -55h-86q-138 0 -180 68q-8 14 -8 35v85l-6 5h-8q-105 -14 -194 -79q-131 -115 -131 -279q25 -126 76 -172q93 -84 312 -84 q174 0 347 38h14q24 -4 24 -28v-3q0 -21 -142 -51q-184 -60 -314 -60q-282 0 -366 191q-22 74 -22 126q0 210 172 399q16 11 16 21l-16 6h-14q-42 0 -107 -49h-16l-8 8v19q0 42 106 118q34 8 75 8zM404 -17q-33 -60 -69 -69q-31 5 -68 69l68 68z" />
<glyph unicode="&#xfc2e;" horiz-adv-x="1096" arabic-form="isolated" d="M786 435q61 0 118 -118q19 -56 27 -120q0 -137 -131 -183q-50 -14 -98 -14h-53v109h46q15 0 51.5 4.5t113.5 47.5l3 3v17l-11 10l-55 -30l-13 -2q-73 0 -104 82l-6 32v14q0 82 82 142zM753 304v-3q2 -17 9 -17h38v14q-6 27 -33 27q-14 -4 -14 -21zM831 611 q-33 -60 -69 -69q-31 5 -68 69l68 68zM218 322h352l8 -8v-22q0 -37 -57 -74q-55 -10 -55 -35q46 -75 173 -75h55q24 -15 24 -53q0 -41 -24 -55h-86q-138 0 -180 68q-8 14 -8 35v85l-6 5h-8q-105 -14 -194 -79q-131 -115 -131 -279q25 -126 76 -172q93 -84 312 -84 q174 0 347 38h14q24 -4 24 -28v-3q0 -21 -142 -51q-184 -60 -314 -60q-282 0 -366 191q-22 74 -22 126q0 210 172 399q16 11 16 21l-16 6h-14q-42 0 -107 -49h-16l-8 8v19q0 42 106 118q34 8 75 8z" />
<glyph unicode="&#xfc2f;" horiz-adv-x="1096" arabic-form="isolated" d="M786 435q61 0 118 -118q19 -56 27 -120q0 -137 -131 -183q-50 -14 -98 -14h-53v109h46q15 0 51.5 4.5t113.5 47.5l3 3v17l-11 10l-55 -30l-13 -2q-73 0 -104 82l-6 32v14q0 82 82 142zM753 304v-3q2 -17 9 -17h38v14q-6 27 -33 27q-14 -4 -14 -21zM831 611 q-33 -60 -69 -69q-31 5 -68 69l68 68zM218 322h352l8 -8v-22q0 -37 -57 -74q-55 -10 -55 -35q46 -75 173 -75h55q24 -15 24 -53q0 -41 -24 -55h-86q-138 0 -180 68q-8 14 -8 35v85l-6 5h-8q-105 -14 -194 -79q-131 -115 -131 -279q25 -126 76 -172q93 -84 312 -84 q174 0 347 38h14q24 -4 24 -28v-3q0 -21 -142 -51q-184 -60 -314 -60q-282 0 -366 191q-22 74 -22 126q0 210 172 399q16 11 16 21l-16 6h-14q-42 0 -107 -49h-16l-8 8v19q0 42 106 118q34 8 75 8zM319 529q-33 -60 -69 -69q-31 5 -68 69l68 68z" />
<glyph unicode="&#xfc30;" horiz-adv-x="1009" arabic-form="isolated" d="M699 435q61 0 118 -118q19 -56 27 -120q0 -137 -131 -183q-50 -14 -98 -14h-53v109h46q15 0 51.5 4.5t113.5 47.5l3 3v17l-11 10l-55 -30l-13 -2q-73 0 -104 82l-6 32v14q0 82 82 142zM666 304v-3q2 -17 9 -17h38v14q-6 27 -33 27q-14 -4 -14 -21zM744 611 q-33 -60 -69 -69q-31 5 -68 69l68 68zM275 207q11 0 126 -77q69 -21 99 -21h71q30 -14 30 -55q0 -38 -30 -54h-61q-47 2 -74 10q-31 0 -41 -93q-10 -55 -33 -55q-112 27 -112 112q-9 79 -27 79q-126 -10 -140 -46q-14 -28 -13 -66l52 -426q-8 -65 -33 -66h-6q-12 0 -30 183 q-44 299 -43 345q0 92 104 161q153 39 152 66l3 3h6z" />
<glyph unicode="&#xfc31;" horiz-adv-x="1183" arabic-form="isolated" d="M873 435q61 0 118 -118q19 -56 27 -120q0 -137 -131 -183q-50 -14 -98 -14h-53v109h46q15 0 51.5 4.5t113.5 47.5l3 3v17l-11 10l-55 -30l-13 -2q-73 0 -104 82l-6 32v14q0 82 82 142zM840 304v-3q2 -17 9 -17h38v14q-6 27 -33 27q-14 -4 -14 -21zM918 611 q-33 -60 -69 -69q-31 5 -68 69l68 68zM710 109h19q27 -21 27 -53q0 -39 -27 -56h-28q-46 0 -76.5 -3.5t-68 -21.5t-49.5 -32q10 -14 142 -49q27 -21 28 -62q0 -139 -323 -222q-38 -8 -74 -8q-168 0 -246 134q-24 55 -24 103q0 88 95 214l22 8q11 -10 11 -22h3q0 -8 -58 -109 q-14 -36 -13 -55q0 -83 153 -153l24 -3h63q142 0 249 74v8q0 12 -98 31q-65 26 -66 70q0 61 88 126q74 51 108 66t119 15z" />
<glyph unicode="&#xfc32;" horiz-adv-x="1183" arabic-form="isolated" d="M873 435q61 0 118 -118q19 -56 27 -120q0 -137 -131 -183q-50 -14 -98 -14h-53v109h46q15 0 51.5 4.5t113.5 47.5l3 3v17l-11 10l-55 -30l-13 -2q-73 0 -104 82l-6 32v14q0 82 82 142zM840 304v-3q2 -17 9 -17h38v14q-6 27 -33 27q-14 -4 -14 -21zM918 611 q-33 -60 -69 -69q-31 5 -68 69l68 68zM710 109h19q27 -21 27 -53q0 -39 -27 -56h-28q-46 0 -76.5 -3.5t-68 -21.5t-49.5 -32q10 -14 142 -49q27 -21 28 -62q0 -139 -323 -222q-38 -8 -74 -8q-168 0 -246 134q-24 55 -24 103q0 88 95 214l22 8q11 -10 11 -22h3q0 -8 -58 -109 q-14 -36 -13 -55q0 -83 153 -153l24 -3h63q142 0 249 74v8q0 12 -98 31q-65 26 -66 70q0 61 88 126q74 51 108 66t119 15zM369 -540l-51 -79l-80 55l52 77zM512 -516l-51 -79l-80 55l52 77z" />
<glyph unicode="&#xfc33;" horiz-adv-x="1096" arabic-form="isolated" d="M793 435q61 0 118 -118q19 -56 27 -120q0 -137 -131 -183q-50 -14 -98 -14h-60v109h61q7 0 43.5 4.5t113.5 47.5l3 3v17l-11 10l-55 -30l-13 -2q-73 0 -104 82l-6 32v14q0 82 82 142zM760 304v-3q2 -17 9 -17h38v14q-6 27 -33 27q-14 -4 -14 -21zM788 586l-51 -79l-80 55 l52 77zM931 610l-51 -79l-80 55l52 77zM218 322h352l8 -8v-22q0 -37 -57 -74q-55 -10 -55 -35q46 -75 173 -75h55q24 -15 24 -53q0 -41 -24 -55h-86q-138 0 -180 68q-8 14 -8 35v85l-6 5h-8q-105 -14 -194 -79q-131 -115 -131 -279q25 -126 76 -172q93 -84 312 -84 q174 0 347 38h14q24 -4 24 -28v-3q0 -21 -142 -51q-184 -60 -314 -60q-282 0 -366 191q-22 74 -22 126q0 210 172 399q16 11 16 21l-16 6h-14q-42 0 -107 -49h-16l-8 8v19q0 42 106 118q34 8 75 8z" />
<glyph unicode="&#xfc34;" horiz-adv-x="1009" arabic-form="isolated" d="M706 435q61 0 118 -118q19 -56 27 -120q0 -137 -131 -183q-50 -14 -98 -14h-60v109h61q7 0 43.5 4.5t113.5 47.5l3 3v17l-11 10l-55 -30l-13 -2q-73 0 -104 82l-6 32v14q0 82 82 142zM673 304v-3q2 -17 9 -17h38v14q-6 27 -33 27q-14 -4 -14 -21zM701 586l-51 -79l-80 55 l52 77zM844 610l-51 -79l-80 55l52 77zM275 207q11 0 126 -77q69 -21 99 -21h71q30 -14 30 -55q0 -38 -30 -54h-61q-47 2 -74 10q-31 0 -41 -93q-10 -55 -33 -55q-112 27 -112 112q-9 79 -27 79q-126 -10 -140 -46q-14 -28 -13 -66l52 -426q-8 -65 -33 -66h-6q-12 0 -30 183 q-44 299 -43 345q0 92 104 161q153 39 152 66l3 3h6z" />
<glyph unicode="&#xfc35;" horiz-adv-x="1183" arabic-form="isolated" d="M880 435q61 0 118 -118q19 -56 27 -120q0 -137 -131 -183q-50 -14 -98 -14h-60v109h61q7 0 43.5 4.5t113.5 47.5l3 3v17l-11 10l-55 -30l-13 -2q-73 0 -104 82l-6 32v14q0 82 82 142zM847 304v-3q2 -17 9 -17h38v14q-6 27 -33 27q-14 -4 -14 -21zM875 586l-51 -79l-80 55 l52 77zM1018 610l-51 -79l-80 55l52 77zM710 109h19q27 -21 27 -53q0 -39 -27 -56h-28q-46 0 -76.5 -3.5t-68 -21.5t-49.5 -32q10 -14 142 -49q27 -21 28 -62q0 -139 -323 -222q-38 -8 -74 -8q-168 0 -246 134q-24 55 -24 103q0 88 95 214l22 8q11 -10 11 -22h3 q0 -8 -58 -109q-14 -36 -13 -55q0 -83 153 -153l24 -3h63q142 0 249 74v8q0 12 -98 31q-65 26 -66 70q0 61 88 126q74 51 108 66t119 15z" />
<glyph unicode="&#xfc36;" horiz-adv-x="1183" arabic-form="isolated" d="M880 435q61 0 118 -118q19 -56 27 -120q0 -137 -131 -183q-50 -14 -98 -14h-60v109h61q7 0 43.5 4.5t113.5 47.5l3 3v17l-11 10l-55 -30l-13 -2q-73 0 -104 82l-6 32v14q0 82 82 142zM847 304v-3q2 -17 9 -17h38v14q-6 27 -33 27q-14 -4 -14 -21zM875 586l-51 -79l-80 55 l52 77zM1018 610l-51 -79l-80 55l52 77zM710 109h19q27 -21 27 -53q0 -39 -27 -56h-28q-46 0 -76.5 -3.5t-68 -21.5t-49.5 -32q10 -14 142 -49q27 -21 28 -62q0 -139 -323 -222q-38 -8 -74 -8q-168 0 -246 134q-24 55 -24 103q0 88 95 214l22 8q11 -10 11 -22h3 q0 -8 -58 -109q-14 -36 -13 -55q0 -83 153 -153l24 -3h63q142 0 249 74v8q0 12 -98 31q-65 26 -66 70q0 61 88 126q74 51 108 66t119 15zM369 -540l-51 -79l-80 55l52 77zM512 -516l-51 -79l-80 55l52 77z" />
<glyph unicode="&#xfc37;" horiz-adv-x="703" arabic-form="isolated" d="M872 856h5q17 0 17 -17q-21 -84 -52 -84q-235 -118 -367 -186q-63 -43 -87 -69q208 -213 208 -237q27 -56 27 -102v-35q0 -102 -151 -126h-181v109h168q102 0 101 36q0 65 -136 186q-109 33 -110 63q-4 0 -8 38q0 171 251 276q269 148 315 148zM94 622h8q25 -3 49 -215 q26 -279 76 -290q13 -6 42 -8h56q21 -13 22 -55q0 -41 -22 -54h-45q-114 0 -148 82q-26 58 -73 469q-1 40 35 71z" />
<glyph unicode="&#xfc38;" horiz-adv-x="1061" arabic-form="isolated" d="M1230 856h5q17 0 17 -17q-21 -84 -52 -84q-235 -118 -367 -186q-63 -43 -87 -69q208 -213 208 -237q27 -56 27 -102v-35q0 -102 -151 -126h-181v109h168q102 0 101 36q0 65 -136 186q-109 33 -110 63q-4 0 -8 38q0 171 251 276q269 148 315 148zM218 322h352l8 -8v-22 q0 -37 -57 -74q-55 -10 -55 -35q46 -75 173 -75h55q24 -15 24 -53q0 -41 -24 -55h-86q-138 0 -180 68q-8 14 -8 35v85l-6 5h-8q-105 -14 -194 -79q-131 -115 -131 -279q25 -126 76 -172q93 -84 312 -84q174 0 347 38h14q24 -4 24 -28v-3q0 -21 -142 -51q-184 -60 -314 -60 q-282 0 -366 191q-22 74 -22 126q0 210 172 399q16 11 16 21l-16 6h-14q-42 0 -107 -49h-16l-8 8v19q0 42 106 118q34 8 75 8zM404 -17q-33 -60 -69 -69q-31 5 -68 69l68 68z" />
<glyph unicode="&#xfc39;" horiz-adv-x="1061" arabic-form="isolated" d="M1230 856h5q17 0 17 -17q-21 -84 -52 -84q-235 -118 -367 -186q-63 -43 -87 -69q208 -213 208 -237q27 -56 27 -102v-35q0 -102 -151 -126h-181v109h168q102 0 101 36q0 65 -136 186q-109 33 -110 63q-4 0 -8 38q0 171 251 276q269 148 315 148zM218 322h352l8 -8v-22 q0 -37 -57 -74q-55 -10 -55 -35q46 -75 173 -75h55q24 -15 24 -53q0 -41 -24 -55h-86q-138 0 -180 68q-8 14 -8 35v85l-6 5h-8q-105 -14 -194 -79q-131 -115 -131 -279q25 -126 76 -172q93 -84 312 -84q174 0 347 38h14q24 -4 24 -28v-3q0 -21 -142 -51q-184 -60 -314 -60 q-282 0 -366 191q-22 74 -22 126q0 210 172 399q16 11 16 21l-16 6h-14q-42 0 -107 -49h-16l-8 8v19q0 42 106 118q34 8 75 8z" />
<glyph unicode="&#xfc3a;" horiz-adv-x="1061" arabic-form="isolated" d="M1230 856h5q17 0 17 -17q-21 -84 -52 -84q-235 -118 -367 -186q-63 -43 -87 -69q208 -213 208 -237q27 -56 27 -102v-35q0 -102 -151 -126h-181v109h168q102 0 101 36q0 65 -136 186q-109 33 -110 63q-4 0 -8 38q0 171 251 276q269 148 315 148zM218 322h352l8 -8v-22 q0 -37 -57 -74q-55 -10 -55 -35q46 -75 173 -75h55q24 -15 24 -53q0 -41 -24 -55h-86q-138 0 -180 68q-8 14 -8 35v85l-6 5h-8q-105 -14 -194 -79q-131 -115 -131 -279q25 -126 76 -172q93 -84 312 -84q174 0 347 38h14q24 -4 24 -28v-3q0 -21 -142 -51q-184 -60 -314 -60 q-282 0 -366 191q-22 74 -22 126q0 210 172 399q16 11 16 21l-16 6h-14q-42 0 -107 -49h-16l-8 8v19q0 42 106 118q34 8 75 8zM319 529q-33 -60 -69 -69q-31 5 -68 69l68 68z" />
<glyph unicode="&#xfc3b;" horiz-adv-x="1142" arabic-form="isolated" d="M1311 856h5q17 0 17 -17q-21 -84 -52 -84q-235 -118 -367 -186q-63 -43 -87 -69q208 -213 208 -237q27 -56 27 -102v-35q0 -102 -151 -126h-181v109h168q102 0 101 36q0 65 -136 186q-109 33 -110 63q-4 0 -8 38q0 171 251 276q269 148 315 148zM654 0h-29q-68 0 -129 62 l9 -76q0 -98 -91 -180q-94 -74 -202 -74q-132 0 -194 134l-8 52q13 108 65 185l14 11h13q8 0 12 -19l-31 -114v-27q0 -70 123 -107l33 -3h8q85 0 167 74q24 30 25 61l-91 682q16 82 41 82q28 0 34 -148q24 -204 50 -306q34 -152 79 -166q24 -14 102 -14q26 -19 26 -54 q0 -41 -26 -55z" />
<glyph unicode="&#xfc3c;" horiz-adv-x="974" arabic-form="isolated" d="M1143 856h5q17 0 17 -17q-21 -84 -52 -84q-235 -118 -367 -186q-63 -43 -87 -69q208 -213 208 -237q27 -56 27 -102v-35q0 -102 -151 -126h-181v109h168q102 0 101 36q0 65 -136 186q-109 33 -110 63q-4 0 -8 38q0 171 251 276q269 148 315 148zM275 207q11 0 126 -77 q69 -21 99 -21h71q30 -14 30 -55q0 -38 -30 -54h-61q-47 2 -74 10q-31 0 -41 -93q-10 -55 -33 -55q-112 27 -112 112q-9 79 -27 79q-126 -10 -140 -46q-14 -28 -13 -66l52 -426q-8 -65 -33 -66h-6q-12 0 -30 183q-44 299 -43 345q0 92 104 161q153 39 152 66l3 3h6z" />
<glyph unicode="&#xfc3d;" horiz-adv-x="1148" arabic-form="isolated" d="M1317 856h5q17 0 17 -17q-21 -84 -52 -84q-235 -118 -367 -186q-63 -43 -87 -69q208 -213 208 -237q27 -56 27 -102v-35q0 -102 -151 -126h-181v109h168q102 0 101 36q0 65 -136 186q-109 33 -110 63q-4 0 -8 38q0 171 251 276q269 148 315 148zM710 109h19 q27 -21 27 -53q0 -39 -27 -56h-28q-46 0 -76.5 -3.5t-68 -21.5t-49.5 -32q10 -14 142 -49q27 -21 28 -62q0 -139 -323 -222q-38 -8 -74 -8q-168 0 -246 134q-24 55 -24 103q0 88 95 214l22 8q11 -10 11 -22h3q0 -8 -58 -109q-14 -36 -13 -55q0 -83 153 -153l24 -3h63 q142 0 249 74v8q0 12 -98 31q-65 26 -66 70q0 61 88 126q74 51 108 66t119 15z" />
<glyph unicode="&#xfc3e;" horiz-adv-x="1148" arabic-form="isolated" d="M1317 856h5q17 0 17 -17q-21 -84 -52 -84q-235 -118 -367 -186q-63 -43 -87 -69q208 -213 208 -237q27 -56 27 -102v-35q0 -102 -151 -126h-181v109h168q102 0 101 36q0 65 -136 186q-109 33 -110 63q-4 0 -8 38q0 171 251 276q269 148 315 148zM710 109h19 q27 -21 27 -53q0 -39 -27 -56h-28q-46 0 -76.5 -3.5t-68 -21.5t-49.5 -32q10 -14 142 -49q27 -21 28 -62q0 -139 -323 -222q-38 -8 -74 -8q-168 0 -246 134q-24 55 -24 103q0 88 95 214l22 8q11 -10 11 -22h3q0 -8 -58 -109q-14 -36 -13 -55q0 -83 153 -153l24 -3h63 q142 0 249 74v8q0 12 -98 31q-65 26 -66 70q0 61 88 126q74 51 108 66t119 15zM369 -540l-51 -79l-80 55l52 77zM512 -516l-51 -79l-80 55l52 77z" />
<glyph unicode="&#xfc3f;" horiz-adv-x="909" arabic-form="isolated" d="M753 714h12q7 0 16 -66q0 -19 52 -41l3 -3v-24q0 -22 -30 -80v-11q0 -42 43 -301l5 -63q-7 -63 -41 -92.5t-70 -32.5h-94v109h89q47 7 47 54l-78 458v5q15 88 46 88zM218 322h352l8 -8v-22q0 -37 -57 -74q-55 -10 -55 -35q46 -75 173 -75h55q24 -15 24 -53q0 -41 -24 -55 h-86q-138 0 -180 68q-8 14 -8 35v85l-6 5h-8q-105 -14 -194 -79q-131 -115 -131 -279q25 -126 76 -172q93 -84 312 -84q174 0 347 38h14q24 -4 24 -28v-3q0 -21 -142 -51q-184 -60 -314 -60q-282 0 -366 191q-22 74 -22 126q0 210 172 399q16 11 16 21l-16 6h-14 q-42 0 -107 -49h-16l-8 8v19q0 42 106 118q34 8 75 8zM404 -17q-33 -60 -69 -69q-31 5 -68 69l68 68z" />
<glyph unicode="&#xfc40;" arabic-form="isolated" d="M114 1120l42 7q39 -3 57 -11.5t23 -26.5l-2 -16q0 -60 -123 -134l-41 -11l-33 8q0 25 91 77q8 6 8 11q0 4 -6 9q-14 9 -41 10q-9 0 -57 -38q-7 -5 -12 -5q-2 0 -4 1q-6 3 -6 12q0 62 85 101z" />
<glyph unicode="&#xfc41;" arabic-form="isolated" d="M284 1153q-7 -72 -34 -88l-240 -137q0 31 3.5 42.5t9.5 20t15 15.5t25 16z" />
<glyph unicode="&#xfc42;" arabic-form="isolated" d="M243 1289q33 -12 38 -63v-5q0 -35 -12 -80q36 -40 35 -52q0 -46 -27 -46h-2q-8 0 -41 24q-134 -125 -215 -139h-6l-8 8v6q0 17 77 70q101 83 101 91q-27 15 -41 44l-3 24q0 63 79 115zM219 1173q10 21 10 33q0 5 -2 9q-4 9 -10 8q-2 0 -5 -1q-10 -5 -12 -23q0 -3 -1 -6 q0 -20 20 -20z" />
<glyph unicode="&#xfc43;" arabic-form="isolated" d="M283 1153q-7 -72 -34 -88l-240 -137q0 31 3.5 42.5t9 20t15 15.5t25.5 16zM279 1277q-7 -72 -34 -89l-240 -136q0 31 3.5 42.5t9.5 20t15 15.5t25 15z" />
<glyph unicode="&#xfc44;" arabic-form="isolated" d="M250 1432q77 -8 77 -68q0 -34 -31 -58q-43 49 -70 49q-63 0 -126 -123l-9 -30l9 -54q0 -22 -22 -31q-33 17 -33 53q0 73 104 207q51 55 101 55zM240 1289q33 -12 38 -63v-5q0 -35 -12 -80q36 -40 35 -52q0 -46 -27 -46h-2q-8 0 -41 24q-134 -125 -215 -139h-6l-8 8v6 q0 17 77 70q101 83 101 91q-27 15 -41 44l-3 24q0 63 79 115zM216 1168q10 21 10 32q0 5 -2 9q-4 9 -10 9q-2 0 -5 -1q-10 -5 -12 -24q0 -3 -1 -5q0 -20 20 -20z" />
<glyph unicode="&#xfc45;" arabic-form="isolated" d="M276 1153q-7 -72 -34 -88l-240 -137q0 31 3.5 42.5t9.5 20t15 15.5t25 16zM338 1294q-7 -72 -34 -88l-240 -137q0 31 3.5 42.5t9.5 20t15.5 16t24.5 15.5z" />
<glyph unicode="&#xfc46;" arabic-form="isolated" d="M214.206 1255.81q29.7002 -10.7998 34.2002 -56.7012v-4.50098q0 -31.5 -10.7998 -71.1016q32.4014 -36.001 31.501 -47.7012q0 -41.4014 -24.3008 -41.4014h-1.7998q-7.2002 0 -36.9014 21.6006q-120.604 -112.503 -193.505 -125.104h-5.40039l-7.2002 8.10059v4.5 q0 15.3008 69.3018 63.9014q90.9023 74.7021 90.9023 81.0029q-24.3008 13.5 -36.9004 39.6006l-2.7002 21.6006q0 56.7021 71.1016 103.503zM192.605 1151.41q9 18.9014 9 29.7012q0 4.5 -1.7998 8.10059q-3.60059 8.09961 -9.00098 8.09961q-1.7998 0 -4.5 -1.7998 q-9 -4.5 -10.7998 -20.7002q0 -2.7002 -0.900391 -5.40039q0 -18.001 18.001 -18.001zM378.01 1227.91q29.7012 -10.8008 35.1016 -56.7021v-4.5q0 -31.501 -11.7002 -72.002q32.4004 -36.001 32.4004 -46.8008q0 -41.4014 -24.3008 -41.4014h-2.7002 q-7.19922 0 -36.9004 21.6006q-120.604 -112.503 -193.506 -125.104h-4.5l-7.2002 7.2002v5.40039q0 15.2998 68.4023 63.001q90.9023 74.7021 90.9023 81.9023q-24.3008 13.501 -36.9014 39.6016l-2.69922 21.6006q0 56.7012 72.002 103.503zM356.41 1123.51 q9 18.9004 9 29.7012q0 4.5 -0.900391 8.09961q-3.59961 8.10059 -9 7.2002q-1.7998 0 -5.40039 -0.899414q-9 -4.5 -10.7998 -20.7012v-5.39941q-0.900391 -18.001 17.1006 -18.001z" />
<glyph unicode="&#xfc47;" arabic-form="isolated" d="M369 1130q-7 -72 -34 -88l-240 -137q0 31 3.5 42.5t9.5 20t15 15.5t25 16zM111.098 1405.67q19.7998 0 79.1982 -65.998q18.6992 -16.5 17.5996 -32.999q-12.0996 -45.0996 -30.7998 -43.999h-89.0977q-51.6992 -9.90039 -51.6992 -28.5996l38.5 -256.294 q-6.60059 -46.1992 -22 -46.1992q-16.5 0 -23.0996 81.3984l-29.6992 204.595q0 34.0996 51.6992 105.598v8.7998q0 43.999 46.1982 72.5986z" />
<glyph unicode="&#xfc48;" arabic-form="isolated" d="M334 1284q33 -12 38 -63v-5q0 -35 -12 -80q36 -40 35 -52q0 -46 -27 -46h-2q-8 0 -41 24q-134 -125 -215 -139h-6l-8 8v6q0 17 77 70q101 83 101 91q-27 15 -41 44l-3 24q0 63 79 115zM310 1168q10 21 10 33q0 5 -2 9q-4 9 -10 8q-2 0 -5 -1q-10 -5 -12 -23q0 -3 -1 -6 q0 -20 20 -20zM127.098 1451.67q19.7998 0 79.1982 -65.998q18.6992 -16.5 17.5996 -32.999q-12.0996 -45.0996 -30.7998 -43.999h-89.0977q-51.6992 -9.90039 -51.6992 -28.5996l38.5 -256.294q-6.60059 -46.1992 -22 -46.1992q-16.5 0 -23.0996 81.3984l-29.6992 204.595 q0 34.0996 51.6992 105.598v8.7998q0 43.999 46.1982 72.5986z" />
<glyph unicode="&#xfc49;" arabic-form="isolated" d="M240 1167q0 -104 -64 -104q-22 0 -40 13q-2 -10 -8.5 -20t-15 -17t-19 -11.5t-20.5 -4.5q-51 0 -51 66q0 14 14 62l14 3q0 -68 24 -68q39 0 55 100l11 3q15 -60 36 -60q36 0 41 90l14 6q9 -35 9 -58zM59 1456.59l30 5.40039q27 -27.5996 34 -125.396 q-4 -75.5967 -14 -75.5967q-35 101.996 -61 150.594l-13 20.999q0 15.5996 24 23.999z" />
<glyph unicode="&#xfc4a;" arabic-form="isolated" d="M230 1023q0 -104 -64 -104q-22 0 -40 13q-2 -10 -8.5 -20t-15 -17t-19 -11.5t-20.5 -4.5q-51 0 -51 66q0 14 14 62l14 3q0 -68 24 -68q39 0 55 100l11 3q15 -60 36 -60q36 0 41 90l14 6q9 -35 9 -58z" />
<glyph unicode="&#xfc4b;" arabic-form="isolated" d="M251 1023q0 -104 -64 -104q-22 0 -40 13q-2 -10 -8.5 -20t-15 -17t-19 -11.5t-20.5 -4.5q-51 0 -51 66q0 14 14 62l14 3q0 -68 24 -68q39 0 55 100l11 3q15 -60 36 -60q36 0 41 90l14 6q9 -35 9 -58zM279 1339q-7 -72 -34 -88l-240 -137q0 31 3.5 42.5t9.5 20t15 15.5 t25 16z" />
<glyph unicode="&#xfc4c;" arabic-form="isolated" d="M282 1023q0 -104 -64 -104q-22 0 -40 13q-2 -10 -8.5 -20t-15 -17t-19 -11.5t-20.5 -4.5q-51 0 -51 66q0 14 14 62l14 3q0 -68 24 -68q39 0 55 100l11 3q15 -60 36 -60q36 0 41 90l14 6q9 -35 9 -58zM243 1488q33 -12 38 -63v-5q0 -35 -12 -80q36 -40 35 -52 q0 -46 -27 -46h-2q-8 0 -41 24q-134 -125 -215 -139h-6l-8 8v6q0 17 77 70q101 83 101 91q-27 15 -41 44l-3 24q0 63 79 115zM219 1372q10 21 10 33q0 5 -2 9q-4 9 -10 8q-2 0 -5 -1q-10 -5 -12 -23q0 -3 -1 -6q0 -20 20 -20z" />
<glyph unicode="&#xfc4d;" arabic-form="isolated" d="M246 1023q0 -104 -64 -104q-22 0 -40 13q-2 -10 -8.5 -20t-15 -17t-19 -11.5t-20.5 -4.5q-51 0 -51 66q0 14 14 62l14 3q0 -68 24 -68q39 0 55 100l11 3q15 -60 36 -60q36 0 41 90l14 6q9 -35 9 -58zM283 1320q-7 -72 -34 -88l-240 -137q0 31 3.5 42.5t9 20t15 15.5 t25.5 16zM279 1444q-7 -72 -34 -89l-240 -136q0 31 3.5 42.5t9.5 20t15 15.5t25 15z" />
<glyph unicode="&#xfc4e;" arabic-form="isolated" d="M286 1023q0 -104 -64 -104q-22 0 -40 13q-2 -10 -8.5 -20t-15 -17t-19 -11.5t-20.5 -4.5q-51 0 -51 66q0 14 14 62l14 3q0 -68 24 -68q39 0 55 100l11 3q15 -60 36 -60q36 0 41 90l14 6q9 -35 9 -58zM227.006 1492.83q69.3018 -7.2002 69.3018 -61.2021 q0 -30.6006 -27.9004 -52.2012q-38.7012 44.1016 -63.002 44.1016q-56.7012 0 -113.403 -110.703l-8.09961 -27.001l8.09961 -48.6006q0 -19.8008 -19.7998 -27.9014q-29.7012 15.3008 -29.7012 47.7012q0 65.7021 93.6025 186.306q45.9014 49.501 90.9023 49.501z M218.006 1364.13q29.7012 -10.8008 34.2012 -56.7021v-4.5q0 -31.501 -10.8008 -72.002q32.4014 -36.001 31.501 -46.8008q0 -41.4014 -24.3008 -41.4014h-1.7998q-7.2002 0 -36.9014 21.6006q-120.603 -112.503 -193.505 -125.104h-5.40039l-7.2002 7.2002v5.40039 q0 15.2998 69.3018 63.001q90.9023 74.7021 90.9023 81.9023q-24.2998 13.501 -36.9004 39.6016l-2.7002 21.6006q0 56.7012 71.1016 103.503zM196.405 1255.23q9 18.9004 9 28.8008q0 4.5 -1.7998 8.10059q-3.59961 8.09961 -9 8.09961q-1.80078 0 -4.5 -0.899414 q-9.00098 -4.5 -10.8008 -21.6006q0 -2.7002 -0.900391 -4.50098q0 -18 18.001 -18z" />
<glyph unicode="&#xfc4f;" arabic-form="isolated" d="M254 1023q0 -104 -64 -104q-22 0 -40 13q-2 -10 -8.5 -20t-15 -17t-19 -11.5t-20.5 -4.5q-51 0 -51 66q0 14 14 62l14 3q0 -68 24 -68q39 0 55 100l11 3q15 -60 36 -60q36 0 41 90l14 6q9 -35 9 -58zM278 1306q-7 -72 -34 -88l-240 -137q0 31 3.5 42.5t9.5 20t15 15.5 t25 16zM340 1447q-7 -72 -34 -88l-240 -137q0 31 3.5 42.5t9.5 20t15.5 16t24.5 15.5z" />
<glyph unicode="&#xfc50;" arabic-form="isolated" d="M301 1023q0 -104 -64 -104q-22 0 -40 13q-2 -10 -8.5 -20t-15 -17t-19 -11.5t-20.5 -4.5q-51 0 -51 66q0 14 14 62l14 3q0 -68 24 -68q39 0 55 100l11 3q15 -60 36 -60q36 0 41 90l14 6q9 -35 9 -58zM192.791 1411.26q26.7305 -9.71973 30.7803 -51.0322v-4.05078 q0 -28.3506 -9.71973 -63.9932q29.1621 -32.4014 28.3516 -42.9326q0 -37.2617 -21.8711 -37.2617h-1.62012q-6.48047 0 -33.2119 19.4414q-108.546 -101.256 -174.159 -112.597h-4.86035l-6.48047 7.29102v4.0498q0 13.7715 62.373 57.5127 q81.8145 67.2344 81.8145 72.9053q-21.8711 12.1494 -33.2109 35.6406l-2.43066 19.4414q0 51.0332 63.9932 93.1553zM173.35 1317.29q8.10059 17.0117 8.10059 26.7314q0 4.0498 -1.62012 7.29102q-3.24023 7.29004 -8.10156 7.29004q-1.61914 0 -4.0498 -1.62012 q-8.10059 -4.0498 -9.71973 -18.6309q0 -2.42969 -0.810547 -4.86035q0 -16.2012 16.2012 -16.2012zM340.218 1386.15q26.7324 -9.7207 31.5928 -51.0332v-4.05078q0 -28.3516 -10.5303 -64.8027q29.1611 -32.4023 29.1611 -42.1221q0 -37.2627 -21.8721 -37.2627h-2.42969 q-6.47949 0 -33.2119 19.4414q-108.546 -101.256 -174.159 -112.597h-4.05078l-6.48047 6.48047v4.86035q0 13.7705 61.5645 56.7031q81.8145 67.2334 81.8145 73.7139q-21.8721 12.1514 -33.2129 35.6426l-2.42871 19.4404q0 51.0332 64.8037 93.1553zM320.778 1292.18 q8.09961 17.0107 8.09961 26.7314q0 4.05078 -0.810547 7.29004q-3.23926 7.29102 -8.09961 6.48047q-1.62012 0 -4.86035 -0.80957q-8.10059 -4.0498 -9.7207 -18.6318v-4.85938q-0.810547 -16.2012 15.3916 -16.2012z" />
<glyph unicode="&#xfc51;" arabic-form="isolated" d="M281 1022q0 -104 -64 -103q-22 0 -40 13q-2 -10 -8.5 -20t-15 -17t-19 -11.5t-20.5 -4.5q-51 0 -51 66q0 14 14 62l14 3q0 -68 24 -68q39 0 55 100l11 3q15 -60 36 -60q36 0 41 90l14 6q9 -36 9 -59zM369 1290q-7 -72 -35 -88l-239 -137q0 31 3.5 42.5t9 20t15 15.5 t24.5 16zM110 1500q19 0 75 -62q17 -16 17 -32q-11 -42 -29 -42h-85q-49 -9 -49 -27l36 -244q-6 -43 -20 -43q-15 0 -22 76l-29 195q0 33 49 100v9q0 42 44 69z" />
<glyph unicode="&#xfc52;" arabic-form="isolated" d="M304 1022q0 -104 -65 -103q-22 0 -39 13q-2 -10 -8.5 -20t-15.5 -17t-19.5 -11.5t-20.5 -4.5q-51 0 -51 66q0 14 14 62l14 3q0 -68 24 -68q39 0 56 100l11 3q15 -60 35 -60q36 0 41 90l14 6q10 -36 10 -59zM279 1430q33 -12 39 -63v-5q0 -35 -13 -79q36 -40 36 -53 q0 -46 -28 -46h-2q-8 0 -41 24q-134 -125 -215 -139h-5l-8 9v5q0 17 76 71q101 83 101 90q-27 15 -41 44l-3 24q0 63 80 115zM255 1314q10 21 10 33q0 5 -1 9q-4 9 -11 9q-2 0 -5 -2q-10 -5 -12 -23v-6q-1 -20 19 -20zM72 1598q20 0 79 -66q19 -16 18 -32q-12 -44 -31 -45 h-89q-51 -10 -51 -29l38 -256q-6 -46 -22 -46t-23 81l-30 205q0 35 52 106v8q0 44 46 73z" />
<glyph unicode="&#xfc53;" arabic-form="isolated" d="M251 1071l42 7q39 -3 56.5 -11.5t22.5 -26.5l-1 -16q0 -60 -123 -134l-41 -11l-33 8q0 25 90 77q8 6 8 11q0 4 -6 9q-14 9 -40 10q-9 0 -58 -38q-7 -5 -11 -5q-2 0 -5 1q-6 3 -6 12q0 62 85 101z" />
<glyph unicode="&#xfc54;" arabic-form="isolated" d="M420 1080q-7 -72 -34 -89l-240 -137q0 31 3.5 43t9.5 20.5t15.5 15.5t24.5 15z" />
<glyph unicode="&#xfc55;" arabic-form="isolated" d="M384 1191q33 -12 39 -63v-5q0 -35 -13 -80q36 -40 36 -52q0 -46 -28 -46h-2q-8 0 -41 24q-134 -125 -215 -139h-5l-9 8v6q0 17 77 71q101 83 101 90q-27 15 -41 44l-3 24q0 63 80 115zM360 1075q10 21 10 33q0 5 -1 9q-4 9 -11 8q-2 0 -5 -1q-10 -5 -12 -23v-6 q-1 -20 19 -20z" />
<glyph unicode="&#xfc56;" arabic-form="isolated" d="M424 1055q-7 -72 -34 -88l-240 -137q0 31 3.5 42.5t9.5 20t15.5 16t24.5 15.5zM420 1179q-7 -72 -34 -89l-240 -136q0 31 3.5 42.5t9.5 20t15.5 15.5t24.5 15z" />
<glyph unicode="&#xfc57;" arabic-form="isolated" d="M395 1350q77 -8 76 -68q0 -34 -30 -57q-43 49 -71 48q-63 0 -126 -123l-8 -29l8 -55q0 -22 -22 -30q-33 17 -33 52q0 73 104 207q52 55 102 55zM384 1207q33 -12 39 -63v-5q0 -35 -13 -79q36 -40 36 -53q0 -46 -28 -46h-2q-8 0 -41 24q-134 -125 -215 -139h-5l-9 8v6 q0 17 77 71q101 83 101 90q-27 15 -41 44l-3 24q0 63 80 115zM360 1086q10 21 10 33q0 5 -1 8q-4 9 -11 9q-2 0 -5 -1q-10 -5 -12 -24v-5q-1 -20 19 -20z" />
<glyph unicode="&#xfc58;" arabic-form="isolated" d="M420 1067q-7 -72 -34 -88l-240 -137q0 31 3.5 42.5t9.5 20t15.5 15.5t24.5 16zM483 1208q-7 -72 -34 -88l-240 -137q0 31 3.5 42.5t9.5 20t15 15.5t25 16z" />
<glyph unicode="&#xfc59;" arabic-form="isolated" d="M360 1222q30 -11 35 -57v-4q0 -32 -11 -72q32 -36 32 -47q0 -42 -25 -42h-2q-7 0 -37 22q-121 -112 -193 -125h-5l-8 7v5q0 15 69 64q91 75 92 81q-24 14 -37 40l-3 22q0 57 71 103zM339 1117q9 19 9 30q0 4 -1 8q-4 8 -10 8q-2 0 -4 -2q-9 -4 -11 -21q0 -2 -1 -5 q0 -18 18 -18zM525 1193q29 -11 35 -56v-5q0 -32 -12 -71q32 -36 32 -47q0 -42 -24 -42h-3q-7 0 -36 22q-121 -113 -194 -125h-5l-7 7v5q0 16 69 64q91 75 91 81q-24 14 -37 39l-3 22q0 57 72 104zM503 1089q9 19 9 30q0 4 -1 7q-3 8 -10 9q-2 0 -4 -2q-9 -5 -11 -21v-5 q-1 -18 17 -18z" />
<glyph unicode="&#xfc5a;" arabic-form="isolated" d="M530 1130q-7 -72 -34 -88l-240 -137q0 31 3.5 42.5t9.5 20.5t15 16t25 15zM243 1312q18 0 71 -60q17 -15 17 -30q-11 -41 -28 -40h-81q-47 -9 -47 -26l34 -233q-6 -42 -19 -42q-15 0 -21 74l-27 186q0 31 46 96v8q0 40 42 66z" />
<glyph unicode="&#xfc5b;" arabic-form="isolated" d="M476 1284q33 -12 38 -63v-5q0 -35 -13 -80q36 -40 36 -52q0 -46 -27 -46h-3q-8 0 -41 24q-134 -125 -215 -139h-5l-8 8v6q0 17 76 70q101 83 102 91q-27 15 -41 44l-3 24q0 63 79 115zM452 1168q10 21 9 33q0 5 -1 8q-4 9 -10 9q-2 0 -6 -1q-10 -5 -11 -24q0 -3 -1 -5 q0 -20 20 -20zM249 1362q21 0 79 -67q18 -16 18 -33q-12 -44 -31 -44h-89q-51 -10 -52 -28l38 -257q-6 -46 -21 -46q-16 0 -23 81l-30 205q0 34 51 106v8q0 44 46 73z" />
<glyph unicode="&#xfc5c;" arabic-form="isolated" d="M365 1167q0 -104 -65 -104q-22 0 -39 13q-2 -10 -8.5 -20t-15 -17t-19 -11.5t-21.5 -4.5q-51 0 -51 66q0 14 14 62l14 3q0 -68 24 -68q39 0 56 100l11 3q15 -60 35 -60q36 0 41 90l14 6q10 -35 10 -58zM183 1457l30 5q27 -28 34 -125q-4 -76 -15 -76q-35 102 -60 151 l-13 21q0 16 24 24z" />
<glyph unicode="&#xfc5d;" arabic-form="isolated" d="M367 1022q0 -104 -64 -103q-22 0 -40 13q-2 -10 -8.5 -20t-15 -17t-19 -11.5t-20.5 -4.5q-51 0 -51 66q0 14 14 62l14 3q0 -68 24 -68q39 0 55 100l11 3q15 -60 36 -60q36 0 41 90l14 6q9 -36 9 -59z" />
<glyph unicode="&#xfc5e;" arabic-form="isolated" d="M393 1022q0 -104 -65 -103q-22 0 -39 13q-2 -10 -9 -20t-15.5 -17t-19 -11.5t-20.5 -4.5q-51 0 -51 66q0 14 14 62l14 3q0 -68 24 -68q39 0 56 100l10 3q15 -60 36 -60q36 0 41 90l14 6q10 -36 10 -59zM420 1265q-7 -72 -34 -88l-240 -137q0 31 3.5 42.5t9.5 20 t15.5 15.5t24.5 16z" />
<glyph unicode="&#xfc5f;" arabic-form="isolated" d="M424 1022q0 -104 -65 -103q-22 0 -39 13q-2 -10 -8.5 -20t-15 -17t-19 -11.5t-21.5 -4.5q-51 0 -50 66q0 14 13 62l14 3q0 -68 24 -68q39 0 56 100l11 3q15 -60 35 -60q36 0 41 90l15 6q9 -36 9 -59zM384 1390q33 -12 39 -63v-5q0 -35 -13 -80q36 -40 36 -52 q0 -46 -28 -46h-2q-8 0 -41 24q-134 -125 -215 -139h-5l-9 8v5q0 17 77 71q101 83 101 91q-27 15 -41 44l-3 24q0 63 80 115zM360 1274q10 21 10 33q0 5 -1 8q-4 9 -11 9q-2 0 -5 -1q-10 -5 -12 -24v-5q-1 -20 19 -20z" />
<glyph unicode="&#xfc60;" arabic-form="isolated" d="M388 1022q0 -104 -65 -103q-22 0 -39 13q-2 -10 -8.5 -20t-15.5 -17t-19.5 -11.5t-20.5 -4.5q-51 0 -51 66q0 14 14 62l14 3q0 -68 24 -68q39 0 56 100l11 3q15 -60 35 -60q36 0 41 90l14 6q10 -36 10 -59zM424 1267q-7 -72 -34 -89l-240 -136q0 31 3.5 42.5t9.5 20 t15.5 15.5t24.5 15zM420 1390q-7 -72 -34 -88l-240 -137q0 31 3.5 42.5t9.5 20t15.5 15.5t24.5 16z" />
<glyph unicode="&#xfc61;" arabic-form="isolated" d="M428 1022q0 -104 -64 -103q-22 0 -40 13q-2 -10 -8.5 -20t-15 -17t-19 -11.5t-20.5 -4.5q-51 0 -51 66q0 14 14 62l14 3q0 -68 24 -68q39 0 55 100l11 3q15 -60 36 -60q36 0 41 90l14 6q9 -36 9 -59zM395 1534q77 -8 76 -68q0 -34 -30 -57q-43 49 -71 49q-63 0 -126 -124 l-8 -29l8 -55q0 -22 -22 -30q-33 17 -33 52q0 73 104 207q52 55 102 55zM384 1391q33 -12 39 -63v-5q0 -35 -13 -79q36 -40 36 -53q0 -46 -28 -46h-2q-8 0 -41 24q-134 -125 -215 -139h-5l-9 9v5q0 17 77 71q101 83 101 90q-27 15 -41 44l-3 24q0 63 80 115zM360 1270 q10 21 10 33q0 5 -1 9q-4 9 -11 8q-2 0 -5 -1q-10 -5 -12 -24v-5q-1 -20 19 -20z" />
<glyph unicode="&#xfc62;" arabic-form="isolated" d="M396 1022q0 -104 -65 -103q-22 0 -39 13q-2 -10 -9 -20t-15.5 -17t-19 -11.5t-20.5 -4.5q-51 0 -51 66q0 14 14 62l14 3q0 -68 24 -68q39 0 56 100l10 3q15 -60 36 -60q36 0 41 90l14 6q10 -36 10 -59zM420 1259q-7 -72 -34 -88l-240 -137q0 31 3.5 42.5t9.5 20t15.5 16 t24.5 15.5zM483 1400q-7 -72 -34 -88l-240 -137q0 31 3.5 42.5t9.5 20.5t15 16t25 15z" />
<glyph unicode="&#xfc63;" arabic-form="isolated" d="M443 1022q0 -104 -64 -103q-22 0 -40 13q-2 -10 -8.5 -20t-15 -17t-19 -11.5t-20.5 -4.5q-51 0 -51 66q0 14 14 62l14 3q0 -68 24 -68q39 0 56 100l10 3q15 -60 36 -60q36 0 41 90l14 6q9 -36 9 -59zM355 1449q30 -11 35 -57v-4q0 -32 -11 -72q32 -36 32 -47 q0 -42 -25 -42h-2q-7 0 -37 22q-121 -112 -193 -125h-5l-7 7v5q0 15 68 64q91 75 92 81q-24 14 -37 40l-3 22q0 57 71 103zM334 1344q9 19 9 30q0 4 -1 8q-4 8 -9 8q-2 0 -5 -2q-9 -4 -11 -21q0 -2 -1 -5q0 -18 18 -18zM520 1420q29 -11 35 -56v-5q0 -32 -12 -71 q32 -36 32 -47q0 -42 -24 -42h-3q-7 0 -36 22q-121 -113 -194 -125h-5l-7 7v5q0 16 69 64q91 75 91 81q-24 14 -37 39l-3 22q0 57 72 104zM499 1316q9 19 8 30q0 4 -1 8q-3 8 -9 8q-2 0 -5 -2q-9 -5 -11 -21v-5q0 -18 18 -18z" />
<glyph unicode="&#xfc64;" arabic-form="final" d="M443 1022q0 -104 -65 -103q-22 0 -39 13q-2 -10 -8.5 -20t-15 -17t-19 -11.5t-21.5 -4.5q-51 0 -50 66q0 14 13 62l14 3q0 -68 24 -68q39 0 56 100l11 3q15 -60 35 -60q36 0 41 90l15 6q9 -36 9 -59zM530 1290q-7 -72 -34 -88l-240 -137q0 31 3.5 42.5t9.5 20t15 15.5 t25 16zM247 1442q19 0 75 -63q18 -15 18 -31q-11 -42 -30 -42h-85q-49 -9 -49 -27l36 -244q-6 -44 -20 -44q-16 0 -22 77l-28 195q0 32 48 100v9q0 42 44 69z" />
<glyph unicode="&#xfc65;" arabic-form="final" d="M441 1022q0 -104 -64 -103q-22 0 -40 13q-2 -10 -8.5 -20t-15 -17t-19 -11.5t-20.5 -4.5q-51 0 -51 66q0 14 14 62l14 3q0 -68 24 -68q39 0 56 100l10 3q15 -60 36 -60q36 0 41 90l14 6q9 -36 9 -59zM476 1479q33 -12 38 -63v-5q0 -35 -13 -79q36 -40 36 -53 q0 -46 -27 -46h-3q-8 0 -41 24q-134 -125 -215 -139h-5l-8 8v6q0 17 76 71q101 83 102 90q-27 15 -41 44l-3 24q0 63 79 115zM452 1363q10 21 9 33q0 5 -1 9q-4 9 -10 9q-2 0 -6 -2q-10 -5 -11 -23q0 -3 -1 -6q0 -20 20 -20zM247 1483q19 0 75 -62q18 -15 18 -32 q-11 -42 -30 -42h-85q-49 -9 -49 -27l36 -243q-6 -44 -20 -44q-16 0 -22 77l-28 195q0 32 48 100v8q0 42 44 69z" />
<glyph unicode="&#xfc66;" arabic-form="final" d="M114 827l42 7q39 -3 56.5 -11.5t22.5 -27.5l-1 -15q0 -60 -123 -134l-41 -11l-33 8q0 25 90 77q8 6 9 11q0 4 -7 9q-14 9 -40 10q-9 0 -57 -39q-7 -5 -12 -4q-2 0 -4 1q-6 3 -6 12q0 62 85 101z" />
<glyph unicode="&#xfc67;" arabic-form="final" d="M284 860q-7 -72 -34 -89l-240 -136q0 31 3.5 42.5t9 20t15.5 15.5q8 7 24 16z" />
<glyph unicode="&#xfc68;" arabic-form="final" d="M243 996q33 -12 38 -63v-5q0 -35 -12 -80q36 -40 35 -52q0 -46 -27 -46h-3q-8 0 -41 24q-134 -125 -214 -139h-6l-8 8v5q0 17 77 71q101 83 101 91q-27 15 -41 44l-3 24q0 63 79 115zM219 880q10 21 10 33q0 5 -2 8q-4 9 -10 9q-2 0 -6 -1q-10 -5 -11 -24q0 -3 -1 -5 q0 -20 20 -20z" />
<glyph unicode="&#xfc69;" arabic-form="final" d="M283 860q-7 -72 -34 -89l-240 -136q0 31 3.5 42.5t9 20t15 15.5t25.5 16zM279 983q-7 -72 -34 -88l-240 -137q0 31 3.5 42.5t9 20.5t15 16t25.5 15z" />
<glyph unicode="&#xfc6a;" arabic-form="final" d="M250 1139q77 -8 77 -69q0 -34 -30 -57q-43 49 -71 49q-63 0 -126 -123l-8 -30l8 -55q0 -22 -22 -30q-33 17 -33 52q0 73 104 208q51 55 101 55zM240 996q33 -12 39 -63v-5q0 -35 -13 -80q36 -40 36 -52q0 -46 -28 -46h-2q-8 0 -41 24q-134 -125 -215 -139h-5l-9 8v5 q0 17 77 71q101 83 101 91q-27 15 -41 44l-3 24q0 63 80 115zM216 875q10 21 10 32q0 5 -1 9q-4 9 -11 9q-2 0 -5 -2q-10 -5 -12 -23v-5q-1 -20 19 -20z" />
<glyph unicode="&#xfc6b;" arabic-form="final" d="M276 860q-7 -72 -34 -89l-240 -136q0 31 3.5 42.5t9.5 20t15.5 15.5t24.5 16zM339 1001q-7 -72 -34 -88l-240 -137q0 31 3.5 42.5t9 20t15 15.5t25.5 16z" />
<glyph unicode="&#xfc6c;" arabic-form="final" d="M216 988q30 -11 35 -57v-4q0 -32 -11 -72q32 -36 32 -47q0 -42 -25 -42h-2q-7 0 -37 22q-121 -112 -193 -125h-5l-8 7v5q0 15 69 64q91 75 92 81q-24 14 -38 40l-2 22q0 57 71 103zM195 883q9 19 9 30q0 4 -1 8q-4 8 -10 8q-2 0 -5 -2q-9 -4 -10 -21q0 -2 -1 -5 q0 -18 18 -18zM381 959q29 -11 35 -56v-5q0 -32 -12 -71q32 -36 32 -47q0 -42 -24 -42h-3q-7 0 -36 22q-121 -113 -194 -125h-5l-7 7v5q0 16 69 64q91 75 91 81q-24 14 -37 40l-3 22q0 57 72 103zM359 855q9 19 9 30q0 4 -1 8q-3 8 -10 8q-2 0 -4 -2q-9 -5 -11 -21v-4 q-1 -19 17 -19z" />
<glyph unicode="&#xfc6d;" arabic-form="final" d="M389 934q-7 -72 -35 -89l-239 -137q0 31 3.5 43t9 20.5t15 15.5t24.5 15zM105 1105q19 0 76 -63q18 -15 17 -31q-11 -42 -30 -42h-85q-49 -9 -48 -27l36 -244q-6 -44 -20 -44q-16 0 -22 77l-29 195q0 32 49 100v9q0 42 44 69z" />
<glyph unicode="&#xfc6e;" arabic-form="final" d="M334 1081q33 -12 39 -63v-5q0 -35 -13 -79q36 -40 36 -53q0 -46 -28 -46h-2q-8 0 -41 24q-134 -125 -215 -139h-6l-8 9v5q0 17 77 71q101 83 101 90q-27 15 -41 44l-3 24q0 63 80 115zM310 965q10 21 10 33q0 5 -2 9q-4 9 -10 9q-2 0 -5 -2q-10 -5 -12 -23v-6 q-1 -20 19 -20zM105 1125q19 0 76 -63q18 -15 17 -32q-11 -42 -30 -42h-85q-49 -9 -48 -27l36 -243q-6 -44 -20 -44q-16 0 -22 77l-29 195q0 32 49 100v8q0 42 44 70z" />
<glyph unicode="&#xfc6f;" arabic-form="final" d="M241 778q0 -104 -65 -103q-22 1 -39 13q-2 -10 -8.5 -20t-15.5 -17t-19.5 -11.5t-20.5 -4.5q-51 0 -51 66q0 14 14 62l14 3q0 -68 24 -68q39 0 56 99l11 4q15 -60 35 -60q36 0 41 90l14 6q10 -36 10 -59zM59 1068l30 6q27 -28 34 -125q-4 -76 -15 -76q-35 102 -60 150 l-13 22q0 15 24 23z" />
<glyph unicode="&#xfc70;" arabic-form="final" d="M230 778q0 -104 -64 -103q-22 1 -40 13q-2 -10 -8.5 -20t-15 -17t-19 -11.5t-20.5 -4.5q-51 0 -51 66q0 14 14 62l14 3q0 -68 24 -68q39 0 56 99l10 4q15 -60 36 -60q36 0 41 90l14 6q9 -36 9 -59z" />
<glyph unicode="&#xfc71;" arabic-form="final" d="M251 778q0 -104 -64 -103q-22 1 -40 13q-2 -10 -8.5 -20t-15 -17t-19 -11.5t-21.5 -4.5q-51 0 -50 66q0 14 13 62l15 3q0 -68 23 -68q39 0 56 99l11 4q15 -60 36 -60q36 0 41 90l14 6q9 -36 9 -59zM279 1021q-7 -72 -34 -88l-240 -137q0 31 3.5 42.5t9 20t15 15.5 t25.5 16z" />
<glyph unicode="&#xfc72;" arabic-form="final" d="M282 778q0 -104 -64 -103q-22 1 -40 13q-2 -10 -8.5 -20t-15 -17t-19 -11.5t-20.5 -4.5q-51 0 -51 66q0 14 14 62l14 3q0 -68 24 -68q39 0 55 99l11 4q15 -60 36 -60q36 0 41 90l14 6q9 -36 9 -59zM243 1146q33 -12 38 -63v-5q0 -35 -12 -80q36 -40 35 -52q0 -46 -27 -47 h-3q-8 0 -41 25q-134 -125 -214 -139h-6l-8 8v5q0 17 77 71q101 83 101 90q-27 15 -41 44l-3 25q0 63 79 115zM219 1030q10 20 10 32q0 5 -2 9q-4 9 -10 9q-2 0 -6 -1q-10 -5 -11 -24q0 -3 -1 -5q0 -20 20 -20z" />
<glyph unicode="&#xfc73;" arabic-form="final" d="M246 778q0 -104 -64 -103q-22 1 -40 13q-2 -10 -8.5 -20t-15 -17t-19 -11.5t-20.5 -4.5q-51 0 -51 66q0 14 14 62l14 3q0 -68 24 -68q39 0 55 99l11 4q15 -60 36 -60q36 0 41 90l14 6q9 -36 9 -59zM283 1022q-7 -72 -34 -88l-240 -137q0 31 3.5 43t9 20.5t15 15.5 t25.5 15zM279 1146q-7 -72 -34 -88l-240 -137q0 31 3.5 42.5t9 20t15 15.5t25.5 16z" />
<glyph unicode="&#xfc74;" arabic-form="final" d="M287 778q0 -104 -65 -103q-22 1 -39 13q-2 -10 -9 -20t-15.5 -17t-19 -11.5t-20.5 -4.5q-51 0 -51 66q0 14 14 62l14 3q0 -68 24 -68q39 0 56 99l11 4q15 -60 35 -60q36 0 41 90l14 6q10 -36 10 -59zM253 1290q77 -8 77 -68q0 -34 -31 -57q-43 49 -70 48q-63 0 -126 -123 l-9 -29l9 -55q0 -22 -22 -30q-33 17 -33 52q0 73 104 207q51 55 101 55zM243 1147q33 -12 38 -63v-5q0 -35 -12 -79q36 -40 35 -53q0 -46 -27 -46h-3q-8 0 -41 24q-134 -125 -214 -139h-6l-8 8v6q0 17 77 71q101 83 101 90q-27 15 -41 44l-3 24q0 63 79 115zM219 1026 q10 21 10 33q0 5 -2 8q-4 9 -10 9q-2 0 -6 -1q-10 -5 -11 -24q0 -3 -1 -5q0 -20 20 -20z" />
<glyph unicode="&#xfc75;" arabic-form="final" d="M254 778q0 -104 -65 -103q-22 1 -39 13q-2 -10 -8.5 -20t-15 -17t-19 -11.5t-21.5 -4.5q-51 0 -50 66q0 14 13 62l14 3q0 -68 24 -68q39 0 56 99l11 4q15 -60 35 -60q36 0 41 90l15 6q9 -36 9 -59zM279 1015q-7 -72 -34 -88l-240 -137q0 31 3.5 42.5t9 20t15 15.5 t25.5 16zM341 1156q-7 -72 -34 -88l-240 -137q0 31 3.5 42.5t9.5 20t15 16t25 15.5z" />
<glyph unicode="&#xfc76;" arabic-form="final" d="M302 778q0 -104 -65 -103q-22 1 -39 13q-2 -10 -8.5 -20t-15 -17t-19 -11.5t-21.5 -4.5q-51 0 -51 66q0 14 14 62l14 3q0 -68 24 -68q39 0 56 99l11 4q15 -60 35 -60q36 0 41 90l14 6q10 -36 10 -59zM214 1205q30 -11 35 -57v-4q0 -32 -12 -72q32 -36 33 -47 q0 -42 -25 -42h-2q-7 0 -37 22q-121 -112 -194 -125h-5l-7 7v5q0 15 69 64q91 75 91 81q-24 14 -37 40l-2 22q0 57 71 103zM192 1100q9 19 9 30q0 4 -1 8q-4 8 -9 8q-2 0 -5 -2q-9 -4 -11 -21v-5q-1 -18 17 -18zM378 1176q29 -11 35 -56v-5q0 -32 -11 -72q32 -36 32 -46 q0 -42 -25 -42h-2q-7 0 -37 22q-121 -113 -193 -125h-5l-7 7v5q0 16 68 64q91 75 91 81q-24 14 -36 39l-3 22q0 57 71 104zM357 1072q9 19 9 30q0 4 -2 7q-3 8 -9 9q-2 0 -5 -2q-9 -5 -10 -21q0 -3 -1 -5q0 -18 18 -18z" />
<glyph unicode="&#xfc77;" arabic-form="final" d="M301 778q0 -104 -64 -103q-22 1 -40 13q-2 -10 -8.5 -20t-15 -17t-19 -11.5t-20.5 -4.5q-51 0 -51 66q0 14 14 62l14 3q0 -68 24 -68q39 0 55 99l11 4q15 -60 36 -60q36 0 41 90l14 6q9 -36 9 -59zM389 1046q-7 -72 -35 -88l-239 -137q0 31 3.5 42.5t9 20t15 15.5 t24.5 16zM105 1198q19 0 76 -63q18 -15 17 -31q-11 -42 -30 -42h-85q-49 -9 -48 -27l36 -244q-6 -44 -20 -44q-16 0 -22 77l-29 195q0 32 49 100v8q0 42 44 70z" />
<glyph unicode="&#xfc78;" arabic-form="final" d="M300 778q0 -104 -65 -103q-22 1 -39 13q-2 -10 -8.5 -20t-15 -17t-19 -11.5t-21.5 -4.5q-51 0 -50 66q0 14 13 62l14 3q0 -68 24 -68q39 0 56 99l11 4q15 -60 35 -60q36 0 41 90l15 6q9 -36 9 -59zM334 1235q33 -12 39 -63v-5q0 -35 -13 -80q36 -40 36 -52q0 -46 -28 -46 h-2q-8 0 -41 24q-134 -125 -215 -139h-6l-8 8v6q0 17 77 70q101 83 101 91q-27 15 -41 44l-3 24q0 63 80 115zM310 1119q10 21 10 33q0 5 -2 9q-4 9 -10 8q-2 0 -5 -1q-10 -5 -12 -23v-6q-1 -20 19 -20zM105 1264q19 0 76 -63q18 -15 17 -32q-11 -42 -30 -42h-85 q-49 -9 -48 -26l36 -244q-6 -44 -20 -44q-16 0 -22 77l-29 195q0 32 49 100v8q0 42 44 70z" />
<glyph unicode="&#xfc79;" arabic-form="final" d="M251 827l42 7q39 -3 56.5 -11.5t22.5 -27.5l-1 -15q0 -60 -123 -134l-41 -11l-33 8q0 25 90 77q8 6 8 11q0 4 -6 9q-14 9 -40 10q-9 0 -58 -39q-7 -5 -11 -4q-2 0 -5 1q-6 3 -6 12q0 62 85 101z" />
<glyph unicode="&#xfc7a;" arabic-form="final" d="M420 860q-7 -72 -34 -89l-240 -136q0 31 3.5 42.5t9.5 20t15.5 15.5t24.5 16z" />
<glyph unicode="&#xfc7b;" arabic-form="final" d="M384 996q33 -12 39 -63v-5q0 -35 -13 -80q36 -40 36 -52q0 -46 -28 -46h-2q-8 0 -41 24q-134 -125 -215 -139h-5l-9 8v5q0 17 77 71q101 83 101 91q-27 15 -41 44l-3 24q0 63 80 115zM360 880q10 21 10 33q0 5 -1 8q-4 9 -11 9q-2 0 -5 -1q-10 -5 -12 -24v-5 q-1 -20 19 -20z" />
<glyph unicode="&#xfc7c;" arabic-form="final" d="M424 860q-7 -72 -34 -89l-240 -136q0 31 3.5 42.5t9.5 20t15.5 15.5t24.5 16zM420 983q-7 -72 -34 -88l-240 -137q0 31 3.5 42.5t9.5 20.5t15.5 16t24.5 15z" />
<glyph unicode="&#xfc7d;" arabic-form="final" d="M395 1139q77 -8 76 -69q0 -34 -30 -57q-43 49 -71 49q-63 0 -126 -123l-8 -30l8 -55q0 -22 -22 -30q-33 17 -33 52q0 73 104 208q52 55 102 55zM384 996q33 -12 39 -63v-5q0 -35 -13 -80q36 -40 36 -52q0 -46 -28 -46h-2q-8 0 -41 24q-134 -125 -215 -139h-5l-9 8v5 q0 17 77 71q101 83 101 91q-27 15 -41 44l-3 24q0 63 80 115zM360 875q10 21 10 32q0 5 -1 9q-4 9 -11 9q-2 0 -5 -2q-10 -5 -12 -23v-5q-1 -20 19 -20z" />
<glyph unicode="&#xfc7e;" arabic-form="final" d="M420 860q-7 -72 -34 -89l-240 -136q0 31 3.5 42.5t9.5 20t15.5 15.5t24.5 16zM483 1001q-7 -72 -34 -88l-240 -137q0 31 3.5 42.5t9.5 20t15 15.5t25 16z" />
<glyph unicode="&#xfc7f;" arabic-form="final" d="M360 988q30 -11 35 -57v-4q0 -32 -11 -72q32 -36 32 -47q0 -42 -25 -42h-2q-7 0 -37 22q-121 -112 -193 -125h-5l-8 7v5q0 15 69 64q91 75 92 81q-24 14 -37 40l-3 22q0 57 71 103zM339 883q9 19 9 30q0 4 -1 8q-4 8 -10 8q-2 0 -4 -2q-9 -4 -11 -21q0 -2 -1 -5 q0 -18 18 -18zM525 959q29 -11 35 -56v-5q0 -32 -12 -71q32 -36 32 -47q0 -42 -24 -42h-3q-7 0 -36 22q-121 -113 -194 -125h-5l-7 7v5q0 16 69 64q91 75 91 81q-24 14 -37 40l-3 22q0 57 72 103zM503 855q9 19 9 30q0 4 -1 8q-3 8 -10 8q-2 0 -4 -2q-9 -5 -11 -21v-4 q-1 -19 17 -19z" />
<glyph unicode="&#xfc80;" arabic-form="final" d="M530 934q-7 -72 -34 -89l-240 -137q0 31 3.5 43t9.5 20.5t15 15.5t25 15zM247 1110q19 0 75 -63q18 -15 18 -31q-11 -42 -30 -42h-85q-49 -9 -49 -27l36 -244q-6 -44 -20 -44q-16 0 -22 77l-28 195q0 32 48 100v9q0 42 44 69z" />
<glyph unicode="&#xfc81;" arabic-form="final" d="M476 1081q33 -12 38 -63v-5q0 -35 -13 -79q36 -40 36 -53q0 -46 -27 -46h-3q-8 0 -41 24q-134 -125 -215 -139h-5l-8 9v5q0 17 76 71q101 83 102 90q-27 15 -41 44l-3 24q0 63 79 115zM452 965q10 21 9 33q0 5 -1 9q-4 9 -10 9q-2 0 -6 -2q-10 -5 -11 -23q0 -3 -1 -6 q0 -20 20 -20zM247 1125q19 0 75 -63q18 -15 18 -32q-11 -42 -30 -42h-85q-49 -9 -49 -27l36 -243q-6 -44 -20 -44q-16 0 -22 77l-28 195q0 32 48 100v8q0 42 44 70z" />
<glyph unicode="&#xfc82;" arabic-form="final" d="M365 778q0 -104 -65 -103q-22 1 -39 13q-2 -10 -8.5 -20t-15 -17t-19 -11.5t-21.5 -4.5q-51 0 -51 66q0 14 14 62l14 3q0 -68 24 -68q39 0 56 99l11 4q15 -60 35 -60q36 0 41 90l14 6q10 -36 10 -59zM183 1068l30 6q27 -28 34 -125q-4 -76 -15 -76q-35 102 -60 150 l-13 22q0 15 24 23z" />
<glyph unicode="&#xfc83;" arabic-form="final" d="M367 778q0 -104 -64 -103q-22 1 -40 13q-2 -10 -8.5 -20t-15 -17t-19 -11.5t-20.5 -4.5q-51 0 -51 66q0 14 14 62l14 3q0 -68 24 -68q39 0 55 99l11 4q15 -60 36 -60q36 0 41 90l14 6q9 -36 9 -59z" />
<glyph unicode="&#xfc84;" arabic-form="final" d="M393 778q0 -104 -65 -103q-22 1 -39 13q-2 -10 -9 -20t-15.5 -17t-19 -11.5t-20.5 -4.5q-51 0 -51 66q0 14 14 62l14 3q0 -68 24 -68q39 0 56 99l10 4q15 -60 36 -60q36 0 41 90l14 6q10 -36 10 -59zM420 1021q-7 -72 -34 -88l-240 -137q0 31 3.5 42.5t9.5 20t15.5 15.5 t24.5 16z" />
<glyph unicode="&#xfc85;" arabic-form="final" d="M424 778q0 -104 -65 -103q-22 1 -39 13q-2 -10 -8.5 -20t-15 -17t-19 -11.5t-21.5 -4.5q-51 0 -50 66q0 14 13 62l14 3q0 -68 24 -68q39 0 56 99l11 4q15 -60 35 -60q36 0 41 90l15 6q9 -36 9 -59zM384 1146q33 -12 39 -63v-5q0 -35 -13 -80q36 -40 36 -52q0 -46 -28 -47 h-2q-8 0 -41 25q-134 -125 -215 -139h-5l-9 8v5q0 17 77 71q101 83 101 90q-27 15 -41 44l-3 25q0 63 80 115zM360 1030q10 20 10 32q0 5 -1 9q-4 9 -11 9q-2 0 -5 -1q-10 -5 -12 -24v-5q-1 -20 19 -20z" />
<glyph unicode="&#xfc86;" arabic-form="final" d="M388 778q0 -104 -65 -103q-22 1 -39 13q-2 -10 -8.5 -20t-15.5 -17t-19.5 -11.5t-20.5 -4.5q-51 0 -51 66q0 14 14 62l14 3q0 -68 24 -68q39 0 56 99l11 4q15 -60 35 -60q36 0 41 90l14 6q10 -36 10 -59zM424 1022q-7 -72 -34 -88l-240 -137q0 31 3.5 43t9.5 20.5 t15.5 15.5t24.5 15zM420 1146q-7 -72 -34 -88l-240 -137q0 31 3.5 42.5t9.5 20t15.5 15.5t24.5 16z" />
<glyph unicode="&#xfc87;" arabic-form="final" d="M428 778q0 -104 -64 -103q-22 1 -40 13q-2 -10 -8.5 -20t-15 -17t-19 -11.5t-20.5 -4.5q-51 0 -51 66q0 14 14 62l14 3q0 -68 24 -68q39 0 55 99l11 4q15 -60 36 -60q36 0 41 90l14 6q9 -36 9 -59zM395 1290q77 -8 76 -68q0 -34 -30 -57q-43 49 -71 48q-63 0 -126 -123 l-8 -29l8 -55q0 -22 -22 -30q-33 17 -33 52q0 73 104 207q52 55 102 55zM384 1147q33 -12 39 -63v-5q0 -35 -13 -79q36 -40 36 -53q0 -46 -28 -46h-2q-8 0 -41 24q-134 -125 -215 -139h-5l-9 8v6q0 17 77 71q101 83 101 90q-27 15 -41 44l-3 24q0 63 80 115zM360 1026 q10 21 10 33q0 5 -1 8q-4 9 -11 9q-2 0 -5 -1q-10 -5 -12 -24v-5q-1 -20 19 -20z" />
<glyph unicode="&#xfc88;" arabic-form="final" d="M396 778q0 -104 -65 -103q-22 1 -39 13q-2 -10 -9 -20t-15.5 -17t-19 -11.5t-20.5 -4.5q-51 0 -51 66q0 14 14 62l14 3q0 -68 24 -68q39 0 56 99l10 4q15 -60 36 -60q36 0 41 90l14 6q10 -36 10 -59zM420 1015q-7 -72 -34 -88l-240 -137q0 31 3.5 42.5t9.5 20t15.5 15.5 t24.5 16zM483 1156q-7 -72 -34 -88l-240 -137q0 31 3.5 42.5t9.5 20t15 16t25 15.5z" />
<glyph unicode="&#xfc89;" arabic-form="final" d="M443 778q0 -104 -64 -103q-22 1 -40 13q-2 -10 -8.5 -20t-15 -17t-19 -11.5t-20.5 -4.5q-51 0 -51 66q0 14 14 62l14 3q0 -68 24 -68q39 0 56 99l10 4q15 -60 36 -60q36 0 41 90l14 6q9 -36 9 -59zM355 1205q30 -11 35 -57v-4q0 -32 -11 -72q32 -36 32 -47q0 -42 -25 -42 h-2q-7 0 -37 22q-121 -112 -193 -125h-5l-7 7v5q0 15 68 64q91 75 92 81q-24 14 -37 40l-3 22q0 57 71 103zM334 1100q9 19 9 30q0 4 -1 8q-4 8 -9 8q-2 0 -5 -2q-9 -4 -11 -21q0 -2 -1 -5q0 -18 18 -18zM520 1176q29 -11 35 -56v-5q0 -32 -12 -72q32 -36 32 -46 q0 -42 -24 -42h-3q-7 0 -36 22q-121 -113 -194 -125h-5l-7 7v5q0 16 69 64q91 75 91 81q-24 14 -37 39l-3 22q0 57 72 104zM499 1072q9 19 8 30q0 4 -1 7q-3 8 -9 9q-2 0 -5 -2q-9 -5 -11 -21v-5q0 -18 18 -18z" />
<glyph unicode="&#xfc8a;" arabic-form="final" d="M443 778q0 -104 -65 -103q-22 1 -39 13q-2 -10 -8.5 -20t-15 -17t-19 -11.5t-21.5 -4.5q-51 0 -50 66q0 14 13 62l14 3q0 -68 24 -68q39 0 56 99l11 4q15 -60 35 -60q36 0 41 90l15 6q9 -36 9 -59zM530 1046q-7 -72 -34 -88l-240 -137q0 31 3.5 42.5t9.5 20t15 15.5 t25 16zM247 1212q19 0 75 -62q18 -15 18 -32q-11 -42 -30 -42h-85q-49 -9 -49 -27l36 -243q-6 -44 -20 -44q-16 0 -22 77l-28 195q0 32 48 100v8q0 42 44 69z" />
<glyph unicode="&#xfc8b;" arabic-form="final" d="M437 778q0 -104 -65 -103q-22 1 -39 13q-2 -10 -9 -20t-15.5 -17t-19 -11.5t-20.5 -4.5q-51 0 -51 66q0 14 14 62l14 3q0 -68 24 -68q39 0 56 99l10 4q15 -60 36 -60q36 0 41 90l14 6q10 -36 10 -59zM476 1235q33 -12 38 -63v-5q0 -35 -13 -80q36 -40 36 -52 q0 -46 -27 -46h-3q-8 0 -41 24q-134 -125 -215 -139h-5l-8 8v6q0 17 76 70q101 83 102 91q-27 15 -41 44l-3 24q0 63 79 115zM452 1119q10 21 9 33q0 5 -1 9q-4 9 -10 8q-2 0 -6 -1q-10 -5 -11 -23q0 -3 -1 -6q0 -20 20 -20zM247 1264q19 0 75 -63q18 -15 18 -32 q-11 -42 -30 -42h-85q-49 -9 -49 -26l36 -244q-6 -44 -20 -44q-16 0 -22 77l-28 195q0 32 48 100v8q0 42 44 70z" />
<glyph unicode="&#xfc8c;" arabic-form="final" d="M420 -341q-7 -72 -34 -88l-240 -137q0 31 3.5 42.5t9.5 20t15.5 16t24.5 15.5z" />
<glyph unicode="&#xfc8d;" arabic-form="final" d="M424 -465q-7 -72 -34 -89l-240 -136q0 31 3.5 42.5t9.5 20t15.5 15.5t24.5 15zM420 -342q-7 -72 -34 -88l-240 -137q0 31 3.5 42.5t9.5 20t15.5 16t24.5 15.5z" />
<glyph unicode="&#xfc8e;" arabic-form="final" d="M396 -486q-7 -72 -34 -89l-240 -136q0 31 3.5 42.5t9.5 20t15 15.5t25 15zM458 -345q-7 -72 -34 -89l-239 -136q0 31 3 42.5t9 20t15.5 15.5t24.5 15z" />
<glyph unicode="&#xfc8f;" arabic-form="final" d="M466 -479q-7 -72 -34 -89l-240 -137q0 31 3.5 43t9.5 20.5t15 15.5t25 15zM199 -311q20 0 79 -66q19 -16 18 -33q-12 -44 -31 -45h-89q-51 -10 -51 -28l38 -256q-6 -46 -22 -47q-16 0 -23 82l-30 204q0 34 52 106v9q0 44 46 73z" />
<glyph unicode="&#xfc90;" arabic-form="final" d="M323 -297q-7 -72 -34 -88l-240 -137q0 31 3.5 42.5t9 20t15 15.5t25.5 16z" />
<glyph unicode="&#xfc91;" arabic-form="final" d="M327 -421q-7 -72 -35 -89l-239 -136q0 31 3.5 42.5t9 20t15 15.5t24.5 15zM323 -298q-7 -72 -34 -88l-240 -137q0 31 3.5 42.5t9 20t15 15.5t25.5 16z" />
<glyph unicode="&#xfc92;" arabic-form="final" d="M298 -438q-7 -72 -34 -88l-240 -137q0 31 3.5 43t9.5 20.5t15.5 15.5t24.5 15zM361 -296q-7 -72 -34 -89l-240 -136q0 31 3.5 42.5t9 20t15 15.5t25.5 15z" />
<glyph unicode="&#xfc93;" arabic-form="final" d="M369 -431q-7 -72 -35 -88l-239 -137q0 31 3.5 42.5t9 20.5t15 16t24.5 15zM105 -276q19 0 76 -63q18 -15 17 -31q-11 -42 -30 -43h-85q-49 -9 -48 -26l36 -244q-6 -44 -20 -44q-16 0 -22 77l-29 195q0 33 49 101v7q0 42 44 70z" />
<glyph unicode="&#xfc94;" arabic-form="final" d="M420 -150q-7 -72 -34 -89l-240 -136q0 31 3.5 42.5t9.5 20t15.5 15.5t24.5 15z" />
<glyph unicode="&#xfc95;" arabic-form="final" d="M424 -285q-7 -72 -34 -88l-240 -137q0 31 3.5 42.5t9.5 20.5t15.5 16t24.5 15zM420 -151q-7 -72 -34 -89l-240 -136q0 31 3.5 42.5t9.5 20t15.5 15.5t24.5 15z" />
<glyph unicode="&#xfc96;" arabic-form="final" d="M396 -291q-7 -72 -34 -88l-240 -137q0 31 3.5 42.5t9.5 20t15 15.5t25 16zM458 -150q-7 -72 -34 -88l-239 -137q0 31 3 42.5t9 20t15.5 15.5t24.5 16z" />
<glyph unicode="&#xfc97;" arabic-form="initial" d="M466 -284q-7 -72 -34 -89l-240 -136q0 31 3.5 42.5t9.5 20t15 15.5t25 15zM203 -149q19 0 75 -63q18 -15 18 -32q-11 -42 -30 -42h-85q-49 -8 -49 -26l36 -244q-6 -44 -20 -44q-16 0 -22 77l-28 195q0 32 48 100v8q0 42 44 70z" />
<glyph unicode="&#xfc98;" arabic-form="initial" d="M323 -150q-7 -72 -34 -89l-240 -136q0 31 3.5 42.5t9 20t15 15.5t25.5 15z" />
<glyph unicode="&#xfc99;" arabic-form="initial" d="M327 -275q-7 -72 -35 -88l-239 -137q0 31 3.5 42.5t9 20t15 15.5t24.5 16zM323 -151q-7 -72 -34 -89l-240 -136q0 31 3.5 42.5t9 20t15 15.5t25.5 15z" />
<glyph unicode="&#xfc9a;" arabic-form="initial" d="M298 -296q-7 -72 -34 -88l-240 -137q0 31 3.5 42.5t9.5 20t15.5 15.5t24.5 16zM361 -155q-7 -72 -34 -88l-240 -137q0 31 3.5 42.5t9 20t15 16t25.5 15.5z" />
<glyph unicode="&#xfc9b;" arabic-form="initial" d="M369 -284q-7 -72 -35 -89l-239 -136q0 31 3.5 42.5t9 20t15 15.5t24.5 15zM105 -149q19 0 76 -63q18 -15 17 -32q-11 -42 -30 -42h-85q-49 -8 -48 -26l36 -244q-6 -44 -20 -44q-16 0 -22 77l-29 195q0 32 49 100v8q0 42 44 70z" />
<glyph unicode="&#xfc9c;" arabic-form="initial" d="M518 -292q-7 -72 -34 -88l-240 -137q0 31 3.5 42.5t9.5 20t15 15.5t25 16z" />
<glyph unicode="&#xfc9d;" arabic-form="initial" d="M522 -421q-7 -72 -34 -89l-240 -136q0 31 3.5 42.5t9.5 20t15 15.5t25 15zM518 -298q-7 -72 -34 -88l-240 -137q0 31 3.5 42.5t9.5 20t15 15.5t25 16z" />
<glyph unicode="&#xfc9e;" arabic-form="initial" d="M494 -438q-7 -72 -35 -88l-239 -137q0 31 3.5 43t9 20.5t15 15.5t24.5 15zM556 -296q-7 -72 -34 -89l-240 -136q0 31 3.5 42.5t9.5 20t15 15.5t25 15z" />
<glyph unicode="&#xfc9f;" arabic-form="initial" d="M589 -431q-7 -72 -34 -88l-240 -137q0 31 3.5 42.5t9.5 20.5t15.5 16t24.5 15zM287 -257q17 0 66 -55q15 -13 15 -27q-10 -37 -26 -36h-74q-42 -8 -42 -24l31 -212q-5 -38 -18 -38t-19 67l-25 169q0 28 43 88v7q0 37 38 60z" />
<glyph unicode="&#xfca0;" arabic-form="initial" d="M518 -93q-7 -72 -34 -88l-240 -137q0 31 3.5 42.5t9.5 20t15 15.5t25 16z" />
<glyph unicode="&#xfca1;" arabic-form="initial" d="M466.594 -201.795q-5.59961 -57.5986 -27.1992 -71.1992l-191.998 -108.798q0 24.7998 2.80078 33.999q2.7998 9.2002 7.59961 16t12 12.4004q7.19922 5.59961 19.999 11.999zM463.394 -103.396q-5.59961 -57.5986 -27.1992 -70.3984l-191.997 -109.599 q0 24.7998 2.7998 33.999q2.7998 9.2002 7.59961 16t12 12.4004q7.2002 5.59961 20 12.7998z" />
<glyph unicode="&#xfca2;" arabic-form="initial" d="M463.194 -213.395q-5.60059 -57.5996 -28 -70.3994l-191.197 -109.598q0 24.7998 2.7998 34.3994q2.80078 9.59961 7.2002 16.3994q4.40039 6.7998 12 12.3994q7.59961 5.60059 19.5996 12zM512.793 -99.7969q-5.59961 -57.5986 -27.1992 -71.1982l-191.997 -108.799 q0 24.7998 2.7998 34q2.7998 9.19922 7.59961 16q4.7998 6.7998 12 12.3994t20 12z" />
<glyph unicode="&#xfca3;" arabic-form="initial" d="M559.192 -210.795q-5.59961 -57.5986 -27.1992 -70.3984l-191.997 -109.599q0 24.7998 2.7998 33.999q2.7998 9.2002 7.60059 16.4004q4.7998 7.19922 12.3994 12.7998q7.59961 5.59961 19.5996 12zM317.597 -71.5967q13.5996 0 52.7988 -43.999q12 -10.4004 12 -21.6006 q-8 -29.5986 -20.7998 -28.7988h-59.1992q-33.5996 -6.40039 -33.5996 -19.2002l24.7998 -169.598q-4 -30.3994 -14.3994 -30.3994q-10.4004 0 -15.2002 53.5996l-19.999 135.198q0 22.3994 34.3994 70.3984v5.59961q0 29.5996 30.3994 48z" />
<glyph unicode="&#xfca4;" arabic-form="initial" d="M518 -536q-7 -72 -34 -89l-240 -136q0 31 3.5 42.5t9.5 20t15 15.5t25 16z" />
<glyph unicode="&#xfca5;" arabic-form="initial" d="M522 -568q-7 -72 -34 -88l-240 -137q0 31 3.5 42.5t9.5 20t15 15.5t25 16zM518 -444q-7 -72 -34 -89l-240 -136q0 31 3.5 42.5t9.5 20t15 15.5t25 15z" />
<glyph unicode="&#xfca6;" arabic-form="initial" d="M494 -584q-7 -72 -35 -88l-239 -137q0 31 3.5 42.5t9 20t15 15.5t24.5 16zM556 -443q-7 -72 -34 -88l-240 -137q0 31 3.5 42.5t9.5 20t15 15.5t25 16z" />
<glyph unicode="&#xfca7;" arabic-form="initial" d="M564 -582q-7 -72 -34 -88l-240 -137q0 31 3.5 42.5t9.5 20t15 15.5t25 16zM287 -447q17 0 66 -55q15 -13 15 -27q-10 -37 -26 -37h-74q-42 -8 -42 -23l31 -212q-5 -38 -18 -38t-19 67l-25 169q0 28 43 87v7q0 37 38 61z" />
<glyph unicode="&#xfccc;" horiz-adv-x="347" arabic-form="initial" d="M160 537l30 9q27 -46 34 -209q-4 -126 -14 -126q-35 170 -61 251l-13 35q0 26 24 40zM251.99 680.796q12 0 11.4004 -9.59961q0 -49.1982 -130.795 -70.7969q-2.40039 -0.599609 -6 -0.599609q-8.39941 0 -22.1992 2.99902q-19.7988 4.2002 -34.1982 4.2002h-3.59961 l-29.3994 -20.999q-13.1992 0 -13.1992 12.5996q0 22.1992 40.7988 59.3975l11.3994 3l47.998 -14.3994q65.9971 0 114.595 34.1982h13.1992zM0 109h349.696q36.4004 -17 36.4004 -55q0 -39 -36.4004 -54h-349.696v109z" />
<glyph unicode="&#xfccd;" horiz-adv-x="329" arabic-form="initial" d="M167 524l30 9q27 -46 34 -209q-4 -126 -14 -126q-35 170 -61 251l-13 35q0 26 24 40zM258.99 667.796q12 0 11.4004 -9.59961q0 -49.1982 -130.795 -70.7969q-2.40039 -0.599609 -6 -0.599609q-8.39941 0 -22.1992 2.99902q-19.7988 4.2002 -34.1982 4.2002h-3.59961 l-29.3994 -20.999q-13.1992 0 -13.1992 12.5996q0 22.1992 40.7988 59.3975l11.3994 3l47.998 -14.3994q65.9971 0 114.595 34.1982h13.1992z" />
<glyph unicode="&#xfcce;" arabic-form="initial" d="M122 677l30 9q27 -46 34 -209q-4 -126 -14 -126q-35 170 -61 251l-13 35q0 26 24 40z" />
<glyph unicode="&#xfccf;" horiz-adv-x="315" arabic-form="initial" d="M0 109h322.804q33.5996 -17 33.5996 -55q0 -39 -33.5996 -54h-322.804v109zM111 529q17 0 34 -22v-1q-6 -34 -32 -34q-17 0 -30 19q11 38 28 38zM202 462h3q23 0 53 -92l4 -42q0 -64 -101 -101l-31 -4q-64 0 -95 60l-4 25q0 34 37 79h4q8 0 8 -4v-3l-17 -50v-1 q0 -40 65 -53h22q30 0 75 29q5 9 6 15v7q0 25 -41 87l-4 17q9 31 16 31z" />
<glyph unicode="&#xfcd0;" horiz-adv-x="347" arabic-form="initial" d="M0 109h349.696q36.4004 -17 36.4004 -55q0 -39 -36.4004 -54h-349.696v109zM230 543q45 0 71 -92l1 -13v-2q0 -90 -94 -151q-33 -18 -64 -18h-3l-1 -2l-2 2h-4q-35 0 -108 23l-2 9l1 2h67q90 0 162 90q17 25 17 31l-3 3q-23 -19 -34 -19q-41 0 -53 55q22 82 49 82z M222 475v-5l1 -7h10q11 0 15 16q0 10 -10 9h-11q-3 1 -5 -13zM288.99 693.796q12 0 11.4004 -9.59961q0 -49.1982 -130.795 -70.7969q-2.40039 -0.599609 -6 -0.599609q-8.39941 0 -22.1992 2.99902q-19.7988 4.2002 -34.1982 4.2002h-3.59961l-29.3994 -20.999 q-13.1992 0 -13.1992 12.5996q0 22.1992 40.7988 59.3975l11.3994 3l47.998 -14.3994q65.9971 0 114.595 34.1982h13.1992z" />
<glyph unicode="&#xfcd1;" horiz-adv-x="534" arabic-form="initial" d="M0 109h537.967q55.9971 -17 55.9971 -55q0 -39 -55.9971 -54h-537.967v109zM278 398q22 16 43 24q23 -18 26 -48v-7q0 -15 -7 -15q-3 0 -8 3q-4 2 -10 3q-21 0 -64 -29q-56 -39 -136 -81q51 -9 151 -9h45q133 2 189 18q-5 -43 -60 -52t-142 -11l-54 -1q-113 5 -177 8 q-22 17 -23 39q3 24 92.5 73.5t134.5 84.5z" />
<glyph unicode="&#xfcd3;" arabic-form="initial" d="M302 939q20 0 19 -16q0 -82 -218 -118q-4 -1 -10 -1q-14 0 -37 5q-33 7 -57 7h-6l-49 -35q-22 0 -22 21q0 37 68 99l19 5l80 -24q110 0 191 57h22z" />
<glyph unicode="&#xfcd4;" arabic-form="initial" d="M478 744q20 0 19 -16q0 -82 -218 -118q-4 -1 -10 -1q-14 0 -37 5q-33 7 -57 7h-6l-49 -35q-22 0 -22 21q0 37 68 99l19 5l80 -24q110 0 191 57h22z" />
<glyph unicode="&#xfcd6;" arabic-form="initial" d="M367 729q0 -36 -34 -87q-39 -56 -82 -56q-22 0 -40 22q-16 18 -16 31q0 32 30 90q35 68 73 68q19 0 44 -24t25 -44zM314 696q-22 22 -36 22q-5 0 -29 -21v-23l7 -8h36q22 21 22 30z" />
<glyph unicode="&#xfcd7;" arabic-form="initial" d="M181 729q0 -36 -34 -87q-39 -56 -81 -56q-22 0 -41 22q-16 18 -15 31q0 32 30 90q35 68 72 68q19 0 44 -24t25 -44zM128 696q-22 22 -36 22q-5 0 -29 -21v-23l8 -8h36q21 21 21 30z" />
<glyph unicode="&#xfcd8;" arabic-form="initial" d="M553 600q11 0 21 -46q-14 -58 -40 -59l-37 13h-1q-32 -15 -57 -23q-9 -6 -9 -38q-8 -31 -25 -42q-47 -37 -109 -37q-38 0 -68 37q-13 26 -13 37v8q0 28 26 66l8 7h1q6 -5 7 -9l-13 -46v-9q0 -29 50 -42q7 -2 21 -3q51 0 90 33q4 8 3 12v9q0 19 -25 64l-2 7q0 9 12 25 q3 0 29 -28q6 -4 16 -4q31 0 45 19q8 36 16 36h2q12 -9 11 -18l-1 -12q12 -15 23 -15h4q5 3 6 7l-5 21q4 30 14 30z" />
<glyph unicode="&#xfcd9;" horiz-adv-x="574" arabic-form="initial" d="M229 482h3q36 0 164 -82q186 -93 186 -218v-3q0 -116 -77 -150h-8l-186 43h-3q-163 -69 -223 -72h-85v109h79l52 -3q38 6 38 27v13q0 96 49 189q-14 34 -13 52v19q8 76 24 76zM237 229v-22q0 -8 50 -17h16q36 0 35 30q-24 63 -38 63h-13q-50 -33 -50 -54zM410 256 q-14 -35 -14 -66q20 -24 79 -44h27q17 11 19 20q0 41 -109 92zM339 930l30 9q27 -46 34 -209q-4 -126 -14 -126q-35 170 -61 251l-13 35q0 26 24 40z" />
<glyph unicode="&#xfcda;" horiz-adv-x="936" arabic-form="initial" d="M826 328q47 0 99 -164q-3 -96 -78 -125q-70 -36 -159 -39h-51v109q116 0 158.5 7t49.5 40q-2 24 -32 61t-30 54q19 57 43 57zM800 -152l-51 -79l-80 55l52 77zM943 -128l-51 -79l-80 55l52 77zM178 347q203 -74 270 -93l31 -3h16l47 6q60 -5 60 -38q0 -55 -77 -73v-19v-1 q0 -17 55 -17h50q31 -16 31 -54t-31 -55h-31q-102 0 -120 27q-12 19 -11 49q0 14 2 30v28q-11 13 -32 12h-18q-3 0 -7 1q-45 0 -123 -44q-85 -48 -121 -64.5t-64.5 -24.5t-70.5 -14h-34v109q31 0 77 9.5t99.5 30t72.5 45.5q-25 35 -80 35h-2q-35 0 -104 -41h-11q-7 0 -14 20 q6 85 126 137zM379 -70q-33 -60 -69 -69q-31 5 -68 69l68 68z" />
<glyph unicode="&#xfcdb;" horiz-adv-x="936" arabic-form="initial" d="M826 328q47 0 99 -164q-3 -96 -78 -125q-70 -36 -159 -39h-51v109q116 0 158.5 7t49.5 40q-2 24 -32 61t-30 54q19 57 43 57zM800 -152l-51 -79l-80 55l52 77zM943 -128l-51 -79l-80 55l52 77zM178 347q203 -74 270 -93l31 -3h16l47 6q60 -5 60 -38q0 -55 -77 -73v-19v-1 q0 -17 55 -17h50q31 -16 31 -54t-31 -55h-31q-102 0 -120 27q-12 19 -11 49q0 14 2 30v28q-11 13 -32 12h-18q-3 0 -7 1q-45 0 -123 -44q-85 -48 -121 -64.5t-64.5 -24.5t-70.5 -14h-34v109q31 0 77 9.5t99.5 30t72.5 45.5q-25 35 -80 35h-2q-35 0 -104 -41h-11q-7 0 -14 20 q6 85 126 137z" />
<glyph unicode="&#xfcdc;" horiz-adv-x="936" arabic-form="initial" d="M826 328q47 0 99 -164q-3 -96 -78 -125q-70 -36 -159 -39h-51v109q116 0 158.5 7t49.5 40q-2 24 -32 61t-30 54q19 57 43 57zM800 -152l-51 -79l-80 55l52 77zM943 -128l-51 -79l-80 55l52 77zM178 347q203 -74 270 -93l31 -3h16l47 6q60 -5 60 -38q0 -55 -77 -73v-19v-1 q0 -17 55 -17h50q31 -16 31 -54t-31 -55h-31q-102 0 -120 27q-12 19 -11 49q0 14 2 30v28q-11 13 -32 12h-18q-3 0 -7 1q-45 0 -123 -44q-85 -48 -121 -64.5t-64.5 -24.5t-70.5 -14h-34v109q31 0 77 9.5t99.5 30t72.5 45.5q-25 35 -80 35h-2q-35 0 -104 -41h-11q-7 0 -14 20 q6 85 126 137zM277 505q-33 -60 -69 -69q-31 5 -68 69l68 68z" />
<glyph unicode="&#xfcdd;" horiz-adv-x="877" arabic-form="initial" d="M767 328q47 0 99 -164q-3 -96 -78 -125q-70 -36 -159 -39h-51v109q116 0 158.5 7t49.5 40q-2 24 -32 61t-30 54q19 57 43 57zM741 -152l-51 -79l-80 55l52 77zM884 -128l-51 -79l-80 55l52 77zM298 276q20 0 98 -95q60 -68 122 -72h54q28 -16 28 -54q0 -39 -28 -55h-54 q-49 0 -102 25q-34 -26 -96 -31q-87 22 -113 38q-12 7 -26 7q-19 0 -42 -12q-40 -23 -112 -27h-27v109h55q57 0 150 110q20 25 44.5 40.5t48.5 16.5zM229 150q23 -27 58 -27h19q1 1 2 4q0 7 -11 23q-15 21 -37 28h-6q-17 -9 -25 -28z" />
<glyph unicode="&#xfcde;" horiz-adv-x="806" arabic-form="initial" d="M696 328q47 0 99 -164q-3 -96 -78 -125q-70 -36 -159 -39h-51v109q116 0 158.5 7t49.5 40q-2 24 -32 61t-30 54q19 57 43 57zM670 -152l-51 -79l-80 55l52 77zM813 -128l-51 -79l-80 55l52 77zM339 403q49 0 74 -161q0 -47 -38 -101v-3q9 -17 75 -29h51q33 -13 33 -54 q0 -42 -33 -55h-62l-26 4q25 -83 25 -98q-15 -134 -102 -134h-3q-51 0 -111 55l-72 123q0 13 -30 32q-28 18 -101 18h-19v111l33 -3h60q68 13 68 38q102 198 145 241l14 8zM246 174v-17q93 28 93 69v22q0 15 -16 24h-6q-71 -82 -71 -98zM241 -31v-31q35 -52 84 -51h6 q15 0 22 13v3q0 21 -61 60l-24 6h-27z" />
<glyph unicode="&#xfcdf;" horiz-adv-x="921" arabic-form="medial" d="M808 229q12 0 20 -22q18 -63 66 -91q12 -7 37 -7h28q24 -14 24 -53q0 -40 -24 -56h-43q-28 0 -59 27.5t-49 47.5q-66 -75 -203 -75h-27v109h62q116 1 133 76q14 44 35 44zM792.235 473.872q39.5996 0 38.8789 -38.8789q-4.31934 -35.2793 -33.8379 -35.999 l-33.1191 22.3203h-10.0811q-13.6787 0 -30.958 -25.9199q21.5986 -31.6787 60.4785 -31.6787l82.7969 13.6797q23.7588 -2.88086 23.7588 -10.0791v-5.76172q0 -33.8379 -70.5576 -41.0381q-24.4785 0 -100.797 -51.1191l-19.4395 -7.91895l-4.31934 11.5195v2.16113 l15.8398 31.6777l-37.4395 41.0391l-1.43945 12.2402q0 55.4385 102.236 110.156q17.999 1.43945 17.999 3.59961zM298 276q20 0 98 -95q60 -68 122 -72h54q28 -16 28 -54q0 -39 -28 -55h-54q-49 0 -102 25q-34 -26 -96 -31q-87 22 -113 38q-12 7 -26 7q-19 0 -42 -12 q-40 -23 -112 -27h-27v109h55q57 0 150 110q20 25 44.5 40.5t48.5 16.5zM229 150q23 -27 58 -27h19q1 1 2 4q0 7 -11 23q-15 21 -37 28h-6q-17 -9 -25 -28z" />
<glyph unicode="&#xfce0;" horiz-adv-x="850" arabic-form="medial" d="M737 229q12 0 20 -22q18 -63 66 -91q12 -7 37 -7h28q24 -14 24 -53q0 -40 -24 -56h-43q-28 0 -59 27.5t-49 47.5q-66 -75 -203 -75h-27v109h62q116 1 133 76q14 44 35 44zM721.235 473.872q39.5996 0 38.8789 -38.8789q-4.31934 -35.2793 -33.8379 -35.999 l-33.1191 22.3203h-10.0811q-13.6787 0 -30.958 -25.9199q21.5986 -31.6787 60.4785 -31.6787l82.7969 13.6797q23.7588 -2.88086 23.7588 -10.0791v-5.76172q0 -33.8379 -70.5576 -41.0381q-24.4785 0 -100.797 -51.1191l-19.4395 -7.91895l-4.31934 11.5195v2.16113 l15.8398 31.6777l-37.4395 41.0391l-1.43945 12.2402q0 55.4385 102.236 110.156q17.999 1.43945 17.999 3.59961zM339 403q49 0 74 -161q0 -47 -38 -101v-3q9 -17 75 -29h51q33 -13 33 -54q0 -42 -33 -55h-62l-26 4q25 -83 25 -98q-15 -134 -102 -134h-3q-51 0 -111 55 l-72 123q0 13 -30 32q-28 18 -101 18h-19v111l33 -3h60q68 13 68 38q102 198 145 241l14 8zM246 174v-17q93 28 93 69v22q0 15 -16 24h-6q-71 -82 -71 -98zM241 -31v-31q35 -52 84 -51h6q15 0 22 13v3q0 21 -61 60l-24 6h-27z" />
<glyph unicode="&#xfce1;" horiz-adv-x="921" arabic-form="medial" d="M808 229q12 0 20 -22q18 -63 66 -91q12 -7 37 -7h28q24 -14 24 -53q0 -40 -24 -56h-43q-28 0 -59 27.5t-49 47.5q-66 -75 -203 -75h-27v109h62q116 1 133 76q14 44 35 44zM803 -117q-33 -60 -69 -69q-31 5 -68 69l68 68zM298 276q20 0 98 -95q60 -68 122 -72h54 q28 -16 28 -54q0 -39 -28 -55h-54q-49 0 -102 25q-34 -26 -96 -31q-87 22 -113 38q-12 7 -26 7q-19 0 -42 -12q-40 -23 -112 -27h-27v109h55q57 0 150 110q20 25 44.5 40.5t48.5 16.5zM229 150q23 -27 58 -27h19q1 1 2 4q0 7 -11 23q-15 21 -37 28h-6q-17 -9 -25 -28z" />
<glyph unicode="&#xfce2;" horiz-adv-x="850" arabic-form="medial" d="M737 229q12 0 20 -22q18 -63 66 -91q12 -7 37 -7h28q24 -14 24 -53q0 -40 -24 -56h-43q-28 0 -59 27.5t-49 47.5q-66 -75 -203 -75h-27v109h62q116 1 133 76q14 44 35 44zM732 -117q-33 -60 -69 -69q-31 5 -68 69l68 68zM339 403q49 0 74 -161q0 -47 -38 -101v-3 q9 -17 75 -29h51q33 -13 33 -54q0 -42 -33 -55h-62l-26 4q25 -83 25 -98q-15 -134 -102 -134h-3q-51 0 -111 55l-72 123q0 13 -30 32q-28 18 -101 18h-19v111l33 -3h60q68 13 68 38q102 198 145 241l14 8zM246 174v-17q93 28 93 69v22q0 15 -16 24h-6q-71 -82 -71 -98z M241 -31v-31q35 -52 84 -51h6q15 0 22 13v3q0 21 -61 60l-24 6h-27z" />
<glyph unicode="&#xfce3;" horiz-adv-x="951" arabic-form="medial" d="M808 229q12 0 20 -22q18 -63 66 -91q12 -7 37 -7h28q24 -14 24 -53q0 -40 -24 -56h-43q-28 0 -59 27.5t-49 47.5q-66 -75 -203 -75h-27v109h62q116 1 133 76q14 44 35 44zM720 391l-51 -79l-80 55l52 77zM863 415l-51 -79l-80 55l52 77zM298 276q20 0 98 -95 q60 -68 122 -72h54q28 -16 28 -54q0 -39 -28 -55h-54q-49 0 -102 25q-34 -26 -96 -31q-87 22 -113 38q-12 7 -26 7q-19 0 -42 -12q-40 -23 -112 -27h-27v109h55q57 0 150 110q20 25 44.5 40.5t48.5 16.5zM229 150q23 -27 58 -27h19q1 1 2 4q0 7 -11 23q-15 21 -37 28h-6 q-17 -9 -25 -28z" />
<glyph unicode="&#xfce4;" horiz-adv-x="880" arabic-form="medial" d="M737 229q12 0 20 -22q18 -63 66 -91q12 -7 37 -7h28q24 -14 24 -53q0 -40 -24 -56h-43q-28 0 -59 27.5t-49 47.5q-66 -75 -203 -75h-27v109h62q116 1 133 76q14 44 35 44zM649 391l-51 -79l-80 55l52 77zM792 415l-51 -79l-80 55l52 77zM339 403q49 0 74 -161 q0 -47 -38 -101v-3q9 -17 75 -29h51q33 -13 33 -54q0 -42 -33 -55h-62l-26 4q25 -83 25 -98q-15 -134 -102 -134h-3q-51 0 -111 55l-72 123q0 13 -30 32q-28 18 -101 18h-19v111l33 -3h60q68 13 68 38q102 198 145 241l14 8zM246 174v-17q93 28 93 69v22q0 15 -16 24h-6 q-71 -82 -71 -98zM241 -31v-31q35 -52 84 -51h6q15 0 22 13v3q0 21 -61 60l-24 6h-27z" />
<glyph unicode="&#xfce5;" horiz-adv-x="951" arabic-form="medial" d="M808 229q12 0 20 -22q18 -63 66 -91q12 -7 37 -7h28q24 -14 24 -53q0 -40 -24 -56h-43q-28 0 -59 27.5t-49 47.5q-66 -75 -203 -75h-27v109h62q116 1 133 76q14 44 35 44zM716 351l-51 -79l-80 55l52 77zM872 373l-51 -79l-80 55l52 77zM773 510l-52 -79l-80 55l52 77z M298 276q20 0 98 -95q60 -68 122 -72h54q28 -16 28 -54q0 -39 -28 -55h-54q-49 0 -102 25q-34 -26 -96 -31q-87 22 -113 38q-12 7 -26 7q-19 0 -42 -12q-40 -23 -112 -27h-27v109h55q57 0 150 110q20 25 44.5 40.5t48.5 16.5zM229 150q23 -27 58 -27h19q1 1 2 4q0 7 -11 23 q-15 21 -37 28h-6q-17 -9 -25 -28z" />
<glyph unicode="&#xfce6;" horiz-adv-x="880" arabic-form="medial" d="M737 229q12 0 20 -22q18 -63 66 -91q12 -7 37 -7h28q24 -14 24 -53q0 -40 -24 -56h-43q-28 0 -59 27.5t-49 47.5q-66 -75 -203 -75h-27v109h62q116 1 133 76q14 44 35 44zM645 351l-51 -79l-80 55l52 77zM801 373l-51 -79l-80 55l52 77zM702 510l-52 -79l-80 55l52 77z M339 403q49 0 74 -161q0 -47 -38 -101v-3q9 -17 75 -29h51q33 -13 33 -54q0 -42 -33 -55h-62l-26 4q25 -83 25 -98q-15 -134 -102 -134h-3q-51 0 -111 55l-72 123q0 13 -30 32q-28 18 -101 18h-19v111l33 -3h60q68 13 68 38q102 198 145 241l14 8zM246 174v-17q93 28 93 69 v22q0 15 -16 24h-6q-71 -82 -71 -98zM241 -31v-31q35 -52 84 -51h6q15 0 22 13v3q0 21 -61 60l-24 6h-27z" />
<glyph unicode="&#xfce7;" horiz-adv-x="1428" arabic-form="medial" d="M1212 229q14 -10 19.5 -36t39 -55t52.5 -29h14q30 -15 30 -53q0 -44 -30 -56h-17q-50 5 -130 71l-46 -44q-19 -14 -44 -13l-74 10q-58 -16 -100 -16q-21 0 -38 4q-52 12 -72 12q-101 -24 -170 -24h-68v109h53l78 3q108 0 148 76l19 6h3q21 0 22 -25l-11 -51 q17 -14 35 -14h25q54 0 66 36q29 74 51 73h11q6 0 14 -25l-3 -13v-38q6 -14 28 -14h3q37 0 70 82zM298 276q20 0 98 -95q60 -68 122 -72h54q28 -16 28 -54q0 -39 -28 -55h-54q-49 0 -102 25q-34 -26 -96 -31q-87 22 -113 38q-12 7 -26 7q-19 0 -42 -12q-40 -23 -112 -27h-27 v109h55q57 0 150 110q20 25 44.5 40.5t48.5 16.5zM229 150q23 -27 58 -27h19q1 1 2 4q0 7 -11 23q-15 21 -37 28h-6q-17 -9 -25 -28z" />
<glyph unicode="&#xfce8;" horiz-adv-x="1357" arabic-form="medial" d="M1141 229q14 -10 19.5 -36t39 -55t52.5 -29h14q30 -15 30 -53q0 -44 -30 -56h-17q-50 5 -130 71l-46 -44q-19 -14 -44 -13l-74 10q-58 -16 -100 -16q-21 0 -38 4q-52 12 -72 12q-101 -24 -170 -24h-68v109h53l78 3q108 0 148 76l19 6h3q21 0 22 -25l-11 -51 q17 -14 35 -14h25q54 0 66 36q29 74 51 73h11q6 0 14 -25l-3 -13v-38q6 -14 28 -14h3q37 0 70 82zM339 403q49 0 74 -161q0 -47 -38 -101v-3q9 -17 75 -29h51q33 -13 33 -54q0 -42 -33 -55h-62l-26 4q25 -83 25 -98q-15 -134 -102 -134h-3q-51 0 -111 55l-72 123 q0 13 -30 32q-28 18 -101 18h-19v111l33 -3h60q68 13 68 38q102 198 145 241l14 8zM246 174v-17q93 28 93 69v22q0 15 -16 24h-6q-71 -82 -71 -98zM241 -31v-31q35 -52 84 -51h6q15 0 22 13v3q0 21 -61 60l-24 6h-27z" />
<glyph unicode="&#xfce9;" horiz-adv-x="1428" arabic-form="medial" d="M1212 229q14 -10 19.5 -36t39 -55t52.5 -29h14q30 -15 30 -53q0 -44 -30 -56h-17q-50 5 -130 71l-46 -44q-19 -14 -44 -13l-74 10q-58 -16 -100 -16q-21 0 -38 4q-52 12 -72 12q-101 -24 -170 -24h-68v109h53l78 3q108 0 148 76l19 6h3q21 0 22 -25l-11 -51 q17 -14 35 -14h25q54 0 66 36q29 74 51 73h11q6 0 14 -25l-3 -13v-38q6 -14 28 -14h3q37 0 70 82zM1040 385l-51 -79l-80 55l52 77zM1196 407l-51 -79l-80 55l52 77zM1097 544l-52 -79l-80 55l52 77zM298 276q20 0 98 -95q60 -68 122 -72h54q28 -16 28 -54q0 -39 -28 -55 h-54q-49 0 -102 25q-34 -26 -96 -31q-87 22 -113 38q-12 7 -26 7q-19 0 -42 -12q-40 -23 -112 -27h-27v109h55q57 0 150 110q20 25 44.5 40.5t48.5 16.5zM229 150q23 -27 58 -27h19q1 1 2 4q0 7 -11 23q-15 21 -37 28h-6q-17 -9 -25 -28z" />
<glyph unicode="&#xfcea;" horiz-adv-x="1357" arabic-form="medial" d="M1141 229q14 -10 19.5 -36t39 -55t52.5 -29h14q30 -15 30 -53q0 -44 -30 -56h-17q-50 5 -130 71l-46 -44q-19 -14 -44 -13l-74 10q-58 -16 -100 -16q-21 0 -38 4q-52 12 -72 12q-101 -24 -170 -24h-68v109h53l78 3q108 0 148 76l19 6h3q21 0 22 -25l-11 -51 q17 -14 35 -14h25q54 0 66 36q29 74 51 73h11q6 0 14 -25l-3 -13v-38q6 -14 28 -14h3q37 0 70 82zM969 385l-51 -79l-80 55l52 77zM1125 407l-51 -79l-80 55l52 77zM1026 544l-52 -79l-80 55l52 77zM339 403q49 0 74 -161q0 -47 -38 -101v-3q9 -17 75 -29h51q33 -13 33 -54 q0 -42 -33 -55h-62l-26 4q25 -83 25 -98q-15 -134 -102 -134h-3q-51 0 -111 55l-72 123q0 13 -30 32q-28 18 -101 18h-19v111l33 -3h60q68 13 68 38q102 198 145 241l14 8zM246 174v-17q93 28 93 69v22q0 15 -16 24h-6q-71 -82 -71 -98zM241 -31v-31q35 -52 84 -51h6 q15 0 22 13v3q0 21 -61 60l-24 6h-27z" />
<glyph unicode="&#xfceb;" horiz-adv-x="808" arabic-form="medial" d="M1040 924q19 0 22 -25q-22 -71 -60 -70l-229 -101l-353 -140q-29 -18 -43 -36q372 -373 421 -408t136 -35h193q25 -20 25 -53q0 -41 -25 -56h-212q-112 12 -177 68q-123 128 -154 137v-5q0 -19 7 -44l4 -36q-8 -67 -39 -93t-104 -27h-152v109h137q68 0 72 47l-8 49 q-10 49 -37 85q-104 127 -150 191l-14 47q0 128 273 219q219 93 445 177h22zM124 693h5q10 0 41 -171q57 -348 71 -377q39 -36 68 -36h74q28 -16 29 -54q0 -37 -29 -55h-84q-58 5 -107 55l-8 3q-73 -58 -125 -58h-59v109h47h17q79 0 95 47v8l-76 466q15 63 41 63z" />
<glyph unicode="&#xfcec;" horiz-adv-x="1086" arabic-form="medial" d="M1318 924q19 0 22 -25q-22 -71 -60 -70l-229 -101l-353 -140q-29 -18 -43 -36q372 -373 421 -408t136 -35h193q25 -20 25 -53q0 -41 -25 -56h-212q-112 12 -177 68q-123 128 -154 137v-5q0 -19 7 -44l4 -36q-8 -67 -39 -93t-104 -27h-152v109h137q68 0 72 47l-8 49 q-10 49 -37 85q-104 127 -150 191l-14 47q0 128 273 219q219 93 445 177h22zM298 276q20 0 98 -95q60 -68 122 -72h54q28 -16 28 -54q0 -39 -28 -55h-54q-49 0 -102 25q-34 -26 -96 -31q-87 22 -113 38q-12 7 -26 7q-19 0 -42 -12q-40 -23 -112 -27h-27v109h55q57 0 150 110 q20 25 44.5 40.5t48.5 16.5zM229 150q23 -27 58 -27h19q1 1 2 4q0 7 -11 23q-15 21 -37 28h-6q-17 -9 -25 -28z" />
<glyph unicode="&#xfced;" horiz-adv-x="878" arabic-form="medial" d="M702 693h5q10 0 41 -171q57 -348 71 -377q39 -36 68 -36h74q28 -16 29 -54q0 -37 -29 -55h-84q-58 5 -107 55l-8 3q-73 -58 -125 -58h-59v109h47h17q79 0 95 47v8l-76 466q15 63 41 63zM298 276q20 0 98 -95q60 -68 122 -72h54q28 -16 28 -54q0 -39 -28 -55h-54 q-49 0 -102 25q-34 -26 -96 -31q-87 22 -113 38q-12 7 -26 7q-19 0 -42 -12q-40 -23 -112 -27h-27v109h55q57 0 150 110q20 25 44.5 40.5t48.5 16.5zM229 150q23 -27 58 -27h19q1 1 2 4q0 7 -11 23q-15 21 -37 28h-6q-17 -9 -25 -28z" />
<glyph unicode="&#xfcee;" horiz-adv-x="921" arabic-form="medial" d="M808 229q12 0 20 -22q18 -63 66 -91q12 -7 37 -7h28q24 -14 24 -53q0 -40 -24 -56h-43q-28 0 -59 27.5t-49 47.5q-66 -75 -203 -75h-27v109h62q116 1 133 76q14 44 35 44zM735 387q-33 -60 -69 -69q-31 5 -68 69l68 68zM298 276q20 0 98 -95q60 -68 122 -72h54 q28 -16 28 -54q0 -39 -28 -55h-54q-49 0 -102 25q-34 -26 -96 -31q-87 22 -113 38q-12 7 -26 7q-19 0 -42 -12q-40 -23 -112 -27h-27v109h55q57 0 150 110q20 25 44.5 40.5t48.5 16.5zM229 150q23 -27 58 -27h19q1 1 2 4q0 7 -11 23q-15 21 -37 28h-6q-17 -9 -25 -28z" />
<glyph unicode="&#xfcef;" horiz-adv-x="850" arabic-form="medial" d="M737 229q12 0 20 -22q18 -63 66 -91q12 -7 37 -7h28q24 -14 24 -53q0 -40 -24 -56h-43q-28 0 -59 27.5t-49 47.5q-66 -75 -203 -75h-27v109h62q116 1 133 76q14 44 35 44zM664 387q-33 -60 -69 -69q-31 5 -68 69l68 68zM339 403q49 0 74 -161q0 -47 -38 -101v-3 q9 -17 75 -29h51q33 -13 33 -54q0 -42 -33 -55h-62l-26 4q25 -83 25 -98q-15 -134 -102 -134h-3q-51 0 -111 55l-72 123q0 13 -30 32q-28 18 -101 18h-19v111l33 -3h60q68 13 68 38q102 198 145 241l14 8zM246 174v-17q93 28 93 69v22q0 15 -16 24h-6q-71 -82 -71 -98z M241 -31v-31q35 -52 84 -51h6q15 0 22 13v3q0 21 -61 60l-24 6h-27z" />
<glyph unicode="&#xfcf0;" horiz-adv-x="951" arabic-form="medial" d="M808 229q12 0 20 -22q18 -63 66 -91q12 -7 37 -7h28q24 -14 24 -53q0 -40 -24 -56h-43q-28 0 -59 27.5t-49 47.5q-66 -75 -203 -75h-27v109h62q116 1 133 76q14 44 35 44zM749 -154l-51 -79l-80 55l52 77zM892 -130l-51 -79l-80 55l52 77zM298 276q20 0 98 -95 q60 -68 122 -72h54q28 -16 28 -54q0 -39 -28 -55h-54q-49 0 -102 25q-34 -26 -96 -31q-87 22 -113 38q-12 7 -26 7q-19 0 -42 -12q-40 -23 -112 -27h-27v109h55q57 0 150 110q20 25 44.5 40.5t48.5 16.5zM229 150q23 -27 58 -27h19q1 1 2 4q0 7 -11 23q-15 21 -37 28h-6 q-17 -9 -25 -28z" />
<glyph unicode="&#xfcf1;" horiz-adv-x="880" arabic-form="medial" d="M737 229q12 0 20 -22q18 -63 66 -91q12 -7 37 -7h28q24 -14 24 -53q0 -40 -24 -56h-43q-28 0 -59 27.5t-49 47.5q-66 -75 -203 -75h-27v109h62q116 1 133 76q14 44 35 44zM678 -154l-51 -79l-80 55l52 77zM821 -130l-51 -79l-80 55l52 77zM339 403q49 0 74 -161 q0 -47 -38 -101v-3q9 -17 75 -29h51q33 -13 33 -54q0 -42 -33 -55h-62l-26 4q25 -83 25 -98q-15 -134 -102 -134h-3q-51 0 -111 55l-72 123q0 13 -30 32q-28 18 -101 18h-19v111l33 -3h60q68 13 68 38q102 198 145 241l14 8zM246 174v-17q93 28 93 69v22q0 15 -16 24h-6 q-71 -82 -71 -98zM241 -31v-31q35 -52 84 -51h6q15 0 22 13v3q0 21 -61 60l-24 6h-27z" />
<glyph unicode="&#xfcf2;" horiz-adv-x="270" arabic-form="medial" d="M0 109h269q28 -17 28 -55q0 -39 -28 -54h-269v109zM362 1022q0 -104 -65 -103q-22 0 -39 13q-2 -10 -8.5 -20t-15.5 -17t-19.5 -11.5t-20.5 -4.5q-51 0 -51 66q0 14 14 62l14 3q0 -68 24 -68q39 0 56 100l11 3q15 -60 35 -60q36 0 41 90l14 6q10 -36 10 -59zM398 1267 q-7 -72 -34 -89l-240 -136q0 31 3.5 42.5t9.5 20t15.5 15.5t24.5 15zM394 1390q-7 -72 -34 -88l-240 -137q0 31 3.5 42.5t9.5 20t15.5 15.5t24.5 16z" />
<glyph unicode="&#xfcf3;" horiz-adv-x="270" arabic-form="medial" d="M0 109h269q28 -17 28 -55q0 -39 -28 -54h-269v109zM402 1022q0 -104 -64 -103q-22 0 -40 13q-2 -10 -8.5 -20t-15 -17t-19 -11.5t-20.5 -4.5q-51 0 -51 66q0 14 14 62l14 3q0 -68 24 -68q39 0 55 100l11 3q15 -60 36 -60q36 0 41 90l14 6q9 -36 9 -59zM369 1534 q77 -8 76 -68q0 -34 -30 -57q-43 49 -71 49q-63 0 -126 -124l-8 -29l8 -55q0 -22 -22 -30q-33 17 -33 52q0 73 104 207q52 55 102 55zM358 1391q33 -12 39 -63v-5q0 -35 -13 -79q36 -40 36 -53q0 -46 -28 -46h-2q-8 0 -41 24q-134 -125 -215 -139h-5l-9 9v5q0 17 77 71 q101 83 101 90q-27 15 -41 44l-3 24q0 63 80 115zM334 1270q10 21 10 33q0 5 -1 9q-4 9 -11 8q-2 0 -5 -1q-10 -5 -12 -24v-5q-1 -20 19 -20z" />
<glyph unicode="&#xfcf4;" horiz-adv-x="270" arabic-form="medial" d="M0 109h269q28 -17 28 -55q0 -39 -28 -54h-269v109zM321 1022q0 -104 -65 -103q-22 0 -39 13q-2 -10 -9 -20t-15.5 -17t-19 -11.5t-20.5 -4.5q-51 0 -51 66q0 14 14 62l14 3q0 -68 24 -68q39 0 56 100l10 3q15 -60 36 -60q36 0 41 90l14 6q10 -36 10 -59zM345 1259 q-7 -72 -34 -88l-240 -137q0 31 3.5 42.5t9.5 20t15.5 16t24.5 15.5zM408 1400q-7 -72 -34 -88l-240 -137q0 31 3.5 42.5t9.5 20.5t15 16t25 15z" />
<glyph unicode="&#xfcf5;" horiz-adv-x="1413" arabic-form="isolated" d="M877 782h16q13 0 58 -115q-14 -55 -14 -73q0 -42 31 -329l9 -8q93 65 114 74l36 5q145 -28 145 -87q0 -88 -57 -156q-185 -93 -405 -93h-74v109q36 0 52 -3h13q42 0 102 85l8 22q-5 41 -75 454q0 65 41 115zM938 128q6 -11 17 -10q65 0 199 54q26 19 28 25q-53 33 -91 32 h-5q-28 0 -148 -101zM710 109h19q27 -21 27 -53q0 -39 -27 -56h-28q-46 0 -76.5 -3.5t-68 -21.5t-49.5 -32q10 -14 142 -49q27 -21 28 -62q0 -139 -323 -222q-38 -8 -74 -8q-168 0 -246 134q-24 55 -24 103q0 88 95 214l22 8q11 -10 11 -22h3q0 -8 -58 -109q-14 -36 -13 -55 q0 -83 153 -153l24 -3h63q142 0 249 74v8q0 12 -98 31q-65 26 -66 70q0 61 88 126q74 51 108 66t119 15z" />
<glyph unicode="&#xfcf6;" horiz-adv-x="1413" arabic-form="isolated" d="M877 782h16q13 0 58 -115q-14 -55 -14 -73q0 -42 31 -329l9 -8q93 65 114 74l36 5q145 -28 145 -87q0 -88 -57 -156q-185 -93 -405 -93h-74v109q36 0 52 -3h13q42 0 102 85l8 22q-5 41 -75 454q0 65 41 115zM938 128q6 -11 17 -10q65 0 199 54q26 19 28 25q-53 33 -91 32 h-5q-28 0 -148 -101zM710 109h19q27 -21 27 -53q0 -39 -27 -56h-28q-46 0 -76.5 -3.5t-68 -21.5t-49.5 -32q10 -14 142 -49q27 -21 28 -62q0 -139 -323 -222q-38 -8 -74 -8q-168 0 -246 134q-24 55 -24 103q0 88 95 214l22 8q11 -10 11 -22h3q0 -8 -58 -109q-14 -36 -13 -55 q0 -83 153 -153l24 -3h63q142 0 249 74v8q0 12 -98 31q-65 26 -66 70q0 61 88 126q74 51 108 66t119 15zM369 -540l-51 -79l-80 55l52 77zM512 -516l-51 -79l-80 55l52 77z" />
<glyph unicode="&#xfcf7;" horiz-adv-x="1239" arabic-form="isolated" d="M1061 394q59 0 140 -88v-8q0 -24 -19 -25l-96 36q-134 -36 -134 -74v-6q0 -50 93 -92h30q39 0 224 73q13 -5 14 -10q-20 -71 -55 -94q-258 -106 -457 -106h-65v109q98 0 128 -4q5 -1 10 -1q21 0 21 16q-22 40 -22 63q0 65 120 183q33 28 68 28zM710 109h19q27 -21 27 -53 q0 -39 -27 -56h-28q-46 0 -76.5 -3.5t-68 -21.5t-49.5 -32q10 -14 142 -49q27 -21 28 -62q0 -139 -323 -222q-38 -8 -74 -8q-168 0 -246 134q-24 55 -24 103q0 88 95 214l22 8q11 -10 11 -22h3q0 -8 -58 -109q-14 -36 -13 -55q0 -83 153 -153l24 -3h63q142 0 249 74v8 q0 12 -98 31q-65 26 -66 70q0 61 88 126q74 51 108 66t119 15z" />
<glyph unicode="&#xfcf8;" horiz-adv-x="1239" arabic-form="isolated" d="M1061 394q59 0 140 -88v-8q0 -24 -19 -25l-96 36q-134 -36 -134 -74v-6q0 -50 93 -92h30q39 0 224 73q13 -5 14 -10q-20 -71 -55 -94q-258 -106 -457 -106h-65v109q98 0 128 -4q5 -1 10 -1q21 0 21 16q-22 40 -22 63q0 65 120 183q33 28 68 28zM710 109h19q27 -21 27 -53 q0 -39 -27 -56h-28q-46 0 -76.5 -3.5t-68 -21.5t-49.5 -32q10 -14 142 -49q27 -21 28 -62q0 -139 -323 -222q-38 -8 -74 -8q-168 0 -246 134q-24 55 -24 103q0 88 95 214l22 8q11 -10 11 -22h3q0 -8 -58 -109q-14 -36 -13 -55q0 -83 153 -153l24 -3h63q142 0 249 74v8 q0 12 -98 31q-65 26 -66 70q0 61 88 126q74 51 108 66t119 15zM369 -540l-51 -79l-80 55l52 77zM512 -516l-51 -79l-80 55l52 77z" />
<glyph unicode="&#xfcf9;" horiz-adv-x="1239" arabic-form="isolated" d="M1061 394q59 0 140 -88v-8q0 -24 -19 -25l-96 36q-134 -36 -134 -74v-6q0 -50 93 -92h30q39 0 224 73q13 -5 14 -10q-20 -71 -55 -94q-258 -106 -457 -106h-65v109q98 0 128 -4q5 -1 10 -1q21 0 21 16q-22 40 -22 63q0 65 120 183q33 28 68 28zM1081 569q-33 -60 -69 -69 q-31 5 -68 69l68 68zM710 109h19q27 -21 27 -53q0 -39 -27 -56h-28q-46 0 -76.5 -3.5t-68 -21.5t-49.5 -32q10 -14 142 -49q27 -21 28 -62q0 -139 -323 -222q-38 -8 -74 -8q-168 0 -246 134q-24 55 -24 103q0 88 95 214l22 8q11 -10 11 -22h3q0 -8 -58 -109q-14 -36 -13 -55 q0 -83 153 -153l24 -3h63q142 0 249 74v8q0 12 -98 31q-65 26 -66 70q0 61 88 126q74 51 108 66t119 15z" />
<glyph unicode="&#xfcfa;" horiz-adv-x="1239" arabic-form="isolated" d="M1061 394q59 0 140 -88v-8q0 -24 -19 -25l-96 36q-134 -36 -134 -74v-6q0 -50 93 -92h30q39 0 224 73q13 -5 14 -10q-20 -71 -55 -94q-258 -106 -457 -106h-65v109q98 0 128 -4q5 -1 10 -1q21 0 21 16q-22 40 -22 63q0 65 120 183q33 28 68 28zM1081 569q-33 -60 -69 -69 q-31 5 -68 69l68 68zM710 109h19q27 -21 27 -53q0 -39 -27 -56h-28q-46 0 -76.5 -3.5t-68 -21.5t-49.5 -32q10 -14 142 -49q27 -21 28 -62q0 -139 -323 -222q-38 -8 -74 -8q-168 0 -246 134q-24 55 -24 103q0 88 95 214l22 8q11 -10 11 -22h3q0 -8 -58 -109q-14 -36 -13 -55 q0 -83 153 -153l24 -3h63q142 0 249 74v8q0 12 -98 31q-65 26 -66 70q0 61 88 126q74 51 108 66t119 15zM369 -540l-51 -79l-80 55l52 77zM512 -516l-51 -79l-80 55l52 77z" />
<glyph unicode="&#xfcfb;" horiz-adv-x="1520" arabic-form="isolated" d="M1289 304q35 -10 44 -116v-5q0 -114 -38.5 -124t-49.5 -11h-1q-15 0 -108 23q-8 0 -34 -19t-49 -24.5t-43 -6.5h-7q-25 0 -100 6q-46 -27 -167 -27v109q91 0 127 14t43 33q34 58 41 60h3q17 0 22 -76l11 -9h38l30 -3q47 0 80 96l27 44h2q25 0 25 -30v-50q0 -33 60 -32 q19 7 19 27l-8 60q10 61 33 61zM710 109h19q27 -21 27 -53q0 -39 -27 -56h-28q-46 0 -76.5 -3.5t-68 -21.5t-49.5 -32q10 -14 142 -49q27 -21 28 -62q0 -139 -323 -222q-38 -8 -74 -8q-168 0 -246 134q-24 55 -24 103q0 88 95 214l22 8q11 -10 11 -22h3q0 -8 -58 -109 q-14 -36 -13 -55q0 -83 153 -153l24 -3h63q142 0 249 74v8q0 12 -98 31q-65 26 -66 70q0 61 88 126q74 51 108 66t119 15z" />
<glyph unicode="&#xfcfc;" horiz-adv-x="1520" arabic-form="isolated" d="M1289 304q35 -10 44 -116v-5q0 -114 -38.5 -124t-49.5 -11h-1q-15 0 -108 23q-8 0 -34 -19t-49 -24.5t-43 -6.5h-7q-25 0 -100 6q-46 -27 -167 -27v109q91 0 127 14t43 33q34 58 41 60h3q17 0 22 -76l11 -9h38l30 -3q47 0 80 96l27 44h2q25 0 25 -30v-50q0 -33 60 -32 q19 7 19 27l-8 60q10 61 33 61zM710 109h19q27 -21 27 -53q0 -39 -27 -56h-28q-46 0 -76.5 -3.5t-68 -21.5t-49.5 -32q10 -14 142 -49q27 -21 28 -62q0 -139 -323 -222q-38 -8 -74 -8q-168 0 -246 134q-24 55 -24 103q0 88 95 214l22 8q11 -10 11 -22h3q0 -8 -58 -109 q-14 -36 -13 -55q0 -83 153 -153l24 -3h63q142 0 249 74v8q0 12 -98 31q-65 26 -66 70q0 61 88 126q74 51 108 66t119 15zM369 -540l-51 -79l-80 55l52 77zM512 -516l-51 -79l-80 55l52 77z" />
<glyph unicode="&#xfcfd;" horiz-adv-x="1520" arabic-form="isolated" d="M1289 304q35 -10 44 -116v-5q0 -114 -38.5 -124t-49.5 -11h-1q-15 0 -108 23q-8 0 -34 -19t-49 -24.5t-43 -6.5h-7q-25 0 -100 6q-46 -27 -167 -27v109q91 0 127 14t43 33q34 58 41 60h3q17 0 22 -76l11 -9h38l30 -3q47 0 80 96l27 44h2q25 0 25 -30v-50q0 -33 60 -32 q19 7 19 27l-8 60q10 61 33 61zM1092 435l-51 -79l-80 55l52 77zM1248 457l-51 -79l-80 55l52 77zM1149 594l-52 -79l-80 55l52 77zM710 109h19q27 -21 27 -53q0 -39 -27 -56h-28q-46 0 -76.5 -3.5t-68 -21.5t-49.5 -32q10 -14 142 -49q27 -21 28 -62q0 -139 -323 -222 q-38 -8 -74 -8q-168 0 -246 134q-24 55 -24 103q0 88 95 214l22 8q11 -10 11 -22h3q0 -8 -58 -109q-14 -36 -13 -55q0 -83 153 -153l24 -3h63q142 0 249 74v8q0 12 -98 31q-65 26 -66 70q0 61 88 126q74 51 108 66t119 15z" />
<glyph unicode="&#xfcfe;" horiz-adv-x="1520" arabic-form="isolated" d="M1289 304q35 -10 44 -116v-5q0 -114 -38.5 -124t-49.5 -11h-1q-15 0 -108 23q-8 0 -34 -19t-49 -24.5t-43 -6.5h-7q-25 0 -100 6q-46 -27 -167 -27v109q91 0 127 14t43 33q34 58 41 60h3q17 0 22 -76l11 -9h38l30 -3q47 0 80 96l27 44h2q25 0 25 -30v-50q0 -33 60 -32 q19 7 19 27l-8 60q10 61 33 61zM1092 435l-51 -79l-80 55l52 77zM1248 457l-51 -79l-80 55l52 77zM1149 594l-52 -79l-80 55l52 77zM710 109h19q27 -21 27 -53q0 -39 -27 -56h-28q-46 0 -76.5 -3.5t-68 -21.5t-49.5 -32q10 -14 142 -49q27 -21 28 -62q0 -139 -323 -222 q-38 -8 -74 -8q-168 0 -246 134q-24 55 -24 103q0 88 95 214l22 8q11 -10 11 -22h3q0 -8 -58 -109q-14 -36 -13 -55q0 -83 153 -153l24 -3h63q142 0 249 74v8q0 12 -98 31q-65 26 -66 70q0 61 88 126q74 51 108 66t119 15zM369 -540l-51 -79l-80 55l52 77zM512 -516l-51 -79 l-80 55l52 77z" />
</font>
</defs>
</svg>
