<?xml version="1.0" standalone="no"?>
<!DOCTYPE svg PUBLIC "-//W3C//DTD SVG 1.1//EN" "http://www.w3.org/Graphics/SVG/1.1/DTD/svg11.dtd" >
<svg xmlns="http://www.w3.org/2000/svg" xmlns:xlink="http://www.w3.org/1999/xlink" version="1.1">
<metadata></metadata>
<defs>
<font id="me_quranregular" horiz-adv-x="0" >
<font-face units-per-em="2048" ascent="1638" descent="-410" />
<missing-glyph horiz-adv-x="120" />
<glyph unicode="&#xfedf;&#xfee0;&#xfeea;" horiz-adv-x="1565" arabic-form="isolated" d="M1292 1053q34 0 45 -117l145 -459q23 -75 23 -129q0 -275 -241 -275q-97 0 -235 124q-11 0 -73 -79q-85 -95 -202 -95h-16q-135 0 -202 202l-34 50h-11q-119 -106 -224 -106q-119 0 -207 89q0 146 431 454q63 140 79 140q42 0 84 -510q39 -106 145 -106q112 0 163 140v11 q0 43 -84 532q0 59 61 118q60 0 146 -560q52 -180 218 -180q58 0 73 34v6q-102 294 -134 436l-17 140q11 140 67 140zM267 409v-5q46 -39 90 -39h22q129 43 129 78v17q0 54 -45 73q-178 -83 -196 -124z" />
<glyph unicode="&#xfedf;&#xfe82;" horiz-adv-x="1533" arabic-form="isolated" d="M1364 1621q50 -17 50 -101v-61q0 -24 73 -107l6 -50q0 -18 -79 -162q0 -205 -89 -611v-17q84 -261 84 -330q-31 -162 -112 -162l-348 -50q-168 28 -168 106v78q0 28 51 67l95 -5h22q114 0 191 207v45q0 79 -415 459q-137 123 -173 123l-129 -28q-115 0 -168 140 q-28 80 -28 190q0 73 67 73q205 0 807 -638q65 -95 100 -123h12q50 0 78 425q0 58 -39 303q0 91 112 229zM1201 255h51v22l-17 17q-34 -15 -34 -39zM818 1746q40 0 40 -33q0 -168 -448 -241q-28 -6 -95.5 8t-117.5 14h-11l-101 -72q-45 0 -45 44q0 76 140 202l39 11l163 -50 q226 0 392 117h44z" />
<glyph unicode="&#xfee0;&#xfe82;" horiz-adv-x="1770" arabic-form="final" d="M1366 1509h6q65 0 89 -498q38 -375 135 -655q58 -136 164 -132h60v-224h-49q-125 0 -231 92q-83 86 -152 269q-54 -175 -117 -252q-104 -167 -342 -240q-225 -67 -319 -67h-95l-17 16v12q0 65 274 151q147 53 387 274l17 50q-89 191 -168 297q-373 423 -437 426l-112 -23 q-181 0 -213 263v6q0 151 78 151q223 -78 465 -302q298 -325 392 -499l87 -172q29 52 25 116l-11 717q0 126 84 224zM818 1850q40 0 40 -33q0 -168 -448 -241q-28 -6 -95.5 8t-117.5 14h-11l-101 -72q-45 0 -45 44q0 76 140 202l39 11l163 -50q226 0 392 117h44z" />
<glyph unicode="&#xfedf;&#xfe84;" horiz-adv-x="1410" arabic-form="isolated" d="M1241 1621q50 -17 50 -101v-61q0 -24 73 -107l6 -50q0 -18 -79 -162q0 -205 -89 -611v-17q84 -261 84 -330q-31 -162 -112 -162l-348 -50q-168 28 -168 106v78q0 28 51 67l95 -5h22q114 0 191 207v45q0 79 -415 459q-137 123 -173 123l-129 -28q-115 0 -168 140 q-28 80 -28 190q0 73 67 73q205 0 807 -638q65 -95 100 -123h12q50 0 78 425q0 58 -39 303q0 91 112 229zM1078 255h51v22l-17 17q-34 -15 -34 -39zM279 1907q79 0 79 -79q-10 -70 -67 -70l-66 42h-20q-28 0 -63 -50q42 -63 122 -63l164 28q47 -7 47 -20v-12q0 -68 -141 -82 q-48 0 -200 -102l-39 -17l-7 24v4l30 63l-74 83l-4 24q0 109 204 218q35 3 35 9z" />
<glyph unicode="&#xfee0;&#xfe84;" horiz-adv-x="1665" arabic-form="final" d="M1261 1509h6q65 0 89 -498q38 -375 135 -655q58 -136 164 -132h60v-224h-49q-125 0 -231 92q-83 86 -152 269q-54 -175 -117 -252q-104 -167 -342 -240q-225 -67 -319 -67h-95l-17 16v12q0 65 274 151q147 53 387 274l17 50q-89 191 -168 297q-373 423 -437 426l-112 -23 q-181 0 -213 263v6q0 151 78 151q223 -78 465 -302q298 -325 392 -499l87 -172q29 52 25 116l-11 717q0 126 84 224zM279 1851q79 0 79 -79q-10 -70 -67 -70l-66 42h-20q-28 0 -63 -50q42 -63 122 -63l164 28q47 -7 47 -20v-12q0 -68 -141 -82q-48 0 -200 -102l-39 -17 l-7 24v4l30 63l-74 83l-4 24q0 109 204 218q35 3 35 9z" />
<glyph unicode="&#xfedf;&#xfe88;" horiz-adv-x="1346" arabic-form="isolated" d="M1177 1621q50 -17 50 -101v-61q0 -24 73 -107l6 -50q0 -18 -79 -162q0 -205 -89 -611v-17q84 -261 84 -330q-31 -162 -112 -162l-348 -50q-168 28 -168 106v78q0 28 51 67l95 -5h22q114 0 191 207v45q0 79 -415 459q-137 123 -173 123l-129 -28q-115 0 -168 140 q-28 80 -28 190q0 73 67 73q205 0 807 -638q65 -95 100 -123h12q50 0 78 425q0 58 -39 303q0 91 112 229zM1014 255h51v22l-17 17q-34 -15 -34 -39zM765 -79q79 0 79 -79q-10 -70 -67 -70l-66 42h-20q-28 0 -63 -50q42 -63 122 -63l164 28q47 -7 47 -20v-12q0 -68 -141 -82 q-48 0 -200 -102l-39 -17l-7 24v4l30 63l-74 83l-4 24q0 109 204 218q35 3 35 9z" />
<glyph unicode="&#xfee0;&#xfe88;" horiz-adv-x="1564" arabic-form="final" d="M1160 1509h6q65 0 89 -498q38 -375 135 -655q58 -136 164 -132h60v-224h-49q-125 0 -231 92q-83 86 -152 269q-54 -175 -117 -252q-104 -167 -342 -240q-225 -67 -319 -67h-95l-17 16v12q0 65 274 151q147 53 387 274l17 50q-89 191 -168 297q-373 423 -437 426l-112 -23 q-181 0 -213 263v6q0 151 78 151q223 -78 465 -302q298 -325 392 -499l87 -172q29 52 25 116l-11 717q0 126 84 224zM675 -223q79 0 79 -79q-10 -70 -67 -70l-66 42h-20q-28 0 -63 -50q42 -63 122 -63l164 28q47 -7 47 -20v-12q0 -68 -141 -82q-48 0 -200 -102l-39 -17 l-7 24v4l30 63l-74 83l-4 24q0 109 204 218q35 3 35 9z" />
<glyph unicode="&#xfedf;&#xfe8e;" horiz-adv-x="1346" arabic-form="isolated" d="M1177 1621q50 -17 50 -101v-61q0 -24 73 -107l6 -50q0 -18 -79 -162q0 -205 -89 -611v-17q84 -261 84 -330q-31 -162 -112 -162l-348 -50q-168 28 -168 106v78q0 28 51 67l95 -5h22q114 0 191 207v45q0 79 -415 459q-137 123 -173 123l-129 -28q-115 0 -168 140 q-28 80 -28 190q0 73 67 73q205 0 807 -638q65 -95 100 -123h12q50 0 78 425q0 58 -39 303q0 91 112 229zM1014 255h51v22l-17 17q-34 -15 -34 -39z" />
<glyph unicode="&#xfee0;&#xfe8e;" horiz-adv-x="1564" arabic-form="final" d="M1160 1509h6q65 0 89 -498q38 -375 135 -655q58 -136 164 -132h60v-224h-49q-125 0 -231 92q-83 86 -152 269q-54 -175 -117 -252q-104 -167 -342 -240q-225 -67 -319 -67h-95l-17 16v12q0 65 274 151q147 53 387 274l17 50q-89 191 -168 297q-373 423 -437 426l-112 -23 q-181 0 -213 263v6q0 151 78 151q223 -78 465 -302q298 -325 392 -499l87 -172q29 52 25 116l-11 717q0 126 84 224z" />
<glyph unicode="&#x644;&#x621;&#x627;" horiz-adv-x="1346" d="M1177 1621q50 -17 50 -101v-61q0 -24 73 -107l6 -50q0 -18 -79 -162q0 -205 -89 -611v-17q84 -261 84 -330q-31 -162 -112 -162l-348 -50q-168 28 -168 106v78q0 28 51 67l95 -5h22q114 0 191 207v45q0 79 -415 459q-137 123 -173 123l-129 -28q-115 0 -168 140 q-28 80 -28 190q0 73 67 73q205 0 807 -638q65 -95 100 -123h12q50 0 78 425q0 58 -39 303q0 91 112 229zM1014 255h51v22l-17 17q-34 -15 -34 -39zM764 1641q79 0 79 -79q-10 -70 -67 -70l-66 42h-20q-28 0 -63 -50q42 -63 122 -63l164 28q47 -7 47 -20v-12q0 -68 -141 -82 q-48 0 -200 -102l-39 -17l-7 24v4l30 63l-74 83l-4 24q0 109 204 218q35 3 35 9z" />
<glyph unicode="&#xfede;&#x621;&#x627;" horiz-adv-x="1564" d="M1160 1509h6q65 0 89 -498q38 -375 135 -655q58 -136 164 -132h60v-224h-49q-125 0 -231 92q-83 86 -152 269q-54 -175 -117 -252q-104 -167 -342 -240q-225 -67 -319 -67h-95l-17 16v12q0 65 274 151q147 53 387 274l17 50q-89 191 -168 297q-373 423 -437 426l-112 -23 q-181 0 -213 263v6q0 151 78 151q223 -78 465 -302q298 -325 392 -499l87 -172q29 52 25 116l-11 717q0 126 84 224zM787 1646q79 0 79 -79q-10 -70 -67 -70l-66 42h-20q-28 0 -63 -50q42 -63 122 -63l164 28q47 -7 47 -20v-12q0 -68 -141 -82q-48 0 -200 -102l-39 -17 l-7 24v4l30 63l-74 83l-4 24q0 109 204 218q35 3 35 9z" />
<glyph unicode="&#x649;" horiz-adv-x="748" d="M383 672q97 0 202 -336q-6 -197 -159 -257q-144 -74 -327 -79h-104v224q237 0 324.5 13.5t102.5 81.5q-5 50 -67 126t-62 109q40 118 90 118z" />
<glyph unicode="&#x649;" horiz-adv-x="760" d="M467 468q25 0 39 -45q36 -129 137 -185q25 -14 74 -14h48v-224h-78q-58 0 -121.5 56.5t-98.5 97.5q-136 -154 -416 -154h-56v224h126q238 3 273 154q31 90 73 90z" />
<glyph unicode="&#x671;" horiz-adv-x="634" arabic-form="isolated" d="M164 1294q61 0 73 -157q123 -875 123 -935q-19 -202 -61 -202h-6q-39 0 -39 123l-168 997q36 174 78 174zM428 1628.5q-32 -22.5 -64 -85.5q39 -9 70 22q49 42 37.5 64t-43.5 -0.5zM471 1774q86 0 112 -129q0 -148 -212 -246q-48 -17 -90 -17l-101 22h-28q-22 0 -95 -44 q-11 0 -28 44q36 157 157 157q96 0 123 67q78 146 162 146z" />
<glyph unicode="&#x671;" horiz-adv-x="782" arabic-form="final" d="M304 1274h17q51 -6 100 -440q51 -571 154 -595q26 -12 87 -15h85v-224h-62q-234 0 -303 168q-54 119 -151 960q0 83 73 146zM439 1692.5q-32 -22.5 -64 -85.5q39 -9 70 22q49 42 37.5 64t-43.5 -0.5zM482 1838q86 0 112 -129q0 -148 -212 -246q-48 -17 -90 -17l-101 22 h-28q-22 0 -95 -44q-11 0 -28 44q36 157 157 157q96 0 123 67q78 146 162 146z" />
<glyph unicode="&#xfc31;" horiz-adv-x="1385" arabic-form="isolated" d="M757 1417q98 -38 140 -90v-11q-39 -151 -107 -151h-11q-145 54 -145 89v11q39 152 123 152zM953 935q189 0 263 -465l6 -45q0 -96 -51 -207q168 -54 168 -185l6 -50q0 -281 -689 -436l-101 -6h-11q-258 0 -465 241q-39 89 -39 140v39q0 204 168 392l50 33l23 -45 q-112 -193 -112 -285v-17q0 -100 201 -218q98 -50 219 -50h28q211 0 515 156l22 28q0 16 -179 34q-193 39 -201 56q-17 21 -17 50v6q0 100 252 179q95 42 95 117q0 45 -28 62q-136 -78 -151 -78q-122 0 -185 162l-11 67q0 167 123 291q57 34 101 34zM858 683q23 -62 89 -62 q45 5 45 45l-67 62h-34q-18 -7 -33 -45z" />
<glyph unicode="&#xfc32;" horiz-adv-x="1385" arabic-form="isolated" d="M757 1417q98 -38 140 -90v-11q-39 -151 -107 -151h-11q-145 54 -145 89v11q39 152 123 152zM953 935q189 0 263 -465l6 -45q0 -96 -51 -207q168 -54 168 -185l6 -50q0 -281 -689 -436l-101 -6h-11q-258 0 -465 241q-39 89 -39 140v39q0 204 168 392l50 33l23 -45 q-112 -193 -112 -285v-17q0 -100 201 -218q98 -50 219 -50h28q211 0 515 156l22 28q0 16 -179 34q-193 39 -201 56q-17 21 -17 50v6q0 100 252 179q95 42 95 117q0 45 -28 62q-136 -78 -151 -78q-122 0 -185 162l-11 67q0 167 123 291q57 34 101 34zM858 683q23 -62 89 -62 q45 5 45 45l-67 62h-34q-18 -7 -33 -45zM597 -680l-105 -162l-164 113l107 158zM889 -630l-105 -162l-164 113l107 158z" />
<glyph unicode="&#xfc42;" horiz-adv-x="1789" arabic-form="isolated" d="M1679 183q-11 -25 -28.5 -52t-41 -52.5t-54.5 -46.5t-91 -37l-326 1l-2 231h284q21 1 36.5 2.5t31.5 7.5q43 18 71 65l-3 66q-1 55 -4 137.5t-7 176.5t-7.5 191t-7 181t-5.5 146.5t-2 86.5v15q-3 24 -11.5 50t-28.5 66q27 119 50 181.5t64 70.5l152 -190q-2 -34 -5.5 -50 t-10.5 -29l-73 -130q3 -42 5.5 -78.5t4.5 -75.5t5 -85t5 -108t5 -142.5t6 -187.5l8 -300q1 -35 -5 -63t-15 -48zM1147 0h-135q-89 3 -103.5 8t-25.5 12q-25 -69 -41.5 -110t-26 -64t-16 -31t-10.5 -9q-183 50 -241 277q-21 93 -82 93q-49 0 -85 -1t-62 -6t-44 -13.5 t-32 -21.5q-28 -18 -49 -43t-33 -67.5t-13.5 -108.5t10.5 -165q19 -185 35 -310.5t29 -213.5t20.5 -150.5t10.5 -122t-0.5 -127t-15.5 -167.5q-16 0 -28 15t-20.5 36.5t-13.5 45.5t-8 42q-5 82 -19 186.5t-32.5 234.5t-38.5 287.5t-37 345.5q0 80 14.5 155.5t38 137.5 t49 107t49.5 66q28 28 80 45.5t102.5 27t86.5 13t49 3.5t23.5 -0.5t15.5 -1.5q2 1 4.5 4t8 10t15.5 21.5t25 38.5q54 -72 101.5 -122t107.5 -78q38 -16 62.5 -25t41 -14t100.5 -9l133 1v-232z" />
<glyph unicode="&#xfc45;" horiz-adv-x="2554" arabic-form="isolated" d="M537.5 173.5q-94.5 -85.5 -159.5 -186.5t-99.5 -218t-34.5 -245q0 -145 48 -262.5t134 -203t205 -135.5t262 -59q179 -12 317.5 -17.5t245.5 -7.5t187.5 1t144.5 7.5t115.5 13t100.5 18.5v-55q0 -11 -26.5 -26.5t-67 -31.5t-89 -32t-88.5 -33t-70 -27.5t-139 -42 t-291 -31.5q-150 0 -350 18.5t-397.5 111t-299 258t-93.5 399.5q6 167 25.5 295.5t50.5 228t70.5 173.5t85 133.5t94.5 108.5t98 97q-33 29 -71.5 37.5t-77 2t-76.5 -24t-70 -41t-58 -49.5t-40 -48q-48 7 -76 28l-8 32q34 82 66.5 125t77 83t90 70.5t140.5 61.5 q81 0 165.5 -16t182 -26.5t198.5 -17.5t189 -9t156 4t100 23q13 -41 17 -55t7 -25q-17 -33 -31 -55t-24.5 -34.5t-19 -18t-13.5 -8.5l-66 -34q-7 -51 12 -89.5t51 -64t72 -36t73 -7.5h136v-231h-144q-55 6 -109.5 26t-98 66.5t-75 124.5t-49.5 200q-38 0 -87 -7.5t-102 -20 t-105 -29.5t-95 -37q-122 -64 -216.5 -149.5zM1023 -222l-140 -140l-140 140l140 140zM2302 440q-11 15 -39 15q-42 0 -57 -28q-4 -13 -9 -24.5t-9 -24.5q30 -17 52.5 -25.5t38 -10.5t25.5 0t18 5q4 24 0 46.5t-20 46.5zM1782 0h-167v232h160q72 -1 182 90l191 252 q54 71 107.5 102.5t98.5 33.5q16 0 34 -24t36 -61.5t34.5 -83t28 -89t19.5 -79.5t8 -54q0 -17 -10 -56t-26.5 -79.5t-40.5 -71.5t-53 -31q-111 0 -200 32.5t-181 81.5q-59 -76 -96 -121.5t-58 -55.5t-67 -18z" />
<glyph unicode="&#xfc46;" horiz-adv-x="2561" arabic-form="isolated" d="M2309 440q-11 15 -39 15q-42 0 -57 -28q-4 -13 -9 -24.5t-9 -24.5q30 -17 52.5 -25.5t38 -10.5t25.5 0t18 5q4 24 0 46.5t-20 46.5zM1789 0h-167v232h160q72 -1 182 90l191 252q54 71 107.5 102.5t98.5 33.5q16 0 34 -24t36 -61.5t34.5 -83t28 -89t19.5 -79.5t8 -54 q0 -17 -10 -56t-26.5 -79.5t-40.5 -71.5t-53 -31q-111 0 -200 32.5t-181 81.5q-59 -76 -96 -121.5t-58 -55.5t-67 -18zM537.5 173.5q-94.5 -85.5 -159.5 -186.5t-99.5 -218t-34.5 -245q0 -145 48 -262.5t134 -203t205 -135.5t262 -59q179 -12 317.5 -17.5t245.5 -7.5 t187.5 1t144.5 7.5t115.5 13t100.5 18.5v-55q0 -11 -26.5 -26.5t-67 -31.5t-89 -32t-88.5 -33t-70 -27.5t-139 -42t-291 -31.5q-150 0 -350 18.5t-397.5 111t-299 258t-93.5 399.5q6 167 25.5 295.5t50.5 228t70.5 173.5t85 133.5t94.5 108.5t98 97q-33 29 -71.5 37.5t-77 2 t-76.5 -24t-70 -41t-58 -49.5t-40 -48q-48 7 -76 28l-8 32q34 82 66.5 125t77 83t90 70.5t140.5 61.5q81 0 165.5 -16t182 -26.5t198.5 -17.5t189 -9t156 4t100 23q13 -41 17 -55t7 -25q-17 -33 -31 -55t-24.5 -34.5t-19 -18t-13.5 -8.5l-66 -34q-7 -51 12 -89.5t51 -64 t72 -36t73 -7.5h136v-231h-144q-55 6 -109.5 26t-98 66.5t-75 124.5t-49.5 200q-38 0 -87 -7.5t-102 -20t-105 -29.5t-95 -37q-122 -64 -216.5 -149.5z" />
<glyph unicode="&#xfc47;" horiz-adv-x="2558" arabic-form="isolated" d="M817 1040l-140 -140l-140 140l140 140zM537.5 173.5q-94.5 -85.5 -159.5 -186.5t-99.5 -218t-34.5 -245q0 -145 48 -262.5t134 -203t205 -135.5t262 -59q179 -12 317.5 -17.5t245.5 -7.5t187.5 1t144.5 7.5t115.5 13t100.5 18.5v-55q0 -11 -26.5 -26.5t-67 -31.5t-89 -32 t-88.5 -33t-70 -27.5t-139 -42t-291 -31.5q-150 0 -350 18.5t-397.5 111t-299 258t-93.5 399.5q6 167 25.5 295.5t50.5 228t70.5 173.5t85 133.5t94.5 108.5t98 97q-33 29 -71.5 37.5t-77 2t-76.5 -24t-70 -41t-58 -49.5t-40 -48q-48 7 -76 28l-8 32q34 82 66.5 125t77 83 t90 70.5t140.5 61.5q81 0 165.5 -16t182 -26.5t198.5 -17.5t189 -9t156 4t100 23q13 -41 17 -55t7 -25q-17 -33 -31 -55t-24.5 -34.5t-19 -18t-13.5 -8.5l-66 -34q-7 -51 12 -89.5t51 -64t72 -36t73 -7.5h136v-231h-144q-55 6 -109.5 26t-98 66.5t-75 124.5t-49.5 200 q-38 0 -87 -7.5t-102 -20t-105 -29.5t-95 -37q-122 -64 -216.5 -149.5zM2307 440q-12 15 -40 15q-42 0 -57 -28q-4 -13 -9 -24.5t-9 -24.5q31 -17 53 -25.5t37.5 -10.5t25.5 0t18 5q4 24 0 46.5t-19 46.5zM1786 0h-167v232h160q73 -1 182 90l192 252q53 71 107 102.5 t98 33.5q16 0 34 -24t36.5 -61.5t34.5 -83t28 -89t19.5 -79.5t7.5 -54q0 -17 -10 -56t-26.5 -79.5t-40.5 -71.5t-53 -31q-111 0 -200 32.5t-181 81.5q-59 -76 -96 -121.5t-58 -55.5t-67 -18z" />
<glyph unicode="&#xfc6a;" horiz-adv-x="1780" arabic-form="final" d="M1356 868q41 0 134 -297q61 -217 135.5 -282t127.5 -65h47v-224h-58q-142 0 -249 118.5t-165 374.5q-190 -149 -190 -269q-75 -250 -219 -403q-127 -106 -392 -106q-179 0 -476 95l-11 22q0 56 78 56l280 -39q262 0 510 224q97 112 112 201q-90 98 -90 124v28 q0 112 101 112q181 0 252 235q38 95 73 95zM1475 -46l-140 -140l-140 140l140 140z" />
<glyph unicode="&#xfc6b;" horiz-adv-x="1780" arabic-form="final" d="M1356 868q41 0 134 -297q61 -217 135.5 -282t127.5 -65h47v-224h-58q-142 0 -249 118.5t-165 374.5q-190 -149 -190 -269q-75 -250 -219 -403q-127 -106 -392 -106q-179 0 -476 95l-11 22q0 56 78 56l280 -39q262 0 510 224q97 112 112 201q-90 98 -90 124v28 q0 112 101 112q181 0 252 235q38 95 73 95zM891 884l-140 -140l-140 140l140 140zM1497 -90l-140 -140l-140 140l140 140z" />
<glyph unicode="&#xfc6d;" horiz-adv-x="1453" arabic-form="final" d="M1284 1621q50 -17 50 -101v-61q0 -24 73 -107l6 -50q0 -18 -79 -162q0 -205 -89 -611v-17q84 -261 84 -330q-31 -162 -112 -162l-348 -50q-168 28 -168 106v78q0 28 51 67l95 -5h22q114 0 191 207v45q0 79 -415 459q-137 123 -173 123l-129 -28q-115 0 -168 140 q-28 80 -28 190q0 73 67 73q205 0 807 -638q65 -95 100 -123h12q50 0 78 425q0 58 -39 303q0 91 112 229zM1121 255h51v22l-17 17q-34 -15 -34 -39zM439 1740.5q-32 -22.5 -64 -85.5q39 -9 70 22q49 42 37.5 64t-43.5 -0.5zM482 1886q86 0 112 -129q0 -148 -212 -246 q-48 -17 -90 -17l-101 22h-28q-22 0 -95 -44q-11 0 -28 44q36 157 157 157q96 0 123 67q78 146 162 146z" />
<glyph unicode="&#xfc70;" horiz-adv-x="1780" arabic-form="final" d="M1356 868q41 0 134 -297q61 -217 135.5 -282t127.5 -65h47v-224h-58q-142 0 -249 118.5t-165 374.5q-190 -149 -190 -269q-75 -250 -219 -403q-127 -106 -392 -106q-179 0 -476 95l-11 22q0 56 78 56l280 -39q262 0 510 224q97 112 112 201q-90 98 -90 124v28 q0 112 101 112q181 0 252 235q38 95 73 95zM1145 1257l-105 -162l-164 113l107 158zM1437 1307l-105 -162l-164 113l107 158z" />
<glyph unicode="&#xfc86;" horiz-adv-x="2464" arabic-form="final" d="M2424 0h-190q-121 7 -169 92.5t-76 254.5q-3 -46 -29 -102.5t-64 -105.5q-18 -24 -37.5 -47t-41.5 -43q-44 -42 -112 -49h-216l1 231h210q115 22 147 43q31 23 55 84q10 80 15.5 151t5.5 129v108q0 11 -1 18q0 69 -3 170.5t-7 241.5q-3 136 -4 353q-2 26 14 58.5t40 56.5 q24 23 49 30t44 12q0 -677 1 -684q1 -58 2 -106.5t2 -87.5q3 -59 5 -99.5t5 -69.5t6.5 -49t7.5 -37q7 -46 11 -77t7 -46q3 -16 6.5 -30.5t9.5 -29.5q9 -33 25 -59q19 -35 49.5 -56t104.5 -24h126zM1472 -383q-39 -79 -101.5 -145.5t-140.5 -120t-168.5 -95t-185.5 -69.5 t-192 -42t-186 -14q-66 0 -133 20.5t-125.5 58t-104 91.5t-67.5 121q-28 87 -28 212q0 42 7.5 93.5t22.5 105t35 106t44.5 95t52.5 72.5t58 40l4 -19q0 -14 -11 -34t-26 -48t-29.5 -63.5t-23.5 -80.5l-19 -101q-3 -89 11 -154.5t43.5 -111.5t73 -78t100.5 -58 q76 -30 164.5 -40t183 -1t189 36.5t181.5 71t162 103t131 130.5q5 14 -20.5 25t-70 22.5t-101.5 23.5t-114 26.5t-108 32t-83 41.5q0 33 71 187q38 27 97 57.5t124 57t128 44t180 17.5v-232q-23 0 -109.5 -8t-158.5 -27q58 -19 114 -39.5t115 -39.5q28 -42 48 -115 q-3 -66 -13 -96t-21 -58z" />
<glyph unicode="&#xfc87;" horiz-adv-x="2467" arabic-form="final" d="M2427 0h-190q-121 7 -169 92.5t-76 254.5q-3 -46 -29 -102.5t-64 -105.5q-18 -24 -37.5 -47t-42.5 -43q-43 -42 -112 -49h-215l1 231h210q115 22 147 43q31 23 55 84q10 80 15.5 151t5.5 129v108q0 11 -2 18q0 69 -2.5 170.5t-6.5 241.5q-3 136 -5 353q-1 26 15 58.5 t40 56.5q24 23 49 30t43 12q0 -677 2 -684q1 -58 2 -106.5t2 -87.5q3 -59 5 -99.5t5 -69.5t6.5 -49t7.5 -37q7 -46 11 -77t7 -46q3 -16 6.5 -30.5t8.5 -29.5q10 -33 26 -59q19 -35 49 -56t105 -24h126zM1472 -383q-39 -79 -101.5 -145.5t-140.5 -120t-168.5 -95 t-185.5 -69.5t-192 -42t-186 -14q-66 0 -133 20.5t-125.5 58t-104 91.5t-67.5 121q-28 87 -28 212q0 42 7.5 93.5t22.5 105t35 106t44.5 95t52.5 72.5t58 40l4 -19q0 -14 -11 -34t-26 -48t-29.5 -63.5t-23.5 -80.5l-19 -101q-3 -89 11 -154.5t43.5 -111.5t73 -78t100.5 -58 q76 -30 164.5 -40t183 -1t189 36.5t181.5 71t162 103t131 130.5q5 14 -20.5 25t-70 22.5t-101.5 23.5t-114 26.5t-108 32t-83 41.5q0 33 71 187q38 27 97 57.5t124 57t128 44t180 17.5v-232q-23 0 -109.5 -8t-158.5 -27q58 -19 114 -39.5t115 -39.5q28 -42 48 -115 q-3 -66 -13 -96t-21 -58zM977 -1180l-140 -140l-140 140l140 140zM557 -1180l-140 -140l-140 140l140 140z" />
<glyph unicode="&#xfc91;" horiz-adv-x="1780" arabic-form="final" d="M1356 868q41 0 134 -297q61 -217 135.5 -282t127.5 -65h47v-224h-58q-142 0 -249 118.5t-165 374.5q-190 -149 -190 -269q-75 -250 -219 -403q-127 -106 -392 -106q-179 0 -476 95l-11 22q0 56 78 56l280 -39q262 0 510 224q97 112 112 201q-90 98 -90 124v28 q0 112 101 112q181 0 252 235q38 95 73 95zM1290 -189l-105 -162l-164 113l107 158zM1582 -139l-105 -162l-164 113l107 158z" />
<glyph unicode="&#xfc92;" horiz-adv-x="1780" arabic-form="final" d="M1356 868q41 0 134 -297q61 -217 135.5 -282t127.5 -65h47v-224h-58q-142 0 -249 118.5t-165 374.5q-190 -149 -190 -269q-75 -250 -219 -403q-127 -106 -392 -106q-179 0 -476 95l-11 22q0 56 78 56l280 -39q262 0 510 224q97 112 112 201q-90 98 -90 124v28 q0 112 101 112q181 0 252 235q38 95 73 95zM1346 -132l-105 -162l-164 113l107 158zM1638 -82l-105 -162l-164 113l107 158zM892 918l-140 -140l-140 140l140 140z" />
<glyph unicode="&#xfc94;" horiz-adv-x="1659" arabic-form="final" d="M1255 1509h6q65 0 89 -498q38 -375 135 -655q58 -136 164 -132h60v-224h-49q-125 0 -231 92q-83 86 -152 269q-54 -175 -117 -252q-104 -167 -342 -240q-225 -67 -319 -67h-95l-17 16v12q0 65 274 151q147 53 387 274l17 50q-89 191 -168 297q-373 423 -437 426l-112 -23 q-181 0 -213 263v6q0 151 78 151q223 -78 465 -302q298 -325 392 -499l87 -172q29 52 25 116l-11 717q0 126 84 224zM439 1777.5q-32 -22.5 -64 -85.5q39 -9 70 22q49 42 37.5 64t-43.5 -0.5zM482 1923q86 0 112 -129q0 -148 -212 -246q-48 -17 -90 -17l-101 22h-28 q-22 0 -95 -44q-11 0 -28 44q36 157 157 157q96 0 123 67q78 146 162 146z" />
<glyph unicode="&#xfc9c;" horiz-adv-x="1522" arabic-form="initial" d="M1404 59q0 -20 -8.5 -47.5t-22 -55t-30 -48t-32.5 -22.5q-17 0 -39 13t-44.5 32.5t-41.5 42t-29 40.5q25 52 41.5 85t27 51.5t16 26.5t9.5 11q6 0 29 -14t49 -34.5t48 -42t27 -38.5zM1482 560l-3 -32q0 -39 -25 -87l-85 -84q-86 1 -138.5 2.5t-88 1t-61 -4t-55.5 -13.5 t-74 -26t-115 -41l-532 -235q-54 -24 -119.5 -31t-145.5 -10v232q81 7 133 13t91 13.5t73.5 19.5t82 29.5t116 44t175.5 64.5q-189 0 -286 31l-263 63q-24 0 -34 -6l-40 -8q-17 0 -25.5 7.5t-8.5 32.5q17 91 80.5 156t189.5 124q114 53 188 95t124.5 78t82.5 66.5t62 63.5 q4 5 22 29t43.5 57t55.5 69t58 67.5t51 53.5t36 25q25 0 48.5 -19t41 -53.5t28 -83.5t10.5 -109q0 -38 -7 -79t-17.5 -75.5t-21.5 -57t-21 -22.5q-12 0 -12 39q0 47 -5 86.5t-17 70t-32.5 49t-49.5 24.5q-11 -6 -32 -27.5t-45.5 -51.5t-52.5 -65t-52.5 -68t-45.5 -59.5 t-32 -39.5q-118 -122 -271 -211l114 -13q210 -43 346.5 -59t220.5 -18.5t128 2.5t71 4l133 -7q8 0 8 -17zM666 -243q0 -20 -8.5 -48.5t-22 -56t-30 -47.5t-32.5 -23q-16 0 -38.5 13t-45 33t-41.5 42t-29 42q26 52 42 85t26.5 51.5t16 26.5t9.5 11q6 0 29 -14t49 -34.5 t48.5 -42t26.5 -38.5z" />
<glyph unicode="&#xfc9d;" horiz-adv-x="1522" arabic-form="initial" d="M1404 59q0 -20 -8.5 -47.5t-22 -55t-30 -48t-32.5 -22.5q-17 0 -39 13t-44.5 32.5t-41.5 42t-29 40.5q25 52 41.5 85t27 51.5t16 26.5t9.5 11q6 0 29 -14t49 -34.5t48 -42t27 -38.5zM1482 560l-3 -32q0 -39 -25 -87l-85 -84q-86 1 -138.5 2.5t-88 1t-61 -4t-55.5 -13.5 t-74 -26t-115 -41l-532 -235q-54 -24 -119.5 -31t-145.5 -10v232q81 7 133 13t91 13.5t73.5 19.5t82 29.5t116 44t175.5 64.5q-189 0 -286 31l-263 63q-24 0 -34 -6l-40 -8q-17 0 -25.5 7.5t-8.5 32.5q17 91 80.5 156t189.5 124q114 53 188 95t124.5 78t82.5 66.5t62 63.5 q4 5 22 29t43.5 57t55.5 69t58 67.5t51 53.5t36 25q25 0 48.5 -19t41 -53.5t28 -83.5t10.5 -109q0 -38 -7 -79t-17.5 -75.5t-21.5 -57t-21 -22.5q-12 0 -12 39q0 47 -5 86.5t-17 70t-32.5 49t-49.5 24.5q-11 -6 -32 -27.5t-45.5 -51.5t-52.5 -65t-52.5 -68t-45.5 -59.5 t-32 -39.5q-118 -122 -271 -211l114 -13q210 -43 346.5 -59t220.5 -18.5t128 2.5t71 4l133 -7q8 0 8 -17z" />
<glyph unicode="&#xfc9f;" horiz-adv-x="910" arabic-form="initial" d="M870 158q0 -35 -13 -64.5t-30 -51t-34 -33t-24 -11.5q-22 16 -53.5 36.5t-66 38t-67 30t-56.5 12.5q-16 0 -52 -8.5t-84 -21t-101.5 -28t-102.5 -28t-88.5 -21t-57.5 -8.5v232q111 0 206.5 21t163.5 62q-19 78 -28 137.5t-3.5 115t26.5 114.5t63 137q101 189 231 189 q24 0 50 -13.5t47 -33.5t35 -45.5t14 -48.5q0 -42 -43 -77q-51 -3 -75 23q-36 14 -76.5 10t-76.5 -23t-62.5 -51t-34.5 -73q0 -43 21 -95.5t56 -103.5t79.5 -94.5t91.5 -67.5q77 -39 111 -72t34 -85zM837 -296q2 -20 -8.5 -48t-23.5 -54t-25 -45t-12 -20q-99 17 -131.5 31 t-54 30t-18.5 30q4 15 11.5 40.5t20 50.5t29.5 44.5t38 24.5q21 4 50.5 -6t56 -24.5t46 -30t21.5 -23.5z" />
<glyph unicode="&#xfca1;" horiz-adv-x="1522" arabic-form="initial" d="M1007 1890q0 -20 -8 -48.5t-21.5 -56t-30.5 -47.5t-32 -23q-17 0 -39.5 13.5t-44.5 33t-41 42t-29 41.5q25 52 41 85t26.5 52t16.5 26.5t10 10.5q5 0 28.5 -14t49 -34.5t48 -42t26.5 -38.5zM737 1819q2 -9 -4 -41t-16.5 -68t-24.5 -64t-29 -28q-11 0 -38.5 13.5t-57 32.5 t-52.5 39t-24 33q-2 4 1.5 14t13 30t26 51.5t43.5 79.5zM1482 560l-3 -32q0 -39 -25 -87l-85 -84q-86 1 -138.5 2.5t-88 1t-61 -4t-55.5 -13.5t-74 -26t-115 -41l-532 -235q-54 -24 -119.5 -31t-145.5 -10v232q81 7 133 13t91 13.5t73.5 19.5t82 29.5t116 44t175.5 64.5 q-189 0 -286 31l-263 63q-24 0 -34 -6l-40 -8q-17 0 -25.5 7.5t-8.5 32.5q17 91 80.5 156t189.5 124q114 53 188 95t124.5 78t82.5 66.5t62 63.5q4 5 22 29t43.5 57t55.5 69t58 67.5t51 53.5t36 25q25 0 48.5 -19t41 -53.5t28 -83.5t10.5 -109q0 -38 -7 -79t-17.5 -75.5 t-21.5 -57t-21 -22.5q-12 0 -12 39q0 47 -5 86.5t-17 70t-32.5 49t-49.5 24.5q-11 -6 -32 -27.5t-45.5 -51.5t-52.5 -65t-52.5 -68t-45.5 -59.5t-32 -39.5q-118 -122 -271 -211l114 -13q210 -43 346.5 -59t220.5 -18.5t128 2.5t71 4l133 -7q8 0 8 -17zM758 -203q2 -8 -4 -40 t-16.5 -68t-24.5 -64t-29 -28q-11 0 -38.5 13.5t-57 32.5t-52.5 39t-24 33q-2 4 1.5 14t13 30t26 51.5t43.5 79.5z" />
<glyph unicode="&#xfca2;" horiz-adv-x="1522" arabic-form="initial" d="M1007 1890q0 -20 -8 -48.5t-21.5 -56t-30.5 -47.5t-32 -23q-17 0 -39.5 13.5t-44.5 33t-41 42t-29 41.5q25 52 41 85t26.5 52t16.5 26.5t10 10.5q5 0 28.5 -14t49 -34.5t48 -42t26.5 -38.5zM737 1819q2 -9 -4 -41t-16.5 -68t-24.5 -64t-29 -28q-11 0 -38.5 13.5t-57 32.5 t-52.5 39t-24 33q-2 4 1.5 14t13 30t26 51.5t43.5 79.5zM1482 560l-3 -32q0 -39 -25 -87l-85 -84q-86 1 -138.5 2.5t-88 1t-61 -4t-55.5 -13.5t-74 -26t-115 -41l-532 -235q-54 -24 -119.5 -31t-145.5 -10v232q81 7 133 13t91 13.5t73.5 19.5t82 29.5t116 44t175.5 64.5 q-189 0 -286 31l-263 63q-24 0 -34 -6l-40 -8q-17 0 -25.5 7.5t-8.5 32.5q17 91 80.5 156t189.5 124q114 53 188 95t124.5 78t82.5 66.5t62 63.5q4 5 22 29t43.5 57t55.5 69t58 67.5t51 53.5t36 25q25 0 48.5 -19t41 -53.5t28 -83.5t10.5 -109q0 -38 -7 -79t-17.5 -75.5 t-21.5 -57t-21 -22.5q-12 0 -12 39q0 47 -5 86.5t-17 70t-32.5 49t-49.5 24.5q-11 -6 -32 -27.5t-45.5 -51.5t-52.5 -65t-52.5 -68t-45.5 -59.5t-32 -39.5q-118 -122 -271 -211l114 -13q210 -43 346.5 -59t220.5 -18.5t128 2.5t71 4l133 -7q8 0 8 -17z" />
<glyph unicode="&#xfca3;" horiz-adv-x="1522" arabic-form="initial" d="M1007 1890q0 -20 -8 -48.5t-21.5 -56t-30.5 -47.5t-32 -23q-17 0 -39.5 13.5t-44.5 33t-41 42t-29 41.5q25 52 41 85t26.5 52t16.5 26.5t10 10.5q5 0 28.5 -14t49 -34.5t48 -42t26.5 -38.5zM737 1819q2 -9 -4 -41t-16.5 -68t-24.5 -64t-29 -28q-11 0 -38.5 13.5t-57 32.5 t-52.5 39t-24 33q-2 4 1.5 14t13 30t26 51.5t43.5 79.5zM1482 560l-3 -32q0 -39 -25 -87l-85 -84q-86 1 -138.5 2.5t-88 1t-61 -4t-55.5 -13.5t-74 -26t-115 -41l-532 -235q-54 -24 -119.5 -31t-145.5 -10v232q81 7 133 13t91 13.5t73.5 19.5t82 29.5t116 44t175.5 64.5 q-189 0 -286 31l-263 63q-24 0 -34 -6l-40 -8q-17 0 -25.5 7.5t-8.5 32.5q17 91 80.5 156t189.5 124q114 53 188 95t124.5 78t82.5 66.5t62 63.5q4 5 22 29t43.5 57t55.5 69t58 67.5t51 53.5t36 25q25 0 48.5 -19t41 -53.5t28 -83.5t10.5 -109q0 -38 -7 -79t-17.5 -75.5 t-21.5 -57t-21 -22.5q-12 0 -12 39q0 47 -5 86.5t-17 70t-32.5 49t-49.5 24.5q-11 -6 -32 -27.5t-45.5 -51.5t-52.5 -65t-52.5 -68t-45.5 -59.5t-32 -39.5q-118 -122 -271 -211l114 -13q210 -43 346.5 -59t220.5 -18.5t128 2.5t71 4l133 -7q8 0 8 -17zM291 1361 q1 -9 -4.5 -41t-16 -67.5t-24.5 -63.5t-30 -28q-11 0 -38 13t-56.5 32t-52.5 39.5t-25 32.5q-1 4 2.5 14t12.5 30.5t26 52t43 78.5z" />
<glyph unicode="&#xfca4;" horiz-adv-x="910" arabic-form="initial" d="M870 158q0 -35 -13 -64.5t-30 -51t-34 -33t-24 -11.5q-22 16 -53.5 36.5t-66 38t-67 30t-56.5 12.5q-16 0 -52 -8.5t-84 -21t-101.5 -28t-102.5 -28t-88.5 -21t-57.5 -8.5v232q111 0 206.5 21t163.5 62q-19 78 -28 137.5t-3.5 115t26.5 114.5t63 137q101 189 231 189 q24 0 50 -13.5t47 -33.5t35 -45.5t14 -48.5q0 -42 -43 -77q-51 -3 -75 23q-36 14 -76.5 10t-76.5 -23t-62.5 -51t-34.5 -73q0 -43 21 -95.5t56 -103.5t79.5 -94.5t91.5 -67.5q77 -39 111 -72t34 -85zM823 1467l-122 -189l-188 122l-117 -188l-2 2l-193 127l119 193l186 -120 l121 185l194 -130z" />
<glyph unicode="&#xfca6;" horiz-adv-x="910" arabic-form="initial" d="M622 1716l-134 -180l-189 144l136 178zM870 158q0 -35 -13 -64.5t-30 -51t-34 -33t-24 -11.5q-22 16 -53.5 36.5t-66 38t-67 30t-56.5 12.5q-16 0 -52 -8.5t-84 -21t-101.5 -28t-102.5 -28t-88.5 -21t-57.5 -8.5v232q111 0 206.5 21t163.5 62q-19 78 -28 137.5t-3.5 115 t26.5 114.5t63 137q101 189 231 189q24 0 50 -13.5t47 -33.5t35 -45.5t14 -48.5q0 -42 -43 -77q-51 -3 -75 23q-36 14 -76.5 10t-76.5 -23t-62.5 -51t-34.5 -73q0 -43 21 -95.5t56 -103.5t79.5 -94.5t91.5 -67.5q77 -39 111 -72t34 -85zM823 1467l-122 -189l-188 122 l-117 -188l-2 2l-193 127l119 193l186 -120l121 185l194 -130z" />
<glyph unicode="&#xfcc9;" horiz-adv-x="1400" arabic-form="initial" d="M1360 494q0 -24 -9.5 -57.5t-24.5 -64t-31 -51.5t-30 -21h-105h-57q-20 0 -26.5 -1t-10.5 -1q-54 -8 -99.5 -16.5t-87 -17.5t-81.5 -19.5t-83 -23.5q-150 -59 -241.5 -94.5t-150.5 -57t-97.5 -33.5t-81.5 -22l-104 -14v232q55 -2 94 2t85 17.5t108.5 38t163.5 63.5 l143 53q-104 27 -174.5 45t-121 28.5t-86.5 14.5t-69 3q-44 -3 -68.5 -2t-36 3.5t-14.5 7.5t-3 11q0 12 7.5 37.5t19 50.5t23.5 45.5t21 24.5l339 54q59 10 87.5 23.5t28.5 25.5q-21 187 -35.5 322t-25 231t-17.5 157.5t-12 101.5t-8.5 63t-7.5 41q-11 18 -24.5 51.5 t-32.5 109.5q0 21 4 55.5t12.5 68t19.5 57t25 23.5q11 0 21 -14q27 -49 53 -78t58 -49q40 -21 61 -62q-11 -51 -20 -85t-17.5 -56t-16 -36t-16.5 -27q17 -192 33 -332.5t27.5 -243t15 -173t-4.5 -123.5t-30 -94.5t-63 -84.5l398 -58q176 -25 313 -25q34 1 46.5 -3.5 t16.5 -20.5zM1016 -407l-149 -155l-161 128l135 159z" />
<glyph unicode="&#xfcca;" horiz-adv-x="1400" arabic-form="initial" d="M1360 494q0 -24 -9.5 -57.5t-24.5 -64t-31 -51.5t-30 -21h-105h-57q-20 0 -26.5 -1t-10.5 -1q-54 -8 -99.5 -16.5t-87 -17.5t-81.5 -19.5t-83 -23.5q-150 -59 -241.5 -94.5t-150.5 -57t-97.5 -33.5t-81.5 -22l-104 -14v232q55 -2 94 2t85 17.5t108.5 38t163.5 63.5 l143 53q-104 27 -174.5 45t-121 28.5t-86.5 14.5t-69 3q-44 -3 -68.5 -2t-36 3.5t-14.5 7.5t-3 11q0 12 7.5 37.5t19 50.5t23.5 45.5t21 24.5l339 54q59 10 87.5 23.5t28.5 25.5q-21 187 -35.5 322t-25 231t-17.5 157.5t-12 101.5t-8.5 63t-7.5 41q-11 18 -24.5 51.5 t-32.5 109.5q0 21 4 55.5t12.5 68t19.5 57t25 23.5q11 0 21 -14q27 -49 53 -78t58 -49q40 -21 61 -62q-11 -51 -20 -85t-17.5 -56t-16 -36t-16.5 -27q17 -192 33 -332.5t27.5 -243t15 -173t-4.5 -123.5t-30 -94.5t-63 -84.5l398 -58q176 -25 313 -25q34 1 46.5 -3.5 t16.5 -20.5z" />
<glyph unicode="&#xfccb;" horiz-adv-x="1400" arabic-form="initial" d="M1360 494q0 -24 -9.5 -57.5t-24.5 -64t-31 -51.5t-30 -21h-105h-57q-20 0 -26.5 -1t-10.5 -1q-54 -8 -99.5 -16.5t-87 -17.5t-81.5 -19.5t-83 -23.5q-150 -59 -241.5 -94.5t-150.5 -57t-97.5 -33.5t-81.5 -22l-104 -14v232q55 -2 94 2t85 17.5t108.5 38t163.5 63.5 l143 53q-104 27 -174.5 45t-121 28.5t-86.5 14.5t-69 3q-44 -3 -68.5 -2t-36 3.5t-14.5 7.5t-3 11q0 12 7.5 37.5t19 50.5t23.5 45.5t21 24.5l339 54q59 10 87.5 23.5t28.5 25.5q-21 187 -35.5 322t-25 231t-17.5 157.5t-12 101.5t-8.5 63t-7.5 41q-11 18 -24.5 51.5 t-32.5 109.5q0 21 4 55.5t12.5 68t19.5 57t25 23.5q11 0 21 -14q27 -49 53 -78t58 -49q40 -21 61 -62q-11 -51 -20 -85t-17.5 -56t-16 -36t-16.5 -27q17 -192 33 -332.5t27.5 -243t15 -173t-4.5 -123.5t-30 -94.5t-63 -84.5l398 -58q176 -25 313 -25q34 1 46.5 -3.5 t16.5 -20.5zM359 1109l-148 -156l-161 129l134 158z" />
<glyph unicode="&#xfccc;" horiz-adv-x="858" arabic-form="initial" d="M727 -68q14 0 37 47q11 24 20 42l16 32q7 16 10.5 27.5t5.5 23.5q2 15 -5 23q-11 19 -44 47.5t-63 57.5q-30 30 -60 55t-34 34q-7 14 -13.5 28.5t-11.5 35.5t-8.5 52t-5.5 80q-3 63 -6 170t-6 238q-1 68 -2.5 157.5t-2.5 204.5l73 117q7 9 10.5 20.5t5.5 25.5 q3 21 -5.5 38t-21 34t-24.5 35t-16 40q-10 103 -18 94q-6 -8 -59 -40q-52 -31 -71 -66q-20 -34 -32 -67.5t-6 -55.5q6 -82 17 -107l17 -1067q-20 3 -51.5 -9t-90.5 -26q-42 -11 -80.5 -16.5t-85.5 -5.5q-31 0 -69 4l-7 -237q13 -3 44.5 1t72.5 12.5t87.5 20t89 23.5t77 23.5 t52.5 19.5q-4 0 17.5 -15.5t59.5 -40t87 -53.5t100 -57z" />
<glyph unicode="&#xfcce;" horiz-adv-x="1533" arabic-form="initial" d="M1493 552q0 -5 -1.5 -10.5t-8.5 -21t-21 -46t-39 -86.5q-15 -20 -61 -32q-68 1 -106.5 1.5t-59.5 0.5q-19 0 -25.5 -0.5t-10.5 -0.5q-85 -11 -185.5 -40.5t-199 -66t-188 -74t-154.5 -64.5l-211 -88q-49 -11 -94.5 -17.5t-87.5 -6.5v232q97 10 182 25.5t166.5 38.5 t160.5 53t162 70q-129 0 -198 22q-115 24 -187.5 38t-117.5 21.5t-70 10.5t-43 3q-7 0 -13.5 7.5t-10.5 18t-6.5 22t0.5 18.5q28 68 93 140t152.5 136.5t190.5 115.5t207 78q-38 21 -38 83q0 -7 5.5 6t15.5 38.5t24 56t31.5 58t38.5 46.5t43 19q-17 0 -3 -5t44.5 -14t70 -23 t75.5 -32.5t61 -40t25 -46.5q0 -27 -16.5 -74t-46 -92.5t-69.5 -79t-86 -33.5q-27 0 -71 -9t-96.5 -25t-109 -38t-108.5 -46.5t-94.5 -50.5t-68.5 -51q47 -1 79 -5.5t68.5 -11.5t84.5 -16.5t126.5 -22t196 -28t291.5 -33.5q113 -3 176 -6t93.5 -6.5t36.5 -7.5t6 -8z M1003 -303l-148 -156l-161 129l134 158z" />
<glyph unicode="&#xfccf;" horiz-adv-x="1533" arabic-form="initial" d="M1493 552q0 -5 -1.5 -10.5t-8.5 -21t-21 -46t-39 -86.5q-15 -20 -61 -32q-68 1 -106.5 1.5t-59.5 0.5q-19 0 -25.5 -0.5t-10.5 -0.5q-85 -11 -185.5 -40.5t-199 -66t-188 -74t-154.5 -64.5l-211 -88q-49 -11 -94.5 -17.5t-87.5 -6.5v232q97 10 182 25.5t166.5 38.5 t160.5 53t162 70q-129 0 -198 22q-115 24 -187.5 38t-117.5 21.5t-70 10.5t-43 3q-7 0 -13.5 7.5t-10.5 18t-6.5 22t0.5 18.5q28 68 93 140t152.5 136.5t190.5 115.5t207 78q-38 21 -38 83q0 -7 5.5 6t15.5 38.5t24 56t31.5 58t38.5 46.5t43 19q-17 0 -3 -5t44.5 -14t70 -23 t75.5 -32.5t61 -40t25 -46.5q0 -27 -16.5 -74t-46 -92.5t-69.5 -79t-86 -33.5q-27 0 -71 -9t-96.5 -25t-109 -38t-108.5 -46.5t-94.5 -50.5t-68.5 -51q47 -1 79 -5.5t68.5 -11.5t84.5 -16.5t126.5 -22t196 -28t291.5 -33.5q113 -3 176 -6t93.5 -6.5t36.5 -7.5t6 -8z" />
<glyph unicode="&#xfcd0;" horiz-adv-x="1533" arabic-form="initial" d="M1493 552q0 -5 -1.5 -10.5t-8.5 -21t-21 -46t-39 -86.5q-15 -20 -61 -32q-68 1 -106.5 1.5t-59.5 0.5q-19 0 -25.5 -0.5t-10.5 -0.5q-85 -11 -185.5 -40.5t-199 -66t-188 -74t-154.5 -64.5l-211 -88q-49 -11 -94.5 -17.5t-87.5 -6.5v232q97 10 182 25.5t166.5 38.5 t160.5 53t162 70q-129 0 -198 22q-115 24 -187.5 38t-117.5 21.5t-70 10.5t-43 3q-7 0 -13.5 7.5t-10.5 18t-6.5 22t0.5 18.5q28 68 93 140t152.5 136.5t190.5 115.5t207 78q-38 21 -38 83q0 -7 5.5 6t15.5 38.5t24 56t31.5 58t38.5 46.5t43 19q-17 0 -3 -5t44.5 -14t70 -23 t75.5 -32.5t61 -40t25 -46.5q0 -27 -16.5 -74t-46 -92.5t-69.5 -79t-86 -33.5q-27 0 -71 -9t-96.5 -25t-109 -38t-108.5 -46.5t-94.5 -50.5t-68.5 -51q47 -1 79 -5.5t68.5 -11.5t84.5 -16.5t126.5 -22t196 -28t291.5 -33.5q113 -3 176 -6t93.5 -6.5t36.5 -7.5t6 -8z M398 1158l-148 -156l-161 129l134 158z" />
<glyph unicode="&#xfcd2;" horiz-adv-x="1522" arabic-form="initial" d="M1007 1890q0 -20 -8 -48.5t-21.5 -56t-30.5 -47.5t-32 -23q-17 0 -39.5 13.5t-44.5 33t-41 42t-29 41.5q25 52 41 85t26.5 52t16.5 26.5t10 10.5q5 0 28.5 -14t49 -34.5t48 -42t26.5 -38.5zM1482 560l-3 -32q0 -39 -25 -87l-85 -84q-86 1 -138.5 2.5t-88 1t-61 -4 t-55.5 -13.5t-74 -26t-115 -41l-532 -235q-54 -24 -119.5 -31t-145.5 -10v232q81 7 133 13t91 13.5t73.5 19.5t82 29.5t116 44t175.5 64.5q-189 0 -286 31l-263 63q-24 0 -34 -6l-40 -8q-17 0 -25.5 7.5t-8.5 32.5q17 91 80.5 156t189.5 124q114 53 188 95t124.5 78 t82.5 66.5t62 63.5q4 5 22 29t43.5 57t55.5 69t58 67.5t51 53.5t36 25q25 0 48.5 -19t41 -53.5t28 -83.5t10.5 -109q0 -38 -7 -79t-17.5 -75.5t-21.5 -57t-21 -22.5q-12 0 -12 39q0 47 -5 86.5t-17 70t-32.5 49t-49.5 24.5q-11 -6 -32 -27.5t-45.5 -51.5t-52.5 -65 t-52.5 -68t-45.5 -59.5t-32 -39.5q-118 -122 -271 -211l114 -13q210 -43 346.5 -59t220.5 -18.5t128 2.5t71 4l133 -7q8 0 8 -17zM758 -203q2 -8 -4 -40t-16.5 -68t-24.5 -64t-29 -28q-11 0 -38.5 13.5t-57 32.5t-52.5 39t-24 33q-2 4 1.5 14t13 30t26 51.5t43.5 79.5z" />
<glyph unicode="&#xfcd3;" horiz-adv-x="1522" arabic-form="initial" d="M1007 1890q0 -20 -8 -48.5t-21.5 -56t-30.5 -47.5t-32 -23q-17 0 -39.5 13.5t-44.5 33t-41 42t-29 41.5q25 52 41 85t26.5 52t16.5 26.5t10 10.5q5 0 28.5 -14t49 -34.5t48 -42t26.5 -38.5zM1482 560l-3 -32q0 -39 -25 -87l-85 -84q-86 1 -138.5 2.5t-88 1t-61 -4 t-55.5 -13.5t-74 -26t-115 -41l-532 -235q-54 -24 -119.5 -31t-145.5 -10v232q81 7 133 13t91 13.5t73.5 19.5t82 29.5t116 44t175.5 64.5q-189 0 -286 31l-263 63q-24 0 -34 -6l-40 -8q-17 0 -25.5 7.5t-8.5 32.5q17 91 80.5 156t189.5 124q114 53 188 95t124.5 78 t82.5 66.5t62 63.5q4 5 22 29t43.5 57t55.5 69t58 67.5t51 53.5t36 25q25 0 48.5 -19t41 -53.5t28 -83.5t10.5 -109q0 -38 -7 -79t-17.5 -75.5t-21.5 -57t-21 -22.5q-12 0 -12 39q0 47 -5 86.5t-17 70t-32.5 49t-49.5 24.5q-11 -6 -32 -27.5t-45.5 -51.5t-52.5 -65 t-52.5 -68t-45.5 -59.5t-32 -39.5q-118 -122 -271 -211l114 -13q210 -43 346.5 -59t220.5 -18.5t128 2.5t71 4l133 -7q8 0 8 -17z" />
<glyph unicode="&#xfcd4;" horiz-adv-x="1522" arabic-form="initial" d="M1007 1890q0 -20 -8 -48.5t-21.5 -56t-30.5 -47.5t-32 -23q-17 0 -39.5 13.5t-44.5 33t-41 42t-29 41.5q25 52 41 85t26.5 52t16.5 26.5t10 10.5q5 0 28.5 -14t49 -34.5t48 -42t26.5 -38.5zM1482 560l-3 -32q0 -39 -25 -87l-85 -84q-86 1 -138.5 2.5t-88 1t-61 -4 t-55.5 -13.5t-74 -26t-115 -41l-532 -235q-54 -24 -119.5 -31t-145.5 -10v232q81 7 133 13t91 13.5t73.5 19.5t82 29.5t116 44t175.5 64.5q-189 0 -286 31l-263 63q-24 0 -34 -6l-40 -8q-17 0 -25.5 7.5t-8.5 32.5q17 91 80.5 156t189.5 124q114 53 188 95t124.5 78 t82.5 66.5t62 63.5q4 5 22 29t43.5 57t55.5 69t58 67.5t51 53.5t36 25q25 0 48.5 -19t41 -53.5t28 -83.5t10.5 -109q0 -38 -7 -79t-17.5 -75.5t-21.5 -57t-21 -22.5q-12 0 -12 39q0 47 -5 86.5t-17 70t-32.5 49t-49.5 24.5q-11 -6 -32 -27.5t-45.5 -51.5t-52.5 -65 t-52.5 -68t-45.5 -59.5t-32 -39.5q-118 -122 -271 -211l114 -13q210 -43 346.5 -59t220.5 -18.5t128 2.5t71 4l133 -7q8 0 8 -17zM291 1361q1 -9 -4.5 -41t-16 -67.5t-24.5 -63.5t-30 -28q-11 0 -38 13t-56.5 32t-52.5 39.5t-25 32.5q-1 4 2.5 14t12.5 30.5t26 52t43 78.5z " />
<glyph unicode="&#xfcd5;" horiz-adv-x="910" arabic-form="initial" d="M622 1716l-134 -180l-189 144l136 178zM870 158q0 -35 -13 -64.5t-30 -51t-34 -33t-24 -11.5q-22 16 -53.5 36.5t-66 38t-67 30t-56.5 12.5q-16 0 -52 -8.5t-84 -21t-101.5 -28t-102.5 -28t-88.5 -21t-57.5 -8.5v232q111 0 206.5 21t163.5 62q-19 78 -28 137.5t-3.5 115 t26.5 114.5t63 137q101 189 231 189q24 0 50 -13.5t47 -33.5t35 -45.5t14 -48.5q0 -42 -43 -77q-51 -3 -75 23q-36 14 -76.5 10t-76.5 -23t-62.5 -51t-34.5 -73q0 -43 21 -95.5t56 -103.5t79.5 -94.5t91.5 -67.5q77 -39 111 -72t34 -85z" />
<glyph unicode="&#xfcda;" horiz-adv-x="1525" arabic-form="initial" d="M1485 88q0 -19 -8.5 -48t-22 -55.5t-30 -46.5t-32.5 -23q-16 0 -38.5 13.5t-45 33t-41.5 41t-29 40.5q26 52 42 85t26.5 52t16 26.5t9.5 10.5q6 0 29 -14t49 -34.5t48.5 -42t26.5 -38.5zM1163 36q1 -8 -4.5 -39.5t-16 -67t-24.5 -63.5t-29 -28q-12 0 -39 13.5t-56.5 32 t-52.5 39t-25 33.5q-1 4 2.5 13.5t12.5 29t26 51t43 79.5zM1482 560l-3 -32q0 -39 -25 -87l-85 -84q-86 1 -138.5 2.5t-88 1t-61 -4t-55.5 -13.5t-74 -26t-115 -41l-532 -235q-54 -24 -119.5 -31t-145.5 -10v232q81 7 133 13t91 13.5t73.5 19.5t82 29.5t116 44t175.5 64.5 q-189 0 -286 31l-263 63q-24 0 -34 -6l-40 -8q-17 0 -25.5 7.5t-8.5 32.5q17 91 80.5 156t189.5 124q114 53 188 95t124.5 78t82.5 66.5t62 63.5q4 5 22 29t43.5 57t55.5 69t58 67.5t51 53.5t36 25q25 0 48.5 -19t41 -53.5t28 -83.5t10.5 -109q0 -38 -7 -79t-17.5 -75.5 t-21.5 -57t-21 -22.5q-12 0 -12 39q0 47 -5 86.5t-17 70t-32.5 49t-49.5 24.5q-11 -6 -32 -27.5t-45.5 -51.5t-52.5 -65t-52.5 -68t-45.5 -59.5t-32 -39.5q-118 -122 -271 -211l114 -13q210 -43 346.5 -59t220.5 -18.5t128 2.5t71 4l133 -7q8 0 8 -17zM545 -229 q2 -9 -3.5 -41t-16 -67.5t-24.5 -63.5t-30 -28q-11 0 -38.5 13t-56.5 32t-52.5 39.5t-24.5 32.5q-1 4 2.5 14t12.5 30.5t25.5 52t43.5 78.5z" />
<glyph unicode="&#xfcdb;" horiz-adv-x="1522" arabic-form="initial" d="M1367 -72q0 -20 -8.5 -48.5t-21.5 -56t-30 -48t-32 -22.5q-17 0 -39.5 13t-45 32.5t-41 42t-28.5 42.5q25 52 41 84.5t26.5 51.5t16 26.5t10.5 10.5q5 0 28 -14t49 -34t48.5 -42t26.5 -38zM1482 560l-3 -32q0 -39 -25 -87l-85 -84q-86 1 -138.5 2.5t-88 1t-61 -4 t-55.5 -13.5t-74 -26t-115 -41l-532 -235q-54 -24 -119.5 -31t-145.5 -10v232q81 7 133 13t91 13.5t73.5 19.5t82 29.5t116 44t175.5 64.5q-189 0 -286 31l-263 63q-24 0 -34 -6l-40 -8q-17 0 -25.5 7.5t-8.5 32.5q17 91 80.5 156t189.5 124q114 53 188 95t124.5 78 t82.5 66.5t62 63.5q4 5 22 29t43.5 57t55.5 69t58 67.5t51 53.5t36 25q25 0 48.5 -19t41 -53.5t28 -83.5t10.5 -109q0 -38 -7 -79t-17.5 -75.5t-21.5 -57t-21 -22.5q-12 0 -12 39q0 47 -5 86.5t-17 70t-32.5 49t-49.5 24.5q-11 -6 -32 -27.5t-45.5 -51.5t-52.5 -65 t-52.5 -68t-45.5 -59.5t-32 -39.5q-118 -122 -271 -211l114 -13q210 -43 346.5 -59t220.5 -18.5t128 2.5t71 4l133 -7q8 0 8 -17zM1013 -116q0 -19 -8.5 -48t-21.5 -56t-30 -47.5t-32 -23.5q-17 0 -39.5 13.5t-45 33t-41.5 42t-28 41.5q25 52 41 85t26.5 52t16 26.5 t9.5 10.5q6 0 29 -14t49 -34.5t48.5 -42t26.5 -38.5z" />
<glyph unicode="&#xfcdc;" horiz-adv-x="1522" arabic-form="initial" d="M1373 50q0 -19 -8.5 -47.5t-22 -56t-30 -47.5t-32.5 -23q-16 0 -38.5 13t-45 33t-41.5 42t-29 42q26 51 42 84t26.5 52t16 26.5t9.5 10.5q6 0 29 -14t49 -34t48.5 -42t26.5 -39zM1070 11q2 -8 -3.5 -39.5t-16 -67t-24.5 -63.5t-30 -28q-11 0 -38.5 13t-56.5 32 t-52.5 39.5t-24.5 32.5q-1 5 2.5 14.5t12.5 30t25.5 51t43.5 78.5zM1482 560l-3 -32q0 -39 -25 -87l-85 -84q-86 1 -138.5 2.5t-88 1t-61 -4t-55.5 -13.5t-74 -26t-115 -41l-532 -235q-54 -24 -119.5 -31t-145.5 -10v232q81 7 133 13t91 13.5t73.5 19.5t82 29.5t116 44 t175.5 64.5q-189 0 -286 31l-263 63q-24 0 -34 -6l-40 -8q-17 0 -25.5 7.5t-8.5 32.5q17 91 80.5 156t189.5 124q114 53 188 95t124.5 78t82.5 66.5t62 63.5q4 5 22 29t43.5 57t55.5 69t58 67.5t51 53.5t36 25q25 0 48.5 -19t41 -53.5t28 -83.5t10.5 -109q0 -38 -7 -79 t-17.5 -75.5t-21.5 -57t-21 -22.5q-12 0 -12 39q0 47 -5 86.5t-17 70t-32.5 49t-49.5 24.5q-11 -6 -32 -27.5t-45.5 -51.5t-52.5 -65t-52.5 -68t-45.5 -59.5t-32 -39.5q-118 -122 -271 -211l114 -13q210 -43 346.5 -59t220.5 -18.5t128 2.5t71 4l133 -7q8 0 8 -17zM291 1361 q1 -9 -4.5 -41t-16 -67.5t-24.5 -63.5t-30 -28q-11 0 -38 13t-56.5 32t-52.5 39.5t-25 32.5q-1 4 2.5 14t12.5 30.5t26 52t43 78.5z" />
<glyph unicode="&#xfcdd;" horiz-adv-x="959" arabic-form="initial" d="M870 158q0 -35 -13 -64.5t-30 -51t-34 -33t-24 -11.5q-22 16 -53.5 36.5t-66 38t-67 30t-56.5 12.5q-16 0 -52 -8.5t-84 -21t-101.5 -28t-102.5 -28t-88.5 -21t-57.5 -8.5v232q111 0 206.5 21t163.5 62q-19 78 -28 137.5t-3.5 115t26.5 114.5t63 137q101 189 231 189 q24 0 50 -13.5t47 -33.5t35 -45.5t14 -48.5q0 -42 -43 -77q-51 -3 -75 23q-36 14 -76.5 10t-76.5 -23t-62.5 -51t-34.5 -73q0 -43 21 -95.5t56 -103.5t79.5 -94.5t91.5 -67.5q77 -39 111 -72t34 -85zM916 -221q3 -19 -7.5 -47t-23.5 -54t-25 -45t-12 -20q-27 -2 -63.5 7 t-68.5 23t-53.5 30.5t-19.5 30.5q5 15 12.5 40t20 50.5t29.5 45t38 23.5t50.5 -5.5t56 -24.5t46 -30t20.5 -24zM823 1467l-122 -189l-188 122l-117 -188l-2 2l-193 127l119 193l186 -120l121 185l194 -130z" />
<glyph unicode="&#x621;" horiz-adv-x="782" arabic-form="isolated" d="M422 605q112 0 112 -112q-13 -101 -96 -101l-95 62h-28q-38 0 -89 -73q61 -90 173 -90l235 39q68 -9 68 -28v-16q0 -97 -202 -118q-69 0 -286 -146l-56 -22l-11 34v5l45 90l-106 117l-6 34q0 157 291 314q51 4 51 11z" />
<glyph unicode="&#x622;" horiz-adv-x="898" arabic-form="isolated" d="M434 1294q61 0 73 -157q123 -875 123 -935q-19 -202 -61 -202h-6q-39 0 -39 123l-168 997q36 174 78 174zM818 1804q40 0 40 -33q0 -168 -448 -241q-28 -6 -95.5 8t-117.5 14h-11l-101 -72q-45 0 -45 44q0 76 140 202l39 11l163 -50q226 0 392 117h44z" />
<glyph unicode="&#x622;" horiz-adv-x="713" arabic-form="final" d="M799 1815q40 0 40 -33q0 -168 -448 -241q-28 -6 -95.5 8t-117.5 14h-11l-101 -72q-45 0 -45 44q0 76 140 202l39 11l163 -50q226 0 392 117h44zM315 1274h17q51 -6 100 -440q51 -571 154 -595q26 -12 87 -15h85v-224h-62q-234 0 -303 168q-54 119 -151 960q0 83 73 146z " />
<glyph unicode="&#x623;" horiz-adv-x="518" arabic-form="isolated" d="M282 1307q61 0 73 -157q123 -875 123 -935q-19 -202 -61 -202h-6q-39 0 -39 123l-168 997q36 174 78 174zM279 1695q79 0 79 -79q-10 -70 -67 -70l-66 42h-20q-28 0 -63 -50q42 -63 122 -63l164 28q47 -7 47 -20v-12q0 -68 -141 -82q-48 0 -200 -102l-39 -17l-7 24v4 l30 63l-74 83l-4 24q0 109 204 218q35 3 35 9z" />
<glyph unicode="&#x623;" horiz-adv-x="601" arabic-form="final" d="M309 1728q79 0 79 -79q-10 -70 -67 -70l-66 42h-20q-28 0 -63 -50q42 -63 122 -63l164 28q47 -7 47 -20v-12q0 -68 -141 -82q-48 0 -200 -102l-39 -17l-7 24v4l30 63l-74 83l-4 24q0 109 204 218q35 3 35 9zM208 1274h17q51 -6 100 -440q51 -571 154 -595q26 -12 87 -15 h85v-224h-62q-234 0 -303 168q-54 119 -151 960q0 83 73 146z" />
<glyph unicode="&#x624;" horiz-adv-x="1222" arabic-form="isolated" d="M849 1228q79 0 79 -79q-10 -70 -67 -70l-66 42h-20q-28 0 -63 -50q42 -63 122 -63l164 28q47 -7 47 -20v-12q0 -68 -141 -82q-48 0 -200 -102l-39 -17l-7 24v4l30 63l-74 83l-4 24q0 109 204 218q35 3 35 9zM886 703q183 0 291 -375l5 -56v-6q0 -368 -386 -621 q-134 -73 -263 -73h-11l-6 -6l-6 6h-16q-143 0 -443 95l-11 39l6 6h274q367 0 666 369q68 102 68 129l-12 11q-96 -78 -140 -78q-169 0 -218 224q90 336 202 336zM852 423v-17l6 -28h39q46 0 61 62q0 39 -39 39h-45q-15 0 -22 -56z" />
<glyph unicode="&#x624;" horiz-adv-x="1150" arabic-form="final" d="M757 970q79 0 79 -79q-10 -70 -67 -70l-66 42h-20q-28 0 -63 -50q42 -63 122 -63l164 28q47 -7 47 -20v-12q0 -68 -141 -82q-48 0 -200 -102l-39 -17l-7 24v4l30 63l-74 83l-4 24q0 109 204 218q35 3 35 9zM796 484q118 0 183 -76t104 -184l117 -1v-223h-109 q-40 -105 -148 -256q-188 -267 -489 -267h-33q-381 22 -381 101q0 28 34 28h263q218 0 515 268l39 56v17q-8 23 -39 23h-78q-202 41 -202 178q0 177 168 320zM723 227q38 -39 67 -39h34q17 16 -2 50t-25.5 36.5t-31.5 2.5t-33.5 -8.5t-8.5 -41.5z" />
<glyph unicode="&#x625;" horiz-adv-x="537" arabic-form="isolated" d="M301 -37q79 0 79 -79q-10 -70 -67 -70l-66 42h-20q-28 0 -63 -50q42 -63 122 -63l164 28q47 -7 47 -20v-12q0 -68 -141 -82q-48 0 -200 -102l-39 -17l-7 24v4l30 63l-74 83l-4 24q0 109 204 218q35 3 35 9zM102 1523h16q49 0 76 -224l154 -952l11 -179v-17 q0 -110 -61 -151h-12q-50 0 -78 280l-168 1070q32 173 62 173z" />
<glyph unicode="&#x625;" horiz-adv-x="619" arabic-form="final" d="M331 -108q79 0 79 -79q-10 -70 -67 -70l-66 42h-20q-28 0 -63 -50q42 -63 122 -63l164 28q47 -7 47 -20v-12q0 -68 -141 -82q-48 0 -200 -102l-39 -17l-7 24v4l30 63l-74 83l-4 24q0 109 204 218q35 3 35 9zM143 1568h17q81 0 128 -734q51 -571 154 -590q19 -20 87 -20 h140v-224h-117q-234 0 -303 168q-54 119 -179 1254q0 83 73 146z" />
<glyph unicode="&#x626;" horiz-adv-x="1390" arabic-form="isolated" d="M318 951q79 0 79 -79q-10 -70 -67 -70l-66 42h-20q-28 0 -63 -50q42 -63 122 -63l164 28q47 -7 47 -20v-12q0 -68 -141 -82q-48 0 -200 -102l-39 -17l-7 24v4l30 63l-74 83l-4 24q0 109 204 218q35 3 35 9zM1177 997q102 0 162 -135l11 -33q-11 -135 -72 -135l-124 84 h-28q-98 0 -252 -207q-22 -38 -22 -67v-34q0 -151 319 -151q179 -24 179 -168q0 -286 -638 -492l-146 -17h-5q-363 0 -487 269q-23 67 -34 173q0 200 168 381l56 28l6 -6v-28q0 -43 -101 -280v-5q0 -220 285 -291l112 -11h62q277 0 538 212v6q0 19 -62 28h-34l-100 -6 q-269 43 -269 246v17q12 205 263 515q118 103 213 107z" />
<glyph unicode="&#x626;" horiz-adv-x="1509" arabic-form="final" d="M1474 224h40v-224h-57q-95 0 -157 -7.5t-139.5 -44t-101.5 -64.5q21 -29 291 -101q56 -42 56 -128q0 -285 -660 -454q-77 -17 -152 -17q-345 0 -504 275q-50 113 -50 212q0 181 196 437l45 17q22 -21 22 -45h6q0 -16 -118 -224q-28 -73 -28 -112q0 -169 314 -313l50 -6 h129q291 0 510 151v17q0 24 -202 62q-134 54 -134 145q0 125 179 257q151 104 221 135.5t244 31.5zM350 659q79 0 79 -79q-10 -70 -67 -70l-66 42h-20q-28 0 -63 -50q42 -63 122 -63l164 28q47 -7 47 -20v-12q0 -68 -141 -82q-48 0 -200 -102l-39 -17l-7 24v4l30 63l-74 83 l-4 24q0 109 204 218q35 3 35 9z" />
<glyph unicode="&#x626;" horiz-adv-x="748" arabic-form="initial" d="M234 1007q79 0 79 -79q-10 -70 -67 -70l-66 42h-20q-28 0 -63 -50q42 -63 122 -63l164 28q47 -7 47 -20v-12q0 -68 -141 -82q-48 0 -200 -102l-39 -17l-7 24v4l30 63l-74 83l-4 24q0 109 204 218q35 3 35 9zM454 672q97 0 202 -336q-6 -197 -159 -257q-144 -74 -327 -79 h-104v224q237 0 324.5 13.5t102.5 81.5q-5 50 -67 126t-62 109q40 118 90 118z" />
<glyph unicode="&#x626;" horiz-adv-x="760" arabic-form="medial" d="M281 899q79 0 79 -79q-10 -70 -67 -70l-66 42h-20q-28 0 -63 -50q42 -63 122 -63l164 28q47 -7 47 -20v-12q0 -68 -141 -82q-48 0 -200 -102l-39 -17l-7 24v4l30 63l-74 83l-4 24q0 109 204 218q35 3 35 9zM467 468q25 0 39 -45q36 -129 137 -185q25 -14 74 -14h48v-224 h-78q-58 0 -121.5 56.5t-98.5 97.5q-136 -154 -416 -154h-56v224h126q238 3 273 154q31 90 73 90z" />
<glyph unicode="&#x627;" horiz-adv-x="439" arabic-form="isolated" d="M142 1523h16q49 0 76 -224l154 -952l11 -179v-17q0 -110 -61 -151h-12q-50 0 -78 280l-168 1070q32 173 62 173z" />
<glyph unicode="&#x627;" horiz-adv-x="619" arabic-form="final" d="M143 1568h17q81 0 128 -734q51 -571 154 -590q19 -20 87 -20h140v-224h-117q-234 0 -303 168q-54 119 -179 1254q0 83 73 146z" />
<glyph unicode="&#x628;" horiz-adv-x="1866" arabic-form="isolated" d="M1647 703q56 0 140 -140q39 -77 39 -135v-5q0 -230 -112 -286q-371 -179 -1080 -179q-439 0 -572 263q-22 69 -22 112q0 125 157 336q24 23 61 23q19 0 34 -45l-90 -252v-11q0 -138 420 -196l84 -6q969 59 969 185v5q0 24 -117 163l-12 33q33 135 101 135zM1160 -277 l-140 -140l-140 140l140 140z" />
<glyph unicode="&#x628;" horiz-adv-x="1809" arabic-form="final" d="M264 636l17 -17v-6q0 -56 -90 -196l-11 -33q0 -61 118 -157q173 -95 397 -95h23q722 92 744 128q105 56 163 163q5 17 33 17q23 0 40 -51l-12 -84q30 -69 114 -81h59v-224h-59q-127 9 -186 137l-241 -106q-339 -101 -639 -101h-89q-443 0 -577 235q-28 93 -28 146 q0 165 196 325h28zM1018 -295l-140 -140l-140 140l140 140z" />
<glyph unicode="&#x628;" horiz-adv-x="678" arabic-form="initial" d="M374 -241l-140 -140l-140 140l140 140zM388 672q97 0 202 -336q-6 -197 -159 -257q-144 -74 -327 -79h-104v224q237 0 324.5 13.5t102.5 81.5q-5 50 -67 126t-62 109q40 118 90 118z" />
<glyph unicode="&#x628;" horiz-adv-x="720" arabic-form="medial" d="M432 -231l-140 -140l-140 140l140 140zM472 468q25 0 39 -45q36 -129 137 -185q25 -14 74 -14h48v-224h-78q-58 0 -121.5 56.5t-98.5 97.5q-136 -154 -416 -154h-56v224h126q238 3 273 154q31 90 73 90z" />
<glyph unicode="&#x629;" horiz-adv-x="654" arabic-form="isolated" d="M309 1179l-105 -162l-164 113l107 158zM601 1229l-105 -162l-164 113l107 158zM242 666h5q177 0 336 -308l11 -78q0 -113 -207 -274l-140 -22q-207 20 -207 184l106 319q0 157 51 157q0 14 45 22zM191 252q59 -39 95 -39h34q63 0 101 61v12q-80 117 -146 117h-22 q-44 0 -62 -151z" />
<glyph unicode="&#x629;" horiz-adv-x="819" arabic-form="final" d="M391 1346l-105 -162l-164 113l107 158zM683 1396l-105 -162l-164 113l107 158zM499 900q60 0 129 -420q64 -186 119.5 -219t121.5 -33v-229h-28q-184 0 -308 218h-6q-147 -129 -246 -129h-28q-213 0 -213 107q0 173 325 369q84 35 84 213q0 106 50 123zM298 329v-11 l11 -11h11q112 0 174 84v11l-23 28h-50q-48 0 -123 -101z" />
<glyph unicode="&#x62a;" horiz-adv-x="1866" arabic-form="isolated" d="M906 875l-105 -162l-164 113l107 158zM1198 925l-105 -162l-164 113l107 158zM1647 703q56 0 140 -140q39 -77 39 -135v-5q0 -230 -112 -286q-371 -179 -1080 -179q-439 0 -572 263q-22 69 -22 112q0 125 157 336q24 23 61 23q19 0 34 -45l-90 -252v-11q0 -138 420 -196 l84 -6q969 59 969 185v5q0 24 -117 163l-12 33q33 135 101 135z" />
<glyph unicode="&#x62a;" horiz-adv-x="1809" arabic-form="final" d="M264 636l17 -17v-6q0 -56 -90 -196l-11 -33q0 -61 118 -157q173 -95 397 -95h23q722 92 744 128q105 56 163 163q5 17 33 17q23 0 40 -51l-12 -84q30 -69 114 -81h59v-224h-59q-127 9 -186 137l-241 -106q-339 -101 -639 -101h-89q-443 0 -577 235q-28 93 -28 146 q0 165 196 325h28zM874 839l-105 -162l-164 113l107 158zM1166 889l-105 -162l-164 113l107 158z" />
<glyph unicode="&#x62a;" horiz-adv-x="635" arabic-form="initial" d="M212 936l-105 -162l-164 113l107 158zM504 986l-105 -162l-164 113l107 158zM377 672q97 0 202 -336q-6 -197 -159 -257q-144 -74 -327 -79h-104v224q237 0 324.5 13.5t102.5 81.5q-5 50 -67 126t-62 109q40 118 90 118z" />
<glyph unicode="&#x62a;" horiz-adv-x="720" arabic-form="medial" d="M472 468q25 0 39 -45q36 -129 137 -185q25 -14 74 -14h48v-224h-78q-58 0 -121.5 56.5t-98.5 97.5q-136 -154 -416 -154h-56v224h126q238 3 273 154q31 90 73 90zM317 765l-105 -162l-164 113l107 158zM609 815l-105 -162l-164 113l107 158z" />
<glyph unicode="&#x62b;" horiz-adv-x="1866" arabic-form="isolated" d="M917 756l-105 -162l-164 113l107 158zM1209 806l-105 -162l-164 113l107 158zM1010 1086l-105 -162l-164 113l107 158zM1647 703q56 0 140 -140q39 -77 39 -135v-5q0 -230 -112 -286q-371 -179 -1080 -179q-439 0 -572 263q-22 69 -22 112q0 125 157 336q24 23 61 23 q19 0 34 -45l-90 -252v-11q0 -138 420 -196l84 -6q969 59 969 185v5q0 24 -117 163l-12 33q33 135 101 135z" />
<glyph unicode="&#x62b;" horiz-adv-x="1809" arabic-form="final" d="M843 637l-105 -162l-164 113l107 158zM1135 687l-105 -162l-164 113l107 158zM936 967l-105 -162l-164 113l107 158zM264 636l17 -17v-6q0 -56 -90 -196l-11 -33q0 -61 118 -157q173 -95 397 -95h23q722 92 744 128q105 56 163 163q5 17 33 17q23 0 40 -51l-12 -84 q30 -69 114 -81h59v-224h-59q-127 9 -186 137l-241 -106q-339 -101 -639 -101h-89q-443 0 -577 235q-28 93 -28 146q0 165 196 325h28z" />
<glyph unicode="&#x62b;" horiz-adv-x="666" arabic-form="initial" d="M381 672q97 0 202 -336q-6 -197 -159 -257q-144 -74 -327 -79h-104v224q237 0 324.5 13.5t102.5 81.5q-5 50 -67 126t-62 109q40 118 90 118zM182 939l-105 -162l-164 113l107 158zM474 989l-105 -162l-164 113l107 158zM275 1269l-105 -162l-164 113l107 158z" />
<glyph unicode="&#x62b;" horiz-adv-x="720" arabic-form="medial" d="M322 751l-105 -162l-164 113l107 158zM614 801l-105 -162l-164 113l107 158zM415 1081l-105 -162l-164 113l107 158zM472 468q25 0 39 -45q36 -129 137 -185q25 -14 74 -14h48v-224h-78q-58 0 -121.5 56.5t-98.5 97.5q-136 -154 -416 -154h-56v224h126q238 3 273 154 q31 90 73 90z" />
<glyph unicode="&#x62c;" horiz-adv-x="1400" arabic-form="isolated" d="M449 554h677q34 0 34 -33v-17q0 -118 -134 -162q-97 0 -437 -135q-347 -158 -347 -604v-17q0 -360 319 -476q140 -56 336 -56h50l739 73q96 0 96 -45v-6q-425 -145 -639 -235q-105 -17 -229 -17h-68q-767 0 -767 728q0 452 308 734v11q0 17 -56 17q-96 0 -229 -152 l-23 -5q-25 0 -39 50q0 81 185 297q59 50 224 50zM823 -295l-140 -140l-140 140l140 140z" />
<glyph unicode="&#x62c;" horiz-adv-x="1362" arabic-form="final" d="M466 659h722l17 -16v-45q0 -76 -118 -151q-112 -21 -112 -73q105 -168 409 -151v-222l-118 -2q-282 0 -369 140q-17 28 -17 72v174l-11 11h-17q-216 -29 -398 -162q-268 -236 -268 -571q51 -259 156 -353q191 -173 639 -173q357 0 711 78h28q50 -8 50 -56v-6 q0 -42 -291 -106q-376 -123 -644 -123q-577 0 -750 392q-45 151 -45 257q0 430 353 818q33 22 33 44l-33 12h-28q-86 0 -219 -101h-33l-17 17v39q0 87 218 241q69 16 152 16zM781 -259l-140 -140l-140 140l140 140z" />
<glyph unicode="&#x62c;" horiz-adv-x="1363" arabic-form="initial" d="M377 680q72 0 425 -196q150 -67 409 -67h56l22 6q30 0 34 -73q0 -125 -168 -140h-78l-219 11q-113 0 -599 -179q-119 -42 -186 -42h-73v224h74l28 3q135 0 403 112v5q-57 101 -168 101l-207 -89h-17q-44 0 -50 61q0 135 258 258zM741 -169l-140 -140l-140 140l140 140z " />
<glyph unicode="&#x62c;" horiz-adv-x="1240" arabic-form="medial" d="M720 -275l-140 -140l-140 140l140 140zM364 711q416 -152 554 -190l62 -6h34l95 11q123 -11 123 -78q0 -113 -156 -148l-1 -40q-3 -36 112 -36h73v-224h-34q-208 0 -244 56t-19 162v56q-23 26 -65 26h-38q-93 8 -266.5 -90t-247.5 -131t-132.5 -49.5t-144.5 -29.5h-69 v224q63 0 157.5 19.5t204.5 61.5t148 93q-52 72 -163 72h-5q-72 0 -213 -84h-23q-15 0 -28 40q12 174 258 280z" />
<glyph unicode="&#x62d;" horiz-adv-x="1400" arabic-form="isolated" d="M449 554h677q34 0 34 -33v-17q0 -118 -134 -162q-97 0 -437 -135q-347 -158 -347 -604v-17q0 -360 319 -476q140 -56 336 -56h50l739 73q96 0 96 -45v-6q-425 -145 -639 -235q-105 -17 -229 -17h-68q-767 0 -767 728q0 452 308 734v11q0 17 -56 17q-96 0 -229 -152 l-23 -5q-25 0 -39 50q0 81 185 297q59 50 224 50z" />
<glyph unicode="&#x62d;" horiz-adv-x="1362" arabic-form="final" d="M466 659h722l17 -16v-45q0 -76 -118 -151q-112 -21 -112 -73q105 -168 409 -151v-222l-118 -2q-282 0 -369 140q-17 28 -17 72v174l-11 11h-17q-216 -29 -398 -162q-268 -236 -268 -571q51 -259 156 -353q191 -173 639 -173q357 0 711 78h28q50 -8 50 -56v-6 q0 -42 -291 -106q-376 -123 -644 -123q-577 0 -750 392q-45 151 -45 257q0 430 353 818q33 22 33 44l-33 12h-28q-86 0 -219 -101h-33l-17 17v39q0 87 218 241q69 16 152 16z" />
<glyph unicode="&#x62d;" horiz-adv-x="1363" arabic-form="initial" d="M377 680q72 0 425 -196q150 -67 409 -67h56l22 6q30 0 34 -73q0 -125 -168 -140h-78l-219 11q-113 0 -599 -179q-119 -42 -186 -42h-73v224h74l28 3q135 0 403 112v5q-57 101 -168 101l-207 -89h-17q-44 0 -50 61q0 135 258 258z" />
<glyph unicode="&#x62d;" horiz-adv-x="1240" arabic-form="medial" d="M364 711q416 -152 554 -190l62 -6h34l95 11q123 -11 123 -78q0 -113 -156 -148l-1 -40q-3 -36 112 -36h73v-224h-34q-208 0 -244 56t-19 162v56q-23 26 -65 26h-38q-93 8 -266.5 -90t-247.5 -131t-132.5 -49.5t-144.5 -29.5h-69v224q63 0 157.5 19.5t204.5 61.5t148 93 q-52 72 -163 72h-5q-72 0 -213 -84h-23q-15 0 -28 40q12 174 258 280z" />
<glyph unicode="&#x62e;" horiz-adv-x="1400" arabic-form="isolated" d="M683 920l-140 -140l-140 140l140 140zM449 554h677q34 0 34 -33v-17q0 -118 -134 -162q-97 0 -437 -135q-347 -158 -347 -604v-17q0 -360 319 -476q140 -56 336 -56h50l739 73q96 0 96 -45v-6q-425 -145 -639 -235q-105 -17 -229 -17h-68q-767 0 -767 728q0 452 308 734 v11q0 17 -56 17q-96 0 -229 -152l-23 -5q-25 0 -39 50q0 81 185 297q59 50 224 50z" />
<glyph unicode="&#x62e;" horiz-adv-x="1362" arabic-form="final" d="M769 938l-140 -140l-140 140l140 140zM466 659h722l17 -16v-45q0 -76 -118 -151q-112 -21 -112 -73q105 -168 409 -151v-222l-118 -2q-282 0 -369 140q-17 28 -17 72v174l-11 11h-17q-216 -29 -398 -162q-268 -236 -268 -571q51 -259 156 -353q191 -173 639 -173 q357 0 711 78h28q50 -8 50 -56v-6q0 -42 -291 -106q-376 -123 -644 -123q-577 0 -750 392q-45 151 -45 257q0 430 353 818q33 22 33 44l-33 12h-28q-86 0 -219 -101h-33l-17 17v39q0 87 218 241q69 16 152 16z" />
<glyph unicode="&#x62e;" horiz-adv-x="1363" arabic-form="initial" d="M520 989l-140 -140l-140 140l140 140zM377 680q72 0 425 -196q150 -67 409 -67h56l22 6q30 0 34 -73q0 -125 -168 -140h-78l-219 11q-113 0 -599 -179q-119 -42 -186 -42h-73v224h74l28 3q135 0 403 112v5q-57 101 -168 101l-207 -89h-17q-44 0 -50 61q0 135 258 258z " />
<glyph unicode="&#x62e;" horiz-adv-x="1240" arabic-form="medial" d="M542 1025l-140 -140l-140 140l140 140zM364 711q416 -152 554 -190l62 -6h34l95 11q123 -11 123 -78q0 -113 -156 -148l-1 -40q-3 -36 112 -36h73v-224h-34q-208 0 -244 56t-19 162v56q-23 26 -65 26h-38q-93 8 -266.5 -90t-247.5 -131t-132.5 -49.5t-144.5 -29.5h-69 v224q63 0 157.5 19.5t204.5 61.5t148 93q-52 72 -163 72h-5q-72 0 -213 -84h-23q-15 0 -28 40q12 174 258 280z" />
<glyph unicode="&#x62f;" horiz-adv-x="700" arabic-form="isolated" d="M264 815h6q269 -24 363 -392l11 -99q-5 -208 -68 -250q-70 -48 -369 -74h-61q-106 0 -106 118v11q11 112 67 112q25 -11 73 -11h39q93 0 184 24.5t91 43.5q-30 222 -247 298q-73 9 -73 101q23 118 90 118z" />
<glyph unicode="&#x62f;" horiz-adv-x="1114" arabic-form="final" d="M620 1052h11q26 0 187 -452q66 -241 152 -311q61 -65 194 -65v-224h-61q-120 0 -240 124l-89 118q-160 -160 -269.5 -201t-256.5 -41q-199 0 -208 130q0 63 62 106q21 8 84 -2t163 -10q165 0 329 119q51 57 31 95l-160 440q0 28 71 174z" />
<glyph unicode="&#x630;" horiz-adv-x="700" arabic-form="isolated" d="M264 815h6q269 -24 363 -392l11 -99q-5 -208 -68 -250q-70 -48 -369 -74h-61q-106 0 -106 118v11q11 112 67 112q25 -11 73 -11h39q93 0 184 24.5t91 43.5q-30 222 -247 298q-73 9 -73 101q23 118 90 118zM373 1140l-140 -140l-140 140l140 140z" />
<glyph unicode="&#x630;" horiz-adv-x="1114" arabic-form="final" d="M685 1376l-140 -140l-140 140l140 140zM620 1052h11q26 0 187 -452q66 -241 152 -311q61 -65 194 -65v-224h-61q-120 0 -240 124l-89 118q-160 -160 -269.5 -201t-256.5 -41q-199 0 -208 130q0 63 62 106q21 8 84 -2t163 -10q165 0 329 119q51 57 31 95l-160 440 q0 28 71 174z" />
<glyph unicode="&#x631;" horiz-adv-x="1082" arabic-form="isolated" d="M813 566q161 0 229 -392v-6q0 -187 -212 -459q-97 -129 -398 -129q-370 35 -370 84l-22 23q0 39 50 39l286 -17q239 0 504 336q34 71 34 140q0 50 -146 185q-17 21 -17 50v17q6 129 62 129z" />
<glyph unicode="&#x631;" horiz-adv-x="1147" arabic-form="final" d="M1167 224v-224h-85q-27 0 -58.5 -106t-80.5 -198.5t-125 -176.5q-145 -135 -341 -135q-371 66 -437 146v11q29 45 67 45q226 -56 258 -56h17q261 0 526 375q17 28 8.5 61.5t-58.5 55.5q-45 77 -45 96q35 106 87 106h267z" />
<glyph unicode="&#x632;" horiz-adv-x="1082" arabic-form="isolated" d="M831 852l-140 -140l-140 140l140 140zM813 566q161 0 229 -392v-6q0 -187 -212 -459q-97 -129 -398 -129q-370 35 -370 84l-22 23q0 39 50 39l286 -17q239 0 504 336q34 71 34 140q0 50 -146 185q-17 21 -17 50v17q6 129 62 129z" />
<glyph unicode="&#x632;" horiz-adv-x="1147" arabic-form="final" d="M926 556l-140 -140l-140 140l140 140zM1167 224v-224h-85q-27 0 -58.5 -106t-80.5 -198.5t-125 -176.5q-145 -135 -341 -135q-371 66 -437 146v11q29 45 67 45q226 -56 258 -56h17q261 0 526 375q17 28 8.5 61.5t-58.5 55.5q-45 77 -45 96q35 106 87 106h267z" />
<glyph unicode="&#x633;" horiz-adv-x="1917" arabic-form="isolated" d="M1770 633q55 0 107 -241q-69 -297 -202 -297l-190 62h-6q-162 -76 -291 -118q-45 -31 -45 -195q-40 -157 -129 -213q-240 -191 -560 -191q-193 0 -347 191q-67 131 -67 190v39q0 146 134 342l40 33h5q34 -24 34 -45l-62 -234v-45q0 -150 252 -219q35 -11 107 -11 q260 0 459 163q22 43 22 67v45q0 93 -134 324l-6 39q0 49 62 129q18 0 145 -146q33 -22 84 -22q159 0 230 101q41 185 84 185h6q61 -47 61 -96l-5 -61q63 -73 117 -73h17q29 14 34 34l-28 106q22 157 72 157z" />
<glyph unicode="&#x633;" horiz-adv-x="1988" arabic-form="final" d="M1782 409l22 -6v-17q0 -131 112 -162l92 1v-227l-78 1q-85 12 -176 68h-17q-88 -78 -157 -78l-185 39q-325 -50 -325 -67q-60 -313 -117 -313q-86 -112 -398 -191q-64 -17 -134 -17h-23q-203 0 -324 219q-34 74 -34 157q0 205 162 380h23q17 -4 28 -39l-90 -252v-5 q0 -103 196 -230q70 -17 123 -17h6q203 0 409 135q33 53 33 78q0 109 -128 308l-17 50q22 129 78 129h6l140 -157q45 -22 145 -22q230 0 230 95q52 115 95 117h6q33 0 33 -33v-84q0 -67 68 -67h44q33 0 101 173q25 34 51 34z" />
<glyph unicode="&#x633;" horiz-adv-x="1257" arabic-form="initial" d="M1128 622q71 -21 89 -236v-11q0 -234 -78.5 -254t-100.5 -23t-224 48q-17 0 -70 -39.5t-100 -50.5t-87 -14t-219 14q-95 -56 -342 -56l-1 224q186 0 259.5 28t89.5 67q70 118 84 123h5q34 0 45 -156l22 -17h79l61 -6q96 0 163 196l56 90h5q51 0 51 -62v-101 q0 -67 123 -67q39 14 39 56l-17 123q21 124 68 124z" />
<glyph unicode="&#x633;" horiz-adv-x="1535" arabic-form="medial" d="M1299 470q28 -21 39.5 -74.5t80 -112.5t107.5 -59h29v-224h-36q-102 10 -265 146l-95 -90q-39 -28 -89 -28l-152 22q-179 -50 -284.5 -25t-146.5 25q-207 -50 -347 -50h-140v224h108l161 6q222 0 302 156l39 12h6q43 0 45 -51l-23 -106q34 -28 73 -28h51q109 0 134 73 q60 151 106 151h23q12 0 28 -51l-6 -28v-78q13 -28 56 -28h6q75 0 145 168z" />
<glyph unicode="&#x634;" horiz-adv-x="1917" arabic-form="isolated" d="M1770 633q55 0 107 -241q-69 -297 -202 -297l-190 62h-6q-162 -76 -291 -118q-45 -31 -45 -195q-40 -157 -129 -213q-240 -191 -560 -191q-193 0 -347 191q-67 131 -67 190v39q0 146 134 342l40 33h5q34 -24 34 -45l-62 -234v-45q0 -150 252 -219q35 -11 107 -11 q260 0 459 163q22 43 22 67v45q0 93 -134 324l-6 39q0 49 62 129q18 0 145 -146q33 -22 84 -22q159 0 230 101q41 185 84 185h6q61 -47 61 -96l-5 -61q63 -73 117 -73h17q29 14 34 34l-28 106q22 157 72 157zM1423 719l-105 -162l-164 113l107 158zM1715 769l-105 -162 l-164 113l107 158zM1516 1049l-105 -162l-164 113l107 158z" />
<glyph unicode="&#x634;" horiz-adv-x="1988" arabic-form="final" d="M1782 409l22 -6v-17q0 -131 112 -162l92 1v-227l-78 1q-85 12 -176 68h-17q-88 -78 -157 -78l-185 39q-325 -50 -325 -67q-60 -313 -117 -313q-86 -112 -398 -191q-64 -17 -134 -17h-23q-203 0 -324 219q-34 74 -34 157q0 205 162 380h23q17 -4 28 -39l-90 -252v-5 q0 -103 196 -230q70 -17 123 -17h6q203 0 409 135q33 53 33 78q0 109 -128 308l-17 50q22 129 78 129h6l140 -157q45 -22 145 -22q230 0 230 95q52 115 95 117h6q33 0 33 -33v-84q0 -67 68 -67h44q33 0 101 173q25 34 51 34zM1429 586l-105 -162l-164 113l107 158zM1721 636 l-105 -162l-164 113l107 158zM1522 916l-105 -162l-164 113l107 158z" />
<glyph unicode="&#x634;" horiz-adv-x="1262" arabic-form="initial" d="M1133 622q71 -21 89 -236v-11q0 -234 -78.5 -254t-100.5 -23t-224 48q-17 0 -70 -39.5t-100 -50.5t-87 -14t-219 14q-95 -56 -342 -56l-1 224q186 0 259.5 28t89.5 67q70 118 84 123h5q34 0 45 -156l22 -17h79l61 -6q96 0 163 196l56 90h5q51 0 51 -62v-101 q0 -67 123 -67q39 14 39 56l-17 123q21 124 68 124zM785 735l-105 -162l-164 113l107 158zM1077 785l-105 -162l-164 113l107 158zM878 1065l-105 -162l-164 113l107 158z" />
<glyph unicode="&#x634;" horiz-adv-x="1535" arabic-form="medial" d="M1299 470q28 -21 39.5 -74.5t80 -112.5t107.5 -59h29v-224h-36q-102 10 -265 146l-95 -90q-39 -28 -89 -28l-152 22q-179 -50 -284.5 -25t-146.5 25q-207 -50 -347 -50h-140v224h108l161 6q222 0 302 156l39 12h6q43 0 45 -51l-23 -106q34 -28 73 -28h51q109 0 134 73 q60 151 106 151h23q12 0 28 -51l-6 -28v-78q13 -28 56 -28h6q75 0 145 168zM934 681l-105 -162l-164 113l107 158zM1226 731l-105 -162l-164 113l107 158zM1027 1011l-105 -162l-164 113l107 158z" />
<glyph unicode="&#x635;" horiz-adv-x="1911" arabic-form="isolated" d="M1580 679q140 0 274 -134l17 -68q-8 -112 -157 -291q-238 -140 -414 -140l-174 11h-16q-73 0 -73 -122q-25 -150 -95 -224q-126 -129 -420 -191l-90 -11q-216 0 -370 207q-22 72 -22 107q0 142 140 330l39 33h11l12 -11v-34q0 -21 -79 -167v-62q0 -141 269 -196l45 -5 q234 0 437 151l11 39v117l-107 230l-5 17q29 128 73 128q30 0 100 -106l34 -11h6q470 397 509 397zM1227 259v-11h179q100 0 280 117l23 34q-108 78 -191 78h-22q-90 0 -269 -218z" />
<glyph unicode="&#x635;" horiz-adv-x="2193" arabic-form="final" d="M1821 673q162 0 257 -162q5 -50 12 -50q0 -97 -107 -224v-6q31 -28 51 -28q102 6 128 18l51 3v-226q-107 -7 -409 3l-364 17q-342 0 -342 -44q-16 -58 -33 -202q-70 -171 -269 -252q-158 -67 -302 -67q-314 0 -432 252l-22 123q0 168 146 319h5q30 0 39 -28l-61 -190v-45 q0 -154 285 -224l101 -5q192 0 392 134q34 48 34 67v62q0 60 -163 335v12q0 60 56 128q181 -173 241 -173h28q48 0 482 369q127 84 196 84zM1412 242v-11h112q136 0 381 112l17 22v28q-146 96 -208 96q-70 0 -302 -247z" />
<glyph unicode="&#x635;" horiz-adv-x="1580" arabic-form="initial" d="M1249 666q291 -65 291 -212q0 -289 -521 -398l-392 -50q-25 -20 -67 -174q-24 -28 -34 -28q-18 0 -39 40l17 145v17q0 35 -129 95q-77 50 -106 50q-143 -151 -209 -151h-60v224q123 -13 280 134l39 6q31 0 179 -106l51 -12h61q51 0 454 325q109 80 185 95zM890 269v-17 l40 -6h44q387 66 387 146q-52 56 -135 56h-56q-91 0 -280 -179z" />
<glyph unicode="&#x635;" horiz-adv-x="1730" arabic-form="medial" d="M1366 652q170 -26 247 -95q45 -45 50 -84l-73 -235l6 -6q50 0 154 -8l-1 -224q-89 0 -226 14h-274q-622 -22 -622 -39q-78 -182 -106 -185q-11 0 -17 34l17 190q-151 126 -168 124.5t-115 -70t-168 -68.5h-70l1 224h76q64 0 276 126l5 6h6q20 0 213 -107l84 -17h28 q56 0 453 325q149 95 224 95zM963 221h79q130 0 397 112q34 27 34 45q-67 62 -191 62q-117 0 -313 -202z" />
<glyph unicode="&#x636;" horiz-adv-x="1911" arabic-form="isolated" d="M1580 679q140 0 274 -134l17 -68q-8 -112 -157 -291q-238 -140 -414 -140l-174 11h-16q-73 0 -73 -122q-25 -150 -95 -224q-126 -129 -420 -191l-90 -11q-216 0 -370 207q-22 72 -22 107q0 142 140 330l39 33h11l12 -11v-34q0 -21 -79 -167v-62q0 -141 269 -196l45 -5 q234 0 437 151l11 39v117l-107 230l-5 17q29 128 73 128q30 0 100 -106l34 -11h6q470 397 509 397zM1227 259v-11h179q100 0 280 117l23 34q-108 78 -191 78h-22q-90 0 -269 -218zM1357 837l-140 -140l-140 140l140 140z" />
<glyph unicode="&#x636;" horiz-adv-x="2193" arabic-form="final" d="M1547 798l-140 -140l-140 140l140 140zM1821 673q162 0 257 -162q5 -50 12 -50q0 -97 -107 -224v-6q31 -28 51 -28q102 6 128 18l51 3v-226q-107 -7 -409 3l-364 17q-342 0 -342 -44q-16 -58 -33 -202q-70 -171 -269 -252q-158 -67 -302 -67q-314 0 -432 252l-22 123 q0 168 146 319h5q30 0 39 -28l-61 -190v-45q0 -154 285 -224l101 -5q192 0 392 134q34 48 34 67v62q0 60 -163 335v12q0 60 56 128q181 -173 241 -173h28q48 0 482 369q127 84 196 84zM1412 242v-11h112q136 0 381 112l17 22v28q-146 96 -208 96q-70 0 -302 -247z" />
<glyph unicode="&#x636;" horiz-adv-x="1580" arabic-form="initial" d="M1249 666q291 -65 291 -212q0 -289 -521 -398l-392 -50q-25 -20 -67 -174q-24 -28 -34 -28q-18 0 -39 40l17 145v17q0 35 -129 95q-77 50 -106 50q-143 -151 -209 -151h-60v224q123 -13 280 134l39 6q31 0 179 -106l51 -12h61q51 0 454 325q109 80 185 95zM890 269v-17 l40 -6h44q387 66 387 146q-52 56 -135 56h-56q-91 0 -280 -179zM992 870l-140 -140l-140 140l140 140z" />
<glyph unicode="&#x636;" horiz-adv-x="1730" arabic-form="medial" d="M1366 652q170 -26 247 -95q45 -45 50 -84l-73 -235l6 -6q50 0 154 -8l-1 -224q-89 0 -226 14h-274q-622 -22 -622 -39q-78 -182 -106 -185q-11 0 -17 34l17 190q-151 126 -168 124.5t-115 -70t-168 -68.5h-70l1 224h76q64 0 276 126l5 6h6q20 0 213 -107l84 -17h28 q56 0 453 325q149 95 224 95zM963 221h79q130 0 397 112q34 27 34 45q-67 62 -191 62q-117 0 -313 -202zM1103 854l-140 -140l-140 140l140 140z" />
<glyph unicode="&#x637;" horiz-adv-x="1323" arabic-form="isolated" d="M522 1574q39 0 39 -84q84 -84 84 -124l-28 -128v-62q95 -549 95 -616v-45q0 -28 22 -33q208 168 314 168q87 0 196 -96q28 -42 39 -89q0 -108 -190 -325q-217 -140 -515 -140h-168q-87 0 -336 140l-34 50q21 45 56 45q175 -50 213 -50h28q179 0 263 179l6 28v11 q0 62 -157 874q-34 61 -34 106q51 191 107 191zM656 207l34 -11h28q144 0 352 123q51 38 51 67q-69 62 -123 62h-40q-105 0 -302 -235v-6z" />
<glyph unicode="&#x637;" horiz-adv-x="1714" arabic-form="final" d="M695 1624q34 -27 84 -151l67 -51l-50 -201q73 -616 73 -767l22 -17q237 196 381 196h28q165 0 269 -129l11 -45q0 -87 -97 -235h251v-224h-91l-158 -9l-504 -35l-241 -6l-28 -6q-375 0 -672 246v12q8 50 50 50q282 -90 398 -90q206 0 258 180l5 56l-157 1024 q30 202 101 202zM841 246h123q99 0 414 129q17 21 17 39v6q-96 67 -185 67q-119 0 -369 -241z" />
<glyph unicode="&#x637;" horiz-adv-x="1138" arabic-form="initial" d="M288 1702h34q27 0 118 -235q-28 -112 -28 -151q0 -85 64 -773l17 -17q190 133 235 152l73 11q297 -58 297 -179q0 -180 -118 -320q-379 -190 -829 -190h-151v224q74 0 106 -6h28q87 0 208 174l16 45q-11 84 -154 1030q0 132 84 235zM414 263q12 -22 34 -22q134 0 409 112 q54 39 56 50q-109 67 -185 67h-11q-58 0 -303 -207z" />
<glyph unicode="&#x637;" horiz-adv-x="1267" arabic-form="medial" d="M231 1753h11q31 -13 129 -235l-50 -180q117 -609 117 -896v-16h17q27 0 224 156q91 65 202 79q302 -42 302 -219q14 -133 -63 -218h197v-224l-78 -1q-59 0 -151 18l-73 11q-396 -29 -958 -29l-56 1l-1 225h147q157 26 157 206v6q0 179 -146 991q-14 14 -39 118 q49 207 112 207zM528 230h50q255 39 392 117l11 34v5q-57 45 -145 45h-62q-96 0 -246 -190v-11z" />
<glyph unicode="&#x638;" horiz-adv-x="1323" arabic-form="isolated" d="M522 1574q39 0 39 -84q84 -84 84 -124l-28 -128v-62q95 -549 95 -616v-45q0 -28 22 -33q208 168 314 168q87 0 196 -96q28 -42 39 -89q0 -108 -190 -325q-217 -140 -515 -140h-168q-87 0 -336 140l-34 50q21 45 56 45q175 -50 213 -50h28q179 0 263 179l6 28v11 q0 62 -157 874q-34 61 -34 106q51 191 107 191zM656 207l34 -11h28q144 0 352 123q51 38 51 67q-69 62 -123 62h-40q-105 0 -302 -235v-6zM1002 1081l-140 -140l-140 140l140 140z" />
<glyph unicode="&#x638;" horiz-adv-x="1714" arabic-form="final" d="M695 1624q34 -27 84 -151l67 -51l-50 -201q73 -616 73 -767l22 -17q237 196 381 196h28q165 0 269 -129l11 -45q0 -87 -97 -235h251v-224h-91l-158 -9l-504 -35l-241 -6l-28 -6q-375 0 -672 246v12q8 50 50 50q282 -90 398 -90q206 0 258 180l5 56l-157 1024 q30 202 101 202zM841 246h123q99 0 414 129q17 21 17 39v6q-96 67 -185 67q-119 0 -369 -241zM1183 1273l-140 -140l-140 140l140 140z" />
<glyph unicode="&#x638;" horiz-adv-x="1138" arabic-form="initial" d="M288 1702h34q27 0 118 -235q-28 -112 -28 -151q0 -85 64 -773l17 -17q190 133 235 152l73 11q297 -58 297 -179q0 -180 -118 -320q-379 -190 -829 -190h-151v224q74 0 106 -6h28q87 0 208 174l16 45q-11 84 -154 1030q0 132 84 235zM414 263q12 -22 34 -22q134 0 409 112 q54 39 56 50q-109 67 -185 67h-11q-58 0 -303 -207zM788 1200l-140 -140l-140 140l140 140z" />
<glyph unicode="&#x638;" horiz-adv-x="1267" arabic-form="medial" d="M231 1753h11q31 -13 129 -235l-50 -180q117 -609 117 -896v-16h17q27 0 224 156q91 65 202 79q302 -42 302 -219q14 -133 -63 -218h197v-224l-78 -1q-59 0 -151 18l-73 11q-396 -29 -958 -29l-56 1l-1 225h147q157 26 157 206v6q0 179 -146 991q-14 14 -39 118 q49 207 112 207zM528 230h50q255 39 392 117l11 34v5q-57 45 -145 45h-62q-96 0 -246 -190v-11zM811 1151l-140 -140l-140 140l140 140z" />
<glyph unicode="&#x639;" horiz-adv-x="1922" arabic-form="isolated" d="M432 1035q129 0 291 -129l6 -23q0 -19 -34 -44l-179 22q-164 0 -302 -134l-12 -34v-45q0 -117 258 -157h34q114 0 336 185q61 45 100 45h28q40 0 40 -45q0 -122 -359 -341q-222 -180 -252 -275q-112 -177 -112 -464q77 -254 258 -364q185 -107 420 -107h106 q275 0 723 129q100 -22 100 -39q-46 -78 -112 -78q-408 -157 -571 -202q-133 -34 -257 -34h-45q-317 0 -571 202q-174 164 -174 498q0 258 168 650v11q-280 122 -280 319v22q0 195 241 387q96 45 151 45z" />
<glyph unicode="&#x639;" horiz-adv-x="835" arabic-form="final" d="M471 599h17q186 0 218 -112l6 -22q0 -77 -101 -185v-17q65 -39 101 -39h150v-226h-132q-144 24 -253 153l-23 11h-44q-154 0 -258 -481l-6 -95q0 -204 191 -347q199 -90 453 -90q384 0 672 51h118l17 -17v-6q0 -63 -319 -112q-489 -117 -611 -117q-439 0 -599 319 q-28 60 -28 106v151q0 390 235 717l11 33q0 33 -140 40q-16 23 -16 44q46 147 140 202q105 39 201 39z" />
<glyph unicode="&#x639;" horiz-adv-x="1222" arabic-form="initial" d="M666 806q121 0 286 -179v-17q0 -50 -39 -50l-196 73q-275 -74 -275 -151v-12q0 -103 191 -190h61q80 0 460 151q26 -11 28 -22q-40 -146 -112 -191q-528 -218 -936 -218h-134v224q200 0 262.5 -9t62.5 31q-45 82 -45 129q0 133 246 375q68 56 140 56z" />
<glyph unicode="&#x639;" horiz-adv-x="834" arabic-form="medial" d="M454 580q159 0 252 -140l11 -51q0 -22 -62 -134q0 -30 156 -31h43v-224h-34q-75 0 -150.5 4t-215.5 100h-34q-211 -96 -258 -100t-86 -4h-76v224q127 -15 186.5 6.5t59.5 35.5q-32 45 -112 45l-16 39q0 83 196 207z" />
<glyph unicode="&#x63a;" horiz-adv-x="1922" arabic-form="isolated" d="M432 1035q129 0 291 -129l6 -23q0 -19 -34 -44l-179 22q-164 0 -302 -134l-12 -34v-45q0 -117 258 -157h34q114 0 336 185q61 45 100 45h28q40 0 40 -45q0 -122 -359 -341q-222 -180 -252 -275q-112 -177 -112 -464q77 -254 258 -364q185 -107 420 -107h106 q275 0 723 129q100 -22 100 -39q-46 -78 -112 -78q-408 -157 -571 -202q-133 -34 -257 -34h-45q-317 0 -571 202q-174 164 -174 498q0 258 168 650v11q-280 122 -280 319v22q0 195 241 387q96 45 151 45zM510 1283l-140 -140l-140 140l140 140z" />
<glyph unicode="&#x63a;" horiz-adv-x="835" arabic-form="final" d="M471 599h17q186 0 218 -112l6 -22q0 -77 -101 -185v-17q65 -39 101 -39h150v-226h-132q-144 24 -253 153l-23 11h-44q-154 0 -258 -481l-6 -95q0 -204 191 -347q199 -90 453 -90q384 0 672 51h118l17 -17v-6q0 -63 -319 -112q-489 -117 -611 -117q-439 0 -599 319 q-28 60 -28 106v151q0 390 235 717l11 33q0 33 -140 40q-16 23 -16 44q46 147 140 202q105 39 201 39zM569 892l-140 -140l-140 140l140 140z" />
<glyph unicode="&#x63a;" horiz-adv-x="1222" arabic-form="initial" d="M666 806q121 0 286 -179v-17q0 -50 -39 -50l-196 73q-275 -74 -275 -151v-12q0 -103 191 -190h61q80 0 460 151q26 -11 28 -22q-40 -146 -112 -191q-528 -218 -936 -218h-134v224q200 0 262.5 -9t62.5 31q-45 82 -45 129q0 133 246 375q68 56 140 56zM736 1043l-140 -140 l-140 140l140 140z" />
<glyph unicode="&#x63a;" horiz-adv-x="834" arabic-form="medial" d="M454 580q159 0 252 -140l11 -51q0 -22 -62 -134q0 -30 156 -31h43v-224h-34q-75 0 -150.5 4t-215.5 100h-34q-211 -96 -258 -100t-86 -4h-76v224q127 -15 186.5 6.5t59.5 35.5q-32 45 -112 45l-16 39q0 83 196 207zM563 856l-140 -140l-140 140l140 140z" />
<glyph unicode="&#x641;" horiz-adv-x="1676" arabic-form="isolated" d="M1031 1348h23q96 -28 168 -129q0 -72 -112 -134h-12q-168 52 -168 134q23 79 101 129zM1350 895q161 0 286 -420v-28q0 -105 -101 -275q-124 -116 -397 -173q-374 -78 -560 -78q-405 0 -516 223q-22 80 -22 123v28q0 185 174 336h16q34 0 34 -28q-78 -180 -78 -201v-34 q0 -165 257 -224l67 -5h62q491 0 896 179q36 31 45 50v6q-7 45 -34 45l-168 -79q-124 0 -185 207v40q0 191 180 302zM1272 648v-33q10 -23 39 -23h62l11 11q-46 90 -78 90q-34 -11 -34 -45z" />
<glyph unicode="&#x641;" horiz-adv-x="1911" arabic-form="final" d="M1457 1136q67 0 140 -123v-11q-31 -112 -112 -112q-67 0 -151 84q30 162 106 162h17zM1608 767q143 0 196 -263v-11q0 -93 -62 -202q0 -46 124 -67h95l-2 -224q-314 0 -463 106q-396 -156 -885 -162q-411 26 -511 182q-60 97 -60 199q0 201 190 364q51 0 51 -45 q0 -24 -40.5 -111.5t-44.5 -159.5q4 -73 135 -138q158 -61 263 -61h264q51 0 342 50q200 42 150 179q0 227 213 353zM1479 442q0 -72 56 -72h23q61 0 78 89v28q0 44 -34 62h-33q-60 0 -90 -107z" />
<glyph unicode="&#x641;" horiz-adv-x="618" arabic-form="initial" d="M169 1232q168 -66 168 -129q-44 -134 -135 -134q-86 0 -145 101q57 162 112 162zM281 890q124 0 241 -240q39 -114 56 -247q0 -280 -269 -375q-102 -28 -201 -28h-108v224h94q31 0 105.5 8.5t233.5 97.5l5 6v34l-22 22l-112 -62l-28 -5q-150 0 -213 168l-11 67v28 q0 168 168 291zM214 622v-6q4 -34 17 -34h78v28q-12 56 -67 56q-28 -9 -28 -44z" />
<glyph unicode="&#x641;" horiz-adv-x="883" arabic-form="medial" d="M370 1259q190 -71 190 -129q0 -70 -118 -134h-22q-157 17 -190 123v6q64 134 140 134zM528 862q183 0 224 -285q19 -114 -62 -286q0 -29 61 -48t152 -19v-224h-66q-246 0 -416 112q-208 -112 -347 -112h-74v224q73 -3 164 28q84 29 84 50l-6 107q0 221 94.5 334.5 t191.5 118.5zM377 476v-17q57 -73 112 -73q117 26 117 107v22q0 67 -73 118h-33q-73 0 -123 -157z" />
<glyph unicode="&#x642;" horiz-adv-x="1222" arabic-form="isolated" d="M835 1081q100 -39 135 -112v-11q0 -69 -146 -118l-62 22h-11q-19 0 -129 -78l-16 -6q-129 51 -129 107v5q0 52 106 135h17l84 -28h39zM869 582q213 0 313 -470v-62q0 -295 -341 -408q-209 -78 -347 -78q-349 25 -443 291l-11 89v12q0 209 162 391h23q39 0 39 -50 q-84 -186 -84 -252v-11q0 -148 140 -213q90 -39 218 -39h56q166 0 409 146q51 53 51 94v28q0 73 -34 96q-109 -58 -168 -73q-118 0 -179 168v28q63 313 196 313zM824 381l-11 -23q0 -30 39 -56h45q22 12 22 34q0 28 -61 45h-34z" />
<glyph unicode="&#x642;" horiz-adv-x="1246" arabic-form="final" d="M874 1049q62 0 123 -112q-46 -140 -123 -140l-73 23h-5q-20 0 -135 -84h-11q-68 0 -151 117v12q34 117 106 117h6l118 -33q23 0 134 100h11zM908 479q74 0 207 -219q42 -44 94 -35h57v-225h-67q-26 14 -56 -131q-71 -202 -218 -286q-179 -101 -415 -101h-50 q-301 0 -398 230q-22 90 -22 146v16q0 227 202 386h11l11 -50q-84 -217 -84 -240v-17q0 -181 280 -241h101q208 0 437 134q44 41 44 84v6q0 62 -246 62q-101 64 -101 190q0 151 151 274zM869 260l-6 -5v-23h34v12q0 12 -28 16z" />
<glyph unicode="&#x642;" horiz-adv-x="627" arabic-form="initial" d="M95 1221q168 -66 168 -129q-44 -134 -135 -134q-86 0 -145 101q57 162 112 162zM290 890q124 0 241 -240q39 -114 56 -247q0 -280 -269 -375q-102 -28 -201 -28h-122v224h123.5t90 8.5t233.5 97.5l5 6v34l-22 22l-112 -62l-28 -5q-150 0 -213 168l-11 67v28 q0 168 168 291zM223 622v-6q4 -34 17 -34h78v28q-12 56 -67 56q-28 -9 -28 -44zM397 1231q168 -65 168 -128q-43 -135 -134 -135q-87 0 -146 101q57 162 112 162z" />
<glyph unicode="&#x642;" horiz-adv-x="883" arabic-form="medial" d="M201 1195q190 -72 190 -129q0 -70 -117 -134h-23q-156 16 -190 123v5q64 135 140 135zM528 862q183 0 224 -285q19 -114 -62 -286q0 -29 61 -48t152 -19v-224h-66q-246 0 -416 112q-208 -112 -347 -112h-74v224q73 -3 164 28q84 29 84 50l-6 107q0 221 94.5 334.5 t191.5 118.5zM377 476v-17q57 -73 112 -73q117 26 117 107v22q0 67 -73 118h-33q-73 0 -123 -157zM580 1215q190 -71 190 -129q0 -70 -117 -134h-23q-156 17 -190 123v6q64 134 140 134z" />
<glyph unicode="&#x643;" horiz-adv-x="1334" arabic-form="isolated" d="M1059 1669q38 0 56 -146q79 -68 79 -123l-40 -168v-6q79 -417 140 -918q-44 -246 -190 -246q-364 -34 -840 -62q-165 0 -224 84v17q0 134 73 162q109 -39 213 -39h72q621 0 751 73q0 158 -157 1002q-50 102 -50 151q36 219 117 219zM712 1165q38 0 50 -56 q0 -63 -151 -146v-33q0 -7 157 -62q45 -31 45 -101q0 -110 -196 -246l-62 -17q-185 50 -185 112q6 22 34 22h146q47 0 67 34q0 20 -107 45q-61 47 -61 106q88 342 263 342z" />
<glyph unicode="&#x643;" horiz-adv-x="1624" arabic-form="final" d="M1194 1498q65 0 78 -179q90 -814 153 -927q37 -168 186 -168h63v-224h-83q-203 -8 -263 154q-25 90 -39 90h-11q-314 -274 -734 -274h-11q-345 0 -465 240q-22 66 -28 140q0 141 123 291l17 6l6 -6v-246q0 -150 324 -224h45q300 0 639 185q61 58 61 106l-123 902 q14 134 62 134zM830 1100q42 0 61 -72q0 -98 -134 -146q-37 0 -39 -17v-28q15 -24 196 -73q50 -37 50 -84q0 -155 -213 -240l-67 -12h-22q-129 10 -129 56v6q28 31 201 78v6q-168 85 -168 123v11q0 122 152 325q65 67 112 67z" />
<glyph unicode="&#x643;" horiz-adv-x="1218" arabic-form="initial" d="M1153 1753h11q34 0 34 -34q-42 -173 -107 -173q-482 -241 -750 -381q-130 -88 -179 -140q426 -436 426 -487q56 -115 56 -208v-72q0 -208 -311 -258h-339v224h280q241 -6 241 73q0 134 -280 381q-224 68 -224 128q-9 0 -17 79q0 350 515 565q549 303 644 303z" />
<glyph unicode="&#x643;" horiz-adv-x="1464" arabic-form="medial" d="M1267 2016q30 0 34 -56v-6q0 -166 -275 -240q-735 -343 -845 -404q-241 -123 -241 -179q34 -33 470 -285q723 -464 832 -543t200 -79h58v-224h-74q-206 21 -480 245l-452 298q103 -161 58 -311q-41 -124 -163.5 -169.5t-297.5 -62.5h-111v224h158q244 35 244 134v6 q0 125 -402 465q-180 89 -180 229v17q0 280 426 454q1004 487 1041 487z" />
<glyph unicode="&#x644;" horiz-adv-x="1088" arabic-form="isolated" d="M841 1400h17q32 0 61 -174q79 -50 79 -100l-51 -196q95 -762 101 -885v-34q0 -278 -454 -403l-112 -11q-162 0 -364 146q-78 105 -78 229q14 122 140 291q29 28 50 28h6l17 -17v-39q0 -42 -62 -190q0 -155 207 -207q24 -11 90 -11h62q155 0 336 106q33 55 33 106v17 q0 160 -134 963q-51 72 -51 140q0 105 107 241z" />
<glyph unicode="&#x644;" horiz-adv-x="1309" arabic-form="final" d="M1359 0h-59q-140 0 -263 127l17 -155q0 -201 -185 -369q-193 -151 -415 -151q-271 0 -397 274l-17 106q27 221 134 379l28 23h28q16 0 23 -39l-62 -234v-56q0 -144 252 -218l67 -6h17q175 0 342 151q50 61 50 124l-185 1398q33 168 84 168q58 0 68 -303q50 -418 103 -628 q69 -311 161 -339q50 -28 209 -28v-224z" />
<glyph unicode="&#x644;" horiz-adv-x="450" arabic-form="initial" d="M214 1462h23q15 0 33 -135q0 -38 107 -84l5 -5v-51q0 -45 -61 -162v-23q0 -86 89 -616l10 -130q-14 -130 -83.5 -190t-144.5 -66h-192v224h182q96 14 96 109l-159 938v11q31 180 95 180z" />
<glyph unicode="&#x644;" horiz-adv-x="735" arabic-form="medial" d="M253 1420h12q21 0 84 -350q117 -712 145 -773q80 -73 139 -73h152v-224h-172q-119 11 -220 112l-16 6q-149 -118 -257 -119h-120v225h97q193 -11 229 95v17l-157 955q30 129 84 129z" />
<glyph unicode="&#x645;" horiz-adv-x="786" arabic-form="isolated" d="M415 638q69 0 269 -224q62 -54 62 -112q-40 -151 -107 -151h-302q-174 -32 -174 -95l129 -868q-22 -156 -73 -156q-53 0 -78 274l-101 694q0 116 174 358v28q0 150 156 247z" />
<glyph unicode="&#x645;" horiz-adv-x="1140" arabic-form="final" d="M583 423q23 0 258 -157q150 -45 211 -42h108v-224h-95l-151 20q-63 0 -84 -190q-21 -112 -68 -112q-229 56 -229 229q-18 162 -56 162q-259 -21 -286 -95q-28 -57 -28 -134l107 -874q-17 -134 -68 -134h-11q-25 0 -61 375q-90 613 -90 706q0 188 213 330q313 80 313 134 l6 6h11z" />
<glyph unicode="&#x645;" horiz-adv-x="902" arabic-form="initial" d="M694 722q122 -155 163 -375l5 -39q-39 -202 -140 -202q-333 101 -358 101q-10 0 -157 -168q-26 -24 -57.5 -31.5t-149.5 -7.5v225h87l47 5q110 0 308 347q142 145 252 145zM526 414l34 -28h90v34q-26 78 -56 78q-68 -44 -68 -84z" />
<glyph unicode="&#x645;" horiz-adv-x="1121" arabic-form="medial" d="M610 566q41 0 202 -196q123 -140 248 -146h111v-224h-111q-100 0 -209 51q-70 -54 -195 -64q-178 46 -232.5 78t-138.5 -9q-82 -48 -229 -56h-56v224h112q116 0 307 224q41 52 91 84t100 34zM470 308q48 -56 117 -56h40q10 12 -19.5 55.5t-75.5 56.5h-11q-34 -18 -51 -56 z" />
<glyph unicode="&#x646;" horiz-adv-x="1026" arabic-form="isolated" d="M365 868q68 0 140 -90v-5q-25 -140 -129 -140q-70 0 -123 78q43 157 112 157zM740 594h11q97 0 219 -376l16 -173q0 -263 -414 -414l-129 -17q-262 0 -386 246l-17 101q0 141 151 325h17q34 -3 34 -17v-11l-73 -202v-6q0 -163 269 -218h89q125 0 308 118q23 38 23 61v28 q0 102 -168 359l-17 67q36 129 67 129z" />
<glyph unicode="&#x646;" horiz-adv-x="1267" arabic-form="final" d="M410 606h16q63 0 174 -95q-25 -151 -123 -151q-151 32 -151 106q0 65 84 140zM964 365q13 0 84 -95q60 -56 152 -46h117v-224h-53l-110 -9q-58 -376 -168 -426q-44 -55 -324 -151l-135 -23q-203 0 -375 146q-112 113 -112 224q94 403 207 403h17l17 -17v-22 q0 -65 -73 -146l-28 -100v-28q0 -152 325 -241h33q166 0 420 129q56 44 56 78v45q0 99 -117 335l-6 40q21 128 67 128h6z" />
<glyph unicode="&#x646;" horiz-adv-x="671" arabic-form="initial" d="M280 901l-140 -140l-140 140l140 140zM419 672q97 0 202 -336q-6 -197 -159 -257q-144 -74 -327 -79h-104v224q237 0 324.5 13.5t102.5 81.5q-5 50 -67 126t-62 109q40 118 90 118z" />
<glyph unicode="&#x646;" horiz-adv-x="750" arabic-form="medial" d="M472 468q25 0 39 -45q36 -129 137 -185q25 -14 74 -14h48v-224h-78q-58 0 -121.5 56.5t-98.5 97.5q-136 -154 -416 -154h-56v224h126q238 3 273 154q31 90 73 90zM369 769l-140 -140l-140 140l140 140z" />
<glyph unicode="&#x647;" horiz-adv-x="634" arabic-form="isolated" d="M242 666h5q177 0 336 -308l11 -78q0 -113 -207 -274l-140 -22q-207 20 -207 184l106 319q0 157 51 157q0 14 45 22zM191 252q59 -39 95 -39h34q63 0 101 61v12q-80 117 -146 117h-22q-44 0 -62 -151z" />
<glyph unicode="&#x647;" horiz-adv-x="849" arabic-form="final" d="M499 900q60 0 129 -420q64 -186 119.5 -219t121.5 -33v-229h-28q-184 0 -308 218h-6q-147 -129 -246 -129h-28q-213 0 -213 107q0 173 325 369q84 35 84 213q0 106 50 123zM298 329v-11l11 -11h11q112 0 174 84v11l-23 28h-50q-48 0 -123 -101z" />
<glyph unicode="&#x647;" horiz-adv-x="1231" arabic-form="initial" d="M469 988h6q74 0 336 -168q380 -191 380 -448v-5q0 -237 -156 -308h-17l-381 89h-6q-333 -141 -456 -148h-175v224h161l108 -6q77 12 77 54v28q0 197 101 386q-28 69 -28 106v40q18 156 50 156zM486 468v-45q0 -16 101 -34h33q73 0 73 62q-49 129 -78 129h-28 q-101 -69 -101 -112zM839 524q-28 -72 -28 -135q40 -49 162 -89h56q34 22 39 39q0 84 -224 190z" />
<glyph unicode="&#x647;" horiz-adv-x="1006" arabic-form="medial" d="M694 826q101 0 152 -330q0 -97 -79 -208v-5q18 -34 154 -59h105v-224h-126l-54 8q50 -171 50 -201q-31 -274 -207 -274h-6q-105 0 -229 112l-146 252q0 26 -63.5 66.5t-244.5 35.5l1 228l66 -6h123q140 27 140 79q208 406 297 492l28 17zM504 356v-34q190 57 190 140v45 q0 31 -33 50h-11q-146 -168 -146 -201zM493 -64v-62q71 -106 173 -106h12q30 0 44 28v6q0 44 -123 123l-50 11h-56z" />
<glyph unicode="&#x648;" horiz-adv-x="1222" arabic-form="isolated" d="M886 703q183 0 291 -375l5 -56v-6q0 -368 -386 -621q-134 -73 -263 -73h-11l-6 -6l-6 6h-16q-143 0 -443 95l-11 39l6 6h274q367 0 666 369q68 102 68 129l-12 11q-96 -78 -140 -78q-169 0 -218 224q90 336 202 336zM852 423v-17l6 -28h39q46 0 61 62q0 39 -39 39h-45 q-15 0 -22 -56z" />
<glyph unicode="&#x648;" horiz-adv-x="1150" arabic-form="final" d="M796 484q118 0 183 -76t104 -184l117 -1v-223h-109q-40 -105 -148 -256q-188 -267 -489 -267h-33q-381 22 -381 101q0 28 34 28h263q218 0 515 268l39 56v17q-8 23 -39 23h-78q-202 41 -202 178q0 177 168 320zM723 227q38 -39 67 -39h34q17 16 -2 50t-25.5 36.5 t-31.5 2.5t-33.5 -8.5t-8.5 -41.5z" />
<glyph unicode="&#x649;" horiz-adv-x="1390" arabic-form="isolated" d="M1177 997q102 0 162 -135l11 -33q-11 -135 -72 -135l-124 84h-28q-98 0 -252 -207q-22 -38 -22 -67v-34q0 -151 319 -151q179 -24 179 -168q0 -286 -638 -492l-146 -17h-5q-363 0 -487 269q-23 67 -34 173q0 200 168 381l56 28l6 -6v-28q0 -43 -101 -280v-5 q0 -220 285 -291l112 -11h62q277 0 538 212v6q0 19 -62 28h-34l-100 -6q-269 43 -269 246v17q12 205 263 515q118 103 213 107z" />
<glyph unicode="&#x649;" horiz-adv-x="1494" arabic-form="final" d="M1474 224h40v-224h-57q-95 0 -157 -7.5t-139.5 -44t-101.5 -64.5q21 -29 291 -101q56 -42 56 -128q0 -285 -660 -454q-77 -17 -152 -17q-345 0 -504 275q-50 113 -50 212q0 181 196 437l45 17q22 -21 22 -45h6q0 -16 -118 -224q-28 -73 -28 -112q0 -169 314 -313l50 -6 h129q291 0 510 151v17q0 24 -202 62q-134 54 -134 145q0 125 179 257q151 104 221 135.5t244 31.5z" />
<glyph unicode="&#x64a;" horiz-adv-x="1390" arabic-form="isolated" d="M1177 997q102 0 162 -135l11 -33q-11 -135 -72 -135l-124 84h-28q-98 0 -252 -207q-22 -38 -22 -67v-34q0 -151 319 -151q179 -24 179 -168q0 -286 -638 -492l-146 -17h-5q-363 0 -487 269q-23 67 -34 173q0 200 168 381l56 28l6 -6v-28q0 -43 -101 -280v-5 q0 -220 285 -291l112 -11h62q277 0 538 212v6q0 19 -62 28h-34l-100 -6q-269 43 -269 246v17q12 205 263 515q118 103 213 107zM677 -592l-105 -162l-164 113l107 158zM969 -542l-105 -162l-164 113l107 158z" />
<glyph unicode="&#x64a;" horiz-adv-x="1494" arabic-form="final" d="M1474 224h40v-224h-57q-95 0 -157 -7.5t-139.5 -44t-101.5 -64.5q21 -29 291 -101q56 -42 56 -128q0 -285 -660 -454q-77 -17 -152 -17q-345 0 -504 275q-50 113 -50 212q0 181 196 437l45 17q22 -21 22 -45h6q0 -16 -118 -224q-28 -73 -28 -112q0 -169 314 -313l50 -6 h129q291 0 510 151v17q0 24 -202 62q-134 54 -134 145q0 125 179 257q151 104 221 135.5t244 31.5zM680 -1002l-105 -162l-164 113l107 158zM972 -952l-105 -162l-164 113l107 158z" />
<glyph unicode="&#x64a;" horiz-adv-x="753" arabic-form="initial" d="M388 672q97 0 202 -336q-6 -197 -159 -257q-144 -74 -327 -79h-104v224q237 0 324.5 13.5t102.5 81.5q-5 50 -67 126t-62 109q40 118 90 118zM285 -209l-105 -162l-164 113l107 158zM577 -159l-105 -162l-164 113l107 158z" />
<glyph unicode="&#x64a;" horiz-adv-x="720" arabic-form="medial" d="M319 -253l-105 -162l-164 113l107 158zM611 -203l-105 -162l-164 113l107 158zM472 468q25 0 39 -45q36 -129 137 -185q25 -14 74 -14h48v-224h-78q-58 0 -121.5 56.5t-98.5 97.5q-136 -154 -416 -154h-56v224h126q238 3 273 154q31 90 73 90z" />
<glyph horiz-adv-x="80" />
<glyph horiz-adv-x="80" />
<glyph unicode=" "  horiz-adv-x="120" />
<glyph unicode="&#x09;" horiz-adv-x="120" />
<glyph unicode="&#xa0;" horiz-adv-x="120" />
<glyph unicode="&#x305;" horiz-adv-x="1340" d="M40 3080h1260v-140h-1260v140z" />
<glyph unicode="&#x36d;" horiz-adv-x="791" d="M751 2955q-14 -147 -70 -181l-491 -280q1 63 7.5 87t18.5 41.5t31 32t51 31.5zM601 2597q-14 -147 -70 -181l-491 -280q1 63 7.5 87t18.5 41.5t31 32t51 31.5z" />
<glyph unicode="&#x36e;" horiz-adv-x="1080" d="M912 2801q67 -25 79 -129q2 -75 -26 -173q73 -82 73 -107q0 -95 -56 -95h-5q-16 0 -84 50q-275 -256 -440 -285h-11l-17 17v11q0 35 157 145q207 171 207 185q-55 31 -84 90l-6 50q0 130 163 235zM863 2564q28 58 17 84.5t-32 15.5t-24 -48q-6 -52 39 -52zM527 2800 q67 -25 79 -129q2 -75 -26 -173q73 -82 73 -107q0 -95 -56 -95h-5q-16 0 -84 50q-275 -256 -440 -285h-11l-17 17v11q0 35 157 145q207 171 207 185q-55 31 -84 90l-6 50q0 130 163 235zM478 2563q28 58 17 84.5t-32 15.5t-24 -48q-6 -52 39 -52z" />
<glyph unicode="&#x36f;" horiz-adv-x="791" d="M751 772q-14 -147 -70 -181l-491 -280q1 63 7.5 87t18.5 41.5t31 32t51 31.5zM601 414q-14 -147 -70 -181l-491 -280q1 63 7.5 87t18.5 41.5t31 32t51 31.5z" />
<glyph unicode="&#x60c;" horiz-adv-x="423" d="M383 214q-25 -113 -38 -134q-36 -80 -115 -80q-75 0 -137 59q-53 60 -53 155q0 42 101 277q116 273 197 273l-28 -106q-141 -276 -143 -295q0 -44 61 -96l65 -32z" />
<glyph unicode="&#x61b;" horiz-adv-x="413" d="M326 658q0 -67 -42 -129q-33 -40 -84 -40q-84 0 -124 44q-36 48 -36 125q0 85 140 319q77 128 111 128l-54 -142q-67 -148 -81 -190q0 -27 59 -77q63 -38 111 -38zM373 155l-120 -155l-213 153l119 165z" />
<glyph unicode="&#x61f;" horiz-adv-x="776" d="M736 1093v-50q0 -14 -3 -22l-14 -73q-13 -86 -49 -144l-14 68q-4 35 -24 60q-42 59 -183 124q-84 32 -177 51q-22 0 -56 -75l-18 -63l-5 -48q12 -38 72 -68l48 -21l35 -7l92 -37l63 -29q80 -38 118 -80q39 -39 39 -83q0 -81 -35 -184q-39 -132 -59 -167l87 -73l-173 -221 q-5 10 -88 75t-135 96l157 224l80 -65q21 16 37 51l13 31l11 36q0 25 -52 69q-63 46 -158 72q-152 37 -192 55q-113 42 -113 108q0 173 96.5 420.5t173.5 247.5q63 0 235 -93q191 -102 191 -185z" />
<glyph unicode="&#x621;" horiz-adv-x="742" d="M402 605q112 0 112 -112q-13 -101 -96 -101l-95 62h-28q-38 0 -89 -73q61 -90 173 -90l235 39q68 -9 68 -28v-16q0 -97 -202 -118q-69 0 -286 -146l-56 -22l-11 34v5l45 90l-106 117l-6 34q0 157 291 314q51 4 51 11z" />
<glyph unicode="&#x622;" horiz-adv-x="898" d="M386 1307q61 0 73 -157q123 -875 123 -935q-19 -202 -61 -202h-6q-39 0 -39 123l-168 997q36 174 78 174zM796 1772q40 0 40 -33q0 -168 -448 -241q-28 -6 -95.5 8t-117.5 14h-11l-101 -72q-45 0 -45 44q0 76 140 202l39 11l163 -50q226 0 392 117h44z" />
<glyph unicode="&#x623;" horiz-adv-x="575" d="M309 1724q79 0 79 -79q-10 -70 -67 -70l-66 42h-20q-28 0 -63 -50q42 -63 122 -63l164 28q47 -7 47 -20v-12q0 -68 -141 -82q-48 0 -200 -102l-39 -17l-7 24v4l30 63l-74 83l-4 24q0 109 204 218q35 3 35 9zM296 1294q61 0 73 -157q123 -875 123 -935q-19 -202 -61 -202 h-6q-39 0 -39 123l-168 997q36 174 78 174z" />
<glyph unicode="&#x624;" horiz-adv-x="1222" d="M885 1208q79 0 79 -79q-10 -70 -67 -70l-66 42h-20q-28 0 -63 -50q42 -63 122 -63l164 28q47 -7 47 -20v-12q0 -68 -141 -82q-48 0 -200 -102l-39 -17l-7 24v4l30 63l-74 83l-4 24q0 109 204 218q35 3 35 9zM886 703q183 0 291 -375l5 -56v-6q0 -368 -386 -621 q-134 -73 -263 -73h-11l-6 -6l-6 6h-16q-143 0 -443 95l-11 39l6 6h274q367 0 666 369q68 102 68 129l-12 11q-96 -78 -140 -78q-169 0 -218 224q90 336 202 336zM852 423v-17l6 -28h39q46 0 61 62q0 39 -39 39h-45q-15 0 -22 -56z" />
<glyph unicode="&#x625;" horiz-adv-x="586" d="M320 -77q79 0 79 -79q-10 -70 -67 -70l-66 42h-20q-28 0 -63 -50q42 -63 122 -63l164 28q47 -7 47 -20v-12q0 -68 -141 -82q-48 0 -200 -102l-39 -17l-7 24v4l30 63l-74 83l-4 24q0 109 204 218q35 3 35 9zM132 1523h16q49 0 76 -224l154 -952l11 -179v-17 q0 -110 -61 -151h-12q-50 0 -78 280l-168 1070q32 173 62 173z" />
<glyph unicode="&#x626;" horiz-adv-x="1390" d="M1177 957q102 0 162 -135l11 -33q-11 -135 -72 -135l-124 84h-28q-98 0 -252 -207q-22 -38 -22 -67v-34q0 -151 319 -151q179 -24 179 -168q0 -286 -638 -492l-146 -17h-5q-363 0 -487 269q-23 67 -34 173q0 200 168 381l56 28l6 -6v-28q0 -43 -101 -280v-5 q0 -220 285 -291l112 -11h62q277 0 538 212v6q0 19 -62 28h-34l-100 -6q-269 43 -269 246v17q12 205 263 515q118 103 213 107zM359 988q79 0 79 -79q-10 -70 -67 -70l-66 42h-20q-28 0 -63 -50q42 -63 122 -63l164 28q47 -7 47 -20v-12q0 -68 -141 -82q-48 0 -200 -102 l-39 -17l-7 24v4l30 63l-74 83l-4 24q0 109 204 218q35 3 35 9z" />
<glyph unicode="&#x627;" horiz-adv-x="479" d="M142 1523h16q49 0 76 -224l154 -952l11 -179v-17q0 -110 -61 -151h-12q-50 0 -78 280l-168 1070q32 173 62 173z" />
<glyph unicode="&#x628;" horiz-adv-x="1866" d="M1647 703q56 0 140 -140q39 -77 39 -135v-5q0 -230 -112 -286q-371 -179 -1080 -179q-439 0 -572 263q-22 69 -22 112q0 125 157 336q24 23 61 23q19 0 34 -45l-90 -252v-11q0 -138 420 -196l84 -6q969 59 969 185v5q0 24 -117 163l-12 33q33 135 101 135zM1087 -340 l-140 -140l-140 140l140 140z" />
<glyph unicode="&#x629;" horiz-adv-x="654" d="M256 668h5q177 0 336 -308l11 -78q0 -113 -207 -274l-140 -22q-207 20 -207 184l106 319q0 157 51 157q0 14 45 22zM205 254q59 -39 95 -39h34q63 0 101 61v12q-80 117 -146 117h-22q-44 0 -62 -151zM309 991l-105 -162l-164 113l107 158zM601 1041l-105 -162l-164 113 l107 158z" />
<glyph unicode="&#x62a;" horiz-adv-x="1866" d="M1647 703q56 0 140 -140q39 -77 39 -135v-5q0 -230 -112 -286q-371 -179 -1080 -179q-439 0 -572 263q-22 69 -22 112q0 125 157 336q24 23 61 23q19 0 34 -45l-90 -252v-11q0 -138 420 -196l84 -6q969 59 969 185v5q0 24 -117 163l-12 33q33 135 101 135zM965 906 l-105 -162l-164 113l107 158zM1257 956l-105 -162l-164 113l107 158z" />
<glyph unicode="&#x62b;" horiz-adv-x="1866" d="M1647 703q56 0 140 -140q39 -77 39 -135v-5q0 -230 -112 -286q-371 -179 -1080 -179q-439 0 -572 263q-22 69 -22 112q0 125 157 336q24 23 61 23q19 0 34 -45l-90 -252v-11q0 -138 420 -196l84 -6q969 59 969 185v5q0 24 -117 163l-12 33q33 135 101 135zM935 854 l-105 -162l-164 113l107 158zM1227 904l-105 -162l-164 113l107 158zM1028 1184l-105 -162l-164 113l107 158z" />
<glyph unicode="&#x62c;" horiz-adv-x="1822" d="M449 554h677q34 0 34 -33v-17q0 -118 -134 -162q-97 0 -437 -135q-347 -158 -347 -604v-17q0 -360 319 -476q140 -56 336 -56h50l739 73q96 0 96 -45v-6q-425 -145 -639 -235q-105 -17 -229 -17h-68q-767 0 -767 728q0 452 308 734v11q0 17 -56 17q-96 0 -229 -152 l-23 -5q-25 0 -39 50q0 81 185 297q59 50 224 50zM873 -354l-140 -140l-140 140l140 140z" />
<glyph unicode="&#x62d;" horiz-adv-x="1822" d="M449 554h677q34 0 34 -33v-17q0 -118 -134 -162q-97 0 -437 -135q-347 -158 -347 -604v-17q0 -360 319 -476q140 -56 336 -56h50l739 73q96 0 96 -45v-6q-425 -145 -639 -235q-105 -17 -229 -17h-68q-767 0 -767 728q0 452 308 734v11q0 17 -56 17q-96 0 -229 -152 l-23 -5q-25 0 -39 50q0 81 185 297q59 50 224 50z" />
<glyph unicode="&#x62e;" horiz-adv-x="1822" d="M706 907l-140 -140l-140 140l140 140zM449 554h677q34 0 34 -33v-17q0 -118 -134 -162q-97 0 -437 -135q-347 -158 -347 -604v-17q0 -360 319 -476q140 -56 336 -56h50l739 73q96 0 96 -45v-6q-425 -145 -639 -235q-105 -17 -229 -17h-68q-767 0 -767 728q0 452 308 734 v11q0 17 -56 17q-96 0 -229 -152l-23 -5q-25 0 -39 50q0 81 185 297q59 50 224 50z" />
<glyph unicode="&#x62f;" horiz-adv-x="701" d="M264 815h6q269 -24 363 -392l11 -99q-5 -208 -68 -250q-70 -48 -369 -74h-61q-106 0 -106 118v11q11 112 67 112q25 -11 73 -11h39q93 0 184 24.5t91 43.5q-30 222 -247 298q-73 9 -73 101q23 118 90 118z" />
<glyph unicode="&#x630;" horiz-adv-x="734" d="M264 815h6q269 -24 363 -392l11 -99q-5 -208 -68 -250q-70 -48 -369 -74h-61q-106 0 -106 118v11q11 112 67 112q25 -11 73 -11h39q93 0 184 24.5t91 43.5q-30 222 -247 298q-73 9 -73 101q23 118 90 118zM344 1075l-140 -140l-140 140l140 140z" />
<glyph unicode="&#x631;" horiz-adv-x="1082" d="M813 566q161 0 229 -392v-6q0 -187 -212 -459q-97 -129 -398 -129q-370 35 -370 84l-22 23q0 39 50 39l286 -17q239 0 504 336q34 71 34 140q0 50 -146 185q-17 21 -17 50v17q6 129 62 129z" />
<glyph unicode="&#x632;" horiz-adv-x="1082" d="M813 566q161 0 229 -392v-6q0 -187 -212 -459q-97 -129 -398 -129q-370 35 -370 84l-22 23q0 39 50 39l286 -17q239 0 504 336q34 71 34 140q0 50 -146 185q-17 21 -17 50v17q6 129 62 129zM861 876l-140 -140l-140 140l140 140z" />
<glyph unicode="&#x633;" horiz-adv-x="1917" d="M1770 633q55 0 107 -241q-69 -297 -202 -297l-190 62h-6q-162 -76 -291 -118q-45 -31 -45 -195q-40 -157 -129 -213q-240 -191 -560 -191q-193 0 -347 191q-67 131 -67 190v39q0 146 134 342l40 33h5q34 -24 34 -45l-62 -234v-45q0 -150 252 -219q35 -11 107 -11 q260 0 459 163q22 43 22 67v45q0 93 -134 324l-6 39q0 49 62 129q18 0 145 -146q33 -22 84 -22q159 0 230 101q41 185 84 185h6q61 -47 61 -96l-5 -61q63 -73 117 -73h17q29 14 34 34l-28 106q22 157 72 157z" />
<glyph unicode="&#x634;" horiz-adv-x="1917" d="M1373 786l-105 -162l-164 113l107 158zM1665 836l-105 -162l-164 113l107 158zM1466 1116l-105 -162l-164 113l107 158zM1770 633q55 0 107 -241q-69 -297 -202 -297l-190 62h-6q-162 -76 -291 -118q-45 -31 -45 -195q-40 -157 -129 -213q-240 -191 -560 -191 q-193 0 -347 191q-67 131 -67 190v39q0 146 134 342l40 33h5q34 -24 34 -45l-62 -234v-45q0 -150 252 -219q35 -11 107 -11q260 0 459 163q22 43 22 67v45q0 93 -134 324l-6 39q0 49 62 129q18 0 145 -146q33 -22 84 -22q159 0 230 101q41 185 84 185h6q61 -47 61 -96 l-5 -61q63 -73 117 -73h17q29 14 34 34l-28 106q22 157 72 157z" />
<glyph unicode="&#x635;" horiz-adv-x="1911" d="M1580 679q140 0 274 -134l17 -68q-8 -112 -157 -291q-238 -140 -414 -140l-174 11h-16q-73 0 -73 -122q-25 -150 -95 -224q-126 -129 -420 -191l-90 -11q-216 0 -370 207q-22 72 -22 107q0 142 140 330l39 33h11l12 -11v-34q0 -21 -79 -167v-62q0 -141 269 -196l45 -5 q234 0 437 151l11 39v117l-107 230l-5 17q29 128 73 128q30 0 100 -106l34 -11h6q470 397 509 397zM1227 259v-11h179q100 0 280 117l23 34q-108 78 -191 78h-22q-90 0 -269 -218z" />
<glyph unicode="&#x636;" horiz-adv-x="1911" d="M1580 679q140 0 274 -134l17 -68q-8 -112 -157 -291q-238 -140 -414 -140l-174 11h-16q-73 0 -73 -122q-25 -150 -95 -224q-126 -129 -420 -191l-90 -11q-216 0 -370 207q-22 72 -22 107q0 142 140 330l39 33h11l12 -11v-34q0 -21 -79 -167v-62q0 -141 269 -196l45 -5 q234 0 437 151l11 39v117l-107 230l-5 17q29 128 73 128q30 0 100 -106l34 -11h6q470 397 509 397zM1227 259v-11h179q100 0 280 117l23 34q-108 78 -191 78h-22q-90 0 -269 -218zM1386 769l-140 -140l-140 140l140 140z" />
<glyph unicode="&#x637;" horiz-adv-x="1323" d="M522 1574q39 0 39 -84q84 -84 84 -124l-28 -128v-62q95 -549 95 -616v-45q0 -28 22 -33q208 168 314 168q87 0 196 -96q28 -42 39 -89q0 -108 -190 -325q-217 -140 -515 -140h-168q-87 0 -336 140l-34 50q21 45 56 45q175 -50 213 -50h28q179 0 263 179l6 28v11 q0 62 -157 874q-34 61 -34 106q51 191 107 191zM656 207l34 -11h28q144 0 352 123q51 38 51 67q-69 62 -123 62h-40q-105 0 -302 -235v-6z" />
<glyph unicode="&#x638;" horiz-adv-x="1323" d="M522 1574q39 0 39 -84q84 -84 84 -124l-28 -128v-62q95 -549 95 -616v-45q0 -28 22 -33q208 168 314 168q87 0 196 -96q28 -42 39 -89q0 -108 -190 -325q-217 -140 -515 -140h-168q-87 0 -336 140l-34 50q21 45 56 45q175 -50 213 -50h28q179 0 263 179l6 28v11 q0 62 -157 874q-34 61 -34 106q51 191 107 191zM656 207l34 -11h28q144 0 352 123q51 38 51 67q-69 62 -123 62h-40q-105 0 -302 -235v-6zM1061 910l-140 -140l-140 140l140 140z" />
<glyph unicode="&#x639;" horiz-adv-x="1922" d="M432 1035q129 0 291 -129l6 -23q0 -19 -34 -44l-179 22q-164 0 -302 -134l-12 -34v-45q0 -117 258 -157h34q114 0 336 185q61 45 100 45h28q40 0 40 -45q0 -122 -359 -341q-222 -180 -252 -275q-112 -177 -112 -464q77 -254 258 -364q185 -107 420 -107h106 q275 0 723 129q100 -22 100 -39q-46 -78 -112 -78q-408 -157 -571 -202q-133 -34 -257 -34h-45q-317 0 -571 202q-174 164 -174 498q0 258 168 650v11q-280 122 -280 319v22q0 195 241 387q96 45 151 45z" />
<glyph unicode="&#x63a;" horiz-adv-x="1922" d="M432 1035q129 0 291 -129l6 -23q0 -19 -34 -44l-179 22q-164 0 -302 -134l-12 -34v-45q0 -117 258 -157h34q114 0 336 185q61 45 100 45h28q40 0 40 -45q0 -122 -359 -341q-222 -180 -252 -275q-112 -177 -112 -464q77 -254 258 -364q185 -107 420 -107h106 q275 0 723 129q100 -22 100 -39q-46 -78 -112 -78q-408 -157 -571 -202q-133 -34 -257 -34h-45q-317 0 -571 202q-174 164 -174 498q0 258 168 650v11q-280 122 -280 319v22q0 195 241 387q96 45 151 45zM490 1406l-140 -140l-140 140l140 140z" />
<glyph unicode="&#x640;" horiz-adv-x="501" d="M0 224h551v-224h-551v224z" />
<glyph unicode="&#x641;" horiz-adv-x="1676" d="M1031 1348h23q96 -28 168 -129q0 -72 -112 -134h-12q-168 52 -168 134q23 79 101 129zM1350 895q161 0 286 -420v-28q0 -105 -101 -275q-124 -116 -397 -173q-374 -78 -560 -78q-405 0 -516 223q-22 80 -22 123v28q0 185 174 336h16q34 0 34 -28q-78 -180 -78 -201v-34 q0 -165 257 -224l67 -5h62q491 0 896 179q36 31 45 50v6q-7 45 -34 45l-168 -79q-124 0 -185 207v40q0 191 180 302zM1272 648v-33q10 -23 39 -23h62l11 11q-46 90 -78 90q-34 -11 -34 -45z" />
<glyph unicode="&#x642;" horiz-adv-x="1222" d="M835 1081q100 -39 135 -112v-11q0 -69 -146 -118l-62 22h-11q-19 0 -129 -78l-16 -6q-129 51 -129 107v5q0 52 106 135h17l84 -28h39zM869 582q213 0 313 -470v-62q0 -295 -341 -408q-209 -78 -347 -78q-349 25 -443 291l-11 89v12q0 209 162 391h23q39 0 39 -50 q-84 -186 -84 -252v-11q0 -148 140 -213q90 -39 218 -39h56q166 0 409 146q51 53 51 94v28q0 73 -34 96q-109 -58 -168 -73q-118 0 -179 168v28q63 313 196 313zM824 381l-11 -23q0 -30 39 -56h45q22 12 22 34q0 28 -61 45h-34z" />
</font>
</defs>
</svg>
