<?xml version="1.0" standalone="no"?>
<!DOCTYPE svg PUBLIC "-//W3C//DTD SVG 1.1//EN" "http://www.w3.org/Graphics/SVG/1.1/DTD/svg11.dtd" >
<svg xmlns="http://www.w3.org/2000/svg" xmlns:xlink="http://www.w3.org/1999/xlink" version="1.1">
<metadata></metadata>
<defs>
<font id="noorehidayatregular" horiz-adv-x="0" >
<font-face units-per-em="2048" ascent="1638" descent="-410" />
<missing-glyph horiz-adv-x="300" />
<glyph unicode="&#xfedf;&#xfee0;&#xfeea;" horiz-adv-x="1565" arabic-form="isolated" d="M1292 1053q34 0 45 -117l145 -459q23 -75 23 -129q0 -275 -241 -275q-97 0 -235 124q-11 0 -73 -79q-85 -95 -202 -95h-16q-135 0 -202 202l-34 50h-11q-119 -106 -224 -106q-119 0 -207 89q0 146 431 454q63 140 79 140q42 0 84 -510q39 -106 145 -106q112 0 163 140v11 q0 43 -128 804q0 59 61 118q60 0 190 -832q52 -180 218 -180q58 0 73 34v6q-102 294 -134 436l-17 140q11 140 67 140zM267 409v-5q46 -39 90 -39h22q129 43 129 78v17q0 54 -45 73q-178 -83 -196 -124zM700 2306l61 14q56 -71 70 -319q-9 -193 -30 -193q-71 260 -124 383 l-27 54q0 39 50 61zM1053 1646q0 -212 -132 -212q-45 0 -81 26q-4 -21 -17.5 -41t-31 -34.5t-39 -23.5t-42.5 -9q-104 0 -104 136q0 29 28 127l29 6q0 -140 49 -140q80 0 114 204l22 7q30 -123 73 -123q73 0 84 185l29 12q19 -73 19 -120z" />
<glyph unicode="&#xfedf;&#xfe82;" horiz-adv-x="1573" arabic-form="isolated" d="M1416 1621q50 -17 50 -101v-61q0 -24 73 -107l6 -50q0 -18 -79 -162q0 -205 -89 -611v-17q84 -261 84 -330q-31 -162 -112 -162l-348 -50q-168 28 -168 106v78q0 28 51 67l95 -5h22q114 0 191 207v45q0 79 -415 459q-137 123 -173 123l-129 -28q-115 0 -168 140 q-28 80 -28 190q0 73 67 73q205 0 807 -638q65 -95 100 -123h12q50 0 78 425q0 58 -39 303q0 91 112 229zM1233 255h51v22l-17 17q-34 -15 -34 -39zM806.988 1919q-18.4004 -48.7988 -58.3994 -99.1982q-89.5986 -117.598 -351.194 -144.798 q-75.1992 -6.39941 -175.197 -0.799805q-7.2002 -111.198 -48 -111.198q-43.1992 0 -51.1992 37.5996q-23.999 129.598 -102.398 236.796q-5.59961 8 -5.59961 19.2002q0 12 22.3994 61.5986q12 24.7998 25.5996 27.2002q183.997 -152.798 377.595 -126.398 q184.797 7.2002 329.595 128.798q28 28.7998 36.7998 -28.7998z" />
<glyph unicode="&#xfee0;&#xfe82;" horiz-adv-x="1830" arabic-form="final" d="M1418 1509h6q65 0 89 -498q38 -375 135 -655q58 -136 164 -132h90v-224h-79q-125 0 -231 92q-83 86 -152 269q-54 -175 -117 -252q-104 -167 -342 -240q-225 -67 -319 -67h-95l-17 16v12q0 65 274 151q147 53 387 274l17 50q-89 191 -168 297q-373 423 -437 426l-112 -23 q-181 0 -213 263v6q0 151 78 151q223 -78 465 -302q298 -325 392 -499l87 -172q29 52 25 116l-11 717q0 126 84 224zM806.988 1919q-18.4004 -48.7988 -58.3994 -99.1982q-89.5986 -117.598 -351.194 -144.798q-75.1992 -6.39941 -175.197 -0.799805 q-7.2002 -111.198 -48 -111.198q-43.1992 0 -51.1992 37.5996q-23.999 129.598 -102.398 236.796q-5.59961 8 -5.59961 19.2002q0 12 22.3994 61.5986q12 24.7998 25.5996 27.2002q183.997 -152.798 377.595 -126.398q184.797 7.2002 329.595 128.798 q28 28.7998 36.7998 -28.7998z" />
<glyph unicode="&#xfedf;&#xfe84;" horiz-adv-x="1386" arabic-form="isolated" d="M1197 1621q50 -17 50 -101v-61q0 -24 73 -107l6 -50q0 -18 -79 -162q0 -205 -89 -611v-17q84 -261 84 -330q-31 -162 -112 -162l-348 -50q-168 28 -168 106v78q0 28 51 67l95 -5h22q114 0 191 207v45q0 79 -415 459q-137 123 -173 123l-129 -28q-115 0 -168 140 q-28 80 -28 190q0 73 67 73q205 0 807 -638q65 -95 100 -123h12q50 0 78 425q0 58 -39 303q0 91 112 229zM1014 255h51v22l-17 17q-34 -15 -34 -39zM375 1995q91 0 91 -91q-12 -80 -77 -80l-76 48h-23q-33 0 -73 -58q49 -72 140 -72l189 32q54 -8 54 -23v-14q0 -78 -162 -94 q-55 0 -230 -117l-45 -20l-8 28v4l35 73l-85 95l-5 28q0 125 234 251q41 3 41 10z" />
<glyph unicode="&#xfee0;&#xfe84;" horiz-adv-x="1624" arabic-form="final" d="M1180 1509h6q65 0 89 -498q38 -375 135 -655q58 -136 164 -132h90v-224h-79q-125 0 -231 92q-83 86 -152 269q-54 -175 -117 -252q-104 -167 -342 -240q-225 -67 -319 -67h-95l-17 16v12q0 65 274 151q147 53 387 274l17 50q-89 191 -168 297q-373 423 -437 426l-112 -23 q-181 0 -213 263v6q0 151 78 151q223 -78 465 -302q298 -325 392 -499l87 -172q29 52 25 116l-11 717q0 126 84 224zM375 1995q91 0 91 -91q-12 -80 -77 -80l-76 48h-23q-33 0 -73 -58q49 -72 140 -72l189 32q54 -8 54 -23v-14q0 -78 -162 -94q-55 0 -230 -117l-45 -20 l-8 28v4l35 73l-85 95l-5 28q0 125 234 251q41 3 41 10z" />
<glyph unicode="&#xfedf;&#xfe88;" horiz-adv-x="1386" arabic-form="isolated" d="M1197 1621q50 -17 50 -101v-61q0 -24 73 -107l6 -50q0 -18 -79 -162q0 -205 -89 -611v-17q84 -261 84 -330q-31 -162 -112 -162l-348 -50q-168 28 -168 106v78q0 28 51 67l95 -5h22q114 0 191 207v45q0 79 -415 459q-137 123 -173 123l-129 -28q-115 0 -168 140 q-28 80 -28 190q0 73 67 73q205 0 807 -638q65 -95 100 -123h12q50 0 78 425q0 58 -39 303q0 91 112 229zM1014 255h51v22l-17 17q-34 -15 -34 -39zM861 -95q91 0 91 -91q-12 -80 -77 -80l-76 48h-23q-33 0 -73 -58q49 -72 140 -72l189 32q54 -8 54 -23v-14q0 -78 -162 -94 q-55 0 -230 -117l-45 -20l-8 28v4l35 73l-85 95l-5 28q0 125 234 251q41 3 41 10z" />
<glyph unicode="&#xfee0;&#xfe88;" horiz-adv-x="1624" arabic-form="final" d="M1180 1509h6q65 0 89 -498q38 -375 135 -655q58 -136 164 -132h90v-224h-79q-125 0 -231 92q-83 86 -152 269q-54 -175 -117 -252q-104 -167 -342 -240q-225 -67 -319 -67h-95l-17 16v12q0 65 274 151q147 53 387 274l17 50q-89 191 -168 297q-373 423 -437 426l-112 -23 q-181 0 -213 263v6q0 151 78 151q223 -78 465 -302q298 -325 392 -499l87 -172q29 52 25 116l-11 717q0 126 84 224zM771 -239q91 0 91 -91q-12 -80 -77 -80l-76 48h-23q-33 0 -73 -58q49 -72 140 -72l189 32q54 -8 54 -23v-14q0 -78 -162 -94q-55 0 -230 -117l-45 -20 l-8 28v4l35 73l-85 95l-5 28q0 125 234 251q41 3 41 10z" />
<glyph unicode="&#xfedf;&#xfe8e;" horiz-adv-x="1386" arabic-form="isolated" d="M1197 1621q50 -17 50 -101v-61q0 -24 73 -107l6 -50q0 -18 -79 -162q0 -205 -89 -611v-17q84 -261 84 -330q-31 -162 -112 -162l-348 -50q-168 28 -168 106v78q0 28 51 67l95 -5h22q114 0 191 207v45q0 79 -415 459q-137 123 -173 123l-129 -28q-115 0 -168 140 q-28 80 -28 190q0 73 67 73q205 0 807 -638q65 -95 100 -123h12q50 0 78 425q0 58 -39 303q0 91 112 229zM1014 255h51v22l-17 17q-34 -15 -34 -39z" />
<glyph unicode="&#xfee0;&#xfe8e;" horiz-adv-x="1624" arabic-form="final" d="M1180 1509h6q65 0 89 -498q38 -375 135 -655q58 -136 164 -132h90v-224h-79q-125 0 -231 92q-83 86 -152 269q-54 -175 -117 -252q-104 -167 -342 -240q-225 -67 -319 -67h-95l-17 16v12q0 65 274 151q147 53 387 274l17 50q-89 191 -168 297q-373 423 -437 426l-112 -23 q-181 0 -213 263v6q0 151 78 151q223 -78 465 -302q298 -325 392 -499l87 -172q29 52 25 116l-11 717q0 126 84 224z" />
<glyph unicode="&#xfedf;&#xfb51;" horiz-adv-x="1386" d="M1197 1621q50 -17 50 -101v-61q0 -24 73 -107l6 -50q0 -18 -79 -162q0 -205 -89 -611v-17q84 -261 84 -330q-31 -162 -112 -162l-348 -50q-168 28 -168 106v78q0 28 51 67l95 -5h22q114 0 191 207v45q0 79 -415 459q-137 123 -173 123l-129 -28q-115 0 -168 140 q-28 80 -28 190q0 73 67 73q205 0 807 -638q65 -95 100 -123h12q50 0 78 425q0 58 -39 303q0 91 112 229zM1014 255h51v22l-17 17q-34 -15 -34 -39zM459 1740.5q-32 -22.5 -64 -85.5q39 -9 70 22q49 42 37.5 64t-43.5 -0.5zM502 1886q86 0 112 -129q0 -148 -212 -246 q-48 -17 -90 -17l-101 22h-28q-22 0 -95 -44q-11 0 -28 44q36 157 157 157q96 0 123 67q78 146 162 146z" />
<glyph unicode="&#xfee0;&#xfb51;" horiz-adv-x="1624" d="M1180 1509h6q65 0 89 -498q38 -375 135 -655q58 -136 164 -132h90v-224h-79q-125 0 -231 92q-83 86 -152 269q-54 -175 -117 -252q-104 -167 -342 -240q-225 -67 -319 -67h-95l-17 16v12q0 65 274 151q147 53 387 274l17 50q-89 191 -168 297q-373 423 -437 426l-112 -23 q-181 0 -213 263v6q0 151 78 151q223 -78 465 -302q298 -325 392 -499l87 -172q29 52 25 116l-11 717q0 126 84 224zM459 1777.5q-32 -22.5 -64 -85.5q39 -9 70 22q49 42 37.5 64t-43.5 -0.5zM502 1923q86 0 112 -129q0 -148 -212 -246q-48 -17 -90 -17l-101 22h-28 q-22 0 -95 -44q-11 0 -28 44q36 157 157 157q96 0 123 67q78 146 162 146z" />
<glyph unicode="&#x644;&#x621;&#x627;" horiz-adv-x="1386" d="M1197 1621q50 -17 50 -101v-61q0 -24 73 -107l6 -50q0 -18 -79 -162q0 -205 -89 -611v-17q84 -261 84 -330q-31 -162 -112 -162l-348 -50q-168 28 -168 106v78q0 28 51 67l95 -5h22q114 0 191 207v45q0 79 -415 459q-137 123 -173 123l-129 -28q-115 0 -168 140 q-28 80 -28 190q0 73 67 73q205 0 807 -638q65 -95 100 -123h12q50 0 78 425q0 58 -39 303q0 91 112 229zM1014 255h51v22l-17 17q-34 -15 -34 -39zM860 1705q91 0 91 -91q-12 -80 -77 -80l-76 48h-23q-33 0 -73 -58q49 -72 140 -72l189 32q54 -8 54 -23v-14q0 -78 -162 -94 q-55 0 -230 -117l-45 -20l-8 28v4l35 73l-85 95l-5 28q0 125 234 251q41 3 41 10z" />
<glyph unicode="&#xfede;&#x621;&#x627;" horiz-adv-x="1624" d="M1180 1509h6q65 0 89 -498q38 -375 135 -655q58 -136 164 -132h90v-224h-79q-125 0 -231 92q-83 86 -152 269q-54 -175 -117 -252q-104 -167 -342 -240q-225 -67 -319 -67h-95l-17 16v12q0 65 274 151q147 53 387 274l17 50q-89 191 -168 297q-373 423 -437 426l-112 -23 q-181 0 -213 263v6q0 151 78 151q223 -78 465 -302q298 -325 392 -499l87 -172q29 52 25 116l-11 717q0 126 84 224zM883 1630q91 0 91 -91q-12 -80 -77 -80l-76 48h-23q-33 0 -73 -58q49 -72 140 -72l189 32q54 -8 54 -23v-14q0 -78 -162 -94q-55 0 -230 -117l-45 -20 l-8 28v4l35 73l-85 95l-5 28q0 125 234 251q41 3 41 10z" />
<glyph unicode="&#x649;" horiz-adv-x="680" d="M418 672q97 0 202 -336q-6 -197 -159 -257q-144 -74 -327 -79h-134v224q267 0 354.5 13.5t102.5 81.5q-5 50 -67 126t-62 109q40 118 90 118z" />
<glyph unicode="&#x649;" horiz-adv-x="760" d="M467 468q25 0 39 -45q36 -129 137 -185q25 -14 74 -14h48v-224h-78q-58 0 -121.5 56.5t-98.5 97.5q-136 -154 -416 -154h-56v224h126q238 3 273 154q31 90 73 90z" />
<glyph unicode="&#x671;" horiz-adv-x="634" arabic-form="isolated" d="M184 1294q61 0 73 -157q123 -875 123 -935q-19 -202 -61 -202h-6q-39 0 -39 123l-168 997q36 174 78 174zM428 1628.5q-32 -22.5 -64 -85.5q39 -9 70 22q49 42 37.5 64t-43.5 -0.5zM471 1774q86 0 112 -129q0 -148 -212 -246q-48 -17 -90 -17l-101 22h-28q-22 0 -95 -44 q-11 0 -28 44q36 157 157 157q96 0 123 67q78 146 162 146z" />
<glyph unicode="&#x671;" horiz-adv-x="887" arabic-form="final" d="M324 1454h17q51 -6 100 -620q51 -571 154 -595q26 -12 87 -15h245v-224h-222q-234 0 -303 168q-54 119 -151 1140q0 83 73 146zM439 1692.5q-32 -22.5 -64 -85.5q39 -9 70 22q49 42 37.5 64t-43.5 -0.5zM482 1838q86 0 112 -129q0 -148 -212 -246q-48 -17 -90 -17 l-101 22h-28q-22 0 -95 -44q-11 0 -28 44q36 157 157 157q96 0 123 67q78 146 162 146z" />
<glyph unicode="&#xfc31;" horiz-adv-x="1425" arabic-form="isolated" d="M777 1417q98 -38 140 -90v-11q-39 -151 -107 -151h-11q-145 54 -145 89v11q39 152 123 152zM973 935q189 0 263 -465l6 -45q0 -96 -51 -207q168 -54 168 -185l6 -50q0 -281 -689 -436l-101 -6h-11q-258 0 -465 241q-39 89 -39 140v39q0 204 168 392l50 33l23 -45 q-112 -193 -112 -285v-17q0 -100 201 -218q98 -50 219 -50h28q211 0 515 156l22 28q0 16 -179 34q-193 39 -201 56q-17 21 -17 50v6q0 100 252 179q95 42 95 117q0 45 -28 62q-136 -78 -151 -78q-122 0 -185 162l-11 67q0 167 123 291q57 34 101 34zM878 683q23 -62 89 -62 q45 5 45 45l-67 62h-34q-18 -7 -33 -45z" />
<glyph unicode="&#xfc32;" horiz-adv-x="1425" arabic-form="isolated" d="M777 1417q98 -38 140 -90v-11q-39 -151 -107 -151h-11q-145 54 -145 89v11q39 152 123 152zM973 935q189 0 263 -465l6 -45q0 -96 -51 -207q168 -54 168 -185l6 -50q0 -281 -689 -436l-101 -6h-11q-258 0 -465 241q-39 89 -39 140v39q0 204 168 392l50 33l23 -45 q-112 -193 -112 -285v-17q0 -100 201 -218q98 -50 219 -50h28q211 0 515 156l22 28q0 16 -179 34q-193 39 -201 56q-17 21 -17 50v6q0 100 252 179q95 42 95 117q0 45 -28 62q-136 -78 -151 -78q-122 0 -185 162l-11 67q0 167 123 291q57 34 101 34zM878 683q23 -62 89 -62 q45 5 45 45l-67 62h-34q-18 -7 -33 -45z" />
<glyph unicode="&#xfc6a;" horiz-adv-x="1810" arabic-form="final" d="M1376 868q41 0 134 -297q61 -217 135.5 -282t127.5 -65h77v-224h-88q-142 0 -249 118.5t-165 374.5q-190 -149 -190 -269q-75 -250 -219 -403q-127 -106 -392 -106q-179 0 -476 95l-11 22q0 56 78 56l280 -39q262 0 510 224q97 112 112 201q-90 98 -90 124v28 q0 112 101 112q181 0 252 235q38 95 73 95zM1475 -46l-140 -140l-140 140l140 140z" />
<glyph unicode="&#xfc6b;" horiz-adv-x="1810" arabic-form="final" d="M1376 868q41 0 134 -297q61 -217 135.5 -282t127.5 -65h77v-224h-88q-142 0 -249 118.5t-165 374.5q-190 -149 -190 -269q-75 -250 -219 -403q-127 -106 -392 -106q-179 0 -476 95l-11 22q0 56 78 56l280 -39q262 0 510 224q97 112 112 201q-90 98 -90 124v28 q0 112 101 112q181 0 252 235q38 95 73 95zM962 918l-140 -140l-140 140l140 140zM1497 -90l-140 -140l-140 140l140 140z" />
<glyph unicode="&#xfc6d;" horiz-adv-x="1761" arabic-form="final" d="M424 973q151 -35 151 -117q0 -84 -106 -152q-130 41 -168 96v11q31 157 123 157v5zM1337 895q46 0 134 -431q58 -173 129 -208q56 -33 120 -32h81v-224h-111q-230 0 -348 391l-72 168l-140 -107l-6 -168v-50q0 -287 -392 -414q-104 -34 -252 -45q-262 0 -392 229l-28 140 q8 153 162 359h23q33 0 45 -39l-79 -219v-17q0 -158 230 -207l78 -5q230 0 454 140q33 43 33 84q0 91 -151 330l-5 45q28 134 78 134l140 -50h28q91 0 218 190zM1396 -135l-140 -140l-140 140l140 140z" />
<glyph unicode="&#xfc70;" horiz-adv-x="1810" arabic-form="final" d="M1376 868q41 0 134 -297q61 -217 135.5 -282t127.5 -65h77v-224h-88q-142 0 -249 118.5t-165 374.5q-190 -149 -190 -269q-75 -250 -219 -403q-127 -106 -392 -106q-179 0 -476 95l-11 22q0 56 78 56l280 -39q262 0 510 224q97 112 112 201q-90 98 -90 124v28 q0 112 101 112q181 0 252 235q38 95 73 95zM1159 1177l-105 -162l-164 113l107 158zM1451 1227l-105 -162l-164 113l107 158z" />
<glyph unicode="&#xfc91;" horiz-adv-x="1810" arabic-form="final" d="M1376 868q41 0 134 -297q61 -217 135.5 -282t127.5 -65h77v-224h-88q-142 0 -249 118.5t-165 374.5q-190 -149 -190 -269q-75 -250 -219 -403q-127 -106 -392 -106q-179 0 -476 95l-11 22q0 56 78 56l280 -39q262 0 510 224q97 112 112 201q-90 98 -90 124v28 q0 112 101 112q181 0 252 235q38 95 73 95zM1304 -189l-105 -162l-164 113l107 158zM1596 -139l-105 -162l-164 113l107 158z" />
<glyph unicode="&#xfc92;" horiz-adv-x="1810" arabic-form="final" d="M1376 868q41 0 134 -297q61 -217 135.5 -282t127.5 -65h77v-224h-88q-142 0 -249 118.5t-165 374.5q-190 -149 -190 -269q-75 -250 -219 -403q-127 -106 -392 -106q-179 0 -476 95l-11 22q0 56 78 56l280 -39q262 0 510 224q97 112 112 201q-90 98 -90 124v28 q0 112 101 112q181 0 252 235q38 95 73 95zM1360 -132l-105 -162l-164 113l107 158zM1652 -82l-105 -162l-164 113l107 158zM962 918l-140 -140l-140 140l140 140z" />
<glyph unicode="&#xfc94;" horiz-adv-x="1761" arabic-form="final" d="M424 973q151 -35 151 -117q0 -84 -106 -152q-130 41 -168 96v11q31 157 123 157v5zM1337 895q46 0 134 -431q58 -173 129 -208q56 -33 120 -32h81v-224h-111q-230 0 -348 391l-72 168l-140 -107l-6 -168v-50q0 -287 -392 -414q-104 -34 -252 -45q-262 0 -392 229l-28 140 q8 153 162 359h23q33 0 45 -39l-79 -219v-17q0 -158 230 -207l78 -5q230 0 454 140q33 43 33 84q0 91 -151 330l-5 45q28 134 78 134l140 -50h28q91 0 218 190zM1248 -188l-105 -162l-164 113l107 158zM1540 -138l-105 -162l-164 113l107 158z" />
<glyph unicode="&#x621;" horiz-adv-x="782" arabic-form="isolated" d="M422 605q112 0 112 -112q-13 -101 -96 -101l-95 62h-28q-38 0 -89 -73q61 -90 173 -90l235 39q68 -9 68 -28v-16q0 -97 -202 -118q-69 0 -286 -146l-56 -22l-11 34v5l45 90l-106 117l-6 34q0 157 291 314q51 4 51 11z" />
<glyph unicode="&#x622;" horiz-adv-x="798" arabic-form="isolated" d="M396 1307q61 0 73 -157q123 -875 123 -935q-19 -202 -61 -202h-6q-39 0 -39 123l-168 997q36 174 78 174zM880 1840q-23 -61 -73 -124q-112 -147 -439 -181q-94 -8 -219 -1q-9 -139 -60 -139q-54 0 -64 47q-30 162 -128 296q-7 10 -7 24q0 15 28 77q15 31 32 34 q230 -191 472 -158q231 9 412 161q35 36 46 -36z" />
<glyph unicode="&#x622;" horiz-adv-x="1091" arabic-form="final" d="M535 1454h17q51 -6 100 -620q51 -571 154 -595q26 -12 87 -15h245v-224h-222q-234 0 -303 168q-54 119 -151 1140q0 83 73 146zM1040 1890q-23 -61 -73 -124q-112 -147 -439 -181q-94 -8 -219 -1q-9 -139 -60 -139q-54 0 -64 47q-30 162 -128 296q-7 10 -7 24q0 15 28 77 q15 31 32 34q230 -191 472 -158q231 9 412 161q35 36 46 -36z" />
<glyph unicode="&#x623;" horiz-adv-x="583" arabic-form="isolated" d="M262 1307q61 0 73 -157q123 -875 123 -935q-19 -202 -61 -202h-6q-39 0 -39 123l-168 997q36 174 78 174zM335 1789q91 0 91 -91q-12 -80 -77 -80l-76 48h-23q-33 0 -73 -58q49 -72 140 -72l189 32q54 -8 54 -23v-14q0 -78 -162 -94q-55 0 -230 -117l-45 -20l-8 28v4 l35 73l-85 95l-5 28q0 125 234 251q41 3 41 10z" />
<glyph unicode="&#x623;" horiz-adv-x="791" arabic-form="final" d="M335 1812q91 0 91 -91q-12 -80 -77 -80l-76 48h-23q-33 0 -73 -58q49 -72 140 -72l189 32q54 -8 54 -23v-14q0 -78 -162 -94q-55 0 -230 -117l-45 -20l-8 28v4l35 73l-85 95l-5 28q0 125 234 251q41 3 41 10zM188 1454h17q51 -6 100 -620q51 -571 154 -595q26 -12 87 -15 h245v-224h-222q-234 0 -303 168q-54 119 -151 1140q0 83 73 146z" />
<glyph unicode="&#x624;" horiz-adv-x="1262" arabic-form="isolated" d="M945 1252q91 0 91 -91q-12 -80 -77 -80l-76 48h-23q-33 0 -73 -58q49 -72 140 -72l189 32q54 -8 54 -23v-14q0 -78 -162 -94q-55 0 -230 -117l-45 -20l-8 28v4l35 73l-85 95l-5 28q0 125 234 251q41 3 41 10zM906 703q183 0 291 -375l5 -56v-6q0 -368 -386 -621 q-134 -73 -263 -73h-11l-6 -6l-6 6h-16q-143 0 -443 95l-11 39l6 6h274q367 0 666 369q68 102 68 129l-12 11q-96 -78 -140 -78q-169 0 -218 224q90 336 202 336zM872 423v-17l6 -28h39q46 0 61 62q0 39 -39 39h-45q-15 0 -22 -56z" />
<glyph unicode="&#x624;" horiz-adv-x="1250" arabic-form="final" d="M853 1024q91 0 91 -91q-12 -80 -77 -80l-76 48h-23q-33 0 -73 -58q49 -72 140 -72l189 32q54 -8 54 -23v-14q0 -78 -162 -94q-55 0 -230 -117l-45 -20l-8 28v4l35 73l-85 95l-5 28q0 125 234 251q41 3 41 10zM816 484q118 0 183 -76t104 -184l187 -1v-223h-179 q-40 -105 -148 -256q-188 -267 -489 -267h-33q-381 22 -381 101q0 28 34 28h263q218 0 515 268l39 56v17q-8 23 -39 23h-78q-202 41 -202 178q0 177 168 320zM743 227q38 -39 67 -39h34q17 16 -2 50t-25.5 36.5t-31.5 2.5t-33.5 -8.5t-8.5 -41.5z" />
<glyph unicode="&#x625;" horiz-adv-x="600" arabic-form="isolated" d="M315 -53q91 0 91 -91q-12 -80 -77 -80l-76 48h-23q-33 0 -73 -58q49 -72 140 -72l189 32q54 -8 54 -23v-14q0 -78 -162 -94q-55 0 -230 -117l-45 -20l-8 28v4l35 73l-85 95l-5 28q0 125 234 251q41 3 41 10zM102 1523h16q49 0 76 -224l154 -952l11 -179v-17 q0 -110 -61 -151h-12q-50 0 -78 280l-168 1070q32 173 62 173z" />
<glyph unicode="&#x625;" horiz-adv-x="659" arabic-form="final" d="M437 -124q91 0 91 -91q-12 -80 -77 -80l-76 48h-23q-33 0 -73 -58q49 -72 140 -72l189 32q54 -8 54 -23v-14q0 -78 -162 -94q-55 0 -230 -117l-45 -20l-8 28v4l35 73l-85 95l-5 28q0 125 234 251q41 3 41 10zM143 1568h17q81 0 128 -734q51 -571 154 -590q19 -20 87 -20 h170v-224h-147q-234 0 -303 168q-54 119 -179 1254q0 83 73 146z" />
<glyph unicode="&#x626;" horiz-adv-x="1430" arabic-form="isolated" d="M414 1005q91 0 91 -91q-12 -80 -77 -80l-76 48h-23q-33 0 -73 -58q49 -72 140 -72l189 32q54 -8 54 -23v-14q0 -78 -162 -94q-55 0 -230 -117l-45 -20l-8 28v4l35 73l-85 95l-5 28q0 125 234 251q41 3 41 10zM1197 997q102 0 162 -135l11 -33q-11 -135 -72 -135l-124 84 h-28q-98 0 -252 -207q-22 -38 -22 -67v-34q0 -151 319 -151q179 -24 179 -168q0 -286 -638 -492l-146 -17h-5q-363 0 -487 269q-23 67 -34 173q0 200 168 381l56 28l6 -6v-28q0 -43 -101 -280v-5q0 -220 285 -291l112 -11h62q277 0 538 212v6q0 19 -62 28h-34l-100 -6 q-269 43 -269 246v17q12 205 263 515q118 103 213 107z" />
<glyph unicode="&#x626;" horiz-adv-x="1524" arabic-form="final" d="M1197 400q31 0 213 -128q69 -40 193 -47h78l1 -225h-96q-214 3 -356 109q-78 67 -106 67q-61 -21 -129 -117v-39q0 -57 342 -73q129 -14 129 -129q0 -226 -549 -448q-148 -56 -280 -56h-67q-359 0 -488 264q-22 95 -22 145q0 269 258 498h11q33 -11 33 -45 q-140 -335 -140 -358v-11q0 -102 152 -218q93 -62 252 -62h5q275 0 560 163q28 24 28 44l-297 62q-117 57 -117 134q0 115 229 381q91 89 163 89zM446 703q91 0 91 -91q-12 -80 -77 -80l-76 48h-23q-33 0 -73 -58q49 -72 140 -72l189 32q54 -8 54 -23v-14q0 -78 -162 -94 q-55 0 -230 -117l-45 -20l-8 28v4l35 73l-85 95l-5 28q0 125 234 251q41 3 41 10z" />
<glyph unicode="&#x626;" horiz-adv-x="680" arabic-form="initial" d="M390 1121q91 0 91 -91q-12 -80 -77 -80l-76 48h-23q-33 0 -73 -58q49 -72 140 -72l189 32q54 -8 54 -23v-14q0 -78 -162 -94q-55 0 -230 -117l-45 -20l-8 28v4l35 73l-85 95l-5 28q0 125 234 251q41 3 41 10zM418 672q97 0 202 -336q-6 -197 -159 -257q-144 -74 -327 -79 h-134v224q267 0 354.5 13.5t102.5 81.5q-5 50 -67 126t-62 109q40 118 90 118z" />
<glyph unicode="&#x626;" horiz-adv-x="890" arabic-form="medial" d="M477 1123q91 0 91 -91q-12 -80 -77 -80l-76 48h-23q-33 0 -73 -58q49 -72 140 -72l189 32q54 -8 54 -23v-14q0 -78 -162 -94q-55 0 -230 -117l-45 -20l-8 28v4l35 73l-85 95l-5 28q0 125 234 251q41 3 41 10zM472 468q25 0 39 -45q36 -129 119 -166.5t182 -32.5h118v-224 h-95q-262 -3 -363 154q-136 -154 -416 -154h-56v224h126q238 3 273 154q31 90 73 90z" />
<glyph unicode="&#x627;" horiz-adv-x="519" arabic-form="isolated" d="M162 1523h16q49 0 76 -224l154 -952l11 -179v-17q0 -110 -61 -151h-12q-50 0 -78 280l-168 1070q32 173 62 173z" />
<glyph unicode="&#x627;" horiz-adv-x="689" arabic-form="final" d="M173 1568h17q81 0 128 -734q51 -571 154 -590q19 -20 87 -20h170v-224h-147q-234 0 -303 168q-54 119 -179 1254q0 83 73 146z" />
<glyph unicode="&#x628;" horiz-adv-x="1866" arabic-form="isolated" d="M1647 703q56 0 140 -140q39 -77 39 -135v-5q0 -230 -112 -286q-371 -179 -1080 -179q-439 0 -572 263q-22 69 -22 112q0 125 157 336q24 23 61 23q19 0 34 -45l-90 -252v-11q0 -138 420 -196l84 -6q969 59 969 185v5q0 24 -117 163l-12 33q33 135 101 135zM1140 -277 l-140 -140l-140 140l140 140z" />
<glyph unicode="&#x628;" horiz-adv-x="1859" arabic-form="final" d="M284 636l17 -17v-6q0 -56 -90 -196l-11 -33q0 -61 118 -157q173 -95 397 -95h23q722 92 744 128q105 56 163 163q5 17 33 17q23 0 40 -51l-12 -84q30 -69 114 -81h89v-224h-89q-127 9 -186 137l-241 -106q-339 -101 -639 -101h-89q-443 0 -577 235q-28 93 -28 146 q0 165 196 325h28zM1018 -295l-140 -140l-140 140l140 140z" />
<glyph unicode="&#x628;" horiz-adv-x="680" arabic-form="initial" d="M497 -221l-140 -140l-140 140l140 140zM418 672q97 0 202 -336q-6 -197 -159 -257q-144 -74 -327 -79h-134v224q267 0 354.5 13.5t102.5 81.5q-5 50 -67 126t-62 109q40 118 90 118z" />
<glyph unicode="&#x628;" horiz-adv-x="890" arabic-form="medial" d="M602 -201l-140 -140l-140 140l140 140zM472 468q25 0 39 -45q36 -129 119 -166.5t182 -32.5h118v-224h-95q-262 -3 -363 154q-136 -154 -416 -154h-56v224h126q238 3 273 154q31 90 73 90z" />
<glyph unicode="&#x629;" horiz-adv-x="681" arabic-form="isolated" d="M329 1179l-105 -162l-164 113l107 158zM621 1229l-105 -162l-164 113l107 158zM282 734h6q194 0 369 -339l12 -85q0 -125 -228 -302l-153 -24q-228 22 -228 202l117 351q0 173 56 173q0 15 49 24zM211 264q78 -51 125 -51h45q83 0 133 80v16q-105 154 -192 154h-29 q-58 0 -82 -199z" />
<glyph unicode="&#x629;" horiz-adv-x="899" arabic-form="final" d="M405 1346l-105 -162l-164 113l107 158zM697 1396l-105 -162l-164 113l107 158zM519 901q60 0 129 -420q64 -186 119.5 -219t181.5 -33v-229h-88q-184 0 -308 218h-6q-147 -129 -246 -129h-28q-213 0 -213 107q0 173 325 369q84 35 84 213q0 106 50 123zM318 330v-11 l11 -11h11q112 0 174 84v11l-23 28h-50q-48 0 -123 -101z" />
<glyph unicode="&#x62a;" horiz-adv-x="1906" arabic-form="isolated" d="M920 875l-105 -162l-164 113l107 158zM1212 925l-105 -162l-164 113l107 158zM1667 703q56 0 140 -140q39 -77 39 -135v-5q0 -230 -112 -286q-371 -179 -1080 -179q-439 0 -572 263q-22 69 -22 112q0 125 157 336q24 23 61 23q19 0 34 -45l-90 -252v-11q0 -138 420 -196 l84 -6q969 59 969 185v5q0 24 -117 163l-12 33q33 135 101 135z" />
<glyph unicode="&#x62a;" horiz-adv-x="1859" arabic-form="final" d="M284 636l17 -17v-6q0 -56 -90 -196l-11 -33q0 -61 118 -157q173 -95 397 -95h23q722 92 744 128q105 56 163 163q5 17 33 17q23 0 40 -51l-12 -84q30 -69 114 -81h89v-224h-89q-127 9 -186 137l-241 -106q-339 -101 -639 -101h-89q-443 0 -577 235q-28 93 -28 146 q0 165 196 325h28zM888 839l-105 -162l-164 113l107 158zM1180 889l-105 -162l-164 113l107 158z" />
<glyph unicode="&#x62a;" horiz-adv-x="680" arabic-form="initial" d="M323 936l-105 -162l-164 113l107 158zM615 986l-105 -162l-164 113l107 158zM418 672q97 0 202 -336q-6 -197 -159 -257q-144 -74 -327 -79h-134v224q267 0 354.5 13.5t102.5 81.5q-5 50 -67 126t-62 109q40 118 90 118z" />
<glyph unicode="&#x62a;" horiz-adv-x="890" arabic-form="medial" d="M472 468q25 0 39 -45q36 -129 119 -166.5t182 -32.5h118v-224h-95q-262 -3 -363 154q-136 -154 -416 -154h-56v224h126q238 3 273 154q31 90 73 90zM391 765l-105 -162l-164 113l107 158zM683 815l-105 -162l-164 113l107 158z" />
<glyph unicode="&#x62b;" horiz-adv-x="1906" arabic-form="isolated" d="M867 756l-105 -162l-164 113l107 158zM1159 806l-105 -162l-164 113l107 158zM960 1086l-105 -162l-164 113l107 158zM1667 703q56 0 140 -140q39 -77 39 -135v-5q0 -230 -112 -286q-371 -179 -1080 -179q-439 0 -572 263q-22 69 -22 112q0 125 157 336q24 23 61 23 q19 0 34 -45l-90 -252v-11q0 -138 420 -196l84 -6q969 59 969 185v5q0 24 -117 163l-12 33q33 135 101 135z" />
<glyph unicode="&#x62b;" horiz-adv-x="1859" arabic-form="final" d="M793 637l-105 -162l-164 113l107 158zM1085 687l-105 -162l-164 113l107 158zM886 967l-105 -162l-164 113l107 158zM284 636l17 -17v-6q0 -56 -90 -196l-11 -33q0 -61 118 -157q173 -95 397 -95h23q722 92 744 128q105 56 163 163q5 17 33 17q23 0 40 -51l-12 -84 q30 -69 114 -81h89v-224h-89q-127 9 -186 137l-241 -106q-339 -101 -639 -101h-89q-443 0 -577 235q-28 93 -28 146q0 165 196 325h28z" />
<glyph unicode="&#x62b;" horiz-adv-x="680" arabic-form="initial" d="M432 672q97 0 202 -336q-6 -197 -159 -257q-144 -74 -327 -79h-134v224q267 0 354.5 13.5t102.5 81.5q-5 50 -67 126t-62 109q40 118 90 118zM269 939l-105 -162l-164 113l107 158zM561 989l-105 -162l-164 113l107 158zM362 1269l-105 -162l-164 113l107 158z" />
<glyph unicode="&#x62b;" horiz-adv-x="890" arabic-form="medial" d="M382 741l-105 -162l-164 113l107 158zM674 791l-105 -162l-164 113l107 158zM475 1071l-105 -162l-164 113l107 158zM472 468q25 0 39 -45q36 -129 119 -166.5t182 -32.5h118v-224h-95q-262 -3 -363 154q-136 -154 -416 -154h-56v224h126q238 3 273 154q31 90 73 90z" />
<glyph unicode="&#x62c;" horiz-adv-x="1320" arabic-form="isolated" d="M489 608l726 25q37 1 38 -36l1 -20q4 -134 -139 -189q-104 -3 -463 -169q-367 -193 -459 -757l-65 -7q-16 514 304 846v12q-1 20 -61 18q-103 -4 -240 -182l-25 -6q-26 -1 -43 55q-3 92 188 345q61 59 238 65zM826 -295l-140 -140l-140 140l140 140z" />
<glyph unicode="&#x62c;" horiz-adv-x="1400" arabic-form="final" d="M486 659h722l17 -16v-45q0 -76 -118 -151q-112 -21 -112 -73q105 -168 439 -151v-222l-148 -2q-282 0 -369 140q-17 28 -17 72v174l-11 11h-17q-216 -29 -398 -162q-268 -236 -338 -641l-76 -80q0 490 353 878q33 22 33 44l-33 12h-28q-86 0 -219 -101h-33l-17 17v39 q0 87 218 241q69 16 152 16zM781 -31l-140 -140l-140 140l140 140z" />
<glyph unicode="&#x62c;" horiz-adv-x="1383" arabic-form="initial" d="M377 680q72 0 425 -196q150 -67 409 -67h56l22 6q30 0 34 -73q0 -125 -168 -140h-78l-219 11q-113 0 -599 -179q-119 -42 -186 -42h-73v224h74l28 3q135 0 403 112v5q-57 101 -168 101l-207 -89h-17q-44 0 -50 61q0 135 258 258zM741 -169l-140 -140l-140 140l140 140z " />
<glyph unicode="&#x62c;" horiz-adv-x="1240" arabic-form="medial" d="M720 -275l-140 -140l-140 140l140 140zM364 711q416 -152 554 -190l62 -6h34l95 11q123 -11 123 -78q0 -113 -156 -148l-1 -40q-3 -36 112 -36h103v-224h-64q-208 0 -244 56t-19 162v56q-23 26 -65 26h-38q-93 8 -266.5 -90t-247.5 -131t-132.5 -49.5t-144.5 -29.5h-69 v224q63 0 157.5 19.5t204.5 61.5t148 93q-52 72 -163 72h-5q-72 0 -213 -84h-23q-15 0 -28 40q12 174 258 280z" />
<glyph unicode="&#x62d;" horiz-adv-x="1320" arabic-form="isolated" d="M489 608l726 25q37 1 38 -36l1 -20q4 -134 -139 -189q-104 -3 -463 -169q-367 -193 -459 -757l-65 -7q-16 514 304 846v12q-1 20 -61 18q-103 -4 -240 -182l-25 -6q-26 -1 -43 55q-3 92 188 345q61 59 238 65z" />
<glyph unicode="&#x62d;" horiz-adv-x="1404" arabic-form="final" d="M486 659h722l17 -16v-45q0 -76 -118 -151q-112 -21 -112 -73q105 -168 439 -151v-222l-148 -2q-282 0 -369 140q-17 28 -17 72v174l-11 11h-17q-216 -29 -398 -162q-268 -236 -338 -641l-76 -80q0 490 353 878q33 22 33 44l-33 12h-28q-86 0 -219 -101h-33l-17 17v39 q0 87 218 241q69 16 152 16z" />
<glyph unicode="&#x62d;" horiz-adv-x="1383" arabic-form="initial" d="M377 680q72 0 425 -196q150 -67 409 -67h56l22 6q30 0 34 -73q0 -125 -168 -140h-78l-219 11q-113 0 -599 -179q-119 -42 -186 -42h-73v224h74l28 3q135 0 403 112v5q-57 101 -168 101l-207 -89h-17q-44 0 -50 61q0 135 258 258z" />
<glyph unicode="&#x62d;" horiz-adv-x="1240" arabic-form="medial" d="M364 711q416 -152 554 -190l62 -6h34l95 11q123 -11 123 -78q0 -113 -156 -148l-1 -40q-3 -36 112 -36h103v-224h-64q-208 0 -244 56t-19 162v56q-23 26 -65 26h-38q-93 8 -266.5 -90t-247.5 -131t-132.5 -49.5t-144.5 -29.5h-69v224q63 0 157.5 19.5t204.5 61.5t148 93 q-52 72 -163 72h-5q-72 0 -213 -84h-23q-15 0 -28 40q12 174 258 280z" />
<glyph unicode="&#x62e;" horiz-adv-x="1320" arabic-form="isolated" d="M666 920l-140 -140l-140 140l140 140zM489 608l726 25q37 1 38 -36l1 -20q4 -134 -139 -189q-104 -3 -463 -169q-367 -193 -459 -757l-65 -7q-16 514 304 846v12q-1 20 -61 18q-103 -4 -240 -182l-25 -6q-26 -1 -43 55q-3 92 188 345q61 59 238 65z" />
<glyph unicode="&#x62e;" horiz-adv-x="1400" arabic-form="final" d="M749 938l-140 -140l-140 140l140 140zM486 659h722l17 -16v-45q0 -76 -118 -151q-112 -21 -112 -73q105 -168 439 -151v-222l-148 -2q-282 0 -369 140q-17 28 -17 72v174l-11 11h-17q-216 -29 -398 -162q-268 -236 -338 -641l-76 -80q0 490 353 878q33 22 33 44l-33 12 h-28q-86 0 -219 -101h-33l-17 17v39q0 87 218 241q69 16 152 16z" />
<glyph unicode="&#x62e;" horiz-adv-x="1383" arabic-form="initial" d="M520 989l-140 -140l-140 140l140 140zM377 680q72 0 425 -196q150 -67 409 -67h56l22 6q30 0 34 -73q0 -125 -168 -140h-78l-219 11q-113 0 -599 -179q-119 -42 -186 -42h-73v224h74l28 3q135 0 403 112v5q-57 101 -168 101l-207 -89h-17q-44 0 -50 61q0 135 258 258z " />
<glyph unicode="&#x62e;" horiz-adv-x="1270" arabic-form="medial" d="M542 1025l-140 -140l-140 140l140 140zM364 711q416 -152 554 -190l62 -6h34l95 11q123 -11 123 -78q0 -113 -156 -148l-1 -40q-3 -36 112 -36h103v-224h-64q-208 0 -244 56t-19 162v56q-23 26 -65 26h-38q-93 8 -266.5 -90t-247.5 -131t-132.5 -49.5t-144.5 -29.5h-69 v224q63 0 157.5 19.5t204.5 61.5t148 93q-52 72 -163 72h-5q-72 0 -213 -84h-23q-15 0 -28 40q12 174 258 280z" />
<glyph unicode="&#x62f;" horiz-adv-x="724" arabic-form="isolated" d="M284 815h6q269 -24 363 -392l11 -99q-5 -208 -68 -250q-70 -48 -369 -74h-61q-106 0 -106 118v11q11 112 67 112q25 -11 73 -11h39q93 0 184 24.5t91 43.5q-30 222 -247 298q-73 9 -73 101q23 118 90 118z" />
<glyph unicode="&#x62f;" horiz-adv-x="1164" arabic-form="final" d="M640 1052h11q26 0 187 -452q66 -241 152 -311q61 -65 224 -65v-224h-91q-120 0 -240 124l-89 118q-160 -160 -269.5 -201t-256.5 -41q-199 0 -208 130q0 63 62 106q21 8 84 -2t163 -10q165 0 329 119q51 57 31 95l-160 440q0 28 71 174z" />
<glyph unicode="&#x630;" horiz-adv-x="724" arabic-form="isolated" d="M284 815h6q269 -24 363 -392l11 -99q-5 -208 -68 -250q-70 -48 -369 -74h-61q-106 0 -106 118v11q11 112 67 112q25 -11 73 -11h39q93 0 184 24.5t91 43.5q-30 222 -247 298q-73 9 -73 101q23 118 90 118zM373 1140l-140 -140l-140 140l140 140z" />
<glyph unicode="&#x630;" horiz-adv-x="1164" arabic-form="final" d="M685 1376l-140 -140l-140 140l140 140zM640 1052h11q26 0 187 -452q66 -241 152 -311q61 -65 224 -65v-224h-91q-120 0 -240 124l-89 118q-160 -160 -269.5 -201t-256.5 -41q-199 0 -208 130q0 63 62 106q21 8 84 -2t163 -10q165 0 329 119q51 57 31 95l-160 440 q0 28 71 174z" />
<glyph unicode="&#x631;" horiz-adv-x="1122" arabic-form="isolated" d="M833 566q161 0 229 -392v-6q0 -187 -212 -459q-97 -129 -398 -129q-370 35 -370 84l-22 23q0 39 50 39l286 -17q239 0 504 336q34 71 34 140q0 50 -146 185q-17 21 -17 50v17q6 129 62 129z" />
<glyph unicode="&#x631;" horiz-adv-x="1297" arabic-form="final" d="M1317 224v-224h-215q-27 0 -58.5 -106t-80.5 -198.5t-125 -176.5q-145 -135 -341 -135q-371 66 -437 146v11q29 45 67 45q226 -56 258 -56h17q261 0 526 375q17 28 8.5 61.5t-58.5 55.5q-45 77 -45 96q35 106 87 106h397z" />
<glyph unicode="&#x632;" horiz-adv-x="1122" arabic-form="isolated" d="M811 852l-140 -140l-140 140l140 140zM833 566q161 0 229 -392v-6q0 -187 -212 -459q-97 -129 -398 -129q-370 35 -370 84l-22 23q0 39 50 39l286 -17q239 0 504 336q34 71 34 140q0 50 -146 185q-17 21 -17 50v17q6 129 62 129z" />
<glyph unicode="&#x632;" horiz-adv-x="1297" arabic-form="final" d="M976 556l-140 -140l-140 140l140 140zM1317 224v-224h-215q-27 0 -58.5 -106t-80.5 -198.5t-125 -176.5q-145 -135 -341 -135q-371 66 -437 146v11q29 45 67 45q226 -56 258 -56h17q261 0 526 375q17 28 8.5 61.5t-58.5 55.5q-45 77 -45 96q35 106 87 106h397z" />
<glyph unicode="&#x633;" horiz-adv-x="1957" arabic-form="isolated" d="M1790 633q55 0 107 -241q-69 -297 -202 -297l-190 62h-6q-162 -76 -291 -118q-45 -31 -45 -195q-40 -157 -129 -213q-240 -191 -560 -191q-193 0 -347 191q-67 131 -67 190v39q0 146 134 342l40 33h5q34 -24 34 -45l-62 -234v-45q0 -150 252 -219q35 -11 107 -11 q260 0 459 163q22 43 22 67v45q0 93 -134 324l-6 39q0 49 62 129q18 0 145 -146q33 -22 84 -22q159 0 230 101q41 185 84 185h6q61 -47 61 -96l-5 -61q63 -73 117 -73h17q29 14 34 34l-28 106q22 157 72 157z" />
<glyph unicode="&#x633;" horiz-adv-x="2008" arabic-form="final" d="M1802 409l22 -6v-17q0 -131 112 -162l92 1v-227l-78 1q-85 12 -176 68h-17q-88 -78 -157 -78l-185 39q-325 -50 -325 -67q-60 -313 -117 -313q-86 -112 -398 -191q-64 -17 -134 -17h-23q-203 0 -324 219q-34 74 -34 157q0 205 162 380h23q17 -4 28 -39l-90 -252v-5 q0 -103 196 -230q70 -17 123 -17h6q203 0 409 135q33 53 33 78q0 109 -128 308l-17 50q22 129 78 129h6l140 -157q45 -22 145 -22q230 0 230 95q52 115 95 117h6q33 0 33 -33v-84q0 -67 68 -67h44q33 0 101 173q25 34 51 34z" />
<glyph unicode="&#x633;" horiz-adv-x="1282" arabic-form="initial" d="M1133 622q71 -21 89 -236v-11q0 -234 -78.5 -254t-100.5 -23t-224 48q-17 0 -70 -39.5t-100 -50.5t-87 -14t-219 14q-95 -56 -342 -56l-1 224q186 0 259.5 28t89.5 67q70 118 84 123h5q34 0 45 -156l22 -17h79l61 -6q96 0 163 196l56 90h5q51 0 51 -62v-101 q0 -67 123 -67q39 14 39 56l-17 123q21 124 68 124z" />
<glyph unicode="&#x633;" horiz-adv-x="1575" arabic-form="medial" d="M1299 470q28 -21 39.5 -74.5t80 -112.5t107.5 -59h69v-224h-76q-102 10 -265 146l-95 -90q-39 -28 -89 -28l-152 22q-179 -50 -284.5 -25t-146.5 25q-207 -50 -347 -50h-140v224h108l161 6q222 0 302 156l39 12h6q43 0 45 -51l-23 -106q34 -28 73 -28h51q109 0 134 73 q60 151 106 151h23q12 0 28 -51l-6 -28v-78q13 -28 56 -28h6q75 0 145 168z" />
<glyph unicode="&#x634;" horiz-adv-x="1957" arabic-form="isolated" d="M1790 633q55 0 107 -241q-69 -297 -202 -297l-190 62h-6q-162 -76 -291 -118q-45 -31 -45 -195q-40 -157 -129 -213q-240 -191 -560 -191q-193 0 -347 191q-67 131 -67 190v39q0 146 134 342l40 33h5q34 -24 34 -45l-62 -234v-45q0 -150 252 -219q35 -11 107 -11 q260 0 459 163q22 43 22 67v45q0 93 -134 324l-6 39q0 49 62 129q18 0 145 -146q33 -22 84 -22q159 0 230 101q41 185 84 185h6q61 -47 61 -96l-5 -61q63 -73 117 -73h17q29 14 34 34l-28 106q22 157 72 157zM1373 719l-105 -162l-164 113l107 158zM1665 769l-105 -162 l-164 113l107 158zM1466 1049l-105 -162l-164 113l107 158z" />
<glyph unicode="&#x634;" horiz-adv-x="2008" arabic-form="final" d="M1802 409l22 -6v-17q0 -131 112 -162l92 1v-227l-78 1q-85 12 -176 68h-17q-88 -78 -157 -78l-185 39q-325 -50 -325 -67q-60 -313 -117 -313q-86 -112 -398 -191q-64 -17 -134 -17h-23q-203 0 -324 219q-34 74 -34 157q0 205 162 380h23q17 -4 28 -39l-90 -252v-5 q0 -103 196 -230q70 -17 123 -17h6q203 0 409 135q33 53 33 78q0 109 -128 308l-17 50q22 129 78 129h6l140 -157q45 -22 145 -22q230 0 230 95q52 115 95 117h6q33 0 33 -33v-84q0 -67 68 -67h44q33 0 101 173q25 34 51 34zM1399 586l-105 -162l-164 113l107 158zM1691 636 l-105 -162l-164 113l107 158zM1492 916l-105 -162l-164 113l107 158z" />
<glyph unicode="&#x634;" horiz-adv-x="1282" arabic-form="initial" d="M1133 622q71 -21 89 -236v-11q0 -234 -78.5 -254t-100.5 -23t-224 48q-17 0 -70 -39.5t-100 -50.5t-87 -14t-219 14q-95 -56 -342 -56l-1 224q186 0 259.5 28t89.5 67q70 118 84 123h5q34 0 45 -156l22 -17h79l61 -6q96 0 163 196l56 90h5q51 0 51 -62v-101 q0 -67 123 -67q39 14 39 56l-17 123q21 124 68 124zM735 735l-105 -162l-164 113l107 158zM1027 785l-105 -162l-164 113l107 158zM828 1065l-105 -162l-164 113l107 158z" />
<glyph unicode="&#x634;" horiz-adv-x="1575" arabic-form="medial" d="M1299 470q28 -21 39.5 -74.5t80 -112.5t107.5 -59h69v-224h-76q-102 10 -265 146l-95 -90q-39 -28 -89 -28l-152 22q-179 -50 -284.5 -25t-146.5 25q-207 -50 -347 -50h-140v224h108l161 6q222 0 302 156l39 12h6q43 0 45 -51l-23 -106q34 -28 73 -28h51q109 0 134 73 q60 151 106 151h23q12 0 28 -51l-6 -28v-78q13 -28 56 -28h6q75 0 145 168zM884 681l-105 -162l-164 113l107 158zM1176 731l-105 -162l-164 113l107 158zM977 1011l-105 -162l-164 113l107 158z" />
<glyph unicode="&#x635;" horiz-adv-x="1951" arabic-form="isolated" d="M1600 679q140 0 274 -134l17 -68q-8 -112 -157 -291q-238 -140 -414 -140l-174 11h-16q-73 0 -73 -122q-25 -150 -95 -224q-126 -129 -420 -191l-90 -11q-216 0 -370 207q-22 72 -22 107q0 142 140 330l39 33h11l12 -11v-34q0 -21 -79 -167v-62q0 -141 269 -196l45 -5 q234 0 437 151l11 39v117l-107 230l-5 17q29 128 73 128q30 0 100 -106l34 -11h6q470 397 509 397zM1247 259v-11h179q100 0 280 117l23 34q-108 78 -191 78h-22q-90 0 -269 -218z" />
<glyph unicode="&#x635;" horiz-adv-x="2223" arabic-form="final" d="M1841 673q162 0 257 -162q5 -50 12 -50q0 -97 -107 -224v-6q31 -28 51 -28q102 6 128 18l51 3v-226q-107 -7 -409 3l-364 17q-342 0 -342 -44q-16 -58 -33 -202q-70 -171 -269 -252q-158 -67 -302 -67q-314 0 -432 252l-22 123q0 168 146 319h5q30 0 39 -28l-61 -190v-45 q0 -154 285 -224l101 -5q192 0 392 134q34 48 34 67v62q0 60 -163 335v12q0 60 56 128q181 -173 241 -173h28q48 0 482 369q127 84 196 84zM1432 242v-11h112q136 0 381 112l17 22v28q-146 96 -208 96q-70 0 -302 -247z" />
<glyph unicode="&#x635;" horiz-adv-x="1600" arabic-form="initial" d="M1249 666q291 -65 291 -212q0 -289 -521 -398l-392 -50q-25 -20 -67 -174q-24 -28 -34 -28q-18 0 -39 40l17 145v17q0 35 -129 95q-77 50 -106 50q-143 -151 -209 -151h-60v224q123 -13 280 134l39 6q31 0 179 -106l51 -12h61q51 0 454 325q109 80 185 95zM890 269v-17 l40 -6h44q387 66 387 146q-52 56 -135 56h-56q-91 0 -280 -179z" />
<glyph unicode="&#x635;" horiz-adv-x="1740" arabic-form="medial" d="M1366 652q170 -26 247 -95q45 -45 50 -84l-73 -235l6 -6q50 0 184 -8l-1 -224q-119 0 -256 14h-274q-622 -22 -622 -39q-78 -182 -106 -185q-11 0 -17 34l17 190q-151 126 -168 124.5t-115 -70t-168 -68.5h-70l1 224h76q64 0 276 126l5 6h6q20 0 213 -107l84 -17h28 q56 0 453 325q149 95 224 95zM963 221h79q130 0 397 112q34 27 34 45q-67 62 -191 62q-117 0 -313 -202z" />
<glyph unicode="&#x636;" horiz-adv-x="1951" arabic-form="isolated" d="M1600 679q140 0 274 -134l17 -68q-8 -112 -157 -291q-238 -140 -414 -140l-174 11h-16q-73 0 -73 -122q-25 -150 -95 -224q-126 -129 -420 -191l-90 -11q-216 0 -370 207q-22 72 -22 107q0 142 140 330l39 33h11l12 -11v-34q0 -21 -79 -167v-62q0 -141 269 -196l45 -5 q234 0 437 151l11 39v117l-107 230l-5 17q29 128 73 128q30 0 100 -106l34 -11h6q470 397 509 397zM1247 259v-11h179q100 0 280 117l23 34q-108 78 -191 78h-22q-90 0 -269 -218zM1337 837l-140 -140l-140 140l140 140z" />
<glyph unicode="&#x636;" horiz-adv-x="2223" arabic-form="final" d="M1547 798l-140 -140l-140 140l140 140zM1841 673q162 0 257 -162q5 -50 12 -50q0 -97 -107 -224v-6q31 -28 51 -28q102 6 128 18l51 3v-226q-107 -7 -409 3l-364 17q-342 0 -342 -44q-16 -58 -33 -202q-70 -171 -269 -252q-158 -67 -302 -67q-314 0 -432 252l-22 123 q0 168 146 319h5q30 0 39 -28l-61 -190v-45q0 -154 285 -224l101 -5q192 0 392 134q34 48 34 67v62q0 60 -163 335v12q0 60 56 128q181 -173 241 -173h28q48 0 482 369q127 84 196 84zM1432 242v-11h112q136 0 381 112l17 22v28q-146 96 -208 96q-70 0 -302 -247z" />
<glyph unicode="&#x636;" horiz-adv-x="1600" arabic-form="initial" d="M1249 666q291 -65 291 -212q0 -289 -521 -398l-392 -50q-25 -20 -67 -174q-24 -28 -34 -28q-18 0 -39 40l17 145v17q0 35 -129 95q-77 50 -106 50q-143 -151 -209 -151h-60v224q123 -13 280 134l39 6q31 0 179 -106l51 -12h61q51 0 454 325q109 80 185 95zM890 269v-17 l40 -6h44q387 66 387 146q-52 56 -135 56h-56q-91 0 -280 -179zM992 870l-140 -140l-140 140l140 140z" />
<glyph unicode="&#x636;" horiz-adv-x="1760" arabic-form="medial" d="M1366 652q170 -26 247 -95q45 -45 50 -84l-73 -235l6 -6q50 0 184 -8l-1 -224q-119 0 -256 14h-274q-622 -22 -622 -39q-78 -182 -106 -185q-11 0 -17 34l17 190q-151 126 -168 124.5t-115 -70t-168 -68.5h-70l1 224h76q64 0 276 126l5 6h6q20 0 213 -107l84 -17h28 q56 0 453 325q149 95 224 95zM963 221h79q130 0 397 112q34 27 34 45q-67 62 -191 62q-117 0 -313 -202zM1103 854l-140 -140l-140 140l140 140z" />
<glyph unicode="&#x637;" horiz-adv-x="1490" arabic-form="isolated" d="M542 1574q39 0 39 -84q84 -84 84 -124l-28 -128v-62q105 -549 105 -616l10 -45q0 -28 22 -33q278 168 384 168q87 0 196 -96q28 -42 38.5 -65.5t14 -97.5t-22.5 -122t-161 -159l-123 -45q-114 -65 -502 -65h-168q-87 0 -336 140l-34 50q21 45 56 45q175 -50 213 -50h28 q179 0 263 179l6 28v11q0 62 -157 874q-34 61 -34 106q51 191 107 191zM676 207l34 -11h28q234 0 442 123q51 38 41 67q-59 62 -113 62h-40q-105 0 -392 -235v-6z" />
<glyph unicode="&#x637;" horiz-adv-x="1834" arabic-form="final" d="M715 1624q34 -27 84 -151l67 -51l-50 -201q73 -616 73 -767l22 -17q237 196 381 196h28q165 0 269 -129l11 -45q0 -87 -97 -235h361v-224h-201l-158 -9l-504 -35l-241 -6l-28 -6q-375 0 -672 246v12q8 50 50 50q282 -90 398 -90q206 0 258 180l5 56l-157 1024 q30 202 101 202zM861 246h123q99 0 414 129q17 21 17 39v6q-96 67 -185 67q-119 0 -369 -241z" />
<glyph unicode="&#x637;" horiz-adv-x="1319" arabic-form="initial" d="M288 1702h34q27 0 118 -235q-28 -112 -28 -151q0 -85 64 -753l17 -17q210 83 315 102l73 1q297 -33 297 -189q61 -189 -118 -320q-379 -190 -909 -140h-151v224q74 0 106 -6h28q87 0 208 174l16 45q-11 84 -154 1030q0 132 84 235zM474 263q12 -22 34 -22q154 -50 429 62 q14 39 16 50q-69 67 -145 67h-11q-58 0 -323 -157z" />
<glyph unicode="&#x637;" horiz-adv-x="1297" arabic-form="medial" d="M231 1753h11q31 -13 129 -235l-50 -180q117 -609 117 -896v-16h17q27 0 224 156q91 65 202 79q302 -42 302 -219q14 -133 -63 -218h227v-224l-108 -1q-59 0 -151 18l-73 11q-396 -29 -958 -29l-56 1l-1 225h147q157 26 157 206v6q0 179 -146 991q-14 14 -39 118 q49 207 112 207zM528 230h50q255 39 392 117l11 34v5q-57 45 -145 45h-62q-96 0 -246 -190v-11z" />
<glyph unicode="&#x638;" horiz-adv-x="1490" arabic-form="isolated" d="M542 1574q39 0 39 -84q84 -84 84 -124l-28 -128v-62q105 -549 105 -616l10 -45q0 -28 22 -33q278 168 384 168q87 0 196 -96q28 -42 38.5 -65.5t14 -97.5t-22.5 -122t-161 -159l-123 -45q-114 -65 -502 -65h-168q-87 0 -336 140l-34 50q21 45 56 45q175 -50 213 -50h28 q179 0 263 179l6 28v11q0 62 -157 874q-34 61 -34 106q51 191 107 191zM676 207l34 -11h28q234 0 442 123q51 38 41 67q-59 62 -113 62h-40q-105 0 -392 -235v-6zM1142 930l-140 -140l-140 140l140 140z" />
<glyph unicode="&#x638;" horiz-adv-x="1834" arabic-form="final" d="M715 1624q34 -27 84 -151l67 -51l-50 -201q73 -616 73 -767l22 -17q237 196 381 196h28q165 0 269 -129l11 -45q0 -87 -97 -235h361v-224h-201l-158 -9l-504 -35l-241 -6l-28 -6q-375 0 -672 246v12q8 50 50 50q282 -90 398 -90q206 0 258 180l5 56l-157 1024 q30 202 101 202zM861 246h123q99 0 414 129q17 21 17 39v6q-96 67 -185 67q-119 0 -369 -241zM1383 920l-140 -140l-140 140l140 140z" />
<glyph unicode="&#x638;" horiz-adv-x="1319" arabic-form="initial" d="M288 1702h34q27 0 118 -235q-28 -112 -28 -151q0 -85 64 -753l17 -17q210 83 315 102l73 1q297 -33 297 -189q61 -189 -118 -320q-379 -190 -909 -140h-151v224q74 0 106 -6h28q87 0 208 174l16 45q-11 84 -154 1030q0 132 84 235zM474 263q12 -22 34 -22q154 -50 429 62 q14 39 16 50q-69 67 -145 67h-11q-58 0 -323 -157zM921 909l-140 -140l-140 140l140 140z" />
<glyph unicode="&#x638;" horiz-adv-x="1297" arabic-form="medial" d="M231 1753h11q31 -13 129 -235l-50 -180q117 -609 117 -896v-16h17q27 0 224 156q91 65 202 79q302 -42 302 -219q14 -133 -63 -218h227v-224l-108 -1q-59 0 -151 18l-73 11q-396 -29 -958 -29l-56 1l-1 225h147q157 26 157 206v6q0 179 -146 991q-14 14 -39 118 q49 207 112 207zM528 230h50q255 39 392 117l11 34v5q-57 45 -145 45h-62q-96 0 -246 -190v-11zM936 931l-140 -140l-140 140l140 140z" />
<glyph unicode="&#x639;" horiz-adv-x="1209" arabic-form="isolated" d="M506 1035q147 0 332 -132l7 -23q0 -20 -39 -45l-204 22q-187 0 -344 -137l-14 -34v-46q0 -120 294 -161h39q130 0 383 189q69 46 114 46h31q46 0 46 -46q0 -124 -409 -348q-253 -184 -287 -281q-127 -181 -184 -484l-83 -56q0 335 191 735v12q-319 124 -319 325v23 q0 199 274 395q110 46 172 46z" />
<glyph unicode="&#x639;" horiz-adv-x="1353" arabic-form="final" d="M506 981q147 0 332 -132l7 -23q0 -20 -39 -45l-204 22q-187 0 -344 -137l-14 -34v-46q0 -120 294 -161h39q130 0 383 189q69 46 114 46h31q46 0 46 -46q0 -124 -409 -348q319 -64 635 -22l6 -244q-446 -71 -758 148q-136 -66 -170 -163q-127 -181 -184 -484l-83 -56 q0 335 191 735v12q-319 124 -319 325v23q0 199 274 395q110 46 172 46z" />
<glyph unicode="&#x639;" horiz-adv-x="1242" arabic-form="initial" d="M666 806q121 0 286 -179v-17q0 -50 -39 -50l-196 73q-275 -74 -275 -151v-12q0 -103 191 -190h61q80 0 460 151q26 -11 28 -22q-40 -146 -112 -191q-528 -218 -936 -218h-134v224q200 0 262.5 -9t62.5 31q-45 82 -45 129q0 133 246 375q68 56 140 56z" />
<glyph unicode="&#x639;" horiz-adv-x="874" arabic-form="medial" d="M454 580q159 0 252 -140l11 -51q0 -22 -62 -134q0 -30 156 -31h113v-224h-104q-75 0 -150.5 4t-215.5 100h-34q-211 -96 -258 -100t-86 -4h-76v224q127 -15 186.5 6.5t59.5 35.5q-32 45 -112 45l-16 39q0 83 196 207z" />
<glyph unicode="&#x63a;" horiz-adv-x="1209" arabic-form="isolated" d="M506 1035q147 0 332 -132l7 -23q0 -20 -39 -45l-204 22q-187 0 -344 -137l-14 -34v-46q0 -120 294 -161h39q130 0 383 189q69 46 114 46h31q46 0 46 -46q0 -124 -409 -348q-253 -184 -287 -281q-127 -181 -184 -484l-83 -56q0 335 191 735v12q-319 124 -319 325v23 q0 199 274 395q110 46 172 46zM490 1283l-140 -140l-140 140l140 140z" />
<glyph unicode="&#x63a;" horiz-adv-x="1353" arabic-form="final" d="M506 981q147 0 332 -132l7 -23q0 -20 -39 -45l-204 22q-187 0 -344 -137l-14 -34v-46q0 -120 294 -161h39q130 0 383 189q69 46 114 46h31q46 0 46 -46q0 -124 -409 -348q319 -64 635 -22l6 -244q-446 -71 -758 148q-136 -66 -170 -163q-127 -181 -184 -484l-83 -56 q0 335 191 735v12q-319 124 -319 325v23q0 199 274 395q110 46 172 46zM490 1283l-140 -140l-140 140l140 140z" />
<glyph unicode="&#x63a;" horiz-adv-x="1242" arabic-form="initial" d="M666 806q121 0 286 -179v-17q0 -50 -39 -50l-196 73q-275 -74 -275 -151v-12q0 -103 191 -190h61q80 0 460 151q26 -11 28 -22q-40 -146 -112 -191q-528 -218 -936 -218h-134v224q200 0 262.5 -9t62.5 31q-45 82 -45 129q0 133 246 375q68 56 140 56zM736 1043l-140 -140 l-140 140l140 140z" />
<glyph unicode="&#x63a;" horiz-adv-x="874" arabic-form="medial" d="M454 580q159 0 252 -140l11 -51q0 -22 -62 -134q0 -30 156 -31h113v-224h-104q-75 0 -150.5 4t-215.5 100h-34q-211 -96 -258 -100t-86 -4h-76v224q127 -15 186.5 6.5t59.5 35.5q-32 45 -112 45l-16 39q0 83 196 207zM613 856l-140 -140l-140 140l140 140z" />
<glyph unicode="&#x641;" horiz-adv-x="1716" arabic-form="isolated" d="M1051 1348h23q96 -28 168 -129q0 -72 -112 -134h-12q-168 52 -168 134q23 79 101 129zM1370 895q161 0 286 -420v-28q0 -105 -101 -275q-124 -116 -397 -173q-374 -78 -560 -78q-405 0 -516 223q-22 80 -22 123v28q0 185 174 336h16q34 0 34 -28q-78 -180 -78 -201v-34 q0 -165 257 -224l67 -5h62q491 0 896 179q36 31 45 50v6q-7 45 -34 45l-168 -79q-124 0 -185 207v40q0 191 180 302zM1292 648v-33q10 -23 39 -23h62l11 11q-46 90 -78 90q-34 -11 -34 -45z" />
<glyph unicode="&#x641;" horiz-adv-x="1961" arabic-form="final" d="M1477 1136q67 0 140 -123v-11q-31 -112 -112 -112q-67 0 -151 84q30 162 106 162h17zM1628 767q143 0 196 -263v-11q0 -93 -62 -202q0 -46 124 -67h125l-2 -224q-344 0 -493 106q-396 -156 -885 -162q-411 26 -511 182q-60 97 -60 199q0 201 190 364q51 0 51 -45 q0 -24 -40.5 -111.5t-44.5 -159.5q4 -73 135 -138q158 -61 263 -61h264q51 0 342 50q200 42 150 179q0 227 213 353zM1499 442q0 -72 56 -72h23q61 0 78 89v28q0 44 -34 62h-33q-60 0 -90 -107z" />
<glyph unicode="&#x641;" horiz-adv-x="708" arabic-form="initial" d="M279 1232q168 -66 168 -129q-44 -134 -135 -134q-86 0 -145 101q57 162 112 162zM351 890q124 0 241 -240q39 -114 56 -247q0 -280 -269 -375q-102 -28 -201 -28h-178v224h164q31 0 105.5 8.5t233.5 97.5l5 6v34l-22 22l-112 -62l-28 -5q-150 0 -213 168l-11 67v28 q0 168 168 291zM284 622v-6q4 -34 17 -34h78v28q-12 56 -67 56q-28 -9 -28 -44z" />
<glyph unicode="&#x641;" horiz-adv-x="963" arabic-form="medial" d="M500 1259q190 -71 190 -129q0 -70 -118 -134h-22q-157 17 -190 123v6q64 134 140 134zM558 862q183 0 224 -285q19 -114 -62 -286q0 -29 61 -48t202 -19v-224h-116q-246 0 -416 112q-208 -112 -347 -112h-104v224q103 -3 194 28q84 29 84 50l-6 107q0 221 94.5 334.5 t191.5 118.5zM407 476v-17q57 -73 112 -73q117 26 117 107v22q0 67 -73 118h-33q-73 0 -123 -157z" />
<glyph unicode="&#x642;" horiz-adv-x="1262" arabic-form="isolated" d="M855 1081q100 -39 135 -112v-11q0 -69 -146 -118l-62 22h-11q-19 0 -129 -78l-16 -6q-129 51 -129 107v5q0 52 106 135h17l84 -28h39zM889 582q213 0 313 -470v-62q0 -295 -341 -408q-209 -78 -347 -78q-349 25 -443 291l-11 89v12q0 209 162 391h23q39 0 39 -50 q-84 -186 -84 -252v-11q0 -148 140 -213q90 -39 218 -39h56q166 0 409 146q51 53 51 94v28q0 73 -34 96q-109 -58 -168 -73q-118 0 -179 168v28q63 313 196 313zM844 381l-11 -23q0 -30 39 -56h45q22 12 22 34q0 28 -61 45h-34z" />
<glyph unicode="&#x642;" horiz-adv-x="1296" arabic-form="final" d="M894 969q62 0 123 -112q-46 -140 -123 -140l-73 23h-5q-20 0 -135 -84h-11q-68 0 -151 117v12q34 117 106 117h6l118 -33q23 0 134 100h11zM928 479q74 0 207 -219q42 -44 94 -35h87v-225h-97q-26 14 -56 -131q-71 -202 -218 -286q-179 -101 -415 -101h-50 q-301 0 -398 230q-22 90 -22 146v16q0 227 202 386h11l11 -50q-84 -217 -84 -240v-17q0 -181 280 -241h101q208 0 437 134q44 41 44 84v6q0 62 -246 62q-101 64 -101 190q0 151 151 274zM889 260l-6 -5v-23h34v12q0 12 -28 16z" />
<glyph unicode="&#x642;" horiz-adv-x="652" arabic-form="initial" d="M132 1221q168 -66 168 -129q-44 -134 -135 -134q-86 0 -145 101q57 162 112 162zM295 890q124 0 241 -240q39 -114 56 -247q0 -280 -269 -375q-102 -28 -201 -28h-122v224h123.5t90 8.5t233.5 97.5l5 6v34l-22 22l-112 -62l-28 -5q-150 0 -213 168l-11 67v28 q0 168 168 291zM240 622v-6q4 -34 17 -34h78v28q-12 56 -67 56q-28 -9 -28 -44zM434 1231q168 -65 168 -128q-43 -135 -134 -135q-87 0 -146 101q57 162 112 162z" />
<glyph unicode="&#x642;" horiz-adv-x="963" arabic-form="medial" d="M231 1195q190 -72 190 -129q0 -70 -117 -134h-23q-156 16 -190 123v5q64 135 140 135zM504 846q187 16 228 -269q19 -114 -42 -286q0 -29 46 -48t257 -19v-224q-446 -4 -572 112q-208 -112 -347 -112h-74v224q73 -3 164 28q84 29 84 50l-26 107q0 221 94.5 334.5 t187.5 102.5zM357 476v-17q57 -73 112 -73q117 26 117 107v22q0 67 -73 118h-33q-73 0 -123 -157zM610 1215q190 -71 190 -129q0 -70 -117 -134h-23q-156 17 -190 123v6q64 134 140 134z" />
<glyph unicode="&#x643;" horiz-adv-x="1374" arabic-form="isolated" d="M1079 1669q38 0 56 -146q79 -68 79 -123l-40 -168v-6q79 -417 140 -918q-44 -246 -190 -246q-364 -34 -840 -62q-165 0 -224 84v17q0 134 73 162q109 -39 213 -39h72q621 0 751 73q0 158 -157 1002q-50 102 -50 151q36 219 117 219zM712 1115q38 0 50 -56 q0 -63 -151 -146v-33q0 -7 157 -62q45 -31 45 -101q0 -110 -196 -246l-62 -17q-185 50 -185 112q6 22 34 22h146q47 0 67 34q0 20 -107 45q-61 47 -61 106q88 342 263 342z" />
<glyph unicode="&#x643;" horiz-adv-x="1674" arabic-form="final" d="M1214 1498q65 0 78 -179q90 -814 153 -927q37 -168 186 -168h93v-224h-113q-203 -8 -263 154q-25 90 -39 90h-11q-314 -274 -734 -274h-11q-345 0 -465 240q-22 66 -28 140q0 141 123 291l17 6l6 -6v-246q0 -150 324 -224h45q300 0 639 185q61 58 61 106l-123 902 q14 134 62 134zM850 1100q42 0 61 -72q0 -98 -134 -146q-37 0 -39 -17v-28q15 -24 196 -73q50 -37 50 -84q0 -155 -213 -240l-67 -12h-22q-129 10 -129 56v6q28 31 201 78v6q-168 85 -168 123v11q0 122 152 325q65 67 112 67z" />
<glyph unicode="&#x643;" horiz-adv-x="1404" arabic-form="initial" d="M1159 1753h11q34 0 34 -34q-42 -173 -107 -173q-482 -241 -750 -381q-130 -88 -179 -140q426 -436 426 -487q56 -115 56 -208v-72q0 -208 -311 -258h-339v224h280q241 -6 241 73q0 134 -280 381q-224 68 -224 128q-9 0 -17 79q0 350 515 565q549 303 644 303z" />
<glyph unicode="&#x643;" horiz-adv-x="1740" arabic-form="medial" d="M1417 2016q30 0 34 -56v-6q0 -166 -275 -240q-735 -343 -845 -404q-241 -123 -241 -179q34 -33 470 -285q723 -464 832 -543t200 -79h198v-224h-214q-206 21 -480 245l-452 298q103 -161 58 -311q-41 -124 -163.5 -169.5t-297.5 -62.5h-241v224h288q244 35 244 134v6 q0 125 -402 465q-180 89 -180 229v17q0 280 426 454q1004 487 1041 487z" />
<glyph unicode="&#x644;" horiz-adv-x="1128" arabic-form="isolated" d="M861 1400h17q32 0 61 -174q79 -50 79 -100l-51 -196q95 -762 101 -885v-34q0 -278 -454 -403l-112 -11q-162 0 -364 146q-78 105 -78 229q14 122 140 291q29 28 50 28h6l17 -17v-39q0 -42 -62 -190q0 -155 207 -207q24 -11 90 -11h62q155 0 336 106q33 55 33 106v17 q0 160 -134 963q-51 72 -51 140q0 105 107 241z" />
<glyph unicode="&#x644;" horiz-adv-x="1359" arabic-form="final" d="M1409 0h-89q-140 0 -263 127l17 -155q0 -201 -185 -369q-193 -151 -415 -151q-271 0 -397 274l-17 106q27 221 134 379l28 23h28q16 0 23 -39l-62 -234v-56q0 -144 252 -218l67 -6h17q175 0 342 151q50 61 50 124l-185 1398q33 168 84 168q58 0 68 -303q50 -418 103 -628 q69 -311 161 -339q50 -28 239 -28v-224z" />
<glyph unicode="&#x644;" horiz-adv-x="520" arabic-form="initial" d="M214 1462h23q15 0 33 -135q0 -38 107 -84l5 -5v-51q0 -45 -61 -162v-23q0 -86 89 -616l10 -130q-14 -130 -83.5 -190t-144.5 -66h-192v224h182q96 14 96 109l-159 938v11q31 180 95 180z" />
<glyph unicode="&#x644;" horiz-adv-x="875" arabic-form="medial" d="M323 1421h12q21 0 84 -350q117 -712 145 -773q80 -73 139 -73h212v-224h-232q-119 11 -220 112l-16 6q-149 -118 -257 -119h-190v225h167q193 -11 229 95v17l-157 955q30 129 84 129z" />
<glyph unicode="&#x645;" horiz-adv-x="826" arabic-form="isolated" d="M435 638q69 0 269 -224q62 -54 62 -112q-40 -151 -107 -151h-302q-174 -32 -174 -95l129 -868q-22 -156 -73 -156q-53 0 -78 274l-101 694q0 116 174 358v28q0 150 156 247z" />
<glyph unicode="&#x645;" horiz-adv-x="1140" arabic-form="final" d="M583 423q23 0 258 -157q150 -45 211 -42h108v-224h-95l-151 20q-63 0 -84 -190q-21 -112 -68 -112q-229 56 -229 229q-18 162 -56 162q-259 -21 -286 -95q-28 -57 -28 -134l107 -874q-17 -134 -68 -134h-11q-25 0 -61 375q-90 613 -90 706q0 188 213 330q313 80 313 134 l6 6h11z" />
<glyph unicode="&#x645;" horiz-adv-x="922" arabic-form="initial" d="M694 722q122 -155 163 -375l5 -39q-39 -202 -140 -202q-333 101 -358 101q-10 0 -157 -168q-26 -24 -57.5 -31.5t-149.5 -7.5v225h87l47 5q110 0 308 347q142 145 252 145zM526 414l34 -28h90v34q-26 78 -56 78q-68 -44 -68 -84z" />
<glyph unicode="&#x645;" horiz-adv-x="1121" arabic-form="medial" d="M610 566q41 0 202 -196q123 -140 248 -146h111v-224h-111q-100 0 -209 51q-70 -54 -195 -64q-178 46 -232.5 78t-138.5 -9q-82 -48 -229 -56h-56v224h112q116 0 307 224q41 52 91 84t100 34zM470 308q48 -56 117 -56h40q10 12 -19.5 55.5t-75.5 56.5h-11q-34 -18 -51 -56 z" />
<glyph unicode="&#x646;" horiz-adv-x="1066" arabic-form="isolated" d="M385 868q68 0 140 -90v-5q-25 -140 -129 -140q-70 0 -123 78q43 157 112 157zM760 594h11q97 0 219 -376l16 -173q0 -263 -414 -414l-129 -17q-262 0 -386 246l-17 101q0 141 151 325h17q34 -3 34 -17v-11l-73 -202v-6q0 -163 269 -218h89q125 0 308 118q23 38 23 61v28 q0 102 -168 359l-17 67q36 129 67 129z" />
<glyph unicode="&#x646;" horiz-adv-x="1287" arabic-form="final" d="M520 606h16q63 0 174 -95q-25 -151 -123 -151q-151 32 -151 106q0 65 84 140zM984 365q13 0 84 -95q60 -56 152 -46h117v-224h-53l-110 -9q-58 -376 -168 -426q-44 -55 -324 -151l-135 -23q-203 0 -375 146q-112 113 -112 224q94 403 207 403h17l17 -17v-22 q0 -65 -73 -146l-28 -100v-28q0 -152 325 -241h33q166 0 420 129q56 44 56 78v45q0 99 -117 335l-6 40q21 128 67 128h6z" />
<glyph unicode="&#x646;" horiz-adv-x="680" arabic-form="initial" d="M422 901l-140 -140l-140 140l140 140zM418 672q97 0 202 -336q-6 -197 -159 -257q-144 -74 -327 -79h-134v224q267 0 354.5 13.5t102.5 81.5q-5 50 -67 126t-62 109q40 118 90 118z" />
<glyph unicode="&#x646;" horiz-adv-x="890" arabic-form="medial" d="M472 468q25 0 39 -45q36 -129 119 -166.5t182 -32.5h118v-224h-95q-262 -3 -363 154q-136 -154 -416 -154h-56v224h126q238 3 273 154q31 90 73 90zM593 769l-140 -140l-140 140l140 140z" />
<glyph unicode="&#x647;" horiz-adv-x="674" arabic-form="isolated" d="M282 734h6q194 0 369 -339l12 -85q0 -125 -228 -302l-153 -24q-228 22 -228 202l117 351q0 173 56 173q0 15 49 24zM211 264q78 -51 125 -51h45q83 0 133 80v16q-105 154 -192 154h-29q-58 0 -82 -199z" />
<glyph unicode="&#x647;" horiz-adv-x="899" arabic-form="final" d="M519 901q60 0 129 -420q64 -186 119.5 -219t181.5 -33v-229h-88q-184 0 -308 218h-6q-147 -129 -246 -129h-28q-213 0 -213 107q0 173 325 369q84 35 84 213q0 106 50 123zM318 330v-11l11 -11h11q112 0 174 84v11l-23 28h-50q-48 0 -123 -101z" />
<glyph unicode="&#x647;" horiz-adv-x="1251" arabic-form="initial" d="M469 988h6q74 0 336 -168q380 -191 380 -448v-5q0 -237 -156 -308h-17l-381 89h-6q-333 -141 -456 -148h-175v224h161l108 -6q77 12 77 54v28q0 197 101 386q-28 69 -28 106v40q18 156 50 156zM486 468v-45q0 -16 101 -34h33q73 0 73 62q-49 129 -78 129h-28 q-101 -69 -101 -112zM839 524q-28 -72 -28 -135q40 -49 162 -89h56q34 22 39 39q0 84 -224 190z" />
<glyph unicode="&#x647;" horiz-adv-x="1086" arabic-form="medial" d="M694 826q101 0 152 -330q0 -97 -79 -208v-5q18 -34 154 -59h185v-224h-206l-54 8q50 -171 50 -201q-31 -274 -207 -274h-6q-105 0 -229 112l-146 252q0 26 -63.5 66.5t-244.5 35.5l1 228l66 -6h123q140 27 140 79q208 406 297 492l28 17zM504 356v-34q190 57 190 140v45 q0 31 -33 50h-11q-146 -168 -146 -201zM493 -64v-62q71 -106 173 -106h12q30 0 44 28v6q0 44 -123 123l-50 11h-56z" />
<glyph unicode="&#x648;" horiz-adv-x="1262" arabic-form="isolated" d="M906 703q183 0 291 -375l5 -56v-6q0 -368 -386 -621q-134 -73 -263 -73h-11l-6 -6l-6 6h-16q-143 0 -443 95l-11 39l6 6h274q367 0 666 369q68 102 68 129l-12 11q-96 -78 -140 -78q-169 0 -218 224q90 336 202 336zM872 423v-17l6 -28h39q46 0 61 62q0 39 -39 39h-45 q-15 0 -22 -56z" />
<glyph unicode="&#x648;" horiz-adv-x="1240" arabic-form="final" d="M816 484q118 0 183 -76t104 -184l187 -1v-223h-179q-40 -105 -148 -256q-188 -267 -489 -267h-33q-381 22 -381 101q0 28 34 28h263q218 0 515 268l39 56v17q-8 23 -39 23h-78q-202 41 -202 178q0 177 168 320zM743 227q38 -39 67 -39h34q17 16 -2 50t-25.5 36.5 t-31.5 2.5t-33.5 -8.5t-8.5 -41.5z" />
<glyph unicode="&#x649;" horiz-adv-x="1430" arabic-form="isolated" d="M1197 997q102 0 162 -135l11 -33q-11 -135 -72 -135l-124 84h-28q-98 0 -252 -207q-22 -38 -22 -67v-34q0 -151 319 -151q179 -24 179 -168q0 -286 -638 -492l-146 -17h-5q-363 0 -487 269q-23 67 -34 173q0 200 168 381l56 28l6 -6v-28q0 -43 -101 -280v-5 q0 -220 285 -291l112 -11h62q277 0 538 212v6q0 19 -62 28h-34l-100 -6q-269 43 -269 246v17q12 205 263 515q118 103 213 107z" />
<glyph unicode="&#x649;" horiz-adv-x="1544" arabic-form="final" d="M1197 400q31 0 213 -128q69 -40 193 -47h78l1 -225h-96q-214 3 -356 109q-78 67 -106 67q-61 -21 -129 -117v-39q0 -57 342 -73q129 -14 129 -129q0 -226 -549 -448q-148 -56 -280 -56h-67q-359 0 -488 264q-22 95 -22 145q0 269 258 498h11q33 -11 33 -45 q-140 -335 -140 -358v-11q0 -102 152 -218q93 -62 252 -62h5q275 0 560 163q28 24 28 44l-297 62q-117 57 -117 134q0 115 229 381q91 89 163 89z" />
<glyph unicode="&#x64a;" horiz-adv-x="1430" arabic-form="isolated" d="M1197 997q102 0 162 -135l11 -33q-11 -135 -72 -135l-124 84h-28q-98 0 -252 -207q-22 -38 -22 -67v-34q0 -151 319 -151q179 -24 179 -168q0 -286 -638 -492l-146 -17h-5q-363 0 -487 269q-23 67 -34 173q0 200 168 381l56 28l6 -6v-28q0 -43 -101 -280v-5 q0 -220 285 -291l112 -11h62q277 0 538 212v6q0 19 -62 28h-34l-100 -6q-269 43 -269 246v17q12 205 263 515q118 103 213 107z" />
<glyph unicode="&#x64a;" horiz-adv-x="1544" arabic-form="final" d="M1197 400q31 0 213 -128q69 -40 193 -47h78l1 -225h-96q-214 3 -356 109q-78 67 -106 67q-61 -21 -129 -117v-39q0 -57 342 -73q129 -14 129 -129q0 -226 -549 -448q-148 -56 -280 -56h-67q-359 0 -488 264q-22 95 -22 145q0 269 258 498h11q33 -11 33 -45 q-140 -335 -140 -358v-11q0 -102 152 -218q93 -62 252 -62h5q275 0 560 163q28 24 28 44l-297 62q-117 57 -117 134q0 115 229 381q91 89 163 89z" />
<glyph unicode="&#x64a;" horiz-adv-x="774" arabic-form="initial" d="M418 672q97 0 202 -336q-6 -197 -159 -257q-144 -74 -327 -79h-134v224q267 0 354.5 13.5t102.5 81.5q-5 50 -67 126t-62 109q40 118 90 118zM272 -209l-105 -162l-164 113l107 158zM564 -159l-105 -162l-164 113l107 158z" />
<glyph unicode="&#x64a;" horiz-adv-x="890" arabic-form="medial" d="M393 -253l-105 -162l-164 113l107 158zM685 -203l-105 -162l-164 113l107 158zM472 468q25 0 39 -45q36 -129 119 -166.5t182 -32.5h118v-224h-95q-262 -3 -363 154q-136 -154 -416 -154h-56v224h126q238 3 273 154q31 90 73 90z" />
<glyph horiz-adv-x="80" />
<glyph horiz-adv-x="80" />
<glyph unicode=" "  horiz-adv-x="300" />
<glyph unicode="&#x09;" horiz-adv-x="300" />
<glyph unicode="&#xa0;" horiz-adv-x="300" />
<glyph unicode="0" horiz-adv-x="486" d="M79 492q7 9 24 30.5t36.5 45t37.5 44.5t26 29q10 13 18 12.5t15 -7.5q48 -40 95 -76.5t78 -68.5q7 -7 5.5 -12.5t-7.5 -13.5q-29 -42 -60 -79.5t-61 -77.5q-14 -23 -35 -10q-17 10 -42.5 29.5t-51 41.5t-47.5 43.5t-32 35.5q-8 10 -6.5 16.5t7.5 17.5z" />
<glyph unicode="1" horiz-adv-x="301" d="M50 769q0 3 2.5 19.5t6.5 38t9.5 46t12.5 44.5t14 32t14 10q11 -2 26.5 -34.5t33 -87t35 -125.5t31.5 -148q9 -60 12.5 -129.5t1.5 -139.5t-11 -134t-24 -112q-2 -10 -6 -16.5t-10 -3.5q-6 8 -7 20.5t-1 17.5q-3 45 -3 87.5t-4 90.5q-3 23 -7 55t-9.5 69.5t-13.5 78 t-18 81.5q-19 64 -41.5 121.5t-43.5 118.5z" />
<glyph unicode="2" horiz-adv-x="585" d="M234 70q-3 -14 -8.5 -29t-11 -21.5t-9 -1.5t-3.5 33q-2 115 -14.5 223.5t-36.5 221.5q-1 5 -4.5 18.5t-7.5 29t-8 28.5t-6 18q-8 29 -19 59t-21.5 57t-19 48.5t-13.5 32.5q-2 10 -2 16q0 10 1 11q11 39 19.5 77t18.5 78q3 13 9.5 21t13.5 8q5 -1 8 -4.5t6.5 -9t8.5 -14.5 t16 -22q15 -22 32 -35t38 -20.5t46 -11.5t57 -6q44 3 73.5 12.5t51 25.5t37.5 38t32 51q9 5 13 1t4 -13q0 -6 -2.5 -18.5t-6.5 -31.5q-4 -14 -8.5 -27.5t-7.5 -23.5t-5 -15.5t-2 -2.5q-39 -100 -104 -150.5t-168 -55.5q7 -48 13.5 -87.5t10 -77.5t5 -79t0.5 -93 q-1 -36 -1.5 -67.5t-2.5 -61.5t-7 -61.5t-15 -67.5z" />
<glyph unicode="3" horiz-adv-x="944" d="M230 -10q-4 -10 -7.5 -16t-6.5 -4q-4 1 -3 8q3 105 -2.5 212t-23.5 213t-50.5 208t-83.5 195q-3 17 -0.5 39t8.5 45.5t13.5 46l13.5 40.5q5 17 10.5 32t13 20t17 -0.5t23.5 -29.5q17 -28 32.5 -59.5t35 -57.5t46 -42.5t65.5 -16.5q24 0 48.5 8t47 21t41.5 29.5t31 34.5 q17 23 26 40.5t15.5 30.5t11.5 20.5t14 7.5q6 0 8.5 -8t5 -19t5 -21.5t7.5 -17.5q23 -29 48 -41.5t59 -12.5q49 0 79 13.5t55 44.5q1 2 10 15.5t16 26.5q7 12 13 22t10.5 15.5t7.5 3.5t3 -15q-2 -33 -11.5 -63.5t-19.5 -61.5q-21 -47 -50 -94.5t-77 -88.5q-50 -37 -117 -42 q-46 -1 -84 21.5t-57 60.5q-1 1 -4 1t-4 -1q-19 -31 -38 -56t-41.5 -43.5t-49 -32t-60.5 -23.5q-5 -1 -5.5 -6t0.5 -6q5 -55 12.5 -111t5.5 -113q-3 -69 -7.5 -114t-10.5 -80t-14.5 -68t-19.5 -76q-1 0 -2.5 -5t-4 -11t-3.5 -11.5t-1 -6.5z" />
<glyph unicode="4" horiz-adv-x="853" d="M100 -41q2 139 -13.5 270.5t-36.5 264.5q1 -2 0.5 19t0.5 56.5t5.5 81.5t13.5 94.5t26 96t43.5 84t64 59t90.5 22.5q45 0 83 -20t71 -51t58.5 -69t43.5 -73l218 256q4 4 13 9.5t20 1.5q2 -3 0.5 -10t-11.5 -29.5t-31 -66t-58 -120.5q-32 -38 -65 -77.5t-63.5 -81.5 t-56.5 -86.5t-44 -91.5q-5 -10 -12 -15.5t-12 3.5q0 39 -1.5 64.5t-3 40.5t-4 22.5t-3.5 11.5q-19 45 -54 82t-77.5 56t-89.5 15.5t-88 -39.5q-2 -6 -1.5 -19.5t2.5 -23.5q24 -119 35.5 -232t11.5 -233q-2 -34 -5.5 -65t-8.5 -61t-11.5 -61t-15.5 -64q-1 -4 -3 -10.5 t-4.5 -13t-6.5 -12t-9 -5.5q-7 0 -9 9t-2 11z" />
<glyph unicode="5" horiz-adv-x="872" d="M172 365q0 -28 6.5 -55.5t20 -49t36 -34.5t56.5 -13q27 0 49 9t39.5 23.5t31 32.5t23.5 37q10 16 15.5 29.5t11 24t11 17.5t15.5 10q6 0 6 -6q1 -22 3.5 -47.5t14 -47t37 -36.5t73.5 -17q8 0 25.5 3t36 8.5t32 14t13.5 18.5q0 25 -14.5 59t-34.5 68t-40.5 64t-31.5 46 q-11 13 -32.5 40.5t-49.5 60.5t-59.5 69t-61.5 67q-3 2 -4 3.5t-5 -1t-12 -12.5t-23 -32t-39.5 -58.5t-60.5 -93.5q-14 -19 -29 -44t-28 -52t-22 -54.5t-9 -50.5zM50 177q1 46 14.5 96t34 97.5t43.5 92t43 79.5q7 13 23.5 39.5t41 62t54.5 78t64 86.5q7 47 15.5 97.5 t20.5 96.5q5 15 12 19t16.5 -2t24 -21.5t36.5 -37.5q20 -22 47 -55.5t58 -74t65 -87.5t69 -96q17 -29 33.5 -59.5t29.5 -62.5t20 -66.5t6 -68.5q-7 -31 -11.5 -50.5t-9 -38.5t-11 -44t-18.5 -66q-10 -37 -31 -70t-49.5 -58t-62.5 -40t-71 -15q-35 0 -69 17.5t-57 45.5 q-2 4 -6 10.5t-9 13.5t-9.5 13t-6.5 8q-15 -23 -34 -45.5t-40.5 -40.5t-47 -29.5t-55.5 -11.5q-36 0 -68 15.5t-55 41.5t-36.5 60t-13.5 71z" />
<glyph unicode="6" horiz-adv-x="591" d="M399 118q0 41 1 90t3 101t3 105t1 101q0 34 -0.5 62t-2.5 52q-1 3 -3 0q-34 -20 -72.5 -29t-77 -8t-74.5 13.5t-64 35.5t-45 57t-18 79q0 48 13 92.5t28 89.5q2 4 4.5 11.5t9.5 7.5q6 0 8.5 -6.5t5 -18.5t8 -30t18.5 -41q31 -40 77 -60.5t95 -20.5q44 0 74.5 14.5 t53 38.5t40.5 56t36 68q11 15 15.5 15t4.5 -26q-2 -17 -3.5 -29t-3.5 -25.5t-4 -31.5t-5 -46q-6 -139 -11.5 -237t-10 -164t-8 -105.5t-6 -61t-4.5 -30t-4 -12.5q-5 -17 -21.5 -67t-41.5 -128l-3.5 -10.5t-6 -16t-9.5 -15.5t-14 -9q-2 15 3.5 47.5t10.5 91.5z" />
<glyph unicode="7" horiz-adv-x="737" d="M53 340q2 13 14 38t27.5 52.5t30 52.5t23.5 38q2 5 6.5 11t8.5 11.5t7.5 10t3.5 5.5l161 161q74 68 133.5 124.5t103.5 100.5q11 7 16 4t5 -4q1 -5 -5 -21t-16 -32q-11 -18 -19 -31.5t-17 -29.5q-14 -23 -26.5 -42t-17.5 -21l-276 -265q-4 -1 -2.5 -4l2.5 -5 q9 -7 30.5 -21.5t45 -29.5t43.5 -26.5t25 -13.5q24 -16 61.5 -36t79 -40.5t80 -38.5t63.5 -29l11 -5.5t14 -8.5t12.5 -11t5.5 -13q0 -1 -3.5 -6t-15 -22.5t-34 -49.5t-59.5 -88q-6 -8 -37 -1t-89 34.5t-143.5 76t-199.5 121.5q-7 4 -17 10.5t-19 14.5t-14.5 15.5t-2.5 13.5z " />
<glyph unicode="8" horiz-adv-x="835" d="M683 20q-1 -4 -4 -3.5t-3 3.5q-6 18 -11.5 36t-12.5 37q-61 157 -125.5 306t-130.5 300q-59 -128 -115.5 -250.5t-115.5 -250.5q-3 -9 -13.5 -23.5t-25 -30.5t-30.5 -32.5t-30 -30.5q-4 -2 -8 -5t-5 1q-3 2 0.5 16t9 30.5t12.5 32t10 20.5q16 35 36 79t41.5 90t42.5 91 t39 80q31 61 62.5 127t59 124t47.5 99.5t28 54.5q2 4 6 11.5t9.5 15t12 12.5t13.5 5t9 -3.5t5 -10.5q25 -75 57.5 -154.5t68.5 -161.5t73.5 -164.5t73.5 -164.5q8 -20 12 -44t3 -45q-25 -50 -50 -98.5t-51 -98.5z" />
<glyph unicode="9" horiz-adv-x="558" d="M161 725q23 -40 66.5 -58.5t95.5 -19.5q23 -1 49 0t49 11q-4 33 -14.5 61.5t-27 49.5t-39.5 32.5t-51 11.5q-14 0 -35 -6t-40.5 -17t-34 -27t-18.5 -37v-1zM463 208q-9 -28 -20 -62t-23 -68.5t-24 -65.5t-22 -52q-1 -1 -3 -1q-2 2 -2.5 8t-0.5 21t2 40.5t5 67t8.5 101 t12.5 141.5v130q0 2 -2.5 1.5t-4.5 -1.5q-34 -9 -66 -17t-67 -8q-38 0 -75 11.5t-66 32.5t-47 53t-18 73q0 26 6 55t15.5 58.5t21 58.5t22.5 54q14 35 35 69.5t49 62t62 44.5t74 17q39 0 71 -19.5t54.5 -51t35 -69.5t12.5 -74v-176q-10 -135 -22 -240t-23 -194z" />
<glyph unicode="&#x36d;" horiz-adv-x="791" d="M751 2955q-14 -147 -70 -181l-491 -280q1 63 7.5 87t18.5 41.5t31 32t51 31.5zM601 2597q-14 -147 -70 -181l-491 -280q1 63 7.5 87t18.5 41.5t31 32t51 31.5z" />
<glyph unicode="&#x36e;" horiz-adv-x="1080" d="M912 2801q67 -25 79 -129q2 -75 -26 -173q73 -82 73 -107q0 -95 -56 -95h-5q-16 0 -84 50q-275 -256 -440 -285h-11l-17 17v11q0 35 157 145q207 171 207 185q-55 31 -84 90l-6 50q0 130 163 235zM863 2564q28 58 17 84.5t-32 15.5t-24 -48q-6 -52 39 -52zM527 2800 q67 -25 79 -129q2 -75 -26 -173q73 -82 73 -107q0 -95 -56 -95h-5q-16 0 -84 50q-275 -256 -440 -285h-11l-17 17v11q0 35 157 145q207 171 207 185q-55 31 -84 90l-6 50q0 130 163 235zM478 2563q28 58 17 84.5t-32 15.5t-24 -48q-6 -52 39 -52z" />
<glyph unicode="&#x36f;" horiz-adv-x="791" d="M751 772q-14 -147 -70 -181l-491 -280q1 63 7.5 87t18.5 41.5t31 32t51 31.5zM601 414q-14 -147 -70 -181l-491 -280q1 63 7.5 87t18.5 41.5t31 32t51 31.5z" />
<glyph unicode="&#x603;" d="M806 1654q-20 0 -42 -9.5t-41.5 -25t-36.5 -33.5t-24 -35q60 1 123.5 -0.5t122.5 22.5q-14 31 -40 56t-62 25zM-10 1504q60 2 124 2q63 0 125 3.5t120.5 16t111.5 42.5q11 5 19.5 15t15.5 19.5t13.5 17.5t14.5 8q3 0 11.5 -10t19.5 -23t25 -23t31 -10h9q2 4 10 14.5 t16 21.5t16.5 21t12.5 14q12 14 29.5 33.5t37 35.5t42 28t43.5 12q28 0 55 -12.5t46.5 -35t30 -49.5t4.5 -55q-12 -28 -21 -48t-20.5 -33.5t-24.5 -21t-37 -13.5q-69 -14 -120 -16.5t-120 1.5q-42 5 -78 27.5t-53 64.5q-36 -71 -94.5 -90t-134.5 -19q-71 0 -143.5 12.5 t-136.5 49.5z" />
<glyph unicode="&#x60c;" horiz-adv-x="423" d="M383 214q-25 -113 -38 -134q-36 -80 -115 -80q-75 0 -137 59q-53 60 -53 155q0 42 101 277q116 273 197 273l-28 -106q-141 -276 -143 -295q0 -44 61 -96l65 -32z" />
<glyph unicode="&#x610;" d="M91 1433q13 22 23 58.5t15.5 75.5t8.5 78t13 43.5t79.5 2.5t134.5 7.5t116 28t62 38.5q14 7 23.5 22t17 32.5t9.5 35.5t2 29q-2 60 -48.5 103.5t-105.5 43.5q-43 0 -76 -24.5t-51 -48t-33 -50t-27 -58.5q-14 -41 -74 -26.5t-83 39.5t-41.5 51t-20.5 39q-11 15 -14 6.5 t-5 -13.5q-5 -8 -11.5 -38.5t-8.5 -39.5q-2 -12 0 -16.5t7 -15.5q6 -17 18 -48.5t14 -35.5q13 -44 18.5 -87t5.5 -87q0 -6 -1 -25.5t-1 -41.5t-1 -41.5t-1 -23.5v-13q0 -4 36 0zM343.5 1868q13.5 29 38 44t43 9.5t36 -17.5t21 -23.5t4 -24.5t-21 -23t-66 -16.5t-53 -1.5 t-12 14.5t10 38.5z" />
<glyph unicode="&#x611;" d="M6 1562q11 -45 39.5 -70.5t70.5 -39t89.5 -16.5t84.5 -3q61 0 138 6t148.5 26.5t115.5 41t134 99.5l-19 13l-87 -22q-204 -62 -323.5 -65t-104.5 1q15 65 11.5 94t-19 58.5t-45.5 47.5t-64 20t-81 -23t-64.5 -65.5t-20.5 -59t-3 -43.5zM100 1630l22.5 22.5t26.5 8.5 t40 -11.5t31 -37t-21 -62.5q-30 -6 -49.5 -3t-31 14t-17.5 30.5t-1 38.5z" />
<glyph unicode="&#x612;" d="M1571 1988q40 -63 46 -84q-29 -18 -29 -39v-13l32 -243v-4q0 -172 -124 -172h-49q-29 0 -56 36q-28 -36 -75 -36h-383l-30 -45q-21 8 -23 16l7 29h-7q-45 0 -72 36q-35 -36 -69 -36h-39q-92 0 -131 26q-56 -22 -226 -42q-193 0 -242 23q-92 44 -92 117v9q0 65 56 120h3 l23 -19q-26 -48 -26 -68v-10q0 -66 177 -75l78 -6l82 3l49 -3l30 3l-7 33q46 168 105 168q55 0 75 -103v-7q0 -30 -16 -78h3l13 -3h89q29 0 85 68q25 0 29 -49q10 -19 27 -19h42q148 178 242 178h17q59 0 72 -87q0 -61 -53 -91v-3l56 3h62q35 0 92 68q22 0 33 -65l16 -3h43 q44 0 62 29v3l-46 338v6q0 71 49 91zM1699 1920q26 0 26 -13q0 -55 33 -341q-14 -116 -36 -133q-30 6 -30 13l7 65l-33 295v13q0 40 33 101zM507 1874l65 -48q-32 -66 -42 -72l-69 46q32 65 46 74zM1378 1754l69 -42q0 -19 -46 -74h-3q-62 38 -63 48q34 65 43 68zM533 1583 v-7q15 -23 33 -23q26 14 36 30q0 16 -26 42q-12 0 -43 -42zM988 1521h4q86 0 199 58v4q-24 19 -49 19h-13q-71 0 -141 -81z" />
<glyph unicode="&#x613;" d="M687 2242q33 -96 33 -267q-16 -44 -33 -44q-27 0 -45 244v11zM1254 2153q55 -67 55 -100q-33 -11 -33 -67l44 -300q-24 -233 -144 -233q-71 0 -134 67h-11q0 -58 -100 -78q-133 15 -133 100h-22q0 -44 -78 -100q-46 0 -122 78q-85 -78 -167 -78h-78q-101 0 -144 144 l-78 -33q-100 11 -100 45v11q0 86 144 189q16 77 45 77q55 -333 122 -333h111q58 0 167 111h22q14 -89 45 -89q100 20 100 156l-23 344q15 67 34 67q42 0 66 -522l56 -67h33q52 0 134 111h22q5 -100 89 -100h11q44 17 67 78l-45 433v11q0 60 45 78zM1431 2075l56 -444 q-22 -145 -56 -145h-11v34q0 144 -44 422q28 133 55 133zM142 2009h34l55 -34q0 -60 -55 -89l-56 34q-17 -45 -33 -45h-11l-67 56l33 67l89 -23zM542 1975q67 -27 67 -66q-15 -46 -55 -67q-56 40 -56 67q26 66 44 66zM1009 1975q67 -27 67 -66q-15 -46 -56 -67 q-55 40 -55 67q26 66 44 66zM609 1864h22l56 -55q-15 -46 -56 -67l-55 33q-17 -44 -34 -44h-11l-55 44v23l44 55l67 -22q0 33 22 33zM1076 1864h22q56 -26 56 -55q-26 -67 -45 -67h-11l-56 33q-21 -50 -44 -55l-56 55v23l45 55h11l33 -22h23q0 33 22 33zM98 1664h78v34 l-11 11v11q-46 -15 -67 -56z" />
<glyph unicode="&#x614;" d="M299 1450q-36 0 -79 4t-84 11.5t-75 18t-57 25.5q85 11 178 14t180 16t162.5 45.5t126.5 104.5q12 -37 23.5 -57.5t27.5 -31t42.5 -12t71.5 -1.5q0 17 -11 38t-11 37q4 10 12 39t24 49q9 -2 17 -18.5t14 -38t9 -42.5t1 -29q-10 -32 -15 -55t-15 -45q-11 -25 -37.5 -33 t-64.5 -8q-53 0 -79 30.5t-46 72.5q-59 -75 -140.5 -104.5t-174.5 -29.5z" />
<glyph unicode="&#x615;" d="M335 2231q28 0 28 -42q59 -42 59 -62l-20 -64v-31q73 -274 73 -308l7 -22q0 -14 16 -17q194 84 269 84q61 0 137 -48q19 -21 26.5 -32.5t10 -48.5t-15.5 -61t-113 -80l-86 -22q-80 -33 -351 -33h-118q-61 0 -235 70l-24 25q15 23 39 23q123 -25 149 -25h20q125 0 184 89 l4 14v6q0 31 -110 437q-23 30 -23 53q35 95 74 95zM429 1548l24 -6h20q163 0 309 62q36 19 29 33q-42 31 -79 31h-28q-74 0 -275 -117v-3z" />
<glyph unicode="&#x61b;" horiz-adv-x="413" d="M326 658q0 -67 -42 -129q-33 -40 -84 -40q-84 0 -124 44q-36 48 -36 125q0 85 140 319q77 128 111 128l-54 -142q-67 -148 -81 -190q0 -27 59 -77q63 -38 111 -38zM373 155l-120 -155l-213 153l119 165z" />
<glyph unicode="&#x61f;" horiz-adv-x="776" d="M736 1093v-50q0 -14 -3 -22l-14 -73q-13 -86 -49 -144l-14 68q-4 35 -24 60q-42 59 -183 124q-84 32 -177 51q-22 0 -56 -75l-18 -63l-5 -48q12 -38 72 -68l48 -21l35 -7l92 -37l63 -29q80 -38 118 -80q39 -39 39 -83q0 -81 -35 -184q-39 -132 -59 -167l87 -73l-173 -221 q-5 10 -88 75t-135 96l157 224l80 -65q21 16 37 51l13 31l11 36q0 25 -52 69q-63 46 -158 72q-152 37 -192 55q-113 42 -113 108q0 173 96.5 420.5t173.5 247.5q63 0 235 -93q191 -102 191 -185z" />
<glyph unicode="&#x621;" horiz-adv-x="842" d="M462 605q112 0 112 -112q-13 -101 -96 -101l-95 62h-28q-38 0 -89 -73q61 -90 173 -90l235 39q68 -9 68 -28v-16q0 -97 -202 -118q-69 0 -286 -146l-56 -22l-11 34v5l45 90l-106 117l-6 34q0 157 291 314q51 4 51 11z" />
<glyph unicode="&#x622;" horiz-adv-x="806" d="M396 1307q61 0 73 -157q123 -875 123 -935q-19 -202 -61 -202h-6q-39 0 -39 123l-168 997q36 174 78 174zM880 1840q-23 -61 -73 -124q-112 -147 -439 -181q-94 -8 -219 -1q-9 -139 -60 -139q-54 0 -64 47q-30 162 -128 296q-7 10 -7 24q0 15 28 77q15 31 32 34 q230 -191 472 -158q231 9 412 161q35 36 46 -36z" />
<glyph unicode="&#x623;" horiz-adv-x="605" d="M345 1708q91 0 91 -91q-12 -80 -77 -80l-76 48h-23q-33 0 -73 -58q49 -72 140 -72l189 32q54 -8 54 -23v-14q0 -78 -162 -94q-55 0 -230 -117l-45 -20l-8 28v4l35 73l-85 95l-5 28q0 125 234 251q41 3 41 10zM256 1294q61 0 73 -157q123 -875 123 -935q-19 -202 -61 -202 h-6q-39 0 -39 123l-168 997q36 174 78 174z" />
<glyph unicode="&#x624;" horiz-adv-x="1222" d="M961 1192q91 0 91 -91q-12 -80 -77 -80l-76 48h-23q-33 0 -73 -58q49 -72 140 -72l189 32q54 -8 54 -23v-14q0 -78 -162 -94q-55 0 -230 -117l-45 -20l-8 28v4l35 73l-85 95l-5 28q0 125 234 251q41 3 41 10zM886 703q183 0 291 -375l5 -56v-6q0 -368 -386 -621 q-134 -73 -263 -73h-11l-6 -6l-6 6h-16q-143 0 -443 95l-11 39l6 6h274q367 0 666 369q68 102 68 129l-12 11q-96 -78 -140 -78q-169 0 -218 224q90 336 202 336zM852 423v-17l6 -28h39q46 0 61 62q0 39 -39 39h-45q-15 0 -22 -56z" />
<glyph unicode="&#x625;" horiz-adv-x="650" d="M355 -93q91 0 91 -91q-12 -80 -77 -80l-76 48h-23q-33 0 -73 -58q49 -72 140 -72l189 32q54 -8 54 -23v-14q0 -78 -162 -94q-55 0 -230 -117l-45 -20l-8 28v4l35 73l-85 95l-5 28q0 125 234 251q41 3 41 10zM132 1523h16q49 0 76 -224l154 -952l11 -179v-17 q0 -110 -61 -151h-12q-50 0 -78 280l-168 1070q32 173 62 173z" />
<glyph unicode="&#x626;" horiz-adv-x="1390" d="M1177 957q102 0 162 -135l11 -33q-11 -135 -72 -135l-124 84h-28q-98 0 -252 -207q-22 -38 -22 -67v-34q0 -151 319 -151q179 -24 179 -168q0 -286 -638 -492l-146 -17h-5q-363 0 -487 269q-23 67 -34 173q0 200 168 381l56 28l6 -6v-28q0 -43 -101 -280v-5 q0 -220 285 -291l112 -11h62q277 0 538 212v6q0 19 -62 28h-34l-100 -6q-269 43 -269 246v17q12 205 263 515q118 103 213 107zM435 972q91 0 91 -91q-12 -80 -77 -80l-76 48h-23q-33 0 -73 -58q49 -72 140 -72l189 32q54 -8 54 -23v-14q0 -78 -162 -94q-55 0 -230 -117 l-45 -20l-8 28v4l35 73l-85 95l-5 28q0 125 234 251q41 3 41 10z" />
<glyph unicode="&#x627;" horiz-adv-x="569" d="M222 1523h16q49 0 76 -224l154 -952l11 -179v-17q0 -110 -61 -151h-12q-50 0 -78 280l-168 1070q32 173 62 173z" />
<glyph unicode="&#x628;" horiz-adv-x="1866" d="M1647 703q56 0 140 -140q39 -77 39 -135v-5q0 -230 -112 -286q-371 -179 -1080 -179q-439 0 -572 263q-22 69 -22 112q0 125 157 336q24 23 61 23q19 0 34 -45l-90 -252v-11q0 -138 420 -196l84 -6q969 59 969 185v5q0 24 -117 163l-12 33q33 135 101 135zM1067 -340 l-140 -140l-140 140l140 140z" />
<glyph unicode="&#x62a;" horiz-adv-x="1866" d="M1647 703q56 0 140 -140q39 -77 39 -135v-5q0 -230 -112 -286q-371 -179 -1080 -179q-439 0 -572 263q-22 69 -22 112q0 125 157 336q24 23 61 23q19 0 34 -45l-90 -252v-11q0 -138 420 -196l84 -6q969 59 969 185v5q0 24 -117 163l-12 33q33 135 101 135zM959 906 l-105 -162l-164 113l107 158zM1251 956l-105 -162l-164 113l107 158z" />
<glyph unicode="&#x62b;" horiz-adv-x="1866" d="M1647 703q56 0 140 -140q39 -77 39 -135v-5q0 -230 -112 -286q-371 -179 -1080 -179q-439 0 -572 263q-22 69 -22 112q0 125 157 336q24 23 61 23q19 0 34 -45l-90 -252v-11q0 -138 420 -196l84 -6q969 59 969 185v5q0 24 -117 163l-12 33q33 135 101 135zM865 854 l-105 -162l-164 113l107 158zM1157 904l-105 -162l-164 113l107 158zM958 1184l-105 -162l-164 113l107 158z" />
<glyph unicode="&#x62c;" horiz-adv-x="1300" d="M469 608l726 25q37 1 38 -36l1 -20q4 -134 -139 -189q-104 -3 -463 -169q-367 -193 -459 -757l-65 -7q-16 514 304 846v12q-1 20 -61 18q-103 -4 -240 -182l-25 -6q-26 -1 -43 55q-3 92 188 345q61 59 238 65zM856 -143l-140 -140l-140 140l140 140z" />
<glyph unicode="&#x62d;" horiz-adv-x="1300" d="M469 608l726 25q37 1 38 -36l1 -20q4 -134 -139 -189q-104 -3 -463 -169q-367 -193 -459 -757l-65 -7q-16 514 304 846v12q-1 20 -61 18q-103 -4 -240 -182l-25 -6q-26 -1 -43 55q-3 92 188 345q61 59 238 65z" />
<glyph unicode="&#x62e;" horiz-adv-x="1300" d="M689 907l-140 -140l-140 140l140 140zM469 608l726 25q37 1 38 -36l1 -20q4 -134 -139 -189q-104 -3 -463 -169q-367 -193 -459 -757l-65 -7q-16 514 304 846v12q-1 20 -61 18q-103 -4 -240 -182l-25 -6q-26 -1 -43 55q-3 92 188 345q61 59 238 65z" />
<glyph unicode="&#x62f;" horiz-adv-x="701" d="M264 815h6q269 -24 363 -392l11 -99q-5 -208 -68 -250q-70 -48 -369 -74h-61q-106 0 -106 118v11q11 112 67 112q25 -11 73 -11h39q93 0 184 24.5t91 43.5q-30 222 -247 298q-73 9 -73 101q23 118 90 118z" />
<glyph unicode="&#x630;" horiz-adv-x="734" d="M284 815h6q269 -24 363 -392l11 -99q-5 -208 -68 -250q-70 -48 -369 -74h-61q-106 0 -106 118v11q11 112 67 112q25 -11 73 -11h39q93 0 184 24.5t91 43.5q-30 222 -247 298q-73 9 -73 101q23 118 90 118zM354 1075l-140 -140l-140 140l140 140z" />
<glyph unicode="&#x631;" horiz-adv-x="1082" d="M813 566q161 0 229 -392v-6q0 -187 -212 -459q-97 -129 -398 -129q-370 35 -370 84l-22 23q0 39 50 39l286 -17q239 0 504 336q34 71 34 140q0 50 -146 185q-17 21 -17 50v17q6 129 62 129z" />
<glyph unicode="&#x632;" horiz-adv-x="1082" d="M813 566q161 0 229 -392v-6q0 -187 -212 -459q-97 -129 -398 -129q-370 35 -370 84l-22 23q0 39 50 39l286 -17q239 0 504 336q34 71 34 140q0 50 -146 185q-17 21 -17 50v17q6 129 62 129zM841 876l-140 -140l-140 140l140 140z" />
<glyph unicode="&#x633;" horiz-adv-x="1917" d="M1770 633q55 0 107 -241q-69 -297 -202 -297l-190 62h-6q-162 -76 -291 -118q-45 -31 -45 -195q-40 -157 -129 -213q-240 -191 -560 -191q-193 0 -347 191q-67 131 -67 190v39q0 146 134 342l40 33h5q34 -24 34 -45l-62 -234v-45q0 -150 252 -219q35 -11 107 -11 q260 0 459 163q22 43 22 67v45q0 93 -134 324l-6 39q0 49 62 129q18 0 145 -146q33 -22 84 -22q159 0 230 101q41 185 84 185h6q61 -47 61 -96l-5 -61q63 -73 117 -73h17q29 14 34 34l-28 106q22 157 72 157z" />
<glyph unicode="&#x634;" horiz-adv-x="1917" d="M1303 786l-105 -162l-164 113l107 158zM1595 836l-105 -162l-164 113l107 158zM1396 1116l-105 -162l-164 113l107 158zM1770 633q55 0 107 -241q-69 -297 -202 -297l-190 62h-6q-162 -76 -291 -118q-45 -31 -45 -195q-40 -157 -129 -213q-240 -191 -560 -191 q-193 0 -347 191q-67 131 -67 190v39q0 146 134 342l40 33h5q34 -24 34 -45l-62 -234v-45q0 -150 252 -219q35 -11 107 -11q260 0 459 163q22 43 22 67v45q0 93 -134 324l-6 39q0 49 62 129q18 0 145 -146q33 -22 84 -22q159 0 230 101q41 185 84 185h6q61 -47 61 -96 l-5 -61q63 -73 117 -73h17q29 14 34 34l-28 106q22 157 72 157z" />
<glyph unicode="&#x635;" horiz-adv-x="1911" d="M1580 679q140 0 274 -134l17 -68q-8 -112 -157 -291q-238 -140 -414 -140l-174 11h-16q-73 0 -73 -122q-25 -150 -95 -224q-126 -129 -420 -191l-90 -11q-216 0 -370 207q-22 72 -22 107q0 142 140 330l39 33h11l12 -11v-34q0 -21 -79 -167v-62q0 -141 269 -196l45 -5 q234 0 437 151l11 39v117l-107 230l-5 17q29 128 73 128q30 0 100 -106l34 -11h6q470 397 509 397zM1227 259v-11h179q100 0 280 117l23 34q-108 78 -191 78h-22q-90 0 -269 -218z" />
<glyph unicode="&#x636;" horiz-adv-x="1911" d="M1580 679q140 0 274 -134l17 -68q-8 -112 -157 -291q-238 -140 -414 -140l-174 11h-16q-73 0 -73 -122q-25 -150 -95 -224q-126 -129 -420 -191l-90 -11q-216 0 -370 207q-22 72 -22 107q0 142 140 330l39 33h11l12 -11v-34q0 -21 -79 -167v-62q0 -141 269 -196l45 -5 q234 0 437 151l11 39v117l-107 230l-5 17q29 128 73 128q30 0 100 -106l34 -11h6q470 397 509 397zM1227 259v-11h179q100 0 280 117l23 34q-108 78 -191 78h-22q-90 0 -269 -218zM1366 769l-140 -140l-140 140l140 140z" />
<glyph unicode="&#x637;" horiz-adv-x="1490" d="M542 1574q39 0 39 -84q84 -84 84 -124l-28 -128v-62q105 -549 105 -616l10 -45q0 -28 22 -33q278 168 384 168q87 0 196 -96q28 -42 38.5 -65.5t14 -97.5t-22.5 -122t-161 -159l-123 -45q-114 -65 -502 -65h-168q-87 0 -336 140l-34 50q21 45 56 45q175 -50 213 -50h28 q179 0 263 179l6 28v11q0 62 -157 874q-34 61 -34 106q51 191 107 191zM676 207l34 -11h28q234 0 442 123q51 38 41 67q-59 62 -113 62h-40q-105 0 -392 -235v-6z" />
<glyph unicode="&#x638;" horiz-adv-x="1323" d="M522 1574q39 0 39 -84q84 -84 84 -124l-28 -128v-62q105 -549 105 -616l10 -45q0 -28 22 -33q278 168 384 168q87 0 196 -96q28 -42 38.5 -65.5t14 -97.5t-22.5 -122t-161 -159l-123 -45q-114 -65 -502 -65h-168q-87 0 -336 140l-34 50q21 45 56 45q175 -50 213 -50h28 q179 0 263 179l6 28v11q0 62 -157 874q-34 61 -34 106q51 191 107 191zM656 207l34 -11h28q234 0 442 123q51 38 41 67q-59 62 -113 62h-40q-105 0 -392 -235v-6zM1041 910l-140 -140l-140 140l140 140z" />
<glyph unicode="&#x639;" horiz-adv-x="1190" d="M486 1035q147 0 332 -132l7 -23q0 -20 -39 -45l-204 22q-187 0 -344 -137l-14 -34v-46q0 -120 294 -161h39q130 0 383 189q69 46 114 46h31q46 0 46 -46q0 -124 -409 -348q-253 -184 -287 -281q-127 -181 -184 -484l-83 -56q0 335 191 735v12q-319 124 -319 325v23 q0 199 274 395q110 46 172 46z" />
<glyph unicode="&#x63a;" horiz-adv-x="1190" d="M486 1035q147 0 332 -132l7 -23q0 -20 -39 -45l-204 22q-187 0 -344 -137l-14 -34v-46q0 -120 294 -161h39q130 0 383 189q69 46 114 46h31q46 0 46 -46q0 -124 -409 -348q-253 -184 -287 -281q-127 -181 -184 -484l-83 -56q0 335 191 735v12q-319 124 -319 325v23 q0 199 274 395q110 46 172 46zM470 1406l-140 -140l-140 140l140 140z" />
<glyph unicode="&#x640;" horiz-adv-x="501" d="M0 224h551v-224h-551v224z" />
<glyph unicode="&#x641;" horiz-adv-x="1676" d="M1031 1348h23q96 -28 168 -129q0 -72 -112 -134h-12q-168 52 -168 134q23 79 101 129zM1350 895q161 0 286 -420v-28q0 -105 -101 -275q-124 -116 -397 -173q-374 -78 -560 -78q-405 0 -516 223q-22 80 -22 123v28q0 185 174 336h16q34 0 34 -28q-78 -180 -78 -201v-34 q0 -165 257 -224l67 -5h62q491 0 896 179q36 31 45 50v6q-7 45 -34 45l-168 -79q-124 0 -185 207v40q0 191 180 302zM1272 648v-33q10 -23 39 -23h62l11 11q-46 90 -78 90q-34 -11 -34 -45z" />
<glyph unicode="&#x642;" horiz-adv-x="1222" d="M835 1081q100 -39 135 -112v-11q0 -69 -146 -118l-62 22h-11q-19 0 -129 -78l-16 -6q-129 51 -129 107v5q0 52 106 135h17l84 -28h39zM869 582q213 0 313 -470v-62q0 -295 -341 -408q-209 -78 -347 -78q-349 25 -443 291l-11 89v12q0 209 162 391h23q39 0 39 -50 q-84 -186 -84 -252v-11q0 -148 140 -213q90 -39 218 -39h56q166 0 409 146q51 53 51 94v28q0 73 -34 96q-109 -58 -168 -73q-118 0 -179 168v28q63 313 196 313zM824 381l-11 -23q0 -30 39 -56h45q22 12 22 34q0 28 -61 45h-34z" />
<glyph unicode="&#x643;" horiz-adv-x="1334" d="M1059 1669q38 0 56 -146q79 -68 79 -123l-40 -168v-6q79 -417 140 -918q-44 -246 -190 -246q-364 -34 -840 -62q-165 0 -224 84v17q0 134 73 162q109 -39 213 -39h72q621 0 751 73q0 158 -157 1002q-50 102 -50 151q36 219 117 219zM692 1115q38 0 50 -56 q0 -63 -151 -146v-33q0 -7 157 -62q45 -31 45 -101q0 -110 -196 -246l-62 -17q-185 50 -185 112q6 22 34 22h146q47 0 67 34q0 20 -107 45q-61 47 -61 106q88 342 263 342z" />
<glyph unicode="&#x6a9;" horiz-adv-x="1334" d="M1059 1669q38 0 56 -146q79 -68 79 -123l-40 -168v-6q79 -417 140 -918q-44 -246 -190 -246q-364 -34 -840 -62q-165 0 -224 84v17q0 134 73 162q109 -39 213 -39h72q621 0 751 73q0 158 -157 1002q-50 102 -50 151q36 219 117 219zM692 1115q38 0 50 -56 q0 -63 -151 -146v-33q0 -7 157 -62q45 -31 45 -101q0 -110 -196 -246l-62 -17q-185 50 -185 112q6 22 34 22h146q47 0 67 34q0 20 -107 45q-61 47 -61 106q88 342 263 342z" />
<glyph unicode="&#x644;" horiz-adv-x="1088" d="M841 1400h17q32 0 61 -174q79 -50 79 -100l-51 -196q95 -762 101 -885v-34q0 -278 -454 -403l-112 -11q-162 0 -364 146q-78 105 -78 229q14 122 140 291q29 28 50 28h6l17 -17v-39q0 -42 -62 -190q0 -155 207 -207q24 -11 90 -11h62q155 0 336 106q33 55 33 106v17 q0 160 -134 963q-51 72 -51 140q0 105 107 241z" />
<glyph unicode="&#x645;" horiz-adv-x="1465" d="M1184.5 524.5q-20.5 7.5 -72.5 -16.5t-94 -93q47 -54 94.5 -72.5t121.5 -36.5q12 71 -8.5 141t-41 77.5zM60 -215q347 250 737 572q192 320 291.5 377.5t150.5 59.5q17 0 58.5 -33.5t60 -90t32 -110t14.5 -99t1 -67.5t-3.5 -71t-23 -99.5t-46 -89t-60.5 -38.5 q-125 0 -226.5 41t-205.5 69q-67 -62 -109 -118.5t-141 -147t-177 -119t-353 -36.5z" />
<glyph unicode="&#x646;" horiz-adv-x="1026" d="M365 868q68 0 140 -90v-5q-25 -140 -129 -140q-70 0 -123 78q43 157 112 157zM740 594h11q97 0 219 -376l16 -173q0 -263 -414 -414l-129 -17q-262 0 -386 246l-17 101q0 141 151 325h17q34 -3 34 -17v-11l-73 -202v-6q0 -163 269 -218h89q125 0 308 118q23 38 23 61v28 q0 102 -168 359l-17 67q36 129 67 129z" />
<glyph unicode="&#x648;" horiz-adv-x="1222" d="M886 703q183 0 291 -375l5 -56v-6q0 -368 -386 -621q-134 -73 -263 -73h-11l-6 -6l-6 6h-16q-143 0 -443 95l-11 39l6 6h274q367 0 666 369q68 102 68 129l-12 11q-96 -78 -140 -78q-169 0 -218 224q90 336 202 336zM852 423v-17l6 -28h39q46 0 61 62q0 39 -39 39h-45 q-15 0 -22 -56z" />
<glyph unicode="&#x649;" horiz-adv-x="1390" d="M1177 997q102 0 162 -135l11 -33q-11 -135 -72 -135l-124 84h-28q-98 0 -252 -207q-22 -38 -22 -67v-34q0 -151 319 -151q179 -24 179 -168q0 -286 -638 -492l-146 -17h-5q-363 0 -487 269q-23 67 -34 173q0 200 168 381l56 28l6 -6v-28q0 -43 -101 -280v-5 q0 -220 285 -291l112 -11h62q277 0 538 212v6q0 19 -62 28h-34l-100 -6q-269 43 -269 246v17q12 205 263 515q118 103 213 107zM657 -565l-105 -162l-164 113l107 158zM949 -515l-105 -162l-164 113l107 158z" />
<glyph unicode="&#x64b;" d="M569 1071q-14 -147 -70 -181l-491 -280q1 63 7.5 87t18.5 41.5t31 32t51 31.5zM561 1294q-14 -147 -70 -181l-491 -280q1 63 7.5 87t18.5 41.5t31 32t51 31.5z" />
<glyph unicode="&#x64c;" d="M508 1012q157 -17 157 -140q0 -70 -62 -117q-89 100 -145 100q-130 0 -258 -252l-17 -61l17 -112q0 -46 -45 -62q-67 34 -67 107q0 149 213 425q104 112 207 112zM487 728q67 -25 79 -129q2 -75 -26 -173q73 -82 73 -107q0 -95 -56 -95h-5q-16 0 -84 50 q-275 -256 -440 -285h-11l-17 17v11q0 35 157 145q207 171 207 185q-55 31 -84 90l-6 50q0 130 163 235zM438 491q28 58 17 84.5t-32 15.5t-24 -48q-6 -52 39 -52z" />
<glyph unicode="&#x64d;" d="M569 -230q-14 -147 -70 -181l-491 -280q1 63 7.5 87t18.5 41.5t31 32t51 31.5zM561 -7q-14 -147 -70 -181l-491 -280q1 63 7.5 87t18.5 41.5t31 32t51 31.5z" />
<glyph unicode="&#x64e;" d="M561 2597q-14 -147 -70 -181l-491 -280q1 63 7.5 87t18.5 41.5t31 32t51 31.5z" />
<glyph unicode="&#x64f;" d="M487 2800q67 -25 79 -129q2 -75 -26 -173q73 -82 73 -107q0 -95 -56 -95h-5q-16 0 -84 50q-275 -256 -440 -285h-11l-17 17v11q0 35 157 145q207 171 207 185q-55 31 -84 90l-6 50q0 130 163 235zM438 2563q28 58 17 84.5t-32 15.5t-24 -48q-6 -52 39 -52z" />
<glyph unicode="&#x650;" d="M561 -17q-14 -147 -70 -181l-491 -280q1 63 7.5 87t18.5 41.5t31 32t51 31.5z" />
<glyph unicode="&#x651;" d="M447 2068q0 -212 -132 -212q-45 0 -81 26q-4 -21 -17.5 -41t-31 -34.5t-39 -23.5t-42.5 -9q-104 0 -104 136q0 29 28 127l29 6q0 -140 49 -140q80 0 114 204l22 7q30 -123 73 -123q73 0 84 185l29 12q19 -73 19 -120z" />
<glyph unicode="&#x652;" d="M214 368l86 14q79 -7 115.5 -24t46.5 -55l-3 -32q0 -122 -252 -274l-84 -23l-67 17q0 52 185 157q32 22 3.5 41.5t-82.5 19.5q-18 0 -117 -78q-21 -15 -33 -7.5t-12 24.5q0 126 174 207z" />
<glyph unicode="&#x653;" d="M887.024 271.007q-20.7012 -54.9014 -65.7021 -111.603q-100.803 -132.304 -395.11 -162.904q-84.6025 -7.2002 -197.105 -0.900391q-8.10059 -125.104 -54.002 -125.104q-48.6006 0 -57.6016 42.3008q-27 145.805 -115.203 266.408q-6.2998 9 -6.2998 21.5996 q0 13.501 25.2012 69.3027q13.5 27.9004 28.8008 30.6006q207.005 -171.905 424.811 -142.204q207.906 8.10059 370.811 144.904q31.501 32.4004 41.4014 -32.4014z" />
<glyph unicode="&#x654;" d="M375 410q91 0 91 -91q-12 -80 -77 -80l-76 48h-23q-33 0 -73 -58q49 -72 140 -72l189 32q54 -8 54 -23v-14q0 -78 -162 -94q-55 0 -230 -117l-45 -20l-8 28v4l35 73l-85 95l-5 28q0 125 234 251q41 3 41 10z" />
<glyph unicode="&#x655;" d="M275 -53q91 0 91 -91q-12 -80 -77 -80l-76 48h-23q-33 0 -73 -58q49 -72 140 -72l189 32q54 -8 54 -23v-14q0 -78 -162 -94q-55 0 -230 -117l-45 -20l-8 28v4l35 73l-85 95l-5 28q0 125 234 251q41 3 41 10z" />
<glyph unicode="&#x656;" d="M71 -14.9736q46 1.7998 47 -64.8018q50 -370.811 46 -396.011q-24 -87.3027 -55 -88.2021h-4q-29 -0.900391 -23 51.3008l-82 349.21q40 147.604 71 148.504z" />
<glyph unicode="&#x657;" d="M66 2q-67 25 -79 129q-2 75 26 173q-73 82 -73 107q0 95 56 95h5q16 0 84 -50q275 256 440 285h11l17 -17v-11q0 -35 -157 -145q-207 -171 -207 -185q55 -31 84 -90l6 -50q0 -130 -163 -235zM115 239q-28 -58 -17 -84.5t32 -15.5t24 48q6 52 -39 52z" />
<glyph unicode="&#x658;" horiz-adv-x="2270" d="M688 2499l-18 -150q-458 -52 -462 -194q459 -49 1104.5 -36.5t917.5 83.5q-23 -101 -208.5 -160.5t-773.5 -73.5l-260 -2q-546 9 -854 50q-88 106 -94 160q76 246 648 323z" />
<glyph unicode="&#x659;" d="M532 2371h36l47 -168q0 -156 -226 -156q-77 11 -167 72q-144 -87 -144 -217v-24q0 -155 263 -181l287 49l11 -12v-13q-167 -132 -358 -132q-234 0 -263 277v12q7 127 119 276l-59 25v11q20 134 131 134q132 -17 132 -86l-36 -59v-13l59 -12q191 9 191 49l-47 72v11z M891 2371q30 0 60 -96q-21 0 -37 -60l48 -313q0 -205 -143 -205h-60q-56 -264 -227 -264q-131 24 -131 47q0 28 154 38q144 110 144 167l-35 61v11q0 65 48 85l35 -36h84q62 0 72 36l-59 444q27 85 47 85zM1071 2286h11l36 -420v-24q0 -145 -47 -145l-13 13v59l-36 421 q22 96 49 96zM555 2022l60 -60v-13l-47 -60h-13q-58 29 -58 60q15 51 58 73z" />
<glyph unicode="&#x65b;" d="M1812 2294h8q26 0 80 -752v-23q0 -61 -23 -70q-21 0 -87 752q5 93 22 93zM1680 2270q17 -103 53 -138v-22l-16 -106l29 -416v-13q-13 -126 -79 -126h-74q-29 0 -103 81q0 -20 -51 -69l-28 11l-103 -11l-95 11l-110 -23h-87q-73 0 -73 93l8 57l-45 23l-211 -150 q-34 -23 -95 -23q-66 0 -111 139q-83 -139 -182 -139h-22q-39 0 -59 59v34l23 46l50 -13h45q65 0 117 82v11l-51 279l13 81h23q80 -453 154 -453h13q169 45 169 93v24l-59 24l-80 -48l-7 13v11q0 102 102 151l213 -105h72l15 -22v-48q-12 -46 -51 -46v-23l14 -24h132 q83 0 131 93h8l15 -22l-8 -71l37 -11q66 9 66 93l21 35h8q13 0 22 -104h14l66 115q37 -128 88 -128h73q22 0 22 47l-52 555q0 62 36 93zM138 2086q52 -49 52 -69l-44 -70q-44 39 -44 70q10 47 36 69zM29 2051h14q37 -26 37 -58l-21 -70l-59 35v35zM59 1820h13q77 0 118 -198 v-23q-33 -162 -124 -162q-57 30 -66 71v22q41 290 59 290zM66 1681l-15 -93l44 -24q33 23 36 47q-25 70 -65 70zM882 1558l43 -69v-11l-43 -70l-46 70v11z" />
<glyph unicode="&#x65c;" d="M998 2337l14 -45q0 -65 -262 -185q-205 -131 -226 -173q251 -180 488 -385l44 -19q116 0 160 93q17 0 22 -65h22l29 -9q19 0 86 128q15 0 15 -82l44 -18l8 9v9l-8 65q11 37 37 54q29 -67 29 -147q0 -100 -73 -100l-72 28q-55 -47 -81 -47h-73l-79 -18h-37 q-105 0 -255 147l-102 83v-11l22 -91q-25 -128 -189 -128h-29q-42 0 -73 65q-61 -65 -131 -65h-59q-87 29 -87 92h-8q-46 -55 -79 -55h-44q-39 0 -51 36v27q0 71 130 175q11 128 30 128q26 0 66 -238q22 -65 102 -65q83 0 116 111h7q17 0 37 -74q38 -37 80 -37h15 q94 28 94 56q0 74 -196 265l-15 56q0 159 328 311q81 60 204 119zM174 1989h8l58 -28v-8l-22 -74h-22l-44 28v27zM73 1970h15l42 -45v-18l-20 -47h-22l-44 28zM437 1842h22l44 -45l-22 -74l-66 37v27zM343 1814h14l36 -27v-9l-21 -73l-66 37v18zM95 1577h8q39 0 57 36 l-22 10q-30 -13 -43 -46z" />
<glyph unicode="&#x65d;" d="M182 1988q58 -20 69 -47q4 -45 -37 -69h-9q-34 -3 -69 37h-8q2 -42 -57 -45q-33 -1 -51 31q8 76 46 78q30 -7 69 -47h8q-1 35 39 62zM442 2000l17 1q78 -12 86 -36l1 -25q-20 -44 -65 -46q-45 -3 -78 46q25 60 39 60zM710 2006q68 -23 70 -55l17 1q-1 49 47 61 q39 -12 61 -47q3 -58 -56 -61l-69 29l-38 -44h-10q-57 -3 -61 56q20 54 39 60zM1126 1919q67 4 126 -170l1 -16q9 -185 -196 -278l-66 -12q-193 8 -195 40l16 18l100 5q162 8 277 181l-1 18l-41 -27q-68 -4 -106 86q37 153 85 155zM801 1877q78 4 136 -211q7 -112 -167 -159 l-109 -6q-61 -4 -161 33q-66 -45 -141 -48l-41 -2q-102 20 -104 77l-10 -1q-52 -51 -89 -53l-50 -3q-45 -2 -61 30l-1 25q-3 63 143 167q7 109 28 110q38 2 76 -189q35 -65 79 -63l99 22l-3 59q-6 123 83 180l25 1q102 -10 108 -137l-20 -101l102 -12q50 3 148 49l-1 10 l-8 7v8l-58 -35q-93 23 -96 87l-1 33q-4 73 94 122zM1123 1818l-8 -33h18l23 27l-8 7zM781 1775l1 -25l26 2l-11 24zM484 1676l43 -23l41 19l-3 68l-42 6q-40 -40 -39 -70zM110 1606l1 -8q51 3 72 46l-16 -1q-46 -2 -57 -37z" />
<glyph unicode="&#x65e;" d="M307 2392q18 0 57 -399q32 -199 121 -199h32q33 0 105 66h8q69 -56 97 -56t251 189h16q100 0 113 -95q0 -146 -242 -189q-138 0 -138 -77q0 -28 -16 -28h-16v48l8 47l-81 57h-16q-56 -67 -89 -67h-16q-44 0 -105 48v-95q0 -154 -234 -209q-162 39 -162 171q0 116 64 190 q17 0 17 -29l-24 -113q0 -87 137 -114q153 45 153 123l-72 664q11 67 32 67zM848 1804h17q60 0 169 47v18q-8 29 -48 29h-17q-54 0 -121 -94z" />
<glyph unicode="&#x65f;" horiz-adv-x="261" d="M111 1000q46 2 47 -72q50 -412 46 -440q-24 -97 -55 -98h-4q-29 -1 -23 57l-82 388q40 164 71 165z" />
<glyph unicode="&#x66a;" d="M162 2322q51 0 116 -52l3 -9q0 -7 -14 -17l-72 8q-65 0 -120 -53l-5 -14v-18q0 -47 103 -63h14q45 0 134 74q24 18 40 18h11q16 0 16 -18q0 -48 -143 -136q-89 -72 -101 -110q-45 -71 -45 -186q31 -101 103 -145q74 -43 168 -43h43q110 0 289 52q40 -9 40 -16 q-19 -31 -45 -31q-163 -63 -228 -81q-54 -14 -103 -14h-18q-127 0 -229 81q-69 66 -69 199q0 104 67 260v5q-112 49 -112 127v9q0 78 96 155q39 18 61 18z" />
<glyph unicode="&#x66d;" d="M477 2328q60 -24 81 -68v-6q0 -42 -88 -71l-37 13h-6q-12 0 -78 -47l-9 -3q-78 30 -78 64v3q0 31 64 81h10l50 -17h24zM497 2028q128 0 188 -282v-37q0 -177 -204 -245q-126 -47 -209 -47q-209 15 -265 175l-7 53v8q0 125 97 234h14q23 0 23 -30q-50 -111 -50 -151v-7 q0 -88 84 -127q54 -24 131 -24h33q100 0 246 88q30 32 30 56v17q0 44 -20 58q-65 -35 -101 -44q-71 0 -107 101v16q38 188 117 188zM470 1908l-6 -14q0 -18 23 -34h27q13 7 13 21q0 16 -36 27h-21z" />
<glyph unicode="&#x670;" d="M57 1080q46 2 47 -72q50 -412 46 -440q-24 -97 -55 -98h-4q-29 -1 -23 57l-82 388q40 164 71 165z" />
<glyph unicode="&#x671;" horiz-adv-x="634" d="M214 1294q61 0 73 -157q123 -875 123 -935q-19 -202 -61 -202h-6q-39 0 -39 123l-168 997q36 174 78 174zM439 1715.5q-32 -22.5 -64 -85.5q39 -9 70 22q49 42 37.5 64t-43.5 -0.5zM482 1861q86 0 112 -129q0 -148 -212 -246q-48 -17 -90 -17l-101 22h-28q-22 0 -95 -44 q-11 0 -28 44q36 157 157 157q96 0 123 67q78 146 162 146z" />
<glyph unicode="&#x6be;" horiz-adv-x="729" d="M282 734h6q194 0 369 -339l12 -85q0 -125 -228 -302l-153 -24q-228 22 -228 202l117 351q0 173 56 173q0 15 49 24zM211 264q78 -51 125 -51h45q83 0 133 80v16q-105 154 -192 154h-29q-58 0 -82 -199z" />
<glyph unicode="&#x6c1;" horiz-adv-x="729" d="M282 734h6q194 0 369 -339l12 -85q0 -125 -228 -302l-153 -24q-228 22 -228 202l117 351q0 173 56 173q0 15 49 24zM211 264q78 -51 125 -51h45q83 0 133 80v16q-105 154 -192 154h-29q-58 0 -82 -199z" />
<glyph unicode="&#x6c3;" horiz-adv-x="729" d="M282 736h6q194 0 369 -339l12 -85q0 -125 -228 -302l-153 -24q-228 22 -228 202l117 351q0 173 56 173q0 15 49 24zM211 266q78 -51 125 -51h45q83 0 133 80v16q-105 154 -192 154h-29q-58 0 -82 -199zM349 991l-105 -162l-164 113l107 158zM641 1041l-105 -162l-164 113 l107 158z" />
<glyph unicode="&#x6cc;" horiz-adv-x="1390" d="M1177 997q102 0 162 -135l11 -33q-11 -135 -72 -135l-124 84h-28q-98 0 -252 -207q-22 -38 -22 -67v-34q0 -151 319 -151q179 -24 179 -168q0 -286 -638 -492l-146 -17h-5q-363 0 -487 269q-23 67 -34 173q0 200 168 381l56 28l6 -6v-28q0 -43 -101 -280v-5 q0 -220 285 -291l112 -11h62q277 0 538 212v6q0 19 -62 28h-34l-100 -6q-269 43 -269 246v17q12 205 263 515q118 103 213 107z" />
<glyph unicode="&#x6d6;" d="M235 2184l56 -292q42 -168 118 -168q60 2 112 62q39 0 53 -17t36 -17q37 0 100.5 70t168.5 80q129 -33 129 -94h6q0 -144 -227 -166q-146 -7 -254 32q-165 -84 -287 22q-134 -60 -155 -134q52 -28 167 -27l705 26l34 -16q-39 -73 -168 -73l-504 -22h-79q-246 0 -246 84 q0 73 168 218q69 31 45 135l-34 267q17 30 56 30zM767 1741q59 -21 85.5 1.5t33.5 41.5t-39 21t-63 -19.5t-17 -44.5z" />
<glyph unicode="&#x6d7;" d="M378 2046l-3 91l81 -1l5 -91zM570 2143l5 -97h-82l-7 94zM636 1555l28 1l-10 -54q-20 -44 -133 -42l-406 -10q-108 14 -115 115q4 129 200 186q46 -8 27 141l-6 135l2 63l54 42l17 -245l8 -133l68 -2q117 -19 119 42q-77 -4 -88.5 37.5t11.5 76.5t61 35v5q87 0 114 -133 q-6 -141 -62 -153.5t-144 -17t-126 -4.5h-11q-41 0 -88.5 -7t-52 -34t43.5 -40.5t129 -11.5q32 0 360 8z" />
<glyph unicode="&#x6d8;" d="M577.5 1797.5q-9.5 3.5 -34.5 -9t-45 -48.5q23 -28 45.5 -37.5t57.5 -18.5q6 37 -4 73.5t-19.5 40zM-10 1463q254 109 425 238q85 128 128.5 151t66.5 24q7 0 25.5 -13t26.5 -36t14 -44.5t6.5 -39.5t0.5 -27t-1.5 -28.5t-10 -39.5t-20.5 -35.5t-27 -15.5q-55 0 -99.5 16 t-90.5 41q-29 -38 -47.5 -61t-62 -59t-78 -47.5t-256.5 -23.5z" />
<glyph unicode="&#x6d9;" d="M561 2254q25 -9 25 -51v-30q0 -12 36 -54l3 -25q0 -9 -39 -81q0 -102 -45 -305v-9q42 -130 42 -165q-15 -81 -56 -81l-174 -25q-84 14 -84 53v39q0 14 26 34l47 -3h11q57 0 96 104v22q0 40 -208 230q-68 61 -86 61l-65 -14q-57 0 -84 70q-14 40 -14 95q0 37 34 37 q102 0 403 -319q33 -48 50 -62h6q25 0 39 213q0 29 -19 151q0 46 56 115zM469 1571h26v11l-9 8q-17 -7 -17 -19z" />
<glyph unicode="&#x6da;" d="M160 2123h270q14 0 14 -14v-6q0 -48 -54 -65q-38 0 -174 -54q-139 -63 -139 -242v-7q0 -144 127 -190q56 -22 135 -22h20l295 29q39 0 39 -18v-3q-170 -58 -256 -94q-42 -6 -91 -6h-28q-306 0 -306 291q0 181 123 293v5q0 7 -23 7q-38 0 -91 -61l-9 -2q-10 0 -16 20 q0 32 74 119q24 20 90 20zM349 1811l-56 -56l-56 56l56 56z" />
<glyph unicode="&#x6db;" d="M264 1575l-105 -162l-164 113l107 158zM556 1625l-105 -162l-164 113l107 158zM357 1905l-105 -162l-164 113l107 158z" />
<glyph unicode="&#x6dc;" d="M1060 380q33 0 64 -145q-41 -178 -121 -178l-114 37h-4q-97 -45 -174 -71q-27 -18 -27 -117q-24 -94 -78 -127q-144 -115 -336 -115q-115 0 -208 115q-40 78 -40 114v23q0 88 80 205l24 20h3q21 -14 21 -27l-37 -140v-27q0 -90 151 -132q21 -6 64 -6q156 0 275 97 q14 26 14 41v27q0 55 -81 194l-3 23q0 30 37 78q11 0 87 -88q20 -13 50 -13q96 0 138 61q25 111 51 111h3q37 -29 37 -58l-3 -37q38 -43 70 -43h10q18 8 21 20l-17 64q13 94 43 94z" />
<glyph unicode="&#x6dd;" horiz-adv-x="3420" d="M1459 2331q139 0 251 -172q116 172 243 172q259 -53 259 -235l-32 -125v-8q194 -26 447 -196q110 204 196 204q0 -255 243 -471l126 -117h8l180 47v-8q-63 -149 -63 -275v-102q0 -58 63 -282q0 -98 -133 -149l-87 24v-8q0 -735 -690 -1215q-350 -212 -729 -212h-62 q-735 0 -1216 706q-203 341 -203 729h-8l-71 -24q-90 0 -141 141l63 275v125q0 120 -63 267v8l196 -47q290 274 290 321q63 116 63 227v24l15 16q85 -2 189 -204q243 166 454 196q-31 94 -31 141q0 168 243 227zM1271 2104v-47q0 -55 55 -118v-8q-210 -27 -455 -164 q-71 -55 -71 -71l8 -86l-8 -94h8q392 376 651 376q188 59 188 157v63q-33 156 -157 156h-70q-149 -45 -149 -164zM1773 2104v-39q0 -155 368 -212q206 -77 463 -329h15v156q0 116 -486 243l-39 8v8q55 69 55 126v39q0 119 -149 164h-71q-123 0 -156 -164zM1655 1923h118v16 l-63 86q-55 -70 -55 -102zM2674 1610q0 -227 79 -282q156 -300 156 -557v-78q0 -626 -627 -1027q-268 -142 -541 -142h-78q-576 0 -980 581q-173 282 -173 572v70q0 359 228 675l-8 8v7l16 181q0 207 -79 251h-31q0 -234 -337 -486l-16 -40q94 -113 94 -164l-8 -47h-8 q-100 211 -219 211h-16v-8q39 -121 39 -243v-23l-54 -282v-55q15 -32 47 -47h70q20 2 86 86h8v-172q0 -737 776 -1192q289 -126 549 -126h126q662 0 1121 635q211 302 211 777v15l-7 55l7 8h8q49 -86 102 -86h32q62 0 70 78l-63 290v32q0 100 40 258h-8q-126 0 -228 -219h-7 v55q0 60 86 164v16q-328 286 -329 416q-12 0 -24 101h-16q-94 -41 -94 -266zM581 802v-156q0 -559 604 -941q252 -118 525 -118q707 0 1050 682q87 202 87 447q0 757 -745 1082q-155 63 -400 63q-678 0 -1035 -667q-86 -209 -86 -392z" />
<glyph unicode="&#x6de;" horiz-adv-x="1928" d="M919 2246h6q40 0 95 -146q183 -365 196 -370l370 62h5q23 -43 23 -67l-28 -308v-11l302 -280v-6l-291 -274l11 -336q0 -34 -202 -34h-72l-124 6q-152 -321 -240 -482q-76 41 -258 448q-24 22 -45 22h-84l-229 -22q-34 13 -34 22l11 342q-21 32 -291 269v28q46 60 100 112 t174 162v17l-16 330l16 12l364 5zM796 1652v-11l22 -23q13 7 56 124l51 50h17q78 -69 117 -207h11l23 22v67q-65 173 -157 280h-6q-91 -148 -134 -302zM1177 1512l5 -6q68 56 107 56q95 0 123 -67q0 -33 -34 -134h17q69 0 101 134v56q0 101 -134 101q-79 0 -163 -78z M432 1562v-95q21 -117 90 -117l5 5v6q-28 57 -45 140q0 54 73 73q93 -23 146 -23v11q-51 73 -123 73h-68q-78 0 -78 -73zM667 1131v-33q0 -159 207 -258l34 -6h84q111 0 207 185l11 67v28q0 194 -218 269l-50 6h-34q-139 0 -235 -207zM236 1098q0 -65 140 -146h56l22 11v17 q-117 95 -117 129l134 129v11l-67 22q-73 0 -168 -134v-39zM1406 1232v-11q128 0 163 -101q0 -63 -146 -134v-17l51 -17h33q174 76 174 168v17q-91 113 -179 134h-12q-49 0 -84 -39zM947 1260q128 -7 151 -146q-14 -142 -156 -145q-135 10 -135 134q2 158 140 157zM1378 868 q0 -22 45 -140q0 -56 -95 -56h-6q-46 0 -145 39v-5q0 -98 185 -124h44q79 0 79 79v56q0 110 -95 151h-12zM432 706v-56q0 -45 123 -68h17q129 56 129 101h-6q-67 -36 -117 -39q-84 8 -84 84l33 129l-5 5h-6q-84 -30 -84 -156zM970 442h-17q-102 93 -118 180h-11 q-28 -13 -28 -56q56 -154 146 -286h5q146 157 146 314v11l-6 28h-11l-67 -157z" />
<glyph unicode="&#x6df;" d="M1008 2071q70 -28 85 -64q-24 -63 -63 -72q-74 14 -74 41v11q0 76 52 84zM1146 2071h9q58 0 85 -52q0 -74 -74 -74q-63 8 -63 62q24 64 43 64zM704 2029q84 0 84 -84l-42 -42h-31l-54 42v10q0 57 43 74zM1082 1903h42q126 -83 126 -252v-31q-30 -169 -231 -169h-63 q-126 0 -221 53q-244 -84 -430 -84q-305 0 -305 179v21q0 98 95 178h21v-10l-32 -126v-42q65 -84 263 -84q270 0 326 84l-12 52q41 168 147 168h12q45 0 73 -147v-11l-32 -94l63 -21h106q156 28 156 63l-9 10v11l-84 -31q-85 0 -105 116v31q0 65 94 136zM1071 1788v-42h43 v21l-21 21h-22zM768 1736l-33 -43v-53h42l31 32v52z" />
</font>
</defs>
</svg>
