<?xml version="1.0" standalone="no"?>
<!DOCTYPE svg PUBLIC "-//W3C//DTD SVG 1.1//EN" "http://www.w3.org/Graphics/SVG/1.1/DTD/svg11.dtd" >
<svg xmlns="http://www.w3.org/2000/svg" xmlns:xlink="http://www.w3.org/1999/xlink" version="1.1">
<metadata></metadata>
<defs>
<font id="noorehiraregular" horiz-adv-x="0" >
<font-face units-per-em="2048" ascent="1638" descent="-410" />
<missing-glyph horiz-adv-x="120" />
<glyph unicode="&#x649;" horiz-adv-x="485" d="M145 205q52 2 100.5 13.5t77.5 28.5q-2 31 -9 51.5t-17 35t-21 26.5t-20.5 26.5t-15.5 34t-6 50.5q0 26 13 54t30 58q30 -34 57 -64t47 -64t32 -77t12 -104q0 -48 -13.5 -93.5t-44.5 -85.5q-41 -53 -99 -74t-122 -21h-152q-48 11 -71 40.5t-23 63.5t23.5 63.5t70.5 37.5 h151z" />
<glyph unicode="&#x649;" horiz-adv-x="887" d="M896 205q45 -14 67 -42t22 -60t-22 -60.5t-65 -42.5h-68q-46 0 -94.5 13.5t-91 38t-76.5 58.5t-50 75q-50 -36 -109.5 -67.5t-125.5 -56t-136.5 -40.5t-140.5 -21h-16q-35 15 -51.5 44t-16.5 59q0 34 18 62.5t50 39.5h21q79 6 156 25t149 46.5t135.5 60.5t115.5 65 q5 -48 28.5 -85t59.5 -62t81 -37.5t94 -12.5h66z" />
<glyph unicode="&#xfc31;" horiz-adv-x="499" arabic-form="isolated" d="M144 205q52 2 100.5 13.5t77.5 28.5q-2 31 -9 51.5t-17 35t-21 26.5t-20.5 26.5t-15.5 34t-6 50.5q0 26 13 54t30 58q30 -34 57 -64t47 -64t32 -77t12 -104q0 -48 -13.5 -93.5t-44.5 -85.5q-41 -53 -99 -74t-122 -21h-152q-48 11 -71 40.5t-23 63.5t23.5 63.5t70.5 37.5 h151zM320 -165q-4 -7 -14 -11.5t-22 -7t-25 -3.5t-23 -1l-58 5h-8q-25 0 -48.5 -13t-26.5 -39q26 -42 75 -59.5t117 -17.5h24q21 8 38 24t34 32.5t34.5 28.5t40.5 12q4 0 8 -0.5t9 -1.5q-6 -38 -26.5 -69.5t-49.5 -59t-64.5 -51t-73 -44.5t-74 -40.5t-67.5 -38.5 q-18 -12 -33 -25t-31 -24.5t-33.5 -19.5t-40.5 -9q-2 6 -3 11.5t-1 10.5q0 23 15 38t34 29t36.5 29t22.5 38q-6 23 -17.5 35.5t-24 22.5t-23 21.5t-13.5 32.5q-1 6 -1.5 12t-0.5 12q0 39 18 77.5t47 69t65 49.5t72 19q32 0 61 -17.5t51 -56.5z" />
<glyph unicode="&#x621;" horiz-adv-x="741" arabic-form="isolated" d="M487 541q-11 -17 -31.5 -22t-46.5 -5h-85q-2 1 -5 1q-17 -1 -36 -3t-35.5 -8t-28 -18t-13.5 -32q32 -53 95.5 -75t149.5 -22h25q26 10 47.5 30t42.5 40.5t43.5 35.5t50.5 15h10.5t10.5 -2q-8 -47 -33 -86.5t-61.5 -73.5t-81 -63.5t-91.5 -56t-92.5 -51t-83.5 -48.5 q-23 -14 -42 -30.5t-38.5 -31t-42 -24.5t-50.5 -11q-4 13 -4 27q0 28 18.5 47t42 36.5t45 36.5t28.5 48q-7 28 -21.5 44t-30 28.5t-29 27t-17.5 40.5q-2 8 -2 14.5v14.5q0 49 22.5 97t58.5 86t81.5 62t90.5 24q40 0 76 -21t63 -71z" />
<glyph unicode="&#x622;" horiz-adv-x="561" arabic-form="isolated" d="M759 1667q-2 -18 -9 -30.5t-15 -24t-15.5 -24t-10.5 -29.5q-45 -25 -105.5 -47t-129 -38.5t-142 -26t-145.5 -9.5q-62 0 -119 8t-106 25q-2 -20 -8.5 -45t-18.5 -49.5t-29.5 -44.5t-41.5 -29q19 32 27 63.5t8 63.5q0 54 -20.5 102.5t-53.5 85.5q8 2 8 11.5t2 17.5 q24 6 49 6q31 0 61.5 -7.5t61 -17t61 -18.5t62.5 -12q34 -3 69 -3q73 0 144.5 11t140.5 24.5t135 25t127 11.5h13zM141 1054q2 33 4 53t4 30.5t3.5 14.5t3.5 5q5 5 10 9t10 4q8 0 15 -7q30 -29 68 -59t72.5 -66t58 -81t23.5 -105q0 -13 -3 -28l-1 -3q0 -17 -9 -23 t-20.5 -9.5l-23 -7t-16.5 -14.5q5 -77 25 -153.5t42 -152t39.5 -151.5t17.5 -153q0 -39 -5.5 -78t-19.5 -79q-23 14 -34.5 32t-17 37t-7 39t-4.5 39q-7 49 -22 107t-33 120.5t-38 127t-36 127.5q-12 48 -30.5 98.5t-35 103t-28.5 105.5t-12 107v11z" />
<glyph unicode="&#x622;" horiz-adv-x="720" arabic-form="final" d="M822 1854q-2 -18 -9 -30.5t-15 -24t-15.5 -24t-10.5 -29.5q-45 -25 -105.5 -47t-129 -38.5t-142 -26t-145.5 -9.5q-62 0 -119 8t-106 25q-2 -20 -8.5 -45t-18.5 -49.5t-29.5 -44.5t-41.5 -29q19 32 27 63.5t8 63.5q0 54 -20.5 102.5t-53.5 85.5q8 2 8 11.5t2 17.5 q24 6 49 6q31 0 61.5 -7.5t61 -17t61 -18.5t62.5 -12q34 -3 69 -3q73 0 144.5 11t140.5 24.5t135 25t127 11.5h13zM718 205q36 0 61.5 -10.5t42 -26t24 -34t7.5 -34.5q0 -21 -11.5 -39.5t-30 -32t-43 -21t-50.5 -7.5h-56q-93 0 -158.5 20t-110.5 61t-73 103t-44 147 q-20 103 -41.5 212.5t-38.5 226.5q-9 56 -22 114.5t-25 117t-20.5 115t-8.5 109.5q0 45 8 86t28 77q36 12 70 12q45 0 82.5 -18.5t67.5 -49.5t51.5 -70t33.5 -80q-27 1 -49 12.5t-41.5 25.5t-39.5 25.5t-44 11.5q-15 0 -33 -6q-9 -21 -13 -46.5t-4 -54.5q0 -54 11 -117 t26.5 -130.5t31.5 -136.5t27 -135q2 -12 3.5 -24t3.5 -23q9 -58 18 -108t23 -91.5t35 -74.5t54.5 -56t81 -35.5t114.5 -14.5h52z" />
<glyph unicode="&#x623;" horiz-adv-x="503" arabic-form="isolated" d="M336 1651q-4 -7 -14 -11.5t-22 -7t-25 -3.5t-23 -1l-58 5h-8q-25 0 -48.5 -13t-26.5 -39q26 -42 75 -59.5t117 -17.5h24q21 8 38 24t34 32.5t34.5 28.5t40.5 12q4 0 8 -0.5t9 -1.5q-6 -38 -26.5 -69.5t-49.5 -59t-64.5 -51t-73 -44.5t-74 -40.5t-67.5 -38.5 q-18 -12 -33 -25t-31 -24.5t-33.5 -19.5t-40.5 -9q-2 6 -3 11.5t-1 10.5q0 23 15 38t34 29t36.5 29t22.5 38q-6 23 -17.5 35.5t-24 22.5t-23 21.5t-13.5 32.5q-1 6 -1.5 12t-0.5 12q0 39 18 77.5t47 69t65 49.5t72 19q32 0 61 -17.5t51 -56.5zM90 1054q2 33 4 53t4 30.5 t3.5 14.5t3.5 5q5 5 10 9t10 4q8 0 15 -7q30 -29 68 -59t72.5 -66t58 -81t23.5 -105q0 -13 -3 -28l-1 -3q0 -17 -9 -23t-20.5 -9.5l-23 -7t-16.5 -14.5q5 -77 25 -153.5t42 -152t39.5 -151.5t17.5 -153q0 -39 -5.5 -78t-19.5 -79q-23 14 -34.5 32t-17 37t-7 39t-4.5 39 q-7 49 -22 107t-33 120.5t-38 127t-36 127.5q-12 48 -30.5 98.5t-35 103t-28.5 105.5t-12 107v11z" />
<glyph unicode="&#x623;" horiz-adv-x="648" arabic-form="final" d="M339 1911q-4 -7 -14 -11.5t-22 -7t-25 -3.5t-23 -1l-58 5h-8q-25 0 -48.5 -13t-26.5 -39q26 -42 75 -59.5t117 -17.5h24q21 8 38 24t34 32.5t34.5 28.5t40.5 12q4 0 8 -0.5t9 -1.5q-6 -38 -26.5 -69.5t-49.5 -59t-64.5 -51t-73 -44.5t-74 -40.5t-67.5 -38.5 q-18 -12 -33 -25t-31 -24.5t-33.5 -19.5t-40.5 -9q-2 6 -3 11.5t-1 10.5q0 23 15 38t34 29t36.5 29t22.5 38q-6 23 -17.5 35.5t-24 22.5t-23 21.5t-13.5 32.5q-1 6 -1.5 12t-0.5 12q0 39 18 77.5t47 69t65 49.5t72 19q32 0 61 -17.5t51 -56.5zM661 205q36 0 61.5 -10.5 t42 -26t24 -34t7.5 -34.5q0 -21 -11.5 -39.5t-30 -32t-43 -21t-50.5 -7.5h-56q-93 0 -158.5 20t-110.5 61t-73 103t-44 147q-20 103 -41.5 212.5t-38.5 226.5q-9 56 -22 114.5t-25 117t-20.5 115t-8.5 109.5q0 45 8 86t28 77q36 12 70 12q45 0 82.5 -18.5t67.5 -49.5 t51.5 -70t33.5 -80q-27 1 -49 12.5t-41.5 25.5t-39.5 25.5t-44 11.5q-15 0 -33 -6q-9 -21 -13 -46.5t-4 -54.5q0 -54 11 -117t26.5 -130.5t31.5 -136.5t27 -135q2 -12 3.5 -24t3.5 -23q9 -58 18 -108t23 -91.5t35 -74.5t54.5 -56t81 -35.5t114.5 -14.5h52z" />
<glyph unicode="&#x624;" horiz-adv-x="698" arabic-form="isolated" d="M483 1114q-4 -7 -14 -11.5t-22 -7t-25 -3.5t-23 -1l-58 5h-8q-25 0 -48.5 -13t-26.5 -39q26 -42 75 -59.5t117 -17.5h24q21 8 38 24t34 32.5t34.5 28.5t40.5 12q4 0 8 -0.5t9 -1.5q-6 -38 -26.5 -69.5t-49.5 -59t-64.5 -51t-73 -44.5t-74 -40.5t-67.5 -38.5 q-18 -12 -33 -25t-31 -24.5t-33.5 -19.5t-40.5 -9q-2 6 -3 11.5t-1 10.5q0 23 15 38t34 29t36.5 29t22.5 38q-6 23 -17.5 35.5t-24 22.5t-23 21.5t-13.5 32.5q-1 6 -1.5 12t-0.5 12q0 39 18 77.5t47 69t65 49.5t72 19q32 0 61 -17.5t51 -56.5zM-93 -182q53 34 115 58.5 t126.5 47t127.5 46.5t117.5 56.5t96.5 77.5t66 108q-14 8 -30 11t-33 3q-38 0 -79 -9t-80 -9q-26 0 -49.5 6.5t-43.5 26.5q-14 35 -21.5 82.5t-7.5 97.5q0 45 7.5 87.5t24 75.5t43 53.5t65.5 20.5q15 0 31 -3.5t35 -10.5q51 -19 89 -60t64 -95t39 -118t13 -129 q0 -46 -6.5 -91t-20 -86t-34 -76t-48.5 -61q-34 -32 -80.5 -55t-102 -38t-118 -22.5t-128.5 -7.5q-45 0 -89 3t-89 10z" />
<glyph unicode="&#x624;" horiz-adv-x="855" arabic-form="final" d="M585 918q-4 -7 -14 -11.5t-22 -7t-25 -3.5t-23 -1l-58 5h-8q-25 0 -48.5 -13t-26.5 -39q26 -42 75 -59.5t117 -17.5h24q21 8 38 24t34 32.5t34.5 28.5t40.5 12q4 0 8 -0.5t9 -1.5q-6 -38 -26.5 -69.5t-49.5 -59t-64.5 -51t-73 -44.5t-74 -40.5t-67.5 -38.5 q-18 -12 -33 -25t-31 -24.5t-33.5 -19.5t-40.5 -9q-2 6 -3 11.5t-1 10.5q0 23 15 38t34 29t36.5 29t22.5 38q-6 23 -17.5 35.5t-24 22.5t-23 21.5t-13.5 32.5q-1 6 -1.5 12t-0.5 12q0 39 18 77.5t47 69t65 49.5t72 19q32 0 61 -17.5t51 -56.5zM830 205h36q12 -5 24.5 -15 t23 -23.5t17 -30t6.5 -34.5q0 -13 -3 -27.5t-11 -28t-21.5 -25.5t-35.5 -21q-11 0 -32 -0.5t-42 -2t-37.5 -6t-19.5 -11.5q-27 -87 -66 -164t-95 -135.5t-131.5 -93t-176.5 -36.5h-11q-41 0 -85.5 4.5t-90 9.5t-90.5 10t-87 6q48 35 107 56.5t121.5 39t125 35.5t118.5 46 l27 13q33 16 68 34.5t64 42.5t50 54.5t27 71.5q-32 9 -71 14.5t-79.5 12.5t-78.5 18.5t-66 33.5q-16 40 -24 84t-8 88q0 45 9 87t27.5 75t47 54.5t66.5 24.5q5 1 9 1h9q49 0 85 -23t63.5 -58.5t50 -77.5t45.5 -80q10 -16 27.5 -19.5t37.5 -3.5h70z" />
<glyph unicode="&#x625;" horiz-adv-x="503" arabic-form="isolated" d="M348 -149q-4 -7 -14 -11.5t-22 -7t-25 -3.5t-23 -1l-58 5h-8q-25 0 -48.5 -13t-26.5 -39q26 -42 75 -59.5t117 -17.5h24q21 8 38 24t34 32.5t34.5 28.5t40.5 12q4 0 8 -0.5t9 -1.5q-6 -38 -26.5 -69.5t-49.5 -59t-64.5 -51t-73 -44.5t-74 -40.5t-67.5 -38.5 q-18 -12 -33 -25t-31 -24.5t-33.5 -19.5t-40.5 -9q-2 6 -3 11.5t-1 10.5q0 23 15 38t34 29t36.5 29t22.5 38q-6 23 -17.5 35.5t-24 22.5t-23 21.5t-13.5 32.5q-1 6 -1.5 12t-0.5 12q0 39 18 77.5t47 69t65 49.5t72 19q32 0 61 -17.5t51 -56.5zM90 1054q2 33 4 53t4 30.5 t3.5 14.5t3.5 5q5 5 10 9t10 4q8 0 15 -7q30 -29 68 -59t72.5 -66t58 -81t23.5 -105q0 -13 -3 -28l-1 -3q0 -17 -9 -23t-20.5 -9.5l-23 -7t-16.5 -14.5q5 -77 25 -153.5t42 -152t39.5 -151.5t17.5 -153q0 -39 -5.5 -78t-19.5 -79q-23 14 -34.5 32t-17 37t-7 39t-4.5 39 q-7 49 -22 107t-33 120.5t-38 127t-36 127.5q-12 48 -30.5 98.5t-35 103t-28.5 105.5t-12 107v11z" />
<glyph unicode="&#x625;" horiz-adv-x="647" arabic-form="final" d="M546 -129q-4 -7 -14 -11.5t-22 -7t-25 -3.5t-23 -1l-58 5h-8q-25 0 -48.5 -13t-26.5 -39q26 -42 75 -59.5t117 -17.5h24q21 8 38 24t34 32.5t34.5 28.5t40.5 12q4 0 8 -0.5t9 -1.5q-6 -38 -26.5 -69.5t-49.5 -59t-64.5 -51t-73 -44.5t-74 -40.5t-67.5 -38.5 q-18 -12 -33 -25t-31 -24.5t-33.5 -19.5t-40.5 -9q-2 6 -3 11.5t-1 10.5q0 23 15 38t34 29t36.5 29t22.5 38q-6 23 -17.5 35.5t-24 22.5t-23 21.5t-13.5 32.5q-1 6 -1.5 12t-0.5 12q0 39 18 77.5t47 69t65 49.5t72 19q32 0 61 -17.5t51 -56.5zM660 205q36 0 61.5 -10.5 t42 -26t24 -34t7.5 -34.5q0 -21 -11.5 -39.5t-30 -32t-43 -21t-50.5 -7.5h-56q-93 0 -158.5 20t-110.5 61t-73 103t-44 147q-20 103 -41.5 212.5t-38.5 226.5q-9 56 -22 114.5t-25 117t-20.5 115t-8.5 109.5q0 45 8 86t28 77q36 12 70 12q45 0 82.5 -18.5t67.5 -49.5 t51.5 -70t33.5 -80q-27 1 -49 12.5t-41.5 25.5t-39.5 25.5t-44 11.5q-15 0 -33 -6q-9 -21 -13 -46.5t-4 -54.5q0 -54 11 -117t26.5 -130.5t31.5 -136.5t27 -135q2 -12 3.5 -24t3.5 -23q9 -58 18 -108t23 -91.5t35 -74.5t54.5 -56t81 -35.5t114.5 -14.5h52z" />
<glyph unicode="&#x626;" horiz-adv-x="1244" arabic-form="isolated" d="M455 1001q-4 -7 -14 -11.5t-22 -7t-25 -3.5t-23 -1l-58 5h-8q-25 0 -48.5 -13t-26.5 -39q26 -42 75 -59.5t117 -17.5h24q21 8 38 24t34 32.5t34.5 28.5t40.5 12q4 0 8 -0.5t9 -1.5q-6 -38 -26.5 -69.5t-49.5 -59t-64.5 -51t-73 -44.5t-74 -40.5t-67.5 -38.5 q-18 -12 -33 -25t-31 -24.5t-33.5 -19.5t-40.5 -9q-2 6 -3 11.5t-1 10.5q0 23 15 38t34 29t36.5 29t22.5 38q-6 23 -17.5 35.5t-24 22.5t-23 21.5t-13.5 32.5q-1 6 -1.5 12t-0.5 12q0 39 18 77.5t47 69t65 49.5t72 19q32 0 61 -17.5t51 -56.5zM1177 736q4 -45 13.5 -91.5 t9.5 -87.5q0 -30 -9 -54.5t-33 -41.5q-20 1 -28.5 13.5t-15.5 26.5t-16 25.5t-29 12.5q-98 -35 -173.5 -91.5t-121.5 -144.5q17 -24 40.5 -31.5t50.5 -7.5l94 5q11 0 21.5 -1t20.5 -4q52 -16 74.5 -54.5t22.5 -95.5q0 -28 -5 -59t-14 -66q-3 -12 -10 -26t-15 -27t-15 -23 t-9 -13q-20 -31 -51 -65t-71 -67.5t-88 -64t-101 -54t-110 -37.5t-115 -14q-48 0 -96 11t-95 35q-53 28 -91.5 72t-63.5 98.5t-36.5 118t-11.5 129.5q0 79 16 158.5t46 150t73 127.5t97 91v-13q0 -45 -11.5 -83.5t-29 -74t-37.5 -69.5t-37.5 -70t-29 -76.5t-11.5 -89.5 q0 -40 9 -85q5 -25 22 -53.5t39.5 -55t48 -48t47.5 -30.5q34 -14 71 -20.5t76 -6.5q70 0 141.5 19t134.5 51t112 74.5t75 89.5q-19 13 -43.5 19.5t-51.5 10.5t-54.5 7.5t-52 10t-44 18.5t-30.5 32q-5 21 -6.5 40.5t-1.5 38.5q0 63 23.5 121t73.5 124q29 38 66 85.5t79 91.5 t87.5 79t91.5 49q8 2 14 2q13 0 25.5 -5t22.5 -12t17 -13.5t9 -10.5z" />
<glyph unicode="&#x626;" horiz-adv-x="883" arabic-form="final" d="M891 0q-7 0 -15.5 -0.5t-12.5 -1.5q-14 -3 -26.5 -6t-24 -8.5t-22.5 -15t-22 -25.5q33 -20 73.5 -28.5t78 -19t66 -30t37.5 -60.5q6 -27 6 -55q0 -60 -25 -116.5t-68.5 -107t-101 -92.5t-123.5 -72t-136.5 -47t-138.5 -17q-67 0 -128 18t-110 57q-36 28 -62 67t-43 85 t-25 96.5t-8 102.5q0 76 17 151.5t48.5 137.5t77 106.5t103.5 59.5q-6 -34 -22 -63.5t-36 -57.5t-42 -57.5t-40 -62.5t-29.5 -72t-11.5 -87q0 -12 1 -25t3 -27q8 -59 37 -101.5t72 -69.5t97 -40t112 -13q62 0 125 13.5t118.5 39t99 61t67.5 80.5q-36 18 -75 22.5t-74.5 11 t-64 21.5t-42.5 53q-18 48 -18 94q0 58 24.5 108.5t62.5 90.5t84.5 67t91.5 38q4 1 18 1.5t27 0.5q19 -1 35.5 -10t29 -23t20 -32.5t7.5 -37.5q0 -16 -5 -32.5t-16.5 -31t-29 -24.5t-41.5 -14zM408 575q-4 -7 -14 -11.5t-22 -7t-25 -3.5t-23 -1l-58 5h-8q-25 0 -48.5 -13 t-26.5 -39q26 -42 75 -59.5t117 -17.5h24q21 8 38 24t34 32.5t34.5 28.5t40.5 12q4 0 8 -0.5t9 -1.5q-6 -38 -26.5 -69.5t-49.5 -59t-64.5 -51t-73 -44.5t-74 -40.5t-67.5 -38.5q-18 -12 -33 -25t-31 -24.5t-33.5 -19.5t-40.5 -9q-2 6 -3 11.5t-1 10.5q0 23 15 38t34 29 t36.5 29t22.5 38q-6 23 -17.5 35.5t-24 22.5t-23 21.5t-13.5 32.5q-1 6 -1.5 12t-0.5 12q0 39 18 77.5t47 69t65 49.5t72 19q32 0 61 -17.5t51 -56.5z" />
<glyph unicode="&#x626;" horiz-adv-x="491" arabic-form="initial" d="M145 205q52 2 100.5 13.5t77.5 28.5q-2 31 -9 51.5t-17 35t-21 26.5t-20.5 26.5t-15.5 34t-6 50.5q0 26 13 54t30 58q30 -34 57 -64t47 -64t32 -77t12 -104q0 -48 -13.5 -93.5t-44.5 -85.5q-41 -53 -99 -74t-122 -21h-152q-48 11 -71 40.5t-23 63.5t23.5 63.5t70.5 37.5 h151zM324 1008q-4 -7 -14 -11.5t-22 -7t-25 -3.5t-23 -1l-58 5h-8q-25 0 -48.5 -13t-26.5 -39q26 -42 75 -59.5t117 -17.5h24q21 8 38 24t34 32.5t34.5 28.5t40.5 12q4 0 8 -0.5t9 -1.5q-6 -38 -26.5 -69.5t-49.5 -59t-64.5 -51t-73 -44.5t-74 -40.5t-67.5 -38.5 q-18 -12 -33 -25t-31 -24.5t-33.5 -19.5t-40.5 -9q-2 6 -3 11.5t-1 10.5q0 23 15 38t34 29t36.5 29t22.5 38q-6 23 -17.5 35.5t-24 22.5t-23 21.5t-13.5 32.5q-1 6 -1.5 12t-0.5 12q0 39 18 77.5t47 69t65 49.5t72 19q32 0 61 -17.5t51 -56.5z" />
<glyph unicode="&#x626;" horiz-adv-x="887" arabic-form="medial" d="M896 205q45 -14 67 -42t22 -60t-22 -60.5t-65 -42.5h-68q-46 0 -94.5 13.5t-91 38t-76.5 58.5t-50 75q-50 -36 -109.5 -67.5t-125.5 -56t-136.5 -40.5t-140.5 -21h-16q-35 15 -51.5 44t-16.5 59q0 34 18 62.5t50 39.5h21q79 6 156 25t149 46.5t135.5 60.5t115.5 65 q5 -48 28.5 -85t59.5 -62t81 -37.5t94 -12.5h66zM590 829q-4 -7 -14 -11.5t-22 -7t-25 -3.5t-23 -1l-58 5h-8q-25 0 -48.5 -13t-26.5 -39q26 -42 75 -59.5t117 -17.5h24q21 8 38 24t34 32.5t34.5 28.5t40.5 12q4 0 8 -0.5t9 -1.5q-6 -38 -26.5 -69.5t-49.5 -59t-64.5 -51 t-73 -44.5t-74 -40.5t-67.5 -38.5q-18 -12 -33 -25t-31 -24.5t-33.5 -19.5t-40.5 -9q-2 6 -3 11.5t-1 10.5q0 23 15 38t34 29t36.5 29t22.5 38q-6 23 -17.5 35.5t-24 22.5t-23 21.5t-13.5 32.5q-1 6 -1.5 12t-0.5 12q0 39 18 77.5t47 69t65 49.5t72 19q32 0 61 -17.5 t51 -56.5z" />
<glyph unicode="&#x627;" horiz-adv-x="501" arabic-form="isolated" d="M90 1054q2 33 4 53t4 30.5t3.5 14.5t3.5 5q5 5 10 9t10 4q8 0 15 -7q30 -29 68 -59t72.5 -66t58 -81t23.5 -105q0 -13 -3 -28l-1 -3q0 -17 -9 -23t-20.5 -9.5l-23 -7t-16.5 -14.5q5 -77 25 -153.5t42 -152t39.5 -151.5t17.5 -153q0 -39 -5.5 -78t-19.5 -79 q-23 14 -34.5 32t-17 37t-7 39t-4.5 39q-7 49 -22 107t-33 120.5t-38 127t-36 127.5q-12 48 -30.5 98.5t-35 103t-28.5 105.5t-12 107v11z" />
<glyph unicode="&#x627;" horiz-adv-x="667" arabic-form="final" d="M678 205q36 0 61.5 -10.5t42 -26t24 -34t7.5 -34.5q0 -21 -11.5 -39.5t-30 -32t-43 -21t-50.5 -7.5h-56q-93 0 -158.5 20t-110.5 61t-73 103t-44 147q-20 103 -41.5 212.5t-38.5 226.5q-9 56 -22 114.5t-25 117t-20.5 115t-8.5 109.5q0 45 8 86t28 77q36 12 70 12 q45 0 82.5 -18.5t67.5 -49.5t51.5 -70t33.5 -80q-27 1 -49 12.5t-41.5 25.5t-39.5 25.5t-44 11.5q-15 0 -33 -6q-9 -21 -13 -46.5t-4 -54.5q0 -54 11 -117t26.5 -130.5t31.5 -136.5t27 -135q2 -12 3.5 -24t3.5 -23q9 -58 18 -108t23 -91.5t35 -74.5t54.5 -56t81 -35.5 t114.5 -14.5h52z" />
<glyph unicode="&#x628;" horiz-adv-x="1339" arabic-form="isolated" d="M185 792l5 1q12 0 15 -11q-6 -41 -20.5 -73.5t-30 -62.5t-27.5 -62t-12 -72v-12t1 -13q7 -69 52 -116.5t114.5 -77t158 -43t182.5 -13.5q82 0 164 9t155.5 25.5t134.5 38.5t100 49q-5 40 -22 73.5t-36 65t-33.5 64t-14.5 71.5q0 18 4 37.5t14 42.5q22 -3 45 -22.5 t44.5 -48t39 -61.5t28.5 -64q15 -43 23.5 -88.5t8.5 -89.5q0 -48 -12 -90.5t-39 -75.5q-37 -44 -98 -76t-137 -52.5t-162 -30.5t-173 -10q-102 0 -196.5 12.5t-167.5 37.5q-60 21 -104 59.5t-72.5 89.5t-42.5 110.5t-14 122.5q0 49 8 97.5t24 94.5t39.5 87.5t53.5 76.5z M630 -100q54 -5 91 -26t66 -52q-3 -50 -11 -93t-38 -65h-13q-95 0 -135 60q3 26 3.5 50t3 46t9.5 42t24 38z" />
<glyph unicode="&#x628;" horiz-adv-x="1501" arabic-form="final" d="M1515 205q21 -2 38.5 -13t29.5 -26t18.5 -32t6.5 -31q0 -15 -8 -32.5t-21 -33.5t-30.5 -26.5t-35.5 -10.5h-13q-38 0 -73 15.5t-63.5 42.5t-48 63t-27.5 76q-66 -17 -144.5 -39t-163.5 -41.5t-174 -32.5t-176 -13q-30 0 -60 2t-59 6q-48 6 -100 20.5t-101 36t-91.5 49.5 t-70.5 61q-44 51 -65.5 125t-21.5 155q0 50 8.5 99.5t25 95t42 85t60.5 69.5l5 1q11 0 14 -10q-12 -30 -27.5 -63.5t-29.5 -69t-23.5 -72.5t-9.5 -74q0 -32 9 -63.5t32 -60.5q38 -49 93.5 -83.5t123.5 -56t145.5 -31.5t158.5 -10q88 0 177 10.5t172 29t157.5 44.5t132.5 57 q12 -20 15 -38.5t3 -36.5t1.5 -36t10.5 -36q18 -37 58 -54t85 -17h15zM624 -98q54 -5 91 -26t66 -52q-3 -50 -11 -93t-38 -65h-13q-95 0 -135 60q3 26 3.5 50t3 46t9.5 42t24 38z" />
<glyph unicode="&#x628;" horiz-adv-x="484" arabic-form="initial" d="M145 205q52 2 100.5 13.5t77.5 28.5q-2 31 -9 51.5t-17 35t-21 26.5t-20.5 26.5t-15.5 34t-6 50.5q0 26 13 54t30 58q30 -34 57 -64t47 -64t32 -77t12 -104q0 -48 -13.5 -93.5t-44.5 -85.5q-41 -53 -99 -74t-122 -21h-152q-48 11 -71 40.5t-23 63.5t23.5 63.5t70.5 37.5 h151zM155 -89q54 -5 91 -26t66 -52q-3 -50 -11 -93t-38 -65h-13q-95 0 -135 60q3 26 3.5 50t3 46t9.5 42t24 38z" />
<glyph unicode="&#x628;" horiz-adv-x="887" arabic-form="medial" d="M896 205q45 -14 67 -42t22 -60t-22 -60.5t-65 -42.5h-68q-46 0 -94.5 13.5t-91 38t-76.5 58.5t-50 75q-50 -36 -109.5 -67.5t-125.5 -56t-136.5 -40.5t-140.5 -21h-16q-35 15 -51.5 44t-16.5 59q0 34 18 62.5t50 39.5h21q79 6 156 25t149 46.5t135.5 60.5t115.5 65 q5 -48 28.5 -85t59.5 -62t81 -37.5t94 -12.5h66zM434 -99q54 -5 91 -26t66 -52q-3 -50 -11 -93t-38 -65h-13q-95 0 -135 60q3 26 3.5 50t3 46t9.5 42t24 38z" />
<glyph unicode="&#x629;" horiz-adv-x="686" arabic-form="isolated" d="M285 463q-16 -17 -31 -35t-27 -39.5t-19 -48t-7 -59.5v-9q20 -26 62.5 -39.5t91.5 -13.5q31 0 61 5t54.5 15.5t42 26t23.5 36.5q-52 52 -111 96t-135 71zM644 853q-21 -32 -49 -57t-56.5 -49.5t-55 -51t-45.5 -59.5q33 -41 71.5 -77t71 -78t54 -95t21.5 -127 q0 -59 -31.5 -105t-80 -78t-106.5 -49.5t-112 -19.5h-7q-55 2 -93.5 22t-63 52t-35.5 73.5t-11 87.5q0 70 23 141t62 126q-20 18 -44 38.5t-45.5 45t-36 53.5t-14.5 64q0 40 23 83q42 -5 75 -18.5t63 -30l60 -33t67 -26.5q40 18 77 38.5t73 42.5t71.5 44.5t73.5 42.5z M567 904q-11 -3 -20 -4t-18 -1q-27 0 -49.5 10t-44 22.5t-44 24.5t-50.5 17q-21 -2 -30.5 -16t-16 -31t-15 -32t-27.5 -19q-31 0 -55 6.5t-44.5 17t-39 22.5t-38.5 23v6q0 48 8 85.5t18 74.5l3 10q5 1 9.5 1.5t9.5 0.5q22 0 44.5 -7t45 -17t45 -20.5t43.5 -16.5 q20 2 32.5 12t21 24t14 30.5t11.5 32.5q46 -1 85 -12t67 -31t44 -49t16 -66q0 -45 -25 -98z" />
<glyph unicode="&#x629;" horiz-adv-x="1072" arabic-form="final" d="M1073 205q48 -9 71 -39t23 -63q0 -35 -24.5 -64.5t-69.5 -38.5h-12q-5 0 -11 -0.5t-12 -0.5q-9 -1 -17.5 -1h-16.5q-115 0 -217.5 46.5t-174.5 141.5q-31 -27 -71 -53t-85.5 -46.5t-95 -33t-99.5 -12.5q-25 0 -50 3.5t-49 11.5q-32 10 -51 24.5t-30 34t-15 44t-5 54.5v16 q0 64 20 114.5t54 92t78 74.5t92 61.5t97 54.5t92 52q1 5 1 8.5v8.5q0 21 -4 44.5t-9.5 48.5t-9.5 49.5t-4 48.5q0 27 8 51.5t28 44.5q18 -20 30.5 -51t21.5 -66t16 -71t13 -66q5 -23 6.5 -34t2.5 -21t3.5 -24.5t8.5 -45.5q13 -63 33 -130t51 -122q16 -29 34 -48t39 -32.5 t46.5 -23t56.5 -17.5q45 -12 91 -18.5t94 -6.5h22zM245 434q-23 -19 -46 -42.5t-38 -62.5q-4 -10 -6.5 -17t-2.5 -12q0 -12 25 -24q23 -12 48.5 -17.5t53.5 -5.5q40 0 81 9.5t79 25t70.5 35t53.5 40.5q-8 63 -19 123t-30 113q-35 -8 -58 -18.5t-43 -23.5q-23 -16 -36 -24.5 t-22 -13.5t-16 -9.5t-17 -12.5t-26 -21t-43 -35zM609 1092q-11 -3 -20 -4t-18 -1q-27 0 -49.5 10t-44 22.5t-44 24.5t-50.5 17q-21 -2 -30.5 -16t-16 -31t-15 -32t-27.5 -19q-31 0 -55 6.5t-44.5 17t-39 22.5t-38.5 23v6q0 48 8 85.5t18 74.5l3 10q5 1 9.5 1.5t9.5 0.5 q22 0 44.5 -7t45 -17t45 -20.5t43.5 -16.5q20 2 32.5 12t21 24t14 30.5t11.5 32.5q46 -1 85 -12t67 -31t44 -49t16 -66q0 -45 -25 -98z" />
<glyph unicode="&#x62a;" horiz-adv-x="1339" arabic-form="isolated" d="M185 792l5 1q12 0 15 -11q-6 -41 -20.5 -73.5t-30 -62.5t-27.5 -62t-12 -72v-12t1 -13q7 -69 52 -116.5t114.5 -77t158 -43t182.5 -13.5q82 0 164 9t155.5 25.5t134.5 38.5t100 49q-5 40 -22 73.5t-36 65t-33.5 64t-14.5 71.5q0 18 4 37.5t14 42.5q22 -3 45 -22.5 t44.5 -48t39 -61.5t28.5 -64q15 -43 23.5 -88.5t8.5 -89.5q0 -48 -12 -90.5t-39 -75.5q-37 -44 -98 -76t-137 -52.5t-162 -30.5t-173 -10q-102 0 -196.5 12.5t-167.5 37.5q-60 21 -104 59.5t-72.5 89.5t-42.5 110.5t-14 122.5q0 49 8 97.5t24 94.5t39.5 87.5t53.5 76.5z M866 609q-11 -3 -20 -4t-18 -1q-27 0 -49.5 10t-44 22.5t-44 24.5t-50.5 17q-21 -2 -30.5 -16t-16 -31t-15 -32t-27.5 -19q-31 0 -55 6.5t-44.5 17t-39 22.5t-38.5 23v6q0 48 8 85.5t18 74.5l3 10q5 1 9.5 1.5t9.5 0.5q22 0 44.5 -7t45 -17t45 -20.5t43.5 -16.5 q20 2 32.5 12t21 24t14 30.5t11.5 32.5q46 -1 85 -12t67 -31t44 -49t16 -66q0 -45 -25 -98z" />
<glyph unicode="&#x62a;" horiz-adv-x="1501" arabic-form="final" d="M1515 205q21 -2 38.5 -13t29.5 -26t18.5 -32t6.5 -31q0 -15 -8 -32.5t-21 -33.5t-30.5 -26.5t-35.5 -10.5h-13q-38 0 -73 15.5t-63.5 42.5t-48 63t-27.5 76q-66 -17 -144.5 -39t-163.5 -41.5t-174 -32.5t-176 -13q-30 0 -60 2t-59 6q-48 6 -100 20.5t-101 36t-91.5 49.5 t-70.5 61q-44 51 -65.5 125t-21.5 155q0 50 8.5 99.5t25 95t42 85t60.5 69.5l5 1q11 0 14 -10q-12 -30 -27.5 -63.5t-29.5 -69t-23.5 -72.5t-9.5 -74q0 -32 9 -63.5t32 -60.5q38 -49 93.5 -83.5t123.5 -56t145.5 -31.5t158.5 -10q88 0 177 10.5t172 29t157.5 44.5t132.5 57 q12 -20 15 -38.5t3 -36.5t1.5 -36t10.5 -36q18 -37 58 -54t85 -17h15zM938 596q-11 -3 -20 -4t-18 -1q-27 0 -49.5 10t-44 22.5t-44 24.5t-50.5 17q-21 -2 -30.5 -16t-16 -31t-15 -32t-27.5 -19q-31 0 -55 6.5t-44.5 17t-39 22.5t-38.5 23v6q0 48 8 85.5t18 74.5l3 10 q5 1 9.5 1.5t9.5 0.5q22 0 44.5 -7t45 -17t45 -20.5t43.5 -16.5q20 2 32.5 12t21 24t14 30.5t11.5 32.5q46 -1 85 -12t67 -31t44 -49t16 -66q0 -45 -25 -98z" />
<glyph unicode="&#x62a;" horiz-adv-x="531" arabic-form="initial" d="M145 205q52 2 100.5 13.5t77.5 28.5q-2 31 -9 51.5t-17 35t-21 26.5t-20.5 26.5t-15.5 34t-6 50.5q0 26 13 54t30 58q30 -34 57 -64t47 -64t32 -77t12 -104q0 -48 -13.5 -93.5t-44.5 -85.5q-41 -53 -99 -74t-122 -21h-152q-48 11 -71 40.5t-23 63.5t23.5 63.5t70.5 37.5 h151zM421 668q-11 -3 -20 -4t-18 -1q-27 0 -49.5 10t-44 22.5t-44 24.5t-50.5 17q-21 -2 -30.5 -16t-16 -31t-15 -32t-27.5 -19q-31 0 -55 6.5t-44.5 17t-39 22.5t-38.5 23v6q0 48 8 85.5t18 74.5l3 10q5 1 9.5 1.5t9.5 0.5q22 0 44.5 -7t45 -17t45 -20.5t43.5 -16.5 q20 2 32.5 12t21 24t14 30.5t11.5 32.5q46 -1 85 -12t67 -31t44 -49t16 -66q0 -45 -25 -98z" />
<glyph unicode="&#x62a;" horiz-adv-x="887" arabic-form="medial" d="M896 205q45 -14 67 -42t22 -60t-22 -60.5t-65 -42.5h-68q-46 0 -94.5 13.5t-91 38t-76.5 58.5t-50 75q-50 -36 -109.5 -67.5t-125.5 -56t-136.5 -40.5t-140.5 -21h-16q-35 15 -51.5 44t-16.5 59q0 34 18 62.5t50 39.5h21q79 6 156 25t149 46.5t135.5 60.5t115.5 65 q5 -48 28.5 -85t59.5 -62t81 -37.5t94 -12.5h66zM722 570q-11 -3 -20 -4t-18 -1q-27 0 -49.5 10t-44 22.5t-44 24.5t-50.5 17q-21 -2 -30.5 -16t-16 -31t-15 -32t-27.5 -19q-31 0 -55 6.5t-44.5 17t-39 22.5t-38.5 23v6q0 48 8 85.5t18 74.5l3 10q5 1 9.5 1.5t9.5 0.5 q22 0 44.5 -7t45 -17t45 -20.5t43.5 -16.5q20 2 32.5 12t21 24t14 30.5t11.5 32.5q46 -1 85 -12t67 -31t44 -49t16 -66q0 -45 -25 -98z" />
<glyph unicode="&#x62b;" horiz-adv-x="1339" arabic-form="isolated" d="M185 792l5 1q12 0 15 -11q-6 -41 -20.5 -73.5t-30 -62.5t-27.5 -62t-12 -72v-12t1 -13q7 -69 52 -116.5t114.5 -77t158 -43t182.5 -13.5q82 0 164 9t155.5 25.5t134.5 38.5t100 49q-5 40 -22 73.5t-36 65t-33.5 64t-14.5 71.5q0 18 4 37.5t14 42.5q22 -3 45 -22.5 t44.5 -48t39 -61.5t28.5 -64q15 -43 23.5 -88.5t8.5 -89.5q0 -48 -12 -90.5t-39 -75.5q-37 -44 -98 -76t-137 -52.5t-162 -30.5t-173 -10q-102 0 -196.5 12.5t-167.5 37.5q-60 21 -104 59.5t-72.5 89.5t-42.5 110.5t-14 122.5q0 49 8 97.5t24 94.5t39.5 87.5t53.5 76.5z M495 1146q54 -5 91.5 -26t65.5 -52q-2 -50 -10.5 -93t-38.5 -65h-13q-49 0 -82 15t-53 44q3 27 3.5 51t3 46t9.5 42t24 38zM884 648q-11 -3 -20 -4t-18 -1q-27 0 -49.5 10t-44 22.5t-44 24.5t-50.5 17q-21 -2 -30.5 -16t-16 -31t-15 -32t-27.5 -19q-31 0 -55 6.5t-44.5 17 t-39 22.5t-38.5 23v6q0 48 8 85.5t18 74.5l3 10q5 1 9.5 1.5t9.5 0.5q22 0 44.5 -7t45 -17t45 -20.5t43.5 -16.5q20 2 32.5 12t21 24t14 30.5t11.5 32.5q46 -1 85 -12t67 -31t44 -49t16 -66q0 -45 -25 -98z" />
<glyph unicode="&#x62b;" horiz-adv-x="1501" arabic-form="final" d="M1515 205q21 -2 38.5 -13t29.5 -26t18.5 -32t6.5 -31q0 -15 -8 -32.5t-21 -33.5t-30.5 -26.5t-35.5 -10.5h-13q-38 0 -73 15.5t-63.5 42.5t-48 63t-27.5 76q-66 -17 -144.5 -39t-163.5 -41.5t-174 -32.5t-176 -13q-30 0 -60 2t-59 6q-48 6 -100 20.5t-101 36t-91.5 49.5 t-70.5 61q-44 51 -65.5 125t-21.5 155q0 50 8.5 99.5t25 95t42 85t60.5 69.5l5 1q11 0 14 -10q-12 -30 -27.5 -63.5t-29.5 -69t-23.5 -72.5t-9.5 -74q0 -32 9 -63.5t32 -60.5q38 -49 93.5 -83.5t123.5 -56t145.5 -31.5t158.5 -10q88 0 177 10.5t172 29t157.5 44.5t132.5 57 q12 -20 15 -38.5t3 -36.5t1.5 -36t10.5 -36q18 -37 58 -54t85 -17h15zM599 1114q54 -5 91.5 -26t65.5 -52q-2 -50 -10.5 -93t-38.5 -65h-13q-49 0 -82 15t-53 44q3 27 3.5 51t3 46t9.5 42t24 38zM988 616q-11 -3 -20 -4t-18 -1q-27 0 -49.5 10t-44 22.5t-44 24.5t-50.5 17 q-21 -2 -30.5 -16t-16 -31t-15 -32t-27.5 -19q-31 0 -55 6.5t-44.5 17t-39 22.5t-38.5 23v6q0 48 8 85.5t18 74.5l3 10q5 1 9.5 1.5t9.5 0.5q22 0 44.5 -7t45 -17t45 -20.5t43.5 -16.5q20 2 32.5 12t21 24t14 30.5t11.5 32.5q46 -1 85 -12t67 -31t44 -49t16 -66 q0 -45 -25 -98z" />
<glyph unicode="&#x62b;" horiz-adv-x="526" arabic-form="initial" d="M145 205q52 2 100.5 13.5t77.5 28.5q-2 31 -9 51.5t-17 35t-21 26.5t-20.5 26.5t-15.5 34t-6 50.5q0 26 13 54t30 58q30 -34 57 -64t47 -64t32 -77t12 -104q0 -48 -13.5 -93.5t-44.5 -85.5q-41 -53 -99 -74t-122 -21h-152q-48 11 -71 40.5t-23 63.5t23.5 63.5t70.5 37.5 h151zM30 1162q54 -5 91.5 -26t65.5 -52q-2 -50 -10.5 -93t-38.5 -65h-13q-49 0 -82 15t-53 44q3 27 3.5 51t3 46t9.5 42t24 38zM419 664q-11 -3 -20 -4t-18 -1q-27 0 -49.5 10t-44 22.5t-44 24.5t-50.5 17q-21 -2 -30.5 -16t-16 -31t-15 -32t-27.5 -19q-31 0 -55 6.5 t-44.5 17t-39 22.5t-38.5 23v6q0 48 8 85.5t18 74.5l3 10q5 1 9.5 1.5t9.5 0.5q22 0 44.5 -7t45 -17t45 -20.5t43.5 -16.5q20 2 32.5 12t21 24t14 30.5t11.5 32.5q46 -1 85 -12t67 -31t44 -49t16 -66q0 -45 -25 -98z" />
<glyph unicode="&#x62b;" horiz-adv-x="887" arabic-form="medial" d="M896 205q45 -14 67 -42t22 -60t-22 -60.5t-65 -42.5h-68q-46 0 -94.5 13.5t-91 38t-76.5 58.5t-50 75q-50 -36 -109.5 -67.5t-125.5 -56t-136.5 -40.5t-140.5 -21h-16q-35 15 -51.5 44t-16.5 59q0 34 18 62.5t50 39.5h21q79 6 156 25t149 46.5t135.5 60.5t115.5 65 q5 -48 28.5 -85t59.5 -62t81 -37.5t94 -12.5h66zM342 1063q54 -5 91.5 -26t65.5 -52q-2 -50 -10.5 -93t-38.5 -65h-13q-49 0 -82 15t-53 44q3 27 3.5 51t3 46t9.5 42t24 38zM731 565q-11 -3 -20 -4t-18 -1q-27 0 -49.5 10t-44 22.5t-44 24.5t-50.5 17q-21 -2 -30.5 -16 t-16 -31t-15 -32t-27.5 -19q-31 0 -55 6.5t-44.5 17t-39 22.5t-38.5 23v6q0 48 8 85.5t18 74.5l3 10q5 1 9.5 1.5t9.5 0.5q22 0 44.5 -7t45 -17t45 -20.5t43.5 -16.5q20 2 32.5 12t21 24t14 30.5t11.5 32.5q46 -1 85 -12t67 -31t44 -49t16 -66q0 -45 -25 -98z" />
<glyph unicode="&#x62c;" horiz-adv-x="1138" arabic-form="isolated" d="M590 -24q54 -5 91 -26t66 -52q-3 -50 -11 -93t-38 -65h-13q-95 0 -135 60q3 26 3.5 50t3 46t9.5 42t24 38zM218 -381l-38 -5q-3 11 -4 22.5t-1 24.5q0 37 7.5 76t13.5 65l1 4q18 72 49.5 139t72 126t87.5 109t96 88q-6 20 -18.5 33t-30 20.5t-37.5 10.5t-39 3 q-22 0 -40.5 -2.5t-30.5 -5.5q-44 -10 -77 -35.5t-61.5 -56.5t-54 -62.5t-53.5 -52.5q1 65 19 127.5t51 114.5t80 89t105 52q12 3 25.5 6t32.5 4.5t44.5 2.5t62.5 1q32 0 74 -1t97 -2.5t123 -4t153 -6.5q7 -1 13.5 -1h13.5q31 0 60 3.5t58 8.5q3 -9 4 -18t1 -18 q0 -20 -5 -39.5t-11.5 -39t-14 -38t-13.5 -34.5q-61 -20 -122.5 -40t-121 -42t-114.5 -48t-104 -59q-38 -26 -76.5 -59.5t-73 -71.5t-63.5 -79.5t-49 -82.5q-13 -27 -24.5 -52t-22.5 -52t-22 -56.5t-22 -65.5z" />
<glyph unicode="&#x62c;" horiz-adv-x="1103" arabic-form="final" d="M538 -48q54 -5 91 -26t66 -52q-3 -50 -11 -93t-38 -65h-13q-95 0 -135 60q3 26 3.5 50t3 46t9.5 42t24 38zM1100 0q-63 0 -116.5 24t-100 64t-87 90t-77.5 103q-38 -17 -75 -36.5t-72 -42.5q-38 -26 -76.5 -59.5t-73 -72t-64 -80t-49.5 -82.5q-13 -27 -24.5 -52 t-22.5 -52t-21.5 -56.5t-21.5 -65.5l-38 -5q-6 22 -6 49q0 38 8 77.5t15 65.5q18 73 49.5 140t72 125.5t87.5 108.5t96 88q-6 20 -18.5 33t-29.5 20.5t-37 10.5t-39 3q-22 0 -41.5 -2.5t-31.5 -5.5q-43 -10 -76 -35.5t-61.5 -56.5t-54.5 -62t-54 -52q1 64 19.5 126.5 t51.5 114.5t80 89.5t105 52.5q46 12 94 16.5t99 4.5q56 0 113 -3.5t114 -8.5q49 -4 97 -7t96 -3q38 0 73.5 2.5t70.5 8.5q3 -9 4 -18t1 -18q0 -39 -16.5 -78.5t-28.5 -72.5l-202 -66q25 -22 57 -43t67.5 -38t72 -27.5t72.5 -10.5h15q46 -13 68.5 -42t22.5 -61t-22.5 -60.5 t-67.5 -41.5h-16z" />
<glyph unicode="&#x62c;" horiz-adv-x="1124" arabic-form="initial" d="M582 0q54 -5 91 -26t66 -52q-3 -50 -11 -93t-38 -65h-13q-95 0 -135 60q3 26 3.5 50t3 46t9.5 42t24 38zM-10 0q-35 16 -52.5 43.5t-17.5 58.5q0 29 17.5 57t52.5 46h64q37 0 85.5 5t101.5 17t107.5 31t104.5 46q-17 25 -44.5 44.5t-62.5 33t-74.5 20.5t-78.5 7 q-53 0 -100.5 -13t-81.5 -42q18 54 42.5 91t54.5 59.5t65.5 32.5t75.5 10q54 0 115 -15t126 -37.5t133 -49t137 -49t137.5 -37.5t133.5 -15h22q10 -26 10 -55q0 -36 -13.5 -68.5t-33.5 -51.5l-3 -2q-5 -6 -9 -9q-2 -1 -5 -1h-5h-4q-42 0 -96 2t-113 2q-66 0 -131 -5 t-118 -19q-48 -13 -103 -36t-115 -45.5t-124 -39t-128 -16.5h-72z" />
<glyph unicode="&#x62c;" horiz-adv-x="1113" arabic-form="medial" d="M459 -98q54 -5 91 -26t66 -52q-3 -50 -11 -93t-38 -65h-13q-95 0 -135 60q3 26 3.5 50t3 46t9.5 42t24 38zM709 268q-38 -9 -73 -20t-64 -25q-43 -20 -97 -51.5t-114 -64t-124 -60.5t-126 -40q-21 -5 -43 -6t-44 -1h-34q-42 25 -58.5 51.5t-16.5 51.5q0 18 7 35 t18.5 30.5t24.5 23t25 13.5h44q11 0 21 0.5t21 2.5q36 7 84 20t100.5 33t105.5 48.5t100 65.5q-32 33 -85.5 49.5t-113.5 16.5q-36 0 -71.5 -5.5t-67.5 -17t-59.5 -28.5t-46.5 -40q10 69 34.5 114.5t60.5 72.5t82 38t99 11q68 0 145.5 -13.5t159.5 -29t164.5 -29 t161.5 -13.5q63 0 122 12q12 -19 17 -40t5 -42q0 -29 -8.5 -55.5t-22.5 -43.5q-5 -5 -9.5 -7.5t-8.5 -5.5q-42 -7 -98.5 -14t-118.5 -17q20 -24 47.5 -39.5t58 -25.5t62.5 -14t61 -4h90q38 -15 56.5 -43.5t18.5 -59.5q0 -33 -19.5 -62t-56.5 -40h-64q-67 0 -128 12 t-108 42.5t-78 82.5t-38 131z" />
<glyph unicode="&#x62d;" horiz-adv-x="1156" arabic-form="isolated" d="M232 -381l-38 -5q-3 11 -4 22.5t-1 24.5q0 37 7.5 76t13.5 65l1 4q18 72 49.5 139t72 126t87.5 109t96 88q-6 20 -18.5 33t-30 20.5t-37.5 10.5t-39 3q-22 0 -40.5 -2.5t-30.5 -5.5q-44 -10 -77 -35.5t-61.5 -56.5t-54 -62.5t-53.5 -52.5q1 65 19 127.5t51 114.5t80 89 t105 52q12 3 25.5 6t32.5 4.5t44.5 2.5t62.5 1q32 0 74 -1t97 -2.5t123 -4t153 -6.5q7 -1 13.5 -1h13.5q31 0 60 3.5t58 8.5q3 -9 4 -18t1 -18q0 -20 -5 -39.5t-11.5 -39t-14 -38t-13.5 -34.5q-61 -20 -122.5 -40t-121 -42t-114.5 -48t-104 -59q-38 -26 -76.5 -59.5 t-73 -71.5t-63.5 -79.5t-49 -82.5q-13 -27 -24.5 -52t-22.5 -52t-22 -56.5t-22 -65.5z" />
<glyph unicode="&#x62d;" horiz-adv-x="1103" arabic-form="final" d="M1100 0q-63 0 -116.5 24t-100 64t-87 90t-77.5 103q-38 -17 -75 -36.5t-72 -42.5q-38 -26 -76.5 -59.5t-73 -72t-64 -80t-49.5 -82.5q-13 -27 -24.5 -52t-22.5 -52t-21.5 -56.5t-21.5 -65.5l-38 -5q-6 22 -6 49q0 38 8 77.5t15 65.5q18 73 49.5 140t72 125.5t87.5 108.5 t96 88q-6 20 -18.5 33t-29.5 20.5t-37 10.5t-39 3q-22 0 -41.5 -2.5t-31.5 -5.5q-43 -10 -76 -35.5t-61.5 -56.5t-54.5 -62t-54 -52q1 64 19.5 126.5t51.5 114.5t80 89.5t105 52.5q46 12 94 16.5t99 4.5q56 0 113 -3.5t114 -8.5q49 -4 97 -7t96 -3q38 0 73.5 2.5t70.5 8.5 q3 -9 4 -18t1 -18q0 -39 -16.5 -78.5t-28.5 -72.5l-202 -66q25 -22 57 -43t67.5 -38t72 -27.5t72.5 -10.5h15q46 -13 68.5 -42t22.5 -61t-22.5 -60.5t-67.5 -41.5h-16z" />
<glyph unicode="&#x62d;" horiz-adv-x="1124" arabic-form="initial" d="M-10 0q-35 16 -52.5 43.5t-17.5 58.5q0 29 17.5 57t52.5 46h64q37 0 85.5 5t101.5 17t107.5 31t104.5 46q-17 25 -44.5 44.5t-62.5 33t-74.5 20.5t-78.5 7q-53 0 -100.5 -13t-81.5 -42q18 54 42.5 91t54.5 59.5t65.5 32.5t75.5 10q54 0 115 -15t126 -37.5t133 -49 t137 -49t137.5 -37.5t133.5 -15h22q10 -26 10 -55q0 -36 -13.5 -68.5t-33.5 -51.5l-3 -2q-5 -6 -9 -9q-2 -1 -5 -1h-5h-4q-42 0 -96 2t-113 2q-66 0 -131 -5t-118 -19q-48 -13 -103 -36t-115 -45.5t-124 -39t-128 -16.5h-72z" />
<glyph unicode="&#x62d;" horiz-adv-x="1113" arabic-form="medial" d="M709 268q-38 -9 -73 -20t-64 -25q-43 -20 -97 -51.5t-114 -64t-124 -60.5t-126 -40q-21 -5 -43 -6t-44 -1h-34q-42 25 -58.5 51.5t-16.5 51.5q0 18 7 35t18.5 30.5t24.5 23t25 13.5h44q11 0 21 0.5t21 2.5q36 7 84 20t100.5 33t105.5 48.5t100 65.5q-32 33 -85.5 49.5 t-113.5 16.5q-36 0 -71.5 -5.5t-67.5 -17t-59.5 -28.5t-46.5 -40q10 69 34.5 114.5t60.5 72.5t82 38t99 11q68 0 145.5 -13.5t159.5 -29t164.5 -29t161.5 -13.5q63 0 122 12q12 -19 17 -40t5 -42q0 -29 -8.5 -55.5t-22.5 -43.5q-5 -5 -9.5 -7.5t-8.5 -5.5q-42 -7 -98.5 -14 t-118.5 -17q20 -24 47.5 -39.5t58 -25.5t62.5 -14t61 -4h90q38 -15 56.5 -43.5t18.5 -59.5q0 -33 -19.5 -62t-56.5 -40h-64q-67 0 -128 12t-108 42.5t-78 82.5t-38 131z" />
<glyph unicode="&#x62e;" horiz-adv-x="1156" arabic-form="isolated" d="M516 551l436 -24l136 12l8 -12v-32q-26 -160 -80 -160q-303 -90 -444 -184q-221 -167 -296 -384l-56 -140l-32 -4q-8 8 -12 52q0 163 136 400q58 89 196 216v4q-25 60 -112 60h-16q-152 0 -260 -164l-52 -48h-8q0 214 184 356q100 52 272 52zM596 907q78 0 152 -80v-12 q0 -112 -48 -148h-24q-90 0 -128 64q6 176 48 176z" />
<glyph unicode="&#x62e;" horiz-adv-x="1103" arabic-form="final" d="M570 941q54 -5 91 -26t66 -52q-3 -50 -11 -93t-38 -65h-13q-95 0 -135 60q3 26 3.5 50t3 46t9.5 42t24 38zM1100 0q-63 0 -116.5 24t-100 64t-87 90t-77.5 103q-38 -17 -75 -36.5t-72 -42.5q-38 -26 -76.5 -59.5t-73 -72t-64 -80t-49.5 -82.5q-13 -27 -24.5 -52 t-22.5 -52t-21.5 -56.5t-21.5 -65.5l-38 -5q-6 22 -6 49q0 38 8 77.5t15 65.5q18 73 49.5 140t72 125.5t87.5 108.5t96 88q-6 20 -18.5 33t-29.5 20.5t-37 10.5t-39 3q-22 0 -41.5 -2.5t-31.5 -5.5q-43 -10 -76 -35.5t-61.5 -56.5t-54.5 -62t-54 -52q1 64 19.5 126.5 t51.5 114.5t80 89.5t105 52.5q46 12 94 16.5t99 4.5q56 0 113 -3.5t114 -8.5q49 -4 97 -7t96 -3q38 0 73.5 2.5t70.5 8.5q3 -9 4 -18t1 -18q0 -39 -16.5 -78.5t-28.5 -72.5l-202 -66q25 -22 57 -43t67.5 -38t72 -27.5t72.5 -10.5h15q46 -13 68.5 -42t22.5 -61t-22.5 -60.5 t-67.5 -41.5h-16z" />
<glyph unicode="&#x62e;" horiz-adv-x="1124" arabic-form="initial" d="M588 829q54 -5 91 -26t66 -52q-3 -50 -11 -93t-38 -65h-13q-95 0 -135 60q3 26 3.5 50t3 46t9.5 42t24 38zM-10 0q-35 16 -52.5 43.5t-17.5 58.5q0 29 17.5 57t52.5 46h64q37 0 85.5 5t101.5 17t107.5 31t104.5 46q-17 25 -44.5 44.5t-62.5 33t-74.5 20.5t-78.5 7 q-53 0 -100.5 -13t-81.5 -42q18 54 42.5 91t54.5 59.5t65.5 32.5t75.5 10q54 0 115 -15t126 -37.5t133 -49t137 -49t137.5 -37.5t133.5 -15h22q10 -26 10 -55q0 -36 -13.5 -68.5t-33.5 -51.5l-3 -2q-5 -6 -9 -9q-2 -1 -5 -1h-5h-4q-42 0 -96 2t-113 2q-66 0 -131 -5 t-118 -19q-48 -13 -103 -36t-115 -45.5t-124 -39t-128 -16.5h-72z" />
<glyph unicode="&#x62e;" horiz-adv-x="1113" arabic-form="medial" d="M586 920q54 -5 91 -26t66 -52q-3 -50 -11 -93t-38 -65h-13q-95 0 -135 60q3 26 3.5 50t3 46t9.5 42t24 38zM709 268q-38 -9 -73 -20t-64 -25q-43 -20 -97 -51.5t-114 -64t-124 -60.5t-126 -40q-21 -5 -43 -6t-44 -1h-34q-42 25 -58.5 51.5t-16.5 51.5q0 18 7 35 t18.5 30.5t24.5 23t25 13.5h44q11 0 21 0.5t21 2.5q36 7 84 20t100.5 33t105.5 48.5t100 65.5q-32 33 -85.5 49.5t-113.5 16.5q-36 0 -71.5 -5.5t-67.5 -17t-59.5 -28.5t-46.5 -40q10 69 34.5 114.5t60.5 72.5t82 38t99 11q68 0 145.5 -13.5t159.5 -29t164.5 -29 t161.5 -13.5q63 0 122 12q12 -19 17 -40t5 -42q0 -29 -8.5 -55.5t-22.5 -43.5q-5 -5 -9.5 -7.5t-8.5 -5.5q-42 -7 -98.5 -14t-118.5 -17q20 -24 47.5 -39.5t58 -25.5t62.5 -14t61 -4h90q38 -15 56.5 -43.5t18.5 -59.5q0 -33 -19.5 -62t-56.5 -40h-64q-67 0 -128 12 t-108 42.5t-78 82.5t-38 131z" />
<glyph unicode="&#x62f;" horiz-adv-x="728" arabic-form="isolated" d="M83 0q-12 11 -17.5 33t-5.5 48q0 29 5.5 58.5t15.5 48.5q39 35 93.5 52.5t113.5 29.5t116.5 25t104.5 40q-42 37 -95 65.5t-108.5 54.5t-110 53t-98.5 63q3 12 4 23t1 22l-4 70q0 10 1 20.5t3 22.5q6 1 8.5 4.5t9.5 3.5q62 0 126.5 -16t125.5 -45t115 -70.5t94 -92 t63.5 -109t23.5 -122.5q0 -68 -28 -136q-62 -28 -133 -44.5t-144 -30.5t-145 -29.5t-135 -41.5z" />
<glyph unicode="&#x62f;" horiz-adv-x="1002" arabic-form="final" d="M1000 0q-14 0 -25 1.5t-21 3.5t-20.5 6t-23.5 9q-34 13 -64 34t-59 45.5t-58 51.5t-62 53q-26 -57 -51.5 -119t-60.5 -113.5t-83 -84.5t-119 -33q-61 0 -106 28.5t-78 76.5t-54 112.5t-33 136t-17 147t-5 145.5q0 36 1 69.5t3 64.5q19 -36 29.5 -79.5t18 -90.5t13 -95.5 t13.5 -93t22 -84t37 -68.5t58 -46t86 -17q56 0 104 29t83 77.5t54.5 112t19.5 131.5v21q0 46 -12 90t-26.5 86.5t-26.5 84t-12 82.5q0 26 5.5 50.5t18.5 49.5q6 -4 11.5 -8t7.5 -12q8 -61 25 -126.5t41.5 -130t56 -125.5t70.5 -111.5t84.5 -87.5t97.5 -55q11 -4 25 -8.5 t34 -4.5h11q39 -16 60.5 -44t21.5 -59q0 -29 -19 -56.5t-61 -45.5h-15z" />
<glyph unicode="&#x630;" horiz-adv-x="744" arabic-form="isolated" d="M124 727q169 -44 300 -104q260 -143 260 -316v-44q-18 -144 -52 -144q-87 -39 -452 -108l-100 -32q-20 25 -20 76v12q0 122 80 140q52 31 288 76q83 28 84 40q-51 49 -348 188l-68 48l4 28v4l-4 100q0 36 28 36zM251 1021q78 0 152 -80v-12q0 -112 -48 -148h-24 q-90 0 -128 64q6 176 48 176z" />
<glyph unicode="&#x630;" horiz-adv-x="1002" arabic-form="final" d="M410 1209q54 -5 91 -26t66 -52q-3 -50 -11 -93t-38 -65h-13q-95 0 -135 60q3 26 3.5 50t3 46t9.5 42t24 38zM1000 0q-14 0 -25 1.5t-21 3.5t-20.5 6t-23.5 9q-34 13 -64 34t-59 45.5t-58 51.5t-62 53q-26 -57 -51.5 -119t-60.5 -113.5t-83 -84.5t-119 -33 q-61 0 -106 28.5t-78 76.5t-54 112.5t-33 136t-17 147t-5 145.5q0 36 1 69.5t3 64.5q19 -36 29.5 -79.5t18 -90.5t13 -95.5t13.5 -93t22 -84t37 -68.5t58 -46t86 -17q56 0 104 29t83 77.5t54.5 112t19.5 131.5v21q0 46 -12 90t-26.5 86.5t-26.5 84t-12 82.5q0 26 5.5 50.5 t18.5 49.5q6 -4 11.5 -8t7.5 -12q8 -61 25 -126.5t41.5 -130t56 -125.5t70.5 -111.5t84.5 -87.5t97.5 -55q11 -4 25 -8.5t34 -4.5h11q39 -16 60.5 -44t21.5 -59q0 -29 -19 -56.5t-61 -45.5h-15z" />
<glyph unicode="&#x631;" horiz-adv-x="640" arabic-form="isolated" d="M383 611h19q55 -32 95 -73t66 -88t39 -99t13 -105q0 -72 -23 -141.5t-66.5 -128t-107 -101t-144.5 -60.5q-25 -5 -51 -7.5t-53 -2.5q-76 0 -159 13t-169 27q71 30 158 55t173 51t162.5 56.5t126.5 72.5q40 34 56.5 63.5t16.5 56.5q0 39 -25 75.5t-55 77t-55 87.5t-25 107 q0 15 1.5 31t6.5 33z" />
<glyph unicode="&#x631;" horiz-adv-x="818" arabic-form="final" d="M831 0q-50 -1 -75 -1h-41h-15.5h-16.5t-20.5 -0.5t-27.5 -0.5q-29 -30 -42.5 -63t-22.5 -66t-20 -65.5t-33 -60.5q-35 -44 -77.5 -73t-92 -47t-105 -25.5t-115.5 -7.5q-78 0 -160 10.5t-167 24.5q53 29 113.5 50t125 39.5t131 39t131.5 47.5q32 14 70 32t71 40.5t57 48.5 t28 56q1 5 1 10.5v10.5q0 29 -10 55.5t-25 51t-33 48t-33 47.5t-25 49.5t-10 53.5q0 20 6.5 41.5t20.5 45.5q37 0 61.5 -17.5t45 -41.5t43 -49.5t57.5 -41.5q46 -20 92.5 -28t100.5 -8h9q39 -13 60 -42t21 -61q0 -30 -18.5 -57.5t-59.5 -44.5z" />
<glyph unicode="&#x632;" horiz-adv-x="633" arabic-form="isolated" d="M281 958q54 -5 91 -26t66 -52q-3 -50 -11 -93t-38 -65h-13q-95 0 -135 60q3 26 3.5 50t3 46t9.5 42t24 38zM343 611h19q55 -32 95 -73t66 -88t39 -99t13 -105q0 -72 -23 -141.5t-66.5 -128t-107 -101t-144.5 -60.5q-25 -5 -51 -7.5t-53 -2.5q-76 0 -159 13t-169 27 q71 30 158 55t173 51t162.5 56.5t126.5 72.5q40 34 56.5 63.5t16.5 56.5q0 39 -25 75.5t-55 77t-55 87.5t-25 107q0 15 1.5 31t6.5 33z" />
<glyph unicode="&#x632;" horiz-adv-x="818" arabic-form="final" d="M289 740q54 -5 91 -26t66 -52q-3 -50 -11 -93t-38 -65h-13q-95 0 -135 60q3 26 3.5 50t3 46t9.5 42t24 38zM831 0q-50 -1 -75 -1h-41h-15.5h-16.5t-20.5 -0.5t-27.5 -0.5q-29 -30 -42.5 -63t-22.5 -66t-20 -65.5t-33 -60.5q-35 -44 -77.5 -73t-92 -47t-105 -25.5 t-115.5 -7.5q-78 0 -160 10.5t-167 24.5q53 29 113.5 50t125 39.5t131 39t131.5 47.5q32 14 70 32t71 40.5t57 48.5t28 56q1 5 1 10.5v10.5q0 29 -10 55.5t-25 51t-33 48t-33 47.5t-25 49.5t-10 53.5q0 20 6.5 41.5t20.5 45.5q37 0 61.5 -17.5t45 -41.5t43 -49.5t57.5 -41.5 q46 -20 92.5 -28t100.5 -8h9q39 -13 60 -42t21 -61q0 -30 -18.5 -57.5t-59.5 -44.5z" />
<glyph unicode="&#x633;" horiz-adv-x="1733" arabic-form="isolated" d="M1591 691q19 -21 34.5 -53t26 -71t16 -82t5.5 -86q0 -62 -12 -116.5t-38 -88.5q-41 -16 -79 -16q-48 0 -86.5 20.5t-71.5 49.5q-27 -16 -49.5 -36.5t-47 -39t-55 -31t-73.5 -12.5h-14q-2 -78 -21 -149t-52.5 -132.5t-79.5 -111t-101 -83.5q-69 -43 -163 -67.5t-197 -24.5 q-61 0 -119.5 11.5t-109.5 36.5q-59 30 -104 79.5t-76.5 111.5t-47.5 133t-16 143q0 63 12.5 123.5t38.5 114t66 98t94 74.5q-23 -49 -48 -93t-46 -88t-35 -90t-14 -99q0 -92 37 -155.5t97.5 -102.5t137 -56.5t155.5 -17.5q68 0 133.5 13.5t122.5 39.5q38 17 69 42t59 55 t54.5 63.5t56.5 66.5v13q0 48 -16.5 89t-37 79.5t-37 76t-16.5 77.5q0 23 7 47t24 50q15 -26 37.5 -52.5t50.5 -48.5t60.5 -36t67.5 -14q26 0 53.5 10t55.5 33q7 12 9 29t3.5 34t5 32.5t14.5 23.5q34 -6 56.5 -24t44 -37t47.5 -34t67 -15h16t17 2q7 17 7 41q0 38 -9.5 82.5 t-9.5 85.5q0 23 5 44.5t19 38.5z" />
<glyph unicode="&#x633;" horiz-adv-x="1886" arabic-form="final" d="M1888 205q25 0 44 -10.5t31.5 -26.5t18.5 -33.5t6 -32.5q0 -16 -6 -34t-18.5 -33t-30.5 -25t-42 -10h-29q-54 0 -105 11.5t-96 30.5q-12 -18 -31 -32t-42 -23.5t-49 -15t-53 -5.5q-42 0 -79 13.5t-60 42.5q-25 -13 -48.5 -27t-49.5 -26t-56.5 -20t-68.5 -8q-21 0 -43 3 q-4 -35 -7 -67t-12 -61q-20 -102 -72 -179t-124.5 -129t-159 -78.5t-174.5 -26.5q-90 0 -175 28.5t-151 86.5t-106 145.5t-40 206.5q0 24 2 50t6 53q13 89 65 163t133 112q-14 -41 -34.5 -83t-39.5 -86t-32.5 -89.5t-13.5 -93.5q0 -20 2.5 -40t8.5 -40q14 -47 50.5 -88.5 t89 -72.5t118 -49t136.5 -18q73 0 147 21q41 12 87.5 40.5t87.5 62t71 67t39 57.5q8 20 10.5 38t2.5 35q0 39 -13 74.5t-28.5 70.5t-28.5 72t-13 80q0 17 2.5 34.5t8.5 37.5q34 -9 57.5 -30t46.5 -42t51 -37t72 -16q27 0 58 7q19 7 28.5 23t15 36.5t10.5 41t15 36.5 q29 -14 51.5 -35t45.5 -40.5t52 -33.5t72 -14q24 0 54 6q4 9 4 24q0 26 -8.5 60t-8.5 67q0 15 2.5 28.5t10.5 26.5q33 -9 56 -26t42.5 -37t37 -41t40 -38t51.5 -28t71 -11h37z" />
<glyph unicode="&#x633;" horiz-adv-x="958" arabic-form="initial" d="M-10 0q-44 16 -64 45t-20 58q0 32 21.5 58.5t62.5 43.5h37q40 3 80.5 24.5t79.5 52t74 66t64 67.5q22 -17 37.5 -41t31.5 -46.5t35 -38t49 -15.5l12 1q24 3 38 16.5t25 33t21.5 42.5t26.5 44q32 -7 50 -28t34.5 -43.5t38.5 -40.5t61 -18q3 7 4 15.5t1 19.5q0 17 -1.5 38 t-1.5 41q0 29 7.5 52.5t32.5 29.5q34 -34 52 -94t18 -124q0 -39 -7.5 -76t-24 -65.5t-42 -45.5t-60.5 -17h-10q-25 2 -40 10.5t-27 20.5t-25.5 25t-34.5 25q-19 -14 -38.5 -30t-39.5 -29t-42 -21.5t-47 -8.5q-5 0 -10.5 0.5t-10.5 1.5q-27 5 -42 19t-26 30.5t-23.5 33 t-34.5 27.5q-31 -22 -68.5 -49.5t-79.5 -52t-86 -41t-88 -16.5z" />
<glyph unicode="&#x633;" horiz-adv-x="1153" arabic-form="medial" d="M1166 205q47 -26 66 -51t19 -51q0 -18 -8 -35.5t-21 -31t-29 -23.5t-31 -13q-39 0 -74 11.5t-65.5 29t-58.5 38.5t-54 41q-17 -51 -59 -76.5t-92 -25.5q-35 0 -70.5 13.5t-63.5 39.5q-23 -42 -58 -60.5t-73 -18.5q-30 0 -59.5 11t-53.5 31.5t-40.5 49.5t-20.5 65 q-22 -15 -47 -34t-53 -37.5t-59 -35.5t-65 -27q-20 -7 -40.5 -11t-43.5 -4h-22q-15 4 -28.5 13.5t-24 23t-17 30.5t-6.5 35q0 27 17 53.5t59 49.5h63q7 0 14 0.5t14 1.5q48 7 84.5 25.5t68.5 41.5t61.5 48t63.5 44q6 -77 44 -117.5t95 -40.5q27 0 50.5 11.5t40.5 32t26.5 49 t9.5 62.5q14 -21 32 -43t39.5 -40t46 -29.5t51.5 -11.5q23 0 47 9q12 13 17 32.5t8.5 40.5t8 40.5t15.5 33.5q18 -18 38 -43t42.5 -50.5t47 -48t53.5 -35.5q9 -5 17 -7.5t17.5 -3.5t21.5 -1.5t29 -0.5h10z" />
<glyph unicode="&#x634;" horiz-adv-x="1733" arabic-form="isolated" d="M1081 1227q54 -5 91.5 -26t65.5 -52q-2 -50 -10.5 -93t-38.5 -65h-13q-49 0 -82 15t-53 44q3 27 3.5 51t3 46t9.5 42t24 38zM1470 729q-11 -3 -20 -4t-18 -1q-27 0 -49.5 10t-44 22.5t-44 24.5t-50.5 17q-21 -2 -30.5 -16t-16 -31t-15 -32t-27.5 -19q-31 0 -55 6.5 t-44.5 17t-39 22.5t-38.5 23v6q0 48 8 85.5t18 74.5l3 10q5 1 9.5 1.5t9.5 0.5q22 0 44.5 -7t45 -17t45 -20.5t43.5 -16.5q20 2 32.5 12t21 24t14 30.5t11.5 32.5q46 -1 85 -12t67 -31t44 -49t16 -66q0 -45 -25 -98zM1591 691q19 -21 34.5 -53t26 -71t16 -82t5.5 -86 q0 -62 -12 -116.5t-38 -88.5q-41 -16 -79 -16q-48 0 -86.5 20.5t-71.5 49.5q-27 -16 -49.5 -36.5t-47 -39t-55 -31t-73.5 -12.5h-14q-2 -78 -21 -149t-52.5 -132.5t-79.5 -111t-101 -83.5q-69 -43 -163 -67.5t-197 -24.5q-61 0 -119.5 11.5t-109.5 36.5q-59 30 -104 79.5 t-76.5 111.5t-47.5 133t-16 143q0 63 12.5 123.5t38.5 114t66 98t94 74.5q-23 -49 -48 -93t-46 -88t-35 -90t-14 -99q0 -92 37 -155.5t97.5 -102.5t137 -56.5t155.5 -17.5q68 0 133.5 13.5t122.5 39.5q38 17 69 42t59 55t54.5 63.5t56.5 66.5v13q0 48 -16.5 89t-37 79.5 t-37 76t-16.5 77.5q0 23 7 47t24 50q15 -26 37.5 -52.5t50.5 -48.5t60.5 -36t67.5 -14q26 0 53.5 10t55.5 33q7 12 9 29t3.5 34t5 32.5t14.5 23.5q34 -6 56.5 -24t44 -37t47.5 -34t67 -15h16t17 2q7 17 7 41q0 38 -9.5 82.5t-9.5 85.5q0 23 5 44.5t19 38.5z" />
<glyph unicode="&#x634;" horiz-adv-x="1947" arabic-form="final" d="M1239 987q54 -5 91.5 -26t65.5 -52q-2 -50 -10.5 -93t-38.5 -65h-13q-49 0 -82 15t-53 44q3 27 3.5 51t3 46t9.5 42t24 38zM1628 489q-11 -3 -20 -4t-18 -1q-27 0 -49.5 10t-44 22.5t-44 24.5t-50.5 17q-21 -2 -30.5 -16t-16 -31t-15 -32t-27.5 -19q-31 0 -55 6.5 t-44.5 17t-39 22.5t-38.5 23v6q0 48 8 85.5t18 74.5l3 10q5 1 9.5 1.5t9.5 0.5q22 0 44.5 -7t45 -17t45 -20.5t43.5 -16.5q20 2 32.5 12t21 24t14 30.5t11.5 32.5q46 -1 85 -12t67 -31t44 -49t16 -66q0 -45 -25 -98zM1948 205q25 0 44 -10.5t31.5 -26.5t18.5 -33.5t6 -32.5 q0 -16 -6 -34t-18.5 -33t-30.5 -25t-42 -10h-29q-54 0 -105 11.5t-96 30.5q-12 -18 -31 -32t-42 -23.5t-49 -15t-53 -5.5q-42 0 -79 13.5t-60 42.5q-25 -13 -48.5 -27t-49.5 -26t-56.5 -20t-68.5 -8q-21 0 -43 3q-4 -35 -7 -67t-12 -61q-20 -102 -72 -179t-124.5 -129 t-159 -78.5t-174.5 -26.5q-90 0 -175 28.5t-151 86.5t-106 145.5t-40 206.5q0 24 2 50t6 53q13 89 65 163t133 112q-14 -41 -34.5 -83t-39.5 -86t-32.5 -89.5t-13.5 -93.5q0 -20 2.5 -40t8.5 -40q14 -47 50.5 -88.5t89 -72.5t118 -49t136.5 -18q73 0 147 21q41 12 87.5 40.5 t87.5 62t71 67t39 57.5q8 20 10.5 38t2.5 35q0 39 -13 74.5t-28.5 70.5t-28.5 72t-13 80q0 17 2.5 34.5t8.5 37.5q34 -9 57.5 -30t46.5 -42t51 -37t72 -16q27 0 58 7q19 7 28.5 23t15 36.5t10.5 41t15 36.5q29 -14 51.5 -35t45.5 -40.5t52 -33.5t72 -14q24 0 54 6q4 9 4 24 q0 26 -8.5 60t-8.5 67q0 15 2.5 28.5t10.5 26.5q33 -9 56 -26t42.5 -37t37 -41t40 -38t51.5 -28t71 -11h37z" />
<glyph unicode="&#x634;" horiz-adv-x="958" arabic-form="initial" d="M406 1099q54 -5 91.5 -26t65.5 -52q-2 -50 -10.5 -93t-38.5 -65h-13q-49 0 -82 15t-53 44q3 27 3.5 51t3 46t9.5 42t24 38zM795 601q-11 -3 -20 -4t-18 -1q-27 0 -49.5 10t-44 22.5t-44 24.5t-50.5 17q-21 -2 -30.5 -16t-16 -31t-15 -32t-27.5 -19q-31 0 -55 6.5 t-44.5 17t-39 22.5t-38.5 23v6q0 48 8 85.5t18 74.5l3 10q5 1 9.5 1.5t9.5 0.5q22 0 44.5 -7t45 -17t45 -20.5t43.5 -16.5q20 2 32.5 12t21 24t14 30.5t11.5 32.5q46 -1 85 -12t67 -31t44 -49t16 -66q0 -45 -25 -98zM-10 0q-44 16 -64 45t-20 58q0 32 21.5 58.5t62.5 43.5 h37q40 3 80.5 24.5t79.5 52t74 66t64 67.5q22 -17 37.5 -41t31.5 -46.5t35 -38t49 -15.5l12 1q24 3 38 16.5t25 33t21.5 42.5t26.5 44q32 -7 50 -28t34.5 -43.5t38.5 -40.5t61 -18q3 7 4 15.5t1 19.5q0 17 -1.5 38t-1.5 41q0 29 7.5 52.5t32.5 29.5q34 -34 52 -94t18 -124 q0 -39 -7.5 -76t-24 -65.5t-42 -45.5t-60.5 -17h-10q-25 2 -40 10.5t-27 20.5t-25.5 25t-34.5 25q-19 -14 -38.5 -30t-39.5 -29t-42 -21.5t-47 -8.5q-5 0 -10.5 0.5t-10.5 1.5q-27 5 -42 19t-26 30.5t-23.5 33t-34.5 27.5q-31 -22 -68.5 -49.5t-79.5 -52t-86 -41t-88 -16.5z " />
<glyph unicode="&#x634;" horiz-adv-x="1153" arabic-form="medial" d="M479 1019q54 -5 91.5 -26t65.5 -52q-2 -50 -10.5 -93t-38.5 -65h-13q-49 0 -82 15t-53 44q3 27 3.5 51t3 46t9.5 42t24 38zM868 521q-11 -3 -20 -4t-18 -1q-27 0 -49.5 10t-44 22.5t-44 24.5t-50.5 17q-21 -2 -30.5 -16t-16 -31t-15 -32t-27.5 -19q-31 0 -55 6.5 t-44.5 17t-39 22.5t-38.5 23v6q0 48 8 85.5t18 74.5l3 10q5 1 9.5 1.5t9.5 0.5q22 0 44.5 -7t45 -17t45 -20.5t43.5 -16.5q20 2 32.5 12t21 24t14 30.5t11.5 32.5q46 -1 85 -12t67 -31t44 -49t16 -66q0 -45 -25 -98zM1166 205q47 -26 66 -51t19 -51q0 -18 -8 -35.5t-21 -31 t-29 -23.5t-31 -13q-39 0 -74 11.5t-65.5 29t-58.5 38.5t-54 41q-17 -51 -59 -76.5t-92 -25.5q-35 0 -70.5 13.5t-63.5 39.5q-23 -42 -58 -60.5t-73 -18.5q-30 0 -59.5 11t-53.5 31.5t-40.5 49.5t-20.5 65q-22 -15 -47 -34t-53 -37.5t-59 -35.5t-65 -27q-20 -7 -40.5 -11 t-43.5 -4h-22q-15 4 -28.5 13.5t-24 23t-17 30.5t-6.5 35q0 27 17 53.5t59 49.5h63q7 0 14 0.5t14 1.5q48 7 84.5 25.5t68.5 41.5t61.5 48t63.5 44q6 -77 44 -117.5t95 -40.5q27 0 50.5 11.5t40.5 32t26.5 49t9.5 62.5q14 -21 32 -43t39.5 -40t46 -29.5t51.5 -11.5 q23 0 47 9q12 13 17 32.5t8.5 40.5t8 40.5t15.5 33.5q18 -18 38 -43t42.5 -50.5t47 -48t53.5 -35.5q9 -5 17 -7.5t17.5 -3.5t21.5 -1.5t29 -0.5h10z" />
<glyph unicode="&#x635;" horiz-adv-x="2040" arabic-form="isolated" d="M1347 287q34 -8 71 -12t75 -4q47 0 94.5 6t91.5 18t82.5 29.5t67.5 41.5q-31 42 -80 60t-105 18q-47 0 -95 -11.5t-88.5 -32.5t-71 -50t-42.5 -63zM1131 80q-9 -115 -58 -204t-127 -150t-179 -93t-213 -32q-103 0 -209 27q-52 31 -102.5 76.5t-91 103.5t-65.5 128.5 t-25 151.5q0 40 6.5 82t21.5 87q12 37 32 76.5t45.5 72.5t56 57t63.5 30q-4 -28 -16 -48t-27.5 -37t-31.5 -33t-28 -35q-6 -11 -13 -35.5t-13 -52t-9.5 -51.5t-3.5 -32q0 -80 32 -146t87.5 -114t129.5 -75t158 -29h10q44 0 95 10t102.5 27.5t100 41.5t87.5 51.5t65 57 t32 58.5q2 12 3.5 22.5t1.5 21.5q0 45 -17 82.5t-37 74t-37 75t-17 86.5q0 18 3 38t11 42q31 -18 55.5 -52.5t48.5 -69t52.5 -60t68.5 -25.5l11 1q23 2 35 13.5t21 29t18 39.5t25 45q11 16 38.5 47t62.5 63.5t73.5 60t70.5 36.5q27 8 54.5 11t55.5 3q49 0 96 -10t87.5 -27.5 t71.5 -42t48 -52.5q16 -27 24 -64t8 -77q0 -31 -5 -62t-15 -58t-25.5 -48.5t-35.5 -34.5q-42 -26 -98.5 -44t-121 -29t-135.5 -16t-143 -5q-70 0 -138 4t-131 11z" />
<glyph unicode="&#x635;" horiz-adv-x="2046" arabic-form="final" d="M1947 205h109q54 -11 77 -41t23 -61q0 -37 -27 -66t-72 -37h-12q-88 -9 -175 -20t-172 -20t-167 -15t-158 -6q-60 0 -117.5 4t-115.5 12v-5q0 -79 -25.5 -150t-70.5 -131.5t-105.5 -109.5t-130 -84t-144.5 -53.5t-149 -18.5q-84 0 -160 25.5t-139 80.5q-37 33 -66 79 t-48.5 101t-30 115.5t-10.5 120.5q0 67 13 131t40.5 118t69.5 93.5t101 58.5q-27 -36 -56.5 -77.5t-53.5 -88t-40 -98t-16 -105.5q0 -55 19 -109q20 -59 62 -102t97.5 -70.5t121.5 -40.5t134 -13q101 0 196 26.5t164 76.5q22 13 41.5 40.5t33.5 58t23 58t10 40.5q3 21 3 39 q0 52 -16.5 93t-36 81.5t-36 85.5t-16.5 106q0 15 1 31.5t4 34.5q30 -18 51 -45t41.5 -55t44.5 -52.5t60 -36.5q13 -7 26 -7q14 0 26 6.5t19 17.5q24 39 50 77t53 73.5t54.5 66.5t56.5 55q58 42 134.5 68t153.5 26q69 0 130 -24t103 -80q28 -31 39.5 -67.5t11.5 -74.5 q0 -37 -8.5 -72t-22.5 -64zM1317 174q24 -8 61 -12.5t81 -4.5q55 0 114.5 7t113 22.5t94 39.5t57.5 57q-20 64 -68 91.5t-108 27.5q-53 0 -109 -18.5t-104.5 -50t-84 -72.5t-47.5 -87z" />
<glyph unicode="&#x635;" horiz-adv-x="1402" arabic-form="initial" d="M-10 0q-38 13 -56.5 42t-18.5 61t18.5 60.5t56.5 41.5q61 1 109.5 31t90 73t78 92.5t72.5 89.5q20 -26 36 -55.5t35.5 -55.5t46.5 -44.5t69 -21.5q26 25 50.5 58t49.5 68t52 70.5t58.5 65.5t69 52t83.5 30q20 4 38 5.5t36 1.5q37 0 71.5 -6.5t67.5 -17.5q31 -11 57.5 -21 t50 -24.5t44.5 -35.5t41 -52q22 -35 34 -75.5t12 -82.5q0 -64 -29 -115q-16 -28 -53 -50.5t-88 -41t-112 -32t-125.5 -22.5t-128.5 -13.5t-120 -4.5q-35 0 -65 2t-55 5q-22 -14 -35.5 -37t-22 -50.5t-14 -57.5t-12.5 -59.5t-17 -55.5t-27 -45q-2 8 -2 17q0 18 4.5 46.5 t10 61.5t10 67.5t4.5 65.5q0 34 -7 56q-32 40 -69.5 73.5t-68.5 74.5q-32 -23 -61 -58.5t-60.5 -71.5t-68.5 -64.5t-85 -36.5q-7 -2 -14 -3t-13 -1h-28zM654 284q12 -2 29 -3.5t38 -1.5q36 0 82 3.5t94.5 10t96.5 16.5t88.5 22.5t70.5 27.5t42 33q-41 38 -100.5 57 t-125.5 19q-52 0 -103 -11.5t-94 -35t-74.5 -58t-43.5 -79.5z" />
<glyph unicode="&#x635;" horiz-adv-x="1284" arabic-form="medial" d="M546 217q39 -6 92.5 -10.5t111.5 -4.5q43 0 85.5 3t81 10.5t70 20t51.5 30.5q-13 34 -36 59.5t-52.5 42t-64 24.5t-70.5 8q-45 0 -89.5 -12t-81.5 -35.5t-63 -57.5t-35 -78zM0 205q36 0 63.5 21t51.5 52.5t47.5 68t51.5 68.5q5 -24 19 -56.5t35.5 -62.5t51 -50.5 t65.5 -20.5h12t12 2q24 5 44 33t40.5 65.5t44.5 77.5t57 70q24 21 57 40.5t72 33.5t82 22.5t87 8.5q42 0 84 -8.5t80 -28.5q54 -27 81.5 -79.5t27.5 -125.5q0 -61 -18 -131h129q36 0 63.5 -9t45.5 -23.5t27 -33t9 -37.5t-9 -37.5t-27 -32.5t-45.5 -23t-63.5 -9 q-125 -8 -224.5 -13.5t-177 -9t-135.5 -5t-101 -1.5q-65 0 -100.5 2.5t-57 6t-36 6.5t-36.5 5q-23 -13 -37 -39t-23 -58t-16 -65.5t-17 -62t-25 -48t-40 -22.5q4 45 17 81.5t26.5 72t24.5 74t11 87.5q-23 14 -36 26.5t-23.5 24.5t-22.5 25t-34 28q-11 -17 -32 -37 t-49.5 -37.5t-62.5 -29t-70 -11.5q-23 0 -41.5 9.5t-31.5 25t-20 35t-7 38.5t7 36.5t20 31t31.5 21.5t41.5 8z" />
<glyph unicode="&#x636;" horiz-adv-x="2040" arabic-form="isolated" d="M1552 995q54 -5 91 -26t66 -52q-3 -50 -11 -93t-38 -65h-13q-95 0 -135 60q3 26 3.5 50t3 46t9.5 42t24 38zM1347 287q34 -8 71 -12t75 -4q47 0 94.5 6t91.5 18t82.5 29.5t67.5 41.5q-31 42 -80 60t-105 18q-47 0 -95 -11.5t-88.5 -32.5t-71 -50t-42.5 -63zM1131 80 q-9 -115 -58 -204t-127 -150t-179 -93t-213 -32q-103 0 -209 27q-52 31 -102.5 76.5t-91 103.5t-65.5 128.5t-25 151.5q0 40 6.5 82t21.5 87q12 37 32 76.5t45.5 72.5t56 57t63.5 30q-4 -28 -16 -48t-27.5 -37t-31.5 -33t-28 -35q-6 -11 -13 -35.5t-13 -52t-9.5 -51.5 t-3.5 -32q0 -80 32 -146t87.5 -114t129.5 -75t158 -29h10q44 0 95 10t102.5 27.5t100 41.5t87.5 51.5t65 57t32 58.5q2 12 3.5 22.5t1.5 21.5q0 45 -17 82.5t-37 74t-37 75t-17 86.5q0 18 3 38t11 42q31 -18 55.5 -52.5t48.5 -69t52.5 -60t68.5 -25.5l11 1q23 2 35 13.5 t21 29t18 39.5t25 45q11 16 38.5 47t62.5 63.5t73.5 60t70.5 36.5q27 8 54.5 11t55.5 3q49 0 96 -10t87.5 -27.5t71.5 -42t48 -52.5q16 -27 24 -64t8 -77q0 -31 -5 -62t-15 -58t-25.5 -48.5t-35.5 -34.5q-42 -26 -98.5 -44t-121 -29t-135.5 -16t-143 -5q-70 0 -138 4 t-131 11z" />
<glyph unicode="&#x636;" horiz-adv-x="2046" arabic-form="final" d="M1511 955q54 -5 91 -26t66 -52q-3 -50 -11 -93t-38 -65h-13q-95 0 -135 60q3 26 3.5 50t3 46t9.5 42t24 38zM1947 205h109q54 -11 77 -41t23 -61q0 -37 -27 -66t-72 -37h-12q-88 -9 -175 -20t-172 -20t-167 -15t-158 -6q-60 0 -117.5 4t-115.5 12v-5q0 -79 -25.5 -150 t-70.5 -131.5t-105.5 -109.5t-130 -84t-144.5 -53.5t-149 -18.5q-84 0 -160 25.5t-139 80.5q-37 33 -66 79t-48.5 101t-30 115.5t-10.5 120.5q0 67 13 131t40.5 118t69.5 93.5t101 58.5q-27 -36 -56.5 -77.5t-53.5 -88t-40 -98t-16 -105.5q0 -55 19 -109q20 -59 62 -102 t97.5 -70.5t121.5 -40.5t134 -13q101 0 196 26.5t164 76.5q22 13 41.5 40.5t33.5 58t23 58t10 40.5q3 21 3 39q0 52 -16.5 93t-36 81.5t-36 85.5t-16.5 106q0 15 1 31.5t4 34.5q30 -18 51 -45t41.5 -55t44.5 -52.5t60 -36.5q13 -7 26 -7q14 0 26 6.5t19 17.5q24 39 50 77 t53 73.5t54.5 66.5t56.5 55q58 42 134.5 68t153.5 26q69 0 130 -24t103 -80q28 -31 39.5 -67.5t11.5 -74.5q0 -37 -8.5 -72t-22.5 -64zM1317 174q24 -8 61 -12.5t81 -4.5q55 0 114.5 7t113 22.5t94 39.5t57.5 57q-20 64 -68 91.5t-108 27.5q-53 0 -109 -18.5t-104.5 -50 t-84 -72.5t-47.5 -87z" />
<glyph unicode="&#x636;" horiz-adv-x="1402" arabic-form="initial" d="M767 999q54 -5 91 -26t66 -52q-3 -50 -11 -93t-38 -65h-13q-95 0 -135 60q3 26 3.5 50t3 46t9.5 42t24 38zM-10 0q-38 13 -56.5 42t-18.5 61t18.5 60.5t56.5 41.5q61 1 109.5 31t90 73t78 92.5t72.5 89.5q20 -26 36 -55.5t35.5 -55.5t46.5 -44.5t69 -21.5q26 25 50.5 58 t49.5 68t52 70.5t58.5 65.5t69 52t83.5 30q20 4 38 5.5t36 1.5q37 0 71.5 -6.5t67.5 -17.5q31 -11 57.5 -21t50 -24.5t44.5 -35.5t41 -52q22 -35 34 -75.5t12 -82.5q0 -64 -29 -115q-16 -28 -53 -50.5t-88 -41t-112 -32t-125.5 -22.5t-128.5 -13.5t-120 -4.5q-35 0 -65 2 t-55 5q-22 -14 -35.5 -37t-22 -50.5t-14 -57.5t-12.5 -59.5t-17 -55.5t-27 -45q-2 8 -2 17q0 18 4.5 46.5t10 61.5t10 67.5t4.5 65.5q0 34 -7 56q-32 40 -69.5 73.5t-68.5 74.5q-32 -23 -61 -58.5t-60.5 -71.5t-68.5 -64.5t-85 -36.5q-7 -2 -14 -3t-13 -1h-28zM654 284 q12 -2 29 -3.5t38 -1.5q36 0 82 3.5t94.5 10t96.5 16.5t88.5 22.5t70.5 27.5t42 33q-41 38 -100.5 57t-125.5 19q-52 0 -103 -11.5t-94 -35t-74.5 -58t-43.5 -79.5z" />
<glyph unicode="&#x636;" horiz-adv-x="1284" arabic-form="medial" d="M738 939q54 -5 91 -26t66 -52q-3 -50 -11 -93t-38 -65h-13q-95 0 -135 60q3 26 3.5 50t3 46t9.5 42t24 38zM546 217q39 -6 92.5 -10.5t111.5 -4.5q43 0 85.5 3t81 10.5t70 20t51.5 30.5q-13 34 -36 59.5t-52.5 42t-64 24.5t-70.5 8q-45 0 -89.5 -12t-81.5 -35.5 t-63 -57.5t-35 -78zM0 205q36 0 63.5 21t51.5 52.5t47.5 68t51.5 68.5q5 -24 19 -56.5t35.5 -62.5t51 -50.5t65.5 -20.5h12t12 2q24 5 44 33t40.5 65.5t44.5 77.5t57 70q24 21 57 40.5t72 33.5t82 22.5t87 8.5q42 0 84 -8.5t80 -28.5q54 -27 81.5 -79.5t27.5 -125.5 q0 -61 -18 -131h129q36 0 63.5 -9t45.5 -23.5t27 -33t9 -37.5t-9 -37.5t-27 -32.5t-45.5 -23t-63.5 -9q-125 -8 -224.5 -13.5t-177 -9t-135.5 -5t-101 -1.5q-65 0 -100.5 2.5t-57 6t-36 6.5t-36.5 5q-23 -13 -37 -39t-23 -58t-16 -65.5t-17 -62t-25 -48t-40 -22.5 q4 45 17 81.5t26.5 72t24.5 74t11 87.5q-23 14 -36 26.5t-23.5 24.5t-22.5 25t-34 28q-11 -17 -32 -37t-49.5 -37.5t-62.5 -29t-70 -11.5q-23 0 -41.5 9.5t-31.5 25t-20 35t-7 38.5t7 36.5t20 31t31.5 21.5t41.5 8z" />
<glyph unicode="&#x637;" horiz-adv-x="1331" arabic-form="isolated" d="M565 203q42 9 93 17t104.5 17t108 20.5t103 27t88.5 37t66 50.5q-28 48 -76.5 69t-106.5 21q-59 0 -122 -20t-116.5 -54.5t-92 -82t-49.5 -102.5zM414 1254q27 -12 69 -37t82 -57.5t68.5 -70t28.5 -76.5q0 -27 -17 -53t-59 -51q4 -39 12 -78t15.5 -78.5t13 -78.5t5.5 -77 l-7 -36q0 -5 2 -5t3 1q6 3 12.5 5.5t13.5 5.5q39 16 81 33.5t85.5 31t86.5 22.5t85 9q39 0 76 -9.5t70 -31t61 -57.5t50 -89q9 -21 14.5 -52.5t5.5 -64.5t-6.5 -63t-21.5 -50q-12 -31 -38 -54.5t-58.5 -41.5t-66.5 -30.5t-62 -21.5q-116 -37 -238 -56t-244.5 -31t-243 -22 t-232.5 -28q31 33 74.5 56.5t92.5 42.5t100 36.5t97 38.5q5 76 38 149.5t86 133.5q2 17 3.5 33.5t1.5 33.5q0 55 -10 112.5t-25 116.5t-33 118.5t-33 119t-25 117.5t-10 115v20t1 20q-1 7 -1.5 14.5t-2.5 14.5z" />
<glyph unicode="&#x637;" horiz-adv-x="1365" arabic-form="final" d="M1375 205q46 -20 64.5 -47t18.5 -55q0 -18 -7 -35.5t-18.5 -31.5t-26 -23.5t-30.5 -12.5h-10h-3q-63 -3 -137.5 -14.5t-151 -25t-150 -25.5t-136.5 -16q-89 -6 -178 -6q-76 0 -150.5 5t-145 15t-135 26t-119.5 39q27 31 73 42.5t99 16.5t106.5 9t95.5 20q25 40 47.5 83 t46 84t50.5 79t62 69q-9 88 -36 170t-56 162.5t-51.5 162t-22.5 169.5q0 50 9 103q39 -17 67 -44t54.5 -56t55.5 -55.5t69 -41.5q11 -35 11 -68q0 -24 -5 -47.5t-15.5 -42t-25.5 -31.5t-34 -17q10 -69 20 -137.5t29 -128.5q57 45 129.5 69t144.5 24q57 0 110 -17t93.5 -53 t65 -93t24.5 -137q0 -20 -1.5 -41.5t-5.5 -45.5h106zM1161 263q2 9 2 17.5v16.5q0 65 -34 93t-87 28q-38 0 -82.5 -12.5t-91 -34t-91.5 -50.5t-83.5 -62.5t-68 -70t-44.5 -72.5q13 -3 41 -3q35 0 88 5t112.5 14.5t118.5 23t107.5 30t79.5 36t33 41.5z" />
<glyph unicode="&#x637;" horiz-adv-x="893" arabic-form="initial" d="M-1 0q-20 0 -34 10t-23.5 25t-14 33t-4.5 34t5 34.5t14.5 33.5t23.5 25t33 10h27q35 0 55.5 11t33 28.5t20.5 40.5l16 46t20 44.5t34 37.5v13q0 80 -18.5 155t-40 146.5t-40 140t-18.5 136.5q0 37 7 73t23 73q32 -17 69 -40.5t69 -53t53 -65t21 -76.5q0 -30 -14.5 -63 t-46.5 -69q10 -26 12 -59t3.5 -66t6 -62t19.5 -46q39 19 83 28t90 9q65 0 127.5 -18.5t112 -54t79.5 -88t30 -120.5q0 -35 -9 -74q-29 -51 -82 -88t-120 -63t-141.5 -42t-147 -25t-137 -12t-110.5 -3h-22t-25.5 0.5t-23 0.5h-15.5zM195 209q26 -2 51.5 -4t51.5 -2q41 0 80 6 t79 17t77 24.5t69 30t54 34.5q-27 42 -77.5 61t-109.5 19q-48 0 -96.5 -13t-87.5 -37t-64.5 -58.5t-26.5 -77.5z" />
<glyph unicode="&#x637;" horiz-adv-x="1030" arabic-form="medial" d="M710 263q16 23 16 47q0 20 -9 39t-22.5 34t-28 26t-25.5 15q-29 11 -59 16t-59 5q-50 0 -98 -14l-7 -3q-13 -6 -39 -19.5t-54.5 -39t-54 -64t-35.5 -93.5q29 -3 81 -7t112 -4q41 0 83 3t79.5 10t68.5 19t51 30zM930 205h112q27 0 47 -10t32.5 -25.5t19 -33.5t6.5 -33 q0 -18 -8.5 -36t-22.5 -33t-33.5 -24.5t-41.5 -9.5q-140 -2 -244.5 -3t-193.5 -1t-161 0.5t-138 1.5t-129.5 1.5t-175.5 0.5q-24 0 -42 10t-30 24.5t-17.5 32t-5.5 32.5q0 16 6 34.5t17.5 34.5t29.5 26.5t42 10.5h42l20 7q55 23 77 76.5t22 126.5q0 57 -10.5 122.5 t-26.5 133t-34.5 134.5t-34.5 127.5t-26.5 112t-10.5 87.5v9.5t1 9.5q38 -18 79.5 -44.5t76.5 -60.5t58 -75t23 -87q0 -50 -30 -99q15 -39 19.5 -65t7.5 -49.5t8 -49.5t20 -66q50 42 111 61.5t125 19.5q76 0 151 -26.5t134 -76t95.5 -120t36.5 -157.5q0 -24 -3 -51z" />
<glyph unicode="&#x638;" horiz-adv-x="1331" arabic-form="isolated" d="M845 1060q54 -5 91 -26t66 -52q-3 -50 -11 -93t-38 -65h-13q-95 0 -135 60q3 26 3.5 50t3 46t9.5 42t24 38zM565 241q42 9 93 17t104.5 17t108 20.5t103 27t88.5 37t66 50.5q-28 48 -76.5 69t-106.5 21q-59 0 -122 -20t-116.5 -54.5t-92 -82t-49.5 -102.5zM414 1292 q27 -12 69 -37t82 -57.5t68.5 -70t28.5 -76.5q0 -27 -17 -53t-59 -51q4 -39 12 -78t15.5 -78.5t13 -78.5t5.5 -77l-7 -36q0 -5 2 -5t3 1q6 3 12.5 5.5t13.5 5.5q39 16 81 33.5t85.5 31t86.5 22.5t85 9q39 0 76 -9.5t70 -31t61 -57.5t50 -89q9 -21 14.5 -52.5t5.5 -64.5 t-6.5 -63t-21.5 -50q-12 -31 -38 -54.5t-58.5 -41.5t-66.5 -30.5t-62 -21.5q-116 -37 -238 -56t-244.5 -31t-243 -22t-232.5 -28q31 33 74.5 56.5t92.5 42.5t100 36.5t97 38.5q5 76 38 149.5t86 133.5q2 17 3.5 33.5t1.5 33.5q0 55 -10 112.5t-25 116.5t-33 118.5t-33 119 t-25 117.5t-10 115v20t1 20q-1 7 -1.5 14.5t-2.5 14.5z" />
<glyph unicode="&#x638;" horiz-adv-x="1305" arabic-form="final" d="M885 967q54 -5 91 -26t66 -52q-3 -50 -11 -93t-38 -65h-13q-95 0 -135 60q3 26 3.5 50t3 46t9.5 42t24 38zM1317 205q46 -20 64.5 -47t18.5 -55q0 -18 -7 -35.5t-18.5 -31.5t-26 -23.5t-30.5 -12.5h-10h-3q-63 -3 -137.5 -14.5t-151 -25t-150 -25.5t-136.5 -16 q-89 -6 -178 -6q-76 0 -150.5 5t-145 15t-135 26t-119.5 39q27 31 73 42.5t99 16.5t106.5 9t95.5 20q25 40 47.5 83t46 84t50.5 79t62 69q-9 88 -36 170t-56 162.5t-51.5 162t-22.5 169.5q0 50 9 103q39 -17 67 -44t54.5 -56t55.5 -55.5t69 -41.5q11 -35 11 -68 q0 -24 -5 -47.5t-15.5 -42t-25.5 -31.5t-34 -17q10 -69 20 -137.5t29 -128.5q57 45 129.5 69t144.5 24q57 0 110 -17t93.5 -53t65 -93t24.5 -137q0 -20 -1.5 -41.5t-5.5 -45.5h106zM1103 263q2 9 2 17.5v16.5q0 65 -34 93t-87 28q-38 0 -82.5 -12.5t-91 -34t-91.5 -50.5 t-83.5 -62.5t-68 -70t-44.5 -72.5q13 -3 41 -3q35 0 88 5t112.5 14.5t118.5 23t107.5 30t79.5 36t33 41.5z" />
<glyph unicode="&#x638;" horiz-adv-x="893" arabic-form="initial" d="M461 924q54 -5 91 -26t66 -52q-3 -50 -11 -93t-38 -65h-13q-95 0 -135 60q3 26 3.5 50t3 46t9.5 42t24 38zM-1 0q-20 0 -34 10t-23.5 25t-14 33t-4.5 34t5 34.5t14.5 33.5t23.5 25t33 10h27q35 0 55.5 11t33 28.5t20.5 40.5l16 46t20 44.5t34 37.5v13q0 80 -18.5 155 t-40 146.5t-40 140t-18.5 136.5q0 37 7 73t23 73q32 -17 69 -40.5t69 -53t53 -65t21 -76.5q0 -30 -14.5 -63t-46.5 -69q10 -26 12 -59t3.5 -66t6 -62t19.5 -46q39 19 83 28t90 9q65 0 127.5 -18.5t112 -54t79.5 -88t30 -120.5q0 -35 -9 -74q-29 -51 -82 -88t-120 -63 t-141.5 -42t-147 -25t-137 -12t-110.5 -3h-22t-25.5 0.5t-23 0.5h-15.5zM195 209q26 -2 51.5 -4t51.5 -2q41 0 80 6t79 17t77 24.5t69 30t54 34.5q-27 42 -77.5 61t-109.5 19q-48 0 -96.5 -13t-87.5 -37t-64.5 -58.5t-26.5 -77.5z" />
<glyph unicode="&#x638;" horiz-adv-x="1030" arabic-form="medial" d="M442 967q54 -5 91 -26t66 -52q-3 -50 -11 -93t-38 -65h-13q-95 0 -135 60q3 26 3.5 50t3 46t9.5 42t24 38zM710 263q16 23 16 47q0 20 -9 39t-22.5 34t-28 26t-25.5 15q-29 11 -59 16t-59 5q-50 0 -98 -14l-7 -3q-13 -6 -39 -19.5t-54.5 -39t-54 -64t-35.5 -93.5 q29 -3 81 -7t112 -4q41 0 83 3t79.5 10t68.5 19t51 30zM930 205h112q27 0 47 -10t32.5 -25.5t19 -33.5t6.5 -33q0 -18 -8.5 -36t-22.5 -33t-33.5 -24.5t-41.5 -9.5q-140 -2 -244.5 -3t-193.5 -1t-161 0.5t-138 1.5t-129.5 1.5t-175.5 0.5q-24 0 -42 10t-30 24.5t-17.5 32 t-5.5 32.5q0 16 6 34.5t17.5 34.5t29.5 26.5t42 10.5h42l20 7q55 23 77 76.5t22 126.5q0 57 -10.5 122.5t-26.5 133t-34.5 134.5t-34.5 127.5t-26.5 112t-10.5 87.5v9.5t1 9.5q38 -18 79.5 -44.5t76.5 -60.5t58 -75t23 -87q0 -50 -30 -99q15 -39 19.5 -65t7.5 -49.5t8 -49.5 t20 -66q50 42 111 61.5t125 19.5q76 0 151 -26.5t134 -76t95.5 -120t36.5 -157.5q0 -24 -3 -51z" />
<glyph unicode="&#x639;" horiz-adv-x="818" arabic-form="isolated" d="M224 -216q-17 -56 -23.5 -92t-8 -57t-1 -29.5t-2.5 -9.5q-6 0 -18 4t-38 7q-5 17 -6.5 37t-1.5 42q0 39 5 82t13 85t17 80t17 67q17 59 39.5 114.5t42.5 106.5q-7 22 -21 35.5t-31.5 23t-37 17t-37.5 17.5t-33.5 24.5t-25.5 38.5q-7 16 -10 36.5t-3 43.5q0 39 8 83.5 t21.5 85t32 73t39.5 48.5q32 24 73 35t86 11q42 0 84.5 -8.5t80.5 -23.5t70 -35t52 -43q-30 -3 -74 -2.5t-92.5 -0.5t-96.5 -5.5t-86.5 -17t-62.5 -34.5t-24 -58v-5q1 -26 30 -51.5t71 -45.5t90 -32.5t88 -12.5h12.5t11.5 1q33 4 59.5 17.5t49 30.5t42 35.5t39 34.5t40 26 t44.5 10q5 -13 7 -25t2 -23q0 -41 -17 -74t-42.5 -61.5t-54.5 -53t-53 -48.5l-67 -43q-45 -29 -87 -71.5t-79 -92.5q-22 -29 -39.5 -60.5t-31.5 -63.5q-21 -46 -37 -90.5t-25 -82.5z" />
<glyph unicode="&#x639;" horiz-adv-x="828" arabic-form="final" d="M828 205q32 0 52.5 -13t32 -28t15 -31t3.5 -30q0 -15 -6 -32t-19 -32t-32 -27t-46 -12q-140 -4 -145 -4q-66 0 -132 20.5t-117 71.5q-66 -32 -113.5 -85t-80 -119t-52.5 -142.5t-30 -154.5q-3 -21 -6.5 -50t-11.5 -56.5t-24.5 -49t-44.5 -28.5q-2 16 -2 32v32 q0 102 22 203.5t59 196.5t86 181t103 157q-15 35 -45.5 48.5t-65.5 13.5q-23 0 -46 -4.5t-45 -11.5t-41.5 -16.5t-33.5 -18.5q-1 8 -1 14.5v14.5q0 85 44 147.5t114.5 103.5t160 61t179.5 20q91 0 174 -20q14 -21 20 -41.5t6 -40.5q0 -34 -14.5 -66.5t-35.5 -62.5t-44 -57.5 t-39 -51.5q13 -11 35 -17.5t46 -9.5t47.5 -4t73.5 -1z" />
<glyph unicode="&#x639;" horiz-adv-x="1153" arabic-form="initial" d="M-10 0q-28 3 -47 13t-30.5 23.5t-16.5 29.5t-5 32q0 17 6 35.5t18 33.5t30.5 25.5t44.5 12.5q19 0 46.5 0.5t58 3t60.5 7t53 13.5q-19 38 -28 77.5t-9 80.5q0 48 11 95t30.5 88t46 75t57.5 56q13 3 36 3q35 0 85.5 -6.5t106 -19t110.5 -30t99.5 -40t73 -48.5t30.5 -56 q-51 3 -103.5 17t-106 29.5t-107 28t-104.5 12.5q-42 0 -81.5 -11t-77.5 -37q12 -73 55 -120.5t106.5 -75t142 -38.5t162.5 -11q91 0 181.5 9t168.5 20q0 -27 -5 -49t-11.5 -42.5t-13.5 -41t-10 -44.5q-74 -2 -157.5 -14t-173 -28.5t-183 -35.5t-187 -35t-185 -26.5 t-177.5 -10.5z" />
<glyph unicode="&#x639;" horiz-adv-x="756" arabic-form="medial" d="M-10 0q-24 0 -43 9t-32.5 23.5t-21 33.5t-7.5 39q0 18 6.5 36t19 32t32 23t46.5 9q36 0 82 7t87.5 20.5t70 34t28.5 47.5q0 15 -10 32.5t-33 37.5q-6 1 -12 1.5t-11 0.5q-18 0 -32 -3.5t-27 -8t-27 -8t-31 -3.5h-9t-9 1q-7 24 -7 51q0 33 8.5 65.5t18.5 60.5 q29 13 65.5 25t77 21t84 14.5t86.5 5.5q60 0 114.5 -12.5t93.5 -43.5q8 -34 8 -60q0 -33 -8 -62.5t-21 -56t-28 -50.5t-30 -46q13 -11 39 -23t57.5 -23t64.5 -18t60 -7h21q29 0 52 -9.5t39.5 -24.5t25 -34t8.5 -37q0 -19 -10.5 -36t-27.5 -30.5t-39.5 -22.5t-47.5 -11h-21 q-61 0 -105 8.5t-76.5 21t-56 27.5t-44 28t-41 22.5t-45.5 11.5h-7q-36 0 -70 -17.5t-69.5 -38.5t-74.5 -40t-84 -22q-9 -1 -17.5 -1h-16.5h-43zM371 376q14 1 24 5.5t15 14.5q2 4 3.5 8t1.5 8q0 6 -4.5 10t-18.5 4l-11 -1q-5 -7 -8 -15.5t-3 -20.5q0 -8 1 -13z" />
<glyph unicode="&#x63a;" horiz-adv-x="818" arabic-form="isolated" d="M241 1129q54 -5 91 -26t66 -52q-3 -50 -11 -93t-38 -65h-13q-95 0 -135 60q3 26 3.5 50t3 46t9.5 42t24 38zM224 -216q-17 -56 -23.5 -92t-8 -57t-1 -29.5t-2.5 -9.5q-6 0 -18 4t-38 7q-5 17 -6.5 37t-1.5 42q0 39 5 82t13 85t17 80t17 67q17 59 39.5 114.5t42.5 106.5 q-7 22 -21 35.5t-31.5 23t-37 17t-37.5 17.5t-33.5 24.5t-25.5 38.5q-7 16 -10 36.5t-3 43.5q0 39 8 83.5t21.5 85t32 73t39.5 48.5q32 24 73 35t86 11q42 0 84.5 -8.5t80.5 -23.5t70 -35t52 -43q-30 -3 -74 -2.5t-92.5 -0.5t-96.5 -5.5t-86.5 -17t-62.5 -34.5t-24 -58v-5 q1 -26 30 -51.5t71 -45.5t90 -32.5t88 -12.5h12.5t11.5 1q33 4 59.5 17.5t49 30.5t42 35.5t39 34.5t40 26t44.5 10q5 -13 7 -25t2 -23q0 -41 -17 -74t-42.5 -61.5t-54.5 -53t-53 -48.5l-67 -43q-45 -29 -87 -71.5t-79 -92.5q-22 -29 -39.5 -60.5t-31.5 -63.5 q-21 -46 -37 -90.5t-25 -82.5z" />
<glyph unicode="&#x63a;" horiz-adv-x="828" arabic-form="final" d="M380 920q54 -5 91 -26t66 -52q-3 -50 -11 -93t-38 -65h-13q-95 0 -135 60q3 26 3.5 50t3 46t9.5 42t24 38zM828 205q32 0 52.5 -13t32 -28t15 -31t3.5 -30q0 -15 -6 -32t-19 -32t-32 -27t-46 -12q-140 -4 -145 -4q-66 0 -132 20.5t-117 71.5q-66 -32 -113.5 -85t-80 -119 t-52.5 -142.5t-30 -154.5q-3 -21 -6.5 -50t-11.5 -56.5t-24.5 -49t-44.5 -28.5q-2 16 -2 32v32q0 102 22 203.5t59 196.5t86 181t103 157q-15 35 -45.5 48.5t-65.5 13.5q-23 0 -46 -4.5t-45 -11.5t-41.5 -16.5t-33.5 -18.5q-1 8 -1 14.5v14.5q0 85 44 147.5t114.5 103.5 t160 61t179.5 20q91 0 174 -20q14 -21 20 -41.5t6 -40.5q0 -34 -14.5 -66.5t-35.5 -62.5t-44 -57.5t-39 -51.5q13 -11 35 -17.5t46 -9.5t47.5 -4t73.5 -1z" />
<glyph unicode="&#x63a;" horiz-adv-x="1153" arabic-form="initial" d="M434 1055q54 -5 91 -26t66 -52q-3 -50 -11 -93t-38 -65h-13q-95 0 -135 60q3 26 3.5 50t3 46t9.5 42t24 38zM-10 0q-28 3 -47 13t-30.5 23.5t-16.5 29.5t-5 32q0 17 6 35.5t18 33.5t30.5 25.5t44.5 12.5q19 0 46.5 0.5t58 3t60.5 7t53 13.5q-19 38 -28 77.5t-9 80.5 q0 48 11 95t30.5 88t46 75t57.5 56q13 3 36 3q35 0 85.5 -6.5t106 -19t110.5 -30t99.5 -40t73 -48.5t30.5 -56q-51 3 -103.5 17t-106 29.5t-107 28t-104.5 12.5q-42 0 -81.5 -11t-77.5 -37q12 -73 55 -120.5t106.5 -75t142 -38.5t162.5 -11q91 0 181.5 9t168.5 20 q0 -27 -5 -49t-11.5 -42.5t-13.5 -41t-10 -44.5q-74 -2 -157.5 -14t-173 -28.5t-183 -35.5t-187 -35t-185 -26.5t-177.5 -10.5z" />
<glyph unicode="&#x63a;" horiz-adv-x="756" arabic-form="medial" d="M283 980q54 -5 91 -26t66 -52q-3 -50 -11 -93t-38 -65h-13q-95 0 -135 60q3 26 3.5 50t3 46t9.5 42t24 38zM-10 0q-24 0 -43 9t-32.5 23.5t-21 33.5t-7.5 39q0 18 6.5 36t19 32t32 23t46.5 9q36 0 82 7t87.5 20.5t70 34t28.5 47.5q0 15 -10 32.5t-33 37.5q-6 1 -12 1.5 t-11 0.5q-18 0 -32 -3.5t-27 -8t-27 -8t-31 -3.5h-9t-9 1q-7 24 -7 51q0 33 8.5 65.5t18.5 60.5q29 13 65.5 25t77 21t84 14.5t86.5 5.5q60 0 114.5 -12.5t93.5 -43.5q8 -34 8 -60q0 -33 -8 -62.5t-21 -56t-28 -50.5t-30 -46q13 -11 39 -23t57.5 -23t64.5 -18t60 -7h21 q29 0 52 -9.5t39.5 -24.5t25 -34t8.5 -37q0 -19 -10.5 -36t-27.5 -30.5t-39.5 -22.5t-47.5 -11h-21q-61 0 -105 8.5t-76.5 21t-56 27.5t-44 28t-41 22.5t-45.5 11.5h-7q-36 0 -70 -17.5t-69.5 -38.5t-74.5 -40t-84 -22q-9 -1 -17.5 -1h-16.5h-43zM371 376q14 1 24 5.5 t15 14.5q2 4 3.5 8t1.5 8q0 6 -4.5 10t-18.5 4l-11 -1q-5 -7 -8 -15.5t-3 -20.5q0 -8 1 -13z" />
<glyph unicode="&#x641;" horiz-adv-x="1415" arabic-form="isolated" d="M974 601q0 -11 6 -20t15.5 -15t21.5 -9.5t23 -3.5q15 0 27 6.5t15 20.5q-13 13 -36 18.5t-44 5.5q-16 0 -28 -3zM1323 164q-50 -34 -125.5 -63t-165.5 -50.5t-189.5 -33.5t-198.5 -12q-92 0 -179 11.5t-160.5 37t-128 66.5t-82.5 99q-17 36 -25.5 78t-8.5 87q0 57 12 114 t34.5 107t53.5 90t69 63q-3 -32 -18.5 -65t-32 -68t-30 -73.5t-13.5 -81.5v-12t1 -13q8 -70 54 -115.5t115.5 -71.5t155.5 -36.5t174 -10.5q72 0 139.5 5t125.5 12q55 7 111 14.5t105.5 20t88.5 31t61 47.5q-17 5 -36.5 7t-41.5 2h-125q-3 -3 -6.5 -3.5t-6.5 -0.5 q-48 0 -89.5 14t-67.5 55q-18 75 -18 148q0 55 10.5 104t30 85t48 57t64.5 21q27 0 58.5 -13t66.5 -42q31 -25 66 -70t65 -101t50 -117t20 -118q0 -26 -5 -51t-10.5 -50.5t-10.5 -51.5t-5 -52zM898 1186q54 -5 91 -26t66 -52q-3 -50 -11 -93t-38 -65h-13q-95 0 -135 60 q3 26 3.5 50t3 46t9.5 42t24 38z" />
<glyph unicode="&#x641;" horiz-adv-x="1605" arabic-form="final" d="M1616 205q24 -2 42.5 -12.5t31 -25.5t19.5 -33t7 -34q0 -17 -10 -34.5t-24.5 -32t-31.5 -24t-32 -9.5h-44q-45 0 -86.5 3.5t-76.5 11.5q-16 4 -33 13t-35 19t-36 18t-34 10h-12q-27 0 -55 -7.5t-57 -17.5t-60 -20t-62 -15q-86 -14 -178.5 -23t-186.5 -9q-73 0 -144 7 t-134.5 23t-118.5 42t-97 64.5t-69 90.5t-35 120q-3 25 -3 52q0 86 30.5 175t90.5 177q10 0 16 -5t14 -5q-5 -38 -16.5 -67.5t-23.5 -58t-21 -58.5t-9 -67l1 -18q9 -76 55 -126.5t117 -81t160 -43t184 -12.5q58 0 117 4t115.5 11t108 16t96.5 19q-2 33 -8.5 65t-13 63 t-12 60t-5.5 58q0 30 8 59.5t31 58.5q14 19 36 33t48.5 23.5t56.5 14t60 4.5q56 0 104 -16.5t69 -49.5q14 -23 20 -47t6 -49q0 -32 -7 -65.5t-15.5 -67t-16 -67.5t-7.5 -67q24 -28 64.5 -37.5t85.5 -9.5h16zM1165 409v-6q0 -20 12 -40t31.5 -36.5t44 -27t49.5 -10.5 q5 0 10 0.5t10 1.5q30 7 38.5 30t10.5 54q1 12 2 20t1 15q0 10 -4.5 18t-18.5 20q-19 16 -43 24t-48 8q-35 0 -63 -17.5t-32 -53.5zM1226 1073q54 -5 91 -26t66 -52q-3 -50 -11 -93t-38 -65h-13q-95 0 -135 60q3 26 3.5 50t3 46t9.5 42t24 38z" />
<glyph unicode="&#x641;" horiz-adv-x="602" arabic-form="initial" d="M-7 0q-47 12 -64 39.5t-17 59.5q0 35 19.5 66t61.5 40h113q57 0 120 13.5t116.5 37.5t90.5 57t41 72q-21 14 -52 14q-22 0 -47 -6t-51 -12.5t-53 -12.5t-54 -6q-29 0 -56 9t-51 34q-19 37 -28 82t-9 93q0 47 9.5 92t28.5 80t48 56.5t67 21.5q37 0 81 -22q43 -23 85 -72 t75 -113.5t53.5 -138.5t20.5 -146q0 -81 -31 -152t-104 -116q-29 -18 -67 -31t-78.5 -22t-80.5 -13t-73 -4h-114zM162 1197q54 -5 91 -26t66 -52q-3 -50 -11 -93t-38 -65h-13q-95 0 -135 60q3 26 3.5 50t3 46t9.5 42t24 38z" />
<glyph unicode="&#x641;" horiz-adv-x="745" arabic-form="medial" d="M263 999q54 -5 91 -26t66 -52q-3 -50 -11 -93t-38 -65h-13q-95 0 -135 60q3 26 3.5 50t3 46t9.5 42t24 38zM-10 0q-23 1 -40.5 10.5t-29.5 24t-18 32.5t-6 37q0 36 23 66.5t71 34.5h10q17 2 36.5 5.5t38.5 9t36 12.5t29 16q-5 32 -7.5 64t-2.5 61q0 57 10.5 105.5t34 84 t61 56t91.5 22.5h8q54 0 94 -19t66.5 -52t39.5 -78t13 -96q0 -42 -8.5 -87t-25.5 -90q8 -5 25 -7.5t37.5 -4t42 -2t38.5 -0.5h97q56 -6 83.5 -36.5t27.5 -65.5t-27.5 -65t-82.5 -38h-52q-18 0 -34 -0.5t-24 -0.5q-49 0 -102 4t-103.5 13t-95 22.5t-76.5 33.5 q-25 -20 -56.5 -33.5t-67 -22t-72.5 -12.5t-72 -4h-10zM228 356q9 -32 42 -49t71 -17q33 0 62.5 13.5t41.5 42.5q-3 16 -16 30.5t-32 25t-41 16.5t-43 6q-32 0 -57 -15.5t-28 -52.5z" />
<glyph unicode="&#x642;" horiz-adv-x="1140" arabic-form="isolated" d="M286 688q-17 -55 -45 -96.5t-54.5 -80.5t-45.5 -82t-19 -101q0 -24 4 -51.5t13 -59.5q16 -60 57 -109t98 -84.5t126.5 -54.5t143.5 -19h18t18 1q54 4 120.5 25.5t125.5 58t99 85t40 106.5q0 38 -21 79q-37 -5 -77 -12t-79 -7q-24 0 -47 4t-43 15q-24 38 -36 86.5 t-12 99.5q0 45 9 87t26.5 74.5t43 52.5t59.5 20q21 0 45.5 -8.5t51.5 -28.5q41 -29 73 -75t54.5 -102t34.5 -120t12 -129q0 -62 -11 -121t-35 -111q-28 -62 -83 -115.5t-126.5 -93t-153.5 -62.5t-165 -23q-75 0 -146 20.5t-132 67.5q-41 31 -72.5 76.5t-52.5 99.5t-31.5 115 t-10.5 123q0 71 14 140t42 129t70.5 107t99.5 74zM1027 868q-11 -3 -20 -4t-18 -1q-27 0 -49.5 10t-44 22.5t-44 24.5t-50.5 17q-21 -2 -30.5 -16t-16 -31t-15 -32t-27.5 -19q-31 0 -55 6.5t-44.5 17t-39 22.5t-38.5 23v6q0 48 8 85.5t18 74.5l3 10q5 1 9.5 1.5t9.5 0.5 q22 0 44.5 -7t45 -17t45 -20.5t43.5 -16.5q20 2 32.5 12t21 24t14 30.5t11.5 32.5q46 -1 85 -12t67 -31t44 -49t16 -66q0 -45 -25 -98z" />
<glyph unicode="&#x642;" horiz-adv-x="1230" arabic-form="final" d="M1101 205h130q28 0 49.5 -9.5t35.5 -24.5t21 -33t7 -35t-6 -35.5t-19 -33.5t-34.5 -24.5t-52.5 -9.5h-104v-13q0 -18 -1 -39.5t-3 -42.5t-4.5 -40.5t-6.5 -33.5q-25 -101 -85 -180.5t-141 -134.5t-176 -84t-189 -29q-81 0 -156 22t-136.5 68.5t-103.5 118t-57 170.5 q-9 60 -9 122q0 73 13 145t39 134t65.5 111.5t93.5 79.5l1 -12q0 -36 -19 -69.5t-43.5 -69t-47 -73.5t-29.5 -83q-4 -21 -5.5 -42.5t-1.5 -43.5q0 -51 10.5 -100t32 -92t56 -77.5t82.5 -56.5q46 -20 97 -30t105 -10q84 0 169 21.5t157 60.5t125 92.5t74 118.5 q-18 27 -34.5 35.5t-33.5 8.5t-35 -4t-40 -4q-17 0 -38 6q-36 11 -62 38.5t-43.5 65.5t-25.5 82t-8 88q0 34 5 66.5t14.5 59.5t24 47t32.5 30q26 14 51.5 20.5t48.5 6.5q44 0 80.5 -21t63.5 -56t44 -80t23 -92zM1073 626q-11 -3 -20 -4t-18 -1q-27 0 -49.5 10t-44 22.5 t-44 24.5t-50.5 17q-21 -2 -30.5 -16t-16 -31t-15 -32t-27.5 -19q-31 0 -55 6.5t-44.5 17t-39 22.5t-38.5 23v6q0 48 8 85.5t18 74.5l3 10q5 1 9.5 1.5t9.5 0.5q22 0 44.5 -7t45 -17t45 -20.5t43.5 -16.5q20 2 32.5 12t21 24t14 30.5t11.5 32.5q46 -1 85 -12t67 -31t44 -49 t16 -66q0 -45 -25 -98z" />
<glyph unicode="&#x642;" horiz-adv-x="601" arabic-form="initial" d="M427 958q-11 -3 -20 -4t-18 -1q-27 0 -49.5 10t-44 22.5t-44 24.5t-50.5 17q-21 -2 -30.5 -16t-16 -31t-15 -32t-27.5 -19q-31 0 -55 6.5t-44.5 17t-39 22.5t-38.5 23v6q0 48 8 85.5t18 74.5l3 10q5 1 9.5 1.5t9.5 0.5q22 0 44.5 -7t45 -17t45 -20.5t43.5 -16.5 q20 2 32.5 12t21 24t14 30.5t11.5 32.5q46 -1 85 -12t67 -31t44 -49t16 -66q0 -45 -25 -98zM-7 0q-47 12 -64 39.5t-17 59.5q0 35 19.5 66t61.5 40h113q57 0 120 13.5t116.5 37.5t90.5 57t41 72q-21 14 -52 14q-22 0 -47 -6t-51 -12.5t-53 -12.5t-54 -6q-29 0 -56 9t-51 34 q-19 37 -28 82t-9 93q0 47 9.5 92t28.5 80t48 56.5t67 21.5q37 0 81 -22q43 -23 85 -72t75 -113.5t53.5 -138.5t20.5 -146q0 -81 -31 -152t-104 -116q-29 -18 -67 -31t-78.5 -22t-80.5 -13t-73 -4h-114z" />
<glyph unicode="&#x642;" horiz-adv-x="745" arabic-form="medial" d="M556 800q-11 -3 -20 -4t-18 -1q-27 0 -49.5 10t-44 22.5t-44 24.5t-50.5 17q-21 -2 -30.5 -16t-16 -31t-15 -32t-27.5 -19q-31 0 -55 6.5t-44.5 17t-39 22.5t-38.5 23v6q0 48 8 85.5t18 74.5l3 10q5 1 9.5 1.5t9.5 0.5q22 0 44.5 -7t45 -17t45 -20.5t43.5 -16.5 q20 2 32.5 12t21 24t14 30.5t11.5 32.5q46 -1 85 -12t67 -31t44 -49t16 -66q0 -45 -25 -98zM-10 0q-23 1 -40.5 10.5t-29.5 24t-18 32.5t-6 37q0 36 23 66.5t71 34.5h10q17 2 36.5 5.5t38.5 9t36 12.5t29 16q-5 32 -7.5 64t-2.5 61q0 57 10.5 105.5t34 84t61 56t91.5 22.5h8 q54 0 94 -19t66.5 -52t39.5 -78t13 -96q0 -42 -8.5 -87t-25.5 -90q8 -5 25 -7.5t37.5 -4t42 -2t38.5 -0.5h97q56 -6 83.5 -36.5t27.5 -65.5t-27.5 -65t-82.5 -38h-52q-18 0 -34 -0.5t-24 -0.5q-49 0 -102 4t-103.5 13t-95 22.5t-76.5 33.5q-25 -20 -56.5 -33.5t-67 -22 t-72.5 -12.5t-72 -4h-10zM228 356q9 -32 42 -49t71 -17q33 0 62.5 13.5t41.5 42.5q-3 16 -16 30.5t-32 25t-41 16.5t-43 6q-32 0 -57 -15.5t-28 -52.5z" />
<glyph unicode="&#x643;" horiz-adv-x="1172" arabic-form="isolated" d="M1016 822q10 -60 25.5 -125t30.5 -131t26 -130.5t11 -124.5q0 -59 -13.5 -111.5t-46.5 -95.5q-140 -48 -275.5 -76t-267.5 -31h-7q-62 0 -116.5 17t-107 39t-105 43.5t-110.5 30.5q25 45 72.5 59.5t107.5 14.5q48 0 101 -4.5t106 -4.5q13 0 25.5 0.5t25.5 1.5 q151 14 287.5 41t245.5 75q-2 76 -18 147t-38.5 139t-48 134t-47.5 132.5t-36.5 134.5t-14.5 141q0 20 1 40.5t4 41.5l20 2q12 -18 36 -36.5t53 -38.5t59 -41.5t54.5 -46t40 -52t15.5 -58.5q0 -17 -5 -34.5t-16 -37.5q-6 -10 -16 -14t-21 -8t-21 -10.5t-16 -22.5zM311 652 q11 -2 28 -4t36 -2q30 0 55 8.5t25 33.5v6q-7 20 -23 29.5t-36 9.5q-15 0 -30.5 -5t-28 -15t-20 -23.5t-7.5 -29.5zM495 796q3 -24 5.5 -39t6.5 -26t10.5 -22.5t17.5 -27.5q33 9 61 9q39 0 71 -14t54.5 -37t35 -52t12.5 -59q0 -34 -17 -65.5t-55 -53.5h-7q-46 0 -98 -10 t-106 -22t-107 -22t-101 -10q-21 0 -41.5 2.5t-38.5 8.5q21 35 57.5 55.5t81 32t94 18t96.5 15t88.5 21.5t70.5 38l1 6q0 17 -20.5 24.5t-44.5 7.5q-23 0 -41.5 -6.5t-18.5 -18.5q0 -6 6 -13q-16 9 -35 12.5t-41 3.5l-131 -8q-31 0 -57.5 7t-45.5 27q-15 43 -15 81t13.5 69 t35.5 52.5t51 33.5t60 12q23 0 46.5 -7t45.5 -23z" />
<glyph unicode="&#x643;" horiz-adv-x="1376" arabic-form="final" d="M825 723q39 -64 39 -112q0 -43 -27 -72t-71 -47t-100 -26t-114 -8q-68 0 -130 9t-104 23v5q0 19 8 30t21 16.5t29.5 7t33.5 1.5h34h15.5t14.5 1q38 4 77.5 9.5t77 12t71 15t59.5 17.5q-25 14 -56 19.5t-63 7.5t-62.5 4.5t-55.5 12.5t-41.5 30.5t-19.5 58.5v11 q0 28 11.5 54t31 45.5t44.5 31t53 11.5q24 0 48 -9.5t47 -32.5q5 -9 7.5 -21.5l5 -25t6 -23.5t11.5 -18zM556 766l3 -1q14 -6 28.5 -11t34.5 -5h7.5t8.5 1q1 3 1 10q0 16 -14.5 23.5t-32.5 7.5q-15 0 -28 -5.5t-15 -16.5zM1387 205q26 -1 47 -10t35.5 -23t22.5 -31.5 t8 -34.5q0 -19 -8.5 -37t-23.5 -32t-35 -24t-42 -13h-13q-57 0 -99 25.5t-74 65.5t-55.5 89t-42.5 96q-41 -41 -110 -80.5t-154 -70.5t-179.5 -50t-184.5 -19q-53 0 -103 7.5t-94.5 24t-81.5 42t-65 62.5q-37 49 -55.5 114.5t-18.5 135.5q0 49 9.5 97t28.5 91.5t48 80 t68 62.5q-9 -43 -22 -82t-24 -75t-19 -69t-8 -63q0 -42 19.5 -80t70.5 -73q48 -34 121.5 -50t158.5 -16q92 0 187.5 17t176 48.5t137.5 74.5t71 96q5 22 5 50q0 22 -2 47t-5 49t-6 45t-5 36q-7 46 -18.5 94t-22 95t-18.5 93.5t-8 91.5q0 50 13 96.5t45 89.5q6 -72 17.5 -158 t26 -178t31.5 -186.5t35 -183.5q8 -40 13.5 -83t13.5 -84t19.5 -78t31.5 -65.5t50 -46.5t74 -20h13z" />
<glyph unicode="&#x643;" horiz-adv-x="537" arabic-form="initial" d="M-10 0q-47 8 -65.5 37t-18.5 65q0 18 4 35.5t14 31.5t26 24t40 12h140q29 3 47 13.5t43 29.5l9 7q-5 49 -25.5 99.5t-49.5 101.5t-61 102.5t-59 103t-45 103t-18 102.5q0 47 18 93t63 97q19 19 46.5 45t60.5 49.5t69.5 46.5t71.5 43q64 36 125.5 75.5t123 79.5t123.5 77 t128 67v-6q0 -77 -27 -139.5t-65.5 -118t-81 -108t-72.5 -110.5q-7 15 -7 31t6 32t12.5 32.5t12.5 34t6 36.5l-1 11q-57 -20 -115 -53.5t-113.5 -72t-107.5 -77t-97 -68.5q-38 -31 -54 -61t-16 -59q0 -25 10 -51t25.5 -54t35 -58t38.5 -62q31 -50 52.5 -95t41.5 -91 q9 -21 18.5 -46t18 -53.5t13.5 -58.5t5 -60q0 -51 -19.5 -97.5t-70.5 -78.5q-18 -10 -48 -17t-65.5 -12t-71 -7.5t-63.5 -2.5h-10z" />
<glyph unicode="&#x643;" horiz-adv-x="1137" arabic-form="medial" d="M-10 0q-43 17 -62 44t-19 56q0 34 22 63.5t59 41.5h25q19 2 49.5 11.5t60 24t53 32t29.5 34.5q5 14 5 36q0 45 -23 103t-52 119.5t-55 122t-33 111.5q-3 24 -3 45q0 31 5 59t12 55.5t14 58t12 66.5q74 66 161 120.5t182 101t196.5 86.5t204.5 77l62 22v-6 q0 -53 -14.5 -100.5t-38.5 -90.5t-55 -82t-62.5 -74.5t-61.5 -67t-53 -60.5q0 33 10 56t22.5 44t23.5 43t13 54q-68 -12 -145.5 -39.5t-153.5 -65.5t-144.5 -85.5t-117.5 -99.5q27 -81 59 -165t78.5 -156t101.5 -141.5t128 -116.5t156 -77t489 -55q24 0 46 -7t39 -21 t27 -34.5t10 -47.5q-3 -25 -14 -43t-28 -29.5t-37.5 -17t-42.5 -5.5q-344 18 -536.5 77t-278.5 161q-13 -44 -43.5 -83.5t-70 -71t-84 -52.5t-84.5 -28q-14 -3 -27 -3h-16z" />
<glyph unicode="&#x644;" horiz-adv-x="1094" arabic-form="isolated" d="M994 909q1 -5 1 -10v-10q0 -34 -10 -58.5t-22.5 -44.5t-23.5 -39.5t-14 -43.5q-1 -6 -1 -12.5v-13.5q0 -41 11 -85t26 -90t30 -92.5t22 -90.5q9 -53 14 -110t6 -106v-6q0 -102 -37.5 -192t-108 -157.5t-172.5 -106.5t-231 -39q-96 0 -174 42t-133.5 110t-85.5 154 t-30 174q0 75 21 150.5t66 145.5q9 15 21 31.5t28.5 32t38 27.5t50.5 17q-8 -39 -28 -68.5t-43 -56.5t-45 -53t-32 -57q-8 -23 -11 -46t-3 -47q0 -43 10.5 -86t30 -82.5t48 -73.5t63.5 -59q47 -33 109.5 -46.5t129.5 -13.5q34 0 68 3t66 8q48 7 103.5 28t102.5 56.5t78.5 87 t31.5 120.5v11t-1 12q-3 35 -13 84.5t-23.5 104t-29 110t-28.5 101.5q-1 4 -2 7l-2 6q-21 73 -47 144.5t-48.5 144t-37.5 146.5t-15 152q7 3 9.5 7.5t10.5 4.5q37 -8 68.5 -36t61 -62.5t60 -69.5t66.5 -58z" />
<glyph unicode="&#x644;" horiz-adv-x="1217" arabic-form="final" d="M1157 205h64q30 0 52.5 -9.5t38 -24.5t23.5 -34t8 -38t-7.5 -36.5t-22.5 -31.5t-38 -22.5t-54 -8.5h-79q-28 0 -57.5 2.5t-55.5 9.5q3 -21 3 -46q0 -47 -9 -96.5t-26 -83.5q-37 -61 -86.5 -110.5t-109 -85t-128 -54.5t-144.5 -19q-28 0 -57 2.5t-59 8.5q-87 17 -153.5 62 t-110.5 108t-66.5 139t-22.5 154q0 64 15 127.5t46 119t77.5 101t108.5 75.5q-11 -38 -39.5 -79t-59 -84.5t-55.5 -90.5t-28 -97v-17q0 -46 13.5 -82.5t34.5 -69.5q30 -45 71.5 -77t90.5 -51.5t102.5 -28.5t107.5 -9q20 0 39 1t38 3q55 6 112 27t103.5 52.5t77.5 70.5t35 81 v10q0 28 -10 67.5t-24 82.5t-30.5 86.5t-29.5 79.5q-26 71 -50.5 150t-46.5 160t-41.5 161.5t-35.5 154.5q-12 54 -12 110q0 32 4.5 64t15.5 67h5q9 0 12.5 -4.5t11.5 -5.5q33 -70 54.5 -162.5t41.5 -192.5t44 -199t61.5 -180.5t94.5 -137t142 -69.5z" />
<glyph unicode="&#x644;" horiz-adv-x="421" arabic-form="initial" d="M0 205q69 7 115.5 21t75 36t41 52t12.5 68q0 22 -1.5 38.5t-5 34t-10.5 40t-19 56.5q-20 60 -46 119.5t-49 118.5t-38.5 116.5t-15.5 112.5q0 38 9.5 75t31.5 72q33 -23 62.5 -54t59.5 -60t62.5 -50.5t71.5 -24.5q5 -20 8 -49t3 -58q0 -25 -2.5 -47.5t-8.5 -39.5 q-6 -2 -12 -2h-11q-17 0 -29 5.5t-21.5 12.5t-20 13.5t-24.5 9.5q21 -61 42 -130t40 -144q8 -33 12.5 -57.5t7 -47t3 -46.5t0.5 -55q0 -65 -17 -126.5t-56.5 -109t-105.5 -76.5t-164 -29q-24 0 -42 9t-30.5 24t-19 34t-6.5 39q0 18 5.5 36t17.5 32t30.5 22.5t44.5 8.5z" />
<glyph unicode="&#x644;" horiz-adv-x="708" arabic-form="medial" d="M-11 0q-45 11 -66 38t-21 59q0 34 22.5 64.5t64.5 43.5q59 6 105 10t78 15.5t51 35.5t25 71q-1 46 -11 101t-25.5 115.5t-33 125.5t-32.5 130.5t-25 129.5t-10 123q0 38 11 73.5t22 67.5h29q25 -62 43.5 -136.5t35.5 -154.5t35 -162t41.5 -159t55 -145t75 -119.5 t101.5 -84t135 -37.5h19q48 -7 70.5 -37.5t22.5 -64.5q0 -35 -25 -63t-68 -40h-19q-108 4 -186 34t-112.5 52.5t-65.5 45.5q-23 -32 -56.5 -56.5t-106.5 -50t-179 -25.5z" />
<glyph unicode="&#x645;" horiz-adv-x="1321" arabic-form="isolated" d="M898 217q32 -18 74.5 -31.5t87.5 -21.5q16 -3 32 -3q7 -2 14 -2h14q4 -1 13 -1h6.5t7.5 1q3 7 4.5 13.5t3.5 13.5v11q0 21 -10 38.5t-26 31t-36.5 22t-42.5 11.5l-15 3h-15q-40 0 -72 -20t-40 -66zM1183 -55q-17 -5 -37 -8t-53 -3h-16q-8 0 -16.5 1t-16.5 2 q-41 6 -81.5 18.5t-79.5 28t-75 31.5t-67 29q-39 -36 -77 -66.5t-80.5 -55t-91.5 -43t-109 -30.5q-69 -14 -126 -31t-112.5 -32t-116 -25t-136.5 -10h-10q7 26 43.5 46.5t86.5 38t106.5 34t104.5 34.5q55 21 123.5 45t134.5 53t122 65t86 83q21 32 42 70t44.5 76.5t49 75 t56 66.5t65.5 50.5t77 27.5q12 2 23.5 3.5t22.5 1.5h19l18 -3q43 -6 73 -28.5t49 -58t27.5 -83t8.5 -102.5v-29q0 -12 -2 -24.5t-4 -24.5q-9 -60 -28.5 -118t-46.5 -105z" />
<glyph unicode="&#x645;" horiz-adv-x="1121" arabic-form="final" d="M1132 205q16 0 31.5 -8.5t28 -22.5t20 -32.5t7.5 -37.5t-7.5 -37.5t-19.5 -33.5t-28 -24t-32 -9l-27 -2q-5 0 -14 -0.5l-18 -1t-17 -0.5h-11q-69 0 -132 9t-114 24q-32 -15 -54 -32.5t-42.5 -33.5t-44 -29t-57.5 -19q-18 -3 -37 -3q-24 0 -49 3.5t-50 8t-50 8.5t-48 4 q-11 0 -22 -1t-22 -4q-25 -6 -46 -27t-41 -47.5t-41 -53t-45 -43.5q-32 -23 -61.5 -35.5t-59.5 -20t-62 -12.5t-67 -12q14 43 41.5 74.5t62.5 56.5t74 46.5t76.5 44t69.5 50t53 64.5v23q0 60 3.5 118t15.5 107.5t35 87.5t62 58q28 14 52.5 20.5t47.5 6.5q37 0 69 -14 t61.5 -36t58.5 -48.5t58.5 -51.5t62 -45t69.5 -29q68 -16 140 -16q13 0 25 1t26 2.5t30.5 3t38.5 1.5zM385 144q19 -15 52 -23t71 -8q30 0 60 5t55 15q-2 20 -15.5 36t-34.5 27t-46 17t-49 6q-38 0 -66 -15t-28 -47q0 -8 1 -13z" />
<glyph unicode="&#x645;" horiz-adv-x="872" arabic-form="initial" d="M578 292q8 -34 26 -49t49 -15q10 0 20.5 1t22.5 4q-1 36 -24.5 50t-53.5 14q-11 0 -20.5 -1.5t-19.5 -3.5zM0 0q-24 0 -40 9.5t-25.5 24.5t-13.5 33.5t-4 36.5q0 20 5 38t15 32t25.5 22.5t37.5 8.5q63 3 123 17.5t114 36t100.5 48t83.5 54.5q24 19 47 46t47.5 52 t53.5 42.5t67 17.5q31 0 57 -16.5t46 -43.5t34 -62.5t21 -74.5q7 -37 12.5 -78t5.5 -81q0 -32 -5.5 -61t-20 -51t-39 -34.5t-62.5 -12.5q-17 0 -38 3q-38 6 -77.5 22.5t-79 35t-77 35.5t-71.5 25q-17 -20 -55 -41.5t-86 -40.5t-101 -31t-100 -12z" />
<glyph unicode="&#x645;" horiz-adv-x="883" arabic-form="medial" d="M-10 0q-18 3 -32.5 14.5t-24 26t-15 30.5t-5.5 29q0 16 5.5 32.5t15.5 31t24 25.5t32 16h46q40 0 74.5 11.5t66.5 29t62.5 38t62 39t66 31.5t74.5 16q12 3 16.5 13t7.5 22t7.5 22t17.5 12q34 -11 49.5 -33t27 -48.5t26 -54.5t45.5 -51q20 -14 46 -23.5t55.5 -14.5t61 -7 t62.5 -2h26q32 -4 53 -14t33.5 -24.5t17.5 -31t5 -32.5q0 -20 -6.5 -38.5t-20 -33t-34 -23t-48.5 -8.5h-18q-61 0 -128.5 11.5t-124.5 33.5q-17 -8 -32 -21.5t-31 -26.5t-34 -22.5t-40 -9.5q-11 0 -23.5 2.5t-26.5 9.5q-10 14 -14.5 34t-6.5 42.5t-3.5 46t-4.5 44.5 q-7 14 -18 17t-22 3q-34 -25 -76 -54t-88 -53.5t-93 -40.5t-90 -16h-26z" />
<glyph unicode="&#x646;" horiz-adv-x="1137" arabic-form="isolated" d="M917 721q27 -48 55 -96.5t51.5 -100.5t38 -110t14.5 -127v-18.5t-1 -19.5q-7 -108 -43.5 -193t-94.5 -147.5t-133.5 -102.5t-160.5 -58q-58 -13 -115 -13q-106 0 -192 42t-147 113.5t-94.5 167.5t-33.5 204q0 31 2.5 62t8.5 63q8 41 26 90.5t45 95t63.5 80.5t81.5 48 q-14 -42 -31 -74t-35 -59t-35 -51.5t-31 -51t-23.5 -57.5t-11.5 -71q0 -54 11 -98.5t31 -81.5q0 -10 14 -27.5t32.5 -36t36.5 -33.5t27 -21q63 -42 140.5 -61t156.5 -19q56 0 111 9t105 27t94 44.5t77 61.5q26 27 36.5 56t10.5 59q0 44 -17 91.5t-37 97.5t-37 102.5 t-17 107.5q0 26 5 52.5t16 53.5zM536 750q54 -5 91 -26t66 -52q-3 -50 -11 -93t-38 -65h-13q-95 0 -135 60q3 26 3.5 50t3 46t9.5 42t24 38z" />
<glyph unicode="&#x646;" horiz-adv-x="1218" arabic-form="final" d="M702 374q-1 -49 -5 -95t-25 -75h-35q-51 0 -88.5 15.5t-72.5 33.5v69q0 39 4.5 73.5t24.5 54.5q67 0 113 -20t84 -49v-7zM1159 0q-13 0 -24.5 1t-22.5 4l-16 -42q-20 -54 -38 -100t-40.5 -85.5t-51.5 -74.5t-71 -66q-69 -51 -158.5 -77t-187.5 -26q-20 0 -39.5 1t-39.5 3 q-177 19 -276 115t-124 267q-3 23 -5 46t-2 46q0 70 14.5 137.5t43 124.5t70 99t95.5 60q-14 -46 -37.5 -84.5t-46.5 -78t-40 -84t-17 -102.5q0 -22 3 -44q9 -76 48 -133t97 -94.5t130 -56t147 -18.5q67 0 132.5 14.5t122.5 44t101 73t68 101.5q-6 47 -23 94t-35.5 93.5 t-32.5 94t-14 95.5q0 28 6 57t20 58q22 -55 46 -102.5t55.5 -82.5t72.5 -55t98 -20q9 0 14 1t16 1h9q25 -1 46 -10t36 -23.5t23 -32t8 -36.5q0 -32 -26.5 -61.5t-87.5 -41.5h-66z" />
<glyph unicode="&#x646;" horiz-adv-x="483" arabic-form="initial" d="M145 205q52 2 100.5 13.5t77.5 28.5q-2 31 -9 51.5t-17 35t-21 26.5t-20.5 26.5t-15.5 34t-6 50.5q0 26 13 54t30 58q30 -34 57 -64t47 -64t32 -77t12 -104q0 -48 -13.5 -93.5t-44.5 -85.5q-41 -53 -99 -74t-122 -21h-152q-48 11 -71 40.5t-23 63.5t23.5 63.5t70.5 37.5 h151zM70 902q54 -5 91 -26t66 -52q-3 -50 -11 -93t-38 -65h-13q-95 0 -135 60q3 26 3.5 50t3 46t9.5 42t24 38z" />
<glyph unicode="&#x646;" horiz-adv-x="887" arabic-form="medial" d="M896 205q45 -14 67 -42t22 -60t-22 -60.5t-65 -42.5h-68q-46 0 -94.5 13.5t-91 38t-76.5 58.5t-50 75q-50 -36 -109.5 -67.5t-125.5 -56t-136.5 -40.5t-140.5 -21h-16q-35 15 -51.5 44t-16.5 59q0 34 18 62.5t50 39.5h21q79 6 156 25t149 46.5t135.5 60.5t115.5 65 q5 -48 28.5 -85t59.5 -62t81 -37.5t94 -12.5h66zM487 764q54 -5 91 -26t66 -52q-3 -50 -11 -93t-38 -65h-13q-95 0 -135 60q3 26 3.5 50t3 46t9.5 42t24 38z" />
<glyph unicode="&#x647;" horiz-adv-x="717" arabic-form="isolated" d="M285 463q-16 -17 -31 -35t-27 -39.5t-19 -48t-7 -59.5v-9q20 -26 62.5 -39.5t91.5 -13.5q31 0 61 5t54.5 15.5t42 26t23.5 36.5q-52 52 -111 96t-135 71zM644 853q-21 -32 -49 -57t-56.5 -49.5t-55 -51t-45.5 -59.5q33 -41 71.5 -77t71 -78t54 -95t21.5 -127 q0 -59 -31.5 -105t-80 -78t-106.5 -49.5t-112 -19.5h-7q-55 2 -93.5 22t-63 52t-35.5 73.5t-11 87.5q0 70 23 141t62 126q-20 18 -44 38.5t-45.5 45t-36 53.5t-14.5 64q0 40 23 83q42 -5 75 -18.5t63 -30l60 -33t67 -26.5q40 18 77 38.5t73 42.5t71.5 44.5t73.5 42.5z" />
<glyph unicode="&#x647;" horiz-adv-x="1067" arabic-form="final" d="M1073 205q48 -9 71 -39t23 -63q0 -35 -24.5 -64.5t-69.5 -38.5h-12q-5 0 -11 -0.5t-12 -0.5q-9 -1 -17.5 -1h-16.5q-115 0 -217.5 46.5t-174.5 141.5q-31 -27 -71 -53t-85.5 -46.5t-95 -33t-99.5 -12.5q-25 0 -50 3.5t-49 11.5q-32 10 -51 24.5t-30 34t-15 44t-5 54.5v16 q0 64 20 114.5t54 92t78 74.5t92 61.5t97 54.5t92 52q1 5 1 8.5v8.5q0 21 -4 44.5t-9.5 48.5t-9.5 49.5t-4 48.5q0 27 8 51.5t28 44.5q18 -20 30.5 -51t21.5 -66t16 -71t13 -66q5 -23 6.5 -34t2.5 -21t3.5 -24.5t8.5 -45.5q13 -63 33 -130t51 -122q16 -29 34 -48t39 -32.5 t46.5 -23t56.5 -17.5q45 -12 91 -18.5t94 -6.5h22zM245 434q-23 -19 -46 -42.5t-38 -62.5q-4 -10 -6.5 -17t-2.5 -12q0 -12 25 -24q23 -12 48.5 -17.5t53.5 -5.5q40 0 81 9.5t79 25t70.5 35t53.5 40.5q-8 63 -19 123t-30 113q-35 -8 -58 -18.5t-43 -23.5q-23 -16 -36 -24.5 t-22 -13.5t-16 -9.5t-17 -12.5t-26 -21t-43 -35z" />
<glyph unicode="&#x647;" horiz-adv-x="910" arabic-form="initial" d="M600 261h32q1 -1 4 -1q34 0 58.5 12t33.5 38q-16 34 -39.5 59t-68.5 30q-8 -22 -18 -48.5t-10 -52.5q0 -21 8 -37zM295 320q18 -14 38 -20t41 -6q37 0 73 14t65 31q-2 32 -13 56t-28.5 39.5t-39 23t-43.5 7.5q-20 0 -38 -6t-32.5 -18t-23 -30t-8.5 -41t9 -50zM-10 0 q-31 14 -44 43.5t-13 58.5q0 36 16 65t41 38h118q6 -2 11 -2q14 0 32.5 5.5t25.5 10.5q24 15 33 53t12 84t4.5 92t10.5 78q11 39 25 62.5t29 42.5t31 37t32 45v17q0 16 1 30t9 22q8 -5 16 -9.5t16 -9.5q44 -26 95 -56t101.5 -65.5t97 -76.5t82 -87.5t56.5 -99t21 -111.5 q0 -22 -3 -46q-7 -47 -25.5 -77t-46 -48t-63.5 -25t-78 -7h-309q-5 1 -9.5 1h-9.5q-34 0 -65.5 -10t-67.5 -22.5t-80 -22.5t-102 -10z" />
<glyph unicode="&#x647;" horiz-adv-x="1044" arabic-form="medial" d="M443 -90q10 -27 27.5 -53.5t42 -47t55 -33t66.5 -12.5q6 0 12 0.5t13 1.5q9 11 12 21.5t3 21.5q0 25 -14 49.5t-36.5 43.5t-50.5 30.5t-55 11.5q-21 0 -40.5 -8t-34.5 -26zM386 238q41 5 88 15t86.5 28t66 46.5t26.5 71.5q0 22 -7 44q-49 23 -95 23q-37 0 -68 -14.5 t-53 -40t-34.5 -60t-12.5 -74.5q0 -20 3 -39zM9 0h-18q-32 0 -55 9.5t-38 24t-22.5 32.5t-7.5 36q0 19 7.5 37.5t23 33t38.5 23.5t54 9h21q12 -2 20.5 -3t16 -2t15.5 -1h20q48 0 87 9t65 32q20 31 38 71.5t35.5 84.5t35.5 88.5t39.5 84t48 70.5t59.5 48q34 18 77 18 q32 0 65 -10t62.5 -29.5t53.5 -47.5t38 -63q2 -16 3.5 -31.5t1.5 -29.5q0 -38 -7.5 -72.5t-21 -68t-31.5 -68t-40 -72.5q8 -16 42.5 -22t82.5 -6q60 0 107 6t92 11q13 1 24 3h22q27 0 47 -9.5t32.5 -24.5t19 -34t6.5 -37q0 -40 -28.5 -70t-76.5 -30h-15l-24 -3 q-28 -4 -51.5 -8t-46 -9t-45 -11.5t-47.5 -15.5q1 -8 1 -17v-18q0 -61 -13 -123.5t-35.5 -114.5t-53 -87t-64.5 -41q-33 -6 -62 -6q-75 0 -127 32.5t-88 84t-61 114t-46 122.5q-5 14 -9.5 27t-9.5 26q-15 12 -40.5 20t-59 13t-73.5 8t-84 7z" />
<glyph unicode="&#x648;" horiz-adv-x="577" arabic-form="isolated" d="M-195 -182q53 34 115 58.5t126.5 47t127.5 46.5t117.5 56.5t96.5 77.5t66 108q-14 8 -30 11t-33 3q-38 0 -79 -9t-80 -9q-26 0 -49.5 6.5t-43.5 26.5q-14 35 -21.5 82.5t-7.5 97.5q0 45 7.5 87.5t24 75.5t43 53.5t65.5 20.5q15 0 31 -3.5t35 -10.5q51 -19 89 -60t64 -95 t39 -118t13 -129q0 -46 -6.5 -91t-20 -86t-34 -76t-48.5 -61q-34 -32 -80.5 -55t-102 -38t-118 -22.5t-128.5 -7.5q-45 0 -89 3t-89 10z" />
<glyph unicode="&#x648;" horiz-adv-x="830" arabic-form="final" d="M801 205h36q12 -5 24.5 -15t23 -23.5t17 -30t6.5 -34.5q0 -13 -3 -27.5t-11 -28t-21.5 -25.5t-35.5 -21q-11 0 -32 -0.5t-42 -2t-37.5 -6t-19.5 -11.5q-27 -87 -66 -164t-95 -135.5t-131.5 -93t-176.5 -36.5h-11q-41 0 -85.5 4.5t-90 9.5t-90.5 10t-87 6q48 35 107 56.5 t121.5 39t125 35.5t118.5 46l27 13q33 16 68 34.5t64 42.5t50 54.5t27 71.5q-32 9 -71 14.5t-79.5 12.5t-78.5 18.5t-66 33.5q-16 40 -24 84t-8 88q0 45 9 87t27.5 75t47 54.5t66.5 24.5q5 1 9 1h9q49 0 85 -23t63.5 -58.5t50 -77.5t45.5 -80q10 -16 27.5 -19.5t37.5 -3.5 h70z" />
<glyph unicode="&#x649;" horiz-adv-x="1221" arabic-form="isolated" d="M1138 736q4 -45 13.5 -91.5t9.5 -87.5q0 -30 -9 -54.5t-33 -41.5q-20 1 -28.5 13.5t-15.5 26.5t-16 25.5t-29 12.5q-98 -35 -173.5 -91.5t-121.5 -144.5q17 -24 40.5 -31.5t50.5 -7.5l94 5q11 0 21.5 -1t20.5 -4q52 -16 74.5 -54.5t22.5 -95.5q0 -28 -5 -59t-14 -66 q-3 -12 -10 -26t-15 -27t-15 -23t-9 -13q-20 -31 -51 -65t-71 -67.5t-88 -64t-101 -54t-110 -37.5t-115 -14q-48 0 -96 11t-95 35q-53 28 -91.5 72t-63.5 98.5t-36.5 118t-11.5 129.5q0 79 16 158.5t46 150t73 127.5t97 91v-13q0 -45 -11.5 -83.5t-29 -74t-37.5 -69.5 t-37.5 -70t-29 -76.5t-11.5 -89.5q0 -40 9 -85q5 -25 22 -53.5t39.5 -55t48 -48t47.5 -30.5q34 -14 71 -20.5t76 -6.5q70 0 141.5 19t134.5 51t112 74.5t75 89.5q-19 13 -43.5 19.5t-51.5 10.5t-54.5 7.5t-52 10t-44 18.5t-30.5 32q-5 21 -6.5 40.5t-1.5 38.5q0 63 23.5 121 t73.5 124q29 38 66 85.5t79 91.5t87.5 79t91.5 49q8 2 14 2q13 0 25.5 -5t22.5 -12t17 -13.5t9 -10.5z" />
<glyph unicode="&#x649;" horiz-adv-x="883" arabic-form="final" d="M891 0q-7 0 -15.5 -0.5t-12.5 -1.5q-14 -3 -26.5 -6t-24 -8.5t-22.5 -15t-22 -25.5q33 -20 73.5 -28.5t78 -19t66 -30t37.5 -60.5q6 -27 6 -55q0 -60 -25 -116.5t-68.5 -107t-101 -92.5t-123.5 -72t-136.5 -47t-138.5 -17q-67 0 -128 18t-110 57q-36 28 -62 67t-43 85 t-25 96.5t-8 102.5q0 76 17 151.5t48.5 137.5t77 106.5t103.5 59.5q-6 -34 -22 -63.5t-36 -57.5t-42 -57.5t-40 -62.5t-29.5 -72t-11.5 -87q0 -12 1 -25t3 -27q8 -59 37 -101.5t72 -69.5t97 -40t112 -13q62 0 125 13.5t118.5 39t99 61t67.5 80.5q-36 18 -75 22.5t-74.5 11 t-64 21.5t-42.5 53q-18 48 -18 94q0 58 24.5 108.5t62.5 90.5t84.5 67t91.5 38q4 1 18 1.5t27 0.5q19 -1 35.5 -10t29 -23t20 -32.5t7.5 -37.5q0 -16 -5 -32.5t-16.5 -31t-29 -24.5t-41.5 -14z" />
<glyph unicode="&#x64a;" horiz-adv-x="1221" arabic-form="isolated" d="M1138 736q4 -45 13.5 -91.5t9.5 -87.5q0 -30 -9 -54.5t-33 -41.5q-20 1 -28.5 13.5t-15.5 26.5t-16 25.5t-29 12.5q-98 -35 -173.5 -91.5t-121.5 -144.5q17 -24 40.5 -31.5t50.5 -7.5l94 5q11 0 21.5 -1t20.5 -4q52 -16 74.5 -54.5t22.5 -95.5q0 -28 -5 -59t-14 -66 q-3 -12 -10 -26t-15 -27t-15 -23t-9 -13q-20 -31 -51 -65t-71 -67.5t-88 -64t-101 -54t-110 -37.5t-115 -14q-48 0 -96 11t-95 35q-53 28 -91.5 72t-63.5 98.5t-36.5 118t-11.5 129.5q0 79 16 158.5t46 150t73 127.5t97 91v-13q0 -45 -11.5 -83.5t-29 -74t-37.5 -69.5 t-37.5 -70t-29 -76.5t-11.5 -89.5q0 -40 9 -85q5 -25 22 -53.5t39.5 -55t48 -48t47.5 -30.5q34 -14 71 -20.5t76 -6.5q70 0 141.5 19t134.5 51t112 74.5t75 89.5q-19 13 -43.5 19.5t-51.5 10.5t-54.5 7.5t-52 10t-44 18.5t-30.5 32q-5 21 -6.5 40.5t-1.5 38.5q0 63 23.5 121 t73.5 124q29 38 66 85.5t79 91.5t87.5 79t91.5 49q8 2 14 2q13 0 25.5 -5t22.5 -12t17 -13.5t9 -10.5z" />
<glyph unicode="&#x64a;" horiz-adv-x="883" arabic-form="final" d="M891 0q-7 0 -15.5 -0.5t-12.5 -1.5q-14 -3 -26.5 -6t-24 -8.5t-22.5 -15t-22 -25.5q33 -20 73.5 -28.5t78 -19t66 -30t37.5 -60.5q6 -27 6 -55q0 -60 -25 -116.5t-68.5 -107t-101 -92.5t-123.5 -72t-136.5 -47t-138.5 -17q-67 0 -128 18t-110 57q-36 28 -62 67t-43 85 t-25 96.5t-8 102.5q0 76 17 151.5t48.5 137.5t77 106.5t103.5 59.5q-6 -34 -22 -63.5t-36 -57.5t-42 -57.5t-40 -62.5t-29.5 -72t-11.5 -87q0 -12 1 -25t3 -27q8 -59 37 -101.5t72 -69.5t97 -40t112 -13q62 0 125 13.5t118.5 39t99 61t67.5 80.5q-36 18 -75 22.5t-74.5 11 t-64 21.5t-42.5 53q-18 48 -18 94q0 58 24.5 108.5t62.5 90.5t84.5 67t91.5 38q4 1 18 1.5t27 0.5q19 -1 35.5 -10t29 -23t20 -32.5t7.5 -37.5q0 -16 -5 -32.5t-16.5 -31t-29 -24.5t-41.5 -14z" />
<glyph unicode="&#x64a;" horiz-adv-x="493" arabic-form="initial" d="M145 205q52 2 100.5 13.5t77.5 28.5q-2 31 -9 51.5t-17 35t-21 26.5t-20.5 26.5t-15.5 34t-6 50.5q0 26 13 54t30 58q30 -34 57 -64t47 -64t32 -77t12 -104q0 -48 -13.5 -93.5t-44.5 -85.5q-41 -53 -99 -74t-122 -21h-152q-48 11 -71 40.5t-23 63.5t23.5 63.5t70.5 37.5 h151zM400 -373q-11 -3 -20 -4t-18 -1q-27 0 -49.5 10t-44 22.5t-44 24.5t-50.5 17q-21 -2 -30.5 -16t-16 -31t-15 -32t-27.5 -19q-31 0 -55 6.5t-44.5 17t-39 22.5t-38.5 23v6q0 48 8 85.5t18 74.5l3 10q5 1 9.5 1.5t9.5 0.5q22 0 44.5 -7t45 -17t45 -20.5t43.5 -16.5 q20 2 32.5 12t21 24t14 30.5t11.5 32.5q46 -1 85 -12t67 -31t44 -49t16 -66q0 -45 -25 -98z" />
<glyph unicode="&#x64a;" horiz-adv-x="887" arabic-form="medial" d="M896 205q45 -14 67 -42t22 -60t-22 -60.5t-65 -42.5h-68q-46 0 -94.5 13.5t-91 38t-76.5 58.5t-50 75q-50 -36 -109.5 -67.5t-125.5 -56t-136.5 -40.5t-140.5 -21h-16q-35 15 -51.5 44t-16.5 59q0 34 18 62.5t50 39.5h21q79 6 156 25t149 46.5t135.5 60.5t115.5 65 q5 -48 28.5 -85t59.5 -62t81 -37.5t94 -12.5h66zM680 -338q-11 -3 -20 -4t-18 -1q-27 0 -49.5 10t-44 22.5t-44 24.5t-50.5 17q-21 -2 -30.5 -16t-16 -31t-15 -32t-27.5 -19q-31 0 -55 6.5t-44.5 17t-39 22.5t-38.5 23v6q0 48 8 85.5t18 74.5l3 10q5 1 9.5 1.5t9.5 0.5 q22 0 44.5 -7t45 -17t45 -20.5t43.5 -16.5q20 2 32.5 12t21 24t14 30.5t11.5 32.5q46 -1 85 -12t67 -31t44 -49t16 -66q0 -45 -25 -98z" />
<glyph />
<glyph />
<glyph unicode="&#xd;" horiz-adv-x="508" />
<glyph unicode=" "  horiz-adv-x="120" />
<glyph unicode="&#x09;" horiz-adv-x="120" />
<glyph unicode="&#xa0;" horiz-adv-x="120" />
<glyph unicode="!" horiz-adv-x="672" d="M313 328l-49 1036q0 46 21 69t62 23q42 0 62.5 -23t20.5 -69l-80 -1036h-37zM223 167l82 84q15 14 29 14q13 0 31 -16l80 -86q12 -16 12 -29q0 -15 -14 -31l-80 -88q-20 -20 -29 -20q-16 0 -29 14l-88 101q-10 13 -10 26q0 15 16 31z" />
<glyph unicode="&#x22;" horiz-adv-x="672" d="M197 1108h-30l-62 359q-4 23 -4 33q0 37 20.5 57t59.5 20t60.5 -19.5t21.5 -56.5q0 -8 -4 -34zM509 1108h-30l-62 359q-4 23 -4 33q0 37 20.5 57t59.5 20t60.5 -19.5t21.5 -56.5q0 -8 -4 -34z" />
<glyph unicode="(" horiz-adv-x="894" d="M312 283q4 -109 15 -192t28 -142q27 -88 72 -168t105.5 -149.5t135.5 -127t162 -100.5q-154 12 -292.5 77.5t-244.5 171.5q-103 105 -162 245q-29 70 -46.5 165.5t-24.5 219.5q7 125 24.5 221.5t46.5 166.5q59 140 162 245q106 106 244.5 171.5t292.5 77.5 q-176 -87 -298 -227t-177 -317q-17 -59 -28 -142t-15 -192v-4v0z" />
<glyph unicode=")" horiz-adv-x="894" d="M579 291q-9 215 -44 334q-27 88 -71.5 168t-104.5 149t-135.5 126.5t-163.5 100.5q155 -12 293 -77.5t243 -171.5q104 -105 163 -244q59 -141 71 -389q-12 -244 -71 -385t-163 -245q-105 -106 -243 -171.5t-293 -77.5q177 86 299 227t176 318q35 119 44 334v4v0z" />
<glyph unicode="0" horiz-adv-x="411" d="M58 482q6 8 21.5 27.5t33 40.5t33.5 40t24 26q9 12 16 11.5t13 -7.5q44 -36 86 -68.5t70 -61.5q6 -6 5 -11t-7 -13q-26 -37 -54 -71t-55 -70q-12 -21 -31 -9q-15 9 -38 26.5t-46 37.5t-43 39.5t-29 31.5q-7 9 -5.5 15t6.5 16z" />
<glyph unicode="1" horiz-adv-x="281" d="M50 684q0 3 2 17.5t6 34t9 41.5t11 40t12.5 29t12.5 9q10 -2 24 -31t29.5 -78t31.5 -113t28 -133q9 -54 12 -117t1 -126t-10 -120.5t-21 -100.5q-2 -9 -5.5 -15t-9.5 -3q-5 7 -6 18.5t-1 15.5q-3 41 -3 79t-3 81q-3 21 -6.5 50t-8.5 62.5t-12.5 70t-16.5 73.5 q-17 58 -37 109.5t-39 106.5z" />
<glyph unicode="2" horiz-adv-x="536" d="M216 35q-3 -13 -8 -26.5t-10 -19t-8 -1t-3 29.5q-2 103 -13.5 201t-32.5 199q-1 5 -4 17t-7 26t-7.5 25.5t-5.5 16.5q-7 26 -17 53t-19 51.5t-17 43.5t-12 29q-2 9 -2 15q0 9 1 10q10 35 17.5 69t16.5 70q3 12 8.5 19t12.5 7q4 -1 7 -4t6 -8t7.5 -13t14.5 -20 q13 -20 28.5 -31.5t34.5 -18.5t41.5 -10.5t51.5 -5.5q39 3 65.5 11.5t46 23t34 34.5t28.5 46q8 4 11.5 0.5t3.5 -11.5q0 -5 -2 -16.5t-6 -28.5q-3 -13 -7 -25l-7 -21t-4.5 -14t-1.5 -2q-35 -90 -93.5 -135.5t-151.5 -50.5q6 -43 12 -78.5t9 -69.5t4.5 -71t0.5 -84 q-1 -32 -1.5 -60.5t-2 -55.5t-6 -55.5t-13.5 -60.5z" />
<glyph unicode="3" horiz-adv-x="859" d="M212 41q-4 -9 -7 -14.5t-6 -3.5q-3 1 -2 7q2 95 -3 191t-21 191.5t-45 187.5t-75 175q-3 16 -1 35.5t7.5 41t12.5 41.5t12 36t10 29.5t11.5 18t15 -0.5t21.5 -27q15 -25 29 -53.5t31.5 -52t41.5 -38t59 -14.5q21 0 43.5 7t42.5 18.5t37 26.5t28 31q15 21 23.5 37t14 27.5 t10 18t12.5 6.5q6 0 8 -7t4.5 -17t4.5 -19.5t7 -15.5q20 -26 42.5 -37.5t53.5 -11.5q44 0 71 12.5t50 40.5q1 1 9 13.5t14 23.5t11.5 20t9.5 14t7 3.5t3 -13.5q-2 -30 -10.5 -57.5t-17.5 -55.5q-19 -42 -45 -84.5t-70 -79.5q-45 -34 -105 -38q-41 -1 -75.5 19t-51.5 55 q-1 1 -3 1q-3 0 -4 -1q-17 -28 -34 -50.5t-37.5 -39.5t-44 -29t-54.5 -21q-5 -1 -5 -5.5v-5.5q5 -49 11.5 -99.5t5.5 -101.5q-3 -62 -7 -102.5t-9.5 -72t-13 -61.5t-17.5 -68q-1 0 -2.5 -4.5t-3.5 -10t-3 -10.5t-1 -6z" />
<glyph unicode="4" horiz-adv-x="778" d="M95 -19q2 125 -12 243.5t-33 238.5q1 -2 0.5 17t0.5 50.5t5 73t12 85.5t23.5 86.5t39 75.5t57.5 53t82 20q40 0 74 -18t64 -46t53 -62t39 -65l196 230q4 4 12 8.5t18 1.5q2 -3 0.5 -9t-10.5 -26.5t-28 -59.5t-52 -109q-29 -34 -58.5 -69.5t-57 -73t-51 -78t-39.5 -82.5 q-5 -9 -11 -14t-11 3q0 35 -1.5 58t-2.5 36.5t-3.5 20.5t-3.5 10q-17 41 -48.5 74.5t-69.5 50.5t-80.5 13.5t-79.5 -35.5q-2 -5 -1.5 -17.5t2.5 -21.5q22 -107 32 -208.5t10 -209.5q-1 -31 -4.5 -59t-8 -55t-10 -54.5t-13.5 -57.5q-1 -4 -3 -9.5t-4 -11.5t-6 -11t-8 -5 q-6 0 -8 8t-2 10z" />
<glyph unicode="5" horiz-adv-x="795" d="M160 323q0 -25 5.5 -49.5t18 -44t32.5 -31t51 -11.5q24 0 44 8t35.5 21t28 29t21.5 33q9 15 13.5 27t9.5 21.5t10 16t14 8.5q6 0 6 -5q1 -20 3 -43t12.5 -42t33.5 -32.5t66 -15.5q7 0 23 2.5t32.5 7.5t28.5 12.5t12 16.5q0 23 -13 53.5t-31 61t-36.5 57.5t-28.5 42 q-10 11 -29 36t-44.5 54.5t-53.5 62t-55 60.5q-3 2 -4 3t-4.5 -1t-11 -11t-21 -29t-35.5 -52.5t-54 -84.5q-13 -17 -26.5 -39.5t-25 -46.5t-19.5 -49t-8 -46zM50 154q1 42 13 87t30.5 87.5t39 82.5t38.5 72q7 11 21.5 35t37 56t49.5 70.5t57 77.5q6 42 14 87.5t19 87.5 q4 13 10.5 16.5t15 -1.5t21.5 -19t33 -34q18 -20 42 -50t52 -66.5t58.5 -79t62.5 -86.5q15 -26 30 -53.5t26.5 -56t18 -59.5t5.5 -62q-6 -28 -10.5 -45.5t-8.5 -34.5t-9.5 -39.5t-16.5 -59.5q-9 -33 -28 -63t-44.5 -52.5t-56 -36t-64.5 -13.5q-31 0 -61.5 16t-51.5 41 q-2 3 -5.5 9t-8 12.5t-8.5 12t-6 6.5q-14 -20 -31 -40.5t-36 -36.5t-42 -26.5t-50 -10.5q-33 0 -61.5 14t-49.5 37.5t-33 54t-12 63.5z" />
</font>
</defs>
</svg>
