<?xml version="1.0" standalone="no"?>
<!DOCTYPE svg PUBLIC "-//W3C//DTD SVG 1.1//EN" "http://www.w3.org/Graphics/SVG/1.1/DTD/svg11.dtd" >
<svg xmlns="http://www.w3.org/2000/svg" xmlns:xlink="http://www.w3.org/1999/xlink" version="1.1">
<metadata></metadata>
<defs>
<font id="noto_naskh_arabic_uibold" horiz-adv-x="0" >
<font-face units-per-em="2048" ascent="1638" descent="-410" />
<missing-glyph horiz-adv-x="452" />
<glyph unicode="&#xfedf;&#xfe82;" horiz-adv-x="1119" arabic-form="isolated" d="M287 258q-5 0 -5 17q0 64 11.5 136.5t20.5 72.5h83q192 155 270 280q-159 159 -401 307l-75 -5q-121 61 -121 184q0 109 113 173q109 -75 270 -224.5t266 -270.5l16 -17q19 66 19 139q0 51 -43 300q-22 125 -22 153q0 83 61 132.5t155 49.5q33 -130 82 -252l-67 -51 l8 -231q0 -185 -97 -361q16 -16 100 -136t84 -152q0 -36 -34 -121t-48 -88q-197 -35 -646 -35zM570 491h11q169 11 300 33l-128 149q-81 -102 -183 -182zM768 1755zM131 1493zM858 140zM394 140zM187 1513q-94 0 -211 44l-98 -48l-25 42q121 98 135 98l36 -5 q119 -29 171 -29q35 0 85.5 11.5t78.5 25.5l16 -44q-40 -42 -95.5 -68.5t-92.5 -26.5zM131 1493zM132 1689z" />
<glyph unicode="&#xfee0;&#xfe82;" horiz-adv-x="1292" arabic-form="final" d="M131 265l-11 91q203 54 303 97t167 100l10 9q-71 146 -159 264.5t-204 228.5h-76q-53 55 -72 97t-19 90q0 60 30 96t102 58q206 -132 406 -567q20 -46 70 -179l5 8q92 137 132 336.5t42 519.5q36 21 105 67q57 38 112 69l3 -392l7 -682l41 -23q74 -34 184 -34 q18 0 18 -17v-209q0 -17 -18 -17q-139 0 -217.5 48t-93.5 136q-19 119 -32 327q-11 158 -20 264l-5 -54q-24 -252 -51 -347q-50 -174 -117.5 -257.5t-171.5 -96.5q-244 -27 -470 -31zM928 1730zM131 1466zM1038 140zM414 140zM187 1485q-94 0 -211 44l-98 -48l-25 42 q121 98 135 98l36 -5q119 -29 171 -29q35 0 85.5 11.5t78.5 25.5l16 -44q-40 -42 -95.5 -68.5t-92.5 -26.5zM131 1465zM132 1661z" />
<glyph unicode="&#xfedf;&#xfe84;" horiz-adv-x="1119" arabic-form="isolated" d="M287 258q-5 0 -5 17q0 64 11.5 136.5t20.5 72.5h83q192 155 270 280q-159 159 -401 307l-75 -5q-121 61 -121 184q0 109 113 173q109 -75 270 -224.5t266 -270.5l16 -17q19 66 19 139q0 51 -43 300q-22 125 -22 153q0 83 61 132.5t155 49.5q33 -130 82 -252l-67 -51 l8 -231q0 -185 -97 -361q16 -16 100 -136t84 -152q0 -36 -34 -121t-48 -88q-197 -35 -646 -35zM570 491h11q169 11 300 33l-128 149q-81 -102 -183 -182zM768 1755zM131 1493zM858 140zM394 140zM164 1720v5q0 19 -25 19q-44 0 -71 -51q37 -37 101 -37q35 0 80 9l-8 -91 q-74 -17 -124.5 -34.5t-125.5 -56.5l-5 85l74 44q-66 23 -66 78t48 109t95 54q76 0 76 -92q0 -28 -9 -48zM87 1933zM131 1493z" />
<glyph unicode="&#xfee0;&#xfe84;" horiz-adv-x="1292" arabic-form="final" d="M131 265l-11 91q203 54 303 97t167 100l10 9q-71 146 -159 264.5t-204 228.5h-76q-53 55 -72 97t-19 90q0 60 30 96t102 58q206 -132 406 -567q20 -46 70 -179l5 8q92 137 132 336.5t42 519.5q36 21 105 67q57 38 112 69l3 -392l7 -682l41 -23q74 -34 184 -34 q18 0 18 -17v-209q0 -17 -18 -17q-139 0 -217.5 48t-93.5 136q-19 119 -32 327q-11 158 -20 264l-5 -54q-24 -252 -51 -347q-50 -174 -117.5 -257.5t-171.5 -96.5q-244 -27 -470 -31zM928 1730zM131 1466zM1038 140zM414 140zM164 1693v5q0 19 -25 19q-44 0 -71 -51 q37 -37 101 -37q35 0 80 9l-8 -91q-74 -17 -124.5 -34.5t-125.5 -56.5l-5 85l74 44q-66 23 -66 78t48 109t95 54q76 0 76 -92q0 -28 -9 -48zM87 1906zM131 1466z" />
<glyph unicode="&#xfedf;&#xfe88;" horiz-adv-x="1119" arabic-form="isolated" d="M287 258q-5 0 -5 17q0 64 11.5 136.5t20.5 72.5h83q192 155 270 280q-159 159 -401 307l-75 -5q-121 61 -121 184q0 109 113 173q109 -75 270 -224.5t266 -270.5l16 -17q19 66 19 139q0 51 -43 300q-22 125 -22 153q0 83 61 132.5t155 49.5q33 -130 82 -252l-67 -51 l8 -231q0 -185 -97 -361q16 -16 100 -136t84 -152q0 -36 -34 -121t-48 -88q-197 -35 -646 -35zM570 491h11q169 11 300 33l-128 149q-81 -102 -183 -182zM768 1755zM131 1493zM858 140zM394 140zM452 -14v5q0 19 -25 19q-44 0 -71 -51q37 -37 101 -37q35 0 80 9l-8 -91 q-74 -17 -124.5 -34.5t-125.5 -56.5l-5 85l74 44q-66 23 -66 78t48 109t95 54q76 0 76 -92q0 -28 -9 -48zM394 140zM429 -228z" />
<glyph unicode="&#xfee0;&#xfe88;" horiz-adv-x="1292" arabic-form="final" d="M131 265l-11 91q203 54 303 97t167 100l10 9q-71 146 -159 264.5t-204 228.5h-76q-53 55 -72 97t-19 90q0 60 30 96t102 58q206 -132 406 -567q20 -46 70 -179l5 8q92 137 132 336.5t42 519.5q36 21 105 67q57 38 112 69l3 -392l7 -682l41 -23q74 -34 184 -34 q18 0 18 -17v-209q0 -17 -18 -17q-139 0 -217.5 48t-93.5 136q-19 119 -32 327q-11 158 -20 264l-5 -54q-24 -252 -51 -347q-50 -174 -117.5 -257.5t-171.5 -96.5q-244 -27 -470 -31zM928 1730zM131 1466zM1038 140zM414 140zM472 -14v5q0 19 -25 19q-44 0 -71 -51 q37 -37 101 -37q35 0 80 9l-8 -91q-74 -17 -124.5 -34.5t-125.5 -56.5l-5 85l74 44q-66 23 -66 78t48 109t95 54q76 0 76 -92q0 -28 -9 -48zM414 140zM449 -228z" />
<glyph unicode="&#xfedf;&#xfe8e;" horiz-adv-x="1119" arabic-form="isolated" d="M287 258q-5 0 -5 17q0 64 11.5 136.5t20.5 72.5h83q192 155 270 280q-159 159 -401 307l-75 -5q-121 61 -121 184q0 109 113 173q109 -75 270 -224.5t266 -270.5l16 -17q19 66 19 139q0 51 -43 300q-22 125 -22 153q0 83 61 132.5t155 49.5q33 -130 82 -252l-67 -51 l8 -231q0 -185 -97 -361q16 -16 100 -136t84 -152q0 -36 -34 -121t-48 -88q-197 -35 -646 -35zM570 491h11q169 11 300 33l-128 149q-81 -102 -183 -182zM768 1755zM131 1493zM858 140zM394 140z" />
<glyph unicode="&#xfee0;&#xfe8e;" horiz-adv-x="1292" arabic-form="final" d="M131 265l-11 91q203 54 303 97t167 100l10 9q-71 146 -159 264.5t-204 228.5h-76q-53 55 -72 97t-19 90q0 60 30 96t102 58q206 -132 406 -567q20 -46 70 -179l5 8q92 137 132 336.5t42 519.5q36 21 105 67q57 38 112 69l3 -392l7 -682l41 -23q74 -34 184 -34 q18 0 18 -17v-209q0 -17 -18 -17q-139 0 -217.5 48t-93.5 136q-19 119 -32 327q-11 158 -20 264l-5 -54q-24 -252 -51 -347q-50 -174 -117.5 -257.5t-171.5 -96.5q-244 -27 -470 -31zM928 1730zM131 1466zM1038 140zM414 140z" />
<glyph unicode="&#xfedf;&#xfb51;" horiz-adv-x="1119" d="M287 258q-5 0 -5 17q0 64 11.5 136.5t20.5 72.5h83q192 155 270 280q-159 159 -401 307l-75 -5q-121 61 -121 184q0 109 113 173q109 -75 270 -224.5t266 -270.5l16 -17q19 66 19 139q0 51 -43 300q-22 125 -22 153q0 83 61 132.5t155 49.5q33 -130 82 -252l-67 -51 l8 -231q0 -185 -97 -361q16 -16 100 -136t84 -152q0 -36 -34 -121t-48 -88q-197 -35 -646 -35zM570 491h11q169 11 300 33l-128 149q-81 -102 -183 -182zM768 1755zM131 1493zM858 140zM394 140zM161 1513q-40 0 -75 11.5t-88 38.5q-40 -20 -70 -50l-41 36q33 51 63.5 83 t70.5 32q14 0 29 -10q77 125 169 125q37 0 71 -42.5t34 -96.5q0 -44 -16 -87q-34 -23 -68 -31.5t-79 -8.5zM161 1614q46 0 65.5 4.5t46.5 16.5q-24 49 -70 49q-22 0 -44.5 -10.5t-60.5 -42.5q34 -17 63 -17zM129 1829zM131 1493z" />
<glyph unicode="&#xfee0;&#xfb51;" horiz-adv-x="1292" d="M131 265l-11 91q203 54 303 97t167 100l10 9q-71 146 -159 264.5t-204 228.5h-76q-53 55 -72 97t-19 90q0 60 30 96t102 58q206 -132 406 -567q20 -46 70 -179l5 8q92 137 132 336.5t42 519.5q36 21 105 67q57 38 112 69l3 -392l7 -682l41 -23q74 -34 184 -34 q18 0 18 -17v-209q0 -17 -18 -17q-139 0 -217.5 48t-93.5 136q-19 119 -32 327q-11 158 -20 264l-5 -54q-24 -252 -51 -347q-50 -174 -117.5 -257.5t-171.5 -96.5q-244 -27 -470 -31zM928 1730zM131 1466zM1038 140zM414 140zM161 1486q-40 0 -75 11.5t-88 38.5 q-40 -20 -70 -50l-41 36q33 51 63.5 83t70.5 32q14 0 29 -10q77 125 169 125q37 0 71 -42.5t34 -96.5q0 -44 -16 -87q-34 -23 -68 -31.5t-79 -8.5zM161 1587q46 0 65.5 4.5t46.5 16.5q-24 49 -70 49q-22 0 -44.5 -10.5t-60.5 -42.5q34 -17 63 -17zM129 1802zM131 1466z" />
<glyph unicode="&#xfedf;&#xfee0;&#xfeea;" horiz-adv-x="1980" d="M581 336q-100 9 -143.5 18.5t-75.5 20.5q-76 27 -149.5 79.5t-73.5 87.5q0 23 28.5 106.5t49 122.5t77.5 89.5t131 98.5t126 71l-10 82q87 68 129 96t84 53l-2 -409v-163l1 -116q97 -52 212 -54q92 2 180 38l-8 56l-31 262q-30 263 -61 452l55 34q98 60 162 96l-4 -195 l-10 -523v-163q88 -57 218 -57q30 0 87.5 12t117.5 34q-15 121 -33.5 239t-126.5 711l243 135q8 -338 16.5 -599.5t8.5 -449.5q0 -141 -80 -261q-38 -56 -222 -64h-27q-155 6 -228 72q-84 -42 -137.5 -56.5t-108.5 -15.5h-22q-115 3 -187.5 42.5t-85.5 108.5l-18 76z M285 679q64 -44 124 -62t113.5 -26t121.5 -11q-25 98 -60 266q-193 -64 -299 -167zM1143 1517zM1709 132zM1226 140zM1617 1720zM474 1331zM625 140z" />
<glyph unicode="&#x620;" horiz-adv-x="590" d="M0 276q-17 0 -17 17v209q0 17 17 17q102 0 205 16.5t160 41.5q-27 60 -54 108.5t-48.5 88t-35 71.5t-13.5 59q0 50 55.5 110t130.5 98l26 -134q59 -275 59 -342q0 -47 -23.5 -115t-56.5 -132q-186 -113 -405 -113zM284 1212zM260 140zM407 -27q0 -34 -11.5 -60.5 t-31 -43.5t-46 -27t-59.5 -10q-31 0 -58 10t-46 27t-30 43t-11 59q0 34 11 59.5t30 42.5t46 27t59 10t58.5 -10t46 -27t31 -42t11.5 -58zM322 -29q0 31 -17 47.5t-45 16.5t-46 -16.5t-18 -47.5q0 -28 16.5 -45.5t46.5 -17.5t46.5 17.5t16.5 45.5zM259 -188zM260 140z" />
<glyph unicode="&#x620;" horiz-adv-x="738" d="M0 276q-17 0 -17 17v209q0 17 17 17q165 0 223.5 9t94.5 27t55 45t61 113q33 67 57 82.5t58 15.5q50 0 81 -29q-55 -134 -90 -210q98 -53 216 -53q17 0 17 -17v-209q0 -17 -17 -17q-156 0 -297 141q-40 -66 -66.5 -82t-87 -30t-140 -21.5t-165.5 -7.5zM443 912zM387 140z M534 -27q0 -34 -11.5 -60.5t-31 -43.5t-46 -27t-59.5 -10q-31 0 -58 10t-46 27t-30 43t-11 59q0 34 11 59.5t30 42.5t46 27t59 10t58.5 -10t46 -27t31 -42t11.5 -58zM449 -29q0 31 -17 47.5t-45 16.5t-46 -16.5t-18 -47.5q0 -28 16.5 -45.5t46.5 -17.5t46.5 17.5t16.5 45.5z M386 -188zM387 140z" />
<glyph unicode="&#x620;" horiz-adv-x="1414" d="M1248 89q-70 27 -169.5 82.5t-153 97t-53.5 59.5q0 40 47.5 132t60.5 92q186 -33 445 -33q23 0 23 -22v-201q0 -20 -23 -20q-66 0 -159 10t-154 25l51 -24q86 -40 119 -57.5t46 -34t18.5 -46t5.5 -57.5q0 -76 -115.5 -158t-300 -137.5t-351.5 -55.5q-217 0 -331.5 107.5 t-114.5 313.5q0 103 51 296l90 -22q-28 -93 -28 -163q0 -142 86.5 -215.5t269.5 -73.5q162 0 337.5 27.5t302.5 77.5zM687 682zM69 -261zM1278 -359q0 -34 -11.5 -60.5t-31 -43.5t-46 -27t-59.5 -10q-31 0 -58 10t-46 27t-30 43t-11 59q0 34 11 59.5t30 42.5t46 27t59 10 t58.5 -10t46 -27t31 -42t11.5 -58zM1193 -361q0 31 -17 47.5t-45 16.5t-46 -16.5t-18 -47.5q0 -28 16.5 -45.5t46.5 -17.5t46.5 17.5t16.5 45.5zM1130 -520zM1131 -192z" />
<glyph unicode="&#x63b;" horiz-adv-x="907" d="M0 276q-17 0 -17 17v209q0 17 17 17q271 0 413 17t212 51q-24 47 -72 101t-117.5 107.5t-203.5 133.5q-24 -8 -54 -8q-56 0 -98.5 39t-42.5 94q0 45 21 148.5t32 108.5q259 130 398 193t342 146q41 -41 41 -103l-4 -36q-20 -91 -108 -135q-145 -71 -277 -121.5 t-330 -106.5q152 -38 284.5 -125t212.5 -198t80 -213q0 -163 -185 -249.5t-544 -86.5zM100 1491zM401 140zM706 1665q-65 52 -95 88q26 23 93 97l87 -87q-49 -65 -85 -98zM520 1582q-66 52 -94 88q46 42 92 96l87 -86q-44 -61 -85 -98z" />
<glyph unicode="&#x63b;" horiz-adv-x="957" d="M102 1495zM426 140zM993 502v-209q0 -17 -18 -17q-185 0 -330 152q-38 -35 -101 -65q-184 -87 -544 -87q-17 0 -17 17v209q0 17 17 17q266 0 413 17q141 16 212 51q-24 48 -72.5 102t-116.5 107q-77 57 -204 133q-212 122 -212 217q0 52 28 100.5t70 68.5 q329 159 761 335q42 -40 42 -102q0 -52 -31.5 -97.5t-78.5 -68.5q-118 -58 -247 -109t-383 -138q142 -36 267 -119.5t201 -190.5q80 -112 80 -213q0 -15 -1 -23q113 -70 247 -70q18 0 18 -17zM756 1665q-65 52 -95 88q26 23 93 97l87 -87q-49 -65 -85 -98zM570 1582 q-66 52 -94 88q46 42 92 96l87 -86q-44 -61 -85 -98z" />
<glyph unicode="&#x63b;" horiz-adv-x="1572" d="M751 1495zM909 140zM1605 520v-209q0 -17 -18 -17q-185 0 -329 151q-85 -82 -250 -125.5t-393 -43.5q-130 0 -213.5 14t-135 43t-82.5 78q-46 70 -46 194q0 40 11 117t17 99l92 -3l-7 -77q0 -87 40 -133.5t133 -66.5q93 -21 266 -21q347 0 482 55l64 29l1 1 q-24 48 -72.5 102t-116.5 107q-77 57 -204 133q-212 122 -212 217q0 52 28 100.5t70 68.5q329 159 761 335q42 -40 42 -102q0 -52 -31.5 -97.5t-78.5 -68.5q-118 -58 -247 -109t-383 -138q142 -36 267 -119.5t201 -190.5q80 -112 80 -213l-1 -23q113 -70 247 -70 q18 0 18 -17zM1424 1665q-65 52 -95 88q26 23 93 97l87 -87q-49 -65 -85 -98zM1238 1582q-66 52 -94 88q46 42 92 96l87 -86q-44 -61 -85 -98z" />
<glyph unicode="&#x63c;" horiz-adv-x="907" d="M0 276q-17 0 -17 17v209q0 17 17 17q271 0 413 17t212 51q-24 47 -72 101t-117.5 107.5t-203.5 133.5q-24 -8 -54 -8q-56 0 -98.5 39t-42.5 94q0 45 21 148.5t32 108.5q259 130 398 193t342 146q41 -41 41 -103l-4 -36q-20 -91 -108 -135q-145 -71 -277 -121.5 t-330 -106.5q152 -38 284.5 -125t212.5 -198t80 -213q0 -163 -185 -249.5t-544 -86.5zM100 1491zM401 140zM417 -36q90 84 126 127l66 -68l73 -74q-49 -57 -140 -128q-76 71 -125 143zM133 -6l128 126q68 -78 137 -142q-56 -61 -141 -128q-81 76 -124 144zM279 -195 q74 63 114 110q41 -57 108 -121q-48 -58 -110 -103q-36 27 -112 114zM391 -329zM401 140zM397 -46z" />
<glyph unicode="&#x63c;" horiz-adv-x="957" d="M102 1495zM426 140zM993 502v-209q0 -17 -18 -17q-185 0 -330 152q-38 -35 -101 -65q-184 -87 -544 -87q-17 0 -17 17v209q0 17 17 17q266 0 413 17q141 16 212 51q-24 48 -72.5 102t-116.5 107q-77 57 -204 133q-212 122 -212 217q0 52 28 100.5t70 68.5 q329 159 761 335q42 -40 42 -102q0 -52 -31.5 -97.5t-78.5 -68.5q-118 -58 -247 -109t-383 -138q142 -36 267 -119.5t201 -190.5q80 -112 80 -213q0 -15 -1 -23q113 -70 247 -70q18 0 18 -17zM442 -36q90 84 126 127l66 -68l73 -74q-49 -57 -140 -128q-76 71 -125 143z M158 -6l128 126q68 -78 137 -142q-56 -61 -141 -128q-81 76 -124 144zM304 -195q74 63 114 110q41 -57 108 -121q-48 -58 -110 -103q-36 27 -112 114zM416 -329zM426 140zM422 -46z" />
<glyph unicode="&#x63c;" horiz-adv-x="1572" d="M751 1495zM909 140zM1605 520v-209q0 -17 -18 -17q-185 0 -329 151q-85 -82 -250 -125.5t-393 -43.5q-130 0 -213.5 14t-135 43t-82.5 78q-46 70 -46 194q0 40 11 117t17 99l92 -3l-7 -77q0 -87 40 -133.5t133 -66.5q93 -21 266 -21q347 0 482 55l64 29l1 1 q-24 48 -72.5 102t-116.5 107q-77 57 -204 133q-212 122 -212 217q0 52 28 100.5t70 68.5q329 159 761 335q42 -40 42 -102q0 -52 -31.5 -97.5t-78.5 -68.5q-118 -58 -247 -109t-383 -138q142 -36 267 -119.5t201 -190.5q80 -112 80 -213l-1 -23q113 -70 247 -70 q18 0 18 -17zM925 -36q90 84 126 127l66 -68l73 -74q-49 -57 -140 -128q-76 71 -125 143zM641 -6l128 126q68 -78 137 -142q-56 -61 -141 -128q-81 76 -124 144zM787 -195q74 63 114 110q41 -57 108 -121q-48 -58 -110 -103q-36 27 -112 114zM899 -329zM909 140zM905 -46z " />
<glyph unicode="&#x63d;" horiz-adv-x="719" d="M-6 276q-17 0 -17 17v209q0 17 17 17q161 0 304.5 16t200.5 42q-27 60 -54 108.5t-48.5 88t-35 71.5t-13.5 59q0 49 54.5 109.5t131.5 98.5l26 -134q29 -144 44 -222t15 -120q0 -47 -23.5 -115t-56.5 -132q-84 -51 -238 -82t-307 -31zM388 1212zM354 140zM343 -18 q-51 -75 -125 -144q-99 82 -140 130l73 73l65 68q27 -31 127 -127zM617 12q-41 -64 -123 -144q-91 71 -142 129q65 56 138 143q12 -13 127 -128zM354 140zM353 -182zM353 -22zM259 1235q-19 2 -33.5 18t-14.5 46q0 15 30 75q46 88 83 195q40 26 109 35q101 -216 177 -324 l-33 -9q-22 -6 -39 -6q-33 0 -61 28t-60 85.5t-55 116.5q-9 -58 -42.5 -140t-60.5 -120zM389 1212zM360 1654z" />
<glyph unicode="&#x63d;" horiz-adv-x="738" d="M0 276q-17 0 -17 17v209q0 17 17 17q165 0 223.5 9t94.5 27t55 45t61 113q33 67 57 82.5t58 15.5q50 0 81 -29q-55 -134 -90 -210q98 -53 216 -53q17 0 17 -17v-209q0 -17 -17 -17q-156 0 -297 141q-40 -66 -66.5 -82t-87 -30t-140 -21.5t-165.5 -7.5zM443 912zM387 140z M381 -67q-51 -75 -125 -144q-88 69 -140 129l73 74l65 68q38 -44 127 -127zM655 -37q-53 -77 -124 -144q-85 67 -141 128q75 69 137 143q37 -39 128 -127zM387 140zM386 -211zM313 935q-19 2 -33.5 18t-14.5 46q0 15 30 75q46 88 83 195q40 26 109 35q101 -216 177 -324 l-33 -9q-22 -6 -39 -6q-33 0 -61 28t-60 85.5t-55 116.5q-9 -58 -42.5 -140t-60.5 -120zM443 912zM414 1354z" />
<glyph unicode="&#x63d;" horiz-adv-x="1414" d="M1248 89q-70 27 -169.5 82.5t-153 97t-53.5 59.5q0 40 47.5 132t60.5 92q186 -33 445 -33q23 0 23 -22v-201q0 -20 -23 -20q-66 0 -159 10t-154 25l51 -24q86 -40 119 -57.5t46 -34t18.5 -46t5.5 -57.5q0 -76 -115.5 -158t-300 -137.5t-351.5 -55.5q-217 0 -331.5 107.5 t-114.5 313.5q0 103 51 296l90 -22q-28 -93 -28 -163q0 -142 86.5 -215.5t269.5 -73.5q162 0 337.5 27.5t302.5 77.5zM687 682zM69 -261zM557 705q-19 2 -33.5 18t-14.5 46q0 15 30 75q46 88 83 195q40 26 109 35q101 -216 177 -324l-33 -9q-22 -6 -39 -6q-33 0 -61 28 t-60 85.5t-55 116.5q-9 -58 -42.5 -140t-60.5 -120zM687 682zM658 1124z" />
<glyph unicode="&#x63e;" horiz-adv-x="719" d="M-4 294q-17 0 -17 17v209q0 17 17 17q161 0 304.5 16t200.5 42q-27 60 -54 108.5t-48.5 88t-35 71.5t-13.5 59q0 49 54.5 109.5t131.5 98.5l26 -134q29 -144 44 -222t15 -120q0 -47 -23.5 -115t-56.5 -132q-84 -51 -238 -82t-307 -31zM390 1230zM356 158zM344 -1 q-51 -75 -125 -144q-99 82 -140 130l73 73l65 68q27 -31 127 -127zM618 29q-41 -64 -123 -144q-91 71 -142 129q65 56 138 143q12 -13 127 -128zM355 157zM354 -165zM354 -5zM385 1374q-51 -75 -125 -144q-88 69 -140 129l73 74l65 68q38 -44 127 -127zM659 1404 q-53 -77 -124 -144q-85 67 -141 128q75 69 137 143q37 -39 128 -127zM391 1581zM390 1230z" />
<glyph unicode="&#x63e;" horiz-adv-x="738" d="M0 276q-17 0 -17 17v209q0 17 17 17q165 0 223.5 9t94.5 27t55 45t61 113q33 67 57 82.5t58 15.5q50 0 81 -29q-55 -134 -90 -210q98 -53 216 -53q17 0 17 -17v-209q0 -17 -17 -17q-156 0 -297 141q-40 -66 -66.5 -82t-87 -30t-140 -21.5t-165.5 -7.5zM443 912zM387 140z M376 -18q-51 -75 -125 -144q-99 82 -140 130l73 73l65 68q27 -31 127 -127zM650 12q-41 -64 -123 -144q-91 71 -142 129q65 56 138 143q12 -13 127 -128zM387 140zM386 -182zM386 -22zM438 1056q-51 -75 -125 -144q-88 69 -140 129l73 74l65 68q38 -44 127 -127zM712 1086 q-53 -77 -124 -144q-85 67 -141 128q75 69 137 143q37 -39 128 -127zM444 1263zM443 912z" />
<glyph unicode="&#x63e;" horiz-adv-x="1414" d="M1248 89q-70 27 -169.5 82.5t-153 97t-53.5 59.5q0 40 47.5 132t60.5 92q186 -33 445 -33q23 0 23 -22v-201q0 -20 -23 -20q-66 0 -159 10t-154 25l51 -24q86 -40 119 -57.5t46 -34t18.5 -46t5.5 -57.5q0 -76 -115.5 -158t-300 -137.5t-351.5 -55.5q-217 0 -331.5 107.5 t-114.5 313.5q0 103 51 296l90 -22q-28 -93 -28 -163q0 -142 86.5 -215.5t269.5 -73.5q162 0 337.5 27.5t302.5 77.5zM687 682zM69 -261zM682 826q-51 -75 -125 -144q-88 69 -140 129l73 74l65 68q38 -44 127 -127zM956 856q-53 -77 -124 -144q-85 67 -141 128 q75 69 137 143q37 -39 128 -127zM688 1033zM687 682z" />
<glyph unicode="&#x63f;" horiz-adv-x="719" d="M-6 276q-17 0 -17 17v209q0 17 17 17q161 0 304.5 16t200.5 42q-27 60 -54 108.5t-48.5 88t-35 71.5t-13.5 59q0 49 54.5 109.5t131.5 98.5l26 -134q29 -144 44 -222t15 -120q0 -47 -23.5 -115t-56.5 -132q-84 -51 -238 -82t-307 -31zM388 1212zM354 140zM342 -17 q-51 -75 -125 -144q-99 82 -140 130l73 73l65 68q27 -31 127 -127zM616 13q-41 -64 -123 -144q-91 71 -142 129q65 56 138 143q12 -13 127 -128zM353 141zM352 -181zM352 -21zM373 1335q-60 -83 -125 -142q-89 67 -140 128l73 73l66 68q36 -43 126 -127zM657 1366 q-53 -77 -124 -144q-85 67 -141 128q62 56 137 142q25 -27 128 -126zM497 1513q-86 -94 -112 -115q-85 69 -124 116q84 76 118 115q45 -53 118 -116zM379 1679zM388 1212z" />
<glyph unicode="&#x63f;" horiz-adv-x="738" d="M0 276q-17 0 -17 17v209q0 17 17 17q165 0 223.5 9t94.5 27t55 45t61 113q33 67 57 82.5t58 15.5q50 0 81 -29q-55 -134 -90 -210q98 -53 216 -53q17 0 17 -17v-209q0 -17 -17 -17q-156 0 -297 141q-40 -66 -66.5 -82t-87 -30t-140 -21.5t-165.5 -7.5zM443 912zM387 140z M376 -18q-51 -75 -125 -144q-99 82 -140 130l73 73l65 68q27 -31 127 -127zM650 12q-41 -64 -123 -144q-91 71 -142 129q65 56 138 143q12 -13 127 -128zM387 140zM386 -182zM386 -22zM428 1035q-60 -83 -125 -142q-89 67 -140 128l73 73l66 68q36 -43 126 -127zM712 1066 q-53 -77 -124 -144q-85 67 -141 128q62 56 137 142q25 -27 128 -126zM552 1213q-86 -94 -112 -115q-85 69 -124 116q84 76 118 115q45 -53 118 -116zM434 1379zM443 912z" />
<glyph unicode="&#x63f;" horiz-adv-x="1414" d="M1248 89q-70 27 -169.5 82.5t-153 97t-53.5 59.5q0 40 47.5 132t60.5 92q186 -33 445 -33q23 0 23 -22v-201q0 -20 -23 -20q-66 0 -159 10t-154 25l51 -24q86 -40 119 -57.5t46 -34t18.5 -46t5.5 -57.5q0 -76 -115.5 -158t-300 -137.5t-351.5 -55.5q-217 0 -331.5 107.5 t-114.5 313.5q0 103 51 296l90 -22q-28 -93 -28 -163q0 -142 86.5 -215.5t269.5 -73.5q162 0 337.5 27.5t302.5 77.5zM687 682zM69 -261zM672 805q-60 -83 -125 -142q-89 67 -140 128l73 73l66 68q36 -43 126 -127zM956 836q-53 -77 -124 -144q-85 67 -141 128 q62 56 137 142q25 -27 128 -126zM796 983q-86 -94 -112 -115q-85 69 -124 116q84 76 118 115q45 -53 118 -116zM678 1149zM687 682z" />
<glyph unicode="&#x66e;" horiz-adv-x="564" d="M0 276q-17 0 -17 17v209q0 17 17 17q102 0 205 16.5t160 41.5q-27 60 -54 108.5t-48.5 88t-35 71.5t-13.5 59q0 50 55.5 110t130.5 98l26 -134q59 -275 59 -342q0 -47 -23.5 -115t-56.5 -132q-186 -113 -405 -113zM284 1212zM260 140z" />
<glyph unicode="&#x66e;" horiz-adv-x="599" d="M0 276q-17 0 -17 17v209q0 17 17 17q132 0 201 48q20 14 37 40.5t56 106.5q33 67 57 82t58 15q49 0 82 -29l-91 -210q98 -53 216 -53q17 0 17 -17v-209q0 -17 -17 -17q-155 0 -296 141q-24 -41 -46 -66q-28 -32 -98.5 -53.5t-175.5 -21.5zM303 912zM357 140z" />
<glyph unicode="&#x66e;" horiz-adv-x="1673" d="M643 258q-500 0 -500 437q0 84 40 224h92q-2 -9 -4.5 -45t-2.5 -56q0 -120 46 -184.5t145 -98t259 -33.5q216 0 372 26.5t212 72.5q20 17 35.5 40t39.5 75q29 62 53 78.5t56 16.5q50 0 83 -29l-44 -99l-50 -110l58 -26q69 -28 161 -28q17 0 17 -17v-209q0 -17 -17 -17 q-79 0 -153 35.5t-160 121.5q-104 -84 -301.5 -129.5t-436.5 -45.5zM828 919zM937 140z" />
<glyph unicode="&#x66f;" horiz-adv-x="875" d="M666 629q-18 69 -37 126q-58 -44 -131.5 -70.5t-149.5 -26.5q-108 0 -171.5 65.5t-63.5 173.5t39 208.5t105 161t137 60.5q95 0 183.5 -92t141 -252.5t52.5 -350.5q0 -33 -21 -92.5t-50 -115.5q-122 -76 -282 -112t-416 -36q-19 0 -19 19v205q0 19 19 19q222 0 378 26.5 t286 83.5zM352 1082q-52 0 -92.5 -39.5t-40.5 -93.5q0 -49 49 -83.5t120 -34.5q84 0 195 38q-102 213 -231 213zM382 1427zM444 140z" />
<glyph unicode="&#x66f;" horiz-adv-x="844" d="M2 519h74l69 1q-30 49 -30 95q0 40 11 115t25 99q58 105 155 177t189 72q55 0 111.5 -62t91.5 -158t35 -183q0 -78 -45 -155h14l160 -1q17 0 17 -17v-209q0 -17 -17 -17q-260 0 -438 68q-93 -39 -193.5 -53.5t-228.5 -14.5q-19 0 -19 19v205q0 19 19 19zM618 612 q-22 80 -67 147t-78 67q-108 0 -247 -192q36 -42 87.5 -74t102.5 -48q124 34 202 100zM429 1178zM417 140z" />
<glyph unicode="&#x66f;" horiz-adv-x="1295" d="M515 -259q-184 0 -280 108t-96 313q0 103 51 296l90 -22q-28 -93 -28 -163q0 -143 72 -216t214 -73q265 0 540 210l-11 84l-5 1q-234 7 -331 38t-144 95t-47 172q0 112 43 222t112.5 177t141.5 67q118 0 221.5 -149t139.5 -368l3 -14h111q18 0 18 -17v-209q0 -17 -18 -17 h-105q-19 -144 -113.5 -263.5t-258 -195.5t-320.5 -76zM792 806q-60 0 -102 -42t-42 -92q0 -113 201 -140q42 -5 137 -10l30 -1q-85 285 -224 285zM825 1150zM69 -261z" />
<glyph unicode="&#x672;" horiz-adv-x="590" d="M625 293q0 -17 -17 -17q-283 0 -314.5 194.5t-65 440t-72.5 604.5l244 135l29 -918v-10l7 -151q37 -30 78 -41.5t98 -11.5q13 0 13 -16v-209zM262 1720zM355 140zM262 1720zM274 2154zM161 1940q0 55 48 109.5t95 54.5q76 0 76 -92q0 -28 -11 -50l-38 7v5q0 19 -25 19 q-47 0 -72 -52q47 -47 97 -47q20 0 82 17l-4 -89q-46 -32 -102.5 -56.5t-91.5 -24.5q-29 0 -59 15t-45 15q-30 0 -66 -36l-40 31q18 39 48 64.5t61 25.5q23 0 45.5 -7t48.5 -7q18 0 31 5q-78 26 -78 93z" />
<glyph unicode="&#x673;" horiz-adv-x="590" d="M625 293q0 -17 -17 -17q-283 0 -314.5 194.5t-65 440t-72.5 604.5l244 135l29 -918v-10l7 -151q37 -30 78 -41.5t98 -11.5q13 0 13 -16v-209zM262 1720zM355 140zM242 -54q0 55 48 109.5t95 54.5q76 0 76 -92q0 -28 -11 -50l-38 7v5q0 19 -25 19q-47 0 -72 -52 q47 -47 97 -47q20 0 82 17l-4 -89q-46 -32 -102.5 -56.5t-91.5 -24.5q-29 0 -59 15t-45 15q-30 0 -66 -36l-40 31q18 39 48 64.5t61 25.5q23 0 45.5 -7t48.5 -7q18 0 31 5q-78 26 -78 93zM343 -271zM355 140z" />
<glyph unicode="&#x675;" horiz-adv-x="590" d="M625 293q0 -17 -17 -17q-283 0 -314.5 194.5t-65 440t-72.5 604.5l244 135l29 -918v-10l7 -151q37 -30 78 -41.5t98 -11.5q13 0 13 -16v-209zM262 1720zM355 140zM684 1648v5q0 19 -25 19q-44 0 -71 -51q37 -37 101 -37q35 0 80 9l-8 -91q-74 -17 -124.5 -34.5 t-125.5 -56.5l-5 85l74 44q-66 23 -66 78t48 109t95 54q76 0 76 -92q0 -28 -9 -48zM607 1861zM651 1421z" />
<glyph unicode="&#x676;" horiz-adv-x="1000" d="M1017 276h-126q-53 -191 -187.5 -304.5t-303.5 -113.5q-39 0 -128.5 51t-166.5 116l33 85q109 -28 224 -28q130 0 234.5 53.5t161.5 143.5q-176 10 -254.5 26.5t-132.5 53.5t-78.5 92t-24.5 133q0 112 43 221.5t113 177t142 67.5q122 0 221 -154t121 -377h109 q17 0 17 -17v-209q0 -17 -17 -17zM520 806q-60 0 -102 -42t-42 -92q0 -113 202 -140q44 -6 196 -12q-43 139 -109 212.5t-145 73.5zM555 1150zM396 -242zM545 1440zM907 1332v5q0 19 -25 19q-44 0 -71 -51q37 -37 101 -37q35 0 80 9l-8 -91q-74 -17 -124.5 -34.5 t-125.5 -56.5l-5 85l74 44q-66 23 -66 78t48 109t95 54q76 0 76 -92q0 -28 -9 -48zM830 1545zM874 1105z" />
<glyph unicode="&#x677;" horiz-adv-x="1095" d="M1113 276h-126q-53 -191 -187.5 -304.5t-303.5 -113.5q-39 0 -128.5 51t-166.5 116l33 85q109 -28 224 -28q130 0 234.5 53.5t161.5 143.5q-176 10 -254.5 26.5t-132.5 53.5t-78.5 92t-24.5 133q0 112 43 221.5t113 177t142 67.5q122 0 221 -154t121 -377h109 q17 0 17 -17v-209q0 -17 -17 -17zM616 806q-60 0 -102 -42t-42 -92q0 -113 202 -140q44 -6 196 -12q-43 139 -109 212.5t-145 73.5zM651 1150zM492 -242zM641 1440zM170 1089q105 19 192 77q-76 34 -76 97q0 49 39 87.5t80 38.5q26 0 48 -30.5t22 -100.5q0 -27 -9 -52l64 -4 q-3 -32 -21.5 -44t-60.5 -12l-25 2q-53 -53 -104.5 -82t-89.5 -29q-27 0 -43 13.5t-16 38.5zM424 1254q0 27 -10.5 48.5t-33.5 21.5q-18 0 -31.5 -11t-13.5 -20q0 -46 80 -75l4 9q5 16 5 27zM380 1037zM346 1439zM546 1439zM580 1017zM1003 1332v5q0 19 -25 19 q-44 0 -71 -51q37 -37 101 -37q35 0 80 9l-8 -91q-74 -17 -124.5 -34.5t-125.5 -56.5l-5 85l74 44q-66 23 -66 78t48 109t95 54q76 0 76 -92q0 -28 -9 -48zM926 1545zM970 1105z" />
<glyph unicode="&#x678;" horiz-adv-x="800" d="M0 276q-17 0 -17 17v209q0 17 17 17q102 0 205 16.5t160 41.5q-27 60 -54 108.5t-48.5 88t-35 71.5t-13.5 59q0 50 55.5 110t130.5 98l26 -134q59 -275 59 -342q0 -47 -23.5 -115t-56.5 -132q-186 -113 -405 -113zM284 1212zM260 140zM691 1512v7q0 29 -28 29 q-54 0 -95 -77q45 -41 116 -41q49 0 116 16l-10 -123q-113 -30 -178 -56t-140 -65l-6 113q61 39 87 50q-46 25 -61.5 48t-15.5 54q0 50 27.5 96.5t72.5 76t87 29.5q45 0 70 -27.5t25 -69.5q0 -18 -7.5 -39.5t-13.5 -31.5zM613 1719zM632 1212z" />
<glyph unicode="&#x678;" horiz-adv-x="773" d="M0 276q-17 0 -17 17v209q0 17 17 17q132 0 201 48q20 14 37 40.5t56 106.5q33 67 57 82t58 15q49 0 82 -29l-91 -210q98 -53 216 -53q17 0 17 -17v-209q0 -17 -17 -17q-155 0 -296 141q-24 -41 -46 -66q-28 -32 -98.5 -53.5t-175.5 -21.5zM303 912zM357 140zM681 1250v7 q0 29 -28 29q-54 0 -95 -77q45 -41 116 -41q49 0 116 16l-10 -123q-113 -30 -178 -56t-140 -65l-6 113q61 39 87 50q-46 25 -61.5 48t-15.5 54q0 50 27.5 96.5t72.5 76t87 29.5q45 0 70 -27.5t25 -69.5q0 -18 -7.5 -39.5t-13.5 -31.5zM603 1457zM622 950zM630 276 q-17 0 -17 17v209q0 17 17 17h151q18 0 18 -17v-209q0 -17 -18 -17h-151zM826 1202zM826 -18z" />
<glyph unicode="&#x678;" horiz-adv-x="1414" d="M1248 89q-70 27 -169.5 82.5t-153 97t-53.5 59.5q0 40 47.5 132t60.5 92q186 -33 445 -33q23 0 23 -22v-201q0 -20 -23 -20q-66 0 -159 10t-154 25l51 -24q86 -40 119 -57.5t46 -34t18.5 -46t5.5 -57.5q0 -76 -115.5 -158t-300 -137.5t-351.5 -55.5q-217 0 -331.5 107.5 t-114.5 313.5q0 103 51 296l90 -22q-28 -93 -28 -163q0 -142 86.5 -215.5t269.5 -73.5q162 0 337.5 27.5t302.5 77.5zM687 682zM69 -261zM1015 982v7q0 29 -28 29q-54 0 -95 -77q45 -41 116 -41q49 0 116 16l-10 -123q-113 -30 -178 -56t-140 -65l-6 113q61 39 87 50 q-46 25 -61.5 48t-15.5 54q0 50 27.5 96.5t72.5 76t87 29.5q45 0 70 -27.5t25 -69.5q0 -18 -7.5 -39.5t-13.5 -31.5zM937 1189zM956 682z" />
<glyph unicode="&#x67c;" horiz-adv-x="719" d="M413 273q0 -34 -11.5 -60.5t-31 -43.5t-46 -27t-59.5 -10q-31 0 -58 10t-46 27t-30 43t-11 59q0 34 11 59.5t30 42.5t46 27t59 10t58.5 -10t46 -27t31 -42t11.5 -58zM328 271q0 31 -17 47.5t-45 16.5t-46 -16.5t-18 -47.5q0 -28 16.5 -45.5t46.5 -17.5t46.5 17.5 t16.5 45.5zM265 112zM266 440zM273 1356q-51 -75 -125 -144q-88 69 -140 129l73 74l65 68q38 -44 127 -127zM547 1386q-53 -77 -124 -144q-85 67 -141 128q75 69 137 143q37 -39 128 -127zM279 1563zM278 1212zM-6 276q-17 0 -17 17v209q0 17 17 17q102 0 205 16.5t160 41.5 q-27 60 -54 108.5t-48.5 88t-35 71.5t-13.5 59q0 50 55.5 110t130.5 98l26 -134q59 -275 59 -342q0 -47 -23.5 -115t-56.5 -132q-186 -113 -405 -113zM278 1212zM254 140z" />
<glyph unicode="&#x67c;" horiz-adv-x="738" d="M0 276q-17 0 -17 17v209q0 17 17 17q165 0 223.5 9t94.5 27t55 45t61 113q33 67 57 82.5t58 15.5q50 0 81 -29q-55 -134 -90 -210q98 -53 216 -53q17 0 17 -17v-209q0 -17 -17 -17q-156 0 -297 141q-40 -66 -66.5 -82t-87 -30t-140 -21.5t-165.5 -7.5zM443 912zM387 140z M438 1056q-51 -75 -125 -144q-88 69 -140 129l73 74l65 68q38 -44 127 -127zM712 1086q-53 -77 -124 -144q-85 67 -141 128q75 69 137 143q37 -39 128 -127zM444 1263zM443 912zM466 258q0 -34 -11.5 -60.5t-31 -43.5t-46 -27t-59.5 -10q-31 0 -58 10t-46 27t-30 43t-11 59 q0 34 11 59.5t30 42.5t46 27t59 10t58.5 -10t46 -27t31 -42t11.5 -58zM381 256q0 31 -17 47.5t-45 16.5t-46 -16.5t-18 -47.5q0 -28 16.5 -45.5t46.5 -17.5t46.5 17.5t16.5 45.5zM318 97zM319 425z" />
<glyph unicode="&#x67c;" horiz-adv-x="1673" d="M643 258q-500 0 -500 437q0 84 40 224h92q-2 -9 -4.5 -45t-2.5 -56q0 -120 46 -184.5t145 -98t259 -33.5q216 0 372 26.5t212 72.5q20 17 35.5 40t39.5 75q29 62 53 78.5t56 16.5q50 0 83 -29l-44 -99l-50 -110l58 -26q69 -28 161 -28q17 0 17 -17v-209q0 -17 -17 -17 q-79 0 -153 35.5t-160 121.5q-104 -84 -301.5 -129.5t-436.5 -45.5zM828 919zM937 140zM823 1063q-51 -75 -125 -144q-88 69 -140 129l73 74l65 68q38 -44 127 -127zM1097 1093q-53 -77 -124 -144q-85 67 -141 128q75 69 137 143q37 -39 128 -127zM829 1270zM828 919z M1106 229q0 -34 -11.5 -60.5t-31 -43.5t-46 -27t-59.5 -10q-31 0 -58 10t-46 27t-30 43t-11 59q0 34 11 59.5t30 42.5t46 27t59 10t58.5 -10t46 -27t31 -42t11.5 -58zM1021 227q0 31 -17 47.5t-45 16.5t-46 -16.5t-18 -47.5q0 -28 16.5 -45.5t46.5 -17.5t46.5 17.5 t16.5 45.5zM958 68zM959 396z" />
<glyph unicode="&#x67d;" horiz-adv-x="794" d="M2 276q-17 0 -17 17v209q0 17 17 17q161 0 304.5 16t200.5 42q-27 60 -54 108.5t-48.5 88t-35 71.5t-13.5 59q0 49 54.5 109.5t131.5 98.5l26 -134q29 -144 44 -222t15 -120q0 -47 -23.5 -115t-56.5 -132q-84 -51 -238 -82t-307 -31zM396 1212zM362 140zM412 1495 q90 84 126 127l66 -68l73 -74q-51 -59 -140 -128q-76 71 -125 143zM138 1525l128 126q75 -86 137 -142q-56 -61 -141 -128q-81 76 -124 144zM279 1346q77 66 114 111q43 -60 108 -122q-48 -58 -110 -103q-36 27 -112 114zM407 1681zM396 1212z" />
<glyph unicode="&#x67d;" horiz-adv-x="738" d="M0 276q-17 0 -17 17v209q0 17 17 17q165 0 223.5 9t94.5 27t55 45t61 113q33 67 57 82.5t58 15.5q50 0 81 -29q-55 -134 -90 -210q98 -53 216 -53q17 0 17 -17v-209q0 -17 -17 -17q-156 0 -297 141q-40 -66 -66.5 -82t-87 -30t-140 -21.5t-165.5 -7.5zM443 912zM387 140z M459 1195q90 84 126 127l66 -68l73 -74q-51 -59 -140 -128q-76 71 -125 143zM185 1225l128 126q75 -86 137 -142q-56 -61 -141 -128q-81 76 -124 144zM326 1046q77 66 114 111q43 -60 108 -122q-48 -58 -110 -103q-36 27 -112 114zM454 1381zM443 912z" />
<glyph unicode="&#x67d;" horiz-adv-x="1673" d="M643 258q-500 0 -500 437q0 84 40 224h92q-2 -9 -4.5 -45t-2.5 -56q0 -120 46 -184.5t145 -98t259 -33.5q216 0 372 26.5t212 72.5q20 17 35.5 40t39.5 75q29 62 53 78.5t56 16.5q50 0 83 -29l-44 -99l-50 -110l58 -26q69 -28 161 -28q17 0 17 -17v-209q0 -17 -17 -17 q-79 0 -153 35.5t-160 121.5q-104 -84 -301.5 -129.5t-436.5 -45.5zM828 919zM937 140zM844 1202q90 84 126 127l66 -68l73 -74q-51 -59 -140 -128q-76 71 -125 143zM570 1232l128 126q75 -86 137 -142q-56 -61 -141 -128q-81 76 -124 144zM711 1053q77 66 114 111 q43 -60 108 -122q-48 -58 -110 -103q-36 27 -112 114zM839 1388zM828 919z" />
<glyph unicode="&#x681;" horiz-adv-x="1329" d="M0 276q-17 0 -17 17v209q0 17 17 17q226 0 305.5 8.5t150.5 29.5q177 53 249 68l-39 22l-73 47q-65 44 -109.5 62.5t-88.5 18.5q-61 0 -117 -18t-125 -62q-18 18 -32.5 54t-14.5 69q0 88 80 144.5t202 56.5q65 0 125.5 -22.5t136.5 -73.5q92 -62 169.5 -101t183 -65.5 t256.5 -26.5l-105 -218q-138 12 -207 27l-65 -15q-103 -31 -245 -116q-64 -39 -122.5 -65t-112.5 -39.5t-131.5 -20.5t-270.5 -7zM590 1119zM654 140zM649 1419v7q0 29 -28 29q-54 0 -95 -77q45 -41 116 -41q49 0 116 16l-10 -123q-113 -30 -178 -56t-140 -65l-6 113 q61 39 87 50q-46 25 -61.5 48t-15.5 54q0 50 27.5 96.5t72.5 76t87 29.5q45 0 70 -27.5t25 -69.5q0 -18 -7.5 -39.5t-13.5 -31.5zM571 1626zM590 1119z" />
<glyph unicode="&#x681;" horiz-adv-x="1346" d="M0 276q-17 0 -17 17v209q0 17 17 17q226 0 305.5 8.5t150.5 29.5q177 53 249 68l-39 22l-73 47q-65 44 -109.5 62.5t-88.5 18.5q-61 0 -117 -18t-125 -62q-18 18 -32.5 54t-14.5 69q0 88 80 144.5t202 56.5q65 0 125.5 -22.5t136.5 -73.5q92 -62 169.5 -101t183 -65.5 t256.5 -26.5l-99 -205l51 -4l152 -2q17 0 17 -17v-209q0 -17 -17 -17q-173 0 -293 30t-120 70q0 36 27 157l-30 6l-65 -15q-103 -31 -245 -116q-64 -39 -122.5 -65t-112.5 -39.5t-131.5 -20.5t-270.5 -7zM592 1119zM652 140zM651 1419v7q0 29 -28 29q-54 0 -95 -77 q45 -41 116 -41q49 0 116 16l-10 -123q-113 -30 -178 -56t-140 -65l-6 113q61 39 87 50q-46 25 -61.5 48t-15.5 54q0 50 27.5 96.5t72.5 76t87 29.5q45 0 70 -27.5t25 -69.5q0 -18 -7.5 -39.5t-13.5 -31.5zM573 1626zM592 1119z" />
<glyph unicode="&#x681;" horiz-adv-x="1483" d="M420 775q-56 0 -103 -14t-131 -66q-18 18 -32.5 54t-14.5 69q0 91 72.5 146t200.5 55q68 0 141 -17t187 -58q110 -41 193.5 -58.5t162.5 -17.5h41l146 3l-84 -230q-49 -7 -151 -7h-14l15 -26q25 -39 61.5 -57.5t101.5 -25t288 -6.5q18 0 18 -17v-209q0 -17 -18 -17 q-198 0 -300 30t-163.5 102t-112.5 232q-161 -29 -305 -99.5t-221.5 -164.5t-77.5 -197q0 -140 115.5 -211t333.5 -71q148 0 392 56l28 -88l-143 -82q-207 -121 -289 -121q-269 0 -405 127.5t-136 367.5q0 125 56 231.5t156.5 190.5t222.5 133l-114 41q-61 22 -117 22z M700 1119zM146 -261zM750 228zM759 1419v7q0 29 -28 29q-54 0 -95 -77q45 -41 116 -41q49 0 116 16l-10 -123q-113 -30 -178 -56t-140 -65l-6 113q61 39 87 50q-46 25 -61.5 48t-15.5 54q0 50 27.5 96.5t72.5 76t87 29.5q45 0 70 -27.5t25 -69.5q0 -18 -7.5 -39.5 t-13.5 -31.5zM681 1626zM700 1119z" />
<glyph unicode="&#x682;" horiz-adv-x="1329" d="M0 276q-17 0 -17 17v209q0 17 17 17q226 0 305.5 8.5t150.5 29.5q177 53 249 68l-39 22l-73 47q-65 44 -109.5 62.5t-88.5 18.5q-61 0 -117 -18t-125 -62q-18 18 -32.5 54t-14.5 69q0 88 80 144.5t202 56.5q65 0 125.5 -22.5t136.5 -73.5q92 -62 169.5 -101t183 -65.5 t256.5 -26.5l-105 -218q-138 12 -207 27l-65 -15q-103 -31 -245 -116q-64 -39 -122.5 -65t-112.5 -39.5t-131.5 -20.5t-270.5 -7zM590 1119zM654 140zM703 1268q-13 -22 -47.5 -61.5t-65.5 -67.5q-80 61 -126 115l66 67l57 61q50 -55 116 -114zM666 1520 q-16 -24 -48.5 -62.5t-63.5 -66.5q-84 66 -126 116q43 41 123 127zM551 1684zM590 1119z" />
<glyph unicode="&#x682;" horiz-adv-x="1346" d="M0 276q-17 0 -17 17v209q0 17 17 17q226 0 305.5 8.5t150.5 29.5q177 53 249 68l-39 22l-73 47q-65 44 -109.5 62.5t-88.5 18.5q-61 0 -117 -18t-125 -62q-18 18 -32.5 54t-14.5 69q0 88 80 144.5t202 56.5q65 0 125.5 -22.5t136.5 -73.5q92 -62 169.5 -101t183 -65.5 t256.5 -26.5l-99 -205l51 -4l152 -2q17 0 17 -17v-209q0 -17 -17 -17q-173 0 -293 30t-120 70q0 36 27 157l-30 6l-65 -15q-103 -31 -245 -116q-64 -39 -122.5 -65t-112.5 -39.5t-131.5 -20.5t-270.5 -7zM592 1119zM652 140zM706 1267q-13 -22 -47.5 -61.5t-65.5 -67.5 q-80 61 -126 115l66 67l57 61q50 -55 116 -114zM669 1519q-16 -24 -48.5 -62.5t-63.5 -66.5q-84 66 -126 116q43 41 123 127zM554 1683zM593 1118z" />
<glyph unicode="&#x682;" horiz-adv-x="1483" d="M420 775q-56 0 -103 -14t-131 -66q-18 18 -32.5 54t-14.5 69q0 91 72.5 146t200.5 55q68 0 141 -17t187 -58q110 -41 193.5 -58.5t162.5 -17.5h41l146 3l-84 -230q-49 -7 -151 -7h-14l15 -26q25 -39 61.5 -57.5t101.5 -25t288 -6.5q18 0 18 -17v-209q0 -17 -18 -17 q-198 0 -300 30t-163.5 102t-112.5 232q-161 -29 -305 -99.5t-221.5 -164.5t-77.5 -197q0 -140 115.5 -211t333.5 -71q148 0 392 56l28 -88l-143 -82q-207 -121 -289 -121q-269 0 -405 127.5t-136 367.5q0 125 56 231.5t156.5 190.5t222.5 133l-114 41q-61 22 -117 22z M700 1119zM146 -261zM750 228zM814 1267q-13 -22 -47.5 -61.5t-65.5 -67.5q-80 61 -126 115l66 67l57 61q50 -55 116 -114zM777 1519q-16 -24 -48.5 -62.5t-63.5 -66.5q-84 66 -126 116q43 41 123 127zM662 1683zM701 1118z" />
<glyph unicode="&#x685;" horiz-adv-x="1329" d="M0 276q-17 0 -17 17v209q0 17 17 17q226 0 305.5 8.5t150.5 29.5q177 53 249 68l-39 22l-73 47q-65 44 -109.5 62.5t-88.5 18.5q-61 0 -117 -18t-125 -62q-18 18 -32.5 54t-14.5 69q0 88 80 144.5t202 56.5q65 0 125.5 -22.5t136.5 -73.5q92 -62 169.5 -101t183 -65.5 t256.5 -26.5l-105 -218q-138 12 -207 27l-65 -15q-103 -31 -245 -116q-64 -39 -122.5 -65t-112.5 -39.5t-131.5 -20.5t-270.5 -7zM590 1119zM654 140zM576 1242q-60 -83 -125 -142q-89 67 -140 128l73 73l66 68q36 -43 126 -127zM860 1273q-53 -77 -124 -144 q-85 67 -141 128q62 56 137 142q25 -27 128 -126zM700 1420q-86 -94 -112 -115q-85 69 -124 116q84 76 118 115q45 -53 118 -116zM582 1586zM591 1119z" />
<glyph unicode="&#x685;" horiz-adv-x="1346" d="M0 276q-17 0 -17 17v209q0 17 17 17q226 0 305.5 8.5t150.5 29.5q177 53 249 68l-39 22l-73 47q-65 44 -109.5 62.5t-88.5 18.5q-61 0 -117 -18t-125 -62q-18 18 -32.5 54t-14.5 69q0 88 80 144.5t202 56.5q65 0 125.5 -22.5t136.5 -73.5q92 -62 169.5 -101t183 -65.5 t256.5 -26.5l-99 -205l51 -4l152 -2q17 0 17 -17v-209q0 -17 -17 -17q-173 0 -293 30t-120 70q0 36 27 157l-30 6l-65 -15q-103 -31 -245 -116q-64 -39 -122.5 -65t-112.5 -39.5t-131.5 -20.5t-270.5 -7zM592 1119zM652 140zM577 1241q-60 -83 -125 -142q-89 67 -140 128 l73 73l66 68q36 -43 126 -127zM861 1272q-53 -77 -124 -144q-85 67 -141 128q62 56 137 142q25 -27 128 -126zM701 1419q-86 -94 -112 -115q-85 69 -124 116q84 76 118 115q45 -53 118 -116zM583 1585zM592 1118z" />
<glyph unicode="&#x685;" horiz-adv-x="1483" d="M420 775q-56 0 -103 -14t-131 -66q-18 18 -32.5 54t-14.5 69q0 91 72.5 146t200.5 55q68 0 141 -17t187 -58q110 -41 193.5 -58.5t162.5 -17.5h41l146 3l-84 -230q-49 -7 -151 -7h-14l15 -26q25 -39 61.5 -57.5t101.5 -25t288 -6.5q18 0 18 -17v-209q0 -17 -18 -17 q-198 0 -300 30t-163.5 102t-112.5 232q-161 -29 -305 -99.5t-221.5 -164.5t-77.5 -197q0 -140 115.5 -211t333.5 -71q148 0 392 56l28 -88l-143 -82q-207 -121 -289 -121q-269 0 -405 127.5t-136 367.5q0 125 56 231.5t156.5 190.5t222.5 133l-114 41q-61 22 -117 22z M700 1119zM146 -261zM750 228zM686 1242q-60 -83 -125 -142q-89 67 -140 128l73 73l66 68q36 -43 126 -127zM970 1273q-53 -77 -124 -144q-85 67 -141 128q62 56 137 142q25 -27 128 -126zM810 1420q-86 -94 -112 -115q-85 69 -124 116q84 76 118 115q45 -53 118 -116z M692 1586zM701 1119z" />
<glyph unicode="&#x689;" horiz-adv-x="994" d="M1011 276q-144 0 -238 94q-228 -112 -428 -112q-275 0 -275 160q0 43 17.5 90.5t43.5 75.5q50 -42 115.5 -62t162.5 -20q121 0 247 28q-80 139 -128 263t-48 183q0 74 36 128t107 76q79 -333 174 -523q38 -78 85 -108t129 -30q17 0 17 -17v-209q0 -17 -17 -17zM462 1280z M489 140zM627 223q0 -34 -11.5 -60.5t-31 -43.5t-46 -27t-59.5 -10q-31 0 -58 10t-46 27t-30 43t-11 59q0 34 11 59.5t30 42.5t46 27t59 10t58.5 -10t46 -27t31 -42t11.5 -58zM542 221q0 31 -17 47.5t-45 16.5t-46 -16.5t-18 -47.5q0 -28 16.5 -45.5t46.5 -17.5t46.5 17.5 t16.5 45.5zM479 62zM480 390z" />
<glyph unicode="&#x68a;" horiz-adv-x="994" d="M1011 276q-144 0 -238 94q-228 -112 -428 -112q-275 0 -275 160q0 43 17.5 90.5t43.5 75.5q50 -42 115.5 -62t162.5 -20q121 0 247 28q-80 139 -128 263t-48 183q0 74 36 128t107 76q79 -333 174 -523q38 -78 85 -108t129 -30q17 0 17 -17v-209q0 -17 -17 -17zM462 1280z M489 140zM636 -27q-47 -68 -144 -163q-108 89 -158 147q81 79 155 163q51 -59 147 -147zM489 170zM492 -210zM489 140zM492 -35z" />
<glyph unicode="&#x68b;" horiz-adv-x="994" d="M1011 276q-144 0 -238 94q-228 -112 -428 -112q-275 0 -275 160q0 43 17.5 90.5t43.5 75.5q50 -42 115.5 -62t162.5 -20q121 0 247 28q-80 139 -128 263t-48 183q0 74 36 128t107 76q79 -333 174 -523q38 -78 85 -108t129 -30q17 0 17 -17v-209q0 -17 -17 -17zM462 1280z M489 140zM356 1472q-40 156 -40 193q0 60 80 70l30 -87l-17 -14l-3 -109q24 24 61.5 46.5t64.5 22.5q36 0 89 -49.5t53 -80.5q0 -62 -68 -113t-144 -51q-113 0 -239 80l15 58l81 -14zM465 1414q70 0 147 29q-27 26 -47.5 33.5t-43.5 7.5q-41 0 -71.5 -17t-63.5 -50z M526 1765zM462 1280zM462 1490zM636 -27q-47 -68 -144 -163q-108 89 -158 147q81 79 155 163q51 -59 147 -147zM489 170zM492 -210zM489 140zM492 -35z" />
<glyph unicode="&#x68f;" horiz-adv-x="994" d="M1011 276q-144 0 -238 94q-228 -112 -428 -112q-275 0 -275 160q0 43 17.5 90.5t43.5 75.5q50 -42 115.5 -62t162.5 -20q121 0 247 28q-80 139 -128 263t-48 183q0 74 36 128t107 76q79 -333 174 -523q38 -78 85 -108t129 -30q17 0 17 -17v-209q0 -17 -17 -17zM462 1280z M489 140zM478 1563q90 84 126 127l66 -68l73 -74q-51 -59 -140 -128q-76 71 -125 143zM204 1593l128 126q75 -86 137 -142q-56 -61 -141 -128q-81 76 -124 144zM345 1414q77 66 114 111q43 -60 108 -122q-48 -58 -110 -103q-36 27 -112 114zM473 1749zM462 1280z" />
<glyph unicode="&#x690;" horiz-adv-x="994" d="M1011 276q-144 0 -238 94q-228 -112 -428 -112q-275 0 -275 160q0 43 17.5 90.5t43.5 75.5q50 -42 115.5 -62t162.5 -20q121 0 247 28q-80 139 -128 263t-48 183q0 74 36 128t107 76q79 -333 174 -523q38 -78 85 -108t129 -30q17 0 17 -17v-209q0 -17 -17 -17zM462 1280z M489 140zM448 1410q-33 -50 -96 -110q-57 41 -109 99q37 32 106 108q40 -43 99 -97zM661 1433q-33 -50 -96 -110q-72 54 -108 99q49 44 103 109zM396 1603q-37 -55 -96 -112q-68 52 -109 101q19 17 106 108q14 -15 99 -97zM608 1626q-33 -50 -97 -111q-57 41 -108 99 q36 32 106 109zM409 1753zM462 1280z" />
<glyph unicode="&#x692;" horiz-adv-x="809" d="M844 293q0 -17 -17 -17q-74 0 -152 39q-33 -204 -161 -330.5t-305 -126.5q-35 0 -112.5 46t-166.5 121l33 85q110 -28 208 -28q151 0 255 76t152 218q-31 64 -70 125q-92 141 -123 209t-31 118q0 59 47.5 117.5t123.5 96.5q19 -78 47 -157q89 -257 101 -329 q72 -37 154 -37q17 0 17 -17v-209zM402 1142zM207 -242zM510 1531q18 -1 32 -17t14 -47q0 -14 -30 -73q-47 -93 -81 -196q-40 -26 -111 -36q-40 85 -81 167t-96 158l33 9q22 6 41 6q36 0 65.5 -34.5t58 -89.5t49.5 -107q12 64 48 148.5t58 111.5zM402 1142zM379 1581z" />
<glyph unicode="&#x693;" horiz-adv-x="809" d="M844 293q0 -17 -17 -17q-74 0 -152 39q-33 -204 -161 -330.5t-305 -126.5q-35 0 -112.5 46t-166.5 121l33 85q110 -28 208 -28q151 0 255 76t152 218q-31 64 -70 125q-92 141 -123 209t-31 118q0 59 47.5 117.5t123.5 96.5q19 -78 47 -157q89 -257 101 -329 q72 -37 154 -37q17 0 17 -17v-209zM402 1142zM207 -242zM672 -82q0 -34 -11.5 -60.5t-31 -43.5t-46 -27t-59.5 -10q-31 0 -58 10t-46 27t-30 43t-11 59q0 34 11 59.5t30 42.5t46 27t59 10t58.5 -10t46 -27t31 -42t11.5 -58zM587 -84q0 31 -17 47.5t-45 16.5t-46 -16.5 t-18 -47.5q0 -28 16.5 -45.5t46.5 -17.5t46.5 17.5t16.5 45.5zM524 -243zM525 85z" />
<glyph unicode="&#x694;" horiz-adv-x="809" d="M844 293q0 -17 -17 -17q-74 0 -152 39q-33 -204 -161 -330.5t-305 -126.5q-35 0 -112.5 46t-166.5 121l33 85q110 -28 208 -28q151 0 255 76t152 218q-31 64 -70 125q-92 141 -123 209t-31 118q0 59 47.5 117.5t123.5 96.5q19 -78 47 -157q89 -257 101 -329 q72 -37 154 -37q17 0 17 -17v-209zM402 1142zM207 -242zM791 -184q-47 -68 -144 -163q-108 89 -158 147q81 79 155 163q51 -59 147 -147zM644 13zM647 -367zM644 -17zM647 -192z" />
<glyph unicode="&#x695;" horiz-adv-x="809" d="M844 293q0 -17 -17 -17q-74 0 -152 39q-33 -204 -161 -330.5t-305 -126.5q-35 0 -112.5 46t-166.5 121l33 85q110 -28 208 -28q151 0 255 76t152 218q-31 64 -70 125q-92 141 -123 209t-31 118q0 59 47.5 117.5t123.5 96.5q19 -78 47 -157q89 -257 101 -329 q72 -37 154 -37q17 0 17 -17v-209zM402 1142zM207 -242zM788 -96q17 -2 30.5 -16.5t13.5 -41.5q0 -13 -7.5 -27.5t-21 -40.5t-32.5 -67.5t-41 -108.5q-38 -23 -100 -33q-36 78 -73 152t-88 143l32 8l31 5q31 0 53.5 -20t52 -71.5t56.5 -116.5q11 58 42 133.5t52 101.5z M691 -451zM664 -66z" />
<glyph unicode="&#x696;" horiz-adv-x="809" d="M844 293q0 -17 -17 -17q-74 0 -152 39q-33 -204 -161 -330.5t-305 -126.5q-35 0 -112.5 46t-166.5 121l33 85q110 -28 208 -28q151 0 255 76t152 218q-31 64 -70 125q-92 141 -123 209t-31 118q0 59 47.5 117.5t123.5 96.5q19 -78 47 -157q89 -257 101 -329 q72 -37 154 -37q17 0 17 -17v-209zM402 1142zM207 -242zM385 404q-47 -68 -144 -163q-108 89 -158 147q81 79 155 163q51 -59 147 -147zM238 601zM241 221zM238 571zM241 396zM791 -184q-47 -68 -144 -163q-108 89 -158 147q81 79 155 163q51 -59 147 -147zM644 13z M647 -367zM644 -17zM647 -192z" />
<glyph unicode="&#x697;" horiz-adv-x="809" d="M844 293q0 -17 -17 -17q-74 0 -152 39q-33 -204 -161 -330.5t-305 -126.5q-35 0 -112.5 46t-166.5 121l33 85q110 -28 208 -28q151 0 255 76t152 218q-31 64 -70 125q-92 141 -123 209t-31 118q0 59 47.5 117.5t123.5 96.5q19 -78 47 -157q89 -257 101 -329 q72 -37 154 -37q17 0 17 -17v-209zM402 1142zM207 -242zM397 1286q-51 -75 -125 -144q-88 69 -140 129l73 74l65 68q38 -44 127 -127zM671 1316q-53 -77 -124 -144q-85 67 -141 128q75 69 137 143q37 -39 128 -127zM403 1493zM402 1142z" />
<glyph unicode="&#x699;" horiz-adv-x="809" d="M844 293q0 -17 -17 -17q-74 0 -152 39q-33 -204 -161 -330.5t-305 -126.5q-35 0 -112.5 46t-166.5 121l33 85q110 -28 208 -28q151 0 255 76t152 218q-31 64 -70 125q-92 141 -123 209t-31 118q0 59 47.5 117.5t123.5 96.5q19 -78 47 -157q89 -257 101 -329 q72 -37 154 -37q17 0 17 -17v-209zM402 1142zM207 -242zM388 1272q-33 -50 -96 -110q-57 41 -109 99q37 32 106 108q40 -43 99 -97zM601 1295q-33 -50 -96 -110q-72 54 -108 99q49 44 103 109zM336 1465q-37 -55 -96 -112q-68 52 -109 101q19 17 106 108q14 -15 99 -97z M548 1488q-33 -50 -97 -111q-57 41 -108 99q36 32 106 109zM349 1615zM402 1142z" />
<glyph unicode="&#x69a;" horiz-adv-x="1433" d="M1329 549q0 -51 -29 -143t-57 -148q-123 0 -252.5 28.5t-236.5 76.5q-13 -30 -25 -49q-15 -23 -92 -39.5t-165 -16.5q-103 0 -236 65q-42 -19 -107 -33t-129 -14q-17 0 -17 17v209q0 17 17 17q93 0 140.5 11.5t77 40.5t70.5 99l32 56q12 22 34.5 37t50.5 15q32 0 63 -22 l-42 -109l-56 -139q56 -6 112 -6q41 0 65.5 2.5t80.5 19.5q27 44 87 208l26 69q11 26 37.5 43.5t63.5 18.5q39 0 72 -23q-7 -16 -13.5 -34.5t-73.5 -229.5q78 -41 175 -61t208 -32l-55 112q-54 101 -76 154t-22 85q0 49 54.5 109.5t131.5 98.5l54 -277q32 -165 32 -216z M695 1022zM689 140zM836 -28q-47 -68 -144 -163q-108 89 -158 147q81 79 155 163q51 -59 147 -147zM689 169zM692 -211zM689 139zM692 -36zM838 1205q-49 -71 -143 -163q-101 82 -158 147q94 91 155 163q44 -50 146 -147zM695 1022zM693 1402z" />
<glyph unicode="&#x69a;" horiz-adv-x="1427" d="M405 778q32 0 63 -22l-42 -109l-56 -139q56 -6 112 -6q41 0 65.5 2.5t80.5 19.5q27 44 87 208l26 69q11 26 37.5 43.5t63.5 18.5q39 0 72 -23q-23 -56 -59 -176l-53 -168l56 -2q78 0 147 22q17 28 58 141l60 161q11 27 38.5 44.5t63.5 17.5q39 0 70 -21q-24 -58 -61 -181 l-33 -105q90 -54 244 -54q17 0 17 -17v-209q0 -17 -17 -17q-82 0 -168 36.5t-133 87.5q-16 -47 -34.5 -79t-77.5 -47.5t-150 -15.5q-58 0 -165 45q-30 -20 -101.5 -32.5t-143.5 -12.5q-103 0 -236 65q-42 -19 -107 -33t-129 -14q-17 0 -17 17v209q0 17 17 17 q93 0 140.5 11.5t77 40.5t70.5 99l32 56q12 22 34.5 37t50.5 15zM737 1023zM691 140zM838 -27q-47 -68 -144 -163q-108 89 -158 147q81 79 155 163q51 -59 147 -147zM691 170zM694 -210zM691 140zM694 -35zM880 1206q-49 -71 -143 -163q-101 82 -158 147q94 91 155 163 q44 -50 146 -147zM737 1023zM735 1403z" />
<glyph unicode="&#x69a;" horiz-adv-x="2128" d="M2162 293q0 -17 -17 -17q-82 0 -168 36.5t-133 87.5q-24 -71 -45 -93t-78.5 -35.5t-137.5 -13.5q-59 0 -166 45q-28 -19 -99.5 -32t-146.5 -13l-40 2v-17q0 -136 -82 -253t-224 -183t-310 -66q-184 0 -280 108t-96 313q0 103 51 296l90 -22q-28 -93 -28 -163 q0 -146 66 -217.5t202 -71.5q162 0 275.5 41.5t221.5 140.5l-58 115q-71 130 -93 180t-22 79q0 87 50 153t157 117q9 -72 23 -149t26 -151l1 -5l13 -1l68 -2q39 0 63.5 2.5t83.5 19.5q19 35 55 128l58 149q11 27 37.5 44.5t62.5 17.5q39 0 71 -23q-20 -50 -91 -279l-20 -65 l56 -2q78 0 146 22q20 31 59 141l59 161q11 27 38.5 44.5t64.5 17.5q39 0 70 -21q-25 -61 -93 -286l30 -16q82 -38 213 -38q17 0 17 -17v-209zM1485 1023zM1571 102zM1718 -65q-47 -68 -144 -163q-108 89 -158 147q81 79 155 163q51 -59 147 -147zM1571 132zM1574 -248z M1571 102zM1574 -73zM1628 1206q-49 -71 -143 -163q-101 82 -158 147q94 91 155 163q44 -50 146 -147zM1485 1023zM1483 1403z" />
<glyph unicode="&#x69b;" horiz-adv-x="1433" d="M1329 549q0 -51 -29 -143t-57 -148q-123 0 -252.5 28.5t-236.5 76.5q-13 -30 -25 -49q-15 -23 -92 -39.5t-165 -16.5q-103 0 -236 65q-42 -19 -107 -33t-129 -14q-17 0 -17 17v209q0 17 17 17q93 0 140.5 11.5t77 40.5t70.5 99l32 56q12 22 34.5 37t50.5 15q32 0 63 -22 l-42 -109l-56 -139q56 -6 112 -6q41 0 65.5 2.5t80.5 19.5q27 44 87 208l26 69q11 26 37.5 43.5t63.5 18.5q39 0 72 -23q-7 -16 -13.5 -34.5t-73.5 -229.5q78 -41 175 -61t208 -32l-55 112q-54 101 -76 154t-22 85q0 49 54.5 109.5t131.5 98.5l54 -277q32 -165 32 -216z M695 1022zM689 140zM706 -36q90 84 126 127l66 -68l73 -74q-49 -57 -140 -128q-76 71 -125 143zM422 -6l128 126q68 -78 137 -142q-56 -61 -141 -128q-81 76 -124 144zM568 -195q74 63 114 110q41 -57 108 -121q-48 -58 -110 -103q-36 27 -112 114zM680 -329zM690 140z M686 -46z" />
<glyph unicode="&#x69b;" horiz-adv-x="1427" d="M405 778q32 0 63 -22l-42 -109l-56 -139q56 -6 112 -6q41 0 65.5 2.5t80.5 19.5q27 44 87 208l26 69q11 26 37.5 43.5t63.5 18.5q39 0 72 -23q-23 -56 -59 -176l-53 -168l56 -2q78 0 147 22q17 28 58 141l60 161q11 27 38.5 44.5t63.5 17.5q39 0 70 -21q-24 -58 -61 -181 l-33 -105q90 -54 244 -54q17 0 17 -17v-209q0 -17 -17 -17q-82 0 -168 36.5t-133 87.5q-16 -47 -34.5 -79t-77.5 -47.5t-150 -15.5q-58 0 -165 45q-30 -20 -101.5 -32.5t-143.5 -12.5q-103 0 -236 65q-42 -19 -107 -33t-129 -14q-17 0 -17 17v209q0 17 17 17 q93 0 140.5 11.5t77 40.5t70.5 99l32 56q12 22 34.5 37t50.5 15zM737 1023zM691 140zM707 -36q90 84 126 127l66 -68l73 -74q-49 -57 -140 -128q-76 71 -125 143zM423 -6l128 126q68 -78 137 -142q-56 -61 -141 -128q-81 76 -124 144zM569 -195q74 63 114 110 q41 -57 108 -121q-48 -58 -110 -103q-36 27 -112 114zM681 -329zM691 140zM687 -46z" />
<glyph unicode="&#x69b;" horiz-adv-x="2128" d="M2162 293q0 -17 -17 -17q-82 0 -168 36.5t-133 87.5q-24 -71 -45 -93t-78.5 -35.5t-137.5 -13.5q-59 0 -166 45q-28 -19 -99.5 -32t-146.5 -13l-40 2v-17q0 -136 -82 -253t-224 -183t-310 -66q-184 0 -280 108t-96 313q0 103 51 296l90 -22q-28 -93 -28 -163 q0 -146 66 -217.5t202 -71.5q162 0 275.5 41.5t221.5 140.5l-58 115q-71 130 -93 180t-22 79q0 87 50 153t157 117q9 -72 23 -149t26 -151l1 -5l13 -1l68 -2q39 0 63.5 2.5t83.5 19.5q19 35 55 128l58 149q11 27 37.5 44.5t62.5 17.5q39 0 71 -23q-20 -50 -91 -279l-20 -65 l56 -2q78 0 146 22q20 31 59 141l59 161q11 27 38.5 44.5t64.5 17.5q39 0 70 -21q-25 -61 -93 -286l30 -16q82 -38 213 -38q17 0 17 -17v-209zM1485 1023zM1571 102zM1587 -54q90 84 126 127l66 -68l73 -74q-49 -57 -140 -128q-76 71 -125 143zM1303 -24l128 126 q68 -78 137 -142q-56 -61 -141 -128q-81 76 -124 144zM1449 -213q74 63 114 110q41 -57 108 -121q-48 -58 -110 -103q-36 27 -112 114zM1561 -347zM1571 122zM1567 -64z" />
<glyph unicode="&#x69c;" horiz-adv-x="1433" d="M1329 549q0 -51 -29 -143t-57 -148q-123 0 -252.5 28.5t-236.5 76.5q-13 -30 -25 -49q-15 -23 -92 -39.5t-165 -16.5q-103 0 -236 65q-42 -19 -107 -33t-129 -14q-17 0 -17 17v209q0 17 17 17q93 0 140.5 11.5t77 40.5t70.5 99l32 56q12 22 34.5 37t50.5 15q32 0 63 -22 l-42 -109l-56 -139q56 -6 112 -6q41 0 65.5 2.5t80.5 19.5q27 44 87 208l26 69q11 26 37.5 43.5t63.5 18.5q39 0 72 -23q-7 -16 -13.5 -34.5t-73.5 -229.5q78 -41 175 -61t208 -32l-55 112q-54 101 -76 154t-22 85q0 49 54.5 109.5t131.5 98.5l54 -277q32 -165 32 -216z M695 1022zM689 140zM680 1145q-60 -83 -125 -142q-89 67 -140 128l73 73l66 68q36 -43 126 -127zM964 1176q-53 -77 -124 -144q-85 67 -141 128q62 56 137 142q25 -27 128 -126zM804 1323q-86 -94 -112 -115q-85 69 -124 116q84 76 118 115q45 -53 118 -116zM686 1489z M695 1022zM705 -36q90 84 126 127l66 -68l73 -74q-49 -57 -140 -128q-76 71 -125 143zM421 -6l128 126q68 -78 137 -142q-56 -61 -141 -128q-81 76 -124 144zM567 -195q74 63 114 110q41 -57 108 -121q-48 -58 -110 -103q-36 27 -112 114zM679 -329zM689 140zM685 -46z" />
<glyph unicode="&#x69c;" horiz-adv-x="1427" d="M405 778q32 0 63 -22l-42 -109l-56 -139q56 -6 112 -6q41 0 65.5 2.5t80.5 19.5q27 44 87 208l26 69q11 26 37.5 43.5t63.5 18.5q39 0 72 -23q-23 -56 -59 -176l-53 -168l56 -2q78 0 147 22q17 28 58 141l60 161q11 27 38.5 44.5t63.5 17.5q39 0 70 -21q-24 -58 -61 -181 l-33 -105q90 -54 244 -54q17 0 17 -17v-209q0 -17 -17 -17q-82 0 -168 36.5t-133 87.5q-16 -47 -34.5 -79t-77.5 -47.5t-150 -15.5q-58 0 -165 45q-30 -20 -101.5 -32.5t-143.5 -12.5q-103 0 -236 65q-42 -19 -107 -33t-129 -14q-17 0 -17 17v209q0 17 17 17 q93 0 140.5 11.5t77 40.5t70.5 99l32 56q12 22 34.5 37t50.5 15zM737 1023zM691 140zM708 -37q90 84 126 127l66 -68l73 -74q-49 -57 -140 -128q-76 71 -125 143zM424 -7l128 126q68 -78 137 -142q-56 -61 -141 -128q-81 76 -124 144zM570 -196q74 63 114 110 q41 -57 108 -121q-48 -58 -110 -103q-36 27 -112 114zM682 -330zM692 139zM688 -47zM722 1146q-60 -83 -125 -142q-89 67 -140 128l73 73l66 68q36 -43 126 -127zM1006 1177q-53 -77 -124 -144q-85 67 -141 128q62 56 137 142q25 -27 128 -126zM846 1324q-86 -94 -112 -115 q-85 69 -124 116q84 76 118 115q45 -53 118 -116zM728 1490zM737 1023z" />
<glyph unicode="&#x69c;" horiz-adv-x="2128" d="M2162 293q0 -17 -17 -17q-82 0 -168 36.5t-133 87.5q-24 -71 -45 -93t-78.5 -35.5t-137.5 -13.5q-59 0 -166 45q-28 -19 -99.5 -32t-146.5 -13l-40 2v-17q0 -136 -82 -253t-224 -183t-310 -66q-184 0 -280 108t-96 313q0 103 51 296l90 -22q-28 -93 -28 -163 q0 -146 66 -217.5t202 -71.5q162 0 275.5 41.5t221.5 140.5l-58 115q-71 130 -93 180t-22 79q0 87 50 153t157 117q9 -72 23 -149t26 -151l1 -5l13 -1l68 -2q39 0 63.5 2.5t83.5 19.5q19 35 55 128l58 149q11 27 37.5 44.5t62.5 17.5q39 0 71 -23q-20 -50 -91 -279l-20 -65 l56 -2q78 0 146 22q20 31 59 141l59 161q11 27 38.5 44.5t64.5 17.5q39 0 70 -21q-25 -61 -93 -286l30 -16q82 -38 213 -38q17 0 17 -17v-209zM1485 1023zM1571 102zM1470 1146q-60 -83 -125 -142q-89 67 -140 128l73 73l66 68q36 -43 126 -127zM1754 1177 q-53 -77 -124 -144q-85 67 -141 128q62 56 137 142q25 -27 128 -126zM1594 1324q-86 -94 -112 -115q-85 69 -124 116q84 76 118 115q45 -53 118 -116zM1476 1490zM1485 1023zM1587 -54q90 84 126 127l66 -68l73 -74q-49 -57 -140 -128q-76 71 -125 143zM1303 -24l128 126 q68 -78 137 -142q-56 -61 -141 -128q-81 76 -124 144zM1449 -213q74 63 114 110q41 -57 108 -121q-48 -58 -110 -103q-36 27 -112 114zM1561 -347zM1571 122zM1567 -64z" />
<glyph unicode="&#x69d;" horiz-adv-x="1628" d="M392 782q34 0 64 -21l-79 -198l83 -29q214 282 373 412.5t276 130.5q76 0 177 -65.5t169 -151t68 -140.5q0 -134 -84.5 -236t-254.5 -164t-355 -62q-136 0 -285 25.5t-271 83.5q-34 -44 -112.5 -67.5t-160.5 -23.5q-17 0 -17 17v209q0 17 17 17q122 0 169 28t99 123 l31 56q32 56 93 56zM849 484q148 0 277 34t279 107q-184 211 -347 211q-90 0 -209 -87t-254 -244l6 -1q127 -20 248 -20zM701 1177zM986 140zM975 -18q-51 -75 -125 -144q-99 82 -140 130l73 73l65 68q27 -31 127 -127zM1249 12q-41 -64 -123 -144q-91 71 -142 129 q65 56 138 143q12 -13 127 -128zM986 140zM985 -182zM985 -22z" />
<glyph unicode="&#x69d;" horiz-adv-x="1732" d="M1767 293q0 -17 -18 -17q-94 0 -187 41.5t-168 120.5q-48 -48 -144.5 -91.5t-206.5 -66t-214 -22.5q-136 0 -285 25.5t-271 83.5q-34 -44 -112.5 -67.5t-160.5 -23.5q-17 0 -17 17v209q0 17 17 17q122 0 169 28t99 123l31 56q32 56 93 56q34 0 64 -21l-79 -198l83 -29 q214 282 373 412.5t276 130.5q76 0 177 -65.5t169 -151t68 -140.5q0 -70 -21 -127l35 -21q93 -53 212 -53q18 0 18 -17v-209zM849 484q148 0 277 34t279 107q-184 211 -347 211q-90 0 -209 -87t-254 -244l6 -1q127 -20 248 -20zM701 1177zM986 140zM975 -18 q-51 -75 -125 -144q-99 82 -140 130l73 73l65 68q27 -31 127 -127zM1249 12q-41 -64 -123 -144q-91 71 -142 129q65 56 138 143q12 -13 127 -128zM986 140zM985 -182zM985 -22z" />
<glyph unicode="&#x69d;" horiz-adv-x="2430" d="M2465 293q0 -17 -18 -17q-97 0 -192.5 44t-165.5 123l-8 -7q-93 -81 -248 -129.5t-315 -48.5q-188 0 -390 48l3 -63q0 -136 -82 -253t-224 -183t-310 -66q-184 0 -280 108t-96 313q0 103 51 296l90 -22q-28 -93 -28 -163q0 -146 66 -217.5t202 -71.5q162 0 275.5 41.5 t221.5 140.5l-58 115q-71 130 -93 180t-22 79q0 87 50 153t157 117q2 -12 3.5 -24t38.5 -234l55 -18q411 543 651 543q74 0 171 -61.5t170 -149t73 -146.5q0 -67 -20 -123l41 -25q93 -53 213 -53q18 0 18 -17v-209zM1538 484q148 0 277 34t279 107q-184 211 -346 211 q-60 0 -133.5 -39t-160 -117t-171.5 -176q150 -20 255 -20zM1373 1177zM1670 102zM1659 -56q-51 -75 -125 -144q-99 82 -140 130l73 73l65 68q27 -31 127 -127zM1933 -26q-41 -64 -123 -144q-91 71 -142 129q65 56 138 143q12 -13 127 -128zM1670 102zM1669 -220zM1669 -60z " />
<glyph unicode="&#x69e;" horiz-adv-x="1628" d="M392 782q34 0 64 -21l-79 -198l83 -29q214 282 373 412.5t276 130.5q76 0 177 -65.5t169 -151t68 -140.5q0 -134 -84.5 -236t-254.5 -164t-355 -62q-136 0 -285 25.5t-271 83.5q-34 -44 -112.5 -67.5t-160.5 -23.5q-17 0 -17 17v209q0 17 17 17q122 0 169 28t99 123 l31 56q32 56 93 56zM849 484q148 0 277 34t279 107q-184 211 -347 211q-90 0 -209 -87t-254 -244l6 -1q127 -20 248 -20zM701 1177zM986 140zM686 1300q-60 -83 -125 -142q-89 67 -140 128l73 73l66 68q36 -43 126 -127zM970 1331q-53 -77 -124 -144q-85 67 -141 128 q62 56 137 142q25 -27 128 -126zM810 1478q-86 -94 -112 -115q-85 69 -124 116q84 76 118 115q45 -53 118 -116zM692 1644zM701 1177z" />
<glyph unicode="&#x69e;" horiz-adv-x="1732" d="M1767 293q0 -17 -18 -17q-94 0 -187 41.5t-168 120.5q-48 -48 -144.5 -91.5t-206.5 -66t-214 -22.5q-136 0 -285 25.5t-271 83.5q-34 -44 -112.5 -67.5t-160.5 -23.5q-17 0 -17 17v209q0 17 17 17q122 0 169 28t99 123l31 56q32 56 93 56q34 0 64 -21l-79 -198l83 -29 q214 282 373 412.5t276 130.5q76 0 177 -65.5t169 -151t68 -140.5q0 -70 -21 -127l35 -21q93 -53 212 -53q18 0 18 -17v-209zM849 484q148 0 277 34t279 107q-184 211 -347 211q-90 0 -209 -87t-254 -244l6 -1q127 -20 248 -20zM701 1177zM986 140zM686 1300 q-60 -83 -125 -142q-89 67 -140 128l73 73l66 68q36 -43 126 -127zM970 1331q-53 -77 -124 -144q-85 67 -141 128q62 56 137 142q25 -27 128 -126zM810 1478q-86 -94 -112 -115q-85 69 -124 116q84 76 118 115q45 -53 118 -116zM692 1644zM701 1177z" />
<glyph unicode="&#x69e;" horiz-adv-x="2430" d="M2465 293q0 -17 -18 -17q-97 0 -192.5 44t-165.5 123l-8 -7q-93 -81 -248 -129.5t-315 -48.5q-188 0 -390 48l3 -63q0 -136 -82 -253t-224 -183t-310 -66q-184 0 -280 108t-96 313q0 103 51 296l90 -22q-28 -93 -28 -163q0 -146 66 -217.5t202 -71.5q162 0 275.5 41.5 t221.5 140.5l-58 115q-71 130 -93 180t-22 79q0 87 50 153t157 117q2 -12 3.5 -24t38.5 -234l55 -18q411 543 651 543q74 0 171 -61.5t170 -149t73 -146.5q0 -67 -20 -123l41 -25q93 -53 213 -53q18 0 18 -17v-209zM1538 484q148 0 277 34t279 107q-184 211 -346 211 q-60 0 -133.5 -39t-160 -117t-171.5 -176q150 -20 255 -20zM1373 1177zM1670 102zM1358 1299q-60 -83 -125 -142q-89 67 -140 128l73 73l66 68q36 -43 126 -127zM1642 1330q-53 -77 -124 -144q-85 67 -141 128q62 56 137 142q25 -27 128 -126zM1482 1477q-86 -94 -112 -115 q-85 69 -124 116q84 76 118 115q45 -53 118 -116zM1364 1643zM1373 1176z" />
<glyph unicode="&#x69f;" horiz-adv-x="1419" d="M0 276q-17 0 -17 17v209q0 17 17 17l169 2h42q42 61 84 115l-29 131l-127 635q-5 25 -5 48q0 84 60.5 142t148.5 58q38 -138 82 -252l-65 -49l44 -576q290 339 494 339q83 0 175 -51t166.5 -140t74.5 -143q0 -159 -136 -270.5t-421.5 -171.5t-756.5 -60zM1181 660 q-106 117 -176 159.5t-158 42.5q-186 0 -477 -337q20 0 152 6t211 19.5t166 34t282 75.5zM876 1302zM732 140zM861 1424q-60 -83 -125 -142q-89 67 -140 128l73 73l66 68q36 -43 126 -127zM1145 1455q-53 -77 -124 -144q-85 67 -141 128q62 56 137 142q25 -27 128 -126z M985 1602q-86 -94 -112 -115q-85 69 -124 116q84 76 118 115q45 -53 118 -116zM867 1768zM876 1301z" />
<glyph unicode="&#x69f;" horiz-adv-x="1445" d="M1480 293q0 -17 -18 -17q-101 0 -198.5 46.5t-168.5 128.5q-153 -84 -414.5 -129.5t-680.5 -45.5q-17 0 -17 17v209q0 17 17 17l169 2h42q42 61 84 115l-29 131l-127 635q-5 25 -5 48q0 84 60.5 142t148.5 58q38 -138 82 -252l-65 -49l44 -576q290 339 494 339 q83 0 175 -51t166.5 -140t74.5 -143q0 -111 -70 -204l5 -2q93 -53 213 -53q18 0 18 -17v-209zM1181 660q-106 117 -176 159.5t-158 42.5q-186 0 -477 -337q20 0 152 6t211 19.5t166 34t282 75.5zM876 1302zM732 140zM861 1425q-60 -83 -125 -142q-89 67 -140 128l73 73 l66 68q36 -43 126 -127zM1145 1456q-53 -77 -124 -144q-85 67 -141 128q62 56 137 142q25 -27 128 -126zM985 1603q-86 -94 -112 -115q-85 69 -124 116q84 76 118 115q45 -53 118 -116zM867 1769zM876 1302z" />
<glyph unicode="&#x69f;" horiz-adv-x="1791" d="M1826 293q0 -17 -17 -17q-95 0 -189 42t-164 118q-97 -83 -251.5 -130.5t-311.5 -47.5q-116 0 -263.5 8.5t-201.5 24.5q-41 12 -126.5 70.5t-162.5 127.5l32 88q192 -45 333 -67l82 105q-96 450 -159 787q-5 25 -5 48q0 84 60.5 142t147.5 58q38 -138 82 -252l-65 -49 q25 -298 46 -604q293 332 480 332q75 0 172 -61.5t170 -149.5t73 -146q0 -72 -22 -131q109 -70 243 -70q17 0 17 -17v-209zM914 484q146 0 274 33.5t282 107.5q-184 211 -347 211q-180 0 -474 -343q135 -9 265 -9zM1146 1267zM892 140zM1131 1390q-60 -83 -125 -142 q-89 67 -140 128l73 73l66 68q36 -43 126 -127zM1415 1421q-53 -77 -124 -144q-85 67 -141 128q62 56 137 142q25 -27 128 -126zM1255 1568q-86 -94 -112 -115q-85 69 -124 116q84 76 118 115q45 -53 118 -116zM1137 1734zM1146 1267z" />
<glyph unicode="&#x6a0;" horiz-adv-x="1058" d="M0 276q-17 0 -17 17v209q0 17 17 17h159q-43 61 -43 126q0 95 54.5 205t132.5 171.5t157 61.5q142 0 311 -189l-43 -83q-127 48 -216 48q-72 0 -129 -16t-120 -50q9 -188 165 -267q161 9 288.5 36t256.5 78q16 -14 24.5 -44t8.5 -55q0 -50 -23.5 -90.5t-62.5 -60.5 t-197 -53t-328 -47t-395 -14zM429 1203zM559 140zM414 1326q-60 -83 -125 -142q-89 67 -140 128l73 73l66 68q36 -43 126 -127zM698 1357q-53 -77 -124 -144q-85 67 -141 128q62 56 137 142q25 -27 128 -126zM538 1504q-86 -94 -112 -115q-85 69 -124 116q84 76 118 115 q45 -53 118 -116zM420 1670zM429 1203z" />
<glyph unicode="&#x6a0;" horiz-adv-x="917" d="M952 295q0 -19 -20 -19q-145 0 -259.5 33t-183.5 92q-219 -125 -487 -125q-19 0 -19 19v205q0 19 19 19q169 0 237 4t122 13q-73 94 -117 140.5t-89 82.5l-37 -26q-54 59 -54 131q0 70 61 121.5t167.5 89t203.5 37.5q89 0 168.5 -39t126 -107.5t46.5 -144.5 q0 -144 -159 -288l-1 -1l5 -1q101 -12 250 -12q20 0 20 -19v-205zM632 775q0 50 -36.5 80t-92.5 30q-53 0 -101 -10.5t-114 -39.5q71 -58 175 -178l58 -59q53 35 82 81t29 96zM463 1232zM472 140zM448 1354q-60 -83 -125 -142q-89 67 -140 128l73 73l66 68q36 -43 126 -127z M732 1385q-53 -77 -124 -144q-85 67 -141 128q62 56 137 142q25 -27 128 -126zM572 1532q-86 -94 -112 -115q-85 69 -124 116q84 76 118 115q45 -53 118 -116zM454 1698zM463 1231z" />
<glyph unicode="&#x6a0;" horiz-adv-x="1027" d="M581 1355q-60 -83 -125 -142q-89 67 -140 128l73 73l66 68q36 -43 126 -127zM865 1386q-53 -77 -124 -144q-85 67 -141 128q62 56 137 142q25 -27 128 -126zM705 1533q-86 -94 -112 -115q-85 69 -124 116q84 76 118 115q45 -53 118 -116zM587 1699zM596 1232zM1061 295 q0 -19 -21 -19q-139 0 -245 30.5t-192 102.5q-226 -144 -226 -298q0 -113 107 -173.5t310 -60.5q160 0 404 56l28 -88l-114 -67q-224 -136 -311 -136q-157 0 -277.5 52.5t-186 150.5t-65.5 224q0 125 56.5 232t180.5 207l-16 20q-106 147 -210 231l-38 -26q-54 59 -54 131 q0 69 60 120.5t167 89.5t205 38q137 0 239 -86t102 -205q0 -149 -171 -289l7 -1q81 -12 240 -12q21 0 21 -19v-205zM759 775q0 51 -37.5 80.5t-91.5 29.5q-53 0 -101 -10.5t-114 -39.5q74 -60 176 -178l50 -53q64 47 91 86.5t27 84.5zM596 1232zM202 -261z" />
<glyph unicode="&#x6a1;" horiz-adv-x="1703" d="M638 259q-248 0 -373.5 112.5t-125.5 324.5q0 84 40 224h92q-7 -56 -7 -101q0 -120 46.5 -185.5t144 -99t258.5 -33.5q54 0 108.5 2t187.5 12q-36 52 -36 101q0 54 11.5 122t25.5 92q55 104 152 176.5t190 72.5q57 0 112 -60.5t91 -157t36 -185.5q0 -73 -61 -154l189 -2 q18 0 18 -17v-209q0 -17 -18 -17q-277 0 -449 73q-110 -39 -282.5 -65t-349.5 -26zM1475 613q-23 84 -67.5 149t-76.5 65q-110 0 -247 -192q37 -43 89 -75t101 -47q126 34 201 100zM1252 1179zM1258 141z" />
<glyph unicode="&#x6a2;" horiz-adv-x="875" d="M666 629q-18 69 -37 126q-58 -44 -131.5 -70.5t-149.5 -26.5q-108 0 -171.5 65.5t-63.5 173.5t39 208.5t105 161t137 60.5q95 0 183.5 -92t141 -252.5t52.5 -350.5q0 -33 -21 -92.5t-50 -115.5q-122 -76 -282 -112t-416 -36q-19 0 -19 19v205q0 19 19 19q222 0 378 26.5 t286 83.5zM352 1082q-52 0 -92.5 -39.5t-40.5 -93.5q0 -49 49 -83.5t120 -34.5q84 0 195 38q-102 213 -231 213zM382 1427zM444 140zM591 -27q-47 -68 -144 -163q-108 89 -158 147q81 79 155 163q51 -59 147 -147zM444 170zM447 -210zM444 140zM447 -35z" />
<glyph unicode="&#x6a2;" horiz-adv-x="844" d="M2 519h74l69 1q-30 49 -30 95q0 40 11 115t25 99q58 105 155 177t189 72q55 0 111.5 -62t91.5 -158t35 -183q0 -78 -45 -155h14l160 -1q17 0 17 -17v-209q0 -17 -17 -17q-260 0 -438 68q-93 -39 -193.5 -53.5t-228.5 -14.5q-19 0 -19 19v205q0 19 19 19zM618 612 q-22 80 -67 147t-78 67q-108 0 -247 -192q36 -42 87.5 -74t102.5 -48q124 34 202 100zM429 1178zM417 140zM564 -27q-47 -68 -144 -163q-108 89 -158 147q81 79 155 163q51 -59 147 -147zM417 170zM420 -210zM417 140zM420 -35z" />
<glyph unicode="&#x6a2;" horiz-adv-x="1703" d="M638 258q-248 0 -373.5 112.5t-125.5 324.5q0 84 40 224h92q-7 -56 -7 -101q0 -120 46.5 -185.5t144 -99t258.5 -33.5q54 0 108.5 2t187.5 12q-36 52 -36 101q0 54 11.5 122t25.5 92q55 104 152 176.5t190 72.5q57 0 112 -60.5t91 -157t36 -185.5q0 -73 -61 -154l189 -2 q18 0 18 -17v-209q0 -17 -18 -17q-277 0 -449 73q-110 -39 -282.5 -65t-349.5 -26zM1475 612q-23 84 -67.5 149t-76.5 65q-110 0 -247 -192q37 -43 89 -75t101 -47q126 34 201 100zM1252 1178zM1258 140zM1405 -27q-47 -68 -144 -163q-108 89 -158 147q81 79 155 163 q51 -59 147 -147zM1258 170zM1261 -210zM1258 140zM1261 -35z" />
<glyph unicode="&#x6a3;" horiz-adv-x="875" d="M659 602q-9 27 -26 75q-49 -43 -108.5 -65t-130.5 -22q-118 0 -175.5 61t-57.5 153q0 156 85.5 268.5t200.5 112.5q121 0 222.5 -179.5t101.5 -413.5q0 -64 -71 -208q-150 -58 -296 -83t-402 -25q-19 0 -19 19v207q0 17 19 17q225 0 380.5 13.5t276.5 69.5zM502 140z M427 1255zM266 837q0 -49 36.5 -73t118.5 -24q84 0 172 27q-40 90 -84 131.5t-107 41.5t-99.5 -32t-36.5 -71zM595 1438q-49 -71 -143 -163q-101 82 -158 147q94 91 155 163q44 -50 146 -147zM452 1255zM450 1635zM649 -27q-47 -68 -144 -163q-108 89 -158 147 q81 79 155 163q51 -59 147 -147zM502 170zM505 -210zM502 140zM505 -35z" />
<glyph unicode="&#x6a3;" horiz-adv-x="844" d="M2 519h74l69 1q-30 49 -30 95q0 40 11 115t25 99q58 105 155 177t189 72q55 0 111.5 -62t91.5 -158t35 -183q0 -78 -45 -155h14l160 -1q17 0 17 -17v-209q0 -17 -17 -17q-260 0 -438 68q-93 -39 -193.5 -53.5t-228.5 -14.5q-19 0 -19 19v205q0 19 19 19zM618 612 q-22 80 -67 147t-78 67q-108 0 -247 -192q36 -42 87.5 -74t102.5 -48q124 34 202 100zM429 1178zM417 140zM572 1361q-49 -71 -143 -163q-101 82 -158 147q94 91 155 163q44 -50 146 -147zM429 1178zM427 1558zM564 -27q-47 -68 -144 -163q-108 89 -158 147q81 79 155 163 q51 -59 147 -147zM417 170zM420 -210zM417 140zM420 -35z" />
<glyph unicode="&#x6a3;" horiz-adv-x="1703" d="M1405 -27q-47 -68 -144 -163q-108 89 -158 147q81 79 155 163q51 -59 147 -147zM1258 170zM1261 -210zM1258 140zM1261 -35zM638 258q-248 0 -373.5 112.5t-125.5 324.5q0 84 40 224h92q-7 -56 -7 -101q0 -120 46.5 -185.5t144 -99t258.5 -33.5q54 0 108.5 2t187.5 12 q-36 52 -36 101q0 54 11.5 122t25.5 92q55 104 152 176.5t190 72.5q57 0 112 -60.5t91 -157t36 -185.5q0 -73 -61 -154l189 -2q18 0 18 -17v-209q0 -17 -18 -17q-277 0 -449 73q-110 -39 -282.5 -65t-349.5 -26zM1475 612q-23 84 -67.5 149t-76.5 65q-110 0 -247 -192 q37 -43 89 -75t101 -47q126 34 201 100zM1252 1178zM1258 140zM1395 1361q-49 -71 -143 -163q-101 82 -158 147q94 91 155 163q44 -50 146 -147zM1252 1178zM1250 1558z" />
<glyph unicode="&#x6a5;" horiz-adv-x="875" d="M666 629q-18 69 -37 126q-58 -44 -131.5 -70.5t-149.5 -26.5q-108 0 -171.5 65.5t-63.5 173.5t39 208.5t105 161t137 60.5q95 0 183.5 -92t141 -252.5t52.5 -350.5q0 -33 -21 -92.5t-50 -115.5q-122 -76 -282 -112t-416 -36q-19 0 -19 19v205q0 19 19 19q222 0 378 26.5 t286 83.5zM352 1082q-52 0 -92.5 -39.5t-40.5 -93.5q0 -49 49 -83.5t120 -34.5q84 0 195 38q-102 213 -231 213zM382 1427zM444 140zM460 -36q90 84 126 127l66 -68l73 -74q-49 -57 -140 -128q-76 71 -125 143zM176 -6l128 126q68 -78 137 -142q-56 -61 -141 -128 q-81 76 -124 144zM322 -195q74 63 114 110q41 -57 108 -121q-48 -58 -110 -103q-36 27 -112 114zM434 -329zM444 140zM440 -46z" />
<glyph unicode="&#x6a5;" horiz-adv-x="844" d="M2 519h74l69 1q-30 49 -30 95q0 40 11 115t25 99q58 105 155 177t189 72q55 0 111.5 -62t91.5 -158t35 -183q0 -78 -45 -155h14l160 -1q17 0 17 -17v-209q0 -17 -17 -17q-260 0 -438 68q-93 -39 -193.5 -53.5t-228.5 -14.5q-19 0 -19 19v205q0 19 19 19zM618 612 q-22 80 -67 147t-78 67q-108 0 -247 -192q36 -42 87.5 -74t102.5 -48q124 34 202 100zM429 1178zM417 140zM433 -36q90 84 126 127l66 -68l73 -74q-49 -57 -140 -128q-76 71 -125 143zM149 -6l128 126q68 -78 137 -142q-56 -61 -141 -128q-81 76 -124 144zM295 -195 q74 63 114 110q41 -57 108 -121q-48 -58 -110 -103q-36 27 -112 114zM407 -329zM417 140zM413 -46z" />
<glyph unicode="&#x6a5;" horiz-adv-x="1703" d="M638 258q-248 0 -373.5 112.5t-125.5 324.5q0 84 40 224h92q-7 -56 -7 -101q0 -120 46.5 -185.5t144 -99t258.5 -33.5q54 0 108.5 2t187.5 12q-36 52 -36 101q0 54 11.5 122t25.5 92q55 104 152 176.5t190 72.5q57 0 112 -60.5t91 -157t36 -185.5q0 -73 -61 -154l189 -2 q18 0 18 -17v-209q0 -17 -18 -17q-277 0 -449 73q-110 -39 -282.5 -65t-349.5 -26zM1475 612q-23 84 -67.5 149t-76.5 65q-110 0 -247 -192q37 -43 89 -75t101 -47q126 34 201 100zM1252 1178zM1258 140zM1274 -36q90 84 126 127l66 -68l73 -74q-49 -57 -140 -128 q-76 71 -125 143zM990 -6l128 126q68 -78 137 -142q-56 -61 -141 -128q-81 76 -124 144zM1136 -195q74 63 114 110q41 -57 108 -121q-48 -58 -110 -103q-36 27 -112 114zM1248 -329zM1258 140zM1254 -46z" />
<glyph unicode="&#x6a7;" horiz-adv-x="1295" d="M515 -259q-184 0 -280 108t-96 313q0 103 51 296l90 -22q-28 -93 -28 -163q0 -143 72 -216t214 -73q265 0 540 210l-11 84l-5 1q-234 7 -331 38t-144 95t-47 172q0 112 43 222t112.5 177t141.5 67q118 0 221.5 -149t139.5 -368l3 -14h111q18 0 18 -17v-209q0 -17 -18 -17 h-105q-19 -144 -113.5 -263.5t-258 -195.5t-320.5 -76zM792 806q-60 0 -102 -42t-42 -92q0 -113 201 -140q42 -5 137 -10l30 -1q-85 285 -224 285zM825 1150zM69 -261zM968 1333q-49 -71 -143 -163q-101 82 -158 147q94 91 155 163q44 -50 146 -147zM825 1150zM823 1530z " />
<glyph unicode="&#x6a8;" horiz-adv-x="1295" d="M515 -259q-184 0 -280 108t-96 313q0 103 51 296l90 -22q-28 -93 -28 -163q0 -143 72 -216t214 -73q265 0 540 210l-11 84l-5 1q-234 7 -331 38t-144 95t-47 172q0 112 43 222t112.5 177t141.5 67q118 0 221.5 -149t139.5 -368l3 -14h111q18 0 18 -17v-209q0 -17 -18 -17 h-105q-19 -144 -113.5 -263.5t-258 -195.5t-320.5 -76zM792 806q-60 0 -102 -42t-42 -92q0 -113 201 -140q42 -5 137 -10l30 -1q-85 285 -224 285zM825 1150zM69 -261zM810 1273q-60 -83 -125 -142q-89 67 -140 128l73 73l66 68q36 -43 126 -127zM1094 1304 q-53 -77 -124 -144q-85 67 -141 128q62 56 137 142q25 -27 128 -126zM934 1451q-86 -94 -112 -115q-85 69 -124 116q84 76 118 115q45 -53 118 -116zM816 1617zM825 1150z" />
<glyph unicode="&#x6aa;" horiz-adv-x="1817" d="M0 276q-17 0 -17 17v209q0 17 17 17q420 0 907.5 17t715.5 44q-37 69 -97 93t-175 24q-131 0 -420 -16q-289 -17 -440 -17q-148 0 -212.5 64t-64.5 195q0 112 90 227t236 196t285 117q11 -52 11 -99q0 -71 -30 -123t-84 -74l-63 -25q-187 -71 -263 -113.5t-76 -69.5 q0 -26 66 -46.5t142 -20.5q136 0 405 14q309 15 419 15q172 0 276 -106.5t104 -282.5q0 -68 -43 -166q-248 -38 -765.5 -64t-923.5 -26zM531 1563zM1376 140z" />
<glyph unicode="&#x6aa;" horiz-adv-x="1922" d="M1957 293q0 -17 -18 -17q-137 0 -267 87q-272 -38 -785.5 -62.5t-886.5 -24.5q-17 0 -17 17v209q0 17 17 17q420 0 907.5 17t715.5 44q-37 69 -97 93t-175 24q-131 0 -420 -16q-289 -17 -440 -17q-148 0 -212.5 64t-64.5 195q0 112 90 227t236 196t285 117q11 -52 11 -99 q0 -71 -30 -123t-84 -74l-63 -25q-187 -71 -263 -113.5t-76 -69.5q0 -26 66 -46.5t142 -20.5q136 0 405 14q309 15 419 15q163 0 265.5 -96t113.5 -256q93 -50 208 -50q18 0 18 -17v-209zM531 1563zM1382 140z" />
<glyph unicode="&#x6aa;" horiz-adv-x="2181" d="M586 276h-83q-222 0 -307 15q-78 14 -128 80.5t-50 157.5l3 39q232 -49 534 -49q351 0 722.5 16t612.5 45q-34 68 -93.5 92.5t-177.5 24.5q-132 0 -421 -16q-289 -17 -439 -17q-147 0 -212 64t-65 195q0 76 42.5 155t129.5 157.5t207 138.5t232 89q11 -52 11 -99 q-1 -74 -31 -125t-83 -72l-63 -25q-187 -71 -263 -113.5t-76 -69.5q0 -26 66 -46.5t142 -20.5q136 0 405 14q309 15 418 15q165 0 268.5 -98t111.5 -259q90 -45 200 -45q17 0 17 -17v-209q0 -17 -17 -17q-141 0 -262 83l-5 3q-252 -38 -627 -62t-719 -24zM796 1563z M1623 140z" />
<glyph unicode="&#x6ab;" horiz-adv-x="907" d="M0 276q-17 0 -17 17v209q0 17 17 17q271 0 413 17t212 51q-24 47 -72 101t-117.5 107.5t-203.5 133.5q-24 -8 -54 -8q-56 0 -98.5 39t-42.5 94q0 45 21 148.5t32 108.5q259 130 398 193t342 146q41 -41 41 -103l-4 -36q-20 -91 -108 -135q-145 -71 -277 -121.5 t-330 -106.5q152 -38 284.5 -125t212.5 -198t80 -213q0 -163 -185 -249.5t-544 -86.5zM100 1491zM401 140zM723 1237q0 -34 -11.5 -60.5t-31 -43.5t-46 -27t-59.5 -10q-31 0 -58 10t-46 27t-30 43t-11 59q0 34 11 59.5t30 42.5t46 27t59 10t58.5 -10t46 -27t31 -42t11.5 -58 zM638 1235q0 31 -17 47.5t-45 16.5t-46 -16.5t-18 -47.5q0 -28 16.5 -45.5t46.5 -17.5t46.5 17.5t16.5 45.5zM575 1076zM576 1404z" />
<glyph unicode="&#x6ab;" horiz-adv-x="957" d="M102 1495zM426 140zM993 502v-209q0 -17 -18 -17q-185 0 -330 152q-38 -35 -101 -65q-184 -87 -544 -87q-17 0 -17 17v209q0 17 17 17q266 0 413 17q141 16 212 51q-24 48 -72.5 102t-116.5 107q-77 57 -204 133q-212 122 -212 217q0 52 28 100.5t70 68.5 q329 159 761 335q42 -40 42 -102q0 -52 -31.5 -97.5t-78.5 -68.5q-118 -58 -247 -109t-383 -138q142 -36 267 -119.5t201 -190.5q80 -112 80 -213q0 -15 -1 -23q113 -70 247 -70q18 0 18 -17zM691 1210q0 -34 -11.5 -60.5t-31 -43.5t-46 -27t-59.5 -10q-31 0 -58 10t-46 27 t-30 43t-11 59q0 34 11 59.5t30 42.5t46 27t59 10t58.5 -10t46 -27t31 -42t11.5 -58zM606 1208q0 31 -17 47.5t-45 16.5t-46 -16.5t-18 -47.5q0 -28 16.5 -45.5t46.5 -17.5t46.5 17.5t16.5 45.5zM543 1049zM544 1377z" />
<glyph unicode="&#x6ab;" horiz-adv-x="1572" d="M751 1495zM909 140zM1605 520v-209q0 -17 -18 -17q-185 0 -329 151q-85 -82 -250 -125.5t-393 -43.5q-130 0 -213.5 14t-135 43t-82.5 78q-46 70 -46 194q0 40 11 117t17 99l92 -3l-7 -77q0 -87 40 -133.5t133 -66.5q93 -21 266 -21q347 0 482 55l64 29l1 1 q-24 48 -72.5 102t-116.5 107q-77 57 -204 133q-212 122 -212 217q0 52 28 100.5t70 68.5q329 159 761 335q42 -40 42 -102q0 -52 -31.5 -97.5t-78.5 -68.5q-118 -58 -247 -109t-383 -138q142 -36 267 -119.5t201 -190.5q80 -112 80 -213l-1 -23q113 -70 247 -70 q18 0 18 -17zM1343 1205q0 -34 -11.5 -60.5t-31 -43.5t-46 -27t-59.5 -10q-31 0 -58 10t-46 27t-30 43t-11 59q0 34 11 59.5t30 42.5t46 27t59 10t58.5 -10t46 -27t31 -42t11.5 -58zM1258 1203q0 31 -17 47.5t-45 16.5t-46 -16.5t-18 -47.5q0 -28 16.5 -45.5t46.5 -17.5 t46.5 17.5t16.5 45.5zM1195 1044zM1196 1372z" />
<glyph unicode="&#x6ac;" horiz-adv-x="907" d="M0 276q-17 0 -17 17v209q0 17 17 17q271 0 413 17t212 51q-24 47 -72 101t-117.5 107.5t-203.5 133.5q-24 -8 -54 -8q-56 0 -98.5 39t-42.5 94q0 45 21 148.5t32 108.5q259 130 398 193t342 146q41 -41 41 -103l-4 -36q-20 -91 -108 -135q-145 -71 -277 -121.5 t-330 -106.5q152 -38 284.5 -125t212.5 -198t80 -213q0 -163 -185 -249.5t-544 -86.5zM100 1491zM401 140zM725 1783q-48 -65 -117 -132q-76 60 -129 117q90 90 126 132q46 -51 120 -117zM605 1950zM608 1621z" />
<glyph unicode="&#x6ac;" horiz-adv-x="957" d="M102 1495zM426 140zM993 502v-209q0 -17 -18 -17q-185 0 -330 152q-38 -35 -101 -65q-184 -87 -544 -87q-17 0 -17 17v209q0 17 17 17q266 0 413 17q141 16 212 51q-24 48 -72.5 102t-116.5 107q-77 57 -204 133q-212 122 -212 217q0 52 28 100.5t70 68.5 q329 159 761 335q42 -40 42 -102q0 -52 -31.5 -97.5t-78.5 -68.5q-118 -58 -247 -109t-383 -138q142 -36 267 -119.5t201 -190.5q80 -112 80 -213q0 -15 -1 -23q113 -70 247 -70q18 0 18 -17zM801 1783q-48 -65 -117 -132q-76 60 -129 117q90 90 126 132q46 -51 120 -117z M681 1950zM684 1621z" />
<glyph unicode="&#x6ac;" horiz-adv-x="1525" d="M648 258q-202 0 -304.5 33t-153.5 105t-51 191q0 44 11.5 121t16.5 95l92 -3l-7 -77q0 -86 40 -133t133 -67.5t266 -20.5q160 0 282.5 15t241.5 41q-53 331 -124 992l244 135l-8 -400q-10 -450 -10 -709q48 -32 102.5 -44.5t123.5 -12.5q17 0 17 -17v-209q0 -17 -17 -17 q-198 0 -277 99l-7 11q-354 -128 -611 -128zM724 140zM717 1196zM815 871q-54 1 -92.5 6t-63 16t-36 29.5t-11.5 47.5q0 24 14 51.5t37 51t51.5 39.5t58.5 16q55 0 68 -57l-33 -14q-9 10 -23 10q-12 0 -28.5 -9t-32 -23.5t-28.5 -32t-17 -35.5q19 -9 42.5 -13.5t46.5 -8 t44.5 -8.5t35.5 -15q11 -7 15 -17t4 -21q0 -18 -22 -46.5t-56.5 -54.5t-77 -45t-83.5 -19q-25 0 -36 12t-11 29q54 5 104 23.5t85 42.5q16 11 27.5 22t17.5 23zM860 1379q-49 -71 -143 -163q-101 82 -158 147q94 91 155 163q44 -50 146 -147zM717 1196zM715 1576z" />
<glyph unicode="&#x6ae;" horiz-adv-x="907" d="M0 276q-17 0 -17 17v209q0 17 17 17q271 0 413 17t212 51q-24 47 -72 101t-117.5 107.5t-203.5 133.5q-24 -8 -54 -8q-56 0 -98.5 39t-42.5 94q0 45 21 148.5t32 108.5q259 130 398 193t342 146q41 -41 41 -103l-4 -36q-20 -91 -108 -135q-145 -71 -277 -121.5 t-330 -106.5q152 -38 284.5 -125t212.5 -198t80 -213q0 -163 -185 -249.5t-544 -86.5zM100 1491zM401 140zM417 -36q90 84 126 127l66 -68l73 -74q-49 -57 -140 -128q-76 71 -125 143zM133 -6l128 126q68 -78 137 -142q-56 -61 -141 -128q-81 76 -124 144zM279 -195 q74 63 114 110q41 -57 108 -121q-48 -58 -110 -103q-36 27 -112 114zM391 -329zM401 140zM397 -46z" />
<glyph unicode="&#x6ae;" horiz-adv-x="957" d="M102 1495zM426 140zM993 502v-209q0 -17 -18 -17q-185 0 -330 152q-38 -35 -101 -65q-184 -87 -544 -87q-17 0 -17 17v209q0 17 17 17q266 0 413 17q141 16 212 51q-24 48 -72.5 102t-116.5 107q-77 57 -204 133q-212 122 -212 217q0 52 28 100.5t70 68.5 q329 159 761 335q42 -40 42 -102q0 -52 -31.5 -97.5t-78.5 -68.5q-118 -58 -247 -109t-383 -138q142 -36 267 -119.5t201 -190.5q80 -112 80 -213q0 -15 -1 -23q113 -70 247 -70q18 0 18 -17zM442 -37q90 84 126 127l66 -68l73 -74q-49 -57 -140 -128q-76 71 -125 143z M158 -7l128 126q68 -78 137 -142q-56 -61 -141 -128q-81 76 -124 144zM304 -196q74 63 114 110q41 -57 108 -121q-48 -58 -110 -103q-36 27 -112 114zM416 -330zM426 139zM422 -47z" />
<glyph unicode="&#x6ae;" horiz-adv-x="1525" d="M648 258q-202 0 -304.5 33t-153.5 105t-51 191q0 44 11.5 121t16.5 95l92 -3l-7 -77q0 -86 40 -133t133 -67.5t266 -20.5q160 0 282.5 15t241.5 41q-53 331 -124 992l244 135l-8 -400q-10 -450 -10 -709q48 -32 102.5 -44.5t123.5 -12.5q17 0 17 -17v-209q0 -17 -17 -17 q-198 0 -277 99l-7 11q-354 -128 -611 -128zM724 140zM717 1196zM815 871q-54 1 -92.5 6t-63 16t-36 29.5t-11.5 47.5q0 24 14 51.5t37 51t51.5 39.5t58.5 16q55 0 68 -57l-33 -14q-9 10 -23 10q-12 0 -28.5 -9t-32 -23.5t-28.5 -32t-17 -35.5q19 -9 42.5 -13.5t46.5 -8 t44.5 -8.5t35.5 -15q11 -7 15 -17t4 -21q0 -18 -22 -46.5t-56.5 -54.5t-77 -45t-83.5 -19q-25 0 -36 12t-11 29q54 5 104 23.5t85 42.5q16 11 27.5 22t17.5 23zM740 -36q90 84 126 127l66 -68l73 -74q-49 -57 -140 -128q-76 71 -125 143zM456 -6l128 126q68 -78 137 -142 q-56 -61 -141 -128q-81 76 -124 144zM602 -195q74 63 114 110q41 -57 108 -121q-48 -58 -110 -103q-36 27 -112 114zM714 -329zM724 140zM720 -46z" />
<glyph unicode="&#x6b0;" horiz-adv-x="907" d="M0 276q-17 0 -17 17v209q0 17 17 17q271 0 413 17t212 51q-24 47 -72 101t-117.5 107.5t-203.5 133.5q-24 -8 -54 -8q-56 0 -98.5 39t-42.5 94q0 45 21 148.5t32 108.5q259 130 398 193t342 146q41 -41 41 -103l-4 -36q-20 -91 -108 -135q-145 -71 -277 -121.5 t-330 -106.5q152 -38 284.5 -125t212.5 -198t80 -213q0 -163 -185 -249.5t-544 -86.5zM100 1491zM401 140zM723 1237q0 -34 -11.5 -60.5t-31 -43.5t-46 -27t-59.5 -10q-31 0 -58 10t-46 27t-30 43t-11 59q0 34 11 59.5t30 42.5t46 27t59 10t58.5 -10t46 -27t31 -42t11.5 -58 zM638 1235q0 31 -17 47.5t-45 16.5t-46 -16.5t-18 -47.5q0 -28 16.5 -45.5t46.5 -17.5t46.5 17.5t16.5 45.5zM575 1076zM576 1404zM55 1405q-13 66 -13 81q0 9 3 11q121 61 332 155l385 178q29 -22 29 -53l-1 -12q-7 -31 -39.5 -49.5t-213.5 -93.5q-205 -86 -482 -217z M95 1677z" />
<glyph unicode="&#x6b0;" horiz-adv-x="957" d="M102 1495zM426 140zM993 502v-209q0 -17 -18 -17q-185 0 -330 152q-38 -35 -101 -65q-184 -87 -544 -87q-17 0 -17 17v209q0 17 17 17q266 0 413 17q141 16 212 51q-24 48 -72.5 102t-116.5 107q-77 57 -204 133q-212 122 -212 217q0 52 28 100.5t70 68.5 q329 159 761 335q42 -40 42 -102q0 -52 -31.5 -97.5t-78.5 -68.5q-118 -58 -247 -109t-383 -138q142 -36 267 -119.5t201 -190.5q80 -112 80 -213q0 -15 -1 -23q113 -70 247 -70q18 0 18 -17zM56 1377q-14 70 -14 82q0 9 3 10q84 42 222 104q469 211 565 257q29 -22 29 -53 q0 -44 -51 -67l-167 -73q-354 -148 -587 -260zM95 1649zM675 1205q0 -34 -11.5 -60.5t-31 -43.5t-46 -27t-59.5 -10q-31 0 -58 10t-46 27t-30 43t-11 59q0 34 11 59.5t30 42.5t46 27t59 10t58.5 -10t46 -27t31 -42t11.5 -58zM590 1203q0 31 -17 47.5t-45 16.5t-46 -16.5 t-18 -47.5q0 -28 16.5 -45.5t46.5 -17.5t46.5 17.5t16.5 45.5zM527 1044zM528 1372z" />
<glyph unicode="&#x6b0;" horiz-adv-x="1572" d="M751 1495zM909 140zM1605 520v-209q0 -17 -18 -17q-185 0 -329 151q-85 -82 -250 -125.5t-393 -43.5q-130 0 -213.5 14t-135 43t-82.5 78q-46 70 -46 194q0 40 11 117t17 99l92 -3l-7 -77q0 -87 40 -133.5t133 -66.5q93 -21 266 -21q347 0 482 55l64 29l1 1 q-24 48 -72.5 102t-116.5 107q-77 57 -204 133q-212 122 -212 217q0 52 28 100.5t70 68.5q329 159 761 335q42 -40 42 -102q0 -52 -31.5 -97.5t-78.5 -68.5q-118 -58 -247 -109t-383 -138q142 -36 267 -119.5t201 -190.5q80 -112 80 -213l-1 -23q113 -70 247 -70 q18 0 18 -17zM724 1377q-14 70 -14 82q0 9 3 10q84 42 222 104q469 211 565 257q29 -22 29 -53q0 -44 -51 -67l-167 -73q-354 -148 -587 -260zM763 1649zM1343 1205q0 -34 -11.5 -60.5t-31 -43.5t-46 -27t-59.5 -10q-31 0 -58 10t-46 27t-30 43t-11 59q0 34 11 59.5t30 42.5 t46 27t59 10t58.5 -10t46 -27t31 -42t11.5 -58zM1258 1203q0 31 -17 47.5t-45 16.5t-46 -16.5t-18 -47.5q0 -28 16.5 -45.5t46.5 -17.5t46.5 17.5t16.5 45.5zM1195 1044zM1196 1372z" />
<glyph unicode="&#x6b3;" horiz-adv-x="907" arabic-form="initial" d="M0 276q-17 0 -17 17v209q0 17 17 17q271 0 413 17t212 51q-24 47 -72 101t-117.5 107.5t-203.5 133.5q-24 -8 -54 -8q-56 0 -98.5 39t-42.5 94q0 45 21 148.5t32 108.5q259 130 398 193t342 146q41 -41 41 -103l-4 -36q-20 -91 -108 -135q-145 -71 -277 -121.5 t-330 -106.5q152 -38 284.5 -125t212.5 -198t80 -213q0 -163 -185 -249.5t-544 -86.5zM100 1491zM401 140zM75 1405q-13 66 -13 81q0 9 3 11q121 61 332 155l385 178q29 -22 29 -53l-1 -12q-7 -31 -39.5 -49.5t-213.5 -93.5q-205 -86 -482 -217zM115 1677zM554 -246 q-42 -63 -114 -130q-82 66 -126 117q40 37 124 127q50 -55 116 -114zM517 6q-45 -68 -112 -130q-85 67 -126 116q65 61 122 128q23 -25 116 -114zM401 140zM440 -396zM418 -132z" />
<glyph unicode="&#x6b3;" horiz-adv-x="957" arabic-form="medial" d="M102 1495zM426 140zM993 502v-209q0 -17 -18 -17q-185 0 -330 152q-38 -35 -101 -65q-184 -87 -544 -87q-17 0 -17 17v209q0 17 17 17q266 0 413 17q141 16 212 51q-24 48 -72.5 102t-116.5 107q-77 57 -204 133q-212 122 -212 217q0 52 28 100.5t70 68.5 q329 159 761 335q42 -40 42 -102q0 -52 -31.5 -97.5t-78.5 -68.5q-118 -58 -247 -109t-383 -138q142 -36 267 -119.5t201 -190.5q80 -112 80 -213q0 -15 -1 -23q113 -70 247 -70q18 0 18 -17zM56 1377q-14 70 -14 82q0 9 3 10q84 42 222 104q469 211 565 257q29 -22 29 -53 q0 -44 -51 -67l-167 -73q-354 -148 -587 -260zM95 1649zM579 -247q-42 -63 -114 -130q-82 66 -126 117q40 37 124 127q50 -55 116 -114zM542 5q-45 -68 -112 -130q-85 67 -126 116q65 61 122 128q23 -25 116 -114zM426 139zM465 -397zM443 -133z" />
<glyph unicode="&#x6b3;" horiz-adv-x="1572" arabic-form="final" d="M751 1495zM909 140zM1605 520v-209q0 -17 -18 -17q-185 0 -329 151q-85 -82 -250 -125.5t-393 -43.5q-130 0 -213.5 14t-135 43t-82.5 78q-46 70 -46 194q0 40 11 117t17 99l92 -3l-7 -77q0 -87 40 -133.5t133 -66.5q93 -21 266 -21q347 0 482 55l64 29l1 1 q-24 48 -72.5 102t-116.5 107q-77 57 -204 133q-212 122 -212 217q0 52 28 100.5t70 68.5q329 159 761 335q42 -40 42 -102q0 -52 -31.5 -97.5t-78.5 -68.5q-118 -58 -247 -109t-383 -138q142 -36 267 -119.5t201 -190.5q80 -112 80 -213l-1 -23q113 -70 247 -70 q18 0 18 -17zM724 1377q-14 70 -14 82q0 9 3 10q84 42 222 104q469 211 565 257q29 -22 29 -53q0 -44 -51 -67l-167 -73q-354 -148 -587 -260zM763 1649zM1062 -246q-42 -63 -114 -130q-82 66 -126 117q40 37 124 127q50 -55 116 -114zM1025 6q-45 -68 -112 -130 q-85 67 -126 116q65 61 122 128q23 -25 116 -114zM909 140zM948 -396zM926 -132z" />
<glyph unicode="&#x6b4;" horiz-adv-x="907" d="M0 276q-17 0 -17 17v209q0 17 17 17q271 0 413 17t212 51q-24 47 -72 101t-117.5 107.5t-203.5 133.5q-24 -8 -54 -8q-56 0 -98.5 39t-42.5 94q0 45 21 148.5t32 108.5q259 130 398 193t342 146q41 -41 41 -103l-4 -36q-20 -91 -108 -135q-145 -71 -277 -121.5 t-330 -106.5q152 -38 284.5 -125t212.5 -198t80 -213q0 -163 -185 -249.5t-544 -86.5zM100 1491zM401 140zM75 1405q-13 66 -13 81q0 9 3 11q121 61 332 155l385 178q29 -22 29 -53l-1 -12q-7 -31 -39.5 -49.5t-213.5 -93.5q-205 -86 -482 -217zM115 1677zM646 1845 q-65 52 -95 88q26 23 93 97l87 -87q-49 -65 -85 -98zM460 1762q-66 52 -94 88q46 42 92 96l87 -86q-44 -61 -85 -98zM512 1966q-63 45 -91 80q34 30 86 86q21 -28 86 -86q-51 -58 -81 -80z" />
<glyph unicode="&#x6b4;" horiz-adv-x="957" d="M102 1495zM426 140zM993 502v-209q0 -17 -18 -17q-185 0 -330 152q-38 -35 -101 -65q-184 -87 -544 -87q-17 0 -17 17v209q0 17 17 17q266 0 413 17q141 16 212 51q-24 48 -72.5 102t-116.5 107q-77 57 -204 133q-212 122 -212 217q0 52 28 100.5t70 68.5 q329 159 761 335q42 -40 42 -102q0 -52 -31.5 -97.5t-78.5 -68.5q-118 -58 -247 -109t-383 -138q142 -36 267 -119.5t201 -190.5q80 -112 80 -213q0 -15 -1 -23q113 -70 247 -70q18 0 18 -17zM56 1377q-14 70 -14 82q0 9 3 10q84 42 222 104q469 211 565 257q29 -22 29 -53 q0 -44 -51 -67l-167 -73q-354 -148 -587 -260zM95 1649zM696 1845q-65 52 -95 88q26 23 93 97l87 -87q-49 -65 -85 -98zM510 1762q-66 52 -94 88q46 42 92 96l87 -86q-44 -61 -85 -98zM562 1966q-63 45 -91 80q34 30 86 86q21 -28 86 -86q-51 -58 -81 -80z" />
<glyph unicode="&#x6b4;" horiz-adv-x="1572" d="M751 1495zM909 140zM1605 520v-209q0 -17 -18 -17q-185 0 -329 151q-85 -82 -250 -125.5t-393 -43.5q-130 0 -213.5 14t-135 43t-82.5 78q-46 70 -46 194q0 40 11 117t17 99l92 -3l-7 -77q0 -87 40 -133.5t133 -66.5q93 -21 266 -21q347 0 482 55l64 29l1 1 q-24 48 -72.5 102t-116.5 107q-77 57 -204 133q-212 122 -212 217q0 52 28 100.5t70 68.5q329 159 761 335q42 -40 42 -102q0 -52 -31.5 -97.5t-78.5 -68.5q-118 -58 -247 -109t-383 -138q142 -36 267 -119.5t201 -190.5q80 -112 80 -213l-1 -23q113 -70 247 -70 q18 0 18 -17zM724 1377q-14 70 -14 82q0 9 3 10q84 42 222 104q469 211 565 257q29 -22 29 -53q0 -44 -51 -67l-167 -73q-354 -148 -587 -260zM763 1649zM1364 1845q-65 52 -95 88q26 23 93 97l87 -87q-49 -65 -85 -98zM1178 1762q-66 52 -94 88q46 42 92 96l87 -86 q-44 -61 -85 -98zM1230 1966q-63 45 -91 80q34 30 86 86q21 -28 86 -86q-51 -58 -81 -80z" />
<glyph unicode="&#x6b5;" horiz-adv-x="445" d="M56 1515l243 135q7 -338 16 -599.5t9 -449.5q0 -141 -80 -261q-20 -30 -87 -47t-157 -17q-17 0 -17 17v209q0 17 17 17q92 0 216 46q-16 121 -34 239t-126 711zM162 1700zM236 140zM259 2055q17 -2 30.5 -16.5t13.5 -41.5q0 -13 -7.5 -27.5t-21 -40.5t-32.5 -67.5 t-41 -108.5q-38 -23 -100 -33q-36 78 -73 152t-88 143l32 8l31 5q31 0 53.5 -20t52 -71.5t56.5 -116.5q11 58 42 133.5t52 101.5zM162 1700zM135 2085z" />
<glyph unicode="&#x6b5;" horiz-adv-x="501" d="M0 276q-17 0 -17 17v209q0 17 17 17q98 0 191 38q-62 390 -123 958l244 135l-4 -209q-11 -393 -14 -687v-178q46 -31 99.5 -44t124.5 -13q18 0 18 -17v-209q0 -17 -18 -17q-171 0 -251 72q-47 -29 -117 -50.5t-150 -21.5zM162 1700zM251 140zM259 2055q17 -2 30.5 -16.5 t13.5 -41.5q0 -13 -7.5 -27.5t-21 -40.5t-32.5 -67.5t-41 -108.5q-38 -23 -100 -33q-36 78 -73 152t-88 143l32 8l31 5q31 0 53.5 -20t52 -71.5t56.5 -116.5q11 58 42 133.5t52 101.5zM162 1700zM135 2085z" />
<glyph unicode="&#x6b5;" horiz-adv-x="1264" d="M1010 166l-45 239q-19 95 -92 521l-79 476l-3 39q0 88 65 148.5t155 60.5q38 -138 82 -252l-65 -49l25 -288l51 -489v-2q82 -51 177 -51q18 0 18 -17v-209q0 -17 -18 -17q-39 0 -77 9.5t-81 33.5l1 -76q0 -137 -81.5 -254t-221.5 -182.5t-307 -65.5q-184 0 -280 108 t-96 313q0 103 51 296l90 -22q-28 -93 -28 -163q0 -146 66 -217.5t202 -71.5q160 0 271.5 41t219.5 141zM511 1245zM68 -261zM881 1720zM978 2075q17 -2 30.5 -16.5t13.5 -41.5q0 -13 -7.5 -27.5t-21 -40.5t-32.5 -67.5t-41 -108.5q-38 -23 -100 -33q-36 78 -73 152t-88 143 l32 8l31 5q31 0 53.5 -20t52 -71.5t56.5 -116.5q11 58 42 133.5t52 101.5zM881 1720zM854 2105z" />
<glyph unicode="&#x6b6;" horiz-adv-x="445" d="M56 1515l243 135q7 -338 16 -599.5t9 -449.5q0 -141 -80 -261q-20 -30 -87 -47t-157 -17q-17 0 -17 17v209q0 17 17 17q92 0 216 46q-16 121 -34 239t-126 711zM162 1700zM236 140zM305 1883q-49 -71 -143 -163q-101 82 -158 147q94 91 155 163q44 -50 146 -147z M162 1700zM160 2080z" />
<glyph unicode="&#x6b6;" horiz-adv-x="501" d="M0 276q-17 0 -17 17v209q0 17 17 17q98 0 191 38q-62 390 -123 958l244 135l-4 -209q-11 -393 -14 -687v-178q46 -31 99.5 -44t124.5 -13q18 0 18 -17v-209q0 -17 -18 -17q-171 0 -251 72q-47 -29 -117 -50.5t-150 -21.5zM162 1700zM251 140zM305 1883q-49 -71 -143 -163 q-101 82 -158 147q94 91 155 163q44 -50 146 -147zM162 1700zM160 2080z" />
<glyph unicode="&#x6b6;" horiz-adv-x="1264" d="M1010 166l-45 239q-19 95 -92 521l-79 476l-3 39q0 88 65 148.5t155 60.5q38 -138 82 -252l-65 -49l25 -288l51 -489v-2q82 -51 177 -51q18 0 18 -17v-209q0 -17 -18 -17q-39 0 -77 9.5t-81 33.5l1 -76q0 -137 -81.5 -254t-221.5 -182.5t-307 -65.5q-184 0 -280 108 t-96 313q0 103 51 296l90 -22q-28 -93 -28 -163q0 -146 66 -217.5t202 -71.5q160 0 271.5 41t219.5 141zM511 1245zM68 -261zM881 1720zM1024 1903q-49 -71 -143 -163q-101 82 -158 147q94 91 155 163q44 -50 146 -147zM881 1720zM879 2100z" />
<glyph unicode="&#x6b7;" horiz-adv-x="445" d="M56 1515l243 135q7 -338 16 -599.5t9 -449.5q0 -141 -80 -261q-20 -30 -87 -47t-157 -17q-17 0 -17 17v209q0 17 17 17q92 0 216 46q-16 121 -34 239t-126 711zM162 1700zM236 140zM151 1812q-32 -50 -89 -102q-66 51 -100 91l53 53l46 48q31 -36 90 -90zM352 1833 q-32 -50 -89 -102q-56 43 -100 91q50 46 97 101zM240 1936l-29 -32q-29 -34 -51 -50q-61 48 -89 83q31 26 59 56l25 26q32 -40 85 -83zM155 2049zM162 1700z" />
<glyph unicode="&#x6b7;" horiz-adv-x="501" d="M0 276q-17 0 -17 17v209q0 17 17 17q98 0 191 38q-62 390 -123 958l244 135l-4 -209q-11 -393 -14 -687v-178q46 -31 99.5 -44t124.5 -13q18 0 18 -17v-209q0 -17 -18 -17q-171 0 -251 72q-47 -29 -117 -50.5t-150 -21.5zM162 1700zM251 140zM151 1812q-32 -50 -89 -102 q-66 51 -100 91l53 53l46 48q31 -36 90 -90zM352 1833q-32 -50 -89 -102q-56 43 -100 91q50 46 97 101zM240 1936l-29 -32q-29 -34 -51 -50q-61 48 -89 83q31 26 59 56l25 26q32 -40 85 -83zM155 2049zM162 1700z" />
<glyph unicode="&#x6b7;" horiz-adv-x="1264" d="M1010 166l-45 239q-19 95 -92 521l-79 476l-3 39q0 88 65 148.5t155 60.5q38 -138 82 -252l-65 -49l25 -288l51 -489v-2q82 -51 177 -51q18 0 18 -17v-209q0 -17 -18 -17q-39 0 -77 9.5t-81 33.5l1 -76q0 -137 -81.5 -254t-221.5 -182.5t-307 -65.5q-184 0 -280 108 t-96 313q0 103 51 296l90 -22q-28 -93 -28 -163q0 -146 66 -217.5t202 -71.5q160 0 271.5 41t219.5 141zM511 1245zM68 -261zM881 1720zM870 1831q-32 -50 -89 -102q-66 51 -100 91l53 53l46 48q31 -36 90 -90zM1071 1852q-32 -50 -89 -102q-56 43 -100 91q50 46 97 101z M959 1955l-29 -32q-29 -34 -51 -50q-61 48 -89 83q31 26 59 56l25 26q32 -40 85 -83zM874 2068zM881 1719z" />
<glyph unicode="&#x6b8;" horiz-adv-x="669" d="M257 1515l244 135q6 -338 15 -599.5t9 -449.5q0 -69 -17 -128t-63 -133q-43 -64 -445 -64q-17 0 -17 17v209q0 17 17 17q170 0 258.5 11t159.5 36q-30 223 -68 436t-93 513zM235 39q-32 -50 -89 -102q-66 51 -100 91l53 53l46 48q31 -36 90 -90zM436 60q-32 -50 -89 -102 q-56 43 -100 91q50 46 97 101zM340 -85l-29 -32q-29 -34 -51 -50q-61 48 -89 83q31 26 59 56l25 26q32 -40 85 -83zM362 1720zM261 -187z" />
<glyph unicode="&#x6b8;" horiz-adv-x="501" d="M0 276q-17 0 -17 17v209q0 17 17 17q98 0 191 38q-62 390 -123 958l244 135l-4 -209q-11 -393 -14 -687v-178q46 -31 99.5 -44t124.5 -13q18 0 18 -17v-209q0 -17 -18 -17q-171 0 -251 72q-47 -29 -117 -50.5t-150 -21.5zM162 1700zM251 140zM242 29q-32 -50 -89 -102 q-66 51 -100 91l53 53l46 48q31 -36 90 -90zM443 50q-32 -50 -89 -102q-56 43 -100 91q50 46 97 101zM347 -95l-29 -32q-29 -34 -51 -50q-61 48 -89 83q31 26 59 56l25 26q32 -40 85 -83zM251 170zM267 -197zM251 140z" />
<glyph unicode="&#x6b8;" horiz-adv-x="1264" d="M1010 166l-45 239q-19 95 -92 521l-79 476l-3 39q0 88 65 148.5t155 60.5q38 -138 82 -252l-65 -49l25 -288l51 -489v-2q82 -51 177 -51q18 0 18 -17v-209q0 -17 -18 -17q-39 0 -77 9.5t-81 33.5l1 -76q0 -137 -81.5 -254t-221.5 -182.5t-307 -65.5q-184 0 -280 108 t-96 313q0 103 51 296l90 -22q-28 -93 -28 -163q0 -146 66 -217.5t202 -71.5q160 0 271.5 41t219.5 141zM511 1245zM68 -261zM881 1720zM995 -324q-32 -50 -89 -102q-66 51 -100 91l53 53l46 48q31 -36 90 -90zM1196 -303q-32 -50 -89 -102q-56 43 -100 91q50 46 97 101z M1100 -448l-29 -32q-29 -34 -51 -50q-61 48 -89 83q31 26 59 56l25 26q32 -40 85 -83zM1004 -183zM1020 -550zM1004 -213z" />
<glyph unicode="&#x6b9;" horiz-adv-x="564" d="M0 276q-17 0 -17 17v209q0 17 17 17q102 0 205 16.5t160 41.5q-27 60 -54 108.5t-48.5 88t-35 71.5t-13.5 59q0 50 55.5 110t130.5 98l26 -134q59 -275 59 -342q0 -47 -23.5 -115t-56.5 -132q-186 -113 -405 -113zM284 1212zM260 140zM407 -27q-47 -68 -144 -163 q-108 89 -158 147q81 79 155 163q51 -59 147 -147zM260 170zM263 -210zM260 140zM263 -35zM427 1395q-49 -71 -143 -163q-101 82 -158 147q94 91 155 163q44 -50 146 -147zM284 1212zM282 1592z" />
<glyph unicode="&#x6b9;" horiz-adv-x="599" d="M0 276q-17 0 -17 17v209q0 17 17 17q132 0 201 48q20 14 37 40.5t56 106.5q33 67 57 82t58 15q49 0 82 -29l-91 -210q98 -53 216 -53q17 0 17 -17v-209q0 -17 -17 -17q-155 0 -296 141q-24 -41 -46 -66q-28 -32 -98.5 -53.5t-175.5 -21.5zM303 912zM357 140zM504 -27 q-47 -68 -144 -163q-108 89 -158 147q81 79 155 163q51 -59 147 -147zM357 170zM360 -210zM357 140zM360 -35zM446 1096q-49 -71 -143 -163q-101 82 -158 147q94 91 155 163q44 -50 146 -147zM303 913zM301 1293z" />
<glyph unicode="&#x6b9;" horiz-adv-x="1227" d="M1262 293q0 -17 -18 -17q-59 0 -115 22l2 -55q0 -136 -82 -253t-224 -183t-310 -66q-184 0 -280 108t-96 313q0 103 51 296l90 -22q-28 -93 -28 -163q0 -146 66 -217.5t202 -71.5q162 0 275.5 41.5t221.5 140.5l-58 115q-71 130 -93 180t-22 79q0 87 50 153t157 117 q8 -65 41 -255q68 -36 152 -36q18 0 18 -17v-209zM558 810zM69 -261zM701 993q-49 -71 -143 -163q-101 82 -158 147q94 91 155 163q44 -50 146 -147zM558 810zM556 1190zM1116 -342q-47 -68 -144 -163q-108 89 -158 147q81 79 155 163q51 -59 147 -147zM969 -145zM972 -525z M969 -175zM972 -350z" />
<glyph unicode="&#x6bc;" horiz-adv-x="590" d="M0 276q-17 0 -17 17v209q0 17 17 17q102 0 205 16.5t160 41.5q-27 60 -54 108.5t-48.5 88t-35 71.5t-13.5 59q0 50 55.5 110t130.5 98l26 -134q59 -275 59 -342q0 -47 -23.5 -115t-56.5 -132q-186 -113 -405 -113zM284 1212zM260 140zM386 258q0 -34 -11.5 -60.5 t-31 -43.5t-46 -27t-59.5 -10q-31 0 -58 10t-46 27t-30 43t-11 59q0 34 11 59.5t30 42.5t46 27t59 10t58.5 -10t46 -27t31 -42t11.5 -58zM301 256q0 31 -17 47.5t-45 16.5t-46 -16.5t-18 -47.5q0 -28 16.5 -45.5t46.5 -17.5t46.5 17.5t16.5 45.5zM238 97zM239 425zM427 1395 q-49 -71 -143 -163q-101 82 -158 147q94 91 155 163q44 -50 146 -147zM284 1212zM282 1592z" />
<glyph unicode="&#x6bc;" horiz-adv-x="738" d="M0 276q-17 0 -17 17v209q0 17 17 17q165 0 223.5 9t94.5 27t55 45t61 113q33 67 57 82.5t58 15.5q50 0 81 -29q-55 -134 -90 -210q98 -53 216 -53q17 0 17 -17v-209q0 -17 -17 -17q-156 0 -297 141q-40 -66 -66.5 -82t-87 -30t-140 -21.5t-165.5 -7.5zM443 912zM387 140z M586 1095q-49 -71 -143 -163q-101 82 -158 147q94 91 155 163q44 -50 146 -147zM443 912zM441 1292zM466 258q0 -34 -11.5 -60.5t-31 -43.5t-46 -27t-59.5 -10q-31 0 -58 10t-46 27t-30 43t-11 59q0 34 11 59.5t30 42.5t46 27t59 10t58.5 -10t46 -27t31 -42t11.5 -58z M381 256q0 31 -17 47.5t-45 16.5t-46 -16.5t-18 -47.5q0 -28 16.5 -45.5t46.5 -17.5t46.5 17.5t16.5 45.5zM318 97zM319 425z" />
<glyph unicode="&#x6bc;" horiz-adv-x="1227" d="M1262 293q0 -17 -18 -17q-59 0 -115 22l2 -55q0 -136 -82 -253t-224 -183t-310 -66q-184 0 -280 108t-96 313q0 103 51 296l90 -22q-28 -93 -28 -163q0 -146 66 -217.5t202 -71.5q162 0 275.5 41.5t221.5 140.5l-58 115q-71 130 -93 180t-22 79q0 87 50 153t157 117 q8 -65 41 -255q68 -36 152 -36q18 0 18 -17v-209zM558 810zM69 -261zM701 993q-49 -71 -143 -163q-101 82 -158 147q94 91 155 163q44 -50 146 -147zM558 810zM556 1190zM987 -243q0 -34 -11.5 -60.5t-31 -43.5t-46 -27t-59.5 -10q-31 0 -58 10t-46 27t-30 43t-11 59 q0 34 11 59.5t30 42.5t46 27t59 10t58.5 -10t46 -27t31 -42t11.5 -58zM902 -245q0 31 -17 47.5t-45 16.5t-46 -16.5t-18 -47.5q0 -28 16.5 -45.5t46.5 -17.5t46.5 17.5t16.5 45.5zM839 -404zM840 -76z" />
<glyph unicode="&#x6bd;" horiz-adv-x="1227" d="M1262 293q0 -17 -18 -17q-59 0 -115 22l2 -55q0 -136 -82 -253t-224 -183t-310 -66q-184 0 -280 108t-96 313q0 103 51 296l90 -22q-28 -93 -28 -163q0 -146 66 -217.5t202 -71.5q162 0 275.5 41.5t221.5 140.5l-58 115q-71 130 -93 180t-22 79q0 87 50 153t157 117 q8 -65 41 -255q68 -36 152 -36q18 0 18 -17v-209zM558 810zM69 -261zM543 933q-60 -83 -125 -142q-89 67 -140 128l73 73l66 68q36 -43 126 -127zM827 964q-53 -77 -124 -144q-85 67 -141 128q62 56 137 142q25 -27 128 -126zM667 1111q-86 -94 -112 -115q-85 69 -124 116 q84 76 118 115q45 -53 118 -116zM549 1277zM558 810z" />
<glyph unicode="&#x6bf;" horiz-adv-x="1329" d="M0 276q-17 0 -17 17v209q0 17 17 17q226 0 305.5 8.5t150.5 29.5q177 53 249 68l-39 22l-73 47q-65 44 -109.5 62.5t-88.5 18.5q-61 0 -117 -18t-125 -62q-18 18 -32.5 54t-14.5 69q0 88 80 144.5t202 56.5q65 0 125.5 -22.5t136.5 -73.5q92 -62 169.5 -101t183 -65.5 t256.5 -26.5l-105 -218q-138 12 -207 27l-65 -15q-103 -31 -245 -116q-64 -39 -122.5 -65t-112.5 -39.5t-131.5 -20.5t-270.5 -7zM590 1119zM654 140zM671 -36q90 84 126 127l66 -68l73 -74q-49 -57 -140 -128q-76 71 -125 143zM387 -6l128 126q68 -78 137 -142 q-56 -61 -141 -128q-81 76 -124 144zM533 -195q74 63 114 110q41 -57 108 -121q-48 -58 -110 -103q-36 27 -112 114zM645 -329zM655 140zM651 -46zM733 1302q-49 -71 -143 -163q-101 82 -158 147q94 91 155 163q44 -50 146 -147zM590 1119zM588 1499z" />
<glyph unicode="&#x6bf;" horiz-adv-x="1346" d="M0 276q-17 0 -17 17v209q0 17 17 17q226 0 305.5 8.5t150.5 29.5q177 53 249 68l-39 22l-73 47q-65 44 -109.5 62.5t-88.5 18.5q-61 0 -117 -18t-125 -62q-18 18 -32.5 54t-14.5 69q0 88 80 144.5t202 56.5q65 0 125.5 -22.5t136.5 -73.5q92 -62 169.5 -101t183 -65.5 t256.5 -26.5l-99 -205l51 -4l152 -2q17 0 17 -17v-209q0 -17 -17 -17q-173 0 -293 30t-120 70q0 36 27 157l-30 6l-65 -15q-103 -31 -245 -116q-64 -39 -122.5 -65t-112.5 -39.5t-131.5 -20.5t-270.5 -7zM592 1119zM652 140zM668 -36q90 84 126 127l66 -68l73 -74 q-49 -57 -140 -128q-76 71 -125 143zM384 -6l128 126q68 -78 137 -142q-56 -61 -141 -128q-81 76 -124 144zM530 -195q74 63 114 110q41 -57 108 -121q-48 -58 -110 -103q-36 27 -112 114zM642 -329zM652 140zM648 -46zM736 1302q-49 -71 -143 -163q-101 82 -158 147 q94 91 155 163q44 -50 146 -147zM593 1119zM591 1499z" />
<glyph unicode="&#x6bf;" horiz-adv-x="1483" d="M420 775q-56 0 -103 -14t-131 -66q-18 18 -32.5 54t-14.5 69q0 91 72.5 146t200.5 55q68 0 141 -17t187 -58q110 -41 193.5 -58.5t162.5 -17.5h41l146 3l-84 -230q-49 -7 -151 -7h-14l15 -26q25 -39 61.5 -57.5t101.5 -25t288 -6.5q18 0 18 -17v-209q0 -17 -18 -17 q-198 0 -300 30t-163.5 102t-112.5 232q-161 -29 -305 -99.5t-221.5 -164.5t-77.5 -197q0 -140 115.5 -211t333.5 -71q148 0 392 56l28 -88l-143 -82q-207 -121 -289 -121q-269 0 -405 127.5t-136 367.5q0 125 56 231.5t156.5 190.5t222.5 133l-114 41q-61 22 -117 22z M700 1119zM146 -261zM750 228zM770 239q90 84 126 127l66 -68l73 -74q-49 -57 -140 -128q-76 71 -125 143zM486 269l128 126q68 -78 137 -142q-56 -61 -141 -128q-81 76 -124 144zM632 80q74 63 114 110q41 -57 108 -121q-48 -58 -110 -103q-36 27 -112 114zM744 -54z M754 415zM750 229zM844 1302q-49 -71 -143 -163q-101 82 -158 147q94 91 155 163q44 -50 146 -147zM701 1119zM699 1499z" />
<glyph unicode="&#x6c2;" horiz-adv-x="564" d="M390 -127q-46 5 -74.5 36.5t-28.5 75.5q0 137 135 313l62 -38q-73 -100 -73 -183q0 -32 22 -52t72 -35q-16 -34 -38 -60t-44.5 -41.5t-32.5 -15.5zM0 276q-17 0 -17 17v209q0 17 17 17q102 0 205 16.5t160 41.5q-27 60 -54 108.5t-48.5 88t-35 71.5t-13.5 59 q0 50 55.5 110t130.5 98l26 -134q59 -275 59 -342q0 -47 -23.5 -115t-56.5 -132q-186 -113 -405 -113zM323 1492v7q0 29 -28 29q-54 0 -95 -77q45 -41 116 -41q49 0 116 16l-10 -123q-113 -30 -178 -56t-140 -65l-6 113q61 39 87 50q-46 25 -61.5 48t-15.5 54 q0 50 27.5 96.5t72.5 76t87 29.5q45 0 70 -27.5t25 -69.5q0 -18 -7.5 -39.5t-13.5 -31.5zM251 1699zM315 -241z" />
<glyph unicode="&#x6c2;" horiz-adv-x="844" d="M0 276q-17 0 -17 17v209q0 17 17 17q44 0 83 24t56 65t51 68t74 27q46 0 86 -36q-30 -148 -30 -254q0 -105 28.5 -190.5t98.5 -186.5q18 136 66.5 249t131 173.5t212.5 60.5q22 0 22 -20v-201q0 -22 -22 -22q-175 0 -251 -33q-21 -80 -29.5 -145.5t-8.5 -175.5l-168 -111 q-116 83 -199.5 220.5t-88.5 266.5q-47 -22 -112 -22zM524 803zM277 -269zM583 1103v7q0 29 -28 29q-54 0 -95 -77q45 -41 116 -41q49 0 116 16l-10 -123q-113 -30 -178 -56t-140 -65l-6 113q61 39 87 50q-46 25 -61.5 48t-15.5 54q0 50 27.5 96.5t72.5 76t87 29.5 q45 0 70 -27.5t25 -69.5q0 -18 -7.5 -39.5t-13.5 -31.5zM505 1310zM524 803z" />
<glyph unicode="&#x6c2;" horiz-adv-x="882" d="M895 276q-84 0 -153.5 26t-119.5 75q-74 72 -94.5 86t-43.5 14q-61 0 -129 -50.5t-149 -150.5l-67 55q120 204 225 310.5t188 106.5q40 0 76 -26.5t84 -87.5q46 -60 90.5 -87.5t92.5 -27.5q22 0 22 -20v-201q0 -22 -22 -22zM470 848zM582 140zM529 1148v7q0 29 -28 29 q-54 0 -95 -77q45 -41 116 -41q49 0 116 16l-10 -123q-113 -30 -178 -56t-140 -65l-6 113q61 39 87 50q-46 25 -61.5 48t-15.5 54q0 50 27.5 96.5t72.5 76t87 29.5q45 0 70 -27.5t25 -69.5q0 -18 -7.5 -39.5t-13.5 -31.5zM451 1355zM470 848z" />
<glyph unicode="&#x6c3;" horiz-adv-x="924" d="M937 276q-84 0 -153.5 26t-119.5 75q-74 72 -94.5 86t-43.5 14q-61 0 -129 -50.5t-149 -150.5l-67 55q120 204 225 310.5t188 106.5q40 0 76 -26.5t84 -87.5q46 -60 90.5 -87.5t92.5 -27.5q22 0 22 -20v-201q0 -22 -22 -22zM512 848zM624 140zM507 992q-51 -75 -125 -144 q-88 69 -140 129l73 74l65 68q38 -44 127 -127zM781 1022q-53 -77 -124 -144q-85 67 -141 128q75 69 137 143q37 -39 128 -127zM513 1199zM512 848z" />
<glyph unicode="&#x6c4;" horiz-adv-x="1000" d="M1017 276h-127q-25 -99 -75.5 -193t-118.5 -166.5t-149 -116.5t-167 -44q-22 0 -59 16t-79 40.5t-83.5 54t-73.5 56.5l33 85q66 -17 122.5 -22.5t101.5 -5.5q66 0 128 23.5t116 64t99 95t78 116.5q-60 2 -118 7t-112 14q-63 9 -112.5 30t-83 55.5t-51.5 83.5t-18 115 q0 88 25.5 171.5t67.5 149t95.5 105.5t109.5 40q46 0 87.5 -22t77.5 -59.5t66 -89t52.5 -110.5t37.5 -123t21 -127h109q8 0 12.5 -5t4.5 -12v-209q0 -17 -17 -17zM520 806q-33 0 -59.5 -12.5t-45 -32t-29 -43.5t-10.5 -46q0 -52 48 -89t154 -51q32 -5 84 -7.5t111 -3.5 q-15 51 -38.5 102t-55 91.5t-71.5 66t-88 25.5zM390 -304zM546 1150zM508 66q0 -34 -11.5 -60.5t-31 -43.5t-46 -27t-59.5 -10q-31 0 -58 10t-46 27t-30 43t-11 59q0 34 11 59.5t30 42.5t46 27t59 10t58.5 -10t46 -27t31 -42t11.5 -58zM423 64q0 31 -17 47.5t-45 16.5 t-46 -16.5t-18 -47.5q0 -28 16.5 -45.5t46.5 -17.5t46.5 17.5t16.5 45.5zM360 -95zM361 233z" />
<glyph unicode="&#x6ca;" horiz-adv-x="1025" d="M1043 276h-126q-53 -191 -187.5 -304.5t-303.5 -113.5q-39 0 -128.5 51t-166.5 116l33 85q109 -28 224 -28q130 0 234.5 53.5t161.5 143.5q-176 10 -254.5 26.5t-132.5 53.5t-78.5 92t-24.5 133q0 112 43 221.5t113 177t142 67.5q122 0 221 -154t121 -377h109 q17 0 17 -17v-209q0 -17 -17 -17zM546 806q-60 0 -102 -42t-42 -92q0 -113 202 -140q44 -6 196 -12q-43 139 -109 212.5t-145 73.5zM581 1150zM422 -242zM571 1440zM576 1294q-51 -75 -125 -144q-88 69 -140 129l73 74l65 68q38 -44 127 -127zM850 1324q-53 -77 -124 -144 q-85 67 -141 128q75 69 137 143q37 -39 128 -127zM582 1501zM581 1150z" />
</font>
</defs>
</svg>
