<?xml version="1.0" standalone="no"?>
<!DOCTYPE svg PUBLIC "-//W3C//DTD SVG 1.1//EN" "http://www.w3.org/Graphics/SVG/1.1/DTD/svg11.dtd" >
<svg xmlns="http://www.w3.org/2000/svg" xmlns:xlink="http://www.w3.org/1999/xlink" version="1.1">
<metadata></metadata>
<defs>
<font id="qahiri-regularregular" horiz-adv-x="655" >
<font-face units-per-em="2048" ascent="1638" descent="-410" />
<missing-glyph horiz-adv-x="500" />
<glyph horiz-adv-x="0" />
<glyph horiz-adv-x="682" />
<glyph unicode="&#xd;" horiz-adv-x="681" />
<glyph unicode=" "  horiz-adv-x="500" />
<glyph unicode="&#x09;" horiz-adv-x="500" />
<glyph unicode="&#xa0;" horiz-adv-x="500" />
<glyph unicode="!" horiz-adv-x="550" d="M147 111q0 76 37 106q39 31 90 31t90 -31q37 -30 37 -106q0 -74 -37 -107q-38 -33 -90 -33t-90 33q-37 33 -37 107zM166 1462h219l-51 -1050h-117z" />
<glyph unicode="," horiz-adv-x="548" d="M84 -264q25 103 58 256q27 126 44 246h193l14 -23q-26 -106 -77 -239q-46 -120 -99 -240h-133z" />
<glyph unicode="-" horiz-adv-x="659" d="M82 469v160h496v-160h-496z" />
<glyph unicode="." horiz-adv-x="548" d="M147 111q0 76 37 106q39 31 88 31q53 0 92 -31q37 -30 37 -106q0 -74 -37 -107q-38 -33 -92 -33q-51 0 -88 33t-37 107z" />
<glyph unicode="0" horiz-adv-x="1171" d="M100 733q0 238 48 406t155 257t281 89q244 0 366 -198q121 -197 121 -554q0 -236 -49 -404q-49 -169 -156 -259q-106 -90 -282 -90q-248 0 -366 199t-118 554zM281 733q0 -302 68 -450q69 -150 235 -150q163 0 234 149q71 150 71 451q0 298 -71 449q-70 149 -234 149 q-166 0 -235 -149q-68 -148 -68 -449z" />
<glyph unicode="1" horiz-adv-x="1171" d="M182 1155l396 307h149v-1462h-176v1022q0 71 2 141q2 55 6 111q-35 -35 -59 -55q-8 -7 -18.5 -16t-25 -21.5t-24.5 -20.5l-156 -127z" />
<glyph unicode="2" horiz-adv-x="1171" d="M98 0v150l383 387q111 110 187 196q72 81 114 169q39 82 39 181q0 122 -71 184t-187 62q-107 0 -187 -37q-86 -40 -165 -102l-96 121q86 73 197 122q112 50 251 50q205 0 324 -104t119 -285q0 -111 -48 -215q-46 -99 -131 -198q-84 -97 -196 -208l-305 -301v-8h739v-164 h-967z" />
<glyph unicode="3" horiz-adv-x="1171" d="M92 59v168q89 -44 199 -70q109 -26 205 -26q195 0 283 77q87 76 87 212q0 138 -107 197q-110 61 -302 61h-142v153h144q181 0 273 76q93 77 93 201q0 107 -71 165t-195 58q-118 0 -203 -35q-78 -32 -166 -88l-90 123q79 62 194 107t263 45q229 0 341 -103t112 -260 q0 -148 -82 -234q-83 -88 -221 -116v-8q177 -21 262 -111q86 -91 86 -235q0 -128 -60 -227t-183 -154t-318 -55q-120 0 -213 17q-102 19 -189 62z" />
<glyph unicode="4" horiz-adv-x="1171" d="M43 332v153l688 985h187v-976h212v-162h-212v-332h-175v332h-700zM219 494h524v460q0 99 5 182q5 75 6 142h-9q-18 -44 -40 -84q-22 -42 -48 -76z" />
<glyph unicode="5" horiz-adv-x="1171" d="M129 59v170q72 -44 179 -70t202 -26q161 0 261 77q99 76 99 239q0 144 -88 220t-278 76q-61 0 -131 -10q-86 -12 -119 -20l-90 57l55 690h733v-164h-579l-35 -424q66 12 94 15q64 8 131 8q225 0 359 -113q133 -112 133 -317q0 -226 -145 -357q-143 -130 -402 -130 q-118 0 -212 20q-103 22 -167 59z" />
<glyph unicode="6" horiz-adv-x="1171" d="M113 625q0 157 27 310q26 146 101 276q72 124 203 198t338 74q49 0 96 -4q52 -4 85 -15v-153q-38 12 -83 18q-47 6 -94 6q-139 0 -235 -47q-95 -47 -149 -129q-54 -83 -78 -188q-25 -112 -31 -228h12q47 72 131 122q85 50 215 50q191 0 307 -115q117 -115 117 -329 q0 -229 -126 -360t-339 -131q-140 0 -252 69q-113 69 -179 213t-66 363zM295 506q0 -87 35 -175q34 -86 104 -144q68 -56 174 -56q129 0 209 83t80 257q0 138 -71 221q-70 82 -212 82q-97 0 -168 -40t-111 -101t-40 -127z" />
<glyph unicode="7" horiz-adv-x="1171" d="M90 1298v164h981v-139l-594 -1323h-198l600 1298h-789z" />
<glyph unicode="8" horiz-adv-x="1171" d="M100 373q0 101 42 174q42 74 112 127q68 52 149 90q-106 61 -181 148t-75 223q0 111 58 189q59 79 155 118q100 41 224 41q192 0 315 -90t123 -260q0 -87 -38 -154q-38 -66 -101 -116q-64 -50 -140 -89q93 -45 164 -97q75 -55 118 -126q44 -73 44 -172q0 -184 -130 -292 q-129 -107 -349 -107q-236 0 -363 103t-127 290zM276 371q0 -107 76 -177q77 -71 234 -71q148 0 228 71q79 70 79 183q0 107 -84 177q-87 73 -223 124l-33 12q-136 -57 -206 -132q-71 -76 -71 -187zM324 1126q0 -77 35 -127q36 -51 98 -87q54 -32 135 -68q107 45 179 108 q73 64 73 174q0 103 -72 157t-190 54q-114 0 -186 -54t-72 -157z" />
<glyph unicode="9" horiz-adv-x="1171" d="M102 989q0 152 59 264q58 110 163 170t245 60q139 0 252 -71q112 -70 178 -213t66 -361q0 -152 -28 -311q-26 -148 -100 -276q-72 -124 -205 -198q-131 -73 -339 -73q-35 0 -95 5q-55 5 -89 15v154q79 -27 180 -27q143 0 237 47q92 46 148 128q57 83 80 188 q25 111 29 227h-13q-47 -72 -130 -120q-86 -50 -218 -50q-188 0 -304 116t-116 326zM281 991q0 -140 68 -220q69 -81 212 -81q98 0 170 39t112 100t40 127q0 87 -35 174q-35 86 -105 144q-69 57 -174 57q-127 0 -208 -84q-80 -83 -80 -256z" />
<glyph unicode=":" horiz-adv-x="548" d="M147 111q0 76 37 106q39 31 88 31q53 0 92 -31q37 -30 37 -106q0 -74 -37 -107q-38 -33 -92 -33q-51 0 -88 33t-37 107zM147 987q0 79 37 109q38 30 88 30q54 0 92 -30q37 -30 37 -109q0 -73 -37 -106q-38 -33 -92 -33q-51 0 -88 33t-37 106z" />
<glyph unicode="A" d="M0 246q0 126 115 200q74 46 157 46q191 0 258 83q10 12 17 25v-354q-5 -244 -275 -246q-172 0 -239 117q-33 57 -33 129zM219 246q0 -42 41 -53q1 0 3.5 -1t4.5 -1.5t4 -0.5q42 0 54 39q2 10 2 17q0 41 -39 53q-10 2 -17 2q-44 0 -51 -43q-2 -8 -2 -12z" />
<glyph unicode="B" d="M0 246v354v193v682l219 55v-1036q28 -2 53 -2q142 0 224 -105q51 -63 51 -141q0 -163 -148 -223q-58 -23 -127 -23q-271 5 -272 246zM219 246q0 -42 41 -53q1 0 3.5 -1t4.5 -1.5t4 -0.5q42 0 54 39q2 10 2 17q0 41 -39 53q-10 2 -17 2q-44 0 -51 -43q-2 -8 -2 -12z" />
<glyph unicode="C" horiz-adv-x="491" d="M0 246q0 131 109 205q62 41 137 41h137v-191h-111q-44 0 -51 -43q-2 -8 -2 -12q0 -42 41 -53q1 0 3.5 -1t4.5 -1.5t4 -0.5h111v-190h-137q-131 0 -205 109q-41 62 -41 137z" />
<glyph unicode="D" d="M0 246q0 126 115 200q74 46 157 46q32 0 56 2v981l219 55v-930v-354q-5 -244 -275 -246q-172 0 -239 117q-33 57 -33 129zM219 246q0 -42 41 -53q1 0 3.5 -1t4.5 -1.5t4 -0.5q42 0 54 39q2 10 2 17q0 41 -39 53q-10 2 -17 2q-44 0 -51 -43q-2 -8 -2 -12z" />
<glyph unicode="E" d="M0 246q0 126 115 200q74 46 157 46q142 0 224 -105q51 -63 51 -141h-328q0 -42 41 -53q1 0 3.5 -1t4.5 -1.5t4 -0.5v-190q-172 0 -239 117q-33 57 -33 129zM227 272h92q-17 27 -47 29q-30 -1 -45 -29z" />
<glyph unicode="F" horiz-adv-x="327" d="M-123 956v191h68q-16 53 -16 103q0 85 46 161q77 118 220 119q120 0 194 -117q23 -35 35 -76q-79 29 -129 29q-109 0 -139 -82q-6 -21 -6 -39q0 -71 57 -92q17 -6 33 -6h186l-113 -191h-94v-737q0 -149 -104 -201q-39 -18 -82 -18q-85 1 -142 55q104 7 109 135v766h-123z " />
<glyph unicode="G" d="M-137 -682l143 246q44 -56 131 -56h191v494q-24 -2 -56 -2q-172 0 -239 117q-33 57 -33 129q0 126 115 200q74 46 157 46q191 0 258 83q10 12 17 25v-354v-819q0 -91 -78 -107q-20 -2 -27 -2h-579zM219 246q0 -42 41 -53q1 0 3.5 -1t4.5 -1.5t4 -0.5q42 0 54 39 q2 10 2 17q0 41 -39 53q-10 2 -17 2q-44 0 -51 -43q-2 -8 -2 -12z" />
<glyph unicode="H" d="M0 -55v1530l219 55v-1036q28 -2 53 -2q142 0 224 -105q51 -63 51 -141v-246l-219 -55v301q0 41 -39 53q-10 2 -17 2q-44 0 -51 -43q-2 -8 -2 -12v-140v-106z" />
<glyph unicode="I" horiz-adv-x="544" d="M0 219v273l219 55v-328q0 -82 92 -100q24 -2 35 -2q43 0 90 20q-90 -136 -225 -137q-115 0 -176 94q-35 56 -35 125zM0 596v53l219 58v-54z" />
<glyph unicode="J" horiz-adv-x="327" d="M-109 -629q101 18 109 137v984l219 55v-1012q0 -148 -106 -199q-39 -18 -80 -18q-89 2 -142 53zM0 596v53l219 58v-54z" />
<glyph unicode="K" horiz-adv-x="708" d="M0 -55v1530l219 55v-694q61 38 119 38q157 0 229 -139q37 -72 37 -146q0 -59 -24 -120q-23 -60 -70 -102q37 -56 37 -121v-246l-219 -55v301q0 41 -39 53q-10 2 -17 2q-44 0 -51 -43q-2 -8 -2 -12v-140v-106zM219 494q28 -2 53 -2h21q68 0 86 67q4 15 4 31q0 76 -74 106 q-33 15 -71 15h-19v-217z" />
<glyph unicode="L" horiz-adv-x="544" d="M0 219v1256l219 55v-1311q0 -82 92 -100q24 -2 35 -2q43 0 90 20q-90 -136 -225 -137q-115 0 -176 94q-35 56 -35 125z" />
<glyph unicode="M" horiz-adv-x="983" d="M0 -55v655q59 -103 246 -108h26q84 -1 164 -50q77 50 164 50q140 0 223 -105q51 -63 51 -141v-246l-219 -55v301q0 41 -39 53q-10 2 -16 2q-44 0 -51 -43q-2 -8 -2 -12v-246l-219 -55v301q0 41 -39 53q-10 2 -17 2q-44 0 -51 -43q-2 -8 -2 -12v-140v-106z" />
<glyph unicode="N" d="M0 -55v655q59 -103 246 -108h26q142 0 224 -105q51 -63 51 -141v-246l-219 -55v301q0 41 -39 53q-10 2 -17 2q-44 0 -51 -43q-2 -8 -2 -12v-140v-106z" />
<glyph unicode="O" d="M0 246q0 126 115 200q74 46 157 46q142 0 224 -105q51 -63 51 -141q-5 -244 -275 -246q-172 0 -239 117q-33 57 -33 129zM219 246q0 -42 41 -53q1 0 3.5 -1t4.5 -1.5t4 -0.5q42 0 54 39q2 10 2 17q0 41 -39 53q-10 2 -17 2q-44 0 -51 -43q-2 -8 -2 -12z" />
<glyph unicode="P" d="M0 -109v355v354q59 -103 246 -108h26q170 0 242 -117q33 -55 33 -129q0 -127 -115 -201q-72 -45 -160 -45q-29 0 -53 -2v-299v-328l-219 -53v381v192zM219 246q0 -42 41 -53q1 0 3.5 -1t4.5 -1.5t4 -0.5q42 0 54 39q2 10 2 17q0 41 -39 53q-10 2 -17 2q-44 0 -51 -43 q-2 -8 -2 -12z" />
<glyph unicode="Q" d="M0 246q0 166 147 223q58 23 125 23q191 0 258 83q10 12 17 25v-354v-355v-520l-219 -53v680q-28 2 -56 2q-141 0 -223 104q-49 65 -49 142zM219 246q0 -42 41 -53q1 0 3.5 -1t4.5 -1.5t4 -0.5q42 0 54 39q2 10 2 17q0 41 -39 53q-10 2 -17 2q-44 0 -51 -43q-2 -8 -2 -12z " />
<glyph unicode="R" horiz-adv-x="591" d="M0 -55v655q59 -103 246 -108h26q120 -1 211 -89l-164 -131q-17 27 -47 29q-44 0 -51 -43q-2 -8 -2 -12v-246z" />
<glyph unicode="S" horiz-adv-x="649" d="M0 195h387l-385 102q29 117 148 170q62 25 120 25q142 0 224 -105q29 -41 41 -86h-394l400 -106q-30 -193 -271 -195q-176 0 -245 123q-18 36 -25 72z" />
<glyph unicode="T" horiz-adv-x="544" d="M-55 436v53h55v166l219 56v-222h217v-53h-217v-217q0 -82 92 -100q24 -2 35 -2q43 0 90 20q-90 -136 -225 -137q-115 0 -176 94q-35 56 -35 125v217h-55z" />
<glyph unicode="U" d="M0 246v246l219 55v-301q0 -42 41 -53q1 0 3.5 -1t4.5 -1.5t4 -0.5q42 0 54 39q2 10 2 17v246l219 55v-656q-60 104 -252 109h-23q-141 0 -223 104q-49 65 -49 142z" />
<glyph unicode="V" d="M0 272v220l219 55v-275l53 -73l56 73v220l219 55v-275l-275 -272z" />
<glyph unicode="W" horiz-adv-x="983" d="M0 272v220l219 55v-275l53 -73l56 73v220l219 55v-275l53 -73l55 73v220l219 55v-275l-274 -272l-164 164l-164 -164z" />
<glyph unicode="X" horiz-adv-x="692" d="M0 0l145 313l-145 316h211l82 -178l82 178h209l-148 -316l148 -313h-209l-82 178l-82 -178h-211z" />
<glyph unicode="Y" d="M-137 -682l143 246q44 -56 131 -56h191v490q-28 2 -56 2q-141 0 -223 104q-49 65 -49 142v246l219 55v-301q0 -42 41 -53q1 0 3.5 -1t4.5 -1.5t4 -0.5q42 0 54 39q2 10 2 17v246l219 55v-1120q0 -91 -78 -107q-20 -2 -27 -2h-579z" />
<glyph unicode="Z" horiz-adv-x="868" d="M0 109q0 114 223 350q50 52 80 82h-303l59 190h701h-4h4l-496 -541h201q89 1 131 56l141 -246h-633q-85 0 -102 80q-2 20 -2 29z" />
<glyph unicode="&#xab;" horiz-adv-x="1042" d="M82 526v27l344 412l129 -74l-287 -350l287 -351l-129 -75zM487 526v27l349 412l127 -74l-287 -350l287 -351l-127 -75z" />
<glyph unicode="&#xad;" horiz-adv-x="659" d="M82 469v160h496v-160h-496z" />
<glyph unicode="&#xbb;" horiz-adv-x="1042" d="M80 190l287 351l-287 350l127 74l346 -412v-27l-346 -411zM485 190l287 351l-287 350l127 74l349 -412v-27l-349 -411z" />
<glyph unicode="&#x2000;" horiz-adv-x="765" />
<glyph unicode="&#x2001;" horiz-adv-x="1530" />
<glyph unicode="&#x2002;" horiz-adv-x="765" />
<glyph unicode="&#x2003;" horiz-adv-x="1530" />
<glyph unicode="&#x2004;" horiz-adv-x="510" />
<glyph unicode="&#x2005;" horiz-adv-x="382" />
<glyph unicode="&#x2006;" horiz-adv-x="255" />
<glyph unicode="&#x2007;" horiz-adv-x="255" />
<glyph unicode="&#x2008;" horiz-adv-x="191" />
<glyph unicode="&#x2009;" horiz-adv-x="306" />
<glyph unicode="&#x200a;" horiz-adv-x="85" />
<glyph unicode="&#x2010;" horiz-adv-x="659" d="M82 469v160h496v-160h-496z" />
<glyph unicode="&#x2011;" horiz-adv-x="659" d="M82 469v160h496v-160h-496z" />
<glyph unicode="&#x2012;" horiz-adv-x="659" d="M82 469v160h496v-160h-496z" />
<glyph unicode="&#x2013;" horiz-adv-x="1187" d="M82 469v160h1024v-160h-1024z" />
<glyph unicode="&#x2014;" horiz-adv-x="2211" d="M82 469v160h2048v-160h-2048z" />
<glyph unicode="&#x202f;" horiz-adv-x="306" />
<glyph unicode="&#x205f;" horiz-adv-x="382" />
<glyph unicode="&#x25fc;" horiz-adv-x="1024" d="M0 0z" />
</font>
</defs>
</svg>
