<?xml version="1.0" standalone="no"?>
<!DOCTYPE svg PUBLIC "-//W3C//DTD SVG 1.1//EN" "http://www.w3.org/Graphics/SVG/1.1/DTD/svg11.dtd" >
<svg xmlns="http://www.w3.org/2000/svg" xmlns:xlink="http://www.w3.org/1999/xlink" version="1.1">
<metadata></metadata>
<defs>
<font id="kfgqpc_qaloon_uthmanic_scriRg" horiz-adv-x="778" >
<font-face units-per-em="1000" ascent="800" descent="-200" />
<missing-glyph horiz-adv-x="260" />
<glyph unicode="&#xfedf;&#xfef0;" horiz-adv-x="996" arabic-form="isolated" d="M854 660q1 4 4 5.5t4 -5.5q4 -12 9 -24t11.5 -23.5t15 -21.5t20.5 -17q-7 -12 -12 -20.5t-8.5 -15.5t-5 -13.5t-0.5 -14.5q5 -47 12 -93.5t13.5 -93t12 -93t6.5 -93.5q0 -11 -2 -25t-6 -28t-10.5 -27t-14.5 -20q-14 -13 -35.5 -20.5t-45 -11.5t-46.5 -4.5t-40 -0.5h-9 q-16 0 -24 12t-8 26.5t8.5 26.5t23.5 12h9h19.5t31 1t36.5 3t36 5t29 8t15 11q-10 103 -25.5 203.5t-30.5 202.5q-3 21 -7.5 40.5t-15.5 37.5q-4 5 -4.5 7t2.5 8q8 14 16.5 29t15.5 27z" />
<glyph unicode="&#xfee0;&#xfef0;" horiz-adv-x="1036" arabic-form="final" d="M727 77h9q29 0 55.5 4t46.5 13.5t31.5 25.5t11.5 39q0 12 -2 33.5t-5 48.5t-6.5 55t-6.5 51l-10 80l-20 157q-1 7 2 12q5 13 11.5 25t14.5 26q5 6 7 0l3 -24t5 -41q10 -80 16.5 -138t12.5 -102q9 -61 15 -100t12 -64q6 -28 15.5 -47.5t24.5 -31.5t36 -17t50 -5h9 q16 0 23.5 -12t7.5 -26.5t-8 -26.5t-23 -12h-9q-21 0 -43 3.5t-42 16t-37 35.5t-28 62q-10 -41 -30 -64.5t-44 -35t-49.5 -14.5t-46.5 -3h-9q-16 0 -23.5 12t-7.5 26.5t7.5 26.5t23.5 12z" />
<glyph unicode="&#xfee0;&#xfea4;&#xfef0;" horiz-adv-x="1673" arabic-form="final" d="M1364 77h9q29 0 55.5 4t46.5 13.5t31.5 25.5t11.5 39q0 12 -2 33.5t-5 48.5t-6.5 55t-6.5 51l-10 80l-20 157q-1 7 2 12q5 13 11.5 25t14.5 26q5 6 7 0l3 -24t5 -41q10 -80 16.5 -138t12.5 -102q9 -61 15 -100t12 -64q6 -28 15.5 -47.5t24.5 -31.5t36 -17t50 -5h9 q16 0 23.5 -12t7.5 -26.5t-8 -26.5t-23 -12h-9q-21 0 -43 3.5t-42 16t-37 35.5t-28 62q-10 -41 -30 -64.5t-44 -35t-49.5 -14.5t-46.5 -3h-9q-16 0 -23.5 12t-7.5 26.5t7.5 26.5t23.5 12zM1037 176q-42 13 -81.5 23t-77.5 11q-26 0 -52 -8.5t-45 -27.5q-4 -4 -8.5 -2.5 t-3.5 6.5q6 27 16 48.5t24.5 36t34.5 21.5t46 5t51.5 -9t51.5 -14.5t53.5 -15.5t57.5 -14q37 -7 84 -11.5t97 -1.5q5 0 4 -6q-7 -17 -15 -33.5t-15 -34.5q-9 1 -15 2t-11 2t-11 1.5t-15 1.5q-3 -20 2.5 -34t16.5 -22.5t26.5 -13t32 -7t33 -2.5h30.5h9q15 0 22 -12t7 -26.5 t-7 -26.5t-22 -12h-9q-42 0 -75 3.5t-55.5 19t-33.5 46.5t-9 85q-17 0 -36.5 -4t-39 -12t-39 -18t-36.5 -20q-36 -22 -69.5 -40.5t-68 -32t-71.5 -20.5t-79 -7h-9q-16 0 -23.5 12t-7.5 26.5t8 26.5t23 12h9q42 0 82 9t77.5 24t73 32t68.5 34z" />
<glyph unicode="&#xfedf;&#xfe82;" horiz-adv-x="590" arabic-form="isolated" d="M356 56q12 1 26 2t27.5 2.5t26 3t22.5 4.5q-1 5 -5.5 15.5t-10 21.5t-11 21.5t-9.5 15.5q-17 -27 -33.5 -48t-32.5 -38zM419 220q17 25 29.5 70t20.5 102t9.5 122t-2.5 131q8 16 15.5 29t16.5 27q2 4 6 5.5t5 -5.5q3 -40 5 -76.5t1 -72t-3.5 -71t-8.5 -71.5 q-6 -43 -15.5 -78.5t-19.5 -63t-19.5 -48t-16.5 -34.5q6 -11 13 -24.5t13.5 -28t12 -29.5t7.5 -28q0 -21 -5.5 -40t-15.5 -37q-17 -3 -44.5 -7t-58.5 -7.5t-61 -5t-50 -1.5q-2 1 -2 9t1.5 19t4 21.5t5.5 15.5q2 7 9 7q34 2 42 12q6 6 18 18.5t25 28.5t25 33.5t19 33.5 q-24 41 -51 81t-56 78.5t-60.5 74t-64.5 65.5q-12 -6 -30 -7q-11 3 -26 9.5t-29 16t-24 21t-11 24.5v12.5t1 21.5t2.5 25t4.5 24t7 12.5t16 -6.5q33 -23 66.5 -53.5t66 -65.5t63 -73.5t57 -76t49 -73t38.5 -66.5zM255.143 771.035q0.952148 -0.920898 1.42871 -4.1416 q0.475586 -3.22168 -1.42871 -6.90332q-15.2324 -28.5303 -42.3643 -45.5566q-27.1328 -17.0264 -59.0264 -23.0088q-31.8926 -5.98242 -64.2617 -1.84082t-57.1211 17.0264q-5.71289 4.60156 -5.71289 0.920898q-0.951172 -3.68164 -4.2832 -8.74414 q-3.33203 -5.06152 -7.61621 -10.123q-4.28418 -5.0625 -8.56836 -8.2832q-4.28418 -3.22168 -6.18848 -3.22168q-3.80859 0 -3.33203 5.52246q0.475586 5.52148 1.42773 10.124q0.952148 5.52148 3.33203 14.2646q2.38086 8.74414 6.18848 17.9473t8.0918 17.0264 t9.04492 13.3447q2.85547 3.68164 10.4717 0q21.8965 -11.9639 49.5059 -17.9463q27.6084 -5.98242 56.1699 -5.0625q28.5605 0.920898 56.6455 9.66406q28.084 8.74316 51.8848 26.2295q1.9043 1.84082 3.33203 2.76172q1.42871 0.919922 2.37988 0z" />
<glyph unicode="&#xfee0;&#xfe82;" horiz-adv-x="620" arabic-form="final" d="M500 703q2 4 5 3t4 -8q5 -68 7 -136.5t-3 -137.5q-3 -42 -9 -79t-14.5 -68.5t-19.5 -56.5t-23 -41q17 -30 35.5 -50t39.5 -31.5t45.5 -16t52.5 -4.5h9q15 0 23 -12t8 -26.5t-8 -26.5t-23 -12h-9q-29 0 -51 4.5t-38.5 11t-28 14.5t-20.5 14q-1 -8 -3 -15.5t-4.5 -13.5 t-5 -10t-3.5 -5q-11 -2 -28 -4.5t-36.5 -4.5t-40.5 -4t-41 -3t-38 -2t-32 -1q-2 1 -1.5 9t2 18.5t4.5 20.5t6 16q2 7 9 7q17 1 24.5 4t10.5 5q4 3 12 11.5t18 19t20.5 22.5t20.5 23.5t17.5 21.5t10.5 17q-18 37 -45 78t-59 82t-66.5 79t-66.5 68q-12 -6 -30 -6 q-11 3 -26 9.5t-29 15.5t-24 20.5t-11 24.5v13t1 22.5t2.5 26t4.5 24.5t7 13t16 -6q39 -28 77 -64.5t73 -76t66.5 -80.5t57 -78.5t45 -70.5t29.5 -56q10 16 19 41.5t15 56t9.5 62.5t4.5 60q1 53 -1.5 106.5t-6.5 103.5q1 2 9.5 17t24.5 42zM351 59q11 0 24.5 1.5t27.5 2.5 t27.5 3t24.5 5q-1 6 -5.5 16t-9.5 20.5t-10.5 20.5t-9.5 16q-7 -10 -16 -22.5t-19 -24.5t-19 -22t-15 -16zM261.816 796.407q0.977539 -0.984375 1.46582 -4.42871t-1.46582 -7.38086q-15.6309 -30.5059 -43.4727 -48.7109q-27.8428 -18.2051 -60.5693 -24.6016 q-32.7275 -6.39648 -65.9434 -1.96875q-33.2158 4.42871 -58.6152 18.2061q-5.8623 4.91992 -5.8623 0.983398q-0.976562 -3.93555 -4.39551 -9.34863q-3.41895 -5.41211 -7.81543 -10.8242q-4.39648 -5.41309 -8.79297 -8.85645q-4.39551 -3.44434 -6.34961 -3.44434 q-3.9082 0 -3.41895 5.9043q0.488281 5.9043 1.46484 10.8242q0.977539 5.9043 3.41992 15.2529q2.44238 9.34961 6.34961 19.1895q3.90723 9.84082 8.30371 18.2061q4.39648 8.36426 9.28125 14.2686q2.93066 3.93652 10.7461 0q22.4688 -12.793 50.7998 -19.1895 t57.6396 -5.41211q29.3076 0.984375 58.127 10.333t53.2422 28.0459q1.9541 1.96777 3.41992 2.95215q1.46484 0.983398 2.44141 0z" />
<glyph unicode="&#xfedf;&#xfe84;" horiz-adv-x="603" arabic-form="isolated" d="M356 56q12 1 26 2t27.5 2.5t26 3t22.5 4.5q-1 5 -5.5 15.5t-10 21.5t-11 21.5t-9.5 15.5q-17 -27 -33.5 -48t-32.5 -38zM419 220q17 25 29.5 70t20.5 102t9.5 122t-2.5 131q8 16 15.5 29t16.5 27q2 4 6 5.5t5 -5.5q3 -40 5 -76.5t1 -72t-3.5 -71t-8.5 -71.5 q-6 -43 -15.5 -78.5t-19.5 -63t-19.5 -48t-16.5 -34.5q6 -11 13 -24.5t13.5 -28t12 -29.5t7.5 -28q0 -21 -5.5 -40t-15.5 -37q-17 -3 -44.5 -7t-58.5 -7.5t-61 -5t-50 -1.5q-2 1 -2 9t1.5 19t4 21.5t5.5 15.5q2 7 9 7q34 2 42 12q6 6 18 18.5t25 28.5t25 33.5t19 33.5 q-24 41 -51 81t-56 78.5t-60.5 74t-64.5 65.5q-12 -6 -30 -7q-11 3 -26 9.5t-29 16t-24 21t-11 24.5v12.5t1 21.5t2.5 25t4.5 24t7 12.5t16 -6.5q33 -23 66.5 -53.5t66 -65.5t63 -73.5t57 -76t49 -73t38.5 -66.5zM398.592 763.748q2.87891 1.87305 8.63867 4.21387 t11.0391 5.61816t10.5586 6.08594t9.11914 5.61816q-10.5586 8.42676 -18.2383 18.2588q-7.67871 9.83105 -14.3984 22.9404q-2.87988 5.61816 -1.91992 14.9814t5.75977 16.8535q2.87988 4.68164 11.5186 14.5137q8.63965 9.83105 20.6377 19.6631 q11.999 9.83105 26.8779 17.3223q14.8779 7.49023 30.2363 7.49023q4.7998 0 10.0791 -3.27637q5.2793 -3.27734 9.11914 -8.42773q3.83984 -5.14941 6.71875 -10.2998q2.87988 -5.14941 3.83984 -9.83105q2.87988 -10.2998 0 -17.791q-7.67871 -16.8535 -12.4785 -21.0674 t-8.63867 -4.21387q-1.91992 0 -3.36035 2.34082q-1.43945 2.34082 -2.39941 5.61816l-1.91992 6.55469t-0.959961 4.21387q-1.91992 4.68164 -8.15918 8.42676t-12.958 3.74512q-22.0781 0 -41.2764 -15.918q6.71973 -16.8535 21.1182 -30.4307t32.6367 -16.3857 q23.9971 -2.80957 46.0752 1.4043q22.0771 4.21387 46.0752 9.83203q0 -0.936523 -1.91992 -7.95898t-4.7998 -14.9814t-5.75879 -14.5137q-2.87988 -6.55469 -4.7998 -6.55469q-20.1582 -1.87207 -40.3164 -6.08594q-20.1572 -4.21387 -42.2354 -9.83105 q-23.0371 -7.49121 -47.0352 -17.791q-23.9971 -10.2998 -45.1152 -20.5996q-4.79883 0 -6.71875 3.74512q2.87988 9.36426 7.19922 19.1953q4.31934 9.83203 8.15918 17.3223z" />
<glyph unicode="&#xfee0;&#xfe84;" horiz-adv-x="620" arabic-form="final" d="M500 703q2 4 5 3t4 -8q5 -68 7 -136.5t-3 -137.5q-3 -42 -9 -79t-14.5 -68.5t-19.5 -56.5t-23 -41q17 -30 35.5 -50t39.5 -31.5t45.5 -16t52.5 -4.5h9q15 0 23 -12t8 -26.5t-8 -26.5t-23 -12h-9q-29 0 -51 4.5t-38.5 11t-28 14.5t-20.5 14q-1 -8 -3 -15.5t-4.5 -13.5 t-5 -10t-3.5 -5q-11 -2 -28 -4.5t-36.5 -4.5t-40.5 -4t-41 -3t-38 -2t-32 -1q-2 1 -1.5 9t2 18.5t4.5 20.5t6 16q2 7 9 7q17 1 24.5 4t10.5 5q4 3 12 11.5t18 19t20.5 22.5t20.5 23.5t17.5 21.5t10.5 17q-18 37 -45 78t-59 82t-66.5 79t-66.5 68q-12 -6 -30 -6 q-11 3 -26 9.5t-29 15.5t-24 20.5t-11 24.5v13t1 22.5t2.5 26t4.5 24.5t7 13t16 -6q39 -28 77 -64.5t73 -76t66.5 -80.5t57 -78.5t45 -70.5t29.5 -56q10 16 19 41.5t15 56t9.5 62.5t4.5 60q1 53 -1.5 106.5t-6.5 103.5q1 2 9.5 17t24.5 42zM351 59q11 0 24.5 1.5t27.5 2.5 t27.5 3t24.5 5q-1 6 -5.5 16t-9.5 20.5t-10.5 20.5t-9.5 16q-7 -10 -16 -22.5t-19 -24.5t-19 -22t-15 -16zM403.592 758.748q2.87891 1.87305 8.63867 4.21387t11.0391 5.61816t10.5586 6.08594t9.11914 5.61816q-10.5586 8.42676 -18.2383 18.2588 q-7.67871 9.83105 -14.3984 22.9404q-2.87988 5.61816 -1.91992 14.9814t5.75977 16.8535q2.87988 4.68164 11.5186 14.5137q8.63965 9.83105 20.6377 19.6631q11.999 9.83105 26.8779 17.3223q14.8779 7.49023 30.2363 7.49023q4.7998 0 10.0791 -3.27637 q5.2793 -3.27734 9.11914 -8.42773q3.83984 -5.14941 6.71875 -10.2998q2.87988 -5.14941 3.83984 -9.83105q2.87988 -10.2998 0 -17.791q-7.67871 -16.8535 -12.4785 -21.0674t-8.63867 -4.21387q-1.91992 0 -3.36035 2.34082q-1.43945 2.34082 -2.39941 5.61816 l-1.91992 6.55469t-0.959961 4.21387q-1.91992 4.68164 -8.15918 8.42676t-12.958 3.74512q-22.0781 0 -41.2764 -15.918q6.71973 -16.8535 21.1182 -30.4307t32.6367 -16.3857q23.9971 -2.80957 46.0752 1.4043q22.0771 4.21387 46.0752 9.83203 q0 -0.936523 -1.91992 -7.95898t-4.7998 -14.9814t-5.75879 -14.5137q-2.87988 -6.55469 -4.7998 -6.55469q-20.1582 -1.87207 -40.3164 -6.08594q-20.1572 -4.21387 -42.2354 -9.83105q-23.0371 -7.49121 -47.0352 -17.791q-23.9971 -10.2998 -45.1152 -20.5996 q-4.79883 0 -6.71875 3.74512q2.87988 9.36426 7.19922 19.1953q4.31934 9.83203 8.15918 17.3223z" />
<glyph unicode="&#xfedf;&#xfe88;" horiz-adv-x="592" arabic-form="isolated" d="M356 56q12 1 26 2t27.5 2.5t26 3t22.5 4.5q-1 5 -5.5 15.5t-10 21.5t-11 21.5t-9.5 15.5q-17 -27 -33.5 -48t-32.5 -38zM419 220q17 25 29.5 70t20.5 102t9.5 122t-2.5 131q8 16 15.5 29t16.5 27q2 4 6 5.5t5 -5.5q3 -40 5 -76.5t1 -72t-3.5 -71t-8.5 -71.5 q-6 -43 -15.5 -78.5t-19.5 -63t-19.5 -48t-16.5 -34.5q6 -11 13 -24.5t13.5 -28t12 -29.5t7.5 -28q0 -21 -5.5 -40t-15.5 -37q-17 -3 -44.5 -7t-58.5 -7.5t-61 -5t-50 -1.5q-2 1 -2 9t1.5 19t4 21.5t5.5 15.5q2 7 9 7q34 2 42 12q6 6 18 18.5t25 28.5t25 33.5t19 33.5 q-24 41 -51 81t-56 78.5t-60.5 74t-64.5 65.5q-12 -6 -30 -7q-11 3 -26 9.5t-29 16t-24 21t-11 24.5v12.5t1 21.5t2.5 25t4.5 24t7 12.5t16 -6.5q33 -23 66.5 -53.5t66 -65.5t63 -73.5t57 -76t49 -73t38.5 -66.5zM171.592 -171.252q2.87891 1.87305 8.63867 4.21387 t11.0391 5.61816t10.5586 6.08594t9.11914 5.61816q-10.5586 8.42676 -18.2383 18.2588q-7.67871 9.83105 -14.3984 22.9404q-2.87988 5.61816 -1.91992 14.9814t5.75977 16.8535q2.87988 4.68164 11.5186 14.5137q8.63965 9.83105 20.6377 19.6631 q11.999 9.83105 26.8779 17.3223q14.8779 7.49023 30.2363 7.49023q4.7998 0 10.0791 -3.27637q5.2793 -3.27734 9.11914 -8.42773q3.83984 -5.14941 6.71875 -10.2998q2.87988 -5.14941 3.83984 -9.83105q2.87988 -10.2998 0 -17.791q-7.67871 -16.8535 -12.4785 -21.0674 t-8.63867 -4.21387q-1.91992 0 -3.36035 2.34082q-1.43945 2.34082 -2.39941 5.61816l-1.91992 6.55469t-0.959961 4.21387q-1.91992 4.68164 -8.15918 8.42676t-12.958 3.74512q-22.0781 0 -41.2764 -15.918q6.71973 -16.8535 21.1182 -30.4307t32.6367 -16.3857 q23.9971 -2.80957 46.0752 1.4043q22.0771 4.21387 46.0752 9.83203q0 -0.936523 -1.91992 -7.95898t-4.7998 -14.9814t-5.75879 -14.5137q-2.87988 -6.55469 -4.7998 -6.55469q-20.1582 -1.87207 -40.3164 -6.08594q-20.1572 -4.21387 -42.2354 -9.83105 q-23.0371 -7.49121 -47.0352 -17.791q-23.9971 -10.2998 -45.1152 -20.5996q-4.79883 0 -6.71875 3.74512q2.87988 9.36426 7.19922 19.1953q4.31934 9.83203 8.15918 17.3223z" />
<glyph unicode="&#xfee0;&#xfe88;" horiz-adv-x="620" arabic-form="final" d="M500 703q2 4 5 3t4 -8q5 -68 7 -136.5t-3 -137.5q-3 -42 -9 -79t-14.5 -68.5t-19.5 -56.5t-23 -41q17 -30 35.5 -50t39.5 -31.5t45.5 -16t52.5 -4.5h9q15 0 23 -12t8 -26.5t-8 -26.5t-23 -12h-9q-29 0 -51 4.5t-38.5 11t-28 14.5t-20.5 14q-1 -8 -3 -15.5t-4.5 -13.5 t-5 -10t-3.5 -5q-11 -2 -28 -4.5t-36.5 -4.5t-40.5 -4t-41 -3t-38 -2t-32 -1q-2 1 -1.5 9t2 18.5t4.5 20.5t6 16q2 7 9 7q17 1 24.5 4t10.5 5q4 3 12 11.5t18 19t20.5 22.5t20.5 23.5t17.5 21.5t10.5 17q-18 37 -45 78t-59 82t-66.5 79t-66.5 68q-12 -6 -30 -6 q-11 3 -26 9.5t-29 15.5t-24 20.5t-11 24.5v13t1 22.5t2.5 26t4.5 24.5t7 13t16 -6q39 -28 77 -64.5t73 -76t66.5 -80.5t57 -78.5t45 -70.5t29.5 -56q10 16 19 41.5t15 56t9.5 62.5t4.5 60q1 53 -1.5 106.5t-6.5 103.5q1 2 9.5 17t24.5 42zM351 59q11 0 24.5 1.5t27.5 2.5 t27.5 3t24.5 5q-1 6 -5.5 16t-9.5 20.5t-10.5 20.5t-9.5 16q-7 -10 -16 -22.5t-19 -24.5t-19 -22t-15 -16zM176.592 -167.252q2.87891 1.87305 8.63867 4.21387t11.0391 5.61816t10.5586 6.08594t9.11914 5.61816q-10.5586 8.42676 -18.2383 18.2588 q-7.67871 9.83105 -14.3984 22.9404q-2.87988 5.61816 -1.91992 14.9814t5.75977 16.8535q2.87988 4.68164 11.5186 14.5137q8.63965 9.83105 20.6377 19.6631q11.999 9.83105 26.8779 17.3223q14.8779 7.49023 30.2363 7.49023q4.7998 0 10.0791 -3.27637 q5.2793 -3.27734 9.11914 -8.42773q3.83984 -5.14941 6.71875 -10.2998q2.87988 -5.14941 3.83984 -9.83105q2.87988 -10.2998 0 -17.791q-7.67871 -16.8535 -12.4785 -21.0674t-8.63867 -4.21387q-1.91992 0 -3.36035 2.34082q-1.43945 2.34082 -2.39941 5.61816 l-1.91992 6.55469t-0.959961 4.21387q-1.91992 4.68164 -8.15918 8.42676t-12.958 3.74512q-22.0781 0 -41.2764 -15.918q6.71973 -16.8535 21.1182 -30.4307t32.6367 -16.3857q23.9971 -2.80957 46.0752 1.4043q22.0771 4.21387 46.0752 9.83203 q0 -0.936523 -1.91992 -7.95898t-4.7998 -14.9814t-5.75879 -14.5137q-2.87988 -6.55469 -4.7998 -6.55469q-20.1582 -1.87207 -40.3164 -6.08594q-20.1572 -4.21387 -42.2354 -9.83105q-23.0371 -7.49121 -47.0352 -17.791q-23.9971 -10.2998 -45.1152 -20.5996 q-4.79883 0 -6.71875 3.74512q2.87988 9.36426 7.19922 19.1953q4.31934 9.83203 8.15918 17.3223z" />
<glyph unicode="&#xfedf;&#xfe8e;" horiz-adv-x="588" arabic-form="isolated" d="M356 56q12 1 26 2t27.5 2.5t26 3t22.5 4.5q-1 5 -5.5 15.5t-10 21.5t-11 21.5t-9.5 15.5q-17 -27 -33.5 -48t-32.5 -38zM419 220q17 25 29.5 70t20.5 102t9.5 122t-2.5 131q8 16 15.5 29t16.5 27q2 4 6 5.5t5 -5.5q3 -40 5 -76.5t1 -72t-3.5 -71t-8.5 -71.5 q-6 -43 -15.5 -78.5t-19.5 -63t-19.5 -48t-16.5 -34.5q6 -11 13 -24.5t13.5 -28t12 -29.5t7.5 -28q0 -21 -5.5 -40t-15.5 -37q-17 -3 -44.5 -7t-58.5 -7.5t-61 -5t-50 -1.5q-2 1 -2 9t1.5 19t4 21.5t5.5 15.5q2 7 9 7q34 2 42 12q6 6 18 18.5t25 28.5t25 33.5t19 33.5 q-24 41 -51 81t-56 78.5t-60.5 74t-64.5 65.5q-12 -6 -30 -7q-11 3 -26 9.5t-29 16t-24 21t-11 24.5v12.5t1 21.5t2.5 25t4.5 24t7 12.5t16 -6.5q33 -23 66.5 -53.5t66 -65.5t63 -73.5t57 -76t49 -73t38.5 -66.5z" />
<glyph unicode="&#xfee0;&#xfe8e;" horiz-adv-x="620" arabic-form="final" d="M500 703q2 4 5 3t4 -8q5 -68 7 -136.5t-3 -137.5q-3 -42 -9 -79t-14.5 -68.5t-19.5 -56.5t-23 -41q17 -30 35.5 -50t39.5 -31.5t45.5 -16t52.5 -4.5h9q15 0 23 -12t8 -26.5t-8 -26.5t-23 -12h-9q-29 0 -51 4.5t-38.5 11t-28 14.5t-20.5 14q-1 -8 -3 -15.5t-4.5 -13.5 t-5 -10t-3.5 -5q-11 -2 -28 -4.5t-36.5 -4.5t-40.5 -4t-41 -3t-38 -2t-32 -1q-2 1 -1.5 9t2 18.5t4.5 20.5t6 16q2 7 9 7q17 1 24.5 4t10.5 5q4 3 12 11.5t18 19t20.5 22.5t20.5 23.5t17.5 21.5t10.5 17q-18 37 -45 78t-59 82t-66.5 79t-66.5 68q-12 -6 -30 -6 q-11 3 -26 9.5t-29 15.5t-24 20.5t-11 24.5v13t1 22.5t2.5 26t4.5 24.5t7 13t16 -6q39 -28 77 -64.5t73 -76t66.5 -80.5t57 -78.5t45 -70.5t29.5 -56q10 16 19 41.5t15 56t9.5 62.5t4.5 60q1 53 -1.5 106.5t-6.5 103.5q1 2 9.5 17t24.5 42zM351 59q11 0 24.5 1.5t27.5 2.5 t27.5 3t24.5 5q-1 6 -5.5 16t-9.5 20.5t-10.5 20.5t-9.5 16q-7 -10 -16 -22.5t-19 -24.5t-19 -22t-15 -16z" />
<glyph unicode="&#x651;&#x64b;" horiz-adv-x="0" d="M103 45q-10 -21 -23.5 -31.5t-35.5 -12.5q-18 -1 -29 8t-13 31q-1 10 1 20.5t6 19.5t9 15.5t11 8.5q6 1 1 -9q-2 -5 -4 -12t-2.5 -14t1.5 -13t6 -9q7 -5 15.5 -5t16.5 3t15 9t13 12q6 7 8.5 14.5t4.5 19.5q0 2 1 6t2 7.5t3.5 6t6.5 2.5q2 0 3 -2.5t1.5 -6t0 -6.5t-0.5 -5 q0 -14 4 -22t18 -11q8 -2 18.5 1t18.5 10q1 1 0.5 5.5t-1.5 9.5t-2.5 9t-1.5 5q-1 2 1 8t5 12.5t6 11.5t4 5q5 0 8 -8t3.5 -19t-0.5 -23t-3 -19q-5 -18 -15.5 -32.5t-30.5 -18.5q-18 -3 -30 2.5t-20 16.5zM193 212l-187 -69q-6 -2 -5 5l20 38q4 7 10 9l180 64q3 1 5.5 0.5 t1.5 -3.5l-17 -37q-2 -4 -8 -7zM194 304l-187 -70q-6 -1 -6 5l21 38q4 7 9 9l181 65q3 1 5 0.5t1 -4.5l-17 -37q-1 -4 -7 -6z" />
<glyph unicode="&#x651;&#x64c;" horiz-adv-x="0" d="M145 299q2 3 5.5 3t5.5 -2q19 -35 18 -88q-2 -26 -25 -29q-21 -5 -50 -9t-74 -4l17 37q37 1 61 3.5t35 4.5q1 25 -12 54zM101 408q2 3 6 3t5 -2q19 -35 18 -85q-1 -13 -7 -21t-18 -10q-21 -5 -47 -8.5t-67 -3.5l17 35q19 0 33 1.5t24 2.5t17 2.5t12 2.5q1 25 -11 53z M103 45q-10 -21 -23.5 -31.5t-35.5 -12.5q-18 -1 -28.5 8t-13.5 31q-1 10 1 20.5t6 19.5t9 15.5t11 8.5q6 0 1 -9q-2 -5 -4 -12t-2.5 -14t1.5 -13t6 -9q7 -5 15.5 -5t16.5 3.5t15 9t13 11.5q6 7 8.5 16.5t4.5 17.5q0 2 0.5 6t2 7.5t4 6t6.5 2.5q2 0 3 -2.5t1.5 -6t0 -6.5 t-0.5 -5q0 -14 4 -22t18 -11q8 -2 18.5 1t18.5 10q1 1 0.5 5.5t-1.5 9.5t-2.5 9t-1.5 5q-1 2 1 8t5 12.5t6 11.5t4 5q5 0 8 -8t3.5 -19t-0.5 -23t-3 -19q-2 -9 -6 -17.5t-9.5 -15t-13 -11.5t-17.5 -7q-18 -3 -30 2.5t-20 16.5z" />
<glyph unicode="&#x651;&#x64e;" horiz-adv-x="0" d="M103 45q-10 -21 -23.5 -31.5t-35.5 -12.5q-18 -1 -29 8t-13 31q-1 10 1 20.5t6 19.5t9 15.5t11 8.5q6 1 1 -9q-2 -5 -4 -12t-2.5 -14t1.5 -13t6 -9q7 -5 15.5 -5t16.5 3t15 9t13 12q6 7 8.5 14.5t4.5 19.5q0 2 1 6t2 7.5t3.5 6t6.5 2.5q2 0 3 -2.5t1.5 -6t0 -6.5t-0.5 -5 q0 -14 4 -22t18 -11q8 -2 18.5 1t18.5 10q1 1 0.5 5.5t-1.5 9.5t-2.5 9t-1.5 5q-1 2 1 8t5 12.5t6 11.5t4 5q5 0 8 -8t3.5 -19t-0.5 -23t-3 -19q-5 -18 -15.5 -32.5t-30.5 -18.5q-18 -3 -30 2.5t-20 16.5zM194 224l-186 -74q-5 -1 -5 5l20 41q4 6 9 9l180 69q3 1 5 0t1 -4 l-17 -40q-1 -4 -7 -6z" />
<glyph unicode="&#x651;&#x64f;" horiz-adv-x="0" d="M141 349q6 7 10 1q15 -29 22 -58t7 -62q-1 -32 -26 -38q-19 -5 -54 -12t-83 -10l13 44q43 2 72.5 8.5t39.5 9.5q0 24 -6.5 40.5t-15.5 34.5zM103 45q-10 -21 -23.5 -31.5t-35.5 -12.5q-18 -1 -28.5 8t-13.5 31q-1 10 1 20.5t6 19.5t9 15.5t11 8.5q6 0 1 -9q-2 -5 -4 -12 t-2.5 -14t1.5 -13t6 -9q7 -5 15.5 -5t16.5 3.5t15 9t13 11.5q6 7 8.5 16.5t4.5 17.5q0 2 0.5 6t2 7.5t4 6t6.5 2.5q2 0 3 -2.5t1.5 -6t0 -6.5t-0.5 -5q0 -14 4 -22t18 -11q8 -2 18.5 1t18.5 10q1 1 0.5 5.5t-1.5 9.5t-2.5 9t-1.5 5q-1 2 1 8t5 12.5t6 11.5t4 5q5 0 8 -8 t3.5 -19t-0.5 -23t-3 -19q-2 -9 -6 -17.5t-9.5 -15t-13 -11.5t-17.5 -7q-18 -3 -30 2.5t-20 16.5z" />
<glyph unicode="&#x651;&#x670;" horiz-adv-x="0" d="M103 45q-10 -21 -23.5 -31.5t-35.5 -12.5q-18 -1 -29 8t-13 31q-1 10 1 20.5t6 19.5t9 15.5t11 8.5q6 1 1 -9q-2 -5 -4 -12t-2.5 -14t1.5 -13t6 -9q7 -5 15.5 -5t16.5 3t15 9t13 12q6 7 8.5 14.5t4.5 19.5q0 2 1 6t2 7.5t3.5 6t6.5 2.5q2 0 3 -2.5t1.5 -6t0 -6.5t-0.5 -5 q0 -14 4 -22t18 -11q8 -2 18.5 1t18.5 10q1 1 0.5 5.5t-1.5 9.5t-2.5 9t-1.5 5q-1 2 1 8t5 12.5t6 11.5t4 5q5 0 8 -8t3.5 -19t-0.5 -23t-3 -19q-5 -18 -15.5 -32.5t-30.5 -18.5q-18 -3 -30 2.5t-20 16.5zM104.229 379.863q1.93066 0 4.8252 -4.39453 q27.0225 -32.5166 38.1211 -68.1104q11.0986 -35.5928 4.34277 -80.4141q-1.92969 -10.5459 -5.79004 -22.8506q-3.86035 -12.3037 -8.20312 -22.4102q-4.34375 -10.1064 -10.1338 -17.5771q-5.79004 -7.46973 -11.5811 -7.46973q-3.86035 0 -4.8252 3.51562 q-0.96582 3.51465 0 8.34863q0.964844 4.83398 2.41211 10.5459q1.44824 5.71289 2.41309 10.1074q3.86035 18.4551 3.86035 37.79q0 19.334 -4.8252 39.1084q-4.82617 19.7744 -13.9941 38.6689q-9.16797 18.8955 -23.6445 36.4727q0 1.75781 3.37793 7.90918 q3.37793 6.15234 8.20312 13.1826q4.8252 7.03125 9.16797 12.3037q4.34277 5.27344 6.27344 5.27344z" />
<glyph unicode="&#x670;&#x653;" horiz-adv-x="0" d="M114.115 226.852q1.96484 0 4.91211 -4.41406q27.5117 -32.6592 38.8105 -68.4082t4.42188 -80.7656q-1.96582 -10.5928 -5.89551 -22.9502q-3.93066 -12.3574 -8.35156 -22.5088q-4.42188 -10.1504 -10.3174 -17.6533q-5.89453 -7.50293 -11.79 -7.50293 q-3.93066 0 -4.91309 3.53027q-0.982422 3.53125 0 8.38574t2.45703 10.5918q1.47363 5.73828 2.45605 10.1514q3.93066 18.5361 3.93066 37.9561q0 19.4189 -4.91309 39.2793t-14.2471 38.8389q-9.33398 18.9775 -24.0723 36.6309q0 1.76562 3.43848 7.94434 q3.43945 6.17871 8.35254 13.2402q4.91211 7.06152 9.33398 12.3584q4.4209 5.2959 6.38672 5.2959zM249.908 358.462q0.932617 -0.924805 1.39941 -4.16016q0.46582 -3.23633 -1.39941 -6.93457q-14.9199 -28.6641 -41.4951 -45.7695q-26.5762 -17.1055 -57.8154 -23.1152 q-31.2383 -6.00977 -62.9434 -1.84961q-31.7051 4.16113 -55.9492 17.1055q-5.5957 4.62305 -5.5957 0.924805q-0.931641 -3.69824 -4.19531 -8.78418q-3.26367 -5.08496 -7.45996 -10.1699q-4.19629 -5.08594 -8.39258 -8.32227t-6.06152 -3.23633 q-3.73047 0 -3.26367 5.54785q0.46582 5.54785 1.39844 10.1709q0.932617 5.54785 3.26367 14.332q2.33203 8.7832 6.06152 18.0303q3.72949 9.24609 7.92578 17.1055t8.85938 13.4062q2.79688 3.69922 10.2568 0q21.4473 -12.0195 48.4902 -18.0293 q27.042 -6.01074 55.0176 -5.08594q27.9746 0.924805 55.4834 9.70898q27.5078 8.7832 50.8203 26.3516q1.86523 1.84863 3.26367 2.77344q1.39941 0.924805 2.33105 0z" />
<glyph unicode="&#x650;&#x6e2;" horiz-adv-x="0" d="M211 -239h-1.5h-1.5q-17 0 -33.5 0.5t-29 -3t-19 -11t-4.5 -22.5q0 -6 1.5 -17t2 -23t0.5 -22v-15q0 -4 -3 -7t-6 -3t-5 2t-2 6q0 15 -2 30t-4.5 28t-4.5 23t-2 15q-1 26 7.5 37t27.5 14q1 11 4.5 22.5t10 20t16.5 13.5t24 4q10 -1 17 -7.5t11.5 -15t7 -17.5t2.5 -14 q0 -2 -2 -8.5l-4 -13t-4.5 -11.5t-3.5 -5zM306 -53q-52 -15 -99 -30t-93 -28q-8 -1 -5 5l22 36q2 5 7 7q14 5 36.5 12t49 14.5t54 15.5t52.5 16q4 1 5 0t-1 -5l-22 -37q-1 -2 -2.5 -4t-3.5 -2zM191 -200q-2 6 -7 9t-10 3t-10 -3.5t-8 -10.5z" />
<glyph unicode="&#x655;&#x650;" horiz-adv-x="0" d="M91 -234q8 4 20.5 10.5t20.5 12.5q-11 9 -20 19.5t-16 26.5q-3 6 -1.5 13.5t6.5 13.5q8 11 18 23t21.5 22t25 16.5t29.5 6.5q6 0 11 -3.5t9 -8.5t6.5 -11t4.5 -11q3 -11 0 -19l-9 -16q-4 -11 -14 -11q-5 0 -5.5 6.5t-2.5 12.5q-4 8 -10 11t-12 3q-24 0 -43 -17 q3 -9 8.5 -17.5t13 -15t16 -11.5t18.5 -6q25 -3 48 1.5t48 9.5l-2 -7q-2 -8 -5 -16.5t-6.5 -15.5t-5.5 -7q-21 -2 -41.5 -6.5t-43.5 -10.5q-24 -8 -49 -19t-47 -22q-5 0 -7 4q3 10 7.5 20.5t8.5 18.5zM258 -316l-185 -59q-5 -1 -5 4l20 40q3 5 9 7l179 56q3 0 5 -0.5t1 -3.5 l-17 -39q-1 -3 -7 -5z" />
<glyph unicode="&#x6dc;&#x64e;" horiz-adv-x="0" d="M435 -59q6 -4 14.5 -6t17 -2t16.5 2.5t13 6.5q12 6 19.5 17t15.5 27q4 5 8.5 3.5t4.5 -6.5q-2 -7 -4 -11t-4 -12q3 -3 10.5 -6.5t16.5 -7t17.5 -5t13.5 1.5q0 9 -3.5 18.5t-7.5 18.5q2 7 6 14t9 14q0 2 1 2t1 -1q7 -16 11 -33t-2 -34l-8 -24q-5 -13 -17 -15 q-6 -2 -15 -0.5t-18.5 5.5t-17.5 9t-12 9q-13 -19 -30 -26.5t-41 -6.5q2 -13 2 -26.5t-3 -27.5q-5 -21 -20 -36t-35 -25t-42 -15t-41 -5q-41 0 -66 22q-26 22 -27 61q0 22 8.5 44t22.5 40q2 3 4.5 0.5t0.5 -4.5q-5 -12 -10 -24.5t-7 -27.5t2 -28.5t16 -24.5 q16 -14 37.5 -17.5t42.5 -0.5q14 2 27.5 5.5t27.5 10.5t24.5 16t18.5 22q-1 24 -11.5 44.5t-22.5 41.5q2 9 5.5 15.5t6.5 17.5q3 3 4 0q6 -8 11 -16t9 -14zM537.06 588.468l-238.789 -83.2188q-6.41895 -1.12402 -6.41895 5.62305l25.6758 46.1074 q5.13574 6.74707 11.5547 10.1211l231.086 77.5957q3.85156 1.12402 6.41992 0q2.56738 -1.125 1.2832 -4.49805l-21.8242 -44.9834q-1.28418 -4.49805 -8.9873 -6.74707z" />
<glyph unicode="&#xfe91;&#xfef2;" horiz-adv-x="922" d="M792 52l60 -50q3 -3 1 -8l-41 -51q-4 -4 -8 0l-61 50q-3 3 0 8l41 50q4 4 8 1zM630 42q0 -35 -16.5 -62.5t-43.5 -48.5q-30 -24 -63.5 -43.5t-72 -32.5t-82.5 -19t-95 -5q-45 1 -85 14.5t-70.5 39t-48 63t-17.5 86.5q0 50 16 95t46 88q2 3 4.5 3t4.5 -1.5t2.5 -4.5 t-0.5 -6q-11 -21 -20 -44t-14 -46t-5 -46t6 -44q10 -34 30.5 -56.5t47.5 -36.5t57 -20t60 -6q48 0 89.5 4.5t77.5 14t68.5 25t62.5 36.5q12 8 16 13.5t4 6.5q0 5 -10 8t-25.5 5.5t-35.5 5t-40.5 7.5t-40.5 12t-36 18.5t-25.5 28t-10.5 39.5q0 16 7.5 37t20.5 43t31.5 44 t39.5 38.5t44 27t45 10.5q18 0 32 -7t27.5 -18.5t27.5 -24t31 -23.5t39.5 -18.5t52.5 -7.5q10 0 21.5 1t23 3.5t21 6t14.5 7.5q4 3 6.5 6t1.5 7q-9 27 -25 55.5t-37 49.5q4 17 8.5 38t8.5 37q1 4 3.5 4.5t8.5 -5.5q14 -13 25.5 -32t20 -40.5t13.5 -44t5 -41.5q0 -8 -1.5 -21 t-3.5 -26t-6 -25t-9 -19q-18 -21 -46 -29.5t-60 -8.5t-57 7.5t-45 19t-36 25t-29.5 25t-25.5 19.5t-24 8t-27 -5.5t-30.5 -14.5t-29.5 -20t-25 -22t-18 -21.5t-7 -17.5q0 -12 8 -22t21 -18t30.5 -13.5t35.5 -10t36 -7.5t33 -4q11 -1 22.5 -3t20.5 -6.5t15 -12.5t6 -21z" />
<glyph unicode="&#xfe97;&#xfef2;" horiz-adv-x="922" d="M630 42q0 -35 -16.5 -62.5t-43.5 -48.5q-30 -24 -63.5 -43.5t-72 -32.5t-82.5 -19t-95 -5q-45 1 -85 14.5t-70.5 39t-48 63t-17.5 86.5q0 50 16 95t46 88q2 3 4.5 3t4.5 -1.5t2.5 -4.5t-0.5 -6q-11 -21 -20 -44t-14 -46t-5 -46t6 -44q10 -34 30.5 -56.5t47.5 -36.5 t57 -20t60 -6q48 0 89.5 4.5t77.5 14t68.5 25t62.5 36.5q12 8 16 13.5t4 6.5q0 5 -10 8t-25.5 5.5t-35.5 5t-40.5 7.5t-40.5 12t-36 18.5t-25.5 28t-10.5 39.5q0 16 7.5 37t20.5 43t31.5 44t39.5 38.5t44 27t45 10.5q18 0 32 -7t27.5 -18.5t27.5 -24t31 -23.5t39.5 -18.5 t52.5 -7.5q10 0 21.5 1t23 3.5t21 6t14.5 7.5q4 3 6.5 6t1.5 7q-9 27 -25 55.5t-37 49.5q4 17 8.5 38t8.5 37q1 4 3.5 4.5t8.5 -5.5q14 -13 25.5 -32t20 -40.5t13.5 -44t5 -41.5q0 -8 -1.5 -21t-3.5 -26t-6 -25t-9 -19q-18 -21 -46 -29.5t-60 -8.5t-57 7.5t-45 19t-36 25 t-29.5 25t-25.5 19.5t-24 8t-27 -5.5t-30.5 -14.5t-29.5 -20t-25 -22t-18 -21.5t-7 -17.5q0 -12 8 -22t21 -18t30.5 -13.5t35.5 -10t36 -7.5t33 -4q11 -1 22.5 -3t20.5 -6.5t15 -12.5t6 -21zM842 562q-3 -5 -9 -1l-59 46l-37 -52q-2 -2 -4.5 -2.5t-3.5 0.5l-63 48q-2 1 -2 2 t1 4l40 56q3 5 7 2l59 -45l40 51q3 3 7 1l61 -51q2 -3 0 -7z" />
<glyph unicode="&#xfe9b;&#xfef2;" horiz-adv-x="922" d="M630 42q0 -35 -16.5 -62.5t-43.5 -48.5q-30 -24 -63.5 -43.5t-72 -32.5t-82.5 -19t-95 -5q-45 1 -85 14.5t-70.5 39t-48 63t-17.5 86.5q0 50 16 95t46 88q2 3 4.5 3t4.5 -1.5t2.5 -4.5t-0.5 -6q-11 -21 -20 -44t-14 -46t-5 -46t6 -44q10 -34 30.5 -56.5t47.5 -36.5 t57 -20t60 -6q48 0 89.5 4.5t77.5 14t68.5 25t62.5 36.5q12 8 16 13.5t4 6.5q0 5 -10 8t-25.5 5.5t-35.5 5t-40.5 7.5t-40.5 12t-36 18.5t-25.5 28t-10.5 39.5q0 16 7.5 37t20.5 43t31.5 44t39.5 38.5t44 27t45 10.5q18 0 32 -7t27.5 -18.5t27.5 -24t31 -23.5t39.5 -18.5 t52.5 -7.5q10 0 21.5 1t23 3.5t21 6t14.5 7.5q4 3 6.5 6t1.5 7q-9 27 -25 55.5t-37 49.5q4 17 8.5 38t8.5 37q1 4 3.5 4.5t8.5 -5.5q14 -13 25.5 -32t20 -40.5t13.5 -44t5 -41.5q0 -8 -1.5 -21t-3.5 -26t-6 -25t-9 -19q-18 -21 -46 -29.5t-60 -8.5t-57 7.5t-45 19t-36 25 t-29.5 25t-25.5 19.5t-24 8t-27 -5.5t-30.5 -14.5t-29.5 -20t-25 -22t-18 -21.5t-7 -17.5q0 -12 8 -22t21 -18t30.5 -13.5t35.5 -10t36 -7.5t33 -4q11 -1 22.5 -3t20.5 -6.5t15 -12.5t6 -21zM842 562q-3 -3 -5 -2.5t-4 1.5l-58 45l-37 -51q-2 -2 -4.5 -2.5t-3.5 0.5l-62 47 q-2 1 -2 2.5t1 3.5l39 55q1 2 3 3t4 -1l58 -44l40 51l2.5 2.5t3.5 -1.5l61 -51q4 -2 0 -7zM749 768l60 -49q2 -2 2 -4t-1 -4l-40 -50q-3 -4 -9 0l-60 49q-3 3 0 8l41 49q3 4 7 1z" />
<glyph unicode="&#xfee7;&#xfef2;" horiz-adv-x="922" d="M774 660l60 -50q3 -3 1 -8l-41 -51q-4 -4 -8 0l-61 50q-3 3 0 8l41 50q4 4 8 1zM630 42q0 -35 -16.5 -62.5t-43.5 -48.5q-30 -24 -63.5 -43.5t-72 -32.5t-82.5 -19t-95 -5q-45 1 -85 14.5t-70.5 39t-48 63t-17.5 86.5q0 50 16 95t46 88q2 3 4.5 3t4.5 -1.5t2.5 -4.5 t-0.5 -6q-11 -21 -20 -44t-14 -46t-5 -46t6 -44q10 -34 30.5 -56.5t47.5 -36.5t57 -20t60 -6q48 0 89.5 4.5t77.5 14t68.5 25t62.5 36.5q12 8 16 13.5t4 6.5q0 5 -10 8t-25.5 5.5t-35.5 5t-40.5 7.5t-40.5 12t-36 18.5t-25.5 28t-10.5 39.5q0 16 7.5 37t20.5 43t31.5 44 t39.5 38.5t44 27t45 10.5q18 0 32 -7t27.5 -18.5t27.5 -24t31 -23.5t39.5 -18.5t52.5 -7.5q10 0 21.5 1t23 3.5t21 6t14.5 7.5q4 3 6.5 6t1.5 7q-9 27 -25 55.5t-37 49.5q4 17 8.5 38t8.5 37q1 4 3.5 4.5t8.5 -5.5q14 -13 25.5 -32t20 -40.5t13.5 -44t5 -41.5q0 -8 -1.5 -21 t-3.5 -26t-6 -25t-9 -19q-18 -21 -46 -29.5t-60 -8.5t-57 7.5t-45 19t-36 25t-29.5 25t-25.5 19.5t-24 8t-27 -5.5t-30.5 -14.5t-29.5 -20t-25 -22t-18 -21.5t-7 -17.5q0 -12 8 -22t21 -18t30.5 -13.5t35.5 -10t36 -7.5t33 -4q11 -1 22.5 -3t20.5 -6.5t15 -12.5t6 -21z" />
<glyph unicode="&#xfef3;&#xfef2;" horiz-adv-x="922" d="M630 42q0 -35 -16.5 -62.5t-43.5 -48.5q-30 -24 -63.5 -43.5t-72 -32.5t-82.5 -19t-95 -5q-45 1 -85 14.5t-70.5 39t-48 63t-17.5 86.5q0 50 16 95t46 88q2 3 4.5 3t4.5 -1.5t2.5 -4.5t-0.5 -6q-11 -21 -20 -44t-14 -46t-5 -46t6 -44q10 -34 30.5 -56.5t47.5 -36.5 t57 -20t60 -6q48 0 89.5 4.5t77.5 14t68.5 25t62.5 36.5q12 8 16 13.5t4 6.5q0 5 -10 8t-25.5 5.5t-35.5 5t-40.5 7.5t-40.5 12t-36 18.5t-25.5 28t-10.5 39.5q0 16 7.5 37t20.5 43t31.5 44t39.5 38.5t44 27t45 10.5q18 0 32 -7t27.5 -18.5t27.5 -24t31 -23.5t39.5 -18.5 t52.5 -7.5q10 0 21.5 1t23 3.5t21 6t14.5 7.5q4 3 6.5 6t1.5 7q-9 27 -25 55.5t-37 49.5q4 17 8.5 38t8.5 37q1 4 3.5 4.5t8.5 -5.5q14 -13 25.5 -32t20 -40.5t13.5 -44t5 -41.5q0 -8 -1.5 -21t-3.5 -26t-6 -25t-9 -19q-18 -21 -46 -29.5t-60 -8.5t-57 7.5t-45 19t-36 25 t-29.5 25t-25.5 19.5t-24 8t-27 -5.5t-30.5 -14.5t-29.5 -20t-25 -22t-18 -21.5t-7 -17.5q0 -12 8 -22t21 -18t30.5 -13.5t35.5 -10t36 -7.5t33 -4q11 -1 22.5 -3t20.5 -6.5t15 -12.5t6 -21zM869.244 -53.5996q-2.81836 -4.7002 -8.45605 -0.94043l-55.4346 43.2402 l-34.7646 -48.8799q-1.87891 -1.87988 -4.22754 -2.35059q-2.34961 -0.469727 -3.28906 0.470703l-59.1934 45.1201q-1.87891 0.939453 -1.87891 1.87988q0 0.939453 0.939453 3.75977l37.583 52.6396q2.81934 4.7002 6.57715 1.88086l55.4346 -42.3008l37.583 47.9404 q2.81934 2.82031 6.57715 0.94043l57.3145 -47.9404q1.87891 -2.82031 0 -6.58008z" />
<glyph unicode="&#xfe8b;&#xfef2;" horiz-adv-x="922" d="M630 42q0 -35 -16.5 -62.5t-43.5 -48.5q-30 -24 -63.5 -43.5t-72 -32.5t-82.5 -19t-95 -5q-45 1 -85 14.5t-70.5 39t-48 63t-17.5 86.5q0 50 16 95t46 88q2 3 4.5 3t4.5 -1.5t2.5 -4.5t-0.5 -6q-11 -21 -20 -44t-14 -46t-5 -46t6 -44q10 -34 30.5 -56.5t47.5 -36.5 t57 -20t60 -6q48 0 89.5 4.5t77.5 14t68.5 25t62.5 36.5q12 8 16 13.5t4 6.5q0 5 -10 8t-25.5 5.5t-35.5 5t-40.5 7.5t-40.5 12t-36 18.5t-25.5 28t-10.5 39.5q0 16 7.5 37t20.5 43t31.5 44t39.5 38.5t44 27t45 10.5q18 0 32 -7t27.5 -18.5t27.5 -24t31 -23.5t39.5 -18.5 t52.5 -7.5q10 0 21.5 1t23 3.5t21 6t14.5 7.5q4 3 6.5 6t1.5 7q-9 27 -25 55.5t-37 49.5q4 17 8.5 38t8.5 37q1 4 3.5 4.5t8.5 -5.5q14 -13 25.5 -32t20 -40.5t13.5 -44t5 -41.5q0 -8 -1.5 -21t-3.5 -26t-6 -25t-9 -19q-18 -21 -46 -29.5t-60 -8.5t-57 7.5t-45 19t-36 25 t-29.5 25t-25.5 19.5t-24 8t-27 -5.5t-30.5 -14.5t-29.5 -20t-25 -22t-18 -21.5t-7 -17.5q0 -12 8 -22t21 -18t30.5 -13.5t35.5 -10t36 -7.5t33 -4q11 -1 22.5 -3t20.5 -6.5t15 -12.5t6 -21zM698 569q3 2 9 4.5t11.5 6t11 6.5t9.5 6q-11 9 -19 19.5t-15 24.5q-3 6 -2 16 t6 18q3 5 12 15.5t21.5 21t28 18.5t31.5 8q5 0 10.5 -3.5t9.5 -9t7 -11t4 -10.5q3 -11 0 -19q-8 -18 -13 -22.5t-9 -4.5q-2 0 -3.5 2.5t-2.5 6l-2 7t-1 4.5q-2 5 -8.5 9t-13.5 4q-23 0 -43 -17q7 -18 22 -32.5t34 -17.5q25 -3 48 1.5t48 10.5q0 -1 -2 -8.5t-5 -16t-6 -15.5 t-5 -7q-21 -2 -42 -6.5t-44 -10.5q-24 -8 -49 -19t-47 -22q-5 0 -7 4q3 10 7.5 20.5t8.5 18.5z" />
<glyph unicode="&#xfe92;&#xfef2;" horiz-adv-x="927" d="M772 -104l60 -50q3 -3 1 -8l-41 -51q-4 -4 -8 0l-61 50q-3 3 0 8l41 50q4 4 8 1zM624 -111q0 -35 -16.5 -63t-43.5 -49q-30 -24 -63.5 -43.5t-72 -32.5t-82.5 -19t-95 -5q-45 1 -85 15t-70.5 39t-48 62.5t-17.5 86.5q0 50 16 95.5t46 87.5q2 3 4.5 3t4.5 -1.5t2.5 -4 t-0.5 -5.5q-11 -21 -20 -44.5t-14 -46.5t-5 -45.5t6 -43.5q10 -34 31 -57t47.5 -37t56.5 -20t60 -6q48 0 89.5 4.5t77.5 14t68.5 25t62.5 36.5q12 8 16 13.5t4 6.5q0 5 -10 8t-25.5 5.5t-35.5 5t-40.5 7.5t-40.5 12t-36 18.5t-25.5 28.5t-10.5 39q0 16 7.5 37t20.5 43.5 t31.5 44t39.5 38.5t44 27.5t45 10.5q18 0 31.5 -7.5t25.5 -18.5t23 -24t24.5 -24t29 -18.5t37.5 -7.5q37 0 60.5 19t38.5 57q3 7 8.5 6.5t5.5 -10.5q0 -15 3.5 -28.5t14.5 -24t30 -16.5t48 -6h10q15 0 21.5 -12t6.5 -26.5t-7 -26.5t-21 -12h-10q-26 0 -45 4.5t-33 12.5 t-23 19.5t-16 26.5q-12 -19 -24 -30.5t-24 -18t-25 -9t-26 -2.5q-24 0 -43 8t-35 19.5t-28.5 24.5t-24.5 24.5t-23.5 19.5t-23.5 8t-27 -5.5t-30.5 -14t-29.5 -19.5t-25 -22.5t-18 -21.5t-7 -18q0 -12 8 -22t21 -18t30.5 -13.5t35.5 -10t36 -7t33 -4.5q11 -1 22.5 -3 t20.5 -6.5t15 -12t6 -20.5z" />
<glyph unicode="&#xfe98;&#xfef2;" horiz-adv-x="927" d="M624 -111q0 -35 -16.5 -63t-43.5 -49q-30 -24 -63.5 -43.5t-72 -32.5t-82.5 -19t-95 -5q-45 1 -85 15t-70.5 39t-48 62.5t-17.5 86.5q0 50 16 95.5t46 87.5q2 3 4.5 3t4.5 -1.5t2.5 -4t-0.5 -5.5q-11 -21 -20 -44.5t-14 -46.5t-5 -45.5t6 -43.5q10 -34 31 -57t47.5 -37 t56.5 -20t60 -6q48 0 89.5 4.5t77.5 14t68.5 25t62.5 36.5q12 8 16 13.5t4 6.5q0 5 -10 8t-25.5 5.5t-35.5 5t-40.5 7.5t-40.5 12t-36 18.5t-25.5 28.5t-10.5 39q0 16 7.5 37t20.5 43.5t31.5 44t39.5 38.5t44 27.5t45 10.5q18 0 31.5 -7.5t25.5 -18.5t23 -24t24.5 -24 t29 -18.5t37.5 -7.5q37 0 60.5 19t38.5 57q3 7 8.5 6.5t5.5 -10.5q0 -15 3.5 -28.5t14.5 -24t30 -16.5t48 -6h10q15 0 21.5 -12t6.5 -26.5t-7 -26.5t-21 -12h-10q-26 0 -45 4.5t-33 12.5t-23 19.5t-16 26.5q-12 -19 -24 -30.5t-24 -18t-25 -9t-26 -2.5q-24 0 -43 8t-35 19.5 t-28.5 24.5t-24.5 24.5t-23.5 19.5t-23.5 8t-27 -5.5t-30.5 -14t-29.5 -19.5t-25 -22.5t-18 -21.5t-7 -18q0 -12 8 -22t21 -18t30.5 -13.5t35.5 -10t36 -7t33 -4.5q11 -1 22.5 -3t20.5 -6.5t15 -12t6 -20.5zM853 272q-3 -5 -9 -1l-59 46l-37 -52q-2 -2 -4.5 -2.5t-3.5 0.5 l-63 48q-2 1 -2 2t1 4l40 56q3 5 7 2l59 -45l40 51q3 3 7 1l61 -51q2 -3 0 -7z" />
<glyph unicode="&#xfe9c;&#xfef2;" horiz-adv-x="927" d="M624 -111q0 -35 -16.5 -63t-43.5 -49q-30 -24 -63.5 -43.5t-72 -32.5t-82.5 -19t-95 -5q-45 1 -85 15t-70.5 39t-48 62.5t-17.5 86.5q0 50 16 95.5t46 87.5q2 3 4.5 3t4.5 -1.5t2.5 -4t-0.5 -5.5q-11 -21 -20 -44.5t-14 -46.5t-5 -45.5t6 -43.5q10 -34 31 -57t47.5 -37 t56.5 -20t60 -6q48 0 89.5 4.5t77.5 14t68.5 25t62.5 36.5q12 8 16 13.5t4 6.5q0 5 -10 8t-25.5 5.5t-35.5 5t-40.5 7.5t-40.5 12t-36 18.5t-25.5 28.5t-10.5 39q0 16 7.5 37t20.5 43.5t31.5 44t39.5 38.5t44 27.5t45 10.5q18 0 31.5 -7.5t25.5 -18.5t23 -24t24.5 -24 t29 -18.5t37.5 -7.5q37 0 60.5 19t38.5 57q3 7 8.5 6.5t5.5 -10.5q0 -15 3.5 -28.5t14.5 -24t30 -16.5t48 -6h10q15 0 21.5 -12t6.5 -26.5t-7 -26.5t-21 -12h-10q-26 0 -45 4.5t-33 12.5t-23 19.5t-16 26.5q-12 -19 -24 -30.5t-24 -18t-25 -9t-26 -2.5q-24 0 -43 8t-35 19.5 t-28.5 24.5t-24.5 24.5t-23.5 19.5t-23.5 8t-27 -5.5t-30.5 -14t-29.5 -19.5t-25 -22.5t-18 -21.5t-7 -18q0 -12 8 -22t21 -18t30.5 -13.5t35.5 -10t36 -7t33 -4.5q11 -1 22.5 -3t20.5 -6.5t15 -12t6 -20.5zM851 270q-3 -3 -5 -2.5t-4 1.5l-58 45l-37 -51q-2 -2 -4.5 -2.5 t-3.5 0.5l-62 47q-2 1 -2 2.5t1 3.5l39 55q1 2 3 3t4 -1l58 -44l40 51l2.5 2.5t3.5 -1.5l61 -51q4 -2 0 -7zM758 476l60 -49q2 -2 2 -4t-1 -4l-40 -50q-3 -4 -9 0l-60 49q-3 3 0 8l41 49q3 4 7 1z" />
<glyph unicode="&#xfee8;&#xfef2;" horiz-adv-x="927" d="M799 389l60 -50q3 -3 1 -8l-41 -51q-4 -4 -8 0l-61 50q-3 3 0 8l41 50q4 4 8 1zM624 -111q0 -35 -16.5 -63t-43.5 -49q-30 -24 -63.5 -43.5t-72 -32.5t-82.5 -19t-95 -5q-45 1 -85 15t-70.5 39t-48 62.5t-17.5 86.5q0 50 16 95.5t46 87.5q2 3 4.5 3t4.5 -1.5t2.5 -4 t-0.5 -5.5q-11 -21 -20 -44.5t-14 -46.5t-5 -45.5t6 -43.5q10 -34 31 -57t47.5 -37t56.5 -20t60 -6q48 0 89.5 4.5t77.5 14t68.5 25t62.5 36.5q12 8 16 13.5t4 6.5q0 5 -10 8t-25.5 5.5t-35.5 5t-40.5 7.5t-40.5 12t-36 18.5t-25.5 28.5t-10.5 39q0 16 7.5 37t20.5 43.5 t31.5 44t39.5 38.5t44 27.5t45 10.5q18 0 31.5 -7.5t25.5 -18.5t23 -24t24.5 -24t29 -18.5t37.5 -7.5q37 0 60.5 19t38.5 57q3 7 8.5 6.5t5.5 -10.5q0 -15 3.5 -28.5t14.5 -24t30 -16.5t48 -6h10q15 0 21.5 -12t6.5 -26.5t-7 -26.5t-21 -12h-10q-26 0 -45 4.5t-33 12.5 t-23 19.5t-16 26.5q-12 -19 -24 -30.5t-24 -18t-25 -9t-26 -2.5q-24 0 -43 8t-35 19.5t-28.5 24.5t-24.5 24.5t-23.5 19.5t-23.5 8t-27 -5.5t-30.5 -14t-29.5 -19.5t-25 -22.5t-18 -21.5t-7 -18q0 -12 8 -22t21 -18t30.5 -13.5t35.5 -10t36 -7t33 -4.5q11 -1 22.5 -3 t20.5 -6.5t15 -12t6 -20.5z" />
<glyph unicode="&#xfef4;&#xfef2;" horiz-adv-x="927" d="M624 -111q0 -35 -16.5 -63t-43.5 -49q-30 -24 -63.5 -43.5t-72 -32.5t-82.5 -19t-95 -5q-45 1 -85 15t-70.5 39t-48 62.5t-17.5 86.5q0 50 16 95.5t46 87.5q2 3 4.5 3t4.5 -1.5t2.5 -4t-0.5 -5.5q-11 -21 -20 -44.5t-14 -46.5t-5 -45.5t6 -43.5q10 -34 31 -57t47.5 -37 t56.5 -20t60 -6q48 0 89.5 4.5t77.5 14t68.5 25t62.5 36.5q12 8 16 13.5t4 6.5q0 5 -10 8t-25.5 5.5t-35.5 5t-40.5 7.5t-40.5 12t-36 18.5t-25.5 28.5t-10.5 39q0 16 7.5 37t20.5 43.5t31.5 44t39.5 38.5t44 27.5t45 10.5q18 0 31.5 -7.5t25.5 -18.5t23 -24t24.5 -24 t29 -18.5t37.5 -7.5q37 0 60.5 19t38.5 57q3 7 8.5 6.5t5.5 -10.5q0 -15 3.5 -28.5t14.5 -24t30 -16.5t48 -6h10q15 0 21.5 -12t6.5 -26.5t-7 -26.5t-21 -12h-10q-26 0 -45 4.5t-33 12.5t-23 19.5t-16 26.5q-12 -19 -24 -30.5t-24 -18t-25 -9t-26 -2.5q-24 0 -43 8t-35 19.5 t-28.5 24.5t-24.5 24.5t-23.5 19.5t-23.5 8t-27 -5.5t-30.5 -14t-29.5 -19.5t-25 -22.5t-18 -21.5t-7 -18q0 -12 8 -22t21 -18t30.5 -13.5t35.5 -10t36 -7t33 -4.5q11 -1 22.5 -3t20.5 -6.5t15 -12t6 -20.5zM858 -216q-3 -5 -9 -1l-59 46l-37 -52q-2 -2 -4.5 -2.5t-3.5 0.5 l-63 48q-2 1 -2 2t1 4l40 56q3 5 7 2l59 -45l40 51q3 3 7 1l61 -51q2 -3 0 -7z" />
<glyph unicode="&#xfe8c;&#xfef2;" horiz-adv-x="927" d="M624 -111q0 -35 -16.5 -63t-43.5 -49q-30 -24 -63.5 -43.5t-72 -32.5t-82.5 -19t-95 -5q-45 1 -85 15t-70.5 39t-48 62.5t-17.5 86.5q0 50 16 95.5t46 87.5q2 3 4.5 3t4.5 -1.5t2.5 -4t-0.5 -5.5q-11 -21 -20 -44.5t-14 -46.5t-5 -45.5t6 -43.5q10 -34 31 -57t47.5 -37 t56.5 -20t60 -6q48 0 89.5 4.5t77.5 14t68.5 25t62.5 36.5q12 8 16 13.5t4 6.5q0 5 -10 8t-25.5 5.5t-35.5 5t-40.5 7.5t-40.5 12t-36 18.5t-25.5 28.5t-10.5 39q0 16 7.5 37t20.5 43.5t31.5 44t39.5 38.5t44 27.5t45 10.5q18 0 31.5 -7.5t25.5 -18.5t23 -24t24.5 -24 t29 -18.5t37.5 -7.5q37 0 60.5 19t38.5 57q3 7 8.5 6.5t5.5 -10.5q0 -15 3.5 -28.5t14.5 -24t30 -16.5t48 -6h10q15 0 21.5 -12t6.5 -26.5t-7 -26.5t-21 -12h-10q-26 0 -45 4.5t-33 12.5t-23 19.5t-16 26.5q-12 -19 -24 -30.5t-24 -18t-25 -9t-26 -2.5q-24 0 -43 8t-35 19.5 t-28.5 24.5t-24.5 24.5t-23.5 19.5t-23.5 8t-27 -5.5t-30.5 -14t-29.5 -19.5t-25 -22.5t-18 -21.5t-7 -18q0 -12 8 -22t21 -18t30.5 -13.5t35.5 -10t36 -7t33 -4.5q11 -1 22.5 -3t20.5 -6.5t15 -12t6 -20.5zM722.861 278.742q2.60742 1.7168 7.82031 3.86426 q5.21387 2.14746 9.99316 5.15332t9.55859 5.58203t8.25488 5.15332q-9.55859 7.72949 -16.5098 16.7471q-6.95215 9.01758 -13.0342 21.041q-2.60742 5.15234 -1.73828 13.7412q0.869141 8.58789 5.21387 15.459q2.60645 4.29395 10.4277 13.3115 q7.82031 9.01758 18.6826 18.0352q10.8613 9.01758 24.3301 15.8887q13.4697 6.87012 27.373 6.87012q4.34473 0 9.12402 -3.00586t8.25488 -7.72949t6.08301 -9.44629q2.60645 -4.72363 3.47559 -9.01855q2.60645 -9.44629 0 -16.3174q-6.95215 -15.459 -11.2969 -19.3232 q-4.34473 -3.86523 -7.82031 -3.86523q-1.73828 0 -3.04102 2.14746q-1.30371 2.14746 -2.17285 5.15332l-1.73828 6.01172q-0.868164 3.00586 -0.868164 3.86426q-1.73828 4.29395 -7.38672 7.72949t-11.7305 3.43555q-19.9863 0 -37.3652 -14.6006 q6.08203 -15.459 19.1172 -27.9111q13.0342 -12.4531 29.5439 -15.0303q21.7246 -2.57617 41.71 1.28906q19.9863 3.86426 41.71 9.01758q0 -0.859375 -1.7373 -7.30078q-1.73828 -6.44043 -4.34473 -13.7412q-2.60742 -7.2998 -5.21387 -13.3115 q-2.60742 -6.01172 -4.34473 -6.01172q-18.248 -1.71777 -36.4961 -5.58203q-18.249 -3.86523 -38.2344 -9.01758q-20.8555 -6.87109 -42.5791 -16.3184q-21.7236 -9.44629 -40.8408 -18.8936q-4.34473 0 -6.08301 3.43555q2.60645 8.58789 6.51758 17.6055 q3.91016 9.01758 7.38574 15.8887z" />
<glyph unicode="&#xfe9f;&#xfef2;" horiz-adv-x="1327" d="M976 21l60 -50q3 -3 1 -8l-41 -51q-4 -4 -8 0l-61 50q-3 3 0 8l41 50q4 4 8 1zM638 36q0 -35 -16.5 -63t-42.5 -49q-30 -24 -64 -43t-72.5 -32t-82.5 -19.5t-94 -4.5q-45 1 -85.5 14.5t-70.5 39t-48 63t-18 86.5q0 50 16.5 95t45.5 88q2 3 4.5 3t4.5 -2t3 -4.5t-1 -5.5 q-11 -21 -20 -44t-14 -46.5t-5 -46t6 -43.5q10 -34 31 -57t47.5 -36.5t57 -19.5t59.5 -6q48 0 89.5 4.5t77.5 14t68.5 24.5t63.5 37q12 8 15.5 13.5t3.5 6.5q0 5 -9.5 8t-25.5 5.5t-36 5t-40.5 7t-40.5 12t-36 19t-25.5 28t-9.5 39.5q0 16 7 37t20.5 43t31.5 43.5t38 38.5 t41 27.5t41 10.5q21 0 37 -11.5t31 -28.5t31 -37.5t36.5 -37.5t47 -28.5t63.5 -11.5q33 0 66 11t64 26.5t58.5 33t48.5 31.5q-42 13 -81.5 23t-77.5 11q-26 0 -52 -8.5t-45 -28.5q-4 -4 -8.5 -2t-3.5 6q6 27 15.5 49t24.5 36.5t35 21.5t46 5t51.5 -9t51.5 -15t53.5 -16 t57.5 -13q37 -7 84 -11.5t97 -2.5q5 0 4 -6q-7 -17 -15 -33.5t-15 -33.5q-21 5 -40 5.5t-36 0.5q-31 0 -62.5 -11.5t-64 -28.5t-65 -37.5t-65.5 -37.5t-66.5 -28.5t-67.5 -11.5q-40 0 -70.5 11.5t-54 29t-41.5 37.5t-32.5 37.5t-27 29t-25.5 11.5q-18 0 -40.5 -11.5 t-42.5 -27.5t-33.5 -33t-13.5 -28q0 -12 8 -22t21.5 -18t30.5 -14t35 -10.5t36 -7t33 -3.5q11 -1 22.5 -3t20.5 -7t15 -12.5t6 -20.5z" />
<glyph unicode="&#xfea3;&#xfef2;" horiz-adv-x="1327" d="M638 36q0 -35 -16.5 -63t-42.5 -49q-30 -24 -64 -43t-72.5 -32t-82.5 -19.5t-94 -4.5q-45 1 -85.5 14.5t-70.5 39t-48 63t-18 86.5q0 50 16.5 95t45.5 88q2 3 4.5 3t4.5 -2t3 -4.5t-1 -5.5q-11 -21 -20 -44t-14 -46.5t-5 -46t6 -43.5q10 -34 31 -57t47.5 -36.5t57 -19.5 t59.5 -6q48 0 89.5 4.5t77.5 14t68.5 24.5t63.5 37q12 8 15.5 13.5t3.5 6.5q0 5 -9.5 8t-25.5 5.5t-36 5t-40.5 7t-40.5 12t-36 19t-25.5 28t-9.5 39.5q0 16 7 37t20.5 43t31.5 43.5t38 38.5t41 27.5t41 10.5q21 0 37 -11.5t31 -28.5t31 -37.5t36.5 -37.5t47 -28.5 t63.5 -11.5q33 0 66 11t64 26.5t58.5 33t48.5 31.5q-42 13 -81.5 23t-77.5 11q-26 0 -52 -8.5t-45 -28.5q-4 -4 -8.5 -2t-3.5 6q6 27 15.5 49t24.5 36.5t35 21.5t46 5t51.5 -9t51.5 -15t53.5 -16t57.5 -13q37 -7 84 -11.5t97 -2.5q5 0 4 -6q-7 -17 -15 -33.5t-15 -33.5 q-21 5 -40 5.5t-36 0.5q-31 0 -62.5 -11.5t-64 -28.5t-65 -37.5t-65.5 -37.5t-66.5 -28.5t-67.5 -11.5q-40 0 -70.5 11.5t-54 29t-41.5 37.5t-32.5 37.5t-27 29t-25.5 11.5q-18 0 -40.5 -11.5t-42.5 -27.5t-33.5 -33t-13.5 -28q0 -12 8 -22t21.5 -18t30.5 -14t35 -10.5 t36 -7t33 -3.5q11 -1 22.5 -3t20.5 -7t15 -12.5t6 -20.5z" />
<glyph unicode="&#xfea7;&#xfef2;" horiz-adv-x="1327" d="M975 602l60 -50q3 -3 1 -8l-41 -51q-4 -4 -8 0l-61 50q-3 3 0 8l41 50q4 4 8 1zM638 36q0 -35 -16.5 -63t-42.5 -49q-30 -24 -64 -43t-72.5 -32t-82.5 -19.5t-94 -4.5q-45 1 -85.5 14.5t-70.5 39t-48 63t-18 86.5q0 50 16.5 95t45.5 88q2 3 4.5 3t4.5 -2t3 -4.5t-1 -5.5 q-11 -21 -20 -44t-14 -46.5t-5 -46t6 -43.5q10 -34 31 -57t47.5 -36.5t57 -19.5t59.5 -6q48 0 89.5 4.5t77.5 14t68.5 24.5t63.5 37q12 8 15.5 13.5t3.5 6.5q0 5 -9.5 8t-25.5 5.5t-36 5t-40.5 7t-40.5 12t-36 19t-25.5 28t-9.5 39.5q0 16 7 37t20.5 43t31.5 43.5t38 38.5 t41 27.5t41 10.5q21 0 37 -11.5t31 -28.5t31 -37.5t36.5 -37.5t47 -28.5t63.5 -11.5q33 0 66 11t64 26.5t58.5 33t48.5 31.5q-42 13 -81.5 23t-77.5 11q-26 0 -52 -8.5t-45 -28.5q-4 -4 -8.5 -2t-3.5 6q6 27 15.5 49t24.5 36.5t35 21.5t46 5t51.5 -9t51.5 -15t53.5 -16 t57.5 -13q37 -7 84 -11.5t97 -2.5q5 0 4 -6q-7 -17 -15 -33.5t-15 -33.5q-21 5 -40 5.5t-36 0.5q-31 0 -62.5 -11.5t-64 -28.5t-65 -37.5t-65.5 -37.5t-66.5 -28.5t-67.5 -11.5q-40 0 -70.5 11.5t-54 29t-41.5 37.5t-32.5 37.5t-27 29t-25.5 11.5q-18 0 -40.5 -11.5 t-42.5 -27.5t-33.5 -33t-13.5 -28q0 -12 8 -22t21.5 -18t30.5 -14t35 -10.5t36 -7t33 -3.5q11 -1 22.5 -3t20.5 -7t15 -12.5t6 -20.5z" />
<glyph unicode="&#xfea0;&#xfef2;" horiz-adv-x="1347" d="M976 -77l60 -50q3 -3 1 -8l-41 -51q-4 -4 -8 0l-61 50q-3 3 0 8l41 50q4 4 8 1zM638 -62q0 -35 -16.5 -62.5t-42.5 -48.5q-30 -24 -64 -43.5t-72.5 -32.5t-82.5 -19t-94 -5q-45 1 -85.5 14.5t-70.5 39t-48 63t-18 86.5q0 50 16.5 95t45.5 88q2 3 4.5 3t4.5 -1.5t3 -4.5 t-1 -6q-11 -21 -20 -44t-14 -46t-5 -46t6 -44q10 -34 31 -56.5t47.5 -36.5t57 -20t59.5 -6q48 0 89.5 4.5t77.5 14t68.5 25t63.5 36.5q12 8 15.5 13.5t3.5 6.5q0 5 -9.5 8t-25.5 5.5t-36 5t-40.5 7.5t-40.5 12t-36 18.5t-25.5 28t-9.5 39.5q0 16 7 37t20.5 43t31.5 44 t38 38.5t41 27t41 10.5q19 0 33.5 -11t29.5 -28.5t32 -37.5t38.5 -37t51 -28.5t68.5 -11.5q33 0 65 10.5t61.5 26t56 33.5t47.5 31q-42 13 -81.5 23t-77.5 11q-26 0 -52 -8.5t-45 -27.5q-4 -4 -8.5 -2.5t-3.5 6.5q6 27 15.5 48.5t24.5 36t35 21.5t46 5t51.5 -9t51.5 -14.5 t53.5 -15.5t57.5 -14q37 -7 84 -11.5t97 -1.5q5 0 4 -6q-7 -17 -15 -33.5t-15 -34.5q-9 1 -15 2t-11 2t-11 1.5t-15 1.5q-3 -20 2.5 -34t16.5 -22.5t26.5 -13t32 -7t33 -2.5h30.5h9q15 0 22 -12t7 -26.5t-7 -26.5t-22 -12h-9q-42 0 -75 3.5t-55.5 19t-34 46.5t-8.5 85 q-28 0 -57.5 -11.5t-60 -28.5t-62.5 -37t-64.5 -37t-65.5 -28.5t-66 -11.5q-40 0 -71 11.5t-56 29t-44.5 38t-35 37.5t-28 29t-23.5 12q-18 0 -40.5 -12t-42.5 -28t-33.5 -33t-13.5 -28q0 -12 8 -22t21.5 -18t30.5 -13.5t35 -10t36 -7.5t33 -4q11 -1 22.5 -3t20.5 -6.5 t15 -12.5t6 -21z" />
<glyph unicode="&#xfea4;&#xfef2;" horiz-adv-x="1347" d="M638 -62q0 -35 -16.5 -62.5t-42.5 -48.5q-30 -24 -64 -43.5t-72.5 -32.5t-82.5 -19t-94 -5q-45 1 -85.5 14.5t-70.5 39t-48 63t-18 86.5q0 50 16.5 95t45.5 88q2 3 4.5 3t4.5 -1.5t3 -4.5t-1 -6q-11 -21 -20 -44t-14 -46t-5 -46t6 -44q10 -34 31 -56.5t47.5 -36.5t57 -20 t59.5 -6q48 0 89.5 4.5t77.5 14t68.5 25t63.5 36.5q12 8 15.5 13.5t3.5 6.5q0 5 -9.5 8t-25.5 5.5t-36 5t-40.5 7.5t-40.5 12t-36 18.5t-25.5 28t-9.5 39.5q0 16 7 37t20.5 43t31.5 44t38 38.5t41 27t41 10.5q19 0 33.5 -11t29.5 -28.5t32 -37.5t38.5 -37t51 -28.5 t68.5 -11.5q33 0 65 10.5t61.5 26t56 33.5t47.5 31q-42 13 -81.5 23t-77.5 11q-26 0 -52 -8.5t-45 -27.5q-4 -4 -8.5 -2.5t-3.5 6.5q6 27 15.5 48.5t24.5 36t35 21.5t46 5t51.5 -9t51.5 -14.5t53.5 -15.5t57.5 -14q37 -7 84 -11.5t97 -1.5q5 0 4 -6q-7 -17 -15 -33.5 t-15 -34.5q-9 1 -15 2t-11 2t-11 1.5t-15 1.5q-3 -20 2.5 -34t16.5 -22.5t26.5 -13t32 -7t33 -2.5h30.5h9q15 0 22 -12t7 -26.5t-7 -26.5t-22 -12h-9q-42 0 -75 3.5t-55.5 19t-34 46.5t-8.5 85q-28 0 -57.5 -11.5t-60 -28.5t-62.5 -37t-64.5 -37t-65.5 -28.5t-66 -11.5 q-40 0 -71 11.5t-56 29t-44.5 38t-35 37.5t-28 29t-23.5 12q-18 0 -40.5 -12t-42.5 -28t-33.5 -33t-13.5 -28q0 -12 8 -22t21.5 -18t30.5 -13.5t35 -10t36 -7.5t33 -4q11 -1 22.5 -3t20.5 -6.5t15 -12.5t6 -21z" />
<glyph unicode="&#xfea8;&#xfef2;" horiz-adv-x="1347" d="M975 505l60 -50q3 -3 1 -8l-41 -51q-4 -4 -8 0l-61 50q-3 3 0 8l41 50q4 4 8 1zM638 -62q0 -35 -16.5 -62.5t-42.5 -48.5q-30 -24 -64 -43.5t-72.5 -32.5t-82.5 -19t-94 -5q-45 1 -85.5 14.5t-70.5 39t-48 63t-18 86.5q0 50 16.5 95t45.5 88q2 3 4.5 3t4.5 -1.5t3 -4.5 t-1 -6q-11 -21 -20 -44t-14 -46t-5 -46t6 -44q10 -34 31 -56.5t47.5 -36.5t57 -20t59.5 -6q48 0 89.5 4.5t77.5 14t68.5 25t63.5 36.5q12 8 15.5 13.5t3.5 6.5q0 5 -9.5 8t-25.5 5.5t-36 5t-40.5 7.5t-40.5 12t-36 18.5t-25.5 28t-9.5 39.5q0 16 7 37t20.5 43t31.5 44 t38 38.5t41 27t41 10.5q19 0 33.5 -11t29.5 -28.5t32 -37.5t38.5 -37t51 -28.5t68.5 -11.5q33 0 65 10.5t61.5 26t56 33.5t47.5 31q-42 13 -81.5 23t-77.5 11q-26 0 -52 -8.5t-45 -27.5q-4 -4 -8.5 -2.5t-3.5 6.5q6 27 15.5 48.5t24.5 36t35 21.5t46 5t51.5 -9t51.5 -14.5 t53.5 -15.5t57.5 -14q37 -7 84 -11.5t97 -1.5q5 0 4 -6q-7 -17 -15 -33.5t-15 -34.5q-9 1 -15 2t-11 2t-11 1.5t-15 1.5q-3 -20 2.5 -34t16.5 -22.5t26.5 -13t32 -7t33 -2.5h30.5h9q15 0 22 -12t7 -26.5t-7 -26.5t-22 -12h-9q-42 0 -75 3.5t-55.5 19t-34 46.5t-8.5 85 q-28 0 -57.5 -11.5t-60 -28.5t-62.5 -37t-64.5 -37t-65.5 -28.5t-66 -11.5q-40 0 -71 11.5t-56 29t-44.5 38t-35 37.5t-28 29t-23.5 12q-18 0 -40.5 -12t-42.5 -28t-33.5 -33t-13.5 -28q0 -12 8 -22t21.5 -18t30.5 -13.5t35 -10t36 -7.5t33 -4q11 -1 22.5 -3t20.5 -6.5 t15 -12.5t6 -21z" />
<glyph unicode="&#xfeb3;&#xfef2;" horiz-adv-x="1304" d="M639 33q0 -35 -16.5 -63t-42.5 -49q-30 -24 -64 -43t-72.5 -32t-82.5 -19.5t-94 -4.5q-45 1 -85.5 14.5t-70.5 39t-48 63t-18 86.5q0 50 16.5 95t45.5 88q2 3 4.5 3t4.5 -1.5t3 -4.5t-1 -6q-11 -21 -20 -44t-14 -46.5t-5 -46t6 -43.5q10 -34 31 -57t47.5 -36.5 t56.5 -19.5t60 -6q48 0 89.5 4.5t77.5 14t68.5 24.5t63.5 37q12 8 15.5 13.5t3.5 6.5q0 5 -9.5 8t-25.5 5.5t-36 5t-40.5 7t-40.5 12t-36 19t-25.5 28t-9.5 39.5q0 16 7.5 37t21 43t31 44t37.5 38.5t41 27t41 10.5q19 0 34.5 -10t30.5 -25.5t30.5 -33t33.5 -32.5t39.5 -25.5 t49.5 -10.5q22 0 42 3.5t38 15t33.5 32.5t30.5 54q2 5 5.5 8t6.5 3t5 -3t1 -8q-4 -25 -11 -47t-16 -40q26 -6 55 -4.5t55.5 13t49 34t35.5 59.5q2 5 5.5 8t7 3t5.5 -3t1 -9q-3 -13 -6.5 -23.5l-8.5 -25.5q2 -9 15.5 -19.5t32 -18.5t39 -10t36.5 5q0 18 -4.5 39t-12.5 39 q6 15 13.5 31t16.5 31q3 5 7 1q6 -18 9.5 -37.5t5 -39t0.5 -37t-4 -30.5q-2 -9 -6.5 -20.5t-11.5 -22.5t-16 -19.5t-21 -11.5q-18 -4 -36 -1.5t-35 10.5t-31.5 20.5t-25.5 27.5q-21 -28 -48 -43.5t-56.5 -20.5t-58.5 -0.5t-52 16.5q-14 -14 -38.5 -25.5t-59.5 -11.5 q-31 0 -56 10.5t-45.5 26.5t-38 34.5t-32 34t-28 26t-26.5 10.5q-12 0 -26 -5t-28 -14t-27.5 -20t-23.5 -22t-16 -21.5t-6 -17.5q0 -12 8 -22t21.5 -18t30.5 -14t35 -10t36 -7t33 -4q11 -1 22.5 -3t20.5 -6.5t15 -12.5t6 -21z" />
<glyph unicode="&#xfeb7;&#xfef2;" horiz-adv-x="1304" d="M639 33q0 -35 -16.5 -63t-42.5 -49q-30 -24 -64 -43t-72.5 -32t-82.5 -19.5t-94 -4.5q-45 1 -85.5 14.5t-70.5 39t-48 63t-18 86.5q0 50 16.5 95t45.5 88q2 3 4.5 3t4.5 -1.5t3 -4.5t-1 -6q-11 -21 -20 -44t-14 -46.5t-5 -46t6 -43.5q10 -34 31 -57t47.5 -36.5 t56.5 -19.5t60 -6q48 0 89.5 4.5t77.5 14t68.5 24.5t63.5 37q12 8 15.5 13.5t3.5 6.5q0 5 -9.5 8t-25.5 5.5t-36 5t-40.5 7t-40.5 12t-36 19t-25.5 28t-9.5 39.5q0 16 7.5 37t21 43t31 44t37.5 38.5t41 27t41 10.5q19 0 34.5 -10t30.5 -25.5t30.5 -33t33.5 -32.5t39.5 -25.5 t49.5 -10.5q22 0 42 3.5t38 15t33.5 32.5t30.5 54q2 5 5.5 8t6.5 3t5 -3t1 -8q-4 -25 -11 -47t-16 -40q26 -6 55 -4.5t55.5 13t49 34t35.5 59.5q2 5 5.5 8t7 3t5.5 -3t1 -9q-3 -13 -6.5 -23.5l-8.5 -25.5q2 -9 15.5 -19.5t32 -18.5t39 -10t36.5 5q0 18 -4.5 39t-12.5 39 q6 15 13.5 31t16.5 31q3 5 7 1q6 -18 9.5 -37.5t5 -39t0.5 -37t-4 -30.5q-2 -9 -6.5 -20.5t-11.5 -22.5t-16 -19.5t-21 -11.5q-18 -4 -36 -1.5t-35 10.5t-31.5 20.5t-25.5 27.5q-21 -28 -48 -43.5t-56.5 -20.5t-58.5 -0.5t-52 16.5q-14 -14 -38.5 -25.5t-59.5 -11.5 q-31 0 -56 10.5t-45.5 26.5t-38 34.5t-32 34t-28 26t-26.5 10.5q-12 0 -26 -5t-28 -14t-27.5 -20t-23.5 -22t-16 -21.5t-6 -17.5q0 -12 8 -22t21.5 -18t30.5 -14t35 -10t36 -7t33 -4q11 -1 22.5 -3t20.5 -6.5t15 -12.5t6 -21zM1141 438q-3 -3 -5 -2.5t-4 1.5l-58 45l-37 -51 q-2 -2 -4.5 -2.5t-3.5 0.5l-62 47q-2 1 -2 2.5t1 3.5l39 55q1 2 3 3t4 -1l58 -44l40 51l2.5 2.5t3.5 -1.5l61 -51q4 -2 0 -7zM1048 644l60 -49q2 -2 2 -4t-1 -4l-40 -50q-3 -4 -9 0l-60 49q-3 3 0 8l41 49q3 4 7 1z" />
<glyph unicode="&#xfeb4;&#xfef2;" horiz-adv-x="1382" d="M640 -96q0 -35 -17 -63t-43 -49q-30 -24 -64 -43t-72 -32t-82 -19.5t-95 -4.5q-45 1 -85 14.5t-70.5 39t-48 63t-17.5 86.5q0 50 16 95t46 88q2 3 4.5 3t4.5 -1.5t2.5 -4.5t-0.5 -6q-11 -21 -20.5 -44t-14 -46t-4.5 -46t6 -44q10 -34 30.5 -56.5t47 -36.5t57 -20t60.5 -6 q48 0 89.5 4.5t77 14t68 25t63.5 36.5q12 8 16 13.5t4 6.5q0 5 -10 8t-25.5 5.5t-35.5 5t-41 7t-41 12t-35.5 19t-25.5 28t-10 39.5q0 16 7.5 37t21 43t31 44t37.5 38.5t41 27t41 10.5q18 0 34 -10t31.5 -25t31.5 -33.5t34 -33.5t39.5 -25t46.5 -10q20 0 39.5 3t38 14 t35.5 32t32 57q2 5 5.5 7.5t7 2.5t5.5 -3t1 -8q-4 -25 -11 -47t-16 -40q10 -2 25 -3.5t32.5 0t36.5 7t37.5 17.5t34.5 31.5t29 49.5q2 5 5.5 8t7 3t6 -3t1.5 -9q-2 -14 -7.5 -30t-9.5 -27q3 -9 16 -17.5t28 -14t30 -7t24 1.5q7 2 14 11.5t12.5 22.5t10.5 28.5t8 29.5 q1 6 4.5 9.5t6.5 3.5t5.5 -3t1.5 -8q-5 -49 22.5 -74.5t92.5 -25.5h9q15 0 22.5 -12t7.5 -26.5t-7.5 -26.5t-22.5 -12h-9q-35 0 -59 7t-40.5 17.5t-26.5 23.5t-17 25q-3 -7 -8.5 -18t-12.5 -21t-15.5 -17t-17.5 -7q-32 0 -62 12.5t-49 35.5l-1 1q-21 -26 -48 -40.5 t-56 -18.5t-57 0.5t-50 16.5q-21 -19 -46 -28t-52 -9q-30 0 -55 10.5t-45.5 26.5t-38 34.5t-32.5 34.5t-28.5 26.5t-25.5 10.5t-26.5 -5.5t-28.5 -14.5t-27 -20t-23 -22t-16 -21.5t-6 -17.5q0 -12 8 -22t21 -18t30 -14t35.5 -10t36.5 -7t33 -4q11 -1 22 -3t20.5 -6.5 t15.5 -12.5t6 -21z" />
<glyph unicode="&#xfeb8;&#xfef2;" horiz-adv-x="1382" d="M640 -96q0 -35 -17 -63t-43 -49q-30 -24 -64 -43t-72 -32t-82 -19.5t-95 -4.5q-45 1 -85 14.5t-70.5 39t-48 63t-17.5 86.5q0 50 16 95t46 88q2 3 4.5 3t4.5 -1.5t2.5 -4.5t-0.5 -6q-11 -21 -20.5 -44t-14 -46t-4.5 -46t6 -44q10 -34 30.5 -56.5t47 -36.5t57 -20t60.5 -6 q48 0 89.5 4.5t77 14t68 25t63.5 36.5q12 8 16 13.5t4 6.5q0 5 -10 8t-25.5 5.5t-35.5 5t-41 7t-41 12t-35.5 19t-25.5 28t-10 39.5q0 16 7.5 37t21 43t31 44t37.5 38.5t41 27t41 10.5q18 0 34 -10t31.5 -25t31.5 -33.5t34 -33.5t39.5 -25t46.5 -10q20 0 39.5 3t38 14 t35.5 32t32 57q2 5 5.5 7.5t7 2.5t5.5 -3t1 -8q-4 -25 -11 -47t-16 -40q10 -2 25 -3.5t32.5 0t36.5 7t37.5 17.5t34.5 31.5t29 49.5q2 5 5.5 8t7 3t6 -3t1.5 -9q-2 -14 -7.5 -30t-9.5 -27q3 -9 16 -17.5t28 -14t30 -7t24 1.5q7 2 14 11.5t12.5 22.5t10.5 28.5t8 29.5 q1 6 4.5 9.5t6.5 3.5t5.5 -3t1.5 -8q-5 -49 22.5 -74.5t92.5 -25.5h9q15 0 22.5 -12t7.5 -26.5t-7.5 -26.5t-22.5 -12h-9q-35 0 -59 7t-40.5 17.5t-26.5 23.5t-17 25q-3 -7 -8.5 -18t-12.5 -21t-15.5 -17t-17.5 -7q-32 0 -62 12.5t-49 35.5l-1 1q-21 -26 -48 -40.5 t-56 -18.5t-57 0.5t-50 16.5q-21 -19 -46 -28t-52 -9q-30 0 -55 10.5t-45.5 26.5t-38 34.5t-32.5 34.5t-28.5 26.5t-25.5 10.5t-26.5 -5.5t-28.5 -14.5t-27 -20t-23 -22t-16 -21.5t-6 -17.5q0 -12 8 -22t21 -18t30 -14t35.5 -10t36.5 -7t33 -4q11 -1 22 -3t20.5 -6.5 t15.5 -12.5t6 -21zM1163 308q-3 -3 -5 -2.5t-4 1.5l-58 45l-37 -51q-2 -2 -4.5 -2.5t-3.5 0.5l-62 47q-2 1 -2 2.5t1 3.5l39 55q1 2 3 3t4 -1l58 -44l40 51l2.5 2.5t3.5 -1.5l61 -51q4 -2 0 -7zM1070 514l60 -49q2 -2 2 -4t-1 -4l-40 -50q-3 -4 -9 0l-60 49q-3 3 0 8l41 49 q3 4 7 1z" />
<glyph unicode="&#xfebb;&#xfef2;" horiz-adv-x="1450" d="M1040 206q23 -4 52.5 -4t61 3.5t64 10.5t61.5 17.5t53 24t40 29.5q-11 21 -30.5 35t-42.5 21.5t-46.5 7.5t-42.5 -7q-25 -10 -48 -25t-44.5 -33t-40.5 -38.5t-37 -41.5zM639 35q0 -35 -17 -63t-43 -49q-30 -24 -68.5 -42.5t-80 -31.5t-84 -18.5t-80.5 -4.5 q-45 1 -85 14.5t-70.5 39t-48 63t-17.5 86.5q0 50 16 95t46 88q2 3 4.5 3t4.5 -1.5t2.5 -4t-0.5 -5.5q-11 -21 -20 -44.5t-14 -46.5t-5 -46t6 -44q10 -34 30.5 -56.5t47 -36.5t57 -20t60.5 -6q38 0 78 4.5t79 13.5t74.5 23.5t66.5 36.5q12 8 16 13.5t4 6.5q0 7 -16.5 10.5 t-41 7t-53.5 9.5t-54 18t-41.5 31.5t-17.5 49.5q0 16 6 37.5t17.5 44.5t27.5 45.5t36 40.5t42.5 29t46.5 11q17 0 33 -9.5t31.5 -23.5t31.5 -30.5t33.5 -30.5t37.5 -23.5t45 -9.5q26 0 46.5 8.5t35.5 21.5t25 29.5t15 32.5q3 8 10 8t7 -11q0 -13 7 -27t19.5 -27t30.5 -22.5 t39 -13.5q23 29 48 57t52 54t57.5 49.5t64.5 42.5q15 8 34.5 10.5t41 0t43 -9.5t38.5 -19t27.5 -28.5t11.5 -36.5q-1 -45 -20.5 -78.5t-51 -57.5t-72 -38t-83.5 -22q-27 -4 -54.5 -5.5t-54 -1.5t-51.5 2.5t-46 6.5q-4 -6 -9 -17t-7 -18q-5 -13 -14 -11q-4 1 -6 6.5t0 11.5 q2 9 4.5 17.5t6.5 18.5q-26 10 -44.5 22t-34.5 34q-10 -17 -24.5 -29t-30.5 -20t-32.5 -12t-31.5 -4q-30 0 -54.5 9.5t-44.5 24t-37 31.5l-31.5 31.5t-28 24t-27.5 9.5q-12 0 -26 -6t-28 -15.5t-27 -21.5t-23 -24t-15.5 -22.5t-5.5 -18.5q0 -12 8 -21.5t21 -17t30 -12.5 t35.5 -9t36.5 -6.5t33 -3.5q11 -1 22 -4t20.5 -9t15.5 -15t6 -22z" />
<glyph unicode="&#xfebf;&#xfef2;" horiz-adv-x="1450" d="M1089 589l60 -50q3 -3 1 -8l-41 -51q-4 -4 -8 0l-61 50q-3 3 0 8l41 50q4 4 8 1zM1040 206q23 -4 52.5 -4t61 3.5t64 10.5t61.5 17.5t53 24t40 29.5q-11 21 -30.5 35t-42.5 21.5t-46.5 7.5t-42.5 -7q-25 -10 -48 -25t-44.5 -33t-40.5 -38.5t-37 -41.5zM639 35 q0 -35 -17 -63t-43 -49q-30 -24 -68.5 -42.5t-80 -31.5t-84 -18.5t-80.5 -4.5q-45 1 -85 14.5t-70.5 39t-48 63t-17.5 86.5q0 50 16 95t46 88q2 3 4.5 3t4.5 -1.5t2.5 -4t-0.5 -5.5q-11 -21 -20 -44.5t-14 -46.5t-5 -46t6 -44q10 -34 30.5 -56.5t47 -36.5t57 -20t60.5 -6 q38 0 78 4.5t79 13.5t74.5 23.5t66.5 36.5q12 8 16 13.5t4 6.5q0 7 -16.5 10.5t-41 7t-53.5 9.5t-54 18t-41.5 31.5t-17.5 49.5q0 16 6 37.5t17.5 44.5t27.5 45.5t36 40.5t42.5 29t46.5 11q17 0 33 -9.5t31.5 -23.5t31.5 -30.5t33.5 -30.5t37.5 -23.5t45 -9.5q26 0 46.5 8.5 t35.5 21.5t25 29.5t15 32.5q3 8 10 8t7 -11q0 -13 7 -27t19.5 -27t30.5 -22.5t39 -13.5q23 29 48 57t52 54t57.5 49.5t64.5 42.5q15 8 34.5 10.5t41 0t43 -9.5t38.5 -19t27.5 -28.5t11.5 -36.5q-1 -45 -20.5 -78.5t-51 -57.5t-72 -38t-83.5 -22q-27 -4 -54.5 -5.5t-54 -1.5 t-51.5 2.5t-46 6.5q-4 -6 -9 -17t-7 -18q-5 -13 -14 -11q-4 1 -6 6.5t0 11.5q2 9 4.5 17.5t6.5 18.5q-26 10 -44.5 22t-34.5 34q-10 -17 -24.5 -29t-30.5 -20t-32.5 -12t-31.5 -4q-30 0 -54.5 9.5t-44.5 24t-37 31.5l-31.5 31.5t-28 24t-27.5 9.5q-12 0 -26 -6t-28 -15.5 t-27 -21.5t-23 -24t-15.5 -22.5t-5.5 -18.5q0 -12 8 -21.5t21 -17t30 -12.5t35.5 -9t36.5 -6.5t33 -3.5q11 -1 22 -4t20.5 -9t15.5 -15t6 -22z" />
<glyph unicode="&#xfebc;&#xfef2;" horiz-adv-x="1475" d="M1144 90q28 -3 66 -5.5t81.5 -4t90.5 -2.5t93 -1h9q16 0 23.5 -12t7.5 -26.5t-8 -26.5t-23 -12h-9q-16 0 -39.5 0.5t-53.5 1t-63.5 2t-68 3.5t-68 4t-62.5 4zM641 -69q0 -35 -16.5 -63t-42.5 -49q-30 -24 -68.5 -43t-80.5 -31.5t-84 -18.5t-80 -4q-45 1 -85.5 14.5 t-70.5 39t-48 62.5t-18 87t16.5 95t45.5 88q2 3 4.5 3t4.5 -2t3 -4.5t-1 -5.5q-11 -21 -19.5 -44.5t-13.5 -46.5t-5.5 -45.5t5.5 -43.5q10 -34 31 -57t47.5 -36.5t56.5 -19.5t60 -6q38 0 78 4t79 13t75 24t67 36q12 8 15.5 13.5t3.5 6.5q0 7 -16.5 10.5t-41 7t-53.5 10 t-53.5 18t-41.5 31t-18 50.5q0 16 6 37.5t17.5 44.5t28 45.5t36 40t42 28.5t47.5 11q17 0 33 -9.5t32 -23.5t33 -31t35.5 -31.5t39.5 -24t45 -9.5q25 0 43.5 7t32.5 19t23.5 28t16.5 33q1 4 4 6t5.5 2t4.5 -3t2 -8q0 -13 7 -27t20 -26.5t30.5 -22.5t39.5 -13q23 29 47.5 57 t51.5 53.5t57.5 49t64.5 42.5q15 8 35 10.5t41.5 0.5t42.5 -9.5t38 -19.5t28 -28.5t11 -36.5q-1 -45 -20.5 -78.5t-51 -57t-71.5 -38t-83 -21.5q-27 -4 -55 -6t-54.5 -1.5t-51 3t-46.5 5.5q-4 -6 -8.5 -16.5t-7.5 -18.5q-5 -13 -14 -10q-4 1 -5.5 6t-0.5 12q2 9 5 17t6 18 q-26 10 -43.5 22t-33.5 34q-14 -18 -28.5 -30t-29 -18.5t-28.5 -9.5t-27 -3q-32 0 -57 10t-46 25t-38.5 32t-32.5 32t-29 25t-28 10q-12 0 -26 -6.5t-28 -16t-26.5 -21t-22.5 -23.5t-16 -23t-6 -18q0 -12 8 -21.5t21.5 -17t30.5 -13t35 -9t36 -6t33 -4.5q11 -1 22.5 -4 t20.5 -9t15 -14.5t6 -21.5zM1042 94q23 -4 52.5 -4t61.5 4t64 10.5t61 17t53 24t40 29.5q-11 21 -30.5 35.5t-42 21.5t-46.5 7t-43 -7q-25 -10 -48 -25t-44 -33t-40.5 -38.5t-37.5 -41.5z" />
<glyph unicode="&#xfec0;&#xfef2;" horiz-adv-x="1475" d="M1092 477l60 -50q3 -3 1 -8l-41 -51q-4 -4 -8 0l-61 50q-3 3 0 8l41 50q4 4 8 1zM1144 90q28 -3 66 -5.5t81.5 -4t90.5 -2.5t93 -1h9q16 0 23.5 -12t7.5 -26.5t-8 -26.5t-23 -12h-9q-16 0 -39.5 0.5t-53.5 1t-63.5 2t-68 3.5t-68 4t-62.5 4zM641 -69q0 -35 -16.5 -63 t-42.5 -49q-30 -24 -68.5 -43t-80.5 -31.5t-84 -18.5t-80 -4q-45 1 -85.5 14.5t-70.5 39t-48 62.5t-18 87t16.5 95t45.5 88q2 3 4.5 3t4.5 -2t3 -4.5t-1 -5.5q-11 -21 -19.5 -44.5t-13.5 -46.5t-5.5 -45.5t5.5 -43.5q10 -34 31 -57t47.5 -36.5t56.5 -19.5t60 -6q38 0 78 4 t79 13t75 24t67 36q12 8 15.5 13.5t3.5 6.5q0 7 -16.5 10.5t-41 7t-53.5 10t-53.5 18t-41.5 31t-18 50.5q0 16 6 37.5t17.5 44.5t28 45.5t36 40t42 28.5t47.5 11q17 0 33 -9.5t32 -23.5t33 -31t35.5 -31.5t39.5 -24t45 -9.5q25 0 43.5 7t32.5 19t23.5 28t16.5 33q1 4 4 6 t5.5 2t4.5 -3t2 -8q0 -13 7 -27t20 -26.5t30.5 -22.5t39.5 -13q23 29 47.5 57t51.5 53.5t57.5 49t64.5 42.5q15 8 35 10.5t41.5 0.5t42.5 -9.5t38 -19.5t28 -28.5t11 -36.5q-1 -45 -20.5 -78.5t-51 -57t-71.5 -38t-83 -21.5q-27 -4 -55 -6t-54.5 -1.5t-51 3t-46.5 5.5 q-4 -6 -8.5 -16.5t-7.5 -18.5q-5 -13 -14 -10q-4 1 -5.5 6t-0.5 12q2 9 5 17t6 18q-26 10 -43.5 22t-33.5 34q-14 -18 -28.5 -30t-29 -18.5t-28.5 -9.5t-27 -3q-32 0 -57 10t-46 25t-38.5 32t-32.5 32t-29 25t-28 10q-12 0 -26 -6.5t-28 -16t-26.5 -21t-22.5 -23.5t-16 -23 t-6 -18q0 -12 8 -21.5t21.5 -17t30.5 -13t35 -9t36 -6t33 -4.5q11 -1 22.5 -4t20.5 -9t15 -14.5t6 -21.5zM1042 94q23 -4 52.5 -4t61.5 4t64 10.5t61 17t53 24t40 29.5q-11 21 -30.5 35.5t-42 21.5t-46.5 7t-43 -7q-25 -10 -48 -25t-44 -33t-40.5 -38.5t-37.5 -41.5z" />
<glyph unicode="&#xfec3;&#xfef2;" horiz-adv-x="1227" d="M1196 309q-3 -40 -20.5 -70t-46.5 -46q-64 -37 -152.5 -51.5t-205.5 -14.5q-36 0 -63 10t-48 24.5t-37.5 31.5t-30 32t-25.5 24.5t-25 9.5q-18 0 -40.5 -11.5t-42.5 -27.5t-33 -33.5t-13 -27.5q0 -12 8 -22t21 -17t30 -12.5t35.5 -9t36.5 -6t33 -4.5q11 -1 22 -4t20.5 -9 t15.5 -15t6 -21q0 -35 -17 -63t-43 -49q-30 -24 -68.5 -43t-80 -31.5t-84 -18.5t-80.5 -4q-45 1 -85 14.5t-70.5 39t-48 62.5t-17.5 87t16 95t46 88q2 3 4.5 3t4.5 -2t2.5 -4.5t-0.5 -5.5q-11 -21 -20 -44t-14 -46.5t-5 -46t6 -43.5q10 -34 30.5 -57t47 -37t57 -19.5 t60.5 -5.5q38 0 78 4t79 13t74.5 24t66.5 36q12 8 16 13.5t4 6.5q0 7 -16.5 10.5t-41 7t-54 10t-54 18t-41.5 31t-17 50.5q0 16 6.5 36.5t19 43t29.5 44t37.5 38.5t43.5 27.5t48 10.5q17 0 31 -9.5t28.5 -24t30 -31.5t33 -31t38.5 -23.5t47 -9.5q21 18 42 35.5l39 32.5 q7 16 8.5 41.5t0 57t-5.5 67.5t-9.5 71t-10.5 67.5l-9 58.5q-2 19 -7 37.5t-15 34.5q-1 3 -2.5 4.5t-2 2.5t0 2.5t2.5 5.5q8 14 15 29t14 27q2 4 4.5 5t3.5 -5q4 -12 9 -23.5t11 -22.5t14 -20.5t20 -16.5q-7 -12 -12.5 -20.5t-9 -15.5t-5 -13.5t-0.5 -14.5q9 -39 15 -81 t9 -85t1 -86.5t-9 -83.5q21 17 38 30t32.5 24t29.5 19t29 15q26 11 57 9.5t58.5 -12t47.5 -29t25 -41.5zM1149 265q-12 18 -29.5 30t-38 19.5t-42 9t-40.5 -2.5q-24 -5 -47.5 -16.5t-46.5 -27t-47 -35.5t-49 -42q38 0 84.5 3t93.5 10.5t89.5 20t72.5 31.5z" />
<glyph unicode="&#xfec7;&#xfef2;" horiz-adv-x="1227" d="M1028 605l60 -50q3 -3 1 -8l-41 -51q-4 -4 -8 0l-61 50q-3 3 0 8l41 50q4 4 8 1zM1196 309q-3 -40 -20.5 -70t-46.5 -46q-64 -37 -152.5 -51.5t-205.5 -14.5q-36 0 -63 10t-48 24.5t-37.5 31.5t-30 32t-25.5 24.5t-25 9.5q-18 0 -40.5 -11.5t-42.5 -27.5t-33 -33.5 t-13 -27.5q0 -12 8 -22t21 -17t30 -12.5t35.5 -9t36.5 -6t33 -4.5q11 -1 22 -4t20.5 -9t15.5 -15t6 -21q0 -35 -17 -63t-43 -49q-30 -24 -68.5 -43t-80 -31.5t-84 -18.5t-80.5 -4q-45 1 -85 14.5t-70.5 39t-48 62.5t-17.5 87t16 95t46 88q2 3 4.5 3t4.5 -2t2.5 -4.5 t-0.5 -5.5q-11 -21 -20 -44t-14 -46.5t-5 -46t6 -43.5q10 -34 30.5 -57t47 -37t57 -19.5t60.5 -5.5q38 0 78 4t79 13t74.5 24t66.5 36q12 8 16 13.5t4 6.5q0 7 -16.5 10.5t-41 7t-54 10t-54 18t-41.5 31t-17 50.5q0 16 6.5 36.5t19 43t29.5 44t37.5 38.5t43.5 27.5t48 10.5 q17 0 31 -9.5t28.5 -24t30 -31.5t33 -31t38.5 -23.5t47 -9.5q21 18 42 35.5l39 32.5q7 16 8.5 41.5t0 57t-5.5 67.5t-9.5 71t-10.5 67.5l-9 58.5q-2 19 -7 37.5t-15 34.5q-1 3 -2.5 4.5t-2 2.5t0 2.5t2.5 5.5q8 14 15 29t14 27q2 4 4.5 5t3.5 -5q4 -12 9 -23.5t11 -22.5 t14 -20.5t20 -16.5q-7 -12 -12.5 -20.5t-9 -15.5t-5 -13.5t-0.5 -14.5q9 -39 15 -81t9 -85t1 -86.5t-9 -83.5q21 17 38 30t32.5 24t29.5 19t29 15q26 11 57 9.5t58.5 -12t47.5 -29t25 -41.5zM1149 265q-12 18 -29.5 30t-38 19.5t-42 9t-40.5 -2.5q-24 -5 -47.5 -16.5 t-46.5 -27t-47 -35.5t-49 -42q38 0 84.5 3t93.5 10.5t89.5 20t72.5 31.5z" />
<glyph unicode="&#xfecb;&#xfef2;" horiz-adv-x="1222" d="M952 232q31 6 61.5 14.5t60.5 17.5t59 18t56 16q2 1 2.5 0t-0.5 -3q-7 -13 -12.5 -22t-10.5 -17.5t-10.5 -17t-11.5 -19.5q-29 -9 -64 -20t-71.5 -22.5t-73.5 -22.5t-69.5 -19.5t-59 -13.5t-43.5 -5q-33 0 -59 10.5t-47 26t-38 33.5t-30.5 33.5t-26 26t-24.5 10.5 q-18 0 -40.5 -11.5t-42 -27.5t-33 -33t-13.5 -28q0 -12 8 -21.5t21 -17t30 -13t35.5 -9t36.5 -6t33 -4.5q11 -1 22 -4t20.5 -9t15.5 -15t6 -21q0 -35 -17 -63t-43 -49q-30 -24 -68.5 -43t-80 -31.5t-84 -18.5t-80.5 -4q-45 1 -85 14.5t-70.5 39t-48 62.5t-17.5 87t16 95 t46 88q2 3 4.5 3t4.5 -2t2.5 -4.5t-0.5 -5.5q-11 -21 -20 -44t-14 -46.5t-5 -46t6 -43.5q10 -34 30.5 -57t47 -36.5t57 -19.5t60.5 -6q38 0 78 4t79 13t74.5 24t66.5 36q12 8 16 13.5t4 6.5q0 7 -16.5 10.5t-41 7t-53.5 10t-54 18t-41.5 31t-17.5 50.5q0 16 6.5 37t19 43 t29.5 43.5t37.5 38.5t43.5 27.5t48 10.5q19 0 34.5 -10t30.5 -25t29.5 -32.5t31 -33t36.5 -25.5t45 -10q20 0 37 2.5t38 8.5q-12 6 -22.5 17.5t-20 26.5t-16 31.5t-8.5 32.5q-4 31 6 63t30 58.5t47 46t56 24.5q37 4 67 -1.5t53 -18t40 -29.5t29 -34q2 -3 1 -5.5t-4 -4 t-6.5 -1.5t-5.5 1q-16 9 -31.5 14.5t-31.5 8.5t-33.5 3.5t-37.5 -1.5q-19 -1 -38.5 -5.5t-38 -11.5t-33.5 -15.5t-24 -18.5q0 -9 4 -20.5t10 -24.5t14.5 -25.5t18.5 -22.5t22 -21t24 -19.5t23 -14t18 -5.5z" />
<glyph unicode="&#xfecf;&#xfef2;" horiz-adv-x="1222" d="M894 720l60 -50q3 -3 1 -8l-41 -51q-4 -4 -8 0l-61 50q-3 3 0 8l41 50q4 4 8 1zM952 232q31 6 61.5 14.5t60.5 17.5t59 18t56 16q2 1 2.5 0t-0.5 -3q-7 -13 -12.5 -22t-10.5 -17.5t-10.5 -17t-11.5 -19.5q-29 -9 -64 -20t-71.5 -22.5t-73.5 -22.5t-69.5 -19.5t-59 -13.5 t-43.5 -5q-33 0 -59 10.5t-47 26t-38 33.5t-30.5 33.5t-26 26t-24.5 10.5q-18 0 -40.5 -11.5t-42 -27.5t-33 -33t-13.5 -28q0 -12 8 -21.5t21 -17t30 -13t35.5 -9t36.5 -6t33 -4.5q11 -1 22 -4t20.5 -9t15.5 -15t6 -21q0 -35 -17 -63t-43 -49q-30 -24 -68.5 -43t-80 -31.5 t-84 -18.5t-80.5 -4q-45 1 -85 14.5t-70.5 39t-48 62.5t-17.5 87t16 95t46 88q2 3 4.5 3t4.5 -2t2.5 -4.5t-0.5 -5.5q-11 -21 -20 -44t-14 -46.5t-5 -46t6 -43.5q10 -34 30.5 -57t47 -36.5t57 -19.5t60.5 -6q38 0 78 4t79 13t74.5 24t66.5 36q12 8 16 13.5t4 6.5 q0 7 -16.5 10.5t-41 7t-53.5 10t-54 18t-41.5 31t-17.5 50.5q0 16 6.5 37t19 43t29.5 43.5t37.5 38.5t43.5 27.5t48 10.5q19 0 34.5 -10t30.5 -25t29.5 -32.5t31 -33t36.5 -25.5t45 -10q20 0 37 2.5t38 8.5q-12 6 -22.5 17.5t-20 26.5t-16 31.5t-8.5 32.5q-4 31 6 63 t30 58.5t47 46t56 24.5q37 4 67 -1.5t53 -18t40 -29.5t29 -34q2 -3 1 -5.5t-4 -4t-6.5 -1.5t-5.5 1q-16 9 -31.5 14.5t-31.5 8.5t-33.5 3.5t-37.5 -1.5q-19 -1 -38.5 -5.5t-38 -11.5t-33.5 -15.5t-24 -18.5q0 -9 4 -20.5t10 -24.5t14.5 -25.5t18.5 -22.5t22 -21t24 -19.5 t23 -14t18 -5.5z" />
<glyph unicode="&#xfecc;&#xfef2;" horiz-adv-x="1138" d="M897 203q11 -11 23.5 -21.5t24.5 -19.5q3 -2 8 -2t10 3q11 7 24 18t25 22q4 4 4.5 9t-6.5 7q-13 4 -30 5.5t-29 2.5q-13 0 -26.5 -1.5t-25.5 -4.5q-6 -2 -7.5 -6.5t5.5 -11.5zM815 181q-4 1 -9 -0.5t-9.5 -4t-8 -5t-6.5 -3.5q-7 -2 -10 3t-3 14t2 20t6 21t8 18t7 11 q26 21 63 31.5t76.5 13t77.5 -4t67 -21.5q11 -6 17 -14.5t6 -15.5q0 -5 -2.5 -14t-5.5 -19t-7 -19t-8 -14q-16 -19 -31.5 -34t-37.5 -32q13 -11 29 -17.5t33 -10.5t34.5 -5.5t34.5 -1.5h9q15 0 22.5 -12t7.5 -26.5t-7.5 -26.5t-22.5 -12h-9q-35 0 -63 4t-51.5 12.5t-44 21 t-38.5 29.5q-43 -31 -86 -47t-92 -16q-34 0 -60 10.5t-46.5 26t-36.5 33.5t-29.5 34t-25.5 26.5t-24 10.5q-18 0 -40.5 -12t-42.5 -28t-33 -33t-13 -28q0 -12 8 -21.5t21 -17t30 -13t35.5 -9t36.5 -6t33 -3.5q11 -1 22 -4.5t20.5 -9t15.5 -14.5t6 -22q0 -35 -17 -63t-43 -49 q-30 -24 -68.5 -43t-80 -31.5t-84 -18.5t-80.5 -4q-45 1 -85 14.5t-70.5 39t-48 63t-17.5 86.5q0 50 16 95t46 88q2 3 4.5 3t4.5 -1.5t2.5 -4.5t-0.5 -6q-11 -21 -20 -44t-14 -46t-5 -46t6 -44q10 -34 30.5 -56.5t47 -36.5t57 -20t60.5 -6q38 0 78 4t79 13t74.5 24t66.5 37 q12 8 16 13.5t4 6.5q0 7 -16.5 10t-41 7t-54 10t-54 17.5t-41.5 31t-17 50.5q0 16 6.5 37t19 43t29.5 44t37.5 38.5t43.5 27t48 10.5q21 0 36.5 -10t29.5 -25t28 -33t30 -33t37 -25t50 -10q33 0 60 8.5t57 26.5v2.5t-2 3.5l-15 15t-19 18.5t-19.5 16.5t-16.5 9z" />
<glyph unicode="&#xfed0;&#xfef2;" horiz-adv-x="1138" d="M915 508l60 -50q3 -3 1 -8l-41 -51q-4 -4 -8 0l-61 50q-3 3 0 8l41 50q4 4 8 1zM897 203q11 -11 23.5 -21.5t24.5 -19.5q3 -2 8 -2t10 3q11 7 24 18t25 22q4 4 4.5 9t-6.5 7q-13 4 -30 5.5t-29 2.5q-13 0 -26.5 -1.5t-25.5 -4.5q-6 -2 -7.5 -6.5t5.5 -11.5zM815 181 q-4 1 -9 -0.5t-9.5 -4t-8 -5t-6.5 -3.5q-7 -2 -10 3t-3 14t2 20t6 21t8 18t7 11q26 21 63 31.5t76.5 13t77.5 -4t67 -21.5q11 -6 17 -14.5t6 -15.5q0 -5 -2.5 -14t-5.5 -19t-7 -19t-8 -14q-16 -19 -31.5 -34t-37.5 -32q13 -11 29 -17.5t33 -10.5t34.5 -5.5t34.5 -1.5h9 q15 0 22.5 -12t7.5 -26.5t-7.5 -26.5t-22.5 -12h-9q-35 0 -63 4t-51.5 12.5t-44 21t-38.5 29.5q-43 -31 -86 -47t-92 -16q-34 0 -60 10.5t-46.5 26t-36.5 33.5t-29.5 34t-25.5 26.5t-24 10.5q-18 0 -40.5 -12t-42.5 -28t-33 -33t-13 -28q0 -12 8 -21.5t21 -17t30 -13 t35.5 -9t36.5 -6t33 -3.5q11 -1 22 -4.5t20.5 -9t15.5 -14.5t6 -22q0 -35 -17 -63t-43 -49q-30 -24 -68.5 -43t-80 -31.5t-84 -18.5t-80.5 -4q-45 1 -85 14.5t-70.5 39t-48 63t-17.5 86.5q0 50 16 95t46 88q2 3 4.5 3t4.5 -1.5t2.5 -4.5t-0.5 -6q-11 -21 -20 -44t-14 -46 t-5 -46t6 -44q10 -34 30.5 -56.5t47 -36.5t57 -20t60.5 -6q38 0 78 4t79 13t74.5 24t66.5 37q12 8 16 13.5t4 6.5q0 7 -16.5 10t-41 7t-54 10t-54 17.5t-41.5 31t-17 50.5q0 16 6.5 37t19 43t29.5 44t37.5 38.5t43.5 27t48 10.5q21 0 36.5 -10t29.5 -25t28 -33t30 -33 t37 -25t50 -10q33 0 60 8.5t57 26.5v2.5t-2 3.5l-15 15t-19 18.5t-19.5 16.5t-16.5 9z" />
<glyph unicode="&#xfed3;&#xfef2;" horiz-adv-x="980" d="M640 35q0 -35 -17 -63t-43 -49q-30 -24 -64 -43t-72 -32t-82 -19.5t-95 -4.5q-45 1 -85 14.5t-70.5 39t-48 63t-17.5 86.5q0 50 16 95t46 88q2 3 4.5 3t4.5 -2t2.5 -4.5t-0.5 -5.5q-11 -21 -20 -44t-14 -46.5t-5 -46t6 -43.5q10 -34 30.5 -57t47 -36.5t57 -19.5t60.5 -6 q48 0 89.5 4.5t77 14t68 24.5t63.5 37q12 8 16 13.5t4 6.5q0 5 -10 8t-25.5 5.5t-35.5 5t-41 7t-41 12t-35.5 19t-25.5 28t-10 39.5q0 16 7 37t20.5 43t31.5 43.5t39 38.5t44 27.5t45 10.5q19 0 34.5 -7.5t30 -18.5t29 -24t31.5 -24.5t37.5 -19t46.5 -7.5q43 0 79.5 11 t59.5 36q1 6 0 15t-3 18t-4.5 17.5t-5.5 14.5q-12 -23 -29.5 -38.5t-42.5 -15.5q-13 0 -24 4.5t-20.5 12t-16.5 18t-10 22.5q-3 14 -2 30.5t6 34t12.5 34t18 29t23.5 20.5t28 7q13 0 25 -8.5t22.5 -22t20 -30t16.5 -34t11.5 -33.5t5.5 -28q1 -23 -0.5 -45.5t-6.5 -42 t-15 -36t-25 -28.5q-12 -10 -26.5 -17.5t-30.5 -13t-31.5 -8t-30.5 -2.5q-33 0 -59.5 8t-47 20t-37 26t-31 26t-27 19.5t-25.5 7.5q-12 0 -26.5 -5t-30 -14t-30 -20t-25.5 -22t-17.5 -21.5t-6.5 -17.5q0 -12 8 -22t21 -18t30 -14t35.5 -10.5t36.5 -7t33 -3.5q11 -1 22 -3 t20.5 -7t15.5 -12.5t6 -20.5zM872 381q0 6 -5 12.5t-12 12.5t-14.5 10t-13.5 4t-13 -4t-13 -10t-9.5 -13t-3.5 -13q6 -11 17 -16.5t24 -6t25 5.5t18 18zM790 696q3 4 7 1l58 -48q1 -1 2 -3t-1 -4l-39 -48q-4 -4 -8 -1l-58 48q-1 1 -1.5 3t1.5 4z" />
<glyph unicode="&#xfed7;&#xfef2;" horiz-adv-x="980" d="M640 35q0 -35 -17 -63t-43 -49q-30 -24 -64 -43t-72 -32t-82 -19.5t-95 -4.5q-45 1 -85 14.5t-70.5 39t-48 63t-17.5 86.5q0 50 16 95t46 88q2 3 4.5 3t4.5 -2t2.5 -4.5t-0.5 -5.5q-11 -21 -20 -44t-14 -46.5t-5 -46t6 -43.5q10 -34 30.5 -57t47 -36.5t57 -19.5t60.5 -6 q48 0 89.5 4.5t77 14t68 24.5t63.5 37q12 8 16 13.5t4 6.5q0 5 -10 8t-25.5 5.5t-35.5 5t-41 7t-41 12t-35.5 19t-25.5 28t-10 39.5q0 16 7 37t20.5 43t31.5 43.5t39 38.5t44 27.5t45 10.5q19 0 34.5 -7.5t30 -18.5t29 -24t31.5 -24.5t37.5 -19t46.5 -7.5q43 0 79.5 11 t59.5 36q1 6 0 15t-3 18t-4.5 17.5t-5.5 14.5q-12 -23 -29.5 -38.5t-42.5 -15.5q-13 0 -24 4.5t-20.5 12t-16.5 18t-10 22.5q-3 14 -2 30.5t6 34t12.5 34t18 29t23.5 20.5t28 7q13 0 25 -8.5t22.5 -22t20 -30t16.5 -34t11.5 -33.5t5.5 -28q1 -23 -0.5 -45.5t-6.5 -42 t-15 -36t-25 -28.5q-12 -10 -26.5 -17.5t-30.5 -13t-31.5 -8t-30.5 -2.5q-33 0 -59.5 8t-47 20t-37 26t-31 26t-27 19.5t-25.5 7.5q-12 0 -26.5 -5t-30 -14t-30 -20t-25.5 -22t-17.5 -21.5t-6.5 -17.5q0 -12 8 -22t21 -18t30 -14t35.5 -10.5t36.5 -7t33 -3.5q11 -1 22 -3 t20.5 -7t15.5 -12.5t6 -20.5zM872 381q0 6 -5 12.5t-12 12.5t-14.5 10t-13.5 4t-13 -4t-13 -10t-9.5 -13t-3.5 -13q6 -11 17 -16.5t24 -6t25 5.5t18 18zM873 599q-3 -5 -9 -1l-59 46l-37 -52q-2 -2 -4.5 -2.5t-3.5 0.5l-63 48q-2 1 -2.5 2t1.5 4l39 56q3 5 8 2l59 -45l40 51 q3 3 7 0l61 -50q2 -3 0 -7z" />
<glyph unicode="&#xfed4;&#xfef2;" horiz-adv-x="1050" d="M639 -95q0 -35 -16.5 -63t-42.5 -49q-30 -24 -64 -43t-72.5 -32t-82.5 -19.5t-94 -4.5q-45 1 -85.5 14.5t-70.5 39t-48 63t-18 86.5q0 50 16.5 95t45.5 88q2 3 4.5 3t4.5 -1.5t3 -4.5t-1 -6q-11 -21 -20 -44t-14 -46t-5 -46t6 -44q10 -34 31 -56.5t47.5 -36.5t56.5 -20 t60 -6q48 0 89.5 4.5t77.5 14t68.5 25t63.5 36.5q12 8 15.5 13.5t3.5 6.5q0 5 -9.5 8t-25.5 5.5t-36 5t-40.5 7t-40.5 12t-36 19t-25.5 28t-9.5 39.5q0 16 6.5 37t19 43t29.5 44t37 38.5t42 27t45 10.5q18 0 33.5 -8.5t29.5 -21t29 -27.5t31 -28t35.5 -21.5t43.5 -8.5 q12 0 25.5 2t22.5 7q-7 8 -9.5 22.5t-2.5 28.5q1 34 17 65t38.5 55.5t47.5 38.5t46 12q20 -1 32.5 -17t18.5 -38.5t6 -47.5t-5 -45q-5 -21 -16 -39.5t-25 -34.5q16 -6 42.5 -9.5t56.5 -3.5h9q10 0 17 -6.5t10.5 -15t3.5 -18t-3.5 -18t-10.5 -14t-17 -5.5h-9q-49 0 -93 9.5 t-81 26.5q-18 -10 -35 -16t-33 -9.5t-29.5 -5t-22.5 -1.5q-29 0 -53 9t-43.5 22t-36.5 29t-31 29t-27 22t-25 9q-18 0 -40.5 -12t-42.5 -28t-33.5 -33t-13.5 -28q0 -12 8 -22t21.5 -18t30.5 -14t35 -10t36 -7t33 -4q11 -1 22.5 -3t20.5 -6.5t15 -12.5t6 -21zM959 168 q1 14 -5.5 29t-15.5 28q-4 6 -11.5 8.5t-14.5 1.5q-8 -1 -20.5 -5.5t-24.5 -12.5t-21.5 -18.5t-12.5 -22.5q0 -12 6.5 -22t15 -18.5t17 -13.5t14.5 -7q5 1 16.5 6.5t23 13t21 16.5t12.5 17zM868 522q3 4 7 1l58 -48q1 -1 2 -3t-1 -5l-39 -48q-4 -4 -8 -1l-58 48q-1 1 -2 3 t2 5z" />
<glyph unicode="&#xfed8;&#xfef2;" horiz-adv-x="1050" d="M639 -95q0 -35 -16.5 -63t-42.5 -49q-30 -24 -64 -43t-72.5 -32t-82.5 -19.5t-94 -4.5q-45 1 -85.5 14.5t-70.5 39t-48 63t-18 86.5q0 50 16.5 95t45.5 88q2 3 4.5 3t4.5 -1.5t3 -4.5t-1 -6q-11 -21 -20 -44t-14 -46t-5 -46t6 -44q10 -34 31 -56.5t47.5 -36.5t56.5 -20 t60 -6q48 0 89.5 4.5t77.5 14t68.5 25t63.5 36.5q12 8 15.5 13.5t3.5 6.5q0 5 -9.5 8t-25.5 5.5t-36 5t-40.5 7t-40.5 12t-36 19t-25.5 28t-9.5 39.5q0 16 6.5 37t19 43t29.5 44t37 38.5t42 27t45 10.5q18 0 33.5 -8.5t29.5 -21t29 -27.5t31 -28t35.5 -21.5t43.5 -8.5 q12 0 25.5 2t22.5 7q-7 8 -9.5 22.5t-2.5 28.5q1 34 17 65t38.5 55.5t47.5 38.5t46 12q20 -1 32.5 -17t18.5 -38.5t6 -47.5t-5 -45q-5 -21 -16 -39.5t-25 -34.5q16 -6 42.5 -9.5t56.5 -3.5h9q10 0 17 -6.5t10.5 -15t3.5 -18t-3.5 -18t-10.5 -14t-17 -5.5h-9q-49 0 -93 9.5 t-81 26.5q-18 -10 -35 -16t-33 -9.5t-29.5 -5t-22.5 -1.5q-29 0 -53 9t-43.5 22t-36.5 29t-31 29t-27 22t-25 9q-18 0 -40.5 -12t-42.5 -28t-33.5 -33t-13.5 -28q0 -12 8 -22t21.5 -18t30.5 -14t35 -10t36 -7t33 -4q11 -1 22.5 -3t20.5 -6.5t15 -12.5t6 -21zM959 168 q1 14 -5.5 29t-15.5 28q-4 6 -11.5 8.5t-14.5 1.5q-8 -1 -20.5 -5.5t-24.5 -12.5t-21.5 -18.5t-12.5 -22.5q0 -12 6.5 -22t15 -18.5t17 -13.5t14.5 -7q5 1 16.5 6.5t23 13t21 16.5t12.5 17zM956 427q-3 -5 -9 -1l-59 46l-37 -52q-2 -2 -4.5 -2.5t-3.5 0.5l-63 48 q-2 1 -2.5 2t1.5 4l39 56q3 5 8 2l59 -45l40 51q3 3 7 1l61 -51q2 -3 0 -7z" />
<glyph unicode="&#xfedf;&#xfef2;" horiz-adv-x="902" d="M635 21q0 -35 -16.5 -63t-43.5 -49q-30 -24 -63.5 -43.5t-72 -32.5t-82.5 -19t-95 -5q-45 1 -85 14.5t-70.5 39t-48 63t-17.5 86.5q0 50 16 95t46 88q2 3 4.5 3t4.5 -1.5t2.5 -4.5t-0.5 -5q-11 -21 -20 -44.5t-14 -46.5t-5 -46t6 -44q10 -34 30.5 -56.5t47.5 -36.5 t57 -20t60 -6q48 0 89.5 4.5t77.5 14t68 25t63 36.5q12 8 16 13.5t4 6.5q0 5 -10 8t-25.5 5.5t-35.5 5t-41 7.5t-41 12t-35.5 18.5t-25 28t-10.5 39.5q0 16 7 37t19.5 43t30 44t38 39t43 27.5t44.5 10.5q17 0 30 -8.5t25 -20.5t23.5 -26.5t26.5 -27t33.5 -20.5t45.5 -8 q15 0 29 3t26.5 8t21 11t11.5 14q-10 104 -25.5 205t-30.5 204q-3 21 -6 40.5t-14 37.5q-4 5 -4.5 7t2.5 8q8 14 15 29t14 27q1 4 3.5 5t4.5 -5q4 -12 8.5 -24t11.5 -24t15.5 -22t19.5 -17q-7 -12 -12 -20t-8.5 -15t-4.5 -14t-1 -14q5 -47 12.5 -94t14 -94t11.5 -94t7 -94 q0 -27 -6 -51t-19 -43q-19 -27 -45.5 -39t-55.5 -12q-28 0 -50 8.5t-39.5 21t-31 27.5t-25.5 28t-23.5 21.5t-23.5 8.5t-26.5 -5.5t-29 -14.5t-28.5 -20t-24.5 -22t-16.5 -21t-6 -18q0 -12 8 -22t21 -18t30 -13.5t35.5 -10t36.5 -7.5t33 -4q11 -1 22 -3t20.5 -6.5t15.5 -12 t6 -20.5z" />
<glyph unicode="&#xfee0;&#xfef2;" horiz-adv-x="996" d="M639 -59q0 -35 -16.5 -63t-42.5 -49q-30 -24 -64 -43t-72.5 -32t-82.5 -19.5t-94 -5.5q-45 1 -85.5 15t-70.5 39.5t-48 62.5t-18 87t16.5 95t45.5 88q2 3 4.5 3t4.5 -2t3 -4.5t-1 -5.5q-11 -21 -20 -44t-14 -46.5t-5 -46t6 -43.5q10 -34 31 -57t47.5 -37t56.5 -19.5 t60 -5.5q48 0 89.5 4t77.5 13.5t68.5 25t63.5 37.5q12 8 15.5 13.5t3.5 6.5q0 5 -9.5 7.5t-25.5 5t-36 5.5t-40.5 7.5t-40.5 12t-36 19t-25.5 28t-9.5 39.5q0 16 6.5 36.5t19.5 43t30.5 44t37.5 38.5t42.5 27.5t45.5 10.5q17 0 30 -8t25 -20.5t23.5 -26.5t26 -26.5 t33.5 -20.5t45 -8q15 0 29 2.5t25.5 7.5t20 11t11.5 14q-9 56 -16 107t-13 102.5t-12.5 104.5t-13.5 113q-1 7 2 12q6 13 12.5 25.5t13.5 25.5q2 4 4 3.5t3 -3.5q2 -8 3.5 -24t4.5 -41q15 -121 27.5 -221.5t28.5 -182.5q5 -28 14.5 -47.5t24.5 -31.5t36.5 -17t50.5 -5h9 q16 0 23.5 -12t7.5 -26.5t-7.5 -26.5t-23.5 -12h-9q-31 0 -55 8t-42.5 22t-32 34t-23.5 43q-17 -33 -46 -48t-62 -15q-28 0 -50 8.5t-39.5 21t-31 28t-25.5 28t-23 21t-24 8.5q-12 0 -26.5 -5.5t-29 -14t-28 -19.5t-24 -22.5t-17 -21.5t-6.5 -17q0 -12 8 -22.5t21.5 -18 t30.5 -13.5t35 -10.5t36 -7t33 -4.5q11 -1 22.5 -2.5t20.5 -6.5t15 -12.5t6 -20.5z" />
<glyph unicode="&#xfee3;&#xfef2;" horiz-adv-x="1099" d="M640 35q0 -35 -17 -63t-43 -49q-30 -24 -64 -43t-72 -32t-82 -19.5t-95 -4.5q-45 1 -85 14.5t-70.5 39t-48 63t-17.5 86.5q0 50 16 95t46 88q2 3 4.5 3t4.5 -2t2.5 -4.5t-0.5 -5.5q-11 -21 -20 -44t-14 -46.5t-5 -46t6 -43.5q10 -34 30.5 -57t47 -36.5t57 -19.5t60.5 -6 q48 0 89.5 4.5t77 14t68 24.5t63.5 37q12 8 16 13.5t4 6.5q0 5 -10 8t-25.5 5.5t-35.5 5t-41 7t-41 12t-35.5 19t-25.5 28t-10 39.5q0 16 6.5 37t19 43t30 43.5t37.5 38.5t42.5 27.5t45.5 10.5q17 0 32 -7.5t30.5 -19.5t30.5 -25.5t31.5 -25.5t34 -19.5t37.5 -7.5q26 0 45 9 t33 36q14 26 24.5 52.5t27.5 52.5q6 9 15 20t19.5 21t22 16.5t22.5 6.5q12 0 24 -9t22.5 -22t19 -29.5t15 -33t9.5 -32t3 -26.5q-1 -10 -3 -21.5t-6 -22t-11 -19t-16 -12.5q-11 -4 -30.5 -2.5t-42 7t-46.5 15.5t-44 24q-6 -13 -16.5 -31.5t-24.5 -35.5t-30 -29t-34 -12 q-24 0 -45.5 8t-40.5 20t-36 26.5t-32 26.5t-29 20t-26 8q-18 0 -40.5 -11.5t-42.5 -27.5t-33 -33t-13 -28q0 -12 8 -22t21 -18t30 -14t35.5 -10.5t36.5 -7t33 -3.5q11 -1 22 -3t20.5 -7t15.5 -12.5t6 -20.5zM1005 281q1 1 -2 7.5t-6.5 14.5t-7.5 15t-6 10q-4 6 -9 12 t-11 10.5t-13.5 7.5t-15.5 2q-8 0 -15.5 -4t-14 -10t-11.5 -13t-7 -14q25 -21 55.5 -29.5t63.5 -8.5z" />
<glyph unicode="&#xfee4;&#xfef2;" horiz-adv-x="1085" d="M971 28q-2 -5 -4.5 -10.5l-5 -11t-5 -9t-4.5 -4.5q-11 -2 -26 -1t-32 5t-33.5 11t-29.5 16.5t-21.5 20.5t-8.5 24q-8 -13 -17.5 -23.5t-21 -19t-25 -13t-30.5 -4.5q-24 0 -45.5 10t-39.5 25t-34 33t-30 33t-25.5 25t-21.5 10q-7 0 -18.5 -6t-25 -15.5t-27 -21.5 t-24.5 -24t-18 -23t-7 -18q0 -12 8.5 -21.5t22.5 -17t32 -13t37 -9t37 -6.5q18 -2 34 -3q11 -1 22.5 -4.5t21 -9t15 -14.5t5.5 -22q0 -35 -16.5 -63t-42.5 -49q-30 -24 -68.5 -42.5t-80.5 -31.5t-84 -18.5t-80 -4.5q-45 1 -85.5 14.5t-70.5 39t-47.5 63t-17.5 86.5 q0 50 16 95t46 88q2 3 4.5 3t4 -1.5t2.5 -4.5t-1 -6q-11 -21 -19.5 -44t-13.5 -46t-5.5 -46t6.5 -44q10 -34 30.5 -56.5t47 -36.5t57 -20t60.5 -6q38 0 78 4t78.5 13t74.5 24t67 37q12 8 15.5 13.5t3.5 6.5q0 5 -10 8t-26 5.5t-36.5 5.5t-42 8t-42.5 12.5t-37 19t-26 28 t-11 39.5q0 16 6 37.5t17.5 44.5t27 45.5t34.5 40.5t40 29t42 11q18 0 34 -10t31 -24.5t30 -32t31 -32t33.5 -24.5t39.5 -10q14 0 25 2.5t21.5 8t21 15.5t23.5 24q8 10 17 21t18.5 20t19 15t17.5 6q9 0 20.5 -8.5t22.5 -20.5t21 -24.5t16 -18.5q14 -13 28 -22.5t28.5 -15 t31 -8t34.5 -2.5h9q15 0 23 -12t8 -26.5t-8 -26.5t-23 -12h-9q-40 0 -66.5 7.5t-47.5 20.5zM833 111q12 -8 25 -14.5t24.5 -11.5t22 -8t17.5 -3q2 0 3.5 0.5t-1.5 3.5q-8 9 -14 19t-10 19t-7 16t-5 11q-5 9 -13 7q-9 -2 -21.5 -10.5t-20.5 -19.5q-2 -3 -3 -5t3 -4z" />
<glyph unicode="&#xfeeb;&#xfef2;" horiz-adv-x="1159" d="M639 27q0 -35 -16.5 -62.5t-42.5 -48.5q-30 -24 -64 -43.5t-72.5 -32.5t-82.5 -19.5t-94 -4.5q-45 1 -85.5 14.5t-70.5 39t-48 63t-18 86.5q0 50 16.5 95t45.5 88q2 3 4.5 3t4.5 -1.5t3 -4.5t-1 -6q-11 -21 -20 -44t-14 -46t-5 -46t6 -44q10 -34 31 -56.5t47.5 -36.5 t56.5 -20t60 -6q48 0 89.5 4.5t77.5 14t68.5 25t63.5 36.5q12 8 15.5 13.5t3.5 6.5q0 5 -9.5 8t-25.5 5.5t-36 5t-40.5 7t-40.5 12t-36 19t-25.5 28t-9.5 39.5q0 16 6.5 37t19 43t29.5 44t37.5 38.5t42.5 27t45 10.5q18 0 33 -8.5t29.5 -21t29 -27.5t30.5 -28t35.5 -21.5 t43.5 -8.5q14 0 30 2.5t30 8.5q-11 14 -14.5 31t-1 35.5t9.5 37.5t16.5 36t20.5 31.5t21 24.5q-4 4 -7.5 7t-6.5 7q-2 2 -3 3.5t0 4.5q2 11 4 19.5t3.5 16t3.5 14.5t5 16q3 8 11 10t14 -2q19 -12 42.5 -28t49 -35t49.5 -41t43.5 -45t32 -47.5t13.5 -48.5q1 -16 -1 -33 t-8.5 -32t-17 -28t-25.5 -21q-11 -6 -19.5 -7t-19.5 2q-25 7 -58 16.5t-65 20.5q-37 -29 -73.5 -41t-73.5 -12q-31 0 -55.5 9t-45 22t-37 29t-30.5 29t-27 22t-25 9q-18 0 -40.5 -12t-42.5 -28t-33.5 -33t-13.5 -28q0 -12 8 -22t21.5 -18t30.5 -14t35 -10t36 -7t33 -4 q11 -1 22.5 -3t20.5 -6.5t15 -12.5t6 -21zM900 256q6 1 15.5 6t18.5 10.5t15.5 11t7.5 9.5q1 10 -4 23t-13.5 24.5t-18.5 20t-20 9.5q-8 -1 -18.5 -7t-20.5 -15.5t-17.5 -21.5t-8.5 -24q-1 -8 6.5 -16t18 -14t21.5 -10.5t18 -5.5zM1089 221q1 8 -4 19t-13.5 22.5t-19.5 23.5 t-22 23t-21.5 20l-17.5 15q-3 3 -4.5 2t-1.5 -5q3 -27 -1.5 -52t-17.5 -45q-4 -3 0 -5q11 -4 25 -9t29.5 -9t30.5 -6.5t27 -0.5q11 2 11 7z" />
<glyph unicode="&#xfeec;&#xfef2;" horiz-adv-x="1150" d="M637 27q0 -33 -16.5 -61.5t-42.5 -49.5q-30 -24 -64 -43.5t-72.5 -32.5t-82.5 -19.5t-94 -4.5q-45 1 -85.5 14.5t-70.5 39t-48 63t-18 86.5q0 50 16.5 95t45.5 88q2 3 4.5 3t4.5 -1.5t3 -4.5t-1 -6q-11 -21 -20 -44t-14 -46t-5 -46t6 -44q10 -34 31 -56.5t47.5 -36.5 t57 -20t59.5 -6q48 0 89.5 4.5t77.5 14t68.5 25t63.5 36.5q12 8 15.5 13.5t3.5 6.5q0 5 -9.5 8t-25.5 5.5t-36 5t-40.5 7t-40.5 12t-36 19t-25.5 28t-9.5 39.5q0 16 6.5 37t19 43t29.5 44t37.5 38.5t42.5 27t45 10.5q18 0 33 -8.5t29.5 -21t29 -27.5t30.5 -28t35.5 -21.5 t43.5 -8.5q14 0 30 2.5t30 8.5q-11 14 -14.5 31t-1 35.5t9.5 37.5t16.5 36t20.5 31.5t21 24.5q-4 4 -7.5 7t-6.5 7q-2 2 -3 3.5t0 4.5q2 11 4 19.5t3.5 16t3.5 14.5t5 16q3 8 11 10t14 -2q19 -12 43 -28t49 -35t49 -41t43.5 -45t32 -47.5t13.5 -48.5q1 -16 -1 -33t-8.5 -32 t-17 -28t-25.5 -21q-11 -6 -19.5 -7t-19.5 2q0 -22 11.5 -35t29 -19.5t39 -8.5t42.5 -2h9q15 0 22 -12t7 -26.5t-7.5 -26.5t-21.5 -12h-9q-38 0 -67.5 7t-49.5 24.5t-30 46.5t-7 73q-21 6 -44.5 13t-46.5 15q-37 -29 -73.5 -41t-73.5 -12q-31 0 -55.5 9t-45 22t-37 29 t-30.5 29t-27 22t-25 9q-18 0 -40.5 -12t-42.5 -28t-33.5 -33t-13.5 -28q0 -12 8 -22t21.5 -18t30.5 -14t35 -10t36 -7t33 -4q11 -1 22.5 -3t20.5 -6.5t15 -12.5t6 -21zM898 256q6 1 15.5 6t18.5 10.5t15.5 11t7.5 9.5q1 10 -4 23t-13.5 24.5t-18.5 20t-20 9.5 q-8 -1 -18.5 -7t-20.5 -15.5t-17.5 -21.5t-8.5 -24q-1 -8 6.5 -16t18 -14t21.5 -10.5t18 -5.5zM1087 221q1 8 -4 19t-13.5 22.5t-19.5 23.5t-22 23t-21.5 20l-17.5 15q-3 3 -4.5 2t-1.5 -5q3 -27 -1.5 -52t-17.5 -45q-4 -3 0 -5q11 -4 25 -9t29.5 -9t30.5 -6.5t27 -0.5 q11 2 11 7z" />
<glyph unicode="&#xfe92;&#xfeae;" horiz-adv-x="637" d="M473 -34l60 -50q3 -3 1 -8l-41 -51q-4 -4 -8 0l-61 50q-3 3 0 8l41 50q4 4 8 1zM250 166q0 3 2 4t7 -3q12 -9 22.5 -15.5t27.5 -6.5q32 0 60.5 11t51.5 31t39 48t21 62q2 11 8.5 12.5t8.5 -10.5q4 -28 10.5 -61.5t13.5 -62.5q12 -45 39.5 -71.5t75.5 -26.5h9q15 0 23 -12 t8 -26.5t-7.5 -26.5t-23.5 -12h-9q-67 0 -107 48.5t-52 144.5q-8 -23 -23.5 -44t-35 -37.5t-41.5 -26.5t-44 -12q-3 -32 -9 -66t-15 -66.5t-21.5 -61t-27.5 -49.5q-12 -17 -28.5 -32t-36 -26.5t-41.5 -19.5t-44 -10q-52 -4 -92 1.5t-77 16.5q-10 3 -12.5 7t0 7.5t7.5 5.5 t11 2q53 -5 102 6t92 31q35 17 62 43t46.5 59t32.5 71.5t20 79.5q-17 2 -30.5 6.5t-21.5 10.5q-5 3 -6 6.5t-1 10.5q1 16 2.5 31.5t3.5 28.5z" />
<glyph unicode="&#xfe98;&#xfeae;" horiz-adv-x="637" d="M250 166q0 3 2 4t7 -3q12 -9 22.5 -15.5t27.5 -6.5q32 0 60.5 11t51.5 31t39 48t21 62q2 11 8.5 12.5t8.5 -10.5q4 -28 10.5 -61.5t13.5 -62.5q12 -45 39.5 -71.5t75.5 -26.5h9q15 0 23 -12t8 -26.5t-7.5 -26.5t-23.5 -12h-9q-67 0 -107 48.5t-52 144.5q-8 -23 -23.5 -44 t-35 -37.5t-41.5 -26.5t-44 -12q-3 -32 -9 -66t-15 -66.5t-21.5 -61t-27.5 -49.5q-12 -17 -28.5 -32t-36 -26.5t-41.5 -19.5t-44 -10q-52 -4 -92 1.5t-77 16.5q-10 3 -12.5 7t0 7.5t7.5 5.5t11 2q53 -5 102 6t92 31q35 17 62 43t46.5 59t32.5 71.5t20 79.5q-17 2 -30.5 6.5 t-21.5 10.5q-5 3 -6 6.5t-1 10.5q1 16 2.5 31.5t3.5 28.5zM533 396q-3 -5 -9 -1l-59 46l-37 -52q-2 -2 -4.5 -2.5t-3.5 0.5l-63 48q-2 1 -2 2t1 4l40 56q3 5 7 2l59 -45l40 51q3 3 7 1l61 -51q2 -3 0 -7z" />
<glyph unicode="&#xfe9c;&#xfeae;" horiz-adv-x="637" d="M250 166q0 3 2 4t7 -3q12 -9 22.5 -15.5t27.5 -6.5q32 0 60.5 11t51.5 31t39 48t21 62q2 11 8.5 12.5t8.5 -10.5q4 -28 10.5 -61.5t13.5 -62.5q12 -45 39.5 -71.5t75.5 -26.5h9q15 0 23 -12t8 -26.5t-7.5 -26.5t-23.5 -12h-9q-67 0 -107 48.5t-52 144.5q-8 -23 -23.5 -44 t-35 -37.5t-41.5 -26.5t-44 -12q-3 -32 -9 -66t-15 -66.5t-21.5 -61t-27.5 -49.5q-12 -17 -28.5 -32t-36 -26.5t-41.5 -19.5t-44 -10q-52 -4 -92 1.5t-77 16.5q-10 3 -12.5 7t0 7.5t7.5 5.5t11 2q53 -5 102 6t92 31q35 17 62 43t46.5 59t32.5 71.5t20 79.5q-17 2 -30.5 6.5 t-21.5 10.5q-5 3 -6 6.5t-1 10.5q1 16 2.5 31.5t3.5 28.5zM539 391q-3 -3 -5 -2.5t-4 1.5l-58 45l-37 -51q-2 -2 -4.5 -2.5t-3.5 0.5l-62 47q-2 1 -2 2.5t1 3.5l39 55q1 2 3 3t4 -1l58 -44l40 51l2.5 2.5t3.5 -1.5l61 -51q4 -2 0 -7zM446 597l60 -49q2 -2 2 -4t-1 -4 l-40 -50q-3 -4 -9 0l-60 49q-3 3 0 8l41 49q3 4 7 1z" />
<glyph unicode="&#xfee8;&#xfeae;" horiz-adv-x="637" d="M455 517l60 -50q3 -3 1 -8l-41 -51q-4 -4 -8 0l-61 50q-3 3 0 8l41 50q4 4 8 1zM250 166q0 3 2 4t7 -3q12 -9 22.5 -15.5t27.5 -6.5q32 0 60.5 11t51.5 31t39 48t21 62q2 11 8.5 12.5t8.5 -10.5q4 -28 10.5 -61.5t13.5 -62.5q12 -45 39.5 -71.5t75.5 -26.5h9q15 0 23 -12 t8 -26.5t-7.5 -26.5t-23.5 -12h-9q-67 0 -107 48.5t-52 144.5q-8 -23 -23.5 -44t-35 -37.5t-41.5 -26.5t-44 -12q-3 -32 -9 -66t-15 -66.5t-21.5 -61t-27.5 -49.5q-12 -17 -28.5 -32t-36 -26.5t-41.5 -19.5t-44 -10q-52 -4 -92 1.5t-77 16.5q-10 3 -12.5 7t0 7.5t7.5 5.5 t11 2q53 -5 102 6t92 31q35 17 62 43t46.5 59t32.5 71.5t20 79.5q-17 2 -30.5 6.5t-21.5 10.5q-5 3 -6 6.5t-1 10.5q1 16 2.5 31.5t3.5 28.5z" />
<glyph unicode="&#xfef4;&#xfeae;" horiz-adv-x="637" d="M250 166q0 3 2 4t7 -3q12 -9 22.5 -15.5t27.5 -6.5q32 0 60.5 11t51.5 31t39 48t21 62q2 11 8.5 12.5t8.5 -10.5q4 -28 10.5 -61.5t13.5 -62.5q12 -45 39.5 -71.5t75.5 -26.5h9q15 0 23 -12t8 -26.5t-7.5 -26.5t-23.5 -12h-9q-67 0 -107 48.5t-52 144.5q-8 -23 -23.5 -44 t-35 -37.5t-41.5 -26.5t-44 -12q-3 -32 -9 -66t-15 -66.5t-21.5 -61t-27.5 -49.5q-12 -17 -28.5 -32t-36 -26.5t-41.5 -19.5t-44 -10q-52 -4 -92 1.5t-77 16.5q-10 3 -12.5 7t0 7.5t7.5 5.5t11 2q53 -5 102 6t92 31q35 17 62 43t46.5 59t32.5 71.5t20 79.5q-17 2 -30.5 6.5 t-21.5 10.5q-5 3 -6 6.5t-1 10.5q1 16 2.5 31.5t3.5 28.5zM547 -161q-3 -5 -9 -1l-59 46l-37 -52q-2 -2 -4.5 -2.5t-3.5 0.5l-63 48q-2 1 -2 2t1 4l40 56q3 5 7 2l59 -45l40 51q3 3 7 1l61 -51q2 -3 0 -7z" />
<glyph unicode="&#xfe8c;&#xfeae;" horiz-adv-x="637" d="M250 166q0 3 2 4t7 -3q12 -9 22.5 -15.5t27.5 -6.5q32 0 60.5 11t51.5 31t39 48t21 62q2 11 8.5 12.5t8.5 -10.5q4 -28 10.5 -61.5t13.5 -62.5q12 -45 39.5 -71.5t75.5 -26.5h9q15 0 23 -12t8 -26.5t-7.5 -26.5t-23.5 -12h-9q-67 0 -107 48.5t-52 144.5q-8 -23 -23.5 -44 t-35 -37.5t-41.5 -26.5t-44 -12q-3 -32 -9 -66t-15 -66.5t-21.5 -61t-27.5 -49.5q-12 -17 -28.5 -32t-36 -26.5t-41.5 -19.5t-44 -10q-52 -4 -92 1.5t-77 16.5q-10 3 -12.5 7t0 7.5t7.5 5.5t11 2q53 -5 102 6t92 31q35 17 62 43t46.5 59t32.5 71.5t20 79.5q-17 2 -30.5 6.5 t-21.5 10.5q-5 3 -6 6.5t-1 10.5q1 16 2.5 31.5t3.5 28.5zM388 412q3 2 9 4.5t11.5 6t11 6.5t9.5 6q-11 9 -19 19.5t-15 24.5q-3 6 -2 16t6 18q3 5 12 15.5t21.5 21t28 18.5t31.5 8q5 0 10.5 -3.5t9.5 -9t7 -11t4 -10.5q3 -11 0 -19q-8 -18 -13 -22.5t-9 -4.5q-2 0 -3.5 2.5 t-2.5 6l-2 7t-1 4.5q-2 5 -8.5 9t-13.5 4q-23 0 -43 -17q7 -18 22 -32.5t34 -17.5q25 -3 48 1.5t48 10.5q0 -1 -2 -8.5t-5 -16t-6 -15.5t-5 -7q-21 -2 -42 -6.5t-44 -10.5q-24 -8 -49 -19t-47 -22q-5 0 -7 4q3 10 7.5 20.5t8.5 18.5z" />
<glyph unicode="&#xfe92;&#xfeb0;" horiz-adv-x="637" d="M187 377l60 -50q3 -3 1 -8l-41 -51q-4 -4 -8 0l-61 50q-3 3 0 8l41 50q4 4 8 1zM466 -34l60 -50q3 -3 1 -8l-41 -51q-4 -4 -8 0l-61 50q-3 3 0 8l41 50q4 4 8 1zM250 166q0 3 2 4t7 -3q12 -9 22.5 -15.5t27.5 -6.5q32 0 60.5 11t51.5 31t39 48t21 62q2 11 8.5 12.5 t8.5 -10.5q4 -28 10.5 -61.5t13.5 -62.5q12 -45 39.5 -71.5t75.5 -26.5h9q15 0 23 -12t8 -26.5t-7.5 -26.5t-23.5 -12h-9q-67 0 -107 48.5t-52 144.5q-8 -23 -23.5 -44t-35 -37.5t-41.5 -26.5t-44 -12q-3 -32 -9 -66t-15 -66.5t-21.5 -61t-27.5 -49.5q-12 -17 -28.5 -32 t-36 -26.5t-41.5 -19.5t-44 -10q-52 -4 -92 1.5t-77 16.5q-10 3 -12.5 7t0 7.5t7.5 5.5t11 2q53 -5 102 6t92 31q35 17 62 43t46.5 59t32.5 71.5t20 79.5q-17 2 -30.5 6.5t-21.5 10.5q-5 3 -6 6.5t-1 10.5q1 16 2.5 31.5t3.5 28.5z" />
<glyph unicode="&#xfe98;&#xfeb0;" horiz-adv-x="637" d="M187 377l60 -50q3 -3 1 -8l-41 -51q-4 -4 -8 0l-61 50q-3 3 0 8l41 50q4 4 8 1zM250 166q0 3 2 4t7 -3q12 -9 22.5 -15.5t27.5 -6.5q32 0 60.5 11t51.5 31t39 48t21 62q2 11 8.5 12.5t8.5 -10.5q4 -28 10.5 -61.5t13.5 -62.5q12 -45 39.5 -71.5t75.5 -26.5h9q15 0 23 -12 t8 -26.5t-7.5 -26.5t-23.5 -12h-9q-67 0 -107 48.5t-52 144.5q-8 -23 -23.5 -44t-35 -37.5t-41.5 -26.5t-44 -12q-3 -32 -9 -66t-15 -66.5t-21.5 -61t-27.5 -49.5q-12 -17 -28.5 -32t-36 -26.5t-41.5 -19.5t-44 -10q-52 -4 -92 1.5t-77 16.5q-10 3 -12.5 7t0 7.5t7.5 5.5 t11 2q53 -5 102 6t92 31q35 17 62 43t46.5 59t32.5 71.5t20 79.5q-17 2 -30.5 6.5t-21.5 10.5q-5 3 -6 6.5t-1 10.5q1 16 2.5 31.5t3.5 28.5zM541 396q-3 -5 -9 -1l-59 46l-37 -52q-2 -2 -4.5 -2.5t-3.5 0.5l-63 48q-2 1 -2 2t1 4l40 56q3 5 7 2l59 -45l40 51q3 3 7 1 l61 -51q2 -3 0 -7z" />
<glyph unicode="&#xfe9c;&#xfeb0;" horiz-adv-x="637" d="M187 377l60 -50q3 -3 1 -8l-41 -51q-4 -4 -8 0l-61 50q-3 3 0 8l41 50q4 4 8 1zM250 166q0 3 2 4t7 -3q12 -9 22.5 -15.5t27.5 -6.5q32 0 60.5 11t51.5 31t39 48t21 62q2 11 8.5 12.5t8.5 -10.5q4 -28 10.5 -61.5t13.5 -62.5q12 -45 39.5 -71.5t75.5 -26.5h9q15 0 23 -12 t8 -26.5t-7.5 -26.5t-23.5 -12h-9q-67 0 -107 48.5t-52 144.5q-8 -23 -23.5 -44t-35 -37.5t-41.5 -26.5t-44 -12q-3 -32 -9 -66t-15 -66.5t-21.5 -61t-27.5 -49.5q-12 -17 -28.5 -32t-36 -26.5t-41.5 -19.5t-44 -10q-52 -4 -92 1.5t-77 16.5q-10 3 -12.5 7t0 7.5t7.5 5.5 t11 2q53 -5 102 6t92 31q35 17 62 43t46.5 59t32.5 71.5t20 79.5q-17 2 -30.5 6.5t-21.5 10.5q-5 3 -6 6.5t-1 10.5q1 16 2.5 31.5t3.5 28.5zM547 391q-3 -3 -5 -2.5t-4 1.5l-58 45l-37 -51q-2 -2 -4.5 -2.5t-3.5 0.5l-62 47q-2 1 -2 2.5t1 3.5l39 55q1 2 3 3t4 -1l58 -44 l40 51l2.5 2.5t3.5 -1.5l61 -51q4 -2 0 -7zM454 597l60 -49q2 -2 2 -4t-1 -4l-40 -50q-3 -4 -9 0l-60 49q-3 3 0 8l41 49q3 4 7 1z" />
<glyph unicode="&#xfee8;&#xfeb0;" horiz-adv-x="637" d="M187 377l60 -50q3 -3 1 -8l-41 -51q-4 -4 -8 0l-61 50q-3 3 0 8l41 50q4 4 8 1zM462 517l60 -50q3 -3 1 -8l-41 -51q-4 -4 -8 0l-61 50q-3 3 0 8l41 50q4 4 8 1zM250 166q0 3 2 4t7 -3q12 -9 22.5 -15.5t27.5 -6.5q32 0 60.5 11t51.5 31t39 48t21 62q2 11 8.5 12.5 t8.5 -10.5q4 -28 10.5 -61.5t13.5 -62.5q12 -45 39.5 -71.5t75.5 -26.5h9q15 0 23 -12t8 -26.5t-7.5 -26.5t-23.5 -12h-9q-67 0 -107 48.5t-52 144.5q-8 -23 -23.5 -44t-35 -37.5t-41.5 -26.5t-44 -12q-3 -32 -9 -66t-15 -66.5t-21.5 -61t-27.5 -49.5q-12 -17 -28.5 -32 t-36 -26.5t-41.5 -19.5t-44 -10q-52 -4 -92 1.5t-77 16.5q-10 3 -12.5 7t0 7.5t7.5 5.5t11 2q53 -5 102 6t92 31q35 17 62 43t46.5 59t32.5 71.5t20 79.5q-17 2 -30.5 6.5t-21.5 10.5q-5 3 -6 6.5t-1 10.5q1 16 2.5 31.5t3.5 28.5z" />
<glyph unicode="&#xfef4;&#xfeb0;" horiz-adv-x="637" d="M187 377l60 -50q3 -3 1 -8l-41 -51q-4 -4 -8 0l-61 50q-3 3 0 8l41 50q4 4 8 1zM250 166q0 3 2 4t7 -3q12 -9 22.5 -15.5t27.5 -6.5q32 0 60.5 11t51.5 31t39 48t21 62q2 11 8.5 12.5t8.5 -10.5q4 -28 10.5 -61.5t13.5 -62.5q12 -45 39.5 -71.5t75.5 -26.5h9q15 0 23 -12 t8 -26.5t-7.5 -26.5t-23.5 -12h-9q-67 0 -107 48.5t-52 144.5q-8 -23 -23.5 -44t-35 -37.5t-41.5 -26.5t-44 -12q-3 -32 -9 -66t-15 -66.5t-21.5 -61t-27.5 -49.5q-12 -17 -28.5 -32t-36 -26.5t-41.5 -19.5t-44 -10q-52 -4 -92 1.5t-77 16.5q-10 3 -12.5 7t0 7.5t7.5 5.5 t11 2q53 -5 102 6t92 31q35 17 62 43t46.5 59t32.5 71.5t20 79.5q-17 2 -30.5 6.5t-21.5 10.5q-5 3 -6 6.5t-1 10.5q1 16 2.5 31.5t3.5 28.5zM552 -162q-3 -5 -9 -1l-59 46l-37 -52q-2 -2 -4.5 -2.5t-3.5 0.5l-63 48q-2 1 -2 2t1 4l40 56q3 5 7 2l59 -45l40 51q3 3 7 1 l61 -51q2 -3 0 -7z" />
<glyph unicode="&#xfe8c;&#xfeb0;" horiz-adv-x="637" d="M187 377l60 -50q3 -3 1 -8l-41 -51q-4 -4 -8 0l-61 50q-3 3 0 8l41 50q4 4 8 1zM250 166q0 3 2 4t7 -3q12 -9 22.5 -15.5t27.5 -6.5q32 0 60.5 11t51.5 31t39 48t21 62q2 11 8.5 12.5t8.5 -10.5q4 -28 10.5 -61.5t13.5 -62.5q12 -45 39.5 -71.5t75.5 -26.5h9q15 0 23 -12 t8 -26.5t-7.5 -26.5t-23.5 -12h-9q-67 0 -107 48.5t-52 144.5q-8 -23 -23.5 -44t-35 -37.5t-41.5 -26.5t-44 -12q-3 -32 -9 -66t-15 -66.5t-21.5 -61t-27.5 -49.5q-12 -17 -28.5 -32t-36 -26.5t-41.5 -19.5t-44 -10q-52 -4 -92 1.5t-77 16.5q-10 3 -12.5 7t0 7.5t7.5 5.5 t11 2q53 -5 102 6t92 31q35 17 62 43t46.5 59t32.5 71.5t20 79.5q-17 2 -30.5 6.5t-21.5 10.5q-5 3 -6 6.5t-1 10.5q1 16 2.5 31.5t3.5 28.5zM395 412q3 2 9 4.5t11.5 6t11 6.5t9.5 6q-11 9 -19 19.5t-15 24.5q-3 6 -2 16t6 18q3 5 12 15.5t21.5 21t28 18.5t31.5 8 q5 0 10.5 -3.5t9.5 -9t7 -11t4 -10.5q3 -11 0 -19q-8 -18 -13 -22.5t-9 -4.5q-2 0 -3.5 2.5t-2.5 6l-2 7t-1 4.5q-2 5 -8.5 9t-13.5 4q-23 0 -43 -17q7 -18 22 -32.5t34 -17.5q25 -3 48 1.5t48 10.5q0 -1 -2 -8.5t-5 -16t-6 -15.5t-5 -7q-21 -2 -42 -6.5t-44 -10.5 q-24 -8 -49 -19t-47 -22q-5 0 -7 4q3 10 7.5 20.5t8.5 18.5z" />
<glyph unicode="&#xfe92;&#xfee6;" horiz-adv-x="765" d="M601 -22l60 -50q3 -3 1 -8l-41 -51q-4 -4 -8 0l-61 50q-3 3 0 8l41 50q4 4 8 1zM427 259q2 5 4 4.5t5 -4.5l12 -18t12.5 -17t12.5 -13t12 -6q22 -2 43.5 2.5t39 16.5t32 31t22.5 47q3 11 9 12t7 -10q4 -47 9 -88.5t17.5 -72.5t36 -49t64.5 -18h8q11 0 18 -6t10.5 -14.5 t3.5 -18.5t-3.5 -18.5t-10.5 -13.5t-18 -5h-8q-40 0 -67 15.5t-44.5 43t-27 64.5t-12.5 79q-7 -14 -19.5 -26t-27.5 -22t-32 -16.5t-34 -8.5q3 -26 3 -57t-4 -59q-5 -33 -19 -59.5t-35 -47t-47.5 -35.5t-56 -24.5t-60 -14t-60.5 -4.5q-42 0 -76 12.5t-59 35.5t-38.5 56.5 t-13.5 75.5q0 47 14.5 88t41.5 79q3 5 5 4.5t3.5 -3t2 -5.5t0.5 -4q-24 -46 -29.5 -92t8.5 -84t50 -62t97 -24q34 0 68.5 5t67 16.5t60 31.5t47.5 49q1 22 -4 46.5t-14 48t-22 46.5t-26 43zM299 399l61 -50q3 -3 0 -8l-40 -50q-4 -4 -8 -1l-61 50q-3 3 0 8l41 50q3 4 7 1z " />
<glyph unicode="&#xfe98;&#xfee6;" horiz-adv-x="765" d="M427 259q2 5 4 4.5t5 -4.5l12 -18t12.5 -17t12.5 -13t12 -6q22 -2 43.5 2.5t39 16.5t32 31t22.5 47q3 11 9 12t7 -10q4 -47 9 -88.5t17.5 -72.5t36 -49t64.5 -18h8q11 0 18 -6t10.5 -14.5t3.5 -18.5t-3.5 -18.5t-10.5 -13.5t-18 -5h-8q-40 0 -67 15.5t-44.5 43t-27 64.5 t-12.5 79q-7 -14 -19.5 -26t-27.5 -22t-32 -16.5t-34 -8.5q3 -26 3 -57t-4 -59q-5 -33 -19 -59.5t-35 -47t-47.5 -35.5t-56 -24.5t-60 -14t-60.5 -4.5q-42 0 -76 12.5t-59 35.5t-38.5 56.5t-13.5 75.5q0 47 14.5 88t41.5 79q3 5 5 4.5t3.5 -3t2 -5.5t0.5 -4 q-24 -46 -29.5 -92t8.5 -84t50 -62t97 -24q34 0 68.5 5t67 16.5t60 31.5t47.5 49q1 22 -4 46.5t-14 48t-22 46.5t-26 43zM299 399l61 -50q3 -3 0 -8l-40 -50q-4 -4 -8 -1l-61 50q-3 3 0 8l41 50q3 4 7 1zM676 402q-3 -5 -9 -1l-59 46l-37 -52q-2 -2 -4.5 -2.5t-3.5 0.5 l-63 48q-2 1 -2 2t1 4l40 56q3 5 7 2l59 -45l40 51q3 3 7 1l61 -51q2 -3 0 -7z" />
<glyph unicode="&#xfe9c;&#xfee6;" horiz-adv-x="765" d="M427 259q2 5 4 4.5t5 -4.5l12 -18t12.5 -17t12.5 -13t12 -6q22 -2 43.5 2.5t39 16.5t32 31t22.5 47q3 11 9 12t7 -10q4 -47 9 -88.5t17.5 -72.5t36 -49t64.5 -18h8q11 0 18 -6t10.5 -14.5t3.5 -18.5t-3.5 -18.5t-10.5 -13.5t-18 -5h-8q-40 0 -67 15.5t-44.5 43t-27 64.5 t-12.5 79q-7 -14 -19.5 -26t-27.5 -22t-32 -16.5t-34 -8.5q3 -26 3 -57t-4 -59q-5 -33 -19 -59.5t-35 -47t-47.5 -35.5t-56 -24.5t-60 -14t-60.5 -4.5q-42 0 -76 12.5t-59 35.5t-38.5 56.5t-13.5 75.5q0 47 14.5 88t41.5 79q3 5 5 4.5t3.5 -3t2 -5.5t0.5 -4 q-24 -46 -29.5 -92t8.5 -84t50 -62t97 -24q34 0 68.5 5t67 16.5t60 31.5t47.5 49q1 22 -4 46.5t-14 48t-22 46.5t-26 43zM299 399l61 -50q3 -3 0 -8l-40 -50q-4 -4 -8 -1l-61 50q-3 3 0 8l41 50q3 4 7 1zM676 402q-3 -3 -5 -2.5t-4 1.5l-58 45l-37 -51q-2 -2 -4.5 -2.5 t-3.5 0.5l-62 47q-2 1 -2 2.5t1 3.5l39 55q1 2 3 3t4 -1l58 -44l40 51l2.5 2.5t3.5 -1.5l61 -51q4 -2 0 -7zM583 608l60 -49q2 -2 2 -4t-1 -4l-40 -50q-3 -4 -9 0l-60 49q-3 3 0 8l41 49q3 4 7 1z" />
<glyph unicode="&#xfee8;&#xfee6;" horiz-adv-x="765" d="M597 528l60 -50q3 -3 1 -8l-41 -51q-4 -4 -8 0l-61 50q-3 3 0 8l41 50q4 4 8 1zM427 259q2 5 4 4.5t5 -4.5l12 -18t12.5 -17t12.5 -13t12 -6q22 -2 43.5 2.5t39 16.5t32 31t22.5 47q3 11 9 12t7 -10q4 -47 9 -88.5t17.5 -72.5t36 -49t64.5 -18h8q11 0 18 -6t10.5 -14.5 t3.5 -18.5t-3.5 -18.5t-10.5 -13.5t-18 -5h-8q-40 0 -67 15.5t-44.5 43t-27 64.5t-12.5 79q-7 -14 -19.5 -26t-27.5 -22t-32 -16.5t-34 -8.5q3 -26 3 -57t-4 -59q-5 -33 -19 -59.5t-35 -47t-47.5 -35.5t-56 -24.5t-60 -14t-60.5 -4.5q-42 0 -76 12.5t-59 35.5t-38.5 56.5 t-13.5 75.5q0 47 14.5 88t41.5 79q3 5 5 4.5t3.5 -3t2 -5.5t0.5 -4q-24 -46 -29.5 -92t8.5 -84t50 -62t97 -24q34 0 68.5 5t67 16.5t60 31.5t47.5 49q1 22 -4 46.5t-14 48t-22 46.5t-26 43zM299 399l61 -50q3 -3 0 -8l-40 -50q-4 -4 -8 -1l-61 50q-3 3 0 8l41 50q3 4 7 1z " />
<glyph unicode="&#xfef4;&#xfee6;" horiz-adv-x="765" d="M427 259q2 5 4 4.5t5 -4.5l12 -18t12.5 -17t12.5 -13t12 -6q22 -2 43.5 2.5t39 16.5t32 31t22.5 47q3 11 9 12t7 -10q4 -47 9 -88.5t17.5 -72.5t36 -49t64.5 -18h8q11 0 18 -6t10.5 -14.5t3.5 -18.5t-3.5 -18.5t-10.5 -13.5t-18 -5h-8q-40 0 -67 15.5t-44.5 43t-27 64.5 t-12.5 79q-7 -14 -19.5 -26t-27.5 -22t-32 -16.5t-34 -8.5q3 -26 3 -57t-4 -59q-5 -33 -19 -59.5t-35 -47t-47.5 -35.5t-56 -24.5t-60 -14t-60.5 -4.5q-42 0 -76 12.5t-59 35.5t-38.5 56.5t-13.5 75.5q0 47 14.5 88t41.5 79q3 5 5 4.5t3.5 -3t2 -5.5t0.5 -4 q-24 -46 -29.5 -92t8.5 -84t50 -62t97 -24q34 0 68.5 5t67 16.5t60 31.5t47.5 49q1 22 -4 46.5t-14 48t-22 46.5t-26 43zM299 399l61 -50q3 -3 0 -8l-40 -50q-4 -4 -8 -1l-61 50q-3 3 0 8l41 50q3 4 7 1zM698 -160q-3 -5 -9 -1l-59 46l-37 -52q-2 -2 -4.5 -2.5t-3.5 0.5 l-63 48q-2 1 -2 2t1 4l40 56q3 5 7 2l59 -45l40 51q3 3 7 1l61 -51q2 -3 0 -7z" />
<glyph unicode="&#xfe8c;&#xfee6;" horiz-adv-x="765" d="M427 259q2 5 4 4.5t5 -4.5l12 -18t12.5 -17t12.5 -13t12 -6q22 -2 43.5 2.5t39 16.5t32 31t22.5 47q3 11 9 12t7 -10q4 -47 9 -88.5t17.5 -72.5t36 -49t64.5 -18h8q11 0 18 -6t10.5 -14.5t3.5 -18.5t-3.5 -18.5t-10.5 -13.5t-18 -5h-8q-40 0 -67 15.5t-44.5 43t-27 64.5 t-12.5 79q-7 -14 -19.5 -26t-27.5 -22t-32 -16.5t-34 -8.5q3 -26 3 -57t-4 -59q-5 -33 -19 -59.5t-35 -47t-47.5 -35.5t-56 -24.5t-60 -14t-60.5 -4.5q-42 0 -76 12.5t-59 35.5t-38.5 56.5t-13.5 75.5q0 47 14.5 88t41.5 79q3 5 5 4.5t3.5 -3t2 -5.5t0.5 -4 q-24 -46 -29.5 -92t8.5 -84t50 -62t97 -24q34 0 68.5 5t67 16.5t60 31.5t47.5 49q1 22 -4 46.5t-14 48t-22 46.5t-26 43zM299 399l61 -50q3 -3 0 -8l-40 -50q-4 -4 -8 -1l-61 50q-3 3 0 8l41 50q3 4 7 1zM530 408q3 2 9 4.5t11.5 6t11 6.5t9.5 6q-11 9 -19 19.5t-15 24.5 q-3 6 -2 16t6 18q3 5 12 15.5t21.5 21t28 18.5t31.5 8q5 0 10.5 -3.5t9.5 -9t7 -11t4 -10.5q3 -11 0 -19q-8 -18 -13 -22.5t-9 -4.5q-2 0 -3.5 2.5t-2.5 6l-2 7t-1 4.5q-2 5 -8.5 9t-13.5 4q-23 0 -43 -17q7 -18 22 -32.5t34 -17.5q25 -3 48 1.5t48 10.5q0 -1 -2 -8.5 t-5 -16t-6 -15.5t-5 -7q-21 -2 -42 -6.5t-44 -10.5q-24 -8 -49 -19t-47 -22q-5 0 -7 4q3 10 7.5 20.5t8.5 18.5z" />
<glyph unicode="&#xfeb3;&#xfeae;" horiz-adv-x="943" d="M275 108q58 11 111 26t107 37q1 1 2.5 -0.5t1.5 -3.5q0 -11 -1 -19.5t-1 -18.5q0 -17 10 -28t26 -17t36 -7.5t39.5 0.5t37.5 6.5t29 11.5q23 14 38 35.5t29 54.5q2 5 5.5 7.5t7 2.5t5.5 -3t0 -9q-2 -13 -5.5 -23.5l-8.5 -25.5q3 -9 15.5 -19.5t31 -18t38.5 -10t38 4.5 q0 19 -2 36t-10 36q6 15 13.5 31t16.5 30q3 5 6 1q13 -34 13 -68.5t-8 -68.5q-2 -9 -6.5 -20.5t-11 -22.5t-15.5 -19.5t-21 -11.5q-18 -4 -37 -1.5t-36.5 10.5t-32.5 20.5t-25 26.5q-12 -21 -31 -35t-43 -23q-20 -7 -40.5 -9.5t-40 -0.5t-37 10t-30.5 22q-10 11 -16.5 27.5 t-7.5 31.5q-21 -8 -39 -14t-36 -11.5t-37 -10.5t-40 -10q-7 -52 -19.5 -97.5t-30.5 -84.5q-25 -56 -65.5 -85.5t-97.5 -36.5q-19 -2 -42.5 -2t-47 3t-45.5 7.5t-36 10.5q-10 4 -13 8.5t-1 8t7.5 5.5t11.5 2q42 -4 82 -1t78 19q33 14 62.5 38t53.5 55.5t42.5 68.5t30.5 76 l-22 -6q-1 0 -2.5 1t-0.5 3q2 16 6 31t7 31q0 2 1 2z" />
<glyph unicode="&#xfeb7;&#xfeae;" horiz-adv-x="944" d="M275 108q58 11 111 26t107 37q1 1 2.5 -0.5t1.5 -3.5q0 -11 -1 -19.5t-1 -18.5q0 -17 10 -28t26 -17t36 -7.5t39.5 0.5t37.5 6.5t29 11.5q23 14 38 35.5t29 54.5q2 5 5.5 7.5t7 2.5t5.5 -3t0 -9q-2 -13 -5.5 -23.5l-8.5 -25.5q3 -9 15.5 -19.5t31 -18t38.5 -10t38 4.5 q0 19 -2 36t-10 36q6 15 13.5 31t16.5 30q3 5 6 1q13 -34 13 -68.5t-8 -68.5q-2 -9 -6.5 -20.5t-11 -22.5t-15.5 -19.5t-21 -11.5q-18 -4 -37 -1.5t-36.5 10.5t-32.5 20.5t-25 26.5q-12 -21 -31 -35t-43 -23q-20 -7 -40.5 -9.5t-40 -0.5t-37 10t-30.5 22q-10 11 -16.5 27.5 t-7.5 31.5q-21 -8 -39 -14t-36 -11.5t-37 -10.5t-40 -10q-7 -52 -19.5 -97.5t-30.5 -84.5q-25 -56 -65.5 -85.5t-97.5 -36.5q-19 -2 -42.5 -2t-47 3t-45.5 7.5t-36 10.5q-10 4 -13 8.5t-1 8t7.5 5.5t11.5 2q42 -4 82 -1t78 19q33 14 62.5 38t53.5 55.5t42.5 68.5t30.5 76 l-22 -6q-1 0 -2.5 1t-0.5 3q2 16 6 31t7 31q0 2 1 2zM774 280q-3 -3 -5 -2.5t-4 1.5l-58 45l-37 -51q-2 -2 -4.5 -2.5t-3.5 0.5l-62 47q-2 1 -2 2.5t1 3.5l39 55q1 2 3 3t4 -1l58 -44l40 51l2.5 2.5t3.5 -1.5l61 -51q4 -2 0 -7zM681 486l60 -49q2 -2 2 -4t-1 -4l-40 -50 q-3 -4 -9 0l-60 49q-3 3 0 8l41 49q3 4 7 1z" />
<glyph unicode="&#xfeb3;&#xfeb0;" horiz-adv-x="943" d="M220 322l60 -50q3 -3 1 -8l-41 -51q-4 -4 -8 0l-61 50q-3 3 0 8l41 50q4 4 8 1zM275 108q58 11 111 26t107 37q1 1 2.5 -0.5t1.5 -3.5q0 -11 -1 -19.5t-1 -18.5q0 -17 10 -28t26 -17t36 -7.5t39.5 0.5t37.5 6.5t29 11.5q23 14 38 35.5t29 54.5q2 5 5.5 7.5t7 2.5t5.5 -3 t0 -9q-2 -13 -5.5 -23.5l-8.5 -25.5q3 -9 15.5 -19.5t31 -18t38.5 -10t38 4.5q0 19 -2 36t-10 36q6 15 13.5 31t16.5 30q3 5 6 1q13 -34 13 -68.5t-8 -68.5q-2 -9 -6.5 -20.5t-11 -22.5t-15.5 -19.5t-21 -11.5q-18 -4 -37 -1.5t-36.5 10.5t-32.5 20.5t-25 26.5 q-12 -21 -31 -35t-43 -23q-20 -7 -40.5 -9.5t-40 -0.5t-37 10t-30.5 22q-10 11 -16.5 27.5t-7.5 31.5q-21 -8 -39 -14t-36 -11.5t-37 -10.5t-40 -10q-7 -52 -19.5 -97.5t-30.5 -84.5q-25 -56 -65.5 -85.5t-97.5 -36.5q-19 -2 -42.5 -2t-47 3t-45.5 7.5t-36 10.5 q-10 4 -13 8.5t-1 8t7.5 5.5t11.5 2q42 -4 82 -1t78 19q33 14 62.5 38t53.5 55.5t42.5 68.5t30.5 76l-22 -6q-1 0 -2.5 1t-0.5 3q2 16 6 31t7 31q0 2 1 2z" />
<glyph unicode="&#xfeb7;&#xfeb0;" horiz-adv-x="944" d="M220 322l60 -50q3 -3 1 -8l-41 -51q-4 -4 -8 0l-61 50q-3 3 0 8l41 50q4 4 8 1zM275 108q58 11 111 26t107 37q1 1 2.5 -0.5t1.5 -3.5q0 -11 -1 -19.5t-1 -18.5q0 -17 10 -28t26 -17t36 -7.5t39.5 0.5t37.5 6.5t29 11.5q23 14 38 35.5t29 54.5q2 5 5.5 7.5t7 2.5t5.5 -3 t0 -9q-2 -13 -5.5 -23.5l-8.5 -25.5q3 -9 15.5 -19.5t31 -18t38.5 -10t38 4.5q0 19 -2 36t-10 36q6 15 13.5 31t16.5 30q3 5 6 1q13 -34 13 -68.5t-8 -68.5q-2 -9 -6.5 -20.5t-11 -22.5t-15.5 -19.5t-21 -11.5q-18 -4 -37 -1.5t-36.5 10.5t-32.5 20.5t-25 26.5 q-12 -21 -31 -35t-43 -23q-20 -7 -40.5 -9.5t-40 -0.5t-37 10t-30.5 22q-10 11 -16.5 27.5t-7.5 31.5q-21 -8 -39 -14t-36 -11.5t-37 -10.5t-40 -10q-7 -52 -19.5 -97.5t-30.5 -84.5q-25 -56 -65.5 -85.5t-97.5 -36.5q-19 -2 -42.5 -2t-47 3t-45.5 7.5t-36 10.5 q-10 4 -13 8.5t-1 8t7.5 5.5t11.5 2q42 -4 82 -1t78 19q33 14 62.5 38t53.5 55.5t42.5 68.5t30.5 76l-22 -6q-1 0 -2.5 1t-0.5 3q2 16 6 31t7 31q0 2 1 2zM774 280q-3 -3 -5 -2.5t-4 1.5l-58 45l-37 -51q-2 -2 -4.5 -2.5t-3.5 0.5l-62 47q-2 1 -2 2.5t1 3.5l39 55q1 2 3 3 t4 -1l58 -44l40 51l2.5 2.5t3.5 -1.5l61 -51q4 -2 0 -7zM681 486l60 -49q2 -2 2 -4t-1 -4l-40 -50q-3 -4 -9 0l-60 49q-3 3 0 8l41 49q3 4 7 1z" />
<glyph unicode="&#xfeb4;&#xfeae;" horiz-adv-x="968" d="M632 81q12 7 21 14.5t17 16.5t16 20.5t17 27.5q2 5 5 7.5t6 2.5t4.5 -3t-0.5 -9q-3 -13 -6 -21.5t-8 -20.5q3 -10 15 -18.5t27 -13.5t30.5 -6.5t24.5 1.5q7 2 13.5 10t12.5 19.5t10.5 25t8.5 27.5q2 7 5 12t6 6t5 -1.5t2 -9.5q1 -22 6.5 -39.5t17 -29t31 -17.5t50.5 -6h9 q10 0 17 -5.5t10.5 -14t3.5 -18.5t-3.5 -18.5t-10.5 -14t-17 -5.5h-9q-32 0 -54 6t-37.5 16t-25 23t-16.5 25q-3 -8 -9 -18.5t-13 -20.5t-15 -16.5t-17 -6.5q-16 0 -33.5 3.5t-32 9t-26.5 14t-19 18.5q-12 -21 -31 -34t-41.5 -17.5t-46 -1t-42.5 14.5t-31.5 30.5t-14.5 46.5 q-33 -13 -71.5 -25t-78.5 -19q-8 -55 -21 -103t-34 -90q-23 -46 -60.5 -75.5t-95.5 -37.5q-21 -3 -45.5 -2t-48.5 4t-44.5 7.5t-35.5 9.5q-10 3 -12.5 8t-0.5 9t8 7q8 3 14 2q83 -14 156 17q33 13 62.5 38.5t54 58t43 69t29.5 72.5l-22 -5q-1 0 -2.5 0.5t-1.5 3.5 q2 16 6.5 31t7.5 31q0 2 1.5 3.5l2.5 2.5q53 9 109.5 24t108.5 35q3 0 4 -4q-1 -11 -1.5 -19.5t-0.5 -18.5q0 -16 7.5 -27t19.5 -18t27 -10t30.5 -3t29.5 3.5t23 9.5z" />
<glyph unicode="&#xfeb8;&#xfeae;" horiz-adv-x="968" d="M632 81q12 7 21 14.5t17 16.5t16 20.5t17 27.5q2 5 5 7.5t6 2.5t4.5 -3t-0.5 -9q-3 -13 -6 -21.5t-8 -20.5q3 -10 15 -18.5t27 -13.5t30.5 -6.5t24.5 1.5q7 2 13.5 10t12.5 19.5t10.5 25t8.5 27.5q2 7 5 12t6 6t5 -1.5t2 -9.5q1 -22 6.5 -39.5t17 -29t31 -17.5t50.5 -6h9 q10 0 17 -5.5t10.5 -14t3.5 -18.5t-3.5 -18.5t-10.5 -14t-17 -5.5h-9q-32 0 -54 6t-37.5 16t-25 23t-16.5 25q-3 -8 -9 -18.5t-13 -20.5t-15 -16.5t-17 -6.5q-16 0 -33.5 3.5t-32 9t-26.5 14t-19 18.5q-12 -21 -31 -34t-41.5 -17.5t-46 -1t-42.5 14.5t-31.5 30.5t-14.5 46.5 q-33 -13 -71.5 -25t-78.5 -19q-8 -55 -21 -103t-34 -90q-23 -46 -60.5 -75.5t-95.5 -37.5q-21 -3 -45.5 -2t-48.5 4t-44.5 7.5t-35.5 9.5q-10 3 -12.5 8t-0.5 9t8 7q8 3 14 2q83 -14 156 17q33 13 62.5 38.5t54 58t43 69t29.5 72.5l-22 -5q-1 0 -2.5 0.5t-1.5 3.5 q2 16 6.5 31t7.5 31q0 2 1.5 3.5l2.5 2.5q53 9 109.5 24t108.5 35q3 0 4 -4q-1 -11 -1.5 -19.5t-0.5 -18.5q0 -16 7.5 -27t19.5 -18t27 -10t30.5 -3t29.5 3.5t23 9.5zM769 260q-3 -3 -5 -2.5t-4 1.5l-58 45l-37 -51q-2 -2 -4.5 -2.5t-3.5 0.5l-62 47q-2 1 -2 2.5t1 3.5 l39 55q1 2 3 3t4 -1l58 -44l40 51l2.5 2.5t3.5 -1.5l61 -51q4 -2 0 -7zM676 466l60 -49q2 -2 2 -4t-1 -4l-40 -50q-3 -4 -9 0l-60 49q-3 3 0 8l41 49q3 4 7 1z" />
</font>
</defs>
</svg>
