<?xml version="1.0" standalone="no"?>
<!DOCTYPE svg PUBLIC "-//W3C//DTD SVG 1.1//EN" "http://www.w3.org/Graphics/SVG/1.1/DTD/svg11.dtd" >
<svg xmlns="http://www.w3.org/2000/svg" xmlns:xlink="http://www.w3.org/1999/xlink" version="1.1">
<metadata></metadata>
<defs>
<font id="rakkasregular" horiz-adv-x="0" >
<font-face units-per-em="1000" ascent="800" descent="-200" />
<missing-glyph horiz-adv-x="170" />
<glyph unicode="fi" horiz-adv-x="575" d="M180 534.5q21 -60.5 39 -84.5h87v-34h-89l-2 -384l77 -3v-29h-255v29l37 3l-2 384h-56v34h56q-11 26 -17.5 62.5t-6.5 67.5q0 19 1 28q9 26 33.5 47.5t55 34t56.5 12.5q39 0 79.5 -10.5t71.5 -27.5l-83 -119q-20 23 -51 51t-59 47q7 -48 28 -108.5zM512 576l-128 -19v104 l128 29v-114zM559 29v-29h-215v29l37 3l-3 356l-38 -8l-10 29l181 56l14 -24l-3 -409z" />
<glyph unicode="fl" horiz-adv-x="578" d="M558 29v-29h-215v29l37 3l-5 561q-150 48 -225 65q4 -47 27 -114t42 -94h87v-34h-89l-2 -384l77 -3v-29h-255v29l37 3l-2 384h-56v34h56q-11 26 -17.5 62.5t-6.5 67.5q0 19 1 28q13 40 61 70.5t94 30.5q55 0 151 -8t171 -17l-5 -652z" />
<glyph unicode="&#xfe8b;&#xfef0;" horiz-adv-x="596" arabic-form="isolated" d="M601 339q-14 -101 -31 -151.5t-44 -80.5q-45 -51 -129.5 -86.5t-166.5 -35.5q-87 0 -142 41t-63 119q34 94 88 179t128 150l21 -94q-94 -71 -149 -156q26 -42 66.5 -61.5t105.5 -19.5q63 0 122 18.5t103 51.5q-83 4 -218 28l61 131l119 13q-44 64 -117 125l109 117 q31 -24 54.5 -65.5t23.5 -72.5q0 -26 -12 -65t-31 -75q45 -6 102 -10zM554 749l-55 -60l-142 -38l-12 11l57 47q-32 25 -32 59q0 36 28.5 62.5t72.5 26.5q16 0 35 -4t31 -10l-38 -72q-11 6 -30 11t-36 5q-15 0 -24 -4.5t-9 -11.5q0 -10 21.5 -18.5t47.5 -8.5q43 0 73 15z " />
<glyph unicode="&#xfe8b;&#xfef2;" horiz-adv-x="621" arabic-form="isolated" d="M601 339q-14 -101 -31 -151.5t-44 -80.5q-45 -51 -129.5 -86.5t-166.5 -35.5q-87 0 -142 41t-63 119q34 94 88 179t128 150l21 -94q-94 -71 -149 -156q26 -42 66.5 -61.5t105.5 -19.5q63 0 122 18.5t103 51.5q-83 4 -218 28l61 131l119 13q-44 64 -117 125l109 117 q31 -24 54.5 -65.5t23.5 -72.5q0 -26 -12 -65t-31 -75q45 -6 102 -10zM529 749l-55 -60l-142 -38l-12 11l57 47q-32 25 -32 59q0 36 28.5 62.5t72.5 26.5q16 0 35 -4t31 -10l-38 -72q-11 6 -30 11t-36 5q-15 0 -24 -4.5t-9 -11.5q0 -10 21.5 -18.5t47.5 -8.5q43 0 73 15z M157 -109l181 49l-20 -103l-178 -39z" />
<glyph unicode="&#xfe91;&#xfef0;" horiz-adv-x="619" arabic-form="isolated" d="M436 -29l93 62l14 -23q28 -46 47 -70l-84 -55q-35 27 -70 86zM601 339q-14 -101 -31 -151.5t-44 -80.5q-45 -51 -129.5 -86.5t-166.5 -35.5q-87 0 -142 41t-63 119q34 94 88 179t128 150l21 -94q-94 -71 -149 -156q26 -42 66.5 -61.5t105.5 -19.5q63 0 122 18.5t103 51.5 q-83 4 -218 28l61 131l119 13q-44 64 -117 125l109 117q31 -24 54.5 -65.5t23.5 -72.5q0 -26 -12 -65t-31 -75q45 -6 102 -10z" />
<glyph unicode="&#xfe91;&#xfef2;" horiz-adv-x="619" arabic-form="isolated" d="M601 339q-14 -101 -31 -151.5t-44 -80.5q-45 -51 -129.5 -86.5t-166.5 -35.5q-87 0 -142 41t-63 119q34 94 88 179t128 150l21 -94q-94 -71 -149 -156q26 -42 66.5 -61.5t105.5 -19.5q63 0 122 18.5t103 51.5q-83 4 -218 28l61 131l119 13q-44 64 -117 125l109 117 q31 -24 54.5 -65.5t23.5 -72.5q0 -26 -12 -65t-31 -75q45 -6 102 -10zM207 -109l181 49l-20 -103l-178 -39zM436 -29l93 62l14 -23q28 -46 47 -70l-84 -55q-35 27 -70 86z" />
<glyph unicode="&#xfe97;&#xfef0;" horiz-adv-x="619" arabic-form="isolated" d="M392 733l181 49l-20 -103l-178 -39zM601 339q-14 -101 -31 -151.5t-44 -80.5q-45 -51 -129.5 -86.5t-166.5 -35.5q-87 0 -142 41t-63 119q34 94 88 179t128 150l21 -94q-94 -71 -149 -156q26 -42 66.5 -61.5t105.5 -19.5q63 0 122 18.5t103 51.5q-83 4 -218 28l61 131 l119 13q-44 64 -117 125l109 117q31 -24 54.5 -65.5t23.5 -72.5q0 -26 -12 -65t-31 -75q45 -6 102 -10z" />
<glyph unicode="&#xfe97;&#xfef2;" horiz-adv-x="619" arabic-form="isolated" d="M601 339q-14 -101 -31 -151.5t-44 -80.5q-45 -51 -129.5 -86.5t-166.5 -35.5q-87 0 -142 41t-63 119q34 94 88 179t128 150l21 -94q-94 -71 -149 -156q26 -42 66.5 -61.5t105.5 -19.5q63 0 122 18.5t103 51.5q-83 4 -218 28l61 131l119 13q-44 64 -117 125l109 117 q31 -24 54.5 -65.5t23.5 -72.5q0 -26 -12 -65t-31 -75q45 -6 102 -10zM207 -109l181 49l-20 -103l-178 -39zM392 733l181 49l-20 -103l-178 -39z" />
<glyph unicode="&#xfe9b;&#xfef0;" horiz-adv-x="619" arabic-form="isolated" d="M601 339q-14 -101 -31 -151.5t-44 -80.5q-45 -51 -129.5 -86.5t-166.5 -35.5q-87 0 -142 41t-63 119q34 94 88 179t128 150l21 -94q-94 -71 -149 -156q26 -42 66.5 -61.5t105.5 -19.5q63 0 122 18.5t103 51.5q-83 4 -218 28l61 131l119 13q-44 64 -117 125l109 117 q31 -24 54.5 -65.5t23.5 -72.5q0 -26 -12 -65t-31 -75q45 -6 102 -10zM429 778q25 0 51.5 -6t47.5 -18l-61 -91q-40 20 -76 20q-12 0 -23 -3l-38 -43l-22 12l99 128q7 1 22 1z" />
<glyph unicode="&#xfe9b;&#xfef2;" horiz-adv-x="619" arabic-form="isolated" d="M601 339q-14 -101 -31 -151.5t-44 -80.5q-45 -51 -129.5 -86.5t-166.5 -35.5q-87 0 -142 41t-63 119q34 94 88 179t128 150l21 -94q-94 -71 -149 -156q26 -42 66.5 -61.5t105.5 -19.5q63 0 122 18.5t103 51.5q-83 4 -218 28l61 131l119 13q-44 64 -117 125l109 117 q31 -24 54.5 -65.5t23.5 -72.5q0 -26 -12 -65t-31 -75q45 -6 102 -10zM207 -109l181 49l-20 -103l-178 -39zM479 778q25 0 51.5 -6t47.5 -18l-61 -91q-40 20 -76 20q-12 0 -23 -3l-38 -43l-22 12l99 128q7 1 22 1z" />
<glyph unicode="&#xfed3;&#xfef0;" horiz-adv-x="678" arabic-form="isolated" d="M652.5 766q17.5 -38 17.5 -97q0 -49 -19.5 -114.5t-45.5 -100.5q-20 -25 -72.5 -46t-133.5 -30l-39 -4l58 152l62 6q59 7 111 20l-4 34h-50q-38 0 -61 11.5t-23 32.5q0 24 29 66t66 75t60 33q27 0 44.5 -38zM515 954l93 62l14 -23q28 -46 47 -70l-84 -55q-35 27 -70 86z M499.5 390q65.5 -21 102.5 -42q-14 -101 -31.5 -156t-43.5 -85q-46 -52 -131.5 -87t-175.5 -35q-77 0 -133 42.5t-62 117.5q34 94 85 174.5t131 154.5l21 -94q-54 -42 -88 -78t-61 -78q26 -40 66.5 -60.5t102.5 -20.5q76 0 143 24.5t111 65.5q-38 20 -100 39.5t-114 26.5 l86 226l10 1l7 -16l-35 -93q44 -6 109.5 -27z" />
<glyph unicode="&#xfed3;&#xfef2;" horiz-adv-x="678" arabic-form="isolated" d="M652.5 766q17.5 -38 17.5 -97q0 -49 -19.5 -114.5t-45.5 -100.5q-20 -25 -72.5 -46t-133.5 -30l-39 -4l58 152l62 6q59 7 111 20l-4 34h-50q-38 0 -61 11.5t-23 32.5q0 24 29 66t66 75t60 33q27 0 44.5 -38zM515 954l93 62l14 -23q28 -46 47 -70l-84 -55q-35 27 -70 86z M499.5 390q65.5 -21 102.5 -42q-14 -101 -31.5 -156t-43.5 -85q-46 -52 -131.5 -87t-175.5 -35q-77 0 -133 42.5t-62 117.5q34 94 85 174.5t131 154.5l21 -94q-54 -42 -88 -78t-61 -78q26 -40 66.5 -60.5t102.5 -20.5q76 0 143 24.5t111 65.5q-38 20 -100 39.5t-114 26.5 l86 226l10 1l7 -16l-35 -93q44 -6 109.5 -27zM191 -114l181 49l-20 -103l-178 -39z" />
<glyph unicode="&#xfed7;&#xfef0;" horiz-adv-x="679" arabic-form="isolated" d="M652.5 766q17.5 -38 17.5 -97q0 -49 -19.5 -114.5t-45.5 -100.5q-20 -25 -72.5 -46t-133.5 -30l-39 -4l58 152l62 6q59 7 111 20l-4 34h-50q-38 0 -61 11.5t-23 32.5q0 24 29 66t66 75t60 33q27 0 44.5 -38zM499.5 390q65.5 -21 102.5 -42q-14 -101 -31.5 -156t-43.5 -85 q-46 -52 -131.5 -87t-175.5 -35q-77 0 -133 42.5t-62 117.5q34 94 85 174.5t131 154.5l21 -94q-54 -42 -88 -78t-61 -78q26 -40 66.5 -60.5t102.5 -20.5q76 0 143 24.5t111 65.5q-38 20 -100 39.5t-114 26.5l86 226l10 1l7 -16l-35 -93q44 -6 109.5 -27zM538 931l181 49 l-20 -103l-178 -39z" />
<glyph unicode="&#xfed7;&#xfef2;" horiz-adv-x="679" arabic-form="isolated" d="M652.5 766q17.5 -38 17.5 -97q0 -49 -19.5 -114.5t-45.5 -100.5q-20 -25 -72.5 -46t-133.5 -30l-39 -4l58 152l62 6q59 7 111 20l-4 34h-50q-38 0 -61 11.5t-23 32.5q0 24 29 66t66 75t60 33q27 0 44.5 -38zM499.5 390q65.5 -21 102.5 -42q-14 -101 -31.5 -156t-43.5 -85 q-46 -52 -131.5 -87t-175.5 -35q-77 0 -133 42.5t-62 117.5q34 94 85 174.5t131 154.5l21 -94q-54 -42 -88 -78t-61 -78q26 -40 66.5 -60.5t102.5 -20.5q76 0 143 24.5t111 65.5q-38 20 -100 39.5t-114 26.5l86 226l10 1l7 -16l-35 -93q44 -6 109.5 -27zM538 931l181 49 l-20 -103l-178 -39zM191 -114l181 49l-20 -103l-178 -39z" />
<glyph unicode="&#xfedb;&#xfee2;" horiz-adv-x="501" arabic-form="isolated" d="M756 1032q-19 -72 -67 -136q-166 -71 -300 -150l-12 13q35 55 65 89q131 95 314 184zM388.5 235q16.5 -19 16.5 -33q0 -40 -27.5 -89.5t-63.5 -78.5q-50 -15 -202 -32l11 -193q-17 -115 -83 -155l-45 339q8 29 40.5 66.5t72.5 65.5t68 31q6 1 20 1v5q0 15 15 58t23 56 q11 17 26 18l33 4q-6 60 -26.5 145.5t-41.5 147.5q24 42 56 81t60 61q11 -30 20 -135.5t9 -201.5q0 -21 -7.5 -58t-18.5 -70q28 -14 44.5 -33z" />
<glyph unicode="&#xfedb;&#xfef0;" horiz-adv-x="865" arabic-form="isolated" d="M915 1046q-19 -72 -67 -136q-166 -71 -300 -150l-12 13q35 55 65 89q131 95 314 184zM445 360q111 -16 186 -21q-14 -101 -30.5 -150.5t-44.5 -81.5q-46 -52 -134.5 -87t-181.5 -35q-85 0 -147 42.5t-68 117.5q41 105 106 199t154 166l21 -94q-121 -86 -190 -189 q57 -84 186 -84q69 0 131 19t107 51q-45 2 -110 10.5t-118 17.5l61 131q33 -6 41 -7q-2 72 -8 131.5t-19 132.5q29 35 63.5 66t64.5 45q4 -30 4 -87q0 -40 -7 -105.5t-11 -82.5z" />
<glyph unicode="&#xfedb;&#xfef2;" horiz-adv-x="865" arabic-form="isolated" d="M915 1046q-19 -72 -67 -136q-166 -71 -300 -150l-12 13q35 55 65 89q131 95 314 184zM445 360q111 -16 186 -21q-14 -101 -30.5 -150.5t-44.5 -81.5q-46 -52 -134.5 -87t-181.5 -35q-85 0 -147 42.5t-68 117.5q41 105 106 199t154 166l21 -94q-121 -86 -190 -189 q57 -84 186 -84q69 0 131 19t107 51q-45 2 -110 10.5t-118 17.5l61 131q33 -6 41 -7q-2 72 -8 131.5t-19 132.5q29 35 63.5 66t64.5 45q4 -30 4 -87q0 -40 -7 -105.5t-11 -82.5zM257 -107l181 49l-20 -103l-178 -39z" />
<glyph unicode="&#xfedf;&#xfee2;" horiz-adv-x="443" arabic-form="isolated" d="M335 272q33 -15 51.5 -35t18.5 -35q0 -40 -27.5 -89.5t-63.5 -78.5q-50 -15 -202 -32l11 -193q-17 -115 -83 -155l-45 339q8 29 40.5 66.5t72.5 65.5t68 31q6 1 20 1v5q0 15 15 58t23 56q11 17 26 18l1 -4q41 -3 74 -18zM361 597.5q9 -105.5 9 -201.5q0 -30 -13.5 -85.5 t-32.5 -86.5q-21 -36 -53 -57t-69 -25l58 152l33 4q-6 60 -26.5 145.5t-41.5 147.5q24 42 56 81t60 61q11 -30 20 -135.5z" />
<glyph unicode="&#xfee7;&#xfef0;" horiz-adv-x="619" arabic-form="isolated" d="M601 339q-14 -101 -31 -151.5t-44 -80.5q-45 -51 -129.5 -86.5t-166.5 -35.5q-87 0 -142 41t-63 119q34 94 88 179t128 150l21 -94q-94 -71 -149 -156q26 -42 66.5 -61.5t105.5 -19.5q63 0 122 18.5t103 51.5q-83 4 -218 28l61 131l119 13q-44 64 -117 125l109 117 q31 -24 54.5 -65.5t23.5 -72.5q0 -26 -12 -65t-31 -75q45 -6 102 -10zM372 724l93 62l14 -23q28 -46 47 -70l-84 -55q-35 27 -70 86z" />
<glyph unicode="&#xfee7;&#xfef2;" horiz-adv-x="619" arabic-form="isolated" d="M601 339q-14 -101 -31 -151.5t-44 -80.5q-45 -51 -129.5 -86.5t-166.5 -35.5q-87 0 -142 41t-63 119q34 94 88 179t128 150l21 -94q-94 -71 -149 -156q26 -42 66.5 -61.5t105.5 -19.5q63 0 122 18.5t103 51.5q-83 4 -218 28l61 131l119 13q-44 64 -117 125l109 117 q31 -24 54.5 -65.5t23.5 -72.5q0 -26 -12 -65t-31 -75q45 -6 102 -10zM207 -109l181 49l-20 -103l-178 -39zM372 724l93 62l14 -23q28 -46 47 -70l-84 -55q-35 27 -70 86z" />
<glyph unicode="&#xfe8b;&#xfeec;" horiz-adv-x="576" arabic-form="initial" d="M367 226l57 47q-32 25 -32 59q0 36 28.5 62.5t72.5 26.5q16 0 35 -4t31 -10l-38 -72q-11 6 -30 11t-36 5q-15 0 -24 -4.5t-9 -11.5q0 -10 21.5 -18.5t47.5 -8.5q43 0 73 15l12 -10l-55 -60l-142 -38zM315.5 81.5q57.5 58.5 132.5 58.5q30 0 61 -7.5t50 -18.5l-76 -188 l-31 4l10 48q-9 6 -31.5 10t-41.5 4q-54 0 -94.5 -36t-78.5 -124l-80 -185l-22 3l-45 326l-69 -7l58 152l110 12l21 -286l13 34q56 142 113.5 200.5z" />
<glyph unicode="&#xfe91;&#xfeec;" horiz-adv-x="559" arabic-form="initial" d="M462 -22q-9 6 -31.5 10t-41.5 4q-54 0 -94.5 -36t-78.5 -124l-80 -185l-22 3l-45 326l-69 -7l58 152l110 12l21 -286l13 34q56 142 113.5 200.5t132.5 58.5q30 0 61 -7.5t50 -18.5l-76 -188l-31 4zM558 -118q28 -46 47 -70l-84 -55q-35 27 -70 86l93 62z" />
<glyph unicode="&#xfe97;&#xfeec;" horiz-adv-x="559" arabic-form="initial" d="M542 259l-178 -39l17 93l181 49zM315.5 81.5q57.5 58.5 132.5 58.5q30 0 61 -7.5t50 -18.5l-76 -188l-31 4l10 48q-9 6 -31.5 10t-41.5 4q-54 0 -94.5 -36t-78.5 -124l-80 -185l-22 3l-45 326l-69 -7l58 152l110 12l21 -286l13 34q56 142 113.5 200.5z" />
<glyph unicode="&#xfedb;&#xfea0;" horiz-adv-x="480" arabic-form="initial" d="M630 993q-19 -72 -67 -136q-166 -71 -300 -150l-12 13q35 55 65 89q131 95 314 184zM170 314q111 -16 186 -21q0 -49 -19.5 -117t-42.5 -101q-35 -28 -111.5 -53.5t-182.5 -36.5l58 152q122 13 192 31q-88 6 -213 27l61 131q33 -6 41 -7q-2 72 -8 131.5t-19 132.5 q29 35 63.5 66t64.5 45q4 -30 4 -87q0 -40 -7 -105.5t-11 -82.5zM27 -112l93 62l14 -23q28 -46 47 -70l-84 -55q-35 27 -70 86z" />
<glyph unicode="&#xfedb;&#xfea4;" horiz-adv-x="502" arabic-form="initial" d="M630 993q-19 -72 -67 -136q-166 -71 -300 -150l-12 13q35 55 65 89q131 95 314 184zM170 314q111 -16 186 -21q0 -49 -19.5 -117t-42.5 -101q-35 -28 -111.5 -53.5t-182.5 -36.5l58 152q122 13 192 31q-88 6 -213 27l61 131q33 -6 41 -7q-2 72 -8 131.5t-19 132.5 q29 35 63.5 66t64.5 45q4 -30 4 -87q0 -40 -7 -105.5t-11 -82.5z" />
<glyph unicode="&#xfedb;&#xfea8;" horiz-adv-x="502" arabic-form="initial" d="M630 993q-19 -72 -67 -136q-166 -71 -300 -150l-12 13q35 55 65 89q131 95 314 184zM170 314q111 -16 186 -21q0 -49 -19.5 -117t-42.5 -101q-35 -28 -111.5 -53.5t-182.5 -36.5l58 152q122 13 192 31q-88 6 -213 27l61 131q33 -6 41 -7q-2 72 -8 131.5t-19 132.5 q29 35 63.5 66t64.5 45q4 -30 4 -87q0 -40 -7 -105.5t-11 -82.5zM260 417l93 62l14 -23q28 -46 47 -70l-84 -55q-35 27 -70 86z" />
<glyph unicode="&#xfedb;&#xfee4;" horiz-adv-x="460" arabic-form="initial" d="M620 1019q-19 -72 -67 -136q-166 -71 -300 -150l-12 13q35 55 65 89q131 95 314 184zM278.5 220.5q19.5 -20.5 19.5 -35.5q0 -40 -27.5 -89t-63.5 -76q-32 -12 -76 -19.5t-131 -15.5l58 152l29 3h2v5q0 15 15 58t23 56q8 11 15 15l1 3l33 4q-6 60 -26.5 145.5 t-41.5 147.5q24 42 56 81t60 61q11 -30 20 -135.5t9 -201.5q0 -20 -7 -55.5t-18 -68.5q31 -14 50.5 -34.5z" />
<glyph unicode="&#xfedf;&#xfea0;" horiz-adv-x="371" arabic-form="initial" d="M356 293q0 -49 -19.5 -117t-42.5 -101q-35 -28 -111.5 -53.5t-182.5 -36.5l58 152q122 13 192 31q-88 6 -213 27l61 131q33 -6 41 -7q-5 154 -29 294q29 35 63.5 66t64.5 45q4 -30 4 -87q0 -40 -6 -119.5t-10 -98.5l-56 -105q111 -16 186 -21zM11 -126l93 62l14 -23 q28 -46 47 -70l-84 -55q-35 27 -70 86z" />
<glyph unicode="&#xfedf;&#xfea4;" horiz-adv-x="371" arabic-form="initial" d="M356 293q0 -49 -19.5 -117t-42.5 -101q-35 -28 -111.5 -53.5t-182.5 -36.5l58 152q122 13 192 31q-88 6 -213 27l61 131q33 -6 41 -7q-5 154 -29 294q29 35 63.5 66t64.5 45q4 -30 4 -87q0 -40 -6 -119.5t-10 -98.5l-56 -105q111 -16 186 -21z" />
<glyph unicode="&#xfedf;&#xfea8;" horiz-adv-x="371" arabic-form="initial" d="M356 293q0 -49 -19.5 -117t-42.5 -101q-35 -28 -111.5 -53.5t-182.5 -36.5l58 152q122 13 192 31q-88 6 -213 27l61 131q33 -6 41 -7q-5 154 -29 294q29 35 63.5 66t64.5 45q4 -30 4 -87q0 -40 -6 -119.5t-10 -98.5l-56 -105q111 -16 186 -21zM259 411l93 62l14 -23 q28 -46 47 -70l-84 -55q-35 27 -70 86z" />
<glyph unicode="&#xfedf;&#xfee4;" horiz-adv-x="316" arabic-form="initial" d="M228 255q33 -15 51.5 -35t18.5 -35q0 -40 -27.5 -89t-63.5 -76q-32 -12 -76 -19.5t-131 -15.5l58 152l29 3h2v5q0 15 15 58t23 56q11 16 26 18l1 -4q41 -3 74 -18zM254 580.5q9 -105.5 9 -201.5q0 -30 -13.5 -85.5t-32.5 -86.5q-21 -36 -53 -57t-69 -25l58 152l33 4 q-6 60 -26.5 145.5t-41.5 147.5q24 42 56 81t60 61q11 -30 20 -135.5z" />
<glyph unicode="&#xfee7;&#xfeec;" horiz-adv-x="559" arabic-form="initial" d="M376 316l93 62l14 -23q28 -46 47 -70l-84 -55q-35 27 -70 86zM509 132.5q31 -7.5 50 -18.5l-76 -188l-31 4l10 48q-9 6 -31.5 10t-41.5 4q-54 0 -94.5 -36t-78.5 -124l-80 -185l-22 3l-45 326l-69 -7l58 152l110 12l21 -286l13 34q56 142 113.5 200.5t132.5 58.5 q30 0 61 -7.5z" />
<glyph unicode="&#xfef3;&#xfeec;" horiz-adv-x="559" arabic-form="initial" d="M462 -22q-9 6 -31.5 10t-41.5 4q-54 0 -94.5 -36t-78.5 -124l-80 -185l-22 3l-45 326l-69 -7l58 152l110 12l21 -286l13 34q56 142 113.5 200.5t132.5 58.5q30 0 61 -7.5t50 -18.5l-76 -188l-31 4zM633 -95l-20 -103l-178 -39l17 93z" />
<glyph unicode="&#xfe8c;&#xfeec;" horiz-adv-x="635" arabic-form="medial" d="M76 210l57 47q-32 25 -32 59q0 36 28.5 62.5t72.5 26.5q16 0 35 -4t31 -10l-38 -72q-11 6 -30 11t-36 5q-15 0 -24 -4.5t-9 -11.5q0 -10 21.5 -18.5t47.5 -8.5q43 0 73 15l12 -10l-55 -60l-142 -38zM635 -3l-43 -117l-21 -17l-123 -13l6 141q-21 4 -52 4q-46 0 -77 -15.5 t-56.5 -50t-52.5 -97.5l-80 -185l-22 3l-45 326l-69 -7l58 152l110 12l21 -286l13 34q38 96 75 151.5t80 80t101 24.5t98 -20l-6 -111l79 8z" />
<glyph unicode="&#xfe92;&#xfeec;" horiz-adv-x="635" arabic-form="medial" d="M635 -3l-43 -117l-21 -17l-123 -13l6 141q-21 4 -52 4q-46 0 -77 -15.5t-56.5 -50t-52.5 -97.5l-80 -185l-22 3l-45 326l-69 -7l58 152l110 12l21 -286l13 34q38 96 75 151.5t80 80t101 24.5t98 -20l-6 -111l79 8zM480 -222l14 -23q28 -46 47 -70l-84 -55q-35 27 -70 86z " />
<glyph unicode="&#xfe98;&#xfeec;" horiz-adv-x="635" arabic-form="medial" d="M579 257l-178 -39l17 93l181 49zM635 -3l-43 -117l-21 -17l-123 -13l6 141q-21 4 -52 4q-46 0 -77 -15.5t-56.5 -50t-52.5 -97.5l-80 -185l-22 3l-45 326l-69 -7l58 152l110 12l21 -286l13 34q38 96 75 151.5t80 80t101 24.5t98 -20l-6 -111l79 8z" />
<glyph unicode="&#xfe9c;&#xfeec;" horiz-adv-x="635" arabic-form="medial" d="M412 192l-22 12l99 128q7 1 22 1q25 0 51.5 -6t47.5 -18l-61 -91q-40 20 -76 20q-13 0 -23 -3zM635 -3l-43 -117l-21 -17l-123 -13l6 141q-21 4 -52 4q-46 0 -77 -15.5t-56.5 -50t-52.5 -97.5l-80 -185l-22 3l-45 326l-69 -7l58 152l110 12l21 -286l13 34q38 96 75 151.5 t80 80t101 24.5t98 -20l-6 -111l79 8z" />
<glyph unicode="&#xfee8;&#xfeec;" horiz-adv-x="635" arabic-form="medial" d="M413 314l93 62l14 -23q28 -46 47 -70l-84 -55q-35 27 -70 86zM635 -3l-43 -117l-21 -17l-123 -13l6 141q-21 4 -52 4q-46 0 -77 -15.5t-56.5 -50t-52.5 -97.5l-80 -185l-22 3l-45 326l-69 -7l58 152l110 12l21 -286l13 34q38 96 75 151.5t80 80t101 24.5t98 -20l-6 -111 l79 8z" />
<glyph unicode="&#xfef4;&#xfeec;" horiz-adv-x="635" arabic-form="medial" d="M635 -3l-43 -117l-21 -17l-123 -13l6 141q-21 4 -52 4q-46 0 -77 -15.5t-56.5 -50t-52.5 -97.5l-80 -185l-22 3l-45 326l-69 -7l58 152l110 12l21 -286l13 34q38 96 75 151.5t80 80t101 24.5t98 -20l-6 -111l79 8zM388 -271l181 49l-20 -103l-178 -39z" />
<glyph unicode="&#x627;&#xfedf;&#xfee0;&#xfeea;" horiz-adv-x="1037" arabic-form="isolated" d="M477 688q-4 32 -12.5 64t-19.5 55q18 39 45 66q5 -14 9 -51.5t3 -77.5l-15 -56h-10zM425.5 528.5q-10.5 14.5 -10.5 38.5q0 34 26 74l10 -5q-3 -10 -3 -21q0 -15 6 -24t16 -9q27 0 38 65h12q1 -41 33 -41q9 0 18 5.5t13 12.5q-10 21 -39 42l28 44q17 -17 26 -38.5 t9 -45.5q0 -36 -18.5 -62t-45.5 -26q-28 0 -40 27q-8 -23 -21.5 -37t-30.5 -14q-16 0 -26.5 14.5zM985 503q4 -59 4 -141q0 -92 -6 -206l-65 -151l-22 8q1 104 -10 237t-31 232q25 37 57 71t59 51q10 -42 14 -101zM718.5 506.5q32.5 39.5 60.5 61.5q10 -30 19.5 -132.5 t9.5 -157.5q0 -68 -18.5 -128t-39.5 -88q-30 -30 -72 -50.5t-72 -20.5q-31 0 -51 26.5t-38 95.5l-3 13q-9 -39 -20 -65q-17 -32 -66.5 -62.5t-99.5 -39.5l-22 -4l-1 120q-2 44 -7 74q-36 -53 -74 -81q-17 -11 -39.5 -17.5t-43.5 -6.5q-46 0 -74.5 30.5t-28.5 80.5 q0 55 33.5 114.5t84 99.5t98.5 40q41 0 72.5 -30t49.5 -83t18 -121q0 -20 -2 -58q65 20 109 58l-48 185q25 44 55 82.5t56 59.5q11 -59 16 -106t16 -184q4 -45 15 -63.5t35 -18.5q19 0 43.5 9.5t40.5 23.5q-7 49 -25.5 122t-41.5 141q23 41 55.5 80.5zM287 194 q-14 41 -42 59t-74 18q-31 0 -53 -9q6 -39 33.5 -61t67.5 -22q36 0 68 15z" />
<glyph unicode="&#xfedf;&#xfe82;" horiz-adv-x="656" arabic-form="isolated" d="M605.5 503q10.5 -82 10.5 -161q0 -43 -2 -64q-3 -35 -35 -104.5t-60 -98.5q-39 -41 -115.5 -77t-131.5 -36q-41 0 -95.5 22.5t-103.5 56t-73 64.5q51 0 130 9.5t165 25.5q-10 60 -34 141.5t-47 135.5q21 43 50.5 84.5t55.5 64.5q15 -34 31 -135t15 -188l-41 -97 q142 29 212 54q-6 57 -26.5 134t-41.5 138q24 42 56 81t60 61q10 -29 20.5 -111zM132 551q15 58 29 89q9 9 22 13.5t26 4.5q7 0 35 -4q43 -5 54 -5q13 0 22 3l14 38l15 -3q-9 -47 -23 -84q-8 -11 -20.5 -17t-26.5 -6q-9 0 -35 4q-38 5 -49 5q-16 0 -32 -4l-15 -38z" />
<glyph unicode="&#xfee0;&#xfe82;" horiz-adv-x="673" arabic-form="final" d="M673 136l-43 -117l-21 -18l-57 -6h-19q4 55 4 126v18q-49 -75 -122 -126t-143 -51q-41 0 -95.5 22.5t-103.5 56t-73 64.5q51 0 130.5 9.5t164.5 25.5q-10 60 -34 141.5t-47 135.5q21 43 50.5 84.5t55.5 64.5q15 -34 31 -135t15 -188l-41 -98q147 29 208 49 q-8 72 -27 151.5t-38 127.5q23 40 57.5 79t64.5 63q10 -24 19.5 -103.5t9.5 -141.5q0 -128 -10 -223l58 6zM132 551q15 58 29 89q9 9 22 13.5t26 4.5q7 0 35 -4q43 -5 54 -5q13 0 22 3l14 38l15 -3q-9 -47 -23 -84q-8 -11 -20.5 -17t-26.5 -6q-9 0 -35 4q-38 5 -49 5 q-16 0 -32 -4l-15 -38z" />
<glyph unicode="&#xfedf;&#xfe84;" horiz-adv-x="656" arabic-form="isolated" d="M605.5 503q10.5 -82 10.5 -161q0 -43 -2 -64q-3 -35 -35 -104.5t-60 -98.5q-39 -41 -115.5 -77t-131.5 -36q-41 0 -95.5 22.5t-103.5 56t-73 64.5q51 0 130 9.5t165 25.5q-10 60 -34 141.5t-47 135.5q21 43 50.5 84.5t55.5 64.5q15 -34 31 -135t15 -188l-41 -97 q142 29 212 54q-6 57 -26.5 134t-41.5 138q24 42 56 81t60 61q10 -29 20.5 -111zM359 642l-55 -60l-142 -38l-12 11l57 47q-32 25 -32 59q0 36 28.5 62.5t72.5 26.5q16 0 35 -4t31 -10l-38 -72q-11 6 -30 11t-36 5q-15 0 -24 -4.5t-9 -11.5q0 -10 21.5 -18.5t47.5 -8.5 q43 0 73 15z" />
<glyph unicode="&#xfee0;&#xfe84;" horiz-adv-x="673" arabic-form="final" d="M673 136l-43 -117l-21 -18l-57 -6h-19q4 55 4 126v18q-49 -75 -122 -126t-143 -51q-41 0 -95.5 22.5t-103.5 56t-73 64.5q51 0 130.5 9.5t164.5 25.5q-10 60 -34 141.5t-47 135.5q21 43 50.5 84.5t55.5 64.5q15 -34 31 -135t15 -188l-41 -98q147 29 208 49 q-8 72 -27 151.5t-38 127.5q23 40 57.5 79t64.5 63q10 -24 19.5 -103.5t9.5 -141.5q0 -128 -10 -223l58 6zM359 642l-55 -60l-142 -38l-12 11l57 47q-32 25 -32 59q0 36 28.5 62.5t72.5 26.5q16 0 35 -4t31 -10l-38 -72q-11 6 -30 11t-36 5q-15 0 -24 -4.5t-9 -11.5 q0 -10 21.5 -18.5t47.5 -8.5q43 0 73 15z" />
<glyph unicode="&#xfedf;&#xfe88;" horiz-adv-x="656" arabic-form="isolated" d="M605.5 503q10.5 -82 10.5 -161q0 -43 -2 -64q-3 -35 -35 -104.5t-60 -98.5q-39 -41 -115.5 -77t-131.5 -36q-41 0 -95.5 22.5t-103.5 56t-73 64.5q51 0 130 9.5t165 25.5q-10 60 -34 141.5t-47 135.5q21 43 50.5 84.5t55.5 64.5q15 -34 31 -135t15 -188l-41 -97 q142 29 212 54q-6 57 -26.5 134t-41.5 138q24 42 56 81t60 61q10 -29 20.5 -111zM500 -167l-55 -60l-142 -38l-12 11l57 47q-32 25 -32 59q0 36 28.5 62.5t72.5 26.5q16 0 35 -4t31 -10l-38 -72q-11 6 -30 11t-36 5q-15 0 -24 -4.5t-9 -11.5q0 -10 21.5 -18.5t47.5 -8.5 q43 0 73 15z" />
<glyph unicode="&#xfee0;&#xfe88;" horiz-adv-x="673" arabic-form="final" d="M673 136l-43 -117l-21 -18l-57 -6h-19q4 55 4 126v18q-49 -75 -122 -126t-143 -51q-41 0 -95.5 22.5t-103.5 56t-73 64.5q51 0 130.5 9.5t164.5 25.5q-10 60 -34 141.5t-47 135.5q21 43 50.5 84.5t55.5 64.5q15 -34 31 -135t15 -188l-41 -98q147 29 208 49 q-8 72 -27 151.5t-38 127.5q23 40 57.5 79t64.5 63q10 -24 19.5 -103.5t9.5 -141.5q0 -128 -10 -223l58 6zM500 -167l-55 -60l-142 -38l-12 11l57 47q-32 25 -32 59q0 36 28.5 62.5t72.5 26.5q16 0 35 -4t31 -10l-38 -72q-11 6 -30 11t-36 5q-15 0 -24 -4.5t-9 -11.5 q0 -10 21.5 -18.5t47.5 -8.5q43 0 73 15z" />
<glyph unicode="&#xfedf;&#xfe8e;" horiz-adv-x="656" arabic-form="isolated" d="M605.5 503q10.5 -82 10.5 -161q0 -43 -2 -64q-3 -35 -35 -104.5t-60 -98.5q-39 -41 -115.5 -77t-131.5 -36q-41 0 -95.5 22.5t-103.5 56t-73 64.5q51 0 130 9.5t165 25.5q-10 60 -34 141.5t-47 135.5q21 43 50.5 84.5t55.5 64.5q15 -34 31 -135t15 -188l-41 -97 q142 29 212 54q-6 57 -26.5 134t-41.5 138q24 42 56 81t60 61q10 -29 20.5 -111z" />
<glyph unicode="&#xfee0;&#xfe8e;" horiz-adv-x="673" arabic-form="final" d="M673 136l-43 -117l-21 -18l-57 -6h-19q4 55 4 126v18q-49 -75 -122 -126t-143 -51q-41 0 -95.5 22.5t-103.5 56t-73 64.5q51 0 130.5 9.5t164.5 25.5q-10 60 -34 141.5t-47 135.5q21 43 50.5 84.5t55.5 64.5q15 -34 31 -135t15 -188l-41 -98q147 29 208 49 q-8 72 -27 151.5t-38 127.5q23 40 57.5 79t64.5 63q10 -24 19.5 -103.5t9.5 -141.5q0 -128 -10 -223l58 6z" />
<glyph unicode="&#xfedf;&#xfb51;" horiz-adv-x="656" d="M605.5 503q10.5 -82 10.5 -161q0 -43 -2 -64q-3 -35 -35 -104.5t-60 -98.5q-39 -41 -115.5 -77t-131.5 -36q-41 0 -95.5 22.5t-103.5 56t-73 64.5q51 0 130 9.5t165 25.5q-10 60 -34 141.5t-47 135.5q21 43 50.5 84.5t55.5 64.5q15 -34 31 -135t15 -188l-41 -97 q142 29 212 54q-6 57 -26.5 134t-41.5 138q24 42 56 81t60 61q10 -29 20.5 -111zM312 723.5q22 -13.5 34 -33.5q-8 -53 -50 -92t-104 -39q-42 0 -68 -2q7 28 23 45.5t37 22.5q-2 10 -2 17q0 39 23.5 67t58.5 28q26 0 48 -13.5zM212.5 656q-10.5 -4 -10.5 -12q0 -10 4 -18 q67 3 96 12q-30 22 -62 22q-17 0 -27.5 -4z" />
<glyph unicode="&#xfee0;&#xfb51;" horiz-adv-x="673" d="M673 136l-43 -117l-21 -18l-57 -6h-19q4 55 4 126v18q-49 -75 -122 -126t-143 -51q-41 0 -95.5 22.5t-103.5 56t-73 64.5q51 0 130.5 9.5t164.5 25.5q-10 60 -34 141.5t-47 135.5q21 43 50.5 84.5t55.5 64.5q15 -34 31 -135t15 -188l-41 -98q147 29 208 49 q-8 72 -27 151.5t-38 127.5q23 40 57.5 79t64.5 63q10 -24 19.5 -103.5t9.5 -141.5q0 -128 -10 -223l58 6zM312 723.5q22 -13.5 34 -33.5q-8 -53 -50 -92t-104 -39q-42 0 -68 -2q7 28 23 45.5t37 22.5q-2 10 -2 17q0 39 23.5 67t58.5 28q26 0 48 -13.5zM212.5 656 q-10.5 -4 -10.5 -12q0 -10 4 -18q67 3 96 12q-30 22 -62 22q-17 0 -27.5 -4z" />
<glyph unicode="&#x623;&#xfef0;" horiz-adv-x="634" d="M334 741l57 47q-32 25 -32 59q0 36 28.5 62.5t72.5 26.5q16 0 35 -4t31 -10l-38 -72q-11 6 -30 11t-36 5q-15 0 -24 -4.5t-9 -11.5q0 -10 21.5 -18.5t47.5 -8.5q43 0 73 15l12 -10l-55 -60l-142 -38zM631 339q-14 -101 -30.5 -150.5t-44.5 -81.5q-46 -52 -134.5 -87 t-181.5 -35q-85 0 -147 42.5t-68 117.5q41 105 106 199t154 166l21 -94q-121 -86 -190 -189q57 -84 186 -84q69 0 131 19t107 51q-45 2 -110 10.5t-118 17.5l61 131q33 -6 41 -7q-2 72 -8 131.5t-19 132.5q29 35 63.5 66t64.5 45q4 -30 4 -87q0 -40 -7 -105.5t-11 -82.5 l-56 -105q111 -16 186 -21z" />
<glyph unicode="&#xfe91;&#xfe8a;" horiz-adv-x="619" d="M297 603l-55 -60l-142 -38l-12 11l57 47q-32 25 -32 59q0 36 28.5 62.5t72.5 26.5q16 0 35 -4t31 -10l-38 -72q-11 6 -30 11t-36 5q-15 0 -24 -4.5t-9 -11.5q0 -10 21.5 -18.5t47.5 -8.5q43 0 73 15zM601 339q-14 -101 -31 -151.5t-44 -80.5q-45 -51 -129.5 -86.5 t-166.5 -35.5q-87 0 -142 41t-63 119q34 94 88 179t128 150l21 -94q-94 -71 -149 -156q26 -42 66.5 -61.5t105.5 -19.5q63 0 122 18.5t103 51.5q-83 4 -218 28l61 131l119 13q-44 64 -117 125l109 117q31 -24 54.5 -65.5t23.5 -72.5q0 -26 -12 -65t-31 -75q45 -6 102 -10z M207 -109l181 49l-20 -103l-178 -39zM436 -29l93 62l14 -23q28 -46 47 -70l-84 -55q-35 27 -70 86z" />
<glyph unicode="&#xfe98;&#xfedc;" horiz-adv-x="551" d="M551 144l-43 -117l-21 -18l-110 -11l12 41q-34 -44 -131 -54l58 152q70 7 112 29l22 73l32 -3l-18 -83l81 8zM382 420l181 49l-20 -103l-178 -39zM608 838q-19 -72 -67 -136q-166 -71 -300 -150l-12 13q35 55 65 89q131 95 314 184zM316 137l6 -17l-43 -117l-21 -18 l-97 -10q3 63 3 128q0 15 -2 43q-18 -67 -40 -112q-54 -18 -122 -25l58 152q54 5 101 18q-13 107 -58 217q24 42 56 81t60 61q10 -24 19.5 -103.5t9.5 -141.5q0 -50 -3 -95t-7 -69z" />
<glyph unicode="&#xfe97;&#xfedc;" horiz-adv-x="489" d="M451 245q-14 -133 -65 -237q-46 -14 -128 -23l58 152q50 6 81 15q14 55 22 94zM327 412l181 49l-20 -103l-178 -39zM608 838q-19 -72 -67 -136q-166 -71 -300 -150l-12 13q35 55 65 89q131 95 314 184zM316 137l6 -17l-43 -117l-21 -18l-97 -10q3 63 3 128q0 15 -2 43 q-18 -67 -40 -112q-54 -18 -122 -25l58 152q54 5 101 18q-13 107 -58 217q24 42 56 81t60 61q10 -24 19.5 -103.5t9.5 -141.5q0 -50 -3 -95t-7 -69z" />
<glyph unicode="&#xfe97;&#xfb8f;" horiz-adv-x="826" d="M788 245q-14 -133 -65 -237q-46 -14 -128 -23l58 152q50 6 81 15q14 55 22 94zM664 412l181 49l-20 -103l-178 -39zM937 754q-19 -72 -67 -136q-166 -71 -300 -150l-12 13q35 55 65 89q131 95 314 184zM653 137l6 -17l-43 -117l-21 -18l-43 -5q-15 -45 -32 -65 q-43 -39 -120.5 -67t-155.5 -28q-51 0 -100.5 13t-84.5 35t-44 47q9 54 58 136.5t105 131.5l15 -86q-42 -32 -83 -76q18 -22 66 -35.5t114 -13.5q63 0 118.5 12.5t92.5 31.5q-6 60 -26.5 147t-41.5 149q24 42 56 81t60 61q10 -29 19 -129t10 -196z" />
<glyph unicode="&#xfe98;&#xfb8f;" horiz-adv-x="888" d="M888 144l-43 -117l-21 -18l-110 -11l12 41q-34 -44 -131 -54l58 152q70 7 112 29l22 73l32 -3l-18 -83l81 8zM719 420l181 49l-20 -103l-178 -39zM937 754q-19 -72 -67 -136q-166 -71 -300 -150l-12 13q35 55 65 89q131 95 314 184zM653 137l6 -17l-43 -117l-21 -18 l-43 -5q-15 -45 -32 -65q-43 -39 -120.5 -67t-155.5 -28q-51 0 -100.5 13t-84.5 35t-44 47q9 54 58 136.5t105 131.5l15 -86q-42 -32 -83 -76q18 -22 66 -35.5t114 -13.5q63 0 118.5 12.5t92.5 31.5q-6 60 -26.5 147t-41.5 149q24 42 56 81t60 61q10 -29 19 -129t10 -196z " />
<glyph unicode="&#xfe98;&#xfb91;" horiz-adv-x="551" d="M551 144l-43 -117l-21 -18l-110 -11l12 41q-34 -44 -131 -54l58 152q70 7 112 29l22 73l32 -3l-18 -83l81 8zM382 420l181 49l-20 -103l-178 -39zM608 838q-19 -72 -67 -136q-166 -71 -300 -150l-12 13q35 55 65 89q131 95 314 184zM316 137l6 -17l-43 -117l-21 -18 l-97 -10q3 63 3 128q0 15 -2 43q-18 -67 -40 -112q-54 -18 -122 -25l58 152q54 5 101 18q-13 107 -58 217q24 42 56 81t60 61q10 -24 19.5 -103.5t9.5 -141.5q0 -50 -3 -95t-7 -69z" />
<glyph unicode="&#xfe97;&#xfb91;" horiz-adv-x="489" d="M451 245q-14 -133 -65 -237q-46 -14 -128 -23l58 152q50 6 81 15q14 55 22 94zM327 412l181 49l-20 -103l-178 -39zM608 838q-19 -72 -67 -136q-166 -71 -300 -150l-12 13q35 55 65 89q131 95 314 184zM316 137l6 -17l-43 -117l-21 -18l-97 -10q3 63 3 128q0 15 -2 43 q-18 -67 -40 -112q-54 -18 -122 -25l58 152q54 5 101 18q-13 107 -58 217q24 42 56 81t60 61q10 -24 19.5 -103.5t9.5 -141.5q0 -50 -3 -95t-7 -69z" />
<glyph unicode="&#xfe97;&#xfb93;" horiz-adv-x="826" d="M788 245q-14 -133 -65 -237q-46 -14 -128 -23l58 152q50 6 81 15q14 55 22 94zM664 412l181 49l-20 -103l-178 -39zM524 594l-11 22l385 226l10 -34zM937 754q-19 -72 -67 -136q-166 -71 -300 -150l-12 13q35 55 65 89q131 95 314 184zM653 137l6 -17l-43 -117l-21 -18 l-43 -5q-15 -45 -32 -65q-43 -39 -120.5 -67t-155.5 -28q-51 0 -100.5 13t-84.5 35t-44 47q9 54 58 136.5t105 131.5l15 -86q-42 -32 -83 -76q18 -22 66 -35.5t114 -13.5q63 0 118.5 12.5t92.5 31.5q-6 60 -26.5 147t-41.5 149q24 42 56 81t60 61q10 -29 19 -129t10 -196z " />
<glyph unicode="&#xfe98;&#xfb93;" horiz-adv-x="888" d="M888 144l-43 -117l-21 -18l-110 -11l12 41q-34 -44 -131 -54l58 152q70 7 112 29l22 73l32 -3l-18 -83l81 8zM719 420l181 49l-20 -103l-178 -39zM524 594l-11 22l385 226l10 -34zM937 754q-19 -72 -67 -136q-166 -71 -300 -150l-12 13q35 55 65 89q131 95 314 184z M653 137l6 -17l-43 -117l-21 -18l-43 -5q-15 -45 -32 -65q-43 -39 -120.5 -67t-155.5 -28q-51 0 -100.5 13t-84.5 35t-44 47q9 54 58 136.5t105 131.5l15 -86q-42 -32 -83 -76q18 -22 66 -35.5t114 -13.5q63 0 118.5 12.5t92.5 31.5q-6 60 -26.5 147t-41.5 149q24 42 56 81 t60 61q10 -29 19 -129t10 -196z" />
<glyph unicode="&#xfe98;&#xfb95;" horiz-adv-x="551" d="M551 144l-43 -117l-21 -18l-110 -11l12 41q-34 -44 -131 -54l58 152q70 7 112 29l22 73l32 -3l-18 -83l81 8zM382 420l181 49l-20 -103l-178 -39zM195 678l-11 22l385 226l10 -34zM608 838q-19 -72 -67 -136q-166 -71 -300 -150l-12 13q35 55 65 89q131 95 314 184z M316 137l6 -17l-43 -117l-21 -18l-97 -10q3 63 3 128q0 15 -2 43q-18 -67 -40 -112q-54 -18 -122 -25l58 152q54 5 101 18q-13 107 -58 217q24 42 56 81t60 61q10 -24 19.5 -103.5t9.5 -141.5q0 -50 -3 -95t-7 -69z" />
<glyph unicode="&#xfe97;&#xfb95;" horiz-adv-x="489" d="M451 245q-14 -133 -65 -237q-46 -14 -128 -23l58 152q50 6 81 15q14 55 22 94zM327 412l181 49l-20 -103l-178 -39zM195 678l-11 22l385 226l10 -34zM608 838q-19 -72 -67 -136q-166 -71 -300 -150l-12 13q35 55 65 89q131 95 314 184zM316 137l6 -17l-43 -117l-21 -18 l-97 -10q3 63 3 128q0 15 -2 43q-18 -67 -40 -112q-54 -18 -122 -25l58 152q54 5 101 18q-13 107 -58 217q24 42 56 81t60 61q10 -24 19.5 -103.5t9.5 -141.5q0 -50 -3 -95t-7 -69z" />
<glyph unicode="&#xfe97;&#xfe8a;" horiz-adv-x="619" d="M297 603l-55 -60l-142 -38l-12 11l57 47q-32 25 -32 59q0 36 28.5 62.5t72.5 26.5q16 0 35 -4t31 -10l-38 -72q-11 6 -30 11t-36 5q-15 0 -24 -4.5t-9 -11.5q0 -10 21.5 -18.5t47.5 -8.5q43 0 73 15zM601 339q-14 -101 -31 -151.5t-44 -80.5q-45 -51 -129.5 -86.5 t-166.5 -35.5q-87 0 -142 41t-63 119q34 94 88 179t128 150l21 -94q-94 -71 -149 -156q26 -42 66.5 -61.5t105.5 -19.5q63 0 122 18.5t103 51.5q-83 4 -218 28l61 131l119 13q-44 64 -117 125l109 117q31 -24 54.5 -65.5t23.5 -72.5q0 -26 -12 -65t-31 -75q45 -6 102 -10z M392 733l181 49l-20 -103l-178 -39z" />
<glyph unicode="&#xfe9c;&#xfedc;" horiz-adv-x="551" d="M551 144l-43 -117l-21 -18l-110 -11l12 41q-34 -44 -131 -54l58 152q70 7 112 29l22 73l32 -3l-18 -83l81 8zM475 442q25 0 51.5 -6t47.5 -18l-61 -91q-40 20 -76 20q-12 0 -23 -3l-38 -43l-22 12l99 128q7 1 22 1zM608 838q-19 -72 -67 -136q-166 -71 -300 -150l-12 13 q35 55 65 89q131 95 314 184zM316 137l6 -17l-43 -117l-21 -18l-97 -10q3 63 3 128q0 15 -2 43q-18 -67 -40 -112q-54 -18 -122 -25l58 152q54 5 101 18q-13 107 -58 217q24 42 56 81t60 61q10 -24 19.5 -103.5t9.5 -141.5q0 -50 -3 -95t-7 -69z" />
<glyph unicode="&#xfe9b;&#xfedc;" horiz-adv-x="489" d="M451 245q-14 -133 -65 -237q-46 -14 -128 -23l58 152q50 6 81 15q14 55 22 94zM420 434q25 0 51.5 -6t47.5 -18l-61 -91q-40 20 -76 20q-12 0 -23 -3l-38 -43l-22 12l99 128q7 1 22 1zM608 838q-19 -72 -67 -136q-166 -71 -300 -150l-12 13q35 55 65 89q131 95 314 184z M316 137l6 -17l-43 -117l-21 -18l-97 -10q3 63 3 128q0 15 -2 43q-18 -67 -40 -112q-54 -18 -122 -25l58 152q54 5 101 18q-13 107 -58 217q24 42 56 81t60 61q10 -24 19.5 -103.5t9.5 -141.5q0 -50 -3 -95t-7 -69z" />
<glyph unicode="&#xfe9b;&#xfb8f;" horiz-adv-x="826" d="M788 245q-14 -133 -65 -237q-46 -14 -128 -23l58 152q50 6 81 15q14 55 22 94zM757 434q25 0 51.5 -6t47.5 -18l-61 -91q-40 20 -76 20q-12 0 -23 -3l-38 -43l-22 12l99 128q7 1 22 1zM937 754q-19 -72 -67 -136q-166 -71 -300 -150l-12 13q35 55 65 89q131 95 314 184z M653 137l6 -17l-43 -117l-21 -18l-43 -5q-15 -45 -32 -65q-43 -39 -120.5 -67t-155.5 -28q-51 0 -100.5 13t-84.5 35t-44 47q9 54 58 136.5t105 131.5l15 -86q-42 -32 -83 -76q18 -22 66 -35.5t114 -13.5q63 0 118.5 12.5t92.5 31.5q-6 60 -26.5 147t-41.5 149q24 42 56 81 t60 61q10 -29 19 -129t10 -196z" />
<glyph unicode="&#xfe9c;&#xfb8f;" horiz-adv-x="888" d="M888 144l-43 -117l-21 -18l-110 -11l12 41q-34 -44 -131 -54l58 152q70 7 112 29l22 73l32 -3l-18 -83l81 8zM812 442q25 0 51.5 -6t47.5 -18l-61 -91q-40 20 -76 20q-12 0 -23 -3l-38 -43l-22 12l99 128q7 1 22 1zM937 754q-19 -72 -67 -136q-166 -71 -300 -150l-12 13 q35 55 65 89q131 95 314 184zM653 137l6 -17l-43 -117l-21 -18l-43 -5q-15 -45 -32 -65q-43 -39 -120.5 -67t-155.5 -28q-51 0 -100.5 13t-84.5 35t-44 47q9 54 58 136.5t105 131.5l15 -86q-42 -32 -83 -76q18 -22 66 -35.5t114 -13.5q63 0 118.5 12.5t92.5 31.5 q-6 60 -26.5 147t-41.5 149q24 42 56 81t60 61q10 -29 19 -129t10 -196z" />
<glyph unicode="&#xfe9c;&#xfb91;" horiz-adv-x="551" d="M551 144l-43 -117l-21 -18l-110 -11l12 41q-34 -44 -131 -54l58 152q70 7 112 29l22 73l32 -3l-18 -83l81 8zM475 442q25 0 51.5 -6t47.5 -18l-61 -91q-40 20 -76 20q-12 0 -23 -3l-38 -43l-22 12l99 128q7 1 22 1zM608 838q-19 -72 -67 -136q-166 -71 -300 -150l-12 13 q35 55 65 89q131 95 314 184zM316 137l6 -17l-43 -117l-21 -18l-97 -10q3 63 3 128q0 15 -2 43q-18 -67 -40 -112q-54 -18 -122 -25l58 152q54 5 101 18q-13 107 -58 217q24 42 56 81t60 61q10 -24 19.5 -103.5t9.5 -141.5q0 -50 -3 -95t-7 -69z" />
<glyph unicode="&#xfe9b;&#xfb91;" horiz-adv-x="489" d="M451 245q-14 -133 -65 -237q-46 -14 -128 -23l58 152q50 6 81 15q14 55 22 94zM420 434q25 0 51.5 -6t47.5 -18l-61 -91q-40 20 -76 20q-12 0 -23 -3l-38 -43l-22 12l99 128q7 1 22 1zM608 838q-19 -72 -67 -136q-166 -71 -300 -150l-12 13q35 55 65 89q131 95 314 184z M316 137l6 -17l-43 -117l-21 -18l-97 -10q3 63 3 128q0 15 -2 43q-18 -67 -40 -112q-54 -18 -122 -25l58 152q54 5 101 18q-13 107 -58 217q24 42 56 81t60 61q10 -24 19.5 -103.5t9.5 -141.5q0 -50 -3 -95t-7 -69z" />
<glyph unicode="&#xfe9b;&#xfb93;" horiz-adv-x="826" d="M788 245q-14 -133 -65 -237q-46 -14 -128 -23l58 152q50 6 81 15q14 55 22 94zM757 434q25 0 51.5 -6t47.5 -18l-61 -91q-40 20 -76 20q-12 0 -23 -3l-38 -43l-22 12l99 128q7 1 22 1zM524 594l-11 22l385 226l10 -34zM937 754q-19 -72 -67 -136q-166 -71 -300 -150 l-12 13q35 55 65 89q131 95 314 184zM653 137l6 -17l-43 -117l-21 -18l-43 -5q-15 -45 -32 -65q-43 -39 -120.5 -67t-155.5 -28q-51 0 -100.5 13t-84.5 35t-44 47q9 54 58 136.5t105 131.5l15 -86q-42 -32 -83 -76q18 -22 66 -35.5t114 -13.5q63 0 118.5 12.5t92.5 31.5 q-6 60 -26.5 147t-41.5 149q24 42 56 81t60 61q10 -29 19 -129t10 -196z" />
<glyph unicode="&#xfe9c;&#xfb93;" horiz-adv-x="888" d="M888 144l-43 -117l-21 -18l-110 -11l12 41q-34 -44 -131 -54l58 152q70 7 112 29l22 73l32 -3l-18 -83l81 8zM812 442q25 0 51.5 -6t47.5 -18l-61 -91q-40 20 -76 20q-12 0 -23 -3l-38 -43l-22 12l99 128q7 1 22 1zM524 594l-11 22l385 226l10 -34zM937 754 q-19 -72 -67 -136q-166 -71 -300 -150l-12 13q35 55 65 89q131 95 314 184zM653 137l6 -17l-43 -117l-21 -18l-43 -5q-15 -45 -32 -65q-43 -39 -120.5 -67t-155.5 -28q-51 0 -100.5 13t-84.5 35t-44 47q9 54 58 136.5t105 131.5l15 -86q-42 -32 -83 -76q18 -22 66 -35.5 t114 -13.5q63 0 118.5 12.5t92.5 31.5q-6 60 -26.5 147t-41.5 149q24 42 56 81t60 61q10 -29 19 -129t10 -196z" />
<glyph unicode="&#xfe9c;&#xfb95;" horiz-adv-x="551" d="M551 144l-43 -117l-21 -18l-110 -11l12 41q-34 -44 -131 -54l58 152q70 7 112 29l22 73l32 -3l-18 -83l81 8zM475 442q25 0 51.5 -6t47.5 -18l-61 -91q-40 20 -76 20q-12 0 -23 -3l-38 -43l-22 12l99 128q7 1 22 1zM195 678l-11 22l385 226l10 -34zM608 838 q-19 -72 -67 -136q-166 -71 -300 -150l-12 13q35 55 65 89q131 95 314 184zM316 137l6 -17l-43 -117l-21 -18l-97 -10q3 63 3 128q0 15 -2 43q-18 -67 -40 -112q-54 -18 -122 -25l58 152q54 5 101 18q-13 107 -58 217q24 42 56 81t60 61q10 -24 19.5 -103.5t9.5 -141.5 q0 -50 -3 -95t-7 -69z" />
<glyph unicode="&#xfe9b;&#xfb95;" horiz-adv-x="489" d="M451 245q-14 -133 -65 -237q-46 -14 -128 -23l58 152q50 6 81 15q14 55 22 94zM420 434q25 0 51.5 -6t47.5 -18l-61 -91q-40 20 -76 20q-12 0 -23 -3l-38 -43l-22 12l99 128q7 1 22 1zM195 678l-11 22l385 226l10 -34zM608 838q-19 -72 -67 -136q-166 -71 -300 -150 l-12 13q35 55 65 89q131 95 314 184zM316 137l6 -17l-43 -117l-21 -18l-97 -10q3 63 3 128q0 15 -2 43q-18 -67 -40 -112q-54 -18 -122 -25l58 152q54 5 101 18q-13 107 -58 217q24 42 56 81t60 61q10 -24 19.5 -103.5t9.5 -141.5q0 -50 -3 -95t-7 -69z" />
<glyph unicode="&#xfe9b;&#xfeec;" horiz-adv-x="559" d="M375 194l-22 12l99 128q7 1 22 1q25 0 51.5 -6t47.5 -18l-61 -91q-40 20 -76 20q-12 0 -23 -3zM315.5 81.5q57.5 58.5 132.5 58.5q30 0 61 -7.5t50 -18.5l-76 -188l-31 4l10 48q-9 6 -31.5 10t-41.5 4q-54 0 -94.5 -36t-78.5 -124l-80 -185l-22 3l-45 326l-69 -7l58 152 l110 12l21 -286l13 34q56 142 113.5 200.5z" />
<glyph unicode="&#xfe9b;&#xfe8a;" horiz-adv-x="619" d="M601 339q-14 -101 -31 -151.5t-44 -80.5q-45 -51 -129.5 -86.5t-166.5 -35.5q-87 0 -142 41t-63 119q34 94 88 179t128 150l21 -94q-94 -71 -149 -156q26 -42 66.5 -61.5t105.5 -19.5q63 0 122 18.5t103 51.5q-83 4 -218 28l61 131l119 13q-44 64 -117 125l109 117 q31 -24 54.5 -65.5t23.5 -72.5q0 -26 -12 -65t-31 -75q45 -6 102 -10zM297 603l-55 -60l-142 -38l-12 11l57 47q-32 25 -32 59q0 36 28.5 62.5t72.5 26.5q16 0 35 -4t31 -10l-38 -72q-11 6 -30 11t-36 5q-15 0 -24 -4.5t-9 -11.5q0 -10 21.5 -18.5t47.5 -8.5q43 0 73 15z M479 778q25 0 51.5 -6t47.5 -18l-61 -91q-40 20 -76 20q-12 0 -23 -3l-38 -43l-22 12l99 128q7 1 22 1z" />
<glyph unicode="&#xfb69;&#xfedc;" horiz-adv-x="551" d="M551 144l-43 -117l-21 -18l-110 -11l12 41q-34 -44 -131 -54l58 152q70 7 112 29l22 73l32 -3l-18 -83l81 8zM422 484q0 38 -4.5 67t-5.5 38q31 37 57 53q2 -8 2 -19q0 -17 -4.5 -43.5t-7.5 -36.5l-27 -62zM550 524.5q8 -12.5 8 -38.5q0 -19 -7.5 -42.5t-17.5 -37.5 q-15 -20 -43.5 -29.5t-59.5 -9.5q-8 0 -11 1q-45 20 -74 63q-1 1 -2 2.5t-2 4.5q44 -7 93 -7q17 53 27 70q10 16 26.5 25.5t34.5 9.5q20 1 28 -11.5zM512 445q23 9 22 16q0 10 -20 10q-14 0 -29.5 -5.5t-26.5 -15.5l-7 -18h2q36 4 59 13zM608 838q-19 -72 -67 -136 q-166 -71 -300 -150l-12 13q35 55 65 89q131 95 314 184zM316 137l6 -17l-43 -117l-21 -18l-97 -10q3 63 3 128q0 15 -2 43q-18 -67 -40 -112q-54 -18 -122 -25l58 152q54 5 101 18q-13 107 -58 217q24 42 56 81t60 61q10 -24 19.5 -103.5t9.5 -141.5q0 -50 -3 -95t-7 -69z " />
<glyph unicode="&#xfb68;&#xfedc;" horiz-adv-x="489" d="M451 245q-14 -133 -65 -237q-46 -14 -128 -23l58 152q50 6 81 15q14 55 22 94zM367 476q0 38 -4.5 67t-5.5 38q31 37 57 53q2 -8 2 -19q0 -17 -4.5 -43.5t-7.5 -36.5l-27 -62zM495 516.5q8 -12.5 8 -38.5q0 -19 -7.5 -42.5t-17.5 -37.5q-15 -20 -43.5 -29.5t-59.5 -9.5 q-8 0 -11 1q-45 20 -74 63q-1 1 -2 2.5t-2 4.5q44 -7 93 -7q17 53 27 70q10 16 26.5 25.5t34.5 9.5q20 1 28 -11.5zM457 437q23 9 22 16q0 10 -20 10q-14 0 -29.5 -5.5t-26.5 -15.5l-7 -18h2q36 4 59 13zM608 838q-19 -72 -67 -136q-166 -71 -300 -150l-12 13q35 55 65 89 q131 95 314 184zM316 137l6 -17l-43 -117l-21 -18l-97 -10q3 63 3 128q0 15 -2 43q-18 -67 -40 -112q-54 -18 -122 -25l58 152q54 5 101 18q-13 107 -58 217q24 42 56 81t60 61q10 -24 19.5 -103.5t9.5 -141.5q0 -50 -3 -95t-7 -69z" />
<glyph unicode="&#xfb68;&#xfb8f;" horiz-adv-x="937" d="M788 245q-14 -133 -65 -237q-46 -14 -128 -23l58 152q50 6 81 15q14 55 22 94zM714 385q0 38 -4.5 67t-5.5 38q31 37 57 53q2 -8 2 -19q0 -17 -4.5 -43.5t-7.5 -36.5l-27 -62zM842 425.5q8 -12.5 8 -38.5q0 -19 -7.5 -42.5t-17.5 -37.5q-15 -20 -43.5 -29.5t-59.5 -9.5 q-8 0 -11 1q-45 20 -74 63q-1 1 -2 2.5t-2 4.5q44 -7 93 -7q17 53 27 70q10 16 26.5 25.5t34.5 9.5q20 1 28 -11.5zM804 346q23 9 22 16q0 10 -20 10q-14 0 -29.5 -5.5t-26.5 -15.5l-7 -18h2q36 4 59 13zM937 754q-19 -72 -67 -136q-166 -71 -300 -150l-12 13q35 55 65 89 q131 95 314 184zM653 137l6 -17l-43 -117l-21 -18l-43 -5q-15 -45 -32 -65q-43 -39 -120.5 -67t-155.5 -28q-51 0 -100.5 13t-84.5 35t-44 47q9 54 58 136.5t105 131.5l15 -86q-42 -32 -83 -76q18 -22 66 -35.5t114 -13.5q63 0 118.5 12.5t92.5 31.5q-6 60 -26.5 147 t-41.5 149q24 42 56 81t60 61q10 -29 19 -129t10 -196z" />
<glyph unicode="&#xfb69;&#xfb8f;" horiz-adv-x="888" d="M888 144l-43 -117l-21 -18l-110 -11l12 41q-34 -44 -131 -54l58 152q70 7 112 29l22 73l32 -3l-18 -83l81 8zM937 754q-19 -72 -67 -136q-166 -71 -300 -150l-12 13q35 55 65 89q131 95 314 184zM653 137l6 -17l-43 -117l-21 -18l-43 -5q-15 -45 -32 -65 q-43 -39 -120.5 -67t-155.5 -28q-51 0 -100.5 13t-84.5 35t-44 47q9 54 58 136.5t105 131.5l15 -86q-42 -32 -83 -76q18 -22 66 -35.5t114 -13.5q63 0 118.5 12.5t92.5 31.5q-6 60 -26.5 147t-41.5 149q24 42 56 81t60 61q10 -29 19 -129t10 -196zM714 385q0 38 -4.5 67 t-5.5 38q31 37 57 53q2 -8 2 -19q0 -17 -4.5 -43.5t-7.5 -36.5l-27 -62zM842 425.5q8 -12.5 8 -38.5q0 -19 -7.5 -42.5t-17.5 -37.5q-15 -20 -43.5 -29.5t-59.5 -9.5q-8 0 -11 1q-45 20 -74 63q-1 1 -2 2.5t-2 4.5q44 -7 93 -7q17 53 27 70q10 16 26.5 25.5t34.5 9.5 q20 1 28 -11.5zM804 346q23 9 22 16q0 10 -20 10q-14 0 -29.5 -5.5t-26.5 -15.5l-7 -18h2q36 4 59 13z" />
<glyph unicode="&#xfb69;&#xfb91;" horiz-adv-x="551" d="M551 144l-43 -117l-21 -18l-110 -11l12 41q-34 -44 -131 -54l58 152q70 7 112 29l22 73l32 -3l-18 -83l81 8zM422 432q0 38 -4.5 67t-5.5 38q31 37 57 53q2 -8 2 -19q0 -17 -4.5 -43.5t-7.5 -36.5l-27 -62zM550 472.5q8 -12.5 8 -38.5q0 -19 -7.5 -42.5t-17.5 -37.5 q-15 -20 -43.5 -29.5t-59.5 -9.5q-8 0 -11 1q-45 20 -74 63q-1 1 -2 2.5t-2 4.5q44 -7 93 -7q17 53 27 70q10 16 26.5 25.5t34.5 9.5q20 1 28 -11.5zM512 393q23 9 22 16q0 10 -20 10q-14 0 -29.5 -5.5t-26.5 -15.5l-7 -18h2q36 4 59 13zM608 838q-19 -72 -67 -136 q-166 -71 -300 -150l-12 13q35 55 65 89q131 95 314 184zM316 137l6 -17l-43 -117l-21 -18l-97 -10q3 63 3 128q0 15 -2 43q-18 -67 -40 -112q-54 -18 -122 -25l58 152q54 5 101 18q-13 107 -58 217q24 42 56 81t60 61q10 -24 19.5 -103.5t9.5 -141.5q0 -50 -3 -95t-7 -69z " />
<glyph unicode="&#xfb68;&#xfb91;" horiz-adv-x="489" d="M451 245q-14 -133 -65 -237q-46 -14 -128 -23l58 152q50 6 81 15q14 55 22 94zM367 427q0 38 -4.5 67t-5.5 38q31 37 57 53q2 -8 2 -19q0 -17 -4.5 -43.5t-7.5 -36.5l-27 -62zM495 467.5q8 -12.5 8 -38.5q0 -19 -7.5 -42.5t-17.5 -37.5q-15 -20 -43.5 -29.5t-59.5 -9.5 q-8 0 -11 1q-45 20 -74 63q-1 1 -2 2.5t-2 4.5q44 -7 93 -7q17 53 27 70q10 16 26.5 25.5t34.5 9.5q20 1 28 -11.5zM457 388q23 9 22 16q0 10 -20 10q-14 0 -29.5 -5.5t-26.5 -15.5l-7 -18h2q36 4 59 13zM608 838q-19 -72 -67 -136q-166 -71 -300 -150l-12 13q35 55 65 89 q131 95 314 184zM316 137l6 -17l-43 -117l-21 -18l-97 -10q3 63 3 128q0 15 -2 43q-18 -67 -40 -112q-54 -18 -122 -25l58 152q54 5 101 18q-13 107 -58 217q24 42 56 81t60 61q10 -24 19.5 -103.5t9.5 -141.5q0 -50 -3 -95t-7 -69z" />
<glyph unicode="&#xfb68;&#xfb93;" horiz-adv-x="826" d="M788 245q-14 -133 -65 -237q-46 -14 -128 -23l58 152q50 6 81 15q14 55 22 94zM524 594l-11 22l385 226l10 -34zM937 754q-19 -72 -67 -136q-166 -71 -300 -150l-12 13q35 55 65 89q131 95 314 184zM653 137l6 -17l-43 -117l-21 -18l-43 -5q-15 -45 -32 -65 q-43 -39 -120.5 -67t-155.5 -28q-51 0 -100.5 13t-84.5 35t-44 47q9 54 58 136.5t105 131.5l15 -86q-42 -32 -83 -76q18 -22 66 -35.5t114 -13.5q63 0 118.5 12.5t92.5 31.5q-6 60 -26.5 147t-41.5 149q24 42 56 81t60 61q10 -29 19 -129t10 -196zM714 385q0 38 -4.5 67 t-5.5 38q31 37 57 53q2 -8 2 -19q0 -17 -4.5 -43.5t-7.5 -36.5l-27 -62zM842 425.5q8 -12.5 8 -38.5q0 -19 -7.5 -42.5t-17.5 -37.5q-15 -20 -43.5 -29.5t-59.5 -9.5q-8 0 -11 1q-45 20 -74 63q-1 1 -2 2.5t-2 4.5q44 -7 93 -7q17 53 27 70q10 16 26.5 25.5t34.5 9.5 q20 1 28 -11.5zM804 346q23 9 22 16q0 10 -20 10q-14 0 -29.5 -5.5t-26.5 -15.5l-7 -18h2q36 4 59 13z" />
<glyph unicode="&#xfb69;&#xfb93;" horiz-adv-x="888" d="M888 144l-43 -117l-21 -18l-110 -11l12 41q-34 -44 -131 -54l58 152q70 7 112 29l22 73l32 -3l-18 -83l81 8zM524 594l-11 22l385 226l10 -34zM937 754q-19 -72 -67 -136q-166 -71 -300 -150l-12 13q35 55 65 89q131 95 314 184zM653 137l6 -17l-43 -117l-21 -18l-43 -5 q-15 -45 -32 -65q-43 -39 -120.5 -67t-155.5 -28q-51 0 -100.5 13t-84.5 35t-44 47q9 54 58 136.5t105 131.5l15 -86q-42 -32 -83 -76q18 -22 66 -35.5t114 -13.5q63 0 118.5 12.5t92.5 31.5q-6 60 -26.5 147t-41.5 149q24 42 56 81t60 61q10 -29 19 -129t10 -196zM714 385 q0 38 -4.5 67t-5.5 38q31 37 57 53q2 -8 2 -19q0 -17 -4.5 -43.5t-7.5 -36.5l-27 -62zM842 425.5q8 -12.5 8 -38.5q0 -19 -7.5 -42.5t-17.5 -37.5q-15 -20 -43.5 -29.5t-59.5 -9.5q-8 0 -11 1q-45 20 -74 63q-1 1 -2 2.5t-2 4.5q44 -7 93 -7q17 53 27 70q10 16 26.5 25.5 t34.5 9.5q20 1 28 -11.5zM804 346q23 9 22 16q0 10 -20 10q-14 0 -29.5 -5.5t-26.5 -15.5l-7 -18h2q36 4 59 13z" />
<glyph unicode="&#xfb69;&#xfb95;" horiz-adv-x="551" d="M551 144l-43 -117l-21 -18l-110 -11l12 41q-34 -44 -131 -54l58 152q70 7 112 29l22 73l32 -3l-18 -83l81 8zM422 424q0 38 -4.5 67t-5.5 38q31 37 57 53q2 -8 2 -19q0 -17 -4.5 -43.5t-7.5 -36.5l-27 -62zM550 464.5q8 -12.5 8 -38.5q0 -19 -7.5 -42.5t-17.5 -37.5 q-15 -20 -43.5 -29.5t-59.5 -9.5q-8 0 -11 1q-45 20 -74 63q-1 1 -2 2.5t-2 4.5q44 -7 93 -7q17 53 27 70q10 16 26.5 25.5t34.5 9.5q20 1 28 -11.5zM512 385q23 9 22 16q0 10 -20 10q-14 0 -29.5 -5.5t-26.5 -15.5l-7 -18h2q36 4 59 13zM195 678l-11 22l385 226l10 -34z M608 838q-19 -72 -67 -136q-166 -71 -300 -150l-12 13q35 55 65 89q131 95 314 184zM316 137l6 -17l-43 -117l-21 -18l-97 -10q3 63 3 128q0 15 -2 43q-18 -67 -40 -112q-54 -18 -122 -25l58 152q54 5 101 18q-13 107 -58 217q24 42 56 81t60 61q10 -24 19.5 -103.5 t9.5 -141.5q0 -50 -3 -95t-7 -69z" />
<glyph unicode="&#xfb68;&#xfb95;" horiz-adv-x="489" d="M451 245q-14 -133 -65 -237q-46 -14 -128 -23l58 152q50 6 81 15q14 55 22 94zM367 414q0 38 -4.5 67t-5.5 38q31 37 57 53q2 -8 2 -19q0 -17 -4.5 -43.5t-7.5 -36.5l-27 -62zM495 454.5q8 -12.5 8 -38.5q0 -19 -7.5 -42.5t-17.5 -37.5q-15 -20 -43.5 -29.5t-59.5 -9.5 q-8 0 -11 1q-45 20 -74 63q-1 1 -2 2.5t-2 4.5q44 -7 93 -7q17 53 27 70q10 16 26.5 25.5t34.5 9.5q20 1 28 -11.5zM457 375q23 9 22 16q0 10 -20 10q-14 0 -29.5 -5.5t-26.5 -15.5l-7 -18h2q36 4 59 13zM195 678l-11 22l385 226l10 -34zM608 838q-19 -72 -67 -136 q-166 -71 -300 -150l-12 13q35 55 65 89q131 95 314 184zM316 137l6 -17l-43 -117l-21 -18l-97 -10q3 63 3 128q0 15 -2 43q-18 -67 -40 -112q-54 -18 -122 -25l58 152q54 5 101 18q-13 107 -58 217q24 42 56 81t60 61q10 -24 19.5 -103.5t9.5 -141.5q0 -50 -3 -95t-7 -69z " />
<glyph unicode="&#xfea8;&#xfedc;" horiz-adv-x="786" d="M786 168l-43 -117l-21 -18l-335 -35q-12 -58 -22 -151l-31 2l5 45q3 42 11 101l-92 -10l58 152l69 8q42 119 115 182t162 63q27 0 48 -5.5t32 -14.5q-11 -96 -39 -193l77 8zM495.5 215q-38.5 -23 -62.5 -65l188 21q5 23 10 61q-21 6 -47 6q-50 0 -88.5 -23zM521 539 l93 62l14 -23q28 -46 47 -70l-84 -55q-35 27 -70 86zM608 838q-19 -72 -67 -136q-166 -71 -300 -150l-12 13q35 55 65 89q131 95 314 184zM316 137l6 -17l-43 -117l-21 -18l-97 -10q3 63 3 128q0 15 -2 43q-18 -67 -40 -112q-54 -18 -122 -25l58 152q54 5 101 18 q-13 107 -58 217q24 42 56 81t60 61q10 -24 19.5 -103.5t9.5 -141.5q0 -50 -3 -95t-7 -69z" />
<glyph unicode="&#xfea7;&#xfedc;" horiz-adv-x="767" d="M644 25l-258 -27q-12 -59 -22 -150l-30 1l5 45q3 42 11 101l-92 -10l58 152l69 8q42 119 115 182t162 63q27 0 48 -5.5t32 -14.5q-18 -166 -98 -345zM495 215q-39 -23 -63 -65l189 21q5 23 10 61q-21 6 -47 6q-50 0 -89 -23zM521 539l93 62l14 -23q28 -46 47 -70l-84 -55 q-35 27 -70 86zM608 838q-19 -72 -67 -136q-166 -71 -300 -150l-12 13q35 55 65 89q131 95 314 184zM316 137l6 -17l-43 -117l-21 -18l-97 -10q3 63 3 128q0 15 -2 43q-18 -67 -40 -112q-54 -18 -122 -25l58 152q54 5 101 18q-13 107 -58 217q24 42 56 81t60 61 q10 -24 19.5 -103.5t9.5 -141.5q0 -50 -3 -95t-7 -69z" />
<glyph unicode="&#xfea7;&#xfb8f;" horiz-adv-x="1104" d="M981 25l-258 -27q-12 -59 -22 -150l-30 1l5 45q3 42 11 101l-92 -10l58 152l69 8q42 119 115 182t162 63q27 0 48 -5.5t32 -14.5q-18 -166 -98 -345zM832 215q-39 -23 -63 -65l189 21q5 23 10 61q-21 6 -47 6q-50 0 -89 -23zM858 539l93 62l14 -23q28 -46 47 -70l-84 -55 q-35 27 -70 86zM937 754q-19 -72 -67 -136q-166 -71 -300 -150l-12 13q35 55 65 89q131 95 314 184zM653 137l6 -17l-43 -117l-21 -18l-43 -5q-15 -45 -32 -65q-43 -39 -120.5 -67t-155.5 -28q-51 0 -100.5 13t-84.5 35t-44 47q9 54 58 136.5t105 131.5l15 -86 q-42 -32 -83 -76q18 -22 66 -35.5t114 -13.5q63 0 118.5 12.5t92.5 31.5q-6 60 -26.5 147t-41.5 149q24 42 56 81t60 61q10 -29 19 -129t10 -196z" />
<glyph unicode="&#xfea8;&#xfb8f;" horiz-adv-x="1123" d="M1123 168l-43 -117l-21 -18l-335 -35q-12 -58 -22 -151l-31 2l5 45q3 42 11 101l-92 -10l58 152l69 8q42 119 115 182t162 63q27 0 48 -5.5t32 -14.5q-11 -96 -39 -193l77 8zM832.5 215q-38.5 -23 -62.5 -65l188 21q5 23 10 61q-21 6 -47 6q-50 0 -88.5 -23zM858 539 l93 62l14 -23q28 -46 47 -70l-84 -55q-35 27 -70 86zM937 754q-19 -72 -67 -136q-166 -71 -300 -150l-12 13q35 55 65 89q131 95 314 184zM653 137l6 -17l-43 -117l-21 -18l-43 -5q-15 -45 -32 -65q-43 -39 -120.5 -67t-155.5 -28q-51 0 -100.5 13t-84.5 35t-44 47 q9 54 58 136.5t105 131.5l15 -86q-42 -32 -83 -76q18 -22 66 -35.5t114 -13.5q63 0 118.5 12.5t92.5 31.5q-6 60 -26.5 147t-41.5 149q24 42 56 81t60 61q10 -29 19 -129t10 -196z" />
<glyph unicode="&#xfea8;&#xfb91;" horiz-adv-x="786" d="M786 168l-43 -117l-21 -18l-335 -35q-12 -58 -22 -151l-31 2l5 45q3 42 11 101l-92 -10l58 152l69 8q42 119 115 182t162 63q27 0 48 -5.5t32 -14.5q-11 -96 -39 -193l77 8zM495.5 215q-38.5 -23 -62.5 -65l188 21q5 23 10 61q-21 6 -47 6q-50 0 -88.5 -23zM521 539 l93 62l14 -23q28 -46 47 -70l-84 -55q-35 27 -70 86zM608 838q-19 -72 -67 -136q-166 -71 -300 -150l-12 13q35 55 65 89q131 95 314 184zM316 137l6 -17l-43 -117l-21 -18l-97 -10q3 63 3 128q0 15 -2 43q-18 -67 -40 -112q-54 -18 -122 -25l58 152q54 5 101 18 q-13 107 -58 217q24 42 56 81t60 61q10 -24 19.5 -103.5t9.5 -141.5q0 -50 -3 -95t-7 -69z" />
<glyph unicode="&#xfea7;&#xfb91;" horiz-adv-x="767" d="M644 25l-258 -27q-12 -59 -22 -150l-30 1l5 45q3 42 11 101l-92 -10l58 152l69 8q42 119 115 182t162 63q27 0 48 -5.5t32 -14.5q-18 -166 -98 -345zM495 215q-39 -23 -63 -65l189 21q5 23 10 61q-21 6 -47 6q-50 0 -89 -23zM521 539l93 62l14 -23q28 -46 47 -70l-84 -55 q-35 27 -70 86zM608 838q-19 -72 -67 -136q-166 -71 -300 -150l-12 13q35 55 65 89q131 95 314 184zM316 137l6 -17l-43 -117l-21 -18l-97 -10q3 63 3 128q0 15 -2 43q-18 -67 -40 -112q-54 -18 -122 -25l58 152q54 5 101 18q-13 107 -58 217q24 42 56 81t60 61 q10 -24 19.5 -103.5t9.5 -141.5q0 -50 -3 -95t-7 -69z" />
<glyph unicode="&#xfea7;&#xfb93;" horiz-adv-x="1104" d="M981 25l-258 -27q-12 -59 -22 -150l-30 1l5 45q3 42 11 101l-92 -10l58 152l69 8q42 119 115 182t162 63q27 0 48 -5.5t32 -14.5q-18 -166 -98 -345zM832 215q-39 -23 -63 -65l189 21q5 23 10 61q-21 6 -47 6q-50 0 -89 -23zM858 539l93 62l14 -23q28 -46 47 -70l-84 -55 q-35 27 -70 86zM524 594l-11 22l385 226l10 -34zM937 754q-19 -72 -67 -136q-166 -71 -300 -150l-12 13q35 55 65 89q131 95 314 184zM653 137l6 -17l-43 -117l-21 -18l-43 -5q-15 -45 -32 -65q-43 -39 -120.5 -67t-155.5 -28q-51 0 -100.5 13t-84.5 35t-44 47 q9 54 58 136.5t105 131.5l15 -86q-42 -32 -83 -76q18 -22 66 -35.5t114 -13.5q63 0 118.5 12.5t92.5 31.5q-6 60 -26.5 147t-41.5 149q24 42 56 81t60 61q10 -29 19 -129t10 -196z" />
<glyph unicode="&#xfea8;&#xfb93;" horiz-adv-x="1123" d="M1123 168l-43 -117l-21 -18l-335 -35q-12 -58 -22 -151l-31 2l5 45q3 42 11 101l-92 -10l58 152l69 8q42 119 115 182t162 63q27 0 48 -5.5t32 -14.5q-11 -96 -39 -193l77 8zM832.5 215q-38.5 -23 -62.5 -65l188 21q5 23 10 61q-21 6 -47 6q-50 0 -88.5 -23zM858 539 l93 62l14 -23q28 -46 47 -70l-84 -55q-35 27 -70 86zM524 594l-11 22l385 226l10 -34zM937 754q-19 -72 -67 -136q-166 -71 -300 -150l-12 13q35 55 65 89q131 95 314 184zM653 137l6 -17l-43 -117l-21 -18l-43 -5q-15 -45 -32 -65q-43 -39 -120.5 -67t-155.5 -28 q-51 0 -100.5 13t-84.5 35t-44 47q9 54 58 136.5t105 131.5l15 -86q-42 -32 -83 -76q18 -22 66 -35.5t114 -13.5q63 0 118.5 12.5t92.5 31.5q-6 60 -26.5 147t-41.5 149q24 42 56 81t60 61q10 -29 19 -129t10 -196z" />
<glyph unicode="&#xfea8;&#xfb95;" horiz-adv-x="786" d="M786 168l-43 -117l-21 -18l-335 -35q-12 -58 -22 -151l-31 2l5 45q3 42 11 101l-92 -10l58 152l69 8q42 119 115 182t162 63q27 0 48 -5.5t32 -14.5q-11 -96 -39 -193l77 8zM495.5 215q-38.5 -23 -62.5 -65l188 21q5 23 10 61q-21 6 -47 6q-50 0 -88.5 -23zM521 539 l93 62l14 -23q28 -46 47 -70l-84 -55q-35 27 -70 86zM195 678l-11 22l385 226l10 -34zM608 838q-19 -72 -67 -136q-166 -71 -300 -150l-12 13q35 55 65 89q131 95 314 184zM316 137l6 -17l-43 -117l-21 -18l-97 -10q3 63 3 128q0 15 -2 43q-18 -67 -40 -112 q-54 -18 -122 -25l58 152q54 5 101 18q-13 107 -58 217q24 42 56 81t60 61q10 -24 19.5 -103.5t9.5 -141.5q0 -50 -3 -95t-7 -69z" />
<glyph unicode="&#xfea7;&#xfb95;" horiz-adv-x="767" d="M644 25l-258 -27q-12 -59 -22 -150l-30 1l5 45q3 42 11 101l-92 -10l58 152l69 8q42 119 115 182t162 63q27 0 48 -5.5t32 -14.5q-18 -166 -98 -345zM495 215q-39 -23 -63 -65l189 21q5 23 10 61q-21 6 -47 6q-50 0 -89 -23zM521 539l93 62l14 -23q28 -46 47 -70l-84 -55 q-35 27 -70 86zM195 678l-11 22l385 226l10 -34zM608 838q-19 -72 -67 -136q-166 -71 -300 -150l-12 13q35 55 65 89q131 95 314 184zM316 137l6 -17l-43 -117l-21 -18l-97 -10q3 63 3 128q0 15 -2 43q-18 -67 -40 -112q-54 -18 -122 -25l58 152q54 5 101 18 q-13 107 -58 217q24 42 56 81t60 61q10 -24 19.5 -103.5t9.5 -141.5q0 -50 -3 -95t-7 -69z" />
<glyph unicode="&#xfec4;&#xfedc;" horiz-adv-x="743" d="M346 272q0 85 -4 145t-13 125q30 36 64.5 69t62.5 48q4 -16 4 -44q0 -50 -10.5 -137t-16.5 -98l-65 -147l-22 7v32zM743 143l-43 -117l-21 -18q-109 -11 -148 -11q-64 0 -102 30q-88 -33 -171 -42l58 152l28 3l38 4q3 41 18.5 83.5t37.5 72.5q28 38 71.5 59.5t84.5 21.5 q45 0 64 -27t19 -79q0 -68 -51 -127l36 4l75 8zM416 149q111 15 160 31.5t49 29.5q0 7 -12.5 12t-38.5 5q-39 0 -76 -11.5t-60 -29t-23 -33.5q0 -3 1 -4zM608 838q-19 -72 -67 -136q-166 -71 -300 -150l-12 13q35 55 65 89q131 95 314 184zM316 137l6 -17l-43 -117l-21 -18 l-97 -10q3 63 3 128q0 15 -2 43q-18 -67 -40 -112q-54 -18 -122 -25l58 152q54 5 101 18q-13 107 -58 217q24 42 56 81t60 61q10 -24 19.5 -103.5t9.5 -141.5q0 -50 -3 -95t-7 -69z" />
<glyph unicode="&#xfec3;&#xfedc;" horiz-adv-x="710" d="M354 274q0 85 -4 145t-13 125q30 36 64.5 69t62.5 48q4 -16 4 -44q0 -50 -10.5 -137t-16.5 -98l-65 -147l-22 7v32zM654.5 358.5q20.5 -24.5 20.5 -79.5q0 -53 -17.5 -110.5t-47.5 -88.5q-31 -35 -105.5 -55t-218.5 -37l-28 -3l58 152l19 2q32 4 47 5q39 126 63 163 q22 35 62.5 55.5t83.5 20.5t63.5 -24.5zM572 180q54 17 54 32q0 7 -14 12t-39 5q-36 0 -76 -12.5t-65 -32.5l-12 -35q98 14 152 31zM608 838q-19 -72 -67 -136q-166 -71 -300 -150l-12 13q35 55 65 89q131 95 314 184zM316 137l6 -17l-43 -117l-21 -18l-97 -10q3 63 3 128 q0 15 -2 43q-18 -67 -40 -112q-54 -18 -122 -25l58 152q54 5 101 18q-13 107 -58 217q24 42 56 81t60 61q10 -24 19.5 -103.5t9.5 -141.5q0 -50 -3 -95t-7 -69z" />
<glyph unicode="&#xfec3;&#xfb8f;" horiz-adv-x="1047" d="M570 579l-12 13q35 55 65 89q131 95 314 184q-19 -72 -67 -136q-166 -71 -300 -150zM691 242v32q0 85 -4 145t-13 125q30 36 64.5 69t62.5 48q4 -16 4 -44q0 -50 -10.5 -137t-16.5 -98l-65 -147zM991.5 358.5q20.5 -24.5 20.5 -79.5q0 -53 -17.5 -110.5t-47.5 -88.5 q-31 -35 -105.5 -55t-218.5 -37l-27 -3l-43 -5q-15 -45 -32 -65q-43 -39 -120.5 -67t-155.5 -28q-51 0 -100.5 13t-84.5 35t-44 47q9 54 58 136.5t105 131.5l15 -86q-42 -32 -83 -76q18 -22 66 -35.5t114 -13.5q64 0 119.5 12.5t91.5 31.5q-7 81 -29 218.5t-39 188.5 q24 42 56 81t60 61q11 -32 20 -151t9 -285l74 8l19 2q32 4 47 5q39 126 63 163q22 35 62.5 55.5t83.5 20.5t63.5 -24.5zM909 180q54 17 54 32q0 7 -14 12t-39 5q-36 0 -76 -12.5t-65 -32.5l-12 -35q98 14 152 31z" />
<glyph unicode="&#xfec4;&#xfb8f;" horiz-adv-x="1047" d="M570 579l-12 13q35 55 65 89q131 95 314 184q-19 -72 -67 -136q-166 -71 -300 -150zM683 240v32q0 85 -4 145t-13 125q30 36 64.5 69t62.5 48q4 -16 4 -44q0 -50 -10.5 -137t-16.5 -98l-65 -147zM1080 143l-43 -117l-21 -18q-109 -11 -148 -11q-64 0 -102 30 q-88 -33 -171 -42l-43 -5q-15 -45 -32 -65q-43 -39 -120.5 -67t-155.5 -28q-51 0 -100.5 13t-84.5 35t-44 47q9 54 58 136.5t105 131.5l15 -86q-42 -32 -83 -76q18 -22 66 -35.5t114 -13.5q64 0 119.5 12.5t91.5 31.5q-7 81 -29 218.5t-39 188.5q24 42 56 81t60 61 q11 -32 20 -151t9 -285l103 11l38 4q3 41 18.5 83.5t37.5 72.5q28 38 71.5 59.5t84.5 21.5q45 0 64 -27t19 -79q0 -68 -51 -127l36 4l75 8zM753 149q111 15 160 31.5t49 29.5q0 7 -12.5 12t-38.5 5q-39 0 -76 -11.5t-60 -29t-23 -33.5q0 -3 1 -4z" />
<glyph unicode="&#xfec4;&#xfb91;" horiz-adv-x="743" d="M346 272q0 85 -4 145t-13 125q30 36 64.5 69t62.5 48q4 -16 4 -44q0 -50 -10.5 -137t-16.5 -98l-65 -147l-22 7v32zM743 143l-43 -117l-21 -18q-109 -11 -148 -11q-64 0 -102 30q-88 -33 -171 -42l58 152l28 3l38 4q3 41 18.5 83.5t37.5 72.5q28 38 71.5 59.5t84.5 21.5 q45 0 64 -27t19 -79q0 -68 -51 -127l36 4l75 8zM416 149q111 15 160 31.5t49 29.5q0 7 -12.5 12t-38.5 5q-39 0 -76 -11.5t-60 -29t-23 -33.5q0 -3 1 -4zM608 838q-19 -72 -67 -136q-166 -71 -300 -150l-12 13q35 55 65 89q131 95 314 184zM316 137l6 -17l-43 -117l-21 -18 l-97 -10q3 63 3 128q0 15 -2 43q-18 -67 -40 -112q-54 -18 -122 -25l58 152q54 5 101 18q-13 107 -58 217q24 42 56 81t60 61q10 -24 19.5 -103.5t9.5 -141.5q0 -50 -3 -95t-7 -69z" />
<glyph unicode="&#xfec3;&#xfb91;" horiz-adv-x="710" d="M354 274q0 85 -4 145t-13 125q30 36 64.5 69t62.5 48q4 -16 4 -44q0 -50 -10.5 -137t-16.5 -98l-65 -147l-22 7v32zM654.5 358.5q20.5 -24.5 20.5 -79.5q0 -53 -17.5 -110.5t-47.5 -88.5q-31 -35 -105.5 -55t-218.5 -37l-28 -3l58 152l19 2q32 4 47 5q39 126 63 163 q22 35 62.5 55.5t83.5 20.5t63.5 -24.5zM572 180q54 17 54 32q0 7 -14 12t-39 5q-36 0 -76 -12.5t-65 -32.5l-12 -35q98 14 152 31zM608 838q-19 -72 -67 -136q-166 -71 -300 -150l-12 13q35 55 65 89q131 95 314 184zM316 137l6 -17l-43 -117l-21 -18l-97 -10q3 63 3 128 q0 15 -2 43q-18 -67 -40 -112q-54 -18 -122 -25l58 152q54 5 101 18q-13 107 -58 217q24 42 56 81t60 61q10 -24 19.5 -103.5t9.5 -141.5q0 -50 -3 -95t-7 -69z" />
<glyph unicode="&#xfec3;&#xfb93;" horiz-adv-x="1047" d="M524 700l-11 22l385 226l10 -34zM870 729q-166 -71 -300 -150l-12 13q35 55 65 89q131 95 314 184q-19 -72 -67 -136zM691 242v32q0 85 -4 145t-13 125q30 36 64.5 69t62.5 48q4 -16 4 -44q0 -50 -10.5 -137t-16.5 -98l-65 -147zM991.5 358.5q20.5 -24.5 20.5 -79.5 q0 -53 -17.5 -110.5t-47.5 -88.5q-31 -35 -105.5 -55t-218.5 -37l-27 -3l-43 -5q-15 -45 -32 -65q-43 -39 -120.5 -67t-155.5 -28q-51 0 -100.5 13t-84.5 35t-44 47q9 54 58 136.5t105 131.5l15 -86q-42 -32 -83 -76q18 -22 66 -35.5t114 -13.5q64 0 119.5 12.5t91.5 31.5 q-7 81 -29 218.5t-39 188.5q24 42 56 81t60 61q11 -32 20 -151t9 -285l74 8l19 2q32 4 47 5q39 126 63 163q22 35 62.5 55.5t83.5 20.5t63.5 -24.5zM909 180q54 17 54 32q0 7 -14 12t-39 5q-36 0 -76 -12.5t-65 -32.5l-12 -35q98 14 152 31z" />
<glyph unicode="&#xfec4;&#xfb93;" horiz-adv-x="1047" d="M524 700l-11 22l385 226l10 -34zM870 729q-166 -71 -300 -150l-12 13q35 55 65 89q131 95 314 184q-19 -72 -67 -136zM683 240v32q0 85 -4 145t-13 125q30 36 64.5 69t62.5 48q4 -16 4 -44q0 -50 -10.5 -137t-16.5 -98l-65 -147zM1080 143l-43 -117l-21 -18 q-109 -11 -148 -11q-64 0 -102 30q-88 -33 -171 -42l-43 -5q-15 -45 -32 -65q-43 -39 -120.5 -67t-155.5 -28q-51 0 -100.5 13t-84.5 35t-44 47q9 54 58 136.5t105 131.5l15 -86q-42 -32 -83 -76q18 -22 66 -35.5t114 -13.5q64 0 119.5 12.5t91.5 31.5q-7 81 -29 218.5 t-39 188.5q24 42 56 81t60 61q11 -32 20 -151t9 -285l103 11l38 4q3 41 18.5 83.5t37.5 72.5q28 38 71.5 59.5t84.5 21.5q45 0 64 -27t19 -79q0 -68 -51 -127l36 4l75 8zM753 149q111 15 160 31.5t49 29.5q0 7 -12.5 12t-38.5 5q-39 0 -76 -11.5t-60 -29t-23 -33.5 q0 -3 1 -4z" />
<glyph unicode="&#xfec4;&#xfb95;" horiz-adv-x="743" d="M346 272q0 85 -4 145t-13 125q30 36 64.5 69t62.5 48q4 -16 4 -44q0 -50 -10.5 -137t-16.5 -98l-65 -147l-22 7v32zM743 143l-43 -117l-21 -18q-109 -11 -148 -11q-64 0 -102 30q-88 -33 -171 -42l58 152l28 3l38 4q3 41 18.5 83.5t37.5 72.5q28 38 71.5 59.5t84.5 21.5 q45 0 64 -27t19 -79q0 -68 -51 -127l36 4l75 8zM416 149q111 15 160 31.5t49 29.5q0 7 -12.5 12t-38.5 5q-39 0 -76 -11.5t-60 -29t-23 -33.5q0 -3 1 -4zM195 678l-11 22l385 226l10 -34zM608 838q-19 -72 -67 -136q-166 -71 -300 -150l-12 13q35 55 65 89q131 95 314 184z M316 137l6 -17l-43 -117l-21 -18l-97 -10q3 63 3 128q0 15 -2 43q-18 -67 -40 -112q-54 -18 -122 -25l58 152q54 5 101 18q-13 107 -58 217q24 42 56 81t60 61q10 -24 19.5 -103.5t9.5 -141.5q0 -50 -3 -95t-7 -69z" />
<glyph unicode="&#xfec3;&#xfb95;" horiz-adv-x="710" d="M354 274q0 85 -4 145t-13 125q30 36 64.5 69t62.5 48q4 -16 4 -44q0 -50 -10.5 -137t-16.5 -98l-65 -147l-22 7v32zM654.5 358.5q20.5 -24.5 20.5 -79.5q0 -53 -17.5 -110.5t-47.5 -88.5q-31 -35 -105.5 -55t-218.5 -37l-28 -3l58 152l19 2q32 4 47 5q39 126 63 163 q22 35 62.5 55.5t83.5 20.5t63.5 -24.5zM572 180q54 17 54 32q0 7 -14 12t-39 5q-36 0 -76 -12.5t-65 -32.5l-12 -35q98 14 152 31zM195 678l-11 22l385 226l10 -34zM608 838q-19 -72 -67 -136q-166 -71 -300 -150l-12 13q35 55 65 89q131 95 314 184zM316 137l6 -17 l-43 -117l-21 -18l-97 -10q3 63 3 128q0 15 -2 43q-18 -67 -40 -112q-54 -18 -122 -25l58 152q54 5 101 18q-13 107 -58 217q24 42 56 81t60 61q10 -24 19.5 -103.5t9.5 -141.5q0 -50 -3 -95t-7 -69z" />
<glyph unicode="&#xfec8;&#xfedc;" horiz-adv-x="743" d="M346 272q0 85 -4 145t-13 125q30 36 64.5 69t62.5 48q4 -16 4 -44q0 -50 -10.5 -137t-16.5 -98l-65 -147l-22 7v32zM743 143l-43 -117l-21 -18q-109 -11 -148 -11q-64 0 -102 30q-88 -33 -171 -42l58 152l28 3l38 4q3 41 18.5 83.5t37.5 72.5q28 38 71.5 59.5t84.5 21.5 q45 0 64 -27t19 -79q0 -68 -51 -127l36 4l75 8zM416 149q111 15 160 31.5t49 29.5q0 7 -12.5 12t-38.5 5q-39 0 -76 -11.5t-60 -29t-23 -33.5q0 -3 1 -4zM508 540l93 62l14 -23q28 -46 47 -70l-84 -55q-35 27 -70 86zM608 838q-19 -72 -67 -136q-166 -71 -300 -150l-12 13 q35 55 65 89q131 95 314 184zM316 137l6 -17l-43 -117l-21 -18l-97 -10q3 63 3 128q0 15 -2 43q-18 -67 -40 -112q-54 -18 -122 -25l58 152q54 5 101 18q-13 107 -58 217q24 42 56 81t60 61q10 -24 19.5 -103.5t9.5 -141.5q0 -50 -3 -95t-7 -69z" />
<glyph unicode="&#xfec7;&#xfedc;" horiz-adv-x="710" d="M354 274q0 85 -4 145t-13 125q30 36 64.5 69t62.5 48q4 -16 4 -44q0 -50 -10.5 -137t-16.5 -98l-65 -147l-22 7v32zM654.5 358.5q20.5 -24.5 20.5 -79.5q0 -53 -17.5 -110.5t-47.5 -88.5q-31 -35 -105.5 -55t-218.5 -37l-28 -3l58 152l19 2q32 4 47 5q39 126 63 163 q22 35 62.5 55.5t83.5 20.5t63.5 -24.5zM572 180q54 17 54 32q0 7 -14 12t-39 5q-36 0 -76 -12.5t-65 -32.5l-12 -35q98 14 152 31zM520 543l93 62l14 -23q28 -46 47 -70l-84 -55q-35 27 -70 86zM608 838q-19 -72 -67 -136q-166 -71 -300 -150l-12 13q35 55 65 89 q131 95 314 184zM316 137l6 -17l-43 -117l-21 -18l-97 -10q3 63 3 128q0 15 -2 43q-18 -67 -40 -112q-54 -18 -122 -25l58 152q54 5 101 18q-13 107 -58 217q24 42 56 81t60 61q10 -24 19.5 -103.5t9.5 -141.5q0 -50 -3 -95t-7 -69z" />
<glyph unicode="&#xfec7;&#xfb8f;" horiz-adv-x="1027" d="M570 579l-12 13q35 55 65 89q131 95 314 184q-19 -72 -67 -136q-166 -71 -300 -150zM691 242v32q0 85 -4 145t-13 125q30 36 64.5 69t62.5 48q4 -16 4 -44q0 -50 -10.5 -137t-16.5 -98l-65 -147zM857 543l93 62l14 -23q28 -46 47 -70l-84 -55q-35 27 -70 86zM991.5 358.5 q20.5 -24.5 20.5 -79.5q0 -53 -17.5 -110.5t-47.5 -88.5q-31 -35 -105.5 -55t-218.5 -37l-27 -3l-43 -5q-15 -45 -32 -65q-43 -39 -120.5 -67t-155.5 -28q-51 0 -100.5 13t-84.5 35t-44 47q9 54 58 136.5t105 131.5l15 -86q-42 -32 -83 -76q18 -22 66 -35.5t114 -13.5 q64 0 119.5 12.5t91.5 31.5q-7 81 -29 218.5t-39 188.5q24 42 56 81t60 61q11 -32 20 -151t9 -285l74 8l19 2q32 4 47 5q39 126 63 163q22 35 62.5 55.5t83.5 20.5t63.5 -24.5zM909 180q54 17 54 32q0 7 -14 12t-39 5q-36 0 -76 -12.5t-65 -32.5l-12 -35q98 14 152 31z" />
<glyph unicode="&#xfec8;&#xfb8f;" horiz-adv-x="1080" d="M570 579l-12 13q35 55 65 89q131 95 314 184q-19 -72 -67 -136q-166 -71 -300 -150zM683 240v32q0 85 -4 145t-13 125q30 36 64.5 69t62.5 48q4 -16 4 -44q0 -50 -10.5 -137t-16.5 -98l-65 -147zM845 540l93 62l14 -23q28 -46 47 -70l-84 -55q-35 27 -70 86zM1080 143 l-43 -117l-21 -18q-109 -11 -148 -11q-64 0 -102 30q-88 -33 -171 -42l-43 -5q-15 -45 -32 -65q-43 -39 -120.5 -67t-155.5 -28q-51 0 -100.5 13t-84.5 35t-44 47q9 54 58 136.5t105 131.5l15 -86q-42 -32 -83 -76q18 -22 66 -35.5t114 -13.5q64 0 119.5 12.5t91.5 31.5 q-7 81 -29 218.5t-39 188.5q24 42 56 81t60 61q11 -32 20 -151t9 -285l103 11l38 4q3 41 18.5 83.5t37.5 72.5q28 38 71.5 59.5t84.5 21.5q45 0 64 -27t19 -79q0 -68 -51 -127l36 4l75 8zM753 149q111 15 160 31.5t49 29.5q0 7 -12.5 12t-38.5 5q-39 0 -76 -11.5t-60 -29 t-23 -33.5q0 -3 1 -4z" />
<glyph unicode="&#xfec8;&#xfb91;" horiz-adv-x="743" d="M346 272q0 85 -4 145t-13 125q30 36 64.5 69t62.5 48q4 -16 4 -44q0 -50 -10.5 -137t-16.5 -98l-65 -147l-22 7v32zM743 143l-43 -117l-21 -18q-109 -11 -148 -11q-64 0 -102 30q-88 -33 -171 -42l58 152l28 3l38 4q3 41 18.5 83.5t37.5 72.5q28 38 71.5 59.5t84.5 21.5 q45 0 64 -27t19 -79q0 -68 -51 -127l36 4l75 8zM416 149q111 15 160 31.5t49 29.5q0 7 -12.5 12t-38.5 5q-39 0 -76 -11.5t-60 -29t-23 -33.5q0 -3 1 -4zM508 540l93 62l14 -23q28 -46 47 -70l-84 -55q-35 27 -70 86zM608 838q-19 -72 -67 -136q-166 -71 -300 -150l-12 13 q35 55 65 89q131 95 314 184zM316 137l6 -17l-43 -117l-21 -18l-97 -10q3 63 3 128q0 15 -2 43q-18 -67 -40 -112q-54 -18 -122 -25l58 152q54 5 101 18q-13 107 -58 217q24 42 56 81t60 61q10 -24 19.5 -103.5t9.5 -141.5q0 -50 -3 -95t-7 -69z" />
<glyph unicode="&#xfec7;&#xfb91;" horiz-adv-x="710" d="M354 274q0 85 -4 145t-13 125q30 36 64.5 69t62.5 48q4 -16 4 -44q0 -50 -10.5 -137t-16.5 -98l-65 -147l-22 7v32zM654.5 358.5q20.5 -24.5 20.5 -79.5q0 -53 -17.5 -110.5t-47.5 -88.5q-31 -35 -105.5 -55t-218.5 -37l-28 -3l58 152l19 2q32 4 47 5q39 126 63 163 q22 35 62.5 55.5t83.5 20.5t63.5 -24.5zM572 180q54 17 54 32q0 7 -14 12t-39 5q-36 0 -76 -12.5t-65 -32.5l-12 -35q98 14 152 31zM520 543l93 62l14 -23q28 -46 47 -70l-84 -55q-35 27 -70 86zM608 838q-19 -72 -67 -136q-166 -71 -300 -150l-12 13q35 55 65 89 q131 95 314 184zM316 137l6 -17l-43 -117l-21 -18l-97 -10q3 63 3 128q0 15 -2 43q-18 -67 -40 -112q-54 -18 -122 -25l58 152q54 5 101 18q-13 107 -58 217q24 42 56 81t60 61q10 -24 19.5 -103.5t9.5 -141.5q0 -50 -3 -95t-7 -69z" />
<glyph unicode="&#xfec7;&#xfb93;" horiz-adv-x="1027" d="M524 700l-11 22l385 226l10 -34zM623 681q131 95 314 184q-19 -72 -67 -136q-166 -71 -300 -150l-12 13q35 55 65 89zM691 242v32q0 85 -4 145t-13 125q30 36 64.5 69t62.5 48q4 -16 4 -44q0 -50 -10.5 -137t-16.5 -98l-65 -147zM857 543l93 62l14 -23q28 -46 47 -70 l-84 -55q-35 27 -70 86zM991.5 358.5q20.5 -24.5 20.5 -79.5q0 -53 -17.5 -110.5t-47.5 -88.5q-31 -35 -105.5 -55t-218.5 -37l-27 -3l-43 -5q-15 -45 -32 -65q-43 -39 -120.5 -67t-155.5 -28q-51 0 -100.5 13t-84.5 35t-44 47q9 54 58 136.5t105 131.5l15 -86 q-42 -32 -83 -76q18 -22 66 -35.5t114 -13.5q64 0 119.5 12.5t91.5 31.5q-7 81 -29 218.5t-39 188.5q24 42 56 81t60 61q11 -32 20 -151t9 -285l74 8l19 2q32 4 47 5q39 126 63 163q22 35 62.5 55.5t83.5 20.5t63.5 -24.5zM909 180q54 17 54 32q0 7 -14 12t-39 5 q-36 0 -76 -12.5t-65 -32.5l-12 -35q98 14 152 31z" />
<glyph unicode="&#xfec8;&#xfb93;" horiz-adv-x="1080" d="M524 700l-11 22l385 226l10 -34zM623 681q131 95 314 184q-19 -72 -67 -136q-166 -71 -300 -150l-12 13q35 55 65 89zM683 240v32q0 85 -4 145t-13 125q30 36 64.5 69t62.5 48q4 -16 4 -44q0 -50 -10.5 -137t-16.5 -98l-65 -147zM845 540l93 62l14 -23q28 -46 47 -70 l-84 -55q-35 27 -70 86zM1080 143l-43 -117l-21 -18q-109 -11 -148 -11q-64 0 -102 30q-88 -33 -171 -42l-43 -5q-15 -45 -32 -65q-43 -39 -120.5 -67t-155.5 -28q-51 0 -100.5 13t-84.5 35t-44 47q9 54 58 136.5t105 131.5l15 -86q-42 -32 -83 -76q18 -22 66 -35.5 t114 -13.5q64 0 119.5 12.5t91.5 31.5q-7 81 -29 218.5t-39 188.5q24 42 56 81t60 61q11 -32 20 -151t9 -285l103 11l38 4q3 41 18.5 83.5t37.5 72.5q28 38 71.5 59.5t84.5 21.5q45 0 64 -27t19 -79q0 -68 -51 -127l36 4l75 8zM753 149q111 15 160 31.5t49 29.5 q0 7 -12.5 12t-38.5 5q-39 0 -76 -11.5t-60 -29t-23 -33.5q0 -3 1 -4z" />
<glyph unicode="&#xfec8;&#xfb95;" horiz-adv-x="743" d="M346 272q0 85 -4 145t-13 125q30 36 64.5 69t62.5 48q4 -16 4 -44q0 -50 -10.5 -137t-16.5 -98l-65 -147l-22 7v32zM743 143l-43 -117l-21 -18q-109 -11 -148 -11q-64 0 -102 30q-88 -33 -171 -42l58 152l28 3l38 4q3 41 18.5 83.5t37.5 72.5q28 38 71.5 59.5t84.5 21.5 q45 0 64 -27t19 -79q0 -68 -51 -127l36 4l75 8zM416 149q111 15 160 31.5t49 29.5q0 7 -12.5 12t-38.5 5q-39 0 -76 -11.5t-60 -29t-23 -33.5q0 -3 1 -4zM508 540l93 62l14 -23q28 -46 47 -70l-84 -55q-35 27 -70 86zM195 678l-11 22l385 226l10 -34zM608 838 q-19 -72 -67 -136q-166 -71 -300 -150l-12 13q35 55 65 89q131 95 314 184zM316 137l6 -17l-43 -117l-21 -18l-97 -10q3 63 3 128q0 15 -2 43q-18 -67 -40 -112q-54 -18 -122 -25l58 152q54 5 101 18q-13 107 -58 217q24 42 56 81t60 61q10 -24 19.5 -103.5t9.5 -141.5 q0 -50 -3 -95t-7 -69z" />
<glyph unicode="&#xfec7;&#xfb95;" horiz-adv-x="710" d="M354 274q0 85 -4 145t-13 125q30 36 64.5 69t62.5 48q4 -16 4 -44q0 -50 -10.5 -137t-16.5 -98l-65 -147l-22 7v32zM654.5 358.5q20.5 -24.5 20.5 -79.5q0 -53 -17.5 -110.5t-47.5 -88.5q-31 -35 -105.5 -55t-218.5 -37l-28 -3l58 152l19 2q32 4 47 5q39 126 63 163 q22 35 62.5 55.5t83.5 20.5t63.5 -24.5zM572 180q54 17 54 32q0 7 -14 12t-39 5q-36 0 -76 -12.5t-65 -32.5l-12 -35q98 14 152 31zM520 543l93 62l14 -23q28 -46 47 -70l-84 -55q-35 27 -70 86zM195 678l-11 22l385 226l10 -34zM608 838q-19 -72 -67 -136 q-166 -71 -300 -150l-12 13q35 55 65 89q131 95 314 184zM316 137l6 -17l-43 -117l-21 -18l-97 -10q3 63 3 128q0 15 -2 43q-18 -67 -40 -112q-54 -18 -122 -25l58 152q54 5 101 18q-13 107 -58 217q24 42 56 81t60 61q10 -24 19.5 -103.5t9.5 -141.5q0 -50 -3 -95t-7 -69z " />
<glyph unicode="&#xfecf;&#xfedc;" horiz-adv-x="682" d="M682 176l-56 -152l-368 -39l58 152l52 6q-1 4 -1 12q0 29 18 69.5t44 78t46 53.5q24 18 82 35t98 20l-43 -142q-87 -8 -157 -30q17 -26 46 -47.5t60 -28.5zM462 546l93 62l14 -23q28 -46 47 -70l-84 -55q-35 27 -70 86zM608 838q-19 -72 -67 -136q-166 -71 -300 -150 l-12 13q35 55 65 89q131 95 314 184zM316 137l6 -17l-43 -117l-21 -18l-97 -10q3 63 3 128q0 15 -2 43q-18 -67 -40 -112q-54 -18 -122 -25l58 152q54 5 101 18q-13 107 -58 217q24 42 56 81t60 61q10 -24 19.5 -103.5t9.5 -141.5q0 -50 -3 -95t-7 -69z" />
<glyph unicode="&#xfed4;&#xfedc;" horiz-adv-x="687" d="M687 158l-43 -117l-21 -18l-19 -2q-24 -2 -36 -2q-58 0 -106 21q-72 -41 -159 -50l-45 -5l56 152l52 5q-3 14 -3 25q0 26 15 65.5t35.5 76t35.5 50.5q28 28 78 28q44 0 74 -21.5t30 -59.5q0 -70 -39 -138q23 0 52 3l37 4zM432 240q14 -40 64 -59q38 21 64 48 q-33 22 -76 22q-28 0 -52 -11zM448 542l93 62l14 -23q28 -46 47 -70l-84 -55q-35 27 -70 86zM608 838q-19 -72 -67 -136q-166 -71 -300 -150l-12 13q35 55 65 89q131 95 314 184zM316 137l6 -17l-43 -117l-21 -18l-97 -10q3 63 3 128q0 15 -2 43q-18 -67 -40 -112 q-54 -18 -122 -25l58 152q54 5 101 18q-13 107 -58 217q24 42 56 81t60 61q10 -24 19.5 -103.5t9.5 -141.5q0 -50 -3 -95t-7 -69z" />
<glyph unicode="&#xfed3;&#xfedc;" horiz-adv-x="600" d="M550.5 377q17.5 -38 17.5 -97q0 -49 -19.5 -114.5t-45.5 -100.5q-20 -25 -72.5 -46t-133.5 -30l-39 -4l58 152l62 6q59 7 111 20l-4 34h-50q-38 0 -61 11.5t-23 32.5q0 24 29 66t66 75t60 33q27 0 44.5 -38zM413 565l93 62l14 -23q28 -46 47 -70l-84 -55q-35 27 -70 86z M608 838q-19 -72 -67 -136q-166 -71 -300 -150l-12 13q35 55 65 89q131 95 314 184zM316 137l6 -17l-43 -117l-21 -18l-97 -10q3 63 3 128q0 15 -2 43q-18 -67 -40 -112q-54 -18 -122 -25l58 152q54 5 101 18q-13 107 -58 217q24 42 56 81t60 61q10 -24 19.5 -103.5 t9.5 -141.5q0 -50 -3 -95t-7 -69z" />
<glyph unicode="&#xfed3;&#xfb8f;" horiz-adv-x="929" d="M887.5 377q17.5 -38 17.5 -97q0 -49 -19.5 -114.5t-45.5 -100.5q-20 -25 -72.5 -46t-133.5 -30l-39 -4l58 152l62 6q59 7 111 20l-4 34h-50q-38 0 -61 11.5t-23 32.5q0 24 29 66t66 75t60 33q27 0 44.5 -38zM735 521l93 62l14 -23q28 -46 47 -70l-84 -55q-35 27 -70 86z M937 754q-19 -72 -67 -136q-166 -71 -300 -150l-12 13q35 55 65 89q131 95 314 184zM653 137l6 -17l-43 -117l-21 -18l-43 -5q-15 -45 -32 -65q-43 -39 -120.5 -67t-155.5 -28q-51 0 -100.5 13t-84.5 35t-44 47q9 54 58 136.5t105 131.5l15 -86q-42 -32 -83 -76 q18 -22 66 -35.5t114 -13.5q63 0 118.5 12.5t92.5 31.5q-6 60 -26.5 147t-41.5 149q24 42 56 81t60 61q10 -29 19 -129t10 -196z" />
<glyph unicode="&#xfed4;&#xfb8f;" horiz-adv-x="1024" d="M1024 158l-43 -117l-21 -18l-19 -2q-24 -2 -36 -2q-58 0 -106 21q-72 -41 -159 -50l-45 -5l56 152l52 5q-3 14 -3 25q0 26 15 65.5t35.5 76t35.5 50.5q28 28 78 28q44 0 74 -21.5t30 -59.5q0 -70 -39 -138q23 0 52 3l37 4zM769 240q14 -40 64 -59q38 21 64 48 q-33 22 -76 22q-28 0 -52 -11zM785 508l93 62l14 -23q28 -46 47 -70l-84 -55q-35 27 -70 86zM937 754q-19 -72 -67 -136q-166 -71 -300 -150l-12 13q35 55 65 89q131 95 314 184zM653 137l6 -17l-43 -117l-21 -18l-43 -5q-15 -45 -32 -65q-43 -39 -120.5 -67t-155.5 -28 q-51 0 -100.5 13t-84.5 35t-44 47q9 54 58 136.5t105 131.5l15 -86q-42 -32 -83 -76q18 -22 66 -35.5t114 -13.5q63 0 118.5 12.5t92.5 31.5q-6 60 -26.5 147t-41.5 149q24 42 56 81t60 61q10 -29 19 -129t10 -196z" />
<glyph unicode="&#xfed4;&#xfb91;" horiz-adv-x="687" d="M687 158l-43 -117l-21 -18l-19 -2q-24 -2 -36 -2q-58 0 -106 21q-72 -41 -159 -50l-45 -5l56 152l52 5q-3 14 -3 25q0 26 15 65.5t35.5 76t35.5 50.5q28 28 78 28q44 0 74 -21.5t30 -59.5q0 -70 -39 -138q23 0 52 3l37 4zM432 240q14 -40 64 -59q38 21 64 48 q-33 22 -76 22q-28 0 -52 -11zM448 542l93 62l14 -23q28 -46 47 -70l-84 -55q-35 27 -70 86zM608 838q-19 -72 -67 -136q-166 -71 -300 -150l-12 13q35 55 65 89q131 95 314 184zM316 137l6 -17l-43 -117l-21 -18l-97 -10q3 63 3 128q0 15 -2 43q-18 -67 -40 -112 q-54 -18 -122 -25l58 152q54 5 101 18q-13 107 -58 217q24 42 56 81t60 61q10 -24 19.5 -103.5t9.5 -141.5q0 -50 -3 -95t-7 -69z" />
<glyph unicode="&#xfed3;&#xfb91;" horiz-adv-x="600" d="M550.5 377q17.5 -38 17.5 -97q0 -49 -19.5 -114.5t-45.5 -100.5q-20 -25 -72.5 -46t-133.5 -30l-39 -4l58 152l62 6q59 7 111 20l-4 34h-50q-38 0 -61 11.5t-23 32.5q0 24 29 66t66 75t60 33q27 0 44.5 -38zM413 565l93 62l14 -23q28 -46 47 -70l-84 -55q-35 27 -70 86z M608 838q-19 -72 -67 -136q-166 -71 -300 -150l-12 13q35 55 65 89q131 95 314 184zM316 137l6 -17l-43 -117l-21 -18l-97 -10q3 63 3 128q0 15 -2 43q-18 -67 -40 -112q-54 -18 -122 -25l58 152q54 5 101 18q-13 107 -58 217q24 42 56 81t60 61q10 -24 19.5 -103.5 t9.5 -141.5q0 -50 -3 -95t-7 -69z" />
<glyph unicode="&#xfed3;&#xfb93;" horiz-adv-x="937" d="M887.5 377q17.5 -38 17.5 -97q0 -49 -19.5 -114.5t-45.5 -100.5q-20 -25 -72.5 -46t-133.5 -30l-39 -4l58 152l62 6q59 7 111 20l-4 34h-50q-38 0 -61 11.5t-23 32.5q0 24 29 66t66 75t60 33q27 0 44.5 -38zM750 528l93 62l14 -23q28 -46 47 -70l-84 -55q-35 27 -70 86z M524 594l-11 22l385 226l10 -34zM937 754q-19 -72 -67 -136q-166 -71 -300 -150l-12 13q35 55 65 89q131 95 314 184zM653 137l6 -17l-43 -117l-21 -18l-43 -5q-15 -45 -32 -65q-43 -39 -120.5 -67t-155.5 -28q-51 0 -100.5 13t-84.5 35t-44 47q9 54 58 136.5t105 131.5 l15 -86q-42 -32 -83 -76q18 -22 66 -35.5t114 -13.5q63 0 118.5 12.5t92.5 31.5q-6 60 -26.5 147t-41.5 149q24 42 56 81t60 61q10 -29 19 -129t10 -196z" />
<glyph unicode="&#xfed4;&#xfb93;" horiz-adv-x="1024" d="M1024 158l-43 -117l-21 -18l-19 -2q-24 -2 -36 -2q-58 0 -106 21q-72 -41 -159 -50l-45 -5l56 152l52 5q-3 14 -3 25q0 26 15 65.5t35.5 76t35.5 50.5q28 28 78 28q44 0 74 -21.5t30 -59.5q0 -70 -39 -138q23 0 52 3l37 4zM769 240q14 -40 64 -59q38 21 64 48 q-33 22 -76 22q-28 0 -52 -11zM785 512l93 62l14 -23q28 -46 47 -70l-84 -55q-35 27 -70 86zM524 594l-11 22l385 226l10 -34zM937 754q-19 -72 -67 -136q-166 -71 -300 -150l-12 13q35 55 65 89q131 95 314 184zM653 137l6 -17l-43 -117l-21 -18l-43 -5q-15 -45 -32 -65 q-43 -39 -120.5 -67t-155.5 -28q-51 0 -100.5 13t-84.5 35t-44 47q9 54 58 136.5t105 131.5l15 -86q-42 -32 -83 -76q18 -22 66 -35.5t114 -13.5q63 0 118.5 12.5t92.5 31.5q-6 60 -26.5 147t-41.5 149q24 42 56 81t60 61q10 -29 19 -129t10 -196z" />
<glyph unicode="&#xfed4;&#xfb95;" horiz-adv-x="687" d="M687 158l-43 -117l-21 -18l-19 -2q-24 -2 -36 -2q-58 0 -106 21q-72 -41 -159 -50l-45 -5l56 152l52 5q-3 14 -3 25q0 26 15 65.5t35.5 76t35.5 50.5q28 28 78 28q44 0 74 -21.5t30 -59.5q0 -70 -39 -138q23 0 52 3l37 4zM432 240q14 -40 64 -59q38 21 64 48 q-33 22 -76 22q-28 0 -52 -11zM448 542l93 62l14 -23q28 -46 47 -70l-84 -55q-35 27 -70 86zM195 678l-11 22l385 226l10 -34zM608 838q-19 -72 -67 -136q-166 -71 -300 -150l-12 13q35 55 65 89q131 95 314 184zM316 137l6 -17l-43 -117l-21 -18l-97 -10q3 63 3 128 q0 15 -2 43q-18 -67 -40 -112q-54 -18 -122 -25l58 152q54 5 101 18q-13 107 -58 217q24 42 56 81t60 61q10 -24 19.5 -103.5t9.5 -141.5q0 -50 -3 -95t-7 -69z" />
<glyph unicode="&#xfed3;&#xfb95;" horiz-adv-x="600" d="M550.5 377q17.5 -38 17.5 -97q0 -49 -19.5 -114.5t-45.5 -100.5q-20 -25 -72.5 -46t-133.5 -30l-39 -4l58 152l62 6q59 7 111 20l-4 34h-50q-38 0 -61 11.5t-23 32.5q0 24 29 66t66 75t60 33q27 0 44.5 -38zM413 565l93 62l14 -23q28 -46 47 -70l-84 -55q-35 27 -70 86z M195 678l-11 22l385 226l10 -34zM608 838q-19 -72 -67 -136q-166 -71 -300 -150l-12 13q35 55 65 89q131 95 314 184zM316 137l6 -17l-43 -117l-21 -18l-97 -10q3 63 3 128q0 15 -2 43q-18 -67 -40 -112q-54 -18 -122 -25l58 152q54 5 101 18q-13 107 -58 217q24 42 56 81 t60 61q10 -24 19.5 -103.5t9.5 -141.5q0 -50 -3 -95t-7 -69z" />
<glyph unicode="&#xfed3;&#xfe8a;" horiz-adv-x="678" d="M652.5 766q17.5 -38 17.5 -97q0 -49 -19.5 -114.5t-45.5 -100.5q-20 -25 -72.5 -46t-133.5 -30l-39 -4l58 152l62 6q59 7 111 20l-4 34h-50q-38 0 -61 11.5t-23 32.5q0 24 29 66t66 75t60 33q27 0 44.5 -38zM515 954l93 62l14 -23q28 -46 47 -70l-84 -55q-35 27 -70 86z M499.5 390q65.5 -21 102.5 -42q-14 -101 -31.5 -156t-43.5 -85q-46 -52 -131.5 -87t-175.5 -35q-77 0 -133 42.5t-62 117.5q34 94 85 174.5t131 154.5l21 -94q-54 -42 -88 -78t-61 -78q26 -40 66.5 -60.5t102.5 -20.5q76 0 143 24.5t111 65.5q-38 20 -100 39.5t-114 26.5 l86 226l10 1l7 -16l-35 -93q44 -6 109.5 -27zM297 603l-55 -60l-142 -38l-12 11l57 47q-32 25 -32 59q0 36 28.5 62.5t72.5 26.5q16 0 35 -4t31 -10l-38 -72q-11 6 -30 11t-36 5q-15 0 -24 -4.5t-9 -11.5q0 -10 21.5 -18.5t47.5 -8.5q43 0 73 15z" />
<glyph unicode="&#xfb6d;&#xfedc;" horiz-adv-x="687" d="M687 158l-43 -117l-21 -18l-19 -2q-24 -2 -36 -2q-58 0 -106 21q-72 -41 -159 -50l-45 -5l56 152l52 5q-3 14 -3 25q0 26 15 65.5t35.5 76t35.5 50.5q28 28 78 28q44 0 74 -21.5t30 -59.5q0 -70 -39 -138q23 0 52 3l37 4zM432 240q14 -40 64 -59q38 21 64 48 q-33 22 -76 22q-28 0 -52 -11zM546 561q25 0 51.5 -6t47.5 -18l-61 -91q-40 20 -76 20q-12 0 -23 -3l-38 -43l-22 12l99 128q7 1 22 1zM608 838q-19 -72 -67 -136q-166 -71 -300 -150l-12 13q35 55 65 89q131 95 314 184zM316 137l6 -17l-43 -117l-21 -18l-97 -10 q3 63 3 128q0 15 -2 43q-18 -67 -40 -112q-54 -18 -122 -25l58 152q54 5 101 18q-13 107 -58 217q24 42 56 81t60 61q10 -24 19.5 -103.5t9.5 -141.5q0 -50 -3 -95t-7 -69z" />
<glyph unicode="&#xfb6c;&#xfedc;" horiz-adv-x="600" d="M550.5 377q17.5 -38 17.5 -97q0 -49 -19.5 -114.5t-45.5 -100.5q-20 -25 -72.5 -46t-133.5 -30l-39 -4l58 152l62 6q59 7 111 20l-4 34h-50q-38 0 -61 11.5t-23 32.5q0 24 29 66t66 75t60 33q27 0 44.5 -38zM511 584q25 0 51.5 -6t47.5 -18l-61 -91q-40 20 -76 20 q-12 0 -23 -3l-38 -43l-22 12l99 128q7 1 22 1zM608 838q-19 -72 -67 -136q-166 -71 -300 -150l-12 13q35 55 65 89q131 95 314 184zM316 137l6 -17l-43 -117l-21 -18l-97 -10q3 63 3 128q0 15 -2 43q-18 -67 -40 -112q-54 -18 -122 -25l58 152q54 5 101 18q-13 107 -58 217 q24 42 56 81t60 61q10 -24 19.5 -103.5t9.5 -141.5q0 -50 -3 -95t-7 -69z" />
<glyph unicode="&#xfb6c;&#xfb8f;" horiz-adv-x="937" d="M887.5 377q17.5 -38 17.5 -97q0 -49 -19.5 -114.5t-45.5 -100.5q-20 -25 -72.5 -46t-133.5 -30l-39 -4l58 152l62 6q59 7 111 20l-4 34h-50q-38 0 -61 11.5t-23 32.5q0 24 29 66t66 75t60 33q27 0 44.5 -38zM848 584q25 0 51.5 -6t47.5 -18l-61 -91q-40 20 -76 20 q-12 0 -23 -3l-38 -43l-22 12l99 128q7 1 22 1zM937 754q-19 -72 -67 -136q-166 -71 -300 -150l-12 13q35 55 65 89q131 95 314 184zM653 137l6 -17l-43 -117l-21 -18l-43 -5q-15 -45 -32 -65q-43 -39 -120.5 -67t-155.5 -28q-51 0 -100.5 13t-84.5 35t-44 47q9 54 58 136.5 t105 131.5l15 -86q-42 -32 -83 -76q18 -22 66 -35.5t114 -13.5q63 0 118.5 12.5t92.5 31.5q-6 60 -26.5 147t-41.5 149q24 42 56 81t60 61q10 -29 19 -129t10 -196z" />
<glyph unicode="&#xfb6d;&#xfb8f;" horiz-adv-x="1024" d="M1024 158l-43 -117l-21 -18l-19 -2q-24 -2 -36 -2q-58 0 -106 21q-72 -41 -159 -50l-45 -5l56 152l52 5q-3 14 -3 25q0 26 15 65.5t35.5 76t35.5 50.5q28 28 78 28q44 0 74 -21.5t30 -59.5q0 -70 -39 -138q23 0 52 3l37 4zM769 240q14 -40 64 -59q38 21 64 48 q-33 22 -76 22q-28 0 -52 -11zM883 561q25 0 51.5 -6t47.5 -18l-61 -91q-40 20 -76 20q-12 0 -23 -3l-38 -43l-22 12l99 128q7 1 22 1zM937 754q-19 -72 -67 -136q-166 -71 -300 -150l-12 13q35 55 65 89q131 95 314 184zM653 137l6 -17l-43 -117l-21 -18l-43 -5 q-15 -45 -32 -65q-43 -39 -120.5 -67t-155.5 -28q-51 0 -100.5 13t-84.5 35t-44 47q9 54 58 136.5t105 131.5l15 -86q-42 -32 -83 -76q18 -22 66 -35.5t114 -13.5q63 0 118.5 12.5t92.5 31.5q-6 60 -26.5 147t-41.5 149q24 42 56 81t60 61q10 -29 19 -129t10 -196z" />
<glyph unicode="&#xfb6d;&#xfb91;" horiz-adv-x="687" d="M687 158l-43 -117l-21 -18l-19 -2q-24 -2 -36 -2q-58 0 -106 21q-72 -41 -159 -50l-45 -5l56 152l52 5q-3 14 -3 25q0 26 15 65.5t35.5 76t35.5 50.5q28 28 78 28q44 0 74 -21.5t30 -59.5q0 -70 -39 -138q23 0 52 3l37 4zM432 240q14 -40 64 -59q38 21 64 48 q-33 22 -76 22q-28 0 -52 -11zM546 561q25 0 51.5 -6t47.5 -18l-61 -91q-40 20 -76 20q-12 0 -23 -3l-38 -43l-22 12l99 128q7 1 22 1zM608 838q-19 -72 -67 -136q-166 -71 -300 -150l-12 13q35 55 65 89q131 95 314 184zM316 137l6 -17l-43 -117l-21 -18l-97 -10 q3 63 3 128q0 15 -2 43q-18 -67 -40 -112q-54 -18 -122 -25l58 152q54 5 101 18q-13 107 -58 217q24 42 56 81t60 61q10 -24 19.5 -103.5t9.5 -141.5q0 -50 -3 -95t-7 -69z" />
<glyph unicode="&#xfb6c;&#xfb91;" horiz-adv-x="600" d="M550.5 377q17.5 -38 17.5 -97q0 -49 -19.5 -114.5t-45.5 -100.5q-20 -25 -72.5 -46t-133.5 -30l-39 -4l58 152l62 6q59 7 111 20l-4 34h-50q-38 0 -61 11.5t-23 32.5q0 24 29 66t66 75t60 33q27 0 44.5 -38zM511 584q25 0 51.5 -6t47.5 -18l-61 -91q-40 20 -76 20 q-12 0 -23 -3l-38 -43l-22 12l99 128q7 1 22 1zM608 838q-19 -72 -67 -136q-166 -71 -300 -150l-12 13q35 55 65 89q131 95 314 184zM316 137l6 -17l-43 -117l-21 -18l-97 -10q3 63 3 128q0 15 -2 43q-18 -67 -40 -112q-54 -18 -122 -25l58 152q54 5 101 18q-13 107 -58 217 q24 42 56 81t60 61q10 -24 19.5 -103.5t9.5 -141.5q0 -50 -3 -95t-7 -69z" />
<glyph unicode="&#xfb6c;&#xfb93;" horiz-adv-x="937" d="M887.5 377q17.5 -38 17.5 -97q0 -49 -19.5 -114.5t-45.5 -100.5q-20 -25 -72.5 -46t-133.5 -30l-39 -4l58 152l62 6q59 7 111 20l-4 34h-50q-38 0 -61 11.5t-23 32.5q0 24 29 66t66 75t60 33q27 0 44.5 -38zM848 584q25 0 51.5 -6t47.5 -18l-61 -91q-40 20 -76 20 q-12 0 -23 -3l-38 -43l-22 12l99 128q7 1 22 1zM524 594l-11 22l385 226l10 -34zM937 754q-19 -72 -67 -136q-166 -71 -300 -150l-12 13q35 55 65 89q131 95 314 184zM653 137l6 -17l-43 -117l-21 -18l-43 -5q-15 -45 -32 -65q-43 -39 -120.5 -67t-155.5 -28 q-51 0 -100.5 13t-84.5 35t-44 47q9 54 58 136.5t105 131.5l15 -86q-42 -32 -83 -76q18 -22 66 -35.5t114 -13.5q63 0 118.5 12.5t92.5 31.5q-6 60 -26.5 147t-41.5 149q24 42 56 81t60 61q10 -29 19 -129t10 -196z" />
<glyph unicode="&#xfb6d;&#xfb93;" horiz-adv-x="1024" d="M1024 158l-43 -117l-21 -18l-19 -2q-24 -2 -36 -2q-58 0 -106 21q-72 -41 -159 -50l-45 -5l56 152l52 5q-3 14 -3 25q0 26 15 65.5t35.5 76t35.5 50.5q28 28 78 28q44 0 74 -21.5t30 -59.5q0 -70 -39 -138q23 0 52 3l37 4zM769 240q14 -40 64 -59q38 21 64 48 q-33 22 -76 22q-28 0 -52 -11zM883 561q25 0 51.5 -6t47.5 -18l-61 -91q-40 20 -76 20q-12 0 -23 -3l-38 -43l-22 12l99 128q7 1 22 1zM524 594l-11 22l385 226l10 -34zM937 754q-19 -72 -67 -136q-166 -71 -300 -150l-12 13q35 55 65 89q131 95 314 184zM653 137l6 -17 l-43 -117l-21 -18l-43 -5q-15 -45 -32 -65q-43 -39 -120.5 -67t-155.5 -28q-51 0 -100.5 13t-84.5 35t-44 47q9 54 58 136.5t105 131.5l15 -86q-42 -32 -83 -76q18 -22 66 -35.5t114 -13.5q63 0 118.5 12.5t92.5 31.5q-6 60 -26.5 147t-41.5 149q24 42 56 81t60 61 q10 -29 19 -129t10 -196z" />
<glyph unicode="&#xfb6d;&#xfb95;" horiz-adv-x="687" d="M687 158l-43 -117l-21 -18l-19 -2q-24 -2 -36 -2q-58 0 -106 21q-72 -41 -159 -50l-45 -5l56 152l52 5q-3 14 -3 25q0 26 15 65.5t35.5 76t35.5 50.5q28 28 78 28q44 0 74 -21.5t30 -59.5q0 -70 -39 -138q23 0 52 3l37 4zM432 240q14 -40 64 -59q38 21 64 48 q-33 22 -76 22q-28 0 -52 -11zM546 561q25 0 51.5 -6t47.5 -18l-61 -91q-40 20 -76 20q-12 0 -23 -3l-38 -43l-22 12l99 128q7 1 22 1zM195 678l-11 22l385 226l10 -34zM608 838q-19 -72 -67 -136q-166 -71 -300 -150l-12 13q35 55 65 89q131 95 314 184zM316 137l6 -17 l-43 -117l-21 -18l-97 -10q3 63 3 128q0 15 -2 43q-18 -67 -40 -112q-54 -18 -122 -25l58 152q54 5 101 18q-13 107 -58 217q24 42 56 81t60 61q10 -24 19.5 -103.5t9.5 -141.5q0 -50 -3 -95t-7 -69z" />
<glyph unicode="&#xfb6c;&#xfb95;" horiz-adv-x="600" d="M550.5 377q17.5 -38 17.5 -97q0 -49 -19.5 -114.5t-45.5 -100.5q-20 -25 -72.5 -46t-133.5 -30l-39 -4l58 152l62 6q59 7 111 20l-4 34h-50q-38 0 -61 11.5t-23 32.5q0 24 29 66t66 75t60 33q27 0 44.5 -38zM511 584q25 0 51.5 -6t47.5 -18l-61 -91q-40 20 -76 20 q-12 0 -23 -3l-38 -43l-22 12l99 128q7 1 22 1zM195 678l-11 22l385 226l10 -34zM608 838q-19 -72 -67 -136q-166 -71 -300 -150l-12 13q35 55 65 89q131 95 314 184zM316 137l6 -17l-43 -117l-21 -18l-97 -10q3 63 3 128q0 15 -2 43q-18 -67 -40 -112q-54 -18 -122 -25 l58 152q54 5 101 18q-13 107 -58 217q24 42 56 81t60 61q10 -24 19.5 -103.5t9.5 -141.5q0 -50 -3 -95t-7 -69z" />
<glyph unicode="&#xfed8;&#xfedc;" horiz-adv-x="687" d="M687 158l-43 -117l-21 -18l-19 -2q-24 -2 -36 -2q-58 0 -106 21q-72 -41 -159 -50l-45 -5l56 152l52 5q-3 14 -3 25q0 26 15 65.5t35.5 76t35.5 50.5q28 28 78 28q44 0 74 -21.5t30 -59.5q0 -70 -39 -138q23 0 52 3l37 4zM432 240q14 -40 64 -59q38 21 64 48 q-33 22 -76 22q-28 0 -52 -11zM453 539l181 49l-20 -103l-178 -39zM608 838q-19 -72 -67 -136q-166 -71 -300 -150l-12 13q35 55 65 89q131 95 314 184zM316 137l6 -17l-43 -117l-21 -18l-97 -10q3 63 3 128q0 15 -2 43q-18 -67 -40 -112q-54 -18 -122 -25l58 152 q54 5 101 18q-13 107 -58 217q24 42 56 81t60 61q10 -24 19.5 -103.5t9.5 -141.5q0 -50 -3 -95t-7 -69z" />
<glyph unicode="&#xfed7;&#xfedc;" horiz-adv-x="600" d="M550.5 377q17.5 -38 17.5 -97q0 -49 -19.5 -114.5t-45.5 -100.5q-20 -25 -72.5 -46t-133.5 -30l-39 -4l58 152l62 6q59 7 111 20l-4 34h-50q-38 0 -61 11.5t-23 32.5q0 24 29 66t66 75t60 33q27 0 44.5 -38zM418 562l181 49l-20 -103l-178 -39zM608 838q-19 -72 -67 -136 q-166 -71 -300 -150l-12 13q35 55 65 89q131 95 314 184zM316 137l6 -17l-43 -117l-21 -18l-97 -10q3 63 3 128q0 15 -2 43q-18 -67 -40 -112q-54 -18 -122 -25l58 152q54 5 101 18q-13 107 -58 217q24 42 56 81t60 61q10 -24 19.5 -103.5t9.5 -141.5q0 -50 -3 -95t-7 -69z " />
<glyph unicode="&#xfed7;&#xfb8f;" horiz-adv-x="937" d="M887.5 377q17.5 -38 17.5 -97q0 -49 -19.5 -114.5t-45.5 -100.5q-20 -25 -72.5 -46t-133.5 -30l-39 -4l58 152l62 6q59 7 111 20l-4 34h-50q-38 0 -61 11.5t-23 32.5q0 24 29 66t66 75t60 33q27 0 44.5 -38zM755 529l181 49l-20 -103l-178 -39zM937 754q-19 -72 -67 -136 q-166 -71 -300 -150l-12 13q35 55 65 89q131 95 314 184zM653 137l6 -17l-43 -117l-21 -18l-43 -5q-15 -45 -32 -65q-43 -39 -120.5 -67t-155.5 -28q-51 0 -100.5 13t-84.5 35t-44 47q9 54 58 136.5t105 131.5l15 -86q-42 -32 -83 -76q18 -22 66 -35.5t114 -13.5 q63 0 118.5 12.5t92.5 31.5q-6 60 -26.5 147t-41.5 149q24 42 56 81t60 61q10 -29 19 -129t10 -196z" />
<glyph unicode="&#xfed8;&#xfb8f;" horiz-adv-x="1024" d="M1024 158l-43 -117l-21 -18l-19 -2q-24 -2 -36 -2q-58 0 -106 21q-72 -41 -159 -50l-45 -5l56 152l52 5q-3 14 -3 25q0 26 15 65.5t35.5 76t35.5 50.5q28 28 78 28q44 0 74 -21.5t30 -59.5q0 -70 -39 -138q23 0 52 3l37 4zM769 240q14 -40 64 -59q38 21 64 48 q-33 22 -76 22q-28 0 -52 -11zM937 754q-19 -72 -67 -136q-166 -71 -300 -150l-12 13q35 55 65 89q131 95 314 184zM653 137l6 -17l-43 -117l-21 -18l-43 -5q-15 -45 -32 -65q-43 -39 -120.5 -67t-155.5 -28q-51 0 -100.5 13t-84.5 35t-44 47q9 54 58 136.5t105 131.5 l15 -86q-42 -32 -83 -76q18 -22 66 -35.5t114 -13.5q63 0 118.5 12.5t92.5 31.5q-6 60 -26.5 147t-41.5 149q24 42 56 81t60 61q10 -29 19 -129t10 -196zM755 529l181 49l-20 -103l-178 -39z" />
<glyph unicode="&#xfed8;&#xfb91;" horiz-adv-x="687" d="M687 158l-43 -117l-21 -18l-19 -2q-24 -2 -36 -2q-58 0 -106 21q-72 -41 -159 -50l-45 -5l56 152l52 5q-3 14 -3 25q0 26 15 65.5t35.5 76t35.5 50.5q28 28 78 28q44 0 74 -21.5t30 -59.5q0 -70 -39 -138q23 0 52 3l37 4zM432 240q14 -40 64 -59q38 21 64 48 q-33 22 -76 22q-28 0 -52 -11zM453 539l181 49l-20 -103l-178 -39zM608 838q-19 -72 -67 -136q-166 -71 -300 -150l-12 13q35 55 65 89q131 95 314 184zM316 137l6 -17l-43 -117l-21 -18l-97 -10q3 63 3 128q0 15 -2 43q-18 -67 -40 -112q-54 -18 -122 -25l58 152 q54 5 101 18q-13 107 -58 217q24 42 56 81t60 61q10 -24 19.5 -103.5t9.5 -141.5q0 -50 -3 -95t-7 -69z" />
<glyph unicode="&#xfed7;&#xfb91;" horiz-adv-x="600" d="M550.5 377q17.5 -38 17.5 -97q0 -49 -19.5 -114.5t-45.5 -100.5q-20 -25 -72.5 -46t-133.5 -30l-39 -4l58 152l62 6q59 7 111 20l-4 34h-50q-38 0 -61 11.5t-23 32.5q0 24 29 66t66 75t60 33q27 0 44.5 -38zM418 562l181 49l-20 -103l-178 -39zM608 838q-19 -72 -67 -136 q-166 -71 -300 -150l-12 13q35 55 65 89q131 95 314 184zM316 137l6 -17l-43 -117l-21 -18l-97 -10q3 63 3 128q0 15 -2 43q-18 -67 -40 -112q-54 -18 -122 -25l58 152q54 5 101 18q-13 107 -58 217q24 42 56 81t60 61q10 -24 19.5 -103.5t9.5 -141.5q0 -50 -3 -95t-7 -69z " />
<glyph unicode="&#xfed7;&#xfb93;" horiz-adv-x="937" d="M887.5 377q17.5 -38 17.5 -97q0 -49 -19.5 -114.5t-45.5 -100.5q-20 -25 -72.5 -46t-133.5 -30l-39 -4l58 152l62 6q59 7 111 20l-4 34h-50q-38 0 -61 11.5t-23 32.5q0 24 29 66t66 75t60 33q27 0 44.5 -38zM524 594l-11 22l385 226l10 -34zM937 754q-19 -72 -67 -136 q-166 -71 -300 -150l-12 13q35 55 65 89q131 95 314 184zM653 137l6 -17l-43 -117l-21 -18l-43 -5q-15 -45 -32 -65q-43 -39 -120.5 -67t-155.5 -28q-51 0 -100.5 13t-84.5 35t-44 47q9 54 58 136.5t105 131.5l15 -86q-42 -32 -83 -76q18 -22 66 -35.5t114 -13.5 q63 0 118.5 12.5t92.5 31.5q-6 60 -26.5 147t-41.5 149q24 42 56 81t60 61q10 -29 19 -129t10 -196zM755 529l181 49l-20 -103l-178 -39z" />
<glyph unicode="&#xfed8;&#xfb93;" horiz-adv-x="1024" d="M1024 158l-43 -117l-21 -18l-19 -2q-24 -2 -36 -2q-58 0 -106 21q-72 -41 -159 -50l-45 -5l56 152l52 5q-3 14 -3 25q0 26 15 65.5t35.5 76t35.5 50.5q28 28 78 28q44 0 74 -21.5t30 -59.5q0 -70 -39 -138q23 0 52 3l37 4zM769 240q14 -40 64 -59q38 21 64 48 q-33 22 -76 22q-28 0 -52 -11zM790 539l181 49l-20 -103l-178 -39zM524 594l-11 22l385 226l10 -34zM937 754q-19 -72 -67 -136q-166 -71 -300 -150l-12 13q35 55 65 89q131 95 314 184zM653 137l6 -17l-43 -117l-21 -18l-43 -5q-15 -45 -32 -65q-43 -39 -120.5 -67 t-155.5 -28q-51 0 -100.5 13t-84.5 35t-44 47q9 54 58 136.5t105 131.5l15 -86q-42 -32 -83 -76q18 -22 66 -35.5t114 -13.5q63 0 118.5 12.5t92.5 31.5q-6 60 -26.5 147t-41.5 149q24 42 56 81t60 61q10 -29 19 -129t10 -196z" />
<glyph unicode="&#xfed8;&#xfb95;" horiz-adv-x="687" d="M687 158l-43 -117l-21 -18l-19 -2q-24 -2 -36 -2q-58 0 -106 21q-72 -41 -159 -50l-45 -5l56 152l52 5q-3 14 -3 25q0 26 15 65.5t35.5 76t35.5 50.5q28 28 78 28q44 0 74 -21.5t30 -59.5q0 -70 -39 -138q23 0 52 3l37 4zM432 240q14 -40 64 -59q38 21 64 48 q-33 22 -76 22q-28 0 -52 -11zM453 539l181 49l-20 -103l-178 -39zM195 678l-11 22l385 226l10 -34zM608 838q-19 -72 -67 -136q-166 -71 -300 -150l-12 13q35 55 65 89q131 95 314 184zM316 137l6 -17l-43 -117l-21 -18l-97 -10q3 63 3 128q0 15 -2 43q-18 -67 -40 -112 q-54 -18 -122 -25l58 152q54 5 101 18q-13 107 -58 217q24 42 56 81t60 61q10 -24 19.5 -103.5t9.5 -141.5q0 -50 -3 -95t-7 -69z" />
<glyph unicode="&#xfed7;&#xfb95;" horiz-adv-x="600" d="M550.5 377q17.5 -38 17.5 -97q0 -49 -19.5 -114.5t-45.5 -100.5q-20 -25 -72.5 -46t-133.5 -30l-39 -4l58 152l62 6q59 7 111 20l-4 34h-50q-38 0 -61 11.5t-23 32.5q0 24 29 66t66 75t60 33q27 0 44.5 -38zM418 562l181 49l-20 -103l-178 -39zM195 678l-11 22l385 226 l10 -34zM608 838q-19 -72 -67 -136q-166 -71 -300 -150l-12 13q35 55 65 89q131 95 314 184zM316 137l6 -17l-43 -117l-21 -18l-97 -10q3 63 3 128q0 15 -2 43q-18 -67 -40 -112q-54 -18 -122 -25l58 152q54 5 101 18q-13 107 -58 217q24 42 56 81t60 61q10 -24 19.5 -103.5 t9.5 -141.5q0 -50 -3 -95t-7 -69z" />
<glyph unicode="&#xfed7;&#xfe8a;" horiz-adv-x="679" d="M652.5 766q17.5 -38 17.5 -97q0 -49 -19.5 -114.5t-45.5 -100.5q-20 -25 -72.5 -46t-133.5 -30l-39 -4l58 152l62 6q59 7 111 20l-4 34h-50q-38 0 -61 11.5t-23 32.5q0 24 29 66t66 75t60 33q27 0 44.5 -38zM538 931l181 49l-20 -103l-178 -39zM499.5 390 q65.5 -21 102.5 -42q-14 -101 -31.5 -156t-43.5 -85q-46 -52 -131.5 -87t-175.5 -35q-77 0 -133 42.5t-62 117.5q34 94 85 174.5t131 154.5l21 -94q-54 -42 -88 -78t-61 -78q26 -40 66.5 -60.5t102.5 -20.5q76 0 143 24.5t111 65.5q-38 20 -100 39.5t-114 26.5l86 226l10 1 l7 -16l-35 -93q44 -6 109.5 -27zM297 603l-55 -60l-142 -38l-12 11l57 47q-32 25 -32 59q0 36 28.5 62.5t72.5 26.5q16 0 35 -4t31 -10l-38 -72q-11 6 -30 11t-36 5q-15 0 -24 -4.5t-9 -11.5q0 -10 21.5 -18.5t47.5 -8.5q43 0 73 15z" />
<glyph unicode="&#xfedb;&#xfe8a;" horiz-adv-x="685" d="M915 1046q-19 -72 -67 -136q-166 -71 -300 -150l-12 13q35 55 65 89q131 95 314 184zM445 360q111 -16 186 -21q-14 -101 -30.5 -150.5t-44.5 -81.5q-46 -52 -134.5 -87t-181.5 -35q-85 0 -147 42.5t-68 117.5q41 105 106 199t154 166l21 -94q-121 -86 -190 -189 q57 -84 186 -84q69 0 131 19t107 51q-45 2 -110 10.5t-118 17.5l61 131q33 -6 41 -7q-2 72 -8 131.5t-19 132.5q29 35 63.5 66t64.5 45q4 -30 4 -87q0 -40 -7 -105.5t-11 -82.5zM321 628l-55 -60l-142 -38l-12 11l57 47q-32 25 -32 59q0 36 28.5 62.5t72.5 26.5q16 0 35 -4 t31 -10l-38 -72q-11 6 -30 11t-36 5q-15 0 -24 -4.5t-9 -11.5q0 -10 21.5 -18.5t47.5 -8.5q43 0 73 15z" />
<glyph unicode="&#xfee0;&#xfedc;" horiz-adv-x="580" d="M580 142l-43 -117l-21 -18l-96 -10q2 42 2 128q0 24 -1 36q-17 -63 -41 -115q-54 -18 -122 -25l58 152q57 5 103 19q-6 69 -22.5 137t-37.5 118q24 42 56 81t60 61q10 -24 19.5 -103.5t9.5 -141.5q0 -59 -3 -112.5t-7 -80.5l80 8zM608 874q-19 -72 -67 -136 q-166 -71 -300 -150l-12 13q35 55 65 89q131 95 314 184zM316 173l6 -17l-43 -117l-21 -18l-97 -10q3 63 3 128q0 15 -2 43q-18 -67 -40 -112q-54 -18 -122 -25l58 152q54 5 101 18q-13 107 -58 217q24 42 56 81t60 61q10 -24 19.5 -103.5t9.5 -141.5q0 -50 -3 -95t-7 -69z " />
<glyph unicode="&#xfedf;&#xfedc;" horiz-adv-x="586" d="M537 470.5q9 -105.5 9 -201.5q0 -21 -7 -61.5t-20.5 -80.5t-32.5 -60q-35 -31 -94 -52.5t-134 -29.5l58 152q38 4 79.5 13.5t72.5 21.5q-6 59 -26 144t-41 148q24 42 56 81t60 61q11 -30 20 -135.5zM608 838q-19 -72 -67 -136q-166 -71 -300 -150l-12 13q35 55 65 89 q131 95 314 184zM316 137l6 -17l-43 -117l-21 -18l-97 -10q3 63 3 128q0 15 -2 43q-18 -67 -40 -112q-54 -18 -122 -25l58 152q54 5 101 18q-13 107 -58 217q24 42 56 81t60 61q10 -24 19.5 -103.5t9.5 -141.5q0 -50 -3 -95t-7 -69z" />
<glyph unicode="&#xfedf;&#xfb8f;" horiz-adv-x="923" d="M570 468l-12 13q35 55 65 89q131 95 314 184q-19 -72 -67 -136q-166 -71 -300 -150zM794 525q32 39 60 61q10 -30 19.5 -132t9.5 -185q0 -21 -7 -61.5t-20.5 -80.5t-32.5 -60q-35 -31 -94 -52.5t-134 -29.5l-43 -5q-15 -45 -32 -65q-43 -39 -120.5 -67t-155.5 -28 q-51 0 -100.5 13t-84.5 35t-44 47q9 54 58 136.5t105 131.5l15 -86q-42 -32 -83 -76q18 -22 66 -35.5t114 -13.5q63 0 118.5 12.5t92.5 31.5q-6 60 -26.5 147t-41.5 149q24 42 56 81t60 61q10 -29 19 -129t10 -196l75 8q38 4 79.5 13.5t72.5 21.5q-9 99 -67 272q24 42 56 81 z" />
<glyph unicode="&#xfee0;&#xfb8f;" horiz-adv-x="917" d="M917 142l-43 -117l-21 -18l-96 -10q2 42 2 128q0 24 -1 36q-17 -63 -41 -115q-54 -18 -122 -25l58 152q57 5 103 19q-6 69 -22.5 137t-37.5 118q24 42 56 81t60 61q10 -24 19.5 -103.5t9.5 -141.5q0 -59 -3 -112.5t-7 -80.5l80 8zM937 790q-19 -72 -67 -136 q-166 -71 -300 -150l-12 13q35 55 65 89q131 95 314 184zM653 173l6 -17l-43 -117l-21 -18l-43 -5q-15 -45 -32 -65q-43 -39 -120.5 -67t-155.5 -28q-51 0 -100.5 13t-84.5 35t-44 47q9 54 58 136.5t105 131.5l15 -86q-42 -32 -83 -76q18 -22 66 -35.5t114 -13.5 q63 0 118.5 12.5t92.5 31.5q-6 60 -26.5 147t-41.5 149q24 42 56 81t60 61q10 -29 19 -129t10 -196z" />
<glyph unicode="&#xfee0;&#xfb91;" horiz-adv-x="580" d="M580 142l-43 -117l-21 -18l-96 -10q2 42 2 128q0 24 -1 36q-17 -63 -41 -115q-54 -18 -122 -25l58 152q57 5 103 19q-6 69 -22.5 137t-37.5 118q24 42 56 81t60 61q10 -24 19.5 -103.5t9.5 -141.5q0 -59 -3 -112.5t-7 -80.5l80 8zM608 874q-19 -72 -67 -136 q-166 -71 -300 -150l-12 13q35 55 65 89q131 95 314 184zM316 173l6 -17l-43 -117l-21 -18l-97 -10q3 63 3 128q0 15 -2 43q-18 -67 -40 -112q-54 -18 -122 -25l58 152q54 5 101 18q-13 107 -58 217q24 42 56 81t60 61q10 -24 19.5 -103.5t9.5 -141.5q0 -50 -3 -95t-7 -69z " />
<glyph unicode="&#xfedf;&#xfb91;" horiz-adv-x="586" d="M537 470.5q9 -105.5 9 -201.5q0 -21 -7 -61.5t-20.5 -80.5t-32.5 -60q-35 -31 -94 -52.5t-134 -29.5l58 152q38 4 79.5 13.5t72.5 21.5q-6 59 -26 144t-41 148q24 42 56 81t60 61q11 -30 20 -135.5zM608 838q-19 -72 -67 -136q-166 -71 -300 -150l-12 13q35 55 65 89 q131 95 314 184zM316 137l6 -17l-43 -117l-21 -18l-97 -10q3 63 3 128q0 15 -2 43q-18 -67 -40 -112q-54 -18 -122 -25l58 152q54 5 101 18q-13 107 -58 217q24 42 56 81t60 61q10 -24 19.5 -103.5t9.5 -141.5q0 -50 -3 -95t-7 -69z" />
<glyph unicode="&#xfedf;&#xfb93;" horiz-adv-x="922" d="M540 598l-11 22l385 226l10 -34zM622 570q131 95 314 184q-19 -72 -67 -136q-166 -71 -300 -150l-12 13q35 55 65 89zM793 525q32 39 60 61q10 -30 19.5 -132t9.5 -185q0 -21 -7 -61.5t-20.5 -80.5t-32.5 -60q-35 -31 -94 -52.5t-134 -29.5l-43 -5q-15 -45 -32 -65 q-43 -39 -120.5 -67t-155.5 -28q-51 0 -100.5 13t-84.5 35t-44 47q9 54 58 136.5t105 131.5l15 -86q-42 -32 -83 -76q18 -22 66 -35.5t114 -13.5q63 0 118.5 12.5t92.5 31.5q-6 60 -26.5 147t-41.5 149q24 42 56 81t60 61q10 -29 19 -129t10 -196l75 8q38 4 79.5 13.5 t72.5 21.5q-9 99 -67 272q24 42 56 81z" />
<glyph unicode="&#xfee0;&#xfb93;" horiz-adv-x="917" d="M540 625l-11 22l385 226l10 -34zM623 606q131 95 314 184q-19 -72 -67 -136q-166 -71 -300 -150l-12 13q35 55 65 89zM911 159l6 -17l-43 -117l-21 -18l-96 -10q2 42 2 128q0 24 -1 36q-17 -63 -41 -115q-54 -18 -122 -25l-43 -5q-15 -45 -32 -65q-43 -39 -120.5 -67 t-155.5 -28q-51 0 -100.5 13t-84.5 35t-44 47q9 54 58 136.5t105 131.5l15 -86q-42 -32 -83 -76q18 -22 66 -35.5t114 -13.5q63 0 118.5 12.5t92.5 31.5q-6 60 -26.5 147t-41.5 149q24 42 56 81t60 61q10 -29 19 -129t10 -196l75 8q57 5 103 19q-6 69 -22.5 137t-37.5 118 q24 42 56 81t60 61q10 -24 19.5 -103.5t9.5 -141.5q0 -59 -3 -112.5t-7 -80.5z" />
<glyph unicode="&#xfee0;&#xfb95;" horiz-adv-x="580" d="M580 142l-43 -117l-21 -18l-96 -10q2 42 2 128q0 24 -1 36q-17 -63 -41 -115q-54 -18 -122 -25l58 152q57 5 103 19q-6 69 -22.5 137t-37.5 118q24 42 56 81t60 61q10 -24 19.5 -103.5t9.5 -141.5q0 -59 -3 -112.5t-7 -80.5l80 8zM195 714l-11 22l385 226l10 -34z M608 874q-19 -72 -67 -136q-166 -71 -300 -150l-12 13q35 55 65 89q131 95 314 184zM316 173l6 -17l-43 -117l-21 -18l-97 -10q3 63 3 128q0 15 -2 43q-18 -67 -40 -112q-54 -18 -122 -25l58 152q54 5 101 18q-13 107 -58 217q24 42 56 81t60 61q10 -24 19.5 -103.5 t9.5 -141.5q0 -50 -3 -95t-7 -69z" />
<glyph unicode="&#xfedf;&#xfb95;" horiz-adv-x="586" d="M537 470.5q9 -105.5 9 -201.5q0 -21 -7 -61.5t-20.5 -80.5t-32.5 -60q-35 -31 -94 -52.5t-134 -29.5l58 152q38 4 79.5 13.5t72.5 21.5q-6 59 -26 144t-41 148q24 42 56 81t60 61q11 -30 20 -135.5zM195 678l-11 22l385 226l10 -34zM608 838q-19 -72 -67 -136 q-166 -71 -300 -150l-12 13q35 55 65 89q131 95 314 184zM316 137l6 -17l-43 -117l-21 -18l-97 -10q3 63 3 128q0 15 -2 43q-18 -67 -40 -112q-54 -18 -122 -25l58 152q54 5 101 18q-13 107 -58 217q24 42 56 81t60 61q10 -24 19.5 -103.5t9.5 -141.5q0 -50 -3 -95t-7 -69z " />
<glyph unicode="&#xfee8;&#xfedc;" horiz-adv-x="551" d="M551 144l-43 -117l-21 -18l-110 -11l12 41q-34 -44 -131 -54l58 152q70 7 112 29l22 73l32 -3l-18 -83l81 8zM377 423l93 62l14 -23q28 -46 47 -70l-84 -55q-35 27 -70 86zM608 838q-19 -72 -67 -136q-166 -71 -300 -150l-12 13q35 55 65 89q131 95 314 184zM316 137 l6 -17l-43 -117l-21 -18l-97 -10q3 63 3 128q0 15 -2 43q-18 -67 -40 -112q-54 -18 -122 -25l58 152q54 5 101 18q-13 107 -58 217q24 42 56 81t60 61q10 -24 19.5 -103.5t9.5 -141.5q0 -50 -3 -95t-7 -69z" />
<glyph unicode="&#xfee7;&#xfedc;" horiz-adv-x="489" d="M451 245q-14 -133 -65 -237q-46 -14 -128 -23l58 152q50 6 81 15q14 55 22 94zM322 415l93 62l14 -23q28 -46 47 -70l-84 -55q-35 27 -70 86zM608 838q-19 -72 -67 -136q-166 -71 -300 -150l-12 13q35 55 65 89q131 95 314 184zM316 137l6 -17l-43 -117l-21 -18l-97 -10 q3 63 3 128q0 15 -2 43q-18 -67 -40 -112q-54 -18 -122 -25l58 152q54 5 101 18q-13 107 -58 217q24 42 56 81t60 61q10 -24 19.5 -103.5t9.5 -141.5q0 -50 -3 -95t-7 -69z" />
<glyph unicode="&#xfee7;&#xfb8f;" horiz-adv-x="826" d="M788 245q-14 -133 -65 -237q-46 -14 -128 -23l58 152q50 6 81 15q14 55 22 94zM659 415l93 62l14 -23q28 -46 47 -70l-84 -55q-35 27 -70 86zM937 754q-19 -72 -67 -136q-166 -71 -300 -150l-12 13q35 55 65 89q131 95 314 184zM653 137l6 -17l-43 -117l-21 -18l-43 -5 q-15 -45 -32 -65q-43 -39 -120.5 -67t-155.5 -28q-51 0 -100.5 13t-84.5 35t-44 47q9 54 58 136.5t105 131.5l15 -86q-42 -32 -83 -76q18 -22 66 -35.5t114 -13.5q63 0 118.5 12.5t92.5 31.5q-6 60 -26.5 147t-41.5 149q24 42 56 81t60 61q10 -29 19 -129t10 -196z" />
<glyph unicode="&#xfee8;&#xfb8f;" horiz-adv-x="888" d="M888 144l-43 -117l-21 -18l-110 -11l12 41q-34 -44 -131 -54l58 152q70 7 112 29l22 73l32 -3l-18 -83l81 8zM714 423l93 62l14 -23q28 -46 47 -70l-84 -55q-35 27 -70 86zM937 754q-19 -72 -67 -136q-166 -71 -300 -150l-12 13q35 55 65 89q131 95 314 184zM653 137 l6 -17l-43 -117l-21 -18l-43 -5q-15 -45 -32 -65q-43 -39 -120.5 -67t-155.5 -28q-51 0 -100.5 13t-84.5 35t-44 47q9 54 58 136.5t105 131.5l15 -86q-42 -32 -83 -76q18 -22 66 -35.5t114 -13.5q63 0 118.5 12.5t92.5 31.5q-6 60 -26.5 147t-41.5 149q24 42 56 81t60 61 q10 -29 19 -129t10 -196z" />
<glyph unicode="&#xfee8;&#xfb91;" horiz-adv-x="551" d="M551 144l-43 -117l-21 -18l-110 -11l12 41q-34 -44 -131 -54l58 152q70 7 112 29l22 73l32 -3l-18 -83l81 8zM377 423l93 62l14 -23q28 -46 47 -70l-84 -55q-35 27 -70 86zM608 838q-19 -72 -67 -136q-166 -71 -300 -150l-12 13q35 55 65 89q131 95 314 184zM316 137 l6 -17l-43 -117l-21 -18l-97 -10q3 63 3 128q0 15 -2 43q-18 -67 -40 -112q-54 -18 -122 -25l58 152q54 5 101 18q-13 107 -58 217q24 42 56 81t60 61q10 -24 19.5 -103.5t9.5 -141.5q0 -50 -3 -95t-7 -69z" />
<glyph unicode="&#xfee7;&#xfb91;" horiz-adv-x="489" d="M451 245q-14 -133 -65 -237q-46 -14 -128 -23l58 152q50 6 81 15q14 55 22 94zM322 415l93 62l14 -23q28 -46 47 -70l-84 -55q-35 27 -70 86zM608 838q-19 -72 -67 -136q-166 -71 -300 -150l-12 13q35 55 65 89q131 95 314 184zM316 137l6 -17l-43 -117l-21 -18l-97 -10 q3 63 3 128q0 15 -2 43q-18 -67 -40 -112q-54 -18 -122 -25l58 152q54 5 101 18q-13 107 -58 217q24 42 56 81t60 61q10 -24 19.5 -103.5t9.5 -141.5q0 -50 -3 -95t-7 -69z" />
<glyph unicode="&#xfee7;&#xfb93;" horiz-adv-x="826" d="M788 245q-14 -133 -65 -237q-46 -14 -128 -23l58 152q50 6 81 15q14 55 22 94zM659 415l93 62l14 -23q28 -46 47 -70l-84 -55q-35 27 -70 86zM524 594l-11 22l385 226l10 -34zM937 754q-19 -72 -67 -136q-166 -71 -300 -150l-12 13q35 55 65 89q131 95 314 184zM653 137 l6 -17l-43 -117l-21 -18l-43 -5q-15 -45 -32 -65q-43 -39 -120.5 -67t-155.5 -28q-51 0 -100.5 13t-84.5 35t-44 47q9 54 58 136.5t105 131.5l15 -86q-42 -32 -83 -76q18 -22 66 -35.5t114 -13.5q63 0 118.5 12.5t92.5 31.5q-6 60 -26.5 147t-41.5 149q24 42 56 81t60 61 q10 -29 19 -129t10 -196z" />
<glyph unicode="&#xfee8;&#xfb93;" horiz-adv-x="888" d="M888 144l-43 -117l-21 -18l-110 -11l12 41q-34 -44 -131 -54l58 152q70 7 112 29l22 73l32 -3l-18 -83l81 8zM714 423l93 62l14 -23q28 -46 47 -70l-84 -55q-35 27 -70 86zM524 594l-11 22l385 226l10 -34zM937 754q-19 -72 -67 -136q-166 -71 -300 -150l-12 13 q35 55 65 89q131 95 314 184zM653 137l6 -17l-43 -117l-21 -18l-43 -5q-15 -45 -32 -65q-43 -39 -120.5 -67t-155.5 -28q-51 0 -100.5 13t-84.5 35t-44 47q9 54 58 136.5t105 131.5l15 -86q-42 -32 -83 -76q18 -22 66 -35.5t114 -13.5q63 0 118.5 12.5t92.5 31.5 q-6 60 -26.5 147t-41.5 149q24 42 56 81t60 61q10 -29 19 -129t10 -196z" />
<glyph unicode="&#xfee8;&#xfb95;" horiz-adv-x="551" d="M551 144l-43 -117l-21 -18l-110 -11l12 41q-34 -44 -131 -54l58 152q70 7 112 29l22 73l32 -3l-18 -83l81 8zM377 423l93 62l14 -23q28 -46 47 -70l-84 -55q-35 27 -70 86zM195 678l-11 22l385 226l10 -34zM608 838q-19 -72 -67 -136q-166 -71 -300 -150l-12 13 q35 55 65 89q131 95 314 184zM316 137l6 -17l-43 -117l-21 -18l-97 -10q3 63 3 128q0 15 -2 43q-18 -67 -40 -112q-54 -18 -122 -25l58 152q54 5 101 18q-13 107 -58 217q24 42 56 81t60 61q10 -24 19.5 -103.5t9.5 -141.5q0 -50 -3 -95t-7 -69z" />
<glyph unicode="&#xfee7;&#xfb95;" horiz-adv-x="489" d="M451 245q-14 -133 -65 -237q-46 -14 -128 -23l58 152q50 6 81 15q14 55 22 94zM322 415l93 62l14 -23q28 -46 47 -70l-84 -55q-35 27 -70 86zM195 678l-11 22l385 226l10 -34zM608 838q-19 -72 -67 -136q-166 -71 -300 -150l-12 13q35 55 65 89q131 95 314 184zM316 137 l6 -17l-43 -117l-21 -18l-97 -10q3 63 3 128q0 15 -2 43q-18 -67 -40 -112q-54 -18 -122 -25l58 152q54 5 101 18q-13 107 -58 217q24 42 56 81t60 61q10 -24 19.5 -103.5t9.5 -141.5q0 -50 -3 -95t-7 -69z" />
<glyph unicode="&#xfee7;&#xfe8a;" horiz-adv-x="619" d="M601 339q-14 -101 -31 -151.5t-44 -80.5q-45 -51 -129.5 -86.5t-166.5 -35.5q-87 0 -142 41t-63 119q34 94 88 179t128 150l21 -94q-94 -71 -149 -156q26 -42 66.5 -61.5t105.5 -19.5q63 0 122 18.5t103 51.5q-83 4 -218 28l61 131l119 13q-44 64 -117 125l109 117 q31 -24 54.5 -65.5t23.5 -72.5q0 -26 -12 -65t-31 -75q45 -6 102 -10zM307 581l-55 -60l-142 -38l-12 11l57 47q-32 25 -32 59q0 36 28.5 62.5t72.5 26.5q16 0 35 -4t31 -10l-38 -72q-11 6 -30 11t-36 5q-15 0 -24 -4.5t-9 -11.5q0 -10 21.5 -18.5t47.5 -8.5q43 0 73 15z M372 724l93 62l14 -23q28 -46 47 -70l-84 -55q-35 27 -70 86z" />
<glyph unicode="&#xfeeb;&#xfedc;" horiz-adv-x="850" d="M734 571.5q43 -41.5 64.5 -104t21.5 -125.5q0 -73 -17.5 -126t-42.5 -96q-22 -22 -65.5 -45.5t-92 -39t-83.5 -15.5q-29 0 -59 10q-78 -32 -202 -45l58 152l56 6q-2 12 -2 19q14 91 63 166t115 102q33 -12 57.5 -55t24.5 -93q0 -51 -27 -105q81 12 129 29q-2 74 -32 142 t-77 110t-97 42q-27 0 -57 -15.5t-72 -54.5l-17 13q32 50 76.5 89t90.5 60t83 21q61 0 104 -41.5zM493 313l8 3zM434 256q3 -27 28 -51t60 -31q6 20 6 37q0 32 -17.5 57t-41.5 31q-29 -24 -35 -43zM608 838q-19 -72 -67 -136q-166 -71 -300 -150l-12 13q35 55 65 89 q131 95 314 184zM316 137l6 -17l-43 -117l-21 -18l-97 -10q3 63 3 128q0 15 -2 43q-18 -67 -40 -112q-54 -18 -122 -25l58 152q54 5 101 18q-13 107 -58 217q24 42 56 81t60 61q10 -24 19.5 -103.5t9.5 -141.5q0 -50 -3 -95t-7 -69z" />
<glyph unicode="&#xfe8b;&#xfedc;" horiz-adv-x="489" d="M451 245q-14 -133 -65 -237q-46 -14 -128 -23l58 152q50 6 81 15q14 55 22 94zM522 412l-55 -60l-142 -38l-12 11l57 47q-32 25 -32 59q0 36 28.5 62.5t72.5 26.5q16 0 35 -4t31 -10l-38 -72q-11 6 -30 11t-36 5q-15 0 -24 -4.5t-9 -11.5q0 -10 21.5 -18.5t47.5 -8.5 q43 0 73 15zM608 838q-19 -72 -67 -136q-166 -71 -300 -150l-12 13q35 55 65 89q131 95 314 184zM316 137l6 -17l-43 -117l-21 -18l-97 -10q3 63 3 128q0 15 -2 43q-18 -67 -40 -112q-54 -18 -122 -25l58 152q54 5 101 18q-13 107 -58 217q24 42 56 81t60 61 q10 -24 19.5 -103.5t9.5 -141.5q0 -50 -3 -95t-7 -69z" />
<glyph unicode="&#xfe8b;&#xfe8a;" horiz-adv-x="619" d="M601 339q-14 -101 -31 -151.5t-44 -80.5q-45 -51 -129.5 -86.5t-166.5 -35.5q-87 0 -142 41t-63 119q34 94 88 179t128 150l21 -94q-94 -71 -149 -156q26 -42 66.5 -61.5t105.5 -19.5q63 0 122 18.5t103 51.5q-83 4 -218 28l61 131l119 13q-44 64 -117 125l109 117 q31 -24 54.5 -65.5t23.5 -72.5q0 -26 -12 -65t-31 -75q45 -6 102 -10zM307 581l-55 -60l-142 -38l-12 11l57 47q-32 25 -32 59q0 36 28.5 62.5t72.5 26.5q16 0 35 -4t31 -10l-38 -72q-11 6 -30 11t-36 5q-15 0 -24 -4.5t-9 -11.5q0 -10 21.5 -18.5t47.5 -8.5q43 0 73 15z M579 749l-55 -60l-142 -38l-12 11l57 47q-32 25 -32 59q0 36 28.5 62.5t72.5 26.5q16 0 35 -4t31 -10l-38 -72q-11 6 -30 11t-36 5q-15 0 -24 -4.5t-9 -11.5q0 -10 21.5 -18.5t47.5 -8.5q43 0 73 15z" />
<glyph unicode="&#x66e;" horiz-adv-x="231" d="M193 245q-14 -133 -65 -237q-46 -14 -128 -23l58 152q50 6 81 15q14 55 22 94z" />
<glyph unicode="&#x66e;" horiz-adv-x="288" d="M288 144l-43 -117l-21 -18l-110 -11l12 41q-34 -44 -131 -54l58 152q70 7 112 29l22 73l32 -3l-18 -83l81 8z" />
<glyph unicode="&#x66e;" horiz-adv-x="761" d="M758 180l-43 -117l-21 -18l-97 -10l21 58l1 3q-97 -48 -216 -79.5t-204 -31.5q-102 0 -174 46q0 45 12 89.5t35 82.5q25 42 69 84.5t90 70.5l18 -85q-73 -38 -138 -97q47 -24 119 -24q80 0 213 28.5t233 67.5l21 -13l-14 -45l69 7z" />
<glyph unicode="&#x66f;" horiz-adv-x="591" d="M591 379l-43 -117l-21 -18l-24 -3q-12 -67 -39 -117q-35 -60 -109.5 -99.5t-151.5 -39.5q-79 0 -131 40.5t-57 104.5q19 69 54.5 129.5t96.5 130.5l25 -84q-26 -22 -53.5 -50t-45.5 -51q54 -68 163 -68q48 0 94.5 14t80.5 38l-6 49h-47q-39 0 -61.5 11.5t-22.5 32.5 q0 27 27.5 69t64.5 73.5t61 31.5q18 0 33 -18.5t23 -50.5l83 9z" />
<glyph unicode="&#x6a1;" horiz-adv-x="342" d="M292.5 377q17.5 -38 17.5 -97q0 -49 -19.5 -114.5t-45.5 -100.5q-20 -25 -72.5 -46t-133.5 -30l-39 -4l58 152l62 6q59 7 111 20l-4 34h-50q-38 0 -61 11.5t-23 32.5q0 24 29 66t66 75t60 33q27 0 44.5 -38z" />
<glyph unicode="&#x6a1;" horiz-adv-x="429" d="M429 158l-43 -117l-21 -18l-19 -2q-24 -2 -36 -2q-58 0 -106 21q-72 -41 -159 -50l-45 -5l56 152l52 5q-3 14 -3 25q0 26 15 65.5t35.5 76t35.5 50.5q28 28 78 28q44 0 74 -21.5t30 -59.5q0 -70 -39 -138q23 0 52 3l37 4zM174 240q14 -40 64 -59q38 21 64 48 q-33 22 -76 22q-28 0 -52 -11z" />
<glyph unicode="&#x6a1;" horiz-adv-x="766" d="M766 167l-43 -117l-21 -18l-19 -2q-26 -2 -37 -2q-63 0 -110 22q-122 -65 -284 -65q-120 0 -188.5 43.5t-68.5 120.5q24 67 63.5 125.5t105.5 123.5l19 -86q-50 -36 -99 -86q25 -46 80 -67.5t150 -21.5q65 0 131 12q-3 12 -3 24q0 26 15 65.5t35.5 76t35.5 50.5 q28 28 78 28q44 0 74 -21.5t30 -59.5q0 -72 -37 -135q23 0 50 3l37 4zM571 191q36 17 67 45q-34 21 -75 21q-28 0 -52 -11q14 -38 60 -55z" />
<glyph unicode="&#x6c2;" horiz-adv-x="451" d="M451 172l-43 -117l-21 -17l-123 -13l6 140q-43 5 -59 5q-105 0 -142 -107l-11 -27l-38 -4l41 110q29 80 83 125t122 45q58 0 106 -16l-6 -115l79 8zM429 486l-55 -60l-142 -38l-12 11l57 47q-32 25 -32 59q0 36 28.5 62.5t72.5 26.5q16 0 35 -4t31 -10l-38 -72 q-11 6 -30 11t-36 5q-15 0 -24 -4.5t-9 -11.5q0 -10 21.5 -18.5t47.5 -8.5q43 0 73 15z" />
<glyph unicode="&#x6c3;" horiz-adv-x="451" d="M451 172l-43 -117l-21 -17l-123 -13l6 140q-43 5 -59 5q-105 0 -142 -107l-11 -27l-38 -4l41 110q29 80 83 125t122 45q58 0 106 -16l-6 -115l79 8zM234 486l181 49l-20 -103l-178 -39z" />
<glyph unicode="&#x671;" horiz-adv-x="228" arabic-form="final" d="M228 142l-43 -117l-21 -18l-96 -10q-1 98 -9.5 239.5t-18.5 251.5q28 34 63 65t63 46q5 -20 5 -63q1 -77 -10 -206.5t-20 -179.5l81 9zM170 783.5q22 -13.5 34 -33.5q-8 -53 -50 -92t-104 -39q-42 0 -68 -2q7 28 23 45.5t37 22.5q-2 10 -2 17q0 39 23.5 67t58.5 28 q26 0 48 -13.5zM70.5 716q-10.5 -4 -10.5 -12q0 -10 4 -18q67 3 96 12q-30 22 -62 22q-17 0 -27.5 -4z" />
<glyph unicode="&#x67e;" horiz-adv-x="761" arabic-form="final" d="M758 180l-43 -117l-21 -18l-97 -10l21 58l1 3q-97 -48 -216 -79.5t-204 -31.5q-102 0 -174 46q0 45 12 89.5t35 82.5q25 42 69 84.5t90 70.5l18 -85q-73 -38 -138 -97q47 -24 119 -24q80 0 213 28.5t233 67.5l21 -13l-14 -45l69 7zM365 -85q25 0 51.5 -6t47.5 -18 l-61 -91q-40 20 -76 20q-12 0 -23 -3l-38 -43l-22 12l99 128q7 1 22 1z" />
<glyph unicode="&#x67e;" horiz-adv-x="231" arabic-form="initial" d="M193 245q-14 -133 -65 -237q-46 -14 -128 -23l58 152q50 6 81 15q14 55 22 94zM91 -85q25 0 51.5 -6t47.5 -18l-61 -91q-40 20 -76 20q-12 0 -23 -3l-38 -43l-22 12l99 128q7 1 22 1z" />
<glyph unicode="&#x67e;" horiz-adv-x="288" arabic-form="medial" d="M288 144l-43 -117l-21 -18l-110 -11l12 41q-34 -44 -131 -54l58 152q70 7 112 29l22 73l32 -3l-18 -83l81 8zM122 -83q25 0 51.5 -6t47.5 -18l-61 -91q-40 20 -76 20q-12 0 -23 -3l-38 -43l-22 12l99 128q7 1 22 1z" />
<glyph unicode="&#x679;" horiz-adv-x="761" arabic-form="final" d="M758 180l-43 -117l-21 -18l-97 -10l21 58l1 3q-97 -48 -216 -79.5t-204 -31.5q-102 0 -174 46q0 45 12 89.5t35 82.5q25 42 69 84.5t90 70.5l18 -85q-73 -38 -138 -97q47 -24 119 -24q80 0 213 28.5t233 67.5l21 -13l-14 -45l69 7zM419 521q0 38 -4.5 67t-5.5 38 q31 37 57 53q2 -8 2 -19q0 -17 -4.5 -43.5t-7.5 -36.5l-27 -62zM547 561.5q8 -12.5 8 -38.5q0 -19 -7.5 -42.5t-17.5 -37.5q-15 -20 -43.5 -29.5t-59.5 -9.5q-8 0 -11 1q-45 20 -74 63q-1 1 -2 2.5t-2 4.5q44 -7 93 -7q17 53 27 70q10 16 26.5 25.5t34.5 9.5q20 1 28 -11.5z M509 482q23 9 22 16q0 10 -20 10q-14 0 -29.5 -5.5t-26.5 -15.5l-7 -18h2q36 4 59 13z" />
<glyph unicode="&#x679;" horiz-adv-x="231" arabic-form="initial" d="M193 245q-14 -133 -65 -237q-46 -14 -128 -23l58 152q50 6 81 15q14 55 22 94zM109 476q0 38 -4.5 67t-5.5 38q31 37 57 53q2 -8 2 -19q0 -17 -4.5 -43.5t-7.5 -36.5l-27 -62zM237 516.5q8 -12.5 8 -38.5q0 -19 -7.5 -42.5t-17.5 -37.5q-15 -20 -43.5 -29.5t-59.5 -9.5 q-8 0 -11 1q-45 20 -74 63q-1 1 -2 2.5t-2 4.5q44 -7 93 -7q17 53 27 70q10 16 26.5 25.5t34.5 9.5q20 1 28 -11.5zM199 437q23 9 22 16q0 10 -20 10q-14 0 -29.5 -5.5t-26.5 -15.5l-7 -18h2q36 4 59 13z" />
<glyph unicode="&#x679;" horiz-adv-x="288" arabic-form="medial" d="M288 144l-43 -117l-21 -18l-110 -11l12 41q-34 -44 -131 -54l58 152q70 7 112 29l22 73l32 -3l-18 -83l81 8zM159 484q0 38 -4.5 67t-5.5 38q31 37 57 53q2 -8 2 -19q0 -17 -4.5 -43.5t-7.5 -36.5l-27 -62zM287 524.5q8 -12.5 8 -38.5q0 -19 -7.5 -42.5t-17.5 -37.5 q-15 -20 -43.5 -29.5t-59.5 -9.5q-8 0 -11 1q-45 20 -74 63q-1 1 -2 2.5t-2 4.5q44 -7 93 -7q17 53 27 70q10 16 26.5 25.5t34.5 9.5q20 1 28 -11.5zM249 445q23 9 22 16q0 10 -20 10q-14 0 -29.5 -5.5t-26.5 -15.5l-7 -18h2q36 4 59 13z" />
<glyph unicode="&#x6a4;" horiz-adv-x="766" arabic-form="final" d="M766 167l-43 -117l-21 -18l-19 -2q-26 -2 -37 -2q-63 0 -110 22q-122 -65 -284 -65q-120 0 -188.5 43.5t-68.5 120.5q24 67 63.5 125.5t105.5 123.5l19 -86q-50 -36 -99 -86q25 -46 80 -67.5t150 -21.5q65 0 131 12q-3 12 -3 24q0 26 15 65.5t35.5 76t35.5 50.5 q28 28 78 28q44 0 74 -21.5t30 -59.5q0 -72 -37 -135q23 0 50 3l37 4zM571 191q36 17 67 45q-34 21 -75 21q-28 0 -52 -11q14 -38 60 -55zM616 560q25 0 51.5 -6t47.5 -18l-61 -91q-40 20 -76 20q-12 0 -23 -3l-38 -43l-22 12l99 128q7 1 22 1z" />
<glyph unicode="&#x6a4;" horiz-adv-x="342" arabic-form="initial" d="M292.5 377q17.5 -38 17.5 -97q0 -49 -19.5 -114.5t-45.5 -100.5q-20 -25 -72.5 -46t-133.5 -30l-39 -4l58 152l62 6q59 7 111 20l-4 34h-50q-38 0 -61 11.5t-23 32.5q0 24 29 66t66 75t60 33q27 0 44.5 -38zM253 584q25 0 51.5 -6t47.5 -18l-61 -91q-40 20 -76 20 q-12 0 -23 -3l-38 -43l-22 12l99 128q7 1 22 1z" />
<glyph unicode="&#x6a4;" horiz-adv-x="429" arabic-form="medial" d="M429 158l-43 -117l-21 -18l-19 -2q-24 -2 -36 -2q-58 0 -106 21q-72 -41 -159 -50l-45 -5l56 152l52 5q-3 14 -3 25q0 26 15 65.5t35.5 76t35.5 50.5q28 28 78 28q44 0 74 -21.5t30 -59.5q0 -70 -39 -138q23 0 52 3l37 4zM174 240q14 -40 64 -59q38 21 64 48 q-33 22 -76 22q-28 0 -52 -11zM288 561q25 0 51.5 -6t47.5 -18l-61 -91q-40 20 -76 20q-12 0 -23 -3l-38 -43l-22 12l99 128q7 1 22 1z" />
<glyph unicode="&#x686;" horiz-adv-x="480" arabic-form="final" d="M130.5 -252.5q49.5 -30.5 128 -46.5t163.5 -16q33 0 48 1q-18 -33 -58.5 -63t-97 -49t-119.5 -19q-88 0 -143.5 38t-55.5 109q0 73 66.5 170t168.5 174q-77 16 -137 18q41 134 97 225q55 25 130 43t153 26l6 -17l-43 -117l-21 -18q-75 -7 -184 -26q46 -4 91.5 -13 t73.5 -19l-47 -119q-52 -22 -116 -63.5t-108.5 -83t-44.5 -63.5q0 -41 49.5 -71.5zM323 -85q25 0 51.5 -6t47.5 -18l-61 -91q-40 20 -76 20q-12 0 -23 -3l-38 -43l-22 12l99 128q7 1 22 1z" />
<glyph unicode="&#x686;" horiz-adv-x="509" arabic-form="initial" d="M386 25l-258 -27q-12 -59 -22 -150l-30 1l5 45q3 42 11 101l-92 -10l58 152l69 8q42 119 115 182t162 63q27 0 48 -5.5t32 -14.5q-18 -166 -98 -345zM237 215q-39 -23 -63 -65l189 21q5 23 10 61q-21 6 -47 6q-50 0 -89 -23zM261 -85q25 0 51.5 -6t47.5 -18l-61 -91 q-40 20 -76 20q-12 0 -23 -3l-38 -43l-22 12l99 128q7 1 22 1z" />
<glyph unicode="&#x686;" horiz-adv-x="429" arabic-form="medial" d="M429 487l-43 -117l-21 -18q-96 -10 -188 -26q46 -4 93 -13.5t76 -19.5q0 -49 -19.5 -117t-42.5 -101q-35 -29 -109.5 -54.5t-174.5 -35.5l58 152q74 7 120.5 16.5t91.5 22.5q-40 12 -108.5 22t-118.5 12q41 134 97 225q109 51 283 69zM165 -84q25 0 51.5 -6t47.5 -18 l-61 -91q-40 20 -76 20q-12 0 -23 -3l-38 -43l-22 12l99 128q7 1 22 1z" />
<glyph unicode="&#x688;" horiz-adv-x="591" arabic-form="final" d="M591 167l-43 -117l-21 -18l-94 -10l-16 161q-17 -36 -42 -77.5t-42 -59.5q-54 -60 -131 -60q-45 0 -105.5 22.5t-89.5 49.5q99 28 207.5 69.5t164.5 72.5l111 135l19 -15l14 -143l62 7zM378 529q0 38 -4.5 67t-5.5 38q31 37 57 53q2 -8 2 -19q0 -17 -4.5 -43.5 t-7.5 -36.5l-27 -62zM506 569.5q8 -12.5 8 -38.5q0 -19 -7.5 -42.5t-17.5 -37.5q-15 -20 -43.5 -29.5t-59.5 -9.5q-8 0 -11 1q-45 20 -74 63q-1 1 -2 2.5t-2 4.5q44 -7 93 -7q17 53 27 70q10 16 26.5 25.5t34.5 9.5q20 1 28 -11.5zM468 490q23 9 22 16q0 10 -20 10 q-14 0 -29.5 -5.5t-26.5 -15.5l-7 -18h2q36 4 59 13z" />
<glyph unicode="&#x698;" horiz-adv-x="510" arabic-form="final" d="M510 339l-43 -117l-21 -18l-53 -5q-27 -93 -83 -156t-138 -63q-44 0 -105 23.5t-86 48.5q92 27 199.5 67.5t170.5 74.5l51 104q15 30 30 40.5t50 14.5l22 3zM290 459q25 0 51.5 -6t47.5 -18l-61 -91q-40 20 -76 20q-12 0 -23 -3l-38 -43l-22 12l99 128q7 1 22 1z" />
<glyph unicode="&#x691;" horiz-adv-x="510" arabic-form="final" d="M510 339l-43 -117l-21 -18l-53 -5q-27 -93 -83 -156t-138 -63q-44 0 -105 23.5t-86 48.5q92 27 199.5 67.5t170.5 74.5l51 104q15 30 30 40.5t50 14.5l22 3zM277 501q0 38 -4.5 67t-5.5 38q31 37 57 53q2 -8 2 -19q0 -17 -4.5 -43.5t-7.5 -36.5l-27 -62zM405 541.5 q8 -12.5 8 -38.5q0 -19 -7.5 -42.5t-17.5 -37.5q-15 -20 -43.5 -29.5t-59.5 -9.5q-8 0 -11 1q-45 20 -74 63q-1 1 -2 2.5t-2 4.5q44 -7 93 -7q17 53 27 70q10 16 26.5 25.5t34.5 9.5q20 1 28 -11.5zM367 462q23 9 22 16q0 10 -20 10q-14 0 -29.5 -5.5t-26.5 -15.5l-7 -18h2 q36 4 59 13z" />
<glyph unicode="&#x6a9;" horiz-adv-x="777" arabic-form="final" d="M937 919q-19 -72 -67 -136q-166 -71 -300 -150l-12 13q35 55 65 89q131 95 314 184zM653 302l6 -17l-43 -117l-21 -18l-43 -5q-15 -45 -32 -65q-43 -39 -120.5 -67t-155.5 -28q-51 0 -100.5 13t-84.5 35t-44 47q9 54 58 136.5t105 131.5l15 -86q-42 -32 -83 -76 q18 -22 66 -35.5t114 -13.5q63 0 118.5 12.5t92.5 31.5q-6 60 -26.5 147t-41.5 149q24 42 56 81t60 61q10 -29 19 -129t10 -196z" />
<glyph unicode="&#x6a9;" horiz-adv-x="428" arabic-form="initial" d="M588 868q-19 -72 -67 -136q-166 -71 -300 -150l-12 13q35 55 65 89q131 95 314 184zM213 482q9 -102 9 -208q0 -90 -5 -110q-32 -97 -69 -142q-52 -28 -148 -37l58 152q27 2 76 10q-14 133 -50 299q25 37 57 71t59 51q8 -25 13 -86z" />
<glyph unicode="&#x6a9;" horiz-adv-x="608" arabic-form="medial" d="M608 860q-19 -72 -67 -136q-166 -71 -300 -150l-12 13q35 55 65 89q131 95 314 184zM316 159l6 -17l-43 -117l-21 -18l-97 -10q3 63 3 128q0 15 -2 43q-18 -67 -40 -112q-54 -18 -122 -25l58 152q54 5 101 18q-13 107 -58 217q24 42 56 81t60 61q10 -24 19.5 -103.5 t9.5 -141.5q0 -50 -3 -95t-7 -69z" />
<glyph unicode="&#x6af;" horiz-adv-x="777" arabic-form="final" d="M524 759l-11 22l385 226l10 -34zM937 919q-19 -72 -67 -136q-166 -71 -300 -150l-12 13q35 55 65 89q131 95 314 184zM653 302l6 -17l-43 -117l-21 -18l-43 -5q-15 -45 -32 -65q-43 -39 -120.5 -67t-155.5 -28q-51 0 -100.5 13t-84.5 35t-44 47q9 54 58 136.5t105 131.5 l15 -86q-42 -32 -83 -76q18 -22 66 -35.5t114 -13.5q63 0 118.5 12.5t92.5 31.5q-6 60 -26.5 147t-41.5 149q24 42 56 81t60 61q10 -29 19 -129t10 -196z" />
<glyph unicode="&#x6af;" horiz-adv-x="428" arabic-form="initial" d="M195 700l-11 22l385 226l10 -34zM588 868q-19 -72 -67 -136q-166 -71 -300 -150l-12 13q35 55 65 89q131 95 314 184zM213 482q9 -102 9 -208q0 -90 -5 -110q-32 -97 -69 -142q-52 -28 -148 -37l58 152q27 2 76 10q-14 133 -50 299q25 37 57 71t59 51q8 -25 13 -86z" />
<glyph unicode="&#x6af;" horiz-adv-x="608" arabic-form="medial" d="M195 700l-11 22l385 226l10 -34zM608 860q-19 -72 -67 -136q-166 -71 -300 -150l-12 13q35 55 65 89q131 95 314 184zM316 159l6 -17l-43 -117l-21 -18l-97 -10q3 63 3 128q0 15 -2 43q-18 -67 -40 -112q-54 -18 -122 -25l58 152q54 5 101 18q-13 107 -58 217 q24 42 56 81t60 61q10 -24 19.5 -103.5t9.5 -141.5q0 -50 -3 -95t-7 -69z" />
<glyph unicode="&#x6ba;" horiz-adv-x="519" arabic-form="final" d="M555 308l-43 -117l-21 -18l-32 -3q-8 -23 -20 -45q-34 -60 -107 -100t-148 -40q-78 0 -131.5 40t-57.5 105q17 67 58.5 143.5t98.5 146.5l21 -100q-49 -42 -101 -116q26 -32 67.5 -49.5t91.5 -17.5q54 0 102 17t82 47q-25 66 -94 122l106 114q21 -21 38.5 -55.5 t22.5 -63.5l61 7z" />
<glyph unicode="&#x6c1;" horiz-adv-x="451" arabic-form="final" d="M451 172l-43 -117l-21 -17l-123 -13l6 140q-43 5 -59 5q-105 0 -142 -107l-11 -27l-38 -4l41 110q29 80 83 125t122 45q58 0 106 -16l-6 -115l79 8z" />
<glyph unicode="&#x6c1;" horiz-adv-x="231" arabic-form="initial" d="M176 -77l-19 -93q-25 7 -49 24t-39 36l14 107q-35 -8 -83 -12l58 152q50 6 81 15q14 55 22 94l32 -1q-14 -133 -65 -237l-21 -6l-2 -29q18 -30 71 -50z" />
<glyph unicode="&#x6c1;" horiz-adv-x="573" arabic-form="medial" d="M573 72l-43 -117l-21 -18l-29 -3q-8 49 -25.5 68.5t-43.5 19.5q-50 0 -109 -56.5t-105 -143.5t-60 -172h-23l-45 326l-69 -7l58 152l110 12l20 -257q20 71 65 138.5t100 110.5t103 43q30 0 48.5 -19t25.5 -64l37 4z" />
<glyph unicode="&#x6be;" horiz-adv-x="610" arabic-form="final" d="M645 308l-43 -117l-21 -18l-33 -4q-14 -29 -26 -49q-22 -22 -65.5 -45.5t-92 -39t-83.5 -15.5q-29 0 -59 10q-78 -32 -202 -45l58 152l56 6q-2 12 -2 19q14 91 63 166t115 102q33 -12 57.5 -55t24.5 -93q0 -51 -27 -105q81 12 129 29q-2 74 -32 142t-77 110t-97 42 q-27 0 -57 -15.5t-72 -54.5l-17 13q32 50 76.5 89t90.5 60t83 21q61 0 104 -41.5t64.5 -104t21.5 -125.5q0 -16 -1 -23l58 6zM255 313l8 3zM196 256q3 -27 28 -51t60 -31q6 20 6 37q0 32 -17.5 57t-41.5 31q-29 -24 -35 -43z" />
<glyph unicode="&#x6be;" horiz-adv-x="592" arabic-form="initial" d="M476 571.5q43 -41.5 64.5 -104t21.5 -125.5q0 -73 -17.5 -126t-42.5 -96q-22 -22 -65.5 -45.5t-92 -39t-83.5 -15.5q-29 0 -59 10q-78 -32 -202 -45l58 152l56 6q-2 12 -2 19q14 91 63 166t115 102q33 -12 57.5 -55t24.5 -93q0 -51 -27 -105q81 12 129 29q-2 74 -32 142 t-77 110t-97 42q-27 0 -57 -15.5t-72 -54.5l-17 13q32 50 76.5 89t90.5 60t83 21q61 0 104 -41.5zM235 313l8 3zM176 256q3 -27 28 -51t60 -31q6 20 6 37q0 32 -17.5 57t-41.5 31q-29 -24 -35 -43z" />
<glyph unicode="&#x6be;" horiz-adv-x="610" arabic-form="medial" d="M645 308l-43 -117l-21 -18l-54 -6q-17 -34 -25 -47q-22 -22 -65.5 -45.5t-92 -39t-83.5 -15.5q-29 0 -59 10q-78 -32 -202 -45l58 152l56 6q-2 12 -2 19q14 91 63 166t115 102q33 -12 57.5 -55t24.5 -93q0 -51 -27 -105q81 12 129 29q-2 74 -32 142t-77 110t-97 42 q-27 0 -57 -15.5t-72 -54.5l-17 13q32 50 76.5 89t90.5 60t83 21q61 0 104 -41.5t64.5 -104t21.5 -125.5q0 -17 -1 -25l78 8zM235 313l8 3zM176 256q3 -27 28 -51t60 -31q6 20 6 37q0 32 -17.5 57t-41.5 31q-29 -24 -35 -43z" />
<glyph unicode="&#x6d2;" horiz-adv-x="668" arabic-form="final" d="M648 405l-43 -117l-21 -18l-373 -40q-66 -35 -119 -83q41 -22 103 -22q41 0 101 9t122 25l-42 -137q-121 -37 -207 -37t-142 37q-3 20 -3 40q0 79 38 139q32 52 100 104.5t126 78.5l354 38z" />
<glyph unicode="&#x6d3;" horiz-adv-x="668" arabic-form="final" d="M648 405l-43 -117l-21 -18l-373 -40q-66 -35 -119 -83q41 -22 103 -22q41 0 101 9t122 25l-42 -137q-121 -37 -207 -37t-142 37q-3 20 -3 40q0 79 38 139q32 52 100 104.5t126 78.5l354 38zM352 508l-55 -60l-142 -38l-12 11l57 47q-32 25 -32 59q0 36 28.5 62.5 t72.5 26.5q16 0 35 -4t31 -10l-38 -72q-11 6 -30 11t-36 5q-15 0 -24 -4.5t-9 -11.5q0 -10 21.5 -18.5t47.5 -8.5q43 0 73 15z" />
<glyph unicode="&#x6cc;" horiz-adv-x="707" arabic-form="final" d="M687 549l-43 -117l-21 -18q-75 -7 -185 -26q45 -4 90.5 -13.5t75.5 -19.5q-15 -104 -32.5 -160.5t-44.5 -87.5q-45 -52 -131 -87t-176 -35q-77 0 -133 42.5t-62 117.5q34 94 85 174.5t131 154.5l21 -94q-54 -42 -88 -78t-61 -78q26 -40 66.5 -60.5t102.5 -20.5 q78 0 145.5 25.5t110.5 66.5q-41 13 -112 24t-125 13q41 134 97 225q54 25 128 42.5t155 26.5z" />
<glyph unicode="&#x6cc;" horiz-adv-x="231" arabic-form="initial" d="M193 245q-14 -133 -65 -237q-46 -14 -128 -23l58 152q50 6 81 15q14 55 22 94zM-2 -114l181 49l-20 -103l-178 -39z" />
<glyph unicode="&#x6cc;" horiz-adv-x="288" arabic-form="medial" d="M288 144l-43 -117l-21 -18l-110 -11l12 41q-34 -44 -131 -54l58 152q70 7 112 29l22 73l32 -3l-18 -83l81 8zM29 -112l181 49l-20 -103l-178 -39z" />
<glyph unicode="&#x622;" horiz-adv-x="228" arabic-form="final" d="M228 142l-43 -117l-21 -18l-96 -10q-1 98 -9.5 239.5t-18.5 251.5q28 34 63 65t63 46q5 -20 5 -63q1 -77 -10 -206.5t-20 -179.5l81 9zM-10 611q15 58 29 89q9 9 22 13.5t26 4.5q7 0 35 -4q43 -5 54 -5q13 0 22 3l14 38l15 -3q-9 -47 -23 -84q-8 -11 -20.5 -17t-26.5 -6 q-9 0 -35 4q-38 5 -49 5q-16 0 -32 -4l-15 -38z" />
<glyph unicode="&#x623;" horiz-adv-x="228" arabic-form="final" d="M228 142l-43 -117l-21 -18l-96 -10q-1 98 -9.5 239.5t-18.5 251.5q28 34 63 65t63 46q5 -20 5 -63q1 -77 -10 -206.5t-20 -179.5l81 9zM217 702l-55 -60l-142 -38l-12 11l57 47q-32 25 -32 59q0 36 28.5 62.5t72.5 26.5q16 0 35 -4t31 -10l-38 -72q-11 6 -30 11t-36 5 q-15 0 -24 -4.5t-9 -11.5q0 -10 21.5 -18.5t47.5 -8.5q43 0 73 15z" />
<glyph unicode="&#x624;" horiz-adv-x="495" arabic-form="final" d="M495 358l-43 -117l-21 -18l-46 -5q-12 -63 -42.5 -116.5t-76 -85t-100.5 -31.5q-45 0 -104 22.5t-87 49.5q79 23 176.5 58.5t160.5 64.5l-6 35h-47q-38 0 -61 11.5t-23 32.5q0 25 27 67t64 74.5t64 32.5q18 0 32 -18t22 -50l105 10zM391 566l-55 -60l-142 -38l-12 11 l57 47q-32 25 -32 59q0 36 28.5 62.5t72.5 26.5q16 0 35 -4t31 -10l-38 -72q-11 6 -30 11t-36 5q-15 0 -24 -4.5t-9 -11.5q0 -10 21.5 -18.5t47.5 -8.5q43 0 73 15z" />
<glyph unicode="&#x625;" horiz-adv-x="228" arabic-form="final" d="M228 142l-43 -117l-21 -18l-96 -10q-1 98 -9.5 239.5t-18.5 251.5q28 34 63 65t63 46q5 -20 5 -63q1 -77 -10 -206.5t-20 -179.5l81 9zM211 -148l-55 -60l-142 -38l-12 11l57 47q-32 25 -32 59q0 36 28.5 62.5t72.5 26.5q16 0 35 -4t31 -10l-38 -72q-11 6 -30 11t-36 5 q-15 0 -24 -4.5t-9 -11.5q0 -10 21.5 -18.5t47.5 -8.5q43 0 73 15z" />
<glyph unicode="&#x626;" horiz-adv-x="707" arabic-form="final" d="M687 549l-43 -117l-21 -18q-75 -7 -185 -26q45 -4 90.5 -13.5t75.5 -19.5q-15 -104 -32.5 -160.5t-44.5 -87.5q-45 -52 -131 -87t-176 -35q-77 0 -133 42.5t-62 117.5q34 94 85 174.5t131 154.5l21 -94q-54 -42 -88 -78t-61 -78q26 -40 66.5 -60.5t102.5 -20.5 q78 0 145.5 25.5t110.5 66.5q-41 13 -112 24t-125 13q41 134 97 225q54 25 128 42.5t155 26.5zM297 603l-55 -60l-142 -38l-12 11l57 47q-32 25 -32 59q0 36 28.5 62.5t72.5 26.5q16 0 35 -4t31 -10l-38 -72q-11 6 -30 11t-36 5q-15 0 -24 -4.5t-9 -11.5q0 -10 21.5 -18.5 t47.5 -8.5q43 0 73 15z" />
<glyph unicode="&#x626;" horiz-adv-x="231" arabic-form="initial" d="M193 245q-14 -133 -65 -237q-46 -14 -128 -23l58 152q50 6 81 15q14 55 22 94zM264 412l-55 -60l-142 -38l-12 11l57 47q-32 25 -32 59q0 36 28.5 62.5t72.5 26.5q16 0 35 -4t31 -10l-38 -72q-11 6 -30 11t-36 5q-15 0 -24 -4.5t-9 -11.5q0 -10 21.5 -18.5t47.5 -8.5 q43 0 73 15z" />
<glyph unicode="&#x626;" horiz-adv-x="288" arabic-form="medial" d="M288 144l-43 -117l-21 -18l-110 -11l12 41q-34 -44 -131 -54l58 152q70 7 112 29l22 73l32 -3l-18 -83l81 8zM314 420l-55 -60l-142 -38l-12 11l57 47q-32 25 -32 59q0 36 28.5 62.5t72.5 26.5q16 0 35 -4t31 -10l-38 -72q-11 6 -30 11t-36 5q-15 0 -24 -4.5t-9 -11.5 q0 -10 21.5 -18.5t47.5 -8.5q43 0 73 15z" />
<glyph unicode="&#x627;" horiz-adv-x="228" arabic-form="final" d="M228 142l-43 -117l-21 -18l-96 -10q-1 98 -9.5 239.5t-18.5 251.5q28 34 63 65t63 46q5 -20 5 -63q1 -77 -10 -206.5t-20 -179.5l81 9z" />
<glyph unicode="&#x628;" horiz-adv-x="761" arabic-form="final" d="M758 180l-43 -117l-21 -18l-97 -10l21 58l1 3q-97 -48 -216 -79.5t-204 -31.5q-102 0 -174 46q0 45 12 89.5t35 82.5q25 42 69 84.5t90 70.5l18 -85q-73 -38 -138 -97q47 -24 119 -24q80 0 213 28.5t233 67.5l21 -13l-14 -45l69 7zM271 -127l93 62l14 -23q28 -46 47 -70 l-84 -55q-35 27 -70 86z" />
<glyph unicode="&#x628;" horiz-adv-x="231" arabic-form="initial" d="M193 245q-14 -133 -65 -237q-46 -14 -128 -23l58 152q50 6 81 15q14 55 22 94zM-3 -127l93 62l14 -23q28 -46 47 -70l-84 -55q-35 27 -70 86z" />
<glyph unicode="&#x628;" horiz-adv-x="288" arabic-form="medial" d="M288 144l-43 -117l-21 -18l-110 -11l12 41q-34 -44 -131 -54l58 152q70 7 112 29l22 73l32 -3l-18 -83l81 8zM28 -125l93 62l14 -23q28 -46 47 -70l-84 -55q-35 27 -70 86z" />
<glyph unicode="&#x629;" horiz-adv-x="485" arabic-form="final" d="M485 150l-43 -117l-21 -18l-125 -14l2 26q12 162 13 204q-42 -66 -74 -86q-18 -11 -42.5 -17.5t-47.5 -6.5q-53 0 -85 33t-32 76q0 54 37.5 118.5t91.5 109.5t99 45q80 0 123.5 -59t43.5 -166q-1 -21 -3 -56t-4 -61l61 6zM305 281q-12 38 -46 54t-91 16q-32 0 -57 -9 q7 -36 42 -59t77 -23q43 0 75 21zM167 640l181 49l-20 -103l-178 -39z" />
<glyph unicode="&#x62a;" horiz-adv-x="761" arabic-form="final" d="M758 180l-43 -117l-21 -18l-97 -10l21 58l1 3q-97 -48 -216 -79.5t-204 -31.5q-102 0 -174 46q0 45 12 89.5t35 82.5q25 42 69 84.5t90 70.5l18 -85q-73 -38 -138 -97q47 -24 119 -24q80 0 213 28.5t233 67.5l21 -13l-14 -45l69 7zM379 457l181 49l-20 -103l-178 -39z " />
<glyph unicode="&#x62a;" horiz-adv-x="231" arabic-form="initial" d="M193 245q-14 -133 -65 -237q-46 -14 -128 -23l58 152q50 6 81 15q14 55 22 94zM69 412l181 49l-20 -103l-178 -39z" />
<glyph unicode="&#x62a;" horiz-adv-x="288" arabic-form="medial" d="M288 144l-43 -117l-21 -18l-110 -11l12 41q-34 -44 -131 -54l58 152q70 7 112 29l22 73l32 -3l-18 -83l81 8zM119 420l181 49l-20 -103l-178 -39z" />
<glyph unicode="&#x62b;" horiz-adv-x="761" arabic-form="final" d="M758 180l-43 -117l-21 -18l-97 -10l21 58l1 3q-97 -48 -216 -79.5t-204 -31.5q-102 0 -174 46q0 45 12 89.5t35 82.5q25 42 69 84.5t90 70.5l18 -85q-73 -38 -138 -97q47 -24 119 -24q80 0 213 28.5t233 67.5l21 -13l-14 -45l69 7zM472 479q25 0 51.5 -6t47.5 -18 l-61 -91q-40 20 -76 20q-12 0 -23 -3l-38 -43l-22 12l99 128q7 1 22 1z" />
<glyph unicode="&#x62b;" horiz-adv-x="231" arabic-form="initial" d="M193 245q-14 -133 -65 -237q-46 -14 -128 -23l58 152q50 6 81 15q14 55 22 94zM162 434q25 0 51.5 -6t47.5 -18l-61 -91q-40 20 -76 20q-12 0 -23 -3l-38 -43l-22 12l99 128q7 1 22 1z" />
<glyph unicode="&#x62b;" horiz-adv-x="288" arabic-form="medial" d="M288 144l-43 -117l-21 -18l-110 -11l12 41q-34 -44 -131 -54l58 152q70 7 112 29l22 73l32 -3l-18 -83l81 8zM212 442q25 0 51.5 -6t47.5 -18l-61 -91q-40 20 -76 20q-12 0 -23 -3l-38 -43l-22 12l99 128q7 1 22 1z" />
<glyph unicode="&#x62c;" horiz-adv-x="480" arabic-form="final" d="M130.5 -252.5q49.5 -30.5 128 -46.5t163.5 -16q33 0 48 1q-18 -33 -58.5 -63t-97 -49t-119.5 -19q-88 0 -143.5 38t-55.5 109q0 73 66.5 170t168.5 174q-77 16 -137 18q41 134 97 225q55 25 130 43t153 26l6 -17l-43 -117l-21 -18q-75 -7 -184 -26q46 -4 91.5 -13 t73.5 -19l-47 -119q-52 -22 -116 -63.5t-108.5 -83t-44.5 -63.5q0 -41 49.5 -71.5zM205 -158l93 62l14 -23q28 -46 47 -70l-84 -55q-35 27 -70 86z" />
<glyph unicode="&#x62c;" horiz-adv-x="509" arabic-form="initial" d="M386 25l-258 -27q-12 -59 -22 -150l-30 1l5 45q3 42 11 101l-92 -10l58 152l69 8q42 119 115 182t162 63q27 0 48 -5.5t32 -14.5q-18 -166 -98 -345zM237 215q-39 -23 -63 -65l189 21q5 23 10 61q-21 6 -47 6q-50 0 -89 -23zM167 -127l93 62l14 -23q28 -46 47 -70 l-84 -55q-35 27 -70 86z" />
<glyph unicode="&#x62c;" horiz-adv-x="429" arabic-form="medial" d="M429 487l-43 -117l-21 -18q-96 -10 -188 -26q46 -4 93 -13.5t76 -19.5q0 -49 -19.5 -117t-42.5 -101q-35 -29 -109.5 -54.5t-174.5 -35.5l58 152q74 7 120.5 16.5t91.5 22.5q-40 12 -108.5 22t-118.5 12q41 134 97 225q109 51 283 69zM71 -126l93 62l14 -23 q28 -46 47 -70l-84 -55q-35 27 -70 86z" />
<glyph unicode="&#x62d;" horiz-adv-x="480" arabic-form="final" d="M130.5 -252.5q49.5 -30.5 128 -46.5t163.5 -16q33 0 48 1q-18 -33 -58.5 -63t-97 -49t-119.5 -19q-88 0 -143.5 38t-55.5 109q0 73 66.5 170t168.5 174q-77 16 -137 18q41 134 97 225q55 25 130 43t153 26l6 -17l-43 -117l-21 -18q-75 -7 -184 -26q46 -4 91.5 -13 t73.5 -19l-47 -119q-52 -22 -116 -63.5t-108.5 -83t-44.5 -63.5q0 -41 49.5 -71.5z" />
<glyph unicode="&#x62d;" horiz-adv-x="509" arabic-form="initial" d="M386 25l-258 -27q-12 -59 -22 -150l-30 1l5 45q3 42 11 101l-92 -10l58 152l69 8q42 119 115 182t162 63q27 0 48 -5.5t32 -14.5q-18 -166 -98 -345zM237 215q-39 -23 -63 -65l189 21q5 23 10 61q-21 6 -47 6q-50 0 -89 -23z" />
<glyph unicode="&#x62d;" horiz-adv-x="429" arabic-form="medial" d="M429 487l-43 -117l-21 -18q-96 -10 -188 -26q46 -4 93 -13.5t76 -19.5q0 -49 -19.5 -117t-42.5 -101q-35 -29 -109.5 -54.5t-174.5 -35.5l58 152q74 7 120.5 16.5t91.5 22.5q-40 12 -108.5 22t-118.5 12q41 134 97 225q109 51 283 69z" />
<glyph unicode="&#x62e;" horiz-adv-x="480" arabic-form="final" d="M130.5 -252.5q49.5 -30.5 128 -46.5t163.5 -16q33 0 48 1q-18 -33 -58.5 -63t-97 -49t-119.5 -19q-88 0 -143.5 38t-55.5 109q0 73 66.5 170t168.5 174q-77 16 -137 18q41 134 97 225q55 25 130 43t153 26l6 -17l-43 -117l-21 -18q-75 -7 -184 -26q46 -4 91.5 -13 t73.5 -19l-47 -119q-52 -22 -116 -63.5t-108.5 -83t-44.5 -63.5q0 -41 49.5 -71.5zM242 497l93 62l14 -23q28 -46 47 -70l-84 -55q-35 27 -70 86z" />
<glyph unicode="&#x62e;" horiz-adv-x="509" arabic-form="initial" d="M386 25l-258 -27q-12 -59 -22 -150l-30 1l5 45q3 42 11 101l-92 -10l58 152l69 8q42 119 115 182t162 63q27 0 48 -5.5t32 -14.5q-18 -166 -98 -345zM237 215q-39 -23 -63 -65l189 21q5 23 10 61q-21 6 -47 6q-50 0 -89 -23zM263 539l93 62l14 -23q28 -46 47 -70l-84 -55 q-35 27 -70 86z" />
<glyph unicode="&#x62e;" horiz-adv-x="429" arabic-form="medial" d="M429 487l-43 -117l-21 -18q-96 -10 -188 -26q46 -4 93 -13.5t76 -19.5q0 -49 -19.5 -117t-42.5 -101q-35 -29 -109.5 -54.5t-174.5 -35.5l58 152q74 7 120.5 16.5t91.5 22.5q-40 12 -108.5 22t-118.5 12q41 134 97 225q109 51 283 69zM198 649l93 62l14 -23 q28 -46 47 -70l-84 -55q-35 27 -70 86z" />
<glyph unicode="&#x62f;" horiz-adv-x="591" arabic-form="final" d="M591 167l-43 -117l-21 -18l-94 -10l-16 161q-17 -36 -42 -77.5t-42 -59.5q-54 -60 -131 -60q-45 0 -105.5 22.5t-89.5 49.5q99 28 207.5 69.5t164.5 72.5l111 135l19 -15l14 -143l62 7z" />
<glyph unicode="&#x630;" horiz-adv-x="591" arabic-form="final" d="M591 167l-43 -117l-21 -18l-94 -10l-16 161q-17 -36 -42 -77.5t-42 -59.5q-54 -60 -131 -60q-45 0 -105.5 22.5t-89.5 49.5q99 28 207.5 69.5t164.5 72.5l111 135l19 -15l14 -143l62 7zM333 468l93 62l14 -23q28 -46 47 -70l-84 -55q-35 27 -70 86z" />
<glyph unicode="&#x631;" horiz-adv-x="510" arabic-form="final" d="M510 339l-43 -117l-21 -18l-53 -5q-27 -93 -83 -156t-138 -63q-44 0 -105 23.5t-86 48.5q92 27 199.5 67.5t170.5 74.5l51 104q15 30 30 40.5t50 14.5l22 3z" />
<glyph unicode="&#x632;" horiz-adv-x="510" arabic-form="final" d="M510 339l-43 -117l-21 -18l-53 -5q-27 -93 -83 -156t-138 -63q-44 0 -105 23.5t-86 48.5q92 27 199.5 67.5t170.5 74.5l51 104q15 30 30 40.5t50 14.5l22 3zM322 459l93 62l14 -23q28 -46 47 -70l-84 -55q-35 27 -70 86z" />
<glyph unicode="&#x633;" horiz-adv-x="876" arabic-form="final" d="M876 379l-43 -117l-21 -18l-97 -10l28 75q-112 -24 -289 -41q-13 -60 -50 -138q-16 -33 -49 -66.5t-78 -56t-94 -22.5q-72 0 -120.5 40t-52.5 105q18 69 51 134t84 136l32 -77q-50 -45 -93 -108q29 -37 64.5 -54.5t87.5 -17.5q45 0 85 17.5t66 51.5l-89 46l58 144 q236 12 448 44l14 -20l-12 -36l64 6z" />
<glyph unicode="&#x633;" horiz-adv-x="432" arabic-form="initial" d="M58 152q161 17 345 63l14 -20l-56 -164l-29 4l10 50q-73 -30 -162.5 -53t-179.5 -32z" />
<glyph unicode="&#x633;" horiz-adv-x="426" arabic-form="medial" d="M58 152l362 38l6 -17l-43 -117l-21 -18l-362 -38z" />
<glyph unicode="&#x634;" horiz-adv-x="876" arabic-form="final" d="M876 379l-43 -117l-21 -18l-97 -10l28 75q-112 -24 -289 -41q-13 -60 -50 -138q-16 -33 -49 -66.5t-78 -56t-94 -22.5q-72 0 -120.5 40t-52.5 105q18 69 51 134t84 136l32 -77q-50 -45 -93 -108q29 -37 64.5 -54.5t87.5 -17.5q45 0 85 17.5t66 51.5l-89 46l58 144 q236 12 448 44l14 -20l-12 -36l64 6zM589 645q25 0 51.5 -6t47.5 -18l-61 -91q-40 20 -76 20q-12 0 -23 -3l-38 -43l-22 12l99 128q7 1 22 1z" />
<glyph unicode="&#x634;" horiz-adv-x="432" arabic-form="initial" d="M58 152q161 17 345 63l14 -20l-56 -164l-29 4l10 50q-73 -30 -162.5 -53t-179.5 -32zM242 395q25 0 51.5 -6t47.5 -18l-61 -91q-40 20 -76 20q-12 0 -23 -3l-38 -43l-22 12l99 128q7 1 22 1z" />
<glyph unicode="&#x634;" horiz-adv-x="426" arabic-form="medial" d="M58 152l362 38l6 -17l-43 -117l-21 -18l-362 -38zM274 387q25 0 51.5 -6t47.5 -18l-61 -91q-40 20 -76 20q-12 0 -23 -3l-38 -43l-22 12l99 128q7 1 22 1z" />
<glyph unicode="&#x635;" horiz-adv-x="855" arabic-form="final" d="M855 324l-43 -117l-21 -18q-109 -11 -148 -11q-68 0 -108 35q-6 -1 -17 -1q-29 0 -67 11q-18 -58 -37 -93q-32 -59 -90.5 -102t-132.5 -43q-69 0 -119 39.5t-62 105.5q26 72 61 137t84 133l32 -77q-50 -45 -93 -108q30 -37 65 -54.5t84 -17.5q99 0 154 69l-59 70l56 142 q50 -59 103 -77q5 36 19.5 72t33.5 62q28 38 71.5 59.5t84.5 21.5q45 0 64 -27t19 -79q0 -74 -44 -126l29 3l75 8zM614 397.5q-35 -10.5 -58.5 -26.5t-27.5 -32q20 -2 31 -2q36 0 77.5 9.5t71 22.5t29.5 22q0 7 -12.5 12t-38.5 5q-37 0 -72 -10.5z" />
<glyph unicode="&#x635;" horiz-adv-x="579" arabic-form="initial" d="M521.5 365q20.5 -26 20.5 -82q0 -51 -20.5 -111.5t-47.5 -85.5q-53 -50 -235 -79l-16 -53l-32 5l12 43q-49 -7 -89 -11l-29 -3l10 27q-36 -23 -95 -30l58 152q55 6 92 25l18 48l32 -5l-17 -61l7 1q37 4 58 7q26 84 43.5 122t37.5 62q22 25 57.5 40t72.5 15q42 0 62.5 -26 zM437.5 189.5q57.5 18.5 57.5 33.5q0 8 -15 12.5t-40 4.5q-39 0 -79.5 -12t-60.5 -29l-15 -42q95 14 152.5 32.5z" />
<glyph unicode="&#x635;" horiz-adv-x="602" arabic-form="medial" d="M596 156l-43 -117l-21 -18q-109 -11 -148 -11q-56 0 -94 24q-84 -33 -183 -45l-17 -2l9 28q-41 -23 -99 -30l58 152q51 6 87 26l15 48l31 -3l-15 -66l17 2l42 5q1 41 17 86.5t39 77.5q28 38 71.5 59.5t84.5 21.5q45 0 64 -27t19 -79q0 -69 -44 -126l29 3l75 8zM273 154 q67 10 113.5 23t69 25.5t22.5 20.5q0 7 -12.5 12t-38.5 5q-39 0 -76 -11.5t-60 -29t-23 -33.5q0 -7 5 -12z" />
<glyph unicode="&#x636;" horiz-adv-x="855" arabic-form="final" d="M855 324l-43 -117l-21 -18q-109 -11 -148 -11q-68 0 -108 35q-6 -1 -17 -1q-29 0 -67 11q-18 -58 -37 -93q-32 -59 -90.5 -102t-132.5 -43q-69 0 -119 39.5t-62 105.5q26 72 61 137t84 133l32 -77q-50 -45 -93 -108q30 -37 65 -54.5t84 -17.5q99 0 154 69l-59 70l56 142 q50 -59 103 -77q5 36 19.5 72t33.5 62q28 38 71.5 59.5t84.5 21.5q45 0 64 -27t19 -79q0 -74 -44 -126l29 3l75 8zM614 397.5q-35 -10.5 -58.5 -26.5t-27.5 -32q20 -2 31 -2q36 0 77.5 9.5t71 22.5t29.5 22q0 7 -12.5 12t-38.5 5q-37 0 -72 -10.5zM589 707l93 62l14 -23 q28 -46 47 -70l-84 -55q-35 27 -70 86z" />
<glyph unicode="&#x636;" horiz-adv-x="579" arabic-form="initial" d="M521.5 365q20.5 -26 20.5 -82q0 -51 -20.5 -111.5t-47.5 -85.5q-53 -50 -235 -79l-16 -53l-32 5l12 43q-49 -7 -89 -11l-29 -3l10 27q-36 -23 -95 -30l58 152q55 6 92 25l18 48l32 -5l-17 -61l7 1q37 4 58 7q26 84 43.5 122t37.5 62q22 25 57.5 40t72.5 15q42 0 62.5 -26 zM437.5 189.5q57.5 18.5 57.5 33.5q0 8 -15 12.5t-40 4.5q-39 0 -79.5 -12t-60.5 -29l-15 -42q95 14 152.5 32.5zM372 544l93 62l14 -23q28 -46 47 -70l-84 -55q-35 27 -70 86z" />
<glyph unicode="&#x636;" horiz-adv-x="602" arabic-form="medial" d="M596 156l-43 -117l-21 -18q-109 -11 -148 -11q-56 0 -94 24q-84 -33 -183 -45l-17 -2l9 28q-41 -23 -99 -30l58 152q51 6 87 26l15 48l31 -3l-15 -66l17 2l42 5q1 41 17 86.5t39 77.5q28 38 71.5 59.5t84.5 21.5q45 0 64 -27t19 -79q0 -69 -44 -126l29 3l75 8zM273 154 q67 10 113.5 23t69 25.5t22.5 20.5q0 7 -12.5 12t-38.5 5q-39 0 -76 -11.5t-60 -29t-23 -33.5q0 -7 5 -12zM332 552l93 62l14 -23q28 -46 47 -70l-84 -55q-35 27 -70 86z" />
<glyph unicode="&#x637;" horiz-adv-x="572" arabic-form="final" d="M186 255q0 85 -4 145t-13 125q30 36 64.5 69t62.5 48q4 -16 4 -44q0 -47 -11 -134t-16 -101l-65 -147l-22 7v32zM582 125l-43 -117l-21 -18q-109 -11 -148 -11q-52 0 -87 20q-47 -14 -100 -14q-39 8 -94 47t-83 82q-6 9 -6 11h92q63 0 130 5q3 40 18.5 81.5t36.5 70.5 q28 38 71.5 59.5t84.5 21.5q45 0 64 -27t19 -79q0 -33 -13 -63.5t-38 -63.5l36 4l75 8zM254 134q92 10 151 27t59 31q0 7 -12.5 12t-38.5 5q-39 0 -76 -11.5t-60 -29t-23 -33.5v-1z" />
<glyph unicode="&#x637;" horiz-adv-x="452" arabic-form="initial" d="M96 274q0 85 -4 145t-13 125q30 36 64.5 69t62.5 48q4 -16 4 -44q0 -50 -10.5 -137t-16.5 -98l-65 -147l-22 7v32zM396.5 358.5q20.5 -24.5 20.5 -79.5q0 -53 -17.5 -110.5t-47.5 -88.5q-31 -35 -105.5 -55t-218.5 -37l-28 -3l58 152l19 2q32 4 47 5q39 126 63 163 q22 35 62.5 55.5t83.5 20.5t63.5 -24.5zM314 180q54 17 54 32q0 7 -14 12t-39 5q-36 0 -76 -12.5t-65 -32.5l-12 -35q98 14 152 31z" />
<glyph unicode="&#x637;" horiz-adv-x="485" arabic-form="medial" d="M88 272q0 85 -4 145t-13 125q30 36 64.5 69t62.5 48q4 -16 4 -44q0 -50 -10.5 -137t-16.5 -98l-65 -147l-22 7v32zM485 143l-43 -117l-21 -18q-109 -11 -148 -11q-64 0 -102 30q-88 -33 -171 -42l58 152l28 3l38 4q3 41 18.5 83.5t37.5 72.5q28 38 71.5 59.5t84.5 21.5 q45 0 64 -27t19 -79q0 -68 -51 -127l36 4l75 8zM158 149q111 15 160 31.5t49 29.5q0 7 -12.5 12t-38.5 5q-39 0 -76 -11.5t-60 -29t-23 -33.5q0 -3 1 -4z" />
<glyph unicode="&#x638;" horiz-adv-x="572" arabic-form="final" d="M186 255q0 85 -4 145t-13 125q30 36 64.5 69t62.5 48q4 -16 4 -44q0 -47 -11 -134t-16 -101l-65 -147l-22 7v32zM582 125l-43 -117l-21 -18q-109 -11 -148 -11q-52 0 -87 20q-47 -14 -100 -14q-39 8 -94 47t-83 82q-6 9 -6 11h92q63 0 130 5q3 40 18.5 81.5t36.5 70.5 q28 38 71.5 59.5t84.5 21.5q45 0 64 -27t19 -79q0 -33 -13 -63.5t-38 -63.5l36 4l75 8zM254 134q92 10 151 27t59 31q0 7 -12.5 12t-38.5 5q-39 0 -76 -11.5t-60 -29t-23 -33.5v-1zM350 523l93 62l14 -23q28 -46 47 -70l-84 -55q-35 27 -70 86z" />
<glyph unicode="&#x638;" horiz-adv-x="452" arabic-form="initial" d="M96 274q0 85 -4 145t-13 125q30 36 64.5 69t62.5 48q4 -16 4 -44q0 -50 -10.5 -137t-16.5 -98l-65 -147l-22 7v32zM396.5 358.5q20.5 -24.5 20.5 -79.5q0 -53 -17.5 -110.5t-47.5 -88.5q-31 -35 -105.5 -55t-218.5 -37l-28 -3l58 152l19 2q32 4 47 5q39 126 63 163 q22 35 62.5 55.5t83.5 20.5t63.5 -24.5zM314 180q54 17 54 32q0 7 -14 12t-39 5q-36 0 -76 -12.5t-65 -32.5l-12 -35q98 14 152 31zM262 543l93 62l14 -23q28 -46 47 -70l-84 -55q-35 27 -70 86z" />
<glyph unicode="&#x638;" horiz-adv-x="485" arabic-form="medial" d="M88 272q0 85 -4 145t-13 125q30 36 64.5 69t62.5 48q4 -16 4 -44q0 -50 -10.5 -137t-16.5 -98l-65 -147l-22 7v32zM485 143l-43 -117l-21 -18q-109 -11 -148 -11q-64 0 -102 30q-88 -33 -171 -42l58 152l28 3l38 4q3 41 18.5 83.5t37.5 72.5q28 38 71.5 59.5t84.5 21.5 q45 0 64 -27t19 -79q0 -68 -51 -127l36 4l75 8zM158 149q111 15 160 31.5t49 29.5q0 7 -12.5 12t-38.5 5q-39 0 -76 -11.5t-60 -29t-23 -33.5q0 -3 1 -4zM250 540l93 62l14 -23q28 -46 47 -70l-84 -55q-35 27 -70 86z" />
<glyph unicode="&#x639;" horiz-adv-x="481" arabic-form="final" d="M132 -222q51 -31 131.5 -49.5t162.5 -18.5q33 0 48 1q-19 -34 -60 -64t-96.5 -48.5t-117.5 -18.5q-88 0 -144 37.5t-56 106.5q0 66 53.5 155t137.5 179q-56 42 -56 85q0 25 16.5 62.5t32.5 53.5q17 16 49 25.5t67 9.5q57 0 115 -25q-8 -65 -31 -116q22 -3 45 -3 q16 0 46 2l6 -17l-43 -117l-21 -18q-22 -2 -33 -2q-61 0 -127 25q-69 -54 -122.5 -107.5t-53.5 -71.5q0 -35 51 -66z" />
<glyph unicode="&#x639;" horiz-adv-x="424" arabic-form="initial" d="M424 176l-56 -152l-368 -39l58 152l52 6q-1 4 -1 12q0 29 18 69.5t44 78t46 53.5q24 18 82 35t98 20l-43 -142q-87 -8 -157 -30q17 -26 46 -47.5t60 -28.5z" />
<glyph unicode="&#x639;" horiz-adv-x="448" arabic-form="medial" d="M448 161l-43 -117l-21 -18l-10 -1q-8 -1 -25 -1q-56 0 -108 19q-81 -41 -222 -56l-19 -2l58 152l46 5l9 1q-5 15 -5 26q0 25 16.5 62.5t32.5 53.5q17 16 49 25.5t67 9.5q57 0 115 -25q-8 -71 -28 -122q21 -1 82 5z" />
<glyph unicode="&#x63a;" horiz-adv-x="481" arabic-form="final" d="M132 -222q51 -31 131.5 -49.5t162.5 -18.5q33 0 48 1q-19 -34 -60 -64t-96.5 -48.5t-117.5 -18.5q-88 0 -144 37.5t-56 106.5q0 66 53.5 155t137.5 179q-56 42 -56 85q0 25 16.5 62.5t32.5 53.5q17 16 49 25.5t67 9.5q57 0 115 -25q-8 -65 -31 -116q22 -3 45 -3 q16 0 46 2l6 -17l-43 -117l-21 -18q-22 -2 -33 -2q-61 0 -127 25q-69 -54 -122.5 -107.5t-53.5 -71.5q0 -35 51 -66zM194 446l93 62l14 -23q28 -46 47 -70l-84 -55q-35 27 -70 86z" />
<glyph unicode="&#x63a;" horiz-adv-x="424" arabic-form="initial" d="M424 176l-56 -152l-368 -39l58 152l52 6q-1 4 -1 12q0 29 18 69.5t44 78t46 53.5q24 18 82 35t98 20l-43 -142q-87 -8 -157 -30q17 -26 46 -47.5t60 -28.5zM204 546l93 62l14 -23q28 -46 47 -70l-84 -55q-35 27 -70 86z" />
<glyph unicode="&#x63a;" horiz-adv-x="448" arabic-form="medial" d="M448 161l-43 -117l-21 -18l-10 -1q-8 -1 -25 -1q-56 0 -108 19q-81 -41 -222 -56l-19 -2l58 152l46 5l9 1q-5 15 -5 26q0 25 16.5 62.5t32.5 53.5q17 16 49 25.5t67 9.5q57 0 115 -25q-8 -71 -28 -122q21 -1 82 5zM187 467l93 62l14 -23q28 -46 47 -70l-84 -55 q-35 27 -70 86z" />
<glyph unicode="&#x641;" horiz-adv-x="766" arabic-form="final" d="M766 167l-43 -117l-21 -18l-19 -2q-26 -2 -37 -2q-63 0 -110 22q-122 -65 -284 -65q-120 0 -188.5 43.5t-68.5 120.5q24 67 63.5 125.5t105.5 123.5l19 -86q-50 -36 -99 -86q25 -46 80 -67.5t150 -21.5q65 0 131 12q-3 12 -3 24q0 26 15 65.5t35.5 76t35.5 50.5 q28 28 78 28q44 0 74 -21.5t30 -59.5q0 -72 -37 -135q23 0 50 3l37 4zM571 191q36 17 67 45q-34 21 -75 21q-28 0 -52 -11q14 -38 60 -55zM542 541l93 62l14 -23q28 -46 47 -70l-84 -55q-35 27 -70 86z" />
<glyph unicode="&#x641;" horiz-adv-x="342" arabic-form="initial" d="M292.5 377q17.5 -38 17.5 -97q0 -49 -19.5 -114.5t-45.5 -100.5q-20 -25 -72.5 -46t-133.5 -30l-39 -4l58 152l62 6q59 7 111 20l-4 34h-50q-38 0 -61 11.5t-23 32.5q0 24 29 66t66 75t60 33q27 0 44.5 -38zM155 565l93 62l14 -23q28 -46 47 -70l-84 -55q-35 27 -70 86z " />
<glyph unicode="&#x641;" horiz-adv-x="429" arabic-form="medial" d="M429 158l-43 -117l-21 -18l-19 -2q-24 -2 -36 -2q-58 0 -106 21q-72 -41 -159 -50l-45 -5l56 152l52 5q-3 14 -3 25q0 26 15 65.5t35.5 76t35.5 50.5q28 28 78 28q44 0 74 -21.5t30 -59.5q0 -70 -39 -138q23 0 52 3l37 4zM174 240q14 -40 64 -59q38 21 64 48 q-33 22 -76 22q-28 0 -52 -11zM190 542l93 62l14 -23q28 -46 47 -70l-84 -55q-35 27 -70 86z" />
<glyph unicode="&#x642;" horiz-adv-x="671" arabic-form="final" d="M671 379l-43 -117l-21 -18l-27 -3q-12 -67 -39 -117q-35 -60 -109.5 -99.5t-151.5 -39.5q-79 0 -131 40.5t-57 104.5q20 73 68 148q-19 4 -36 4q-36 0 -59 -11t-38 -34l-21 8q57 170 171 170q21 0 49 -7t49 -17l-46 -128q-42 -27 -64 -53q55 -73 167 -73q48 0 94.5 14 t80.5 38l-6 49h-47q-39 0 -61.5 11.5t-22.5 32.5q0 27 27.5 69t64.5 73.5t61 31.5q18 0 33 -18.5t23 -50.5l86 9z" />
<glyph unicode="&#x642;" horiz-adv-x="342" arabic-form="initial" d="M292.5 377q17.5 -38 17.5 -97q0 -49 -19.5 -114.5t-45.5 -100.5q-20 -25 -72.5 -46t-133.5 -30l-39 -4l58 152l62 6q59 7 111 20l-4 34h-50q-38 0 -61 11.5t-23 32.5q0 24 29 66t66 75t60 33q27 0 44.5 -38zM160 562l181 49l-20 -103l-178 -39z" />
<glyph unicode="&#x642;" horiz-adv-x="429" arabic-form="medial" d="M429 158l-43 -117l-21 -18l-19 -2q-24 -2 -36 -2q-58 0 -106 21q-72 -41 -159 -50l-45 -5l56 152l52 5q-3 14 -3 25q0 26 15 65.5t35.5 76t35.5 50.5q28 28 78 28q44 0 74 -21.5t30 -59.5q0 -70 -39 -138q23 0 52 3l37 4zM174 240q14 -40 64 -59q38 21 64 48 q-33 22 -76 22q-28 0 -52 -11zM195 539l181 49l-20 -103l-178 -39z" />
<glyph unicode="&#x643;" horiz-adv-x="659" arabic-form="final" d="M659 285l-43 -117l-21 -18l-43 -5q-15 -45 -32 -65q-43 -39 -120.5 -67t-155.5 -28q-51 0 -100.5 13t-84.5 35t-44 47q0 45 42 125.5t109 158t140 116.5l76 -161q-28 -54 -75 -99q-8 -1 -23 -1q-47 0 -97 14l62 65l52 -9l-36 66q-40 -28 -83.5 -73.5t-75.5 -88.5 q13 -25 62.5 -40.5t121.5 -15.5q63 0 118.5 12.5t92.5 31.5q-6 60 -26.5 147t-41.5 149q24 42 56 81t60 61q10 -29 19 -129t10 -196l75 8z" />
<glyph unicode="&#x643;" horiz-adv-x="428" arabic-form="initial" d="M588 868q-19 -72 -67 -136q-166 -71 -300 -150l-12 13q35 55 65 89q131 95 314 184zM213 482q9 -102 9 -208q0 -90 -5 -110q-32 -97 -69 -142q-52 -28 -148 -37l58 152q27 2 76 10q-14 133 -50 299q25 37 57 71t59 51q8 -25 13 -86z" />
<glyph unicode="&#x643;" horiz-adv-x="608" arabic-form="medial" d="M608 860q-19 -72 -67 -136q-166 -71 -300 -150l-12 13q35 55 65 89q131 95 314 184zM316 159l6 -17l-43 -117l-21 -18l-97 -10q3 63 3 128q0 15 -2 43q-18 -67 -40 -112q-54 -18 -122 -25l58 152q54 5 101 18q-13 107 -58 217q24 42 56 81t60 61q10 -24 19.5 -103.5 t9.5 -141.5q0 -50 -3 -95t-7 -69z" />
<glyph unicode="&#x644;" horiz-adv-x="518" arabic-form="final" d="M565 285l-43 -117l-21 -18l-40 -4q-13 -41 -31 -64q-37 -40 -100.5 -68.5t-128.5 -28.5q-67 0 -120.5 32t-64.5 79q9 54 58 136.5t105 131.5l15 -86q-27 -20 -55 -47t-44 -48q16 -21 53 -33.5t89 -12.5q54 0 98.5 12.5t75.5 32.5q-6 60 -26.5 148t-41.5 149q24 42 56 81 t60 61q10 -29 19 -129.5t10 -197.5l71 8z" />
<glyph unicode="&#x644;" horiz-adv-x="328" arabic-form="initial" d="M279 470.5q9 -105.5 9 -201.5q0 -21 -7 -61.5t-20.5 -80.5t-32.5 -60q-35 -31 -94 -52.5t-134 -29.5l58 152q38 4 79.5 13.5t72.5 21.5q-6 59 -26 144t-41 148q24 42 56 81t60 61q11 -30 20 -135.5z" />
<glyph unicode="&#x644;" horiz-adv-x="322" arabic-form="medial" d="M322 142l-43 -117l-21 -18l-96 -10q2 42 2 128q0 24 -1 36q-17 -63 -41 -115q-54 -18 -122 -25l58 152q57 5 103 19q-6 69 -22.5 137t-37.5 118q24 42 56 81t60 61q10 -24 19.5 -103.5t9.5 -141.5q0 -59 -3 -112.5t-7 -80.5l80 8z" />
<glyph unicode="&#x645;" horiz-adv-x="478" arabic-form="final" d="M478 356l-43 -117l-21 -18l-29 -3l-9 -1q9 -13 9 -25q0 -38 -27.5 -84t-63.5 -74q-53 -17 -182 -31l11 -194q-17 -115 -83 -155l-45 339q8 29 40.5 66.5t72.5 65.5t68 31q6 1 20 1v2q0 28 26 88t47 79q26 28 165 43l38 4z" />
<glyph unicode="&#x645;" horiz-adv-x="362" arabic-form="initial" d="M306 295.5q26 -13.5 26 -32.5q0 -49 -16 -96.5t-42.5 -83t-55.5 -51.5q-84 -33 -218 -47l58 152l28 3q20 2 30 4q-6 12 -6 22q0 22 16.5 64.5t33.5 54.5q15 11 37.5 17.5t47.5 6.5q35 0 61 -13.5z" />
<glyph unicode="&#x645;" horiz-adv-x="371" arabic-form="medial" d="M371 339l-43 -117l-21 -18l-29 -3l-9 -1q9 -13 9 -25q0 -38 -27.5 -84t-63.5 -74q-34 -10 -73 -17t-114 -15l58 152l29 3h2v2q0 14 12.5 49.5t29.5 70t31 47.5q26 28 165 43l38 4z" />
<glyph unicode="&#x646;" horiz-adv-x="519" arabic-form="final" d="M555 308l-43 -117l-21 -18l-32 -3q-8 -23 -20 -45q-34 -60 -107 -100t-148 -40q-78 0 -131.5 40t-57.5 105q17 67 58.5 143.5t98.5 146.5q49 -7 104 -25l-44 -125q-29 12 -68 22q-33 -35 -72 -88q26 -32 67.5 -49.5t91.5 -17.5q54 0 102 17t82 47q-25 66 -94 122l106 114 q21 -21 38.5 -55.5t22.5 -63.5l61 7z" />
<glyph unicode="&#x646;" horiz-adv-x="231" arabic-form="initial" d="M193 245q-14 -133 -65 -237q-46 -14 -128 -23l58 152q50 6 81 15q14 55 22 94zM64 415l93 62l14 -23q28 -46 47 -70l-84 -55q-35 27 -70 86z" />
<glyph unicode="&#x646;" horiz-adv-x="288" arabic-form="medial" d="M288 144l-43 -117l-21 -18l-110 -11l12 41q-34 -44 -131 -54l58 152q70 7 112 29l22 73l32 -3l-18 -83l81 8zM114 423l93 62l14 -23q28 -46 47 -70l-84 -55q-35 27 -70 86z" />
<glyph unicode="&#x647;" horiz-adv-x="485" arabic-form="final" d="M485 150l-43 -117l-21 -18l-125 -14l2 26q12 162 13 204q-42 -66 -74 -86q-18 -11 -42.5 -17.5t-47.5 -6.5q-53 0 -85 33t-32 76q0 54 37.5 118.5t91.5 109.5t99 45q80 0 123.5 -59t43.5 -166q-1 -21 -3 -56t-4 -61l61 6zM305 281q-12 38 -46 54t-91 16q-32 0 -57 -9 q7 -36 42 -59t77 -23q43 0 75 21z" />
<glyph unicode="&#x647;" horiz-adv-x="592" arabic-form="initial" d="M476 571.5q43 -41.5 64.5 -104t21.5 -125.5q0 -73 -17.5 -126t-42.5 -96q-22 -22 -65.5 -45.5t-92 -39t-83.5 -15.5q-29 0 -59 10q-78 -32 -202 -45l58 152l56 6q-2 12 -2 19q14 91 63 166t115 102q33 -12 57.5 -55t24.5 -93q0 -51 -27 -105q81 12 129 29q-2 74 -32 142 t-77 110t-97 42q-27 0 -57 -15.5t-72 -54.5l-17 13q32 50 76.5 89t90.5 60t83 21q61 0 104 -41.5zM235 313l8 3zM176 256q3 -27 28 -51t60 -31q6 20 6 37q0 32 -17.5 57t-41.5 31q-29 -24 -35 -43z" />
<glyph unicode="&#x647;" horiz-adv-x="573" arabic-form="medial" d="M573 72l-43 -117l-21 -18l-29 -3q-8 49 -25.5 68.5t-43.5 19.5q-50 0 -109 -56.5t-105 -143.5t-60 -172h-23l-45 326l-69 -7l58 152l110 12l20 -257q20 71 65 138.5t100 110.5t103 43q30 0 48.5 -19t25.5 -64l37 4z" />
<glyph unicode="&#x648;" horiz-adv-x="495" arabic-form="final" d="M495 358l-43 -117l-21 -18l-46 -5q-12 -63 -42.5 -116.5t-76 -85t-100.5 -31.5q-45 0 -104 22.5t-87 49.5q79 23 176.5 58.5t160.5 64.5l-6 35h-47q-38 0 -61 11.5t-23 32.5q0 25 27 67t64 74.5t64 32.5q18 0 32 -18t22 -50l105 10z" />
<glyph unicode="&#x649;" horiz-adv-x="707" arabic-form="final" d="M687 549l-43 -117l-21 -18q-75 -7 -185 -26q45 -4 90.5 -13.5t75.5 -19.5q-15 -104 -32.5 -160.5t-44.5 -87.5q-45 -52 -131 -87t-176 -35q-77 0 -133 42.5t-62 117.5q34 94 85 174.5t131 154.5l21 -94q-54 -42 -88 -78t-61 -78q26 -40 66.5 -60.5t102.5 -20.5 q78 0 145.5 25.5t110.5 66.5q-41 13 -112 24t-125 13q41 134 97 225q54 25 128 42.5t155 26.5z" />
<glyph unicode="&#x64a;" horiz-adv-x="707" arabic-form="final" d="M687 549l-43 -117l-21 -18q-75 -7 -185 -26q45 -4 90.5 -13.5t75.5 -19.5q-15 -104 -32.5 -160.5t-44.5 -87.5q-45 -52 -131 -87t-176 -35q-77 0 -133 42.5t-62 117.5q34 94 85 174.5t131 154.5l21 -94q-54 -42 -88 -78t-61 -78q26 -40 66.5 -60.5t102.5 -20.5 q78 0 145.5 25.5t110.5 66.5q-41 13 -112 24t-125 13q41 134 97 225q54 25 128 42.5t155 26.5zM191 -114l181 49l-20 -103l-178 -39z" />
<glyph unicode="&#x64a;" horiz-adv-x="231" arabic-form="initial" d="M193 245q-14 -133 -65 -237q-46 -14 -128 -23l58 152q50 6 81 15q14 55 22 94zM-2 -114l181 49l-20 -103l-178 -39z" />
<glyph unicode="&#x64a;" horiz-adv-x="288" arabic-form="medial" d="M288 144l-43 -117l-21 -18l-110 -11l12 41q-34 -44 -131 -54l58 152q70 7 112 29l22 73l32 -3l-18 -83l81 8zM29 -112l181 49l-20 -103l-178 -39z" />
<glyph />
<glyph />
<glyph unicode=" "  horiz-adv-x="170" />
<glyph unicode="&#x09;" horiz-adv-x="170" />
<glyph unicode="&#xa0;" horiz-adv-x="170" />
<glyph unicode="!" horiz-adv-x="251" d="M38 627l176 55l-35 -424l-113 -22zM53 120l146 33v-142l-146 -22v131z" />
<glyph unicode="&#x22;" horiz-adv-x="186" d="M10 694l66 6l-8 -204l-58 -3v201zM115 694l66 6l-8 -204l-58 -3v201z" />
<glyph unicode="#" horiz-adv-x="594" d="M467 404l-30 -105l117 1l-20 -126h-133l-56 -193l-47 7l56 186h-201l-58 -193l-41 5l54 188h-82l15 121l102 1l32 108h-119l15 121l139 1l53 184l48 -6l-53 -177l202 2l54 181l40 -5l-51 -176l81 1l-20 -126h-97zM422 404h-201l-32 -108l202 2z" />
<glyph unicode="$" horiz-adv-x="486" d="M213 421q18 -24 44 -42t71 -43q50 -28 80 -49.5t51 -52t21 -70.5q0 -43 -25 -82t-72.5 -65t-110.5 -31v-119h-42v118q-156 7 -222 140l110 65q39 -73 97 -164h2q42 0 71 26t29 60q0 33 -28 58t-88 60q-51 30 -82.5 53t-53.5 56.5t-22 77.5q0 65 52 113t135 58v115h42 v-112q74 0 124 -28t85 -79l-102 -71q-16 22 -61 85q-33 47 -42 58q-38 -3 -59.5 -25t-21.5 -56q0 -30 18 -54z" />
<glyph unicode="%" horiz-adv-x="762" d="M646 706l-464 -726l-33 20l464 724zM352 407q-27 -49 -73.5 -77t-100.5 -28q-70 0 -116 44t-46 121q0 59 27 108t73.5 77t100.5 28q70 0 116 -44t46 -122q0 -58 -27 -107zM155 430.5q40 -43.5 120 -52.5q5 27 5 49q0 81 -40 124t-120 53q-5 -27 -5 -49q0 -81 40 -124.5z M703 319q46 -44 46 -122q0 -58 -27 -107t-73.5 -77t-100.5 -28q-70 0 -116 44t-46 121q0 59 27 108t73.5 77t100.5 28q70 0 116 -44zM525 113.5q40 -43.5 120 -52.5q5 27 5 49q0 81 -40 124t-120 53q-5 -27 -5 -49q0 -81 40 -124.5z" />
<glyph unicode="&#x26;" horiz-adv-x="730" d="M623 -16q-69 26 -144 68q-39 -31 -96.5 -49t-119.5 -18q-65 0 -118.5 21t-84.5 59.5t-31 90.5t33.5 99t89.5 79q-66 93 -66 164q0 45 27.5 88.5t77.5 71t112 27.5q54 0 94.5 -21t62 -55t21.5 -72q0 -55 -42.5 -105.5t-103.5 -78.5q70 -66 165 -121q22 84 34 174l-51 1v35 h216v-35l-49 -1q-53 -150 -80 -212q77 -37 149 -58zM319 536q-17 32 -45.5 52.5t-61.5 23.5q-7 -22 -7 -43q0 -86 105 -193q26 43 26 90q0 38 -17 70zM444 73q-74 46 -139.5 101t-114.5 112q-10 -31 -10 -58q0 -48 29.5 -84.5t79.5 -55.5t110 -19q23 0 45 3v1z" />
<glyph unicode="'" horiz-adv-x="100" d="M14 694l66 6l-8 -204l-58 -3v201z" />
<glyph unicode="(" horiz-adv-x="279" d="M251 752q-58 -95 -89 -198t-31 -206q0 -221 149 -423l-125 -45q-73 100 -108.5 205.5t-35.5 211.5q0 82 30.5 171t80 167.5t107.5 130.5z" />
<glyph unicode=")" horiz-adv-x="279" d="M19 -106q58 95 89 198t31 206q0 221 -149 423l125 45q73 -100 108.5 -205.5t35.5 -211.5q0 -82 -30.5 -171t-80 -167.5t-107.5 -130.5z" />
<glyph unicode="*" horiz-adv-x="206" d="M185 609l-54 3l43 -64l-38 -13l-24 48l-34 -69l-30 26l29 45l-75 -5l7 38l53 -2l-43 64l38 12l24 -48l35 69l29 -26l-29 -44l76 4z" />
<glyph unicode="+" horiz-adv-x="364" d="M30 349l313 8l-10 -46h-308zM199 493l8 -313l-46 10v308z" />
<glyph unicode="," horiz-adv-x="196" d="M36 121l120 27v-84l-85 -176l-36 -5z" />
<glyph unicode="-" horiz-adv-x="375" d="M30 279l313 8l-10 -46h-308z" />
<glyph unicode="." horiz-adv-x="221" d="M35 120l146 33v-142l-146 -22v131z" />
<glyph unicode="/" horiz-adv-x="391" d="M23 -74l342 784l51 -7l-350 -782z" />
<glyph unicode="0" horiz-adv-x="602" d="M455 647q58 -38 91.5 -109t33.5 -166q0 -81 -19.5 -153.5t-59.5 -125.5q-38 -51 -95 -79.5t-131 -28.5q-70 0 -128 38t-91.5 109t-33.5 166q0 81 19.5 153.5t59.5 125.5q38 51 95 79.5t131 28.5q70 0 128 -38zM226 186.5q77 -74.5 211 -81.5q16 91 16 146 q0 158 -77 232.5t-211 81.5q-16 -91 -16 -146q0 -158 77 -232.5z" />
<glyph unicode="1" horiz-adv-x="333" d="M33 35l57 3l-5 549l-58 -13l-10 35l230 61l14 -24l-5 -608l57 -3v-35h-280v35z" />
<glyph unicode="2" horiz-adv-x="505" d="M429 209h32v-210l-436 1l9 143q152 53 233 125t81 147q0 43 -31 67.5t-81 24.5q-40 0 -81.5 -11t-76.5 -31l3 -42l-32 -5l-27 196q45 31 117.5 51t137.5 20q95 0 153 -45.5t58 -128.5q0 -82 -55 -159.5t-139.5 -135.5t-172.5 -86l305 40z" />
<glyph unicode="3" horiz-adv-x="504" d="M384 369.5q43 -21.5 67 -60t24 -86.5q0 -61 -37 -116t-104.5 -88.5t-154.5 -33.5q-41 0 -81 8.5t-71 23.5l45 124q129 -64 254 -85q10 32 10 67q0 81 -62.5 121t-200.5 37v31l232 223l-232 -41l-3 -39h-32v215h409v-107l-248 -184q42 12 87 12q55 0 98 -21.5z" />
<glyph unicode="4" horiz-adv-x="621" d="M469 151l-1 -113l57 -3v-35h-248v35l57 3v113l-339 -1l333 496l145 37l-3 -380h148l-50 -152h-99zM334 303v228l-185 -228h185z" />
<glyph unicode="5" horiz-adv-x="500" d="M370 388q48 -23 75 -65t27 -95q0 -65 -38.5 -121t-104 -89t-142.5 -33q-84 0 -166 43l45 131q137 -77 256 -103q10 33 10 68q0 92 -75.5 137t-230.5 45l25 364h394v-215h-32l-3 39l-295 55l-18 -163q38 11 82.5 18t80.5 7q62 0 110 -23z" />
<glyph unicode="6" horiz-adv-x="555" d="M438.5 393.5q45.5 -23.5 71 -65t25.5 -95.5q0 -64 -33 -121t-92 -92t-132 -35q-71 0 -128.5 34t-90.5 96.5t-33 144.5q0 109 54 203t147.5 153.5t205.5 68.5l7 -36q-114 -34 -179 -102t-77 -168q35 17 74.5 27.5t77.5 10.5q57 0 102.5 -23.5zM207 194q25 -59 69 -95.5 t99 -42.5q16 44 16 88q0 79 -55.5 126.5t-154.5 54.5q1 -72 26 -131z" />
<glyph unicode="7" horiz-adv-x="475" d="M461 670v-108l-190 -562h-198l322 541l-348 -47l-3 -39h-32v215h449z" />
<glyph unicode="8" horiz-adv-x="558" d="M495 289q37 -38 37 -95q0 -59 -35 -106.5t-95 -75t-134 -27.5q-70 0 -124 21t-84.5 59.5t-30.5 88.5q0 52 29.5 98t79.5 78q-40 30 -62 65.5t-22 82.5q0 61 35 108t92 73t121 26q58 0 102 -22.5t67.5 -59t23.5 -77.5q0 -46 -29.5 -90t-75.5 -73q68 -36 105 -74z M301 565.5q-49 41.5 -119 46.5q-9 -24 -9 -50q0 -40 22 -71t55.5 -53t86.5 -48q13 35 13 70q0 64 -49 105.5zM206.5 145q26.5 -36 68.5 -56.5t85 -20.5q21 0 43 3q3 14 3 27q0 39 -21.5 69t-54 51t-87.5 50q-25 12 -53 29q-10 -36 -10 -72q0 -44 26.5 -80z" />
<glyph unicode="9" horiz-adv-x="553" d="M410.5 666q55.5 -34 87 -96t31.5 -145q0 -109 -54 -203t-147.5 -153.5t-205.5 -68.5l-7 36q112 33 176.5 99t78.5 163q-73 -44 -153 -44q-56 0 -101 25.5t-70.5 70t-25.5 101.5q0 64 34.5 121.5t95.5 92.5t136 35q69 0 124.5 -34zM220 413q56 -48 154 -55 q-1 73 -26 132.5t-68.5 96t-99.5 42.5q-16 -44 -16 -87q0 -81 56 -129z" />
<glyph unicode=":" horiz-adv-x="221" d="M35 120l146 33v-142l-146 -22v131zM35 410l146 33v-142l-146 -22v131z" />
<glyph unicode=";" horiz-adv-x="221" d="M35 410l146 33v-142l-146 -22v131zM36 121l120 27v-84l-85 -176l-36 -5z" />
<glyph unicode="&#x3c;" horiz-adv-x="330" d="M24 356v-37l241 -132l37 36l-236 114l236 122l-37 36z" />
<glyph unicode="=" horiz-adv-x="360" d="M30 409l313 8l-10 -46h-308zM30 269l313 8l-10 -46h-308z" />
<glyph unicode="&#x3e;" horiz-adv-x="330" d="M306 356v-37l-241 -132l-37 36l236 114l-236 122l37 36z" />
<glyph unicode="?" horiz-adv-x="417" d="M108 243q-19 27 -19 51q0 23 19.5 45t57.5 54q36 30 54.5 51t18.5 41q0 39 -29 62t-106 31l-29 3l-18 -33l-26 13l61 143q28 5 60 5q102 0 164 -36t66 -107q2 -36 -22.5 -62.5t-73.5 -60.5q-37 -25 -55 -42.5t-18 -37.5q0 -17 9 -37.5t19 -28.5l30 15l14 -27l-136 -79 q-22 10 -41 37zM115 120l146 33v-142l-146 -22v131z" />
<glyph unicode="@" horiz-adv-x="875" d="M597 -117q68 25 132 77l23 -31q-77 -61 -146.5 -87.5t-151.5 -26.5q-120 0 -215.5 50.5t-149.5 141t-54 205.5q0 117 55.5 215.5t154.5 156t224 57.5q104 0 189 -40.5t133.5 -110t48.5 -152.5q0 -63 -28 -117.5t-88 -109.5t-161 -121q-28 9 -48.5 40t-25.5 83l-94 -125 q-54 0 -96 26t-66 74t-24 112q0 71 29.5 129t81.5 91t116 33l115 -9l78 4v-263q0 -57 13 -86q68 44 109.5 105t41.5 132q0 72 -42 132t-115.5 95t-165.5 35q-111 0 -199.5 -52t-138.5 -140t-50 -192q0 -102 48.5 -183.5t133.5 -127t190 -45.5q75 0 143 25zM378.5 144.5 q24.5 -34.5 59.5 -35.5l50 50v245q-58 -8 -96 -57t-38 -115q0 -53 24.5 -87.5z" />
<glyph unicode="A" horiz-adv-x="670" d="M678 35v-35h-301v35l49 1l-46 164h-170l-33 -164l51 -1v-35h-226v35l49 1l224 626l124 17l230 -643zM369 237l-88 313l-63 -313h151z" />
<glyph unicode="B" horiz-adv-x="635" d="M547.5 325.5q37.5 -21.5 56.5 -55.5t19 -72q0 -93 -79.5 -145.5t-232.5 -52.5h-275v35l49 1v598l-49 1v35l193 -2l146 12q96 0 147 -41.5t51 -109.5q0 -64 -43 -110.5t-126 -74.5l53 3q53 0 90.5 -21.5zM358.5 598.5q-36.5 36.5 -107.5 36.5v-288q73 5 108.5 40.5 t35.5 103.5q0 71 -36.5 107.5zM399 67q46 32 46 102t-41.5 106t-122.5 36h-30v-276q102 0 148 32z" />
<glyph unicode="C" horiz-adv-x="610" d="M504 118q41 18 76 52l26 -29q-123 -156 -282 -156q-91 0 -158.5 41t-104.5 116t-37 176q0 87 33.5 168.5t85.5 130.5q51 33 109.5 50.5t115.5 17.5q76 0 139.5 -32.5t100.5 -90.5l-123 -103q-52 92 -125 199q-44 -18 -80 -62t-56.5 -105t-20.5 -127q0 -126 56.5 -195 t159.5 -69q44 0 85 18z" />
<glyph unicode="D" horiz-adv-x="707" d="M36 35l49 1v598l-49 1v35l193 -2l142 12q149 0 230.5 -83t81.5 -240q0 -106 -41 -186.5t-123 -125.5t-200 -45h-283v35zM279 35q107 0 166.5 74t59.5 223q0 99 -33.5 166.5t-91 101t-129.5 33.5v-598h28z" />
<glyph unicode="E" horiz-adv-x="568" d="M543 199v-199h-507v35l49 1v598l-49 1v35h487v-194l-39 1l-2 50q-111 69 -231 116l2 -278h187v-37h-187l2 -300q128 49 247 120l2 50z" />
<glyph unicode="F" horiz-adv-x="528" d="M523 670v-199l-39 1l-2 50q-119 75 -229 120v-302h187v-37h-187v-267l107 -1v-35h-324v35l49 1v598l-49 1v35h487z" />
<glyph unicode="G" horiz-adv-x="661" d="M647 347v-35l-45 -1v-311h-32l-73 50q-39 -31 -84.5 -48t-92.5 -17q-88 0 -155 40.5t-104 114t-37 170.5q0 92 33.5 174t85.5 131q51 33 109.5 50.5t115.5 17.5q76 0 139.5 -32.5t100.5 -90.5l-123 -103q-55 93 -125 198q-69 -30 -113 -111t-44 -184q0 -127 57.5 -199.5 t157.5 -72.5q16 0 24 1v222l-49 1v35h254z" />
<glyph unicode="H" horiz-adv-x="726" d="M657 634v-598l49 -1v-35h-264v35l49 1v278h-224v-278l49 -1v-35h-264v35l49 1v598l-49 1v35h264v-35l-49 -1v-283h224v283l-49 1v35h264v-35z" />
<glyph unicode="I" horiz-adv-x="336" d="M36 35l49 1v598l-49 1v35h264v-35l-49 -1v-598l49 -1v-35h-264v35z" />
<glyph unicode="J" horiz-adv-x="327" d="M299 670v-35l-49 -1v-419q0 -223 -56.5 -320.5t-159.5 -97.5q-43 0 -92 16t-72 34l83 123l131 -134v798l-49 1v35h264z" />
<glyph unicode="K" horiz-adv-x="700" d="M251 36l49 -1v-35h-264v35l49 1v598l-49 1v35h264v-35l-49 -1v-598zM698 35v-35h-311v35l49 1l-170 293l217 305l-49 1v35h238v-35l-54 -1l-222 -215l253 -383z" />
<glyph unicode="L" horiz-adv-x="549" d="M543 199v-199h-507v35l49 1v598l-49 1v35h324v-35l-109 -1v-596q125 44 251 110l2 50z" />
<glyph unicode="M" horiz-adv-x="889" d="M887 35v-35h-277v35l54 1l-47 513l-193 -437h-31l-207 440l-19 -516l54 -1v-35h-219v35l39 1l96 598l-55 1v35h230l161 -327l139 327h207v-35l-53 -1l82 -598z" />
<glyph unicode="N" horiz-adv-x="736" d="M700 670v-35l-49 -1l-26 -633l-121 -1l-361 568l38 -532l59 -1v-35h-204v35l49 1l17 598l-49 1v35h247l291 -451l-26 415l-59 1v35h194z" />
<glyph unicode="O" horiz-adv-x="709" d="M530.5 647q73.5 -38 114 -112t40.5 -181q0 -68 -24 -140.5t-70 -128.5q-48 -45 -110 -72.5t-132 -27.5q-97 0 -170.5 38t-114 112t-40.5 181q0 67 25 140t71 129q47 45 108.5 72.5t130.5 27.5q98 0 171.5 -38zM232 199q30 -71 91 -104.5t158 -38.5q12 50 19.5 117.5 t7.5 110.5q0 117 -30.5 188.5t-92.5 105.5t-158 38q-11 -52 -18 -121t-7 -109q0 -116 30 -187z" />
<glyph unicode="P" horiz-adv-x="618" d="M515.5 306.5q-90.5 -61.5 -264.5 -65.5v-205l109 -1v-35h-324v35l49 1v598l-49 1v35l193 -2l149 7q72 0 123.5 -27t78 -73t26.5 -101q0 -106 -90.5 -167.5zM405 541.5q-23 43.5 -63.5 68.5t-90.5 25v-355q83 5 130 48.5t47 116.5q0 53 -23 96.5z" />
<glyph unicode="Q" horiz-adv-x="709" d="M563 -82q99 0 177 6l-52 -166q-87 6 -236.5 48.5t-242.5 87.5v62l89 32q-126 14 -200 98.5t-74 229.5q0 67 25 140t71 129q47 45 108.5 72.5t130.5 27.5q98 0 171.5 -38t114 -112t40.5 -181q0 -68 -24 -140.5t-70 -128.5q-62 -58 -140 -84l-185 -66q122 -17 297 -17z M232 199q30 -71 91 -104.5t158 -38.5q12 50 19.5 117.5t7.5 110.5q0 117 -30.5 188.5t-92.5 105.5t-158 38q-11 -52 -18 -121t-7 -109q0 -116 30 -187z" />
<glyph unicode="R" horiz-adv-x="692" d="M690 35v-35h-241l-136 268l3 2q-23 -2 -65 -4v-230l49 -1v-35h-264v35l49 1v598l-49 1v35l193 -2l149 12q72 0 123.5 -26.5t78 -71t26.5 -98.5q0 -62 -36 -108t-108 -74l179 -266zM251 305q83 5 130 45.5t47 109.5q0 49 -23 89t-63 63t-91 23v-330z" />
<glyph unicode="S" horiz-adv-x="551" d="M235 505q18 -27 45 -48t74 -52q55 -36 88 -63.5t56.5 -66t23.5 -86.5q0 -53 -29 -99.5t-87 -75.5t-140 -29q-176 0 -250 140l113 87q48 -99 108 -192h1q29 0 54 15.5t40 40.5t15 53q0 30 -17.5 55.5t-43.5 45t-71 47.5q-54 34 -87 60t-56.5 63.5t-23.5 86.5 q0 55 31.5 100.5t90 71.5t137.5 26q77 0 126.5 -24.5t89.5 -69.5l-105 -106q-53 88 -107 165q-45 0 -69.5 -24.5t-24.5 -61.5q0 -32 18 -59z" />
<glyph unicode="T" horiz-adv-x="594" d="M592 670v-194l-39 1l-2 50q-103 74 -171 109v-600l79 -1v-35h-324v35l79 1v600q-68 -35 -171 -109l-2 -50l-39 -1v194h590z" />
<glyph unicode="U" horiz-adv-x="726" d="M700 670v-35l-49 -1v-634h-32l-128 84q-37 -45 -89 -72t-109 -27q-104 0 -161 66t-57 205v378l-49 1v35h267v-35l-49 -1v-353q0 -92 38 -137.5t104 -45.5q56 0 99 23v513l-49 1v35h264z" />
<glyph unicode="V" horiz-adv-x="669" d="M667 670v-35l-42 -1l-234 -626l-130 -17l-217 643l-42 1v35h304v-35l-59 -1l133 -515l119 515l-59 1v35h227z" />
<glyph unicode="W" horiz-adv-x="1038" d="M1036 670v-35l-42 -1l-208 -626l-130 -17l-135 471l-147 -454l-130 -17l-200 643l-42 1v35h294v-35l-49 -1l116 -508l98 508l-49 1v35h291v-35l-49 -1l120 -508l94 508l-51 1v35h219z" />
<glyph unicode="X" horiz-adv-x="643" d="M641 35v-35h-291v35l49 1l-137 241l-78 -241l64 -1v-35h-246v35l52 1l181 288l-176 310l-49 1v35h301v-35l-49 -1l114 -200l85 200l-64 1v35h231v-35l-42 -1l-186 -242l202 -356z" />
<glyph unicode="Y" horiz-adv-x="636" d="M634 670v-35l-42 -1l-191 -348v-250l49 -1v-35h-264v35l49 1v235l-191 363l-42 1v35h294v-35l-49 -1l127 -290l92 290l-51 1v35h219z" />
<glyph unicode="Z" horiz-adv-x="556" d="M541 197v-197h-521v34l324 609q-125 -44 -265 -114l-2 -50l-39 -1v192h490v-44l-318 -600q141 47 290 120l2 50z" />
<glyph unicode="[" horiz-adv-x="299" d="M160 -77l119 15l-10 -61l-244 32v804l244 32l10 -61l-119 15v-776z" />
<glyph unicode="\" horiz-adv-x="392" d="M369 -74l-342 784l-51 -7l350 -782z" />
<glyph unicode="]" horiz-adv-x="299" d="M139 -77l-119 15l10 -61l244 32v804l-244 32l-10 -61l119 15v-776z" />
<glyph unicode="^" horiz-adv-x="335" d="M259 480l-97 160l-97 -160l-41 26l130 183h16l130 -183z" />
<glyph unicode="_" horiz-adv-x="418" d="M15 -6l393 8l-10 -46h-388z" />
<glyph unicode="`" horiz-adv-x="227" d="M10 630l39 70l168 -134l-18 -39z" />
<glyph unicode="a" horiz-adv-x="428" d="M428 52l-147 -69q-27 19 -37 52q-36 -22 -72.5 -36t-63.5 -14q-41 0 -67 29t-26 74q0 20 4.5 43.5t11.5 37.5l212 34l2 29q2 45 -19 70.5t-68 25.5q-21 0 -44 -4.5t-39 -11.5l-16 -34l-27 10l46 144q77 33 146 33q71 0 116 -37.5t45 -117.5l-1 -20l-10 -135l-2 -36 q0 -18 3 -28.5t10 -21.5l31 12zM238 69l-1 21l1 22l3 57l-77 -18q-4 -13 -4 -35q0 -30 12 -44.5t29 -14.5q16 0 37 12z" />
<glyph unicode="b" horiz-adv-x="504" d="M397.5 438.5q44.5 -26.5 69.5 -73t25 -105.5q0 -51 -17 -108t-41 -89q-19 -27 -69 -52.5t-84 -25.5q-45 0 -117 16.5t-107 35.5l-3 594l-38 -8l-10 29l185 56l14 -24l-4 -329l94 110q58 0 102.5 -26.5zM348 200q0 46 -15 80t-39.5 52t-52.5 18l-40 -40l-3 -207 q68 -31 125 -42q25 57 25 139z" />
<glyph unicode="c" horiz-adv-x="434" d="M415 145l16 -18q-37 -64 -92.5 -103t-119.5 -39q-90 0 -143.5 60.5t-53.5 163.5q0 61 25 121t64 100q34 17 71 26t71 9q59 0 105 -32t74 -93l-115 -67q-16 45 -43 91t-47 63q-26 -25 -44.5 -72.5t-18.5 -97.5q0 -77 34 -117t96 -40t121 45z" />
<glyph unicode="d" horiz-adv-x="522" d="M518 69l-146 -79q-27 16 -39.5 42.5t-14.5 68.5l-99 -116q-58 0 -102.5 26.5t-69.5 73t-25 105.5q0 51 17 108t41 89q19 27 69 52.5t84 25.5q30 0 82 -10l-2 176l-38 -8l-10 29l185 56l14 -24l-6 -518q0 -36 4 -53.5t14 -30.5l30 14zM181 170q15 -34 39.5 -52t52.5 -18 l45 45l-2 202q-65 31 -125 42q-25 -57 -25 -139q0 -46 15 -80z" />
<glyph unicode="e" horiz-adv-x="451" d="M391.5 401.5q50.5 -63.5 49.5 -171.5l-276 -9q7 -59 41 -90t90 -31q78 0 127 43l18 -16q-35 -67 -94.5 -104.5t-126.5 -37.5q-91 0 -144.5 60.5t-53.5 163.5q0 61 24.5 121t62.5 100q26 15 67 25t77 10q88 0 138.5 -63.5zM293 263q-1 70 -20 111t-54 49 q-25 -26 -40.5 -72.5t-15.5 -95.5v-3z" />
<glyph unicode="f" horiz-adv-x="310" d="M178.5 537.5q20.5 -60.5 37.5 -87.5h88v-42l-87 3l-2 -379l77 -3v-29h-255v29l37 3l-2 381h-56v37h53q-8 27 -14.5 65t-6.5 65q0 19 1 28q9 26 33.5 47.5t55 34t56.5 12.5q44 0 88.5 -13.5t79.5 -35.5l-83 -119q-23 26 -59 57t-68 53q6 -46 26.5 -106.5z" />
<glyph unicode="g" horiz-adv-x="475" d="M417.5 33q39.5 -19 61.5 -50q-19 -57 -60.5 -112t-100 -90.5t-125.5 -35.5q-65 0 -104.5 32.5t-39.5 82.5q0 42 21 95q-36 17 -60 61l101 113q-38 21 -59.5 56.5t-21.5 79.5q0 41 17 81t43 68q25 21 67.5 36t89.5 15q34 0 59 -7l83 141q20 4 42 4q42 0 81 -17l-70 -130 q-32 13 -63 13q-10 0 -26 -2l-15 -20q45 -20 71 -58t26 -88q0 -39 -17.5 -77.5t-42.5 -69.5q-25 -22 -67.5 -36.5t-88.5 -14.5q-44 0 -81 14l-23 -28q6 -9 26 -16t48 -8l133 -9q56 -4 95.5 -23zM271 361q-32 35 -90 43q-19 -55 -19 -102q0 -60 32 -95t91 -43q18 47 18 100 q0 62 -32 97zM307 -143.5q29 6.5 49 15.5t24 16q-6 14 -35.5 27.5t-82.5 16.5l-111 6q-19 1 -46 5q5 -40 43.5 -66.5t99.5 -26.5q30 0 59 6.5z" />
<glyph unicode="h" horiz-adv-x="512" d="M504 29v-29h-214v29l37 3v211q0 44 -24.5 68t-67.5 25l-33 -33l-2 -271l37 -3v-29h-215v29l37 3l-5 599l-38 -8l-10 29l185 56l14 -24l-3 -333l81 116q95 0 140 -45t45 -139v-251z" />
<glyph unicode="i" horiz-adv-x="271" d="M78 661l128 29v-114l-128 -19v104zM216 32l37 -3v-29h-215v29l37 3l-3 356l-38 -8l-10 29l181 56l14 -24z" />
<glyph unicode="j" horiz-adv-x="234" d="M191 556l-128 -19v104l128 29v-114zM204 441v-53q-2 -277 -9 -396.5t-21 -148.5q-14 -28 -58 -55.5t-90 -37.5q-86 0 -158 44l72 114q43 -46 111 -100q4 160 4 316q0 78 -2 264l-38 -8l-10 29l185 56z" />
<glyph unicode="k" horiz-adv-x="518" d="M520 70l-140 -82q-63 51 -103 158l-11 31l-65 -28l-1 -117l37 -3v-29h-215v29l37 3l-5 599l-38 -8l-10 29l185 56l14 -24l-3 -374l133 158q70 -20 103.5 -70t33.5 -133l-91 -39l6 -12q16 -38 43 -74t52 -55l27 15zM201 186l135 64q0 22 -16.5 48t-39.5 32l-78 -68z" />
<glyph unicode="l" horiz-adv-x="247" d="M22 29l37 3l-5 599l-38 -8l-10 29l185 56l14 -24l-5 -652l37 -3v-29h-215v29z" />
<glyph unicode="m" horiz-adv-x="778" d="M770 29v-29h-214v29l37 3v211q0 44 -22.5 68.5t-62.5 25.5l-37 -37v-17v-251l36 -3v-29h-214v29l37 3v211q0 44 -22.5 68t-62.5 25l-33 -33l-4 -271l37 -3v-29h-215v29l37 3l-3 358l-38 -9l-10 30l158 49l35 -112l83 119q77 0 119.5 -31t54.5 -96l89 128q92 0 135.5 -45 t43.5 -140v-251z" />
<glyph unicode="n" horiz-adv-x="521" d="M513 29v-29h-214v29l37 3v211q0 44 -24.5 68t-67.5 25l-32 -33l-4 -271l37 -3v-29h-215v29l37 3l-3 358l-38 -9l-10 30l158 49l35 -112l83 119q95 0 140 -45t45 -139v-251z" />
<glyph unicode="o" horiz-adv-x="485" d="M412 406q61 -59 61 -168q0 -47 -16.5 -97t-48.5 -88q-32 -31 -74.5 -49.5t-89.5 -18.5q-100 0 -161 59t-61 168q0 46 17 96t49 88q32 31 74.5 50t88.5 19q100 0 161 -59zM203.5 118q37.5 -47 110.5 -56q7 30 11 67t4 61q0 96 -37.5 142.5t-109.5 55.5q-7 -31 -11.5 -68 t-4.5 -60q0 -95 37.5 -142z" />
<glyph unicode="p" horiz-adv-x="511" d="M405.5 438.5q44.5 -26.5 69 -73t24.5 -105.5q0 -51 -16.5 -108.5t-40.5 -88.5q-19 -27 -69 -52.5t-84 -25.5q-25 0 -81 9l2 -212l77 -3v-29h-265v29l37 3l5 610l-38 -9l-10 30l155 49l32 -114l100 117q58 0 102.5 -26.5zM356 200q0 46 -15 80t-39.5 52t-52.5 18l-44 -44 l2 -203q66 -31 124 -42q25 57 25 139z" />
<glyph unicode="q" horiz-adv-x="507" d="M499 -221v-29h-265v29l77 3l3 314l-95 -111q-58 0 -102.5 26.5t-69.5 73t-25 105.5q0 51 17 108t41 89q19 27 69 52.5t84 25.5q45 0 117 -16.5t107 -35.5l5 -631zM314 141l2 206q-65 31 -125 42q-25 -57 -25 -139q0 -46 15 -80t39.5 -52t52.5 -18z" />
<glyph unicode="r" horiz-adv-x="392" d="M212 313l-4 -281l89 -3v-29h-267v29l37 3l-3 358l-38 -9l-10 30l158 49l34 -107q33 67 72 104q22 8 53 8q42 0 79 -15l-32 -130q-29 6 -74 11t-74 7z" />
<glyph unicode="s" horiz-adv-x="385" d="M191.5 326q21.5 -22 65.5 -52q54 -37 82 -67t28 -74q0 -39 -23 -73t-65 -54.5t-96 -20.5q-52 0 -98.5 25t-68.5 64l86 69q40 -75 82 -123q17 13 28.5 30.5t11.5 34.5q0 28 -20.5 48.5t-63.5 49.5q-35 23 -56 40t-35.5 41t-14.5 54q0 37 24.5 71t68.5 55t100 21 q43 0 81.5 -18.5t62.5 -46.5l-78 -77q-48 61 -106 109q-17 -22 -17 -57q0 -27 21.5 -49zM137 0h1h-1z" />
<glyph unicode="t" horiz-adv-x="338" d="M338 79l-122 -88q-74 0 -107.5 36.5t-33.5 117.5v266h-67v32q42 23 91.5 65.5t90.5 89.5l33 -10l-5 -138h117v-42l-119 2v-230q0 -48 18.5 -70t49.5 -22l37 21z" />
<glyph unicode="u" horiz-adv-x="522" d="M528 67l-139 -79q-32 17 -47 46.5t-15 75.5l-86 -125q-94 0 -139 45.5t-45 140.5v247l-37 3v29h178v-239q0 -45 23.5 -69.5t62.5 -25.5l43 40v262l-36 3v29h177v-282q0 -37 4.5 -55t14.5 -31l30 15z" />
<glyph unicode="v" horiz-adv-x="474" d="M484 450v-32l-29 -1l-177 -411l-101 -6l-158 417l-29 1v32h237v-32l-42 -1l87 -308l82 308l-42 1v32h172z" />
<glyph unicode="w" horiz-adv-x="741" d="M751 450v-32l-29 -1l-153 -411l-99 -6l-99 275l-94 -269l-101 -6l-157 417l-29 1v32h239v-32l-39 -1l81 -296l54 296l-34 1v32h229v-32l-34 -1l79 -293l56 293l-39 1v32h169z" />
<glyph unicode="x" horiz-adv-x="464" d="M486 32v-32h-244v32l39 1l-85 135l-50 -135l39 -1v-32h-178v32l38 1l131 166l-137 218l-39 1v32h243v-32l-39 -1l75 -118l47 118l-39 1v32h175v-32l-38 -1l-126 -149l149 -235z" />
<glyph unicode="y" horiz-adv-x="475" d="M490 450v-32l-29 -1l-127 -295q-52 -123 -107.5 -225t-100.5 -162l-118 112q124 71 222 156l-55 -3l-154 417l-29 1v32h237v-32l-42 -1l91 -306l82 306l-42 1v32h172z" />
<glyph unicode="z" horiz-adv-x="403" d="M34 104l259 225l-224 -27l-4 -35h-29v183h338v-122l-269 -212l246 39l3 28h29v-183l-349 -1v105z" />
<glyph unicode="{" horiz-adv-x="289" d="M63 269q12 -24 12 -56q0 -20 -6 -39t-17 -46q-12 -31 -18.5 -52.5t-6.5 -46.5q0 -42 21 -77t53.5 -55.5t65.5 -21.5q64 -2 106 34l-35 65q-43 -40 -92 -58q-2 16 -2 24q0 40 7 70.5t21 70.5q2 5 8 24.5t9 36t3 31.5q0 42 -33 81.5t-80 55.5q46 16 79.5 56t33.5 82 q0 19 -4 37t-9 34t-7 21q-14 40 -21 70.5t-7 70.5q0 8 2 24q48 -17 92 -59l35 65q-44 37 -106 35q-33 -1 -65.5 -21.5t-53.5 -55.5t-21 -77q0 -25 6.5 -46.5t18.5 -52.5q11 -27 17 -46t6 -39q0 -32 -12 -56.5t-30 -32.5v-18q18 -8 30 -32z" />
<glyph unicode="|" horiz-adv-x="115" d="M35 -120l4 860h41v-864z" />
<glyph unicode="}" horiz-adv-x="289" d="M226 269q-12 -24 -12 -56q0 -20 6 -39t17 -46q12 -31 18.5 -52.5t6.5 -46.5q0 -42 -21 -77t-53.5 -55.5t-65.5 -21.5q-64 -2 -106 34l35 65q43 -40 92 -58q2 16 2 24q0 40 -7 70.5t-21 70.5q-2 5 -8 24.5t-9 36t-3 31.5q0 42 33 81.5t80 55.5q-46 16 -79.5 56t-33.5 82 q0 19 4 37t9 34t7 21q14 40 21 70.5t7 70.5q0 8 -2 24q-48 -17 -92 -59l-35 65q44 37 106 35q33 -1 65.5 -21.5t53.5 -55.5t21 -77q0 -25 -6.5 -46.5t-18.5 -52.5q-11 -27 -17 -46t-6 -39q0 -32 12 -56.5t30 -32.5v-18q-18 -8 -30 -32z" />
<glyph unicode="~" horiz-adv-x="480" d="M283.5 265.5q-20.5 11.5 -50.5 35.5q-33 26 -55.5 38.5t-50.5 12.5q-24 0 -40 -17t-29 -58l-33 12q16 52 45.5 81.5t71.5 29.5q25 0 45 -11.5t51 -36.5q33 -26 55.5 -38.5t50.5 -12.5q24 0 40 17t30 58l32 -11q-35 -111 -117 -111q-25 0 -45.5 11.5z" />
<glyph unicode="&#xa1;" horiz-adv-x="246" d="M208 -221l-176 -55l35 424l113 22zM193 286l-146 -33v142l146 22v-131z" />
<glyph unicode="&#xa2;" horiz-adv-x="434" d="M415 145l16 -18q-32 -56 -78 -92.5t-100 -46.5v-120h-42v117q-87 3 -138 63.5t-51 160.5q0 61 25 121t64 100q49 24 101 32v130h42v-127q59 0 104.5 -32t73.5 -93l-115 -67q-16 45 -43 91t-47 63q-26 -25 -44.5 -72.5t-18.5 -97.5q0 -77 34 -117t96 -40t121 45z" />
<glyph unicode="&#xa3;" horiz-adv-x="518" d="M502 179v-179h-497v35l49 1q59 57 59 165q0 34 -7 67l-88 1v36h79q-2 6 -9.5 29t-11.5 45t-4 44q0 95 59 142q29 12 65 19t69 7q64 0 119 -26t97 -72l-100 -98q-33 46 -65.5 80t-81.5 73q-4 -19 -4 -43q0 -25 5.5 -50.5t17.5 -64.5q18 -68 21 -85h168v-42l-162 2 q2 -26 2 -40q0 -64 -21.5 -107.5t-65.5 -75.5q133 36 266 86l2 50z" />
<glyph unicode="&#xa4;" horiz-adv-x="469" d="M377 166l71 -93l-37 -26l-64 87q-57 -49 -132 -49q-61 0 -105 33l-52 -71l-37 26l58 76q-33 44 -33 109q0 80 48 142l-73 95l37 26l66 -90q57 49 132 49q59 0 102 -31l53 72l37 -26l-58 -76q35 -45 35 -112q0 -80 -48 -141zM314 172q4 19 4 44q0 166 -161 177 q-4 -19 -4 -44q0 -166 161 -177z" />
<glyph unicode="&#xa5;" horiz-adv-x="620" d="M613 580v-35l-49 -1l-164 -275h143v-42l-147 2v-60h147v-42l-147 2v-93l49 -1v-35h-264v35l49 1v95l-151 2v36h151v62l-151 2v36h138l-161 275l-49 1v35h299v-35l-49 -1l112 -250l71 250l-51 1v35h224z" />
<glyph unicode="&#xa6;" horiz-adv-x="115" d="M35 740h43l2 -343h-46zM38 214h42v-334h-46z" />
<glyph unicode="&#xa7;" horiz-adv-x="460" d="M391.5 88.5q19.5 -26.5 19.5 -63.5q0 -43 -25 -78.5t-70.5 -55.5t-103.5 -20q-56 0 -105.5 23t-75.5 58l91 78q44 -79 91 -129q34 0 53.5 22t19.5 60q0 35 -27 58.5t-85 56.5q-47 27 -75.5 47t-48.5 50t-20 70q0 38 26 80.5t71 70.5q-37 23 -57 50t-20 65q0 43 25.5 78 t69.5 55.5t98 20.5q53 0 98.5 -23t72.5 -58l-91 -78q-13 22 -32.5 52.5t-29.5 46.5l-19 30q-31 0 -49 -22t-18 -60q0 -35 27.5 -58.5t86.5 -56.5q48 -27 76.5 -47t49 -50t20.5 -70q0 -42 -26 -84.5t-71 -69.5q34 -22 53.5 -48.5zM188.5 229q28.5 -27 84.5 -55q32 37 32 83 q0 43 -29 70t-84 55q-32 -37 -32 -83q0 -43 28.5 -70z" />
<glyph unicode="&#xa8;" horiz-adv-x="282" d="M10 659l100 21v-92l-100 -14v85zM172 659l100 21v-92l-100 -14v85z" />
<glyph unicode="&#xa9;" horiz-adv-x="664" d="M500.5 731q71.5 -40 111.5 -112t40 -165q0 -92 -40 -164.5t-112.5 -112.5t-165.5 -40t-164.5 40t-111.5 112t-40 165q0 92 40 164.5t112.5 112.5t165.5 40t164.5 -40zM479 209q64 36 99.5 100t35.5 145t-35 145t-98.5 100t-144.5 36t-145 -36t-99.5 -100t-35.5 -145 t35 -145t98.5 -100t144.5 -36t145 36zM440 346.5q27 11.5 48 31.5l19 -15q-36 -48 -83.5 -75t-99.5 -27q-51 0 -91.5 24t-62.5 66t-22 92q0 46 18.5 86t51.5 71q68 44 127 44q47 0 87 -21t63 -57l-78 -66l-80 125q-29 -17 -46.5 -59t-17.5 -94q0 -63 30 -100t81 -37 q29 0 56 11.5z" />
<glyph unicode="&#xaa;" horiz-adv-x="275" d="M260 476l-90 -35q-14 12 -18 29q-45 -28 -75 -28q-24 0 -41 16t-17 40q0 10 3 23.5t7 20.5l122 18l1 12q1 19 -9.5 29.5t-37.5 10.5q-24 0 -44 -9l-9 -21l-19 6l23 89q40 17 85 17q46 0 74 -23t25 -69l-6 -71q-1 -8 -1 -18q0 -11 6 -22l15 5zM148 490v19l2 30l-36 -10 q-4 -10 -4 -23q0 -12 4.5 -17.5t11.5 -5.5q8 0 22 7z" />
<glyph unicode="&#xab;" horiz-adv-x="388" d="M142 227l152 -180l50 18l-150 162l150 162l-50 18zM2 227l152 -180l50 18l-150 162l150 162l-50 18z" />
<glyph unicode="&#xac;" horiz-adv-x="410" d="M356 311h-338l5 38l373 8l-8 -178h-40z" />
<glyph unicode="&#xad;" horiz-adv-x="374" d="M30 279l313 8l-10 -46h-308z" />
<glyph unicode="&#xae;" horiz-adv-x="664" d="M500.5 731q71.5 -40 111.5 -112t40 -165q0 -92 -40 -164.5t-112.5 -112.5t-165.5 -40t-164.5 40t-111.5 112t-40 165q0 92 40 164.5t112.5 112.5t165.5 40t164.5 -40zM479 209q64 36 99.5 100t35.5 145t-35 145t-98.5 100t-144.5 36t-145 -36t-99.5 -100t-35.5 -145 t35 -145t98.5 -100t144.5 -36t145 36zM508 319l26 -1v-25h-185v25l24 1l-46 104q-20 -2 -32 -2v-102l26 -1v-25h-162v25l26 1v263h-26v27l120 -1l82 6q57 0 93 -23.5t36 -65.5q0 -55 -67 -82zM295 449q70 4 70 61q0 35 -19.5 57.5t-50.5 22.5v-141z" />
<glyph unicode="&#xaf;" horiz-adv-x="288" d="M15 613l263 8l-10 -46h-258z" />
<glyph unicode="&#xb0;" horiz-adv-x="259" d="M40.5 564.5q-32.5 34.5 -32.5 85.5t32.5 85t87.5 34t87 -34t32 -85t-32 -85.5t-87 -34.5t-87.5 34.5zM186.5 590.5q22.5 22.5 22.5 59.5t-22.5 59t-58.5 22q-35 0 -57.5 -22t-22.5 -59t22 -59.5t58 -22.5t58.5 22.5z" />
<glyph unicode="&#xb1;" horiz-adv-x="344" d="M30 389l313 8l-10 -46h-308zM199 533l8 -313l-46 10v308zM20 175l313 8l-10 -46h-308z" />
<glyph unicode="&#xb2;" horiz-adv-x="268" d="M215 499h24v-118h-223l4 83q45 9 80.5 25t55.5 33.5t20 32.5t-12.5 23t-33.5 8t-43 -5t-37 -14v-23l-23 -2l-12 112q21 12 60.5 21.5t72.5 9.5q46 0 74.5 -20t28.5 -57q0 -46 -48.5 -88.5t-113.5 -61.5l124 18z" />
<glyph unicode="&#xb3;" horiz-adv-x="272" d="M226.5 532.5q26.5 -21.5 26.5 -54.5q0 -27 -17.5 -51t-50.5 -39t-75 -15q-52 0 -93 22l25 60q56 -37 113 -50q5 12 5 28q0 35 -27 52t-86 15v18l101 88l-98 -16l-1 -23h-24v111h207v-56l-107 -72q15 4 34 4q41 0 67.5 -21.5z" />
<glyph unicode="&#xb4;" horiz-adv-x="227" d="M10 566l168 134l39 -70l-189 -103z" />
<glyph unicode="&#xb5;" horiz-adv-x="517" d="M523 67l-139 -79q-50 27 -59 88l-72 -91q-71 0 -96 46l29 -281h-129v668l-37 3v29h173v-240q0 -118 96 -118l33 31v295l-36 3v29h177v-282q0 -37 4.5 -55t14.5 -31l30 15z" />
<glyph unicode="&#xb6;" horiz-adv-x="550" d="M290 296q-128 5 -198 58t-70 149q0 52 22.5 92t61 62.5t84.5 22.5l146 -10h203v-40h-74v-694h-45v694l-85 -1v-693h-45v360z" />
<glyph unicode="&#xb7;" horiz-adv-x="224" d="M35 310l146 33v-142l-146 -22v131z" />
<glyph unicode="&#xb8;" horiz-adv-x="219" d="M177.5 -84.5q31.5 -25.5 31.5 -70.5q0 -16 -7 -35t-20 -35q-14 -12 -31.5 -20t-32.5 -9q-25 0 -55.5 9.5t-52.5 22.5l35 49l81 -55q1 5 1 15q0 41 -23.5 67t-68.5 31v27l70 93l34 2l-41 -62q48 -4 79.5 -29.5z" />
<glyph unicode="&#xb9;" horiz-adv-x="227" d="M27 405l47 2l-7 191l-48 -13l-8 24l151 61l14 -24l-5 -239l47 -2v-25h-191v25z" />
<glyph unicode="&#xba;" horiz-adv-x="285" d="M234.5 663q34.5 -31 34.5 -88q0 -25 -8.5 -51t-25.5 -46q-17 -16 -42.5 -26t-52.5 -10q-57 0 -91.5 31t-34.5 88q0 24 9 50.5t25 45.5q17 16 42.5 26.5t52.5 10.5q57 0 91.5 -31zM121 513q17 -25 50 -32q8 35 8 69q0 91 -66 104q-4 -15 -6.5 -35t-2.5 -33q0 -48 17 -73z " />
<glyph unicode="&#xbb;" horiz-adv-x="387" d="M246 227l-152 -180l-50 18l150 162l-150 162l50 18zM386 227l-152 -180l-50 18l150 162l-150 162l50 18z" />
<glyph unicode="&#xbc;" horiz-adv-x="1108" d="M27 405l47 2l-7 191l-48 -13l-8 24l151 61l14 -24l-5 -239l47 -2v-25h-191v25zM258 -10l524 724l35 -18l-524 -726zM1066 453l-1 -45l29 -1v-25h-153v25l29 1l-1 45h-140v36l134 192h121l-188 -185h73l-1 51l100 25l-1 -76h38v-43h-39z" />
<glyph unicode="&#xbd;" horiz-adv-x="613" d="M583 698l-494 -726l-33 16l494 724zM27 405l47 2l-7 191l-48 -13l-8 24l151 61l14 -24l-5 -239l47 -2v-25h-191v25zM571 119h24v-118h-223l4 83q45 9 80.5 25t55.5 33.5t20 32.5t-12.5 23t-33.5 8t-43 -5t-37 -14v-23l-23 -2l-12 112q21 12 60.5 21.5t72.5 9.5 q46 0 74.5 -20t28.5 -57q0 -46 -48.5 -88.5t-113.5 -61.5l124 18z" />
<glyph unicode="&#xbe;" horiz-adv-x="704" d="M657 696l-524 -726l-35 20l524 724zM160 405q5 12 5 28q0 35 -27 52t-86 15v18l101 88l-98 -16l-1 -23h-24v111h207v-56l-107 -72q15 4 34 4q41 0 67.5 -21.5t26.5 -54.5q0 -27 -17.5 -51t-50.5 -39t-75 -15q-52 0 -93 22l25 60q56 -37 113 -50zM645 71l-1 -45l29 -1v-25 h-163v25l29 1l-1 45h-140v16l144 212h111l-198 -195h83l-1 61l104 33l6 -8l-2 -86h39v-33h-39z" />
<glyph unicode="&#xbf;" horiz-adv-x="387" d="M310 178q19 -27 19 -51q0 -23 -19.5 -45t-57.5 -54q-36 -30 -54.5 -51t-18.5 -41q0 -39 29 -62t106 -31l29 -3l18 33l26 -13l-61 -143q-28 -5 -60 -5q-102 0 -164 36t-66 107q-2 36 22.5 62.5t73.5 60.5q37 25 55 42.5t18 37.5q0 17 -9 37.5t-19 28.5l-30 -15l-14 27 l136 79q22 -10 41 -37zM303 301l-146 -33v142l146 22v-131z" />
<glyph unicode="&#xc0;" horiz-adv-x="670" d="M678 35v-35h-301v35l49 1l-46 164h-170l-33 -164l51 -1v-35h-226v35l49 1l224 626l124 17l230 -643zM369 237l-88 313l-63 -313h151zM209 848l39 70l168 -134l-18 -39z" />
<glyph unicode="&#xc1;" horiz-adv-x="670" d="M678 35v-35h-301v35l49 1l-46 164h-170l-33 -164l51 -1v-35h-226v35l49 1l224 626l124 17l230 -643zM369 237l-88 313l-63 -313h151zM281 786l168 134l39 -70l-189 -103z" />
<glyph unicode="&#xc2;" horiz-adv-x="670" d="M678 35v-35h-301v35l49 1l-46 164h-170l-33 -164l51 -1v-35h-226v35l49 1l224 626l124 17l230 -643zM369 237l-88 313l-63 -313h151zM207 781l134 107l134 -107l-21 -31l-113 53l-113 -53z" />
<glyph unicode="&#xc3;" horiz-adv-x="670" d="M678 35v-35h-301v35l49 1l-46 164h-170l-33 -164l51 -1v-35h-226v35l49 1l224 626l124 17l230 -643zM369 237l-88 313l-63 -313h151zM354.5 762q-10.5 6 -27.5 20q-13 12 -21.5 17.5t-19.5 5.5q-16 0 -31 -10.5t-27 -28.5l-22 23q17 37 42 59.5t55 22.5q14 0 24.5 -6 t27.5 -20q13 -12 21.5 -17.5t19.5 -5.5q16 0 31 10.5t27 28.5l22 -23q-17 -37 -42 -59.5t-55 -22.5q-14 0 -24.5 6z" />
<glyph unicode="&#xc4;" horiz-adv-x="670" d="M678 35v-35h-301v35l49 1l-46 164h-170l-33 -164l51 -1v-35h-226v35l49 1l224 626l124 17l230 -643zM369 237l-88 313l-63 -313h151zM210 843l100 21v-92l-100 -14v85zM372 843l100 21v-92l-100 -14v85z" />
<glyph unicode="&#xc5;" horiz-adv-x="682" d="M678 35v-35h-301v35l49 1l-46 164h-170l-33 -164l51 -1v-35h-226v35l49 1l222 621q-19 13 -29 33.5t-10 45.5q0 43 27 71.5t74 28.5q46 0 73 -28.5t27 -71.5q0 -45 -30 -73l224 -627zM289.5 781.5q-17.5 -17.5 -17.5 -45.5q0 -29 17.5 -46.5t45.5 -17.5t45.5 17.5 t17.5 46.5q0 28 -17.5 45.5t-45.5 17.5t-45.5 -17.5zM369 237l-88 313l-63 -313h151z" />
<glyph unicode="&#xc6;" horiz-adv-x="873" d="M848 179v-179h-492v35l49 1v272h-130l-98 -272l51 -1v-35h-236v35l39 1l326 634l471 3v-182l-39 1l-2 50q-68 33 -117.5 54.5t-98.5 37.5l2 -289h172v-37h-172l2 -281q89 31 232 101l2 50zM405 345v286h-13l-103 -286h116z" />
<glyph unicode="&#xc7;" horiz-adv-x="610" d="M504 118q41 18 76 52l26 -29q-123 -156 -282 -156q-91 0 -158.5 41t-104.5 116t-37 176q0 87 33.5 168.5t85.5 130.5q51 33 109.5 50.5t115.5 17.5q76 0 139.5 -32.5t100.5 -90.5l-123 -103q-52 92 -125 199q-44 -18 -80 -62t-56.5 -105t-20.5 -127q0 -126 56.5 -195 t159.5 -69q44 0 85 18zM406.5 -81.5q31.5 -25.5 31.5 -70.5q0 -16 -7 -35t-20 -35q-14 -12 -31.5 -20t-32.5 -9q-25 0 -55.5 9.5t-52.5 22.5l35 49l81 -55q1 5 1 15q0 41 -23.5 67t-68.5 31v27l70 93l34 2l-41 -62q48 -4 79.5 -29.5z" />
<glyph unicode="&#xc8;" horiz-adv-x="568" d="M543 199v-199h-507v35l49 1v598l-49 1v35h487v-194l-39 1l-2 50q-111 69 -231 116l2 -278h187v-37h-187l2 -300q128 49 247 120l2 50zM178 848l39 70l168 -134l-18 -39z" />
<glyph unicode="&#xc9;" horiz-adv-x="568" d="M543 199v-199h-507v35l49 1v598l-49 1v35h487v-194l-39 1l-2 50q-111 69 -231 116l2 -278h187v-37h-187l2 -300q128 49 247 120l2 50zM250 786l168 134l39 -70l-189 -103z" />
<glyph unicode="&#xca;" horiz-adv-x="568" d="M543 199v-199h-507v35l49 1v598l-49 1v35h487v-194l-39 1l-2 50q-111 69 -231 116l2 -278h187v-37h-187l2 -300q128 49 247 120l2 50zM176 781l134 107l134 -107l-21 -31l-113 53l-113 -53z" />
<glyph unicode="&#xcb;" horiz-adv-x="568" d="M543 199v-199h-507v35l49 1v598l-49 1v35h487v-194l-39 1l-2 50q-111 69 -231 116l2 -278h187v-37h-187l2 -300q128 49 247 120l2 50zM179 843l100 21v-92l-100 -14v85zM341 843l100 21v-92l-100 -14v85z" />
<glyph unicode="&#xcc;" horiz-adv-x="336" d="M36 35l49 1v598l-49 1v35h264v-35l-49 -1v-598l49 -1v-35h-264v35zM57.9824 877.931l52.7012 60.3447l136.425 -165.992l-25.7158 -34.3965z" />
<glyph unicode="&#xcd;" horiz-adv-x="336" d="M36 35l49 1v598l-49 1v35h264v-35l-49 -1v-598l49 -1v-35h-264v35zM95.2666 777.196l142.159 161.223l50.5957 -62.1631l-168.239 -134.342z" />
<glyph unicode="&#xce;" horiz-adv-x="336" d="M36 35l49 1v598l-49 1v35h264v-35l-49 -1v-598l49 -1v-35h-264v35zM36 781l134 107l134 -107l-21 -31l-113 53l-113 -53z" />
<glyph unicode="&#xcf;" horiz-adv-x="336" d="M36 35l49 1v598l-49 1v35h264v-35l-49 -1v-598l49 -1v-35h-264v35zM39 843l100 21v-92l-100 -14v85zM201 843l100 21v-92l-100 -14v85z" />
<glyph unicode="&#xd0;" horiz-adv-x="707" d="M601.5 597q81.5 -83 81.5 -240q0 -106 -41 -186.5t-123 -125.5t-200 -45h-283v35l49 1v279h-90l5 38l85 2v279l-49 1v35l193 -2l142 12q149 0 230.5 -83zM445.5 109q59.5 74 59.5 223q0 99 -33.5 166.5t-91 101t-129.5 33.5v-274l112 2l-10 -46h-102v-280h28 q107 0 166.5 74z" />
<glyph unicode="&#xd1;" horiz-adv-x="736" d="M700 670v-35l-49 -1l-26 -633l-121 -1l-361 568l38 -532l59 -1v-35h-204v35l49 1l17 598l-49 1v35h247l291 -451l-26 415l-59 1v35h194zM398.5 762q-10.5 6 -27.5 20q-13 12 -21.5 17.5t-19.5 5.5q-16 0 -31 -10.5t-27 -28.5l-22 23q17 37 42 59.5t55 22.5q14 0 24.5 -6 t27.5 -20q13 -12 21.5 -17.5t19.5 -5.5q16 0 31 10.5t27 28.5l22 -23q-17 -37 -42 -59.5t-55 -22.5q-14 0 -24.5 6z" />
<glyph unicode="&#xd2;" horiz-adv-x="709" d="M530.5 647q73.5 -38 114 -112t40.5 -181q0 -68 -24 -140.5t-70 -128.5q-48 -45 -110 -72.5t-132 -27.5q-97 0 -170.5 38t-114 112t-40.5 181q0 67 25 140t71 129q47 45 108.5 72.5t130.5 27.5q98 0 171.5 -38zM232 199q30 -71 91 -104.5t158 -38.5q12 50 19.5 117.5 t7.5 110.5q0 117 -30.5 188.5t-92.5 105.5t-158 38q-11 -52 -18 -121t-7 -109q0 -116 30 -187zM233 848l39 70l168 -134l-18 -39z" />
<glyph unicode="&#xd3;" horiz-adv-x="709" d="M530.5 647q73.5 -38 114 -112t40.5 -181q0 -68 -24 -140.5t-70 -128.5q-48 -45 -110 -72.5t-132 -27.5q-97 0 -170.5 38t-114 112t-40.5 181q0 67 25 140t71 129q47 45 108.5 72.5t130.5 27.5q98 0 171.5 -38zM232 199q30 -71 91 -104.5t158 -38.5q12 50 19.5 117.5 t7.5 110.5q0 117 -30.5 188.5t-92.5 105.5t-158 38q-11 -52 -18 -121t-7 -109q0 -116 30 -187zM305 786l168 134l39 -70l-189 -103z" />
<glyph unicode="&#xd4;" horiz-adv-x="709" d="M530.5 647q73.5 -38 114 -112t40.5 -181q0 -68 -24 -140.5t-70 -128.5q-48 -45 -110 -72.5t-132 -27.5q-97 0 -170.5 38t-114 112t-40.5 181q0 67 25 140t71 129q47 45 108.5 72.5t130.5 27.5q98 0 171.5 -38zM232 199q30 -71 91 -104.5t158 -38.5q12 50 19.5 117.5 t7.5 110.5q0 117 -30.5 188.5t-92.5 105.5t-158 38q-11 -52 -18 -121t-7 -109q0 -116 30 -187zM231 781l134 107l134 -107l-21 -31l-113 53l-113 -53z" />
<glyph unicode="&#xd5;" horiz-adv-x="709" d="M530.5 647q73.5 -38 114 -112t40.5 -181q0 -68 -24 -140.5t-70 -128.5q-48 -45 -110 -72.5t-132 -27.5q-97 0 -170.5 38t-114 112t-40.5 181q0 67 25 140t71 129q47 45 108.5 72.5t130.5 27.5q98 0 171.5 -38zM232 199q30 -71 91 -104.5t158 -38.5q12 50 19.5 117.5 t7.5 110.5q0 117 -30.5 188.5t-92.5 105.5t-158 38q-11 -52 -18 -121t-7 -109q0 -116 30 -187zM378.5 762q-10.5 6 -27.5 20q-13 12 -21.5 17.5t-19.5 5.5q-16 0 -31 -10.5t-27 -28.5l-22 23q17 37 42 59.5t55 22.5q14 0 24.5 -6t27.5 -20q13 -12 21.5 -17.5t19.5 -5.5 q16 0 31 10.5t27 28.5l22 -23q-17 -37 -42 -59.5t-55 -22.5q-14 0 -24.5 6z" />
<glyph unicode="&#xd6;" horiz-adv-x="709" d="M530.5 647q73.5 -38 114 -112t40.5 -181q0 -68 -24 -140.5t-70 -128.5q-48 -45 -110 -72.5t-132 -27.5q-97 0 -170.5 38t-114 112t-40.5 181q0 67 25 140t71 129q47 45 108.5 72.5t130.5 27.5q98 0 171.5 -38zM232 199q30 -71 91 -104.5t158 -38.5q12 50 19.5 117.5 t7.5 110.5q0 117 -30.5 188.5t-92.5 105.5t-158 38q-11 -52 -18 -121t-7 -109q0 -116 30 -187zM234 843l100 21v-92l-100 -14v85zM396 843l100 21v-92l-100 -14v85z" />
<glyph unicode="&#xd7;" horiz-adv-x="328" d="M279 178l-113 118l-118 -119l-24 40l114 108l-110 115l21 26l117 -114l120 115l18 -31l-110 -111l112 -110z" />
<glyph unicode="&#xd8;" horiz-adv-x="709" d="M530.5 647q73.5 -38 114 -112t40.5 -181q0 -68 -24 -140.5t-70 -128.5q-48 -45 -110 -72.5t-132 -27.5q-97 0 -170.5 38t-114 112t-40.5 181q0 67 25 140t71 129q47 45 108.5 72.5t130.5 27.5q98 0 171.5 -38zM227 616q-11 -52 -18 -121t-7 -109q0 -147 49 -223l187 372 q-65 75 -211 81zM481 56q12 50 19.5 117.5t7.5 110.5q0 142 -46 218l-186 -371q66 -69 205 -75z" />
<glyph unicode="&#xd9;" horiz-adv-x="726" d="M700 670v-35l-49 -1v-634h-32l-128 84q-37 -45 -89 -72t-109 -27q-104 0 -161 66t-57 205v378l-49 1v35h267v-35l-49 -1v-353q0 -92 38 -137.5t104 -45.5q56 0 99 23v513l-49 1v35h264zM236 848l39 70l168 -134l-18 -39z" />
<glyph unicode="&#xda;" horiz-adv-x="726" d="M700 670v-35l-49 -1v-634h-32l-128 84q-37 -45 -89 -72t-109 -27q-104 0 -161 66t-57 205v378l-49 1v35h267v-35l-49 -1v-353q0 -92 38 -137.5t104 -45.5q56 0 99 23v513l-49 1v35h264zM308 786l168 134l39 -70l-189 -103z" />
<glyph unicode="&#xdb;" horiz-adv-x="726" d="M700 670v-35l-49 -1v-634h-32l-128 84q-37 -45 -89 -72t-109 -27q-104 0 -161 66t-57 205v378l-49 1v35h267v-35l-49 -1v-353q0 -92 38 -137.5t104 -45.5q56 0 99 23v513l-49 1v35h264zM234 781l134 107l134 -107l-21 -31l-113 53l-113 -53z" />
<glyph unicode="&#xdc;" horiz-adv-x="726" d="M700 670v-35l-49 -1v-634h-32l-128 84q-37 -45 -89 -72t-109 -27q-104 0 -161 66t-57 205v378l-49 1v35h267v-35l-49 -1v-353q0 -92 38 -137.5t104 -45.5q56 0 99 23v513l-49 1v35h264zM237 843l100 21v-92l-100 -14v85zM399 843l100 21v-92l-100 -14v85z" />
<glyph unicode="&#xdd;" horiz-adv-x="636" d="M634 670v-35l-42 -1l-191 -348v-250l49 -1v-35h-264v35l49 1v235l-191 363l-42 1v35h294v-35l-49 -1l127 -290l92 290l-51 1v35h219zM298 786l168 134l39 -70l-189 -103z" />
<glyph unicode="&#xde;" horiz-adv-x="611" d="M516 202q-89 -62 -265 -66v-100l69 -1v-35h-284v35l49 1v598l-49 1v35h284v-35l-69 -1v-74l126 10q71 0 123 -27.5t78.5 -70.5t26.5 -89q0 -119 -89 -181zM404.5 434.5q-22.5 41.5 -63 66t-90.5 24.5v-350q90 4 133 45.5t43 121.5q0 51 -22.5 92.5z" />
<glyph unicode="&#xdf;" horiz-adv-x="545" d="M398.5 333q15.5 -15 47.5 -36q41 -25 62 -48.5t21 -62.5q0 -43 -28.5 -90t-73.5 -78.5t-90 -31.5q-69 0 -114 33l67 86q75 -48 137 -51q4 18 4 28q0 33 -19.5 53t-57.5 44q-40 25 -59.5 46t-19.5 55q0 31 54 100l38 48v12q0 55 -34 88.5t-83 33.5q-26 0 -55 -6v-556h-189 v35l49 1v445l65 146q23 32 71 55.5t96 23.5q98 0 146.5 -59.5t48.5 -146.5l-64 -73q-20 -22 -27.5 -34.5t-7.5 -21.5q0 -23 15.5 -38z" />
<glyph unicode="&#xe0;" horiz-adv-x="428" d="M428 52l-147 -69q-27 19 -37 52q-36 -22 -72.5 -36t-63.5 -14q-41 0 -67 29t-26 74q0 20 4.5 43.5t11.5 37.5l212 34l2 29q2 45 -19 70.5t-68 25.5q-21 0 -44 -4.5t-39 -11.5l-16 -34l-27 10l46 144q77 33 146 33q71 0 116 -37.5t45 -117.5l-1 -20l-10 -135l-2 -36 q0 -18 3 -28.5t10 -21.5l31 12zM238 69l-1 21l1 22l3 57l-77 -18q-4 -13 -4 -35q0 -30 12 -44.5t29 -14.5q16 0 37 12zM116 630l39 70l168 -134l-18 -39z" />
<glyph unicode="&#xe1;" horiz-adv-x="428" d="M428 52l-147 -69q-27 19 -37 52q-36 -22 -72.5 -36t-63.5 -14q-41 0 -67 29t-26 74q0 20 4.5 43.5t11.5 37.5l212 34l2 29q2 45 -19 70.5t-68 25.5q-21 0 -44 -4.5t-39 -11.5l-16 -34l-27 10l46 144q77 33 146 33q71 0 116 -37.5t45 -117.5l-1 -20l-10 -135l-2 -36 q0 -18 3 -28.5t10 -21.5l31 12zM238 69l-1 21l1 22l3 57l-77 -18q-4 -13 -4 -35q0 -30 12 -44.5t29 -14.5q16 0 37 12zM115 566l168 134l39 -70l-189 -103z" />
<glyph unicode="&#xe2;" horiz-adv-x="428" d="M428 52l-147 -69q-27 19 -37 52q-36 -22 -72.5 -36t-63.5 -14q-41 0 -67 29t-26 74q0 20 4.5 43.5t11.5 37.5l212 34l2 29q2 45 -19 70.5t-68 25.5q-21 0 -44 -4.5t-39 -11.5l-16 -34l-27 10l46 144q77 33 146 33q71 0 116 -37.5t45 -117.5l-1 -20l-10 -135l-2 -36 q0 -18 3 -28.5t10 -21.5l31 12zM238 69l-1 21l1 22l3 57l-77 -18q-4 -13 -4 -35q0 -30 12 -44.5t29 -14.5q16 0 37 12zM85 585l134 107l134 -107l-21 -31l-113 53l-113 -53z" />
<glyph unicode="&#xe3;" horiz-adv-x="428" d="M428 52l-147 -69q-27 19 -37 52q-36 -22 -72.5 -36t-63.5 -14q-41 0 -67 29t-26 74q0 20 4.5 43.5t11.5 37.5l212 34l2 29q2 45 -19 70.5t-68 25.5q-21 0 -44 -4.5t-39 -11.5l-16 -34l-27 10l46 144q77 33 146 33q71 0 116 -37.5t45 -117.5l-1 -20l-10 -135l-2 -36 q0 -18 3 -28.5t10 -21.5l31 12zM238 69l-1 21l1 22l3 57l-77 -18q-4 -13 -4 -35q0 -30 12 -44.5t29 -14.5q16 0 37 12zM232.5 566q-10.5 6 -27.5 20q-13 12 -21.5 17.5t-19.5 5.5q-16 0 -31 -10.5t-27 -28.5l-22 23q17 37 42 59.5t55 22.5q14 0 24.5 -6t27.5 -20 q13 -12 21.5 -17.5t19.5 -5.5q16 0 31 10.5t27 28.5l22 -23q-17 -37 -42 -59.5t-55 -22.5q-14 0 -24.5 6z" />
<glyph unicode="&#xe4;" horiz-adv-x="428" d="M428 52l-147 -69q-27 19 -37 52q-36 -22 -72.5 -36t-63.5 -14q-41 0 -67 29t-26 74q0 20 4.5 43.5t11.5 37.5l212 34l2 29q2 45 -19 70.5t-68 25.5q-21 0 -44 -4.5t-39 -11.5l-16 -34l-27 10l46 144q77 33 146 33q71 0 116 -37.5t45 -117.5l-1 -20l-10 -135l-2 -36 q0 -18 3 -28.5t10 -21.5l31 12zM238 69l-1 21l1 22l3 57l-77 -18q-4 -13 -4 -35q0 -30 12 -44.5t29 -14.5q16 0 37 12zM88 647l100 21v-92l-100 -14v85zM250 647l100 21v-92l-100 -14v85z" />
<glyph unicode="&#xe5;" horiz-adv-x="428" d="M428 52l-147 -69q-27 19 -37 52q-36 -22 -72.5 -36t-63.5 -14q-41 0 -67 29t-26 74q0 20 4.5 43.5t11.5 37.5l212 34l2 29q2 45 -19 70.5t-68 25.5q-21 0 -44 -4.5t-39 -11.5l-16 -34l-27 10l46 144q77 33 146 33q71 0 116 -37.5t45 -117.5l-1 -20l-10 -135l-2 -36 q0 -18 3 -28.5t10 -21.5l31 12zM238 69l-1 21l1 22l3 57l-77 -18q-4 -13 -4 -35q0 -30 12 -44.5t29 -14.5q16 0 37 12zM146 570q-27 29 -27 72t27 71.5t74 28.5q46 0 73 -28.5t27 -71.5t-27 -72t-73 -29q-47 0 -74 29zM265.5 595.5q17.5 17.5 17.5 46.5q0 28 -17.5 45.5 t-45.5 17.5t-45.5 -17.5t-17.5 -45.5q0 -29 17.5 -46.5t45.5 -17.5t45.5 17.5z" />
<glyph unicode="&#xe6;" horiz-adv-x="655" d="M597 401.5q49 -63.5 48 -171.5l-272 -10q16 -117 148 -117q55 0 104 30l18 -16q-36 -61 -91 -96.5t-117 -35.5q-104 0 -154 62q-38 -27 -87 -44.5t-85 -17.5q-41 0 -67 29t-26 74q0 20 4.5 43.5t11.5 37.5l209 34v6v0q1 62 -18 90.5t-67 28.5q-20 0 -42 -4.5t-38 -11.5 l-16 -34l-27 10l46 144q77 33 143 33q70 0 110 -37q50 37 133 37t132 -63.5zM488 263q-1 61 -17 104.5t-41 54.5q-26 -27 -42.5 -73t-16.5 -94v-2zM263 76q-19 38 -22 93l-76 -18q-4 -13 -4 -35q0 -28 10.5 -43.5t29.5 -15.5q33 0 62 19z" />
<glyph unicode="&#xe7;" horiz-adv-x="434" d="M415 145l16 -18q-37 -64 -92.5 -103t-119.5 -39q-90 0 -143.5 60.5t-53.5 163.5q0 61 25 121t64 100q34 17 71 26t71 9q59 0 105 -32t74 -93l-115 -67q-16 45 -43 91t-47 63q-26 -25 -44.5 -72.5t-18.5 -97.5q0 -77 34 -117t96 -40t121 45zM306.5 -81.5 q31.5 -25.5 31.5 -70.5q0 -16 -7 -35t-20 -35q-14 -12 -31.5 -20t-32.5 -9q-25 0 -55.5 9.5t-52.5 22.5l35 49l81 -55q1 5 1 15q0 41 -23.5 67t-68.5 31v27l70 93l34 2l-41 -62q48 -4 79.5 -29.5z" />
<glyph unicode="&#xe8;" horiz-adv-x="451" d="M391.5 401.5q50.5 -63.5 49.5 -171.5l-276 -9q7 -59 41 -90t90 -31q78 0 127 43l18 -16q-35 -67 -94.5 -104.5t-126.5 -37.5q-91 0 -144.5 60.5t-53.5 163.5q0 61 24.5 121t62.5 100q26 15 67 25t77 10q88 0 138.5 -63.5zM293 263q-1 70 -20 111t-54 49 q-25 -26 -40.5 -72.5t-15.5 -95.5v-3zM138 630l39 70l168 -134l-18 -39z" />
<glyph unicode="&#xe9;" horiz-adv-x="451" d="M391.5 401.5q50.5 -63.5 49.5 -171.5l-276 -9q7 -59 41 -90t90 -31q78 0 127 43l18 -16q-35 -67 -94.5 -104.5t-126.5 -37.5q-91 0 -144.5 60.5t-53.5 163.5q0 61 24.5 121t62.5 100q26 15 67 25t77 10q88 0 138.5 -63.5zM293 263q-1 70 -20 111t-54 49 q-25 -26 -40.5 -72.5t-15.5 -95.5v-3zM137 566l168 134l39 -70l-189 -103z" />
<glyph unicode="&#xea;" horiz-adv-x="451" d="M391.5 401.5q50.5 -63.5 49.5 -171.5l-276 -9q7 -59 41 -90t90 -31q78 0 127 43l18 -16q-35 -67 -94.5 -104.5t-126.5 -37.5q-91 0 -144.5 60.5t-53.5 163.5q0 61 24.5 121t62.5 100q26 15 67 25t77 10q88 0 138.5 -63.5zM293 263q-1 70 -20 111t-54 49 q-25 -26 -40.5 -72.5t-15.5 -95.5v-3zM107 585l134 107l134 -107l-21 -31l-113 53l-113 -53z" />
<glyph unicode="&#xeb;" horiz-adv-x="451" d="M391.5 401.5q50.5 -63.5 49.5 -171.5l-276 -9q7 -59 41 -90t90 -31q78 0 127 43l18 -16q-35 -67 -94.5 -104.5t-126.5 -37.5q-91 0 -144.5 60.5t-53.5 163.5q0 61 24.5 121t62.5 100q26 15 67 25t77 10q88 0 138.5 -63.5zM293 263q-1 70 -20 111t-54 49 q-25 -26 -40.5 -72.5t-15.5 -95.5v-3zM110 647l100 21v-92l-100 -14v85zM272 647l100 21v-92l-100 -14v85z" />
<glyph unicode="&#xec;" horiz-adv-x="271" d="M38 29l37 3l-3 356l-38 -8l-10 29l181 56l14 -24l-3 -409l37 -3v-29h-215v29zM8.48242 656.85l55.8047 57.5137l127.567 -172.954l-27.4893 -33.0088z" />
<glyph unicode="&#xed;" horiz-adv-x="271" d="M38 29l37 3l-3 356l-38 -8l-10 29l181 56l14 -24l-3 -409l37 -3v-29h-215v29zM78.7129 541.158l127.568 172.954l55.8037 -57.5137l-155.883 -148.449z" />
<glyph unicode="&#xee;" horiz-adv-x="271" d="M38 29l37 3l-3 356l-38 -8l-10 29l181 56l14 -24l-3 -409l37 -3v-29h-215v29zM10 585l134 107l134 -107l-21 -31l-113 53l-113 -53z" />
<glyph unicode="&#xef;" horiz-adv-x="271" d="M38 29l37 3l-3 356l-38 -8l-10 29l181 56l14 -24l-3 -409l37 -3v-29h-215v29zM13 647l100 21v-92l-100 -14v85zM175 647l100 21v-92l-100 -14v85z" />
<glyph unicode="&#xf0;" horiz-adv-x="501" d="M441 452.5q48 -92.5 48 -184.5q0 -137 -71 -214q-32 -31 -76.5 -50t-92.5 -19q-103 0 -165 57t-62 165q0 41 17 85.5t49 83.5q40 29 93 48.5t110 21.5q-27 59 -63 106l-83 -59l-18 34l75 56q-46 52 -108 87l8 35q92 -15 172 -68l87 65l19 -44l-68 -48q81 -65 129 -157.5z M206.5 119.5q40.5 -43.5 120.5 -50.5q12 62 12 153q0 71 -18 137q-81 7 -138 6q-8 -28 -12.5 -59.5t-4.5 -50.5q0 -92 40.5 -135.5z" />
<glyph unicode="&#xf1;" horiz-adv-x="521" d="M513 29v-29h-214v29l37 3v211q0 44 -24.5 68t-67.5 25l-32 -33l-4 -271l37 -3v-29h-215v29l37 3l-3 358l-38 -9l-10 30l158 49l35 -112l83 119q95 0 140 -45t45 -139v-251zM283.5 566q-10.5 6 -27.5 20q-13 12 -21.5 17.5t-19.5 5.5q-16 0 -31 -10.5t-27 -28.5l-22 23 q17 37 42 59.5t55 22.5q14 0 24.5 -6t27.5 -20q13 -12 21.5 -17.5t19.5 -5.5q16 0 31 10.5t27 28.5l22 -23q-17 -37 -42 -59.5t-55 -22.5q-14 0 -24.5 6z" />
<glyph unicode="&#xf2;" horiz-adv-x="485" d="M412 406q61 -59 61 -168q0 -47 -16.5 -97t-48.5 -88q-32 -31 -74.5 -49.5t-89.5 -18.5q-100 0 -161 59t-61 168q0 46 17 96t49 88q32 31 74.5 50t88.5 19q100 0 161 -59zM203.5 118q37.5 -47 110.5 -56q7 30 11 67t4 61q0 96 -37.5 142.5t-109.5 55.5q-7 -31 -11.5 -68 t-4.5 -60q0 -95 37.5 -142zM132.482 658.85l55.8047 57.5137l127.567 -172.954l-27.4893 -33.0088z" />
<glyph unicode="&#xf3;" horiz-adv-x="485" d="M412 406q61 -59 61 -168q0 -47 -16.5 -97t-48.5 -88q-32 -31 -74.5 -49.5t-89.5 -18.5q-100 0 -161 59t-61 168q0 46 17 96t49 88q32 31 74.5 50t88.5 19q100 0 161 -59zM203.5 118q37.5 -47 110.5 -56q7 30 11 67t4 61q0 96 -37.5 142.5t-109.5 55.5q-7 -31 -11.5 -68 t-4.5 -60q0 -95 37.5 -142zM194.713 542.158l127.568 172.954l55.8037 -57.5137l-155.883 -148.449z" />
<glyph unicode="&#xf4;" horiz-adv-x="485" d="M412 406q61 -59 61 -168q0 -47 -16.5 -97t-48.5 -88q-32 -31 -74.5 -49.5t-89.5 -18.5q-100 0 -161 59t-61 168q0 46 17 96t49 88q32 31 74.5 50t88.5 19q100 0 161 -59zM203.5 118q37.5 -47 110.5 -56q7 30 11 67t4 61q0 96 -37.5 142.5t-109.5 55.5q-7 -31 -11.5 -68 t-4.5 -60q0 -95 37.5 -142zM113 585l134 107l134 -107l-21 -31l-113 53l-113 -53z" />
<glyph unicode="&#xf5;" horiz-adv-x="485" d="M412 406q61 -59 61 -168q0 -47 -16.5 -97t-48.5 -88q-32 -31 -74.5 -49.5t-89.5 -18.5q-100 0 -161 59t-61 168q0 46 17 96t49 88q32 31 74.5 50t88.5 19q100 0 161 -59zM203.5 118q37.5 -47 110.5 -56q7 30 11 67t4 61q0 96 -37.5 142.5t-109.5 55.5q-7 -31 -11.5 -68 t-4.5 -60q0 -95 37.5 -142zM260.5 566q-10.5 6 -27.5 20q-13 12 -21.5 17.5t-19.5 5.5q-16 0 -31 -10.5t-27 -28.5l-22 23q17 37 42 59.5t55 22.5q14 0 24.5 -6t27.5 -20q13 -12 21.5 -17.5t19.5 -5.5q16 0 31 10.5t27 28.5l22 -23q-17 -37 -42 -59.5t-55 -22.5 q-14 0 -24.5 6z" />
<glyph unicode="&#xf6;" horiz-adv-x="485" d="M412 406q61 -59 61 -168q0 -47 -16.5 -97t-48.5 -88q-32 -31 -74.5 -49.5t-89.5 -18.5q-100 0 -161 59t-61 168q0 46 17 96t49 88q32 31 74.5 50t88.5 19q100 0 161 -59zM203.5 118q37.5 -47 110.5 -56q7 30 11 67t4 61q0 96 -37.5 142.5t-109.5 55.5q-7 -31 -11.5 -68 t-4.5 -60q0 -95 37.5 -142zM116 647l100 21v-92l-100 -14v85zM278 647l100 21v-92l-100 -14v85z" />
<glyph unicode="&#xf7;" horiz-adv-x="415" d="M134 532l146 33v-142l-146 -22v131zM21 351l379 8l-12 -46h-373zM134 239l146 33v-142l-146 -22v131z" />
<glyph unicode="&#xf8;" horiz-adv-x="485" d="M412 406q61 -59 61 -168q0 -47 -16.5 -97t-48.5 -88q-32 -31 -74.5 -49.5t-89.5 -18.5q-100 0 -161 59t-61 168q0 46 17 96t49 88q32 31 74.5 50t88.5 19q100 0 161 -59zM182 388q-7 -31 -11.5 -68t-4.5 -60q0 -75 24 -120l98 196q-34 42 -106 52zM314 62q7 30 11 67 t4 61q0 66 -19 110l-96 -193q36 -36 100 -45z" />
<glyph unicode="&#xf9;" horiz-adv-x="522" d="M528 67l-139 -79q-32 17 -47 46.5t-15 75.5l-86 -125q-94 0 -139 45.5t-45 140.5v247l-37 3v29h178v-239q0 -45 23.5 -69.5t62.5 -25.5l43 40v262l-36 3v29h177v-282q0 -37 4.5 -55t14.5 -31l30 15zM160 630l39 70l168 -134l-18 -39z" />
<glyph unicode="&#xfa;" horiz-adv-x="522" d="M528 67l-139 -79q-32 17 -47 46.5t-15 75.5l-86 -125q-94 0 -139 45.5t-45 140.5v247l-37 3v29h178v-239q0 -45 23.5 -69.5t62.5 -25.5l43 40v262l-36 3v29h177v-282q0 -37 4.5 -55t14.5 -31l30 15zM159 566l168 134l39 -70l-189 -103z" />
<glyph unicode="&#xfb;" horiz-adv-x="522" d="M528 67l-139 -79q-32 17 -47 46.5t-15 75.5l-86 -125q-94 0 -139 45.5t-45 140.5v247l-37 3v29h178v-239q0 -45 23.5 -69.5t62.5 -25.5l43 40v262l-36 3v29h177v-282q0 -37 4.5 -55t14.5 -31l30 15zM129 585l134 107l134 -107l-21 -31l-113 53l-113 -53z" />
<glyph unicode="&#xfc;" horiz-adv-x="522" d="M528 67l-139 -79q-32 17 -47 46.5t-15 75.5l-86 -125q-94 0 -139 45.5t-45 140.5v247l-37 3v29h178v-239q0 -45 23.5 -69.5t62.5 -25.5l43 40v262l-36 3v29h177v-282q0 -37 4.5 -55t14.5 -31l30 15zM132 647l100 21v-92l-100 -14v85zM294 647l100 21v-92l-100 -14v85z " />
<glyph unicode="&#xfd;" horiz-adv-x="475" d="M490 450v-32l-29 -1l-127 -295q-52 -123 -107.5 -225t-100.5 -162l-118 112q124 71 222 156l-55 -3l-154 417l-29 1v32h237v-32l-42 -1l91 -306l82 306l-42 1v32h172zM167 566l168 134l39 -70l-189 -103z" />
</font>
</defs>
</svg>
