<?xml version="1.0" standalone="no"?>
<!DOCTYPE svg PUBLIC "-//W3C//DTD SVG 1.1//EN" "http://www.w3.org/Graphics/SVG/1.1/DTD/svg11.dtd" >
<svg xmlns="http://www.w3.org/2000/svg" xmlns:xlink="http://www.w3.org/1999/xlink" version="1.1">
<metadata></metadata>
<defs>
<font id="viprawybold-boldbold" horiz-adv-x="1014" >
<font-face units-per-em="2048" ascent="1638" descent="-410" />
<missing-glyph horiz-adv-x="508" />
<glyph unicode="&#xd;" horiz-adv-x="508" />
<glyph horiz-adv-x="0" />
<glyph horiz-adv-x="0" />
<glyph unicode=" "  horiz-adv-x="508" />
<glyph unicode="&#x09;" horiz-adv-x="508" />
<glyph unicode="&#xa0;" horiz-adv-x="508" />
<glyph unicode="!" horiz-adv-x="511" d="M85 103q25 123 120 123h10q126 -18 126 -112v-22q0 -86 -117 -112h-15q-100 0 -124 123zM116 415v964q18 83 98 83h12q81 0 98 -88v-958q-21 -90 -104 -90q-104 15 -104 89z" />
<glyph unicode="&#x22;" horiz-adv-x="557" d="M54 1480q20 99 109 99q97 -24 97 -89q-22 -331 -73 -331l-28 -8q-78 0 -85 143zM298 1490q0 71 107 89q73 0 99 -95q-31 -317 -58 -317q-17 -16 -43 -16h-4q-81 0 -81 155z" />
<glyph unicode="#" horiz-adv-x="1336" d="M145 555v5q0 66 97 88h137l30 152h-110q-97 19 -97 96q15 91 67 91v7l65 -7h112q82 438 110 438q28 22 67 22q83 0 96 -95l-71 -365h169q77 402 94 425q37 39 89 39q89 -25 89 -84v-11q0 -31 -71 -369h78l34 4q78 0 98 -96q-19 -95 -100 -95h-149l-29 -152h111 q111 -10 111 -97q-18 -90 -72 -90v-10l-47 10h-142q-80 -404 -96 -438q-34 -45 -83 -45h-11q-89 19 -89 88v5l79 390h-186q12 0 -28 -229q-43 -208 -59 -218q-29 -40 -82 -40q-98 19 -98 97l79 390h-70l-22 -4q-81 0 -100 98zM580 648h169l29 152h-168z" />
<glyph unicode="$" d="M46 224q16 94 99 94q54 0 127 -92q78 -51 115 -53v544q-124 39 -178 116q-105 108 -105 250v28q0 199 205 322q71 34 78 34v122q25 83 90 83h20q71 0 90 -91v-112q80 -6 203 -117q49 -49 49 -79v-23q0 -66 -97 -82q-45 0 -117 80q-28 24 -38 27v-418q171 -63 249 -210 q61 -114 61 -217q0 -290 -303 -422l-7 -1v-113q-22 -92 -101 -92q-99 21 -99 94v104q0 -11 -71 0q-184 63 -265 195zM301 1060q0 -114 86 -160v340q-86 -42 -86 -149v-31zM587 197q109 77 109 193v39q0 133 -109 200v-432z" />
<glyph unicode="%" horiz-adv-x="1610" d="M75 1076q0 248 265 362q56 18 112 18h19q181 0 306 -162q71 -105 71 -215q0 -244 -257 -362q-75 -21 -124 -21h-7q-226 0 -345 217q-40 80 -40 163zM219 64v16q0 37 110 170l896 1183q33 23 61 23h14q90 -19 90 -89v-15q0 -28 -144 -211l-863 -1140q-40 -21 -63 -21h-7 q-94 20 -94 84zM273 1072q0 -137 147 -185l33 -3h18q128 0 176 153l4 40q0 140 -145 188l-44 7q-131 0 -182 -143l-7 -51v-6zM764 348v23q0 200 201 323q98 49 184 49q227 0 357 -233q28 -83 28 -146v-12q0 -222 -236 -343q-75 -29 -149 -29h-7q-199 0 -325 189 q-53 91 -53 179zM958 363q0 -136 138 -189l48 -6h13q124 0 175 146l4 32v25q0 135 -155 181l-34 4q-137 0 -185 -161z" />
<glyph unicode="&#x26;" horiz-adv-x="1457" d="M105 391q0 202 218 380l33 36q-179 167 -179 239q-8 0 -8 88q0 198 216 302q60 17 105 17h19q211 0 309 -227q12 -51 12 -88v-19q0 -154 -161 -283l-26 -28l293 -293l139 140q35 25 67 25q93 0 105 -103q0 -51 -139 -173l-29 -31l205 -207q20 -24 20 -52v-14 q-19 -90 -97 -90h-11q-55 0 -161 122l-100 98q-205 -223 -279 -223q-66 -27 -139 -27q-236 0 -372 233q-40 93 -40 178zM314 379q0 -135 150 -193l51 -7q115 0 228 143l49 50l-293 293q-181 -162 -181 -237l-4 -31v-18zM379 1119q0 -67 121 -170q125 110 125 170v15 q0 83 -96 121l-33 3q-73 0 -111 -84l-6 -27v-28z" />
<glyph unicode="'" horiz-adv-x="346" d="M67 1467q20 99 109 99q97 -24 97 -89q-22 -331 -73 -331l-28 -8q-78 0 -85 143z" />
<glyph unicode="(" horiz-adv-x="758" d="M302 610q0 484 225 970q39 36 76 36h14q91 -17 91 -88v-15l-77 -205q-130 -351 -130 -719q0 -460 206 -910l5 -19q-17 -98 -98 -98h-7q-85 0 -128 153q-177 411 -177 895z" />
<glyph unicode=")" horiz-adv-x="758" d="M41 -337l83 206q129 365 129 723q0 450 -206 911l-5 19q16 98 98 98h15q72 0 120 -153q177 -421 177 -871q0 -531 -233 -1005q-41 -27 -71 -27h-8q-82 0 -99 99z" />
<glyph unicode="*" horiz-adv-x="1024" d="M205 1327v4q0 77 102 96q41 0 149 -80l-39 126v10q0 74 106 97q100 -25 100 -97v-10l-38 -123l114 72l35 5q101 -19 101 -96v-12q0 -53 -79 -88l-130 4h-13l115 -94l15 -39v-23q0 -75 -98 -92q-98 0 -116 129l-7 23l-28 -95q-39 -57 -99 -57q-98 22 -98 88v16 q0 57 101 115l33 28l-146 -3q-80 32 -80 96z" />
<glyph unicode="+" d="M111 740v5q0 69 102 92h202v209q18 91 97 91h12q81 0 97 -95v-205h188q116 -10 116 -101q-19 -95 -76 -95v-10l-48 10h-180v-209q-17 -95 -101 -95h-7q-98 19 -98 88v216h-177l-24 -4q-83 0 -103 103z" />
<glyph unicode="," horiz-adv-x="557" d="M81 146v4q0 94 117 141q21 11 56 11h19q158 -33 158 -149l11 -11l-10 -10l7 -53v-17q0 -195 -195 -292q-42 -28 -74 -28q-64 0 -77 79q0 64 99 83q33 20 71 70l3 10l-12 -2q-173 29 -173 164z" />
<glyph unicode="-" horiz-adv-x="922" d="M-25 390v142h767v-142h-767z" />
<glyph unicode="." horiz-adv-x="557" d="M105 138q0 101 113 147q19 9 51 9q126 0 160 -143v-26q0 -87 -109 -135q-19 -10 -51 -10h-4q-134 0 -160 158z" />
<glyph unicode="/" horiz-adv-x="770" d="M-21 -43q4 31 558 1533q46 47 94 47q98 -17 98 -92v-23q-505 -1392 -559 -1522q-40 -43 -82 -43h-8q-84 0 -101 100z" />
<glyph unicode="0" horiz-adv-x="305" d="M36 373v186h212v-186h-212z" />
<glyph unicode="1" horiz-adv-x="305" d="M36 -20v1269h212v-186h-37v-1083h-175z" />
<glyph unicode="2" horiz-adv-x="1001" d="M36 -20v843q6 171 136 301t320 129q190 1 322 -131t132 -337l-189 2q0 136 -80 219q-81 78 -193 78t-192 -80t-81 -167h2l-2 -857h-175z" />
<glyph unicode="3" horiz-adv-x="1013" d="M36 1249h177v-508h171v508h177v-508h220v512h175v-677h-743v-596h-175z" />
<glyph unicode="4" horiz-adv-x="825" d="M36 898q0 149 108 257t263 108t263 -106q59 -58 86 -138l-161 -81q-55 152 -187 152q-76 0 -134 -56t-57 -138q0 -82 58 -140t132 -58h214v-163h-198q-76 0 -133 -57t-57 -139t57 -138t133 -56q139 0 187 152l163 -81q-33 -82 -90 -140q-107 -106 -261 -106t-262 108 t-108 258t107 254q19 20 21 21q-18 14 -38 31q-106 107 -106 256z" />
<glyph unicode="5" horiz-adv-x="1001" d="M36 574q0 184 132 318q132 132 323 132q189 0 321 -132t132 -318t-130 -315t-304 -136q-202 4 -347 138v2q-127 127 -127 311zM219 566q0 -117 83 -198q64 -66 156 -78h70v-2q78 2 158 82t79 196q0 117 -80 200q-81 78 -193 78t-192 -80t-81 -198z" />
<glyph unicode="6" horiz-adv-x="755" d="M36 1063v186h662v-1269h-175v1083h-487z" />
<glyph unicode="7" horiz-adv-x="1015" d="M29 1204l183 -11l285 -976l281 968l188 21l-357 -1224h-224z" />
<glyph unicode="8" horiz-adv-x="1015" d="M29 -20l356 1222h224l356 -1224l-187 20l-281 969l-285 -976z" />
<glyph unicode="9" horiz-adv-x="1001" d="M34 786v11q0 183 132 315t323 133h10q183 -3 311 -131t134 -299v-837h-175v369h-280q-193 0 -323 131t-132 308zM223 786q4 -110 83 -188t191 -78h272v289q-1 107 -81 187t-189 80h-2q-113 0 -193 -80t-81 -197v-13z" />
<glyph unicode=":" horiz-adv-x="557" d="M143 166q30 138 137 138h16q116 0 145 -130v-22q0 -102 -144 -137q-154 27 -154 151zM143 830q29 142 143 142t155 -122v-34q0 -88 -124 -132h-27q-147 22 -147 146z" />
<glyph unicode=";" horiz-adv-x="557" d="M102 -132q17 66 83 66l17 -3q80 43 80 53l16 5q-160 26 -160 145q0 101 120 144h33q153 0 153 -212v-4q0 -199 -244 -280h-28q-70 15 -70 68v18zM118 804q29 142 143 142t155 -122v-34q0 -88 -124 -132h-27q-147 22 -147 146z" />
<glyph unicode="&#x3c;" d="M89 626q0 71 123 125q576 371 610 371h12q97 -24 97 -96v-8q0 -68 -137 -134q-5 -8 -413 -257l519 -323q31 -36 31 -70v-4q0 -82 -103 -96q-42 0 -166 84l-538 334q-35 39 -35 74z" />
<glyph unicode="=" d="M111 428q0 70 102 93h610q102 -20 102 -102q-20 -94 -101 -94h-620q-78 0 -93 103zM111 762q25 91 101 91h612q80 0 101 -100q-22 -96 -101 -96h-612q-88 0 -101 105z" />
<glyph unicode="&#x3e;" d="M112 248v4q0 69 139 136l406 260q-493 302 -521 329q-24 34 -24 64q20 99 105 99q38 0 251 -140q430 -265 465 -296q21 -28 21 -56v-8q0 -68 -108 -113q-587 -375 -617 -375h-19q-98 18 -98 96z" />
<glyph unicode="?" horiz-adv-x="980" d="M33 1009q0 212 210 372q131 72 254 72q192 0 347 -168q106 -133 106 -291q0 -197 -179 -352q-166 -91 -166 -267q-14 -94 -103 -94q-94 21 -94 84v30q0 246 258 404q86 86 86 206q0 151 -157 239q-68 21 -109 21q-151 0 -237 -163l-27 -131q-42 -54 -91 -54 q-98 21 -98 92zM374 98q0 98 116 120h19q85 0 119 -100v-30q-22 -114 -134 -114q-120 26 -120 124z" />
<glyph unicode="@" horiz-adv-x="2019" d="M-29 626q0 408 335 722q287 243 630 243h36q429 0 745 -365q216 -276 216 -607q0 -418 -290 -534q-76 -34 -155 -34h-28q-156 0 -188 67l-5 24l2 48q-140 -131 -353 -131h-32q-294 0 -487 292q-70 139 -70 280q0 316 311 501q135 63 262 63q327 0 515 -317 q58 -128 58 -263v-367l5 -1q131 0 207 135q38 93 38 205v52q0 318 -265 567q-229 189 -502 189q-404 0 -654 -357q-121 -195 -121 -419v-4q0 -370 304 -618q216 -158 451 -158t457 134l31 7q105 -21 105 -101q0 -112 -353 -211q-98 -25 -192 -25h-52q-358 0 -659 271 q-302 304 -302 712zM533 623q0 -227 227 -342q69 -26 124 -26h32q184 0 305 188q46 90 46 172v16q0 219 -216 335q-72 33 -151 33h-4q-225 0 -340 -238q-23 -74 -23 -126v-12z" />
<glyph unicode="A" horiz-adv-x="1191" d="M-25 71v7l129 349q335 872 365 971q44 50 87 50q90 0 126 -154q455 -1183 459 -1214v-12q0 -72 -93 -88h-7q-87 0 -118 144l-163 423h-404l-202 -535q-42 -32 -75 -32h-11q-93 17 -93 91zM431 734h258l-130 344z" />
<glyph unicode="B" horiz-adv-x="998" d="M30 72v1286q14 91 72 91v8l45 -8h225l15 3q189 0 319 -172q64 -95 64 -206v-11q0 -135 -92 -240q235 -130 235 -398t-281 -413q-93 -32 -166 -32h-342q-94 17 -94 92zM227 167h171q200 0 268 113q46 65 46 146v7q0 189 -202 252l-102 7h-181v-525zM227 879h114 q167 0 214 118q14 35 14 70v11q0 132 -150 180l-75 4h-117v-383z" />
<glyph unicode="C" horiz-adv-x="1363" d="M38 718q0 382 350 624q189 114 405 114t421 -144q19 -37 19 -57v-8q0 -82 -102 -92h-13l-136 70q-126 40 -205 40q-255 0 -443 -235q-95 -160 -95 -312q0 -305 284 -483q124 -64 247 -64h11q158 0 328 106h34q90 -20 90 -88v-11q0 -94 -270 -174q-83 -24 -174 -24h-19 q-369 0 -616 340q-116 195 -116 398z" />
<glyph unicode="D" horiz-adv-x="1195" d="M30 72v1294q14 91 72 91v10l47 -10h189l42 4q337 0 583 -290q156 -203 156 -458q0 -352 -311 -595q-200 -138 -423 -138h-261q-94 17 -94 92zM228 168h138q344 0 511 335q44 116 44 221q0 253 -224 441q-135 108 -407 108h-62v-1105z" />
<glyph unicode="E" horiz-adv-x="1094" d="M38 72v1295q14 91 72 91v10l47 -10h737l15 4q91 0 105 -104q-19 -88 -108 -88h-670v-472h429l54 4q73 0 94 -94q0 -64 -81 -98l-82 4h-414v-446h688q75 0 90 -101q-25 -87 -93 -87h-789q-94 17 -94 92z" />
<glyph unicode="F" horiz-adv-x="1031" d="M30 72v1295q14 91 72 91v10l47 -10h737l15 4q91 0 105 -104q-19 -88 -108 -88h-670v-472h429l54 4q73 0 94 -94q0 -64 -81 -98l-82 4h-414v-518l4 -24q-21 -92 -97 -92h-11q-94 17 -94 92z" />
<glyph unicode="G" horiz-adv-x="1292" d="M17 718q0 370 330 612q205 126 398 126q238 0 431 -135q25 -34 25 -62v-4q0 -74 -98 -92q-22 0 -162 66q-82 32 -158 32h-61q-199 0 -383 -195q-121 -165 -121 -340v-15q0 -285 262 -464q135 -76 269 -76h15q133 0 255 66v314h-251q-93 16 -93 92v4q15 91 96 91h352 q78 0 93 -91v-420q0 -103 -56 -131q-199 -116 -389 -116h-22q-369 0 -616 340q-116 191 -116 398z" />
<glyph unicode="H" horiz-adv-x="1186" d="M21 75v1276q11 102 89 102h18q90 -19 90 -80v-578h662v568q15 90 93 90h14q90 -17 90 -88v-1301q0 -64 -94 -84h-10q-93 17 -93 92v540h-662v-544q0 -72 -93 -88h-7q-80 0 -97 95z" />
<glyph unicode="I" horiz-adv-x="539" d="M35 72v6q19 91 90 91h-2v1107h9q-86 0 -97 99v5q0 61 95 89l23 -4h137l18 4q101 -22 101 -98q-15 -90 -88 -95v-1107h-2q71 0 90 -91v-7q-16 -91 -97 -91h-183q-94 17 -94 92z" />
<glyph unicode="J" horiz-adv-x="1022" d="M21 450q20 90 90 90h15q97 0 97 -137q6 -76 93 -170q82 -65 178 -65q192 0 265 205q10 37 10 75v924q17 87 93 87h12q77 0 93 -91v-924q0 -248 -234 -399q-112 -65 -231 -65h-19q-235 0 -391 224q-71 118 -71 246z" />
<glyph unicode="K" horiz-adv-x="1112" d="M37 74v1286q17 94 97 94h5q95 -16 95 -88v-596q663 662 679 662l27 4h12q90 -17 90 -88v-12q0 -45 -85 -115l-453 -456l526 -652l4 -29v-12q0 -72 -93 -88h-7q-60 0 -146 127l-426 516l-128 -132v-427q0 -72 -95 -88h-5q-80 0 -97 94z" />
<glyph unicode="L" horiz-adv-x="997" d="M21 75v1276q11 102 89 102h18q90 -19 90 -80v-1206h592q83 0 97 -100q-25 -87 -97 -87h-692q-80 0 -97 95z" />
<glyph unicode="M" horiz-adv-x="1490" d="M35 75v1275q11 102 89 102h15q80 0 107 -113l463 -1034q5 23 305 711l188 403q32 33 71 33h15q78 0 89 -102v-1275q-17 -95 -97 -95h-7q-93 16 -93 88v833q-380 -861 -396 -886q-39 -35 -78 -35q-85 0 -141 173l-333 745v-830q0 -72 -93 -88h-7q-80 0 -97 95z" />
<glyph unicode="N" horiz-adv-x="1321" d="M13 78v1271q11 102 89 102h15q65 0 105 -86q54 -60 789 -1009v1008q17 87 93 87h11q78 0 93 -90v-1286q0 -78 -102 -95q-60 0 -156 142l-740 946v-996q0 -72 -95 -88h-5q-80 0 -97 94z" />
<glyph unicode="O" horiz-adv-x="1595" d="M13 721q0 351 310 593q204 141 433 141q377 0 629 -347q113 -196 113 -394q0 -368 -334 -612q-191 -122 -401 -122h-15q-385 0 -626 355q-109 179 -109 386zM210 710q0 -266 234 -446q143 -97 304 -97h19q254 0 431 228q103 148 103 323q0 300 -273 474q-133 76 -272 76 q-269 0 -447 -236q-99 -142 -99 -322z" />
<glyph unicode="P" horiz-adv-x="963" d="M21 75v1280q11 103 89 103h346q217 0 368 -221q55 -111 55 -201v-27q0 -197 -179 -341q-124 -85 -244 -85h-237v-515q0 -71 -94 -88h-7q-80 0 -97 95zM219 771h210q172 0 238 168q14 35 14 85q0 156 -158 230q-36 16 -86 16h-218v-499z" />
<glyph unicode="Q" horiz-adv-x="1599" d="M21 721q0 351 310 593q205 141 433 141q377 0 630 -347q112 -195 112 -412t-152 -424q156 -153 156 -193v-7q0 -71 -98 -92q-60 0 -165 128l-31 24q-194 -152 -445 -152h-15q-384 0 -626 355q-109 179 -109 386zM218 710q0 -266 234 -446q143 -97 304 -97h19 q178 0 311 107q-141 154 -162 186v32q17 87 93 87h11q51 0 145 -114l49 -50q87 141 87 303q0 300 -273 475q-132 75 -272 75q-269 0 -447 -236q-99 -142 -99 -322z" />
<glyph unicode="R" horiz-adv-x="976" d="M17 75v1277q11 103 89 103h315q217 0 352 -224q43 -86 43 -179v-15q0 -207 -204 -341l-19 -10q337 -582 337 -599v-19q0 -72 -95 -88h-6q-71 0 -136 142l-304 517h-174v-571q0 -72 -95 -88h-6q-80 0 -97 95zM215 826h190q159 0 210 176l4 29v29q0 131 -145 198 q-39 13 -129 13h-130v-445z" />
<glyph unicode="S" horiz-adv-x="926" d="M9 217q16 93 98 93q54 0 122 -87q84 -58 153 -58h34q136 0 221 158q14 52 14 78v38q0 141 -158 227l-195 54q-232 133 -232 346v27q0 211 227 330q86 34 161 34q200 0 334 -181l5 -21v-25q0 -65 -96 -81q-45 0 -123 87q-57 36 -108 36h-23q-109 0 -168 -121 q-13 -28 -13 -58v-31q0 -132 155 -190q131 0 286 -125q147 -149 147 -327q0 -219 -189 -359q-117 -81 -260 -81q-231 0 -383 200z" />
<glyph unicode="T" horiz-adv-x="1225" d="M13 1366q20 90 89 90h936q90 -17 90 -88v-15q0 -72 -106 -84h-353v-1201q0 -72 -95 -88h-5q-80 0 -97 95v1194h-361q-98 19 -98 97z" />
<glyph unicode="U" horiz-adv-x="1168" d="M15 537v814q11 102 89 102h18q90 -19 90 -80v-806q0 -250 139 -333q87 -67 192 -67q204 0 309 213q22 67 22 142v841q15 90 93 90h14q90 -17 90 -88v-881q0 -233 -224 -408q-144 -96 -293 -96h-26q-249 0 -431 242q-82 128 -82 315z" />
<glyph unicode="V" horiz-adv-x="1246" d="M9 1361v8q0 77 103 92q84 0 128 -174l349 -924l396 1057q42 41 84 41h4q80 0 98 -97l-480 -1292q-20 -92 -100 -92h-3q-89 0 -127 163q-452 1192 -452 1218z" />
<glyph unicode="W" horiz-adv-x="1777" d="M13 1364q20 92 89 92h16q86 0 108 -131l259 -900q273 963 294 996q34 35 74 35h11q89 0 112 -152q25 -70 254 -876l286 982q36 46 76 46h18q90 -19 90 -80v-21l-385 -1334q-42 -41 -83 -41h-4q-93 0 -116 157q-199 678 -254 876l-285 -987q-38 -46 -84 -46h-15 q-84 0 -109 161q-324 1105 -352 1223z" />
<glyph unicode="X" horiz-adv-x="1300" d="M4 72v11q0 31 167 235l314 406q-463 587 -476 614l-5 27q20 92 89 92h16q61 0 94 -67l403 -514l440 564q30 17 56 17h12q77 0 93 -91v-4q0 -39 -106 -163l-375 -482l472 -604l9 -35v-7q-16 -91 -97 -91h-4q-66 0 -106 83l-394 503l-440 -564q-29 -22 -61 -22h-7 q-94 17 -94 92z" />
<glyph unicode="Y" horiz-adv-x="1153" d="M17 1361q20 92 89 92h16q67 0 102 -84l324 -484q354 535 377 551q22 17 46 17h23q66 0 89 -90q0 -39 -132 -221l-304 -453v-607q-11 -102 -89 -102h-16q-68 0 -93 79v623q0 9 -156 242l-271 408z" />
<glyph unicode="Z" horiz-adv-x="1271" d="M9 79q0 35 186 265l716 926h-804q-98 19 -98 97q20 90 89 90h1021q77 0 93 -91v-4q0 -35 -87 -137l-818 -1057h810q95 -14 95 -92v-5q-16 -91 -97 -91h-1009q-82 0 -97 99z" />
<glyph unicode="[" horiz-adv-x="779" d="M222 -343v1833q9 107 72 107v7l66 -7h290l49 4q93 -32 93 -92v-12q0 -62 -84 -96l-74 4h-206v-1652h270q94 -21 94 -88v-12q0 -83 -107 -96h-361q-102 20 -102 100z" />
<glyph unicode="\" horiz-adv-x="691" d="M-25 1467q15 101 101 101h4q97 0 140 -188q364 -975 509 -1391q-17 -101 -101 -101h-16q-81 0 -128 183q-472 1272 -509 1396z" />
<glyph unicode="]" horiz-adv-x="758" d="M1 -335q0 63 100 93l24 -5h240v1652h-194l-81 -4q-89 30 -89 99t89 101l65 -4h274l48 4q94 -26 94 -96v-1860q0 -69 -98 -88h-371q-89 0 -101 103v5z" />
<glyph unicode="^" horiz-adv-x="942" d="M19 932q0 39 83 159q210 332 238 348l39 15h21q70 0 135 -128q234 -354 234 -380v-24q0 -73 -107 -88q-68 0 -165 180l-104 154l-202 -312q-46 -22 -75 -22q-75 0 -97 98z" />
<glyph unicode="_" horiz-adv-x="958" d="M-24 -98q25 89 99 89h888q96 -17 96 -90v-13q-18 -89 -95 -89h-889q-85 0 -99 103z" />
<glyph unicode="`" horiz-adv-x="752" d="M186 1331v12q0 67 94 88h15q52 0 128 -92q185 -174 185 -203l4 -21q-20 -96 -101 -96h-8q-57 0 -183 144q-134 115 -134 168z" />
<glyph unicode="a" horiz-adv-x="1199" d="M17 515q0 295 291 469q126 59 246 59q306 0 482 -297q54 -119 54 -246v-433q0 -71 -93 -87h-7q-66 0 -96 73v7l2 40q-128 -120 -328 -120h-29q-275 0 -457 273q-65 130 -65 262zM213 508q0 -212 211 -318q64 -24 115 -24h29q171 0 284 174q42 84 42 160v15 q0 204 -200 312q-67 30 -140 30h-4q-209 0 -316 -221q-21 -69 -21 -117v-11z" />
<glyph unicode="b" horiz-adv-x="1230" d="M48 544v823q0 65 90 85h17q90 -20 90 -85v-436q128 124 342 124t385 -159q161 -168 161 -378q0 -301 -287 -474q-126 -64 -244 -64h-30q-221 0 -410 205q-114 153 -114 359zM245 510q0 -220 227 -326q59 -17 107 -17h23q208 0 316 227q18 70 18 108v23q0 219 -231 326 q-69 17 -107 17h-15q-208 0 -316 -224q-22 -64 -22 -115v-19z" />
<glyph unicode="c" horiz-adv-x="1036" d="M9 513q0 258 230 435q148 98 308 98q209 0 381 -158q15 -27 15 -49v-5q-16 -90 -96 -90h-4q-37 0 -135 75q-75 38 -150 38h-22q-201 0 -306 -215q-25 -74 -25 -133q0 -211 216 -319q62 -24 134 -24q118 0 241 103l40 9h15q77 0 92 -90v-4q0 -90 -257 -188 q-86 -16 -128 -16h-30q-220 0 -406 204q-113 160 -113 329z" />
<glyph unicode="d" horiz-adv-x="1200" d="M9 518q0 259 232 438q149 99 311 99q208 0 345 -123v375l-4 62q27 83 89 83h18q90 -19 90 -81v-748l4 -128q0 -153 -125 -321q-180 -194 -406 -194h-30q-221 0 -410 205q-114 162 -114 333zM206 510q0 -220 227 -326q59 -17 107 -17h23q208 0 316 227q18 70 18 108v23 q0 219 -231 326q-69 17 -107 17h-15q-208 0 -316 -224q-22 -64 -22 -115v-19z" />
<glyph unicode="e" horiz-adv-x="1166" d="M9 513q0 291 277 464q136 68 257 68q312 0 483 -293q58 -114 58 -247v-20q-16 -94 -96 -94h-757q34 -117 170 -191q79 -30 154 -30t187 56h32q89 -17 89 -88v-11q0 -109 -292 -147h-28q-291 0 -465 270q-69 126 -69 263zM215 577h666q0 52 -85 168q-114 107 -223 107h-41 q-165 0 -274 -165q-38 -66 -43 -110z" />
<glyph unicode="f" horiz-adv-x="866" d="M4 939q0 50 80 89l82 -3h96v48q0 266 240 367l93 17h94q74 0 89 -99q0 -67 -98 -89h-60q-118 0 -157 -134l-3 -77v-33h137l60 3q70 0 91 -90v-13q0 -63 -90 -85h-198v-729l3 -42q0 -67 -97 -89q-74 0 -104 82l4 49v729h-173q-74 0 -89 99z" />
<glyph unicode="g" horiz-adv-x="1208" d="M14 512q0 256 228 431q147 98 306 98q240 0 415 -198q119 -164 119 -309l-4 -126v-449q0 -134 -202 -290q-156 -102 -328 -102q-293 0 -483 260q-36 60 -36 83v11q0 64 89 84h14q69 0 108 -105q125 -156 308 -156q221 0 333 201l6 44v113q-129 -119 -328 -119h-30 q-217 0 -403 202q-112 159 -112 327zM209 505q0 -216 223 -320q58 -17 105 -17h22q205 0 311 223q17 68 17 106v23q0 215 -226 319q-69 17 -106 17h-14q-205 0 -311 -220q-21 -62 -21 -113v-18z" />
<glyph unicode="h" horiz-adv-x="1125" d="M48 66v1295q19 89 89 89h18q90 -19 90 -80v-410q109 94 285 94q267 0 426 -250q59 -110 59 -208v-528q0 -72 -95 -88h-5q-74 0 -97 86v508q0 192 -196 276q-45 13 -92 13q-192 0 -271 -208q-14 -45 -14 -153v-434q0 -72 -95 -88h-5q-74 0 -97 86z" />
<glyph unicode="i" horiz-adv-x="431" d="M77 74v871q11 105 104 105q93 -23 93 -84v-898q0 -72 -95 -88h-6q-79 0 -96 94zM77 1211q19 95 104 95q93 -23 93 -84v-22q0 -70 -102 -84q-74 0 -95 95z" />
<glyph unicode="j" horiz-adv-x="656" d="M-25 -328q0 73 104 88q191 0 254 193l8 109v894q0 74 100 90q94 -18 94 -90v-928q0 -287 -276 -421q-89 -32 -167 -35h-18q-85 0 -99 100zM341 1192v22q0 60 94 84q100 -20 100 -97t-105 -93q-89 26 -89 84z" />
<glyph unicode="k" horiz-adv-x="1056" d="M52 66v1299q19 90 89 90h18q91 -20 91 -81v-704q495 328 591 383h27q82 0 97 -98q0 -58 -131 -127l-287 -195l413 -524l5 -29v-5q-16 -91 -97 -91h-7q-59 0 -154 138l-327 406l-130 -83v-377q0 -72 -95 -88h-6q-74 0 -97 86z" />
<glyph unicode="l" horiz-adv-x="473" d="M40 74v1272q11 101 89 101h18q90 -19 90 -80v-1200h54q70 0 89 -90v-6q-15 -91 -97 -91h-146q-80 0 -97 94z" />
<glyph unicode="m" horiz-adv-x="1675" d="M39 72v851q10 103 102 103q91 -23 91 -82v12q87 70 240 70q203 0 329 -154q45 83 241 142l88 12q248 0 389 -232q46 -96 46 -184v-548q0 -64 -92 -82h-9q-92 16 -92 90v532q0 168 -173 231l-46 6h-35q-135 0 -208 -161q-10 -36 -10 -61v-545q-16 -92 -94 -92h-7 q-92 16 -92 86v452q0 181 -46 223q-73 98 -186 98h-11q-157 0 -222 -172q-10 -42 -10 -113v-488q0 -70 -92 -86h-6q-77 0 -95 92z" />
<glyph unicode="n" horiz-adv-x="1197" d="M53 74v864q11 105 104 105q92 -23 92 -84v-30q126 114 339 114t385 -185q123 -152 123 -320v-475q0 -65 -93 -83h-10q-93 17 -93 91v418q0 268 -226 351q-54 14 -96 14h-11q-187 0 -291 -197q-27 -60 -27 -198v-392q0 -71 -93 -87h-7q-79 0 -96 94z" />
<glyph unicode="o" horiz-adv-x="1170" d="M13 509q0 256 228 431q147 98 306 98q208 0 376 -157q158 -165 158 -372q0 -296 -282 -466q-124 -63 -241 -63h-30q-217 0 -403 202q-112 159 -112 327zM212 502q0 -194 186 -299q64 -34 138 -34h22q194 0 299 205q25 66 25 128v18q0 161 -148 271q-83 58 -191 58 q-213 0 -314 -226q-17 -56 -17 -103v-18z" />
<glyph unicode="p" horiz-adv-x="1172" d="M34 -344v824q0 397 379 536q48 16 152 24q208 0 375 -156q158 -165 158 -371q0 -295 -281 -464q-124 -63 -240 -63h-30q-187 0 -319 119v-458q0 -62 -96 -83q-77 0 -98 92zM232 505q0 -192 185 -297q64 -34 138 -34h22q194 0 298 204q25 66 25 127v19q0 160 -146 270 q-85 58 -192 58q-212 0 -312 -227q-18 -55 -18 -101v-19z" />
<glyph unicode="q" horiz-adv-x="1178" d="M20 505q0 254 226 428q147 97 304 97q206 0 373 -154q157 -153 157 -404v-820q-21 -92 -98 -92q-96 21 -96 83v455q-128 -118 -325 -118h-29q-216 0 -401 201q-111 158 -111 324zM217 498q0 -192 185 -296q63 -34 137 -34h22q193 0 297 203q25 66 25 127v18 q0 159 -147 269q-83 58 -190 58q-211 0 -311 -226q-18 -54 -18 -101v-18z" />
<glyph unicode="r" horiz-adv-x="925" d="M74 74v871q11 106 104 106q93 -23 93 -84v-31q129 115 328 115q107 0 231 -53q39 -40 39 -76v-5q-15 -90 -96 -90h-9q-103 33 -150 33h-22q-204 0 -300 -215q-21 -58 -21 -133v-444q0 -72 -95 -88h-6q-79 0 -96 94z" />
<glyph unicode="s" horiz-adv-x="968" d="M-5 688q0 149 214 286q119 63 236 63q272 0 429 -248l3 -33v-5q0 -76 -97 -90q-67 0 -123 94q-94 91 -212 91q-155 0 -246 -149l-2 -14q0 -30 91 -38q430 -104 474 -121q119 -78 119 -195v-3q0 -164 -238 -299q-104 -47 -220 -47q-239 0 -403 221q-18 27 -18 51v22 q0 71 105 83q52 0 123 -102q89 -83 219 -83t225 135l5 17v2q0 30 -46 35q-506 113 -539 143q-99 76 -99 184z" />
<glyph unicode="t" horiz-adv-x="704" d="M-12 932q15 89 66 89v7l64 -7h64v289q11 100 88 100h17q88 -19 88 -79v-310h124l33 4q74 0 96 -92q0 -65 -83 -95l-60 4h-110v-519q0 -128 73 -153l79 -7h40q69 0 87 -89v-5q-15 -89 -95 -89h-77q-193 0 -284 205q-16 51 -16 116v541h-47l-64 -4q-83 29 -83 94z" />
<glyph unicode="u" horiz-adv-x="1188" d="M45 532v410q11 105 104 105q92 -23 92 -84v-401q0 -247 137 -330q87 -66 191 -66q201 0 305 211q22 69 22 140v436q19 94 103 94q93 -21 93 -91v-892q0 -66 -93 -84h-10q-93 17 -93 91v24q-143 -115 -316 -115h-26q-247 0 -427 239q-82 128 -82 313z" />
<glyph unicode="v" horiz-adv-x="1132" d="M4 940v22q17 87 93 87h7q78 0 126 -138l298 -611q328 695 353 723q36 26 71 26q97 -18 97 -91v-4q0 -23 -167 -368l-280 -574q-41 -32 -74 -32h-3q-83 0 -137 157q-363 742 -384 803z" />
<glyph unicode="w" horiz-adv-x="1416" d="M9 934q19 95 99 95q90 0 120 -164l157 -484q187 593 203 614q34 29 74 34q90 0 115 -138l164 -510q178 564 197 604q41 44 84 44q96 -19 96 -96l-293 -913q-43 -40 -82 -40h-3q-89 0 -121 160l-158 479l-192 -594q-34 -45 -82 -45h-3q-71 0 -98 81z" />
<glyph unicode="x" horiz-adv-x="968" d="M13 76q0 36 144 199l179 228l-315 393l-8 37q19 93 98 93q60 0 136 -116q165 -198 211 -259q52 60 280 349q20 18 68 27q94 -23 94 -83v-22q0 -29 -136 -188l-186 -235q322 -387 322 -411v-22q0 -70 -92 -86h-6q-58 0 -118 94l-227 278q-275 -343 -293 -356 q-26 -16 -53 -16h-3q-81 0 -95 96z" />
<glyph unicode="y" horiz-adv-x="913" d="M-21 933v8q18 87 96 87t124 -153q167 -396 213 -508q252 615 271 637q33 28 71 28q91 -17 91 -86v-5q-3 -28 -346 -845q-162 -403 -186 -433q-24 -19 -63 -29q-96 21 -96 81v17q0 16 156 393z" />
<glyph unicode="z" horiz-adv-x="1018" d="M13 77q0 36 155 215l442 556h-449l-64 -4q-84 29 -84 95q15 89 66 89v7l64 -7h635l39 5q88 -27 88 -84v-22q0 -29 -89 -126l-508 -637h509q88 -17 88 -86v-12q0 -70 -92 -86h-705q-81 0 -95 97z" />
<glyph unicode="{" d="M239 671q20 91 90 91h61q58 0 58 33v574q0 180 187 237l47 4h141q87 0 109 -79v-25q0 -63 -90 -84h-148q-47 0 -47 -56v-579q0 -51 -42 -119q45 -51 45 -132v-586q0 -41 48 -41h144q90 -19 90 -88v-15q0 -65 -94 -85h-152q-169 0 -230 184l-4 52v575q0 35 -31 41h-84 q-98 19 -98 98z" />
<glyph unicode="|" d="M406 -343v1886q16 96 98 96h11q91 -17 91 -89v-1908q0 -63 -99 -85q-83 0 -101 100z" />
<glyph unicode="}" d="M81 -166q15 90 92 90h139q46 0 46 40v562q0 91 45 147q-41 59 -41 119v580q0 40 -46 40h-143q-77 0 -92 91q14 95 96 95h154q160 0 223 -173l4 -37v-581q0 -44 61 -44h64q81 -24 81 -87v-15q0 -66 -93 -84h-82q-35 0 -35 -74v-554q0 -138 -175 -207l-51 -4h-153 q-94 15 -94 91v5z" />
<glyph unicode="~" d="M161 727v14q0 87 123 115q41 15 89 15h24q101 0 224 -83l30 -8h16l99 30q122 -24 122 -117q0 -114 -205 -140h-36q-100 0 -223 84l-30 7h-17l-91 -24h-17q-108 21 -108 107z" />
<glyph unicode="&#xad;" horiz-adv-x="922" d="M-25 390v142h767v-142h-767z" />
<glyph unicode="&#x2000;" horiz-adv-x="836" />
<glyph unicode="&#x2001;" horiz-adv-x="1672" />
<glyph unicode="&#x2002;" horiz-adv-x="836" />
<glyph unicode="&#x2003;" horiz-adv-x="1672" />
<glyph unicode="&#x2004;" horiz-adv-x="557" />
<glyph unicode="&#x2005;" horiz-adv-x="418" />
<glyph unicode="&#x2006;" horiz-adv-x="278" />
<glyph unicode="&#x2007;" horiz-adv-x="278" />
<glyph unicode="&#x2008;" horiz-adv-x="209" />
<glyph unicode="&#x2009;" horiz-adv-x="334" />
<glyph unicode="&#x200a;" horiz-adv-x="92" />
<glyph unicode="&#x2010;" horiz-adv-x="922" d="M-25 390v142h767v-142h-767z" />
<glyph unicode="&#x2011;" horiz-adv-x="922" d="M-25 390v142h767v-142h-767z" />
<glyph unicode="&#x2012;" horiz-adv-x="922" d="M-25 390v142h767v-142h-767z" />
<glyph unicode="&#x2013;" horiz-adv-x="1179" d="M-25 390v142h1024v-142h-1024z" />
<glyph unicode="&#x2014;" horiz-adv-x="2203" d="M-25 390v142h2048v-142h-2048z" />
<glyph unicode="&#x202f;" horiz-adv-x="334" />
<glyph unicode="&#x205f;" horiz-adv-x="418" />
<glyph unicode="&#x25fc;" horiz-adv-x="1025" d="M0 0v1025h1025v-1025h-1025z" />
</font>
</defs>
</svg>
