<?xml version="1.0" standalone="no"?>
<!DOCTYPE svg PUBLIC "-//W3C//DTD SVG 1.1//EN" "http://www.w3.org/Graphics/SVG/1.1/DTD/svg11.dtd" >
<svg xmlns="http://www.w3.org/2000/svg" xmlns:xlink="http://www.w3.org/1999/xlink" version="1.1">
<metadata></metadata>
<defs>
<font id="reem_kufiregular" horiz-adv-x="0" >
<font-face units-per-em="1000" ascent="800" descent="-200" />
<missing-glyph horiz-adv-x="130" />
<glyph unicode="&#xfb01;" horiz-adv-x="589" d="M114 0v328h-71v90h71v171q0 90 43 139t124 49q54 0 96 -27l-43 -73q-16 17 -43 17q-76 0 -76 -107v-169h118v-90h-118v-328h-101zM403 568q0 23 18 39t41 16q22 0 40 -16t18 -39q0 -24 -17.5 -39.5t-40.5 -15.5t-41 15.5t-18 39.5zM408 418h101v-418h-101v418z" />
<glyph unicode="&#xfb02;" horiz-adv-x="589" d="M114 0v328h-71v90h71v171q0 90 43 139t124 49q54 0 96 -27l-43 -73q-16 17 -43 17q-76 0 -76 -107v-169h118v-90h-118v-328h-101zM408 777h101v-777h-101v777z" />
<glyph unicode="ff" horiz-adv-x="691" d="M114 0v328h-71v90h71v171q0 90 43 139t124 49q54 0 96 -27l-43 -73q-16 17 -43 17q-76 0 -76 -107v-169h201v171q0 90 43 139t124 49q54 0 96 -27l-43 -73q-16 17 -43 17q-76 0 -76 -107v-169h132v-90h-132v-328h-101v328h-201v-328h-101z" />
<glyph unicode="ffi" horiz-adv-x="902" d="M114 0v328h-71v90h71v171q0 90 43 139t124 49q54 0 96 -27l-43 -73q-16 17 -43 17q-76 0 -76 -107v-169h201v171q0 90 43 139t124 49q54 0 96 -27l-43 -73q-16 17 -43 17q-76 0 -76 -107v-169h132v-90h-132v-328h-101v328h-201v-328h-101zM717 568q0 23 18 39t41 16 q22 0 40 -16t18 -39q0 -24 -17.5 -39.5t-40.5 -15.5t-41 15.5t-18 39.5zM722 418h101v-418h-101v418z" />
<glyph unicode="ffl" horiz-adv-x="950" d="M114 0v328h-71v90h71v171q0 90 43 139t124 49q54 0 96 -27l-43 -73q-16 17 -43 17q-76 0 -76 -107v-169h201v171q0 90 43 139t124 49q54 0 96 -27l-43 -73q-16 17 -43 17q-76 0 -76 -107v-169h132v-90h-132v-328h-101v328h-201v-328h-101zM770 777h101v-777h-101v777z " />
<glyph unicode=" "  horiz-adv-x="130" />
<glyph unicode="&#x09;" horiz-adv-x="130" />
<glyph unicode="&#xa0;" horiz-adv-x="130" />
<glyph unicode="!" horiz-adv-x="202" d="M54 760h90v-571h-90v571zM102 1q-28 0 -46 15.5t-18 40.5q0 24 18.5 40.5t45.5 16.5t44.5 -16.5t17.5 -40.5q0 -25 -17.5 -40.5t-44.5 -15.5z" />
<glyph unicode="&#x22;" horiz-adv-x="343" d="M154 730q0 -42 -1.5 -125.5t-2.5 -126.5h-86v252h90zM289 730q0 -42 -1.5 -125.5t-2.5 -126.5h-86v252h90z" />
<glyph unicode="#" horiz-adv-x="579" d="M263 652q-23 -182 -24 -191h96q4 33 12 96.5t11 94.5h92q-3 -21 -11 -87.5t-13 -103.5h100q-1 -15 -3.5 -44t-4.5 -44h-102q-8 -61 -11 -97h100q-1 -10 -5 -41t-5 -48h-101q-4 -33 -11.5 -95.5t-10.5 -91.5h-92q3 29 10.5 91.5t11.5 95.5h-94q-3 -23 -11 -87.5t-11 -99.5 h-92q20 181 21 187h-90q1 10 5 41t5 48h92q2 16 5.5 48.5t5.5 48.5h-90q1 14 4 43.5t5 44.5h91q5 37 13 103.5t11 87.5h91zM230 373q-2 -16 -6 -48.5t-6 -48.5h95q8 61 11 97h-94z" />
<glyph unicode="$" horiz-adv-x="567" d="M256 -68v61q-115 8 -210 75l47 83q74 -57 163 -66v252q-38 15 -64 29t-53.5 36.5t-42 55.5t-14.5 74q0 82 54 134.5t143 61.5v64h62v-65q98 -9 178 -58l-39 -81q-75 39 -139 46v-219l2 -1q41 -16 67.5 -30t56 -38.5t44.5 -61.5t15 -86q0 -82 -56 -139t-152 -66v-61h-62z M190 540q0 -56 89 -100v193q-42 -7 -65.5 -31.5t-23.5 -61.5zM417 198q0 69 -99 114v-224q43 9 71 36.5t28 73.5z" />
<glyph unicode="%" horiz-adv-x="785" d="M665 620l-428 -622l-100 2l427 620h101zM204 271q-70 0 -108 47.5t-38 126.5q0 78 38 126t108 48q69 0 107 -48t38 -126t-38.5 -126t-106.5 -48zM147 445q0 -102 57 -102q55 0 55 102q0 101 -55 101q-57 0 -57 -101zM586 -18q-69 0 -107 47.5t-38 126.5q0 78 38 126 t107 48t107 -48t38 -126t-38.5 -126t-106.5 -48zM529 156q0 -102 57 -102q56 0 56 102q0 101 -56 101q-57 0 -57 -101z" />
<glyph unicode="&#x26;" horiz-adv-x="728" d="M679 0h-121l-59 79q-70 -89 -204 -89q-103 0 -171.5 61t-68.5 154q0 76 54 134.5t133 79.5l-27 36q-52 77 -52 138q0 67 48.5 116t131.5 49q112 0 186 -81l-52 -70q-68 63 -118 63q-41 0 -64.5 -24.5t-23.5 -60.5q0 -37 32 -85l184 -244l65 172h97l-100 -255zM164 210 q0 -55 42 -90.5t103 -35.5q92 0 134 68l-146 194q-53 -4 -93 -43.5t-40 -92.5z" />
<glyph unicode="'" horiz-adv-x="166" d="M131 730q0 -42 -1.5 -125.5t-2.5 -126.5h-87v252h91z" />
<glyph unicode="(" horiz-adv-x="404" d="M97 295q0 142 48.5 264.5t118.5 196.5l81 -44q-63 -72 -102.5 -179t-39.5 -238q0 -132 39 -238.5t103 -178.5l-81 -44q-70 75 -118.5 197t-48.5 264z" />
<glyph unicode=")" horiz-adv-x="405" d="M316 295q0 -143 -48.5 -265t-118.5 -196l-80 43q142 166 142 418q0 131 -39.5 237.5t-102.5 178.5l80 45q70 -74 118.5 -196.5t48.5 -264.5z" />
<glyph unicode="*" horiz-adv-x="335" d="M137 522q-7 -4 -76 -44q-6 9 -16.5 27.5t-15.5 27.5q6 3 77 43q-13 7 -38.5 23t-37.5 23q9 17 29 51l78 -45v92h64q0 -16 -0.5 -46t-0.5 -46q13 7 39.5 22t39.5 22q4 -8 9 -16.5t11.5 -18.5t9.5 -16q-14 -8 -40 -23t-40 -23l78 -45q-6 -9 -16.5 -27.5t-15.5 -27.5 q-68 41 -77 46q0 -15 -0.5 -44t-0.5 -43h-60v88z" />
<glyph unicode="+" horiz-adv-x="551" d="M224 416h92v-138h136v-88h-136v-138h-92v138h-136v88h136v138z" />
<glyph unicode="," horiz-adv-x="203" d="M169 88q-13 -32 -27.5 -67t-32 -77.5t-27.5 -65.5h-82q22 56 78 210h91z" />
<glyph unicode="-" horiz-adv-x="304" d="M54 261h186v-88h-186v88z" />
<glyph unicode="." horiz-adv-x="169" d="M31 56q0 23 17 40t39 17q20 0 37 -17t17 -40q0 -24 -16.5 -40t-37.5 -16q-22 0 -39 16t-17 40z" />
<glyph unicode="/" horiz-adv-x="390" d="M390 746q-47 -128 -140.5 -382.5t-140.5 -382.5h-92q42 113 89 240.5t104.5 283.5t88.5 241h91z" />
<glyph unicode="0" horiz-adv-x="624" d="M312 -3q-123 -1 -200 89.5t-77 245.5q0 166 74 250.5t203 83.5q124 1 200.5 -89t76.5 -245q0 -158 -76.5 -247t-200.5 -88zM311 98q83 -1 126 63.5t43 172.5q0 106 -43.5 168.5t-125.5 62.5t-124.5 -63.5t-42.5 -169.5q0 -107 43 -171t124 -63z" />
<glyph unicode="1" horiz-adv-x="332" d="M53 659h176v-659h-105v558h-71v101z" />
<glyph unicode="2" horiz-adv-x="551" d="M54 0q156 157 197 204q128 146 128 243q0 58 -35 88.5t-85 30.5q-58 0 -87.5 -33t-29.5 -73q0 -65 39 -104l-65 -59q-34 21 -55 70t-21 90q0 87 63 148.5t173 61.5q92 0 151.5 -62.5t59.5 -149.5q0 -56 -32.5 -121t-60.5 -101t-96 -113q-11 -13 -16 -19h225v-101h-453z " />
<glyph unicode="3" horiz-adv-x="524" d="M440 659l-147 -243q73 -5 120.5 -53t47.5 -144q0 -103 -67.5 -165t-166.5 -62q-48 0 -96.5 20t-79.5 52l53 86q19 -23 52.5 -40t68.5 -17q54 0 91 36t37 96q0 55 -32.5 87t-87.5 32q-46 0 -83 -14l-4 4l141 224h-195v101h348z" />
<glyph unicode="4" horiz-adv-x="538" d="M12 157v1l405 509h1v-430h84v-80h-84v-157h-105v157h-301zM313 237v187l-144 -187h144z" />
<glyph unicode="5" horiz-adv-x="522" d="M244 -8q-52 0 -102 19.5t-81 49.5l55 82q20 -23 53.5 -37t66.5 -14q52 0 85.5 33.5t33.5 87.5q0 59 -32.5 95.5t-92.5 36.5q-59 0 -126 -38h-1v352h317v-101h-226v-132q33 7 61 7q98 -1 153 -62.5t55 -154.5q0 -95 -62.5 -159.5t-156.5 -64.5z" />
<glyph unicode="6" horiz-adv-x="548" d="M276 -8q-104 0 -172 72t-68 194q0 216 301 408l70 -76q-87 -42 -146 -99t-86 -118q51 51 136 51q78 0 137.5 -60.5t59.5 -149.5q0 -99 -68.5 -160.5t-163.5 -61.5zM272 86q54 0 91 35t37 92q0 55 -36.5 89t-91.5 34q-54 0 -91 -32t-37 -77v-19q0 -49 37.5 -85.5 t90.5 -36.5z" />
<glyph unicode="7" horiz-adv-x="492" d="M466 659l-261 -659h-118l226 558h-281v101h434z" />
<glyph unicode="8" horiz-adv-x="524" d="M26 209q0 69 37 116.5t89 71.5q-66 45 -66 118q0 66 50.5 109t125.5 43q74 0 125 -42.5t51 -104.5q0 -77 -67 -123q53 -25 90.5 -72.5t37.5 -115.5q0 -88 -69 -152.5t-169 -64.5q-99 0 -167 64.5t-68 152.5zM188 503q0 -29 23 -50t53 -21t52 21t22 50q0 33 -22 54.5 t-52 21.5q-31 0 -53.5 -22t-22.5 -54zM133 213q0 -54 37.5 -93.5t90.5 -39.5q54 0 93.5 39.5t39.5 93.5q0 53 -37.5 92t-91.5 40q-53 1 -92.5 -37.5t-39.5 -94.5z" />
<glyph unicode="9" horiz-adv-x="539" d="M234 214q-78 0 -138 60.5t-60 149.5q0 104 69 168.5t164 64.5q102 0 170.5 -66t68.5 -167q0 -61 -20.5 -117.5t-49 -98t-77 -85.5t-86.5 -72t-95 -65l-70 77q167 81 243 185q-46 -34 -119 -34zM273 303q55 0 91.5 33t36.5 83v20q-2 51 -39 87.5t-89 36.5 q-55 0 -91.5 -36.5t-36.5 -95.5q0 -58 36.5 -93t91.5 -35z" />
<glyph unicode=":" horiz-adv-x="178" d="M31 330q0 24 17 40.5t39 16.5q20 0 37 -17t17 -40q0 -24 -17 -40t-37 -16q-23 0 -39.5 15.5t-16.5 40.5zM31 56q0 24 17 40.5t39 16.5q20 0 37 -17t17 -40q0 -24 -17 -40t-37 -16q-23 0 -39.5 15.5t-16.5 40.5z" />
<glyph unicode=";" horiz-adv-x="204" d="M63 309q0 23 17 40t38 17t38 -17t17 -40q0 -24 -17 -40t-38 -16t-38 16t-17 40zM155 88q-13 -32 -27.5 -67t-32 -77.5t-27.5 -65.5h-82q9 23 24.5 65.5t28.5 77.5t25 67h91z" />
<glyph unicode="&#x3c;" horiz-adv-x="594" d="M499 386l-249 -145l249 -146v-109l-443 255l443 255v-110z" />
<glyph unicode="=" horiz-adv-x="718" d="M102 395h512v-88h-512v88zM102 198h512v-88h-512v88z" />
<glyph unicode="&#x3e;" horiz-adv-x="584" d="M91 96l250 145l-250 146v109l443 -255l-443 -255v110z" />
<glyph unicode="?" horiz-adv-x="460" d="M163 187v61q0 35 6 60.5t24 48.5t25 30t34 31q38 31 56.5 58.5t18.5 68.5q0 45 -31 74t-72 29q-88 0 -124 -101l-84 38q8 24 24 49t41.5 50.5t65.5 41.5t87 16q88 0 144 -49.5t56 -139.5q0 -45 -15.5 -82t-32 -55t-48.5 -47q-27 -24 -39 -37t-23.5 -41t-11.5 -65v-39 h-101zM214 1q-28 0 -45.5 15.5t-17.5 40.5q0 24 18 40.5t45 16.5t44.5 -16.5t17.5 -40.5q0 -25 -17 -40.5t-45 -15.5z" />
<glyph unicode="@" horiz-adv-x="1032" d="M441 -220q-173 0 -285.5 99.5t-112.5 284.5q0 64 18.5 129.5t62 130.5t105.5 115t158 81t211 31q180 0 285.5 -101t105.5 -255q0 -124 -71 -213.5t-178 -89.5q-44 0 -75 23t-41 63q-32 -37 -80 -62.5t-97 -25.5q-84 0 -137.5 52.5t-52.5 140.5q0 107 68 179.5t173 72.5 q110 0 152 -85l17 68h96l-38 -269q-9 -65 40 -65q50 0 90 62t40 149q0 119 -82.5 197.5t-229.5 78.5q-101 0 -182.5 -30.5t-129.5 -75.5t-80 -102t-44 -105.5t-12 -90.5q0 -153 88.5 -230.5t232.5 -77.5q114 0 221 68l41 -59q-56 -43 -131 -65.5t-146 -22.5zM486 73 q47 0 83.5 26.5t55.5 72.5l11 86q-6 42 -39.5 68.5t-82.5 26.5q-62 0 -106 -47t-44 -109q0 -54 34 -89t88 -35z" />
<glyph unicode="A" horiz-adv-x="700" d="M28 0l319 755h6l319 -755h-121l-72 182h-272l-75 -182h-104zM243 272h201l-98 250z" />
<glyph unicode="B" horiz-adv-x="623" d="M294 725q112 0 174 -46t62 -137q0 -114 -96 -165q62 -25 97 -69t35 -103q0 -103 -70.5 -154t-173.5 -51h-219v725h191zM313 411q54 0 81.5 30.5t27.5 78.5q0 104 -123 104h-92v-213h106zM317 97q62 0 101.5 27.5t39.5 79.5q0 55 -43 80.5t-105 25.5h-103v-213h110z" />
<glyph unicode="C" horiz-adv-x="694" d="M637 55q-97 -65 -215 -63q-165 2 -264.5 107t-99.5 258q0 164 101 270t257 106q116 0 211 -59l-42 -98q-84 56 -166 56q-104 0 -178 -78.5t-74 -191.5q0 -117 70.5 -193t186.5 -76q98 0 168 56z" />
<glyph unicode="D" horiz-adv-x="756" d="M103 0v725h201q83 0 151 -22t112.5 -58t75 -84.5t43.5 -100.5t13 -107q0 -158 -105 -255.5t-255 -97.5h-236zM207 101h112q121 0 196.5 68.5t75.5 190.5q0 86 -39 147.5t-96.5 89t-123.5 27.5h-125v-523z" />
<glyph unicode="E" horiz-adv-x="655" d="M103 725h475v-101h-371v-209h331v-101h-331v-213h385v-101h-489v725z" />
<glyph unicode="F" horiz-adv-x="591" d="M103 725h434v-101h-330v-220h288v-100h-288v-304h-104v725z" />
<glyph unicode="G" horiz-adv-x="753" d="M674 64q-32 -27 -104 -49.5t-133 -22.5q-171 0 -275 100t-104 255q0 179 107.5 282.5t263.5 103.5q122 0 216 -53l-35 -97q-32 18 -81 31.5t-87 13.5q-126 0 -201 -73t-75 -199q0 -116 76 -188t197 -72q82 0 129 28v134h-141v101h247v-295z" />
<glyph unicode="H" horiz-adv-x="785" d="M682 725v-725h-104v314h-371v-314h-104v725h104v-311h371v311h104z" />
<glyph unicode="I" horiz-adv-x="310" d="M103 725h104v-725h-104v725z" />
<glyph unicode="J" horiz-adv-x="371" d="M268 135q0 -130 -73 -205.5t-192 -79.5v102q74 4 117 50t43 136v587h105v-590z" />
<glyph unicode="K" horiz-adv-x="683" d="M209 439l-3 -36l14 20l286 302h136l-300 -314l314 -411h-133l-258 345l-57 -55l1 -290h-106v725h106v-286z" />
<glyph unicode="L" horiz-adv-x="625" d="M103 725h104v-624h364v-101h-468v725z" />
<glyph unicode="M" horiz-adv-x="930" d="M103 0v749h1l358 -509l364 509h2v-749h-104v449l-262 -371h-2l-256 355v-433h-101z" />
<glyph unicode="N" horiz-adv-x="840" d="M734 -25l-528 527l2 -502h-105v748h4l528 -534l-2 511h104v-750h-3z" />
<glyph unicode="O" horiz-adv-x="856" d="M58 362q0 151 108.5 261t260.5 110t262 -110t110 -261q0 -153 -109.5 -261.5t-262.5 -108.5q-154 0 -261.5 107.5t-107.5 262.5zM166 361q0 -111 76.5 -189.5t187.5 -78.5q109 0 185 78t76 191q0 112 -76.5 191t-186.5 79q-111 0 -186.5 -79t-75.5 -192z" />
<glyph unicode="P" horiz-adv-x="602" d="M301 725q120 0 188 -60t68 -168q0 -45 -13.5 -86t-41 -75.5t-76 -55t-112.5 -20.5h-107v-260h-104v725h198zM313 362q73 0 106.5 42.5t33.5 89.5q0 50 -32 90t-103 40h-111v-262h106z" />
<glyph unicode="Q" horiz-adv-x="888" d="M58 362q0 151 108.5 261t260.5 110t262 -110t110 -261q0 -152 -108 -260h140v-102h-327q-40 -8 -77 -8q-154 0 -261.5 107.5t-107.5 262.5zM166 361q0 -111 76.5 -189t187.5 -78q109 0 185 78t76 190q0 110 -77 188.5t-186 78.5q-111 0 -186.5 -78.5t-75.5 -189.5z" />
<glyph unicode="R" horiz-adv-x="664" d="M300 725q117 0 189 -60t72 -168q0 -68 -29 -124t-90 -86l180 -287h-122l-168 261h-18h-107v-261h-104v725h197zM312 362q75 0 108 40t33 91q0 49 -33 90t-102 41h-111v-262h105z" />
<glyph unicode="S" horiz-adv-x="582" d="M480 588q-91 48 -167 48q-57 0 -90 -25.5t-33 -70.5q0 -30 24 -55t53 -39.5t76 -31.5q41 -16 67.5 -30t56 -38.5t44.5 -61.5t15 -86q0 -89 -65 -147.5t-175 -58.5q-131 0 -240 76l47 83q37 -28 88 -47.5t95 -19.5q57 0 99 28.5t42 85.5q0 46 -35.5 75.5t-98.5 53.5 q-36 13 -57 22t-52 27.5t-48.5 38t-30.5 50t-13 67.5q0 87 59.5 140t156.5 57q121 0 221 -60z" />
<glyph unicode="T" horiz-adv-x="582" d="M50 725h483v-101h-192v-624h-105v624h-186v101z" />
<glyph unicode="U" horiz-adv-x="735" d="M197 259q0 -70 49.5 -117.5t120.5 -47.5q74 0 123.5 47.5t49.5 117.5v466h103v-469q0 -118 -79 -191t-197 -73t-196.5 73t-78.5 191v469h105v-466z" />
<glyph unicode="V" horiz-adv-x="722" d="M164 725l202 -505l193 505h124l-322 -759l-322 759h125z" />
<glyph unicode="W" horiz-adv-x="1010" d="M39 721h122l180 -509l124 319l-75 190h105l195 -498l169 498h112l-284 -753l-170 432l-189 -434z" />
<glyph unicode="X" horiz-adv-x="681" d="M33 0l238 374l-228 351h132l177 -271l160 271h126l-229 -358l239 -367h-135l-183 283l-168 -283h-129z" />
<glyph unicode="Y" horiz-adv-x="696" d="M294 239l-268 486h129l195 -366l192 366h128l-271 -486v-239h-105v239z" />
<glyph unicode="Z" horiz-adv-x="714" d="M50 0q20 29 193.5 292t221.5 332h-288q-33 0 -58.5 17.5t-25.5 45.5v74h97v-13q0 -17 5.5 -20t25.5 -3h430l-421 -624h430v-101h-610z" />
<glyph unicode="[" horiz-adv-x="364" d="M103 756h212v-94h-107v-719h107v-94h-212v907z" />
<glyph unicode="\" horiz-adv-x="396" d="M101 746l282 -765h-103q-31 85 -88.5 241t-104.5 283.5t-89 240.5h103z" />
<glyph unicode="]" horiz-adv-x="364" d="M262 -151h-212v94h107v720h-107v93h212v-907z" />
<glyph unicode="^" horiz-adv-x="476" d="M293 486q-5 8 -29 39.5t-29 39.5q-6 -8 -29.5 -39.5t-28.5 -39.5h-63q20 30 60.5 91t60.5 92q40 -61 122 -183h-64z" />
<glyph unicode="_" horiz-adv-x="608" d="M102 88h405v-88h-405v88z" />
<glyph unicode="`" horiz-adv-x="281" d="M17 620h111l71 -134h-63z" />
<glyph unicode="a" horiz-adv-x="591" d="M254 -10q-92 0 -151.5 57.5t-59.5 161.5q0 102 62 164t151 62q103 0 156 -80l7 63h93v-418h-101v66q-23 -29 -63.5 -52.5t-93.5 -23.5zM281 73q49 0 84 26.5t46 72.5v86q-12 42 -49 68.5t-84 26.5q-55 0 -93.5 -39.5t-38.5 -99.5q0 -59 40 -100t95 -41z" />
<glyph unicode="b" horiz-adv-x="598" d="M338 -10q-99 0 -158 71v-61h-101v777h101v-410q58 68 171 68q86 0 144.5 -60t58.5 -159q0 -103 -63 -164.5t-153 -61.5zM316 75q59 0 97.5 40t38.5 101q0 59 -39 99t-97 40q-50 0 -87 -26t-49 -69v-88q13 -43 49.5 -70t86.5 -27z" />
<glyph unicode="c" horiz-adv-x="460" d="M421 39q-60 -49 -147 -49q-104 0 -167.5 59.5t-63.5 159.5q0 98 65 158.5t156 60.5q97 0 160 -53l-50 -65q-46 36 -102 36q-54 0 -91 -39.5t-37 -97.5t39 -97t99 -39q51 0 88 29z" />
<glyph unicode="d" horiz-adv-x="598" d="M250 -10q-90 0 -148.5 62t-58.5 163q0 102 61.5 161t157.5 59q101 0 156 -69v411h101v-777h-102v61q-68 -71 -167 -71zM281 75q52 0 88 27.5t48 73.5v83q-11 42 -48.5 69t-87.5 27q-56 0 -95.5 -39.5t-39.5 -99.5q0 -59 40 -100t95 -41z" />
<glyph unicode="e" horiz-adv-x="525" d="M275 -10q-106 0 -169 62t-63 160q0 93 68 158t166 65q84 0 139 -48.5t75 -136.5l-327 -113q39 -61 113 -61q51 0 99 35l46 -75q-71 -46 -147 -46zM143 218q0 -15 1 -21l233 85q-32 73 -107 73q-56 0 -91.5 -38.5t-35.5 -98.5z" />
<glyph unicode="f" horiz-adv-x="388" d="M114 0v328h-71v90h71v171q0 90 43 139t124 49q54 0 96 -27l-43 -73q-16 17 -43 17q-76 0 -76 -107v-169h132v-90h-132v-328h-101z" />
<glyph unicode="g" horiz-adv-x="604" d="M283 -208q-66 0 -111.5 21.5t-91.5 62.5l60 69q66 -64 141 -64q67 0 104.5 31.5t38.5 86.5v76q-22 -38 -66 -61.5t-103 -23.5q-88 0 -150 63.5t-62 157.5q0 95 65 159.5t153 64.5q54 0 99 -20.5t65 -51.5l7 55h93v-421q0 -88 -67 -146.5t-175 -58.5zM145 214 q0 -60 40 -100.5t99 -40.5q52 0 89 27t51 71v86q-14 43 -52 69.5t-88 26.5q-59 0 -99 -39.5t-40 -99.5z" />
<glyph unicode="h" horiz-adv-x="560" d="M79 0v777h99v-433q23 41 66 65.5t100 24.5q59 0 97 -35t39 -90v-309h-101v274q-3 73 -75 74q-53 0 -88.5 -44.5t-35.5 -112.5v-191h-101z" />
<glyph unicode="i" horiz-adv-x="259" d="M74 568q0 23 18 39t41 16q22 0 40 -16t18 -39q0 -24 -17.5 -39.5t-40.5 -15.5t-41 15.5t-18 39.5zM79 418h101v-418h-101v418z" />
<glyph unicode="j" horiz-adv-x="265" d="M83 568q0 23 18 39t41 16q22 0 40 -16t18 -39q0 -24 -17.5 -39.5t-40.5 -15.5t-41 15.5t-18 39.5zM89 -201l-60 62q61 51 61 141v416h101v-420q0 -144 -102 -199z" />
<glyph unicode="k" horiz-adv-x="506" d="M79 0v777h101v-518l213 168l61 -54l-153 -122l173 -251h-118l-124 196l-52 -41v-155h-101z" />
<glyph unicode="l" horiz-adv-x="259" d="M79 777h101v-777h-101v777z" />
<glyph unicode="m" horiz-adv-x="831" d="M170 418l7 -77q23 44 65 69t95 25q52 0 87 -24t42 -65q25 42 65.5 65.5t85.5 23.5q61 0 97 -34.5t38 -90.5v-310h-100v272q-3 72 -63 76q-53 0 -87 -46t-36 -108v-194h-101v272q-3 72 -65 76q-52 0 -86 -46.5t-34 -108.5v-193h-101v418h91z" />
<glyph unicode="n" horiz-adv-x="560" d="M170 418l7 -80q21 44 65 70t102 26q59 0 97 -35t39 -90v-309h-101v274q-3 73 -75 74q-54 0 -89 -44t-35 -113v-191h-101v418h91z" />
<glyph unicode="o" horiz-adv-x="549" d="M43 213q0 95 66 158.5t168 63.5t165.5 -63t63.5 -159t-64 -159.5t-167 -63.5q-101 0 -166.5 61t-65.5 162zM145 212q0 -59 37 -99t92 -40q57 0 93.5 39.5t36.5 99.5t-36.5 100t-93.5 40q-55 0 -92 -41t-37 -99z" />
<glyph unicode="p" horiz-adv-x="598" d="M329 -10q-44 0 -84 18.5t-65 50.5v-260h-101v626h87l9 -68q68 78 173 78q90 0 148 -62t58 -163q0 -100 -63 -160t-162 -60zM309 70q59 0 101 40t42 99q0 61 -39 101t-97 40q-51 0 -87 -27.5t-49 -74.5v-75q8 -45 44 -74t85 -29z" />
<glyph unicode="q" horiz-adv-x="598" d="M247 -10q-86 0 -145 60t-59 159q0 100 64 163t156 63q97 0 154 -69v59h102v-626h-101v259q-26 -31 -71.5 -49.5t-99.5 -18.5zM281 70q52 0 89.5 28.5t46.5 73.5v76q-12 47 -48 74.5t-88 27.5q-55 0 -95 -41t-40 -100t40 -99t95 -40z" />
<glyph unicode="r" horiz-adv-x="381" d="M169 418l8 -99q24 50 76 83t90 33l-5 -100q-68 4 -113 -41.5t-45 -107.5v-186h-101v418h90z" />
<glyph unicode="s" horiz-adv-x="414" d="M200 -9q-101 0 -159 64l43 58q52 -51 108 -51q73 0 73 50q0 26 -22 40t-64 26q-4 1 -6.5 1.5t-5.5 1.5q-107 35 -107 123q0 53 39.5 91t111.5 38q88 0 144 -46l-39 -61q-36 36 -87 38q-28 0 -47.5 -13t-19.5 -33q0 -9 2.5 -16.5t8.5 -13.5t11.5 -10t16.5 -8.5t17.5 -7 t20 -7l19.5 -6.5q51 -17 79 -44t28 -73q0 -61 -43 -101t-122 -40z" />
<glyph unicode="t" horiz-adv-x="365" d="M119 601h102v-184h112v-79h-112v-338h-102v338h-74v79h74v184z" />
<glyph unicode="u" horiz-adv-x="552" d="M213 -17q-58 0 -95 35t-39 90v310h101v-274q3 -72 73 -75q51 0 85 45t34 113v191h101v-418h-91l-6 77q-22 -42 -65.5 -68t-97.5 -26z" />
<glyph unicode="v" horiz-adv-x="500" d="M253 -12l-235 430h119l122 -256l112 256h112l-225 -430h-5z" />
<glyph unicode="w" horiz-adv-x="676" d="M352 418l108 -249l99 249h99l-191 -443l-134 285l-123 -285l-192 443h98l106 -241l75 173l-32 68h87z" />
<glyph unicode="x" horiz-adv-x="475" d="M458 0h-122l-110 145l-102 -145h-101l153 210l-158 208h124l107 -141l90 141h101l-145 -203z" />
<glyph unicode="y" horiz-adv-x="500" d="M115 -201l96 215l-193 404h113l131 -289l128 289h93l-270 -619h-98z" />
<glyph unicode="z" horiz-adv-x="472" d="M123 335q-34 0 -56 21t-22 59v43h77v-14q0 -16 7.5 -21t26.5 -5h267l-232 -335h228v-83h-392l232 335h-136z" />
<glyph unicode="{" horiz-adv-x="361" d="M271 668q-31 0 -41.5 -20t-10.5 -84v-114q0 -105 -66 -147q66 -48 66 -133v-130q0 -64 10.5 -83.5t41.5 -19.5h43v-88h-66h-10q-21 0 -32 0.5t-28 4t-26.5 11.5t-19.5 22t-14 37t-4 55v159q0 49 -20.5 85.5t-60.5 37.5v87q40 1 60.5 37t20.5 86v165q0 35 7.5 59t17 35.5 t29.5 18t32.5 7t38.5 0.5h9h66v-88h-43z" />
<glyph unicode="|" horiz-adv-x="279" d="M91 710h92v-945h-92v945z" />
<glyph unicode="}" horiz-adv-x="376" d="M105 -63q32 0 42.5 19.5t10.5 84.5v126q0 93 66 135q-66 46 -66 134v129q0 64 -10.5 83.5t-42.5 19.5h-43v88h66q63 0 84 -9q50 -20 50 -110v-159q0 -32 6.5 -60t25.5 -50.5t48 -23.5v-88q-43 -1 -61.5 -41t-18.5 -92v-155q0 -29 -4.5 -50t-14.5 -34t-19 -20.5t-27 -10.5 t-28.5 -3.5t-31.5 -0.5h-9h-66v88h43z" />
<glyph unicode="~" horiz-adv-x="430" d="M300 433q-23 0 -45.5 9.5t-30.5 16.5t-30 25q-34 32 -56 32t-34 -23t-10 -60h-63q-5 68 26.5 114.5t86.5 46.5q39 0 92 -49q40 -38 61 -38q41 0 39 87h63q8 -71 -21.5 -116t-77.5 -45z" />
<glyph unicode="&#xa1;" horiz-adv-x="203" d="M102 547q27 0 44.5 -15.5t17.5 -40.5q0 -24 -17.5 -40.5t-44.5 -16.5t-45.5 16.5t-18.5 40.5q0 25 18 40.5t46 15.5zM54 -212v571h90v-571h-90z" />
<glyph unicode="&#xa2;" horiz-adv-x="460" d="M421 39q-49 -40 -121 -48v-59h-63v60q-89 11 -141.5 68.5t-52.5 148.5q0 90 56 149t138 68v59h63v-59q74 -9 124 -51l-50 -65q-34 27 -74 33v-269q40 4 70 28zM144 209q0 -46 25.5 -81t67.5 -48v261q-41 -12 -67 -48t-26 -84z" />
<glyph unicode="&#xa3;" horiz-adv-x="639" d="M401 389v-101h-140v-104q0 -59 -18 -83h191q65 0 65 43v41h91v-67q0 -118 -134 -118h-397v101h45q32 0 42.5 18t10.5 79v90h-66v101h66v153q0 72 59.5 117.5t154.5 45.5q140 0 193 -103l-76 -52q-18 25 -43 39.5t-73 14.5q-111 0 -111 -100v-115h140z" />
<glyph unicode="&#xa4;" horiz-adv-x="504" d="M379 443q25 -38 25 -82q0 -46 -27 -84l29 -29l-44 -44q-3 3 -9 9.5t-11 11.5t-10 9q-37 -24 -82 -24q-42 0 -80 23l-30 -30l-44 44l29 29q-26 39 -26 85q0 45 25 81l-8.5 8.5l-10.5 10.5l-9 9l44 44l28 -28q42 25 82 25q45 0 84 -26l28 29l44 -44zM161 360 q0 -37 26.5 -63.5t63.5 -26.5t64 26.5t27 63.5q0 38 -26.5 64.5t-64.5 26.5q-37 0 -63.5 -26.5t-26.5 -64.5z" />
<glyph unicode="&#xa5;" horiz-adv-x="696" d="M167 158h127v63h-128v82h128v1l-268 421h129l195 -306l192 306h128l-271 -421v-1h139v-82h-139v-63h138v-83h-138v-75h-105v75h-127v83z" />
<glyph unicode="&#xa6;" horiz-adv-x="218" d="M67 710h91v-355h-91v355zM67 119h91v-355h-91v355z" />
<glyph unicode="&#xa7;" horiz-adv-x="573" d="M499 24q0 -83 -63 -140.5t-159 -57.5q-136 0 -227 75l52 86q89 -67 169 -67q50 0 84.5 24.5t34.5 65.5q0 20 -10 36t-31 26.5t-40.5 17t-50.5 14.5q-191 48 -191 169q0 55 29.5 91.5t77.5 51.5q-84 47 -84 138q0 72 54 125t156 53q111 0 196 -65l-46 -77q-65 49 -139 52 q-54 0 -83 -22t-29 -53q0 -37 34.5 -57.5t102.5 -37.5q40 -11 67 -21.5t58 -29.5t46.5 -49t15.5 -70q0 -48 -26.5 -88t-75.5 -62q78 -40 78 -128zM420 283q1 37 -37 61t-90 33q-54 2 -88 -21t-35 -58q-1 -41 33.5 -65t98.5 -41q44 2 80.5 27t37.5 64z" />
<glyph unicode="&#xa8;" horiz-adv-x="420" d="M60 529q0 23 17 40t39 17q20 0 37.5 -17t17.5 -40q0 -24 -17 -40t-38 -16q-22 0 -39 16t-17 40zM249 529q0 23 17 40t39 17q20 0 37.5 -17t17.5 -40q0 -24 -17 -40t-38 -16q-22 0 -39 16t-17 40z" />
<glyph unicode="&#xa9;" horiz-adv-x="852" d="M426 -13q-144 0 -246 99t-102 244q0 148 101.5 246.5t246.5 98.5q146 0 247.5 -98.5t101.5 -246.5q0 -146 -101 -244.5t-248 -98.5zM426 69q110 0 185 74.5t75 186.5q0 113 -75 188t-185 75q-111 0 -186 -75t-75 -188t73 -187t188 -74zM574 199q-61 -59 -146 -59 q-77 1 -130.5 57.5t-53.5 133.5q0 85 53.5 140t139.5 55q78 0 120 -36l-40 -77q-29 25 -73 25q-41 0 -68 -30.5t-27 -73.5t26.5 -72.5t69.5 -29.5q47 0 82 36z" />
<glyph unicode="&#xaa;" horiz-adv-x="398" d="M163 423q-58 0 -95 39.5t-37 110.5q0 68 38 110.5t91 42.5q69 0 102 -48l4 38h73v-287h-78v41q-40 -47 -98 -47zM187 486q29 0 49 17.5t25 47.5v51q-7 27 -27.5 44t-47.5 17q-33 0 -55 -24.5t-22 -63.5q0 -37 23 -63t55 -26z" />
<glyph unicode="&#xab;" horiz-adv-x="606" d="M46 242q9 8 114.5 95t114.5 96v-92q-1 -1 -51 -45.5t-58 -53.5q8 -8 55.5 -51t53.5 -49v-91zM272 242q9 8 114.5 95t114.5 96v-92q-1 -1 -51 -45.5t-58 -53.5q8 -8 55.5 -51t53.5 -49v-91z" />
<glyph unicode="&#xac;" horiz-adv-x="496" d="M66 302h364v-193h-104v92h-260v101z" />
<glyph unicode="&#xad;" horiz-adv-x="600" d="M54 261h186v-88h-186v88z" />
<glyph unicode="&#xae;" horiz-adv-x="499" d="M249 291q-91 0 -155 62t-64 154q0 93 64 154.5t155 61.5q92 0 156 -61.5t64 -154.5q0 -92 -64 -154t-156 -62zM249 347q68 0 113.5 45.5t45.5 114.5t-45.5 114.5t-113.5 45.5q-67 0 -112.5 -45.5t-45.5 -114.5t45.5 -114.5t112.5 -45.5zM171 619h88q78 0 78 -71 q0 -46 -37 -65l38 -82h-64l-30 74h-16v-74h-57v218zM247 518q30 0 30 28q0 30 -28 30h-21v-58h19z" />
<glyph unicode="&#xaf;" horiz-adv-x="368" d="M61 540h247v-71h-247v71z" />
<glyph unicode="&#xb0;" horiz-adv-x="285" d="M34 568q0 43 31 73t75 30q43 0 73 -30t30 -73t-30 -73.5t-73 -30.5q-44 0 -75 30.5t-31 73.5zM140 519q20 0 34 14t14 34t-14 34t-34 14t-34 -14t-14 -34t14 -34t34 -14z" />
<glyph unicode="&#xb1;" horiz-adv-x="532" d="M224 579h92v-139h136v-88h-136v-138h-92v138h-136v88h136v139zM88 173h364v-89h-364v89z" />
<glyph unicode="&#xb2;" horiz-adv-x="404" d="M64 634q18 26 56.5 43.5t79.5 16.5q63 -2 100.5 -36t37.5 -93q0 -84 -118 -182h133v-84h-279v56q31 21 53 38t49.5 42.5t42 51.5t14.5 51q0 71 -61 71q-23 0 -44.5 -12t-32.5 -29z" />
<glyph unicode="&#xb3;" horiz-adv-x="388" d="M165 296q-68 0 -113 47l30 59q32 -41 72 -40q29 1 46.5 18.5t17.5 50.5q0 34 -18.5 51t-48.5 17q-27 0 -47 -10l-6 9l76 115h-107v73h227l-81 -141q40 -7 68.5 -36t28.5 -75q0 -60 -40 -99t-105 -39z" />
<glyph unicode="&#xb4;" horiz-adv-x="283" d="M238 620l-130 -134h-63l81 134h112z" />
<glyph unicode="&#xb5;" horiz-adv-x="552" d="M213 -17q-20 0 -33 4v-188h-101v619h101v-274q3 -72 73 -75q51 0 85 45t34 113v191h101v-418h-91l-7 77q-22 -42 -65 -68t-97 -26z" />
<glyph unicode="&#xb6;" horiz-adv-x="560" d="M204 428q-69 0 -117 48.5t-48 117.5q0 70 48 118t117 48h255v-760h-90v673h-75v-673h-90v428z" />
<glyph unicode="&#xb7;" horiz-adv-x="171" d="M31 286q0 23 17 40t39 17q20 0 37 -17t17 -40q0 -24 -16.5 -40t-37.5 -16q-22 0 -39 16t-17 40z" />
<glyph unicode="&#xb8;" horiz-adv-x="397" d="M109 -151q24 -26 65 -26q27 0 46.5 11.5t19.5 32.5q0 18 -15 30.5t-47 12.5q-24 0 -65 -12l-17 48l69 63l78 -3l-43 -50h2q55 2 89 -21.5t34 -66.5q0 -48 -40.5 -74t-99.5 -26q-67 0 -108 39z" />
<glyph unicode="&#xb9;" horiz-adv-x="272" d="M42 661h155v-379h-94v288h-61v91z" />
<glyph unicode="&#xba;" horiz-adv-x="376" d="M31 572q0 66 44.5 109t113.5 43t112.5 -43t43.5 -109q0 -65 -43.5 -108t-113.5 -43q-69 0 -113 41.5t-44 109.5zM110 572q0 -35 22.5 -59.5t55.5 -24.5q34 0 56 24t22 60t-22 60t-56 24q-33 0 -55.5 -24.5t-22.5 -59.5z" />
<glyph unicode="&#xbb;" horiz-adv-x="606" d="M546 242l-229 -191v91q6 6 53.5 49t55.5 51q-8 9 -58 53.5t-51 45.5v92q9 -9 114.5 -96t114.5 -95zM320 242l-229 -191v91q6 6 53.5 49t55.5 51q-8 9 -58 53.5t-51 45.5v92q9 -9 114.5 -96t114.5 -95z" />
<glyph unicode="&#xbc;" horiz-adv-x="819" d="M646 687l-407 -687h-95l407 687h95zM45 661h155v-379h-94v288h-61v91zM787 157v-58h-45v-99h-87v99h-174l-1 26l200 263h62v-231h45zM580 157h75v99z" />
<glyph unicode="&#xbd;" horiz-adv-x="884" d="M637 687l-407 -687h-95l407 687h95zM45 664h155v-379h-94v288h-61v91zM530 328q18 26 56.5 43.5t79.5 16.5q63 -2 100.5 -36t37.5 -93q0 -84 -118 -182h133v-84h-279v56q31 21 53 38t49.5 42.5t42 51.5t14.5 51q0 71 -61 71q-23 0 -44.5 -12t-32.5 -29z" />
<glyph unicode="&#xbe;" horiz-adv-x="837" d="M670 687l-407 -687h-95l407 687h95zM163 296q-68 0 -113 47l30 59q32 -41 72 -40q29 1 46.5 18.5t17.5 50.5q0 34 -18.5 51t-48.5 17q-27 0 -47 -10l-6 9l76 115h-107v73h227l-81 -141q40 -7 68.5 -36t28.5 -75q0 -60 -40 -99t-105 -39zM784 157v-58h-45v-99h-87v99h-174 l-1 26l200 263h62v-231h45zM577 157h75v99z" />
<glyph unicode="&#xbf;" horiz-adv-x="439" d="M248 538q28 0 45.5 -15.5t17.5 -40.5q0 -24 -18 -40.5t-45 -16.5t-44.5 16.5t-17.5 40.5q0 25 17 40.5t45 15.5zM299 352v-61q0 -35 -6 -60.5t-24 -48.5t-25 -30t-34 -31q-38 -31 -56.5 -58.5t-18.5 -68.5q0 -45 31 -74t72 -29q88 0 124 101l84 -38q-8 -24 -24 -49 t-41.5 -50.5t-65.5 -41.5t-87 -16q-88 0 -144 49.5t-56 139.5q0 45 15.5 82t32 55t48.5 47q27 24 39 37t23.5 41t11.5 65v39h101z" />
<glyph unicode="&#xc0;" horiz-adv-x="700" d="M194 924h111l71 -134h-63zM28 0l319 755h6l319 -755h-121l-72 182h-272l-75 -182h-104zM243 272h201l-98 250z" />
<glyph unicode="&#xc1;" horiz-adv-x="700" d="M509 918l-130 -134h-63l81 134h112zM28 0l319 755h6l319 -755h-121l-72 182h-272l-75 -182h-104zM243 272h201l-98 250z" />
<glyph unicode="&#xc2;" horiz-adv-x="700" d="M422 800l-80 83l-75 -83h-92l168 174h1l171 -174h-93zM28 0l319 755h6l319 -755h-121l-72 182h-272l-75 -182h-104zM243 272h201l-98 250z" />
<glyph unicode="&#xc3;" horiz-adv-x="700" d="M428 819q-8 0 -16 1.5t-13.5 2.5t-13 5t-11.5 6t-11 7.5t-9.5 7t-10 8t-8.5 7.5q-30 28 -49 28q-20 0 -30.5 -20.5t-8.5 -52.5h-55q-5 60 22.5 100.5t76.5 40.5q36 0 81 -43q35 -33 53 -33q37 0 35 76h55q7 -62 -18.5 -101.5t-68.5 -39.5zM28 0l319 755h6l319 -755h-121 l-72 182h-272l-75 -182h-104zM243 272h201l-98 250z" />
<glyph unicode="&#xc4;" horiz-adv-x="700" d="M195 845q0 23 17 40t39 17q20 0 37.5 -17t17.5 -40q0 -24 -17 -40t-38 -16q-22 0 -39 16t-17 40zM384 845q0 23 17 40t39 17q20 0 37.5 -17t17.5 -40q0 -24 -17 -40t-38 -16q-22 0 -39 16t-17 40zM28 0l319 755h6l319 -755h-121l-72 182h-272l-75 -182h-104zM243 272h201 l-98 250z" />
<glyph unicode="&#xc5;" horiz-adv-x="700" d="M256 879q0 41 27.5 66.5t69.5 25.5q41 0 68.5 -25.5t27.5 -66.5q0 -40 -27.5 -66t-68.5 -26q-42 0 -69.5 25.5t-27.5 66.5zM310 878q0 -19 12 -31.5t31 -12.5q18 0 30 12.5t12 31.5q0 20 -12 32t-30 12q-19 0 -31 -12t-12 -32zM28 0l319 755h6l319 -755h-121l-72 182 h-272l-75 -182h-104zM243 272h201l-98 250z" />
<glyph unicode="&#xc6;" horiz-adv-x="953" d="M132 0h-121l467 725h398v-101h-293v-211h253v-101h-253v-211h307v-101h-412v176h-238zM291 259h187v305z" />
<glyph unicode="&#xc7;" horiz-adv-x="694" d="M323 -151q24 -26 65 -26q27 0 46.5 11.5t19.5 32.5q0 18 -15 30.5t-47 12.5q-24 0 -65 -12l-17 48l55 50q-141 21 -224 122t-83 239q0 164 101 270t257 106q116 0 211 -59l-42 -98q-84 56 -166 56q-104 0 -178 -78.5t-74 -191.5q0 -117 70.5 -193t186.5 -76q98 0 168 56 l45 -94q-86 -58 -192 -63l-31 -36h2q55 2 89 -21.5t34 -66.5q0 -48 -40.5 -74t-99.5 -26q-67 0 -108 39z" />
<glyph unicode="&#xc8;" horiz-adv-x="655" d="M180 910h111l71 -134h-63zM103 725h475v-101h-371v-209h331v-101h-331v-213h385v-101h-489v725z" />
<glyph unicode="&#xc9;" horiz-adv-x="655" d="M495 904l-130 -134h-63l81 134h112zM103 725h475v-101h-371v-209h331v-101h-331v-213h385v-101h-489v725z" />
<glyph unicode="&#xca;" horiz-adv-x="655" d="M408 786l-80 83l-75 -83h-92l168 174h1l171 -174h-93zM103 725h475v-101h-371v-209h331v-101h-331v-213h385v-101h-489v725z" />
<glyph unicode="&#xcb;" horiz-adv-x="655" d="M182 832q0 23 17 40t39 17q20 0 37.5 -17t17.5 -40q0 -24 -17 -40t-38 -16q-22 0 -39 16t-17 40zM371 832q0 23 17 40t39 17q20 0 37.5 -17t17.5 -40q0 -24 -17 -40t-38 -16q-22 0 -39 16t-17 40zM103 725h475v-101h-371v-209h331v-101h-331v-213h385v-101h-489v725z" />
<glyph unicode="&#xcc;" horiz-adv-x="310" d="M-1 910h111l71 -134h-63zM103 725h104v-725h-104v725z" />
<glyph unicode="&#xcd;" horiz-adv-x="310" d="M315 904l-130 -134h-63l81 134h112zM103 725h104v-725h-104v725z" />
<glyph unicode="&#xce;" horiz-adv-x="310" d="M227 786l-80 83l-75 -83h-92l168 174h1l171 -174h-93zM103 725h104v-725h-104v725z" />
<glyph unicode="&#xcf;" horiz-adv-x="310" d="M1 832q0 23 17 40t39 17q20 0 37.5 -17t17.5 -40q0 -24 -17 -40t-38 -16q-22 0 -39 16t-17 40zM190 832q0 23 17 40t39 17q20 0 37.5 -17t17.5 -40q0 -24 -17 -40t-38 -16q-22 0 -39 16t-17 40zM103 725h104v-725h-104v725z" />
<glyph unicode="&#xd0;" horiz-adv-x="756" d="M103 0v313h-86v94h86v318h201q83 0 151 -22t112.5 -58t75 -84.5t43.5 -100.5t13 -107q0 -158 -105 -255.5t-255 -97.5h-236zM207 101h112q121 0 196.5 68.5t75.5 190.5q0 86 -39 147.5t-96.5 89t-123.5 27.5h-125v-217h94v-94h-94v-212z" />
<glyph unicode="&#xd1;" horiz-adv-x="840" d="M485 791q-8 0 -16 1.5t-13.5 2.5t-13 5t-11.5 6t-11 7.5t-9.5 7t-10 8t-8.5 7.5q-30 28 -49 28q-20 0 -30.5 -20.5t-8.5 -52.5h-55q-5 60 22.5 100.5t76.5 40.5q36 0 81 -43q35 -33 53 -33q37 0 35 76h55q7 -62 -18.5 -101.5t-68.5 -39.5zM734 -25l-528 527l2 -502h-105 v748h4l528 -534l-2 511h104v-750h-3z" />
<glyph unicode="&#xd2;" horiz-adv-x="856" d="M272 903h111l71 -134h-63zM58 362q0 151 108.5 261t260.5 110t262 -110t110 -261q0 -153 -109.5 -261.5t-262.5 -108.5q-154 0 -261.5 107.5t-107.5 262.5zM166 361q0 -111 76.5 -189.5t187.5 -78.5q109 0 185 78t76 191q0 112 -76.5 191t-186.5 79q-111 0 -186.5 -79 t-75.5 -192z" />
<glyph unicode="&#xd3;" horiz-adv-x="856" d="M587 897l-130 -134h-63l81 134h112zM58 362q0 151 108.5 261t260.5 110t262 -110t110 -261q0 -153 -109.5 -261.5t-262.5 -108.5q-154 0 -261.5 107.5t-107.5 262.5zM166 361q0 -111 76.5 -189.5t187.5 -78.5q109 0 185 78t76 191q0 112 -76.5 191t-186.5 79 q-111 0 -186.5 -79t-75.5 -192z" />
<glyph unicode="&#xd4;" horiz-adv-x="856" d="M500 779l-80 83l-75 -83h-92l168 174h1l171 -174h-93zM58 362q0 151 108.5 261t260.5 110t262 -110t110 -261q0 -153 -109.5 -261.5t-262.5 -108.5q-154 0 -261.5 107.5t-107.5 262.5zM166 361q0 -111 76.5 -189.5t187.5 -78.5q109 0 185 78t76 191q0 112 -76.5 191 t-186.5 79q-111 0 -186.5 -79t-75.5 -192z" />
<glyph unicode="&#xd5;" horiz-adv-x="856" d="M506 798q-8 0 -16 1.5t-13.5 2.5t-13 5t-11.5 6t-11 7.5t-9.5 7t-10 8t-8.5 7.5q-30 28 -49 28q-20 0 -30.5 -20.5t-8.5 -52.5h-55q-5 60 22.5 100.5t76.5 40.5q36 0 81 -43q35 -33 53 -33q37 0 35 76h55q7 -62 -18.5 -101.5t-68.5 -39.5zM58 362q0 151 108.5 261 t260.5 110t262 -110t110 -261q0 -153 -109.5 -261.5t-262.5 -108.5q-154 0 -261.5 107.5t-107.5 262.5zM166 361q0 -111 76.5 -189.5t187.5 -78.5q109 0 185 78t76 191q0 112 -76.5 191t-186.5 79q-111 0 -186.5 -79t-75.5 -192z" />
<glyph unicode="&#xd6;" horiz-adv-x="856" d="M273 825q0 23 17 40t39 17q20 0 37.5 -17t17.5 -40q0 -24 -17 -40t-38 -16q-22 0 -39 16t-17 40zM462 825q0 23 17 40t39 17q20 0 37.5 -17t17.5 -40q0 -24 -17 -40t-38 -16q-22 0 -39 16t-17 40zM58 362q0 151 108.5 261t260.5 110t262 -110t110 -261 q0 -153 -109.5 -261.5t-262.5 -108.5q-154 0 -261.5 107.5t-107.5 262.5zM166 361q0 -111 76.5 -189.5t187.5 -78.5q109 0 185 78t76 191q0 112 -76.5 191t-186.5 79q-111 0 -186.5 -79t-75.5 -192z" />
<glyph unicode="&#xd7;" horiz-adv-x="519" d="M279 249l93 93q13 -12 38 -39t37 -39q-41 -40 -90 -92q18 -17 49.5 -49.5t43.5 -44.5l-80 -78q-16 16 -47 46t-47 46q-30 -31 -91 -90q-52 50 -77 76l92 92l-95 94l79 80z" />
<glyph unicode="&#xd8;" horiz-adv-x="858" d="M58 362q0 151 108.5 261t260.5 110q109 0 201 -60l63 73l65 -61l-60 -70q103 -108 103 -253q0 -153 -109.5 -261.5t-262.5 -108.5q-115 0 -209 64l-62 -72l-66 60l61 71q-93 104 -93 247zM166 361q0 -93 55 -164l341 398q-60 37 -134 37q-111 0 -186.5 -79t-75.5 -192z M691 362q0 100 -62 175l-343 -401q65 -43 144 -43q109 0 185 78t76 191z" />
<glyph unicode="&#xd9;" horiz-adv-x="735" d="M212 910h111l71 -134h-63zM197 259q0 -70 49.5 -117.5t120.5 -47.5q74 0 123.5 47.5t49.5 117.5v466h103v-469q0 -118 -79 -191t-197 -73t-196.5 73t-78.5 191v469h105v-466z" />
<glyph unicode="&#xda;" horiz-adv-x="735" d="M527 904l-130 -134h-63l81 134h112zM197 259q0 -70 49.5 -117.5t120.5 -47.5q74 0 123.5 47.5t49.5 117.5v466h103v-469q0 -118 -79 -191t-197 -73t-196.5 73t-78.5 191v469h105v-466z" />
<glyph unicode="&#xdb;" horiz-adv-x="735" d="M440 786l-80 83l-75 -83h-92l168 174h1l171 -174h-93zM197 259q0 -70 49.5 -117.5t120.5 -47.5q74 0 123.5 47.5t49.5 117.5v466h103v-469q0 -118 -79 -191t-197 -73t-196.5 73t-78.5 191v469h105v-466z" />
<glyph unicode="&#xdc;" horiz-adv-x="735" d="M213 832q0 23 17 40t39 17q20 0 37.5 -17t17.5 -40q0 -24 -17 -40t-38 -16q-22 0 -39 16t-17 40zM402 832q0 23 17 40t39 17q20 0 37.5 -17t17.5 -40q0 -24 -17 -40t-38 -16q-22 0 -39 16t-17 40zM197 259q0 -70 49.5 -117.5t120.5 -47.5q74 0 123.5 47.5t49.5 117.5v466 h103v-469q0 -118 -79 -191t-197 -73t-196.5 73t-78.5 191v469h105v-466z" />
<glyph unicode="&#xdd;" horiz-adv-x="696" d="M521 902l-130 -134h-63l81 134h112zM294 239l-268 486h129l195 -366l192 366h128l-271 -486v-239h-105v239z" />
<glyph unicode="&#xde;" horiz-adv-x="602" d="M321 591q112 0 174 -59t62 -169q0 -46 -12.5 -86t-38.5 -75t-73.5 -55.5t-111.5 -20.5h-110v-126h-108v720h108v-129h110zM311 228q69 0 103.5 39.5t34.5 93.5t-35 91.5t-102 37.5h-101v-262h100z" />
<glyph unicode="&#xdf;" horiz-adv-x="605" d="M108 455q0 97 59.5 154.5t148.5 56.5q91 0 142.5 -40.5t51.5 -100.5q0 -93 -73 -130q120 -46 120 -198q0 -98 -54.5 -152.5t-143.5 -54.5q-75 0 -114 37l39 61q28 -21 65 -21q50 0 78.5 38.5t28.5 96.5q0 66 -32.5 104t-86.5 37h-5l-1 88q34 0 55.5 19.5t21.5 51.5 q0 36 -23.5 58.5t-66.5 22.5q-109 0 -109 -161v-422h-101v340h-65v83h65v32z" />
<glyph unicode="&#xe0;" horiz-adv-x="591" d="M159 634h111l71 -134h-63zM254 -10q-92 0 -151.5 57.5t-59.5 161.5q0 102 62 164t151 62q103 0 156 -80l7 63h93v-418h-101v66q-23 -29 -63.5 -52.5t-93.5 -23.5zM281 73q49 0 84 26.5t46 72.5v86q-12 42 -49 68.5t-84 26.5q-55 0 -93.5 -39.5t-38.5 -99.5q0 -59 40 -100 t95 -41z" />
<glyph unicode="&#xe1;" horiz-adv-x="591" d="M473 628l-130 -134h-63l81 134h112zM254 -10q-92 0 -151.5 57.5t-59.5 161.5q0 102 62 164t151 62q103 0 156 -80l7 63h93v-418h-101v66q-23 -29 -63.5 -52.5t-93.5 -23.5zM281 73q49 0 84 26.5t46 72.5v86q-12 42 -49 68.5t-84 26.5q-55 0 -93.5 -39.5t-38.5 -99.5 q0 -59 40 -100t95 -41z" />
<glyph unicode="&#xe2;" horiz-adv-x="591" d="M386 500l-80 83l-75 -83h-92l168 174h1l171 -174h-93zM254 -10q-92 0 -151.5 57.5t-59.5 161.5q0 102 62 164t151 62q103 0 156 -80l7 63h93v-418h-101v66q-23 -29 -63.5 -52.5t-93.5 -23.5zM281 73q49 0 84 26.5t46 72.5v86q-12 42 -49 68.5t-84 26.5q-55 0 -93.5 -39.5 t-38.5 -99.5q0 -59 40 -100t95 -41z" />
<glyph unicode="&#xe3;" horiz-adv-x="591" d="M388 474q-8 0 -16 1.5t-13.5 2.5t-13 5t-11.5 6t-11 7.5t-9.5 7t-10 8t-8.5 7.5q-30 28 -49 28q-20 0 -30.5 -20.5t-8.5 -52.5h-55q-5 60 22.5 100.5t76.5 40.5q36 0 81 -43q35 -33 53 -33q37 0 35 76h55q7 -62 -18.5 -101.5t-68.5 -39.5zM254 -10q-92 0 -151.5 57.5 t-59.5 161.5q0 102 62 164t151 62q103 0 156 -80l7 63h93v-418h-101v66q-23 -29 -63.5 -52.5t-93.5 -23.5zM281 73q49 0 84 26.5t46 72.5v86q-12 42 -49 68.5t-84 26.5q-55 0 -93.5 -39.5t-38.5 -99.5q0 -59 40 -100t95 -41z" />
<glyph unicode="&#xe4;" horiz-adv-x="591" d="M158 543q0 23 17 40t39 17q20 0 37.5 -17t17.5 -40q0 -24 -17 -40t-38 -16q-22 0 -39 16t-17 40zM347 543q0 23 17 40t39 17q20 0 37.5 -17t17.5 -40q0 -24 -17 -40t-38 -16q-22 0 -39 16t-17 40zM254 -10q-92 0 -151.5 57.5t-59.5 161.5q0 102 62 164t151 62 q103 0 156 -80l7 63h93v-418h-101v66q-23 -29 -63.5 -52.5t-93.5 -23.5zM281 73q49 0 84 26.5t46 72.5v86q-12 42 -49 68.5t-84 26.5q-55 0 -93.5 -39.5t-38.5 -99.5q0 -59 40 -100t95 -41z" />
<glyph unicode="&#xe5;" horiz-adv-x="591" d="M204 559q0 41 27.5 66.5t69.5 25.5q41 0 68.5 -25.5t27.5 -66.5q0 -40 -27.5 -66t-68.5 -26q-42 0 -69.5 25.5t-27.5 66.5zM258 558q0 -19 12 -31.5t31 -12.5q18 0 30 12.5t12 31.5q0 20 -12 32t-30 12q-19 0 -31 -12t-12 -32zM254 -10q-92 0 -151.5 57.5t-59.5 161.5 q0 102 62 164t151 62q103 0 156 -80l7 63h93v-418h-101v66q-23 -29 -63.5 -52.5t-93.5 -23.5zM281 73q49 0 84 26.5t46 72.5v86q-12 42 -49 68.5t-84 26.5q-55 0 -93.5 -39.5t-38.5 -99.5q0 -59 40 -100t95 -41z" />
<glyph unicode="&#xe6;" horiz-adv-x="820" d="M207 -11q-81 0 -122.5 36t-41.5 94q0 59 51 94t122 35q66 0 122 -28v43q0 48 -29 68t-63 20q-71 0 -125 -65l-51 65q79 83 190 83q105 0 150 -60q67 61 162 61q84 0 139 -48.5t75 -136.5l-327 -113q39 -61 113 -61q51 0 99 35l46 -75q-71 -46 -147 -46q-119 0 -182 76v-1 q-29 -38 -78 -57t-103 -19zM438 218q0 -15 1 -21l233 85q-32 73 -107 73q-56 0 -91.5 -38.5t-35.5 -98.5zM155 122q0 -29 20.5 -45.5t59.5 -16.5q28 0 60.5 14t49.5 35v38q-50 35 -106 35q-37 0 -60.5 -15t-23.5 -45z" />
<glyph unicode="&#xe7;" horiz-adv-x="460" d="M149 -149q24 -26 65 -26q27 0 46.5 11.5t19.5 32.5q0 18 -15 30.5t-47 12.5q-24 0 -65 -12l-17 48l58 53q-70 21 -110.5 75.5t-40.5 132.5q0 98 65 158.5t156 60.5q97 0 160 -53l-50 -65q-46 36 -102 36q-54 0 -91 -39.5t-37 -97.5t39 -97t99 -39q51 0 88 29l51 -63 q-60 -49 -147 -49h-6l-28 -32h2q55 2 89 -21.5t34 -66.5q0 -48 -40.5 -74t-99.5 -26q-67 0 -108 39z" />
<glyph unicode="&#xe8;" horiz-adv-x="525" d="M122 635h111l71 -134h-63zM275 -10q-106 0 -169 62t-63 160q0 93 68 158t166 65q84 0 139 -48.5t75 -136.5l-327 -113q39 -61 113 -61q51 0 99 35l46 -75q-71 -46 -147 -46zM143 218q0 -15 1 -21l233 85q-32 73 -107 73q-56 0 -91.5 -38.5t-35.5 -98.5z" />
<glyph unicode="&#xe9;" horiz-adv-x="525" d="M436 628l-130 -134h-63l81 134h112zM275 -10q-106 0 -169 62t-63 160q0 93 68 158t166 65q84 0 139 -48.5t75 -136.5l-327 -113q39 -61 113 -61q51 0 99 35l46 -75q-71 -46 -147 -46zM143 218q0 -15 1 -21l233 85q-32 73 -107 73q-56 0 -91.5 -38.5t-35.5 -98.5z" />
<glyph unicode="&#xea;" horiz-adv-x="525" d="M349 500l-80 83l-75 -83h-92l168 174h1l171 -174h-93zM275 -10q-106 0 -169 62t-63 160q0 93 68 158t166 65q84 0 139 -48.5t75 -136.5l-327 -113q39 -61 113 -61q51 0 99 35l46 -75q-71 -46 -147 -46zM143 218q0 -15 1 -21l233 85q-32 73 -107 73q-56 0 -91.5 -38.5 t-35.5 -98.5z" />
<glyph unicode="&#xeb;" horiz-adv-x="525" d="M121 544q0 23 17 40t39 17q20 0 37.5 -17t17.5 -40q0 -24 -17 -40t-38 -16q-22 0 -39 16t-17 40zM310 544q0 23 17 40t39 17q20 0 37.5 -17t17.5 -40q0 -24 -17 -40t-38 -16q-22 0 -39 16t-17 40zM275 -10q-106 0 -169 62t-63 160q0 93 68 158t166 65q84 0 139 -48.5 t75 -136.5l-327 -113q39 -61 113 -61q51 0 99 35l46 -75q-71 -46 -147 -46zM143 218q0 -15 1 -21l233 85q-32 73 -107 73q-56 0 -91.5 -38.5t-35.5 -98.5z" />
<glyph unicode="&#xec;" horiz-adv-x="259" d="M-19 620h111l71 -134h-63zM79 418h101v-418h-101v418z" />
<glyph unicode="&#xed;" horiz-adv-x="259" d="M295 614l-130 -134h-63l81 134h112zM79 418h101v-418h-101v418z" />
<glyph unicode="&#xee;" horiz-adv-x="259" d="M208 486l-80 83l-75 -83h-92l168 174h1l171 -174h-93zM79 418h101v-418h-101v418z" />
<glyph unicode="&#xef;" horiz-adv-x="259" d="M-20 529q0 23 17 40t39 17q20 0 37.5 -17t17.5 -40q0 -24 -17 -40t-38 -16q-22 0 -39 16t-17 40zM169 529q0 23 17 40t39 17q20 0 37.5 -17t17.5 -40q0 -24 -17 -40t-38 -16q-22 0 -39 16t-17 40zM79 418h101v-418h-101v418z" />
<glyph unicode="&#xf0;" horiz-adv-x="549" d="M265 -10q-95 0 -158.5 61.5t-63.5 161.5q0 94 60.5 158t147.5 64q83 0 137 -68q-27 114 -107 210l-88 -55l-34 67l71 44q-38 35 -82 70l74 67q50 -34 96 -83l84 52l34 -66l-69 -43q64 -85 101.5 -185t37.5 -195q0 -105 -65.5 -182.5t-175.5 -77.5zM274 73q57 0 93.5 39.5 t36.5 99.5t-36.5 100t-93.5 40q-55 0 -92 -41t-37 -99q0 -59 37 -99t92 -40z" />
<glyph unicode="&#xf1;" horiz-adv-x="560" d="M358 467q-8 0 -16 1.5t-13.5 2.5t-13 5t-11.5 6t-11 7.5t-9.5 7t-10 8t-8.5 7.5q-30 28 -49 28q-20 0 -30.5 -20.5t-8.5 -52.5h-55q-5 60 22.5 100.5t76.5 40.5q36 0 81 -43q35 -33 53 -33q37 0 35 76h55q7 -62 -18.5 -101.5t-68.5 -39.5zM170 418l7 -80q21 44 65 70 t102 26q59 0 97 -35t39 -90v-309h-101v274q-3 73 -75 74q-54 0 -89 -44t-35 -113v-191h-101v418h91z" />
<glyph unicode="&#xf2;" horiz-adv-x="549" d="M125 634h111l71 -134h-63zM43 213q0 95 66 158.5t168 63.5t165.5 -63t63.5 -159t-64 -159.5t-167 -63.5q-101 0 -166.5 61t-65.5 162zM145 212q0 -59 37 -99t92 -40q57 0 93.5 39.5t36.5 99.5t-36.5 100t-93.5 40q-55 0 -92 -41t-37 -99z" />
<glyph unicode="&#xf3;" horiz-adv-x="549" d="M439 628l-130 -134h-63l81 134h112zM43 213q0 95 66 158.5t168 63.5t165.5 -63t63.5 -159t-64 -159.5t-167 -63.5q-101 0 -166.5 61t-65.5 162zM145 212q0 -59 37 -99t92 -40q57 0 93.5 39.5t36.5 99.5t-36.5 100t-93.5 40q-55 0 -92 -41t-37 -99z" />
<glyph unicode="&#xf4;" horiz-adv-x="549" d="M352 500l-80 83l-75 -83h-92l168 174h1l171 -174h-93zM43 213q0 95 66 158.5t168 63.5t165.5 -63t63.5 -159t-64 -159.5t-167 -63.5q-101 0 -166.5 61t-65.5 162zM145 212q0 -59 37 -99t92 -40q57 0 93.5 39.5t36.5 99.5t-36.5 100t-93.5 40q-55 0 -92 -41t-37 -99z" />
<glyph unicode="&#xf5;" horiz-adv-x="549" d="M354 474q-8 0 -16 1.5t-13.5 2.5t-13 5t-11.5 6t-11 7.5t-9.5 7t-10 8t-8.5 7.5q-30 28 -49 28q-20 0 -30.5 -20.5t-8.5 -52.5h-55q-5 60 22.5 100.5t76.5 40.5q36 0 81 -43q35 -33 53 -33q37 0 35 76h55q7 -62 -18.5 -101.5t-68.5 -39.5zM43 213q0 95 66 158.5t168 63.5 t165.5 -63t63.5 -159t-64 -159.5t-167 -63.5q-101 0 -166.5 61t-65.5 162zM145 212q0 -59 37 -99t92 -40q57 0 93.5 39.5t36.5 99.5t-36.5 100t-93.5 40q-55 0 -92 -41t-37 -99z" />
<glyph unicode="&#xf6;" horiz-adv-x="549" d="M124 543q0 23 17 40t39 17q20 0 37.5 -17t17.5 -40q0 -24 -17 -40t-38 -16q-22 0 -39 16t-17 40zM313 543q0 23 17 40t39 17q20 0 37.5 -17t17.5 -40q0 -24 -17 -40t-38 -16q-22 0 -39 16t-17 40zM43 213q0 95 66 158.5t168 63.5t165.5 -63t63.5 -159t-64 -159.5 t-167 -63.5q-101 0 -166.5 61t-65.5 162zM145 212q0 -59 37 -99t92 -40q57 0 93.5 39.5t36.5 99.5t-36.5 100t-93.5 40q-55 0 -92 -41t-37 -99z" />
<glyph unicode="&#xf7;" horiz-adv-x="507" d="M199 402q0 23 17 39.5t38 16.5t38 -16.5t17 -39.5q0 -24 -17 -40t-38 -16q-22 0 -38.5 15.5t-16.5 40.5zM69 297h364v-89h-364v89zM199 107q0 23 16.5 39.5t38.5 16.5q21 0 38 -16.5t17 -39.5q0 -24 -17 -40t-38 -16q-22 0 -38.5 15.5t-16.5 40.5z" />
<glyph unicode="&#xf8;" horiz-adv-x="525" d="M43 213q0 95 66 158.5t168 63.5q64 0 116 -27l37 42l51 -42l-35 -40q60 -63 60 -155q0 -96 -64 -159.5t-167 -63.5q-73 0 -129 33l-42 -49l-49 46l40 45q-52 60 -52 148zM145 212q0 -39 17 -70l171 196q-28 14 -59 14q-55 0 -92 -41t-37 -99zM404 212q0 47 -23 81 l-174 -201q30 -19 67 -19q57 0 93.5 39.5t36.5 99.5z" />
<glyph unicode="&#xf9;" horiz-adv-x="552" d="M128 634h111l71 -134h-63zM213 -17q-58 0 -95 35t-39 90v310h101v-274q3 -72 73 -75q51 0 85 45t34 113v191h101v-418h-91l-6 77q-22 -42 -65.5 -68t-97.5 -26z" />
<glyph unicode="&#xfa;" horiz-adv-x="552" d="M442 628l-130 -134h-63l81 134h112zM213 -17q-58 0 -95 35t-39 90v310h101v-274q3 -72 73 -75q51 0 85 45t34 113v191h101v-418h-91l-6 77q-22 -42 -65.5 -68t-97.5 -26z" />
<glyph unicode="&#xfb;" horiz-adv-x="552" d="M355 500l-80 83l-75 -83h-92l168 174h1l171 -174h-93zM213 -17q-58 0 -95 35t-39 90v310h101v-274q3 -72 73 -75q51 0 85 45t34 113v191h101v-418h-91l-6 77q-22 -42 -65.5 -68t-97.5 -26z" />
<glyph unicode="&#xfc;" horiz-adv-x="552" d="M126 543q0 23 17 40t39 17q20 0 37.5 -17t17.5 -40q0 -24 -17 -40t-38 -16q-22 0 -39 16t-17 40zM315 543q0 23 17 40t39 17q20 0 37.5 -17t17.5 -40q0 -24 -17 -40t-38 -16q-22 0 -39 16t-17 40zM213 -17q-58 0 -95 35t-39 90v310h101v-274q3 -72 73 -75q51 0 85 45 t34 113v191h101v-418h-91l-6 77q-22 -42 -65.5 -68t-97.5 -26z" />
<glyph unicode="&#xfd;" horiz-adv-x="500" d="M421 614l-130 -134h-63l81 134h112zM115 -201l96 215l-193 404h113l131 -289l128 289h93l-270 -619h-98z" />
<glyph unicode="&#xfe;" horiz-adv-x="591" d="M328 -10q-47 0 -89 20.5t-61 53.5v-265h-100v978h101v-416q64 74 168 74q90 0 148 -62t58 -163q0 -100 -63 -160t-162 -60zM308 70q58 0 100.5 40t42.5 99q0 60 -40 100.5t-96 40.5q-51 0 -87 -27.5t-49 -74.5v-77q9 -44 45 -72.5t84 -28.5z" />
<glyph unicode="&#xff;" horiz-adv-x="500" d="M106 529q0 23 17 40t39 17q20 0 37.5 -17t17.5 -40q0 -24 -17 -40t-38 -16q-22 0 -39 16t-17 40zM295 529q0 23 17 40t39 17q20 0 37.5 -17t17.5 -40q0 -24 -17 -40t-38 -16q-22 0 -39 16t-17 40zM115 -201l96 215l-193 404h113l131 -289l128 289h93l-270 -619h-98z" />
<glyph unicode="&#x100;" horiz-adv-x="700" d="M224 864h247v-71h-247v71zM28 0l319 755h6l319 -755h-121l-72 182h-272l-75 -182h-104zM243 272h201l-98 250z" />
<glyph unicode="&#x101;" horiz-adv-x="591" d="M186 561h247v-71h-247v71zM254 -10q-92 0 -151.5 57.5t-59.5 161.5q0 102 62 164t151 62q103 0 156 -80l7 63h93v-418h-101v66q-23 -29 -63.5 -52.5t-93.5 -23.5zM281 73q49 0 84 26.5t46 72.5v86q-12 42 -49 68.5t-84 26.5q-55 0 -93.5 -39.5t-38.5 -99.5q0 -59 40 -100 t95 -41z" />
<glyph unicode="&#x102;" horiz-adv-x="700" d="M351 788q-129 0 -154 178h68q16 -109 86 -109t84 109h69q-23 -178 -153 -178zM28 0l319 755h6l319 -755h-121l-72 182h-272l-75 -182h-104zM243 272h201l-98 250z" />
<glyph unicode="&#x103;" horiz-adv-x="591" d="M310 481q-129 0 -154 178h68q16 -109 86 -109t84 109h69q-23 -178 -153 -178zM254 -10q-92 0 -151.5 57.5t-59.5 161.5q0 102 62 164t151 62q103 0 156 -80l7 63h93v-418h-101v66q-23 -29 -63.5 -52.5t-93.5 -23.5zM281 73q49 0 84 26.5t46 72.5v86q-12 42 -49 68.5 t-84 26.5q-55 0 -93.5 -39.5t-38.5 -99.5q0 -59 40 -100t95 -41z" />
<glyph unicode="&#x104;" horiz-adv-x="700" d="M28 0l319 755h6l319 -755q-59 -26 -88 -48.5t-29 -49.5q0 -24 13.5 -36t33.5 -12q39 0 69 48l38 -51q-19 -30 -51.5 -49.5t-64.5 -19.5q-52 0 -87 31.5t-35 80.5q0 33 21 63t57 48l-70 177h-272l-75 -182h-104zM243 272h201l-98 250z" />
<glyph unicode="&#x105;" horiz-adv-x="596" d="M253 -10q-90 0 -148.5 57.5t-58.5 161.5q0 101 61 163.5t146 62.5q107 0 161 -85l7 68h93v-418q-50 -23 -75 -45.5t-25 -52.5q0 -48 47 -48q37 0 69 48l37 -51q-18 -30 -51 -49.5t-64 -19.5q-52 0 -87.5 31.5t-35.5 80.5q0 34 23.5 66t61.5 49v63q-63 -82 -161 -82z M281 73q50 0 85.5 26.5t47.5 72.5v86q-12 42 -49 68.5t-84 26.5q-55 0 -94 -39.5t-39 -99.5q0 -59 39 -100t94 -41z" />
<glyph unicode="&#x106;" horiz-adv-x="694" d="M556 907l-130 -134h-63l81 134h112zM637 55q-97 -65 -215 -63q-165 2 -264.5 107t-99.5 258q0 164 101 270t257 106q116 0 211 -59l-42 -98q-84 56 -166 56q-104 0 -178 -78.5t-74 -191.5q0 -117 70.5 -193t186.5 -76q98 0 168 56z" />
<glyph unicode="&#x107;" horiz-adv-x="460" d="M418 621l-130 -134h-63l81 134h112zM421 39q-60 -49 -147 -49q-104 0 -167.5 59.5t-63.5 159.5q0 98 65 158.5t156 60.5q97 0 160 -53l-50 -65q-46 36 -102 36q-54 0 -91 -39.5t-37 -97.5t39 -97t99 -39q51 0 88 29z" />
<glyph unicode="&#x108;" horiz-adv-x="694" d="M469 789l-80 83l-75 -83h-92l168 174h1l171 -174h-93zM637 55q-97 -65 -215 -63q-165 2 -264.5 107t-99.5 258q0 164 101 270t257 106q116 0 211 -59l-42 -98q-84 56 -166 56q-104 0 -178 -78.5t-74 -191.5q0 -117 70.5 -193t186.5 -76q98 0 168 56z" />
<glyph unicode="&#x109;" horiz-adv-x="460" d="M331 493l-80 83l-75 -83h-92l168 174h1l171 -174h-93zM421 39q-60 -49 -147 -49q-104 0 -167.5 59.5t-63.5 159.5q0 98 65 158.5t156 60.5q97 0 160 -53l-50 -65q-46 36 -102 36q-54 0 -91 -39.5t-37 -97.5t39 -97t99 -39q51 0 88 29z" />
<glyph unicode="&#x10a;" horiz-adv-x="694" d="M339 833q0 23 18 39t41 16q22 0 40 -16t18 -39q0 -24 -17.5 -39.5t-40.5 -15.5t-41 15.5t-18 39.5zM637 55q-97 -65 -215 -63q-165 2 -264.5 107t-99.5 258q0 164 101 270t257 106q116 0 211 -59l-42 -98q-84 56 -166 56q-104 0 -178 -78.5t-74 -191.5q0 -117 70.5 -193 t186.5 -76q98 0 168 56z" />
<glyph unicode="&#x10b;" horiz-adv-x="460" d="M197 576q0 23 18 39t41 16q22 0 40 -16t18 -39q0 -24 -17.5 -39.5t-40.5 -15.5t-41 15.5t-18 39.5zM421 39q-60 -49 -147 -49q-104 0 -167.5 59.5t-63.5 159.5q0 98 65 158.5t156 60.5q97 0 160 -53l-50 -65q-46 36 -102 36q-54 0 -91 -39.5t-37 -97.5t39 -97t99 -39 q51 0 88 29z" />
<glyph unicode="&#x10c;" horiz-adv-x="694" d="M318 940l79 -83l75 83h93l-168 -174h-1l-171 174h93zM637 55q-97 -65 -215 -63q-165 2 -264.5 107t-99.5 258q0 164 101 270t257 106q116 0 211 -59l-42 -98q-84 56 -166 56q-104 0 -178 -78.5t-74 -191.5q0 -117 70.5 -193t186.5 -76q98 0 168 56z" />
<glyph unicode="&#x10d;" horiz-adv-x="460" d="M184 650l79 -83l75 83h93l-168 -174h-1l-171 174h93zM421 39q-60 -49 -147 -49q-104 0 -167.5 59.5t-63.5 159.5q0 98 65 158.5t156 60.5q97 0 160 -53l-50 -65q-46 36 -102 36q-54 0 -91 -39.5t-37 -97.5t39 -97t99 -39q51 0 88 29z" />
<glyph unicode="&#x10e;" horiz-adv-x="756" d="M230 923l79 -83l75 83h93l-168 -174h-1l-171 174h93zM103 0v725h201q83 0 151 -22t112.5 -58t75 -84.5t43.5 -100.5t13 -107q0 -158 -105 -255.5t-255 -97.5h-236zM207 101h112q121 0 196.5 68.5t75.5 190.5q0 86 -39 147.5t-96.5 89t-123.5 27.5h-125v-523z" />
<glyph unicode="&#x10f;" horiz-adv-x="699" d="M250 -10q-90 0 -148.5 62t-58.5 163q0 102 61.5 161t157.5 59q101 0 156 -69v411h101v-777h-102v61q-68 -71 -167 -71zM705 770q8 -41 -13 -88.5t-55 -69.5l-52 25q23 21 35 56.5t5 69.5zM281 75q52 0 88 27.5t48 73.5v83q-11 42 -48.5 69t-87.5 27q-56 0 -95.5 -39.5 t-39.5 -99.5q0 -59 40 -100t95 -41z" />
<glyph unicode="&#x110;" horiz-adv-x="764" d="M111 0v313h-86v94h86v318h201q83 0 151 -22t112.5 -58t75 -84.5t43.5 -100.5t13 -107q0 -158 -105 -255.5t-255 -97.5h-236zM215 101h112q121 0 196.5 68.5t75.5 190.5q0 86 -39 147.5t-96.5 89t-123.5 27.5h-125v-217h94v-94h-94v-212z" />
<glyph unicode="&#x111;" horiz-adv-x="598" d="M250 -10q-90 0 -148.5 62t-58.5 163q0 102 61.5 161t157.5 59q101 0 156 -69v221h-98v94h98v96h101v-96h85v-94h-85v-587h-102v61q-68 -71 -167 -71zM281 75q52 0 88 27.5t48 73.5v83q-11 42 -48.5 69t-87.5 27q-56 0 -95.5 -39.5t-39.5 -99.5q0 -59 40 -100t95 -41z" />
<glyph unicode="&#x112;" horiz-adv-x="655" d="M210 850h247v-71h-247v71zM103 725h475v-101h-371v-209h331v-101h-331v-213h385v-101h-489v725z" />
<glyph unicode="&#x113;" horiz-adv-x="525" d="M148 561h247v-71h-247v71zM275 -10q-106 0 -169 62t-63 160q0 93 68 158t166 65q84 0 139 -48.5t75 -136.5l-327 -113q39 -61 113 -61q51 0 99 35l46 -75q-71 -46 -147 -46zM143 218q0 -15 1 -21l233 85q-32 73 -107 73q-56 0 -91.5 -38.5t-35.5 -98.5z" />
<glyph unicode="&#x114;" horiz-adv-x="655" d="M337 775q-129 0 -154 178h68q16 -109 86 -109t84 109h69q-23 -178 -153 -178zM103 725h475v-101h-371v-209h331v-101h-331v-213h385v-101h-489v725z" />
<glyph unicode="&#x115;" horiz-adv-x="525" d="M273 481q-129 0 -154 178h68q16 -109 86 -109t84 109h69q-23 -178 -153 -178zM275 -10q-106 0 -169 62t-63 160q0 93 68 158t166 65q84 0 139 -48.5t75 -136.5l-327 -113q39 -61 113 -61q51 0 99 35l46 -75q-71 -46 -147 -46zM143 218q0 -15 1 -21l233 85q-32 73 -107 73 q-56 0 -91.5 -38.5t-35.5 -98.5z" />
<glyph unicode="&#x116;" horiz-adv-x="655" d="M278 830q0 23 18 39t41 16q22 0 40 -16t18 -39q0 -24 -17.5 -39.5t-40.5 -15.5t-41 15.5t-18 39.5zM103 725h475v-101h-371v-209h331v-101h-331v-213h385v-101h-489v725z" />
<glyph unicode="&#x117;" horiz-adv-x="525" d="M215 583q0 23 18 39t41 16q22 0 40 -16t18 -39q0 -24 -17.5 -39.5t-40.5 -15.5t-41 15.5t-18 39.5zM275 -10q-106 0 -169 62t-63 160q0 93 68 158t166 65q84 0 139 -48.5t75 -136.5l-327 -113q39 -61 113 -61q51 0 99 35l46 -75q-71 -46 -147 -46zM143 218q0 -15 1 -21 l233 85q-32 73 -107 73q-56 0 -91.5 -38.5t-35.5 -98.5z" />
<glyph unicode="&#x118;" horiz-adv-x="655" d="M513 -218q-52 0 -87 31.5t-35 80.5q0 30 18.5 58.5t50.5 47.5h-357v725h475v-101h-371v-209h331v-101h-331v-213h385v-101q-59 -26 -88 -48.5t-29 -49.5q0 -24 13.5 -36t33.5 -12q39 0 69 48l38 -51q-19 -30 -51.5 -49.5t-64.5 -19.5z" />
<glyph unicode="&#x119;" horiz-adv-x="528" d="M327 -218q-58 0 -93 31.5t-35 83.5q0 56 47 95q-93 9 -146.5 69.5t-53.5 150.5q0 93 68 158t166 65q84 0 139 -48.5t74 -136.5l-326 -113q39 -61 113 -61q52 0 98 35l47 -75q-15 -9 -39 -21t-39.5 -20t-31.5 -20t-24 -27t-8 -35q0 -26 16.5 -42.5t37.5 -16.5q34 0 65 43 l37 -54q-19 -26 -50.5 -43.5t-61.5 -17.5zM146 218q0 -16 1 -23l234 85q-32 75 -109 75q-55 0 -90.5 -38.5t-35.5 -98.5z" />
<glyph unicode="&#x11a;" horiz-adv-x="655" d="M257 937l79 -83l75 83h93l-168 -174h-1l-171 174h93zM103 725h475v-101h-371v-209h331v-101h-331v-213h385v-101h-489v725z" />
<glyph unicode="&#x11b;" horiz-adv-x="525" d="M202 658l79 -83l75 83h93l-168 -174h-1l-171 174h93zM275 -10q-106 0 -169 62t-63 160q0 93 68 158t166 65q84 0 139 -48.5t75 -136.5l-327 -113q39 -61 113 -61q51 0 99 35l46 -75q-71 -46 -147 -46zM143 218q0 -15 1 -21l233 85q-32 73 -107 73q-56 0 -91.5 -38.5 t-35.5 -98.5z" />
<glyph unicode="&#x11c;" horiz-adv-x="753" d="M480 773l-80 83l-75 -83h-92l168 174h1l171 -174h-93zM674 64q-32 -27 -104 -49.5t-133 -22.5q-171 0 -275 100t-104 255q0 179 107.5 282.5t263.5 103.5q122 0 216 -53l-35 -97q-32 18 -81 31.5t-87 13.5q-126 0 -201 -73t-75 -199q0 -116 76 -188t197 -72q82 0 129 28 v134h-141v101h247v-295z" />
<glyph unicode="&#x11d;" horiz-adv-x="604" d="M379 500l-80 83l-75 -83h-92l168 174h1l171 -174h-93zM283 -208q-66 0 -111.5 21.5t-91.5 62.5l60 69q66 -64 141 -64q67 0 104.5 31.5t38.5 86.5v76q-22 -38 -66 -61.5t-103 -23.5q-88 0 -150 63.5t-62 157.5q0 95 65 159.5t153 64.5q54 0 99 -20.5t65 -51.5l7 55h93 v-421q0 -88 -67 -146.5t-175 -58.5zM145 214q0 -60 40 -100.5t99 -40.5q52 0 89 27t51 71v86q-14 43 -52 69.5t-88 26.5q-59 0 -99 -39.5t-40 -99.5z" />
<glyph unicode="&#x11e;" horiz-adv-x="753" d="M408 761q-129 0 -154 178h68q16 -109 86 -109t84 109h69q-23 -178 -153 -178zM674 64q-32 -27 -104 -49.5t-133 -22.5q-171 0 -275 100t-104 255q0 179 107.5 282.5t263.5 103.5q122 0 216 -53l-35 -97q-32 18 -81 31.5t-87 13.5q-126 0 -201 -73t-75 -199 q0 -116 76 -188t197 -72q82 0 129 28v134h-141v101h247v-295z" />
<glyph unicode="&#x11f;" horiz-adv-x="604" d="M303 481q-129 0 -154 178h68q16 -109 86 -109t84 109h69q-23 -178 -153 -178zM283 -208q-66 0 -111.5 21.5t-91.5 62.5l60 69q66 -64 141 -64q67 0 104.5 31.5t38.5 86.5v76q-22 -38 -66 -61.5t-103 -23.5q-88 0 -150 63.5t-62 157.5q0 95 65 159.5t153 64.5 q54 0 99 -20.5t65 -51.5l7 55h93v-421q0 -88 -67 -146.5t-175 -58.5zM145 214q0 -60 40 -100.5t99 -40.5q52 0 89 27t51 71v86q-14 43 -52 69.5t-88 26.5q-59 0 -99 -39.5t-40 -99.5z" />
<glyph unicode="&#x120;" horiz-adv-x="753" d="M349 816q0 23 18 39t41 16q22 0 40 -16t18 -39q0 -24 -17.5 -39.5t-40.5 -15.5t-41 15.5t-18 39.5zM674 64q-32 -27 -104 -49.5t-133 -22.5q-171 0 -275 100t-104 255q0 179 107.5 282.5t263.5 103.5q122 0 216 -53l-35 -97q-32 18 -81 31.5t-87 13.5q-126 0 -201 -73 t-75 -199q0 -116 76 -188t197 -72q82 0 129 28v134h-141v101h247v-295z" />
<glyph unicode="&#x121;" horiz-adv-x="604" d="M244 583q0 23 18 39t41 16q22 0 40 -16t18 -39q0 -24 -17.5 -39.5t-40.5 -15.5t-41 15.5t-18 39.5zM283 -208q-66 0 -111.5 21.5t-91.5 62.5l60 69q66 -64 141 -64q67 0 104.5 31.5t38.5 86.5v76q-22 -38 -66 -61.5t-103 -23.5q-88 0 -150 63.5t-62 157.5q0 95 65 159.5 t153 64.5q54 0 99 -20.5t65 -51.5l7 55h93v-421q0 -88 -67 -146.5t-175 -58.5zM145 214q0 -60 40 -100.5t99 -40.5q52 0 89 27t51 71v86q-14 43 -52 69.5t-88 26.5q-59 0 -99 -39.5t-40 -99.5z" />
<glyph unicode="&#x122;" horiz-adv-x="753" d="M674 64q-32 -27 -104 -49.5t-133 -22.5q-171 0 -275 100t-104 255q0 179 107.5 282.5t263.5 103.5q122 0 216 -53l-35 -97q-32 18 -81 31.5t-87 13.5q-126 0 -201 -73t-75 -199q0 -116 76 -188t197 -72q82 0 129 28v134h-141v101h247v-295zM352 -218l-51 35q23 21 33 59 t4 76l90 -1q7 -44 -13.5 -93.5t-62.5 -75.5z" />
<glyph unicode="&#x123;" horiz-adv-x="572" d="M230 507q13 32 27.5 67t32 77.5t27.5 65.5h82q-22 -56 -78 -210h-91zM283 -208q-66 0 -111.5 21.5t-91.5 62.5l60 69q66 -64 141 -64q67 0 104.5 31.5t38.5 86.5v76q-22 -38 -66 -61.5t-103 -23.5q-88 0 -150 63.5t-62 157.5q0 95 65 159.5t153 64.5q54 0 99 -20.5 t65 -51.5l7 55h93v-421q0 -88 -67 -146.5t-175 -58.5zM145 214q0 -60 40 -100.5t99 -40.5q52 0 89 27t51 71v86q-14 43 -52 69.5t-88 26.5q-59 0 -99 -39.5t-40 -99.5z" />
<glyph unicode="&#x124;" horiz-adv-x="785" d="M465 773l-80 83l-75 -83h-92l168 174h1l171 -174h-93zM682 725v-725h-104v314h-371v-314h-104v725h104v-311h371v311h104z" />
<glyph unicode="&#x125;" horiz-adv-x="560" d="M199 820l-80 83l-75 -83h-92l168 174h1l171 -174h-93zM79 0v777h99v-433q23 41 66 65.5t100 24.5q59 0 97 -35t39 -90v-309h-101v274q-3 73 -75 74q-53 0 -88.5 -44.5t-35.5 -112.5v-191h-101z" />
<glyph unicode="&#x126;" horiz-adv-x="949" d="M103 575h79v150h104v-150h371v150h104v-150h85v-78h-85v-497h-104v314h-371v-314h-104v497h-79v78zM286 414h371v83h-371v-83z" />
<glyph unicode="&#x127;" horiz-adv-x="560" d="M79 0v555h-85v94h85v128h99v-128h100v-94h-100v-211q23 41 66 65.5t100 24.5q59 0 97 -35t39 -90v-309h-101v274q-3 73 -75 74q-53 0 -88.5 -44.5t-35.5 -112.5v-191h-101z" />
<glyph unicode="&#x128;" horiz-adv-x="310" d="M234 805q-8 0 -16 1.5t-13.5 2.5t-13 5t-11.5 6t-11 7.5t-9.5 7t-10 8t-8.5 7.5q-30 28 -49 28q-20 0 -30.5 -20.5t-8.5 -52.5h-55q-5 60 22.5 100.5t76.5 40.5q36 0 81 -43q35 -33 53 -33q37 0 35 76h55q7 -62 -18.5 -101.5t-68.5 -39.5zM103 725h104v-725h-104v725z " />
<glyph unicode="&#x129;" horiz-adv-x="259" d="M210 460q-8 0 -16 1.5t-13.5 2.5t-13 5t-11.5 6t-11 7.5t-9.5 7t-10 8t-8.5 7.5q-30 28 -49 28q-20 0 -30.5 -20.5t-8.5 -52.5h-55q-5 60 22.5 100.5t76.5 40.5q36 0 81 -43q35 -33 53 -33q37 0 35 76h55q7 -62 -18.5 -101.5t-68.5 -39.5zM79 418h101v-418h-101v418z" />
<glyph unicode="&#x12a;" horiz-adv-x="310" d="M29 850h247v-71h-247v71zM103 725h104v-725h-104v725z" />
<glyph unicode="&#x12b;" horiz-adv-x="259" d="M7 547h247v-71h-247v71zM79 418h101v-418h-101v418z" />
<glyph unicode="&#x12c;" horiz-adv-x="310" d="M156 775q-129 0 -154 178h68q16 -109 86 -109t84 109h69q-23 -178 -153 -178zM103 725h104v-725h-104v725z" />
<glyph unicode="&#x12d;" horiz-adv-x="259" d="M132 466q-129 0 -154 178h68q16 -109 86 -109t84 109h69q-23 -178 -153 -178zM79 418h101v-418h-101v418z" />
<glyph unicode="&#x12e;" horiz-adv-x="275" d="M135 -218q-53 0 -87.5 28t-34.5 77q0 35 24 67t65 50h1v721h104v-725h-4q-53 -24 -79.5 -46.5t-26.5 -51.5q0 -25 13.5 -36.5t34.5 -11.5q36 0 68 48l38 -51q-19 -30 -51.5 -49.5t-64.5 -19.5z" />
<glyph unicode="&#x12f;" horiz-adv-x="264" d="M72 559q0 23 18 39t41 16q22 0 40 -16t18 -39q0 -24 -17.5 -39.5t-40.5 -15.5t-41 15.5t-18 39.5zM120 -218q-52 0 -87 31.5t-35 80.5q0 34 22 64t59 48v412h101v-417l2 -1q-51 -24 -76 -46t-25 -52q0 -24 14 -36t34 -12q38 0 68 48l39 -51q-19 -30 -51.5 -49.5 t-64.5 -19.5z" />
<glyph unicode="&#x130;" horiz-adv-x="310" d="M97 830q0 23 18 39t41 16q22 0 40 -16t18 -39q0 -24 -17.5 -39.5t-40.5 -15.5t-41 15.5t-18 39.5zM103 725h104v-725h-104v725z" />
<glyph unicode="&#x131;" horiz-adv-x="259" d="M79 418h101v-418h-101v418z" />
<glyph unicode="&#x132;" horiz-adv-x="680" d="M103 725h104v-725h-104v725zM578 135q0 -130 -73 -205.5t-192 -79.5v102q74 4 117 50t43 136v587h105v-590z" />
<glyph unicode="&#x133;" horiz-adv-x="513" d="M74 568q0 23 18 39t41 16q22 0 40 -16t18 -39q0 -24 -17.5 -39.5t-40.5 -15.5t-41 15.5t-18 39.5zM325 568q0 23 18 39t41 16q22 0 40 -16t18 -39q0 -24 -17.5 -39.5t-40.5 -15.5t-41 15.5t-18 39.5zM79 418h101v-418h-101v418zM331 -201l-60 62q61 51 61 141v416h101 v-420q0 -144 -102 -199z" />
<glyph unicode="&#x134;" horiz-adv-x="371" d="M289 786l-80 83l-75 -83h-92l168 174h1l171 -174h-93zM268 135q0 -130 -73 -205.5t-192 -79.5v102q74 4 117 50t43 136v587h105v-590z" />
<glyph unicode="&#x135;" horiz-adv-x="265" d="M217 486l-80 83l-75 -83h-92l168 174h1l171 -174h-93zM89 -201l-60 62q61 51 61 141v416h101v-420q0 -144 -102 -199z" />
<glyph unicode="&#x136;" horiz-adv-x="683" d="M209 439l-3 -36l14 20l286 302h136l-300 -314l314 -411h-133l-258 345l-57 -55l1 -290h-106v725h106v-286zM290 -218l-51 35q23 21 33 59t4 76l90 -1q7 -44 -13.5 -93.5t-62.5 -75.5z" />
<glyph unicode="&#x137;" horiz-adv-x="506" d="M79 0v777h101v-518l213 168l61 -54l-153 -122l173 -251h-118l-124 196l-52 -41v-155h-101zM221 -204l-51 35q23 21 33 59t4 76l90 -1q7 -44 -13.5 -93.5t-62.5 -75.5z" />
<glyph unicode="&#x138;" horiz-adv-x="516" d="M180 0h-101v418h101v-181l170 181h122l-190 -186l190 -232h-118l-135 170l-39 -38v-132z" />
<glyph unicode="&#x139;" horiz-adv-x="625" d="M312 904l-130 -134h-63l81 134h112zM103 725h104v-624h364v-101h-468v725z" />
<glyph unicode="&#x13a;" horiz-adv-x="259" d="M291 955l-130 -134h-63l81 134h112zM79 777h101v-777h-101v777z" />
<glyph unicode="&#x13b;" horiz-adv-x="625" d="M103 725h104v-624h364v-101h-468v725zM290 -218l-51 35q23 21 33 59t4 76l90 -1q7 -44 -13.5 -93.5t-62.5 -75.5z" />
<glyph unicode="&#x13c;" horiz-adv-x="259" d="M79 777h101v-777h-101v777zM98 -204l-51 35q23 21 33 59t4 76l90 -1q7 -44 -13.5 -93.5t-62.5 -75.5z" />
<glyph unicode="&#x13d;" horiz-adv-x="619" d="M103 725h104v-624h364v-101h-468v725zM495 721q8 -41 -13 -88.5t-55 -69.5l-52 25q23 21 35 56.5t5 69.5z" />
<glyph unicode="&#x13e;" horiz-adv-x="382" d="M79 777h101v-777h-101v777zM373 763q8 -41 -13 -88.5t-55 -69.5l-52 25q23 21 35 56.5t5 69.5z" />
<glyph unicode="&#x13f;" horiz-adv-x="630" d="M103 725h104v-624h364v-101h-468v725zM474 386q0 23 17 40t39 17q20 0 37 -17t17 -40q0 -24 -16.5 -40t-37.5 -16q-22 0 -39 16t-17 40z" />
<glyph unicode="&#x140;" horiz-adv-x="355" d="M79 777h101v-777h-101v777zM253 320q0 23 17 40t39 17q20 0 37 -17t17 -40q0 -24 -16.5 -40t-37.5 -16q-22 0 -39 16t-17 40z" />
<glyph unicode="&#x141;" horiz-adv-x="619" d="M391 468l21 -83l-205 -66v-218h364v-101h-468v285l-68 -22l-21 82l89 29v351h104v-317z" />
<glyph unicode="&#x142;" horiz-adv-x="275" d="M263 393v-88l-76 -20v-285h-101v259l-67 -17v88l67 17v430h101v-404z" />
<glyph unicode="&#x143;" horiz-adv-x="840" d="M566 891l-130 -134h-63l81 134h112zM734 -25l-528 527l2 -502h-105v748h4l528 -534l-2 511h104v-750h-3z" />
<glyph unicode="&#x144;" horiz-adv-x="560" d="M444 621l-130 -134h-63l81 134h112zM170 418l7 -80q21 44 65 70t102 26q59 0 97 -35t39 -90v-309h-101v274q-3 73 -75 74q-54 0 -89 -44t-35 -113v-191h-101v418h91z" />
<glyph unicode="&#x145;" horiz-adv-x="840" d="M734 -25l-528 527l2 -502h-105v748h4l528 -534l-2 511h104v-750h-3zM389 -218l-51 35q23 21 33 59t4 76l90 -1q7 -44 -13.5 -93.5t-62.5 -75.5z" />
<glyph unicode="&#x146;" horiz-adv-x="560" d="M170 418l7 -80q21 44 65 70t102 26q59 0 97 -35t39 -90v-309h-101v274q-3 73 -75 74q-54 0 -89 -44t-35 -113v-191h-101v418h91zM248 -204l-51 35q23 21 33 59t4 76l90 -1q7 -44 -13.5 -93.5t-62.5 -75.5z" />
<glyph unicode="&#x147;" horiz-adv-x="840" d="M327 923l79 -83l75 83h93l-168 -174h-1l-171 174h93zM734 -25l-528 527l2 -502h-105v748h4l528 -534l-2 511h104v-750h-3z" />
<glyph unicode="&#x148;" horiz-adv-x="560" d="M209 650l79 -83l75 83h93l-168 -174h-1l-171 174h93zM170 418l7 -80q21 44 65 70t102 26q59 0 97 -35t39 -90v-309h-101v274q-3 73 -75 74q-54 0 -89 -44t-35 -113v-191h-101v418h91z" />
<glyph unicode="&#x149;" horiz-adv-x="575" d="M-1 412l-51 35q23 21 33 59t4 76l90 -1q7 -44 -13.5 -93.5t-62.5 -75.5zM185 418l7 -80q21 44 65 70t102 26q59 0 97 -35t39 -90v-309h-101v274q-3 73 -75 74q-54 0 -89 -44t-35 -113v-191h-101v418h91z" />
<glyph unicode="&#x14a;" horiz-adv-x="806" d="M616 725h104v-727q0 -137 -102 -199l-59 62q61 51 61 141v70l-432 432l3 -504h-105v748h4l528 -535z" />
<glyph unicode="&#x14b;" horiz-adv-x="560" d="M480 3q0 -142 -101 -204l-59 62q59 51 59 141v272q-3 73 -75 74q-54 0 -89 -44t-35 -113v-191h-101v418h91l8 -83q22 46 64.5 72.5t101.5 26.5t97 -35t39 -90v-306z" />
<glyph unicode="&#x14c;" horiz-adv-x="856" d="M302 843h247v-71h-247v71zM58 362q0 151 108.5 261t260.5 110t262 -110t110 -261q0 -153 -109.5 -261.5t-262.5 -108.5q-154 0 -261.5 107.5t-107.5 262.5zM166 361q0 -111 76.5 -189.5t187.5 -78.5q109 0 185 78t76 191q0 112 -76.5 191t-186.5 79q-111 0 -186.5 -79 t-75.5 -192z" />
<glyph unicode="&#x14d;" horiz-adv-x="549" d="M152 561h247v-71h-247v71zM43 213q0 95 66 158.5t168 63.5t165.5 -63t63.5 -159t-64 -159.5t-167 -63.5q-101 0 -166.5 61t-65.5 162zM145 212q0 -59 37 -99t92 -40q57 0 93.5 39.5t36.5 99.5t-36.5 100t-93.5 40q-55 0 -92 -41t-37 -99z" />
<glyph unicode="&#x14e;" horiz-adv-x="856" d="M429 767q-129 0 -154 178h68q16 -109 86 -109t84 109h69q-23 -178 -153 -178zM58 362q0 151 108.5 261t260.5 110t262 -110t110 -261q0 -153 -109.5 -261.5t-262.5 -108.5q-154 0 -261.5 107.5t-107.5 262.5zM166 361q0 -111 76.5 -189.5t187.5 -78.5q109 0 185 78 t76 191q0 112 -76.5 191t-186.5 79q-111 0 -186.5 -79t-75.5 -192z" />
<glyph unicode="&#x14f;" horiz-adv-x="549" d="M276 481q-129 0 -154 178h68q16 -109 86 -109t84 109h69q-23 -178 -153 -178zM43 213q0 95 66 158.5t168 63.5t165.5 -63t63.5 -159t-64 -159.5t-167 -63.5q-101 0 -166.5 61t-65.5 162zM145 212q0 -59 37 -99t92 -40q57 0 93.5 39.5t36.5 99.5t-36.5 100t-93.5 40 q-55 0 -92 -41t-37 -99z" />
<glyph unicode="&#x150;" horiz-adv-x="856" d="M484 908l-130 -134h-63l81 134h112zM639 906l-130 -134h-63l81 134h112zM58 362q0 151 108.5 261t260.5 110t262 -110t110 -261q0 -153 -109.5 -261.5t-262.5 -108.5q-154 0 -261.5 107.5t-107.5 262.5zM166 361q0 -111 76.5 -189.5t187.5 -78.5q109 0 185 78t76 191 q0 112 -76.5 191t-186.5 79q-111 0 -186.5 -79t-75.5 -192z" />
<glyph unicode="&#x151;" horiz-adv-x="549" d="M342 634l-130 -134h-63l81 134h112zM497 632l-130 -134h-63l81 134h112zM43 213q0 95 66 158.5t168 63.5t165.5 -63t63.5 -159t-64 -159.5t-167 -63.5q-101 0 -166.5 61t-65.5 162zM145 212q0 -59 37 -99t92 -40q57 0 93.5 39.5t36.5 99.5t-36.5 100t-93.5 40 q-55 0 -92 -41t-37 -99z" />
<glyph unicode="&#x152;" horiz-adv-x="1017" d="M945 0h-436q-38 -8 -74 -8q-153 0 -261.5 108t-108.5 262q0 151 109 261t261 110q35 0 73 -8h423v-98h-337v-214h297v-99h-297v-214h351v-100zM173 361q0 -111 77.5 -189t188.5 -78q26 0 47 4v526q-28 5 -51 5q-109 0 -185.5 -78.5t-76.5 -189.5z" />
<glyph unicode="&#x153;" horiz-adv-x="808" d="M558 -10q-87 0 -146 42q-58 -42 -138 -42q-104 0 -167.5 59.5t-63.5 159.5q0 98 65 158.5t156 60.5q88 0 147 -43q66 50 149 50q84 0 139 -48.5t75 -136.5l-327 -113q39 -61 113 -61q51 0 99 35l46 -75q-71 -46 -147 -46zM426 218q0 -15 1 -21l233 85q-32 73 -107 73 q-56 0 -91.5 -38.5t-35.5 -98.5zM144 209q0 -58 39 -97t99 -39q43 0 75 20q-31 53 -31 119q0 59 30 110q-41 24 -84 24q-54 0 -91 -39.5t-37 -97.5z" />
<glyph unicode="&#x154;" horiz-adv-x="664" d="M462 904l-130 -134h-63l81 134h112zM300 725q117 0 189 -60t72 -168q0 -68 -29 -124t-90 -86l180 -287h-122l-168 261h-18h-107v-261h-104v725h197zM312 362q75 0 108 40t33 91q0 49 -33 90t-102 41h-111v-262h105z" />
<glyph unicode="&#x155;" horiz-adv-x="381" d="M347 614l-130 -134h-63l81 134h112zM169 418l8 -99q24 50 76 83t90 33l-5 -100q-68 4 -113 -41.5t-45 -107.5v-186h-101v418h90z" />
<glyph unicode="&#x156;" horiz-adv-x="664" d="M300 725q117 0 189 -60t72 -168q0 -68 -29 -124t-90 -86l180 -287h-122l-168 261h-18h-107v-261h-104v725h197zM312 362q75 0 108 40t33 91q0 49 -33 90t-102 41h-111v-262h105zM298 -218l-51 35q23 21 33 59t4 76l90 -1q7 -44 -13.5 -93.5t-62.5 -75.5z" />
<glyph unicode="&#x157;" horiz-adv-x="381" d="M169 418l8 -99q24 50 76 83t90 33l-5 -100q-68 4 -113 -41.5t-45 -107.5v-186h-101v418h90zM106 -204l-51 35q23 21 33 59t4 76l90 -1q7 -44 -13.5 -93.5t-62.5 -75.5z" />
<glyph unicode="&#x158;" horiz-adv-x="664" d="M223 937l79 -83l75 83h93l-168 -174h-1l-171 174h93zM300 725q117 0 189 -60t72 -168q0 -68 -29 -124t-90 -86l180 -287h-122l-168 261h-18h-107v-261h-104v725h197zM312 362q75 0 108 40t33 91q0 49 -33 90t-102 41h-111v-262h105z" />
<glyph unicode="&#x159;" horiz-adv-x="381" d="M113 643l79 -83l75 83h93l-168 -174h-1l-171 174h93zM169 418l8 -99q24 50 76 83t90 33l-5 -100q-68 4 -113 -41.5t-45 -107.5v-186h-101v418h90z" />
<glyph unicode="&#x15a;" horiz-adv-x="582" d="M449 897l-130 -134h-63l81 134h112zM480 588q-91 48 -167 48q-57 0 -90 -25.5t-33 -70.5q0 -30 24 -55t53 -39.5t76 -31.5q41 -16 67.5 -30t56 -38.5t44.5 -61.5t15 -86q0 -89 -65 -147.5t-175 -58.5q-131 0 -240 76l47 83q37 -28 88 -47.5t95 -19.5q57 0 99 28.5 t42 85.5q0 46 -35.5 75.5t-98.5 53.5q-36 13 -57 22t-52 27.5t-48.5 38t-30.5 50t-13 67.5q0 87 59.5 140t156.5 57q121 0 221 -60z" />
<glyph unicode="&#x15b;" horiz-adv-x="414" d="M372 621l-130 -134h-63l81 134h112zM200 -9q-101 0 -159 64l43 58q52 -51 108 -51q73 0 73 50q0 26 -22 40t-64 26q-4 1 -6.5 1.5t-5.5 1.5q-107 35 -107 123q0 53 39.5 91t111.5 38q88 0 144 -46l-39 -61q-36 36 -87 38q-28 0 -47.5 -13t-19.5 -33q0 -9 2.5 -16.5 t8.5 -13.5t11.5 -10t16.5 -8.5t17.5 -7t20 -7l19.5 -6.5q51 -17 79 -44t28 -73q0 -61 -43 -101t-122 -40z" />
<glyph unicode="&#x15c;" horiz-adv-x="582" d="M362 779l-80 83l-75 -83h-92l168 174h1l171 -174h-93zM480 588q-91 48 -167 48q-57 0 -90 -25.5t-33 -70.5q0 -30 24 -55t53 -39.5t76 -31.5q41 -16 67.5 -30t56 -38.5t44.5 -61.5t15 -86q0 -89 -65 -147.5t-175 -58.5q-131 0 -240 76l47 83q37 -28 88 -47.5t95 -19.5 q57 0 99 28.5t42 85.5q0 46 -35.5 75.5t-98.5 53.5q-36 13 -57 22t-52 27.5t-48.5 38t-30.5 50t-13 67.5q0 87 59.5 140t156.5 57q121 0 221 -60z" />
<glyph unicode="&#x15d;" horiz-adv-x="414" d="M285 493l-80 83l-75 -83h-92l168 174h1l171 -174h-93zM200 -9q-101 0 -159 64l43 58q52 -51 108 -51q73 0 73 50q0 26 -22 40t-64 26q-4 1 -6.5 1.5t-5.5 1.5q-107 35 -107 123q0 53 39.5 91t111.5 38q88 0 144 -46l-39 -61q-36 36 -87 38q-28 0 -47.5 -13t-19.5 -33 q0 -9 2.5 -16.5t8.5 -13.5t11.5 -10t16.5 -8.5t17.5 -7t20 -7l19.5 -6.5q51 -17 79 -44t28 -73q0 -61 -43 -101t-122 -40z" />
<glyph unicode="&#x15e;" horiz-adv-x="582" d="M209 -158q24 -26 65 -26q27 0 46.5 11.5t19.5 32.5q0 18 -15 30.5t-47 12.5q-24 0 -65 -12l-17 48l59 54q-116 10 -209 75l47 83q37 -28 88 -47.5t95 -19.5q57 0 99 28.5t42 85.5q0 46 -35.5 75.5t-98.5 53.5q-36 13 -57 22t-52 27.5t-48.5 38t-30.5 50t-13 67.5 q0 87 59.5 140t156.5 57q121 0 221 -60l-39 -81q-91 48 -167 48q-57 0 -90 -25.5t-33 -70.5q0 -30 24 -55t53 -39.5t76 -31.5q41 -16 67.5 -30t56 -38.5t44.5 -61.5t15 -86q0 -76 -49.5 -131.5t-135.5 -70.5l-41 -47h2q55 2 89 -21.5t34 -66.5q0 -48 -40.5 -74t-99.5 -26 q-67 0 -108 39z" />
<glyph unicode="&#x15f;" horiz-adv-x="414" d="M124 -156q24 -26 65 -26q27 0 46.5 11.5t19.5 32.5q0 18 -15 30.5t-47 12.5q-24 0 -65 -12l-17 48l57 52q-81 10 -127 62l43 58q52 -51 108 -51q73 0 73 50q0 26 -22 40t-64 26q-4 1 -6.5 1.5t-5.5 1.5q-107 35 -107 123q0 53 39.5 91t111.5 38q88 0 144 -46l-39 -61 q-36 36 -87 38q-28 0 -47.5 -13t-19.5 -33q0 -9 2.5 -16.5t8.5 -13.5t11.5 -10t16.5 -8.5t17.5 -7t20 -7l19.5 -6.5q51 -17 79 -44t28 -73q0 -49 -28 -85.5t-82 -49.5l-40 -46h2q55 2 89 -21.5t34 -66.5q0 -48 -40.5 -74t-99.5 -26q-67 0 -108 39z" />
<glyph unicode="&#x160;" horiz-adv-x="582" d="M211 929l79 -83l75 83h93l-168 -174h-1l-171 174h93zM480 588q-91 48 -167 48q-57 0 -90 -25.5t-33 -70.5q0 -30 24 -55t53 -39.5t76 -31.5q41 -16 67.5 -30t56 -38.5t44.5 -61.5t15 -86q0 -89 -65 -147.5t-175 -58.5q-131 0 -240 76l47 83q37 -28 88 -47.5t95 -19.5 q57 0 99 28.5t42 85.5q0 46 -35.5 75.5t-98.5 53.5q-36 13 -57 22t-52 27.5t-48.5 38t-30.5 50t-13 67.5q0 87 59.5 140t156.5 57q121 0 221 -60z" />
<glyph unicode="&#x161;" horiz-adv-x="414" d="M138 650l79 -83l75 83h93l-168 -174h-1l-171 174h93zM200 -9q-101 0 -159 64l43 58q52 -51 108 -51q73 0 73 50q0 26 -22 40t-64 26q-4 1 -6.5 1.5t-5.5 1.5q-107 35 -107 123q0 53 39.5 91t111.5 38q88 0 144 -46l-39 -61q-36 36 -87 38q-28 0 -47.5 -13t-19.5 -33 q0 -9 2.5 -16.5t8.5 -13.5t11.5 -10t16.5 -8.5t17.5 -7t20 -7l19.5 -6.5q51 -17 79 -44t28 -73q0 -61 -43 -101t-122 -40z" />
<glyph unicode="&#x162;" horiz-adv-x="582" d="M210 -151q24 -26 65 -26q27 0 46.5 11.5t19.5 32.5q0 18 -15 30.5t-47 12.5q-24 0 -65 -12l-17 48l59 54h-20v624h-186v101h483v-101h-192v-618h3l-3 -3v-3h-2l-38 -44h2q55 2 89 -21.5t34 -66.5q0 -48 -40.5 -74t-99.5 -26q-67 0 -108 39z" />
<glyph unicode="&#x163;" horiz-adv-x="365" d="M85 -149q24 -26 65 -26q27 0 46.5 11.5t19.5 32.5q0 18 -15 30.5t-47 12.5q-24 0 -65 -12l-17 48l57 52h-10v338h-74v79h74v184h102v-184h112v-79h-112v-338h-9l-36 -42h2q55 2 89 -21.5t34 -66.5q0 -48 -40.5 -74t-99.5 -26q-67 0 -108 39z" />
<glyph unicode="&#x164;" horiz-adv-x="582" d="M212 923l79 -83l75 83h93l-168 -174h-1l-171 174h93zM50 725h483v-101h-192v-624h-105v624h-186v101z" />
<glyph unicode="&#x165;" horiz-adv-x="365" d="M308 490l-51 35q23 21 33 59t4 76l90 -1q7 -44 -13.5 -93.5t-62.5 -75.5zM119 601h102v-184h112v-79h-112v-338h-102v338h-74v79h74v184z" />
<glyph unicode="&#x166;" horiz-adv-x="582" d="M146 407h90v217h-186v101h483v-101h-192v-217h89v-94h-89v-313h-105v313h-90v94z" />
<glyph unicode="&#x167;" horiz-adv-x="365" d="M31 239h88v99h-74v79h74v184h102v-184h112v-79h-112v-99h94v-94h-94v-145h-102v145h-88v94z" />
<glyph unicode="&#x168;" horiz-adv-x="735" d="M446 805q-8 0 -16 1.5t-13.5 2.5t-13 5t-11.5 6t-11 7.5t-9.5 7t-10 8t-8.5 7.5q-30 28 -49 28q-20 0 -30.5 -20.5t-8.5 -52.5h-55q-5 60 22.5 100.5t76.5 40.5q36 0 81 -43q35 -33 53 -33q37 0 35 76h55q7 -62 -18.5 -101.5t-68.5 -39.5zM197 259q0 -70 49.5 -117.5 t120.5 -47.5q74 0 123.5 47.5t49.5 117.5v466h103v-469q0 -118 -79 -191t-197 -73t-196.5 73t-78.5 191v469h105v-466z" />
<glyph unicode="&#x169;" horiz-adv-x="552" d="M356 474q-8 0 -16 1.5t-13.5 2.5t-13 5t-11.5 6t-11 7.5t-9.5 7t-10 8t-8.5 7.5q-30 28 -49 28q-20 0 -30.5 -20.5t-8.5 -52.5h-55q-5 60 22.5 100.5t76.5 40.5q36 0 81 -43q35 -33 53 -33q37 0 35 76h55q7 -62 -18.5 -101.5t-68.5 -39.5zM213 -17q-58 0 -95 35t-39 90 v310h101v-274q3 -72 73 -75q51 0 85 45t34 113v191h101v-418h-91l-6 77q-22 -42 -65.5 -68t-97.5 -26z" />
<glyph unicode="&#x16a;" horiz-adv-x="735" d="M241 850h247v-71h-247v71zM197 259q0 -70 49.5 -117.5t120.5 -47.5q74 0 123.5 47.5t49.5 117.5v466h103v-469q0 -118 -79 -191t-197 -73t-196.5 73t-78.5 191v469h105v-466z" />
<glyph unicode="&#x16b;" horiz-adv-x="552" d="M154 561h247v-71h-247v71zM213 -17q-58 0 -95 35t-39 90v310h101v-274q3 -72 73 -75q51 0 85 45t34 113v191h101v-418h-91l-6 77q-22 -42 -65.5 -68t-97.5 -26z" />
<glyph unicode="&#x16c;" horiz-adv-x="735" d="M369 775q-129 0 -154 178h68q16 -109 86 -109t84 109h69q-23 -178 -153 -178zM197 259q0 -70 49.5 -117.5t120.5 -47.5q74 0 123.5 47.5t49.5 117.5v466h103v-469q0 -118 -79 -191t-197 -73t-196.5 73t-78.5 191v469h105v-466z" />
<glyph unicode="&#x16d;" horiz-adv-x="552" d="M279 481q-129 0 -154 178h68q16 -109 86 -109t84 109h69q-23 -178 -153 -178zM213 -17q-58 0 -95 35t-39 90v310h101v-274q3 -72 73 -75q51 0 85 45t34 113v191h101v-418h-91l-6 77q-22 -42 -65.5 -68t-97.5 -26z" />
<glyph unicode="&#x16e;" horiz-adv-x="735" d="M274 866q0 41 27.5 66.5t69.5 25.5q41 0 68.5 -25.5t27.5 -66.5q0 -40 -27.5 -66t-68.5 -26q-42 0 -69.5 25.5t-27.5 66.5zM328 865q0 -19 12 -31.5t31 -12.5q18 0 30 12.5t12 31.5q0 20 -12 32t-30 12q-19 0 -31 -12t-12 -32zM197 259q0 -70 49.5 -117.5t120.5 -47.5 q74 0 123.5 47.5t49.5 117.5v466h103v-469q0 -118 -79 -191t-197 -73t-196.5 73t-78.5 191v469h105v-466z" />
<glyph unicode="&#x16f;" horiz-adv-x="552" d="M172 559q0 41 27.5 66.5t69.5 25.5q41 0 68.5 -25.5t27.5 -66.5q0 -40 -27.5 -66t-68.5 -26q-42 0 -69.5 25.5t-27.5 66.5zM226 558q0 -19 12 -31.5t31 -12.5q18 0 30 12.5t12 31.5q0 20 -12 32t-30 12q-19 0 -31 -12t-12 -32zM213 -17q-58 0 -95 35t-39 90v310h101v-274 q3 -72 73 -75q51 0 85 45t34 113v191h101v-418h-91l-6 77q-22 -42 -65.5 -68t-97.5 -26z" />
<glyph unicode="&#x170;" horiz-adv-x="735" d="M424 916l-130 -134h-63l81 134h112zM579 914l-130 -134h-63l81 134h112zM197 259q0 -70 49.5 -117.5t120.5 -47.5q74 0 123.5 47.5t49.5 117.5v466h103v-469q0 -118 -79 -191t-197 -73t-196.5 73t-78.5 191v469h105v-466z" />
<glyph unicode="&#x171;" horiz-adv-x="552" d="M345 634l-130 -134h-63l81 134h112zM500 632l-130 -134h-63l81 134h112zM213 -17q-58 0 -95 35t-39 90v310h101v-274q3 -72 73 -75q51 0 85 45t34 113v191h101v-418h-91l-6 77q-22 -42 -65.5 -68t-97.5 -26z" />
<glyph unicode="&#x172;" horiz-adv-x="735" d="M471 -218q-51 0 -86.5 31.5t-35.5 80.5q0 58 53 100q-22 -2 -35 -2q-124 0 -199.5 72.5t-75.5 191.5v469h105v-466q0 -70 49.5 -117.5t120.5 -47.5q74 0 123.5 47.5t49.5 117.5v466h103v-475q0 -77 -33.5 -128.5t-90.5 -94.5q-42 -34 -64 -62.5t-22 -62.5 q0 -25 13.5 -36.5t34.5 -11.5q38 0 68 48l39 -51q-19 -30 -52 -49.5t-65 -19.5z" />
<glyph unicode="&#x173;" horiz-adv-x="557" d="M213 -17q-58 0 -95 35t-39 90v310h101v-274q3 -72 73 -75q51 0 85 45t34 113v191h101v-417l3 -1q-47 -23 -70.5 -45.5t-23.5 -52.5q0 -25 13.5 -36.5t34.5 -11.5q38 0 68 48l39 -51q-19 -30 -52 -49.5t-65 -19.5q-51 0 -86.5 31.5t-35.5 80.5q0 34 23 65.5t60 48.5l-5 69 q-22 -42 -65.5 -68t-97.5 -26z" />
<glyph unicode="&#x174;" horiz-adv-x="1010" d="M578 779l-80 83l-75 -83h-92l168 174h1l171 -174h-93zM39 721h122l180 -509l124 319l-75 190h105l195 -498l169 498h112l-284 -753l-170 432l-189 -434z" />
<glyph unicode="&#x175;" horiz-adv-x="676" d="M415 486l-80 83l-75 -83h-92l168 174h1l171 -174h-93zM352 418l108 -249l99 249h99l-191 -443l-134 285l-123 -285l-192 443h98l106 -241l75 173l-32 68h87z" />
<glyph unicode="&#x176;" horiz-adv-x="696" d="M434 784l-80 83l-75 -83h-92l168 174h1l171 -174h-93zM294 239l-268 486h129l195 -366l192 366h128l-271 -486v-239h-105v239z" />
<glyph unicode="&#x177;" horiz-adv-x="500" d="M334 486l-80 83l-75 -83h-92l168 174h1l171 -174h-93zM115 -201l96 215l-193 404h113l131 -289l128 289h93l-270 -619h-98z" />
<glyph unicode="&#x178;" horiz-adv-x="696" d="M207 830q0 23 17 40t39 17q20 0 37.5 -17t17.5 -40q0 -24 -17 -40t-38 -16q-22 0 -39 16t-17 40zM396 830q0 23 17 40t39 17q20 0 37.5 -17t17.5 -40q0 -24 -17 -40t-38 -16q-22 0 -39 16t-17 40zM294 239l-268 486h129l195 -366l192 366h128l-271 -486v-239h-105v239z " />
<glyph unicode="&#x179;" horiz-adv-x="714" d="M516 891l-130 -134h-63l81 134h112zM50 0q20 29 193.5 292t221.5 332h-288q-33 0 -58.5 17.5t-25.5 45.5v74h97v-13q0 -17 5.5 -20t25.5 -3h430l-421 -624h430v-101h-610z" />
<glyph unicode="&#x17a;" horiz-adv-x="472" d="M403 614l-130 -134h-63l81 134h112zM123 335q-34 0 -56 21t-22 59v43h77v-14q0 -16 7.5 -21t26.5 -5h267l-232 -335h228v-83h-392l232 335h-136z" />
<glyph unicode="&#x17b;" horiz-adv-x="714" d="M299 816q0 23 18 39t41 16q22 0 40 -16t18 -39q0 -24 -17.5 -39.5t-40.5 -15.5t-41 15.5t-18 39.5zM50 0q20 29 193.5 292t221.5 332h-288q-33 0 -58.5 17.5t-25.5 45.5v74h97v-13q0 -17 5.5 -20t25.5 -3h430l-421 -624h430v-101h-610z" />
<glyph unicode="&#x17c;" horiz-adv-x="472" d="M181 568q0 23 18 39t41 16q22 0 40 -16t18 -39q0 -24 -17.5 -39.5t-40.5 -15.5t-41 15.5t-18 39.5zM123 335q-34 0 -56 21t-22 59v43h77v-14q0 -16 7.5 -21t26.5 -5h267l-232 -335h228v-83h-392l232 335h-136z" />
<glyph unicode="&#x17d;" horiz-adv-x="714" d="M278 923l79 -83l75 83h93l-168 -174h-1l-171 174h93zM50 0q20 29 193.5 292t221.5 332h-288q-33 0 -58.5 17.5t-25.5 45.5v74h97v-13q0 -17 5.5 -20t25.5 -3h430l-421 -624h430v-101h-610z" />
<glyph unicode="&#x17e;" horiz-adv-x="472" d="M168 643l79 -83l75 83h93l-168 -174h-1l-171 174h93zM123 335q-34 0 -56 21t-22 59v43h77v-14q0 -16 7.5 -21t26.5 -5h267l-232 -335h228v-83h-392l232 335h-136z" />
<glyph unicode="&#x18f;" horiz-adv-x="793" d="M376 732q160 0 260 -102t100 -257q0 -159 -106.5 -267.5t-256.5 -108.5q-126 0 -211.5 79.5t-115.5 218.5l551 194q-32 65 -92.5 103t-131.5 38q-54 0 -111.5 -25t-91.5 -63l-52 85q44 44 119.5 74.5t138.5 30.5zM625 368q0 23 -3 44l-447 -162q28 -73 81 -116t125 -43 q100 0 172 80.5t72 196.5z" />
<glyph unicode="&#x192;" horiz-adv-x="340" d="M97 516q0 126 68.5 191.5t185.5 69.5v-101q-150 -7 -150 -162v-96h132v-97h-132v-227q0 -129 -63 -193t-191 -68v100q75 4 112.5 46t37.5 118v224h-72v97h72v98z" />
<glyph unicode="&#x19d;" horiz-adv-x="823" d="M191 40v-42q0 -137 -101 -199l-65 62q61 51 61 141v746h4l528 -534l-2 511h104v-726l-3 -24l-529 529z" />
<glyph unicode="&#x1a0;" horiz-adv-x="856" d="M58 362q0 151 108.5 261t260.5 110q31 0 73 -7q40 0 57 18.5t23 68.5h75q-11 -92 -54 -124q89 -49 143.5 -136.5t54.5 -190.5q0 -153 -109.5 -261.5t-262.5 -108.5q-154 0 -261.5 107.5t-107.5 262.5zM166 361q0 -111 76.5 -189.5t187.5 -78.5q109 0 185 78t76 191 q0 112 -76.5 191t-186.5 79q-111 0 -186.5 -79t-75.5 -192z" />
<glyph unicode="&#x1a1;" horiz-adv-x="549" d="M43 213q0 95 66 158.5t168 63.5q47 0 92 -16q66 6 76 91h76q-12 -105 -80 -137q65 -63 65 -160q0 -96 -64 -159.5t-167 -63.5q-101 0 -166.5 61t-65.5 162zM145 212q0 -59 37 -99t92 -40q57 0 93.5 39.5t36.5 99.5t-36.5 100t-93.5 40q-55 0 -92 -41t-37 -99z" />
<glyph unicode="&#x1af;" horiz-adv-x="756" d="M197 259q0 -70 49.5 -117.5t120.5 -47.5q74 0 123.5 47.5t49.5 117.5v466h103v-47q29 4 42.5 23t18.5 63h75q-10 -82 -42.5 -114t-93.5 -35v-359q0 -118 -79 -191t-197 -73t-196.5 73t-78.5 191v469h105v-466z" />
<glyph unicode="&#x1b0;" horiz-adv-x="563" d="M213 -17q-58 0 -95 35t-39 90v310h101v-274q3 -72 73 -75q51 0 85 45t34 113v191h44q41 0 62.5 22t27.5 70h76q-15 -124 -109 -147v-363h-91l-6 77q-22 -42 -65.5 -68t-97.5 -26z" />
<glyph unicode="&#x1c4;" horiz-adv-x="1415" d="M979 923l79 -83l75 83h93l-168 -174h-1l-171 174h93zM751 0q20 29 193.5 292t221.5 332h-288q-33 0 -58.5 17.5t-25.5 45.5v74h97v-13q0 -17 5.5 -20t25.5 -3h430l-421 -624h430v-101h-610zM103 0v725h201q83 0 151 -22t112.5 -58t75 -84.5t43.5 -100.5t13 -107 q0 -158 -105 -255.5t-255 -97.5h-236zM207 101h112q121 0 196.5 68.5t75.5 190.5q0 86 -39 147.5t-96.5 89t-123.5 27.5h-125v-523z" />
<glyph unicode="&#x1c5;" horiz-adv-x="1229" d="M103 0v725h201q83 0 151 -22t112.5 -58t75 -84.5t43.5 -100.5t13 -107q0 -158 -105 -255.5t-255 -97.5h-236zM924 643l79 -83l75 83h93l-168 -174h-1l-171 174h93zM207 101h112q121 0 196.5 68.5t75.5 190.5q0 86 -39 147.5t-96.5 89t-123.5 27.5h-125v-523zM879 335 q-34 0 -56 21t-22 59v43h77v-14q0 -16 7.5 -21t26.5 -5h267l-232 -335h228v-83h-392l232 335h-136z" />
<glyph unicode="&#x1c6;" horiz-adv-x="1070" d="M250 -10q-90 0 -148.5 62t-58.5 163q0 102 61.5 161t157.5 59q101 0 156 -69v411h101v-777h-102v61q-68 -71 -167 -71zM766 643l79 -83l75 83h93l-168 -174h-1l-171 174h93zM721 335q-34 0 -56 21t-22 59v43h77v-14q0 -16 7.5 -21t26.5 -5h267l-232 -335h228v-83h-392 l232 335h-136zM281 75q52 0 88 27.5t48 73.5v83q-11 42 -48.5 69t-87.5 27q-56 0 -95.5 -39.5t-39.5 -99.5q0 -59 40 -100t95 -41z" />
<glyph unicode="&#x1c7;" horiz-adv-x="996" d="M103 725h104v-624h364v-101h-468v725zM893 135q0 -130 -73 -205.5t-192 -79.5v102q74 4 117 50t43 136v587h105v-590z" />
<glyph unicode="&#x1c8;" horiz-adv-x="890" d="M103 725h104v-624h364v-101h-468v725zM708 568q0 23 18 39t41 16q22 0 40 -16t18 -39q0 -24 -17.5 -39.5t-40.5 -15.5t-41 15.5t-18 39.5zM714 -201l-60 62q61 51 61 141v416h101v-420q0 -144 -102 -199z" />
<glyph unicode="&#x1c9;" horiz-adv-x="524" d="M79 777h101v-777h-101v777zM342 568q0 23 18 39t41 16q22 0 40 -16t18 -39q0 -24 -17.5 -39.5t-40.5 -15.5t-41 15.5t-18 39.5zM348 -201l-60 62q61 51 61 141v416h101v-420q0 -144 -102 -199z" />
<glyph unicode="&#x1ca;" horiz-adv-x="1211" d="M734 -25l-528 527l2 -502h-105v748h4l528 -534l-2 511h104v-750h-3zM1108 135q0 -130 -73 -205.5t-192 -79.5v102q74 4 117 50t43 136v587h105v-590z" />
<glyph unicode="&#x1cb;" horiz-adv-x="1105" d="M734 -25l-528 527l2 -502h-105v748h4l528 -534l-2 511h104v-750h-3zM923 568q0 23 18 39t41 16q22 0 40 -16t18 -39q0 -24 -17.5 -39.5t-40.5 -15.5t-41 15.5t-18 39.5zM929 -201l-60 62q61 51 61 141v416h101v-420q0 -144 -102 -199z" />
<glyph unicode="&#x1cc;" horiz-adv-x="816" d="M627 568q0 23 18 39t41 16q22 0 40 -16t18 -39q0 -24 -17.5 -39.5t-40.5 -15.5t-41 15.5t-18 39.5zM170 418l7 -80q21 44 65 70t102 26q59 0 97 -35t39 -90v-309h-101v274q-3 73 -75 74q-54 0 -89 -44t-35 -113v-191h-101v418h91zM633 -201l-60 62q61 51 61 141v416h101 v-420q0 -144 -102 -199z" />
<glyph unicode="&#x1d3;" horiz-adv-x="735" d="M289 937l79 -83l75 83h93l-168 -174h-1l-171 174h93zM197 259q0 -70 49.5 -117.5t120.5 -47.5q74 0 123.5 47.5t49.5 117.5v466h103v-469q0 -118 -79 -191t-197 -73t-196.5 73t-78.5 191v469h105v-466z" />
<glyph unicode="&#x1e6;" horiz-adv-x="753" d="M329 923l79 -83l75 83h93l-168 -174h-1l-171 174h93zM674 64q-32 -27 -104 -49.5t-133 -22.5q-171 0 -275 100t-104 255q0 179 107.5 282.5t263.5 103.5q122 0 216 -53l-35 -97q-32 18 -81 31.5t-87 13.5q-126 0 -201 -73t-75 -199q0 -116 76 -188t197 -72q82 0 129 28 v134h-141v101h247v-295z" />
<glyph unicode="&#x1e7;" horiz-adv-x="604" d="M231 657l79 -83l75 83h93l-168 -174h-1l-171 174h93zM283 -208q-66 0 -111.5 21.5t-91.5 62.5l60 69q66 -64 141 -64q67 0 104.5 31.5t38.5 86.5v76q-22 -38 -66 -61.5t-103 -23.5q-88 0 -150 63.5t-62 157.5q0 95 65 159.5t153 64.5q54 0 99 -20.5t65 -51.5l7 55h93 v-421q0 -88 -67 -146.5t-175 -58.5zM145 214q0 -60 40 -100.5t99 -40.5q52 0 89 27t51 71v86q-14 43 -52 69.5t-88 26.5q-59 0 -99 -39.5t-40 -99.5z" />
<glyph unicode="&#x1ea;" horiz-adv-x="856" d="M427 -8q-154 0 -261.5 107.5t-107.5 262.5q0 151 108.5 261t260.5 110t262 -110t110 -261q0 -180 -141 -298q-24 -20 -74.5 -53.5t-71 -56t-20.5 -50.5q0 -26 13.5 -38t33.5 -12q39 0 69 48l38 -51q-19 -30 -51.5 -49.5t-64.5 -19.5q-52 0 -87 28t-35 77q0 69 76 110 q-32 -5 -57 -5zM430 94q109 0 185 78t76 190q0 110 -77 188.5t-186 78.5q-111 0 -186.5 -78.5t-75.5 -189.5t76.5 -189t187.5 -78z" />
<glyph unicode="&#x1eb;" horiz-adv-x="554" d="M349 -218q-49 0 -82.5 31t-33.5 86q0 51 43 91q-101 1 -165.5 61.5t-64.5 161.5q0 95 66 158.5t167 63.5q102 0 165.5 -63t63.5 -159q0 -119 -107 -196q-44 -32 -64 -55t-20 -56q0 -24 14 -38t33 -14q39 0 69 48l38 -51q-19 -30 -52.5 -49.5t-69.5 -19.5zM276 73 q57 0 93.5 39.5t36.5 99.5t-36.5 100t-93.5 40q-55 0 -92 -41t-37 -99q0 -59 37 -99t92 -40z" />
<glyph unicode="&#x1f3;" horiz-adv-x="1070" d="M250 -10q-90 0 -148.5 62t-58.5 163q0 102 61.5 161t157.5 59q101 0 156 -69v411h101v-777h-102v61q-68 -71 -167 -71zM721 335q-34 0 -56 21t-22 59v43h77v-14q0 -16 7.5 -21t26.5 -5h267l-232 -335h228v-83h-392l232 335h-136zM281 75q52 0 88 27.5t48 73.5v83 q-11 42 -48.5 69t-87.5 27q-56 0 -95.5 -39.5t-39.5 -99.5q0 -59 40 -100t95 -41z" />
<glyph unicode="&#x1fa;" horiz-adv-x="700" d="M509 1143l-130 -134h-63l81 134h112zM256 879q0 41 27.5 66.5t69.5 25.5q41 0 68.5 -25.5t27.5 -66.5q0 -40 -27.5 -66t-68.5 -26q-42 0 -69.5 25.5t-27.5 66.5zM310 878q0 -19 12 -31.5t31 -12.5q18 0 30 12.5t12 31.5q0 20 -12 32t-30 12q-19 0 -31 -12t-12 -32zM28 0 l319 755h6l319 -755h-121l-72 182h-272l-75 -182h-104zM243 272h201l-98 250z" />
<glyph unicode="&#x1fb;" horiz-adv-x="591" d="M473 847l-130 -134h-63l81 134h112zM204 559q0 41 27.5 66.5t69.5 25.5q41 0 68.5 -25.5t27.5 -66.5q0 -40 -27.5 -66t-68.5 -26q-42 0 -69.5 25.5t-27.5 66.5zM258 558q0 -19 12 -31.5t31 -12.5q18 0 30 12.5t12 31.5q0 20 -12 32t-30 12q-19 0 -31 -12t-12 -32z M254 -10q-92 0 -151.5 57.5t-59.5 161.5q0 102 62 164t151 62q103 0 156 -80l7 63h93v-418h-101v66q-23 -29 -63.5 -52.5t-93.5 -23.5zM281 73q49 0 84 26.5t46 72.5v86q-12 42 -49 68.5t-84 26.5q-55 0 -93.5 -39.5t-38.5 -99.5q0 -59 40 -100t95 -41z" />
<glyph unicode="&#x1fc;" horiz-adv-x="953" d="M816 904l-130 -134h-63l81 134h112zM132 0h-121l467 725h398v-101h-293v-211h253v-101h-253v-211h307v-101h-412v176h-238zM291 259h187v305z" />
<glyph unicode="&#x1fd;" horiz-adv-x="820" d="M573 614l-130 -134h-63l81 134h112zM207 -11q-81 0 -122.5 36t-41.5 94q0 59 51 94t122 35q66 0 122 -28v43q0 48 -29 68t-63 20q-71 0 -125 -65l-51 65q79 83 190 83q105 0 150 -60q67 61 162 61q84 0 139 -48.5t75 -136.5l-327 -113q39 -61 113 -61q51 0 99 35l46 -75 q-71 -46 -147 -46q-119 0 -182 76v-1q-29 -38 -78 -57t-103 -19zM438 218q0 -15 1 -21l233 85q-32 73 -107 73q-56 0 -91.5 -38.5t-35.5 -98.5zM155 122q0 -29 20.5 -45.5t59.5 -16.5q28 0 60.5 14t49.5 35v38q-50 35 -106 35q-37 0 -60.5 -15t-23.5 -45z" />
<glyph unicode="&#x1fe;" horiz-adv-x="858" d="M588 891l-130 -134h-63l81 134h112zM58 362q0 151 108.5 261t260.5 110q109 0 201 -60l63 73l65 -61l-60 -70q103 -108 103 -253q0 -153 -109.5 -261.5t-262.5 -108.5q-115 0 -209 64l-62 -72l-66 60l61 71q-93 104 -93 247zM166 361q0 -93 55 -164l341 398 q-60 37 -134 37q-111 0 -186.5 -79t-75.5 -192zM691 362q0 100 -62 175l-343 -401q65 -43 144 -43q109 0 185 78t76 191z" />
<glyph unicode="&#x1ff;" horiz-adv-x="525" d="M427 614l-130 -134h-63l81 134h112zM43 213q0 95 66 158.5t168 63.5q64 0 116 -27l37 42l51 -42l-35 -40q60 -63 60 -155q0 -96 -64 -159.5t-167 -63.5q-73 0 -129 33l-42 -49l-49 46l40 45q-52 60 -52 148zM145 212q0 -39 17 -70l171 196q-28 14 -59 14q-55 0 -92 -41 t-37 -99zM404 212q0 47 -23 81l-174 -201q30 -19 67 -19q57 0 93.5 39.5t36.5 99.5z" />
<glyph unicode="&#x200;" horiz-adv-x="700" d="M144 932h111l71 -134h-63zM291 932h111l71 -134h-63zM28 0l319 755h6l319 -755h-121l-72 182h-272l-75 -182h-104zM243 272h201l-98 250z" />
<glyph unicode="&#x201;" horiz-adv-x="591" d="M94 634h111l71 -134h-63zM241 634h111l71 -134h-63zM254 -10q-92 0 -151.5 57.5t-59.5 161.5q0 102 62 164t151 62q103 0 156 -80l7 63h93v-418h-101v66q-23 -29 -63.5 -52.5t-93.5 -23.5zM281 73q49 0 84 26.5t46 72.5v86q-12 42 -49 68.5t-84 26.5q-55 0 -93.5 -39.5 t-38.5 -99.5q0 -59 40 -100t95 -41z" />
<glyph unicode="&#x202;" horiz-adv-x="700" d="M346 943q129 0 154 -178h-68q-16 109 -86 109t-84 -109h-69q23 178 153 178zM28 0l319 755h6l319 -755h-121l-72 182h-272l-75 -182h-104zM243 272h201l-98 250z" />
<glyph unicode="&#x203;" horiz-adv-x="591" d="M313 653q129 0 154 -178h-68q-16 109 -86 109t-84 -109h-69q23 178 153 178zM254 -10q-92 0 -151.5 57.5t-59.5 161.5q0 102 62 164t151 62q103 0 156 -80l7 63h93v-418h-101v66q-23 -29 -63.5 -52.5t-93.5 -23.5zM281 73q49 0 84 26.5t46 72.5v86q-12 42 -49 68.5 t-84 26.5q-55 0 -93.5 -39.5t-38.5 -99.5q0 -59 40 -100t95 -41z" />
<glyph unicode="&#x204;" horiz-adv-x="655" d="M130 919h111l71 -134h-63zM277 919h111l71 -134h-63zM103 725h475v-101h-371v-209h331v-101h-331v-213h385v-101h-489v725z" />
<glyph unicode="&#x205;" horiz-adv-x="525" d="M57 635h111l71 -134h-63zM204 635h111l71 -134h-63zM275 -10q-106 0 -169 62t-63 160q0 93 68 158t166 65q84 0 139 -48.5t75 -136.5l-327 -113q39 -61 113 -61q51 0 99 35l46 -75q-71 -46 -147 -46zM143 218q0 -15 1 -21l233 85q-32 73 -107 73q-56 0 -91.5 -38.5 t-35.5 -98.5z" />
<glyph unicode="&#x206;" horiz-adv-x="655" d="M332 929q129 0 154 -178h-68q-16 109 -86 109t-84 -109h-69q23 178 153 178zM103 725h475v-101h-371v-209h331v-101h-331v-213h385v-101h-489v725z" />
<glyph unicode="&#x207;" horiz-adv-x="525" d="M276 653q129 0 154 -178h-68q-16 109 -86 109t-84 -109h-69q23 178 153 178zM275 -10q-106 0 -169 62t-63 160q0 93 68 158t166 65q84 0 139 -48.5t75 -136.5l-327 -113q39 -61 113 -61q51 0 99 35l46 -75q-71 -46 -147 -46zM143 218q0 -15 1 -21l233 85q-32 73 -107 73 q-56 0 -91.5 -38.5t-35.5 -98.5z" />
<glyph unicode="&#x208;" horiz-adv-x="310" d="M-51 919h111l71 -134h-63zM96 919h111l71 -134h-63zM103 725h104v-725h-104v725z" />
<glyph unicode="&#x209;" horiz-adv-x="259" d="M-84 620h111l71 -134h-63zM63 620h111l71 -134h-63zM79 418h101v-418h-101v418z" />
<glyph unicode="&#x20a;" horiz-adv-x="310" d="M151 929q129 0 154 -178h-68q-16 109 -86 109t-84 -109h-69q23 178 153 178zM103 725h104v-725h-104v725z" />
<glyph unicode="&#x20b;" horiz-adv-x="259" d="M135 639q129 0 154 -178h-68q-16 109 -86 109t-84 -109h-69q23 178 153 178zM79 418h101v-418h-101v418z" />
<glyph unicode="&#x20c;" horiz-adv-x="856" d="M222 912h111l71 -134h-63zM369 912h111l71 -134h-63zM58 362q0 151 108.5 261t260.5 110t262 -110t110 -261q0 -153 -109.5 -261.5t-262.5 -108.5q-154 0 -261.5 107.5t-107.5 262.5zM166 361q0 -111 76.5 -189.5t187.5 -78.5q109 0 185 78t76 191q0 112 -76.5 191 t-186.5 79q-111 0 -186.5 -79t-75.5 -192z" />
<glyph unicode="&#x20d;" horiz-adv-x="549" d="M60 634h111l71 -134h-63zM207 634h111l71 -134h-63zM43 213q0 95 66 158.5t168 63.5t165.5 -63t63.5 -159t-64 -159.5t-167 -63.5q-101 0 -166.5 61t-65.5 162zM145 212q0 -59 37 -99t92 -40q57 0 93.5 39.5t36.5 99.5t-36.5 100t-93.5 40q-55 0 -92 -41t-37 -99z" />
<glyph unicode="&#x20e;" horiz-adv-x="856" d="M424 922q129 0 154 -178h-68q-16 109 -86 109t-84 -109h-69q23 178 153 178zM58 362q0 151 108.5 261t260.5 110t262 -110t110 -261q0 -153 -109.5 -261.5t-262.5 -108.5q-154 0 -261.5 107.5t-107.5 262.5zM166 361q0 -111 76.5 -189.5t187.5 -78.5q109 0 185 78t76 191 q0 112 -76.5 191t-186.5 79q-111 0 -186.5 -79t-75.5 -192z" />
<glyph unicode="&#x20f;" horiz-adv-x="549" d="M279 653q129 0 154 -178h-68q-16 109 -86 109t-84 -109h-69q23 178 153 178zM43 213q0 95 66 158.5t168 63.5t165.5 -63t63.5 -159t-64 -159.5t-167 -63.5q-101 0 -166.5 61t-65.5 162zM145 212q0 -59 37 -99t92 -40q57 0 93.5 39.5t36.5 99.5t-36.5 100t-93.5 40 q-55 0 -92 -41t-37 -99z" />
<glyph unicode="&#x210;" horiz-adv-x="664" d="M97 919h111l71 -134h-63zM244 919h111l71 -134h-63zM300 725q117 0 189 -60t72 -168q0 -68 -29 -124t-90 -86l180 -287h-122l-168 261h-18h-107v-261h-104v725h197zM312 362q75 0 108 40t33 91q0 49 -33 90t-102 41h-111v-262h105z" />
<glyph unicode="&#x211;" horiz-adv-x="381" d="M-32 620h111l71 -134h-63zM115 620h111l71 -134h-63zM169 418l8 -99q24 50 76 83t90 33l-5 -100q-68 4 -113 -41.5t-45 -107.5v-186h-101v418h90z" />
<glyph unicode="&#x212;" horiz-adv-x="664" d="M298 929q129 0 154 -178h-68q-16 109 -86 109t-84 -109h-69q23 178 153 178zM300 725q117 0 189 -60t72 -168q0 -68 -29 -124t-90 -86l180 -287h-122l-168 261h-18h-107v-261h-104v725h197zM312 362q75 0 108 40t33 91q0 49 -33 90t-102 41h-111v-262h105z" />
<glyph unicode="&#x213;" horiz-adv-x="381" d="M187 639q129 0 154 -178h-68q-16 109 -86 109t-84 -109h-69q23 178 153 178zM169 418l8 -99q24 50 76 83t90 33l-5 -100q-68 4 -113 -41.5t-45 -107.5v-186h-101v418h90z" />
<glyph unicode="&#x214;" horiz-adv-x="735" d="M162 919h111l71 -134h-63zM309 919h111l71 -134h-63zM197 259q0 -70 49.5 -117.5t120.5 -47.5q74 0 123.5 47.5t49.5 117.5v466h103v-469q0 -118 -79 -191t-197 -73t-196.5 73t-78.5 191v469h105v-466z" />
<glyph unicode="&#x215;" horiz-adv-x="552" d="M62 634h111l71 -134h-63zM209 634h111l71 -134h-63zM213 -17q-58 0 -95 35t-39 90v310h101v-274q3 -72 73 -75q51 0 85 45t34 113v191h101v-418h-91l-6 77q-22 -42 -65.5 -68t-97.5 -26z" />
<glyph unicode="&#x216;" horiz-adv-x="735" d="M364 929q129 0 154 -178h-68q-16 109 -86 109t-84 -109h-69q23 178 153 178zM197 259q0 -70 49.5 -117.5t120.5 -47.5q74 0 123.5 47.5t49.5 117.5v466h103v-469q0 -118 -79 -191t-197 -73t-196.5 73t-78.5 191v469h105v-466z" />
<glyph unicode="&#x217;" horiz-adv-x="552" d="M281 653q129 0 154 -178h-68q-16 109 -86 109t-84 -109h-69q23 178 153 178zM213 -17q-58 0 -95 35t-39 90v310h101v-274q3 -72 73 -75q51 0 85 45t34 113v191h101v-418h-91l-6 77q-22 -42 -65.5 -68t-97.5 -26z" />
<glyph unicode="&#x218;" horiz-adv-x="582" d="M480 588q-91 48 -167 48q-57 0 -90 -25.5t-33 -70.5q0 -30 24 -55t53 -39.5t76 -31.5q41 -16 67.5 -30t56 -38.5t44.5 -61.5t15 -86q0 -89 -65 -147.5t-175 -58.5q-131 0 -240 76l47 83q37 -28 88 -47.5t95 -19.5q57 0 99 28.5t42 85.5q0 46 -35.5 75.5t-98.5 53.5 q-36 13 -57 22t-52 27.5t-48.5 38t-30.5 50t-13 67.5q0 87 59.5 140t156.5 57q121 0 221 -60zM258 -225l-51 35q23 21 33 59t4 76l90 -1q7 -44 -13.5 -93.5t-62.5 -75.5z" />
<glyph unicode="&#x219;" horiz-adv-x="414" d="M200 -9q-101 0 -159 64l43 58q52 -51 108 -51q73 0 73 50q0 26 -22 40t-64 26q-4 1 -6.5 1.5t-5.5 1.5q-107 35 -107 123q0 53 39.5 91t111.5 38q88 0 144 -46l-39 -61q-36 36 -87 38q-28 0 -47.5 -13t-19.5 -33q0 -9 2.5 -16.5t8.5 -13.5t11.5 -10t16.5 -8.5t17.5 -7 t20 -7l19.5 -6.5q51 -17 79 -44t28 -73q0 -61 -43 -101t-122 -40zM172 -211l-51 35q23 21 33 59t4 76l90 -1q7 -44 -13.5 -93.5t-62.5 -75.5z" />
<glyph unicode="&#x21a;" horiz-adv-x="582" d="M50 725h483v-101h-192v-624h-105v624h-186v101zM259 -218l-51 35q23 21 33 59t4 76l90 -1q7 -44 -13.5 -93.5t-62.5 -75.5z" />
<glyph unicode="&#x21b;" horiz-adv-x="365" d="M119 601h102v-184h112v-79h-112v-338h-102v338h-74v79h74v184zM133 -204l-51 35q23 21 33 59t4 76l90 -1q7 -44 -13.5 -93.5t-62.5 -75.5z" />
<glyph unicode="&#x22a;" horiz-adv-x="856" d="M302 993h247v-71h-247v71zM273 825q0 23 17 40t39 17q20 0 37.5 -17t17.5 -40q0 -24 -17 -40t-38 -16q-22 0 -39 16t-17 40zM462 825q0 23 17 40t39 17q20 0 37.5 -17t17.5 -40q0 -24 -17 -40t-38 -16q-22 0 -39 16t-17 40zM58 362q0 151 108.5 261t260.5 110t262 -110 t110 -261q0 -153 -109.5 -261.5t-262.5 -108.5q-154 0 -261.5 107.5t-107.5 262.5zM166 361q0 -111 76.5 -189.5t187.5 -78.5q109 0 185 78t76 191q0 112 -76.5 191t-186.5 79q-111 0 -186.5 -79t-75.5 -192z" />
<glyph unicode="&#x22b;" horiz-adv-x="549" d="M152 729h247v-71h-247v71zM124 543q0 23 17 40t39 17q20 0 37.5 -17t17.5 -40q0 -24 -17 -40t-38 -16q-22 0 -39 16t-17 40zM313 543q0 23 17 40t39 17q20 0 37.5 -17t17.5 -40q0 -24 -17 -40t-38 -16q-22 0 -39 16t-17 40zM43 213q0 95 66 158.5t168 63.5t165.5 -63 t63.5 -159t-64 -159.5t-167 -63.5q-101 0 -166.5 61t-65.5 162zM145 212q0 -59 37 -99t92 -40q57 0 93.5 39.5t36.5 99.5t-36.5 100t-93.5 40q-55 0 -92 -41t-37 -99z" />
<glyph unicode="&#x22c;" horiz-adv-x="856" d="M302 1069h247v-71h-247v71zM506 798q-8 0 -16 1.5t-13.5 2.5t-13 5t-11.5 6t-11 7.5t-9.5 7t-10 8t-8.5 7.5q-30 28 -49 28q-20 0 -30.5 -20.5t-8.5 -52.5h-55q-5 60 22.5 100.5t76.5 40.5q36 0 81 -43q35 -33 53 -33q37 0 35 76h55q7 -62 -18.5 -101.5t-68.5 -39.5z M58 362q0 151 108.5 261t260.5 110t262 -110t110 -261q0 -153 -109.5 -261.5t-262.5 -108.5q-154 0 -261.5 107.5t-107.5 262.5zM166 361q0 -111 76.5 -189.5t187.5 -78.5q109 0 185 78t76 191q0 112 -76.5 191t-186.5 79q-111 0 -186.5 -79t-75.5 -192z" />
<glyph unicode="&#x22d;" horiz-adv-x="549" d="M161 750h247v-71h-247v71zM354 474q-8 0 -16 1.5t-13.5 2.5t-13 5t-11.5 6t-11 7.5t-9.5 7t-10 8t-8.5 7.5q-30 28 -49 28q-20 0 -30.5 -20.5t-8.5 -52.5h-55q-5 60 22.5 100.5t76.5 40.5q36 0 81 -43q35 -33 53 -33q37 0 35 76h55q7 -62 -18.5 -101.5t-68.5 -39.5z M43 213q0 95 66 158.5t168 63.5t165.5 -63t63.5 -159t-64 -159.5t-167 -63.5q-101 0 -166.5 61t-65.5 162zM145 212q0 -59 37 -99t92 -40q57 0 93.5 39.5t36.5 99.5t-36.5 100t-93.5 40q-55 0 -92 -41t-37 -99z" />
<glyph unicode="&#x230;" horiz-adv-x="856" d="M302 989h247v-71h-247v71zM370 823q0 23 18 39t41 16q22 0 40 -16t18 -39q0 -24 -17.5 -39.5t-40.5 -15.5t-41 15.5t-18 39.5zM58 362q0 151 108.5 261t260.5 110t262 -110t110 -261q0 -153 -109.5 -261.5t-262.5 -108.5q-154 0 -261.5 107.5t-107.5 262.5zM166 361 q0 -111 76.5 -189.5t187.5 -78.5q109 0 185 78t76 191q0 112 -76.5 191t-186.5 79q-111 0 -186.5 -79t-75.5 -192z" />
<glyph unicode="&#x231;" horiz-adv-x="549" d="M152 766h247v-71h-247v71zM218 583q0 23 18 39t41 16q22 0 40 -16t18 -39q0 -24 -17.5 -39.5t-40.5 -15.5t-41 15.5t-18 39.5zM43 213q0 95 66 158.5t168 63.5t165.5 -63t63.5 -159t-64 -159.5t-167 -63.5q-101 0 -166.5 61t-65.5 162zM145 212q0 -59 37 -99t92 -40 q57 0 93.5 39.5t36.5 99.5t-36.5 100t-93.5 40q-55 0 -92 -41t-37 -99z" />
<glyph unicode="&#x232;" horiz-adv-x="696" d="M236 848h247v-71h-247v71zM294 239l-268 486h129l195 -366l192 366h128l-271 -486v-239h-105v239z" />
<glyph unicode="&#x233;" horiz-adv-x="500" d="M134 547h247v-71h-247v71zM115 -201l96 215l-193 404h113l131 -289l128 289h93l-270 -619h-98z" />
<glyph unicode="&#x237;" horiz-adv-x="265" d="M89 -201l-60 62q61 51 61 141v416h101v-420q0 -144 -102 -199z" />
<glyph unicode="&#x259;" horiz-adv-x="525" d="M250 428q106 0 169 -62t63 -160q0 -93 -68 -158t-166 -65q-84 0 -139 48.5t-75 136.5l327 113q-39 61 -113 61q-51 0 -99 -35l-46 75q71 46 147 46zM382 200q0 15 -1 21l-233 -85q32 -73 107 -73q56 0 91.5 38.5t35.5 98.5z" />
<glyph unicode="&#x272;" horiz-adv-x="560" d="M80 -201l-59 62q60 51 60 139h-2v418h91l7 -80q21 44 65 70t102 26q59 0 97 -35t39 -90v-309h-101v274q-3 73 -75 74q-54 0 -89 -44t-35 -113v-147h2v-46q0 -130 -102 -199z" />
<glyph unicode="&#x2bc;" horiz-adv-x="203" d="M177 648l-87 -210h-82q22 56 78 210h91z" />
<glyph unicode="&#x2c6;" horiz-adv-x="419" d="M286 495l-80 83l-75 -83h-92l168 174h1l171 -174h-93z" />
<glyph unicode="&#x2c7;" horiz-adv-x="417" d="M131 660l79 -83l75 83h93l-168 -174h-1l-171 174h93z" />
<glyph unicode="&#x2c9;" horiz-adv-x="350" d="M42 616h247v-71h-247v71z" />
<glyph unicode="&#x2d8;" horiz-adv-x="407" d="M204 479q-129 0 -154 178h68q16 -109 86 -109t84 109h69q-23 -178 -153 -178z" />
<glyph unicode="&#x2d9;" horiz-adv-x="222" d="M51 578q0 23 18 39t41 16q22 0 40 -16t18 -39q0 -24 -17.5 -39.5t-40.5 -15.5t-41 15.5t-18 39.5z" />
<glyph unicode="&#x2da;" horiz-adv-x="331" d="M68 536q0 41 27.5 66.5t69.5 25.5q41 0 68.5 -25.5t27.5 -66.5q0 -40 -27.5 -66t-68.5 -26q-42 0 -69.5 25.5t-27.5 66.5zM122 535q0 -19 12 -31.5t31 -12.5q18 0 30 12.5t12 31.5q0 20 -12 32t-30 12q-19 0 -31 -12t-12 -32z" />
<glyph unicode="&#x2db;" horiz-adv-x="347" d="M179 -218q-52 0 -87 31.5t-35 80.5q0 35 24.5 67t64.5 49l112 -10q-59 -26 -88 -48.5t-29 -49.5q0 -24 13.5 -36t33.5 -12q39 0 69 48l38 -51q-19 -30 -51.5 -49.5t-64.5 -19.5z" />
<glyph unicode="&#x2dc;" horiz-adv-x="454" d="M313 455q-23 0 -45.5 9.5t-30.5 16.5t-30 25q-34 32 -56 32t-34 -23t-10 -60h-63q-5 68 26.5 114.5t86.5 46.5q39 0 92 -49q40 -38 61 -38q41 0 39 87h63q8 -71 -21.5 -116t-77.5 -45z" />
<glyph unicode="&#x2dd;" horiz-adv-x="438" d="M238 620l-130 -134h-63l81 134h112zM393 618l-130 -134h-63l81 134h112z" />
<glyph unicode="&#x300;" d="M17 620h111l71 -134h-63z" />
<glyph unicode="&#x301;" d="M202 620l-130 -134h-63l81 134h112z" />
<glyph unicode="&#x302;" d="M286 495l-80 83l-75 -83h-92l168 174h1l171 -174h-93z" />
<glyph unicode="&#x303;" d="M304 460q-8 0 -16 1.5t-13.5 2.5t-13 5t-11.5 6t-11 7.5t-9.5 7t-10 8t-8.5 7.5q-30 28 -49 28q-20 0 -30.5 -20.5t-8.5 -52.5h-55q-5 60 22.5 100.5t76.5 40.5q36 0 81 -43q35 -33 53 -33q37 0 35 76h55q7 -62 -18.5 -101.5t-68.5 -39.5z" />
<glyph unicode="&#x304;" d="M42 540h247v-71h-247v71z" />
<glyph unicode="&#x306;" d="M204 479q-129 0 -154 178h68q16 -109 86 -109t84 109h69q-23 -178 -153 -178z" />
<glyph unicode="&#x307;" d="M51 578q0 23 18 39t41 16q22 0 40 -16t18 -39q0 -24 -17.5 -39.5t-40.5 -15.5t-41 15.5t-18 39.5z" />
<glyph unicode="&#x308;" d="M73 529q0 23 17 40t39 17q20 0 37.5 -17t17.5 -40q0 -24 -17 -40t-38 -16q-22 0 -39 16t-17 40zM262 529q0 23 17 40t39 17q20 0 37.5 -17t17.5 -40q0 -24 -17 -40t-38 -16q-22 0 -39 16t-17 40z" />
<glyph unicode="&#x309;" d="M153 589q44 32 44 59q0 35 -32 35q-26 0 -46 -30l-37 24q32 63 96 63q37 0 57 -22.5t20 -56.5q0 -56 -78 -103z" />
<glyph unicode="&#x30a;" d="M87 536q0 41 27.5 66.5t69.5 25.5q41 0 68.5 -25.5t27.5 -66.5q0 -40 -27.5 -66t-68.5 -26q-42 0 -69.5 25.5t-27.5 66.5zM141 535q0 -19 12 -31.5t31 -12.5q18 0 30 12.5t12 31.5q0 20 -12 32t-30 12q-19 0 -31 -12t-12 -32z" />
<glyph unicode="&#x30b;" d="M236 620l-130 -134h-63l81 134h112zM391 618l-130 -134h-63l81 134h112z" />
<glyph unicode="&#x30c;" d="M107 660l79 -83l75 83h93l-168 -174h-1l-171 174h93z" />
<glyph unicode="&#x30f;" d="M102 620h111l71 -134h-63zM249 620h111l71 -134h-63z" />
<glyph unicode="&#x311;" d="M203 678q129 0 154 -178h-68q-16 109 -86 109t-84 -109h-69q23 178 153 178z" />
<glyph unicode="&#x312;" d="M130 664l51 -35q-23 -21 -33 -59t-4 -76l-90 1q-7 44 13.5 93.5t62.5 75.5z" />
<glyph unicode="&#x31b;" d="M67 725q41 0 62.5 22t27.5 70h76q-11 -86 -53 -119.5t-113 -33.5v61z" />
<glyph unicode="&#x323;" d="M60 -102q0 20 15.5 34t36.5 14q19 0 35 -14t16 -34q0 -21 -15.5 -34.5t-35.5 -13.5q-21 0 -36.5 13.5t-15.5 34.5z" />
<glyph unicode="&#x324;" d="M73 -103q0 23 17 40t39 17q20 0 37.5 -17t17.5 -40q0 -24 -17 -40t-38 -16q-22 0 -39 16t-17 40zM262 -103q0 23 17 40t39 17q20 0 37.5 -17t17.5 -40q0 -24 -17 -40t-38 -16q-22 0 -39 16t-17 40z" />
<glyph unicode="&#x326;" d="M104 -204l-51 35q23 21 33 59t4 76l90 -1q7 -44 -13.5 -93.5t-62.5 -75.5z" />
<glyph unicode="&#x327;" d="M72 -151q24 -26 65 -26q27 0 46.5 11.5t19.5 32.5q0 18 -15 30.5t-47 12.5q-24 0 -65 -12l-17 48l69 63l78 -3l-43 -50h2q55 2 89 -21.5t34 -66.5q0 -48 -40.5 -74t-99.5 -26q-67 0 -108 39z" />
<glyph unicode="&#x328;" d="M194 -218q-52 0 -87 31.5t-35 80.5q0 35 24.5 67t64.5 49l112 -10q-59 -26 -88 -48.5t-29 -49.5q0 -24 13.5 -36t33.5 -12q39 0 69 48l38 -51q-19 -30 -51.5 -49.5t-64.5 -19.5z" />
<glyph unicode="&#x32e;" d="M204 -222q-129 0 -154 178h68q16 -109 86 -109t84 109h69q-23 -178 -153 -178z" />
<glyph unicode="&#x331;" d="M42 -86h247v-71h-247v71z" />
<glyph unicode="&#x335;" d="M43 376h284v-94h-284v94z" />
<glyph unicode="&#x394;" horiz-adv-x="737" d="M28 0l339 755h5l337 -755h-681zM181 101h374l-185 424z" />
<glyph unicode="&#x3bc;" horiz-adv-x="552" d="M213 -17q-23 0 -42 6v-224h-92v653h101v-274q3 -72 73 -75q51 0 85 45t34 113v191h101v-418h-91l-6 77q-22 -42 -65.5 -68t-97.5 -26z" />
<glyph unicode="&#x3c0;" horiz-adv-x="392" d="M8 353h373v-88h-55v-265h-90v265h-82v-265h-90v265h-56v88z" />
<glyph unicode="&#x60c;" horiz-adv-x="241" d="M134 115q23 3 43.5 -13t20.5 -43q0 -26 -17 -42.5t-42 -16.5q-36 0 -51.5 27.5t-15.5 65.5q0 39 23 84.5t80 80.5l27 -36q-35 -20 -53 -51.5t-15 -55.5z" />
<glyph unicode="&#x61b;" horiz-adv-x="166" d="M81 246q23 3 43.5 -13t20.5 -43t-17 -43t-42 -16q-36 -1 -51.5 26.5t-15.5 65.5q0 39 23 85t80 81l27 -37q-35 -20 -53 -51t-15 -55zM25 0q0 24 17 41t41 17t41 -17t17 -41t-17 -41t-41 -17t-41 17t-17 41z" />
<glyph unicode="&#x61f;" horiz-adv-x="480" d="M291 187h-95v39q0 37 -11.5 65t-23.5 41t-39 37q-44 40 -69 82.5t-24 102.5q1 72 58.5 132t138.5 60q117 1 189 -102q19 -29 56 -42l-109 -72q-2 29 -23 60q-40 62 -103 62q-49 0 -82.5 -30.5t-33.5 -76.5q0 -11 2.5 -22t5 -18.5t10 -17.5t11 -15t14 -15t14 -13 t16.5 -13.5t15 -12.5q28 -25 42.5 -41.5t27.5 -50.5t13 -78v-61zM189 58q0 24 17 41t41 17t41 -17t17 -41t-17 -41t-41 -17t-41 17t-17 41z" />
<glyph unicode="&#x621;" d="M-1 -1v2h2v-2h-2z" />
<glyph unicode="&#x622;" d="M-1 -1v2h2v-2h-2z" />
<glyph unicode="&#x623;" d="M-1 -1v2h2v-2h-2z" />
<glyph unicode="&#x624;" d="M-1 -1v2h2v-2h-2z" />
<glyph unicode="&#x625;" d="M-1 -1v2h2v-2h-2z" />
<glyph unicode="&#x626;" d="M-1 -1v2h2v-2h-2z" />
<glyph unicode="&#x627;" d="M-1 -1v2h2v-2h-2z" />
<glyph unicode="&#x628;" d="M-1 -1v2h2v-2h-2z" />
<glyph unicode="&#x629;" d="M-1 -1v2h2v-2h-2z" />
<glyph unicode="&#x62a;" d="M-1 -1v2h2v-2h-2z" />
<glyph unicode="&#x62b;" d="M-1 -1v2h2v-2h-2z" />
<glyph unicode="&#x62c;" d="M-1 -1v2h2v-2h-2z" />
<glyph unicode="&#x62d;" d="M-1 -1v2h2v-2h-2z" />
<glyph unicode="&#x62e;" d="M-1 -1v2h2v-2h-2z" />
<glyph unicode="&#x62f;" d="M-1 -1v2h2v-2h-2z" />
<glyph unicode="&#x630;" d="M-1 -1v2h2v-2h-2z" />
<glyph unicode="&#x631;" d="M-1 -1v2h2v-2h-2z" />
<glyph unicode="&#x632;" d="M-1 -1v2h2v-2h-2z" />
<glyph unicode="&#x633;" d="M-1 -1v2h2v-2h-2z" />
<glyph unicode="&#x634;" d="M-1 -1v2h2v-2h-2z" />
<glyph unicode="&#x635;" d="M-1 -1v2h2v-2h-2z" />
<glyph unicode="&#x636;" d="M-1 -1v2h2v-2h-2z" />
<glyph unicode="&#x637;" d="M-1 -1v2h2v-2h-2z" />
<glyph unicode="&#x638;" d="M-1 -1v2h2v-2h-2z" />
<glyph unicode="&#x639;" d="M-1 -1v2h2v-2h-2z" />
<glyph unicode="&#x63a;" d="M-1 -1v2h2v-2h-2z" />
<glyph unicode="&#x640;" horiz-adv-x="300" d="M320 100v-100h-340v100h340z" />
<glyph unicode="&#x641;" d="M-1 -1v2h2v-2h-2z" />
<glyph unicode="&#x642;" d="M-1 -1v2h2v-2h-2z" />
<glyph unicode="&#x643;" d="M-1 -1v2h2v-2h-2z" />
<glyph unicode="&#x644;" d="M-1 -1v2h2v-2h-2z" />
<glyph unicode="&#x645;" d="M-1 -1v2h2v-2h-2z" />
<glyph unicode="&#x646;" d="M-1 -1v2h2v-2h-2z" />
<glyph unicode="&#x647;" d="M-1 -1v2h2v-2h-2z" />
<glyph unicode="&#x648;" d="M-1 -1v2h2v-2h-2z" />
<glyph unicode="&#x649;" d="M-1 -1v2h2v-2h-2z" />
<glyph unicode="&#x64a;" d="M-1 -1v2h2v-2h-2z" />
<glyph unicode="&#x64b;" d="M-121 121l-17 30l225 130l17 -30zM-87 64l-17 30l225 130l17 -30z" />
<glyph unicode="&#x64c;" d="M-83 70l-34 -7l-23 132l33 6l17 -95l81 46q-28 11 -43 37q-18 31 -9.5 66.5t38.5 52.5q32 19 67.5 9.5t54.5 -41.5q18 -31 8 -66.5t-42 -53.5zM-22 206q11 -20 31.5 -25.5t40.5 5.5q19 11 24.5 32.5t-5.5 40.5q-11 20 -31.5 25.5t-41.5 -5.5q-19 -10 -24 -31.5t6 -41.5z " />
<glyph unicode="&#x64d;" d="M-121 40l-17 30l225 130l17 -30zM-87 -17l-17 30l225 130l17 -30z" />
<glyph unicode="&#x64e;" d="M-104 64l-17 30l225 130l17 -30z" />
<glyph unicode="&#x64f;" d="M89 270q11 -14 8 -34t-18.5 -43t-59 -56t-112.5 -73l-17 30l91 52q-28 11 -43 37q-18 31 -9.5 66.5t38.5 52.5q32 19 67.5 9.5t54.5 -41.5zM-32 200q11 -20 31.5 -25.5t40.5 5.5q19 11 24.5 32.5t-5.5 40.5q-11 20 -31.5 25.5t-41.5 -5.5q-19 -10 -24 -31.5t6 -41.5z" />
<glyph unicode="&#x650;" d="M-104 40l-17 30l225 130l17 -30z" />
<glyph unicode="&#x651;" d="M17 200v-52q0 -16 12 -28t27 -12q16 0 28 12t12 28v52h34v-52q0 -30 -22 -52t-53 -22q-33 0 -55 27q-24 -27 -58 -27q-29 0 -50.5 22t-21.5 52v52h34v-52q0 -16 12 -28t27 -12q16 0 28 12t12 28v52h34z" />
<glyph unicode="&#x652;" d="M-98 174q0 41 29 70.5t69 29.5q41 0 70.5 -29.5t29.5 -70.5t-29.5 -70.5t-70.5 -29.5q-40 0 -69 29.5t-29 70.5zM-65 175q0 -28 19 -47t47 -19t47 19t19 47t-19 47t-47 20t-47 -19t-19 -48z" />
<glyph unicode="&#x653;" d="M-1 -1v2h2v-2h-2z" />
<glyph unicode="&#x654;" d="M-1 -1v2h2v-2h-2z" />
<glyph unicode="&#x655;" d="M-1 -1v2h2v-2h-2z" />
<glyph unicode="&#x656;" d="M-44 -65l69 68v-233h-48v155q0 7 -5.5 10.5t-15.5 -0.5z" />
<glyph unicode="&#x660;" horiz-adv-x="500" d="M192 300q0 24 17 41t41 17t41 -17t17 -41t-17 -41t-41 -17t-41 17t-17 41z" />
<glyph unicode="&#x661;" horiz-adv-x="500" d="M200 0v578l100 22v-600h-100z" />
<glyph unicode="&#x662;" horiz-adv-x="500" d="M390 500h-80q-48 0 -74 -19t-26 -71v-410h-100v410q0 40 8 71t22 51t33.5 34t42 20.5t47.5 10.5t50.5 3t50.5 0h26v-100z" />
<glyph unicode="&#x663;" horiz-adv-x="500" d="M120 599v-199h80v177l100 23v-200h80v178l100 22v-277q0 -11 -10 -17t-20 -6h-10h-320v-300h-100v577z" />
<glyph unicode="&#x664;" horiz-adv-x="500" d="M299 622l60 -80l-175 -128l165 -139l-166 -175h257v-100h-329l-13 8q-31 21 -35.5 51.5t6.5 54t29 41.5l111 112l-88 69q-45 40 -42 87q3 41 46 71z" />
<glyph unicode="&#x665;" horiz-adv-x="500" d="M398 200q0 -62 -43.5 -106t-104.5 -44h-108q-40 -2 -40 23v327q0 62 43.5 106t104.5 44q122 0 148 50v-400zM300 450h-50q-21 0 -35.5 -14.5t-14.5 -35.5v-250h50q21 0 35.5 14.5t14.5 35.5v250z" />
<glyph unicode="&#x666;" horiz-adv-x="500" d="M321 0v500h-219l-22 100h317q11 0 17 -10t6 -20v-10v-560h-99z" />
<glyph unicode="&#x667;" horiz-adv-x="500" d="M53 565l90 47l107 -397l107 397l90 -47l-152 -565h-90z" />
<glyph unicode="&#x668;" horiz-adv-x="500" d="M148 0h-104l160 600h90l7 -26h1v-2l154 -572h-104l-102 380z" />
<glyph unicode="&#x669;" horiz-adv-x="500" d="M340 246q-15 1 -47.5 0t-54 0.5t-50 8t-53 24.5t-45.5 47q-43 78 -23.5 151.5t82.5 109.5q37 24 85.5 29t98.5 -15.5t79 -65.5q28 -44 28 -100v-435h-100v246zM340 346v89q0 27 -13 47q-19 27 -62.5 31t-63.5 -12q-26 -14 -36.5 -46.5t9.5 -74.5q12 -17 24.5 -24.5 t30 -8.5t44 -0.5t67.5 -0.5z" />
<glyph unicode="&#x66e;" d="M-1 -1v2h2v-2h-2z" />
<glyph unicode="&#x66f;" d="M-1 -1v2h2v-2h-2z" />
<glyph unicode="&#x670;" d="M-44 165l69 68v-233h-48v155q0 7 -5.5 10.5t-15.5 -0.5z" />
<glyph unicode="&#x671;" d="M-1 -1v2h2v-2h-2z" />
<glyph unicode="&#x674;" d="M-1 -1v2h2v-2h-2z" />
<glyph unicode="&#x679;" d="M-1 -1v2h2v-2h-2z" />
<glyph unicode="&#x67a;" d="M-1 -1v2h2v-2h-2z" />
<glyph unicode="&#x67e;" d="M-1 -1v2h2v-2h-2z" />
<glyph unicode="&#x686;" d="M-1 -1v2h2v-2h-2z" />
<glyph unicode="&#x688;" d="M-1 -1v2h2v-2h-2z" />
<glyph unicode="&#x68e;" d="M-1 -1v2h2v-2h-2z" />
<glyph unicode="&#x691;" d="M-1 -1v2h2v-2h-2z" />
<glyph unicode="&#x698;" d="M-1 -1v2h2v-2h-2z" />
<glyph unicode="&#x6a0;" d="M-1 -1v2h2v-2h-2z" />
<glyph unicode="&#x6a1;" d="M-1 -1v2h2v-2h-2z" />
<glyph unicode="&#x6a4;" d="M-1 -1v2h2v-2h-2z" />
<glyph unicode="&#x6a9;" d="M-1 -1v2h2v-2h-2z" />
<glyph unicode="&#x6ac;" d="M-1 -1v2h2v-2h-2z" />
<glyph unicode="&#x6af;" d="M-1 -1v2h2v-2h-2z" />
<glyph unicode="&#x6ba;" d="M-1 -1v2h2v-2h-2z" />
<glyph unicode="&#x6bb;" d="M-1 -1v2h2v-2h-2z" />
<glyph unicode="&#x6bd;" d="M-1 -1v2h2v-2h-2z" />
<glyph unicode="&#x6be;" d="M-1 -1v2h2v-2h-2z" />
<glyph unicode="&#x6c0;" d="M-1 -1v2h2v-2h-2z" />
<glyph unicode="&#x6c1;" d="M-1 -1v2h2v-2h-2z" />
<glyph unicode="&#x6cc;" d="M-1 -1v2h2v-2h-2z" />
<glyph unicode="&#x6cf;" d="M-1 -1v2h2v-2h-2z" />
<glyph unicode="&#x6d2;" d="M-1 -1v2h2v-2h-2z" />
<glyph unicode="&#x6d3;" d="M-1 -1v2h2v-2h-2z" />
<glyph unicode="&#x6e4;" d="M-1 -1v2h2v-2h-2z" />
<glyph unicode="&#x6f0;" horiz-adv-x="500" d="M192 300q0 24 17 41t41 17t41 -17t17 -41t-17 -41t-41 -17t-41 17t-17 41z" />
<glyph unicode="&#x6f1;" horiz-adv-x="500" d="M200 0v578l100 22v-600h-100z" />
<glyph unicode="&#x6f2;" horiz-adv-x="500" d="M170 599v-149h160v128l100 22v-227q0 -11 -10 -17t-20 -6h-10h-220v-350h-100v577z" />
<glyph unicode="&#x6f3;" horiz-adv-x="500" d="M120 599v-199h80v177l100 23v-200h80v178l100 22v-277q0 -11 -10 -17t-20 -6h-10h-320v-300h-100v577z" />
<glyph unicode="&#x6f4;" horiz-adv-x="500" d="M120 599v-199h68v16q-1 77 36 127.5t95 50.5q55 0 83 -24t37 -56q-38 23 -75 23q-27 0 -48 -18.5t-21 -52.5q0 -36 25.5 -51t57.5 -15h102l-22 -100h-338v-300h-100v577z" />
<glyph unicode="&#x6f5;" horiz-adv-x="500" d="M398 200q0 -62 -43.5 -106t-104.5 -44h-108q-40 -2 -40 23v327q0 62 43.5 106t104.5 44q122 0 148 50v-400zM300 450h-50q-21 0 -35.5 -14.5t-14.5 -35.5v-250h50q21 0 35.5 14.5t14.5 35.5v250z" />
<glyph unicode="&#x6f6;" horiz-adv-x="500" d="M192 350q-58 37 -63 98t34.5 106.5t95.5 45.5q37 0 67.5 -20t46.5 -56q-45 39 -93 30q-25 -4 -43 -24.5t-18 -45.5q0 -38 29.5 -65.5t59.5 -18.5l132 40l-38 -100q-64 -16 -123.5 -56.5t-102 -90.5t-72.5 -100t-44 -93q0 21 3 49.5t14 82.5t41 113t74 105z" />
<glyph unicode="&#x6f7;" horiz-adv-x="500" d="M53 565l90 47l107 -397l107 397l90 -47l-152 -565h-90z" />
<glyph unicode="&#x6f8;" horiz-adv-x="500" d="M148 0h-104l160 600h90l7 -26h1v-2l154 -572h-104l-102 380z" />
<glyph unicode="&#x6f9;" horiz-adv-x="500" d="M340 246q-15 1 -47.5 0t-54 0.5t-50 8t-53 24.5t-45.5 47q-43 78 -23.5 151.5t82.5 109.5q37 24 85.5 29t98.5 -15.5t79 -65.5q28 -44 28 -100v-435h-100v246zM340 346v89q0 27 -13 47q-19 27 -62.5 31t-63.5 -12q-26 -14 -36.5 -46.5t9.5 -74.5q12 -17 24.5 -24.5 t30 -8.5t44 -0.5t67.5 -0.5z" />
<glyph unicode="&#x762;" d="M-1 -1v2h2v-2h-2z" />
<glyph unicode="&#x1e80;" horiz-adv-x="1010" d="M350 903h111l71 -134h-63zM39 721h122l180 -509l124 319l-75 190h105l195 -498l169 498h112l-284 -753l-170 432l-189 -434z" />
<glyph unicode="&#x1e81;" horiz-adv-x="676" d="M188 620h111l71 -134h-63zM352 418l108 -249l99 249h99l-191 -443l-134 285l-123 -285l-192 443h98l106 -241l75 173l-32 68h87z" />
<glyph unicode="&#x1e82;" horiz-adv-x="1010" d="M665 897l-130 -134h-63l81 134h112zM39 721h122l180 -509l124 319l-75 190h105l195 -498l169 498h112l-284 -753l-170 432l-189 -434z" />
<glyph unicode="&#x1e83;" horiz-adv-x="676" d="M502 614l-130 -134h-63l81 134h112zM352 418l108 -249l99 249h99l-191 -443l-134 285l-123 -285l-192 443h98l106 -241l75 173l-32 68h87z" />
<glyph unicode="&#x1e84;" horiz-adv-x="1010" d="M351 825q0 23 17 40t39 17q20 0 37.5 -17t17.5 -40q0 -24 -17 -40t-38 -16q-22 0 -39 16t-17 40zM540 825q0 23 17 40t39 17q20 0 37.5 -17t17.5 -40q0 -24 -17 -40t-38 -16q-22 0 -39 16t-17 40zM39 721h122l180 -509l124 319l-75 190h105l195 -498l169 498h112 l-284 -753l-170 432l-189 -434z" />
<glyph unicode="&#x1e85;" horiz-adv-x="676" d="M186 529q0 23 17 40t39 17q20 0 37.5 -17t17.5 -40q0 -24 -17 -40t-38 -16q-22 0 -39 16t-17 40zM375 529q0 23 17 40t39 17q20 0 37.5 -17t17.5 -40q0 -24 -17 -40t-38 -16q-22 0 -39 16t-17 40zM352 418l108 -249l99 249h99l-191 -443l-134 285l-123 -285l-192 443h98 l106 -241l75 173l-32 68h87z" />
<glyph unicode="&#x1e9e;" horiz-adv-x="839" d="M571 -8q-129 0 -228 68l46 82q86 -58 174 -58q44 0 79 25.5t35 75.5q0 24 -15.5 44.5t-34.5 33t-51 30.5q-9 5 -13 7q-72 37 -117 83t-45 115q0 60 28.5 103.5t81.5 62.5q-45 15 -93 15q-99 0 -154.5 -71t-55.5 -215v-393h-105v397q0 166 79.5 265.5t224.5 99.5 q80 0 160.5 -31.5t117.5 -71.5l-29 -77q-16 14 -40 20l-1 -1l-1 1q-10 3 -23 3q-37 0 -61.5 -25.5t-24.5 -63.5q0 -15 3 -27.5t13.5 -25t16 -19t24 -19.5t23.5 -15.5t28 -16.5q2 -1 3.5 -2l3 -2t3.5 -2q79 -45 105 -69q58 -53 58 -133q0 -81 -58 -137t-157 -56z" />
<glyph unicode="&#x1ea0;" horiz-adv-x="700" d="M28 0l319 755h6l319 -755h-121l-72 182h-272l-75 -182h-104zM243 272h201l-98 250zM290 -104q0 23 18 39t41 16q22 0 40 -16t18 -39q0 -24 -17.5 -39.5t-40.5 -15.5t-41 15.5t-18 39.5z" />
<glyph unicode="&#x1ea1;" horiz-adv-x="591" d="M254 -10q-92 0 -151.5 57.5t-59.5 161.5q0 102 62 164t151 62q103 0 156 -80l7 63h93v-418h-101v66q-23 -29 -63.5 -52.5t-93.5 -23.5zM281 73q49 0 84 26.5t46 72.5v86q-12 42 -49 68.5t-84 26.5q-55 0 -93.5 -39.5t-38.5 -99.5q0 -59 40 -100t95 -41zM245 -102 q0 20 15.5 34t36.5 14q19 0 35 -14t16 -34q0 -21 -15.5 -34.5t-35.5 -13.5q-21 0 -36.5 13.5t-15.5 34.5z" />
<glyph unicode="&#x1ea2;" horiz-adv-x="700" d="M343 822q44 32 44 59q0 35 -32 35q-26 0 -46 -30l-37 24q32 63 96 63q37 0 57 -22.5t20 -56.5q0 -56 -78 -103zM28 0l319 755h6l319 -755h-121l-72 182h-272l-75 -182h-104zM243 272h201l-98 250z" />
<glyph unicode="&#x1ea3;" horiz-adv-x="591" d="M287 510q44 32 44 59q0 35 -32 35q-26 0 -46 -30l-37 24q32 63 96 63q37 0 57 -22.5t20 -56.5q0 -56 -78 -103zM254 -10q-92 0 -151.5 57.5t-59.5 161.5q0 102 62 164t151 62q103 0 156 -80l7 63h93v-418h-101v66q-23 -29 -63.5 -52.5t-93.5 -23.5zM281 73q49 0 84 26.5 t46 72.5v86q-12 42 -49 68.5t-84 26.5q-55 0 -93.5 -39.5t-38.5 -99.5q0 -59 40 -100t95 -41z" />
<glyph unicode="&#x1ea4;" horiz-adv-x="700" d="M677 1050l-130 -134h-63l81 134h112zM430 817l-80 83l-75 -83h-92l168 174h1l171 -174h-93zM28 0l319 755h6l319 -755h-121l-72 182h-272l-75 -182h-104zM243 272h201l-98 250z" />
<glyph unicode="&#x1ea5;" horiz-adv-x="591" d="M636 729l-130 -134h-63l81 134h112zM389 496l-80 83l-75 -83h-92l168 174h1l171 -174h-93zM254 -10q-92 0 -151.5 57.5t-59.5 161.5q0 102 62 164t151 62q103 0 156 -80l7 63h93v-418h-101v66q-23 -29 -63.5 -52.5t-93.5 -23.5zM281 73q49 0 84 26.5t46 72.5v86 q-12 42 -49 68.5t-84 26.5q-55 0 -93.5 -39.5t-38.5 -99.5q0 -59 40 -100t95 -41z" />
<glyph unicode="&#x1ea6;" horiz-adv-x="700" d="M37 1056h111l71 -134h-63zM422 814l-80 83l-75 -83h-92l168 174h1l171 -174h-93zM28 0l319 755h6l319 -755h-121l-72 182h-272l-75 -182h-104zM243 272h201l-98 250z" />
<glyph unicode="&#x1ea7;" horiz-adv-x="591" d="M-3 735h111l71 -134h-63zM382 493l-80 83l-75 -83h-92l168 174h1l171 -174h-93zM254 -10q-92 0 -151.5 57.5t-59.5 161.5q0 102 62 164t151 62q103 0 156 -80l7 63h93v-418h-101v66q-23 -29 -63.5 -52.5t-93.5 -23.5zM281 73q49 0 84 26.5t46 72.5v86q-12 42 -49 68.5 t-84 26.5q-55 0 -93.5 -39.5t-38.5 -99.5q0 -59 40 -100t95 -41z" />
<glyph unicode="&#x1ea8;" horiz-adv-x="700" d="M508 922q44 32 44 59q0 35 -32 35q-26 0 -46 -30l-37 24q32 63 96 63q37 0 57 -22.5t20 -56.5q0 -56 -78 -103zM426 817l-80 83l-75 -83h-92l168 174h1l171 -174h-93zM28 0l319 755h6l319 -755h-121l-72 182h-272l-75 -182h-104zM243 272h201l-98 250z" />
<glyph unicode="&#x1ea9;" horiz-adv-x="591" d="M467 601q44 32 44 59q0 35 -32 35q-26 0 -46 -30l-37 24q32 63 96 63q37 0 57 -22.5t20 -56.5q0 -56 -78 -103zM385 496l-80 83l-75 -83h-92l168 174h1l171 -174h-93zM254 -10q-92 0 -151.5 57.5t-59.5 161.5q0 102 62 164t151 62q103 0 156 -80l7 63h93v-418h-101v66 q-23 -29 -63.5 -52.5t-93.5 -23.5zM281 73q49 0 84 26.5t46 72.5v86q-12 42 -49 68.5t-84 26.5q-55 0 -93.5 -39.5t-38.5 -99.5q0 -59 40 -100t95 -41z" />
<glyph unicode="&#x1eaa;" horiz-adv-x="700" d="M424 1009q-8 0 -16 1.5t-13.5 2.5t-13 5t-11.5 6t-11 7.5t-9.5 7t-10 8t-8.5 7.5q-30 28 -49 28q-20 0 -30.5 -20.5t-8.5 -52.5h-55q-5 60 22.5 100.5t76.5 40.5q36 0 81 -43q35 -33 53 -33q37 0 35 76h55q7 -62 -18.5 -101.5t-68.5 -39.5zM422 810l-80 83l-75 -83h-92 l168 174h1l171 -174h-93zM28 0l319 755h6l319 -755h-121l-72 182h-272l-75 -182h-104zM243 272h201l-98 250z" />
<glyph unicode="&#x1eab;" horiz-adv-x="591" d="M383 689q-8 0 -16 1.5t-13.5 2.5t-13 5t-11.5 6t-11 7.5t-9.5 7t-10 8t-8.5 7.5q-30 28 -49 28q-20 0 -30.5 -20.5t-8.5 -52.5h-55q-5 60 22.5 100.5t76.5 40.5q36 0 81 -43q35 -33 53 -33q37 0 35 76h55q7 -62 -18.5 -101.5t-68.5 -39.5zM381 490l-80 83l-75 -83h-92 l168 174h1l171 -174h-93zM254 -10q-92 0 -151.5 57.5t-59.5 161.5q0 102 62 164t151 62q103 0 156 -80l7 63h93v-418h-101v66q-23 -29 -63.5 -52.5t-93.5 -23.5zM281 73q49 0 84 26.5t46 72.5v86q-12 42 -49 68.5t-84 26.5q-55 0 -93.5 -39.5t-38.5 -99.5q0 -59 40 -100 t95 -41z" />
<glyph unicode="&#x1eac;" horiz-adv-x="700" d="M422 800l-80 83l-75 -83h-92l168 174h1l171 -174h-93zM28 0l319 755h6l319 -755h-121l-72 182h-272l-75 -182h-104zM243 272h201l-98 250zM290 -104q0 23 18 39t41 16q22 0 40 -16t18 -39q0 -24 -17.5 -39.5t-40.5 -15.5t-41 15.5t-18 39.5z" />
<glyph unicode="&#x1ead;" horiz-adv-x="591" d="M386 500l-80 83l-75 -83h-92l168 174h1l171 -174h-93zM254 -10q-92 0 -151.5 57.5t-59.5 161.5q0 102 62 164t151 62q103 0 156 -80l7 63h93v-418h-101v66q-23 -29 -63.5 -52.5t-93.5 -23.5zM281 73q49 0 84 26.5t46 72.5v86q-12 42 -49 68.5t-84 26.5q-55 0 -93.5 -39.5 t-38.5 -99.5q0 -59 40 -100t95 -41zM245 -102q0 20 15.5 34t36.5 14q19 0 35 -14t16 -34q0 -21 -15.5 -34.5t-35.5 -13.5q-21 0 -36.5 13.5t-15.5 34.5z" />
<glyph unicode="&#x1eae;" horiz-adv-x="700" d="M508 1137l-130 -134h-63l81 134h112zM351 788q-129 0 -154 178h68q16 -109 86 -109t84 109h69q-23 -178 -153 -178zM28 0l319 755h6l319 -755h-121l-72 182h-272l-75 -182h-104zM243 272h201l-98 250z" />
<glyph unicode="&#x1eaf;" horiz-adv-x="591" d="M461 814l-130 -134h-63l81 134h112zM310 481q-129 0 -154 178h68q16 -109 86 -109t84 109h69q-23 -178 -153 -178zM254 -10q-92 0 -151.5 57.5t-59.5 161.5q0 102 62 164t151 62q103 0 156 -80l7 63h93v-418h-101v66q-23 -29 -63.5 -52.5t-93.5 -23.5zM281 73 q49 0 84 26.5t46 72.5v86q-12 42 -49 68.5t-84 26.5q-55 0 -93.5 -39.5t-38.5 -99.5q0 -59 40 -100t95 -41z" />
<glyph unicode="&#x1eb0;" horiz-adv-x="700" d="M193 1143h111l71 -134h-63zM351 788q-129 0 -154 178h68q16 -109 86 -109t84 109h69q-23 -178 -153 -178zM28 0l319 755h6l319 -755h-121l-72 182h-272l-75 -182h-104zM243 272h201l-98 250z" />
<glyph unicode="&#x1eb1;" horiz-adv-x="591" d="M162 812h111l71 -134h-63zM310 481q-129 0 -154 178h68q16 -109 86 -109t84 109h69q-23 -178 -153 -178zM254 -10q-92 0 -151.5 57.5t-59.5 161.5q0 102 62 164t151 62q103 0 156 -80l7 63h93v-418h-101v66q-23 -29 -63.5 -52.5t-93.5 -23.5zM281 73q49 0 84 26.5 t46 72.5v86q-12 42 -49 68.5t-84 26.5q-55 0 -93.5 -39.5t-38.5 -99.5q0 -59 40 -100t95 -41z" />
<glyph unicode="&#x1eb2;" horiz-adv-x="700" d="M342 1041q44 32 44 59q0 35 -32 35q-26 0 -46 -30l-37 24q32 63 96 63q37 0 57 -22.5t20 -56.5q0 -56 -78 -103zM351 788q-129 0 -154 178h68q16 -109 86 -109t84 109h69q-23 -178 -153 -178zM28 0l319 755h6l319 -755h-121l-72 182h-272l-75 -182h-104zM243 272h201 l-98 250z" />
<glyph unicode="&#x1eb3;" horiz-adv-x="591" d="M304 694q44 32 44 59q0 35 -32 35q-26 0 -46 -30l-37 24q32 63 96 63q37 0 57 -22.5t20 -56.5q0 -56 -78 -103zM310 481q-129 0 -154 178h68q16 -109 86 -109t84 109h69q-23 -178 -153 -178zM254 -10q-92 0 -151.5 57.5t-59.5 161.5q0 102 62 164t151 62q103 0 156 -80 l7 63h93v-418h-101v66q-23 -29 -63.5 -52.5t-93.5 -23.5zM281 73q49 0 84 26.5t46 72.5v86q-12 42 -49 68.5t-84 26.5q-55 0 -93.5 -39.5t-38.5 -99.5q0 -59 40 -100t95 -41z" />
<glyph unicode="&#x1eb4;" horiz-adv-x="700" d="M427 1038q-8 0 -16 1.5t-13.5 2.5t-13 5t-11.5 6t-11 7.5t-9.5 7t-10 8t-8.5 7.5q-30 28 -49 28q-20 0 -30.5 -20.5t-8.5 -52.5h-55q-5 60 22.5 100.5t76.5 40.5q36 0 81 -43q35 -33 53 -33q37 0 35 76h55q7 -62 -18.5 -101.5t-68.5 -39.5zM351 788q-129 0 -154 178h68 q16 -109 86 -109t84 109h69q-23 -178 -153 -178zM28 0l319 755h6l319 -755h-121l-72 182h-272l-75 -182h-104zM243 272h201l-98 250z" />
<glyph unicode="&#x1eb5;" horiz-adv-x="591" d="M397 692q-8 0 -16 1.5t-13.5 2.5t-13 5t-11.5 6t-11 7.5t-9.5 7t-10 8t-8.5 7.5q-30 28 -49 28q-20 0 -30.5 -20.5t-8.5 -52.5h-55q-5 60 22.5 100.5t76.5 40.5q36 0 81 -43q35 -33 53 -33q37 0 35 76h55q7 -62 -18.5 -101.5t-68.5 -39.5zM310 481q-129 0 -154 178h68 q16 -109 86 -109t84 109h69q-23 -178 -153 -178zM254 -10q-92 0 -151.5 57.5t-59.5 161.5q0 102 62 164t151 62q103 0 156 -80l7 63h93v-418h-101v66q-23 -29 -63.5 -52.5t-93.5 -23.5zM281 73q49 0 84 26.5t46 72.5v86q-12 42 -49 68.5t-84 26.5q-55 0 -93.5 -39.5 t-38.5 -99.5q0 -59 40 -100t95 -41z" />
<glyph unicode="&#x1eb6;" horiz-adv-x="700" d="M351 788q-129 0 -154 178h68q16 -109 86 -109t84 109h69q-23 -178 -153 -178zM28 0l319 755h6l319 -755h-121l-72 182h-272l-75 -182h-104zM243 272h201l-98 250zM290 -104q0 23 18 39t41 16q22 0 40 -16t18 -39q0 -24 -17.5 -39.5t-40.5 -15.5t-41 15.5t-18 39.5z" />
<glyph unicode="&#x1eb7;" horiz-adv-x="591" d="M310 481q-129 0 -154 178h68q16 -109 86 -109t84 109h69q-23 -178 -153 -178zM254 -10q-92 0 -151.5 57.5t-59.5 161.5q0 102 62 164t151 62q103 0 156 -80l7 63h93v-418h-101v66q-23 -29 -63.5 -52.5t-93.5 -23.5zM281 73q49 0 84 26.5t46 72.5v86q-12 42 -49 68.5 t-84 26.5q-55 0 -93.5 -39.5t-38.5 -99.5q0 -59 40 -100t95 -41zM245 -102q0 20 15.5 34t36.5 14q19 0 35 -14t16 -34q0 -21 -15.5 -34.5t-35.5 -13.5q-21 0 -36.5 13.5t-15.5 34.5z" />
<glyph unicode="&#x1eb8;" horiz-adv-x="655" d="M103 725h475v-101h-371v-209h331v-101h-331v-213h385v-101h-489v725zM276 -104q0 23 18 39t41 16q22 0 40 -16t18 -39q0 -24 -17.5 -39.5t-40.5 -15.5t-41 15.5t-18 39.5z" />
<glyph unicode="&#x1eb9;" horiz-adv-x="525" d="M275 -10q-106 0 -169 62t-63 160q0 93 68 158t166 65q84 0 139 -48.5t75 -136.5l-327 -113q39 -61 113 -61q51 0 99 35l46 -75q-71 -46 -147 -46zM143 218q0 -15 1 -21l233 85q-32 73 -107 73q-56 0 -91.5 -38.5t-35.5 -98.5zM213 -102q0 20 15.5 34t36.5 14q19 0 35 -14 t16 -34q0 -21 -15.5 -34.5t-35.5 -13.5q-21 0 -36.5 13.5t-15.5 34.5z" />
<glyph unicode="&#x1eba;" horiz-adv-x="655" d="M329 808q44 32 44 59q0 35 -32 35q-26 0 -46 -30l-37 24q32 63 96 63q37 0 57 -22.5t20 -56.5q0 -56 -78 -103zM103 725h475v-101h-371v-209h331v-101h-331v-213h385v-101h-489v725z" />
<glyph unicode="&#x1ebb;" horiz-adv-x="525" d="M250 510q44 32 44 59q0 35 -32 35q-26 0 -46 -30l-37 24q32 63 96 63q37 0 57 -22.5t20 -56.5q0 -56 -78 -103zM275 -10q-106 0 -169 62t-63 160q0 93 68 158t166 65q84 0 139 -48.5t75 -136.5l-327 -113q39 -61 113 -61q51 0 99 35l46 -75q-71 -46 -147 -46zM143 218 q0 -15 1 -21l233 85q-32 73 -107 73q-56 0 -91.5 -38.5t-35.5 -98.5z" />
<glyph unicode="&#x1ebc;" horiz-adv-x="655" d="M415 805q-8 0 -16 1.5t-13.5 2.5t-13 5t-11.5 6t-11 7.5t-9.5 7t-10 8t-8.5 7.5q-30 28 -49 28q-20 0 -30.5 -20.5t-8.5 -52.5h-55q-5 60 22.5 100.5t76.5 40.5q36 0 81 -43q35 -33 53 -33q37 0 35 76h55q7 -62 -18.5 -101.5t-68.5 -39.5zM103 725h475v-101h-371v-209 h331v-101h-331v-213h385v-101h-489v725z" />
<glyph unicode="&#x1ebd;" horiz-adv-x="525" d="M351 475q-8 0 -16 1.5t-13.5 2.5t-13 5t-11.5 6t-11 7.5t-9.5 7t-10 8t-8.5 7.5q-30 28 -49 28q-20 0 -30.5 -20.5t-8.5 -52.5h-55q-5 60 22.5 100.5t76.5 40.5q36 0 81 -43q35 -33 53 -33q37 0 35 76h55q7 -62 -18.5 -101.5t-68.5 -39.5zM275 -10q-106 0 -169 62 t-63 160q0 93 68 158t166 65q84 0 139 -48.5t75 -136.5l-327 -113q39 -61 113 -61q51 0 99 35l46 -75q-71 -46 -147 -46zM143 218q0 -15 1 -21l233 85q-32 73 -107 73q-56 0 -91.5 -38.5t-35.5 -98.5z" />
<glyph unicode="&#x1ebe;" horiz-adv-x="655" d="M663 1036l-130 -134h-63l81 134h112zM416 803l-80 83l-75 -83h-92l168 174h1l171 -174h-93zM103 725h475v-101h-371v-209h331v-101h-331v-213h385v-101h-489v725z" />
<glyph unicode="&#x1ebf;" horiz-adv-x="525" d="M599 730l-130 -134h-63l81 134h112zM352 497l-80 83l-75 -83h-92l168 174h1l171 -174h-93zM275 -10q-106 0 -169 62t-63 160q0 93 68 158t166 65q84 0 139 -48.5t75 -136.5l-327 -113q39 -61 113 -61q51 0 99 35l46 -75q-71 -46 -147 -46zM143 218q0 -15 1 -21l233 85 q-32 73 -107 73q-56 0 -91.5 -38.5t-35.5 -98.5z" />
<glyph unicode="&#x1ec0;" horiz-adv-x="655" d="M24 1042h111l71 -134h-63zM409 800l-80 83l-75 -83h-92l168 174h1l171 -174h-93zM103 725h475v-101h-371v-209h331v-101h-331v-213h385v-101h-489v725z" />
<glyph unicode="&#x1ec1;" horiz-adv-x="525" d="M-41 736h111l71 -134h-63zM344 494l-80 83l-75 -83h-92l168 174h1l171 -174h-93zM275 -10q-106 0 -169 62t-63 160q0 93 68 158t166 65q84 0 139 -48.5t75 -136.5l-327 -113q39 -61 113 -61q51 0 99 35l46 -75q-71 -46 -147 -46zM143 218q0 -15 1 -21l233 85 q-32 73 -107 73q-56 0 -91.5 -38.5t-35.5 -98.5z" />
<glyph unicode="&#x1ec2;" horiz-adv-x="655" d="M494 908q44 32 44 59q0 35 -32 35q-26 0 -46 -30l-37 24q32 63 96 63q37 0 57 -22.5t20 -56.5q0 -56 -78 -103zM412 803l-80 83l-75 -83h-92l168 174h1l171 -174h-93zM103 725h475v-101h-371v-209h331v-101h-331v-213h385v-101h-489v725z" />
<glyph unicode="&#x1ec3;" horiz-adv-x="525" d="M430 602q44 32 44 59q0 35 -32 35q-26 0 -46 -30l-37 24q32 63 96 63q37 0 57 -22.5t20 -56.5q0 -56 -78 -103zM348 497l-80 83l-75 -83h-92l168 174h1l171 -174h-93zM275 -10q-106 0 -169 62t-63 160q0 93 68 158t166 65q84 0 139 -48.5t75 -136.5l-327 -113 q39 -61 113 -61q51 0 99 35l46 -75q-71 -46 -147 -46zM143 218q0 -15 1 -21l233 85q-32 73 -107 73q-56 0 -91.5 -38.5t-35.5 -98.5z" />
<glyph unicode="&#x1ec4;" horiz-adv-x="655" d="M410 996q-8 0 -16 1.5t-13.5 2.5t-13 5t-11.5 6t-11 7.5t-9.5 7t-10 8t-8.5 7.5q-30 28 -49 28q-20 0 -30.5 -20.5t-8.5 -52.5h-55q-5 60 22.5 100.5t76.5 40.5q36 0 81 -43q35 -33 53 -33q37 0 35 76h55q7 -62 -18.5 -101.5t-68.5 -39.5zM408 797l-80 83l-75 -83h-92 l168 174h1l171 -174h-93zM103 725h475v-101h-371v-209h331v-101h-331v-213h385v-101h-489v725z" />
<glyph unicode="&#x1ec5;" horiz-adv-x="525" d="M345 689q-8 0 -16 1.5t-13.5 2.5t-13 5t-11.5 6t-11 7.5t-9.5 7t-10 8t-8.5 7.5q-30 28 -49 28q-20 0 -30.5 -20.5t-8.5 -52.5h-55q-5 60 22.5 100.5t76.5 40.5q36 0 81 -43q35 -33 53 -33q37 0 35 76h55q7 -62 -18.5 -101.5t-68.5 -39.5zM343 490l-80 83l-75 -83h-92 l168 174h1l171 -174h-93zM275 -10q-106 0 -169 62t-63 160q0 93 68 158t166 65q84 0 139 -48.5t75 -136.5l-327 -113q39 -61 113 -61q51 0 99 35l46 -75q-71 -46 -147 -46zM143 218q0 -15 1 -21l233 85q-32 73 -107 73q-56 0 -91.5 -38.5t-35.5 -98.5z" />
<glyph unicode="&#x1ec6;" horiz-adv-x="655" d="M408 786l-80 83l-75 -83h-92l168 174h1l171 -174h-93zM103 725h475v-101h-371v-209h331v-101h-331v-213h385v-101h-489v725zM276 -104q0 23 18 39t41 16q22 0 40 -16t18 -39q0 -24 -17.5 -39.5t-40.5 -15.5t-41 15.5t-18 39.5z" />
<glyph unicode="&#x1ec7;" horiz-adv-x="525" d="M349 500l-80 83l-75 -83h-92l168 174h1l171 -174h-93zM275 -10q-106 0 -169 62t-63 160q0 93 68 158t166 65q84 0 139 -48.5t75 -136.5l-327 -113q39 -61 113 -61q51 0 99 35l46 -75q-71 -46 -147 -46zM143 218q0 -15 1 -21l233 85q-32 73 -107 73q-56 0 -91.5 -38.5 t-35.5 -98.5zM213 -102q0 20 15.5 34t36.5 14q19 0 35 -14t16 -34q0 -21 -15.5 -34.5t-35.5 -13.5q-21 0 -36.5 13.5t-15.5 34.5z" />
<glyph unicode="&#x1ec8;" horiz-adv-x="310" d="M148 808q44 32 44 59q0 35 -32 35q-26 0 -46 -30l-37 24q32 63 96 63q37 0 57 -22.5t20 -56.5q0 -56 -78 -103zM103 725h104v-725h-104v725z" />
<glyph unicode="&#x1ec9;" horiz-adv-x="259" d="M109 496q44 32 44 59q0 35 -32 35q-26 0 -46 -30l-37 24q32 63 96 63q37 0 57 -22.5t20 -56.5q0 -56 -78 -103zM79 418h101v-418h-101v418z" />
<glyph unicode="&#x1eca;" horiz-adv-x="310" d="M103 725h104v-725h-104v725zM95 -104q0 23 18 39t41 16q22 0 40 -16t18 -39q0 -24 -17.5 -39.5t-40.5 -15.5t-41 15.5t-18 39.5z" />
<glyph unicode="&#x1ecb;" horiz-adv-x="259" d="M74 568q0 23 18 39t41 16q22 0 40 -16t18 -39q0 -24 -17.5 -39.5t-40.5 -15.5t-41 15.5t-18 39.5zM79 418h101v-418h-101v418zM78 -102q0 20 15.5 34t36.5 14q19 0 35 -14t16 -34q0 -21 -15.5 -34.5t-35.5 -13.5q-21 0 -36.5 13.5t-15.5 34.5z" />
<glyph unicode="&#x1ecc;" horiz-adv-x="856" d="M58 362q0 151 108.5 261t260.5 110t262 -110t110 -261q0 -153 -109.5 -261.5t-262.5 -108.5q-154 0 -261.5 107.5t-107.5 262.5zM166 361q0 -111 76.5 -189.5t187.5 -78.5q109 0 185 78t76 191q0 112 -76.5 191t-186.5 79q-111 0 -186.5 -79t-75.5 -192zM368 -104 q0 23 18 39t41 16q22 0 40 -16t18 -39q0 -24 -17.5 -39.5t-40.5 -15.5t-41 15.5t-18 39.5z" />
<glyph unicode="&#x1ecd;" horiz-adv-x="549" d="M43 213q0 95 66 158.5t168 63.5t165.5 -63t63.5 -159t-64 -159.5t-167 -63.5q-101 0 -166.5 61t-65.5 162zM145 212q0 -59 37 -99t92 -40q57 0 93.5 39.5t36.5 99.5t-36.5 100t-93.5 40q-55 0 -92 -41t-37 -99zM224 -102q0 20 15.5 34t36.5 14q19 0 35 -14t16 -34 q0 -21 -15.5 -34.5t-35.5 -13.5q-21 0 -36.5 13.5t-15.5 34.5z" />
<glyph unicode="&#x1ece;" horiz-adv-x="856" d="M421 801q44 32 44 59q0 35 -32 35q-26 0 -46 -30l-37 24q32 63 96 63q37 0 57 -22.5t20 -56.5q0 -56 -78 -103zM58 362q0 151 108.5 261t260.5 110t262 -110t110 -261q0 -153 -109.5 -261.5t-262.5 -108.5q-154 0 -261.5 107.5t-107.5 262.5zM166 361q0 -111 76.5 -189.5 t187.5 -78.5q109 0 185 78t76 191q0 112 -76.5 191t-186.5 79q-111 0 -186.5 -79t-75.5 -192z" />
<glyph unicode="&#x1ecf;" horiz-adv-x="549" d="M253 510q44 32 44 59q0 35 -32 35q-26 0 -46 -30l-37 24q32 63 96 63q37 0 57 -22.5t20 -56.5q0 -56 -78 -103zM43 213q0 95 66 158.5t168 63.5t165.5 -63t63.5 -159t-64 -159.5t-167 -63.5q-101 0 -166.5 61t-65.5 162zM145 212q0 -59 37 -99t92 -40q57 0 93.5 39.5 t36.5 99.5t-36.5 100t-93.5 40q-55 0 -92 -41t-37 -99z" />
<glyph unicode="&#x1ed0;" horiz-adv-x="856" d="M755 1029l-130 -134h-63l81 134h112zM508 796l-80 83l-75 -83h-92l168 174h1l171 -174h-93zM58 362q0 151 108.5 261t260.5 110t262 -110t110 -261q0 -153 -109.5 -261.5t-262.5 -108.5q-154 0 -261.5 107.5t-107.5 262.5zM166 361q0 -111 76.5 -189.5t187.5 -78.5 q109 0 185 78t76 191q0 112 -76.5 191t-186.5 79q-111 0 -186.5 -79t-75.5 -192z" />
<glyph unicode="&#x1ed1;" horiz-adv-x="549" d="M602 729l-130 -134h-63l81 134h112zM355 496l-80 83l-75 -83h-92l168 174h1l171 -174h-93zM43 213q0 95 66 158.5t168 63.5t165.5 -63t63.5 -159t-64 -159.5t-167 -63.5q-101 0 -166.5 61t-65.5 162zM145 212q0 -59 37 -99t92 -40q57 0 93.5 39.5t36.5 99.5t-36.5 100 t-93.5 40q-55 0 -92 -41t-37 -99z" />
<glyph unicode="&#x1ed2;" horiz-adv-x="856" d="M115 1035h111l71 -134h-63zM500 793l-80 83l-75 -83h-92l168 174h1l171 -174h-93zM58 362q0 151 108.5 261t260.5 110t262 -110t110 -261q0 -153 -109.5 -261.5t-262.5 -108.5q-154 0 -261.5 107.5t-107.5 262.5zM166 361q0 -111 76.5 -189.5t187.5 -78.5q109 0 185 78 t76 191q0 112 -76.5 191t-186.5 79q-111 0 -186.5 -79t-75.5 -192z" />
<glyph unicode="&#x1ed3;" horiz-adv-x="549" d="M-38 735h111l71 -134h-63zM347 493l-80 83l-75 -83h-92l168 174h1l171 -174h-93zM43 213q0 95 66 158.5t168 63.5t165.5 -63t63.5 -159t-64 -159.5t-167 -63.5q-101 0 -166.5 61t-65.5 162zM145 212q0 -59 37 -99t92 -40q57 0 93.5 39.5t36.5 99.5t-36.5 100t-93.5 40 q-55 0 -92 -41t-37 -99z" />
<glyph unicode="&#x1ed4;" horiz-adv-x="856" d="M586 901q44 32 44 59q0 35 -32 35q-26 0 -46 -30l-37 24q32 63 96 63q37 0 57 -22.5t20 -56.5q0 -56 -78 -103zM504 796l-80 83l-75 -83h-92l168 174h1l171 -174h-93zM58 362q0 151 108.5 261t260.5 110t262 -110t110 -261q0 -153 -109.5 -261.5t-262.5 -108.5 q-154 0 -261.5 107.5t-107.5 262.5zM166 361q0 -111 76.5 -189.5t187.5 -78.5q109 0 185 78t76 191q0 112 -76.5 191t-186.5 79q-111 0 -186.5 -79t-75.5 -192z" />
<glyph unicode="&#x1ed5;" horiz-adv-x="549" d="M433 601q44 32 44 59q0 35 -32 35q-26 0 -46 -30l-37 24q32 63 96 63q37 0 57 -22.5t20 -56.5q0 -56 -78 -103zM351 496l-80 83l-75 -83h-92l168 174h1l171 -174h-93zM43 213q0 95 66 158.5t168 63.5t165.5 -63t63.5 -159t-64 -159.5t-167 -63.5q-101 0 -166.5 61 t-65.5 162zM145 212q0 -59 37 -99t92 -40q57 0 93.5 39.5t36.5 99.5t-36.5 100t-93.5 40q-55 0 -92 -41t-37 -99z" />
<glyph unicode="&#x1ed6;" horiz-adv-x="856" d="M502 989q-8 0 -16 1.5t-13.5 2.5t-13 5t-11.5 6t-11 7.5t-9.5 7t-10 8t-8.5 7.5q-30 28 -49 28q-20 0 -30.5 -20.5t-8.5 -52.5h-55q-5 60 22.5 100.5t76.5 40.5q36 0 81 -43q35 -33 53 -33q37 0 35 76h55q7 -62 -18.5 -101.5t-68.5 -39.5zM500 790l-80 83l-75 -83h-92 l168 174h1l171 -174h-93zM58 362q0 151 108.5 261t260.5 110t262 -110t110 -261q0 -153 -109.5 -261.5t-262.5 -108.5q-154 0 -261.5 107.5t-107.5 262.5zM166 361q0 -111 76.5 -189.5t187.5 -78.5q109 0 185 78t76 191q0 112 -76.5 191t-186.5 79q-111 0 -186.5 -79 t-75.5 -192z" />
<glyph unicode="&#x1ed7;" horiz-adv-x="549" d="M349 689q-8 0 -16 1.5t-13.5 2.5t-13 5t-11.5 6t-11 7.5t-9.5 7t-10 8t-8.5 7.5q-30 28 -49 28q-20 0 -30.5 -20.5t-8.5 -52.5h-55q-5 60 22.5 100.5t76.5 40.5q36 0 81 -43q35 -33 53 -33q37 0 35 76h55q7 -62 -18.5 -101.5t-68.5 -39.5zM347 490l-80 83l-75 -83h-92 l168 174h1l171 -174h-93zM43 213q0 95 66 158.5t168 63.5t165.5 -63t63.5 -159t-64 -159.5t-167 -63.5q-101 0 -166.5 61t-65.5 162zM145 212q0 -59 37 -99t92 -40q57 0 93.5 39.5t36.5 99.5t-36.5 100t-93.5 40q-55 0 -92 -41t-37 -99z" />
<glyph unicode="&#x1ed8;" horiz-adv-x="856" d="M500 779l-80 83l-75 -83h-92l168 174h1l171 -174h-93zM58 362q0 151 108.5 261t260.5 110t262 -110t110 -261q0 -153 -109.5 -261.5t-262.5 -108.5q-154 0 -261.5 107.5t-107.5 262.5zM166 361q0 -111 76.5 -189.5t187.5 -78.5q109 0 185 78t76 191q0 112 -76.5 191 t-186.5 79q-111 0 -186.5 -79t-75.5 -192zM368 -104q0 23 18 39t41 16q22 0 40 -16t18 -39q0 -24 -17.5 -39.5t-40.5 -15.5t-41 15.5t-18 39.5z" />
<glyph unicode="&#x1ed9;" horiz-adv-x="549" d="M352 500l-80 83l-75 -83h-92l168 174h1l171 -174h-93zM43 213q0 95 66 158.5t168 63.5t165.5 -63t63.5 -159t-64 -159.5t-167 -63.5q-101 0 -166.5 61t-65.5 162zM145 212q0 -59 37 -99t92 -40q57 0 93.5 39.5t36.5 99.5t-36.5 100t-93.5 40q-55 0 -92 -41t-37 -99z M224 -102q0 20 15.5 34t36.5 14q19 0 35 -14t16 -34q0 -21 -15.5 -34.5t-35.5 -13.5q-21 0 -36.5 13.5t-15.5 34.5z" />
<glyph unicode="&#x1eda;" horiz-adv-x="856" d="M587 897l-130 -134h-63l81 134h112zM58 362q0 151 108.5 261t260.5 110q31 0 73 -7q40 0 57 18.5t23 68.5h75q-11 -92 -54 -124q89 -49 143.5 -136.5t54.5 -190.5q0 -153 -109.5 -261.5t-262.5 -108.5q-154 0 -261.5 107.5t-107.5 262.5zM166 361q0 -111 76.5 -189.5 t187.5 -78.5q109 0 185 78t76 191q0 112 -76.5 191t-186.5 79q-111 0 -186.5 -79t-75.5 -192z" />
<glyph unicode="&#x1edb;" horiz-adv-x="549" d="M439 628l-130 -134h-63l81 134h112zM43 213q0 95 66 158.5t168 63.5q47 0 92 -16q66 6 76 91h76q-12 -105 -80 -137q65 -63 65 -160q0 -96 -64 -159.5t-167 -63.5q-101 0 -166.5 61t-65.5 162zM145 212q0 -59 37 -99t92 -40q57 0 93.5 39.5t36.5 99.5t-36.5 100t-93.5 40 q-55 0 -92 -41t-37 -99z" />
<glyph unicode="&#x1edc;" horiz-adv-x="856" d="M294 903h111l71 -134h-63zM58 362q0 151 108.5 261t260.5 110q31 0 73 -7q40 0 57 18.5t23 68.5h75q-11 -92 -54 -124q89 -49 143.5 -136.5t54.5 -190.5q0 -153 -109.5 -261.5t-262.5 -108.5q-154 0 -261.5 107.5t-107.5 262.5zM166 361q0 -111 76.5 -189.5t187.5 -78.5 q109 0 185 78t76 191q0 112 -76.5 191t-186.5 79q-111 0 -186.5 -79t-75.5 -192z" />
<glyph unicode="&#x1edd;" horiz-adv-x="549" d="M125 634h111l71 -134h-63zM43 213q0 95 66 158.5t168 63.5q47 0 92 -16q66 6 76 91h76q-12 -105 -80 -137q65 -63 65 -160q0 -96 -64 -159.5t-167 -63.5q-101 0 -166.5 61t-65.5 162zM145 212q0 -59 37 -99t92 -40q57 0 93.5 39.5t36.5 99.5t-36.5 100t-93.5 40 q-55 0 -92 -41t-37 -99z" />
<glyph unicode="&#x1ede;" horiz-adv-x="856" d="M421 801q44 32 44 59q0 35 -32 35q-26 0 -46 -30l-37 24q32 63 96 63q37 0 57 -22.5t20 -56.5q0 -56 -78 -103zM58 362q0 151 108.5 261t260.5 110q31 0 73 -7q40 0 57 18.5t23 68.5h75q-11 -92 -54 -124q89 -49 143.5 -136.5t54.5 -190.5q0 -153 -109.5 -261.5 t-262.5 -108.5q-154 0 -261.5 107.5t-107.5 262.5zM166 361q0 -111 76.5 -189.5t187.5 -78.5q109 0 185 78t76 191q0 112 -76.5 191t-186.5 79q-111 0 -186.5 -79t-75.5 -192z" />
<glyph unicode="&#x1edf;" horiz-adv-x="549" d="M253 510q44 32 44 59q0 35 -32 35q-26 0 -46 -30l-37 24q32 63 96 63q37 0 57 -22.5t20 -56.5q0 -56 -78 -103zM43 213q0 95 66 158.5t168 63.5q47 0 92 -16q66 6 76 91h76q-12 -105 -80 -137q65 -63 65 -160q0 -96 -64 -159.5t-167 -63.5q-101 0 -166.5 61t-65.5 162z M145 212q0 -59 37 -99t92 -40q57 0 93.5 39.5t36.5 99.5t-36.5 100t-93.5 40q-55 0 -92 -41t-37 -99z" />
<glyph unicode="&#x1ee0;" horiz-adv-x="856" d="M506 798q-8 0 -16 1.5t-13.5 2.5t-13 5t-11.5 6t-11 7.5t-9.5 7t-10 8t-8.5 7.5q-30 28 -49 28q-20 0 -30.5 -20.5t-8.5 -52.5h-55q-5 60 22.5 100.5t76.5 40.5q36 0 81 -43q35 -33 53 -33q37 0 35 76h55q7 -62 -18.5 -101.5t-68.5 -39.5zM58 362q0 151 108.5 261 t260.5 110q31 0 73 -7q40 0 57 18.5t23 68.5h75q-11 -92 -54 -124q89 -49 143.5 -136.5t54.5 -190.5q0 -153 -109.5 -261.5t-262.5 -108.5q-154 0 -261.5 107.5t-107.5 262.5zM166 361q0 -111 76.5 -189.5t187.5 -78.5q109 0 185 78t76 191q0 112 -76.5 191t-186.5 79 q-111 0 -186.5 -79t-75.5 -192z" />
<glyph unicode="&#x1ee1;" horiz-adv-x="549" d="M329 479q-18 0 -35 7.5t-23.5 13t-23.5 19.5q-24 24 -43 24q-17 0 -26 -17.5t-8 -46.5h-49q-4 53 20.5 89t67.5 36q31 0 71 -38q30 -30 47 -30q32 0 30 68h49q6 -55 -17 -90t-60 -35zM43 213q0 95 66 158.5t168 63.5q47 0 92 -16q66 6 76 91h76q-12 -105 -80 -137 q65 -63 65 -160q0 -96 -64 -159.5t-167 -63.5q-101 0 -166.5 61t-65.5 162zM145 212q0 -59 37 -99t92 -40q57 0 93.5 39.5t36.5 99.5t-36.5 100t-93.5 40q-55 0 -92 -41t-37 -99z" />
<glyph unicode="&#x1ee2;" horiz-adv-x="856" d="M58 362q0 151 108.5 261t260.5 110q31 0 73 -7q40 0 57 18.5t23 68.5h75q-11 -92 -54 -124q89 -49 143.5 -136.5t54.5 -190.5q0 -153 -109.5 -261.5t-262.5 -108.5q-154 0 -261.5 107.5t-107.5 262.5zM166 361q0 -111 76.5 -189.5t187.5 -78.5q109 0 185 78t76 191 q0 112 -76.5 191t-186.5 79q-111 0 -186.5 -79t-75.5 -192zM368 -104q0 23 18 39t41 16q22 0 40 -16t18 -39q0 -24 -17.5 -39.5t-40.5 -15.5t-41 15.5t-18 39.5z" />
<glyph unicode="&#x1ee3;" horiz-adv-x="549" d="M43 213q0 95 66 158.5t168 63.5q47 0 92 -16q66 6 76 91h76q-12 -105 -80 -137q65 -63 65 -160q0 -96 -64 -159.5t-167 -63.5q-101 0 -166.5 61t-65.5 162zM145 212q0 -59 37 -99t92 -40q57 0 93.5 39.5t36.5 99.5t-36.5 100t-93.5 40q-55 0 -92 -41t-37 -99zM224 -102 q0 20 15.5 34t36.5 14q19 0 35 -14t16 -34q0 -21 -15.5 -34.5t-35.5 -13.5q-21 0 -36.5 13.5t-15.5 34.5z" />
<glyph unicode="&#x1ee4;" horiz-adv-x="735" d="M197 259q0 -70 49.5 -117.5t120.5 -47.5q74 0 123.5 47.5t49.5 117.5v466h103v-469q0 -118 -79 -191t-197 -73t-196.5 73t-78.5 191v469h105v-466zM308 -104q0 23 18 39t41 16q22 0 40 -16t18 -39q0 -24 -17.5 -39.5t-40.5 -15.5t-41 15.5t-18 39.5z" />
<glyph unicode="&#x1ee5;" horiz-adv-x="552" d="M213 -17q-58 0 -95 35t-39 90v310h101v-274q3 -72 73 -75q51 0 85 45t34 113v191h101v-418h-91l-6 77q-22 -42 -65.5 -68t-97.5 -26zM226 -102q0 20 15.5 34t36.5 14q19 0 35 -14t16 -34q0 -21 -15.5 -34.5t-35.5 -13.5q-21 0 -36.5 13.5t-15.5 34.5z" />
<glyph unicode="&#x1ee6;" horiz-adv-x="735" d="M361 808q44 32 44 59q0 35 -32 35q-26 0 -46 -30l-37 24q32 63 96 63q37 0 57 -22.5t20 -56.5q0 -56 -78 -103zM197 259q0 -70 49.5 -117.5t120.5 -47.5q74 0 123.5 47.5t49.5 117.5v466h103v-469q0 -118 -79 -191t-197 -73t-196.5 73t-78.5 191v469h105v-466z" />
<glyph unicode="&#x1ee7;" horiz-adv-x="552" d="M256 510q44 32 44 59q0 35 -32 35q-26 0 -46 -30l-37 24q32 63 96 63q37 0 57 -22.5t20 -56.5q0 -56 -78 -103zM213 -17q-58 0 -95 35t-39 90v310h101v-274q3 -72 73 -75q51 0 85 45t34 113v191h101v-418h-91l-6 77q-22 -42 -65.5 -68t-97.5 -26z" />
<glyph unicode="&#x1ee8;" horiz-adv-x="756" d="M527 904l-130 -134h-63l81 134h112zM197 259q0 -70 49.5 -117.5t120.5 -47.5q74 0 123.5 47.5t49.5 117.5v466h103v-47q29 4 42.5 23t18.5 63h75q-10 -82 -42.5 -114t-93.5 -35v-359q0 -118 -79 -191t-197 -73t-196.5 73t-78.5 191v469h105v-466z" />
<glyph unicode="&#x1ee9;" horiz-adv-x="563" d="M442 628l-130 -134h-63l81 134h112zM213 -17q-58 0 -95 35t-39 90v310h101v-274q3 -72 73 -75q51 0 85 45t34 113v191h44q41 0 62.5 22t27.5 70h76q-15 -124 -109 -147v-363h-91l-6 77q-22 -42 -65.5 -68t-97.5 -26z" />
<glyph unicode="&#x1eea;" horiz-adv-x="756" d="M212 910h111l71 -134h-63zM197 259q0 -70 49.5 -117.5t120.5 -47.5q74 0 123.5 47.5t49.5 117.5v466h103v-47q29 4 42.5 23t18.5 63h75q-10 -82 -42.5 -114t-93.5 -35v-359q0 -118 -79 -191t-197 -73t-196.5 73t-78.5 191v469h105v-466z" />
<glyph unicode="&#x1eeb;" horiz-adv-x="563" d="M128 634h111l71 -134h-63zM213 -17q-58 0 -95 35t-39 90v310h101v-274q3 -72 73 -75q51 0 85 45t34 113v191h44q41 0 62.5 22t27.5 70h76q-15 -124 -109 -147v-363h-91l-6 77q-22 -42 -65.5 -68t-97.5 -26z" />
<glyph unicode="&#x1eec;" horiz-adv-x="756" d="M361 808q44 32 44 59q0 35 -32 35q-26 0 -46 -30l-37 24q32 63 96 63q37 0 57 -22.5t20 -56.5q0 -56 -78 -103zM197 259q0 -70 49.5 -117.5t120.5 -47.5q74 0 123.5 47.5t49.5 117.5v466h103v-47q29 4 42.5 23t18.5 63h75q-10 -82 -42.5 -114t-93.5 -35v-359 q0 -118 -79 -191t-197 -73t-196.5 73t-78.5 191v469h105v-466z" />
<glyph unicode="&#x1eed;" horiz-adv-x="563" d="M256 510q44 32 44 59q0 35 -32 35q-26 0 -46 -30l-37 24q32 63 96 63q37 0 57 -22.5t20 -56.5q0 -56 -78 -103zM213 -17q-58 0 -95 35t-39 90v310h101v-274q3 -72 73 -75q51 0 85 45t34 113v191h44q41 0 62.5 22t27.5 70h76q-15 -124 -109 -147v-363h-91l-6 77 q-22 -42 -65.5 -68t-97.5 -26z" />
<glyph unicode="&#x1eee;" horiz-adv-x="756" d="M446 805q-8 0 -16 1.5t-13.5 2.5t-13 5t-11.5 6t-11 7.5t-9.5 7t-10 8t-8.5 7.5q-30 28 -49 28q-20 0 -30.5 -20.5t-8.5 -52.5h-55q-5 60 22.5 100.5t76.5 40.5q36 0 81 -43q35 -33 53 -33q37 0 35 76h55q7 -62 -18.5 -101.5t-68.5 -39.5zM197 259q0 -70 49.5 -117.5 t120.5 -47.5q74 0 123.5 47.5t49.5 117.5v466h103v-47q29 4 42.5 23t18.5 63h75q-10 -82 -42.5 -114t-93.5 -35v-359q0 -118 -79 -191t-197 -73t-196.5 73t-78.5 191v469h105v-466z" />
<glyph unicode="&#x1eef;" horiz-adv-x="563" d="M356 474q-8 0 -16 1.5t-13.5 2.5t-13 5t-11.5 6t-11 7.5t-9.5 7t-10 8t-8.5 7.5q-30 28 -49 28q-20 0 -30.5 -20.5t-8.5 -52.5h-55q-5 60 22.5 100.5t76.5 40.5q36 0 81 -43q35 -33 53 -33q37 0 35 76h55q7 -62 -18.5 -101.5t-68.5 -39.5zM213 -17q-58 0 -95 35t-39 90 v310h101v-274q3 -72 73 -75q51 0 85 45t34 113v191h44q41 0 62.5 22t27.5 70h76q-15 -124 -109 -147v-363h-91l-6 77q-22 -42 -65.5 -68t-97.5 -26z" />
<glyph unicode="&#x1ef0;" horiz-adv-x="756" d="M197 259q0 -70 49.5 -117.5t120.5 -47.5q74 0 123.5 47.5t49.5 117.5v466h103v-47q29 4 42.5 23t18.5 63h75q-10 -82 -42.5 -114t-93.5 -35v-359q0 -118 -79 -191t-197 -73t-196.5 73t-78.5 191v469h105v-466zM308 -104q0 23 18 39t41 16q22 0 40 -16t18 -39 q0 -24 -17.5 -39.5t-40.5 -15.5t-41 15.5t-18 39.5z" />
<glyph unicode="&#x1ef1;" horiz-adv-x="563" d="M213 -17q-58 0 -95 35t-39 90v310h101v-274q3 -72 73 -75q51 0 85 45t34 113v191h44q41 0 62.5 22t27.5 70h76q-15 -124 -109 -147v-363h-91l-6 77q-22 -42 -65.5 -68t-97.5 -26zM226 -102q0 20 15.5 34t36.5 14q19 0 35 -14t16 -34q0 -21 -15.5 -34.5t-35.5 -13.5 q-21 0 -36.5 13.5t-15.5 34.5z" />
<glyph unicode="&#x1ef2;" horiz-adv-x="696" d="M206 908h111l71 -134h-63zM294 239l-268 486h129l195 -366l192 366h128l-271 -486v-239h-105v239z" />
<glyph unicode="&#x1ef3;" horiz-adv-x="500" d="M107 620h111l71 -134h-63zM115 -201l96 215l-193 404h113l131 -289l128 289h93l-270 -619h-98z" />
<glyph unicode="&#x1ef4;" horiz-adv-x="696" d="M294 239l-268 486h129l195 -366l192 366h128l-271 -486v-239h-105v239zM288 -104q0 23 18 39t41 16q22 0 40 -16t18 -39q0 -24 -17.5 -39.5t-40.5 -15.5t-41 15.5t-18 39.5z" />
<glyph unicode="&#x1ef5;" horiz-adv-x="500" d="M115 -201l96 215l-193 404h113l131 -289l128 289h93l-270 -619h-98zM351 -109q0 20 15.5 34t36.5 14q19 0 35 -14t16 -34q0 -21 -15.5 -34.5t-35.5 -13.5q-21 0 -36.5 13.5t-15.5 34.5z" />
<glyph unicode="&#x1ef6;" horiz-adv-x="696" d="M355 806q44 32 44 59q0 35 -32 35q-26 0 -46 -30l-37 24q32 63 96 63q37 0 57 -22.5t20 -56.5q0 -56 -78 -103zM294 239l-268 486h129l195 -366l192 366h128l-271 -486v-239h-105v239z" />
<glyph unicode="&#x1ef7;" horiz-adv-x="500" d="M235 496q44 32 44 59q0 35 -32 35q-26 0 -46 -30l-37 24q32 63 96 63q37 0 57 -22.5t20 -56.5q0 -56 -78 -103zM115 -201l96 215l-193 404h113l131 -289l128 289h93l-270 -619h-98z" />
<glyph unicode="&#x1ef8;" horiz-adv-x="696" d="M440 803q-8 0 -16 1.5t-13.5 2.5t-13 5t-11.5 6t-11 7.5t-9.5 7t-10 8t-8.5 7.5q-30 28 -49 28q-20 0 -30.5 -20.5t-8.5 -52.5h-55q-5 60 22.5 100.5t76.5 40.5q36 0 81 -43q35 -33 53 -33q37 0 35 76h55q7 -62 -18.5 -101.5t-68.5 -39.5zM294 239l-268 486h129l195 -366 l192 366h128l-271 -486v-239h-105v239z" />
<glyph unicode="&#x1ef9;" horiz-adv-x="500" d="M336 460q-8 0 -16 1.5t-13.5 2.5t-13 5t-11.5 6t-11 7.5t-9.5 7t-10 8t-8.5 7.5q-30 28 -49 28q-20 0 -30.5 -20.5t-8.5 -52.5h-55q-5 60 22.5 100.5t76.5 40.5q36 0 81 -43q35 -33 53 -33q37 0 35 76h55q7 -62 -18.5 -101.5t-68.5 -39.5zM115 -201l96 215l-193 404h113 l131 -289l128 289h93l-270 -619h-98z" />
<glyph unicode="&#x2000;" horiz-adv-x="596" />
<glyph unicode="&#x2001;" horiz-adv-x="1192" />
<glyph unicode="&#x2002;" horiz-adv-x="596" />
<glyph unicode="&#x2003;" horiz-adv-x="1192" />
<glyph unicode="&#x2004;" horiz-adv-x="397" />
<glyph unicode="&#x2005;" horiz-adv-x="298" />
<glyph unicode="&#x2006;" horiz-adv-x="198" />
<glyph unicode="&#x2007;" horiz-adv-x="198" />
<glyph unicode="&#x2008;" horiz-adv-x="149" />
<glyph unicode="&#x2009;" horiz-adv-x="238" />
<glyph unicode="&#x200a;" horiz-adv-x="66" />
<glyph unicode="&#x2010;" horiz-adv-x="304" d="M54 261h186v-88h-186v88z" />
<glyph unicode="&#x2011;" horiz-adv-x="304" d="M54 261h186v-88h-186v88z" />
<glyph unicode="&#x2012;" horiz-adv-x="304" d="M54 261h186v-88h-186v88z" />
<glyph unicode="&#x2013;" horiz-adv-x="516" d="M102 257h304v-88h-304v88z" />
<glyph unicode="&#x2014;" horiz-adv-x="710" d="M101 257h508v-88h-508v88z" />
<glyph unicode="&#x2018;" horiz-adv-x="183" d="M102 734l52 -25q-23 -23 -35 -58t-6 -67l-79 -7q-10 48 10.5 90t57.5 67z" />
<glyph unicode="&#x2019;" horiz-adv-x="187" d="M152 721q8 -41 -13 -88.5t-55 -69.5l-52 25q23 21 35 56.5t5 69.5z" />
<glyph unicode="&#x201a;" horiz-adv-x="187" d="M152 75q8 -41 -13 -88.5t-55 -69.5l-52 25q23 21 35 56.5t5 69.5z" />
<glyph unicode="&#x201c;" horiz-adv-x="299" d="M233 734l52 -25q-23 -23 -35 -58t-6 -67l-79 -7q-10 48 10.5 90t57.5 67zM106 734l52 -25q-23 -23 -35 -58t-6 -67l-79 -7q-10 48 10.5 90t57.5 67z" />
<glyph unicode="&#x201d;" horiz-adv-x="297" d="M152 721q8 -41 -13 -88.5t-55 -69.5l-52 25q23 21 35 56.5t5 69.5zM273 721q8 -41 -13 -88.5t-55 -69.5l-52 25q23 21 35 56.5t5 69.5z" />
<glyph unicode="&#x201e;" horiz-adv-x="308" d="M152 78q8 -41 -13 -88.5t-55 -69.5l-52 25q23 21 35 56.5t5 69.5zM273 78q8 -41 -13 -88.5t-55 -69.5l-52 25q23 21 35 56.5t5 69.5z" />
<glyph unicode="&#x2020;" horiz-adv-x="300" d="M30 469h74v146h92v-146h73v-89h-73v-378h-92v378h-74v89z" />
<glyph unicode="&#x2021;" horiz-adv-x="304" d="M18 301h90v79h-74v89h74v146h91v-146h73v-89h-73v-79h86v-89h-86v-210h-91v210h-90v89z" />
<glyph unicode="&#x2022;" horiz-adv-x="485" d="M109 304q0 56 39 96t94 40q57 0 96.5 -40t39.5 -96t-39.5 -94.5t-96.5 -38.5q-55 0 -94 38.5t-39 94.5z" />
<glyph unicode="&#x2026;" horiz-adv-x="528" d="M31 56q0 23 17 40t39 17q20 0 37 -17t17 -40q0 -24 -16.5 -40t-37.5 -16q-22 0 -39 16t-17 40zM210 56q0 23 17 40t39 17q20 0 37.5 -17t17.5 -40q0 -24 -17 -40t-38 -16q-22 0 -39 16t-17 40zM390 56q0 24 17 40.5t39 16.5q20 0 37 -17t17 -40q0 -24 -16.5 -40 t-37.5 -16q-23 0 -39.5 15.5t-16.5 40.5z" />
<glyph unicode="&#x202f;" horiz-adv-x="238" />
<glyph unicode="&#x2030;" horiz-adv-x="1115" d="M665 620l-428 -622l-100 2l427 620h101zM204 271q-70 0 -108 47.5t-38 126.5q0 78 38 126t108 48q69 0 107 -48t38 -126t-38.5 -126t-106.5 -48zM147 445q0 -102 57 -102q55 0 55 102q0 101 -55 101q-57 0 -57 -101zM586 -18q-69 0 -107 47.5t-38 126.5q0 78 38 126 t107 48t107 -48t38 -126t-38.5 -126t-106.5 -48zM918 -18q-69 0 -107 47.5t-38 126.5q0 78 38 126t107 48t107 -48t38 -126t-38 -126t-107 -48zM529 156q0 -102 57 -102q56 0 56 102q0 101 -56 101q-57 0 -57 -101zM861 156q0 -102 57 -102q56 0 56 102q0 101 -56 101 q-57 0 -57 -101z" />
<glyph unicode="&#x2039;" horiz-adv-x="369" d="M46 242q9 8 114.5 95t114.5 96v-92q-1 -1 -51 -45.5t-58 -53.5q8 -8 55.5 -51t53.5 -49v-91z" />
<glyph unicode="&#x203a;" horiz-adv-x="362" d="M320 242l-229 -191v91q6 6 53.5 49t55.5 51q-8 9 -58 53.5t-51 45.5v92q9 -9 114.5 -96t114.5 -95z" />
<glyph unicode="&#x2044;" horiz-adv-x="569" d="M512 687l-407 -687h-95l407 687h95z" />
<glyph unicode="&#x205f;" horiz-adv-x="298" />
<glyph unicode="&#x2074;" horiz-adv-x="390" d="M342 448v-58h-45v-99h-87v99h-174l-1 26l200 263h62v-231h45zM135 448h75v99z" />
<glyph unicode="&#x20a1;" horiz-adv-x="695" d="M637 55q-97 -65 -215 -63q-14 0 -20 1l-19 -51h-92l24 65q-38 11 -61 23l-32 -88h-92l50 136q-58 50 -90 123t-32 156q0 164 101 270t257 106h6l22 59h92l-26 -70q32 -7 62 -20l33 91h91l-257 -700q89 5 153 56zM167 362q0 -103 54 -174l163 441q-92 -14 -154.5 -89 t-62.5 -178zM290 127q27 -16 60 -25l185 502q-31 15 -60 22z" />
<glyph unicode="&#x20a3;" horiz-adv-x="585" d="M37 191h66v534h434v-101h-330v-220h288v-100h-288v-113h77v-71h-77v-120h-104v120h-66v71z" />
<glyph unicode="&#x20a4;" horiz-adv-x="642" d="M405 294v-94h-143v-15q0 -66 -20 -84h192q34 0 49.5 10t15.5 33v41h91v-67q0 -118 -134 -118h-396v101h44q32 0 42.5 18t10.5 79v2h-68v94h68v56h-68v95h68v97q0 72 59.5 117.5t154.5 45.5q140 0 193 -103l-75 -52q-2 1 -12 13t-19 19t-32 14.5t-53 7.5q-111 0 -111 -100 v-59h143v-95h-143v-56h143zM262 184v1v-1z" />
<glyph unicode="&#x20a6;" horiz-adv-x="840" d="M438 412h195l-1 313h105v-313h85v-71h-85v-366h-3l-364 366h-162l1 -341h-106v341h-88v71h88v336h4l331 -337v1zM207 412h92l-92 93v-93zM507 341l127 -129l-1 129h-126z" />
<glyph unicode="&#x20a7;" horiz-adv-x="629" d="M301 725q111 0 177.5 -51.5t76.5 -144.5h61v-72h-62q-12 -85 -71 -141t-169 -56h-107v-260h-104v457h-79v72h79v196h198zM313 362q73 0 106.5 42.5t33.5 89.5q0 50 -32 90t-103 40h-111v-262h106z" />
<glyph unicode="&#x20a9;" horiz-adv-x="1010" d="M65 455h76l-102 266h122l94 -266h180l30 76l-75 190h105l104 -266h170l90 266h112l-100 -266h87v-72h-114l-157 -415l-164 415h-14l-181 -417l-160 417h-103v72zM281 383l60 -171l66 171h-126zM627 383l63 -160l54 160h-117z" />
<glyph unicode="&#x20ab;" horiz-adv-x="622" d="M272 136q-87 0 -143.5 62t-56.5 163t60 161t152 60q43 0 83.5 -19t65.5 -51v138h-102v71h102v62h101v-62h53v-71h-53v-504h-101v61q-63 -71 -161 -71zM304 221q49 0 83.5 27t45.5 74v83q-11 42 -47 69t-82 27q-54 0 -91.5 -39t-37.5 -100q0 -59 38 -100t91 -41zM90 71 h466v-71h-466v71z" />
<glyph unicode="&#x20ac;" horiz-adv-x="751" d="M59 326h57q-1 10 -1 31q0 19 1 28h-58v83h71q31 120 124 192.5t220 72.5q116 0 211 -59l-42 -98q-84 56 -166 56q-76 0 -139 -45t-93 -119h184v-83h-203q-1 -8 -1 -23q0 -12 2 -36h202v-83h-181q29 -70 90 -110t144 -40q98 0 168 56l45 -94q-97 -65 -215 -63 q-132 1 -223.5 70.5t-124.5 180.5h-72v83z" />
<glyph unicode="&#x20ad;" horiz-adv-x="694" d="M35 440h82v285h106v-285h27l270 285h136l-272 -285h188v-101h-161l259 -339h-133l-254 339h-10l-51 -49l1 -290h-106v339h-82v101z" />
<glyph unicode="&#x20b1;" horiz-adv-x="619" d="M301 725q92 0 154 -35.5t87 -101.5h69v-71h-55q1 -6 1 -20q0 -21 -3 -40h57v-71h-77q-57 -126 -220 -126h-107v-260h-104v386h-88v71h88v60h-88v71h88v137h198zM313 362q73 0 106.5 42.5t33.5 89.5q0 50 -32 90t-103 40h-111v-262h106z" />
<glyph unicode="&#x20b2;" horiz-adv-x="753" d="M674 64q-30 -25 -98 -47.5t-128 -24.5v-119h-92v126q-137 23 -217.5 118t-80.5 230q0 157 83.5 256.5t214.5 123.5v91h92v-85q111 -4 197 -53l-35 -97q-30 17 -77 30.5t-85 14.5v-269h226v-295zM166 356q0 -94 51 -160.5t139 -89.5v512q-89 -23 -139.5 -91.5 t-50.5 -170.5zM568 258h-120v-162q76 2 120 28v134z" />
<glyph unicode="&#x20b5;" horiz-adv-x="695" d="M637 55q-83 -56 -188 -62v-119h-92v124q-137 22 -218 122.5t-81 236.5q0 147 83 249.5t216 122.5v90h92v-87q96 -8 178 -58l-42 -98q-68 46 -136 54v-536q83 7 143 55zM167 362q0 -99 51 -169.5t139 -91.5v523q-82 -23 -136 -95.5t-54 -166.5z" />
<glyph unicode="&#x20b9;" horiz-adv-x="541" d="M99 261v101h84q108 0 135 88h-216v88h215q-13 37 -44.5 61.5t-82.5 24.5h-91v101h406v-101h-115q30 -33 39 -86h79v-88h-80q-18 -116 -115 -163l180 -287h-121l-168 261h-19h-86z" />
<glyph unicode="&#x20ba;" horiz-adv-x="664" d="M440 453l41 -64l-212 -118v-169q109 2 167.5 37t58.5 116q0 19 -3 39l109 27q6 -42 6 -68q-3 -131 -96 -192t-242 -61h-104v213l-59 -33l-41 64l100 56v66l-103 -57l-41 64l144 80v272h104v-215l126 70l41 -64l-167 -92v-66z" />
<glyph unicode="&#x20bc;" horiz-adv-x="756" d="M549 464q0 58 -35 101.5t-90 57.5v-623h-91v624q-57 -14 -92 -58t-35 -102v-467h-103v470q0 105 64.5 175.5t165.5 85.5v103h91v-103q101 -14 165.5 -85t64.5 -176v-470h-105v467z" />
<glyph unicode="&#x20bd;" horiz-adv-x="596" d="M15 188h88v75h-88v93h88v369h198q120 0 188 -60t68 -168q0 -45 -13.5 -86t-41 -75.5t-76 -55t-112.5 -20.5h-107v-72h97v-93h-97v-95h-104v95h-88v93zM313 362q73 0 106.5 42.5t33.5 89.5q0 50 -32 90t-103 40h-111v-262h106z" />
<glyph unicode="&#x2116;" horiz-adv-x="1326" d="M734 -25l-528 527l2 -502h-105v748h4l528 -534l-2 511h104v-750h-3zM820 512q0 95 66 158.5t168 63.5t165.5 -63t63.5 -159t-64 -159.5t-167 -63.5q-101 0 -166.5 61t-65.5 162zM922 511q0 -59 37 -99t92 -40q57 0 93.5 39.5t36.5 99.5t-36.5 100t-93.5 40q-55 0 -92 -41 t-37 -99zM863 234h394v-89h-394v89z" />
<glyph unicode="&#x2122;" horiz-adv-x="578" d="M393 493l-68 92v-120h-61v270l129 -149l130 149v-270h-65v118zM43 724h180v-59h-57v-200h-67v200h-56v59z" />
<glyph unicode="&#x2126;" horiz-adv-x="833" d="M153 88h124q-116 71 -116 237q0 138 75 211.5t194 73.5q137 0 208.5 -85.5t65.5 -216.5q-6 -150 -109 -220h115v-88h-218v88q55 24 87.5 82.5t32.5 135.5q0 90 -43 153t-135 63q-49 0 -86 -19.5t-57 -52t-29.5 -67.5t-9.5 -72q-1 -79 35.5 -138t94.5 -85v-88h-229v88z " />
<glyph unicode="&#x2206;" horiz-adv-x="508" d="M236 739l170 -481h-339zM236 573l-87 -262h175z" />
<glyph unicode="&#x220f;" horiz-adv-x="739" d="M204 760h297v-838h-90v751h-117v-751h-90v838z" />
<glyph unicode="&#x2211;" horiz-adv-x="556" d="M77 760h406l-28 -87h-258l93 -335l-93 -335h258l28 -87h-406l115 422z" />
<glyph unicode="&#x2212;" horiz-adv-x="624" d="M83 250h365v-88h-365v88z" />
<glyph unicode="&#x2215;" horiz-adv-x="390" d="M390 746q-47 -128 -140.5 -382.5t-140.5 -382.5h-92q42 113 89 240.5t104.5 283.5t88.5 241h91z" />
<glyph unicode="&#x2219;" horiz-adv-x="222" d="M111 236q-35 0 -59 24t-24 59t24 59t59 24t59 -24t24 -59t-24 -59t-59 -24z" />
<glyph unicode="&#x221a;" horiz-adv-x="564" d="M450 615h64l-278 -619l-138 302h-81l1 53h120l98 -216z" />
<glyph unicode="&#x221e;" horiz-adv-x="469" d="M430 308q0 -35 -25.5 -63.5t-74.5 -28.5q-57 0 -95 36q-39 -36 -97 -36q-48 0 -74.5 28.5t-26.5 63.5q0 34 26.5 62t74.5 28q57 0 97 -35q40 35 96 35q48 0 73.5 -28t25.5 -62zM208 306q0 17 -21 27.5t-48 10.5q-47 0 -47 -37t47 -37q26 0 47.5 10.5t21.5 25.5zM262 306 q0 -16 21.5 -26t46.5 -10q47 0 47 37t-47 37q-27 0 -47.5 -10.5t-20.5 -27.5z" />
<glyph unicode="&#x222b;" horiz-adv-x="385" d="M256 668q-32 0 -42.5 -19.5t-10.5 -83.5v-600q0 -42 -8 -67t-27 -35t-33 -12t-44 -2h-5.5h-4.5h-66v88h43q32 0 42.5 19.5t10.5 84.5v596q0 29 3.5 50t12.5 34t16.5 20.5t24 10.5t26 3.5t30.5 0.5h10h66v-88h-44z" />
<glyph unicode="&#x2248;" horiz-adv-x="463" d="M292 281q-23 0 -45.5 9.5t-30.5 16.5t-30 25q-34 32 -56 32t-34 -23t-10 -60h-63q-5 68 26.5 114.5t86.5 46.5q39 0 92 -49q40 -38 61 -38q41 0 39 87h63q8 -71 -21.5 -116t-77.5 -45zM291 92q-23 0 -45.5 9.5t-30.5 16.5t-30 25q-34 32 -56 32t-34 -23t-10 -60h-63 q-5 68 26.5 114.5t86.5 46.5q39 0 92 -49q40 -38 61 -38q41 0 39 87h63q8 -71 -21.5 -116t-77.5 -45z" />
<glyph unicode="&#x2260;" horiz-adv-x="718" d="M102 198h143q62 72 93 109h-236v88h312q111 130 127 149l50 -47q-13 -15 -42 -49t-45 -53h110v-88h-185q-16 -18 -47 -54.5t-46 -54.5h278v-88h-353q-67 -77 -108 -126l-52 46q2 3 69 80h-68v88z" />
<glyph unicode="&#x2264;" horiz-adv-x="556" d="M470 217l-443 256l443 255v-109l-249 -148l249 -144v-110zM66 147h393v-89h-393v89z" />
<glyph unicode="&#x2265;" horiz-adv-x="556" d="M75 728l443 -255l-443 -256v110l262 142l-262 150v109zM74 147h406v-89h-406v89z" />
<glyph unicode="&#x25ca;" horiz-adv-x="464" d="M236 739l170 -371l-170 -372l-169 372zM236 601l-105 -233l105 -233l106 233z" />
<glyph unicode="&#x25cc;" horiz-adv-x="585" d="M292 424q-15 0 -24.5 10t-9.5 28q0 17 9.5 26.5t24.5 9.5q16 0 26 -9.5t10 -26.5q0 -18 -10 -28t-26 -10zM186 398q-15 0 -24.5 10t-9.5 26q0 37 34 37q16 0 26 -9.5t10 -27.5q0 -16 -10 -26t-26 -10zM398 397q-14 0 -24 10.5t-10 26.5q0 17 10 27t24 10q16 0 26 -10 t10 -27t-10 -27t-26 -10zM108 316q-14 0 -24 10.5t-10 27.5t10 26.5t24 9.5q36 0 36 -36q0 -38 -36 -38zM477 316q-15 0 -25 10t-10 27t10 26.5t25 9.5t25 -9.5t10 -26.5q0 -37 -35 -37zM80 206q-14 0 -24 10t-10 27t10 26.5t24 9.5q37 0 37 -36q0 -17 -10 -27t-27 -10z M504 206q-15 0 -25 10t-10 27q0 36 35 36q15 0 25.5 -9.5t10.5 -26.5t-10 -27t-26 -10zM108 97q-14 0 -24 10t-10 26q0 17 10 27.5t24 10.5q16 0 26 -10t10 -28q0 -17 -10 -26.5t-26 -9.5zM477 97q-15 0 -25 10t-10 26q0 17 10 27.5t25 10.5t25 -10t10 -28q0 -36 -35 -36z M186 15q-15 0 -24.5 10t-9.5 28q0 17 9.5 26t24.5 9q16 0 26 -9t10 -26q0 -38 -36 -38zM398 15q-14 0 -24 10t-10 28q0 16 10 25.5t24 9.5q16 0 26 -9t10 -26q0 -38 -36 -38zM292 -12q-15 0 -24.5 10t-9.5 27t9.5 26.5t24.5 9.5q16 0 26 -9.5t10 -26.5q0 -18 -10 -27.5 t-26 -9.5z" />
<glyph unicode="&#x25fc;" horiz-adv-x="420" d="M0 420h420v-420h-420v420z" />
<glyph horiz-adv-x="220" d="M125 800v-720q0 -31 38 -33t57 11q-8 -27 -39.5 -44.5t-66 -18.5t-62 21t-27.5 64v698z" />
<glyph horiz-adv-x="313" d="M125 800v-700q0 -24 23.5 -40t68.5 -14.5t96 26.5q-24 -39 -73 -59.5t-96.5 -19t-83 29.5t-35.5 77v678z" />
<glyph horiz-adv-x="418" d="M125 800v-680q0 -56 100 -61t193 42q-29 -40 -94.5 -69.5t-131.5 -36.5t-116.5 24t-50.5 101v658z" />
<glyph horiz-adv-x="175" d="M150 80q0 -42 -31 -66t-67.5 -20.5t-51.5 31.5l4 -1h9t9.5 0.5t10 4.5t8.5 9.5t6.5 16.5t2.5 25v698l100 22v-720z" />
<glyph horiz-adv-x="225" d="M125 800v-700h120v-100h-180q-40 -2 -40 23v755z" />
<glyph horiz-adv-x="850" d="M825 300v-277q0 -11 -10 -17t-20 -6h-10h-760l60 100h640v178z" />
<glyph horiz-adv-x="925" d="M825 300v-200h120v-100h-920l60 100h640v178z" />
<glyph horiz-adv-x="225" d="M200 300v-277q0 -11 -10 -17t-20 -6h-10h-180v100h120v178z" />
<glyph horiz-adv-x="300" d="M200 300v-200h120v-100h-340v100h120v178z" />
<glyph horiz-adv-x="400" d="M300 300v-200h120v-100h-440v100h220v178z" />
<glyph horiz-adv-x="515" d="M25 -60q0 56 25 88t68 57q-21 14 -48 47t-45 61l56 107q55 -87 118 -143.5t112 -56.5h179l-60 -100h-232q-22 0 -47 -22t-25 -50q0 -38 29 -60t70 -26.5t80 -1t66 12.5q-34 -40 -108.5 -55.5t-130.5 2.5q-45 14 -76 51.5t-31 88.5z" />
<glyph horiz-adv-x="430" d="M182 100h29l-89 159h-45l-50 100h167l145 -259h111v-100h-56l69 -123l-83 -77l-112 200h-86q-24 0 -47.5 -19t-23.5 -53q0 -38 19.5 -63t49 -33t60 -7.5t56.5 8.5q-45 -32 -109 -34.5t-112 31.5q-50 38 -50 113q0 29 7 54.5t23 50t48.5 38.5t78.5 14z" />
<glyph horiz-adv-x="430" d="M182 100h29l-75 135l84 78l119 -213h111v-100h-56l69 -123l-83 -77l-112 200h-86q-24 0 -47.5 -19t-23.5 -53q0 -38 19.5 -63t49 -33t60 -7.5t56.5 8.5q-45 -32 -109 -34.5t-112 31.5q-50 38 -50 113q0 29 7 54.5t23 50t48.5 38.5t78.5 14z" />
<glyph horiz-adv-x="378" d="M-20 100h179l-89 159h-45l-50 100h167l145 -259h111v-100h-56l69 -123l-83 -77l-112 200h-236v100z" />
<glyph horiz-adv-x="378" d="M-20 100h179l-75 135l84 78l119 -213h111v-100h-56l69 -123l-83 -77l-112 200h-236v100z" />
<glyph horiz-adv-x="480" d="M-40 100h216q-14 10 -28 33t-26.5 59t-3 85.5t44.5 99.5l116 165q32 47 23 93t-54 68q-34 18 -80.5 11t-86.5 -40l-40 134q42 -13 79 -8q136 18 214 -47q57 -48 62.5 -123.5t-43.5 -146.5l-117 -168q-17 -25 -20.5 -55t7.5 -57.5t33 -51t58 -37.5t80 -14h126v-100h-560 v100z" />
<glyph horiz-adv-x="685" d="M173 100q-19 11 -41.5 36t-36.5 47l56 107q54 -86 124.5 -138t140.5 -52h244l-60 -100h-620v100h193z" />
<glyph horiz-adv-x="565" d="M-20 100h216q-14 10 -28 33t-26.5 59t-3 85.5t44.5 99.5l116 165q32 47 23 93t-54 68q-34 18 -80.5 11t-86.5 -40l-40 134q42 -13 79 -8q136 18 214 -47q57 -48 62.5 -123.5t-43.5 -146.5l-117 -168q-17 -25 -20.5 -55t7.5 -57.5t33 -51t58 -37.5t80 -14h126l-60 -100 h-500v100z" />
<glyph d="M-265 300q0 -173 -163 -137q-5 2 -7 2q21 3 34.5 11t20.5 17t10.5 27.5t4 30t0.5 37.5v12v78l100 22v-100z" />
<glyph d="M-265 300q0 -173 -163 -137q-5 2 -7 2q21 3 34.5 11t20.5 17t10.5 27.5t4 30t0.5 37.5v12v478l100 22v-500z" />
<glyph horiz-adv-x="870" d="M277 413l-52 -113h430q40 0 71 -8t51 -22t34 -33t20.5 -41t10.5 -47t3.5 -50t-0.5 -50v-26q0 -11 -10 -17t-20 -6h-10h-780l60 100h660q1 47 -18.5 73.5t-71.5 26.5h-520l132 220z" />
<glyph horiz-adv-x="920" d="M940 100v-100h-915l60 100h635q1 47 -18.5 73.5t-71.5 26.5h-495l132 220l10 -7l-52 -113h405q59 0 98 -16t58 -47t26 -62t8 -75h120z" />
<glyph horiz-adv-x="225" d="M200 -60q0 -63 -35.5 -101.5t-82.5 -46t-95 7.5t-72 50q103 -28 144 -0.5t41 80.5v348l100 22v-360z" />
<glyph horiz-adv-x="300" d="M200 -60q0 -63 -35.5 -101.5t-82.5 -46t-95 7.5t-72 50q103 -28 144 -0.5t41 80.5v348l100 22v-200h120v-100h-120v-60z" />
<glyph horiz-adv-x="870" d="M445 0q-1 -88 -60.5 -144t-168.5 -56q-46 0 -82 15t-56 37t-32.5 51t-16.5 52t-4 45q0 62 37 118t89 89q5 -39 -20 -72q16 -8 24.5 -24.5t4.5 -33.5q-27 15 -49 13q-27 -3 -41.5 -30t-14.5 -60q0 -143 161 -143q72 0 100.5 46.5t28.5 136.5v238l100 22v-200h100v178 l100 22v-200h100v178l100 22v-277q0 -11 -10 -17t-20 -6h-10h-360z" />
<glyph horiz-adv-x="945" d="M445 0q-1 -88 -60.5 -144t-168.5 -56q-46 0 -82 15t-56 37t-32.5 51t-16.5 52t-4 45q0 62 37 118t89 89q5 -39 -20 -72q16 -8 24.5 -24.5t4.5 -33.5q-27 15 -49 13q-27 -3 -41.5 -30t-14.5 -60q0 -143 161 -143q72 0 100.5 46.5t28.5 136.5v288l100 22v-250h100v228 l100 22v-250h100v228l100 22v-250h120v-100h-520z" />
<glyph horiz-adv-x="625" d="M600 300v-277q0 -11 -10 -17t-20 -6h-10h-580v100h120v178l100 22v-200h100v178l100 22v-200h100v178z" />
<glyph horiz-adv-x="700" d="M720 100v-100h-740v100h120v178l100 22v-200h100v228l100 22v-250h100v278l100 22v-300h120z" />
<glyph horiz-adv-x="1170" d="M445 0q-1 -88 -60.5 -144t-168.5 -56q-46 0 -82 15t-56 37t-32.5 51t-16.5 52t-4 45q0 62 37 118t89 89q5 -39 -20 -72q16 -8 24.5 -24.5t4.5 -33.5q-27 15 -49 13q-27 -3 -41.5 -30t-14.5 -60q0 -143 161 -143q72 0 100.5 46.5t28.5 136.5v338l100 22v-100h510 q40 0 71 -8t51 -22t34 -33t20.5 -41t10.5 -47t3.5 -50t-0.5 -50v-26q0 -11 -10 -17t-20 -6h-10h-660zM955 200h-510v-100h600q1 47 -18.5 73.5t-71.5 26.5z" />
<glyph horiz-adv-x="1245" d="M445 0q-1 -88 -60.5 -144t-168.5 -56q-46 0 -82 15t-56 37t-32.5 51t-16.5 52t-4 45q0 62 37 118t89 89q5 -39 -20 -72q16 -8 24.5 -24.5t4.5 -33.5q-27 15 -49 13q-27 -3 -41.5 -30t-14.5 -60q0 -143 161 -143q72 0 100.5 46.5t28.5 136.5v338l100 22v-100h510 q59 0 98 -16t58 -47t26 -62.5t8 -74.5h120v-100h-156h-4h-660zM955 200h-510v-100h600q1 47 -18.5 73.5t-71.5 26.5z" />
<glyph horiz-adv-x="1015" d="M1035 100v-100h-156h-4h-895v100h135v278l100 22v-100h510q59 0 98 -16t58 -47t26 -62.5t8 -74.5h120zM725 200h-510v-100h600q1 47 -18.5 73.5t-71.5 26.5z" />
<glyph horiz-adv-x="940" d="M915 23q0 -11 -10 -17t-20 -6h-10h-895v100h135v278l100 22v-100h510q40 0 71 -8t51 -22t34 -33t20.5 -41t10.5 -47t3.5 -50t-0.5 -50v-26zM725 200h-510v-100h600q1 47 -18.5 73.5t-71.5 26.5z" />
<glyph horiz-adv-x="1010" d="M985 23q0 -11 -10 -17t-20 -6h-10h-920l60 100h100v678l100 22v-500h510q40 0 71 -8t51 -22t34 -33t20.5 -41t10.5 -47t3.5 -50t-0.5 -50v-26zM795 200h-510v-100h600q1 47 -18.5 73.5t-71.5 26.5z" />
<glyph horiz-adv-x="1085" d="M1105 100v-100h-156h-4h-920l60 100h100v678l100 22v-500h510q59 0 98 -16t58 -47t26 -62.5t8 -74.5h120zM795 200h-510v-100h600q1 47 -18.5 73.5t-71.5 26.5z" />
<glyph horiz-adv-x="1015" d="M1035 100v-100h-156h-4h-925v100h165v678l100 22v-500h510q59 0 98 -16t58 -47t26 -62.5t8 -74.5h120zM725 200h-510v-100h600q1 47 -18.5 73.5t-71.5 26.5z" />
<glyph horiz-adv-x="940" d="M-60 0v100h175v678l100 22v-500h510q40 0 71 -8t51 -22t34 -33t20.5 -41t10.5 -47t3.5 -50t-0.5 -50v-26q0 -11 -10 -17t-20 -6h-10h-935zM725 200h-510v-100h600q1 47 -18.5 73.5t-71.5 26.5z" />
<glyph horiz-adv-x="370" d="M25 -60q0 57 45 102q-36 30 -44 75.5t7.5 85.5t49.5 68.5t76 28.5q37 0 67.5 -20t46.5 -56q-45 39 -93 30q-25 -4 -43 -24.5t-18 -45.5q0 -36 28 -60t61 -24h132l-60 -100h-82q-22 0 -47 -22t-25 -50q0 -38 28.5 -60t69.5 -26.5t80 -1t66 12.5q-34 -40 -108 -55.5 t-130 2.5q-45 14 -76 51.5t-31 88.5z" />
<glyph horiz-adv-x="430" d="M171 100h17l-159 173l66 91l130 -142v156l100 22v-286l7 -8l-6 -6h124v-100h-252q-22 0 -47 -22t-25 -50q0 -38 29 -60t70 -26.5t80 -1t66 12.5q-34 -40 -108.5 -55.5t-130.5 2.5q-45 14 -76 51.5t-31 88.5q0 68 37.5 114t108.5 46z" />
<glyph horiz-adv-x="490" d="M171 100h30l-170 300h459l-171 -300h191v-100h-312q-22 0 -47 -22t-25 -50q0 -38 29 -60t70 -26.5t80 -1t66 12.5q-34 -40 -108.5 -55.5t-130.5 2.5q-45 14 -76 51.5t-31 88.5q0 68 37.5 114t108.5 46zM318 300h-116l58 -102z" />
<glyph horiz-adv-x="350" d="M-20 100h138l-159 173l66 91l130 -142v156l100 22v-286l7 -8l-6 -6h114v-100h-390v100z" />
<glyph horiz-adv-x="460" d="M-20 100h190l-170 300h460l-172 -300h192v-100h-500v100zM287 300h-116l58 -102z" />
<glyph horiz-adv-x="535" d="M96 100q-20 11 -24 40.5t6 42.5q44 69 228 128l7 -9q-113 -52 -134 -102q-5 -13 -3 -29t11 -25q14 -14 22 -21.5t25.5 -16t35.5 -8.5h240l-60 -100h-470v100h116z" />
<glyph horiz-adv-x="850" d="M528 300q0 62 43.5 106t104.5 44q62 0 105.5 -44t43.5 -106v-277q0 -11 -10 -17t-20 -6h-10h-760l60 100h640v58q-24 -8 -49 -8q-61 0 -104.5 44t-43.5 106zM625 300q0 -21 15 -36t36 -15t36.5 15t15.5 36t-15.5 36t-36.5 15t-36 -15t-15 -36z" />
<glyph horiz-adv-x="925" d="M528 300q0 62 43.5 106t104.5 44q62 0 105.5 -44t43.5 -106v-200h120v-100h-920l60 100h640v58q-24 -8 -49 -8q-61 0 -104.5 44t-43.5 106zM625 300q0 -21 15 -36t36 -15t36.5 15t15.5 36t-15.5 36t-36.5 15t-36 -15t-15 -36z" />
<glyph horiz-adv-x="500" d="M103 300q0 62 43.5 106t104.5 44q62 0 105.5 -44t43.5 -106v-200h120v-100h-540v100h320v58q-24 -8 -49 -8q-61 0 -104.5 44t-43.5 106zM200 300q0 -21 15 -36t36 -15t36.5 15t15.5 36t-15.5 36t-36.5 15t-36 -15t-15 -36z" />
<glyph horiz-adv-x="425" d="M103 300q0 62 43.5 106t104.5 44q62 0 105.5 -44t43.5 -106v-277q0 -11 -10 -17t-20 -6h-10h-380v100h320v58q-24 -8 -49 -8q-61 0 -104.5 44t-43.5 106zM200 300q0 -21 15 -36t36 -15t36.5 15t15.5 36t-15.5 36t-36.5 15t-36 -15t-15 -36z" />
<glyph horiz-adv-x="515" d="M193 150q0 62 43.5 106t105.5 44q61 0 104.5 -44t43.5 -106v-100q0 -24 -3 -49t-17 -66.5t-38 -72t-72.5 -54t-113.5 -23.5q-106 0 -163.5 65.5t-57.5 144.5q0 130 82 203q6 -48 -13 -73q13 1 28 -8.5t20 -33.5q-39 6 -59 -7q-28 -18 -28 -81q0 -60 51 -101.5t140 -41.5 q76 0 110 37t34 119q-24 -8 -48 -8q-62 0 -105.5 44t-43.5 106zM292 150q0 -21 14.5 -35.5t35.5 -14.5t35.5 14.5t14.5 35.5t-14.5 35.5t-35.5 14.5t-35.5 -14.5t-14.5 -35.5z" />
<glyph horiz-adv-x="600" d="M193 150q0 62 43.5 106t105.5 44q61 0 104.5 -44t43.5 -106v-50h130v-100h-133q-4 -28 -12 -54t-25.5 -56.5t-42.5 -52.5t-67 -37t-94 -15q-106 0 -163.5 65.5t-57.5 144.5q0 130 82 203q6 -48 -13 -73q13 1 28 -8.5t20 -33.5q-39 6 -59 -7q-28 -18 -28 -81 q0 -60 51 -101.5t140 -41.5q74 0 108 35t36 113h-48q-62 0 -105.5 44t-43.5 106zM292 150q0 -21 14.5 -35.5t35.5 -14.5t35.5 14.5t14.5 35.5t-14.5 35.5t-35.5 14.5t-35.5 -14.5t-14.5 -35.5z" />
<glyph horiz-adv-x="1010" d="M265 300l321 316v-165q-11 20 -26 5l-160 -156h395q40 0 71 -8t51 -22t34 -33t20.5 -41t10.5 -47t3.5 -50t-0.5 -50v-26q0 -11 -10 -17t-20 -6h-10h-920l60 100h800q1 47 -18.5 73.5t-71.5 26.5h-630z" />
<glyph horiz-adv-x="1085" d="M265 300l321 316v-165q-11 20 -26 5l-160 -156h395q59 0 98 -16t58 -47t26 -62.5t8 -74.5h120v-100h-156h-4h-920l60 100h800q1 47 -18.5 73.5t-71.5 26.5h-630z" />
<glyph horiz-adv-x="965" d="M85 200v578l100 22v-500h490q59 0 98 -16t58 -47t26 -62t8 -75h120v-100h-960l60 100h680q1 47 -18.5 73.5t-71.5 26.5h-590z" />
<glyph horiz-adv-x="985" d="M165 300l321 316v-165q-11 20 -26 5l-160 -156h395q59 0 98 -16t58 -47t26 -62.5t8 -74.5h120v-100h-156h-4h-920l60 100h800q1 47 -18.5 73.5t-71.5 26.5h-630z" />
<glyph horiz-adv-x="985" d="M345 561q18 26 11 64t-33 60q-39 33 -106 25q-29 -4 -68 -36l-44 149q44 -14 79 -9q137 25 210 -46q61 -58 69.5 -136t-38.5 -149l-127 -183h377q59 0 98 -16t58 -47t26 -62t8 -75h140v-100h-1025v100h785q1 47 -18.5 73.5t-71.5 26.5h-581z" />
<glyph horiz-adv-x="910" d="M165 300l321 316v-165q-11 20 -26 5l-160 -156h395q40 0 71 -8t51 -22t34 -33t20.5 -41t10.5 -47t3.5 -50t-0.5 -50v-26q0 -11 -10 -17t-20 -6h-10h-920l60 100h800q1 47 -18.5 73.5t-71.5 26.5h-630z" />
<glyph horiz-adv-x="940" d="M115 200v578l100 22v-500h510q40 0 71 -8t51 -22t34 -33t20.5 -41t10.5 -47t3.5 -50t-0.5 -50v-26q0 -11 -10 -17t-20 -6h-10h-895v100h835q1 47 -18.5 73.5t-71.5 26.5h-610z" />
<glyph horiz-adv-x="470" d="M445 0q0 -88 -60 -144t-169 -56q-46 0 -82 15t-56 37t-32.5 51t-16.5 52t-4 45q0 62 37 118t89 89q5 -39 -20 -72q16 -8 24.5 -24.5t4.5 -33.5q-27 15 -49 13q-27 -3 -41.5 -30t-14.5 -60q0 -143 161 -143q72 0 100.5 46.5t28.5 136.5v738l100 22v-800z" />
<glyph horiz-adv-x="300" d="M200 800v-700h120v-100h-340v100h120v678z" />
<glyph horiz-adv-x="225" d="M200 800v-777q0 -11 -10 -17t-20 -6h-10h-180v100h120v678z" />
<glyph horiz-adv-x="545" d="M445 0q0 -88 -60 -144t-169 -56q-46 0 -82 15t-56 37t-32.5 51t-16.5 52t-4 45q0 62 37 118t89 89q5 -39 -20 -72q16 -8 24.5 -24.5t4.5 -33.5q-27 15 -49 13q-27 -3 -41.5 -30t-14.5 -60q0 -143 161 -143q72 0 100.5 46.5t28.5 136.5v738l100 22v-700h120v-100h-120z " />
<glyph horiz-adv-x="613" d="M291 150q0 59 40.5 102.5t98.5 47.5q7 25 29 49q129 -81 129 -199q0 -62 -43.5 -106t-104.5 -44h-415l84 140q9 -19 28.5 -29.5t39.5 -10.5h122q-8 26 -8 50zM390 150q0 -21 14.5 -35.5t35.5 -14.5t35.5 14.5t14.5 35.5t-14.5 35.5t-35.5 14.5t-35.5 -14.5t-14.5 -35.5z " />
<glyph horiz-adv-x="347" d="M25 150q0 59 40.5 102.5t98.5 47.5q7 25 29 49q129 -81 129 -199q0 -62 -43.5 -106t-104.5 -44q-25 0 -49 8v-108q0 -32 -19.5 -57.5t-47 -37t-58 -9t-50.5 22.5q7 0 22.5 6t34 26t18.5 49v250zM124 150q0 -21 14.5 -35.5t35.5 -14.5t35.5 14.5t14.5 35.5t-14.5 35.5 t-35.5 14.5t-35.5 -14.5t-14.5 -35.5z" />
<glyph horiz-adv-x="435" d="M113 150q0 59 40.5 102.5t98.5 47.5q7 25 29 49q129 -81 129 -199q0 -62 -43.5 -106t-104.5 -44h-237v10q31 8 51 25t27 41.5t8.5 38.5t1.5 35zM212 150q0 -21 14.5 -35.5t35.5 -14.5t35.5 14.5t14.5 35.5t-14.5 35.5t-35.5 14.5t-35.5 -14.5t-14.5 -35.5z" />
<glyph horiz-adv-x="685" d="M291 150q0 50 30 90t76 54q31 9 43 56q12 -45 45 -57q45 -14 74 -53.5t29 -89.5q0 -24 -8 -50h125v-100h-680l84 140q9 -19 28.5 -29.5t39.5 -10.5h122q-8 26 -8 50zM390 150q0 -21 14.5 -35.5t35.5 -14.5t35.5 14.5t14.5 35.5t-14.5 35.5t-35.5 14.5t-35.5 -14.5 t-14.5 -35.5z" />
<glyph horiz-adv-x="419" d="M25 150q0 50 30 90t76 54q31 9 43 56q12 -45 45 -57q45 -14 74 -53.5t29 -89.5q0 -24 -8 -50h125v-100h-265q-25 0 -49 8v-108q0 -32 -19.5 -57.5t-47 -37t-58 -9t-50.5 22.5q7 0 22.5 6t34 26t18.5 49v250zM124 150q0 -21 14.5 -35.5t35.5 -14.5t35.5 14.5t14.5 35.5 t-14.5 35.5t-35.5 14.5t-35.5 -14.5t-14.5 -35.5z" />
<glyph horiz-adv-x="507" d="M113 150q0 50 30 90t76 54q31 9 43 56q12 -45 45 -57q45 -14 74 -53.5t29 -89.5q0 -24 -8 -50h125v-100h-502v10q31 8 51 25t27 41.5t8.5 38.5t1.5 35zM212 150q0 -21 14.5 -35.5t35.5 -14.5t35.5 14.5t14.5 35.5t-14.5 35.5t-35.5 14.5t-35.5 -14.5t-14.5 -35.5z" />
<glyph horiz-adv-x="490" d="M-20 100h124q-8 26 -8 50q0 50 30 90t76 54q31 9 43 56q12 -45 45 -57q45 -14 74 -53.5t29 -89.5q0 -24 -8 -50h125v-100h-530v100zM195 150q0 -21 14.5 -35.5t35.5 -14.5t35.5 14.5t14.5 35.5t-14.5 35.5t-35.5 14.5t-35.5 -14.5t-14.5 -35.5z" />
<glyph horiz-adv-x="490" d="M-20 100h125q14 42 49.5 69.5t80.5 30.5q7 25 29 49q100 -63 123 -149h123v-100h-125q-16 -44 -54 -72t-86 -28t-86.5 28t-54.5 72h-124v100zM195 50q0 -21 14.5 -35.5t35.5 -14.5t35.5 14.5t14.5 35.5t-14.5 35.5t-35.5 14.5t-35.5 -14.5t-14.5 -35.5z" />
<glyph horiz-adv-x="418" d="M-20 100h124q-8 26 -8 50q0 62 43.5 106t105.5 44q61 0 104.5 -44t43.5 -106t-43.5 -106t-104.5 -44h-265v100zM195 150q0 -21 14.5 -35.5t35.5 -14.5t35.5 14.5t14.5 35.5t-14.5 35.5t-35.5 14.5t-35.5 -14.5t-14.5 -35.5z" />
<glyph horiz-adv-x="460" d="M435 5q0 -88 -58.5 -148.5t-155.5 -60.5q-55 0 -96 22.5t-61.5 57t-29.5 66t-9 58.5q0 62 37 118t89 89q5 -39 -20 -72q16 -8 24.5 -24.5t4.5 -33.5q-27 15 -49 13q-27 -3 -41.5 -30t-14.5 -60q0 -57 40.5 -96.5t120.5 -39.5q71 0 104.5 47.5t29.5 108.5q-5 66 -65 138 l52 104q98 -122 98 -257z" />
<glyph horiz-adv-x="490" d="M510 100v-100h-75q-2 -86 -60.5 -145t-153.5 -59q-55 0 -96 22.5t-61.5 57t-29.5 66t-9 58.5q0 62 37 118t89 89q5 -39 -20 -72q16 -8 24.5 -24.5t4.5 -33.5q-27 15 -49 13q-27 -3 -41.5 -30t-14.5 -60q0 -57 40.5 -96.5t120.5 -39.5q71 0 104.5 47.5t29.5 108.5 q-5 66 -65 138l52 104q65 -80 86 -162h87z" />
<glyph horiz-adv-x="347" d="M222 467v311l100 22v-285zM222 320v127l100 48v-121q-13 -24 -41 -38t-59 -16zM25 150q0 62 43.5 106t104.5 44h15h19.5t20.5 1t23 2.5t21 5t21 8.5t16 12.5t13 16.5v-196q0 -62 -43.5 -106t-105.5 -44q-61 0 -104.5 44t-43.5 106zM124 150q0 -21 14.5 -35.5t35.5 -14.5 t35.5 14.5t14.5 35.5t-14.5 35.5t-35.5 14.5t-35.5 -14.5t-14.5 -35.5z" />
<glyph horiz-adv-x="347" d="M25 150q0 62 43.5 106t104.5 44h15h19.5t20.5 1t23 2.5t21 5t21 8.5t16 12.5t13 16.5v-196q0 -62 -43.5 -106t-105.5 -44q-61 0 -104.5 44t-43.5 106zM124 150q0 -21 14.5 -35.5t35.5 -14.5t35.5 14.5t14.5 35.5t-14.5 35.5t-35.5 14.5t-35.5 -14.5t-14.5 -35.5z" />
<glyph horiz-adv-x="415" d="M222 467v311l100 22v-285zM222 320v127l100 48v-121q-13 -24 -41 -38t-59 -16zM25 150q0 62 43.5 106t104.5 44h15h19.5t20.5 1t23 2.5t21 5t21 8.5t16 12.5t13 16.5v-196q0 -26 -9 -50h122v-100h-262q-61 0 -104.5 44t-43.5 106zM124 150q0 -21 14.5 -35.5t35.5 -14.5 t35.5 14.5t14.5 35.5t-14.5 35.5t-35.5 14.5t-35.5 -14.5t-14.5 -35.5z" />
<glyph horiz-adv-x="415" d="M25 150q0 62 43.5 106t104.5 44h15h19.5t20.5 1t23 2.5t21 5t21 8.5t16 12.5t13 16.5v-196q0 -26 -9 -50h122v-100h-262q-61 0 -104.5 44t-43.5 106zM124 150q0 -21 14.5 -35.5t35.5 -14.5t35.5 14.5t14.5 35.5t-14.5 35.5t-35.5 14.5t-35.5 -14.5t-14.5 -35.5z" />
<glyph horiz-adv-x="487" d="M-20 100h117v50q0 62 43.5 106t104.5 44h15h19.5t20.5 1t23 2.5t21 5t21 8.5t16 12.5t13 16.5v-246h113v-100h-113v-50q0 -62 -43.5 -106t-105.5 -44q-61 0 -104.5 44t-43.5 106v50h-117v100zM195 150q0 -21 14.5 -35.5t35.5 -14.5t35.5 14.5t14.5 35.5t-14.5 35.5 t-35.5 14.5t-35.5 -14.5t-14.5 -35.5zM195 -50q0 -21 14.5 -35.5t35.5 -14.5t35.5 14.5t14.5 35.5t-14.5 35.5t-35.5 14.5t-35.5 -14.5t-14.5 -35.5z" />
<glyph horiz-adv-x="487" d="M-20 100h117v50q0 62 43.5 106t104.5 44h50v78l99 22v-300h113v-100h-113v-50q0 -62 -43.5 -106t-105.5 -44q-61 0 -104.5 44t-43.5 106v50h-117v100zM195 150q0 -21 14.5 -35.5t35.5 -14.5t35.5 14.5t14.5 35.5t-14.5 35.5t-35.5 14.5t-35.5 -14.5t-14.5 -35.5zM195 -50 q0 -21 14.5 -35.5t35.5 -14.5t35.5 14.5t14.5 35.5t-14.5 35.5t-35.5 14.5t-35.5 -14.5t-14.5 -35.5z" />
<glyph horiz-adv-x="487" d="M-20 100h117v204q0 62 43.5 106t104.5 44h15h19.5t20.5 1t23 2.5t21 5t21 8.5t16 12.5t13 16.5v-400h113v-100h-149h-4h-374v100zM194 304q0 -21 14.5 -35.5t35.5 -14.5t35.5 14.5t14.5 35.5t-14.5 35.5t-35.5 14.5t-35.5 -14.5t-14.5 -35.5zM194 149q0 -18 11 -31.5 t29 -17.5h20q17 3 28.5 16.5t11.5 32.5q0 21 -14.5 35.5t-35.5 14.5t-35.5 -14.5t-14.5 -35.5z" />
<glyph horiz-adv-x="487" d="M-20 100h117v204q0 62 43.5 106t104.5 44h50v78l99 22v-454h113v-100h-149h-4h-374v100zM194 304q0 -21 14.5 -35.5t35.5 -14.5t35.5 14.5t14.5 35.5t-14.5 35.5t-35.5 14.5t-35.5 -14.5t-14.5 -35.5zM194 149q0 -18 11 -31.5t29 -17.5h20q17 3 28.5 16.5t11.5 32.5 q0 21 -14.5 35.5t-35.5 14.5t-35.5 -14.5t-14.5 -35.5z" />
<glyph horiz-adv-x="419" d="M-20 100h117v50q0 62 43.5 106t104.5 44h15h19.5t20.5 1t23 2.5t21 5t21 8.5t16 12.5t13 16.5v-396q0 -62 -43.5 -106t-105.5 -44q-61 0 -104.5 44t-43.5 106v50h-117v100zM195 150q0 -21 14.5 -35.5t35.5 -14.5t35.5 14.5t14.5 35.5t-14.5 35.5t-35.5 14.5t-35.5 -14.5 t-14.5 -35.5zM195 -50q0 -21 14.5 -35.5t35.5 -14.5t35.5 14.5t14.5 35.5t-14.5 35.5t-35.5 14.5t-35.5 -14.5t-14.5 -35.5z" />
<glyph horiz-adv-x="419" d="M-20 100h117v50q0 62 43.5 106t104.5 44h50v78l99 22v-450q0 -62 -43.5 -106t-105.5 -44q-61 0 -104.5 44t-43.5 106v50h-117v100zM195 150q0 -21 14.5 -35.5t35.5 -14.5t35.5 14.5t14.5 35.5t-14.5 35.5t-35.5 14.5t-35.5 -14.5t-14.5 -35.5zM195 -50q0 -21 14.5 -35.5 t35.5 -14.5t35.5 14.5t14.5 35.5t-14.5 35.5t-35.5 14.5t-35.5 -14.5t-14.5 -35.5z" />
<glyph horiz-adv-x="419" d="M-20 100h117v204q0 62 43.5 106t104.5 44h15h19.5t20.5 1t23 2.5t21 5t21 8.5t16 12.5t13 16.5v-477q0 -11 -10 -17t-20 -6h-10h-374v100zM194 304q0 -21 14.5 -35.5t35.5 -14.5t35.5 14.5t14.5 35.5t-14.5 35.5t-35.5 14.5t-35.5 -14.5t-14.5 -35.5zM194 149 q0 -18 11 -31.5t29 -17.5h20q17 3 28.5 16.5t11.5 32.5q0 21 -14.5 35.5t-35.5 14.5t-35.5 -14.5t-14.5 -35.5z" />
<glyph horiz-adv-x="419" d="M-20 100h117v204q0 62 43.5 106t104.5 44h50v78l99 22v-531q0 -11 -10 -17t-20 -6h-10h-374v100zM194 304q0 -21 14.5 -35.5t35.5 -14.5t35.5 14.5t14.5 35.5t-14.5 35.5t-35.5 14.5t-35.5 -14.5t-14.5 -35.5zM194 149q0 -18 11 -31.5t29 -17.5h20q17 3 28.5 16.5 t11.5 32.5q0 21 -14.5 35.5t-35.5 14.5t-35.5 -14.5t-14.5 -35.5z" />
<glyph horiz-adv-x="347" d="M25 150q0 62 43.5 106t104.5 44h15h19.5t20.5 1t23 2.5t21 5t21 8.5t16 12.5t13 16.5v-388q0 -63 -35.5 -101.5t-82.5 -46t-95 7.5t-72 50q103 -28 144 -0.5t41 80.5v60q-24 -8 -49 -8q-61 0 -104.5 44t-43.5 106zM124 150q0 -21 14.5 -35.5t35.5 -14.5t35.5 14.5 t14.5 35.5t-14.5 35.5t-35.5 14.5t-35.5 -14.5t-14.5 -35.5z" />
<glyph horiz-adv-x="400" d="M25 150q0 62 43.5 106t104.5 44h15h19.5t20.5 1t23 2.5t21 5t21 8.5t16 12.5t13 16.5v-246h98v-100h-98v-42q0 -63 -35.5 -101.5t-82.5 -46t-95 7.5t-72 50q103 -28 144 -0.5t41 80.5v52h-49q-61 0 -104.5 44t-43.5 106zM124 150q0 -21 14.5 -35.5t35.5 -14.5t35.5 14.5 t14.5 35.5t-14.5 35.5t-35.5 14.5t-35.5 -14.5t-14.5 -35.5z" />
<glyph horiz-adv-x="400" d="M25 150q0 59 40.5 102.5t98.5 47.5q7 25 29 49q109 -68 126 -163q7 -35 7 -86h94v-100h-105q-20 -91 -63.5 -133t-97.5 -45q-86 -6 -129 53q87 -14 128.5 19.5t55.5 105.5h-35q-62 0 -105.5 44t-43.5 106zM124 150q0 -21 14.5 -35.5t35.5 -14.5t35.5 14.5t14.5 35.5 t-14.5 35.5t-35.5 14.5t-35.5 -14.5t-14.5 -35.5z" />
<glyph horiz-adv-x="350" d="M25 -50q0 57 38 100q-38 43 -38 100h100q0 -21 14.5 -35.5t35.5 -14.5t35.5 14.5t14.5 35.5v650l100 -22v-628q0 -58 -39 -100q38 -43 38 -100q0 -62 -43.5 -106t-105.5 -44t-106 44t-44 106zM125 -50q0 -21 14.5 -35.5t35.5 -14.5t35.5 14.5t14.5 35.5t-14.5 35.5 t-35.5 14.5t-35.5 -14.5t-14.5 -35.5z" />
<glyph d="M25 150v628l100 22v-700z" />
<glyph horiz-adv-x="425" d="M25 -50q0 57 38 100q-38 43 -38 100h100q0 -21 14.5 -35.5t35.5 -14.5t35.5 14.5t14.5 35.5v650l100 -22v-628q0 -26 -9 -50h129v-100h-129q8 -26 8 -50q0 -62 -43.5 -106t-105.5 -44t-106 44t-44 106zM125 -50q0 -21 14.5 -35.5t35.5 -14.5t35.5 14.5t14.5 35.5 t-14.5 35.5t-35.5 14.5t-35.5 -14.5t-14.5 -35.5z" />
<glyph d="M25 350v428l100 22v-500z" />
<glyph horiz-adv-x="350" d="M25 150q0 57 38 100q-38 43 -38 100h100q0 -21 14.5 -35.5t35.5 -14.5t35.5 14.5t14.5 35.5v450l100 -22v-428q0 -58 -39 -100q38 -43 38 -100q0 -62 -43.5 -106t-105.5 -44t-106 44t-44 106zM125 150q0 -21 14.5 -35.5t35.5 -14.5t35.5 14.5t14.5 35.5t-14.5 35.5 t-35.5 14.5t-35.5 -14.5t-14.5 -35.5z" />
<glyph horiz-adv-x="725" d="M507 -200h-482l84 140q9 -19 28.5 -29.5t39.5 -10.5h159l-174 303q-99 171 61 290q26 19 36.5 28t19.5 27t9 43l280 -488q34 9 48 37l84 -140h-188l-237 410q-37 -21 -45 -65t19 -93z" />
<glyph horiz-adv-x="765" d="M433 0h-408l84 140q9 -19 28.5 -29.5t39.5 -10.5h84l-59 103q-99 171 61 290q26 19 36.5 28t19.5 27t9 43l280 -488q34 9 48 37l84 -140h-188l-237 410q-37 -21 -45 -65t19 -93z" />
<glyph horiz-adv-x="1045" d="M518 140l84 -140h-188l-237 410q-37 -21 -45 -65t19 -93l201 -352h608l60 -100h-725l-231 403q-99 171 61 290q26 19 36.5 28t19.5 27t9 43l280 -488q34 9 48 37z" />
<glyph horiz-adv-x="680" d="M507 -200h-482l84 140q9 -19 28.5 -29.5t39.5 -10.5h159l-174 303q-99 171 61 290q26 19 36.5 28t19.5 27t9 43l282 -491h130v-100h-188l-237 410q-37 -21 -45 -65t19 -93z" />
<glyph horiz-adv-x="720" d="M433 0h-408l84 140q9 -19 28.5 -29.5t39.5 -10.5h84l-59 103q-99 171 61 290q26 19 36.5 28t19.5 27t9 43l282 -491h130v-100h-188l-237 410q-37 -21 -45 -65t19 -93z" />
<glyph horiz-adv-x="1045" d="M1065 100v-100h-651l-237 410q-37 -21 -45 -65t19 -93l201 -352h608l60 -100h-725l-231 403q-99 171 61 290q26 19 36.5 28t19.5 27t9 43l282 -491h593z" />
<glyph d="M105 0h-240l30 50h43q0 22 6 49q19 69 85 69q46 0 63 -40q-32 16 -60 9q-32 -9 -32 -48t57 -39h78z" />
<glyph d="M-58 0q0 24 17 41t41 17t41 -17t17 -41t-17 -41t-41 -17t-41 17t-17 41z" />
<glyph d="M32 0q0 24 17 41t41 17t41 -17t17 -41t-17 -41t-41 -17t-41 17t-17 41zM-141 0q0 24 17 41t41 17t41 -17t17 -41t-17 -41t-41 -17t-41 17t-17 41z" />
<glyph horiz-adv-x="520" d="M435 0h-410l60 100h73v16q-1 77 36 127.5t95 50.5q97 0 120 -80q-38 23 -75 23q-27 0 -48 -18.5t-21 -52.5q0 -36 25.5 -51t57.5 -15h147z" />
<glyph horiz-adv-x="520" d="M435 400h-410l60 100h73v16q0 78 36.5 128t94.5 50q97 0 120 -80q-38 23 -75 23q-27 0 -48 -18.5t-21 -52.5q0 -36 25.5 -51t57.5 -15h147z" />
<glyph d="M-58 150q0 24 17 41t41 17t41 -17t17 -41t-17 -41t-41 -17t-41 17t-17 41zM-141 0q0 24 17 41t41 17t41 -17t17 -41t-17 -41t-41 -17t-41 17t-17 41zM32 0q0 24 17 41t41 17t41 -17t17 -41t-17 -41t-41 -17t-41 17t-17 41z" />
<glyph d="M32 150q0 24 17 41t41 17t41 -17t17 -41t-17 -41t-41 -17t-41 17t-17 41zM-141 150q0 24 17 41t41 17t41 -17t17 -41t-17 -41t-41 -17t-41 17t-17 41zM-58 0q0 24 17 41t41 17t41 -17t17 -41t-17 -41t-41 -17t-41 17t-17 41z" />
<glyph d="M-58 0q0 24 17 41t41 17t41 -17t17 -41t-17 -41t-41 -17t-41 17t-17 41z" />
<glyph d="M-141 0q0 24 17 41t41 17t41 -17t17 -41t-17 -41t-41 -17t-41 17t-17 41zM32 0q0 24 17 41t41 17t41 -17t17 -41t-17 -41t-41 -17t-41 17t-17 41z" />
<glyph d="M-58 0q0 24 17 41t41 17t41 -17t17 -41t-17 -41t-41 -17t-41 17t-17 41zM32 -150q0 24 17 41t41 17t41 -17t17 -41t-17 -41t-41 -17t-41 17t-17 41zM-141 -150q0 24 17 41t41 17t41 -17t17 -41t-17 -41t-41 -17t-41 17t-17 41z" />
<glyph d="M-141 0q0 24 17 41t41 17t41 -17t17 -41t-17 -41t-41 -17t-41 17t-17 41zM32 0q0 24 17 41t41 17t41 -17t17 -41t-17 -41t-41 -17t-41 17t-17 41zM-58 -150q0 24 17 41t41 17t41 -17t17 -41t-17 -41t-41 -17t-41 17t-17 41z" />
<glyph d="M-58 170q0 24 17 41t41 17t41 -17t17 -41t-17 -41t-41 -17t-41 17t-17 41zM-58 0q0 24 17 41t41 17t41 -17t17 -41t-17 -41t-41 -17t-41 17t-17 41z" />
<glyph d="M105 -168h-240l30 50h43q0 22 6 49q19 69 85 69q46 0 63 -40q-32 16 -60 9q-32 -9 -32 -48t57 -39h78z" />
<glyph d="M150 9q0 -4 -4 -6.5t-8 -2.5h-4h-284l24 50h40v241l50 9v-160h110q12 0 22 -2.5t17.5 -6t13.5 -11t9.5 -12.5t6.5 -16t4.5 -16t2 -18t0.5 -16.5v-17.5v-15zM69 90h-105v-40h136q-1 15 -2 21t-8 12.5t-21 6.5z" />
<glyph d="M126 0h-191q-9 -54 -77 -38q14 2 20.5 11t7 16t0.5 27v136l50 8v-20h130q12 0 22 -2.5t17.5 -6t13.5 -11t9.5 -12t6.5 -15.5t4.5 -16t2 -18t0.5 -16.5v-17.5v-15q0 -3 -1.5 -5t-4 -3t-5 -1.5t-3.5 -0.5h-2zM60 90h-124v-40h156q0 13 -1.5 20.5t-9 13.5t-21.5 6z" />
<glyph d="M211 208l-422 -416l1 48l421 415v-47z" />
<glyph d="M127 66l38 -66h-238q-9 -54 -77 -38q14 2 20.5 11t7 16t0.5 27v56l50 8v-30h172q20 0 27 16z" />
<glyph horiz-adv-x="600" d="M70 0v577l100 22h120q40 2 40 -23v-121l137 72l-5 -101l-132 -77l-100 22v128h-60v-499h-100z" />
<glyph horiz-adv-x="600" d="M407 42l-241 -42l-96 26l158 586l90 -47l-124 -460l218 38z" />
<glyph horiz-adv-x="259" d="M74 568q0 23 18 39t41 16q22 0 40 -16t18 -39q0 -24 -17.5 -39.5t-40.5 -15.5t-41 15.5t-18 39.5zM79 418h101v-418h-101v418z" />
<glyph horiz-adv-x="1170" d="M114 0v328h-71v90h71v171q0 90 43 139t124 49q54 0 96 -27l-43 -73q-16 17 -43 17q-76 0 -76 -107v-169h132v-90h-132v-328h-101zM431 0v328h-71v90h71v171q0 90 43 139t124 49q54 0 96 -27l-43 -73q-16 17 -43 17q-76 0 -76 -107v-169h132v-90h-132v-328h-101zM730 568 q0 23 18 39t41 16q22 0 40 -16t18 -39q0 -24 -17.5 -39.5t-40.5 -15.5t-41 15.5t-18 39.5zM981 568q0 23 18 39t41 16q22 0 40 -16t18 -39q0 -24 -17.5 -39.5t-40.5 -15.5t-41 15.5t-18 39.5zM735 418h101v-418h-101v418zM987 -201l-60 62q61 51 61 141v416h101v-420 q0 -144 -102 -199z" />
<glyph horiz-adv-x="852" d="M114 0v328h-71v90h71v171q0 90 43 139t124 49q54 0 96 -27l-43 -73q-16 17 -43 17q-76 0 -76 -107v-169h132v-90h-132v-328h-101zM413 568q0 23 18 39t41 16q22 0 40 -16t18 -39q0 -24 -17.5 -39.5t-40.5 -15.5t-41 15.5t-18 39.5zM664 568q0 23 18 39t41 16q22 0 40 -16 t18 -39q0 -24 -17.5 -39.5t-40.5 -15.5t-41 15.5t-18 39.5zM418 418h101v-418h-101v418zM670 -201l-60 62q61 51 61 141v416h101v-420q0 -144 -102 -199z" />
<glyph horiz-adv-x="624" d="M312 -3q-123 -1 -200 89.5t-77 245.5q0 166 74 250.5t203 83.5q124 1 200.5 -89t76.5 -245q0 -158 -76.5 -247t-200.5 -88zM311 98q83 -1 126 63.5t43 172.5q0 106 -43.5 168.5t-125.5 62.5t-124.5 -63.5t-42.5 -169.5q0 -107 43 -171t124 -63zM256 331q0 23 17 40t39 17 q20 0 37 -17t17 -40q0 -24 -16.5 -40t-37.5 -16q-22 0 -39 15.5t-17 40.5z" />
<glyph horiz-adv-x="171" d="M31 373q0 23 17 40t39 17q20 0 37 -17t17 -40q0 -24 -16.5 -40t-37.5 -16q-22 0 -39 15.5t-17 40.5z" />
<glyph horiz-adv-x="171" d="M31 286q0 23 17 40t39 17q20 0 37 -17t17 -40q0 -24 -16.5 -40t-37.5 -16q-22 0 -39 16t-17 40z" />
<glyph d="M73 669q0 23 17 40t39 17q20 0 37.5 -17t17.5 -40q0 -24 -17 -40t-38 -16q-22 0 -39 16t-17 40zM262 669q0 23 17 40t39 17q20 0 37.5 -17t17.5 -40q0 -24 -17 -40t-38 -16q-22 0 -39 16t-17 40z" />
<glyph d="M37 639q0 23 18 39t41 16q22 0 40 -16t18 -39q0 -24 -17.5 -39.5t-40.5 -15.5t-41 15.5t-18 39.5z" />
<glyph d="M17 707h111l71 -134h-63z" />
<glyph d="M202 686l-130 -134h-63l81 134h112z" />
<glyph d="M236 620l-130 -134h-63l81 134h112zM391 618l-130 -134h-63l81 134h112z" />
<glyph d="M286 495l-80 83l-75 -83h-92l168 174h1l171 -174h-93z" />
<glyph d="M131 660l79 -83l75 83h93l-168 -174h-1l-171 174h93z" />
<glyph d="M204 479q-129 0 -154 178h68q16 -109 86 -109t84 109h69q-23 -178 -153 -178z" />
<glyph d="M68 561q0 41 27.5 66.5t69.5 25.5q41 0 68.5 -25.5t27.5 -66.5q0 -40 -27.5 -66t-68.5 -26q-42 0 -69.5 25.5t-27.5 66.5zM122 560q0 -19 12 -31.5t31 -12.5q18 0 30 12.5t12 31.5q0 20 -12 32t-30 12q-19 0 -31 -12t-12 -32z" />
<glyph d="M314 736q-8 0 -16 1.5t-13.5 2.5t-13 5t-11.5 6t-11 7.5t-9.5 7t-10 8t-8.5 7.5q-30 28 -49 28q-20 0 -30.5 -20.5t-8.5 -52.5h-55q-5 60 22.5 100.5t76.5 40.5q36 0 81 -43q35 -33 53 -33q37 0 35 76h55q7 -62 -18.5 -101.5t-68.5 -39.5z" />
<glyph d="M61 627h247v-71h-247v71z" />
<glyph d="M153 589q44 32 44 59q0 35 -32 35q-26 0 -46 -30l-37 24q32 63 96 63q37 0 57 -22.5t20 -56.5q0 -56 -78 -103z" />
<glyph d="M102 620h111l71 -134h-63zM249 620h111l71 -134h-63z" />
<glyph d="M231 669q129 0 154 -178h-68q-16 109 -86 109t-84 -109h-69q23 178 153 178z" />
<glyph d="M50 532q40 0 57 18.5t23 68.5h75q-11 -89 -47.5 -119t-107.5 -30v62z" />
<glyph d="M51 -104q0 23 18 39t41 16q22 0 40 -16t18 -39q0 -24 -17.5 -39.5t-40.5 -15.5t-41 15.5t-18 39.5z" />
<glyph d="M73 -97q0 23 17 40t39 17q20 0 37.5 -17t17.5 -40q0 -24 -17 -40t-38 -16q-22 0 -39 16t-17 40zM262 -97q0 23 17 40t39 17q20 0 37.5 -17t17.5 -40q0 -24 -17 -40t-38 -16q-22 0 -39 16t-17 40z" />
<glyph d="M104 -204l-51 35q23 21 33 59t4 76l90 -1q7 -44 -13.5 -93.5t-62.5 -75.5z" />
<glyph d="M72 -151q24 -26 65 -26q27 0 46.5 11.5t19.5 32.5q0 18 -15 30.5t-47 12.5q-24 0 -65 -12l-17 48l69 63l78 -3l-43 -50h2q55 2 89 -21.5t34 -66.5q0 -48 -40.5 -74t-99.5 -26q-67 0 -108 39z" />
<glyph d="M194 -218q-52 0 -87 31.5t-35 80.5q0 35 24.5 67t64.5 49l112 -10q-59 -26 -88 -48.5t-29 -49.5q0 -24 13.5 -36t33.5 -12q39 0 69 48l38 -51q-19 -30 -51.5 -49.5t-64.5 -19.5z" />
<glyph d="M204 -217q-129 0 -154 178h68q16 -109 86 -109t84 109h69q-23 -178 -153 -178z" />
<glyph d="M42 -89h247v-71h-247v71z" />
<glyph d="M355 812l-130 -134h-63l81 134h112zM204 479q-129 0 -154 178h68q16 -109 86 -109t84 109h69q-23 -178 -153 -178z" />
<glyph d="M56 810h111l71 -134h-63zM204 479q-129 0 -154 178h68q16 -109 86 -109t84 109h69q-23 -178 -153 -178z" />
<glyph d="M198 692q44 32 44 59q0 35 -32 35q-26 0 -46 -30l-37 24q32 63 96 63q37 0 57 -22.5t20 -56.5q0 -56 -78 -103zM204 479q-129 0 -154 178h68q16 -109 86 -109t84 109h69q-23 -178 -153 -178z" />
<glyph d="M307 690q-8 0 -16 1.5t-13.5 2.5t-13 5t-11.5 6t-11 7.5t-9.5 7t-10 8t-8.5 7.5q-30 28 -49 28q-20 0 -30.5 -20.5t-8.5 -52.5h-55q-5 60 22.5 100.5t76.5 40.5q36 0 81 -43q35 -33 53 -33q37 0 35 76h55q7 -62 -18.5 -101.5t-68.5 -39.5zM220 479q-129 0 -154 178h68 q16 -109 86 -109t84 109h69q-23 -178 -153 -178z" />
<glyph d="M533 715l-130 -134h-63l81 134h112zM286 482l-80 83l-75 -83h-92l168 174h1l171 -174h-93z" />
<glyph d="M32 721h111l71 -134h-63zM417 479l-80 83l-75 -83h-92l168 174h1l171 -174h-93z" />
<glyph d="M368 587q44 32 44 59q0 35 -32 35q-26 0 -46 -30l-37 24q32 63 96 63q37 0 57 -22.5t20 -56.5q0 -56 -78 -103zM286 482l-80 83l-75 -83h-92l168 174h1l171 -174h-93z" />
<glyph d="M314 681q-8 0 -16 1.5t-13.5 2.5t-13 5t-11.5 6t-11 7.5t-9.5 7t-10 8t-8.5 7.5q-30 28 -49 28q-20 0 -30.5 -20.5t-8.5 -52.5h-55q-5 60 22.5 100.5t76.5 40.5q36 0 81 -43q35 -33 53 -33q37 0 35 76h55q7 -62 -18.5 -101.5t-68.5 -39.5zM312 482l-80 83l-75 -83h-92 l168 174h1l171 -174h-93z" />
<glyph horiz-adv-x="698" d="M686 904l-130 -134h-63l81 134h112zM311 896l-130 -134h-63l81 134h112zM103 725h104v-725h-104v725zM578 135q0 -130 -73 -205.5t-192 -79.5v102q74 4 117 50t43 136v587h105v-590z" />
<glyph horiz-adv-x="535" d="M283 615l-130 -134h-63l81 134h112zM549 615l-130 -134h-63l81 134h112zM79 418h101v-418h-101v418zM348 -201l-60 62q61 51 61 141v416h101v-420q0 -144 -102 -199z" />
<glyph horiz-adv-x="350" d="M42 -86h247v-71h-247v71z" />
</font>
</defs>
</svg>
