<?xml version="1.0" standalone="no"?>
<!DOCTYPE svg PUBLIC "-//W3C//DTD SVG 1.1//EN" "http://www.w3.org/Graphics/SVG/1.1/DTD/svg11.dtd" >
<svg xmlns="http://www.w3.org/2000/svg" xmlns:xlink="http://www.w3.org/1999/xlink" version="1.1">
<metadata></metadata>
<defs>
<font id="reem_kufiregular" horiz-adv-x="0" >
<font-face units-per-em="1000" ascent="800" descent="-200" />
<missing-glyph horiz-adv-x="130" />
<glyph unicode="&#xfedf;&#xfef0;" horiz-adv-x="996" arabic-form="isolated" d="M736 -5l9 82q57 0 80 11t26.5 39t1.5 78l-19 509h81l20 -500q3 -71 -9.5 -120t-56 -74t-133.5 -25zM30 -1q0 36 10 80t32 97l72 -28q-16 -42 -24 -77t-8 -65q0 -55 32.5 -90t86 -51t117.5 -16q77 0 140.5 18t101.5 47.5t38 65.5q0 26 -40 45t-112 39l19 83 q104 -40 162 -55t89 -15q21 0 30.5 -11.5t9.5 -27.5t-14 -29.5t-36 -13.5h-37q2 -9 3 -14.5t1 -14.5q0 -49 -45 -94.5t-129.5 -74.5t-202.5 -29q-79 0 -146.5 25.5t-108.5 76.5t-41 129z" />
<glyph unicode="&#xfee0;&#xfef0;" horiz-adv-x="1036" arabic-form="final" d="M736 -5l9 82q57 0 80 11t26.5 39t1.5 78l-17 509h83l16 -507q2 -51 16.5 -79.5t39.5 -39.5t55 -11q21 0 30.5 -11.5t9.5 -27.5t-14 -29.5t-36 -13.5q-51 0 -81 19.5t-43 47.5q-20 -33 -61.5 -50t-114.5 -17zM30 -1q0 36 10 80t32 97l72 -28q-16 -42 -24 -77t-8 -65 q0 -55 32.5 -90t86 -51t117.5 -16q77 0 140.5 18t101.5 47.5t38 65.5q0 26 -40 45t-112 39l19 83q104 -40 162 -55t89 -15q21 0 30.5 -11.5t9.5 -27.5t-14 -29.5t-36 -13.5h-37q2 -9 3 -14.5t1 -14.5q0 -49 -45 -94.5t-129.5 -74.5t-202.5 -29q-79 0 -146.5 25.5 t-108.5 76.5t-41 129z" />
<glyph unicode="&#xfee0;&#xfea4;&#xfef0;" horiz-adv-x="1673" arabic-form="final" d="M1373 -5l9 82q57 0 80 11t26.5 39t1.5 78l-17 509h83l16 -507q2 -51 16.5 -79.5t39.5 -39.5t55 -11q21 0 30.5 -11.5t9.5 -27.5t-14 -29.5t-36 -13.5q-51 0 -81 19.5t-43 47.5q-20 -33 -61.5 -50t-114.5 -17zM736 -5l9 82q104 0 200.5 31t176.5 86q-39 35 -95.5 55.5 t-124.5 20.5q-25 0 -44 -2.5t-46 -8.5l-16 76q56 17 106 17q52 0 94 -12.5t76.5 -30.5t65 -36t59.5 -30.5t60 -12.5h21l7 -72q-31 0 -60 -7q19 -45 54 -59.5t104 -14.5q21 0 30.5 -11.5t9.5 -27.5t-14 -29.5t-36 -13.5q-54 0 -96.5 9.5t-72.5 38t-44 85.5 q-38 -18 -77.5 -40.5t-87.5 -43.5t-111 -35t-148 -14zM30 -1q0 36 10 80t32 97l72 -28q-16 -42 -24 -77t-8 -65q0 -55 32.5 -90t86 -51t117.5 -16q77 0 140.5 18t101.5 47.5t38 65.5q0 26 -40 45t-112 39l19 83q104 -40 162 -55t89 -15q21 0 30.5 -11.5t9.5 -27.5t-14 -29.5 t-36 -13.5h-37q2 -9 3 -14.5t1 -14.5q0 -49 -45 -94.5t-129.5 -74.5t-202.5 -29q-79 0 -146.5 25.5t-108.5 76.5t-41 129z" />
<glyph unicode="&#x627;&#xfedf;&#xfee0;&#xfeea;" horiz-adv-x="1284" arabic-form="isolated" d="M586 830l-6 173h55l6 -173h-55zM551 620q-40 0 -53 26.5t-13 56.5q0 11 1.5 23.5t4.5 28.5l50 14q-6 -34 -6 -57q0 -37 25 -37q15 0 25 15.5t11 62.5v30l48 18v-61q0 -14 5.5 -24.5t23.5 -10.5t24 11t6 28t-4 34.5t-11 34.5l45 14q10 -19 16.5 -43.5t6.5 -44.5 q0 -33 -18.5 -59.5t-57.5 -26.5q-32 0 -52 18q-9 -23 -29.5 -37t-47.5 -14zM486 -5q-65 0 -111.5 22.5t-65.5 80.5q-53 -13 -103 -10.5t-89.5 19t-63 46t-23.5 70.5q0 54 34 99t92 76t128 42l-3 76h81l16 -330q3 -47 17 -70.5t39.5 -31t61.5 -7.5q57 0 79.5 11t26 39t1.5 78 l-13 363h83l12 -361q2 -51 16.5 -79.5t39.5 -39.5t55 -11q56 0 79 11t26.5 39t1.5 78l-19 509h81l20 -500q3 -71 -9.5 -120t-56 -74t-133.5 -25q-51 0 -80.5 19.5t-43.5 47.5q-19 -33 -61 -50t-115 -17zM1138 0l-20 714h81l20 -714h-81zM297 174l-9 183q-57 -6 -97 -26 t-61 -45t-21 -50q0 -24 18.5 -38.5t47.5 -21.5t61.5 -7t60.5 5z" />
<glyph unicode="&#xfedf;&#xfe82;" horiz-adv-x="678" arabic-form="isolated" d="M393 536q0 22 -3 53t-7 62t-8 53l86 10q3 -20 6.5 -52.5t5.5 -64.5t2 -53q0 -63 -11.5 -122.5t-37.5 -115.5q47 -49 69 -90t22 -81q0 -29 -14 -60.5t-51 -53t-107 -21.5h-230v81q150 107 214 213q-56 50 -131.5 107t-157.5 116l47 66q89 -66 158 -119.5t119 -98.5 q15 40 22 82.5t7 88.5zM234 82h126q51 0 67 18.5t16 42.5q0 18 -14.5 42t-40.5 52q-28 -42 -66.5 -81t-87.5 -74zM-32 50v64l-50 -8v-56q0 -21 -3 -36t-25 -18q7 -2 26 -3.5t35.5 10t16.5 47.5zM105 34h100l-38 66q-7 -16 -27 -16h-35v-50zM124 84h-188v-50h188v50z" />
<glyph unicode="&#xfee0;&#xfe82;" horiz-adv-x="689" arabic-form="final" d="M142 -5q-27 0 -54.5 4.5t-38.5 6.5l11 79q90 -12 164.5 2.5t118.5 72.5q-39 64 -117 155.5t-186 188.5l54 57q106 -100 175 -181t111 -141q12 43 14 98l-14 377h82l20 -515q2 -49 9.5 -75.5t34 -36.5t83.5 -10q21 0 30.5 -11.5t9.5 -27.5t-14 -29.5t-36 -13.5 q-70 0 -111 13.5t-60 42t-25 73.5q-31 -55 -76 -83t-93.5 -37t-91.5 -9zM-32 50v64l-50 -8v-56q0 -21 -3 -36t-25 -18q7 -2 26 -3.5t35.5 10t16.5 47.5zM105 34h100l-38 66q-7 -16 -27 -16h-35v-50zM124 84h-188v-50h188v50z" />
<glyph unicode="&#xfedf;&#xfe84;" horiz-adv-x="582" arabic-form="isolated" d="M393 536q0 22 -3 53t-7 62t-8 53l86 10q3 -20 6.5 -52.5t5.5 -64.5t2 -53q0 -63 -11.5 -122.5t-37.5 -115.5q47 -49 69 -90t22 -81q0 -29 -14 -60.5t-51 -53t-107 -21.5h-230v81q150 107 214 213q-56 50 -131.5 107t-157.5 116l47 66q89 -66 158 -119.5t119 -98.5 q15 40 22 82.5t7 88.5zM234 82h126q51 0 67 18.5t16 42.5q0 18 -14.5 42t-40.5 52q-28 -42 -66.5 -81t-87.5 -74zM101 108h-26q-19 0 -40.5 4.5t-21.5 34.5q0 5 3.5 23t28.5 25q14 4 34 -1t26 -8q-10 23 -30 31.5t-33 8.5q-39 0 -58 -19.5t-27 -49.5q-6 -24 -6 -57v-33h151z M118 58l30 50h-240l-30 -50h240z" />
<glyph unicode="&#xfee0;&#xfe84;" horiz-adv-x="599" arabic-form="final" d="M142 -5q-27 0 -54.5 4.5t-38.5 6.5l11 79q90 -12 164.5 2.5t118.5 72.5q-39 64 -117 155.5t-186 188.5l54 57q106 -100 175 -181t111 -141q12 43 14 98l-14 377h82l20 -515q2 -49 9.5 -75.5t34 -36.5t83.5 -10q21 0 30.5 -11.5t9.5 -27.5t-14 -29.5t-36 -13.5 q-70 0 -111 13.5t-60 42t-25 73.5q-31 -55 -76 -83t-93.5 -37t-91.5 -9zM101 108h-26q-19 0 -40.5 4.5t-21.5 34.5q0 5 3.5 23t28.5 25q14 4 34 -1t26 -8q-10 23 -30 31.5t-33 8.5q-39 0 -58 -19.5t-27 -49.5q-6 -24 -6 -57v-33h151zM118 58l30 50h-240l-30 -50h240z" />
<glyph unicode="&#xfedf;&#xfe88;" horiz-adv-x="582" arabic-form="isolated" d="M393 536q0 22 -3 53t-7 62t-8 53l86 10q3 -20 6.5 -52.5t5.5 -64.5t2 -53q0 -63 -11.5 -122.5t-37.5 -115.5q47 -49 69 -90t22 -81q0 -29 -14 -60.5t-51 -53t-107 -21.5h-230v81q150 107 214 213q-56 50 -131.5 107t-157.5 116l47 66q89 -66 158 -119.5t119 -98.5 q15 40 22 82.5t7 88.5zM234 82h126q51 0 67 18.5t16 42.5q0 18 -14.5 42t-40.5 52q-28 -42 -66.5 -81t-87.5 -74zM146 -118h-26q-19 0 -40.5 4.5t-21.5 34.5q0 5 3.5 23t28.5 25q14 4 34 -1t26 -8q-10 23 -30 31.5t-33 8.5q-39 0 -58 -19.5t-27 -49.5q-6 -24 -6 -57v-33h151 zM163 -168l30 50h-240l-30 -50h240z" />
<glyph unicode="&#xfee0;&#xfe88;" horiz-adv-x="599" arabic-form="final" d="M142 -5q-27 0 -54.5 4.5t-38.5 6.5l11 79q90 -12 164.5 2.5t118.5 72.5q-39 64 -117 155.5t-186 188.5l54 57q106 -100 175 -181t111 -141q12 43 14 98l-14 377h82l20 -515q2 -49 9.5 -75.5t34 -36.5t83.5 -10q21 0 30.5 -11.5t9.5 -27.5t-14 -29.5t-36 -13.5 q-70 0 -111 13.5t-60 42t-25 73.5q-31 -55 -76 -83t-93.5 -37t-91.5 -9zM146 -118h-26q-19 0 -40.5 4.5t-21.5 34.5q0 5 3.5 23t28.5 25q14 4 34 -1t26 -8q-10 23 -30 31.5t-33 8.5q-39 0 -58 -19.5t-27 -49.5q-6 -24 -6 -57v-33h151zM163 -168l30 50h-240l-30 -50h240z" />
<glyph unicode="&#xfedf;&#xfe8e;" horiz-adv-x="582" arabic-form="isolated" d="M393 536q0 22 -3 53t-7 62t-8 53l86 10q3 -20 6.5 -52.5t5.5 -64.5t2 -53q0 -63 -11.5 -122.5t-37.5 -115.5q47 -49 69 -90t22 -81q0 -29 -14 -60.5t-51 -53t-107 -21.5h-230v81q150 107 214 213q-56 50 -131.5 107t-157.5 116l47 66q89 -66 158 -119.5t119 -98.5 q15 40 22 82.5t7 88.5zM234 82h126q51 0 67 18.5t16 42.5q0 18 -14.5 42t-40.5 52q-28 -42 -66.5 -81t-87.5 -74z" />
<glyph unicode="&#xfee0;&#xfe8e;" horiz-adv-x="599" arabic-form="final" d="M142 -5q-27 0 -54.5 4.5t-38.5 6.5l11 79q90 -12 164.5 2.5t118.5 72.5q-39 64 -117 155.5t-186 188.5l54 57q106 -100 175 -181t111 -141q12 43 14 98l-14 377h82l20 -515q2 -49 9.5 -75.5t34 -36.5t83.5 -10q21 0 30.5 -11.5t9.5 -27.5t-14 -29.5t-36 -13.5 q-70 0 -111 13.5t-60 42t-25 73.5q-31 -55 -76 -83t-93.5 -37t-91.5 -9z" />
<glyph unicode="fl" horiz-adv-x="552" d="M24 335v84h71v97q0 131 61.5 194.5t174.5 66.5h160v-777h-85v695h-75q-78 -4 -114 -50t-36 -131v-95h132v-84h-132v-335h-86v335h-71z" />
<glyph unicode="fi" horiz-adv-x="565" d="M24 334v84h71v98q0 131 61.5 194.5t174.5 66.5v-82q-78 -4 -114 -50t-36 -131v-96h324v-418h-86v334h-238v-334h-86v334h-71z" />
<glyph unicode="&#xfedf;&#xfbe9;&#xfee2;" horiz-adv-x="1091" d="M831 -5l9 82q57 0 80 11t26.5 39t1.5 78l-19 509h81l20 -500q3 -71 -9.5 -120t-56 -74t-133.5 -25zM562 -5l10 82q49 0 78 6t42 24.5t13 55.5q0 38 -17.5 95.5t-39.5 114.5l81 30q13 -32 24.5 -73t19.5 -81t8 -70q0 -100 -53.5 -142t-165.5 -42zM77 -393 q-21 77 -36 150.5t-23 131.5t-8 86q0 74 24 135t62 107.5t82 79t85.5 49t70.5 16.5q25 0 44 -11t37 -43t38 -94q19 -57 36 -86.5t37 -40t46 -10.5q21 0 30.5 -11.5t9.5 -27.5t-14 -29.5t-36 -13.5q-35 0 -60.5 11.5t-45.5 31.5q-19 -29 -46 -42.5t-58 -13.5 q-37 0 -77.5 17.5t-77.5 51.5t-64 82q-25 -38 -33 -81.5t-8 -76.5q0 -28 6 -71.5t15.5 -92.5t21 -97.5t21.5 -87.5zM360 64q26 0 39 16t3 47q-23 73 -41.5 109.5t-40.5 36.5t-61.5 -19.5t-71.5 -56.5q22 -45 53.5 -75t63 -44t56.5 -14z" />
<glyph unicode="&#xfedf;&#xfb51;" horiz-adv-x="503" d="M151 661q-22 0 -52.5 2t-57.5 5.5t-41 5.5l7 51q9 -1 23 -3t31 -3q14 30 34.5 60t48 50.5t64.5 20.5q32 0 60.5 -20t28.5 -67q0 -24 -12 -47.5t-43.5 -39t-90.5 -15.5zM204 796q-25 0 -48 -23t-42 -59q21 -1 37 -1q57 0 74.5 13t17.5 32q0 20 -12 29t-27 9zM393 536 q0 22 -3 53t-7 62t-8 53l86 10q3 -20 6.5 -52.5t5.5 -64.5t2 -53q0 -63 -11.5 -122.5t-37.5 -115.5q47 -49 69 -90t22 -81q0 -29 -14 -60.5t-51 -53t-107 -21.5h-230v81q150 107 214 213q-56 50 -131.5 107t-157.5 116l47 66q89 -66 158 -119.5t119 -98.5q15 40 22 82.5 t7 88.5zM234 82h126q51 0 67 18.5t16 42.5q0 18 -14.5 42t-40.5 52q-28 -42 -66.5 -81t-87.5 -74z" />
<glyph unicode="&#xfee0;&#xfb51;" horiz-adv-x="635" d="M151 661q-22 0 -52.5 2t-57.5 5.5t-41 5.5l7 51q9 -1 23 -3t31 -3q14 30 34.5 60t48 50.5t64.5 20.5q32 0 60.5 -20t28.5 -67q0 -24 -12 -47.5t-43.5 -39t-90.5 -15.5zM204 796q-25 0 -48 -23t-42 -59q21 -1 37 -1q57 0 74.5 13t17.5 32q0 20 -12 29t-27 9zM142 -5 q-27 0 -54.5 4.5t-38.5 6.5l11 79q90 -12 164.5 2.5t118.5 72.5q-39 64 -117 155.5t-186 188.5l54 57q106 -100 175 -181t111 -141q12 43 14 98l-14 377h82l20 -515q2 -49 9.5 -75.5t34 -36.5t83.5 -10q21 0 30.5 -11.5t9.5 -27.5t-14 -29.5t-36 -13.5q-70 0 -111 13.5 t-60 42t-25 73.5q-31 -55 -76 -83t-93.5 -37t-91.5 -9z" />
<glyph unicode="&#x620;" horiz-adv-x="299" d="M0 -5l10 82q59 0 92 4.5t47 23t14 58.5q0 38 -17.5 95.5t-39.5 114.5l81 30q13 -32 24.5 -73t19.5 -81t8 -70q0 -96 -51 -138q16 -12 25.5 -30.5t9.5 -40.5q0 -37 -26 -63t-63 -26t-63 26t-26 63q0 14 4 27q-23 -2 -49 -2zM134 -68q17 0 29 11t12 27q0 17 -12 28.5 t-29 11.5h-1.5t-8.5 -1q-1 -1 -2 -1q-13 -3 -21 -14t-8 -24q0 -16 12 -27t29 -11z" />
<glyph unicode="&#x620;" horiz-adv-x="373" d="M0 -5l10 82q50 0 78 7.5t42.5 29t23.5 62.5t22 107l78 -15q-6 -27 -13.5 -62t-7.5 -59q0 -15 2 -28t15 -22t44 -14.5t89 -5.5q21 0 30.5 -11.5t9.5 -27.5t-14 -29.5t-36 -13.5q-65 0 -101.5 7.5t-54 22t-25.5 36.5q-12 -17 -26 -29q15 -12 24 -30t9 -39q0 -37 -26 -63 t-63 -26t-63 26t-26 63q0 17 6 32h-27zM110 -75q17 0 29 11t12 27q0 17 -12 28.5t-29 11.5t-29 -11.5t-12 -28.5q0 -16 12 -27t29 -11z" />
<glyph unicode="&#x620;" horiz-adv-x="736" d="M30 -1q0 36 10 80t32 97l72 -28q-16 -42 -24 -77t-8 -65q0 -55 32.5 -90t86 -51t117.5 -16q77 0 140.5 18t101.5 47.5t38 65.5q0 26 -40 45t-112 39l19 83q104 -40 162 -55t89 -15q21 0 30.5 -11.5t9.5 -27.5t-14 -29.5t-36 -13.5h-37q2 -9 3 -14.5t1 -14.5 q0 -43 -34.5 -83.5t-100 -70t-157.5 -39.5q12 -21 12 -45q0 -37 -26 -63t-63 -26t-63 26t-26 63q0 24 12 45q-64 10 -115.5 38t-81.5 75t-30 113zM334 -310q17 0 29 11t12 27q0 17 -12 28.5t-29 11.5t-29 -11.5t-12 -28.5q0 -16 12 -27t29 -11z" />
<glyph unicode="&#x627;" horiz-adv-x="225" arabic-form="final" d="M125 800v-700h120v-100h-180l-20 2t-20 21v755z" />
<glyph unicode="&#x627;" horiz-adv-x="220" arabic-form="isolated" d="M125 800v-720q0 -35 38 -33t57 11q-8 -28 -38.5 -45t-67 -17.5t-63 19.5t-26.5 65v698z" />
<glyph unicode="&#x62d;" horiz-adv-x="685" arabic-form="initial" d="M173 100q-21 12 -43.5 38t-34.5 45l56 107q53 -83 123 -136.5t142 -53.5h244l-60 -100h-620v100h193z" />
<glyph unicode="&#x62d;" horiz-adv-x="378" arabic-form="medial" d="M70 259h-45l-50 100h167l269 -482l-83 -77q-64 115 -129 229.5t-129 229.5zM-20 100h418v-100h-418v100z" />
<glyph unicode="&#x62d;" horiz-adv-x="430" arabic-form="final" d="M122 259h-45l-50 100h167l269 -482l-83 -77q-64 115 -129 229.5t-129 229.5zM182 100h268v-100h-268q-20 0 -45.5 -17t-25.5 -55q0 -54 33 -77.5t76.5 -25.5t75.5 8q-43 -30 -109 -34t-112 31q-23 17 -36.5 45t-13.5 68q0 53 30.5 105t126.5 52z" />
<glyph unicode="&#x62d;" horiz-adv-x="515" arabic-form="isolated" d="M25 -60q0 62 30 94t63 51q-22 15 -50 49.5t-43 58.5l56 107q53 -83 116 -141.5t114 -58.5h179l-60 -100h-232q-20 0 -46 -20.5t-26 -51.5q0 -54 48 -73t106.5 -16t90.5 14q-35 -41 -108.5 -55.5t-130.5 2.5q-43 14 -75 50.5t-32 89.5z" />
<glyph unicode="&#x62f;" horiz-adv-x="920" arabic-form="final" d="M940 100v-100h-915l60 100h635q1 42 -16.5 71t-73.5 29h-495l132 220l10 -7l-52 -113h405q82 0 122 -29t53 -75t15 -96h120z" />
<glyph unicode="&#x62f;" horiz-adv-x="870" arabic-form="isolated" d="M277 413l-52 -113h430q103 0 142 -44t43.5 -108.5t4.5 -124.5q0 -19 -20 -21l-20 -2h-780l60 100h660q1 42 -16.5 71t-73.5 29h-520l132 220z" />
<glyph unicode="&#x631;" horiz-adv-x="300" arabic-form="final" d="M320 100v-100h-146v100h146zM200 -60q0 -66 -34.5 -102t-83.5 -44.5t-95.5 6.5t-71.5 50q77 -20 116.5 -10.5t54 36t14.5 54.5v348l100 22v-360z" />
<glyph unicode="&#x631;" horiz-adv-x="225" arabic-form="isolated" d="M200 -60q0 -66 -34.5 -102t-83.5 -44.5t-95.5 6.5t-71.5 50q77 -20 116.5 -10.5t54 36t14.5 54.5v348l100 22v-360z" />
<glyph unicode="&#x633;" horiz-adv-x="625" arabic-form="initial" d="M600 300v-277q0 -19 -20 -21l-20 -2h-580v100h120v178l100 22v-200h100v178l100 22v-200h100v178z" />
<glyph unicode="&#x633;" horiz-adv-x="700" arabic-form="medial" d="M720 100v-100h-740v100h120v178l100 22v-200h100v228l100 22v-250h100v278l100 22v-300h120z" />
<glyph unicode="&#x633;" horiz-adv-x="945" arabic-form="final" d="M445 0q-1 -85 -58.5 -142.5t-170.5 -57.5q-82 0 -122.5 37t-54.5 84.5t-14 78.5q0 66 39.5 121.5t86.5 85.5q5 -39 -20 -72q16 -7 24.5 -24t4.5 -34q-27 15 -49 13q-29 -3 -42.5 -32t-13.5 -58q0 -57 34 -100t127 -43q76 0 102.5 50t26.5 133v288l100 22v-250h100v228 l100 22v-250h100v228l100 22v-250h120v-100h-520z" />
<glyph unicode="&#x633;" horiz-adv-x="870" arabic-form="isolated" d="M445 0q-1 -85 -58.5 -142.5t-170.5 -57.5q-82 0 -122.5 37t-54.5 84.5t-14 78.5q0 66 39.5 121.5t86.5 85.5q5 -39 -20 -72q16 -7 24.5 -24t4.5 -34q-27 15 -49 13q-29 -3 -42.5 -32t-13.5 -58q0 -57 34 -100t127 -43q76 0 102.5 50t26.5 133v238l100 22v-200h100v178 l100 22v-200h100v178l100 22v-277q0 -19 -20 -21l-20 -2h-360z" />
<glyph unicode="&#x635;" horiz-adv-x="940" arabic-form="initial" d="M115 50v328l100 22v-350h-100zM160 300h565q103 0 142 -44t43.5 -108.5t4.5 -124.5q0 -19 -20 -21l-20 -2h-895v100h835q1 42 -16.5 71t-73.5 29h-565v100z" />
<glyph unicode="&#x635;" horiz-adv-x="1015" arabic-form="medial" d="M160 300h565q82 0 122 -29t53.5 -75t14.5 -96h120v-100h-1055v100h835q1 42 -16.5 71t-73.5 29h-565v100zM115 50v328l100 22v-350h-100z" />
<glyph unicode="&#x635;" horiz-adv-x="1245" arabic-form="final" d="M390 300h565q82 0 122 -29t53.5 -75t14.5 -96h120v-100h-875v100h655q1 42 -16.5 71t-73.5 29h-565v100zM445 0q-1 -85 -58.5 -142.5t-170.5 -57.5q-82 0 -122.5 37t-54.5 84.5t-14 78.5q0 66 39.5 121.5t86.5 85.5q5 -39 -20 -72q16 -7 24.5 -24t4.5 -34q-27 15 -49 13 q-29 -3 -42.5 -32t-13.5 -58q0 -57 34 -100t127 -43q76 0 102.5 50t26.5 133v338l100 22v-400z" />
<glyph unicode="&#x635;" horiz-adv-x="1170" arabic-form="isolated" d="M445 0q-1 -85 -58.5 -142.5t-170.5 -57.5q-82 0 -122.5 37t-54.5 84.5t-14 78.5q0 66 39.5 121.5t86.5 85.5q5 -39 -20 -72q16 -7 24.5 -24t4.5 -34q-27 15 -49 13q-29 -3 -42.5 -32t-13.5 -58q0 -57 34 -100t127 -43q76 0 102.5 50t26.5 133v338l100 22v-400zM390 300 h565q103 0 142 -44t43.5 -108.5t4.5 -124.5q0 -19 -20 -21l-20 -2h-715v100h655q1 42 -16.5 71t-73.5 29h-565v100z" />
<glyph unicode="&#x637;" horiz-adv-x="940" arabic-form="initial" d="M115 50v728l100 22v-750h-100zM160 300h565q103 0 142 -44t43.5 -108.5t4.5 -124.5q0 -19 -20 -21l-20 -2h-895v100h835q1 42 -16.5 71t-73.5 29h-565v100z" />
<glyph unicode="&#x637;" horiz-adv-x="1015" arabic-form="medial" d="M160 300h565q82 0 122 -29t53.5 -75t14.5 -96h120v-100h-1055v100h835q1 42 -16.5 71t-73.5 29h-565v100zM115 50v728l100 22v-750h-100z" />
<glyph unicode="&#x637;" horiz-adv-x="1085" arabic-form="final" d="M230 300h565q82 0 122 -29t53.5 -75t14.5 -96h120v-100h-1080l60 100h800q1 42 -16.5 71t-73.5 29h-565v100zM185 50v728l100 22v-750h-100z" />
<glyph unicode="&#x637;" horiz-adv-x="1010" arabic-form="isolated" d="M185 50v728l100 22v-750h-100zM230 300h565q103 0 142 -44t43.5 -108.5t4.5 -124.5q0 -19 -20 -21l-20 -2h-920l60 100h800q1 42 -16.5 71t-73.5 29h-565v100z" />
<glyph unicode="&#x639;" horiz-adv-x="535" arabic-form="initial" d="M96 100q-21 12 -24 41t6 42q12 19 59 54t169 74l7 -9q-113 -52 -134 -102q-13 -33 8 -54q14 -15 33.5 -30.5t49.5 -15.5h240l-60 -100h-470v100h116z" />
<glyph unicode="&#x639;" horiz-adv-x="350" arabic-form="medial" d="M-20 100h390v-100h-390v100zM181 31l-222 242l66 91l237 -258zM155 50v328l100 22v-350h-100z" />
<glyph unicode="&#x639;" horiz-adv-x="430" arabic-form="final" d="M251 31l-222 242l66 91l237 -258zM225 50v328l100 22v-350h-100zM171 100h279v-100h-252q-20 0 -46 -20.5t-26 -51.5q0 -54 48 -73t106.5 -16t90.5 14q-35 -41 -108.5 -55.5t-130.5 2.5q-43 14 -75 50.5t-32 89.5q0 62 35 111t111 49z" />
<glyph unicode="&#x639;" horiz-adv-x="370" arabic-form="isolated" d="M25 -60q0 38 13.5 61t31.5 41q-50 42 -47.5 103t41 108t95.5 47q80 0 114 -76q-45 39 -93 30q-25 -4 -43 -24.5t-18 -45.5q0 -38 29 -61t60 -23h132l-60 -100h-82q-20 0 -46 -20.5t-26 -51.5q0 -54 47.5 -73t106 -16t90.5 14q-34 -41 -107.5 -55.5t-130.5 2.5 q-43 14 -75 50.5t-32 89.5z" />
<glyph unicode="&#x63b;" horiz-adv-x="412" d="M262 723q-21 0 -35.5 14.5t-14.5 34.5t14.5 35t35.5 15q20 0 34.5 -15t14.5 -35t-14.5 -34.5t-34.5 -14.5zM147 670q-21 0 -35.5 14.5t-14.5 34.5t14.5 35t35.5 15q20 0 34.5 -15t14.5 -35t-14.5 -34.5t-34.5 -14.5zM0 -5l10 82h94q59 0 93.5 6.5t51 17t22 23t5.5 25.5 q0 23 -17.5 57t-71.5 88q-37 38 -74 67t-61 49t-24 29q0 23 5.5 43t15.5 31q40 43 125.5 86.5t213.5 107.5l34 -74q-91 -44 -148.5 -72.5t-95 -50t-69.5 -43.5q117 -95 179.5 -170.5t62.5 -152.5q0 -22 -8 -48t-34 -49t-78 -37.5t-140 -14.5h-91z" />
<glyph unicode="&#x63b;" horiz-adv-x="508" d="M230 723q-21 0 -35.5 14.5t-14.5 34.5t14.5 35t35.5 15q20 0 34.5 -15t14.5 -35t-14.5 -34.5t-34.5 -14.5zM115 670q-21 0 -35.5 14.5t-14.5 34.5t14.5 35t35.5 15q20 0 34.5 -15t14.5 -35t-14.5 -34.5t-34.5 -14.5zM0 -5l10 82h77q83 0 123 9t52.5 24t12.5 31 q0 24 -18 53t-46 59.5t-59.5 60.5t-59.5 55t-46 43.5t-18 26.5q0 23 5.5 43t15.5 31q27 29 79.5 60.5t120.5 65t139 68.5l34 -74q-88 -44 -172.5 -85t-147.5 -85q55 -47 103 -91t89 -94.5t75 -114.5q21 -39 49 -57t55.5 -23.5t44.5 -5.5q21 0 30.5 -11.5t9.5 -27.5 t-14 -29.5t-36 -13.5q-24 0 -55.5 6.5t-63.5 25t-56 54.5q-20 -29 -50 -48t-78 -28.5t-122 -9.5h-83z" />
<glyph unicode="&#x63b;" horiz-adv-x="975" d="M733 723q-21 0 -35.5 14.5t-14.5 34.5t14.5 35t35.5 15q20 0 34.5 -15t14.5 -35t-14.5 -34.5t-34.5 -14.5zM618 670q-21 0 -35.5 14.5t-14.5 34.5t14.5 35t35.5 15q20 0 34.5 -15t14.5 -35t-14.5 -34.5t-34.5 -14.5zM390 -21q-178 0 -269 47t-91 156q0 37 9 78.5t19 78.5 l75 -19q-6 -22 -13.5 -55.5t-7.5 -59.5q0 -52 26.5 -83.5t92.5 -46t185 -14.5q125 0 196 13t100.5 32t29.5 35q0 24 -18 53t-46 59.5t-59.5 60.5t-59.5 55t-46 43.5t-18 26.5q0 23 5.5 43t15.5 31q27 29 79.5 60.5t120.5 65t139 68.5l34 -74q-88 -44 -172.5 -85t-147.5 -85 q55 -47 103 -91t89 -94.5t75 -114.5q21 -39 49 -57t55.5 -23.5t44.5 -5.5q21 0 30.5 -11.5t9.5 -27.5t-14 -29.5t-36 -13.5q-24 0 -56 6.5t-63.5 25t-55.5 54.5q-17 -22 -45 -41t-74.5 -32.5t-117.5 -21t-173 -7.5z" />
<glyph unicode="&#x63c;" horiz-adv-x="412" d="M0 -5l10 82h94q59 0 93.5 6.5t51 17t22 23t5.5 25.5q0 23 -17.5 57t-71.5 88q-37 38 -74 67t-61 49t-24 29q0 23 5.5 43t15.5 31q40 43 125.5 86.5t213.5 107.5l34 -74q-91 -44 -148.5 -72.5t-95 -50t-69.5 -43.5q117 -95 179.5 -170.5t62.5 -152.5q0 -22 -8 -48t-34 -49 t-78 -37.5t-140 -14.5h-91zM95 -189q-21 0 -35.5 14.5t-14.5 34.5t14.5 35t35.5 15q20 0 34.5 -15t14.5 -35t-14.5 -34.5t-34.5 -14.5zM231 -189q-21 0 -35.5 14.5t-14.5 34.5t14.5 35t35.5 15q20 0 34.5 -15t14.5 -35t-14.5 -34.5t-34.5 -14.5zM163 -299q-21 0 -35.5 14.5 t-14.5 34.5t14.5 35t35.5 15q20 0 34.5 -15t14.5 -35t-14.5 -34.5t-34.5 -14.5z" />
<glyph unicode="&#x63c;" horiz-adv-x="508" d="M0 -5l10 82h77q83 0 123 9t52.5 24t12.5 31q0 24 -18 53t-46 59.5t-59.5 60.5t-59.5 55t-46 43.5t-18 26.5q0 23 5.5 43t15.5 31q27 29 79.5 60.5t120.5 65t139 68.5l34 -74q-88 -44 -172.5 -85t-147.5 -85q55 -47 103 -91t89 -94.5t75 -114.5q21 -39 49 -57t55.5 -23.5 t44.5 -5.5q21 0 30.5 -11.5t9.5 -27.5t-14 -29.5t-36 -13.5q-24 0 -55.5 6.5t-63.5 25t-56 54.5q-20 -29 -50 -48t-78 -28.5t-122 -9.5h-83zM95 -189q-21 0 -35.5 14.5t-14.5 34.5t14.5 35t35.5 15q20 0 34.5 -15t14.5 -35t-14.5 -34.5t-34.5 -14.5zM231 -189 q-21 0 -35.5 14.5t-14.5 34.5t14.5 35t35.5 15q20 0 34.5 -15t14.5 -35t-14.5 -34.5t-34.5 -14.5zM163 -299q-21 0 -35.5 14.5t-14.5 34.5t14.5 35t35.5 15q20 0 34.5 -15t14.5 -35t-14.5 -34.5t-34.5 -14.5z" />
<glyph unicode="&#x63c;" horiz-adv-x="975" d="M390 -21q-178 0 -269 47t-91 156q0 37 9 78.5t19 78.5l75 -19q-6 -22 -13.5 -55.5t-7.5 -59.5q0 -52 26.5 -83.5t92.5 -46t185 -14.5q125 0 196 13t100.5 32t29.5 35q0 24 -18 53t-46 59.5t-59.5 60.5t-59.5 55t-46 43.5t-18 26.5q0 23 5.5 43t15.5 31q27 29 79.5 60.5 t120.5 65t139 68.5l34 -74q-88 -44 -172.5 -85t-147.5 -85q55 -47 103 -91t89 -94.5t75 -114.5q21 -39 49 -57t55.5 -23.5t44.5 -5.5q21 0 30.5 -11.5t9.5 -27.5t-14 -29.5t-36 -13.5q-24 0 -56 6.5t-63.5 25t-55.5 54.5q-17 -22 -45 -41t-74.5 -32.5t-117.5 -21t-173 -7.5z M342 -210q-21 0 -35.5 14.5t-14.5 34.5t14.5 35t35.5 15q20 0 34.5 -15t14.5 -35t-14.5 -34.5t-34.5 -14.5zM478 -210q-21 0 -35.5 14.5t-14.5 34.5t14.5 35t35.5 15q20 0 34.5 -15t14.5 -35t-14.5 -34.5t-34.5 -14.5zM410 -320q-21 0 -35.5 14.5t-14.5 34.5t14.5 35 t35.5 15q20 0 34.5 -15t14.5 -35t-14.5 -34.5t-34.5 -14.5z" />
<glyph unicode="&#x63d;" horiz-adv-x="269" d="M0 -5l10 82q49 0 78 6t42 24.5t13 55.5q0 38 -17.5 95.5t-39.5 114.5l81 30q13 -32 24.5 -73t19.5 -81t8 -70q0 -100 -53.5 -142t-165.5 -42zM93 726l59 6q9 -20 25 -53.5t33 -67t29 -54.5l-46 -25q-7 12 -20 36.5t-27.5 52t-24.5 49.5q-11 -26 -24 -55.5t-24 -53 t-16 -31.5l-45 19q5 10 16 32.5t24 50t24 53t17 41.5zM179 -194q-21 0 -35.5 14.5t-14.5 34.5t14.5 35t35.5 15q20 0 34.5 -15t14.5 -35t-14.5 -34.5t-34.5 -14.5zM42 -194q-21 0 -35.5 14.5t-14.5 34.5t14.5 35t35.5 15q20 0 34.5 -15t14.5 -35t-14.5 -34.5t-34.5 -14.5z " />
<glyph unicode="&#x63d;" horiz-adv-x="343" d="M0 -5l10 82q42 0 66 7.5t36.5 29t21.5 62.5t22 107l78 -15q-6 -27 -13.5 -62t-7.5 -59q0 -20 9 -36t39 -25t92 -9q21 0 30.5 -11.5t9.5 -27.5t-14 -29.5t-36 -13.5q-79 0 -117 17t-52 51q-30 -42 -69 -55t-105 -13zM152 605l59 6q9 -20 25 -53.5t33 -67t29 -54.5l-46 -25 q-7 12 -20 36.5t-27.5 52t-24.5 49.5q-11 -26 -24 -55.5t-24 -53t-16 -31.5l-45 19q5 10 16 32.5t24 50t24 53t17 41.5zM242 -194q-21 0 -35.5 14.5t-14.5 34.5t14.5 35t35.5 15q20 0 34.5 -15t14.5 -35t-14.5 -34.5t-34.5 -14.5zM105 -194q-21 0 -35.5 14.5t-14.5 34.5 t14.5 35t35.5 15q20 0 34.5 -15t14.5 -35t-14.5 -34.5t-34.5 -14.5z" />
<glyph unicode="&#x63d;" horiz-adv-x="736" d="M30 -1q0 36 10 80t32 97l72 -28q-16 -42 -24 -77t-8 -65q0 -55 32.5 -90t86 -51t117.5 -16q77 0 140.5 18t101.5 47.5t38 65.5q0 26 -40 45t-112 39l19 83q104 -40 162 -55t89 -15q21 0 30.5 -11.5t9.5 -27.5t-14 -29.5t-36 -13.5h-37q2 -9 3 -14.5t1 -14.5 q0 -49 -45 -94.5t-129.5 -74.5t-202.5 -29q-79 0 -146.5 25.5t-108.5 76.5t-41 129zM182 472l59 6q9 -20 25 -53.5t33 -67t29 -54.5l-46 -25q-7 12 -20 36.5t-27.5 52t-24.5 49.5q-11 -26 -24 -55.5t-24 -53t-16 -31.5l-45 19q5 10 16 32.5t24 50t24 53t17 41.5z" />
<glyph unicode="&#x63e;" horiz-adv-x="299" d="M218 507q-21 0 -35.5 14.5t-14.5 34.5t14.5 35t35.5 15q20 0 34.5 -15t14.5 -35t-14.5 -34.5t-34.5 -14.5zM81 507q-21 0 -35.5 14.5t-14.5 34.5t14.5 35t35.5 15q20 0 34.5 -15t14.5 -35t-14.5 -34.5t-34.5 -14.5zM0 -5l10 82q59 0 92 4.5t47 23t14 58.5 q0 38 -17.5 95.5t-39.5 114.5l81 30q13 -32 24.5 -73t19.5 -81t8 -70q0 -100 -56 -142t-183 -42zM185 -194q-21 0 -35.5 14.5t-14.5 34.5t14.5 35t35.5 15q20 0 34.5 -15t14.5 -35t-14.5 -34.5t-34.5 -14.5zM48 -194q-21 0 -35.5 14.5t-14.5 34.5t14.5 35t35.5 15 q20 0 34.5 -15t14.5 -35t-14.5 -34.5t-34.5 -14.5z" />
<glyph unicode="&#x63e;" horiz-adv-x="373" d="M267 386q-21 0 -35.5 14.5t-14.5 34.5t14.5 35t35.5 15q20 0 34.5 -15t14.5 -35t-14.5 -34.5t-34.5 -14.5zM130 386q-21 0 -35.5 14.5t-14.5 34.5t14.5 35t35.5 15q20 0 34.5 -15t14.5 -35t-14.5 -34.5t-34.5 -14.5zM0 -5l10 82q50 0 78 7.5t42.5 29t23.5 62.5t22 107 l78 -15q-6 -27 -13.5 -62t-7.5 -59q0 -15 2 -28t15 -22t44 -14.5t89 -5.5q21 0 30.5 -11.5t9.5 -27.5t-14 -29.5t-36 -13.5q-65 0 -101.5 7.5t-54 22t-25.5 36.5q-29 -41 -71.5 -53.5t-120.5 -12.5zM252 -194q-21 0 -35.5 14.5t-14.5 34.5t14.5 35t35.5 15q20 0 34.5 -15 t14.5 -35t-14.5 -34.5t-34.5 -14.5zM115 -194q-21 0 -35.5 14.5t-14.5 34.5t14.5 35t35.5 15q20 0 34.5 -15t14.5 -35t-14.5 -34.5t-34.5 -14.5z" />
<glyph unicode="&#x63e;" horiz-adv-x="736" d="M30 -1q0 36 10 80t32 97l72 -28q-16 -42 -24 -77t-8 -65q0 -55 32.5 -90t86 -51t117.5 -16q77 0 140.5 18t101.5 47.5t38 65.5q0 26 -40 45t-112 39l19 83q104 -40 162 -55t89 -15q21 0 30.5 -11.5t9.5 -27.5t-14 -29.5t-36 -13.5h-37q2 -9 3 -14.5t1 -14.5 q0 -49 -45 -94.5t-129.5 -74.5t-202.5 -29q-79 0 -146.5 25.5t-108.5 76.5t-41 129zM287 253q-21 0 -35.5 14.5t-14.5 34.5t14.5 35t35.5 15q20 0 34.5 -15t14.5 -35t-14.5 -34.5t-34.5 -14.5zM150 253q-21 0 -35.5 14.5t-14.5 34.5t14.5 35t35.5 15q20 0 34.5 -15t14.5 -35 t-14.5 -34.5t-34.5 -14.5z" />
<glyph unicode="&#x63f;" horiz-adv-x="299" d="M150 617q-21 0 -35.5 14.5t-14.5 34.5t14.5 35t35.5 15q20 0 34.5 -15t14.5 -35t-14.5 -34.5t-34.5 -14.5zM82 507q-21 0 -35.5 14.5t-14.5 34.5t14.5 35t35.5 15q20 0 34.5 -15t14.5 -35t-14.5 -34.5t-34.5 -14.5zM218 507q-21 0 -35.5 14.5t-14.5 34.5t14.5 35t35.5 15 q20 0 34.5 -15t14.5 -35t-14.5 -34.5t-34.5 -14.5zM0 -5l10 82q59 0 92 4.5t47 23t14 58.5q0 38 -17.5 95.5t-39.5 114.5l81 30q13 -32 24.5 -73t19.5 -81t8 -70q0 -100 -56 -142t-183 -42zM185 -194q-21 0 -35.5 14.5t-14.5 34.5t14.5 35t35.5 15q20 0 34.5 -15t14.5 -35 t-14.5 -34.5t-34.5 -14.5zM48 -194q-21 0 -35.5 14.5t-14.5 34.5t14.5 35t35.5 15q20 0 34.5 -15t14.5 -35t-14.5 -34.5t-34.5 -14.5z" />
<glyph unicode="&#x63f;" horiz-adv-x="373" d="M199 496q-21 0 -35.5 14.5t-14.5 34.5t14.5 35t35.5 15q20 0 34.5 -15t14.5 -35t-14.5 -34.5t-34.5 -14.5zM131 386q-21 0 -35.5 14.5t-14.5 34.5t14.5 35t35.5 15q20 0 34.5 -15t14.5 -35t-14.5 -34.5t-34.5 -14.5zM267 386q-21 0 -35.5 14.5t-14.5 34.5t14.5 35 t35.5 15q20 0 34.5 -15t14.5 -35t-14.5 -34.5t-34.5 -14.5zM0 -5l10 82q50 0 78 7.5t42.5 29t23.5 62.5t22 107l78 -15q-6 -27 -13.5 -62t-7.5 -59q0 -15 2 -28t15 -22t44 -14.5t89 -5.5q21 0 30.5 -11.5t9.5 -27.5t-14 -29.5t-36 -13.5q-65 0 -101.5 7.5t-54 22t-25.5 36.5 q-29 -41 -71.5 -53.5t-120.5 -12.5zM252 -194q-21 0 -35.5 14.5t-14.5 34.5t14.5 35t35.5 15q20 0 34.5 -15t14.5 -35t-14.5 -34.5t-34.5 -14.5zM115 -194q-21 0 -35.5 14.5t-14.5 34.5t14.5 35t35.5 15q20 0 34.5 -15t14.5 -35t-14.5 -34.5t-34.5 -14.5z" />
<glyph unicode="&#x63f;" horiz-adv-x="736" d="M30 -1q0 36 10 80t32 97l72 -28q-16 -42 -24 -77t-8 -65q0 -55 32.5 -90t86 -51t117.5 -16q77 0 140.5 18t101.5 47.5t38 65.5q0 26 -40 45t-112 39l19 83q104 -40 162 -55t89 -15q21 0 30.5 -11.5t9.5 -27.5t-14 -29.5t-36 -13.5h-37q2 -9 3 -14.5t1 -14.5 q0 -49 -45 -94.5t-129.5 -74.5t-202.5 -29q-79 0 -146.5 25.5t-108.5 76.5t-41 129zM219 363q-21 0 -35.5 14.5t-14.5 34.5t14.5 35t35.5 15q20 0 34.5 -15t14.5 -35t-14.5 -34.5t-34.5 -14.5zM151 253q-21 0 -35.5 14.5t-14.5 34.5t14.5 35t35.5 15q20 0 34.5 -15t14.5 -35 t-14.5 -34.5t-34.5 -14.5zM287 253q-21 0 -35.5 14.5t-14.5 34.5t14.5 35t35.5 15q20 0 34.5 -15t14.5 -35t-14.5 -34.5t-34.5 -14.5z" />
<glyph unicode="&#x643;" horiz-adv-x="940" arabic-form="initial" d="M115 200v578l100 22v-600h-100zM160 300h565q103 0 142 -44t43.5 -108.5t4.5 -124.5q0 -19 -20 -21l-20 -2h-895v100h835q1 42 -16.5 71t-73.5 29h-565v100z" />
<glyph unicode="&#x643;" horiz-adv-x="985" arabic-form="medial" d="M345 561q18 25 11 63.5t-33 60.5q-39 34 -106 25q-16 -2 -35.5 -14t-32.5 -22l-44 149q17 -6 38 -9t41 0q54 10 112 1.5t98 -47.5q61 -58 70 -136t-39 -149l-127 -183h377q82 0 122 -29t53.5 -75t14.5 -96h140v-100h-1025v100h785q1 42 -16.5 71t-73.5 29h-581 q32 45 74.5 106t83 119t67 97z" />
<glyph unicode="&#x643;" horiz-adv-x="965" arabic-form="final" d="M110 300h565q82 0 122 -29t53.5 -75t14.5 -96h120v-100h-960l60 100h680q1 42 -16.5 71t-73.5 29h-565v100zM85 200v578l100 22v-600h-100z" />
<glyph unicode="&#x643;" horiz-adv-x="1010" arabic-form="isolated" d="M586 431q-11 20 -26 5l-229 -225l-77 78l332 327v-185zM265 300h530q103 0 142 -44t43.5 -108.5t4.5 -124.5q0 -19 -20 -21l-20 -2h-920l60 100h800q1 42 -16.5 71t-73.5 29h-630z" />
<glyph unicode="&#x644;" horiz-adv-x="225" arabic-form="initial" d="M200 800v-777q0 -19 -20 -21l-20 -2h-180v100h120v678z" />
<glyph unicode="&#x644;" horiz-adv-x="300" arabic-form="medial" d="M200 800v-700h120v-100h-340v100h120v678z" />
<glyph unicode="&#x644;" horiz-adv-x="545" arabic-form="final" d="M565 100v-100h-170v100h170zM445 0q0 -85 -58 -142.5t-171 -57.5q-82 0 -122.5 37t-54.5 84.5t-14 78.5q0 66 39.5 121.5t86.5 85.5q5 -39 -20 -72q16 -7 24.5 -24t4.5 -34q-27 15 -49 13q-29 -3 -42.5 -32t-13.5 -58q0 -57 34 -100t127 -43q76 0 102.5 50t26.5 133v738 l100 22v-800z" />
<glyph unicode="&#x644;" horiz-adv-x="470" arabic-form="isolated" d="M445 0q0 -85 -58 -142.5t-171 -57.5q-82 0 -122.5 37t-54.5 84.5t-14 78.5q0 66 39.5 121.5t86.5 85.5q5 -39 -20 -72q16 -7 24.5 -24t4.5 -34q-27 15 -49 13q-29 -3 -42.5 -32t-13.5 -58q0 -57 34 -100t127 -43q76 0 102.5 50t26.5 133v738l100 22v-800z" />
<glyph unicode="&#x645;" horiz-adv-x="418" arabic-form="initial" d="M96 150q0 62 44 106t105 44t104.5 -44t43.5 -106t-43.5 -106t-104.5 -44t-105 44t-44 106zM-20 100h200l65 -100h-265v100zM195 150q0 -21 14.5 -35.5t35.5 -14.5t35.5 14.5t14.5 35.5t-14.5 35.5t-35.5 14.5t-35.5 -14.5t-14.5 -35.5z" />
<glyph unicode="&#x645;" horiz-adv-x="490" arabic-form="medial" d="M-20 100h200l65 -100h-265v100zM510 100v-100h-265l65 100h200zM96 150q0 51 30 90.5t76 53.5q10 3 23 14.5t20 41.5q8 -30 21.5 -41.5t23.5 -15.5q45 -14 74 -53.5t29 -89.5q0 -62 -43.5 -106t-104.5 -44t-105 44t-44 106zM195 150q0 -21 14.5 -35.5t35.5 -14.5 t35.5 14.5t14.5 35.5t-14.5 35.5t-35.5 14.5t-35.5 -14.5t-14.5 -35.5z" />
<glyph unicode="&#x645;" horiz-adv-x="685" arabic-form="final" d="M705 100v-100h-265l65 100h200zM291 150q0 51 30 90.5t76 53.5q11 3 23 14.5t20 41.5q8 -30 21 -41.5t24 -15.5q45 -14 74 -53.5t29 -89.5q0 -62 -43 -106t-105 -44t-105.5 44t-43.5 106zM440 0h-415l84 140q10 -20 30 -30t38 -10h203zM390 150q0 -21 14.5 -35.5 t35.5 -14.5t35.5 14.5t14.5 35.5t-14.5 35.5t-35.5 14.5t-35.5 -14.5t-14.5 -35.5z" />
<glyph unicode="&#x645;" horiz-adv-x="613" arabic-form="isolated" d="M440 0h-415l84 140q10 -20 30 -30t38 -10h203zM390 150q0 -21 14.5 -35.5t35.5 -14.5t35.5 14.5t14.5 35.5t-14.5 35.5t-35.5 14.5t-35.5 -14.5t-14.5 -35.5zM291 150q0 59 40.5 102.5t98.5 47.5q5 20 13 30t16 19q129 -81 129 -199q0 -62 -43 -106t-105 -44t-105.5 44 t-43.5 106z" />
<glyph unicode="&#x647;" horiz-adv-x="419" arabic-form="initial" d="M111 150v-200h-14v200h14zM195 -50q0 -21 14.5 -35.5t35.5 -14.5t35.5 14.5t14.5 35.5t-14.5 35.5t-35.5 14.5t-35.5 -14.5t-14.5 -35.5zM97 -50q0 62 43.5 106t104.5 44t105 -44t44 -106t-44 -106t-105 -44t-104.5 44t-43.5 106zM-20 100h200l65 -100h-265v100zM394 150 v-200h-44v200h44zM394 150l-149 150q26 0 77.5 3.5t71.5 42.5v-196zM195 150q0 -21 14.5 -35.5t35.5 -14.5t35.5 14.5t14.5 35.5t-14.5 35.5t-35.5 14.5t-35.5 -14.5t-14.5 -35.5zM97 150q0 62 43.5 106t104.5 44t105 -44t44 -106t-44 -106t-105 -44t-104.5 44t-43.5 106z " />
<glyph unicode="&#x647;" horiz-adv-x="487" arabic-form="medial" d="M111 150v-200h-14v200h14zM195 -50q0 -21 14.5 -35.5t35.5 -14.5t35.5 14.5t14.5 35.5t-14.5 35.5t-35.5 14.5t-35.5 -14.5t-14.5 -35.5zM97 -50q0 62 43.5 106t104.5 44t105 -44t44 -106t-44 -106t-105 -44t-104.5 44t-43.5 106zM-20 100h200l65 -100h-265v100zM394 150 v-200h-14v200h14zM507 100v-100h-262l65 100h197zM394 150l-149 150q26 0 77.5 3.5t71.5 42.5v-196zM195 150q0 -21 14.5 -35.5t35.5 -14.5t35.5 14.5t14.5 35.5t-14.5 35.5t-35.5 14.5t-35.5 -14.5t-14.5 -35.5zM97 150q0 62 43.5 106t104.5 44t105 -44t44 -106t-44 -106 t-105 -44t-104.5 44t-43.5 106z" />
<glyph unicode="&#x647;" horiz-adv-x="415" arabic-form="final" d="M322 150v-63h-14v63h14zM435 100v-100h-262l65 100h197zM322 150l-149 150q26 0 77.5 3.5t71.5 42.5v-196zM124 150q0 -21 14.5 -35.5t35.5 -14.5t35.5 14.5t14.5 35.5t-14.5 35.5t-35.5 14.5t-35.5 -14.5t-14.5 -35.5zM25 150q0 62 43.5 106t104.5 44t105 -44t44 -106 t-44 -106t-105 -44t-104.5 44t-43.5 106zM222 467v311l100 22v-285zM222 320v127l100 48v-121q-14 -26 -43 -39t-57 -15z" />
<glyph unicode="&#x647;" horiz-adv-x="347" arabic-form="isolated" d="M322 150l-149 150q26 0 77.5 3.5t71.5 42.5v-196zM124 150q0 -21 14.5 -35.5t35.5 -14.5t35.5 14.5t14.5 35.5t-14.5 35.5t-35.5 14.5t-35.5 -14.5t-14.5 -35.5zM25 150q0 62 43.5 106t104.5 44t105 -44t44 -106t-44 -106t-105 -44t-104.5 44t-43.5 106zM222 467v311 l100 22v-285zM222 320v127l100 48v-121q-14 -26 -43 -39t-57 -15z" />
<glyph unicode="&#x648;" horiz-adv-x="400" arabic-form="final" d="M420 100v-100h-247l50 100h197zM322 -42q0 -66 -34.5 -102t-83.5 -44.5t-95.5 6.5t-71.5 50q77 -20 116.5 -10.5t54 36t14.5 54.5v180l100 22v-192zM322 150l-149 150q26 0 77.5 3.5t71.5 42.5v-196zM124 150q0 -21 14.5 -35.5t35.5 -14.5t35.5 14.5t14.5 35.5 t-14.5 35.5t-35.5 14.5t-35.5 -14.5t-14.5 -35.5zM25 150q0 62 43.5 106t104.5 44t105 -44t44 -106t-44 -106t-105 -44t-104.5 44t-43.5 106z" />
<glyph unicode="&#x648;" horiz-adv-x="347" arabic-form="isolated" d="M322 -42q0 -66 -34.5 -102t-83.5 -44.5t-95.5 6.5t-71.5 50q77 -20 116.5 -10.5t54 36t14.5 54.5v180l100 22v-192zM322 150l-149 150q26 0 77.5 3.5t71.5 42.5v-196zM124 150q0 -21 14.5 -35.5t35.5 -14.5t35.5 14.5t14.5 35.5t-14.5 35.5t-35.5 14.5t-35.5 -14.5 t-14.5 -35.5zM25 150q0 62 43.5 106t104.5 44t105 -44t44 -106t-44 -106t-105 -44t-104.5 44t-43.5 106z" />
<glyph unicode="&#x649;" horiz-adv-x="225" d="M200 300v-277q0 -19 -20 -21l-20 -2h-180v100h120v178z" />
<glyph unicode="&#x649;" horiz-adv-x="300" d="M200 300v-200h120v-100h-340v100h120v178z" />
<glyph unicode="&#x649;" horiz-adv-x="680" arabic-form="final" d="M700 100h-156v-100h156v100zM372 -100h-195q-18 0 -38 10t-30 30l-84 -140h405zM507 -200l-258 452q-28 49 -19.5 93.5t45.5 64.5l237 -410h115l-339 591q0 -39 -17 -57t-48 -41q-61 -45 -92 -114t31 -176l231 -403h114z" />
<glyph unicode="&#x649;" horiz-adv-x="725" arabic-form="isolated" d="M372 -100h-195q-18 0 -38 10t-30 30l-84 -140h405zM525 0h175l-84 140q-10 -20 -30 -30t-38 -10h-53zM507 -200l-258 452q-28 49 -19.5 93.5t45.5 64.5l237 -410h115l-339 591q0 -39 -17 -57t-48 -41q-61 -45 -92 -114t31 -176l231 -403h114z" />
<glyph unicode="&#x66e;" horiz-adv-x="925" d="M825 300v-200h120v-100h-920l60 100h640v178z" />
<glyph unicode="&#x66e;" horiz-adv-x="850" d="M825 300v-277q0 -19 -20 -21l-20 -2h-760l60 100h640v178z" />
<glyph unicode="&#x66f;" horiz-adv-x="425" d="M200 300q0 -21 15 -36t36 -15t36.5 15t15.5 36t-15.5 36t-36.5 15t-36 -15t-15 -36zM103 300q0 62 43.5 106t104.5 44t105 -44t44 -106t-44 -106t-105 -44t-104.5 44t-43.5 106zM400 300v-277q0 -19 -20 -21l-20 -2h-380v100h320v128z" />
<glyph unicode="&#x66f;" horiz-adv-x="500" d="M200 300q0 -21 15 -36t36 -15t36.5 15t15.5 36t-15.5 36t-36.5 15t-36 -15t-15 -36zM103 300q0 62 43.5 106t104.5 44t105 -44t44 -106t-44 -106t-105 -44t-104.5 44t-43.5 106zM400 300v-200h120v-100h-540v100h320v128z" />
<glyph unicode="&#x66f;" horiz-adv-x="600" d="M292 150q0 -21 14.5 -35.5t35.5 -14.5t35.5 14.5t14.5 35.5t-14.5 35.5t-35.5 14.5t-35.5 -14.5t-14.5 -35.5zM620 100v-100h-278v100h278zM193 150q0 62 43.5 106t105.5 44t105 -44t43 -106t-43 -106t-105 -44t-105.5 44t-43.5 106zM490 50q0 -20 -6 -63t-29 -89.5 t-72.5 -79.5t-136.5 -33q-76 0 -125 33.5t-72.5 82t-23.5 94.5q0 66 23 118.5t59 84.5q2 -19 1.5 -36.5t-14.5 -36.5q8 1 25.5 -6.5t22.5 -35.5q-39 6 -59 -7q-14 -9 -21 -32.5t-7 -48.5q0 -57 49 -100t142 -43q76 0 110 37.5t34 120.5v68l100 72v-100z" />
<glyph unicode="&#x66f;" horiz-adv-x="515" d="M292 150q0 -21 14.5 -35.5t35.5 -14.5t35.5 14.5t14.5 35.5t-14.5 35.5t-35.5 14.5t-35.5 -14.5t-14.5 -35.5zM193 150q0 62 43.5 106t105.5 44t105 -44t43 -106t-43 -106t-105 -44t-105.5 44t-43.5 106zM490 50q0 -20 -6 -63t-29 -89.5t-72.5 -79.5t-136.5 -33 q-76 0 -125 33.5t-72.5 82t-23.5 94.5q0 66 23 118.5t59 84.5q2 -19 1.5 -36.5t-14.5 -36.5q8 1 25.5 -6.5t22.5 -35.5q-39 6 -59 -7q-14 -9 -21 -32.5t-7 -48.5q0 -57 49 -100t142 -43q76 0 110 37.5t34 120.5v68l100 72v-100z" />
<glyph unicode="&#x672;" horiz-adv-x="289" d="M-37 721l-41 24q12 28 33 40.5t39 12.5q26 0 43 -11t35 -11h6h6q-20 13 -36 34.5t-16 48.5q0 45 31.5 68t71.5 23q23 0 47 -8l-8 -50q-10 2 -19 4t-20 2q-49 0 -49 -36q0 -20 12 -34.5t28.5 -23t28.5 -10.5q16 6 29.5 11.5t26.5 10.5l16 -48q-10 -5 -38 -16.5 t-60.5 -20.5t-57.5 -9q-26 0 -44.5 11t-32.5 11q-11 0 -17 -6t-14 -17zM289 -5q-80 0 -122 18t-58 56t-19 98l-18 477h82l18 -445q2 -49 9.5 -75.5t34 -36.5t83.5 -10q21 0 30.5 -11.5t9.5 -27.5t-14 -29.5t-36 -13.5z" />
<glyph unicode="&#x673;" horiz-adv-x="291" d="M291 -5q-80 0 -122.5 18t-58.5 56t-18 98l-20 547h82l20 -515q2 -49 9.5 -75.5t34 -36.5t83.5 -10q21 0 30.5 -11.5t9.5 -27.5t-14 -29.5t-36 -13.5zM-18 -296l-41 24q12 28 33 40.5t39 12.5q26 0 43 -11t35 -11h6h6q-20 13 -36 34.5t-16 48.5q0 45 31.5 68t71.5 23 q23 0 47 -8l-8 -50q-10 2 -19 4t-20 2q-49 0 -49 -36q0 -20 12 -34.5t28.5 -23t28.5 -10.5q16 6 29.5 11.5t26.5 10.5l16 -48q-10 -5 -38 -16.5t-60.5 -20.5t-57.5 -9q-26 0 -44.5 11t-32.5 11q-11 0 -17 -6t-14 -17z" />
<glyph unicode="&#x675;" horiz-adv-x="411" d="M218 578l-12 54q15 3 26 6t21 5q-19 13 -33 34t-14 46q0 45 31.5 68t71.5 23q23 0 47 -8l-8 -50q-10 2 -19 4t-20 2q-49 0 -49 -36q0 -26 19.5 -43t38.5 -22q38 11 67 22l16 -51q-24 -9 -56.5 -19t-65.5 -19t-61 -16zM411 -5h-122q-79 0 -121 18t-58 56.5t-18 97.5 l-20 547h82l20 -515q2 -48 9.5 -74.5t33 -37t81.5 -10.5h123q21 0 30.5 -11.5t9.5 -27.5t-14 -29.5t-36 -13.5z" />
<glyph unicode="&#x676;" horiz-adv-x="472" d="M58 -230l-18 82q62 8 113.5 23.5t88.5 43.5t55 76h-64q-45 0 -83.5 13t-62 40.5t-23.5 72.5q0 56 22 105t60.5 80t85.5 31q69 0 114.5 -60.5t45.5 -185.5v-14h90q21 0 30.5 -11.5t9.5 -27.5t-14 -29.5t-36 -13.5h-92q-51 -194 -322 -225zM271 77h42q1 10 1 20 q0 68 -25 113t-65 45q-21 0 -39 -16t-29.5 -43t-11.5 -59q0 -35 31.5 -47.5t95.5 -12.5zM347 -141h-26q-19 0 -40.5 4.5t-21.5 34.5q0 5 3.5 23t28.5 25q14 4 34 -1t26 -8q-10 23 -30 31.5t-33 8.5q-39 0 -58 -19.5t-27 -49.5q-6 -24 -6 -57v-33h151zM364 -191l30 50h-240 l-30 -50h240z" />
<glyph unicode="&#x677;" horiz-adv-x="531" d="M117 -230l-18 82q62 8 113.5 23.5t88.5 43.5t55 76h-64q-45 0 -83.5 13t-62 40.5t-23.5 72.5q0 56 22 105t60.5 80t85.5 31q69 0 114.5 -60.5t45.5 -185.5v-14h90q21 0 30.5 -11.5t9.5 -27.5t-14 -29.5t-36 -13.5h-92q-51 -194 -322 -225zM330 77h42q1 10 1 20 q0 68 -25 113t-65 45q-21 0 -39 -16t-29.5 -43t-11.5 -59q0 -35 31.5 -47.5t95.5 -12.5zM417 -141h-26q-19 0 -40.5 4.5t-21.5 34.5q0 5 3.5 23t28.5 25q14 4 34 -1t26 -8q-10 23 -30 31.5t-33 8.5q-39 0 -58 -19.5t-27 -49.5q-6 -24 -6 -57v-33h151zM434 -191l30 50h-240 l-30 -50h240z" />
<glyph unicode="&#x678;" horiz-adv-x="350" d="M0 -5l10 82q49 0 78 6t42 24.5t13 55.5q0 38 -17.5 95.5t-39.5 114.5l81 30q13 -32 24.5 -73t19.5 -81t8 -70q0 -100 -53.5 -142t-165.5 -42zM167 578l-12 54q15 3 26 6t21 5q-19 13 -33 34t-14 46q0 45 31.5 68t71.5 23q23 0 47 -8l-8 -50q-10 2 -19 4t-20 2 q-49 0 -49 -36q0 -26 19.5 -43t38.5 -22q38 11 67 22l16 -51q-24 -9 -56.5 -19t-65.5 -19t-61 -16z" />
<glyph unicode="&#x678;" horiz-adv-x="343" d="M0 -5l10 82q42 0 66 7.5t36.5 29t21.5 62.5t22 107l78 -15q-6 -27 -13.5 -62t-7.5 -59q0 -20 9 -36t39 -25t92 -9q21 0 30.5 -11.5t9.5 -27.5t-14 -29.5t-36 -13.5q-79 0 -117 17t-52 51q-30 -42 -69 -55t-105 -13zM163 409l-12 54q15 3 26 6t21 5q-19 13 -33 34t-14 46 q0 45 31.5 68t71.5 23q23 0 47 -8l-8 -50q-10 2 -19 4t-20 2q-49 0 -49 -36q0 -26 19.5 -43t38.5 -22q38 11 67 22l16 -51q-24 -9 -56.5 -19t-65.5 -19t-61 -16z" />
<glyph unicode="&#x678;" horiz-adv-x="736" d="M30 -1q0 36 10 80t32 97l72 -28q-16 -42 -24 -77t-8 -65q0 -55 32.5 -90t86 -51t117.5 -16q77 0 140.5 18t101.5 47.5t38 65.5q0 26 -40 45t-112 39l19 83q104 -40 162 -55t89 -15q21 0 30.5 -11.5t9.5 -27.5t-14 -29.5t-36 -13.5h-37q2 -9 3 -14.5t1 -14.5 q0 -49 -45 -94.5t-129.5 -74.5t-202.5 -29q-79 0 -146.5 25.5t-108.5 76.5t-41 129zM500 205l-12 54q15 3 26 6t21 5q-19 13 -33 34t-14 46q0 45 31.5 68t71.5 23q23 0 47 -8l-8 -50q-10 2 -19 4t-20 2q-49 0 -49 -36q0 -26 19.5 -43t38.5 -22q38 11 67 22l16 -51 q-24 -9 -56.5 -19t-65.5 -19t-61 -16z" />
<glyph unicode="&#x67c;" horiz-adv-x="299" d="M218 507q-21 0 -35.5 14.5t-14.5 34.5t14.5 35t35.5 15q20 0 34.5 -15t14.5 -35t-14.5 -34.5t-34.5 -14.5zM81 507q-21 0 -35.5 14.5t-14.5 34.5t14.5 35t35.5 15q20 0 34.5 -15t14.5 -35t-14.5 -34.5t-34.5 -14.5zM0 -5l10 82q59 0 92 4.5t47 23t14 58.5 q0 38 -17.5 95.5t-39.5 114.5l81 30q13 -32 24.5 -73t19.5 -81t8 -70q0 -97 -52 -139q16 -12 26 -31t10 -41q0 -37 -26 -63t-63 -26t-63 26t-26 63q0 15 5 29q-23 -2 -50 -2zM134 -70q17 0 29 11t12 27q0 17 -12 28.5t-29 11.5t-29 -11.5t-12 -28.5q0 -16 12 -27t29 -11z " />
<glyph unicode="&#x67c;" horiz-adv-x="343" d="M257 386q-21 0 -35.5 14.5t-14.5 34.5t14.5 35t35.5 15q20 0 34.5 -15t14.5 -35t-14.5 -34.5t-34.5 -14.5zM120 386q-21 0 -35.5 14.5t-14.5 34.5t14.5 35t35.5 15q20 0 34.5 -15t14.5 -35t-14.5 -34.5t-34.5 -14.5zM0 -5l10 82q42 0 66 7.5t36.5 29t21.5 62.5t22 107 l78 -15q-6 -27 -13.5 -62t-7.5 -59q0 -20 9 -36t39 -25t92 -9q21 0 30.5 -11.5t9.5 -27.5t-14 -29.5t-36 -13.5q-79 0 -117 17t-52 51q-9 -13 -19 -23q18 -12 29 -31.5t11 -42.5q0 -37 -26 -63t-63 -26t-63 26t-26 63q0 15 5 29h-22zM106 -72q17 0 29 11t12 27 q0 17 -12 28.5t-29 11.5t-29 -11.5t-12 -28.5q0 -16 12 -27t29 -11z" />
<glyph unicode="&#x67c;" horiz-adv-x="1093" d="M558 401q-21 0 -35.5 14.5t-14.5 34.5t14.5 35t35.5 15q20 0 34.5 -15t14.5 -35t-14.5 -34.5t-34.5 -14.5zM421 401q-21 0 -35.5 14.5t-14.5 34.5t14.5 35t35.5 15q20 0 34.5 -15t14.5 -35t-14.5 -34.5t-34.5 -14.5zM390 -21q-178 0 -269 47t-91 156q0 37 9 78.5t19 78.5 l75 -19q-6 -22 -13.5 -55.5t-7.5 -59.5q0 -52 26.5 -83.5t92.5 -46t185 -14.5q61 0 129 7.5t135.5 27t128.5 53.5t107 86l63 -37q-9 -23 -12 -36.5t-3 -24.5q0 -15 11 -28.5t41.5 -22.5t86.5 -9q21 0 30.5 -11.5t9.5 -27.5t-14 -29.5t-36 -13.5q-88 0 -144.5 26t-57.5 85 q-54 -42 -130.5 -70t-167.5 -42q16 -23 16 -51q0 -37 -26 -63t-63 -26t-63 26t-26 63q0 19 8 37q-24 -1 -49 -1zM520 -95q17 0 29 11t12 27q0 17 -12 28.5t-29 11.5t-29 -11.5t-12 -28.5q0 -16 12 -27t29 -11z" />
<glyph unicode="&#x67d;" horiz-adv-x="299" d="M82 617q-21 0 -35.5 14.5t-14.5 34.5t14.5 35t35.5 15q20 0 34.5 -15t14.5 -35t-14.5 -34.5t-34.5 -14.5zM218 617q-21 0 -35.5 14.5t-14.5 34.5t14.5 35t35.5 15q20 0 34.5 -15t14.5 -35t-14.5 -34.5t-34.5 -14.5zM150 507q-21 0 -35.5 14.5t-14.5 34.5t14.5 35t35.5 15 q20 0 34.5 -15t14.5 -35t-14.5 -34.5t-34.5 -14.5zM0 -5l10 82q59 0 92 4.5t47 23t14 58.5q0 38 -17.5 95.5t-39.5 114.5l81 30q13 -32 24.5 -73t19.5 -81t8 -70q0 -100 -56 -142t-183 -42z" />
<glyph unicode="&#x67d;" horiz-adv-x="373" d="M131 496q-21 0 -35.5 14.5t-14.5 34.5t14.5 35t35.5 15q20 0 34.5 -15t14.5 -35t-14.5 -34.5t-34.5 -14.5zM267 496q-21 0 -35.5 14.5t-14.5 34.5t14.5 35t35.5 15q20 0 34.5 -15t14.5 -35t-14.5 -34.5t-34.5 -14.5zM199 386q-21 0 -35.5 14.5t-14.5 34.5t14.5 35 t35.5 15q20 0 34.5 -15t14.5 -35t-14.5 -34.5t-34.5 -14.5zM0 -5l10 82q50 0 78 7.5t42.5 29t23.5 62.5t22 107l78 -15q-6 -27 -13.5 -62t-7.5 -59q0 -15 2 -28t15 -22t44 -14.5t89 -5.5q21 0 30.5 -11.5t9.5 -27.5t-14 -29.5t-36 -13.5q-65 0 -101.5 7.5t-54 22t-25.5 36.5 q-29 -41 -71.5 -53.5t-120.5 -12.5z" />
<glyph unicode="&#x67d;" horiz-adv-x="1093" d="M825 300v-200h120v-100h-920l60 100h640v178zM422 511q-21 0 -35.5 14.5t-14.5 34.5t14.5 35t35.5 15q20 0 34.5 -15t14.5 -35t-14.5 -34.5t-34.5 -14.5zM558 511q-21 0 -35.5 14.5t-14.5 34.5t14.5 35t35.5 15q20 0 34.5 -15t14.5 -35t-14.5 -34.5t-34.5 -14.5zM490 401 q-21 0 -35.5 14.5t-14.5 34.5t14.5 35t35.5 15q20 0 34.5 -15t14.5 -35t-14.5 -34.5t-34.5 -14.5z" />
<glyph unicode="&#x681;" horiz-adv-x="589" d="M0 -5l9 82q104 0 200.5 31t176.5 86q-39 35 -95.5 55.5t-124.5 20.5q-25 0 -44 -2.5t-46 -8.5l-16 76q56 17 106 17q52 0 94 -12.5t76.5 -30.5t65 -36t59.5 -30.5t60 -12.5h21l7 -72q-51 0 -93 -16.5t-84.5 -40.5t-93 -48.5t-117.5 -41t-161 -16.5zM125 -66h-26 q-19 0 -40.5 4.5t-21.5 34.5q0 5 3.5 23t28.5 25q14 4 34 -1t26 -8q-10 23 -30 31.5t-33 8.5q-39 0 -58 -19.5t-27 -49.5q-6 -24 -6 -57v-33h151zM142 -116l30 50h-240l-30 -50h240z" />
<glyph unicode="&#x681;" horiz-adv-x="637" d="M0 -5l9 82q104 0 200.5 31t176.5 86q-39 35 -95.5 55.5t-124.5 20.5q-25 0 -44 -2.5t-46 -8.5l-16 76q56 17 106 17q52 0 94 -12.5t76.5 -30.5t65 -36t59.5 -30.5t60 -12.5h21l7 -72q-31 0 -60 -7q19 -45 54 -59.5t104 -14.5q21 0 30.5 -11.5t9.5 -27.5t-14 -29.5 t-36 -13.5q-54 0 -96.5 9.5t-72.5 38t-44 85.5q-38 -18 -77.5 -40.5t-87.5 -43.5t-111 -35t-148 -14zM115 -66h-26q-19 0 -40.5 4.5t-21.5 34.5q0 5 3.5 23t28.5 25q14 4 34 -1t26 -8q-10 23 -30 31.5t-33 8.5q-39 0 -58 -19.5t-27 -49.5q-6 -24 -6 -57v-33h151zM132 -116 l30 50h-240l-30 -50h240z" />
<glyph unicode="&#x681;" horiz-adv-x="649" d="M360 -394q-70 0 -133.5 16t-112 49.5t-76.5 84.5t-28 120q0 92 43 171t123.5 139.5t191.5 97.5q-49 16 -102.5 32.5t-124.5 16.5q-30 0 -52.5 -5t-42.5 -10l-14 74q26 11 58.5 17.5t65.5 6.5q46 0 82 -8.5t68.5 -20.5t68.5 -24.5t80.5 -21t105.5 -9.5h9l2 -82 q-52 0 -109 -12q8 -56 26 -88.5t44.5 -48t58.5 -20t67 -4.5q21 0 30.5 -11.5t9.5 -27.5t-13.5 -29.5t-35.5 -13.5q-42 0 -84.5 6t-79 27t-60.5 66.5t-29 125.5q-58 -20 -113 -51t-98 -73t-68.5 -94.5t-25.5 -115.5q0 -70 38 -113.5t101.5 -63.5t138.5 -20q99 0 201 40 l28 -68q-58 -28 -119 -41.5t-120 -13.5zM270 -2h-26q-19 0 -40.5 4.5t-21.5 34.5q0 5 3.5 23t28.5 25q14 4 34 -1t26 -8q-10 23 -30 31.5t-33 8.5q-39 0 -58 -19.5t-27 -49.5q-6 -24 -6 -57v-33h151zM287 -52l30 50h-240l-30 -50h240z" />
<glyph unicode="&#x682;" horiz-adv-x="589" d="M0 -5l9 82q104 0 200.5 31t176.5 86q-39 35 -95.5 55.5t-124.5 20.5q-25 0 -44 -2.5t-46 -8.5l-16 76q56 17 106 17q52 0 94 -12.5t76.5 -30.5t65 -36t59.5 -30.5t60 -12.5h21l7 -72q-51 0 -93 -16.5t-84.5 -40.5t-93 -48.5t-117.5 -41t-161 -16.5zM166 584 q-21 0 -35.5 14.5t-14.5 34.5t14.5 35t35.5 15q20 0 34.5 -15t14.5 -35t-14.5 -34.5t-34.5 -14.5zM167 455q-21 0 -35.5 14.5t-14.5 34.5t14.5 35t35.5 15q20 0 34.5 -15t14.5 -35t-14.5 -34.5t-34.5 -14.5z" />
<glyph unicode="&#x682;" horiz-adv-x="637" d="M0 -5l9 82q104 0 200.5 31t176.5 86q-39 35 -95.5 55.5t-124.5 20.5q-25 0 -44 -2.5t-46 -8.5l-16 76q56 17 106 17q52 0 94 -12.5t76.5 -30.5t65 -36t59.5 -30.5t60 -12.5h21l7 -72q-31 0 -60 -7q19 -45 54 -59.5t104 -14.5q21 0 30.5 -11.5t9.5 -27.5t-14 -29.5 t-36 -13.5q-54 0 -96.5 9.5t-72.5 38t-44 85.5q-38 -18 -77.5 -40.5t-87.5 -43.5t-111 -35t-148 -14zM156 584q-21 0 -35.5 14.5t-14.5 34.5t14.5 35t35.5 15q20 0 34.5 -15t14.5 -35t-14.5 -34.5t-34.5 -14.5zM157 455q-21 0 -35.5 14.5t-14.5 34.5t14.5 35t35.5 15 q20 0 34.5 -15t14.5 -35t-14.5 -34.5t-34.5 -14.5z" />
<glyph unicode="&#x682;" horiz-adv-x="649" d="M360 -394q-70 0 -133.5 16t-112 49.5t-76.5 84.5t-28 120q0 92 43 171t123.5 139.5t191.5 97.5q-49 16 -102.5 32.5t-124.5 16.5q-30 0 -52.5 -5t-42.5 -10l-14 74q26 11 58.5 17.5t65.5 6.5q46 0 82 -8.5t68.5 -20.5t68.5 -24.5t80.5 -21t105.5 -9.5h9l2 -82 q-52 0 -109 -12q8 -56 26 -88.5t44.5 -48t58.5 -20t67 -4.5q21 0 30.5 -11.5t9.5 -27.5t-13.5 -29.5t-35.5 -13.5q-42 0 -84.5 6t-79 27t-60.5 66.5t-29 125.5q-58 -20 -113 -51t-98 -73t-68.5 -94.5t-25.5 -115.5q0 -70 38 -113.5t101.5 -63.5t138.5 -20q99 0 201 40 l28 -68q-58 -28 -119 -41.5t-120 -13.5zM311 648q-21 0 -35.5 14.5t-14.5 34.5t14.5 35t35.5 15q20 0 34.5 -15t14.5 -35t-14.5 -34.5t-34.5 -14.5zM312 519q-21 0 -35.5 14.5t-14.5 34.5t14.5 35t35.5 15q20 0 34.5 -15t14.5 -35t-14.5 -34.5t-34.5 -14.5z" />
<glyph unicode="&#x685;" horiz-adv-x="589" d="M0 -5l9 82q104 0 200.5 31t176.5 86q-39 35 -95.5 55.5t-124.5 20.5q-25 0 -44 -2.5t-46 -8.5l-16 76q56 17 106 17q52 0 94 -12.5t76.5 -30.5t65 -36t59.5 -30.5t60 -12.5h21l7 -72q-51 0 -93 -16.5t-84.5 -40.5t-93 -48.5t-117.5 -41t-161 -16.5zM169 565 q-21 0 -35.5 14.5t-14.5 34.5t14.5 35t35.5 15q20 0 34.5 -15t14.5 -35t-14.5 -34.5t-34.5 -14.5zM101 455q-21 0 -35.5 14.5t-14.5 34.5t14.5 35t35.5 15q20 0 34.5 -15t14.5 -35t-14.5 -34.5t-34.5 -14.5zM237 455q-21 0 -35.5 14.5t-14.5 34.5t14.5 35t35.5 15 q20 0 34.5 -15t14.5 -35t-14.5 -34.5t-34.5 -14.5z" />
<glyph unicode="&#x685;" horiz-adv-x="637" d="M0 -5l9 82q104 0 200.5 31t176.5 86q-39 35 -95.5 55.5t-124.5 20.5q-25 0 -44 -2.5t-46 -8.5l-16 76q56 17 106 17q52 0 94 -12.5t76.5 -30.5t65 -36t59.5 -30.5t60 -12.5h21l7 -72q-31 0 -60 -7q19 -45 54 -59.5t104 -14.5q21 0 30.5 -11.5t9.5 -27.5t-14 -29.5 t-36 -13.5q-54 0 -96.5 9.5t-72.5 38t-44 85.5q-38 -18 -77.5 -40.5t-87.5 -43.5t-111 -35t-148 -14zM159 565q-21 0 -35.5 14.5t-14.5 34.5t14.5 35t35.5 15q20 0 34.5 -15t14.5 -35t-14.5 -34.5t-34.5 -14.5zM91 455q-21 0 -35.5 14.5t-14.5 34.5t14.5 35t35.5 15 q20 0 34.5 -15t14.5 -35t-14.5 -34.5t-34.5 -14.5zM227 455q-21 0 -35.5 14.5t-14.5 34.5t14.5 35t35.5 15q20 0 34.5 -15t14.5 -35t-14.5 -34.5t-34.5 -14.5z" />
<glyph unicode="&#x685;" horiz-adv-x="649" d="M360 -394q-70 0 -133.5 16t-112 49.5t-76.5 84.5t-28 120q0 92 43 171t123.5 139.5t191.5 97.5q-49 16 -102.5 32.5t-124.5 16.5q-30 0 -52.5 -5t-42.5 -10l-14 74q26 11 58.5 17.5t65.5 6.5q46 0 82 -8.5t68.5 -20.5t68.5 -24.5t80.5 -21t105.5 -9.5h9l2 -82 q-52 0 -109 -12q8 -56 26 -88.5t44.5 -48t58.5 -20t67 -4.5q21 0 30.5 -11.5t9.5 -27.5t-13.5 -29.5t-35.5 -13.5q-42 0 -84.5 6t-79 27t-60.5 66.5t-29 125.5q-58 -20 -113 -51t-98 -73t-68.5 -94.5t-25.5 -115.5q0 -70 38 -113.5t101.5 -63.5t138.5 -20q99 0 201 40 l28 -68q-58 -28 -119 -41.5t-120 -13.5zM314 629q-21 0 -35.5 14.5t-14.5 34.5t14.5 35t35.5 15q20 0 34.5 -15t14.5 -35t-14.5 -34.5t-34.5 -14.5zM246 519q-21 0 -35.5 14.5t-14.5 34.5t14.5 35t35.5 15q20 0 34.5 -15t14.5 -35t-14.5 -34.5t-34.5 -14.5zM382 519 q-21 0 -35.5 14.5t-14.5 34.5t14.5 35t35.5 15q20 0 34.5 -15t14.5 -35t-14.5 -34.5t-34.5 -14.5z" />
<glyph unicode="&#x689;" horiz-adv-x="532" d="M215 77q74 0 105 22.5t31 62.5q0 26 -18 67t-47.5 91.5t-65.5 103.5l69 45q58 -89 94.5 -162.5t54.5 -132.5q14 -44 31.5 -65t36.5 -26.5t35 -5.5q21 0 31 -11.5t10 -27.5t-14 -29.5t-36 -13.5q-39 0 -75 17t-58 58q-14 -24 -40.5 -42t-68.5 -27q13 -22 13 -47 q0 -37 -26 -63t-63 -26t-63 26t-26 63q0 26 13 47q-63 13 -103 44l40 69q20 -13 56 -25t84 -12zM214 -84q17 0 29 11t12 27q0 17 -12 28.5t-29 11.5t-29 -11.5t-12 -28.5q0 -16 12 -27t29 -11z" />
<glyph unicode="&#x68a;" horiz-adv-x="532" d="M215 77q74 0 105 22.5t31 62.5q0 26 -18 67t-47.5 91.5t-65.5 103.5l69 45q58 -89 94.5 -162.5t54.5 -132.5q14 -44 31.5 -65t36.5 -26.5t35 -5.5q21 0 31 -11.5t10 -27.5t-14 -29.5t-36 -13.5q-39 0 -75 17t-58 58q-20 -33 -63.5 -54.5t-120.5 -21.5q-55 0 -102 13.5 t-78 37.5l40 69q20 -13 56 -25t84 -12zM234 -191q-21 0 -35.5 14.5t-14.5 34.5t14.5 35t35.5 15q20 0 34.5 -15t14.5 -35t-14.5 -34.5t-34.5 -14.5z" />
<glyph unicode="&#x68b;" horiz-adv-x="532" d="M215 77q74 0 105 22.5t31 62.5q0 26 -18 67t-47.5 91.5t-65.5 103.5l69 45q58 -89 94.5 -162.5t54.5 -132.5q14 -44 31.5 -65t36.5 -26.5t35 -5.5q21 0 31 -11.5t10 -27.5t-14 -29.5t-36 -13.5q-39 0 -75 17t-58 58q-20 -33 -63.5 -54.5t-120.5 -21.5q-55 0 -102 13.5 t-78 37.5l40 69q20 -13 56 -25t84 -12zM224 588q-18 0 -42.5 1.5t-46.5 3.5l-33 3l2 58q6 -1 13 -1.5t15 -1.5q10 18 22 34l-5 162h55l5 -106q18 13 37.5 20.5t39.5 7.5q38 0 60 -23t22 -57q0 -20 -11.5 -43.5t-42.5 -40.5t-90 -17zM278 710q-18 0 -35 -11t-31.5 -26 t-22.5 -26q16 -1 28 -1q49 0 71 10.5t22 27.5q0 14 -9 20t-23 6zM234 -191q-21 0 -35.5 14.5t-14.5 34.5t14.5 35t35.5 15q20 0 34.5 -15t14.5 -35t-14.5 -34.5t-34.5 -14.5z" />
<glyph unicode="&#x68f;" horiz-adv-x="532" d="M215 77q74 0 105 22.5t31 62.5q0 26 -18 67t-47.5 91.5t-65.5 103.5l69 45q58 -89 94.5 -162.5t54.5 -132.5q14 -44 31.5 -65t36.5 -26.5t35 -5.5q21 0 31 -11.5t10 -27.5t-14 -29.5t-36 -13.5q-39 0 -75 17t-58 58q-20 -33 -63.5 -54.5t-120.5 -21.5q-55 0 -102 13.5 t-78 37.5l40 69q20 -13 56 -25t84 -12zM155 670q-21 0 -35.5 14.5t-14.5 34.5t14.5 35t35.5 15q20 0 34.5 -15t14.5 -35t-14.5 -34.5t-34.5 -14.5zM291 670q-21 0 -35.5 14.5t-14.5 34.5t14.5 35t35.5 15q20 0 34.5 -15t14.5 -35t-14.5 -34.5t-34.5 -14.5zM223 560 q-21 0 -35.5 14.5t-14.5 34.5t14.5 35t35.5 15q20 0 34.5 -15t14.5 -35t-14.5 -34.5t-34.5 -14.5z" />
<glyph unicode="&#x690;" horiz-adv-x="532" d="M215 77q74 0 105 22.5t31 62.5q0 26 -18 67t-47.5 91.5t-65.5 103.5l69 45q58 -89 94.5 -162.5t54.5 -132.5q14 -44 31.5 -65t36.5 -26.5t35 -5.5q21 0 31 -11.5t10 -27.5t-14 -29.5t-36 -13.5q-39 0 -75 17t-58 58q-20 -33 -63.5 -54.5t-120.5 -21.5q-55 0 -102 13.5 t-78 37.5l40 69q20 -13 56 -25t84 -12zM155 685q-21 0 -35.5 14.5t-14.5 34.5t14.5 35t35.5 15q20 0 34.5 -15t14.5 -35t-14.5 -34.5t-34.5 -14.5zM291 685q-21 0 -35.5 14.5t-14.5 34.5t14.5 35t35.5 15q20 0 34.5 -15t14.5 -35t-14.5 -34.5t-34.5 -14.5zM155 560 q-21 0 -35.5 14.5t-14.5 34.5t14.5 35t35.5 15q20 0 34.5 -15t14.5 -35t-14.5 -34.5t-34.5 -14.5zM291 560q-21 0 -35.5 14.5t-14.5 34.5t14.5 35t35.5 15q20 0 34.5 -15t14.5 -35t-14.5 -34.5t-34.5 -14.5z" />
<glyph unicode="&#x692;" horiz-adv-x="396" d="M4 -232l-29 76q97 32 151.5 76t77 92.5t22.5 94.5q0 49 -21.5 99.5t-47.5 95.5l73 37q28 -53 47.5 -102t30.5 -86q14 -43 36.5 -58.5t61.5 -15.5q21 0 30.5 -11.5t9.5 -27.5t-14 -29.5t-36 -13.5q-38 0 -63.5 12t-41.5 32q-10 -56 -42 -102t-75 -80.5t-88 -56.5t-82 -32z M134 485q-9 20 -25 53.5t-32.5 67t-29.5 54.5l46 25q7 -12 20 -36.5t27.5 -52t24.5 -49.5q11 26 24 55.5t24 53t16 31.5l45 -19q-5 -10 -16 -32.5t-23.5 -50t-24 -53t-17.5 -41.5z" />
<glyph unicode="&#x693;" horiz-adv-x="396" d="M4 -232l-29 76q97 32 151.5 76t77 92.5t22.5 94.5q0 49 -21.5 99.5t-47.5 95.5l73 37q28 -53 47.5 -102t30.5 -86q14 -43 36.5 -58.5t61.5 -15.5q21 0 30.5 -11.5t9.5 -27.5t-14 -29.5t-36 -13.5q-38 0 -63.5 12t-41.5 32q-4 -24 -13 -46t-21 -42q31 -6 52 -30.5 t21 -57.5q0 -37 -26 -63t-63 -26q-32 0 -55.5 19.5t-30.5 48.5q-39 -28 -78.5 -47t-72.5 -27zM241 -175q17 0 29 11t12 27q0 17 -12 28.5t-29 11.5t-29 -11.5t-12 -28.5q0 -16 12 -27t29 -11z" />
<glyph unicode="&#x694;" horiz-adv-x="396" d="M4 -232l-29 76q97 32 151.5 76t77 92.5t22.5 94.5q0 49 -21.5 99.5t-47.5 95.5l73 37q28 -53 47.5 -102t30.5 -86q14 -43 36.5 -58.5t61.5 -15.5q21 0 30.5 -11.5t9.5 -27.5t-14 -29.5t-36 -13.5q-38 0 -63.5 12t-41.5 32q-10 -56 -42 -102t-75 -80.5t-88 -56.5t-82 -32z M83 -403q-21 0 -35.5 14.5t-14.5 34.5t14.5 35t35.5 15q20 0 34.5 -15t14.5 -35t-14.5 -34.5t-34.5 -14.5z" />
<glyph unicode="&#x695;" horiz-adv-x="396" d="M4 -232l-29 76q97 32 151.5 76t77 92.5t22.5 94.5q0 49 -21.5 99.5t-47.5 95.5l73 37q28 -53 47.5 -102t30.5 -86q14 -43 36.5 -58.5t61.5 -15.5q21 0 30.5 -11.5t9.5 -27.5t-14 -29.5t-36 -13.5q-38 0 -63.5 12t-41.5 32q-10 -56 -42 -102t-75 -80.5t-88 -56.5t-82 -32z M45 -57l-20.5 41t-26 50.5t-23.5 42.5l37 20q6 -9 16.5 -27.5t21.5 -39.5t20 -38q8 20 18.5 42.5t19.5 40t13 24.5l36 -15q-6 -11 -19 -37t-26.5 -54.5t-19.5 -44.5z" />
<glyph unicode="&#x696;" horiz-adv-x="396" d="M4 -232l-29 76q97 32 151.5 76t77 92.5t22.5 94.5q0 49 -21.5 99.5t-47.5 95.5l73 37q28 -53 47.5 -102t30.5 -86q14 -43 36.5 -58.5t61.5 -15.5q21 0 30.5 -11.5t9.5 -27.5t-14 -29.5t-36 -13.5q-38 0 -63.5 12t-41.5 32q-10 -56 -42 -102t-75 -80.5t-88 -56.5t-82 -32z M71 -7q-21 0 -35.5 14.5t-14.5 34.5t14.5 35t35.5 15q20 0 34.5 -15t14.5 -35t-14.5 -34.5t-34.5 -14.5zM83 -403q-21 0 -35.5 14.5t-14.5 34.5t14.5 35t35.5 15q20 0 34.5 -15t14.5 -35t-14.5 -34.5t-34.5 -14.5z" />
<glyph unicode="&#x697;" horiz-adv-x="396" d="M4 -232l-29 76q97 32 151.5 76t77 92.5t22.5 94.5q0 49 -21.5 99.5t-47.5 95.5l73 37q28 -53 47.5 -102t30.5 -86q14 -43 36.5 -58.5t61.5 -15.5q21 0 30.5 -11.5t9.5 -27.5t-14 -29.5t-36 -13.5q-38 0 -63.5 12t-41.5 32q-10 -56 -42 -102t-75 -80.5t-88 -56.5t-82 -32z M233 454q-21 0 -35.5 14.5t-14.5 34.5t14.5 35t35.5 15q20 0 34.5 -15t14.5 -35t-14.5 -34.5t-34.5 -14.5zM96 454q-21 0 -35.5 14.5t-14.5 34.5t14.5 35t35.5 15q20 0 34.5 -15t14.5 -35t-14.5 -34.5t-34.5 -14.5z" />
<glyph unicode="&#x699;" horiz-adv-x="396" d="M4 -232l-29 76q97 32 151.5 76t77 92.5t22.5 94.5q0 49 -21.5 99.5t-47.5 95.5l73 37q28 -53 47.5 -102t30.5 -86q14 -43 36.5 -58.5t61.5 -15.5q21 0 30.5 -11.5t9.5 -27.5t-14 -29.5t-36 -13.5q-38 0 -63.5 12t-41.5 32q-10 -56 -42 -102t-75 -80.5t-88 -56.5t-82 -32z M97 579q-21 0 -35.5 14.5t-14.5 34.5t14.5 35t35.5 15q20 0 34.5 -15t14.5 -35t-14.5 -34.5t-34.5 -14.5zM233 579q-21 0 -35.5 14.5t-14.5 34.5t14.5 35t35.5 15q20 0 34.5 -15t14.5 -35t-14.5 -34.5t-34.5 -14.5zM97 454q-21 0 -35.5 14.5t-14.5 34.5t14.5 35t35.5 15 q20 0 34.5 -15t14.5 -35t-14.5 -34.5t-34.5 -14.5zM233 454q-21 0 -35.5 14.5t-14.5 34.5t14.5 35t35.5 15q20 0 34.5 -15t14.5 -35t-14.5 -34.5t-34.5 -14.5z" />
<glyph unicode="&#x69a;" horiz-adv-x="784" d="M0 -5l10 82q32 0 52 4.5t33.5 23t25.5 58.5t28 112l75 -21q-6 -25 -14 -60t-8 -64q0 -25 19 -39t69 -14q30 0 49 5t31.5 24t22.5 61t21 115l76 -14q-3 -18 -7 -44t-7.5 -51.5t-3.5 -42.5q0 -14 6.5 -26.5t26 -19.5t58.5 -7q44 0 69.5 17t25.5 69q0 38 -17.5 95.5 t-39.5 114.5l81 30q13 -32 24.5 -73t19.5 -81t8 -70q0 -93 -46 -138.5t-126 -45.5q-55 0 -86.5 14.5t-45.5 45.5q-24 -37 -57.5 -48.5t-94.5 -11.5q-21 0 -44.5 5t-43.5 19.5t-31 43.5q-26 -44 -64.5 -56t-94.5 -12zM386 -191q-21 0 -35.5 14.5t-14.5 34.5t14.5 35t35.5 15 q20 0 34.5 -15t14.5 -35t-14.5 -34.5t-34.5 -14.5zM429 435q-21 0 -35.5 14.5t-14.5 34.5t14.5 35t35.5 15q20 0 34.5 -15t14.5 -35t-14.5 -34.5t-34.5 -14.5z" />
<glyph unicode="&#x69a;" horiz-adv-x="850" d="M0 -5l10 82q32 0 52 4.5t33.5 23t25.5 58.5t28 112l75 -21q-6 -25 -14 -60t-8 -64q0 -25 19 -39t69 -14q30 0 49 5t31.5 24t22.5 61t21 115l76 -14q-3 -18 -7 -44t-7.5 -51.5t-3.5 -42.5q0 -14 6.5 -26.5t26 -19.5t58.5 -7q50 0 72.5 21t22.5 64q0 35 -2 75.5t-10 102.5 l73 5q6 -81 13.5 -133t22 -81.5t39.5 -41.5t66 -12q21 0 30.5 -11.5t9.5 -27.5t-14 -29.5t-36 -13.5q-56 0 -92.5 25t-53.5 63q-20 -53 -60.5 -70.5t-89.5 -17.5q-51 0 -80.5 14.5t-43.5 44.5q-24 -36 -57.5 -47.5t-94.5 -11.5q-21 0 -44.5 5t-43.5 19.5t-31 43.5 q-26 -44 -64.5 -56t-94.5 -12zM386 -191q-21 0 -35.5 14.5t-14.5 34.5t14.5 35t35.5 15q20 0 34.5 -15t14.5 -35t-14.5 -34.5t-34.5 -14.5zM429 435q-21 0 -35.5 14.5t-14.5 34.5t14.5 35t35.5 15q20 0 34.5 -15t14.5 -35t-14.5 -34.5t-34.5 -14.5z" />
<glyph unicode="&#x69a;" horiz-adv-x="1269" d="M313 -232q-75 0 -139.5 27.5t-104 79t-39.5 124.5q0 36 10 80t32 97l72 -28q-16 -42 -24 -77t-8 -65q0 -51 27.5 -86t74 -52.5t102.5 -17.5q91 0 142.5 26.5t73 67t21.5 82.5q0 66 -14.5 121.5t-31.5 114.5l81 22q16 -57 22.5 -82.5t10.5 -41.5q11 -37 25.5 -54.5t34 -23 t44.5 -5.5q20 0 35.5 5t29 24t24 61t19.5 115l76 -14q-3 -18 -7 -44t-7.5 -51.5t-3.5 -42.5q0 -14 6.5 -26.5t26 -19.5t58.5 -7q50 0 72.5 21t22.5 64q0 35 -2 75.5t-10 102.5l73 5q6 -81 13.5 -133t22 -81.5t39.5 -41.5t66 -12q21 0 30.5 -11.5t9.5 -27.5t-14 -29.5 t-36 -13.5q-56 0 -92.5 25t-53.5 63q-20 -53 -60.5 -70.5t-89.5 -17.5q-51 0 -81 14.5t-44 45.5q-21 -32 -51 -46t-77 -14q-29 0 -50 7t-35 19q-6 -47 -24 -92.5t-54.5 -81.5t-96 -57.5t-147.5 -21.5zM848 -186q-21 0 -35.5 14.5t-14.5 34.5t14.5 35t35.5 15q20 0 34.5 -15 t14.5 -35t-14.5 -34.5t-34.5 -14.5zM822 435q-21 0 -35.5 14.5t-14.5 34.5t14.5 35t35.5 15q20 0 34.5 -15t14.5 -35t-14.5 -34.5t-34.5 -14.5z" />
<glyph unicode="&#x69b;" horiz-adv-x="784" d="M0 -5l10 82q32 0 52 4.5t33.5 23t25.5 58.5t28 112l75 -21q-6 -25 -14 -60t-8 -64q0 -25 19 -39t69 -14q30 0 49 5t31.5 24t22.5 61t21 115l76 -14q-3 -18 -7 -44t-7.5 -51.5t-3.5 -42.5q0 -14 6.5 -26.5t26 -19.5t58.5 -7q44 0 69.5 17t25.5 69q0 38 -17.5 95.5 t-39.5 114.5l81 30q13 -32 24.5 -73t19.5 -81t8 -70q0 -93 -46 -138.5t-126 -45.5q-55 0 -86.5 14.5t-45.5 45.5q-24 -37 -57.5 -48.5t-94.5 -11.5q-21 0 -44.5 5t-43.5 19.5t-31 43.5q-26 -44 -64.5 -56t-94.5 -12zM318 -194q-21 0 -35.5 14.5t-14.5 34.5t14.5 35t35.5 15 q20 0 34.5 -15t14.5 -35t-14.5 -34.5t-34.5 -14.5zM454 -194q-21 0 -35.5 14.5t-14.5 34.5t14.5 35t35.5 15q20 0 34.5 -15t14.5 -35t-14.5 -34.5t-34.5 -14.5zM386 -304q-21 0 -35.5 14.5t-14.5 34.5t14.5 35t35.5 15q20 0 34.5 -15t14.5 -35t-14.5 -34.5t-34.5 -14.5z" />
<glyph unicode="&#x69b;" horiz-adv-x="850" d="M0 -5l10 82q32 0 52 4.5t33.5 23t25.5 58.5t28 112l75 -21q-6 -25 -14 -60t-8 -64q0 -25 19 -39t69 -14q30 0 49 5t31.5 24t22.5 61t21 115l76 -14q-3 -18 -7 -44t-7.5 -51.5t-3.5 -42.5q0 -14 6.5 -26.5t26 -19.5t58.5 -7q50 0 72.5 21t22.5 64q0 35 -2 75.5t-10 102.5 l73 5q6 -81 13.5 -133t22 -81.5t39.5 -41.5t66 -12q21 0 30.5 -11.5t9.5 -27.5t-14 -29.5t-36 -13.5q-56 0 -92.5 25t-53.5 63q-20 -53 -60.5 -70.5t-89.5 -17.5q-51 0 -80.5 14.5t-43.5 44.5q-24 -36 -57.5 -47.5t-94.5 -11.5q-21 0 -44.5 5t-43.5 19.5t-31 43.5 q-26 -44 -64.5 -56t-94.5 -12zM318 -194q-21 0 -35.5 14.5t-14.5 34.5t14.5 35t35.5 15q20 0 34.5 -15t14.5 -35t-14.5 -34.5t-34.5 -14.5zM454 -194q-21 0 -35.5 14.5t-14.5 34.5t14.5 35t35.5 15q20 0 34.5 -15t14.5 -35t-14.5 -34.5t-34.5 -14.5zM386 -304 q-21 0 -35.5 14.5t-14.5 34.5t14.5 35t35.5 15q20 0 34.5 -15t14.5 -35t-14.5 -34.5t-34.5 -14.5z" />
<glyph unicode="&#x69b;" horiz-adv-x="1269" d="M313 -232q-75 0 -139.5 27.5t-104 79t-39.5 124.5q0 36 10 80t32 97l72 -28q-16 -42 -24 -77t-8 -65q0 -51 27.5 -86t74 -52.5t102.5 -17.5q91 0 142.5 26.5t73 67t21.5 82.5q0 66 -14.5 121.5t-31.5 114.5l81 22q16 -57 22.5 -82.5t10.5 -41.5q11 -37 25.5 -54.5t34 -23 t44.5 -5.5q20 0 35.5 5t29 24t24 61t19.5 115l76 -14q-3 -18 -7 -44t-7.5 -51.5t-3.5 -42.5q0 -14 6.5 -26.5t26 -19.5t58.5 -7q50 0 72.5 21t22.5 64q0 35 -2 75.5t-10 102.5l73 5q6 -81 13.5 -133t22 -81.5t39.5 -41.5t66 -12q21 0 30.5 -11.5t9.5 -27.5t-14 -29.5 t-36 -13.5q-56 0 -92.5 25t-53.5 63q-20 -53 -60.5 -70.5t-89.5 -17.5q-51 0 -81 14.5t-44 45.5q-21 -32 -51 -46t-77 -14q-29 0 -50 7t-35 19q-6 -47 -24 -92.5t-54.5 -81.5t-96 -57.5t-147.5 -21.5zM780 -189q-21 0 -35.5 14.5t-14.5 34.5t14.5 35t35.5 15q20 0 34.5 -15 t14.5 -35t-14.5 -34.5t-34.5 -14.5zM916 -189q-21 0 -35.5 14.5t-14.5 34.5t14.5 35t35.5 15q20 0 34.5 -15t14.5 -35t-14.5 -34.5t-34.5 -14.5zM848 -299q-21 0 -35.5 14.5t-14.5 34.5t14.5 35t35.5 15q20 0 34.5 -15t14.5 -35t-14.5 -34.5t-34.5 -14.5z" />
<glyph unicode="&#x69c;" horiz-adv-x="784" d="M0 -5l10 82q32 0 52 4.5t33.5 23t25.5 58.5t28 112l75 -21q-6 -25 -14 -60t-8 -64q0 -25 19 -39t69 -14q30 0 49 5t31.5 24t22.5 61t21 115l76 -14q-3 -18 -7 -44t-7.5 -51.5t-3.5 -42.5q0 -14 6.5 -26.5t26 -19.5t58.5 -7q44 0 69.5 17t25.5 69q0 38 -17.5 95.5 t-39.5 114.5l81 30q13 -32 24.5 -73t19.5 -81t8 -70q0 -93 -46 -138.5t-126 -45.5q-55 0 -86.5 14.5t-45.5 45.5q-24 -37 -57.5 -48.5t-94.5 -11.5q-21 0 -44.5 5t-43.5 19.5t-31 43.5q-26 -44 -64.5 -56t-94.5 -12zM431 545q-21 0 -35.5 14.5t-14.5 34.5t14.5 35t35.5 15 q20 0 34.5 -15t14.5 -35t-14.5 -34.5t-34.5 -14.5zM363 435q-21 0 -35.5 14.5t-14.5 34.5t14.5 35t35.5 15q20 0 34.5 -15t14.5 -35t-14.5 -34.5t-34.5 -14.5zM499 435q-21 0 -35.5 14.5t-14.5 34.5t14.5 35t35.5 15q20 0 34.5 -15t14.5 -35t-14.5 -34.5t-34.5 -14.5z M318 -194q-21 0 -35.5 14.5t-14.5 34.5t14.5 35t35.5 15q20 0 34.5 -15t14.5 -35t-14.5 -34.5t-34.5 -14.5zM454 -194q-21 0 -35.5 14.5t-14.5 34.5t14.5 35t35.5 15q20 0 34.5 -15t14.5 -35t-14.5 -34.5t-34.5 -14.5zM386 -304q-21 0 -35.5 14.5t-14.5 34.5t14.5 35 t35.5 15q20 0 34.5 -15t14.5 -35t-14.5 -34.5t-34.5 -14.5z" />
<glyph unicode="&#x69c;" horiz-adv-x="850" d="M0 -5l10 82q32 0 52 4.5t33.5 23t25.5 58.5t28 112l75 -21q-6 -25 -14 -60t-8 -64q0 -25 19 -39t69 -14q30 0 49 5t31.5 24t22.5 61t21 115l76 -14q-3 -18 -7 -44t-7.5 -51.5t-3.5 -42.5q0 -14 6.5 -26.5t26 -19.5t58.5 -7q50 0 72.5 21t22.5 64q0 35 -2 75.5t-10 102.5 l73 5q6 -81 13.5 -133t22 -81.5t39.5 -41.5t66 -12q21 0 30.5 -11.5t9.5 -27.5t-14 -29.5t-36 -13.5q-56 0 -92.5 25t-53.5 63q-20 -53 -60.5 -70.5t-89.5 -17.5q-51 0 -80.5 14.5t-43.5 44.5q-24 -36 -57.5 -47.5t-94.5 -11.5q-21 0 -44.5 5t-43.5 19.5t-31 43.5 q-26 -44 -64.5 -56t-94.5 -12zM431 545q-21 0 -35.5 14.5t-14.5 34.5t14.5 35t35.5 15q20 0 34.5 -15t14.5 -35t-14.5 -34.5t-34.5 -14.5zM363 435q-21 0 -35.5 14.5t-14.5 34.5t14.5 35t35.5 15q20 0 34.5 -15t14.5 -35t-14.5 -34.5t-34.5 -14.5zM499 435q-21 0 -35.5 14.5 t-14.5 34.5t14.5 35t35.5 15q20 0 34.5 -15t14.5 -35t-14.5 -34.5t-34.5 -14.5zM318 -194q-21 0 -35.5 14.5t-14.5 34.5t14.5 35t35.5 15q20 0 34.5 -15t14.5 -35t-14.5 -34.5t-34.5 -14.5zM454 -194q-21 0 -35.5 14.5t-14.5 34.5t14.5 35t35.5 15q20 0 34.5 -15t14.5 -35 t-14.5 -34.5t-34.5 -14.5zM386 -304q-21 0 -35.5 14.5t-14.5 34.5t14.5 35t35.5 15q20 0 34.5 -15t14.5 -35t-14.5 -34.5t-34.5 -14.5z" />
<glyph unicode="&#x69c;" horiz-adv-x="1269" d="M313 -232q-75 0 -139.5 27.5t-104 79t-39.5 124.5q0 36 10 80t32 97l72 -28q-16 -42 -24 -77t-8 -65q0 -51 27.5 -86t74 -52.5t102.5 -17.5q91 0 142.5 26.5t73 67t21.5 82.5q0 66 -14.5 121.5t-31.5 114.5l81 22q16 -57 22.5 -82.5t10.5 -41.5q11 -37 25.5 -54.5t34 -23 t44.5 -5.5q20 0 35.5 5t29 24t24 61t19.5 115l76 -14q-3 -18 -7 -44t-7.5 -51.5t-3.5 -42.5q0 -14 6.5 -26.5t26 -19.5t58.5 -7q50 0 72.5 21t22.5 64q0 35 -2 75.5t-10 102.5l73 5q6 -81 13.5 -133t22 -81.5t39.5 -41.5t66 -12q21 0 30.5 -11.5t9.5 -27.5t-14 -29.5 t-36 -13.5q-56 0 -92.5 25t-53.5 63q-20 -53 -60.5 -70.5t-89.5 -17.5q-51 0 -81 14.5t-44 45.5q-21 -32 -51 -46t-77 -14q-29 0 -50 7t-35 19q-6 -47 -24 -92.5t-54.5 -81.5t-96 -57.5t-147.5 -21.5zM824 545q-21 0 -35.5 14.5t-14.5 34.5t14.5 35t35.5 15q20 0 34.5 -15 t14.5 -35t-14.5 -34.5t-34.5 -14.5zM756 435q-21 0 -35.5 14.5t-14.5 34.5t14.5 35t35.5 15q20 0 34.5 -15t14.5 -35t-14.5 -34.5t-34.5 -14.5zM892 435q-21 0 -35.5 14.5t-14.5 34.5t14.5 35t35.5 15q20 0 34.5 -15t14.5 -35t-14.5 -34.5t-34.5 -14.5zM780 -189 q-21 0 -35.5 14.5t-14.5 34.5t14.5 35t35.5 15q20 0 34.5 -15t14.5 -35t-14.5 -34.5t-34.5 -14.5zM916 -189q-21 0 -35.5 14.5t-14.5 34.5t14.5 35t35.5 15q20 0 34.5 -15t14.5 -35t-14.5 -34.5t-34.5 -14.5zM848 -299q-21 0 -35.5 14.5t-14.5 34.5t14.5 35t35.5 15 q20 0 34.5 -15t14.5 -35t-14.5 -34.5t-34.5 -14.5z" />
<glyph unicode="&#x69d;" horiz-adv-x="903" d="M484 -18q-107 0 -172.5 9.5t-99.5 29t-47 49.5q-24 -35 -50.5 -50.5t-55 -20t-59.5 -4.5l10 82q47 0 72 18.5t40 61.5t32 118l73 -19q-10 -35 -15.5 -63t-5.5 -42q0 -28 15.5 -46.5t64.5 -27.5q32 50 76 101.5t96 94.5t108.5 69.5t114.5 26.5q55 0 94.5 -22.5t61 -60.5 t21.5 -86q0 -59 -34.5 -108.5t-116.5 -79.5t-223 -30zM675 287q-45 0 -90.5 -22.5t-86.5 -57.5t-74 -72.5t-55 -67.5q53 -3 133 -3q132 0 205.5 32.5t73.5 95.5q0 22 -11 43.5t-34 36.5t-61 15zM556 -207q-21 0 -35.5 14.5t-14.5 34.5t14.5 35t35.5 15q20 0 34.5 -15 t14.5 -35t-14.5 -34.5t-34.5 -14.5zM419 -207q-21 0 -35.5 14.5t-14.5 34.5t14.5 35t35.5 15q20 0 34.5 -15t14.5 -35t-14.5 -34.5t-34.5 -14.5z" />
<glyph unicode="&#x69d;" horiz-adv-x="949" d="M484 -18q-107 0 -172.5 9.5t-99.5 29t-47 49.5q-24 -35 -50.5 -50.5t-55 -20t-59.5 -4.5l10 82q47 0 72 18.5t40 61.5t32 118l73 -19q-10 -35 -15.5 -63t-5.5 -42q0 -28 15.5 -46.5t64.5 -27.5q32 50 76 101.5t96 94.5t108.5 69.5t114.5 26.5q55 0 94.5 -22.5t61 -60.5 t21.5 -86q0 -28 -7.5 -54.5t-23.5 -49.5q33 -12 67.5 -15.5t64.5 -3.5q21 0 30.5 -11.5t9.5 -27.5t-14 -29.5t-36 -13.5t-54.5 4t-67 13t-63.5 26q-45 -26 -113.5 -41t-166.5 -15zM675 287q-45 0 -90.5 -22.5t-86.5 -57.5t-74 -72.5t-55 -67.5q53 -3 133 -3 q132 0 205.5 32.5t73.5 95.5q0 22 -11 43.5t-34 36.5t-61 15zM556 -207q-21 0 -35.5 14.5t-14.5 34.5t14.5 35t35.5 15q20 0 34.5 -15t14.5 -35t-14.5 -34.5t-34.5 -14.5zM419 -207q-21 0 -35.5 14.5t-14.5 34.5t14.5 35t35.5 15q20 0 34.5 -15t14.5 -35t-14.5 -34.5 t-34.5 -14.5z" />
<glyph unicode="&#x69d;" horiz-adv-x="1352" d="M313 -232q-75 0 -139.5 27.5t-104 79t-39.5 124.5q0 36 10 80t32 97l72 -28q-16 -42 -24 -77t-8 -65q0 -51 27.5 -86t74 -52.5t102.5 -17.5q91 0 142.5 29t73 75t21.5 95t-14.5 101.5t-31.5 111.5l81 22q16 -57 21.5 -83t11.5 -41q19 -48 74 -68q33 49 76.5 99t94.5 91.5 t106 66.5t112 25q55 0 94.5 -22.5t61 -60.5t21.5 -86q0 -29 -8 -56.5t-26 -51.5q34 -12 69 -16t66 -4q21 0 30.5 -11.5t9.5 -27.5t-14 -29.5t-36 -13.5q-23 0 -56 4t-68.5 14t-65.5 28q-44 -25 -111.5 -39.5t-163.5 -14.5t-157 15t-93 37q-5 -48 -22 -95.5t-52.5 -87.5 t-96 -64t-153.5 -24zM1078 292q-45 0 -89.5 -22t-85 -56.5t-74 -71.5t-55.5 -67q27 -3 59.5 -4.5t71.5 -1.5q132 0 205.5 32.5t73.5 95.5q0 22 -11 43.5t-34 36.5t-61 15zM976 -202q-21 0 -35.5 14.5t-14.5 34.5t14.5 35t35.5 15q20 0 34.5 -15t14.5 -35t-14.5 -34.5 t-34.5 -14.5zM839 -202q-21 0 -35.5 14.5t-14.5 34.5t14.5 35t35.5 15q20 0 34.5 -15t14.5 -35t-14.5 -34.5t-34.5 -14.5z" />
<glyph unicode="&#x69e;" horiz-adv-x="903" d="M484 -18q-107 0 -172.5 9.5t-99.5 29t-47 49.5q-24 -35 -50.5 -50.5t-55 -20t-59.5 -4.5l10 82q47 0 72 18.5t40 61.5t32 118l73 -19q-10 -35 -15.5 -63t-5.5 -42q0 -28 15.5 -46.5t64.5 -27.5q32 50 76 101.5t96 94.5t108.5 69.5t114.5 26.5q55 0 94.5 -22.5t61 -60.5 t21.5 -86q0 -59 -34.5 -108.5t-116.5 -79.5t-223 -30zM675 287q-45 0 -90.5 -22.5t-86.5 -57.5t-74 -72.5t-55 -67.5q53 -3 133 -3q132 0 205.5 32.5t73.5 95.5q0 22 -11 43.5t-34 36.5t-61 15zM654 582q-21 0 -35.5 14.5t-14.5 34.5t14.5 35t35.5 15q20 0 34.5 -15 t14.5 -35t-14.5 -34.5t-34.5 -14.5zM586 472q-21 0 -35.5 14.5t-14.5 34.5t14.5 35t35.5 15q20 0 34.5 -15t14.5 -35t-14.5 -34.5t-34.5 -14.5zM722 472q-21 0 -35.5 14.5t-14.5 34.5t14.5 35t35.5 15q20 0 34.5 -15t14.5 -35t-14.5 -34.5t-34.5 -14.5z" />
<glyph unicode="&#x69e;" horiz-adv-x="949" d="M484 -18q-107 0 -172.5 9.5t-99.5 29t-47 49.5q-24 -35 -50.5 -50.5t-55 -20t-59.5 -4.5l10 82q47 0 72 18.5t40 61.5t32 118l73 -19q-10 -35 -15.5 -63t-5.5 -42q0 -28 15.5 -46.5t64.5 -27.5q32 50 76 101.5t96 94.5t108.5 69.5t114.5 26.5q55 0 94.5 -22.5t61 -60.5 t21.5 -86q0 -28 -7.5 -54.5t-23.5 -49.5q33 -12 67.5 -15.5t64.5 -3.5q21 0 30.5 -11.5t9.5 -27.5t-14 -29.5t-36 -13.5t-54.5 4t-67 13t-63.5 26q-45 -26 -113.5 -41t-166.5 -15zM675 287q-45 0 -90.5 -22.5t-86.5 -57.5t-74 -72.5t-55 -67.5q53 -3 133 -3 q132 0 205.5 32.5t73.5 95.5q0 22 -11 43.5t-34 36.5t-61 15zM654 582q-21 0 -35.5 14.5t-14.5 34.5t14.5 35t35.5 15q20 0 34.5 -15t14.5 -35t-14.5 -34.5t-34.5 -14.5zM586 472q-21 0 -35.5 14.5t-14.5 34.5t14.5 35t35.5 15q20 0 34.5 -15t14.5 -35t-14.5 -34.5 t-34.5 -14.5zM722 472q-21 0 -35.5 14.5t-14.5 34.5t14.5 35t35.5 15q20 0 34.5 -15t14.5 -35t-14.5 -34.5t-34.5 -14.5z" />
<glyph unicode="&#x69e;" horiz-adv-x="1352" d="M313 -232q-75 0 -139.5 27.5t-104 79t-39.5 124.5q0 36 10 80t32 97l72 -28q-16 -42 -24 -77t-8 -65q0 -51 27.5 -86t74 -52.5t102.5 -17.5q91 0 142.5 29t73 75t21.5 95t-14.5 101.5t-31.5 111.5l81 22q16 -57 21.5 -83t11.5 -41q19 -48 74 -68q33 49 76.5 99t94.5 91.5 t106 66.5t112 25q55 0 94.5 -22.5t61 -60.5t21.5 -86q0 -29 -8 -56.5t-26 -51.5q34 -12 69 -16t66 -4q21 0 30.5 -11.5t9.5 -27.5t-14 -29.5t-36 -13.5q-23 0 -56 4t-68.5 14t-65.5 28q-44 -25 -111.5 -39.5t-163.5 -14.5t-157 15t-93 37q-5 -48 -22 -95.5t-52.5 -87.5 t-96 -64t-153.5 -24zM1078 292q-45 0 -89.5 -22t-85 -56.5t-74 -71.5t-55.5 -67q27 -3 59.5 -4.5t71.5 -1.5q132 0 205.5 32.5t73.5 95.5q0 22 -11 43.5t-34 36.5t-61 15zM1057 587q-21 0 -35.5 14.5t-14.5 34.5t14.5 35t35.5 15q20 0 34.5 -15t14.5 -35t-14.5 -34.5 t-34.5 -14.5zM989 477q-21 0 -35.5 14.5t-14.5 34.5t14.5 35t35.5 15q20 0 34.5 -15t14.5 -35t-14.5 -34.5t-34.5 -14.5zM1125 477q-21 0 -35.5 14.5t-14.5 34.5t14.5 35t35.5 15q20 0 34.5 -15t14.5 -35t-14.5 -34.5t-34.5 -14.5z" />
<glyph unicode="&#x69f;" horiz-adv-x="677" d="M0 -5l10 82h50q16 25 34 49l-19 588h81l18 -494q61 62 133.5 105.5t147.5 43.5q55 0 94.5 -22.5t61 -60.5t21.5 -86q0 -47 -34 -94.5t-117 -74.5q-64 -21 -154 -28.5t-222 -7.5h-105zM449 287q-43 0 -86.5 -21t-83.5 -53.5t-73 -69t-55 -66.5h68q174 0 255 30t81 94 q0 17 -11 37t-34 34.5t-61 14.5zM408 582q-21 0 -35.5 14.5t-14.5 34.5t14.5 35t35.5 15q20 0 34.5 -15t14.5 -35t-14.5 -34.5t-34.5 -14.5zM340 472q-21 0 -35.5 14.5t-14.5 34.5t14.5 35t35.5 15q20 0 34.5 -15t14.5 -35t-14.5 -34.5t-34.5 -14.5zM476 472 q-21 0 -35.5 14.5t-14.5 34.5t14.5 35t35.5 15q20 0 34.5 -15t14.5 -35t-14.5 -34.5t-34.5 -14.5z" />
<glyph unicode="&#x69f;" horiz-adv-x="710" d="M0 -5l10 82h50q16 25 34 49l-19 588h81l18 -494q61 62 133.5 105.5t147.5 43.5q55 0 94.5 -22.5t61 -60.5t21.5 -86q0 -26 -10 -53t-33 -51q33 -12 67 -15.5t64 -3.5q21 0 30.5 -11.5t9.5 -27.5t-14 -29.5t-36 -13.5q-23 0 -57.5 4t-71.5 15t-66 30q-16 -7 -34 -13 q-64 -21 -154 -28.5t-222 -7.5h-105zM449 287q-43 0 -86.5 -21t-83.5 -53.5t-73 -69t-55 -66.5h68q174 0 255 30t81 94q0 17 -11 37t-34 34.5t-61 14.5zM408 582q-21 0 -35.5 14.5t-14.5 34.5t14.5 35t35.5 15q20 0 34.5 -15t14.5 -35t-14.5 -34.5t-34.5 -14.5zM340 472 q-21 0 -35.5 14.5t-14.5 34.5t14.5 35t35.5 15q20 0 34.5 -15t14.5 -35t-14.5 -34.5t-34.5 -14.5zM476 472q-21 0 -35.5 14.5t-14.5 34.5t14.5 35t35.5 15q20 0 34.5 -15t14.5 -35t-14.5 -34.5t-34.5 -14.5z" />
<glyph unicode="&#x69f;" horiz-adv-x="831" d="M369 -13q-125 0 -214 6.5t-135 12.5l9 78q27 -4 61 -6.5t75 -4.5q22 34 47 67l-19 574h81l18 -482q60 60 130.5 101t143.5 41q55 0 94.5 -22.5t61 -60.5t21.5 -86q0 -29 -8 -57t-26 -52q33 -12 67.5 -15.5t64.5 -3.5q21 0 30.5 -11.5t9.5 -27.5t-14 -29.5t-36 -13.5 t-55 4t-68.5 13.5t-64.5 27.5q-44 -25 -111.5 -39t-162.5 -14zM560 292q-46 0 -91.5 -23t-86.5 -58t-74.5 -73t-54.5 -68q31 0 64.5 -0.5t69.5 -0.5q132 0 205.5 32.5t73.5 95.5q0 22 -11 43.5t-34 36.5t-61 15zM519 587q-21 0 -35.5 14.5t-14.5 34.5t14.5 35t35.5 15 q20 0 34.5 -15t14.5 -35t-14.5 -34.5t-34.5 -14.5zM451 477q-21 0 -35.5 14.5t-14.5 34.5t14.5 35t35.5 15q20 0 34.5 -15t14.5 -35t-14.5 -34.5t-34.5 -14.5zM587 477q-21 0 -35.5 14.5t-14.5 34.5t14.5 35t35.5 15q20 0 34.5 -15t14.5 -35t-14.5 -34.5t-34.5 -14.5z" />
<glyph unicode="&#x6a0;" horiz-adv-x="503" d="M0 -5l10 82q63 0 97.5 1t50.5 2.5t22 1.5q-18 10 -42 31.5t-42 55t-18 79.5q0 57 26.5 100t73 67t106.5 24q48 0 99 -16l-17 -77q-42 11 -82 11q-55 0 -89.5 -29.5t-34.5 -79.5q0 -33 17 -58.5t42.5 -43t53 -26.5t49.5 -8q16 5 29.5 9.5t34.5 13t59 25.5l28 -73 q-67 -27 -136.5 -48t-151 -32.5t-185.5 -11.5zM267 652q-21 0 -35.5 14.5t-14.5 34.5t14.5 35t35.5 15q20 0 34.5 -15t14.5 -35t-14.5 -34.5t-34.5 -14.5zM199 542q-21 0 -35.5 14.5t-14.5 34.5t14.5 35t35.5 15q20 0 34.5 -15t14.5 -35t-14.5 -34.5t-34.5 -14.5zM335 542 q-21 0 -35.5 14.5t-14.5 34.5t14.5 35t35.5 15q20 0 34.5 -15t14.5 -35t-14.5 -34.5t-34.5 -14.5z" />
<glyph unicode="&#x6a0;" horiz-adv-x="521" d="M0 -5l10 82q53 0 101 9t89 25q-24 28 -54 57t-66 55q-6 5 -12 18t-10 27t-4 21q0 15 19 36t51 40.5t73 32.5t85 13q57 0 92.5 -17t52 -43.5t16.5 -56.5q0 -49 -28 -97.5t-77 -88.5q43 -16 93 -23.5t100 -7.5q21 0 30.5 -11.5t9.5 -27.5t-14 -29.5t-36 -13.5 q-66 0 -135.5 15.5t-123.5 47.5q-55 -29 -121.5 -46t-140.5 -17zM126 284q38 -32 71.5 -62.5t74.5 -74.5q43 28 67.5 60.5t24.5 64.5q0 20 -21.5 39t-75.5 19q-34 0 -75.5 -13t-65.5 -33zM277 624q-21 0 -35.5 14.5t-14.5 34.5t14.5 35t35.5 15q20 0 34.5 -15t14.5 -35 t-14.5 -34.5t-34.5 -14.5zM209 514q-21 0 -35.5 14.5t-14.5 34.5t14.5 35t35.5 15q20 0 34.5 -15t14.5 -35t-14.5 -34.5t-34.5 -14.5zM345 514q-21 0 -35.5 14.5t-14.5 34.5t14.5 35t35.5 15q20 0 34.5 -15t14.5 -35t-14.5 -34.5t-34.5 -14.5z" />
<glyph unicode="&#x6a0;" horiz-adv-x="531" d="M297 -394q-45 0 -95 8.5t-93.5 32t-71 66t-27.5 109.5q0 73 30 127t76 93.5t93 71.5q-24 28 -53 56t-64 53q-6 5 -12 18t-10 27t-4 21q0 15 19 36t51 40.5t73 32.5t85 13q71 0 110 -35t39 -82q0 -57 -31.5 -99t-76.5 -78q38 -19 85 -29.5t121 -10.5q21 0 30.5 -11.5 t9.5 -27.5t-14 -29.5t-36 -13.5q-69 0 -117.5 9t-83.5 24.5t-65 36.5q-44 -32 -83.5 -65t-64.5 -73t-25 -92q0 -46 22 -75t55 -44.5t68 -21.5t60 -6q52 0 109 11.5t118 36.5l26 -64q-29 -17 -71 -32.5t-89 -24.5t-93 -9zM138 284q36 -30 67.5 -58.5t68.5 -67.5 q39 27 64.5 54t25.5 60q0 20 -19 39t-66 19q-34 0 -75.5 -13t-65.5 -33zM297 624q-21 0 -35.5 14.5t-14.5 34.5t14.5 35t35.5 15q20 0 34.5 -15t14.5 -35t-14.5 -34.5t-34.5 -14.5zM229 514q-21 0 -35.5 14.5t-14.5 34.5t14.5 35t35.5 15q20 0 34.5 -15t14.5 -35 t-14.5 -34.5t-34.5 -14.5zM365 514q-21 0 -35.5 14.5t-14.5 34.5t14.5 35t35.5 15q20 0 34.5 -15t14.5 -35t-14.5 -34.5t-34.5 -14.5z" />
<glyph unicode="&#x6a1;" horiz-adv-x="925" d="M625 300q0 -21 15 -36t36 -15t36.5 15t15.5 36t-15.5 36t-36.5 15t-36 -15t-15 -36zM528 300q0 62 43 106t105 44t105.5 -44t43.5 -106t-43.5 -106t-105.5 -44t-105 44t-43 106zM825 300v-200h120v-100h-920l60 100h640v128z" />
<glyph unicode="&#x6a1;" horiz-adv-x="850" d="M625 300q0 -21 15 -36t36 -15t36.5 15t15.5 36t-15.5 36t-36.5 15t-36 -15t-15 -36zM528 300q0 62 43 106t105 44t105.5 -44t43.5 -106t-43.5 -106t-105.5 -44t-105 44t-43 106zM825 300v-277q0 -19 -20 -21l-20 -2h-760l60 100h640v128z" />
<glyph unicode="&#x6a2;" horiz-adv-x="447" d="M200 300q0 -21 15 -36t36 -15t36.5 15t15.5 36t-15.5 36t-36.5 15t-36 -15t-15 -36zM103 300q0 62 43.5 106t104.5 44t105 -44t44 -106t-44 -106t-105 -44t-104.5 44t-43.5 106zM400 300v-277q0 -19 -20 -21l-20 -2h-380v100h320v128zM202 -191q-21 0 -35.5 14.5 t-14.5 34.5t14.5 35t35.5 15q20 0 34.5 -15t14.5 -35t-14.5 -34.5t-34.5 -14.5z" />
<glyph unicode="&#x6a2;" horiz-adv-x="495" d="M200 300q0 -21 15 -36t36 -15t36.5 15t15.5 36t-15.5 36t-36.5 15t-36 -15t-15 -36zM103 300q0 62 43.5 106t104.5 44t105 -44t44 -106t-44 -106t-105 -44t-104.5 44t-43.5 106zM400 300v-200h120v-100h-540v100h320v128zM243 -191q-21 0 -35.5 14.5t-14.5 34.5t14.5 35 t35.5 15q20 0 34.5 -15t14.5 -35t-14.5 -34.5t-34.5 -14.5z" />
<glyph unicode="&#x6a2;" horiz-adv-x="1098" d="M625 300q0 -21 15 -36t36 -15t36.5 15t15.5 36t-15.5 36t-36.5 15t-36 -15t-15 -36zM528 300q0 62 43 106t105 44t105.5 -44t43.5 -106t-43.5 -106t-105.5 -44t-105 44t-43 106zM825 300v-200h120v-100h-920l60 100h640v128zM460 -211q-21 0 -35.5 14.5t-14.5 34.5 t14.5 35t35.5 15q20 0 34.5 -15t14.5 -35t-14.5 -34.5t-34.5 -14.5z" />
<glyph unicode="&#x6a3;" horiz-adv-x="447" d="M200 300q0 -21 15 -36t36 -15t36.5 15t15.5 36t-15.5 36t-36.5 15t-36 -15t-15 -36zM103 300q0 62 43.5 106t104.5 44t105 -44t44 -106t-44 -106t-105 -44t-104.5 44t-43.5 106zM400 300v-277q0 -19 -20 -21l-20 -2h-380v100h320v128zM223 604q-21 0 -35.5 14.5 t-14.5 34.5t14.5 35t35.5 15q20 0 34.5 -15t14.5 -35t-14.5 -34.5t-34.5 -14.5zM202 -191q-21 0 -35.5 14.5t-14.5 34.5t14.5 35t35.5 15q20 0 34.5 -15t14.5 -35t-14.5 -34.5t-34.5 -14.5z" />
<glyph unicode="&#x6a3;" horiz-adv-x="495" d="M200 300q0 -21 15 -36t36 -15t36.5 15t15.5 36t-15.5 36t-36.5 15t-36 -15t-15 -36zM103 300q0 62 43.5 106t104.5 44t105 -44t44 -106t-44 -106t-105 -44t-104.5 44t-43.5 106zM400 300v-200h120v-100h-540v100h320v128zM247 518q-21 0 -35.5 14.5t-14.5 34.5t14.5 35 t35.5 15q20 0 34.5 -15t14.5 -35t-14.5 -34.5t-34.5 -14.5zM243 -191q-21 0 -35.5 14.5t-14.5 34.5t14.5 35t35.5 15q20 0 34.5 -15t14.5 -35t-14.5 -34.5t-34.5 -14.5z" />
<glyph unicode="&#x6a3;" horiz-adv-x="1098" d="M625 300q0 -21 15 -36t36 -15t36.5 15t15.5 36t-15.5 36t-36.5 15t-36 -15t-15 -36zM528 300q0 62 43 106t105 44t105.5 -44t43.5 -106t-43.5 -106t-105.5 -44t-105 44t-43 106zM825 300v-200h120v-100h-920l60 100h640v128zM850 518q-21 0 -35.5 14.5t-14.5 34.5 t14.5 35t35.5 15q20 0 34.5 -15t14.5 -35t-14.5 -34.5t-34.5 -14.5zM460 -211q-21 0 -35.5 14.5t-14.5 34.5t14.5 35t35.5 15q20 0 34.5 -15t14.5 -35t-14.5 -34.5t-34.5 -14.5z" />
<glyph unicode="&#x6a5;" horiz-adv-x="447" d="M200 300q0 -21 15 -36t36 -15t36.5 15t15.5 36t-15.5 36t-36.5 15t-36 -15t-15 -36zM103 300q0 62 43.5 106t104.5 44t105 -44t44 -106t-44 -106t-105 -44t-104.5 44t-43.5 106zM400 300v-277q0 -19 -20 -21l-20 -2h-380v100h320v128zM134 -194q-21 0 -35.5 14.5 t-14.5 34.5t14.5 35t35.5 15q20 0 34.5 -15t14.5 -35t-14.5 -34.5t-34.5 -14.5zM270 -194q-21 0 -35.5 14.5t-14.5 34.5t14.5 35t35.5 15q20 0 34.5 -15t14.5 -35t-14.5 -34.5t-34.5 -14.5zM202 -304q-21 0 -35.5 14.5t-14.5 34.5t14.5 35t35.5 15q20 0 34.5 -15t14.5 -35 t-14.5 -34.5t-34.5 -14.5z" />
<glyph unicode="&#x6a5;" horiz-adv-x="495" d="M200 300q0 -21 15 -36t36 -15t36.5 15t15.5 36t-15.5 36t-36.5 15t-36 -15t-15 -36zM103 300q0 62 43.5 106t104.5 44t105 -44t44 -106t-44 -106t-105 -44t-104.5 44t-43.5 106zM400 300v-200h120v-100h-540v100h320v128zM175 -194q-21 0 -35.5 14.5t-14.5 34.5t14.5 35 t35.5 15q20 0 34.5 -15t14.5 -35t-14.5 -34.5t-34.5 -14.5zM311 -194q-21 0 -35.5 14.5t-14.5 34.5t14.5 35t35.5 15q20 0 34.5 -15t14.5 -35t-14.5 -34.5t-34.5 -14.5zM243 -304q-21 0 -35.5 14.5t-14.5 34.5t14.5 35t35.5 15q20 0 34.5 -15t14.5 -35t-14.5 -34.5 t-34.5 -14.5z" />
<glyph unicode="&#x6a5;" horiz-adv-x="1098" d="M625 300q0 -21 15 -36t36 -15t36.5 15t15.5 36t-15.5 36t-36.5 15t-36 -15t-15 -36zM528 300q0 62 43 106t105 44t105.5 -44t43.5 -106t-43.5 -106t-105.5 -44t-105 44t-43 106zM825 300v-200h120v-100h-920l60 100h640v128zM392 -214q-21 0 -35.5 14.5t-14.5 34.5 t14.5 35t35.5 15q20 0 34.5 -15t14.5 -35t-14.5 -34.5t-34.5 -14.5zM528 -214q-21 0 -35.5 14.5t-14.5 34.5t14.5 35t35.5 15q20 0 34.5 -15t14.5 -35t-14.5 -34.5t-34.5 -14.5zM460 -324q-21 0 -35.5 14.5t-14.5 34.5t14.5 35t35.5 15q20 0 34.5 -15t14.5 -35t-14.5 -34.5 t-34.5 -14.5z" />
<glyph unicode="&#x6a7;" horiz-adv-x="808" d="M292 150q0 -21 14.5 -35.5t35.5 -14.5t35.5 14.5t14.5 35.5t-14.5 35.5t-35.5 14.5t-35.5 -14.5t-14.5 -35.5zM620 100v-100h-278v100h278zM193 150q0 62 43.5 106t105.5 44t105 -44t43 -106t-43 -106t-105 -44t-105.5 44t-43.5 106zM490 50q0 -20 -6 -63t-29 -89.5 t-72.5 -79.5t-136.5 -33q-76 0 -125 33.5t-72.5 82t-23.5 94.5q0 66 23 118.5t59 84.5q2 -19 1.5 -36.5t-14.5 -36.5q8 1 25.5 -6.5t22.5 -35.5q-39 6 -59 -7q-14 -9 -21 -32.5t-7 -48.5q0 -57 49 -100t142 -43q76 0 110 37.5t34 120.5v68l100 72v-100zM569 434 q-21 0 -35.5 14.5t-14.5 34.5t14.5 35t35.5 15q20 0 34.5 -15t14.5 -35t-14.5 -34.5t-34.5 -14.5z" />
<glyph unicode="&#x6a8;" horiz-adv-x="808" d="M292 150q0 -21 14.5 -35.5t35.5 -14.5t35.5 14.5t14.5 35.5t-14.5 35.5t-35.5 14.5t-35.5 -14.5t-14.5 -35.5zM620 100v-100h-278v100h278zM193 150q0 62 43.5 106t105.5 44t105 -44t43 -106t-43 -106t-105 -44t-105.5 44t-43.5 106zM490 50q0 -20 -6 -63t-29 -89.5 t-72.5 -79.5t-136.5 -33q-76 0 -125 33.5t-72.5 82t-23.5 94.5q0 66 23 118.5t59 84.5q2 -19 1.5 -36.5t-14.5 -36.5q8 1 25.5 -6.5t22.5 -35.5q-39 6 -59 -7q-14 -9 -21 -32.5t-7 -48.5q0 -57 49 -100t142 -43q76 0 110 37.5t34 120.5v68l100 72v-100zM571 544 q-21 0 -35.5 14.5t-14.5 34.5t14.5 35t35.5 15q20 0 34.5 -15t14.5 -35t-14.5 -34.5t-34.5 -14.5zM503 434q-21 0 -35.5 14.5t-14.5 34.5t14.5 35t35.5 15q20 0 34.5 -15t14.5 -35t-14.5 -34.5t-34.5 -14.5zM639 434q-21 0 -35.5 14.5t-14.5 34.5t14.5 35t35.5 15 q20 0 34.5 -15t14.5 -35t-14.5 -34.5t-34.5 -14.5z" />
<glyph unicode="&#x6aa;" horiz-adv-x="763" d="M0 -5l10 82h281q110 0 187.5 2.5t119 15t41.5 40.5q0 18 -18 36.5t-68.5 33t-148.5 20.5q-107 7 -172 18t-94 33t-29 60q0 41 30 76.5t82.5 65t119.5 53t141 40.5l16 -72q-92 -21 -161.5 -47.5t-108 -53.5t-38.5 -50q0 -14 20.5 -22.5t67.5 -14.5t126 -13q95 -7 155 -21 t94 -33.5t47 -44.5t13 -54q0 -62 -45 -94.5t-138 -44t-239 -11.5h-291z" />
<glyph unicode="&#x6aa;" horiz-adv-x="838" d="M0 -5l10 82h281q110 0 187.5 2.5t119 15t41.5 40.5q0 18 -18 36.5t-68.5 33t-148.5 20.5q-107 7 -172 18t-94 33t-29 60q0 41 30 76.5t82.5 65t119.5 53t141 40.5l16 -72q-92 -21 -161.5 -47.5t-108 -53.5t-38.5 -50q0 -14 20.5 -22.5t67.5 -14.5t126 -13q95 -7 155 -21 t94 -33.5t47 -44.5t13 -54q0 -25 -7 -45v0q35 -14 72.5 -18.5t69.5 -4.5q21 0 30.5 -11.5t9.5 -27.5t-14 -29.5t-36 -13.5t-55 4t-68 13.5t-64 26.5q-49 -26 -138 -35t-222 -9h-291z" />
<glyph unicode="&#x6aa;" horiz-adv-x="1091" d="M546 -15q-48 0 -112.5 1t-134 3t-133.5 6t-111 9l6 80q67 -4 147.5 -8t167 -6.5t170.5 -2.5q164 0 256 12.5t92 55.5q0 18 -18 36.5t-68.5 33t-148.5 20.5q-107 7 -172 18t-94 33t-29 60q0 41 30 76.5t82.5 65t119.5 53t141 40.5l16 -72q-92 -21 -161.5 -47.5t-108 -53.5 t-38.5 -50q0 -14 20.5 -22.5t67.5 -14.5t126 -13q95 -7 155 -21t94 -33.5t47 -44.5t13 -54q0 -25 -7 -46q35 -14 71.5 -18t68.5 -4q21 0 30.5 -11.5t9.5 -27.5t-14 -29.5t-36 -13.5t-54 3.5t-66 13t-63 25.5q-49 -29 -138.5 -40.5t-223.5 -11.5z" />
<glyph unicode="&#x6ab;" horiz-adv-x="412" d="M0 -5l10 82h94q59 0 93.5 6.5t51 17t22 23t5.5 25.5q0 23 -17.5 57t-71.5 88q-37 38 -74 67t-61 49t-24 29q0 23 5.5 43t15.5 31q40 43 125.5 86.5t213.5 107.5l34 -74q-19 -9 -35 -17q16 -12 26 -30.5t10 -40.5q0 -37 -26 -63t-63 -26t-63 26t-26 63v1 q-46 -23 -77.5 -41.5t-58.5 -37.5q117 -95 179.5 -170.5t62.5 -152.5q0 -22 -8 -48t-34 -49t-78 -37.5t-140 -14.5h-91zM334 507q17 0 29 11t12 27q0 17 -12 28.5t-29 11.5t-29 -11.5t-12 -28.5q0 -16 12 -27t29 -11z" />
<glyph unicode="&#x6ab;" horiz-adv-x="508" d="M0 -5l10 82h77q83 0 123 9t52.5 24t12.5 31q0 24 -18 53t-46 59.5t-59.5 60.5t-59.5 55t-46 43.5t-18 26.5q0 23 5.5 43t15.5 31q27 29 79.5 60.5t120.5 65t139 68.5l34 -74l-32 -16q16 -12 26 -30.5t10 -40.5q0 -37 -26 -63t-63 -26t-63 26t-26 63v1q-41 -21 -78 -41.5 t-68 -42.5q55 -47 103 -91t89 -94.5t75 -114.5q21 -39 49 -57t55.5 -23.5t44.5 -5.5q21 0 30.5 -11.5t9.5 -27.5t-14 -29.5t-36 -13.5q-24 0 -55.5 6.5t-63.5 25t-56 54.5q-20 -29 -50 -48t-78 -28.5t-122 -9.5h-83zM337 508q17 0 29 11t12 27q0 17 -12 28.5t-29 11.5 t-29 -11.5t-12 -28.5q0 -16 12 -27t29 -11z" />
<glyph unicode="&#x6ab;" horiz-adv-x="975" d="M390 -21q-178 0 -269 47t-91 156q0 37 9 78.5t19 78.5l75 -19q-6 -22 -13.5 -55.5t-7.5 -59.5q0 -52 26.5 -83.5t92.5 -46t185 -14.5q125 0 196 13t100.5 32t29.5 35q0 24 -18 53t-46 59.5t-59.5 60.5t-59.5 55t-46 43.5t-18 26.5q0 23 5.5 43t15.5 31q27 29 79.5 60.5 t120.5 65t139 68.5l34 -74l-32 -16q16 -12 26 -30.5t10 -40.5q0 -37 -26 -63t-63 -26t-63 26t-26 63v1q-41 -21 -78 -41.5t-68 -42.5q55 -47 103 -91t89 -94.5t75 -114.5q21 -39 49 -57t55.5 -23.5t44.5 -5.5q21 0 30.5 -11.5t9.5 -27.5t-14 -29.5t-36 -13.5q-24 0 -56 6.5 t-63.5 25t-55.5 54.5q-17 -22 -45 -41t-74.5 -32.5t-117.5 -21t-173 -7.5zM804 508q17 0 29 11t12 27q0 17 -12 28.5t-29 11.5t-29 -11.5t-12 -28.5q0 -16 12 -27t29 -11z" />
<glyph unicode="&#x6ac;" horiz-adv-x="412" d="M0 -5l10 82h94q59 0 93.5 6.5t51 17t22 23t5.5 25.5q0 23 -17.5 57t-71.5 88q-37 38 -74 67t-61 49t-24 29q0 23 5.5 43t15.5 31q40 43 125.5 86.5t213.5 107.5l34 -74q-91 -44 -148.5 -72.5t-95 -50t-69.5 -43.5q117 -95 179.5 -170.5t62.5 -152.5q0 -22 -8 -48t-34 -49 t-78 -37.5t-140 -14.5h-91zM203 713q-21 0 -35.5 14.5t-14.5 34.5t14.5 35t35.5 15q20 0 34.5 -15t14.5 -35t-14.5 -34.5t-34.5 -14.5z" />
<glyph unicode="&#x6ac;" horiz-adv-x="508" d="M0 -5l10 82h77q83 0 123 9t52.5 24t12.5 31q0 24 -18 53t-46 59.5t-59.5 60.5t-59.5 55t-46 43.5t-18 26.5q0 23 5.5 43t15.5 31q27 29 79.5 60.5t120.5 65t139 68.5l34 -74q-88 -44 -172.5 -85t-147.5 -85q55 -47 103 -91t89 -94.5t75 -114.5q21 -39 49 -57t55.5 -23.5 t44.5 -5.5q21 0 30.5 -11.5t9.5 -27.5t-14 -29.5t-36 -13.5q-24 0 -55.5 6.5t-63.5 25t-56 54.5q-20 -29 -50 -48t-78 -28.5t-122 -9.5h-83zM171 713q-21 0 -35.5 14.5t-14.5 34.5t14.5 35t35.5 15q20 0 34.5 -15t14.5 -35t-14.5 -34.5t-34.5 -14.5z" />
<glyph unicode="&#x6ac;" horiz-adv-x="922" d="M390 -21q-178 0 -269 47t-91 156q0 37 9 78.5t19 78.5l75 -19q-6 -22 -13.5 -55.5t-7.5 -59.5q0 -52 26.5 -83.5t92.5 -46t185 -14.5q98 0 162 7.5t99.5 24t49.5 43t12 64.5l-19 514h81l20 -505q2 -51 16.5 -80t39.5 -40.5t55 -11.5q21 0 30.5 -11.5t9.5 -27.5t-14 -29.5 t-36 -13.5q-60 0 -91.5 23t-43.5 54q-45 -51 -140 -72t-257 -21zM364 204l-19 63q63 17 90 27.5t27 22.5q0 11 -11.5 20.5t-26 20t-26 24.5t-11.5 34q0 26 25 57t99 67l31 -57q-46 -22 -67.5 -37.5t-21.5 -27.5q0 -9 11.5 -19t26 -22t26 -27.5t11.5 -36.5q0 -19 -12 -36.5 t-47 -35.5t-105 -37zM467 631q-21 0 -35.5 14.5t-14.5 34.5t14.5 35t35.5 15q20 0 34.5 -15t14.5 -35t-14.5 -34.5t-34.5 -14.5z" />
<glyph unicode="&#x6ae;" horiz-adv-x="412" d="M0 -5l10 82h94q59 0 93.5 6.5t51 17t22 23t5.5 25.5q0 23 -17.5 57t-71.5 88q-37 38 -74 67t-61 49t-24 29q0 23 5.5 43t15.5 31q40 43 125.5 86.5t213.5 107.5l34 -74q-91 -44 -148.5 -72.5t-95 -50t-69.5 -43.5q117 -95 179.5 -170.5t62.5 -152.5q0 -22 -8 -48t-34 -49 t-78 -37.5t-140 -14.5h-91zM95 -189q-21 0 -35.5 14.5t-14.5 34.5t14.5 35t35.5 15q20 0 34.5 -15t14.5 -35t-14.5 -34.5t-34.5 -14.5zM231 -189q-21 0 -35.5 14.5t-14.5 34.5t14.5 35t35.5 15q20 0 34.5 -15t14.5 -35t-14.5 -34.5t-34.5 -14.5zM163 -299q-21 0 -35.5 14.5 t-14.5 34.5t14.5 35t35.5 15q20 0 34.5 -15t14.5 -35t-14.5 -34.5t-34.5 -14.5z" />
<glyph unicode="&#x6ae;" horiz-adv-x="508" d="M0 -5l10 82h77q83 0 123 9t52.5 24t12.5 31q0 24 -18 53t-46 59.5t-59.5 60.5t-59.5 55t-46 43.5t-18 26.5q0 23 5.5 43t15.5 31q27 29 79.5 60.5t120.5 65t139 68.5l34 -74q-88 -44 -172.5 -85t-147.5 -85q55 -47 103 -91t89 -94.5t75 -114.5q21 -39 49 -57t55.5 -23.5 t44.5 -5.5q21 0 30.5 -11.5t9.5 -27.5t-14 -29.5t-36 -13.5q-24 0 -55.5 6.5t-63.5 25t-56 54.5q-20 -29 -50 -48t-78 -28.5t-122 -9.5h-83zM95 -189q-21 0 -35.5 14.5t-14.5 34.5t14.5 35t35.5 15q20 0 34.5 -15t14.5 -35t-14.5 -34.5t-34.5 -14.5zM231 -189 q-21 0 -35.5 14.5t-14.5 34.5t14.5 35t35.5 15q20 0 34.5 -15t14.5 -35t-14.5 -34.5t-34.5 -14.5zM163 -299q-21 0 -35.5 14.5t-14.5 34.5t14.5 35t35.5 15q20 0 34.5 -15t14.5 -35t-14.5 -34.5t-34.5 -14.5z" />
<glyph unicode="&#x6ae;" horiz-adv-x="922" d="M390 -21q-178 0 -269 47t-91 156q0 37 9 78.5t19 78.5l75 -19q-6 -22 -13.5 -55.5t-7.5 -59.5q0 -52 26.5 -83.5t92.5 -46t185 -14.5q98 0 162 7.5t99.5 24t49.5 43t12 64.5l-19 514h81l20 -505q2 -51 16.5 -80t39.5 -40.5t55 -11.5q21 0 30.5 -11.5t9.5 -27.5t-14 -29.5 t-36 -13.5q-60 0 -91.5 23t-43.5 54q-45 -51 -140 -72t-257 -21zM364 204l-19 63q63 17 90 27.5t27 22.5q0 11 -11.5 20.5t-26 20t-26 24.5t-11.5 34q0 26 25 57t99 67l31 -57q-46 -22 -67.5 -37.5t-21.5 -27.5q0 -9 11.5 -19t26 -22t26 -27.5t11.5 -36.5q0 -19 -12 -36.5 t-47 -35.5t-105 -37zM342 -210q-21 0 -35.5 14.5t-14.5 34.5t14.5 35t35.5 15q20 0 34.5 -15t14.5 -35t-14.5 -34.5t-34.5 -14.5zM478 -210q-21 0 -35.5 14.5t-14.5 34.5t14.5 35t35.5 15q20 0 34.5 -15t14.5 -35t-14.5 -34.5t-34.5 -14.5zM410 -320q-21 0 -35.5 14.5 t-14.5 34.5t14.5 35t35.5 15q20 0 34.5 -15t14.5 -35t-14.5 -34.5t-34.5 -14.5z" />
<glyph unicode="&#x6b0;" horiz-adv-x="412" d="M-1 550l-37 56q58 35 152.5 91.5t223.5 123.5l28 -61q-130 -69 -218 -120.5t-149 -89.5zM0 -5l10 82h94q59 0 93.5 6.5t51 17t22 23t5.5 25.5q0 23 -17.5 57t-71.5 88q-37 38 -74 67t-61 49t-24 29q0 23 5.5 43t15.5 31q40 43 125.5 86.5t213.5 107.5l34 -74 q-17 -8 -31 -15q16 -12 26 -30.5t10 -40.5q0 -37 -26 -63t-63 -26t-63 26t-26 63v1q-48 -24 -80 -42.5t-60 -38.5q117 -95 179.5 -170.5t62.5 -152.5q0 -22 -8 -48t-34 -49t-78 -37.5t-140 -14.5h-91zM338 509q17 0 29 11t12 27q0 17 -12 28.5t-29 11.5t-29 -11.5t-12 -28.5 q0 -16 12 -27t29 -11z" />
<glyph unicode="&#x6b0;" horiz-adv-x="508" d="M-1 550l-37 56q58 35 152.5 91.5t223.5 123.5l28 -61q-130 -69 -218 -120.5t-149 -89.5zM0 -5l10 82h77q83 0 123 9t52.5 24t12.5 31q0 24 -18 53t-46 59.5t-59.5 60.5t-59.5 55t-46 43.5t-18 26.5q0 23 5.5 43t15.5 31q27 29 79.5 60.5t120.5 65t139 68.5l34 -74 q-8 -4 -16.5 -8.5t-17.5 -8.5q16 -12 26 -30.5t10 -40.5q0 -37 -26 -63t-63 -26t-63 26t-26 63v1q-40 -20 -76.5 -41t-67.5 -42q55 -47 103 -91t89 -94.5t75 -114.5q21 -39 49 -57t55.5 -23.5t44.5 -5.5q21 0 30.5 -11.5t9.5 -27.5t-14 -29.5t-36 -13.5q-24 0 -55.5 6.5 t-63.5 25t-56 54.5q-20 -29 -50 -48t-78 -28.5t-122 -9.5h-83zM335 507q17 0 29 11t12 27q0 17 -12 28.5t-29 11.5t-29 -11.5t-12 -28.5q0 -16 12 -27t29 -11z" />
<glyph unicode="&#x6b0;" horiz-adv-x="975" d="M462 550l-37 56q58 35 152.5 91.5t223.5 123.5l28 -61q-130 -69 -218 -120.5t-149 -89.5zM390 -21q-178 0 -269 47t-91 156q0 37 9 78.5t19 78.5l75 -19q-6 -22 -13.5 -55.5t-7.5 -59.5q0 -52 26.5 -83.5t92.5 -46t185 -14.5q125 0 196 13t100.5 32t29.5 35q0 24 -18 53 t-46 59.5t-59.5 60.5t-59.5 55t-46 43.5t-18 26.5q0 23 5.5 43t15.5 31q27 29 79.5 60.5t120.5 65t139 68.5l34 -74l-26 -13q16 -12 26 -30.5t10 -40.5q0 -37 -26 -63t-63 -26t-63 26t-26 63v1q-42 -21 -81 -43t-71 -44q55 -47 103 -91t89 -94.5t75 -114.5q21 -39 49 -57 t55.5 -23.5t44.5 -5.5q21 0 30.5 -11.5t9.5 -27.5t-14 -29.5t-36 -13.5q-24 0 -56 6.5t-63.5 25t-55.5 54.5q-17 -22 -45 -41t-74.5 -32.5t-117.5 -21t-173 -7.5zM810 511q17 0 29 11t12 27q0 17 -12 28.5t-29 11.5t-29 -11.5t-12 -28.5q0 -16 12 -27t29 -11z" />
<glyph unicode="&#x6b2;" horiz-adv-x="412" d="M-1 550l-37 56q58 35 152.5 91.5t223.5 123.5l28 -61q-130 -69 -218 -120.5t-149 -89.5zM0 -5l10 82h94q59 0 93.5 6.5t51 17t22 23t5.5 25.5q0 23 -17.5 57t-71.5 88q-37 38 -74 67t-61 49t-24 29q0 23 5.5 43t15.5 31q40 43 125.5 86.5t213.5 107.5l34 -74 q-91 -44 -148.5 -72.5t-95 -50t-69.5 -43.5q117 -95 179.5 -170.5t62.5 -152.5q0 -22 -8 -48t-34 -49t-78 -37.5t-140 -14.5h-91zM235 -189q-21 0 -35.5 14.5t-14.5 34.5t14.5 35t35.5 15q20 0 34.5 -15t14.5 -35t-14.5 -34.5t-34.5 -14.5zM98 -189q-21 0 -35.5 14.5 t-14.5 34.5t14.5 35t35.5 15q20 0 34.5 -15t14.5 -35t-14.5 -34.5t-34.5 -14.5z" />
<glyph unicode="&#x6b2;" horiz-adv-x="508" d="M-1 550l-37 56q58 35 152.5 91.5t223.5 123.5l28 -61q-130 -69 -218 -120.5t-149 -89.5zM0 -5l10 82h77q83 0 123 9t52.5 24t12.5 31q0 24 -18 53t-46 59.5t-59.5 60.5t-59.5 55t-46 43.5t-18 26.5q0 23 5.5 43t15.5 31q27 29 79.5 60.5t120.5 65t139 68.5l34 -74 q-88 -44 -172.5 -85t-147.5 -85q55 -47 103 -91t89 -94.5t75 -114.5q21 -39 49 -57t55.5 -23.5t44.5 -5.5q21 0 30.5 -11.5t9.5 -27.5t-14 -29.5t-36 -13.5q-24 0 -55.5 6.5t-63.5 25t-56 54.5q-20 -29 -50 -48t-78 -28.5t-122 -9.5h-83zM235 -189q-21 0 -35.5 14.5 t-14.5 34.5t14.5 35t35.5 15q20 0 34.5 -15t14.5 -35t-14.5 -34.5t-34.5 -14.5zM98 -189q-21 0 -35.5 14.5t-14.5 34.5t14.5 35t35.5 15q20 0 34.5 -15t14.5 -35t-14.5 -34.5t-34.5 -14.5z" />
<glyph unicode="&#x6b2;" horiz-adv-x="975" d="M462 550l-37 56q58 35 152.5 91.5t223.5 123.5l28 -61q-130 -69 -218 -120.5t-149 -89.5zM390 -21q-178 0 -269 47t-91 156q0 37 9 78.5t19 78.5l75 -19q-6 -22 -13.5 -55.5t-7.5 -59.5q0 -52 26.5 -83.5t92.5 -46t185 -14.5q125 0 196 13t100.5 32t29.5 35q0 24 -18 53 t-46 59.5t-59.5 60.5t-59.5 55t-46 43.5t-18 26.5q0 23 5.5 43t15.5 31q27 29 79.5 60.5t120.5 65t139 68.5l34 -74q-88 -44 -172.5 -85t-147.5 -85q55 -47 103 -91t89 -94.5t75 -114.5q21 -39 49 -57t55.5 -23.5t44.5 -5.5q21 0 30.5 -11.5t9.5 -27.5t-14 -29.5t-36 -13.5 q-24 0 -56 6.5t-63.5 25t-55.5 54.5q-17 -22 -45 -41t-74.5 -32.5t-117.5 -21t-173 -7.5zM482 -210q-21 0 -35.5 14.5t-14.5 34.5t14.5 35t35.5 15q20 0 34.5 -15t14.5 -35t-14.5 -34.5t-34.5 -14.5zM345 -210q-21 0 -35.5 14.5t-14.5 34.5t14.5 35t35.5 15q20 0 34.5 -15 t14.5 -35t-14.5 -34.5t-34.5 -14.5z" />
<glyph unicode="&#x6b4;" horiz-adv-x="412" d="M82 872q-21 0 -35.5 14.5t-14.5 34.5t14.5 35t35.5 15q20 0 34.5 -15t14.5 -35t-14.5 -34.5t-34.5 -14.5zM187 798q-21 0 -35.5 14.5t-14.5 34.5t14.5 35t35.5 15q20 0 34.5 -15t14.5 -35t-14.5 -34.5t-34.5 -14.5zM72 747q-21 0 -35.5 14.5t-14.5 34.5t14.5 35t35.5 15 q20 0 34.5 -15t14.5 -35t-14.5 -34.5t-34.5 -14.5zM-1 550l-37 56q58 35 152.5 91.5t223.5 123.5l28 -61q-130 -69 -218 -120.5t-149 -89.5zM0 -5l10 82h94q59 0 93.5 6.5t51 17t22 23t5.5 25.5q0 23 -17.5 57t-71.5 88q-37 38 -74 67t-61 49t-24 29q0 23 5.5 43t15.5 31 q40 43 125.5 86.5t213.5 107.5l34 -74q-91 -44 -148.5 -72.5t-95 -50t-69.5 -43.5q117 -95 179.5 -170.5t62.5 -152.5q0 -22 -8 -48t-34 -49t-78 -37.5t-140 -14.5h-91z" />
<glyph unicode="&#x6b4;" horiz-adv-x="508" d="M77 872q-21 0 -35.5 14.5t-14.5 34.5t14.5 35t35.5 15q20 0 34.5 -15t14.5 -35t-14.5 -34.5t-34.5 -14.5zM182 798q-21 0 -35.5 14.5t-14.5 34.5t14.5 35t35.5 15q20 0 34.5 -15t14.5 -35t-14.5 -34.5t-34.5 -14.5zM67 747q-21 0 -35.5 14.5t-14.5 34.5t14.5 35t35.5 15 q20 0 34.5 -15t14.5 -35t-14.5 -34.5t-34.5 -14.5zM-1 550l-37 56q58 35 152.5 91.5t223.5 123.5l28 -61q-130 -69 -218 -120.5t-149 -89.5zM0 -5l10 82h77q83 0 123 9t52.5 24t12.5 31q0 24 -18 53t-46 59.5t-59.5 60.5t-59.5 55t-46 43.5t-18 26.5q0 23 5.5 43t15.5 31 q27 29 79.5 60.5t120.5 65t139 68.5l34 -74q-88 -44 -172.5 -85t-147.5 -85q55 -47 103 -91t89 -94.5t75 -114.5q21 -39 49 -57t55.5 -23.5t44.5 -5.5q21 0 30.5 -11.5t9.5 -27.5t-14 -29.5t-36 -13.5q-24 0 -55.5 6.5t-63.5 25t-56 54.5q-20 -29 -50 -48t-78 -28.5 t-122 -9.5h-83z" />
<glyph unicode="&#x6b4;" horiz-adv-x="975" d="M534 874q-21 0 -35.5 14.5t-14.5 34.5t14.5 35t35.5 15q20 0 34.5 -15t14.5 -35t-14.5 -34.5t-34.5 -14.5zM639 800q-21 0 -35.5 14.5t-14.5 34.5t14.5 35t35.5 15q20 0 34.5 -15t14.5 -35t-14.5 -34.5t-34.5 -14.5zM524 749q-21 0 -35.5 14.5t-14.5 34.5t14.5 35 t35.5 15q20 0 34.5 -15t14.5 -35t-14.5 -34.5t-34.5 -14.5zM462 550l-37 56q58 35 152.5 91.5t223.5 123.5l28 -61q-130 -69 -218 -120.5t-149 -89.5zM390 -21q-178 0 -269 47t-91 156q0 37 9 78.5t19 78.5l75 -19q-6 -22 -13.5 -55.5t-7.5 -59.5q0 -52 26.5 -83.5t92.5 -46 t185 -14.5q125 0 196 13t100.5 32t29.5 35q0 24 -18 53t-46 59.5t-59.5 60.5t-59.5 55t-46 43.5t-18 26.5q0 23 5.5 43t15.5 31q27 29 79.5 60.5t120.5 65t139 68.5l34 -74q-88 -44 -172.5 -85t-147.5 -85q55 -47 103 -91t89 -94.5t75 -114.5q21 -39 49 -57t55.5 -23.5 t44.5 -5.5q21 0 30.5 -11.5t9.5 -27.5t-14 -29.5t-36 -13.5q-24 0 -56 6.5t-63.5 25t-55.5 54.5q-17 -22 -45 -41t-74.5 -32.5t-117.5 -21t-173 -7.5z" />
<glyph unicode="&#x6b5;" horiz-adv-x="260" d="M0 -5l9 82q57 0 80 11t26.5 39t1.5 78l-19 509h81l20 -500q3 -71 -9.5 -120t-56 -74t-133.5 -25zM102 848q-9 20 -25 53.5t-32.5 67t-29.5 54.5l46 25q7 -12 20 -36.5t27.5 -52t24.5 -49.5q11 26 24 55.5t24 53t16 31.5l45 -19q-5 -10 -16 -32.5t-23.5 -50t-24 -53 t-17.5 -41.5z" />
<glyph unicode="&#x6b5;" horiz-adv-x="300" d="M0 -5l9 82q57 0 80 11t26.5 39t1.5 78l-17 509h83l16 -507q2 -51 16.5 -79.5t39.5 -39.5t55 -11q21 0 30.5 -11.5t9.5 -27.5t-14 -29.5t-36 -13.5q-51 0 -81 19.5t-43 47.5q-20 -33 -61.5 -50t-114.5 -17zM116 848q-9 20 -25 53.5t-32.5 67t-29.5 54.5l46 25 q7 -12 20 -36.5t27.5 -52t24.5 -49.5q11 26 24 55.5t24 53t16 31.5l45 -19q-5 -10 -16 -32.5t-23.5 -50t-24 -53t-17.5 -41.5z" />
<glyph unicode="&#x6b5;" horiz-adv-x="730" d="M30 -1q0 36 10 80t32 97l72 -28q-16 -42 -24 -77t-8 -65q0 -51 27 -86t70.5 -52.5t93.5 -17.5q98 0 153 34.5t77 91t19 123.5l-22 615h83l16 -507q2 -51 16.5 -79.5t39.5 -39.5t55 -11q21 0 30.5 -11.5t9.5 -27.5t-14 -29.5t-36 -13.5q-37 0 -60.5 11.5t-37.5 28.5 q-7 -50 -27.5 -97.5t-59.5 -86t-99.5 -61t-147.5 -22.5q-70 0 -131 27.5t-99 79t-38 124.5zM279 591q-9 20 -25 53.5t-32.5 67t-29.5 54.5l46 25q7 -12 20 -36.5t27.5 -52t24.5 -49.5q11 26 24 55.5t24 53t16 31.5l45 -19q-5 -10 -16 -32.5t-23.5 -50t-24 -53t-17.5 -41.5z " />
<glyph unicode="&#x6b6;" horiz-adv-x="260" d="M0 -5l9 82q57 0 80 11t26.5 39t1.5 78l-19 509h81l20 -500q3 -71 -9.5 -120t-56 -74t-133.5 -25zM131 817q-21 0 -35.5 14.5t-14.5 34.5t14.5 35t35.5 15q20 0 34.5 -15t14.5 -35t-14.5 -34.5t-34.5 -14.5z" />
<glyph unicode="&#x6b6;" horiz-adv-x="300" d="M0 -5l9 82q57 0 80 11t26.5 39t1.5 78l-17 509h83l16 -507q2 -51 16.5 -79.5t39.5 -39.5t55 -11q21 0 30.5 -11.5t9.5 -27.5t-14 -29.5t-36 -13.5q-51 0 -81 19.5t-43 47.5q-20 -33 -61.5 -50t-114.5 -17zM145 817q-21 0 -35.5 14.5t-14.5 34.5t14.5 35t35.5 15 q20 0 34.5 -15t14.5 -35t-14.5 -34.5t-34.5 -14.5z" />
<glyph unicode="&#x6b6;" horiz-adv-x="730" d="M30 -1q0 36 10 80t32 97l72 -28q-16 -42 -24 -77t-8 -65q0 -51 27 -86t70.5 -52.5t93.5 -17.5q98 0 153 34.5t77 91t19 123.5l-22 615h83l16 -507q2 -51 16.5 -79.5t39.5 -39.5t55 -11q21 0 30.5 -11.5t9.5 -27.5t-14 -29.5t-36 -13.5q-37 0 -60.5 11.5t-37.5 28.5 q-7 -50 -27.5 -97.5t-59.5 -86t-99.5 -61t-147.5 -22.5q-70 0 -131 27.5t-99 79t-38 124.5zM308 560q-21 0 -35.5 14.5t-14.5 34.5t14.5 35t35.5 15q20 0 34.5 -15t14.5 -35t-14.5 -34.5t-34.5 -14.5z" />
<glyph unicode="&#x6b7;" horiz-adv-x="260" d="M0 -5l9 82q57 0 80 11t26.5 39t1.5 78l-19 509h81l20 -500q3 -71 -9.5 -120t-56 -74t-133.5 -25zM133 927q-21 0 -35.5 14.5t-14.5 34.5t14.5 35t35.5 15q20 0 34.5 -15t14.5 -35t-14.5 -34.5t-34.5 -14.5zM65 817q-21 0 -35.5 14.5t-14.5 34.5t14.5 35t35.5 15 q20 0 34.5 -15t14.5 -35t-14.5 -34.5t-34.5 -14.5zM201 817q-21 0 -35.5 14.5t-14.5 34.5t14.5 35t35.5 15q20 0 34.5 -15t14.5 -35t-14.5 -34.5t-34.5 -14.5z" />
<glyph unicode="&#x6b7;" horiz-adv-x="300" d="M0 -5l9 82q57 0 80 11t26.5 39t1.5 78l-17 509h83l16 -507q2 -51 16.5 -79.5t39.5 -39.5t55 -11q21 0 30.5 -11.5t9.5 -27.5t-14 -29.5t-36 -13.5q-51 0 -81 19.5t-43 47.5q-20 -33 -61.5 -50t-114.5 -17zM147 927q-21 0 -35.5 14.5t-14.5 34.5t14.5 35t35.5 15 q20 0 34.5 -15t14.5 -35t-14.5 -34.5t-34.5 -14.5zM79 817q-21 0 -35.5 14.5t-14.5 34.5t14.5 35t35.5 15q20 0 34.5 -15t14.5 -35t-14.5 -34.5t-34.5 -14.5zM215 817q-21 0 -35.5 14.5t-14.5 34.5t14.5 35t35.5 15q20 0 34.5 -15t14.5 -35t-14.5 -34.5t-34.5 -14.5z" />
<glyph unicode="&#x6b7;" horiz-adv-x="730" d="M30 -1q0 36 10 80t32 97l72 -28q-16 -42 -24 -77t-8 -65q0 -51 27 -86t70.5 -52.5t93.5 -17.5q98 0 153 34.5t77 91t19 123.5l-22 615h83l16 -507q2 -51 16.5 -79.5t39.5 -39.5t55 -11q21 0 30.5 -11.5t9.5 -27.5t-14 -29.5t-36 -13.5q-37 0 -60.5 11.5t-37.5 28.5 q-7 -50 -27.5 -97.5t-59.5 -86t-99.5 -61t-147.5 -22.5q-70 0 -131 27.5t-99 79t-38 124.5zM310 670q-21 0 -35.5 14.5t-14.5 34.5t14.5 35t35.5 15q20 0 34.5 -15t14.5 -35t-14.5 -34.5t-34.5 -14.5zM242 560q-21 0 -35.5 14.5t-14.5 34.5t14.5 35t35.5 15q20 0 34.5 -15 t14.5 -35t-14.5 -34.5t-34.5 -14.5zM378 560q-21 0 -35.5 14.5t-14.5 34.5t14.5 35t35.5 15q20 0 34.5 -15t14.5 -35t-14.5 -34.5t-34.5 -14.5z" />
<glyph unicode="&#x6b8;" horiz-adv-x="260" d="M0 -5l9 82q57 0 80 11t26.5 39t1.5 78l-19 509h81l20 -500q3 -71 -9.5 -120t-56 -74t-133.5 -25zM62 -189q-21 0 -35.5 14.5t-14.5 34.5t14.5 35t35.5 15q20 0 34.5 -15t14.5 -35t-14.5 -34.5t-34.5 -14.5zM198 -189q-21 0 -35.5 14.5t-14.5 34.5t14.5 35t35.5 15 q20 0 34.5 -15t14.5 -35t-14.5 -34.5t-34.5 -14.5zM130 -299q-21 0 -35.5 14.5t-14.5 34.5t14.5 35t35.5 15q20 0 34.5 -15t14.5 -35t-14.5 -34.5t-34.5 -14.5z" />
<glyph unicode="&#x6b8;" horiz-adv-x="300" d="M0 -5l9 82q57 0 80 11t26.5 39t1.5 78l-17 509h83l16 -507q2 -51 16.5 -79.5t39.5 -39.5t55 -11q21 0 30.5 -11.5t9.5 -27.5t-14 -29.5t-36 -13.5q-51 0 -81 19.5t-43 47.5q-20 -33 -61.5 -50t-114.5 -17zM87 -189q-21 0 -35.5 14.5t-14.5 34.5t14.5 35t35.5 15 q20 0 34.5 -15t14.5 -35t-14.5 -34.5t-34.5 -14.5zM223 -189q-21 0 -35.5 14.5t-14.5 34.5t14.5 35t35.5 15q20 0 34.5 -15t14.5 -35t-14.5 -34.5t-34.5 -14.5zM155 -299q-21 0 -35.5 14.5t-14.5 34.5t14.5 35t35.5 15q20 0 34.5 -15t14.5 -35t-14.5 -34.5t-34.5 -14.5z" />
<glyph unicode="&#x6b8;" horiz-adv-x="730" d="M30 -1q0 36 10 80t32 97l72 -28q-16 -42 -24 -77t-8 -65q0 -51 27 -86t70.5 -52.5t93.5 -17.5q98 0 153 34.5t77 91t19 123.5l-22 615h83l16 -507q2 -51 16.5 -79.5t39.5 -39.5t55 -11q21 0 30.5 -11.5t9.5 -27.5t-14 -29.5t-36 -13.5q-37 0 -60.5 11.5t-37.5 28.5 q-7 -50 -27.5 -97.5t-59.5 -86t-99.5 -61t-147.5 -22.5q-70 0 -131 27.5t-99 79t-38 124.5zM230 -421q-21 0 -35.5 14.5t-14.5 34.5t14.5 35t35.5 15q20 0 34.5 -15t14.5 -35t-14.5 -34.5t-34.5 -14.5zM366 -421q-21 0 -35.5 14.5t-14.5 34.5t14.5 35t35.5 15q20 0 34.5 -15 t14.5 -35t-14.5 -34.5t-34.5 -14.5zM298 -531q-21 0 -35.5 14.5t-14.5 34.5t14.5 35t35.5 15q20 0 34.5 -15t14.5 -35t-14.5 -34.5t-34.5 -14.5z" />
<glyph unicode="&#x6b9;" horiz-adv-x="269" d="M0 -5l10 82q49 0 78 6t42 24.5t13 55.5q0 38 -17.5 95.5t-39.5 114.5l81 30q13 -32 24.5 -73t19.5 -81t8 -70q0 -100 -53.5 -142t-165.5 -42zM128 507q-21 0 -35.5 14.5t-14.5 34.5t14.5 35t35.5 15q20 0 34.5 -15t14.5 -35t-14.5 -34.5t-34.5 -14.5zM107 -191 q-21 0 -35.5 14.5t-14.5 34.5t14.5 35t35.5 15q20 0 34.5 -15t14.5 -35t-14.5 -34.5t-34.5 -14.5z" />
<glyph unicode="&#x6b9;" horiz-adv-x="343" d="M0 -5l10 82q42 0 66 7.5t36.5 29t21.5 62.5t22 107l78 -15q-6 -27 -13.5 -62t-7.5 -59q0 -20 9 -36t39 -25t92 -9q21 0 30.5 -11.5t9.5 -27.5t-14 -29.5t-36 -13.5q-79 0 -117 17t-52 51q-30 -42 -69 -55t-105 -13zM187 386q-21 0 -35.5 14.5t-14.5 34.5t14.5 35t35.5 15 q20 0 34.5 -15t14.5 -35t-14.5 -34.5t-34.5 -14.5zM170 -191q-21 0 -35.5 14.5t-14.5 34.5t14.5 35t35.5 15q20 0 34.5 -15t14.5 -35t-14.5 -34.5t-34.5 -14.5z" />
<glyph unicode="&#x6b9;" horiz-adv-x="730" d="M30 -1q0 36 10 80t32 97l72 -28q-16 -42 -24 -77t-8 -65q0 -55 27.5 -89.5t74 -50.5t102.5 -16q91 0 142.5 25.5t73 65.5t21.5 85q0 66 -14.5 121.5t-31.5 114.5l81 22q16 -57 22.5 -82.5t10.5 -41.5q11 -37 29 -54.5t41.5 -23t48.5 -5.5q21 0 30.5 -11.5t9.5 -27.5 t-14 -29.5t-36 -13.5q-31 0 -54.5 8.5t-39.5 21.5q-5 -49 -23 -95t-54.5 -82.5t-96.5 -58t-149 -21.5q-75 0 -139.5 25t-104 76.5t-39.5 129.5zM332 398q-21 0 -35.5 14.5t-14.5 34.5t14.5 35t35.5 15q20 0 34.5 -15t14.5 -35t-14.5 -34.5t-34.5 -14.5zM313 -418 q-21 0 -35.5 14.5t-14.5 34.5t14.5 35t35.5 15q20 0 34.5 -15t14.5 -35t-14.5 -34.5t-34.5 -14.5z" />
<glyph unicode="&#x6ba;" horiz-adv-x="490" arabic-form="final" d="M434 5q0 -85 -57 -147t-157 -62q-79 0 -121 38t-58.5 86.5t-16.5 79.5q0 66 39.5 121.5t86.5 85.5q5 -39 -20 -72q16 -7 24.5 -24t4.5 -34q-27 15 -49 13q-29 -3 -42.5 -32t-13.5 -58q0 -52 37.5 -94t123.5 -42q76 0 107 51.5t27 104.5q-3 43 -26.5 81.5t-38.5 56.5 l52 104q37 -46 67.5 -107.5t30.5 -149.5zM509 100v-100h-146v100h146z" />
<glyph unicode="&#x6ba;" horiz-adv-x="460" arabic-form="isolated" d="M434 5q0 -85 -57 -147t-157 -62q-79 0 -121 38t-58.5 86.5t-16.5 79.5q0 66 39.5 121.5t86.5 85.5q5 -39 -20 -72q16 -7 24.5 -24t4.5 -34q-27 15 -49 13q-29 -3 -42.5 -32t-13.5 -58q0 -52 37.5 -94t123.5 -42q76 0 107 51.5t27 104.5q-3 43 -26.5 81.5t-38.5 56.5 l52 104q37 -46 67.5 -107.5t30.5 -149.5z" />
<glyph unicode="&#x6bc;" horiz-adv-x="299" d="M148 507q-21 0 -35.5 14.5t-14.5 34.5t14.5 35t35.5 15q20 0 34.5 -15t14.5 -35t-14.5 -34.5t-34.5 -14.5zM0 -5l10 82q59 0 92 4.5t47 23t14 58.5q0 38 -17.5 95.5t-39.5 114.5l81 30q13 -32 24.5 -73t19.5 -81t8 -70q0 -86 -40 -128q19 -12 30.5 -32t11.5 -44 q0 -37 -26 -63t-63 -26t-63 26t-26 63q0 12 3 23q-30 -3 -66 -3zM152 -63q17 0 29 11t12 27q0 17 -12 28.5t-29 11.5t-29 -11.5t-12 -28.5q0 -16 12 -27t29 -11z" />
<glyph unicode="&#x6bc;" horiz-adv-x="373" d="M197 386q-21 0 -35.5 14.5t-14.5 34.5t14.5 35t35.5 15q20 0 34.5 -15t14.5 -35t-14.5 -34.5t-34.5 -14.5zM0 -5l10 82q50 0 78 7.5t42.5 29t23.5 62.5t22 107l78 -15q-6 -27 -13.5 -62t-7.5 -59q0 -15 2 -28t15 -22t44 -14.5t89 -5.5q21 0 30.5 -11.5t9.5 -27.5 t-14 -29.5t-36 -13.5q-65 0 -101.5 7.5t-54 22t-25.5 36.5q-7 -11 -16 -20q18 -12 29 -31.5t11 -42.5q0 -37 -26 -63t-63 -26t-63 26t-26 63q0 15 5 29q-19 -1 -43 -1zM127 -71q17 0 29 11t12 27q0 17 -12 28.5t-29 11.5t-29 -11.5t-12 -28.5q0 -16 12 -27t29 -11z" />
<glyph unicode="&#x6bc;" horiz-adv-x="730" d="M332 398q-21 0 -35.5 14.5t-14.5 34.5t14.5 35t35.5 15q20 0 34.5 -15t14.5 -35t-14.5 -34.5t-34.5 -14.5zM30 -1q0 36 10 80t32 97l72 -28q-16 -42 -24 -77t-8 -65q0 -55 27.5 -89.5t74 -50.5t102.5 -16q91 0 142.5 25.5t73 65.5t21.5 85q0 66 -14.5 121.5t-31.5 114.5 l81 22q16 -57 22.5 -82.5t10.5 -41.5q11 -37 29 -54.5t41.5 -23t48.5 -5.5q21 0 30.5 -11.5t9.5 -27.5t-14 -29.5t-36 -13.5q-31 0 -54.5 8.5t-39.5 21.5q-6 -59 -31.5 -114t-81 -92.5t-151.5 -47.5q22 -11 36 -32.5t14 -47.5q0 -37 -26 -63t-63 -26t-63 26t-26 63 q0 25 12.5 45.5t32.5 32.5q-70 3 -129 29.5t-94.5 76.5t-35.5 124zM333 -347q17 0 29 11t12 27q0 17 -12 28.5t-29 11.5t-29 -11.5t-12 -28.5q0 -16 12 -27t29 -11z" />
<glyph unicode="&#x6bd;" horiz-adv-x="730" d="M30 -1q0 36 10 80t32 97l72 -28q-16 -42 -24 -77t-8 -65q0 -55 27.5 -89.5t74 -50.5t102.5 -16q91 0 142.5 25.5t73 65.5t21.5 85q0 66 -14.5 121.5t-31.5 114.5l81 22q16 -57 22.5 -82.5t10.5 -41.5q11 -37 29 -54.5t41.5 -23t48.5 -5.5q21 0 30.5 -11.5t9.5 -27.5 t-14 -29.5t-36 -13.5q-31 0 -54.5 8.5t-39.5 21.5q-5 -49 -23 -95t-54.5 -82.5t-96.5 -58t-149 -21.5q-75 0 -139.5 25t-104 76.5t-39.5 129.5zM334 508q-21 0 -35.5 14.5t-14.5 34.5t14.5 35t35.5 15q20 0 34.5 -15t14.5 -35t-14.5 -34.5t-34.5 -14.5zM266 398 q-21 0 -35.5 14.5t-14.5 34.5t14.5 35t35.5 15q20 0 34.5 -15t14.5 -35t-14.5 -34.5t-34.5 -14.5zM402 398q-21 0 -35.5 14.5t-14.5 34.5t14.5 35t35.5 15q20 0 34.5 -15t14.5 -35t-14.5 -34.5t-34.5 -14.5z" />
<glyph unicode="&#x6bf;" horiz-adv-x="589" d="M0 -5l9 82q104 0 200.5 31t176.5 86q-39 35 -95.5 55.5t-124.5 20.5q-25 0 -44 -2.5t-46 -8.5l-16 76q56 17 106 17q52 0 94 -12.5t76.5 -30.5t65 -36t59.5 -30.5t60 -12.5h21l7 -72q-51 0 -93 -16.5t-84.5 -40.5t-93 -48.5t-117.5 -41t-161 -16.5zM211 -189 q-21 0 -35.5 14.5t-14.5 34.5t14.5 35t35.5 15q20 0 34.5 -15t14.5 -35t-14.5 -34.5t-34.5 -14.5zM347 -189q-21 0 -35.5 14.5t-14.5 34.5t14.5 35t35.5 15q20 0 34.5 -15t14.5 -35t-14.5 -34.5t-34.5 -14.5zM279 -299q-21 0 -35.5 14.5t-14.5 34.5t14.5 35t35.5 15 q20 0 34.5 -15t14.5 -35t-14.5 -34.5t-34.5 -14.5zM167 455q-21 0 -35.5 14.5t-14.5 34.5t14.5 35t35.5 15q20 0 34.5 -15t14.5 -35t-14.5 -34.5t-34.5 -14.5z" />
<glyph unicode="&#x6bf;" horiz-adv-x="637" d="M0 -5l9 82q104 0 200.5 31t176.5 86q-39 35 -95.5 55.5t-124.5 20.5q-25 0 -44 -2.5t-46 -8.5l-16 76q56 17 106 17q52 0 94 -12.5t76.5 -30.5t65 -36t59.5 -30.5t60 -12.5h21l7 -72q-31 0 -60 -7q19 -45 54 -59.5t104 -14.5q21 0 30.5 -11.5t9.5 -27.5t-14 -29.5 t-36 -13.5q-54 0 -96.5 9.5t-72.5 38t-44 85.5q-38 -18 -77.5 -40.5t-87.5 -43.5t-111 -35t-148 -14zM193 -189q-21 0 -35.5 14.5t-14.5 34.5t14.5 35t35.5 15q20 0 34.5 -15t14.5 -35t-14.5 -34.5t-34.5 -14.5zM329 -189q-21 0 -35.5 14.5t-14.5 34.5t14.5 35t35.5 15 q20 0 34.5 -15t14.5 -35t-14.5 -34.5t-34.5 -14.5zM261 -299q-21 0 -35.5 14.5t-14.5 34.5t14.5 35t35.5 15q20 0 34.5 -15t14.5 -35t-14.5 -34.5t-34.5 -14.5zM157 455q-21 0 -35.5 14.5t-14.5 34.5t14.5 35t35.5 15q20 0 34.5 -15t14.5 -35t-14.5 -34.5t-34.5 -14.5z" />
<glyph unicode="&#x6bf;" horiz-adv-x="719" d="M380 -394q-70 0 -136.5 16t-119 49.5t-83.5 84.5t-31 120q0 92 48 171t133 139.5t197 97.5q-49 16 -105.5 32.5t-141.5 16.5q-30 0 -52.5 -5t-42.5 -10l-14 74q26 11 58.5 17.5t65.5 6.5q52 0 91.5 -8.5t74.5 -20.5t71.5 -24.5t81.5 -21t106 -9.5h9l2 -82q-29 0 -60 -4 q7 -58 25 -92.5t44.5 -50.5t59.5 -21t68 -5q21 0 30.5 -11.5t9.5 -27.5t-13.5 -29.5t-35.5 -13.5q-43 0 -86.5 6t-80.5 29t-60.5 71.5t-26.5 132.5q-66 -15 -132.5 -45.5t-121 -74.5t-87.5 -101t-33 -127q0 -52 25 -89.5t67.5 -61.5t96 -35t109.5 -11q99 0 201 40l28 -68 q-58 -28 -119 -41.5t-120 -13.5zM271 -113q-21 0 -35.5 14.5t-14.5 34.5t14.5 35t35.5 15q20 0 34.5 -15t14.5 -35t-14.5 -34.5t-34.5 -14.5zM407 -113q-21 0 -35.5 14.5t-14.5 34.5t14.5 35t35.5 15q20 0 34.5 -15t14.5 -35t-14.5 -34.5t-34.5 -14.5zM339 -223 q-21 0 -35.5 14.5t-14.5 34.5t14.5 35t35.5 15q20 0 34.5 -15t14.5 -35t-14.5 -34.5t-34.5 -14.5zM312 519q-21 0 -35.5 14.5t-14.5 34.5t14.5 35t35.5 15q20 0 34.5 -15t14.5 -35t-14.5 -34.5t-34.5 -14.5z" />
<glyph unicode="&#x6c1;" horiz-adv-x="419" arabic-form="initial" d="M394 304v-281q0 -19 -20 -21l-20 -2h-180v100h120v182zM131 304v-220h-34v220h34zM194 149q0 -21 14.5 -35.5t35.5 -14.5t35.5 14.5t14.5 35.5t-14.5 35.5t-35.5 14.5t-35.5 -14.5t-14.5 -35.5zM373 232q21 -34 21 -82q0 -62 -44 -106t-105 -44t-104.5 44t-43.5 106 q0 45 21 82h255zM-20 100h200l65 -100h-265v100zM394 304l-149 150q26 0 77.5 3.5t71.5 42.5v-196zM194 304q0 -21 14.5 -35.5t35.5 -14.5t35.5 14.5t14.5 35.5t-14.5 35.5t-35.5 14.5t-35.5 -14.5t-14.5 -35.5zM118 227q-21 37 -21 77q0 62 43.5 106t104.5 44t105 -44 t44 -106q0 -41 -22 -77h-254z" />
<glyph unicode="&#x6c2;" horiz-adv-x="269" d="M0 -5l10 82q49 0 78 6t42 24.5t13 55.5q0 38 -17.5 95.5t-39.5 114.5l81 30q13 -32 24.5 -73t19.5 -81t8 -70q0 -100 -53.5 -142t-165.5 -42zM136 -27l26 -26q-43 -24 -44 -61h3q18 0 30 -8.5t12 -24.5q0 -13 -10 -27t-33 -14q-19 0 -32.5 14t-13.5 42q0 25 14.5 57 t47.5 48zM66 36h-26q-19 0 -40.5 4.5t-21.5 34.5q0 5 3.5 23t28.5 25q14 4 34 -1t26 -8q-10 23 -30 31.5t-33 8.5q-39 0 -58 -19.5t-27 -49.5q-6 -24 -6 -57v-33h151zM83 -14l30 50h-240l-30 -50h240z" />
<glyph unicode="&#x6c2;" horiz-adv-x="438" d="M251 -269q-46 32 -76.5 83t-47 108.5t-20.5 106.5q-30 -34 -107 -34l9 82q16 0 36.5 3.5t41 19.5t35.5 56l67 -17q-14 -53 -11 -107.5t21 -103t48 -83.5q0 70 18.5 122t62.5 81t120 29q20 0 30 -11.5t10 -27.5t-13.5 -29.5t-34.5 -13.5q-55 0 -83 -22.5t-37.5 -69 t-9.5 -118.5zM115 -235h-26q-19 0 -40.5 4.5t-21.5 34.5q0 5 3.5 23t28.5 25q14 4 34 -1t26 -8q-10 23 -30 31.5t-33 8.5q-39 0 -58 -19.5t-27 -49.5q-6 -24 -6 -57v-33h151zM132 -285l30 50h-240l-30 -50h240z" />
<glyph unicode="&#x6c2;" horiz-adv-x="479" d="M479 -5q-57 0 -91.5 17t-56 47.5t-37.5 72.5t-34 91q-4 13 -19 18t-32 5q-26 0 -51.5 -11t-42 -33t-16.5 -54q0 -28 8.5 -53.5t19.5 -57.5l-72 -20q-13 35 -24 65.5t-11 73.5q0 55 31 93.5t78 58.5t94 20q17 0 36.5 -3t36 -14.5t24.5 -36.5q16 -45 28.5 -81.5t28.5 -62.5 t42.5 -39.5t69.5 -13.5q21 0 30.5 -11.5t9.5 -27.5t-14 -29.5t-36 -13.5zM154 -88h-26q-19 0 -40.5 4.5t-21.5 34.5q0 5 3.5 23t28.5 25q14 4 34 -1t26 -8q-10 23 -30 31.5t-33 8.5q-39 0 -58 -19.5t-27 -49.5q-6 -24 -6 -57v-33h151zM171 -138l30 50h-240l-30 -50h240z" />
<glyph unicode="&#x6c3;" horiz-adv-x="479" d="M479 -5q-57 0 -91.5 17t-56 47.5t-37.5 72.5t-34 91q-4 13 -19 18t-32 5q-26 0 -51.5 -11t-42 -33t-16.5 -54q0 -28 8.5 -53.5t19.5 -57.5l-72 -20q-13 35 -24 65.5t-11 73.5q0 55 31 93.5t78 58.5t94 20q17 0 36.5 -3t36 -14.5t24.5 -36.5q16 -45 28.5 -81.5t28.5 -62.5 t42.5 -39.5t69.5 -13.5q21 0 30.5 -11.5t9.5 -27.5t-14 -29.5t-36 -13.5zM266 433q-21 0 -35.5 14.5t-14.5 34.5t14.5 35t35.5 15q20 0 34.5 -15t14.5 -35t-14.5 -34.5t-34.5 -14.5zM129 433q-21 0 -35.5 14.5t-14.5 34.5t14.5 35t35.5 15q20 0 34.5 -15t14.5 -35 t-14.5 -34.5t-34.5 -14.5z" />
<glyph unicode="&#x6c4;" horiz-adv-x="472" d="M482 77q21 0 30.5 -11.5t9.5 -27.5t-14 -29.5t-36 -13.5h-81q-13 -83 -57.5 -132.5t-112.5 -72t-151 -22.5h-12t-12 1l-6 79q10 0 19 1q-12 21 -12 45q0 37 26 63t63 26t63 -26t26 -63q0 -8 -1 -15q32 16 53 44t30 72h-74q-45 0 -83.5 13t-62 40.5t-23.5 72.5q0 38 13 75 t35.5 67.5t53 49t66.5 18.5q67 0 114 -61t50 -193h86zM271 77h43q0 83 -26 128t-64 45q-21 0 -39 -16t-29.5 -42t-11.5 -55q0 -35 31.5 -47.5t95.5 -12.5zM136 -144q17 0 29 11t12 27q0 17 -12 28.5t-29 11.5t-29 -11.5t-12 -28.5q0 -16 12 -27t29 -11z" />
<glyph unicode="&#x6ca;" horiz-adv-x="472" d="M58 -230l-18 82q62 8 113.5 23.5t88.5 43.5t55 76h-64q-45 0 -83.5 13t-62 40.5t-23.5 72.5q0 56 22 105t60.5 80t85.5 31q69 0 114.5 -60.5t45.5 -185.5v-14h90q21 0 30.5 -11.5t9.5 -27.5t-14 -29.5t-36 -13.5h-92q-51 -194 -322 -225zM271 77h42q1 10 1 20 q0 68 -25 113t-65 45q-21 0 -39 -16t-29.5 -43t-11.5 -59q0 -35 31.5 -47.5t95.5 -12.5zM303 434q-21 0 -35.5 14.5t-14.5 34.5t14.5 35t35.5 15q20 0 34.5 -15t14.5 -35t-14.5 -34.5t-34.5 -14.5zM166 434q-21 0 -35.5 14.5t-14.5 34.5t14.5 35t35.5 15q20 0 34.5 -15 t14.5 -35t-14.5 -34.5t-34.5 -14.5z" />
<glyph unicode="&#x6cd;" horiz-adv-x="850" d="M440 -269q-79 0 -146.5 23.5t-108.5 75t-41 135.5q0 14 3 39.5t14 60.5l-151 -54l9 82l182 64l68 -31q-23 -47 -33.5 -81t-10.5 -65q0 -62 32.5 -99t86.5 -53t118 -16q77 0 140.5 21t101.5 59t38 88q0 26 -40 45t-112 39l19 83q104 -40 162 -55t89 -15q21 0 30.5 -11.5 t9.5 -27.5t-14 -29.5t-36 -13.5h-37q2 -9 3 -14.5t1 -14.5q0 -64 -45 -117.5t-129.5 -85.5t-202.5 -32z" />
<glyph unicode="&#x6ce;" horiz-adv-x="299" d="M119 538q-9 20 -25 53.5t-32.5 67t-29.5 54.5l46 25q7 -12 20 -36.5t27.5 -52t24.5 -49.5q11 26 24 55.5t24 53t16 31.5l45 -19q-5 -10 -16 -32.5t-23.5 -50t-24 -53t-17.5 -41.5zM0 -5l10 82q59 0 92 4.5t47 23t14 58.5q0 38 -17.5 95.5t-39.5 114.5l81 30 q13 -32 24.5 -73t19.5 -81t8 -70q0 -100 -56 -142t-183 -42zM185 -194q-21 0 -35.5 14.5t-14.5 34.5t14.5 35t35.5 15q20 0 34.5 -15t14.5 -35t-14.5 -34.5t-34.5 -14.5zM48 -194q-21 0 -35.5 14.5t-14.5 34.5t14.5 35t35.5 15q20 0 34.5 -15t14.5 -35t-14.5 -34.5 t-34.5 -14.5z" />
<glyph unicode="&#x6ce;" horiz-adv-x="373" d="M168 417q-9 20 -25 53.5t-32.5 67t-29.5 54.5l46 25q7 -12 20 -36.5t27.5 -52t24.5 -49.5q11 26 24 55.5t24 53t16 31.5l45 -19q-5 -10 -16 -32.5t-23.5 -50t-24 -53t-17.5 -41.5zM0 -5l10 82q50 0 78 7.5t42.5 29t23.5 62.5t22 107l78 -15q-6 -27 -13.5 -62t-7.5 -59 q0 -15 2 -28t15 -22t44 -14.5t89 -5.5q21 0 30.5 -11.5t9.5 -27.5t-14 -29.5t-36 -13.5q-65 0 -101.5 7.5t-54 22t-25.5 36.5q-29 -41 -71.5 -53.5t-120.5 -12.5zM252 -194q-21 0 -35.5 14.5t-14.5 34.5t14.5 35t35.5 15q20 0 34.5 -15t14.5 -35t-14.5 -34.5t-34.5 -14.5z M115 -194q-21 0 -35.5 14.5t-14.5 34.5t14.5 35t35.5 15q20 0 34.5 -15t14.5 -35t-14.5 -34.5t-34.5 -14.5z" />
<glyph unicode="&#x6ce;" horiz-adv-x="736" d="M30 -1q0 36 10 80t32 97l72 -28q-16 -42 -24 -77t-8 -65q0 -55 32.5 -90t86 -51t117.5 -16q77 0 140.5 18t101.5 47.5t38 65.5q0 26 -40 45t-112 39l19 83q104 -40 162 -55t89 -15q21 0 30.5 -11.5t9.5 -27.5t-14 -29.5t-36 -13.5h-37q2 -9 3 -14.5t1 -14.5 q0 -49 -45 -94.5t-129.5 -74.5t-202.5 -29q-79 0 -146.5 25.5t-108.5 76.5t-41 129zM188 284q-9 20 -25 53.5t-32.5 67t-29.5 54.5l46 25q7 -12 20 -36.5t27.5 -52t24.5 -49.5q11 26 24 55.5t24 53t16 31.5l45 -19q-5 -10 -16 -32.5t-23.5 -50t-24 -53t-17.5 -41.5z" />
<glyph unicode="&#x6cf;" horiz-adv-x="472" d="M58 -230l-18 82q62 8 113.5 23.5t88.5 43.5t55 76h-64q-45 0 -83.5 13t-62 40.5t-23.5 72.5q0 56 22 105t60.5 80t85.5 31q69 0 114.5 -60.5t45.5 -185.5v-14h90q21 0 30.5 -11.5t9.5 -27.5t-14 -29.5t-36 -13.5h-92q-51 -194 -322 -225zM271 77h42q1 10 1 20 q0 68 -25 113t-65 45q-21 0 -39 -16t-29.5 -43t-11.5 -59q0 -35 31.5 -47.5t95.5 -12.5zM233 434q-21 0 -35.5 14.5t-14.5 34.5t14.5 35t35.5 15q20 0 34.5 -15t14.5 -35t-14.5 -34.5t-34.5 -14.5z" />
<glyph unicode="&#x6d1;" horiz-adv-x="736" d="M30 -1q0 36 10 80t32 97l72 -28q-16 -42 -24 -77t-8 -65q0 -55 32.5 -90t86 -51t117.5 -16q77 0 140.5 18t101.5 47.5t38 65.5q0 26 -40 45t-112 39l19 83q104 -40 162 -55t89 -15q21 0 30.5 -11.5t9.5 -27.5t-14 -29.5t-36 -13.5h-37q2 -9 3 -14.5t1 -14.5 q0 -49 -45 -94.5t-129.5 -74.5t-202.5 -29q-79 0 -146.5 25.5t-108.5 76.5t-41 129zM258 -421q-21 0 -35.5 14.5t-14.5 34.5t14.5 35t35.5 15q20 0 34.5 -15t14.5 -35t-14.5 -34.5t-34.5 -14.5zM394 -421q-21 0 -35.5 14.5t-14.5 34.5t14.5 35t35.5 15q20 0 34.5 -15 t14.5 -35t-14.5 -34.5t-34.5 -14.5zM326 -531q-21 0 -35.5 14.5t-14.5 34.5t14.5 35t35.5 15q20 0 34.5 -15t14.5 -35t-14.5 -34.5t-34.5 -14.5z" />
<glyph unicode="&#x6ee;" horiz-adv-x="532" d="M215 77q74 0 105 22.5t31 62.5q0 26 -18 67t-47.5 91.5t-65.5 103.5l69 45q58 -89 94.5 -162.5t54.5 -132.5q14 -44 31.5 -65t36.5 -26.5t35 -5.5q21 0 31 -11.5t10 -27.5t-14 -29.5t-36 -13.5q-39 0 -75 17t-58 58q-20 -33 -63.5 -54.5t-120.5 -21.5q-55 0 -102 13.5 t-78 37.5l40 69q20 -13 56 -25t84 -12zM186 779l59 6q9 -20 25 -53.5t33 -67t29 -54.5l-46 -25q-7 12 -20 36.5t-27.5 52t-24.5 49.5q-11 -26 -24 -55.5t-24 -53t-16 -31.5l-45 19q5 10 16 32.5t24 50t24 53t17 41.5z" />
<glyph unicode="&#x6ef;" horiz-adv-x="396" d="M4 -232l-29 76q97 32 151.5 76t77 92.5t22.5 94.5q0 49 -21.5 99.5t-47.5 95.5l73 37q28 -53 47.5 -102t30.5 -86q14 -43 36.5 -58.5t61.5 -15.5q21 0 30.5 -11.5t9.5 -27.5t-14 -29.5t-36 -13.5q-38 0 -63.5 12t-41.5 32q-10 -56 -42 -102t-75 -80.5t-88 -56.5t-82 -32z M128 673l59 6q9 -20 25 -53.5t33 -67t29 -54.5l-46 -25q-7 12 -20 36.5t-27.5 52t-24.5 49.5q-11 -26 -24 -55.5t-24 -53t-16 -31.5l-45 19q5 10 16 32.5t24 50t24 53t17 41.5z" />
<glyph unicode="&#x6fa;" horiz-adv-x="784" d="M0 -5l10 82q32 0 52 4.5t33.5 23t25.5 58.5t28 112l75 -21q-6 -25 -14 -60t-8 -64q0 -25 19 -39t69 -14q30 0 49 5t31.5 24t22.5 61t21 115l76 -14q-3 -18 -7 -44t-7.5 -51.5t-3.5 -42.5q0 -14 6.5 -26.5t26 -19.5t58.5 -7q44 0 69.5 17t25.5 69q0 38 -17.5 95.5 t-39.5 114.5l81 30q13 -32 24.5 -73t19.5 -81t8 -70q0 -93 -46 -138.5t-126 -45.5q-55 0 -86.5 14.5t-45.5 45.5q-24 -37 -57.5 -48.5t-94.5 -11.5q-21 0 -44.5 5t-43.5 19.5t-31 43.5q-26 -44 -64.5 -56t-94.5 -12zM431 545q-21 0 -35.5 14.5t-14.5 34.5t14.5 35t35.5 15 q20 0 34.5 -15t14.5 -35t-14.5 -34.5t-34.5 -14.5zM363 435q-21 0 -35.5 14.5t-14.5 34.5t14.5 35t35.5 15q20 0 34.5 -15t14.5 -35t-14.5 -34.5t-34.5 -14.5zM499 435q-21 0 -35.5 14.5t-14.5 34.5t14.5 35t35.5 15q20 0 34.5 -15t14.5 -35t-14.5 -34.5t-34.5 -14.5z M386 -191q-21 0 -35.5 14.5t-14.5 34.5t14.5 35t35.5 15q20 0 34.5 -15t14.5 -35t-14.5 -34.5t-34.5 -14.5z" />
<glyph unicode="&#x6fa;" horiz-adv-x="850" d="M0 -5l10 82q32 0 52 4.5t33.5 23t25.5 58.5t28 112l75 -21q-6 -25 -14 -60t-8 -64q0 -25 19 -39t69 -14q30 0 49 5t31.5 24t22.5 61t21 115l76 -14q-3 -18 -7 -44t-7.5 -51.5t-3.5 -42.5q0 -14 6.5 -26.5t26 -19.5t58.5 -7q50 0 72.5 21t22.5 64q0 35 -2 75.5t-10 102.5 l73 5q6 -81 13.5 -133t22 -81.5t39.5 -41.5t66 -12q21 0 30.5 -11.5t9.5 -27.5t-14 -29.5t-36 -13.5q-56 0 -92.5 25t-53.5 63q-20 -53 -60.5 -70.5t-89.5 -17.5q-51 0 -80.5 14.5t-43.5 44.5q-24 -36 -57.5 -47.5t-94.5 -11.5q-21 0 -44.5 5t-43.5 19.5t-31 43.5 q-26 -44 -64.5 -56t-94.5 -12zM431 545q-21 0 -35.5 14.5t-14.5 34.5t14.5 35t35.5 15q20 0 34.5 -15t14.5 -35t-14.5 -34.5t-34.5 -14.5zM363 435q-21 0 -35.5 14.5t-14.5 34.5t14.5 35t35.5 15q20 0 34.5 -15t14.5 -35t-14.5 -34.5t-34.5 -14.5zM499 435q-21 0 -35.5 14.5 t-14.5 34.5t14.5 35t35.5 15q20 0 34.5 -15t14.5 -35t-14.5 -34.5t-34.5 -14.5zM386 -191q-21 0 -35.5 14.5t-14.5 34.5t14.5 35t35.5 15q20 0 34.5 -15t14.5 -35t-14.5 -34.5t-34.5 -14.5z" />
<glyph unicode="&#x6fa;" horiz-adv-x="1269" d="M313 -232q-75 0 -139.5 27.5t-104 79t-39.5 124.5q0 36 10 80t32 97l72 -28q-16 -42 -24 -77t-8 -65q0 -51 27.5 -86t74 -52.5t102.5 -17.5q91 0 142.5 26.5t73 67t21.5 82.5q0 66 -14.5 121.5t-31.5 114.5l81 22q16 -57 22.5 -82.5t10.5 -41.5q11 -37 25.5 -54.5t34 -23 t44.5 -5.5q20 0 35.5 5t29 24t24 61t19.5 115l76 -14q-3 -18 -7 -44t-7.5 -51.5t-3.5 -42.5q0 -14 6.5 -26.5t26 -19.5t58.5 -7q50 0 72.5 21t22.5 64q0 35 -2 75.5t-10 102.5l73 5q6 -81 13.5 -133t22 -81.5t39.5 -41.5t66 -12q21 0 30.5 -11.5t9.5 -27.5t-14 -29.5 t-36 -13.5q-56 0 -92.5 25t-53.5 63q-20 -53 -60.5 -70.5t-89.5 -17.5q-51 0 -81 14.5t-44 45.5q-21 -32 -51 -46t-77 -14q-29 0 -50 7t-35 19q-6 -47 -24 -92.5t-54.5 -81.5t-96 -57.5t-147.5 -21.5zM824 545q-21 0 -35.5 14.5t-14.5 34.5t14.5 35t35.5 15q20 0 34.5 -15 t14.5 -35t-14.5 -34.5t-34.5 -14.5zM756 435q-21 0 -35.5 14.5t-14.5 34.5t14.5 35t35.5 15q20 0 34.5 -15t14.5 -35t-14.5 -34.5t-34.5 -14.5zM892 435q-21 0 -35.5 14.5t-14.5 34.5t14.5 35t35.5 15q20 0 34.5 -15t14.5 -35t-14.5 -34.5t-34.5 -14.5zM848 -186 q-21 0 -35.5 14.5t-14.5 34.5t14.5 35t35.5 15q20 0 34.5 -15t14.5 -35t-14.5 -34.5t-34.5 -14.5z" />
<glyph unicode="&#x6fb;" horiz-adv-x="903" d="M484 -18q-107 0 -172.5 9.5t-99.5 29t-47 49.5q-24 -35 -50.5 -50.5t-55 -20t-59.5 -4.5l10 82q47 0 72 18.5t40 61.5t32 118l73 -19q-10 -35 -15.5 -63t-5.5 -42q0 -28 15.5 -46.5t64.5 -27.5q32 50 76 101.5t96 94.5t108.5 69.5t114.5 26.5q55 0 94.5 -22.5t61 -60.5 t21.5 -86q0 -59 -34.5 -108.5t-116.5 -79.5t-223 -30zM675 287q-45 0 -90.5 -22.5t-86.5 -57.5t-74 -72.5t-55 -67.5q53 -3 133 -3q132 0 205.5 32.5t73.5 95.5q0 22 -11 43.5t-34 36.5t-61 15zM652 472q-21 0 -35.5 14.5t-14.5 34.5t14.5 35t35.5 15q20 0 34.5 -15 t14.5 -35t-14.5 -34.5t-34.5 -14.5zM484 -204q-21 0 -35.5 14.5t-14.5 34.5t14.5 35t35.5 15q20 0 34.5 -15t14.5 -35t-14.5 -34.5t-34.5 -14.5z" />
<glyph unicode="&#x6fb;" horiz-adv-x="949" d="M484 -18q-107 0 -172.5 9.5t-99.5 29t-47 49.5q-24 -35 -50.5 -50.5t-55 -20t-59.5 -4.5l10 82q47 0 72 18.5t40 61.5t32 118l73 -19q-10 -35 -15.5 -63t-5.5 -42q0 -28 15.5 -46.5t64.5 -27.5q32 50 76 101.5t96 94.5t108.5 69.5t114.5 26.5q55 0 94.5 -22.5t61 -60.5 t21.5 -86q0 -28 -7.5 -54.5t-23.5 -49.5q33 -12 67.5 -15.5t64.5 -3.5q21 0 30.5 -11.5t9.5 -27.5t-14 -29.5t-36 -13.5t-54.5 4t-67 13t-63.5 26q-45 -26 -113.5 -41t-166.5 -15zM675 287q-45 0 -90.5 -22.5t-86.5 -57.5t-74 -72.5t-55 -67.5q53 -3 133 -3 q132 0 205.5 32.5t73.5 95.5q0 22 -11 43.5t-34 36.5t-61 15zM652 472q-21 0 -35.5 14.5t-14.5 34.5t14.5 35t35.5 15q20 0 34.5 -15t14.5 -35t-14.5 -34.5t-34.5 -14.5zM484 -204q-21 0 -35.5 14.5t-14.5 34.5t14.5 35t35.5 15q20 0 34.5 -15t14.5 -35t-14.5 -34.5 t-34.5 -14.5z" />
<glyph unicode="&#x6fb;" horiz-adv-x="1352" d="M313 -232q-75 0 -139.5 27.5t-104 79t-39.5 124.5q0 36 10 80t32 97l72 -28q-16 -42 -24 -77t-8 -65q0 -51 27.5 -86t74 -52.5t102.5 -17.5q91 0 142.5 29t73 75t21.5 95t-14.5 101.5t-31.5 111.5l81 22q16 -57 21.5 -83t11.5 -41q19 -48 74 -68q33 49 76.5 99t94.5 91.5 t106 66.5t112 25q55 0 94.5 -22.5t61 -60.5t21.5 -86q0 -29 -8 -56.5t-26 -51.5q34 -12 69 -16t66 -4q21 0 30.5 -11.5t9.5 -27.5t-14 -29.5t-36 -13.5q-23 0 -56 4t-68.5 14t-65.5 28q-44 -25 -111.5 -39.5t-163.5 -14.5t-157 15t-93 37q-5 -48 -22 -95.5t-52.5 -87.5 t-96 -64t-153.5 -24zM1078 292q-45 0 -89.5 -22t-85 -56.5t-74 -71.5t-55.5 -67q27 -3 59.5 -4.5t71.5 -1.5q132 0 205.5 32.5t73.5 95.5q0 22 -11 43.5t-34 36.5t-61 15zM1055 477q-21 0 -35.5 14.5t-14.5 34.5t14.5 35t35.5 15q20 0 34.5 -15t14.5 -35t-14.5 -34.5 t-34.5 -14.5zM904 -199q-21 0 -35.5 14.5t-14.5 34.5t14.5 35t35.5 15q20 0 34.5 -15t14.5 -35t-14.5 -34.5t-34.5 -14.5z" />
<glyph unicode="&#x6fc;" horiz-adv-x="503" d="M0 -5l10 82q63 0 97.5 1t50.5 2.5t22 1.5q-18 10 -42 31.5t-42 55t-18 79.5q0 57 26.5 100t73 67t106.5 24q48 0 99 -16l-17 -77q-42 11 -82 11q-55 0 -89.5 -29.5t-34.5 -79.5q0 -33 17 -58.5t42.5 -43t53 -26.5t49.5 -8q16 5 29.5 9.5t34.5 13t59 25.5l28 -73 q-67 -27 -136.5 -48t-151 -32.5t-185.5 -11.5zM265 542q-21 0 -35.5 14.5t-14.5 34.5t14.5 35t35.5 15q20 0 34.5 -15t14.5 -35t-14.5 -34.5t-34.5 -14.5zM279 -191q-21 0 -35.5 14.5t-14.5 34.5t14.5 35t35.5 15q20 0 34.5 -15t14.5 -35t-14.5 -34.5t-34.5 -14.5z" />
<glyph unicode="&#x6fc;" horiz-adv-x="521" d="M0 -5l10 82q53 0 101 9t89 25q-24 28 -54 57t-66 55q-6 5 -12 18t-10 27t-4 21q0 15 19 36t51 40.5t73 32.5t85 13q57 0 92.5 -17t52 -43.5t16.5 -56.5q0 -49 -28 -97.5t-77 -88.5q43 -16 93 -23.5t100 -7.5q21 0 30.5 -11.5t9.5 -27.5t-14 -29.5t-36 -13.5 q-66 0 -135.5 15.5t-123.5 47.5q-55 -29 -121.5 -46t-140.5 -17zM126 284q38 -32 71.5 -62.5t74.5 -74.5q43 28 67.5 60.5t24.5 64.5q0 20 -21.5 39t-75.5 19q-34 0 -75.5 -13t-65.5 -33zM275 514q-21 0 -35.5 14.5t-14.5 34.5t14.5 35t35.5 15q20 0 34.5 -15t14.5 -35 t-14.5 -34.5t-34.5 -14.5zM251 -191q-21 0 -35.5 14.5t-14.5 34.5t14.5 35t35.5 15q20 0 34.5 -15t14.5 -35t-14.5 -34.5t-34.5 -14.5z" />
<glyph unicode="&#x6fc;" horiz-adv-x="531" d="M297 -394q-45 0 -95 8.5t-93.5 32t-71 66t-27.5 109.5q0 73 30 127t76 93.5t93 71.5q-24 28 -53 56t-64 53q-6 5 -12 18t-10 27t-4 21q0 15 19 36t51 40.5t73 32.5t85 13q71 0 110 -35t39 -82q0 -57 -31.5 -99t-76.5 -78q38 -19 85 -29.5t121 -10.5q21 0 30.5 -11.5 t9.5 -27.5t-14 -29.5t-36 -13.5q-69 0 -117.5 9t-83.5 24.5t-65 36.5q-44 -32 -83.5 -65t-64.5 -73t-25 -92q0 -46 22 -75t55 -44.5t68 -21.5t60 -6q52 0 109 11.5t118 36.5l26 -64q-29 -17 -71 -32.5t-89 -24.5t-93 -9zM138 284q36 -30 67.5 -58.5t68.5 -67.5 q39 27 64.5 54t25.5 60q0 20 -19 39t-66 19q-34 0 -75.5 -13t-65.5 -33zM303 -188q-21 0 -35.5 14.5t-14.5 34.5t14.5 35t35.5 15q20 0 34.5 -15t14.5 -35t-14.5 -34.5t-34.5 -14.5zM295 514q-21 0 -35.5 14.5t-14.5 34.5t14.5 35t35.5 15q20 0 34.5 -15t14.5 -35 t-14.5 -34.5t-34.5 -14.5z" />
<glyph unicode="&#x6ff;" horiz-adv-x="574" d="M385 -8q-87 0 -170 46q-48 -21 -103.5 -32t-111.5 -11l10 82q39 0 72 4t60 12q-28 29 -45.5 65.5t-17.5 79.5q0 57 30.5 103t82.5 60q-23 18 -49 36l47 62q96 -70 158.5 -123.5t99 -93t54 -69t22.5 -52t5 -42.5q0 -33 -14.5 -62t-46 -47t-83.5 -18zM154 248q0 -38 19 -69 t48 -54q45 28 62.5 63t17.5 62q0 32 -18.5 58.5t-51.5 26.5q-34 0 -55.5 -27t-21.5 -60zM375 238q0 -46 -21.5 -84.5t-57.5 -67.5q44 -15 85 -15q34 0 50 11.5t16 38.5q0 6 -2.5 20t-17.5 39.5t-52 64.5v-7zM203 779l59 6q9 -20 25 -53.5t33 -67t29 -54.5l-46 -25 q-7 12 -20 36.5t-27.5 52t-24.5 49.5q-11 -26 -24 -55.5t-24 -53t-16 -31.5l-45 19q5 10 16 32.5t24 50t24 53t17 41.5z" />
<glyph unicode="&#x6ff;" horiz-adv-x="507" d="M0 -5l10 82h37t36 1q4 75 24 137t51 107t67 69.5t71 24.5q49 0 82 -41.5t33 -111.5q0 -44 -14 -87.5t-53 -76.5q40 -10 82.5 -16t90.5 -6q21 0 30.5 -11.5t9.5 -27.5t-14 -29.5t-36 -13.5q-34 0 -77 5q23 -34 25.5 -71.5t-14 -70.5t-50 -54t-84.5 -21q-87 0 -149.5 54.5 t-73.5 164.5q-20 -3 -41.5 -5t-42.5 -2zM289 334q-20 0 -48 -32t-51 -88t-27 -130q48 7 85.5 24.5t59 52t21.5 93.5q0 15 -3.5 34t-12.5 32.5t-24 13.5zM309 -135q26 0 51 15t25 55q0 25 -12.5 45.5t-43.5 33.5t-88 13q-16 0 -35.5 -2.5t-39.5 -7.5q5 -49 21 -79t37.5 -46 t43.5 -21.5t41 -5.5zM247 738l59 6q9 -20 25 -53.5t33 -67t29 -54.5l-46 -25q-7 12 -20 36.5t-27.5 52t-24.5 49.5q-11 -26 -24 -55.5t-24 -53t-16 -31.5l-45 19q5 10 16 32.5t24 50t24 53t17 41.5z" />
<glyph unicode="&#x6ff;" horiz-adv-x="614" d="M152 -5q-38 0 -71 8t-66 23l23 67q34 -11 65 -15.5t65 -4.5h22q3 76 22.5 139t49.5 108.5t65.5 70.5t71.5 25q49 0 84 -43t35 -122q0 -37 -14 -78.5t-53 -74.5q40 -9 82.5 -15t90.5 -6q21 0 30.5 -11.5t9.5 -27.5t-14 -29.5t-36 -13.5q-34 0 -77 5q23 -34 25.5 -71.5 t-14 -70.5t-50 -54t-84.5 -21q-86 0 -148 53t-74 161q-21 -2 -40 -2zM392 334q-20 0 -47 -32t-49 -88.5t-26 -129.5q48 7 85.5 24.5t59 49.5t21.5 84q0 21 -4.5 42t-14.5 35.5t-25 14.5zM416 -135q26 0 51 15t25 55q0 25 -12.5 45.5t-43.5 33.5t-88 13q-17 0 -36 -2.5 t-40 -6.5q6 -50 22 -80t37.5 -46t43.5 -21.5t41 -5.5zM365 738l59 6q9 -20 25 -53.5t33 -67t29 -54.5l-46 -25q-7 12 -20 36.5t-27.5 52t-24.5 49.5q-11 -26 -24 -55.5t-24 -53t-16 -31.5l-45 19q5 10 16 32.5t24 50t24 53t17 41.5z" />
<glyph unicode="&#x671;" horiz-adv-x="235" arabic-form="isolated" d="M103 731q-22 0 -52.5 2t-57.5 5.5t-41 5.5l7 51q9 -1 23 -3t31 -3q14 30 34.5 60t48 50.5t64.5 20.5q32 0 60.5 -20t28.5 -67q0 -24 -12 -47.5t-43.5 -39t-90.5 -15.5zM156 866q-25 0 -48 -23t-42 -59q21 -1 37 -1q57 0 74.5 13t17.5 32q0 20 -12 29t-27 9zM89 0l-17 644 h81l17 -644h-81z" />
<glyph unicode="&#x671;" horiz-adv-x="235" arabic-form="final" d="M103 731q-22 0 -52.5 2t-57.5 5.5t-41 5.5l7 51q9 -1 23 -3t31 -3q14 30 34.5 60t48 50.5t64.5 20.5q32 0 60.5 -20t28.5 -67q0 -24 -12 -47.5t-43.5 -39t-90.5 -15.5zM156 866q-25 0 -48 -23t-42 -59q21 -1 37 -1q57 0 74.5 13t17.5 32q0 20 -12 29t-27 9zM89 0l-17 644 h81l17 -644h-81z" />
<glyph unicode="&#x67b;" horiz-adv-x="993" arabic-form="isolated" d="M825 300v-277q0 -19 -20 -21l-20 -2h-760l60 100h640v178zM486 -212q-21 0 -35.5 14.5t-14.5 34.5t14.5 35t35.5 15q20 0 34.5 -15t14.5 -35t-14.5 -34.5t-34.5 -14.5zM487 -341q-21 0 -35.5 14.5t-14.5 34.5t14.5 35t35.5 15q20 0 34.5 -15t14.5 -35t-14.5 -34.5 t-34.5 -14.5z" />
<glyph unicode="&#x67b;" horiz-adv-x="1093" arabic-form="final" d="M825 300v-200h120v-100h-920l60 100h640v178zM463 -212q-21 0 -35.5 14.5t-14.5 34.5t14.5 35t35.5 15q20 0 34.5 -15t14.5 -35t-14.5 -34.5t-34.5 -14.5zM464 -341q-21 0 -35.5 14.5t-14.5 34.5t14.5 35t35.5 15q20 0 34.5 -15t14.5 -35t-14.5 -34.5t-34.5 -14.5z" />
<glyph unicode="&#x67b;" horiz-adv-x="269" arabic-form="initial" d="M0 -5l10 82q49 0 78 6t42 24.5t13 55.5q0 38 -17.5 95.5t-39.5 114.5l81 30q13 -32 24.5 -73t19.5 -81t8 -70q0 -100 -53.5 -142t-165.5 -42zM107 -192q-21 0 -35.5 14.5t-14.5 34.5t14.5 35t35.5 15q20 0 34.5 -15t14.5 -35t-14.5 -34.5t-34.5 -14.5zM108 -321 q-21 0 -35.5 14.5t-14.5 34.5t14.5 35t35.5 15q20 0 34.5 -15t14.5 -35t-14.5 -34.5t-34.5 -14.5z" />
<glyph unicode="&#x67b;" horiz-adv-x="343" arabic-form="medial" d="M0 -5l10 82q42 0 66 7.5t36.5 29t21.5 62.5t22 107l78 -15q-6 -27 -13.5 -62t-7.5 -59q0 -20 9 -36t39 -25t92 -9q21 0 30.5 -11.5t9.5 -27.5t-14 -29.5t-36 -13.5q-79 0 -117 17t-52 51q-30 -42 -69 -55t-105 -13zM170 -192q-21 0 -35.5 14.5t-14.5 34.5t14.5 35 t35.5 15q20 0 34.5 -15t14.5 -35t-14.5 -34.5t-34.5 -14.5zM171 -321q-21 0 -35.5 14.5t-14.5 34.5t14.5 35t35.5 15q20 0 34.5 -15t14.5 -35t-14.5 -34.5t-34.5 -14.5z" />
<glyph unicode="&#x67e;" horiz-adv-x="993" arabic-form="isolated" d="M825 300v-277q0 -19 -20 -21l-20 -2h-760l60 100h640v178zM352 -300q0 24 17 41t41 17t41 -17t17 -41t-17 -41t-41 -17t-41 17t-17 41zM269 -150q0 24 17 41t41 17t41 -17t17 -41t-17 -41t-41 -17t-41 17t-17 41zM442 -150q0 24 17 41t41 17t41 -17t17 -41t-17 -41 t-41 -17t-41 17t-17 41z" />
<glyph unicode="&#x67e;" horiz-adv-x="1093" arabic-form="final" d="M825 300v-200h120v-100h-920l60 100h640v178zM395 -214q-21 0 -35.5 14.5t-14.5 34.5t14.5 35t35.5 15q20 0 34.5 -15t14.5 -35t-14.5 -34.5t-34.5 -14.5zM531 -214q-21 0 -35.5 14.5t-14.5 34.5t14.5 35t35.5 15q20 0 34.5 -15t14.5 -35t-14.5 -34.5t-34.5 -14.5z M463 -324q-21 0 -35.5 14.5t-14.5 34.5t14.5 35t35.5 15q20 0 34.5 -15t14.5 -35t-14.5 -34.5t-34.5 -14.5z" />
<glyph unicode="&#x67e;" horiz-adv-x="299" arabic-form="initial" d="M0 -5l10 82q59 0 92 4.5t47 23t14 58.5q0 38 -17.5 95.5t-39.5 114.5l81 30q13 -32 24.5 -73t19.5 -81t8 -70q0 -100 -56 -142t-183 -42zM45 -194q-21 0 -35.5 14.5t-14.5 34.5t14.5 35t35.5 15q20 0 34.5 -15t14.5 -35t-14.5 -34.5t-34.5 -14.5zM181 -194 q-21 0 -35.5 14.5t-14.5 34.5t14.5 35t35.5 15q20 0 34.5 -15t14.5 -35t-14.5 -34.5t-34.5 -14.5zM113 -304q-21 0 -35.5 14.5t-14.5 34.5t14.5 35t35.5 15q20 0 34.5 -15t14.5 -35t-14.5 -34.5t-34.5 -14.5z" />
<glyph unicode="&#x67e;" horiz-adv-x="373" arabic-form="medial" d="M0 -5l10 82q50 0 78 7.5t42.5 29t23.5 62.5t22 107l78 -15q-6 -27 -13.5 -62t-7.5 -59q0 -15 2 -28t15 -22t44 -14.5t89 -5.5q21 0 30.5 -11.5t9.5 -27.5t-14 -29.5t-36 -13.5q-65 0 -101.5 7.5t-54 22t-25.5 36.5q-29 -41 -71.5 -53.5t-120.5 -12.5zM112 -194 q-21 0 -35.5 14.5t-14.5 34.5t14.5 35t35.5 15q20 0 34.5 -15t14.5 -35t-14.5 -34.5t-34.5 -14.5zM248 -194q-21 0 -35.5 14.5t-14.5 34.5t14.5 35t35.5 15q20 0 34.5 -15t14.5 -35t-14.5 -34.5t-34.5 -14.5zM180 -304q-21 0 -35.5 14.5t-14.5 34.5t14.5 35t35.5 15 q20 0 34.5 -15t14.5 -35t-14.5 -34.5t-34.5 -14.5z" />
<glyph unicode="&#x680;" horiz-adv-x="993" arabic-form="isolated" d="M825 300v-277q0 -19 -20 -21l-20 -2h-760l60 100h640v178zM558 -212q-21 0 -35.5 14.5t-14.5 34.5t14.5 35t35.5 15q20 0 34.5 -15t14.5 -35t-14.5 -34.5t-34.5 -14.5zM422 -212q-21 0 -35.5 14.5t-14.5 34.5t14.5 35t35.5 15q20 0 34.5 -15t14.5 -35t-14.5 -34.5 t-34.5 -14.5zM558 -337q-21 0 -35.5 14.5t-14.5 34.5t14.5 35t35.5 15q20 0 34.5 -15t14.5 -35t-14.5 -34.5t-34.5 -14.5zM422 -337q-21 0 -35.5 14.5t-14.5 34.5t14.5 35t35.5 15q20 0 34.5 -15t14.5 -35t-14.5 -34.5t-34.5 -14.5z" />
<glyph unicode="&#x680;" horiz-adv-x="1093" arabic-form="final" d="M825 300v-200h120v-100h-920l60 100h640v178zM535 -212q-21 0 -35.5 14.5t-14.5 34.5t14.5 35t35.5 15q20 0 34.5 -15t14.5 -35t-14.5 -34.5t-34.5 -14.5zM399 -212q-21 0 -35.5 14.5t-14.5 34.5t14.5 35t35.5 15q20 0 34.5 -15t14.5 -35t-14.5 -34.5t-34.5 -14.5z M535 -337q-21 0 -35.5 14.5t-14.5 34.5t14.5 35t35.5 15q20 0 34.5 -15t14.5 -35t-14.5 -34.5t-34.5 -14.5zM399 -337q-21 0 -35.5 14.5t-14.5 34.5t14.5 35t35.5 15q20 0 34.5 -15t14.5 -35t-14.5 -34.5t-34.5 -14.5z" />
<glyph unicode="&#x680;" horiz-adv-x="299" arabic-form="initial" d="M0 -5l10 82q59 0 92 4.5t47 23t14 58.5q0 38 -17.5 95.5t-39.5 114.5l81 30q13 -32 24.5 -73t19.5 -81t8 -70q0 -100 -56 -142t-183 -42zM185 -192q-21 0 -35.5 14.5t-14.5 34.5t14.5 35t35.5 15q20 0 34.5 -15t14.5 -35t-14.5 -34.5t-34.5 -14.5zM49 -192 q-21 0 -35.5 14.5t-14.5 34.5t14.5 35t35.5 15q20 0 34.5 -15t14.5 -35t-14.5 -34.5t-34.5 -14.5zM185 -317q-21 0 -35.5 14.5t-14.5 34.5t14.5 35t35.5 15q20 0 34.5 -15t14.5 -35t-14.5 -34.5t-34.5 -14.5zM49 -317q-21 0 -35.5 14.5t-14.5 34.5t14.5 35t35.5 15 q20 0 34.5 -15t14.5 -35t-14.5 -34.5t-34.5 -14.5z" />
<glyph unicode="&#x680;" horiz-adv-x="373" arabic-form="medial" d="M0 -5l10 82q50 0 78 7.5t42.5 29t23.5 62.5t22 107l78 -15q-6 -27 -13.5 -62t-7.5 -59q0 -15 2 -28t15 -22t44 -14.5t89 -5.5q21 0 30.5 -11.5t9.5 -27.5t-14 -29.5t-36 -13.5q-65 0 -101.5 7.5t-54 22t-25.5 36.5q-29 -41 -71.5 -53.5t-120.5 -12.5zM252 -192 q-21 0 -35.5 14.5t-14.5 34.5t14.5 35t35.5 15q20 0 34.5 -15t14.5 -35t-14.5 -34.5t-34.5 -14.5zM116 -192q-21 0 -35.5 14.5t-14.5 34.5t14.5 35t35.5 15q20 0 34.5 -15t14.5 -35t-14.5 -34.5t-34.5 -14.5zM252 -317q-21 0 -35.5 14.5t-14.5 34.5t14.5 35t35.5 15 q20 0 34.5 -15t14.5 -35t-14.5 -34.5t-34.5 -14.5zM116 -317q-21 0 -35.5 14.5t-14.5 34.5t14.5 35t35.5 15q20 0 34.5 -15t14.5 -35t-14.5 -34.5t-34.5 -14.5z" />
<glyph unicode="&#x67a;" horiz-adv-x="993" arabic-form="isolated" d="M825 300v-277q0 -19 -20 -21l-20 -2h-760l60 100h640v178zM486 530q-21 0 -35.5 14.5t-14.5 34.5t14.5 35t35.5 15q20 0 34.5 -15t14.5 -35t-14.5 -34.5t-34.5 -14.5zM487 401q-21 0 -35.5 14.5t-14.5 34.5t14.5 35t35.5 15q20 0 34.5 -15t14.5 -35t-14.5 -34.5 t-34.5 -14.5z" />
<glyph unicode="&#x67a;" horiz-adv-x="1093" arabic-form="final" d="M825 300v-200h120v-100h-920l60 100h640v178zM487 530q-21 0 -35.5 14.5t-14.5 34.5t14.5 35t35.5 15q20 0 34.5 -15t14.5 -35t-14.5 -34.5t-34.5 -14.5zM488 401q-21 0 -35.5 14.5t-14.5 34.5t14.5 35t35.5 15q20 0 34.5 -15t14.5 -35t-14.5 -34.5t-34.5 -14.5z" />
<glyph unicode="&#x67a;" horiz-adv-x="269" arabic-form="initial" d="M0 -5l10 82q49 0 78 6t42 24.5t13 55.5q0 38 -17.5 95.5t-39.5 114.5l81 30q13 -32 24.5 -73t19.5 -81t8 -70q0 -100 -53.5 -142t-165.5 -42zM127 636q-21 0 -35.5 14.5t-14.5 34.5t14.5 35t35.5 15q20 0 34.5 -15t14.5 -35t-14.5 -34.5t-34.5 -14.5zM128 507 q-21 0 -35.5 14.5t-14.5 34.5t14.5 35t35.5 15q20 0 34.5 -15t14.5 -35t-14.5 -34.5t-34.5 -14.5z" />
<glyph unicode="&#x67a;" horiz-adv-x="343" arabic-form="medial" d="M0 -5l10 82q42 0 66 7.5t36.5 29t21.5 62.5t22 107l78 -15q-6 -27 -13.5 -62t-7.5 -59q0 -20 9 -36t39 -25t92 -9q21 0 30.5 -11.5t9.5 -27.5t-14 -29.5t-36 -13.5q-79 0 -117 17t-52 51q-30 -42 -69 -55t-105 -13zM186 515q-21 0 -35.5 14.5t-14.5 34.5t14.5 35t35.5 15 q20 0 34.5 -15t14.5 -35t-14.5 -34.5t-34.5 -14.5zM187 386q-21 0 -35.5 14.5t-14.5 34.5t14.5 35t35.5 15q20 0 34.5 -15t14.5 -35t-14.5 -34.5t-34.5 -14.5z" />
<glyph unicode="&#x67f;" horiz-adv-x="993" arabic-form="isolated" d="M825 300v-277q0 -19 -20 -21l-20 -2h-760l60 100h640v178zM421 526q-21 0 -35.5 14.5t-14.5 34.5t14.5 35t35.5 15q20 0 34.5 -15t14.5 -35t-14.5 -34.5t-34.5 -14.5zM557 526q-21 0 -35.5 14.5t-14.5 34.5t14.5 35t35.5 15q20 0 34.5 -15t14.5 -35t-14.5 -34.5 t-34.5 -14.5zM421 401q-21 0 -35.5 14.5t-14.5 34.5t14.5 35t35.5 15q20 0 34.5 -15t14.5 -35t-14.5 -34.5t-34.5 -14.5zM557 401q-21 0 -35.5 14.5t-14.5 34.5t14.5 35t35.5 15q20 0 34.5 -15t14.5 -35t-14.5 -34.5t-34.5 -14.5z" />
<glyph unicode="&#x67f;" horiz-adv-x="1093" arabic-form="final" d="M825 300v-200h120v-100h-920l60 100h640v178zM422 526q-21 0 -35.5 14.5t-14.5 34.5t14.5 35t35.5 15q20 0 34.5 -15t14.5 -35t-14.5 -34.5t-34.5 -14.5zM558 526q-21 0 -35.5 14.5t-14.5 34.5t14.5 35t35.5 15q20 0 34.5 -15t14.5 -35t-14.5 -34.5t-34.5 -14.5zM422 401 q-21 0 -35.5 14.5t-14.5 34.5t14.5 35t35.5 15q20 0 34.5 -15t14.5 -35t-14.5 -34.5t-34.5 -14.5zM558 401q-21 0 -35.5 14.5t-14.5 34.5t14.5 35t35.5 15q20 0 34.5 -15t14.5 -35t-14.5 -34.5t-34.5 -14.5z" />
<glyph unicode="&#x67f;" horiz-adv-x="299" arabic-form="initial" d="M82 632q-21 0 -35.5 14.5t-14.5 34.5t14.5 35t35.5 15q20 0 34.5 -15t14.5 -35t-14.5 -34.5t-34.5 -14.5zM218 632q-21 0 -35.5 14.5t-14.5 34.5t14.5 35t35.5 15q20 0 34.5 -15t14.5 -35t-14.5 -34.5t-34.5 -14.5zM82 507q-21 0 -35.5 14.5t-14.5 34.5t14.5 35t35.5 15 q20 0 34.5 -15t14.5 -35t-14.5 -34.5t-34.5 -14.5zM218 507q-21 0 -35.5 14.5t-14.5 34.5t14.5 35t35.5 15q20 0 34.5 -15t14.5 -35t-14.5 -34.5t-34.5 -14.5zM0 -5l10 82q59 0 92 4.5t47 23t14 58.5q0 38 -17.5 95.5t-39.5 114.5l81 30q13 -32 24.5 -73t19.5 -81t8 -70 q0 -100 -56 -142t-183 -42z" />
<glyph unicode="&#x67f;" horiz-adv-x="373" arabic-form="medial" d="M131 511q-21 0 -35.5 14.5t-14.5 34.5t14.5 35t35.5 15q20 0 34.5 -15t14.5 -35t-14.5 -34.5t-34.5 -14.5zM267 511q-21 0 -35.5 14.5t-14.5 34.5t14.5 35t35.5 15q20 0 34.5 -15t14.5 -35t-14.5 -34.5t-34.5 -14.5zM131 386q-21 0 -35.5 14.5t-14.5 34.5t14.5 35 t35.5 15q20 0 34.5 -15t14.5 -35t-14.5 -34.5t-34.5 -14.5zM267 386q-21 0 -35.5 14.5t-14.5 34.5t14.5 35t35.5 15q20 0 34.5 -15t14.5 -35t-14.5 -34.5t-34.5 -14.5zM0 -5l10 82q50 0 78 7.5t42.5 29t23.5 62.5t22 107l78 -15q-6 -27 -13.5 -62t-7.5 -59q0 -15 2 -28 t15 -22t44 -14.5t89 -5.5q21 0 30.5 -11.5t9.5 -27.5t-14 -29.5t-36 -13.5q-65 0 -101.5 7.5t-54 22t-25.5 36.5q-29 -41 -71.5 -53.5t-120.5 -12.5z" />
<glyph unicode="&#x679;" horiz-adv-x="993" arabic-form="isolated" d="M825 300v-277q0 -19 -20 -21l-20 -2h-760l60 100h640v178zM314 352v271l50 9v-280h-50zM332 472h142q42 0 57.5 -23t17 -53.5t1.5 -54.5q0 -7 -8 -8l-8 -1h-284l24 50h226q-1 16 -4.5 28t-26.5 12h-137v50z" />
<glyph unicode="&#x679;" horiz-adv-x="1093" arabic-form="final" d="M825 300v-200h120v-100h-920l60 100h640v178zM491 429q-18 0 -42.5 1.5t-46.5 3.5l-33 3l2 58q6 -1 13 -1.5t15 -1.5q10 18 22 34l-5 162h55l5 -106q18 13 37.5 20.5t39.5 7.5q38 0 60 -23t22 -57q0 -20 -11.5 -43.5t-42.5 -40.5t-90 -17zM545 551q-18 0 -35 -11 t-31.5 -26t-22.5 -26q16 -1 28 -1q49 0 71 10.5t22 27.5q0 14 -9 20t-23 6z" />
<glyph unicode="&#x679;" horiz-adv-x="299" arabic-form="initial" d="M151 535q-18 0 -42.5 1.5t-46.5 3.5l-33 3l2 58q6 -1 13 -1.5t15 -1.5q10 18 22 34l-5 162h55l5 -106q18 13 37.5 20.5t39.5 7.5q38 0 60 -23t22 -57q0 -20 -11.5 -43.5t-42.5 -40.5t-90 -17zM205 657q-18 0 -35 -11t-31.5 -26t-22.5 -26q16 -1 28 -1q49 0 71 10.5 t22 27.5q0 14 -9 20t-23 6zM0 -5l10 82q59 0 92 4.5t47 23t14 58.5q0 38 -17.5 95.5t-39.5 114.5l81 30q13 -32 24.5 -73t19.5 -81t8 -70q0 -100 -56 -142t-183 -42z" />
<glyph unicode="&#x679;" horiz-adv-x="343" arabic-form="medial" d="M0 -5l10 82q42 0 66 7.5t36.5 29t21.5 62.5t22 107l78 -15q-6 -27 -13.5 -62t-7.5 -59q0 -20 9 -36t39 -25t92 -9q21 0 30.5 -11.5t9.5 -27.5t-14 -29.5t-36 -13.5q-79 0 -117 17t-52 51q-30 -42 -69 -55t-105 -13zM190 414q-18 0 -42.5 1.5t-46.5 3.5l-33 3l2 58 q6 -1 13 -1.5t15 -1.5q10 18 22 34l-5 162h55l5 -106q18 13 37.5 20.5t39.5 7.5q38 0 60 -23t22 -57q0 -20 -11.5 -43.5t-42.5 -40.5t-90 -17zM244 536q-18 0 -35 -11t-31.5 -26t-22.5 -26q16 -1 28 -1q49 0 71 10.5t22 27.5q0 14 -9 20t-23 6z" />
<glyph unicode="&#x6a4;" horiz-adv-x="983" arabic-form="isolated" d="M625 300q0 -21 15 -36t36 -15t36.5 15t15.5 36t-15.5 36t-36.5 15t-36 -15t-15 -36zM528 300q0 62 43 106t105 44t105.5 -44t43.5 -106t-43.5 -106t-105.5 -44t-105 44t-43 106zM825 300v-277q0 -19 -20 -21l-20 -2h-760l60 100h640v128zM617 750q0 24 17 41t41 17 t41 -17t17 -41t-17 -41t-41 -17t-41 17t-17 41zM534 600q0 24 17 41t41 17t41 -17t17 -41t-17 -41t-41 -17t-41 17t-17 41zM707 600q0 24 17 41t41 17t41 -17t17 -41t-17 -41t-41 -17t-41 17t-17 41z" />
<glyph unicode="&#x6a4;" horiz-adv-x="1098" arabic-form="final" d="M625 300q0 -21 15 -36t36 -15t36.5 15t15.5 36t-15.5 36t-36.5 15t-36 -15t-15 -36zM528 300q0 62 43 106t105 44t105.5 -44t43.5 -106t-43.5 -106t-105.5 -44t-105 44t-43 106zM825 300v-200h120v-100h-920l60 100h640v128zM852 628q-21 0 -35.5 14.5t-14.5 34.5 t14.5 35t35.5 15q20 0 34.5 -15t14.5 -35t-14.5 -34.5t-34.5 -14.5zM784 518q-21 0 -35.5 14.5t-14.5 34.5t14.5 35t35.5 15q20 0 34.5 -15t14.5 -35t-14.5 -34.5t-34.5 -14.5zM920 518q-21 0 -35.5 14.5t-14.5 34.5t14.5 35t35.5 15q20 0 34.5 -15t14.5 -35t-14.5 -34.5 t-34.5 -14.5z" />
<glyph unicode="&#x6a4;" horiz-adv-x="447" arabic-form="initial" d="M200 300q0 -21 15 -36t36 -15t36.5 15t15.5 36t-15.5 36t-36.5 15t-36 -15t-15 -36zM103 300q0 62 43.5 106t104.5 44t105 -44t44 -106t-44 -106t-105 -44t-104.5 44t-43.5 106zM400 300v-277q0 -19 -20 -21l-20 -2h-380v100h320v128zM225 714q-21 0 -35.5 14.5 t-14.5 34.5t14.5 35t35.5 15q20 0 34.5 -15t14.5 -35t-14.5 -34.5t-34.5 -14.5zM157 604q-21 0 -35.5 14.5t-14.5 34.5t14.5 35t35.5 15q20 0 34.5 -15t14.5 -35t-14.5 -34.5t-34.5 -14.5zM293 604q-21 0 -35.5 14.5t-14.5 34.5t14.5 35t35.5 15q20 0 34.5 -15t14.5 -35 t-14.5 -34.5t-34.5 -14.5z" />
<glyph unicode="&#x6a4;" horiz-adv-x="495" arabic-form="medial" d="M200 300q0 -21 15 -36t36 -15t36.5 15t15.5 36t-15.5 36t-36.5 15t-36 -15t-15 -36zM103 300q0 62 43.5 106t104.5 44t105 -44t44 -106t-44 -106t-105 -44t-104.5 44t-43.5 106zM400 300v-200h120v-100h-540v100h320v128zM249 628q-21 0 -35.5 14.5t-14.5 34.5t14.5 35 t35.5 15q20 0 34.5 -15t14.5 -35t-14.5 -34.5t-34.5 -14.5zM181 518q-21 0 -35.5 14.5t-14.5 34.5t14.5 35t35.5 15q20 0 34.5 -15t14.5 -35t-14.5 -34.5t-34.5 -14.5zM317 518q-21 0 -35.5 14.5t-14.5 34.5t14.5 35t35.5 15q20 0 34.5 -15t14.5 -35t-14.5 -34.5 t-34.5 -14.5z" />
<glyph unicode="&#x6a6;" horiz-adv-x="983" arabic-form="isolated" d="M625 300q0 -21 15 -36t36 -15t36.5 15t15.5 36t-15.5 36t-36.5 15t-36 -15t-15 -36zM528 300q0 62 43 106t105 44t105.5 -44t43.5 -106t-43.5 -106t-105.5 -44t-105 44t-43 106zM825 300v-277q0 -19 -20 -21l-20 -2h-760l60 100h640v128zM693 729q-21 0 -35.5 14.5 t-14.5 34.5t14.5 35t35.5 15q20 0 34.5 -15t14.5 -35t-14.5 -34.5t-34.5 -14.5zM829 729q-21 0 -35.5 14.5t-14.5 34.5t14.5 35t35.5 15q20 0 34.5 -15t14.5 -35t-14.5 -34.5t-34.5 -14.5zM693 604q-21 0 -35.5 14.5t-14.5 34.5t14.5 35t35.5 15q20 0 34.5 -15t14.5 -35 t-14.5 -34.5t-34.5 -14.5zM829 604q-21 0 -35.5 14.5t-14.5 34.5t14.5 35t35.5 15q20 0 34.5 -15t14.5 -35t-14.5 -34.5t-34.5 -14.5z" />
<glyph unicode="&#x6a6;" horiz-adv-x="1098" arabic-form="final" d="M625 300q0 -21 15 -36t36 -15t36.5 15t15.5 36t-15.5 36t-36.5 15t-36 -15t-15 -36zM528 300q0 62 43 106t105 44t105.5 -44t43.5 -106t-43.5 -106t-105.5 -44t-105 44t-43 106zM825 300v-200h120v-100h-920l60 100h640v128zM784 643q-21 0 -35.5 14.5t-14.5 34.5 t14.5 35t35.5 15q20 0 34.5 -15t14.5 -35t-14.5 -34.5t-34.5 -14.5zM920 643q-21 0 -35.5 14.5t-14.5 34.5t14.5 35t35.5 15q20 0 34.5 -15t14.5 -35t-14.5 -34.5t-34.5 -14.5zM784 518q-21 0 -35.5 14.5t-14.5 34.5t14.5 35t35.5 15q20 0 34.5 -15t14.5 -35t-14.5 -34.5 t-34.5 -14.5zM920 518q-21 0 -35.5 14.5t-14.5 34.5t14.5 35t35.5 15q20 0 34.5 -15t14.5 -35t-14.5 -34.5t-34.5 -14.5z" />
<glyph unicode="&#x6a6;" horiz-adv-x="447" arabic-form="initial" d="M200 300q0 -21 15 -36t36 -15t36.5 15t15.5 36t-15.5 36t-36.5 15t-36 -15t-15 -36zM103 300q0 62 43.5 106t104.5 44t105 -44t44 -106t-44 -106t-105 -44t-104.5 44t-43.5 106zM400 300v-277q0 -19 -20 -21l-20 -2h-380v100h320v128zM157 729q-21 0 -35.5 14.5 t-14.5 34.5t14.5 35t35.5 15q20 0 34.5 -15t14.5 -35t-14.5 -34.5t-34.5 -14.5zM293 729q-21 0 -35.5 14.5t-14.5 34.5t14.5 35t35.5 15q20 0 34.5 -15t14.5 -35t-14.5 -34.5t-34.5 -14.5zM157 604q-21 0 -35.5 14.5t-14.5 34.5t14.5 35t35.5 15q20 0 34.5 -15t14.5 -35 t-14.5 -34.5t-34.5 -14.5zM293 604q-21 0 -35.5 14.5t-14.5 34.5t14.5 35t35.5 15q20 0 34.5 -15t14.5 -35t-14.5 -34.5t-34.5 -14.5z" />
<glyph unicode="&#x6a6;" horiz-adv-x="495" arabic-form="medial" d="M200 300q0 -21 15 -36t36 -15t36.5 15t15.5 36t-15.5 36t-36.5 15t-36 -15t-15 -36zM103 300q0 62 43.5 106t104.5 44t105 -44t44 -106t-44 -106t-105 -44t-104.5 44t-43.5 106zM400 300v-200h120v-100h-540v100h320v128zM181 643q-21 0 -35.5 14.5t-14.5 34.5t14.5 35 t35.5 15q20 0 34.5 -15t14.5 -35t-14.5 -34.5t-34.5 -14.5zM317 643q-21 0 -35.5 14.5t-14.5 34.5t14.5 35t35.5 15q20 0 34.5 -15t14.5 -35t-14.5 -34.5t-34.5 -14.5zM181 518q-21 0 -35.5 14.5t-14.5 34.5t14.5 35t35.5 15q20 0 34.5 -15t14.5 -35t-14.5 -34.5 t-34.5 -14.5zM317 518q-21 0 -35.5 14.5t-14.5 34.5t14.5 35t35.5 15q20 0 34.5 -15t14.5 -35t-14.5 -34.5t-34.5 -14.5z" />
<glyph unicode="&#x684;" horiz-adv-x="639" arabic-form="isolated" d="M360 -394q-70 0 -133.5 16t-112 49.5t-76.5 84.5t-28 120q0 92 43 171t123.5 139.5t191.5 97.5q-49 16 -102.5 32.5t-124.5 16.5q-30 0 -52.5 -5t-42.5 -10l-14 74q26 11 58.5 17.5t65.5 6.5q46 0 82 -8.5t68.5 -20.5t68.5 -24.5t80.5 -21t105.5 -9.5h9l2 -82 q-58 0 -123.5 -15.5t-128.5 -46t-114.5 -74.5t-82.5 -101t-31 -127t38 -113.5t101.5 -63.5t138.5 -20q99 0 201 40l28 -68q-58 -28 -119 -41.5t-120 -13.5zM366 -53q-21 0 -35.5 14.5t-14.5 34.5t14.5 35t35.5 15q20 0 34.5 -15t14.5 -35t-14.5 -34.5t-34.5 -14.5zM367 -181 q-21 0 -35.5 14.5t-14.5 34.5t14.5 35t35.5 15q20 0 34.5 -15t14.5 -35t-14.5 -34.5t-34.5 -14.5z" />
<glyph unicode="&#x684;" horiz-adv-x="649" arabic-form="final" d="M360 -394q-70 0 -133.5 16t-112 49.5t-76.5 84.5t-28 120q0 92 43 171t123.5 139.5t191.5 97.5q-49 16 -102.5 32.5t-124.5 16.5q-30 0 -52.5 -5t-42.5 -10l-14 74q26 11 58.5 17.5t65.5 6.5q46 0 82 -8.5t68.5 -20.5t68.5 -24.5t80.5 -21t105.5 -9.5h9l2 -82 q-52 0 -109 -12q8 -56 26 -88.5t44.5 -48t58.5 -20t67 -4.5q21 0 30.5 -11.5t9.5 -27.5t-13.5 -29.5t-35.5 -13.5q-42 0 -84.5 6t-79 27t-60.5 66.5t-29 125.5q-58 -20 -113 -51t-98 -73t-68.5 -94.5t-25.5 -115.5q0 -70 38 -113.5t101.5 -63.5t138.5 -20q99 0 201 40 l28 -68q-58 -28 -119 -41.5t-120 -13.5zM321 -82q-21 0 -35.5 14.5t-14.5 34.5t14.5 35t35.5 15q20 0 34.5 -15t14.5 -35t-14.5 -34.5t-34.5 -14.5zM322 -210q-21 0 -35.5 14.5t-14.5 34.5t14.5 35t35.5 15q20 0 34.5 -15t14.5 -35t-14.5 -34.5t-34.5 -14.5z" />
<glyph unicode="&#x684;" horiz-adv-x="589" arabic-form="initial" d="M0 -5l9 82q104 0 200.5 31t176.5 86q-39 35 -95.5 55.5t-124.5 20.5q-25 0 -44 -2.5t-46 -8.5l-16 76q56 17 106 17q52 0 94 -12.5t76.5 -30.5t65 -36t59.5 -30.5t60 -12.5h21l7 -72q-51 0 -93 -16.5t-84.5 -40.5t-93 -48.5t-117.5 -41t-161 -16.5zM279 -187 q-21 0 -35.5 14.5t-14.5 34.5t14.5 35t35.5 15q20 0 34.5 -15t14.5 -35t-14.5 -34.5t-34.5 -14.5zM280 -316q-21 0 -35.5 14.5t-14.5 34.5t14.5 35t35.5 15q20 0 34.5 -15t14.5 -35t-14.5 -34.5t-34.5 -14.5z" />
<glyph unicode="&#x684;" horiz-adv-x="637" arabic-form="medial" d="M0 -5l9 82q104 0 200.5 31t176.5 86q-39 35 -95.5 55.5t-124.5 20.5q-25 0 -44 -2.5t-46 -8.5l-16 76q56 17 106 17q52 0 94 -12.5t76.5 -30.5t65 -36t59.5 -30.5t60 -12.5h21l7 -72q-31 0 -60 -7q19 -45 54 -59.5t104 -14.5q21 0 30.5 -11.5t9.5 -27.5t-14 -29.5 t-36 -13.5q-54 0 -96.5 9.5t-72.5 38t-44 85.5q-38 -18 -77.5 -40.5t-87.5 -43.5t-111 -35t-148 -14zM261 -187q-21 0 -35.5 14.5t-14.5 34.5t14.5 35t35.5 15q20 0 34.5 -15t14.5 -35t-14.5 -34.5t-34.5 -14.5zM262 -316q-21 0 -35.5 14.5t-14.5 34.5t14.5 35t35.5 15 q20 0 34.5 -15t14.5 -35t-14.5 -34.5t-34.5 -14.5z" />
<glyph unicode="&#x683;" horiz-adv-x="659" arabic-form="isolated" d="M380 -394q-70 0 -136.5 16t-119 49.5t-83.5 84.5t-31 120q0 92 48 171t133 139.5t197 97.5q-49 16 -105.5 32.5t-141.5 16.5q-30 0 -52.5 -5t-42.5 -10l-14 74q26 11 58.5 17.5t65.5 6.5q52 0 91.5 -8.5t74.5 -20.5t71.5 -24.5t81.5 -21t106 -9.5h9l2 -82 q-58 0 -125.5 -15.5t-133.5 -46t-120.5 -74.5t-87.5 -101t-33 -127q0 -52 25 -89.5t67.5 -61.5t96 -35t109.5 -11q99 0 201 40l28 -68q-58 -28 -119 -41.5t-120 -13.5zM445 -115q-21 0 -35.5 14.5t-14.5 34.5t14.5 35t35.5 15q20 0 34.5 -15t14.5 -35t-14.5 -34.5 t-34.5 -14.5zM308 -115q-21 0 -35.5 14.5t-14.5 34.5t14.5 35t35.5 15q20 0 34.5 -15t14.5 -35t-14.5 -34.5t-34.5 -14.5z" />
<glyph unicode="&#x683;" horiz-adv-x="719" arabic-form="final" d="M380 -394q-70 0 -136.5 16t-119 49.5t-83.5 84.5t-31 120q0 92 48 171t133 139.5t197 97.5q-49 16 -105.5 32.5t-141.5 16.5q-30 0 -52.5 -5t-42.5 -10l-14 74q26 11 58.5 17.5t65.5 6.5q52 0 91.5 -8.5t74.5 -20.5t71.5 -24.5t81.5 -21t106 -9.5h9l2 -82q-29 0 -60 -4 q7 -58 25 -92.5t44.5 -50.5t59.5 -21t68 -5q21 0 30.5 -11.5t9.5 -27.5t-13.5 -29.5t-35.5 -13.5q-43 0 -86.5 6t-80.5 29t-60.5 71.5t-26.5 132.5q-66 -15 -132.5 -45.5t-121 -74.5t-87.5 -101t-33 -127q0 -52 25 -89.5t67.5 -61.5t96 -35t109.5 -11q99 0 201 40l28 -68 q-58 -28 -119 -41.5t-120 -13.5zM407 -146q-21 0 -35.5 14.5t-14.5 34.5t14.5 35t35.5 15q20 0 34.5 -15t14.5 -35t-14.5 -34.5t-34.5 -14.5zM270 -146q-21 0 -35.5 14.5t-14.5 34.5t14.5 35t35.5 15q20 0 34.5 -15t14.5 -35t-14.5 -34.5t-34.5 -14.5z" />
<glyph unicode="&#x683;" horiz-adv-x="589" arabic-form="initial" d="M0 -5l9 82q104 0 200.5 31t176.5 86q-39 35 -95.5 55.5t-124.5 20.5q-25 0 -44 -2.5t-46 -8.5l-16 76q56 17 106 17q52 0 94 -12.5t76.5 -30.5t65 -36t59.5 -30.5t60 -12.5h21l7 -72q-51 0 -93 -16.5t-84.5 -40.5t-93 -48.5t-117.5 -41t-161 -16.5zM351 -189 q-21 0 -35.5 14.5t-14.5 34.5t14.5 35t35.5 15q20 0 34.5 -15t14.5 -35t-14.5 -34.5t-34.5 -14.5zM214 -189q-21 0 -35.5 14.5t-14.5 34.5t14.5 35t35.5 15q20 0 34.5 -15t14.5 -35t-14.5 -34.5t-34.5 -14.5z" />
<glyph unicode="&#x683;" horiz-adv-x="637" arabic-form="medial" d="M0 -5l9 82q104 0 200.5 31t176.5 86q-39 35 -95.5 55.5t-124.5 20.5q-25 0 -44 -2.5t-46 -8.5l-16 76q56 17 106 17q52 0 94 -12.5t76.5 -30.5t65 -36t59.5 -30.5t60 -12.5h21l7 -72q-31 0 -60 -7q19 -45 54 -59.5t104 -14.5q21 0 30.5 -11.5t9.5 -27.5t-14 -29.5 t-36 -13.5q-54 0 -96.5 9.5t-72.5 38t-44 85.5q-38 -18 -77.5 -40.5t-87.5 -43.5t-111 -35t-148 -14zM333 -189q-21 0 -35.5 14.5t-14.5 34.5t14.5 35t35.5 15q20 0 34.5 -15t14.5 -35t-14.5 -34.5t-34.5 -14.5zM196 -189q-21 0 -35.5 14.5t-14.5 34.5t14.5 35t35.5 15 q20 0 34.5 -15t14.5 -35t-14.5 -34.5t-34.5 -14.5z" />
<glyph unicode="&#x686;" horiz-adv-x="659" arabic-form="isolated" d="M25 -60q0 62 30 94t63 51q-22 15 -50 49.5t-43 58.5l56 107q53 -83 116 -141.5t114 -58.5h179l-60 -100h-232q-20 0 -46 -20.5t-26 -51.5q0 -54 48 -73t106.5 -16t90.5 14q-35 -41 -108.5 -55.5t-130.5 2.5q-43 14 -75 50.5t-32 89.5zM143 -420q0 24 17 41t41 17t41 -17 t17 -41t-17 -41t-41 -17t-41 17t-17 41zM60 -270q0 24 17 41t41 17t41 -17t17 -41t-17 -41t-41 -17t-41 17t-17 41zM233 -270q0 24 17 41t41 17t41 -17t17 -41t-17 -41t-41 -17t-41 17t-17 41z" />
<glyph unicode="&#x686;" horiz-adv-x="719" arabic-form="final" d="M380 -394q-70 0 -136.5 16t-119 49.5t-83.5 84.5t-31 120q0 92 48 171t133 139.5t197 97.5q-49 16 -105.5 32.5t-141.5 16.5q-30 0 -52.5 -5t-42.5 -10l-14 74q26 11 58.5 17.5t65.5 6.5q52 0 91.5 -8.5t74.5 -20.5t71.5 -24.5t81.5 -21t106 -9.5h9l2 -82q-29 0 -60 -4 q7 -58 25 -92.5t44.5 -50.5t59.5 -21t68 -5q21 0 30.5 -11.5t9.5 -27.5t-13.5 -29.5t-35.5 -13.5q-43 0 -86.5 6t-80.5 29t-60.5 71.5t-26.5 132.5q-66 -15 -132.5 -45.5t-121 -74.5t-87.5 -101t-33 -127q0 -52 25 -89.5t67.5 -61.5t96 -35t109.5 -11q99 0 201 40l28 -68 q-58 -28 -119 -41.5t-120 -13.5zM271 -113q-21 0 -35.5 14.5t-14.5 34.5t14.5 35t35.5 15q20 0 34.5 -15t14.5 -35t-14.5 -34.5t-34.5 -14.5zM407 -113q-21 0 -35.5 14.5t-14.5 34.5t14.5 35t35.5 15q20 0 34.5 -15t14.5 -35t-14.5 -34.5t-34.5 -14.5zM339 -223 q-21 0 -35.5 14.5t-14.5 34.5t14.5 35t35.5 15q20 0 34.5 -15t14.5 -35t-14.5 -34.5t-34.5 -14.5z" />
<glyph unicode="&#x686;" horiz-adv-x="589" arabic-form="initial" d="M0 -5l9 82q104 0 200.5 31t176.5 86q-39 35 -95.5 55.5t-124.5 20.5q-25 0 -44 -2.5t-46 -8.5l-16 76q56 17 106 17q52 0 94 -12.5t76.5 -30.5t65 -36t59.5 -30.5t60 -12.5h21l7 -72q-51 0 -93 -16.5t-84.5 -40.5t-93 -48.5t-117.5 -41t-161 -16.5zM211 -189 q-21 0 -35.5 14.5t-14.5 34.5t14.5 35t35.5 15q20 0 34.5 -15t14.5 -35t-14.5 -34.5t-34.5 -14.5zM347 -189q-21 0 -35.5 14.5t-14.5 34.5t14.5 35t35.5 15q20 0 34.5 -15t14.5 -35t-14.5 -34.5t-34.5 -14.5zM279 -299q-21 0 -35.5 14.5t-14.5 34.5t14.5 35t35.5 15 q20 0 34.5 -15t14.5 -35t-14.5 -34.5t-34.5 -14.5z" />
<glyph unicode="&#x686;" horiz-adv-x="637" arabic-form="medial" d="M0 -5l9 82q104 0 200.5 31t176.5 86q-39 35 -95.5 55.5t-124.5 20.5q-25 0 -44 -2.5t-46 -8.5l-16 76q56 17 106 17q52 0 94 -12.5t76.5 -30.5t65 -36t59.5 -30.5t60 -12.5h21l7 -72q-31 0 -60 -7q19 -45 54 -59.5t104 -14.5q21 0 30.5 -11.5t9.5 -27.5t-14 -29.5 t-36 -13.5q-54 0 -96.5 9.5t-72.5 38t-44 85.5q-38 -18 -77.5 -40.5t-87.5 -43.5t-111 -35t-148 -14zM193 -189q-21 0 -35.5 14.5t-14.5 34.5t14.5 35t35.5 15q20 0 34.5 -15t14.5 -35t-14.5 -34.5t-34.5 -14.5zM329 -189q-21 0 -35.5 14.5t-14.5 34.5t14.5 35t35.5 15 q20 0 34.5 -15t14.5 -35t-14.5 -34.5t-34.5 -14.5zM261 -299q-21 0 -35.5 14.5t-14.5 34.5t14.5 35t35.5 15q20 0 34.5 -15t14.5 -35t-14.5 -34.5t-34.5 -14.5z" />
<glyph unicode="&#x687;" horiz-adv-x="659" arabic-form="isolated" d="M380 -394q-70 0 -136.5 16t-119 49.5t-83.5 84.5t-31 120q0 92 48 171t133 139.5t197 97.5q-49 16 -105.5 32.5t-141.5 16.5q-30 0 -52.5 -5t-42.5 -10l-14 74q26 11 58.5 17.5t65.5 6.5q52 0 91.5 -8.5t74.5 -20.5t71.5 -24.5t81.5 -21t106 -9.5h9l2 -82 q-58 0 -125.5 -15.5t-133.5 -46t-120.5 -74.5t-87.5 -101t-33 -127q0 -52 25 -89.5t67.5 -61.5t96 -35t109.5 -11q99 0 201 40l28 -68q-58 -28 -119 -41.5t-120 -13.5zM329 -60q-21 0 -35.5 14.5t-14.5 34.5t14.5 35t35.5 15q20 0 34.5 -15t14.5 -35t-14.5 -34.5 t-34.5 -14.5zM465 -60q-21 0 -35.5 14.5t-14.5 34.5t14.5 35t35.5 15q20 0 34.5 -15t14.5 -35t-14.5 -34.5t-34.5 -14.5zM329 -185q-21 0 -35.5 14.5t-14.5 34.5t14.5 35t35.5 15q20 0 34.5 -15t14.5 -35t-14.5 -34.5t-34.5 -14.5zM465 -185q-21 0 -35.5 14.5t-14.5 34.5 t14.5 35t35.5 15q20 0 34.5 -15t14.5 -35t-14.5 -34.5t-34.5 -14.5z" />
<glyph unicode="&#x687;" horiz-adv-x="719" arabic-form="final" d="M380 -394q-70 0 -136.5 16t-119 49.5t-83.5 84.5t-31 120q0 92 48 171t133 139.5t197 97.5q-49 16 -105.5 32.5t-141.5 16.5q-30 0 -52.5 -5t-42.5 -10l-14 74q26 11 58.5 17.5t65.5 6.5q52 0 91.5 -8.5t74.5 -20.5t71.5 -24.5t81.5 -21t106 -9.5h9l2 -82q-29 0 -60 -4 q7 -58 25 -92.5t44.5 -50.5t59.5 -21t68 -5q21 0 30.5 -11.5t9.5 -27.5t-13.5 -29.5t-35.5 -13.5q-43 0 -86.5 6t-80.5 29t-60.5 71.5t-26.5 132.5q-66 -15 -132.5 -45.5t-121 -74.5t-87.5 -101t-33 -127q0 -52 25 -89.5t67.5 -61.5t96 -35t109.5 -11q99 0 201 40l28 -68 q-58 -28 -119 -41.5t-120 -13.5zM271 -98q-21 0 -35.5 14.5t-14.5 34.5t14.5 35t35.5 15q20 0 34.5 -15t14.5 -35t-14.5 -34.5t-34.5 -14.5zM407 -98q-21 0 -35.5 14.5t-14.5 34.5t14.5 35t35.5 15q20 0 34.5 -15t14.5 -35t-14.5 -34.5t-34.5 -14.5zM271 -223 q-21 0 -35.5 14.5t-14.5 34.5t14.5 35t35.5 15q20 0 34.5 -15t14.5 -35t-14.5 -34.5t-34.5 -14.5zM407 -223q-21 0 -35.5 14.5t-14.5 34.5t14.5 35t35.5 15q20 0 34.5 -15t14.5 -35t-14.5 -34.5t-34.5 -14.5z" />
<glyph unicode="&#x687;" horiz-adv-x="589" arabic-form="initial" d="M0 -5l9 82q104 0 200.5 31t176.5 86q-39 35 -95.5 55.5t-124.5 20.5q-25 0 -44 -2.5t-46 -8.5l-16 76q56 17 106 17q52 0 94 -12.5t76.5 -30.5t65 -36t59.5 -30.5t60 -12.5h21l7 -72q-51 0 -93 -16.5t-84.5 -40.5t-93 -48.5t-117.5 -41t-161 -16.5zM351 -187 q-21 0 -35.5 14.5t-14.5 34.5t14.5 35t35.5 15q20 0 34.5 -15t14.5 -35t-14.5 -34.5t-34.5 -14.5zM215 -187q-21 0 -35.5 14.5t-14.5 34.5t14.5 35t35.5 15q20 0 34.5 -15t14.5 -35t-14.5 -34.5t-34.5 -14.5zM351 -312q-21 0 -35.5 14.5t-14.5 34.5t14.5 35t35.5 15 q20 0 34.5 -15t14.5 -35t-14.5 -34.5t-34.5 -14.5zM215 -312q-21 0 -35.5 14.5t-14.5 34.5t14.5 35t35.5 15q20 0 34.5 -15t14.5 -35t-14.5 -34.5t-34.5 -14.5z" />
<glyph unicode="&#x687;" horiz-adv-x="637" arabic-form="medial" d="M0 -5l9 82q104 0 200.5 31t176.5 86q-39 35 -95.5 55.5t-124.5 20.5q-25 0 -44 -2.5t-46 -8.5l-16 76q56 17 106 17q52 0 94 -12.5t76.5 -30.5t65 -36t59.5 -30.5t60 -12.5h21l7 -72q-31 0 -60 -7q19 -45 54 -59.5t104 -14.5q21 0 30.5 -11.5t9.5 -27.5t-14 -29.5 t-36 -13.5q-54 0 -96.5 9.5t-72.5 38t-44 85.5q-38 -18 -77.5 -40.5t-87.5 -43.5t-111 -35t-148 -14zM333 -187q-21 0 -35.5 14.5t-14.5 34.5t14.5 35t35.5 15q20 0 34.5 -15t14.5 -35t-14.5 -34.5t-34.5 -14.5zM197 -187q-21 0 -35.5 14.5t-14.5 34.5t14.5 35t35.5 15 q20 0 34.5 -15t14.5 -35t-14.5 -34.5t-34.5 -14.5zM333 -312q-21 0 -35.5 14.5t-14.5 34.5t14.5 35t35.5 15q20 0 34.5 -15t14.5 -35t-14.5 -34.5t-34.5 -14.5zM197 -312q-21 0 -35.5 14.5t-14.5 34.5t14.5 35t35.5 15q20 0 34.5 -15t14.5 -35t-14.5 -34.5t-34.5 -14.5z" />
<glyph unicode="&#x68d;" horiz-adv-x="477" arabic-form="isolated" d="M277 413l-52 -113h430q103 0 142 -44t43.5 -108.5t4.5 -124.5q0 -19 -20 -21l-20 -2h-780l60 100h660q1 42 -16.5 71t-73.5 29h-520l132 220zM298 -194q-21 0 -35.5 14.5t-14.5 34.5t14.5 35t35.5 15q20 0 34.5 -15t14.5 -35t-14.5 -34.5t-34.5 -14.5zM161 -194 q-21 0 -35.5 14.5t-14.5 34.5t14.5 35t35.5 15q20 0 34.5 -15t14.5 -35t-14.5 -34.5t-34.5 -14.5z" />
<glyph unicode="&#x68d;" horiz-adv-x="532" arabic-form="final" d="M215 77q74 0 105 22.5t31 62.5q0 26 -18 67t-47.5 91.5t-65.5 103.5l69 45q58 -89 94.5 -162.5t54.5 -132.5q14 -44 31.5 -65t36.5 -26.5t35 -5.5q21 0 31 -11.5t10 -27.5t-14 -29.5t-36 -13.5q-39 0 -75 17t-58 58q-20 -33 -63.5 -54.5t-120.5 -21.5q-55 0 -102 13.5 t-78 37.5l40 69q20 -13 56 -25t84 -12zM306 -194q-21 0 -35.5 14.5t-14.5 34.5t14.5 35t35.5 15q20 0 34.5 -15t14.5 -35t-14.5 -34.5t-34.5 -14.5zM169 -194q-21 0 -35.5 14.5t-14.5 34.5t14.5 35t35.5 15q20 0 34.5 -15t14.5 -35t-14.5 -34.5t-34.5 -14.5z" />
<glyph unicode="&#x68c;" horiz-adv-x="477" arabic-form="isolated" d="M277 413l-52 -113h430q103 0 142 -44t43.5 -108.5t4.5 -124.5q0 -19 -20 -21l-20 -2h-780l60 100h660q1 42 -16.5 71t-73.5 29h-520l132 220zM286 560q-21 0 -35.5 14.5t-14.5 34.5t14.5 35t35.5 15q20 0 34.5 -15t14.5 -35t-14.5 -34.5t-34.5 -14.5zM149 560 q-21 0 -35.5 14.5t-14.5 34.5t14.5 35t35.5 15q20 0 34.5 -15t14.5 -35t-14.5 -34.5t-34.5 -14.5z" />
<glyph unicode="&#x68c;" horiz-adv-x="532" arabic-form="final" d="M215 77q74 0 105 22.5t31 62.5q0 26 -18 67t-47.5 91.5t-65.5 103.5l69 45q58 -89 94.5 -162.5t54.5 -132.5q14 -44 31.5 -65t36.5 -26.5t35 -5.5q21 0 31 -11.5t10 -27.5t-14 -29.5t-36 -13.5q-39 0 -75 17t-58 58q-20 -33 -63.5 -54.5t-120.5 -21.5q-55 0 -102 13.5 t-78 37.5l40 69q20 -13 56 -25t84 -12zM291 560q-21 0 -35.5 14.5t-14.5 34.5t14.5 35t35.5 15q20 0 34.5 -15t14.5 -35t-14.5 -34.5t-34.5 -14.5zM154 560q-21 0 -35.5 14.5t-14.5 34.5t14.5 35t35.5 15q20 0 34.5 -15t14.5 -35t-14.5 -34.5t-34.5 -14.5z" />
<glyph unicode="&#x68e;" horiz-adv-x="477" arabic-form="isolated" d="M277 413l-52 -113h430q103 0 142 -44t43.5 -108.5t4.5 -124.5q0 -19 -20 -21l-20 -2h-780l60 100h660q1 42 -16.5 71t-73.5 29h-520l132 220zM377 650q0 24 17 41t41 17t41 -17t17 -41t-17 -41t-41 -17t-41 17t-17 41zM294 500q0 24 17 41t41 17t41 -17t17 -41t-17 -41 t-41 -17t-41 17t-17 41zM467 500q0 24 17 41t41 17t41 -17t17 -41t-17 -41t-41 -17t-41 17t-17 41z" />
<glyph unicode="&#x68e;" horiz-adv-x="532" arabic-form="final" d="M215 77q74 0 105 22.5t31 62.5q0 26 -18 67t-47.5 91.5t-65.5 103.5l69 45q58 -89 94.5 -162.5t54.5 -132.5q14 -44 31.5 -65t36.5 -26.5t35 -5.5q21 0 31 -11.5t10 -27.5t-14 -29.5t-36 -13.5q-39 0 -75 17t-58 58q-20 -33 -63.5 -54.5t-120.5 -21.5q-55 0 -102 13.5 t-78 37.5l40 69q20 -13 56 -25t84 -12zM223 670q-21 0 -35.5 14.5t-14.5 34.5t14.5 35t35.5 15q20 0 34.5 -15t14.5 -35t-14.5 -34.5t-34.5 -14.5zM155 560q-21 0 -35.5 14.5t-14.5 34.5t14.5 35t35.5 15q20 0 34.5 -15t14.5 -35t-14.5 -34.5t-34.5 -14.5zM291 560 q-21 0 -35.5 14.5t-14.5 34.5t14.5 35t35.5 15q20 0 34.5 -15t14.5 -35t-14.5 -34.5t-34.5 -14.5z" />
<glyph unicode="&#x688;" horiz-adv-x="477" arabic-form="isolated" d="M277 413l-52 -113h430q103 0 142 -44t43.5 -108.5t4.5 -124.5q0 -19 -20 -21l-20 -2h-780l60 100h660q1 42 -16.5 71t-73.5 29h-520l132 220zM349 460v271l50 9v-280h-50zM367 580h142q42 0 57.5 -23t17 -53.5t1.5 -54.5q0 -7 -8 -8l-8 -1h-284l24 50h226q-1 16 -4.5 28 t-26.5 12h-137v50z" />
<glyph unicode="&#x688;" horiz-adv-x="532" arabic-form="final" d="M215 77q74 0 105 22.5t31 62.5q0 26 -18 67t-47.5 91.5t-65.5 103.5l69 45q58 -89 94.5 -162.5t54.5 -132.5q14 -44 31.5 -65t36.5 -26.5t35 -5.5q21 0 31 -11.5t10 -27.5t-14 -29.5t-36 -13.5q-39 0 -75 17t-58 58q-20 -33 -63.5 -54.5t-120.5 -21.5q-55 0 -102 13.5 t-78 37.5l40 69q20 -13 56 -25t84 -12zM224 588q-18 0 -42.5 1.5t-46.5 3.5l-33 3l2 58q6 -1 13 -1.5t15 -1.5q10 18 22 34l-5 162h55l5 -106q18 13 37.5 20.5t39.5 7.5q38 0 60 -23t22 -57q0 -20 -11.5 -43.5t-42.5 -40.5t-90 -17zM278 710q-18 0 -35 -11t-31.5 -26 t-22.5 -26q16 -1 28 -1q49 0 71 10.5t22 27.5q0 14 -9 20t-23 6z" />
<glyph unicode="&#x698;" horiz-adv-x="367" arabic-form="isolated" d="M200 -60q0 -66 -34.5 -102t-83.5 -44.5t-95.5 6.5t-71.5 50q77 -20 116.5 -10.5t54 36t14.5 54.5v348l100 22v-360zM92 650q0 24 17 41t41 17t41 -17t17 -41t-17 -41t-41 -17t-41 17t-17 41zM9 500q0 24 17 41t41 17t41 -17t17 -41t-17 -41t-41 -17t-41 17t-17 41z M182 500q0 24 17 41t41 17t41 -17t17 -41t-17 -41t-41 -17t-41 17t-17 41z" />
<glyph unicode="&#x698;" horiz-adv-x="396" arabic-form="final" d="M4 -232l-29 76q97 32 151.5 76t77 92.5t22.5 94.5q0 49 -21.5 99.5t-47.5 95.5l73 37q28 -53 47.5 -102t30.5 -86q14 -43 36.5 -58.5t61.5 -15.5q21 0 30.5 -11.5t9.5 -27.5t-14 -29.5t-36 -13.5q-38 0 -63.5 12t-41.5 32q-10 -56 -42 -102t-75 -80.5t-88 -56.5t-82 -32z M165 564q-21 0 -35.5 14.5t-14.5 34.5t14.5 35t35.5 15q20 0 34.5 -15t14.5 -35t-14.5 -34.5t-34.5 -14.5zM97 454q-21 0 -35.5 14.5t-14.5 34.5t14.5 35t35.5 15q20 0 34.5 -15t14.5 -35t-14.5 -34.5t-34.5 -14.5zM233 454q-21 0 -35.5 14.5t-14.5 34.5t14.5 35t35.5 15 q20 0 34.5 -15t14.5 -35t-14.5 -34.5t-34.5 -14.5z" />
<glyph unicode="&#x691;" horiz-adv-x="367" arabic-form="isolated" d="M200 -60q0 -66 -34.5 -102t-83.5 -44.5t-95.5 6.5t-71.5 50q77 -20 116.5 -10.5t54 36t14.5 54.5v348l100 22v-360zM54 460v271l50 9v-280h-50zM72 580h142q42 0 57.5 -23t17 -53.5t1.5 -54.5q0 -7 -8 -8l-8 -1h-284l24 50h226q-1 16 -4.5 28t-26.5 12h-137v50z" />
<glyph unicode="&#x691;" horiz-adv-x="396" arabic-form="final" d="M4 -232l-29 76q97 32 151.5 76t77 92.5t22.5 94.5q0 49 -21.5 99.5t-47.5 95.5l73 37q28 -53 47.5 -102t30.5 -86q14 -43 36.5 -58.5t61.5 -15.5q21 0 30.5 -11.5t9.5 -27.5t-14 -29.5t-36 -13.5q-38 0 -63.5 12t-41.5 32q-10 -56 -42 -102t-75 -80.5t-88 -56.5t-82 -32z M166 482q-18 0 -42.5 1.5t-46.5 3.5l-33 3l2 58q6 -1 13 -1.5t15 -1.5q10 18 22 34l-5 162h55l5 -106q18 13 37.5 20.5t39.5 7.5q38 0 60 -23t22 -57q0 -20 -11.5 -43.5t-42.5 -40.5t-90 -17zM220 604q-18 0 -35 -11t-31.5 -26t-22.5 -26q16 -1 28 -1q49 0 71 10.5t22 27.5 q0 14 -9 20t-23 6z" />
<glyph unicode="&#x6a9;" horiz-adv-x="877" arabic-form="isolated" d="M586 431q-11 20 -26 5l-229 -225l-77 78l332 327v-185zM265 300h530q103 0 142 -44t43.5 -108.5t4.5 -124.5q0 -19 -20 -21l-20 -2h-920l60 100h800q1 42 -16.5 71t-73.5 29h-630z" />
<glyph unicode="&#x6a9;" horiz-adv-x="975" arabic-form="final" d="M390 -21q-178 0 -269 47t-91 156q0 37 9 78.5t19 78.5l75 -19q-6 -22 -13.5 -55.5t-7.5 -59.5q0 -52 26.5 -83.5t92.5 -46t185 -14.5q125 0 196 13t100.5 32t29.5 35q0 24 -18 53t-46 59.5t-59.5 60.5t-59.5 55t-46 43.5t-18 26.5q0 23 5.5 43t15.5 31q27 29 79.5 60.5 t120.5 65t139 68.5l34 -74q-88 -44 -172.5 -85t-147.5 -85q55 -47 103 -91t89 -94.5t75 -114.5q21 -39 49 -57t55.5 -23.5t44.5 -5.5q21 0 30.5 -11.5t9.5 -27.5t-14 -29.5t-36 -13.5q-24 0 -56 6.5t-63.5 25t-55.5 54.5q-17 -22 -45 -41t-74.5 -32.5t-117.5 -21t-173 -7.5z " />
<glyph unicode="&#x6a9;" horiz-adv-x="412" arabic-form="initial" d="M0 -5l10 82h94q59 0 93.5 6.5t51 17t22 23t5.5 25.5q0 23 -17.5 57t-71.5 88q-37 38 -74 67t-61 49t-24 29q0 23 5.5 43t15.5 31q40 43 125.5 86.5t213.5 107.5l34 -74q-91 -44 -148.5 -72.5t-95 -50t-69.5 -43.5q117 -95 179.5 -170.5t62.5 -152.5q0 -22 -8 -48t-34 -49 t-78 -37.5t-140 -14.5h-91z" />
<glyph unicode="&#x6a9;" horiz-adv-x="508" arabic-form="medial" d="M0 -5l10 82h77q83 0 123 9t52.5 24t12.5 31q0 24 -18 53t-46 59.5t-59.5 60.5t-59.5 55t-46 43.5t-18 26.5q0 23 5.5 43t15.5 31q27 29 79.5 60.5t120.5 65t139 68.5l34 -74q-88 -44 -172.5 -85t-147.5 -85q55 -47 103 -91t89 -94.5t75 -114.5q21 -39 49 -57t55.5 -23.5 t44.5 -5.5q21 0 30.5 -11.5t9.5 -27.5t-14 -29.5t-36 -13.5q-24 0 -55.5 6.5t-63.5 25t-56 54.5q-20 -29 -50 -48t-78 -28.5t-122 -9.5h-83z" />
<glyph unicode="&#x6af;" horiz-adv-x="877" arabic-form="isolated" d="M586 431q-11 20 -26 5l-229 -225l-77 78l332 327v-185zM265 300h530q103 0 142 -44t43.5 -108.5t4.5 -124.5q0 -19 -20 -21l-20 -2h-920l60 100h800q1 42 -16.5 71t-73.5 29h-630zM585 675l-422 -416l1 48l421 415v-47z" />
<glyph unicode="&#x6af;" horiz-adv-x="975" arabic-form="final" d="M462 550l-37 56q58 35 152.5 91.5t223.5 123.5l28 -61q-130 -69 -218 -120.5t-149 -89.5zM390 -21q-178 0 -269 47t-91 156q0 37 9 78.5t19 78.5l75 -19q-6 -22 -13.5 -55.5t-7.5 -59.5q0 -52 26.5 -83.5t92.5 -46t185 -14.5q125 0 196 13t100.5 32t29.5 35q0 24 -18 53 t-46 59.5t-59.5 60.5t-59.5 55t-46 43.5t-18 26.5q0 23 5.5 43t15.5 31q27 29 79.5 60.5t120.5 65t139 68.5l34 -74q-88 -44 -172.5 -85t-147.5 -85q55 -47 103 -91t89 -94.5t75 -114.5q21 -39 49 -57t55.5 -23.5t44.5 -5.5q21 0 30.5 -11.5t9.5 -27.5t-14 -29.5t-36 -13.5 q-24 0 -56 6.5t-63.5 25t-55.5 54.5q-17 -22 -45 -41t-74.5 -32.5t-117.5 -21t-173 -7.5z" />
<glyph unicode="&#x6af;" horiz-adv-x="412" arabic-form="initial" d="M-1 550l-37 56q58 35 152.5 91.5t223.5 123.5l28 -61q-130 -69 -218 -120.5t-149 -89.5zM0 -5l10 82h94q59 0 93.5 6.5t51 17t22 23t5.5 25.5q0 23 -17.5 57t-71.5 88q-37 38 -74 67t-61 49t-24 29q0 23 5.5 43t15.5 31q40 43 125.5 86.5t213.5 107.5l34 -74 q-91 -44 -148.5 -72.5t-95 -50t-69.5 -43.5q117 -95 179.5 -170.5t62.5 -152.5q0 -22 -8 -48t-34 -49t-78 -37.5t-140 -14.5h-91z" />
<glyph unicode="&#x6af;" horiz-adv-x="508" arabic-form="medial" d="M-1 550l-37 56q58 35 152.5 91.5t223.5 123.5l28 -61q-130 -69 -218 -120.5t-149 -89.5zM0 -5l10 82h77q83 0 123 9t52.5 24t12.5 31q0 24 -18 53t-46 59.5t-59.5 60.5t-59.5 55t-46 43.5t-18 26.5q0 23 5.5 43t15.5 31q27 29 79.5 60.5t120.5 65t139 68.5l34 -74 q-88 -44 -172.5 -85t-147.5 -85q55 -47 103 -91t89 -94.5t75 -114.5q21 -39 49 -57t55.5 -23.5t44.5 -5.5q21 0 30.5 -11.5t9.5 -27.5t-14 -29.5t-36 -13.5q-24 0 -55.5 6.5t-63.5 25t-56 54.5q-20 -29 -50 -48t-78 -28.5t-122 -9.5h-83z" />
<glyph unicode="&#x6b3;" horiz-adv-x="877" arabic-form="isolated" d="M586 431q-11 20 -26 5l-229 -225l-77 78l332 327v-185zM265 300h530q103 0 142 -44t43.5 -108.5t4.5 -124.5q0 -19 -20 -21l-20 -2h-920l60 100h800q1 42 -16.5 71t-73.5 29h-630zM585 675l-422 -416l1 48l421 415v-47zM410 -208q-21 0 -35.5 14.5t-14.5 34.5t14.5 35 t35.5 15q20 0 34.5 -15t14.5 -35t-14.5 -34.5t-34.5 -14.5zM411 -337q-21 0 -35.5 14.5t-14.5 34.5t14.5 35t35.5 15q20 0 34.5 -15t14.5 -35t-14.5 -34.5t-34.5 -14.5z" />
<glyph unicode="&#x6b3;" horiz-adv-x="975" arabic-form="final" d="M462 550l-37 56q58 35 152.5 91.5t223.5 123.5l28 -61q-130 -69 -218 -120.5t-149 -89.5zM390 -21q-178 0 -269 47t-91 156q0 37 9 78.5t19 78.5l75 -19q-6 -22 -13.5 -55.5t-7.5 -59.5q0 -52 26.5 -83.5t92.5 -46t185 -14.5q125 0 196 13t100.5 32t29.5 35q0 24 -18 53 t-46 59.5t-59.5 60.5t-59.5 55t-46 43.5t-18 26.5q0 23 5.5 43t15.5 31q27 29 79.5 60.5t120.5 65t139 68.5l34 -74q-88 -44 -172.5 -85t-147.5 -85q55 -47 103 -91t89 -94.5t75 -114.5q21 -39 49 -57t55.5 -23.5t44.5 -5.5q21 0 30.5 -11.5t9.5 -27.5t-14 -29.5t-36 -13.5 q-24 0 -56 6.5t-63.5 25t-55.5 54.5q-17 -22 -45 -41t-74.5 -32.5t-117.5 -21t-173 -7.5zM410 -208q-21 0 -35.5 14.5t-14.5 34.5t14.5 35t35.5 15q20 0 34.5 -15t14.5 -35t-14.5 -34.5t-34.5 -14.5zM411 -337q-21 0 -35.5 14.5t-14.5 34.5t14.5 35t35.5 15q20 0 34.5 -15 t14.5 -35t-14.5 -34.5t-34.5 -14.5z" />
<glyph unicode="&#x6b3;" horiz-adv-x="412" arabic-form="initial" d="M-1 550l-37 56q58 35 152.5 91.5t223.5 123.5l28 -61q-130 -69 -218 -120.5t-149 -89.5zM0 -5l10 82h94q59 0 93.5 6.5t51 17t22 23t5.5 25.5q0 23 -17.5 57t-71.5 88q-37 38 -74 67t-61 49t-24 29q0 23 5.5 43t15.5 31q40 43 125.5 86.5t213.5 107.5l34 -74 q-91 -44 -148.5 -72.5t-95 -50t-69.5 -43.5q117 -95 179.5 -170.5t62.5 -152.5q0 -22 -8 -48t-34 -49t-78 -37.5t-140 -14.5h-91zM163 -187q-21 0 -35.5 14.5t-14.5 34.5t14.5 35t35.5 15q20 0 34.5 -15t14.5 -35t-14.5 -34.5t-34.5 -14.5zM164 -316q-21 0 -35.5 14.5 t-14.5 34.5t14.5 35t35.5 15q20 0 34.5 -15t14.5 -35t-14.5 -34.5t-34.5 -14.5z" />
<glyph unicode="&#x6b3;" horiz-adv-x="508" arabic-form="medial" d="M-1 550l-37 56q58 35 152.5 91.5t223.5 123.5l28 -61q-130 -69 -218 -120.5t-149 -89.5zM0 -5l10 82h77q83 0 123 9t52.5 24t12.5 31q0 24 -18 53t-46 59.5t-59.5 60.5t-59.5 55t-46 43.5t-18 26.5q0 23 5.5 43t15.5 31q27 29 79.5 60.5t120.5 65t139 68.5l34 -74 q-88 -44 -172.5 -85t-147.5 -85q55 -47 103 -91t89 -94.5t75 -114.5q21 -39 49 -57t55.5 -23.5t44.5 -5.5q21 0 30.5 -11.5t9.5 -27.5t-14 -29.5t-36 -13.5q-24 0 -55.5 6.5t-63.5 25t-56 54.5q-20 -29 -50 -48t-78 -28.5t-122 -9.5h-83zM163 -187q-21 0 -35.5 14.5 t-14.5 34.5t14.5 35t35.5 15q20 0 34.5 -15t14.5 -35t-14.5 -34.5t-34.5 -14.5zM164 -316q-21 0 -35.5 14.5t-14.5 34.5t14.5 35t35.5 15q20 0 34.5 -15t14.5 -35t-14.5 -34.5t-34.5 -14.5z" />
<glyph unicode="&#x6b1;" horiz-adv-x="877" arabic-form="isolated" d="M639 801q-21 0 -35.5 14.5t-14.5 34.5t14.5 35t35.5 15q20 0 34.5 -15t14.5 -35t-14.5 -34.5t-34.5 -14.5zM524 748q-21 0 -35.5 14.5t-14.5 34.5t14.5 35t35.5 15q20 0 34.5 -15t14.5 -35t-14.5 -34.5t-34.5 -14.5zM462 550l-37 56q58 35 152.5 91.5t223.5 123.5l28 -61 q-130 -69 -218 -120.5t-149 -89.5zM390 -21q-178 0 -269 47t-91 156q0 37 9 78.5t19 78.5l75 -19q-6 -22 -13.5 -55.5t-7.5 -59.5q0 -52 26.5 -83.5t92.5 -46t185 -14.5q98 0 161.5 6t99 17t50 27.5t14.5 37.5q0 23 -17.5 57t-71.5 88q-37 38 -74 67t-61 49t-24 29 q0 23 5.5 43t15.5 31q40 43 125.5 86.5t213.5 107.5l34 -74q-91 -44 -148.5 -72.5t-95 -50t-69.5 -43.5q117 -95 179.5 -170.5t62.5 -152.5q0 -23 -7 -47t-30.5 -45t-69.5 -37.5t-124 -26t-195 -9.5z" />
<glyph unicode="&#x6b1;" horiz-adv-x="975" arabic-form="final" d="M639 801q-21 0 -35.5 14.5t-14.5 34.5t14.5 35t35.5 15q20 0 34.5 -15t14.5 -35t-14.5 -34.5t-34.5 -14.5zM524 748q-21 0 -35.5 14.5t-14.5 34.5t14.5 35t35.5 15q20 0 34.5 -15t14.5 -35t-14.5 -34.5t-34.5 -14.5zM462 550l-37 56q58 35 152.5 91.5t223.5 123.5l28 -61 q-130 -69 -218 -120.5t-149 -89.5zM390 -21q-178 0 -269 47t-91 156q0 37 9 78.5t19 78.5l75 -19q-6 -22 -13.5 -55.5t-7.5 -59.5q0 -52 26.5 -83.5t92.5 -46t185 -14.5q125 0 196 13t100.5 32t29.5 35q0 24 -18 53t-46 59.5t-59.5 60.5t-59.5 55t-46 43.5t-18 26.5 q0 23 5.5 43t15.5 31q27 29 79.5 60.5t120.5 65t139 68.5l34 -74q-88 -44 -172.5 -85t-147.5 -85q55 -47 103 -91t89 -94.5t75 -114.5q21 -39 49 -57t55.5 -23.5t44.5 -5.5q21 0 30.5 -11.5t9.5 -27.5t-14 -29.5t-36 -13.5q-24 0 -56 6.5t-63.5 25t-55.5 54.5 q-17 -22 -45 -41t-74.5 -32.5t-117.5 -21t-173 -7.5z" />
<glyph unicode="&#x6b1;" horiz-adv-x="412" arabic-form="initial" d="M187 799q-21 0 -35.5 14.5t-14.5 34.5t14.5 35t35.5 15q20 0 34.5 -15t14.5 -35t-14.5 -34.5t-34.5 -14.5zM72 746q-21 0 -35.5 14.5t-14.5 34.5t14.5 35t35.5 15q20 0 34.5 -15t14.5 -35t-14.5 -34.5t-34.5 -14.5zM-1 550l-37 56q58 35 152.5 91.5t223.5 123.5l28 -61 q-130 -69 -218 -120.5t-149 -89.5zM0 -5l10 82h94q59 0 93.5 6.5t51 17t22 23t5.5 25.5q0 23 -17.5 57t-71.5 88q-37 38 -74 67t-61 49t-24 29q0 23 5.5 43t15.5 31q40 43 125.5 86.5t213.5 107.5l34 -74q-91 -44 -148.5 -72.5t-95 -50t-69.5 -43.5q117 -95 179.5 -170.5 t62.5 -152.5q0 -22 -8 -48t-34 -49t-78 -37.5t-140 -14.5h-91z" />
<glyph unicode="&#x6b1;" horiz-adv-x="508" arabic-form="medial" d="M182 799q-21 0 -35.5 14.5t-14.5 34.5t14.5 35t35.5 15q20 0 34.5 -15t14.5 -35t-14.5 -34.5t-34.5 -14.5zM67 746q-21 0 -35.5 14.5t-14.5 34.5t14.5 35t35.5 15q20 0 34.5 -15t14.5 -35t-14.5 -34.5t-34.5 -14.5zM-1 550l-37 56q58 35 152.5 91.5t223.5 123.5l28 -61 q-130 -69 -218 -120.5t-149 -89.5zM0 -5l10 82h77q83 0 123 9t52.5 24t12.5 31q0 24 -18 53t-46 59.5t-59.5 60.5t-59.5 55t-46 43.5t-18 26.5q0 23 5.5 43t15.5 31q27 29 79.5 60.5t120.5 65t139 68.5l34 -74q-88 -44 -172.5 -85t-147.5 -85q55 -47 103 -91t89 -94.5 t75 -114.5q21 -39 49 -57t55.5 -23.5t44.5 -5.5q21 0 30.5 -11.5t9.5 -27.5t-14 -29.5t-36 -13.5q-24 0 -55.5 6.5t-63.5 25t-56 54.5q-20 -29 -50 -48t-78 -28.5t-122 -9.5h-83z" />
<glyph unicode="&#x6ba;" horiz-adv-x="685" arabic-form="isolated" d="M434 5q0 -85 -57 -147t-157 -62q-79 0 -121 38t-58.5 86.5t-16.5 79.5q0 66 39.5 121.5t86.5 85.5q5 -39 -20 -72q16 -7 24.5 -24t4.5 -34q-27 15 -49 13q-29 -3 -42.5 -32t-13.5 -58q0 -52 37.5 -94t123.5 -42q76 0 107 51.5t27 104.5q-3 43 -26.5 81.5t-38.5 56.5 l52 104q37 -46 67.5 -107.5t30.5 -149.5z" />
<glyph unicode="&#x6ba;" horiz-adv-x="730" arabic-form="final" d="M30 -1q0 36 10 80t32 97l72 -28q-16 -42 -24 -77t-8 -65q0 -55 27.5 -89.5t74 -50.5t102.5 -16q91 0 142.5 25.5t73 65.5t21.5 85q0 66 -14.5 121.5t-31.5 114.5l81 22q16 -57 22.5 -82.5t10.5 -41.5q11 -37 29 -54.5t41.5 -23t48.5 -5.5q21 0 30.5 -11.5t9.5 -27.5 t-14 -29.5t-36 -13.5q-31 0 -54.5 8.5t-39.5 21.5q-5 -49 -23 -95t-54.5 -82.5t-96.5 -58t-149 -21.5q-75 0 -139.5 25t-104 76.5t-39.5 129.5z" />
<glyph unicode="&#x6bb;" horiz-adv-x="685" arabic-form="isolated" d="M434 5q0 -85 -57 -147t-157 -62q-79 0 -121 38t-58.5 86.5t-16.5 79.5q0 66 39.5 121.5t86.5 85.5q5 -39 -20 -72q16 -7 24.5 -24t4.5 -34q-27 15 -49 13q-29 -3 -42.5 -32t-13.5 -58q0 -52 37.5 -94t123.5 -42q76 0 107 51.5t27 104.5q-3 43 -26.5 81.5t-38.5 56.5 l52 104q37 -46 67.5 -107.5t30.5 -149.5zM134 360v271l50 9v-280h-50zM152 480h142q42 0 57.5 -23t17 -53.5t1.5 -54.5q0 -7 -8 -8l-8 -1h-284l24 50h226q-1 16 -4.5 28t-26.5 12h-137v50z" />
<glyph unicode="&#x6bb;" horiz-adv-x="730" arabic-form="final" d="M30 -1q0 36 10 80t32 97l72 -28q-16 -42 -24 -77t-8 -65q0 -55 27.5 -89.5t74 -50.5t102.5 -16q91 0 142.5 25.5t73 65.5t21.5 85q0 66 -14.5 121.5t-31.5 114.5l81 22q16 -57 22.5 -82.5t10.5 -41.5q11 -37 29 -54.5t41.5 -23t48.5 -5.5q21 0 30.5 -11.5t9.5 -27.5 t-14 -29.5t-36 -13.5q-31 0 -54.5 8.5t-39.5 21.5q-5 -49 -23 -95t-54.5 -82.5t-96.5 -58t-149 -21.5q-75 0 -139.5 25t-104 76.5t-39.5 129.5zM335 426q-18 0 -42.5 1.5t-46.5 3.5l-33 3l2 58q6 -1 13 -1.5t15 -1.5q10 18 22 34l-5 162h55l5 -106q18 13 37.5 20.5t39.5 7.5 q38 0 60 -23t22 -57q0 -20 -11.5 -43.5t-42.5 -40.5t-90 -17zM389 548q-18 0 -35 -11t-31.5 -26t-22.5 -26q16 -1 28 -1q49 0 71 10.5t22 27.5q0 14 -9 20t-23 6z" />
<glyph unicode="&#x6bb;" horiz-adv-x="299" arabic-form="initial" d="M151 535q-18 0 -42.5 1.5t-46.5 3.5l-33 3l2 58q6 -1 13 -1.5t15 -1.5q10 18 22 34l-5 162h55l5 -106q18 13 37.5 20.5t39.5 7.5q38 0 60 -23t22 -57q0 -20 -11.5 -43.5t-42.5 -40.5t-90 -17zM205 657q-18 0 -35 -11t-31.5 -26t-22.5 -26q16 -1 28 -1q49 0 71 10.5 t22 27.5q0 14 -9 20t-23 6zM0 -5l10 82q59 0 92 4.5t47 23t14 58.5q0 38 -17.5 95.5t-39.5 114.5l81 30q13 -32 24.5 -73t19.5 -81t8 -70q0 -100 -56 -142t-183 -42z" />
<glyph unicode="&#x6bb;" horiz-adv-x="343" arabic-form="medial" d="M0 -5l10 82q42 0 66 7.5t36.5 29t21.5 62.5t22 107l78 -15q-6 -27 -13.5 -62t-7.5 -59q0 -20 9 -36t39 -25t92 -9q21 0 30.5 -11.5t9.5 -27.5t-14 -29.5t-36 -13.5q-79 0 -117 17t-52 51q-30 -42 -69 -55t-105 -13zM190 414q-18 0 -42.5 1.5t-46.5 3.5l-33 3l2 58 q6 -1 13 -1.5t15 -1.5q10 18 22 34l-5 162h55l5 -106q18 13 37.5 20.5t39.5 7.5q38 0 60 -23t22 -57q0 -20 -11.5 -43.5t-42.5 -40.5t-90 -17zM244 536q-18 0 -35 -11t-31.5 -26t-22.5 -26q16 -1 28 -1q49 0 71 10.5t22 27.5q0 14 -9 20t-23 6z" />
<glyph unicode="&#x6c0;" horiz-adv-x="405" arabic-form="isolated" d="M322 150l-149 150q26 0 77.5 3.5t71.5 42.5v-196zM124 150q0 -21 14.5 -35.5t35.5 -14.5t35.5 14.5t14.5 35.5t-14.5 35.5t-35.5 14.5t-35.5 -14.5t-14.5 -35.5zM25 150q0 62 43.5 106t104.5 44t105 -44t44 -106t-44 -106t-105 -44t-104.5 44t-43.5 106zM262 500h-26 q-19 0 -40.5 4.5t-21.5 34.5q0 5 3.5 23t28.5 25q14 4 34 -1t26 -8q-10 23 -30 31.5t-33 8.5q-39 0 -58 -19.5t-27 -49.5q-6 -24 -6 -57v-33h151zM279 450l30 50h-240l-30 -50h240z" />
<glyph unicode="&#x6c0;" horiz-adv-x="486" arabic-form="final" d="M486 -5q-65 0 -111.5 22t-65.5 81q-54 -13 -103.5 -10.5t-89.5 19t-63 46t-23 70.5q0 54 34 98.5t92 75.5t128 43l-3 76h81l16 -330q3 -47 17 -70.5t39.5 -31t61.5 -7.5q21 0 30.5 -11.5t9.5 -27.5t-14 -29.5t-36 -13.5zM109 236q0 -23 18.5 -38t47.5 -22t61.5 -7t60.5 5 l-9 183q-57 -6 -97 -25.5t-61 -45t-21 -50.5zM202 110h-26q-19 0 -40.5 4.5t-21.5 34.5q0 5 3.5 23t28.5 25q14 4 34 -1t26 -8q-10 23 -30 31.5t-33 8.5q-39 0 -58 -19.5t-27 -49.5q-6 -24 -6 -57v-33h151zM219 60l30 50h-240l-30 -50h240z" />
<glyph unicode="&#x6c1;" horiz-adv-x="405" arabic-form="isolated" d="M322 150l-149 150q26 0 77.5 3.5t71.5 42.5v-196zM124 150q0 -21 14.5 -35.5t35.5 -14.5t35.5 14.5t14.5 35.5t-14.5 35.5t-35.5 14.5t-35.5 -14.5t-14.5 -35.5zM25 150q0 62 43.5 106t104.5 44t105 -44t44 -106t-44 -106t-105 -44t-104.5 44t-43.5 106zM222 467v311 l100 22v-285zM222 320v127l100 48v-121q-14 -26 -43 -39t-57 -15z" />
<glyph unicode="&#x6c1;" horiz-adv-x="479" arabic-form="final" d="M479 -5q-57 0 -91.5 17t-56 47.5t-37.5 72.5t-34 91q-4 13 -19 18t-32 5q-26 0 -51.5 -11t-42 -33t-16.5 -54q0 -28 8.5 -53.5t19.5 -57.5l-72 -20q-13 35 -24 65.5t-11 73.5q0 55 31 93.5t78 58.5t94 20q17 0 36.5 -3t36 -14.5t24.5 -36.5q16 -45 28.5 -81.5t28.5 -62.5 t42.5 -39.5t69.5 -13.5q21 0 30.5 -11.5t9.5 -27.5t-14 -29.5t-36 -13.5z" />
<glyph unicode="&#x6c1;" horiz-adv-x="269" arabic-form="initial" d="M0 -5l10 82q49 0 78 6t42 24.5t13 55.5q0 38 -17.5 95.5t-39.5 114.5l81 30q13 -32 24.5 -73t19.5 -81t8 -70q0 -100 -53.5 -142t-165.5 -42zM136 -27l26 -26q-43 -24 -44 -61h3q18 0 30 -8.5t12 -24.5q0 -13 -10 -27t-33 -14q-19 0 -32.5 14t-13.5 42q0 25 14.5 57 t47.5 48z" />
<glyph unicode="&#x6c1;" horiz-adv-x="438" arabic-form="medial" d="M251 -269q-46 32 -76.5 83t-47 108.5t-20.5 106.5q-30 -34 -107 -34l9 82q16 0 36.5 3.5t41 19.5t35.5 56l67 -17q-14 -53 -11 -107.5t21 -103t48 -83.5q0 70 18.5 122t62.5 81t120 29q20 0 30 -11.5t10 -27.5t-13.5 -29.5t-34.5 -13.5q-55 0 -83 -22.5t-37.5 -69 t-9.5 -118.5z" />
<glyph unicode="&#x6be;" horiz-adv-x="672" arabic-form="isolated" d="M111 150v-200h-14v200h14zM195 -50q0 -21 14.5 -35.5t35.5 -14.5t35.5 14.5t14.5 35.5t-14.5 35.5t-35.5 14.5t-35.5 -14.5t-14.5 -35.5zM97 -50q0 62 43.5 106t104.5 44t105 -44t44 -106t-44 -106t-105 -44t-104.5 44t-43.5 106zM-20 100h200l65 -100h-265v100zM394 150 v-200h-44v200h44zM394 150l-149 150q26 0 77.5 3.5t71.5 42.5v-196zM195 150q0 -21 14.5 -35.5t35.5 -14.5t35.5 14.5t14.5 35.5t-14.5 35.5t-35.5 14.5t-35.5 -14.5t-14.5 -35.5zM97 150q0 62 43.5 106t104.5 44t105 -44t44 -106t-44 -106t-105 -44t-104.5 44t-43.5 106z " />
<glyph unicode="&#x6be;" horiz-adv-x="614" arabic-form="final" d="M152 -5q-38 0 -71 8t-66 23l23 67q34 -11 65 -15.5t65 -4.5h22q3 76 22.5 139t49.5 108.5t65.5 70.5t71.5 25q49 0 84 -43t35 -122q0 -37 -14 -78.5t-53 -74.5q40 -9 82.5 -15t90.5 -6q21 0 30.5 -11.5t9.5 -27.5t-14 -29.5t-36 -13.5q-34 0 -77 5q23 -34 25.5 -71.5 t-14 -70.5t-50 -54t-84.5 -21q-86 0 -148 53t-74 161q-21 -2 -40 -2zM392 334q-20 0 -47 -32t-49 -88.5t-26 -129.5q48 7 85.5 24.5t59 49.5t21.5 84q0 21 -4.5 42t-14.5 35.5t-25 14.5zM416 -135q26 0 51 15t25 55q0 25 -12.5 45.5t-43.5 33.5t-88 13q-17 0 -36 -2.5 t-40 -6.5q6 -50 22 -80t37.5 -46t43.5 -21.5t41 -5.5z" />
<glyph unicode="&#x6be;" horiz-adv-x="574" arabic-form="initial" d="M385 -8q-87 0 -170 46q-48 -21 -103.5 -32t-111.5 -11l10 82q39 0 72 4t60 12q-28 29 -45.5 65.5t-17.5 79.5q0 57 30.5 103t82.5 60q-23 18 -49 36l47 62q96 -70 158.5 -123.5t99 -93t54 -69t22.5 -52t5 -42.5q0 -33 -14.5 -62t-46 -47t-83.5 -18zM154 248q0 -38 19 -69 t48 -54q45 28 62.5 63t17.5 62q0 32 -18.5 58.5t-51.5 26.5q-34 0 -55.5 -27t-21.5 -60zM375 238q0 -46 -21.5 -84.5t-57.5 -67.5q44 -15 85 -15q34 0 50 11.5t16 38.5q0 6 -2.5 20t-17.5 39.5t-52 64.5v-7z" />
<glyph unicode="&#x6be;" horiz-adv-x="507" arabic-form="medial" d="M0 -5l10 82h37t36 1q4 75 24 137t51 107t67 69.5t71 24.5q49 0 82 -41.5t33 -111.5q0 -44 -14 -87.5t-53 -76.5q40 -10 82.5 -16t90.5 -6q21 0 30.5 -11.5t9.5 -27.5t-14 -29.5t-36 -13.5q-34 0 -77 5q23 -34 25.5 -71.5t-14 -70.5t-50 -54t-84.5 -21q-87 0 -149.5 54.5 t-73.5 164.5q-20 -3 -41.5 -5t-42.5 -2zM289 334q-20 0 -48 -32t-51 -88t-27 -130q48 7 85.5 24.5t59 52t21.5 93.5q0 15 -3.5 34t-12.5 32.5t-24 13.5zM309 -135q26 0 51 15t25 55q0 25 -12.5 45.5t-43.5 33.5t-88 13q-16 0 -35.5 -2.5t-39.5 -7.5q5 -49 21 -79t37.5 -46 t43.5 -21.5t41 -5.5z" />
<glyph unicode="&#x6d2;" horiz-adv-x="942" arabic-form="isolated" d="M372 -100h-195q-18 0 -38 10t-30 30l-84 -140h405zM525 0h175l-84 140q-10 -20 -30 -30t-38 -10h-53zM507 -200l-258 452q-28 49 -19.5 93.5t45.5 64.5l237 -410h115l-339 591q0 -39 -17 -57t-48 -41q-61 -45 -92 -114t31 -176l231 -403h114z" />
<glyph unicode="&#x6d2;" horiz-adv-x="549" arabic-form="final" d="M439 -298q-225 0 -332 40t-107 118q0 55 61.5 104.5t186 81t311.5 31.5q21 0 30.5 -11.5t9.5 -27.5t-14 -29.5t-36 -13.5q-100 0 -185 -11t-148.5 -29t-99 -40.5t-35.5 -46.5q0 -35 88 -59.5t271 -24.5q154 0 267 12t168 22l-14 -78q-27 -7 -73 -14t-104 -12.5t-121 -8.5 t-124 -3z" />
<glyph unicode="&#x6d3;" horiz-adv-x="942" arabic-form="isolated" d="M372 -100h-195q-18 0 -38 10t-30 30l-84 -140h405zM525 0h175l-84 140q-10 -20 -30 -30t-38 -10h-53zM507 -200l-258 452q-28 49 -19.5 93.5t45.5 64.5l237 -410h115l-339 591q0 -39 -17 -57t-48 -41q-61 -45 -92 -114t31 -176l231 -403h114zM188 50h-26q-19 0 -40.5 4.5 t-21.5 34.5q0 5 3.5 23t28.5 25q14 4 34 -1t26 -8q-10 23 -30 31.5t-33 8.5q-39 0 -58 -19.5t-27 -49.5q-6 -24 -6 -57v-33h151zM205 0l30 50h-240l-30 -50h240z" />
<glyph unicode="&#x6d3;" horiz-adv-x="549" arabic-form="final" d="M439 -298q-225 0 -332 40t-107 118q0 55 61.5 104.5t186 81t311.5 31.5q21 0 30.5 -11.5t9.5 -27.5t-14 -29.5t-36 -13.5q-100 0 -185 -11t-148.5 -29t-99 -40.5t-35.5 -46.5q0 -35 88 -59.5t271 -24.5q154 0 267 12t168 22l-14 -78q-27 -7 -73 -14t-104 -12.5t-121 -8.5 t-124 -3zM154 -379h-26q-19 0 -40.5 4.5t-21.5 34.5q0 5 3.5 23t28.5 25q14 4 34 -1t26 -8q-10 23 -30 31.5t-33 8.5q-39 0 -58 -19.5t-27 -49.5q-6 -24 -6 -57v-33h151zM171 -429l30 50h-240l-30 -50h240z" />
<glyph unicode="&#x6ad;" horiz-adv-x="882" arabic-form="isolated" d="M586 431q-11 20 -26 5l-229 -225l-77 78l332 327v-185zM265 300h530q103 0 142 -44t43.5 -108.5t4.5 -124.5q0 -19 -20 -21l-20 -2h-920l60 100h800q1 42 -16.5 71t-73.5 29h-630zM469 741q-21 0 -35.5 14.5t-14.5 34.5t14.5 35t35.5 15q20 0 34.5 -15t14.5 -35 t-14.5 -34.5t-34.5 -14.5zM401 631q-21 0 -35.5 14.5t-14.5 34.5t14.5 35t35.5 15q20 0 34.5 -15t14.5 -35t-14.5 -34.5t-34.5 -14.5zM537 631q-21 0 -35.5 14.5t-14.5 34.5t14.5 35t35.5 15q20 0 34.5 -15t14.5 -35t-14.5 -34.5t-34.5 -14.5z" />
<glyph unicode="&#x6ad;" horiz-adv-x="922" arabic-form="final" d="M390 -21q-178 0 -269 47t-91 156q0 37 9 78.5t19 78.5l75 -19q-6 -22 -13.5 -55.5t-7.5 -59.5q0 -52 26.5 -83.5t92.5 -46t185 -14.5q98 0 162 7.5t99.5 24t49.5 43t12 64.5l-19 514h81l20 -505q2 -51 16.5 -80t39.5 -40.5t55 -11.5q21 0 30.5 -11.5t9.5 -27.5t-14 -29.5 t-36 -13.5q-60 0 -91.5 23t-43.5 54q-45 -51 -140 -72t-257 -21zM364 204l-19 63q63 17 90 27.5t27 22.5q0 11 -11.5 20.5t-26 20t-26 24.5t-11.5 34q0 26 25 57t99 67l31 -57q-46 -22 -67.5 -37.5t-21.5 -27.5q0 -9 11.5 -19t26 -22t26 -27.5t11.5 -36.5q0 -19 -12 -36.5 t-47 -35.5t-105 -37zM469 741q-21 0 -35.5 14.5t-14.5 34.5t14.5 35t35.5 15q20 0 34.5 -15t14.5 -35t-14.5 -34.5t-34.5 -14.5zM401 631q-21 0 -35.5 14.5t-14.5 34.5t14.5 35t35.5 15q20 0 34.5 -15t14.5 -35t-14.5 -34.5t-34.5 -14.5zM537 631q-21 0 -35.5 14.5 t-14.5 34.5t14.5 35t35.5 15q20 0 34.5 -15t14.5 -35t-14.5 -34.5t-34.5 -14.5z" />
<glyph unicode="&#x6ad;" horiz-adv-x="412" arabic-form="initial" d="M157 796q-21 0 -35.5 14.5t-14.5 34.5t14.5 35t35.5 15q20 0 34.5 -15t14.5 -35t-14.5 -34.5t-34.5 -14.5zM262 722q-21 0 -35.5 14.5t-14.5 34.5t14.5 35t35.5 15q20 0 34.5 -15t14.5 -35t-14.5 -34.5t-34.5 -14.5zM147 671q-21 0 -35.5 14.5t-14.5 34.5t14.5 35 t35.5 15q20 0 34.5 -15t14.5 -35t-14.5 -34.5t-34.5 -14.5zM0 -5l10 82h94q59 0 93.5 6.5t51 17t22 23t5.5 25.5q0 23 -17.5 57t-71.5 88q-37 38 -74 67t-61 49t-24 29q0 23 5.5 43t15.5 31q40 43 125.5 86.5t213.5 107.5l34 -74q-91 -44 -148.5 -72.5t-95 -50t-69.5 -43.5 q117 -95 179.5 -170.5t62.5 -152.5q0 -22 -8 -48t-34 -49t-78 -37.5t-140 -14.5h-91z" />
<glyph unicode="&#x6ad;" horiz-adv-x="508" arabic-form="medial" d="M125 796q-21 0 -35.5 14.5t-14.5 34.5t14.5 35t35.5 15q20 0 34.5 -15t14.5 -35t-14.5 -34.5t-34.5 -14.5zM230 722q-21 0 -35.5 14.5t-14.5 34.5t14.5 35t35.5 15q20 0 34.5 -15t14.5 -35t-14.5 -34.5t-34.5 -14.5zM115 671q-21 0 -35.5 14.5t-14.5 34.5t14.5 35 t35.5 15q20 0 34.5 -15t14.5 -35t-14.5 -34.5t-34.5 -14.5zM0 -5l10 82h77q83 0 123 9t52.5 24t12.5 31q0 24 -18 53t-46 59.5t-59.5 60.5t-59.5 55t-46 43.5t-18 26.5q0 23 5.5 43t15.5 31q27 29 79.5 60.5t120.5 65t139 68.5l34 -74q-88 -44 -172.5 -85t-147.5 -85 q55 -47 103 -91t89 -94.5t75 -114.5q21 -39 49 -57t55.5 -23.5t44.5 -5.5q21 0 30.5 -11.5t9.5 -27.5t-14 -29.5t-36 -13.5q-24 0 -55.5 6.5t-63.5 25t-56 54.5q-20 -29 -50 -48t-78 -28.5t-122 -9.5h-83z" />
<glyph unicode="&#x6c7;" horiz-adv-x="447" arabic-form="isolated" d="M322 -42q0 -66 -34.5 -102t-83.5 -44.5t-95.5 6.5t-71.5 50q77 -20 116.5 -10.5t54 36t14.5 54.5v180l100 22v-192zM322 150l-149 150q26 0 77.5 3.5t71.5 42.5v-196zM124 150q0 -21 14.5 -35.5t35.5 -14.5t35.5 14.5t14.5 35.5t-14.5 35.5t-35.5 14.5t-35.5 -14.5 t-14.5 -35.5zM25 150q0 62 43.5 106t104.5 44t105 -44t44 -106t-44 -106t-105 -44t-104.5 44t-43.5 106z" />
<glyph unicode="&#x6c7;" horiz-adv-x="472" arabic-form="final" d="M58 -230l-18 82q62 8 113.5 23.5t88.5 43.5t55 76h-64q-45 0 -83.5 13t-62 40.5t-23.5 72.5q0 56 22 105t60.5 80t85.5 31q69 0 114.5 -60.5t45.5 -185.5v-14h90q21 0 30.5 -11.5t9.5 -27.5t-14 -29.5t-36 -13.5h-92q-51 -194 -322 -225zM271 77h42q1 10 1 20 q0 68 -25 113t-65 45q-21 0 -39 -16t-29.5 -43t-11.5 -59q0 -35 31.5 -47.5t95.5 -12.5z" />
<glyph unicode="&#x6c6;" horiz-adv-x="447" arabic-form="isolated" d="M322 -42q0 -66 -34.5 -102t-83.5 -44.5t-95.5 6.5t-71.5 50q77 -20 116.5 -10.5t54 36t14.5 54.5v180l100 22v-192zM322 150l-149 150q26 0 77.5 3.5t71.5 42.5v-196zM124 150q0 -21 14.5 -35.5t35.5 -14.5t35.5 14.5t14.5 35.5t-14.5 35.5t-35.5 14.5t-35.5 -14.5 t-14.5 -35.5zM25 150q0 62 43.5 106t104.5 44t105 -44t44 -106t-44 -106t-105 -44t-104.5 44t-43.5 106zM204 471q-9 20 -25 53.5t-32.5 67t-29.5 54.5l46 25q7 -12 20 -36.5t27.5 -52t24.5 -49.5q11 26 24 55.5t24 53t16 31.5l45 -19q-5 -10 -16 -32.5t-23.5 -50t-24 -53 t-17.5 -41.5z" />
<glyph unicode="&#x6c6;" horiz-adv-x="472" arabic-form="final" d="M58 -230l-18 82q62 8 113.5 23.5t88.5 43.5t55 76h-64q-45 0 -83.5 13t-62 40.5t-23.5 72.5q0 56 22 105t60.5 80t85.5 31q69 0 114.5 -60.5t45.5 -185.5v-14h90q21 0 30.5 -11.5t9.5 -27.5t-14 -29.5t-36 -13.5h-92q-51 -194 -322 -225zM271 77h42q1 10 1 20 q0 68 -25 113t-65 45q-21 0 -39 -16t-29.5 -43t-11.5 -59q0 -35 31.5 -47.5t95.5 -12.5zM204 465q-9 20 -25 53.5t-32.5 67t-29.5 54.5l46 25q7 -12 20 -36.5t27.5 -52t24.5 -49.5q11 26 24 55.5t24 53t16 31.5l45 -19q-5 -10 -16 -32.5t-23.5 -50t-24 -53t-17.5 -41.5z" />
<glyph unicode="&#x6c8;" horiz-adv-x="447" arabic-form="isolated" d="M322 -42q0 -66 -34.5 -102t-83.5 -44.5t-95.5 6.5t-71.5 50q77 -20 116.5 -10.5t54 36t14.5 54.5v180l100 22v-192zM322 150l-149 150q26 0 77.5 3.5t71.5 42.5v-196zM124 150q0 -21 14.5 -35.5t35.5 -14.5t35.5 14.5t14.5 35.5t-14.5 35.5t-35.5 14.5t-35.5 -14.5 t-14.5 -35.5zM25 150q0 62 43.5 106t104.5 44t105 -44t44 -106t-44 -106t-105 -44t-104.5 44t-43.5 106zM205 480l-6 173h55l6 -173h-55z" />
<glyph unicode="&#x6c8;" horiz-adv-x="472" arabic-form="final" d="M58 -230l-18 82q62 8 113.5 23.5t88.5 43.5t55 76h-64q-45 0 -83.5 13t-62 40.5t-23.5 72.5q0 56 22 105t60.5 80t85.5 31q69 0 114.5 -60.5t45.5 -185.5v-14h90q21 0 30.5 -11.5t9.5 -27.5t-14 -29.5t-36 -13.5h-92q-51 -194 -322 -225zM271 77h42q1 10 1 20 q0 68 -25 113t-65 45q-21 0 -39 -16t-29.5 -43t-11.5 -59q0 -35 31.5 -47.5t95.5 -12.5zM205 474l-6 173h55l6 -173h-55z" />
<glyph unicode="&#x677;" horiz-adv-x="597" arabic-form="isolated" d="M383 -42q0 -66 -34.5 -102t-83.5 -44.5t-95.5 6.5t-71.5 50q77 -20 116.5 -10.5t54 36t14.5 54.5v180l100 22v-192zM383 150l-149 150q26 0 77.5 3.5t71.5 42.5v-196zM185 150q0 -21 14.5 -35.5t35.5 -14.5t35.5 14.5t14.5 35.5t-14.5 35.5t-35.5 14.5t-35.5 -14.5 t-14.5 -35.5zM86 150q0 62 43.5 106t104.5 44t105 -44t44 -106t-44 -106t-105 -44t-104.5 44t-43.5 106zM408 -141h-26q-19 0 -40.5 4.5t-21.5 34.5q0 5 3.5 23t28.5 25q14 4 34 -1t26 -8q-10 23 -30 31.5t-33 8.5q-39 0 -58 -19.5t-27 -49.5q-6 -24 -6 -57v-33h151z M425 -191l30 50h-240l-30 -50h240z" />
<glyph unicode="&#x6cb;" horiz-adv-x="447" arabic-form="isolated" d="M322 -42q0 -66 -34.5 -102t-83.5 -44.5t-95.5 6.5t-71.5 50q77 -20 116.5 -10.5t54 36t14.5 54.5v180l100 22v-192zM322 150l-149 150q26 0 77.5 3.5t71.5 42.5v-196zM124 150q0 -21 14.5 -35.5t35.5 -14.5t35.5 14.5t14.5 35.5t-14.5 35.5t-35.5 14.5t-35.5 -14.5 t-14.5 -35.5zM25 150q0 62 43.5 106t104.5 44t105 -44t44 -106t-44 -106t-105 -44t-104.5 44t-43.5 106zM235 550q-21 0 -35.5 14.5t-14.5 34.5t14.5 35t35.5 15q20 0 34.5 -15t14.5 -35t-14.5 -34.5t-34.5 -14.5zM167 440q-21 0 -35.5 14.5t-14.5 34.5t14.5 35t35.5 15 q20 0 34.5 -15t14.5 -35t-14.5 -34.5t-34.5 -14.5zM303 440q-21 0 -35.5 14.5t-14.5 34.5t14.5 35t35.5 15q20 0 34.5 -15t14.5 -35t-14.5 -34.5t-34.5 -14.5z" />
<glyph unicode="&#x6cb;" horiz-adv-x="472" arabic-form="final" d="M58 -230l-18 82q62 8 113.5 23.5t88.5 43.5t55 76h-64q-45 0 -83.5 13t-62 40.5t-23.5 72.5q0 56 22 105t60.5 80t85.5 31q69 0 114.5 -60.5t45.5 -185.5v-14h90q21 0 30.5 -11.5t9.5 -27.5t-14 -29.5t-36 -13.5h-92q-51 -194 -322 -225zM271 77h42q1 10 1 20 q0 68 -25 113t-65 45q-21 0 -39 -16t-29.5 -43t-11.5 -59q0 -35 31.5 -47.5t95.5 -12.5zM235 544q-21 0 -35.5 14.5t-14.5 34.5t14.5 35t35.5 15q20 0 34.5 -15t14.5 -35t-14.5 -34.5t-34.5 -14.5zM167 434q-21 0 -35.5 14.5t-14.5 34.5t14.5 35t35.5 15q20 0 34.5 -15 t14.5 -35t-14.5 -34.5t-34.5 -14.5zM303 434q-21 0 -35.5 14.5t-14.5 34.5t14.5 35t35.5 15q20 0 34.5 -15t14.5 -35t-14.5 -34.5t-34.5 -14.5z" />
<glyph unicode="&#x6c5;" horiz-adv-x="447" arabic-form="isolated" d="M56 -103v59h229q11 21 18 47q-19 -6 -39.5 -8.5t-40.5 -2.5q-76 0 -117.5 31.5t-41.5 95.5q0 38 12 76.5t34 70.5t53 51.5t69 19.5q54 0 89.5 -35t53 -91.5t17.5 -119.5q0 -151 -84 -236.5t-238 -85.5h-12t-12 1l-6 78q59 2 108 12.5t85 36.5h-177zM143 139 q0 -31 20 -49.5t69 -18.5q43 0 82 12v14q0 42 -11 78t-31 58t-48 22q-23 0 -41.5 -17.5t-29 -44.5t-10.5 -54z" />
<glyph unicode="&#x6c5;" horiz-adv-x="472" arabic-form="final" d="M72 -103v59h223q7 18 12 39h-74q-45 0 -83.5 13t-62 40.5t-23.5 72.5q0 38 13 75t35.5 67.5t53 49t66.5 18.5q67 0 114 -61t50 -193h86q21 0 30.5 -11.5t9.5 -27.5t-14 -29.5t-36 -13.5h-81q-13 -83 -57.5 -132.5t-112.5 -72t-151 -22.5h-12t-12 1l-6 79q72 2 125 12 t87 37h-180zM271 77h43q0 83 -26 128t-64 45q-21 0 -39 -16t-29.5 -42t-11.5 -55q0 -35 31.5 -47.5t95.5 -12.5z" />
<glyph unicode="&#x6c9;" horiz-adv-x="447" arabic-form="isolated" d="M322 -42q0 -66 -34.5 -102t-83.5 -44.5t-95.5 6.5t-71.5 50q77 -20 116.5 -10.5t54 36t14.5 54.5v180l100 22v-192zM322 150l-149 150q26 0 77.5 3.5t71.5 42.5v-196zM124 150q0 -21 14.5 -35.5t35.5 -14.5t35.5 14.5t14.5 35.5t-14.5 35.5t-35.5 14.5t-35.5 -14.5 t-14.5 -35.5zM25 150q0 62 43.5 106t104.5 44t105 -44t44 -106t-44 -106t-105 -44t-104.5 44t-43.5 106zM198 659l59 6q9 -20 25 -53.5t33 -67t29 -54.5l-46 -25q-7 12 -20 36.5t-27.5 52t-24.5 49.5q-11 -26 -24 -55.5t-24 -53t-16 -31.5l-45 19q5 10 16 32.5t24 50t24 53 t17 41.5z" />
<glyph unicode="&#x6c9;" horiz-adv-x="472" arabic-form="final" d="M58 -230l-18 82q62 8 113.5 23.5t88.5 43.5t55 76h-64q-45 0 -83.5 13t-62 40.5t-23.5 72.5q0 56 22 105t60.5 80t85.5 31q69 0 114.5 -60.5t45.5 -185.5v-14h90q21 0 30.5 -11.5t9.5 -27.5t-14 -29.5t-36 -13.5h-92q-51 -194 -322 -225zM271 77h42q1 10 1 20 q0 68 -25 113t-65 45q-21 0 -39 -16t-29.5 -43t-11.5 -59q0 -35 31.5 -47.5t95.5 -12.5zM198 653l59 6q9 -20 25 -53.5t33 -67t29 -54.5l-46 -25q-7 12 -20 36.5t-27.5 52t-24.5 49.5q-11 -26 -24 -55.5t-24 -53t-16 -31.5l-45 19q5 10 16 32.5t24 50t24 53t17 41.5z" />
<glyph unicode="&#x6d0;" horiz-adv-x="760" arabic-form="isolated" d="M372 -100h-195q-18 0 -38 10t-30 30l-84 -140h405zM525 0h175l-84 140q-10 -20 -30 -30t-38 -10h-53zM507 -200l-258 452q-28 49 -19.5 93.5t45.5 64.5l237 -410h115l-339 591q0 -39 -17 -57t-48 -41q-61 -45 -92 -114t31 -176l231 -403h114zM356 -419q-21 0 -35.5 14.5 t-14.5 34.5t14.5 35t35.5 15q20 0 34.5 -15t14.5 -35t-14.5 -34.5t-34.5 -14.5zM357 -548q-21 0 -35.5 14.5t-14.5 34.5t14.5 35t35.5 15q20 0 34.5 -15t14.5 -35t-14.5 -34.5t-34.5 -14.5z" />
<glyph unicode="&#x6d0;" horiz-adv-x="736" arabic-form="final" d="M30 -1q0 36 10 80t32 97l72 -28q-16 -42 -24 -77t-8 -65q0 -55 32.5 -90t86 -51t117.5 -16q77 0 140.5 18t101.5 47.5t38 65.5q0 26 -40 45t-112 39l19 83q104 -40 162 -55t89 -15q21 0 30.5 -11.5t9.5 -27.5t-14 -29.5t-36 -13.5h-37q2 -9 3 -14.5t1 -14.5 q0 -49 -45 -94.5t-129.5 -74.5t-202.5 -29q-79 0 -146.5 25.5t-108.5 76.5t-41 129zM326 -419q-21 0 -35.5 14.5t-14.5 34.5t14.5 35t35.5 15q20 0 34.5 -15t14.5 -35t-14.5 -34.5t-34.5 -14.5zM327 -548q-21 0 -35.5 14.5t-14.5 34.5t14.5 35t35.5 15q20 0 34.5 -15 t14.5 -35t-14.5 -34.5t-34.5 -14.5z" />
<glyph unicode="&#x6d0;" horiz-adv-x="269" arabic-form="initial" d="M0 -5l10 82q49 0 78 6t42 24.5t13 55.5q0 38 -17.5 95.5t-39.5 114.5l81 30q13 -32 24.5 -73t19.5 -81t8 -70q0 -100 -53.5 -142t-165.5 -42zM107 -192q-21 0 -35.5 14.5t-14.5 34.5t14.5 35t35.5 15q20 0 34.5 -15t14.5 -35t-14.5 -34.5t-34.5 -14.5zM108 -321 q-21 0 -35.5 14.5t-14.5 34.5t14.5 35t35.5 15q20 0 34.5 -15t14.5 -35t-14.5 -34.5t-34.5 -14.5z" />
<glyph unicode="&#x6d0;" horiz-adv-x="343" arabic-form="medial" d="M0 -5l10 82q42 0 66 7.5t36.5 29t21.5 62.5t22 107l78 -15q-6 -27 -13.5 -62t-7.5 -59q0 -20 9 -36t39 -25t92 -9q21 0 30.5 -11.5t9.5 -27.5t-14 -29.5t-36 -13.5q-79 0 -117 17t-52 51q-30 -42 -69 -55t-105 -13zM170 -192q-21 0 -35.5 14.5t-14.5 34.5t14.5 35 t35.5 15q20 0 34.5 -15t14.5 -35t-14.5 -34.5t-34.5 -14.5zM171 -321q-21 0 -35.5 14.5t-14.5 34.5t14.5 35t35.5 15q20 0 34.5 -15t14.5 -35t-14.5 -34.5t-34.5 -14.5z" />
<glyph unicode="&#x649;" horiz-adv-x="269" arabic-form="initial" d="M0 -5l10 82q49 0 78 6t42 24.5t13 55.5q0 38 -17.5 95.5t-39.5 114.5l81 30q13 -32 24.5 -73t19.5 -81t8 -70q0 -100 -53.5 -142t-165.5 -42z" />
<glyph unicode="&#x649;" horiz-adv-x="343" arabic-form="medial" d="M0 -5l10 82q42 0 66 7.5t36.5 29t21.5 62.5t22 107l78 -15q-6 -27 -13.5 -62t-7.5 -59q0 -20 9 -36t39 -25t92 -9q21 0 30.5 -11.5t9.5 -27.5t-14 -29.5t-36 -13.5q-79 0 -117 17t-52 51q-30 -42 -69 -55t-105 -13z" />
<glyph unicode="&#xfbea;" horiz-adv-x="560" arabic-form="isolated" d="M291 -5l10 82q49 0 78 6t42 24.5t13 55.5q0 38 -17.5 95.5t-39.5 114.5l81 30q13 -32 24.5 -73t19.5 -81t8 -70q0 -100 -53.5 -142t-165.5 -42zM377 -14h-26q-19 0 -40.5 4.5t-21.5 34.5q0 5 3.5 23t28.5 25q14 4 34 -1t26 -8q-10 23 -30 31.5t-33 8.5q-39 0 -58 -19.5 t-27 -49.5q-6 -24 -6 -57v-33h151zM394 -64l30 50h-240l-30 -50h240zM291 -5q-80 0 -122.5 18t-58.5 56t-18 98l-20 547h82l20 -515q2 -49 9.5 -75.5t34 -36.5t83.5 -10q21 0 30.5 -11.5t9.5 -27.5t-14 -29.5t-36 -13.5z" />
<glyph unicode="&#xfbeb;" horiz-adv-x="634" arabic-form="final" d="M291 -5l10 82q42 0 66 7.5t36.5 29t21.5 62.5t22 107l78 -15q-6 -27 -13.5 -62t-7.5 -59q0 -20 9 -36t39 -25t92 -9q21 0 30.5 -11.5t9.5 -27.5t-14 -29.5t-36 -13.5q-79 0 -117 17t-52 51q-30 -42 -69 -55t-105 -13zM436 -135h-26q-19 0 -40.5 4.5t-21.5 34.5 q0 5 3.5 23t28.5 25q14 4 34 -1t26 -8q-10 23 -30 31.5t-33 8.5q-39 0 -58 -19.5t-27 -49.5q-6 -24 -6 -57v-33h151zM453 -185l30 50h-240l-30 -50h240zM291 -5q-80 0 -122.5 18t-58.5 56t-18 98l-20 547h82l20 -515q2 -49 9.5 -75.5t34 -36.5t83.5 -10q21 0 30.5 -11.5 t9.5 -27.5t-14 -29.5t-36 -13.5z" />
<glyph unicode="&#xfbec;" horiz-adv-x="755" arabic-form="isolated" d="M486 -5l10 82q49 0 78 6t42 24.5t13 55.5q0 38 -17.5 95.5t-39.5 114.5l81 30q13 -32 24.5 -73t19.5 -81t8 -70q0 -100 -53.5 -142t-165.5 -42zM572 -14h-26q-19 0 -40.5 4.5t-21.5 34.5q0 5 3.5 23t28.5 25q14 4 34 -1t26 -8q-10 23 -30 31.5t-33 8.5q-39 0 -58 -19.5 t-27 -49.5q-6 -24 -6 -57v-33h151zM589 -64l30 50h-240l-30 -50h240zM486 -5q-65 0 -111.5 22t-65.5 81q-54 -13 -103.5 -10.5t-89.5 19t-63 46t-23 70.5q0 54 34 98.5t92 75.5t128 43l-3 76h81l16 -330q3 -47 17 -70.5t39.5 -31t61.5 -7.5q21 0 30.5 -11.5t9.5 -27.5 t-14 -29.5t-36 -13.5zM109 236q0 -23 18.5 -38t47.5 -22t61.5 -7t60.5 5l-9 183q-57 -6 -97 -25.5t-61 -45t-21 -50.5z" />
<glyph unicode="&#xfbed;" horiz-adv-x="829" arabic-form="final" d="M486 -5l10 82q42 0 66 7.5t36.5 29t21.5 62.5t22 107l78 -15q-6 -27 -13.5 -62t-7.5 -59q0 -20 9 -36t39 -25t92 -9q21 0 30.5 -11.5t9.5 -27.5t-14 -29.5t-36 -13.5q-79 0 -117 17t-52 51q-30 -42 -69 -55t-105 -13zM631 -135h-26q-19 0 -40.5 4.5t-21.5 34.5 q0 5 3.5 23t28.5 25q14 4 34 -1t26 -8q-10 23 -30 31.5t-33 8.5q-39 0 -58 -19.5t-27 -49.5q-6 -24 -6 -57v-33h151zM648 -185l30 50h-240l-30 -50h240zM486 -5q-65 0 -111.5 22t-65.5 81q-54 -13 -103.5 -10.5t-89.5 19t-63 46t-23 70.5q0 54 34 98.5t92 75.5t128 43l-3 76 h81l16 -330q3 -47 17 -70.5t39.5 -31t61.5 -7.5q21 0 30.5 -11.5t9.5 -27.5t-14 -29.5t-36 -13.5zM109 236q0 -23 18.5 -38t47.5 -22t61.5 -7t60.5 5l-9 183q-57 -6 -97 -25.5t-61 -45t-21 -50.5z" />
<glyph unicode="&#xfbee;" horiz-adv-x="741" arabic-form="isolated" d="M472 -5l10 82q49 0 78 6t42 24.5t13 55.5q0 38 -17.5 95.5t-39.5 114.5l81 30q13 -32 24.5 -73t19.5 -81t8 -70q0 -100 -53.5 -142t-165.5 -42zM558 -14h-26q-19 0 -40.5 4.5t-21.5 34.5q0 5 3.5 23t28.5 25q14 4 34 -1t26 -8q-10 23 -30 31.5t-33 8.5q-39 0 -58 -19.5 t-27 -49.5q-6 -24 -6 -57v-33h151zM575 -64l30 50h-240l-30 -50h240zM58 -230l-18 82q62 8 113.5 23.5t88.5 43.5t55 76h-64q-45 0 -83.5 13t-62 40.5t-23.5 72.5q0 56 22 105t60.5 80t85.5 31q69 0 114.5 -60.5t45.5 -185.5v-14h90q21 0 30.5 -11.5t9.5 -27.5t-14 -29.5 t-36 -13.5h-92q-51 -194 -322 -225zM271 77h42q1 10 1 20q0 68 -25 113t-65 45q-21 0 -39 -16t-29.5 -43t-11.5 -59q0 -35 31.5 -47.5t95.5 -12.5z" />
<glyph unicode="&#xfbef;" horiz-adv-x="815" arabic-form="final" d="M472 -5l10 82q42 0 66 7.5t36.5 29t21.5 62.5t22 107l78 -15q-6 -27 -13.5 -62t-7.5 -59q0 -20 9 -36t39 -25t92 -9q21 0 30.5 -11.5t9.5 -27.5t-14 -29.5t-36 -13.5q-79 0 -117 17t-52 51q-30 -42 -69 -55t-105 -13zM617 -135h-26q-19 0 -40.5 4.5t-21.5 34.5 q0 5 3.5 23t28.5 25q14 4 34 -1t26 -8q-10 23 -30 31.5t-33 8.5q-39 0 -58 -19.5t-27 -49.5q-6 -24 -6 -57v-33h151zM634 -185l30 50h-240l-30 -50h240zM58 -230l-18 82q62 8 113.5 23.5t88.5 43.5t55 76h-64q-45 0 -83.5 13t-62 40.5t-23.5 72.5q0 56 22 105t60.5 80 t85.5 31q69 0 114.5 -60.5t45.5 -185.5v-14h90q21 0 30.5 -11.5t9.5 -27.5t-14 -29.5t-36 -13.5h-92q-51 -194 -322 -225zM271 77h42q1 10 1 20q0 68 -25 113t-65 45q-21 0 -39 -16t-29.5 -43t-11.5 -59q0 -35 31.5 -47.5t95.5 -12.5z" />
<glyph unicode="&#xfbf0;" horiz-adv-x="741" arabic-form="isolated" d="M472 -5l10 82q49 0 78 6t42 24.5t13 55.5q0 38 -17.5 95.5t-39.5 114.5l81 30q13 -32 24.5 -73t19.5 -81t8 -70q0 -100 -53.5 -142t-165.5 -42zM558 -14h-26q-19 0 -40.5 4.5t-21.5 34.5q0 5 3.5 23t28.5 25q14 4 34 -1t26 -8q-10 23 -30 31.5t-33 8.5q-39 0 -58 -19.5 t-27 -49.5q-6 -24 -6 -57v-33h151zM575 -64l30 50h-240l-30 -50h240zM58 -230l-18 82q62 8 113.5 23.5t88.5 43.5t55 76h-64q-45 0 -83.5 13t-62 40.5t-23.5 72.5q0 56 22 105t60.5 80t85.5 31q69 0 114.5 -60.5t45.5 -185.5v-14h90q21 0 30.5 -11.5t9.5 -27.5t-14 -29.5 t-36 -13.5h-92q-51 -194 -322 -225zM271 77h42q1 10 1 20q0 68 -25 113t-65 45q-21 0 -39 -16t-29.5 -43t-11.5 -59q0 -35 31.5 -47.5t95.5 -12.5z" />
<glyph unicode="&#xfbf1;" horiz-adv-x="815" arabic-form="final" d="M472 -5l10 82q42 0 66 7.5t36.5 29t21.5 62.5t22 107l78 -15q-6 -27 -13.5 -62t-7.5 -59q0 -20 9 -36t39 -25t92 -9q21 0 30.5 -11.5t9.5 -27.5t-14 -29.5t-36 -13.5q-79 0 -117 17t-52 51q-30 -42 -69 -55t-105 -13zM617 -135h-26q-19 0 -40.5 4.5t-21.5 34.5 q0 5 3.5 23t28.5 25q14 4 34 -1t26 -8q-10 23 -30 31.5t-33 8.5q-39 0 -58 -19.5t-27 -49.5q-6 -24 -6 -57v-33h151zM634 -185l30 50h-240l-30 -50h240zM58 -230l-18 82q62 8 113.5 23.5t88.5 43.5t55 76h-64q-45 0 -83.5 13t-62 40.5t-23.5 72.5q0 56 22 105t60.5 80 t85.5 31q69 0 114.5 -60.5t45.5 -185.5v-14h90q21 0 30.5 -11.5t9.5 -27.5t-14 -29.5t-36 -13.5h-92q-51 -194 -322 -225zM271 77h42q1 10 1 20q0 68 -25 113t-65 45q-21 0 -39 -16t-29.5 -43t-11.5 -59q0 -35 31.5 -47.5t95.5 -12.5z" />
<glyph unicode="&#xfbf2;" horiz-adv-x="741" arabic-form="isolated" d="M472 -5l10 82q49 0 78 6t42 24.5t13 55.5q0 38 -17.5 95.5t-39.5 114.5l81 30q13 -32 24.5 -73t19.5 -81t8 -70q0 -100 -53.5 -142t-165.5 -42zM558 -14h-26q-19 0 -40.5 4.5t-21.5 34.5q0 5 3.5 23t28.5 25q14 4 34 -1t26 -8q-10 23 -30 31.5t-33 8.5q-39 0 -58 -19.5 t-27 -49.5q-6 -24 -6 -57v-33h151zM575 -64l30 50h-240l-30 -50h240zM58 -230l-18 82q62 8 113.5 23.5t88.5 43.5t55 76h-64q-45 0 -83.5 13t-62 40.5t-23.5 72.5q0 56 22 105t60.5 80t85.5 31q69 0 114.5 -60.5t45.5 -185.5v-14h90q21 0 30.5 -11.5t9.5 -27.5t-14 -29.5 t-36 -13.5h-92q-51 -194 -322 -225zM271 77h42q1 10 1 20q0 68 -25 113t-65 45q-21 0 -39 -16t-29.5 -43t-11.5 -59q0 -35 31.5 -47.5t95.5 -12.5zM204 465q-9 20 -25 53.5t-32.5 67t-29.5 54.5l46 25q7 -12 20 -36.5t27.5 -52t24.5 -49.5q11 26 24 55.5t24 53t16 31.5 l45 -19q-5 -10 -16 -32.5t-23.5 -50t-24 -53t-17.5 -41.5z" />
<glyph unicode="&#xfbf3;" horiz-adv-x="815" arabic-form="final" d="M472 -5l10 82q42 0 66 7.5t36.5 29t21.5 62.5t22 107l78 -15q-6 -27 -13.5 -62t-7.5 -59q0 -20 9 -36t39 -25t92 -9q21 0 30.5 -11.5t9.5 -27.5t-14 -29.5t-36 -13.5q-79 0 -117 17t-52 51q-30 -42 -69 -55t-105 -13zM617 -135h-26q-19 0 -40.5 4.5t-21.5 34.5 q0 5 3.5 23t28.5 25q14 4 34 -1t26 -8q-10 23 -30 31.5t-33 8.5q-39 0 -58 -19.5t-27 -49.5q-6 -24 -6 -57v-33h151zM634 -185l30 50h-240l-30 -50h240zM58 -230l-18 82q62 8 113.5 23.5t88.5 43.5t55 76h-64q-45 0 -83.5 13t-62 40.5t-23.5 72.5q0 56 22 105t60.5 80 t85.5 31q69 0 114.5 -60.5t45.5 -185.5v-14h90q21 0 30.5 -11.5t9.5 -27.5t-14 -29.5t-36 -13.5h-92q-51 -194 -322 -225zM271 77h42q1 10 1 20q0 68 -25 113t-65 45q-21 0 -39 -16t-29.5 -43t-11.5 -59q0 -35 31.5 -47.5t95.5 -12.5zM204 465q-9 20 -25 53.5t-32.5 67 t-29.5 54.5l46 25q7 -12 20 -36.5t27.5 -52t24.5 -49.5q11 26 24 55.5t24 53t16 31.5l45 -19q-5 -10 -16 -32.5t-23.5 -50t-24 -53t-17.5 -41.5z" />
<glyph unicode="&#xfbf4;" horiz-adv-x="741" arabic-form="isolated" d="M472 -5l10 82q49 0 78 6t42 24.5t13 55.5q0 38 -17.5 95.5t-39.5 114.5l81 30q13 -32 24.5 -73t19.5 -81t8 -70q0 -100 -53.5 -142t-165.5 -42zM558 -14h-26q-19 0 -40.5 4.5t-21.5 34.5q0 5 3.5 23t28.5 25q14 4 34 -1t26 -8q-10 23 -30 31.5t-33 8.5q-39 0 -58 -19.5 t-27 -49.5q-6 -24 -6 -57v-33h151zM575 -64l30 50h-240l-30 -50h240zM58 -230l-18 82q62 8 113.5 23.5t88.5 43.5t55 76h-64q-45 0 -83.5 13t-62 40.5t-23.5 72.5q0 56 22 105t60.5 80t85.5 31q69 0 114.5 -60.5t45.5 -185.5v-14h90q21 0 30.5 -11.5t9.5 -27.5t-14 -29.5 t-36 -13.5h-92q-51 -194 -322 -225zM271 77h42q1 10 1 20q0 68 -25 113t-65 45q-21 0 -39 -16t-29.5 -43t-11.5 -59q0 -35 31.5 -47.5t95.5 -12.5zM205 474l-6 173h55l6 -173h-55z" />
<glyph unicode="&#xfbf5;" horiz-adv-x="815" arabic-form="final" d="M472 -5l10 82q42 0 66 7.5t36.5 29t21.5 62.5t22 107l78 -15q-6 -27 -13.5 -62t-7.5 -59q0 -20 9 -36t39 -25t92 -9q21 0 30.5 -11.5t9.5 -27.5t-14 -29.5t-36 -13.5q-79 0 -117 17t-52 51q-30 -42 -69 -55t-105 -13zM617 -135h-26q-19 0 -40.5 4.5t-21.5 34.5 q0 5 3.5 23t28.5 25q14 4 34 -1t26 -8q-10 23 -30 31.5t-33 8.5q-39 0 -58 -19.5t-27 -49.5q-6 -24 -6 -57v-33h151zM634 -185l30 50h-240l-30 -50h240zM58 -230l-18 82q62 8 113.5 23.5t88.5 43.5t55 76h-64q-45 0 -83.5 13t-62 40.5t-23.5 72.5q0 56 22 105t60.5 80 t85.5 31q69 0 114.5 -60.5t45.5 -185.5v-14h90q21 0 30.5 -11.5t9.5 -27.5t-14 -29.5t-36 -13.5h-92q-51 -194 -322 -225zM271 77h42q1 10 1 20q0 68 -25 113t-65 45q-21 0 -39 -16t-29.5 -43t-11.5 -59q0 -35 31.5 -47.5t95.5 -12.5zM205 474l-6 173h55l6 -173h-55z" />
<glyph unicode="&#xfbf6;" horiz-adv-x="1005" arabic-form="isolated" d="M736 -5l10 82q49 0 78 6t42 24.5t13 55.5q0 38 -17.5 95.5t-39.5 114.5l81 30q13 -32 24.5 -73t19.5 -81t8 -70q0 -100 -53.5 -142t-165.5 -42zM822 -14h-26q-19 0 -40.5 4.5t-21.5 34.5q0 5 3.5 23t28.5 25q14 4 34 -1t26 -8q-10 23 -30 31.5t-33 8.5q-39 0 -58 -19.5 t-27 -49.5q-6 -24 -6 -57v-33h151zM839 -64l30 50h-240l-30 -50h240zM30 -1q0 36 10 80t32 97l72 -28q-16 -42 -24 -77t-8 -65q0 -55 32.5 -90t86 -51t117.5 -16q77 0 140.5 18t101.5 47.5t38 65.5q0 26 -40 45t-112 39l19 83q104 -40 162 -55t89 -15q21 0 30.5 -11.5 t9.5 -27.5t-14 -29.5t-36 -13.5h-37q2 -9 3 -14.5t1 -14.5q0 -49 -45 -94.5t-129.5 -74.5t-202.5 -29q-79 0 -146.5 25.5t-108.5 76.5t-41 129zM326 -419q-21 0 -35.5 14.5t-14.5 34.5t14.5 35t35.5 15q20 0 34.5 -15t14.5 -35t-14.5 -34.5t-34.5 -14.5zM327 -548 q-21 0 -35.5 14.5t-14.5 34.5t14.5 35t35.5 15q20 0 34.5 -15t14.5 -35t-14.5 -34.5t-34.5 -14.5z" />
</font>
</defs>
</svg>
