<?xml version="1.0" standalone="no"?>
<!DOCTYPE svg PUBLIC "-//W3C//DTD SVG 1.1//EN" "http://www.w3.org/Graphics/SVG/1.1/DTD/svg11.dtd" >
<svg xmlns="http://www.w3.org/2000/svg" xmlns:xlink="http://www.w3.org/1999/xlink" version="1.1">
<metadata></metadata>
<defs>
<font id="reemkufi-regularregular" horiz-adv-x="1323" >
<font-face units-per-em="2048" ascent="1638" descent="-410" />
<missing-glyph horiz-adv-x="264" />
<glyph horiz-adv-x="0" />
<glyph horiz-adv-x="0" />
<glyph unicode="&#xd;" horiz-adv-x="612" />
<glyph unicode=" "  horiz-adv-x="264" />
<glyph unicode="&#x09;" horiz-adv-x="264" />
<glyph unicode="&#xa0;" horiz-adv-x="264" />
<glyph unicode="!" horiz-adv-x="542" d="M158 108.5q0 49.5 34.5 83t78.5 33.5t79 -32q35 -35 35 -84.5t-34 -83t-79 -33.5t-79.5 33.5t-34.5 83zM178 344v1212h189v-1212h-189z" />
<glyph unicode="&#x22;" horiz-adv-x="718" d="M131 979v516h184l-8 -516h-176zM408 979v516h186l-8 -516h-178z" />
<glyph unicode="#" horiz-adv-x="1187" d="M82 381l22 184h185l24 199h-184l18 182h187q43 352 49 389h188l-49 -389h193l49 389h190l-49 -389h203l-16 -182h-207l-25 -199h205l-21 -184h-206l-43 -381h-191l45 381h-192l-45 -381h-191l45 381h-184zM479 565h193l22 199h-192q-2 -35 -10 -100z" />
<glyph unicode="$" horiz-adv-x="1189" d="M72 111l98 194q193 -106 365 -104h6v497q-98 37 -158 66q-139 68 -203 174q-35 63 -35 139q0 158 101 264q111 125 295 146v135h129v-131q125 -4 293 -55q33 -10 55 -19.5t37 -13.5l-80 -182q-174 63 -305 67v-420q193 -68 297 -147q57 -49 102 -123q39 -74 39 -176 q0 -178 -118 -290t-320 -138v-133h-129v123h-4q-231 0 -418 100q-14 8 -26.5 14t-20.5 13zM367 1101.5q0 -65.5 52 -108.5t122 -73v356q-88 -23 -127 -68q-47 -41 -47 -106.5zM670 219q20 4 84.5 29.5t113.5 95.5q19 37 19 78q0 82 -64 135q-29 31 -69 49q-18 12 -84 43 v-430z" />
<glyph unicode="%" horiz-adv-x="1468" d="M79.5 809q0.5 59 22.5 104q18 47 58 82q78 78 190.5 78t188.5 -78q31 -29 59 -82q20 -55 20 -104t-20 -104q-53 -102 -143 -144q-48 -20 -105 -20q-111 0 -190 77q-41 41 -58 87q-23 45 -22.5 104zM268 808q0 -38 23 -60q18 -25 56 -25t63 25q20 27 20 60.5t-20 59.5 q-27 23 -64 23t-55 -23q-23 -22 -23 -60zM322 0q436 729 618 1038h207l-619 -1038h-206zM854 229.5q0 59.5 23 102.5q35 96 143 141q106 45 211.5 -1t140.5 -140q23 -43 23 -102.5t-23 -104.5q-37 -94 -143 -141q-48 -21 -105 -21q-111 0 -190 78q-39 37 -57 84 q-23 45 -23 104.5zM1044 230.5q0 -33.5 21 -60.5q25 -25 60.5 -25t58.5 25q20 23 20 60.5t-20 60.5q-23 23 -57.5 22.5t-61.5 -22.5q-21 -27 -21 -60.5z" />
<glyph unicode="&#x26;" horiz-adv-x="1337" d="M72 418q0 160 100 287q94 115 250 157q-102 164 -133 240q-63 162 -2 270q20 51 72.5 95t115.5 61q53 20 146.5 24t174.5 -24.5t119 -57.5l-14 -20q-55 -76 -65 -94q-16 -16 -17 -23q-92 63 -198.5 49t-153.5 -77q-20 -37 -20.5 -87.5t22.5 -96.5t27 -48l446 -594 l156 400h186l-221 -562l242 -317h-209q-14 20 -37 43q-10 14 -47 57t-45 54q-68 -80 -172.5 -127t-224 -47t-210.5 32q-182 74 -251 232q-39 84 -37 174zM248 424q0 -63 26 -117q90 -156 287 -155q78 0 174 36q78 36 125 97l-328 422q-51 -2 -106 -23q-57 -27 -90 -59 q-88 -76 -88 -201z" />
<glyph unicode="'" horiz-adv-x="444" d="M131 979v516h188l-8 -516h-180z" />
<glyph unicode="(" horiz-adv-x="604" d="M74 604.5q0 149.5 28 296.5q66 293 187 479q57 92 127 168q27 -8 73 -20t95 -27q-127 -147 -219 -368q-37 -92 -74 -248q-27 -143 -27 -280.5t27 -280.5q66 -279 176 -455q55 -92 117 -162l-168 -49q-150 162 -236 387q-47 125 -78 262q-28 148 -28 297.5z" />
<glyph unicode=")" horiz-adv-x="604" d="M23 -303q127 147 219 369q37 90 73 245q27 143 27 280.5t-27 280.5q-68 283 -176 455q-55 92 -116 162l165 53q160 -174 238 -387q106 -256 106 -559t-106 -559q-47 -125 -111 -217q-57 -92 -127 -168q-39 12 -82 20q-57 16 -83 25z" />
<glyph unicode="*" horiz-adv-x="770" d="M100 1092l158 88l-156 94q10 25 25 45q12 20 21.5 37.5t13.5 23.5l160 -94v189h131q0 -63 -2 -95v-94l161 92l62 -106q-47 -27 -88 -52.5t-74 -41.5q12 -6 37.5 -21.5t39 -24t40 -22.5t41.5 -23q-20 -43 -66 -114l-158 94v-88q-2 -31 -2 -90h-122v178q-39 -27 -78 -43 q-41 -25 -78 -45z" />
<glyph unicode="+" horiz-adv-x="913" d="M84 387v182h278v285h191v-285h278v-182h-278v-281h-191v281h-278z" />
<glyph unicode="," horiz-adv-x="491" d="M10 -248q27 72 80 211l80 215h188l-180 -426h-168z" />
<glyph unicode="-" horiz-adv-x="604" d="M113 354v183h381v-183h-381z" />
<glyph unicode="." horiz-adv-x="337" d="M51 0q0 49 35 84t84 35t84 -35t35 -84t-35 -84t-84 -35t-84 35t-35 84z" />
<glyph unicode="/" horiz-adv-x="892" d="M63 -39l578 1567h190l-579 -1567h-189z" />
<glyph unicode="0" horiz-adv-x="1304" d="M96 680q0 311 162 508q154 178 401.5 178t401.5 -195q74 -94 110 -217q43 -127 39 -288q-8 -315 -163 -502q-164 -180 -400 -180q-238 0 -389 184q-74 84 -118 215t-44 297zM307 837.5q-41 -194.5 6 -358.5q59 -197 195 -272q65 -41 141 -41t145.5 40t118 108.5t78 163.5 t29.5 179t-16 183q-43 195 -175 293q-70 51 -172 51t-178 -54q-131 -98 -172 -292.5z" />
<glyph unicode="1" horiz-adv-x="620" d="M96 1167v183h322v-1350h-191v1167h-131z" />
<glyph unicode="2" horiz-adv-x="1110" d="M86 936q0 186 115 301q125 129 319.5 129t319.5 -129q53 -57 90 -139q31 -80 31 -174q0 -256 -252 -559q-70 -88 -152 -183h479v-182h-930q41 43 123 127l154 152q68 68 182 204q96 123 150.5 223.5t54.5 186.5q0 137 -86 225q-72 63 -154 66q-137 2 -204 -90 q-49 -72 -52 -152q0 -127 80 -213l-110 -117q-72 43 -115 140q-43 98 -43 184z" />
<glyph unicode="3" horiz-adv-x="952" d="M57 131l138 129q80 -96 196 -94q59 0 105 22q45 16 86 58.5t57 85.5q23 45 23 104.5t-23 104.5q-39 96 -143 141q-47 20 -115 20t-125 -32q57 106 151.5 246.5t149.5 248.5h-416v185h715q-47 -82 -149.5 -246t-149.5 -246q129 -51 211 -162.5t82 -259.5q0 -186 -137 -319 q-61 -61 -146 -97q-180 -78 -360 5q-80 37 -150 106z" />
<glyph unicode="4" horiz-adv-x="1077" d="M0 348q215 283 401 508q223 279 404 510v-836h201v-182h-201v-348h-191v348h-614zM365 530h249v326z" />
<glyph unicode="5" horiz-adv-x="931" d="M76 111l137 127q72 -72 178 -72q59 0 105 22q45 16 86 58.5t57 85.5q23 45 23 104.5t-23 104.5q-16 45 -57 86q-39 33 -88 57q-55 20 -105 21q-147 0 -227 -80v725h596v-183h-434v-295q39 14 65 15q102 0 189 -35q86 -39 143 -98q127 -119 127 -310.5t-135 -326.5 q-66 -63 -148 -99q-164 -72 -348 -2q-82 37 -141 95z" />
<glyph unicode="6" horiz-adv-x="1083" d="M86 430.5q0 108.5 33 212.5q70 180 217 340q96 92 149 135q70 57 273 205l116 -143q-18 -12 -60 -42t-67.5 -47.5t-72.5 -52.5q-47 -37 -80 -57q-31 -23 -85 -70t-77 -75q49 49 107 51q188 0 324 -132t134 -319q0 -188 -137 -319q-61 -61 -145 -97q-156 -68 -332 -10 q-86 29 -145 84q-70 55 -111 141.5t-41 195zM279 436q0 -111 75 -190q35 -39 82 -58q43 -23 102.5 -22.5t104.5 22.5q45 16 86 58.5t57 85.5q23 45 23 104.5t-23 104.5q-35 96 -143 143q-106 45 -204.5 0t-139.5 -143q-20 -48 -20 -105z" />
<glyph unicode="7" horiz-adv-x="933" d="M61 1165v185h861q-258 -639 -322 -807q-66 -170 -82 -209t-61 -156q-45 -115 -70 -178h-213q53 137 221 569l234 596h-568z" />
<glyph unicode="8" horiz-adv-x="1081" d="M86 412q0 166 70 264q55 86 159 137q-61 41 -84 96q-47 115 2 250q27 63 72 111q100 96 236 96q133 0 235 -96q100 -104 98 -242q0 -135 -108 -215q41 -18 84 -53q147 -123 147 -316.5t-125 -326.5q-135 -135 -333 -133q-205 0 -328 133q-125 131 -125 295zM279 432 q0 -109 75 -186q37 -39 84 -58q43 -23 101.5 -22.5t103.5 22.5q45 16 86 58q35 31 62 86q20 55 20 108q0 51 -22.5 101.5t-55.5 81.5q-35 39 -82 57q-39 20 -102 25q-111 0 -191 -78q-33 -29 -59 -84q-20 -58 -20 -111zM391 1042q0 -45 15 -67q10 -23 32 -45q23 -18 49 -33 q35 -10 62 -10q61 0 102 43q45 41 45 100q0 57 -45 109q-49 43 -106 45q-55 0 -107 -45q-47 -52 -47 -97z" />
<glyph unicode="9" horiz-adv-x="1085" d="M88 868.5q0 186.5 135 321.5q63 63 146 96q80 37 166 37q188 0 313 -111q152 -127 151 -342q0 -104 -32 -206q-76 -195 -219 -340q-63 -63 -146 -136q-121 -96 -276 -204l-117 143q94 68 127 86q37 27 149.5 108.5t165.5 149.5q-51 -51 -106 -51q-184 0 -320.5 131 t-136.5 317.5zM295 766q82 -162 250 -164q104 0 184 78q76 86 76 189.5t-76 191.5q-35 39 -82 57q-43 23 -102.5 23t-104.5 -23q-90 -33 -145 -143q-39 -106 0 -209z" />
<glyph unicode=":" horiz-adv-x="450" d="M113 114.5q0 51.5 34.5 84t78.5 32.5t77 -34q37 -31 37 -83.5t-35 -83t-78 -30.5t-80 31q-34 32 -34 83.5zM113 674q0 49 34 88q39 33 79 33t77 -35t37 -85t-37 -81q-33 -33 -77 -33t-77.5 32t-35.5 81z" />
<glyph unicode=";" horiz-adv-x="516" d="M6 -248l162 426h186l-178 -426h-170zM166 635q0 51 35 84t79 33t76 -35q35 -31 35 -82t-34.5 -84t-76.5 -33t-79 31q-35 35 -35 86z" />
<glyph unicode="&#x3c;" horiz-adv-x="1132" d="M66 494l907 524v-256l-463 -268l463 -267v-256z" />
<glyph unicode="=" horiz-adv-x="1294" d="M123 223v185h1051v-185h-1051zM123 627v184h1051v-184h-1051z" />
<glyph unicode="&#x3e;" horiz-adv-x="1132" d="M162 -29v256l463 267l-463 268v256l907 -524z" />
<glyph unicode="?" horiz-adv-x="968" d="M68 1198q18 53 38 100q29 53 72 101.5t123 87.5q78 33 175 33t172 -32t128 -87q117 -121 117 -309q0 -186 -203 -336q-29 -23 -55 -39q-84 -49 -119 -123q-18 -41 -18 -92v-162h-189v201q0 111 76 184q35 35 78 57q76 55 90 66q147 115 147 268q0 90 -57 158 q-61 63 -166.5 63t-158 -47t-87.5 -153zM287 108.5q0 51.5 34.5 84t78.5 32.5t79 -33.5t35 -84t-36 -81t-79 -30.5t-75 31q-37 30 -37 81.5z" />
<glyph unicode="@" horiz-adv-x="1933" d="M80 409q0 173 57.5 327.5t171.5 279.5q117 125 289 203q170 76 385 75q399 0 635 -245q109 -111 160 -254q55 -141 55 -273q0 -248 -109 -391q-53 -63 -120 -98q-76 -33 -150 -33h-237v109q-35 -49 -78 -72q-190 -104 -394 -21q-82 35 -143 98.5t-90 137.5 q-35 76 -35 167t35 179q80 170 242 244q80 37 152.5 37t131.5 -15q96 -33 148 -86q23 -25 31 -43l8 121h168v-692h61q78 0 131 74q33 37 53 102q23 61 23 172t-41 219q-86 236 -338 344q-131 53 -309 53t-315.5 -65.5t-231.5 -169.5q-176 -207 -176 -479q0 -145 56 -273.5 t152.5 -223.5t225.5 -150.5t277 -55.5q231 0 432 139l102 -120q-209 -180 -563 -181q-164 0 -319.5 69t-276.5 185q-117 119 -186.5 276t-69.5 330zM653 430.5q0 -63.5 23 -111.5q33 -96 145 -147q57 -20 110.5 -20t117.5 20q57 29 92 61q76 74 76 195q0 119 -78 199 q-88 80 -205 80q-66 0 -113 -23q-47 -16 -88 -57t-57 -86q-23 -47 -23 -110.5z" />
<glyph unicode="A" d="M2 0l662 1554q8 -25 45 -104q33 -84 139 -336t161.5 -382t145.5 -339t115.5 -272.5t38 -89t14.5 -31.5h-221l-178 426h-525l-176 -426h-221zM477 614h371q-49 119 -69.5 173.5t-33.5 72.5q-6 18 -19 48t-24 57q-8 27 -14 38t-12 37q-10 25 -12 45q-2 -18 -8.5 -34.5 t-8.5 -24.5q-2 -6 -6 -14z" />
<glyph unicode="B" horiz-adv-x="1214" d="M182 0v1485h393q115 0 197 -23q80 -16 150 -65q66 -51 94 -119q35 -70 35 -150q0 -143 -47 -243q-33 -51 -72 -83t-101 -50q47 -8 102.5 -35t96.5 -68q91 -97 91 -268q0 -177 -138 -279q-139 -102 -348 -102h-453zM408 203h208q115 0 203 55q84 68 84 167q0 71 -26 112 q-81 116 -284 116h-3h-182v-450zM408 844h200q111 0 166 66.5t55 168t-65.5 152.5t-177.5 51h-178v-438z" />
<glyph unicode="C" horiz-adv-x="1304" d="M80 737q0 160 59 303q119 279 410 404q139 57 313 57t318 -63q49 -25 65 -41q-6 -10 -100 -174q-107 67 -284 67h-5q-119 0 -222.5 -45t-175 -118.5t-113.5 -173t-42 -207t41 -197.5q37 -94 111 -172q63 -72 165.5 -119t192.5 -47q195 0 338 74q33 14 39 24l94 -203 q-12 -10 -67 -40q-199 -82 -381 -82q-348 0 -557 223q-199 213 -199 530z" />
<glyph unicode="D" horiz-adv-x="1454" d="M182 0v1485h373q223 0 381 -68q295 -127 395 -422q43 -139 43 -287.5t-57 -281.5q-115 -264 -402 -377q-135 -49 -286 -49h-447zM406 213h190q119 0 217 33q205 68 297 266q41 100 41 228t-47 231q-92 203 -293 266q-96 33 -195 33h-210v-1057z" />
<glyph unicode="E" horiz-adv-x="1261" d="M182 0v1485h975v-203h-749v-434h667v-207h-667v-434h778v-207h-1004z" />
<glyph unicode="F" horiz-adv-x="1134" d="M182 0v1485h889v-207h-665v-449h581v-208h-581v-621h-224z" />
<glyph unicode="G" horiz-adv-x="1400" d="M80 722q0 165 62.5 308.5t168.5 249.5q117 109 250 162q133 59 297 59q96 0 223 -26q125 -33 203 -80l-108 -183q-20 12 -85 37t-155 37q-57 4 -82 4q-223 0 -387 -163.5t-164 -397.5q0 -115 41 -205q35 -92 111 -170q151 -159 399 -159q125 0 229 41v282h-288v193h495 v-623q-92 -53 -205 -76q-111 -29 -261 -29q-2 0 -5 1q-153 0 -291 55q-287 115 -395 383q-53 135 -53 300z" />
<glyph unicode="H" horiz-adv-x="1554" d="M182 0v1485h224v-631h743v631h225v-494q0 -164 -2 -250v-741h-223v641h-743v-641h-224z" />
<glyph unicode="I" horiz-adv-x="585" d="M182 0v1485h224v-1485h-224z" />
<glyph unicode="J" horiz-adv-x="667" d="M-57 -96q143 10 234 98t91 281v1202h226v-1209q0 -266 -156 -423q-74 -78 -174 -115q-102 -43 -221 -45v211z" />
<glyph unicode="K" d="M182 0v1485h248v-555q0 -25 -3 -37t-3 -35l20 27q12 12 21 26q162 154 285.5 291t275.5 283h285l-609 -643q240 -307 340 -447q102 -139 185.5 -246.5t111.5 -148.5h-276q-29 39 -79 102.5t-88 111.5t-132 173q-95 127 -232 305q-68 -68 -104 -100q0 -203 2 -297v-295 h-248z" />
<glyph unicode="L" horiz-adv-x="1167" d="M182 0v1485h226v-1272h737v-213h-963z" />
<glyph unicode="M" horiz-adv-x="1849" d="M182 0v1550q6 -8 16.5 -23.5t26.5 -37.5q16 -25 64.5 -91.5t103.5 -144.5q43 -55 142 -194q96 -139 194 -275q98 -133 117.5 -158.5t43 -59.5t36.5 -50q16 27 49 71t113.5 158.5t158.5 219.5q76 104 154 213.5t139.5 193.5t81.5 115t47 63v-1550h-237v831l2 35q4 12 4 27 q-25 -33 -57.5 -81t-94.5 -136q-53 -82 -108 -156q-84 -123 -140.5 -202.5t-81.5 -118.5q-27 -41 -30 -45q-18 27 -58 75q-37 55 -74.5 106.5t-76.5 106.5q-41 55 -96.5 133t-90.5 130q-35 49 -78.5 109t-52.5 79l2 -27q4 -12 5 -35v-831h-224z" />
<glyph unicode="N" horiz-adv-x="1665" d="M182 0v1554q31 -39 76 -81q172 -184 451 -443l172 -166q74 -72 155 -149q43 -47 103.5 -106.5t89.5 -96.5l39 -57l-6 69v961h223v-1553q-25 33 -111 119l-188 189q-145 145 -228 223q-82 82 -174 172q-258 254 -344 356l-39 53l7 -65v-979h-226z" />
<glyph unicode="O" horiz-adv-x="1671" d="M78 741q2 308 221 531q106 109 242 170q141 59 293.5 59t295.5 -59q139 -63 242 -166q223 -233 223 -535q0 -154 -59 -292t-164 -244q-106 -104 -246.5 -162.5t-291.5 -58.5q-309 0 -535 221q-221 227 -221 536zM301 739q0 -113 41 -211t115.5 -172.5t173 -116.5 t209.5 -44q111 0 209 45q207 92 282 288q43 98 43 212t-41 212q-86 203 -289 291q-94 43 -206.5 43t-208.5 -43q-98 -43 -170 -117q-158 -158 -158 -387z" />
<glyph unicode="P" horiz-adv-x="1179" d="M182 0v1485h406q231 0 383 -121q147 -131 147 -338t-112 -342q-55 -66 -153.5 -110t-236.5 -44h-208v-530h-226zM408 741h202q145 0 226 99q57 74 57 172q0 37 -12 86q-16 47 -47 86q-86 92 -222 92h-204v-535z" />
<glyph unicode="Q" horiz-adv-x="1681" d="M78 741q0 154 57 289q57 133 160.5 241.5t243.5 170.5q141 59 297 59q309 0 534 -225q106 -106 165.5 -243.5t59.5 -291.5q0 -309 -209 -546l256 18v-213h-649q-77 -16 -159 -16q-154 0 -292.5 58t-243.5 164.5t-163 244.5q-57 135 -57 290zM301 739q0 -227 158 -385 q70 -74 169 -115.5t212 -43.5q113 0 209 45q207 92 282 288q43 98 43 211q0 217 -157 387q-160 160 -381 160q-225 0 -381 -162q-74 -76 -111 -172q-43 -100 -43 -213z" />
<glyph unicode="R" horiz-adv-x="1284" d="M182 0v1485h406q231 0 383 -121q147 -131 147 -348q0 -141 -53 -238q-23 -51 -70 -106q-43 -45 -104 -80q47 -74 144.5 -231.5t228.5 -360.5h-269q-14 25 -92 144.5t-155 242.5q-76 121 -91 143h-249v-530h-226zM408 741h202q86 0 138 29q49 23 83 64q61 76 62 178 q0 37 -12 86q-16 47 -47 86q-86 92 -222 92h-204v-535z" />
<glyph unicode="S" horiz-adv-x="1155" d="M49 111l98 194q189 -104 359 -104h6q121 0 200 37.5t111 76.5q41 41 41 104.5t-33 104.5q-55 78 -200 131q-90 37 -131 52.5t-125 54.5q-164 76 -219 184q-33 53 -33 133q0 168 123 287q135 127 364 127q76 0 116 -7t157 -32q100 -33 149 -51l-80 -182q-180 67 -317 67 t-214 -52t-77 -129t55 -120q66 -47 108 -63.5t208 -79.5q86 -27 174 -82q197 -125 197 -334q0 -211 -144 -326q-136 -118 -408 -118h-14q-172 0 -295 45q-86 27 -176 82z" />
<glyph unicode="T" horiz-adv-x="1126" d="M82 1272v213h965v-213h-375v-1272h-223v1272h-367z" />
<glyph unicode="U" horiz-adv-x="1462" d="M166 524v961h225v-955q0 -74 24.5 -129t71.5 -110q109 -96 242 -96q76 0 135 26q55 20 111 70q100 113 98 239v955h225v-961q0 -125 -45 -221q-39 -92 -118 -172q-176 -147 -410 -147q-231 0 -395 150.5t-164 389.5z" />
<glyph unicode="V" horiz-adv-x="1327" d="M4 1485h221q8 -23 33 -80q25 -55 49.5 -115.5t64.5 -156t62 -154.5q45 -109 97.5 -238t82 -200.5t31.5 -73.5q14 -27 21 -66l20 72l47 113q39 94 60.5 150.5t54.5 127.5q31 72 66.5 169t68.5 159q35 86 60.5 148.5t39.5 97.5q14 37 21 47h221q-10 -27 -30.5 -76t-79 -182 t-109.5 -260q-53 -127 -149.5 -346.5t-170.5 -403.5q-70 -160 -89 -209t-31 -76z" />
<glyph unicode="W" horiz-adv-x="1939" d="M14 1479h252q66 -180 103 -273q49 -137 98 -264q14 -45 56 -159.5t83 -260.5l17 -71q0 2 2 7t4 12t6 17q4 12 10 31t14 37q6 18 25 63q18 43 33.5 75t27.5 69q12 35 47 106.5t82 188.5q-29 78 -63.5 188.5t-42.5 132t-14 41t-13 37.5q-6 16 -6 23h215q131 -342 172 -456 t51.5 -138.5t31 -77.5t32.5 -80q74 -199 76 -205t5 -17t5 -18l6 -36l6 36q4 10 19.5 85t77.5 233q61 160 99 257t68.5 181t92.5 236h233q-141 -369 -158.5 -415t-214 -548t-221.5 -582l-332 830q-4 8 -7 17.5t-7 18.5t-4 13q0 -6 -10 -47q-70 -154 -109 -246 q-39 -90 -83 -189.5t-57 -136t-33.5 -80.5t-39 -86t-41.5 -96q-197 516 -308.5 800t-285.5 747z" />
<glyph unicode="X" horiz-adv-x="1290" d="M14 0l486 760l-465 725h274q2 -4 23.5 -37t66.5 -109q53 -84 62.5 -100t34.5 -53q25 -39 50 -83t34 -59q10 -12 38 -61l15 -29q12 -20 18 -41q6 20 19 41l14 29q29 49 52.5 87t73.5 123t87 146q12 27 34.5 62t51.5 84h274q-25 -37 -60.5 -97.5t-70.5 -109.5 q-16 -27 -50 -81t-50 -80.5t-50 -81t-57.5 -93.5t-72.5 -111q-47 -72 -51 -83l483 -748h-279l-303 487q-6 10 -19 34t-26 40q-10 18 -12 25q0 -4 -12.5 -31t-16.5 -32t-27.5 -44t-86.5 -145q-61 -104 -97 -160q-35 -53 -64.5 -101t-41.5 -73h-279z" />
<glyph unicode="Y" horiz-adv-x="1341" d="M8 1485h254q29 -47 70 -127t100 -187l117 -221q18 -37 52 -100.5t48 -91.5l23 -68q6 10 14 37t26.5 58.5t61.5 115.5q43 86 82 160t90 174t77 149.5t56 100.5h252l-547 -996v-489h-225v489q-33 51 -131 233.5t-133 244t-76 137.5l-55 104q-57 102 -101.5 182t-54.5 95z " />
<glyph unicode="Z" horiz-adv-x="1298" d="M2 0q43 53 152.5 227t170 266.5t107.5 165.5l141 215q63 102 164 254t125 183h-594q-23 0 -63 8q-61 20 -99 67q-14 29 -14 56v119h201v-29q0 -39 14 -41q16 -6 49 -6h879l-844 -1270h862v-215h-1251z" />
<glyph unicode="[" horiz-adv-x="641" d="M176 -309v1857h406v-182h-217v-1493h217v-182h-406z" />
<glyph unicode="\" horiz-adv-x="913" d="M63 1528h213q193 -524 302.5 -826.5t275.5 -740.5h-213z" />
<glyph unicode="]" horiz-adv-x="641" d="M61 -127h220v1493h-220v182h406v-1857h-406v182z" />
<glyph unicode="^" horiz-adv-x="747" d="M125 995q72 104 125 189q59 86 125 186q66 -100 125 -186q53 -84 125 -189h-131l-119 160q-12 -12 -23 -31q-12 -18 -36.5 -49t-32.5 -47q-8 -8 -25 -33h-133z" />
<glyph unicode="_" horiz-adv-x="1054" d="M113 0v182h831v-182h-831z" />
<glyph unicode="`" horiz-adv-x="413" d="M-113 1270h189q80 -121 102.5 -153t83.5 -122h-131q-82 88 -111.5 124t-70.5 80t-62 71z" />
<glyph unicode="a" horiz-adv-x="1099" d="M63 419q0 91 35 179q78 168 242 244q80 37 151.5 37t133.5 -15q98 -35 147 -86q23 -25 31 -43l8 121h168v-856h-176v109q-41 -70 -176 -115q-45 -14 -127 -14t-166 35.5t-144 95.5q-63 68 -92 141q-35 76 -35 167zM240 430.5q0 -63.5 22 -111.5q33 -96 146 -147 q57 -20 111 -20t116 20q57 29 90 61q76 74 78 195q0 119 -78 199q-88 80 -207 80q-66 0 -110 -23q-45 -16 -87 -57t-59 -86q-22 -47 -22 -110.5z" />
<glyph unicode="b" horiz-adv-x="1103" d="M123 0v1591h176v-860q14 25 45 51q27 27 66 45q76 49 182 52h6q186 0 320 -121q121 -132 121 -328q0 -198 -126 -324q-57 -57 -143 -92q-86 -34 -173 -34q-52 0 -105 12q-90 18 -152 74q-27 20 -43 47q0 -14 2 -23v-90h-176zM299 430.5q0 -53.5 20 -111.5 q25 -53 58 -85.5t90 -61.5q61 -20 115.5 -20t109.5 20q100 53 137 147q19 54 19 111q0 117 -72 197q-37 39 -84 57q-45 23 -108 23q-178 0 -265 -166q-20 -57 -20 -110.5z" />
<glyph unicode="c" horiz-adv-x="849" d="M63 430q0 88 36 173t98 142q59 59 143 99q88 35 178 35q164 0 291 -99l-113 -133q-66 57 -154 59h-11q-81 0 -125 -22q-45 -16 -91 -57q-77 -77 -77 -194q0 -187 168 -261q57 -20 112 -20q109 0 178 59l107 -133q-121 -98 -279 -98h-6q-190 0 -321 133q-61 61 -99 143 q-35 86 -35 174z" />
<glyph unicode="d" horiz-adv-x="1101" d="M66 432q0 92 32 178q72 168 234 236q80 33 153.5 33t137.5 -15q49 -18 86 -37q76 -55 96 -96v860h176v-1591h-176v63q0 18 2 28.5t2 25.5q-90 -98 -168 -116.5t-160 -20.5q-174 0 -301 131q-55 61 -86 143q-28 86 -28 178zM242 430q0 -53 20 -111q47 -102 148 -147 q57 -20 113.5 -20t111.5 20q57 25 90 61q78 70 80 195q0 127 -80 199q-41 41 -90 57q-45 23 -111.5 23t-113.5 -23q-90 -31 -148 -143q-20 -58 -20 -111z" />
<glyph unicode="e" horiz-adv-x="946" d="M63 428q0 88 35 172q72 166 242 244q82 35 172 35q145 0 253.5 -89.5t154.5 -226.5q-106 -37 -279.5 -109.5t-204 -83t-87 -33t-85.5 -32.5q33 -68 101 -112q69 -41 149 -41q127 0 203 75l131 -127q-59 -53 -148 -88q-92 -36 -180.5 -36t-173.5 36q-170 70 -248 242 q-35 86 -35 174zM238 422q2 -2 2 -6q10 4 51 20.5t65 26.5l123 49q66 31 119 49q98 41 102 43q-25 51 -77 77t-109 26q-121 0 -197 -84q-33 -33 -59 -86q-20 -55 -20 -101v-14z" />
<glyph unicode="f" horiz-adv-x="657" d="M49 686v172h146v199q0 266 124 397q129 131 359 137v-168q-162 -10 -234.5 -104t-72.5 -266v-195h270v-172h-270v-686h-176v686h-146z" />
<glyph unicode="g" horiz-adv-x="1101" d="M66 424q0 193 129 326q129 129 309 129q123 0 215 -62q23 -16 59 -47q16 -25 27 -35l8 121h168v-817q0 -213 -125 -332t-338 -119q-61 0 -133 15q-127 43 -192 98l-80 68l112 118q74 -63 135.5 -96t175 -33t189.5 63.5t80 184.5v60q0 8 4 34.5t4 30.5q-41 -55 -111 -102 q-105 -48 -207 -48q-84 0 -165 33q-162 72 -232 236q-32 78 -32 168v6zM242 430q0 -53 20 -111q47 -102 148 -147q57 -20 113.5 -20t111.5 20q57 25 90 61q78 70 80 195q0 127 -80 199q-41 41 -90 57q-45 23 -111.5 23t-113.5 -23q-90 -31 -148 -143q-20 -58 -20 -111z" />
<glyph unicode="h" horiz-adv-x="1040" d="M123 0v1591h174v-942q47 104 127 166q82 59 211 64h15q119 0 194 -70q80 -72 84 -186v-623h-176v543q-2 61 -45 110t-113 51q-7 0 -14 1q-62 0 -115 -21q-113 -53 -146 -147q-22 -45 -22 -108v-5v-424h-174z" />
<glyph unicode="i" horiz-adv-x="417" d="M100 1184q0 47 35 82q34 33 77 33l1 -1q43 0 77 -33.5t34 -80.5t-34 -80t-76 -33t-79 31q-35 35 -35 82zM123 0v856h174v-856h-174z" />
<glyph unicode="j" horiz-adv-x="417" d="M-2 -283q125 101 125 287v852h174v-858q0 -266 -176 -412zM104 1184q0 47 33 82q34 33 78 33l1 -1q44 0 78 -33.5t34 -80.5t-35 -80t-78 -33t-77 33t-34 80z" />
<glyph unicode="k" horiz-adv-x="903" d="M123 0v1591h174v-1116q168 156 434 404l105 -105q-129 -119 -297 -280q86 -117 180 -248l178 -246h-201q-94 127 -139 188l-141 191l-119 -109v-270h-174z" />
<glyph unicode="l" horiz-adv-x="421" d="M125 0v1591h174v-1591h-174z" />
<glyph unicode="m" horiz-adv-x="1640" d="M123 0v856h153l7 -115q4 -39 8 -104q45 111 121.5 174t208.5 68q125 0 200.5 -63.5t87.5 -166.5q53 104 126 164.5t202 65.5q133 0 210 -71t81 -185v-623h-176v543q-4 66 -44 111.5t-130 50.5q-121 0 -193 -79t-74 -202v-424h-174v543q-2 61 -45 112q-48 47 -116 49 q-7 0 -13 1q-61 0 -110 -21q-156 -78 -156 -260v-424h-174z" />
<glyph unicode="n" horiz-adv-x="1040" d="M123 0v856h153l7 -115q4 -39 8 -104q47 113 135 177.5t215 64.5t206 -72t81 -184v-623h-176v543q-2 61 -45 110t-113 51q-7 0 -14 1q-62 0 -115 -21q-113 -53 -146 -147q-22 -45 -22 -108v-5v-424h-174z" />
<glyph unicode="o" horiz-adv-x="1032" d="M63 426q0 92 36 177t98 142q59 59 143 99q88 35 180 35t180 -35q166 -78 238 -240q33 -88 33 -174t-33 -174q-74 -170 -243 -242q-85 -37 -175 -37q-88 0 -180 35q-166 70 -242 234q-35 88 -35 180zM238 428q0 -51 20 -109q27 -55 61 -86q31 -35 87 -61q57 -20 108 -20 t109 20q109 51 149 147q23 55 23 109q0 115 -82 199q-45 41 -90 57q-47 23 -108.5 23t-108.5 -23q-96 -35 -148 -147q-20 -58 -20 -109z" />
<glyph unicode="p" horiz-adv-x="1103" d="M123 -412v1268h170l2 -61q4 -23 4 -64q14 25 45 51q27 27 66 45q76 49 182 52h6q186 0 320 -121q121 -132 121 -328q0 -198 -126 -324q-57 -57 -143 -92q-86 -34 -173 -34q-52 0 -105 12q-90 18 -152 74q-27 20 -43 47q0 -14 2 -23v-502h-176zM299 430.5 q0 -53.5 20 -111.5q25 -53 58 -85.5t90 -61.5q61 -20 115.5 -20t109.5 20q100 53 137 147q19 54 19 111q0 117 -72 197q-37 39 -84 57q-45 23 -108 23q-178 0 -265 -166q-20 -57 -20 -110.5z" />
<glyph unicode="q" horiz-adv-x="1101" d="M98 610q72 168 234 236q80 33 153.5 33t137.5 -15q49 -18 86 -37q76 -55 96 -96l2 64q4 24 4 61h170v-1268h-176v475q0 18 2 28.5t2 25.5q-90 -98 -168 -116.5t-160 -20.5q-174 0 -301 131q-55 61 -86 143q-29 85 -29 175q0 94 33 181zM242 430q0 -53 20 -111 q47 -102 148 -147q57 -20 113.5 -20t111.5 20q57 25 90 61q78 70 80 195q0 127 -80 199q-41 41 -90 57q-45 23 -111.5 23t-113.5 -23q-90 -31 -148 -143q-20 -58 -20 -111z" />
<glyph unicode="r" horiz-adv-x="634" d="M123 0v856h153l7 -115q4 -39 8 -104q57 111 162 176q98 63 180 66l-39 -226q-49 0 -111 -14q-61 -20 -94 -47q-41 -29 -66.5 -77t-25.5 -105v-410h-174z" />
<glyph unicode="s" horiz-adv-x="694" d="M57 90q8 8 33 37q12 27 33 43q41 47 43 47q0 -2 14 -12l41 -21q31 -16 55 -20q27 -10 70 -10t77 24.5t34 61t-27 63.5q-66 39 -138.5 67.5t-113.5 59.5q-94 74 -94 197q0 131 92 192q63 55 189 58q51 0 120 -25q68 -25 115 -72l-92 -123q-20 20 -51 31q-33 10 -39 12 q-28 6 -52 6q-34 0 -60 -12q-44 -20 -44 -63t29 -66q33 -33 112.5 -64.5t126.5 -64.5q103 -74 103 -191q0 -115 -80 -188q-75 -75 -211 -75h-4q-72 0 -158 26q-80 33 -123 82z" />
<glyph unicode="t" horiz-adv-x="620" d="M43 698v156h154v379h174v-379h229v-156h-229v-698h-174v698h-154z" />
<glyph unicode="u" horiz-adv-x="1040" d="M115 236v620h174v-543q2 -61 47 -108q39 -45 129 -51q66 0 113 22q96 33 145 146q20 49 20 112v422h177v-874h-148l-20 237q-43 -102 -129 -172q-85 -68 -217 -68l-2 1q-132 0 -209.5 72.5t-79.5 183.5z" />
<glyph unicode="v" horiz-adv-x="909" d="M8 856h191q176 -344 229 -496q6 -14 15.5 -42.5t13.5 -41.5q2 8 14 38t16 46q53 143 111 258l119 238h190q-154 -303 -237.5 -477t-212.5 -430q-113 215 -228 452q-90 195 -221 455z" />
<glyph unicode="w" horiz-adv-x="1337" d="M18 856h177q14 -37 57 -133q117 -270 154 -447q6 14 18 48q10 35 22.5 62.5t28.5 72.5q18 45 37 85t78 175l-64 137h152q10 -20 47 -103t71.5 -162t47.5 -108q10 -29 35.5 -92t46.5 -115q10 47 28 113q39 106 92.5 219t108.5 248h176l-405 -907q-25 51 -70 149 q-92 236 -190 449l-260 -598z" />
<glyph unicode="x" horiz-adv-x="886" d="M23 0l313 453l-148 202q-66 84 -147 201h215q51 -84 84 -124t57 -77q23 -29 52 -69q49 74 90 125t104 145h195q-16 -29 -50 -74q-55 -78 -93 -131t-68 -96q-33 -43 -76 -111l80 -106q14 -20 64 -87t84 -116t59.5 -85t35.5 -50h-223q-68 92 -105.5 138t-119.5 155 q-57 -86 -106.5 -149.5t-102.5 -143.5h-194z" />
<glyph unicode="y" horiz-adv-x="978" d="M12 856h191q84 -162 111.5 -224.5t68 -144.5t106.5 -268q72 213 289 637h191l-611 -1268h-176q37 78 56 113l49 111q10 25 28 67q20 43 26.5 55.5t26 56.5t31.5 68q-80 160 -96 193q-16 31 -31 63q-33 68 -80 168.5t-86 178.5q-31 68 -94 194z" />
<glyph unicode="z" horiz-adv-x="897" d="M31 0l491 707h-286q-74 0 -120 39.5t-46 103.5v88h157v-27q0 -35 16.5 -45t53.5 -10h547l-477 -684h471v-172h-807z" />
<glyph unicode="{" horiz-adv-x="667" d="M55 524v183q53 4 80 30q53 41 78 160q6 45 6 90v318q0 170 76 219q33 18 72 21t104 3h137v-182h-88q-37 0 -55 -6q-39 -12 -51 -96q-4 -53 -4 -109v-264q0 -59 -16.5 -115.5t-74.5 -122.5q-29 -27 -43 -35q14 -8 43 -34q51 -59 78 -133q12 -45 13 -103v-262 q0 -135 16 -168q16 -31 36.5 -38t57.5 -7h88v-184h-137q-63 0 -100 2t-76 22q-35 25 -55.5 72t-20.5 143v316q0 43 -8 94q-29 176 -156 186z" />
<glyph unicode="|" horiz-adv-x="536" d="M174 -483v1937h191v-1937h-191z" />
<glyph unicode="}" horiz-adv-x="669" d="M63 -127h89q35 0 55 8q41 16 47 94q6 43 6 111v254q0 66 16.5 116t32.5 72q14 25 43 58q6 4 21.5 16t21.5 16q-14 8 -43 35q-92 106 -92 238v264q0 70 -4 111q-10 80 -51 94q-20 6 -53 6h-89v182h232q53 -4 82 -24q74 -41 76 -219v-326q0 -102 26.5 -161.5t57.5 -84.5 q28 -26 79 -26v-183q-86 -6 -131 -94q-33 -78 -32 -178v-315q0 -176 -76 -222q-31 -20 -71 -23t-105 -3h-138v184z" />
<glyph unicode="~" horiz-adv-x="956" d="M147 961q6 78 66 137q61 51 139 51t148 -70q57 -51 104 -51q45 0 68 19q14 6 28.5 27.5t16.5 47.5l98 -6q-4 -47 -19.5 -75.5t-45.5 -59.5q-68 -51 -117 -51t-96 16q-43 23 -77 52.5t-54 39.5q-51 25 -115 -8q-37 -18 -43 -76z" />
<glyph unicode="&#xa1;" horiz-adv-x="538" d="M156 1014q0 51 34.5 83.5t79.5 32.5t79 -33.5t34 -82.5t-34 -83t-79 -34t-77 33q-37 33 -37 84zM176 -434v1212h189v-1212h-189z" />
<glyph unicode="&#xa2;" horiz-adv-x="884" d="M96 279q-84 219 72 430q47 55 111 98q72 41 137 57v131h129v-116q135 -2 270 -99l-113 -133q-27 23 -72.5 40.5t-84.5 19.5v-555q90 6 157 59l56 -68q39 -51 51 -65q-121 -92 -264 -98v-119h-129v133q-78 18 -137 59q-115 66 -183 226zM244 430q0 -88 46 -157.5 t126 -102.5v516q-78 -29 -125 -96q-47 -72 -47 -160z" />
<glyph unicode="&#xa3;" horiz-adv-x="1251" d="M80 0v182h92q33 0 53 8q43 16 49 86q6 39 7 103v178h-136v184h136v369q0 74 32 135q104 201 432 201q242 0 357 -211q-100 -59 -144 -82q-14 12 -24 29q-25 39 -103 67q-41 12 -108 13q-127 0 -188 -54q-66 -49 -66 -149v-318h242v-184h-242v-217q0 -53 -5 -92t-38 -66 h342q68 0 109 4q82 8 94 52q8 23 8 53v88q63 0 94 2h96v-205q0 -45 -10 -70q-10 -59 -110 -94q-49 -12 -125 -12h-844z" />
<glyph unicode="&#xa4;" horiz-adv-x="958" d="M162 506l59 59q-53 82 -53 168t51 172q-4 4 -10 8.5t-10 10.5t-9 10l-28 29l90 90l59 -58q184 104 338 0l58 58l90 -90l-54 -56q49 -82 52 -172q0 -92 -56 -168l60 -59l-90 -90l-64 61q-72 -49 -166 -49t-166 47l-61 -61zM297 737q0 -78 54.5 -130t130 -52t128.5 51 q55 51 55.5 131t-55.5 131q-53 55 -128.5 55.5t-129.5 -55.5q-55 -53 -55 -131z" />
<glyph unicode="&#xa5;" horiz-adv-x="1429" d="M55 1485h254q29 -47 71 -127t99 -187l117 -221q18 -37 52 -100.5t48 -91.5l23 -68q6 10 14 37t49 100.5t176 343.5q68 125 93.5 175.5t48 89.5t26.5 49h252l-452 -821h125v-125h-193l-27 -50v-159h220v-125h-220v-205h-225v205h-237v125h237v159l-28 50h-209v125h139 q-61 113 -82 149l-92 166q-43 82 -105 192q-63 111 -106 191t-53 98q-12 18 -15 25z" />
<glyph unicode="&#xa6;" horiz-adv-x="540" d="M176 242h191v-727h-191v727zM176 727v727h191v-727h-191z" />
<glyph unicode="&#xa7;" horiz-adv-x="784" d="M100.5 793.5q20.5 121.5 98.5 191.5q27 20 63 39q45 18 74 25q-25 39 -37 63.5t-41 69.5q-43 76 -53 121t-4 86q12 37 39.5 62.5t111.5 74.5t105 63q33 -53 54 -92t42 -65q-25 -8 -80 -46q-49 -31 -55 -62.5t43 -115.5h2l186 -309q33 -53 39 -104q23 -102 -37 -209 q-57 -92 -135 -127q-35 -18 -74 -27q20 -33 45 -78q27 -45 52.5 -87t38.5 -93q25 -98 -33 -149q-18 -20 -73.5 -55.5t-68 -40.5t-37 -20t-36.5 -22l-94 158l77 47q29 16 39 31q13 12 13 37q-8 57 -84 176t-91.5 146.5t-37.5 60.5l-17 32l-2 5q-53 92 -32.5 213.5zM264 758 q-6 -57 31 -94q33 -43 87 -43.5t93 34.5q37 35 40 87.5t-32 91.5q-39 39 -90 40q-49 -4 -89 -32.5t-40 -83.5z" />
<glyph unicode="&#xa8;" horiz-adv-x="768" d="M94 1084.5q0 50.5 35 83t80 32.5t80 -32.5t35 -83t-35 -83t-80 -32.5t-80 32.5t-35 83zM483 1084.5q0 50.5 35 83t79 32.5t79 -33.5t35 -83t-35 -84.5q-37 -31 -80 -30.5t-78 33t-35 83z" />
<glyph unicode="&#xa9;" horiz-adv-x="1288" d="M111 762q0 233 155 381q74 74 172 110q90 41 207 41t207 -41q201 -76 287 -278q43 -100 42 -213t-42 -209q-86 -195 -287 -283q-100 -39 -206.5 -39t-207.5 39q-201 86 -286 281q-41 98 -41 211zM178 763q0 -202 135 -337q144 -133 332.5 -133t331.5 133q135 133 135 336 q0 201 -135 340q-131 131 -332 131q-199 0 -332 -133q-135 -135 -135 -337zM315 764q0 80 29 139q23 61 74 109q41 43 106.5 71.5t130 28.5t117.5 -16.5t72 -30.5q-10 -10 -12.5 -16.5t-4.5 -10.5l-4 -8l-12 -18q-2 -6 -14 -27q-45 31 -115 31q-72 0 -113 -21 q-94 -33 -133 -131q-18 -43 -18 -89t16 -95q18 -41 51 -78q76 -72 177 -74q51 0 104 17q47 20 51 26l43 -90q-20 -12 -74.5 -34.5t-130.5 -22.5q-78 0 -143 27q-63 31 -106 73q-90 106 -91 240z" />
<glyph unicode="&#xaa;" horiz-adv-x="878" d="M84 935.5q0 65.5 27 121.5q47 119 172 176q55 27 110 27q94 0 160 -39q25 -8 43 -31t22 -33l5 86h122v-616h-127v78q-4 -8 -24 -29q-80 -61 -168 -64q-90 0 -150 27q-119 55 -167 170q-25 61 -25 126.5zM211 936q0 -86 57 -143q55 -57 145.5 -57.5t147.5 59.5 q57 55 57 141t-57 143.5t-146 57.5t-146.5 -57.5t-57.5 -143.5z" />
<glyph unicode="&#xab;" horiz-adv-x="927" d="M82 496q4 4 24 26q18 20 40 44t34 40q25 25 80 88.5t84 93.5q29 33 51.5 57.5t40.5 43.5v-215q-2 -2 -56 -67.5t-58 -74.5q-23 -25 -31 -36q6 -8 20.5 -25.5t40.5 -48.5q27 -33 54 -68q29 -37 30 -37v-215zM436 496q18 18 35 39q59 59 128 139t93 104q37 43 66 72 q16 20 35 39v-213l-148 -180l148 -179v-215z" />
<glyph unicode="&#xac;" horiz-adv-x="999" d="M131 381v135h748v-209h-189v74h-559z" />
<glyph unicode="&#xad;" horiz-adv-x="604" d="M113 354v183h381v-183h-381z" />
<glyph unicode="&#xae;" horiz-adv-x="1288" d="M111 762q0 233 155 381q74 74 172 110q90 41 207 41t207 -41q201 -76 287 -278q43 -100 42 -213t-42 -209q-86 -195 -287 -283q-100 -39 -206.5 -39t-207.5 39q-201 86 -286 281q-41 98 -41 211zM178 763q0 -202 135 -337q144 -133 332.5 -133t331.5 133q135 133 135 336 q0 201 -135 340q-131 131 -332 131q-199 0 -332 -133q-135 -135 -135 -337zM428 430v703h193q111 0 181 -57.5t68 -164.5q0 -139 -106 -200q49 -78 97 -156t79 -125h-127l-160 250h-118v-250h-107zM535 780h96q63 0 106 47q27 39 27 78q0 41 -27 86q-43 43 -106 43h-96v-254 z" />
<glyph unicode="&#xaf;" horiz-adv-x="827" d="M176 989v119h479v-119h-479z" />
<glyph unicode="&#xb0;" horiz-adv-x="606" d="M90 1163q0 41 16 82q35 82 115 115q45 16 85 16t80 -15t71 -46q61 -61 61 -152.5t-59.5 -151t-151.5 -61.5q-41 0 -84 17q-78 31 -117 112q-16 43 -16 84zM209 1159q0 -43 29 -65q26 -29 69 -29t70 29q29 25 29 66.5t-29 70.5t-70 29t-68.5 -29t-29.5 -72z" />
<glyph unicode="&#xb1;" horiz-adv-x="1015" d="M135 170v184h748v-184h-748zM135 719v182h279v285h190v-285h279v-182h-279v-281h-190v281h-279z" />
<glyph unicode="&#xb2;" horiz-adv-x="690" d="M115 1235q0 98 57 143q23 27 66 47q96 35 182 0q78 -35 112 -114q14 -47 15 -82q0 -100 -63.5 -194.5t-137.5 -176.5h238v-90h-459l123 123q102 102 178 223q27 59 27 98q0 74 -43 107q-12 12 -52.5 29.5t-76.5 -5.5q-39 -20 -56 -45q-18 -23 -18 -60.5t9 -59t30 -50.5 l-25 -30q-10 -8 -28 -27q-35 20 -56.5 70.5t-21.5 93.5z" />
<glyph unicode="&#xb3;" horiz-adv-x="579" d="M90 844l68 63q37 -47 94 -47t96 39t39 93.5t-39 93t-82 38.5t-80 -16q23 39 70 110.5t80 133.5h-205v90h352q-41 -72 -76.5 -126t-70.5 -116q63 -27 104 -82q41 -53 41 -111.5t-18 -101.5q-37 -82 -121 -119q-43 -16 -90 -16q-90 0 -162 74z" />
<glyph unicode="&#xb4;" horiz-adv-x="579" d="M207 995l188 275h189l-244 -275h-133z" />
<glyph unicode="&#xb5;" horiz-adv-x="1138" d="M162 236v620h174v-543q2 -59 45 -106t131 -53q66 0 113 22q47 16 86 55q78 78 80 203v422h176v-874h-148l-20 237q-45 -102 -131 -170.5t-217 -68.5q-66 0 -115 18v-410h-172v617q-2 6 -2 31z" />
<glyph unicode="&#xb6;" horiz-adv-x="1155" d="M70 1217q0 72 24 133q57 123 180 180q59 27 134 26h526v-1556h-186v1376h-154v-1376h-186v879q-74 0 -137.5 28.5t-102.5 69.5q-100 90 -98 240z" />
<glyph unicode="&#xb7;" horiz-adv-x="452" d="M113 586q0 51 34.5 83.5t79.5 32.5t80 -31.5t35 -84.5q0 -51 -36 -83t-79 -32t-80 31q-34 33 -34 84z" />
<glyph unicode="&#xb8;" horiz-adv-x="935" d="M215 -365q18 8 58 30t44 24q10 -35 37 -54q25 -23 70 -22.5t72 33.5q25 35 24.5 76.5t-22.5 68.5q-23 23 -50.5 42.5t-48 40t-20.5 52.5v74h115v-14q0 -35 10 -47q6 -16 16 -24.5t20.5 -16t12.5 -9.5q12 -4 43 -26q63 -47 63 -149.5t-57 -168.5q-20 -29 -66.5 -50 t-105.5 -21q-61 0 -127 39q-61 45 -88 122z" />
<glyph unicode="&#xb9;" horiz-adv-x="372" d="M94 1358v84h148v-621h-86v537h-62z" />
<glyph unicode="&#xba;" horiz-adv-x="819" d="M84 934q0 74 27 127q25 59 67 102q96 96 234 97q135 0 230 -95.5t95 -230.5t-94 -225q-92 -96 -227 -97q-70 0 -129 25q-125 49 -176 168q-27 55 -27 129zM209 936q0 -86 57.5 -143.5t141.5 -57.5q35 0 77 15q45 23 64 45q61 47 61 141q0 39 -16 79t-45 62q-18 23 -64 45 q-43 14 -77 15q-84 0 -141.5 -57.5t-57.5 -143.5z" />
<glyph unicode="&#xbb;" horiz-adv-x="925" d="M137 102v215q23 23 55.5 66t61.5 76q21 29 31 37l-148 180v213q18 -18 35 -39q29 -29 66 -72q27 -25 79 -86t76 -86q37 -45 101 -110zM494 102v215l145 179l-145 178v215l354 -393z" />
<glyph unicode="&#xbc;" horiz-adv-x="1640" d="M88 1307v131h227v-959h-135v828h-92zM377 -39l577 1567h191l-580 -1567h-188zM823 260q137 180 299 379t299 379v-623h150v-135h-150v-260h-141v260h-457zM1094 395h186v242z" />
<glyph unicode="&#xbd;" horiz-adv-x="1714" d="M86 1309v129h227v-959h-135v830h-92zM385 -39l578 1567h190l-580 -1567h-188zM971 666q0 127 82 211q82 90 226 90t224 -93q88 -88 86 -215q0 -72 -24 -139q-33 -109 -152 -266q-98 -117 -108 -127h340v-129h-660q119 121 193 195q162 166 239 303q39 82 39 139 q0 100 -61 156q-27 25 -60 34q-121 41 -196 -51q-35 -63 -35 -108q0 -92 57 -152l-78 -82q-45 25 -79 96q-33 72 -33 138z" />
<glyph unicode="&#xbe;" horiz-adv-x="2025" d="M78 520q57 56 106 101q61 -72 150.5 -72t149 59.5t61.5 149.5q0 88 -62 143q-51 59 -126.5 60.5t-125.5 -23.5q51 94 118 191.5t116 191.5h-322v141h551q-43 -76 -116 -188q-78 -127 -113 -191q96 -39 160.5 -125t64.5 -180q0 -244 -217 -344q-145 -55 -280 4 q-68 33 -115 82zM727 -39l578 1567h190l-580 -1567h-188zM1208 260q137 180 299 379t299 379v-623h150v-135h-150v-260h-141v260h-457zM1479 395h186v242z" />
<glyph unicode="&#xbf;" horiz-adv-x="972" d="M82 2q0 102 53 191q55 86 150 155q18 14 59 43q25 14 59 47q74 70 74 164v162h189v-201q0 -115 -76 -182q-23 -25 -78 -62q-37 -20 -90 -63q-147 -113 -148 -268q0 -90 58 -158q61 -63 165.5 -63t160 51t85.5 149l164 -61q-20 -53 -43 -105q-23 -49 -71 -100t-119 -82 q-70 -35 -170 -35q-193 0 -303 119q-55 55 -86 129q-33 68 -33 170zM461 995q0 49 35 82q36 31 78 31t78 -30.5t36 -81t-35 -84t-79 -33.5t-77.5 33.5t-35.5 82.5z" />
<glyph unicode="&#xc0;" d="M2 0l662 1554q8 -25 45 -104q33 -84 139 -336t161.5 -382t145.5 -339t115.5 -272.5t38.5 -87.5q12 -27 14 -33h-221l-178 426h-525l-176 -426h-221zM389 1845h189q61 -90 83.5 -122.5t102.5 -151.5h-131q-82 90 -111.5 125t-70.5 80t-62 69zM477 614h371 q-49 119 -69.5 173.5t-33.5 72.5q-6 18 -19 48t-24 57q-8 27 -14 38t-12 37q-10 25 -12 45q-2 -35 -21 -69z" />
<glyph unicode="&#xc1;" d="M2 0l662 1554q8 -25 45 -104q33 -84 139 -336t161.5 -382t145.5 -339t115.5 -272.5t38.5 -87.5q12 -27 14 -33h-221l-178 426h-525l-176 -426h-221zM477 614h371q-49 119 -69.5 173.5t-33.5 72.5q-6 18 -19 48t-24 57q-8 27 -14 38t-12 37q-10 25 -12 45q-2 -35 -21 -69z M567 1571l189 274h188l-244 -274h-133z" />
<glyph unicode="&#xc2;" d="M2 0l662 1554q8 -25 45 -104q33 -84 139 -336t161.5 -382t145.5 -339t115.5 -272.5t38.5 -87.5q12 -27 14 -33h-221l-178 426h-525l-176 -426h-221zM440 1573q72 102 128.5 188t121.5 187q66 -100 122 -186.5t128 -188.5h-131l-119 160q-4 -4 -15 -20.5t-40 -53.5 t-37 -53l-25 -33h-133zM477 614h371q-49 119 -69.5 173.5t-33.5 72.5q-6 18 -19 48t-24 57q-8 27 -14 38t-12 37q-10 25 -12 45q-2 -35 -21 -69z" />
<glyph unicode="&#xc3;" d="M2 0l662 1554q8 -25 45 -104q33 -84 139 -336t161.5 -382t145.5 -339t115.5 -272.5t38.5 -87.5q12 -27 14 -33h-221l-178 426h-525l-176 -426h-221zM330 1599q8 92 67 138q51 51 133 51t152 -70q57 -51 96 -51t78 19q41 29 43 75l98 -6q-8 -90 -67 -135q-51 -51 -131 -51 t-154 65q-37 33 -55 43q-49 27 -117 -8q-37 -18 -43 -76zM477 614h371q-49 119 -69.5 173.5t-33.5 72.5q-6 18 -19 48t-24 57q-8 27 -14 38t-12 37q-10 25 -12 45q-2 -35 -21 -69z" />
<glyph unicode="&#xc4;" d="M2 0l662 1554q8 -25 45 -104q33 -84 139 -336t161.5 -382t145.5 -339t115.5 -272.5t38.5 -87.5q12 -27 14 -33h-221l-178 426h-525l-176 -426h-221zM352 1699q0 50 35 84t80 34t80 -34t35 -84t-37 -81q-33 -33 -78 -33t-78 33q-37 31 -37 81zM477 614h371 q-49 119 -69.5 173.5t-33.5 72.5q-6 18 -19 48t-24 57q-8 27 -14 38t-12 37q-10 25 -12 45q-2 -35 -21 -69zM741 1699q0 50 35 84t79 34t79 -34t35 -84t-35 -82t-79 -32t-77 33q-37 31 -37 81z" />
<glyph unicode="&#xc5;" d="M2 0l662 1554q8 -25 45 -104q33 -84 139 -336t161.5 -382t145.5 -339t115.5 -272.5t38 -89t14.5 -31.5h-221l-178 426h-525l-176 -426h-221zM477 614h371q-49 119 -69.5 173.5t-33.5 72.5q-6 18 -19 48t-24 57q-8 27 -14 38t-12 37q-10 25 -12 45q-2 -18 -8.5 -34.5 t-8.5 -24.5q-2 -6 -6 -14zM489 1739q0 70 52 121q55 51 125 53q70 0 120 -51.5t52 -122.5q0 -72 -52.5 -123t-103.5 -51q-123 0 -178 106q-15 31 -15 68zM594 1737.5q0 -29.5 20.5 -50t50 -20.5t52.5 21q20 25 20 50t-20 52q-27 20 -52.5 20t-50.5 -20q-20 -23 -20 -52.5z " />
<glyph unicode="&#xc6;" horiz-adv-x="1484" d="M4 0l631 1485h747v-203h-538v-434h456v-207h-456v-434h567v-207h-776v426h-234l-176 -426h-221zM473 600h162v393z" />
<glyph unicode="&#xc7;" horiz-adv-x="1304" d="M80 739.5q0 157.5 59 300.5q119 279 410 404q139 57 313 57t318 -63q49 -25 65 -41q-6 -10 -100 -174q-109 68 -289 67q-119 0 -222.5 -45t-175 -118.5t-113.5 -173t-42 -207t41 -197.5q37 -94 111 -172q63 -72 165.5 -119t192.5 -47q195 0 338 74q33 14 39 24l94 -203 q-53 -39 -158 -73q-104 -41 -262 -47q0 -27 8 -47q25 -35 46 -45q23 -10 51 -33q61 -45 61 -146q0 -96 -55 -170q-29 -31 -70 -53q-43 -18 -105.5 -18t-123.5 39q-63 45 -90 122q27 10 43 21q18 10 34.5 19.5t24.5 13.5q10 -35 37 -54q25 -23 70 -22.5t71.5 33t24.5 78.5 q0 45 -23 63q-16 20 -49 41q-33 29 -51 52.5t-18 74.5v33q-162 12 -283 78q-121 61 -210 165.5t-130 227.5q-47 123 -47 280.5z" />
<glyph unicode="&#xc8;" horiz-adv-x="1261" d="M182 0v1485h975v-203h-749v-434h667v-207h-667v-434h778v-207h-1004zM451 1845h188q61 -90 82.5 -122.5t103.5 -151.5h-131q-82 90 -111.5 125t-70.5 80t-61 69z" />
<glyph unicode="&#xc9;" horiz-adv-x="1261" d="M182 0v1485h975v-203h-749v-434h667v-207h-667v-434h778v-207h-1004zM563 1571l189 274h188l-244 -274h-133z" />
<glyph unicode="&#xca;" horiz-adv-x="1261" d="M182 0v1485h975v-203h-749v-434h667v-207h-667v-434h778v-207h-1004zM444 1573q72 102 128.5 188t121.5 187q66 -100 122 -186.5t128 -188.5h-131l-119 160l-116 -160h-134z" />
<glyph unicode="&#xcb;" horiz-adv-x="1261" d="M182 0v1485h975v-203h-749v-434h667v-207h-667v-434h778v-207h-1004zM389 1699q0 50 35 84t80 34t80 -33q35 -35 34.5 -85t-36.5 -81q-33 -33 -78 -33t-78 33q-37 31 -37 81zM778 1699q0 50 35 84t79 34t79 -34t35 -84t-35 -82t-79 -32t-77 33q-37 31 -37 81z" />
<glyph unicode="&#xcc;" horiz-adv-x="585" d="M23 1845h188q82 -119 103.5 -150.5t82.5 -123.5h-131q-82 90 -111.5 125t-70.5 80t-61 69zM182 0v1485h224v-1485h-224z" />
<glyph unicode="&#xcd;" horiz-adv-x="585" d="M182 0v1485h224v-1485h-224zM195 1571l188 274h188l-243 -274h-133z" />
<glyph unicode="&#xce;" horiz-adv-x="585" d="M47 1573q72 102 128 188t122 187q66 -100 122 -186.5t128 -188.5h-131q-2 2 -6 8t-11 12q-6 4 -12 16.5t-30.5 43t-37.5 49.5q-12 17 -22 31l-117 -160h-133zM182 0v1485h224v-1485h-224z" />
<glyph unicode="&#xcf;" horiz-adv-x="585" d="M-10 1699q0 50 34.5 84t78.5 34t81 -33q35 -35 35 -85t-34.5 -82t-80 -32t-80 32t-34.5 82zM182 0v1485h224v-1485h-224zM379 1700q0 49 35 83t80 34t78.5 -34t33.5 -84t-37 -81q-32 -33 -76 -33t-79 33t-35 82z" />
<glyph unicode="&#xd0;" horiz-adv-x="1468" d="M51 651v150h146v684h372q414 0 635 -244q182 -215 183.5 -527.5t-220.5 -518.5q-96 -90 -237 -146q-135 -49 -287 -49h-446v651h-146zM420 213h190q236 0 398 135q158 143 157 389q0 256 -170 404q-78 68 -172 96q-90 33 -192 33h-211v-469h246v-150h-246v-438z" />
<glyph unicode="&#xd1;" horiz-adv-x="1662" d="M180 0v1554q16 -20 74 -81q61 -59 123 -125q49 -45 155 -152l173 -166q90 -84 172 -166q113 -104 155 -149l123 -123q43 -43 72 -80l39 -57l-6 69v961h223v-1553q-25 33 -111 119l-188 189q-63 63 -254 249q-401 391 -492 502l-39 53l7 -65v-979h-226zM494 1581 q8 92 67 137q51 51 133 51t152 -69q57 -51 95 -51t79 18q39 29 43 76l98 -6q-4 -82 -67 -135q-25 -25 -58 -37q-80 -31 -151 4q-39 14 -75 46t-56 44q-25 10 -53.5 10t-64.5 -18.5t-42 -75.5z" />
<glyph unicode="&#xd2;" horiz-adv-x="1671" d="M78 741q2 308 221 531q106 109 242 170q141 59 293.5 59t295.5 -59q139 -63 242 -166q223 -233 223 -535q0 -154 -59 -292t-164 -244q-106 -104 -246.5 -162.5t-291.5 -58.5q-309 0 -535 221q-221 227 -221 536zM301 739q0 -113 41 -211t115.5 -172.5t173 -116.5 t209.5 -44q111 0 209 45q207 92 282 288q43 98 43 212t-41 212q-86 203 -289 291q-94 43 -206.5 43t-208.5 -43q-98 -43 -170 -117q-158 -158 -158 -387zM604 1845h189q82 -119 103.5 -150.5t82.5 -123.5h-131q-82 90 -111.5 125t-70.5 80t-62 69z" />
<glyph unicode="&#xd3;" horiz-adv-x="1671" d="M78 741q2 308 221 531q106 109 242 170q141 59 293.5 59t295.5 -59q139 -63 242 -166q223 -233 223 -535q0 -154 -59 -292t-164 -244q-106 -104 -246.5 -162.5t-291.5 -58.5q-309 0 -535 221q-221 227 -221 536zM301 739q0 -113 41 -211t115.5 -172.5t173 -116.5 t209.5 -44q111 0 209 45q207 92 282 288q43 98 43 212t-41 212q-86 203 -289 291q-94 43 -206.5 43t-208.5 -43q-98 -43 -170 -117q-158 -158 -158 -387zM725 1571l188 274h189l-244 -274h-133z" />
<glyph unicode="&#xd4;" horiz-adv-x="1671" d="M78 741q2 308 221 531q106 109 242 170q141 59 293.5 59t295.5 -59q139 -63 242 -166q223 -233 223 -535q0 -154 -59 -292t-164 -244q-106 -104 -246.5 -162.5t-291.5 -58.5q-309 0 -535 221q-221 227 -221 536zM301 739q0 -113 41 -211t115.5 -172.5t173 -116.5 t209.5 -44q111 0 209 45q207 92 282 288q43 98 43 212t-41 212q-86 203 -289 291q-94 43 -206.5 43t-208.5 -43q-98 -43 -170 -117q-158 -158 -158 -387zM598 1573q20 31 63.5 92t94.5 140t92 143q43 -63 94 -141t91 -140.5t65 -93.5h-131q-2 2 -6 8q-2 6 -9 12 q-6 4 -13 16.5t-31.5 43t-32 41t-15.5 23t-12 16.5l-117 -160h-133z" />
<glyph unicode="&#xd5;" horiz-adv-x="1671" d="M78 741q2 308 221 531q106 109 242 170q141 59 293.5 59t295.5 -59q139 -63 242 -166q223 -233 223 -535q0 -154 -59 -292t-164 -244q-106 -104 -246.5 -162.5t-291.5 -58.5q-309 0 -535 221q-221 227 -221 536zM301 739q0 -113 41 -211t115.5 -172.5t173 -116.5 t209.5 -44q111 0 209 45q207 92 282 288q43 98 43 212t-41 212q-86 203 -289 291q-94 43 -206.5 43t-208.5 -43q-98 -43 -170 -117q-158 -158 -158 -387zM500 1651q6 82 65 137q68 51 143.5 51t143.5 -70q68 -59 127 -51q31 4 45 19q41 25 45 75l98 -6q-6 -78 -65 -135 q-61 -51 -115.5 -51t-96.5 18.5t-75 47.5q-33 31 -57 43q-21 10 -49.5 10t-65.5 -18.5t-43 -75.5z" />
<glyph unicode="&#xd6;" horiz-adv-x="1671" d="M78 741q2 308 221 531q106 109 242 170q141 59 293.5 59t295.5 -59q139 -63 242 -166q223 -233 223 -535q0 -154 -59 -292t-164 -244q-106 -104 -246.5 -162.5t-291.5 -58.5q-309 0 -535 221q-221 227 -221 536zM301 739q0 -113 41 -211t115.5 -172.5t173 -116.5 t209.5 -44q111 0 209 45q207 92 282 288q43 98 43 212t-41 212q-86 203 -289 291q-94 43 -206.5 43t-208.5 -43q-98 -43 -170 -117q-158 -158 -158 -387zM537 1700q0 49 34.5 83t79.5 34t80 -34t35 -84t-37 -81q-33 -33 -78 -33t-78 33q-36 33 -36 82zM926 1699 q0 50 34.5 84t78.5 34t79 -33q35 -35 35 -85t-35 -82t-79 -32t-76 33q-37 31 -37 81z" />
<glyph unicode="&#xd7;" horiz-adv-x="909" d="M102 541l162 166l195 -195l190 190l154 -161l-182 -187l188 -192l-164 -162l-192 188l-185 -186q-84 80 -159 160l186 188z" />
<glyph unicode="&#xd8;" horiz-adv-x="1671" d="M78 738.5q0 156.5 57 291.5q57 133 162.5 241.5t243.5 170.5q141 59 295 59q229 0 434 -141l119 139l104 -96l-115 -135q102 -106 158 -240q59 -127 59 -285q0 -313 -223 -538q-106 -104 -246.5 -162.5t-289.5 -58.5q-238 0 -437 139q-92 -115 -133 -156l-108 94l131 154 q-98 104 -154 240q-57 127 -57 283.5zM301 753.5q0 -214.5 131 -370.5l698 813q-143 92 -292 90q-111 0 -210.5 -43t-168.5 -117q-158 -158 -158 -372.5zM539 287q133 -92 301 -92q111 0 209 45q207 92 282 288q43 98 43 205q0 217 -137 371z" />
<glyph unicode="&#xd9;" horiz-adv-x="1462" d="M166 524v961h225v-955q0 -74 24.5 -129t71.5 -110q109 -96 242 -96q76 0 135 26q55 20 111 70q100 113 98 239v955h225v-961q0 -125 -45 -221q-39 -92 -118 -172q-176 -147 -410 -147q-231 0 -395 150.5t-164 389.5zM492 1845h188q61 -90 83.5 -122.5t102.5 -151.5h-131 q-82 90 -111.5 125t-70.5 80t-61 69z" />
<glyph unicode="&#xda;" horiz-adv-x="1462" d="M166 524v961h225v-955q0 -74 24.5 -129t71.5 -110q109 -96 242 -96q76 0 135 26q55 20 111 70q100 113 98 239v955h225v-961q0 -125 -45 -221q-39 -92 -118 -172q-176 -147 -410 -147q-231 0 -395 150.5t-164 389.5zM629 1571l188 274h189l-244 -274h-133z" />
<glyph unicode="&#xdb;" horiz-adv-x="1462" d="M166 524v961h225v-955q0 -74 24.5 -129t71.5 -110q109 -96 242 -96q76 0 135 26q55 20 111 70q100 113 98 239v955h225v-961q0 -125 -45 -221q-39 -92 -118 -172q-176 -147 -410 -147q-231 0 -395 150.5t-164 389.5zM494 1618q72 104 124 188q59 86 125 187 q66 -98 122.5 -184.5t127.5 -190.5h-131l-119 160l-116 -160h-133z" />
<glyph unicode="&#xdc;" horiz-adv-x="1462" d="M166 524v961h225v-955q0 -74 24.5 -129t71.5 -110q109 -96 242 -96q76 0 135 26q55 20 111 70q100 113 98 239v955h225v-961q0 -125 -45 -221q-39 -92 -118 -172q-176 -147 -410 -147q-231 0 -395 150.5t-164 389.5zM444 1699q0 50 35 84t80 34t80 -34t35 -84t-35 -82 t-80 -32t-80 32t-35 82zM834 1699q0 50 34 85q35 33 79 33t79 -34t35 -84t-37 -81q-35 -33 -78 -33q-45 0 -78.5 32t-33.5 82z" />
<glyph unicode="&#xdd;" horiz-adv-x="1341" d="M8 1485h254q29 -47 70 -127t100 -187l117 -221q18 -37 52 -100.5t48 -91.5l23 -68q6 10 14 37t26.5 58.5t61.5 115.5q43 86 82 160t90 174t77 149.5t56 100.5h252l-547 -996v-489h-225v489q-33 51 -131 233.5t-133 244t-76 137.5l-55 104q-57 102 -101.5 182t-54.5 95z M575 1571l189 274h188l-243 -274h-134z" />
<glyph unicode="&#xde;" horiz-adv-x="1163" d="M182 0v1454h226v-242h180q236 0 383 -122q147 -125 147 -336t-112 -340q-55 -68 -153.5 -112t-236.5 -44h-208v-258h-226zM408 469h202q78 0 138 27q55 31 88 69q57 78 57 174q0 162 -148 236q-51 27 -133 26h-204v-532z" />
<glyph unicode="&#xdf;" horiz-adv-x="1150" d="M57 686v182h131v11q0 223 115 354q47 59 127 98q78 33 166 33q170 0 270.5 -95t100.5 -231q0 -68 -29 -137q-33 -66 -94 -92q39 -8 82 -43q47 -33 78 -82q86 -111 83 -254q0 -184 -137 -315q-59 -59 -143 -99q-182 -74 -350 0q31 68 39 82l36 86q48 -20 98 -20t105 20 q53 27 86 59.5t60 86.5q20 55 20 106q0 109 -83 191t-189 73h-4v185q68 0 112 39q43 39 43 104.5t-45 109.5t-153 44q-209 0 -207 -318v-864h-187v686h-131z" />
<glyph unicode="&#xe0;" horiz-adv-x="1099" d="M63 419q0 91 35 179q78 168 242 244q80 37 151.5 37t133.5 -15q98 -35 147 -86q23 -25 31 -43l8 121h168v-856h-176v109q-41 -70 -176 -115q-45 -14 -127 -14t-166 35.5t-144 95.5q-63 68 -92 141q-35 76 -35 167zM190 1270h189q82 -121 103.5 -153t82.5 -122h-131 q-82 88 -111.5 124t-70.5 81q-41 43 -62 70zM240 430.5q0 -63.5 22 -111.5q33 -96 146 -147q57 -20 111 -20t116 20q57 29 90 61q76 74 78 195q0 119 -78 199q-88 80 -207 80q-66 0 -110 -23q-45 -16 -87 -57t-59 -86q-22 -47 -22 -110.5z" />
<glyph unicode="&#xe1;" horiz-adv-x="1099" d="M63 419q0 91 35 179q78 168 242 244q80 37 151.5 37t133.5 -15q98 -35 147 -86q23 -25 31 -43l8 121h168v-856h-176v109q-41 -70 -176 -115q-45 -14 -127 -14t-166 35.5t-144 95.5q-63 68 -92 141q-35 76 -35 167zM240 430.5q0 -63.5 22 -111.5q33 -96 146 -147 q57 -20 111 -20t116 20q57 29 90 61q76 74 78 195q0 119 -78 199q-88 80 -207 80q-66 0 -110 -23q-45 -16 -87 -57t-59 -86q-22 -47 -22 -110.5zM436 995l189 275h188l-244 -275h-133z" />
<glyph unicode="&#xe2;" horiz-adv-x="1099" d="M63 419q0 91 35 179q78 168 242 244q80 37 151.5 37t133.5 -15q98 -35 147 -86q23 -25 31 -43l8 121h168v-856h-176v109q-41 -70 -176 -115q-45 -14 -127 -14t-166 35.5t-144 95.5q-63 68 -92 141q-35 76 -35 167zM240 430.5q0 -63.5 22 -111.5q33 -96 146 -147 q57 -20 111 -20t116 20q57 29 90 61q76 74 78 195q0 119 -78 199q-88 80 -207 80q-66 0 -110 -23q-45 -16 -87 -57t-59 -86q-22 -47 -22 -110.5zM279 993q159 234 249 375q29 -47 250 -375h-131q-18 27 -53 71t-48.5 64.5t-17.5 24.5q-8 -8 -26 -37q-16 -27 -33 -43 q-31 -41 -37 -49l-20 -31h-133z" />
<glyph unicode="&#xe3;" horiz-adv-x="1099" d="M63 419q0 91 35 179q78 168 242 244q80 37 151.5 37t133.5 -15q98 -35 147 -86q23 -25 31 -43l8 121h168v-856h-176v109q-41 -70 -176 -115q-45 -14 -127 -14t-166 35.5t-144 95.5q-63 68 -92 141q-35 76 -35 167zM195 961q8 90 67 137q51 51 133 51t152 -70 q57 -51 96 -51t78 19q41 29 43 75l98 -6q-8 -90 -67 -135q-51 -51 -131 -51t-154 65q-37 33 -55 43q-49 27 -117 -8q-37 -18 -43 -76zM240 430.5q0 -63.5 22 -111.5q33 -96 146 -147q57 -20 111 -20t116 20q57 29 90 61q76 74 78 195q0 119 -78 199q-88 80 -207 80 q-66 0 -110 -23q-45 -16 -87 -57t-59 -86q-22 -47 -22 -110.5z" />
<glyph unicode="&#xe4;" horiz-adv-x="1099" d="M63 419q0 91 35 179q78 168 242 244q80 37 151.5 37t133.5 -15q98 -35 147 -86q23 -25 31 -43l8 121h168v-856h-176v109q-41 -70 -176 -115q-45 -14 -127 -14t-166 35.5t-144 95.5q-63 68 -92 141q-35 76 -35 167zM215 1083.5q0 49.5 35 83t80 33.5t79.5 -35t34.5 -83 t-34 -83q-37 -31 -80 -30.5t-80 30.5q-35 35 -35 84.5zM240 430.5q0 -63.5 22 -111.5q33 -96 146 -147q57 -20 111 -20t116 20q57 29 90 61q76 74 78 195q0 119 -78 199q-88 80 -207 80q-66 0 -110 -23q-45 -16 -87 -57t-59 -86q-22 -47 -22 -110.5zM604 1083.5 q0 49.5 35 83t79 33.5t78.5 -32.5t34.5 -83t-34.5 -83t-77.5 -32.5t-80 30q-35 35 -35 84.5z" />
<glyph unicode="&#xe5;" horiz-adv-x="1099" d="M63 419q0 91 35 179q78 168 242 244q80 37 151.5 37t133.5 -15q98 -35 147 -86q23 -25 31 -43l8 121h168v-856h-176v109q-41 -70 -176 -115q-45 -14 -127 -14t-166 35.5t-144 95.5q-63 68 -92 141q-35 76 -35 167zM240 430.5q0 -63.5 22 -111.5q33 -96 146 -147 q57 -20 111 -20t116 20q57 29 90 61q76 74 78 195q0 119 -78 199q-88 80 -207 80q-66 0 -110 -23q-45 -16 -87 -57t-59 -86q-22 -47 -22 -110.5zM354 1110q0 68 52 127q61 51 127.5 51t117.5 -51t51 -123q0 -109 -106 -162q-29 -14 -68 -14q-72 0 -123 51t-51 121zM459 1112 q0 -31 20.5 -51.5t50 -20.5t52.5 21q20 25 20 51.5t-20 50.5q-23 20 -52.5 20.5t-50 -19t-20.5 -52.5z" />
<glyph unicode="&#xe6;" horiz-adv-x="1421" d="M74 139q-57 174 78 283q76 59 188 59h201q12 82 53 164q-43 61 -184.5 61.5t-241.5 -63.5l-72 135q152 101 339.5 101t273.5 -99q61 49 131 72q66 27 147 27q145 0 254 -89.5t154 -226.5q-106 -37 -280.5 -109.5t-203.5 -82.5q-31 -10 -87 -33t-85 -33q33 -68 101 -112 q70 -41 149 -41q127 0 203 75l131 -127q-59 -53 -147.5 -86.5t-182.5 -33.5q-178 0 -305 114q-119 -115 -317 -112q-90 0 -148 20q-121 43 -149 137zM219 252q0 -100 156.5 -100t214.5 67q-33 57 -45 133h-107q-219 0 -219 -100zM713 422q2 -2 2 -6q10 4 51 20.5t65 26.5 l123 49q66 31 119 49q96 41 103 43q-25 51 -78 76q-52 27 -109 27q-121 0 -196 -84q-33 -33 -60 -86q-20 -55 -20 -101v-14z" />
<glyph unicode="&#xe7;" horiz-adv-x="849" d="M63 430q0 88 36 173t98 142q59 59 143 99q88 35 178 35q164 0 291 -99l-113 -133q-66 57 -154.5 58.5t-135.5 -21.5q-45 -16 -91 -57q-78 -78 -77 -197q0 -184 168 -258q57 -20 112 -20q109 0 178 59l107 -133q-113 -92 -277 -98q0 -43 31 -70q25 -16 29 -21 q12 -4 41.5 -26.5t48.5 -63.5q16 -47 16 -96q0 -94 -57 -158q-18 -29 -64.5 -50t-109 -21t-125.5 39q-61 45 -88 122q18 8 58 30t44 24q10 -35 37 -54q25 -23 70 -22.5t71 33.5q25 35 25 79t-23 62q-14 16 -46.5 41t-49.5 49q-23 27 -22 78v37q-68 16 -140 57 q-68 45 -110 98q-100 129 -99 283z" />
<glyph unicode="&#xe8;" horiz-adv-x="946" d="M63 428q0 88 35 172q72 166 242 244q82 35 172 35q145 0 253.5 -89.5t154.5 -226.5q-106 -37 -279.5 -109.5t-204 -83t-87 -33t-85.5 -32.5q33 -68 101 -112q69 -41 149 -41q127 0 203 75l131 -127q-59 -53 -148 -88q-184 -72 -354 0q-170 70 -248 242q-35 86 -35 174z M154 1270h188q80 -121 102.5 -153t83.5 -122h-131q-82 88 -111.5 124t-70.5 80t-61 71zM238 422q2 -2 2 -6q10 4 51 20.5t65 26.5l123 49q66 31 119 49q98 41 102 43q-25 51 -77 77t-109 26q-121 0 -197 -84q-33 -33 -59 -86q-20 -55 -20 -101v-14z" />
<glyph unicode="&#xe9;" horiz-adv-x="946" d="M63 428q0 88 35 172q72 166 242 244q82 35 172 35q145 0 253.5 -89.5t154.5 -226.5q-106 -37 -279.5 -109.5t-204 -83t-87 -33t-85.5 -32.5q33 -68 101 -112q69 -41 149 -41q127 0 203 75l131 -127q-59 -53 -148 -88q-184 -72 -354 0q-170 70 -248 242q-35 86 -35 174z M238 422q2 -2 2 -6q10 4 51 20.5t65 26.5l123 49q66 31 119 49q98 41 102 43q-25 51 -77 77t-109 26q-121 0 -197 -84q-33 -33 -59 -86q-20 -55 -20 -101v-14zM387 995l188 275h189l-244 -275h-133z" />
<glyph unicode="&#xea;" horiz-adv-x="946" d="M63 428q0 88 35 172q72 166 242 244q82 35 172 35q145 0 253.5 -89.5t154.5 -226.5q-106 -37 -279.5 -109.5t-204 -83t-87 -33t-85.5 -32.5q33 -68 101 -112q69 -41 149 -41q127 0 203 75l131 -127q-59 -53 -148 -88q-184 -72 -354 0q-170 70 -248 242q-35 86 -35 174z M211 995q72 104 125 189q59 86 125 186q66 -100 125 -186q53 -84 125 -189h-131l-119 160q-4 -4 -15.5 -21.5t-40 -54.5t-36.5 -51q-8 -8 -25 -33h-133zM238 422q2 -2 2 -6q10 4 51 20.5t65 26.5l123 49q66 31 119 49q98 41 102 43q-25 51 -77 77t-109 26q-121 0 -197 -84 q-33 -33 -59 -86q-20 -55 -20 -101v-14z" />
<glyph unicode="&#xeb;" horiz-adv-x="946" d="M63 428q0 88 35 172q72 166 242 244q82 35 172 35q145 0 253.5 -89.5t154.5 -226.5q-106 -37 -279.5 -109.5t-204 -83t-87 -33t-85.5 -32.5q33 -68 101 -112q69 -41 149 -41q127 0 203 75l131 -127q-59 -53 -148 -88q-184 -72 -354 0q-170 70 -248 242q-35 86 -35 174z M166 1083.5q0 49.5 35 83t80 33.5t78.5 -33.5t35.5 -83.5q0 -49 -35 -84q-39 -31 -80.5 -30.5t-78.5 30.5q-35 35 -35 84.5zM238 422q2 -2 2 -6q10 4 51 20.5t65 26.5l123 49q66 31 119 49q98 41 102 43q-25 51 -77 77t-109 26q-121 0 -197 -84q-33 -33 -59 -86 q-20 -55 -20 -101v-14zM555 1083.5q0 49.5 35 83t79 33.5t76 -33q37 -33 37 -83t-34.5 -82.5t-76.5 -32.5t-81 30q-35 35 -35 84.5z" />
<glyph unicode="&#xec;" horiz-adv-x="417" d="M-82 1270h188q61 -90 84 -122t103 -153h-131q-82 88 -112 124t-70 81q-41 43 -62 70zM123 0v856h174v-856h-174z" />
<glyph unicode="&#xed;" horiz-adv-x="417" d="M123 0v856h174v-856h-174zM125 995l188 275h189l-244 -275h-133z" />
<glyph unicode="&#xee;" horiz-adv-x="417" d="M-37 995q20 31 91 136.5t159 238.5q41 -63 93 -141l93 -139.5t64 -94.5h-131q-2 2 -6 8.5t-10.5 12.5t-12.5 16t-30.5 42t-39.5 52q-14 23 -20 29l-117 -160h-133zM123 0v856h174v-856h-174z" />
<glyph unicode="&#xef;" horiz-adv-x="417" d="M-90 1084.5q0 50.5 35 83t80 32.5t77 -33q37 -32 37 -82.5t-35 -83.5q-37 -33 -80.5 -32.5t-78.5 33t-35 83zM123 0v856h174v-856h-174zM299 1084.5q0 50.5 35 83t79 32.5t78.5 -35t34.5 -83t-34 -83q-37 -31 -79 -30.5t-77 32.5q-37 33 -37 83.5z" />
<glyph unicode="&#xf0;" horiz-adv-x="1040" d="M63 426q0 92 36 177t98 142q59 59 143 99q88 35 183 35t182 -39q-70 209 -224 409l-121 -131q-45 41 -102 92l139 150q-113 127 -209 207l105 96q115 -88 207 -190q8 10 18 20q10 8 22.5 22.5t28.5 32.5q20 18 47 54l103 -91l-131 -145q61 -78 145 -211 q143 -242 205 -479q33 -119 33 -236v-10q0 -86 -33 -174q-74 -170 -243 -242.5t-355 -1.5q-166 70 -242 234q-35 88 -35 180zM238 428q0 -51 20 -109q27 -55 61 -86q31 -35 87 -61q57 -20 108 -20t109 20q109 51 149 147q23 55 23 109q0 115 -82 199q-45 41 -90 57 q-47 23 -108.5 23t-108.5 -23q-96 -35 -148 -147q-20 -58 -20 -109z" />
<glyph unicode="&#xf1;" horiz-adv-x="1040" d="M123 0v856h153l7 -115q4 -39 8 -104q47 113 135 177.5t215 64.5t206 -72t81 -184v-623h-176v543q-2 61 -45 110t-113 51.5t-129 -20.5q-113 -53 -146 -147q-23 -47 -22 -113v-424h-174zM236 1008q8 90 67 137q51 51 134 51t151 -70q57 -51 96 -51t78 19q39 33 43 75 l98 -6q-4 -82 -67 -135q-51 -51 -131 -51q-41 0 -78 18q-39 14 -75 46t-56 44q-57 23 -117 -8q-37 -18 -43 -76z" />
<glyph unicode="&#xf2;" horiz-adv-x="1032" d="M63 426q0 92 36 177t98 142q59 59 143 99q88 35 180 35t180 -35q166 -78 238 -240q33 -88 33 -174t-33 -174q-74 -170 -243 -242.5t-355 -1.5q-166 70 -242 234q-35 88 -35 180zM182 1270h189q82 -121 103.5 -153t82.5 -122h-131q-82 88 -111.5 124t-70.5 81 q-41 43 -62 70zM238 428q0 -51 20 -109q27 -55 61 -86q31 -35 87 -61q57 -20 108 -20t109 20q109 51 149 147q23 55 23 109q0 115 -82 199q-45 41 -90 57q-47 23 -108.5 23t-108.5 -23q-96 -35 -148 -147q-20 -58 -20 -109z" />
<glyph unicode="&#xf3;" horiz-adv-x="1032" d="M63 426q0 92 36 177t98 142q59 59 143 99q88 35 180 35t180 -35q166 -78 238 -240q33 -88 33 -174t-33 -174q-74 -170 -243 -242.5t-355 -1.5q-166 70 -242 234q-35 88 -35 180zM238 428q0 -51 20 -109q27 -55 61 -86q31 -35 87 -61q57 -20 108 -20t109 20 q109 51 149 147q23 55 23 109q0 115 -82 199q-45 41 -90 57q-47 23 -108.5 23t-108.5 -23q-96 -35 -148 -147q-20 -58 -20 -109zM514 995l188 275h189l-244 -275h-133z" />
<glyph unicode="&#xf4;" horiz-adv-x="1032" d="M63 426q0 92 36 177t98 142q59 59 143 99q88 35 180 35t180 -35q166 -78 238 -240q33 -88 33 -174t-33 -174q-74 -170 -243 -242.5t-355 -1.5q-166 70 -242 234q-35 88 -35 180zM238 428q0 -51 20 -109q27 -55 61 -86q31 -35 87 -61q57 -20 108 -20t109 20 q109 51 149 147q23 55 23 109q0 115 -82 199q-45 41 -90 57q-47 23 -108.5 23t-108.5 -23q-96 -35 -148 -147q-20 -58 -20 -109zM268 995q72 104 125 189q59 86 125 186q66 -100 125 -186q53 -84 125 -189h-131l-119 160q-8 -8 -22 -29q-12 -20 -37 -51t-33 -47l-25 -33 h-133z" />
<glyph unicode="&#xf5;" horiz-adv-x="1032" d="M63 426q0 92 36 177t98 142q59 59 143 99q88 35 180 35t180 -35q166 -78 238 -240q33 -88 33 -174t-33 -174q-74 -170 -243 -242.5t-355 -1.5q-166 70 -242 234q-35 88 -35 180zM203 961q8 90 67 137q51 51 133 51t152 -70q57 -51 96 -51t78 19q41 29 43 75l98 -6 q-8 -90 -67 -135q-51 -51 -131 -51t-154 65q-37 33 -55 43q-49 27 -117 -8q-37 -18 -43 -76zM238 428q0 -51 20 -109q27 -55 61 -86q31 -35 87 -61q57 -20 108 -20t109 20q109 51 149 147q23 55 23 109q0 115 -82 199q-45 41 -90 57q-47 23 -108.5 23t-108.5 -23 q-96 -35 -148 -147q-20 -58 -20 -109z" />
<glyph unicode="&#xf6;" horiz-adv-x="1032" d="M63 426q0 92 36 177t98 142q59 59 143 99q88 35 180 35t180 -35q166 -78 238 -240q33 -88 33 -174t-33 -174q-74 -170 -243 -242.5t-355 -1.5q-166 70 -242 234q-35 88 -35 180zM238 428q0 -51 20 -109q27 -55 61 -86q31 -35 87 -61q57 -20 108 -20t109 20 q109 51 149 147q23 55 23 109q0 115 -82 199q-45 41 -90 57q-47 23 -108.5 23t-108.5 -23q-96 -35 -148 -147q-20 -58 -20 -109zM238 1084.5q0 50.5 33.5 83t80.5 32.5q45 0 80 -32.5t35 -83t-35 -83t-80 -32.5t-79.5 32.5t-34.5 83zM627 1083.5q0 49.5 35 83.5 q35 33 78.5 33t78.5 -33.5t35 -83t-35 -84.5q-37 -31 -80 -30.5t-77.5 33t-34.5 82z" />
<glyph unicode="&#xf7;" horiz-adv-x="942" d="M100 428v180h748v-180h-748zM365 215q0 49 36 88q37 33 77 33t79 -33q35 -39 35 -88t-36 -80t-79 -31t-76.5 31t-35.5 80zM365 821q0 49 36 88q37 33 77 33t79 -33q35 -39 35 -88t-35 -80.5t-79 -31.5t-77.5 31.5t-35.5 80.5z" />
<glyph unicode="&#xf8;" horiz-adv-x="1032" d="M63 430q0 88 36 173t98 142q59 59 143 99q88 35 196.5 35t221.5 -66q35 43 49 55l33 41l92 -73l-84 -97q123 -131 123 -309q0 -86 -33 -174q-74 -170 -238 -240q-86 -37 -182 -36q-152 0 -266 77l-96 -110l-86 80l96 110q-103 125 -103 293zM238 411.5q0 -67.5 47 -139.5 q84 98 145.5 167t208.5 239q-63 29 -124.5 29t-108.5 -23q-96 -35 -148 -147q-20 -58 -20 -125.5zM369 190q113 -68 254 -18q53 25 90 61q82 82 81.5 183.5t-63.5 187.5z" />
<glyph unicode="&#xf9;" horiz-adv-x="1038" d="M115 236v620h174v-543q2 -61 47 -108q39 -45 129 -51q66 0 113 22q96 33 145 146q20 49 20 112v422h177v-874h-148l-20 237q-43 -102 -129 -172q-86 -68 -218.5 -67.5t-210 73t-79.5 183.5zM213 1270h188q61 -90 84 -122t103 -153h-131q-82 88 -112 124t-72 80t-60 71z " />
<glyph unicode="&#xfa;" horiz-adv-x="1038" d="M115 236v620h174v-543q2 -61 47 -108q39 -45 129 -51q66 0 113 22q96 33 145 146q20 49 20 112v422h177v-874h-148l-20 237q-43 -102 -129 -172q-86 -68 -218.5 -67.5t-210 73t-79.5 183.5zM412 995l188 275h188l-243 -275h-133z" />
<glyph unicode="&#xfb;" horiz-adv-x="1038" d="M115 236v620h174v-543q2 -61 47 -108q39 -45 129 -51q66 0 113 22q96 33 145 146q20 49 20 112v422h177v-874h-148l-20 237q-43 -102 -129 -172q-86 -68 -218.5 -67.5t-210 73t-79.5 183.5zM238 995q47 63 129 189q80 125 120 186q84 -127 156 -233q74 -106 94 -142h-131 l-119 160l-116 -160h-133z" />
<glyph unicode="&#xfc;" horiz-adv-x="1040" d="M115 236v620h174v-543q2 -61 47 -108q39 -45 129 -51q66 0 113 22q96 33 145 146q20 49 20 112v422h177v-874h-148l-20 237q-43 -102 -129 -172q-86 -68 -218.5 -67.5t-210 73t-79.5 183.5zM184 1084.5q0 50.5 35 83t80 32.5t80 -32.5t35 -83t-35 -83t-80 -32.5t-80 32.5 t-35 83zM573 1084.5q0 50.5 35 83t79 32.5t79 -33.5t35 -83t-35 -84.5q-37 -31 -80 -30.5t-78 33t-35 83z" />
<glyph unicode="&#xfd;" horiz-adv-x="976" d="M12 856h191q84 -162 111.5 -224.5t68 -144.5t106.5 -268q72 213 289 637h191l-611 -1268h-176q37 78 56 113l49 111q10 25 28 67q20 43 26.5 55.5t26 56.5t31.5 68q-80 160 -96 193q-16 31 -31 63q-33 68 -80 168.5t-86 178.5q-31 68 -94 194zM418 995l188 275h189 l-244 -275h-133z" />
<glyph unicode="&#xfe;" horiz-adv-x="1103" d="M123 -412v2003h176v-860q14 25 45 51q27 27 66 45q76 49 182 52q190 2 326 -121q121 -133 120.5 -330t-125.5 -322q-57 -57 -143 -92q-137 -55 -278 -22q-90 18 -152 74q-27 20 -43 47q0 -14 2 -23v-502h-176zM299 430.5q0 -53.5 20 -111.5q25 -53 58 -85.5t90 -61.5 q61 -20 115.5 -20t109.5 20q100 53 137 147q19 54 19 111q0 117 -72 197q-37 39 -84 57q-45 23 -108 23q-178 0 -265 -166q-20 -57 -20 -110.5z" />
<glyph unicode="&#xff;" horiz-adv-x="978" d="M12 856h191q84 -162 111.5 -224.5t68 -144.5t106.5 -268q72 213 289 637h191l-611 -1268h-176q37 78 56 113l49 111q10 25 28 67q20 43 26.5 55.5t26 56.5t31.5 68q-80 160 -96 193q-16 31 -31 63q-33 68 -80 168.5t-86 178.5q-31 68 -94 194zM162 1083.5q0 49.5 34.5 83 t80 33.5t79 -33.5t35.5 -83.5q0 -49 -35 -84q-39 -31 -81 -30.5t-78 30.5q-35 35 -35 84.5zM551 1083.5q0 49.5 35 83t79 33.5t76 -33q37 -33 37 -83t-34.5 -82.5t-76.5 -32.5t-81 30q-35 35 -35 84.5z" />
<glyph unicode="&#x152;" horiz-adv-x="1957" d="M78 741q2 308 221 531q106 109 242 170q141 59 295 59q68 0 149 -16h868v-203h-690v-434h606v-207h-606v-434h719v-207h-891q-66 -16 -186 -16q-123 0 -260 57t-246 164q-221 227 -221 536zM301 739q0 -227 158.5 -384.5t380.5 -159.5q35 0 100 8v1073q-82 10 -102 10 q-111 0 -210.5 -43t-168.5 -117q-158 -158 -158 -387z" />
<glyph unicode="&#x153;" horiz-adv-x="1456" d="M63 426q0 92 36 177t98 142q59 59 143 99q88 35 180 35q139 0 254 -76q115 74 256 76q141 0 244 -88q109 -84 156 -228q-106 -37 -281.5 -110.5t-204.5 -82t-85 -32t-85 -33.5q33 -70 100.5 -111.5t137.5 -41.5q139 0 215 75l131 -127q-59 -53 -147.5 -86.5t-182.5 -33.5 q-145 0 -254 75q-106 -76 -256 -75q-193 0 -321 124q-59 55 -99 142q-35 88 -35 180zM238 428.5q0 -51.5 20 -109.5q27 -55 61 -86q31 -35 87 -61q55 -20 119.5 -20t121.5 30q-74 109 -74 241t74 251q-63 33 -128.5 33t-112.5 -23q-96 -35 -148 -147q-20 -57 -20 -108.5z M747.5 458q0.5 -34 2.5 -36v-6q49 16 114 47q43 16 125 49q66 31 119 49q98 41 102 43q-25 51 -77 77t-107 26q-123 0 -199 -84q-41 -41 -57 -86q-23 -45 -22.5 -79z" />
<glyph unicode="&#x2c6;" horiz-adv-x="919" d="M231 995q72 104 125 189q59 86 125 186q66 -100 125 -186q53 -84 125 -189h-131l-119 160q-8 -8 -22 -29q-12 -20 -37 -51t-33 -47l-24 -33h-134z" />
<glyph unicode="&#x2dc;" horiz-adv-x="1222" d="M328 1008q6 80 65 137q68 51 143.5 51t143.5 -70q57 -51 104 -51q45 0 68 19q41 25 45 75l98 -6q-6 -80 -65 -135q-61 -51 -115.5 -51t-96.5 17.5t-75 48t-57 40.5q-53 25 -115 -6q-37 -18 -43 -76z" />
<glyph unicode="&#x2000;" horiz-adv-x="996" />
<glyph unicode="&#x2001;" horiz-adv-x="1993" />
<glyph unicode="&#x2002;" horiz-adv-x="996" />
<glyph unicode="&#x2003;" horiz-adv-x="1993" />
<glyph unicode="&#x2004;" horiz-adv-x="664" />
<glyph unicode="&#x2005;" horiz-adv-x="498" />
<glyph unicode="&#x2006;" horiz-adv-x="332" />
<glyph unicode="&#x2007;" horiz-adv-x="332" />
<glyph unicode="&#x2008;" horiz-adv-x="249" />
<glyph unicode="&#x2009;" horiz-adv-x="398" />
<glyph unicode="&#x200a;" horiz-adv-x="110" />
<glyph unicode="&#x2010;" horiz-adv-x="604" d="M113 354v183h381v-183h-381z" />
<glyph unicode="&#x2011;" horiz-adv-x="604" d="M113 354v183h381v-183h-381z" />
<glyph unicode="&#x2012;" horiz-adv-x="604" d="M113 354v183h381v-183h-381z" />
<glyph unicode="&#x2013;" horiz-adv-x="854" d="M115 346v182h626v-182h-626z" />
<glyph unicode="&#x2014;" horiz-adv-x="1269" d="M115 346v182h1042v-182h-1042z" />
<glyph unicode="&#x2018;" horiz-adv-x="366" d="M100 1477l115 -15q-14 -70 7.5 -134t62.5 -103l-92 -51q-125 125 -93 303z" />
<glyph unicode="&#x2019;" horiz-adv-x="364" d="M82 1225q43 37 65 102q18 66 5 135l114 15q33 -178 -92 -303z" />
<glyph unicode="&#x201a;" horiz-adv-x="397" d="M72 -61q45 41 63 104q23 61 6 133l115 14q33 -178 -92 -303q-31 20 -92 52z" />
<glyph unicode="&#x201c;" horiz-adv-x="581" d="M100 1477l115 -15q-14 -70 7.5 -134t62.5 -103q-10 -4 -92 -51q-125 125 -93 303zM315 1477l115 -15q-16 -70 5.5 -134t64.5 -103l-92 -51q-125 125 -93 303z" />
<glyph unicode="&#x201d;" horiz-adv-x="581" d="M84 1225q96 90 68 237l114 15q16 -88 -10.5 -168t-79.5 -135q-33 16 -43 23t-25.5 15.5t-23.5 12.5zM299 1225q43 37 66 102q18 66 4 135l114 15q33 -178 -92 -303z" />
<glyph unicode="&#x201e;" horiz-adv-x="610" d="M72 -61q45 41 63 104q23 61 6 133l115 14q33 -178 -92 -303q-31 20 -92 52zM289 -61q94 94 67 237l115 14q16 -88 -9.5 -167.5t-80.5 -135.5q-6 2 -42 23t-50 29z" />
<glyph unicode="&#x2022;" horiz-adv-x="825" d="M137 621.5q0 62.5 23 109.5q16 45 56 88t87 63.5t108.5 20.5t108.5 -22q47 -16 90 -60q41 -45 58 -90q23 -47 22.5 -109.5t-22.5 -109.5q-16 -45 -56 -84q-82 -78 -198.5 -79t-196.5 77q-41 41 -57 86q-23 47 -23 109.5z" />
<glyph unicode="&#x2026;" horiz-adv-x="1128" d="M111 115q0 51 36 82q33 35 78 34.5t78 -34.5q37 -31 37 -83.5t-35 -83t-80 -30.5t-78.5 30.5t-35.5 84.5zM451 115q0 51 36 82q33 35 77 34.5t79 -33t35 -85t-36 -83t-79 -30.5t-76.5 30.5t-35.5 84.5zM791 115q0 51 36 82q33 35 77 34.5t79 -33t35 -85t-36 -83 t-79 -30.5t-76.5 30.5t-35.5 84.5z" />
<glyph unicode="&#x202f;" horiz-adv-x="398" />
<glyph unicode="&#x2039;" horiz-adv-x="573" d="M82 496q4 4 24 26q18 20 40 44t34 40q25 25 80 88.5t84 93.5q29 33 51.5 57.5t40.5 43.5v-215q-2 -2 -56 -67.5t-58 -74.5q-23 -25 -31 -36q6 -8 20.5 -25.5t40.5 -48.5q27 -33 54 -68q29 -37 30 -37v-215z" />
<glyph unicode="&#x203a;" horiz-adv-x="569" d="M137 102v215l146 179q-8 12 -24.5 31.5t-90.5 111.5q-29 33 -31 35v215l355 -393z" />
<glyph unicode="&#x205f;" horiz-adv-x="498" />
<glyph unicode="&#x20ac;" horiz-adv-x="1101" d="M78 731v100h141q18 127 68 230q111 209 286 270q92 35 183 35q160 0 260 -61l-84 -166q-68 43 -162 45q-238 2 -328 -213q-27 -61 -36 -140h430v-100h-437v-14q0 -74 4 -107h433v-98h-416q41 -178 145 -266q84 -80 183 -80q100 0 176 51l92 -172q-117 -61 -232 -61 q-225 0 -370 135q-70 68 -123 166q-47 96 -70 227h-141v98h131q-2 10 -2 35v62q0 16 2 24h-133z" />
<glyph unicode="&#x25fc;" horiz-adv-x="860" d="M0 0v860h860v-860h-860z" />
<glyph unicode="&#xfb01;" horiz-adv-x="1155" d="M49 684v172h146v201q0 266 124 397q129 131 359 137v-168q-162 -10 -234.5 -104t-72.5 -266v-197h663v-856h-176v684h-487v-684h-176v684h-146z" />
<glyph unicode="&#xfb02;" horiz-adv-x="1128" d="M49 686v172h146v199q0 266 124 397q129 131 359 137h328v-1591h-175v1423h-153q-162 -10 -234.5 -104t-72.5 -266v-195h270v-172h-270v-686h-176v686h-146z" />
</font>
</defs>
</svg>
