<?xml version="1.0" standalone="no"?>
<!DOCTYPE svg PUBLIC "-//W3C//DTD SVG 1.1//EN" "http://www.w3.org/Graphics/SVG/1.1/DTD/svg11.dtd" >
<svg xmlns="http://www.w3.org/2000/svg" xmlns:xlink="http://www.w3.org/1999/xlink" version="1.1">
<metadata></metadata>
<defs>
<font id="reem_kufiregular" horiz-adv-x="1325" >
<font-face units-per-em="2048" ascent="1638" descent="-410" />
<missing-glyph horiz-adv-x="266" />
<glyph horiz-adv-x="0" />
<glyph unicode="&#xd;" horiz-adv-x="614" />
<glyph horiz-adv-x="0" />
<glyph horiz-adv-x="0" />
<glyph unicode=" "  horiz-adv-x="266" />
<glyph unicode="&#x09;" horiz-adv-x="266" />
<glyph unicode="&#xa0;" horiz-adv-x="266" />
<glyph unicode="!" horiz-adv-x="544" d="M158 109q0 51 35.5 83.5t78.5 32.5t78 -32.5t35 -83.5t-35 -84t-78 -33t-78.5 32.5t-35.5 84.5zM178 344v1212h189v-1212h-189z" />
<glyph unicode="&#x22;" horiz-adv-x="720" d="M131 979v516h184l-8 -516h-176zM408 979v516h186l-8 -516h-178z" />
<glyph unicode="#" horiz-adv-x="1189" d="M82 381q4 47 11 92t11 92h185l24 199h-184l18 182h187q12 98 23.5 194.5t25.5 194.5h188l-49 -389h193l49 389h190l-49 -389h203q-4 -47 -8 -92l-8 -90h-207l-25 -199h205q-4 -47 -10 -92t-11 -92h-206q-10 -96 -21.5 -190.5t-21.5 -190.5h-191l45 381h-192l-45 -381 h-191l45 381h-184zM479 565h193l22 199h-192q-4 -51 -10.5 -100.5t-12.5 -98.5z" />
<glyph unicode="$" horiz-adv-x="1191" d="M72 111l98 194q82 -47 182.5 -75.5t182.5 -28.5h6v497q-74 27 -144.5 60t-126 77t-90.5 104t-35 146q0 68 25 134.5t75 122t123.5 94.5t172.5 51v135h129v-131q68 -4 133 -16.5t117.5 -26.5t88.5 -27.5t46 -17.5l-80 -182q-78 29 -156 46t-149 21v-420 q76 -29 154.5 -63.5t141 -84.5t102.5 -122t40 -176q0 -178 -117 -288.5t-321 -139.5v-133h-129v123h-4q-88 0 -161 13t-131.5 32.5t-101.5 41t-71 40.5zM367 1102q0 -66 49 -107t125 -75v356q-82 -20 -128 -66.5t-46 -107.5zM670 219q39 10 77.5 26.5t69.5 41t50.5 58.5 t19.5 79q0 41 -17.5 73.5t-46 60.5t-68.5 49.5t-85 41.5v-430z" />
<glyph unicode="%" horiz-adv-x="1470" d="M80 809q0 55 21.5 103.5t58.5 84t86 56t104 20.5t103.5 -20.5t85 -56t58 -84t21.5 -103.5t-21.5 -104.5t-58 -86t-85 -57t-103.5 -20.5t-104 20.5t-86 57t-58.5 86t-21.5 104.5zM268 807q0 -35 21.5 -59.5t60.5 -24.5q37 0 58.5 24.5t21.5 59.5q0 37 -21.5 60.5 t-58.5 23.5q-39 0 -60.5 -23.5t-21.5 -60.5zM322 0q156 262 310 519t308 519h207q-154 -262 -309.5 -519t-309.5 -519h-206zM854 229q0 55 21.5 103.5t58.5 85.5t86 57.5t104 20.5t104.5 -20.5t86.5 -57.5t58.5 -85t21.5 -104q0 -55 -21.5 -104t-58.5 -85t-86.5 -56.5 t-104.5 -20.5t-104 20.5t-86 56.5t-58.5 85t-21.5 104zM1044 231q0 -37 21.5 -61.5t58.5 -24.5q39 0 59.5 25t20.5 61q0 35 -20.5 58.5t-59.5 23.5q-37 0 -58.5 -23.5t-21.5 -58.5z" />
<glyph unicode="&#x26;" horiz-adv-x="1339" d="M72 422q0 82 26.5 153.5t73.5 128t110.5 97.5t139.5 61q-29 43 -51.5 81t-38.5 67q-33 66 -53.5 120t-20.5 117q0 70 27.5 126.5t76 95t113 60t135.5 23.5q98 4 178 -22.5t127 -59.5l-15 -22l-32.5 -45.5t-33 -46t-15.5 -23.5q-23 16 -55.5 29.5t-75.5 17.5q-43 6 -86 0 t-78 -24.5t-56.5 -51t-21.5 -79.5q0 -55 20.5 -98.5t29.5 -53.5l446 -594l156 400h186l-221 -562l242 -317h-209q-16 20 -37 43q-16 20 -40 48t-52 63q-66 -78 -171.5 -126t-238.5 -48q-106 0 -195.5 32.5t-154 92t-100 140.5t-35.5 177zM248 432q0 -74 27.5 -126t72.5 -87 t103.5 -51t117.5 -16q41 0 84 10t82 27.5t72 42t53 53.5q-78 98 -164 208t-164 214q-55 -2 -106 -23.5t-91 -58.5t-63.5 -87.5t-23.5 -105.5z" />
<glyph unicode="'" horiz-adv-x="446" d="M131 979v516h188l-8 -516h-180z" />
<glyph unicode="(" horiz-adv-x="606" d="M74 604q0 156 29.5 297t76.5 262t108.5 218.5t127.5 166.5q41 -12 84 -23.5t84 -23.5q-59 -68 -116.5 -161t-103 -207.5t-73 -247.5t-27.5 -281q0 -147 27.5 -280.5t73 -248t102.5 -207.5t117 -161q-41 -14 -84 -25.5t-84 -23.5q-66 70 -127.5 168t-108.5 219t-76.5 262 t-29.5 297z" />
<glyph unicode=")" horiz-adv-x="606" d="M23 -303q59 68 116.5 161t102.5 206.5t72.5 246.5t27.5 281q0 147 -27.5 280.5t-72.5 248t-102.5 207.5t-116.5 161q41 12 82.5 26.5t82.5 26.5q66 -70 128.5 -167t110.5 -219t76.5 -263t28.5 -297t-28.5 -297t-76.5 -262t-110.5 -218.5t-128.5 -166.5q-41 10 -83 21.5 t-82 23.5z" />
<glyph unicode="*" horiz-adv-x="772" d="M100 1092l158 88l-156 94q16 27 30.5 52.5t29.5 53.5l160 -94v189h131q0 -47 -1 -94.5t-1 -94.5l161 92l62 -106q-41 -23 -81 -47t-81 -47q39 -23 78 -45.5t80 -45.5q-16 -29 -32.5 -57.5t-33.5 -56.5l-158 94q0 -45 -1 -89t-1 -89h-122v178q-39 -23 -78 -44.5t-78 -43.5 z" />
<glyph unicode="+" horiz-adv-x="915" d="M84 387v182h278v285h191v-285h278v-182h-278v-281h-191v281h-278z" />
<glyph unicode="," horiz-adv-x="493" d="M10 -248q41 106 80 212t80 214h188l-180 -426h-168z" />
<glyph unicode="-" horiz-adv-x="606" d="M113 354v183h381v-183h-381z" />
<glyph unicode="." horiz-adv-x="339" d="M51 0q0 49 35 84t84 35t84 -35t35 -84t-35 -84t-84 -35t-84 35t-35 84z" />
<glyph unicode="/" horiz-adv-x="894" d="M63 -39l578 1567h190q-147 -393 -289.5 -783.5t-289.5 -783.5h-189z" />
<glyph unicode="0" horiz-adv-x="1306" d="M96 682q0 162 44 290t119 216t177.5 133t220.5 45q125 0 227.5 -51t175.5 -142.5t112.5 -219.5t37.5 -283q-2 -162 -45 -289t-118.5 -216t-177 -135t-220.5 -46q-115 0 -215 47t-176 136t-119 218t-43 297zM287 676q-2 -104 26.5 -196.5t77.5 -162t115.5 -110.5 t142.5 -41t143.5 39t118 108.5t80 162.5t29.5 198q0 76 -17.5 165t-60.5 165.5t-112.5 128t-172.5 51.5q-106 0 -176.5 -53.5t-113.5 -132t-61.5 -166.5t-18.5 -156z" />
<glyph unicode="1" horiz-adv-x="622" d="M96 1167v183h322v-1350h-191v1167h-131z" />
<glyph unicode="2" horiz-adv-x="1112" d="M86 942q0 82 28.5 159t85 136t138.5 94t188 35q98 0 178 -35t136.5 -95t88.5 -139t32 -165q0 -100 -33 -195.5t-89.5 -188.5t-129 -183.5t-152.5 -182.5h479v-182h-930q127 129 247 250t212 234.5t148.5 219t56.5 203.5q0 72 -24.5 124t-60.5 86t-79 50.5t-80 16.5 q-76 0 -124 -27t-76.5 -64.5t-40 -78.5t-11.5 -72q0 -70 21.5 -121t58.5 -92l-110 -117q-37 23 -67 63t-50.5 86t-30.5 94t-10 87z" />
<glyph unicode="3" horiz-adv-x="954" d="M57 131l138 129q37 -45 87 -69.5t109 -24.5q55 0 104.5 21.5t86 58.5t58.5 86t22 104t-22 103.5t-58.5 85.5t-86 57t-104.5 20q-76 1 -135 -32q68 123 152 246.5t149 248.5h-416v185h715q-72 -123 -149.5 -246t-149.5 -246q131 -53 212 -163.5t81 -258.5q0 -92 -37 -175 t-99.5 -144.5t-145.5 -97t-175 -35.5q-100 0 -186 41t-150 106z" />
<glyph unicode="4" horiz-adv-x="1079" d="M0 348q190 248 401 509t404 509v-836h201v-182h-201v-348h-191v348h-614zM365 530h249v326z" />
<glyph unicode="5" horiz-adv-x="933" d="M76 111q35 33 69.5 63.5t67.5 63.5q35 -33 80 -52.5t98 -19.5q55 0 104.5 21.5t86 58.5t58.5 86t22 104t-22 104.5t-59.5 85.5t-87 57.5t-104.5 21.5t-115.5 -14.5t-111.5 -65.5v725h596v-183h-434v-295q16 6 29.5 10.5t35.5 4.5q104 0 188.5 -36t144.5 -96.5t93 -140 t33 -170.5q0 -98 -37 -182t-99.5 -145.5t-146.5 -97t-176 -35.5t-172 33.5t-141 93.5z" />
<glyph unicode="6" horiz-adv-x="1085" d="M86 436q0 109 34 206t90 182t127 158t145.5 135.5t146 113.5t129.5 92q29 -35 58.5 -72t57.5 -71q-59 -41 -126.5 -88.5t-131 -94.5t-112.5 -90t-72 -71q20 23 47 37t60 14q92 0 176 -35t146.5 -95.5t99 -142.5t36.5 -176t-36.5 -177t-99 -144.5t-145.5 -97t-175 -35.5 q-78 0 -158 26.5t-146.5 83t-108.5 141t-42 201.5zM279 436q0 -55 20 -104t55 -86t82 -58.5t103 -21.5q55 0 104 21.5t86 58.5t58.5 86t21.5 104t-21.5 104.5t-58.5 86.5t-86 57.5t-104 20.5q-53 0 -101.5 -20.5t-83.5 -57.5t-55 -86.5t-20 -104.5z" />
<glyph unicode="7" horiz-adv-x="935" d="M61 1165v185h861q-72 -176 -139.5 -346t-133 -337t-131 -333t-131.5 -334h-213q104 268 221 568t234 597h-568z" />
<glyph unicode="8" horiz-adv-x="1083" d="M86 428q0 76 18.5 137.5t50 109.5t73.5 83t87 55q-59 41 -82.5 97.5t-23.5 109.5q0 76 25.5 139.5t70.5 109.5t105.5 71.5t130.5 25.5t130 -25.5t105 -71.5t71.5 -109.5t26.5 -137.5q0 -53 -24.5 -109.5t-83.5 -99.5q45 -23 87 -57.5t75 -82.5t51 -109.5t18 -135.5 q0 -88 -32.5 -169t-93 -142.5t-144.5 -97t-188 -35.5t-187.5 35.5t-142.5 97t-91 142.5t-32 169zM279 436q0 -55 20 -104t55 -86t83 -58.5t102 -21.5q55 0 104 21.5t87 58.5t59.5 86t21.5 104t-20.5 103.5t-56.5 84t-83 57t-102 24.5q-55 0 -104.5 -20.5t-86 -56.5 t-58 -85.5t-21.5 -106.5zM391 1030q0 -31 13.5 -56.5t35 -45t49 -30.5t58.5 -11q29 0 56.5 11t48 30.5t32.5 45t12 56.5t-12 58.5t-32.5 49t-47 34t-57.5 12.5q-61 0 -108.5 -46.5t-47.5 -107.5z" />
<glyph unicode="9" horiz-adv-x="1087" d="M88 868q0 94 37 177t98.5 144.5t144.5 97.5t175 36q76 0 157.5 -26.5t147 -83t108.5 -141.5t43 -202q0 -111 -33.5 -207t-90 -181t-128 -157.5t-146.5 -135t-146.5 -113.5t-128.5 -92l-117 143q59 39 128 87t131 95t111.5 90t71.5 72q-20 -23 -46.5 -37t-59.5 -14 q-92 0 -175 34.5t-145.5 95t-99.5 142.5t-37 176zM274 870q0 -55 21.5 -104t58.5 -86t86 -57.5t105 -20.5q53 0 100 20.5t83 57.5t56.5 86t20.5 104t-20.5 104.5t-55.5 86.5t-82 58.5t-102 21.5t-104.5 -21.5t-86.5 -58.5t-58.5 -86t-21.5 -105z" />
<glyph unicode=":" horiz-adv-x="452" d="M113 115q0 49 35.5 82.5t78.5 33.5q41 0 77 -33.5t36 -82.5q0 -53 -36 -84t-77 -31q-43 0 -78.5 31t-35.5 84zM113 678q0 49 35.5 83t78.5 34q41 0 77 -34t36 -83q0 -53 -36 -85t-77 -32q-43 0 -78.5 32t-35.5 85z" />
<glyph unicode=";" horiz-adv-x="518" d="M6 -248q41 106 81 212t81 214h186l-178 -426h-170zM166 635q0 49 36 83t77 34q43 0 77.5 -34t34.5 -83q0 -53 -34.5 -85t-77.5 -32q-41 0 -77 32t-36 85z" />
<glyph unicode="&#x3c;" horiz-adv-x="1134" d="M66 494l907 524v-256l-463 -268l463 -267v-256z" />
<glyph unicode="=" horiz-adv-x="1296" d="M123 223v185h1051v-185h-1051zM123 627v184h1051v-184h-1051z" />
<glyph unicode="&#x3e;" horiz-adv-x="1134" d="M162 -29v256l463 267l-463 268v256l907 -524z" />
<glyph unicode="?" horiz-adv-x="970" d="M68 1198q14 43 39.5 99.5t72.5 105.5t121 83t184 34q86 0 161 -32t129 -87t86 -129t32 -156q0 -117 -54.5 -204t-148.5 -156q-29 -20 -61.5 -43t-62 -51.5t-49 -67.5t-19.5 -92v-162h-189v201q0 68 20.5 109.5t54.5 73.5t78 59.5t91 64.5q147 115 147 268q0 94 -58 157.5 t-157 63.5q-57 0 -98 -12t-70.5 -37.5t-50.5 -63.5t-35 -87zM287 109q0 51 35.5 83.5t78.5 32.5q41 0 77 -32.5t36 -83.5t-36 -82t-77 -31q-43 0 -78.5 30.5t-35.5 82.5z" />
<glyph unicode="@" horiz-adv-x="1935" d="M80 420q0 162 59.5 318.5t175 280.5t286.5 199.5t394 75.5q205 0 360.5 -67.5t262 -178t161 -253t54.5 -291.5q0 -119 -28.5 -213t-80 -158.5t-121 -98.5t-149.5 -34h-237v109q-10 -16 -33 -39t-58.5 -42.5t-85 -33.5t-112.5 -14q-98 0 -181 35.5t-142.5 96t-93.5 140.5 t-34 168q0 94 36 177t97.5 145.5t142.5 99.5t173 37q61 0 112.5 -15.5t88 -38t59 -47t31.5 -43.5l8 121h168v-692h61q27 0 62.5 16.5t68.5 56t54.5 104.5t21.5 161q0 119 -42 231.5t-127 200.5t-211 141t-292 53q-193 0 -332 -66.5t-230 -170t-134 -230t-43 -247.5 q0 -145 55 -272.5t152.5 -223.5t226.5 -151.5t277 -55.5q119 0 229 37t203 102l102 -120q-109 -92 -256 -136.5t-289 -44.5q-178 0 -336.5 69t-276.5 186.5t-187.5 276.5t-69.5 339zM653 430q0 -59 21.5 -110.5t58.5 -88t88 -58t113 -21.5q61 0 113.5 21.5t90.5 59t58.5 88 t20.5 109.5t-20.5 109.5t-58.5 87.5t-90.5 58.5t-113.5 21.5t-112.5 -21.5t-88.5 -58.5t-58.5 -87.5t-21.5 -109.5z" />
<glyph unicode="A" d="M2 0l662 1554q12 -29 43.5 -104.5t75.5 -181t98.5 -233.5t111 -259t110.5 -258t99 -233.5t77 -181t44 -103.5h-221q-10 23 -28.5 66t-42 99t-51.5 122.5t-56 138.5h-525l-176 -426h-221zM477 614h371q-29 68 -54.5 130.5t-47 114.5t-38 91t-24.5 62q-2 4 -9 28.5 t-11 44.5q-4 -20 -12.5 -44.5t-10.5 -28.5z" />
<glyph unicode="B" horiz-adv-x="1216" d="M182 0v1485h393q109 0 197 -21.5t149.5 -67.5t95.5 -119t34 -177q0 -57 -11.5 -112.5t-37 -101.5t-67.5 -81t-104 -53q53 -10 105.5 -35t93.5 -67t66.5 -103.5t25.5 -145.5q0 -106 -41 -182t-108.5 -125t-155.5 -71.5t-182 -22.5h-453zM408 203h208q59 0 111.5 14 t91.5 42t61.5 71t22.5 100q0 63 -26.5 105.5t-70.5 69t-100.5 37.5t-115.5 11h-182v-450zM408 844h200q111 0 166 65.5t55 159.5q0 111 -66.5 162t-176.5 51h-178v-438z" />
<glyph unicode="C" horiz-adv-x="1306" d="M80 731q0 168 60.5 309.5t165 243.5t244.5 159.5t298 57.5q59 0 120.5 -8t116 -22.5t96.5 -34t64 -39.5q-16 -25 -25.5 -41.5t-19.5 -33.5t-22.5 -39.5t-32.5 -59.5q-27 18 -62.5 30.5t-74.5 20.5t-79 12t-73 4q-119 0 -220 -44t-175 -118.5t-116 -173t-42 -204.5 q0 -104 40 -200.5t110.5 -172.5t170 -121t218.5 -45q63 0 122.5 12.5t107.5 28.5t80 32.5t38 24.5l94 -203q-25 -18 -69 -39.5t-103 -40t-132 -30.5t-155 -12q-174 0 -312 60t-234.5 162.5t-147.5 238t-51 286.5z" />
<glyph unicode="D" horiz-adv-x="1456" d="M182 0v1485h373q225 0 381 -67.5t253 -177.5t141 -246t44 -271q0 -166 -59.5 -300t-161.5 -228.5t-237.5 -144.5t-286.5 -50h-447zM406 213h190q119 0 220.5 35t176 101.5t116.5 163.5t42 224q0 135 -47 235.5t-123 167t-171 98.5t-194 32h-210v-1057z" />
<glyph unicode="E" horiz-adv-x="1263" d="M182 0v1485h975v-203h-749v-434h667v-207h-667v-434h778v-207h-1004z" />
<glyph unicode="F" horiz-adv-x="1136" d="M182 0v1485h889v-207h-665v-449h581v-208h-581v-621h-224z" />
<glyph unicode="G" horiz-adv-x="1402" d="M80 713q0 174 62.5 318.5t170 248.5t247.5 162.5t298 58.5q106 0 223 -27.5t203 -78.5l-108 -183q-31 18 -71 33t-83 25t-86 15t-82 5q-109 0 -209 -43t-176 -118.5t-121 -178t-45 -221.5q0 -109 40 -205t111.5 -169.5t172 -116.5t221.5 -43q47 0 111.5 9t123.5 32v282 h-288v193h495v-623q-86 -49 -204.5 -76.5t-241.5 -27.5q-176 0 -316.5 55t-241 152.5t-153.5 230.5t-53 291z" />
<glyph unicode="H" horiz-adv-x="1556" d="M182 0v1485h224v-631h743v631h225v-99.5v-173v-222.5t-1 -248t-1 -247.5v-222v-173v-99.5h-223v641h-743v-641h-224z" />
<glyph unicode="I" horiz-adv-x="587" d="M182 0v1485h224v-1485h-224z" />
<glyph unicode="J" horiz-adv-x="669" d="M-57 -96q143 8 234 98t91 281v1202h226v-1209q0 -137 -41 -243.5t-115 -181t-175 -114.5t-220 -44v211z" />
<glyph unicode="K" d="M182 0v1485h248v-555q0 -18 -3 -35.5t-3 -36.5q10 14 20.5 25.5t20.5 27.5q145 137 280.5 286t280.5 288h285q-154 -160 -304.5 -322t-304.5 -321q86 -111 165 -214.5t156 -206t154.5 -206.5t161.5 -215h-276q-72 92 -137.5 176t-129 168t-128 170t-136.5 178 q-27 -29 -51 -52.5t-53 -47.5q0 -158 1 -296t1 -296h-248z" />
<glyph unicode="L" horiz-adv-x="1169" d="M182 0v1485h226v-1272h737v-213h-963z" />
<glyph unicode="M" horiz-adv-x="1851" d="M182 0v1550q18 -29 76.5 -109.5t135.5 -187t163 -226.5t162 -225.5t132 -183t75 -102.5q6 10 38.5 55t81 113t110 153t126 174t126.5 177t115.5 160.5t91.5 127t54 74.5v-1550h-237v831q0 16 3 35t3 27q-18 -25 -58.5 -83t-92.5 -133t-109.5 -158t-108.5 -156.5t-90 -130 t-53 -78.5q-14 18 -56.5 76.5t-98.5 136t-118.5 166t-116 164t-92 130t-45.5 66.5q0 -8 3.5 -26.5t3.5 -35.5v-831h-224z" />
<glyph unicode="N" horiz-adv-x="1667" d="M182 0v1554q23 -29 75 -82t123 -123.5t156 -152.5t172 -166t172 -165t155.5 -150.5t121.5 -122.5t72 -80l39 -57l-6 69v961h223v-1553q-29 37 -111 119l-188.5 188.5t-226 223.5t-226 222.5t-186.5 188t-107 117.5l-39 53l7 -65v-979h-226z" />
<glyph unicode="O" horiz-adv-x="1673" d="M78 741q0 154 59.5 292t162.5 242.5t240.5 165t295.5 60.5q156 0 294 -60.5t241.5 -165t163.5 -242.5t60 -292q0 -158 -60 -295t-163.5 -240.5t-242 -162.5t-293.5 -59q-158 0 -295.5 59t-240.5 162.5t-162.5 240.5t-59.5 295zM301 739q0 -113 42 -212t115.5 -172.5 t172 -116.5t209.5 -43t208 43t169.5 116.5t114.5 173t42 213.5q0 113 -42 212.5t-115.5 173t-171 116.5t-207.5 43q-111 0 -209.5 -43t-171 -116.5t-114.5 -174t-42 -213.5z" />
<glyph unicode="P" horiz-adv-x="1181" d="M182 0v1485h406q117 0 214 -31t167.5 -91t109.5 -147.5t39 -199.5q0 -88 -26.5 -175t-86 -156t-155.5 -112t-234 -43h-208v-530h-226zM408 741h202q82 0 137.5 29t87 70t45 88t13.5 84q0 39 -13.5 85t-46 86t-87 66.5t-134.5 26.5h-204v-535z" />
<glyph unicode="Q" horiz-adv-x="1683" d="M78 741q0 154 59.5 292t161.5 242.5t239.5 165t295.5 60.5q156 0 294 -60.5t242.5 -165t164.5 -242.5t60 -292q0 -158 -55 -295t-154 -251l256 18v-213h-649q-41 -8 -80 -12t-79 -4q-158 0 -295.5 59t-239.5 162.5t-161.5 240.5t-59.5 295zM301 739q0 -113 42 -212 t114.5 -172.5t171 -116.5t211.5 -43q111 0 208 43t169.5 116.5t114.5 173t42 213.5q0 113 -43 212.5t-115.5 173t-171 116.5t-208.5 43q-111 0 -209.5 -43t-170 -116.5t-113.5 -174t-42 -213.5z" />
<glyph unicode="R" horiz-adv-x="1286" d="M182 0v1485h406q117 0 214 -31t167.5 -91t109.5 -147.5t39 -199.5q0 -61 -12 -121.5t-40 -117t-71 -104.5t-104 -81q82 -129 178 -285.5t195 -306.5h-269q-41 63 -85 133t-88 138.5t-86 135t-79 123.5h-41h-208v-530h-226zM408 741h202q82 0 137.5 28t87 69t45 88 t13.5 86t-13.5 85t-46 86t-87 66.5t-134.5 26.5h-204v-535z" />
<glyph unicode="S" horiz-adv-x="1157" d="M49 111l98 194q82 -47 182.5 -75.5t182.5 -28.5q41 0 101.5 10t115.5 35.5t95 68.5t40 109q0 59 -31.5 101t-84 74t-119 57.5t-136 53t-136 58.5t-119 75t-84 102.5t-31.5 139.5q0 76 30.5 150t92 131t152.5 92t212 35q74 0 144.5 -12.5t128 -27.5t97.5 -29.5t52 -20.5 l-80 -182q-84 31 -167 49t-158 18q-129 0 -206 -53t-77 -135q0 -70 55.5 -112t137 -75.5t178 -67.5t178.5 -87t137 -134t55 -208q0 -98 -35.5 -177t-106.5 -136.5t-176 -88t-247 -30.5q-90 0 -162.5 12t-131 31.5t-102.5 42t-75 41.5z" />
<glyph unicode="T" horiz-adv-x="1128" d="M82 1272v213h965v-213h-375v-1272h-223v1272h-367z" />
<glyph unicode="U" horiz-adv-x="1464" d="M166 524v961h225v-955q0 -72 25.5 -132t72 -106t107.5 -71.5t135 -25.5q72 0 134.5 25.5t108.5 71.5t72.5 106.5t26.5 131.5v955h225v-961q0 -123 -44 -222t-120.5 -170t-180 -109.5t-222.5 -38.5t-221 38.5t-179 109.5t-121 170t-44 222z" />
<glyph unicode="V" horiz-adv-x="1329" d="M4 1485h221q14 -35 47 -114t75 -179t88 -213t87 -213t74 -179t47 -114q2 -4 10.5 -28.5t12.5 -43.5l20 72q14 35 47 114t74 179t87 213t88 213t75 179t47 114h221q-12 -29 -44 -103.5t-77 -181t-99 -233.5t-110.5 -258t-111 -258t-98.5 -233.5t-75.5 -181.5t-43.5 -104z " />
<glyph unicode="W" horiz-adv-x="1941" d="M14 1479h252q49 -135 101.5 -272.5t98.5 -264.5t83 -235.5t57 -184.5l17 -71q2 10 10 33.5t12 33.5q2 8 14.5 37t29 69t36.5 87t41 96q49 113 108 250q-35 96 -61 180q-25 72 -46.5 141.5t-31.5 100.5h215q88 -231 164 -428q31 -84 62.5 -168t59.5 -156t48.5 -126 t28.5 -79q6 -18 9 -35.5t7 -35.5q4 18 7 36.5t7 34.5q18 80 57.5 190.5t87.5 237.5t101 263.5t103 265.5h233q-74 -195 -156.5 -409t-163.5 -421t-153 -393t-121 -322l-332 830q-6 16 -10 24.5t-8 24.5q0 -8 -2 -15t-4 -16l-4 -16q-70 -160 -137 -313q-29 -66 -60 -135.5 t-59.5 -138t-56 -132t-50.5 -115.5q-147 387 -296.5 772.5t-297.5 774.5z" />
<glyph unicode="X" horiz-adv-x="1292" d="M14 0l486 760l-465 725h274q10 -16 35 -55t55.5 -89.5t65.5 -106.5t65.5 -106.5t54 -89.5t33.5 -55q2 -4 14.5 -27.5t18.5 -42.5q6 18 18.5 42t14.5 28q10 16 33.5 55t53.5 89.5t62.5 106.5t62.5 106.5t53.5 89t33.5 55.5h274q-12 -18 -46.5 -74.5t-83 -132.5 t-101.5 -162t-101 -161.5t-84 -132t-46 -74.5l483 -748h-279l-303 487q-4 6 -12 18.5t-16.5 28t-16.5 30t-12 22.5q-6 -18 -16.5 -39t-12.5 -23q-16 -27 -62 -101.5t-96.5 -160.5t-96.5 -160.5t-62 -101.5h-279z" />
<glyph unicode="Y" horiz-adv-x="1343" d="M8 1485h254q18 -31 65.5 -118t104.5 -196.5t116.5 -221t100.5 -191.5l23 -68q8 16 14 33.5t12 34.5q43 80 100.5 191.5t114 221t102.5 196.5t64 118h252l-547 -996v-489h-225v489q-14 23 -56 99t-98.5 179t-121 220t-121 220.5t-98 179t-56.5 98.5z" />
<glyph unicode="Z" horiz-adv-x="1300" d="M2 0q20 27 63.5 92.5t100.5 154.5t125.5 195.5t140.5 216t140.5 216t126 194.5t100.5 151.5t63 90.5h-594q-33 0 -64.5 9t-56 25.5t-40 41t-15.5 55.5v119h201v-29q0 -37 14 -42t49 -5h879l-844 -1270h862v-215h-1251z" />
<glyph unicode="[" horiz-adv-x="643" d="M176 -309v1857h406v-182h-217v-1493h217v-182h-406z" />
<glyph unicode="\" horiz-adv-x="915" d="M63 1528h213q145 -393 288 -783.5t290 -783.5h-213z" />
<glyph unicode="]" horiz-adv-x="643" d="M61 -127h220v1493h-220v182h406v-1857h-406v182z" />
<glyph unicode="^" horiz-adv-x="749" d="M125 995q63 94 126 187.5t124 187.5q61 -94 123.5 -187t126.5 -188h-131q-8 12 -24.5 34t-35 45.5t-35 46t-24.5 34.5q-8 -12 -24.5 -34.5t-35 -46t-34 -45t-23.5 -34.5h-133z" />
<glyph unicode="_" horiz-adv-x="1056" d="M113 0v182h831v-182h-831z" />
<glyph unicode="`" horiz-adv-x="415" d="M-113 1270h189q47 -68 93 -137.5t93 -137.5h-131q-61 68 -122.5 137.5t-121.5 137.5z" />
<glyph unicode="a" horiz-adv-x="1101" d="M63 420q0 94 36 177t97.5 145.5t142.5 99.5t173 37q61 0 112.5 -15.5t88.5 -38t59.5 -47t30.5 -43.5l8 121h168v-856h-176v109q-10 -16 -32.5 -39t-58.5 -42.5t-85 -33.5t-113 -14q-98 0 -181 35.5t-142.5 96t-93.5 140.5t-34 168zM240 430q0 -59 21.5 -110.5t58 -88 t88 -58t112.5 -21.5t113.5 21.5t90.5 59t58.5 88t20.5 109.5t-20.5 109.5t-58.5 87.5t-90 58.5t-114 21.5q-61 0 -112.5 -21.5t-88 -58.5t-58 -87.5t-21.5 -109.5z" />
<glyph unicode="b" horiz-adv-x="1105" d="M123 0v1591h176v-860q16 25 44 50.5t65.5 47t85 36t104.5 14.5q98 0 179 -32t139.5 -90.5t90 -142.5t31.5 -188q0 -96 -32.5 -178t-92 -141.5t-142.5 -93t-181 -33.5q-51 0 -97.5 11t-85 30.5t-67.5 43t-43 48.5q0 -10 1 -21.5t1 -21.5v-70h-176zM299 430 q0 -59 21.5 -110.5t58.5 -88t89 -58t114 -21.5q61 0 110 21.5t84 59t53.5 88t18.5 109.5t-18.5 109.5t-53.5 87.5t-84 58.5t-110 21.5t-113.5 -21.5t-89.5 -58.5t-58.5 -87.5t-21.5 -109.5z" />
<glyph unicode="c" horiz-adv-x="851" d="M63 430q0 92 36 174t97.5 142.5t144.5 96.5t177 36q86 0 159 -27t132 -72l-113 -133q-35 29 -80 44.5t-98 15.5q-61 0 -112.5 -21.5t-89 -58.5t-58 -87.5t-20.5 -109.5t20.5 -109.5t58 -88t89 -59t112.5 -21.5q53 0 98 15t80 44q29 -35 54.5 -66.5t52.5 -66.5 q-57 -45 -129 -71.5t-156 -26.5q-94 0 -177 35.5t-144.5 97t-97.5 143.5t-36 174z" />
<glyph unicode="d" horiz-adv-x="1103" d="M66 428q0 100 33.5 183t93 142.5t140.5 92.5t175 33q63 0 113.5 -15.5t86 -37t60.5 -48t37 -47.5v860h176v-1591h-176v63q0 12 2 27.5t2 26.5q-20 -25 -48 -48.5t-65 -44t-85 -32.5t-109 -12q-102 0 -183 35.5t-137.5 96t-86 142.5t-29.5 174zM242 430q0 -59 21.5 -110.5 t58 -88t88 -58t112.5 -21.5t113.5 21.5t90.5 59t58.5 88t20.5 109.5t-20.5 109.5t-58.5 87.5t-90 58.5t-114 21.5q-61 0 -112.5 -21.5t-88 -58.5t-58 -87.5t-21.5 -109.5z" />
<glyph unicode="e" horiz-adv-x="948" d="M63 428q0 92 36 174t97.5 143.5t142.5 97.5t173 36q145 0 252.5 -87t155.5 -229q-63 -23 -145.5 -55.5t-170.5 -68.5t-176 -70.5t-164 -63.5q35 -70 101.5 -111.5t148.5 -41.5q55 0 111.5 20.5t91.5 54.5l131 -127q-61 -55 -149.5 -87.5t-180.5 -32.5q-94 0 -177 35.5 t-144.5 96t-97.5 142.5t-36 174zM238 436q0 -10 1 -14t1 -6q53 20 115.5 45.5t124 51.5t118.5 49.5t102 41.5q-25 51 -78 77t-108 26q-59 0 -109.5 -22.5t-87 -60.5t-58 -87.5t-21.5 -100.5z" />
<glyph unicode="f" horiz-adv-x="659" d="M49 686v172h146v199q0 268 125.5 398t357.5 136v-168q-160 -8 -233.5 -102t-73.5 -268v-195h270v-172h-270v-686h-176v686h-146z" />
<glyph unicode="g" horiz-adv-x="1103" d="M66 426q0 96 34.5 179t94 143.5t139.5 95.5t170 35q70 0 124 -18.5t91 -43t58.5 -48.5t27.5 -34q0 29 4 60.5t4 60.5h168v-817q0 -213 -125 -332t-338 -119q-74 0 -132 15.5t-106.5 40t-88 57.5t-78.5 68l112 118q63 -59 130 -94t159 -35q137 0 213 65.5t78 182.5v60 q0 16 4 35.5t4 29.5q-18 -25 -46 -52.5t-64.5 -49t-86 -35.5t-110.5 -14q-96 0 -176 34.5t-139.5 95t-92 141.5t-32.5 175zM242 430q0 -59 21.5 -110.5t58 -88t88 -58t112.5 -21.5t113.5 21.5t90.5 59t58.5 88t20.5 109.5t-20.5 109.5t-58.5 87.5t-90 58.5t-114 21.5 q-61 0 -112.5 -21.5t-88 -58.5t-58 -87.5t-21.5 -109.5z" />
<glyph unicode="h" horiz-adv-x="1042" d="M123 0v1591h174v-942q45 102 127 165t211 65h7q126 0 203 -70q79 -72 83 -186v-623h-176v543q-4 66 -45 111.5t-129 50.5q-61 0 -112.5 -21.5t-88.5 -58.5t-58.5 -88.5t-21.5 -112.5v-424h-174z" />
<glyph unicode="i" horiz-adv-x="419" d="M100 1184q0 49 36 81.5t77 32.5t76 -32.5t35 -81.5t-35 -81t-76 -32t-77 32t-36 81zM123 0v856h174v-856h-174z" />
<glyph unicode="j" horiz-adv-x="419" d="M-2 -283q59 47 92 118t33 169v852h174v-858q0 -139 -47 -241.5t-129 -170.5zM104 1184q0 49 35 81.5t78 32.5q41 0 76 -32.5t35 -81.5t-35 -81t-76 -32q-43 0 -78 32t-35 81z" />
<glyph unicode="k" horiz-adv-x="905" d="M123 0v1591h174v-1116q115 104 219 202t215 202l105 -105q-78 -72 -149 -139.5t-148 -140.5q92 -123 180 -247t178 -247h-201q-70 96 -140.5 189.5t-139.5 189.5l-119 -109v-270h-174z" />
<glyph unicode="l" horiz-adv-x="423" d="M125 0v1591h174v-1591h-174z" />
<glyph unicode="m" horiz-adv-x="1642" d="M123 0v856h153q4 -63 7.5 -115.5t7.5 -103.5q47 111 124 175.5t206 66.5q125 0 200.5 -63.5t87.5 -166.5q51 104 126 166t202 64q133 0 210 -72t81 -184v-623h-176v543q-4 66 -44 111.5t-130 50.5q-123 0 -193 -79t-74 -202v-424h-174v543q-4 66 -46 111.5t-128 50.5 q-61 0 -110.5 -21.5t-84 -58.5t-53 -88.5t-18.5 -112.5v-424h-174z" />
<glyph unicode="n" horiz-adv-x="1042" d="M123 0v856h153q4 -63 7.5 -115.5t7.5 -103.5q47 111 134 176.5t214 65.5q129 0 207 -72t82 -184v-623h-176v543q-4 66 -45 111.5t-129 50.5q-61 0 -112.5 -21.5t-88.5 -58.5t-58.5 -88.5t-21.5 -112.5v-424h-174z" />
<glyph unicode="o" horiz-adv-x="1034" d="M63 430q0 92 36 174t97.5 142.5t144.5 96.5t179 36t179 -36t143.5 -96.5t94.5 -142.5t34 -174t-34 -174t-94.5 -143.5t-143.5 -97t-181 -35.5q-94 0 -177 32.5t-144.5 92t-97.5 142.5t-36 183zM238 428q0 -57 21.5 -107.5t59 -88t88 -59t107.5 -21.5t108.5 21.5t89.5 59 t60.5 88t22.5 107.5t-22.5 108.5t-60.5 89.5t-89.5 59.5t-108.5 21.5t-107.5 -21.5t-88 -59.5t-59 -89.5t-21.5 -108.5z" />
<glyph unicode="p" horiz-adv-x="1105" d="M123 -412v1268h170q0 -25 3 -60.5t3 -64.5q16 25 44 50.5t65.5 47t85 36t104.5 14.5q98 0 179 -32t139.5 -90.5t90 -142.5t31.5 -188q0 -96 -32.5 -178t-92 -141.5t-142.5 -93t-181 -33.5q-51 0 -97.5 11t-85 30.5t-67.5 43t-43 48.5q0 -10 1 -21.5t1 -21.5v-482h-176z M299 430q0 -59 21.5 -110.5t58.5 -88t89 -58t114 -21.5q61 0 110 21.5t84 59t53.5 88t18.5 109.5t-18.5 109.5t-53.5 87.5t-84 58.5t-110 21.5t-113.5 -21.5t-89.5 -58.5t-58.5 -87.5t-21.5 -109.5z" />
<glyph unicode="q" horiz-adv-x="1103" d="M66 428q0 100 33.5 183t93 142.5t140.5 92.5t175 33q63 0 113.5 -15.5t86 -37t60.5 -48t37 -47.5q0 29 3 64.5t3 60.5h170v-1268h-176v475q0 12 2 27.5t2 26.5q-20 -25 -48 -48.5t-65 -44t-85 -32.5t-109 -12q-102 0 -183 35.5t-137.5 96t-86 142.5t-29.5 174zM242 430 q0 -59 21.5 -110.5t58 -88t88 -58t112.5 -21.5t113.5 21.5t90.5 59t58.5 88t20.5 109.5t-20.5 109.5t-58.5 87.5t-90 58.5t-114 21.5q-61 0 -112.5 -21.5t-88 -58.5t-58 -87.5t-21.5 -109.5z" />
<glyph unicode="r" horiz-adv-x="636" d="M123 0v856h153q4 -63 7.5 -115.5t7.5 -103.5q27 55 69.5 100t92 76t96.5 48.5t84 17.5l-39 -226q-57 0 -110.5 -15t-95.5 -46t-66.5 -77t-24.5 -105v-410h-174z" />
<glyph unicode="s" horiz-adv-x="696" d="M57 90q14 14 31.5 37t35 43t29 33.5t13.5 13.5q0 -2 15.5 -12t40 -21.5t55 -20.5t61.5 -9q49 0 84 24.5t35 65.5q0 37 -28 58.5t-69 39.5t-90 37.5t-90 50.5t-68.5 77t-27.5 120q0 70 25.5 117t65.5 76.5t89 43t94 13.5q59 0 127 -25t115 -72l-92 -123q-2 2 -14.5 10.5 t-32 16.5t-45 15.5t-51.5 7.5q-35 0 -69 -16.5t-34 -61.5q0 -39 27.5 -63.5t68.5 -44t89.5 -40t89.5 -50.5t68.5 -74t27.5 -111q0 -115 -79 -189.5t-216 -74.5q-80 0 -157 27.5t-124 80.5z" />
<glyph unicode="t" horiz-adv-x="622" d="M43 698v156h154v379h174v-379h229v-156h-229v-698h-174v698h-154z" />
<glyph unicode="u" horiz-adv-x="1042" d="M115 236v620h174v-543q4 -63 46 -108t130 -51q61 0 112.5 21.5t88 58t57 88t20.5 112.5v422h177v-874h-148l-20 237q-47 -104 -132 -171.5t-217 -67.5q-131 0 -207.5 70.5t-80.5 185.5z" />
<glyph unicode="v" horiz-adv-x="911" d="M8 856h191q74 -145 117.5 -237.5t70.5 -154t41 -103.5t29 -85q16 43 31.5 85t41 103.5t69.5 154t118 237.5h190q-117 -229 -225 -453.5t-225 -453.5q-121 229 -226.5 453.5t-222.5 453.5z" />
<glyph unicode="w" horiz-adv-x="1339" d="M18 856h177q53 -127 87.5 -211t58.5 -145.5t38 -111.5t27 -112q8 25 19 55.5t30.5 79t52.5 122t82 186.5l-64 137h152q59 -129 100 -222t70 -162t47 -116t31 -80q12 61 29.5 111.5t44 113t64.5 145.5t91 210h176l-405 -907q-37 76 -69 150.5t-61.5 148.5t-61.5 147.5 t-68 151.5l-260 -598z" />
<glyph unicode="x" horiz-adv-x="888" d="M23 0q78 117 157.5 228.5t155.5 224.5q-72 102 -148.5 202.5t-146.5 200.5h215q25 -41 48.5 -73.5t47 -63.5t47 -62.5t50.5 -70.5q51 76 96 134t98 136h195q-37 -57 -72 -105.5t-69.5 -96.5t-70.5 -98t-75 -112q37 -49 79 -106t85 -115.5t84 -116t75 -106.5h-223 q-57 80 -112.5 147.5t-112.5 145.5q-53 -78 -104.5 -145.5t-104.5 -147.5h-194z" />
<glyph unicode="y" horiz-adv-x="980" d="M12 856h191q74 -145 122 -245.5t79.5 -173t51 -124t33.5 -94.5q16 43 36 94.5t51.5 124t80 173t121.5 245.5h191l-611 -1268h-176q29 59 54.5 113.5t51 111t52.5 117t59 129.5q-47 92 -96 193.5t-98 204t-97.5 205t-95.5 194.5z" />
<glyph unicode="z" horiz-adv-x="899" d="M31 0l491 707h-286q-72 0 -119 38.5t-47 104.5v88h157v-27q0 -35 16.5 -45t53.5 -10h547l-477 -684h471v-172h-807z" />
<glyph unicode="{" horiz-adv-x="669" d="M55 524v183q49 2 81 29.5t50.5 69.5t25.5 90t7 91v318q0 96 20.5 146t54.5 71.5t80 23.5t97 2h137v-182h-88q-33 0 -54.5 -7t-33.5 -30.5t-17 -64.5t-5 -109v-264q0 -59 -13.5 -104.5t-34 -78t-44 -55t-42.5 -35.5q18 -12 42 -34.5t44.5 -55t34 -77.5t13.5 -103v-262 q0 -68 5 -110t17 -64.5t33.5 -30.5t54.5 -8h88v-184h-137q-49 0 -94 2t-81 23.5t-56.5 70.5t-20.5 143v316q0 43 -7 91t-25.5 89t-50.5 69.5t-81 30.5z" />
<glyph unicode="|" horiz-adv-x="538" d="M174 -483v1937h191v-1937h-191z" />
<glyph unicode="}" horiz-adv-x="671" d="M63 -127h89q33 0 53 8t32.5 30.5t17.5 64.5t5 110v254q0 61 14.5 108.5t35 81t44 55t41.5 33.5q-18 12 -41.5 35t-44 55.5t-35 77.5t-14.5 105v264q0 68 -5 109t-17.5 64.5t-33 30.5t-52.5 7h-89v182h138q49 0 95 -1t81 -22.5t55.5 -71.5t20.5 -148v-326q0 -43 7 -91 t25.5 -88t50 -66.5t80.5 -26.5v-183q-49 -2 -80.5 -28.5t-50 -66.5t-25.5 -87t-7 -90v-315q0 -96 -20.5 -147.5t-54.5 -74t-80 -24.5t-97 -2h-138v184z" />
<glyph unicode="~" horiz-adv-x="958" d="M147 961q2 43 20.5 77.5t46.5 59t60.5 38t65.5 13.5q49 0 88 -18.5t72 -51.5q33 -31 56.5 -41t51.5 -10q14 0 31.5 4t33 14.5t28 29t16.5 46.5l98 -6q-2 -43 -20.5 -76.5t-46 -58.5t-60.5 -38t-63 -13q-47 0 -87 17t-75 48q-33 31 -55.5 42.5t-51.5 11.5t-65.5 -18.5 t-42.5 -76.5z" />
<glyph unicode="&#xa1;" horiz-adv-x="540" d="M156 1014q0 51 35.5 83.5t78.5 32.5t78 -32.5t35 -83.5t-35 -84t-78 -33t-78.5 33t-35.5 84zM176 -434v1212h189v-1212h-189z" />
<glyph unicode="&#xa2;" horiz-adv-x="886" d="M70 430q0 78 26.5 149.5t72.5 129t109.5 97.5t137.5 58v131h129v-116q78 -4 146.5 -31t123.5 -68l-113 -133q-31 25 -70.5 40t-86.5 20v-555q94 6 157 59q29 -35 54.5 -66.5t52.5 -66.5q-53 -41 -119.5 -67.5t-144.5 -30.5v-119h-129v133q-74 18 -137.5 58t-109.5 98.5 t-72.5 129t-26.5 150.5zM244 430q0 -90 47 -159.5t125 -100.5v516q-78 -29 -125 -97.5t-47 -158.5z" />
<glyph unicode="&#xa3;" horiz-adv-x="1253" d="M80 0v182h92q33 0 53.5 7.5t32.5 28t17.5 59t5.5 102.5v178h-136v184h136v369q0 74 31.5 135.5t89 105.5t138.5 69.5t179 25.5q147 0 239.5 -56.5t143.5 -154.5q-35 -20 -71 -40.5t-73 -41.5q-10 8 -22 26.5t-37 37t-66.5 32t-109.5 13.5q-123 0 -188.5 -52.5 t-65.5 -150.5v-318h242v-184h-242v-217q0 -53 -5 -91t-38 -67h342q68 0 109 5.5t64.5 17.5t30.5 33.5t7 52.5v88q47 0 95 1t95 1v-205q0 -39 -9 -70.5t-36.5 -55t-76 -37t-123.5 -13.5h-844z" />
<glyph unicode="&#xa4;" horiz-adv-x="960" d="M162 506l59 59q-25 37 -39 81t-14 93q0 47 14.5 88t36.5 78q-16 14 -28.5 27.5t-28.5 30.5l90 90l59 -58q37 23 79 37.5t89 14.5q92 0 170 -52l58 58l90 -90l-54 -56q23 -37 37.5 -80t14.5 -88q0 -94 -56 -172l60 -59l-90 -90l-64 61q-72 -49 -166 -49t-166 47l-61 -61z M297 737q0 -76 54.5 -129t129.5 -53q76 0 130.5 53.5t54.5 128.5q0 78 -54.5 132.5t-130.5 54.5t-130 -54.5t-54 -132.5z" />
<glyph unicode="&#xa5;" horiz-adv-x="1431" d="M55 1485h254q18 -31 65.5 -118t105 -196.5t116.5 -221t100 -191.5l23 -68q8 16 14 33.5t12 34.5q43 80 100.5 191.5t114 221t102.5 196.5t64 118h252l-452 -821h125v-125h-193l-27 -50v-159h220v-125h-220v-205h-225v205h-237v125h237v159q-4 6 -11 19.5t-17 30.5h-209 v125h139q-37 68 -82 149.5t-92 166.5t-93 168t-84 152.5t-64.5 118.5t-37.5 66z" />
<glyph unicode="&#xa6;" horiz-adv-x="542" d="M176 242h191v-727h-191v727zM176 727v727h191v-727h-191z" />
<glyph unicode="&#xa7;" horiz-adv-x="786" d="M98 685q-8 56 0 110.5t33 103.5t68 86q29 23 62.5 38t74.5 26q-20 33 -37.5 65.5t-40.5 67.5q-41 70 -53 120t-3 86.5t36.5 62.5t64.5 46q39 25 78 47.5t76 44.5q25 -41 48 -80t48 -77q-20 -10 -40.5 -21.5t-39.5 -24.5q-49 -29 -55 -62.5t43 -115.5h2l186 -309 q31 -49 40 -104.5t-1 -108.5t-37.5 -101t-70.5 -85q-29 -23 -63 -40.5t-75 -27.5q20 -33 40 -66.5t40 -68.5q43 -70 55.5 -121t4 -88t-36 -63.5t-64.5 -47.5q-39 -25 -75.5 -46t-75.5 -44l-94 158l77 47q25 14 38.5 29.5t12 39t-17.5 58.5t-49 88q-61 98 -95 153.5t-49.5 82 t-17.5 33t-2 4.5q-27 49 -35 105zM264 758q-4 -27 4 -51.5t25.5 -43t41 -30.5t52.5 -12q51 0 89 35.5t40 88.5q2 51 -34 88t-89 41q-47 -2 -88 -31.5t-41 -84.5z" />
<glyph unicode="&#xa8;" horiz-adv-x="770" d="M94 1083q0 51 36 84t81 33q41 0 77 -32.5t36 -84.5q0 -51 -36 -82.5t-77 -31.5q-45 0 -81 31.5t-36 82.5zM483 1083q0 51 36 84t79 33q41 0 77 -32.5t36 -84.5q0 -51 -36 -82.5t-77 -31.5q-43 0 -79 31.5t-36 82.5z" />
<glyph unicode="&#xa9;" horiz-adv-x="1290" d="M111 762q0 115 42 213t114.5 168.5t170 110.5t207.5 40q111 0 208 -40t170 -110.5t115 -168.5t42 -213t-42 -211t-115 -168t-170 -112t-208 -40t-208 40t-169.5 112t-114.5 168t-42 211zM178 762q0 -100 36 -186.5t99.5 -148.5t148.5 -98t183 -36t183 36t148.5 98 t99.5 148.5t36 186.5q0 102 -36 188t-99.5 149.5t-148.5 98.5t-183 35t-183 -35t-148.5 -98.5t-99.5 -149.5t-36 -188zM315 764q0 76 28 139.5t75 109.5t110.5 72.5t135.5 26.5q53 0 105 -14.5t75 -32.5q-8 -12 -12.5 -19.5t-9.5 -15.5t-10 -18.5t-15 -26.5q-23 16 -62 23.5 t-67 7.5q-53 0 -99.5 -19.5t-80 -53.5t-52 -78t-18.5 -93q0 -47 17.5 -91t50 -78t76.5 -54.5t100 -20.5q57 0 103 17.5t52 25.5l43 -90q-23 -16 -77 -36.5t-130 -20.5q-80 0 -142 27.5t-105.5 73.5t-67 107.5t-23.5 131.5z" />
<glyph unicode="&#xaa;" horiz-adv-x="880" d="M84 930q0 68 25.5 128t69.5 104t103.5 71t125.5 27q45 0 81.5 -11.5t63.5 -27t43 -34t22 -30.5q0 23 2.5 44.5t2.5 41.5h122v-616h-127v78q-6 -12 -23 -27.5t-43 -30t-61.5 -25t-80.5 -10.5q-72 0 -131.5 26t-102.5 70t-67.5 101.5t-24.5 120.5zM211 936 q0 -86 57.5 -143.5t145.5 -57.5q90 0 147 58.5t57 142.5q0 86 -57 143.5t-147 57.5q-88 0 -145.5 -57.5t-57.5 -143.5z" />
<glyph unicode="&#xab;" horiz-adv-x="929" d="M82 496q8 8 35.5 38.5t63.5 70.5t78 87t78 87t63.5 71t35.5 39v-215q-10 -10 -30.5 -36t-42 -53.5t-42 -52t-30.5 -36.5q10 -10 30.5 -36t42 -53.5t42 -53t30.5 -36.5v-215zM436 496q8 8 36 38.5t64.5 70.5t78.5 87t78 87t63.5 71t36.5 39v-213q-10 -12 -31 -37 t-43.5 -53.5t-43 -53t-30.5 -36.5q10 -10 30.5 -36t43 -53.5t43 -53t31.5 -36.5v-215z" />
<glyph unicode="&#xac;" horiz-adv-x="1001" d="M131 381v135h748v-209h-189v74h-559z" />
<glyph unicode="&#xad;" horiz-adv-x="606" d="M113 354v183h381v-183h-381z" />
<glyph unicode="&#xae;" horiz-adv-x="1290" d="M111 762q0 115 42 213t114.5 168.5t170 110.5t207.5 40q111 0 208 -40t170 -110.5t115 -168.5t42 -213t-42 -211t-115 -168t-170 -112t-208 -40t-208 40t-169.5 112t-114.5 168t-42 211zM178 762q0 -100 36 -186.5t99.5 -148.5t148.5 -98t183 -36t183 36t148.5 98 t99.5 148.5t36 186.5q0 102 -36 188t-99.5 149.5t-148.5 98.5t-183 35t-183 -35t-148.5 -98.5t-99.5 -149.5t-36 -188zM428 430v703h193q111 0 180 -57.5t69 -164.5q0 -59 -24.5 -113.5t-81.5 -86.5q41 -61 85 -135t91 -146h-127q-39 59 -81 128t-79 122h-20h-98v-250h-107z M535 780h96q39 0 64.5 13.5t41 33t21.5 42t6 40.5t-6 40t-21.5 41.5t-41 31.5t-64.5 12h-96v-254z" />
<glyph unicode="&#xaf;" horiz-adv-x="829" d="M176 989v119h479v-119h-479z" />
<glyph unicode="&#xb0;" horiz-adv-x="608" d="M90 1163q0 45 17.5 84t46 67.5t68.5 45t85 16.5q43 0 82 -16.5t67.5 -45t45 -67.5t16.5 -84t-16.5 -84t-45 -67.5t-67.5 -45t-82 -16.5q-45 0 -85 16.5t-68.5 45t-46 67.5t-17.5 84zM209 1161q0 -41 28.5 -68.5t69.5 -27.5t70 27.5t29 68.5t-29 70t-70 29t-69.5 -29 t-28.5 -70z" />
<glyph unicode="&#xb1;" horiz-adv-x="1017" d="M135 170v184h748v-184h-748zM135 719v182h279v285h190v-285h279v-182h-279v-281h-190v281h-279z" />
<glyph unicode="&#xb2;" horiz-adv-x="692" d="M115 1233q0 41 14 79t42 66.5t68 46t93 17.5q49 0 88 -17.5t67.5 -46t44 -67.5t15.5 -82q0 -100 -60.5 -190.5t-140.5 -180.5h238v-90h-459q63 63 121.5 122.5t104.5 116t74 108.5t28 102q0 35 -12.5 60.5t-30 41.5t-39 24.5t-39.5 8.5q-37 0 -61.5 -13.5t-38 -32 t-19.5 -39t-6 -34.5q0 -35 11 -59.5t28 -45.5q-12 -16 -25.5 -29.5l-27.5 -27.5q-37 23 -57.5 73t-20.5 89z" />
<glyph unicode="&#xb3;" horiz-adv-x="581" d="M90 844l68 63q37 -47 96 -47q55 0 94 39t39 94q0 53 -39 92t-94 39q-35 0 -68 -16q35 59 76 120.5t74 123.5h-205v90h352q-35 -59 -73.5 -119.5t-73.5 -122.5q66 -27 105.5 -81t39.5 -126q0 -47 -18.5 -87t-49 -70.5t-71.5 -48t-86 -17.5q-51 0 -93 19.5t-73 54.5z" />
<glyph unicode="&#xb4;" horiz-adv-x="581" d="M207 995q47 68 94 137.5t94 137.5h189l-244 -275h-133z" />
<glyph unicode="&#xb5;" horiz-adv-x="1140" d="M162 236v620h174v-543q4 -63 46 -108t130 -51q61 0 112.5 21.5t88.5 58t57.5 88t20.5 112.5v422h176v-874h-148l-20 237q-47 -104 -132 -171.5t-216 -67.5q-66 0 -115 18v-410h-172v617q-2 10 -2 31z" />
<glyph unicode="&#xb6;" horiz-adv-x="1157" d="M70 1217q0 72 25.5 133t71.5 107t107.5 72.5t133.5 26.5h526v-1556h-186v1376h-154v-1376h-186v879q-72 0 -133.5 26.5t-107.5 71.5t-71.5 106.5t-25.5 133.5z" />
<glyph unicode="&#xb7;" horiz-adv-x="454" d="M113 586q0 49 35.5 82.5t80.5 33.5q41 0 77 -33.5t36 -82.5q0 -53 -36 -84t-77 -31q-45 0 -80.5 31t-35.5 84z" />
<glyph unicode="&#xb8;" horiz-adv-x="937" d="M215 -365q27 12 52.5 25.5t49.5 28.5q10 -33 37 -54.5t66 -21.5q49 0 74.5 32.5t25.5 80.5q0 41 -22.5 64.5t-48 41.5t-48 38.5t-22.5 55.5v74h115v-14q0 -31 9 -48.5t22.5 -28.5t28.5 -18.5t28 -17.5q43 -33 60 -75t17 -97q0 -43 -14 -83t-42 -72.5t-69.5 -52 t-97.5 -19.5q-72 0 -132 40t-89 121z" />
<glyph unicode="&#xb9;" horiz-adv-x="374" d="M94 1358v84h148v-621h-86v537h-62z" />
<glyph unicode="&#xba;" horiz-adv-x="821" d="M84 936q0 68 25.5 126t69.5 102t104.5 70t128.5 26q70 0 129 -26t103 -70t68.5 -102t24.5 -126t-24.5 -126t-68.5 -102t-103.5 -70t-128.5 -26q-68 0 -127.5 23.5t-104.5 66.5t-70.5 102.5t-25.5 131.5zM209 936q0 -84 57.5 -142.5t141.5 -58.5q41 0 77.5 15.5t64.5 43 t44 64.5t16 78t-16 78t-44 64.5t-64.5 43t-77.5 15.5q-84 0 -141.5 -58.5t-57.5 -142.5z" />
<glyph unicode="&#xbb;" horiz-adv-x="927" d="M137 102v215q10 10 30.5 36t43 53.5t43 53t31.5 36.5q-10 12 -31 36.5t-43.5 53t-43 53.5t-30.5 37v213q8 -8 36 -39t64.5 -71t77.5 -87t78 -87t63.5 -70.5t37.5 -38.5zM494 102v215q10 10 30.5 36t42 53.5t42 53t30.5 36.5q-10 12 -30.5 36.5t-42 52t-42 53.5t-30.5 36 v215q8 -8 35.5 -39t63.5 -71t78 -87t77.5 -87t63.5 -70.5t36 -38.5z" />
<glyph unicode="&#xbc;" horiz-adv-x="1642" d="M88 1307v131h227v-959h-135v828h-92zM377 -39l577 1567h191q-147 -393 -289.5 -783.5t-290.5 -783.5h-188zM823 260q141 184 299 379t299 379v-623h150v-135h-150v-260h-141v260h-457zM1094 395h186v242z" />
<glyph unicode="&#xbd;" horiz-adv-x="1716" d="M86 1309v129h227v-959h-135v830h-92zM385 -39l578 1567h190q-147 -393 -289.5 -783.5t-290.5 -783.5h-188zM971 666q0 59 20.5 113.5t60.5 96.5t97 66.5t133 24.5q70 0 126 -24.5t96 -68t62.5 -98.5t22.5 -117q0 -72 -23.5 -139t-62.5 -134t-90 -131.5t-108 -127.5h340 v-129h-660q90 90 175 176t150.5 166t105.5 155.5t40 145.5q0 51 -17.5 88t-44 61.5t-56 36t-56.5 11.5q-53 0 -88 -18.5t-54.5 -46.5t-27.5 -57.5t-8 -49.5q0 -49 15.5 -86t41.5 -66l-78 -82q-27 16 -48 44t-35.5 60.5t-21.5 66.5t-7 63z" />
<glyph unicode="&#xbe;" horiz-adv-x="2027" d="M78 520q27 27 53.5 51.5t52.5 49.5q61 -72 152 -72q43 0 81 16.5t66.5 45t45 66.5t16.5 81t-16.5 79.5t-45 64.5t-66.5 44.5t-81 16.5q-56 0 -105 -25q53 96 117 190.5t117 192.5h-322v141h551q-55 -94 -115.5 -188t-113.5 -191q100 -41 162.5 -127t62.5 -198 q0 -72 -28.5 -136.5t-76.5 -111.5t-111.5 -74.5t-135.5 -27.5q-78 0 -144.5 30.5t-115.5 81.5zM727 -39l578 1567h190q-147 -393 -289.5 -783.5t-290.5 -783.5h-188zM1208 260q141 184 299 379t299 379v-623h150v-135h-150v-260h-141v260h-457zM1479 395h186v242z" />
<glyph unicode="&#xbf;" horiz-adv-x="974" d="M82 -12q0 117 54 204t149 156q27 20 60.5 43t63 51.5t49 67.5t19.5 92v162h189v-201q0 -68 -20.5 -109.5t-54.5 -73.5t-78 -59.5t-91 -64.5q-147 -115 -148 -268q0 -94 58.5 -157.5t156.5 -63.5q113 0 168 50t86 150l164 -61q-14 -43 -39.5 -99.5t-72.5 -105.5t-121 -83 t-185 -34q-86 0 -160.5 32t-129 87t-86 128t-31.5 157zM461 995q0 51 35.5 82t76.5 31q43 0 79 -30.5t36 -82.5q0 -51 -36 -83.5t-79 -32.5q-41 0 -76.5 32.5t-35.5 83.5z" />
<glyph unicode="&#xc0;" d="M2 0h221l176 426h525q29 -72 56.5 -138.5t51 -122.5t42 -99t28.5 -66h221q-12 29 -44 103.5t-77 181t-99 233.5t-110.5 258t-111 259t-98.5 233.5t-75.5 181.5t-43.5 104zM389 1845h189q47 -68 93 -137.5t93 -136.5h-131q-61 68 -122.5 137.5t-121.5 136.5zM477 614 l164 398q2 4 10 28.5t13 44.5q4 -20 11 -44.5t9 -28.5q8 -23 24.5 -62t38 -91t47 -114.5t54.5 -130.5h-371z" />
<glyph unicode="&#xc1;" d="M2 0h221l176 426h525q29 -72 56.5 -138.5t51 -122.5t42 -99t28.5 -66h221q-12 29 -44 103.5t-77 181t-99 233.5t-110.5 258t-111 259t-98.5 233.5t-75.5 181.5t-43.5 104zM477 614l164 398q2 4 10 28.5t13 44.5q4 -20 11 -44.5t9 -28.5q8 -23 24.5 -62t38 -91t47 -114.5 t54.5 -130.5h-371zM567 1571q47 68 94.5 137.5t94.5 136.5h188l-244 -274h-133z" />
<glyph unicode="&#xc2;" d="M2 0h221l176 426h525q29 -72 56.5 -138.5t51 -122.5t42 -99t28.5 -66h221q-12 29 -44 103.5t-77 181t-99 233.5t-110.5 258t-111 259t-98.5 233.5t-75.5 181.5t-43.5 104zM440 1573q63 94 126 187.5t124 187.5q61 -94 124 -187.5t126 -187.5h-131q-8 12 -24.5 33.5 t-35 45t-35 46t-24.5 35.5q-8 -12 -24.5 -35t-35 -46.5t-33.5 -45t-24 -33.5h-133zM477 614l164 398q2 4 10 28.5t13 44.5q4 -20 11 -44.5t9 -28.5q8 -23 24.5 -62t38 -91t47 -114.5t54.5 -130.5h-371z" />
<glyph unicode="&#xc3;" d="M2 0h221l176 426h525q29 -72 56.5 -138.5t51 -122.5t42 -99t28.5 -66h221q-12 29 -44 103.5t-77 181t-99 233.5t-110.5 258t-111 259t-98.5 233.5t-75.5 181.5t-43.5 104zM330 1599q2 43 20.5 78t46 59.5t60 38t65.5 13.5q49 0 88 -18.5t72 -51.5q33 -31 56.5 -41 t52.5 -10q14 0 31.5 4t32.5 14.5t27.5 29t16.5 46.5l98 -6q-2 -43 -20.5 -76.5t-46 -58.5t-60 -38t-63.5 -13q-47 0 -87 17t-75 48q-33 31 -55.5 42.5t-50.5 11.5q-29 0 -66 -18.5t-43 -76.5zM477 614l164 398q2 4 10 28.5t13 44.5q4 -20 11 -44.5t9 -28.5q8 -23 24.5 -62 t38 -91t47 -114.5t54.5 -130.5h-371z" />
<glyph unicode="&#xc4;" d="M2 0h221l176 426h525q29 -72 56.5 -138.5t51 -122.5t42 -99t28.5 -66h221q-12 29 -44 103.5t-77 181t-99 233.5t-110.5 258t-111 259t-98.5 233.5t-75.5 181.5t-43.5 104zM352 1700q0 51 36 84t81 33q41 0 77 -33t36 -84t-36 -83t-77 -32q-45 0 -81 32t-36 83zM477 614 l164 398q2 4 10 28.5t13 44.5q4 -20 11 -44.5t9 -28.5q8 -23 24.5 -62t38 -91t47 -114.5t54.5 -130.5h-371zM741 1700q0 51 36 84t79 33q41 0 77 -33t36 -84t-36 -83t-77 -32q-43 0 -79 32t-36 83z" />
<glyph unicode="&#xc5;" d="M2 0l662 1554q12 -29 43.5 -104.5t75.5 -181t98.5 -233.5t111 -259t110.5 -258t99 -233.5t77 -181t44 -103.5h-221q-10 23 -28.5 66t-42 99t-51.5 122.5t-56 138.5h-525l-176 -426h-221zM477 614h371q-29 68 -54.5 130.5t-47 114.5t-38 91t-24.5 62q-2 4 -9 28.5 t-11 44.5q-4 -20 -12.5 -44.5t-10.5 -28.5zM489 1739q0 35 14.5 66.5t38 55t55.5 38t69 14.5q70 0 121 -51.5t51 -122.5q0 -72 -51.5 -123t-120.5 -51q-37 0 -69 14t-55.5 37.5t-38 55.5t-14.5 67zM594 1737q0 -29 20.5 -49.5t51.5 -20.5q29 0 50 20.5t21 49.5 q0 31 -21.5 52t-49.5 21q-31 0 -51.5 -21t-20.5 -52z" />
<glyph unicode="&#xc6;" horiz-adv-x="1486" d="M4 0l631 1485h747v-203h-538v-434h456v-207h-456v-434h567v-207h-776v426h-234l-176 -426h-221zM473 600h162v393z" />
<glyph unicode="&#xc7;" horiz-adv-x="1306" d="M80 731q0 168 60.5 309.5t165 243.5t244.5 159.5t298 57.5q59 0 120.5 -8t116 -22.5t96.5 -34t64 -39.5q-16 -25 -25.5 -41.5t-19.5 -33.5t-22.5 -39.5t-32.5 -59.5q-27 18 -62.5 30.5t-74.5 20.5t-79 12t-73 4q-119 0 -220 -44t-175 -118.5t-116 -173t-42 -204.5 q0 -104 40 -200.5t110.5 -172.5t170 -121t218.5 -45q63 0 122.5 12.5t107.5 28.5t80 32.5t38 24.5l94 -203q-47 -35 -157.5 -74.5t-262.5 -45.5q0 -31 9.5 -48.5t22.5 -28.5t28.5 -18.5t27.5 -17.5q43 -33 60.5 -75t17.5 -97q0 -43 -14.5 -83t-42 -72.5t-69.5 -52t-97 -19.5 q-72 0 -132.5 40t-88.5 121q27 12 52.5 25.5t49.5 28.5q10 -33 37 -54.5t66 -21.5q49 0 74.5 32.5t25.5 80.5q0 41 -22.5 62.5t-48 40.5t-48 47t-22.5 79v33q-158 12 -282 76.5t-210 165t-132 229.5t-46 272z" />
<glyph unicode="&#xc8;" horiz-adv-x="1263" d="M182 0v1485h975v-203h-749v-434h667v-207h-667v-434h778v-207h-1004zM451 1845h188q47 -68 93 -137.5t93 -136.5h-131q-61 68 -122.5 137.5t-120.5 136.5z" />
<glyph unicode="&#xc9;" horiz-adv-x="1263" d="M182 0v1485h975v-203h-749v-434h667v-207h-667v-434h778v-207h-1004zM563 1571q47 68 94.5 137.5t94.5 136.5h188l-244 -274h-133z" />
<glyph unicode="&#xca;" horiz-adv-x="1263" d="M182 0v1485h975v-203h-749v-434h667v-207h-667v-434h778v-207h-1004zM444 1573q63 94 126 187.5t124 187.5q61 -94 124 -187.5t126 -187.5h-131q-8 12 -24.5 33.5t-35 45t-35 46t-24.5 35.5q-8 -12 -24.5 -35t-35 -46.5t-33.5 -45t-23 -33.5h-134z" />
<glyph unicode="&#xcb;" horiz-adv-x="1263" d="M182 0v1485h975v-203h-749v-434h667v-207h-667v-434h778v-207h-1004zM389 1700q0 51 36 84t81 33q41 0 76.5 -33t35.5 -84t-35.5 -83t-76.5 -32q-45 0 -81 32t-36 83zM778 1700q0 51 36 84t79 33q41 0 77 -33t36 -84t-36 -83t-77 -32q-43 0 -79 32t-36 83z" />
<glyph unicode="&#xcc;" horiz-adv-x="587" d="M23 1845h188q47 -68 93 -137.5t93 -136.5h-131q-61 68 -122.5 137.5t-120.5 136.5zM182 0v1485h224v-1485h-224z" />
<glyph unicode="&#xcd;" horiz-adv-x="587" d="M182 0v1485h224v-1485h-224zM195 1571q47 68 94 137.5t94 136.5h188l-243 -274h-133z" />
<glyph unicode="&#xce;" horiz-adv-x="587" d="M47 1573q63 94 126 187.5t124 187.5q61 -94 123.5 -187.5t126.5 -187.5h-131q-8 12 -24.5 33.5t-35 45t-35 46t-24.5 35.5q-8 -12 -24.5 -35t-35 -46.5t-34 -45t-23.5 -33.5h-133zM182 0v1485h224v-1485h-224z" />
<glyph unicode="&#xcf;" horiz-adv-x="587" d="M-10 1700q0 51 35.5 84t80.5 33q41 0 77 -33t36 -84t-36 -83t-77 -32q-45 0 -80.5 32t-35.5 83zM182 0v1485h224v-1485h-224zM379 1700q0 51 36 84t79 33q41 0 76.5 -33t35.5 -84t-35.5 -83t-76.5 -32q-43 0 -79 32t-36 83z" />
<glyph unicode="&#xd0;" horiz-adv-x="1470" d="M51 651v150h146v684h372q225 0 381 -67.5t253 -177.5t141.5 -246t44.5 -271q0 -166 -59.5 -300t-162 -228.5t-237.5 -144.5t-287 -50h-446v651h-146zM420 213h190q119 0 220.5 35t176 101.5t116.5 163.5t42 224q0 135 -47 235.5t-122.5 167t-171 98.5t-193.5 32h-211 v-469h246v-150h-246v-438z" />
<glyph unicode="&#xd1;" horiz-adv-x="1665" d="M180 0v1554q23 -29 75 -82t123 -123.5t155.5 -152.5t172 -166t172.5 -165t155.5 -150.5t121.5 -122.5t72 -80l39 -57l-6 69v961h223v-1553q-29 37 -111 119l-188.5 188.5t-226 223.5t-226 222.5t-186.5 188t-107 117.5l-39 53l7 -65v-979h-226zM494 1581q2 43 20 78 t46 59.5t60.5 37.5t65.5 13q49 0 88 -18t72 -51q33 -31 56.5 -41t51.5 -10q14 0 32 4t33 14t27.5 28.5t16.5 47.5l98 -6q-2 -43 -20.5 -77t-46 -58.5t-60.5 -38t-63 -13.5q-47 0 -87 17.5t-75 48.5q-33 31 -55.5 42t-51.5 11t-65.5 -18.5t-42.5 -75.5z" />
<glyph unicode="&#xd2;" horiz-adv-x="1673" d="M78 741q0 154 59.5 292t162.5 242.5t240.5 165t295.5 60.5q156 0 294 -60.5t241.5 -165t163.5 -242.5t60 -292q0 -158 -60 -295t-163.5 -240.5t-242 -162.5t-293.5 -59q-158 0 -295.5 59t-240.5 162.5t-162.5 240.5t-59.5 295zM301 739q0 -113 42 -212t115.5 -172.5 t172 -116.5t209.5 -43t208 43t169.5 116.5t114.5 173t42 213.5q0 113 -42 212.5t-115.5 173t-171 116.5t-207.5 43q-111 0 -209.5 -43t-171 -116.5t-114.5 -174t-42 -213.5zM604 1845h189q47 -68 93 -137.5t93 -136.5h-131q-61 68 -122.5 137.5t-121.5 136.5z" />
<glyph unicode="&#xd3;" horiz-adv-x="1673" d="M78 741q0 154 59.5 292t162.5 242.5t240.5 165t295.5 60.5q156 0 294 -60.5t241.5 -165t163.5 -242.5t60 -292q0 -158 -60 -295t-163.5 -240.5t-242 -162.5t-293.5 -59q-158 0 -295.5 59t-240.5 162.5t-162.5 240.5t-59.5 295zM301 739q0 -113 42 -212t115.5 -172.5 t172 -116.5t209.5 -43t208 43t169.5 116.5t114.5 173t42 213.5q0 113 -42 212.5t-115.5 173t-171 116.5t-207.5 43q-111 0 -209.5 -43t-171 -116.5t-114.5 -174t-42 -213.5zM725 1571q47 68 94 137.5t94 136.5h189l-244 -274h-133z" />
<glyph unicode="&#xd4;" horiz-adv-x="1673" d="M78 741q0 154 59.5 292t162.5 242.5t240.5 165t295.5 60.5q156 0 294 -60.5t241.5 -165t163.5 -242.5t60 -292q0 -158 -60 -295t-163.5 -240.5t-242 -162.5t-293.5 -59q-158 0 -295.5 59t-240.5 162.5t-162.5 240.5t-59.5 295zM301 739q0 -113 42 -212t115.5 -172.5 t172 -116.5t209.5 -43t208 43t169.5 116.5t114.5 173t42 213.5q0 113 -42 212.5t-115.5 173t-171 116.5t-207.5 43q-111 0 -209.5 -43t-171 -116.5t-114.5 -174t-42 -213.5zM598 1573q63 94 126 187.5t124 187.5q61 -94 123.5 -187.5t126.5 -187.5h-131q-8 12 -24.5 33.5 t-35 45t-35 46t-24.5 35.5q-8 -12 -24.5 -35t-35 -46.5t-34 -45t-23.5 -33.5h-133z" />
<glyph unicode="&#xd5;" horiz-adv-x="1673" d="M78 741q0 154 59.5 292t162.5 242.5t240.5 165t295.5 60.5q156 0 294 -60.5t241.5 -165t163.5 -242.5t60 -292q0 -158 -60 -295t-163.5 -240.5t-242 -162.5t-293.5 -59q-158 0 -295.5 59t-240.5 162.5t-162.5 240.5t-59.5 295zM301 739q0 -113 42 -212t115.5 -172.5 t172 -116.5t209.5 -43t208 43t169.5 116.5t114.5 173t42 213.5q0 113 -42 212.5t-115.5 173t-171 116.5t-207.5 43q-111 0 -209.5 -43t-171 -116.5t-114.5 -174t-42 -213.5zM500 1651q2 43 20.5 77.5t46 59t60 38t65.5 13.5q49 0 88 -18.5t72 -51.5q33 -31 56.5 -41 t52.5 -10q14 0 31.5 4t32.5 14.5t27.5 29t16.5 46.5l98 -6q-2 -43 -20.5 -76.5t-46 -58t-60 -38t-63.5 -13.5q-47 0 -87 17.5t-75 48.5q-33 31 -55.5 42t-50.5 11q-29 0 -66 -18.5t-43 -75.5z" />
<glyph unicode="&#xd6;" horiz-adv-x="1673" d="M78 741q0 154 59.5 292t162.5 242.5t240.5 165t295.5 60.5q156 0 294 -60.5t241.5 -165t163.5 -242.5t60 -292q0 -158 -60 -295t-163.5 -240.5t-242 -162.5t-293.5 -59q-158 0 -295.5 59t-240.5 162.5t-162.5 240.5t-59.5 295zM301 739q0 -113 42 -212t115.5 -172.5 t172 -116.5t209.5 -43t208 43t169.5 116.5t114.5 173t42 213.5q0 113 -42 212.5t-115.5 173t-171 116.5t-207.5 43q-111 0 -209.5 -43t-171 -116.5t-114.5 -174t-42 -213.5zM537 1700q0 51 35.5 84t80.5 33q41 0 77 -33t36 -84t-36 -83t-77 -32q-45 0 -80.5 32t-35.5 83z M926 1700q0 51 35.5 84t78.5 33q41 0 77 -33t36 -84t-36 -83t-77 -32q-43 0 -78.5 32t-35.5 83z" />
<glyph unicode="&#xd7;" horiz-adv-x="911" d="M102 541l162 166l195 -195l190 190q39 -41 77 -81.5t77 -79.5l-182 -187l188 -192l-164 -162l-192 188l-185 -186q-84 80 -159 160l186 188z" />
<glyph unicode="&#xd8;" horiz-adv-x="1673" d="M78 741q0 154 59.5 292t162.5 242.5t240.5 165t295.5 60.5q121 0 231.5 -38t202.5 -103l119 139l104 -96l-115 -135q100 -104 158.5 -238.5t58.5 -288.5q0 -158 -60 -295t-163.5 -240.5t-242 -162.5t-293.5 -59q-123 0 -233.5 36.5t-203.5 102.5q-41 -47 -73.5 -87 t-59.5 -69l-108 94l131 154q-98 104 -154.5 238t-56.5 288zM301 739q0 -104 35 -194t96 -162l698 813q-63 43 -137.5 66.5t-154.5 23.5q-111 0 -209.5 -43t-171 -116.5t-114.5 -174t-42 -213.5zM539 287q133 -92 301 -92q111 0 208 43t169.5 116.5t114.5 173t42 213.5 q0 104 -35.5 197.5t-101.5 165.5q-80 -92 -168 -196.5t-179 -211t-181 -211t-170 -198.5z" />
<glyph unicode="&#xd9;" horiz-adv-x="1464" d="M166 524v961h225v-955q0 -72 25.5 -132t72 -106t107.5 -71.5t135 -25.5q72 0 134.5 25.5t108.5 71.5t72.5 106.5t26.5 131.5v955h225v-961q0 -123 -44 -222t-120.5 -170t-180 -109.5t-222.5 -38.5t-221 38.5t-179 109.5t-121 170t-44 222zM492 1845h188q47 -68 93 -137.5 t93 -136.5h-131q-61 68 -122.5 137.5t-120.5 136.5z" />
<glyph unicode="&#xda;" horiz-adv-x="1464" d="M166 524v961h225v-955q0 -72 25.5 -132t72 -106t107.5 -71.5t135 -25.5q72 0 134.5 25.5t108.5 71.5t72.5 106.5t26.5 131.5v955h225v-961q0 -123 -44 -222t-120.5 -170t-180 -109.5t-222.5 -38.5t-221 38.5t-179 109.5t-121 170t-44 222zM629 1571q47 68 94 137.5 t94 136.5h189l-244 -274h-133z" />
<glyph unicode="&#xdb;" horiz-adv-x="1464" d="M166 524v961h225v-955q0 -72 25.5 -132t72 -106t107.5 -71.5t135 -25.5q72 0 134.5 25.5t108.5 71.5t72.5 106.5t26.5 131.5v955h225v-961q0 -123 -44 -222t-120.5 -170t-180 -109.5t-222.5 -38.5t-221 38.5t-179 109.5t-121 170t-44 222zM494 1618q63 94 125.5 187.5 t123.5 187.5q61 -94 124 -187.5t126 -187.5h-131q-8 12 -24.5 33.5t-35 45t-34.5 46t-25 35.5q-8 -12 -24.5 -35t-34.5 -46.5t-33.5 -45t-23.5 -33.5h-133z" />
<glyph unicode="&#xdc;" horiz-adv-x="1464" d="M166 524v961h225v-955q0 -72 25.5 -132t72 -106t107.5 -71.5t135 -25.5q72 0 134.5 25.5t108.5 71.5t72.5 106.5t26.5 131.5v955h225v-961q0 -123 -44 -222t-120.5 -170t-180 -109.5t-222.5 -38.5t-221 38.5t-179 109.5t-121 170t-44 222zM444 1700q0 51 36 84t81 33 q41 0 77 -33t36 -84t-36 -83t-77 -32q-45 0 -81 32t-36 83zM834 1700q0 51 35.5 84t78.5 33q41 0 77 -33t36 -84t-36 -83t-77 -32q-43 0 -78.5 32t-35.5 83z" />
<glyph unicode="&#xdd;" horiz-adv-x="1343" d="M8 1485h254q18 -31 65.5 -118t104.5 -196.5t116.5 -221t100.5 -191.5l23 -68q8 16 14 33.5t12 34.5q43 80 100.5 191.5t114 221t102.5 196.5t64 118h252l-547 -996v-489h-225v489q-14 23 -56 99t-98.5 179t-121 220t-121 220.5t-98 179t-56.5 98.5zM575 1571 q47 68 94.5 137.5t94.5 136.5h188l-243 -274h-134z" />
<glyph unicode="&#xde;" horiz-adv-x="1165" d="M182 0v1454h226v-242h180q117 0 214 -30.5t167.5 -91t109.5 -147.5t39 -200q0 -88 -26.5 -175t-86 -155.5t-155.5 -111.5t-234 -43h-208v-258h-226zM408 469h202q82 0 137.5 27.5t87 69.5t45 89t13.5 84q0 39 -13.5 85t-46 85t-87 65.5t-134.5 26.5h-204v-532z" />
<glyph unicode="&#xdf;" horiz-adv-x="1153" d="M57 686v182h131v11q0 113 30 202.5t84 152t128 96.5t160 34q90 0 160.5 -26.5t119 -71.5t73 -104.5t24.5 -123.5q0 -72 -30 -136t-93 -93q39 -10 82 -42t78.5 -82t59 -114.5t23.5 -140.5q0 -92 -36.5 -173t-99 -142.5t-145.5 -97t-177 -35.5q-43 0 -88 8t-84 26 q18 41 37.5 83t37.5 85q51 -20 99 -20q55 0 104 21.5t86 58.5t58.5 86t21.5 104t-22.5 104.5t-59.5 86.5t-86 57t-104 18h-4v185q68 0 111.5 39t43.5 104q0 66 -46 110t-138 44q-121 0 -171 -85t-50 -233v-864h-187v686h-131z" />
<glyph unicode="&#xe0;" horiz-adv-x="1101" d="M63 420q0 94 36 177t97.5 145.5t142.5 99.5t173 37q61 0 112.5 -15.5t88.5 -38t59.5 -47t30.5 -43.5l8 121h168v-856h-176v109q-10 -16 -32.5 -39t-58.5 -42.5t-85 -33.5t-113 -14q-98 0 -181 35.5t-142.5 96t-93.5 140.5t-34 168zM190 1270h189q47 -68 93 -137.5 t93 -137.5h-131q-61 68 -122.5 137.5t-121.5 137.5zM240 430q0 -59 21.5 -110.5t58 -88t88 -58t112.5 -21.5t113.5 21.5t90.5 59t58.5 88t20.5 109.5t-20.5 109.5t-58.5 87.5t-90 58.5t-114 21.5q-61 0 -112.5 -21.5t-88 -58.5t-58 -87.5t-21.5 -109.5z" />
<glyph unicode="&#xe1;" horiz-adv-x="1101" d="M63 420q0 94 36 177t97.5 145.5t142.5 99.5t173 37q61 0 112.5 -15.5t88.5 -38t59.5 -47t30.5 -43.5l8 121h168v-856h-176v109q-10 -16 -32.5 -39t-58.5 -42.5t-85 -33.5t-113 -14q-98 0 -181 35.5t-142.5 96t-93.5 140.5t-34 168zM240 430q0 -59 21.5 -110.5t58 -88 t88 -58t112.5 -21.5t113.5 21.5t90.5 59t58.5 88t20.5 109.5t-20.5 109.5t-58.5 87.5t-90 58.5t-114 21.5q-61 0 -112.5 -21.5t-88 -58.5t-58 -87.5t-21.5 -109.5zM436 995q47 68 94.5 137.5t94.5 137.5h188l-244 -275h-133z" />
<glyph unicode="&#xe2;" horiz-adv-x="1101" d="M63 420q0 94 36 177t97.5 145.5t142.5 99.5t173 37q61 0 112.5 -15.5t88.5 -38t59.5 -47t30.5 -43.5l8 121h168v-856h-176v109q-10 -16 -32.5 -39t-58.5 -42.5t-85 -33.5t-113 -14q-98 0 -181 35.5t-142.5 96t-93.5 140.5t-34 168zM240 430q0 -59 21.5 -110.5t58 -88 t88 -58t112.5 -21.5t113.5 21.5t90.5 59t58.5 88t20.5 109.5t-20.5 109.5t-58.5 87.5t-90 58.5t-114 21.5q-61 0 -112.5 -21.5t-88 -58.5t-58 -87.5t-21.5 -109.5zM279 993q63 94 125.5 187.5t123.5 187.5q61 -94 124 -187.5t126 -187.5h-131q-8 12 -24.5 34t-35 45.5 t-34.5 46t-25 34.5q-8 -12 -24.5 -34.5t-34.5 -46t-33.5 -45t-23.5 -34.5h-133z" />
<glyph unicode="&#xe3;" horiz-adv-x="1101" d="M63 420q0 94 36 177t97.5 145.5t142.5 99.5t173 37q61 0 112.5 -15.5t88.5 -38t59.5 -47t30.5 -43.5l8 121h168v-856h-176v109q-10 -16 -32.5 -39t-58.5 -42.5t-85 -33.5t-113 -14q-98 0 -181 35.5t-142.5 96t-93.5 140.5t-34 168zM195 961q2 43 20 77.5t46 59t60.5 38 t65.5 13.5q49 0 88 -18.5t72 -51.5q33 -31 56.5 -41t51.5 -10q14 0 32 4t33 14.5t27.5 29t16.5 46.5l98 -6q-2 -43 -20.5 -76.5t-46 -58.5t-60.5 -38t-63 -13q-47 0 -87 17t-75 48q-33 31 -55.5 42.5t-51.5 11.5t-65.5 -18.5t-42.5 -76.5zM240 430q0 -59 21.5 -110.5t58 -88 t88 -58t112.5 -21.5t113.5 21.5t90.5 59t58.5 88t20.5 109.5t-20.5 109.5t-58.5 87.5t-90 58.5t-114 21.5q-61 0 -112.5 -21.5t-88 -58.5t-58 -87.5t-21.5 -109.5z" />
<glyph unicode="&#xe4;" horiz-adv-x="1101" d="M63 420q0 94 36 177t97.5 145.5t142.5 99.5t173 37q61 0 112.5 -15.5t88.5 -38t59.5 -47t30.5 -43.5l8 121h168v-856h-176v109q-10 -16 -32.5 -39t-58.5 -42.5t-85 -33.5t-113 -14q-98 0 -181 35.5t-142.5 96t-93.5 140.5t-34 168zM215 1083q0 51 36 84t81 33 q41 0 76.5 -32.5t35.5 -84.5q0 -51 -35.5 -82.5t-76.5 -31.5q-45 0 -81 31.5t-36 82.5zM240 430q0 -59 21.5 -110.5t58 -88t88 -58t112.5 -21.5t113.5 21.5t90.5 59t58.5 88t20.5 109.5t-20.5 109.5t-58.5 87.5t-90 58.5t-114 21.5q-61 0 -112.5 -21.5t-88 -58.5t-58 -87.5 t-21.5 -109.5zM604 1083q0 51 36 84t79 33q41 0 76.5 -32.5t35.5 -84.5q0 -51 -35.5 -82.5t-76.5 -31.5q-43 0 -79 31.5t-36 82.5z" />
<glyph unicode="&#xe5;" horiz-adv-x="1101" d="M63 420q0 94 36 177t97.5 145.5t142.5 99.5t173 37q61 0 112.5 -15.5t88.5 -38t59.5 -47t30.5 -43.5l8 121h168v-856h-176v109q-10 -16 -32.5 -39t-58.5 -42.5t-85 -33.5t-113 -14q-98 0 -181 35.5t-142.5 96t-93.5 140.5t-34 168zM240 430q0 -59 21.5 -110.5t58 -88 t88 -58t112.5 -21.5t113.5 21.5t90.5 59t58.5 88t20.5 109.5t-20.5 109.5t-58.5 87.5t-90 58.5t-114 21.5q-61 0 -112.5 -21.5t-88 -58.5t-58 -87.5t-21.5 -109.5zM354 1114q0 35 14.5 66.5t38 55.5t55.5 38t68 14q70 0 121 -51t51 -123q0 -37 -14 -68.5t-37.5 -55 t-54.5 -38t-66 -14.5q-37 0 -68.5 14.5t-55 38t-38 55t-14.5 68.5zM459 1110q0 -29 20.5 -49.5t50.5 -20.5q29 0 50.5 20.5t21.5 49.5q0 33 -21.5 53.5t-50.5 20.5q-31 0 -51 -20.5t-20 -53.5z" />
<glyph unicode="&#xe6;" horiz-adv-x="1423" d="M57 233q0 63 27 110.5t68 78.5t91 45t97 14h201q12 84 53 164q-43 61 -172 62q-82 0 -144.5 -18.5t-109.5 -45.5l-72 135q68 47 157 74t191 27q90 0 158 -26t107 -73q59 47 129.5 73t148.5 26q145 0 253 -87t155 -229q-63 -23 -145.5 -55.5t-170.5 -68.5t-176 -70.5 t-164 -63.5q35 -70 101.5 -111.5t148.5 -41.5q55 0 111.5 20.5t91.5 54.5l131 -127q-61 -55 -149.5 -87.5t-180.5 -32.5q-90 0 -167.5 30.5t-137.5 83.5q-55 -53 -140 -82.5t-183 -29.5q-84 0 -142.5 21.5t-95.5 56t-53.5 79.5t-16.5 94zM219 250q0 -31 14.5 -49.5t37 -29.5 t50 -15t56.5 -4q72 0 128 16t85 51q-33 57 -45 133h-107q-127 0 -173 -29.5t-46 -72.5zM713 436q0 -10 1 -14t1 -6q53 20 115.5 45.5t124 51.5t119 49.5t102.5 41.5q-25 51 -78.5 77t-108.5 26q-59 0 -109.5 -22.5t-87 -60.5t-58 -87.5t-21.5 -100.5z" />
<glyph unicode="&#xe7;" horiz-adv-x="851" d="M63 430q0 92 36 174t97.5 142.5t144.5 96.5t177 36q86 0 159 -27t132 -72l-113 -133q-35 29 -80 44.5t-98 15.5q-61 0 -112.5 -21.5t-89 -58.5t-58 -87.5t-20.5 -109.5t20.5 -109.5t58 -88t89 -59t112.5 -21.5q53 0 98 15t80 44q29 -35 54.5 -66.5t52.5 -66.5 q-55 -45 -126 -70.5t-151 -27.5q0 -29 9.5 -44.5t22.5 -26.5t28.5 -18.5t27.5 -17.5q43 -33 60.5 -75t17.5 -97q0 -43 -14 -83t-42 -72.5t-70 -52t-97 -19.5q-72 0 -132.5 40t-88.5 121q27 12 52.5 25.5t49.5 28.5q10 -33 37 -54.5t66 -21.5q49 0 74.5 32.5t25.5 80.5 q0 41 -22.5 62.5t-48 40.5t-48 47t-22.5 79v37q-76 18 -139.5 58t-109.5 98.5t-73 130t-27 151.5z" />
<glyph unicode="&#xe8;" horiz-adv-x="948" d="M63 428q0 92 36 174t97.5 143.5t142.5 97.5t173 36q145 0 252.5 -87t155.5 -229q-63 -23 -145.5 -55.5t-170.5 -68.5t-176 -70.5t-164 -63.5q35 -70 101.5 -111.5t148.5 -41.5q55 0 111.5 20.5t91.5 54.5l131 -127q-61 -55 -149.5 -87.5t-180.5 -32.5q-94 0 -177 35.5 t-144.5 96t-97.5 142.5t-36 174zM154 1270h188q47 -68 93 -137.5t93 -137.5h-131q-61 68 -122.5 137.5t-120.5 137.5zM238 436q0 -10 1 -14t1 -6q53 20 115.5 45.5t124 51.5t118.5 49.5t102 41.5q-25 51 -78 77t-108 26q-59 0 -109.5 -22.5t-87 -60.5t-58 -87.5 t-21.5 -100.5z" />
<glyph unicode="&#xe9;" horiz-adv-x="948" d="M63 428q0 92 36 174t97.5 143.5t142.5 97.5t173 36q145 0 252.5 -87t155.5 -229q-63 -23 -145.5 -55.5t-170.5 -68.5t-176 -70.5t-164 -63.5q35 -70 101.5 -111.5t148.5 -41.5q55 0 111.5 20.5t91.5 54.5l131 -127q-61 -55 -149.5 -87.5t-180.5 -32.5q-94 0 -177 35.5 t-144.5 96t-97.5 142.5t-36 174zM238 436q0 -10 1 -14t1 -6q53 20 115.5 45.5t124 51.5t118.5 49.5t102 41.5q-25 51 -78 77t-108 26q-59 0 -109.5 -22.5t-87 -60.5t-58 -87.5t-21.5 -100.5zM387 995q47 68 94 137.5t94 137.5h189l-244 -275h-133z" />
<glyph unicode="&#xea;" horiz-adv-x="948" d="M63 428q0 92 36 174t97.5 143.5t142.5 97.5t173 36q145 0 252.5 -87t155.5 -229q-63 -23 -145.5 -55.5t-170.5 -68.5t-176 -70.5t-164 -63.5q35 -70 101.5 -111.5t148.5 -41.5q55 0 111.5 20.5t91.5 54.5l131 -127q-61 -55 -149.5 -87.5t-180.5 -32.5q-94 0 -177 35.5 t-144.5 96t-97.5 142.5t-36 174zM211 995q63 94 126 187.5t124 187.5q61 -94 123.5 -187t126.5 -188h-131q-8 12 -24.5 34t-35 45.5t-35 46t-24.5 34.5q-8 -12 -24.5 -34.5t-35 -46t-34 -45t-23.5 -34.5h-133zM238 436q0 -10 1 -14t1 -6q53 20 115.5 45.5t124 51.5 t118.5 49.5t102 41.5q-25 51 -78 77t-108 26q-59 0 -109.5 -22.5t-87 -60.5t-58 -87.5t-21.5 -100.5z" />
<glyph unicode="&#xeb;" horiz-adv-x="948" d="M63 428q0 92 36 174t97.5 143.5t142.5 97.5t173 36q145 0 252.5 -87t155.5 -229q-63 -23 -145.5 -55.5t-170.5 -68.5t-176 -70.5t-164 -63.5q35 -70 101.5 -111.5t148.5 -41.5q55 0 111.5 20.5t91.5 54.5l131 -127q-61 -55 -149.5 -87.5t-180.5 -32.5q-94 0 -177 35.5 t-144.5 96t-97.5 142.5t-36 174zM166 1083q0 51 36 84t81 33q41 0 76.5 -32.5t35.5 -84.5q0 -51 -35.5 -82.5t-76.5 -31.5q-45 0 -81 31.5t-36 82.5zM238 436q0 -10 1 -14t1 -6q53 20 115.5 45.5t124 51.5t118.5 49.5t102 41.5q-25 51 -78 77t-108 26q-59 0 -109.5 -22.5 t-87 -60.5t-58 -87.5t-21.5 -100.5zM555 1083q0 51 36 84t79 33q41 0 76.5 -32.5t35.5 -84.5q0 -51 -35.5 -82.5t-76.5 -31.5q-43 0 -79 31.5t-36 82.5z" />
<glyph unicode="&#xec;" horiz-adv-x="419" d="M-82 1270h188q47 -68 93.5 -137.5t93.5 -137.5h-131q-61 68 -123 137.5t-121 137.5zM123 0v856h174v-856h-174z" />
<glyph unicode="&#xed;" horiz-adv-x="419" d="M123 0v856h174v-856h-174zM125 995q47 68 94 137.5t94 137.5h189l-244 -275h-133z" />
<glyph unicode="&#xee;" horiz-adv-x="419" d="M-37 995q63 94 126 187.5t124 187.5q61 -94 123.5 -187t126.5 -188h-131q-8 12 -24.5 34t-35 45.5t-35 46t-24.5 34.5q-8 -12 -24.5 -34.5t-35 -46t-34 -45t-23.5 -34.5h-133zM123 0v856h174v-856h-174z" />
<glyph unicode="&#xef;" horiz-adv-x="419" d="M-90 1083q0 51 36 84t81 33q41 0 76.5 -32.5t35.5 -84.5q0 -51 -35.5 -82.5t-76.5 -31.5q-45 0 -81 31.5t-36 82.5zM123 0v856h174v-856h-174zM299 1083q0 51 36 84t79 33q41 0 76.5 -32.5t35.5 -84.5q0 -51 -35.5 -82.5t-76.5 -31.5q-43 0 -79 31.5t-36 82.5z" />
<glyph unicode="&#xf0;" horiz-adv-x="1042" d="M63 430q0 92 36 174t97.5 142.5t144.5 96.5t179 36t185 -39q-31 94 -86.5 198.5t-137.5 210.5q-29 -35 -60.5 -66.5t-60.5 -64.5q-27 25 -51 46.5t-51 45.5l139 150q-51 57 -102 108.5t-107 98.5l105 96q111 -86 207 -190q29 33 58.5 63.5t57.5 65.5q27 -23 51.5 -45.5 t51.5 -45.5l-131 -145q76 -96 144.5 -211t121.5 -235.5t85 -243.5t32 -236v-10q0 -92 -34 -174t-94.5 -143.5t-143.5 -97t-181 -35.5q-94 0 -177 32.5t-144.5 92t-97.5 142.5t-36 183zM238 428q0 -57 21.5 -107.5t59 -88t88 -59t107.5 -21.5t108.5 21.5t89.5 59t60.5 88 t22.5 107.5t-22.5 108.5t-60.5 89.5t-89.5 59.5t-108.5 21.5t-107.5 -21.5t-88 -59.5t-59 -89.5t-21.5 -108.5z" />
<glyph unicode="&#xf1;" horiz-adv-x="1042" d="M123 0v856h153q4 -63 7.5 -115.5t7.5 -103.5q47 111 134 176.5t214 65.5q129 0 207 -72t82 -184v-623h-176v543q-4 66 -45 111.5t-129 50.5q-61 0 -112.5 -21.5t-88.5 -58.5t-58.5 -88.5t-21.5 -112.5v-424h-174zM236 1008q2 43 20 77.5t46 59t60.5 38t65.5 13.5 q49 0 88 -18.5t72 -51.5q33 -31 56.5 -41t51.5 -10q14 0 31.5 4t33 14.5t28 29t16.5 46.5l98 -6q-2 -43 -20.5 -76.5t-46 -58t-60.5 -38t-63 -13.5q-47 0 -87 17t-75 48q-33 31 -55.5 42.5t-51.5 11.5t-65.5 -18.5t-42.5 -76.5z" />
<glyph unicode="&#xf2;" horiz-adv-x="1034" d="M63 430q0 92 36 174t97.5 142.5t144.5 96.5t179 36t179 -36t143.5 -96.5t94.5 -142.5t34 -174t-34 -174t-94.5 -143.5t-143.5 -97t-181 -35.5q-94 0 -177 32.5t-144.5 92t-97.5 142.5t-36 183zM182 1270h189q47 -68 93 -137.5t93 -137.5h-131q-61 68 -122.5 137.5 t-121.5 137.5zM238 428q0 -57 21.5 -107.5t59 -88t88 -59t107.5 -21.5t108.5 21.5t89.5 59t60.5 88t22.5 107.5t-22.5 108.5t-60.5 89.5t-89.5 59.5t-108.5 21.5t-107.5 -21.5t-88 -59.5t-59 -89.5t-21.5 -108.5z" />
<glyph unicode="&#xf3;" horiz-adv-x="1034" d="M63 430q0 92 36 174t97.5 142.5t144.5 96.5t179 36t179 -36t143.5 -96.5t94.5 -142.5t34 -174t-34 -174t-94.5 -143.5t-143.5 -97t-181 -35.5q-94 0 -177 32.5t-144.5 92t-97.5 142.5t-36 183zM238 428q0 -57 21.5 -107.5t59 -88t88 -59t107.5 -21.5t108.5 21.5t89.5 59 t60.5 88t22.5 107.5t-22.5 108.5t-60.5 89.5t-89.5 59.5t-108.5 21.5t-107.5 -21.5t-88 -59.5t-59 -89.5t-21.5 -108.5zM514 995q47 68 94 137.5t94 137.5h189l-244 -275h-133z" />
<glyph unicode="&#xf4;" horiz-adv-x="1034" d="M63 430q0 92 36 174t97.5 142.5t144.5 96.5t179 36t179 -36t143.5 -96.5t94.5 -142.5t34 -174t-34 -174t-94.5 -143.5t-143.5 -97t-181 -35.5q-94 0 -177 32.5t-144.5 92t-97.5 142.5t-36 183zM238 428q0 -57 21.5 -107.5t59 -88t88 -59t107.5 -21.5t108.5 21.5t89.5 59 t60.5 88t22.5 107.5t-22.5 108.5t-60.5 89.5t-89.5 59.5t-108.5 21.5t-107.5 -21.5t-88 -59.5t-59 -89.5t-21.5 -108.5zM268 995q63 94 126 187.5t124 187.5q61 -94 124 -187t126 -188h-131q-8 12 -24.5 34t-35 45.5t-35 46t-24.5 34.5q-8 -12 -24.5 -34.5t-35 -46 t-33.5 -45t-24 -34.5h-133z" />
<glyph unicode="&#xf5;" horiz-adv-x="1034" d="M63 430q0 92 36 174t97.5 142.5t144.5 96.5t179 36t179 -36t143.5 -96.5t94.5 -142.5t34 -174t-34 -174t-94.5 -143.5t-143.5 -97t-181 -35.5q-94 0 -177 32.5t-144.5 92t-97.5 142.5t-36 183zM203 961q2 43 20.5 77.5t46 59t60 38t65.5 13.5q49 0 88 -18.5t72 -51.5 q33 -31 56.5 -41t52.5 -10q14 0 31.5 4t32.5 14.5t27.5 29t16.5 46.5l98 -6q-2 -43 -20.5 -76.5t-46 -58.5t-60 -38t-63.5 -13q-47 0 -87 17t-75 48q-33 31 -55.5 42.5t-50.5 11.5q-29 0 -66 -18.5t-43 -76.5zM238 428q0 -57 21.5 -107.5t59 -88t88 -59t107.5 -21.5 t108.5 21.5t89.5 59t60.5 88t22.5 107.5t-22.5 108.5t-60.5 89.5t-89.5 59.5t-108.5 21.5t-107.5 -21.5t-88 -59.5t-59 -89.5t-21.5 -108.5z" />
<glyph unicode="&#xf6;" horiz-adv-x="1034" d="M63 430q0 92 36 174t97.5 142.5t144.5 96.5t179 36t179 -36t143.5 -96.5t94.5 -142.5t34 -174t-34 -174t-94.5 -143.5t-143.5 -97t-181 -35.5q-94 0 -177 32.5t-144.5 92t-97.5 142.5t-36 183zM238 428q0 -57 21.5 -107.5t59 -88t88 -59t107.5 -21.5t108.5 21.5t89.5 59 t60.5 88t22.5 107.5t-22.5 108.5t-60.5 89.5t-89.5 59.5t-108.5 21.5t-107.5 -21.5t-88 -59.5t-59 -89.5t-21.5 -108.5zM238 1083q0 51 35.5 84t80.5 33q41 0 77 -32.5t36 -84.5q0 -51 -36 -82.5t-77 -31.5q-45 0 -80.5 31.5t-35.5 82.5zM627 1083q0 51 35.5 84t78.5 33 q41 0 77 -32.5t36 -84.5q0 -51 -36 -82.5t-77 -31.5q-43 0 -78.5 31.5t-35.5 82.5z" />
<glyph unicode="&#xf7;" horiz-adv-x="944" d="M100 428v180h748v-180h-748zM365 219q0 49 35.5 83t78.5 34q41 0 77 -34t36 -83q0 -53 -36 -84t-77 -31q-43 0 -78.5 31t-35.5 84zM365 825q0 49 35.5 83t78.5 34q41 0 77 -34t36 -83q0 -53 -36 -84.5t-77 -31.5q-43 0 -78.5 31.5t-35.5 84.5z" />
<glyph unicode="&#xf8;" horiz-adv-x="1034" d="M63 430q0 92 36 174t97.5 142.5t144.5 96.5t179 36q66 0 126.5 -17.5t111.5 -48.5q27 33 48 56.5t34 39.5l92 -73l-84 -97q59 -61 91 -140t32 -169q0 -92 -34 -174t-94.5 -143.5t-143.5 -97t-181 -35.5q-152 0 -266 77l-96 -110l-86 80l96 110q-49 57 -76 131t-27 162z M238 428q0 -86 47 -156q84 98 177 204t177 202q-61 29 -125 29q-57 0 -107.5 -21.5t-88 -59.5t-59 -89.5t-21.5 -108.5zM369 190q68 -39 145 -38q57 0 108.5 21.5t89.5 59t60.5 88t22.5 107.5q0 49 -17.5 94t-46.5 82z" />
<glyph unicode="&#xf9;" horiz-adv-x="1040" d="M115 236v620h174v-543q4 -63 46 -108t130 -51q61 0 112.5 21.5t88 58t57 88t20.5 112.5v422h177v-874h-148l-20 237q-47 -104 -132 -171.5t-217 -67.5q-131 0 -207.5 70.5t-80.5 185.5zM213 1270h188q47 -68 93.5 -137.5t93.5 -137.5h-131q-61 68 -123 137.5t-121 137.5z " />
<glyph unicode="&#xfa;" horiz-adv-x="1040" d="M115 236v620h174v-543q4 -63 46 -108t130 -51q61 0 112.5 21.5t88 58t57 88t20.5 112.5v422h177v-874h-148l-20 237q-47 -104 -132 -171.5t-217 -67.5q-131 0 -207.5 70.5t-80.5 185.5zM412 995q47 68 94 137.5t94 137.5h188l-243 -275h-133z" />
<glyph unicode="&#xfb;" horiz-adv-x="1040" d="M115 236v620h174v-543q4 -63 46 -108t130 -51q61 0 112.5 21.5t88 58t57 88t20.5 112.5v422h177v-874h-148l-20 237q-47 -104 -132 -171.5t-217 -67.5q-131 0 -207.5 70.5t-80.5 185.5zM238 995q63 94 125.5 187.5t123.5 187.5q61 -94 124 -187t126 -188h-131 q-8 12 -24.5 34t-35 45.5t-34.5 46t-25 34.5q-8 -12 -24.5 -34.5t-34.5 -46t-33.5 -45t-23.5 -34.5h-133z" />
<glyph unicode="&#xfc;" horiz-adv-x="1042" d="M115 236v620h174v-543q4 -63 46 -108t130 -51q61 0 112.5 21.5t88 58t57 88t20.5 112.5v422h177v-874h-148l-20 237q-47 -104 -132 -171.5t-217 -67.5q-131 0 -207.5 70.5t-80.5 185.5zM184 1083q0 51 36 84t81 33q41 0 77 -32.5t36 -84.5q0 -51 -36 -82.5t-77 -31.5 q-45 0 -81 31.5t-36 82.5zM573 1083q0 51 36 84t79 33q41 0 77 -32.5t36 -84.5q0 -51 -36 -82.5t-77 -31.5q-43 0 -79 31.5t-36 82.5z" />
<glyph unicode="&#xfd;" horiz-adv-x="978" d="M12 856h191q74 -145 122 -245.5t79.5 -173t51 -124t33.5 -94.5q16 43 36 94.5t51.5 124t80 173t121.5 245.5h191l-611 -1268h-176q29 59 54.5 113.5t51 111t52.5 117t59 129.5q-47 92 -96 193.5t-98 204t-97.5 205t-95.5 194.5zM418 995q47 68 94 137.5t94 137.5h189 l-244 -275h-133z" />
<glyph unicode="&#xfe;" horiz-adv-x="1105" d="M123 -412v2003h176v-860q16 25 44 50.5t65.5 47t85 36t104.5 14.5q98 0 179 -32t139.5 -90.5t90 -142.5t31.5 -188q0 -96 -32.5 -178t-92 -141.5t-142.5 -93t-181 -33.5q-51 0 -97.5 11t-85 30.5t-67.5 43t-43 48.5q0 -10 1 -21.5t1 -21.5v-482h-176zM299 430 q0 -59 21.5 -110.5t58.5 -88t89 -58t114 -21.5q61 0 110 21.5t84 59t53.5 88t18.5 109.5t-18.5 109.5t-53.5 87.5t-84 58.5t-110 21.5t-113.5 -21.5t-89.5 -58.5t-58.5 -87.5t-21.5 -109.5z" />
<glyph unicode="&#xff;" horiz-adv-x="980" d="M12 856h191q74 -145 122 -245.5t79.5 -173t51 -124t33.5 -94.5q16 43 36 94.5t51.5 124t80 173t121.5 245.5h191l-611 -1268h-176q29 59 54.5 113.5t51 111t52.5 117t59 129.5q-47 92 -96 193.5t-98 204t-97.5 205t-95.5 194.5zM162 1083q0 51 35.5 84t81.5 33 q41 0 76.5 -32.5t35.5 -84.5q0 -51 -36 -82.5t-76 -31.5q-45 0 -81 31.5t-36 82.5zM551 1083q0 51 36 84t79 33q41 0 76.5 -32.5t35.5 -84.5q0 -51 -35.5 -82.5t-76.5 -31.5q-43 0 -79 31.5t-36 82.5z" />
<glyph unicode="&#x152;" horiz-adv-x="1959" d="M78 741q0 154 59.5 292t162.5 242.5t240.5 165t295.5 60.5q74 0 149 -16h868v-203h-690v-434h606v-207h-606v-434h719v-207h-891q-39 -8 -76.5 -12t-78.5 -4q-158 0 -295.5 59t-240.5 162.5t-162.5 241t-59.5 294.5zM301 739q0 -113 42 -212t115.5 -172.5t172 -116.5 t209.5 -43q25 0 50 2t50 6v1073q-25 4 -50 7t-52 3q-111 0 -209.5 -43t-171 -116.5t-114.5 -174t-42 -213.5z" />
<glyph unicode="&#x153;" horiz-adv-x="1458" d="M63 430q0 92 36 174t97.5 142.5t144.5 96.5t179 36q72 0 136.5 -20.5t117.5 -55.5q53 35 115.5 55.5t132.5 20.5q145 0 252.5 -87t155.5 -229q-63 -23 -145.5 -55.5t-170.5 -68.5t-176 -70.5t-164 -63.5q35 -70 101.5 -111.5t148.5 -41.5q55 0 111.5 20.5t91.5 54.5 l131 -127q-61 -55 -149.5 -87.5t-180.5 -32.5q-143 0 -254 75q-106 -76 -256 -75q-94 0 -177 32.5t-144.5 92t-97.5 142.5t-36 183zM238 428q0 -57 21.5 -107.5t59 -88t88 -59t107.5 -21.5q74 0 133 30q-74 109 -74 246q0 68 19.5 130.5t54.5 115.5q-65 33 -133 33 q-57 0 -107.5 -21.5t-88 -59.5t-59 -89.5t-21.5 -108.5zM748 436q0 -10 1 -14t1 -6q53 20 115.5 45.5t124 51.5t118.5 49.5t102 41.5q-25 51 -78 77t-108 26q-59 0 -109.5 -22.5t-87 -60.5t-58 -87.5t-21.5 -100.5z" />
<glyph unicode="&#x2c6;" horiz-adv-x="921" d="M231 995q63 94 126 187.5t124 187.5q61 -94 124 -187t126 -188h-131q-8 12 -24.5 34t-35 45.5t-35 46t-24.5 34.5q-8 -12 -24.5 -34.5t-35 -46t-33.5 -45t-23 -34.5h-134z" />
<glyph unicode="&#x2dc;" horiz-adv-x="1224" d="M328 1008q2 43 20.5 77.5t46 59t60 38t65.5 13.5q49 0 88 -18.5t72 -51.5q33 -31 56.5 -41t51.5 -10q14 0 32 4t33 14.5t27.5 29t16.5 46.5l98 -6q-2 -43 -20.5 -76.5t-46 -58t-60 -38t-63.5 -13.5q-47 0 -87 17t-75 48q-33 31 -55.5 42.5t-50.5 11.5q-29 0 -66 -18.5 t-43 -76.5z" />
<glyph unicode="&#x2000;" horiz-adv-x="996" />
<glyph unicode="&#x2001;" horiz-adv-x="1993" />
<glyph unicode="&#x2002;" horiz-adv-x="996" />
<glyph unicode="&#x2003;" horiz-adv-x="1993" />
<glyph unicode="&#x2004;" horiz-adv-x="664" />
<glyph unicode="&#x2005;" horiz-adv-x="498" />
<glyph unicode="&#x2006;" horiz-adv-x="332" />
<glyph unicode="&#x2007;" horiz-adv-x="332" />
<glyph unicode="&#x2008;" horiz-adv-x="249" />
<glyph unicode="&#x2009;" horiz-adv-x="398" />
<glyph unicode="&#x200a;" horiz-adv-x="110" />
<glyph unicode="&#x2010;" horiz-adv-x="606" d="M113 354v183h381v-183h-381z" />
<glyph unicode="&#x2011;" horiz-adv-x="606" d="M113 354v183h381v-183h-381z" />
<glyph unicode="&#x2012;" horiz-adv-x="606" d="M113 354v183h381v-183h-381z" />
<glyph unicode="&#x2013;" horiz-adv-x="856" d="M115 346v182h626v-182h-626z" />
<glyph unicode="&#x2014;" horiz-adv-x="1271" d="M115 346v182h1042v-182h-1042z" />
<glyph unicode="&#x2018;" horiz-adv-x="368" d="M100 1477l115 -15q-14 -72 6.5 -134t63.5 -103l-92 -51q-59 59 -84 138t-9 165z" />
<glyph unicode="&#x2019;" horiz-adv-x="366" d="M82 1225q45 41 64.5 103.5t5.5 133.5l114 15q16 -86 -8.5 -165t-83.5 -138z" />
<glyph unicode="&#x201a;" horiz-adv-x="399" d="M72 -61q45 43 64.5 104t4.5 133l115 14q16 -86 -8.5 -165t-83.5 -138q-23 14 -45.5 26.5t-46.5 25.5z" />
<glyph unicode="&#x201c;" horiz-adv-x="583" d="M100 1477l115 -15q-14 -72 6.5 -134t63.5 -103q-25 -12 -47.5 -25.5t-44.5 -25.5q-59 59 -84 138t-9 165zM315 1477l115 -15q-14 -72 6.5 -134t63.5 -103l-92 -51q-59 59 -84 138t-9 165z" />
<glyph unicode="&#x201d;" horiz-adv-x="583" d="M84 1225q43 41 62.5 103.5t5.5 133.5l114 15q16 -86 -8.5 -165t-81.5 -138q-25 12 -47.5 25t-44.5 26zM299 1225q45 41 64.5 103.5t5.5 133.5l114 15q16 -86 -8.5 -165t-83.5 -138z" />
<glyph unicode="&#x201e;" horiz-adv-x="612" d="M72 -61q45 43 64.5 104t4.5 133l115 14q16 -86 -8.5 -165t-83.5 -138q-23 14 -45.5 26.5t-46.5 25.5zM289 -61q43 43 62.5 104t4.5 133l115 14q16 -86 -8.5 -165t-81.5 -138q-23 14 -46.5 26.5t-45.5 25.5z" />
<glyph unicode="&#x2022;" horiz-adv-x="827" d="M137 623q0 57 21.5 108t58.5 90t87 60.5t108 21.5q57 0 108 -21.5t89 -60.5t59.5 -90t21.5 -108q0 -59 -21.5 -109.5t-59.5 -87.5t-89 -57.5t-108 -20.5t-107.5 20.5t-87.5 57.5t-58.5 87.5t-21.5 109.5z" />
<glyph unicode="&#x2026;" horiz-adv-x="1130" d="M111 115q0 49 35.5 82.5t80.5 33.5q41 0 77 -33.5t36 -82.5q0 -53 -36 -84t-77 -31q-45 0 -80.5 31t-35.5 84zM451 115q0 49 35.5 82.5t78.5 33.5q41 0 77 -33.5t36 -82.5q0 -53 -36 -84t-77 -31q-43 0 -78.5 31t-35.5 84zM791 115q0 49 35.5 82.5t78.5 33.5 q41 0 77 -33.5t36 -82.5q0 -53 -36 -84t-77 -31q-43 0 -78.5 31t-35.5 84z" />
<glyph unicode="&#x202f;" horiz-adv-x="398" />
<glyph unicode="&#x2039;" horiz-adv-x="575" d="M82 496q8 8 35.5 38.5t63.5 70.5t78 87t78 87t63.5 71t35.5 39v-215q-10 -10 -30.5 -36t-42 -53.5t-42 -52t-30.5 -36.5q10 -10 30.5 -36t42 -53.5t42 -53t30.5 -36.5v-215z" />
<glyph unicode="&#x203a;" horiz-adv-x="571" d="M137 102v215q10 10 30.5 36t42 53.5t42 53t31.5 36.5q-10 12 -31 36.5t-42.5 52t-42 53.5t-30.5 36v215q8 -8 36 -39t63.5 -71t77.5 -87t78 -87t63.5 -70.5t36.5 -38.5z" />
<glyph unicode="&#x205f;" horiz-adv-x="498" />
<glyph unicode="&#x20ac;" horiz-adv-x="1103" d="M78 731v100h141q18 129 68.5 228.5t122 168t164 103.5t196.5 35q76 0 138.5 -17.5t107.5 -43.5l-84 -166q-35 23 -75 34t-93 11q-84 0 -146.5 -27t-105.5 -74t-69.5 -111.5t-36.5 -140.5h430v-100h-437v-14q0 -29 1 -55.5t3 -51.5h433v-98h-416q20 -94 59 -159.5 t86 -107.5t98.5 -60.5t100.5 -18.5q82 0 160 51l92 -172q-115 -61 -252 -61q-100 0 -189.5 34.5t-161 101t-121.5 165t-71 227.5h-141v98h131q-2 16 -2 35v37v24.5t2 24.5h-133z" />
<glyph unicode="&#x25fc;" horiz-adv-x="860" d="M0 0v860h860v-860h-860z" />
</font>
</defs>
</svg>
