<?xml version="1.0" standalone="no"?>
<!DOCTYPE svg PUBLIC "-//W3C//DTD SVG 1.1//EN" "http://www.w3.org/Graphics/SVG/1.1/DTD/svg11.dtd" >
<svg xmlns="http://www.w3.org/2000/svg" xmlns:xlink="http://www.w3.org/1999/xlink" version="1.1">
<metadata></metadata>
<defs>
<font id="reemkufi-regularregular" horiz-adv-x="0" >
<font-face units-per-em="2048" ascent="1638" descent="-410" />
<missing-glyph horiz-adv-x="266" />
<glyph unicode="&#x627;" horiz-adv-x="460" arabic-form="final" d="M256 205h246v-205h-389q-20 0 -41 12.5t-21 34.5v1546l205 45v-1433z" />
<glyph unicode="&#x627;" horiz-adv-x="450" arabic-form="isolated" d="M256 164q0 -63 78 -67.5t117 22.5q-16 -55 -81 -91t-135.5 -38t-127 43t-56.5 131v1429l205 45v-1474z" />
<glyph unicode="&#x62d;" horiz-adv-x="1402" arabic-form="initial" d="M852 205h500l-123 -205h-1270v205h395q-39 23 -85 74t-74 96l114 219q111 -176 255.5 -282.5t287.5 -106.5z" />
<glyph unicode="&#x62d;" horiz-adv-x="774" arabic-form="medial" d="M-41 205h367l-183 325h-92l-102 205h342l296 -530h228v-205h-114l141 -252l-170 -158l-230 410h-483v205z" />
<glyph unicode="&#x62d;" horiz-adv-x="880" arabic-form="final" d="M373 205h60l-183 325h-92l-103 205h342l296 -530h229v-205h-114l140 -252l-170 -158l-230 410h-175q-49 0 -97.5 -39t-48.5 -113q0 -72 40 -124q41 -52 101 -68q124 -33 238 2q-92 -66 -223 -71t-229 65q-102 78 -102 214t65 238q66 101 256 101z" />
<glyph unicode="&#x62d;" horiz-adv-x="1054" arabic-form="isolated" d="M51 -117.5q0 109.5 51.5 175t139.5 116.5q-43 29 -98.5 96.5t-92.5 124.5l115 219q113 -178 242 -293.5t229 -115.5h367l-123 -205h-475q-45 0 -96.5 -45t-51.5 -112.5t60 -112.5q60 -44 143 -54q169 -19 299 23q-70 -82 -222.5 -113.5t-256 1t-167 109.5t-63.5 186.5z " />
<glyph unicode="&#x62f;" horiz-adv-x="1884" arabic-form="final" d="M1925 205v-205h-1874l123 205h1301q2 96 -38 150.5t-147 54.5h-1014l271 450l20 -14l-106 -232h829q241 0 320 -128q39 -64 53 -127.5t16 -153.5h246z" />
<glyph unicode="&#x62f;" horiz-adv-x="1781" arabic-form="isolated" d="M1341 614q72 0 129 -12q211 -45 250 -272q10 -63 11 -283q0 -51 -82 -47h-1598l123 205h1352q2 96 -38 150.5t-147 54.5h-1065l271 450l20 -14l-106 -232h880z" />
<glyph unicode="&#x631;" horiz-adv-x="614" arabic-form="final" d="M410 0v-123q0 -129 -73 -208t-169 -94t-194.5 15.5t-147.5 102.5q211 -57 295 -1t84 165v712l205 45v-409h245v-205h-245z" />
<glyph unicode="&#x631;" horiz-adv-x="460" arabic-form="isolated" d="M410 -123q0 -129 -73 -208t-169 -94t-194.5 15.5t-147.5 102.5q211 -57 295 -1t84 165v712l205 45v-737z" />
<glyph unicode="&#x633;" horiz-adv-x="1280" arabic-form="initial" d="M1229 47q0 -51 -82 -47h-1188v205h246v364l205 45v-409h204v364l205 45v-409h205v364l205 45v-567z" />
<glyph unicode="&#x633;" horiz-adv-x="1433" arabic-form="medial" d="M1475 205v-205h-1516v205h246v364l205 45v-409h204v467l205 45v-512h205v569l205 45v-614h246z" />
<glyph unicode="&#x633;" horiz-adv-x="1935" arabic-form="final" d="M442 -410q-94 0 -167.5 31t-114.5 76t-75 124t-34 192.5t76 228t182 182.5q10 -80 -41 -148q33 -16 50.5 -49.5t9.5 -68.5q-55 31 -105.5 25.5t-80 -60.5t-29.5 -123q0 -293 329 -293q147 0 206 95.5t59 279.5v590l204 45v-512h205v467l205 45v-512h205v467l205 45v-512 h245v-205h-1065q-2 -180 -123.5 -295t-345.5 -115z" />
<glyph unicode="&#x633;" horiz-adv-x="1781" arabic-form="isolated" d="M442 -410q-94 0 -167.5 31t-114.5 76t-75 124t-34 192.5t76 228t182 182.5q10 -80 -41 -148q33 -16 50.5 -49.5t9.5 -68.5q-55 31 -105.5 25.5t-80 -60.5t-29.5 -123q0 -293 329 -293q147 0 206 95.5t59 279.5v487l204 45v-409h205v364l205 45v-409h205v364l205 45v-567 q0 -51 -82 -47h-738q-2 -180 -123.5 -295t-345.5 -115z" />
<glyph unicode="&#x635;" horiz-adv-x="1925" arabic-form="initial" d="M236 205v569l204 45v-205h1045q72 0 129 -12q211 -45 250 -272q10 -63 10 -283q0 -51 -82 -47h-1833v205h277zM440 410v-205h1229q2 96 -38 150.5t-146 54.5h-1045z" />
<glyph unicode="&#x635;" horiz-adv-x="2078" arabic-form="medial" d="M440 614h1045q240 0 319 -128q39 -64 53.5 -127.5t16.5 -153.5h246v-205h-2161v205h277v569l204 45v-205zM440 205h1229q2 96 -38 150.5t-146 54.5h-1045v-205z" />
<glyph unicode="&#x635;" horiz-adv-x="2549" arabic-form="final" d="M911 614h1045q240 0 319 -128q39 -64 53.5 -127.5t16.5 -153.5h246v-205h-1680q-2 -180 -123.5 -295t-345.5 -115q-94 0 -167.5 31t-114.5 76t-75 124t-34 192.5t76 228t182 182.5q10 -80 -41 -148q33 -16 50.5 -49.5t9.5 -68.5q-55 31 -105.5 25.5t-80 -60.5t-29.5 -123 q0 -293 329 -293q147 0 206 95.5t59 279.5v692l204 45v-205zM911 205h1229q2 96 -38 150.5t-146 54.5h-1045v-205z" />
<glyph unicode="&#x635;" horiz-adv-x="2396" arabic-form="isolated" d="M911 410v-205h1229q2 96 -38 150.5t-146 54.5h-1045zM442 -410q-94 0 -167.5 31t-114.5 76t-75 124t-34 192.5t76 228t182 182.5q10 -80 -41 -148q33 -16 50.5 -49.5t9.5 -68.5q-55 31 -105.5 25.5t-80 -60.5t-29.5 -123q0 -293 329 -293q147 0 206 95.5t59 279.5v692 l204 45v-205h1045q72 0 129 -12q211 -45 250 -272q10 -63 10 -283q0 -51 -82 -47h-1352q-2 -180 -123.5 -295t-345.5 -115z" />
<glyph unicode="&#x637;" horiz-adv-x="1925" arabic-form="initial" d="M236 205v1388l204 45v-1024h1045q72 0 129 -12q211 -45 250 -272q10 -63 10 -283q0 -51 -82 -47h-1833v205h277zM440 410v-205h1229q2 96 -38 150.5t-146 54.5h-1045z" />
<glyph unicode="&#x637;" horiz-adv-x="2078" arabic-form="medial" d="M440 614h1045q240 0 319 -128q39 -64 53.5 -127.5t16.5 -153.5h246v-205h-2161v205h277v1388l204 45v-1024zM440 205h1229q2 96 -38 150.5t-146 54.5h-1045v-205z" />
<glyph unicode="&#x637;" horiz-adv-x="2222" arabic-form="final" d="M584 614h1044q241 0 320 -128q39 -64 53 -127.5t16 -153.5h246v-205h-2212l123 205h205v1388l205 45v-1024zM584 205h1228q2 96 -37.5 150.5t-146.5 54.5h-1044v-205z" />
<glyph unicode="&#x637;" horiz-adv-x="2068" arabic-form="isolated" d="M379 205v1388l205 45v-1024h1044q72 0 129 -12q211 -45 250 -272q10 -63 10 -283q0 -51 -82 -47h-1884l123 205h205zM584 410v-205h1228q2 96 -37.5 150.5t-146.5 54.5h-1044z" />
<glyph unicode="&#x639;" horiz-adv-x="1095" arabic-form="initial" d="M553 205h491l-122 -205h-963v205h238q-41 23 -49.5 83t12.5 87q90 141 467 262l14 -19q-231 -106 -274 -208q-10 -27 -6 -60t27.5 -56.5t39.5 -38.5t52 -32.5t73 -17.5z" />
<glyph unicode="&#x639;" horiz-adv-x="716" arabic-form="medial" d="M-41 205h282l-325 354l135 186l266 -289v318l205 45v-586l15 -16l-14 -12h235v-205h-799v205z" />
<glyph unicode="&#x639;" horiz-adv-x="880" arabic-form="final" d="M350 205h34l-325 354l136 186l266 -289v318l205 45v-586l14 -16l-13 -12h255v-205h-516q-45 0 -96.5 -45t-51.5 -112.5t60 -112.5q60 -44 143 -54q169 -19 299 23q-70 -82 -222.5 -113.5t-256 1t-167 109.5t-63.5 198.5t77 216t222 94.5z" />
<glyph unicode="&#x639;" horiz-adv-x="757" arabic-form="isolated" d="M51 -116.5q0 110.5 92 202.5q-74 61 -90 154.5t15.5 175.5t101.5 140t151 58t143 -41t95 -114q-92 80 -190 61q-51 -8 -88 -50t-37 -104.5t57 -111.5t125 -49h270l-123 -205h-167q-45 0 -96.5 -45t-51.5 -112.5t58 -112.5q58 -44 143 -54q167 -19 299 23 q-70 -82 -221.5 -113.5t-255 1t-167 109.5t-63.5 187.5z" />
<glyph unicode="&#x643;" horiz-adv-x="1925" arabic-form="initial" d="M440 614h1045q72 0 129 -12q211 -45 250 -272q10 -63 10 -283q0 -51 -82 -47h-1833v205h1710q2 96 -38 150t-146 55h-1249v1183l204 45v-1024z" />
<glyph unicode="&#x643;" horiz-adv-x="2017" arabic-form="medial" d="M1382 614q241 0 320 -129q39 -63 53 -127t17 -153h286v-205h-2099v205h1608q2 96 -38 150t-147 55h-1189q174 243 514 739q37 53 22 131q-14 78 -67 123q-80 68 -218 51q-59 -8 -139 -74l-90 306q90 -29 162 -19q281 51 430 -94q125 -119 142 -279t-79 -305l-260 -375 h772z" />
<glyph unicode="&#x643;" horiz-adv-x="1976" arabic-form="final" d="M379 614h1003q241 0 320 -129q39 -63 53 -127t17 -153h245v-205h-1966l123 205h1393q2 96 -38 150t-147 55h-1208v1183l205 45v-1024z" />
<glyph unicode="&#x643;" horiz-adv-x="2068" arabic-form="isolated" d="M1628 614q72 0 129 -12q211 -45 250 -272q10 -63 10 -283q0 -51 -82 -47h-1884l123 205h1638q2 96 -37.5 150.5t-146.5 54.5h-1290l862 852v-379q-23 41 -53 10l-284 -279h765z" />
<glyph unicode="&#x644;" horiz-adv-x="460" arabic-form="initial" d="M410 47q0 -51 -82 -47h-369v205h246v1388l205 45v-1591z" />
<glyph unicode="&#x644;" horiz-adv-x="614" arabic-form="medial" d="M410 205h245v-205h-696v205h246v1388l205 45v-1433z" />
<glyph unicode="&#x644;" horiz-adv-x="1116" arabic-form="final" d="M911 0q0 -180 -123 -295t-346 -115q-94 0 -168 31t-114 76q-108 121 -109 303q0 127 76 242t182 182q10 -80 -41 -148q33 -16 50 -50t10 -68q-56 32 -106 26t-80 -61t-29 -123q0 -293 329 -293q147 0 206 95q58 95 59 280v1511l204 45v-1433h246v-205h-246z" />
<glyph unicode="&#x644;" horiz-adv-x="962" arabic-form="isolated" d="M911 0q0 -180 -123 -295t-346 -115q-94 0 -168 31t-114 76q-108 121 -109 303q0 127 76 242t182 182q10 -80 -41 -148q33 -16 50 -50t10 -68q-56 32 -106 26t-80 -61t-29 -123q0 -293 329 -293q147 0 206 95q58 95 59 280v1511l204 45v-1638z" />
<glyph unicode="&#x645;" horiz-adv-x="856" arabic-form="initial" d="M399 307q0 -43 30 -73t73 -30q42 0 72 30t30 73t-30 73t-72 30t-73 -30q-30 -30 -30 -73zM-41 205h254q-16 48 -16 102q0 127 89 217t215 90t215 -90t89 -217t-89 -217t-214 -90h-543v205z" />
<glyph unicode="&#x645;" horiz-adv-x="1003" arabic-form="medial" d="M399 307q0 -43 30 -73t73 -30q42 0 72 30t30 73t-30 73t-72 30t-73 -30q-30 -30 -30 -73zM-41 205h254q-16 48 -16 102q0 103 61 185t156 110q63 18 88 115q25 -92 92 -117q92 -29 151 -110t60 -183q0 -55 -17 -102h256v-205h-1085v205z" />
<glyph unicode="&#x645;" horiz-adv-x="1402" arabic-form="final" d="M799 307q-1 -43 29 -73t73 -30t73 30t30 73t-30 73t-73 30t-73 -30t-29 -73zM596 307q0 103 61 185t156 110q63 18 88 115q25 -92 92 -117q91 -29 151 -110t60 -183q0 -55 -16 -102h256v-205h-1393l172 287q19 -39 59 -61t80 -21h250q-16 48 -16 102z" />
<glyph unicode="&#x645;" horiz-adv-x="1255" arabic-form="isolated" d="M799 307q-1 -43 29 -73t73 -30t73 30t30 73t-30 73t-73 30t-73 -30t-29 -73zM596 307q0 121 83 210t202 97q14 51 59 101q264 -166 264 -408q0 -127 -89 -217t-214 -90h-850l172 287q19 -39 59 -61t80 -21h250q-16 48 -16 102z" />
<glyph unicode="&#x647;" horiz-adv-x="858" arabic-form="initial" d="M399 307q0 -43 30 -73t73 -30q42 0 72 30t30 73t-30 73t-72 30t-73 -30q-30 -30 -30 -73zM-41 205h240v102q0 127 89 217t214 90h58q132 0 179 29t68 66v-811q0 -127 -89 -217q-89 -91 -215 -91t-215 90t-89 218v102h-240v205zM399 -102q0 -43 30 -73t73 -30q42 0 72 30 t30 73q0 42 -30 72t-72 30t-73 -30q-30 -30 -30 -72z" />
<glyph unicode="&#x647;" horiz-adv-x="997" arabic-form="medial" d="M399 307q0 -43 30 -73t73 -30q42 0 72 30t30 73t-30 73t-72 30t-73 -30q-30 -30 -30 -73zM-41 205h240v102q0 127 89 217t214 90h58q132 0 179 29t68 66v-504h231v-205h-231v-102q0 -127 -89 -217q-89 -91 -215 -91t-215 90t-89 218v102h-240v205zM399 -102q0 -43 30 -73 t73 -30q42 0 72 30t30 73q0 42 -30 72t-72 30t-73 -30q-30 -30 -30 -72z" />
<glyph unicode="&#x647;" horiz-adv-x="849" arabic-form="final" d="M455 655v260l204 99v-248q-27 -49 -84 -78t-120 -33zM455 956v637l204 45v-583zM425 614q184 0 234 95v-504h232v-205h-537q-125 0 -214 90t-89 217t89 217t214 90h71zM254 307q0 -43 29.5 -72.5t72.5 -29.5t73 29.5t30 72.5t-30 73t-73 30t-72.5 -30t-29.5 -73z" />
<glyph unicode="&#x647;" horiz-adv-x="710" arabic-form="isolated" d="M455 655v260l204 99v-248q-27 -49 -84 -78t-120 -33zM455 956v637l204 45v-583zM425 614q184 0 234 95v-402q0 -127 -89 -217t-215 -90t-215 90t-89 217t89 217t214 90h71zM254 307q0 -43 29.5 -72.5t72.5 -29.5t73 29.5t30 72.5t-30 73t-73 30t-72.5 -30t-29.5 -73z" />
<glyph unicode="&#x648;" horiz-adv-x="819" arabic-form="final" d="M425 614q184 0 234 95v-504h201v-205h-201v-86q0 -129 -72.5 -208t-168.5 -94t-194.5 15.5t-147.5 102.5q211 -57 295 -1t84 165v106h-101q-125 0 -214 90t-89 217t89 217t214 90h71zM254 307q0 -43 29.5 -72.5t72.5 -29.5t73 29.5t30 72.5t-30 73t-73 30t-72.5 -30 t-29.5 -73z" />
<glyph unicode="&#x648;" horiz-adv-x="710" arabic-form="isolated" d="M425 614q184 0 234 95v-795q0 -129 -72.5 -208t-168.5 -94t-194.5 15.5t-147.5 102.5q211 -57 295 -1t84 165v122q-47 -16 -101 -16q-125 0 -214 90t-89 217t89 217t214 90h71zM254 307q0 -43 29.5 -72.5t72.5 -29.5t73 29.5t30 72.5t-30 73t-73 30t-72.5 -30t-29.5 -73z " />
<glyph unicode="&#x649;" horiz-adv-x="460" d="M410 47q0 -51 -82 -47h-369v205h246v364l205 45v-567z" />
<glyph unicode="&#x649;" horiz-adv-x="614" d="M410 205h245v-205h-696v205h246v364l205 45v-409z" />
<glyph unicode="&#x649;" horiz-adv-x="1392" arabic-form="final" d="M1434 205v-205h-385l-486 840q-76 -43 -92 -133.5t39 -190.5l528 -926h-987l172 287q18 -39 58.5 -60.5t80.5 -21.5h325l-355 621q-203 350 125 594q53 39 75 57q58 49 58 143l577 -1005h267z" />
<glyph unicode="&#x649;" horiz-adv-x="1484" arabic-form="isolated" d="M362 -205h325l-355 621q-203 350 125 594q53 39 75 57q58 49 58 143l573 -1000q70 18 99 77l172 -287h-385l-486 840q-76 -43 -92 -133.5t39 -190.5l528 -926h-987l172 287q18 -39 58.5 -60.5t80.5 -21.5z" />
<glyph unicode="&#x66e;" horiz-adv-x="1894" d="M1690 205h245v-205h-1884l123 205h1311v364l205 45v-409z" />
<glyph unicode="&#x66e;" horiz-adv-x="1740" d="M1690 47q0 -51 -82 -47h-1557l123 205h1311v364l205 45v-567z" />
<glyph unicode="&#x66f;" horiz-adv-x="870" d="M211 614q0 127 89 217.5t215 90.5t215 -90.5t89 -217.5v-567q0 -51 -82 -47h-778v205h655v118q-47 -16 -100 -16q-125 0 -214 90t-89 217zM410 614q0 -43 30.5 -73.5t73.5 -30.5t75 30.5t32 73.5t-32 74t-75 31t-73.5 -31t-30.5 -74z" />
<glyph unicode="&#x66f;" horiz-adv-x="1024" d="M211 614q0 127 89 217.5t215 90.5t215 -90.5t89 -217.5v-409h246v-205h-1106v205h655v118q-47 -16 -100 -16q-125 0 -214 90t-89 217zM410 614q0 -43 30.5 -73.5t73.5 -30.5t75 30.5t32 73.5t-32 74t-75 31t-73.5 -31t-30.5 -74z" />
<glyph unicode="&#x66f;" horiz-adv-x="1228" d="M395 307q0 127 89 217t215 90t215.5 -90t89.5 -217v-102h266v-205h-273q-7 -51 -35 -135t-77 -146.5t-148.5 -110.5t-232.5 -48q-217 0 -335 134t-118 296q0 266 168 416q12 -98 -26 -150q27 2 57.5 -17.5t40.5 -68.5q-80 12 -121 -14q-57 -37 -57 -163t104.5 -211 t273.5 -85q169 1 236 75t71 228h-98q-127 0 -216 90t-89 217zM598 307q0 -43 29.5 -72.5t72.5 -29.5t73 29.5t30 72.5t-30 73t-73 30t-72.5 -30t-29.5 -73z" />
<glyph unicode="&#x66f;" horiz-adv-x="1054" d="M395 307q0 127 89 217t215 90t215.5 -90t89.5 -217v-205q0 -112 -35 -216.5t-84 -167t-148.5 -110.5t-232.5 -48q-217 0 -335 134t-118 296q0 266 168 416q12 -98 -26 -150q27 2 57.5 -17.5t40.5 -68.5q-80 12 -121 -14q-57 -37 -57 -163t104.5 -211t273.5 -85t238 76.5 t70 242.5q-46 -16 -99 -16q-127 0 -216 90t-89 217zM598 307q0 -43 29.5 -72.5t72.5 -29.5t73 29.5t30 72.5t-30 73t-73 30t-72.5 -30t-29.5 -73z" />
<glyph unicode="&#x6a1;" horiz-adv-x="1894" d="M1081 614q0 127 89.5 217.5t215.5 90.5t215 -90.5t89 -217.5v-409h245v-205h-1884l123 205h1311v118q-47 -16 -101 -16q-125 0 -214 90t-89 217zM1280 614q0 -43 30.5 -73.5t73.5 -30.5t75 30.5t32 73.5t-32 74t-75 31t-73.5 -31t-30.5 -74z" />
<glyph unicode="&#x6a1;" horiz-adv-x="1740" d="M1081 614q0 127 89.5 217.5t215.5 90.5t215 -90.5t89 -217.5v-567q0 -51 -82 -47h-1557l123 205h1311v118q-47 -16 -101 -16q-125 0 -214 90t-89 217zM1280 614q0 -43 30.5 -73.5t73.5 -30.5t75 30.5t32 73.5t-32 74t-75 31t-73.5 -31t-30.5 -74z" />
<glyph unicode="&#x6ba;" horiz-adv-x="1003" arabic-form="final" d="M453 -418q-113 0 -197 46t-126 117q-79 134 -79 258t76 238.5t182 182.5q10 -80 -41 -148q33 -16 50.5 -49.5t9.5 -68.5q-55 31 -105.5 25.5t-80 -60.5t-29.5 -123q0 -117 83 -198t237 -81t223 97.5t60 227.5t-132 278l106 213q129 -160 175 -332h179v-205h-153 q-3 -174 -121.5 -296t-316.5 -122z" />
<glyph unicode="&#x6ba;" horiz-adv-x="942" arabic-form="isolated" d="M891 10q0 -180 -120 -304t-318 -124q-113 0 -197 46t-126 117q-79 134 -79 258t76 238.5t182 182.5q10 -80 -41 -148q33 -16 50.5 -49.5t9.5 -68.5q-55 31 -105.5 25.5t-80 -60.5t-29.5 -123q0 -117 83 -198t237 -81t223 97.5t60 227.5t-132 278l106 213 q201 -251 201 -527z" />
<glyph unicode="&#x6c1;" horiz-adv-x="858" arabic-form="initial" d="M397 623q0 -43 30 -73t73 -30q42 0 72 30t30 73t-30 73t-72 29q-42 1 -73 -29q-30 -30 -30 -73zM-41 205h240v418q0 127 89 217t214 90h58q137 0 182 30t65 64v-977q0 -51 -82 -47h-766v205zM397 305q0 -43 26 -69t55 -31h43q29 5 55 31t26 69t-30 73t-72 30t-73 -30 q-30 -30 -30 -73z" />
<glyph />
<glyph />
<glyph unicode="&#xd;" horiz-adv-x="614" />
<glyph unicode=" "  horiz-adv-x="266" />
<glyph unicode="&#x09;" horiz-adv-x="266" />
<glyph unicode="&#xa0;" horiz-adv-x="266" />
<glyph unicode="!" horiz-adv-x="544" d="M272 -8q-46 0 -80 34t-34 83t35 83t79 34t79 -34q34 -34 34 -83t-34 -83t-79 -34zM178 1556h189v-1212h-189v1212z" />
<glyph unicode="&#x22;" horiz-adv-x="720" d="M131 979v516h184l-8 -516h-176zM408 979v516h186l-8 -516h-178z" />
<glyph unicode="#" horiz-adv-x="1189" d="M502 764q-2 -35 -10 -100l-13 -99h193l22 199h-192zM838 381l-43 -381h-191l45 381h-192l-45 -381h-191l45 381h-184l22 184h185l24 199h-184l18 182h187q43 353 49 389h188l-49 -389h193l49 389h190l-49 -389h203l-16 -182h-207l-25 -199h205l-21 -184h-206z" />
<glyph unicode="$" horiz-adv-x="1191" d="M367 1102q0 -66 52 -109t122 -73v356q-88 -23 -127 -68q-47 -40 -47 -106zM887 422q0 81 -64 135q-29 31 -69 49q-18 12 -84 43v-430q20 4 85 30t113 95q19 37 19 78zM541 201v497q-98 37 -158 66q-140 68 -203 174q-35 63 -35 139q0 157 101 264q110 124 295 146v135 h129v-131q125 -4 293 -55q33 -10 55 -20t37 -13l-80 -182q-175 63 -305 67v-420q193 -68 297 -147q57 -49 102 -123q39 -74 39 -176q0 -178 -118 -290t-320 -138v-133h-129v123h-4q-232 0 -419 100q-14 8 -26 14t-20 13l98 194q192 -106 365 -104h6z" />
<glyph unicode="%" horiz-adv-x="1470" d="M1147 1038l-619 -1038h-206q436 729 618 1038h207zM350 541q-111 0 -190 77q-41 41 -58 87q-23 45 -22 104q0 59 22 104q18 47 58 82q78 78 190 78t189 -78q31 -29 59 -82q20 -55 20 -104t-20 -104q-53 -103 -143 -144q-48 -20 -105 -20zM268 808q0 -38 23 -60 q18 -25 56 -25t63 25q20 26 20 60t-20 60q-27 23 -64 23t-55 -23q-23 -22 -23 -60zM1124 -37q-110 0 -190 78q-39 37 -57 84q-23 45 -23 104t23 103q34 96 142 142q107 46 213 -1t140 -141q23 -42 23 -102t-23 -105q-36 -95 -143 -141q-48 -21 -105 -21zM1044 230 q0 -34 21 -60q25 -25 61 -25t58 24q20 23 20 61t-20 61q-23 23 -58 23t-61 -23q-21 -27 -21 -61z" />
<glyph unicode="&#x26;" horiz-adv-x="1339" d="M860 285l-328 422q-51 -2 -106 -23q-57 -27 -90 -59q-88 -76 -88 -202q0 -63 26 -116q90 -155 288 -155q78 0 173 36q78 36 125 97zM571 -20q-120 0 -211 32q-182 74 -252 232q-38 84 -36 174q1 159 100 287q94 114 250 157q-103 163 -133 240q-64 162 -2 270 q20 51 72 95t116 61q53 20 146 24t174 -24t120 -58l-14 -20q-55 -75 -65 -94q-16 -16 -17 -23q-92 64 -199 50q-107 -15 -153 -78q-21 -37 -21 -87t23 -96t27 -49l446 -594l156 400h186l-221 -562l242 -317h-209q-14 20 -37 43q-11 15 -47 58q-37 43 -45 53 q-68 -80 -172 -127t-224 -47z" />
<glyph unicode="'" horiz-adv-x="446" d="M131 979v516h188l-8 -516h-180z" />
<glyph unicode="(" horiz-adv-x="606" d="M74 604q0 150 28 297q66 292 187 479q57 92 127 168q27 -8 73 -20t95 -27q-128 -147 -219 -368q-37 -92 -74 -248q-27 -143 -27 -281t27 -280q66 -278 176 -455q55 -92 117 -162l-168 -49q-149 162 -236 387q-47 125 -78 262q-28 147 -28 297z" />
<glyph unicode=")" horiz-adv-x="606" d="M532 596q0 -303 -106 -559q-47 -125 -111 -217q-57 -92 -127 -168q-38 13 -82 20q-57 16 -83 25q128 148 219 369q37 90 73 245q27 143 27 281t-27 280q-67 283 -176 455q-55 92 -116 162l165 53q160 -174 238 -387q106 -256 106 -559z" />
<glyph unicode="*" horiz-adv-x="772" d="M444 889h-122v178q-39 -26 -78 -43q-41 -25 -78 -45l-66 113l158 88l-156 94q10 25 24 44q13 20 22 38t14 24l160 -94v189h131q0 -63 -2 -95v-94l161 92l62 -106q-47 -27 -88 -52t-74 -42q12 -6 38 -22l39 -24t40 -22t41 -23q-21 -42 -66 -114l-158 94v-88q-2 -31 -2 -90 z" />
<glyph unicode="+" horiz-adv-x="915" d="M362 106v281h-278v182h278v285h191v-285h278v-182h-278v-281h-191z" />
<glyph unicode="," horiz-adv-x="493" d="M358 178l-180 -426h-168q27 72 80 211l80 215h188z" />
<glyph unicode="-" horiz-adv-x="606" d="M113 354v183h381v-183h-381z" />
<glyph unicode="." horiz-adv-x="339" d="M51 0q0 49 35 84t84 35t84 -35t35 -84t-35 -84t-84 -35t-84 35t-35 84z" />
<glyph unicode="/" horiz-adv-x="894" d="M831 1528l-579 -1567h-189l578 1567h190z" />
<glyph unicode="0" horiz-adv-x="1306" d="M650 166q76 0 145 40t117 108t78 164t30 180t-16 182q-42 195 -175 293q-70 51 -172 51t-178 -54q-131 -99 -172 -293t6 -358q60 -197 195 -272q66 -41 142 -41zM96 679q0 311 162 509q153 178 401 178t402 -195q74 -94 110 -217q43 -126 39 -288q-8 -315 -163 -502 q-164 -180 -400 -180q-237 0 -389 184q-74 84 -118 215t-44 296z" />
<glyph unicode="1" horiz-adv-x="622" d="M96 1167v183h322v-1350h-191v1167h-131z" />
<glyph unicode="2" horiz-adv-x="1112" d="M86 935q0 187 115 302q125 129 319 129q195 0 320 -129q53 -57 90 -139q31 -80 31 -175q0 -256 -252 -558q-70 -89 -152 -183h479v-182h-930q41 43 124 126l152 152q68 68 183 205q97 123 151 223t54 186q0 138 -86 226q-71 64 -153 65q-137 2 -205 -89q-50 -72 -52 -152 q0 -126 80 -213l-110 -117q-71 42 -114 140q-44 98 -44 183z" />
<glyph unicode="3" horiz-adv-x="954" d="M662 436q0 59 -23 105q-38 96 -143 141q-47 20 -115 20t-125 -32q58 106 152 246t149 249h-416v185h715q-47 -82 -149 -246t-150 -246q129 -51 211 -163t82 -259q0 -186 -137 -319q-61 -61 -145 -97q-181 -78 -361 5q-80 37 -150 106l138 129q79 -96 196 -94q59 0 105 22 q45 16 86 58t57 86q23 45 23 104z" />
<glyph unicode="4" horiz-adv-x="1079" d="M614 530v326l-249 -326h249zM805 530h201v-182h-201v-348h-191v348h-614q215 283 401 508q223 279 404 510v-836z" />
<glyph unicode="5" horiz-adv-x="933" d="M162 1350h596v-183h-434v-295q38 15 65 15q102 0 189 -35q86 -39 143 -98q127 -118 127 -310t-135 -327q-66 -63 -148 -99q-164 -71 -348 -2q-82 37 -141 95l137 127q72 -72 178 -72q59 0 105 22q45 16 86 58t57 86q23 45 23 104t-23 105q-16 45 -57 86q-39 33 -88 57 q-55 20 -105 21q-147 0 -227 -80v725z" />
<glyph unicode="6" horiz-adv-x="1085" d="M86 430q0 108 33 213q70 181 217 340q96 92 149 136q69 57 273 204l116 -143q-18 -12 -60 -42t-68 -47t-73 -53q-48 -36 -79 -56q-31 -22 -85 -70t-77 -76q49 49 107 51q188 0 324 -132t135 -319q-1 -188 -138 -319q-61 -61 -145 -97q-156 -68 -332 -10q-86 29 -145 84 q-68 55 -110 141q-42 87 -42 195zM279 436q0 -111 75 -190q35 -39 82 -58q42 -22 102 -22t105 22q45 16 86 58t57 86q23 45 23 104t-23 105q-34 96 -143 143q-107 46 -205 1t-139 -144q-20 -48 -20 -105z" />
<glyph unicode="7" horiz-adv-x="935" d="M61 1165v185h861q-258 -639 -322 -807q-66 -169 -82 -209t-61 -156q-45 -115 -70 -178h-213q53 137 221 569l234 596h-568z" />
<glyph unicode="8" horiz-adv-x="1083" d="M849 760q148 -123 148 -317t-125 -326q-135 -135 -333 -133q-204 0 -328 132q-125 132 -125 296q0 165 70 264q56 87 159 137q-61 41 -84 97q-47 115 2 249q27 63 72 111q100 96 236 96q133 0 235 -96q100 -104 99 -241q-1 -136 -109 -216q41 -18 83 -53zM279 433 q0 -108 75 -187q37 -39 84 -58q44 -22 102 -22t103 22q45 16 86 58q35 31 62 86q20 55 20 108q-1 52 -23 102t-55 81q-35 39 -82 57q-39 20 -102 25q-111 0 -191 -78q-33 -29 -59 -84q-20 -56 -20 -110zM391 1042q0 -45 15 -67q10 -23 32 -45q23 -18 49 -33q35 -10 62 -10 q61 0 102 43q45 40 45 100q0 57 -45 109q-50 43 -107 44q-56 1 -106 -44q-47 -52 -47 -97z" />
<glyph unicode="9" horiz-adv-x="1087" d="M545 1141q-59 0 -105 -23q-91 -32 -145 -143q-39 -107 0 -209q82 -161 250 -164q104 0 184 78q76 85 76 189t-76 192q-35 39 -82 57q-43 23 -102 23zM545 420q-185 0 -321 131t-136 317t135 322q63 64 146 96q80 37 166 37q188 0 313 -111q151 -126 151 -342 q0 -104 -32 -206q-75 -194 -219 -340q-63 -63 -146 -136q-120 -96 -276 -204l-117 143q95 67 127 86q37 27 150 109t165 149q-51 -51 -106 -51z" />
<glyph unicode=":" horiz-adv-x="452" d="M113 114q1 52 35 85t78 33t77 -35q37 -31 37 -83t-35 -83t-78 -31t-80 31q-34 31 -34 83zM226 561q-44 0 -78 32t-35 81q0 49 34 88q39 33 79 33t77 -35t37 -85t-37 -81q-33 -33 -77 -33z" />
<glyph unicode=";" horiz-adv-x="518" d="M166 635q0 51 35 84t79 33t76 -35q35 -31 35 -82t-34 -84q-35 -33 -77 -33t-79 31q-35 35 -35 86zM6 -248l162 426h186l-178 -426h-170z" />
<glyph unicode="&#x3c;" horiz-adv-x="1134" d="M973 227v-256l-907 523l907 524v-256l-463 -268z" />
<glyph unicode="=" horiz-adv-x="1296" d="M1174 811v-184h-1051v184h1051zM1174 408v-185h-1051v185h1051z" />
<glyph unicode="&#x3e;" horiz-adv-x="1134" d="M162 -29v256l463 267l-463 268v256l907 -524z" />
<glyph unicode="?" horiz-adv-x="970" d="M287 109q0 51 35 84q34 33 78 33t79 -34t35 -84t-36 -81t-79 -31t-75 31q-37 31 -37 82zM476 1520q97 0 172 -32t128 -87q117 -121 117 -309q0 -187 -203 -336q-28 -23 -56 -40q-83 -50 -118 -122q-18 -41 -18 -92v-162h-189v201q0 111 76 184q35 35 78 57q76 55 90 66 q147 115 147 268q0 90 -57 158q-61 63 -167 63t-158 -47t-87 -153l-163 61q18 53 38 100q29 54 72 102t123 87q78 33 175 33z" />
<glyph unicode="@" horiz-adv-x="1935" d="M653 430q0 -63 23 -111q33 -96 145 -147q57 -20 111 -20t117 20q57 28 91 62q75 74 76 194q1 119 -77 199q-88 80 -206 80q-65 0 -112 -23q-47 -16 -88 -57t-57 -86q-23 -48 -23 -111zM1495 -270q-209 -181 -563 -181q-164 0 -320 69t-276 185q-116 119 -186 276t-70 330 t57 327t173 280q116 125 287 202q171 76 386 76q399 -1 635 -245q109 -111 160 -254q55 -141 55 -273q0 -247 -109 -391q-53 -63 -120 -98q-76 -33 -150 -33h-237v109q-35 -49 -78 -73q-190 -105 -394 -20q-82 35 -143 99t-90 137q-35 76 -35 167t35 179q79 169 242 244 q80 37 152 37t132 -15q97 -33 148 -86q23 -25 31 -43l8 121h168v-692h61q77 0 131 74q33 37 53 102q23 61 23 171q0 111 -41 221q-87 235 -338 343q-132 53 -310 53t-315 -65t-231 -170q-176 -207 -176 -479q0 -146 56 -274t152 -223t226 -150q129 -55 277 -56 q231 0 432 139z" />
<glyph unicode="A" horiz-adv-x="1325" d="M477 614h371q-49 119 -70 173t-33 73q-6 18 -19 48t-23 56q-9 26 -15 38t-12 38q-10 25 -12 45q-2 -19 -8 -35t-9 -23q-2 -7 -6 -15zM1102 0l-178 426h-525l-176 -426h-221l662 1554q8 -25 45 -104q33 -84 139 -335q107 -251 162 -382t145 -339q90 -209 116 -273t38 -89 t14 -32h-221z" />
<glyph unicode="B" horiz-adv-x="1216" d="M182 0v1485h393q115 0 197 -23q80 -16 150 -65q66 -51 94 -119q35 -70 35 -150q0 -144 -47 -243q-33 -51 -72 -83t-101 -50q47 -8 103 -35t96 -68q93 -98 92 -272t-139 -275q-139 -102 -348 -102h-453zM408 653v-450h208q115 0 203 55q86 69 84 172q0 66 -26 107 q-82 116 -287 116h-182zM408 1282v-438h200q111 0 166 66t55 168t-65 153t-178 51h-178z" />
<glyph unicode="C" horiz-adv-x="1306" d="M1245 1397q-7 -11 -100 -174q-108 67 -289 67q-119 0 -222 -45t-175 -119t-114 -173t-42 -207t41 -197q37 -94 111 -172q63 -72 165 -119t193 -47q194 0 338 74q33 14 39 24l94 -203q-12 -10 -67 -40q-198 -82 -381 -82q-349 0 -557 223q-199 212 -199 530q0 160 59 303 q119 279 410 404q139 57 313 57t318 -63q49 -25 65 -41z" />
<glyph unicode="D" horiz-adv-x="1456" d="M596 213q119 0 218 33q205 68 296 266q41 100 41 228t-47 230q-93 203 -293 267q-96 33 -195 33h-210v-1057h190zM182 1485h373q223 0 380 -68q295 -128 396 -422q43 -139 43 -287t-58 -282q-115 -264 -401 -377q-135 -49 -286 -49h-447v1485z" />
<glyph unicode="E" horiz-adv-x="1263" d="M182 0v1485h975v-203h-749v-434h667v-207h-667v-434h778v-207h-1004z" />
<glyph unicode="F" horiz-adv-x="1136" d="M182 0v1485h889v-207h-665v-449h581v-208h-581v-621h-224z" />
<glyph unicode="G" horiz-adv-x="1402" d="M853 195q124 0 230 41v282h-288v193h495v-623q-92 -53 -205 -76q-113 -28 -266 -28t-291 55q-287 114 -395 383q-53 135 -53 300t62 308t169 250q117 109 250 162q133 59 297 59q96 0 223 -26q125 -33 203 -80l-108 -183q-20 12 -85 37t-155 37q-57 4 -82 4 q-223 0 -387 -164t-164 -397q0 -115 41 -205q35 -92 111 -170q151 -159 398 -159z" />
<glyph unicode="H" horiz-adv-x="1556" d="M182 0v1485h224v-631h743v631h225v-494q0 -164 -2 -250v-741h-223v641h-743v-641h-224z" />
<glyph unicode="I" horiz-adv-x="587" d="M182 1485h224v-1485h-224v1485z" />
<glyph unicode="J" horiz-adv-x="669" d="M268 283v1202h226v-1209q0 -267 -156 -423q-74 -78 -174 -115q-102 -43 -221 -45v211q143 10 234 98t91 281z" />
<glyph unicode="K" horiz-adv-x="1325" d="M532 692q-67 -67 -104 -100q0 -203 2 -297v-295h-248v1485h248v-555q0 -25 -3 -37t-3 -35l20 27q12 12 21 26q161 154 285 291t276 283h285l-609 -643q239 -308 341 -447q103 -139 185 -247t111 -148h-276q-29 38 -79 102t-88 112t-132 173q-95 126 -232 305z" />
<glyph unicode="L" horiz-adv-x="1169" d="M182 0v1485h226v-1272h737v-213h-963z" />
<glyph unicode="M" horiz-adv-x="1851" d="M406 0h-224v1550q6 -8 16 -23t28 -39q16 -24 64 -90t103 -145q44 -56 142 -195q97 -139 195 -273q98 -133 117 -159t43 -60t36 -50q16 26 49 70t114 159t158 220q76 104 154 214t140 193q61 84 81 115t47 63v-1550h-237v831l2 35q4 12 4 27q-25 -33 -58 -81t-94 -136 q-53 -82 -108 -156q-83 -122 -140 -202t-82 -119q-26 -40 -30 -45q-18 27 -58 75q-36 55 -74 107t-78 107l-95 133t-90 128q-35 50 -79 110t-53 79l2 -27q4 -12 5 -35v-831z" />
<glyph unicode="N" horiz-adv-x="1667" d="M1485 1485v-1553q-25 33 -111 119l-188 189q-145 145 -228 223q-82 82 -173 171q-259 254 -345 357l-39 53l7 -65v-979h-226v1554q31 -39 76 -81q173 -184 451 -443l172 -166q74 -72 155 -149q44 -47 104 -107t89 -96l39 -57l-6 69v961h223z" />
<glyph unicode="O" horiz-adv-x="1673" d="M301 739q0 -113 41 -211t116 -173t173 -117t209 -43q111 0 209 44q206 92 282 289q43 98 43 212t-41 212q-85 202 -289 291q-94 43 -206 43t-210 -43q-99 -43 -169 -117q-158 -158 -158 -387zM298 1272q106 108 243 170q141 59 294 59t295 -59q139 -63 242 -166 q223 -234 223 -535q0 -154 -59 -292t-164 -244q-106 -105 -246 -163t-292 -58q-310 0 -535 221q-221 227 -221 536q0 307 220 531z" />
<glyph unicode="P" horiz-adv-x="1181" d="M182 0v1485h406q232 0 383 -121q147 -132 147 -338t-112 -342q-56 -66 -154 -110t-236 -44h-208v-530h-226zM408 741h202q145 0 226 99q57 73 57 172q0 37 -12 86q-16 47 -47 86q-87 92 -222 92h-204v-535z" />
<glyph unicode="Q" horiz-adv-x="1683" d="M301 739q0 -227 158 -385q70 -74 169 -116t211 -43q112 0 210 44q206 92 282 289q43 98 43 212q0 218 -157 386q-160 160 -381 160q-226 0 -382 -162q-73 -76 -110 -172q-43 -100 -43 -213zM834 -16q-154 0 -292 58t-244 165t-162 243q-58 136 -58 291q0 154 57 289 q57 134 161 242t243 170q141 59 296 59q310 0 535 -225q106 -106 166 -244t59 -291q0 -310 -209 -546l256 18v-213h-649q-78 -16 -159 -16z" />
<glyph unicode="R" horiz-adv-x="1286" d="M408 741h202q86 0 138 29q49 23 83 64q62 75 62 178q0 37 -12 86q-16 47 -47 86q-87 92 -222 92h-204v-535zM182 0v1485h406q232 0 383 -121q147 -132 147 -348q0 -142 -53 -238q-23 -51 -70 -106q-43 -45 -104 -80q47 -74 144 -232t229 -360h-269q-14 25 -92 145 t-155 242q-76 121 -91 143h-249v-530h-226z" />
<glyph unicode="S" horiz-adv-x="1157" d="M635 1288q-137 0 -214 -52t-77 -129t55 -120q66 -47 108 -63t208 -80q86 -27 173 -82q197 -125 197 -335t-143 -325q-139 -120 -422 -118q-173 0 -295 45q-86 27 -176 82l98 194q192 -106 365 -104q120 0 199 38t112 76q41 41 41 105t-33 104q-55 78 -200 131 q-90 37 -131 52t-125 54q-164 75 -219 185q-33 53 -33 134q0 167 123 286q136 127 364 127q76 0 116 -7t157 -32q101 -32 149 -51l-80 -182q-180 67 -317 67z" />
<glyph unicode="T" horiz-adv-x="1128" d="M1047 1485v-213h-375v-1272h-223v1272h-367v213h965z" />
<glyph unicode="U" horiz-adv-x="1464" d="M330 134q-164 150 -164 390v961h225v-955q0 -74 25 -129t71 -110q109 -97 243 -97q75 0 134 27q55 20 111 70q100 112 98 239v955h225v-961q0 -125 -45 -221q-39 -92 -118 -172q-176 -147 -409 -147q-232 0 -396 150z" />
<glyph unicode="V" horiz-adv-x="1329" d="M225 1485q9 -23 33 -80q24 -56 49 -116t65 -155t62 -155q46 -109 98 -238t82 -200t32 -74q14 -27 20 -66l20 72l47 113q39 94 61 150t53 128q30 72 67 169t69 159q35 86 61 148t40 98q15 37 20 47h221q-11 -27 -31 -76t-78 -182t-111 -260q-54 -127 -149 -346t-170 -404 q-70 -160 -89 -209t-31 -76l-662 1553h221z" />
<glyph unicode="W" horiz-adv-x="1941" d="M981 813q0 -7 -10 -47q-70 -153 -109 -245q-38 -91 -82 -190t-58 -136t-34 -81t-39 -86t-41 -96q-196 516 -308 800t-286 747h252q66 -180 103 -273q49 -137 98 -264q14 -45 56 -160t83 -260l17 -71q0 2 2 7t4 12t6 18l10 30t14 36q7 18 25 64q18 44 34 76t28 67 q13 34 47 107t81 189q-28 78 -64 188q-34 111 -42 132t-14 41t-12 38q-6 16 -7 23h215q132 -341 173 -455t51 -139t30 -78t33 -80q73 -198 75 -204q3 -7 6 -18t5 -18l6 -36l6 36q4 10 20 85t77 233q61 159 99 257t69 181q31 84 92 236h233q-141 -369 -159 -415t-213 -548 q-196 -502 -222 -582l-332 830q-4 8 -7 17t-7 18t-4 14z" />
<glyph unicode="X" horiz-adv-x="1292" d="M500 760l-465 725h274q2 -4 24 -37t66 -109q53 -84 63 -100t33 -54q24 -38 50 -82t35 -58q10 -13 38 -62l15 -29q12 -20 18 -41q6 20 19 41l14 29q28 49 52 87t74 123t87 146q13 27 35 62t51 84h274q-25 -37 -60 -97t-71 -110q-16 -27 -50 -81t-50 -81t-50 -81t-58 -93 t-72 -111q-47 -72 -51 -83l483 -748h-279l-303 487q-7 11 -20 34t-24 41q-11 19 -13 24q0 -4 -12 -30q-13 -26 -17 -32t-27 -45t-87 -145q-62 -105 -96 -160q-34 -54 -64 -102t-43 -72h-279z" />
<glyph unicode="Y" horiz-adv-x="1343" d="M784 0h-225v489q-32 52 -130 234q-99 182 -134 244q-35 61 -75 136l-56 105q-57 102 -101 182t-55 95h254q29 -47 70 -127t100 -187l117 -221q18 -36 52 -100t48 -92l23 -68q7 11 15 37q9 26 27 58t60 117q43 85 82 159t90 173q51 100 77 150t56 101h252l-547 -996v-489z " />
<glyph unicode="Z" horiz-adv-x="1300" d="M356 1485h879l-844 -1270h862v-215h-1251q42 54 152 228t170 266t108 165l141 215q63 102 164 254t125 183h-594q-23 0 -63 8q-61 21 -99 67q-14 29 -14 56v119h201v-29q0 -39 14 -41q16 -6 49 -6z" />
<glyph unicode="[" horiz-adv-x="643" d="M176 -309v1857h406v-182h-217v-1493h217v-182h-406z" />
<glyph unicode="\" horiz-adv-x="915" d="M276 1528q192 -524 302 -826t276 -741h-213l-578 1567h213z" />
<glyph unicode="]" horiz-adv-x="643" d="M467 1548v-1857h-406v182h220v1493h-220v182h406z" />
<glyph unicode="^" horiz-adv-x="749" d="M494 995l-119 160q-12 -12 -23 -30q-12 -19 -37 -50t-32 -47q-9 -9 -25 -33h-133q72 104 125 189q59 86 125 186q66 -100 125 -186q53 -84 125 -189h-131z" />
<glyph unicode="_" horiz-adv-x="1056" d="M944 0h-831v182h831v-182z" />
<glyph unicode="`" horiz-adv-x="415" d="M76 1270q80 -120 102 -152t84 -123h-131q-81 89 -111 125t-71 80t-62 70h189z" />
<glyph unicode="a" horiz-adv-x="1101" d="M240 430q0 -63 22 -111q33 -97 146 -147q57 -20 111 -20t116 20q57 28 91 62q75 74 76 194q1 119 -77 199q-88 80 -206 80q-65 0 -111 -23q-46 -16 -88 -57t-58 -86q-22 -48 -22 -111zM63 419q0 91 35 179q78 168 242 244q80 37 152 37t133 -15q99 -34 147 -86 q23 -25 31 -43l8 121h168v-856h-176v109q-40 -70 -176 -115q-45 -14 -127 -14t-166 36t-144 95q-63 68 -92 141q-35 76 -35 167z" />
<glyph unicode="b" horiz-adv-x="1105" d="M848 430q0 117 -72 197q-37 39 -84 57q-45 23 -109 23q-179 0 -264 -166q-20 -57 -20 -111t20 -111q25 -53 58 -86t90 -61q61 -20 115 -20t110 20q101 53 137 147q19 54 19 111zM913 106q-57 -57 -143 -92q-138 -56 -278 -22q-91 18 -152 74q-27 20 -43 47q0 -14 2 -23 v-90h-176v1591h176v-860q14 25 45 51q27 27 66 45q75 50 181 51q191 2 327 -120q120 -133 120 -330t-125 -322z" />
<glyph unicode="c" horiz-adv-x="851" d="M63 430q0 88 36 173t98 142q59 59 143 99q88 35 178 35q163 0 291 -99l-113 -133q-66 58 -155 59t-135 -22q-45 -16 -91 -57q-77 -77 -77 -196q0 -184 168 -259q57 -20 112 -20q108 0 178 59l107 -133q-123 -100 -285 -98q-190 0 -321 133q-61 61 -99 143q-35 86 -35 174 z" />
<glyph unicode="d" horiz-adv-x="1103" d="M242 430q0 -53 20 -111q48 -102 148 -147q57 -20 113 -20t112 20q57 25 90 61q78 70 79 195q1 126 -79 199q-41 41 -90 57q-45 23 -112 23t-113 -23q-91 -31 -148 -143q-20 -58 -20 -111zM66 432q0 92 32 178q72 167 234 236q80 33 154 33t137 -15q49 -18 86 -37 q76 -56 96 -96v860h176v-1591h-176v63q0 19 2 29t2 25q-90 -98 -167 -118q-78 -19 -160 -19q-174 0 -302 131q-55 61 -86 143q-28 86 -28 178z" />
<glyph unicode="e" horiz-adv-x="948" d="M514 707q-120 0 -197 -84q-33 -33 -59 -86q-20 -55 -20 -101v-14q2 -2 2 -6q10 4 51 20t65 27l123 49q66 31 119 49q98 41 102 43q-24 51 -76 77t-110 26zM514 152q126 0 203 75l131 -127q-60 -53 -148 -87q-184 -71 -353 0q-170 70 -249 241q-35 86 -35 174t36 172 q71 165 241 244q82 35 172 35q145 0 254 -89t154 -227q-106 -36 -280 -109t-204 -83q-31 -10 -87 -33t-85 -33q33 -68 101 -112q70 -41 149 -41z" />
<glyph unicode="f" horiz-adv-x="659" d="M49 686v172h146v199q0 266 124 397q129 131 359 137v-168q-162 -10 -235 -104t-72 -266v-195h270v-172h-270v-686h-176v686h-146z" />
<glyph unicode="g" horiz-adv-x="1103" d="M242 430q0 -53 20 -111q48 -102 148 -147q57 -20 113 -20t112 20q57 25 90 61q78 70 79 195q1 126 -79 199q-41 41 -90 57q-45 23 -112 23t-113 -23q-91 -31 -148 -143q-20 -58 -20 -111zM981 856v-817q0 -213 -125 -332t-338 -119q-61 0 -133 15q-126 43 -192 98l-80 68 l112 118q73 -63 135 -96t176 -33t189 64q76 64 80 184v60q0 8 4 34t4 31q-40 -55 -111 -102q-192 -89 -372 -15q-161 71 -232 236q-32 80 -32 174q0 193 129 326q129 129 309 129q123 0 215 -62q23 -16 59 -47q16 -24 27 -35l8 121h168z" />
<glyph unicode="h" horiz-adv-x="1042" d="M123 1591h174v-942q47 104 127 166q82 59 211 63t209 -69q80 -72 84 -186v-623h-176v543q-2 61 -45 110t-113 51t-129 -20q-112 -53 -146 -147q-23 -47 -22 -113v-424h-174v1591z" />
<glyph unicode="i" horiz-adv-x="419" d="M297 0h-174v856h174v-856zM100 1184q0 47 35 81q35 33 78 33t77 -34t34 -80q0 -47 -34 -80t-76 -33t-79 31q-35 35 -35 82z" />
<glyph unicode="j" horiz-adv-x="419" d="M104 1184q0 47 34 81q34 33 78 33t78 -34t34 -80q0 -47 -35 -80t-78 -33t-77 33t-34 80zM123 4v852h174v-858q0 -266 -176 -412l-123 131q125 100 125 287z" />
<glyph unicode="k" horiz-adv-x="905" d="M297 0h-174v1591h174v-1116q168 155 434 404l105 -105q-130 -119 -297 -280q86 -117 180 -248l178 -246h-201q-94 127 -139 188l-141 191l-119 -109v-270z" />
<glyph unicode="l" horiz-adv-x="423" d="M299 0h-174v1591h174v-1591z" />
<glyph unicode="m" horiz-adv-x="1642" d="M1528 0h-176v543q-4 65 -44 111t-130 51q-121 0 -193 -79t-74 -202v-424h-174v543q-2 61 -45 112q-48 47 -116 49t-123 -20q-156 -77 -156 -260v-424h-174v856h153l7 -115q4 -39 8 -104q45 111 122 174t208 68q125 1 201 -63t87 -167q53 105 126 165t202 65 q133 0 210 -71t81 -185v-623z" />
<glyph unicode="n" horiz-adv-x="1042" d="M641 879q127 0 206 -72t81 -184v-623h-176v543q-2 61 -45 110t-113 51t-129 -20q-112 -53 -146 -147q-23 -47 -22 -113v-424h-174v856h153l7 -115q4 -39 8 -104q47 113 135 177t215 65z" />
<glyph unicode="o" horiz-adv-x="1034" d="M238 428q0 -51 20 -109q27 -55 61 -86q31 -35 87 -61q57 -20 108 -20t109 20q108 51 149 147q23 55 23 109q0 114 -82 199q-45 41 -90 57q-47 23 -109 23t-108 -23q-97 -35 -148 -147q-20 -58 -20 -109zM63 426q0 92 36 177t98 142q59 59 143 99q88 35 180 35t180 -35 q166 -77 238 -240q33 -88 33 -174t-33 -174q-74 -169 -243 -242t-355 -2q-166 69 -242 234q-35 88 -35 180z" />
<glyph unicode="p" horiz-adv-x="1105" d="M913 106q-57 -57 -143 -92q-138 -56 -278 -22q-91 18 -152 74q-27 20 -43 47q0 -14 2 -23v-502h-176v1268h170l2 -61q4 -23 4 -64q14 25 45 51q27 27 66 45q75 50 181 51q191 2 327 -120q120 -133 120 -330t-125 -322zM848 430q0 117 -72 197q-37 39 -84 57 q-45 23 -109 23q-179 0 -264 -166q-20 -57 -20 -111t20 -111q25 -53 58 -86t90 -61q61 -20 115 -20t110 20q101 53 137 147q19 54 19 111z" />
<glyph unicode="q" horiz-adv-x="1103" d="M811 856h170v-1268h-176v475q0 19 2 29t2 25q-90 -98 -167 -118q-78 -19 -160 -19q-174 0 -302 131q-55 61 -86 143q-28 86 -28 178t32 178q72 167 234 236q80 33 154 33t137 -15q49 -18 86 -37q76 -56 96 -96l2 64q4 25 4 61zM242 430q0 -53 20 -111q48 -102 148 -147 q57 -20 113 -20t112 20q57 25 90 61q78 70 79 195q1 126 -79 199q-41 41 -90 57q-45 23 -112 23t-113 -23q-91 -31 -148 -143q-20 -58 -20 -111z" />
<glyph unicode="r" horiz-adv-x="636" d="M297 410v-410h-174v856h153l7 -115q4 -39 8 -104q58 110 162 176q99 64 180 66l-39 -226q-49 0 -111 -14q-61 -20 -94 -47q-41 -29 -67 -77t-25 -105z" />
<glyph unicode="s" horiz-adv-x="696" d="M262 631q0 -43 29 -66q32 -32 112 -64t127 -65q103 -73 103 -189t-80 -190q-76 -76 -215 -75q-72 0 -158 26q-80 33 -123 82q8 8 33 37q13 26 33 43q41 47 43 47q0 -2 14 -12l41 -21q31 -16 55 -20q27 -10 70 -10t77 24t34 62q0 37 -27 63q-65 38 -138 67t-113 60 q-95 74 -95 197q0 131 92 192q64 55 189 57q52 0 120 -24q68 -25 115 -72l-92 -123q-21 21 -52 31q-32 10 -38 12q-68 14 -112 -6t-44 -63z" />
<glyph unicode="t" horiz-adv-x="622" d="M197 1233h174v-379h229v-156h-229v-698h-174v698h-154v156h154v379z" />
<glyph unicode="u" horiz-adv-x="1042" d="M920 -18h-148l-20 237q-44 -102 -130 -171q-86 -68 -218 -68t-210 72t-79 184v620h174v-543q2 -61 47 -108q39 -45 129 -51q66 0 113 22q97 33 145 146q20 49 20 112v422h177v-874z" />
<glyph unicode="v" horiz-adv-x="911" d="M457 -51q-113 215 -228 452q-90 195 -221 455h191q176 -345 229 -496q6 -14 15 -43t14 -41q2 8 14 38t16 46q54 144 111 258l119 238h190q-153 -303 -237 -477t-213 -430z" />
<glyph unicode="w" horiz-adv-x="1339" d="M590 719l-64 137h152q10 -20 47 -103t72 -162t46 -107q11 -29 37 -93t46 -115q10 47 28 113q39 106 92 219q54 113 109 248h176l-405 -907q-25 51 -70 149q-92 235 -190 449l-260 -598l-388 907h177q14 -37 56 -134q117 -271 155 -446q7 14 18 48q10 34 22 62t29 73 q18 45 37 85t78 175z" />
<glyph unicode="x" horiz-adv-x="888" d="M23 0l313 453l-148 202q-66 84 -147 201h215q52 -84 84 -124t57 -77q23 -29 52 -69q49 74 90 125t104 145h195q-16 -28 -50 -74q-56 -77 -93 -130t-69 -97q-32 -43 -75 -111l80 -106q14 -20 64 -87t84 -116t60 -85t35 -50h-223q-67 92 -105 138t-120 155 q-57 -86 -106 -150t-103 -143h-194z" />
<glyph unicode="y" horiz-adv-x="980" d="M489 219q71 212 289 637h191l-611 -1268h-176q37 78 56 113l49 111q10 24 29 68q20 44 26 55t26 55t31 69q-80 160 -95 192q-16 31 -32 65q-33 67 -79 168q-47 101 -87 178q-31 68 -94 194h191q83 -162 111 -224t69 -144q41 -83 106 -269z" />
<glyph unicode="z" horiz-adv-x="899" d="M838 0h-807l491 707h-286q-74 -1 -120 39t-46 104v88h157v-27q1 -35 17 -45t53 -10h547l-477 -684h471v-172z" />
<glyph unicode="{" horiz-adv-x="669" d="M219 987v318q0 169 76 219q33 18 72 21t104 3h137v-182h-88q-36 0 -56 -7q-39 -13 -50 -95q-4 -53 -4 -109v-264q0 -59 -17 -116t-74 -122q-29 -27 -43 -35q14 -8 43 -34q52 -60 78 -133q12 -45 13 -103v-262q0 -136 17 -167q17 -30 37 -38t56 -8h88v-184h-137 q-63 0 -100 2t-76 22q-35 25 -55 72t-21 143v316q0 43 -8 94q-28 176 -156 186v183q53 4 80 30q54 40 78 160q6 45 6 90z" />
<glyph unicode="|" horiz-adv-x="538" d="M174 -483v1937h191v-1937h-191z" />
<glyph unicode="}" horiz-adv-x="671" d="M616 707v-183q-86 -7 -131 -94q-32 -78 -32 -178v-315q0 -177 -76 -222q-31 -20 -71 -23t-105 -3h-138v184h89q35 0 54 8q40 17 48 94q6 43 6 111v254q0 66 16 116t33 72q14 25 43 58q6 4 22 16t21 16q-14 8 -43 35q-92 106 -92 238v264q0 70 -5 110q-10 80 -50 95 q-20 6 -53 6h-89v182h232q53 -4 82 -24q74 -40 76 -219v-326q0 -103 26 -162t58 -84q28 -26 79 -26z" />
<glyph unicode="~" horiz-adv-x="958" d="M500 1079q57 -51 104 -51q46 0 68 19q14 6 28 27t17 48l98 -6q-4 -47 -19 -76t-46 -59q-67 -51 -118 -51q-50 0 -95 16q-43 22 -77 52t-54 40q-52 25 -115 -8q-37 -18 -43 -76l-101 7q7 78 66 137q62 51 140 51q77 0 147 -70z" />
<glyph unicode="&#xa1;" horiz-adv-x="540" d="M270 1130q45 0 79 -34t34 -82q0 -49 -34 -83t-79 -34t-77 33q-37 33 -37 84q0 52 34 84t80 32zM176 778h189v-1212h-189v1212z" />
<glyph unicode="&#xa2;" horiz-adv-x="886" d="M244 430q0 -88 46 -158t126 -102v516q-78 -29 -125 -96q-47 -72 -47 -160zM545 -139h-129v133q-78 18 -137 59q-115 65 -183 226q-83 220 72 430q47 55 111 98q72 41 137 57v131h129v-116q135 -3 270 -99l-113 -133q-26 23 -72 40t-85 20v-555q91 6 157 59l56 -68 q39 -52 51 -65q-121 -93 -264 -98v-119z" />
<glyph unicode="&#xa3;" horiz-adv-x="1253" d="M469 1059v-318h242v-184h-242v-217q0 -53 -5 -92t-38 -66h342q68 0 108 4q82 8 95 52q8 23 8 53v88q63 0 94 2h96v-205q0 -45 -10 -70q-11 -60 -110 -94q-49 -12 -125 -12h-844v182h92q32 0 54 8q43 16 48 86q6 39 7 103v178h-136v184h136v369q1 74 33 136 q105 200 431 200q242 0 357 -211q-100 -60 -144 -82q-14 13 -24 29q-25 39 -103 67q-41 12 -108 13q-127 0 -188 -54q-66 -49 -66 -149z" />
<glyph unicode="&#xa4;" horiz-adv-x="960" d="M297 737q0 -78 54 -130t130 -52t130 52q55 52 55 131t-56 130q-53 56 -129 56t-129 -56q-55 -53 -55 -131zM311 995q184 105 338 0l58 58l90 -90l-54 -56q50 -81 51 -172q1 -92 -55 -168l60 -59l-90 -90l-64 61q-72 -49 -166 -49t-166 47l-61 -61l-90 90l59 59 q-53 81 -53 168t51 172q-4 4 -10 9q-6 4 -10 10t-9 10l-28 29l90 90z" />
<glyph unicode="&#xa5;" horiz-adv-x="1431" d="M369 539v125h139q-61 113 -82 149l-92 166q-42 82 -105 192q-63 111 -106 191t-54 99q-12 19 -14 24h254q29 -47 71 -127t99 -187l117 -221q18 -36 52 -100t48 -92l23 -68q7 11 15 37q9 26 49 100t175 344q68 125 94 175t47 90q22 39 27 49h252l-452 -821h125v-125h-193 l-27 -50v-159h220v-125h-220v-205h-225v205h-237v125h237v159l-28 50h-209z" />
<glyph unicode="&#xa6;" horiz-adv-x="542" d="M367 727h-191v727h191v-727zM367 -485h-191v727h191v-727z" />
<glyph unicode="&#xa7;" horiz-adv-x="786" d="M475 655q37 35 40 87t-32 92q-39 39 -90 40q-49 -4 -89 -32t-40 -84q-7 -58 31 -94q33 -43 87 -43t93 34zM365 160q-8 57 -84 175q-75 119 -91 147t-38 61l-17 32l-2 5q-53 92 -33 214t99 191q27 20 63 39q45 18 74 25q-25 39 -37 63t-41 70q-43 76 -53 121t-4 86 q12 37 40 62t111 75q83 49 105 63q33 -53 54 -92t42 -65q-24 -8 -80 -46q-49 -30 -55 -62t43 -116h2l186 -309q33 -53 39 -104q22 -102 -37 -209q-57 -92 -135 -127q-35 -18 -74 -27q21 -33 46 -78q26 -45 52 -87t38 -93q24 -99 -33 -149q-18 -21 -74 -55q-55 -34 -67 -40 t-37 -21t-37 -22l-94 158l77 47q29 16 39 31q12 12 13 37z" />
<glyph unicode="&#xa8;" horiz-adv-x="770" d="M94 1084q0 50 35 83t80 33t80 -33t35 -83t-35 -83t-80 -33t-80 34q-35 32 -35 82zM483 1084q0 50 35 83t79 33t79 -34t35 -83t-35 -84q-37 -31 -80 -31t-78 34q-35 32 -35 82z" />
<glyph unicode="&#xa9;" horiz-adv-x="1290" d="M418 775q0 -46 16 -95q18 -41 51 -78q76 -72 177 -74q51 0 104 17q47 20 51 26l43 -90q-20 -13 -74 -35t-131 -22q-78 0 -143 27q-63 31 -106 73q-91 107 -91 240q0 80 29 139q23 61 74 109q41 44 106 72t130 28t118 -16t72 -31q-10 -11 -12 -17t-4 -10q-3 -4 -5 -8 l-12 -18q-2 -6 -14 -27q-45 31 -115 31q-71 0 -113 -21q-94 -33 -133 -131q-18 -43 -18 -89zM645 231q-106 0 -207 39q-201 86 -286 281q-41 98 -41 211q0 233 155 381q74 74 172 110q90 41 207 41t207 -41q201 -76 286 -278q42 -100 42 -213t-42 -210q-85 -195 -286 -282 q-101 -39 -207 -39zM645 293q188 0 332 133q135 134 135 336q0 201 -136 339q-131 132 -330 132q-198 0 -333 -133q-135 -135 -135 -337t135 -337q144 -133 332 -133z" />
<glyph unicode="&#xaa;" horiz-adv-x="880" d="M211 936q0 -86 57 -143q56 -57 146 -57t147 59q57 55 57 141t-57 143t-146 57t-147 -56q-58 -58 -57 -144zM745 1243v-616h-127v78q-4 -8 -24 -29q-79 -61 -169 -63q-91 -1 -149 26q-119 55 -167 170q-25 61 -25 127t27 121q48 118 172 176q55 27 111 27q95 0 159 -39 q25 -9 43 -31t22 -33l5 86h122z" />
<glyph unicode="&#xab;" horiz-adv-x="929" d="M436 102l-354 394q5 5 24 26q18 20 40 44t34 40q25 25 80 88t84 95q29 33 51 57t41 43v-215q-2 -2 -56 -68t-58 -74q-23 -25 -31 -36q7 -8 21 -26t40 -48q26 -32 54 -68q29 -36 30 -37v-215zM645 496l148 -179v-215l-357 394q18 18 35 39q60 60 128 139t93 104 q37 43 66 72q16 20 35 39v-213z" />
<glyph unicode="&#xac;" horiz-adv-x="1001" d="M690 307v74h-559v135h748v-209h-189z" />
<glyph unicode="&#xad;" horiz-adv-x="606" d="M113 354v183h381v-183h-381z" />
<glyph unicode="&#xae;" horiz-adv-x="1290" d="M535 780h96q64 0 106 47q27 39 27 78q0 40 -27 86q-43 43 -106 43h-96v-254zM535 680v-250h-107v703h193q111 1 181 -57t68 -165q0 -139 -106 -200q49 -78 97 -156t79 -125h-127l-160 250h-118zM645 293q188 0 332 133q135 134 135 336q0 201 -136 339q-131 132 -330 132 q-198 0 -333 -133q-135 -135 -135 -337t135 -337q144 -133 332 -133zM645 231q-106 0 -207 39q-201 86 -286 281q-41 98 -41 211q0 233 155 381q74 74 172 110q90 41 207 41t207 -41q201 -76 286 -278q42 -100 42 -213t-42 -210q-85 -195 -286 -282q-101 -39 -207 -39z" />
<glyph unicode="&#xaf;" horiz-adv-x="829" d="M176 989v119h479v-119h-479z" />
<glyph unicode="&#xb0;" horiz-adv-x="608" d="M90 1163q0 41 17 82q34 81 114 115q45 16 85 16t80 -15t71 -46q61 -61 61 -152t-60 -151q-60 -59 -151 -62q-41 0 -83 16q-77 30 -118 113q-16 43 -16 84zM307 1065q43 0 70 29q29 24 29 66t-29 71t-70 29t-69 -29t-29 -71q0 -42 29 -66q26 -29 69 -29z" />
<glyph unicode="&#xb1;" horiz-adv-x="1017" d="M883 170h-748v184h748v-184zM414 438v281h-279v182h279v285h190v-285h279v-182h-279v-281h-190z" />
<glyph unicode="&#xb2;" horiz-adv-x="692" d="M584 858v-90h-459l123 123q102 102 178 223q27 60 27 98q0 74 -43 107q-12 12 -52 29t-77 -4q-38 -21 -56 -45q-18 -23 -18 -61t9 -59t30 -51l-25 -30q-10 -8 -28 -27q-35 21 -57 71t-21 92q0 98 57 144q23 27 66 47q96 34 182 0q77 -35 112 -114q14 -47 15 -82 q1 -101 -63 -195t-138 -176h238z" />
<glyph unicode="&#xb3;" horiz-adv-x="581" d="M131 1352v90h352q-41 -72 -77 -126t-70 -116q63 -27 104 -82q41 -54 41 -112t-19 -100q-37 -81 -120 -120q-43 -16 -91 -16q-91 0 -161 74l68 63q37 -47 94 -47t96 39t39 93t-39 93t-82 39t-80 -16q23 38 70 110t80 134h-205z" />
<glyph unicode="&#xb4;" horiz-adv-x="581" d="M207 995l188 275h189l-244 -275h-133z" />
<glyph unicode="&#xb5;" horiz-adv-x="1140" d="M967 -18h-148l-20 237q-45 -102 -131 -171t-217 -68q-66 0 -115 18v-410h-172v617q-2 6 -2 31v620h174v-543q2 -59 45 -106t131 -53q66 0 113 22q47 16 86 55q78 78 80 203v422h176v-874z" />
<glyph unicode="&#xb6;" horiz-adv-x="1157" d="M594 0h-186v879q-74 1 -138 29t-102 69q-100 91 -98 239q0 72 24 134q57 123 180 180q59 27 134 26h526v-1556h-186v1376h-154v-1376z" />
<glyph unicode="&#xb7;" horiz-adv-x="454" d="M113 585q1 52 35 85q34 32 79 32t80 -32t35 -85q0 -52 -36 -83t-79 -31t-80 31q-34 31 -34 83z" />
<glyph unicode="&#xb8;" horiz-adv-x="937" d="M379 0h115v-14q0 -35 10 -47q6 -17 16 -25t20 -15t13 -10q12 -5 42 -27q64 -48 64 -150t-57 -167q-20 -29 -66 -50t-106 -21q-62 0 -127 39q-61 45 -88 122q18 8 58 30t44 24q10 -35 37 -54q25 -23 70 -23t72 34q24 35 24 77t-22 68q-22 23 -50 42t-49 40t-20 53v74z" />
<glyph unicode="&#xb9;" horiz-adv-x="374" d="M94 1358v84h148v-621h-86v537h-62z" />
<glyph unicode="&#xba;" horiz-adv-x="821" d="M209 936q0 -86 57 -143t142 -58q35 0 77 15q45 23 64 45q61 48 61 141q0 39 -16 79t-45 62q-18 23 -64 45q-43 14 -77 15q-84 1 -142 -57t-57 -144zM84 934q0 74 27 127q25 59 67 102q96 97 234 97q136 0 231 -95t95 -231q-1 -135 -95 -225q-92 -97 -227 -97 q-70 0 -130 24q-125 50 -175 169q-27 55 -27 129z" />
<glyph unicode="&#xbb;" horiz-adv-x="927" d="M494 889l354 -393l-354 -394v215l145 179l-145 178v215zM285 496l-148 180v213q18 -18 35 -39q29 -29 66 -72q26 -25 78 -86t77 -86q36 -45 101 -110l-357 -394v215q23 23 55 66q33 43 62 76q20 29 31 37z" />
<glyph unicode="&#xbc;" horiz-adv-x="1642" d="M1280 395v242l-186 -242h186zM88 1307v131h227v-959h-135v828h-92zM1421 395h150v-135h-150v-260h-141v260h-457q137 180 299 379t299 379v-623zM1145 1528l-580 -1567h-188l577 1567h191z" />
<glyph unicode="&#xbd;" horiz-adv-x="1716" d="M86 1309v129h227v-959h-135v830h-92zM1104 666q0 -92 57 -152l-78 -82q-45 25 -79 97q-33 71 -33 136q0 128 82 212q81 90 226 90t224 -93q88 -88 86 -215q0 -72 -24 -139q-32 -109 -152 -266q-98 -117 -108 -127h340v-129h-660q119 120 193 194q162 165 239 304 q39 82 39 139q0 100 -61 156q-27 25 -59 35q-121 40 -197 -52q-35 -63 -35 -108zM1153 1528l-580 -1567h-188l578 1567h190z" />
<glyph unicode="&#xbe;" horiz-adv-x="2027" d="M1665 395v242l-186 -242h186zM184 621q61 -72 150 -72t149 60q59 60 61 149q1 88 -61 143q-51 60 -127 61t-125 -24q51 94 118 191t116 192h-322v141h551q-43 -76 -116 -188q-78 -127 -113 -191q97 -39 161 -125t64 -179q0 -243 -217 -345q-146 -56 -280 4 q-68 33 -115 82q56 56 106 101zM1806 395h150v-135h-150v-260h-141v260h-457q137 180 299 379t299 379v-623zM1495 1528l-580 -1567h-188l578 1567h190z" />
<glyph unicode="&#xbf;" horiz-adv-x="974" d="M574 1108q42 0 78 -31t36 -81t-35 -84t-79 -34t-78 34t-35 84q0 50 35 81q36 31 78 31zM504 -416q-193 0 -303 119q-55 55 -86 129q-33 68 -33 170t53 191q55 86 150 155q18 14 59 43q25 14 60 47q73 69 73 164v162h189v-201q0 -114 -76 -182q-23 -25 -78 -62 q-37 -20 -90 -63q-147 -113 -148 -268q0 -90 58 -158q62 -63 166 -63t159 51t86 149l164 -61q-20 -54 -43 -104q-22 -50 -70 -101t-120 -82q-70 -35 -170 -35z" />
<glyph unicode="&#xc0;" horiz-adv-x="1325" d="M578 1845q62 -91 84 -123t102 -151h-131q-81 90 -111 125t-71 80t-62 69h189zM664 1085q-3 -34 -21 -69l-166 -402h371q-49 119 -70 173t-33 73q-6 18 -19 48t-23 56q-9 26 -15 38t-12 38q-10 25 -12 45zM1102 0l-178 426h-525l-176 -426h-221l662 1554q8 -25 45 -104 q33 -84 139 -335q107 -251 162 -382t145 -339q90 -209 116 -273t38 -89q12 -26 14 -32h-221z" />
<glyph unicode="&#xc1;" horiz-adv-x="1325" d="M567 1571l189 274h188l-244 -274h-133zM664 1085q-3 -34 -21 -69l-166 -402h371q-49 119 -70 173t-33 73q-6 18 -19 48t-23 56q-9 26 -15 38t-12 38q-10 25 -12 45zM1102 0l-178 426h-525l-176 -426h-221l662 1554q8 -25 45 -104q33 -84 139 -335q107 -251 162 -382 t145 -339q90 -209 116 -273t38 -89q12 -26 14 -32h-221z" />
<glyph unicode="&#xc2;" horiz-adv-x="1325" d="M809 1573l-119 160q-4 -4 -15 -21t-40 -54q-29 -36 -37 -52l-25 -33h-133q72 103 128 189t122 186q66 -100 122 -186t128 -189h-131zM664 1085q-3 -34 -21 -69l-166 -402h371q-49 119 -70 173t-33 73q-6 18 -19 48t-23 56q-9 26 -15 38t-12 38q-10 25 -12 45zM1102 0 l-178 426h-525l-176 -426h-221l662 1554q8 -25 45 -104q33 -84 139 -335q107 -251 162 -382t145 -339q90 -209 116 -273t38 -89q12 -26 14 -32h-221z" />
<glyph unicode="&#xc3;" horiz-adv-x="1325" d="M682 1718q57 -51 96 -51t78 19q40 28 43 75l98 -6q-8 -90 -67 -135q-51 -51 -131 -51t-154 65q-37 33 -56 43q-50 26 -116 -8q-37 -18 -43 -76l-100 6q8 92 67 138q51 51 133 51t152 -70zM664 1085q-3 -34 -21 -69l-166 -402h371q-49 119 -70 173t-33 73q-6 18 -19 48 t-23 56q-9 26 -15 38t-12 38q-10 25 -12 45zM1102 0l-178 426h-525l-176 -426h-221l662 1554q8 -25 45 -104q33 -84 139 -335q107 -251 162 -382t145 -339q90 -209 116 -273t38 -89q12 -26 14 -32h-221z" />
<glyph unicode="&#xc4;" horiz-adv-x="1325" d="M741 1699q0 50 35 84t79 34t79 -34t35 -84t-35 -82t-79 -32t-77 33q-37 31 -37 81zM352 1699q0 50 35 84t80 34t80 -34t35 -84t-37 -81q-33 -33 -78 -33t-78 33q-37 31 -37 81zM664 1085q-3 -34 -21 -69l-166 -402h371q-49 119 -70 173t-33 73q-6 18 -19 48t-23 56 q-9 26 -15 38t-12 38q-10 25 -12 45zM1102 0l-178 426h-525l-176 -426h-221l662 1554q8 -25 45 -104q33 -84 139 -335q107 -251 162 -382t145 -339q90 -209 116 -273t38 -89q12 -26 14 -32h-221z" />
<glyph unicode="&#xc5;" horiz-adv-x="1325" d="M594 1738q0 -30 20 -50t50 -20t53 20q20 24 20 50t-20 52q-27 20 -53 20t-50 -20q-20 -22 -20 -52zM477 614h371q-49 119 -70 173t-33 73q-6 18 -19 48t-23 56q-9 26 -15 38t-12 38q-10 25 -12 45q-2 -19 -8 -35t-9 -23q-2 -7 -6 -15zM489 1739q0 69 52 121q56 51 125 52 q70 1 120 -50t52 -123q0 -72 -52 -123t-105 -51q-122 0 -177 106q-15 31 -15 68zM1102 0l-178 426h-525l-176 -426h-221l662 1554q8 -25 45 -104q33 -84 139 -335q107 -251 162 -382t145 -339q90 -209 116 -273t38 -89t14 -32h-221z" />
<glyph unicode="&#xc6;" horiz-adv-x="1486" d="M635 600v393l-162 -393h162zM635 0v426h-234l-176 -426h-221l631 1485h747v-203h-538v-434h456v-207h-456v-434h567v-207h-776z" />
<glyph unicode="&#xc7;" horiz-adv-x="1306" d="M1245 1397q-7 -11 -100 -174q-108 67 -289 67q-119 0 -222 -45t-175 -119t-114 -173t-42 -207t41 -197q37 -94 111 -172q63 -72 165 -119t193 -47q194 0 338 74q33 14 39 24l94 -203q-53 -39 -158 -73q-104 -41 -262 -47q0 -27 8 -47q24 -34 46 -46q22 -11 50 -33 q62 -46 62 -144q0 -97 -55 -171q-29 -31 -70 -53q-43 -18 -105 -18t-124 39q-63 45 -90 122q26 10 43 21q19 10 35 19t24 14q10 -35 37 -54q25 -23 70 -23t71 34q26 33 25 78q0 45 -23 63q-16 20 -49 41q-33 28 -51 52t-18 75v33q-162 12 -283 78q-121 61 -210 165t-130 228 q-47 123 -47 281t59 300q119 279 410 404q139 57 313 57t318 -63q49 -25 65 -41z" />
<glyph unicode="&#xc8;" horiz-adv-x="1263" d="M639 1845q61 -91 83 -123t103 -151h-131q-82 90 -112 125t-70 80q-41 45 -61 69h188zM182 0v1485h975v-203h-749v-434h667v-207h-667v-434h778v-207h-1004z" />
<glyph unicode="&#xc9;" horiz-adv-x="1263" d="M563 1571l189 274h188l-244 -274h-133zM182 0v1485h975v-203h-749v-434h667v-207h-667v-434h778v-207h-1004z" />
<glyph unicode="&#xca;" horiz-adv-x="1263" d="M694 1733l-116 -160h-134q72 103 128 189t122 186q66 -100 122 -186t128 -189h-131zM182 0v1485h975v-203h-749v-434h667v-207h-667v-434h778v-207h-1004z" />
<glyph unicode="&#xcb;" horiz-adv-x="1263" d="M389 1699q0 50 35 84t80 34t80 -34q34 -34 34 -84t-36 -81q-33 -33 -78 -33t-78 33q-37 31 -37 81zM778 1699q0 50 35 84t79 34t79 -34t35 -84t-35 -82t-79 -32t-77 33q-37 31 -37 81zM182 0v1485h975v-203h-749v-434h667v-207h-667v-434h778v-207h-1004z" />
<glyph unicode="&#xcc;" horiz-adv-x="587" d="M211 1845q81 -119 103 -151t83 -123h-131q-82 90 -112 125t-70 80q-41 45 -61 69h188zM182 1485h224v-1485h-224v1485z" />
<glyph unicode="&#xcd;" horiz-adv-x="587" d="M195 1571l188 274h188l-243 -274h-133zM182 1485h224v-1485h-224v1485z" />
<glyph unicode="&#xce;" horiz-adv-x="587" d="M297 1733l-117 -160h-133q72 103 128 189t122 186q66 -100 122 -186t128 -189h-131q-2 2 -6 8t-10 12q-6 5 -12 17q-7 12 -32 43t-36 48q-12 18 -23 32zM182 1485h224v-1485h-224v1485z" />
<glyph unicode="&#xcf;" horiz-adv-x="587" d="M-10 1699q0 50 35 84t79 34t80 -34q35 -34 35 -84t-35 -82t-80 -32q-46 0 -80 32t-34 82zM492 1585q-44 0 -78 32q-35 32 -35 82t35 84t79 34q45 0 79 -34t34 -84t-37 -81q-33 -33 -77 -33zM182 1485h224v-1485h-224v1485z" />
<glyph unicode="&#xd0;" horiz-adv-x="1470" d="M610 213q235 0 398 135q157 144 157 389q0 256 -170 404q-78 68 -172 96q-90 33 -192 33h-211v-469h246v-150h-246v-438h190zM51 801h146v684h372q413 0 635 -244q183 -215 184 -527t-221 -519q-96 -90 -237 -146q-135 -49 -287 -49h-446v651h-146v150z" />
<glyph unicode="&#xd1;" horiz-adv-x="1665" d="M701 1669q-29 0 -65 -18t-42 -76l-100 6q8 93 67 137q51 51 133 51t152 -69q57 -51 95 -51t79 18q39 28 43 76l98 -6q-4 -82 -67 -135q-25 -25 -58 -38q-80 -31 -151 5q-39 14 -75 46t-56 44q-25 10 -53 10zM1483 1485v-1553q-25 33 -111 119l-188 189q-63 63 -254 249 q-401 391 -492 502l-39 53l7 -65v-979h-226v1554q16 -20 74 -81q61 -59 123 -125q49 -45 155 -152l173 -166q90 -84 172 -166q113 -104 155 -149l123 -123q43 -43 72 -80l39 -57l-6 69v961h223z" />
<glyph unicode="&#xd2;" horiz-adv-x="1673" d="M793 1845q81 -119 103 -151t83 -123h-131q-82 90 -112 125t-70 80q-41 45 -62 69h189zM301 739q0 -113 41 -211t116 -173t173 -117t209 -43q111 0 209 44q206 92 282 289q43 98 43 212t-41 212q-85 202 -289 291q-94 43 -206 43t-210 -43q-99 -43 -169 -117 q-158 -158 -158 -387zM298 1272q106 108 243 170q141 59 294 59t295 -59q139 -63 242 -166q223 -234 223 -535q0 -154 -59 -292t-164 -244q-106 -105 -246 -163t-292 -58q-310 0 -535 221q-221 227 -221 536q0 307 220 531z" />
<glyph unicode="&#xd3;" horiz-adv-x="1673" d="M725 1571l188 274h189l-244 -274h-133zM301 739q0 -113 41 -211t116 -173t173 -117t209 -43q111 0 209 44q206 92 282 289q43 98 43 212t-41 212q-85 202 -289 291q-94 43 -206 43t-210 -43q-99 -43 -169 -117q-158 -158 -158 -387zM298 1272q106 108 243 170 q141 59 294 59t295 -59q139 -63 242 -166q223 -234 223 -535q0 -154 -59 -292t-164 -244q-106 -105 -246 -163t-292 -58q-310 0 -535 221q-221 227 -221 536q0 307 220 531z" />
<glyph unicode="&#xd4;" horiz-adv-x="1673" d="M848 1733l-117 -160h-133q20 31 64 93q43 62 94 140t92 142q42 -64 94 -142t92 -140t64 -93h-131q-2 2 -6 8q-3 6 -9 12q-6 5 -13 17t-32 43t-32 41t-15 22t-12 17zM301 739q0 -113 41 -211t116 -173t173 -117t209 -43q111 0 209 44q206 92 282 289q43 98 43 212t-41 212 q-85 202 -289 291q-94 43 -206 43t-210 -43q-99 -43 -169 -117q-158 -158 -158 -387zM298 1272q106 108 243 170q141 59 294 59t295 -59q139 -63 242 -166q223 -234 223 -535q0 -154 -59 -292t-164 -244q-106 -105 -246 -163t-292 -58q-310 0 -535 221q-221 227 -221 536 q0 307 220 531z" />
<glyph unicode="&#xd5;" horiz-adv-x="1673" d="M708 1739q-28 -1 -65 -19t-43 -75l-100 6q7 81 65 137q67 51 143 51t144 -70q68 -60 127 -50q30 5 45 18q41 24 45 75l98 -6q-7 -77 -65 -135q-62 -51 -116 -51t-96 18t-75 48q-33 31 -57 42q-22 11 -50 11zM301 739q0 -113 41 -211t116 -173t173 -117t209 -43 q111 0 209 44q206 92 282 289q43 98 43 212t-41 212q-85 202 -289 291q-94 43 -206 43t-210 -43q-99 -43 -169 -117q-158 -158 -158 -387zM298 1272q106 108 243 170q141 59 294 59t295 -59q139 -63 242 -166q223 -234 223 -535q0 -154 -59 -292t-164 -244 q-106 -105 -246 -163t-292 -58q-310 0 -535 221q-221 227 -221 536q0 307 220 531z" />
<glyph unicode="&#xd6;" horiz-adv-x="1673" d="M537 1699q1 50 35 84t79 34t80 -34t35 -84t-37 -81q-33 -33 -78 -33t-78 33q-36 31 -36 81zM926 1699q0 50 35 84t79 34t78 -34q35 -34 35 -84t-35 -82t-79 -32t-76 33q-37 31 -37 81zM301 739q0 -113 41 -211t116 -173t173 -117t209 -43q111 0 209 44q206 92 282 289 q43 98 43 212t-41 212q-85 202 -289 291q-94 43 -206 43t-210 -43q-99 -43 -169 -117q-158 -158 -158 -387zM298 1272q106 108 243 170q141 59 294 59t295 -59q139 -63 242 -166q223 -234 223 -535q0 -154 -59 -292t-164 -244q-106 -105 -246 -163t-292 -58q-310 0 -535 221 q-221 227 -221 536q0 307 220 531z" />
<glyph unicode="&#xd7;" horiz-adv-x="911" d="M649 702l154 -161l-182 -187l188 -192l-164 -162l-192 188l-185 -186q-84 80 -159 160l186 188l-193 191l162 166l195 -195z" />
<glyph unicode="&#xd8;" horiz-adv-x="1673" d="M432 383l698 813q-143 92 -292 90q-111 0 -210 -43t-169 -117q-158 -158 -158 -373t131 -370zM840 195q111 0 209 44q206 92 282 289q43 98 43 206q0 218 -137 370l-698 -817q133 -92 301 -92zM399 123q-92 -115 -133 -156l-108 94l131 154q-98 104 -154 240 q-57 128 -57 284t57 291q57 134 163 242t243 170q141 59 295 59q230 0 434 -141l119 139l104 -96l-115 -135q102 -106 158 -240q59 -127 59 -284q0 -314 -223 -539q-106 -105 -246 -163t-290 -58q-239 0 -437 139z" />
<glyph unicode="&#xd9;" horiz-adv-x="1464" d="M680 1845q62 -91 84 -123t102 -151h-131q-81 90 -111 125t-71 80t-61 69h188zM330 134q-164 150 -164 390v961h225v-955q0 -74 25 -129t71 -110q109 -97 243 -97q75 0 134 27q55 20 111 70q100 112 98 239v955h225v-961q0 -125 -45 -221q-39 -92 -118 -172 q-176 -147 -409 -147q-232 0 -396 150z" />
<glyph unicode="&#xda;" horiz-adv-x="1464" d="M629 1571l188 274h189l-244 -274h-133zM330 134q-164 150 -164 390v961h225v-955q0 -74 25 -129t71 -110q109 -97 243 -97q75 0 134 27q55 20 111 70q100 112 98 239v955h225v-961q0 -125 -45 -221q-39 -92 -118 -172q-176 -147 -409 -147q-232 0 -396 150z" />
<glyph unicode="&#xdb;" horiz-adv-x="1464" d="M743 1778l-116 -160h-133q72 104 124 188q59 87 125 187q66 -99 122 -185t128 -190h-131zM330 134q-164 150 -164 390v961h225v-955q0 -74 25 -129t71 -110q109 -97 243 -97q75 0 134 27q55 20 111 70q100 112 98 239v955h225v-961q0 -125 -45 -221q-39 -92 -118 -172 q-176 -147 -409 -147q-232 0 -396 150z" />
<glyph unicode="&#xdc;" horiz-adv-x="1464" d="M444 1699q0 50 35 84t80 34t80 -34t35 -84t-35 -82t-80 -32t-80 32t-35 82zM947 1585q-45 0 -79 32t-34 82t34 85q35 33 79 33t79 -34t35 -84t-37 -81q-33 -33 -77 -33zM330 134q-164 150 -164 390v961h225v-955q0 -74 25 -129t71 -110q109 -97 243 -97q75 0 134 27 q55 20 111 70q100 112 98 239v955h225v-961q0 -125 -45 -221q-39 -92 -118 -172q-176 -147 -409 -147q-232 0 -396 150z" />
<glyph unicode="&#xdd;" horiz-adv-x="1343" d="M575 1571l189 274h188l-243 -274h-134zM784 0h-225v489q-32 52 -130 234q-99 182 -134 244q-35 61 -75 136l-56 105q-57 102 -101 182t-55 95h254q29 -47 70 -127t100 -187l117 -221q18 -36 52 -100t48 -92l23 -68q7 11 15 37q9 26 27 58t60 117q43 85 82 159t90 173 q51 100 77 150t56 101h252l-547 -996v-489z" />
<glyph unicode="&#xde;" horiz-adv-x="1165" d="M408 469h202q78 0 138 27q55 31 88 69q57 77 57 174q0 162 -148 236q-51 27 -133 26h-204v-532zM182 0v1454h226v-242h180q235 0 383 -122q147 -124 147 -336t-112 -340q-56 -68 -154 -112t-236 -44h-208v-258h-226z" />
<glyph unicode="&#xdf;" horiz-adv-x="1153" d="M630 164q50 0 105 20q53 27 86 60t60 86q20 55 20 106q0 109 -83 191t-189 73h-4v185q68 0 112 39q43 38 43 104t-45 110t-153 44q-208 0 -207 -318v-864h-187v686h-131v182h131v11q0 224 115 354q47 59 127 98q78 33 166 33q171 0 271 -95t100 -231q0 -68 -29 -137 q-33 -66 -94 -92q39 -8 82 -43q47 -33 78 -82q85 -111 83 -254q0 -184 -137 -315q-59 -59 -143 -99q-182 -73 -350 0q31 68 39 82l36 86q48 -20 98 -20z" />
<glyph unicode="&#xe0;" horiz-adv-x="1101" d="M379 1270q81 -120 103 -152t83 -123h-131q-82 89 -112 125t-70 80q-41 44 -62 70h189zM240 430q0 -63 22 -111q33 -97 146 -147q57 -20 111 -20t116 20q57 28 91 62q75 74 76 194q1 119 -77 199q-88 80 -206 80q-65 0 -111 -23q-46 -16 -88 -57t-58 -86q-22 -48 -22 -111 zM63 419q0 91 35 179q78 168 242 244q80 37 152 37t133 -15q99 -34 147 -86q23 -25 31 -43l8 121h168v-856h-176v109q-40 -70 -176 -115q-45 -14 -127 -14t-166 36t-144 95q-63 68 -92 141q-35 76 -35 167z" />
<glyph unicode="&#xe1;" horiz-adv-x="1101" d="M436 995l189 275h188l-244 -275h-133zM240 430q0 -63 22 -111q33 -97 146 -147q57 -20 111 -20t116 20q57 28 91 62q75 74 76 194q1 119 -77 199q-88 80 -206 80q-65 0 -111 -23q-46 -16 -88 -57t-58 -86q-22 -48 -22 -111zM63 419q0 91 35 179q78 168 242 244 q80 37 152 37t133 -15q99 -34 147 -86q23 -25 31 -43l8 121h168v-856h-176v109q-40 -70 -176 -115q-45 -14 -127 -14t-166 36t-144 95q-63 68 -92 141q-35 76 -35 167z" />
<glyph unicode="&#xe2;" horiz-adv-x="1101" d="M528 1368q28 -47 250 -375h-131q-18 26 -53 70t-48 65t-18 25q-9 -9 -26 -36q-16 -26 -33 -44q-31 -41 -37 -50l-20 -30h-133q158 234 249 375zM240 430q0 -63 22 -111q33 -97 146 -147q57 -20 111 -20t116 20q57 28 91 62q75 74 76 194q1 119 -77 199q-88 80 -206 80 q-65 0 -111 -23q-46 -16 -88 -57t-58 -86q-22 -48 -22 -111zM63 419q0 91 35 179q78 168 242 244q80 37 152 37t133 -15q99 -34 147 -86q23 -25 31 -43l8 121h168v-856h-176v109q-40 -70 -176 -115q-45 -14 -127 -14t-166 36t-144 95q-63 68 -92 141q-35 76 -35 167z" />
<glyph unicode="&#xe3;" horiz-adv-x="1101" d="M547 1079q57 -51 96 -51t78 19q40 28 43 75l98 -6q-8 -90 -67 -135q-51 -51 -131 -51t-154 65q-37 33 -56 43q-50 27 -116 -8q-37 -18 -43 -76l-100 7q8 91 67 137q51 51 133 51t152 -70zM240 430q0 -63 22 -111q33 -97 146 -147q57 -20 111 -20t116 20q57 28 91 62 q75 74 76 194q1 119 -77 199q-88 80 -206 80q-65 0 -111 -23q-46 -16 -88 -57t-58 -86q-22 -48 -22 -111zM63 419q0 91 35 179q78 168 242 244q80 37 152 37t133 -15q99 -34 147 -86q23 -25 31 -43l8 121h168v-856h-176v109q-40 -70 -176 -115q-45 -14 -127 -14t-166 36 t-144 95q-63 68 -92 141q-35 76 -35 167z" />
<glyph unicode="&#xe4;" horiz-adv-x="1101" d="M604 1083q0 49 35 83t79 34t79 -33t35 -83t-36 -83q-34 -33 -77 -33t-80 31q-35 35 -35 84zM215 1083q0 49 35 83t80 34t80 -34q34 -34 34 -83t-34 -84q-37 -31 -80 -31t-80 31q-35 35 -35 84zM240 430q0 -63 22 -111q33 -97 146 -147q57 -20 111 -20t116 20q57 28 91 62 q75 74 76 194q1 119 -77 199q-88 80 -206 80q-65 0 -111 -23q-46 -16 -88 -57t-58 -86q-22 -48 -22 -111zM63 419q0 91 35 179q78 168 242 244q80 37 152 37t133 -15q99 -34 147 -86q23 -25 31 -43l8 121h168v-856h-176v109q-40 -70 -176 -115q-45 -14 -127 -14t-166 36 t-144 95q-63 68 -92 141q-35 76 -35 167z" />
<glyph unicode="&#xe5;" horiz-adv-x="1101" d="M459 1112q0 -31 20 -51q20 -21 50 -21t53 21q20 25 20 51t-20 51q-23 21 -53 21t-50 -20t-20 -52zM533 1288q67 0 118 -51t51 -123q0 -109 -106 -162q-29 -14 -67 -14q-72 0 -124 52q-51 52 -51 121q0 68 52 126q60 51 127 51zM240 430q0 -63 22 -111q33 -97 146 -147 q57 -20 111 -20t116 20q57 28 91 62q75 74 76 194q1 119 -77 199q-88 80 -206 80q-65 0 -111 -23q-46 -16 -88 -57t-58 -86q-22 -48 -22 -111zM63 419q0 91 35 179q78 168 242 244q80 37 152 37t133 -15q99 -34 147 -86q23 -25 31 -43l8 121h168v-856h-176v109 q-40 -70 -176 -115q-45 -14 -127 -14t-166 36t-144 95q-63 68 -92 141q-35 76 -35 167z" />
<glyph unicode="&#xe6;" horiz-adv-x="1423" d="M438 352q-219 0 -219 -100t157 -100t214 67q-33 57 -45 133h-107zM990 707q-121 0 -197 -84q-33 -33 -60 -86q-20 -55 -20 -101v-14q2 -2 2 -6q10 4 51 20t65 27l123 49q66 31 119 49q97 41 103 43q-25 51 -78 76q-50 27 -108 27zM435 879q188 0 274 -99q61 49 131 72 q66 27 147 27q145 0 254 -89t154 -227q-106 -36 -280 -109t-204 -83q-31 -10 -87 -33t-85 -33q33 -68 101 -112q70 -41 149 -41q126 0 203 75l131 -127q-59 -53 -147 -87t-183 -33q-178 0 -305 114q-118 -114 -317 -112q-91 0 -147 20q-120 43 -150 137q-57 175 78 283 q75 59 188 59h201q12 82 53 164q-43 61 -184 61t-242 -63l-72 135q151 101 339 101z" />
<glyph unicode="&#xe7;" horiz-adv-x="851" d="M692 -296q0 -94 -57 -159q-19 -29 -65 -50t-108 -21t-126 39q-61 45 -88 122q18 8 58 30t44 24q10 -35 37 -54q25 -23 70 -23t71 34q25 35 25 79t-23 62q-14 16 -47 41t-49 49q-23 27 -22 78v37q-68 16 -140 57q-68 45 -110 99q-100 129 -99 282q0 88 36 173t98 142 q59 59 143 99q88 35 178 35q163 0 291 -99l-113 -133q-66 58 -155 59t-135 -22q-45 -16 -91 -57q-77 -77 -77 -196q0 -184 168 -259q57 -20 112 -20q108 0 178 59l107 -133q-113 -92 -277 -98q0 -44 31 -70q24 -16 29 -21q12 -5 42 -27t48 -63q16 -45 16 -95z" />
<glyph unicode="&#xe8;" horiz-adv-x="948" d="M342 1270q80 -120 102 -152t84 -123h-131q-81 89 -111 125t-71 80t-61 70h188zM514 707q-120 0 -197 -84q-33 -33 -59 -86q-20 -55 -20 -101v-14q2 -2 2 -6q10 4 51 20t65 27l123 49q66 31 119 49q98 41 102 43q-24 51 -76 77t-110 26zM514 152q126 0 203 75l131 -127 q-60 -53 -148 -87q-184 -71 -353 0q-170 70 -249 241q-35 86 -35 174t36 172q71 165 241 244q82 35 172 35q145 0 254 -89t154 -227q-106 -36 -280 -109t-204 -83q-31 -10 -87 -33t-85 -33q33 -68 101 -112q70 -41 149 -41z" />
<glyph unicode="&#xe9;" horiz-adv-x="948" d="M387 995l188 275h189l-244 -275h-133zM514 707q-120 0 -197 -84q-33 -33 -59 -86q-20 -55 -20 -101v-14q2 -2 2 -6q10 4 51 20t65 27l123 49q66 31 119 49q98 41 102 43q-24 51 -76 77t-110 26zM514 152q126 0 203 75l131 -127q-60 -53 -148 -87q-184 -71 -353 0 q-170 70 -249 241q-35 86 -35 174t36 172q71 165 241 244q82 35 172 35q145 0 254 -89t154 -227q-106 -36 -280 -109t-204 -83q-31 -10 -87 -33t-85 -33q33 -68 101 -112q70 -41 149 -41z" />
<glyph unicode="&#xea;" horiz-adv-x="948" d="M580 995l-119 160q-4 -4 -15 -21t-41 -54q-29 -36 -36 -52q-9 -9 -25 -33h-133q72 104 125 189q59 86 125 186q66 -100 125 -186q53 -84 125 -189h-131zM514 707q-120 0 -197 -84q-33 -33 -59 -86q-20 -55 -20 -101v-14q2 -2 2 -6q10 4 51 20t65 27l123 49q66 31 119 49 q98 41 102 43q-24 51 -76 77t-110 26zM514 152q126 0 203 75l131 -127q-60 -53 -148 -87q-184 -71 -353 0q-170 70 -249 241q-35 86 -35 174t36 172q71 165 241 244q82 35 172 35q145 0 254 -89t154 -227q-106 -36 -280 -109t-204 -83q-31 -10 -87 -33t-85 -33 q33 -68 101 -112q70 -41 149 -41z" />
<glyph unicode="&#xeb;" horiz-adv-x="948" d="M166 1083q0 49 35 83t80 34t79 -34t35 -83q0 -49 -35 -84q-38 -31 -80 -31t-79 31q-35 35 -35 84zM555 1083q0 49 35 83t79 34t76 -33q37 -33 37 -83t-35 -83t-77 -33t-80 31q-35 35 -35 84zM514 707q-120 0 -197 -84q-33 -33 -59 -86q-20 -55 -20 -101v-14q2 -2 2 -6 q10 4 51 20t65 27l123 49q66 31 119 49q98 41 102 43q-24 51 -76 77t-110 26zM514 152q126 0 203 75l131 -127q-60 -53 -148 -87q-184 -71 -353 0q-170 70 -249 241q-35 86 -35 174t36 172q71 165 241 244q82 35 172 35q145 0 254 -89t154 -227q-106 -36 -280 -109t-204 -83 q-31 -10 -87 -33t-85 -33q33 -68 101 -112q70 -41 149 -41z" />
<glyph unicode="&#xec;" horiz-adv-x="419" d="M106 1270q61 -90 84 -122t103 -153h-131q-82 89 -112 125t-70 80q-41 44 -62 70h188zM297 0h-174v856h174v-856z" />
<glyph unicode="&#xed;" horiz-adv-x="419" d="M125 995l188 275h189l-244 -275h-133zM297 0h-174v856h174v-856z" />
<glyph unicode="&#xee;" horiz-adv-x="419" d="M213 1155l-117 -160h-133q20 31 91 136t159 239q41 -63 93 -141t94 -139q40 -61 63 -95h-131l-6 9t-10 12t-12 17q-7 11 -32 42t-39 52q-14 22 -20 28zM297 0h-174v856h174v-856z" />
<glyph unicode="&#xef;" horiz-adv-x="419" d="M139 1084q0 -50 -35 -83q-36 -33 -80 -33t-79 34q-35 32 -35 82t35 83t80 33t77 -33q37 -33 37 -83zM299 1084q0 50 35 83t79 33t79 -34q34 -34 34 -83t-34 -84q-37 -31 -79 -31t-78 34q-36 32 -36 82zM297 0h-174v856h174v-856z" />
<glyph unicode="&#xf0;" horiz-adv-x="1042" d="M238 428q0 -51 20 -109q27 -55 61 -86q31 -35 87 -61q57 -20 108 -20t109 20q108 51 149 147q23 55 23 109q0 114 -82 199q-45 41 -90 57q-47 23 -109 23t-108 -23q-97 -35 -148 -147q-20 -58 -20 -109zM971 440v-10q0 -86 -33 -174q-74 -169 -243 -242t-355 -2 q-166 69 -242 234q-35 88 -35 180t36 177t98 142q59 59 143 99q88 35 183 35t182 -39q-70 208 -224 409l-121 -131q-45 41 -102 92l139 150q-113 127 -209 207l105 96q115 -88 207 -190q8 10 18 20q10 9 22 23t30 32q20 18 46 54l103 -91l-131 -145q61 -78 145 -211 q143 -242 205 -479q33 -119 33 -236z" />
<glyph unicode="&#xf1;" horiz-adv-x="1042" d="M588 1126q57 -51 96 -51t78 19q38 33 43 75l98 -6q-4 -82 -67 -135q-52 -51 -132 -51q-40 0 -77 18q-39 14 -75 46t-56 44q-58 23 -117 -8q-37 -18 -43 -76l-100 7q8 91 67 137q51 51 134 51t151 -70zM641 879q127 0 206 -72t81 -184v-623h-176v543q-2 61 -45 110 t-113 51t-129 -20q-112 -53 -146 -147q-23 -47 -22 -113v-424h-174v856h153l7 -115q4 -39 8 -104q47 113 135 177t215 65z" />
<glyph unicode="&#xf2;" horiz-adv-x="1034" d="M371 1270q81 -120 103 -152t83 -123h-131q-82 89 -112 125t-70 80q-41 44 -62 70h189zM238 428q0 -51 20 -109q27 -55 61 -86q31 -35 87 -61q57 -20 108 -20t109 20q108 51 149 147q23 55 23 109q0 114 -82 199q-45 41 -90 57q-47 23 -109 23t-108 -23q-97 -35 -148 -147 q-20 -58 -20 -109zM63 426q0 92 36 177t98 142q59 59 143 99q88 35 180 35t180 -35q166 -77 238 -240q33 -88 33 -174t-33 -174q-74 -169 -243 -242t-355 -2q-166 69 -242 234q-35 88 -35 180z" />
<glyph unicode="&#xf3;" horiz-adv-x="1034" d="M514 995l188 275h189l-244 -275h-133zM238 428q0 -51 20 -109q27 -55 61 -86q31 -35 87 -61q57 -20 108 -20t109 20q108 51 149 147q23 55 23 109q0 114 -82 199q-45 41 -90 57q-47 23 -109 23t-108 -23q-97 -35 -148 -147q-20 -58 -20 -109zM63 426q0 92 36 177t98 142 q59 59 143 99q88 35 180 35t180 -35q166 -77 238 -240q33 -88 33 -174t-33 -174q-74 -169 -243 -242t-355 -2q-166 69 -242 234q-35 88 -35 180z" />
<glyph unicode="&#xf4;" horiz-adv-x="1034" d="M637 995l-119 160q-9 -9 -22 -29q-12 -20 -37 -51t-33 -47l-25 -33h-133q72 104 125 189q59 86 125 186q66 -100 125 -186q53 -84 125 -189h-131zM238 428q0 -51 20 -109q27 -55 61 -86q31 -35 87 -61q57 -20 108 -20t109 20q108 51 149 147q23 55 23 109q0 114 -82 199 q-45 41 -90 57q-47 23 -109 23t-108 -23q-97 -35 -148 -147q-20 -58 -20 -109zM63 426q0 92 36 177t98 142q59 59 143 99q88 35 180 35t180 -35q166 -77 238 -240q33 -88 33 -174t-33 -174q-74 -169 -243 -242t-355 -2q-166 69 -242 234q-35 88 -35 180z" />
<glyph unicode="&#xf5;" horiz-adv-x="1034" d="M555 1079q57 -51 96 -51t78 19q40 28 43 75l98 -6q-8 -90 -67 -135q-51 -51 -131 -51t-154 65q-37 33 -56 43q-50 26 -116 -8q-37 -18 -43 -76l-100 7q8 91 67 137q51 51 133 51t152 -70zM238 428q0 -51 20 -109q27 -55 61 -86q31 -35 87 -61q57 -20 108 -20t109 20 q108 51 149 147q23 55 23 109q0 114 -82 199q-45 41 -90 57q-47 23 -109 23t-108 -23q-97 -35 -148 -147q-20 -58 -20 -109zM63 426q0 92 36 177t98 142q59 59 143 99q88 35 180 35t180 -35q166 -77 238 -240q33 -88 33 -174t-33 -174q-74 -169 -243 -242t-355 -2 q-166 69 -242 234q-35 88 -35 180z" />
<glyph unicode="&#xf6;" horiz-adv-x="1034" d="M238 1084q0 50 34 83t80 33q45 0 80 -33t35 -83t-35 -83t-80 -33q-46 0 -80 34q-34 32 -34 82zM627 1084q0 50 35 83q34 33 78 33t79 -34t35 -83t-35 -84q-37 -31 -80 -31t-77 34q-34 32 -35 82zM238 428q0 -51 20 -109q27 -55 61 -86q31 -35 87 -61q57 -20 108 -20 t109 20q108 51 149 147q23 55 23 109q0 114 -82 199q-45 41 -90 57q-47 23 -109 23t-108 -23q-97 -35 -148 -147q-20 -58 -20 -109zM63 426q0 92 36 177t98 142q59 59 143 99q88 35 180 35t180 -35q166 -77 238 -240q33 -88 33 -174t-33 -174q-74 -169 -243 -242t-355 -2 q-166 69 -242 234q-35 88 -35 180z" />
<glyph unicode="&#xf7;" horiz-adv-x="944" d="M592 215q0 -49 -36 -80t-79 -31t-77 31t-35 81q0 50 36 87q37 33 77 33t79 -33q35 -39 35 -88zM592 821q0 -49 -35 -81t-79 -32t-78 32t-35 82q0 50 36 87q37 33 77 33t79 -33q35 -39 35 -88zM848 428h-748v180h748v-180z" />
<glyph unicode="&#xf8;" horiz-adv-x="1034" d="M238 412q0 -68 47 -140q83 98 145 167t209 239q-63 29 -125 29t-108 -23q-97 -35 -148 -147q-20 -57 -20 -125zM731 604l-362 -414q113 -67 254 -18q53 25 90 61q82 82 82 184t-64 187zM63 430q0 88 36 173t98 142q59 59 143 99q88 35 197 35t221 -66q35 43 49 55l33 41 l92 -73l-84 -97q123 -131 123 -309q0 -86 -33 -174q-74 -169 -238 -240q-86 -37 -182 -36q-152 0 -266 77l-96 -110l-86 80l96 110q-103 125 -103 293z" />
<glyph unicode="&#xf9;" horiz-adv-x="1040" d="M401 1270q61 -90 84 -122t103 -153h-131q-81 89 -111 125t-72 80t-61 70h188zM920 -18h-148l-20 237q-44 -102 -130 -171q-86 -68 -218 -68t-210 72t-79 184v620h174v-543q2 -61 47 -108q39 -45 129 -51q66 0 113 22q97 33 145 146q20 49 20 112v422h177v-874z" />
<glyph unicode="&#xfa;" horiz-adv-x="1040" d="M412 995l188 275h188l-243 -275h-133zM920 -18h-148l-20 237q-44 -102 -130 -171q-86 -68 -218 -68t-210 72t-79 184v620h174v-543q2 -61 47 -108q39 -45 129 -51q66 0 113 22q97 33 145 146q20 49 20 112v422h177v-874z" />
<glyph unicode="&#xfb;" horiz-adv-x="1040" d="M487 1155l-116 -160h-133q47 64 128 188q80 124 121 187q83 -127 156 -234q74 -107 94 -141h-131zM920 -18h-148l-20 237q-44 -102 -130 -171q-86 -68 -218 -68t-210 72t-79 184v620h174v-543q2 -61 47 -108q39 -45 129 -51q66 0 113 22q97 33 145 146q20 49 20 112v422 h177v-874z" />
<glyph unicode="&#xfc;" horiz-adv-x="1042" d="M184 1084q0 50 35 83t80 33t80 -33t35 -83t-35 -83t-80 -33t-80 34q-35 32 -35 82zM573 1084q0 50 35 83t79 33t79 -34t35 -83t-35 -84q-37 -31 -80 -31t-78 34q-35 32 -35 82zM920 -18h-148l-20 237q-44 -102 -130 -171q-86 -68 -218 -68t-210 72t-79 184v620h174v-543 q2 -61 47 -108q39 -45 129 -51q66 0 113 22q97 33 145 146q20 49 20 112v422h177v-874z" />
<glyph unicode="&#xfd;" horiz-adv-x="978" d="M418 995l188 275h189l-244 -275h-133zM489 219q71 212 289 637h191l-611 -1268h-176q37 78 56 113l49 111q10 24 29 68q20 44 26 55t26 55t31 69q-80 160 -95 192q-16 31 -32 65q-33 67 -79 168q-47 101 -87 178q-31 68 -94 194h191q83 -162 111 -224t69 -144 q41 -83 106 -269z" />
<glyph unicode="&#xfe;" horiz-adv-x="1105" d="M848 430q0 117 -72 197q-37 39 -84 57q-45 23 -109 23q-179 0 -264 -166q-20 -57 -20 -111t20 -111q25 -53 58 -86t90 -61q61 -20 115 -20t110 20q101 53 137 147q19 54 19 111zM913 106q-57 -57 -143 -92q-138 -56 -278 -22q-91 18 -152 74q-27 20 -43 47q0 -14 2 -23 v-502h-176v2003h176v-860q14 25 45 51q27 27 66 45q75 50 181 51q191 2 327 -120q120 -133 120 -330t-125 -322z" />
<glyph unicode="&#xff;" horiz-adv-x="980" d="M162 1083q0 49 35 83t80 34t79 -34t35 -83q0 -49 -35 -84q-38 -31 -80 -31t-79 31q-35 35 -35 84zM551 1083q0 49 35 83t79 34t76 -33q37 -33 37 -83t-35 -83t-77 -33t-80 31q-35 35 -35 84zM489 219q71 212 289 637h191l-611 -1268h-176q37 78 56 113l49 111 q10 24 29 68q20 44 26 55t26 55t31 69q-80 160 -95 192q-16 31 -32 65q-33 67 -79 168q-47 101 -87 178q-31 68 -94 194h191q83 -162 111 -224t69 -144q41 -83 106 -269z" />
<glyph unicode="&#x131;" horiz-adv-x="419" d="M297 0h-174v856h174v-856z" />
<glyph unicode="&#x152;" horiz-adv-x="1959" d="M940 1276q-82 10 -102 10q-111 0 -210 -43t-169 -117q-158 -158 -158 -387q1 -227 159 -385t380 -159q34 0 100 8v1073zM298 1272q106 108 243 170q141 59 295 59q68 0 149 -16h868v-203h-690v-434h606v-207h-606v-434h719v-207h-891q-66 -16 -187 -16q-122 0 -259 57 t-246 164q-221 227 -221 536q0 307 220 531z" />
<glyph unicode="&#x153;" horiz-adv-x="1458" d="M1026 707q-123 0 -199 -84q-41 -41 -57 -86q-22 -45 -22 -79t2 -36v-6q50 17 114 47q43 16 125 49q66 31 119 49q98 41 102 43q-24 51 -76 77t-108 26zM573 423q0 132 74 251q-63 33 -129 33t-112 -23q-97 -35 -148 -147q-20 -57 -20 -109t20 -109q27 -55 61 -86 q31 -35 87 -61q56 -20 120 -20t121 30q-74 109 -74 241zM1012 152q140 0 215 75l131 -127q-60 -53 -148 -87t-182 -33q-145 0 -254 75q-106 -76 -256 -75q-193 0 -321 124q-59 55 -99 142q-35 88 -35 180t36 177t98 142q59 59 143 99q88 35 180 35q139 0 254 -76 q115 74 256 75q142 1 244 -87q109 -84 156 -228q-106 -36 -282 -110t-204 -83q-29 -9 -85 -32t-85 -33q33 -69 101 -111t137 -42z" />
<glyph unicode="&#x2c6;" horiz-adv-x="921" d="M600 995l-119 160q-9 -9 -22 -29q-12 -20 -37 -51t-33 -47l-24 -33h-134q72 104 125 189q59 86 125 186q66 -100 125 -186q53 -84 125 -189h-131z" />
<glyph unicode="&#x2da;" horiz-adv-x="1064" d="M573 1288q68 0 119 -51t51 -123q0 -109 -106 -162q-29 -14 -67 -14q-71 0 -123 52t-52 119t51 128q59 51 127 51zM500 1112q0 -31 20 -51q20 -21 50 -21t53 21q20 25 20 51t-20 51q-23 21 -53 21t-50 -20t-20 -52z" />
<glyph unicode="&#x2dc;" horiz-adv-x="1224" d="M680 1126q57 -51 104 -51q46 0 68 19q41 24 45 75l98 -6q-7 -80 -65 -135q-62 -51 -116 -51t-96 17t-75 48t-57 42q-53 25 -115 -7q-37 -18 -43 -76l-100 7q7 79 65 137q67 51 143 51t144 -70z" />
<glyph unicode="&#x60c;" horiz-adv-x="493" d="M406 122q0 -54 -35 -88t-97 -34t-95 56q-32 56 -32 135q-1 79 47 173t164 164l56 -73q-72 -41 -109 -105t-31 -114q48 6 90 -27t42 -87z" />
<glyph unicode="&#x61b;" horiz-adv-x="339" d="M297 389q0 -55 -35 -88t-86 -33q-74 -2 -106 54t-31 136q0 79 47 173t164 166l55 -76q-73 -41 -109 -105t-30 -112q47 6 89 -27t42 -88zM51 0q0 49 35 84t84 35t84 -35t35 -84t-35 -84t-84 -35t-84 35t-35 84z" />
<glyph unicode="&#x61f;" horiz-adv-x="970" d="M457 108q0 50 35 84q34 34 78 34t79 -34t35 -84t-35 -81t-78 -31t-79 31q-35 31 -35 81zM662 340h-189v162q0 134 -137 214q-29 17 -55 40q-203 152 -203 360q0 166 119 285q109 119 297 119q96 0 176 -33q135 -67 190 -185q24 -52 43 -104l-164 -61q-36 111 -84 149 q-55 51 -160 51q-106 0 -167 -63q-57 -68 -58 -158q0 -154 148 -268q14 -10 90 -66q88 -47 133 -131q20 -41 21 -110v-201z" />
<glyph unicode="&#x621;" horiz-adv-x="1064" d="M324 205v33q-2 158 73 261q76 103 195 103q199 0 246 -164q-78 47 -144 47t-108 -38q-43 -37 -43 -109t52 -102t118 -31h301l-123 -205h-840l123 205h150z" />
<glyph unicode="&#x622;" horiz-adv-x="450" d="M256 164q0 -64 78 -68t117 23q-16 -55 -81 -91t-136 -38q-70 -2 -126 43t-57 131v1429l205 45v-1474zM-66 1774v114l103 17v-62h352q41 0 55 33l78 -135h-488q-17 -108 -157 -78q29 5 42 23t14 32t1 56z" />
<glyph unicode="&#x623;" horiz-adv-x="450" d="M244 2085q94 0 129 -82q-65 33 -127 17t-62 -86q0 -69 46 -83q32 -8 81 -8h150l-62 -102h-491l61 102h89q4 242 186 242zM256 164q0 -64 78 -68t117 23q-16 -55 -81 -91t-136 -38q-70 -2 -126 43t-57 131v1429l205 45v-1474z" />
<glyph unicode="&#x624;" horiz-adv-x="710" d="M416 1163q94 0 129 -82q-65 33 -127 17t-62 -86t46 -82q32 -8 81 -8h150l-62 -103h-491l61 103h89q1 57 12 100q39 141 174 141zM425 614q184 0 234 95v-795q-1 -129 -73 -208t-168 -94q-96 -14 -194 16t-148 102q211 -57 295 -1t84 165v122q-47 -16 -101 -16 q-125 0 -214 90t-89 217t89 217t214 90h71zM254 307q0 -43 30 -73t72 -30t73 30q30 30 30 73t-30 73t-73 30q-42 0 -72 -30t-30 -73z" />
<glyph unicode="&#x625;" horiz-adv-x="450" d="M246 -168q-62 -16 -62 -85t46 -83q32 -8 81 -8h150l-62 -102h-491l61 102h89q4 241 186 242q94 0 129 -82q-65 32 -127 16zM256 164q0 -64 78 -68t117 23q-16 -55 -81 -91t-136 -38q-70 -2 -126 43t-57 131v1429l205 45v-1474z" />
<glyph unicode="&#x626;" horiz-adv-x="1484" d="M332 102h149l-61 -102h-492l62 102h88q4 242 186 242q94 0 129 -82q-65 33 -127 17t-62 -86t42 -81q41 -10 86 -10zM362 -205h325l-355 621q-203 350 125 594q53 39 75 57q57 47 58 143l573 -1000q70 18 99 77l172 -287h-385l-486 840q-76 -43 -92 -133t39 -191l528 -926 h-987l172 287q19 -39 59 -61t80 -21z" />
<glyph unicode="&#x627;" horiz-adv-x="450" d="M256 164q0 -64 78 -68t117 23q-16 -55 -81 -91t-136 -38q-70 -2 -126 43t-57 131v1429l205 45v-1474z" />
<glyph unicode="&#x628;" horiz-adv-x="1740" d="M721 -307q0 49 35 84t84 35t84 -35q34 -35 34 -84t-34 -84t-84 -35q-49 0 -84 35t-35 84zM1690 47q0 -51 -82 -47h-1557l123 205h1311v364l205 45v-567z" />
<glyph unicode="&#x629;" horiz-adv-x="710" d="M94 922q0 49 35 84q35 34 84 34t84 -34t35 -84q0 -49 -35 -84t-84 -35t-84 35t-35 84zM94 1270q0 49 35 84t84 35t84 -35t35 -84t-35 -84t-84 -35t-84 35t-35 84zM455 655v260l204 99v-248q-27 -49 -84 -78t-120 -33zM455 956v637l204 45v-583zM425 614q184 0 234 95 v-402q0 -127 -89 -217t-215 -90t-215 90t-89 217t89 217t214 90h71zM254 307q0 -43 30 -73t72 -30t73 30q30 30 30 73t-30 73t-73 30q-42 0 -72 -30t-30 -73z" />
<glyph unicode="&#x62a;" horiz-adv-x="1740" d="M551 799q0 49 35 84t84 35t84 -35q34 -35 34 -84t-34 -84t-84 -35q-49 0 -84 35t-35 84zM905 799q0 49 35 84t84 35t84 -35t35 -84t-35 -84t-84 -35t-84 35t-35 84zM1690 47q0 -51 -82 -47h-1557l123 205h1311v364l205 45v-567z" />
<glyph unicode="&#x62b;" horiz-adv-x="1740" d="M905 799q0 49 35 84t84 35t84 -35t35 -84t-35 -84t-84 -35t-84 35t-35 84zM551 799q0 49 35 84t84 35t84 -35q34 -35 34 -84t-34 -84t-84 -35q-49 0 -84 35t-35 84zM721 1106q0 49 35 84t84 35t84 -35q34 -35 34 -84t-34 -84t-84 -35q-49 0 -84 35t-35 84zM1690 47 q0 -51 -82 -47h-1557l123 205h1311v364l205 45v-567z" />
<glyph unicode="&#x62c;" horiz-adv-x="1054" d="M342 -164q0 49 35 84t84 35t84 -35t35 -84t-35 -84t-84 -35t-84 35t-35 84zM637 205h367l-123 -205h-475q-44 0 -96 -45t-52 -113t59 -112t143 -54q175 -20 300 23q-70 -82 -222 -114q-283 -59 -423 111q-64 76 -64 186t51 176t140 116q-85 57 -191 221l115 219 q113 -178 242 -294t229 -115z" />
<glyph unicode="&#x62d;" horiz-adv-x="1054" d="M637 205h367l-123 -205h-475q-44 0 -96 -45t-52 -113t59 -112t143 -54q175 -20 300 23q-70 -82 -222 -114q-283 -59 -423 111q-64 76 -64 186t51 176t140 116q-85 57 -191 221l115 219q113 -178 242 -294t229 -115z" />
<glyph unicode="&#x62e;" horiz-adv-x="1054" d="M188 1024q0 49 35 84t84 35t84 -35t35 -84t-35 -84t-84 -35t-84 35t-35 84zM637 205h367l-123 -205h-475q-44 0 -96 -45t-52 -113t59 -112t143 -54q175 -20 300 23q-70 -82 -222 -114q-283 -59 -423 111q-64 76 -64 186t51 176t140 116q-85 57 -191 221l115 219 q113 -178 242 -294t229 -115z" />
<glyph unicode="&#x62f;" horiz-adv-x="1781" d="M1341 614q72 0 129 -12q211 -45 250 -272q10 -63 11 -283q0 -51 -82 -47h-1598l123 205h1352q2 96 -38 150t-147 55h-1065l271 450l20 -14l-106 -232h880z" />
<glyph unicode="&#x630;" horiz-adv-x="1781" d="M772 1024q0 49 35 84t84 35t84 -35t35 -84t-35 -84t-84 -35t-84 35t-35 84zM1341 614q72 0 129 -12q211 -45 250 -272q10 -63 11 -283q0 -51 -82 -47h-1598l123 205h1352q2 96 -38 150t-147 55h-1065l271 450l20 -14l-106 -232h880z" />
<glyph unicode="&#x631;" horiz-adv-x="460" d="M410 -123q0 -129 -73 -208t-169 -94t-194 15t-148 103q211 -57 295 -1t84 165v712l205 45v-737z" />
<glyph unicode="&#x632;" horiz-adv-x="460" d="M188 1024q0 49 35 84t84 35t84 -35t35 -84t-35 -84t-84 -35t-84 35t-35 84zM410 -123q0 -129 -73 -208t-169 -94t-194 15t-148 103q211 -57 295 -1t84 165v712l205 45v-737z" />
<glyph unicode="&#x633;" horiz-adv-x="1781" d="M442 -410q-94 0 -168 31t-114 76q-108 121 -109 303q0 127 76 242t182 182q10 -80 -41 -148q33 -16 50 -50t10 -68q-56 32 -106 26t-80 -61t-29 -123q0 -293 329 -293q147 0 206 95q58 95 59 280v487l204 45v-409h205v364l205 45v-409h205v364l205 45v-567q0 -51 -82 -47 h-738q-2 -180 -124 -295t-345 -115z" />
<glyph unicode="&#x634;" horiz-adv-x="1781" d="M1274 1126q0 49 35 84t84 35t84 -35t35 -84t-36 -84q-34 -34 -83 -34t-84 34t-35 84zM920 1126q0 49 34 84q35 35 84 35t84 -35t35 -84t-35 -84q-35 -34 -84 -34t-84 34q-34 35 -34 84zM1090 1434q0 49 34 84q35 34 84 34t84 -34t35 -84q0 -49 -35 -84t-84 -35t-84 35 q-34 35 -34 84zM442 -410q-94 0 -168 31t-114 76q-108 121 -109 303q0 127 76 242t182 182q10 -80 -41 -148q33 -16 50 -50t10 -68q-56 32 -106 26t-80 -61t-29 -123q0 -293 329 -293q147 0 206 95q58 95 59 280v487l204 45v-409h205v364l205 45v-409h205v364l205 45v-567 q0 -51 -82 -47h-738q-2 -180 -124 -295t-345 -115z" />
<glyph unicode="&#x635;" horiz-adv-x="2396" d="M911 410v-205h1229q2 96 -38 150t-146 55h-1045zM442 -410q-94 0 -168 31t-114 76q-108 121 -109 303q0 127 76 242t182 182q10 -80 -41 -148q33 -16 50 -50t10 -68q-56 32 -106 26t-80 -61t-29 -123q0 -293 329 -293q147 0 206 95q58 95 59 280v692l204 45v-205h1045 q72 0 129 -12q211 -45 250 -272q10 -63 10 -283q0 -51 -82 -47h-1352q-2 -180 -124 -295t-345 -115z" />
<glyph unicode="&#x636;" horiz-adv-x="2396" d="M1305 1126q0 49 34 84q35 35 84 35t84 -35t35 -84t-35 -84q-35 -34 -84 -34t-84 34q-34 35 -34 84zM911 410v-205h1229q2 96 -38 150t-146 55h-1045zM442 -410q-94 0 -168 31t-114 76q-108 121 -109 303q0 127 76 242t182 182q10 -80 -41 -148q33 -16 50 -50t10 -68 q-56 32 -106 26t-80 -61t-29 -123q0 -293 329 -293q147 0 206 95q58 95 59 280v692l204 45v-205h1045q72 0 129 -12q211 -45 250 -272q10 -63 10 -283q0 -51 -82 -47h-1352q-2 -180 -124 -295t-345 -115z" />
<glyph unicode="&#x637;" horiz-adv-x="2068" d="M379 205v1388l205 45v-1024h1044q72 0 129 -12q211 -45 250 -272q10 -63 10 -283q0 -51 -82 -47h-1884l123 205h205zM584 410v-205h1228q2 96 -37 150q-40 54 -147 55h-1044z" />
<glyph unicode="&#x638;" horiz-adv-x="2068" d="M977 1126q0 49 35 84t84 35t84 -35q34 -35 34 -84t-34 -84q-34 -34 -84 -34q-49 0 -84 34t-35 84zM379 205v1388l205 45v-1024h1044q72 0 129 -12q211 -45 250 -272q10 -63 10 -283q0 -51 -82 -47h-1884l123 205h205zM584 410v-205h1228q2 96 -37 150q-40 54 -147 55 h-1044z" />
<glyph unicode="&#x639;" horiz-adv-x="757" d="M51 -116q0 110 92 202q-74 60 -90 154t16 176t101 140q70 58 151 58t143 -41t95 -114q-92 80 -190 61q-51 -8 -88 -50t-37 -104t57 -112q57 -49 125 -49h270l-123 -205h-167q-44 0 -96 -45t-52 -113t58 -112t142 -54q175 -20 300 23q-70 -82 -221 -114q-283 -59 -423 111 q-64 78 -63 188z" />
<glyph unicode="&#x63a;" horiz-adv-x="757" d="M199 1024q0 49 34 84q35 35 84 35t84 -35t35 -84t-35 -84t-84 -35t-84 35q-34 35 -34 84zM51 -116q0 110 92 202q-74 60 -90 154t16 176t101 140q70 58 151 58t143 -41t95 -114q-92 80 -190 61q-51 -8 -88 -50t-37 -104t57 -112q57 -49 125 -49h270l-123 -205h-167 q-44 0 -96 -45t-52 -113t58 -112t142 -54q175 -20 300 23q-70 -82 -221 -114q-283 -59 -423 111q-64 78 -63 188z" />
<glyph unicode="&#x640;" horiz-adv-x="614" d="M655 205v-205h-696v205h696z" />
<glyph unicode="&#x641;" horiz-adv-x="1740" d="M1264 1229q0 49 34 84q35 35 84 35t84 -35t35 -84t-35 -84t-84 -35t-84 35q-34 35 -34 84zM1081 614q0 127 89 217q89 91 215 91q125 0 215 -90t90 -218v-567q0 -51 -82 -47h-1557l123 205h1311v118q-47 -16 -101 -16q-125 0 -214 90t-89 217zM1280 614q0 -44 31 -74 t73 -30t75 31q32 31 32 73t-32 74q-32 31 -75 31q-44 0 -74 -31t-30 -74z" />
<glyph unicode="&#x642;" horiz-adv-x="1054" d="M408 1024q0 49 34 84q35 35 84 35t84 -35t35 -84t-35 -84t-84 -35t-84 35q-34 35 -34 84zM762 1024q0 49 35 84t84 35t84 -35t35 -84t-36 -84q-34 -35 -83 -35t-84 35t-35 84zM395 307q0 127 89 217t215 90t215 -90t90 -217v-205q0 -112 -35 -216q-35 -106 -84 -168 t-149 -110t-232 -48q-217 0 -335 134t-118 296q0 266 168 416q12 -98 -26 -150q27 2 57 -17t41 -69q-80 12 -121 -14q-57 -37 -57 -163t104 -211q103 -85 273 -85q170 1 239 77t70 242q-46 -16 -99 -16q-127 0 -216 90t-89 217zM598 307q0 -43 30 -73t72 -30t73 30 q30 30 30 73t-30 73t-73 30q-42 0 -72 -30t-30 -73z" />
<glyph unicode="&#x643;" horiz-adv-x="2068" d="M1628 614q72 0 129 -12q211 -45 250 -272q10 -63 10 -283q0 -51 -82 -47h-1884l123 205h1638q2 96 -37 150q-40 54 -147 55h-1290l862 852v-379q-23 41 -53 10l-284 -279h765z" />
<glyph unicode="&#x644;" horiz-adv-x="962" d="M911 0q0 -180 -123 -295t-346 -115q-94 0 -168 31t-114 76q-108 121 -109 303q0 127 76 242t182 182q10 -80 -41 -148q33 -16 50 -50t10 -68q-56 32 -106 26t-80 -61t-29 -123q0 -293 329 -293q147 0 206 95q58 95 59 280v1511l204 45v-1638z" />
<glyph unicode="&#x645;" horiz-adv-x="1255" d="M799 307q-1 -43 29 -73t73 -30t73 30t30 73t-30 73t-73 30t-73 -30t-29 -73zM596 307q0 121 83 210t202 97q14 51 59 101q264 -166 264 -408q0 -127 -89 -217t-214 -90h-850l172 287q19 -39 59 -61t80 -21h250q-16 48 -16 102z" />
<glyph unicode="&#x646;" horiz-adv-x="942" d="M352 819q0 49 35 84t84 35t84 -35t35 -84t-35 -84t-84 -35t-84 35t-35 84zM891 10q0 -180 -120 -304t-318 -124q-113 0 -197 46q-136 75 -186 252q-18 65 -19 120q0 127 76 242t182 182q10 -80 -41 -148q33 -16 50 -50t10 -68q-56 32 -106 26t-80 -61t-29 -123 q0 -117 83 -198t237 -81q154 -1 223 97t60 228t-132 278l106 213q201 -251 201 -527z" />
<glyph unicode="&#x647;" horiz-adv-x="710" d="M455 655v260l204 99v-248q-27 -49 -84 -78t-120 -33zM455 956v637l204 45v-583zM425 614q184 0 234 95v-402q0 -127 -89 -217t-215 -90t-215 90t-89 217t89 217t214 90h71zM254 307q0 -43 30 -73t72 -30t73 30q30 30 30 73t-30 73t-73 30q-42 0 -72 -30t-30 -73z" />
<glyph unicode="&#x648;" horiz-adv-x="710" d="M425 614q184 0 234 95v-795q-1 -129 -73 -208t-168 -94q-96 -14 -194 16t-148 102q211 -57 295 -1t84 165v122q-47 -16 -101 -16q-125 0 -214 90t-89 217t89 217t214 90h71zM254 307q0 -43 30 -73t72 -30t73 30q30 30 30 73t-30 73t-73 30q-42 0 -72 -30t-30 -73z" />
<glyph unicode="&#x649;" horiz-adv-x="1484" d="M362 -205h325l-355 621q-203 350 125 594q53 39 75 57q57 47 58 143l573 -1000q70 18 99 77l172 -287h-385l-486 840q-76 -43 -92 -133t39 -191l528 -926h-987l172 287q19 -39 59 -61t80 -21z" />
<glyph unicode="&#x64a;" horiz-adv-x="1484" d="M557 -614q0 49 35 84q35 34 84 34t84 -34t35 -84q0 -49 -35 -84t-84 -35t-84 35t-35 84zM203 -614q0 49 35 84q35 34 84 34t84 -34q34 -34 34 -84q0 -49 -34 -84t-84 -35q-49 0 -84 35t-35 84zM362 -205h325l-355 621q-203 350 125 594q53 39 75 57q57 47 58 143 l573 -1000q70 18 99 77l172 -287h-385l-486 840q-76 -43 -92 -133t39 -191l528 -926h-987l172 287q19 -39 59 -61t80 -21z" />
<glyph unicode="&#x64b;" />
<glyph unicode="&#x64c;" />
<glyph unicode="&#x64d;" />
<glyph unicode="&#x64e;" />
<glyph unicode="&#x64f;" />
<glyph unicode="&#x650;" />
<glyph unicode="&#x651;" />
<glyph unicode="&#x652;" />
<glyph unicode="&#x653;" d="M-250 33v114l103 17v-62h352q41 0 55 33l78 -135h-488q-17 -108 -157 -78q29 4 42 22t14 33q1 14 1 56z" />
<glyph unicode="&#x654;" d="M61 279q-61 -16 -61 -86t41 -81q41 -10 86 -10h149l-61 -102h-491l61 102h88q4 242 186 242q94 0 129 -82q-66 33 -127 17z" />
<glyph unicode="&#x655;" d="M61 -65q-61 -16 -61 -86t41 -81q41 -10 86 -10h149l-61 -102h-491l61 102h88q4 242 186 242q94 0 129 -82q-66 33 -127 17z" />
<glyph unicode="&#x660;" horiz-adv-x="1024" d="M393 614q0 49 35 84t84 35t84 -35t35 -84t-35 -84q-35 -34 -84 -34t-84 34t-35 84z" />
<glyph unicode="&#x661;" horiz-adv-x="1024" d="M410 0v1184l204 45v-1229h-204z" />
<glyph unicode="&#x662;" horiz-adv-x="1024" d="M799 1024h-164q-97 0 -151 -39t-54 -145v-840h-205v840q0 331 289 379q63 10 285 10v-205z" />
<glyph unicode="&#x663;" horiz-adv-x="1024" d="M246 614v-614h-205v1182l205 45v-408h164v363l204 47v-410h164v365l205 45v-567q0 -23 -20 -35t-41 -13h-676z" />
<glyph unicode="&#x664;" horiz-adv-x="1024" d="M901 205v-205h-674l-26 16q-63 44 -73 106q-16 107 73 195l227 230l-180 141q-92 82 -86 172t94 152l356 262l123 -164l-358 -262l338 -285l-340 -358h526z" />
<glyph unicode="&#x665;" horiz-adv-x="1024" d="M815 410q0 -127 -89 -217t-214 -91h-221q-82 -4 -82 48v669q0 127 89 217t214 90q250 0 303 103v-819zM614 922h-102q-43 0 -73 -30t-29 -73v-512h102q43 0 73 30t29 73v512z" />
<glyph unicode="&#x666;" horiz-adv-x="1024" d="M657 0v1024h-448l-45 205h649q23 -1 35 -21t12 -41v-1167h-203z" />
<glyph unicode="&#x667;" horiz-adv-x="1024" d="M915 1157l-311 -1157h-184l-311 1157l184 96l219 -812l219 812z" />
<glyph unicode="&#x668;" horiz-adv-x="1024" d="M303 0h-213l328 1229h184l14 -53h2l-1 -4l317 -1172h-213l-209 779z" />
<glyph unicode="&#x669;" horiz-adv-x="1024" d="M696 891q0 55 -32 103t-122 56q-89 8 -130 -24q-53 -30 -75 -96t19 -152q45 -63 112 -67q36 -2 90 -1t138 -1v182zM901 891v-891h-205v504q-32 2 -98 0q-120 -4 -222 19t-192 145q-88 160 -48 310t169 224q76 50 175 60q100 10 202 -32t160 -133t59 -206z" />
<glyph unicode="&#x66e;" horiz-adv-x="1740" d="M1690 47q0 -51 -82 -47h-1557l123 205h1311v364l205 45v-567z" />
<glyph unicode="&#x66f;" horiz-adv-x="1054" d="M395 307q0 127 89 217t215 90t215 -90t90 -217v-205q0 -112 -35 -216q-35 -106 -84 -168t-149 -110t-232 -48q-217 0 -335 134t-118 296q0 266 168 416q12 -98 -26 -150q27 2 57 -17t41 -69q-80 12 -121 -14q-57 -37 -57 -163t104 -211q103 -85 273 -85q170 1 239 77 t70 242q-46 -16 -99 -16q-127 0 -216 90t-89 217zM598 307q0 -43 30 -73t72 -30t73 30q30 30 30 73t-30 73t-73 30q-42 0 -72 -30t-30 -73z" />
<glyph unicode="&#x671;" horiz-adv-x="450" d="M256 164q0 -64 78 -68t117 23q-16 -55 -81 -91t-136 -38q-70 -2 -126 43t-57 131v1429l205 45v-1474zM475 1761q0 -20 -29 -20h-395q-17 -108 -157 -78q30 5 42 23t14 32q1 14 1 56v278l102 16v-40h266q74 0 104 -36t37 -60t10 -34q5 -17 5 -70v-67zM53 1843h320 q0 27 -3 42q-2 15 -18 27t-45 13h-254v-82z" />
<glyph unicode="&#x679;" horiz-adv-x="1740" d="M1690 47q0 -51 -82 -47h-1557l123 205h1311v364l205 45v-567zM643 782v494l102 18v-327h226q76 0 105 -36t36 -61q6 -24 9 -34q5 -16 5 -71v-67q0 -20 -32 -18h-582l49 102h82zM745 864v-82h279q-2 31 -4 43q-2 11 -16 25t-43 14h-216z" />
<glyph unicode="&#x67e;" horiz-adv-x="1740" d="M905 -307q0 49 35 84t84 35t84 -35t35 -84t-35 -84t-84 -35t-84 35t-35 84zM551 -307q0 49 35 84t84 35t84 -35q34 -35 34 -84t-34 -84t-84 -35q-49 0 -84 35t-35 84zM721 -614q0 49 35 84q35 34 84 34t84 -34q34 -34 34 -84q0 -49 -34 -84t-84 -35q-49 0 -84 35t-35 84z M1690 47q0 -51 -82 -47h-1557l123 205h1311v364l205 45v-567z" />
<glyph unicode="&#x686;" horiz-adv-x="1054" d="M477 -553q0 49 35 84t84 35t84 -35t35 -84t-35 -84t-84 -35t-84 35t-35 84zM123 -553q0 49 35 84t84 35t84 -35q34 -35 34 -84t-34 -84t-84 -35q-49 0 -84 35t-35 84zM293 -860q0 49 35 84t84 35t84 -35q34 -35 34 -84t-34 -84t-84 -35q-49 0 -84 35t-35 84zM637 205h367 l-123 -205h-475q-44 0 -96 -45t-52 -113t59 -112t143 -54q175 -20 300 23q-70 -82 -222 -114q-283 -59 -423 111q-64 76 -64 186t51 176t140 116q-85 57 -191 221l115 219q113 -178 242 -294t229 -115z" />
<glyph unicode="&#x688;" horiz-adv-x="1781" d="M1341 614q72 0 129 -12q211 -45 250 -272q10 -63 11 -283q0 -51 -82 -47h-1598l123 205h1352q2 96 -38 150t-147 55h-1065l271 450l20 -14l-106 -232h880zM715 1004v493l102 19v-328h225q74 0 104 -35q29 -35 37 -61q7 -25 10 -35q5 -17 5 -71v-66q0 -20 -33 -19h-581 l49 103h82zM817 1085v-81h279q-2 31 -4 43t-16 25t-44 13h-215z" />
<glyph unicode="&#x68e;" horiz-adv-x="1781" d="M956 1024q0 49 35 84t84 35t84 -35t35 -84t-35 -84t-84 -35t-84 35t-35 84zM602 1024q0 49 35 84t84 35t84 -35t35 -84t-35 -84t-84 -35t-84 35t-35 84zM772 1331q0 49 35 84t84 35t84 -35t35 -84t-35 -84t-84 -35t-84 35t-35 84zM1341 614q72 0 129 -12 q211 -45 250 -272q10 -63 11 -283q0 -51 -82 -47h-1598l123 205h1352q2 96 -38 150t-147 55h-1065l271 450l20 -14l-106 -232h880z" />
<glyph unicode="&#x691;" horiz-adv-x="460" d="M410 -123q0 -129 -73 -208t-169 -94t-194 15t-148 103q211 -57 295 -1t84 165v712l205 45v-737zM111 1004v493l102 19v-328h225q74 0 104 -35q29 -35 37 -61q7 -25 10 -35q5 -17 5 -71v-66q0 -20 -33 -19h-581l49 103h82zM213 1085v-81h279q-2 31 -5 43q-2 12 -16 25 t-43 13h-215z" />
<glyph unicode="&#x698;" horiz-adv-x="460" d="M373 1024q0 49 35 84t84 35q50 0 84 -35t34 -84t-35 -84t-83 -35t-84 35q-35 35 -35 84zM18 1024q0 49 35 84t84 35t84 -35t35 -84t-35 -84t-84 -35t-84 35t-35 84zM188 1331q0 49 35 84t84 35t84 -35t35 -84t-35 -84t-84 -35t-84 35t-35 84zM410 -123q0 -129 -73 -208 t-169 -94t-194 15t-148 103q211 -57 295 -1t84 165v712l205 45v-737z" />
<glyph unicode="&#x6a1;" horiz-adv-x="1740" d="M1081 614q0 127 89 217q89 91 215 91q125 0 215 -90t90 -218v-567q0 -51 -82 -47h-1557l123 205h1311v118q-47 -16 -101 -16q-125 0 -214 90t-89 217zM1280 614q0 -44 31 -74t73 -30t75 31q32 31 32 73t-32 74q-32 31 -75 31q-44 0 -74 -31t-30 -74z" />
<glyph unicode="&#x6a4;" horiz-adv-x="1740" d="M1448 1229q0 49 35 84t84 35t84 -35t35 -84t-35 -84t-84 -35t-84 35t-35 84zM1094 1229q0 49 34 84q35 35 84 35t84 -35t35 -84t-35 -84t-84 -35t-84 35q-34 35 -34 84zM1264 1536q0 49 34 84q35 35 84 35t84 -35t35 -84t-35 -84t-84 -35t-84 35q-34 35 -34 84zM1081 614 q0 127 89 217q89 91 215 91q125 0 215 -90t90 -218v-567q0 -51 -82 -47h-1557l123 205h1311v118q-47 -16 -101 -16q-125 0 -214 90t-89 217zM1280 614q0 -44 31 -74t73 -30t75 31q32 31 32 73t-32 74q-32 31 -75 31q-44 0 -74 -31t-30 -74z" />
<glyph unicode="&#x6a9;" horiz-adv-x="2068" d="M1628 614q72 0 129 -12q211 -45 250 -272q10 -63 10 -283q0 -51 -82 -47h-1884l123 205h1638q2 96 -37 150q-40 54 -147 55h-1290l862 852v-379q-23 41 -53 10l-284 -279h765z" />
<glyph unicode="&#x6af;" horiz-adv-x="2068" d="M1198 1382l-864 -852l2 99l862 850v-97zM1628 614q72 0 129 -12q211 -45 250 -272q10 -63 10 -283q0 -51 -82 -47h-1884l123 205h1638q2 96 -37 150q-40 54 -147 55h-1290l862 852v-379q-23 41 -53 10l-284 -279h765z" />
<glyph unicode="&#x6ba;" horiz-adv-x="942" d="M891 10q0 -180 -120 -304t-318 -124q-113 0 -197 46q-136 75 -186 252q-18 65 -19 120q0 127 76 242t182 182q10 -80 -41 -148q33 -16 50 -50t10 -68q-56 32 -106 26t-80 -61t-29 -123q0 -117 83 -198t237 -81q154 -1 223 97t60 228t-132 278l106 213q201 -251 201 -527z " />
<glyph unicode="&#x6bb;" horiz-adv-x="942" d="M891 10q0 -180 -120 -304t-318 -124q-113 0 -197 46q-136 75 -186 252q-18 65 -19 120q0 127 76 242t182 182q10 -80 -41 -148q33 -16 50 -50t10 -68q-56 32 -106 26t-80 -61t-29 -123q0 -117 83 -198t237 -81q154 -1 223 97t60 228t-132 278l106 213q201 -251 201 -527z M274 799v493l103 19v-328h225q76 0 105 -36t36 -60q5 -25 9 -35q6 -16 6 -71v-66q0 -20 -33 -19h-582l50 103h81zM377 881v-82h278q-2 31 -4 43t-16 25t-43 14h-215z" />
<glyph unicode="&#x6be;" horiz-adv-x="858" d="M399 307q0 -43 30 -73t73 -30q42 0 72 30t30 73t-30 73t-72 30t-73 -30q-30 -30 -30 -73zM-41 205h240v102q0 127 89 217t214 90h58q132 0 179 29t68 66v-811q0 -127 -89 -217q-89 -91 -215 -91t-215 90t-89 218v102h-240v205zM399 -102q0 -43 30 -73t73 -30q42 0 72 30 t30 73q0 42 -30 72t-72 30t-73 -30q-30 -30 -30 -72z" />
<glyph unicode="&#x6c0;" horiz-adv-x="710" d="M418 1200q-62 -16 -62 -85t46 -83q32 -8 81 -8h150l-62 -102h-491l61 102h89q4 241 186 242q94 0 129 -82q-65 32 -127 16zM425 614q184 0 234 95v-402q0 -127 -89 -217t-215 -90t-215 90t-89 217t89 217t214 90h71zM254 307q0 -43 30 -73t72 -30t73 30q30 30 30 73 t-30 73t-73 30q-42 0 -72 -30t-30 -73z" />
<glyph unicode="&#x6c1;" horiz-adv-x="710" d="M455 655v260l204 99v-248q-27 -49 -84 -78t-120 -33zM455 956v637l204 45v-583zM425 614q184 0 234 95v-402q0 -127 -89 -217t-215 -90t-215 90t-89 217t89 217t214 90h71zM254 307q0 -43 30 -73t72 -30t73 30q30 30 30 73t-30 73t-73 30q-42 0 -72 -30t-30 -73z" />
<glyph unicode="&#x6cc;" horiz-adv-x="1484" d="M362 -205h325l-355 621q-203 350 125 594q53 39 75 57q57 47 58 143l573 -1000q70 18 99 77l172 -287h-385l-486 840q-76 -43 -92 -133t39 -191l528 -926h-987l172 287q19 -39 59 -61t80 -21z" />
<glyph unicode="&#x6d2;" horiz-adv-x="1484" d="M362 -205h325l-355 621q-203 350 125 594q53 39 75 57q57 47 58 143l573 -1000q70 18 99 77l172 -287h-385l-486 840q-76 -43 -92 -133t39 -191l528 -926h-987l172 287q19 -39 59 -61t80 -21z" />
<glyph unicode="&#x6d3;" horiz-adv-x="1484" d="M332 102h149l-61 -102h-492l62 102h88q4 242 186 242q94 0 129 -82q-65 33 -127 17t-62 -86t42 -81q41 -10 86 -10zM362 -205h325l-355 621q-203 350 125 594q53 39 75 57q57 47 58 143l573 -1000q70 18 99 77l172 -287h-385l-486 840q-76 -43 -92 -133t39 -191l528 -926 h-987l172 287q19 -39 59 -61t80 -21z" />
<glyph unicode="&#x6f0;" horiz-adv-x="1024" d="M393 614q0 49 35 84t84 35t84 -35t35 -84t-35 -84q-35 -34 -84 -34t-84 34t-35 84z" />
<glyph unicode="&#x6f1;" horiz-adv-x="1024" d="M410 0v1184l204 45v-1229h-204z" />
<glyph unicode="&#x6f2;" horiz-adv-x="1024" d="M348 717v-717h-205v1182l205 45v-305h328v262l205 45v-465q-1 -23 -21 -35t-41 -12h-471z" />
<glyph unicode="&#x6f3;" horiz-adv-x="1024" d="M246 614v-614h-205v1182l205 45v-408h164v363l204 47v-410h164v365l205 45v-567q0 -23 -20 -35t-41 -13h-676z" />
<glyph unicode="&#x6f4;" horiz-adv-x="1024" d="M246 614v-614h-205v1182l205 45v-408h139v33q-2 158 74 261q75 103 191 103t173 -48q57 -50 76 -115q-77 47 -143 47t-109 -38t-43 -110t52 -102t118 -31h209l-45 -205h-692z" />
<glyph unicode="&#x6f5;" horiz-adv-x="1024" d="M815 410q0 -127 -89 -217t-214 -91h-221q-82 -4 -82 48v669q0 127 89 217t214 90q250 0 303 103v-819zM614 922h-102q-43 0 -73 -30t-29 -73v-512h102q43 0 73 30t29 73v512z" />
<glyph unicode="&#x6f6;" horiz-adv-x="1024" d="M530 1229q76 0 138 -41t96 -115q-92 80 -191 62q-51 -9 -88 -51t-36 -93q0 -78 60 -134t122 -38l270 82l-78 -205q-131 -34 -253 -116q-210 -142 -357 -390q-61 -102 -90 -190q0 101 29 241q59 286 241 476q-119 76 -129 201t71 218t195 93z" />
<glyph unicode="&#x6f7;" horiz-adv-x="1024" d="M915 1157l-311 -1157h-184l-311 1157l184 96l219 -812l219 812z" />
<glyph unicode="&#x6f8;" horiz-adv-x="1024" d="M303 0h-213l328 1229h184l14 -53h2l-1 -4l317 -1172h-213l-209 779z" />
<glyph unicode="&#x6f9;" horiz-adv-x="1024" d="M696 891q0 55 -32 103t-122 56q-89 8 -130 -24q-53 -30 -75 -96t19 -152q45 -63 112 -67q36 -2 90 -1t138 -1v182zM901 891v-891h-205v504q-32 2 -98 0q-120 -4 -222 19t-192 145q-88 160 -48 310t169 224q76 50 175 60q100 10 202 -32t160 -133t59 -206z" />
<glyph unicode="&#x2000;" horiz-adv-x="1042" />
<glyph unicode="&#x2001;" horiz-adv-x="2085" />
<glyph unicode="&#x2002;" horiz-adv-x="1042" />
<glyph unicode="&#x2003;" horiz-adv-x="2085" />
<glyph unicode="&#x2004;" horiz-adv-x="695" />
<glyph unicode="&#x2005;" horiz-adv-x="521" />
<glyph unicode="&#x2006;" horiz-adv-x="347" />
<glyph unicode="&#x2007;" horiz-adv-x="347" />
<glyph unicode="&#x2008;" horiz-adv-x="260" />
<glyph unicode="&#x2009;" horiz-adv-x="417" />
<glyph unicode="&#x200a;" horiz-adv-x="115" />
<glyph unicode="&#x2010;" horiz-adv-x="606" d="M113 354v183h381v-183h-381z" />
<glyph unicode="&#x2011;" horiz-adv-x="606" d="M113 354v183h381v-183h-381z" />
<glyph unicode="&#x2012;" horiz-adv-x="606" d="M113 354v183h381v-183h-381z" />
<glyph unicode="&#x2013;" horiz-adv-x="856" d="M115 346v182h626v-182h-626z" />
<glyph unicode="&#x2014;" horiz-adv-x="1271" d="M115 346v182h1042v-182h-1042z" />
<glyph unicode="&#x2018;" horiz-adv-x="368" d="M285 1225l-92 -51q-125 125 -93 303l115 -15q-15 -70 7 -134t63 -103z" />
<glyph unicode="&#x2019;" horiz-adv-x="366" d="M174 1174l-92 51q43 37 65 102q18 66 5 135l114 15q32 -179 -92 -303z" />
<glyph unicode="&#x201a;" horiz-adv-x="399" d="M164 -113q-30 20 -92 52q45 41 63 104q23 61 6 133l115 14q32 -179 -92 -303z" />
<glyph unicode="&#x201c;" horiz-adv-x="583" d="M285 1225q-11 -5 -92 -51q-125 125 -93 303l115 -15q-15 -70 7 -134t63 -103zM500 1225l-92 -51q-125 125 -93 303l115 -15q-16 -70 6 -134t64 -103z" />
<glyph unicode="&#x201d;" horiz-adv-x="583" d="M84 1225q96 91 68 237l114 15q16 -88 -10 -168t-80 -135q-33 16 -43 23t-25 15t-24 13zM391 1174l-92 51q43 37 66 102q18 66 4 135l114 15q32 -179 -92 -303z" />
<glyph unicode="&#x201e;" horiz-adv-x="612" d="M289 -61q95 95 67 237l115 14q17 -88 -9 -168t-81 -135q-6 3 -42 23t-50 29zM164 -113q-30 20 -92 52q45 41 63 104q23 61 6 133l115 14q32 -179 -92 -303z" />
<glyph unicode="&#x2022;" horiz-adv-x="827" d="M137 622q0 62 23 109q16 45 56 88t87 64t109 21t108 -23q47 -16 90 -60q41 -45 58 -90q22 -47 22 -109t-22 -110q-16 -45 -56 -84q-81 -78 -198 -79t-197 77q-41 41 -57 86q-23 48 -23 110z" />
<glyph unicode="&#x2026;" horiz-adv-x="1130" d="M1018 114q0 -52 -36 -83t-79 -31t-77 31t-35 83q0 52 36 83q33 35 77 35t79 -34q35 -32 35 -84zM678 114q0 -52 -36 -83t-79 -31t-77 31t-35 83q0 52 36 83q33 35 77 35t79 -34q35 -32 35 -84zM340 114q0 -52 -35 -83t-80 -31t-79 31t-35 83q0 52 36 83q33 35 78 35 t78 -35q37 -31 37 -83z" />
<glyph unicode="&#x202f;" horiz-adv-x="417" />
<glyph unicode="&#x2039;" horiz-adv-x="575" d="M436 102l-354 394q5 5 24 26q18 20 40 44t34 40q25 25 80 88t84 95q29 33 51 57t41 43v-215q-2 -2 -56 -68t-58 -74q-23 -25 -31 -36q7 -8 21 -26t40 -48q26 -32 54 -68q29 -36 30 -37v-215z" />
<glyph unicode="&#x203a;" horiz-adv-x="571" d="M137 317l146 179q-8 12 -25 31t-90 112q-29 33 -31 35v215l355 -393l-355 -394v215z" />
<glyph unicode="&#x2044;" horiz-adv-x="729" d="M-18 0l577 1567h189l-578 -1567h-188z" />
<glyph unicode="&#x205f;" horiz-adv-x="521" />
<glyph unicode="&#x20ac;" horiz-adv-x="1103" d="M399 717q0 -73 4 -107h433v-98h-416q41 -179 145 -266q84 -80 183 -80q100 0 176 51l92 -172q-116 -61 -232 -61q-225 0 -370 135q-70 68 -123 166q-47 96 -70 227h-141v98h131q-2 10 -2 35v62q0 16 2 24h-133v100h141q18 127 68 230q111 208 286 270q93 35 183 35 q159 0 260 -61l-84 -166q-67 43 -161 44q-237 2 -329 -212q-27 -61 -36 -140h430v-100h-437v-14z" />
<glyph unicode="&#x2212;" horiz-adv-x="993" d="M870 330h-747v184h747v-184z" />
<glyph unicode="&#x25fc;" horiz-adv-x="855" d="M0 855h855v-855h-855v855z" />
<glyph unicode="&#xfb01;" horiz-adv-x="1157" d="M49 684v172h146v201q0 266 124 397q129 131 359 137v-168q-162 -10 -235 -104t-72 -266v-197h663v-856h-176v684h-487v-684h-176v684h-146z" />
<glyph unicode="&#xfb02;" horiz-adv-x="1130" d="M49 686v172h146v199q0 266 124 397q129 131 359 137h328v-1591h-175v1423h-153q-162 -10 -235 -104t-72 -266v-195h270v-172h-270v-686h-176v686h-146z" />
<glyph horiz-adv-x="641" d="M256 205q0 -49 48 -82t140.5 -30t196.5 54q-49 -80 -149.5 -121.5t-197.5 -38.5t-170 60t-73 158v1388l205 45v-1433z" />
<glyph horiz-adv-x="856" d="M256 246q0 -115 205 -125t395 86q-59 -82 -193.5 -142.5t-269.5 -75t-238.5 49t-103.5 207.5v1347l205 45v-1392z" />
<glyph horiz-adv-x="358" d="M307 164q0 -86 -63.5 -135t-138 -42t-105.5 64l8 -2h18q28 0 39 9.5t24 27.5t13 78v1429l205 45v-1474z" />
<glyph horiz-adv-x="880" d="M373 205h61l-155 276l172 160l243 -436h228v-205h-114l140 -252l-170 -158l-230 410h-175q-49 0 -97.5 -39t-48.5 -113q0 -72 40 -124q41 -52 101 -68q124 -33 238 2q-92 -66 -223 -71t-229 65q-102 78 -102 214t65 238q66 101 256 101z" />
<glyph horiz-adv-x="774" d="M815 205v-205h-114l141 -252l-170 -158l-230 410h-483v205h368l-155 276l172 160l243 -436h228z" />
<glyph d="M-543 614q0 -256 -170 -288q-57 -12 -178 12q136 19 141 146q2 54 2 88v202l205 45v-205z" />
<glyph d="M-543 614q0 -256 -170 -288q-57 -12 -178 12q79 11 109 50t32 95q2 55 2 89v1021l205 45v-1024z" />
<glyph horiz-adv-x="1003" d="M350 205h62l-349 614h941l-350 -614h390v-205h-638q-45 0 -96.5 -45t-51.5 -112.5t60 -112.5q60 -44 143 -54q169 -19 299 23q-70 -82 -222.5 -113.5t-256 1t-167 109.5t-63.5 198.5t77 216t222 94.5zM533 406l118 208h-237z" />
<glyph horiz-adv-x="942" d="M-41 205h389l-348 614h942l-351 -614h392v-205h-1024v205zM469 406l119 208h-238z" />
<glyph horiz-adv-x="710" d="M254 307q0 -43 30 -73t72 -30t73 30q30 30 30 73t-30 73t-73 30q-42 0 -72 -30t-30 -73zM51 307q0 121 83 210t202 97q14 51 59 101q264 -166 264 -408q0 -127 -89 -217t-214 -90q-54 0 -100 16v-221q0 -66 -40 -118q-81 -105 -215 -94q-62 5 -103 46q55 0 115 66 q38 41 38 100v512z" />
<glyph horiz-adv-x="890" d="M434 307q0 -43 30 -73t73 -30t73 30t29 73q0 43 -30 73q-31 30 -73 30t-72 -30t-30 -73zM537 0h-486v20q131 33 160 137q20 71 20 150q0 121 83 210t202 97q14 51 59 101q264 -166 265 -408q0 -127 -89 -217t-214 -90z" />
<glyph horiz-adv-x="858" d="M254 307q0 -43 30 -73t72 -30t73 30q30 30 30 73t-30 73t-73 30q-42 0 -72 -30t-30 -73zM256 -205q0 -66 -40 -118q-81 -105 -215 -94q-62 5 -103 46q55 0 115 66q38 41 38 100v512q-1 103 61 185t156 110q63 18 88 115q25 -92 93 -117q92 -29 151 -110t59 -183 q0 -55 -16 -102h256v-205h-543q-53 0 -100 16v-221z" />
<glyph horiz-adv-x="1038" d="M434 307q0 -43 30 -73t73 -30t73 30t29 73q0 43 -30 73q-31 30 -73 30t-72 -30t-30 -73zM1079 205v-205h-1028v20q131 33 160 137q20 71 20 162q-1 91 61 173t157 110q63 18 88 115q25 -92 92 -117q92 -29 151 -110t60 -183q0 -55 -17 -102h256z" />
<glyph horiz-adv-x="1003" d="M399 102q0 -42 30 -72t73 -30q42 0 72 30t30 72t-30 73q-30 30 -72 30t-73 -30q-30 -30 -30 -73zM-41 205h254q21 59 67 107q83 89 201 98q14 51 60 100q206 -129 251 -305h252v-205h-256q-22 -63 -72 -115q-89 -90 -215 -90t-215 90q-51 51 -73 115h-254v205z" />
<glyph horiz-adv-x="710" d="M425 614q184 0 234 95v-402q0 -127 -89 -217t-215 -90t-215 90t-89 217t89 217t214 90h71zM254 307q0 -43 29.5 -72.5t72.5 -29.5t73 29.5t30 72.5t-30 73t-73 30t-72.5 -30t-29.5 -73z" />
<glyph horiz-adv-x="849" d="M425 614q184 0 234 95v-504h232v-205h-537q-125 0 -214 90t-89 217t89 217t214 90h71zM254 307q0 -43 29.5 -72.5t72.5 -29.5t73 29.5t30 72.5t-30 73t-73 30t-72.5 -30t-29.5 -73z" />
<glyph horiz-adv-x="997" d="M399 -102q0 -43 30 -73t73 -30q42 0 72 30t30 73q0 42 -30 72t-72 30t-73 -30q-30 -30 -30 -72zM-41 205h240v102q0 127 89 217t214 90h57q22 0 45 2v158l203 45v-614h231v-205h-231v-102q0 -127 -89 -217q-89 -91 -215 -91t-215 90t-89 218v102h-240v205zM399 307 q0 -43 30 -73t73 -30q42 0 72 30t30 73t-30 73t-72 30t-73 -30q-30 -30 -30 -73z" />
<glyph horiz-adv-x="997" d="M399 623q0 -43 30 -73t73 -30q42 0 72 30t30 73t-30 73t-72 29q-42 1 -73 -29q-30 -30 -30 -73zM-41 205h240v418q0 127 89 217t214 90h58q137 0 182 30t65 64v-819h231v-205h-1079v205zM399 305q0 -43 30 -73t73 -30q42 0 72 30t30 73t-30 73t-72 30t-73 -30 q-30 -30 -30 -73z" />
<glyph horiz-adv-x="997" d="M399 623q0 -43 30 -73t73 -30q42 0 72 30t30 73t-30 73t-72 29q-42 1 -73 -29q-30 -30 -30 -73zM-41 205h240v418q0 127 89 217t214 90h57q22 0 45 1v159l203 45v-930h231v-205h-1079v205zM399 305q0 -43 30 -73t73 -30q42 0 72 30t30 73t-30 73t-72 30t-73 -30 q-30 -30 -30 -73z" />
<glyph horiz-adv-x="858" d="M399 307q0 -43 30 -73t73 -30q42 0 72 30t30 73t-30 73t-72 30t-73 -30q-30 -30 -30 -73zM-41 205h240v102q0 127 89 217t214 90h57q22 0 45 2v158l203 45v-921q0 -127 -89 -217q-89 -91 -215 -91t-215 90t-89 218v102h-240v205zM399 -102q0 -43 30 -73t73 -30 q42 0 72 30t30 73q0 42 -30 72t-72 30t-73 -30q-30 -30 -30 -72z" />
<glyph horiz-adv-x="858" d="M397 623q0 -43 30 -73t73 -30q42 0 72 30t30 73t-30 73t-72 29q-42 1 -73 -29q-30 -30 -30 -73zM-41 205h240v418q0 127 89 217t214 90h57q22 0 43 1v159l205 45v-1088q0 -51 -82 -47h-766v205zM397 305q0 -43 26 -69t55 -31h43q29 5 55 31t26 69t-30 73t-72 30t-73 -30 q-30 -30 -30 -73z" />
<glyph horiz-adv-x="819" d="M51 304q0 124 83 213t202 97q14 51 59 101q225 -141 259 -337q16 -84 15 -173h191v-205h-215q-39 -183 -128 -270.5t-202 -94.5q-176 -12 -264 109q131 -20 214 9.5t121 121.5q28 67 41 125h-71q-127 0 -216 90t-89 214zM254 307q0 -43 29.5 -72.5t72.5 -29.5t73 29.5 t30 72.5t-30 73t-73 30t-72.5 -30t-29.5 -73z" />
<glyph horiz-adv-x="716" d="M664 -106q0 -122 -90 -213t-216 -91q-127 0 -217 90t-90 214q0 122 79 208q-78 86 -79 205h205q0 -43 30 -73t72 -30t73 30q30 30 30 73v1331l205 -45v-1286q0 -119 -79 -205q77 -86 77 -208zM256 -102q0 -43 30 -73t72 -30t73 30q30 30 30 73q0 42 -30 72t-73 30 q-42 0 -72 -30t-30 -72z" />
<glyph d="M51 307v1286l205 45v-1433z" />
<glyph horiz-adv-x="870" d="M51 -106q0 122 79 208q-78 86 -79 205h205q0 -43 30 -73t72 -30t73 30q30 30 30 73v1331l205 -45v-1286q0 -55 -17 -102h262v-205h-264q16 -48 17 -102q0 -127 -90 -217q-90 -91 -216 -91q-127 0 -217 90q-90 92 -90 214zM256 -102q0 -43 30 -73t72 -30t73 30 q30 30 30 73q0 42 -30 72t-73 30q-42 0 -72 -30t-30 -72z" />
<glyph horiz-adv-x="1566" d="M362 205h172l-120 211q-203 350 125 594q53 39 75 57q58 49 58 143l573 -1000q71 18 98 77l173 -287h-386l-485 840q-76 -43 -92 -133.5t39 -190.5l295 -516h-836l172 287q18 -39 58.5 -60.5t80.5 -21.5z" />
<glyph horiz-adv-x="1474" d="M1516 205v-205h-386l-485 840q-76 -43 -92 -133.5t39 -190.5l295 -516h-836l172 287q18 -39 58.5 -60.5t80.5 -21.5h172l-120 211q-203 350 125 594q53 39 75 57q58 49 58 143l577 -1005h267z" />
<glyph d="M61 279q-61 -16 -61 -86q0 -71 46 -83q31 -8 81 -8h149l-61 -102h-491l61 102h88q4 242 186 242q94 0 129 -82q-66 33 -127 17z" />
<glyph d="M-119 0q0 49 35 84t84 35t84 -35t35 -84t-35 -84t-84 -35t-84 35t-35 84z" />
<glyph d="M-289 0q0 49 35 84t84 35t84 -35t35 -84t-35 -84t-84 -35t-84 35t-35 84zM66 0q0 49 34.5 84t83.5 35t84 -35t35 -84t-35 -84t-84 -35t-83.5 35t-34.5 84z" />
<glyph horiz-adv-x="1064" d="M324 205v33q-2 158 73 261q76 103 195 103q199 0 246 -164q-78 47 -144 47t-108 -38q-43 -37 -43 -109t52 -102t118 -31h301l-123 -205h-840l123 205h150z" />
<glyph d="M66 0q0 49 34.5 84t83.5 35t84 -35t35 -84t-35 -84t-84 -35t-83.5 35t-34.5 84zM-289 0q0 49 35 84t84 35t84 -35t35 -84t-35 -84t-84 -35t-84 35t-35 84zM-119 307q0 49 35 84t84 35t84 -35t35 -84t-35 -84t-84 -35t-84 35t-35 84z" />
<glyph d="M-119 0q0 49 35 84t84 35t84 -35t35 -84t-35 -84t-84 -35t-84 35t-35 84z" />
<glyph d="M66 0q0 49 34.5 84t83.5 35t84 -35t35 -84t-35 -84t-84 -35t-83.5 35t-34.5 84zM-289 0q0 49 35 84t84 35t84 -35t35 -84t-35 -84t-84 -35t-84 35t-35 84z" />
<glyph d="M66 0q0 49 34.5 84t83.5 35t84 -35t35 -84t-35 -84t-84 -35t-83.5 35t-34.5 84zM-289 0q0 49 35 84t84 35t84 -35t35 -84t-35 -84t-84 -35t-84 35t-35 84zM-119 -307q0 49 35 84t84 35t84 -35t35 -84t-35 -84t-84 -35t-84 35t-35 84z" />
<glyph d="M-119 0q0 49 35 84t84 35t84 -35t35 -84t-35 -84t-84 -35t-84 35t-35 84zM-119 348q0 49 35 84t84 35t84 -35t35 -84t-35 -84t-84 -35t-84 35t-35 84z" />
<glyph d="M61 -65q-61 -16 -61 -86q0 -71 46 -83q31 -8 81 -8h149l-61 -102h-491l61 102h88q4 242 186 242q94 0 129 -82q-66 33 -127 17z" />
<glyph d="M-176 102v494l102 18v-327h226q77 0 106 -37.5t35 -60.5t9 -33q5 -18 5 -71v-67q0 -20 -33 -18h-581l49 102h82zM-74 184v-82h279q-2 31 -4 43.5t-16.5 25.5t-43.5 13h-215z" />
<glyph d="M291 20q0 -20 -29 -20h-395q-17 -108 -158 -78q29 4 42 22.5t14.5 33t1.5 55.5v278l102 17v-41h266q156 0 156 -200v-67zM-131 102h319q0 53 -18 67.5t-47 14.5h-254v-82z" />
<glyph horiz-adv-x="2222" d="M1628 614q72 0 129 -12q211 -45 250 -272q6 -37 8 -125h248v-205h-305q-10 -1 -23 0h-1884l123 205h1638q2 96 -37.5 150.5t-146.5 54.5h-1290l862 852v-379q-25 39 -53 10l-284 -279h765z" />
<glyph horiz-adv-x="2017" d="M1423 614q72 0 129 -12q211 -45 250 -272q6 -37 9 -125h247v-205h-305q-10 -1 -22 0h-1772v205h1649q2 96 -38 150.5t-147 54.5h-1290l862 852v-379q-25 39 -53 10l-283 -279h764z" />
<glyph horiz-adv-x="1863" d="M1423 614q72 0 129 -12q211 -45 250 -272q10 -63 10 -283q0 -51 -81 -47h-1772v205h1649q2 96 -38 150.5t-147 54.5h-1290l862 852v-379q-25 39 -53 10l-283 -279h764z" />
<glyph d="M432 426l-864 -852l2 98l862 850v-96z" />
<glyph d="M-250 33v114l103 17v-62h352q41 0 55 33l78 -135h-488q-17 -108 -157 -78q29 4 42 22.5t14 33t1 55.5z" />
<glyph horiz-adv-x="471" />
<glyph horiz-adv-x="450" d="M340 114q0 -52 -35 -83t-80 -31t-79 31t-35 83q0 52 36 83q33 35 78 35t78 -35q37 -31 37 -83z" />
</font>
</defs>
</svg>
