<?xml version="1.0" standalone="no"?>
<!DOCTYPE svg PUBLIC "-//W3C//DTD SVG 1.1//EN" "http://www.w3.org/Graphics/SVG/1.1/DTD/svg11.dtd" >
<svg xmlns="http://www.w3.org/2000/svg" xmlns:xlink="http://www.w3.org/1999/xlink" version="1.1">
<metadata></metadata>
<defs>
<font id="hsn_sadiyahregular" horiz-adv-x="0" >
<font-face units-per-em="2048" ascent="1638" descent="-410" />
<missing-glyph horiz-adv-x="450" />
<glyph unicode="&#x627;&#x653;" horiz-adv-x="309" d="M143 1077q0 49 41 79t82 0t41 -89v-829q6 -68 37 -83t31 -69t-43 -78l-19 -8l-22 -2q-8 0 -21 -6q-106 8 -127 145v940zM383 1303q0 47 47 47t47 -47q0 -26 -18 -39q-8 -20 -32 -45q-25 -25 -55 -25t-55 6l-22 8q-4 0 -28 8t-68 29q-74 29 -99 29t-45 -14q21 -6 21 -7 q23 -12 22 -41q0 -47 -47 -47q-29 0 -41 25l-6 4v18q11 51 33 72q27 33 59 33t47 -8q51 -12 119 -45q78 -31 109 -31t41 11t12 11q-11 7 -16 7q-25 12 -25 41z" />
<glyph unicode="&#x627;&#x654;" horiz-adv-x="323" d="M327 1350q-42 0 -42 41v12q-14 4 -25 0q-55 -25 14 -107l70 -39v-92q-96 90 -194 0v92l45 29q-61 166 63 187q66 10 102 -56q8 -8 9 -26q0 -41 -42 -41zM164 1077q0 49 41 79t82 0t41 -89v-829q6 -68 37 -83t31 -69t-44 -78l-18 -8l-25 -2q-12 0 -18 -6q-106 8 -127 145 v940z" />
<glyph unicode="&#x648;&#x654;" horiz-adv-x="911" d="M866 1081q0 -43 -42 -43t-42 43v11q-10 6 -22 2q-59 -27 12 -107l72 -41v-90q-98 90 -197 0v90l45 31q-27 84 -16 127q16 47 83 57t99 -53q8 -8 8 -27zM946 -2q-20 -137 -94 -229t-221 -97h-21q-137 23 -147 127l16 64q29 41 72 41q41 10 78 -31q6 -6 8 -12l8 -19 q10 -20 80 25q41 29 53 133l-375 2q-131 -2 -188 90t23 225l223 295q156 248 360 181q100 -33 131 -230v-403zM784 162v373q-63 160 -159 30l-256 -336q-39 -49 86 -67h329z" />
<glyph unicode="&#x627;&#x655;" horiz-adv-x="337" d="M403 -109q0 -43 -43 -43t-43 43q0 8 2 11q-14 6 -24 2q-64 -27 14 -107l70 -41v-90q-96 90 -195 0v90l45 31q-31 84 -17 130t79 55q66 9 104 -56q0 -2 4 -6t4 -19zM178 1077q0 49 41 79t82 0t41 -89v-829q6 -68 37 -83t31 -69t-43 -78l-19 -8l-24 -2q-13 0 -19 -6 q-106 8 -127 145v940z" />
<glyph unicode="&#x64a;&#x654;" horiz-adv-x="1288" d="M1157 25q0 -15 -6 -21q-63 -352 -492 -332q-311 23 -407 240q-94 217 5 406t261 210q6 2 23 2h20q41 -8 51 -22q35 -32 35 -66q0 -86 -86 -86q-23 0 -41 13q-162 -63 -153 -289q10 -223 335 -246q217 10 287 164q-8 2 -18 2h-19q-25 4 -49 0l-112 2q-131 -2 -189 88 q-57 94 23 227l223 295q168 262 348 162q104 -57 125 -166q55 -244 -115 -243q-92 0 -92 92q0 57 47 82q2 0 15 30q-70 119 -164 -4l-256 -336q-39 -72 71 -67l189 4q123 -14 131 -66q15 -44 10 -65v-10zM672 811q0 -43 -43 -43t-43 43q0 8 2 10q-14 6 -25 2 q-61 -26 15 -106l69 -39v-92q-94 88 -194 0v92l45 29q-31 80 -19 127q16 49 81 58t104 -54q0 -2 4 -7t4 -20z" />
<glyph unicode="&#x64c;&#x651;" arabic-form="isolated" d="M319 1647q-23 0 -36 -9q-33 -14 -33 -42t10 -44l21 -28q84 29 84 80q-1 43 -46 43zM393 1399v-117q-1 -41 -25 -72q-24 -32 -74 -28t-83 73q-31 -67 -83 -69t-78 29t-25 67v117l59 2v-103q0 -57 45 -55q51 0 51 86v70l60 2v-70q0 -88 49 -88q47 -4 47 55v101h57z M201 1599q0 47 47 84q20 15 63 15t67 -39t25 -68q0 -154 -262 -153q-43 0 -90 6q-4 0 -26 61q77 59 77 119t-57 59q-29 0 -76 -34q41 74 99 73h10q8 0 12 -2q68 -20 68 -94t-92 -127q104 -23 176 6q-41 47 -41 94z" />
<glyph unicode="&#x64d;&#x651;" arabic-form="isolated" d="M358 1370l-4 -80h-309l-4 82zM358 1268l-4 -80h-309l-4 82zM389 1612v-119q-1 -41 -25 -72t-73 -29t-84 74q-31 -68 -86 -69q-100 0 -101 96v119h58v-101q0 -59 47 -59q51 2 51 88v72h60v-72q0 -84 49 -88q47 0 47 59v101h57z" />
<glyph unicode="&#x64e;&#x651;" arabic-form="isolated" d="M375 1524l-4 -80h-310l-4 82zM399 1401v-119q-1 -39 -27 -71q-26 -31 -75 -29t-82 71q-31 -63 -84 -67q-100 0 -100 96v119h57v-101q0 -59 45 -59q51 0 51 88v72h60v-72q0 -88 49 -88t45 59v101h61z" />
<glyph unicode="&#x64f;&#x651;" arabic-form="isolated" d="M227 1588q0 -30 27 -68q102 29 86 90q-8 33 -45 32q-18 0 -33 -8q-35 -16 -35 -46zM389 1391v-119q-1 -41 -25 -72t-74 -30t-85 75q-31 -70 -84 -69q-102 0 -103 96v119h60v-101q0 -59 45 -59q49 4 49 88v72h64v-72q0 -84 49 -88q45 0 45 59v101h59zM178 1599q0 49 51 80 q23 12 45 13q64 -1 91 -50q16 -29 16 -55q0 -57 -70 -108q-57 -45 -168 -45q-53 0 -120 12q-2 2 -25 65q80 -18 137 -18t80 8q-37 49 -37 98z" />
<glyph unicode="&#x650;&#x651;" arabic-form="isolated" d="M397 1247l-4 -80h-309l-4 82zM428 1511v-118q0 -41 -26 -72t-74 -30t-84 75q-31 -70 -84 -70q-102 0 -103 97v118h60v-100q0 -59 45 -59q49 4 49 88v71h63v-71q0 -84 50 -88q45 0 45 59l-2 100h61z" />
<glyph unicode="&#xfe8e;&#x64b;" horiz-adv-x="491" arabic-form="final" d="M373 0q-158 0 -178 137v940q0 49 41 79q42 30 82 0t40 -89v-829q-2 -86 172 -72l5 -166h-162zM461 1376q-12 -61 -101 -63q2 2 -268 2q25 49 88 57zM401 1432h-268q25 51 86 57l281 6q-14 -63 -99 -63z" />
<glyph unicode="&#x627;&#x64b;" horiz-adv-x="417" arabic-form="isolated" d="M356 0h-141l-10 1325h141zM461 1520q-12 -61 -101 -64q2 2 -268 2q25 49 88 58zM401 1575h-268q25 51 86 57l281 6q-14 -63 -99 -63z" />
<glyph unicode="&#xfedf;&#xfee0;&#xfeea;" horiz-adv-x="1599" arabic-form="isolated" d="M1186 1290v160h57v-160h-57zM1397 1260v-158q0 -41 -25 -72t-75 -28t-83 73q-33 -67 -84 -69q-50 -2 -76 28t-26 68v158l59 2v-144q0 -57 46 -55q51 0 51 86v111l59 2v-111q0 -88 49 -88q47 -4 47 55v142h58zM1473 842q1 59 41 89t81 0t41 -79v-674q-41 -156 -166 -178 h-147q-55 18 -80 35q-27 -20 -90 -35h-51v-2l-146 2q-139 0 -174 145l2 390q-66 160 -159 30l-256 -336q-41 -53 69 -67l180 4q156 -20 148 -127q10 -27 -18 -66t-79 -39q-52 0 -67 31q-14 33 -88 35l-111 2q-131 -2 -188 90t21 225l223 295q84 137 168 177t192 2 q111 -37 127 -275l2 -256q-8 -100 90 -90h49q43 16 43 84v584q0 51 40 85t82 0t42 -89v-613q9 -45 58 -55q127 -4 121 102v574z" />
<glyph unicode="&#xfedf;&#xfe82;" horiz-adv-x="694" arabic-form="isolated" d="M408 166v6q131 -8 124 96v799q0 59 41 89t82 0t41 -79v-899q-39 -156 -166 -178l-323 -2l-25 4v2l-10 4q-2 0 -4 2q-45 22 -45 69q0 46 37 77l4 2q2 2 4 2l10 4v2h230zM203 1071q0 49 41 79t82 0t41 -89v-598q6 -68 36 -84q31 -15 31 -67t-43 -81l-18 -8l-43 -8 q-106 10 -127 147v709zM432 1303q0 47 47 47t47 -47q0 -15 -18 -39q-8 -20 -32 -45t-55 -25t-54 6l-23 8q-4 0 -30 9t-83 33t-81 24t-46 -14q21 -6 21 -7q23 -12 22 -41q0 -47 -47 -47q-29 0 -41 25l-4 4h-4q0 12 2 14l4 23q6 31 29 53q27 33 59 33t48 -8q51 -12 118 -45 q74 -31 107 -31t53 20v2q-39 13 -39 48z" />
<glyph unicode="&#xfee0;&#xfe82;" horiz-adv-x="817" arabic-form="final" d="M117 79q0 46 47 77l4 2q2 2 4 2l10 4v2h252q98 -2 92 102v799q0 59 41 90q45 29 86 -3t41 -85v-848q8 -57 76 -57h59v-164h-106q-63 18 -80 35q-23 -16 -90 -35l-352 -2l-25 4v2l-10 4q-2 0 -4 2q-45 23 -45 69zM197 1071q0 49 41 79q42 30 82 0t40 -89v-598 q6 -68 37 -83q31 -16 31 -68t-43 -81l-18 -8l-43 -8q-106 10 -127 147v709zM498 1350q47 0 47 -47q0 -26 -19 -39q-6 -20 -30 -45t-54 -25q-32 0 -57 6l-117 45q-76 29 -102 29t-41 -14l18 -7q23 -12 23 -41q0 -47 -47 -47q-27 0 -39 25l-4 4h-4v18q22 105 102 105 q23 0 39 -8q51 -12 119 -45q74 -31 106 -31t41 11q10 11 13 11q-13 7 -17 7q-25 16 -24 41q0 47 47 47z" />
<glyph unicode="&#xfedf;&#xfe84;" horiz-adv-x="657" arabic-form="isolated" d="M327 1350q-42 0 -42 41v12q-14 4 -25 0q-55 -25 14 -107l70 -39v-92q-96 90 -194 0v92l45 29q-29 84 -16 130t79 56t102 -55q8 -8 9 -26q0 -41 -42 -41zM373 170v6q127 -12 123 92v799q0 59 41 89t81 0t41 -79v-899q-41 -158 -167 -178l-324 -2l-25 4v2l-10 4q-2 0 -4 2 q-45 22 -45 76t45 76q2 2 4 2l10 4v2h230zM166 1071q0 49 41 79t82 0t41 -89v-598q6 -68 35 -84q31 -15 31 -69t-42 -79l-18 -8l-43 -8q-109 10 -127 147v709z" />
<glyph unicode="&#xfee0;&#xfe84;" horiz-adv-x="823" arabic-form="final" d="M399 1391q0 -41 -43 -41t-43 41q0 10 2 12q-14 4 -24 0q-62 -27 14 -107l70 -39v-92q-98 90 -195 0v92l45 29q-64 166 62 187q66 10 104 -56q0 -2 4 -7t4 -19zM117 79q0 46 47 77l4 2q2 2 4 2l10 4v2h252q98 -2 92 102v799q0 59 41 90q45 29 86 -3t41 -85v-848 q8 -57 76 -57h59v-164h-106q-63 18 -80 35q-23 -16 -90 -35l-352 -2l-25 4v2l-10 4q-2 0 -4 2q-45 23 -45 69zM197 1071q0 49 41 79q42 30 82 0t40 -89v-598q6 -68 37 -83q31 -16 31 -68t-43 -81l-18 -8l-43 -8q-106 10 -127 147v709z" />
<glyph unicode="&#xfedf;&#xfe88;" horiz-adv-x="700" arabic-form="isolated" d="M432 -109q0 -43 -42 -43t-42 43v11q-12 6 -22 2q-63 -23 12 -107l72 -41v-90q-98 90 -197 0v90l45 31q-29 86 -16 127q14 49 80 58t102 -56q8 -8 8 -25zM414 166v6q131 -8 125 96v799q0 59 41 89t82 0t40 -79v-899q-39 -156 -165 -178l-324 -2l-25 4v2l-10 4q-2 0 -4 2 q-45 22 -45 69q0 46 37 77l4 2q2 2 4 2l10 4v2h230zM209 1071q0 49 41 79t82 0t41 -89v-598q6 -68 37 -83q30 -16 30 -68t-43 -81l-18 -8l-43 -8q-106 10 -127 147v709z" />
<glyph unicode="&#xfee0;&#xfe88;" horiz-adv-x="837" arabic-form="final" d="M426 -109q0 -43 -43 -43t-43 43q0 8 2 11q-14 6 -25 2q-63 -27 15 -107l69 -41v-90q-96 90 -194 0v90l45 31q-31 84 -18 130t79 55t105 -56q0 -2 4 -6t4 -19zM135 79q0 46 35 77l4 2q2 2 4 2l10 4v2h252q109 -4 107 102v799q0 59 41 89t83 -2t42 -85v-848q12 -57 75 -57 h62v-164h-109q-63 18 -79 35q-27 -20 -91 -35l-352 -2l-24 4v2l-11 4q-2 0 -4 2q-45 23 -45 69zM217 1071q0 49 41 79t82 0t41 -89v-598q6 -68 35 -84q30 -15 30 -69t-40 -79l-19 -8l-43 -8q-109 10 -127 147v709z" />
<glyph unicode="&#xfedf;&#xfe8e;" horiz-adv-x="677" arabic-form="isolated" d="M385 166v6q131 -8 125 96v799q0 59 41 89t82 0t41 -79v-899q-39 -156 -166 -178l-324 -2l-24 4v2l-10 4q-1 0 -9 4q-41 23 -41 68t37 76l4 2q2 2 4 2l11 4v2h229zM180 1071q0 49 41 79t82 0t41 -89v-598q6 -68 37 -83q31 -16 31 -68t-43 -81l-19 -8l-43 -8 q-106 10 -127 147v709z" />
<glyph unicode="&#xfee0;&#xfe8e;" horiz-adv-x="821" arabic-form="final" d="M119 79q0 46 47 77l4 2q2 2 4 2l10 4v2h252q98 -2 92 102v799q0 59 41 90q45 29 86 -3t41 -85v-848q8 -57 76 -57h59v-164h-106q-63 18 -80 35q-23 -16 -90 -35l-352 -2l-25 4v2l-10 4q-2 0 -4 2q-45 23 -45 69zM199 1071q0 49 41 79t82 0t40 -89v-598q6 -68 37 -83 q31 -16 31 -68t-43 -81l-18 -8l-43 -8q-106 10 -127 147v709z" />
<glyph unicode="&#x671;" horiz-adv-x="491" arabic-form="final" d="M373 0q-158 0 -178 137v940q0 49 41 79q42 30 82 0t40 -89v-829q-2 -86 152 -72l4 -166h-141zM324 1450q-80 0 -134 -111h203q-8 111 -69 111zM106 1305v30h46v101h30v-58q47 104 137 105q111 0 111 -178h-324z" />
<glyph unicode="&#x67e;" horiz-adv-x="1437" arabic-form="final" d="M616 797h113v-11h2q43 -27 43 -67t-15 -57t-38 -25t-98 -2q-160 18 -231 -109t3 -247q76 -119 289 -113h406q117 -6 116 84v399q23 137 127 148l45 -11q8 -2 17 -8q43 -20 43 -75t-31 -72q-31 -14 -37 -82v-342q29 -53 80 -41l53 -4v-164h-16q-106 0 -148 49 q-17 -27 -87 -40t-142 -7h-420q-328 2 -432 190q-104 195 -15 401t373 206zM764 -461q0 109 108 109t109 -109q0 -109 -109 -108q-108 -1 -108 108zM1010 -332q-108 0 -109 110q0 110 109 109q108 1 108 -109t-108 -110zM627 -225q0 109 108 108q109 -1 109 -109t-108 -108 t-109 109z" />
<glyph unicode="&#x67e;" horiz-adv-x="323" arabic-form="initial" d="M326 164q0 -127 -133 -164l-203 2l2 162h90q80 0 80 90v399q20 137 127 148l43 -10q12 -4 18 -9q43 -20 43 -75t-31 -72q-30 -14 -36 -82v-389zM31 -461q1 109 109 109t108 -109t-109 -108q-108 -1 -108 108zM385 -222q-1 -110 -109 -110t-108 110t108 109 q109 1 109 -109zM-106 -225q0 109 108 108q109 -1 109 -109q-1 -108 -109 -108t-108 109z" />
<glyph unicode="&#x67e;" horiz-adv-x="483" arabic-form="medial" d="M393 707q0 -55 -31 -72q-31 -14 -36 -82v-332q12 -57 77 -57h91v-164h-129q-66 16 -91 35q-29 -18 -79 -35l-207 -2v164l94 2q80 0 80 90v399q20 137 127 148l43 -10q12 -4 18 -9q43 -20 43 -75zM133 -461q0 109 109 109t108 -109q0 -109 -108 -108q-109 -1 -109 108z M378 -332q-108 0 -108 110t109 109q109 1 109 -109q-2 -110 -110 -110zM-4 -225q0 109 108 108q109 -1 109 -109q-1 -108 -109 -108t-108 109z" />
<glyph unicode="&#x6a4;" horiz-adv-x="1554" arabic-form="final" d="M1116 0h-432q-330 4 -434 190q-104 195 -16 401t374 206h115v-11q43 -27 43 -80t-45 -65q-31 -12 -107 -6q-160 18 -230 -109t5 -247q68 -106 275 -117v4h493l-246 106q-229 74 -116 246l159 154q119 119 190 138t185 -17q90 -31 117 -185q12 -31 8 -51l2 -2v-328 q2 -2 2 -10v-10q16 -43 72 -43h90v-164h-127q-74 18 -90 35q-25 -16 -80 -35l-207 -2v2zM1288 272v273q-61 145 -184 41l-88 -78q-88 -76 33 -123zM1236 1186q-110 0 -110 108t110 109q110 -1 110 -109t-110 -108zM1360 946q-109 0 -109 110t109 109q109 1 109 -109 t-109 -110zM1196 1058q0 -108 -110 -108t-109 109q-1 109 109 109q110 -2 110 -110z" />
<glyph unicode="&#x6a4;" horiz-adv-x="768" arabic-form="initial" d="M534 1186q-110 0 -110 108t110 109q110 0 109 -109q1 -108 -109 -108zM657 946q-109 0 -109 110t109 109q109 1 109 -109t-109 -110zM274 1059q0 109 110 109t110 -110q0 -108 -110 -108t-110 109zM479 166l-243 106q-229 74 -117 246l157 154q119 119 190 138t185 -17 q102 -35 125 -236l2 -2v-328q8 -66 -35 -135q-39 -70 -108 -92l-647 2l-2 164h493zM614 270v267q-61 158 -188 49l-86 -78q-88 -76 31 -123z" />
<glyph unicode="&#x6a4;" horiz-adv-x="952" arabic-form="medial" d="M475 166l-246 106q-229 74 -116 246l159 154q119 119 190 138t185 -17q102 -35 123 -236l4 -2v-346q8 -49 193 -39l-2 -170h-107q-80 -2 -135 43q-27 -20 -94 -43l-652 2l5 164h493zM610 270v267q-63 156 -188 49l-88 -78q-88 -76 33 -123zM511 1186q-110 0 -110 108 t110 109q110 -1 110 -109t-110 -108zM635 946q-109 0 -109 110t109 109q109 1 109 -109t-109 -110zM471 1058q0 -108 -110 -108t-109 109q0 109 110 109q110 -2 109 -110z" />
<glyph unicode="&#x686;" horiz-adv-x="1196" arabic-form="final" d="M1016 -424q-78 0 -78 79t78 79t78 -79t-78 -79zM1110 -268q-78 0 -78 78t78 78t78 -78t-78 -78zM1126 0v-2l-665 2q-88 0 -96 -76q10 -74 100 -74q305 51 379 -104q43 -82 7 -134t-89 -43q-54 9 -66 27t-12 44t-34 48t-112 4t-161 -5q-205 35 -205 237q4 111 84 170 q90 72 266 72h391q-111 102 -303 379q-86 119 -157 88q-72 -27 -150 -148q-31 -27 -76 -16q-41 13 -45 69t23 87q88 129 201 166q205 70 360 -179l276 -360q55 -63 170 -92v-160h-86zM932 -266q-78 0 -78 78t78 78t78 -78t-78 -78z" />
<glyph unicode="&#x686;" horiz-adv-x="1005" arabic-form="initial" d="M952 0h-975l-4 162l725 4q-88 103 -295 379q-85 119 -159 89t-150 -149q-33 -27 -74 -15t-45 68t23 87q88 129 201 166q201 70 358 -179l238 -311q23 -29 41 -49q59 -70 131 -102q39 -20 39 -68t-39 -70l-15 -6v-6zM287 -461q1 109 109 109t108 -109t-109 -108 q-108 -1 -108 108zM641 -222q-1 -110 -109 -110t-108 110t108 109q109 1 109 -109zM150 -225q0 109 108 108q109 -1 109 -109q-1 -108 -109 -108t-108 109z" />
<glyph unicode="&#x686;" horiz-adv-x="1013" arabic-form="medial" d="M-10 -2l-2 164l755 2q-106 104 -313 381q-88 119 -160 88q-72 -27 -149 -148q-31 -27 -76 -16q-41 13 -44 67t22 89q90 129 200 166q203 72 361 -179l100 -133q47 -63 80 -104l96 -123q55 -63 172 -92v-160zM360 -481q0 109 109 109t109 -110q0 -108 -109 -108t-109 109z M498 -243q0 110 108 110t109 -110q0 -110 -109 -109q-108 -1 -108 109zM223 -246q0 109 109 109t108 -109q0 -109 -108 -108q-109 -1 -109 108z" />
<glyph unicode="&#x698;" horiz-adv-x="598" arabic-form="final" d="M516 707q0 -55 -31 -72q-31 -14 -36 -82v-332q12 -57 77 -57h90v-168q-152 -8 -178 39q-29 -352 -311 -363h-21q-137 23 -147 127q6 12 6 21l4 24l8 19q25 41 70 41q59 16 95 -62q9 -20 79 24t64 388v399q20 137 127 148l43 -10q12 -4 18 -9q43 -20 43 -75zM423 1186 q-110 0 -110 108t110 109q110 0 109 -109q1 -108 -109 -108zM547 946q-109 0 -109 110t109 109q109 1 109 -109t-109 -110zM383 1058q0 -108 -110 -108t-109 109q0 109 110 109q110 -2 109 -110z" />
<glyph unicode="&#x6cc;" horiz-adv-x="307" arabic-form="initial" d="M59 -334q-109 0 -109 110t109 109q109 1 109 -109t-109 -110zM57 -604q-109 0 -109 110t110 109q108 1 108 -109t-109 -110zM305 164q0 -127 -96 -150q-8 -20 -229 -12l2 162h79q80 0 80 90v399q20 137 127 148l43 -10q62 -21 62 -80t-31 -76q-31 -14 -37 -82v-389z" />
<glyph unicode="&#x6cc;" horiz-adv-x="477" arabic-form="medial" d="M383 -220q0 -108 -110 -108t-109 109q0 109 110 109q110 -2 109 -110zM0 -326q-109 0 -109 110t109 110t109 -110t-109 -110zM381 706q0 -54 -30 -70t-36 -83v-332q12 -57 76 -57h101v-164h-148q-63 18 -80 35q-27 -20 -90 -35l-194 2v160l92 2q80 0 80 90v399 q18 137 127 148l43 -10q12 -4 18 -9q41 -22 41 -76z" />
<glyph unicode="&#x622;" horiz-adv-x="491" arabic-form="final" d="M385 1303q0 47 47 47t47 -47q0 -15 -18 -39q-8 -20 -32 -45q-23 -25 -55 -25t-55 6l-22 8q-4 0 -30 9t-83 33t-82 24t-45 -14l19 -7q23 -10 22 -41q0 -47 -45 -47q-29 0 -41 25l-4 4h-4q0 12 2 14l4 23q6 33 27 53q27 33 59 33t49 -8q51 -12 119 -45q74 -31 107 -31 t53 20v2q-11 7 -25 13t-14 35zM342 0q-158 0 -178 137v940q0 49 41 79t82 0t41 -89v-829q-2 -86 172 -72l4 -166h-162z" />
<glyph unicode="&#x623;" horiz-adv-x="481" arabic-form="final" d="M324 1350q-43 0 -43 41q0 10 2 12q-14 4 -25 0q-62 -27 14 -107l70 -39v-92q-96 90 -195 0v92l46 29q-64 166 61 187q66 10 104 -56q0 -2 4 -7t5 -19q0 -41 -43 -41zM340 0q-158 0 -178 137v940q0 49 41 79t82 0t41 -89v-829q-2 -86 172 -72l4 -166h-162z" />
<glyph unicode="&#x624;" horiz-adv-x="1038" arabic-form="final" d="M862 1081q0 -43 -42 -43t-42 43v11q-14 6 -24 2q-57 -29 14 -107l70 -41v-90q-94 88 -195 0v90l45 31q-27 84 -16 127q16 47 83 57t99 -53q8 -8 8 -27zM948 166h142v-168h-148q-23 -133 -90 -225q-78 -96 -225 -101h-21q-137 23 -147 127l16 64q29 41 72 41q60 14 95 -62 q9 -20 79 25q41 29 53 133l-375 2q-131 -2 -188 90t22 225l224 295q156 244 360 181q100 -33 131 -230v-397zM780 162v373q-63 160 -159 30l-256 -336q-39 -49 86 -67h329z" />
<glyph unicode="&#x625;" horiz-adv-x="479" arabic-form="final" d="M340 0q-156 0 -176 137v940q0 49 41 79t82 0t41 -89v-829q-2 -86 172 -72l4 -166h-164zM389 -109q0 -43 -43 -43t-43 43q0 8 2 11q-14 6 -24 2q-64 -27 14 -107l70 -41v-90q-96 90 -195 0v90l45 31q-62 169 61 184q66 10 105 -55q0 -2 4 -6t4 -19z" />
<glyph unicode="&#x626;" horiz-adv-x="1415" arabic-form="final" d="M668 811q0 -43 -42 -43t-42 43v10q-10 6 -23 2q-57 -25 12 -106l72 -39v-92q-98 90 -196 0v92l45 29q-27 84 -17 127q16 49 84 58t101 -58q6 -8 6 -23zM537 530h20q51 -14 68 -34q10 -8 18 -54q0 -86 -86 -86q-18 0 -41 13q-162 -63 -154 -289q10 -223 336 -246 q217 10 287 164q-8 2 -18 2h-19q-25 4 -49 0l-111 2q-131 -2 -188 90t21 225l225 295q84 137 168 177t190 2q115 -37 129 -275v-256q-8 -100 94 -94h64l-10 -168l-142 2q-137 0 -172 145l2 390q-63 160 -159 30l-256 -336q-39 -72 69 -67l191 4q123 -14 131 -66l8 -39 q4 -18 0 -26l-4 -31q-63 -352 -492 -332q-311 23 -407 240q-94 217 5 406t261 210q6 2 21 2z" />
<glyph unicode="&#x626;" horiz-adv-x="311" arabic-form="initial" d="M319 164q0 -127 -96 -150q-8 -20 -239 -12l2 162h90q80 0 80 90v399q20 137 127 148l43 -10q12 -4 18 -9q43 -20 43 -75t-31 -72q-31 -14 -37 -82v-389zM401 1081q0 -43 -43 -43t-43 43q0 8 2 11q-14 6 -24 2q-64 -27 14 -107l70 -41v-90q-96 90 -195 0v90l45 31 q-64 165 62 184q66 10 104 -53q0 -2 4 -7t4 -20z" />
<glyph unicode="&#x626;" horiz-adv-x="485" arabic-form="medial" d="M397 1081q0 -43 -43 -43t-43 43q0 8 2 11q-14 6 -24 2q-64 -27 14 -107l70 -41v-90q-96 90 -195 0v90l45 31q-64 165 62 184q66 10 104 -53q0 -2 4 -7t4 -20zM385 706q0 -54 -30 -70t-36 -83v-332q12 -57 76 -57h101v-164h-148q-63 18 -80 35q-27 -20 -90 -35l-194 2v160 l92 2q80 0 80 90v399q18 137 127 148l43 -10q12 -4 18 -9q41 -22 41 -76z" />
<glyph unicode="&#x627;" horiz-adv-x="460" arabic-form="final" d="M336 0q-158 0 -178 137v940q0 49 40 79t85 1q41 -31 41 -90v-829q-4 -86 151 -72l4 -166h-143z" />
<glyph unicode="&#x628;" horiz-adv-x="1431" arabic-form="final" d="M874 -336q-108 0 -108 110t108 109q109 1 109 -109t-109 -110zM612 797h113v-11h2q43 -27 43 -67t-15 -57t-38 -25t-99 -2q-160 18 -230 -109t3 -247q76 -119 289 -113h405q117 -6 117 84v399q23 137 127 148l45 -11q8 -2 17 -8q43 -20 43 -75t-31 -72q-31 -14 -37 -82 v-342q29 -53 80 -41l53 -4v-164h-16q-106 0 -148 49q-17 -27 -87 -40t-142 -7h-420q-328 2 -432 190q-104 195 -15 401t373 206z" />
<glyph unicode="&#x628;" horiz-adv-x="315" arabic-form="initial" d="M319 164q0 -127 -133 -164l-202 2l2 162h90q80 0 80 90v399q20 137 127 148l43 -10q12 -4 18 -9q43 -20 43 -75t-31 -72q-31 -14 -37 -82v-389zM104 -328q-109 0 -108 109q0 109 108 108q109 -1 109 -109t-109 -108z" />
<glyph unicode="&#x628;" horiz-adv-x="493" arabic-form="medial" d="M121 -336q-109 0 -109 110t109 109q109 1 109 -109t-109 -110zM387 707q0 -55 -31 -72q-31 -14 -37 -82v-332q12 -57 78 -57h101v-164h-150q-55 18 -80 35q-27 -20 -90 -35l-194 2v160l92 2q80 0 80 90v399q20 137 127 148l43 -10q12 -4 18 -9q43 -20 43 -75z" />
<glyph unicode="&#x629;" horiz-adv-x="1050" arabic-form="final" d="M1094 166v-168l-142 2q-141 0 -172 145l2 390q-63 160 -159 30l-258 -336q-39 -51 69 -67l180 4q160 -20 150 -127q6 -27 -19 -62q-27 -43 -77 -43t-68 31q-14 33 -90 35l-111 2q-131 -2 -188 90t22 225l224 295q84 137 170 177t190 2q113 -37 127 -275v-256 q-8 -100 84 -94h66zM856 946q-108 0 -108 110t108 109q109 1 109 -109t-109 -110zM582 950q-109 0 -109 109t109 108q109 0 108 -108q1 -109 -108 -109z" />
<glyph unicode="&#x62a;" horiz-adv-x="1441" arabic-form="final" d="M614 797h113v-11h2q43 -27 43 -67t-15 -57t-38 -25t-98 -2q-160 18 -231 -109t3 -247q76 -119 289 -113h405q117 -6 117 84v399q23 137 127 148l45 -11q8 -2 17 -8q43 -20 43 -75t-31 -72q-31 -14 -37 -82v-342q29 -53 80 -41l53 -4v-164h-16q-106 0 -148 49 q-17 -27 -87 -40t-142 -7h-420q-328 2 -432 190q-104 195 -15 401t373 206zM1067 946q-109 0 -109 110t109 109q109 1 109 -109t-109 -110zM794 950q-110 0 -110 109t110 109t109 -109q1 -109 -109 -109z" />
<glyph unicode="&#x62a;" horiz-adv-x="323" arabic-form="initial" d="M289 946q-109 0 -109 110t109 109q109 1 109 -109t-109 -110zM125 1058q0 -108 -110 -108t-109 109q0 109 110 109q110 -2 109 -110zM324 164q0 -127 -134 -164l-202 2l2 162h90q80 0 80 90v399q20 137 127 148l43 -10q12 -4 18 -9q43 -20 43 -75t-31 -72 q-30 -14 -36 -82v-389z" />
<glyph unicode="&#x62a;" horiz-adv-x="481" arabic-form="medial" d="M385 706q0 -54 -30 -70t-36 -83v-332q12 -57 76 -57h101v-164h-148q-63 18 -80 35q-27 -20 -90 -35l-194 2v160l92 2q80 0 80 90v399q18 137 127 148l43 -10q12 -4 18 -9q41 -22 41 -76zM397 946q-109 0 -109 110t109 109q109 1 109 -109t-109 -110zM123 950 q-109 0 -109 109t109 108q109 0 108 -108q1 -109 -108 -109z" />
<glyph unicode="&#x62b;" horiz-adv-x="1445" arabic-form="final" d="M948 1403q110 -1 109 -109q0 -108 -110 -108t-109 108q0 109 110 109zM618 797h113v-11h2q43 -27 43 -67t-15 -57t-38 -25t-98 -2q-160 18 -231 -109t3 -247q76 -119 289 -113h406q117 -6 116 84v399q23 137 127 148l45 -11q8 -2 17 -8q43 -20 43 -75t-31 -72 q-31 -14 -37 -82v-342q29 -53 80 -41l53 -4v-164h-16q-106 0 -148 49q-17 -27 -87 -40t-142 -7h-420q-328 2 -432 190q-104 195 -15 401t373 206zM1071 946q-109 0 -109 110t109 109q109 1 109 -109t-109 -110zM798 950q-110 0 -110 109t110 109t109 -109q1 -109 -109 -109z " />
<glyph unicode="&#x62b;" horiz-adv-x="317" arabic-form="initial" d="M324 164q0 -127 -134 -164l-202 2l2 162h90q80 0 80 90v399q20 137 127 148l43 -10q12 -4 18 -9q43 -20 43 -75t-31 -72q-30 -14 -36 -82v-389zM137 1186q-109 0 -109 108t110 109q108 -1 108 -109t-109 -108zM274 946q-108 0 -108 110t108 109q109 1 109 -109t-109 -110 zM0 950q-109 0 -109 109t109 109t109 -110q0 -108 -109 -108z" />
<glyph unicode="&#x62b;" horiz-adv-x="487" arabic-form="medial" d="M260 1186q-108 0 -108 108t108 109q108 -1 109 -109q0 -108 -109 -108zM385 706q0 -54 -30 -70t-36 -83v-332q12 -57 76 -57h101v-164h-148q-63 18 -80 35q-27 -20 -90 -35l-194 2v160l92 2q80 0 80 90v399q18 137 127 148l43 -10q12 -4 18 -9q41 -22 41 -76zM397 946 q-109 0 -109 110t109 109q109 1 109 -109t-109 -110zM123 950q-109 0 -109 109t109 108q109 0 108 -108q1 -109 -108 -109z" />
<glyph unicode="&#x62c;" horiz-adv-x="1183" arabic-form="final" d="M1118 0v-2l-665 2q-88 0 -97 -76q10 -74 101 -74q305 51 379 -104q43 -82 7 -134t-89 -43q-54 9 -66 27t-12 44t-34 48t-112 4t-161 -5q-205 35 -205 237q4 111 84 170q90 72 266 72h391q-111 102 -303 379q-86 119 -158 88q-72 -27 -149 -148q-31 -27 -76 -16 q-41 13 -45 69t23 87q88 129 200 166q205 70 361 -179l276 -360q55 -63 170 -92v-160h-86zM1016 -328q-109 0 -109 109t109 108q109 0 108 -108q1 -109 -108 -109z" />
<glyph unicode="&#x62c;" horiz-adv-x="1011" arabic-form="initial" d="M961 0h-975l-4 162l725 4q-104 121 -295 379q-86 119 -160 89t-150 -149q-34 -27 -74 -15t-44 68t22 87q88 129 201 166q201 70 358 -179l238 -311q23 -29 41 -49q59 -70 131 -102q39 -20 39 -68t-39 -70l-14 -6v-6zM541 -218q0 -110 -110 -110t-109 111q0 109 110 108 q109 1 109 -109z" />
<glyph unicode="&#x62c;" horiz-adv-x="1003" arabic-form="medial" d="M-27 -2l-2 164l756 2q-106 104 -313 381q-88 119 -160 88q-72 -27 -150 -148q-31 -27 -75 -16q-41 13 -44 67t21 89q90 129 201 166q203 72 360 -179l101 -133q47 -63 80 -104l96 -123q55 -63 172 -92v-160zM432 -328q-108 0 -108 110t108 109q109 1 109 -109t-109 -110z " />
<glyph unicode="&#x62d;" horiz-adv-x="1196" arabic-form="final" d="M1126 0v-2l-665 2q-88 0 -96 -76q10 -74 100 -74q305 51 379 -104q43 -82 7 -134t-89 -43q-54 9 -66 27t-12 44t-34 48t-112 4t-161 -5q-205 35 -205 237q4 111 84 170q90 72 266 72h391q-111 102 -303 379q-86 119 -157 88q-72 -27 -150 -148q-31 -27 -76 -16 q-41 13 -45 69t23 87q88 129 201 166q205 70 360 -179l276 -360q55 -63 170 -92v-160h-86z" />
<glyph unicode="&#x62d;" horiz-adv-x="1011" arabic-form="initial" d="M967 0h-975l-4 162l725 4q-104 121 -295 379q-86 119 -158 88q-76 -29 -151 -148q-33 -27 -74 -15t-45 68t22 87q88 129 201 166q201 70 358 -179l238 -311q23 -29 41 -49q59 -70 131 -102q39 -20 39 -68t-39 -70l-14 -6v-6z" />
<glyph unicode="&#x62d;" horiz-adv-x="1011" arabic-form="medial" d="M-18 -2l-2 164l755 2q-106 104 -313 381q-88 119 -160 88q-72 -27 -149 -148q-31 -27 -76 -16q-41 13 -44 67t21 89q90 129 201 166q203 72 360 -179l101 -133q47 -63 80 -104l96 -123q55 -63 172 -92v-160z" />
<glyph unicode="&#x62e;" horiz-adv-x="1191" arabic-form="final" d="M1122 0v-2l-665 2q-88 0 -97 -76q10 -74 101 -74q305 51 379 -104q43 -82 7 -134t-89 -43q-54 9 -66 27t-12 44t-34 48t-112 4t-161 -5q-205 35 -205 237q4 111 84 170q90 72 266 72h391q-111 102 -303 379q-86 119 -157 88q-72 -27 -150 -148q-31 -27 -76 -16 q-41 13 -45 69t23 87q88 129 200 166q205 70 361 -179l276 -360q55 -63 170 -92v-160h-86zM500 950q-109 0 -109 109t109 108q109 0 108 -108q1 -109 -108 -109z" />
<glyph unicode="&#x62e;" horiz-adv-x="1017" arabic-form="initial" d="M963 0h-975l-4 162l725 4q-104 121 -295 379q-86 119 -160 89t-150 -149q-34 -27 -74 -15t-44 68t22 87q88 129 201 166q201 70 358 -179l238 -311q23 -29 41 -49q59 -70 131 -102q39 -20 39 -68t-39 -70l-14 -6v-6zM420 1052q0 -110 -110 -110t-109 111q0 109 110 108 q109 1 109 -109z" />
<glyph unicode="&#x62e;" horiz-adv-x="1017" arabic-form="medial" d="M-12 -2l-2 164l755 2q-106 104 -313 381q-88 119 -160 88q-72 -27 -149 -148q-31 -27 -76 -16q-41 13 -44 67t21 89q90 129 201 166q203 72 361 -179l100 -133q47 -63 80 -104l96 -123q55 -63 172 -92v-160zM324 942q-109 0 -109 110t109 109q109 1 109 -109t-109 -110z " />
<glyph unicode="&#x62f;" horiz-adv-x="1220" arabic-form="final" d="M147 84q0 88 109 78h606q121 18 80 67l-256 336q-94 119 -278 29q-90 -49 -132 22q-37 76 70 121q125 92 272 51t232 -176l223 -295q51 -82 45 -157h111v-160h-1024v6q-12 6 -17 6q-41 29 -41 72z" />
<glyph unicode="&#x630;" horiz-adv-x="1230" arabic-form="final" d="M158 84q0 88 108 78h606q121 18 80 67l-256 336q-94 119 -278 29q-90 -49 -131 22q-37 76 69 121q124 92 272 51t232 -176l223 -295q51 -82 45 -157h111v-160h-1024v6q-12 6 -16 6q-41 29 -41 72zM559 950q-109 0 -108 109q0 109 108 108q109 -1 109 -109t-109 -108z" />
<glyph unicode="&#x631;" horiz-adv-x="593" arabic-form="final" d="M506 711q0 -59 -31 -76q-31 -14 -37 -82v-332q12 -57 78 -57h90v-168q-152 -8 -178 39q-29 -352 -311 -363h-21q-137 23 -147 127q6 12 6 21l4 24l8 19q27 41 70 41q59 16 95 -62q9 -20 79 24t63 388v399q20 137 127 148l43 -10q62 -21 62 -80z" />
<glyph unicode="&#x632;" horiz-adv-x="598" arabic-form="final" d="M510 1058q0 -108 -110 -108t-109 109q-1 109 109 109q110 -2 110 -110zM510 707q0 -55 -31 -72q-31 -14 -37 -82v-332q12 -57 78 -57h90v-168q-152 -8 -178 39q-29 -352 -311 -363h-21q-137 23 -147 127q6 12 6 21l4 24l8 19q27 41 70 41q59 16 95 -62q9 -20 79 24 t64 388v399q20 137 127 148l43 -10q12 -4 18 -9q43 -20 43 -75z" />
<glyph unicode="&#x633;" horiz-adv-x="1781" arabic-form="final" d="M539 532h22q70 -23 86 -88q0 -86 -86 -86q-20 0 -41 13q-162 -63 -158 -291q2 -223 261 -246q207 10 268 166l2 664q14 129 121 137l43 -10q12 -4 18 -9q43 -20 43 -74t-29 -70t-36 -67q0 -8 2 -12l-2 -334q6 -61 73 -61q80 0 80 90v399q20 139 127 148l43 -10 q62 -21 62 -80t-31 -76q-31 -14 -37 -82v-313q0 -76 78 -76t78 90v399q20 139 127 148l45 -10q12 -4 18 -9q41 -22 41 -76t-30 -70t-35 -83v-336q12 -53 75 -53h80v-168q-112 -10 -182 20q-6 4 -8 4l-17 13l-22 -13q-14 -6 -29 -10q-102 -25 -190 -6q-41 10 -72 43 q-23 -23 -57 -31q-102 -31 -197 -12l-29 10v-16q-59 -346 -452 -326q-266 47 -349 253t13 395t262 210q6 2 21 2z" />
<glyph unicode="&#x633;" horiz-adv-x="956" arabic-form="initial" d="M1026 707q0 -55 -31 -72q-33 -14 -37 -82v-389q0 -129 -101 -154t-191 -6q-41 8 -70 43q-25 -20 -59 -31q-100 -31 -197 -12q-39 8 -64 37q-16 -16 -65 -41h-234l3 162l94 2q80 0 80 90v399q23 139 127 148l43 -10q12 -4 18 -9q43 -20 43 -75t-31 -72q-33 -14 -37 -82 v-313q0 -76 76 -76q82 0 82 90v399q18 137 127 148l43 -10q60 -19 60 -79t-31 -76t-35 -83v-313q0 -76 78 -76t78 90v399q23 139 127 148l43 -10q12 -4 18 -9q43 -20 43 -75z" />
<glyph unicode="&#x633;" horiz-adv-x="1071" arabic-form="medial" d="M51 164q80 0 80 90v399q18 137 127 148l43 -10q12 -4 18 -9q41 -22 41 -76t-30 -70t-35 -83v-313q0 -76 78 -76t78 90v399q20 137 127 148l43 -10q12 -4 18 -9q43 -20 43 -75t-31 -72q-31 -14 -37 -82v-313q0 -76 78 -76t78 90v399q18 137 127 148l43 -10q12 -4 18 -9 q43 -20 43 -75t-30 -72q-31 -14 -37 -82v-336q16 -53 76 -53h80v-162l-97 -4q-68 12 -110 35q-16 -15 -49 -23q-199 -40 -263 37q-23 -23 -57 -31q-100 -31 -197 -12q-41 10 -65 37q-23 -23 -100 -43l-170 2l-11 164h80z" />
<glyph unicode="&#x634;" horiz-adv-x="1777" arabic-form="final" d="M1337 1186q-109 0 -109 108t110 109q108 -1 108 -109t-109 -108zM1474 946q-110 0 -110 110t110 110t109 -109q1 -111 -109 -111zM1200 950q-109 0 -108 109q0 109 108 108q109 -1 109 -109t-109 -108zM528 532h23q70 -23 86 -88q0 -86 -86 -86q-20 0 -41 13 q-162 -63 -158 -291q2 -223 260 -246q207 10 269 166l2 664q14 129 121 137l43 -10q12 -4 18 -9q43 -20 43 -74t-29 -70t-37 -67q0 -8 2 -12l-2 -334q6 -61 74 -61q80 0 80 90v399q20 139 127 148l43 -10q12 -4 18 -9q43 -20 43 -75t-30 -72q-31 -14 -37 -82v-313 q0 -76 78 -76t78 90v399q20 139 126 148l46 -10q12 -4 18 -9q41 -22 41 -76t-30 -70t-36 -83v-336q12 -53 76 -53h80v-168q-112 -10 -182 20q-6 4 -8 4l-17 13l-22 -13q-14 -6 -29 -10q-102 -25 -190 -6q-41 10 -72 43q-23 -23 -57 -31q-102 -31 -197 -12l-29 10v-16 q-59 -346 -452 -326q-266 47 -350 253t14 395q96 189 262 210q6 2 20 2z" />
<glyph unicode="&#x634;" horiz-adv-x="954" arabic-form="initial" d="M1018 1058q0 -108 -110 -108t-109 109q-1 109 109 109q110 -2 110 -110zM588 950q-109 0 -109 109t109 108q109 0 108 -108q1 -109 -108 -109zM268 950q-109 0 -108 109q0 109 108 108q109 -1 109 -109t-109 -108zM1024 707q0 -55 -31 -72q-33 -14 -37 -82v-389 q0 -129 -101 -154t-191 -6q-41 8 -70 43q-25 -20 -59 -31q-100 -31 -197 -12q-39 8 -64 37q-16 -16 -65 -41h-234l2 162l95 2q80 0 80 90v399q23 139 127 148l43 -10q12 -4 18 -9q43 -20 43 -75t-31 -72q-33 -14 -37 -82v-313q0 -76 76 -76q82 0 82 90v399q18 137 127 148 l43 -10q60 -20 60 -80q-1 -59 -31 -75t-35 -83v-313q0 -76 78 -76t78 90v399q23 139 127 148l43 -10q12 -4 18 -9q43 -20 43 -75z" />
<glyph unicode="&#x634;" horiz-adv-x="1071" arabic-form="medial" d="M893 950q-109 0 -109 109t109 108q109 0 108 -108q1 -109 -108 -109zM682 1058q0 -108 -110 -108t-109 109q-1 109 109 109q110 -2 110 -110zM253 950q-110 0 -110 109t110 109t109 -109q1 -109 -109 -109zM53 164q80 0 80 90v399q18 137 127 148l43 -10q60 -20 60 -80 q-1 -59 -31 -75t-35 -83v-313q0 -76 78 -76t78 90v399q20 137 127 148l43 -10q12 -4 18 -9q43 -20 43 -75t-31 -72q-31 -14 -37 -82v-313q0 -76 78 -76t78 90v399q18 137 127 148l43 -10q62 -21 62 -80t-31 -76q-31 -14 -37 -82v-336q16 -53 76 -53h80v-162l-97 -4 q-68 12 -110 35q-16 -15 -49 -23q-199 -40 -263 37q-23 -23 -57 -31q-100 -31 -197 -12q-41 10 -65 37q-23 -23 -100 -43l-170 2l-11 164h80z" />
<glyph unicode="&#x635;" horiz-adv-x="1845" arabic-form="final" d="M530 532h31q51 -14 63 -28t23 -60q0 -86 -86 -86q-20 0 -41 13q-162 -63 -158 -291q2 -223 263 -246q207 10 266 166l2 557q0 49 40 79t83 1q41 -31 41 -90v-215l231 280q84 137 168 177t191 2q113 -37 129 -275v-256q0 -47 -17 -96h144v-166h-856q-59 -346 -455 -326 q-266 47 -349 254t15 395t262 209q4 2 10 2zM1540 164q72 0 72 94v277q-66 160 -160 30l-266 -336l-56 -65h410z" />
<glyph unicode="&#x635;" horiz-adv-x="1007" arabic-form="initial" d="M285 547v-215l231 280q84 137 168 177q84 41 194 3t126 -276v-256q4 -250 -191 -262l-846 4l-2 162l164 2l-8 391q0 49 41 79t82 0t41 -89zM770 164q70 0 72 94v277q-63 160 -162 30l-264 -336l-58 -65h412z" />
<glyph unicode="&#x635;" horiz-adv-x="1161" arabic-form="medial" d="M313 547v-215l232 280q84 137 168 177t190 2q113 -37 129 -275v-235q0 -55 -20 -109h168v-172h-328q-8 0 -10 -2l-869 4v162l185 2l-8 391q0 49 40 79t82 0q41 -30 41 -89zM799 164q70 0 69 94v277q-63 160 -159 30l-267 -336l-55 -65h412z" />
<glyph unicode="&#x636;" horiz-adv-x="1849" arabic-form="final" d="M535 532h30q51 -14 63 -28t23 -60q0 -86 -86 -86q-20 0 -41 13q-162 -63 -157 -291q2 -223 262 -246q207 10 266 166l2 557q0 49 40 79t83 1q41 -31 41 -90v-215l231 280q84 137 168 177t191 2q113 -37 129 -275v-256q0 -47 -17 -96h144v-166h-856q-59 -346 -455 -326 q-266 47 -349 254t15 395t262 209q4 2 11 2zM1534 950q-109 0 -109 109t109 108q109 0 108 -108q1 -109 -108 -109zM1544 164q72 0 72 94v277q-66 160 -160 30l-266 -336l-55 -65h409z" />
<glyph unicode="&#x636;" horiz-adv-x="993" arabic-form="initial" d="M274 547v-215l232 280q84 137 168 177t192 2q111 -37 127 -275v-256q4 -250 -190 -262l-826 4l-2 162l144 2l-8 391q0 49 41 79q42 30 82 0t40 -89zM760 164q70 0 71 94v277q-63 160 -161 30l-264 -336l-58 -65h412zM749 950q-110 0 -110 109t110 109t109 -109 q1 -109 -109 -109z" />
<glyph unicode="&#x636;" horiz-adv-x="1155" arabic-form="medial" d="M307 547v-215l232 280q84 137 168 177t190 2q113 -37 129 -275v-235q0 -55 -20 -109h188v-172h-348q-8 0 -10 -2l-869 4v162l185 2l-9 391q0 49 41 79t82 0t41 -89zM793 164q70 0 69 94v277q-63 160 -160 30l-266 -336l-55 -65h412zM780 950q-109 0 -108 109 q0 109 108 108q109 -1 109 -109t-109 -108z" />
<glyph unicode="&#x637;" horiz-adv-x="1232" arabic-form="final" d="M283 164q29 0 53 16v897q0 49 40 79t83 1q41 -31 41 -90v-614l123 159q81 137 165 177t193 2q113 -37 129 -275v-256q8 -100 88 -90h64l-5 -172l-1048 2q-55 4 -76 41q-27 41 2 82q23 37 76 41h72zM944 164l2 371q-66 160 -160 30l-256 -336q-29 -45 15 -61l59 -4h340z " />
<glyph unicode="&#x637;" horiz-adv-x="870" arabic-form="initial" d="M-20 164h61q31 0 53 16v897q0 49 41 79t82 0t41 -89v-614l123 159q84 137 167 177t191 2q111 -37 127 -275v-256q4 -250 -190 -262l-696 4v162zM633 164q70 0 72 94v277q-63 160 -160 30l-256 -336q-27 -45 14 -61l59 -4h271z" />
<glyph unicode="&#x637;" horiz-adv-x="1028" arabic-form="medial" d="M1038 166v-168l-1058 4v160l83 2q31 0 54 16v897q0 49 41 79t82 0t41 -89v-614l122 159q84 137 167 177q83 41 193 3t126 -276v-256q-8 -100 86 -94h63zM725 164l2 371q-63 160 -160 30l-256 -336q-27 -45 15 -61l59 -4h340z" />
<glyph unicode="&#x638;" horiz-adv-x="1220" arabic-form="final" d="M258 164q29 0 53 16v897q0 49 40 79t83 1q41 -31 41 -90v-614l123 159q82 137 166 177t192 2q113 -37 129 -275v-256q-10 -98 74 -96h84l10 -166l-1069 2q-55 4 -75 41q-27 41 2 82q23 37 75 41h72zM920 164l2 371q-66 160 -160 30l-256 -336q-29 -45 14 -61l60 -4h340z M839 950q-110 0 -110 109t110 109t109 -109q1 -109 -109 -109z" />
<glyph unicode="&#x638;" horiz-adv-x="868" arabic-form="initial" d="M868 260q0 -250 -190 -262l-696 4l-2 162h61q31 0 53 16v897q0 49 41 79t82 0t41 -89v-614l123 159q84 137 168 177t190 2q113 -37 129 -275v-256zM635 164q70 0 70 94v277q-63 160 -160 30l-256 -336q-27 -45 14 -61l59 -4h273zM623 950q-109 0 -109 109t109 108 q109 0 108 -108q1 -109 -108 -109z" />
<glyph unicode="&#x638;" horiz-adv-x="1028" arabic-form="medial" d="M1040 170v-172l-1060 4l2 160l84 2q31 0 53 16v897q0 49 41 79t82 0t41 -89v-614l120 159q84 137 168 177q84 41 194 3t126 -276v-256q-8 -98 86 -90h63zM727 164v371q-61 160 -160 30l-256 -336q-25 -45 17 -61q16 -4 43 -4h356zM670 950q-109 0 -109 109t109 108 q109 0 108 -108q1 -109 -108 -109z" />
<glyph unicode="&#x639;" horiz-adv-x="1189" arabic-form="final" d="M750 -362q0 29 -31 43q-43 25 -113 4q-121 -33 -244 26q-139 66 -135 205q0 164 172 236q115 37 230 100q-135 119 -281 184q-43 2 -92 10l-31 5q-12 2 -24 6q-37 12 -27 78q8 66 76 110q60 43 158 97t280 69q215 -11 326 -69t166 -113q-84 -199 -316 -443 q92 -31 346 -20v-168l-268 2q-139 0 -215 98q-72 -49 -195 -78l-65 -20l-12 -6q-16 -8 -25 -74q8 -76 98 -76q308 52 381 -102q43 -82 6 -134t-89 -43t-64 27t-12 46zM684 641q-84 0 -231 -76q205 -104 295 -239q134 96 204 231q-66 84 -268 84z" />
<glyph unicode="&#x639;" horiz-adv-x="747" arabic-form="initial" d="M674 518q-18 0 -27 8l-2 -2l-4 4q-10 4 -12 11q-121 96 -229 96t-138 -119q-30 -123 72 -251t223 -105h143v-6q9 0 9 -4q39 -20 39 -69t-43 -71q-2 0 -5 -2v-10h-712v162h233q-186 156 -127 396t305 241q225 0 326 -142q6 -6 6 -8l8 -16l-2 -2l4 -31q0 -80 -67 -80z" />
<glyph unicode="&#x639;" horiz-adv-x="1024" arabic-form="medial" d="M504 641q-82 0 -232 -76q209 -104 295 -239q139 98 207 231q-66 84 -270 84zM307 0h-325v166h266q68 -8 192 47q-123 156 -272 223q-104 10 -145 21q-35 13 -27 77t74 109t161 98q96 53 277 70q216 -11 326 -69t165 -113q-82 -197 -315 -443q72 -16 135 -20h211v-168 q-152 4 -262 0q-61 0 -141 35q-39 14 -64 57q17 18 -55 -36t-201 -54z" />
<glyph unicode="&#x63a;" horiz-adv-x="1175" arabic-form="final" d="M735 -362q0 29 -30 43q-43 25 -113 4q-121 -33 -244 26q-139 66 -135 205q0 164 172 236q114 37 229 100q-135 119 -280 184q-43 2 -92 10l-31 5q-12 2 -25 6q-37 12 -26 78q8 66 76 110q61 43 158 97t280 69q216 -11 326 -69t165 -113q-84 -199 -315 -443 q92 -31 346 -20v-168l-268 2q-139 0 -215 98q-72 -49 -195 -78l-65 -20l-13 -6q-16 -8 -24 -74q8 -76 98 -76q308 52 381 -102q43 -82 6 -134t-89 -43t-64 27t-13 46zM690 952q-108 0 -108 110t108 109q109 1 109 -109t-109 -110zM670 641q-84 0 -232 -76q205 -104 295 -239 q135 96 205 231q-66 84 -268 84z" />
<glyph unicode="&#x63a;" horiz-adv-x="741" arabic-form="initial" d="M543 1062q0 -110 -110 -110t-109 111q0 109 110 108q109 1 109 -109zM674 518q-18 0 -27 8l-2 -2l-4 4q-10 4 -12 11q-121 96 -229 96t-138 -119q-30 -123 72 -251t223 -105h143v-6q9 0 9 -4q39 -20 39 -69t-43 -71q-2 0 -5 -2v-10h-712v162h233q-186 156 -127 396 t305 241q225 0 326 -142q6 -6 6 -8l8 -16l-2 -2l4 -31q0 -80 -67 -80z" />
<glyph unicode="&#x63a;" horiz-adv-x="1024" arabic-form="medial" d="M504 641q-82 0 -232 -76q209 -104 295 -239q139 98 207 231q-66 84 -270 84zM307 0h-325v166h266q68 -8 192 47q-123 156 -272 223q-104 10 -145 21q-35 13 -27 77t74 109t161 98q96 53 277 70q216 -11 326 -69t165 -113q-82 -197 -315 -443q72 -16 135 -20h211v-168 q-152 4 -262 0q-61 0 -141 35q-39 14 -64 57q17 18 -55 -36t-201 -54zM524 952q-108 0 -108 110t108 109q109 1 109 -109t-109 -110z" />
<glyph unicode="&#x641;" horiz-adv-x="1554" arabic-form="final" d="M1114 0h-432q-330 4 -434 190q-104 195 -16 401t374 206h115v-11q43 -27 43 -80t-45 -65q-31 -12 -107 -6q-160 18 -230 -109t5 -247q68 -106 275 -117v4h493l-246 106q-229 74 -116 246l159 154q119 119 190 138t185 -17q90 -31 117 -185q12 -31 8 -51l2 -2v-328 q2 -2 2 -10v-10q16 -43 72 -43h90v-164h-127q-74 18 -90 35q-25 -16 -80 -35l-207 -2v2zM1286 272v273q-61 145 -184 41l-88 -78q-88 -76 33 -123zM1217 946q-109 0 -109 110t109 109q109 1 109 -109t-109 -110z" />
<glyph unicode="&#x641;" horiz-adv-x="768" arabic-form="initial" d="M535 946q-109 0 -109 110t109 109q109 1 109 -109t-109 -110zM473 166l-244 106q-229 74 -116 246l157 154q119 119 190 138t185 -17q102 -35 125 -236l2 -2v-328q8 -66 -35 -135q-39 -70 -108 -92l-647 2l-2 164h493zM608 270v267q-61 158 -188 49l-86 -78 q-88 -76 31 -123z" />
<glyph unicode="&#x641;" horiz-adv-x="946" arabic-form="medial" d="M536 946q-110 0 -110 110t110 110t109 -109q1 -111 -109 -111zM475 166l-246 106q-229 74 -116 246l159 154q119 119 190 138t185 -17q102 -35 123 -236l4 -2v-346q8 -49 193 -39l-2 -170h-107q-80 -2 -135 43q-27 -20 -94 -43l-652 2l5 164h493zM610 270v267 q-63 156 -188 49l-88 -78q-88 -76 33 -123z" />
<glyph unicode="&#x642;" horiz-adv-x="1220" arabic-form="final" d="M723 950q-109 0 -109 109t109 108q109 0 108 -108q1 -109 -108 -109zM1067 10q0 -6 -2 -8q-63 -319 -451 -330q-205 4 -338 111q-133 113 -130 309t165 215q6 2 23 2h20q72 -23 86 -88q0 -86 -86 -86q-18 0 -41 12q-47 -63 17 -188q72 -125 286 -125q279 10 304 260 l-127 72h-7l-245 106q-229 74 -117 246l160 154q120 119 190 138t184 -17q102 -35 123 -236l4 -2v-328l-2 -32q57 -33 117 -33h35v-162h-29q-86 0 -135 31l-2 -21h-2zM997 946q-109 0 -109 110t109 109q109 1 109 -109t-109 -110zM922 270v267q-63 158 -191 49l-86 -78 q-88 -76 33 -123z" />
<glyph unicode="&#x642;" horiz-adv-x="784" arabic-form="initial" d="M315 1059q0 109 110 109t110 -110q0 -108 -110 -108t-110 109zM809 1056q0 -110 -110 -110q-109 0 -109 110t108 109q111 1 111 -109zM487 166l-243 106q-229 74 -117 246l158 154q119 119 189 138t185 -17q102 -35 125 -236l2 -2v-328q8 -66 -34 -135q-39 -70 -109 -92 l-657 2l-2 164h503zM623 270v267q-61 158 -189 49l-86 -78q-88 -76 31 -123z" />
<glyph unicode="&#x642;" horiz-adv-x="923" arabic-form="medial" d="M397 950q-109 0 -108 109q0 109 108 108q109 -1 109 -109t-109 -108zM672 946q-109 0 -109 110t109 109q109 1 109 -109t-109 -110zM461 166l-246 106q-229 74 -117 246l160 154q119 119 190 138t185 -17q102 -35 123 -236l4 -2v-346q8 -49 178 -39l-4 -170h-90 q-80 -2 -135 43q-27 -20 -95 -43l-634 2l-3 164h484zM596 270v267q-63 156 -188 49l-89 -78q-88 -76 33 -123z" />
<glyph unicode="&#x643;" horiz-adv-x="1474" arabic-form="final" d="M1077 1081q0 -43 -43 -43t-43 43q0 8 2 11q-14 6 -24 2q-66 -27 14 -107l70 -41v-90q-96 90 -195 0v90l45 31q-64 165 62 184q66 10 104 -53q0 -2 4 -7t4 -20zM623 797h114v-11q43 -27 43 -67t-16 -58t-29 -20q-31 -12 -104 -6q-162 18 -232 -109t4 -247 q76 -119 304 -113h407q64 -6 82 18t18 66v770l5 -2v47q-1 49 39 83t82 0t42 -89v-836q12 -57 76 -57h72v-166l-35 -2l-84 4q-61 16 -80 33q-25 -16 -49 -23l-41 -10l-543 -2q-328 2 -434 190q-104 190 -15 398t374 209z" />
<glyph unicode="&#x643;" horiz-adv-x="886" arabic-form="initial" d="M614 612l224 -295q80 -133 22 -225t-188 -90l-692 -2l2 162h645q121 18 80 67l-256 336q-94 119 -279 29q-90 -49 -131 22q-14 31 -6 56q102 262 231 389q88 104 161 106t79 -45q4 -49 -79 -132t-148 -193q29 16 104 -6q145 -42 231 -179z" />
<glyph unicode="&#x643;" horiz-adv-x="1040" arabic-form="medial" d="M1053 164v-164h-129q-63 18 -80 35q-27 -20 -90 -35l-170 2l-607 -2v162h646q96 16 77 71l-254 332q-94 119 -278 29q-88 -49 -129 22q-14 31 -6 56q100 264 229 389q90 104 162 106t78 -45q4 -49 -79 -133t-149 -192q31 14 107 -6q143 -39 229 -179l226 -295 q26 -40 38 -86q35 -68 99 -67h80z" />
<glyph unicode="&#x644;" horiz-adv-x="1159" arabic-form="final" d="M532 532h31q51 -14 63 -28t23 -60q0 -86 -86 -86q-20 0 -41 13q-162 -63 -157 -291q2 -223 262 -246q197 10 243 106t48 132l2 991q0 51 40 85t81 0q42 -34 42 -89v-776q12 -119 86 -119h52v-164q-84 -8 -160 51l-12 -53q-59 -346 -455 -326q-266 47 -349 254t15 395 t262 209q4 2 10 2z" />
<glyph unicode="&#x644;" horiz-adv-x="268" arabic-form="initial" d="M113 1067q0 59 41 89t82 0t40 -79v-899q-39 -156 -165 -178h-123l4 166q127 -4 121 102v799z" />
<glyph unicode="&#x644;" horiz-adv-x="417" arabic-form="medial" d="M360 164h70v-164h-119q-55 18 -80 35q-27 -20 -90 -35l-153 2v160l51 2q80 0 80 90v809q0 51 40 85t82 0t42 -89v-838q12 -57 77 -57z" />
<glyph unicode="&#x645;" horiz-adv-x="1077" arabic-form="final" d="M999 164h91v-164h-138q-55 18 -80 35q-25 -18 -90 -39h-198q-51 -2 -66 -31q-49 -83 -116 -27t-48 101q-8 104 150 127l192 -2l29 2q6 0 12 2q41 16 17 61l-256 336q-98 129 -160 -30l-2 -500q-43 -352 -322 -363h-18q-139 23 -150 127l7 13l6 32l6 19q27 41 72 41 q58 14 94 -62q10 -20 80 25q61 35 61 242l2 407q16 238 127 275q205 70 361 -179l223 -295q37 -63 45 -114q14 -39 69 -39z" />
<glyph unicode="&#x645;" horiz-adv-x="892" arabic-form="initial" d="M418 -66q-51 0 -78 39t-21 66q-10 104 150 127l180 -4q111 14 70 67l-256 336q-94 129 -160 -30v-390q-31 -145 -172 -145l-139 -2v162h63q72 0 84 100v256q16 238 127 275q205 70 361 -179l223 -295q80 -133 22 -225t-188 -90l-111 -2q-76 -2 -90 -34t-65 -32z" />
<glyph unicode="&#x645;" horiz-adv-x="1038" arabic-form="medial" d="M-20 166h73q94 -6 86 94v256q16 238 127 275q205 70 361 -179l223 -295q37 -61 43 -114q18 -39 72 -39h90v-164h-137q-63 18 -80 35q-27 -18 -90 -39h-199q-51 -2 -66 -31q-49 -82 -118 -24q-59 55 -46 98q-8 106 148 127l176 -2l59 4q41 16 17 61l-256 336 q-98 129 -162 -30l2 -390q-35 -145 -172 -145l-151 -2v168z" />
<glyph unicode="&#x646;" horiz-adv-x="1157" arabic-form="final" d="M750 950q-109 0 -109 109t109 108q109 0 108 -108q1 -109 -108 -109zM1180 164h39l4 -164q-131 -27 -164 51l-12 -53q-59 -346 -453 -326q-266 47 -349 253t13 395t262 210q6 2 21 2h22q70 -23 86 -88q0 -86 -86 -86q-20 0 -41 13q-162 -63 -157 -291q2 -223 260 -246 q197 10 243 105q49 92 50 133v481q0 12 2 14v82q18 137 127 148l43 -11q61 -20 61 -79t-31 -76q-31 -14 -37 -82v-281q12 -104 97 -104z" />
<glyph unicode="&#x646;" horiz-adv-x="309" arabic-form="initial" d="M377 1058q0 -108 -110 -108t-109 109q0 109 110 109q110 -2 109 -110zM311 164q0 -127 -100 -160q-86 -8 -231 -2l-3 162h91q80 0 79 90v399q18 137 127 148l43 -10q60 -19 60 -79t-30 -76t-36 -83v-389z" />
<glyph unicode="&#x646;" horiz-adv-x="473" arabic-form="medial" d="M391 707q0 -55 -31 -72q-31 -14 -36 -82v-332q12 -57 77 -57h91v-164h-130q-66 16 -90 35q-29 -18 -79 -35l-207 -2v164l94 2q80 0 80 90v399q20 137 127 148l43 -10q12 -4 18 -9q43 -20 43 -75zM281 950q-109 0 -109 109t109 108q109 0 108 -108q1 -109 -108 -109z" />
<glyph unicode="&#x647;" horiz-adv-x="1054" arabic-form="final" d="M1106 170v-172l-145 2q-139 0 -175 145l2 390q-66 160 -159 30l-256 -336q-41 -53 69 -67l181 4q156 -20 147 -127q10 -27 -18 -66t-79 -39q-52 0 -67 31q-14 33 -88 35l-110 2q-131 -2 -189 88q-57 94 21 227l223 295q84 137 168 177t192 2q111 -37 127 -275l2 -256 q-8 -100 90 -90h64z" />
<glyph unicode="&#x647;" horiz-adv-x="1218" arabic-form="initial" d="M725 307q0 -80 -37 -145h283q117 14 76 67l-256 336q-88 117 -197 -4q29 -20 41 -35q90 -90 90 -219zM557 305q0 154 -152 154t-151 -154q0 -59 43 -106q18 -18 39 -29h137q23 10 39 29q45 45 45 106zM102 307q0 129 88 217t209 94q100 141 197 175q203 68 358 -181 l224 -295q80 -133 22 -225t-188 -90l-1022 -2l-4 162h151q-35 66 -35 145z" />
<glyph unicode="&#x647;" horiz-adv-x="1327" arabic-form="medial" d="M176 0h-196l-5 162h142q-35 66 -35 145q0 129 87 217t210 94q96 141 194 175q205 68 361 -181l223 -295q51 -82 45 -153h133v-166h-1159v2zM702 307q0 -80 -34 -145h282q74 18 74 67l-256 336q-88 117 -197 -4l25 -18l16 -17q90 -90 90 -219zM231 305q0 -86 82 -135h140 q20 10 39 29q45 45 45 106q0 154 -153 154t-153 -154z" />
<glyph unicode="&#x648;" horiz-adv-x="1042" arabic-form="final" d="M952 166h142v-168h-148q-26 -139 -98 -230t-219 -96h-19q-139 23 -149 127l6 13l2 16q0 12 2 16l8 19q29 41 72 41q41 10 76 -31q8 -11 17 -31t81 25q39 25 51 133l-373 2q-131 -2 -188 90t21 225l223 295q156 248 360 181q102 -35 133 -230v-397zM782 162l2 373 q-66 160 -159 30l-256 -336q-41 -49 86 -67h327z" />
<glyph unicode="&#x649;" horiz-adv-x="1421" arabic-form="final" d="M520 530h31q51 -14 67 -34q10 -8 19 -54q0 -86 -86 -86q-18 0 -41 13q-160 -66 -152 -289q10 -223 336 -246q215 10 285 164q-6 2 -16 2h-19q-23 2 -51 0l-111 2q-131 -2 -188 90t22 225l224 295q84 137 169 177t189 2q115 -37 129 -275v-256q-8 -100 78 -90h84l-4 -172 l-150 2q-141 0 -172 145v390q-63 160 -159 30l-256 -336q-39 -51 69 -67l191 4q123 -14 131 -66l8 -39q4 -18 0 -26l-4 -31q-63 -352 -492 -332q-311 23 -407 240q-94 217 5 406t261 210q4 2 10 2z" />
<glyph unicode="&#x64a;" horiz-adv-x="1411" arabic-form="final" d="M827 -588q-109 0 -108 109q0 109 108 108q109 -1 109 -109t-109 -108zM664 -476q0 -110 -110 -110t-110 110t109 109q111 1 111 -109zM1475 164v-166l-142 2q-139 0 -172 145l2 390q-66 160 -159 30l-256 -336q-41 -53 69 -67l191 4q121 -16 131 -66l6 -39q0 -8 2 -16 l-6 -41q-66 -352 -490 -332q-315 23 -409 240q-92 217 4 406t262 210q6 2 20 2h23q70 -23 86 -88q0 -86 -86 -86q-20 0 -41 13q-164 -63 -154 -289q8 -223 336 -246q215 10 287 164q-10 2 -21 2h-16q-25 4 -49 0l-111 2q-131 -2 -188 90t20 225l226 295q80 135 164 176 q86 41 194 3q111 -37 127 -275v-256q-10 -98 86 -96h64z" />
<glyph unicode="&#x64a;" horiz-adv-x="313" arabic-form="initial" d="M326 164q0 -127 -133 -164l-203 2l2 162h90q80 0 80 90v399q20 137 127 148l43 -10q12 -4 18 -9q43 -20 43 -75t-31 -72q-30 -14 -36 -82v-389zM70 -334q-109 0 -109 110t109 109q109 1 109 -109t-109 -110zM68 -604q-109 0 -109 110t109 109q109 1 109 -109t-109 -110z " />
<glyph unicode="&#x64a;" horiz-adv-x="477" arabic-form="medial" d="M280 -328q-110 0 -110 109t110 109t109 -109q1 -109 -109 -109zM6 -326q-108 0 -108 110t108 110t109 -110q0 -110 -109 -110zM387 706q0 -54 -30 -70t-35 -83v-332q12 -57 75 -57h101v-164h-148q-63 18 -80 35q-27 -20 -90 -35l-194 2v160l92 2q80 0 80 90v399 q18 137 127 148l43 -10q12 -4 18 -9q41 -22 41 -76z" />
<glyph />
<glyph horiz-adv-x="681" />
<glyph unicode=" "  horiz-adv-x="450" />
<glyph unicode="&#x09;" horiz-adv-x="450" />
<glyph unicode="&#xa0;" horiz-adv-x="450" />
<glyph unicode="!" horiz-adv-x="329" d="M315 100q0 -36 -20 -68q-21 -34 -61 -34q-90 0 -89 74q-1 20 17 56t76 36q20 0 36 -8q41 -20 41 -56zM295 938l-19 -68v-569q0 -53 -43 -61l-59 -11q-23 2 -22 31v303l-2 330q0 53 20 84q23 31 55 29h19q49 -2 51 -68z" />
<glyph unicode="&#x22;" horiz-adv-x="614" d="M346 856v412h137v-412h-137zM141 856v412h138v-412h-138z" />
<glyph unicode="$" horiz-adv-x="866" d="M508 104q139 53 135 209q-2 129 -139 201zM412 1130q-74 -20 -122 -74t-48 -141q2 -123 174 -202zM707 553q96 -92 98 -220t-70 -229q-82 -100 -225 -124l2 -162h-84l-2 157q-193 0 -356 97l65 110q133 -90 289 -90l-6 463q-164 74 -219 119q-106 90 -109 252 q-2 127 88 217t232 104l-2 113h84l2 -113q164 -10 290 -96l-59 -111q-133 90 -229 90l6 -452q145 -72 205 -125z" />
<glyph unicode="'" horiz-adv-x="331" d="M403 1657l-190 -420h-66l9 420h247z" />
<glyph unicode="(" horiz-adv-x="557" d="M70 543q0 373 321 743l88 -82q-268 -317 -268 -647q0 -416 285 -694l-84 -82q-168 190 -255 362t-87 400z" />
<glyph unicode=")" horiz-adv-x="557" d="M496 522q0 -371 -322 -741l-86 82q266 309 266 647q0 416 -284 694l86 82q170 -195 255 -367t85 -397z" />
<glyph unicode="*" horiz-adv-x="980" d="M793 297l-236 14l143 -200l-102 -50l-106 213l-101 -223l-98 60l135 198l-240 -16v106l240 -24l-139 194l102 62l101 -225l104 225l92 -60l-137 -194l242 22v-102z" />
<glyph unicode="+" horiz-adv-x="1017" d="M954 389h-387v-389h-116v389h-390v117h390v387h116v-387h387v-117z" />
<glyph unicode="-" horiz-adv-x="1017" d="M954 389h-893v117h893v-117z" />
<glyph unicode="." horiz-adv-x="397" d="M307 106q0 -36 -20 -72q-20 -34 -76 -34q-23 0 -51 18t-27 49t19 68t75 37q23 0 39 -10q41 -20 41 -56z" />
<glyph unicode="/" horiz-adv-x="782" d="M721 1223l-539 -1268l-119 45l539 1268z" />
<glyph unicode="0" horiz-adv-x="421" d="M420 324q0 -31 -27 -77t-98 -46q-29 -1 -65 23q-66 43 -11 151q25 47 98 47q30 0 50 -12q53 -27 53 -86z" />
<glyph unicode="1" horiz-adv-x="348" d="M227 1163q72 0 72 -82v-964q-12 -51 -82 -109h-80q-29 14 -45 45q0 39 18 57t29 23v893q-12 20 -12 51q-2 86 100 86z" />
<glyph unicode="2" horiz-adv-x="956" d="M780 1012h-481l14 -703v-215q-43 -72 -67 -83t-65 -11q-42 0 -61 38t0 72t23 35l2 879q-12 4 -22 22t-10 33q0 57 53 67t98 11h608q64 -76 84 -117q0 -39 -24 -48t-35 -11q-43 -17 -79 7t-38 24z" />
<glyph unicode="3" horiz-adv-x="907" d="M123 1092q0 18 19 46t73 27q80 0 80 -121v-520q33 -74 97 -123t118 -49t112 25q124 53 121 248q-1 96 -29 201t-63 160t-36 90q-1 36 28 65t70 26q71 -4 75 -54t5 -66l90 -263q25 -68 22 -151q1 -131 -67 -245t-191 -148q-60 -19 -115 -19q-195 0 -237 60v-172 q-18 -119 -91 -119t-85 73q2 33 20 54v919q-16 38 -16 56z" />
<glyph unicode="4" horiz-adv-x="929" d="M233 924q197 106 437 213q150 68 223 28q81 -119 -105 -159t-438 -191l217 -113l47 -45q70 -61 9 -133l-258 -309q180 -66 434 -18q125 -2 125 -138l-60 -49q-313 -14 -618 92q-29 -30 -105 48t52 118l272 312l-307 165q-47 59 -22 114t97 65z" />
<glyph unicode="5" horiz-adv-x="1159" d="M636 128q157 13 262 138q105 124 92 310t-114 300q-100 114 -256 121q-156 5 -272 -143t-110 -318q8 -170 124 -296q116 -125 274 -112zM606 1151q233 0 390 -172t157 -421t-143 -410q-143 -160 -383 -160t-397 154q-158 154 -150 418q8 265 180 428t346 163z" />
<glyph unicode="6" horiz-adv-x="942" d="M793 1171q135 0 133 -54t-8 -66v-912q4 -2 24 -38q20 -35 -2 -73t-64 -38q-40 0 -65 11t-68 85v938h-475q-4 0 -39 -24t-73 -11q-38 12 -50 47t11 65t55 70h621z" />
<glyph unicode="7" horiz-adv-x="1064" d="M553 -10q-100 0 -100 78v8q0 29 8 37l-322 872l-24 51q0 88 78 97q47 6 79 -25q32 -32 31 -58q0 -26 -4 -32l268 -733l310 714q-7 8 -7 37t23 60t70 30q13 0 39 -9q64 -22 63 -75q-35 -68 -35 -69l-379 -881q-43 -102 -98 -102z" />
<glyph unicode="8" horiz-adv-x="1058" d="M948 -2q-48 0 -70 29t-23 59t5 39l-315 729l-275 -748q4 -8 4 -34t-32 -58q-32 -31 -80 -24q-78 10 -78 98l25 51l327 891q-14 14 -11 33q3 20 7 42t34 37t64 15q55 0 101 -104l387 -901q2 -2 35 -72q0 -54 -74 -80q-21 -2 -31 -2z" />
<glyph unicode="9" horiz-adv-x="862" d="M450 344q76 0 159 71q46 38 61 81l2 530q-25 -4 -90 -24q-197 -62 -291 -200q-57 -85 -58 -196q1 -39 11 -96q10 -58 70 -112t136 -54zM737 1167h6q46 0 117 -26q14 -45 1 -72t-25 -37v-909q8 -20 8 -49t-18 -57q-18 -27 -66 -27q-47 0 -72 26q-24 26 -24 59q0 32 8 48 v145q22 27 -60 -16t-170 -43q-34 0 -67 6q-117 25 -183 99t-88 157q-23 82 -22 145q2 152 73 260t246 199q175 92 336 92z" />
<glyph unicode=":" horiz-adv-x="397" d="M307 106q0 -36 -20 -72q-20 -34 -76 -34q-23 0 -51 18t-27 49t19 68t75 37q23 0 39 -10q41 -20 41 -56zM311 395q0 -23 -20 -59t-78 -35q-20 0 -49 18t-29 49q-1 31 19 68t77 37q23 0 39 -10q41 -20 41 -68z" />
<glyph unicode="&#x3c;" horiz-adv-x="1110" d="M915 -20h-182l-479 477l479 479h182l-479 -479z" />
<glyph unicode="=" horiz-adv-x="1017" d="M954 211h-893v117h893v-117zM954 565h-893v117h893v-117z" />
<glyph unicode="&#x3e;" horiz-adv-x="1110" d="M856 457l-479 -477h-162l479 477l-479 479h162z" />
<glyph unicode="[" horiz-adv-x="546" d="M160 1198q0 127 86 127h209q49 0 75 -39q31 -39 -1 -78t-72 -39h-64q-61 0 -61 -69v-1037q0 -55 61 -55h62q39 0 69 -42t0 -84q-31 -42 -73 -42h-187q-104 0 -104 137v1221z" />
<glyph unicode="\" horiz-adv-x="782" d="M92 1190q-18 33 12 75q30 43 78 23q49 -20 66 -65l514 -1182q10 -43 -20 -75t-78 -22t-66 42z" />
<glyph unicode="]" horiz-adv-x="540" d="M459 1325q86 0 86 -127v-1221q0 -137 -105 -137h-184q-45 0 -76 42t0 85q33 41 72 41h59q61 0 62 55v1037q0 70 -62 69h-61q-43 0 -74 39t-2 78t78 39h207z" />
<glyph unicode="_" horiz-adv-x="782" d="M748 -164h-715v131h715v-131z" />
<glyph unicode="{" horiz-adv-x="647" d="M567 -152q0 -20 -2 -26l-47 -4q-170 0 -235 55q-70 49 -70 160v334q0 74 -139 163h4q66 27 100 72t35 92v334q0 225 348 225q2 -6 2 -24v-37q-139 0 -186 -35q-49 -27 -49 -129v-334q0 -72 -119 -164q119 -76 119 -163v-334q-16 -154 237 -158q2 -2 2 -10v-17z" />
<glyph unicode="|" horiz-adv-x="204" d="M70 -199v1465h67v-1465h-67z" />
<glyph unicode="}" horiz-adv-x="655" d="M72 -135q0 8 2 10q254 4 237 158v334q0 88 119 163q-119 92 -119 164v334q0 102 -49 129q-47 35 -186 35v37q0 18 2 24q348 0 348 -225v-334q0 -47 35 -92t100 -72h4q-139 -90 -139 -163v-334q0 -111 -70 -160q-63 -55 -235 -55l-47 4q-2 6 -2 26v17z" />
<glyph unicode="&#xab;" horiz-adv-x="616" d="M174 319q0 -164 133 -321l-78 -41q-160 184 -159 369q0 104 42 193t128 183l75 -40q-141 -137 -141 -343zM416 319q0 -164 129 -321l-78 -41q-158 188 -158 369q0 114 43 200t127 176l76 -40q-139 -139 -139 -343z" />
<glyph unicode="&#xad;" horiz-adv-x="1017" d="M954 389h-893v117h893v-117z" />
<glyph unicode="&#xbb;" horiz-adv-x="616" d="M315 326q0 -180 -157 -369l-78 41q131 156 131 321q0 205 -141 343l77 40q86 -94 127 -178t41 -198zM555 326q0 -184 -160 -369l-78 41q133 158 134 321q0 205 -142 343l78 40q88 -100 128 -186t40 -190z" />
<glyph unicode="&#xd7;" horiz-adv-x="927" d="M866 125l-80 -80l-321 322l-322 -322l-82 80l324 321l-324 322l82 82l322 -324l321 324l80 -82l-321 -322z" />
<glyph unicode="&#xf7;" horiz-adv-x="1017" d="M621 87q0 -112 -112 -112t-112 112t112 112t112 -112zM954 389h-893v117h893v-117zM621 807q0 -111 -112 -111t-112 111t112 111t112 -111z" />
<glyph unicode="&#x60c;" horiz-adv-x="430" d="M244 -6q-55 22 -78 48q-76 84 -18 216q38 86 131 131q33 -31 37 -46t-1 -58q-79 -21 -55 -92q12 -37 55 -66q2 -41 -18 -71t-53 -62z" />
<glyph unicode="&#x61b;" horiz-adv-x="430" d="M297 0h-162v170h162v-170zM295 360h-162v166q0 90 143 222h52q-100 -88 -97 -189q4 -55 64 -51v-148z" />
<glyph unicode="&#x61f;" horiz-adv-x="890" d="M463 193q57 0 75 -37t19 -68q0 -31 -28 -49t-48 -19q-57 0 -78 36q-20 36 -20 71t43 57q14 9 37 9zM485 401q4 4 4 18t-28 77l-160 229q-35 49 -35 128t64 141t145 61h17q82 0 188 -70q12 -37 12 -59t-37 -66q-63 41 -95 53t-68 3q-76 -19 -76 -107q0 -33 12 -61 q138 -220 161 -292q30 -93 -30 -154q-43 -44 -91 -44t-70 30q-52 71 14 109q14 10 37 11z" />
<glyph unicode="&#x621;" horiz-adv-x="710" d="M158 83q0 46 41 69l16 6v4l119 4q-88 129 -47 267q41 139 170 153t182 -58q29 -74 29 -94q0 -80 -82 -80t-82 80q0 14 -14 24t-29 1q-94 -92 -39 -205q74 -106 237 -90l25 -25q25 -23 26 -66t-51 -71q-39 -2 -55 0h-389v4q-8 2 -16 8q-41 23 -41 69z" />
<glyph unicode="&#x627;" horiz-adv-x="317" d="M152 1077q0 49 41 79t81 0t41 -89v-829q6 -68 37 -83t31 -69t-43 -78l-18 -8l-25 -2q-12 0 -18 -6q-106 8 -127 145v940z" />
<glyph unicode="&#x628;" horiz-adv-x="1325" d="M1219 250v399q20 139 127 148l43 -11q61 -20 61 -79t-31 -76q-31 -14 -37 -82v-389q0 -130 -96 -148t-164 -12h-420q-328 2 -434 190q-104 190 -15 398t374 209h114v-11q43 -27 43 -67t-16 -58t-29 -20q-31 -12 -104 -6q-161 17 -231 -109t4 -247q76 -119 290 -115h408 q113 -2 113 86zM837 -328q-110 0 -110 109t110 109t109 -109q1 -109 -109 -109z" />
<glyph unicode="&#x629;" horiz-adv-x="907" d="M843 946q-110 0 -110 110t110 110t109 -109q1 -111 -109 -111zM678 1058q0 -108 -110 -108t-109 109q-1 109 109 109q110 -2 110 -110zM654 -66q-52 0 -66 31q-14 33 -88 35l-111 2q-131 -2 -188 90t20 225l225 295q84 137 167 177q83 41 193 3t126 -276l2 -457 q-74 -117 -166 -4l2 480q-66 160 -160 30l-256 -336q-41 -53 70 -67l180 4q156 -20 148 -127q10 -27 -17 -62q-29 -43 -81 -43z" />
<glyph unicode="&#x62a;" horiz-adv-x="1331" d="M1178 1056q0 -110 -110 -110t-110 110t109 109q111 1 111 -109zM794 950q-110 0 -110 109t110 109t109 -109q1 -109 -109 -109zM1450 703q0 -55 -31 -72q-31 -14 -37 -82v-389q0 -129 -96 -148q-94 -16 -164 -12h-420q-328 2 -432 190q-104 195 -15 401t374 206h112v-11 h2q43 -27 43 -66t-17 -58t-28 -21q-31 -12 -106 -6q-161 17 -231 -109t4 -247q76 -119 297 -113h407q106 -6 107 84v399q23 137 127 148l45 -11q8 -2 16 -8q43 -20 43 -75z" />
<glyph unicode="&#x62b;" horiz-adv-x="1331" d="M931 1186q-110 0 -110 108t110 109q110 0 109 -109q1 -108 -109 -108zM1178 1056q0 -110 -110 -110t-110 110t109 109q111 1 111 -109zM794 950q-110 0 -110 109t110 109t109 -109q1 -109 -109 -109zM1450 703q0 -55 -31 -72q-31 -14 -37 -82v-389q0 -129 -96 -148 q-94 -16 -164 -12h-420q-328 2 -432 190q-104 195 -15 401t374 206h112v-11h2q43 -27 43 -66t-17 -58t-28 -21q-31 -12 -106 -6q-161 17 -231 -109t4 -247q76 -119 297 -113h407q106 -6 107 84v399q23 137 127 148l45 -11q8 -2 16 -8q43 -20 43 -75z" />
<glyph unicode="&#x62c;" horiz-adv-x="1187" d="M662 -360q0 26 -34 48t-113 4t-161 -5q-205 35 -204 237q0 110 86 176t264 66h391q-111 102 -303 379q-86 119 -158 89t-151 -149q-29 -27 -76 -16q-41 11 -44 63t21 93q90 129 203 166q203 70 358 -179l240 -311q58 -84 129 -135l8 -2q6 0 8 -2l17 -6q43 -20 43 -68 t-43 -76q-25 -10 -39 -10l-2 -4l-666 2q-86 0 -94 -76q10 -74 98 -74q309 51 381 -104q43 -82 6 -134t-89 -43t-64 27t-12 44zM995 -328q-109 0 -109 110t109 109q109 1 109 -109t-109 -110z" />
<glyph unicode="&#x62d;" horiz-adv-x="1193" d="M668 -360q0 26 -34 48t-113 4t-161 -5q-205 35 -204 237q0 110 87 176t263 66h391q-111 102 -303 379q-86 119 -158 89t-151 -149q-29 -27 -76 -16q-41 11 -44 63t21 93q90 129 203 166q203 70 359 -179l239 -311q58 -84 129 -135l8 -2q6 0 9 -2l16 -6q43 -20 43 -68 t-43 -76q-25 -10 -39 -10l-2 -4l-666 2q-86 0 -94 -76q10 -74 98 -74q309 51 381 -104q43 -82 7 -135q-38 -51 -90 -42t-64 27t-12 44z" />
<glyph unicode="&#x62e;" horiz-adv-x="1198" d="M672 -360q0 26 -34 48t-113 4t-160 -5q-205 35 -205 237q0 110 87 176t263 66h391q-111 102 -303 379q-86 119 -158 89t-151 -149q-29 -27 -76 -16q-41 11 -44 63t21 93q90 129 203 166q203 70 359 -179l239 -311q58 -84 129 -135l8 -2q6 0 9 -2l16 -6q43 -20 43 -68 t-43 -76q-25 -10 -39 -10l-2 -4l-666 2q-86 0 -94 -76q10 -74 99 -74q308 51 380 -104q43 -82 7 -135q-37 -51 -89 -42q-53 9 -65 27t-12 44zM487 950q-109 0 -109 110t109 109q109 1 109 -109t-109 -110z" />
<glyph unicode="&#x62f;" horiz-adv-x="1120" d="M156 84q0 86 106 78h606q121 18 80 67l-256 336q-94 119 -278 29q-90 -49 -131 22q-37 76 69 121q124 92 272 51t232 -176l223 -295q80 -133 23 -225t-189 -90l-702 -2v6q-55 24 -55 78z" />
<glyph unicode="&#x630;" horiz-adv-x="1120" d="M549 950q-109 0 -109 109t109 108q109 0 108 -108q1 -109 -108 -109zM862 162q121 18 80 67l-256 336q-94 119 -278 29q-90 -49 -132 22q-37 76 70 121q125 92 272 51t232 -176l223 -295q80 -133 23 -225t-189 -90l-702 -2v6l-15 6q-41 25 -40 72q0 86 106 78h606z" />
<glyph unicode="&#x631;" horiz-adv-x="446" d="M510 707q0 -55 -31 -72q-31 -14 -37 -82v-518q-49 -352 -321 -363h-21q-137 23 -147 127q6 12 6 21l4 24l8 19q27 41 70 41q59 16 95 -62q9 -20 79 24t64 388v399q20 137 127 148l43 -10q12 -4 18 -9q43 -20 43 -75z" />
<glyph unicode="&#x632;" horiz-adv-x="446" d="M510 1058q0 -108 -110 -108t-109 109q-1 109 109 109q110 -2 110 -110zM510 707q0 -55 -31 -72q-31 -14 -37 -82v-518q-49 -352 -321 -363h-21q-137 23 -147 127q6 12 6 21l4 24l8 19q27 41 70 41q59 16 95 -62q9 -20 79 24t64 388v399q20 137 127 148l43 -10 q12 -4 18 -9q43 -20 43 -75z" />
<glyph unicode="&#x633;" horiz-adv-x="1644" d="M528 532h31q51 -14 63 -28t23 -60q0 -86 -86 -86q-20 0 -41 13q-162 -63 -158 -291q2 -223 263 -246q207 10 266 166l4 664q12 127 121 137l43 -10q12 -4 18 -9q41 -24 41 -76t-28 -68t-35 -67q2 -4 2 -12v-227l-4 -107q8 -61 75 -61q80 0 80 90v399q20 139 127 148 l43 -10q62 -21 62 -80t-31 -76q-31 -14 -37 -82v-313q0 -76 78 -76t78 90v399q18 137 127 148l43 -10q12 -4 18 -9q43 -20 43 -75t-31 -72q-31 -14 -36 -82v-336q2 -104 -35 -150t-66 -57q-203 -40 -262 37q-23 -23 -57 -31q-102 -31 -199 -12l-27 10v-16 q-59 -346 -454 -326q-266 47 -349 254t15 395t262 209q4 2 10 2z" />
<glyph unicode="&#x634;" horiz-adv-x="1644" d="M1341 1186q-109 0 -109 108t110 109q108 -1 108 -109t-109 -108zM1479 946q-109 0 -109 110t109 109q109 1 109 -109t-109 -110zM1315 1058q0 -108 -110 -108t-109 109q0 109 110 109q110 -2 109 -110zM524 532h31q51 -14 63 -28t23 -60q0 -86 -86 -86q-20 0 -41 13 q-162 -63 -158 -291q2 -223 262 -246q207 10 267 166l4 664q12 127 121 137l43 -10q12 -4 18 -9q41 -24 41 -76t-28 -68t-35 -67q2 -4 2 -12v-227l-4 -107q8 -61 75 -61q80 0 80 90v399q20 139 127 148l43 -10q62 -21 62 -80t-31 -76q-31 -14 -37 -82v-313q0 -76 78 -76 t78 90v399q18 137 127 148l43 -10q12 -4 18 -9q43 -20 43 -75t-31 -72q-31 -14 -36 -82v-336q2 -104 -35 -150t-66 -57q-203 -40 -262 37q-23 -23 -57 -31q-102 -31 -199 -12l-27 10v-16q-59 -346 -454 -326q-266 47 -349 254t15 395t262 209q4 2 10 2z" />
<glyph unicode="&#x635;" horiz-adv-x="1718" d="M1049 547v-215l233 280q84 137 167 177t191 2q111 -37 127 -275v-256q2 -250 -190 -262l-539 2q-59 -348 -452 -328q-266 47 -349 253t13 395t264 210q6 2 18 2h23q47 -14 59 -28t27 -60q0 -86 -86 -86q-20 0 -41 13q-162 -63 -158 -291q2 -223 260 -246q207 10 269 166 l-2 166l2 391q0 49 40 79t83 1q41 -31 41 -90zM1534 164q68 0 72 94v277q-66 160 -160 30l-266 -336l-58 -65h412z" />
<glyph unicode="&#x636;" horiz-adv-x="1724" d="M528 532h23q47 -14 59 -28t27 -60q0 -86 -86 -86q-20 0 -41 13q-162 -63 -158 -291q2 -223 260 -246q207 10 269 166l-2 166l2 391q0 49 40 79t83 1q41 -31 40 -90v-215l234 280q84 137 167 177t191 2q111 -37 127 -275v-256q2 -250 -190 -262l-539 2q-59 -348 -452 -328 q-266 47 -350 253t14 395q96 189 264 210q6 2 18 2zM1519 950q-110 0 -110 109t110 109t109 -109q1 -109 -109 -109zM1530 164q68 0 72 94v277q-66 160 -160 30l-266 -336l-58 -65h412z" />
<glyph unicode="&#x637;" horiz-adv-x="1067" d="M1087 260q0 -250 -192 -262l-709 2q-55 4 -75 41q-27 41 2 82q23 37 75 41h72q29 0 53 16v897q0 49 40 79t83 1q41 -31 41 -90v-614l123 159q82 137 166 177t192 2q113 -37 129 -275v-256zM852 164q70 0 70 94l2 277q-66 160 -160 30l-256 -336q-29 -45 14 -61l60 -4h270 z" />
<glyph unicode="&#x638;" horiz-adv-x="1064" d="M1085 260q0 -250 -192 -262l-709 2q-55 4 -75 41q-27 41 2 82q23 37 75 41h72q29 0 53 16v897q0 49 40 79t83 1q41 -31 41 -90v-614l123 159q82 137 166 177t192 2q113 -37 129 -275v-256zM850 164q70 0 70 94l2 277q-66 160 -160 30l-256 -336q-29 -45 14 -61l60 -4h270 zM839 950q-110 0 -110 109t110 109t109 -109q1 -109 -109 -109z" />
<glyph unicode="&#x639;" horiz-adv-x="980" d="M991 79q0 -48 -43 -69q-2 0 -4 -2v-10h-528q-66 -4 -76 -74q10 -74 100 -74q307 51 379 -104q43 -82 7 -134t-89 -43t-65 26t-12 45q0 26 -34 48t-112 4t-162 -4q-84 15 -145 74q-59 68 -59 165q1 143 174 229l61 8l76 2q-178 156 -120 394t304 237q225 0 326 -142 q6 -6 6 -8l8 -16l-2 -2l4 -31q0 -80 -67 -80q-18 0 -27 8l-2 -2l-4 4q-10 4 -13 11q-120 96 -228 96t-138 -119q-29 -123 72 -248q59 -78 133 -102h223l10 -2q8 0 8 -4q39 -33 39 -81z" />
<glyph unicode="&#x63a;" horiz-adv-x="1015" d="M1022 79q0 -48 -43 -69q-2 0 -4 -2v-10h-529q-66 -4 -75 -74q10 -74 100 -74q307 51 379 -104q43 -82 7 -134t-89 -43q-54 9 -66 27t-12 44t-34 48t-112 4t-161 -4q-84 15 -145 74q-58 68 -58 165q1 141 172 229l62 8l75 2q-177 156 -119 394t304 237q225 0 325 -142 q7 -6 7 -8l8 -16l-2 -2l4 -31q0 -80 -68 -80q-18 0 -26 8l-2 -2q-16 13 -17 15q-121 96 -229 96t-137 -119q-29 -123 71 -248q59 -78 133 -102h224l10 -2q8 0 8 -4q39 -33 39 -81zM708 952q-110 0 -110 110t110 110t109 -109q1 -111 -109 -111z" />
<glyph unicode="&#x640;" horiz-adv-x="243" d="M262 0h-280v172h280v-172z" />
<glyph unicode="&#x641;" horiz-adv-x="1417" d="M1346 1056q0 -110 -110 -110t-110 110t109 109q111 1 111 -109zM627 797h112v-11h2q43 -27 43 -66t-17 -58t-30 -21q-31 -12 -104 -6q-162 18 -232 -111q-72 -125 7 -245q63 -109 272 -117v4h496l-246 106q-231 74 -117 246l160 154q119 119 189 138t186 -17 q100 -35 122 -236l5 -2v-328q8 -66 -35 -137q-45 -68 -111 -90h-629q-328 2 -434 190q-104 190 -15 398t376 209zM1311 270v267q-66 158 -191 49l-86 -78q-90 -76 31 -123z" />
<glyph unicode="&#x642;" horiz-adv-x="1103" d="M856 1058q0 -108 -110 -108t-109 109q-1 109 109 109q110 -2 110 -110zM346 309h31q43 -8 58 -26t22 -29q6 -10 6 -33q0 -86 -86 -86q-18 0 -41 12q-45 -63 18 -188q68 -125 285 -125q279 10 305 260l-129 72h-6l-244 106q-231 74 -119 246l160 154q119 119 190 138 q71 18 180 -16t130 -237l2 -2v-328l-14 -217l-7 -8q-63 -319 -450 -330q-203 4 -338 111q-133 113 -130 307t167 217q4 2 10 2zM1021 946q-110 0 -110 110t110 110t109 -109q1 -111 -109 -111zM944 270v267q-63 156 -188 49l-88 -78q-88 -76 32 -123z" />
<glyph unicode="&#x643;" horiz-adv-x="1351" d="M1051 1038q-43 0 -43 43q0 8 2 11q-14 6 -25 2q-66 -27 14 -107l70 -41v-90q-96 90 -195 0v90l46 31q-64 165 61 184q66 10 104 -53q0 -2 4 -7t5 -20q0 -43 -43 -43zM639 797h115v-11q43 -27 43 -67q-1 -40 -17 -58t-28 -20q-31 -12 -105 -6q-162 18 -231 -111 q-70 -125 4 -245q76 -119 307 -113h408q59 -6 77 18t19 66v770l4 -2v47q0 49 40 83t82 0t42 -89v-836q2 -84 -37 -144t-127 -77l-520 -2q-328 2 -434 190q-103 190 -15 398t373 209z" />
<glyph unicode="&#x644;" horiz-adv-x="1038" d="M541 532h32q56 -14 79 -54q7 -12 7 -34q0 -86 -86 -86q-23 0 -41 13q-164 -63 -159 -291q2 -223 262 -246q197 10 244 106t47 132l2 991q0 51 40 85t82 0t42 -89l-2 -1008l-13 -53q-80 -346 -475 -326q-266 47 -349 254t15 395t262 209q4 2 11 2z" />
<glyph unicode="&#x645;" horiz-adv-x="974" d="M221 516q16 238 127 275q205 70 361 -179l223 -295q37 -63 45 -114q10 -111 -26 -152t-122 -55h-198q-51 -2 -66 -31q-49 -81 -111 -27t-53 101q-10 104 150 127l176 -2l59 4q41 16 15 61l-256 336q-94 129 -160 -30l-2 -500q-43 -352 -320 -363h-20q-137 23 -147 127 q6 12 6 21l4 24l8 19q27 41 70 41q58 14 94 -62q10 -20 80 25q66 35 61 242z" />
<glyph unicode="&#x646;" horiz-adv-x="1044" d="M761 950q-110 0 -110 109t110 109t109 -109q1 -109 -109 -109zM543 532h30q51 -14 63 -28t23 -60q0 -86 -86 -86q-20 0 -41 13q-162 -63 -157 -291q2 -223 262 -246q197 10 244 106t47 132l2 577q20 139 127 148l43 -11q61 -20 61 -79t-31 -76q-31 -14 -36 -82v-537 q-66 -348 -490 -340q-266 47 -349 254t15 395t262 209q4 2 11 2z" />
<glyph unicode="&#x647;" horiz-adv-x="917" d="M670 -66q-51 0 -68 31q-14 33 -90 35l-111 2q-131 -2 -188 90t23 225l223 295q84 137 169 177t189 2q115 -37 129 -275v-457q-68 -117 -164 -4l2 480q-63 160 -159 30l-258 -336q-39 -51 69 -67l180 4q160 -20 150 -127q6 -27 -20 -66t-76 -39z" />
<glyph unicode="&#x648;" horiz-adv-x="911" d="M395 2q-131 -2 -188 90t20 225l224 295q156 248 360 181q102 -35 133 -250l-2 -510l4 -33h-8q-26 -141 -98 -232t-217 -96h-21q-139 23 -149 127l6 13l2 16q0 12 2 16l8 19q29 41 72 41q41 10 75 -31q8 -11 18 -31t81 25q39 25 51 133zM774 162l2 373q-66 160 -160 30 l-256 -336q-41 -49 86 -67h328z" />
<glyph unicode="&#x649;" horiz-adv-x="1257" d="M1149 25q0 -15 -6 -21q-63 -352 -492 -332q-311 23 -407 240q-94 217 5 406t261 210q6 2 22 2h21q41 -8 56 -25q30 -34 30 -63q0 -86 -86 -86q-23 0 -41 13q-162 -63 -154 -289q10 -223 336 -246q217 10 287 164q-8 2 -18 2h-19q-25 4 -49 0l-113 2q-131 -2 -188 90 t22 225l224 295q168 262 348 162q104 -57 125 -166q55 -244 -115 -243q-92 0 -92 92q0 57 47 82q2 0 14 30q-70 119 -163 -4l-256 -336q-39 -51 69 -67l191 4q123 -14 131 -66q15 -44 10 -65v-10z" />
<glyph unicode="&#x64a;" horiz-adv-x="1288" d="M930 -480q0 -108 -110 -108t-109 109q-1 109 109 109q110 -2 110 -110zM547 -586q-109 0 -109 110t109 109q109 1 109 -109t-109 -110zM1159 25q0 -15 -6 -21q-63 -352 -491 -332q-311 23 -408 240q-94 217 5 406t261 210q6 2 23 2h20q41 -8 51 -22q35 -32 35 -66 q0 -86 -86 -86q-23 0 -41 13q-162 -63 -153 -289q10 -223 336 -246q217 10 286 164q-8 2 -18 2h-19q-25 4 -49 0l-112 2q-131 -2 -189 88q-57 94 23 227l223 295q168 262 348 162q104 -57 125 -166q55 -244 -115 -243q-92 0 -92 92q0 57 47 82q2 0 15 30q-70 119 -164 -4 l-256 -336q-39 -51 69 -67l191 4q123 -14 131 -66q15 -44 10 -65v-10z" />
<glyph unicode="&#x64b;" horiz-adv-x="8" d="M426 1370l-4 -80h-309l-4 82zM426 1268l-4 -80h-309l-4 82z" />
<glyph unicode="&#x64c;" d="M279 1374q-68 0 -68 -57q0 -25 29 -66q84 29 84 80q0 43 -45 43zM100 1165q-43 0 -90 6q-2 0 -26 62q78 59 78 119t-56 59q-31 0 -76 -35q41 74 97 74h10q8 0 12 -2q68 -20 68 -94t-90 -127q98 -20 174 4q-27 39 -37 65l-4 31q0 47 47 84q20 14 49 14q57 0 88 -47 q20 -27 21 -59q0 -61 -68 -105q-70 -49 -197 -49z" />
<glyph unicode="&#x64d;" d="M311 -289l-4 -80h-309l-4 82zM311 -391l-4 -80h-309l-4 82z" />
<glyph unicode="&#x64e;" d="M424 1251l-2 -84h-367l-4 82z" />
<glyph unicode="&#x64f;" d="M207 1323q0 -27 29 -61q99 27 83 88q-8 33 -45 32q-67 0 -67 -59zM360 1329q0 -57 -63 -105t-176 -48q-51 0 -117 12q-4 0 -24 63q78 -18 130 -18t87 10q-31 35 -37 66v24q0 55 49 86q20 14 43 15q61 -1 92 -52q16 -29 16 -53z" />
<glyph unicode="&#x650;" d="M354 -285l-2 -84h-366l-4 82z" />
<glyph unicode="&#x651;" d="M422 1395v-119q0 -41 -25 -72q-25 -30 -75 -28t-84 71q-27 -68 -84 -67q-51 -4 -76 26t-25 70v119h58v-101q0 -63 47 -59q49 0 49 88v72h59v-72q0 -88 49 -88t50 57l-3 103h60z" />
<glyph unicode="&#x652;" d="M192 1225q62 0 61 87t-67 87q-61 -2 -59 -88q3 -86 65 -86zM315 1313q4 -137 -122 -142q-129 -1 -133 139t122 142q59 4 96 -40t37 -99z" />
<glyph unicode="&#x653;" d="M308 1116q-58 0 -132 28t-98 27q-59 0 -72 -69h-74q20 164 146 164q41 0 122 -29t99 -29q74 0 80 72h80q-8 -74 -47 -113q-46 -51 -104 -51z" />
<glyph unicode="&#x654;" horiz-adv-x="280" d="M239 1350q-42 0 -42 41v12q-14 4 -25 0q-55 -25 14 -107l70 -39v-92q-96 90 -195 0v92l45 29q-61 166 64 187q66 10 102 -56q8 -8 9 -26q0 -41 -42 -41z" />
<glyph unicode="&#x655;" horiz-adv-x="327" d="M319 -184q0 -41 -42 -41t-41 41v12q-14 4 -25 0q-55 -23 14 -107l70 -38v-93q-96 90 -195 0v93l45 28q-31 84 -16 127q14 50 80 60t102 -56q8 -8 8 -26z" />
<glyph unicode="&#x660;" horiz-adv-x="421" d="M420 324q0 -31 -27 -77t-98 -46q-29 -1 -65 23q-66 43 -11 151q25 47 98 47q30 0 50 -12q53 -27 53 -86z" />
<glyph unicode="&#x661;" horiz-adv-x="348" d="M227 1163q72 0 72 -82v-964q-12 -51 -82 -109h-80q-29 14 -45 45q0 39 18 57t29 23v893q-12 20 -12 51q-2 86 100 86z" />
<glyph unicode="&#x662;" horiz-adv-x="956" d="M780 1012h-481l14 -703v-215q-43 -72 -67 -83t-65 -11q-42 0 -61 38t0 72t23 35l2 879q-12 4 -22 22t-10 33q0 57 53 67t98 11h608q64 -76 84 -117q0 -39 -24 -48t-35 -11q-43 -17 -79 7t-38 24z" />
<glyph unicode="&#x663;" horiz-adv-x="907" d="M123 1092q0 18 19 46t73 27q80 0 80 -121v-520q33 -74 97 -123t118 -49t112 25q124 53 121 248q-1 96 -29 201t-63 160t-36 90q-1 36 28 65t70 26q71 -4 75 -54t5 -66l90 -263q25 -68 22 -151q1 -131 -67 -245t-191 -148q-60 -19 -115 -19q-195 0 -237 60v-172 q-18 -119 -91 -119t-85 73q2 33 20 54v919q-16 38 -16 56z" />
<glyph unicode="&#x664;" horiz-adv-x="929" d="M233 924q197 106 437 213q150 68 223 28q81 -119 -105 -159t-438 -191l217 -113l47 -45q70 -61 9 -133l-258 -309q180 -66 434 -18q125 -2 125 -138l-60 -49q-313 -14 -618 92q-29 -30 -105 48t52 118l272 312l-307 165q-47 59 -22 114t97 65z" />
<glyph unicode="&#x665;" horiz-adv-x="1159" d="M636 128q157 13 262 138q105 124 92 310t-114 300q-100 114 -256 121q-156 5 -272 -143t-110 -318q8 -170 124 -296q116 -125 274 -112zM606 1151q233 0 390 -172t157 -421t-143 -410q-143 -160 -383 -160t-397 154q-158 154 -150 418q8 265 180 428t346 163z" />
<glyph unicode="&#x666;" horiz-adv-x="942" d="M793 1171q135 0 133 -54t-8 -66v-912q4 -2 24 -38q20 -35 -2 -73t-64 -38q-40 0 -65 11t-68 85v938h-475q-4 0 -39 -24t-73 -11q-38 12 -50 47t11 65t55 70h621z" />
<glyph unicode="&#x667;" horiz-adv-x="1064" d="M553 -10q-100 0 -100 78v8q0 29 8 37l-322 872l-24 51q0 88 78 97q47 6 79 -25q32 -32 31 -58q0 -26 -4 -32l268 -733l310 714q-7 8 -7 37t23 60t70 30q13 0 39 -9q64 -22 63 -75q-35 -68 -35 -69l-379 -881q-43 -102 -98 -102z" />
<glyph unicode="&#x668;" horiz-adv-x="1058" d="M948 -2q-48 0 -70 29t-23 59t5 39l-315 729l-275 -748q4 -8 4 -34t-32 -58q-32 -31 -80 -24q-78 10 -78 98l25 51l327 891q-14 14 -11 33q3 20 7 42t34 37t64 15q55 0 101 -104l387 -901q2 -2 35 -72q0 -54 -74 -80q-21 -2 -31 -2z" />
<glyph unicode="&#x669;" horiz-adv-x="862" d="M450 344q76 0 159 71q46 38 61 81l2 530q-25 -4 -90 -24q-197 -62 -291 -200q-57 -85 -58 -196q1 -39 11 -96q10 -58 70 -112t136 -54zM737 1167h6q46 0 117 -26q14 -45 1 -72t-25 -37v-909q8 -20 8 -49t-18 -57q-18 -27 -66 -27q-47 0 -72 26q-24 26 -24 59q0 32 8 48 v145q22 27 -60 -16t-170 -43q-34 0 -67 6q-117 25 -183 99t-88 157q-23 82 -22 145q2 152 73 260t246 199q175 92 336 92z" />
<glyph unicode="&#x66a;" horiz-adv-x="991" d="M702 45h-161v170h161v-170zM928 1223l-778 -1289l-80 48l778 1290zM481 1024h-162v170h162v-170z" />
<glyph unicode="&#x66b;" horiz-adv-x="274" d="M33 197h162v-166q0 -88 -144 -221h-51q100 88 96 188q-4 55 -63 51v148z" />
<glyph unicode="&#x66c;" horiz-adv-x="274" d="M33 197h162v-166q0 -88 -144 -221h-51q100 88 96 188q-4 55 -63 51v148z" />
<glyph unicode="&#x66d;" horiz-adv-x="1024" d="M915 502l-237 -189l104 -282l-34 -31l-232 193l-233 -193l-35 27l106 284l-239 191l18 43l283 -43l80 293h41l77 -293l283 41z" />
<glyph unicode="&#x670;" d="M47 1114v234h90v-234h-90z" />
<glyph unicode="&#x671;" horiz-adv-x="387" d="M188 1077q0 49 41 79t82 0t41 -89v-829q6 -68 37 -83t31 -69t-43 -78l-19 -8l-24 -2q-12 0 -19 -6q-107 8 -127 145v940zM336 1450q-80 0 -133 -111h203q-8 111 -70 111zM119 1305v30h45v101h31v-58q47 104 137 105q111 0 110 -178h-323z" />
<glyph unicode="&#x67e;" horiz-adv-x="1325" d="M766 -461q0 109 108 109t109 -109q0 -109 -109 -108q-108 -1 -108 108zM1012 -332q-108 0 -109 110q0 110 109 109q108 1 108 -109t-108 -110zM629 -225q0 109 108 108q109 -1 109 -109t-108 -108t-109 109zM1442 707q0 -59 -31 -76q-31 -14 -37 -82v-389 q0 -130 -96 -148t-164 -12h-420q-328 2 -434 190q-104 190 -15 398t373 209h115v-11q43 -27 43 -67t-16 -58t-29 -20q-31 -12 -104 -6q-162 18 -232 -111q-70 -124 4 -245q76 -119 291 -115h408q113 -2 112 86v399q20 139 127 148l43 -11q62 -20 62 -79z" />
<glyph unicode="&#x686;" horiz-adv-x="1204" d="M668 -360q0 26 -34 48t-113 4t-161 -5q-205 35 -204 237q0 110 87 176t263 66h391q-111 102 -303 379q-86 119 -158 89t-151 -149q-29 -27 -76 -16q-41 11 -44 63t21 93q90 129 203 166q203 70 359 -179l239 -311q58 -84 129 -135l8 -2q6 0 9 -2l16 -6q43 -20 43 -68 t-43 -76q-25 -10 -39 -10l-2 -4l-666 2q-86 0 -94 -76q10 -74 98 -74q309 51 381 -104q43 -82 7 -135q-38 -51 -90 -42t-64 27t-12 44zM1008 -424q-78 0 -78 79t78 79t78 -79t-78 -79zM1102 -268q-78 0 -78 78t78 78t78 -78t-78 -78zM924 -266q-78 0 -78 78t78 77 q78 0 77 -77q1 -78 -77 -78z" />
<glyph unicode="&#x698;" horiz-adv-x="446" d="M508 711q0 -59 -31 -76q-31 -14 -37 -82v-518q-49 -352 -321 -363h-21q-137 23 -147 127q6 12 6 21l4 24l8 19q27 41 70 41q59 16 95 -62q9 -20 79 24t63 388v399q20 137 127 148l43 -10q62 -21 62 -80zM376 1186q-110 0 -110 108t110 109q110 0 109 -109 q1 -108 -109 -108zM500 946q-109 0 -109 110t109 109q109 1 109 -109t-109 -110zM336 1058q0 -108 -110 -108t-109 109q-1 109 109 109q110 -2 110 -110z" />
<glyph unicode="&#x6a4;" horiz-adv-x="1437" d="M1238 1186q-110 0 -110 108t110 109q110 -1 110 -109t-110 -108zM1362 946q-109 0 -109 110t109 109q109 1 109 -109t-109 -110zM1198 1058q0 -108 -110 -108t-109 109q-1 109 109 109q110 -2 110 -110zM641 797h113v-11h2q43 -27 43 -65q1 -38 -17 -58t-30 -22 q-31 -12 -105 -6q-162 18 -231 -111q-72 -125 6 -245q63 -109 272 -117v4h496l-246 106q-231 74 -117 246l160 154q119 119 190 138t185 -17q100 -35 123 -236l4 -2v-328q8 -66 -35 -137q-45 -68 -111 -90h-628q-328 2 -434 190q-103 190 -15 398t375 209zM1325 270v267 q-66 158 -190 49l-86 -78q-90 -76 30 -123z" />
<glyph unicode="&#x6f0;" horiz-adv-x="421" d="M420 324q0 -31 -27 -77t-98 -46q-29 -1 -65 23q-66 43 -11 151q25 47 98 47q30 0 50 -12q53 -27 53 -86z" />
<glyph unicode="&#x6f1;" horiz-adv-x="348" d="M227 1163q72 0 72 -82v-964q-12 -51 -82 -109h-80q-29 14 -45 45q0 39 18 57t29 23v893q-12 20 -12 51q-2 86 100 86z" />
<glyph unicode="&#x6f2;" horiz-adv-x="956" d="M780 1012h-481l14 -703v-215q-43 -72 -67 -83t-65 -11q-42 0 -61 38t0 72t23 35l2 879q-12 4 -22 22t-10 33q0 57 53 67t98 11h608q64 -76 84 -117q0 -39 -24 -48t-35 -11q-43 -17 -79 7t-38 24z" />
<glyph unicode="&#x6f3;" horiz-adv-x="907" d="M123 1092q0 18 19 46t73 27q80 0 80 -121v-520q33 -74 97 -123t118 -49t112 25q124 53 121 248q-1 96 -29 201t-63 160t-36 90q-1 36 28 65t70 26q71 -4 75 -54t5 -66l90 -263q25 -68 22 -151q1 -131 -67 -245t-191 -148q-60 -19 -115 -19q-195 0 -237 60v-172 q-18 -119 -91 -119t-85 73q2 33 20 54v919q-16 38 -16 56z" />
<glyph unicode="&#x6f4;" horiz-adv-x="929" d="M233 924q197 106 437 213q150 68 223 28q81 -119 -105 -159t-438 -191l217 -113l47 -45q70 -61 9 -133l-258 -309q180 -66 434 -18q125 -2 125 -138l-60 -49q-313 -14 -618 92q-29 -30 -105 48t52 118l272 312l-307 165q-47 59 -22 114t97 65z" />
<glyph unicode="&#x6f5;" horiz-adv-x="1159" d="M636 128q157 13 262 138q105 124 92 310t-114 300q-100 114 -256 121q-156 5 -272 -143t-110 -318q8 -170 124 -296q116 -125 274 -112zM606 1151q233 0 390 -172t157 -421t-143 -410q-143 -160 -383 -160t-397 154q-158 154 -150 418q8 265 180 428t346 163z" />
<glyph unicode="&#x6f6;" horiz-adv-x="942" d="M793 1171q135 0 133 -54t-8 -66v-912q4 -2 24 -38q20 -35 -2 -73t-64 -38q-40 0 -65 11t-68 85v938h-475q-4 0 -39 -24t-73 -11q-38 12 -50 47t11 65t55 70h621z" />
<glyph unicode="&#x6f7;" horiz-adv-x="1064" d="M553 -10q-100 0 -100 78v8q0 29 8 37l-322 872l-24 51q0 88 78 97q47 6 79 -25q32 -32 31 -58q0 -26 -4 -32l268 -733l310 714q-7 8 -7 37t23 60t70 30q13 0 39 -9q64 -22 63 -75q-35 -68 -35 -69l-379 -881q-43 -102 -98 -102z" />
<glyph unicode="&#x6f8;" horiz-adv-x="1058" d="M948 -2q-48 0 -70 29t-23 59t5 39l-315 729l-275 -748q4 -8 4 -34t-32 -58q-32 -31 -80 -24q-78 10 -78 98l25 51l327 891q-14 14 -11 33q3 20 7 42t34 37t64 15q55 0 101 -104l387 -901q2 -2 35 -72q0 -54 -74 -80q-21 -2 -31 -2z" />
<glyph unicode="&#x6f9;" horiz-adv-x="862" d="M450 344q76 0 159 71q46 38 61 81l2 530q-25 -4 -90 -24q-197 -62 -291 -200q-57 -85 -58 -196q1 -39 11 -96q10 -58 70 -112t136 -54zM737 1167h6q46 0 117 -26q14 -45 1 -72t-25 -37v-909q8 -20 8 -49t-18 -57q-18 -27 -66 -27q-47 0 -72 26q-24 26 -24 59q0 32 8 48 v145q22 27 -60 -16t-170 -43q-34 0 -67 6q-117 25 -183 99t-88 157q-23 82 -22 145q2 152 73 260t246 199q175 92 336 92z" />
<glyph unicode="&#x2000;" horiz-adv-x="861" />
<glyph unicode="&#x2001;" horiz-adv-x="1722" />
<glyph unicode="&#x2002;" horiz-adv-x="861" />
<glyph unicode="&#x2003;" horiz-adv-x="1722" />
<glyph unicode="&#x2004;" horiz-adv-x="574" />
<glyph unicode="&#x2005;" horiz-adv-x="430" />
<glyph unicode="&#x2006;" horiz-adv-x="287" />
<glyph unicode="&#x2007;" horiz-adv-x="287" />
<glyph unicode="&#x2008;" horiz-adv-x="215" />
<glyph unicode="&#x2009;" horiz-adv-x="344" />
<glyph unicode="&#x200a;" horiz-adv-x="95" />
<glyph unicode="&#x200c;" horiz-adv-x="40" d="M41 0h-41v1479h41v-1479z" />
<glyph unicode="&#x200d;" horiz-adv-x="40" d="M41 0h-41v1407l-76 -76l-28 27l98 98l-98 96l28 29l96 -98l97 98l28 -29l-96 -96l96 -98l-28 -27l-76 76v-1407z" />
<glyph unicode="&#x200e;" horiz-adv-x="40" d="M41 1438v-1438h-41v1479h197l-74 73l29 29l122 -125l-122 -125l-29 29l78 78h-160z" />
<glyph unicode="&#x200f;" horiz-adv-x="40" d="M41 0h-41v1438h-160l78 -78l-29 -29l-122 125l122 125l29 -29l-74 -73h197v-1479z" />
<glyph unicode="&#x2010;" horiz-adv-x="929" d="M49 393v80h862v-80h-862z" />
<glyph unicode="&#x2011;" horiz-adv-x="1017" d="M954 389h-893v117h893v-117z" />
<glyph unicode="&#x2012;" horiz-adv-x="1017" d="M954 389h-893v117h893v-117z" />
<glyph unicode="&#x2013;" horiz-adv-x="1148" d="M1085 389h-1024v117h1024v-117z" />
<glyph unicode="&#x2014;" horiz-adv-x="2172" d="M2109 389h-2048v117h2048v-117z" />
<glyph unicode="&#x201c;" horiz-adv-x="546" d="M233 938h-163v166q0 88 145 221h51q-100 -88 -96 -188q4 -53 63 -52v-147zM453 938h-164v166q0 90 143 221h53q-100 -88 -96 -188q4 -53 64 -52v-147z" />
<glyph unicode="&#x201d;" horiz-adv-x="546" d="M266 1157q0 -86 -145 -219h-51q102 90 98 186q-4 53 -64 52v149h162v-168zM485 1157q0 -86 -145 -219h-51q100 88 96 186q0 55 -61 52v149h161v-168z" />
<glyph unicode="&#x202f;" horiz-adv-x="344" />
<glyph unicode="&#x205f;" horiz-adv-x="430" />
<glyph unicode="&#x2421;" horiz-adv-x="1452" d="M446 387q0 152 -94 188q-35 10 -90 11h-112v-406h114q90 0 129 37q53 59 53 170zM518 385q0 -219 -162 -258q-45 -10 -84 -10h-194v532h184q70 0 94 -8q162 -37 162 -256zM981 117h-399v532h387v-63h-314v-162h293v-64h-293v-180h326v-63zM1380 117h-333v532h73v-469h260 v-63z" />
<glyph unicode="&#x25fc;" horiz-adv-x="500" d="M0 0v0v0v0v0z" />
<glyph unicode="&#xfd3e;" horiz-adv-x="557" d="M70 543q0 373 321 743l88 -82q-268 -317 -268 -647q0 -416 285 -694l-84 -82q-168 190 -255 362t-87 400z" />
<glyph unicode="&#xfd3f;" horiz-adv-x="557" d="M496 522q0 -371 -322 -741l-86 82q266 309 266 647q0 416 -284 694l86 82q170 -195 255 -367t85 -397z" />
<glyph unicode="&#xfeff;" />
<glyph horiz-adv-x="573" />
<glyph horiz-adv-x="559" />
<glyph horiz-adv-x="358" d="M371 0h-385l2 172h383v-172z" />
<glyph horiz-adv-x="1275" />
<glyph />
</font>
</defs>
</svg>
