<?xml version="1.0" standalone="no"?>
<!DOCTYPE svg PUBLIC "-//W3C//DTD SVG 1.1//EN" "http://www.w3.org/Graphics/SVG/1.1/DTD/svg11.dtd" >
<svg xmlns="http://www.w3.org/2000/svg" xmlns:xlink="http://www.w3.org/1999/xlink" version="1.1">
<metadata></metadata>
<defs>
<font id="sahl_naskhregular" horiz-adv-x="0" >
<font-face units-per-em="1000" ascent="800" descent="-200" />
<missing-glyph horiz-adv-x="259" />
<glyph unicode="&#x627;&#xfedf;&#xfee0;&#xfeea;" horiz-adv-x="1340" arabic-form="isolated" d="M328 59q-61 5 -94.5 13t-73 27t-60 36.5t-20.5 32.5t15.5 52t26.5 57q17 32 74.5 73.5t127.5 70.5l-6 49q23 22 44.5 36.5t44.5 29.5q4 -201 10 -351l3 -75q53 -30 122 -30q66 0 128 30q-36 301 -46 460q33 35 79 66q6 -138 9 -282l5 -244q53 -30 120 -30h3q72 0 130 31 q-23 296 -59 603q35 37 79 66q3 -92 8.5 -174.5t10 -158.5t8 -149.5t4.5 -148.5q0 -41 -41 -118q-22 -41 -140 -41q-91 0 -135 42q-42 -23 -76 -32.5t-85 -9.5h-5q-70 1 -113 27.5t-51 75.5l-7 42zM1249 613q7 -198 7 -231q0 -197 -8 -382l-54 -10q-5 329 -27 614l-6 87 q0 37 18.5 58.5t59.5 30.5q3 -11 5.5 -21t36.5 -119zM365 155l-30 190q-140 -50 -198 -123q30 -23 57 -36.5t70.5 -21.5t100.5 -9zM748 879q12 -22 18 -47t6 -42q0 -32 -20.5 -57.5t-51.5 -25.5q-11 0 -24.5 5.5t-21.5 16.5q-10 -25 -28.5 -38t-37.5 -13q-26 0 -43 16.5 t-17 48.5q0 10 4 28t12 33l20 -4q-5 -21 -5 -35q0 -37 32 -37q15 0 25 11t10 29l-2 46l31 20q6 -47 19 -62t36 -15q8 0 15.5 5.5t10.5 10.5q-3 17 -21 54q-2 6 -3 12q0 12 11 24.5t25 15.5zM636 1157q12 -69 15.5 -104.5t3.5 -84.5q0 -63 -33 -108l-7 2q0 108 -22 196 q-4 16 -4 28q0 25 13 44t34 27z" />
<glyph unicode="&#xfedf;&#xfe82;" horiz-adv-x="659" arabic-form="isolated" d="M211 -10q-3 0 -3 12q0 23 6.5 50.5t11.5 27.5h24q73 58 100 82t49 47.5t40 48.5q-115 129 -248 208l-43 -3q-32 29 -44.5 53.5t-12.5 48.5q0 17 7.5 34t32.5 30q78 -54 180 -146.5t162 -167.5q23 50 23 101q0 49 -30 245q-9 53 -9 65q0 59 79 74q3 -11 5.5 -21t36.5 -119 l-32 -27q9 -158 9 -193q0 -90 -46 -176q90 -150 90 -174q0 -19 -14 -48.5t-23 -31.5q-115 -20 -351 -20zM552 103q-28 51 -74 110q-53 -71 -135 -131q127 6 209 21zM282 694q-69 0 -153 32q-39 -17 -71 -35l-18 31q85 71 98 71q9 0 63 -12q54 -13 86 -13q26 0 62 8t57 19 l12 -32q-26 -28 -66.5 -48.5t-69.5 -20.5z" />
<glyph unicode="&#xfee0;&#xfe82;" horiz-adv-x="717" arabic-form="final" d="M530 464q-21 -178 -42 -254q-55 -189 -183 -205q-80 -9 -132 -11.5t-107 -3.5l-4 41q126 31 187.5 54t99.5 53q-88 194 -214 314h-43q-21 22 -33.5 41.5t-15 34t-2.5 25.5q0 46 44 65q70 -45 139.5 -139.5t109.5 -191.5q20 -52 44 -123q8 7 27 32q46 64 72 189.5 t33 328.5q35 37 79 66q7 -143 13 -498l3 -172q54 -30 123 -30q10 0 10 -10v-70q0 -10 -10 -10q-69 0 -115 27.5t-52 75.5q-12 92 -18.5 179t-12.5 192zM330 670q-69 0 -153 32q-39 -17 -71 -35l-18 31q85 71 98 71q9 0 63 -12q54 -13 86 -13q26 0 62 8t57 19l12 -32 q-26 -28 -66.5 -48.5t-69.5 -20.5z" />
<glyph unicode="&#xfedf;&#xfe84;" horiz-adv-x="608" arabic-form="isolated" d="M161 -10q-3 0 -3 12q0 23 6.5 50.5t11.5 27.5h24q73 58 100 82t49 47.5t40 48.5q-115 129 -248 208l-43 -3q-32 29 -44.5 53.5t-12.5 48.5q0 17 7.5 34t32.5 30q78 -54 180 -146.5t162 -167.5q23 50 23 101q0 49 -30 245q-9 53 -9 65q0 59 79 74q3 -11 5.5 -21t36.5 -119 l-32 -27q9 -158 9 -193q0 -90 -46 -176q90 -150 90 -174q0 -19 -14 -48.5t-23 -31.5q-115 -20 -351 -20zM502 103q-28 51 -74 110q-53 -71 -135 -131q127 6 209 21zM174 843l1 6q0 6 -5.5 12.5t-13.5 6.5q-22 0 -41 -16.5t-28 -39.5q23 -30 72 -30q26 0 71 10l-3 -57 q-64 -17 -100 -31.5t-83 -39.5l-3 57q14 9 29 17t29 16q-54 10 -54 59q0 27 15.5 54t42 45t51.5 18q28 0 43 -14t15 -41q0 -8 -3 -20.5t-7 -19.5z" />
<glyph unicode="&#xfee0;&#xfe84;" horiz-adv-x="717" arabic-form="final" d="M530 464q-21 -178 -42 -254q-55 -189 -183 -205q-80 -9 -132 -11.5t-107 -3.5l-4 41q126 31 187.5 54t99.5 53q-88 194 -214 314h-43q-21 22 -33.5 41.5t-15 34t-2.5 25.5q0 46 44 65q70 -45 139.5 -139.5t109.5 -191.5q20 -52 44 -123q8 7 27 32q46 64 72 189.5 t33 328.5q35 37 79 66q7 -143 13 -498l3 -172q54 -30 123 -30q10 0 10 -10v-70q0 -10 -10 -10q-69 0 -115 27.5t-52 75.5q-12 92 -18.5 179t-12.5 192zM174 852l1 6q0 6 -5.5 12.5t-13.5 6.5q-22 0 -41 -16.5t-28 -39.5q23 -30 72 -30q26 0 71 10l-3 -57q-64 -17 -100 -31.5 t-83 -39.5l-3 57q14 9 29 17t29 16q-54 10 -54 59q0 27 15.5 54t42 45t51.5 18q28 0 43 -14t15 -41q0 -8 -3 -20.5t-7 -19.5z" />
<glyph unicode="&#xfedf;&#xfe88;" horiz-adv-x="608" arabic-form="isolated" d="M235 -136l1 6q0 6 -5.5 12.5t-13.5 6.5q-22 0 -41 -16.5t-28 -39.5q23 -30 72 -30q26 0 71 10l-3 -57q-64 -17 -100 -31.5t-83 -39.5l-3 57q14 9 29 17t29 16q-54 10 -54 59q0 27 15.5 54t42 45t51.5 18q28 0 43 -14t15 -41q0 -8 -3 -20.5t-7 -19.5zM161 -10q-3 0 -3 12 q0 23 6.5 50.5t11.5 27.5h24q73 58 100 82t49 47.5t40 48.5q-115 129 -248 208l-43 -3q-32 29 -44.5 53.5t-12.5 48.5q0 17 7.5 34t32.5 30q78 -54 180 -146.5t162 -167.5q23 50 23 101q0 49 -30 245q-9 53 -9 65q0 59 79 74q3 -11 5.5 -21t36.5 -119l-32 -27q9 -158 9 -193 q0 -90 -46 -176q90 -150 90 -174q0 -19 -14 -48.5t-23 -31.5q-115 -20 -351 -20zM502 103q-28 51 -74 110q-53 -71 -135 -131q127 6 209 21z" />
<glyph unicode="&#xfee0;&#xfe88;" horiz-adv-x="717" arabic-form="final" d="M255 -136l1 6q0 6 -5.5 12.5t-13.5 6.5q-22 0 -41 -16.5t-28 -39.5q23 -30 72 -30q26 0 71 10l-3 -57q-64 -17 -100 -31.5t-83 -39.5l-3 57q14 9 29 17t29 16q-54 10 -54 59q0 27 15.5 54t42 45t51.5 18q28 0 43 -14t15 -41q0 -8 -3 -20.5t-7 -19.5zM530 464 q-21 -178 -42 -254q-55 -189 -183 -205q-80 -9 -132 -11.5t-107 -3.5l-4 41q126 31 187.5 54t99.5 53q-88 194 -214 314h-43q-21 22 -33.5 41.5t-15 34t-2.5 25.5q0 46 44 65q70 -45 139.5 -139.5t109.5 -191.5q20 -52 44 -123q8 7 27 32q46 64 72 189.5t33 328.5 q35 37 79 66q7 -143 13 -498l3 -172q54 -30 123 -30q10 0 10 -10v-70q0 -10 -10 -10q-69 0 -115 27.5t-52 75.5q-12 92 -18.5 179t-12.5 192z" />
<glyph unicode="&#xfedf;&#xfe8e;" horiz-adv-x="608" arabic-form="isolated" d="M161 -10q-3 0 -3 12q0 23 6.5 50.5t11.5 27.5h24q73 58 100 82t49 47.5t40 48.5q-115 129 -248 208l-43 -3q-32 29 -44.5 53.5t-12.5 48.5q0 17 7.5 34t32.5 30q78 -54 180 -146.5t162 -167.5q23 50 23 101q0 49 -30 245q-9 53 -9 65q0 59 79 74q3 -11 5.5 -21t36.5 -119 l-32 -27q9 -158 9 -193q0 -90 -46 -176q90 -150 90 -174q0 -19 -14 -48.5t-23 -31.5q-115 -20 -351 -20zM502 103q-28 51 -74 110q-53 -71 -135 -131q127 6 209 21z" />
<glyph unicode="&#xfee0;&#xfe8e;" horiz-adv-x="717" arabic-form="final" d="M530 464q-21 -178 -42 -254q-55 -189 -183 -205q-80 -9 -132 -11.5t-107 -3.5l-4 41q126 31 187.5 54t99.5 53q-88 194 -214 314h-43q-21 22 -33.5 41.5t-15 34t-2.5 25.5q0 46 44 65q70 -45 139.5 -139.5t109.5 -191.5q20 -52 44 -123q8 7 27 32q46 64 72 189.5 t33 328.5q35 37 79 66q7 -143 13 -498l3 -172q54 -30 123 -30q10 0 10 -10v-70q0 -10 -10 -10q-69 0 -115 27.5t-52 75.5q-12 92 -18.5 179t-12.5 192z" />
<glyph unicode="&#xfedf;&#xfb51;" horiz-adv-x="608" d="M161 -10q-3 0 -3 12q0 23 6.5 50.5t11.5 27.5h24q73 58 100 82t49 47.5t40 48.5q-115 129 -248 208l-43 -3q-32 29 -44.5 53.5t-12.5 48.5q0 17 7.5 34t32.5 30q78 -54 180 -146.5t162 -167.5q23 50 23 101q0 49 -30 245q-9 53 -9 65q0 59 79 74q3 -11 5.5 -21t36.5 -119 l-32 -27q9 -158 9 -193q0 -90 -46 -176q90 -150 90 -174q0 -19 -14 -48.5t-23 -31.5q-115 -20 -351 -20zM502 103q-28 51 -74 110q-53 -71 -135 -131q127 6 209 21zM268 667q-26 0 -50 8t-55 24q-25 -12 -45 -32l-18 15q21 33 39 50t39 17q5 0 23 -8q23 35 48 55t56 20 q23 0 40 -22.5t17 -55.5q0 -18 -11 -45q-27 -18 -43 -22t-40 -4zM295 766q-31 0 -69 -35q21 -10 42 -10q30 0 40.5 2t31.5 11q-17 32 -45 32z" />
<glyph unicode="&#xfee0;&#xfb51;" horiz-adv-x="717" d="M530 464q-21 -178 -42 -254q-55 -189 -183 -205q-80 -9 -132 -11.5t-107 -3.5l-4 41q126 31 187.5 54t99.5 53q-88 194 -214 314h-43q-21 22 -33.5 41.5t-15 34t-2.5 25.5q0 46 44 65q70 -45 139.5 -139.5t109.5 -191.5q20 -52 44 -123q8 7 27 32q46 64 72 189.5 t33 328.5q35 37 79 66q7 -143 13 -498l3 -172q54 -30 123 -30q10 0 10 -10v-70q0 -10 -10 -10q-69 0 -115 27.5t-52 75.5q-12 92 -18.5 179t-12.5 192zM330 627q-26 0 -50 8t-55 24q-25 -12 -45 -32l-18 15q21 33 39 50t39 17q5 0 23 -8q23 35 48 55t56 20q23 0 40 -22.5 t17 -55.5q0 -18 -11 -45q-27 -18 -43 -22t-40 -4zM357 726q-31 0 -69 -35q21 -10 42 -10q30 0 40.5 2t31.5 11q-17 32 -45 32z" />
<glyph unicode="&#x620;" horiz-adv-x="299" d="M0 -5l10 82q59 0 92 4.5t47 23t14 58.5q0 38 -17.5 95.5t-39.5 114.5l81 30q13 -32 24.5 -73t19.5 -81t8 -70q0 -96 -51 -138q16 -12 25.5 -30.5t9.5 -40.5q0 -37 -26 -63t-63 -26t-63 26t-26 63q0 14 4 27q-23 -2 -49 -2zM134 -68q17 0 29 11t12 27q0 17 -12 28.5 t-29 11.5h-1.5t-8.5 -1q-1 -1 -2 -1q-13 -3 -21 -14t-8 -24q0 -16 12 -27t29 -11z" />
<glyph unicode="&#x620;" horiz-adv-x="373" d="M0 -5l10 82q50 0 78 7.5t42.5 29t23.5 62.5t22 107l78 -15q-6 -27 -13.5 -62t-7.5 -59q0 -15 2 -28t15 -22t44 -14.5t89 -5.5q21 0 30.5 -11.5t9.5 -27.5t-14 -29.5t-36 -13.5q-65 0 -101.5 7.5t-54 22t-25.5 36.5q-12 -17 -26 -29q15 -12 24 -30t9 -39q0 -37 -26 -63 t-63 -26t-63 26t-26 63q0 17 6 32h-27zM110 -75q17 0 29 11t12 27q0 17 -12 28.5t-29 11.5t-29 -11.5t-12 -28.5q0 -16 12 -27t29 -11z" />
<glyph unicode="&#x620;" horiz-adv-x="736" d="M30 -1q0 36 10 80t32 97l72 -28q-16 -42 -24 -77t-8 -65q0 -55 32.5 -90t86 -51t117.5 -16q77 0 140.5 18t101.5 47.5t38 65.5q0 26 -40 45t-112 39l19 83q104 -40 162 -55t89 -15q21 0 30.5 -11.5t9.5 -27.5t-14 -29.5t-36 -13.5h-37q2 -9 3 -14.5t1 -14.5 q0 -43 -34.5 -83.5t-100 -70t-157.5 -39.5q12 -21 12 -45q0 -37 -26 -63t-63 -26t-63 26t-26 63q0 24 12 45q-64 10 -115.5 38t-81.5 75t-30 113zM334 -310q17 0 29 11t12 27q0 17 -12 28.5t-29 11.5t-29 -11.5t-12 -28.5q0 -16 12 -27t29 -11z" />
<glyph unicode="&#x63b;" horiz-adv-x="412" d="M262 723q-21 0 -35.5 14.5t-14.5 34.5t14.5 35t35.5 15q20 0 34.5 -15t14.5 -35t-14.5 -34.5t-34.5 -14.5zM147 670q-21 0 -35.5 14.5t-14.5 34.5t14.5 35t35.5 15q20 0 34.5 -15t14.5 -35t-14.5 -34.5t-34.5 -14.5zM0 -5l10 82h94q59 0 93.5 6.5t51 17t22 23t5.5 25.5 q0 23 -17.5 57t-71.5 88q-37 38 -74 67t-61 49t-24 29q0 23 5.5 43t15.5 31q40 43 125.5 86.5t213.5 107.5l34 -74q-91 -44 -148.5 -72.5t-95 -50t-69.5 -43.5q117 -95 179.5 -170.5t62.5 -152.5q0 -22 -8 -48t-34 -49t-78 -37.5t-140 -14.5h-91z" />
<glyph unicode="&#x63b;" horiz-adv-x="508" d="M230 723q-21 0 -35.5 14.5t-14.5 34.5t14.5 35t35.5 15q20 0 34.5 -15t14.5 -35t-14.5 -34.5t-34.5 -14.5zM115 670q-21 0 -35.5 14.5t-14.5 34.5t14.5 35t35.5 15q20 0 34.5 -15t14.5 -35t-14.5 -34.5t-34.5 -14.5zM0 -5l10 82h77q83 0 123 9t52.5 24t12.5 31 q0 24 -18 53t-46 59.5t-59.5 60.5t-59.5 55t-46 43.5t-18 26.5q0 23 5.5 43t15.5 31q27 29 79.5 60.5t120.5 65t139 68.5l34 -74q-88 -44 -172.5 -85t-147.5 -85q55 -47 103 -91t89 -94.5t75 -114.5q21 -39 49 -57t55.5 -23.5t44.5 -5.5q21 0 30.5 -11.5t9.5 -27.5 t-14 -29.5t-36 -13.5q-24 0 -55.5 6.5t-63.5 25t-56 54.5q-20 -29 -50 -48t-78 -28.5t-122 -9.5h-83z" />
<glyph unicode="&#x63b;" horiz-adv-x="975" d="M733 723q-21 0 -35.5 14.5t-14.5 34.5t14.5 35t35.5 15q20 0 34.5 -15t14.5 -35t-14.5 -34.5t-34.5 -14.5zM618 670q-21 0 -35.5 14.5t-14.5 34.5t14.5 35t35.5 15q20 0 34.5 -15t14.5 -35t-14.5 -34.5t-34.5 -14.5zM390 -21q-178 0 -269 47t-91 156q0 37 9 78.5t19 78.5 l75 -19q-6 -22 -13.5 -55.5t-7.5 -59.5q0 -52 26.5 -83.5t92.5 -46t185 -14.5q125 0 196 13t100.5 32t29.5 35q0 24 -18 53t-46 59.5t-59.5 60.5t-59.5 55t-46 43.5t-18 26.5q0 23 5.5 43t15.5 31q27 29 79.5 60.5t120.5 65t139 68.5l34 -74q-88 -44 -172.5 -85t-147.5 -85 q55 -47 103 -91t89 -94.5t75 -114.5q21 -39 49 -57t55.5 -23.5t44.5 -5.5q21 0 30.5 -11.5t9.5 -27.5t-14 -29.5t-36 -13.5q-24 0 -56 6.5t-63.5 25t-55.5 54.5q-17 -22 -45 -41t-74.5 -32.5t-117.5 -21t-173 -7.5z" />
<glyph unicode="&#x63c;" horiz-adv-x="412" d="M0 -10q-10 0 -10 10v70q0 10 10 10q107 0 191.5 16t155.5 53q-44 134 -247 231q-11 -4 -28 -4q-30 0 -51 21.5t-21 54.5q0 22 12 65.5t19 47.5q138 72 219.5 109.5t198.5 85.5q9 -8 13.5 -20.5t4.5 -24.5l-1 -10q-6 -42 -49 -59q-208 -85 -374 -161q90 -22 172 -73 t130.5 -113t48.5 -116q0 -95 -98 -144t-296 -49zM95 -189q-21 0 -35.5 14.5t-14.5 34.5t14.5 35t35.5 15q20 0 34.5 -15t14.5 -35t-14.5 -34.5t-34.5 -14.5zM231 -189q-21 0 -35.5 14.5t-14.5 34.5t14.5 35t35.5 15q20 0 34.5 -15t14.5 -35t-14.5 -34.5t-34.5 -14.5z M163 -299q-21 0 -35.5 14.5t-14.5 34.5t14.5 35t35.5 15q20 0 34.5 -15t14.5 -35t-14.5 -34.5t-34.5 -14.5z" />
<glyph unicode="&#x63c;" horiz-adv-x="508" d="M185 123q-17 80 -65 144q-52 62 -85.5 120.5t-33.5 90.5q0 31 11 50.5t40 35.5q69 39 141 72t295 124q9 -8 13.5 -20.5t4.5 -24.5l-1 -10q-6 -42 -49 -59l-113 -46q-197 -80 -300 -126q93 -113 156 -178.5t128.5 -119.5t117.5 -75t105 -21q10 0 10 -10v-70q0 -10 -10 -10 q-66 0 -119 18.5t-107 62t-94 80.5q0 -49 -28 -96q-54 -32 -101.5 -48.5t-100.5 -16.5q-10 0 -10 10v70q0 10 10 10q42 0 92.5 11.5t92.5 31.5zM95 -189q-21 0 -35.5 14.5t-14.5 34.5t14.5 35t35.5 15q20 0 34.5 -15t14.5 -35t-14.5 -34.5t-34.5 -14.5zM231 -189 q-21 0 -35.5 14.5t-14.5 34.5t14.5 35t35.5 15q20 0 34.5 -15t14.5 -35t-14.5 -34.5t-34.5 -14.5zM163 -299q-21 0 -35.5 14.5t-14.5 34.5t14.5 35t35.5 15q20 0 34.5 -15t14.5 -35t-14.5 -34.5t-34.5 -14.5z" />
<glyph unicode="&#x63c;" horiz-adv-x="975" d="M344 -10q-138 0 -201 42t-63 128q0 37 21 85l38 -14q-6 -32 -6 -48q0 -54 50.5 -78.5t168.5 -24.5q60 0 118 12.5t88 30.5q-17 80 -65 144q-52 62 -85.5 120.5t-33.5 90.5q0 31 11 50.5t40 35.5q69 39 141 72t295 124q9 -8 13.5 -20.5t4.5 -24.5l-1 -10q-6 -42 -49 -59 l-113 -46q-197 -80 -300 -126q93 -113 156 -178.5t128.5 -119.5t117.5 -75t105 -21q10 0 10 -10v-70q0 -10 -10 -10q-66 0 -119 18.5t-107 62t-94 80.5q0 -49 -28 -96q-47 -30 -110.5 -47.5t-120.5 -17.5zM342 -210q-21 0 -35.5 14.5t-14.5 34.5t14.5 35t35.5 15 q20 0 34.5 -15t14.5 -35t-14.5 -34.5t-34.5 -14.5zM478 -210q-21 0 -35.5 14.5t-14.5 34.5t14.5 35t35.5 15q20 0 34.5 -15t14.5 -35t-14.5 -34.5t-34.5 -14.5zM410 -320q-21 0 -35.5 14.5t-14.5 34.5t14.5 35t35.5 15q20 0 34.5 -15t14.5 -35t-14.5 -34.5t-34.5 -14.5z" />
<glyph unicode="&#x63d;" horiz-adv-x="269" d="M0 -10q-10 0 -10 10v70q0 10 10 10q52 0 109 11.5t99 31.5q-14 52 -42 129q-22 61 -23 79q0 27 21.5 54t55.5 45q5 -34 12.5 -68t14.5 -66.5t12 -63t5 -57.5q0 -38 -41 -120q-109 -65 -223 -65zM120 510q-6 -38 -28.5 -92t-39.5 -77q-12 1 -21.5 11.5t-9.5 30.5 q0 9 5.5 19.5t15 29t23 48.5t29.5 78q28 17 72 24q26 -56 53 -109t62 -103l-22 -5q-13 -4 -25 -4q-24 0 -41.5 19.5t-33 45.5t-39.5 84zM179 -194q-21 0 -35.5 14.5t-14.5 34.5t14.5 35t35.5 15q20 0 34.5 -15t14.5 -35t-14.5 -34.5t-34.5 -14.5zM42 -194q-21 0 -35.5 14.5 t-14.5 34.5t14.5 35t35.5 15q20 0 34.5 -15t14.5 -35t-14.5 -34.5t-34.5 -14.5z" />
<glyph unicode="&#x63d;" horiz-adv-x="343" d="M0 -10q-10 0 -10 10v70q0 10 10 10q50 0 82.5 11t49 32t45.5 78l21 38q10 19 36 19q18 0 29 -9q-33 -79 -57 -125q69 -44 148 -44q10 0 10 -10v-70q0 -10 -10 -10q-109 0 -186 69l-9 -14l-10 -12q-7 -9 -31 -19.5t-55 -17t-63 -6.5zM179 389q-6 -38 -28.5 -92t-39.5 -77 q-12 1 -21.5 11.5t-9.5 30.5q0 9 5.5 19.5t15 29t23 48.5t29.5 78q28 17 72 24q26 -56 53 -109t62 -103l-22 -5q-13 -4 -25 -4q-24 0 -41.5 19.5t-33 45.5t-39.5 84zM242 -194q-21 0 -35.5 14.5t-14.5 34.5t14.5 35t35.5 15q20 0 34.5 -15t14.5 -35t-14.5 -34.5t-34.5 -14.5 zM105 -194q-21 0 -35.5 14.5t-14.5 34.5t14.5 35t35.5 15q20 0 34.5 -15t14.5 -35t-14.5 -34.5t-34.5 -14.5z" />
<glyph unicode="&#x63d;" horiz-adv-x="736" d="M815 -10q-39 0 -93 6t-89 15l106 -57q18 -11 22.5 -28.5t4.5 -40.5q0 -52 -66.5 -105.5t-168 -86.5t-198.5 -33q-121 0 -187 58t-66 163q0 37 4 64.5t19 87.5l43 -10q-13 -50 -13 -84q0 -85 53.5 -133.5t149.5 -48.5q138 0 243.5 34t144.5 93l-23 13q-186 100 -186 123 q0 14 7.5 32.5t18.5 32.5t14 14h2q104 -19 258 -19q13 0 13 -13v-65q0 -12 -13 -12zM209 256q-6 -38 -28.5 -92t-39.5 -77q-12 1 -21.5 11.5t-9.5 30.5q0 9 5.5 19.5t15 29t23 48.5t29.5 78q28 17 72 24q26 -56 53 -109t62 -103l-22 -5q-13 -4 -25 -4q-24 0 -41.5 19.5 t-33 45.5t-39.5 84z" />
<glyph unicode="&#x63e;" horiz-adv-x="299" d="M218 507q-21 0 -35.5 14.5t-14.5 34.5t14.5 35t35.5 15q20 0 34.5 -15t14.5 -35t-14.5 -34.5t-34.5 -14.5zM81 507q-21 0 -35.5 14.5t-14.5 34.5t14.5 35t35.5 15q20 0 34.5 -15t14.5 -35t-14.5 -34.5t-34.5 -14.5zM0 -5l10 82q59 0 92 4.5t47 23t14 58.5 q0 38 -17.5 95.5t-39.5 114.5l81 30q13 -32 24.5 -73t19.5 -81t8 -70q0 -100 -56 -142t-183 -42zM185 -194q-21 0 -35.5 14.5t-14.5 34.5t14.5 35t35.5 15q20 0 34.5 -15t14.5 -35t-14.5 -34.5t-34.5 -14.5zM48 -194q-21 0 -35.5 14.5t-14.5 34.5t14.5 35t35.5 15 q20 0 34.5 -15t14.5 -35t-14.5 -34.5t-34.5 -14.5z" />
<glyph unicode="&#x63e;" horiz-adv-x="373" d="M267 386q-21 0 -35.5 14.5t-14.5 34.5t14.5 35t35.5 15q20 0 34.5 -15t14.5 -35t-14.5 -34.5t-34.5 -14.5zM130 386q-21 0 -35.5 14.5t-14.5 34.5t14.5 35t35.5 15q20 0 34.5 -15t14.5 -35t-14.5 -34.5t-34.5 -14.5zM0 -5l10 82q50 0 78 7.5t42.5 29t23.5 62.5t22 107 l78 -15q-6 -27 -13.5 -62t-7.5 -59q0 -15 2 -28t15 -22t44 -14.5t89 -5.5q21 0 30.5 -11.5t9.5 -27.5t-14 -29.5t-36 -13.5q-65 0 -101.5 7.5t-54 22t-25.5 36.5q-29 -41 -71.5 -53.5t-120.5 -12.5zM252 -194q-21 0 -35.5 14.5t-14.5 34.5t14.5 35t35.5 15q20 0 34.5 -15 t14.5 -35t-14.5 -34.5t-34.5 -14.5zM115 -194q-21 0 -35.5 14.5t-14.5 34.5t14.5 35t35.5 15q20 0 34.5 -15t14.5 -35t-14.5 -34.5t-34.5 -14.5z" />
<glyph unicode="&#x63e;" horiz-adv-x="736" d="M815 -10q-39 0 -93 6t-89 15l106 -57q18 -11 22.5 -28.5t4.5 -40.5q0 -52 -66.5 -105.5t-168 -86.5t-198.5 -33q-121 0 -187 58t-66 163q0 37 4 64.5t19 87.5l43 -10q-13 -50 -13 -84q0 -85 53.5 -133.5t149.5 -48.5q138 0 243.5 34t144.5 93l-23 13q-186 100 -186 123 q0 14 7.5 32.5t18.5 32.5t14 14h2q104 -19 258 -19q13 0 13 -13v-65q0 -12 -13 -12zM287 253q-21 0 -35.5 14.5t-14.5 34.5t14.5 35t35.5 15q20 0 34.5 -15t14.5 -35t-14.5 -34.5t-34.5 -14.5zM150 253q-21 0 -35.5 14.5t-14.5 34.5t14.5 35t35.5 15q20 0 34.5 -15t14.5 -35 t-14.5 -34.5t-34.5 -14.5z" />
<glyph unicode="&#x63f;" horiz-adv-x="299" d="M150 617q-21 0 -35.5 14.5t-14.5 34.5t14.5 35t35.5 15q20 0 34.5 -15t14.5 -35t-14.5 -34.5t-34.5 -14.5zM82 507q-21 0 -35.5 14.5t-14.5 34.5t14.5 35t35.5 15q20 0 34.5 -15t14.5 -35t-14.5 -34.5t-34.5 -14.5zM218 507q-21 0 -35.5 14.5t-14.5 34.5t14.5 35t35.5 15 q20 0 34.5 -15t14.5 -35t-14.5 -34.5t-34.5 -14.5zM0 -5l10 82q59 0 92 4.5t47 23t14 58.5q0 38 -17.5 95.5t-39.5 114.5l81 30q13 -32 24.5 -73t19.5 -81t8 -70q0 -100 -56 -142t-183 -42zM185 -194q-21 0 -35.5 14.5t-14.5 34.5t14.5 35t35.5 15q20 0 34.5 -15t14.5 -35 t-14.5 -34.5t-34.5 -14.5zM48 -194q-21 0 -35.5 14.5t-14.5 34.5t14.5 35t35.5 15q20 0 34.5 -15t14.5 -35t-14.5 -34.5t-34.5 -14.5z" />
<glyph unicode="&#x63f;" horiz-adv-x="373" d="M199 496q-21 0 -35.5 14.5t-14.5 34.5t14.5 35t35.5 15q20 0 34.5 -15t14.5 -35t-14.5 -34.5t-34.5 -14.5zM131 386q-21 0 -35.5 14.5t-14.5 34.5t14.5 35t35.5 15q20 0 34.5 -15t14.5 -35t-14.5 -34.5t-34.5 -14.5zM267 386q-21 0 -35.5 14.5t-14.5 34.5t14.5 35 t35.5 15q20 0 34.5 -15t14.5 -35t-14.5 -34.5t-34.5 -14.5zM0 -5l10 82q50 0 78 7.5t42.5 29t23.5 62.5t22 107l78 -15q-6 -27 -13.5 -62t-7.5 -59q0 -15 2 -28t15 -22t44 -14.5t89 -5.5q21 0 30.5 -11.5t9.5 -27.5t-14 -29.5t-36 -13.5q-65 0 -101.5 7.5t-54 22t-25.5 36.5 q-29 -41 -71.5 -53.5t-120.5 -12.5zM252 -194q-21 0 -35.5 14.5t-14.5 34.5t14.5 35t35.5 15q20 0 34.5 -15t14.5 -35t-14.5 -34.5t-34.5 -14.5zM115 -194q-21 0 -35.5 14.5t-14.5 34.5t14.5 35t35.5 15q20 0 34.5 -15t14.5 -35t-14.5 -34.5t-34.5 -14.5z" />
<glyph unicode="&#x63f;" horiz-adv-x="736" d="M815 -10q-39 0 -93 6t-89 15l106 -57q18 -11 22.5 -28.5t4.5 -40.5q0 -52 -66.5 -105.5t-168 -86.5t-198.5 -33q-121 0 -187 58t-66 163q0 37 4 64.5t19 87.5l43 -10q-13 -50 -13 -84q0 -85 53.5 -133.5t149.5 -48.5q138 0 243.5 34t144.5 93l-23 13q-186 100 -186 123 q0 14 7.5 32.5t18.5 32.5t14 14h2q104 -19 258 -19q13 0 13 -13v-65q0 -12 -13 -12zM219 363q-21 0 -35.5 14.5t-14.5 34.5t14.5 35t35.5 15q20 0 34.5 -15t14.5 -35t-14.5 -34.5t-34.5 -14.5zM151 253q-21 0 -35.5 14.5t-14.5 34.5t14.5 35t35.5 15q20 0 34.5 -15t14.5 -35 t-14.5 -34.5t-34.5 -14.5zM287 253q-21 0 -35.5 14.5t-14.5 34.5t14.5 35t35.5 15q20 0 34.5 -15t14.5 -35t-14.5 -34.5t-34.5 -14.5z" />
<glyph unicode="&#x66e;" horiz-adv-x="324" d="M0 -10q-10 0 -10 10v70q0 10 10 10q52 0 109 11.5t99 31.5q-14 52 -42 129q-22 61 -23 79q0 27 21.5 54t55.5 45q5 -34 12.5 -68t14.5 -66.5t12 -63t5 -57.5q0 -38 -41 -120q-109 -65 -223 -65z" />
<glyph unicode="&#x66e;" horiz-adv-x="344" d="M0 -10q-10 0 -10 10v70q0 10 10 10q50 0 82.5 11t49 32t45.5 78l21 38q10 19 36 19q18 0 29 -9q-33 -79 -57 -125q69 -44 148 -44q10 0 10 -10v-70q0 -10 -10 -10q-109 0 -186 69l-9 -14l-10 -12q-7 -9 -31 -19.5t-55 -17t-63 -6.5z" />
<glyph unicode="&#x66e;" horiz-adv-x="1000" d="M1011 -10q-120 0 -201 83q-73 -40 -177 -61.5t-226 -21.5q-141 0 -214 51.5t-73 149.5q0 77 16 129h42q-1 -5 -2.5 -24t-1.5 -34q0 -69 27.5 -107.5t84.5 -56.5t146 -18q62 0 138.5 10.5t135.5 26t79.5 31t38.5 48.5l17 30q11 19 36 19q17 0 29 -9q-32 -80 -49 -108 q68 -48 154 -48q10 0 10 -10v-70q0 -10 -10 -10z" />
<glyph unicode="&#x66f;" horiz-adv-x="494" d="M378 143q-6 52 -16 92q-83 -64 -167 -64q-51 0 -84 38.5t-33 98.5q0 58 20 111.5t54 85t72 31.5q60 0 107 -43.5t75 -123t28 -174.5q0 -38 -41 -120q-71 -44 -160 -64.5t-232 -20.5q-11 0 -11 11v68q0 11 11 11q130 0 217.5 15.5t159.5 47.5zM223 260q58 0 124 29 q-51 147 -141 147q-35 0 -59 -32t-24 -73q0 -37 24 -54t76 -17z" />
<glyph unicode="&#x66f;" horiz-adv-x="455" d="M102 84q-43 48 -43 101q0 30 6.5 69t14.5 54q33 59 82.5 90.5t103.5 31.5q31 0 59.5 -30.5t46 -80t17.5 -100.5q0 -76 -50 -133q44 -6 126 -6q10 0 10 -10v-70q0 -10 -10 -10q-150 0 -241 38q-42 -20 -93 -29t-130 -9q-11 0 -11 11v68q0 11 11 11q68 0 101 4zM103 196 q49 -57 121 -85q67 26 119 72q-3 30 -19 65t-36 58.5t-33 23.5q-34 0 -80 -40.5t-72 -93.5z" />
<glyph unicode="&#x66f;" horiz-adv-x="754" d="M486 400q49 0 95 -42t77 -116t40 -162h25h42q10 0 10 -10v-70q0 -10 -10 -10h-65q-6 -89 -58 -163t-144 -120.5t-185 -46.5q-110 0 -171.5 58t-61.5 163q0 37 4 64.5t19 87.5l43 -10q-13 -50 -13 -84q0 -88 47.5 -135t135.5 -47q104 0 191.5 40.5t133.5 110.5l-5 83 q-151 5 -207 21t-82.5 50.5t-26.5 89.5q0 60 23.5 118t63 94t79.5 36zM622 81q-15 67 -39 116.5t-54 76t-61 26.5q-23 0 -47.5 -18t-40 -46t-15.5 -51q0 -37 29 -59.5t99 -35.5q29 -7 129 -9z" />
<glyph unicode="&#x672;" horiz-adv-x="297" d="M169 714q8 -184 11 -394q2 -130 5 -210q54 -30 123 -30q10 0 10 -10v-70q0 -10 -10 -10q-69 0 -115 28t-52 75q-23 186 -51 555q32 33 79 66zM97 796q13 0 24 4q-28 14 -41.5 30.5t-13.5 39.5q0 26 16.5 52t43 44t46.5 18q24 0 38 -13.5t14 -38.5q0 -7 -2.5 -19.5 t-5.5 -20.5l-26 7l1 4q0 8 -6 14t-12 6q-16 0 -35.5 -15.5t-30.5 -36.5q14 -15 38.5 -26.5t43.5 -11.5q27 0 59 15l-3 -55q-42 -25 -85.5 -40.5t-63.5 -15.5q-16 0 -36 12q-21 11 -32 11q-21 0 -48 -30l-21 16q13 22 35 42t38 20q3 0 25 -5l5 -1q20 -6 35 -6z" />
<glyph unicode="&#x673;" horiz-adv-x="297" d="M169 780q7 -143 13 -498l3 -172q54 -30 123 -30q10 0 10 -10v-70q0 -10 -10 -10q-69 0 -115 27.5t-52 75.5q-20 162 -40 464l-11 157q35 37 79 66zM158 -242q13 0 24 4q-28 14 -41.5 30.5t-13.5 39.5q0 26 16.5 52t43 44t46.5 18q24 0 38 -13.5t14 -38.5q0 -7 -2.5 -19.5 t-5.5 -20.5l-26 7l1 4q0 8 -6 14t-12 6q-16 0 -35.5 -15.5t-30.5 -36.5q14 -15 38.5 -26.5t43.5 -11.5q27 0 59 15l-3 -55q-42 -25 -85.5 -40.5t-63.5 -15.5q-16 0 -36 12q-21 11 -32 11q-21 0 -48 -30l-21 16q13 22 35 42t38 20q3 0 25 -5l5 -1q20 -6 35 -6z" />
<glyph unicode="&#x675;" horiz-adv-x="297" d="M159 714q8 -184 11 -394q2 -130 5 -210q54 -30 123 -30q10 0 10 -10v-70q0 -10 -10 -10q-69 0 -115 28t-52 75q-23 186 -51 555q32 33 79 66zM365 734l1 6q0 6 -5.5 12.5t-13.5 6.5q-22 0 -41 -16.5t-28 -39.5q23 -30 72 -30q26 0 71 10l-3 -57q-64 -17 -100 -31.5 t-83 -39.5l-3 57q14 9 29 17t29 16q-54 10 -54 59q0 27 15.5 54t42 45t51.5 18q28 0 43 -14t15 -41q0 -8 -3 -20.5t-7 -19.5z" />
<glyph unicode="&#x676;" horiz-adv-x="560" d="M227 -250q-39 0 -96 23.5t-91 51.5l17 39q64 -22 143 -22q152 0 224 150q-126 5 -179.5 21.5t-78.5 50.5t-25 88q0 60 23.5 118t63 94t79.5 36q48 0 89.5 -42.5t68 -118.5t26.5 -154v-5h70q10 0 10 -10v-70q0 -10 -10 -10h-40l-42 1q-18 -69 -56 -124.5t-88.5 -86 t-107.5 -30.5zM443 81q-10 60 -34 111t-55.5 79.5t-64.5 28.5q-24 0 -48 -18t-39.5 -46t-15.5 -51q0 -37 29 -59.5t99 -35.5q32 -7 129 -9zM524 609l1 6q0 6 -5.5 12.5t-13.5 6.5q-22 0 -41 -16.5t-28 -39.5q23 -30 72 -30q26 0 71 10l-3 -57q-64 -17 -100 -31.5t-83 -39.5 l-3 57q14 9 29 17t29 16q-54 10 -54 59q0 27 15.5 54t42 45t51.5 18q28 0 43 -14t15 -41q0 -8 -3 -20.5t-7 -19.5z" />
<glyph unicode="&#x677;" horiz-adv-x="575" d="M242 -250q-39 0 -96 23.5t-91 51.5l17 39q64 -22 143 -22q152 0 224 150q-126 5 -179.5 21.5t-78.5 50.5t-25 88q0 60 23.5 118t63 94t79.5 36q48 0 89.5 -42.5t68 -118.5t26.5 -154v-5h70q10 0 10 -10v-70q0 -10 -10 -10h-40l-42 1q-18 -69 -56 -124.5t-88.5 -86 t-107.5 -30.5zM458 81q-10 60 -34 111t-55.5 79.5t-64.5 28.5q-24 0 -48 -18t-39.5 -46t-15.5 -51q0 -37 29 -59.5t99 -35.5q32 -7 129 -9zM40 429q31 5 68.5 19.5t70.5 35.5q-22 10 -38.5 28t-16.5 43q0 22 13 43t33.5 34.5t39.5 13.5q22 0 36.5 -25t14.5 -70q0 -19 -7 -38 q24 -3 47 -3q-2 -23 -16.5 -31.5t-43.5 -8.5h-9l-9 1q-33 -34 -72 -57t-68 -23q-20 0 -31.5 10t-11.5 28zM160 576q0 -36 57 -54q7 12 7 26q0 22 -9 36.5t-23 14.5q-11 0 -21.5 -8t-10.5 -15zM539 609l1 6q0 6 -5.5 12.5t-13.5 6.5q-22 0 -41 -16.5t-28 -39.5q23 -30 72 -30 q26 0 71 10l-3 -57q-64 -17 -100 -31.5t-83 -39.5l-3 57q14 9 29 17t29 16q-54 10 -54 59q0 27 15.5 54t42 45t51.5 18q28 0 43 -14t15 -41q0 -8 -3 -20.5t-7 -19.5z" />
<glyph unicode="&#x678;" horiz-adv-x="808" d="M815 -10q-39 0 -93 6t-89 15l106 -57q18 -11 22.5 -28.5t4.5 -40.5q0 -52 -66.5 -105.5t-168 -86.5t-198.5 -33q-121 0 -187 58t-66 163q0 37 4 64.5t19 87.5l43 -10q-13 -50 -13 -84q0 -85 53.5 -133.5t149.5 -48.5q138 0 243.5 34t144.5 93l-23 13q-186 100 -186 123 q0 14 7.5 32.5t18.5 32.5t14 14h2q104 -19 258 -19q13 0 13 -13v-65q0 -12 -13 -12zM570 308l1 6q0 6 -5.5 12.5t-13.5 6.5q-22 0 -41 -16.5t-28 -39.5q23 -30 72 -30q26 0 71 10l-3 -57q-64 -17 -100 -31.5t-83 -39.5l-3 57q14 9 29 17t29 16q-54 10 -54 59q0 27 15.5 54 t42 45t51.5 18q28 0 43 -14t15 -41q0 -8 -3 -20.5t-7 -19.5z" />
<glyph unicode="&#x67a;" horiz-adv-x="403" arabic-form="initial" d="M0 -10q-10 0 -10 10v70q0 10 10 10q42 0 101 4.5t108 14.5t79 24q-14 52 -42 129q-22 61 -23 79q0 27 22 54t55 45q5 -34 12.5 -68t14.5 -66.5t12 -63t5 -57.5q0 -38 -41 -120q-50 -30 -135 -47.5t-168 -17.5zM289 590q-27 -40 -70 -80q-48 37 -78 72q23 21 76 79 q10 -11 72 -71zM267 787q-27 -40 -70 -80q-49 38 -78 72q26 23 76 79q10 -11 72 -71z" />
<glyph unicode="&#x67a;" horiz-adv-x="423" arabic-form="medial" d="M314 258q17 0 29 -9q-34 -83 -57 -125q69 -44 148 -44q10 0 10 -10v-70q0 -10 -10 -10q-109 0 -186 69l-9 -14l-10 -12q-7 -8 -44.5 -18.5t-86 -17.5t-98.5 -7q-10 0 -10 10v70q0 10 10 10q156 0 195 27q13 8 27.5 31.5t34.5 62.5l21 38q11 19 36 19zM312 427 q-27 -40 -70 -80q-48 37 -78 72q23 21 76 79q10 -11 72 -71zM290 624q-27 -40 -70 -80q-49 38 -78 72q26 23 76 79q10 -11 72 -71z" />
<glyph unicode="&#x67a;" horiz-adv-x="960" arabic-form="final" d="M971 -10q-120 0 -201 83q-73 -40 -177 -61.5t-226 -21.5q-141 0 -214 51.5t-73 149.5q0 77 16 129h42q-1 -5 -2.5 -24t-1.5 -34q0 -69 27.5 -107.5t84.5 -56.5t146 -18q62 0 138.5 10.5t135.5 26t79.5 31t38.5 48.5l17 30q11 19 36 19q17 0 29 -9q-32 -80 -49 -108 q68 -48 154 -48q10 0 10 -10v-70q0 -10 -10 -10zM516 360q-27 -40 -70 -80q-48 37 -78 72q23 21 76 79q10 -11 72 -71zM494 557q-27 -40 -70 -80q-49 38 -78 72q26 23 76 79q10 -11 72 -71z" />
<glyph unicode="&#x67b;" horiz-adv-x="324" arabic-form="initial" d="M0 -10q-10 0 -10 10v70q0 10 10 10q52 0 109 11.5t99 31.5q-14 52 -42 129q-22 61 -23 79q0 27 21.5 54t55.5 45q5 -34 12.5 -68t14.5 -66.5t12 -63t5 -57.5q0 -38 -41 -120q-109 -65 -223 -65zM229 -367q-27 -40 -70 -80q-49 38 -78 72q26 23 76 79q10 -11 72 -71z M207 -170q-26 -38 -70 -80q-48 37 -78 72q23 21 76 79q20 -21 37.5 -37.5t34.5 -33.5z" />
<glyph unicode="&#x67b;" horiz-adv-x="344" arabic-form="medial" d="M0 -10q-10 0 -10 10v70q0 10 10 10q50 0 82.5 11t49 32t45.5 78l21 38q10 19 36 19q18 0 29 -9q-33 -79 -57 -125q69 -44 148 -44q10 0 10 -10v-70q0 -10 -10 -10q-109 0 -186 69l-9 -14l-10 -12q-7 -9 -31 -19.5t-55 -17t-63 -6.5zM262 -367q-27 -40 -70 -80 q-49 38 -78 72q26 23 76 79q10 -11 72 -71zM240 -170q-26 -38 -70 -80q-48 37 -78 72q23 21 76 79q20 -21 37.5 -37.5t34.5 -33.5z" />
<glyph unicode="&#x67b;" horiz-adv-x="960" arabic-form="final" d="M971 -10q-120 0 -201 83q-73 -40 -177 -61.5t-226 -21.5q-141 0 -214 51.5t-73 149.5q0 77 16 129h42q-1 -5 -2.5 -24t-1.5 -34q0 -69 27.5 -107.5t84.5 -56.5t146 -18q62 0 138.5 10.5t135.5 26t79.5 31t38.5 48.5l17 30q11 19 36 19q17 0 29 -9q-32 -80 -49 -108 q68 -48 154 -48q10 0 10 -10v-70q0 -10 -10 -10zM598 -367q-27 -40 -70 -80q-49 38 -78 72q26 23 76 79q10 -11 72 -71zM576 -170q-26 -38 -70 -80q-48 37 -78 72q23 21 76 79q20 -21 37.5 -37.5t34.5 -33.5z" />
<glyph unicode="&#x67c;" horiz-adv-x="403" d="M0 -10q-10 0 -10 10v70q0 10 10 10q52 0 109 11.5t99 31.5q-14 52 -42 129q-22 61 -23 79q0 27 21.5 54t55.5 45q5 -34 12.5 -68t14.5 -66.5t12 -63t5 -57.5q0 -38 -41 -120q-109 -65 -223 -65zM122 -122q-33 0 -53 24.5t-20 59.5q0 28 11 50t28.5 34t35.5 12 q19 0 37 -12.5t29 -34t11 -50.5q0 -34 -24.5 -58.5t-54.5 -24.5zM171 -39q0 6 -7.5 18t-19 19.5t-28.5 7.5q-14 0 -25.5 -10.5t-11.5 -25.5q0 -18 12 -28.5t34 -10.5q17 0 31.5 10.5t14.5 19.5zM149 588q-27 -40 -70 -80q-48 37 -78 72q23 21 76 79q10 -11 72 -71zM326 605 q-26 -39 -70 -80q-46 35 -78 72q21 19 76 79q10 -11 72 -71z" />
<glyph unicode="&#x67c;" horiz-adv-x="423" d="M314 258q17 0 29 -9q-34 -83 -57 -125q69 -44 148 -44q10 0 10 -10v-70q0 -10 -10 -10q-109 0 -186 69l-9 -14l-10 -12q-7 -8 -44.5 -18.5t-86 -17.5t-98.5 -7q-10 0 -10 10v70q0 10 10 10q156 0 195 27q13 8 27.5 31.5t34.5 62.5l21 38q11 19 36 19zM189 422 q-27 -40 -70 -80q-48 37 -78 72q23 21 76 79q10 -11 72 -71zM366 439q-26 -39 -70 -80q-46 35 -78 72q21 19 76 79q10 -11 72 -71zM168 -119q-33 0 -53 24.5t-20 59.5q0 28 11 50t28.5 34t35.5 12q19 0 37 -12.5t29 -34t11 -50.5q0 -34 -24.5 -58.5t-54.5 -24.5zM217 -36 q0 6 -7.5 18t-19 19.5t-28.5 7.5q-14 0 -25.5 -10.5t-11.5 -25.5q0 -18 12 -28.5t34 -10.5q17 0 31.5 10.5t14.5 19.5z" />
<glyph unicode="&#x67c;" horiz-adv-x="960" d="M971 -10q-120 0 -201 83q-73 -40 -177 -61.5t-226 -21.5q-141 0 -214 51.5t-73 149.5q0 77 16 129h42q-1 -5 -2.5 -24t-1.5 -34q0 -69 27.5 -107.5t84.5 -56.5t146 -18q62 0 138.5 10.5t135.5 26t79.5 31t38.5 48.5l17 30q11 19 36 19q17 0 29 -9q-32 -80 -49 -108 q68 -48 154 -48q10 0 10 -10v-70q0 -10 -10 -10zM478 396q-27 -40 -70 -80q-48 37 -78 72q23 21 76 79q10 -11 72 -71zM655 413q-26 -39 -70 -80q-46 35 -78 72q21 19 76 79q10 -11 72 -71zM486 -132q-33 0 -53 24.5t-20 59.5q0 28 11 50t28.5 34t35.5 12q19 0 37 -12.5 t29 -34t11 -50.5q0 -34 -24.5 -58.5t-54.5 -24.5zM535 -49q0 6 -7.5 18t-19 19.5t-28.5 7.5q-14 0 -25.5 -10.5t-11.5 -25.5q0 -18 12 -28.5t34 -10.5q17 0 31.5 10.5t14.5 19.5z" />
<glyph unicode="&#x67d;" horiz-adv-x="403" d="M0 -10q-10 0 -10 10v70q0 10 10 10q42 0 101 4.5t108 14.5t79 24q-14 52 -42 129q-22 61 -23 79q0 27 22 54t55 45q5 -34 12.5 -68t14.5 -66.5t12 -63t5 -57.5q0 -38 -41 -120q-50 -30 -135 -47.5t-168 -17.5zM177 692q-27 -40 -70 -80q-49 38 -78 72q34 31 76 79 q10 -11 72 -71zM364 709q-27 -40 -70 -80q-48 37 -78 72q26 24 76 79q10 -11 72 -71zM278 563q-47 -50 -68 -65q-44 30 -74 65q39 36 70 72q13 -18 36 -40t36 -32z" />
<glyph unicode="&#x67d;" horiz-adv-x="423" d="M314 258q17 0 29 -9q-34 -83 -57 -125q69 -44 148 -44q10 0 10 -10v-70q0 -10 -10 -10q-109 0 -186 69l-9 -14l-10 -12q-7 -8 -44.5 -18.5t-86 -17.5t-98.5 -7q-10 0 -10 10v70q0 10 10 10q156 0 195 27q13 8 27.5 31.5t34.5 62.5l21 38q11 19 36 19zM203 541 q-27 -40 -70 -80q-49 38 -78 72q34 31 76 79q10 -11 72 -71zM390 558q-27 -40 -70 -80q-48 37 -78 72q26 24 76 79q10 -11 72 -71zM304 412q-47 -50 -68 -65q-44 30 -74 65q39 36 70 72q13 -18 36 -40t36 -32z" />
<glyph unicode="&#x67d;" horiz-adv-x="960" d="M971 -10q-120 0 -201 83q-73 -40 -177 -61.5t-226 -21.5q-141 0 -214 51.5t-73 149.5q0 77 16 129h42q-1 -5 -2.5 -24t-1.5 -34q0 -69 27.5 -107.5t84.5 -56.5t146 -18q62 0 138.5 10.5t135.5 26t79.5 31t38.5 48.5l17 30q11 19 36 19q17 0 29 -9q-32 -80 -49 -108 q68 -48 154 -48q10 0 10 -10v-70q0 -10 -10 -10zM441 447q-27 -40 -70 -80q-49 38 -78 72q34 31 76 79q10 -11 72 -71zM628 464q-27 -40 -70 -80q-48 37 -78 72q26 24 76 79q10 -11 72 -71zM542 318q-47 -50 -68 -65q-44 30 -74 65q39 36 70 72q13 -18 36 -40t36 -32z" />
<glyph unicode="&#x67f;" horiz-adv-x="403" arabic-form="initial" d="M0 -10q-10 0 -10 10v70q0 10 10 10q42 0 101 4.5t108 14.5t79 24q-14 52 -42 129q-22 61 -23 79q0 27 22 54t55 45q5 -34 12.5 -68t14.5 -66.5t12 -63t5 -57.5q0 -38 -41 -120q-50 -30 -135 -47.5t-168 -17.5zM234 574q-27 -40 -70 -80q-48 37 -78 72q23 21 76 79 q10 -11 72 -71zM411 591q-26 -39 -70 -80q-46 35 -78 72q21 19 76 79q10 -11 72 -71zM204 764q-26 -39 -70 -80q-47 36 -78 72q21 19 76 79q8 -9 72 -71zM381 781q-26 -38 -70 -80q-48 37 -78 72q23 21 76 79l37 -38z" />
<glyph unicode="&#x67f;" horiz-adv-x="423" arabic-form="medial" d="M314 258q17 0 29 -9q-34 -83 -57 -125q69 -44 148 -44q10 0 10 -10v-70q0 -10 -10 -10q-109 0 -186 69l-9 -14l-10 -12q-7 -8 -44.5 -18.5t-86 -17.5t-98.5 -7q-10 0 -10 10v70q0 10 10 10q156 0 195 27q13 8 27.5 31.5t34.5 62.5l21 38q11 19 36 19zM254 427 q-27 -40 -70 -80q-48 37 -78 72q23 21 76 79q10 -11 72 -71zM431 444q-26 -39 -70 -80q-46 35 -78 72q21 19 76 79q10 -11 72 -71zM224 617q-26 -39 -70 -80q-47 36 -78 72q21 19 76 79q8 -9 72 -71zM401 634q-26 -38 -70 -80q-48 37 -78 72q23 21 76 79l37 -38z" />
<glyph unicode="&#x67f;" horiz-adv-x="960" arabic-form="final" d="M971 -10q-120 0 -201 83q-73 -40 -177 -61.5t-226 -21.5q-141 0 -214 51.5t-73 149.5q0 77 16 129h42q-1 -5 -2.5 -24t-1.5 -34q0 -69 27.5 -107.5t84.5 -56.5t146 -18q62 0 138.5 10.5t135.5 26t79.5 31t38.5 48.5l17 30q11 19 36 19q17 0 29 -9q-32 -80 -49 -108 q68 -48 154 -48q10 0 10 -10v-70q0 -10 -10 -10zM445 384q-27 -40 -70 -80q-48 37 -78 72q23 21 76 79q10 -11 72 -71zM622 401q-26 -39 -70 -80q-46 35 -78 72q21 19 76 79q10 -11 72 -71zM415 574q-26 -39 -70 -80q-47 36 -78 72q21 19 76 79q8 -9 72 -71zM592 591 q-26 -38 -70 -80q-48 37 -78 72q23 21 76 79l37 -38z" />
<glyph unicode="&#x680;" horiz-adv-x="403" arabic-form="initial" d="M1 -10q-10 0 -10 10v70q0 10 10 10q42 0 101 4.5t108 14.5t79 24q-14 52 -42 129q-22 61 -23 79q0 27 22 54t55 45q5 -34 12.5 -68t14.5 -66.5t12 -63t5 -57.5q0 -38 -41 -120q-50 -30 -135 -47.5t-168 -17.5zM164 -367q-25 -37 -70 -80q-47 36 -78 72q21 19 76 79 q10 -11 72 -71zM341 -350q-27 -40 -70 -80q-47 36 -78 72q23 21 76 79q20 -21 37.5 -37.5t34.5 -33.5zM134 -177q-27 -40 -70 -80q-48 37 -78 72q23 21 76 79q10 -11 72 -71zM311 -160q-26 -39 -70 -80q-46 35 -78 72q21 19 76 79q10 -11 72 -71z" />
<glyph unicode="&#x680;" horiz-adv-x="423" arabic-form="medial" d="M314 258q17 0 29 -9q-34 -83 -57 -125q69 -44 148 -44q10 0 10 -10v-70q0 -10 -10 -10q-109 0 -186 69l-9 -14l-10 -12q-7 -8 -44.5 -18.5t-86 -17.5t-98.5 -7q-10 0 -10 10v70q0 10 10 10q156 0 195 27q13 8 27.5 31.5t34.5 62.5l21 38q11 19 36 19zM230 -367 q-25 -37 -70 -80q-47 36 -78 72q21 19 76 79q10 -11 72 -71zM407 -350q-27 -40 -70 -80q-47 36 -78 72q23 21 76 79q20 -21 37.5 -37.5t34.5 -33.5zM200 -177q-27 -40 -70 -80q-48 37 -78 72q23 21 76 79q10 -11 72 -71zM377 -160q-26 -39 -70 -80q-46 35 -78 72 q21 19 76 79q10 -11 72 -71z" />
<glyph unicode="&#x680;" horiz-adv-x="960" arabic-form="final" d="M971 -10q-120 0 -201 83q-73 -40 -177 -61.5t-226 -21.5q-141 0 -214 51.5t-73 149.5q0 77 16 129h42q-1 -5 -2.5 -24t-1.5 -34q0 -69 27.5 -107.5t84.5 -56.5t146 -18q62 0 138.5 10.5t135.5 26t79.5 31t38.5 48.5l17 30q11 19 36 19q17 0 29 -9q-32 -80 -49 -108 q68 -48 154 -48q10 0 10 -10v-70q0 -10 -10 -10zM523 -367q-25 -37 -70 -80q-47 36 -78 72q21 19 76 79q10 -11 72 -71zM700 -350q-27 -40 -70 -80q-47 36 -78 72q23 21 76 79q20 -21 37.5 -37.5t34.5 -33.5zM493 -177q-27 -40 -70 -80q-48 37 -78 72q23 21 76 79 q10 -11 72 -71zM670 -160q-26 -39 -70 -80q-46 35 -78 72q21 19 76 79q10 -11 72 -71z" />
<glyph unicode="&#x681;" horiz-adv-x="748" d="M0 -10q-10 0 -10 10v70q0 10 10 10q174 0 272 30l54 17q49 18 75.5 26.5t54.5 13.5q-38 18 -66.5 39.5t-54 40.5t-51.5 32t-57 13q-23 0 -41 -4t-32.5 -10.5t-55.5 -31.5q-7 7 -12 19.5t-5 26.5q0 45 39.5 71.5t102.5 26.5q37 0 75 -16t89 -53q58 -42 99.5 -65t89 -34.5 t132.5 -10.5l-45 -87l-72 7q-53 -1 -76 -6t-53.5 -17.5t-85.5 -41.5q-61 -32 -110 -48t-106.5 -22t-159.5 -6zM415 649l1 6q0 6 -5.5 12.5t-13.5 6.5q-22 0 -41 -16.5t-28 -39.5q23 -30 72 -30q26 0 71 10l-3 -57q-64 -17 -100 -31.5t-83 -39.5l-3 57q14 9 29 17t29 16 q-54 10 -54 59q0 27 15.5 54t42 45t51.5 18q28 0 43 -14t15 -41q0 -8 -3 -20.5t-7 -19.5z" />
<glyph unicode="&#x681;" horiz-adv-x="783" d="M0 -10q-10 0 -10 10v70q0 10 10 10q174 0 272 30q34 10 96 36q49 21 87 29q-37 17 -66 37.5t-54.5 38t-51 29.5t-56.5 12q-23 0 -41 -4t-32.5 -10.5t-55.5 -31.5q-7 7 -12 19.5t-5 26.5q0 45 39.5 71.5t102.5 26.5q38 0 77 -15.5t87 -48.5q54 -38 89.5 -57t65.5 -28.5 t63 -14.5t103 -5l-45 -87q-60 4 -100 10h-8q16 -30 37 -42t62 -17t139 -5q10 0 10 -10v-70q0 -10 -10 -10q-88 0 -142.5 13.5t-88.5 41.5t-60 85q-23 -9 -53 -25q-107 -59 -161 -79t-114 -28t-174 -8zM415 649l1 6q0 6 -5.5 12.5t-13.5 6.5q-22 0 -41 -16.5t-28 -39.5 q23 -30 72 -30q26 0 71 10l-3 -57q-64 -17 -100 -31.5t-83 -39.5l-3 57q14 9 29 17t29 16q-54 10 -54 59q0 27 15.5 54t42 45t51.5 18q28 0 43 -14t15 -41q0 -8 -3 -20.5t-7 -19.5z" />
<glyph unicode="&#x681;" horiz-adv-x="812" d="M823 -10q-108 0 -156 7.5t-77.5 26t-50.5 52.5t-38 92q-101 -26 -180 -73.5t-120 -107t-41 -125.5q0 -94 70 -148t192 -54q60 0 115 7.5t133 25.5l13 -40q-77 -42 -148 -66t-116 -24q-90 0 -158.5 37t-105.5 105.5t-37 156.5q0 76 37.5 148.5t106 129.5t153.5 87l-54 23 q-55 24 -84 33t-51 9q-55 0 -101 -29l-28 -17q-7 7 -12 19.5t-5 26.5q0 45 39.5 71.5t102.5 26.5q34 0 75 -12.5t109 -43.5q123 -56 219 -56h19l58 2l-33 -90q-31 -5 -69 -5q-24 -2 -53 -7q16 -40 30 -57t34.5 -25.5t56.5 -12t155 -3.5q10 0 10 -10v-70q0 -10 -10 -10z M485 609l1 6q0 6 -5.5 12.5t-13.5 6.5q-22 0 -41 -16.5t-28 -39.5q23 -30 72 -30q26 0 71 10l-3 -57q-64 -17 -100 -31.5t-83 -39.5l-3 57q14 9 29 17t29 16q-54 10 -54 59q0 27 15.5 54t42 45t51.5 18q28 0 43 -14t15 -41q0 -8 -3 -20.5t-7 -19.5z" />
<glyph unicode="&#x682;" horiz-adv-x="748" d="M0 -10q-10 0 -10 10v70q0 10 10 10q174 0 272 30l54 17q49 18 75.5 26.5t54.5 13.5q-38 18 -66.5 39.5t-54 40.5t-51.5 32t-57 13q-23 0 -41 -4t-32.5 -10.5t-55.5 -31.5q-7 7 -12 19.5t-5 26.5q0 45 39.5 71.5t102.5 26.5q37 0 75 -16t89 -53q58 -42 99.5 -65t89 -34.5 t132.5 -10.5l-45 -87l-72 7q-53 -1 -76 -6t-53.5 -17.5t-85.5 -41.5q-61 -32 -110 -48t-106.5 -22t-159.5 -6zM538 515q-27 -40 -70 -80q-48 37 -78 72q23 21 76 79q10 -11 72 -71zM516 712q-27 -40 -70 -80q-49 38 -78 72q26 23 76 79q10 -11 72 -71z" />
<glyph unicode="&#x682;" horiz-adv-x="783" d="M0 -10q-10 0 -10 10v70q0 10 10 10q174 0 272 30q34 10 96 36q49 21 87 29q-37 17 -66 37.5t-54.5 38t-51 29.5t-56.5 12q-23 0 -41 -4t-32.5 -10.5t-55.5 -31.5q-7 7 -12 19.5t-5 26.5q0 45 39.5 71.5t102.5 26.5q38 0 77 -15.5t87 -48.5q54 -38 89.5 -57t65.5 -28.5 t63 -14.5t103 -5l-45 -87q-60 4 -100 10h-8q16 -30 37 -42t62 -17t139 -5q10 0 10 -10v-70q0 -10 -10 -10q-88 0 -142.5 13.5t-88.5 41.5t-60 85q-23 -9 -53 -25q-107 -59 -161 -79t-114 -28t-174 -8zM538 515q-27 -40 -70 -80q-48 37 -78 72q23 21 76 79q10 -11 72 -71z M516 712q-27 -40 -70 -80q-49 38 -78 72q26 23 76 79q10 -11 72 -71z" />
<glyph unicode="&#x682;" horiz-adv-x="812" d="M823 -10q-108 0 -156 7.5t-77.5 26t-50.5 52.5t-38 92q-101 -26 -180 -73.5t-120 -107t-41 -125.5q0 -94 70 -148t192 -54q60 0 115 7.5t133 25.5l13 -40q-77 -42 -148 -66t-116 -24q-90 0 -158.5 37t-105.5 105.5t-37 156.5q0 76 37.5 148.5t106 129.5t153.5 87l-54 23 q-55 24 -84 33t-51 9q-55 0 -101 -29l-28 -17q-7 7 -12 19.5t-5 26.5q0 45 39.5 71.5t102.5 26.5q34 0 75 -12.5t109 -43.5q123 -56 219 -56h19l58 2l-33 -90q-31 -5 -69 -5q-24 -2 -53 -7q16 -40 30 -57t34.5 -25.5t56.5 -12t155 -3.5q10 0 10 -10v-70q0 -10 -10 -10z M482 509q-27 -40 -70 -80q-48 37 -78 72q23 21 76 79q10 -11 72 -71zM460 706q-27 -40 -70 -80q-49 38 -78 72q26 23 76 79q10 -11 72 -71z" />
<glyph unicode="&#x683;" horiz-adv-x="748" arabic-form="initial" d="M0 -10q-10 0 -10 10v70q0 10 10 10q174 0 272 30l54 17q49 18 75.5 26.5t54.5 13.5q-38 18 -66.5 39.5t-54 40.5t-51.5 32t-57 13q-23 0 -41 -4t-32.5 -10.5t-55.5 -31.5q-7 7 -12 19.5t-5 26.5q0 45 39.5 71.5t102.5 26.5q37 0 75 -16t89 -53q58 -42 99.5 -65t89 -34.5 t132.5 -10.5l-45 -87l-72 7q-53 -1 -76 -6t-53.5 -17.5t-85.5 -41.5q-61 -32 -110 -48t-106.5 -22t-159.5 -6zM300 -171q-27 -40 -70 -80q-48 37 -78 72q23 21 76 79q10 -11 72 -71zM477 -154q-25 -37 -70 -80q-47 36 -78 72q21 19 76 79q10 -11 72 -71z" />
<glyph unicode="&#x683;" horiz-adv-x="783" arabic-form="medial" d="M0 -10q-10 0 -10 10v70q0 10 10 10q174 0 272 30q34 10 96 36q49 21 87 29q-37 17 -66 37.5t-54.5 38t-51 29.5t-56.5 12q-23 0 -41 -4t-32.5 -10.5t-55.5 -31.5q-7 7 -12 19.5t-5 26.5q0 45 39.5 71.5t102.5 26.5q38 0 77 -15.5t87 -48.5q54 -38 89.5 -57t65.5 -28.5 t63 -14.5t103 -5l-45 -87q-60 4 -100 10h-8q16 -30 37 -42t62 -17t139 -5q10 0 10 -10v-70q0 -10 -10 -10q-88 0 -142.5 13.5t-88.5 41.5t-60 85q-23 -9 -53 -25q-107 -59 -161 -79t-114 -28t-174 -8zM335 -170q-27 -40 -70 -80q-48 37 -78 72q23 21 76 79q10 -11 72 -71z M512 -153q-25 -37 -70 -80q-47 36 -78 72q21 19 76 79q10 -11 72 -71z" />
<glyph unicode="&#x683;" horiz-adv-x="812" arabic-form="final" d="M823 -10q-108 0 -156 7.5t-77.5 26t-50.5 52.5t-38 92q-101 -26 -180 -73.5t-120 -107t-41 -125.5q0 -94 70 -148t192 -54q60 0 115 7.5t133 25.5l13 -40q-77 -42 -148 -66t-116 -24q-90 0 -158.5 37t-105.5 105.5t-37 156.5q0 76 37.5 148.5t106 129.5t153.5 87l-54 23 q-55 24 -84 33t-51 9q-55 0 -101 -29l-28 -17q-7 7 -12 19.5t-5 26.5q0 45 39.5 71.5t102.5 26.5q34 0 75 -12.5t109 -43.5q123 -56 219 -56h19l58 2l-33 -90q-31 -5 -69 -5q-24 -2 -53 -7q16 -40 30 -57t34.5 -25.5t56.5 -12t155 -3.5q10 0 10 -10v-70q0 -10 -10 -10z M414 -141q-27 -40 -70 -80q-48 37 -78 72q23 21 76 79q10 -11 72 -71zM591 -124q-25 -37 -70 -80q-47 36 -78 72q21 19 76 79q10 -11 72 -71z" />
<glyph unicode="&#x684;" horiz-adv-x="748" arabic-form="initial" d="M0 -10q-10 0 -10 10v70q0 10 10 10q174 0 272 30l54 17q49 18 75.5 26.5t54.5 13.5q-38 18 -66.5 39.5t-54 40.5t-51.5 32t-57 13q-23 0 -41 -4t-32.5 -10.5t-55.5 -31.5q-7 7 -12 19.5t-5 26.5q0 45 39.5 71.5t102.5 26.5q37 0 75 -16t89 -53q58 -42 99.5 -65t89 -34.5 t132.5 -10.5l-45 -87l-72 7q-53 -1 -76 -6t-53.5 -17.5t-85.5 -41.5q-61 -32 -110 -48t-106.5 -22t-159.5 -6zM390 -356q-27 -40 -70 -80q-49 38 -78 72q26 23 76 79q10 -11 72 -71zM368 -159q-26 -38 -70 -80q-48 37 -78 72q23 21 76 79q20 -21 37.5 -37.5t34.5 -33.5z" />
<glyph unicode="&#x684;" horiz-adv-x="783" arabic-form="medial" d="M0 -10q-10 0 -10 10v70q0 10 10 10q174 0 272 30q34 10 96 36q49 21 87 29q-37 17 -66 37.5t-54.5 38t-51 29.5t-56.5 12q-23 0 -41 -4t-32.5 -10.5t-55.5 -31.5q-7 7 -12 19.5t-5 26.5q0 45 39.5 71.5t102.5 26.5q38 0 77 -15.5t87 -48.5q54 -38 89.5 -57t65.5 -28.5 t63 -14.5t103 -5l-45 -87q-60 4 -100 10h-8q16 -30 37 -42t62 -17t139 -5q10 0 10 -10v-70q0 -10 -10 -10q-88 0 -142.5 13.5t-88.5 41.5t-60 85q-23 -9 -53 -25q-107 -59 -161 -79t-114 -28t-174 -8zM424 -356q-27 -40 -70 -80q-49 38 -78 72q26 23 76 79q10 -11 72 -71z M402 -159q-26 -38 -70 -80q-48 37 -78 72q23 21 76 79q20 -21 37.5 -37.5t34.5 -33.5z" />
<glyph unicode="&#x684;" horiz-adv-x="840" arabic-form="final" d="M151 -339q-14 36 -23.5 80t-9.5 77q0 93 40.5 170t114.5 132.5t173 83.5q-30 15 -57 30.5t-53 28.5t-53 21t-57 8q-55 0 -101 -29l-28 -17q-7 7 -12 19.5t-5 26.5q0 45 39.5 71.5t102.5 26.5q46 0 93 -14.5t100 -44.5q102 -57 148.5 -74t102.5 -24.5t123 -10.5l-45 -87 q-86 10 -130 17h-7q23 -36 46 -49.5t63.5 -18t135.5 -4.5q10 0 10 -10v-70q0 -10 -10 -10q-101 1 -156 14.5t-87 44t-59 96.5q-103 -19 -191.5 -69.5t-133.5 -116.5t-45 -141q0 -30 6 -60.5t23 -75.5zM530 -268q-27 -40 -70 -80q-49 38 -78 72q26 23 76 79q10 -11 72 -71z M508 -71q-26 -38 -70 -80q-48 37 -78 72q23 21 76 79q20 -21 37.5 -37.5t34.5 -33.5z" />
<glyph unicode="&#x685;" horiz-adv-x="748" d="M0 -10q-10 0 -10 10v70q0 10 10 10q174 0 272 30l54 17q49 18 75.5 26.5t54.5 13.5q-38 18 -66.5 39.5t-54 40.5t-51.5 32t-57 13q-23 0 -41 -4t-32.5 -10.5t-55.5 -31.5q-7 7 -12 19.5t-5 26.5q0 45 39.5 71.5t102.5 26.5q37 0 75 -16t89 -53q58 -42 99.5 -65t89 -34.5 t132.5 -10.5l-45 -87l-72 7q-53 -1 -76 -6t-53.5 -17.5t-85.5 -41.5q-61 -32 -110 -48t-106.5 -22t-159.5 -6zM564 642q-47 -50 -68 -65q-43 29 -74 65q26 23 70 72q13 -18 36 -40t36 -32zM476 510q-26 -39 -70 -80q-47 36 -78 72q21 19 76 79q8 -9 72 -71zM663 527 q-26 -39 -70 -80q-46 35 -78 72q21 19 76 79q10 -11 72 -71z" />
<glyph unicode="&#x685;" horiz-adv-x="783" d="M0 -10q-10 0 -10 10v70q0 10 10 10q174 0 272 30q34 10 96 36q49 21 87 29q-37 17 -66 37.5t-54.5 38t-51 29.5t-56.5 12q-23 0 -41 -4t-32.5 -10.5t-55.5 -31.5q-7 7 -12 19.5t-5 26.5q0 45 39.5 71.5t102.5 26.5q38 0 77 -15.5t87 -48.5q54 -38 89.5 -57t65.5 -28.5 t63 -14.5t103 -5l-45 -87q-60 4 -100 10h-8q16 -30 37 -42t62 -17t139 -5q10 0 10 -10v-70q0 -10 -10 -10q-88 0 -142.5 13.5t-88.5 41.5t-60 85q-23 -9 -53 -25q-107 -59 -161 -79t-114 -28t-174 -8zM564 642q-47 -50 -68 -65q-43 29 -74 65q26 23 70 72q13 -18 36 -40 t36 -32zM476 510q-26 -39 -70 -80q-47 36 -78 72q21 19 76 79q8 -9 72 -71zM663 527q-26 -39 -70 -80q-46 35 -78 72q21 19 76 79q10 -11 72 -71z" />
<glyph unicode="&#x685;" horiz-adv-x="812" d="M823 -10q-108 0 -156 7.5t-77.5 26t-50.5 52.5t-38 92q-101 -26 -180 -73.5t-120 -107t-41 -125.5q0 -94 70 -148t192 -54q60 0 115 7.5t133 25.5l13 -40q-77 -42 -148 -66t-116 -24q-90 0 -158.5 37t-105.5 105.5t-37 156.5q0 76 37.5 148.5t106 129.5t153.5 87l-54 23 q-55 24 -84 33t-51 9q-55 0 -101 -29l-28 -17q-7 7 -12 19.5t-5 26.5q0 45 39.5 71.5t102.5 26.5q34 0 75 -12.5t109 -43.5q123 -56 219 -56h19l58 2l-33 -90q-31 -5 -69 -5q-24 -2 -53 -7q16 -40 30 -57t34.5 -25.5t56.5 -12t155 -3.5q10 0 10 -10v-70q0 -10 -10 -10z M499 672q-47 -50 -68 -65q-43 29 -74 65q26 23 70 72q13 -18 36 -40t36 -32zM411 540q-26 -39 -70 -80q-47 36 -78 72q21 19 76 79q8 -9 72 -71zM598 557q-26 -39 -70 -80q-46 35 -78 72q21 19 76 79q10 -11 72 -71z" />
<glyph unicode="&#x687;" horiz-adv-x="748" arabic-form="initial" d="M0 -10q-10 0 -10 10v70q0 10 10 10q174 0 272 30l54 17q49 18 75.5 26.5t54.5 13.5q-38 18 -66.5 39.5t-54 40.5t-51.5 32t-57 13q-23 0 -41 -4t-32.5 -10.5t-55.5 -31.5q-7 7 -12 19.5t-5 26.5q0 45 39.5 71.5t102.5 26.5q37 0 75 -16t89 -53q58 -42 99.5 -65t89 -34.5 t132.5 -10.5l-45 -87l-72 7q-53 -1 -76 -6t-53.5 -17.5t-85.5 -41.5q-61 -32 -110 -48t-106.5 -22t-159.5 -6zM294 -349q-25 -37 -70 -80q-47 36 -78 72q21 19 76 79q10 -11 72 -71zM471 -332q-27 -40 -70 -80q-47 36 -78 72q23 21 76 79q20 -21 37.5 -37.5t34.5 -33.5z M264 -159q-27 -40 -70 -80q-48 37 -78 72q23 21 76 79q10 -11 72 -71zM441 -142q-26 -39 -70 -80q-46 35 -78 72q21 19 76 79q10 -11 72 -71z" />
<glyph unicode="&#x687;" horiz-adv-x="783" arabic-form="medial" d="M0 -10q-10 0 -10 10v70q0 10 10 10q174 0 272 30q34 10 96 36q49 21 87 29q-37 17 -66 37.5t-54.5 38t-51 29.5t-56.5 12q-23 0 -41 -4t-32.5 -10.5t-55.5 -31.5q-7 7 -12 19.5t-5 26.5q0 45 39.5 71.5t102.5 26.5q38 0 77 -15.5t87 -48.5q54 -38 89.5 -57t65.5 -28.5 t63 -14.5t103 -5l-45 -87q-60 4 -100 10h-8q16 -30 37 -42t62 -17t139 -5q10 0 10 -10v-70q0 -10 -10 -10q-88 0 -142.5 13.5t-88.5 41.5t-60 85q-23 -9 -53 -25q-107 -59 -161 -79t-114 -28t-174 -8zM294 -349q-25 -37 -70 -80q-47 36 -78 72q21 19 76 79q10 -11 72 -71z M471 -332q-27 -40 -70 -80q-47 36 -78 72q23 21 76 79q20 -21 37.5 -37.5t34.5 -33.5zM264 -159q-27 -40 -70 -80q-48 37 -78 72q23 21 76 79q10 -11 72 -71zM441 -142q-26 -39 -70 -80q-46 35 -78 72q21 19 76 79q10 -11 72 -71z" />
<glyph unicode="&#x687;" horiz-adv-x="840" arabic-form="final" d="M151 -339q-14 36 -23.5 80t-9.5 77q0 93 40.5 170t114.5 132.5t173 83.5q-30 15 -57 30.5t-53 28.5t-53 21t-57 8q-55 0 -101 -29l-28 -17q-7 7 -12 19.5t-5 26.5q0 45 39.5 71.5t102.5 26.5q46 0 93 -14.5t100 -44.5q102 -57 148.5 -74t102.5 -24.5t123 -10.5l-45 -87 q-86 10 -130 17h-7q23 -36 46 -49.5t63.5 -18t135.5 -4.5q10 0 10 -10v-70q0 -10 -10 -10q-101 1 -156 14.5t-87 44t-59 96.5q-103 -19 -191.5 -69.5t-133.5 -116.5t-45 -141q0 -30 6 -60.5t23 -75.5zM473 -278q-25 -37 -70 -80q-47 36 -78 72q21 19 76 79q10 -11 72 -71z M650 -261q-27 -40 -70 -80q-47 36 -78 72q23 21 76 79q20 -21 37.5 -37.5t34.5 -33.5zM443 -88q-27 -40 -70 -80q-48 37 -78 72q23 21 76 79q10 -11 72 -71zM620 -71q-26 -39 -70 -80q-46 35 -78 72q21 19 76 79q10 -11 72 -71z" />
<glyph unicode="&#x689;" horiz-adv-x="557" d="M567 -10q-90 0 -145 62q-105 -62 -238 -62q-71 0 -107.5 19t-36.5 56q0 17 5.5 34t15.5 28q29 -24 67 -35.5t93 -11.5q81 0 163 24q-24 39 -52.5 103t-44 115t-15.5 70q0 29 16.5 49t45.5 29q35 -129 66 -210.5t69 -130.5t98 -49q10 0 10 -10v-70q0 -10 -10 -10z M244 -135q-33 0 -53 24.5t-20 59.5q0 28 11 50t28.5 34t35.5 12q19 0 37 -12.5t29 -34t11 -50.5q0 -34 -24.5 -58.5t-54.5 -24.5zM293 -52q0 6 -7.5 18t-19 19.5t-28.5 7.5q-14 0 -25.5 -10.5t-11.5 -25.5q0 -18 12 -28.5t34 -10.5q17 0 31.5 10.5t14.5 19.5z" />
<glyph unicode="&#x68a;" horiz-adv-x="557" d="M567 -10q-90 0 -145 62q-105 -62 -238 -62q-71 0 -107.5 19t-36.5 56q0 17 5.5 34t15.5 28q29 -24 67 -35.5t93 -11.5q81 0 163 24q-24 39 -52.5 103t-44 115t-15.5 70q0 29 16.5 49t45.5 29q35 -129 66 -210.5t69 -130.5t98 -49q10 0 10 -10v-70q0 -10 -10 -10z M343 -169q-25 -38 -76 -86q-52 41 -84 77q52 51 82 86q40 -44 78 -77z" />
<glyph unicode="&#x68b;" horiz-adv-x="557" d="M567 -10q-90 0 -145 62q-105 -62 -238 -62q-71 0 -107.5 19t-36.5 56q0 17 5.5 34t15.5 28q29 -24 67 -35.5t93 -11.5q81 0 163 24q-24 39 -52.5 103t-44 115t-15.5 70q0 29 16.5 49t45.5 29q35 -129 66 -210.5t69 -130.5t98 -49q10 0 10 -10v-70q0 -10 -10 -10z M343 -169q-25 -38 -76 -86q-52 41 -84 77q52 51 82 86q40 -44 78 -77zM93 647l65 -11q13 21 30 39l-25 123q-11 54 -11 64q0 13 18.5 24t42.5 16l17 -51l-12 -9q2 -28 3 -61.5t2 -67.5q30 29 58 45t46 16q20 0 44.5 -17t42 -42.5t17.5 -41.5q0 -33 -22.5 -61t-61 -44 t-76.5 -16q-32 0 -61.5 6t-56 16.5t-69.5 35.5zM319 701q-25 0 -57 -18.5t-61 -50.5q35 -4 73 -4q39 0 65 6t59 20q-10 19 -33.5 33t-45.5 14z" />
<glyph unicode="&#x68c;" horiz-adv-x="557" arabic-form="final" d="M567 -10q-90 0 -145 62q-105 -62 -238 -62q-71 0 -107.5 19t-36.5 56q0 17 5.5 34t15.5 28q29 -24 67 -35.5t93 -11.5q81 0 163 24q-24 39 -52.5 103t-44 115t-15.5 70q0 29 16.5 49t45.5 29q35 -129 66 -210.5t69 -130.5t98 -49q10 0 10 -10v-70q0 -10 -10 -10zM265 616 q-27 -40 -70 -80q-48 37 -78 72q23 21 76 79q10 -11 72 -71zM442 633q-26 -39 -70 -80q-46 35 -78 72q21 19 76 79q10 -11 72 -71z" />
<glyph unicode="&#x68d;" horiz-adv-x="557" arabic-form="final" d="M567 -10q-90 0 -145 62q-105 -62 -238 -62q-71 0 -107.5 19t-36.5 56q0 17 5.5 34t15.5 28q29 -24 67 -35.5t93 -11.5q81 0 163 24q-24 39 -52.5 103t-44 115t-15.5 70q0 29 16.5 49t45.5 29q35 -129 66 -210.5t69 -130.5t98 -49q10 0 10 -10v-70q0 -10 -10 -10z M270 -177q-27 -40 -70 -80q-48 37 -78 72q23 21 76 79q10 -11 72 -71zM447 -160q-25 -37 -70 -80q-47 36 -78 72q21 19 76 79q10 -11 72 -71z" />
<glyph unicode="&#x68e;" horiz-adv-x="557" arabic-form="final" d="M567 -10q-90 0 -145 62q-105 -62 -238 -62q-71 0 -107.5 19t-36.5 56q0 17 5.5 34t15.5 28q29 -24 67 -35.5t93 -11.5q81 0 163 24q-24 39 -52.5 103t-44 115t-15.5 70q0 29 16.5 49t45.5 29q35 -129 66 -210.5t69 -130.5t98 -49q10 0 10 -10v-70q0 -10 -10 -10zM337 747 q-47 -50 -68 -65q-43 29 -74 65q26 23 70 72q13 -18 36 -40t36 -32zM249 615q-26 -39 -70 -80q-47 36 -78 72q21 19 76 79q8 -9 72 -71zM436 632q-26 -39 -70 -80q-46 35 -78 72q21 19 76 79q10 -11 72 -71z" />
<glyph unicode="&#x68f;" horiz-adv-x="557" d="M567 -10q-90 0 -145 62q-105 -62 -238 -62q-71 0 -107.5 19t-36.5 56q0 17 5.5 34t15.5 28q29 -24 67 -35.5t93 -11.5q81 0 163 24q-24 39 -52.5 103t-44 115t-15.5 70q0 29 16.5 49t45.5 29q35 -129 66 -210.5t69 -130.5t98 -49q10 0 10 -10v-70q0 -10 -10 -10zM228 729 q-27 -40 -70 -80q-49 38 -78 72q34 31 76 79q10 -11 72 -71zM415 746q-27 -40 -70 -80q-48 37 -78 72q26 24 76 79q10 -11 72 -71zM329 600q-47 -50 -68 -65q-44 30 -74 65q39 36 70 72q13 -18 36 -40t36 -32z" />
<glyph unicode="&#x690;" horiz-adv-x="557" d="M567 -10q-90 0 -145 62q-105 -62 -238 -62q-71 0 -107.5 19t-36.5 56q0 17 5.5 34t15.5 28q29 -24 67 -35.5t93 -11.5q81 0 163 24q-24 39 -52.5 103t-44 115t-15.5 70q0 29 16.5 49t45.5 29q35 -129 66 -210.5t69 -130.5t98 -49q10 0 10 -10v-70q0 -10 -10 -10zM257 616 q-27 -40 -70 -80q-48 37 -78 72q23 21 76 79q10 -11 72 -71zM434 633q-26 -39 -70 -80q-46 35 -78 72q21 19 76 79q10 -11 72 -71zM227 806q-26 -39 -70 -80q-47 36 -78 72q21 19 76 79q8 -9 72 -71zM404 823q-26 -38 -70 -80q-48 37 -78 72q23 21 76 79l37 -38z" />
<glyph unicode="&#x692;" horiz-adv-x="458" d="M469 -10q-56 0 -96 29q-19 -121 -90 -195t-169 -74q-26 0 -72.5 20t-81.5 46l16 39q41 -8 63 -10.5t48 -2.5q88 0 151 52.5t96 153.5q-11 27 -21 46.5t-35 61.5q-22 37 -40.5 80t-18.5 73t18.5 48t50.5 34q7 -30 21 -66.5t28 -74.5t25.5 -76t14.5 -71q41 -23 92 -23 q10 0 10 -10v-70q0 -10 -10 -10zM222 550q6 38 28.5 92t39.5 77q12 -1 21.5 -11.5t9.5 -30.5q0 -9 -5.5 -19.5t-15 -29t-23 -48.5t-29.5 -78q-30 -18 -72 -24q-26 56 -53 109t-62 103l22 5q13 4 24 4q19 0 34 -12t39 -52.5t42 -84.5z" />
<glyph unicode="&#x693;" horiz-adv-x="458" d="M469 -10q-56 0 -96 29q-19 -121 -90 -195t-169 -74q-26 0 -72.5 20t-81.5 46l16 39q41 -8 63 -10.5t48 -2.5q88 0 151 52.5t96 153.5q-11 27 -21 46.5t-35 61.5q-22 37 -40.5 80t-18.5 73t18.5 48t50.5 34q7 -30 21 -66.5t28 -74.5t25.5 -76t14.5 -71q41 -23 92 -23 q10 0 10 -10v-70q0 -10 -10 -10zM314 -293q-33 0 -53 24.5t-20 59.5q0 28 11 50t28.5 34t35.5 12q19 0 37 -12.5t29 -34t11 -50.5q0 -34 -24.5 -58.5t-54.5 -24.5zM363 -210q0 6 -7.5 18t-19 19.5t-28.5 7.5q-14 0 -25.5 -10.5t-11.5 -25.5q0 -18 12 -28.5t34 -10.5 q17 0 31.5 10.5t14.5 19.5z" />
<glyph unicode="&#x694;" horiz-adv-x="458" d="M469 -10q-56 0 -96 29q-19 -121 -90 -195t-169 -74q-26 0 -72.5 20t-81.5 46l16 39q41 -8 63 -10.5t48 -2.5q88 0 151 52.5t96 153.5q-11 27 -21 46.5t-35 61.5q-22 37 -40.5 80t-18.5 73t18.5 48t50.5 34q7 -30 21 -66.5t28 -74.5t25.5 -76t14.5 -71q41 -23 92 -23 q10 0 10 -10v-70q0 -10 -10 -10zM468 -253q-25 -38 -76 -86q-52 41 -84 77q52 51 82 86q40 -44 78 -77z" />
<glyph unicode="&#x695;" horiz-adv-x="458" d="M469 -10q-56 0 -96 29q-19 -121 -90 -195t-169 -74q-26 0 -72.5 20t-81.5 46l16 39q41 -8 63 -10.5t48 -2.5q88 0 151 52.5t96 153.5q-11 27 -21 46.5t-35 61.5q-22 37 -40.5 80t-18.5 73t18.5 48t50.5 34q7 -30 21 -66.5t28 -74.5t25.5 -76t14.5 -71q41 -23 92 -23 q10 0 10 -10v-70q0 -10 -10 -10zM218 -457q6 38 28.5 92t39.5 77q12 -1 21.5 -11.5t9.5 -30.5q0 -9 -5.5 -19.5t-15 -29t-23 -48.5t-29.5 -78q-30 -18 -72 -24q-26 56 -53 109t-62 103l22 5q13 4 24 4q19 0 34 -12t39 -52.5t42 -84.5z" />
<glyph unicode="&#x696;" horiz-adv-x="458" d="M469 -10q-56 0 -96 29q-19 -121 -90 -195t-169 -74q-26 0 -72.5 20t-81.5 46l16 39q41 -8 63 -10.5t48 -2.5q88 0 151 52.5t96 153.5q-11 27 -21 46.5t-35 61.5q-22 37 -40.5 80t-18.5 73t18.5 48t50.5 34q7 -30 21 -66.5t28 -74.5t25.5 -76t14.5 -71q41 -23 92 -23 q10 0 10 -10v-70q0 -10 -10 -10zM468 -253q-25 -38 -76 -86q-52 41 -84 77q52 51 82 86q40 -44 78 -77zM241 86q-25 -38 -76 -86q-52 41 -84 77q52 51 82 86q40 -44 78 -77z" />
<glyph unicode="&#x697;" horiz-adv-x="458" d="M469 -10q-56 0 -96 29q-19 -121 -90 -195t-169 -74q-26 0 -72.5 20t-81.5 46l16 39q41 -8 63 -10.5t48 -2.5q88 0 151 52.5t96 153.5q-11 27 -21 46.5t-35 61.5q-22 37 -40.5 80t-18.5 73t18.5 48t50.5 34q7 -30 21 -66.5t28 -74.5t25.5 -76t14.5 -71q41 -23 92 -23 q10 0 10 -10v-70q0 -10 -10 -10zM202 535q-27 -40 -70 -80q-48 37 -78 72q23 21 76 79q10 -11 72 -71zM379 552q-26 -39 -70 -80q-46 35 -78 72q21 19 76 79q10 -11 72 -71z" />
<glyph unicode="&#x699;" horiz-adv-x="458" d="M469 -10q-56 0 -96 29q-19 -121 -90 -195t-169 -74q-26 0 -72.5 20t-81.5 46l16 39q41 -8 63 -10.5t48 -2.5q88 0 151 52.5t96 153.5q-11 27 -21 46.5t-35 61.5q-22 37 -40.5 80t-18.5 73t18.5 48t50.5 34q7 -30 21 -66.5t28 -74.5t25.5 -76t14.5 -71q41 -23 92 -23 q10 0 10 -10v-70q0 -10 -10 -10zM202 535q-27 -40 -70 -80q-48 37 -78 72q23 21 76 79q10 -11 72 -71zM379 552q-26 -39 -70 -80q-46 35 -78 72q21 19 76 79q10 -11 72 -71zM172 725q-26 -39 -70 -80q-47 36 -78 72q21 19 76 79q8 -9 72 -71zM349 742q-26 -38 -70 -80 q-48 37 -78 72q23 21 76 79l37 -38z" />
<glyph unicode="&#x69a;" horiz-adv-x="773" d="M266 -10q-33 0 -75.5 10.5t-68.5 25.5q-39 -36 -122 -36q-10 0 -10 10v70q0 10 10 10q33 0 54.5 6t40.5 21q15 12 24.5 24t38.5 61q10 19 36 18q18 0 29 -8q-34 -81 -49 -108q40 -14 105 -14q56 0 92 12q8 13 28 81q14 49 26.5 75t24.5 32.5t25 6.5q16 0 27 -9 q-15 -32 -27.5 -71.5t-23.5 -78.5q53 -24 101 -34.5t106 -10.5q-14 52 -44 129q-23 60 -23 79q0 27 21.5 54t55.5 45q5 -34 13 -68t15.5 -66.5t12.5 -63t5 -57.5q0 -21 -14 -66.5t-31 -78.5q-77 0 -130.5 10t-119.5 41l-10 -19q-9 -13 -47.5 -22t-95.5 -10zM528 -169 q-25 -38 -76 -86q-52 41 -84 77q52 51 82 86q40 -44 78 -77zM456 476q-25 -38 -76 -86q-52 41 -84 77q50 49 82 86q38 -42 78 -77z" />
<glyph unicode="&#x69a;" horiz-adv-x="779" d="M790 -10q-45 0 -92 18t-75 47l-17 -33q-8 -13 -39.5 -22.5t-64.5 -9.5q-31 0 -53 8t-42 22q-11 -13 -47 -20.5t-94 -9.5q-33 0 -75.5 10.5t-68.5 25.5q-39 -36 -122 -36q-10 0 -10 10v70q0 10 10 10q33 0 54.5 6t40.5 21q15 12 24.5 24t38.5 61q10 19 36 18q18 0 29 -8 q-34 -81 -49 -108q40 -14 105 -14q56 0 92 12q8 13 28 81q14 49 26.5 75t24.5 32.5t25 6.5q16 0 27 -9q-18 -41 -46 -135l-15 -46q19 -9 32.5 -11.5t30.5 -2.5q28 0 65 12q8 14 34 85q24 70 40 98q11 19 36 18q18 0 29 -8q-5 -12 -10.5 -26t-48.5 -141q28 -19 61 -30t80 -11 q10 0 10 -10v-70q0 -10 -10 -10zM456 476q-25 -38 -76 -86q-52 41 -84 77q50 49 82 86q38 -42 78 -77zM528 -169q-25 -38 -76 -86q-52 41 -84 77q52 51 82 86q40 -44 78 -77z" />
<glyph unicode="&#x69a;" horiz-adv-x="1195" d="M1206 -10q-45 0 -92 18t-75 47l-17 -33q-8 -13 -39 -22.5t-65 -9.5q-31 0 -53 8t-42 22q-11 -13 -47 -20.5t-94 -9.5q-25 0 -55 6q3 -24 3 -48q0 -71 -45 -136.5t-125.5 -108.5t-166.5 -43q-101 0 -157 58t-56 163q0 37 4 64.5t19 87.5l43 -10q-13 -50 -13 -84 q0 -87 43 -134.5t120 -47.5q56 0 116 19t107 53t67 75q-77 169 -77 225q0 62 77 105q4 -41 26 -146q36 -8 83 -8q56 0 92 12q8 13 28 81q14 49 26.5 75t24.5 32.5t25 6.5q16 0 27 -9q-18 -41 -46 -135l-15 -46q19 -9 32.5 -11.5t30.5 -2.5q28 0 65 12q8 14 34 85 q21 60 32 82.5t21.5 28t22.5 5.5q18 0 29 -8q-5 -12 -10.5 -26t-48.5 -141q28 -19 61 -30t80 -11q10 0 10 -10v-70q0 -10 -10 -10zM950 -169q-25 -38 -76 -86q-52 41 -84 77q52 51 82 86q40 -44 78 -77zM878 476q-25 -38 -76 -86q-52 41 -84 77q50 49 82 86q38 -42 78 -77z " />
<glyph unicode="&#x69b;" horiz-adv-x="773" d="M266 -10q-33 0 -75.5 10.5t-68.5 25.5q-39 -36 -122 -36q-10 0 -10 10v70q0 10 10 10q33 0 54.5 6t40.5 21q15 12 24.5 24t38.5 61q10 19 36 18q18 0 29 -8q-34 -81 -49 -108q40 -14 105 -14q56 0 92 12q8 13 28 81q14 49 26.5 75t24.5 32.5t25 6.5q16 0 27 -9 q-15 -32 -27.5 -71.5t-23.5 -78.5q53 -24 101 -34.5t106 -10.5q-14 52 -44 129q-23 60 -23 79q0 27 21.5 54t55.5 45q5 -34 13 -68t15.5 -66.5t12.5 -63t5 -57.5q0 -21 -14 -66.5t-31 -78.5q-77 0 -130.5 10t-119.5 41l-10 -19q-9 -13 -47.5 -22t-95.5 -10zM370 -186 q-27 -40 -70 -80q-47 36 -78 72q32 29 76 79q20 -21 37.5 -37.5t34.5 -33.5zM557 -169q-27 -40 -70 -80q-49 38 -78 72q34 31 76 79q10 -11 72 -71zM471 -315q-47 -50 -68 -65q-43 29 -74 65q24 21 70 72q28 -36 72 -72z" />
<glyph unicode="&#x69b;" horiz-adv-x="779" d="M790 -10q-45 0 -92 18t-75 47l-17 -33q-8 -13 -39.5 -22.5t-64.5 -9.5q-31 0 -53 8t-42 22q-11 -13 -47 -20.5t-94 -9.5q-33 0 -75.5 10.5t-68.5 25.5q-39 -36 -122 -36q-10 0 -10 10v70q0 10 10 10q33 0 54.5 6t40.5 21q15 12 24.5 24t38.5 61q10 19 36 18q18 0 29 -8 q-34 -81 -49 -108q40 -14 105 -14q56 0 92 12q8 13 28 81q14 49 26.5 75t24.5 32.5t25 6.5q16 0 27 -9q-18 -41 -46 -135l-15 -46q19 -9 32.5 -11.5t30.5 -2.5q28 0 65 12q8 14 34 85q24 70 40 98q11 19 36 18q18 0 29 -8q-5 -12 -10.5 -26t-48.5 -141q28 -19 61 -30t80 -11 q10 0 10 -10v-70q0 -10 -10 -10zM370 -186q-27 -40 -70 -80q-47 36 -78 72q32 29 76 79q20 -21 37.5 -37.5t34.5 -33.5zM557 -169q-27 -40 -70 -80q-49 38 -78 72q34 31 76 79q10 -11 72 -71zM471 -315q-47 -50 -68 -65q-43 29 -74 65q24 21 70 72q28 -36 72 -72z" />
<glyph unicode="&#x69b;" horiz-adv-x="1195" d="M1206 -10q-45 0 -92 18t-75 47l-17 -33q-8 -13 -39 -22.5t-65 -9.5q-31 0 -53 8t-42 22q-11 -13 -47 -20.5t-94 -9.5q-25 0 -55 6q3 -24 3 -48q0 -71 -45 -136.5t-125.5 -108.5t-166.5 -43q-101 0 -157 58t-56 163q0 37 4 64.5t19 87.5l43 -10q-13 -50 -13 -84 q0 -87 43 -134.5t120 -47.5q56 0 116 19t107 53t67 75q-77 169 -77 225q0 62 77 105q4 -41 26 -146q36 -8 83 -8q56 0 92 12q8 13 28 81q14 49 26.5 75t24.5 32.5t25 6.5q16 0 27 -9q-18 -41 -46 -135l-15 -46q19 -9 32.5 -11.5t30.5 -2.5q28 0 65 12q8 14 34 85 q21 60 32 82.5t21.5 28t22.5 5.5q18 0 29 -8q-5 -12 -10.5 -26t-48.5 -141q28 -19 61 -30t80 -11q10 0 10 -10v-70q0 -10 -10 -10zM853 -186q-27 -40 -70 -80q-47 36 -78 72q32 29 76 79q20 -21 37.5 -37.5t34.5 -33.5zM1040 -169q-27 -40 -70 -80q-49 38 -78 72 q34 31 76 79q10 -11 72 -71zM954 -315q-47 -50 -68 -65q-43 29 -74 65q24 21 70 72q28 -36 72 -72z" />
<glyph unicode="&#x69c;" horiz-adv-x="773" d="M266 -10q-33 0 -75.5 10.5t-68.5 25.5q-39 -36 -122 -36q-10 0 -10 10v70q0 10 10 10q33 0 54.5 6t40.5 21q15 12 24.5 24t38.5 61q10 19 36 18q18 0 29 -8q-34 -81 -49 -108q40 -14 105 -14q56 0 92 12q8 13 28 81q14 49 26.5 75t24.5 32.5t25 6.5q16 0 27 -9 q-15 -32 -27.5 -71.5t-23.5 -78.5q53 -24 101 -34.5t106 -10.5q-14 52 -44 129q-23 60 -23 79q0 27 21.5 54t55.5 45q5 -34 13 -68t15.5 -66.5t12.5 -63t5 -57.5q0 -21 -14 -66.5t-31 -78.5q-77 0 -130.5 10t-119.5 41l-10 -19q-9 -13 -47.5 -22t-95.5 -10zM400 601 q-47 -50 -68 -65q-43 29 -74 65q26 23 70 72q13 -18 36 -40t36 -32zM312 469q-26 -39 -70 -80q-47 36 -78 72q21 19 76 79q8 -9 72 -71zM499 486q-26 -39 -70 -80q-46 35 -78 72q21 19 76 79q10 -11 72 -71zM376 -186q-27 -40 -70 -80q-47 36 -78 72q32 29 76 79 q20 -21 37.5 -37.5t34.5 -33.5zM563 -169q-27 -40 -70 -80q-49 38 -78 72q34 31 76 79q10 -11 72 -71zM477 -315q-47 -50 -68 -65q-43 29 -74 65q24 21 70 72q28 -36 72 -72z" />
<glyph unicode="&#x69c;" horiz-adv-x="779" d="M790 -10q-45 0 -92 18t-75 47l-17 -33q-8 -13 -39.5 -22.5t-64.5 -9.5q-31 0 -53 8t-42 22q-11 -13 -47 -20.5t-94 -9.5q-33 0 -75.5 10.5t-68.5 25.5q-39 -36 -122 -36q-10 0 -10 10v70q0 10 10 10q33 0 54.5 6t40.5 21q15 12 24.5 24t38.5 61q10 19 36 18q18 0 29 -8 q-34 -81 -49 -108q40 -14 105 -14q56 0 92 12q8 13 28 81q14 49 26.5 75t24.5 32.5t25 6.5q16 0 27 -9q-18 -41 -46 -135l-15 -46q19 -9 32.5 -11.5t30.5 -2.5q28 0 65 12q8 14 34 85q24 70 40 98q11 19 36 18q18 0 29 -8q-5 -12 -10.5 -26t-48.5 -141q28 -19 61 -30t80 -11 q10 0 10 -10v-70q0 -10 -10 -10zM376 -186q-27 -40 -70 -80q-47 36 -78 72q32 29 76 79q20 -21 37.5 -37.5t34.5 -33.5zM563 -169q-27 -40 -70 -80q-49 38 -78 72q34 31 76 79q10 -11 72 -71zM477 -315q-47 -50 -68 -65q-43 29 -74 65q24 21 70 72q28 -36 72 -72zM400 601 q-47 -50 -68 -65q-43 29 -74 65q26 23 70 72q13 -18 36 -40t36 -32zM312 469q-26 -39 -70 -80q-47 36 -78 72q21 19 76 79q8 -9 72 -71zM499 486q-26 -39 -70 -80q-46 35 -78 72q21 19 76 79q10 -11 72 -71z" />
<glyph unicode="&#x69c;" horiz-adv-x="1195" d="M1206 -10q-45 0 -92 18t-75 47l-17 -33q-8 -13 -39 -22.5t-65 -9.5q-31 0 -53 8t-42 22q-11 -13 -47 -20.5t-94 -9.5q-25 0 -55 6q3 -24 3 -48q0 -71 -45 -136.5t-125.5 -108.5t-166.5 -43q-101 0 -157 58t-56 163q0 37 4 64.5t19 87.5l43 -10q-13 -50 -13 -84 q0 -87 43 -134.5t120 -47.5q56 0 116 19t107 53t67 75q-77 169 -77 225q0 62 77 105q4 -41 26 -146q36 -8 83 -8q56 0 92 12q8 13 28 81q14 49 26.5 75t24.5 32.5t25 6.5q16 0 27 -9q-18 -41 -46 -135l-15 -46q19 -9 32.5 -11.5t30.5 -2.5q28 0 65 12q8 14 34 85 q21 60 32 82.5t21.5 28t22.5 5.5q18 0 29 -8q-5 -12 -10.5 -26t-48.5 -141q28 -19 61 -30t80 -11q10 0 10 -10v-70q0 -10 -10 -10zM880 601q-47 -50 -68 -65q-43 29 -74 65q26 23 70 72q13 -18 36 -40t36 -32zM792 469q-26 -39 -70 -80q-47 36 -78 72q21 19 76 79 q8 -9 72 -71zM979 486q-26 -39 -70 -80q-46 35 -78 72q21 19 76 79q10 -11 72 -71zM856 -186q-27 -40 -70 -80q-47 36 -78 72q32 29 76 79q20 -21 37.5 -37.5t34.5 -33.5zM1043 -169q-27 -40 -70 -80q-49 38 -78 72q34 31 76 79q10 -11 72 -71zM957 -315q-47 -50 -68 -65 q-43 29 -74 65q24 21 70 72q28 -36 72 -72z" />
<glyph unicode="&#x69d;" horiz-adv-x="924" d="M202 227q17 0 28 -11l-35 -81q26 -13 58 -24q225 299 384 299q37 0 88.5 -30.5t85.5 -71t34 -69.5q0 -72 -45.5 -127t-138.5 -88.5t-195 -33.5q-88 0 -177 19t-140 48l-10 -13q-23 -29 -57.5 -41.5t-81.5 -12.5q-10 0 -10 10v70q0 10 10 10q41 0 66.5 10.5t43.5 30.5 t55 85q13 21 37 21zM608 312q-56 0 -134 -55t-166 -160q78 -17 170 -17q154 0 314 100q-33 60 -84 96t-100 36zM537 -170q-27 -40 -70 -80q-48 37 -78 72q23 21 76 79q10 -11 72 -71zM714 -153q-25 -37 -70 -80q-47 36 -78 72q21 19 76 79q10 -11 72 -71z" />
<glyph unicode="&#x69d;" horiz-adv-x="915" d="M925 -10q-50 0 -99 20t-81 54q-51 -34 -127.5 -54t-151.5 -20q-88 0 -177 19t-140 48l-10 -13q-23 -29 -57.5 -41.5t-81.5 -12.5q-10 0 -10 10v70q0 10 10 10q41 0 66.5 10.5t43.5 30.5t55 85q13 21 37 21q17 0 28 -11l-35 -81q26 -13 58 -24q225 299 384 299 q37 0 88.5 -30.5t85.5 -71t34 -69.5q0 -73 -46 -127q54 -32 126 -32q10 0 10 -10v-70q0 -10 -10 -10zM608 312q-56 0 -134 -55t-166 -160q78 -17 170 -17q154 0 314 100q-33 60 -84 96t-100 36zM537 -170q-27 -40 -70 -80q-48 37 -78 72q23 21 76 79q10 -11 72 -71z M714 -153q-25 -37 -70 -80q-47 36 -78 72q21 19 76 79q10 -11 72 -71z" />
<glyph unicode="&#x69d;" horiz-adv-x="1292" d="M293 -340q-101 0 -157 58t-56 163q0 37 4 64.5t19 87.5l43 -10q-13 -50 -13 -84q0 -87 43 -134.5t120 -47.5q56 0 116 19t107 53t67 75q-77 169 -77 225q0 62 77 105q8 -62 18 -110q6 -3 33 -13q108 146 206 222.5t178 76.5q36 0 87.5 -30t86 -70.5t34.5 -70.5 q0 -75 -47 -130q50 -29 121 -29q10 0 10 -10v-70q0 -10 -10 -10q-49 0 -97 19t-81 52q-50 -32 -124.5 -51.5t-150.5 -19.5q-48 0 -113.5 8t-112.5 22q6 -43 6 -72q0 -71 -45 -136.5t-125.5 -108.5t-166.5 -43zM992 312q-56 0 -134.5 -55.5t-166.5 -159.5q82 -17 171 -17 q82 0 159 25.5t155 74.5q-33 60 -84.5 96t-99.5 36zM939 -170q-27 -40 -70 -80q-48 37 -78 72q23 21 76 79q10 -11 72 -71zM1116 -153q-25 -37 -70 -80q-47 36 -78 72q21 19 76 79q10 -11 72 -71z" />
<glyph unicode="&#x69e;" horiz-adv-x="924" d="M202 227q17 0 28 -11l-35 -81q26 -13 58 -24q225 299 384 299q37 0 88.5 -30.5t85.5 -71t34 -69.5q0 -72 -45.5 -127t-138.5 -88.5t-195 -33.5q-88 0 -177 19t-140 48l-10 -13q-23 -29 -57.5 -41.5t-81.5 -12.5q-10 0 -10 10v70q0 10 10 10q41 0 66.5 10.5t43.5 30.5 t55 85q13 21 37 21zM608 312q-56 0 -134 -55t-166 -160q78 -17 170 -17q154 0 314 100q-33 60 -84 96t-100 36zM535 665q-47 -50 -68 -65q-43 29 -74 65q26 23 70 72q13 -18 36 -40t36 -32zM447 533q-26 -39 -70 -80q-47 36 -78 72q21 19 76 79q8 -9 72 -71zM634 550 q-26 -39 -70 -80q-46 35 -78 72q21 19 76 79q10 -11 72 -71z" />
<glyph unicode="&#x69e;" horiz-adv-x="915" d="M925 -10q-50 0 -99 20t-81 54q-51 -34 -127.5 -54t-151.5 -20q-88 0 -177 19t-140 48l-10 -13q-23 -29 -57.5 -41.5t-81.5 -12.5q-10 0 -10 10v70q0 10 10 10q41 0 66.5 10.5t43.5 30.5t55 85q13 21 37 21q17 0 28 -11l-35 -81q26 -13 58 -24q225 299 384 299 q37 0 88.5 -30.5t85.5 -71t34 -69.5q0 -73 -46 -127q54 -32 126 -32q10 0 10 -10v-70q0 -10 -10 -10zM608 312q-56 0 -134 -55t-166 -160q78 -17 170 -17q154 0 314 100q-33 60 -84 96t-100 36zM535 665q-47 -50 -68 -65q-43 29 -74 65q26 23 70 72q13 -18 36 -40t36 -32z M447 533q-26 -39 -70 -80q-47 36 -78 72q21 19 76 79q8 -9 72 -71zM634 550q-26 -39 -70 -80q-46 35 -78 72q21 19 76 79q10 -11 72 -71z" />
<glyph unicode="&#x69e;" horiz-adv-x="1292" d="M293 -340q-101 0 -157 58t-56 163q0 37 4 64.5t19 87.5l43 -10q-13 -50 -13 -84q0 -87 43 -134.5t120 -47.5q56 0 116 19t107 53t67 75q-77 169 -77 225q0 62 77 105q8 -62 18 -110q6 -3 33 -13q108 146 206 222.5t178 76.5q36 0 87.5 -30t86 -70.5t34.5 -70.5 q0 -75 -47 -130q50 -29 121 -29q10 0 10 -10v-70q0 -10 -10 -10q-49 0 -97 19t-81 52q-50 -32 -124.5 -51.5t-150.5 -19.5q-48 0 -113.5 8t-112.5 22q6 -43 6 -72q0 -71 -45 -136.5t-125.5 -108.5t-166.5 -43zM992 312q-56 0 -134.5 -55.5t-166.5 -159.5q82 -17 171 -17 q82 0 159 25.5t155 74.5q-33 60 -84.5 96t-99.5 36zM934 665q-47 -50 -68 -65q-43 29 -74 65q26 23 70 72q13 -18 36 -40t36 -32zM846 533q-26 -39 -70 -80q-47 36 -78 72q21 19 76 79q8 -9 72 -71zM1033 550q-26 -39 -70 -80q-46 35 -78 72q21 19 76 79q10 -11 72 -71z" />
<glyph unicode="&#x69f;" horiz-adv-x="776" d="M717 253q0 -84 -77.5 -142.5t-235.5 -89.5t-404 -31q-10 0 -10 10v70q0 10 10 10h44l57 1q42 60 76 99l-35 203q-21 115 -31 194.5t-10 108.5q0 40 18 62.5t59 31.5q14 -56 31 -104l11 -36l-31 -27q4 -63 19 -188q9 -84 11.5 -115t4.5 -75q83 91 156.5 140t128.5 49 q36 0 86.5 -30t86 -70.5t35.5 -70.5zM480 326q-54 0 -137.5 -65.5t-176.5 -178.5q109 3 172 12q75 9 107.5 17t62.5 18.5t65.5 27t89.5 44.5q-35 60 -83 92.5t-100 32.5zM546 688q-47 -50 -68 -65q-43 29 -74 65q26 23 70 72q13 -18 36 -40t36 -32zM458 556q-26 -39 -70 -80 q-47 36 -78 72q21 19 76 79q8 -9 72 -71zM645 573q-26 -39 -70 -80q-46 35 -78 72q21 19 76 79q10 -11 72 -71z" />
<glyph unicode="&#x69f;" horiz-adv-x="740" d="M750 -10q-53 0 -103.5 21.5t-80.5 56.5q-179 -78 -566 -78q-10 0 -10 10v70q0 10 10 10h44l57 1q42 60 76 99l-35 203q-21 115 -31 194.5t-10 108.5q0 40 18 62.5t59 31.5q14 -56 31 -104l11 -36l-31 -27q4 -63 19 -188q9 -84 11.5 -115t4.5 -75q83 91 156.5 140 t128.5 49q36 0 86.5 -30t86 -70.5t35.5 -70.5q0 -87 -83 -147q50 -26 116 -26q10 0 10 -10v-70q0 -10 -10 -10zM480 326q-54 0 -137.5 -65.5t-176.5 -178.5q109 3 172 12q75 9 107.5 17t62.5 18.5t65.5 27t89.5 44.5q-35 60 -83 92.5t-100 32.5zM546 688q-47 -50 -68 -65 q-43 29 -74 65q26 23 70 72q13 -18 36 -40t36 -32zM458 556q-26 -39 -70 -80q-47 36 -78 72q21 19 76 79q8 -9 72 -71zM645 573q-26 -39 -70 -80q-46 35 -78 72q21 19 76 79q10 -11 72 -71z" />
<glyph unicode="&#x69f;" horiz-adv-x="912" d="M466 -10q-49 0 -136.5 4.5t-120.5 14.5q-25 7 -74 32t-85 51l12 41q133 -30 179 -37q29 40 67 85l-34 202q-21 115 -31.5 194.5t-10.5 108.5q0 40 18.5 62.5t59.5 31.5q11 -44 21 -74l21 -66l-31 -27q6 -91 24 -231q8 -83 11 -147q80 85 151.5 130t129.5 45 q37 0 88.5 -30.5t85.5 -71t34 -69.5q0 -74 -46 -128q54 -31 123 -31q10 0 10 -10v-70q0 -10 -10 -10q-48 0 -97.5 19.5t-81.5 53.5q-54 -35 -128 -54t-149 -19zM608 312q-58 0 -138.5 -58t-169.5 -166q77 -8 178 -8q154 0 314 100q-33 60 -84 96t-100 36zM645 665 q-47 -50 -68 -65q-43 29 -74 65q26 23 70 72q13 -18 36 -40t36 -32zM557 533q-26 -39 -70 -80q-47 36 -78 72q21 19 76 79q8 -9 72 -71zM744 550q-26 -39 -70 -80q-46 35 -78 72q21 19 76 79q10 -11 72 -71z" />
<glyph unicode="&#x6a0;" horiz-adv-x="594" d="M0 -10q-10 0 -10 10v70q0 10 10 10q82 0 146 3q-32 22 -51 53t-19 66q0 52 28.5 107.5t71 88t88.5 32.5q40 0 76 -19t89 -65l-21 -37q-47 18 -67.5 22.5t-46.5 4.5q-73 0 -151 -43q0 -50 24 -91.5t70 -66.5t110 -30q83 16 201 64q16 -15 16 -42l-1 -12q-7 -39 -49 -50 q-145 -36 -215 -48.5t-143 -19.5t-156 -7zM289 697q-47 -50 -68 -65q-43 29 -74 65q26 23 70 72q13 -18 36 -40t36 -32zM201 565q-26 -39 -70 -80q-47 36 -78 72q21 19 76 79q8 -9 72 -71zM388 582q-26 -39 -70 -80q-46 35 -78 72q21 19 76 79q10 -11 72 -71z" />
<glyph unicode="&#x6a0;" horiz-adv-x="486" d="M495 -10q-76 0 -133.5 15t-103.5 49q-64 -35 -125 -49.5t-132 -14.5q-11 0 -11 11v68q0 11 11 11q130 0 202 28q-17 20 -31.5 40.5t-29 40.5t-31 39.5t-36.5 35.5l-18 -12q-22 24 -22 53q0 41 40 67.5t90.5 42t99.5 15.5q76 0 126.5 -42t50.5 -105q0 -48 -27 -95t-79 -87 q50 -21 159 -21q12 0 12 -11v-68q0 -11 -12 -11zM269 333q-73 0 -138 -35q38 -31 77 -78q47 -58 64 -75q40 26 63 55.5t23 57.5q0 33 -24.5 54t-64.5 21zM300 697q-47 -50 -68 -65q-43 29 -74 65q26 23 70 72q13 -18 36 -40t36 -32zM212 565q-26 -39 -70 -80q-47 36 -78 72 q21 19 76 79q8 -9 72 -71zM399 582q-26 -39 -70 -80q-46 35 -78 72q21 19 76 79q10 -11 72 -71z" />
<glyph unicode="&#x6a0;" horiz-adv-x="532" d="M540 -10q-81 0 -140 16t-102 52q-128 -86 -128 -203q0 -86 69.5 -140.5t180.5 -54.5q62 0 106.5 6t121.5 24l13 -40q-79 -43 -112.5 -57t-66 -22t-65.5 -8q-81 0 -147 37.5t-104 104.5t-38 148q0 71 33.5 134.5t93.5 111.5q-19 21 -34 43t-30.5 43.5t-32.5 41.5t-38 37 l-18 -12q-22 24 -22 53q0 42 42 69t90 41.5t98 14.5q76 0 126.5 -42t50.5 -105q0 -102 -114 -179q52 -24 167 -24q12 0 12 -11v-68q0 -11 -12 -11zM314 333q-39 0 -71.5 -8.5t-66.5 -26.5q25 -20 43.5 -40t34.5 -39.5t31 -38.5t34 -37q84 62 84 115q0 33 -24.5 54t-64.5 21z M338 718q-47 -50 -68 -65q-43 29 -74 65q26 23 70 72q13 -18 36 -40t36 -32zM250 586q-26 -39 -70 -80q-47 36 -78 72q21 19 76 79q8 -9 72 -71zM437 603q-26 -39 -70 -80q-46 35 -78 72q21 19 76 79q10 -11 72 -71z" />
<glyph unicode="&#x6a1;" horiz-adv-x="961" d="M972 -10q-146 0 -242 47q-62 -22 -153.5 -34.5t-199.5 -12.5q-297 0 -297 201q0 77 16 129h42q-4 -33 -4 -58q0 -72 28 -109.5t88.5 -55t151.5 -17.5q112 0 211 20q-47 50 -47 105q0 23 6.5 65t14.5 58q33 59 82.5 90.5t103.5 31.5q31 0 59.5 -30t46 -80.5t17.5 -100.5 q0 -85 -68 -146q62 -13 144 -13q10 0 10 -10v-70q0 -10 -10 -10zM610 216q45 -53 109 -86q79 29 131 73q-3 30 -19 65t-36 58.5t-33 23.5q-33 0 -79 -40t-73 -94z" />
<glyph unicode="&#x6a2;" horiz-adv-x="494" d="M378 143q-6 52 -16 92q-83 -64 -167 -64q-51 0 -84 38.5t-33 98.5q0 58 20 111.5t54 85t72 31.5q60 0 107 -43.5t75 -123t28 -174.5q0 -38 -41 -120q-71 -44 -160 -64.5t-232 -20.5q-11 0 -11 11v68q0 11 11 11q130 0 217.5 15.5t159.5 47.5zM223 260q58 0 124 29 q-51 147 -141 147q-35 0 -59 -32t-24 -73q0 -37 24 -54t76 -17zM375 -155q-25 -38 -76 -86q-52 41 -84 77q52 51 82 86q40 -44 78 -77z" />
<glyph unicode="&#x6a2;" horiz-adv-x="455" d="M102 84q-43 48 -43 101q0 30 6.5 69t14.5 54q33 59 82.5 90.5t103.5 31.5q31 0 59.5 -30.5t46 -80t17.5 -100.5q0 -76 -50 -133q44 -6 126 -6q10 0 10 -10v-70q0 -10 -10 -10q-150 0 -241 38q-42 -20 -93 -29t-130 -9q-11 0 -11 11v68q0 11 11 11q68 0 101 4zM103 196 q49 -57 121 -85q67 26 119 72q-3 30 -19 65t-36 58.5t-33 23.5q-34 0 -80 -40.5t-72 -93.5zM317 -155q-25 -38 -76 -86q-52 41 -84 77q52 51 82 86q40 -44 78 -77z" />
<glyph unicode="&#x6a2;" horiz-adv-x="961" d="M972 -10q-146 0 -242 47q-62 -22 -153.5 -34.5t-199.5 -12.5q-297 0 -297 201q0 77 16 129h42q-4 -33 -4 -58q0 -72 28 -109.5t88.5 -55t151.5 -17.5q112 0 211 20q-47 50 -47 105q0 23 6.5 65t14.5 58q33 59 82.5 90.5t103.5 31.5q31 0 59.5 -30t46 -80.5t17.5 -100.5 q0 -85 -68 -146q62 -13 144 -13q10 0 10 -10v-70q0 -10 -10 -10zM610 216q45 -53 109 -86q79 29 131 73q-3 30 -19 65t-36 58.5t-33 23.5q-33 0 -79 -40t-73 -94zM824 -155q-25 -38 -76 -86q-52 41 -84 77q52 51 82 86q40 -44 78 -77z" />
<glyph unicode="&#x6a3;" horiz-adv-x="494" d="M378 143q-6 52 -16 92q-83 -64 -167 -64q-51 0 -84 38.5t-33 98.5q0 58 20 111.5t54 85t72 31.5q60 0 107 -43.5t75 -123t28 -174.5q0 -38 -41 -120q-71 -44 -160 -64.5t-232 -20.5q-11 0 -11 11v68q0 11 11 11q130 0 217.5 15.5t159.5 47.5zM223 260q58 0 124 29 q-51 147 -141 147q-35 0 -59 -32t-24 -73q0 -37 24 -54t76 -17zM258 703q-25 -38 -76 -86q-52 41 -84 77q50 49 82 86q38 -42 78 -77zM375 -155q-25 -38 -76 -86q-52 41 -84 77q52 51 82 86q40 -44 78 -77z" />
<glyph unicode="&#x6a3;" horiz-adv-x="455" d="M102 84q-43 48 -43 101q0 30 6.5 69t14.5 54q33 59 82.5 90.5t103.5 31.5q31 0 59.5 -30.5t46 -80t17.5 -100.5q0 -76 -50 -133q44 -6 126 -6q10 0 10 -10v-70q0 -10 -10 -10q-150 0 -241 38q-42 -20 -93 -29t-130 -9q-11 0 -11 11v68q0 11 11 11q68 0 101 4zM103 196 q49 -57 121 -85q67 26 119 72q-3 30 -19 65t-36 58.5t-33 23.5q-34 0 -80 -40.5t-72 -93.5zM278 597q-25 -38 -76 -86q-52 41 -84 77q50 49 82 86q38 -42 78 -77zM315 -164q-25 -38 -76 -86q-52 41 -84 77q52 51 82 86q40 -44 78 -77z" />
<glyph unicode="&#x6a3;" horiz-adv-x="961" d="M972 -10q-146 0 -242 47q-62 -22 -153.5 -34.5t-199.5 -12.5q-297 0 -297 201q0 77 16 129h42q-4 -33 -4 -58q0 -72 28 -109.5t88.5 -55t151.5 -17.5q112 0 211 20q-47 50 -47 105q0 23 6.5 65t14.5 58q33 59 82.5 90.5t103.5 31.5q31 0 59.5 -30t46 -80.5t17.5 -100.5 q0 -85 -68 -146q62 -13 144 -13q10 0 10 -10v-70q0 -10 -10 -10zM610 216q45 -53 109 -86q79 29 131 73q-3 30 -19 65t-36 58.5t-33 23.5q-33 0 -79 -40t-73 -94zM819 -164q-25 -38 -76 -86q-52 41 -84 77q52 51 82 86q40 -44 78 -77zM807 621q-25 -38 -76 -86 q-52 41 -84 77q50 49 82 86q38 -42 78 -77z" />
<glyph unicode="&#x6a4;" horiz-adv-x="494" arabic-form="initial" d="M378 143q-6 52 -16 92q-83 -64 -167 -64q-51 0 -84 38.5t-33 98.5q0 58 20 111.5t54 85t72 31.5q60 0 107 -43.5t75 -123t28 -174.5q0 -38 -41 -120q-71 -44 -160 -64.5t-232 -20.5q-11 0 -11 11v68q0 11 11 11q130 0 217.5 15.5t159.5 47.5zM223 260q58 0 124 29 q-51 147 -141 147q-35 0 -59 -32t-24 -73q0 -37 24 -54t76 -17zM248 822q-47 -50 -68 -65q-43 29 -74 65q26 23 70 72q13 -18 36 -40t36 -32zM160 690q-26 -39 -70 -80q-47 36 -78 72q21 19 76 79q8 -9 72 -71zM347 707q-26 -39 -70 -80q-46 35 -78 72q21 19 76 79 q10 -11 72 -71z" />
<glyph unicode="&#x6a4;" horiz-adv-x="455" arabic-form="medial" d="M102 84q-43 48 -43 101q0 30 6.5 69t14.5 54q33 59 82.5 90.5t103.5 31.5q31 0 59.5 -30.5t46 -80t17.5 -100.5q0 -76 -50 -133q44 -6 126 -6q10 0 10 -10v-70q0 -10 -10 -10q-150 0 -241 38q-42 -20 -93 -29t-130 -9q-11 0 -11 11v68q0 11 11 11q68 0 101 4zM103 196 q49 -57 121 -85q67 26 119 72q-3 30 -19 65t-36 58.5t-33 23.5q-34 0 -80 -40.5t-72 -93.5zM285 731q-47 -50 -68 -65q-43 29 -74 65q26 23 70 72q13 -18 36 -40t36 -32zM197 599q-26 -39 -70 -80q-47 36 -78 72q21 19 76 79q8 -9 72 -71zM384 616q-26 -39 -70 -80 q-46 35 -78 72q21 19 76 79q10 -11 72 -71z" />
<glyph unicode="&#x6a4;" horiz-adv-x="961" arabic-form="final" d="M972 -10q-146 0 -242 47q-62 -22 -153.5 -34.5t-199.5 -12.5q-297 0 -297 201q0 77 16 129h42q-4 -33 -4 -58q0 -72 28 -109.5t88.5 -55t151.5 -17.5q112 0 211 20q-47 50 -47 105q0 23 6.5 65t14.5 58q33 59 82.5 90.5t103.5 31.5q31 0 59.5 -30t46 -80.5t17.5 -100.5 q0 -85 -68 -146q62 -13 144 -13q10 0 10 -10v-70q0 -10 -10 -10zM610 216q45 -53 109 -86q79 29 131 73q-3 30 -19 65t-36 58.5t-33 23.5q-33 0 -79 -40t-73 -94zM813 731q-47 -50 -68 -65q-43 29 -74 65q26 23 70 72q13 -18 36 -40t36 -32zM725 599q-26 -39 -70 -80 q-47 36 -78 72q21 19 76 79q8 -9 72 -71zM912 616q-26 -39 -70 -80q-46 35 -78 72q21 19 76 79q10 -11 72 -71z" />
<glyph unicode="&#x6a5;" horiz-adv-x="494" d="M378 143q-6 52 -16 92q-83 -64 -167 -64q-51 0 -84 38.5t-33 98.5q0 58 20 111.5t54 85t72 31.5q60 0 107 -43.5t75 -123t28 -174.5q0 -38 -41 -120q-71 -44 -160 -64.5t-232 -20.5q-11 0 -11 11v68q0 11 11 11q130 0 217.5 15.5t159.5 47.5zM223 260q58 0 124 29 q-51 147 -141 147q-35 0 -59 -32t-24 -73q0 -37 24 -54t76 -17zM217 -169q-27 -40 -70 -80q-47 36 -78 72q32 29 76 79q20 -21 37.5 -37.5t34.5 -33.5zM404 -152q-27 -40 -70 -80q-49 38 -78 72q34 31 76 79q10 -11 72 -71zM318 -298q-47 -50 -68 -65q-43 29 -74 65 q24 21 70 72q28 -36 72 -72z" />
<glyph unicode="&#x6a5;" horiz-adv-x="455" d="M102 84q-43 48 -43 101q0 30 6.5 69t14.5 54q33 59 82.5 90.5t103.5 31.5q31 0 59.5 -30.5t46 -80t17.5 -100.5q0 -76 -50 -133q44 -6 126 -6q10 0 10 -10v-70q0 -10 -10 -10q-150 0 -241 38q-42 -20 -93 -29t-130 -9q-11 0 -11 11v68q0 11 11 11q68 0 101 4zM103 196 q49 -57 121 -85q67 26 119 72q-3 30 -19 65t-36 58.5t-33 23.5q-34 0 -80 -40.5t-72 -93.5zM214 -169q-27 -40 -70 -80q-47 36 -78 72q32 29 76 79q20 -21 37.5 -37.5t34.5 -33.5zM401 -152q-27 -40 -70 -80q-49 38 -78 72q34 31 76 79q10 -11 72 -71zM315 -298 q-47 -50 -68 -65q-43 29 -74 65q24 21 70 72q28 -36 72 -72z" />
<glyph unicode="&#x6a5;" horiz-adv-x="961" d="M972 -10q-146 0 -242 47q-62 -22 -153.5 -34.5t-199.5 -12.5q-297 0 -297 201q0 77 16 129h42q-4 -33 -4 -58q0 -72 28 -109.5t88.5 -55t151.5 -17.5q112 0 211 20q-47 50 -47 105q0 23 6.5 65t14.5 58q33 59 82.5 90.5t103.5 31.5q31 0 59.5 -30t46 -80.5t17.5 -100.5 q0 -85 -68 -146q62 -13 144 -13q10 0 10 -10v-70q0 -10 -10 -10zM610 216q45 -53 109 -86q79 29 131 73q-3 30 -19 65t-36 58.5t-33 23.5q-33 0 -79 -40t-73 -94zM708 -169q-27 -40 -70 -80q-47 36 -78 72q32 29 76 79q20 -21 37.5 -37.5t34.5 -33.5zM895 -152 q-27 -40 -70 -80q-49 38 -78 72q34 31 76 79q10 -11 72 -71zM809 -298q-47 -50 -68 -65q-43 29 -74 65q24 21 70 72q28 -36 72 -72z" />
<glyph unicode="&#x6a6;" horiz-adv-x="494" arabic-form="initial" d="M378 143q-6 52 -16 92q-83 -64 -167 -64q-51 0 -84 38.5t-33 98.5q0 58 20 111.5t54 85t72 31.5q60 0 107 -43.5t75 -123t28 -174.5q0 -38 -41 -120q-71 -44 -160 -64.5t-232 -20.5q-11 0 -11 11v68q0 11 11 11q130 0 217.5 15.5t159.5 47.5zM223 260q58 0 124 29 q-51 147 -141 147q-35 0 -59 -32t-24 -73q0 -37 24 -54t76 -17zM181 689q-27 -40 -70 -80q-48 37 -78 72q23 21 76 79q10 -11 72 -71zM358 706q-26 -39 -70 -80q-46 35 -78 72q21 19 76 79q10 -11 72 -71zM151 879q-26 -39 -70 -80q-47 36 -78 72q21 19 76 79q8 -9 72 -71z M328 896q-26 -38 -70 -80q-48 37 -78 72q23 21 76 79l37 -38z" />
<glyph unicode="&#x6a6;" horiz-adv-x="455" arabic-form="medial" d="M102 84q-43 48 -43 101q0 30 6.5 69t14.5 54q33 59 82.5 90.5t103.5 31.5q31 0 59.5 -30.5t46 -80t17.5 -100.5q0 -76 -50 -133q44 -6 126 -6q10 0 10 -10v-70q0 -10 -10 -10q-150 0 -241 38q-42 -20 -93 -29t-130 -9q-11 0 -11 11v68q0 11 11 11q68 0 101 4zM103 196 q49 -57 121 -85q67 26 119 72q-3 30 -19 65t-36 58.5t-33 23.5q-34 0 -80 -40.5t-72 -93.5zM186 599q-27 -40 -70 -80q-48 37 -78 72q23 21 76 79q10 -11 72 -71zM363 616q-26 -39 -70 -80q-46 35 -78 72q21 19 76 79q10 -11 72 -71zM156 789q-26 -39 -70 -80q-47 36 -78 72 q21 19 76 79q8 -9 72 -71zM333 806q-26 -38 -70 -80q-48 37 -78 72q23 21 76 79l37 -38z" />
<glyph unicode="&#x6a6;" horiz-adv-x="961" arabic-form="final" d="M972 -10q-146 0 -242 47q-62 -22 -153.5 -34.5t-199.5 -12.5q-297 0 -297 201q0 77 16 129h42q-4 -33 -4 -58q0 -72 28 -109.5t88.5 -55t151.5 -17.5q112 0 211 20q-47 50 -47 105q0 23 6.5 65t14.5 58q33 59 82.5 90.5t103.5 31.5q31 0 59.5 -30t46 -80.5t17.5 -100.5 q0 -85 -68 -146q62 -13 144 -13q10 0 10 -10v-70q0 -10 -10 -10zM610 216q45 -53 109 -86q79 29 131 73q-3 30 -19 65t-36 58.5t-33 23.5q-33 0 -79 -40t-73 -94zM706 599q-27 -40 -70 -80q-48 37 -78 72q23 21 76 79q10 -11 72 -71zM883 616q-26 -39 -70 -80q-46 35 -78 72 q21 19 76 79q10 -11 72 -71zM676 789q-26 -39 -70 -80q-47 36 -78 72q21 19 76 79q8 -9 72 -71zM853 806q-26 -38 -70 -80q-48 37 -78 72q23 21 76 79l37 -38z" />
<glyph unicode="&#x6a7;" horiz-adv-x="754" d="M486 400q49 0 95 -42t77 -116t40 -162h25h42q10 0 10 -10v-70q0 -10 -10 -10h-65q-6 -89 -58 -163t-144 -120.5t-185 -46.5q-110 0 -171.5 58t-61.5 163q0 37 4 64.5t19 87.5l43 -10q-13 -50 -13 -84q0 -88 47.5 -135t135.5 -47q104 0 191.5 40.5t133.5 110.5l-5 83 q-151 5 -207 21t-82.5 50.5t-26.5 89.5q0 60 23.5 118t63 94t79.5 36zM622 81q-15 67 -39 116.5t-54 76t-61 26.5q-23 0 -47.5 -18t-40 -46t-15.5 -51q0 -37 29 -59.5t99 -35.5q29 -7 129 -9zM544 567q-25 -38 -76 -86q-52 41 -84 77q50 49 82 86q38 -42 78 -77z" />
<glyph unicode="&#x6a8;" horiz-adv-x="754" d="M486 400q49 0 95 -42t77 -116t40 -162h25h42q10 0 10 -10v-70q0 -10 -10 -10h-65q-6 -89 -58 -163t-144 -120.5t-185 -46.5q-110 0 -171.5 58t-61.5 163q0 37 4 64.5t19 87.5l43 -10q-13 -50 -13 -84q0 -88 47.5 -135t135.5 -47q104 0 191.5 40.5t133.5 110.5l-5 83 q-151 5 -207 21t-82.5 50.5t-26.5 89.5q0 60 23.5 118t63 94t79.5 36zM622 81q-15 67 -39 116.5t-54 76t-61 26.5q-23 0 -47.5 -18t-40 -46t-15.5 -51q0 -37 29 -59.5t99 -35.5q29 -7 129 -9zM513 675q-47 -50 -68 -65q-43 29 -74 65q26 23 70 72q13 -18 36 -40t36 -32z M425 543q-26 -39 -70 -80q-47 36 -78 72q21 19 76 79q8 -9 72 -71zM612 560q-26 -39 -70 -80q-46 35 -78 72q21 19 76 79q10 -11 72 -71z" />
<glyph unicode="&#x6aa;" horiz-adv-x="1043" d="M0 -10q-10 0 -10 10v70q0 10 10 10h91q305 0 524 9.5t325 25.5q-17 49 -56.5 73t-108.5 24q-71 0 -239 -9q-167 -10 -250 -10q-79 0 -114 25t-35 84q0 65 44.5 123.5t128.5 107.5t159 67q3 -15 3 -30q0 -62 -53 -84q-78 -32 -159 -84t-81 -79q0 -16 43.5 -27.5 t84.5 -11.5q54 0 230 8t235 9q59 0 108 -20t76.5 -56.5t27.5 -87.5q0 -39 -25 -95q-140 -24 -405.5 -38t-553.5 -14z" />
<glyph unicode="&#x6aa;" horiz-adv-x="1104" d="M1114 -10q-41 0 -82 13.5t-73 38.5q-140 -24 -405.5 -38t-553.5 -14q-10 0 -10 10v70q0 10 10 10h91q305 0 524 9.5t325 25.5q-17 49 -56.5 73t-108.5 24q-71 0 -239 -9q-167 -10 -250 -10q-79 0 -114 25t-35 84q0 65 44.5 123.5t128.5 107.5t159 67q3 -15 3 -30 q0 -62 -53 -84q-78 -32 -159 -84t-81 -79q0 -16 43.5 -27.5t84.5 -11.5q54 0 230 8t235 9q59 0 108 -20t76.5 -56.5t27.5 -87.5l-2 -22q60 -35 132 -35q10 0 10 -10v-70q0 -10 -10 -10z" />
<glyph unicode="&#x6aa;" horiz-adv-x="1252" d="M337 -10h-30q-154 0 -206 11t-71 33.5t-19 53.5l1 20q130 -28 307 -28q195 0 406 8.5t365 26.5q-17 49 -56.5 73t-108.5 24q-71 0 -239 -9q-167 -10 -250 -10q-79 0 -114 25t-35 84q0 45 22.5 88t70.5 85.5t115 76.5t124 48q3 -15 3 -30q0 -30 -14 -51.5t-39 -32.5 q-49 -20 -112 -56t-95.5 -63.5t-32.5 -43.5t43.5 -27.5t84.5 -11.5q55 0 231 8q175 8 234 9q59 0 108 -20t76.5 -56.5t27.5 -87.5l-2 -22q54 -35 131 -35q10 0 10 -10v-70q0 -10 -10 -10q-42 0 -83.5 14t-71.5 38q-162 -24 -372 -38t-399 -14z" />
<glyph unicode="&#x6ab;" horiz-adv-x="487" d="M0 -10q-10 0 -10 10v70q0 10 10 10q107 0 191.5 16t155.5 53q-44 134 -247 231q-11 -4 -28 -4q-30 0 -51 21.5t-21 54.5q0 22 12 65.5t19 47.5q138 72 219.5 109.5t198.5 85.5q9 -8 13.5 -20.5t4.5 -24.5l-1 -10q-6 -42 -49 -59q-208 -85 -374 -161q90 -22 172 -73 t130.5 -113t48.5 -116q0 -95 -98 -144t-296 -49zM299 464q-33 0 -53 24.5t-20 59.5q0 28 11 50t28.5 34t35.5 12q19 0 37 -12.5t29 -34t11 -50.5q0 -34 -24.5 -58.5t-54.5 -24.5zM348 547q0 6 -7.5 18t-19 19.5t-28.5 7.5q-14 0 -25.5 -10.5t-11.5 -25.5q0 -18 12 -28.5 t34 -10.5q17 0 31.5 10.5t14.5 19.5z" />
<glyph unicode="&#x6ab;" horiz-adv-x="540" d="M185 123q-17 80 -65 144q-52 62 -85.5 120.5t-33.5 90.5q0 31 11 50.5t40 35.5q69 39 141 72t295 124q9 -8 13.5 -20.5t4.5 -24.5l-1 -10q-6 -42 -49 -59l-113 -46q-197 -80 -300 -126q93 -113 156 -178.5t128.5 -119.5t117.5 -75t105 -21q10 0 10 -10v-70q0 -10 -10 -10 q-66 0 -119 18.5t-107 62t-94 80.5q0 -49 -28 -96q-54 -32 -101.5 -48.5t-100.5 -16.5q-10 0 -10 10v70q0 10 10 10q42 0 92.5 11.5t92.5 31.5zM287 444q-33 0 -53 24.5t-20 59.5q0 28 11 50t28.5 34t35.5 12q19 0 37 -12.5t29 -34t11 -50.5q0 -34 -24.5 -58.5t-54.5 -24.5z M336 527q0 6 -7.5 18t-19 19.5t-28.5 7.5q-14 0 -25.5 -10.5t-11.5 -25.5q0 -18 12 -28.5t34 -10.5q17 0 31.5 10.5t14.5 19.5z" />
<glyph unicode="&#x6ab;" horiz-adv-x="913" d="M344 -10q-138 0 -201 42t-63 128q0 37 21 85l38 -14q-6 -32 -6 -48q0 -54 50.5 -78.5t168.5 -24.5q60 0 118 12.5t88 30.5q-17 80 -65 144q-52 62 -85.5 120.5t-33.5 90.5q0 31 11 50.5t40 35.5q69 39 141 72t295 124q9 -8 13.5 -20.5t4.5 -24.5l-1 -10q-6 -42 -49 -59 l-113 -46q-197 -80 -300 -126q93 -113 156 -178.5t128.5 -119.5t117.5 -75t105 -21q10 0 10 -10v-70q0 -10 -10 -10q-66 0 -119 18.5t-107 62t-94 80.5q0 -49 -28 -96q-47 -30 -110.5 -47.5t-120.5 -17.5zM659 444q-33 0 -53 24.5t-20 59.5q0 28 11 50t28.5 34t35.5 12 q19 0 37 -12.5t29 -34t11 -50.5q0 -34 -24.5 -58.5t-54.5 -24.5zM708 527q0 6 -7.5 18t-19 19.5t-28.5 7.5q-14 0 -25.5 -10.5t-11.5 -25.5q0 -18 12 -28.5t34 -10.5q17 0 31.5 10.5t14.5 19.5z" />
<glyph unicode="&#x6ac;" horiz-adv-x="487" d="M0 -10q-10 0 -10 10v70q0 10 10 10q107 0 191.5 16t155.5 53q-44 134 -247 231q-11 -4 -28 -4q-30 0 -51 21.5t-21 54.5q0 22 12 65.5t19 47.5q138 72 219.5 109.5t198.5 85.5q9 -8 13.5 -20.5t4.5 -24.5l-1 -10q-6 -42 -49 -59q-208 -85 -374 -161q90 -22 172 -73 t130.5 -113t48.5 -116q0 -95 -98 -144t-296 -49zM204 800q-25 -38 -76 -86q-52 41 -84 77q50 49 82 86q38 -42 78 -77z" />
<glyph unicode="&#x6ac;" horiz-adv-x="540" d="M185 123q-17 80 -65 144q-52 62 -85.5 120.5t-33.5 90.5q0 31 11 50.5t40 35.5q69 39 141 72t295 124q9 -8 13.5 -20.5t4.5 -24.5l-1 -10q-6 -42 -49 -59l-113 -46q-197 -80 -300 -126q93 -113 156 -178.5t128.5 -119.5t117.5 -75t105 -21q10 0 10 -10v-70q0 -10 -10 -10 q-66 0 -119 18.5t-107 62t-94 80.5q0 -49 -28 -96q-54 -32 -101.5 -48.5t-100.5 -16.5q-10 0 -10 10v70q0 10 10 10q42 0 92.5 11.5t92.5 31.5zM204 800q-25 -38 -76 -86q-52 41 -84 77q50 49 82 86q38 -42 78 -77z" />
<glyph unicode="&#x6ac;" horiz-adv-x="820" d="M737 780q7 -143 13 -498l3 -172q54 -30 123 -30q10 0 10 -10v-70q0 -10 -10 -10q-54 0 -94 16.5t-58 44.5q-88 -31 -176 -46t-186 -15q-107 0 -166 19t-87.5 57t-28.5 96q0 43 16 89h41q-3 -17 -3 -44q0 -50 24 -76.5t77 -38.5t152 -12q166 0 319 37q-17 143 -37 446 l-11 151q36 37 79 66zM459 389l1 6q0 6 -5.5 12.5t-13.5 6.5q-20 0 -40 -15.5t-29 -40.5q22 -29 72 -29q28 0 71 9l-3 -57q-60 -15 -97.5 -30t-85.5 -41l-3 57l29 17l29 16q-54 11 -54 59q0 44 35.5 80.5t73.5 36.5q31 0 44.5 -16t13.5 -39q0 -20 -10 -40zM473 622 q-25 -38 -76 -86q-52 41 -84 77q50 49 82 86q38 -42 78 -77z" />
<glyph unicode="&#x6ad;" horiz-adv-x="487" arabic-form="initial" d="M0 -10q-10 0 -10 10v70q0 10 10 10q107 0 191.5 16t155.5 53q-44 134 -247 231q-11 -4 -28 -4q-30 0 -51 21.5t-21 54.5q0 22 12 65.5t19 47.5q138 72 219.5 109.5t198.5 85.5q9 -8 13.5 -20.5t4.5 -24.5l-1 -10q-6 -42 -49 -59q-208 -85 -374 -161q90 -22 172 -73 t130.5 -113t48.5 -116q0 -95 -98 -144t-296 -49zM243 770q-21 -30 -49 -56q-32 25 -55 51l28 28l25 27zM112 759q-16 -25 -49 -56q-30 22 -55 50q14 13 28 28.5t25 26.5zM173 851q-28 -33 -47 -46q-30 19 -52 46q27 24 49 50q17 -22 50 -50z" />
<glyph unicode="&#x6ad;" horiz-adv-x="540" arabic-form="medial" d="M185 123q-17 80 -65 144q-52 62 -85.5 120.5t-33.5 90.5q0 31 11 50.5t40 35.5q69 39 141 72t295 124q9 -8 13.5 -20.5t4.5 -24.5l-1 -10q-6 -42 -49 -59l-113 -46q-197 -80 -300 -126q93 -113 156 -178.5t128.5 -119.5t117.5 -75t105 -21q10 0 10 -10v-70q0 -10 -10 -10 q-66 0 -119 18.5t-107 62t-94 80.5q0 -49 -28 -96q-54 -32 -101.5 -48.5t-100.5 -16.5q-10 0 -10 10v70q0 10 10 10q42 0 92.5 11.5t92.5 31.5zM243 770q-21 -30 -49 -56q-32 25 -55 51l28 28l25 27zM112 759q-16 -25 -49 -56q-30 22 -55 50q14 13 28 28.5t25 26.5zM173 851 q-28 -33 -47 -46q-30 19 -52 46q27 24 49 50q17 -22 50 -50z" />
<glyph unicode="&#x6ad;" horiz-adv-x="820" arabic-form="final" d="M737 780q7 -143 13 -498l3 -172q54 -30 123 -30q10 0 10 -10v-70q0 -10 -10 -10q-54 0 -94 16.5t-58 44.5q-88 -31 -176 -46t-186 -15q-107 0 -166 19t-87.5 57t-28.5 96q0 43 16 89h41q-3 -17 -3 -44q0 -50 24 -76.5t77 -38.5t152 -12q166 0 319 37q-17 143 -37 446 l-11 151q36 37 79 66zM459 389l1 6q0 6 -5.5 12.5t-13.5 6.5q-20 0 -40 -15.5t-29 -40.5q22 -29 72 -29q28 0 71 9l-3 -57q-60 -15 -97.5 -30t-85.5 -41l-3 57l29 17l29 16q-54 11 -54 59q0 44 35.5 80.5t73.5 36.5q31 0 44.5 -16t13.5 -39q0 -20 -10 -40zM452 747 q-47 -50 -68 -65q-43 29 -74 65q26 23 70 72q13 -18 36 -40t36 -32zM364 615q-26 -39 -70 -80q-47 36 -78 72q21 19 76 79q8 -9 72 -71zM551 632q-26 -39 -70 -80q-46 35 -78 72q21 19 76 79q10 -11 72 -71z" />
<glyph unicode="&#x6ae;" horiz-adv-x="487" d="M0 -10q-10 0 -10 10v70q0 10 10 10q107 0 191.5 16t155.5 53q-44 134 -247 231q-11 -4 -28 -4q-30 0 -51 21.5t-21 54.5q0 22 12 65.5t19 47.5q138 72 219.5 109.5t198.5 85.5q9 -8 13.5 -20.5t4.5 -24.5l-1 -10q-6 -42 -49 -59q-208 -85 -374 -161q90 -22 172 -73 t130.5 -113t48.5 -116q0 -95 -98 -144t-296 -49zM163 -169q-27 -40 -70 -80q-47 36 -78 72q32 29 76 79q20 -21 37.5 -37.5t34.5 -33.5zM350 -152q-27 -40 -70 -80q-49 38 -78 72q34 31 76 79q10 -11 72 -71zM264 -298q-47 -50 -68 -65q-43 29 -74 65q24 21 70 72 q28 -36 72 -72z" />
<glyph unicode="&#x6ae;" horiz-adv-x="540" d="M185 123q-17 80 -65 144q-52 62 -85.5 120.5t-33.5 90.5q0 31 11 50.5t40 35.5q69 39 141 72t295 124q9 -8 13.5 -20.5t4.5 -24.5l-1 -10q-6 -42 -49 -59l-113 -46q-197 -80 -300 -126q93 -113 156 -178.5t128.5 -119.5t117.5 -75t105 -21q10 0 10 -10v-70q0 -10 -10 -10 q-66 0 -119 18.5t-107 62t-94 80.5q0 -49 -28 -96q-54 -32 -101.5 -48.5t-100.5 -16.5q-10 0 -10 10v70q0 10 10 10q42 0 92.5 11.5t92.5 31.5zM281 -169q-27 -40 -70 -80q-47 36 -78 72q32 29 76 79q20 -21 37.5 -37.5t34.5 -33.5zM468 -152q-27 -40 -70 -80q-49 38 -78 72 q34 31 76 79q10 -11 72 -71zM382 -298q-47 -50 -68 -65q-43 29 -74 65q24 21 70 72q28 -36 72 -72z" />
<glyph unicode="&#x6ae;" horiz-adv-x="820" d="M737 780q7 -143 13 -498l3 -172q54 -30 123 -30q10 0 10 -10v-70q0 -10 -10 -10q-54 0 -94 16.5t-58 44.5q-88 -31 -176 -46t-186 -15q-107 0 -166 19t-87.5 57t-28.5 96q0 43 16 89h41q-3 -17 -3 -44q0 -50 24 -76.5t77 -38.5t152 -12q166 0 319 37q-17 143 -37 446 l-11 151q36 37 79 66zM459 389l1 6q0 6 -5.5 12.5t-13.5 6.5q-20 0 -40 -15.5t-29 -40.5q22 -29 72 -29q28 0 71 9l-3 -57q-60 -15 -97.5 -30t-85.5 -41l-3 57l29 17l29 16q-54 11 -54 59q0 44 35.5 80.5t73.5 36.5q31 0 44.5 -16t13.5 -39q0 -20 -10 -40zM432 -169 q-27 -40 -70 -80q-47 36 -78 72q32 29 76 79q20 -21 37.5 -37.5t34.5 -33.5zM619 -152q-27 -40 -70 -80q-49 38 -78 72q34 31 76 79q10 -11 72 -71zM533 -298q-47 -50 -68 -65q-43 29 -74 65q24 21 70 72q28 -36 72 -72z" />
<glyph unicode="&#x6b0;" horiz-adv-x="487" d="M0 -10q-10 0 -10 10v70q0 10 10 10q107 0 191.5 16t155.5 53q-44 134 -247 231q-11 -4 -28 -4q-30 0 -51 21.5t-21 54.5q0 22 12 65.5t19 47.5q138 72 219.5 109.5t198.5 85.5q9 -8 13.5 -20.5t4.5 -24.5l-1 -10q-6 -42 -49 -59q-208 -85 -374 -161q90 -22 172 -73 t130.5 -113t48.5 -116q0 -95 -98 -144t-296 -49zM299 464q-33 0 -53 24.5t-20 59.5q0 28 11 50t28.5 34t35.5 12q19 0 37 -12.5t29 -34t11 -50.5q0 -34 -24.5 -58.5t-54.5 -24.5zM348 547q0 6 -7.5 18t-19 19.5t-28.5 7.5q-14 0 -25.5 -10.5t-11.5 -25.5q0 -18 12 -28.5 t34 -10.5q17 0 31.5 10.5t14.5 19.5zM5 620q-8 33 -8 46q0 6 2 7q27 14 180 87.5t232 110.5q17 -12 16 -30v-7q-5 -21 -29 -32q-189 -85 -271.5 -124t-121.5 -58z" />
<glyph unicode="&#x6b0;" horiz-adv-x="540" d="M185 123q-17 80 -65 144q-52 62 -85.5 120.5t-33.5 90.5q0 31 11 50.5t40 35.5q69 39 141 72t295 124q9 -8 13.5 -20.5t4.5 -24.5l-1 -10q-6 -42 -49 -59l-113 -46q-197 -80 -300 -126q93 -113 156 -178.5t128.5 -119.5t117.5 -75t105 -21q10 0 10 -10v-70q0 -10 -10 -10 q-66 0 -119 18.5t-107 62t-94 80.5q0 -49 -28 -96q-54 -32 -101.5 -48.5t-100.5 -16.5q-10 0 -10 10v70q0 10 10 10q42 0 92.5 11.5t92.5 31.5zM287 444q-33 0 -53 24.5t-20 59.5q0 28 11 50t28.5 34t35.5 12q19 0 37 -12.5t29 -34t11 -50.5q0 -34 -24.5 -58.5t-54.5 -24.5z M336 527q0 6 -7.5 18t-19 19.5t-28.5 7.5q-14 0 -25.5 -10.5t-11.5 -25.5q0 -18 12 -28.5t34 -10.5q17 0 31.5 10.5t14.5 19.5zM5 620q-8 33 -8 46q0 6 2 7q27 14 180 87.5t232 110.5q17 -12 16 -30v-7q-5 -21 -29 -32q-189 -85 -271.5 -124t-121.5 -58z" />
<glyph unicode="&#x6b0;" horiz-adv-x="913" d="M344 -10q-138 0 -201 42t-63 128q0 37 21 85l38 -14q-6 -32 -6 -48q0 -54 50.5 -78.5t168.5 -24.5q60 0 118 12.5t88 30.5q-17 80 -65 144q-52 62 -85.5 120.5t-33.5 90.5q0 31 11 50.5t40 35.5q69 39 141 72t295 124q9 -8 13.5 -20.5t4.5 -24.5l-1 -10q-6 -42 -49 -59 l-113 -46q-197 -80 -300 -126q93 -113 156 -178.5t128.5 -119.5t117.5 -75t105 -21q10 0 10 -10v-70q0 -10 -10 -10q-66 0 -119 18.5t-107 62t-94 80.5q0 -49 -28 -96q-47 -30 -110.5 -47.5t-120.5 -17.5zM659 444q-33 0 -53 24.5t-20 59.5q0 28 11 50t28.5 34t35.5 12 q19 0 37 -12.5t29 -34t11 -50.5q0 -34 -24.5 -58.5t-54.5 -24.5zM708 527q0 6 -7.5 18t-19 19.5t-28.5 7.5q-14 0 -25.5 -10.5t-11.5 -25.5q0 -18 12 -28.5t34 -10.5q17 0 31.5 10.5t14.5 19.5zM370 620q-8 33 -8 46q0 6 2 7q27 14 180 87.5t232 110.5q17 -12 16 -30v-7 q-5 -21 -29 -32q-189 -85 -271.5 -124t-121.5 -58z" />
<glyph unicode="&#x6b1;" horiz-adv-x="487" arabic-form="initial" d="M0 -10q-10 0 -10 10v70q0 10 10 10q107 0 191.5 16t155.5 53q-44 134 -247 231q-11 -4 -28 -4q-30 0 -51 21.5t-21 54.5q0 22 12 65.5t19 47.5q138 72 219.5 109.5t198.5 85.5q9 -8 13.5 -20.5t4.5 -24.5l-1 -10q-6 -42 -49 -59q-208 -85 -374 -161q90 -22 172 -73 t130.5 -113t48.5 -116q0 -95 -98 -144t-296 -49zM150 878q-23 -33 -49 -56q-38 30 -54 51q22 20 53 55l26 -26zM274 890q-21 -30 -49 -56q-37 29 -54 50q25 24 53 56q17 -19 50 -50zM5 620q-8 33 -8 46q0 6 2 7q27 14 180 87.5t232 110.5q17 -12 16 -30v-7q-5 -21 -29 -32 q-189 -85 -271.5 -124t-121.5 -58z" />
<glyph unicode="&#x6b1;" horiz-adv-x="540" arabic-form="medial" d="M185 123q-17 80 -65 144q-52 62 -85.5 120.5t-33.5 90.5q0 31 11 50.5t40 35.5q69 39 141 72t295 124q9 -8 13.5 -20.5t4.5 -24.5l-1 -10q-6 -42 -49 -59l-113 -46q-197 -80 -300 -126q93 -113 156 -178.5t128.5 -119.5t117.5 -75t105 -21q10 0 10 -10v-70q0 -10 -10 -10 q-66 0 -119 18.5t-107 62t-94 80.5q0 -49 -28 -96q-54 -32 -101.5 -48.5t-100.5 -16.5q-10 0 -10 10v70q0 10 10 10q42 0 92.5 11.5t92.5 31.5zM150 878q-23 -33 -49 -56q-38 30 -54 51q22 20 53 55l26 -26zM274 890q-21 -30 -49 -56q-37 29 -54 50q25 24 53 56 q17 -19 50 -50zM5 620q-8 33 -8 46q0 6 2 7q27 14 180 87.5t232 110.5q17 -12 16 -30v-7q-5 -21 -29 -32q-189 -85 -271.5 -124t-121.5 -58z" />
<glyph unicode="&#x6b1;" horiz-adv-x="913" arabic-form="final" d="M344 -10q-138 0 -201 42t-63 128q0 37 21 85l38 -14q-6 -32 -6 -48q0 -54 50.5 -78.5t168.5 -24.5q60 0 118 12.5t88 30.5q-17 80 -65 144q-52 62 -85.5 120.5t-33.5 90.5q0 31 11 50.5t40 35.5q69 39 141 72t295 124q9 -8 13.5 -20.5t4.5 -24.5l-1 -10q-6 -42 -49 -59 l-113 -46q-197 -80 -300 -126q93 -113 156 -178.5t128.5 -119.5t117.5 -75t105 -21q10 0 10 -10v-70q0 -10 -10 -10q-66 0 -119 18.5t-107 62t-94 80.5q0 -49 -28 -96q-47 -30 -110.5 -47.5t-120.5 -17.5zM521 878q-23 -33 -49 -56q-38 30 -54 51q22 20 53 55l26 -26z M645 890q-21 -30 -49 -56q-37 29 -54 50q25 24 53 56q17 -19 50 -50zM368 620q-8 33 -8 46q0 6 2 7q27 14 180 87.5t232 110.5q17 -12 16 -30v-7q-5 -21 -29 -32q-189 -85 -271.5 -124t-121.5 -58z" />
<glyph unicode="&#x6b2;" horiz-adv-x="487" d="M0 -10q-10 0 -10 10v70q0 10 10 10q107 0 191.5 16t155.5 53q-44 134 -247 231q-11 -4 -28 -4q-30 0 -51 21.5t-21 54.5q0 22 12 65.5t19 47.5q138 72 219.5 109.5t198.5 85.5q9 -8 13.5 -20.5t4.5 -24.5l-1 -10q-6 -42 -49 -59q-208 -85 -374 -161q90 -22 172 -73 t130.5 -113t48.5 -116q0 -95 -98 -144t-296 -49zM5 620q-8 33 -8 46q0 6 2 7q27 14 180 87.5t232 110.5q17 -12 16 -30v-7q-5 -21 -29 -32q-189 -85 -271.5 -124t-121.5 -58zM184 -175q-27 -40 -70 -80q-48 37 -78 72q23 21 76 79q10 -11 72 -71zM361 -158q-25 -37 -70 -80 q-47 36 -78 72q21 19 76 79q10 -11 72 -71z" />
<glyph unicode="&#x6b2;" horiz-adv-x="540" d="M185 123q-17 80 -65 144q-52 62 -85.5 120.5t-33.5 90.5q0 31 11 50.5t40 35.5q69 39 141 72t295 124q9 -8 13.5 -20.5t4.5 -24.5l-1 -10q-6 -42 -49 -59l-113 -46q-197 -80 -300 -126q93 -113 156 -178.5t128.5 -119.5t117.5 -75t105 -21q10 0 10 -10v-70q0 -10 -10 -10 q-66 0 -119 18.5t-107 62t-94 80.5q0 -49 -28 -96q-54 -32 -101.5 -48.5t-100.5 -16.5q-10 0 -10 10v70q0 10 10 10q42 0 92.5 11.5t92.5 31.5zM5 620q-8 33 -8 46q0 6 2 7q27 14 180 87.5t232 110.5q17 -12 16 -30v-7q-5 -21 -29 -32q-189 -85 -271.5 -124t-121.5 -58z M276 -175q-27 -40 -70 -80q-48 37 -78 72q23 21 76 79q10 -11 72 -71zM453 -158q-25 -37 -70 -80q-47 36 -78 72q21 19 76 79q10 -11 72 -71z" />
<glyph unicode="&#x6b2;" horiz-adv-x="913" d="M344 -10q-138 0 -201 42t-63 128q0 37 21 85l38 -14q-6 -32 -6 -48q0 -54 50.5 -78.5t168.5 -24.5q60 0 118 12.5t88 30.5q-17 80 -65 144q-52 62 -85.5 120.5t-33.5 90.5q0 31 11 50.5t40 35.5q69 39 141 72t295 124q9 -8 13.5 -20.5t4.5 -24.5l-1 -10q-6 -42 -49 -59 l-113 -46q-197 -80 -300 -126q93 -113 156 -178.5t128.5 -119.5t117.5 -75t105 -21q10 0 10 -10v-70q0 -10 -10 -10q-66 0 -119 18.5t-107 62t-94 80.5q0 -49 -28 -96q-47 -30 -110.5 -47.5t-120.5 -17.5zM368 620q-8 33 -8 46q0 6 2 7q27 14 180 87.5t232 110.5 q17 -12 16 -30v-7q-5 -21 -29 -32q-189 -85 -271.5 -124t-121.5 -58zM422 -175q-27 -40 -70 -80q-48 37 -78 72q23 21 76 79q10 -11 72 -71zM599 -158q-25 -37 -70 -80q-47 36 -78 72q21 19 76 79q10 -11 72 -71z" />
<glyph unicode="&#x6b3;" horiz-adv-x="487" arabic-form="initial" d="M0 -10q-10 0 -10 10v70q0 10 10 10q107 0 191.5 16t155.5 53q-44 134 -247 231q-11 -4 -28 -4q-30 0 -51 21.5t-21 54.5q0 22 12 65.5t19 47.5q138 72 219.5 109.5t198.5 85.5q9 -8 13.5 -20.5t4.5 -24.5l-1 -10q-6 -42 -49 -59q-208 -85 -374 -161q90 -22 172 -73 t130.5 -113t48.5 -116q0 -95 -98 -144t-296 -49zM5 620q-8 33 -8 46q0 6 2 7q27 14 180 87.5t232 110.5q17 -12 16 -30v-7q-5 -21 -29 -32q-189 -85 -271.5 -124t-121.5 -58zM260 -355q-27 -40 -70 -80q-49 38 -78 72q26 23 76 79q10 -11 72 -71zM238 -158q-26 -38 -70 -80 q-48 37 -78 72q23 21 76 79q20 -21 37.5 -37.5t34.5 -33.5z" />
<glyph unicode="&#x6b3;" horiz-adv-x="540" arabic-form="medial" d="M185 123q-17 80 -65 144q-52 62 -85.5 120.5t-33.5 90.5q0 31 11 50.5t40 35.5q69 39 141 72t295 124q9 -8 13.5 -20.5t4.5 -24.5l-1 -10q-6 -42 -49 -59l-113 -46q-197 -80 -300 -126q93 -113 156 -178.5t128.5 -119.5t117.5 -75t105 -21q10 0 10 -10v-70q0 -10 -10 -10 q-66 0 -119 18.5t-107 62t-94 80.5q0 -49 -28 -96q-54 -32 -101.5 -48.5t-100.5 -16.5q-10 0 -10 10v70q0 10 10 10q42 0 92.5 11.5t92.5 31.5zM5 620q-8 33 -8 46q0 6 2 7q27 14 180 87.5t232 110.5q17 -12 16 -30v-7q-5 -21 -29 -32q-189 -85 -271.5 -124t-121.5 -58z M375 -355q-27 -40 -70 -80q-49 38 -78 72q26 23 76 79q10 -11 72 -71zM353 -158q-26 -38 -70 -80q-48 37 -78 72q23 21 76 79q20 -21 37.5 -37.5t34.5 -33.5z" />
<glyph unicode="&#x6b3;" horiz-adv-x="913" arabic-form="final" d="M344 -10q-138 0 -201 42t-63 128q0 37 21 85l38 -14q-6 -32 -6 -48q0 -54 50.5 -78.5t168.5 -24.5q60 0 118 12.5t88 30.5q-17 80 -65 144q-52 62 -85.5 120.5t-33.5 90.5q0 31 11 50.5t40 35.5q69 39 141 72t295 124q9 -8 13.5 -20.5t4.5 -24.5l-1 -10q-6 -42 -49 -59 l-113 -46q-197 -80 -300 -126q93 -113 156 -178.5t128.5 -119.5t117.5 -75t105 -21q10 0 10 -10v-70q0 -10 -10 -10q-66 0 -119 18.5t-107 62t-94 80.5q0 -49 -28 -96q-47 -30 -110.5 -47.5t-120.5 -17.5zM368 620q-8 33 -8 46q0 6 2 7q27 14 180 87.5t232 110.5 q17 -12 16 -30v-7q-5 -21 -29 -32q-189 -85 -271.5 -124t-121.5 -58zM526 -355q-27 -40 -70 -80q-49 38 -78 72q26 23 76 79q10 -11 72 -71zM504 -158q-26 -38 -70 -80q-48 37 -78 72q23 21 76 79q20 -21 37.5 -37.5t34.5 -33.5z" />
<glyph unicode="&#x6b4;" horiz-adv-x="487" d="M0 -10q-10 0 -10 10v70q0 10 10 10q107 0 191.5 16t155.5 53q-44 134 -247 231q-11 -4 -28 -4q-30 0 -51 21.5t-21 54.5q0 22 12 65.5t19 47.5q138 72 219.5 109.5t198.5 85.5q9 -8 13.5 -20.5t4.5 -24.5l-1 -10q-6 -42 -49 -59q-208 -85 -374 -161q90 -22 172 -73 t130.5 -113t48.5 -116q0 -95 -98 -144t-296 -49zM5 620q-8 33 -8 46q0 6 2 7q27 14 180 87.5t232 110.5q17 -12 16 -30v-7q-5 -21 -29 -32q-189 -85 -271.5 -124t-121.5 -58zM276 891q-21 -30 -49 -56q-32 25 -55 51l28 28l25 27zM145 880q-16 -25 -49 -56q-30 22 -55 50 q14 13 28 28.5t25 26.5zM206 972q-28 -33 -47 -46q-30 19 -52 46q27 24 49 50q17 -22 50 -50z" />
<glyph unicode="&#x6b4;" horiz-adv-x="540" d="M185 123q-17 80 -65 144q-52 62 -85.5 120.5t-33.5 90.5q0 31 11 50.5t40 35.5q69 39 141 72t295 124q9 -8 13.5 -20.5t4.5 -24.5l-1 -10q-6 -42 -49 -59l-113 -46q-197 -80 -300 -126q93 -113 156 -178.5t128.5 -119.5t117.5 -75t105 -21q10 0 10 -10v-70q0 -10 -10 -10 q-66 0 -119 18.5t-107 62t-94 80.5q0 -49 -28 -96q-54 -32 -101.5 -48.5t-100.5 -16.5q-10 0 -10 10v70q0 10 10 10q42 0 92.5 11.5t92.5 31.5zM5 620q-8 33 -8 46q0 6 2 7q27 14 180 87.5t232 110.5q17 -12 16 -30v-7q-5 -21 -29 -32q-189 -85 -271.5 -124t-121.5 -58z M276 891q-21 -30 -49 -56q-32 25 -55 51l28 28l25 27zM145 880q-16 -25 -49 -56q-30 22 -55 50q14 13 28 28.5t25 26.5zM206 972q-28 -33 -47 -46q-30 19 -52 46q27 24 49 50q17 -22 50 -50z" />
<glyph unicode="&#x6b4;" horiz-adv-x="913" d="M344 -10q-138 0 -201 42t-63 128q0 37 21 85l38 -14q-6 -32 -6 -48q0 -54 50.5 -78.5t168.5 -24.5q60 0 118 12.5t88 30.5q-17 80 -65 144q-52 62 -85.5 120.5t-33.5 90.5q0 31 11 50.5t40 35.5q69 39 141 72t295 124q9 -8 13.5 -20.5t4.5 -24.5l-1 -10q-6 -42 -49 -59 l-113 -46q-197 -80 -300 -126q93 -113 156 -178.5t128.5 -119.5t117.5 -75t105 -21q10 0 10 -10v-70q0 -10 -10 -10q-66 0 -119 18.5t-107 62t-94 80.5q0 -49 -28 -96q-47 -30 -110.5 -47.5t-120.5 -17.5zM368 620q-8 33 -8 46q0 6 2 7q27 14 180 87.5t232 110.5 q17 -12 16 -30v-7q-5 -21 -29 -32q-189 -85 -271.5 -124t-121.5 -58zM647 891q-21 -30 -49 -56q-32 25 -55 51l28 28l25 27zM516 880q-16 -25 -49 -56q-30 22 -55 50q14 13 28 28.5t25 26.5zM577 972q-28 -33 -47 -46q-30 19 -52 46q27 24 49 50q17 -22 50 -50z" />
<glyph unicode="&#x6b5;" horiz-adv-x="250" d="M0 -10q-10 0 -10 10v70q0 10 10 10q73 0 130 31q-24 318 -59 603q35 37 79 66l9 -175q13 -211 17 -296t5 -160q0 -41 -41 -118q-22 -41 -140 -41zM107 897q6 38 28.5 92t39.5 77q12 -1 21.5 -11.5t9.5 -30.5q0 -9 -5.5 -19.5t-15 -29t-23 -48.5t-29.5 -78 q-30 -18 -72 -24q-26 56 -53 109t-62 103l22 5q13 4 24 4q19 0 34 -12t39 -52.5t42 -84.5z" />
<glyph unicode="&#x6b5;" horiz-adv-x="288" d="M0 -10q-10 0 -10 10v70q0 10 10 10q66 0 128 30q-19 160 -37 452l-11 152q35 37 79 66q7 -153 12 -498l4 -172q54 -30 123 -30q10 0 10 -10v-70q0 -10 -10 -10q-91 0 -135 42q-44 -24 -77.5 -33t-85.5 -9zM106 897q6 38 28.5 92t39.5 77q12 -1 21.5 -11.5t9.5 -30.5 q0 -9 -5.5 -19.5t-15 -29t-23 -48.5t-29.5 -78q-30 -18 -72 -24q-26 56 -53 109t-62 103l22 5q13 4 24 4q19 0 34 -12t39 -52.5t42 -84.5z" />
<glyph unicode="&#x6b5;" horiz-adv-x="695" d="M706 -10q-42 0 -78 18l2 -60q0 -71 -45 -136.5t-125.5 -108.5t-166.5 -43q-101 0 -157 58t-56 163q0 37 4 64.5t19 87.5l43 -10q-13 -50 -13 -84q0 -87 43 -134.5t120 -47.5q56 0 116 19t107 53t67 75q-22 149 -55 346q-21 119 -40 258.5t-19 177.5q0 39 17.5 62t59.5 32 q3 -11 5.5 -21t36.5 -119l-28 -24q6 -44 57 -516q37 -20 86 -20q10 0 10 -10v-70q0 -10 -10 -10zM495 897q6 38 28.5 92t39.5 77q12 -1 21.5 -11.5t9.5 -30.5q0 -9 -5.5 -19.5t-15 -29t-23 -48.5t-29.5 -78q-30 -18 -72 -24q-26 56 -53 109t-62 103l22 5q13 4 24 4 q19 0 34 -12t39 -52.5t42 -84.5z" />
<glyph unicode="&#x6b6;" horiz-adv-x="250" d="M-1 -10q-10 0 -10 10v70q0 10 10 10q73 0 130 31q-24 318 -59 603q35 37 79 66l9 -175q13 -211 17 -296t5 -160q0 -41 -41 -118q-22 -41 -140 -41zM170 940q-25 -38 -76 -86q-52 41 -84 77q50 49 82 86q38 -42 78 -77z" />
<glyph unicode="&#x6b6;" horiz-adv-x="288" d="M0 -10q-10 0 -10 10v70q0 10 10 10q66 0 128 30q-19 160 -37 452l-11 152q35 37 79 66q7 -153 12 -498l4 -172q54 -30 123 -30q10 0 10 -10v-70q0 -10 -10 -10q-91 0 -135 42q-44 -24 -77.5 -33t-85.5 -9zM170 940q-25 -38 -76 -86q-52 41 -84 77q50 49 82 86 q38 -42 78 -77z" />
<glyph unicode="&#x6b6;" horiz-adv-x="695" d="M706 -10q-42 0 -78 18l2 -60q0 -71 -45 -136.5t-125.5 -108.5t-166.5 -43q-101 0 -157 58t-56 163q0 37 4 64.5t19 87.5l43 -10q-13 -50 -13 -84q0 -87 43 -134.5t120 -47.5q56 0 116 19t107 53t67 75q-22 149 -55 346q-21 119 -40 258.5t-19 177.5q0 39 17.5 62t59.5 32 q3 -11 5.5 -21t36.5 -119l-28 -24q6 -44 57 -516q37 -20 86 -20q10 0 10 -10v-70q0 -10 -10 -10zM570 940q-25 -38 -76 -86q-52 41 -84 77q50 49 82 86q38 -42 78 -77z" />
<glyph unicode="&#x6b7;" horiz-adv-x="250" d="M0 -10q-10 0 -10 10v70q0 10 10 10q73 0 130 31q-24 318 -59 603q35 37 79 66l9 -175q13 -211 17 -296t5 -160q0 -41 -41 -118q-22 -41 -140 -41zM224 914q-21 -30 -49 -56q-32 25 -55 51l28 28l25 27zM93 903q-16 -25 -49 -56q-30 22 -55 50q14 13 28 28.5t25 26.5z M154 995q-28 -33 -47 -46q-30 19 -52 46q27 24 49 50q17 -22 50 -50z" />
<glyph unicode="&#x6b7;" horiz-adv-x="288" d="M2 -10q-10 0 -10 10v70q0 10 10 10q66 0 128 30q-19 160 -37 452l-11 152q35 37 79 66q7 -153 12 -498l4 -172q54 -30 123 -30q10 0 10 -10v-70q0 -10 -10 -10q-91 0 -135 42q-44 -24 -77.5 -33t-85.5 -9zM225 914q-21 -30 -49 -56q-32 25 -55 51l28 28l25 27zM94 903 q-16 -25 -49 -56q-30 22 -55 50q14 13 28 28.5t25 26.5zM155 995q-28 -33 -47 -46q-30 19 -52 46q27 24 49 50q17 -22 50 -50z" />
<glyph unicode="&#x6b7;" horiz-adv-x="695" d="M706 -10q-42 0 -78 18l2 -60q0 -71 -45 -136.5t-125.5 -108.5t-166.5 -43q-101 0 -157 58t-56 163q0 37 4 64.5t19 87.5l43 -10q-13 -50 -13 -84q0 -87 43 -134.5t120 -47.5q56 0 116 19t107 53t67 75q-22 149 -55 346q-21 119 -40 258.5t-19 177.5q0 39 17.5 62t59.5 32 q3 -11 5.5 -21t36.5 -119l-28 -24q6 -44 57 -516q37 -20 86 -20q10 0 10 -10v-70q0 -10 -10 -10zM612 914q-21 -30 -49 -56q-32 25 -55 51l28 28l25 27zM481 903q-16 -25 -49 -56q-30 22 -55 50q14 13 28 28.5t25 26.5zM542 995q-28 -33 -47 -46q-30 19 -52 46q27 24 49 50 q17 -22 50 -50z" />
<glyph unicode="&#x6b8;" horiz-adv-x="414" d="M0 -10q-10 0 -10 10v70q0 10 10 10q83 0 165 9.5t115 22.5q-24 311 -59 602q36 37 79 66l9 -175q13 -211 17 -296t5 -160q0 -41 -41 -118q-10 -18 -100 -29.5t-190 -11.5zM157 -170q-27 -40 -70 -80q-47 36 -78 72q32 29 76 79q20 -21 37.5 -37.5t34.5 -33.5zM344 -153 q-27 -40 -70 -80q-49 38 -78 72q34 31 76 79q10 -11 72 -71zM258 -299q-47 -50 -68 -65q-43 29 -74 65q24 21 70 72q28 -36 72 -72z" />
<glyph unicode="&#x6b8;" horiz-adv-x="288" d="M0 -10q-10 0 -10 10v70q0 10 10 10q66 0 128 30q-19 160 -37 452l-11 152q35 37 79 66q7 -153 12 -498l4 -172q54 -30 123 -30q10 0 10 -10v-70q0 -10 -10 -10q-91 0 -135 42q-44 -24 -77.5 -33t-85.5 -9zM141 -169q-27 -40 -70 -80q-47 36 -78 72q32 29 76 79 q20 -21 37.5 -37.5t34.5 -33.5zM328 -152q-27 -40 -70 -80q-49 38 -78 72q34 31 76 79q10 -11 72 -71zM242 -298q-47 -50 -68 -65q-43 29 -74 65q24 21 70 72q28 -36 72 -72z" />
<glyph unicode="&#x6b8;" horiz-adv-x="695" d="M706 -10q-42 0 -78 18l2 -60q0 -71 -45 -136.5t-125.5 -108.5t-166.5 -43q-101 0 -157 58t-56 163q0 37 4 64.5t19 87.5l43 -10q-13 -50 -13 -84q0 -87 43 -134.5t120 -47.5q56 0 116 19t107 53t67 75q-22 149 -55 346q-21 119 -40 258.5t-19 177.5q0 39 17.5 62t59.5 32 q3 -11 5.5 -21t36.5 -119l-28 -24q6 -44 57 -516q37 -20 86 -20q10 0 10 -10v-70q0 -10 -10 -10zM433 -487q-6 -10 -20.5 -27t-28.5 -29q-38 30 -55 50q29 28 53 56q17 -19 51 -50zM564 -475q-15 -23 -49 -56q-35 28 -55 50q26 25 53 56q23 -24 51 -50zM504 -577 q-30 -34 -48 -46q-33 23 -52 46q15 13 49 50q19 -25 51 -50z" />
<glyph unicode="&#x6b9;" horiz-adv-x="324" d="M0 -10q-10 0 -10 10v70q0 10 10 10q52 0 109 11.5t99 31.5q-14 52 -42 129q-22 61 -23 79q0 27 21.5 54t55.5 45q5 -34 12.5 -68t14.5 -66.5t12 -63t5 -57.5q0 -38 -41 -120q-109 -65 -223 -65zM226 -164q-25 -38 -76 -86q-52 41 -84 77q52 51 82 86q40 -44 78 -77z M212 584q-25 -38 -76 -86q-52 41 -84 77q50 49 82 86q38 -42 78 -77z" />
<glyph unicode="&#x6b9;" horiz-adv-x="344" d="M0 -10q-10 0 -10 10v70q0 10 10 10q50 0 82.5 11t49 32t45.5 78l21 38q10 19 36 19q18 0 29 -9q-33 -79 -57 -125q69 -44 148 -44q10 0 10 -10v-70q0 -10 -10 -10q-109 0 -186 69l-9 -14l-10 -12q-7 -9 -31 -19.5t-55 -17t-63 -6.5zM243 -164q-25 -38 -76 -86 q-52 41 -84 77q52 51 82 86q40 -44 78 -77zM234 431q-25 -38 -76 -86q-52 41 -84 77q50 49 82 86q38 -42 78 -77z" />
<glyph unicode="&#x6b9;" horiz-adv-x="688" d="M699 -10q-40 0 -73 16q4 -38 4 -58q0 -71 -45 -136.5t-125.5 -108.5t-166.5 -43q-101 0 -157 58t-56 163q0 37 4 64.5t19 87.5l43 -10q-13 -50 -13 -84q0 -87 43 -134.5t120 -47.5q56 0 116 19t107 53t67 75q-77 169 -77 225q0 62 77 105q4 -31 23 -132q24 -14 45.5 -18 t44.5 -4q10 0 10 -10v-70q0 -10 -10 -10zM544 -465q-25 -38 -76 -86q-52 41 -84 77q52 51 82 86q40 -44 78 -77zM394 250q-25 -38 -76 -86q-52 41 -84 77q50 49 82 86q38 -42 78 -77z" />
<glyph unicode="&#x6bb;" horiz-adv-x="688" arabic-form="final" d="M699 -10q-40 0 -73 16q4 -38 4 -58q0 -71 -45 -136.5t-125.5 -108.5t-166.5 -43q-101 0 -157 58t-56 163q0 37 4 64.5t19 87.5l43 -10q-13 -50 -13 -84q0 -87 43 -134.5t120 -47.5q56 0 116 19t107 53t67 75q-77 169 -77 225q0 62 77 105q4 -31 23 -132q24 -14 45.5 -18 t44.5 -4q10 0 10 -10v-70q0 -10 -10 -10zM131 261l65 -11q13 21 30 39l-25 123q-11 54 -11 64q0 13 18.5 24t42.5 16l17 -51l-12 -9q2 -28 3 -61.5t2 -67.5q30 29 58 45t46 16q20 0 44.5 -17t42 -42.5t17.5 -41.5q0 -33 -22.5 -61t-61 -44t-76.5 -16q-32 0 -61.5 6t-56 16.5 t-69.5 35.5zM357 315q-25 0 -57 -18.5t-61 -50.5q35 -4 73 -4q39 0 65 6t59 20q-10 19 -33.5 33t-45.5 14z" />
<glyph unicode="&#x6bc;" horiz-adv-x="324" d="M0 -10q-10 0 -10 10v70q0 10 10 10q52 0 109 11.5t99 31.5q-14 52 -42 129q-22 61 -23 79q0 27 21.5 54t55.5 45q5 -34 12.5 -68t14.5 -66.5t12 -63t5 -57.5q0 -38 -41 -120q-109 -65 -223 -65zM131 -119q-33 0 -53 24.5t-20 59.5q0 28 11 50t28.5 34t35.5 12 q19 0 37 -12.5t29 -34t11 -50.5q0 -34 -24.5 -58.5t-54.5 -24.5zM180 -36q0 6 -7.5 18t-19 19.5t-28.5 7.5q-14 0 -25.5 -10.5t-11.5 -25.5q0 -18 12 -28.5t34 -10.5q17 0 31.5 10.5t14.5 19.5zM212 584q-25 -38 -76 -86q-52 41 -84 77q50 49 82 86q38 -42 78 -77z" />
<glyph unicode="&#x6bc;" horiz-adv-x="344" d="M0 -10q-10 0 -10 10v70q0 10 10 10q50 0 82.5 11t49 32t45.5 78l21 38q10 19 36 19q18 0 29 -9q-33 -79 -57 -125q69 -44 148 -44q10 0 10 -10v-70q0 -10 -10 -10q-109 0 -186 69l-9 -14l-10 -12q-7 -9 -31 -19.5t-55 -17t-63 -6.5zM94 -126q-33 0 -53 24.5t-20 59.5 q0 28 11 50t28.5 34t35.5 12q19 0 37 -12.5t29 -34t11 -50.5q0 -34 -24.5 -58.5t-54.5 -24.5zM143 -43q0 6 -7.5 18t-19 19.5t-28.5 7.5q-14 0 -25.5 -10.5t-11.5 -25.5q0 -18 12 -28.5t34 -10.5q17 0 31.5 10.5t14.5 19.5zM234 431q-25 -38 -76 -86q-52 41 -84 77 q50 49 82 86q38 -42 78 -77z" />
<glyph unicode="&#x6bc;" horiz-adv-x="688" d="M699 -10q-40 0 -73 16q4 -38 4 -58q0 -71 -45 -136.5t-125.5 -108.5t-166.5 -43q-101 0 -157 58t-56 163q0 37 4 64.5t19 87.5l43 -10q-13 -50 -13 -84q0 -87 43 -134.5t120 -47.5q56 0 116 19t107 53t67 75q-77 169 -77 225q0 62 77 105q4 -31 23 -132q24 -14 45.5 -18 t44.5 -4q10 0 10 -10v-70q0 -10 -10 -10zM466 -429q-33 0 -53 24.5t-20 59.5q0 28 11 50t28.5 34t35.5 12q19 0 37 -12.5t29 -34t11 -50.5q0 -34 -24.5 -58.5t-54.5 -24.5zM515 -346q0 6 -7.5 18t-19 19.5t-28.5 7.5q-14 0 -25.5 -10.5t-11.5 -25.5q0 -18 12 -28.5t34 -10.5 q17 0 31.5 10.5t14.5 19.5zM394 250q-25 -38 -76 -86q-52 41 -84 77q50 49 82 86q38 -42 78 -77z" />
<glyph unicode="&#x6bd;" horiz-adv-x="688" d="M699 -10q-40 0 -73 16q4 -38 4 -58q0 -71 -45 -136.5t-125.5 -108.5t-166.5 -43q-101 0 -157 58t-56 163q0 37 4 64.5t19 87.5l43 -10q-13 -50 -13 -84q0 -87 43 -134.5t120 -47.5q56 0 116 19t107 53t67 75q-77 169 -77 225q0 62 77 105q4 -31 23 -132q24 -14 45.5 -18 t44.5 -4q10 0 10 -10v-70q0 -10 -10 -10zM408 387q-47 -50 -68 -65q-43 29 -74 65q26 23 70 72q13 -18 36 -40t36 -32zM320 255q-26 -39 -70 -80q-47 36 -78 72q21 19 76 79q8 -9 72 -71zM507 272q-26 -39 -70 -80q-46 35 -78 72q21 19 76 79q10 -11 72 -71z" />
<glyph unicode="&#x6bf;" horiz-adv-x="748" d="M0 -10q-10 0 -10 10v70q0 10 10 10q174 0 272 30l54 17q49 18 75.5 26.5t54.5 13.5q-38 18 -66.5 39.5t-54 40.5t-51.5 32t-57 13q-23 0 -41 -4t-32.5 -10.5t-55.5 -31.5q-7 7 -12 19.5t-5 26.5q0 45 39.5 71.5t102.5 26.5q37 0 75 -16t89 -53q58 -42 99.5 -65t89 -34.5 t132.5 -10.5l-45 -87l-72 7q-53 -1 -76 -6t-53.5 -17.5t-85.5 -41.5q-61 -32 -110 -48t-106.5 -22t-159.5 -6zM394 -146q-27 -40 -70 -80q-47 36 -78 72q32 29 76 79q20 -21 37.5 -37.5t34.5 -33.5zM581 -129q-27 -40 -70 -80q-49 38 -78 72q34 31 76 79q10 -11 72 -71z M495 -275q-47 -50 -68 -65q-43 29 -74 65q24 21 70 72q28 -36 72 -72zM544 516q-25 -38 -76 -86q-52 41 -84 77q50 49 82 86q38 -42 78 -77z" />
<glyph unicode="&#x6bf;" horiz-adv-x="783" d="M0 -10q-10 0 -10 10v70q0 10 10 10q174 0 272 30q34 10 96 36q49 21 87 29q-37 17 -66 37.5t-54.5 38t-51 29.5t-56.5 12q-23 0 -41 -4t-32.5 -10.5t-55.5 -31.5q-7 7 -12 19.5t-5 26.5q0 45 39.5 71.5t102.5 26.5q38 0 77 -15.5t87 -48.5q54 -38 89.5 -57t65.5 -28.5 t63 -14.5t103 -5l-45 -87q-60 4 -100 10h-8q16 -30 37 -42t62 -17t139 -5q10 0 10 -10v-70q0 -10 -10 -10q-88 0 -142.5 13.5t-88.5 41.5t-60 85q-23 -9 -53 -25q-107 -59 -161 -79t-114 -28t-174 -8zM472 -145q-27 -40 -70 -80q-47 36 -78 72q32 29 76 79 q20 -21 37.5 -37.5t34.5 -33.5zM659 -128q-27 -40 -70 -80q-49 38 -78 72q34 31 76 79q10 -11 72 -71zM573 -274q-47 -50 -68 -65q-43 29 -74 65q24 21 70 72q28 -36 72 -72zM544 516q-25 -38 -76 -86q-52 41 -84 77q50 49 82 86q38 -42 78 -77z" />
<glyph unicode="&#x6bf;" horiz-adv-x="840" d="M151 -339q-14 36 -23.5 80t-9.5 77q0 93 40.5 170t114.5 132.5t173 83.5q-30 15 -57 30.5t-53 28.5t-53 21t-57 8q-55 0 -101 -29l-28 -17q-7 7 -12 19.5t-5 26.5q0 45 39.5 71.5t102.5 26.5q46 0 93 -14.5t100 -44.5q102 -57 148.5 -74t102.5 -24.5t123 -10.5l-45 -87 q-86 10 -130 17h-7q23 -36 46 -49.5t63.5 -18t135.5 -4.5q10 0 10 -10v-70q0 -10 -10 -10q-101 1 -156 14.5t-87 44t-59 96.5q-103 -19 -191.5 -69.5t-133.5 -116.5t-45 -141q0 -30 6 -60.5t23 -75.5zM485 -113q-27 -40 -70 -80q-47 36 -78 72q32 29 76 79 q20 -21 37.5 -37.5t34.5 -33.5zM672 -96q-27 -40 -70 -80q-49 38 -78 72q34 31 76 79q10 -11 72 -71zM586 -242q-47 -50 -68 -65q-43 29 -74 65q24 21 70 72q28 -36 72 -72zM616 476q-25 -38 -76 -86q-52 41 -84 77q50 49 82 86q38 -42 78 -77z" />
<glyph unicode="&#x6c4;" horiz-adv-x="550" d="M227 -250q-39 0 -96 23.5t-91 51.5l17 39q64 -22 143 -22q152 0 224 150q-126 5 -179.5 21.5t-78.5 50.5t-25 88q0 60 23.5 118t63 94t79.5 36q48 0 89.5 -42.5t68 -118.5t26.5 -154v-5h70q10 0 10 -10v-70q0 -10 -10 -10h-40l-42 1q-18 -69 -56 -124.5t-88.5 -86 t-107.5 -30.5zM443 81q-10 60 -34 111t-55.5 79.5t-64.5 28.5q-24 0 -48 -18t-39.5 -46t-15.5 -51q0 -37 29 -59.5t99 -35.5q32 -7 129 -9zM251 -206q-33 0 -53 24.5t-20 59.5q0 28 11 50t28.5 34t35.5 12q19 0 37 -12.5t29 -34t11 -50.5q0 -34 -24.5 -58.5t-54.5 -24.5z M300 -123q0 6 -7.5 18t-19 19.5t-28.5 7.5q-14 0 -25.5 -10.5t-11.5 -25.5q0 -18 12 -28.5t34 -10.5q17 0 31.5 10.5t14.5 19.5z" />
<glyph unicode="&#x6c5;" horiz-adv-x="550" arabic-form="final" d="M227 -250q-39 0 -96 23.5t-91 51.5l17 39q64 -22 143 -22q71 0 127 35q-11 4 -20 8t-19 7t-20.5 5t-23.5 2q-21 0 -55 -15l-18 30q30 23 44 29t30 6q25 0 60 -13q46 -18 66 -22q32 33 53 78q-126 5 -179.5 21.5t-78.5 50.5t-25 88q0 60 23.5 118t63 94t79.5 36 q48 0 89.5 -42.5t68 -118.5t26.5 -154v-5h70q10 0 10 -10v-70q0 -10 -10 -10h-40l-42 1q-18 -69 -56 -124.5t-88.5 -86t-107.5 -30.5zM443 81q-10 60 -34 111t-55.5 79.5t-64.5 28.5q-24 0 -48 -18t-39.5 -46t-15.5 -51q0 -37 29 -59.5t99 -35.5q32 -7 129 -9z" />
<glyph unicode="&#x6c6;" horiz-adv-x="550" arabic-form="final" d="M227 -250q-39 0 -96 23.5t-91 51.5l17 39q64 -22 143 -22q152 0 224 150q-126 5 -179.5 21.5t-78.5 50.5t-25 88q0 60 23.5 118t63 94t79.5 36q48 0 89.5 -42.5t68 -118.5t26.5 -154v-5h70q10 0 10 -10v-70q0 -10 -10 -10h-40l-42 1q-18 -69 -56 -124.5t-88.5 -86 t-107.5 -30.5zM443 81q-10 60 -34 111t-55.5 79.5t-64.5 28.5q-24 0 -48 -18t-39.5 -46t-15.5 -51q0 -37 29 -59.5t99 -35.5q32 -7 129 -9zM273 542q6 38 28.5 92t39.5 77q12 -1 21.5 -11.5t9.5 -30.5q0 -9 -5.5 -19.5t-15 -29t-23 -48.5t-29.5 -78q-30 -18 -72 -24 q-26 56 -53 109t-62 103l22 5q13 4 24 4q19 0 34 -12t39 -52.5t42 -84.5z" />
<glyph unicode="&#x6c7;" horiz-adv-x="550" arabic-form="final" d="M227 -250q-39 0 -96 23.5t-91 51.5l17 39q64 -22 143 -22q152 0 224 150q-126 5 -179.5 21.5t-78.5 50.5t-25 88q0 60 23.5 118t63 94t79.5 36q48 0 89.5 -42.5t68 -118.5t26.5 -154v-5h70q10 0 10 -10v-70q0 -10 -10 -10h-40l-42 1q-18 -69 -56 -124.5t-88.5 -86 t-107.5 -30.5zM443 81q-10 60 -34 111t-55.5 79.5t-64.5 28.5q-24 0 -48 -18t-39.5 -46t-15.5 -51q0 -37 29 -59.5t99 -35.5q32 -7 129 -9zM77 506q31 5 68.5 19.5t70.5 35.5q-22 10 -38.5 28t-16.5 43q0 22 13 43t33.5 34.5t39.5 13.5q22 0 36.5 -25t14.5 -70q0 -19 -7 -38 q24 -3 47 -3q-2 -23 -16.5 -31.5t-43.5 -8.5h-9l-9 1q-33 -34 -72 -57t-68 -23q-20 0 -31.5 10t-11.5 28zM197 653q0 -36 57 -54q7 12 7 26q0 22 -9 36.5t-23 14.5q-11 0 -21.5 -8t-10.5 -15z" />
<glyph unicode="&#x6c8;" horiz-adv-x="550" arabic-form="final" d="M227 -250q-39 0 -96 23.5t-91 51.5l17 39q64 -22 143 -22q152 0 224 150q-126 5 -179.5 21.5t-78.5 50.5t-25 88q0 60 23.5 118t63 94t79.5 36q48 0 89.5 -42.5t68 -118.5t26.5 -154v-5h70q10 0 10 -10v-70q0 -10 -10 -10h-40l-42 1q-18 -69 -56 -124.5t-88.5 -86 t-107.5 -30.5zM443 81q-10 60 -34 111t-55.5 79.5t-64.5 28.5q-24 0 -48 -18t-39.5 -46t-15.5 -51q0 -37 29 -59.5t99 -35.5q32 -7 129 -9zM312 767q11 -59 15 -98t4 -91q0 -63 -33 -108l-7 2q0 110 -22 196q-4 16 -4 28q0 25 13 44t34 27z" />
<glyph unicode="&#x6c9;" horiz-adv-x="550" arabic-form="final" d="M227 -250q-39 0 -96 23.5t-91 51.5l17 39q64 -22 143 -22q152 0 224 150q-126 5 -179.5 21.5t-78.5 50.5t-25 88q0 60 23.5 118t63 94t79.5 36q48 0 89.5 -42.5t68 -118.5t26.5 -154v-5h70q10 0 10 -10v-70q0 -10 -10 -10h-40l-42 1q-18 -69 -56 -124.5t-88.5 -86 t-107.5 -30.5zM443 81q-10 60 -34 111t-55.5 79.5t-64.5 28.5q-24 0 -48 -18t-39.5 -46t-15.5 -51q0 -37 29 -59.5t99 -35.5q32 -7 129 -9zM259 638q-6 -38 -28.5 -92t-39.5 -77q-12 1 -21.5 11.5t-9.5 30.5q0 9 5.5 19.5t15 29t23 48.5t29.5 78q28 17 72 24q26 -56 53 -109 t62 -103l-22 -5q-13 -4 -25 -4q-24 0 -41.5 19.5t-33 45.5t-39.5 84z" />
<glyph unicode="&#x6ca;" horiz-adv-x="550" d="M227 -250q-39 0 -96 23.5t-91 51.5l17 39q64 -22 143 -22q152 0 224 150q-126 5 -179.5 21.5t-78.5 50.5t-25 88q0 60 23.5 118t63 94t79.5 36q48 0 89.5 -42.5t68 -118.5t26.5 -154v-5h70q10 0 10 -10v-70q0 -10 -10 -10h-40l-42 1q-18 -69 -56 -124.5t-88.5 -86 t-107.5 -30.5zM443 81q-10 60 -34 111t-55.5 79.5t-64.5 28.5q-24 0 -48 -18t-39.5 -46t-15.5 -51q0 -37 29 -59.5t99 -35.5q32 -7 129 -9zM259 550q-27 -40 -70 -80q-48 37 -78 72q23 21 76 79q10 -11 72 -71zM436 567q-26 -39 -70 -80q-46 35 -78 72q21 19 76 79 q10 -11 72 -71z" />
<glyph unicode="&#x6cb;" horiz-adv-x="550" arabic-form="final" d="M227 -250q-39 0 -96 23.5t-91 51.5l17 39q64 -22 143 -22q152 0 224 150q-126 5 -179.5 21.5t-78.5 50.5t-25 88q0 60 23.5 118t63 94t79.5 36q48 0 89.5 -42.5t68 -118.5t26.5 -154v-5h70q10 0 10 -10v-70q0 -10 -10 -10h-40l-42 1q-18 -69 -56 -124.5t-88.5 -86 t-107.5 -30.5zM443 81q-10 60 -34 111t-55.5 79.5t-64.5 28.5q-24 0 -48 -18t-39.5 -46t-15.5 -51q0 -37 29 -59.5t99 -35.5q32 -7 129 -9zM323 682q-47 -50 -68 -65q-43 29 -74 65q26 23 70 72q13 -18 36 -40t36 -32zM235 550q-26 -39 -70 -80q-47 36 -78 72q21 19 76 79 q8 -9 72 -71zM422 567q-26 -39 -70 -80q-46 35 -78 72q21 19 76 79q10 -11 72 -71z" />
<glyph unicode="&#x6cd;" horiz-adv-x="845" d="M452 -340q-101 0 -157 57.5t-56 163.5q0 62 8 100q-42 -20 -119 -64l-37 -21q-11 17 -11 36q0 32 27 51q42 28 170 93l38 -19q-23 -88 -23 -118q0 -86 42.5 -134t120.5 -48t152.5 15t125.5 43.5t70 68.5l-23 13q-186 99 -186 123q0 14 7.5 32.5t18.5 32.5t14 14h2 q97 -19 216 -19q13 0 13 -13v-65q0 -12 -13 -12q-65 0 -138 20l63 -33q42 -22 51.5 -31.5t13 -26t3.5 -34.5q0 -52 -59 -105.5t-151 -86.5t-183 -33z" />
<glyph unicode="&#x6ce;" horiz-adv-x="403" d="M0 -10q-10 0 -10 10v70q0 10 10 10q42 0 101 4.5t108 14.5t79 24q-14 52 -42 129q-22 61 -23 79q0 27 22 54t55 45q5 -34 12.5 -68t14.5 -66.5t12 -63t5 -57.5q0 -38 -41 -120q-50 -30 -135 -47.5t-168 -17.5zM229 588q6 38 28.5 92t39.5 77q12 -1 21.5 -11.5t9.5 -30.5 q0 -9 -5.5 -19.5t-15 -29t-23 -48.5t-29.5 -78q-30 -18 -72 -24q-26 56 -53 109t-62 103l22 5q13 4 24 4q19 0 34 -12t39 -52.5t42 -84.5zM149 -160q-27 -40 -70 -80q-48 37 -78 72q23 21 76 79q10 -11 72 -71zM326 -143q-26 -39 -70 -80q-46 35 -78 72q21 19 76 79 q10 -11 72 -71z" />
<glyph unicode="&#x6ce;" horiz-adv-x="423" d="M314 258q17 0 29 -9q-34 -83 -57 -125q69 -44 148 -44q10 0 10 -10v-70q0 -10 -10 -10q-109 0 -186 69l-9 -14l-10 -12q-7 -8 -44.5 -18.5t-86 -17.5t-98.5 -7q-10 0 -10 10v70q0 10 10 10q156 0 195 27q13 8 27.5 31.5t34.5 62.5l21 38q11 19 36 19zM228 417 q6 38 28.5 92t39.5 77q12 -1 21.5 -11.5t9.5 -30.5q0 -9 -5.5 -19.5t-15 -29t-23 -48.5t-29.5 -78q-30 -18 -72 -24q-26 56 -53 109t-62 103l22 5q13 4 24 4q19 0 34 -12t39 -52.5t42 -84.5zM212 -160q-27 -40 -70 -80q-48 37 -78 72q23 21 76 79q10 -11 72 -71zM389 -143 q-26 -39 -70 -80q-46 35 -78 72q21 19 76 79q10 -11 72 -71z" />
<glyph unicode="&#x6ce;" horiz-adv-x="808" d="M815 -10q-39 0 -93 6t-89 15l106 -57q18 -11 22.5 -28.5t4.5 -40.5q0 -52 -66.5 -105.5t-168 -86.5t-198.5 -33q-121 0 -187 58t-66 163q0 37 4 64.5t19 87.5l43 -10q-13 -50 -13 -84q0 -85 53.5 -133.5t149.5 -48.5q138 0 243.5 34t144.5 93l-23 13q-186 100 -186 123 q0 14 7.5 32.5t18.5 32.5t14 14h2q104 -19 258 -19q13 0 13 -13v-65q0 -12 -13 -12zM570 260q6 38 28.5 92t39.5 77q12 -1 21.5 -11.5t9.5 -30.5q0 -9 -5.5 -19.5t-15 -29t-23 -48.5t-29.5 -78q-30 -18 -72 -24q-26 56 -53 109t-62 103l22 5q13 4 24 4q19 0 34 -12t39 -52.5 t42 -84.5z" />
<glyph unicode="&#x6cf;" horiz-adv-x="550" d="M227 -250q-39 0 -96 23.5t-91 51.5l17 39q64 -22 143 -22q152 0 224 150q-126 5 -179.5 21.5t-78.5 50.5t-25 88q0 60 23.5 118t63 94t79.5 36q48 0 89.5 -42.5t68 -118.5t26.5 -154v-5h70q10 0 10 -10v-70q0 -10 -10 -10h-40l-42 1q-18 -69 -56 -124.5t-88.5 -86 t-107.5 -30.5zM443 81q-10 60 -34 111t-55.5 79.5t-64.5 28.5q-24 0 -48 -18t-39.5 -46t-15.5 -51q0 -37 29 -59.5t99 -35.5q32 -7 129 -9zM361 565q-25 -38 -76 -86q-52 41 -84 77q50 49 82 86q38 -42 78 -77z" />
<glyph unicode="&#x6d0;" horiz-adv-x="808" arabic-form="final" d="M815 -10q-39 0 -93 6t-89 15l106 -57q18 -11 22.5 -28.5t4.5 -40.5q0 -52 -66.5 -105.5t-168 -86.5t-198.5 -33q-121 0 -187 58t-66 163q0 37 4 64.5t19 87.5l43 -10q-13 -50 -13 -84q0 -85 53.5 -133.5t149.5 -48.5q138 0 243.5 34t144.5 93l-23 13q-186 100 -186 123 q0 14 7.5 32.5t18.5 32.5t14 14h2q104 -19 258 -19q13 0 13 -13v-65q0 -12 -13 -12zM589 -589q-19 -28 -49 -56q-40 33 -54 51q22 20 53 55l26 -26zM574 -451q-15 -23 -49 -56q-35 28 -55 50q28 27 54 56q22 -24 50 -50z" />
<glyph unicode="&#x6d1;" horiz-adv-x="808" d="M815 -10q-39 0 -93 6t-89 15l106 -57q18 -11 22.5 -28.5t4.5 -40.5q0 -52 -66.5 -105.5t-168 -86.5t-198.5 -33q-121 0 -187 58t-66 163q0 37 4 64.5t19 87.5l43 -10q-13 -50 -13 -84q0 -85 53.5 -133.5t149.5 -48.5q138 0 243.5 34t144.5 93l-23 13q-186 100 -186 123 q0 14 7.5 32.5t18.5 32.5t14 14h2q104 -19 258 -19q13 0 13 -13v-65q0 -12 -13 -12zM438 -470q-6 -10 -20.5 -27t-28.5 -29q-38 30 -55 50q29 28 53 56q17 -19 51 -50zM569 -458q-15 -23 -49 -56q-35 28 -55 50q26 25 53 56q23 -24 51 -50zM509 -560q-30 -34 -48 -46 q-33 23 -52 46q15 13 49 50q19 -25 51 -50z" />
<glyph unicode="&#x6ee;" horiz-adv-x="557" d="M567 -10q-90 0 -145 62q-105 -62 -238 -62q-71 0 -107.5 19t-36.5 56q0 17 5.5 34t15.5 28q29 -24 67 -35.5t93 -11.5q81 0 163 24q-24 39 -52.5 103t-44 115t-15.5 70q0 29 16.5 49t45.5 29q35 -129 66 -210.5t69 -130.5t98 -49q10 0 10 -10v-70q0 -10 -10 -10zM257 706 q-6 -38 -28.5 -92t-39.5 -77q-12 1 -21.5 11.5t-9.5 30.5q0 9 5.5 19.5t15 29t23 48.5t29.5 78q28 17 72 24q26 -56 53 -109t62 -103l-22 -5q-13 -4 -25 -4q-24 0 -41.5 19.5t-33 45.5t-39.5 84z" />
<glyph unicode="&#x6ef;" horiz-adv-x="458" d="M469 -10q-56 0 -96 29q-19 -121 -90 -195t-169 -74q-26 0 -72.5 20t-81.5 46l16 39q41 -8 63 -10.5t48 -2.5q88 0 151 52.5t96 153.5q-11 27 -21 46.5t-35 61.5q-22 37 -40.5 80t-18.5 73t18.5 48t50.5 34q7 -30 21 -66.5t28 -74.5t25.5 -76t14.5 -71q41 -23 92 -23 q10 0 10 -10v-70q0 -10 -10 -10zM205 639q-6 -38 -28.5 -92t-39.5 -77q-12 1 -21.5 11.5t-9.5 30.5q0 9 5.5 19.5t15 29t23 48.5t29.5 78q28 17 72 24q26 -56 53 -109t62 -103l-22 -5q-13 -4 -25 -4q-24 0 -41.5 19.5t-33 45.5t-39.5 84z" />
<glyph unicode="&#x6fa;" horiz-adv-x="773" d="M266 -10q-33 0 -75.5 10.5t-68.5 25.5q-39 -36 -122 -36q-10 0 -10 10v70q0 10 10 10q33 0 54.5 6t40.5 21q15 12 24.5 24t38.5 61q10 19 36 18q18 0 29 -8q-34 -81 -49 -108q40 -14 105 -14q56 0 92 12q8 13 28 81q14 49 26.5 75t24.5 32.5t25 6.5q16 0 27 -9 q-15 -32 -27.5 -71.5t-23.5 -78.5q53 -24 101 -34.5t106 -10.5q-14 52 -44 129q-23 60 -23 79q0 27 21.5 54t55.5 45q5 -34 13 -68t15.5 -66.5t12.5 -63t5 -57.5q0 -21 -14 -66.5t-31 -78.5q-77 0 -130.5 10t-119.5 41l-10 -19q-9 -13 -47.5 -22t-95.5 -10zM498 -164 q-25 -38 -76 -86q-52 41 -84 77q52 51 82 86q40 -44 78 -77zM407 601q-47 -50 -68 -65q-43 29 -74 65q26 23 70 72q13 -18 36 -40t36 -32zM319 469q-26 -39 -70 -80q-47 36 -78 72q21 19 76 79q8 -9 72 -71zM506 486q-26 -39 -70 -80q-46 35 -78 72q21 19 76 79 q10 -11 72 -71z" />
<glyph unicode="&#x6fa;" horiz-adv-x="779" d="M790 -10q-45 0 -92 18t-75 47l-17 -33q-8 -13 -39.5 -22.5t-64.5 -9.5q-31 0 -53 8t-42 22q-11 -13 -47 -20.5t-94 -9.5q-33 0 -75.5 10.5t-68.5 25.5q-39 -36 -122 -36q-10 0 -10 10v70q0 10 10 10q33 0 54.5 6t40.5 21q15 12 24.5 24t38.5 61q10 19 36 18q18 0 29 -8 q-34 -81 -49 -108q40 -14 105 -14q56 0 92 12q8 13 28 81q14 49 26.5 75t24.5 32.5t25 6.5q16 0 27 -9q-18 -41 -46 -135l-15 -46q19 -9 32.5 -11.5t30.5 -2.5q28 0 65 12q8 14 34 85q24 70 40 98q11 19 36 18q18 0 29 -8q-5 -12 -10.5 -26t-48.5 -141q28 -19 61 -30t80 -11 q10 0 10 -10v-70q0 -10 -10 -10zM407 601q-47 -50 -68 -65q-43 29 -74 65q26 23 70 72q13 -18 36 -40t36 -32zM319 469q-26 -39 -70 -80q-47 36 -78 72q21 19 76 79q8 -9 72 -71zM506 486q-26 -39 -70 -80q-46 35 -78 72q21 19 76 79q10 -11 72 -71zM498 -164 q-25 -38 -76 -86q-52 41 -84 77q52 51 82 86q40 -44 78 -77z" />
<glyph unicode="&#x6fa;" horiz-adv-x="1195" d="M1206 -10q-45 0 -92 18t-75 47l-17 -33q-8 -13 -39 -22.5t-65 -9.5q-31 0 -53 8t-42 22q-11 -13 -47 -20.5t-94 -9.5q-25 0 -55 6q3 -24 3 -48q0 -71 -45 -136.5t-125.5 -108.5t-166.5 -43q-101 0 -157 58t-56 163q0 37 4 64.5t19 87.5l43 -10q-13 -50 -13 -84 q0 -87 43 -134.5t120 -47.5q56 0 116 19t107 53t67 75q-77 169 -77 225q0 62 77 105q4 -41 26 -146q36 -8 83 -8q56 0 92 12q8 13 28 81q14 49 26.5 75t24.5 32.5t25 6.5q16 0 27 -9q-18 -41 -46 -135l-15 -46q19 -9 32.5 -11.5t30.5 -2.5q28 0 65 12q8 14 34 85 q21 60 32 82.5t21.5 28t22.5 5.5q18 0 29 -8q-5 -12 -10.5 -26t-48.5 -141q28 -19 61 -30t80 -11q10 0 10 -10v-70q0 -10 -10 -10zM965 -164q-25 -38 -76 -86q-52 41 -84 77q52 51 82 86q40 -44 78 -77zM874 601q-47 -50 -68 -65q-43 29 -74 65q26 23 70 72q13 -18 36 -40 t36 -32zM786 469q-26 -39 -70 -80q-47 36 -78 72q21 19 76 79q8 -9 72 -71zM973 486q-26 -39 -70 -80q-46 35 -78 72q21 19 76 79q10 -11 72 -71z" />
<glyph unicode="&#x6fb;" horiz-adv-x="924" d="M202 227q17 0 28 -11l-35 -81q26 -13 58 -24q225 299 384 299q37 0 88.5 -30.5t85.5 -71t34 -69.5q0 -72 -45.5 -127t-138.5 -88.5t-195 -33.5q-88 0 -177 19t-140 48l-10 -13q-23 -29 -57.5 -41.5t-81.5 -12.5q-10 0 -10 10v70q0 10 10 10q41 0 66.5 10.5t43.5 30.5 t55 85q13 21 37 21zM608 312q-56 0 -134 -55t-166 -160q78 -17 170 -17q154 0 314 100q-33 60 -84 96t-100 36zM646 -164q-25 -38 -76 -86q-52 41 -84 77q52 51 82 86q40 -44 78 -77zM511 543q-25 -38 -76 -86q-52 41 -84 77q50 49 82 86q38 -42 78 -77z" />
<glyph unicode="&#x6fb;" horiz-adv-x="915" d="M925 -10q-50 0 -99 20t-81 54q-51 -34 -127.5 -54t-151.5 -20q-88 0 -177 19t-140 48l-10 -13q-23 -29 -57.5 -41.5t-81.5 -12.5q-10 0 -10 10v70q0 10 10 10q41 0 66.5 10.5t43.5 30.5t55 85q13 21 37 21q17 0 28 -11l-35 -81q26 -13 58 -24q225 299 384 299 q37 0 88.5 -30.5t85.5 -71t34 -69.5q0 -73 -46 -127q54 -32 126 -32q10 0 10 -10v-70q0 -10 -10 -10zM608 312q-56 0 -134 -55t-166 -160q78 -17 170 -17q154 0 314 100q-33 60 -84 96t-100 36zM646 -164q-25 -38 -76 -86q-52 41 -84 77q52 51 82 86q40 -44 78 -77zM516 543 q-25 -38 -76 -86q-52 41 -84 77q50 49 82 86q38 -42 78 -77z" />
<glyph unicode="&#x6fb;" horiz-adv-x="1292" d="M293 -340q-101 0 -157 58t-56 163q0 37 4 64.5t19 87.5l43 -10q-13 -50 -13 -84q0 -87 43 -134.5t120 -47.5q56 0 116 19t107 53t67 75q-77 169 -77 225q0 62 77 105q8 -62 18 -110q6 -3 33 -13q108 146 206 222.5t178 76.5q36 0 87.5 -30t86 -70.5t34.5 -70.5 q0 -75 -47 -130q50 -29 121 -29q10 0 10 -10v-70q0 -10 -10 -10q-49 0 -97 19t-81 52q-50 -32 -124.5 -51.5t-150.5 -19.5q-48 0 -113.5 8t-112.5 22q6 -43 6 -72q0 -71 -45 -136.5t-125.5 -108.5t-166.5 -43zM992 312q-56 0 -134.5 -55.5t-166.5 -159.5q82 -17 171 -17 q82 0 159 25.5t155 74.5q-33 60 -84.5 96t-99.5 36zM1054 -164q-25 -38 -76 -86q-52 41 -84 77q52 51 82 86q40 -44 78 -77zM911 543q-25 -38 -76 -86q-52 41 -84 77q50 49 82 86q38 -42 78 -77z" />
<glyph unicode="&#x6fc;" horiz-adv-x="594" d="M0 -10q-10 0 -10 10v70q0 10 10 10q82 0 146 3q-32 22 -51 53t-19 66q0 52 28.5 107.5t71 88t88.5 32.5q40 0 76 -19t89 -65l-21 -37q-47 18 -67.5 22.5t-46.5 4.5q-73 0 -151 -43q0 -50 24 -91.5t70 -66.5t110 -30q83 16 201 64q16 -15 16 -42l-1 -12q-7 -39 -49 -50 q-145 -36 -215 -48.5t-143 -19.5t-156 -7zM407 -164q-25 -38 -76 -86q-52 41 -84 77q52 51 82 86q40 -44 78 -77zM247 570q-25 -38 -76 -86q-52 41 -84 77q50 49 82 86q38 -42 78 -77z" />
<glyph unicode="&#x6fc;" horiz-adv-x="486" d="M495 -10q-76 0 -133.5 15t-103.5 49q-64 -35 -125 -49.5t-132 -14.5q-11 0 -11 11v68q0 11 11 11q130 0 202 28q-17 20 -31.5 40.5t-29 40.5t-31 39.5t-36.5 35.5l-18 -12q-22 24 -22 53q0 41 40 67.5t90.5 42t99.5 15.5q76 0 126.5 -42t50.5 -105q0 -48 -27 -95t-79 -87 q50 -21 159 -21q12 0 12 -11v-68q0 -11 -12 -11zM269 333q-73 0 -138 -35q38 -31 77 -78q47 -58 64 -75q40 26 63 55.5t23 57.5q0 33 -24.5 54t-64.5 21zM342 -164q-25 -38 -76 -86q-52 41 -84 77q52 51 82 86q40 -44 78 -77zM316 593q-25 -38 -76 -86q-52 41 -84 77 q50 49 82 86q38 -42 78 -77z" />
<glyph unicode="&#x6fc;" horiz-adv-x="532" d="M540 -10q-81 0 -140 16t-102 52q-128 -86 -128 -203q0 -86 69.5 -140.5t180.5 -54.5q62 0 106.5 6t121.5 24l13 -40q-79 -43 -112.5 -57t-66 -22t-65.5 -8q-81 0 -147 37.5t-104 104.5t-38 148q0 71 33.5 134.5t93.5 111.5q-19 21 -34 43t-30.5 43.5t-32.5 41.5t-38 37 l-18 -12q-22 24 -22 53q0 42 42 69t90 41.5t98 14.5q76 0 126.5 -42t50.5 -105q0 -102 -114 -179q52 -24 167 -24q12 0 12 -11v-68q0 -11 -12 -11zM314 333q-39 0 -71.5 -8.5t-66.5 -26.5q25 -20 43.5 -40t34.5 -39.5t31 -38.5t34 -37q84 62 84 115q0 33 -24.5 54t-64.5 21z M491 -163q-25 -38 -76 -86q-52 41 -84 77q52 51 82 86q40 -44 78 -77zM351 593q-25 -38 -76 -86q-52 41 -84 77q50 49 82 86q38 -42 78 -77z" />
<glyph unicode="&#x6ff;" horiz-adv-x="597" d="M0 -10q-10 0 -10 10v72q0 8 10 8q77 0 135 15q-73 62 -73 139q0 34 13.5 73.5t37.5 70t53 45.5l27 77q100 -29 179 -86.5t122 -132.5t43 -154q0 -55 -60 -158q-152 18 -261 73q-47 -28 -99.5 -40t-116.5 -12zM104 235q52 -57 119 -98q59 46 59 125q0 33 -21.5 62.5 t-47.5 29.5q-19 0 -41.5 -15.5t-40 -42t-27.5 -61.5zM351 259q0 -89 -60 -156q80 -35 183 -48q0 76 -40.5 157.5t-107.5 138.5q25 -43 25 -92zM200 725q-6 -38 -28.5 -92t-39.5 -77q-12 1 -21.5 11.5t-9.5 30.5q0 9 5.5 19.5t15 29t23 48.5t29.5 78q28 17 72 24 q26 -56 53 -109t62 -103l-22 -5q-13 -4 -25 -4q-24 0 -41.5 19.5t-33 45.5t-39.5 84z" />
<glyph unicode="&#x6ff;" horiz-adv-x="458" d="M382 -17q32 -17 49.5 -39.5t17.5 -44.5q0 -18 -16 -60.5t-24 -51.5q-12 -15 -41.5 -26t-57.5 -11q-91 0 -149 54.5t-73 154.5l-45 -19l-12 51l-12 -1h-9q-10 0 -10 10v70q0 10 10 10q36 0 77 3q22 217 220 405l42 -12q4 -54 21 -139q15 -76 15 -112q0 -93 -96 -154 q74 9 176 9q13 0 13 -12v-65q0 -13 -13 -13q-49 0 -83 -7zM281 370q-48 -68 -70.5 -112t-36.5 -89.5t-16 -90.5q87 11 159 70l-10 60q-22 110 -26 162zM211 -10q-17 0 -46 -7q16 -71 56 -110.5t99 -39.5q21 0 43.5 8.5t34.5 22.5q-9 32 -38 62t-68.5 47t-80.5 17zM262 725 q-6 -38 -28.5 -92t-39.5 -77q-12 1 -21.5 11.5t-9.5 30.5q0 9 5.5 19.5t15 29t23 48.5t29.5 78q28 17 72 24q26 -56 53 -109t62 -103l-22 -5q-13 -4 -25 -4q-24 0 -41.5 19.5t-33 45.5t-39.5 84z" />
<glyph unicode="&#x6ff;" horiz-adv-x="567" d="M478 230q0 -83 -56 -137.5t-166 -82.5q17 -89 92 -170q9 60 21.5 95.5t31.5 60t46 45t58.5 30t69.5 9.5q13 0 13 -12v-65q0 -13 -13 -13q-59 0 -88 -4t-49 -12q-17 -39 -21.5 -86t-4.5 -101l-83 -54q-67 51 -108.5 118.5t-49.5 142.5q-32 -5 -65 -10t-69 -17l-17 35 q55 48 152 73q9 106 62 203t167 211l41 -13q3 -46 21 -127q15 -68 15 -119zM374 370q-66 -95 -92 -159.5t-29 -125.5q48 6 85 20.5t76 41.5l-11 60q-15 67 -21 99.5t-8 63.5zM358 725q-6 -38 -28.5 -92t-39.5 -77q-12 1 -21.5 11.5t-9.5 30.5q0 9 5.5 19.5t15 29t23 48.5 t29.5 78q28 17 72 24q26 -56 53 -109t62 -103l-22 -5q-13 -4 -25 -4q-24 0 -41.5 19.5t-33 45.5t-39.5 84z" />
<glyph unicode="&#x671;" horiz-adv-x="297" arabic-form="final" d="M169 714q8 -184 11 -394q2 -130 5 -210q54 -30 123 -30q10 0 10 -10v-70q0 -10 -10 -10q-69 0 -115 28t-52 75q-23 186 -51 555q32 33 79 66zM162 757q-26 0 -50 8t-55 24q-25 -12 -45 -32l-18 15q21 33 39 50t39 17q5 0 23 -8q23 35 48 55t56 20q23 0 40 -22.5t17 -55.5 q0 -18 -11 -45q-27 -18 -43 -22t-40 -4zM189 856q-31 0 -69 -35q21 -10 42 -10q30 0 40.5 2t31.5 11q-17 32 -45 32z" />
<glyph unicode="&#x67b;" horiz-adv-x="993" arabic-form="isolated" d="M598 -367q-27 -40 -70 -80q-49 38 -78 72q26 23 76 79q10 -11 72 -71zM576 -170q-26 -38 -70 -80q-48 37 -78 72q23 21 76 79q20 -21 37.5 -37.5t34.5 -33.5zM367 -10q-141 0 -214 51.5t-73 149.5q0 77 16 129h42q-1 -5 -2.5 -24t-1.5 -34q0 -69 27.5 -107.5t84.5 -56.5 t146 -18q108 0 212.5 22t187.5 61q-14 52 -42 129q-22 61 -23 79q0 27 21.5 54t55.5 45q5 -34 12.5 -68t14.5 -66.5t12 -63t5 -57.5q0 -38 -41 -120q-82 -52 -193.5 -78.5t-246.5 -26.5z" />
<glyph unicode="&#x67b;" horiz-adv-x="1093" arabic-form="final" d="M1011 -10q-120 0 -201 83q-73 -40 -177 -61.5t-226 -21.5q-141 0 -214 51.5t-73 149.5q0 77 16 129h42q-1 -5 -2.5 -24t-1.5 -34q0 -69 27.5 -107.5t84.5 -56.5t146 -18q62 0 138.5 10.5t135.5 26t79.5 31t38.5 48.5l17 30q11 19 36 19q17 0 29 -9q-32 -80 -49 -108 q68 -48 154 -48q10 0 10 -10v-70q0 -10 -10 -10zM463 -212q-21 0 -35.5 14.5t-14.5 34.5t14.5 35t35.5 15q20 0 34.5 -15t14.5 -35t-14.5 -34.5t-34.5 -14.5zM464 -341q-21 0 -35.5 14.5t-14.5 34.5t14.5 35t35.5 15q20 0 34.5 -15t14.5 -35t-14.5 -34.5t-34.5 -14.5z" />
<glyph unicode="&#x67b;" horiz-adv-x="269" arabic-form="initial" d="M0 -10q-10 0 -10 10v70q0 10 10 10q52 0 109 11.5t99 31.5q-14 52 -42 129q-22 61 -23 79q0 27 21.5 54t55.5 45q5 -34 12.5 -68t14.5 -66.5t12 -63t5 -57.5q0 -38 -41 -120q-109 -65 -223 -65zM107 -192q-21 0 -35.5 14.5t-14.5 34.5t14.5 35t35.5 15q20 0 34.5 -15 t14.5 -35t-14.5 -34.5t-34.5 -14.5zM108 -321q-21 0 -35.5 14.5t-14.5 34.5t14.5 35t35.5 15q20 0 34.5 -15t14.5 -35t-14.5 -34.5t-34.5 -14.5z" />
<glyph unicode="&#x67b;" horiz-adv-x="343" arabic-form="medial" d="M0 -10q-10 0 -10 10v70q0 10 10 10q50 0 82.5 11t49 32t45.5 78l21 38q10 19 36 19q18 0 29 -9q-33 -79 -57 -125q69 -44 148 -44q10 0 10 -10v-70q0 -10 -10 -10q-109 0 -186 69l-9 -14l-10 -12q-7 -9 -31 -19.5t-55 -17t-63 -6.5zM170 -192q-21 0 -35.5 14.5 t-14.5 34.5t14.5 35t35.5 15q20 0 34.5 -15t14.5 -35t-14.5 -34.5t-34.5 -14.5zM171 -321q-21 0 -35.5 14.5t-14.5 34.5t14.5 35t35.5 15q20 0 34.5 -15t14.5 -35t-14.5 -34.5t-34.5 -14.5z" />
<glyph unicode="&#x67e;" horiz-adv-x="960" arabic-form="final" d="M971 -10q-120 0 -201 83q-73 -40 -177 -61.5t-226 -21.5q-141 0 -214 51.5t-73 149.5q0 77 16 129h42q-1 -5 -2.5 -24t-1.5 -34q0 -69 27.5 -107.5t84.5 -56.5t146 -18q62 0 138.5 10.5t135.5 26t79.5 31t38.5 48.5l17 30q11 19 36 19q17 0 29 -9q-32 -80 -49 -108 q68 -48 154 -48q10 0 10 -10v-70q0 -10 -10 -10zM508 -161q-27 -40 -70 -80q-47 36 -78 72q32 29 76 79q20 -21 37.5 -37.5t34.5 -33.5zM695 -144q-27 -40 -70 -80q-49 38 -78 72q34 31 76 79q10 -11 72 -71zM609 -290q-47 -50 -68 -65q-43 29 -74 65q24 21 70 72 q28 -36 72 -72z" />
<glyph unicode="&#x67e;" horiz-adv-x="420" arabic-form="initial" d="M0 -10q-10 0 -10 10v70q0 10 10 10q42 0 101 4.5t108 14.5t79 24q-14 52 -42 129q-22 61 -23 79q0 27 22 54t55 45q5 -34 12.5 -68t14.5 -66.5t12 -63t5 -57.5q0 -38 -41 -120q-50 -30 -135 -47.5t-168 -17.5zM174 -161q-27 -40 -70 -80q-47 36 -78 72q32 29 76 79 q20 -21 37.5 -37.5t34.5 -33.5zM361 -144q-27 -40 -70 -80q-49 38 -78 72q34 31 76 79q10 -11 72 -71zM275 -290q-47 -50 -68 -65q-43 29 -74 65q24 21 70 72q28 -36 72 -72z" />
<glyph unicode="&#x67e;" horiz-adv-x="423" arabic-form="medial" d="M314 258q17 0 29 -9q-34 -83 -57 -125q69 -44 148 -44q10 0 10 -10v-70q0 -10 -10 -10q-109 0 -186 69l-9 -14l-10 -12q-7 -8 -44.5 -18.5t-86 -17.5t-98.5 -7q-10 0 -10 10v70q0 10 10 10q156 0 195 27q13 8 27.5 31.5t34.5 62.5l21 38q11 19 36 19zM207 -161 q-27 -40 -70 -80q-47 36 -78 72q32 29 76 79q20 -21 37.5 -37.5t34.5 -33.5zM394 -144q-27 -40 -70 -80q-49 38 -78 72q34 31 76 79q10 -11 72 -71zM308 -290q-47 -50 -68 -65q-43 29 -74 65q24 21 70 72q28 -36 72 -72z" />
<glyph unicode="&#x680;" horiz-adv-x="993" arabic-form="isolated" d="M549 -367q-25 -37 -70 -80q-47 36 -78 72q21 19 76 79q10 -11 72 -71zM726 -350q-27 -40 -70 -80q-47 36 -78 72q23 21 76 79q20 -21 37.5 -37.5t34.5 -33.5zM519 -177q-27 -40 -70 -80q-48 37 -78 72q23 21 76 79q10 -11 72 -71zM696 -160q-26 -39 -70 -80 q-46 35 -78 72q21 19 76 79q10 -11 72 -71zM367 -10q-141 0 -214 51.5t-73 149.5q0 77 16 129h42q-1 -5 -2.5 -24t-1.5 -34q0 -69 27.5 -107.5t84.5 -56.5t146 -18q108 0 212.5 22t187.5 61q-14 52 -42 129q-22 61 -23 79q0 27 21.5 54t55.5 45q5 -34 12.5 -68t14.5 -66.5 t12 -63t5 -57.5q0 -38 -41 -120q-82 -52 -193.5 -78.5t-246.5 -26.5z" />
<glyph unicode="&#x680;" horiz-adv-x="1093" arabic-form="final" d="M1011 -10q-120 0 -201 83q-73 -40 -177 -61.5t-226 -21.5q-141 0 -214 51.5t-73 149.5q0 77 16 129h42q-1 -5 -2.5 -24t-1.5 -34q0 -69 27.5 -107.5t84.5 -56.5t146 -18q62 0 138.5 10.5t135.5 26t79.5 31t38.5 48.5l17 30q11 19 36 19q17 0 29 -9q-32 -80 -49 -108 q68 -48 154 -48q10 0 10 -10v-70q0 -10 -10 -10zM535 -212q-21 0 -35.5 14.5t-14.5 34.5t14.5 35t35.5 15q20 0 34.5 -15t14.5 -35t-14.5 -34.5t-34.5 -14.5zM399 -212q-21 0 -35.5 14.5t-14.5 34.5t14.5 35t35.5 15q20 0 34.5 -15t14.5 -35t-14.5 -34.5t-34.5 -14.5z M535 -337q-21 0 -35.5 14.5t-14.5 34.5t14.5 35t35.5 15q20 0 34.5 -15t14.5 -35t-14.5 -34.5t-34.5 -14.5zM399 -337q-21 0 -35.5 14.5t-14.5 34.5t14.5 35t35.5 15q20 0 34.5 -15t14.5 -35t-14.5 -34.5t-34.5 -14.5z" />
<glyph unicode="&#x680;" horiz-adv-x="299" arabic-form="initial" d="M0 -5l10 82q59 0 92 4.5t47 23t14 58.5q0 38 -17.5 95.5t-39.5 114.5l81 30q13 -32 24.5 -73t19.5 -81t8 -70q0 -100 -56 -142t-183 -42zM185 -192q-21 0 -35.5 14.5t-14.5 34.5t14.5 35t35.5 15q20 0 34.5 -15t14.5 -35t-14.5 -34.5t-34.5 -14.5zM49 -192 q-21 0 -35.5 14.5t-14.5 34.5t14.5 35t35.5 15q20 0 34.5 -15t14.5 -35t-14.5 -34.5t-34.5 -14.5zM185 -317q-21 0 -35.5 14.5t-14.5 34.5t14.5 35t35.5 15q20 0 34.5 -15t14.5 -35t-14.5 -34.5t-34.5 -14.5zM49 -317q-21 0 -35.5 14.5t-14.5 34.5t14.5 35t35.5 15 q20 0 34.5 -15t14.5 -35t-14.5 -34.5t-34.5 -14.5z" />
<glyph unicode="&#x680;" horiz-adv-x="373" arabic-form="medial" d="M0 -5l10 82q50 0 78 7.5t42.5 29t23.5 62.5t22 107l78 -15q-6 -27 -13.5 -62t-7.5 -59q0 -15 2 -28t15 -22t44 -14.5t89 -5.5q21 0 30.5 -11.5t9.5 -27.5t-14 -29.5t-36 -13.5q-65 0 -101.5 7.5t-54 22t-25.5 36.5q-29 -41 -71.5 -53.5t-120.5 -12.5zM252 -192 q-21 0 -35.5 14.5t-14.5 34.5t14.5 35t35.5 15q20 0 34.5 -15t14.5 -35t-14.5 -34.5t-34.5 -14.5zM116 -192q-21 0 -35.5 14.5t-14.5 34.5t14.5 35t35.5 15q20 0 34.5 -15t14.5 -35t-14.5 -34.5t-34.5 -14.5zM252 -317q-21 0 -35.5 14.5t-14.5 34.5t14.5 35t35.5 15 q20 0 34.5 -15t14.5 -35t-14.5 -34.5t-34.5 -14.5zM116 -317q-21 0 -35.5 14.5t-14.5 34.5t14.5 35t35.5 15q20 0 34.5 -15t14.5 -35t-14.5 -34.5t-34.5 -14.5z" />
<glyph unicode="&#x67a;" horiz-adv-x="993" arabic-form="isolated" d="M507 431q-27 -40 -70 -80q-48 37 -78 72q23 21 76 79q10 -11 72 -71zM485 628q-27 -40 -70 -80q-49 38 -78 72q26 23 76 79q10 -11 72 -71zM367 -10q-141 0 -214 51.5t-73 149.5q0 77 16 129h42q-1 -5 -2.5 -24t-1.5 -34q0 -69 27.5 -107.5t84.5 -56.5t146 -18 q108 0 212.5 22t187.5 61q-14 52 -42 129q-22 61 -23 79q0 27 21.5 54t55.5 45q5 -34 12.5 -68t14.5 -66.5t12 -63t5 -57.5q0 -38 -41 -120q-82 -52 -193.5 -78.5t-246.5 -26.5z" />
<glyph unicode="&#x67a;" horiz-adv-x="1093" arabic-form="final" d="M1011 -10q-120 0 -201 83q-73 -40 -177 -61.5t-226 -21.5q-141 0 -214 51.5t-73 149.5q0 77 16 129h42q-1 -5 -2.5 -24t-1.5 -34q0 -69 27.5 -107.5t84.5 -56.5t146 -18q62 0 138.5 10.5t135.5 26t79.5 31t38.5 48.5l17 30q11 19 36 19q17 0 29 -9q-32 -80 -49 -108 q68 -48 154 -48q10 0 10 -10v-70q0 -10 -10 -10zM487 530q-21 0 -35.5 14.5t-14.5 34.5t14.5 35t35.5 15q20 0 34.5 -15t14.5 -35t-14.5 -34.5t-34.5 -14.5zM488 401q-21 0 -35.5 14.5t-14.5 34.5t14.5 35t35.5 15q20 0 34.5 -15t14.5 -35t-14.5 -34.5t-34.5 -14.5z" />
<glyph unicode="&#x67a;" horiz-adv-x="269" arabic-form="initial" d="M0 -10q-10 0 -10 10v70q0 10 10 10q52 0 109 11.5t99 31.5q-14 52 -42 129q-22 61 -23 79q0 27 21.5 54t55.5 45q5 -34 12.5 -68t14.5 -66.5t12 -63t5 -57.5q0 -38 -41 -120q-109 -65 -223 -65zM127 636q-21 0 -35.5 14.5t-14.5 34.5t14.5 35t35.5 15q20 0 34.5 -15 t14.5 -35t-14.5 -34.5t-34.5 -14.5zM128 507q-21 0 -35.5 14.5t-14.5 34.5t14.5 35t35.5 15q20 0 34.5 -15t14.5 -35t-14.5 -34.5t-34.5 -14.5z" />
<glyph unicode="&#x67a;" horiz-adv-x="343" arabic-form="medial" d="M0 -10q-10 0 -10 10v70q0 10 10 10q50 0 82.5 11t49 32t45.5 78l21 38q10 19 36 19q18 0 29 -9q-33 -79 -57 -125q69 -44 148 -44q10 0 10 -10v-70q0 -10 -10 -10q-109 0 -186 69l-9 -14l-10 -12q-7 -9 -31 -19.5t-55 -17t-63 -6.5zM186 515q-21 0 -35.5 14.5t-14.5 34.5 t14.5 35t35.5 15q20 0 34.5 -15t14.5 -35t-14.5 -34.5t-34.5 -14.5zM187 386q-21 0 -35.5 14.5t-14.5 34.5t14.5 35t35.5 15q20 0 34.5 -15t14.5 -35t-14.5 -34.5t-34.5 -14.5z" />
<glyph unicode="&#x67f;" horiz-adv-x="993" arabic-form="isolated" d="M367 -10q-141 0 -214 51.5t-73 149.5q0 77 16 129h42q-1 -5 -2.5 -24t-1.5 -34q0 -69 27.5 -107.5t84.5 -56.5t146 -18q108 0 212.5 22t187.5 61q-14 52 -42 129q-22 61 -23 79q0 27 21.5 54t55.5 45q5 -34 12.5 -68t14.5 -66.5t12 -63t5 -57.5q0 -38 -41 -120 q-82 -52 -193.5 -78.5t-246.5 -26.5zM445 384q-27 -40 -70 -80q-48 37 -78 72q23 21 76 79q10 -11 72 -71zM622 401q-26 -39 -70 -80q-46 35 -78 72q21 19 76 79q10 -11 72 -71zM415 574q-26 -39 -70 -80q-47 36 -78 72q21 19 76 79q8 -9 72 -71zM592 591q-26 -38 -70 -80 q-48 37 -78 72q23 21 76 79l37 -38z" />
<glyph unicode="&#x67f;" horiz-adv-x="1093" arabic-form="final" d="M1011 -10q-120 0 -201 83q-73 -40 -177 -61.5t-226 -21.5q-141 0 -214 51.5t-73 149.5q0 77 16 129h42q-1 -5 -2.5 -24t-1.5 -34q0 -69 27.5 -107.5t84.5 -56.5t146 -18q62 0 138.5 10.5t135.5 26t79.5 31t38.5 48.5l17 30q11 19 36 19q17 0 29 -9q-32 -80 -49 -108 q68 -48 154 -48q10 0 10 -10v-70q0 -10 -10 -10zM422 526q-21 0 -35.5 14.5t-14.5 34.5t14.5 35t35.5 15q20 0 34.5 -15t14.5 -35t-14.5 -34.5t-34.5 -14.5zM558 526q-21 0 -35.5 14.5t-14.5 34.5t14.5 35t35.5 15q20 0 34.5 -15t14.5 -35t-14.5 -34.5t-34.5 -14.5zM422 401 q-21 0 -35.5 14.5t-14.5 34.5t14.5 35t35.5 15q20 0 34.5 -15t14.5 -35t-14.5 -34.5t-34.5 -14.5zM558 401q-21 0 -35.5 14.5t-14.5 34.5t14.5 35t35.5 15q20 0 34.5 -15t14.5 -35t-14.5 -34.5t-34.5 -14.5z" />
<glyph unicode="&#x67f;" horiz-adv-x="299" arabic-form="initial" d="M82 632q-21 0 -35.5 14.5t-14.5 34.5t14.5 35t35.5 15q20 0 34.5 -15t14.5 -35t-14.5 -34.5t-34.5 -14.5zM218 632q-21 0 -35.5 14.5t-14.5 34.5t14.5 35t35.5 15q20 0 34.5 -15t14.5 -35t-14.5 -34.5t-34.5 -14.5zM82 507q-21 0 -35.5 14.5t-14.5 34.5t14.5 35t35.5 15 q20 0 34.5 -15t14.5 -35t-14.5 -34.5t-34.5 -14.5zM218 507q-21 0 -35.5 14.5t-14.5 34.5t14.5 35t35.5 15q20 0 34.5 -15t14.5 -35t-14.5 -34.5t-34.5 -14.5zM0 -5l10 82q59 0 92 4.5t47 23t14 58.5q0 38 -17.5 95.5t-39.5 114.5l81 30q13 -32 24.5 -73t19.5 -81t8 -70 q0 -100 -56 -142t-183 -42z" />
<glyph unicode="&#x67f;" horiz-adv-x="373" arabic-form="medial" d="M131 511q-21 0 -35.5 14.5t-14.5 34.5t14.5 35t35.5 15q20 0 34.5 -15t14.5 -35t-14.5 -34.5t-34.5 -14.5zM267 511q-21 0 -35.5 14.5t-14.5 34.5t14.5 35t35.5 15q20 0 34.5 -15t14.5 -35t-14.5 -34.5t-34.5 -14.5zM131 386q-21 0 -35.5 14.5t-14.5 34.5t14.5 35 t35.5 15q20 0 34.5 -15t14.5 -35t-14.5 -34.5t-34.5 -14.5zM267 386q-21 0 -35.5 14.5t-14.5 34.5t14.5 35t35.5 15q20 0 34.5 -15t14.5 -35t-14.5 -34.5t-34.5 -14.5zM0 -5l10 82q50 0 78 7.5t42.5 29t23.5 62.5t22 107l78 -15q-6 -27 -13.5 -62t-7.5 -59q0 -15 2 -28 t15 -22t44 -14.5t89 -5.5q21 0 30.5 -11.5t9.5 -27.5t-14 -29.5t-36 -13.5q-65 0 -101.5 7.5t-54 22t-25.5 36.5q-29 -41 -71.5 -53.5t-120.5 -12.5z" />
<glyph unicode="&#x679;" horiz-adv-x="960" arabic-form="final" d="M971 -10q-120 0 -201 83q-73 -40 -177 -61.5t-226 -21.5q-141 0 -214 51.5t-73 149.5q0 77 16 129h42q-1 -5 -2.5 -24t-1.5 -34q0 -69 27.5 -107.5t84.5 -56.5t146 -18q62 0 138.5 10.5t135.5 26t79.5 31t38.5 48.5l17 30q11 19 36 19q17 0 29 -9q-32 -80 -49 -108 q68 -48 154 -48q10 0 10 -10v-70q0 -10 -10 -10zM290 342l65 -11q13 21 30 39l-25 123q-11 54 -11 64q0 13 18.5 24t42.5 16l17 -51l-12 -9q2 -28 3 -61.5t2 -67.5q30 29 58 45t46 16q20 0 44.5 -17t42 -42.5t17.5 -41.5q0 -33 -22.5 -61t-61 -44t-76.5 -16q-32 0 -61.5 6 t-56 16.5t-69.5 35.5zM516 396q-25 0 -57 -18.5t-61 -50.5q35 -4 73 -4q39 0 65 6t59 20q-10 19 -33.5 33t-45.5 14z" />
<glyph unicode="&#x679;" horiz-adv-x="403" arabic-form="initial" d="M1 -10q-10 0 -10 10v70q0 10 10 10q52 0 109 11.5t99 31.5q-14 52 -42 129q-22 61 -23 79q0 27 21.5 54t55.5 45q5 -34 12.5 -68t14.5 -66.5t12 -63t5 -57.5q0 -38 -41 -120q-109 -65 -223 -65zM-33 614l65 -11q13 21 30 39l-25 123q-11 54 -11 64q0 13 18.5 24t42.5 16 l17 -51l-12 -9q2 -28 3 -61.5t2 -67.5q30 29 58 45t46 16q20 0 44.5 -17t42 -42.5t17.5 -41.5q0 -33 -22.5 -61t-61 -44t-76.5 -16q-32 0 -61.5 6t-56 16.5t-69.5 35.5zM193 668q-25 0 -57 -18.5t-61 -50.5q35 -4 73 -4q39 0 65 6t59 20q-10 19 -33.5 33t-45.5 14z" />
<glyph unicode="&#x679;" horiz-adv-x="423" arabic-form="medial" d="M314 258q17 0 29 -9q-34 -83 -57 -125q69 -44 148 -44q10 0 10 -10v-70q0 -10 -10 -10q-109 0 -186 69l-9 -14l-10 -12q-7 -8 -44.5 -18.5t-86 -17.5t-98.5 -7q-10 0 -10 10v70q0 10 10 10q156 0 195 27q13 8 27.5 31.5t34.5 62.5l21 38q11 19 36 19zM22 427l65 -11 q13 21 30 39l-25 123q-11 54 -11 64q0 13 18.5 24t42.5 16l17 -51l-12 -9q2 -28 3 -61.5t2 -67.5q30 29 58 45t46 16q20 0 44.5 -17t42 -42.5t17.5 -41.5q0 -33 -22.5 -61t-61 -44t-76.5 -16q-32 0 -61.5 6t-56 16.5t-69.5 35.5zM248 481q-25 0 -57 -18.5t-61 -50.5 q35 -4 73 -4q39 0 65 6t59 20q-10 19 -33.5 33t-45.5 14z" />
<glyph unicode="&#x6a4;" horiz-adv-x="998" arabic-form="isolated" d="M377 -10q-297 0 -297 201q0 77 16 129h42q-4 -33 -4 -58q0 -72 28 -109.5t88.5 -55t151.5 -17.5q117 0 258.5 23.5t221.5 59.5q-7 56 -16 92q-83 -64 -167 -64q-51 0 -84 38t-33 99q0 58 20 111.5t53.5 85t72.5 31.5q59 0 106.5 -42.5t75.5 -123t28 -175.5 q0 -38 -41 -120q-78 -49 -221 -77t-299 -28zM727 280q58 0 124 29q-51 147 -141 147q-35 0 -59 -32t-24 -73q0 -37 24 -54t76 -17zM772 856q-47 -50 -68 -65q-43 29 -74 65q26 23 70 72q13 -18 36 -40t36 -32zM684 724q-26 -39 -70 -80q-47 36 -78 72q21 19 76 79 q8 -9 72 -71zM871 741q-26 -39 -70 -80q-46 35 -78 72q21 19 76 79q10 -11 72 -71z" />
<glyph unicode="&#x6a4;" horiz-adv-x="961" arabic-form="final" d="M972 -10q-146 0 -242 47q-62 -22 -153.5 -34.5t-199.5 -12.5q-297 0 -297 201q0 77 16 129h42q-4 -33 -4 -58q0 -72 28 -109.5t88.5 -55t151.5 -17.5q112 0 211 20q-47 50 -47 105q0 23 6.5 65t14.5 58q33 59 82.5 90.5t103.5 31.5q31 0 59.5 -30t46 -80.5t17.5 -100.5 q0 -85 -68 -146q62 -13 144 -13q10 0 10 -10v-70q0 -10 -10 -10zM610 216q45 -53 109 -86q79 29 131 73q-3 30 -19 65t-36 58.5t-33 23.5q-33 0 -79 -40t-73 -94zM804 717q-47 -50 -68 -65q-43 29 -74 65q26 23 70 72q13 -18 36 -40t36 -32zM716 585q-26 -39 -70 -80 q-47 36 -78 72q21 19 76 79q8 -9 72 -71zM903 602q-26 -39 -70 -80q-46 35 -78 72q21 19 76 79q10 -11 72 -71z" />
<glyph unicode="&#x6a4;" horiz-adv-x="494" arabic-form="initial" d="M378 143q-6 52 -16 92q-83 -64 -167 -64q-51 0 -84 38.5t-33 98.5q0 58 20 111.5t54 85t72 31.5q60 0 107 -43.5t75 -123t28 -174.5q0 -38 -41 -120q-71 -44 -160 -64.5t-232 -20.5q-11 0 -11 11v68q0 11 11 11q130 0 217.5 15.5t159.5 47.5zM223 260q58 0 124 29 q-51 147 -141 147q-35 0 -59 -32t-24 -73q0 -37 24 -54t76 -17zM259 803q-47 -50 -68 -65q-43 29 -74 65q26 23 70 72q13 -18 36 -40t36 -32zM171 671q-26 -39 -70 -80q-47 36 -78 72q21 19 76 79q8 -9 72 -71zM358 688q-26 -39 -70 -80q-46 35 -78 72q21 19 76 79 q10 -11 72 -71z" />
<glyph unicode="&#x6a4;" horiz-adv-x="455" arabic-form="medial" d="M102 84q-43 48 -43 101q0 30 6.5 69t14.5 54q33 59 82.5 90.5t103.5 31.5q31 0 59.5 -30.5t46 -80t17.5 -100.5q0 -76 -50 -133q44 -6 126 -6q10 0 10 -10v-70q0 -10 -10 -10q-150 0 -241 38q-42 -20 -93 -29t-130 -9q-11 0 -11 11v68q0 11 11 11q68 0 101 4zM103 196 q49 -57 121 -85q67 26 119 72q-3 30 -19 65t-36 58.5t-33 23.5q-34 0 -80 -40.5t-72 -93.5zM288 705q-47 -50 -68 -65q-43 29 -74 65q26 23 70 72q13 -18 36 -40t36 -32zM200 573q-26 -39 -70 -80q-47 36 -78 72q21 19 76 79q8 -9 72 -71zM387 590q-26 -39 -70 -80 q-46 35 -78 72q21 19 76 79q10 -11 72 -71z" />
<glyph unicode="&#x6a6;" horiz-adv-x="983" arabic-form="isolated" d="M377 -10q-297 0 -297 201q0 77 16 129h42q-4 -33 -4 -58q0 -72 28 -109.5t88.5 -55t151.5 -17.5q117 0 258.5 23.5t221.5 59.5q-7 56 -16 92q-83 -64 -167 -64q-51 0 -84 38t-33 99q0 58 20 111.5t53.5 85t72.5 31.5q59 0 106.5 -42.5t75.5 -123t28 -175.5 q0 -38 -41 -120q-78 -49 -221 -77t-299 -28zM727 280q58 0 124 29q-51 147 -141 147q-35 0 -59 -32t-24 -73q0 -37 24 -54t76 -17zM670 689q-27 -40 -70 -80q-48 37 -78 72q23 21 76 79q10 -11 72 -71zM847 706q-26 -39 -70 -80q-46 35 -78 72q21 19 76 79q10 -11 72 -71z M640 879q-26 -39 -70 -80q-47 36 -78 72q21 19 76 79q8 -9 72 -71zM817 896q-26 -38 -70 -80q-48 37 -78 72q23 21 76 79l37 -38z" />
<glyph unicode="&#x6a6;" horiz-adv-x="1098" arabic-form="final" d="M972 -10q-146 0 -242 47q-62 -22 -153.5 -34.5t-199.5 -12.5q-297 0 -297 201q0 77 16 129h42q-4 -33 -4 -58q0 -72 28 -109.5t88.5 -55t151.5 -17.5q112 0 211 20q-47 50 -47 105q0 23 6.5 65t14.5 58q33 59 82.5 90.5t103.5 31.5q31 0 59.5 -30t46 -80.5t17.5 -100.5 q0 -85 -68 -146q62 -13 144 -13q10 0 10 -10v-70q0 -10 -10 -10zM610 216q45 -53 109 -86q79 29 131 73q-3 30 -19 65t-36 58.5t-33 23.5q-33 0 -79 -40t-73 -94zM784 643q-21 0 -35.5 14.5t-14.5 34.5t14.5 35t35.5 15q20 0 34.5 -15t14.5 -35t-14.5 -34.5t-34.5 -14.5z M920 643q-21 0 -35.5 14.5t-14.5 34.5t14.5 35t35.5 15q20 0 34.5 -15t14.5 -35t-14.5 -34.5t-34.5 -14.5zM784 518q-21 0 -35.5 14.5t-14.5 34.5t14.5 35t35.5 15q20 0 34.5 -15t14.5 -35t-14.5 -34.5t-34.5 -14.5zM920 518q-21 0 -35.5 14.5t-14.5 34.5t14.5 35t35.5 15 q20 0 34.5 -15t14.5 -35t-14.5 -34.5t-34.5 -14.5z" />
<glyph unicode="&#x6a6;" horiz-adv-x="447" arabic-form="initial" d="M0 -5l10 82q33 0 75.5 0.5t82.5 4t63 11.5q32 11 51.5 28.5t29.5 45.5q-18 -6 -38.5 -8.5t-40.5 -2.5q-76 0 -117.5 36t-41.5 91q0 38 12 76.5t34 70.5t53 51.5t69 19.5q54 0 89.5 -35t53 -91.5t17.5 -119.5q0 -75 -25.5 -128.5t-84.5 -88.5q-31 -18 -77.5 -27.5 t-101.5 -12.5t-113 -3zM153 303q0 -31 20 -49.5t69 -18.5q43 0 82 12v14q0 42 -11 78t-31 58t-48 22q-23 0 -41.5 -17.5t-29 -44.5t-10.5 -54zM157 729q-21 0 -35.5 14.5t-14.5 34.5t14.5 35t35.5 15q20 0 34.5 -15t14.5 -35t-14.5 -34.5t-34.5 -14.5zM293 729 q-21 0 -35.5 14.5t-14.5 34.5t14.5 35t35.5 15q20 0 34.5 -15t14.5 -35t-14.5 -34.5t-34.5 -14.5zM157 604q-21 0 -35.5 14.5t-14.5 34.5t14.5 35t35.5 15q20 0 34.5 -15t14.5 -35t-14.5 -34.5t-34.5 -14.5zM293 604q-21 0 -35.5 14.5t-14.5 34.5t14.5 35t35.5 15 q20 0 34.5 -15t14.5 -35t-14.5 -34.5t-34.5 -14.5z" />
<glyph unicode="&#x6a6;" horiz-adv-x="495" arabic-form="medial" d="M0 -5l10 82q34 0 70.5 1t70.5 5q-24 22 -47 57t-23 85q0 54 25 97t65 68t85 25q49 0 86 -27t57.5 -68.5t20.5 -86.5q0 -47 -19 -84t-51 -65q40 -3 82 -5t73 -2q21 0 30.5 -11.5t9.5 -27.5t-14 -29.5t-36 -13.5q-61 0 -127 9.5t-116 23.5q-16 -6 -33 -11 q-46 -13 -105 -17.5t-114 -4.5zM163 223q0 -39 24 -68.5t54 -47.5q41 18 69 48t28 72q0 23 -11 47.5t-30 41.5t-44 17q-24 0 -44.5 -16t-33 -41.5t-12.5 -52.5zM181 643q-21 0 -35.5 14.5t-14.5 34.5t14.5 35t35.5 15q20 0 34.5 -15t14.5 -35t-14.5 -34.5t-34.5 -14.5z M317 643q-21 0 -35.5 14.5t-14.5 34.5t14.5 35t35.5 15q20 0 34.5 -15t14.5 -35t-14.5 -34.5t-34.5 -14.5zM181 518q-21 0 -35.5 14.5t-14.5 34.5t14.5 35t35.5 15q20 0 34.5 -15t14.5 -35t-14.5 -34.5t-34.5 -14.5zM317 518q-21 0 -35.5 14.5t-14.5 34.5t14.5 35t35.5 15 q20 0 34.5 -15t14.5 -35t-14.5 -34.5t-34.5 -14.5z" />
<glyph unicode="&#x684;" horiz-adv-x="639" arabic-form="isolated" d="M151 -339q-14 36 -23.5 80t-9.5 77q0 93 40.5 170t114.5 132.5t173 83.5q-30 15 -57 30.5t-53 28.5t-53 21t-57 8q-55 0 -101 -29l-28 -17q-7 7 -12 19.5t-5 26.5q0 45 39.5 71.5t102.5 26.5q46 0 93 -14.5t100 -44.5q102 -57 148.5 -74t102.5 -24.5t123 -10.5l-45 -87 q-86 10 -130 17q-74 -2 -157 -31.5t-145.5 -75t-97 -104t-34.5 -123.5q0 -30 6 -60.5t23 -75.5zM530 -268q-27 -40 -70 -80q-49 38 -78 72q26 23 76 79q10 -11 72 -71zM508 -71q-26 -38 -70 -80q-48 37 -78 72q23 21 76 79q20 -21 37.5 -37.5t34.5 -33.5z" />
<glyph unicode="&#x684;" horiz-adv-x="649" arabic-form="final" d="M360 -394q-70 0 -133.5 16t-112 49.5t-76.5 84.5t-28 120q0 92 43 171t123.5 139.5t191.5 97.5q-49 16 -102.5 32.5t-124.5 16.5q-30 0 -52.5 -5t-42.5 -10l-14 74q26 11 58.5 17.5t65.5 6.5q46 0 82 -8.5t68.5 -20.5t68.5 -24.5t80.5 -21t105.5 -9.5h9l2 -82 q-52 0 -109 -12q8 -56 26 -88.5t44.5 -48t58.5 -20t67 -4.5q21 0 30.5 -11.5t9.5 -27.5t-13.5 -29.5t-35.5 -13.5q-42 0 -84.5 6t-79 27t-60.5 66.5t-29 125.5q-58 -20 -113 -51t-98 -73t-68.5 -94.5t-25.5 -115.5q0 -70 38 -113.5t101.5 -63.5t138.5 -20q99 0 201 40 l28 -68q-58 -28 -119 -41.5t-120 -13.5zM321 -82q-21 0 -35.5 14.5t-14.5 34.5t14.5 35t35.5 15q20 0 34.5 -15t14.5 -35t-14.5 -34.5t-34.5 -14.5zM322 -210q-21 0 -35.5 14.5t-14.5 34.5t14.5 35t35.5 15q20 0 34.5 -15t14.5 -35t-14.5 -34.5t-34.5 -14.5z" />
<glyph unicode="&#x684;" horiz-adv-x="589" arabic-form="initial" d="M0 -10q-10 0 -10 10v70q0 10 10 10q174 0 272 30l54 17q49 18 75.5 26.5t54.5 13.5q-38 18 -66.5 39.5t-54 40.5t-51.5 32t-57 13q-23 0 -41 -4t-32.5 -10.5t-55.5 -31.5q-7 7 -12 19.5t-5 26.5q0 45 39.5 71.5t102.5 26.5q37 0 75 -16t89 -53q58 -42 99.5 -65t89 -34.5 t132.5 -10.5l-45 -87l-72 7q-53 -1 -76 -6t-53.5 -17.5t-85.5 -41.5q-61 -32 -110 -48t-106.5 -22t-159.5 -6zM279 -187q-21 0 -35.5 14.5t-14.5 34.5t14.5 35t35.5 15q20 0 34.5 -15t14.5 -35t-14.5 -34.5t-34.5 -14.5zM280 -316q-21 0 -35.5 14.5t-14.5 34.5t14.5 35 t35.5 15q20 0 34.5 -15t14.5 -35t-14.5 -34.5t-34.5 -14.5z" />
<glyph unicode="&#x684;" horiz-adv-x="637" arabic-form="medial" d="M0 -10q-10 0 -10 10v70q0 10 10 10q174 0 272 30q34 10 96 36q49 21 87 29q-37 17 -66 37.5t-54.5 38t-51 29.5t-56.5 12q-23 0 -41 -4t-32.5 -10.5t-55.5 -31.5q-7 7 -12 19.5t-5 26.5q0 45 39.5 71.5t102.5 26.5q38 0 77 -15.5t87 -48.5q54 -38 89.5 -57t65.5 -28.5 t63 -14.5t103 -5l-45 -87q-60 4 -100 10h-8q16 -30 37 -42t62 -17t139 -5q10 0 10 -10v-70q0 -10 -10 -10q-88 0 -142.5 13.5t-88.5 41.5t-60 85q-23 -9 -53 -25q-107 -59 -161 -79t-114 -28t-174 -8zM261 -187q-21 0 -35.5 14.5t-14.5 34.5t14.5 35t35.5 15q20 0 34.5 -15 t14.5 -35t-14.5 -34.5t-34.5 -14.5zM262 -316q-21 0 -35.5 14.5t-14.5 34.5t14.5 35t35.5 15q20 0 34.5 -15t14.5 -35t-14.5 -34.5t-34.5 -14.5z" />
<glyph unicode="&#x683;" horiz-adv-x="659" arabic-form="isolated" d="M160 -39q0 -61 31.5 -106t96 -71.5t139.5 -26.5q81 0 149 8.5t139 24.5l13 -40q-90 -49 -163 -69.5t-141 -20.5q-145 0 -225.5 80t-80.5 221q0 119 76 220t197 148l-47 16q-78 27 -118 27q-55 0 -101 -29l-28 -17q-7 7 -12 19.5t-5 26.5q0 45 39.5 71.5t102.5 26.5 q39 0 86 -10t112 -31q125 -41 205 -41h19l58 2l-33 -90q-31 -5 -69 -5q-111 -9 -219.5 -60t-164.5 -122t-56 -152zM443 -19q-27 -40 -70 -80q-48 37 -78 72q23 21 76 79q10 -11 72 -71zM620 -2q-25 -37 -70 -80q-47 36 -78 72q21 19 76 79q10 -11 72 -71z" />
<glyph unicode="&#x683;" horiz-adv-x="719" arabic-form="final" d="M380 -394q-70 0 -136.5 16t-119 49.5t-83.5 84.5t-31 120q0 92 48 171t133 139.5t197 97.5q-49 16 -105.5 32.5t-141.5 16.5q-30 0 -52.5 -5t-42.5 -10l-14 74q26 11 58.5 17.5t65.5 6.5q52 0 91.5 -8.5t74.5 -20.5t71.5 -24.5t81.5 -21t106 -9.5h9l2 -82q-29 0 -60 -4 q7 -58 25 -92.5t44.5 -50.5t59.5 -21t68 -5q21 0 30.5 -11.5t9.5 -27.5t-13.5 -29.5t-35.5 -13.5q-43 0 -86.5 6t-80.5 29t-60.5 71.5t-26.5 132.5q-66 -15 -132.5 -45.5t-121 -74.5t-87.5 -101t-33 -127q0 -52 25 -89.5t67.5 -61.5t96 -35t109.5 -11q99 0 201 40l28 -68 q-58 -28 -119 -41.5t-120 -13.5zM407 -146q-21 0 -35.5 14.5t-14.5 34.5t14.5 35t35.5 15q20 0 34.5 -15t14.5 -35t-14.5 -34.5t-34.5 -14.5zM270 -146q-21 0 -35.5 14.5t-14.5 34.5t14.5 35t35.5 15q20 0 34.5 -15t14.5 -35t-14.5 -34.5t-34.5 -14.5z" />
<glyph unicode="&#x683;" horiz-adv-x="589" arabic-form="initial" d="M0 -10q-10 0 -10 10v70q0 10 10 10q174 0 272 30l54 17q49 18 75.5 26.5t54.5 13.5q-38 18 -66.5 39.5t-54 40.5t-51.5 32t-57 13q-23 0 -41 -4t-32.5 -10.5t-55.5 -31.5q-7 7 -12 19.5t-5 26.5q0 45 39.5 71.5t102.5 26.5q37 0 75 -16t89 -53q58 -42 99.5 -65t89 -34.5 t132.5 -10.5l-45 -87l-72 7q-53 -1 -76 -6t-53.5 -17.5t-85.5 -41.5q-61 -32 -110 -48t-106.5 -22t-159.5 -6zM351 -189q-21 0 -35.5 14.5t-14.5 34.5t14.5 35t35.5 15q20 0 34.5 -15t14.5 -35t-14.5 -34.5t-34.5 -14.5zM214 -189q-21 0 -35.5 14.5t-14.5 34.5t14.5 35 t35.5 15q20 0 34.5 -15t14.5 -35t-14.5 -34.5t-34.5 -14.5z" />
<glyph unicode="&#x683;" horiz-adv-x="637" arabic-form="medial" d="M0 -10q-10 0 -10 10v70q0 10 10 10q174 0 272 30q34 10 96 36q49 21 87 29q-37 17 -66 37.5t-54.5 38t-51 29.5t-56.5 12q-23 0 -41 -4t-32.5 -10.5t-55.5 -31.5q-7 7 -12 19.5t-5 26.5q0 45 39.5 71.5t102.5 26.5q38 0 77 -15.5t87 -48.5q54 -38 89.5 -57t65.5 -28.5 t63 -14.5t103 -5l-45 -87q-60 4 -100 10h-8q16 -30 37 -42t62 -17t139 -5q10 0 10 -10v-70q0 -10 -10 -10q-88 0 -142.5 13.5t-88.5 41.5t-60 85q-23 -9 -53 -25q-107 -59 -161 -79t-114 -28t-174 -8zM333 -189q-21 0 -35.5 14.5t-14.5 34.5t14.5 35t35.5 15q20 0 34.5 -15 t14.5 -35t-14.5 -34.5t-34.5 -14.5zM196 -189q-21 0 -35.5 14.5t-14.5 34.5t14.5 35t35.5 15q20 0 34.5 -15t14.5 -35t-14.5 -34.5t-34.5 -14.5z" />
<glyph unicode="&#x686;" horiz-adv-x="840" arabic-form="final" d="M151 -339q-14 36 -23.5 80t-9.5 77q0 93 40.5 170t114.5 132.5t173 83.5q-30 15 -57 30.5t-53 28.5t-53 21t-57 8q-55 0 -101 -29l-28 -17q-7 7 -12 19.5t-5 26.5q0 45 39.5 71.5t102.5 26.5q46 0 93 -14.5t100 -44.5q102 -57 148.5 -74t102.5 -24.5t123 -10.5l-45 -87 q-86 10 -130 17h-7q23 -36 46 -49.5t63.5 -18t135.5 -4.5q10 0 10 -10v-70q0 -10 -10 -10q-101 1 -156 14.5t-87 44t-59 96.5q-103 -19 -191.5 -69.5t-133.5 -116.5t-45 -141q0 -30 6 -60.5t23 -75.5zM432 -146q-27 -40 -70 -80q-47 36 -78 72q32 29 76 79 q20 -21 37.5 -37.5t34.5 -33.5zM619 -129q-27 -40 -70 -80q-49 38 -78 72q34 31 76 79q10 -11 72 -71zM533 -275q-47 -50 -68 -65q-43 29 -74 65q24 21 70 72q28 -36 72 -72z" />
<glyph unicode="&#x686;" horiz-adv-x="748" arabic-form="initial" d="M0 -10q-10 0 -10 10v70q0 10 10 10q174 0 272 30l54 17q49 18 75.5 26.5t54.5 13.5q-38 18 -66.5 39.5t-54 40.5t-51.5 32t-57 13q-23 0 -41 -4t-32.5 -10.5t-55.5 -31.5q-7 7 -12 19.5t-5 26.5q0 45 39.5 71.5t102.5 26.5q37 0 75 -16t89 -53q58 -42 99.5 -65t89 -34.5 t132.5 -10.5l-45 -87l-72 7q-53 -1 -76 -6t-53.5 -17.5t-85.5 -41.5q-61 -32 -110 -48t-106.5 -22t-159.5 -6zM368 -161q-27 -40 -70 -80q-47 36 -78 72q32 29 76 79q20 -21 37.5 -37.5t34.5 -33.5zM555 -144q-27 -40 -70 -80q-49 38 -78 72q34 31 76 79q10 -11 72 -71z M469 -290q-47 -50 -68 -65q-43 29 -74 65q24 21 70 72q28 -36 72 -72z" />
<glyph unicode="&#x686;" horiz-adv-x="783" arabic-form="medial" d="M0 -10q-10 0 -10 10v70q0 10 10 10q174 0 272 30q34 10 96 36q49 21 87 29q-37 17 -66 37.5t-54.5 38t-51 29.5t-56.5 12q-23 0 -41 -4t-32.5 -10.5t-55.5 -31.5q-7 7 -12 19.5t-5 26.5q0 45 39.5 71.5t102.5 26.5q38 0 77 -15.5t87 -48.5q54 -38 89.5 -57t65.5 -28.5 t63 -14.5t103 -5l-45 -87q-60 4 -100 10h-8q16 -30 37 -42t62 -17t139 -5q10 0 10 -10v-70q0 -10 -10 -10q-88 0 -142.5 13.5t-88.5 41.5t-60 85q-23 -9 -53 -25q-107 -59 -161 -79t-114 -28t-174 -8zM368 -161q-27 -40 -70 -80q-47 36 -78 72q32 29 76 79 q20 -21 37.5 -37.5t34.5 -33.5zM555 -144q-27 -40 -70 -80q-49 38 -78 72q34 31 76 79q10 -11 72 -71zM469 -290q-47 -50 -68 -65q-43 29 -74 65q24 21 70 72q28 -36 72 -72z" />
<glyph unicode="&#x687;" horiz-adv-x="659" arabic-form="isolated" d="M151 -339q-14 36 -23.5 80t-9.5 77q0 93 40.5 170t114.5 132.5t173 83.5q-30 15 -57 30.5t-53 28.5t-53 21t-57 8q-55 0 -101 -29l-28 -17q-7 7 -12 19.5t-5 26.5q0 45 39.5 71.5t102.5 26.5q46 0 93 -14.5t100 -44.5q102 -57 148.5 -74t102.5 -24.5t123 -10.5l-45 -87 q-86 10 -130 17q-74 -2 -157 -31.5t-145.5 -75t-97 -104t-34.5 -123.5q0 -30 6 -60.5t23 -75.5zM473 -278q-25 -37 -70 -80q-47 36 -78 72q21 19 76 79q10 -11 72 -71zM650 -261q-27 -40 -70 -80q-47 36 -78 72q23 21 76 79q20 -21 37.5 -37.5t34.5 -33.5zM443 -88 q-27 -40 -70 -80q-48 37 -78 72q23 21 76 79q10 -11 72 -71zM620 -71q-26 -39 -70 -80q-46 35 -78 72q21 19 76 79q10 -11 72 -71z" />
<glyph unicode="&#x687;" horiz-adv-x="719" arabic-form="final" d="M380 -394q-70 0 -136.5 16t-119 49.5t-83.5 84.5t-31 120q0 92 48 171t133 139.5t197 97.5q-49 16 -105.5 32.5t-141.5 16.5q-30 0 -52.5 -5t-42.5 -10l-14 74q26 11 58.5 17.5t65.5 6.5q52 0 91.5 -8.5t74.5 -20.5t71.5 -24.5t81.5 -21t106 -9.5h9l2 -82q-29 0 -60 -4 q7 -58 25 -92.5t44.5 -50.5t59.5 -21t68 -5q21 0 30.5 -11.5t9.5 -27.5t-13.5 -29.5t-35.5 -13.5q-43 0 -86.5 6t-80.5 29t-60.5 71.5t-26.5 132.5q-66 -15 -132.5 -45.5t-121 -74.5t-87.5 -101t-33 -127q0 -52 25 -89.5t67.5 -61.5t96 -35t109.5 -11q99 0 201 40l28 -68 q-58 -28 -119 -41.5t-120 -13.5zM271 -98q-21 0 -35.5 14.5t-14.5 34.5t14.5 35t35.5 15q20 0 34.5 -15t14.5 -35t-14.5 -34.5t-34.5 -14.5zM407 -98q-21 0 -35.5 14.5t-14.5 34.5t14.5 35t35.5 15q20 0 34.5 -15t14.5 -35t-14.5 -34.5t-34.5 -14.5zM271 -223 q-21 0 -35.5 14.5t-14.5 34.5t14.5 35t35.5 15q20 0 34.5 -15t14.5 -35t-14.5 -34.5t-34.5 -14.5zM407 -223q-21 0 -35.5 14.5t-14.5 34.5t14.5 35t35.5 15q20 0 34.5 -15t14.5 -35t-14.5 -34.5t-34.5 -14.5z" />
<glyph unicode="&#x687;" horiz-adv-x="589" arabic-form="initial" d="M0 -10q-10 0 -10 10v70q0 10 10 10q174 0 272 30l54 17q49 18 75.5 26.5t54.5 13.5q-38 18 -66.5 39.5t-54 40.5t-51.5 32t-57 13q-23 0 -41 -4t-32.5 -10.5t-55.5 -31.5q-7 7 -12 19.5t-5 26.5q0 45 39.5 71.5t102.5 26.5q37 0 75 -16t89 -53q58 -42 99.5 -65t89 -34.5 t132.5 -10.5l-45 -87l-72 7q-53 -1 -76 -6t-53.5 -17.5t-85.5 -41.5q-61 -32 -110 -48t-106.5 -22t-159.5 -6zM351 -187q-21 0 -35.5 14.5t-14.5 34.5t14.5 35t35.5 15q20 0 34.5 -15t14.5 -35t-14.5 -34.5t-34.5 -14.5zM215 -187q-21 0 -35.5 14.5t-14.5 34.5t14.5 35 t35.5 15q20 0 34.5 -15t14.5 -35t-14.5 -34.5t-34.5 -14.5zM351 -312q-21 0 -35.5 14.5t-14.5 34.5t14.5 35t35.5 15q20 0 34.5 -15t14.5 -35t-14.5 -34.5t-34.5 -14.5zM215 -312q-21 0 -35.5 14.5t-14.5 34.5t14.5 35t35.5 15q20 0 34.5 -15t14.5 -35t-14.5 -34.5 t-34.5 -14.5z" />
<glyph unicode="&#x687;" horiz-adv-x="637" arabic-form="medial" d="M0 -10q-10 0 -10 10v70q0 10 10 10q174 0 272 30q34 10 96 36q49 21 87 29q-37 17 -66 37.5t-54.5 38t-51 29.5t-56.5 12q-23 0 -41 -4t-32.5 -10.5t-55.5 -31.5q-7 7 -12 19.5t-5 26.5q0 45 39.5 71.5t102.5 26.5q38 0 77 -15.5t87 -48.5q54 -38 89.5 -57t65.5 -28.5 t63 -14.5t103 -5l-45 -87q-60 4 -100 10h-8q16 -30 37 -42t62 -17t139 -5q10 0 10 -10v-70q0 -10 -10 -10q-88 0 -142.5 13.5t-88.5 41.5t-60 85q-23 -9 -53 -25q-107 -59 -161 -79t-114 -28t-174 -8zM333 -187q-21 0 -35.5 14.5t-14.5 34.5t14.5 35t35.5 15q20 0 34.5 -15 t14.5 -35t-14.5 -34.5t-34.5 -14.5zM197 -187q-21 0 -35.5 14.5t-14.5 34.5t14.5 35t35.5 15q20 0 34.5 -15t14.5 -35t-14.5 -34.5t-34.5 -14.5zM333 -312q-21 0 -35.5 14.5t-14.5 34.5t14.5 35t35.5 15q20 0 34.5 -15t14.5 -35t-14.5 -34.5t-34.5 -14.5zM197 -312 q-21 0 -35.5 14.5t-14.5 34.5t14.5 35t35.5 15q20 0 34.5 -15t14.5 -35t-14.5 -34.5t-34.5 -14.5z" />
<glyph unicode="&#x68d;" horiz-adv-x="477" arabic-form="isolated" d="M184 -10q-71 0 -107.5 19t-36.5 56q0 17 5.5 34t15.5 28q29 -24 67 -35.5t93 -11.5q82 0 160 24q-20 54 -74 155l-21 38q-17 29 -24.5 51t-7.5 44q0 29 16.5 49t45.5 29q18 -48 38.5 -93t39 -85t31 -74.5t12.5 -61.5q0 -38 -41 -120q-89 -46 -212 -46zM250 -177 q-27 -40 -70 -80q-48 37 -78 72q23 21 76 79q10 -11 72 -71zM427 -160q-25 -37 -70 -80q-47 36 -78 72q21 19 76 79q10 -11 72 -71z" />
<glyph unicode="&#x68d;" horiz-adv-x="532" arabic-form="final" d="M567 -10q-90 0 -145 62q-105 -62 -238 -62q-71 0 -107.5 19t-36.5 56q0 17 5.5 34t15.5 28q29 -24 67 -35.5t93 -11.5q81 0 163 24q-24 39 -52.5 103t-44 115t-15.5 70q0 29 16.5 49t45.5 29q35 -129 66 -210.5t69 -130.5t98 -49q10 0 10 -10v-70q0 -10 -10 -10z M306 -194q-21 0 -35.5 14.5t-14.5 34.5t14.5 35t35.5 15q20 0 34.5 -15t14.5 -35t-14.5 -34.5t-34.5 -14.5zM169 -194q-21 0 -35.5 14.5t-14.5 34.5t14.5 35t35.5 15q20 0 34.5 -15t14.5 -35t-14.5 -34.5t-34.5 -14.5z" />
<glyph unicode="&#x68c;" horiz-adv-x="477" arabic-form="isolated" d="M184 -10q-71 0 -107.5 19t-36.5 56q0 17 5.5 34t15.5 28q29 -24 67 -35.5t93 -11.5q82 0 160 24q-20 54 -74 155l-21 38q-17 29 -24.5 51t-7.5 44q0 29 16.5 49t45.5 29q18 -48 38.5 -93t39 -85t31 -74.5t12.5 -61.5q0 -38 -41 -120q-89 -46 -212 -46zM239 616 q-27 -40 -70 -80q-48 37 -78 72q23 21 76 79q10 -11 72 -71zM416 633q-26 -39 -70 -80q-46 35 -78 72q21 19 76 79q10 -11 72 -71z" />
<glyph unicode="&#x68c;" horiz-adv-x="532" arabic-form="final" d="M567 -10q-90 0 -145 62q-105 -62 -238 -62q-71 0 -107.5 19t-36.5 56q0 17 5.5 34t15.5 28q29 -24 67 -35.5t93 -11.5q81 0 163 24q-24 39 -52.5 103t-44 115t-15.5 70q0 29 16.5 49t45.5 29q35 -129 66 -210.5t69 -130.5t98 -49q10 0 10 -10v-70q0 -10 -10 -10zM291 560 q-21 0 -35.5 14.5t-14.5 34.5t14.5 35t35.5 15q20 0 34.5 -15t14.5 -35t-14.5 -34.5t-34.5 -14.5zM154 560q-21 0 -35.5 14.5t-14.5 34.5t14.5 35t35.5 15q20 0 34.5 -15t14.5 -35t-14.5 -34.5t-34.5 -14.5z" />
<glyph unicode="&#x68e;" horiz-adv-x="477" arabic-form="isolated" d="M184 -10q-71 0 -107.5 19t-36.5 56q0 17 5.5 34t15.5 28q29 -24 67 -35.5t93 -11.5q82 0 160 24q-20 54 -74 155l-21 38q-17 29 -24.5 51t-7.5 44q0 29 16.5 49t45.5 29q18 -48 38.5 -93t39 -85t31 -74.5t12.5 -61.5q0 -38 -41 -120q-89 -46 -212 -46zM321 747 q-47 -50 -68 -65q-43 29 -74 65q26 23 70 72q13 -18 36 -40t36 -32zM233 615q-26 -39 -70 -80q-47 36 -78 72q21 19 76 79q8 -9 72 -71zM420 632q-26 -39 -70 -80q-46 35 -78 72q21 19 76 79q10 -11 72 -71z" />
<glyph unicode="&#x68e;" horiz-adv-x="532" arabic-form="final" d="M567 -10q-90 0 -145 62q-105 -62 -238 -62q-71 0 -107.5 19t-36.5 56q0 17 5.5 34t15.5 28q29 -24 67 -35.5t93 -11.5q81 0 163 24q-24 39 -52.5 103t-44 115t-15.5 70q0 29 16.5 49t45.5 29q35 -129 66 -210.5t69 -130.5t98 -49q10 0 10 -10v-70q0 -10 -10 -10zM223 670 q-21 0 -35.5 14.5t-14.5 34.5t14.5 35t35.5 15q20 0 34.5 -15t14.5 -35t-14.5 -34.5t-34.5 -14.5zM155 560q-21 0 -35.5 14.5t-14.5 34.5t14.5 35t35.5 15q20 0 34.5 -15t14.5 -35t-14.5 -34.5t-34.5 -14.5zM291 560q-21 0 -35.5 14.5t-14.5 34.5t14.5 35t35.5 15 q20 0 34.5 -15t14.5 -35t-14.5 -34.5t-34.5 -14.5z" />
<glyph unicode="&#x688;" horiz-adv-x="557" arabic-form="final" d="M567 -10q-90 0 -145 62q-105 -62 -238 -62q-71 0 -107.5 19t-36.5 56q0 17 5.5 34t15.5 28q29 -24 67 -35.5t93 -11.5q81 0 163 24q-24 39 -52.5 103t-44 115t-15.5 70q0 29 16.5 49t45.5 29q35 -129 66 -210.5t69 -130.5t98 -49q10 0 10 -10v-70q0 -10 -10 -10zM65 647 l65 -11q13 21 30 39l-25 123q-11 54 -11 64q0 13 18.5 24t42.5 16l17 -51l-12 -9q2 -28 3 -61.5t2 -67.5q30 29 58 45t46 16q20 0 44.5 -17t42 -42.5t17.5 -41.5q0 -33 -22.5 -61t-61 -44t-76.5 -16q-32 0 -61.5 6t-56 16.5t-69.5 35.5zM291 701q-25 0 -57 -18.5t-61 -50.5 q35 -4 73 -4q39 0 65 6t59 20q-10 19 -33.5 33t-45.5 14z" />
<glyph unicode="&#x698;" horiz-adv-x="458" arabic-form="final" d="M469 -10q-56 0 -96 29q-19 -121 -90 -195t-169 -74q-26 0 -72.5 20t-81.5 46l16 39q41 -8 63 -10.5t48 -2.5q88 0 151 52.5t96 153.5q-11 27 -21 46.5t-35 61.5q-22 37 -40.5 80t-18.5 73t18.5 48t50.5 34q7 -30 21 -66.5t28 -74.5t25.5 -76t14.5 -71q41 -23 92 -23 q10 0 10 -10v-70q0 -10 -10 -10zM295 688q-47 -50 -68 -65q-43 29 -74 65q26 23 70 72q13 -18 36 -40t36 -32zM207 556q-26 -39 -70 -80q-47 36 -78 72q21 19 76 79q8 -9 72 -71zM394 573q-26 -39 -70 -80q-46 35 -78 72q21 19 76 79q10 -11 72 -71z" />
<glyph unicode="&#x691;" horiz-adv-x="458" arabic-form="final" d="M469 -10q-56 0 -96 29q-19 -121 -90 -195t-169 -74q-26 0 -72.5 20t-81.5 46l16 39q41 -8 63 -10.5t48 -2.5q88 0 151 52.5t96 153.5q-11 27 -21 46.5t-35 61.5q-22 37 -40.5 80t-18.5 73t18.5 48t50.5 34q7 -30 21 -66.5t28 -74.5t25.5 -76t14.5 -71q41 -23 92 -23 q10 0 10 -10v-70q0 -10 -10 -10zM10 558l65 -11q13 21 30 39l-25 123q-11 54 -11 64q0 13 18.5 24t42.5 16l17 -51l-12 -9q2 -28 3 -61.5t2 -67.5q30 29 58 45t46 16q20 0 44.5 -17t42 -42.5t17.5 -41.5q0 -33 -22.5 -61t-61 -44t-76.5 -16q-32 0 -61.5 6t-56 16.5 t-69.5 35.5zM236 612q-25 0 -57 -18.5t-61 -50.5q35 -4 73 -4q39 0 65 6t59 20q-10 19 -33.5 33t-45.5 14z" />
<glyph unicode="&#x6a9;" horiz-adv-x="913" arabic-form="final" d="M344 -10q-138 0 -201 42t-63 128q0 37 21 85l38 -14q-6 -32 -6 -48q0 -54 50.5 -78.5t168.5 -24.5q60 0 118 12.5t88 30.5q-17 80 -65 144q-52 62 -85.5 120.5t-33.5 90.5q0 31 11 50.5t40 35.5q69 39 141 72t295 124q9 -8 13.5 -20.5t4.5 -24.5l-1 -10q-6 -42 -49 -59 l-113 -46q-197 -80 -300 -126q93 -113 156 -178.5t128.5 -119.5t117.5 -75t105 -21q10 0 10 -10v-70q0 -10 -10 -10q-66 0 -119 18.5t-107 62t-94 80.5q0 -49 -28 -96q-47 -30 -110.5 -47.5t-120.5 -17.5z" />
<glyph unicode="&#x6a9;" horiz-adv-x="487" arabic-form="initial" d="M0 -10q-10 0 -10 10v70q0 10 10 10q107 0 191.5 16t155.5 53q-44 134 -247 231q-11 -4 -28 -4q-30 0 -51 21.5t-21 54.5q0 22 12 65.5t19 47.5q138 72 219.5 109.5t198.5 85.5q9 -8 13.5 -20.5t4.5 -24.5l-1 -10q-6 -42 -49 -59q-208 -85 -374 -161q90 -22 172 -73 t130.5 -113t48.5 -116q0 -95 -98 -144t-296 -49z" />
<glyph unicode="&#x6a9;" horiz-adv-x="540" arabic-form="medial" d="M185 123q-17 80 -65 144q-52 62 -85.5 120.5t-33.5 90.5q0 31 11 50.5t40 35.5q69 39 141 72t295 124q9 -8 13.5 -20.5t4.5 -24.5l-1 -10q-6 -42 -49 -59l-113 -46q-197 -80 -300 -126q93 -113 156 -178.5t128.5 -119.5t117.5 -75t105 -21q10 0 10 -10v-70q0 -10 -10 -10 q-66 0 -119 18.5t-107 62t-94 80.5q0 -49 -28 -96q-54 -32 -101.5 -48.5t-100.5 -16.5q-10 0 -10 10v70q0 10 10 10q42 0 92.5 11.5t92.5 31.5z" />
<glyph unicode="&#x6af;" horiz-adv-x="913" arabic-form="final" d="M344 -10q-138 0 -201 42t-63 128q0 37 21 85l38 -14q-6 -32 -6 -48q0 -54 50.5 -78.5t168.5 -24.5q60 0 118 12.5t88 30.5q-17 80 -65 144q-52 62 -85.5 120.5t-33.5 90.5q0 31 11 50.5t40 35.5q69 39 141 72t295 124q9 -8 13.5 -20.5t4.5 -24.5l-1 -10q-6 -42 -49 -59 l-113 -46q-197 -80 -300 -126q93 -113 156 -178.5t128.5 -119.5t117.5 -75t105 -21q10 0 10 -10v-70q0 -10 -10 -10q-66 0 -119 18.5t-107 62t-94 80.5q0 -49 -28 -96q-47 -30 -110.5 -47.5t-120.5 -17.5zM368 620q-8 33 -8 46q0 6 2 7q27 14 180 87.5t232 110.5 q17 -12 16 -30v-7q-5 -21 -29 -32q-189 -85 -271.5 -124t-121.5 -58z" />
<glyph unicode="&#x6af;" horiz-adv-x="487" arabic-form="initial" d="M0 -10q-10 0 -10 10v70q0 10 10 10q107 0 191.5 16t155.5 53q-44 134 -247 231q-11 -4 -28 -4q-30 0 -51 21.5t-21 54.5q0 22 12 65.5t19 47.5q138 72 219.5 109.5t198.5 85.5q9 -8 13.5 -20.5t4.5 -24.5l-1 -10q-6 -42 -49 -59q-208 -85 -374 -161q90 -22 172 -73 t130.5 -113t48.5 -116q0 -95 -98 -144t-296 -49zM5 620q-8 33 -8 46q0 6 2 7q27 14 180 87.5t232 110.5q17 -12 16 -30v-7q-5 -21 -29 -32q-189 -85 -271.5 -124t-121.5 -58z" />
<glyph unicode="&#x6af;" horiz-adv-x="540" arabic-form="medial" d="M185 123q-17 80 -65 144q-52 62 -85.5 120.5t-33.5 90.5q0 31 11 50.5t40 35.5q69 39 141 72t295 124q9 -8 13.5 -20.5t4.5 -24.5l-1 -10q-6 -42 -49 -59l-113 -46q-197 -80 -300 -126q93 -113 156 -178.5t128.5 -119.5t117.5 -75t105 -21q10 0 10 -10v-70q0 -10 -10 -10 q-66 0 -119 18.5t-107 62t-94 80.5q0 -49 -28 -96q-54 -32 -101.5 -48.5t-100.5 -16.5q-10 0 -10 10v70q0 10 10 10q42 0 92.5 11.5t92.5 31.5zM5 620q-8 33 -8 46q0 6 2 7q27 14 180 87.5t232 110.5q17 -12 16 -30v-7q-5 -21 -29 -32q-189 -85 -271.5 -124t-121.5 -58z" />
<glyph unicode="&#x6b3;" horiz-adv-x="877" arabic-form="isolated" d="M372 80q77 0 135.5 7.5t104 21t97.5 40.5q-44 135 -248 231q-11 -4 -28 -4q-31 0 -51.5 21.5t-20.5 54.5q0 22 12 65.5t19 47.5q141 73 218 108.5t200 86.5q9 -8 13.5 -20.5t4.5 -24.5l-1 -10q-6 -42 -49 -59q-215 -88 -374 -161q86 -21 169 -71t133 -112.5t50 -118.5 q0 -96 -99 -144.5t-295 -48.5q-146 0 -214 42t-68 124q0 41 15 75h42q-4 -15 -4 -48q0 -55 53.5 -79t185.5 -24zM368 620q-8 33 -8 46q0 6 2 7q27 14 180 87.5t232 110.5q17 -12 16 -30v-7q-5 -21 -29 -32q-189 -85 -271.5 -124t-121.5 -58zM526 -355q-27 -40 -70 -80 q-49 38 -78 72q26 23 76 79q10 -11 72 -71zM504 -158q-26 -38 -70 -80q-48 37 -78 72q23 21 76 79q20 -21 37.5 -37.5t34.5 -33.5z" />
<glyph unicode="&#x6b3;" horiz-adv-x="975" arabic-form="final" d="M344 -10q-138 0 -201 42t-63 128q0 37 21 85l38 -14q-6 -32 -6 -48q0 -54 50.5 -78.5t168.5 -24.5q60 0 118 12.5t88 30.5q-17 80 -65 144q-52 62 -85.5 120.5t-33.5 90.5q0 31 11 50.5t40 35.5q69 39 141 72t295 124q9 -8 13.5 -20.5t4.5 -24.5l-1 -10q-6 -42 -49 -59 l-113 -46q-197 -80 -300 -126q93 -113 156 -178.5t128.5 -119.5t117.5 -75t105 -21q10 0 10 -10v-70q0 -10 -10 -10q-66 0 -119 18.5t-107 62t-94 80.5q0 -49 -28 -96q-47 -30 -110.5 -47.5t-120.5 -17.5zM368 620q-8 33 -8 46q0 6 2 7q27 14 180 87.5t232 110.5 q17 -12 16 -30v-7q-5 -21 -29 -32q-189 -85 -271.5 -124t-121.5 -58zM410 -208q-21 0 -35.5 14.5t-14.5 34.5t14.5 35t35.5 15q20 0 34.5 -15t14.5 -35t-14.5 -34.5t-34.5 -14.5zM411 -337q-21 0 -35.5 14.5t-14.5 34.5t14.5 35t35.5 15q20 0 34.5 -15t14.5 -35t-14.5 -34.5 t-34.5 -14.5z" />
<glyph unicode="&#x6b3;" horiz-adv-x="412" arabic-form="initial" d="M0 -10q-10 0 -10 10v70q0 10 10 10q107 0 191.5 16t155.5 53q-44 134 -247 231q-11 -4 -28 -4q-30 0 -51 21.5t-21 54.5q0 22 12 65.5t19 47.5q138 72 219.5 109.5t198.5 85.5q9 -8 13.5 -20.5t4.5 -24.5l-1 -10q-6 -42 -49 -59q-208 -85 -374 -161q90 -22 172 -73 t130.5 -113t48.5 -116q0 -95 -98 -144t-296 -49zM5 620q-8 33 -8 46q0 6 2 7q27 14 180 87.5t232 110.5q17 -12 16 -30v-7q-5 -21 -29 -32q-189 -85 -271.5 -124t-121.5 -58zM163 -187q-21 0 -35.5 14.5t-14.5 34.5t14.5 35t35.5 15q20 0 34.5 -15t14.5 -35t-14.5 -34.5 t-34.5 -14.5zM164 -316q-21 0 -35.5 14.5t-14.5 34.5t14.5 35t35.5 15q20 0 34.5 -15t14.5 -35t-14.5 -34.5t-34.5 -14.5z" />
<glyph unicode="&#x6b3;" horiz-adv-x="508" arabic-form="medial" d="M185 123q-17 80 -65 144q-52 62 -85.5 120.5t-33.5 90.5q0 31 11 50.5t40 35.5q69 39 141 72t295 124q9 -8 13.5 -20.5t4.5 -24.5l-1 -10q-6 -42 -49 -59l-113 -46q-197 -80 -300 -126q93 -113 156 -178.5t128.5 -119.5t117.5 -75t105 -21q10 0 10 -10v-70q0 -10 -10 -10 q-66 0 -119 18.5t-107 62t-94 80.5q0 -49 -28 -96q-54 -32 -101.5 -48.5t-100.5 -16.5q-10 0 -10 10v70q0 10 10 10q42 0 92.5 11.5t92.5 31.5zM5 620q-8 33 -8 46q0 6 2 7q27 14 180 87.5t232 110.5q17 -12 16 -30v-7q-5 -21 -29 -32q-189 -85 -271.5 -124t-121.5 -58z M163 -187q-21 0 -35.5 14.5t-14.5 34.5t14.5 35t35.5 15q20 0 34.5 -15t14.5 -35t-14.5 -34.5t-34.5 -14.5zM164 -316q-21 0 -35.5 14.5t-14.5 34.5t14.5 35t35.5 15q20 0 34.5 -15t14.5 -35t-14.5 -34.5t-34.5 -14.5z" />
<glyph unicode="&#x6b1;" horiz-adv-x="877" arabic-form="isolated" d="M372 80q77 0 135.5 7.5t104 21t97.5 40.5q-44 135 -248 231q-11 -4 -28 -4q-31 0 -51.5 21.5t-20.5 54.5q0 22 12 65.5t19 47.5q141 73 218 108.5t200 86.5q9 -8 13.5 -20.5t4.5 -24.5l-1 -10q-6 -42 -49 -59q-215 -88 -374 -161q86 -21 169 -71t133 -112.5t50 -118.5 q0 -96 -99 -144.5t-295 -48.5q-146 0 -214 42t-68 124q0 41 15 75h42q-4 -15 -4 -48q0 -55 53.5 -79t185.5 -24zM521 878q-23 -33 -49 -56q-38 30 -54 51q22 20 53 55l26 -26zM645 890q-21 -30 -49 -56q-37 29 -54 50q25 24 53 56q17 -19 50 -50zM368 620q-8 33 -8 46 q0 6 2 7q27 14 180 87.5t232 110.5q17 -12 16 -30v-7q-5 -21 -29 -32q-189 -85 -271.5 -124t-121.5 -58z" />
<glyph unicode="&#x6b1;" horiz-adv-x="975" arabic-form="final" d="M639 801q-21 0 -35.5 14.5t-14.5 34.5t14.5 35t35.5 15q20 0 34.5 -15t14.5 -35t-14.5 -34.5t-34.5 -14.5zM524 748q-21 0 -35.5 14.5t-14.5 34.5t14.5 35t35.5 15q20 0 34.5 -15t14.5 -35t-14.5 -34.5t-34.5 -14.5zM462 550l-37 56q58 35 152.5 91.5t223.5 123.5l28 -61 q-130 -69 -218 -120.5t-149 -89.5zM390 -21q-178 0 -269 47t-91 156q0 37 9 78.5t19 78.5l75 -19q-6 -22 -13.5 -55.5t-7.5 -59.5q0 -52 26.5 -83.5t92.5 -46t185 -14.5q125 0 196 13t100.5 32t29.5 35q0 24 -18 53t-46 59.5t-59.5 60.5t-59.5 55t-46 43.5t-18 26.5 q0 23 5.5 43t15.5 31q27 29 79.5 60.5t120.5 65t139 68.5l34 -74q-88 -44 -172.5 -85t-147.5 -85q55 -47 103 -91t89 -94.5t75 -114.5q21 -39 49 -57t55.5 -23.5t44.5 -5.5q21 0 30.5 -11.5t9.5 -27.5t-14 -29.5t-36 -13.5q-24 0 -56 6.5t-63.5 25t-55.5 54.5 q-17 -22 -45 -41t-74.5 -32.5t-117.5 -21t-173 -7.5z" />
<glyph unicode="&#x6b1;" horiz-adv-x="412" arabic-form="initial" d="M187 799q-21 0 -35.5 14.5t-14.5 34.5t14.5 35t35.5 15q20 0 34.5 -15t14.5 -35t-14.5 -34.5t-34.5 -14.5zM72 746q-21 0 -35.5 14.5t-14.5 34.5t14.5 35t35.5 15q20 0 34.5 -15t14.5 -35t-14.5 -34.5t-34.5 -14.5zM-1 550l-37 56q58 35 152.5 91.5t223.5 123.5l28 -61 q-130 -69 -218 -120.5t-149 -89.5zM0 -5l10 82h94q59 0 93.5 6.5t51 17t22 23t5.5 25.5q0 23 -17.5 57t-71.5 88q-37 38 -74 67t-61 49t-24 29q0 23 5.5 43t15.5 31q40 43 125.5 86.5t213.5 107.5l34 -74q-91 -44 -148.5 -72.5t-95 -50t-69.5 -43.5q117 -95 179.5 -170.5 t62.5 -152.5q0 -22 -8 -48t-34 -49t-78 -37.5t-140 -14.5h-91z" />
<glyph unicode="&#x6b1;" horiz-adv-x="508" arabic-form="medial" d="M182 799q-21 0 -35.5 14.5t-14.5 34.5t14.5 35t35.5 15q20 0 34.5 -15t14.5 -35t-14.5 -34.5t-34.5 -14.5zM67 746q-21 0 -35.5 14.5t-14.5 34.5t14.5 35t35.5 15q20 0 34.5 -15t14.5 -35t-14.5 -34.5t-34.5 -14.5zM-1 550l-37 56q58 35 152.5 91.5t223.5 123.5l28 -61 q-130 -69 -218 -120.5t-149 -89.5zM0 -5l10 82h77q83 0 123 9t52.5 24t12.5 31q0 24 -18 53t-46 59.5t-59.5 60.5t-59.5 55t-46 43.5t-18 26.5q0 23 5.5 43t15.5 31q27 29 79.5 60.5t120.5 65t139 68.5l34 -74q-88 -44 -172.5 -85t-147.5 -85q55 -47 103 -91t89 -94.5 t75 -114.5q21 -39 49 -57t55.5 -23.5t44.5 -5.5q21 0 30.5 -11.5t9.5 -27.5t-14 -29.5t-36 -13.5q-24 0 -55.5 6.5t-63.5 25t-56 54.5q-20 -29 -50 -48t-78 -28.5t-122 -9.5h-83z" />
<glyph unicode="&#x6ba;" horiz-adv-x="688" arabic-form="final" d="M699 -10q-40 0 -73 16q4 -38 4 -58q0 -71 -45 -136.5t-125.5 -108.5t-166.5 -43q-101 0 -157 58t-56 163q0 37 4 64.5t19 87.5l43 -10q-13 -50 -13 -84q0 -87 43 -134.5t120 -47.5q56 0 116 19t107 53t67 75q-77 169 -77 225q0 62 77 105q4 -31 23 -132q24 -14 45.5 -18 t44.5 -4q10 0 10 -10v-70q0 -10 -10 -10z" />
<glyph unicode="&#x6bb;" horiz-adv-x="685" arabic-form="isolated" d="M293 -96q-101 0 -157 58t-56 163q0 37 4 64.5t19 87.5l43 -10q-13 -50 -13 -84q0 -87 43 -134.5t120 -47.5q56 0 116 19t107 53t67 75q-77 169 -77 225q0 62 77 105q5 -42 12.5 -79.5l14.5 -72.5t12 -68t5 -66q0 -71 -45 -136.5t-125.5 -108.5t-166.5 -43zM131 505 l65 -11q13 21 30 39l-25 123q-11 54 -11 64q0 13 18.5 24t42.5 16l17 -51l-12 -9q2 -28 3 -61.5t2 -67.5q30 29 58 45t46 16q20 0 44.5 -17t42 -42.5t17.5 -41.5q0 -33 -22.5 -61t-61 -44t-76.5 -16q-32 0 -61.5 6t-56 16.5t-69.5 35.5zM357 559q-25 0 -57 -18.5t-61 -50.5 q35 -4 73 -4q39 0 65 6t59 20q-10 19 -33.5 33t-45.5 14z" />
<glyph unicode="&#x6bb;" horiz-adv-x="730" arabic-form="final" d="M699 -10q-40 0 -73 16q4 -38 4 -58q0 -71 -45 -136.5t-125.5 -108.5t-166.5 -43q-101 0 -157 58t-56 163q0 37 4 64.5t19 87.5l43 -10q-13 -50 -13 -84q0 -87 43 -134.5t120 -47.5q56 0 116 19t107 53t67 75q-77 169 -77 225q0 62 77 105q4 -31 23 -132q24 -14 45.5 -18 t44.5 -4q10 0 10 -10v-70q0 -10 -10 -10zM335 426q-18 0 -42.5 1.5t-46.5 3.5l-33 3l2 58q6 -1 13 -1.5t15 -1.5q10 18 22 34l-5 162h55l5 -106q18 13 37.5 20.5t39.5 7.5q38 0 60 -23t22 -57q0 -20 -11.5 -43.5t-42.5 -40.5t-90 -17zM389 548q-18 0 -35 -11t-31.5 -26 t-22.5 -26q16 -1 28 -1q49 0 71 10.5t22 27.5q0 14 -9 20t-23 6z" />
<glyph unicode="&#x6bb;" horiz-adv-x="299" arabic-form="initial" d="M1 -10q-10 0 -10 10v70q0 10 10 10q52 0 109 11.5t99 31.5q-14 52 -42 129q-22 61 -23 79q0 27 21.5 54t55.5 45q5 -34 12.5 -68t14.5 -66.5t12 -63t5 -57.5q0 -38 -41 -120q-109 -65 -223 -65zM-33 614l65 -11q13 21 30 39l-25 123q-11 54 -11 64q0 13 18.5 24t42.5 16 l17 -51l-12 -9q2 -28 3 -61.5t2 -67.5q30 29 58 45t46 16q20 0 44.5 -17t42 -42.5t17.5 -41.5q0 -33 -22.5 -61t-61 -44t-76.5 -16q-32 0 -61.5 6t-56 16.5t-69.5 35.5zM193 668q-25 0 -57 -18.5t-61 -50.5q35 -4 73 -4q39 0 65 6t59 20q-10 19 -33.5 33t-45.5 14z" />
<glyph unicode="&#x6bb;" horiz-adv-x="343" arabic-form="medial" d="M314 258q17 0 29 -9q-34 -83 -57 -125q69 -44 148 -44q10 0 10 -10v-70q0 -10 -10 -10q-109 0 -186 69l-9 -14l-10 -12q-7 -8 -44.5 -18.5t-86 -17.5t-98.5 -7q-10 0 -10 10v70q0 10 10 10q156 0 195 27q13 8 27.5 31.5t34.5 62.5l21 38q11 19 36 19zM22 427l65 -11 q13 21 30 39l-25 123q-11 54 -11 64q0 13 18.5 24t42.5 16l17 -51l-12 -9q2 -28 3 -61.5t2 -67.5q30 29 58 45t46 16q20 0 44.5 -17t42 -42.5t17.5 -41.5q0 -33 -22.5 -61t-61 -44t-76.5 -16q-32 0 -61.5 6t-56 16.5t-69.5 35.5zM248 481q-25 0 -57 -18.5t-61 -50.5 q35 -4 73 -4q39 0 65 6t59 20q-10 19 -33.5 33t-45.5 14z" />
<glyph unicode="&#x6c0;" horiz-adv-x="532" arabic-form="final" d="M328 59q-61 5 -94.5 13t-73 27t-60 36.5t-20.5 32.5t15.5 52t26.5 57q17 32 74.5 73.5t127.5 70.5l-6 49q23 22 44.5 36.5t44.5 29.5q4 -201 10 -351l3 -75q53 -30 122 -30q10 0 10 -10v-70q0 -10 -10 -10q-71 0 -115 26.5t-52 76.5l-7 42zM365 155l-30 190 q-140 -50 -198 -123q30 -23 57 -36.5t70.5 -21.5t100.5 -9zM289 707l1 6q0 6 -5.5 12.5t-13.5 6.5q-20 0 -40 -15.5t-29 -40.5q23 -29 71 -30q26 0 72 10l-3 -57q-65 -18 -101.5 -32.5t-81.5 -38.5l-3 57q13 9 28.5 17t29.5 16q-54 10 -54 59q0 27 15.5 54t42.5 45t51 18 q28 0 43 -14t15 -41q0 -8 -3 -20t-7 -20z" />
<glyph unicode="&#x6c1;" horiz-adv-x="479" arabic-form="isolated" d="M80 138q0 114 115 224l-5 4q-23 16 -23 49q0 19 9 34.5t22 20.5q54 -18 105.5 -64t84 -104t32.5 -105q0 -35 -27 -96t-53 -78q-48 -33 -116 -33t-106 40t-38 108zM362 136q-24 114 -133 201q-43 -41 -69 -85t-26 -79q0 -42 27 -65.5t76 -23.5q28 0 64 15t61 37z" />
<glyph unicode="&#x6c1;" horiz-adv-x="500" arabic-form="final" d="M507 -10q-40 0 -69 9.5t-50.5 23.5t-37 30t-28.5 30.5t-25 23.5t-26 9q-29 0 -67.5 -29.5t-92.5 -96.5l-31 27q131 194 230 194q23 0 45 -16t47 -49q25 -32 50.5 -49t54.5 -17q13 0 13 -12v-65q0 -13 -13 -13z" />
<glyph unicode="&#x6c1;" horiz-adv-x="324" arabic-form="initial" d="M204 -240q-27 3 -43 21.5t-16 42.5q0 42 19.5 86t57.5 94l36 -22q-42 -58 -42 -105q0 -18 12.5 -29.5t41.5 -20.5q-9 -20 -21.5 -34t-25.5 -23.5t-19 -9.5zM0 -10q-10 0 -10 10v70q0 10 10 10q52 0 109 11.5t99 31.5q-14 52 -42 129q-22 61 -23 79q0 27 21.5 54t55.5 45 q5 -34 12.5 -68t14.5 -66.5t12 -63t5 -57.5q0 -38 -41 -120q-109 -65 -223 -65z" />
<glyph unicode="&#x6c1;" horiz-adv-x="464" arabic-form="medial" d="M226 -267q-74 56 -115.5 128.5t-44.5 146.5q-15 -8 -35.5 -13t-30.5 -5t-10 10v70q0 10 10 10q30 0 42.5 3t21.5 9.5t14 18.5q16 38 46 37q21 0 37 -20q-5 -11 -8.5 -32.5t-3.5 -36.5q0 -56 24.5 -112t71.5 -107q9 60 21.5 95.5t31.5 60t46 45t58.5 30t69.5 9.5 q13 0 13 -12v-65q0 -13 -13 -13q-59 0 -88.5 -4t-48.5 -12q-17 -39 -21.5 -86t-4.5 -101zM403 -267q-27 3 -43 21.5t-16 42.5q0 43 18 82.5t54 86.5l36 -22q-37 -50 -37 -94q0 -18 12.5 -29.5t41.5 -20.5q-9 -20 -21.5 -34t-26 -23.5t-18.5 -9.5z" />
<glyph unicode="&#x6be;" horiz-adv-x="567" arabic-form="final" d="M478 230q0 -83 -56 -137.5t-166 -82.5q17 -89 92 -170q9 60 21.5 95.5t31.5 60t46 45t58.5 30t69.5 9.5q13 0 13 -12v-65q0 -13 -13 -13q-59 0 -88 -4t-49 -12q-17 -39 -21.5 -86t-4.5 -101l-83 -54q-67 51 -108.5 118.5t-49.5 142.5q-32 -5 -65 -10t-69 -17l-17 35 q55 48 152 73q9 106 62 203t167 211l41 -13q3 -46 21 -127q15 -68 15 -119zM374 370q-66 -95 -92 -159.5t-29 -125.5q48 6 85 20.5t76 41.5l-11 60q-15 67 -21 99.5t-8 63.5z" />
<glyph unicode="&#x6be;" horiz-adv-x="597" arabic-form="initial" d="M0 -10q-10 0 -10 10v72q0 8 10 8q77 0 135 15q-73 62 -73 139q0 34 13.5 73.5t37.5 70t53 45.5l27 77q100 -29 179 -86.5t122 -132.5t43 -154q0 -55 -60 -158q-152 18 -261 73q-47 -28 -99.5 -40t-116.5 -12zM104 235q52 -57 119 -98q59 46 59 125q0 33 -21.5 62.5 t-47.5 29.5q-19 0 -41.5 -15.5t-40 -42t-27.5 -61.5zM351 259q0 -89 -60 -156q80 -35 183 -48q0 76 -40.5 157.5t-107.5 138.5q25 -43 25 -92z" />
<glyph unicode="&#x6be;" horiz-adv-x="458" arabic-form="medial" d="M382 -17q32 -17 49.5 -39.5t17.5 -44.5q0 -18 -16 -60.5t-24 -51.5q-12 -15 -41.5 -26t-57.5 -11q-91 0 -149 54.5t-73 154.5l-45 -19l-12 51l-12 -1h-9q-10 0 -10 10v70q0 10 10 10q36 0 77 3q22 217 220 405l42 -12q4 -54 21 -139q15 -76 15 -112q0 -93 -96 -154 q74 9 176 9q13 0 13 -12v-65q0 -13 -13 -13q-49 0 -83 -7zM281 370q-48 -68 -70.5 -112t-36.5 -89.5t-16 -90.5q87 11 159 70l-10 60q-22 110 -26 162zM211 -10q-17 0 -46 -7q16 -71 56 -110.5t99 -39.5q21 0 43.5 8.5t34.5 22.5q-9 32 -38 62t-68.5 47t-80.5 17z" />
<glyph unicode="&#x6d2;" horiz-adv-x="623" arabic-form="final" d="M116 -126q116 -34 269 -34q158 0 306 27q17 -21 17 -40q0 -24 -21 -40.5t-53 -21.5q-99 -15 -257 -15q-76 0 -148.5 11.5t-120.5 29t-48 30.5q0 15 11.5 53.5t18.5 44.5q87 83 216 122t330 39q13 0 13 -13v-65q0 -12 -13 -12q-114 0 -212.5 -11.5t-171 -37t-136.5 -67.5z " />
<glyph unicode="&#x6d3;" horiz-adv-x="603" arabic-form="final" d="M96 -126q116 -34 269 -34q158 0 306 27q17 -21 17 -40q0 -24 -21 -40.5t-53 -21.5q-99 -15 -257 -15q-76 0 -148.5 11.5t-120.5 29t-48 30.5q0 15 11.5 53.5t18.5 44.5q87 83 216 122t330 39q13 0 13 -13v-65q0 -12 -13 -12q-114 0 -212.5 -11.5t-171 -37t-136.5 -67.5z M267 251l1 6q0 6 -5.5 12.5t-13.5 6.5q-20 0 -40 -15.5t-29 -40.5q23 -29 71 -30q26 0 72 10l-3 -57q-65 -18 -101.5 -32.5t-81.5 -38.5l-3 57q13 9 28.5 17t29.5 16q-54 10 -54 59q0 27 15.5 54t42.5 45t51 18q28 0 43 -14t15 -41q0 -8 -3 -20t-7 -20z" />
<glyph unicode="&#x6ad;" horiz-adv-x="882" arabic-form="isolated" d="M266 -10q-82 0 -164 7.5t-82 15.5q0 21 6.5 51t12.5 40q49 -11 119.5 -17.5t129.5 -6.5q123 0 254 23q-11 56 -23.5 131t-37 213.5t-29.5 238.5q0 39 17.5 62t59.5 32q3 -11 5.5 -21t36.5 -119l-31 -27q4 -63 19 -188q27 -236 27 -308q0 -32 -12 -57.5t-30 -49.5 q-128 -20 -278 -20zM318 389l1 6q0 6 -5.5 12.5t-13.5 6.5q-20 0 -39.5 -15.5t-29.5 -40.5q22 -29 72 -29q28 0 71 9l-3 -57q-60 -15 -97.5 -30t-85.5 -41l-3 57l29 17l29 16q-54 11 -54 59q0 44 35.5 80.5t73.5 36.5q31 0 44.5 -16t13.5 -39q0 -21 -10 -40zM305 747 q-47 -50 -68 -65q-43 29 -74 65q26 23 70 72q13 -18 36 -40t36 -32zM217 615q-26 -39 -70 -80q-47 36 -78 72q21 19 76 79q8 -9 72 -71zM404 632q-26 -39 -70 -80q-46 35 -78 72q21 19 76 79q10 -11 72 -71z" />
<glyph unicode="&#x6ad;" horiz-adv-x="922" arabic-form="final" d="M737 780q7 -143 13 -498l3 -172q54 -30 123 -30q10 0 10 -10v-70q0 -10 -10 -10q-54 0 -94 16.5t-58 44.5q-88 -31 -176 -46t-186 -15q-107 0 -166 19t-87.5 57t-28.5 96q0 43 16 89h41q-3 -17 -3 -44q0 -50 24 -76.5t77 -38.5t152 -12q166 0 319 37q-17 143 -37 446 l-11 151q36 37 79 66zM459 389l1 6q0 6 -5.5 12.5t-13.5 6.5q-20 0 -40 -15.5t-29 -40.5q22 -29 72 -29q28 0 71 9l-3 -57q-60 -15 -97.5 -30t-85.5 -41l-3 57l29 17l29 16q-54 11 -54 59q0 44 35.5 80.5t73.5 36.5q31 0 44.5 -16t13.5 -39q0 -20 -10 -40zM469 741 q-21 0 -35.5 14.5t-14.5 34.5t14.5 35t35.5 15q20 0 34.5 -15t14.5 -35t-14.5 -34.5t-34.5 -14.5zM401 631q-21 0 -35.5 14.5t-14.5 34.5t14.5 35t35.5 15q20 0 34.5 -15t14.5 -35t-14.5 -34.5t-34.5 -14.5zM537 631q-21 0 -35.5 14.5t-14.5 34.5t14.5 35t35.5 15 q20 0 34.5 -15t14.5 -35t-14.5 -34.5t-34.5 -14.5z" />
<glyph unicode="&#x6ad;" horiz-adv-x="412" arabic-form="initial" d="M157 796q-21 0 -35.5 14.5t-14.5 34.5t14.5 35t35.5 15q20 0 34.5 -15t14.5 -35t-14.5 -34.5t-34.5 -14.5zM262 722q-21 0 -35.5 14.5t-14.5 34.5t14.5 35t35.5 15q20 0 34.5 -15t14.5 -35t-14.5 -34.5t-34.5 -14.5zM147 671q-21 0 -35.5 14.5t-14.5 34.5t14.5 35 t35.5 15q20 0 34.5 -15t14.5 -35t-14.5 -34.5t-34.5 -14.5zM0 -5l10 82h94q59 0 93.5 6.5t51 17t22 23t5.5 25.5q0 23 -17.5 57t-71.5 88q-37 38 -74 67t-61 49t-24 29q0 23 5.5 43t15.5 31q40 43 125.5 86.5t213.5 107.5l34 -74q-91 -44 -148.5 -72.5t-95 -50t-69.5 -43.5 q117 -95 179.5 -170.5t62.5 -152.5q0 -22 -8 -48t-34 -49t-78 -37.5t-140 -14.5h-91z" />
<glyph unicode="&#x6ad;" horiz-adv-x="508" arabic-form="medial" d="M125 796q-21 0 -35.5 14.5t-14.5 34.5t14.5 35t35.5 15q20 0 34.5 -15t14.5 -35t-14.5 -34.5t-34.5 -14.5zM230 722q-21 0 -35.5 14.5t-14.5 34.5t14.5 35t35.5 15q20 0 34.5 -15t14.5 -35t-14.5 -34.5t-34.5 -14.5zM115 671q-21 0 -35.5 14.5t-14.5 34.5t14.5 35 t35.5 15q20 0 34.5 -15t14.5 -35t-14.5 -34.5t-34.5 -14.5zM0 -5l10 82h77q83 0 123 9t52.5 24t12.5 31q0 24 -18 53t-46 59.5t-59.5 60.5t-59.5 55t-46 43.5t-18 26.5q0 23 5.5 43t15.5 31q27 29 79.5 60.5t120.5 65t139 68.5l34 -74q-88 -44 -172.5 -85t-147.5 -85 q55 -47 103 -91t89 -94.5t75 -114.5q21 -39 49 -57t55.5 -23.5t44.5 -5.5q21 0 30.5 -11.5t9.5 -27.5t-14 -29.5t-36 -13.5q-24 0 -55.5 6.5t-63.5 25t-56 54.5q-20 -29 -50 -48t-78 -28.5t-122 -9.5h-83z" />
<glyph unicode="&#x6c7;" horiz-adv-x="447" arabic-form="isolated" d="M227 -250q-39 0 -96 23.5t-91 51.5l17 39q64 -22 143 -22q87 0 150.5 52t96.5 154l-1 5v4q-69 -67 -158 -67q-67 0 -107 41.5t-40 110.5q0 60 23.5 118t63 94t79.5 36q48 0 90.5 -44t68 -117.5t25.5 -143.5q0 -84 -37 -164.5t-97 -125.5t-130 -45zM316 86q34 0 59.5 6 t59.5 21q-21 78 -62 127.5t-84 49.5q-24 0 -47.5 -17.5t-39.5 -46t-16 -51.5q0 -43 34 -66t96 -23zM77 506q31 5 68.5 19.5t70.5 35.5q-22 10 -38.5 28t-16.5 43q0 22 13 43t33.5 34.5t39.5 13.5q22 0 36.5 -25t14.5 -70q0 -19 -7 -38q24 -3 47 -3q-2 -23 -16.5 -31.5 t-43.5 -8.5h-9l-9 1q-33 -34 -72 -57t-68 -23q-20 0 -31.5 10t-11.5 28zM197 653q0 -36 57 -54q7 12 7 26q0 22 -9 36.5t-23 14.5q-11 0 -21.5 -8t-10.5 -15z" />
<glyph unicode="&#x6c7;" horiz-adv-x="472" arabic-form="final" d="M227 -250q-39 0 -96 23.5t-91 51.5l17 39q64 -22 143 -22q152 0 224 150q-126 5 -179.5 21.5t-78.5 50.5t-25 88q0 60 23.5 118t63 94t79.5 36q48 0 89.5 -42.5t68 -118.5t26.5 -154v-5h70q10 0 10 -10v-70q0 -10 -10 -10h-40l-42 1q-18 -69 -56 -124.5t-88.5 -86 t-107.5 -30.5zM443 81q-10 60 -34 111t-55.5 79.5t-64.5 28.5q-24 0 -48 -18t-39.5 -46t-15.5 -51q0 -37 29 -59.5t99 -35.5q32 -7 129 -9zM7 373q31 5 68.5 19.5t70.5 35.5q-22 10 -38.5 28t-16.5 43q0 22 13 43t33.5 34.5t39.5 13.5q22 0 36.5 -25t14.5 -70q0 -19 -7 -38 q24 -3 47 -3q-2 -23 -16.5 -31.5t-43.5 -8.5h-9l-9 1q-33 -34 -72 -57t-68 -23q-20 0 -31.5 10t-11.5 28zM127 520q0 -36 57 -54q7 12 7 26q0 22 -9 36.5t-23 14.5q-11 0 -21.5 -8t-10.5 -15z" />
<glyph unicode="&#x6c6;" horiz-adv-x="447" arabic-form="isolated" d="M227 -250q-39 0 -96 23.5t-91 51.5l17 39q64 -22 143 -22q87 0 150.5 52t96.5 154l-1 5v4q-69 -67 -158 -67q-67 0 -107 41.5t-40 110.5q0 60 23.5 118t63 94t79.5 36q48 0 90.5 -44t68 -117.5t25.5 -143.5q0 -84 -37 -164.5t-97 -125.5t-130 -45zM316 86q34 0 59.5 6 t59.5 21q-21 78 -62 127.5t-84 49.5q-24 0 -47.5 -17.5t-39.5 -46t-16 -51.5q0 -43 34 -66t96 -23zM273 542q6 38 28.5 92t39.5 77q12 -1 21.5 -11.5t9.5 -30.5q0 -9 -5.5 -19.5t-15 -29t-23 -48.5t-29.5 -78q-30 -18 -72 -24q-26 56 -53 109t-62 103l22 5q13 4 24 4 q19 0 34 -12t39 -52.5t42 -84.5z" />
<glyph unicode="&#x6c6;" horiz-adv-x="472" arabic-form="final" d="M227 -250q-39 0 -96 23.5t-91 51.5l17 39q64 -22 143 -22q152 0 224 150q-126 5 -179.5 21.5t-78.5 50.5t-25 88q0 60 23.5 118t63 94t79.5 36q48 0 89.5 -42.5t68 -118.5t26.5 -154v-5h70q10 0 10 -10v-70q0 -10 -10 -10h-40l-42 1q-18 -69 -56 -124.5t-88.5 -86 t-107.5 -30.5zM443 81q-10 60 -34 111t-55.5 79.5t-64.5 28.5q-24 0 -48 -18t-39.5 -46t-15.5 -51q0 -37 29 -59.5t99 -35.5q32 -7 129 -9zM287 315q6 38 28.5 92t39.5 77q12 -1 21.5 -11.5t9.5 -30.5q0 -9 -5.5 -19.5t-15 -29t-23 -48.5t-29.5 -78q-30 -18 -72 -24 q-26 56 -53 109t-62 103l22 5q13 4 24 4q19 0 34 -12t39 -52.5t42 -84.5z" />
<glyph unicode="&#x6c8;" horiz-adv-x="447" arabic-form="isolated" d="M227 -250q-39 0 -96 23.5t-91 51.5l17 39q64 -22 143 -22q87 0 150.5 52t96.5 154l-1 5v4q-69 -67 -158 -67q-67 0 -107 41.5t-40 110.5q0 60 23.5 118t63 94t79.5 36q48 0 90.5 -44t68 -117.5t25.5 -143.5q0 -84 -37 -164.5t-97 -125.5t-130 -45zM316 86q34 0 59.5 6 t59.5 21q-21 78 -62 127.5t-84 49.5q-24 0 -47.5 -17.5t-39.5 -46t-16 -51.5q0 -43 34 -66t96 -23zM312 767q11 -59 15 -98t4 -91q0 -63 -33 -108l-7 2q0 110 -22 196q-4 16 -4 28q0 25 13 44t34 27z" />
<glyph unicode="&#x6c8;" horiz-adv-x="472" arabic-form="final" d="M227 -250q-39 0 -96 23.5t-91 51.5l17 39q64 -22 143 -22q152 0 224 150q-126 5 -179.5 21.5t-78.5 50.5t-25 88q0 60 23.5 118t63 94t79.5 36q48 0 89.5 -42.5t68 -118.5t26.5 -154v-5h70q10 0 10 -10v-70q0 -10 -10 -10h-40l-42 1q-18 -69 -56 -124.5t-88.5 -86 t-107.5 -30.5zM443 81q-10 60 -34 111t-55.5 79.5t-64.5 28.5q-24 0 -48 -18t-39.5 -46t-15.5 -51q0 -37 29 -59.5t99 -35.5q32 -7 129 -9zM183 634q11 -59 15 -98t4 -91q0 -63 -33 -108l-7 2q0 110 -22 196q-4 16 -4 28q0 25 13 44t34 27z" />
<glyph unicode="&#x677;" horiz-adv-x="597" arabic-form="isolated" d="M242 -250q-39 0 -96 23.5t-91 51.5l17 39q64 -22 143 -22q87 0 150.5 52t96.5 154l-1 5v4q-69 -67 -158 -67q-67 0 -107 41.5t-40 110.5q0 60 23.5 118t63 94t79.5 36q48 0 90.5 -44t68 -117.5t25.5 -143.5q0 -84 -37 -164.5t-97 -125.5t-130 -45zM331 86q34 0 59.5 6 t59.5 21q-21 78 -62 127.5t-84 49.5q-24 0 -47.5 -17.5t-39.5 -46t-16 -51.5q0 -43 34 -66t96 -23zM40 429q31 5 68.5 19.5t70.5 35.5q-22 10 -38.5 28t-16.5 43q0 22 13 43t33.5 34.5t39.5 13.5q22 0 36.5 -25t14.5 -70q0 -19 -7 -38q24 -3 47 -3q-2 -23 -16.5 -31.5 t-43.5 -8.5h-9l-9 1q-33 -34 -72 -57t-68 -23q-20 0 -31.5 10t-11.5 28zM160 576q0 -36 57 -54q7 12 7 26q0 22 -9 36.5t-23 14.5q-11 0 -21.5 -8t-10.5 -15zM539 609l1 6q0 6 -5.5 12.5t-13.5 6.5q-22 0 -41 -16.5t-28 -39.5q23 -30 72 -30q26 0 71 10l-3 -57 q-64 -17 -100 -31.5t-83 -39.5l-3 57q14 9 29 17t29 16q-54 10 -54 59q0 27 15.5 54t42 45t51.5 18q28 0 43 -14t15 -41q0 -8 -3 -20.5t-7 -19.5z" />
<glyph unicode="&#x6cb;" horiz-adv-x="447" arabic-form="isolated" d="M227 -250q-39 0 -96 23.5t-91 51.5l17 39q64 -22 143 -22q87 0 150.5 52t96.5 154l-1 5v4q-69 -67 -158 -67q-67 0 -107 41.5t-40 110.5q0 60 23.5 118t63 94t79.5 36q48 0 90.5 -44t68 -117.5t25.5 -143.5q0 -84 -37 -164.5t-97 -125.5t-130 -45zM316 86q34 0 59.5 6 t59.5 21q-21 78 -62 127.5t-84 49.5q-24 0 -47.5 -17.5t-39.5 -46t-16 -51.5q0 -43 34 -66t96 -23zM323 682q-47 -50 -68 -65q-43 29 -74 65q26 23 70 72q13 -18 36 -40t36 -32zM235 550q-26 -39 -70 -80q-47 36 -78 72q21 19 76 79q8 -9 72 -71zM422 567q-26 -39 -70 -80 q-46 35 -78 72q21 19 76 79q10 -11 72 -71z" />
<glyph unicode="&#x6cb;" horiz-adv-x="472" arabic-form="final" d="M227 -250q-39 0 -96 23.5t-91 51.5l17 39q64 -22 143 -22q152 0 224 150q-126 5 -179.5 21.5t-78.5 50.5t-25 88q0 60 23.5 118t63 94t79.5 36q48 0 89.5 -42.5t68 -118.5t26.5 -154v-5h70q10 0 10 -10v-70q0 -10 -10 -10h-40l-42 1q-18 -69 -56 -124.5t-88.5 -86 t-107.5 -30.5zM443 81q-10 60 -34 111t-55.5 79.5t-64.5 28.5q-24 0 -48 -18t-39.5 -46t-15.5 -51q0 -37 29 -59.5t99 -35.5q32 -7 129 -9zM235 544q-21 0 -35.5 14.5t-14.5 34.5t14.5 35t35.5 15q20 0 34.5 -15t14.5 -35t-14.5 -34.5t-34.5 -14.5zM167 434 q-21 0 -35.5 14.5t-14.5 34.5t14.5 35t35.5 15q20 0 34.5 -15t14.5 -35t-14.5 -34.5t-34.5 -14.5zM303 434q-21 0 -35.5 14.5t-14.5 34.5t14.5 35t35.5 15q20 0 34.5 -15t14.5 -35t-14.5 -34.5t-34.5 -14.5z" />
<glyph unicode="&#x6c5;" horiz-adv-x="447" arabic-form="isolated" d="M227 -250q-39 0 -96 23.5t-91 51.5l17 39q64 -22 143 -22q71 0 127 35q-11 4 -20 8t-19 7t-20.5 5t-23.5 2q-21 0 -55 -15l-18 30q30 23 44 29t30 6q25 0 60 -13q46 -18 66 -22q49 51 76 134l-1 5v4q-69 -67 -158 -67q-67 0 -107 41.5t-40 110.5q0 60 23.5 118t63 94 t79.5 36q48 0 90.5 -44t68 -117.5t25.5 -143.5q0 -84 -37 -164.5t-97 -125.5t-130 -45zM316 86q34 0 59.5 6t59.5 21q-21 78 -62 127.5t-84 49.5q-24 0 -47.5 -17.5t-39.5 -46t-16 -51.5q0 -43 34 -66t96 -23z" />
<glyph unicode="&#x6c5;" horiz-adv-x="472" arabic-form="final" d="M72 -103v59h223q7 18 12 39h-74q-45 0 -83.5 13t-62 40.5t-23.5 72.5q0 38 13 75t35.5 67.5t53 49t66.5 18.5q67 0 114 -61t50 -193h86q21 0 30.5 -11.5t9.5 -27.5t-14 -29.5t-36 -13.5h-81q-13 -83 -57.5 -132.5t-112.5 -72t-151 -22.5h-12t-12 1l-6 79q72 2 125 12 t87 37h-180zM271 77h43q0 83 -26 128t-64 45q-21 0 -39 -16t-29.5 -42t-11.5 -55q0 -35 31.5 -47.5t95.5 -12.5z" />
<glyph unicode="&#x6c9;" horiz-adv-x="447" arabic-form="isolated" d="M227 -250q-39 0 -96 23.5t-91 51.5l17 39q64 -22 143 -22q87 0 150.5 52t96.5 154l-1 5v4q-69 -67 -158 -67q-67 0 -107 41.5t-40 110.5q0 60 23.5 118t63 94t79.5 36q48 0 90.5 -44t68 -117.5t25.5 -143.5q0 -84 -37 -164.5t-97 -125.5t-130 -45zM316 86q34 0 59.5 6 t59.5 21q-21 78 -62 127.5t-84 49.5q-24 0 -47.5 -17.5t-39.5 -46t-16 -51.5q0 -43 34 -66t96 -23zM259 638q-6 -38 -28.5 -92t-39.5 -77q-12 1 -21.5 11.5t-9.5 30.5q0 9 5.5 19.5t15 29t23 48.5t29.5 78q28 17 72 24q26 -56 53 -109t62 -103l-22 -5q-13 -4 -25 -4 q-24 0 -41.5 19.5t-33 45.5t-39.5 84z" />
<glyph unicode="&#x6c9;" horiz-adv-x="472" arabic-form="final" d="M227 -250q-39 0 -96 23.5t-91 51.5l17 39q64 -22 143 -22q152 0 224 150q-126 5 -179.5 21.5t-78.5 50.5t-25 88q0 60 23.5 118t63 94t79.5 36q48 0 89.5 -42.5t68 -118.5t26.5 -154v-5h70q10 0 10 -10v-70q0 -10 -10 -10h-40l-42 1q-18 -69 -56 -124.5t-88.5 -86 t-107.5 -30.5zM443 81q-10 60 -34 111t-55.5 79.5t-64.5 28.5q-24 0 -48 -18t-39.5 -46t-15.5 -51q0 -37 29 -59.5t99 -35.5q32 -7 129 -9zM225 437q-6 -38 -28.5 -92t-39.5 -77q-12 1 -21.5 11.5t-9.5 30.5q0 9 5.5 19.5t15 29t23 48.5t29.5 78q28 17 72 24q26 -56 53 -109 t62 -103l-22 -5q-13 -4 -25 -4q-24 0 -41.5 19.5t-33 45.5t-39.5 84z" />
<glyph unicode="&#x6d0;" horiz-adv-x="760" arabic-form="isolated" d="M644 -66q-30 5 -62 8q-91 7 -134.5 22t-65.5 48t-22 85q0 57 39.5 126t95.5 118t101 49q35 0 56.5 -23t34.5 -79l-42 -12q-8 11 -16 14.5t-22 3.5q-31 0 -77.5 -32.5t-82 -78.5t-45.5 -90q18 -17 48.5 -27t80.5 -17q63 -9 94.5 -21t46 -33.5t14.5 -59.5 q0 -53 -63.5 -119.5t-156.5 -111t-173 -44.5q-101 0 -157 58t-56 163q0 37 4 64.5t19 87.5l43 -10q-13 -50 -13 -84q0 -87 43 -134.5t120 -47.5q56 0 129 24.5t135.5 67t83.5 85.5zM617 -528q-19 -28 -49 -56q-40 33 -54 51q22 20 53 55l26 -26zM602 -390q-15 -23 -49 -56 q-35 28 -55 50q28 27 54 56q22 -24 50 -50z" />
<glyph unicode="&#x6d0;" horiz-adv-x="736" arabic-form="final" d="M815 -10q-39 0 -93 6t-89 15l106 -57q18 -11 22.5 -28.5t4.5 -40.5q0 -52 -66.5 -105.5t-168 -86.5t-198.5 -33q-121 0 -187 58t-66 163q0 37 4 64.5t19 87.5l43 -10q-13 -50 -13 -84q0 -85 53.5 -133.5t149.5 -48.5q138 0 243.5 34t144.5 93l-23 13q-186 100 -186 123 q0 14 7.5 32.5t18.5 32.5t14 14h2q104 -19 258 -19q13 0 13 -13v-65q0 -12 -13 -12zM326 -419q-21 0 -35.5 14.5t-14.5 34.5t14.5 35t35.5 15q20 0 34.5 -15t14.5 -35t-14.5 -34.5t-34.5 -14.5zM327 -548q-21 0 -35.5 14.5t-14.5 34.5t14.5 35t35.5 15q20 0 34.5 -15 t14.5 -35t-14.5 -34.5t-34.5 -14.5z" />
<glyph unicode="&#x6d0;" horiz-adv-x="403" arabic-form="initial" d="M0 -10q-10 0 -10 10v70q0 10 10 10q42 0 101 4.5t108 14.5t79 24q-14 52 -42 129q-22 61 -23 79q0 27 22 54t55 45q5 -34 12.5 -68t14.5 -66.5t12 -63t5 -57.5q0 -38 -41 -120q-50 -30 -135 -47.5t-168 -17.5zM264 -356q-27 -40 -70 -80q-49 38 -78 72q26 23 76 79 q10 -11 72 -71zM242 -159q-26 -38 -70 -80q-48 37 -78 72q23 21 76 79q20 -21 37.5 -37.5t34.5 -33.5z" />
<glyph unicode="&#x6d0;" horiz-adv-x="423" arabic-form="medial" d="M314 258q17 0 29 -9q-34 -83 -57 -125q69 -44 148 -44q10 0 10 -10v-70q0 -10 -10 -10q-109 0 -186 69l-9 -14l-10 -12q-7 -8 -44.5 -18.5t-86 -17.5t-98.5 -7q-10 0 -10 10v70q0 10 10 10q156 0 195 27q13 8 27.5 31.5t34.5 62.5l21 38q11 19 36 19zM310 -355 q-27 -40 -70 -80q-49 38 -78 72q26 23 76 79q10 -11 72 -71zM288 -158q-26 -38 -70 -80q-48 37 -78 72q23 21 76 79q20 -21 37.5 -37.5t34.5 -33.5z" />
<glyph unicode="&#x649;" horiz-adv-x="324" arabic-form="initial" d="M0 -10q-10 0 -10 10v70q0 10 10 10q52 0 109 11.5t99 31.5q-14 52 -42 129q-22 61 -23 79q0 27 21.5 54t55.5 45q5 -34 12.5 -68t14.5 -66.5t12 -63t5 -57.5q0 -38 -41 -120q-109 -65 -223 -65z" />
<glyph unicode="&#x649;" horiz-adv-x="344" arabic-form="medial" d="M0 -10q-10 0 -10 10v70q0 10 10 10q50 0 82.5 11t49 32t45.5 78l21 38q10 19 36 19q18 0 29 -9q-33 -79 -57 -125q69 -44 148 -44q10 0 10 -10v-70q0 -10 -10 -10q-109 0 -186 69l-9 -14l-10 -12q-7 -9 -31 -19.5t-55 -17t-63 -6.5z" />
<glyph unicode="&#xfbea;" horiz-adv-x="560" arabic-form="isolated" d="M291 -10q-10 0 -10 10v70q0 10 10 10q52 0 109 11.5t99 31.5q-14 52 -42 129q-22 61 -23 79q0 27 21.5 54t55.5 45q5 -34 12.5 -68t14.5 -66.5t12 -63t5 -57.5q0 -38 -41 -120q-109 -65 -223 -65zM491 631l1 6q0 6 -5.5 12.5t-13.5 6.5q-20 0 -40 -15.5t-29 -40.5 q23 -29 71 -30q26 0 72 10l-3 -57q-65 -18 -101.5 -32.5t-81.5 -38.5l-3 57q13 9 28.5 17t29.5 16q-54 10 -54 59q0 27 15.5 54t42.5 45t51 18q28 0 43 -14t15 -41q0 -8 -3 -20t-7 -20zM169 780q7 -143 13 -498l3 -172q54 -30 123 -30q10 0 10 -10v-70q0 -10 -10 -10 q-69 0 -115 27.5t-52 75.5q-20 162 -40 464l-11 157q35 37 79 66z" />
<glyph unicode="&#xfbeb;" horiz-adv-x="634" arabic-form="final" d="M291 -10q-10 0 -10 10v70q0 10 10 10q50 0 82.5 11t49 32t45.5 78l21 38q10 19 36 19q18 0 29 -9q-33 -79 -57 -125q69 -44 148 -44q10 0 10 -10v-70q0 -10 -10 -10q-109 0 -186 69l-9 -14l-10 -12q-7 -9 -31 -19.5t-55 -17t-63 -6.5zM492 487l1 6q0 6 -5.5 12.5 t-13.5 6.5q-20 0 -40 -15.5t-29 -40.5q23 -29 71 -30q26 0 72 10l-3 -57q-65 -18 -101.5 -32.5t-81.5 -38.5l-3 57q13 9 28.5 17t29.5 16q-54 10 -54 59q0 27 15.5 54t42.5 45t51 18q28 0 43 -14t15 -41q0 -8 -3 -20t-7 -20zM169 780q7 -143 13 -498l3 -172q54 -30 123 -30 q10 0 10 -10v-70q0 -10 -10 -10q-69 0 -115 27.5t-52 75.5q-20 162 -40 464l-11 157q35 37 79 66z" />
<glyph unicode="&#xfbec;" horiz-adv-x="755" arabic-form="isolated" d="M486 -10q-10 0 -10 10v70q0 10 10 10q52 0 109 11.5t99 31.5q-14 52 -42 129q-22 61 -23 79q0 27 21.5 54t55.5 45q5 -34 12.5 -68t14.5 -66.5t12 -63t5 -57.5q0 -38 -41 -120q-109 -65 -223 -65zM686 631l1 6q0 6 -5.5 12.5t-13.5 6.5q-20 0 -40 -15.5t-29 -40.5 q23 -29 71 -30q26 0 72 10l-3 -57q-65 -18 -101.5 -32.5t-81.5 -38.5l-3 57q13 9 28.5 17t29.5 16q-54 10 -54 59q0 27 15.5 54t42.5 45t51 18q28 0 43 -14t15 -41q0 -8 -3 -20t-7 -20zM328 59q-61 5 -94.5 13t-73 27t-60 36.5t-20.5 32.5t15.5 52t26.5 57q17 32 74.5 73.5 t127.5 70.5l-6 49q23 22 44.5 36.5t44.5 29.5q4 -201 10 -351l3 -75q53 -30 122 -30q10 0 10 -10v-70q0 -10 -10 -10q-71 0 -115 26.5t-52 76.5l-7 42zM365 155l-30 190q-140 -50 -198 -123q30 -23 57 -36.5t70.5 -21.5t100.5 -9z" />
<glyph unicode="&#xfbed;" horiz-adv-x="829" arabic-form="final" d="M486 -10q-10 0 -10 10v70q0 10 10 10q50 0 82.5 11t49 32t45.5 78l21 38q10 19 36 19q18 0 29 -9q-33 -79 -57 -125q69 -44 148 -44q10 0 10 -10v-70q0 -10 -10 -10q-109 0 -186 69l-9 -14l-10 -12q-7 -9 -31 -19.5t-55 -17t-63 -6.5zM687 487l1 6q0 6 -5.5 12.5 t-13.5 6.5q-20 0 -40 -15.5t-29 -40.5q23 -29 71 -30q26 0 72 10l-3 -57q-65 -18 -101.5 -32.5t-81.5 -38.5l-3 57q13 9 28.5 17t29.5 16q-54 10 -54 59q0 27 15.5 54t42.5 45t51 18q28 0 43 -14t15 -41q0 -8 -3 -20t-7 -20zM328 59q-61 5 -94.5 13t-73 27t-60 36.5 t-20.5 32.5t15.5 52t26.5 57q17 32 74.5 73.5t127.5 70.5l-6 49q23 22 44.5 36.5t44.5 29.5q4 -201 10 -351l3 -75q53 -30 122 -30q10 0 10 -10v-70q0 -10 -10 -10q-71 0 -115 26.5t-52 76.5l-7 42zM365 155l-30 190q-140 -50 -198 -123q30 -23 57 -36.5t70.5 -21.5 t100.5 -9z" />
<glyph unicode="&#xfbee;" horiz-adv-x="741" arabic-form="isolated" d="M472 -10q-10 0 -10 10v70q0 10 10 10q52 0 109 11.5t99 31.5q-14 52 -42 129q-22 61 -23 79q0 27 21.5 54t55.5 45q5 -34 12.5 -68t14.5 -66.5t12 -63t5 -57.5q0 -38 -41 -120q-109 -65 -223 -65zM672 631l1 6q0 6 -5.5 12.5t-13.5 6.5q-20 0 -40 -15.5t-29 -40.5 q23 -29 71 -30q26 0 72 10l-3 -57q-65 -18 -101.5 -32.5t-81.5 -38.5l-3 57q13 9 28.5 17t29.5 16q-54 10 -54 59q0 27 15.5 54t42.5 45t51 18q28 0 43 -14t15 -41q0 -8 -3 -20t-7 -20zM227 -250q-39 0 -96 23.5t-91 51.5l17 39q64 -22 143 -22q152 0 224 150 q-126 5 -179.5 21.5t-78.5 50.5t-25 88q0 60 23.5 118t63 94t79.5 36q48 0 89.5 -42.5t68 -118.5t26.5 -154v-5h70q10 0 10 -10v-70q0 -10 -10 -10h-40l-42 1q-18 -69 -56 -124.5t-88.5 -86t-107.5 -30.5zM443 81q-10 60 -34 111t-55.5 79.5t-64.5 28.5q-24 0 -48 -18 t-39.5 -46t-15.5 -51q0 -37 29 -59.5t99 -35.5q32 -7 129 -9z" />
<glyph unicode="&#xfbef;" horiz-adv-x="815" arabic-form="final" d="M472 -10q-10 0 -10 10v70q0 10 10 10q50 0 82.5 11t49 32t45.5 78l21 38q10 19 36 19q18 0 29 -9q-33 -79 -57 -125q69 -44 148 -44q10 0 10 -10v-70q0 -10 -10 -10q-109 0 -186 69l-9 -14l-10 -12q-7 -9 -31 -19.5t-55 -17t-63 -6.5zM673 487l1 6q0 6 -5.5 12.5 t-13.5 6.5q-20 0 -40 -15.5t-29 -40.5q23 -29 71 -30q26 0 72 10l-3 -57q-65 -18 -101.5 -32.5t-81.5 -38.5l-3 57q13 9 28.5 17t29.5 16q-54 10 -54 59q0 27 15.5 54t42.5 45t51 18q28 0 43 -14t15 -41q0 -8 -3 -20t-7 -20zM227 -250q-39 0 -96 23.5t-91 51.5l17 39 q64 -22 143 -22q152 0 224 150q-126 5 -179.5 21.5t-78.5 50.5t-25 88q0 60 23.5 118t63 94t79.5 36q48 0 89.5 -42.5t68 -118.5t26.5 -154v-5h70q10 0 10 -10v-70q0 -10 -10 -10h-40l-42 1q-18 -69 -56 -124.5t-88.5 -86t-107.5 -30.5zM443 81q-10 60 -34 111t-55.5 79.5 t-64.5 28.5q-24 0 -48 -18t-39.5 -46t-15.5 -51q0 -37 29 -59.5t99 -35.5q32 -7 129 -9z" />
</font>
</defs>
</svg>
