<?xml version="1.0" standalone="no"?>
<!DOCTYPE svg PUBLIC "-//W3C//DTD SVG 1.1//EN" "http://www.w3.org/Graphics/SVG/1.1/DTD/svg11.dtd" >
<svg xmlns="http://www.w3.org/2000/svg" xmlns:xlink="http://www.w3.org/1999/xlink" version="1.1">
<metadata></metadata>
<defs>
<font id="sahl_naskhbold" horiz-adv-x="0" >
<font-face units-per-em="2048" ascent="1638" descent="-410" />
<missing-glyph horiz-adv-x="532" />
<glyph unicode="&#x627;&#xfedf;&#xfee0;&#xfeea;" horiz-adv-x="2824" arabic-form="isolated" d="M684 51q-103 8 -152.5 17.5t-105.5 27.5q-98 38 -180 96.5t-82 100.5q0 32 40 145t69 152.5t90 91.5t135 100.5t151 85.5l-7 47l-5 48q86 70 131.5 101t118.5 75l-2 -463l2 -346q112 -61 237 -64h23q101 5 201 45q-22 144 -52 420q-30 268 -67 486l124 75l132 78l-9 -397 q-8 -302 -8 -639q55 -38 116.5 -53t144.5 -15q116 9 237 53q-38 291 -88.5 569.5t-99.5 549.5l286 159q8 -398 18.5 -706t10.5 -529q0 -80 -22 -154.5t-72 -152.5q-23 -34 -99 -54.5t-188 -20.5h-6q-184 7 -268 83q-149 -77 -289 -83h-27q-133 2 -219 48.5t-102 129.5 l-21 90zM2619 1237v-258l-12 -979l-156 -20l-27 383l-78 1026q0 61 33 107.5t94.5 73.5t131.5 27q30 -111 45 -157.5t51 -139.5zM1520 1855q22 -46 37.5 -101t15.5 -89q0 -69 -47.5 -125.5t-112.5 -56.5q-51 0 -88 41q-25 -47 -61 -74t-76 -27q-57 0 -94 37t-37 105 q0 28 10 65.5t27 67.5l51 -10q-8 -42 -8 -78q0 -68 57 -68q28 0 45.5 20t17.5 54l-4 98l80 49q13 -96 36 -128.5t65 -32.5q14 0 27 7.5t18 18.5q-9 28 -43 101q-6 13 -6 26q0 34 28 65.5t62 34.5zM758 336q-42 172 -70 315q-131 -45 -211 -91.5t-141 -106.5q60 -43 122 -65 t139.5 -35.5t160.5 -16.5zM1325 2474q23 -120 31 -201t8 -186q0 -59 -23 -119t-63 -108l-27 10q0 227 -44 400q-9 33 -9 59q0 42 36.5 83.5t90.5 61.5z" />
<glyph unicode="&#xfedf;&#xfe82;" horiz-adv-x="1427" arabic-form="isolated" d="M449 -41q-6 0 -6 37q0 55 13.5 142t23.5 87l64 -1l34 1q224 178 317 328q-188 188 -471 362l-88 -6q-143 73 -143 217q0 66 36.5 117.5t96.5 85.5q135 -96 323 -269.5t326 -332.5q23 78 23 164q0 67 -50 352q-26 146 -26 184q0 92 69 150.5t185 60.5q22 -85 38 -136 t58 -161l-78 -59l9 -272q0 -216 -113 -424q108 -146 140.5 -196t53.5 -88.5t21 -55.5q0 -47 -41 -145.5t-55 -100.5q-88 -17 -277.5 -29t-482.5 -12zM1147 272l-149 174q-89 -109 -215 -213q198 11 364 39zM625 1456q-81 0 -154.5 16.5t-156.5 44.5q-99 -32 -178 -73l-54 75 q72 77 139 120.5t109 43.5q19 0 50.5 -8t71.5 -17.5t86.5 -17.5t96.5 -8q48 0 109 15t115 40l47 -69q-68 -74 -146.5 -118t-134.5 -44z" />
<glyph unicode="&#xfee0;&#xfe82;" horiz-adv-x="1520" arabic-form="final" d="M797 422q66 89 114.5 225.5t71.5 324.5t25 464q55 32 124 79q68 45 132 82q0 -638 10 -1263q57 -38 119 -53t147 -15q21 0 21 -20v-246q0 -20 -21 -20q-159 0 -253.5 55t-112.5 162q-25 145 -47 519l-15 175l-12 -127q-22 -237 -53 -344q-63 -212 -142 -306.5 t-198 -109.5q-267 -31 -553 -37l-13 107q232 60 359 114.5t207 128.5q-161 324 -428 580h-89q-64 67 -86 114.5t-22 104.5q0 71 34.5 112.5t121.5 69.5q98 -63 200 -192.5t201 -319.5t158 -364zM674 1440q-81 0 -154.5 16.5t-156.5 44.5q-99 -32 -178 -73l-54 75 q72 77 139 120.5t109 43.5q19 0 50.5 -8t71.5 -17.5t86.5 -17.5t96.5 -8q48 0 109 15t115 40l47 -69q-68 -74 -146.5 -118t-134.5 -44z" />
<glyph unicode="&#xfedf;&#xfe84;" horiz-adv-x="1317" arabic-form="isolated" d="M338 -41q-6 0 -6 37q0 55 13.5 142t23.5 87l64 -1l34 1q224 178 317 328q-188 188 -471 362l-88 -6q-143 73 -143 217q0 66 36.5 117.5t96.5 85.5q135 -96 323 -269.5t326 -332.5q23 78 23 164q0 67 -50 352q-26 146 -26 184q0 92 69 150.5t185 60.5q22 -85 38 -136 t58 -161l-78 -59l9 -272q0 -216 -113 -424q108 -146 140.5 -196t53.5 -88.5t21 -55.5q0 -47 -41 -145.5t-55 -100.5q-88 -17 -277.5 -29t-482.5 -12zM1036 272l-149 174q-89 -109 -215 -213q198 11 364 39zM346 1757l1 7q0 28 -38 28q-66 0 -104 -74q55 -55 148 -55 q51 0 118 14l-12 -133q-104 -24 -180 -50.5t-187 -84.5l-8 125l109 64q-97 37 -97 116q0 52 33.5 109.5t84 94t93.5 36.5q111 0 111 -135q0 -39 -14 -72z" />
<glyph unicode="&#xfee0;&#xfe84;" horiz-adv-x="1520" arabic-form="final" d="M797 422q66 89 114.5 225.5t71.5 324.5t25 464q55 32 124 79q68 45 132 82q0 -638 10 -1263q57 -38 119 -53t147 -15q21 0 21 -20v-246q0 -20 -21 -20q-159 0 -253.5 55t-112.5 162q-25 145 -47 519l-15 175l-12 -127q-22 -237 -53 -344q-63 -212 -142 -306.5 t-198 -109.5q-267 -31 -553 -37l-13 107q232 60 359 114.5t207 128.5q-161 324 -428 580h-89q-64 67 -86 114.5t-22 104.5q0 71 34.5 112.5t121.5 69.5q98 -63 200 -192.5t201 -319.5t158 -364zM346 1757l1 7q0 28 -38 28q-66 0 -104 -74q55 -55 148 -55q51 0 118 14 l-12 -133q-104 -24 -180 -50.5t-187 -84.5l-8 125l109 64q-97 37 -97 116q0 52 33.5 109.5t84 94t93.5 36.5q111 0 111 -135q0 -39 -14 -72z" />
<glyph unicode="&#xfedf;&#xfe88;" horiz-adv-x="1317" arabic-form="isolated" d="M467 -313l1 7q0 28 -38 28q-66 0 -104 -74q55 -55 148 -55q51 0 118 14l-12 -133q-104 -24 -180 -50.5t-187 -84.5l-8 125l109 64q-97 37 -97 116q0 52 33.5 109.5t84 94t93.5 36.5q111 0 111 -135q0 -39 -14 -72zM338 -41q-6 0 -6 37q0 55 13.5 142t23.5 87l64 -1l34 1 q224 178 317 328q-188 188 -471 362l-88 -6q-143 73 -143 217q0 66 36.5 117.5t96.5 85.5q135 -96 323 -269.5t326 -332.5q23 78 23 164q0 67 -50 352q-26 146 -26 184q0 92 69 150.5t185 60.5q22 -85 38 -136t58 -161l-78 -59l9 -272q0 -216 -113 -424q108 -146 140.5 -196 t53.5 -88.5t21 -55.5q0 -47 -41 -145.5t-55 -100.5q-88 -17 -277.5 -29t-482.5 -12zM1036 272l-149 174q-89 -109 -215 -213q198 11 364 39z" />
<glyph unicode="&#xfee0;&#xfe88;" horiz-adv-x="1520" arabic-form="final" d="M467 -313l1 7q0 28 -38 28q-66 0 -104 -74q55 -55 148 -55q51 0 118 14l-12 -133q-104 -24 -180 -50.5t-187 -84.5l-8 125l109 64q-97 37 -97 116q0 52 33.5 109.5t84 94t93.5 36.5q111 0 111 -135q0 -39 -14 -72zM797 422q66 89 114.5 225.5t71.5 324.5t25 464 q55 32 124 79q68 45 132 82q0 -638 10 -1263q57 -38 119 -53t147 -15q21 0 21 -20v-246q0 -20 -21 -20q-159 0 -253.5 55t-112.5 162q-25 145 -47 519l-15 175l-12 -127q-22 -237 -53 -344q-63 -212 -142 -306.5t-198 -109.5q-267 -31 -553 -37l-13 107q232 60 359 114.5 t207 128.5q-161 324 -428 580h-89q-64 67 -86 114.5t-22 104.5q0 71 34.5 112.5t121.5 69.5q98 -63 200 -192.5t201 -319.5t158 -364z" />
<glyph unicode="&#xfedf;&#xfe8e;" horiz-adv-x="1317" arabic-form="isolated" d="M338 -41q-6 0 -6 37q0 55 13.5 142t23.5 87l64 -1l34 1q224 178 317 328q-188 188 -471 362l-88 -6q-143 73 -143 217q0 66 36.5 117.5t96.5 85.5q135 -96 323 -269.5t326 -332.5q23 78 23 164q0 67 -50 352q-26 146 -26 184q0 92 69 150.5t185 60.5q22 -85 38 -136 t58 -161l-78 -59l9 -272q0 -216 -113 -424q108 -146 140.5 -196t53.5 -88.5t21 -55.5q0 -47 -41 -145.5t-55 -100.5q-88 -17 -277.5 -29t-482.5 -12zM1036 272l-149 174q-89 -109 -215 -213q198 11 364 39z" />
<glyph unicode="&#xfee0;&#xfe8e;" horiz-adv-x="1520" arabic-form="final" d="M797 422q66 89 114.5 225.5t71.5 324.5t25 464q55 32 124 79q68 45 132 82q0 -638 10 -1263q57 -38 119 -53t147 -15q21 0 21 -20v-246q0 -20 -21 -20q-159 0 -253.5 55t-112.5 162q-25 145 -47 519l-15 175l-12 -127q-22 -237 -53 -344q-63 -212 -142 -306.5 t-198 -109.5q-267 -31 -553 -37l-13 107q232 60 359 114.5t207 128.5q-161 324 -428 580h-89q-64 67 -86 114.5t-22 104.5q0 71 34.5 112.5t121.5 69.5q98 -63 200 -192.5t201 -319.5t158 -364z" />
<glyph unicode="&#xfedf;&#xfb51;" horiz-adv-x="1317" d="M338 -41q-6 0 -6 37q0 55 13.5 142t23.5 87l64 -1l34 1q224 178 317 328q-188 188 -471 362l-88 -6q-143 73 -143 217q0 66 36.5 117.5t96.5 85.5q135 -96 323 -269.5t326 -332.5q23 78 23 164q0 67 -50 352q-26 146 -26 184q0 92 69 150.5t185 60.5q22 -85 38 -136 t58 -161l-78 -59l9 -272q0 -216 -113 -424q108 -146 140.5 -196t53.5 -88.5t21 -55.5q0 -47 -41 -145.5t-55 -100.5q-88 -17 -277.5 -29t-482.5 -12zM1036 272l-149 174q-89 -109 -215 -213q198 11 364 39zM557 1384q-51 0 -98.5 15.5t-116.5 50.5q-52 -26 -92 -66l-53 47 q52 84 92 118t84 34q8 0 37 -13q104 164 223 164q50 0 94.5 -56.5t44.5 -125.5q0 -22 -6 -56t-16 -59q-45 -31 -89.5 -42t-103.5 -11zM612 1609q-62 0 -141 -71q42 -21 86 -21q61 0 84 5t63 22q-34 65 -92 65z" />
<glyph unicode="&#xfee0;&#xfb51;" horiz-adv-x="1520" d="M797 422q66 89 114.5 225.5t71.5 324.5t25 464q55 32 124 79q68 45 132 82q0 -638 10 -1263q57 -38 119 -53t147 -15q21 0 21 -20v-246q0 -20 -21 -20q-159 0 -253.5 55t-112.5 162q-25 145 -47 519l-15 175l-12 -127q-22 -237 -53 -344q-63 -212 -142 -306.5 t-198 -109.5q-267 -31 -553 -37l-13 107q232 60 359 114.5t207 128.5q-161 324 -428 580h-89q-64 67 -86 114.5t-22 104.5q0 71 34.5 112.5t121.5 69.5q98 -63 200 -192.5t201 -319.5t158 -364zM721 1262q-51 0 -98.5 15.5t-116.5 50.5q-52 -26 -92 -66l-53 47q52 84 92 118 t84 34q8 0 37 -13q104 164 223 164q50 0 94.5 -56.5t44.5 -125.5q0 -22 -6 -56t-16 -59q-45 -31 -89.5 -42t-103.5 -11zM776 1487q-62 0 -141 -71q42 -21 86 -21q61 0 84 5t63 22q-34 65 -92 65z" />
<glyph unicode="&#x66e;" horiz-adv-x="664" d="M0 -20q-20 0 -20 20v246q0 20 20 20q117 0 237 18.5t193 49.5q-32 70 -64 127t-57.5 103.5t-41 84.5t-15.5 70q0 59 66 130.5t153 113.5l31 -157q69 -326 69 -403q0 -102 -94 -290q-223 -133 -477 -133z" />
<glyph unicode="&#x66e;" horiz-adv-x="705" d="M0 -20q-20 0 -20 20v246q0 20 20 20q154 0 236 56q34 23 75 104q64 125 80 145t40 29.5t50 9.5q60 0 97 -35q-90 -212 -107 -247q117 -62 254 -62q20 0 20 -20v-246q0 -20 -20 -20q-183 0 -348 165q-18 -29 -46.5 -65.5t-78.5 -58t-113.5 -31.5t-138.5 -10z" />
<glyph unicode="&#x66e;" horiz-adv-x="2050" d="M834 -41q-300 0 -444 132.5t-144 381.5q0 57 16 136.5t31 127.5h108l-3 -26l-5 -93q0 -142 57 -220.5t173.5 -115t298.5 -36.5q257 0 438.5 31t249.5 85q23 20 40.5 46t47.5 90q34 74 61.5 92t66.5 20q60 0 97 -35l-56 -130l-52 -115q119 -64 256 -64q20 0 20 -20v-246 q0 -20 -20 -20q-194 0 -369 184q-68 -59 -191.5 -104.5t-294.5 -73t-382 -27.5z" />
<glyph unicode="&#x66f;" horiz-adv-x="1012" d="M784 395q-27 102 -45 148q-69 -51 -154 -82t-175 -31q-87 0 -149 35.5t-95 99t-33 146.5q0 125 47 244.5t124 190.5t159 71q115 0 221.5 -115t164.5 -300t58 -403q0 -77 -84 -245q-144 -90 -333.5 -132t-487.5 -42q-22 0 -22 22v242q0 22 22 22q271 0 454.5 32.5 t327.5 96.5zM457 633q96 0 229 45q-63 132 -134 191t-138 59q-59 0 -107.5 -46t-48.5 -110q0 -57 58 -98t141 -41z" />
<glyph unicode="&#x66f;" horiz-adv-x="993" d="M2 266l111 -1l57 1q-35 56 -35 113q0 48 13 134t30 118q71 125 183 209t221 84q65 0 130 -71t107.5 -185.5t42.5 -218.5q0 -92 -53 -181l102 -2h103q20 0 20 -20v-246q0 -20 -20 -20q-311 0 -516 79q-177 -79 -496 -79q-22 0 -22 22v242q0 22 22 22zM266 401 q84 -99 226 -143q146 40 235 117q-26 95 -78.5 173.5t-91.5 78.5q-71 0 -143 -60t-148 -166z" />
<glyph unicode="&#x66f;" horiz-adv-x="1524" d="M985 891q93 0 180 -78.5t151.5 -222t92.5 -324.5h135q21 0 21 -20v-246q0 -20 -21 -20h-119q-11 -144 -78 -264.5t-182.5 -211.5t-268.5 -145.5t-290 -54.5q-216 0 -329 126.5t-113 368.5q0 125 59 348l107 -26q-33 -111 -33 -191q0 -167 84 -253.5t252 -86.5 q312 0 635 246q-8 96 -15 148q-267 7 -385.5 42t-175.5 113t-57 203q0 138 52.5 267t133.5 205.5t164 76.5zM1196 268q-48 160 -115.5 248t-148.5 88q-70 0 -120 -48.5t-50 -109.5q0 -53 42 -92.5t123.5 -59.5t268.5 -26z" />
<glyph unicode="&#x672;" horiz-adv-x="694" d="M471 1462l-6 -229q-15 -500 -15 -899q57 -38 118.5 -53t145.5 -15q21 0 21 -20v-246q0 -20 -21 -20q-159 0 -253.5 55t-112.5 162q-33 190 -62 388t-92 722zM206 1771q0 52 33.5 109.5t84 94t93.5 36.5q111 0 111 -135q0 -44 -16 -72l-56 10l1 7q0 28 -38 28 q-27 0 -55.5 -17.5t-48.5 -58.5q28 -31 60.5 -50t80.5 -19q35 0 121 24l-6 -131q-70 -49 -152.5 -84t-132.5 -35q-27 0 -48 7t-39 15.5t-33.5 15.5t-32.5 7q-28 0 -50 -14t-47 -39l-59 45q28 58 72 95.5t88 37.5q20 0 67 -11t72 -11t45 8q-115 33 -115 137z" />
<glyph unicode="&#x673;" horiz-adv-x="694" d="M471 1597q-20 -880 -20 -1263q53 -36 114 -52t150 -16q20 0 20 -20v-246q0 -20 -20 -20q-163 0 -256.5 56.5t-110.5 160.5q-97 595 -164 1241zM247 -354q0 52 33.5 109.5t84 94t93.5 36.5q111 0 111 -135q0 -44 -16 -72l-56 10l1 7q0 28 -38 28q-27 0 -55.5 -17.5 t-48.5 -58.5q28 -31 60.5 -50t80.5 -19q35 0 121 24l-6 -131q-70 -49 -152.5 -84t-132.5 -35q-27 0 -48 7t-39 15.5t-33.5 15.5t-32.5 7q-28 0 -50 -14t-47 -39l-59 45q28 58 72 95.5t88 37.5q20 0 67 -11t72 -11t45 8q-115 33 -115 137z" />
<glyph unicode="&#x675;" horiz-adv-x="694" d="M480 1462l-6 -229q-15 -500 -15 -899q57 -38 118.5 -53t145.5 -15q21 0 21 -20v-246q0 -20 -21 -20q-159 0 -253.5 55t-112.5 162q-33 190 -62 388t-92 722zM846 1468l1 7q0 28 -38 28q-66 0 -104 -74q55 -55 148 -55q51 0 118 14l-12 -133q-104 -24 -180 -50.5 t-187 -84.5l-8 125l109 64q-97 37 -97 116q0 52 33.5 109.5t84 94t93.5 36.5q111 0 111 -135q0 -39 -14 -72z" />
<glyph unicode="&#x676;" horiz-adv-x="1176" d="M1049 -20q-59 -219 -218.5 -355.5t-359.5 -136.5q-48 0 -155.5 62t-192.5 135l39 100q129 -33 264 -33q149 0 273.5 62t193.5 170q-255 11 -364 47.5t-161.5 114t-52.5 196.5q0 138 52.5 267t133.5 205.5t165 76.5q94 0 178.5 -80t145.5 -227.5t77 -317.5h129 q21 0 21 -20v-246q0 -20 -21 -20h-147zM909 268q-48 161 -126 248.5t-171 87.5q-69 0 -119.5 -48t-50.5 -110q0 -133 238 -165q40 -8 229 -13zM1018 1213l1 7q0 28 -38 28q-66 0 -104 -74q55 -55 148 -55q51 0 118 14l-12 -133q-104 -24 -180 -50.5t-187 -84.5l-8 125 l109 64q-97 37 -97 116q0 52 33.5 109.5t84 94t93.5 36.5q111 0 111 -135q0 -39 -14 -72z" />
<glyph unicode="&#x677;" horiz-adv-x="1288" d="M1162 -20q-59 -219 -218.5 -355.5t-359.5 -136.5q-48 0 -155.5 62t-192.5 135l39 100q129 -33 264 -33q149 0 273.5 62t193.5 170q-255 11 -364 47.5t-161.5 114t-52.5 196.5q0 138 52.5 267t133.5 205.5t165 76.5q94 0 178.5 -80t145.5 -227.5t77 -317.5h129 q21 0 21 -20v-246q0 -20 -21 -20h-147zM1022 268q-48 161 -126 248.5t-171 87.5q-69 0 -119.5 -48t-50.5 -110q0 -133 238 -165q40 -8 229 -13zM1130 1253l1 7q0 28 -38 28q-66 0 -104 -74q55 -55 148 -55q51 0 118 14l-12 -133q-104 -24 -180 -50.5t-187 -84.5l-8 125 l109 64q-97 37 -97 116q0 52 33.5 109.5t84 94t93.5 36.5q111 0 111 -135q0 -39 -14 -72zM123 938q159 26 268 91q-107 57 -107 147q0 72 61 139.5t126 67.5q50 0 84 -60.5t34 -152.5q0 -40 -12 -80q27 -4 82 -4q0 -94 -125 -94h-26q-71 -68 -150.5 -115t-126.5 -47 q-108 0 -108 108zM379 1213q0 -64 102 -98q12 27 12 47q0 40 -18.5 68t-40.5 28q-18 0 -36.5 -15.5t-18.5 -29.5z" />
<glyph unicode="&#x678;" horiz-adv-x="1663" d="M1468 -240q-127 51 -284.5 148t-157.5 133q0 25 21 78.5t58.5 119.5t47.5 66q213 -39 524 -39q27 0 27 -26v-236q0 -24 -27 -24q-68 0 -175 10t-191 30l74 -36q100 -45 137.5 -66.5t53 -55t15.5 -98.5q0 -101 -137 -209t-353.5 -179.5t-412.5 -71.5q-257 0 -390.5 127 t-133.5 368q0 125 59 348l107 -26q-33 -111 -33 -191q0 -170 102.5 -255t315.5 -85q211 0 420 45.5t333 124.5zM1153 595l1 7q0 28 -38 28q-66 0 -104 -74q55 -55 148 -55q51 0 118 14l-12 -133q-104 -24 -180 -50.5t-187 -84.5l-8 125l109 64q-97 37 -97 116 q0 52 33.5 109.5t84 94t93.5 36.5q111 0 111 -135q0 -39 -14 -72z" />
<glyph unicode="&#x67a;" horiz-adv-x="858" arabic-form="initial" d="M0 -20q-20 0 -20 20v246q0 20 20 20q183 0 351.5 18t242.5 50q-32 70 -64 127t-57.5 103.5t-41 84.5t-15.5 70q0 59 66 130.5t153 113.5l31 -157q69 -326 69 -403q0 -102 -94 -290q-101 -61 -281 -97t-360 -36zM584 1268q-61 -94 -184 -211q-129 102 -205 190 q54 50 107 107t94 100q71 -77 188 -186zM525 1680q-63 -96 -183 -211q-132 103 -204 188q87 81 198 209q53 -56 189 -186z" />
<glyph unicode="&#x67a;" horiz-adv-x="868" arabic-form="medial" d="M0 -20q-20 0 -20 20v246q0 20 20 20q175 0 247.5 9t118 29t69 51.5t76.5 139.5q36 75 64.5 95t69.5 20q59 0 96 -35q-23 -54 -49 -118t-57 -129q117 -62 254 -62q20 0 20 -20v-246q0 -20 -20 -20q-91 0 -176 39t-172 126q-25 -42 -56 -77q-34 -39 -173.5 -63.5 t-311.5 -24.5zM631 935q-61 -94 -184 -211q-129 102 -205 190q54 50 107 107t94 100q71 -77 188 -186zM572 1347q-63 -96 -183 -211q-132 103 -204 188q87 81 198 209q53 -56 189 -186z" />
<glyph unicode="&#x67a;" horiz-adv-x="1968" arabic-form="final" d="M753 -41q-300 0 -444 132.5t-144 381.5q0 57 16 136.5t31 127.5h108l-3 -26l-5 -93q0 -142 57 -220.5t173.5 -115t298.5 -36.5q257 0 438.5 31t249.5 85q23 20 40.5 46t47.5 90q34 74 61.5 92t66.5 20q60 0 97 -35l-56 -130l-52 -115q119 -64 256 -64q20 0 20 -20v-246 q0 -20 -20 -20q-194 0 -369 184q-68 -59 -191.5 -104.5t-294.5 -73t-382 -27.5zM1049 796q-61 -94 -184 -211q-129 102 -205 190q54 50 107 107t94 100q71 -77 188 -186zM990 1208q-63 -96 -183 -211q-132 103 -204 188q87 81 198 209q53 -56 189 -186z" />
<glyph unicode="&#x67b;" horiz-adv-x="694" arabic-form="initial" d="M0 -20q-20 0 -20 20v246q0 20 20 20q117 0 237 18.5t193 49.5q-32 70 -64 127t-57.5 103.5t-41 84.5t-15.5 70q0 59 66 130.5t153 113.5l31 -157q69 -326 69 -403q0 -102 -94 -290q-223 -133 -477 -133zM470 -835q-61 -94 -184 -211q-131 104 -205 191q70 62 158 159 l43 47q71 -77 188 -186zM411 -423q-65 -99 -182 -211q-135 105 -205 188q87 81 198 209q53 -56 189 -186z" />
<glyph unicode="&#x67b;" horiz-adv-x="705" arabic-form="medial" d="M0 -20q-20 0 -20 20v246q0 20 20 20q154 0 236 56q34 23 75 104q64 125 80 145t40 29.5t50 9.5q60 0 97 -35q-90 -212 -107 -247q117 -62 254 -62q20 0 20 -20v-246q0 -20 -20 -20q-183 0 -348 165q-18 -29 -46.5 -65.5t-78.5 -58t-113.5 -31.5t-138.5 -10zM538 -835 q-61 -94 -184 -211q-131 104 -205 191q70 62 158 159l43 47q71 -77 188 -186zM479 -423q-65 -99 -182 -211q-135 105 -205 188q87 81 198 209q53 -56 189 -186z" />
<glyph unicode="&#x67b;" horiz-adv-x="1968" arabic-form="final" d="M753 -41q-300 0 -444 132.5t-144 381.5q0 57 16 136.5t31 127.5h108l-3 -26l-5 -93q0 -142 57 -220.5t173.5 -115t298.5 -36.5q257 0 438.5 31t249.5 85q23 20 40.5 46t47.5 90q34 74 61.5 92t66.5 20q60 0 97 -35l-56 -130l-52 -115q119 -64 256 -64q20 0 20 -20v-246 q0 -20 -20 -20q-194 0 -369 184q-68 -59 -191.5 -104.5t-294.5 -73t-382 -27.5zM1226 -835q-61 -94 -184 -211q-131 104 -205 191q70 62 158 159l43 47q71 -77 188 -186zM1167 -423q-65 -99 -182 -211q-135 105 -205 188q87 81 198 209q53 -56 189 -186z" />
<glyph unicode="&#x67c;" horiz-adv-x="846" d="M-11 -20q-20 0 -20 20v246q0 20 20 20q117 0 237 18.5t193 49.5q-32 70 -64 127t-57.5 103.5t-41 84.5t-15.5 70q0 59 66 130.5t153 113.5l31 -157q69 -326 69 -403q0 -102 -94 -290q-223 -133 -477 -133zM237 -261q-70 0 -115 52.5t-45 131.5q0 62 24 109t62.5 73.5 t77.5 26.5q40 0 79.5 -26.5t64 -73.5t24.5 -111q0 -77 -53.5 -129.5t-118.5 -52.5zM327 -77q0 13 -13.5 33.5t-35 34.5t-51.5 14q-26 0 -48 -20t-22 -46q0 -31 22.5 -51t63.5 -20q32 0 58 18.5t26 36.5zM284 1264q-61 -94 -184 -211q-129 102 -205 190q54 50 107 107t94 100 q71 -77 188 -186zM685 1309q-65 -99 -182 -211q-130 101 -205 188q92 86 199 209q77 -80 188 -186z" />
<glyph unicode="&#x67c;" horiz-adv-x="868" d="M0 -20q-20 0 -20 20v246q0 20 20 20q175 0 247.5 9t118 29t69 51.5t76.5 139.5q36 75 64.5 95t69.5 20q59 0 96 -35q-23 -54 -49 -118t-57 -129q117 -62 254 -62q20 0 20 -20v-246q0 -20 -20 -20q-91 0 -176 39t-172 126q-25 -42 -56 -77q-34 -39 -173.5 -63.5 t-311.5 -24.5zM344 -255q-70 0 -115 52.5t-45 131.5q0 62 24 109t62.5 73.5t77.5 26.5q40 0 79.5 -26.5t64 -73.5t24.5 -111q0 -77 -53.5 -129.5t-118.5 -52.5zM434 -71q0 13 -13.5 33.5t-35 34.5t-51.5 14q-26 0 -48 -20t-22 -46q0 -31 22.5 -51t63.5 -20q32 0 58 18.5 t26 36.5zM378 923q-61 -94 -184 -211q-129 102 -205 190q54 50 107 107t94 100q71 -77 188 -186zM779 968q-65 -99 -182 -211q-130 101 -205 188q92 86 199 209q77 -80 188 -186z" />
<glyph unicode="&#x67c;" horiz-adv-x="1968" d="M753 -41q-300 0 -444 132.5t-144 381.5q0 57 16 136.5t31 127.5h108l-3 -26l-5 -93q0 -142 57 -220.5t173.5 -115t298.5 -36.5q257 0 438.5 31t249.5 85q23 20 40.5 46t47.5 90q34 74 61.5 92t66.5 20q60 0 97 -35l-56 -130l-52 -115q119 -64 256 -64q20 0 20 -20v-246 q0 -20 -20 -20q-194 0 -369 184q-68 -59 -191.5 -104.5t-294.5 -73t-382 -27.5zM971 871q-61 -94 -184 -211q-129 102 -205 190q54 50 107 107t94 100q71 -77 188 -186zM1372 916q-65 -99 -182 -211q-130 101 -205 188q92 86 199 209q77 -80 188 -186zM995 -283 q-70 0 -115 52.5t-45 131.5q0 62 24 109t62.5 73.5t77.5 26.5q40 0 79.5 -26.5t64 -73.5t24.5 -111q0 -77 -53.5 -129.5t-118.5 -52.5zM1085 -99q0 13 -13.5 33.5t-35 34.5t-51.5 14q-26 0 -48 -20t-22 -46q0 -31 22.5 -51t63.5 -20q32 0 58 18.5t26 36.5z" />
<glyph unicode="&#x67d;" horiz-adv-x="934" d="M2 -20q-20 0 -20 20v246q0 20 20 20q183 0 351.5 18t242.5 50q-32 70 -64 127t-57.5 103.5t-41 84.5t-15.5 70q0 59 66 130.5t153 113.5l31 -157q69 -326 69 -403q0 -102 -94 -290q-101 -61 -281 -97t-360 -36zM370 1495q-67 -99 -185 -209q-136 110 -205 188 q79 73 158 160l43 47q71 -78 189 -186zM812 1540q-65 -99 -182 -211q-134 104 -205 190q80 74 156 160l43 47q62 -66 188 -186zM611 1190q-118 -129 -178 -170q-111 73 -194 170q89 84 184 190q38 -50 91 -102.5t97 -87.5z" />
<glyph unicode="&#x67d;" horiz-adv-x="868" d="M0 -20q-20 0 -20 20v246q0 20 20 20q175 0 247.5 9t118 29t69 51.5t76.5 139.5q36 75 64.5 95t69.5 20q59 0 96 -35q-23 -54 -49 -118t-57 -129q117 -62 254 -62q20 0 20 -20v-246q0 -20 -20 -20q-91 0 -176 39t-172 126q-25 -42 -56 -77q-34 -39 -173.5 -63.5 t-311.5 -24.5zM421 1185q-67 -99 -185 -209q-136 110 -205 188q79 73 158 160l43 47q71 -78 189 -186zM863 1230q-65 -99 -182 -211q-134 104 -205 190q80 74 156 160l43 47q62 -66 188 -186zM662 880q-118 -129 -178 -170q-111 73 -194 170q89 84 184 190q38 -50 91 -102.5 t97 -87.5z" />
<glyph unicode="&#x67d;" horiz-adv-x="1968" d="M753 -41q-300 0 -444 132.5t-144 381.5q0 57 16 136.5t31 127.5h108l-3 -26l-5 -93q0 -142 57 -220.5t173.5 -115t298.5 -36.5q257 0 438.5 31t249.5 85q23 20 40.5 46t47.5 90q34 74 61.5 92t66.5 20q60 0 97 -35l-56 -130l-52 -115q119 -64 256 -64q20 0 20 -20v-246 q0 -20 -20 -20q-194 0 -369 184q-68 -59 -191.5 -104.5t-294.5 -73t-382 -27.5zM908 994q-67 -99 -185 -209q-136 110 -205 188q79 73 158 160l43 47q71 -78 189 -186zM1350 1039q-65 -99 -182 -211q-134 104 -205 190q80 74 156 160l43 47q62 -66 188 -186zM1149 689 q-118 -129 -178 -170q-111 73 -194 170q89 84 184 190q38 -50 91 -102.5t97 -87.5z" />
<glyph unicode="&#x67f;" horiz-adv-x="905" arabic-form="initial" d="M0 -20q-20 0 -20 20v246q0 20 20 20q183 0 351.5 18t242.5 50q-32 70 -64 127t-57.5 103.5t-41 84.5t-15.5 70q0 59 66 130.5t153 113.5l31 -157q69 -326 69 -403q0 -102 -94 -290q-101 -61 -281 -97t-360 -36zM525 1235q-61 -94 -184 -211q-129 102 -205 190 q79 73 158 160l43 47q71 -77 188 -186zM927 1280q-63 -96 -183 -211q-132 103 -204 188q87 81 198 209q66 -68 189 -186zM425 1618q-61 -94 -184 -211q-129 102 -205 190q54 50 107 107t94 100q71 -77 188 -186zM826 1663q-65 -99 -182 -211q-130 101 -205 188 q92 86 199 209q77 -80 188 -186z" />
<glyph unicode="&#x67f;" horiz-adv-x="928" arabic-form="medial" d="M0 -20q-20 0 -20 20v246q0 20 20 20q175 0 247.5 9t118 29t69 51.5t76.5 139.5q36 75 64.5 95t69.5 20q59 0 96 -35q-23 -54 -49 -118t-57 -129q117 -62 254 -62q20 0 20 -20v-246q0 -20 -20 -20q-91 0 -176 39t-172 126q-25 -42 -56 -77q-34 -39 -173.5 -63.5 t-311.5 -24.5zM567 935q-61 -94 -184 -211q-129 102 -205 190q79 73 158 160l43 47q71 -77 188 -186zM969 980q-63 -96 -183 -211q-132 103 -204 188q87 81 198 209q66 -68 189 -186zM467 1318q-61 -94 -184 -211q-129 102 -205 190q54 50 107 107t94 100q71 -77 188 -186z M868 1363q-65 -99 -182 -211q-130 101 -205 188q92 86 199 209q77 -80 188 -186z" />
<glyph unicode="&#x67f;" horiz-adv-x="1968" arabic-form="final" d="M753 -41q-300 0 -444 132.5t-144 381.5q0 57 16 136.5t31 127.5h108l-3 -26l-5 -93q0 -142 57 -220.5t173.5 -115t298.5 -36.5q257 0 438.5 31t249.5 85q23 20 40.5 46t47.5 90q34 74 61.5 92t66.5 20q60 0 97 -35l-56 -130l-52 -115q119 -64 256 -64q20 0 20 -20v-246 q0 -20 -20 -20q-194 0 -369 184q-68 -59 -191.5 -104.5t-294.5 -73t-382 -27.5zM958 845q-61 -94 -184 -211q-129 102 -205 190q79 73 158 160l43 47q71 -77 188 -186zM1360 890q-63 -96 -183 -211q-132 103 -204 188q87 81 198 209q66 -68 189 -186zM858 1228 q-61 -94 -184 -211q-129 102 -205 190q54 50 107 107t94 100q71 -77 188 -186zM1259 1273q-65 -99 -182 -211q-130 101 -205 188q92 86 199 209q77 -80 188 -186z" />
<glyph unicode="&#x680;" horiz-adv-x="846" arabic-form="initial" d="M0 -20q-20 0 -20 20v246q0 20 20 20q183 0 351.5 18t242.5 50q-32 70 -64 127t-57.5 103.5t-41 84.5t-15.5 70q0 59 66 130.5t153 113.5l31 -157q69 -326 69 -403q0 -102 -94 -290q-101 -61 -281 -97t-360 -36zM365 -805q-61 -94 -184 -211q-131 104 -205 191 q67 59 201 207q69 -76 188 -187zM767 -760q-65 -99 -182 -211q-133 103 -205 189q45 40 110.5 110.5t87.5 98.5q28 -29 189 -187zM265 -422q-61 -94 -184 -211q-131 104 -205 191q16 14 31.5 29t169.5 177q71 -77 188 -186zM666 -377q-65 -99 -182 -211q-127 99 -205 189 q50 44 107.5 106t91.5 103q40 -43 188 -187z" />
<glyph unicode="&#x680;" horiz-adv-x="868" arabic-form="medial" d="M0 -20q-20 0 -20 20v246q0 20 20 20q175 0 247.5 9t118 29t69 51.5t76.5 139.5q36 75 64.5 95t69.5 20q59 0 96 -35q-23 -54 -49 -118t-57 -129q117 -62 254 -62q20 0 20 -20v-246q0 -20 -20 -20q-91 0 -176 39t-172 126q-25 -42 -56 -77q-34 -39 -173.5 -63.5 t-311.5 -24.5zM502 -805q-61 -94 -184 -211q-131 104 -205 191q67 59 201 207q69 -76 188 -187zM904 -760q-65 -99 -182 -211q-133 103 -205 189q45 40 110.5 110.5t87.5 98.5q28 -29 189 -187zM402 -422q-61 -94 -184 -211q-131 104 -205 191q16 14 31.5 29t169.5 177 q71 -77 188 -186zM803 -377q-65 -99 -182 -211q-127 99 -205 189q50 44 107.5 106t91.5 103q40 -43 188 -187z" />
<glyph unicode="&#x680;" horiz-adv-x="1968" arabic-form="final" d="M753 -41q-300 0 -444 132.5t-144 381.5q0 57 16 136.5t31 127.5h108l-3 -26l-5 -93q0 -142 57 -220.5t173.5 -115t298.5 -36.5q257 0 438.5 31t249.5 85q23 20 40.5 46t47.5 90q34 74 61.5 92t66.5 20q60 0 97 -35l-56 -130l-52 -115q119 -64 256 -64q20 0 20 -20v-246 q0 -20 -20 -20q-194 0 -369 184q-68 -59 -191.5 -104.5t-294.5 -73t-382 -27.5zM1101 -805q-61 -94 -184 -211q-131 104 -205 191q67 59 201 207q69 -76 188 -187zM1503 -760q-65 -99 -182 -211q-133 103 -205 189q45 40 110.5 110.5t87.5 98.5q28 -29 189 -187zM1001 -422 q-61 -94 -184 -211q-131 104 -205 191q16 14 31.5 29t169.5 177q71 -77 188 -186zM1402 -377q-65 -99 -182 -211q-127 99 -205 189q50 44 107.5 106t91.5 103q40 -43 188 -187z" />
<glyph unicode="&#x681;" horiz-adv-x="1563" d="M0 -20q-20 0 -20 20v246q0 20 20 20q214 0 286.5 4.5t134 14t116.5 26.5q191 59 294 80q-59 31 -105.5 62t-88 56.5t-83 41.5t-89.5 16q-71 0 -131 -18t-154 -76q-21 21 -38 64.5t-17 80.5q0 70 43.5 123t121 83t167.5 30q75 0 147.5 -27t160.5 -86q78 -53 145 -90 t117 -57t128.5 -42t150.5 -30t175 -8l-123 -256q-159 12 -246 33q-89 -17 -175.5 -55.5t-186.5 -100.5q-76 -46 -140.5 -75t-132.5 -46.5t-150.5 -25.5t-326.5 -8zM835 1295l1 7q0 28 -38 28q-66 0 -104 -74q55 -55 148 -55q51 0 118 14l-12 -133q-104 -24 -180 -50.5 t-187 -84.5l-8 125l109 64q-97 37 -97 116q0 52 33.5 109.5t84 94t93.5 36.5q111 0 111 -135q0 -39 -14 -72z" />
<glyph unicode="&#x681;" horiz-adv-x="1583" d="M0 -20q-20 0 -20 20v246q0 20 20 20q214 0 286.5 4.5t134 14t116.5 26.5q191 59 294 80q-59 31 -105.5 62t-88 56.5t-83 41.5t-89.5 16q-71 0 -131 -18t-154 -76q-21 21 -38 64.5t-17 80.5q0 70 43.5 123t121 83t167.5 30q75 0 147.5 -27t160.5 -86q78 -53 145 -90 t117 -57t128.5 -42t150.5 -30t175 -8l-117 -240q60 -8 240 -8q20 0 20 -20v-246q0 -20 -20 -20q-204 0 -345 35.5t-141 82.5q0 53 33 185l-39 8q-89 -17 -175.5 -55.5t-186.5 -100.5q-76 -46 -140.5 -75t-132.5 -46.5t-150.5 -25.5t-326.5 -8zM835 1295l1 7q0 28 -38 28 q-66 0 -104 -74q55 -55 148 -55q51 0 118 14l-12 -133q-104 -24 -180 -50.5t-187 -84.5l-8 125l109 64q-97 37 -97 116q0 52 33.5 109.5t84 94t93.5 36.5q111 0 111 -135q0 -39 -14 -72z" />
<glyph unicode="&#x681;" horiz-adv-x="1745" d="M494 567q-48 0 -85 -7t-70 -20.5t-120 -66.5q-21 21 -38 64.5t-17 80.5q0 112 87.5 174t233.5 62q79 0 164 -19.5t222 -69.5q124 -46 222 -67.5t197 -21.5h48q119 0 171 4l-98 -270q-48 -9 -178 -9h-57q34 -63 80 -89t133.5 -36t375.5 -10q21 0 21 -20v-246 q0 -20 -21 -20q-211 0 -314 18.5t-171 60t-121 118.5t-104 214q-187 -49 -349 -148.5t-245.5 -214.5t-83.5 -233q0 -175 149 -277t379 -102q174 0 461 66l33 -103q-272 -160 -363 -199.5t-145 -39.5q-637 0 -637 629q0 221 137 418t365 311q-76 28 -140 48.5t-122 20.5z M1020 1213l1 7q0 28 -38 28q-66 0 -104 -74q55 -55 148 -55q51 0 118 14l-12 -133q-104 -24 -180 -50.5t-187 -84.5l-8 125l109 64q-97 37 -97 116q0 52 33.5 109.5t84 94t93.5 36.5q111 0 111 -135q0 -39 -14 -72z" />
<glyph unicode="&#x682;" horiz-adv-x="1563" d="M0 -20q-20 0 -20 20v246q0 20 20 20q214 0 286.5 4.5t134 14t116.5 26.5q191 59 294 80q-59 31 -105.5 62t-88 56.5t-83 41.5t-89.5 16q-71 0 -131 -18t-154 -76q-21 21 -38 64.5t-17 80.5q0 70 43.5 123t121 83t167.5 30q75 0 147.5 -27t160.5 -86q78 -53 145 -90 t117 -57t128.5 -42t150.5 -30t175 -8l-123 -256q-159 12 -246 33q-89 -17 -175.5 -55.5t-186.5 -100.5q-76 -46 -140.5 -75t-132.5 -46.5t-150.5 -25.5t-326.5 -8zM1094 1114q-61 -94 -184 -211q-129 102 -205 190q54 50 107 107t94 100q71 -77 188 -186zM1035 1526 q-63 -96 -183 -211q-132 103 -204 188q87 81 198 209q53 -56 189 -186z" />
<glyph unicode="&#x682;" horiz-adv-x="1583" d="M0 -20q-20 0 -20 20v246q0 20 20 20q214 0 286.5 4.5t134 14t116.5 26.5q191 59 294 80q-59 31 -105.5 62t-88 56.5t-83 41.5t-89.5 16q-71 0 -131 -18t-154 -76q-21 21 -38 64.5t-17 80.5q0 70 43.5 123t121 83t167.5 30q75 0 147.5 -27t160.5 -86q78 -53 145 -90 t117 -57t128.5 -42t150.5 -30t175 -8l-117 -240q60 -8 240 -8q20 0 20 -20v-246q0 -20 -20 -20q-204 0 -345 35.5t-141 82.5q0 53 33 185l-39 8q-89 -17 -175.5 -55.5t-186.5 -100.5q-76 -46 -140.5 -75t-132.5 -46.5t-150.5 -25.5t-326.5 -8zM1094 1114q-61 -94 -184 -211 q-129 102 -205 190q54 50 107 107t94 100q71 -77 188 -186zM1035 1526q-63 -96 -183 -211q-132 103 -204 188q87 81 198 209q53 -56 189 -186z" />
<glyph unicode="&#x682;" horiz-adv-x="1745" d="M494 567q-48 0 -85 -7t-70 -20.5t-120 -66.5q-21 21 -38 64.5t-17 80.5q0 112 87.5 174t233.5 62q79 0 164 -19.5t222 -69.5q124 -46 222 -67.5t197 -21.5h48q119 0 171 4l-98 -270q-48 -9 -178 -9h-57q34 -63 80 -89t133.5 -36t375.5 -10q21 0 21 -20v-246 q0 -20 -21 -20q-211 0 -314 18.5t-171 60t-121 118.5t-104 214q-187 -49 -349 -148.5t-245.5 -214.5t-83.5 -233q0 -175 149 -277t379 -102q174 0 461 66l33 -103q-272 -160 -363 -199.5t-145 -39.5q-637 0 -637 629q0 221 137 418t365 311q-76 28 -140 48.5t-122 20.5z M1020 1102q-61 -94 -184 -211q-129 102 -205 190q54 50 107 107t94 100q71 -77 188 -186zM961 1514q-63 -96 -183 -211q-132 103 -204 188q87 81 198 209q53 -56 189 -186z" />
<glyph unicode="&#x683;" horiz-adv-x="1563" arabic-form="initial" d="M0 -20q-20 0 -20 20v246q0 20 20 20q214 0 286.5 4.5t134 14t116.5 26.5q191 59 294 80q-59 31 -105.5 62t-88 56.5t-83 41.5t-89.5 16q-71 0 -131 -18t-154 -76q-21 21 -38 64.5t-17 80.5q0 70 43.5 123t121 83t167.5 30q75 0 147.5 -27t160.5 -86q78 -53 145 -90 t117 -57t128.5 -42t150.5 -30t175 -8l-123 -256q-159 12 -246 33q-89 -17 -175.5 -55.5t-186.5 -100.5q-76 -46 -140.5 -75t-132.5 -46.5t-150.5 -25.5t-326.5 -8zM630 -422q-61 -94 -184 -211q-131 104 -205 191q16 14 31.5 29t169.5 177q71 -77 188 -186zM1031 -377 q-65 -99 -182 -211q-127 99 -205 189q50 44 107.5 106t91.5 103q40 -43 188 -187z" />
<glyph unicode="&#x683;" horiz-adv-x="1583" arabic-form="medial" d="M0 -20q-20 0 -20 20v246q0 20 20 20q214 0 286.5 4.5t134 14t116.5 26.5q191 59 294 80q-59 31 -105.5 62t-88 56.5t-83 41.5t-89.5 16q-71 0 -131 -18t-154 -76q-21 21 -38 64.5t-17 80.5q0 70 43.5 123t121 83t167.5 30q75 0 147.5 -27t160.5 -86q78 -53 145 -90 t117 -57t128.5 -42t150.5 -30t175 -8l-117 -240q60 -8 240 -8q20 0 20 -20v-246q0 -20 -20 -20q-204 0 -345 35.5t-141 82.5q0 53 33 185l-39 8q-89 -17 -175.5 -55.5t-186.5 -100.5q-76 -46 -140.5 -75t-132.5 -46.5t-150.5 -25.5t-326.5 -8zM660 -422q-61 -94 -184 -211 q-131 104 -205 191q16 14 31.5 29t169.5 177q71 -77 188 -186zM1061 -377q-65 -99 -182 -211q-127 99 -205 189q50 44 107.5 106t91.5 103q40 -43 188 -187z" />
<glyph unicode="&#x683;" horiz-adv-x="1745" arabic-form="final" d="M494 567q-48 0 -85 -7t-70 -20.5t-120 -66.5q-21 21 -38 64.5t-17 80.5q0 112 87.5 174t233.5 62q79 0 164 -19.5t222 -69.5q124 -46 222 -67.5t197 -21.5h48q119 0 171 4l-98 -270q-48 -9 -178 -9h-57q34 -63 80 -89t133.5 -36t375.5 -10q21 0 21 -20v-246 q0 -20 -21 -20q-211 0 -314 18.5t-171 60t-121 118.5t-104 214q-187 -49 -349 -148.5t-245.5 -214.5t-83.5 -233q0 -175 149 -277t379 -102q174 0 461 66l33 -103q-272 -160 -363 -199.5t-145 -39.5q-637 0 -637 629q0 221 137 418t365 311q-76 28 -140 48.5t-122 20.5z M930 -222q-61 -94 -184 -211q-131 104 -205 191q16 14 31.5 29t169.5 177q71 -77 188 -186zM1331 -177q-65 -99 -182 -211q-127 99 -205 189q50 44 107.5 106t91.5 103q40 -43 188 -187z" />
<glyph unicode="&#x684;" horiz-adv-x="1563" arabic-form="initial" d="M0 -20q-20 0 -20 20v246q0 20 20 20q214 0 286.5 4.5t134 14t116.5 26.5q191 59 294 80q-59 31 -105.5 62t-88 56.5t-83 41.5t-89.5 16q-71 0 -131 -18t-154 -76q-21 21 -38 64.5t-17 80.5q0 70 43.5 123t121 83t167.5 30q75 0 147.5 -27t160.5 -86q78 -53 145 -90 t117 -57t128.5 -42t150.5 -30t175 -8l-123 -256q-159 12 -246 33q-89 -17 -175.5 -55.5t-186.5 -100.5q-76 -46 -140.5 -75t-132.5 -46.5t-150.5 -25.5t-326.5 -8zM800 -814q-61 -94 -184 -211q-131 104 -205 191q70 62 158 159l43 47q71 -77 188 -186zM741 -402 q-65 -99 -182 -211q-135 105 -205 188q87 81 198 209q53 -56 189 -186z" />
<glyph unicode="&#x684;" horiz-adv-x="1583" arabic-form="medial" d="M0 -20q-20 0 -20 20v246q0 20 20 20q214 0 286.5 4.5t134 14t116.5 26.5q191 59 294 80q-59 31 -105.5 62t-88 56.5t-83 41.5t-89.5 16q-71 0 -131 -18t-154 -76q-21 21 -38 64.5t-17 80.5q0 70 43.5 123t121 83t167.5 30q75 0 147.5 -27t160.5 -86q78 -53 145 -90 t117 -57t128.5 -42t150.5 -30t175 -8l-117 -240q60 -8 240 -8q20 0 20 -20v-246q0 -20 -20 -20q-204 0 -345 35.5t-141 82.5q0 53 33 185l-39 8q-89 -17 -175.5 -55.5t-186.5 -100.5q-76 -46 -140.5 -75t-132.5 -46.5t-150.5 -25.5t-326.5 -8zM870 -814q-61 -94 -184 -211 q-131 104 -205 191q70 62 158 159l43 47q71 -77 188 -186zM811 -402q-65 -99 -182 -211q-135 105 -205 188q87 81 198 209q53 -56 189 -186z" />
<glyph unicode="&#x684;" horiz-adv-x="1765" arabic-form="final" d="M1786 -20q-202 0 -344 35.5t-142 82.5q0 46 29 172l-94 17q-226 -31 -424 -133.5t-299.5 -238t-101.5 -288.5q0 -64 10 -114.5t43 -139.5l-146 -67q-33 82 -54 177t-21 161q0 277 154 474.5t458 307.5l-89 53q-76 46 -138 67t-123 21q-71 0 -131 -18t-154 -76 q-21 21 -38 64.5t-17 80.5q0 70 43.5 123t121 83t167.5 30q94 0 180 -27.5t180 -85.5q177 -110 280.5 -150.5t245 -64.5t297.5 -24l-110 -232q56 -4 217 -4q20 0 20 -20v-246q0 -20 -20 -20zM1108 -633q-61 -94 -184 -211q-131 104 -205 191q70 62 158 159l43 47 q71 -77 188 -186zM1049 -221q-65 -99 -182 -211q-135 105 -205 188q87 81 198 209q53 -56 189 -186z" />
<glyph unicode="&#x685;" horiz-adv-x="1563" d="M0 -20q-20 0 -20 20v246q0 20 20 20q214 0 286.5 4.5t134 14t116.5 26.5q191 59 294 80q-59 31 -105.5 62t-88 56.5t-83 41.5t-89.5 16q-71 0 -131 -18t-154 -76q-21 21 -38 64.5t-17 80.5q0 70 43.5 123t121 83t167.5 30q75 0 147.5 -27t160.5 -86q78 -53 145 -90 t117 -57t128.5 -42t150.5 -30t175 -8l-123 -256q-159 12 -246 33q-89 -17 -175.5 -55.5t-186.5 -100.5q-76 -46 -140.5 -75t-132.5 -46.5t-150.5 -25.5t-326.5 -8zM1161 1391q-116 -130 -178 -170q-43 27 -99 74.5t-96 95.5q99 88 185 188q70 -91 188 -188zM956 1098 q-69 -101 -184 -209q-130 103 -205 188q79 73 158 160l43 47q63 -69 188 -186zM1399 1143q-70 -104 -183 -209q-132 103 -204 188q66 61 198 207q53 -56 189 -186z" />
<glyph unicode="&#x685;" horiz-adv-x="1583" d="M0 -20q-20 0 -20 20v246q0 20 20 20q214 0 286.5 4.5t134 14t116.5 26.5q191 59 294 80q-59 31 -105.5 62t-88 56.5t-83 41.5t-89.5 16q-71 0 -131 -18t-154 -76q-21 21 -38 64.5t-17 80.5q0 70 43.5 123t121 83t167.5 30q75 0 147.5 -27t160.5 -86q78 -53 145 -90 t117 -57t128.5 -42t150.5 -30t175 -8l-117 -240q60 -8 240 -8q20 0 20 -20v-246q0 -20 -20 -20q-204 0 -345 35.5t-141 82.5q0 53 33 185l-39 8q-89 -17 -175.5 -55.5t-186.5 -100.5q-76 -46 -140.5 -75t-132.5 -46.5t-150.5 -25.5t-326.5 -8zM1161 1391 q-116 -130 -178 -170q-43 27 -99 74.5t-96 95.5q99 88 185 188q70 -91 188 -188zM956 1098q-69 -101 -184 -209q-130 103 -205 188q79 73 158 160l43 47q63 -69 188 -186zM1399 1143q-70 -104 -183 -209q-132 103 -204 188q66 61 198 207q53 -56 189 -186z" />
<glyph unicode="&#x685;" horiz-adv-x="1745" d="M494 567q-48 0 -85 -7t-70 -20.5t-120 -66.5q-21 21 -38 64.5t-17 80.5q0 112 87.5 174t233.5 62q79 0 164 -19.5t222 -69.5q124 -46 222 -67.5t197 -21.5h48q119 0 171 4l-98 -270q-48 -9 -178 -9h-57q34 -63 80 -89t133.5 -36t375.5 -10q21 0 21 -20v-246 q0 -20 -21 -20q-211 0 -314 18.5t-171 60t-121 118.5t-104 214q-187 -49 -349 -148.5t-245.5 -214.5t-83.5 -233q0 -175 149 -277t379 -102q174 0 461 66l33 -103q-272 -160 -363 -199.5t-145 -39.5q-637 0 -637 629q0 221 137 418t365 311q-76 28 -140 48.5t-122 20.5z M1069 1452q-116 -130 -178 -170q-43 27 -99 74.5t-96 95.5q99 88 185 188q70 -91 188 -188zM864 1159q-69 -101 -184 -209q-130 103 -205 188q79 73 158 160l43 47q63 -69 188 -186zM1307 1204q-70 -104 -183 -209q-132 103 -204 188q66 61 198 207q53 -56 189 -186z" />
<glyph unicode="&#x687;" horiz-adv-x="1563" arabic-form="initial" d="M0 -20q-20 0 -20 20v246q0 20 20 20q214 0 286.5 4.5t134 14t116.5 26.5q191 59 294 80q-59 31 -105.5 62t-88 56.5t-83 41.5t-89.5 16q-71 0 -131 -18t-154 -76q-21 21 -38 64.5t-17 80.5q0 70 43.5 123t121 83t167.5 30q75 0 147.5 -27t160.5 -86q78 -53 145 -90 t117 -57t128.5 -42t150.5 -30t175 -8l-123 -256q-159 12 -246 33q-89 -17 -175.5 -55.5t-186.5 -100.5q-76 -46 -140.5 -75t-132.5 -46.5t-150.5 -25.5t-326.5 -8zM632 -768q-61 -94 -184 -211q-131 104 -205 191q67 59 201 207q69 -76 188 -187zM1034 -723 q-65 -99 -182 -211q-133 103 -205 189q45 40 110.5 110.5t87.5 98.5q28 -29 189 -187zM532 -385q-61 -94 -184 -211q-131 104 -205 191q16 14 31.5 29t169.5 177q71 -77 188 -186zM933 -340q-65 -99 -182 -211q-127 99 -205 189q50 44 107.5 106t91.5 103q40 -43 188 -187z " />
<glyph unicode="&#x687;" horiz-adv-x="1583" arabic-form="medial" d="M0 -20q-20 0 -20 20v246q0 20 20 20q214 0 286.5 4.5t134 14t116.5 26.5q191 59 294 80q-59 31 -105.5 62t-88 56.5t-83 41.5t-89.5 16q-71 0 -131 -18t-154 -76q-21 21 -38 64.5t-17 80.5q0 70 43.5 123t121 83t167.5 30q75 0 147.5 -27t160.5 -86q78 -53 145 -90 t117 -57t128.5 -42t150.5 -30t175 -8l-117 -240q60 -8 240 -8q20 0 20 -20v-246q0 -20 -20 -20q-204 0 -345 35.5t-141 82.5q0 53 33 185l-39 8q-89 -17 -175.5 -55.5t-186.5 -100.5q-76 -46 -140.5 -75t-132.5 -46.5t-150.5 -25.5t-326.5 -8zM632 -768q-61 -94 -184 -211 q-131 104 -205 191q67 59 201 207q69 -76 188 -187zM1034 -723q-65 -99 -182 -211q-133 103 -205 189q45 40 110.5 110.5t87.5 98.5q28 -29 189 -187zM532 -385q-61 -94 -184 -211q-131 104 -205 191q16 14 31.5 29t169.5 177q71 -77 188 -186zM933 -340q-65 -99 -182 -211 q-127 99 -205 189q50 44 107.5 106t91.5 103q40 -43 188 -187z" />
<glyph unicode="&#x687;" horiz-adv-x="1765" arabic-form="final" d="M1786 -20q-202 0 -344 35.5t-142 82.5q0 46 29 172l-94 17q-226 -31 -424 -133.5t-299.5 -238t-101.5 -288.5q0 -64 10 -114.5t43 -139.5l-146 -67q-33 82 -54 177t-21 161q0 277 154 474.5t458 307.5l-89 53q-76 46 -138 67t-123 21q-71 0 -131 -18t-154 -76 q-21 21 -38 64.5t-17 80.5q0 70 43.5 123t121 83t167.5 30q94 0 180 -27.5t180 -85.5q177 -110 280.5 -150.5t245 -64.5t297.5 -24l-110 -232q56 -4 217 -4q20 0 20 -20v-246q0 -20 -20 -20zM1019 -623q-61 -94 -184 -211q-131 104 -205 191q67 59 201 207q69 -76 188 -187z M1421 -578q-65 -99 -182 -211q-133 103 -205 189q45 40 110.5 110.5t87.5 98.5q28 -29 189 -187zM919 -240q-61 -94 -184 -211q-131 104 -205 191q16 14 31.5 29t169.5 177q71 -77 188 -186zM1320 -195q-65 -99 -182 -211q-127 99 -205 189q50 44 107.5 106t91.5 103 q40 -43 188 -187z" />
<glyph unicode="&#x689;" horiz-adv-x="1169" d="M1190 -20q-96 0 -162 28.5t-119 81.5q-275 -131 -503 -131q-324 0 -324 188q0 51 19 103t53 92q59 -50 136.5 -73t190.5 -23q149 0 291 33q-80 134 -143.5 290t-63.5 234q0 91 44 154t124 87q72 -304 148 -491t135 -237t174 -50q20 0 20 -20v-246q0 -20 -20 -20z M500 -289q-70 0 -115 52.5t-45 131.5q0 62 24 109t62.5 73.5t77.5 26.5q40 0 79.5 -26.5t64 -73.5t24.5 -111q0 -77 -53.5 -129.5t-118.5 -52.5zM590 -105q0 13 -13.5 33.5t-35 34.5t-51.5 14q-26 0 -48 -20t-22 -46q0 -31 22.5 -51t63.5 -20q32 0 58 18.5t26 36.5z" />
<glyph unicode="&#x68a;" horiz-adv-x="1169" d="M1190 -20q-96 0 -162 28.5t-119 81.5q-275 -131 -503 -131q-324 0 -324 188q0 51 19 103t53 92q59 -50 136.5 -73t190.5 -23q149 0 291 33q-80 134 -143.5 290t-63.5 234q0 91 44 154t124 87q72 -304 148 -491t135 -237t174 -50q20 0 20 -20v-246q0 -20 -20 -20z M747 -365q-78 -111 -199 -225q-150 124 -219 203q145 145 215 225q70 -81 203 -203z" />
<glyph unicode="&#x68b;" horiz-adv-x="1169" d="M1190 -20q-96 0 -162 28.5t-119 81.5q-275 -131 -503 -131q-324 0 -324 188q0 51 19 103t53 92q59 -50 136.5 -73t190.5 -23q149 0 291 33q-80 134 -143.5 290t-63.5 234q0 91 44 154t124 87q72 -304 148 -491t135 -237t174 -50q20 0 20 -20v-246q0 -20 -20 -20z M747 -365q-78 -111 -199 -225q-150 124 -219 203q145 145 215 225q70 -81 203 -203zM191 1335q68 -15 125 -20l63 84l-32 132q-51 205 -51 234q0 46 38.5 78t108.5 43q29 -93 49 -143l-27 -21l3 -115l-3 -116q126 115 205 115q38 0 90 -36t97.5 -96t45.5 -96 q0 -70 -54 -132.5t-137 -99t-157 -36.5q-63 0 -120 12.5t-110 34.5t-159 82zM653 1425q-49 0 -107.5 -32.5t-115.5 -89.5q70 -7 131 -7q120 0 240 46q-24 37 -66 60t-82 23z" />
<glyph unicode="&#x68c;" horiz-adv-x="1169" arabic-form="final" d="M1190 -20q-96 0 -162 28.5t-119 81.5q-275 -131 -503 -131q-324 0 -324 188q0 51 19 103t53 92q59 -50 136.5 -73t190.5 -23q149 0 291 33q-80 134 -143.5 290t-63.5 234q0 91 44 154t124 87q72 -304 148 -491t135 -237t174 -50q20 0 20 -20v-246q0 -20 -20 -20z M534 1321q-61 -94 -184 -211q-129 102 -205 190q54 50 107 107t94 100q71 -77 188 -186zM935 1366q-65 -99 -182 -211q-130 101 -205 188q92 86 199 209q77 -80 188 -186z" />
<glyph unicode="&#x68d;" horiz-adv-x="1169" arabic-form="final" d="M1190 -20q-96 0 -162 28.5t-119 81.5q-275 -131 -503 -131q-324 0 -324 188q0 51 19 103t53 92q59 -50 136.5 -73t190.5 -23q149 0 291 33q-80 134 -143.5 290t-63.5 234q0 91 44 154t124 87q72 -304 148 -491t135 -237t174 -50q20 0 20 -20v-246q0 -20 -20 -20z M545 -427q-61 -94 -184 -211q-131 104 -205 191q16 14 31.5 29t169.5 177q71 -77 188 -186zM946 -382q-65 -99 -182 -211q-127 99 -205 189q50 44 107.5 106t91.5 103q40 -43 188 -187z" />
<glyph unicode="&#x68e;" horiz-adv-x="1169" arabic-form="final" d="M1190 -20q-96 0 -162 28.5t-119 81.5q-275 -131 -503 -131q-324 0 -324 188q0 51 19 103t53 92q59 -50 136.5 -73t190.5 -23q149 0 291 33q-80 134 -143.5 290t-63.5 234q0 91 44 154t124 87q72 -304 148 -491t135 -237t174 -50q20 0 20 -20v-246q0 -20 -20 -20z M697 1606q-116 -130 -178 -170q-43 27 -99 74.5t-96 95.5q99 88 185 188q70 -91 188 -188zM492 1313q-69 -101 -184 -209q-130 103 -205 188q79 73 158 160l43 47q63 -69 188 -186zM935 1358q-70 -104 -183 -209q-132 103 -204 188q66 61 198 207q53 -56 189 -186z" />
<glyph unicode="&#x68f;" horiz-adv-x="1169" d="M1190 -20q-96 0 -162 28.5t-119 81.5q-275 -131 -503 -131q-324 0 -324 188q0 51 19 103t53 92q59 -50 136.5 -73t190.5 -23q149 0 291 33q-80 134 -143.5 290t-63.5 234q0 91 44 154t124 87q72 -304 148 -491t135 -237t174 -50q20 0 20 -20v-246q0 -20 -20 -20z M472 1571q-67 -99 -185 -209q-136 110 -205 188q79 73 158 160l43 47q71 -78 189 -186zM914 1616q-65 -99 -182 -211q-134 104 -205 190q80 74 156 160l43 47q62 -66 188 -186zM713 1266q-118 -129 -178 -170q-111 73 -194 170q89 84 184 190q38 -50 91 -102.5t97 -87.5z " />
<glyph unicode="&#x690;" horiz-adv-x="1169" d="M1190 -20q-96 0 -162 28.5t-119 81.5q-275 -131 -503 -131q-324 0 -324 188q0 51 19 103t53 92q59 -50 136.5 -73t190.5 -23q149 0 291 33q-80 134 -143.5 290t-63.5 234q0 91 44 154t124 87q72 -304 148 -491t135 -237t174 -50q20 0 20 -20v-246q0 -20 -20 -20z M573 1321q-61 -94 -184 -211q-129 102 -205 190q79 73 158 160l43 47q71 -77 188 -186zM975 1366q-63 -96 -183 -211q-132 103 -204 188q87 81 198 209q66 -68 189 -186zM473 1704q-61 -94 -184 -211q-129 102 -205 190q54 50 107 107t94 100q71 -77 188 -186zM874 1749 q-65 -99 -182 -211q-130 101 -205 188q92 86 199 209q77 -80 188 -186z" />
<glyph unicode="&#x692;" horiz-adv-x="952" d="M973 -20q-95 0 -178 47q-44 -246 -194 -392.5t-355 -146.5q-45 0 -140 58.5t-188 138.5l39 100q129 -33 244 -33q177 0 301 89.5t178 256.5q-21 44 -40 76t-91 144q-68 104 -100.5 178.5t-32.5 132.5q0 70 57 139.5t145 112.5q23 -97 90 -291q62 -180 83 -281 q79 -43 182 -43q20 0 20 -20v-246q0 -20 -20 -20zM416 1130q12 81 44.5 178.5t80.5 174.5q43 0 65.5 -29t22.5 -74q0 -15 -11.5 -41t-31 -67.5t-46 -101.5t-56.5 -144q-85 -50 -168 -64q-64 140 -137 266.5t-129 196.5q84 19 114 20h5q55 0 88.5 -24t77.5 -106t81 -185z" />
<glyph unicode="&#x693;" horiz-adv-x="952" d="M973 -20q-95 0 -178 47q-44 -246 -194 -392.5t-355 -146.5q-45 0 -140 58.5t-188 138.5l39 100q129 -33 244 -33q177 0 301 89.5t178 256.5q-21 44 -40 76t-91 144q-68 104 -100.5 178.5t-32.5 132.5q0 70 57 139.5t145 112.5q23 -97 90 -291q62 -180 83 -281 q79 -43 182 -43q20 0 20 -20v-246q0 -20 -20 -20zM602 -613q-70 0 -115 52.5t-45 131.5q0 62 24 109t62.5 73.5t77.5 26.5q40 0 79.5 -26.5t64 -73.5t24.5 -111q0 -77 -53.5 -129.5t-118.5 -52.5zM692 -429q0 13 -13.5 33.5t-35 34.5t-51.5 14q-26 0 -48 -20t-22 -46 q0 -31 22.5 -51t63.5 -20q32 0 58 18.5t26 36.5z" />
<glyph unicode="&#x694;" horiz-adv-x="952" d="M973 -20q-95 0 -178 47q-44 -246 -194 -392.5t-355 -146.5q-45 0 -140 58.5t-188 138.5l39 100q129 -33 244 -33q177 0 301 89.5t178 256.5q-21 44 -40 76t-91 144q-68 104 -100.5 178.5t-32.5 132.5q0 70 57 139.5t145 112.5q23 -97 90 -291q62 -180 83 -281 q79 -43 182 -43q20 0 20 -20v-246q0 -20 -20 -20zM962 -538q-78 -111 -199 -225q-150 124 -219 203q145 145 215 225q70 -81 203 -203z" />
<glyph unicode="&#x695;" horiz-adv-x="952" d="M973 -20q-95 0 -178 47q-44 -246 -194 -392.5t-355 -146.5q-45 0 -140 58.5t-188 138.5l39 100q129 -33 244 -33q177 0 301 89.5t178 256.5q-21 44 -40 76t-91 144q-68 104 -100.5 178.5t-32.5 132.5q0 70 57 139.5t145 112.5q23 -97 90 -291q62 -180 83 -281 q79 -43 182 -43q20 0 20 -20v-246q0 -20 -20 -20zM407 -933q12 81 44.5 178.5t80.5 174.5q43 0 65.5 -29t22.5 -74q0 -15 -11.5 -41t-31 -67.5t-46 -101.5t-56.5 -144q-85 -50 -168 -64q-64 140 -137 266.5t-129 196.5q84 19 114 20h5q55 0 88.5 -24t77.5 -106t81 -185z" />
<glyph unicode="&#x696;" horiz-adv-x="952" d="M973 -20q-95 0 -178 47q-44 -246 -194 -392.5t-355 -146.5q-45 0 -140 58.5t-188 138.5l39 100q129 -33 244 -33q177 0 301 89.5t178 256.5q-21 44 -40 76t-91 144q-68 104 -100.5 178.5t-32.5 132.5q0 70 57 139.5t145 112.5q23 -97 90 -291q62 -180 83 -281 q79 -43 182 -43q20 0 20 -20v-246q0 -20 -20 -20zM962 -538q-78 -111 -199 -225q-150 124 -219 203q145 145 215 225q70 -81 203 -203zM497 157q-78 -111 -199 -225q-150 124 -219 203q145 145 215 225q70 -81 203 -203z" />
<glyph unicode="&#x697;" horiz-adv-x="952" d="M973 -20q-95 0 -178 47q-44 -246 -194 -392.5t-355 -146.5q-45 0 -140 58.5t-188 138.5l39 100q129 -33 244 -33q177 0 301 89.5t178 256.5q-21 44 -40 76t-91 144q-68 104 -100.5 178.5t-32.5 132.5q0 70 57 139.5t145 112.5q23 -97 90 -291q62 -180 83 -281 q79 -43 182 -43q20 0 20 -20v-246q0 -20 -20 -20zM366 1155q-61 -94 -184 -211q-129 102 -205 190q54 50 107 107t94 100q71 -77 188 -186zM767 1200q-65 -99 -182 -211q-130 101 -205 188q92 86 199 209q77 -80 188 -186z" />
<glyph unicode="&#x699;" horiz-adv-x="952" d="M973 -20q-95 0 -178 47q-44 -246 -194 -392.5t-355 -146.5q-45 0 -140 58.5t-188 138.5l39 100q129 -33 244 -33q177 0 301 89.5t178 256.5q-21 44 -40 76t-91 144q-68 104 -100.5 178.5t-32.5 132.5q0 70 57 139.5t145 112.5q23 -97 90 -291q62 -180 83 -281 q79 -43 182 -43q20 0 20 -20v-246q0 -20 -20 -20zM421 1155q-61 -94 -184 -211q-129 102 -205 190q79 73 158 160l43 47q71 -77 188 -186zM823 1200q-63 -96 -183 -211q-132 103 -204 188q87 81 198 209q66 -68 189 -186zM321 1538q-61 -94 -184 -211q-129 102 -205 190 q54 50 107 107t94 100q71 -77 188 -186zM722 1583q-65 -99 -182 -211q-130 101 -205 188q92 86 199 209q77 -80 188 -186z" />
<glyph unicode="&#x69a;" horiz-adv-x="1686" d="M1462 -41q-153 0 -306.5 35t-268.5 88l-29 -57q-16 -27 -110.5 -46.5t-192.5 -19.5q-120 0 -279 76q-43 -22 -115.5 -38.5t-160.5 -16.5q-20 0 -20 20v246q0 20 20 20q107 0 164 13.5t92.5 48t82.5 116.5l38 66q16 26 42 43t58 17q37 0 74 -25q-28 -68 -56.5 -144 t-60.5 -147q54 -8 133 -8q62 0 92.5 5t79.5 21q27 45 102 244l31 82q13 30 43.5 51t73.5 21q47 0 86 -27q-30 -71 -75 -223l-27 -88q93 -47 205 -71t245 -38q-32 71 -64.5 132.5t-58 113t-41.5 94t-16 74.5q0 59 66 130.5t153 113.5l31 -160q70 -345 70 -420 q0 -55 -30.5 -158.5t-70.5 -183.5zM1126 -365q-78 -111 -199 -225q-150 124 -219 203q145 145 215 225q70 -81 203 -203zM979 1018q-73 -108 -199 -226q-150 124 -219 203q145 145 215 225q83 -94 203 -202z" />
<glyph unicode="&#x69a;" horiz-adv-x="1679" d="M477 570q37 0 74 -25q-28 -68 -56.5 -144t-60.5 -147q54 -8 133 -8q62 0 92.5 5t79.5 21q27 45 102 244l31 82q13 30 43.5 51t73.5 21q47 0 86 -27q-38 -93 -97 -296l-34 -109l36 -2h30q89 0 172 26q28 46 106 270l33 86q13 30 44.5 51t74.5 21q45 0 84 -24 q-31 -77 -80 -242l-29 -94q57 -35 123.5 -49.5t161.5 -14.5q20 0 20 -20v-246q0 -20 -20 -20q-99 0 -198 42t-156 103q-34 -82 -46 -100q-19 -31 -92.5 -48.5t-169.5 -17.5q-34 0 -90.5 15.5t-103.5 35.5q-35 -22 -119 -36.5t-170 -14.5q-120 0 -279 76 q-43 -22 -115.5 -38.5t-160.5 -16.5q-20 0 -20 20v246q0 20 20 20q107 0 164 13.5t92.5 48t82.5 116.5l38 66q16 26 42 43t58 17zM979 1018q-73 -108 -199 -226q-150 124 -219 203q145 145 215 225q83 -94 203 -202zM1126 -365q-78 -111 -199 -225q-150 124 -219 203 q145 145 215 225q70 -81 203 -203z" />
<glyph unicode="&#x69a;" horiz-adv-x="2503" d="M2523 -20q-99 0 -198 42t-156 103q-36 -87 -45 -100q-19 -29 -89 -47.5t-173 -18.5q-35 0 -93 16.5t-102 34.5q-35 -22 -119 -36.5t-170 -14.5l-51 4l4 -69q0 -160 -96 -297t-262.5 -215t-366.5 -78q-216 0 -329 126.5t-113 368.5q0 125 59 348l107 -26 q-33 -111 -33 -191q0 -173 77 -256.5t238 -83.5q197 0 331 51t253 162q-32 70 -68 136t-66 123t-49.5 103.5t-19.5 78.5q0 202 244 317q10 -81 51 -311l103 -4q62 0 93.5 5.5t78.5 20.5q28 50 101 244l32 82q12 30 44 51t73 21q46 0 85 -27q-28 -70 -97 -296l-34 -109l37 -2 h29q89 0 172 26q28 46 106 270l33 86q13 30 44.5 51t74.5 21q45 0 84 -24q-31 -78 -80 -242l-29 -94q57 -35 123.5 -49.5t161.5 -14.5q21 0 21 -20v-246q0 -20 -21 -20zM1991 -365q-78 -111 -199 -225q-150 124 -219 203q145 145 215 225q70 -81 203 -203zM1843 1018 q-73 -108 -199 -226q-150 124 -219 203q145 145 215 225q83 -94 203 -202z" />
<glyph unicode="&#x69b;" horiz-adv-x="1686" d="M1462 -41q-153 0 -306.5 35t-268.5 88l-29 -57q-16 -27 -110.5 -46.5t-192.5 -19.5q-120 0 -279 76q-43 -22 -115.5 -38.5t-160.5 -16.5q-20 0 -20 20v246q0 20 20 20q107 0 164 13.5t92.5 48t82.5 116.5l38 66q16 26 42 43t58 17q37 0 74 -25q-28 -68 -56.5 -144 t-60.5 -147q54 -8 133 -8q62 0 92.5 5t79.5 21q27 45 102 244l31 82q13 30 43.5 51t73.5 21q47 0 86 -27q-30 -71 -75 -223l-27 -88q93 -47 205 -71t245 -38q-32 71 -64.5 132.5t-58 113t-41.5 94t-16 74.5q0 59 66 130.5t153 113.5l31 -160q70 -345 70 -420 q0 -55 -30.5 -158.5t-70.5 -183.5zM739 -414q-63 -95 -184 -209q-130 103 -205 188q73 67 157 160l43 47q71 -78 189 -186zM1181 -369q-65 -99 -182 -211q-133 104 -205 190q72 67 199 207q52 -56 188 -186zM981 -720q-127 -135 -179 -170q-106 69 -194 170q102 96 184 191 q35 -47 88.5 -101t100.5 -90z" />
<glyph unicode="&#x69b;" horiz-adv-x="1679" d="M477 570q37 0 74 -25q-28 -68 -56.5 -144t-60.5 -147q54 -8 133 -8q62 0 92.5 5t79.5 21q27 45 102 244l31 82q13 30 43.5 51t73.5 21q47 0 86 -27q-38 -93 -97 -296l-34 -109l36 -2h30q89 0 172 26q28 46 106 270l33 86q13 30 44.5 51t74.5 21q45 0 84 -24 q-31 -77 -80 -242l-29 -94q57 -35 123.5 -49.5t161.5 -14.5q20 0 20 -20v-246q0 -20 -20 -20q-99 0 -198 42t-156 103q-34 -82 -46 -100q-19 -31 -92.5 -48.5t-169.5 -17.5q-34 0 -90.5 15.5t-103.5 35.5q-35 -22 -119 -36.5t-170 -14.5q-120 0 -279 76 q-43 -22 -115.5 -38.5t-160.5 -16.5q-20 0 -20 20v246q0 20 20 20q107 0 164 13.5t92.5 48t82.5 116.5l38 66q16 26 42 43t58 17zM739 -414q-63 -95 -184 -209q-130 103 -205 188q73 67 157 160l43 47q71 -78 189 -186zM1181 -369q-65 -99 -182 -211q-133 104 -205 190 q72 67 199 207q52 -56 188 -186zM981 -720q-127 -135 -179 -170q-106 69 -194 170q102 96 184 191q35 -47 88.5 -101t100.5 -90z" />
<glyph unicode="&#x69b;" horiz-adv-x="2503" d="M2523 -20q-99 0 -198 42t-156 103q-36 -87 -45 -100q-19 -29 -89 -47.5t-173 -18.5q-35 0 -93 16.5t-102 34.5q-35 -22 -119 -36.5t-170 -14.5l-51 4l4 -69q0 -160 -96 -297t-262.5 -215t-366.5 -78q-216 0 -329 126.5t-113 368.5q0 125 59 348l107 -26 q-33 -111 -33 -191q0 -173 77 -256.5t238 -83.5q197 0 331 51t253 162q-32 70 -68 136t-66 123t-49.5 103.5t-19.5 78.5q0 202 244 317q10 -81 51 -311l103 -4q62 0 93.5 5.5t78.5 20.5q28 50 101 244l32 82q12 30 44 51t73 21q46 0 85 -27q-28 -70 -97 -296l-34 -109l37 -2 h29q89 0 172 26q28 46 106 270l33 86q13 30 44.5 51t74.5 21q45 0 84 -24q-31 -78 -80 -242l-29 -94q57 -35 123.5 -49.5t161.5 -14.5q21 0 21 -20v-246q0 -20 -21 -20zM1729 -414q-63 -95 -184 -209q-130 103 -205 188q73 67 157 160l43 47q71 -78 189 -186zM2171 -369 q-65 -99 -182 -211q-133 104 -205 190q72 67 199 207q52 -56 188 -186zM1971 -720q-127 -135 -179 -170q-106 69 -194 170q102 96 184 191q35 -47 88.5 -101t100.5 -90z" />
<glyph unicode="&#x69c;" horiz-adv-x="1686" d="M1462 -41q-153 0 -306.5 35t-268.5 88l-29 -57q-16 -27 -110.5 -46.5t-192.5 -19.5q-120 0 -279 76q-43 -22 -115.5 -38.5t-160.5 -16.5q-20 0 -20 20v246q0 20 20 20q107 0 164 13.5t92.5 48t82.5 116.5l38 66q16 26 42 43t58 17q37 0 74 -25q-28 -68 -56.5 -144 t-60.5 -147q54 -8 133 -8q62 0 92.5 5t79.5 21q27 45 102 244l31 82q13 30 43.5 51t73.5 21q47 0 86 -27q-30 -71 -75 -223l-27 -88q93 -47 205 -71t245 -38q-32 71 -64.5 132.5t-58 113t-41.5 94t-16 74.5q0 59 66 130.5t153 113.5l31 -160q70 -345 70 -420 q0 -55 -30.5 -158.5t-70.5 -183.5zM825 1307q-116 -130 -178 -170q-43 27 -99 74.5t-96 95.5q99 88 185 188q70 -91 188 -188zM620 1014q-69 -101 -184 -209q-130 103 -205 188q79 73 158 160l43 47q63 -69 188 -186zM1063 1059q-70 -104 -183 -209q-132 103 -204 188 q66 61 198 207q53 -56 189 -186zM752 -414q-63 -95 -184 -209q-130 103 -205 188q73 67 157 160l43 47q71 -78 189 -186zM1194 -369q-65 -99 -182 -211q-133 104 -205 190q72 67 199 207q52 -56 188 -186zM994 -720q-127 -135 -179 -170q-106 69 -194 170q102 96 184 191 q35 -47 88.5 -101t100.5 -90z" />
<glyph unicode="&#x69c;" horiz-adv-x="1679" d="M477 570q37 0 74 -25q-28 -68 -56.5 -144t-60.5 -147q54 -8 133 -8q62 0 92.5 5t79.5 21q27 45 102 244l31 82q13 30 43.5 51t73.5 21q47 0 86 -27q-38 -93 -97 -296l-34 -109l36 -2h30q89 0 172 26q28 46 106 270l33 86q13 30 44.5 51t74.5 21q45 0 84 -24 q-31 -77 -80 -242l-29 -94q57 -35 123.5 -49.5t161.5 -14.5q20 0 20 -20v-246q0 -20 -20 -20q-99 0 -198 42t-156 103q-34 -82 -46 -100q-19 -31 -92.5 -48.5t-169.5 -17.5q-34 0 -90.5 15.5t-103.5 35.5q-35 -22 -119 -36.5t-170 -14.5q-120 0 -279 76 q-43 -22 -115.5 -38.5t-160.5 -16.5q-20 0 -20 20v246q0 20 20 20q107 0 164 13.5t92.5 48t82.5 116.5l38 66q16 26 42 43t58 17zM825 1307q-116 -130 -178 -170q-43 27 -99 74.5t-96 95.5q99 88 185 188q70 -91 188 -188zM620 1014q-69 -101 -184 -209q-130 103 -205 188 q79 73 158 160l43 47q63 -69 188 -186zM1063 1059q-70 -104 -183 -209q-132 103 -204 188q66 61 198 207q53 -56 189 -186zM752 -414q-63 -95 -184 -209q-130 103 -205 188q73 67 157 160l43 47q71 -78 189 -186zM1194 -369q-65 -99 -182 -211q-133 104 -205 190 q72 67 199 207q52 -56 188 -186zM994 -720q-127 -135 -179 -170q-106 69 -194 170q102 96 184 191q35 -47 88.5 -101t100.5 -90z" />
<glyph unicode="&#x69c;" horiz-adv-x="2503" d="M2523 -20q-99 0 -198 42t-156 103q-36 -87 -45 -100q-19 -29 -89 -47.5t-173 -18.5q-35 0 -93 16.5t-102 34.5q-35 -22 -119 -36.5t-170 -14.5l-51 4l4 -69q0 -160 -96 -297t-262.5 -215t-366.5 -78q-216 0 -329 126.5t-113 368.5q0 125 59 348l107 -26 q-33 -111 -33 -191q0 -173 77 -256.5t238 -83.5q197 0 331 51t253 162q-32 70 -68 136t-66 123t-49.5 103.5t-19.5 78.5q0 202 244 317q10 -81 51 -311l103 -4q62 0 93.5 5.5t78.5 20.5q28 50 101 244l32 82q12 30 44 51t73 21q46 0 85 -27q-28 -70 -97 -296l-34 -109l37 -2 h29q89 0 172 26q28 46 106 270l33 86q13 30 44.5 51t74.5 21q45 0 84 -24q-31 -78 -80 -242l-29 -94q57 -35 123.5 -49.5t161.5 -14.5q21 0 21 -20v-246q0 -20 -21 -20zM1808 1307q-116 -130 -178 -170q-43 27 -99 74.5t-96 95.5q99 88 185 188q70 -91 188 -188zM1603 1014 q-69 -101 -184 -209q-130 103 -205 188q79 73 158 160l43 47q63 -69 188 -186zM2046 1059q-70 -104 -183 -209q-132 103 -204 188q66 61 198 207q53 -56 189 -186zM1735 -414q-63 -95 -184 -209q-130 103 -205 188q73 67 157 160l43 47q71 -78 189 -186zM2177 -369 q-65 -99 -182 -211q-133 104 -205 190q72 67 199 207q52 -56 188 -186zM1977 -720q-127 -135 -179 -170q-106 69 -194 170q102 96 184 191q35 -47 88.5 -101t100.5 -90z" />
<glyph unicode="&#x69d;" horiz-adv-x="1915" d="M461 575q39 0 76 -24l-45 -115l-50 -121q45 -17 97 -30q251 330 440 483.5t326 153.5q84 0 196.5 -69.5t201.5 -174.5t89 -176q0 -156 -99 -276.5t-301.5 -193.5t-416.5 -73q-188 0 -365 35t-288 94l-17 -20q-38 -38 -123.5 -63t-181.5 -25q-20 0 -20 20v246q0 20 20 20 q102 0 149 12t82.5 45.5t83.5 120.5l37 66q16 29 44.5 47t64.5 18zM1245 639q-208 0 -545 -391q148 -23 299 -23q161 0 306.5 35t347.5 131q-215 248 -408 248zM1092 -412q-61 -94 -184 -211q-131 104 -205 191q16 14 31.5 29t169.5 177q71 -77 188 -186zM1493 -367 q-65 -99 -182 -211q-127 99 -205 189q50 44 107.5 106t91.5 103q40 -43 188 -187z" />
<glyph unicode="&#x69d;" horiz-adv-x="2038" d="M2058 -20q-118 0 -227.5 51t-190.5 139q-107 -95 -290 -153t-375 -58q-188 0 -365 35t-288 94l-17 -20q-38 -38 -123.5 -63t-181.5 -25q-20 0 -20 20v246q0 20 20 20q102 0 149 12t82.5 45.5t83.5 120.5l37 66q16 29 44.5 47t64.5 18q39 0 76 -24l-45 -115l-50 -121 q45 -17 97 -30q251 330 440 483.5t326 153.5q84 0 196.5 -69.5t201.5 -174.5t89 -176q0 -73 -25 -150q57 -38 125.5 -62t165.5 -24q21 0 21 -20v-246q0 -20 -21 -20zM1245 639q-208 0 -545 -391q148 -23 299 -23q161 0 306.5 35t347.5 131q-215 248 -408 248zM1092 -412 q-61 -94 -184 -211q-131 104 -205 191q16 14 31.5 29t169.5 177q71 -77 188 -186zM1493 -367q-65 -99 -182 -211q-127 99 -205 189q50 44 107.5 106t91.5 103q40 -43 188 -187z" />
<glyph unicode="&#x69d;" horiz-adv-x="2859" d="M2879 -20q-115 0 -227 52t-194 144q-76 -69 -185 -117t-237.5 -74t-249.5 -26q-110 0 -234 14.5t-229 42.5q8 -85 8 -122q0 -160 -96 -297t-262.5 -215t-366.5 -78q-216 0 -329 126.5t-113 368.5q0 125 59 348l107 -26q-33 -111 -33 -191q0 -173 77 -256.5t238 -83.5 q197 0 331 51t253 162q-32 70 -68 136t-66 123t-49.5 103.5t-19.5 78.5q0 202 244 317q13 -99 39 -254l74 -22q251 330 440 483.5t326 153.5q84 0 196.5 -69.5t201.5 -174.5t89 -176q0 -78 -23 -144q58 -41 128 -66.5t171 -25.5q21 0 21 -20v-246q0 -20 -21 -20zM2056 639 q-208 0 -545 -391q148 -23 299 -23q161 0 306.5 35t347.5 131q-215 248 -408 248zM1915 -412q-61 -94 -184 -211q-131 104 -205 191q16 14 31.5 29t169.5 177q71 -77 188 -186zM2316 -367q-65 -99 -182 -211q-127 99 -205 189q50 44 107.5 106t91.5 103q40 -43 188 -187z " />
<glyph unicode="&#x69e;" horiz-adv-x="1915" d="M461 575q39 0 76 -24l-45 -115l-50 -121q45 -17 97 -30q251 330 440 483.5t326 153.5q84 0 196.5 -69.5t201.5 -174.5t89 -176q0 -156 -99 -276.5t-301.5 -193.5t-416.5 -73q-188 0 -365 35t-288 94l-17 -20q-38 -38 -123.5 -63t-181.5 -25q-20 0 -20 20v246q0 20 20 20 q102 0 149 12t82.5 45.5t83.5 120.5l37 66q16 29 44.5 47t64.5 18zM1245 639q-208 0 -545 -391q148 -23 299 -23q161 0 306.5 35t347.5 131q-215 248 -408 248zM1102 1438q-116 -130 -178 -170q-43 27 -99 74.5t-96 95.5q99 88 185 188q70 -91 188 -188zM897 1145 q-69 -101 -184 -209q-130 103 -205 188q79 73 158 160l43 47q63 -69 188 -186zM1340 1190q-70 -104 -183 -209q-132 103 -204 188q66 61 198 207q53 -56 189 -186z" />
<glyph unicode="&#x69e;" horiz-adv-x="2038" d="M2058 -20q-118 0 -227.5 51t-190.5 139q-107 -95 -290 -153t-375 -58q-188 0 -365 35t-288 94l-17 -20q-38 -38 -123.5 -63t-181.5 -25q-20 0 -20 20v246q0 20 20 20q102 0 149 12t82.5 45.5t83.5 120.5l37 66q16 29 44.5 47t64.5 18q39 0 76 -24l-45 -115l-50 -121 q45 -17 97 -30q251 330 440 483.5t326 153.5q84 0 196.5 -69.5t201.5 -174.5t89 -176q0 -73 -25 -150q57 -38 125.5 -62t165.5 -24q21 0 21 -20v-246q0 -20 -21 -20zM1245 639q-208 0 -545 -391q148 -23 299 -23q161 0 306.5 35t347.5 131q-215 248 -408 248zM1102 1438 q-116 -130 -178 -170q-43 27 -99 74.5t-96 95.5q99 88 185 188q70 -91 188 -188zM897 1145q-69 -101 -184 -209q-130 103 -205 188q79 73 158 160l43 47q63 -69 188 -186zM1340 1190q-70 -104 -183 -209q-132 103 -204 188q66 61 198 207q53 -56 189 -186z" />
<glyph unicode="&#x69e;" horiz-adv-x="2859" d="M2879 -20q-115 0 -227 52t-194 144q-76 -69 -185 -117t-237.5 -74t-249.5 -26q-110 0 -234 14.5t-229 42.5q8 -85 8 -122q0 -160 -96 -297t-262.5 -215t-366.5 -78q-216 0 -329 126.5t-113 368.5q0 125 59 348l107 -26q-33 -111 -33 -191q0 -173 77 -256.5t238 -83.5 q197 0 331 51t253 162q-32 70 -68 136t-66 123t-49.5 103.5t-19.5 78.5q0 202 244 317q13 -99 39 -254l74 -22q251 330 440 483.5t326 153.5q84 0 196.5 -69.5t201.5 -174.5t89 -176q0 -78 -23 -144q58 -41 128 -66.5t171 -25.5q21 0 21 -20v-246q0 -20 -21 -20zM2056 639 q-208 0 -545 -391q148 -23 299 -23q161 0 306.5 35t347.5 131q-215 248 -408 248zM1919 1438q-116 -130 -178 -170q-43 27 -99 74.5t-96 95.5q99 88 185 188q70 -91 188 -188zM1714 1145q-69 -101 -184 -209q-130 103 -205 188q79 73 158 160l43 47q63 -69 188 -186z M2157 1190q-70 -104 -183 -209q-132 103 -204 188q66 61 198 207q53 -56 189 -186z" />
<glyph unicode="&#x69f;" horiz-adv-x="1669" d="M0 -20q-20 0 -20 20v246q0 20 20 20h107l139 2l100 135q-26 112 -47.5 214t-134.5 688q-5 28 -5 55q0 101 70.5 169t173.5 68q42 -152 97 -297l-76 -59l51 -676q340 398 582 398q76 0 156.5 -34.5t157 -100t126 -139.5t49.5 -118q0 -190 -164.5 -321t-497 -200.5 t-884.5 -69.5zM997 670q-219 0 -561 -398l256 13q215 12 512 96l185 51q-80 91 -142 142t-118.5 73.5t-131.5 22.5zM1188 1537q-116 -130 -178 -170q-43 27 -99 74.5t-96 95.5q99 88 185 188q70 -91 188 -188zM983 1244q-69 -101 -184 -209q-130 103 -205 188q79 73 158 160 l43 47q63 -69 188 -186zM1426 1289q-70 -104 -183 -209q-132 103 -204 188q66 61 198 207q53 -56 189 -186z" />
<glyph unicode="&#x69f;" horiz-adv-x="1700" d="M0 -20q-20 0 -20 20v246q0 20 20 20h107l139 2l100 135q-26 112 -47.5 214t-134.5 688q-5 28 -5 55q0 101 70.5 169t173.5 68q42 -152 97 -297l-76 -59l51 -676q340 398 582 398q76 0 156.5 -34.5t157 -100t126 -139.5t49.5 -118q0 -136 -82 -239q109 -66 256 -66 q21 0 21 -20v-246q0 -20 -21 -20q-123 0 -238.5 56.5t-193.5 149.5q-182 -100 -492 -153t-796 -53zM997 670q-219 0 -561 -398l256 13q215 12 512 96l185 51q-80 91 -142 142t-118.5 73.5t-131.5 22.5zM1188 1537q-116 -130 -178 -170q-43 27 -99 74.5t-96 95.5 q99 88 185 188q70 -91 188 -188zM983 1244q-69 -101 -184 -209q-130 103 -205 188q79 73 158 160l43 47q63 -69 188 -186zM1426 1289q-70 -104 -183 -209q-132 103 -204 188q66 61 198 207q53 -56 189 -186z" />
<glyph unicode="&#x69f;" horiz-adv-x="2107" d="M1051 -41q-137 0 -313 10.5t-234 28.5q-52 15 -159.5 89.5t-180.5 143.5l37 103q259 -61 393 -78q46 64 96 123q-78 337 -188 926q-5 28 -5 55q0 101 70.5 169t173.5 68q42 -152 97 -297l-76 -59l53 -711q180 203 317.5 297.5t247.5 94.5q83 0 196 -69t202.5 -174.5 t89.5 -176.5q0 -81 -27 -152q57 -38 124.5 -61t162.5 -23q20 0 20 -20v-246q0 -20 -20 -20q-113 0 -221.5 48.5t-194.5 139.5q-114 -99 -296 -154t-365 -55zM1321 639q-207 0 -555 -403q108 -11 309 -11q161 0 306.5 35t347.5 131q-215 248 -408 248zM1450 1438 q-116 -130 -178 -170q-43 27 -99 74.5t-96 95.5q99 88 185 188q70 -91 188 -188zM1245 1145q-69 -101 -184 -209q-130 103 -205 188q79 73 158 160l43 47q63 -69 188 -186zM1688 1190q-70 -104 -183 -209q-132 103 -204 188q66 61 198 207q53 -56 189 -186z" />
<glyph unicode="&#x6a0;" horiz-adv-x="1245" d="M0 -20q-20 0 -20 20v246q0 20 20 20l128 -1l60 1q-51 68 -51 148q0 113 64 242t154.5 201.5t185.5 72.5q168 0 366 -223l-51 -97q-145 56 -254 56q-83 0 -147.5 -17.5t-145.5 -60.5q5 -100 51.5 -183t143.5 -131q351 17 641 134q16 -15 27 -47.5t11 -70.5 q0 -56 -24 -99.5t-66.5 -70t-228.5 -66t-388 -57t-476 -17.5zM597 1504q-116 -130 -178 -170q-43 27 -99 74.5t-96 95.5q99 88 185 188q70 -91 188 -188zM392 1211q-69 -101 -184 -209q-130 103 -205 188q79 73 158 160l43 47q63 -69 188 -186zM835 1256q-70 -104 -183 -209 q-132 103 -204 188q66 61 198 207q53 -56 189 -186z" />
<glyph unicode="&#x6a0;" horiz-adv-x="1079" d="M1096 -20q-333 0 -521 147q-142 -79 -282.5 -113t-290.5 -34q-22 0 -22 22v242q0 22 22 22q108 0 218.5 2.5t203.5 18.5l-49 62q-89 115 -193 198l-43 -29q-64 71 -64 154q0 79 69.5 139.5t194.5 106t245 45.5q104 0 198 -46.5t148.5 -125.5t54.5 -170q0 -172 -188 -340 q90 -15 299 -15q24 0 24 -22v-242q0 -22 -24 -22zM592 696q-128 0 -254 -59q79 -67 149 -144q87 -98 127 -135q129 93 129 209q0 57 -42.5 93t-108.5 36zM642 1504q-116 -130 -178 -170q-43 27 -99 74.5t-96 95.5q99 88 185 188q70 -91 188 -188zM437 1211 q-69 -101 -184 -209q-130 103 -205 188q79 73 158 160l43 47q63 -69 188 -186zM880 1256q-70 -104 -183 -209q-132 103 -204 188q66 61 198 207q53 -56 189 -186z" />
<glyph unicode="&#x6a0;" horiz-adv-x="1208" d="M1224 -20q-171 0 -295.5 37t-218.5 118q-127 -76 -196.5 -166t-69.5 -174q0 -117 68.5 -202t190 -131t269.5 -46q186 0 473 66l33 -103l-90 -52q-312 -187 -422 -187q-317 0 -481 154.5t-164 465.5q0 272 277 494l-55 70q-97 131 -212 223l-43 -29q-64 71 -64 154 q0 79 69.5 139.5t194.5 106t245 45.5q104 0 198 -46.5t148.5 -125.5t54.5 -170q0 -173 -201 -340q84 -15 291 -15q25 0 25 -22v-242q0 -22 -25 -22zM741 696q-128 0 -254 -59q80 -65 204 -204l62 -64q77 54 108.5 99.5t31.5 98.5q0 58 -43.5 93.5t-108.5 35.5zM758 1547 q-116 -130 -178 -170q-43 27 -99 74.5t-96 95.5q99 88 185 188q70 -91 188 -188zM553 1254q-69 -101 -184 -209q-130 103 -205 188q79 73 158 160l43 47q63 -69 188 -186zM996 1299q-70 -104 -183 -209q-132 103 -204 188q66 61 198 207q53 -56 189 -186z" />
<glyph unicode="&#x6a1;" horiz-adv-x="1991" d="M739 -41q-287 0 -437 130.5t-150 383.5q0 50 14.5 128.5t32.5 135.5h108l-3 -26l-5 -93q0 -141 56 -220t174 -116.5t298 -37.5q187 0 349 16q-43 62 -43 119q0 61 13.5 141.5t29.5 110.5q67 122 180.5 207.5t222.5 85.5q64 0 130 -70.5t108.5 -186t42.5 -218.5 q0 -86 -72 -181l110 -2h113q21 0 21 -20v-246q0 -20 -21 -20q-326 0 -530 83q-144 -49 -348.5 -76.5t-393.5 -27.5zM1264 401q82 -99 225 -143q146 40 235 117q-27 99 -78.5 175.5t-91.5 76.5q-130 0 -290 -226z" />
<glyph unicode="&#x6a2;" horiz-adv-x="1030" d="M784 395q-27 102 -45 148q-69 -51 -154 -82t-175 -31q-87 0 -149 35.5t-95 99t-33 146.5q0 125 47 244.5t124 190.5t159 71q115 0 221.5 -115t164.5 -300t58 -403q0 -77 -84 -245q-144 -90 -333.5 -132t-487.5 -42q-22 0 -22 22v242q0 22 22 22q271 0 454.5 32.5 t327.5 96.5zM457 633q96 0 229 45q-63 132 -134 191t-138 59q-59 0 -107.5 -46t-48.5 -110q0 -57 58 -98t141 -41zM813 -336q-78 -111 -199 -225q-150 124 -219 203q145 145 215 225q70 -81 203 -203z" />
<glyph unicode="&#x6a2;" horiz-adv-x="993" d="M2 266l111 -1l57 1q-35 56 -35 113q0 48 13 134t30 118q71 125 183 209t221 84q65 0 130 -71t107.5 -185.5t42.5 -218.5q0 -92 -53 -181l102 -2h103q20 0 20 -20v-246q0 -20 -20 -20q-311 0 -516 79q-177 -79 -496 -79q-22 0 -22 22v242q0 22 22 22zM266 401 q84 -99 226 -143q146 40 235 117q-26 95 -78.5 173.5t-91.5 78.5q-71 0 -143 -60t-148 -166zM735 -336q-78 -111 -199 -225q-150 124 -219 203q145 145 215 225q70 -81 203 -203z" />
<glyph unicode="&#x6a2;" horiz-adv-x="2003" d="M751 -41q-287 0 -437 130.5t-150 383.5q0 50 14.5 128.5t32.5 135.5h108l-3 -26l-5 -93q0 -141 56 -220t174 -116.5t298 -37.5q187 0 349 16q-43 62 -43 119q0 61 13.5 141.5t29.5 110.5q67 122 180.5 207.5t222.5 85.5q64 0 130 -70.5t108.5 -186t42.5 -218.5 q0 -86 -72 -181l110 -2h113q21 0 21 -20v-246q0 -20 -21 -20q-326 0 -530 83q-144 -49 -348.5 -76.5t-393.5 -27.5zM1276 401q82 -99 225 -143q146 40 235 117q-27 99 -78.5 175.5t-91.5 76.5q-130 0 -290 -226zM1745 -336q-78 -111 -199 -225q-150 124 -219 203 q145 145 215 225q70 -81 203 -203z" />
<glyph unicode="&#x6a3;" horiz-adv-x="1030" d="M784 395q-27 102 -45 148q-69 -51 -154 -82t-175 -31q-87 0 -149 35.5t-95 99t-33 146.5q0 125 47 244.5t124 190.5t159 71q115 0 221.5 -115t164.5 -300t58 -403q0 -77 -84 -245q-144 -90 -333.5 -132t-487.5 -42q-22 0 -22 22v242q0 22 22 22q271 0 454.5 32.5 t327.5 96.5zM457 633q96 0 229 45q-63 132 -134 191t-138 59q-59 0 -107.5 -46t-48.5 -110q0 -57 58 -98t141 -41zM574 1483q-73 -108 -199 -226q-150 124 -219 203q145 145 215 225q83 -94 203 -202zM813 -336q-78 -111 -199 -225q-150 124 -219 203q145 145 215 225 q70 -81 203 -203z" />
<glyph unicode="&#x6a3;" horiz-adv-x="993" d="M2 266l111 -1l57 1q-35 56 -35 113q0 48 13 134t30 118q71 125 183 209t221 84q65 0 130 -71t107.5 -185.5t42.5 -218.5q0 -92 -53 -181l102 -2h103q20 0 20 -20v-246q0 -20 -20 -20q-311 0 -516 79q-177 -79 -496 -79q-22 0 -22 22v242q0 22 22 22zM266 401 q84 -99 226 -143q146 40 235 117q-26 95 -78.5 173.5t-91.5 78.5q-71 0 -143 -60t-148 -166zM656 1266q-73 -108 -199 -226q-150 124 -219 203q145 145 215 225q83 -94 203 -202zM731 -355q-78 -111 -199 -225q-150 124 -219 203q145 145 215 225q70 -81 203 -203z" />
<glyph unicode="&#x6a3;" horiz-adv-x="2003" d="M751 -41q-287 0 -437 130.5t-150 383.5q0 50 14.5 128.5t32.5 135.5h108l-3 -26l-5 -93q0 -141 56 -220t174 -116.5t298 -37.5q187 0 349 16q-43 62 -43 119q0 61 13.5 141.5t29.5 110.5q67 122 180.5 207.5t222.5 85.5q64 0 130 -70.5t108.5 -186t42.5 -218.5 q0 -86 -72 -181l110 -2h113q21 0 21 -20v-246q0 -20 -21 -20q-326 0 -530 83q-144 -49 -348.5 -76.5t-393.5 -27.5zM1276 401q82 -99 225 -143q146 40 235 117q-27 99 -78.5 175.5t-91.5 76.5q-130 0 -290 -226zM1735 -355q-78 -111 -199 -225q-150 124 -219 203 q145 145 215 225q70 -81 203 -203zM1710 1315q-73 -108 -199 -226q-150 124 -219 203q145 145 215 225q83 -94 203 -202z" />
<glyph unicode="&#x6a4;" horiz-adv-x="1032" arabic-form="initial" d="M786 395q-27 102 -45 148q-69 -51 -154 -82t-175 -31q-87 0 -149 35.5t-95 99t-33 146.5q0 125 47 244.5t124 190.5t159 71q115 0 221.5 -115t164.5 -300t58 -403q0 -77 -84 -245q-144 -90 -333.5 -132t-487.5 -42q-22 0 -22 22v242q0 22 22 22q271 0 454.5 32.5 t327.5 96.5zM459 633q96 0 229 45q-63 132 -134 191t-138 59q-59 0 -107.5 -46t-48.5 -110q0 -57 58 -98t141 -41zM515 1760q-116 -130 -178 -170q-43 27 -99 74.5t-96 95.5q99 88 185 188q70 -91 188 -188zM310 1467q-69 -101 -184 -209q-130 103 -205 188q79 73 158 160 l43 47q63 -69 188 -186zM753 1512q-70 -104 -183 -209q-132 103 -204 188q66 61 198 207q53 -56 189 -186z" />
<glyph unicode="&#x6a4;" horiz-adv-x="993" arabic-form="medial" d="M2 266l111 -1l57 1q-35 56 -35 113q0 48 13 134t30 118q71 125 183 209t221 84q65 0 130 -71t107.5 -185.5t42.5 -218.5q0 -92 -53 -181l102 -2h103q20 0 20 -20v-246q0 -20 -20 -20q-311 0 -516 79q-177 -79 -496 -79q-22 0 -22 22v242q0 22 22 22zM266 401 q84 -99 226 -143q146 40 235 117q-26 95 -78.5 173.5t-91.5 78.5q-71 0 -143 -60t-148 -166zM630 1573q-116 -130 -178 -170q-43 27 -99 74.5t-96 95.5q99 88 185 188q70 -91 188 -188zM425 1280q-69 -101 -184 -209q-130 103 -205 188q79 73 158 160l43 47q63 -69 188 -186 zM868 1325q-70 -104 -183 -209q-132 103 -204 188q66 61 198 207q53 -56 189 -186z" />
<glyph unicode="&#x6a4;" horiz-adv-x="2003" arabic-form="final" d="M751 -41q-287 0 -437 130.5t-150 383.5q0 50 14.5 128.5t32.5 135.5h108l-3 -26l-5 -93q0 -141 56 -220t174 -116.5t298 -37.5q187 0 349 16q-43 62 -43 119q0 61 13.5 141.5t29.5 110.5q67 122 180.5 207.5t222.5 85.5q64 0 130 -70.5t108.5 -186t42.5 -218.5 q0 -86 -72 -181l110 -2h113q21 0 21 -20v-246q0 -20 -21 -20q-326 0 -530 83q-144 -49 -348.5 -76.5t-393.5 -27.5zM1276 401q82 -99 225 -143q146 40 235 117q-27 99 -78.5 175.5t-91.5 76.5q-130 0 -290 -226zM1683 1573q-116 -130 -178 -170q-43 27 -99 74.5t-96 95.5 q99 88 185 188q70 -91 188 -188zM1478 1280q-69 -101 -184 -209q-130 103 -205 188q79 73 158 160l43 47q63 -69 188 -186zM1921 1325q-70 -104 -183 -209q-132 103 -204 188q66 61 198 207q53 -56 189 -186z" />
<glyph unicode="&#x6a5;" horiz-adv-x="1030" d="M784 395q-27 102 -45 148q-69 -51 -154 -82t-175 -31q-87 0 -149 35.5t-95 99t-33 146.5q0 125 47 244.5t124 190.5t159 71q115 0 221.5 -115t164.5 -300t58 -403q0 -77 -84 -245q-144 -90 -333.5 -132t-487.5 -42q-22 0 -22 22v242q0 22 22 22q271 0 454.5 32.5 t327.5 96.5zM457 633q96 0 229 45q-63 132 -134 191t-138 59q-59 0 -107.5 -46t-48.5 -110q0 -57 58 -98t141 -41zM427 -379q-63 -95 -184 -209q-130 103 -205 188q73 67 157 160l43 47q71 -78 189 -186zM869 -334q-65 -99 -182 -211q-133 104 -205 190q72 67 199 207 q52 -56 188 -186zM669 -685q-127 -135 -179 -170q-106 69 -194 170q102 96 184 191q35 -47 88.5 -101t100.5 -90z" />
<glyph unicode="&#x6a5;" horiz-adv-x="993" d="M2 266l111 -1l57 1q-35 56 -35 113q0 48 13 134t30 118q71 125 183 209t221 84q65 0 130 -71t107.5 -185.5t42.5 -218.5q0 -92 -53 -181l102 -2h103q20 0 20 -20v-246q0 -20 -20 -20q-311 0 -516 79q-177 -79 -496 -79q-22 0 -22 22v242q0 22 22 22zM266 401 q84 -99 226 -143q146 40 235 117q-26 95 -78.5 173.5t-91.5 78.5q-71 0 -143 -60t-148 -166zM460 -379q-63 -95 -184 -209q-130 103 -205 188q73 67 157 160l43 47q71 -78 189 -186zM902 -334q-65 -99 -182 -211q-133 104 -205 190q72 67 199 207q52 -56 188 -186zM702 -685 q-127 -135 -179 -170q-106 69 -194 170q102 96 184 191q35 -47 88.5 -101t100.5 -90z" />
<glyph unicode="&#x6a5;" horiz-adv-x="2003" d="M751 -41q-287 0 -437 130.5t-150 383.5q0 50 14.5 128.5t32.5 135.5h108l-3 -26l-5 -93q0 -141 56 -220t174 -116.5t298 -37.5q187 0 349 16q-43 62 -43 119q0 61 13.5 141.5t29.5 110.5q67 122 180.5 207.5t222.5 85.5q64 0 130 -70.5t108.5 -186t42.5 -218.5 q0 -86 -72 -181l110 -2h113q21 0 21 -20v-246q0 -20 -21 -20q-326 0 -530 83q-144 -49 -348.5 -76.5t-393.5 -27.5zM1276 401q82 -99 225 -143q146 40 235 117q-27 99 -78.5 175.5t-91.5 76.5q-130 0 -290 -226zM1444 -379q-63 -95 -184 -209q-130 103 -205 188 q73 67 157 160l43 47q71 -78 189 -186zM1886 -334q-65 -99 -182 -211q-133 104 -205 190q72 67 199 207q52 -56 188 -186zM1686 -685q-127 -135 -179 -170q-106 69 -194 170q102 96 184 191q35 -47 88.5 -101t100.5 -90z" />
<glyph unicode="&#x6a6;" horiz-adv-x="1030" arabic-form="initial" d="M784 395q-27 102 -45 148q-69 -51 -154 -82t-175 -31q-87 0 -149 35.5t-95 99t-33 146.5q0 125 47 244.5t124 190.5t159 71q115 0 221.5 -115t164.5 -300t58 -403q0 -77 -84 -245q-144 -90 -333.5 -132t-487.5 -42q-22 0 -22 22v242q0 22 22 22q271 0 454.5 32.5 t327.5 96.5zM457 633q96 0 229 45q-63 132 -134 191t-138 59q-59 0 -107.5 -46t-48.5 -110q0 -57 58 -98t141 -41zM418 1471q-61 -94 -184 -211q-129 102 -205 190q79 73 158 160l43 47q71 -77 188 -186zM820 1516q-63 -96 -183 -211q-132 103 -204 188q87 81 198 209 q66 -68 189 -186zM318 1854q-61 -94 -184 -211q-129 102 -205 190q54 50 107 107t94 100q71 -77 188 -186zM719 1899q-65 -99 -182 -211q-130 101 -205 188q92 86 199 209q77 -80 188 -186z" />
<glyph unicode="&#x6a6;" horiz-adv-x="995" arabic-form="medial" d="M4 266l111 -1l57 1q-35 56 -35 113q0 48 13 134t30 118q71 125 183 209t221 84q65 0 130 -71t107.5 -185.5t42.5 -218.5q0 -92 -53 -181l102 -2h103q20 0 20 -20v-246q0 -20 -20 -20q-311 0 -516 79q-177 -79 -496 -79q-22 0 -22 22v242q0 22 22 22zM268 401 q84 -99 226 -143q146 40 235 117q-26 95 -78.5 173.5t-91.5 78.5q-71 0 -143 -60t-148 -166zM470 1286q-61 -94 -184 -211q-129 102 -205 190q79 73 158 160l43 47q71 -77 188 -186zM872 1331q-63 -96 -183 -211q-132 103 -204 188q87 81 198 209q66 -68 189 -186zM370 1669 q-61 -94 -184 -211q-129 102 -205 190q54 50 107 107t94 100q71 -77 188 -186zM771 1714q-65 -99 -182 -211q-130 101 -205 188q92 86 199 209q77 -80 188 -186z" />
<glyph unicode="&#x6a6;" horiz-adv-x="2003" arabic-form="final" d="M751 -41q-287 0 -437 130.5t-150 383.5q0 50 14.5 128.5t32.5 135.5h108l-3 -26l-5 -93q0 -141 56 -220t174 -116.5t298 -37.5q187 0 349 16q-43 62 -43 119q0 61 13.5 141.5t29.5 110.5q67 122 180.5 207.5t222.5 85.5q64 0 130 -70.5t108.5 -186t42.5 -218.5 q0 -86 -72 -181l110 -2h113q21 0 21 -20v-246q0 -20 -21 -20q-326 0 -530 83q-144 -49 -348.5 -76.5t-393.5 -27.5zM1276 401q82 -99 225 -143q146 40 235 117q-27 99 -78.5 175.5t-91.5 76.5q-130 0 -290 -226zM1505 1286q-61 -94 -184 -211q-129 102 -205 190 q79 73 158 160l43 47q71 -77 188 -186zM1907 1331q-63 -96 -183 -211q-132 103 -204 188q87 81 198 209q66 -68 189 -186zM1405 1669q-61 -94 -184 -211q-129 102 -205 190q54 50 107 107t94 100q71 -77 188 -186zM1806 1714q-65 -99 -182 -211q-130 101 -205 188 q92 86 199 209q77 -80 188 -186z" />
<glyph unicode="&#x6a7;" horiz-adv-x="1524" d="M985 891q93 0 180 -78.5t151.5 -222t92.5 -324.5h135q21 0 21 -20v-246q0 -20 -21 -20h-119q-11 -144 -78 -264.5t-182.5 -211.5t-268.5 -145.5t-290 -54.5q-216 0 -329 126.5t-113 368.5q0 125 59 348l107 -26q-33 -111 -33 -191q0 -167 84 -253.5t252 -86.5 q312 0 635 246q-8 96 -15 148q-267 7 -385.5 42t-175.5 113t-57 203q0 138 52.5 267t133.5 205.5t164 76.5zM1196 268q-48 160 -115.5 248t-148.5 88q-70 0 -120 -48.5t-50 -109.5q0 -53 42 -92.5t123.5 -59.5t268.5 -26zM1159 1205q-73 -108 -199 -226q-150 124 -219 203 q145 145 215 225q83 -94 203 -202z" />
<glyph unicode="&#x6a8;" horiz-adv-x="1524" d="M985 891q93 0 180 -78.5t151.5 -222t92.5 -324.5h135q21 0 21 -20v-246q0 -20 -21 -20h-119q-11 -144 -78 -264.5t-182.5 -211.5t-268.5 -145.5t-290 -54.5q-216 0 -329 126.5t-113 368.5q0 125 59 348l107 -26q-33 -111 -33 -191q0 -167 84 -253.5t252 -86.5 q312 0 635 246q-8 96 -15 148q-267 7 -385.5 42t-175.5 113t-57 203q0 138 52.5 267t133.5 205.5t164 76.5zM1196 268q-48 160 -115.5 248t-148.5 88q-70 0 -120 -48.5t-50 -109.5q0 -53 42 -92.5t123.5 -59.5t268.5 -26zM1057 1459q-116 -130 -178 -170q-43 27 -99 74.5 t-96 95.5q99 88 185 188q70 -91 188 -188zM852 1166q-69 -101 -184 -209q-130 103 -205 188q79 73 158 160l43 47q63 -69 188 -186zM1295 1211q-70 -104 -183 -209q-132 103 -204 188q66 61 198 207q53 -56 189 -186z" />
<glyph unicode="&#x6aa;" horiz-adv-x="2138" d="M0 -20q-20 0 -20 20v246q0 20 20 20q531 0 1085 20.5t824 51.5q-42 81 -112.5 109t-207.5 28q-146 0 -494 -19q-348 -20 -517 -20q-172 0 -249 74t-77 231q0 89 50.5 184t152 185.5t251 164.5t265.5 101q13 -61 13 -116q-1 -85 -36 -146t-98 -86l-75 -29 q-221 -84 -309.5 -133t-88.5 -82q0 -31 79.5 -55t164.5 -24q134 0 477 16q386 18 491 18q132 0 235.5 -56.5t158.5 -159.5t55 -242q0 -79 -51 -195q-301 -46 -916 -76t-1071 -30z" />
<glyph unicode="&#x6aa;" horiz-adv-x="2261" d="M2281 -20q-81 0 -165 27t-150 75q-278 -41 -883.5 -71.5t-1082.5 -30.5q-20 0 -20 20v246q0 20 20 20q531 0 1085 20.5t824 51.5q-42 81 -112.5 109t-207.5 28q-146 0 -494 -19q-348 -20 -517 -20q-172 0 -249 74t-77 231q0 89 50.5 184t152 185.5t251 164.5t265.5 101 q13 -61 13 -116q-1 -85 -36 -146t-98 -86l-75 -29q-221 -84 -309.5 -133t-88.5 -82q0 -31 79.5 -55t164.5 -24q134 0 477 16q386 18 492 18q122 0 221.5 -50t157.5 -143t67 -220q105 -60 245 -60q21 0 21 -20v-246q0 -20 -21 -20z" />
<glyph unicode="&#x6aa;" horiz-adv-x="2566" d="M690 -20h-61q-304 0 -398 18t-150.5 94t-58.5 188l3 44q271 -58 628 -58q434 0 862.5 19t708.5 53q-42 81 -112.5 109t-206.5 28q-147 0 -495 -19q-348 -20 -517 -20q-170 0 -248 73.5t-78 231.5q0 132 106.5 267.5t284.5 233.5t328 134q13 -61 13 -116q-1 -85 -36 -146 t-98 -86l-74 -29q-211 -80 -305 -130.5t-94 -84.5q0 -31 79.5 -55t164.5 -24q134 0 477 16q386 18 492 18q192 0 313.5 -112.5t132.5 -307.5q106 -53 236 -53q20 0 20 -20v-246q0 -20 -20 -20q-82 0 -165 26t-149 76q-313 -46 -750.5 -74t-832.5 -28z" />
<glyph unicode="&#x6ab;" horiz-adv-x="1067" d="M0 -20q-20 0 -20 20v246q0 20 20 20q293 0 464.5 18t270.5 62q-44 90 -167.5 197t-297.5 205q-32 -9 -61 -9q-65 0 -115.5 46t-50.5 110q0 49 25 172t38 131q343 170 443.5 216t227.5 100t200 83q47 -45 47 -120q0 -60 -33.5 -114.5t-92.5 -85.5t-182 -85t-244 -96.5 t-290 -89.5q180 -47 335.5 -149.5t248 -234t92.5 -247.5q0 -123 -93.5 -212t-289.5 -136t-475 -47zM612 939q-70 0 -115 52.5t-45 131.5q0 62 24 109t62.5 73.5t77.5 26.5q40 0 79.5 -26.5t64 -73.5t24.5 -111q0 -77 -53.5 -129.5t-118.5 -52.5zM702 1123q0 13 -13.5 33.5 t-35 34.5t-51.5 14q-26 0 -48 -20t-22 -46q0 -31 22.5 -51t63.5 -20q32 0 58 18.5t26 36.5z" />
<glyph unicode="&#x6ab;" horiz-adv-x="1126" d="M358 313q-34 95 -65 156q-141 158 -205.5 288t-64.5 247q0 56 31.5 114t84.5 84q215 105 408.5 190.5t486.5 204.5q51 -49 51 -120q0 -63 -37 -115.5t-94 -79.5q-187 -91 -360.5 -157.5t-454.5 -159.5q249 -281 356 -382t212.5 -177t210.5 -108t229 -32q20 0 20 -20v-246 q0 -20 -20 -20q-116 0 -206.5 16t-165 49.5t-136 85t-150.5 137.5q-11 -85 -55 -155q-108 -64 -213.5 -98.5t-220.5 -34.5q-20 0 -20 20v246q0 20 20 20q178 0 358 47zM588 898q-70 0 -115 52.5t-45 131.5q0 62 24 109t62.5 73.5t77.5 26.5q40 0 79.5 -26.5t64 -73.5 t24.5 -111q0 -77 -53.5 -129.5t-118.5 -52.5zM678 1082q0 13 -13.5 33.5t-35 34.5t-51.5 14q-26 0 -48 -20t-22 -46q0 -31 22.5 -51t63.5 -20q32 0 58 18.5t26 36.5z" />
<glyph unicode="&#x6ab;" horiz-adv-x="1911" d="M721 -41q-223 0 -330 37.5t-155 121t-48 228.5q0 96 33 254l109 -4q-8 -53 -8 -90q0 -144 101 -202t345 -58q95 0 198.5 18.5t176.5 48.5q-42 112 -66 156q-136 152 -203 284t-67 251q0 57 32.5 114.5t84.5 83.5q378 186 895 395q51 -49 51 -120q0 -63 -37 -115.5 t-94 -79.5q-187 -91 -368 -160t-447 -157q221 -249 304 -332t187 -168q140 -115 256.5 -157t259.5 -42q21 0 21 -20v-246q0 -20 -21 -20q-133 0 -235 22t-183.5 67t-240.5 199q-11 -88 -60 -172q-73 -53 -217.5 -95t-273.5 -42zM1350 898q-70 0 -115 52.5t-45 131.5 q0 62 24 109t62.5 73.5t77.5 26.5q40 0 79.5 -26.5t64 -73.5t24.5 -111q0 -77 -53.5 -129.5t-118.5 -52.5zM1440 1082q0 13 -13.5 33.5t-35 34.5t-51.5 14q-26 0 -48 -20t-22 -46q0 -31 22.5 -51t63.5 -20q32 0 58 18.5t26 36.5z" />
<glyph unicode="&#x6ac;" horiz-adv-x="1067" d="M0 -20q-20 0 -20 20v246q0 20 20 20q293 0 464.5 18t270.5 62q-44 90 -167.5 197t-297.5 205q-32 -9 -61 -9q-65 0 -115.5 46t-50.5 110q0 49 25 172t38 131q343 170 443.5 216t227.5 100t200 83q47 -45 47 -120q0 -60 -33.5 -114.5t-92.5 -85.5t-182 -85t-244 -96.5 t-290 -89.5q180 -47 335.5 -149.5t248 -234t92.5 -247.5q0 -123 -93.5 -212t-289.5 -136t-475 -47zM462 1682q-73 -108 -199 -226q-150 124 -219 203q145 145 215 225q83 -94 203 -202z" />
<glyph unicode="&#x6ac;" horiz-adv-x="1126" d="M358 313q-34 95 -65 156q-141 158 -205.5 288t-64.5 247q0 56 31.5 114t84.5 84q215 105 408.5 190.5t486.5 204.5q51 -49 51 -120q0 -63 -37 -115.5t-94 -79.5q-187 -91 -360.5 -157.5t-454.5 -159.5q249 -281 356 -382t212.5 -177t210.5 -108t229 -32q20 0 20 -20v-246 q0 -20 -20 -20q-116 0 -206.5 16t-165 49.5t-136 85t-150.5 137.5q-11 -85 -55 -155q-108 -64 -213.5 -98.5t-220.5 -34.5q-20 0 -20 20v246q0 20 20 20q178 0 358 47zM462 1682q-73 -108 -199 -226q-150 124 -219 203q145 145 215 225q83 -94 203 -202z" />
<glyph unicode="&#x6ac;" horiz-adv-x="1794" d="M813 246q173 0 316 15.5t298 49.5q-72 469 -143 1168l287 159q-21 -924 -21 -1304q52 -35 113 -51.5t152 -16.5q20 0 20 -20v-246q0 -20 -20 -20q-251 0 -334 129q-244 -86 -409.5 -118t-309.5 -32q-234 0 -355.5 38.5t-182 123t-60.5 225.5q0 49 11.5 131.5t21.5 122.5 l108 -4q-8 -53 -8 -90q0 -102 48.5 -157t154.5 -79t313 -24zM1014 1317q-73 -108 -199 -226q-150 124 -219 203q145 145 215 225q83 -94 203 -202zM953 865l1 10q0 14 -8.5 24.5t-25.5 10.5q-67 0 -117 -95q54 -49 142 -49q59 0 141 19l-12 -152q-154 -42 -233 -73.5 t-157 -73.5l-6 137q59 41 105 63q-52 26 -73 55.5t-21 69.5q0 62 34 118.5t89.5 92t107.5 35.5q54 0 84.5 -34t30.5 -85q0 -23 -8.5 -48t-16.5 -38z" />
<glyph unicode="&#x6ad;" horiz-adv-x="1065" arabic-form="initial" d="M-1 -20q-20 0 -20 20v246q0 20 20 20q293 0 464.5 18t270.5 62q-44 90 -167.5 197t-297.5 205q-32 -9 -61 -9q-65 0 -115.5 46t-50.5 110q0 49 25 172t38 131q343 170 443.5 216t227.5 100t200 83q47 -45 47 -120q0 -60 -33.5 -114.5t-92.5 -85.5t-182 -85t-244 -96.5 t-290 -89.5q180 -47 335.5 -149.5t248 -234t92.5 -247.5q0 -123 -93.5 -212t-289.5 -136t-475 -47zM349 1815q-87 -94 -125 -119q-78 51 -137 119q69 61 129 131q50 -62 133 -131zM206 1610q-51 -73 -129 -146q-81 59 -144 131q59 54 139 146q14 -15 134 -131zM515 1640 q-43 -66 -127 -145q-96 74 -144 131q48 45 140 146l68 -70z" />
<glyph unicode="&#x6ad;" horiz-adv-x="1126" arabic-form="medial" d="M358 313q-34 95 -65 156q-141 158 -205.5 288t-64.5 247q0 56 31.5 114t84.5 84q215 105 408.5 190.5t486.5 204.5q51 -49 51 -120q0 -63 -37 -115.5t-94 -79.5q-187 -91 -360.5 -157.5t-454.5 -159.5q249 -281 356 -382t212.5 -177t210.5 -108t229 -32q20 0 20 -20v-246 q0 -20 -20 -20q-116 0 -206.5 16t-165 49.5t-136 85t-150.5 137.5q-11 -85 -55 -155q-108 -64 -213.5 -98.5t-220.5 -34.5q-20 0 -20 20v246q0 20 20 20q178 0 358 47zM351 1815q-87 -94 -125 -119q-78 51 -137 119q69 61 129 131q50 -62 133 -131zM208 1610 q-51 -73 -129 -146q-81 59 -144 131q59 54 139 146q14 -15 134 -131zM517 1640q-43 -66 -127 -145q-96 74 -144 131q48 45 140 146l68 -70z" />
<glyph unicode="&#x6ad;" horiz-adv-x="1794" arabic-form="final" d="M813 246q173 0 316 15.5t298 49.5q-72 469 -143 1168l287 159q-21 -924 -21 -1304q52 -35 113 -51.5t152 -16.5q20 0 20 -20v-246q0 -20 -20 -20q-251 0 -334 129q-244 -86 -409.5 -118t-309.5 -32q-234 0 -355.5 38.5t-182 123t-60.5 225.5q0 49 11.5 131.5t21.5 122.5 l108 -4q-8 -53 -8 -90q0 -102 48.5 -157t154.5 -79t313 -24zM932 1606q-116 -130 -178 -170q-43 27 -99 74.5t-96 95.5q99 88 185 188q70 -91 188 -188zM727 1313q-69 -101 -184 -209q-130 103 -205 188q79 73 158 160l43 47q63 -69 188 -186zM1170 1358q-70 -104 -183 -209 q-132 103 -204 188q66 61 198 207q53 -56 189 -186zM953 865l1 10q0 14 -8.5 24.5t-25.5 10.5q-67 0 -117 -95q54 -49 142 -49q59 0 141 19l-12 -152q-154 -42 -233 -73.5t-157 -73.5l-6 137q59 41 105 63q-52 26 -73 55.5t-21 69.5q0 62 34 118.5t89.5 92t107.5 35.5 q54 0 84.5 -34t30.5 -85q0 -23 -8.5 -48t-16.5 -38z" />
<glyph unicode="&#x6ae;" horiz-adv-x="1067" d="M0 -20q-20 0 -20 20v246q0 20 20 20q293 0 464.5 18t270.5 62q-44 90 -167.5 197t-297.5 205q-32 -9 -61 -9q-65 0 -115.5 46t-50.5 110q0 49 25 172t38 131q343 170 443.5 216t227.5 100t200 83q47 -45 47 -120q0 -60 -33.5 -114.5t-92.5 -85.5t-182 -85t-244 -96.5 t-290 -89.5q180 -47 335.5 -149.5t248 -234t92.5 -247.5q0 -123 -93.5 -212t-289.5 -136t-475 -47zM316 -379q-63 -95 -184 -209q-130 103 -205 188q73 67 157 160l43 47q71 -78 189 -186zM758 -334q-65 -99 -182 -211q-133 104 -205 190q72 67 199 207q52 -56 188 -186z M558 -685q-127 -135 -179 -170q-106 69 -194 170q102 96 184 191q35 -47 88.5 -101t100.5 -90z" />
<glyph unicode="&#x6ae;" horiz-adv-x="1126" d="M358 313q-34 95 -65 156q-141 158 -205.5 288t-64.5 247q0 56 31.5 114t84.5 84q215 105 408.5 190.5t486.5 204.5q51 -49 51 -120q0 -63 -37 -115.5t-94 -79.5q-187 -91 -360.5 -157.5t-454.5 -159.5q249 -281 356 -382t212.5 -177t210.5 -108t229 -32q20 0 20 -20v-246 q0 -20 -20 -20q-116 0 -206.5 16t-165 49.5t-136 85t-150.5 137.5q-11 -85 -55 -155q-108 -64 -213.5 -98.5t-220.5 -34.5q-20 0 -20 20v246q0 20 20 20q178 0 358 47zM557 -379q-63 -95 -184 -209q-130 103 -205 188q73 67 157 160l43 47q71 -78 189 -186zM999 -334 q-65 -99 -182 -211q-133 104 -205 190q72 67 199 207q52 -56 188 -186zM799 -685q-127 -135 -179 -170q-106 69 -194 170q102 96 184 191q35 -47 88.5 -101t100.5 -90z" />
<glyph unicode="&#x6ae;" horiz-adv-x="1794" d="M813 246q173 0 316 15.5t298 49.5q-72 469 -143 1168l287 159q-21 -924 -21 -1304q52 -35 113 -51.5t152 -16.5q20 0 20 -20v-246q0 -20 -20 -20q-251 0 -334 129q-244 -86 -409.5 -118t-309.5 -32q-234 0 -355.5 38.5t-182 123t-60.5 225.5q0 49 11.5 131.5t21.5 122.5 l108 -4q-8 -53 -8 -90q0 -102 48.5 -157t154.5 -79t313 -24zM953 865l1 10q0 14 -8.5 24.5t-25.5 10.5q-67 0 -117 -95q54 -49 142 -49q59 0 141 19l-12 -152q-154 -42 -233 -73.5t-157 -73.5l-6 137q59 41 105 63q-52 26 -73 55.5t-21 69.5q0 62 34 118.5t89.5 92 t107.5 35.5q54 0 84.5 -34t30.5 -85q0 -23 -8.5 -48t-16.5 -38zM866 -379q-63 -95 -184 -209q-130 103 -205 188q73 67 157 160l43 47q71 -78 189 -186zM1308 -334q-65 -99 -182 -211q-133 104 -205 190q72 67 199 207q52 -56 188 -186zM1108 -685q-127 -135 -179 -170 q-106 69 -194 170q102 96 184 191q35 -47 88.5 -101t100.5 -90z" />
<glyph unicode="&#x6b0;" horiz-adv-x="1067" d="M0 -20q-20 0 -20 20v246q0 20 20 20q293 0 464.5 18t270.5 62q-44 90 -167.5 197t-297.5 205q-32 -9 -61 -9q-65 0 -115.5 46t-50.5 110q0 49 25 172t38 131q343 170 443.5 216t227.5 100t200 83q47 -45 47 -120q0 -60 -33.5 -114.5t-92.5 -85.5t-182 -85t-244 -96.5 t-290 -89.5q180 -47 335.5 -149.5t248 -234t92.5 -247.5q0 -123 -93.5 -212t-289.5 -136t-475 -47zM53 1270q-16 67 -16 94q0 12 4 14l240 118l604 288q33 -25 33 -61l-1 -15q-10 -44 -59 -66q-477 -214 -805 -372zM612 939q-70 0 -115 52.5t-45 131.5q0 62 24 109 t62.5 73.5t77.5 26.5q40 0 79.5 -26.5t64 -73.5t24.5 -111q0 -77 -53.5 -129.5t-118.5 -52.5zM702 1123q0 13 -13.5 33.5t-35 34.5t-51.5 14q-26 0 -48 -20t-22 -46q0 -31 22.5 -51t63.5 -20q32 0 58 18.5t26 36.5z" />
<glyph unicode="&#x6b0;" horiz-adv-x="1126" d="M358 313q-34 95 -65 156q-141 158 -205.5 288t-64.5 247q0 56 31.5 114t84.5 84q215 105 408.5 190.5t486.5 204.5q51 -49 51 -120q0 -63 -37 -115.5t-94 -79.5q-187 -91 -360.5 -157.5t-454.5 -159.5q249 -281 356 -382t212.5 -177t210.5 -108t229 -32q20 0 20 -20v-246 q0 -20 -20 -20q-116 0 -206.5 16t-165 49.5t-136 85t-150.5 137.5q-11 -85 -55 -155q-108 -64 -213.5 -98.5t-220.5 -34.5q-20 0 -20 20v246q0 20 20 20q178 0 358 47zM10 1270q-16 67 -16 94q0 12 4 14l240 118l604 288q33 -25 33 -61l-1 -15q-10 -44 -59 -66 q-477 -214 -805 -372zM588 898q-70 0 -115 52.5t-45 131.5q0 62 24 109t62.5 73.5t77.5 26.5q40 0 79.5 -26.5t64 -73.5t24.5 -111q0 -77 -53.5 -129.5t-118.5 -52.5zM678 1082q0 13 -13.5 33.5t-35 34.5t-51.5 14q-26 0 -48 -20t-22 -46q0 -31 22.5 -51t63.5 -20 q32 0 58 18.5t26 36.5z" />
<glyph unicode="&#x6b0;" horiz-adv-x="1911" d="M721 -41q-223 0 -330 37.5t-155 121t-48 228.5q0 96 33 254l109 -4q-8 -53 -8 -90q0 -144 101 -202t345 -58q95 0 198.5 18.5t176.5 48.5q-42 112 -66 156q-136 152 -203 284t-67 251q0 57 32.5 114.5t84.5 83.5q378 186 895 395q51 -49 51 -120q0 -63 -37 -115.5 t-94 -79.5q-187 -91 -368 -160t-447 -157q221 -249 304 -332t187 -168q140 -115 256.5 -157t259.5 -42q21 0 21 -20v-246q0 -20 -21 -20q-133 0 -235 22t-183.5 67t-240.5 199q-11 -88 -60 -172q-73 -53 -217.5 -95t-273.5 -42zM753 1270q-16 67 -16 94q0 12 4 14l240 118 l604 288q33 -25 33 -61l-1 -15q-10 -44 -59 -66q-477 -214 -805 -372zM1350 898q-70 0 -115 52.5t-45 131.5q0 62 24 109t62.5 73.5t77.5 26.5q40 0 79.5 -26.5t64 -73.5t24.5 -111q0 -77 -53.5 -129.5t-118.5 -52.5zM1440 1082q0 13 -13.5 33.5t-35 34.5t-51.5 14 q-26 0 -48 -20t-22 -46q0 -31 22.5 -51t63.5 -20q32 0 58 18.5t26 36.5z" />
<glyph unicode="&#x6b1;" horiz-adv-x="1067" arabic-form="initial" d="M0 -20q-20 0 -20 20v246q0 20 20 20q293 0 464.5 18t270.5 62q-44 90 -167.5 197t-297.5 205q-32 -9 -61 -9q-65 0 -115.5 46t-50.5 110q0 49 25 172t38 131q343 170 443.5 216t227.5 100t200 83q47 -45 47 -120q0 -60 -33.5 -114.5t-92.5 -85.5t-182 -85t-244 -96.5 t-290 -89.5q180 -47 335.5 -149.5t248 -234t92.5 -247.5q0 -123 -93.5 -212t-289.5 -136t-475 -47zM10 1270q-16 67 -16 94q0 12 4 14l240 118l604 288q33 -25 33 -61l-1 -15q-10 -44 -59 -66q-477 -214 -805 -372zM292 1858q-59 -80 -129 -148q-80 62 -143 134l74 76l65 69 zM573 1891q-51 -74 -127 -148q-92 69 -144 131q61 58 140 148q41 -47 131 -131z" />
<glyph unicode="&#x6b1;" horiz-adv-x="1126" arabic-form="medial" d="M358 313q-34 95 -65 156q-141 158 -205.5 288t-64.5 247q0 56 31.5 114t84.5 84q215 105 408.5 190.5t486.5 204.5q51 -49 51 -120q0 -63 -37 -115.5t-94 -79.5q-187 -91 -360.5 -157.5t-454.5 -159.5q249 -281 356 -382t212.5 -177t210.5 -108t229 -32q20 0 20 -20v-246 q0 -20 -20 -20q-116 0 -206.5 16t-165 49.5t-136 85t-150.5 137.5q-11 -85 -55 -155q-108 -64 -213.5 -98.5t-220.5 -34.5q-20 0 -20 20v246q0 20 20 20q178 0 358 47zM10 1270q-16 67 -16 94q0 12 4 14l240 118l604 288q33 -25 33 -61l-1 -15q-10 -44 -59 -66 q-477 -214 -805 -372zM292 1858q-59 -80 -129 -148q-80 62 -143 134l74 76l65 69zM573 1891q-51 -74 -127 -148q-92 69 -144 131q61 58 140 148q41 -47 131 -131z" />
<glyph unicode="&#x6b1;" horiz-adv-x="1911" arabic-form="final" d="M721 -41q-223 0 -330 37.5t-155 121t-48 228.5q0 96 33 254l109 -4q-8 -53 -8 -90q0 -144 101 -202t345 -58q95 0 198.5 18.5t176.5 48.5q-42 112 -66 156q-136 152 -203 284t-67 251q0 57 32.5 114.5t84.5 83.5q378 186 895 395q51 -49 51 -120q0 -63 -37 -115.5 t-94 -79.5q-187 -91 -368 -160t-447 -157q221 -249 304 -332t187 -168q140 -115 256.5 -157t259.5 -42q21 0 21 -20v-246q0 -20 -21 -20q-133 0 -235 22t-183.5 67t-240.5 199q-11 -88 -60 -172q-73 -53 -217.5 -95t-273.5 -42zM753 1270q-16 67 -16 94q0 12 4 14l240 118 l604 288q33 -25 33 -61l-1 -15q-10 -44 -59 -66q-477 -214 -805 -372zM1053 1858q-59 -80 -129 -148q-80 62 -143 134l74 76l65 69zM1334 1891q-51 -74 -127 -148q-92 69 -144 131q61 58 140 148q41 -47 131 -131z" />
<glyph unicode="&#x6b2;" horiz-adv-x="1069" d="M2 -20q-20 0 -20 20v246q0 20 20 20q293 0 464.5 18t270.5 62q-44 90 -167.5 197t-297.5 205q-32 -9 -61 -9q-65 0 -115.5 46t-50.5 110q0 49 25 172t38 131q343 170 443.5 216t227.5 100t200 83q47 -45 47 -120q0 -60 -33.5 -114.5t-92.5 -85.5t-182 -85t-244 -96.5 t-290 -89.5q180 -47 335.5 -149.5t248 -234t92.5 -247.5q0 -123 -93.5 -212t-289.5 -136t-475 -47zM10 1270q-16 67 -16 94q0 12 4 14l240 118l604 288q33 -25 33 -61l-1 -15q-10 -44 -59 -66q-477 -214 -805 -372zM370 -422q-61 -94 -184 -211q-131 104 -205 191 q16 14 31.5 29t169.5 177q71 -77 188 -186zM771 -377q-65 -99 -182 -211q-127 99 -205 189q50 44 107.5 106t91.5 103q40 -43 188 -187z" />
<glyph unicode="&#x6b2;" horiz-adv-x="1126" d="M358 313q-34 95 -65 156q-141 158 -205.5 288t-64.5 247q0 56 31.5 114t84.5 84q215 105 408.5 190.5t486.5 204.5q51 -49 51 -120q0 -63 -37 -115.5t-94 -79.5q-187 -91 -360.5 -157.5t-454.5 -159.5q249 -281 356 -382t212.5 -177t210.5 -108t229 -32q20 0 20 -20v-246 q0 -20 -20 -20q-116 0 -206.5 16t-165 49.5t-136 85t-150.5 137.5q-11 -85 -55 -155q-108 -64 -213.5 -98.5t-220.5 -34.5q-20 0 -20 20v246q0 20 20 20q178 0 358 47zM10 1270q-16 67 -16 94q0 12 4 14l240 118l604 288q33 -25 33 -61l-1 -15q-10 -44 -59 -66 q-477 -214 -805 -372zM557 -422q-61 -94 -184 -211q-131 104 -205 191q16 14 31.5 29t169.5 177q71 -77 188 -186zM958 -377q-65 -99 -182 -211q-127 99 -205 189q50 44 107.5 106t91.5 103q40 -43 188 -187z" />
<glyph unicode="&#x6b2;" horiz-adv-x="1911" d="M721 -41q-223 0 -330 37.5t-155 121t-48 228.5q0 96 33 254l109 -4q-8 -53 -8 -90q0 -144 101 -202t345 -58q95 0 198.5 18.5t176.5 48.5q-42 112 -66 156q-136 152 -203 284t-67 251q0 57 32.5 114.5t84.5 83.5q378 186 895 395q51 -49 51 -120q0 -63 -37 -115.5 t-94 -79.5q-187 -91 -368 -160t-447 -157q221 -249 304 -332t187 -168q140 -115 256.5 -157t259.5 -42q21 0 21 -20v-246q0 -20 -21 -20q-133 0 -235 22t-183.5 67t-240.5 199q-11 -88 -60 -172q-73 -53 -217.5 -95t-273.5 -42zM753 1270q-16 67 -16 94q0 12 4 14l240 118 l604 288q33 -25 33 -61l-1 -15q-10 -44 -59 -66q-477 -214 -805 -372zM856 -422q-61 -94 -184 -211q-131 104 -205 191q16 14 31.5 29t169.5 177q71 -77 188 -186zM1257 -377q-65 -99 -182 -211q-127 99 -205 189q50 44 107.5 106t91.5 103q40 -43 188 -187z" />
<glyph unicode="&#x6b3;" horiz-adv-x="1067" arabic-form="initial" d="M0 -20q-20 0 -20 20v246q0 20 20 20q293 0 464.5 18t270.5 62q-44 90 -167.5 197t-297.5 205q-32 -9 -61 -9q-65 0 -115.5 46t-50.5 110q0 49 25 172t38 131q343 170 443.5 216t227.5 100t200 83q47 -45 47 -120q0 -60 -33.5 -114.5t-92.5 -85.5t-182 -85t-244 -96.5 t-290 -89.5q180 -47 335.5 -149.5t248 -234t92.5 -247.5q0 -123 -93.5 -212t-289.5 -136t-475 -47zM10 1270q-16 67 -16 94q0 12 4 14l240 118l604 288q33 -25 33 -61l-1 -15q-10 -44 -59 -66q-477 -214 -805 -372zM534 -811q-61 -94 -184 -211q-131 104 -205 191 q70 62 158 159l43 47q71 -77 188 -186zM475 -399q-65 -99 -182 -211q-135 105 -205 188q87 81 198 209q53 -56 189 -186z" />
<glyph unicode="&#x6b3;" horiz-adv-x="1126" arabic-form="medial" d="M358 313q-34 95 -65 156q-141 158 -205.5 288t-64.5 247q0 56 31.5 114t84.5 84q215 105 408.5 190.5t486.5 204.5q51 -49 51 -120q0 -63 -37 -115.5t-94 -79.5q-187 -91 -360.5 -157.5t-454.5 -159.5q249 -281 356 -382t212.5 -177t210.5 -108t229 -32q20 0 20 -20v-246 q0 -20 -20 -20q-116 0 -206.5 16t-165 49.5t-136 85t-150.5 137.5q-11 -85 -55 -155q-108 -64 -213.5 -98.5t-220.5 -34.5q-20 0 -20 20v246q0 20 20 20q178 0 358 47zM10 1270q-16 67 -16 94q0 12 4 14l240 118l604 288q33 -25 33 -61l-1 -15q-10 -44 -59 -66 q-477 -214 -805 -372zM770 -811q-61 -94 -184 -211q-131 104 -205 191q70 62 158 159l43 47q71 -77 188 -186zM711 -399q-65 -99 -182 -211q-135 105 -205 188q87 81 198 209q53 -56 189 -186z" />
<glyph unicode="&#x6b3;" horiz-adv-x="1911" arabic-form="final" d="M721 -41q-223 0 -330 37.5t-155 121t-48 228.5q0 96 33 254l109 -4q-8 -53 -8 -90q0 -144 101 -202t345 -58q95 0 198.5 18.5t176.5 48.5q-42 112 -66 156q-136 152 -203 284t-67 251q0 57 32.5 114.5t84.5 83.5q378 186 895 395q51 -49 51 -120q0 -63 -37 -115.5 t-94 -79.5q-187 -91 -368 -160t-447 -157q221 -249 304 -332t187 -168q140 -115 256.5 -157t259.5 -42q21 0 21 -20v-246q0 -20 -21 -20q-133 0 -235 22t-183.5 67t-240.5 199q-11 -88 -60 -172q-73 -53 -217.5 -95t-273.5 -42zM753 1270q-16 67 -16 94q0 12 4 14l240 118 l604 288q33 -25 33 -61l-1 -15q-10 -44 -59 -66q-477 -214 -805 -372zM1079 -811q-61 -94 -184 -211q-131 104 -205 191q70 62 158 159l43 47q71 -77 188 -186zM1020 -399q-65 -99 -182 -211q-135 105 -205 188q87 81 198 209q53 -56 189 -186z" />
<glyph unicode="&#x6b4;" horiz-adv-x="1067" d="M0 -20q-20 0 -20 20v246q0 20 20 20q293 0 464.5 18t270.5 62q-44 90 -167.5 197t-297.5 205q-32 -9 -61 -9q-65 0 -115.5 46t-50.5 110q0 49 25 172t38 131q343 170 443.5 216t227.5 100t200 83q47 -45 47 -120q0 -60 -33.5 -114.5t-92.5 -85.5t-182 -85t-244 -96.5 t-290 -89.5q180 -47 335.5 -149.5t248 -234t92.5 -247.5q0 -123 -93.5 -212t-289.5 -136t-475 -47zM10 1270q-16 67 -16 94q0 12 4 14l240 118l604 288q33 -25 33 -61l-1 -15q-10 -44 -59 -66q-477 -214 -805 -372zM417 2063q-87 -94 -125 -119q-78 51 -137 119 q69 61 129 131q50 -62 133 -131zM274 1858q-51 -73 -129 -146q-81 59 -144 131q59 54 139 146q14 -15 134 -131zM583 1888q-43 -66 -127 -145q-96 74 -144 131q48 45 140 146l68 -70z" />
<glyph unicode="&#x6b4;" horiz-adv-x="1126" d="M358 313q-34 95 -65 156q-141 158 -205.5 288t-64.5 247q0 56 31.5 114t84.5 84q215 105 408.5 190.5t486.5 204.5q51 -49 51 -120q0 -63 -37 -115.5t-94 -79.5q-187 -91 -360.5 -157.5t-454.5 -159.5q249 -281 356 -382t212.5 -177t210.5 -108t229 -32q20 0 20 -20v-246 q0 -20 -20 -20q-116 0 -206.5 16t-165 49.5t-136 85t-150.5 137.5q-11 -85 -55 -155q-108 -64 -213.5 -98.5t-220.5 -34.5q-20 0 -20 20v246q0 20 20 20q178 0 358 47zM10 1270q-16 67 -16 94q0 12 4 14l240 118l604 288q33 -25 33 -61l-1 -15q-10 -44 -59 -66 q-477 -214 -805 -372zM417 2063q-87 -94 -125 -119q-78 51 -137 119q69 61 129 131q50 -62 133 -131zM274 1858q-51 -73 -129 -146q-81 59 -144 131q59 54 139 146q14 -15 134 -131zM583 1888q-43 -66 -127 -145q-96 74 -144 131q48 45 140 146l68 -70z" />
<glyph unicode="&#x6b4;" horiz-adv-x="1911" d="M721 -41q-223 0 -330 37.5t-155 121t-48 228.5q0 96 33 254l109 -4q-8 -53 -8 -90q0 -144 101 -202t345 -58q95 0 198.5 18.5t176.5 48.5q-42 112 -66 156q-136 152 -203 284t-67 251q0 57 32.5 114.5t84.5 83.5q378 186 895 395q51 -49 51 -120q0 -63 -37 -115.5 t-94 -79.5q-187 -91 -368 -160t-447 -157q221 -249 304 -332t187 -168q140 -115 256.5 -157t259.5 -42q21 0 21 -20v-246q0 -20 -21 -20q-133 0 -235 22t-183.5 67t-240.5 199q-11 -88 -60 -172q-73 -53 -217.5 -95t-273.5 -42zM753 1270q-16 67 -16 94q0 12 4 14l240 118 l604 288q33 -25 33 -61l-1 -15q-10 -44 -59 -66q-477 -214 -805 -372zM1178 2063q-87 -94 -125 -119q-78 51 -137 119q69 61 129 131q50 -62 133 -131zM1035 1858q-51 -73 -129 -146q-81 59 -144 131q59 54 139 146q14 -15 134 -131zM1344 1888q-43 -66 -127 -145 q-96 74 -144 131q48 45 140 146l68 -70z" />
<glyph unicode="&#x6b5;" horiz-adv-x="524" d="M253 319q-38 291 -88.5 569.5t-99.5 549.5l286 159q8 -398 18.5 -706t10.5 -529q0 -80 -22 -154.5t-72 -152.5q-23 -34 -99 -54.5t-188 -20.5q-20 0 -20 20v246q0 20 20 20q49 0 118.5 14.5t135.5 38.5zM216 1841q12 81 44.5 178.5t80.5 174.5q43 0 65.5 -29t22.5 -74 q0 -15 -11.5 -41t-31 -67.5t-46 -101.5t-56.5 -144q-85 -50 -168 -64q-64 140 -137 266.5t-129 196.5q84 19 114 20h5q55 0 88.5 -24t77.5 -106t81 -185z" />
<glyph unicode="&#x6b5;" horiz-adv-x="590" d="M0 -20q-20 0 -20 20v246q0 20 20 20q119 0 225 45q-85 534 -145 1127l287 159l-10 -455q-11 -420 -11 -808q57 -38 118.5 -53t145.5 -15q21 0 21 -20v-246q0 -20 -21 -20q-203 0 -295 83q-85 -45 -157.5 -64t-157.5 -19zM218 1841q12 81 44.5 178.5t80.5 174.5 q43 0 65.5 -29t22.5 -74q0 -15 -11.5 -41t-31 -67.5t-46 -101.5t-56.5 -144q-85 -50 -168 -64q-64 140 -137 266.5t-129 196.5q84 19 114 20h5q55 0 88.5 -24t77.5 -106t81 -185z" />
<glyph unicode="&#x6b5;" horiz-adv-x="1487" d="M1507 -20q-97 0 -180 47l4 -133q0 -160 -96 -297t-262.5 -215t-366.5 -78q-216 0 -329 126.5t-113 368.5q0 125 59 348l107 -26q-33 -111 -33 -191q0 -173 77 -256.5t238 -83.5q197 0 331 51t253 162l-56 304l-65 356l-48 282l-93 560l-4 47q0 102 76.5 173.5t183.5 71.5 q30 -111 45 -157.5t51 -139.5l-76 -59q29 -385 72 -749l18 -166q55 -38 105 -49t102 -11q21 0 21 -20v-246q0 -20 -21 -20zM1016 1841q12 81 44.5 178.5t80.5 174.5q43 0 65.5 -29t22.5 -74q0 -15 -11.5 -41t-31 -67.5t-46 -101.5t-56.5 -144q-85 -50 -168 -64 q-64 140 -137 266.5t-129 196.5q84 19 114 20h5q55 0 88.5 -24t77.5 -106t81 -185z" />
<glyph unicode="&#x6b6;" horiz-adv-x="524" d="M258 319q-38 291 -88.5 569.5t-99.5 549.5l286 159q8 -398 18.5 -706t10.5 -529q0 -80 -22 -154.5t-72 -152.5q-23 -34 -99 -54.5t-188 -20.5q-20 0 -20 20v246q0 20 20 20q49 0 118.5 14.5t135.5 38.5zM398 1968q-73 -108 -199 -226q-150 124 -219 203q145 145 215 225 q83 -94 203 -202z" />
<glyph unicode="&#x6b6;" horiz-adv-x="590" d="M0 -20q-20 0 -20 20v246q0 20 20 20q119 0 225 45q-85 534 -145 1127l287 159l-10 -455q-11 -420 -11 -808q57 -38 118.5 -53t145.5 -15q21 0 21 -20v-246q0 -20 -21 -20q-203 0 -295 83q-85 -45 -157.5 -64t-157.5 -19zM394 1968q-73 -108 -199 -226q-150 124 -219 203 q145 145 215 225q83 -94 203 -202z" />
<glyph unicode="&#x6b6;" horiz-adv-x="1487" d="M1507 -20q-97 0 -180 47l4 -133q0 -160 -96 -297t-262.5 -215t-366.5 -78q-216 0 -329 126.5t-113 368.5q0 125 59 348l107 -26q-33 -111 -33 -191q0 -173 77 -256.5t238 -83.5q197 0 331 51t253 162l-56 304l-65 356l-48 282l-93 560l-4 47q0 102 76.5 173.5t183.5 71.5 q30 -111 45 -157.5t51 -139.5l-76 -59q29 -385 72 -749l18 -166q55 -38 105 -49t102 -11q21 0 21 -20v-246q0 -20 -21 -20zM1212 1968q-73 -108 -199 -226q-150 124 -219 203q145 145 215 225q83 -94 203 -202z" />
<glyph unicode="&#x6b7;" horiz-adv-x="524" d="M254 319q-38 291 -88.5 569.5t-99.5 549.5l286 159q8 -398 18.5 -706t10.5 -529q0 -80 -22 -154.5t-72 -152.5q-23 -34 -99 -54.5t-188 -20.5q-20 0 -20 20v246q0 20 20 20q49 0 118.5 14.5t135.5 38.5zM310 2110q-87 -94 -125 -119q-78 51 -137 119q69 61 129 131 q50 -62 133 -131zM167 1905q-51 -73 -129 -146q-81 59 -144 131q59 54 139 146q14 -15 134 -131zM476 1935q-43 -66 -127 -145q-96 74 -144 131q48 45 140 146l68 -70z" />
<glyph unicode="&#x6b7;" horiz-adv-x="590" d="M4 -20q-20 0 -20 20v246q0 20 20 20q119 0 225 45q-85 534 -145 1127l287 159l-10 -455q-11 -420 -11 -808q57 -38 118.5 -53t145.5 -15q21 0 21 -20v-246q0 -20 -21 -20q-203 0 -295 83q-85 -45 -157.5 -64t-157.5 -19zM314 2110q-87 -94 -125 -119q-78 51 -137 119 q69 61 129 131q50 -62 133 -131zM171 1905q-51 -73 -129 -146q-81 59 -144 131q59 54 139 146q14 -15 134 -131zM480 1935q-43 -66 -127 -145q-96 74 -144 131q48 45 140 146l68 -70z" />
<glyph unicode="&#x6b7;" horiz-adv-x="1487" d="M1507 -20q-97 0 -180 47l4 -133q0 -160 -96 -297t-262.5 -215t-366.5 -78q-216 0 -329 126.5t-113 368.5q0 125 59 348l107 -26q-33 -111 -33 -191q0 -173 77 -256.5t238 -83.5q197 0 331 51t253 162l-56 304l-65 356l-48 282l-93 560l-4 47q0 102 76.5 173.5t183.5 71.5 q30 -111 45 -157.5t51 -139.5l-76 -59q29 -385 72 -749l18 -166q55 -38 105 -49t102 -11q21 0 21 -20v-246q0 -20 -21 -20zM1106 2110q-87 -94 -125 -119q-78 51 -137 119q69 61 129 131q50 -62 133 -131zM963 1905q-51 -73 -129 -146q-81 59 -144 131q59 54 139 146 q14 -15 134 -131zM1272 1935q-43 -66 -127 -145q-96 74 -144 131q48 45 140 146l68 -70z" />
<glyph unicode="&#x6b8;" horiz-adv-x="872" d="M575 322q-38 290 -88.5 567.5t-99.5 548.5l287 159q8 -398 18 -706t10 -529q0 -80 -22 -154.5t-72 -152.5q-23 -34 -176 -54.5t-418 -20.5q-20 0 -20 20v246q0 20 20 20q235 0 358.5 14t202.5 42zM369 -380q-63 -95 -184 -209q-130 103 -205 188q73 67 157 160l43 47 q71 -78 189 -186zM811 -335q-65 -99 -182 -211q-133 104 -205 190q72 67 199 207q52 -56 188 -186zM611 -686q-127 -135 -179 -170q-106 69 -194 170q102 96 184 191q35 -47 88.5 -101t100.5 -90z" />
<glyph unicode="&#x6b8;" horiz-adv-x="590" d="M0 -20q-20 0 -20 20v246q0 20 20 20q119 0 225 45q-85 534 -145 1127l287 159l-10 -455q-11 -420 -11 -808q57 -38 118.5 -53t145.5 -15q21 0 21 -20v-246q0 -20 -21 -20q-203 0 -295 83q-85 -45 -157.5 -64t-157.5 -19zM271 -379q-63 -95 -184 -209q-130 103 -205 188 q73 67 157 160l43 47q71 -78 189 -186zM713 -334q-65 -99 -182 -211q-133 104 -205 190q72 67 199 207q52 -56 188 -186zM513 -685q-127 -135 -179 -170q-106 69 -194 170q102 96 184 191q35 -47 88.5 -101t100.5 -90z" />
<glyph unicode="&#x6b8;" horiz-adv-x="1487" d="M1507 -20q-97 0 -180 47l4 -133q0 -160 -96 -297t-262.5 -215t-366.5 -78q-216 0 -329 126.5t-113 368.5q0 125 59 348l107 -26q-33 -111 -33 -191q0 -173 77 -256.5t238 -83.5q197 0 331 51t253 162l-56 304l-65 356l-48 282l-93 560l-4 47q0 102 76.5 173.5t183.5 71.5 q30 -111 45 -157.5t51 -139.5l-76 -59q29 -385 72 -749l18 -166q55 -38 105 -49t102 -11q21 0 21 -20v-246q0 -20 -21 -20zM864 -1033q-51 -73 -129 -146q-88 69 -143 131q49 46 139 146zM1173 -1001q-46 -70 -127 -149q-93 71 -143 135q37 34 74 74t65 69q43 -47 131 -129z M1032 -1246q-90 -97 -123 -119q-79 49 -137 119q62 55 129 133q46 -63 131 -133z" />
<glyph unicode="&#x6b9;" horiz-adv-x="694" d="M0 -20q-20 0 -20 20v246q0 20 20 20q117 0 237 18.5t193 49.5q-32 70 -64 127t-57.5 103.5t-41 84.5t-15.5 70q0 59 66 130.5t153 113.5l31 -157q69 -326 69 -403q0 -102 -94 -290q-223 -133 -477 -133zM507 -355q-78 -111 -199 -225q-150 124 -219 203q145 145 215 225 q70 -81 203 -203zM480 1239q-73 -108 -199 -226q-150 124 -219 203q145 145 215 225q83 -94 203 -202z" />
<glyph unicode="&#x6b9;" horiz-adv-x="705" d="M0 -20q-20 0 -20 20v246q0 20 20 20q154 0 236 56q34 23 75 104q64 125 80 145t40 29.5t50 9.5q60 0 97 -35q-90 -212 -107 -247q117 -62 254 -62q20 0 20 -20v-246q0 -20 -20 -20q-183 0 -348 165q-18 -29 -46.5 -65.5t-78.5 -58t-113.5 -31.5t-138.5 -10zM542 -355 q-78 -111 -199 -225q-150 124 -219 203q145 145 215 225q70 -81 203 -203zM525 925q-73 -108 -199 -226q-150 124 -219 203q145 145 215 225q83 -94 203 -202z" />
<glyph unicode="&#x6b9;" horiz-adv-x="1444" d="M1464 -20q-71 0 -141 28q8 -83 8 -114q0 -160 -96 -297t-262.5 -215t-366.5 -78q-216 0 -329 126.5t-113 368.5q0 125 59 348l107 -26q-33 -111 -33 -191q0 -173 77 -256.5t238 -83.5q197 0 331 51t253 162q-32 70 -68 136t-66 123t-49.5 103.5t-19.5 78.5q0 202 244 317 q14 -104 39 -248q82 -47 188 -47q21 0 21 -20v-246q0 -20 -21 -20zM1159 -972q-78 -111 -199 -225q-150 124 -219 203q145 145 215 225q70 -81 203 -203zM852 556q-73 -108 -199 -226q-150 124 -219 203q145 145 215 225q83 -94 203 -202z" />
<glyph unicode="&#x6bb;" horiz-adv-x="1444" arabic-form="final" d="M1464 -20q-71 0 -141 28q8 -83 8 -114q0 -160 -96 -297t-262.5 -215t-366.5 -78q-216 0 -329 126.5t-113 368.5q0 125 59 348l107 -26q-33 -111 -33 -191q0 -173 77 -256.5t238 -83.5q197 0 331 51t253 162q-32 70 -68 136t-66 123t-49.5 103.5t-19.5 78.5q0 202 244 317 q14 -104 39 -248q82 -47 188 -47q21 0 21 -20v-246q0 -20 -21 -20zM269 545q68 -15 125 -20l63 84l-32 132q-51 205 -51 234q0 46 38.5 78t108.5 43q29 -93 49 -143l-27 -21l3 -115l-3 -116q126 115 205 115q38 0 90 -36t97.5 -96t45.5 -96q0 -70 -54 -132.5t-137 -99 t-157 -36.5q-63 0 -120 12.5t-110 34.5t-159 82zM731 635q-49 0 -107.5 -32.5t-115.5 -89.5q70 -7 131 -7q120 0 240 46q-24 37 -66 60t-82 23z" />
<glyph unicode="&#x6bc;" horiz-adv-x="694" d="M0 -20q-20 0 -20 20v246q0 20 20 20q117 0 237 18.5t193 49.5q-32 70 -64 127t-57.5 103.5t-41 84.5t-15.5 70q0 59 66 130.5t153 113.5l31 -157q69 -326 69 -403q0 -102 -94 -290q-223 -133 -477 -133zM268 -255q-70 0 -115 52.5t-45 131.5q0 62 24 109t62.5 73.5 t77.5 26.5q40 0 79.5 -26.5t64 -73.5t24.5 -111q0 -77 -53.5 -129.5t-118.5 -52.5zM358 -71q0 13 -13.5 33.5t-35 34.5t-51.5 14q-26 0 -48 -20t-22 -46q0 -31 22.5 -51t63.5 -20q32 0 58 18.5t26 36.5zM480 1239q-73 -108 -199 -226q-150 124 -219 203q145 145 215 225 q83 -94 203 -202z" />
<glyph unicode="&#x6bc;" horiz-adv-x="705" d="M0 -20q-20 0 -20 20v246q0 20 20 20q154 0 236 56q34 23 75 104q64 125 80 145t40 29.5t50 9.5q60 0 97 -35q-90 -212 -107 -247q117 -62 254 -62q20 0 20 -20v-246q0 -20 -20 -20q-183 0 -348 165q-18 -29 -46.5 -65.5t-78.5 -58t-113.5 -31.5t-138.5 -10zM192 -271 q-70 0 -115 52.5t-45 131.5q0 62 24 109t62.5 73.5t77.5 26.5q40 0 79.5 -26.5t64 -73.5t24.5 -111q0 -77 -53.5 -129.5t-118.5 -52.5zM282 -87q0 13 -13.5 33.5t-35 34.5t-51.5 14q-26 0 -48 -20t-22 -46q0 -31 22.5 -51t63.5 -20q32 0 58 18.5t26 36.5zM525 925 q-73 -108 -199 -226q-150 124 -219 203q145 145 215 225q83 -94 203 -202z" />
<glyph unicode="&#x6bc;" horiz-adv-x="1444" d="M1464 -20q-71 0 -141 28q8 -83 8 -114q0 -160 -96 -297t-262.5 -215t-366.5 -78q-216 0 -329 126.5t-113 368.5q0 125 59 348l107 -26q-33 -111 -33 -191q0 -173 77 -256.5t238 -83.5q197 0 331 51t253 162q-32 70 -68 136t-66 123t-49.5 103.5t-19.5 78.5q0 202 244 317 q14 -104 39 -248q82 -47 188 -47q21 0 21 -20v-246q0 -20 -21 -20zM852 556q-73 -108 -199 -226q-150 124 -219 203q145 145 215 225q83 -94 203 -202zM954 -890q-70 0 -115 52.5t-45 131.5q0 62 24 109t62.5 73.5t77.5 26.5q40 0 79.5 -26.5t64 -73.5t24.5 -111 q0 -77 -53.5 -129.5t-118.5 -52.5zM1044 -706q0 13 -13.5 33.5t-35 34.5t-51.5 14q-26 0 -48 -20t-22 -46q0 -31 22.5 -51t63.5 -20q32 0 58 18.5t26 36.5z" />
<glyph unicode="&#x6bd;" horiz-adv-x="1444" d="M1464 -20q-71 0 -141 28q8 -83 8 -114q0 -160 -96 -297t-262.5 -215t-366.5 -78q-216 0 -329 126.5t-113 368.5q0 125 59 348l107 -26q-33 -111 -33 -191q0 -173 77 -256.5t238 -83.5q197 0 331 51t253 162q-32 70 -68 136t-66 123t-49.5 103.5t-19.5 78.5q0 202 244 317 q14 -104 39 -248q82 -47 188 -47q21 0 21 -20v-246q0 -20 -21 -20zM842 868q-116 -130 -178 -170q-43 27 -99 74.5t-96 95.5q99 88 185 188q70 -91 188 -188zM637 575q-69 -101 -184 -209q-130 103 -205 188q79 73 158 160l43 47q63 -69 188 -186zM1080 620 q-70 -104 -183 -209q-132 103 -204 188q66 61 198 207q53 -56 189 -186z" />
<glyph unicode="&#x6bf;" horiz-adv-x="1563" d="M0 -20q-20 0 -20 20v246q0 20 20 20q214 0 286.5 4.5t134 14t116.5 26.5q191 59 294 80q-59 31 -105.5 62t-88 56.5t-83 41.5t-89.5 16q-71 0 -131 -18t-154 -76q-21 21 -38 64.5t-17 80.5q0 70 43.5 123t121 83t167.5 30q75 0 147.5 -27t160.5 -86q78 -53 145 -90 t117 -57t128.5 -42t150.5 -30t175 -8l-123 -256q-159 12 -246 33q-89 -17 -175.5 -55.5t-186.5 -100.5q-76 -46 -140.5 -75t-132.5 -46.5t-150.5 -25.5t-326.5 -8zM789 -331q-63 -95 -184 -209q-130 103 -205 188q73 67 157 160l43 47q71 -78 189 -186zM1231 -286 q-65 -99 -182 -211q-133 104 -205 190q72 67 199 207q52 -56 188 -186zM1031 -637q-127 -135 -179 -170q-106 69 -194 170q102 96 184 191q35 -47 88.5 -101t100.5 -90zM1159 1100q-73 -108 -199 -226q-150 124 -219 203q145 145 215 225q83 -94 203 -202z" />
<glyph unicode="&#x6bf;" horiz-adv-x="1583" d="M0 -20q-20 0 -20 20v246q0 20 20 20q214 0 286.5 4.5t134 14t116.5 26.5q191 59 294 80q-59 31 -105.5 62t-88 56.5t-83 41.5t-89.5 16q-71 0 -131 -18t-154 -76q-21 21 -38 64.5t-17 80.5q0 70 43.5 123t121 83t167.5 30q75 0 147.5 -27t160.5 -86q78 -53 145 -90 t117 -57t128.5 -42t150.5 -30t175 -8l-117 -240q60 -8 240 -8q20 0 20 -20v-246q0 -20 -20 -20q-204 0 -345 35.5t-141 82.5q0 53 33 185l-39 8q-89 -17 -175.5 -55.5t-186.5 -100.5q-76 -46 -140.5 -75t-132.5 -46.5t-150.5 -25.5t-326.5 -8zM948 -329q-63 -95 -184 -209 q-130 103 -205 188q73 67 157 160l43 47q71 -78 189 -186zM1390 -284q-65 -99 -182 -211q-133 104 -205 190q72 67 199 207q52 -56 188 -186zM1190 -635q-127 -135 -179 -170q-106 69 -194 170q102 96 184 191q35 -47 88.5 -101t100.5 -90zM1159 1100q-73 -108 -199 -226 q-150 124 -219 203q145 145 215 225q83 -94 203 -202z" />
<glyph unicode="&#x6bf;" horiz-adv-x="1765" d="M1786 -20q-202 0 -344 35.5t-142 82.5q0 46 29 172l-94 17q-226 -31 -424 -133.5t-299.5 -238t-101.5 -288.5q0 -64 10 -114.5t43 -139.5l-146 -67q-33 82 -54 177t-21 161q0 277 154 474.5t458 307.5l-89 53q-76 46 -138 67t-123 21q-71 0 -131 -18t-154 -76 q-21 21 -38 64.5t-17 80.5q0 70 43.5 123t121 83t167.5 30q94 0 180 -27.5t180 -85.5q177 -110 280.5 -150.5t245 -64.5t297.5 -24l-110 -232q56 -4 217 -4q20 0 20 -20v-246q0 -20 -20 -20zM995 -264q-63 -95 -184 -209q-130 103 -205 188q73 67 157 160l43 47 q71 -78 189 -186zM1437 -219q-65 -99 -182 -211q-133 104 -205 190q72 67 199 207q52 -56 188 -186zM1237 -570q-127 -135 -179 -170q-106 69 -194 170q102 96 184 191q35 -47 88.5 -101t100.5 -90zM1327 1018q-73 -108 -199 -226q-150 124 -219 203q145 145 215 225 q83 -94 203 -202z" />
<glyph unicode="&#x6c4;" horiz-adv-x="1176" d="M1049 -20q-59 -219 -218.5 -355.5t-359.5 -136.5q-48 0 -155.5 62t-192.5 135l39 100q129 -33 264 -33q149 0 273.5 62t193.5 170q-255 11 -364 47.5t-161.5 114t-52.5 196.5q0 138 52.5 267t133.5 205.5t165 76.5q94 0 178.5 -80t145.5 -227.5t77 -317.5h129 q21 0 21 -20v-246q0 -20 -21 -20h-147zM909 268q-48 161 -126 248.5t-171 87.5q-69 0 -119.5 -48t-50.5 -110q0 -133 238 -165q40 -8 229 -13zM473 -433q-70 0 -115 52.5t-45 131.5q0 62 24 109t62.5 73.5t77.5 26.5q40 0 79.5 -26.5t64 -73.5t24.5 -111q0 -77 -53.5 -129.5 t-118.5 -52.5zM563 -249q0 13 -13.5 33.5t-35 34.5t-51.5 14q-26 0 -48 -20t-22 -46q0 -31 22.5 -51t63.5 -20q32 0 58 18.5t26 36.5z" />
<glyph unicode="&#x6c5;" horiz-adv-x="1196" arabic-form="final" d="M350 -176q61 47 90.5 59.5t61.5 12.5q55 0 224 -55l85 -25q65 77 109 168q-263 11 -371 48t-160.5 114t-52.5 196q0 138 52.5 267t133.5 205.5t164 76.5q94 0 178.5 -80t145.5 -227.5t77 -317.5h130q20 0 20 -20v-246q0 -20 -20 -20h-146q-38 -179 -129 -327t-213 -228 t-258 -80q-46 0 -153.5 60.5t-194.5 135.5l39 101q129 -33 264 -33q151 0 289 112q-59 20 -112.5 36t-102.5 16q-42 0 -113 -31zM930 268q-48 159 -125.5 247.5t-171.5 88.5q-70 0 -120 -48.5t-50 -109.5t56.5 -105t180.5 -60q41 -8 230 -13z" />
<glyph unicode="&#x6c6;" horiz-adv-x="1176" arabic-form="final" d="M1049 -20q-59 -219 -218.5 -355.5t-359.5 -136.5q-48 0 -155.5 62t-192.5 135l39 100q129 -33 264 -33q149 0 273.5 62t193.5 170q-255 11 -364 47.5t-161.5 114t-52.5 196.5q0 138 52.5 267t133.5 205.5t165 76.5q94 0 178.5 -80t145.5 -227.5t77 -317.5h129 q21 0 21 -20v-246q0 -20 -21 -20h-147zM909 268q-48 161 -126 248.5t-171 87.5q-69 0 -119.5 -48t-50.5 -110q0 -133 238 -165q40 -8 229 -13zM520 1113q12 81 44.5 178.5t80.5 174.5q43 0 65.5 -29t22.5 -74q0 -15 -11.5 -41t-31 -67.5t-46 -101.5t-56.5 -144 q-85 -50 -168 -64q-64 140 -137 266.5t-129 196.5q84 19 114 20h5q55 0 88.5 -24t77.5 -106t81 -185z" />
<glyph unicode="&#x6c7;" horiz-adv-x="1182" arabic-form="final" d="M1055 -20q-59 -219 -218.5 -355.5t-359.5 -136.5q-48 0 -155.5 62t-192.5 135l39 100q129 -33 264 -33q149 0 273.5 62t193.5 170q-255 11 -364 47.5t-161.5 114t-52.5 196.5q0 138 52.5 267t133.5 205.5t165 76.5q94 0 178.5 -80t145.5 -227.5t77 -317.5h129 q21 0 21 -20v-246q0 -20 -21 -20h-147zM915 268q-48 161 -126 248.5t-171 87.5q-69 0 -119.5 -48t-50.5 -110q0 -133 238 -165q40 -8 229 -13zM123 1056q159 26 268 91q-107 57 -107 147q0 72 61 139.5t126 67.5q50 0 84 -60.5t34 -152.5q0 -40 -12 -80q27 -4 82 -4 q0 -94 -125 -94h-26q-71 -68 -150.5 -115t-126.5 -47q-108 0 -108 108zM379 1331q0 -64 102 -98q12 27 12 47q0 40 -18.5 68t-40.5 28q-18 0 -36.5 -15.5t-18.5 -29.5z" />
<glyph unicode="&#x6c8;" horiz-adv-x="1176" arabic-form="final" d="M1049 -20q-59 -219 -218.5 -355.5t-359.5 -136.5q-48 0 -155.5 62t-192.5 135l39 100q129 -33 264 -33q149 0 273.5 62t193.5 170q-255 11 -364 47.5t-161.5 114t-52.5 196.5q0 138 52.5 267t133.5 205.5t165 76.5q94 0 178.5 -80t145.5 -227.5t77 -317.5h129 q21 0 21 -20v-246q0 -20 -21 -20h-147zM909 268q-48 161 -126 248.5t-171 87.5q-69 0 -119.5 -48t-50.5 -110q0 -133 238 -165q40 -8 229 -13zM598 1571q23 -120 31 -201t8 -187q0 -58 -22.5 -118.5t-63.5 -108.5l-26 10q0 221 -45 401q-9 33 -9 58q0 43 36 84t91 62z" />
<glyph unicode="&#x6c9;" horiz-adv-x="1176" arabic-form="final" d="M1049 -20q-59 -219 -218.5 -355.5t-359.5 -136.5q-48 0 -155.5 62t-192.5 135l39 100q129 -33 264 -33q149 0 273.5 62t193.5 170q-255 11 -364 47.5t-161.5 114t-52.5 196.5q0 138 52.5 267t133.5 205.5t165 76.5q94 0 178.5 -80t145.5 -227.5t77 -317.5h129 q21 0 21 -20v-246q0 -20 -21 -20h-147zM909 268q-48 161 -126 248.5t-171 87.5q-69 0 -119.5 -48t-50.5 -110q0 -133 238 -165q40 -8 229 -13zM483 1296q-12 -82 -45 -180t-80 -171q-43 0 -65.5 29t-22.5 74q0 19 43 109q55 114 102 245q89 51 168 64q64 -141 136 -265.5 t131 -197.5q-23 -5 -52.5 -12t-60.5 -8h-6q-56 0 -90 25t-75.5 99.5t-82.5 188.5z" />
<glyph unicode="&#x6ca;" horiz-adv-x="1206" d="M1080 -20q-59 -219 -218.5 -355.5t-359.5 -136.5q-48 0 -155.5 62t-192.5 135l39 100q129 -33 264 -33q149 0 273.5 62t193.5 170q-255 11 -364 47.5t-161.5 114t-52.5 196.5q0 138 52.5 267t133.5 205.5t165 76.5q94 0 178.5 -80t145.5 -227.5t77 -317.5h129 q21 0 21 -20v-246q0 -20 -21 -20h-147zM940 268q-48 161 -126 248.5t-171 87.5q-69 0 -119.5 -48t-50.5 -110q0 -133 238 -165q40 -8 229 -13zM512 1186q-61 -94 -184 -211q-129 102 -205 190q54 50 107 107t94 100q71 -77 188 -186zM913 1231q-65 -99 -182 -211 q-130 101 -205 188q92 86 199 209q77 -80 188 -186z" />
<glyph unicode="&#x6cb;" horiz-adv-x="1266" arabic-form="final" d="M1139 -20q-59 -219 -218.5 -355.5t-359.5 -136.5q-48 0 -155.5 62t-192.5 135l39 100q129 -33 264 -33q149 0 273.5 62t193.5 170q-255 11 -364 47.5t-161.5 114t-52.5 196.5q0 138 52.5 267t133.5 205.5t165 76.5q94 0 178.5 -80t145.5 -227.5t77 -317.5h129 q21 0 21 -20v-246q0 -20 -21 -20h-147zM999 268q-48 161 -126 248.5t-171 87.5q-69 0 -119.5 -48t-50.5 -110q0 -133 238 -165q40 -8 229 -13zM718 1473q-116 -130 -178 -170q-43 27 -99 74.5t-96 95.5q99 88 185 188q70 -91 188 -188zM513 1180q-69 -101 -184 -209 q-130 103 -205 188q79 73 158 160l43 47q63 -69 188 -186zM956 1225q-70 -104 -183 -209q-132 103 -204 188q66 61 198 207q53 -56 189 -186z" />
<glyph unicode="&#x6cd;" horiz-adv-x="2007" d="M1032 -696q-257 0 -392.5 128t-135.5 367v35l2 31q-203 -101 -307 -160q-33 51 -33 123q0 94 65 137q205 136 361 213l98 -49q-17 -44 -31 -108.5t-14 -108.5q0 -157 106 -239.5t308 -82.5q211 0 420 45.5t333 124.5q-127 51 -284.5 148t-157.5 133q0 25 21 78.5 t58.5 119.5t47.5 66q213 -39 524 -39q27 0 27 -26v-236q0 -24 -27 -24q-68 0 -175 10t-191 30l74 -36q100 -45 137.5 -66.5t53 -55t15.5 -98.5q0 -103 -138 -210t-353 -178.5t-412 -71.5z" />
<glyph unicode="&#x6ce;" horiz-adv-x="846" d="M-11 -20q-20 0 -20 20v246q0 20 20 20q183 0 351.5 18t242.5 50q-32 70 -64 127t-57.5 103.5t-41 84.5t-15.5 70q0 59 66 130.5t153 113.5l31 -157q69 -326 69 -403q0 -102 -94 -290q-101 -61 -281 -97t-360 -36zM284 -269q-61 -94 -184 -211q-129 102 -205 190 q54 50 107 107t94 100q71 -77 188 -186zM685 -224q-65 -99 -182 -211q-130 101 -205 188q92 86 199 209q77 -80 188 -186zM459 1208q12 81 44.5 178.5t80.5 174.5q43 0 65.5 -29t22.5 -74q0 -15 -11.5 -41t-31 -67.5t-46 -101.5t-56.5 -144q-85 -50 -168 -64 q-64 140 -137 266.5t-129 196.5q84 19 114 20h5q55 0 88.5 -24t77.5 -106t81 -185z" />
<glyph unicode="&#x6ce;" horiz-adv-x="868" d="M0 -20q-20 0 -20 20v246q0 20 20 20q175 0 247.5 9t118 29t69 51.5t76.5 139.5q36 75 64.5 95t69.5 20q59 0 96 -35q-23 -54 -49 -118t-57 -129q117 -62 254 -62q20 0 20 -20v-246q0 -20 -20 -20q-91 0 -176 39t-172 126q-25 -42 -56 -77q-34 -39 -173.5 -63.5 t-311.5 -24.5zM425 -269q-61 -94 -184 -211q-129 102 -205 190q54 50 107 107t94 100q71 -77 188 -186zM826 -224q-65 -99 -182 -211q-130 101 -205 188q92 86 199 209q77 -80 188 -186zM469 857q12 81 44.5 178.5t80.5 174.5q43 0 65.5 -29t22.5 -74q0 -15 -11.5 -41 t-31 -67.5t-46 -101.5t-56.5 -144q-85 -50 -168 -64q-64 140 -137 266.5t-129 196.5q84 19 114 20h5q55 0 88.5 -24t77.5 -106t81 -185z" />
<glyph unicode="&#x6ce;" horiz-adv-x="1663" d="M1468 -240q-127 51 -284.5 148t-157.5 133q0 25 21 78.5t58.5 119.5t47.5 66q213 -39 524 -39q27 0 27 -26v-236q0 -24 -27 -24q-68 0 -175 10t-191 30l74 -36q100 -45 137.5 -66.5t53 -55t15.5 -98.5q0 -101 -137 -209t-353.5 -179.5t-412.5 -71.5q-257 0 -390.5 127 t-133.5 368q0 125 59 348l107 -26q-33 -111 -33 -191q0 -170 102.5 -255t315.5 -85q211 0 420 45.5t333 124.5zM1169 537q12 81 44.5 178.5t80.5 174.5q43 0 65.5 -29t22.5 -74q0 -15 -11.5 -41t-31 -67.5t-46 -101.5t-56.5 -144q-85 -50 -168 -64q-64 140 -137 266.5 t-129 196.5q84 19 114 20h5q55 0 88.5 -24t77.5 -106t81 -185z" />
<glyph unicode="&#x6cf;" horiz-adv-x="1176" d="M1049 -20q-59 -219 -218.5 -355.5t-359.5 -136.5q-48 0 -155.5 62t-192.5 135l39 100q129 -33 264 -33q149 0 273.5 62t193.5 170q-255 11 -364 47.5t-161.5 114t-52.5 196.5q0 138 52.5 267t133.5 205.5t165 76.5q94 0 178.5 -80t145.5 -227.5t77 -317.5h129 q21 0 21 -20v-246q0 -20 -21 -20h-147zM909 268q-48 161 -126 248.5t-171 87.5q-69 0 -119.5 -48t-50.5 -110q0 -133 238 -165q40 -8 229 -13zM743 1200q-73 -108 -199 -226q-150 124 -219 203q145 145 215 225q83 -94 203 -202z" />
<glyph unicode="&#x6d0;" horiz-adv-x="1663" arabic-form="final" d="M1468 -240q-127 51 -284.5 148t-157.5 133q0 25 21 78.5t58.5 119.5t47.5 66q213 -39 524 -39q27 0 27 -26v-236q0 -24 -27 -24q-68 0 -175 10t-191 30l74 -36q100 -45 137.5 -66.5t53 -55t15.5 -98.5q0 -101 -137 -209t-353.5 -179.5t-412.5 -71.5q-257 0 -390.5 127 t-133.5 368q0 125 59 348l107 -26q-33 -111 -33 -191q0 -170 102.5 -255t315.5 -85q211 0 420 45.5t333 124.5zM1194 -1290q-48 -68 -129 -147q-79 62 -144 133q58 52 142 145q35 -38 131 -131zM1153 -1001q-42 -65 -127 -147q-96 74 -144 131q59 54 140 147l68 -69z" />
<glyph unicode="&#x6d1;" horiz-adv-x="1663" d="M1468 -240q-127 51 -284.5 148t-157.5 133q0 25 21 78.5t58.5 119.5t47.5 66q213 -39 524 -39q27 0 27 -26v-236q0 -24 -27 -24q-68 0 -175 10t-191 30l74 -36q100 -45 137.5 -66.5t53 -55t15.5 -98.5q0 -101 -137 -209t-353.5 -179.5t-412.5 -71.5q-257 0 -390.5 127 t-133.5 368q0 125 59 348l107 -26q-33 -111 -33 -191q0 -170 102.5 -255t315.5 -85q211 0 420 45.5t333 124.5zM874 -1000q-51 -73 -129 -146q-88 69 -143 131q49 46 139 146zM1183 -968q-46 -70 -127 -149q-93 71 -143 135q37 34 74 74t65 69q43 -47 131 -129zM1042 -1213 q-90 -97 -123 -119q-79 49 -137 119q62 55 129 133q46 -63 131 -133z" />
<glyph unicode="&#x6ee;" horiz-adv-x="1169" d="M1190 -20q-96 0 -162 28.5t-119 81.5q-275 -131 -503 -131q-324 0 -324 188q0 51 19 103t53 92q59 -50 136.5 -73t190.5 -23q149 0 291 33q-80 134 -143.5 290t-63.5 234q0 91 44 154t124 87q72 -304 148 -491t135 -237t174 -50q20 0 20 -20v-246q0 -20 -20 -20z M520 1436q-12 -82 -45 -180t-80 -171q-43 0 -65.5 29t-22.5 74q0 19 43 109q55 114 102 245q89 51 168 64q64 -141 136 -265.5t131 -197.5q-23 -5 -52.5 -12t-60.5 -8h-6q-56 0 -90 25t-75.5 99.5t-82.5 188.5z" />
<glyph unicode="&#x6ef;" horiz-adv-x="952" d="M973 -20q-95 0 -178 47q-44 -246 -194 -392.5t-355 -146.5q-45 0 -140 58.5t-188 138.5l39 100q129 -33 244 -33q177 0 301 89.5t178 256.5q-21 44 -40 76t-91 144q-68 104 -100.5 178.5t-32.5 132.5q0 70 57 139.5t145 112.5q23 -97 90 -291q62 -180 83 -281 q79 -43 182 -43q20 0 20 -20v-246q0 -20 -20 -20zM373 1298q-12 -82 -45 -180t-80 -171q-43 0 -65.5 29t-22.5 74q0 19 43 109q55 114 102 245q89 51 168 64q64 -141 136 -265.5t131 -197.5q-23 -5 -52.5 -12t-60.5 -8h-6q-56 0 -90 25t-75.5 99.5t-82.5 188.5z" />
<glyph unicode="&#x6fa;" horiz-adv-x="1686" d="M1462 -41q-153 0 -306.5 35t-268.5 88l-29 -57q-16 -27 -110.5 -46.5t-192.5 -19.5q-120 0 -279 76q-43 -22 -115.5 -38.5t-160.5 -16.5q-20 0 -20 20v246q0 20 20 20q107 0 164 13.5t92.5 48t82.5 116.5l38 66q16 26 42 43t58 17q37 0 74 -25q-28 -68 -56.5 -144 t-60.5 -147q54 -8 133 -8q62 0 92.5 5t79.5 21q27 45 102 244l31 82q13 30 43.5 51t73.5 21q47 0 86 -27q-30 -71 -75 -223l-27 -88q93 -47 205 -71t245 -38q-32 71 -64.5 132.5t-58 113t-41.5 94t-16 74.5q0 59 66 130.5t153 113.5l31 -160q70 -345 70 -420 q0 -55 -30.5 -158.5t-70.5 -183.5zM839 1307q-116 -130 -178 -170q-43 27 -99 74.5t-96 95.5q99 88 185 188q70 -91 188 -188zM634 1014q-69 -101 -184 -209q-130 103 -205 188q79 73 158 160l43 47q63 -69 188 -186zM1077 1059q-70 -104 -183 -209q-132 103 -204 188 q66 61 198 207q53 -56 189 -186zM1065 -355q-78 -111 -199 -225q-150 124 -219 203q145 145 215 225q70 -81 203 -203z" />
<glyph unicode="&#x6fa;" horiz-adv-x="1679" d="M477 570q37 0 74 -25q-28 -68 -56.5 -144t-60.5 -147q54 -8 133 -8q62 0 92.5 5t79.5 21q27 45 102 244l31 82q13 30 43.5 51t73.5 21q47 0 86 -27q-38 -93 -97 -296l-34 -109l36 -2h30q89 0 172 26q28 46 106 270l33 86q13 30 44.5 51t74.5 21q45 0 84 -24 q-31 -77 -80 -242l-29 -94q57 -35 123.5 -49.5t161.5 -14.5q20 0 20 -20v-246q0 -20 -20 -20q-99 0 -198 42t-156 103q-34 -82 -46 -100q-19 -31 -92.5 -48.5t-169.5 -17.5q-34 0 -90.5 15.5t-103.5 35.5q-35 -22 -119 -36.5t-170 -14.5q-120 0 -279 76 q-43 -22 -115.5 -38.5t-160.5 -16.5q-20 0 -20 20v246q0 20 20 20q107 0 164 13.5t92.5 48t82.5 116.5l38 66q16 26 42 43t58 17zM839 1307q-116 -130 -178 -170q-43 27 -99 74.5t-96 95.5q99 88 185 188q70 -91 188 -188zM634 1014q-69 -101 -184 -209q-130 103 -205 188 q79 73 158 160l43 47q63 -69 188 -186zM1077 1059q-70 -104 -183 -209q-132 103 -204 188q66 61 198 207q53 -56 189 -186zM1065 -355q-78 -111 -199 -225q-150 124 -219 203q145 145 215 225q70 -81 203 -203z" />
<glyph unicode="&#x6fa;" horiz-adv-x="2503" d="M2523 -20q-99 0 -198 42t-156 103q-36 -87 -45 -100q-19 -29 -89 -47.5t-173 -18.5q-35 0 -93 16.5t-102 34.5q-35 -22 -119 -36.5t-170 -14.5l-51 4l4 -69q0 -160 -96 -297t-262.5 -215t-366.5 -78q-216 0 -329 126.5t-113 368.5q0 125 59 348l107 -26 q-33 -111 -33 -191q0 -173 77 -256.5t238 -83.5q197 0 331 51t253 162q-32 70 -68 136t-66 123t-49.5 103.5t-19.5 78.5q0 202 244 317q10 -81 51 -311l103 -4q62 0 93.5 5.5t78.5 20.5q28 50 101 244l32 82q12 30 44 51t73 21q46 0 85 -27q-28 -70 -97 -296l-34 -109l37 -2 h29q89 0 172 26q28 46 106 270l33 86q13 30 44.5 51t74.5 21q45 0 84 -24q-31 -78 -80 -242l-29 -94q57 -35 123.5 -49.5t161.5 -14.5q21 0 21 -20v-246q0 -20 -21 -20zM1796 1307q-116 -130 -178 -170q-43 27 -99 74.5t-96 95.5q99 88 185 188q70 -91 188 -188zM1591 1014 q-69 -101 -184 -209q-130 103 -205 188q79 73 158 160l43 47q63 -69 188 -186zM2034 1059q-70 -104 -183 -209q-132 103 -204 188q66 61 198 207q53 -56 189 -186zM2021 -355q-78 -111 -199 -225q-150 124 -219 203q145 145 215 225q70 -81 203 -203z" />
<glyph unicode="&#x6fb;" horiz-adv-x="1915" d="M461 575q39 0 76 -24l-45 -115l-50 -121q45 -17 97 -30q251 330 440 483.5t326 153.5q84 0 196.5 -69.5t201.5 -174.5t89 -176q0 -156 -99 -276.5t-301.5 -193.5t-416.5 -73q-188 0 -365 35t-288 94l-17 -20q-38 -38 -123.5 -63t-181.5 -25q-20 0 -20 20v246q0 20 20 20 q102 0 149 12t82.5 45.5t83.5 120.5l37 66q16 29 44.5 47t64.5 18zM1245 639q-208 0 -545 -391q148 -23 299 -23q161 0 306.5 35t347.5 131q-215 248 -408 248zM1092 1155q-73 -108 -199 -226q-150 124 -219 203q145 145 215 225q83 -94 203 -202zM1368 -355 q-78 -111 -199 -225q-150 124 -219 203q145 145 215 225q70 -81 203 -203z" />
<glyph unicode="&#x6fb;" horiz-adv-x="2038" d="M2058 -20q-118 0 -227.5 51t-190.5 139q-107 -95 -290 -153t-375 -58q-188 0 -365 35t-288 94l-17 -20q-38 -38 -123.5 -63t-181.5 -25q-20 0 -20 20v246q0 20 20 20q102 0 149 12t82.5 45.5t83.5 120.5l37 66q16 29 44.5 47t64.5 18q39 0 76 -24l-45 -115l-50 -121 q45 -17 97 -30q251 330 440 483.5t326 153.5q84 0 196.5 -69.5t201.5 -174.5t89 -176q0 -73 -25 -150q57 -38 125.5 -62t165.5 -24q21 0 21 -20v-246q0 -20 -21 -20zM1245 639q-208 0 -545 -391q148 -23 299 -23q161 0 306.5 35t347.5 131q-215 248 -408 248zM1102 1155 q-73 -108 -199 -226q-150 124 -219 203q145 145 215 225q83 -94 203 -202zM1368 -355q-78 -111 -199 -225q-150 124 -219 203q145 145 215 225q70 -81 203 -203z" />
<glyph unicode="&#x6fb;" horiz-adv-x="2859" d="M2879 -20q-115 0 -227 52t-194 144q-76 -69 -185 -117t-237.5 -74t-249.5 -26q-110 0 -234 14.5t-229 42.5q8 -85 8 -122q0 -160 -96 -297t-262.5 -215t-366.5 -78q-216 0 -329 126.5t-113 368.5q0 125 59 348l107 -26q-33 -111 -33 -191q0 -173 77 -256.5t238 -83.5 q197 0 331 51t253 162q-32 70 -68 136t-66 123t-49.5 103.5t-19.5 78.5q0 202 244 317q13 -99 39 -254l74 -22q251 330 440 483.5t326 153.5q84 0 196.5 -69.5t201.5 -174.5t89 -176q0 -78 -23 -144q58 -41 128 -66.5t171 -25.5q21 0 21 -20v-246q0 -20 -21 -20zM2056 639 q-208 0 -545 -391q148 -23 299 -23q161 0 306.5 35t347.5 131q-215 248 -408 248zM1911 1155q-73 -108 -199 -226q-150 124 -219 203q145 145 215 225q83 -94 203 -202zM2204 -355q-78 -111 -199 -225q-150 124 -219 203q145 145 215 225q70 -81 203 -203z" />
<glyph unicode="&#x6fc;" horiz-adv-x="1245" d="M0 -20q-20 0 -20 20v246q0 20 20 20l128 -1l60 1q-51 68 -51 148q0 113 64 242t154.5 201.5t185.5 72.5q168 0 366 -223l-51 -97q-145 56 -254 56q-83 0 -147.5 -17.5t-145.5 -60.5q5 -100 51.5 -183t143.5 -131q351 17 641 134q16 -15 27 -47.5t11 -70.5 q0 -56 -24 -99.5t-66.5 -70t-228.5 -66t-388 -57t-476 -17.5zM550 1211q-73 -108 -199 -226q-150 124 -219 203q145 145 215 225q83 -94 203 -202zM879 -355q-78 -111 -199 -225q-150 124 -219 203q145 145 215 225q70 -81 203 -203z" />
<glyph unicode="&#x6fc;" horiz-adv-x="1079" d="M1096 -20q-333 0 -521 147q-142 -79 -282.5 -113t-290.5 -34q-22 0 -22 22v242q0 22 22 22q108 0 218.5 2.5t203.5 18.5l-49 62q-89 115 -193 198l-43 -29q-64 71 -64 154q0 79 69.5 139.5t194.5 106t245 45.5q104 0 198 -46.5t148.5 -125.5t54.5 -170q0 -172 -188 -340 q90 -15 299 -15q24 0 24 -22v-242q0 -22 -24 -22zM592 696q-128 0 -254 -59q79 -67 149 -144q87 -98 127 -135q129 93 129 209q0 57 -42.5 93t-108.5 36zM713 1258q-73 -108 -199 -226q-150 124 -219 203q145 145 215 225q83 -94 203 -202zM766 -355q-78 -111 -199 -225 q-150 124 -219 203q145 145 215 225q70 -81 203 -203z" />
<glyph unicode="&#x6fc;" horiz-adv-x="1149" d="M1165 -20q-171 0 -295.5 37t-218.5 118q-127 -76 -196.5 -166t-69.5 -174q0 -117 68.5 -202t190 -131t269.5 -46q186 0 473 66l33 -103l-90 -52q-312 -187 -422 -187q-317 0 -481 154.5t-164 465.5q0 272 277 494l-55 70q-97 131 -212 223l-43 -29q-64 71 -64 154 q0 79 69.5 139.5t194.5 106t245 45.5q104 0 198 -46.5t148.5 -125.5t54.5 -170q0 -173 -201 -340q84 -15 291 -15q25 0 25 -22v-242q0 -22 -25 -22zM682 696q-128 0 -254 -59q80 -65 204 -204l62 -64q77 54 108.5 99.5t31.5 98.5q0 58 -43.5 93.5t-108.5 35.5zM764 1258 q-73 -108 -199 -226q-150 124 -219 203q145 145 215 225q83 -94 203 -202zM1051 -353q-78 -111 -199 -225q-150 124 -219 203q145 145 215 225q70 -81 203 -203z" />
<glyph unicode="&#x6ff;" horiz-adv-x="1243" d="M0 -20q-20 0 -20 20v250q0 16 20 16h91l91 2q-76 103 -76 211q0 95 57.5 210.5t139.5 174.5l70 248q196 -48 368 -178.5t275.5 -312t103.5 -361.5q0 -113 -123 -323q-165 5 -312.5 42t-262.5 97q-175 -96 -422 -96zM229 481q86 -94 213 -153l2 2q46 24 77.5 80.5 t31.5 126.5q0 55 -38.5 101t-82.5 46q-122 0 -203 -203zM709 530q0 -151 -76 -268q116 -31 352 -63q-58 163 -131 276t-172 197q27 -72 27 -142zM403 1475q-12 -82 -45 -180t-80 -171q-43 0 -65.5 29t-22.5 74q0 19 43 109q55 114 102 245q89 51 168 64q64 -141 136 -265.5 t131 -197.5q-23 -5 -52.5 -12t-60.5 -8h-6q-56 0 -90 25t-75.5 99.5t-82.5 188.5z" />
<glyph unicode="&#x6ff;" horiz-adv-x="958" d="M805 -33q52 -28 87.5 -76.5t35.5 -97.5q0 -36 -33 -123t-49 -106q-25 -29 -79 -52.5t-132 -23.5q-188 0 -313.5 111.5t-159.5 312.5l-74 -35l-25 111l-63 -8q-20 0 -20 20v246q0 20 20 20q82 0 174 6q41 203 156 399t299 369l106 -24q8 -99 44 -304q30 -175 30 -251 q0 -123 -113 -225q156 30 277 30q26 0 26 -24v-236q0 -26 -26 -26q-86 0 -168 -13zM557 711q-94 -133 -142 -239t-65 -228q194 24 312 121l-30 92q-56 148 -75 254zM412 -20l-56 -7q25 -127 98 -190.5t201 -63.5q45 0 75 10.5t65 32.5q-71 104 -173 161t-210 57zM530 1475 q-12 -82 -45 -180t-80 -171q-43 0 -65.5 29t-22.5 74q0 19 43 109q55 114 102 245q89 51 168 64q64 -141 136 -265.5t131 -197.5q-23 -5 -52.5 -12t-60.5 -8h-6q-56 0 -90 25t-75.5 99.5t-82.5 188.5z" />
<glyph unicode="&#x6ff;" horiz-adv-x="1176" d="M653 -567q-124 88 -214.5 246t-108.5 317q-167 -39 -242 -64l-47 99q50 43 134.5 88.5t158.5 73.5q56 429 512 847l106 -24q7 -91 37 -296q25 -172 25 -243q0 -133 -125.5 -249.5t-345.5 -182.5q9 -71 39 -140t125 -208q18 158 78.5 293.5t156.5 205.5t248 70 q27 0 27 -24v-236q0 -26 -27 -26q-96 0 -174 -10.5t-121 -28.5q-27 -110 -35 -180.5t-10 -196.5zM774 711q-111 -157 -158.5 -255t-66.5 -202q93 23 175.5 51t141.5 76q-58 173 -68.5 216.5t-23.5 113.5zM739 1475q-12 -82 -45 -180t-80 -171q-43 0 -65.5 29t-22.5 74 q0 19 43 109q55 114 102 245q89 51 168 64q64 -141 136 -265.5t131 -197.5q-23 -5 -52.5 -12t-60.5 -8h-6q-56 0 -90 25t-75.5 99.5t-82.5 188.5z" />
<glyph unicode="&#x671;" horiz-adv-x="694" arabic-form="final" d="M471 1462l-6 -229q-15 -500 -15 -899q57 -38 118.5 -53t145.5 -15q21 0 21 -20v-246q0 -20 -21 -20q-159 0 -253.5 55t-112.5 162q-33 190 -62 388t-92 722zM436 1569q-51 0 -98.5 15.5t-116.5 50.5q-52 -26 -92 -66l-53 47q52 84 92 118t84 34q8 0 37 -13 q104 164 223 164q50 0 94.5 -56.5t44.5 -125.5q0 -22 -6 -56t-16 -59q-45 -31 -89.5 -42t-103.5 -11zM491 1794q-62 0 -141 -71q42 -21 86 -21q61 0 84 5t63 22q-34 65 -92 65z" />
<glyph unicode="&#x67e;" horiz-adv-x="1968" arabic-form="final" d="M753 -41q-300 0 -444 132.5t-144 381.5q0 57 16 136.5t31 127.5h108l-3 -26l-5 -93q0 -142 57 -220.5t173.5 -115t298.5 -36.5q257 0 438.5 31t249.5 85q23 20 40.5 46t47.5 90q34 74 61.5 92t66.5 20q60 0 97 -35l-56 -130l-52 -115q119 -64 256 -64q20 0 20 -20v-246 q0 -20 -20 -20q-194 0 -369 184q-68 -59 -191.5 -104.5t-294.5 -73t-382 -27.5zM1022 -402q-63 -95 -184 -209q-130 103 -205 188q73 67 157 160l43 47q71 -78 189 -186zM1464 -357q-65 -99 -182 -211q-133 104 -205 190q72 67 199 207q52 -56 188 -186zM1264 -708 q-127 -135 -179 -170q-106 69 -194 170q102 96 184 191q35 -47 88.5 -101t100.5 -90z" />
<glyph unicode="&#x67e;" horiz-adv-x="872" arabic-form="initial" d="M-9 -20q-20 0 -20 20v246q0 20 20 20q183 0 351.5 18t242.5 50q-32 70 -64 127t-57.5 103.5t-41 84.5t-15.5 70q0 59 66 130.5t153 113.5l31 -157q69 -326 69 -403q0 -102 -94 -290q-101 -61 -281 -97t-360 -36zM329 -402q-63 -95 -184 -209q-130 103 -205 188 q73 67 157 160l43 47q71 -78 189 -186zM771 -357q-65 -99 -182 -211q-133 104 -205 190q72 67 199 207q52 -56 188 -186zM571 -708q-127 -135 -179 -170q-106 69 -194 170q102 96 184 191q35 -47 88.5 -101t100.5 -90z" />
<glyph unicode="&#x67e;" horiz-adv-x="868" arabic-form="medial" d="M0 -20q-20 0 -20 20v246q0 20 20 20q175 0 247.5 9t118 29t69 51.5t76.5 139.5q36 75 64.5 95t69.5 20q59 0 96 -35q-23 -54 -49 -118t-57 -129q117 -62 254 -62q20 0 20 -20v-246q0 -20 -20 -20q-91 0 -176 39t-172 126q-25 -42 -56 -77q-34 -39 -173.5 -63.5 t-311.5 -24.5zM405 -402q-63 -95 -184 -209q-130 103 -205 188q73 67 157 160l43 47q71 -78 189 -186zM847 -357q-65 -99 -182 -211q-133 104 -205 190q72 67 199 207q52 -56 188 -186zM647 -708q-127 -135 -179 -170q-106 69 -194 170q102 96 184 191q35 -47 88.5 -101 t100.5 -90z" />
<glyph unicode="&#x679;" horiz-adv-x="1968" arabic-form="final" d="M753 -41q-300 0 -444 132.5t-144 381.5q0 57 16 136.5t31 127.5h108l-3 -26l-5 -93q0 -142 57 -220.5t173.5 -115t298.5 -36.5q257 0 438.5 31t249.5 85q23 20 40.5 46t47.5 90q34 74 61.5 92t66.5 20q60 0 97 -35l-56 -130l-52 -115q119 -64 256 -64q20 0 20 -20v-246 q0 -20 -20 -20q-194 0 -369 184q-68 -59 -191.5 -104.5t-294.5 -73t-382 -27.5zM656 855q68 -15 125 -20l63 84l-32 132q-51 205 -51 234q0 46 38.5 78t108.5 43q29 -93 49 -143l-27 -21l3 -115l-3 -116q126 115 205 115q38 0 90 -36t97.5 -96t45.5 -96q0 -70 -54 -132.5 t-137 -99t-157 -36.5q-63 0 -120 12.5t-110 34.5t-159 82zM1118 945q-49 0 -107.5 -32.5t-115.5 -89.5q70 -7 131 -7q120 0 240 46q-24 37 -66 60t-82 23z" />
<glyph unicode="&#x679;" horiz-adv-x="846" arabic-form="initial" d="M-11 -20q-20 0 -20 20v246q0 20 20 20q117 0 237 18.5t193 49.5q-32 70 -64 127t-57.5 103.5t-41 84.5t-15.5 70q0 59 66 130.5t153 113.5l31 -157q69 -326 69 -403q0 -102 -94 -290q-223 -133 -477 -133zM-82 1349q68 -15 125 -20l63 84l-32 132q-51 205 -51 234 q0 46 38.5 78t108.5 43q29 -93 49 -143l-27 -21l3 -115l-3 -116q126 115 205 115q38 0 90 -36t97.5 -96t45.5 -96q0 -70 -54 -132.5t-137 -99t-157 -36.5q-63 0 -120 12.5t-110 34.5t-159 82zM380 1439q-49 0 -107.5 -32.5t-115.5 -89.5q70 -7 131 -7q120 0 240 46 q-24 37 -66 60t-82 23z" />
<glyph unicode="&#x679;" horiz-adv-x="868" arabic-form="medial" d="M0 -20q-20 0 -20 20v246q0 20 20 20q175 0 247.5 9t118 29t69 51.5t76.5 139.5q36 75 64.5 95t69.5 20q59 0 96 -35q-23 -54 -49 -118t-57 -129q117 -62 254 -62q20 0 20 -20v-246q0 -20 -20 -20q-91 0 -176 39t-172 126q-25 -42 -56 -77q-34 -39 -173.5 -63.5 t-311.5 -24.5zM93 1007q68 -15 125 -20l63 84l-32 132q-51 205 -51 234q0 46 38.5 78t108.5 43q29 -93 49 -143l-27 -21l3 -115l-3 -116q126 115 205 115q38 0 90 -36t97.5 -96t45.5 -96q0 -70 -54 -132.5t-137 -99t-157 -36.5q-63 0 -120 12.5t-110 34.5t-159 82zM555 1097 q-49 0 -107.5 -32.5t-115.5 -89.5q70 -7 131 -7q120 0 240 46q-24 37 -66 60t-82 23z" />
<glyph unicode="&#x6a4;" horiz-adv-x="2077" arabic-form="isolated" d="M751 -41q-287 0 -437 130.5t-150 383.5q0 50 14.5 128.5t32.5 135.5h108l-3 -26l-5 -93q0 -141 56 -220t174 -116.5t298 -37.5q318 0 579 38t411 105q-18 76 -45 156q-69 -51 -154 -82t-176 -31q-87 0 -149 35.5t-95 99t-33 146.5q0 125 47 244.5t124 190.5t159 71 q116 0 220.5 -106t165.5 -292t61 -420q0 -77 -84 -245q-229 -91 -520 -143t-599 -52zM1501 633q96 0 229 45q-121 252 -272 252q-63 0 -109.5 -45.5t-46.5 -112.5q0 -58 58.5 -98.5t140.5 -40.5zM1599 1829q-116 -130 -178 -170q-43 27 -99 74.5t-96 95.5q99 88 185 188 q70 -91 188 -188zM1394 1536q-69 -101 -184 -209q-130 103 -205 188q79 73 158 160l43 47q63 -69 188 -186zM1837 1581q-70 -104 -183 -209q-132 103 -204 188q66 61 198 207q53 -56 189 -186z" />
<glyph unicode="&#x6a4;" horiz-adv-x="2003" arabic-form="final" d="M751 -41q-287 0 -437 130.5t-150 383.5q0 50 14.5 128.5t32.5 135.5h108l-3 -26l-5 -93q0 -141 56 -220t174 -116.5t298 -37.5q187 0 349 16q-43 62 -43 119q0 61 13.5 141.5t29.5 110.5q67 122 180.5 207.5t222.5 85.5q64 0 130 -70.5t108.5 -186t42.5 -218.5 q0 -86 -72 -181l110 -2h113q21 0 21 -20v-246q0 -20 -21 -20q-326 0 -530 83q-144 -49 -348.5 -76.5t-393.5 -27.5zM1276 401q82 -99 225 -143q146 40 235 117q-27 99 -78.5 175.5t-91.5 76.5q-130 0 -290 -226zM1665 1545q-116 -130 -178 -170q-43 27 -99 74.5t-96 95.5 q99 88 185 188q70 -91 188 -188zM1460 1252q-69 -101 -184 -209q-130 103 -205 188q79 73 158 160l43 47q63 -69 188 -186zM1903 1297q-70 -104 -183 -209q-132 103 -204 188q66 61 198 207q53 -56 189 -186z" />
<glyph unicode="&#x6a4;" horiz-adv-x="1030" arabic-form="initial" d="M784 395q-27 102 -45 148q-69 -51 -154 -82t-175 -31q-87 0 -149 35.5t-95 99t-33 146.5q0 125 47 244.5t124 190.5t159 71q115 0 221.5 -115t164.5 -300t58 -403q0 -77 -84 -245q-144 -90 -333.5 -132t-487.5 -42q-22 0 -22 22v242q0 22 22 22q271 0 454.5 32.5 t327.5 96.5zM457 633q96 0 229 45q-63 132 -134 191t-138 59q-59 0 -107.5 -46t-48.5 -110q0 -57 58 -98t141 -41zM537 1803q-116 -130 -178 -170q-43 27 -99 74.5t-96 95.5q99 88 185 188q70 -91 188 -188zM332 1510q-69 -101 -184 -209q-130 103 -205 188q79 73 158 160 l43 47q63 -69 188 -186zM775 1555q-70 -104 -183 -209q-132 103 -204 188q66 61 198 207q53 -56 189 -186z" />
<glyph unicode="&#x6a4;" horiz-adv-x="993" arabic-form="medial" d="M2 266l111 -1l57 1q-35 56 -35 113q0 48 13 134t30 118q71 125 183 209t221 84q65 0 130 -71t107.5 -185.5t42.5 -218.5q0 -92 -53 -181l102 -2h103q20 0 20 -20v-246q0 -20 -20 -20q-311 0 -516 79q-177 -79 -496 -79q-22 0 -22 22v242q0 22 22 22zM266 401 q84 -99 226 -143q146 40 235 117q-26 95 -78.5 173.5t-91.5 78.5q-71 0 -143 -60t-148 -166zM636 1596q-116 -130 -178 -170q-43 27 -99 74.5t-96 95.5q99 88 185 188q70 -91 188 -188zM431 1303q-69 -101 -184 -209q-130 103 -205 188q79 73 158 160l43 47q63 -69 188 -186 zM874 1348q-70 -104 -183 -209q-132 103 -204 188q66 61 198 207q53 -56 189 -186z" />
<glyph unicode="&#x686;" horiz-adv-x="1765" arabic-form="final" d="M1786 -20q-202 0 -344 35.5t-142 82.5q0 46 29 172l-94 17q-226 -31 -424 -133.5t-299.5 -238t-101.5 -288.5q0 -64 10 -114.5t43 -139.5l-146 -67q-33 82 -54 177t-21 161q0 277 154 474.5t458 307.5l-89 53q-76 46 -138 67t-123 21q-71 0 -131 -18t-154 -76 q-21 21 -38 64.5t-17 80.5q0 70 43.5 123t121 83t167.5 30q94 0 180 -27.5t180 -85.5q177 -110 280.5 -150.5t245 -64.5t297.5 -24l-110 -232q56 -4 217 -4q20 0 20 -20v-246q0 -20 -20 -20zM957 -225q-63 -95 -184 -209q-130 103 -205 188q73 67 157 160l43 47 q71 -78 189 -186zM1399 -180q-65 -99 -182 -211q-133 104 -205 190q72 67 199 207q52 -56 188 -186zM1199 -531q-127 -135 -179 -170q-106 69 -194 170q102 96 184 191q35 -47 88.5 -101t100.5 -90z" />
<glyph unicode="&#x686;" horiz-adv-x="1563" arabic-form="initial" d="M0 -20q-20 0 -20 20v246q0 20 20 20q214 0 286.5 4.5t134 14t116.5 26.5q191 59 294 80q-59 31 -105.5 62t-88 56.5t-83 41.5t-89.5 16q-71 0 -131 -18t-154 -76q-21 21 -38 64.5t-17 80.5q0 70 43.5 123t121 83t167.5 30q75 0 147.5 -27t160.5 -86q78 -53 145 -90 t117 -57t128.5 -42t150.5 -30t175 -8l-123 -256q-159 12 -246 33q-89 -17 -175.5 -55.5t-186.5 -100.5q-76 -46 -140.5 -75t-132.5 -46.5t-150.5 -25.5t-326.5 -8zM715 -362q-63 -95 -184 -209q-130 103 -205 188q73 67 157 160l43 47q71 -78 189 -186zM1157 -317 q-65 -99 -182 -211q-133 104 -205 190q72 67 199 207q52 -56 188 -186zM957 -668q-127 -135 -179 -170q-106 69 -194 170q102 96 184 191q35 -47 88.5 -101t100.5 -90z" />
<glyph unicode="&#x686;" horiz-adv-x="1583" arabic-form="medial" d="M0 -20q-20 0 -20 20v246q0 20 20 20q214 0 286.5 4.5t134 14t116.5 26.5q191 59 294 80q-59 31 -105.5 62t-88 56.5t-83 41.5t-89.5 16q-71 0 -131 -18t-154 -76q-21 21 -38 64.5t-17 80.5q0 70 43.5 123t121 83t167.5 30q75 0 147.5 -27t160.5 -86q78 -53 145 -90 t117 -57t128.5 -42t150.5 -30t175 -8l-117 -240q60 -8 240 -8q20 0 20 -20v-246q0 -20 -20 -20q-204 0 -345 35.5t-141 82.5q0 53 33 185l-39 8q-89 -17 -175.5 -55.5t-186.5 -100.5q-76 -46 -140.5 -75t-132.5 -46.5t-150.5 -25.5t-326.5 -8zM715 -362q-63 -95 -184 -209 q-130 103 -205 188q73 67 157 160l43 47q71 -78 189 -186zM1157 -317q-65 -99 -182 -211q-133 104 -205 190q72 67 199 207q52 -56 188 -186zM957 -668q-127 -135 -179 -170q-106 69 -194 170q102 96 184 191q35 -47 88.5 -101t100.5 -90z" />
<glyph unicode="&#x688;" horiz-adv-x="1169" arabic-form="final" d="M1190 -20q-96 0 -162 28.5t-119 81.5q-275 -131 -503 -131q-324 0 -324 188q0 51 19 103t53 92q59 -50 136.5 -73t190.5 -23q149 0 291 33q-80 134 -143.5 290t-63.5 234q0 91 44 154t124 87q72 -304 148 -491t135 -237t174 -50q20 0 20 -20v-246q0 -20 -20 -20z M142 1396q68 -15 125 -20l63 84l-32 132q-51 205 -51 234q0 46 38.5 78t108.5 43q29 -93 49 -143l-27 -21l3 -115l-3 -116q126 115 205 115q38 0 90 -36t97.5 -96t45.5 -96q0 -70 -54 -132.5t-137 -99t-157 -36.5q-63 0 -120 12.5t-110 34.5t-159 82zM604 1486 q-49 0 -107.5 -32.5t-115.5 -89.5q70 -7 131 -7q120 0 240 46q-24 37 -66 60t-82 23z" />
<glyph unicode="&#x698;" horiz-adv-x="952" arabic-form="final" d="M973 -20q-95 0 -178 47q-44 -246 -194 -392.5t-355 -146.5q-45 0 -140 58.5t-188 138.5l39 100q129 -33 244 -33q177 0 301 89.5t178 256.5q-21 44 -40 76t-91 144q-68 104 -100.5 178.5t-32.5 132.5q0 70 57 139.5t145 112.5q23 -97 90 -291q62 -180 83 -281 q79 -43 182 -43q20 0 20 -20v-246q0 -20 -20 -20zM603 1526q-116 -130 -178 -170q-43 27 -99 74.5t-96 95.5q99 88 185 188q70 -91 188 -188zM398 1233q-69 -101 -184 -209q-130 103 -205 188q79 73 158 160l43 47q63 -69 188 -186zM841 1278q-70 -104 -183 -209 q-132 103 -204 188q66 61 198 207q53 -56 189 -186z" />
<glyph unicode="&#x691;" horiz-adv-x="952" arabic-form="final" d="M973 -20q-95 0 -178 47q-44 -246 -194 -392.5t-355 -146.5q-45 0 -140 58.5t-188 138.5l39 100q129 -33 244 -33q177 0 301 89.5t178 256.5q-21 44 -40 76t-91 144q-68 104 -100.5 178.5t-32.5 132.5q0 70 57 139.5t145 112.5q23 -97 90 -291q62 -180 83 -281 q79 -43 182 -43q20 0 20 -20v-246q0 -20 -20 -20zM-8 1276q68 -15 125 -20l63 84l-32 132q-51 205 -51 234q0 46 38.5 78t108.5 43q29 -93 49 -143l-27 -21l3 -115l-3 -116q126 115 205 115q38 0 90 -36t97.5 -96t45.5 -96q0 -70 -54 -132.5t-137 -99t-157 -36.5 q-63 0 -120 12.5t-110 34.5t-159 82zM454 1366q-49 0 -107.5 -32.5t-115.5 -89.5q70 -7 131 -7q120 0 240 46q-24 37 -66 60t-82 23z" />
<glyph unicode="&#x6a9;" horiz-adv-x="1911" arabic-form="final" d="M721 -41q-223 0 -330 37.5t-155 121t-48 228.5q0 96 33 254l109 -4q-8 -53 -8 -90q0 -144 101 -202t345 -58q95 0 198.5 18.5t176.5 48.5q-42 112 -66 156q-136 152 -203 284t-67 251q0 57 32.5 114.5t84.5 83.5q378 186 895 395q51 -49 51 -120q0 -63 -37 -115.5 t-94 -79.5q-187 -91 -368 -160t-447 -157q221 -249 304 -332t187 -168q140 -115 256.5 -157t259.5 -42q21 0 21 -20v-246q0 -20 -21 -20q-133 0 -235 22t-183.5 67t-240.5 199q-11 -88 -60 -172q-73 -53 -217.5 -95t-273.5 -42z" />
<glyph unicode="&#x6a9;" horiz-adv-x="1067" arabic-form="initial" d="M0 -20q-20 0 -20 20v246q0 20 20 20q293 0 464.5 18t270.5 62q-44 90 -167.5 197t-297.5 205q-32 -9 -61 -9q-65 0 -115.5 46t-50.5 110q0 49 25 172t38 131q343 170 443.5 216t227.5 100t200 83q47 -45 47 -120q0 -60 -33.5 -114.5t-92.5 -85.5t-182 -85t-244 -96.5 t-290 -89.5q180 -47 335.5 -149.5t248 -234t92.5 -247.5q0 -123 -93.5 -212t-289.5 -136t-475 -47z" />
<glyph unicode="&#x6a9;" horiz-adv-x="1126" arabic-form="medial" d="M358 313q-34 95 -65 156q-141 158 -205.5 288t-64.5 247q0 56 31.5 114t84.5 84q215 105 408.5 190.5t486.5 204.5q51 -49 51 -120q0 -63 -37 -115.5t-94 -79.5q-187 -91 -360.5 -157.5t-454.5 -159.5q249 -281 356 -382t212.5 -177t210.5 -108t229 -32q20 0 20 -20v-246 q0 -20 -20 -20q-116 0 -206.5 16t-165 49.5t-136 85t-150.5 137.5q-11 -85 -55 -155q-108 -64 -213.5 -98.5t-220.5 -34.5q-20 0 -20 20v246q0 20 20 20q178 0 358 47z" />
<glyph unicode="&#x6af;" horiz-adv-x="1911" arabic-form="final" d="M721 -41q-223 0 -330 37.5t-155 121t-48 228.5q0 96 33 254l109 -4q-8 -53 -8 -90q0 -144 101 -202t345 -58q95 0 198.5 18.5t176.5 48.5q-42 112 -66 156q-136 152 -203 284t-67 251q0 57 32.5 114.5t84.5 83.5q378 186 895 395q51 -49 51 -120q0 -63 -37 -115.5 t-94 -79.5q-187 -91 -368 -160t-447 -157q221 -249 304 -332t187 -168q140 -115 256.5 -157t259.5 -42q21 0 21 -20v-246q0 -20 -21 -20q-133 0 -235 22t-183.5 67t-240.5 199q-11 -88 -60 -172q-73 -53 -217.5 -95t-273.5 -42zM753 1270q-16 67 -16 94q0 12 4 14l240 118 l604 288q33 -25 33 -61l-1 -15q-10 -44 -59 -66q-477 -214 -805 -372z" />
<glyph unicode="&#x6af;" horiz-adv-x="1067" arabic-form="initial" d="M0 -20q-20 0 -20 20v246q0 20 20 20q293 0 464.5 18t270.5 62q-44 90 -167.5 197t-297.5 205q-32 -9 -61 -9q-65 0 -115.5 46t-50.5 110q0 49 25 172t38 131q343 170 443.5 216t227.5 100t200 83q47 -45 47 -120q0 -60 -33.5 -114.5t-92.5 -85.5t-182 -85t-244 -96.5 t-290 -89.5q180 -47 335.5 -149.5t248 -234t92.5 -247.5q0 -123 -93.5 -212t-289.5 -136t-475 -47zM53 1270q-16 67 -16 94q0 12 4 14l240 118l604 288q33 -25 33 -61l-1 -15q-10 -44 -59 -66q-477 -214 -805 -372z" />
<glyph unicode="&#x6af;" horiz-adv-x="1126" arabic-form="medial" d="M358 313q-34 95 -65 156q-141 158 -205.5 288t-64.5 247q0 56 31.5 114t84.5 84q215 105 408.5 190.5t486.5 204.5q51 -49 51 -120q0 -63 -37 -115.5t-94 -79.5q-187 -91 -360.5 -157.5t-454.5 -159.5q249 -281 356 -382t212.5 -177t210.5 -108t229 -32q20 0 20 -20v-246 q0 -20 -20 -20q-116 0 -206.5 16t-165 49.5t-136 85t-150.5 137.5q-11 -85 -55 -155q-108 -64 -213.5 -98.5t-220.5 -34.5q-20 0 -20 20v246q0 20 20 20q178 0 358 47zM10 1270q-16 67 -16 94q0 12 4 14l240 118l604 288q33 -25 33 -61l-1 -15q-10 -44 -59 -66 q-477 -214 -805 -372z" />
<glyph unicode="&#x6ba;" horiz-adv-x="1444" arabic-form="final" d="M1464 -20q-71 0 -141 28q8 -83 8 -114q0 -160 -96 -297t-262.5 -215t-366.5 -78q-216 0 -329 126.5t-113 368.5q0 125 59 348l107 -26q-33 -111 -33 -191q0 -173 77 -256.5t238 -83.5q197 0 331 51t253 162q-32 70 -68 136t-66 123t-49.5 103.5t-19.5 78.5q0 202 244 317 q14 -104 39 -248q82 -47 188 -47q21 0 21 -20v-246q0 -20 -21 -20z" />
<glyph unicode="&#x6c0;" horiz-adv-x="1122" arabic-form="final" d="M684 51q-103 8 -152.5 17.5t-105.5 27.5q-98 38 -180 96.5t-82 100.5q0 32 40 145t69 152.5t90 91.5t135 100.5t151 85.5l-7 47l-5 48q86 70 131.5 101t118.5 75l-2 -463l2 -346q117 -64 256 -64q20 0 20 -20v-246q0 -20 -20 -20q-144 0 -234 46.5t-108 131.5l-21 90z M758 336q-42 172 -70 315q-131 -45 -211 -91.5t-141 -106.5q60 -43 122 -65t139.5 -35.5t160.5 -16.5zM740 1516l1 10q0 14 -8.5 24.5t-25.5 10.5q-67 0 -117 -95q54 -49 142 -49q59 0 141 19l-12 -152q-154 -42 -233 -73.5t-157 -73.5l-6 137q59 41 105 63q-52 26 -73 55.5 t-21 69.5q0 62 34 118.5t89.5 92t107.5 35.5q54 0 84.5 -34t30.5 -85q0 -23 -8.5 -48t-16.5 -38z" />
<glyph unicode="&#x6c1;" horiz-adv-x="1024" arabic-form="isolated" d="M164 283q0 205 217 422l-10 8q-52 35 -52 125q0 49 20 93.5t54 63.5q135 -43 252 -140t186.5 -220t69.5 -232q0 -44 -28.5 -128.5t-68.5 -154.5t-73 -93q-46 -31 -113 -49.5t-139 -18.5q-136 0 -225.5 91t-89.5 233zM743 279q-36 109 -96.5 191.5t-163.5 162.5 q-139 -144 -139 -268q0 -70 46 -111t116 -41q132 0 237 66z" />
<glyph unicode="&#x6c1;" horiz-adv-x="1038" arabic-form="final" d="M1053 -20q-82 0 -141.5 17.5t-103.5 44t-76 57t-58.5 57t-51 44t-53.5 17.5q-135 0 -327 -237l-78 65q292 490 485 490q47 0 90.5 -32t98.5 -102q54 -70 105 -102.5t110 -32.5q26 0 26 -24v-236q0 -26 -26 -26z" />
<glyph unicode="&#x6c1;" horiz-adv-x="664" arabic-form="initial" d="M418 -492q-56 6 -88.5 44t-32.5 88q0 85 40 175t118 193l73 -45q-86 -119 -86 -215q0 -37 26 -60.5t85 -41.5q-19 -40 -44.5 -69.5t-52 -49t-38.5 -19.5zM0 -20q-20 0 -20 20v246q0 20 20 20q117 0 237 18.5t193 49.5q-32 70 -64 127t-57.5 103.5t-41 84.5t-15.5 70 q0 59 66 130.5t153 113.5l31 -157q69 -326 69 -403q0 -102 -94 -290q-223 -133 -477 -133z" />
<glyph unicode="&#x6c1;" horiz-adv-x="993" arabic-form="medial" d="M471 -567q-134 93 -233 254t-105 319q-59 -26 -133 -26q-20 0 -20 20v246q0 20 20 20q53 0 98.5 29t65.5 76q20 48 60 80.5t88 32.5q54 0 100 -44q-35 -171 -35 -299q0 -124 34 -222.5t115 -219.5q23 168 81.5 299t154.5 199.5t246 68.5q26 0 26 -24v-236q0 -26 -26 -26 q-97 0 -177 -11t-118 -28q-27 -110 -35 -180.5t-10 -196.5zM858 -547q-56 6 -88.5 44t-32.5 87q0 64 14 110t45 102t87 130l73 -45q-73 -97 -73 -188q0 -37 25.5 -60.5t84.5 -42.5q-19 -40 -44 -69.5t-53 -48.5t-38 -19z" />
<glyph unicode="&#x6be;" horiz-adv-x="1176" arabic-form="final" d="M653 -567q-124 88 -214.5 246t-108.5 317q-167 -39 -242 -64l-47 99q50 43 134.5 88.5t158.5 73.5q56 429 512 847l106 -24q7 -91 37 -296q25 -172 25 -243q0 -133 -125.5 -249.5t-345.5 -182.5q9 -71 39 -140t125 -208q18 158 78.5 293.5t156.5 205.5t248 70 q27 0 27 -24v-236q0 -26 -27 -26q-96 0 -174 -10.5t-121 -28.5q-27 -110 -35 -180.5t-10 -196.5zM774 711q-111 -157 -158.5 -255t-66.5 -202q93 23 175.5 51t141.5 76q-58 173 -68.5 216.5t-23.5 113.5z" />
<glyph unicode="&#x6be;" horiz-adv-x="1223" arabic-form="initial" d="M0 -20q-20 0 -20 20v250q0 16 20 16h91l91 2q-76 103 -76 211q0 95 57.5 210.5t139.5 174.5l70 248q196 -48 368 -178.5t275.5 -312t103.5 -361.5q0 -113 -123 -323q-165 5 -312.5 42t-262.5 97q-175 -96 -422 -96zM229 481q86 -94 213 -153l2 2q46 24 77.5 80.5 t31.5 126.5q0 55 -38.5 101t-82.5 46q-122 0 -203 -203zM709 530q0 -151 -76 -268q116 -31 352 -63q-58 163 -131 276t-172 197q27 -72 27 -142z" />
<glyph unicode="&#x6be;" horiz-adv-x="938" arabic-form="medial" d="M805 -33q52 -28 87.5 -76.5t35.5 -97.5q0 -36 -33 -123t-49 -106q-25 -29 -79 -52.5t-132 -23.5q-188 0 -313.5 111.5t-159.5 312.5l-74 -35l-25 111l-63 -8q-20 0 -20 20v246q0 20 20 20q82 0 174 6q41 203 156 399t299 369l106 -24q8 -99 44 -304q30 -175 30 -251 q0 -123 -113 -225q156 30 277 30q26 0 26 -24v-236q0 -26 -26 -26q-86 0 -168 -13zM557 711q-94 -133 -142 -239t-65 -228q194 24 312 121l-30 92q-56 148 -75 254zM412 -20l-56 -7q25 -127 98 -190.5t201 -63.5q45 0 75 10.5t65 32.5q-71 104 -173 161t-210 57z" />
<glyph unicode="&#x6d2;" horiz-adv-x="1268" arabic-form="final" d="M285 -197q245 -69 524 -69q170 0 312.5 12t314.5 43q35 -41 35 -95q0 -65 -44.5 -115.5t-107.5 -59.5q-203 -31 -526 -31q-155 0 -308.5 24t-257.5 60t-104 61q0 28 34 163.5t48 146.5q171 162 446.5 242.5t671.5 80.5q27 0 27 -26v-236q0 -24 -27 -24q-175 0 -335 -13 t-313 -46.5t-390 -117.5z" />
<glyph unicode="&#x6d3;" horiz-adv-x="1235" arabic-form="final" d="M225 -197q245 -69 524 -69q170 0 312.5 12t314.5 43q35 -41 35 -95q0 -65 -44.5 -115.5t-107.5 -59.5q-203 -31 -526 -31q-155 0 -308.5 24t-257.5 60t-104 61q0 28 34 163.5t48 146.5q171 162 446.5 242.5t671.5 80.5q27 0 27 -26v-236q0 -24 -27 -24q-175 0 -335 -13 t-313 -46.5t-390 -117.5zM539 665l1 10q0 14 -8.5 24.5t-25.5 10.5q-67 0 -117 -95q54 -49 142 -49q59 0 141 19l-12 -152q-154 -42 -233 -73.5t-157 -73.5l-6 137q59 41 105 63q-52 26 -73 55.5t-21 69.5q0 62 34 118.5t89.5 92t107.5 35.5q54 0 84.5 -34t30.5 -85 q0 -23 -8.5 -48t-16.5 -38z" />
<glyph unicode="&#x6d0;" horiz-adv-x="858" arabic-form="initial" d="M0 -20q-20 0 -20 20v246q0 20 20 20q183 0 351.5 18t242.5 50q-32 70 -64 127t-57.5 103.5t-41 84.5t-15.5 70q0 59 66 130.5t153 113.5l31 -157q69 -326 69 -403q0 -102 -94 -290q-101 -61 -281 -97t-360 -36zM587 -814q-61 -94 -184 -211q-131 104 -205 191 q70 62 158 159l43 47q71 -77 188 -186zM528 -402q-65 -99 -182 -211q-135 105 -205 188q87 81 198 209q53 -56 189 -186z" />
<glyph unicode="&#x6d0;" horiz-adv-x="868" arabic-form="medial" d="M0 -20q-20 0 -20 20v246q0 20 20 20q175 0 247.5 9t118 29t69 51.5t76.5 139.5q36 75 64.5 95t69.5 20q59 0 96 -35q-23 -54 -49 -118t-57 -129q117 -62 254 -62q20 0 20 -20v-246q0 -20 -20 -20q-91 0 -176 39t-172 126q-25 -42 -56 -77q-34 -39 -173.5 -63.5 t-311.5 -24.5zM637 -811q-61 -94 -184 -211q-131 104 -205 191q70 62 158 159l43 47q71 -77 188 -186zM578 -399q-65 -99 -182 -211q-135 105 -205 188q87 81 198 209q53 -56 189 -186z" />
<glyph unicode="&#x649;" horiz-adv-x="694" arabic-form="initial" d="M0 -20q-20 0 -20 20v246q0 20 20 20q117 0 237 18.5t193 49.5q-32 70 -64 127t-57.5 103.5t-41 84.5t-15.5 70q0 59 66 130.5t153 113.5l31 -157q69 -326 69 -403q0 -102 -94 -290q-223 -133 -477 -133z" />
<glyph unicode="&#x649;" horiz-adv-x="705" arabic-form="medial" d="M0 -20q-20 0 -20 20v246q0 20 20 20q154 0 236 56q34 23 75 104q64 125 80 145t40 29.5t50 9.5q60 0 97 -35q-90 -212 -107 -247q117 -62 254 -62q20 0 20 -20v-246q0 -20 -20 -20q-183 0 -348 165q-18 -29 -46.5 -65.5t-78.5 -58t-113.5 -31.5t-138.5 -10z" />
<glyph unicode="&#x6cc;" horiz-adv-x="1663" arabic-form="final" d="M1468 -240q-127 51 -284.5 148t-157.5 133q0 25 21 78.5t58.5 119.5t47.5 66q213 -39 524 -39q27 0 27 -26v-236q0 -24 -27 -24q-68 0 -175 10t-191 30l74 -36q100 -45 137.5 -66.5t53 -55t15.5 -98.5q0 -101 -137 -209t-353.5 -179.5t-412.5 -71.5q-257 0 -390.5 127 t-133.5 368q0 125 59 348l107 -26q-33 -111 -33 -191q0 -170 102.5 -255t315.5 -85q211 0 420 45.5t333 124.5z" />
<glyph unicode="&#x6cc;" horiz-adv-x="846" arabic-form="initial" d="M-11 -20q-20 0 -20 20v246q0 20 20 20q183 0 351.5 18t242.5 50q-32 70 -64 127t-57.5 103.5t-41 84.5t-15.5 70q0 59 66 130.5t153 113.5l31 -157q69 -326 69 -403q0 -102 -94 -290q-101 -61 -281 -97t-360 -36zM284 -433q-61 -94 -184 -211q-129 102 -205 190 q54 50 107 107t94 100q71 -77 188 -186zM685 -388q-65 -99 -182 -211q-130 101 -205 188q92 86 199 209q77 -80 188 -186z" />
<glyph unicode="&#x6cc;" horiz-adv-x="868" arabic-form="medial" d="M0 -20q-20 0 -20 20v246q0 20 20 20q175 0 247.5 9t118 29t69 51.5t76.5 139.5q36 75 64.5 95t69.5 20q59 0 96 -35q-23 -54 -49 -118t-57 -129q117 -62 254 -62q20 0 20 -20v-246q0 -20 -20 -20q-91 0 -176 39t-172 126q-25 -42 -56 -77q-34 -39 -173.5 -63.5 t-311.5 -24.5zM384 -433q-61 -94 -184 -211q-129 102 -205 190q54 50 107 107t94 100q71 -77 188 -186zM785 -388q-65 -99 -182 -211q-130 101 -205 188q92 86 199 209q77 -80 188 -186z" />
<glyph unicode="&#xfc5e;" arabic-form="isolated" d="M385 1409q22 -43 37.5 -98.5t15.5 -91.5q0 -69 -46.5 -126t-112.5 -57q-50 0 -89 41q-24 -46 -60.5 -73t-76.5 -27q-57 0 -94 36.5t-37 104.5q0 66 37 133l51 -10q-8 -42 -8 -78q0 -67 57 -67q28 0 46 19.5t18 53.5l-4 99l80 49q10 -91 33 -126.5t67 -35.5q14 0 27 8 t18 19q-14 42 -43 100q-5 12 -5 25q0 35 28.5 67t60.5 35zM-38 1344q-7 0 -52.5 31t-45.5 37l3 11q15 50 15 77q0 32 -31 32q-22 0 -90 -41l-37 43q48 63 91.5 95t74.5 32q39 0 66 -28.5t27 -69.5q0 -46 -9 -80q100 28 150 60q-45 23 -77 60.5t-32 86.5q0 72 61 139.5 t126 67.5q50 0 84 -60.5t34 -152.5q0 -40 -12 -80q27 -4 82 -4q0 -94 -125 -94h-26q-71 -68 -150.5 -115t-126.5 -47zM110 1727q0 -64 102 -98q12 27 12 47q0 35 -17.5 65.5t-41.5 30.5q-18 0 -36.5 -15.5t-18.5 -29.5z" />
<glyph unicode="&#xfc5f;" arabic-form="isolated" d="M385 1409q22 -43 37.5 -98.5t15.5 -91.5q0 -69 -46.5 -126t-112.5 -57q-50 0 -89 41q-24 -46 -60.5 -73t-76.5 -27q-57 0 -94 36.5t-37 104.5q0 66 37 133l51 -10q-8 -42 -8 -78q0 -67 57 -67q28 0 46 19.5t18 53.5l-4 99l80 49q10 -91 33 -126.5t67 -35.5q14 0 27 8 t18 19q-14 42 -43 100q-5 12 -5 25q0 35 28.5 67t60.5 35zM549 793q6 -27 6 -50q0 -74 -72 -108q-184 -85 -483 -176l16 148q264 75 533 186zM514 1014q5 -20 5 -39q0 -43 -22 -77.5t-59 -51.5q-199 -84 -469 -160l12 142q305 93 533 186z" />
<glyph unicode="&#xfc60;" arabic-form="isolated" d="M385 1409q22 -43 37.5 -98.5t15.5 -91.5q0 -69 -46.5 -126t-112.5 -57q-50 0 -89 41q-24 -46 -60.5 -73t-76.5 -27q-57 0 -94 36.5t-37 104.5q0 66 37 133l51 -10q-8 -42 -8 -78q0 -67 57 -67q28 0 46 19.5t18 53.5l-4 99l80 49q10 -91 33 -126.5t67 -35.5q14 0 27 8 t18 19q-14 42 -43 100q-5 12 -5 25q0 35 28.5 67t60.5 35zM389 1680q6 -27 6 -51q0 -32 -16 -65.5t-56 -51.5q-173 -81 -483 -176l18 157q249 71 531 187z" />
<glyph unicode="&#xfc61;" arabic-form="isolated" d="M385 1409q22 -43 37.5 -98.5t15.5 -91.5q0 -69 -46.5 -126t-112.5 -57q-50 0 -89 41q-24 -46 -60.5 -73t-76.5 -27q-57 0 -94 36.5t-37 104.5q0 66 37 133l51 -10q-8 -42 -8 -78q0 -67 57 -67q28 0 46 19.5t18 53.5l-4 99l80 49q10 -91 33 -126.5t67 -35.5q14 0 27 8 t18 19q-14 42 -43 100q-5 12 -5 25q0 35 28.5 67t60.5 35zM-166 1460q159 26 268 91q-107 57 -107 147q0 72 61 139.5t126 67.5q50 0 84 -60.5t34 -152.5q0 -40 -12 -80q27 -4 82 -4q0 -94 -125 -94h-26q-71 -68 -150.5 -115t-126.5 -47q-108 0 -108 108zM90 1735 q0 -64 102 -98q12 27 12 47q0 40 -18.5 68t-40.5 28q-18 0 -36.5 -15.5t-18.5 -29.5z" />
<glyph unicode="&#xfc62;" arabic-form="isolated" d="M385 1409q22 -43 37.5 -98.5t15.5 -91.5q0 -69 -46.5 -126t-112.5 -57q-50 0 -89 41q-24 -46 -60.5 -73t-76.5 -27q-57 0 -94 36.5t-37 104.5q0 66 37 133l51 -10q-8 -42 -8 -78q0 -67 57 -67q28 0 46 19.5t18 53.5l-4 99l80 49q10 -91 33 -126.5t67 -35.5q14 0 27 8 t18 19q-14 42 -43 100q-5 12 -5 25q0 35 28.5 67t60.5 35zM500 1014q6 -27 6 -51q0 -32 -16 -65.5t-56 -51.5q-173 -81 -483 -176l18 157q249 71 531 187z" />
<glyph unicode="&#xfc63;" arabic-form="isolated" d="M385 1409q22 -43 37.5 -98.5t15.5 -91.5q0 -69 -46.5 -126t-112.5 -57q-50 0 -89 41q-24 -46 -60.5 -73t-76.5 -27q-57 0 -94 36.5t-37 104.5q0 66 37 133l51 -10q-8 -42 -8 -78q0 -67 57 -67q28 0 46 19.5t18 53.5l-4 99l80 49q10 -91 33 -126.5t67 -35.5q14 0 27 8 t18 19q-14 42 -43 100q-5 12 -5 25q0 35 28.5 67t60.5 35zM151 1971q23 -120 31 -201t8 -187q0 -58 -22.5 -118.5t-63.5 -108.5l-26 10q0 221 -45 401q-9 33 -9 58q0 43 36 84t91 62z" />
<glyph unicode="&#xfdfc;" horiz-adv-x="2435" arabic-form="isolated" d="M1126 315q-113 -150 -205.5 -217t-172.5 -67q-324 0 -324 456q0 182 115 449l123 -39q-74 -192 -74 -328q0 -114 36 -183t101 -69q86 0 167 59t187 206l-4 24l-48 282l-93 560l-4 47q0 102 77.5 174t182.5 72q33 -121 47 -163t49 -134l-76 -60q21 -272 50 -550 q91 122 157 194l-61 614l286 160l-12 -573q130 88 271 88q91 0 153 -58t62 -141q0 -35 -15 -72.5t-38 -66.5t-35 -29q-28 50 -68 70t-98 20q-125 0 -236 -79q-4 -312 -4 -627q57 -38 118.5 -53t145.5 -15q138 0 248 47q-32 71 -63.5 123.5t-56.5 93.5t-40.5 74.5t-15.5 65.5 q0 60 66.5 130.5t152.5 112.5l30 -152q40 -185 54 -261.5t14 -116.5q0 -103 -94 -291q-81 -49 -178.5 -80.5t-161.5 -31.5q-143 0 -222.5 50t-98.5 167q-37 211 -76 579q-70 -85 -154 -219q16 -153 28.5 -283.5t12.5 -236.5q0 -160 -96 -297t-262.5 -215t-366.5 -78 q-216 0 -329 126.5t-113 369.5q0 125 59 348l107 -27q-33 -108 -33 -190q0 -173 77 -256.5t238 -83.5q197 0 331 51t253 162zM1911 -362q-60 -91 -185 -211q-136 110 -204 190q73 67 157 160l43 47q71 -78 189 -186zM2312 -317q-65 -99 -182 -211q-135 105 -205 188 q92 86 199 209q52 -56 188 -186z" />
<glyph unicode="&#xfe70;" arabic-form="isolated" d="M492 1321q6 -27 6 -50q0 -74 -72 -108q-184 -85 -483 -176l16 148q264 75 533 186zM457 1542q5 -20 5 -39q0 -43 -22 -77.5t-59 -51.5q-199 -84 -469 -160l12 142q305 93 533 186z" />
<glyph unicode="&#xfe72;" arabic-form="isolated" d="M45 936q-7 0 -52.5 31t-45.5 37l3 11q15 50 15 77q0 32 -31 32q-22 0 -90 -41l-37 43q48 63 91.5 95t74.5 32q39 0 66 -28.5t27 -69.5q0 -46 -9 -80q100 28 150 60q-45 23 -77 60.5t-32 86.5q0 72 61 139.5t126 67.5q50 0 84 -60.5t34 -152.5q0 -40 -12 -80q27 -4 82 -4 q0 -94 -125 -94h-26q-71 -68 -150.5 -115t-126.5 -47zM193 1319q0 -64 102 -98q12 27 12 47q0 35 -17.5 65.5t-41.5 30.5q-18 0 -36.5 -15.5t-18.5 -29.5z" />
<glyph unicode="&#xfe74;" arabic-form="isolated" d="M492 -342q6 -27 6 -50q0 -74 -72 -108q-184 -85 -483 -176l16 148q264 75 533 186zM457 -121q5 -20 5 -39q0 -43 -22 -77.5t-59 -51.5q-199 -84 -469 -160l12 142q305 93 533 186z" />
<glyph unicode="&#xfe76;" arabic-form="isolated" d="M492 1350q6 -27 6 -51q0 -32 -16 -65.5t-56 -51.5q-173 -81 -483 -176l18 157q249 71 531 187z" />
<glyph unicode="&#xfe78;" arabic-form="isolated" d="M-104 1044q159 26 268 91q-107 57 -107 147q0 72 61 139.5t126 67.5q50 0 84 -60.5t34 -152.5q0 -40 -12 -80q27 -4 82 -4q0 -94 -125 -94h-26q-71 -68 -150.5 -115t-126.5 -47q-108 0 -108 108zM152 1319q0 -64 102 -98q12 27 12 47q0 40 -18.5 68t-40.5 28 q-18 0 -36.5 -15.5t-18.5 -29.5z" />
<glyph unicode="&#xfe7a;" arabic-form="isolated" d="M492 -182q6 -27 6 -51q0 -32 -16 -65.5t-56 -51.5q-173 -81 -483 -176l18 157q249 71 531 187z" />
<glyph unicode="&#xfe7c;" arabic-form="isolated" d="M385 1409q22 -43 37.5 -98.5t15.5 -91.5q0 -69 -46.5 -126t-112.5 -57q-50 0 -89 41q-24 -46 -60.5 -73t-76.5 -27q-57 0 -94 36.5t-37 104.5q0 66 37 133l51 -10q-8 -42 -8 -78q0 -67 57 -67q28 0 46 19.5t18 53.5l-4 99l80 49q10 -91 33 -126.5t67 -35.5q14 0 27 8 t18 19q-14 42 -43 100q-5 12 -5 25q0 35 28.5 67t60.5 35z" />
<glyph unicode="&#xfe7e;" arabic-form="isolated" d="M176 1010q-70 0 -115 52.5t-45 131.5q0 62 24 109t62.5 73.5t77.5 26.5q40 0 79.5 -26.5t64 -73.5t24.5 -111q0 -77 -53.5 -129.5t-118.5 -52.5zM266 1194q0 13 -13.5 33.5t-35 34.5t-51.5 14q-26 0 -48 -20t-22 -46q0 -31 22.5 -51t63.5 -20q32 0 58 18.5t26 36.5z" />
<glyph unicode="&#x622;" horiz-adv-x="694" arabic-form="final" d="M435 1462l-6 -229q-15 -500 -15 -899q57 -38 118.5 -53t145.5 -15q21 0 21 -20v-246q0 -20 -21 -20q-159 0 -253.5 55t-112.5 162q-33 190 -62 388t-92 722zM455 1581q-81 0 -154.5 16.5t-156.5 44.5q-99 -32 -178 -73l-54 75q72 77 139 120.5t109 43.5q19 0 50.5 -8 t71.5 -17.5t86.5 -17.5t96.5 -8q48 0 109 15t115 40l47 -69q-68 -74 -146.5 -118t-134.5 -44z" />
<glyph unicode="&#x623;" horiz-adv-x="694" arabic-form="final" d="M471 1462l-6 -229q-15 -500 -15 -899q57 -38 118.5 -53t145.5 -15q21 0 21 -20v-246q0 -20 -21 -20q-159 0 -253.5 55t-112.5 162q-33 190 -62 388t-92 722zM393 1800l1 7q0 28 -38 28q-66 0 -104 -74q55 -55 148 -55q51 0 118 14l-12 -133q-104 -24 -180 -50.5 t-187 -84.5l-8 125l109 64q-97 37 -97 116q0 52 33.5 109.5t84 94t93.5 36.5q111 0 111 -135q0 -39 -14 -72z" />
<glyph unicode="&#x624;" horiz-adv-x="1176" arabic-form="final" d="M1049 -20q-59 -219 -218.5 -355.5t-359.5 -136.5q-48 0 -155.5 62t-192.5 135l39 100q129 -33 264 -33q149 0 273.5 62t193.5 170q-255 11 -364 47.5t-161.5 114t-52.5 196.5q0 138 52.5 267t133.5 205.5t165 76.5q94 0 178.5 -80t145.5 -227.5t77 -317.5h129 q21 0 21 -20v-246q0 -20 -21 -20h-147zM909 268q-48 161 -126 248.5t-171 87.5q-69 0 -119.5 -48t-50.5 -110q0 -133 238 -165q40 -8 229 -13zM604 1348l1 10q0 14 -8.5 24.5t-25.5 10.5q-67 0 -117 -95q54 -49 142 -49q59 0 141 19l-12 -152q-154 -42 -233 -73.5 t-157 -73.5l-6 137q59 41 105 63q-52 26 -73 55.5t-21 69.5q0 62 34 118.5t89.5 92t107.5 35.5q54 0 84.5 -34t30.5 -85q0 -23 -8.5 -48t-16.5 -38z" />
<glyph unicode="&#x625;" horiz-adv-x="694" arabic-form="final" d="M471 1462l-6 -229q-15 -500 -15 -899q57 -38 118.5 -53t145.5 -15q21 0 21 -20v-246q0 -20 -21 -20q-159 0 -253.5 55t-112.5 162q-33 190 -62 388t-92 722zM592 -294l1 7q0 28 -38 28q-66 0 -104 -74q55 -55 148 -55q51 0 118 14l-12 -133q-104 -24 -180 -50.5 t-187 -84.5l-8 125l109 64q-97 37 -97 116q0 52 33.5 109.5t84 94t93.5 36.5q111 0 111 -135q0 -39 -14 -72z" />
<glyph unicode="&#x626;" horiz-adv-x="1663" arabic-form="final" d="M1468 -240q-127 51 -284.5 148t-157.5 133q0 25 21 78.5t58.5 119.5t47.5 66q213 -39 524 -39q27 0 27 -26v-236q0 -24 -27 -24q-68 0 -175 10t-191 30l74 -36q100 -45 137.5 -66.5t53 -55t15.5 -98.5q0 -101 -137 -209t-353.5 -179.5t-412.5 -71.5q-257 0 -390.5 127 t-133.5 368q0 125 59 348l107 -26q-33 -111 -33 -191q0 -170 102.5 -255t315.5 -85q211 0 420 45.5t333 124.5zM959 644l1 10q0 14 -8.5 24.5t-25.5 10.5q-67 0 -117 -95q54 -49 142 -49q59 0 141 19l-12 -152q-154 -42 -233 -73.5t-157 -73.5l-6 137q59 41 105 63 q-52 26 -73 55.5t-21 69.5q0 62 34 118.5t89.5 92t107.5 35.5q54 0 84.5 -34t30.5 -85q0 -23 -8.5 -48t-16.5 -38z" />
<glyph unicode="&#x626;" horiz-adv-x="694" arabic-form="initial" d="M0 -20q-20 0 -20 20v246q0 20 20 20q117 0 237 18.5t193 49.5q-32 70 -64 127t-57.5 103.5t-41 84.5t-15.5 70q0 59 66 130.5t153 113.5l31 -157q69 -326 69 -403q0 -102 -94 -290q-223 -133 -477 -133zM361 1401l1 10q0 14 -8.5 24.5t-25.5 10.5q-67 0 -117 -95 q54 -49 142 -49q59 0 141 19l-12 -152q-154 -42 -233 -73.5t-157 -73.5l-6 137q59 41 105 63q-52 26 -73 55.5t-21 69.5q0 62 34 118.5t89.5 92t107.5 35.5q54 0 84.5 -34t30.5 -85q0 -23 -8.5 -48t-16.5 -38z" />
<glyph unicode="&#x626;" horiz-adv-x="705" arabic-form="medial" d="M0 -20q-20 0 -20 20v246q0 20 20 20q154 0 236 56q34 23 75 104q64 125 80 145t40 29.5t50 9.5q60 0 97 -35q-90 -212 -107 -247q117 -62 254 -62q20 0 20 -20v-246q0 -20 -20 -20q-183 0 -348 165q-18 -29 -46.5 -65.5t-78.5 -58t-113.5 -31.5t-138.5 -10zM383 1107 l1 10q0 14 -8.5 24.5t-25.5 10.5q-67 0 -117 -95q54 -49 142 -49q59 0 141 19l-12 -152q-154 -42 -233 -73.5t-157 -73.5l-6 137q59 41 105 63q-52 26 -73 55.5t-21 69.5q0 62 34 118.5t89.5 92t107.5 35.5q54 0 84.5 -34t30.5 -85q0 -23 -8.5 -48t-16.5 -38z" />
<glyph unicode="&#x627;" horiz-adv-x="694" arabic-form="final" d="M471 1597q-20 -880 -20 -1263q53 -36 114 -52t150 -16q20 0 20 -20v-246q0 -20 -20 -20q-163 0 -256.5 56.5t-110.5 160.5q-97 595 -164 1241z" />
<glyph unicode="&#x628;" horiz-adv-x="1968" arabic-form="final" d="M753 -41q-300 0 -444 132.5t-144 381.5q0 57 16 136.5t31 127.5h108l-3 -26l-5 -93q0 -142 57 -220.5t173.5 -115t298.5 -36.5q257 0 438.5 31t249.5 85q23 20 40.5 46t47.5 90q34 74 61.5 92t66.5 20q60 0 97 -35l-56 -130l-52 -115q119 -64 256 -64q20 0 20 -20v-246 q0 -20 -20 -20q-194 0 -369 184q-68 -59 -191.5 -104.5t-294.5 -73t-382 -27.5zM1237 -384q-73 -108 -199 -226q-150 124 -219 203q145 145 215 225q83 -94 203 -202z" />
<glyph unicode="&#x628;" horiz-adv-x="694" arabic-form="initial" d="M0 -20q-20 0 -20 20v246q0 20 20 20q117 0 237 18.5t193 49.5q-32 70 -64 127t-57.5 103.5t-41 84.5t-15.5 70q0 59 66 130.5t153 113.5l31 -157q69 -326 69 -403q0 -102 -94 -290q-223 -133 -477 -133zM486 -384q-73 -108 -199 -226q-150 124 -219 203q145 145 215 225 q83 -94 203 -202z" />
<glyph unicode="&#x628;" horiz-adv-x="705" arabic-form="medial" d="M0 -20q-20 0 -20 20v246q0 20 20 20q154 0 236 56q34 23 75 104q64 125 80 145t40 29.5t50 9.5q60 0 97 -35q-90 -212 -107 -247q117 -62 254 -62q20 0 20 -20v-246q0 -20 -20 -20q-183 0 -348 165q-18 -29 -46.5 -65.5t-78.5 -58t-113.5 -31.5t-138.5 -10zM548 -384 q-73 -108 -199 -226q-150 124 -219 203q145 145 215 225q83 -94 203 -202z" />
<glyph unicode="&#x629;" horiz-adv-x="1221" arabic-form="final" d="M782 51q-103 8 -152.5 17.5t-105.5 27.5q-98 38 -180 96.5t-82 100.5q0 32 40 145t69 152.5t90 91.5t135 100.5t151 85.5l-7 47l-5 48q86 70 131.5 101t118.5 75l-2 -463l2 -346q117 -64 256 -64q20 0 20 -20v-246q0 -20 -20 -20q-144 0 -234 46.5t-108 131.5l-21 90z M856 336q-42 172 -70 315q-131 -45 -211 -91.5t-141 -106.5q60 -43 122 -65t139.5 -35.5t160.5 -16.5zM553 1440q-61 -94 -184 -211q-129 102 -205 190q54 50 107 107t94 100q71 -77 188 -186zM954 1485q-65 -99 -182 -211q-130 101 -205 188q92 86 199 209q77 -80 188 -186 z" />
<glyph unicode="&#x62a;" horiz-adv-x="1968" arabic-form="final" d="M753 -41q-300 0 -444 132.5t-144 381.5q0 57 16 136.5t31 127.5h108l-3 -26l-5 -93q0 -142 57 -220.5t173.5 -115t298.5 -36.5q257 0 438.5 31t249.5 85q23 20 40.5 46t47.5 90q34 74 61.5 92t66.5 20q60 0 97 -35l-56 -130l-52 -115q119 -64 256 -64q20 0 20 -20v-246 q0 -20 -20 -20q-194 0 -369 184q-68 -59 -191.5 -104.5t-294.5 -73t-382 -27.5zM991 912q-61 -94 -184 -211q-129 102 -205 190q54 50 107 107t94 100q71 -77 188 -186zM1392 957q-65 -99 -182 -211q-130 101 -205 188q92 86 199 209q77 -80 188 -186z" />
<glyph unicode="&#x62a;" horiz-adv-x="758" arabic-form="initial" d="M296 1305q-61 -94 -184 -211q-129 102 -205 190q54 50 107 107t94 100q71 -77 188 -186zM697 1350q-65 -99 -182 -211q-130 101 -205 188q92 86 199 209q77 -80 188 -186zM0 -20q-20 0 -20 20v246q0 20 20 20q117 0 237 18.5t193 49.5q-32 70 -64 127t-57.5 103.5 t-41 84.5t-15.5 70q0 59 66 130.5t153 113.5l31 -157q69 -326 69 -403q0 -102 -94 -290q-223 -133 -477 -133z" />
<glyph unicode="&#x62a;" horiz-adv-x="868" arabic-form="medial" d="M0 -20q-20 0 -20 20v246q0 20 20 20q175 0 247.5 9t118 29t69 51.5t76.5 139.5q36 75 64.5 95t69.5 20q59 0 96 -35q-23 -54 -49 -118t-57 -129q117 -62 254 -62q20 0 20 -20v-246q0 -20 -20 -20q-91 0 -176 39t-172 126q-25 -42 -56 -77q-34 -39 -173.5 -63.5 t-311.5 -24.5zM398 1005q-61 -94 -184 -211q-129 102 -205 190q54 50 107 107t94 100q71 -77 188 -186zM799 1050q-65 -99 -182 -211q-130 101 -205 188q92 86 199 209q77 -80 188 -186z" />
<glyph unicode="&#x62b;" horiz-adv-x="1968" arabic-form="final" d="M753 -41q-300 0 -444 132.5t-144 381.5q0 57 16 136.5t31 127.5h108l-3 -26l-5 -93q0 -142 57 -220.5t173.5 -115t298.5 -36.5q257 0 438.5 31t249.5 85q23 20 40.5 46t47.5 90q34 74 61.5 92t66.5 20q60 0 97 -35l-56 -130l-52 -115q119 -64 256 -64q20 0 20 -20v-246 q0 -20 -20 -20q-194 0 -369 184q-68 -59 -191.5 -104.5t-294.5 -73t-382 -27.5zM1177 1199q-116 -130 -178 -170q-43 27 -99 74.5t-96 95.5q99 88 185 188q70 -91 188 -188zM972 906q-69 -101 -184 -209q-130 103 -205 188q79 73 158 160l43 47q63 -69 188 -186zM1415 951 q-70 -104 -183 -209q-132 103 -204 188q66 61 198 207q53 -56 189 -186z" />
<glyph unicode="&#x62b;" horiz-adv-x="778" arabic-form="initial" d="M0 -20q-20 0 -20 20v246q0 20 20 20q117 0 237 18.5t193 49.5q-32 70 -64 127t-57.5 103.5t-41 84.5t-15.5 70q0 59 66 130.5t153 113.5l31 -157q69 -326 69 -403q0 -102 -94 -290q-223 -133 -477 -133zM480 1571q-116 -130 -178 -170q-43 27 -99 74.5t-96 95.5 q99 88 185 188q70 -91 188 -188zM275 1278q-69 -101 -184 -209q-130 103 -205 188q79 73 158 160l43 47q63 -69 188 -186zM718 1323q-70 -104 -183 -209q-132 103 -204 188q66 61 198 207q53 -56 189 -186z" />
<glyph unicode="&#x62b;" horiz-adv-x="868" arabic-form="medial" d="M0 -20q-20 0 -20 20v246q0 20 20 20q175 0 247.5 9t118 29t69 51.5t76.5 139.5q36 75 64.5 95t69.5 20q59 0 96 -35q-23 -54 -49 -118t-57 -129q117 -62 254 -62q20 0 20 -20v-246q0 -20 -20 -20q-91 0 -176 39t-172 126q-25 -42 -56 -77q-34 -39 -173.5 -63.5 t-311.5 -24.5zM582 1296q-116 -130 -178 -170q-43 27 -99 74.5t-96 95.5q99 88 185 188q70 -91 188 -188zM377 1003q-69 -101 -184 -209q-130 103 -205 188q79 73 158 160l43 47q63 -69 188 -186zM820 1048q-70 -104 -183 -209q-132 103 -204 188q66 61 198 207 q53 -56 189 -186z" />
<glyph unicode="&#x62c;" horiz-adv-x="1745" arabic-form="final" d="M494 567q-48 0 -85 -7t-70 -20.5t-120 -66.5q-21 21 -38 64.5t-17 80.5q0 112 87.5 174t233.5 62q79 0 164 -19.5t222 -69.5q124 -46 222 -67.5t197 -21.5h48q119 0 171 4l-98 -270q-48 -9 -178 -9h-57q34 -63 80 -89t133.5 -36t375.5 -10q21 0 21 -20v-246 q0 -20 -21 -20q-211 0 -314 18.5t-171 60t-121 118.5t-104 214q-187 -49 -349 -148.5t-245.5 -214.5t-83.5 -233q0 -175 149 -277t379 -102q174 0 461 66l33 -103q-272 -160 -363 -199.5t-145 -39.5q-637 0 -637 629q0 221 137 418t365 311q-76 28 -140 48.5t-122 20.5z M1044 -77q-73 -108 -199 -226q-150 124 -219 203q145 145 215 225q83 -94 203 -202z" />
<glyph unicode="&#x62c;" horiz-adv-x="1563" arabic-form="initial" d="M0 -20q-20 0 -20 20v246q0 20 20 20q214 0 286.5 4.5t134 14t116.5 26.5q191 59 294 80q-59 31 -105.5 62t-88 56.5t-83 41.5t-89.5 16q-71 0 -131 -18t-154 -76q-21 21 -38 64.5t-17 80.5q0 70 43.5 123t121 83t167.5 30q75 0 147.5 -27t160.5 -86q78 -53 145 -90 t117 -57t128.5 -42t150.5 -30t175 -8l-123 -256q-159 12 -246 33q-89 -17 -175.5 -55.5t-186.5 -100.5q-76 -46 -140.5 -75t-132.5 -46.5t-150.5 -25.5t-326.5 -8zM938 -312q-73 -108 -199 -226q-150 124 -219 203q145 145 215 225q83 -94 203 -202z" />
<glyph unicode="&#x62c;" horiz-adv-x="1583" arabic-form="medial" d="M0 -20q-20 0 -20 20v246q0 20 20 20q214 0 286.5 4.5t134 14t116.5 26.5q191 59 294 80q-59 31 -105.5 62t-88 56.5t-83 41.5t-89.5 16q-71 0 -131 -18t-154 -76q-21 21 -38 64.5t-17 80.5q0 70 43.5 123t121 83t167.5 30q75 0 147.5 -27t160.5 -86q78 -53 145 -90 t117 -57t128.5 -42t150.5 -30t175 -8l-117 -240q60 -8 240 -8q20 0 20 -20v-246q0 -20 -20 -20q-204 0 -345 35.5t-141 82.5q0 53 33 185l-39 8q-89 -17 -175.5 -55.5t-186.5 -100.5q-76 -46 -140.5 -75t-132.5 -46.5t-150.5 -25.5t-326.5 -8zM938 -312q-73 -108 -199 -226 q-150 124 -219 203q145 145 215 225q83 -94 203 -202z" />
<glyph unicode="&#x62d;" horiz-adv-x="1745" arabic-form="final" d="M494 567q-48 0 -85 -7t-70 -20.5t-120 -66.5q-21 21 -38 64.5t-17 80.5q0 112 87.5 174t233.5 62q79 0 164 -19.5t222 -69.5q124 -46 222 -67.5t197 -21.5h48q119 0 171 4l-98 -270q-48 -9 -178 -9h-57q34 -63 80 -89t133.5 -36t375.5 -10q21 0 21 -20v-246 q0 -20 -21 -20q-211 0 -314 18.5t-171 60t-121 118.5t-104 214q-187 -49 -349 -148.5t-245.5 -214.5t-83.5 -233q0 -175 149 -277t379 -102q174 0 461 66l33 -103q-272 -160 -363 -199.5t-145 -39.5q-637 0 -637 629q0 221 137 418t365 311q-76 28 -140 48.5t-122 20.5z" />
<glyph unicode="&#x62d;" horiz-adv-x="1563" arabic-form="initial" d="M0 -20q-20 0 -20 20v246q0 20 20 20q214 0 286.5 4.5t134 14t116.5 26.5q191 59 294 80q-59 31 -105.5 62t-88 56.5t-83 41.5t-89.5 16q-71 0 -131 -18t-154 -76q-21 21 -38 64.5t-17 80.5q0 70 43.5 123t121 83t167.5 30q75 0 147.5 -27t160.5 -86q78 -53 145 -90 t117 -57t128.5 -42t150.5 -30t175 -8l-123 -256q-159 12 -246 33q-89 -17 -175.5 -55.5t-186.5 -100.5q-76 -46 -140.5 -75t-132.5 -46.5t-150.5 -25.5t-326.5 -8z" />
<glyph unicode="&#x62d;" horiz-adv-x="1583" arabic-form="medial" d="M0 -20q-20 0 -20 20v246q0 20 20 20q214 0 286.5 4.5t134 14t116.5 26.5q191 59 294 80q-59 31 -105.5 62t-88 56.5t-83 41.5t-89.5 16q-71 0 -131 -18t-154 -76q-21 21 -38 64.5t-17 80.5q0 70 43.5 123t121 83t167.5 30q75 0 147.5 -27t160.5 -86q78 -53 145 -90 t117 -57t128.5 -42t150.5 -30t175 -8l-117 -240q60 -8 240 -8q20 0 20 -20v-246q0 -20 -20 -20q-204 0 -345 35.5t-141 82.5q0 53 33 185l-39 8q-89 -17 -175.5 -55.5t-186.5 -100.5q-76 -46 -140.5 -75t-132.5 -46.5t-150.5 -25.5t-326.5 -8z" />
<glyph unicode="&#x62e;" horiz-adv-x="1745" arabic-form="final" d="M494 567q-48 0 -85 -7t-70 -20.5t-120 -66.5q-21 21 -38 64.5t-17 80.5q0 112 87.5 174t233.5 62q79 0 164 -19.5t222 -69.5q124 -46 222 -67.5t197 -21.5h48q119 0 171 4l-98 -270q-48 -9 -178 -9h-57q34 -63 80 -89t133.5 -36t375.5 -10q21 0 21 -20v-246 q0 -20 -21 -20q-211 0 -314 18.5t-171 60t-121 118.5t-104 214q-187 -49 -349 -148.5t-245.5 -214.5t-83.5 -233q0 -175 149 -277t379 -102q174 0 461 66l33 -103q-272 -160 -363 -199.5t-145 -39.5q-637 0 -637 629q0 221 137 418t365 311q-76 28 -140 48.5t-122 20.5z M1180 1186q-73 -108 -199 -226q-150 124 -219 203q145 145 215 225q83 -94 203 -202z" />
<glyph unicode="&#x62e;" horiz-adv-x="1563" arabic-form="initial" d="M0 -20q-20 0 -20 20v246q0 20 20 20q214 0 286.5 4.5t134 14t116.5 26.5q191 59 294 80q-59 31 -105.5 62t-88 56.5t-83 41.5t-89.5 16q-71 0 -131 -18t-154 -76q-21 21 -38 64.5t-17 80.5q0 70 43.5 123t121 83t167.5 30q75 0 147.5 -27t160.5 -86q78 -53 145 -90 t117 -57t128.5 -42t150.5 -30t175 -8l-123 -256q-159 12 -246 33q-89 -17 -175.5 -55.5t-186.5 -100.5q-76 -46 -140.5 -75t-132.5 -46.5t-150.5 -25.5t-326.5 -8zM1159 1188q-73 -108 -199 -226q-150 124 -219 203q145 145 215 225q83 -94 203 -202z" />
<glyph unicode="&#x62e;" horiz-adv-x="1583" arabic-form="medial" d="M0 -20q-20 0 -20 20v246q0 20 20 20q214 0 286.5 4.5t134 14t116.5 26.5q191 59 294 80q-59 31 -105.5 62t-88 56.5t-83 41.5t-89.5 16q-71 0 -131 -18t-154 -76q-21 21 -38 64.5t-17 80.5q0 70 43.5 123t121 83t167.5 30q75 0 147.5 -27t160.5 -86q78 -53 145 -90 t117 -57t128.5 -42t150.5 -30t175 -8l-117 -240q60 -8 240 -8q20 0 20 -20v-246q0 -20 -20 -20q-204 0 -345 35.5t-141 82.5q0 53 33 185l-39 8q-89 -17 -175.5 -55.5t-186.5 -100.5q-76 -46 -140.5 -75t-132.5 -46.5t-150.5 -25.5t-326.5 -8zM1159 1188q-73 -108 -199 -226 q-150 124 -219 203q145 145 215 225q83 -94 203 -202z" />
<glyph unicode="&#x62f;" horiz-adv-x="1169" arabic-form="final" d="M1190 -20q-96 0 -162 28.5t-119 81.5q-275 -131 -503 -131q-324 0 -324 188q0 51 19 103t53 92q59 -50 136.5 -73t190.5 -23q149 0 291 33q-80 134 -143.5 290t-63.5 234q0 91 44 154t124 87q72 -304 148 -491t135 -237t174 -50q20 0 20 -20v-246q0 -20 -20 -20z" />
<glyph unicode="&#x630;" horiz-adv-x="1169" arabic-form="final" d="M1190 -20q-96 0 -162 28.5t-119 81.5q-275 -131 -503 -131q-324 0 -324 188q0 51 19 103t53 92q59 -50 136.5 -73t190.5 -23q149 0 291 33q-80 134 -143.5 290t-63.5 234q0 91 44 154t124 87q72 -304 148 -491t135 -237t174 -50q20 0 20 -20v-246q0 -20 -20 -20z M758 1405q-73 -108 -199 -226q-150 124 -219 203q145 145 215 225q83 -94 203 -202z" />
<glyph unicode="&#x631;" horiz-adv-x="952" arabic-form="final" d="M973 -20q-95 0 -178 47q-44 -246 -194 -392.5t-355 -146.5q-45 0 -140 58.5t-188 138.5l39 100q129 -33 244 -33q177 0 301 89.5t178 256.5q-21 44 -40 76t-91 144q-68 104 -100.5 178.5t-32.5 132.5q0 70 57 139.5t145 112.5q23 -97 90 -291q62 -180 83 -281 q79 -43 182 -43q20 0 20 -20v-246q0 -20 -20 -20z" />
<glyph unicode="&#x632;" horiz-adv-x="952" arabic-form="final" d="M973 -20q-95 0 -178 47q-44 -246 -194 -392.5t-355 -146.5q-45 0 -140 58.5t-188 138.5l39 100q129 -33 244 -33q177 0 301 89.5t178 256.5q-21 44 -40 76t-91 144q-68 104 -100.5 178.5t-32.5 132.5q0 70 57 139.5t145 112.5q23 -97 90 -291q62 -180 83 -281 q79 -43 182 -43q20 0 20 -20v-246q0 -20 -20 -20zM535 1264q-73 -108 -199 -226q-150 124 -219 203q145 145 215 225q83 -94 203 -202z" />
<glyph unicode="&#x633;" horiz-adv-x="2503" arabic-form="final" d="M2523 -20q-99 0 -198 42t-156 103q-36 -87 -45 -100q-19 -29 -89 -47.5t-173 -18.5q-35 0 -93 16.5t-102 34.5q-35 -22 -119 -36.5t-170 -14.5l-51 4l4 -69q0 -160 -96 -297t-262.5 -215t-366.5 -78q-216 0 -329 126.5t-113 368.5q0 125 59 348l107 -26 q-33 -111 -33 -191q0 -173 77 -256.5t238 -83.5q197 0 331 51t253 162q-32 70 -68 136t-66 123t-49.5 103.5t-19.5 78.5q0 202 244 317q10 -81 51 -311l103 -4q62 0 93.5 5.5t78.5 20.5q28 50 101 244l32 82q12 30 44 51t73 21q46 0 85 -27q-28 -70 -97 -296l-34 -109l37 -2 h29q89 0 172 26q28 46 106 270l33 86q13 30 44.5 51t74.5 21q45 0 84 -24q-31 -78 -80 -242l-29 -94q57 -35 123.5 -49.5t161.5 -14.5q21 0 21 -20v-246q0 -20 -21 -20z" />
<glyph unicode="&#x633;" horiz-adv-x="1686" arabic-form="initial" d="M1462 -41q-153 0 -306.5 35t-268.5 88l-29 -57q-16 -27 -110.5 -46.5t-192.5 -19.5q-120 0 -279 76q-43 -22 -115.5 -38.5t-160.5 -16.5q-20 0 -20 20v246q0 20 20 20q107 0 164 13.5t92.5 48t82.5 116.5l38 66q16 26 42 43t58 17q37 0 74 -25q-28 -68 -56.5 -144 t-60.5 -147q54 -8 133 -8q62 0 92.5 5t79.5 21q27 45 102 244l31 82q13 30 43.5 51t73.5 21q47 0 86 -27q-30 -71 -75 -223l-27 -88q93 -47 205 -71t245 -38q-32 71 -64.5 132.5t-58 113t-41.5 94t-16 74.5q0 59 66 130.5t153 113.5l31 -160q70 -345 70 -420 q0 -55 -30.5 -158.5t-70.5 -183.5z" />
<glyph unicode="&#x633;" horiz-adv-x="1679" arabic-form="medial" d="M477 570q37 0 74 -25q-28 -68 -56.5 -144t-60.5 -147q54 -8 133 -8q62 0 92.5 5t79.5 21q27 45 102 244l31 82q13 30 43.5 51t73.5 21q47 0 86 -27q-38 -93 -97 -296l-34 -109l36 -2h30q89 0 172 26q28 46 106 270l33 86q13 30 44.5 51t74.5 21q45 0 84 -24 q-31 -77 -80 -242l-29 -94q57 -35 123.5 -49.5t161.5 -14.5q20 0 20 -20v-246q0 -20 -20 -20q-99 0 -198 42t-156 103q-34 -82 -46 -100q-19 -31 -92.5 -48.5t-169.5 -17.5q-34 0 -90.5 15.5t-103.5 35.5q-35 -22 -119 -36.5t-170 -14.5q-120 0 -279 76 q-43 -22 -115.5 -38.5t-160.5 -16.5q-20 0 -20 20v246q0 20 20 20q107 0 164 13.5t92.5 48t82.5 116.5l38 66q16 26 42 43t58 17z" />
<glyph unicode="&#x634;" horiz-adv-x="2503" arabic-form="final" d="M2523 -20q-99 0 -198 42t-156 103q-36 -87 -45 -100q-19 -29 -89 -47.5t-173 -18.5q-35 0 -93 16.5t-102 34.5q-35 -22 -119 -36.5t-170 -14.5l-51 4l4 -69q0 -160 -96 -297t-262.5 -215t-366.5 -78q-216 0 -329 126.5t-113 368.5q0 125 59 348l107 -26 q-33 -111 -33 -191q0 -173 77 -256.5t238 -83.5q197 0 331 51t253 162q-32 70 -68 136t-66 123t-49.5 103.5t-19.5 78.5q0 202 244 317q10 -81 51 -311l103 -4q62 0 93.5 5.5t78.5 20.5q28 50 101 244l32 82q12 30 44 51t73 21q46 0 85 -27q-28 -70 -97 -296l-34 -109l37 -2 h29q89 0 172 26q28 46 106 270l33 86q13 30 44.5 51t74.5 21q45 0 84 -24q-31 -78 -80 -242l-29 -94q57 -35 123.5 -49.5t161.5 -14.5q21 0 21 -20v-246q0 -20 -21 -20zM1890 1348q-116 -130 -178 -170q-43 27 -99 74.5t-96 95.5q99 88 185 188q70 -91 188 -188zM1685 1055 q-69 -101 -184 -209q-130 103 -205 188q79 73 158 160l43 47q63 -69 188 -186zM2128 1100q-70 -104 -183 -209q-132 103 -204 188q66 61 198 207q53 -56 189 -186z" />
<glyph unicode="&#x634;" horiz-adv-x="1686" arabic-form="initial" d="M1462 -41q-153 0 -306.5 35t-268.5 88l-29 -57q-16 -27 -110.5 -46.5t-192.5 -19.5q-120 0 -279 76q-43 -22 -115.5 -38.5t-160.5 -16.5q-20 0 -20 20v246q0 20 20 20q107 0 164 13.5t92.5 48t82.5 116.5l38 66q16 26 42 43t58 17q37 0 74 -25q-28 -68 -56.5 -144 t-60.5 -147q54 -8 133 -8q62 0 92.5 5t79.5 21q27 45 102 244l31 82q13 30 43.5 51t73.5 21q47 0 86 -27q-30 -71 -75 -223l-27 -88q93 -47 205 -71t245 -38q-32 71 -64.5 132.5t-58 113t-41.5 94t-16 74.5q0 59 66 130.5t153 113.5l31 -160q70 -345 70 -420 q0 -55 -30.5 -158.5t-70.5 -183.5zM887 1348q-116 -130 -178 -170q-43 27 -99 74.5t-96 95.5q99 88 185 188q70 -91 188 -188zM682 1055q-69 -101 -184 -209q-130 103 -205 188q79 73 158 160l43 47q63 -69 188 -186zM1125 1100q-70 -104 -183 -209q-132 103 -204 188 q66 61 198 207q53 -56 189 -186z" />
<glyph unicode="&#x634;" horiz-adv-x="1679" arabic-form="medial" d="M477 570q37 0 74 -25q-28 -68 -56.5 -144t-60.5 -147q54 -8 133 -8q62 0 92.5 5t79.5 21q27 45 102 244l31 82q13 30 43.5 51t73.5 21q47 0 86 -27q-38 -93 -97 -296l-34 -109l36 -2h30q89 0 172 26q28 46 106 270l33 86q13 30 44.5 51t74.5 21q45 0 84 -24 q-31 -77 -80 -242l-29 -94q57 -35 123.5 -49.5t161.5 -14.5q20 0 20 -20v-246q0 -20 -20 -20q-99 0 -198 42t-156 103q-34 -82 -46 -100q-19 -31 -92.5 -48.5t-169.5 -17.5q-34 0 -90.5 15.5t-103.5 35.5q-35 -22 -119 -36.5t-170 -14.5q-120 0 -279 76 q-43 -22 -115.5 -38.5t-160.5 -16.5q-20 0 -20 20v246q0 20 20 20q107 0 164 13.5t92.5 48t82.5 116.5l38 66q16 26 42 43t58 17zM973 1348q-116 -130 -178 -170q-43 27 -99 74.5t-96 95.5q99 88 185 188q70 -91 188 -188zM768 1055q-69 -101 -184 -209q-130 103 -205 188 q79 73 158 160l43 47q63 -69 188 -186zM1211 1100q-70 -104 -183 -209q-132 103 -204 188q66 61 198 207q53 -56 189 -186z" />
<glyph unicode="&#x635;" horiz-adv-x="2859" arabic-form="final" d="M2879 -20q-115 0 -227 52t-194 144q-76 -69 -185 -117t-237.5 -74t-249.5 -26q-110 0 -234 14.5t-229 42.5q8 -85 8 -122q0 -160 -96 -297t-262.5 -215t-366.5 -78q-216 0 -329 126.5t-113 368.5q0 125 59 348l107 -26q-33 -111 -33 -191q0 -173 77 -256.5t238 -83.5 q197 0 331 51t253 162q-32 70 -68 136t-66 123t-49.5 103.5t-19.5 78.5q0 202 244 317q13 -99 39 -254l74 -22q251 330 440 483.5t326 153.5q84 0 196.5 -69.5t201.5 -174.5t89 -176q0 -78 -23 -144q58 -41 128 -66.5t171 -25.5q21 0 21 -20v-246q0 -20 -21 -20zM2056 639 q-208 0 -545 -391q148 -23 299 -23q161 0 306.5 35t347.5 131q-215 248 -408 248z" />
<glyph unicode="&#x635;" horiz-adv-x="1915" arabic-form="initial" d="M461 575q39 0 76 -24l-45 -115l-50 -121q45 -17 97 -30q251 330 440 483.5t326 153.5q84 0 196.5 -69.5t201.5 -174.5t89 -176q0 -156 -99 -276.5t-301.5 -193.5t-416.5 -73q-188 0 -365 35t-288 94l-17 -20q-38 -38 -123.5 -63t-181.5 -25q-20 0 -20 20v246q0 20 20 20 q102 0 149 12t82.5 45.5t83.5 120.5l37 66q16 29 44.5 47t64.5 18zM1245 639q-208 0 -545 -391q148 -23 299 -23q161 0 306.5 35t347.5 131q-215 248 -408 248z" />
<glyph unicode="&#x635;" horiz-adv-x="2038" arabic-form="medial" d="M2058 -20q-118 0 -227.5 51t-190.5 139q-107 -95 -290 -153t-375 -58q-188 0 -365 35t-288 94l-17 -20q-38 -38 -123.5 -63t-181.5 -25q-20 0 -20 20v246q0 20 20 20q102 0 149 12t82.5 45.5t83.5 120.5l37 66q16 29 44.5 47t64.5 18q39 0 76 -24l-45 -115l-50 -121 q45 -17 97 -30q251 330 440 483.5t326 153.5q84 0 196.5 -69.5t201.5 -174.5t89 -176q0 -73 -25 -150q57 -38 125.5 -62t165.5 -24q21 0 21 -20v-246q0 -20 -21 -20zM1245 639q-208 0 -545 -391q148 -23 299 -23q161 0 306.5 35t347.5 131q-215 248 -408 248z" />
<glyph unicode="&#x636;" horiz-adv-x="2859" arabic-form="final" d="M2879 -20q-115 0 -227 52t-194 144q-76 -69 -185 -117t-237.5 -74t-249.5 -26q-110 0 -234 14.5t-229 42.5q8 -85 8 -122q0 -160 -96 -297t-262.5 -215t-366.5 -78q-216 0 -329 126.5t-113 368.5q0 125 59 348l107 -26q-33 -111 -33 -191q0 -173 77 -256.5t238 -83.5 q197 0 331 51t253 162q-32 70 -68 136t-66 123t-49.5 103.5t-19.5 78.5q0 202 244 317q13 -99 39 -254l74 -22q251 330 440 483.5t326 153.5q84 0 196.5 -69.5t201.5 -174.5t89 -176q0 -78 -23 -144q58 -41 128 -66.5t171 -25.5q21 0 21 -20v-246q0 -20 -21 -20zM2056 639 q-208 0 -545 -391q148 -23 299 -23q161 0 306.5 35t347.5 131q-215 248 -408 248zM1855 1237q-73 -108 -199 -226q-150 124 -219 203q145 145 215 225q83 -94 203 -202z" />
<glyph unicode="&#x636;" horiz-adv-x="1915" arabic-form="initial" d="M461 575q39 0 76 -24l-45 -115l-50 -121q45 -17 97 -30q251 330 440 483.5t326 153.5q84 0 196.5 -69.5t201.5 -174.5t89 -176q0 -156 -99 -276.5t-301.5 -193.5t-416.5 -73q-188 0 -365 35t-288 94l-17 -20q-38 -38 -123.5 -63t-181.5 -25q-20 0 -20 20v246q0 20 20 20 q102 0 149 12t82.5 45.5t83.5 120.5l37 66q16 29 44.5 47t64.5 18zM1245 639q-208 0 -545 -391q148 -23 299 -23q161 0 306.5 35t347.5 131q-215 248 -408 248zM1010 1237q-73 -108 -199 -226q-150 124 -219 203q145 145 215 225q83 -94 203 -202z" />
<glyph unicode="&#x636;" horiz-adv-x="2038" arabic-form="medial" d="M2058 -20q-118 0 -227.5 51t-190.5 139q-107 -95 -290 -153t-375 -58q-188 0 -365 35t-288 94l-17 -20q-38 -38 -123.5 -63t-181.5 -25q-20 0 -20 20v246q0 20 20 20q102 0 149 12t82.5 45.5t83.5 120.5l37 66q16 29 44.5 47t64.5 18q39 0 76 -24l-45 -115l-50 -121 q45 -17 97 -30q251 330 440 483.5t326 153.5q84 0 196.5 -69.5t201.5 -174.5t89 -176q0 -73 -25 -150q57 -38 125.5 -62t165.5 -24q21 0 21 -20v-246q0 -20 -21 -20zM1245 639q-208 0 -545 -391q148 -23 299 -23q161 0 306.5 35t347.5 131q-215 248 -408 248zM1020 1237 q-73 -108 -199 -226q-150 124 -219 203q145 145 215 225q83 -94 203 -202z" />
<glyph unicode="&#x637;" horiz-adv-x="2107" arabic-form="final" d="M1051 -41q-137 0 -313 10.5t-234 28.5q-52 15 -159.5 89.5t-180.5 143.5l37 103q259 -61 393 -78q46 64 96 123q-78 337 -188 926q-5 28 -5 55q0 101 70.5 169t173.5 68q42 -152 97 -297l-76 -59l53 -711q180 203 317.5 297.5t247.5 94.5q83 0 196 -69t202.5 -174.5 t89.5 -176.5q0 -81 -27 -152q57 -38 124.5 -61t162.5 -23q20 0 20 -20v-246q0 -20 -20 -20q-113 0 -221.5 48.5t-194.5 139.5q-114 -99 -296 -154t-365 -55zM1321 639q-207 0 -555 -403q108 -11 309 -11q161 0 306.5 35t347.5 131q-215 248 -408 248z" />
<glyph unicode="&#x637;" horiz-adv-x="1669" arabic-form="initial" d="M0 -20q-20 0 -20 20v246q0 20 20 20h107l139 2l100 135q-26 112 -47.5 214t-134.5 688q-5 28 -5 55q0 101 70.5 169t173.5 68q42 -152 97 -297l-76 -59l51 -676q340 398 582 398q76 0 156.5 -34.5t157 -100t126 -139.5t49.5 -118q0 -190 -164.5 -321t-497 -200.5 t-884.5 -69.5zM997 670q-219 0 -561 -398l256 13q215 12 512 96l185 51q-80 91 -142 142t-118.5 73.5t-131.5 22.5z" />
<glyph unicode="&#x637;" horiz-adv-x="1700" arabic-form="medial" d="M0 -20q-20 0 -20 20v246q0 20 20 20h107l139 2l100 135q-26 112 -47.5 214t-134.5 688q-5 28 -5 55q0 101 70.5 169t173.5 68q42 -152 97 -297l-76 -59l51 -676q340 398 582 398q76 0 156.5 -34.5t157 -100t126 -139.5t49.5 -118q0 -136 -82 -239q109 -66 256 -66 q21 0 21 -20v-246q0 -20 -21 -20q-123 0 -238.5 56.5t-193.5 149.5q-182 -100 -492 -153t-796 -53zM997 670q-219 0 -561 -398l256 13q215 12 512 96l185 51q-80 91 -142 142t-118.5 73.5t-131.5 22.5z" />
<glyph unicode="&#x638;" horiz-adv-x="2107" arabic-form="final" d="M1051 -41q-137 0 -313 10.5t-234 28.5q-52 15 -159.5 89.5t-180.5 143.5l37 103q259 -61 393 -78q46 64 96 123q-78 337 -188 926q-5 28 -5 55q0 101 70.5 169t173.5 68q42 -152 97 -297l-76 -59l53 -711q180 203 317.5 297.5t247.5 94.5q83 0 196 -69t202.5 -174.5 t89.5 -176.5q0 -81 -27 -152q57 -38 124.5 -61t162.5 -23q20 0 20 -20v-246q0 -20 -20 -20q-113 0 -221.5 48.5t-194.5 139.5q-114 -99 -296 -154t-365 -55zM1321 639q-207 0 -555 -403q108 -11 309 -11q161 0 306.5 35t347.5 131q-215 248 -408 248zM1370 1262 q-73 -108 -199 -226q-150 124 -219 203q145 145 215 225q83 -94 203 -202z" />
<glyph unicode="&#x638;" horiz-adv-x="1669" arabic-form="initial" d="M0 -20q-20 0 -20 20v246q0 20 20 20h107l139 2l100 135q-26 112 -47.5 214t-134.5 688q-5 28 -5 55q0 101 70.5 169t173.5 68q42 -152 97 -297l-76 -59l51 -676q340 398 582 398q76 0 156.5 -34.5t157 -100t126 -139.5t49.5 -118q0 -190 -164.5 -321t-497 -200.5 t-884.5 -69.5zM997 670q-219 0 -561 -398l256 13q215 12 512 96l185 51q-80 91 -142 142t-118.5 73.5t-131.5 22.5zM1010 1262q-73 -108 -199 -226q-150 124 -219 203q145 145 215 225q83 -94 203 -202z" />
<glyph unicode="&#x638;" horiz-adv-x="1700" arabic-form="medial" d="M0 -20q-20 0 -20 20v246q0 20 20 20h107l139 2l100 135q-26 112 -47.5 214t-134.5 688q-5 28 -5 55q0 101 70.5 169t173.5 68q42 -152 97 -297l-76 -59l51 -676q340 398 582 398q76 0 156.5 -34.5t157 -100t126 -139.5t49.5 -118q0 -136 -82 -239q109 -66 256 -66 q21 0 21 -20v-246q0 -20 -21 -20q-123 0 -238.5 56.5t-193.5 149.5q-182 -100 -492 -153t-796 -53zM997 670q-219 0 -561 -398l256 13q215 12 512 96l185 51q-80 91 -142 142t-118.5 73.5t-131.5 22.5zM1008 1262q-73 -108 -199 -226q-150 124 -219 203q145 145 215 225 q83 -94 203 -202z" />
<glyph unicode="&#x639;" horiz-adv-x="1149" arabic-form="final" d="M1165 -20q-171 0 -295.5 37t-218.5 118q-127 -76 -196.5 -166t-69.5 -174q0 -117 68.5 -202t190 -131t269.5 -46q186 0 473 66l33 -103l-90 -52q-312 -187 -422 -187q-317 0 -481 154.5t-164 465.5q0 272 277 494l-55 70q-97 131 -212 223l-43 -29q-64 71 -64 154 q0 79 69.5 139.5t194.5 106t245 45.5q104 0 198 -46.5t148.5 -125.5t54.5 -170q0 -173 -201 -340q84 -15 291 -15q25 0 25 -22v-242q0 -22 -25 -22zM682 696q-128 0 -254 -59q80 -65 204 -204l62 -64q77 54 108.5 99.5t31.5 98.5q0 58 -43.5 93.5t-108.5 35.5z" />
<glyph unicode="&#x639;" horiz-adv-x="1245" arabic-form="initial" d="M0 -20q-20 0 -20 20v246q0 20 20 20l128 -1l60 1q-51 68 -51 148q0 113 64 242t154.5 201.5t185.5 72.5q168 0 366 -223l-51 -97q-145 56 -254 56q-83 0 -147.5 -17.5t-145.5 -60.5q5 -100 51.5 -183t143.5 -131q351 17 641 134q16 -15 27 -47.5t11 -70.5 q0 -56 -24 -99.5t-66.5 -70t-228.5 -66t-388 -57t-476 -17.5z" />
<glyph unicode="&#x639;" horiz-adv-x="1079" arabic-form="medial" d="M1096 -20q-333 0 -521 147q-142 -79 -282.5 -113t-290.5 -34q-22 0 -22 22v242q0 22 22 22q108 0 218.5 2.5t203.5 18.5l-49 62q-89 115 -193 198l-43 -29q-64 71 -64 154q0 79 69.5 139.5t194.5 106t245 45.5q104 0 198 -46.5t148.5 -125.5t54.5 -170q0 -172 -188 -340 q90 -15 299 -15q24 0 24 -22v-242q0 -22 -24 -22zM592 696q-128 0 -254 -59q79 -67 149 -144q87 -98 127 -135q129 93 129 209q0 57 -42.5 93t-108.5 36z" />
<glyph unicode="&#x63a;" horiz-adv-x="1149" arabic-form="final" d="M1165 -20q-171 0 -295.5 37t-218.5 118q-127 -76 -196.5 -166t-69.5 -174q0 -117 68.5 -202t190 -131t269.5 -46q186 0 473 66l33 -103l-90 -52q-312 -187 -422 -187q-317 0 -481 154.5t-164 465.5q0 272 277 494l-55 70q-97 131 -212 223l-43 -29q-64 71 -64 154 q0 79 69.5 139.5t194.5 106t245 45.5q104 0 198 -46.5t148.5 -125.5t54.5 -170q0 -173 -201 -340q84 -15 291 -15q25 0 25 -22v-242q0 -22 -25 -22zM682 696q-128 0 -254 -59q80 -65 204 -204l62 -64q77 54 108.5 99.5t31.5 98.5q0 58 -43.5 93.5t-108.5 35.5zM782 1364 q-73 -108 -199 -226q-150 124 -219 203q145 145 215 225q83 -94 203 -202z" />
<glyph unicode="&#x63a;" horiz-adv-x="1245" arabic-form="initial" d="M0 -20q-20 0 -20 20v246q0 20 20 20l128 -1l60 1q-51 68 -51 148q0 113 64 242t154.5 201.5t185.5 72.5q168 0 366 -223l-51 -97q-145 56 -254 56q-83 0 -147.5 -17.5t-145.5 -60.5q5 -100 51.5 -183t143.5 -131q351 17 641 134q16 -15 27 -47.5t11 -70.5 q0 -56 -24 -99.5t-66.5 -70t-228.5 -66t-388 -57t-476 -17.5zM509 1317q-73 -108 -199 -226q-150 124 -219 203q145 145 215 225q83 -94 203 -202z" />
<glyph unicode="&#x63a;" horiz-adv-x="1079" arabic-form="medial" d="M1096 -20q-333 0 -521 147q-142 -79 -282.5 -113t-290.5 -34q-22 0 -22 22v242q0 22 22 22q108 0 218.5 2.5t203.5 18.5l-49 62q-89 115 -193 198l-43 -29q-64 71 -64 154q0 79 69.5 139.5t194.5 106t245 45.5q104 0 198 -46.5t148.5 -125.5t54.5 -170q0 -172 -188 -340 q90 -15 299 -15q24 0 24 -22v-242q0 -22 -24 -22zM592 696q-128 0 -254 -59q79 -67 149 -144q87 -98 127 -135q129 93 129 209q0 57 -42.5 93t-108.5 36zM717 1368q-73 -108 -199 -226q-150 124 -219 203q145 145 215 225q83 -94 203 -202z" />
<glyph unicode="&#x641;" horiz-adv-x="2003" arabic-form="final" d="M751 -41q-287 0 -437 130.5t-150 383.5q0 50 14.5 128.5t32.5 135.5h108l-3 -26l-5 -93q0 -141 56 -220t174 -116.5t298 -37.5q187 0 349 16q-43 62 -43 119q0 61 13.5 141.5t29.5 110.5q67 122 180.5 207.5t222.5 85.5q64 0 130 -70.5t108.5 -186t42.5 -218.5 q0 -86 -72 -181l110 -2h113q21 0 21 -20v-246q0 -20 -21 -20q-326 0 -530 83q-144 -49 -348.5 -76.5t-393.5 -27.5zM1276 401q82 -99 225 -143q146 40 235 117q-27 99 -78.5 175.5t-91.5 76.5q-130 0 -290 -226zM1710 1315q-73 -108 -199 -226q-150 124 -219 203 q145 145 215 225q83 -94 203 -202z" />
<glyph unicode="&#x641;" horiz-adv-x="1030" arabic-form="initial" d="M784 395q-27 102 -45 148q-69 -51 -154 -82t-175 -31q-87 0 -149 35.5t-95 99t-33 146.5q0 125 47 244.5t124 190.5t159 71q115 0 221.5 -115t164.5 -300t58 -403q0 -77 -84 -245q-144 -90 -333.5 -132t-487.5 -42q-22 0 -22 22v242q0 22 22 22q271 0 454.5 32.5 t327.5 96.5zM457 633q96 0 229 45q-63 132 -134 191t-138 59q-59 0 -107.5 -46t-48.5 -110q0 -57 58 -98t141 -41zM533 1565q-73 -108 -199 -226q-150 124 -219 203q145 145 215 225q83 -94 203 -202z" />
<glyph unicode="&#x641;" horiz-adv-x="993" arabic-form="medial" d="M2 266l111 -1l57 1q-35 56 -35 113q0 48 13 134t30 118q71 125 183 209t221 84q65 0 130 -71t107.5 -185.5t42.5 -218.5q0 -92 -53 -181l102 -2h103q20 0 20 -20v-246q0 -20 -20 -20q-311 0 -516 79q-177 -79 -496 -79q-22 0 -22 22v242q0 22 22 22zM266 401 q84 -99 226 -143q146 40 235 117q-26 95 -78.5 173.5t-91.5 78.5q-71 0 -143 -60t-148 -166zM677 1325q-73 -108 -199 -226q-150 124 -219 203q145 145 215 225q83 -94 203 -202z" />
<glyph unicode="&#x642;" horiz-adv-x="1524" arabic-form="final" d="M985 891q93 0 180 -78.5t151.5 -222t92.5 -324.5h135q21 0 21 -20v-246q0 -20 -21 -20h-119q-11 -144 -78 -264.5t-182.5 -211.5t-268.5 -145.5t-290 -54.5q-216 0 -329 126.5t-113 368.5q0 125 59 348l107 -26q-33 -111 -33 -191q0 -167 84 -253.5t252 -86.5 q312 0 635 246q-8 96 -15 148q-267 7 -385.5 42t-175.5 113t-57 203q0 138 52.5 267t133.5 205.5t164 76.5zM1196 268q-48 160 -115.5 248t-148.5 88q-70 0 -120 -48.5t-50 -109.5q0 -53 42 -92.5t123.5 -59.5t268.5 -26zM854 1268q-61 -94 -184 -211q-129 102 -205 190 q54 50 107 107t94 100q71 -77 188 -186zM1255 1313q-65 -99 -182 -211q-130 101 -205 188q92 86 199 209q77 -80 188 -186z" />
<glyph unicode="&#x642;" horiz-adv-x="1030" arabic-form="initial" d="M784 395q-27 102 -45 148q-69 -51 -154 -82t-175 -31q-87 0 -149 35.5t-95 99t-33 146.5q0 125 47 244.5t124 190.5t159 71q115 0 221.5 -115t164.5 -300t58 -403q0 -77 -84 -245q-144 -90 -333.5 -132t-487.5 -42q-22 0 -22 22v242q0 22 22 22q271 0 454.5 32.5 t327.5 96.5zM457 633q96 0 229 45q-63 132 -134 191t-138 59q-59 0 -107.5 -46t-48.5 -110q0 -57 58 -98t141 -41zM331 1518q-61 -94 -184 -211q-129 102 -205 190q54 50 107 107t94 100q71 -77 188 -186zM732 1563q-65 -99 -182 -211q-130 101 -205 188q92 86 199 209 q77 -80 188 -186z" />
<glyph unicode="&#x642;" horiz-adv-x="993" arabic-form="medial" d="M2 266l111 -1l57 1q-35 56 -35 113q0 48 13 134t30 118q71 125 183 209t221 84q65 0 130 -71t107.5 -185.5t42.5 -218.5q0 -92 -53 -181l102 -2h103q20 0 20 -20v-246q0 -20 -20 -20q-311 0 -516 79q-177 -79 -496 -79q-22 0 -22 22v242q0 22 22 22zM266 401 q84 -99 226 -143q146 40 235 117q-26 95 -78.5 173.5t-91.5 78.5q-71 0 -143 -60t-148 -166zM464 1274q-61 -94 -184 -211q-129 102 -205 190q54 50 107 107t94 100q71 -77 188 -186zM865 1319q-65 -99 -182 -211q-130 101 -205 188q92 86 199 209q77 -80 188 -186z" />
<glyph unicode="&#x643;" horiz-adv-x="1794" arabic-form="final" d="M813 246q173 0 316 15.5t298 49.5q-72 469 -143 1168l287 159q-21 -924 -21 -1304q52 -35 113 -51.5t152 -16.5q20 0 20 -20v-246q0 -20 -20 -20q-251 0 -334 129q-244 -86 -409.5 -118t-309.5 -32q-234 0 -355.5 38.5t-182 123t-60.5 225.5q0 49 11.5 131.5t21.5 122.5 l108 -4q-8 -53 -8 -90q0 -102 48.5 -157t154.5 -79t313 -24zM953 865l1 10q0 14 -8.5 24.5t-25.5 10.5q-67 0 -117 -95q54 -49 142 -49q59 0 141 19l-12 -152q-154 -42 -233 -73.5t-157 -73.5l-6 137q59 41 105 63q-52 26 -73 55.5t-21 69.5q0 62 34 118.5t89.5 92 t107.5 35.5q54 0 84.5 -34t30.5 -85q0 -23 -8.5 -48t-16.5 -38z" />
<glyph unicode="&#x643;" horiz-adv-x="1067" arabic-form="initial" d="M0 -20q-20 0 -20 20v246q0 20 20 20q293 0 464.5 18t270.5 62q-44 90 -167.5 197t-297.5 205q-32 -9 -61 -9q-65 0 -115.5 46t-50.5 110q0 49 25 172t38 131q343 170 443.5 216t227.5 100t200 83q47 -45 47 -120q0 -60 -33.5 -114.5t-92.5 -85.5t-182 -85t-244 -96.5 t-290 -89.5q180 -47 335.5 -149.5t248 -234t92.5 -247.5q0 -123 -93.5 -212t-289.5 -136t-475 -47z" />
<glyph unicode="&#x643;" horiz-adv-x="1126" arabic-form="medial" d="M358 313q-34 95 -65 156q-141 158 -205.5 288t-64.5 247q0 56 31.5 114t84.5 84q215 105 408.5 190.5t486.5 204.5q51 -49 51 -120q0 -63 -37 -115.5t-94 -79.5q-187 -91 -360.5 -157.5t-454.5 -159.5q249 -281 356 -382t212.5 -177t210.5 -108t229 -32q20 0 20 -20v-246 q0 -20 -20 -20q-116 0 -206.5 16t-165 49.5t-136 85t-150.5 137.5q-11 -85 -55 -155q-108 -64 -213.5 -98.5t-220.5 -34.5q-20 0 -20 20v246q0 20 20 20q178 0 358 47z" />
<glyph unicode="&#x644;" horiz-adv-x="1487" arabic-form="final" d="M1507 -20q-97 0 -180 47l4 -133q0 -160 -96 -297t-262.5 -215t-366.5 -78q-216 0 -329 126.5t-113 368.5q0 125 59 348l107 -26q-33 -111 -33 -191q0 -173 77 -256.5t238 -83.5q197 0 331 51t253 162l-56 304l-65 356l-48 282l-93 560l-4 47q0 102 76.5 173.5t183.5 71.5 q30 -111 45 -157.5t51 -139.5l-76 -59q29 -385 72 -749l18 -166q55 -38 105 -49t102 -11q21 0 21 -20v-246q0 -20 -21 -20z" />
<glyph unicode="&#x644;" horiz-adv-x="524" arabic-form="initial" d="M254 319q-38 291 -88.5 569.5t-99.5 549.5l286 159q8 -398 18.5 -706t10.5 -529q0 -80 -22 -154.5t-72 -152.5q-23 -34 -99 -54.5t-188 -20.5q-20 0 -20 20v246q0 20 20 20q49 0 118.5 14.5t135.5 38.5z" />
<glyph unicode="&#x644;" horiz-adv-x="590" arabic-form="medial" d="M0 -20q-20 0 -20 20v246q0 20 20 20q119 0 225 45q-85 534 -145 1127l287 159l-10 -455q-11 -420 -11 -808q57 -38 118.5 -53t145.5 -15q21 0 21 -20v-246q0 -20 -21 -20q-203 0 -295 83q-85 -45 -157.5 -64t-157.5 -19z" />
<glyph unicode="&#x645;" horiz-adv-x="1337" arabic-form="final" d="M1102 -41q-176 0 -327.5 37.5t-229.5 102.5t-78 151q0 81 27 166q-72 -44 -185 -131q23 -169 63 -372q38 -199 79 -474q-125 -91 -244 -135q0 220 -21 513q-22 293 -22 386q0 40 34.5 129t67.5 155q9 18 111 94t204 133.5t192.5 91.5t158.5 34q33 0 60 -25.5t51 -70 t80 -191.5q64 -169 115.5 -228t113.5 -59q26 0 26 -24v-236q0 -26 -26 -26q-123 0 -217 92zM604 367q132 -107 422 -140q-38 76 -65.5 172t-36.5 187q-88 -32 -176 -91t-144 -128z" />
<glyph unicode="&#x645;" horiz-adv-x="1139" arabic-form="initial" d="M883 -41q-152 0 -314 35t-284 100q-59 -63 -128 -88.5t-157 -25.5q-20 0 -20 20v246q0 20 20 20q199 0 291 178q88 174 141.5 247t110.5 111t125 38q83 0 165 -86t137.5 -236.5t55.5 -286.5q0 -64 -44.5 -146t-98.5 -126zM631 557q-56 0 -98.5 -48t-108.5 -187 q154 -74 381 -97q-11 89 -38 164t-65 121.5t-71 46.5z" />
<glyph unicode="&#x645;" horiz-adv-x="995" arabic-form="medial" d="M1010 -20q-123 0 -217 92l-33 -113q-146 0 -282 27.5t-220 74.5q-115 -81 -258 -81q-20 0 -20 20v246q0 20 20 20q63 0 125 15q10 130 80.5 264t175.5 214.5t209 80.5q33 0 60 -25.5t51 -70t80 -191.5q64 -169 115.5 -228t113.5 -59q26 0 26 -24v-236q0 -26 -26 -26z M262 367q132 -107 422 -140q-38 76 -65.5 172t-36.5 187q-88 -32 -176 -91t-144 -128z" />
<glyph unicode="&#x646;" horiz-adv-x="1444" arabic-form="final" d="M1464 -20q-71 0 -141 28q8 -83 8 -114q0 -160 -96 -297t-262.5 -215t-366.5 -78q-216 0 -329 126.5t-113 368.5q0 125 59 348l107 -26q-33 -111 -33 -191q0 -173 77 -256.5t238 -83.5q197 0 331 51t253 162q-32 70 -68 136t-66 123t-49.5 103.5t-19.5 78.5q0 202 244 317 q14 -104 39 -248q82 -47 188 -47q21 0 21 -20v-246q0 -20 -21 -20zM844 556q-73 -108 -199 -226q-150 124 -219 203q145 145 215 225q83 -94 203 -202z" />
<glyph unicode="&#x646;" horiz-adv-x="694" arabic-form="initial" d="M0 -20q-20 0 -20 20v246q0 20 20 20q117 0 237 18.5t193 49.5q-32 70 -64 127t-57.5 103.5t-41 84.5t-15.5 70q0 59 66 130.5t153 113.5l31 -157q69 -326 69 -403q0 -102 -94 -290q-223 -133 -477 -133zM480 1321q-73 -108 -199 -226q-150 124 -219 203q145 145 215 225 q83 -94 203 -202z" />
<glyph unicode="&#x646;" horiz-adv-x="705" arabic-form="medial" d="M0 -20q-20 0 -20 20v246q0 20 20 20q154 0 236 56q34 23 75 104q64 125 80 145t40 29.5t50 9.5q60 0 97 -35q-90 -212 -107 -247q117 -62 254 -62q20 0 20 -20v-246q0 -20 -20 -20q-183 0 -348 165q-18 -29 -46.5 -65.5t-78.5 -58t-113.5 -31.5t-138.5 -10zM525 1018 q-73 -108 -199 -226q-150 124 -219 203q145 145 215 225q83 -94 203 -202z" />
<glyph unicode="&#x647;" horiz-adv-x="1122" arabic-form="final" d="M684 51q-103 8 -152.5 17.5t-105.5 27.5q-98 38 -180 96.5t-82 100.5q0 32 40 145t69 152.5t90 91.5t135 100.5t151 85.5l-7 47l-5 48q86 70 131.5 101t118.5 75l-2 -463l2 -346q117 -64 256 -64q20 0 20 -20v-246q0 -20 -20 -20q-144 0 -234 46.5t-108 131.5l-21 90z M758 336q-42 172 -70 315q-131 -45 -211 -91.5t-141 -106.5q60 -43 122 -65t139.5 -35.5t160.5 -16.5z" />
<glyph unicode="&#x647;" horiz-adv-x="1243" arabic-form="initial" d="M0 -20q-20 0 -20 20v250q0 16 20 16h91l91 2q-76 103 -76 211q0 95 57.5 210.5t139.5 174.5l70 248q196 -48 368 -178.5t275.5 -312t103.5 -361.5q0 -113 -123 -323q-165 5 -312.5 42t-262.5 97q-175 -96 -422 -96zM229 481q86 -94 213 -153l2 2q46 24 77.5 80.5 t31.5 126.5q0 55 -38.5 101t-82.5 46q-122 0 -203 -203zM709 530q0 -151 -76 -268q116 -31 352 -63q-58 163 -131 276t-172 197q27 -72 27 -142z" />
<glyph unicode="&#x647;" horiz-adv-x="958" arabic-form="medial" d="M805 -33q52 -28 87.5 -76.5t35.5 -97.5q0 -36 -33 -123t-49 -106q-25 -29 -79 -52.5t-132 -23.5q-188 0 -313.5 111.5t-159.5 312.5l-74 -35l-25 111l-63 -8q-20 0 -20 20v246q0 20 20 20q82 0 174 6q41 203 156 399t299 369l106 -24q8 -99 44 -304q30 -175 30 -251 q0 -123 -113 -225q156 30 277 30q26 0 26 -24v-236q0 -26 -26 -26q-86 0 -168 -13zM557 711q-94 -133 -142 -239t-65 -228q194 24 312 121l-30 92q-56 148 -75 254zM412 -20l-56 -7q25 -127 98 -190.5t201 -63.5q45 0 75 10.5t65 32.5q-71 104 -173 161t-210 57z" />
<glyph unicode="&#x648;" horiz-adv-x="1176" arabic-form="final" d="M1049 -20q-59 -219 -218.5 -355.5t-359.5 -136.5q-48 0 -155.5 62t-192.5 135l39 100q129 -33 264 -33q149 0 273.5 62t193.5 170q-255 11 -364 47.5t-161.5 114t-52.5 196.5q0 138 52.5 267t133.5 205.5t165 76.5q94 0 178.5 -80t145.5 -227.5t77 -317.5h129 q21 0 21 -20v-246q0 -20 -21 -20h-147zM909 268q-48 161 -126 248.5t-171 87.5q-69 0 -119.5 -48t-50.5 -110q0 -133 238 -165q40 -8 229 -13z" />
<glyph unicode="&#x649;" horiz-adv-x="1663" arabic-form="final" d="M1468 -240q-127 51 -284.5 148t-157.5 133q0 25 21 78.5t58.5 119.5t47.5 66q213 -39 524 -39q27 0 27 -26v-236q0 -24 -27 -24q-68 0 -175 10t-191 30l74 -36q100 -45 137.5 -66.5t53 -55t15.5 -98.5q0 -101 -137 -209t-353.5 -179.5t-412.5 -71.5q-257 0 -390.5 127 t-133.5 368q0 125 59 348l107 -26q-33 -111 -33 -191q0 -170 102.5 -255t315.5 -85q211 0 420 45.5t333 124.5z" />
<glyph unicode="&#x64a;" horiz-adv-x="1663" arabic-form="final" d="M1468 -240q-127 51 -284.5 148t-157.5 133q0 25 21 78.5t58.5 119.5t47.5 66q213 -39 524 -39q27 0 27 -26v-236q0 -24 -27 -24q-68 0 -175 10t-191 30l74 -36q100 -45 137.5 -66.5t53 -55t15.5 -98.5q0 -101 -137 -209t-353.5 -179.5t-412.5 -71.5q-257 0 -390.5 127 t-133.5 368q0 125 59 348l107 -26q-33 -111 -33 -191q0 -170 102.5 -255t315.5 -85q211 0 420 45.5t333 124.5zM995 -1017q-61 -94 -184 -211q-129 102 -205 190q54 50 107 107t94 100q71 -77 188 -186zM1396 -972q-65 -99 -182 -211q-130 101 -205 188q92 86 199 209 q77 -80 188 -186z" />
<glyph unicode="&#x64a;" horiz-adv-x="846" arabic-form="initial" d="M-11 -20q-20 0 -20 20v246q0 20 20 20q183 0 351.5 18t242.5 50q-32 70 -64 127t-57.5 103.5t-41 84.5t-15.5 70q0 59 66 130.5t153 113.5l31 -157q69 -326 69 -403q0 -102 -94 -290q-101 -61 -281 -97t-360 -36zM284 -433q-61 -94 -184 -211q-129 102 -205 190 q54 50 107 107t94 100q71 -77 188 -186zM685 -388q-65 -99 -182 -211q-130 101 -205 188q92 86 199 209q77 -80 188 -186z" />
<glyph unicode="&#x64a;" horiz-adv-x="868" arabic-form="medial" d="M0 -20q-20 0 -20 20v246q0 20 20 20q175 0 247.5 9t118 29t69 51.5t76.5 139.5q36 75 64.5 95t69.5 20q59 0 96 -35q-23 -54 -49 -118t-57 -129q117 -62 254 -62q20 0 20 -20v-246q0 -20 -20 -20q-91 0 -176 39t-172 126q-25 -42 -56 -77q-34 -39 -173.5 -63.5 t-311.5 -24.5zM425 -433q-61 -94 -184 -211q-129 102 -205 190q54 50 107 107t94 100q71 -77 188 -186zM826 -388q-65 -99 -182 -211q-130 101 -205 188q92 86 199 209q77 -80 188 -186z" />
<glyph unicode="&#xd;" horiz-adv-x="602" />
<glyph unicode=" "  horiz-adv-x="532" />
<glyph unicode="&#x09;" horiz-adv-x="532" />
<glyph unicode="&#xa0;" horiz-adv-x="532" />
<glyph unicode="!" horiz-adv-x="782" d="M213 1462h356l-120 -995h-115zM225 147q0 47 13 78.5t35.5 50.5t53.5 27t66 8q34 0 64.5 -8t53.5 -27t36.5 -50.5t13.5 -78.5q0 -46 -13.5 -77t-36.5 -50t-53.5 -27.5t-64.5 -8.5q-35 0 -66 8.5t-53.5 27.5t-35.5 50t-13 77z" />
<glyph unicode="&#x22;" horiz-adv-x="1040" d="M584 1462h319l-72 -563h-135zM137 1462h320l-92 -563h-136z" />
<glyph unicode="#" horiz-adv-x="1145" d="M1022 551v-141h-256l-76 -410h-145l76 410h-213l-78 -410h-146l78 410h-205v141h232l71 371h-237v143h264l72 397h147l-74 -397h213l76 397h146l-76 -397h196v-143h-223l-69 -371h227zM434 551h215l72 371h-215z" />
</font>
</defs>
</svg>
