<?xml version="1.0" standalone="no"?>
<!DOCTYPE svg PUBLIC "-//W3C//DTD SVG 1.1//EN" "http://www.w3.org/Graphics/SVG/1.1/DTD/svg11.dtd" >
<svg xmlns="http://www.w3.org/2000/svg" xmlns:xlink="http://www.w3.org/1999/xlink" version="1.1">
<metadata></metadata>
<defs>
<font id="sahl_naskhregular" horiz-adv-x="1144" >
<font-face units-per-em="2048" ascent="1638" descent="-410" />
<missing-glyph horiz-adv-x="530" />
<glyph horiz-adv-x="0" />
<glyph horiz-adv-x="682" />
<glyph unicode="&#xd;" horiz-adv-x="600" />
<glyph unicode=" "  horiz-adv-x="530" />
<glyph unicode="&#x09;" horiz-adv-x="530" />
<glyph unicode="&#xa0;" horiz-adv-x="530" />
<glyph unicode="!" horiz-adv-x="681" d="M211 125q0 41 10 66.5t27.5 42t41 23.5t50.5 7t50.5 -7t41 -23.5t27.5 -42t10 -66.5q0 -39 -10 -65.5t-27.5 -43t-41 -23.5t-50.5 -7t-50.5 7t-41 23.5t-27.5 43t-10 65.5zM221 1462h238l-72 -1050h-94z" />
<glyph unicode="&#x22;" horiz-adv-x="835" d="M117 1462h217l-62 -481h-94zM502 1462h217l-62 -481h-94z" />
<glyph unicode="#" d="M82 416v121h190l78 401h-244v121h267l73 403h125l-75 -403h284l76 403h123l-76 -403h160v-121h-182l-76 -401h233v-121h-258l-78 -416h-122l77 416h-284l-78 -416h-123l78 416h-168zM397 537h285l76 401h-285z" />
<glyph unicode="$" d="M135 166v315h86q0 -57 21.5 -110.5t60.5 -96.5t94.5 -70.5t120.5 -31.5v506q-96 43 -162.5 85t-107.5 88t-59.5 100.5t-18.5 121.5q0 70 24.5 125t69.5 97t109.5 68t144.5 34v159h103v-155q92 -2 156.5 -20.5t105.5 -49.5t59.5 -71.5t18.5 -88.5q0 -66 -44.5 -99.5 t-117.5 -33.5q0 45 -7.5 90.5t-27 83t-54 63t-89.5 32.5v-478q92 -41 162.5 -80.5t118.5 -86t73.5 -102.5t25.5 -130q0 -154 -99 -240t-281 -104v-248h-103v244q-51 0 -103.5 4t-101.5 15.5t-95 26.5t-83 38zM354 1090q0 -43 10.5 -76t32 -57.5t51 -44t70.5 -38.5v429 q-41 -8 -71.5 -28t-51 -47.5t-31 -62t-10.5 -75.5zM621 178q92 16 142 74.5t50 146.5q0 41 -10 74t-32.5 60.5t-59.5 51t-90 48.5v-455z" />
<glyph unicode="%" horiz-adv-x="1832" d="M92 1030q0 102 19.5 186t60.5 143.5t105.5 91.5t152.5 32q84 0 146.5 -32t104.5 -91.5t62.5 -143.5t20.5 -186t-20.5 -186t-62.5 -144.5t-105.5 -93.5t-147.5 -33q-88 0 -151.5 33t-104.5 93.5t-60.5 144.5t-19.5 186zM276 1030q0 -88 8.5 -157.5t26 -117.5t46 -73 t71.5 -25t71.5 25t46 73t25 117.5t7.5 157.5q0 86 -7.5 154.5t-25 116t-46 72t-69.5 24.5q-43 0 -71.5 -24.5t-47 -72t-27 -116t-8.5 -154.5zM481 0l731 1462h134l-730 -1462h-135zM1071 436q0 102 19.5 186.5t60.5 143.5t105.5 91t152.5 32q84 0 146.5 -32t104.5 -91 t62.5 -143.5t20.5 -186.5t-20.5 -186t-62.5 -144.5t-105.5 -93t-147.5 -32.5q-88 0 -151.5 32.5t-104.5 93t-60.5 144.5t-19.5 186zM1255 436q0 -88 8.5 -157.5t26 -117.5t47 -73t70.5 -25q43 0 71.5 25t45 73t24.5 117.5t8 157.5q0 86 -8 154.5t-24.5 116t-45 72 t-69.5 24.5q-43 0 -71.5 -24.5t-47 -72t-27 -116t-8.5 -154.5z" />
<glyph unicode="&#x26;" horiz-adv-x="1519" d="M74 410q0 86 23.5 151.5t66.5 114.5t103.5 86t133.5 67q-39 45 -68.5 88.5t-49 85t-29.5 86t-10 93.5q0 68 22.5 123t69.5 95t119.5 61.5t175.5 21.5q98 0 166.5 -22.5t112.5 -62.5t63.5 -93.5t19.5 -112.5q0 -66 -19.5 -117t-60.5 -94t-106.5 -82t-159.5 -78l373 -395 q14 45 23.5 93t14.5 93t7 89t2 81v80h369v-86h-19q-35 0 -67.5 -4t-61 -18.5t-51.5 -42t-35 -74.5q-18 -66 -41.5 -142.5t-58.5 -154.5l190 -203q14 -14 30.5 -24.5t38 -16.5t51.5 -8t71 -2h18v-86h-327l-170 180q-37 -43 -81 -78.5t-98.5 -63.5t-120 -43t-143.5 -15 q-123 0 -214 31.5t-152.5 88t-91 135t-29.5 175.5zM274 403q0 -76 21.5 -133t62.5 -97t96.5 -59.5t125.5 -19.5q59 0 111 12.5t95 35t79 52t65 66.5l-453 485q-47 -27 -85 -58.5t-64.5 -72.5t-40 -93t-13.5 -118zM434 1188q0 -39 8.5 -73t25.5 -67.5t44 -69.5t66 -79 q59 27 104 55.5t73.5 63.5t43 77t14.5 95q0 41 -10 75.5t-32.5 60.5t-58.5 41t-89 15q-90 0 -139.5 -53t-49.5 -141z" />
<glyph unicode="'" horiz-adv-x="450" d="M117 1462h217l-62 -481h-94z" />
<glyph unicode="(" horiz-adv-x="708" d="M117 649q0 184 28.5 327.5t92 254t164 189.5t241.5 136v-92q-104 -63 -166.5 -153t-95.5 -195.5t-42 -224.5t-9 -242t9 -241.5t42 -225t95.5 -196.5t166.5 -154v-94q-141 55 -241.5 136t-164 190.5t-92 255t-28.5 329.5z" />
<glyph unicode=")" horiz-adv-x="708" d="M66 -168q104 63 166.5 153.5t95 197t42 225t9.5 241.5t-9.5 242t-42 224.5t-95 195.5t-166.5 153v92q141 -55 241.5 -135t162.5 -190.5t92 -253.5t30 -328q0 -184 -30 -329.5t-92 -255t-162.5 -190.5t-241.5 -136v94z" />
<glyph unicode="*" horiz-adv-x="1024" d="M84 1063l344 102l-344 103l72 162l315 -199l-53 325h178l-57 -323l317 192l72 -159l-346 -101l346 -100l-72 -158l-317 191l57 -324h-178l51 324l-313 -195z" />
<glyph unicode="+" d="M133 672v121h377v378h123v-378h379v-121h-379v-379h-123v379h-377z" />
<glyph unicode="," horiz-adv-x="512" d="M61 -229q100 33 147.5 79t47.5 105q0 20 -11.5 33.5t-27.5 24t-35.5 20.5t-37 24.5t-28 35t-10.5 50.5q0 59 38 90t96 31q33 0 60.5 -11t50 -33.5t34.5 -56.5t12 -77q0 -66 -18.5 -126t-58 -112.5t-103 -94.5t-156.5 -68v86z" />
<glyph unicode="-" horiz-adv-x="634" d="M51 481v154h533v-154h-533z" />
<glyph unicode="." horiz-adv-x="585" d="M164 125q0 41 10 66.5t27.5 42t41 23.5t50 7t50.5 -7t41 -23.5t27.5 -42t10.5 -66.5q0 -39 -10.5 -65.5t-27.5 -43t-41 -23.5t-50.5 -7t-50 7t-41 23.5t-27.5 43t-10 65.5z" />
<glyph unicode="/" horiz-adv-x="589" d="M0 -248l471 1804h119l-469 -1804h-121z" />
<glyph unicode="0" d="M92 735q0 170 27.5 308.5t86 235.5t151 150.5t218.5 53.5q121 0 210 -53.5t148.5 -150.5t89.5 -236.5t30 -309.5t-30 -308t-89.5 -237.5t-149.5 -153.5t-211 -54q-127 0 -218 54t-149.5 153.5t-86 238.5t-27.5 309zM305 733q0 -152 14.5 -271.5t45 -202.5t83 -126 t125.5 -43q76 0 126.5 43t82 126t45 203t13.5 271q0 152 -13.5 270.5t-45 200.5t-82 125t-124.5 43q-76 0 -127 -43t-82.5 -125t-46 -200.5t-14.5 -270.5z" />
<glyph unicode="1" d="M135 1206q31 8 62.5 19.5t66.5 30t77 45t93 63.5l144 106h131v-1237q0 -47 13 -76.5t35.5 -45t53.5 -20.5t66 -5h100v-86h-780v86h137q35 0 65.5 5t53 20.5t36 44t13.5 77.5v1076q-39 -47 -74 -86t-66.5 -68t-62.5 -44t-61 -15q-45 0 -74 30.5t-29 79.5z" />
<glyph unicode="2" d="M104 0v150l342 395q82 94 137.5 170t89.5 142.5t49 130t15 132.5q0 59 -12 106.5t-37.5 82t-65.5 53t-94 18.5q-70 0 -113.5 -25.5t-68 -67.5t-34 -96t-9.5 -116q-37 0 -68.5 6t-56 21.5t-38 41t-13.5 64.5q0 59 25.5 109.5t76 87.5t125 57.5t174.5 20.5q96 0 173 -24.5 t131.5 -68.5t83 -107.5t28.5 -141.5q0 -72 -23.5 -139.5t-66.5 -139t-107.5 -148.5t-144.5 -167l-346 -383h473q45 0 76 13t49 33.5t29.5 48.5t17.5 58l8 37h86l-10 -354h-881z" />
<glyph unicode="3" d="M119 207q0 61 34.5 96t94.5 35q0 -53 17.5 -99t50 -79t81.5 -51.5t110.5 -18.5t117 17.5t97.5 56.5t66.5 101.5t24.5 154.5q0 66 -25.5 118t-73.5 89t-117 57.5t-155 20.5h-65v104h65q68 0 126.5 22.5t102.5 63.5t68.5 99.5t24.5 131.5q0 59 -12.5 106.5t-39 80.5 t-67.5 50t-100 17q-70 0 -114 -25.5t-68.5 -67.5t-34 -96t-9.5 -116q-37 0 -69.5 6t-56 21.5t-37 41t-13.5 64.5q0 59 26 109.5t77 87.5t125.5 57.5t173.5 20.5q96 0 176 -21.5t136 -63.5t87 -102.5t31 -138.5q0 -70 -24.5 -130t-68.5 -110.5t-103.5 -85t-131.5 -51.5 q39 -4 81 -13t84 -27.5t81 -45t68.5 -65.5t47 -91.5t17.5 -119.5q0 -82 -22.5 -146.5t-60.5 -113.5t-89 -83t-109.5 -54.5t-119 -30.5t-119.5 -10q-100 0 -174 18t-121 50t-69.5 73t-22.5 86z" />
<glyph unicode="4" d="M35 401v84l633 977h194v-946h254v-115h-254v-168q0 -47 13.5 -76.5t36 -45t53 -20.5t65.5 -5h27v-86h-617v86h58q35 0 65.5 5t53 20.5t36 44t13.5 77.5v168h-631zM182 516h484v379q0 45 1 99.5t3 109.5t4 111.5t6 103.5q-6 -14 -19.5 -38t-30 -52.5t-34.5 -60 t-36.5 -62.5t-35 -57.5t-28.5 -44.5z" />
<glyph unicode="5" d="M113 186q0 57 31.5 89t97.5 32q0 -43 15 -82t46 -66.5t78 -43t108 -15.5q63 0 116.5 17.5t92.5 57.5t61.5 106.5t22.5 164.5q0 82 -22.5 141.5t-63.5 99.5t-97 59.5t-128 19.5q-53 0 -91 -4t-67.5 -10.5t-52 -14.5t-41.5 -16l-49 14l66 725h684l10 -309h-86l-8 61 q-2 23 -8.5 38.5t-17.5 25.5t-31.5 15t-53.5 5h-397l-39 -450q31 10 89 21.5t150 11.5q98 0 184.5 -27t149 -81t98 -135t35.5 -190q0 -104 -33.5 -190t-97 -147.5t-156 -95t-208.5 -33.5q-115 0 -188.5 19t-117.5 50t-62.5 67t-18.5 70z" />
<glyph unicode="6" d="M125 737q0 96 14.5 189.5t44 176.5t72.5 152.5t103.5 120.5t135 79t164.5 28q86 0 149.5 -17.5t105.5 -48.5t62.5 -69.5t20.5 -79.5q0 -59 -39.5 -91t-117.5 -32q0 49 -9.5 93t-32 77t-56.5 51t-83 18q-154 0 -233.5 -151.5t-89.5 -450.5q25 20 55.5 40t66.5 34t79 23.5 t92 9.5q94 0 169.5 -29t129 -83t83 -132t29.5 -176q0 -109 -29.5 -199t-86 -154.5t-138 -100t-186.5 -35.5q-102 0 -189 43t-150.5 134t-99.5 234.5t-36 345.5zM334 666q2 -154 21.5 -262.5t54 -178t85 -101.5t111.5 -32q111 0 168 85t57 272q0 174 -62 254.5t-181 80.5 q-41 0 -78 -10t-68.5 -27.5t-59.5 -39t-48 -41.5z" />
<glyph unicode="7" d="M121 1090l10 370h916v-59l-504 -1401h-154l483 1296h-538q-111 0 -119 -104l-8 -102h-86z" />
<glyph unicode="8" d="M94 367q0 74 23.5 130t65.5 99t99.5 78t123.5 67q-57 33 -106.5 72t-84.5 84t-54.5 100.5t-19.5 118.5q0 72 24.5 137.5t78 116.5t138.5 82t202 31q96 0 170.5 -26.5t127 -74t79 -112t26.5 -140.5q0 -68 -20.5 -118.5t-56.5 -90.5t-87 -73t-112 -64q76 -37 138 -77.5 t107 -89t70 -103.5t25 -123q0 -96 -35 -173t-98.5 -130t-154.5 -80.5t-204 -27.5q-115 0 -202 30.5t-145 82.5t-88 122t-30 152zM293 358q0 -63 17.5 -115.5t52 -90t87 -58t120 -20.5t121.5 20.5t92 56t59.5 86t21.5 109.5q0 51 -19.5 96t-62.5 86t-111.5 81t-166.5 83 q-96 -51 -153.5 -135t-57.5 -199zM334 1141q0 -55 17.5 -99.5t52 -80t87 -67.5t119.5 -63q57 29 95 60t59.5 66.5t31 80t9.5 97.5q0 47 -12.5 92t-40 80.5t-71.5 57t-110 21.5q-57 0 -101 -18t-74.5 -51t-46 -78t-15.5 -98z" />
<glyph unicode="9" d="M104 979q0 111 30 204t86 159.5t138 103.5t185 37q104 0 191 -40t150.5 -124t99.5 -214t36 -310q0 -106 -13.5 -209t-42 -194t-72.5 -166.5t-105.5 -131t-142.5 -86.5t-179 -31q-86 0 -144.5 15.5t-91 40t-47 57.5t-14.5 64q0 39 19.5 64.5t41.5 33.5q14 -33 35 -61.5 t49.5 -51t67.5 -36t86 -13.5q170 0 251 151.5t91 460.5q-23 -27 -52.5 -52t-66.5 -44.5t-83 -31t-99 -11.5q-88 0 -163 25.5t-128 78t-83 130t-30 182.5zM315 999q0 -84 14.5 -144t45.5 -98t75 -55.5t103 -17.5q49 0 91 14.5t74 37t55.5 52t37.5 62.5v4q-2 135 -22.5 232.5 t-55.5 161t-83 93t-107 29.5q-109 0 -168.5 -95t-59.5 -276z" />
<glyph unicode=":" horiz-adv-x="587" d="M166 125q0 41 10 66.5t27.5 42t41 23.5t50.5 7t50.5 -7t40.5 -23.5t27.5 -42t10.5 -66.5q0 -39 -10.5 -65.5t-27.5 -43t-40.5 -23.5t-50.5 -7t-50.5 7t-41 23.5t-27.5 43t-10 65.5zM166 969q0 41 10 67.5t27.5 42t41 22.5t50.5 7t50.5 -7t40.5 -22.5t27.5 -42t10.5 -67.5 q0 -39 -10.5 -65.5t-27.5 -43t-40.5 -24t-50.5 -7.5t-50.5 7.5t-41 24t-27.5 43t-10 65.5z" />
<glyph unicode=";" horiz-adv-x="512" d="M61 -229q100 33 147.5 79t47.5 105q0 20 -11.5 33.5t-27.5 24t-35.5 20.5t-37 24.5t-28 35t-10.5 50.5q0 59 38 90t96 31q33 0 60.5 -11t50 -33.5t34.5 -56.5t12 -77q0 -66 -18.5 -126t-58 -112.5t-103 -94.5t-156.5 -68v86zM129 969q0 41 10.5 67.5t27.5 42t40.5 22.5 t50.5 7t50.5 -7t41 -22.5t27.5 -42t10 -67.5q0 -39 -10 -65.5t-27.5 -43t-41 -24t-50.5 -7.5t-50.5 7.5t-40.5 24t-27.5 43t-10.5 65.5z" />
<glyph unicode="&#x3c;" d="M133 696v72l879 473v-137l-688 -373l688 -369v-137z" />
<glyph unicode="=" d="M133 469v121h879v-121h-879zM133 872v121h879v-121h-879z" />
<glyph unicode="&#x3e;" d="M133 225v137l688 369l-688 373v137l879 -473v-72z" />
<glyph unicode="?" horiz-adv-x="1024" d="M88 1253q0 49 22.5 91t69.5 73t120 48.5t171 17.5q96 0 178 -24.5t142.5 -73t94.5 -117t34 -156.5q0 -84 -27 -152.5t-77 -126t-125 -104.5t-169 -86v-231h-125v311q88 37 148.5 84t97.5 102.5t52.5 115.5t15.5 122q0 53 -13.5 96t-40 74t-68.5 48t-102 17 q-63 0 -107 -21.5t-70.5 -57t-39 -82.5t-12.5 -101q-37 0 -67.5 8.5t-53 24.5t-36 42t-13.5 58zM328 125q0 41 10 66.5t27.5 42t41 23.5t50 7t50 -7t41 -23.5t28 -42t10.5 -66.5q0 -39 -10.5 -65.5t-28 -43t-41 -23.5t-50 -7t-50 7t-41 23.5t-27.5 43t-10 65.5z" />
<glyph unicode="@" horiz-adv-x="1884" d="M133 446q0 145 32 276.5t91 244t143 205t190.5 157t230.5 99t265 34.5q172 0 302.5 -51t217.5 -139t130 -209t43 -260q0 -147 -36 -267t-94.5 -204t-129 -129t-142.5 -45q-90 0 -151.5 49t-89.5 137h-11q-20 -41 -46.5 -74.5t-60.5 -58.5t-76 -39t-93 -14 q-61 0 -117.5 21.5t-99.5 64.5t-68.5 108.5t-25.5 155.5q0 55 12 118.5t38.5 127t68.5 124t99.5 105.5t133.5 72.5t170 27.5q66 0 114 -18t78 -43l82 43h49l-104 -522q-2 -25 -6 -47q-2 -20 -5 -45t-3 -45q0 -37 10 -63t27.5 -43t40 -25.5t47.5 -8.5q45 0 92 36t85 105.5 t62.5 171t24.5 230.5q0 133 -43 236.5t-120 172t-183.5 104.5t-233.5 36q-100 0 -196.5 -27.5t-182.5 -82t-159.5 -133.5t-127 -179t-83 -222t-29.5 -263q0 -170 49 -291t132 -198t193.5 -111.5t235.5 -34.5q84 0 159 14t140.5 39t120.5 55.5t100 61.5l48 -74 q-51 -39 -114 -75t-136.5 -64.5t-157.5 -46t-180 -17.5q-166 0 -303.5 45t-236.5 137.5t-155.5 230.5t-56.5 324zM727 479q0 -109 43 -161t113 -52q51 0 90 22.5t64.5 58.5t42 82t24.5 93l78 416q-12 29 -45 45t-70 16q-61 0 -110.5 -26.5t-87.5 -69.5t-64.5 -98t-44 -113.5 t-25.5 -114t-8 -98.5z" />
<glyph unicode="A" horiz-adv-x="1443" d="M0 0v86h39q31 0 51.5 6t37.5 24.5t32.5 49.5t34.5 80l454 1216h160l463 -1267q12 -33 24.5 -53.5t29.5 -33t38.5 -17.5t52.5 -5h27v-86h-563v86h47q123 0 123 98q0 16 -4.5 35t-12.5 41l-82 229h-538l-78 -215q-8 -25 -13.5 -48t-5.5 -40q0 -51 34 -75.5t102 -24.5h47 v-86h-500zM453 592h462l-127 358q-33 90 -59.5 170t-42.5 154q-6 -37 -16.5 -72t-20.5 -70.5t-24.5 -74.5t-32.5 -88z" />
<glyph unicode="B" horiz-adv-x="1337" d="M78 0v86h26q35 0 66 5t53.5 20.5t35.5 44t13 77.5v1004q0 45 -13 72.5t-36.5 42t-54.5 19.5t-64 5h-26v86h549q266 0 396 -89t130 -277q0 -70 -19.5 -121t-53 -90t-81 -65.5t-100.5 -45.5v-8q70 -12 128 -41t99 -76t64.5 -110.5t23.5 -143.5q0 -199 -130 -297t-396 -98 h-610zM479 102h199q86 0 146.5 15.5t98.5 51.5t55 93t17 139q0 80 -15 138.5t-51 98.5t-96.5 58.5t-150.5 18.5h-203v-613zM479 817h142q90 0 150 16.5t96 49t51.5 86t15.5 127.5q0 76 -17.5 126t-55.5 80.5t-98.5 44t-146.5 13.5h-137v-543z" />
<glyph unicode="C" horiz-adv-x="1255" d="M117 733q0 166 42 304.5t125 236.5t205.5 153.5t284.5 55.5q104 0 182 -17.5t129.5 -48.5t77 -72.5t25.5 -91.5q0 -33 -13.5 -59.5t-38 -45t-56 -28.5t-70.5 -10q0 47 -12.5 94t-41 85t-73.5 61.5t-113 23.5q-117 0 -197.5 -43t-132 -124t-74 -200.5t-22.5 -273.5 q0 -137 23.5 -250.5t76 -195.5t133 -127t193.5 -45q76 0 133.5 14t101.5 39t76.5 56.5t59.5 64.5q16 -10 27.5 -29.5t11.5 -50.5q0 -39 -27 -80t-80 -73.5t-136 -54t-198 -21.5q-154 0 -269.5 54t-194 153.5t-118.5 237.5t-40 308z" />
<glyph unicode="D" horiz-adv-x="1488" d="M78 0v86h26q35 0 66 5t53.5 20.5t35.5 44t13 77.5v1004q0 45 -13 72.5t-36.5 42t-54.5 19.5t-64 5h-26v86h627q158 0 281.5 -48t209.5 -141t131 -229.5t45 -310.5q0 -168 -42 -303t-125 -231.5t-208 -147.5t-292 -51h-627zM479 104h178q123 0 214.5 41t151.5 121t91 198 t31 269q0 305 -122 466t-364 161h-180v-1256z" />
<glyph unicode="E" horiz-adv-x="1275" d="M78 0v86h26q35 0 65 4t53.5 18.5t36.5 42t13 72.5v1006q0 47 -13 76.5t-35.5 45t-53.5 20.5t-66 5h-26v86h1032l10 -358h-106l-10 88q-4 35 -15.5 64.5t-33 53t-54.5 37t-78 13.5h-344v-545h494v-100h-494v-613h395q49 0 83 13.5t57.5 36t37 53.5t17.5 65l14 88h107 l-14 -358h-1098z" />
<glyph unicode="F" horiz-adv-x="1206" d="M78 0v86h26q35 0 65 4t53.5 18.5t36.5 42t13 72.5v1014q0 45 -13 72.5t-36.5 42t-54.5 19.5t-64 5h-26v86h1032l10 -358h-106l-10 88q-4 35 -15.5 65.5t-34 53t-57.5 36t-82 13.5h-336v-592h494v-100h-494v-435q0 -47 13.5 -76.5t36 -45t53 -20.5t65.5 -5h68v-86h-637z " />
<glyph unicode="G" horiz-adv-x="1460" d="M117 733q0 166 46 304.5t136 236.5t224 153.5t311 55.5q115 0 198.5 -17.5t141 -48.5t85 -72.5t27.5 -91.5q0 -33 -15.5 -59.5t-41 -45t-59 -28.5t-74.5 -10q0 47 -14.5 94t-46 85t-84 61.5t-126.5 23.5q-129 0 -221 -43t-150.5 -124t-84 -200.5t-25.5 -273t26.5 -272.5 t88 -200t159 -123t236.5 -42q59 0 114.5 6.5t98.5 18.5v330q0 45 -13.5 72.5t-37 42t-53 19.5t-64.5 5h-8v86h532v-86h-8q-29 0 -55.5 -5t-45 -20.5t-29.5 -45.5t-11 -77v-368q-102 -47 -212 -70.5t-241 -23.5q-178 0 -310 54t-220 153.5t-131 237.5t-43 308z" />
<glyph unicode="H" horiz-adv-x="1622" d="M78 0v86h26q35 0 66 5t53.5 20.5t35.5 44t13 77.5v1004q0 45 -13 72.5t-36.5 42t-54.5 19.5t-64 5h-26v86h596v-86h-27q-35 0 -65.5 -5t-53 -20.5t-36 -44t-13.5 -77.5v-414h666v414q0 47 -13.5 76.5t-36 45t-53 20.5t-65.5 5h-27v86h596v-86h-26q-35 0 -66 -5 t-53.5 -20.5t-35.5 -44t-13 -77.5v-1006q0 -45 13 -72.5t36.5 -42t54.5 -18.5t64 -4h26v-86h-596v86h27q35 0 65.5 5t53 20.5t36 44t13.5 77.5v480h-666v-480q0 -47 13.5 -76.5t36 -45t53 -20.5t65.5 -5h27v-86h-596z" />
<glyph unicode="I" horiz-adv-x="751" d="M78 0v86h26q35 0 66 5t53.5 20.5t35.5 44t13 77.5v996q0 47 -13 76.5t-35.5 45t-53.5 20.5t-66 5h-26v86h596v-86h-27q-35 0 -65.5 -5t-53 -20.5t-36 -44t-13.5 -77.5v-996q0 -47 13.5 -76.5t36 -45t53 -20.5t65.5 -5h27v-86h-596z" />
<glyph unicode="J" horiz-adv-x="729" d="M-23 -395h19q66 0 118 18.5t87 62.5t53 115.5t18 180.5v1255q0 45 -13 72.5t-36.5 42t-54.5 19.5t-64 5h-26v86h596v-86h-27q-35 0 -65.5 -5t-53 -20.5t-36 -44t-13.5 -77.5v-1245q0 -137 -35.5 -229.5t-99 -146.5t-148.5 -77t-184 -23h-35v97z" />
<glyph unicode="K" horiz-adv-x="1433" d="M78 0v86h26q35 0 65 4t53.5 18.5t36.5 42t13 72.5v1014q0 45 -13 72.5t-36.5 42t-54.5 19.5t-64 5h-26v86h596v-86h-27q-35 0 -65.5 -5t-53 -20.5t-36 -44t-13.5 -77.5v-578l424 486q33 39 55.5 68.5t35 53t17.5 42t5 32.5q0 27 -24.5 36t-76.5 9v84h453v-84 q-35 0 -67.5 -13t-65.5 -37.5t-66.5 -60.5t-74.5 -81l-297 -334l432 -602q59 -82 113.5 -123t111.5 -41h4v-86h-22q-102 0 -169 8t-112 28.5t-78 56.5t-71 91l-353 506l-174 -141v-316q0 -47 13.5 -76.5t36 -45t53 -20.5t65.5 -5h27v-86h-596z" />
<glyph unicode="L" horiz-adv-x="1275" d="M78 0v86h26q35 0 66 5t53.5 20.5t35.5 44t13 77.5v996q0 47 -13 76.5t-35.5 45t-53.5 20.5t-66 5h-26v86h596v-86h-27q-35 0 -64.5 -5t-53 -19.5t-37 -42t-13.5 -72.5v-1135h404q45 0 77.5 16.5t54 43t33 59.5t15.5 66l20 153h107l-14 -440h-1098z" />
<glyph unicode="M" horiz-adv-x="1918" d="M78 0v86h26q35 0 65 4t53.5 18.5t36.5 42t13 72.5v1014q0 45 -13 72.5t-36.5 42t-54.5 19.5t-64 5h-26v86h467l424 -1171l420 1171h454v-86h-26q-35 0 -66 -5t-53.5 -20.5t-35.5 -44t-13 -77.5v-996q0 -47 13 -76.5t35.5 -45t53.5 -20.5t66 -5h26v-86h-545v86h7 q33 0 59.5 4t44.5 18.5t29.5 39t13.5 67.5v1094l-469 -1309h-111l-475 1305v-1072q0 -47 10.5 -76.5t30 -45t47 -20.5t60.5 -5h6v-86h-473z" />
<glyph unicode="N" horiz-adv-x="1562" d="M78 0v86h26q35 0 66 5t53.5 20.5t35.5 44t13 77.5v1004q0 45 -13 72.5t-36.5 42t-54.5 19.5t-64 5h-26v86h375l733 -1132v907q0 45 -13.5 72.5t-37 42t-53 19.5t-64.5 5h-27v86h514v-86h-26q-35 0 -66 -5t-53.5 -20.5t-35.5 -44t-13 -77.5v-1229h-146l-768 1180v-947 q0 -47 13.5 -76.5t36 -45t53 -20.5t65.5 -5h27v-86h-514z" />
<glyph unicode="O" horiz-adv-x="1519" d="M115 735q0 170 40 308.5t119.5 236.5t201.5 151.5t286 53.5q156 0 274.5 -53.5t200.5 -151.5t124 -237.5t42 -309.5t-42 -308t-124 -237.5t-202 -153.5t-275 -54q-164 0 -285 54t-200.5 153.5t-119.5 238.5t-40 309zM342 733q0 -152 22.5 -271.5t72.5 -202.5t129 -126 t194 -43t193.5 43t129 126t72 203t21.5 271q0 152 -21.5 271.5t-72 201.5t-128 125t-192.5 43t-195 -43t-130 -125t-72.5 -201.5t-22.5 -271.5z" />
<glyph unicode="P" horiz-adv-x="1236" d="M78 0v86h26q35 0 66 5t53.5 20.5t35.5 44t13 77.5v1004q0 45 -13 72.5t-36.5 42t-54.5 19.5t-64 5h-26v86h575q129 0 224.5 -29.5t157 -85t92 -134t30.5 -179.5q0 -90 -28.5 -175t-93 -149.5t-170 -102.5t-257.5 -38h-129v-346q0 -45 13.5 -72.5t37 -42t53 -18.5t64.5 -4 h68v-86h-637zM479 666h109q92 0 158.5 19.5t108.5 63.5t61.5 112.5t19.5 164.5q0 86 -17.5 149.5t-55.5 105.5t-98 62.5t-147 20.5h-139v-698z" />
<glyph unicode="Q" horiz-adv-x="1519" d="M115 735q0 170 40 308.5t119.5 236.5t201.5 151.5t286 53.5q156 0 274.5 -53.5t200.5 -151.5t124 -237.5t42 -309.5q0 -150 -33 -275.5t-97.5 -222t-158.5 -159t-217 -84.5q8 -104 33.5 -175t64.5 -114t91.5 -60.5t113.5 -17.5h33v-96h-88q-82 0 -162 21.5t-146.5 73.5 t-110.5 140.5t-54 219.5q-141 14 -245.5 74.5t-173.5 157.5t-103.5 228t-34.5 291zM342 733q0 -152 22.5 -271.5t72.5 -202.5t129 -126t194 -43t193.5 43t129 126t72 203t21.5 271q0 152 -21.5 271.5t-72 201.5t-128 125t-192.5 43t-195 -43t-130 -125t-72.5 -201.5 t-22.5 -271.5z" />
<glyph unicode="R" horiz-adv-x="1341" d="M78 0v86h26q35 0 65 4t53.5 18.5t36.5 42t13 72.5v1014q0 45 -13 72.5t-36.5 42t-54.5 19.5t-64 5h-26v86h551q266 0 396 -98t130 -297q0 -82 -26.5 -143.5t-69.5 -106.5t-97.5 -74.5t-107.5 -48.5l281 -444q51 -82 100 -123t115 -41h6v-86h-29q-96 0 -157.5 7 t-104.5 26.5t-73.5 56.5t-65.5 94l-277 461h-170v-422q0 -45 13.5 -72.5t37 -42t53 -18.5t64.5 -4h27v-86h-596zM479 741h144q90 0 150.5 19.5t96 59.5t51 100.5t15.5 140.5q0 82 -17.5 139t-55.5 94t-98 53.5t-147 16.5h-139v-623z" />
<glyph unicode="S" horiz-adv-x="1112" d="M98 268q0 61 38 99.5t110 38.5q2 -63 19.5 -123t50 -105t84 -71.5t122.5 -26.5q137 0 215 66.5t78 191.5q0 55 -16.5 98t-53 80t-97 71t-150.5 70q-94 39 -166 83t-118 99.5t-69.5 122t-23.5 150.5q0 88 33.5 156.5t93 117t141.5 73t180 24.5q92 0 163 -18.5t120 -51.5 t74.5 -74t25.5 -86q0 -66 -44 -99.5t-117 -33.5q0 47 -11.5 94.5t-38 83t-70.5 59t-110 23.5q-59 0 -105 -16t-79 -47t-49.5 -74t-16.5 -96q0 -61 15.5 -107.5t53.5 -84t99.5 -70.5t149.5 -70q90 -37 160.5 -78t119.5 -91t75 -113.5t26 -141.5q0 -96 -36 -173t-101.5 -130 t-158.5 -80.5t-208 -27.5q-100 0 -176 21.5t-128 58t-78 91t-26 117.5z" />
<glyph unicode="T" horiz-adv-x="1253" d="M41 1104l10 358h1153l10 -358h-106l-10 88q-4 35 -14.5 64.5t-29 53t-49 37t-77.5 13.5h-199v-1127q0 -47 13.5 -76.5t36 -45t53 -20.5t65.5 -5h47v-86h-637v86h47q35 0 65 4t53.5 18.5t36.5 42t13 72.5v1137h-196q-45 0 -76 -13.5t-50.5 -37t-28.5 -53t-13 -64.5 l-11 -88h-106z" />
<glyph unicode="U" horiz-adv-x="1466" d="M31 1376v86h596v-86h-27q-35 0 -65.5 -5t-53 -20.5t-36 -44t-13.5 -77.5v-799q0 -88 25.5 -151.5t70.5 -102.5t107.5 -56.5t138.5 -17.5q88 0 152.5 24t107.5 67t63.5 101t20.5 128v815q0 45 -13 72.5t-37 42t-54.5 19.5t-63.5 5h-26v86h514v-86h-27q-35 0 -65.5 -5 t-53 -20.5t-36 -44t-13.5 -77.5v-811q0 -102 -32.5 -183t-96 -137.5t-157 -87t-216.5 -30.5q-121 0 -217 25.5t-162.5 80.5t-101.5 143t-35 213v795q0 45 -13 72.5t-36.5 42t-54.5 19.5t-64 5h-26z" />
<glyph unicode="V" horiz-adv-x="1380" d="M0 1376v86h563v-86h-47q-61 0 -92 -23.5t-31 -74.5q0 -16 4 -34.5t13 -41.5l225 -665q31 -90 53.5 -176.5t38.5 -159.5q16 74 37.5 156.5t56.5 179.5l226 651q8 25 13 48.5t5 39.5q0 53 -34 76.5t-101 23.5h-47v86h499v-86h-39q-31 0 -52 -6t-38.5 -23.5t-33 -48 t-31.5 -81.5l-424 -1217h-150l-442 1268q-10 33 -23.5 53t-31 32.5t-39 17.5t-51.5 5h-27z" />
<glyph unicode="W" horiz-adv-x="2142" d="M18 1376v86h564v-86h-47q-61 0 -92 -23.5t-31 -74.5q0 -16 5 -34.5t11 -41.5l188 -655q27 -92 49.5 -182.5t39.5 -163.5q14 80 35.5 174t47.5 194l244 879h148l256 -887q29 -102 51 -195.5t37 -164.5q14 74 34.5 155.5t47.5 180.5l180 632q2 12 6 26.5t7 30t6 29t3 21.5 q0 53 -33.5 76.5t-101.5 23.5h-47v86h500v-86h-39q-31 0 -53.5 -6t-40 -23.5t-32.5 -48t-30 -81.5l-346 -1217h-184l-334 1147l-313 -1147h-189l-375 1268q-10 33 -22 53t-29.5 32.5t-40 17.5t-53.5 5h-27z" />
<glyph unicode="X" horiz-adv-x="1351" d="M16 0v86h13q37 0 64.5 7t51 24.5t46 44t51.5 67.5l342 490l-338 549q-37 59 -83 83.5t-93 24.5h-27v86h555v-86h-6q-35 0 -57.5 -5t-36 -12t-18.5 -18.5t-5 -23.5q0 -10 1 -20.5t6 -23.5t15.5 -31.5t26.5 -45.5l185 -299l194 295q23 35 37 65.5t14 59.5q0 18 -8 29.5 t-23.5 17.5t-35 9t-43.5 3h-6v86h448v-86h-18q-31 0 -54.5 -7t-47 -24.5t-48 -45t-53.5 -70.5l-297 -428l377 -606q45 -59 85 -84t79 -25h26v-86h-553v86h11q122 0 122 67q0 11 -3 22t-9 26.5t-20.5 37t-34.5 56.5l-203 326l-227 -336q-8 -12 -17.5 -28.5t-17.5 -35t-13 -37 t-5 -34.5q0 -35 32.5 -49.5t100.5 -14.5h6v-86h-488z" />
<glyph unicode="Y" horiz-adv-x="1280" d="M-10 1376v86h563v-86h-76q-29 0 -46 -5t-27.5 -14t-13.5 -21.5t-3 -24.5q0 -29 12.5 -57.5t24.5 -51.5l151 -274q37 -63 62 -125t41 -109q8 23 22.5 49.5t31 57t33.5 63.5t36 64l131 235q20 35 28.5 67t8.5 56q0 45 -32 67.5t-91 22.5h-60v86h500v-86h-24q-23 0 -42.5 -7 t-39 -26.5t-41 -49t-47.5 -76.5l-344 -607v-377q0 -47 13 -76.5t35.5 -45t53.5 -20.5t65 -5h48v-86h-637v86h47q35 0 65.5 4t53 18.5t36 42t13.5 72.5v387l-379 658q-16 29 -31.5 49t-32 33.5t-36 19.5t-46.5 6h-26z" />
<glyph unicode="Z" horiz-adv-x="1210" d="M74 0v82l768 1278h-445q-45 0 -75.5 -13.5t-49 -37t-29 -53t-14.5 -64.5l-10 -88h-106l10 358h971v-84l-770 -1276h516q45 0 76.5 13.5t50 36t29 53.5t14.5 65l10 88h106l-10 -358h-1042z" />
<glyph unicode="[" horiz-adv-x="733" d="M205 -262v1818h457v-86h-89q-35 0 -65.5 -5t-53 -20t-35.5 -45t-13 -77v-1352q0 -47 13 -76.5t35.5 -45t53.5 -20.5t65 -5h89v-86h-457z" />
<glyph unicode="\" horiz-adv-x="589" d="M0 1556h119l471 -1804h-121z" />
<glyph unicode="]" horiz-adv-x="735" d="M76 -176h88q35 0 65.5 5t53 20.5t36 44t13.5 77.5v1352q0 47 -13.5 77t-36 45t-53 20t-65.5 5h-88v86h456v-1818h-456v86z" />
<glyph unicode="^" d="M104 545l431 917h71l432 -917h-137l-332 729l-327 -729h-138z" />
<glyph unicode="_" horiz-adv-x="937" d="M-10 -170h960v-121h-960v121z" />
<glyph unicode="`" horiz-adv-x="1181" d="M393 1548v21h219q16 -35 38 -75t45.5 -81t48 -79t47.5 -66v-27h-78q-41 29 -89.5 70t-93.5 85t-81.5 85t-55.5 67z" />
<glyph unicode="a" horiz-adv-x="1150" d="M102 307q0 164 116 243t351 85l170 6v123q0 55 -6 101t-26.5 80t-57.5 52.5t-100 18.5q-59 0 -95 -16.5t-56.5 -46t-28 -70.5t-7.5 -90q-86 0 -130 29.5t-44 99.5q0 53 29 90t79 60.5t117.5 34.5t143.5 11q94 0 164 -18.5t117 -60.5t70.5 -109.5t23.5 -165.5v-531 q0 -43 7 -71.5t22.5 -45t39 -23.5t58.5 -7h6v-86h-277l-32 176h-17q-33 -43 -62.5 -79t-65.5 -62.5t-82 -40.5t-109 -14q-68 0 -126 19t-101 60t-67 102.5t-24 145.5zM301 297q0 -96 41 -143.5t125 -47.5q61 0 112.5 19.5t86 56.5t54 90.5t19.5 118.5v166l-131 -6 q-86 -4 -145.5 -21.5t-95 -49t-51 -78t-15.5 -105.5z" />
<glyph unicode="b" horiz-adv-x="1255" d="M37 0v86h16q35 0 66 5t53.5 20.5t35.5 44t13 77.5v1098q0 45 -13 73t-37 42t-54.5 19t-63.5 5h-16v86h377v-376q0 -35 -1 -80t-3 -88q-2 -47 -4 -99h8q23 47 52.5 85t67 65t86 41t107.5 14q100 0 178 -33.5t131.5 -103.5t81 -176.5t27.5 -254t-27.5 -256t-81 -178 t-131.5 -103t-178 -33.5q-59 0 -107.5 13t-86 36.5t-67.5 57.5t-52 73h-13l-36 -160h-328zM414 551q0 -106 13 -188t46 -138.5t86 -85t135 -28.5q68 0 115 28.5t78 85t45 138t14 190.5t-14 190.5t-45 136t-79 81t-116 26.5q-80 0 -133 -26.5t-86 -81t-46 -136t-13 -192.5z " />
<glyph unicode="c" horiz-adv-x="1007" d="M113 543q0 164 34.5 274.5t96 178t144.5 95t181 27.5q63 0 127 -12t115 -39t83 -65.5t32 -92.5q0 -72 -46 -100.5t-137 -28.5q0 47 -8 90t-27.5 76t-53 51.5t-85.5 18.5q-59 0 -106 -21.5t-82 -76t-52.5 -145.5t-17.5 -228q0 -217 73 -324.5t237 -107.5q94 0 165.5 40 t106.5 103q14 -12 24.5 -31.5t10.5 -48.5q0 -35 -21.5 -69.5t-65.5 -63.5t-109.5 -46t-151.5 -17q-102 0 -188.5 31.5t-148 99t-96 174t-34.5 258.5z" />
<glyph unicode="d" horiz-adv-x="1255" d="M113 546.5q0 147.5 27.5 256t79.5 178.5t130 103.5t180 33.5q59 0 106.5 -13t86.5 -37t68.5 -56.5t52.5 -73.5h12q-2 49 -6 94q-2 39 -4 76t-2 55v168q0 45 -13.5 73t-37 42t-53 19t-64.5 5h-17v86h377v-1331q0 -45 13.5 -72.5t37 -43t53 -19.5t64.5 -4h17v-86h-347 l-22 184h-8q-23 -47 -52.5 -85t-67.5 -64.5t-86 -40.5t-108 -14q-100 0 -179 33.5t-131 103t-79.5 176t-27.5 254zM311 545q0 -217 59.5 -325.5t194.5 -108.5q80 0 133.5 26.5t86 80.5t46 136t13.5 193q0 106 -13.5 188t-46 138.5t-87 85t-134.5 28.5q-68 0 -116 -28.5 t-77.5 -85t-44 -139.5t-14.5 -189z" />
<glyph unicode="e" horiz-adv-x="1095" d="M113 541q0 287 117.5 432t336.5 145q98 0 177 -30.5t134.5 -92t85 -153.5t29.5 -213v-94h-682q2 -113 22.5 -193t58.5 -132t94.5 -76.5t129.5 -24.5q53 0 98.5 12t82.5 31.5t65.5 45t46.5 54.5q14 -6 26.5 -24.5t12.5 -45.5q0 -31 -22.5 -66.5t-67.5 -65.5t-112.5 -50 t-157.5 -20q-111 0 -200 37.5t-149.5 109.5t-93 176.5t-32.5 237.5zM315 645h471q0 82 -12 148.5t-37.5 114.5t-69 74t-104.5 26q-115 0 -176 -92.5t-72 -270.5z" />
<glyph unicode="f" horiz-adv-x="755" d="M55 0v86h27q35 0 65.5 5t53 20.5t36 44t13.5 77.5v768h-187v97h187v102q0 92 24.5 162t71.5 118t114.5 72.5t151.5 24.5q80 0 135.5 -10.5t88 -29.5t48 -45t15.5 -58q0 -29 -12.5 -49.5t-35 -36t-53 -22.5t-67.5 -7q0 31 -6 60.5t-22.5 52t-42 37t-64.5 14.5 q-43 0 -72.5 -16.5t-48 -50.5t-26 -83t-7.5 -114v-121h289v-97h-289v-768q0 -47 13.5 -76.5t36 -45t53 -20.5t65.5 -5h78v-86h-633z" />
<glyph unicode="g" horiz-adv-x="1101" d="M47 -193q0 59 20.5 104.5t56.5 77t82 52t97 29.5q-20 8 -40.5 23.5t-36 37t-26 48t-10.5 59.5q0 61 32 105t102 87q-43 18 -78 50t-58.5 72t-36 88t-12.5 99q0 88 23.5 159t72 120t120 74.5t169.5 25.5q37 0 73 -5t66.5 -15.5t55 -21.5t39.5 -25q14 16 34.5 35.5t45 36 t54.5 27.5t64 11q31 0 53.5 -8t38 -23.5t22.5 -35t7 -39.5q0 -23 -6 -42.5t-19.5 -33.5t-34 -22.5t-48.5 -8.5q0 12 -3 23.5t-10.5 23t-20.5 17.5t-34 6q-27 0 -47 -6t-41 -19q35 -43 57.5 -101t22.5 -147q0 -76 -22.5 -140t-68.5 -111.5t-116 -74t-162 -26.5h-27.5t-29.5 1 t-27.5 2t-21.5 3q-20 -10 -38 -22t-31 -26.5t-21.5 -34t-8.5 -42.5q0 -25 9.5 -40t27 -23t41 -11t49.5 -3h232q92 0 155.5 -22.5t104.5 -63.5t59.5 -97.5t18.5 -122.5q0 -88 -33 -159.5t-99.5 -120.5t-169 -76t-241.5 -27q-213 0 -319.5 79t-106.5 220zM213 -180 q0 -45 12.5 -84t42 -66.5t80.5 -44t129 -16.5q111 0 181.5 18.5t112.5 51t59.5 78.5t17.5 100q0 47 -13.5 77.5t-40 48t-65.5 24.5t-90 7h-201q-43 0 -84 -7t-71.5 -28.5t-50 -59.5t-19.5 -99zM332 745q0 -131 44 -192t142 -61q49 0 84 15t57.5 46t31.5 80t9 115 q0 137 -42 203.5t-142 66.5q-98 0 -141 -68t-43 -205z" />
<glyph unicode="h" horiz-adv-x="1298" d="M37 0v86h16q35 0 66 5t53.5 20.5t35.5 44t13 77.5v1098q0 45 -13 73t-37 42t-54.5 19t-63.5 5h-16v86h377v-450q0 -29 -1 -58.5t-3 -56.5q-2 -31 -4 -59h10q92 186 301 186q86 0 153.5 -23.5t113.5 -71.5t70.5 -125t24.5 -181v-484q0 -47 12.5 -76.5t33 -45t49 -20.5 t63.5 -5h6v-86h-356v707q0 68 -12.5 120t-38 87.5t-68.5 54t-106.5 18.5t-109.5 -23.5t-77 -66.5t-46 -105.5t-15 -136.5v-432q0 -45 13 -72.5t36.5 -42t54.5 -18.5t64 -4h6v-86h-551z" />
<glyph unicode="i" horiz-adv-x="653" d="M47 0v86h27q35 0 65.5 4t53 18.5t36 42t13.5 72.5v649q0 45 -13.5 73t-36 42t-53 19.5t-65.5 5.5h-6v86h366v-865q0 -47 13.5 -76.5t36 -45t53 -20.5t65.5 -5h27v-86h-582zM213 1430q0 37 9 60t24.5 38.5t37 21.5t46 6t45 -6t36 -21.5t25.5 -39t10 -59.5q0 -37 -10 -60.5 t-25.5 -38t-36 -21.5t-45 -7t-46 7t-37 21.5t-24.5 38t-9 60.5z" />
<glyph unicode="j" horiz-adv-x="612" d="M-25 -395h15q55 0 98 18.5t72.5 62.5t45 115.5t15.5 180.5v890q0 45 -13 73t-37 42t-54.5 19.5t-63.5 5.5h-6v86h367v-1114q0 -137 -30 -229.5t-84 -146.5t-129 -77t-163 -23h-33v97zM193 1430q0 37 9 60t24.5 38.5t37 21.5t45.5 6q25 0 46.5 -6t37 -21.5t24.5 -39 t9 -59.5q0 -37 -9 -60.5t-24.5 -38t-37 -21.5t-46.5 -7t-46 7t-36.5 21.5t-24.5 38t-9 60.5z" />
<glyph unicode="k" horiz-adv-x="1196" d="M37 0v86h16q35 0 66 5t53.5 20.5t35.5 44t13 77.5v1098q0 45 -13 73t-37 42t-54.5 19t-63.5 5h-16v86h377v-790q0 -29 -1 -72t-3 -86q-2 -47 -4 -100l256 280q33 37 54 65t34.5 49.5t18.5 37.5t5 31q0 27 -24.5 34t-75.5 7v86h452v-86q-72 0 -140 -50.5t-148 -140.5 l-144 -162l273 -405q53 -82 105 -125t122 -43h6v-86h-29q-88 0 -146 5t-100 25.5t-77 60.5t-78 108l-205 321l-151 -112v-185q0 -45 13 -72.5t36.5 -42t54.5 -18.5t64 -4h6v-86h-551z" />
<glyph unicode="l" horiz-adv-x="634" d="M27 0v86h26q35 0 66 5t53.5 20.5t35.5 44t13 77.5v1098q0 45 -13 73t-37 42t-54.5 19t-63.5 5h-26v86h387v-1323q0 -47 13 -76.5t35.5 -45t53.5 -20.5t66 -5h26v-86h-581z" />
<glyph unicode="m" horiz-adv-x="1933" d="M57 0v86h27q35 0 63.5 5t50 20.5t33 44t11.5 77.5v639q0 45 -12.5 73t-33 42t-49 19.5t-63.5 5.5h-6v86h321l27 -166h10q31 57 65 94t72.5 57.5t80.5 27.5t91.5 7t94.5 -10t84 -31.5t69.5 -57.5t48.5 -87h17q31 57 66.5 94t76.5 57.5t85 27.5t93 7q78 0 139.5 -23.5 t104.5 -71.5t66.5 -125t23.5 -181v-484q0 -47 12.5 -76.5t33 -45t49 -20.5t63.5 -5h6v-86h-356v707q0 68 -11.5 120t-37 87.5t-66.5 54t-100 18.5q-63 0 -107.5 -24.5t-71 -66.5t-38 -97.5t-11.5 -116.5v-449q0 -47 12.5 -76.5t33 -45t49 -20.5t63.5 -5h6v-86h-356v707 q0 68 -11.5 120t-37 87.5t-66.5 54t-100 18.5q-68 0 -113 -26.5t-72.5 -72.5t-40 -106.5t-12.5 -126.5v-432q0 -45 13.5 -72.5t37 -42t53 -18.5t64.5 -4h6v-86h-551z" />
<glyph unicode="n" horiz-adv-x="1320" d="M57 0v86h17q35 0 65.5 5t53 20.5t36 44t13.5 77.5v639q0 45 -13.5 73t-36 42t-53 19.5t-65.5 5.5h-6v86h331l27 -166h10q33 57 68 94t74.5 57.5t84 27.5t93.5 7q82 0 145.5 -23.5t107.5 -71.5t67.5 -125t23.5 -181v-484q0 -47 11 -76.5t32.5 -45t50.5 -20.5t63 -5h7v-86 h-357v707q0 68 -12 120t-39 87.5t-70 54t-104 18.5q-70 0 -118 -26.5t-76.5 -72.5t-41 -106.5t-12.5 -126.5v-432q0 -45 13.5 -72.5t37 -42t53 -18.5t64.5 -4h6v-86h-551z" />
<glyph unicode="o" horiz-adv-x="1181" d="M113 551q0 287 121.5 427t359.5 140q111 0 199 -34.5t149.5 -105.5t94 -177.5t32.5 -249.5q0 -289 -123 -430t-358 -141q-111 0 -199 34.5t-149.5 106.5t-94 179.5t-32.5 250.5zM311 551q0 -115 15.5 -202t48.5 -145.5t86 -88t131 -29.5t130 29.5t86 88t48 145.5t14 202 t-15 201t-48 143t-86 86t-131 29t-130 -29t-85 -86t-48.5 -143t-15.5 -201z" />
<glyph unicode="p" horiz-adv-x="1255" d="M27 1012v86h358l21 -185h8q23 47 52.5 85t67 65t86 41t107.5 14q100 0 178 -33.5t131.5 -103.5t81 -176.5t27.5 -254t-27.5 -256t-81 -178t-131.5 -103t-178 -33.5q-59 0 -107.5 13t-86 36.5t-67.5 57.5t-52 73h-8q2 -53 4 -99q0 -18 1 -39.5t2 -39t1 -31.5v-23v-196 q0 -45 13 -73t36.5 -42t54.5 -18.5t64 -4.5h6v-86h-551v86h16q35 0 66 5.5t53.5 20.5t35.5 45t13 77v1130q0 45 -13 73t-37 42t-54.5 19.5t-63.5 5.5h-26zM414 551q0 -106 13 -188t46 -138.5t86 -85t135 -28.5q68 0 115 28.5t78 85t45 138t14 190.5t-14 190.5t-45 136 t-79 81t-116 26.5q-80 0 -133 -26.5t-86 -81t-46 -136t-13 -192.5z" />
<glyph unicode="q" horiz-adv-x="1255" d="M113 546.5q0 147.5 27.5 256t79.5 178.5t130 103.5t180 33.5q59 0 106.5 -13t86.5 -37t68.5 -56.5t52.5 -73.5h12l37 160h328v-86h-17q-35 0 -65.5 -5.5t-53 -20.5t-36 -45t-13.5 -77v-1130q0 -45 13.5 -73t37 -42t53 -19.5t64.5 -5.5h17v-86h-613v86h68q35 0 65.5 5.5 t53 20.5t36 45t13.5 77v176q0 35 1 80t3 88q2 47 4 98h-8q-23 -47 -52.5 -85t-67.5 -64.5t-86 -40.5t-108 -14q-100 0 -179 33.5t-131 103t-79.5 176t-27.5 254zM311 545q0 -217 59.5 -325.5t194.5 -108.5q80 0 133.5 26.5t86 80.5t46 136t13.5 193q0 106 -13.5 188 t-46 138.5t-87 85t-134.5 28.5q-68 0 -116 -28.5t-77.5 -85t-44 -139.5t-14.5 -189z" />
<glyph unicode="r" horiz-adv-x="964" d="M68 0v86h6q35 0 65.5 5t53 20.5t36 44t13.5 77.5v639q0 45 -13.5 73t-36 42t-53 19.5t-65.5 5.5h-6v86h315l39 -203h10q20 45 41 86t51.5 71.5t75.5 48t113 17.5q113 0 167 -39t54 -110q0 -33 -10.5 -59.5t-34 -46t-59 -30t-87.5 -10.5q0 86 -24.5 123t-83.5 37 q-39 0 -68.5 -21.5t-52 -57.5t-38 -82t-25 -94t-13.5 -96t-4 -87v-322q0 -45 13.5 -72.5t37 -42t53 -18.5t64.5 -4h57v-86h-591z" />
<glyph unicode="s" horiz-adv-x="923" d="M92 197q0 41 13.5 68.5t33 44t42 22.5t40.5 6q0 -53 11.5 -100.5t37 -83t68.5 -56t104 -20.5q55 0 97.5 13t71 38t43 59.5t14.5 75.5q0 39 -11.5 65.5t-40 51.5t-78 49.5t-122.5 56.5q-80 35 -138.5 68t-96.5 71t-56.5 86t-18.5 115q0 70 28 124.5t78 90t122 55t158 19.5 q74 0 130 -15.5t94 -41t56.5 -59t18.5 -72.5q0 -55 -38 -89t-110 -34q0 102 -43 159.5t-133 57.5q-51 0 -88 -12.5t-60.5 -34t-35 -51t-11.5 -66.5q0 -39 13.5 -67.5t44 -52t80 -46t116.5 -51.5q82 -35 139.5 -67.5t95.5 -71.5t55.5 -88t17.5 -113q0 -80 -29 -140.5 t-82 -100.5t-128 -60t-165 -20q-78 0 -140.5 13t-106.5 40.5t-67.5 68.5t-23.5 95z" />
<glyph unicode="t" horiz-adv-x="720" d="M39 981v82q37 0 82 15.5t78 49.5q35 39 56 91.5t38 130.5h94v-252h268v-117h-268v-690q0 -104 42 -153.5t114 -49.5q37 0 67.5 4t63.5 10v-90q-12 -6 -34 -12t-46.5 -10t-51 -7t-50.5 -3q-78 0 -134.5 16t-92.5 53t-53 98.5t-17 149.5v684h-156z" />
<glyph unicode="u" horiz-adv-x="1298" d="M47 1012v86h367v-707q0 -68 10 -120t34.5 -88t66.5 -54t104 -18q68 0 117 24.5t79.5 67.5t46 104.5t15.5 134.5v422q0 47 -13.5 77t-36 45t-53 20.5t-65.5 5.5h-6v86h366v-875q0 -45 13.5 -72.5t36 -42t53 -18.5t65.5 -4h6v-86h-325l-27 166h-10q-31 -57 -69 -93 t-80 -56.5t-88 -28.5t-95 -8q-82 0 -144.5 23.5t-105.5 72.5t-65.5 124.5t-22.5 180.5v491q0 45 -13 73t-37 42t-54.5 19.5t-63.5 5.5h-6z" />
<glyph unicode="v" horiz-adv-x="1185" d="M8 1012v86h512v-86h-26q-61 0 -92 -23.5t-31 -75.5q0 -16 4 -34.5t12 -40.5l139 -387q12 -37 26.5 -80t27 -85t22.5 -79t14 -64h7q4 23 16 54.5t26.5 70.5t30 79t29.5 77l147 399q10 25 14.5 48.5t4.5 39.5q0 53 -34 77t-101 24h-15v86h439v-86h-25q-31 0 -51.5 -6.5 t-37.5 -24.5t-32.5 -49t-34.5 -80l-323 -852h-187l-329 903q-12 33 -24.5 53.5t-30 32.5t-40 17.5t-51.5 5.5h-6z" />
<glyph unicode="w" horiz-adv-x="1763" d="M2 1012v86h506v-86h-27q-61 0 -92 -17.5t-31 -68.5q0 -16 5.5 -41t11.5 -47l96 -344q10 -37 21.5 -81t20.5 -87t17.5 -81t12.5 -65h6q4 27 13 60.5t20.5 73.5t25 81t25.5 78l213 619h129l205 -607q12 -37 25.5 -80t25.5 -83.5t22.5 -77.5t14.5 -64h6q8 51 28.5 126 t51.5 173l102 330q8 27 13.5 56.5t5.5 45.5q0 53 -33 77t-103 24h-14v86h438v-86h-26q-31 0 -52.5 -6.5t-39 -23.5t-33 -48t-29.5 -82l-264 -852h-164l-244 721l-37 135l-290 -856h-162l-268 903q-12 33 -24.5 53.5t-30 32.5t-39 17.5t-52.5 5.5h-6z" />
<glyph unicode="x" horiz-adv-x="1183" d="M10 0v86h19q37 0 65.5 6t53 20.5t49 40t55.5 64.5l258 334l-258 352q-45 53 -87 81t-89 28h-27v86h520v-86h-6q-35 0 -58.5 -4t-35.5 -13.5t-17.5 -19.5t-5.5 -23q0 -20 12.5 -40.5t35.5 -53.5l135 -184l106 153q23 35 37 65.5t14 59.5q0 37 -31.5 48.5t-78.5 11.5h-6v86 h448v-86h-18q-31 0 -54.5 -5.5t-47 -18.5t-49 -39.5t-56.5 -67.5l-211 -281l301 -405q45 -59 86 -84t78 -25h27v-86h-529v86h10q123 0 123 68q0 10 -3 22t-12 27.5t-23.5 37t-39.5 54.5l-137 184l-143 -200q-8 -12 -18.5 -27.5t-18.5 -33t-13 -35t-5 -33.5q0 -35 29.5 -49.5 t97.5 -14.5h6v-86h-488z" />
<glyph unicode="y" horiz-adv-x="1155" d="M8 1012v86h492v-86h-6q-61 0 -92 -23.5t-31 -75.5q0 -16 4 -34.5t12 -40.5l150 -365q14 -35 29.5 -77t28.5 -82t24.5 -75.5t15.5 -62.5h6q10 45 29.5 109.5t46.5 138.5l137 399q8 25 13 48.5t5 39.5q0 53 -33.5 77t-101.5 24h-6v86h426v-86h-6q-31 0 -52.5 -6.5 t-39 -24.5t-31.5 -49t-33 -80l-311 -860q-37 -98 -68.5 -173t-66.5 -129.5t-77 -89t-94 -55t-122 -29t-160 -8.5h-18v97q104 0 179 30.5t129 85t91 128t62 159.5l-379 895q-14 33 -26.5 53.5t-30 32.5t-39 17.5t-50.5 5.5h-6z" />
<glyph unicode="z" horiz-adv-x="1046" d="M86 0v82l594 899h-320q-41 0 -66.5 -10t-41.5 -31.5t-27.5 -52.5t-21.5 -72l-2 -8h-86l20 291h785v-84l-596 -897h372q37 0 59.5 14t39 36.5t25.5 53.5t16 64l10 47h86l-10 -332h-836z" />
<glyph unicode="{" horiz-adv-x="876" d="M102 606v86q51 2 95.5 12.5t77 35t51 65.5t18.5 102v357q0 139 75 215.5t220 76.5h135v-88h-61q-90 0 -129 -54t-39 -161v-350q0 -100 -56.5 -166.5t-171.5 -85.5v-2q119 -20 173.5 -85.5t54.5 -168.5v-354q0 -104 39 -159.5t129 -55.5h61v-88h-135q-72 0 -127 21.5 t-92 59.5t-56.5 92t-19.5 122v356q0 63 -18.5 104.5t-51 66t-76.5 34.5t-96 12z" />
<glyph unicode="|" d="M510 -492v2048h123v-2048h-123z" />
<glyph unicode="}" horiz-adv-x="876" d="M102 -174h62q90 0 129 55.5t39 159.5v354q0 102 54 168t173 86v2q-115 18 -171 85t-56 167v350q0 106 -38 160.5t-130 54.5h-62v88h136q145 0 219.5 -75.5t74.5 -216.5v-357q0 -61 18.5 -102t51.5 -65.5t77 -35t95 -12.5v-86q-51 -2 -95 -12t-77 -34.5t-51.5 -65.5 t-18.5 -105v-356q0 -68 -19 -122t-56 -92t-92.5 -59.5t-126.5 -21.5h-136v88z" />
<glyph unicode="~" horiz-adv-x="1148" d="M113 551q6 63 18 127.5t41 116t76 83t123 31.5q35 0 68.5 -13t65.5 -32.5t60.5 -44t52.5 -45.5q23 -20 43.5 -38.5t41 -33t42 -22.5t41.5 -8q57 0 84 61.5t41 175.5h123q-6 -63 -20.5 -127.5t-43 -116t-74.5 -83t-120 -31.5q-31 0 -62.5 12t-63.5 31.5t-60.5 42 t-50.5 43.5q-23 20 -45.5 39.5t-44 35t-43 24.5t-44.5 9q-59 0 -88.5 -58t-40.5 -179h-120z" />
<glyph unicode="&#xa1;" horiz-adv-x="681" d="M211 971q0 39 10 65.5t27.5 43t41 23.5t50.5 7t50.5 -7t41 -23.5t27.5 -43t10 -65.5q0 -41 -10 -67.5t-27.5 -42t-41 -23t-50.5 -7.5t-50.5 7.5t-41 23t-27.5 43t-10 66.5zM221 -367l72 1051h94l72 -1051h-238z" />
<glyph unicode="&#xa2;" d="M162 739q0 152 32.5 258.5t90 173t134.5 100.5t165 42v149h102v-149q59 -4 117.5 -18.5t105.5 -40t77 -63.5t30 -85q0 -72 -45 -100.5t-137 -28.5q0 43 -9.5 81t-27 68.5t-45 51t-66.5 28.5v-909q43 0 85 6t81 15.5t72.5 20.5t58.5 23v-112q-53 -29 -130 -50.5 t-167 -23.5v-176h-102v180q-92 10 -170 45t-134.5 101.5t-87 169t-30.5 243.5zM360 741q0 -182 54.5 -291.5t169.5 -140.5v897q-49 -8 -90 -36.5t-71 -84t-46.5 -139.5t-16.5 -205z" />
<glyph unicode="&#xa3;" d="M100 690v96h189q-14 33 -27.5 72t-25 81t-18.5 86t-7 87q0 88 28.5 156.5t83 117t132 73t174.5 24.5q98 0 167.5 -17.5t112.5 -48.5t62.5 -72.5t19.5 -91.5q0 -66 -44 -99.5t-118 -33.5q0 47 -9 94.5t-30.5 83t-62.5 59t-106 23.5q-119 0 -174.5 -68.5t-55.5 -195.5 q0 -47 8.5 -93t19.5 -89t25.5 -81t26.5 -67h348v-96h-319q14 -51 27.5 -104.5t13.5 -114.5q0 -88 -49.5 -155.5t-131.5 -122.5l5 -9q43 20 78.5 28.5t70.5 8.5q41 0 90 -12t97.5 -26.5t93.5 -27t75 -12.5q37 0 67 10.5t57.5 28t50 39t40.5 43.5v-133q-18 -25 -42.5 -52.5 t-58.5 -49t-75 -35.5t-92 -14t-100 14t-99.5 31.5t-101.5 32t-106 14.5q-68 0 -127.5 -19.5t-124.5 -50.5l-27 -12v108l37 23q39 23 76 55.5t67.5 75.5t49 94t18.5 113q0 59 -15.5 117.5t-35.5 113.5h-228z" />
<glyph unicode="&#xa4;" d="M131 379l133 135q-33 45 -50 101.5t-17 117.5t17 116.5t52 102.5l-135 135l86 87l133 -136q47 35 102.5 53.5t118.5 18.5q59 0 114.5 -19.5t102.5 -52.5l138 138l86 -89l-135 -135q35 -45 53 -101t18 -118q0 -61 -18.5 -117.5t-52.5 -101.5l135 -135l-84 -86l-137 135 q-47 -33 -102.5 -51.5t-117.5 -18.5q-61 0 -116.5 17.5t-102.5 52.5l-135 -135zM311 733q0 -53 20.5 -101t56.5 -84t82 -56.5t101.5 -20.5t103.5 20.5t83 56.5t55.5 84t20.5 101q0 55 -20.5 103.5t-55.5 84t-83 56t-104 20.5q-53 0 -100 -20.5t-83 -56t-56.5 -84 t-20.5 -103.5z" />
<glyph unicode="&#xa5;" d="M10 1376v86h498v-86h-14q-61 0 -89 -19.5t-28 -60.5q0 -25 8 -55.5t25 -64.5l98 -218q14 -33 28.5 -69.5t26.5 -72.5t22.5 -66.5t16.5 -51.5q4 10 13.5 32t20.5 47.5t23.5 52t22.5 47.5l117 249q25 53 37 99.5t12 68.5q0 43 -28.5 62.5t-96.5 19.5h-6v86h418v-86h-19 q-27 0 -45 -7t-34.5 -25.5t-35 -49t-40.5 -77.5l-250 -519h254v-96h-287v-143h287v-97h-287v-129q0 -47 13.5 -76.5t36 -45t53 -20.5t65.5 -5h47v-86h-629v86h47q35 0 65 4t52.5 18.5t35.5 42t15 72.5v139h-286v97h286v143h-286v96h247l-278 570q-14 31 -27.5 51t-30 33.5 t-38 18.5t-50.5 5h-6z" />
<glyph unicode="&#xa6;" d="M510 328h123v-820h-123v820zM510 737v819h123v-819h-123z" />
<glyph unicode="&#xa7;" horiz-adv-x="1112" d="M160 772q0 78 33.5 135.5t87.5 93.5q-39 45 -57.5 100.5t-18.5 129.5q0 78 28.5 138.5t78.5 102t120 63t150 21.5q84 0 146.5 -17t104 -48t62 -73t20.5 -91q0 -66 -39.5 -95.5t-105.5 -29.5q0 47 -10 92t-34 81t-60.5 57.5t-92.5 21.5q-102 0 -158.5 -51t-56.5 -148 q0 -53 20.5 -90t60.5 -66.5t99.5 -57t137.5 -66.5q86 -43 149.5 -84t104.5 -87t60.5 -97.5t19.5 -110.5q0 -37 -10.5 -74t-28 -69.5t-39 -62.5t-45.5 -54q29 -41 46 -90t17 -113q0 -82 -22.5 -148.5t-69.5 -114.5t-121.5 -75.5t-179.5 -27.5q-80 0 -144.5 15t-110.5 46 t-70.5 75t-24.5 101q0 43 13 69.5t32.5 43t42 23.5t41.5 7q0 -53 13 -104t42 -90t74 -62.5t106 -23.5q127 0 188.5 55t61.5 150q0 45 -11 78.5t-48 67.5t-108.5 74t-192.5 99q-82 41 -139.5 82t-93 87t-52 98.5t-16.5 113.5zM291 823q0 -41 14 -73.5t48 -64.5t91.5 -64.5 t145.5 -75.5q61 -31 121.5 -62.5t109.5 -74.5q16 25 27.5 53t11.5 63t-10 66t-39 62.5t-80 66.5t-133 76q-74 35 -138.5 68.5t-117.5 76.5q-23 -20 -37 -48t-14 -69z" />
<glyph unicode="&#xa8;" horiz-adv-x="1181" d="M291 1409q0 33 8 54.5t22.5 34.5t33 19.5t40.5 6.5q23 0 41.5 -6.5t32.5 -19.5t22.5 -34.5t8.5 -54.5q0 -31 -8.5 -53.5t-22.5 -35.5t-32.5 -19.5t-41.5 -6.5q-45 0 -74.5 26t-29.5 89zM680 1409q0 33 8 54.5t22.5 34.5t33 19.5t40.5 6.5q23 0 41.5 -6.5t32.5 -19.5 t22.5 -34.5t8.5 -54.5q0 -31 -8.5 -53.5t-22.5 -35.5t-32.5 -19.5t-41.5 -6.5q-45 0 -74.5 26t-29.5 89z" />
<glyph unicode="&#xa9;" horiz-adv-x="1730" d="M113 731q0 104 27.5 200.5t75.5 179.5t116.5 152.5t151.5 119t179.5 76t200.5 26.5t200.5 -26.5t179.5 -76t152.5 -119t119 -152.5t76 -179t26.5 -201q0 -104 -26.5 -200.5t-76 -179.5t-119 -151.5t-152.5 -117.5t-179 -75.5t-201 -26.5q-104 0 -200.5 26.5t-179.5 75.5 t-151.5 117.5t-116.5 151.5t-75.5 179.5t-27.5 200.5zM225 731q0 -88 22.5 -170t64.5 -152.5t100.5 -129t129 -100.5t152.5 -64.5t170 -22.5t170 22.5t154 64.5t130 100.5t99 129t64.5 152.5t23.5 170t-23.5 170t-64.5 153.5t-99 130t-130 99.5t-154 64.5t-170 23.5 t-170 -23.5t-152.5 -64.5t-129 -99.5t-100.5 -130t-64.5 -153.5t-22.5 -170zM465 733q0 100 27.5 183t84 142.5t137.5 93.5t189 34q72 0 124 -11.5t87 -31t52.5 -46t17.5 -57.5q0 -23 -11.5 -41t-30 -30.5t-44 -18.5t-54.5 -6q0 29 -8 56.5t-24.5 50t-44 36t-68.5 13.5 q-72 0 -123 -23.5t-82.5 -71t-46 -116t-14.5 -156.5q0 -176 69.5 -272t198.5 -96q47 0 87 12t72 31.5t55.5 45t37.5 50.5q12 -8 20.5 -24.5t8.5 -39.5q0 -29 -19.5 -57.5t-57.5 -53t-96.5 -39t-134.5 -14.5q-102 0 -179 33t-128 93.5t-76.5 144.5t-25.5 186z" />
<glyph unicode="&#xaa;" horiz-adv-x="780" d="M72 987.5q0 102.5 80.5 150.5t248.5 56l88 4v59q0 31 -4 56.5t-14 44t-29.5 29t-54.5 10.5q-31 0 -50.5 -11.5t-29.5 -30t-14 -44t-4 -54.5q-78 0 -120 20.5t-42 68.5q0 35 21.5 59.5t57.5 38.5t84 21.5t101 7.5q68 0 118 -11.5t84 -38t50 -68.5t16 -104v-311 q0 -45 19.5 -62.5t69.5 -17.5v-69h-199l-37 94h-10q-18 -20 -40 -40t-48.5 -34t-58 -23.5t-70.5 -9.5q-98 0 -155.5 53.5t-57.5 156zM250 985q0 -63 26.5 -88t67.5 -25q35 0 61.5 12.5t45 34t28.5 51t10 66.5v97l-63 -3q-49 0 -83 -11t-54.5 -29.5t-29.5 -44t-9 -60.5z" />
<glyph unicode="&#xab;" horiz-adv-x="1052" d="M133 520v66l313 356h103l-207 -389l207 -389h-103zM504 520v66l313 356h103l-207 -389l207 -389h-103z" />
<glyph unicode="&#xac;" d="M133 672v121h879v-541h-123v420h-756z" />
<glyph unicode="&#xad;" horiz-adv-x="634" d="M51 481v154h533v-154h-533z" />
<glyph unicode="&#xae;" horiz-adv-x="1730" d="M113 731q0 104 27.5 200.5t75.5 179.5t116.5 152.5t151.5 119t179.5 76t200.5 26.5t200.5 -26.5t179.5 -76t152.5 -119t119 -152.5t76 -179t26.5 -201q0 -104 -26.5 -200.5t-76 -179.5t-119 -151.5t-152.5 -117.5t-179 -75.5t-201 -26.5q-104 0 -200.5 26.5t-179.5 75.5 t-151.5 117.5t-116.5 151.5t-75.5 179.5t-27.5 200.5zM225 731q0 -88 22.5 -170t64.5 -152.5t100.5 -129t129 -100.5t152.5 -64.5t170 -22.5t170 22.5t154 64.5t130 100.5t99 129t64.5 152.5t23.5 170t-23.5 170t-64.5 153.5t-99 130t-130 99.5t-154 64.5t-170 23.5 t-170 -23.5t-152.5 -64.5t-129 -99.5t-100.5 -130t-64.5 -153.5t-22.5 -170zM477 289v69h27q20 0 37.5 2t32 10.5t21.5 22t9 37.5v600q0 25 -8 39t-22.5 21.5t-32 9.5t-37.5 2h-27v72h369q352 0 352 -244q0 -49 -16.5 -86t-42 -63.5t-59 -45t-68.5 -30.5l182 -293 q10 -16 19.5 -26.5t22.5 -17t30.5 -8.5t42.5 -2v-69h-217l-226 381h-108v-240q2 -25 10 -38t21.5 -21.5t31 -10.5t37.5 -2h29v-69h-410zM758 748h86q55 0 92 11t59.5 32.5t31.5 56.5t9 80t-11 76.5t-34.5 51t-60.5 29t-92 9.5h-80v-346z" />
<glyph unicode="&#xaf;" horiz-adv-x="937" d="M-10 1556v121h960v-121h-960z" />
<glyph unicode="&#xb0;" horiz-adv-x="817" d="M98 1151q0 66 24.5 122t66.5 98t98.5 66.5t120.5 24.5q66 0 122 -24.5t98 -66.5t66.5 -98t24.5 -122q0 -63 -24.5 -119.5t-66.5 -98.5t-98.5 -66.5t-121.5 -24.5q-63 0 -120 24.5t-99 66.5t-66.5 98.5t-24.5 119.5zM221 1151q0 -39 14.5 -73t40 -59.5t59.5 -40.5t73 -15 q41 0 74.5 15t59 40.5t40 59.5t14.5 73q0 41 -14.5 75t-40 59.5t-59 40.5t-74.5 15q-39 0 -73 -15t-59.5 -40.5t-40 -59.5t-14.5 -75z" />
<glyph unicode="&#xb1;" d="M133 0v121h879v-121h-879zM133 672v121h377v378h123v-378h379v-121h-379v-379h-123v379h-377z" />
<glyph unicode="&#xb2;" horiz-adv-x="817" d="M86 586v92l260 233q45 41 76 83t49 84t26.5 84t8.5 83q0 35 -6 62.5t-20.5 49t-38 33t-56.5 11.5q-37 0 -62.5 -14.5t-42 -39t-23.5 -57.5t-7 -67q-70 0 -109 17t-39 71q0 37 17.5 68.5t53.5 54t89 36t123 13.5q143 0 224 -56t81 -165q0 -47 -11 -89.5t-37 -84t-69 -87 t-106 -100.5l-217 -186h297q47 0 65.5 25.5t24.5 58.5l8 43h70l-6 -256h-623z" />
<glyph unicode="&#xb3;" horiz-adv-x="817" d="M82 741q0 45 25.5 73t68.5 28q0 -33 10.5 -63.5t32 -56.5t54 -41t77.5 -15q86 0 134 42t48 136q0 72 -52 114.5t-165 42.5h-67v84h67q39 0 72 12.5t57.5 35t39 55.5t14.5 74q0 68 -27 103.5t-90 35.5q-39 0 -64.5 -14.5t-42 -39t-22.5 -57.5t-6 -67q-35 0 -63.5 4t-48 13 t-30 26.5t-10.5 44.5q0 37 18.5 68.5t55.5 54t90 36t123 13.5q68 0 124 -14.5t96 -40t61.5 -63.5t21.5 -85q0 -45 -17.5 -81t-45 -62.5t-66.5 -46t-80 -31.5v-10q41 -6 84 -18.5t79 -36t58.5 -60.5t22.5 -92q0 -76 -34 -127t-86 -83t-117 -45.5t-126 -13.5 q-133 0 -203.5 46.5t-70.5 121.5z" />
<glyph unicode="&#xb4;" horiz-adv-x="1181" d="M391 1241v27q23 29 47.5 66.5t48 78.5t45 82t37.5 74h219v-21q-18 -27 -56 -67.5t-83 -84.5t-92 -85t-88 -70h-78z" />
<glyph unicode="&#xb5;" horiz-adv-x="1259" d="M176 -248q0 61 3 132t7 156t9.5 189.5t5.5 231.5v637h192v-688q0 -68 10.5 -122.5t34 -94t62.5 -61t98 -21.5q57 0 103.5 24.5t78 67.5t49 104.5t17.5 134.5v656h192v-834q0 -45 12.5 -78.5t31 -55t41 -33t44.5 -11.5h7v-86h-111q-84 0 -132 42t-67 122h-8 q-25 -41 -52.5 -75t-61 -58.5t-77 -37.5t-96.5 -13q-86 0 -147.5 31.5t-102.5 88.5q2 -86 7.5 -157.5t22 -126t48 -87t88.5 -42.5q0 -39 -8 -72t-26.5 -56.5t-45 -37t-63.5 -13.5q-33 0 -62.5 11.5t-52 40t-37 76t-14.5 116.5z" />
<glyph unicode="&#xb6;" horiz-adv-x="1263" d="M82 1192q0 82 17.5 149.5t55.5 114.5t97 73.5t147 26.5h781v-86h-27q-35 0 -65.5 -5t-53 -20t-36 -45t-13.5 -77v-1317q0 -47 13.5 -76.5t36 -45t53 -20.5t65.5 -5h27v-86h-320v1679h-194v-1679h-320v86h27q35 0 65.5 5t53 20.5t36 44t13.5 77.5v785h-146 q-90 0 -150.5 32.5t-96 88t-51 128t-15.5 152.5z" />
<glyph unicode="&#xb7;" horiz-adv-x="585" d="M166 729q0 41 10 67.5t27.5 42t41 22.5t50.5 7t50.5 -7t40.5 -22.5t27.5 -43t10.5 -66.5t-10.5 -65.5t-27.5 -43t-40.5 -23.5t-50.5 -7t-50.5 7t-41 23.5t-27.5 43t-10 65.5z" />
<glyph unicode="&#xb8;" horiz-adv-x="681" d="M123 -365q37 -8 73.5 -12t65.5 -4q59 0 92 31t33 84q0 59 -44 90t-110 35l43 159h97l-21 -88q100 -8 149.5 -57t49.5 -131q0 -109 -69.5 -171.5t-200.5 -62.5q-16 0 -36 1.5t-41.5 4.5t-42 8t-38.5 9v104z" />
<glyph unicode="&#xb9;" horiz-adv-x="817" d="M133 1325v70h103q23 0 49 3t49.5 12t43 24.5t28.5 38.5h102v-738q0 -27 7 -42t18.5 -23t26.5 -10.5t34 -2.5h94v-69h-543v69h95q18 0 33.5 2.5t26.5 10.5t17.5 23.5t6.5 41.5v590h-191z" />
<glyph unicode="&#xba;" horiz-adv-x="811" d="M72 1126.5q0 176.5 85 261.5t253 85q78 0 138 -21.5t103 -65t66.5 -108t23.5 -152.5q0 -176 -85 -262t-250 -86q-158 0 -246 86t-88 262.5zM250 1126q0 -133 34.5 -199.5t123.5 -66.5q86 0 121.5 66.5t35.5 199.5q0 131 -36.5 195.5t-122.5 64.5t-121 -64.5t-35 -195.5z " />
<glyph unicode="&#xbb;" horiz-adv-x="1052" d="M133 164l207 389l-207 389h103l313 -356v-66l-313 -356h-103zM504 164l207 389l-207 389h102l314 -356v-66l-314 -356h-102z" />
<glyph unicode="&#xbc;" horiz-adv-x="1718" d="M47 1325v70h103q23 0 49 3t49.5 12t43 24.5t28.5 38.5h102v-738q0 -27 7 -42t18.5 -23t26.5 -10.5t34 -2.5h94v-69h-543v69h95q18 0 33.5 2.5t26.5 10.5t17.5 23.5t6.5 41.5v590h-191zM430 0l731 1462h134l-729 -1462h-136zM930 260v61l383 564h164v-537h196v-88h-196 v-113q0 -27 7 -42t19 -23t27.5 -10.5t32.5 -2.5h41v-69h-451v69h57q16 0 31.5 2.5t27 10.5t18.5 23.5t7 41.5v113h-364zM1051 348h243v231q0 33 3 73t8 79q-8 -16 -16.5 -33.5t-14.5 -25.5z" />
<glyph unicode="&#xbd;" horiz-adv-x="1718" d="M47 1325v70h103q23 0 49 3t49.5 12t43 24.5t28.5 38.5h102v-738q0 -27 7 -42t18.5 -23t26.5 -10.5t34 -2.5h94v-69h-543v69h95q18 0 33.5 2.5t26.5 10.5t17.5 23.5t6.5 41.5v590h-191zM389 0l731 1462h134l-729 -1462h-136zM1016 0v92l260 233q45 41 76 83t49 84t26.5 84 t8.5 83q0 35 -6 62.5t-20.5 49t-38 33t-56.5 11.5q-37 0 -62.5 -14.5t-42 -39t-23.5 -57.5t-7 -67q-70 0 -109 17t-39 71q0 37 17.5 68.5t53.5 54t89 36t123 13.5q143 0 224 -56t81 -165q0 -47 -11 -89.5t-37 -84t-69 -87t-106 -100.5l-217 -186h297q47 0 65.5 25.5 t24.5 58.5l8 43h70l-6 -256h-623z" />
<glyph unicode="&#xbe;" horiz-adv-x="1718" d="M82 741q0 45 25.5 73t68.5 28q0 -33 10.5 -63.5t32 -56.5t54 -41t77.5 -15q86 0 134 42t48 136q0 72 -52 114.5t-165 42.5h-67v84h67q39 0 72 12.5t57.5 35t39 55.5t14.5 74q0 68 -27 103.5t-90 35.5q-39 0 -64.5 -14.5t-42 -39t-22.5 -57.5t-6 -67q-35 0 -63.5 4t-48 13 t-30 26.5t-10.5 44.5q0 37 18.5 68.5t55.5 54t90 36t123 13.5q68 0 124 -14.5t96 -40t61.5 -63.5t21.5 -85q0 -45 -17.5 -81t-45 -62.5t-66.5 -46t-80 -31.5v-10q41 -6 84 -18.5t79 -36t58.5 -60.5t22.5 -92q0 -76 -34 -127t-86 -83t-117 -45.5t-126 -13.5 q-133 0 -203.5 46.5t-70.5 121.5zM471 0l731 1462h134l-729 -1462h-136zM930 260v61l383 564h164v-537h196v-88h-196v-113q0 -27 7 -42t19 -23t27.5 -10.5t32.5 -2.5h41v-69h-451v69h57q16 0 31.5 2.5t27 10.5t18.5 23.5t7 41.5v113h-364zM1051 348h243v231q0 33 3 73t8 79 q-8 -16 -16.5 -33.5t-14.5 -25.5z" />
<glyph unicode="&#xbf;" horiz-adv-x="1024" d="M104 -18q0 84 27 153.5t77 126.5t125 103.5t169 85.5v231h125v-311q-88 -37 -148.5 -84t-97.5 -102.5t-52.5 -116t-15.5 -121.5q0 -53 13.5 -96.5t40 -75t68.5 -48t102 -16.5q63 0 107 20.5t70.5 57.5t39 84t12.5 100q37 0 67.5 -8t53 -25.5t36 -42t13.5 -57.5 q0 -49 -22.5 -91t-69.5 -72.5t-120 -48t-171 -17.5q-96 0 -178 24.5t-142.5 72.5t-94.5 117t-34 157zM438 969q0 39 10.5 65.5t28 43t41 23.5t50 7t50 -7t41 -23.5t27.5 -43t10 -65.5q0 -41 -10 -68t-27.5 -42t-41 -22.5t-50 -7.5t-50 7.5t-41 22.5t-28 43t-10.5 67z" />
<glyph unicode="&#xc0;" horiz-adv-x="1443" d="M0 0v86h39q31 0 51.5 6t37.5 24.5t32.5 49.5t34.5 80l454 1216h160l463 -1267q12 -33 24.5 -53.5t29.5 -33t38.5 -17.5t52.5 -5h27v-86h-563v86h47q123 0 123 98q0 16 -4.5 35t-12.5 41l-82 229h-538l-78 -215q-8 -25 -13.5 -48t-5.5 -40q0 -51 34 -75.5t102 -24.5h47 v-86h-500zM407 1886v21h219q16 -35 38 -75t45.5 -81t48 -79t47.5 -66v-27h-78q-41 29 -89.5 70t-93.5 85t-81.5 85t-55.5 67zM453 592h462l-127 358q-33 90 -59.5 170t-42.5 154q-6 -37 -16.5 -72t-20.5 -70.5t-24.5 -74.5t-32.5 -88z" />
<glyph unicode="&#xc1;" horiz-adv-x="1443" d="M0 0v86h39q31 0 51.5 6t37.5 24.5t32.5 49.5t34.5 80l454 1216h160l463 -1267q12 -33 24.5 -53.5t29.5 -33t38.5 -17.5t52.5 -5h27v-86h-563v86h47q123 0 123 98q0 16 -4.5 35t-12.5 41l-82 229h-538l-78 -215q-8 -25 -13.5 -48t-5.5 -40q0 -51 34 -75.5t102 -24.5h47 v-86h-500zM453 592h462l-127 358q-33 90 -59.5 170t-42.5 154q-6 -37 -16.5 -72t-20.5 -70.5t-24.5 -74.5t-32.5 -88zM637 1579v27q23 29 47.5 66.5t48 78.5t45 82t37.5 74h219v-21q-18 -27 -56 -67.5t-83 -84.5t-92 -85t-88 -70h-78z" />
<glyph unicode="&#xc2;" horiz-adv-x="1443" d="M0 0v86h39q31 0 51.5 6t37.5 24.5t32.5 49.5t34.5 80l454 1216h160l463 -1267q12 -33 24.5 -53.5t29.5 -33t38.5 -17.5t52.5 -5h27v-86h-563v86h47q123 0 123 98q0 16 -4.5 35t-12.5 41l-82 229h-538l-78 -215q-8 -25 -13.5 -48t-5.5 -40q0 -51 34 -75.5t102 -24.5h47 v-86h-500zM422 1579v27q25 29 53.5 66.5t57 78.5t53 82t41.5 74h194q16 -35 41 -75t53.5 -81t57 -79t53.5 -66v-27h-80q-59 35 -117.5 85t-105.5 99q-47 -49 -105.5 -99t-115.5 -85h-80zM453 592h462l-127 358q-33 90 -59.5 170t-42.5 154q-6 -37 -16.5 -72t-20.5 -70.5 t-24.5 -74.5t-32.5 -88z" />
<glyph unicode="&#xc3;" horiz-adv-x="1443" d="M0 0v86h39q31 0 51.5 6t37.5 24.5t32.5 49.5t34.5 80l454 1216h160l463 -1267q12 -33 24.5 -53.5t29.5 -33t38.5 -17.5t52.5 -5h27v-86h-563v86h47q123 0 123 98q0 16 -4.5 35t-12.5 41l-82 229h-538l-78 -215q-8 -25 -13.5 -48t-5.5 -40q0 -51 34 -75.5t102 -24.5h47 v-86h-500zM358 1600q2 47 16.5 90t40 76.5t65.5 54t95 20.5t99.5 -20.5t83.5 -45t71.5 -44t65.5 -19.5q31 0 49 9.5t28.5 24.5t14.5 34.5t8 40.5h92q-2 -47 -16 -90t-40 -78t-64.5 -54.5t-94.5 -19.5q-55 0 -99 19.5t-83 44t-72.5 45t-66.5 20.5q-31 0 -49.5 -9t-28.5 -23.5 t-15.5 -35t-7.5 -40.5h-92zM453 592h462l-127 358q-33 90 -59.5 170t-42.5 154q-6 -37 -16.5 -72t-20.5 -70.5t-24.5 -74.5t-32.5 -88z" />
<glyph unicode="&#xc4;" horiz-adv-x="1443" d="M0 0v86h39q31 0 51.5 6t37.5 24.5t32.5 49.5t34.5 80l454 1216h160l463 -1267q12 -33 24.5 -53.5t29.5 -33t38.5 -17.5t52.5 -5h27v-86h-563v86h47q123 0 123 98q0 16 -4.5 35t-12.5 41l-82 229h-538l-78 -215q-8 -25 -13.5 -48t-5.5 -40q0 -51 34 -75.5t102 -24.5h47 v-86h-500zM424 1747q0 33 8 54.5t22.5 34.5t33 19.5t40.5 6.5q23 0 41.5 -6.5t32.5 -19.5t22.5 -34.5t8.5 -54.5q0 -31 -8.5 -53.5t-22.5 -35.5t-32.5 -19.5t-41.5 -6.5q-45 0 -74.5 26t-29.5 89zM453 592h462l-127 358q-33 90 -59.5 170t-42.5 154q-6 -37 -16.5 -72 t-20.5 -70.5t-24.5 -74.5t-32.5 -88zM813 1747q0 33 8 54.5t22.5 34.5t33 19.5t40.5 6.5q23 0 41.5 -6.5t32.5 -19.5t22.5 -34.5t8.5 -54.5q0 -31 -8.5 -53.5t-22.5 -35.5t-32.5 -19.5t-41.5 -6.5q-45 0 -74.5 26t-29.5 89z" />
<glyph unicode="&#xc5;" horiz-adv-x="1443" d="M0 0v86h39q31 0 51.5 6t37.5 24.5t32.5 49.5t34.5 80l454 1216h160l463 -1267q12 -33 24.5 -53.5t29.5 -33t38.5 -17.5t52.5 -5h27v-86h-563v86h47q123 0 123 98q0 16 -4.5 35t-12.5 41l-82 229h-538l-78 -215q-8 -25 -13.5 -48t-5.5 -40q0 -51 34 -75.5t102 -24.5h47 v-86h-500zM453 592h462l-127 358q-33 90 -59.5 170t-42.5 154q-6 -37 -16.5 -72t-20.5 -70.5t-24.5 -74.5t-32.5 -88zM479 1585q0 53 18.5 95t52.5 70.5t79 43t96 14.5t96 -14.5t79 -43t52.5 -70.5t18.5 -95q0 -55 -18.5 -96t-52.5 -70t-79 -43t-96 -14t-96 14t-79 43 t-52.5 70t-18.5 96zM590 1585q0 -33 10 -56.5t28.5 -38t43 -21.5t53.5 -7t53.5 7t43 21.5t28.5 38t10 56.5t-10 56.5t-28.5 37.5t-43 21.5t-53.5 7.5t-53.5 -7.5t-43 -21.5t-28.5 -37.5t-10 -56.5z" />
<glyph unicode="&#xc6;" horiz-adv-x="1947" d="M0 0v86h33q53 0 96 38t86 122l592 1120l-160 10v86h1135l10 -358h-106l-11 88q-4 35 -15 64.5t-32.5 52t-54.5 37t-78 14.5h-344v-545h494v-100h-494v-613h395q47 0 82 13.5t57.5 36t36 53.5t19.5 65l14 88h107l-15 -358h-1097v86h26q35 0 64.5 4t52 18.5t36 42 t15.5 72.5v266h-471l-113 -215q-16 -33 -24 -61.5t-8 -46.5q0 -43 31.5 -61.5t91.5 -18.5h47v-86h-498zM526 592h418v768h-29q-24 -55 -65 -138t-93 -183.5t-110.5 -215t-120.5 -231.5z" />
<glyph unicode="&#xc7;" horiz-adv-x="1255" d="M117 733q0 166 42 304.5t125 236.5t205.5 153.5t284.5 55.5q104 0 182 -17.5t129.5 -48.5t77 -72.5t25.5 -91.5q0 -33 -13.5 -59.5t-38 -45t-56 -28.5t-70.5 -10q0 47 -12.5 94t-41 85t-73.5 61.5t-113 23.5q-117 0 -197.5 -43t-132 -124t-74 -200.5t-22.5 -273.5 q0 -137 23.5 -250.5t76 -195.5t133 -127t193.5 -45q76 0 133.5 14t101.5 39t76.5 56.5t59.5 64.5q16 -10 27.5 -29.5t11.5 -50.5q0 -39 -27 -80t-80 -73.5t-136 -54t-198 -21.5q-154 0 -269.5 54t-194 153.5t-118.5 237.5t-40 308zM514 -365q37 -8 73.5 -12t65.5 -4 q59 0 92 31t33 84q0 59 -44 90t-110 35l43 159h97l-21 -88q100 -8 149.5 -57t49.5 -131q0 -109 -69.5 -171.5t-200.5 -62.5q-16 0 -36 1.5t-41.5 4.5t-42 8t-38.5 9v104z" />
<glyph unicode="&#xc8;" horiz-adv-x="1275" d="M78 0v86h26q35 0 65 4t53.5 18.5t36.5 42t13 72.5v1006q0 47 -13 76.5t-35.5 45t-53.5 20.5t-66 5h-26v86h1032l10 -358h-106l-10 88q-4 35 -15.5 64.5t-33 53t-54.5 37t-78 13.5h-344v-545h494v-100h-494v-613h395q49 0 83 13.5t57.5 36t37 53.5t17.5 65l14 88h107 l-14 -358h-1098zM346 1886v21h219q16 -35 38 -75t45.5 -81t48 -79t47.5 -66v-27h-78q-41 29 -89.5 70t-93.5 85t-81.5 85t-55.5 67z" />
<glyph unicode="&#xc9;" horiz-adv-x="1275" d="M78 0v86h26q35 0 65 4t53.5 18.5t36.5 42t13 72.5v1006q0 47 -13 76.5t-35.5 45t-53.5 20.5t-66 5h-26v86h1032l10 -358h-106l-10 88q-4 35 -15.5 64.5t-33 53t-54.5 37t-78 13.5h-344v-545h494v-100h-494v-613h395q49 0 83 13.5t57.5 36t37 53.5t17.5 65l14 88h107 l-14 -358h-1098zM545 1579v27q23 29 47.5 66.5t48 78.5t45 82t37.5 74h219v-21q-18 -27 -56 -67.5t-83 -84.5t-92 -85t-88 -70h-78z" />
<glyph unicode="&#xca;" horiz-adv-x="1275" d="M78 0v86h26q35 0 65 4t53.5 18.5t36.5 42t13 72.5v1006q0 47 -13 76.5t-35.5 45t-53.5 20.5t-66 5h-26v86h1032l10 -358h-106l-10 88q-4 35 -15.5 64.5t-33 53t-54.5 37t-78 13.5h-344v-545h494v-100h-494v-613h395q49 0 83 13.5t57.5 36t37 53.5t17.5 65l14 88h107 l-14 -358h-1098zM350 1579v27q25 29 53.5 66.5t57 78.5t53 82t41.5 74h194q16 -35 41 -75t53.5 -81t57 -79t53.5 -66v-27h-80q-59 35 -117.5 85t-105.5 99q-47 -49 -105.5 -99t-115.5 -85h-80z" />
<glyph unicode="&#xcb;" horiz-adv-x="1275" d="M78 0v86h26q35 0 65 4t53.5 18.5t36.5 42t13 72.5v1006q0 47 -13 76.5t-35.5 45t-53.5 20.5t-66 5h-26v86h1032l10 -358h-106l-10 88q-4 35 -15.5 64.5t-33 53t-54.5 37t-78 13.5h-344v-545h494v-100h-494v-613h395q49 0 83 13.5t57.5 36t37 53.5t17.5 65l14 88h107 l-14 -358h-1098zM342 1747q0 33 8 54.5t22.5 34.5t33 19.5t40.5 6.5q23 0 41.5 -6.5t32.5 -19.5t22.5 -34.5t8.5 -54.5q0 -31 -8.5 -53.5t-22.5 -35.5t-32.5 -19.5t-41.5 -6.5q-45 0 -74.5 26t-29.5 89zM731 1747q0 33 8 54.5t22.5 34.5t33 19.5t40.5 6.5q23 0 41.5 -6.5 t32.5 -19.5t22.5 -34.5t8.5 -54.5q0 -31 -8.5 -53.5t-22.5 -35.5t-32.5 -19.5t-41.5 -6.5q-45 0 -74.5 26t-29.5 89z" />
<glyph unicode="&#xcc;" horiz-adv-x="751" d="M76 1886v21h219q16 -35 38 -75t45.5 -81t48 -79t47.5 -66v-27h-78q-41 29 -89.5 70t-93.5 85t-81.5 85t-55.5 67zM78 0v86h26q35 0 66 5t53.5 20.5t35.5 44t13 77.5v996q0 47 -13 76.5t-35.5 45t-53.5 20.5t-66 5h-26v86h596v-86h-27q-35 0 -65.5 -5t-53 -20.5t-36 -44 t-13.5 -77.5v-996q0 -47 13.5 -76.5t36 -45t53 -20.5t65.5 -5h27v-86h-596z" />
<glyph unicode="&#xcd;" horiz-adv-x="751" d="M78 0v86h26q35 0 66 5t53.5 20.5t35.5 44t13 77.5v996q0 47 -13 76.5t-35.5 45t-53.5 20.5t-66 5h-26v86h596v-86h-27q-35 0 -65.5 -5t-53 -20.5t-36 -44t-13.5 -77.5v-996q0 -47 13.5 -76.5t36 -45t53 -20.5t65.5 -5h27v-86h-596zM270 1579v27q23 29 47.5 66.5t48 78.5 t45 82t37.5 74h219v-21q-18 -27 -56 -67.5t-83 -84.5t-92 -85t-88 -70h-78z" />
<glyph unicode="&#xce;" horiz-adv-x="751" d="M74 1579v27q25 29 53.5 66.5t57 78.5t53 82t41.5 74h194q16 -35 41 -75t53.5 -81t57 -79t53.5 -66v-27h-80q-59 35 -117.5 85t-105.5 99q-47 -49 -105.5 -99t-115.5 -85h-80zM78 0v86h26q35 0 66 5t53.5 20.5t35.5 44t13 77.5v996q0 47 -13 76.5t-35.5 45t-53.5 20.5 t-66 5h-26v86h596v-86h-27q-35 0 -65.5 -5t-53 -20.5t-36 -44t-13.5 -77.5v-996q0 -47 13.5 -76.5t36 -45t53 -20.5t65.5 -5h27v-86h-596z" />
<glyph unicode="&#xcf;" horiz-adv-x="751" d="M74 1747q0 33 8 54.5t22.5 34.5t33 19.5t40.5 6.5q23 0 41.5 -6.5t32.5 -19.5t22.5 -34.5t8.5 -54.5q0 -31 -8.5 -53.5t-22.5 -35.5t-32.5 -19.5t-41.5 -6.5q-45 0 -74.5 26t-29.5 89zM78 0v86h26q35 0 66 5t53.5 20.5t35.5 44t13 77.5v996q0 47 -13 76.5t-35.5 45 t-53.5 20.5t-66 5h-26v86h596v-86h-27q-35 0 -65.5 -5t-53 -20.5t-36 -44t-13.5 -77.5v-996q0 -47 13.5 -76.5t36 -45t53 -20.5t65.5 -5h27v-86h-596zM463 1747q0 33 8 54.5t22.5 34.5t33 19.5t40.5 6.5q23 0 41.5 -6.5t32.5 -19.5t22.5 -34.5t8.5 -54.5q0 -31 -8.5 -53.5 t-22.5 -35.5t-32.5 -19.5t-41.5 -6.5q-45 0 -74.5 26t-29.5 89z" />
<glyph unicode="&#xd0;" horiz-adv-x="1488" d="M78 0v86h26q35 0 66 5t53.5 20.5t35.5 44t13 77.5v482h-194v100h194v422q0 45 -13 72.5t-36.5 42t-54.5 19.5t-64 5h-26v86h627q158 0 281.5 -48t209.5 -141t131 -229.5t45 -310.5q0 -168 -42 -303t-125 -231.5t-209 -147.5t-291 -51h-627zM479 104h178q123 0 214.5 41 t151.5 121t91 198t31 269q0 152 -31 268.5t-91 196.5t-151.5 121t-212.5 41h-180v-545h348v-100h-348v-611z" />
<glyph unicode="&#xd1;" horiz-adv-x="1562" d="M78 0v86h26q35 0 66 5t53.5 20.5t35.5 44t13 77.5v1004q0 45 -13 72.5t-36.5 42t-54.5 19.5t-64 5h-26v86h375l733 -1132v907q0 45 -13.5 72.5t-37 42t-53 19.5t-64.5 5h-27v86h514v-86h-26q-35 0 -66 -5t-53.5 -20.5t-35.5 -44t-13 -77.5v-1229h-146l-768 1180v-947 q0 -47 13.5 -76.5t36 -45t53 -20.5t65.5 -5h27v-86h-514zM442 1600q2 47 16.5 90t40 76.5t65.5 54t95 20.5t99.5 -20.5t83.5 -45t71.5 -44t65.5 -19.5q31 0 49 9.5t28.5 24.5t14.5 34.5t8 40.5h92q-2 -47 -16 -90t-40 -78t-64.5 -54.5t-94.5 -19.5q-55 0 -99 19.5t-83 44 t-72.5 45t-66.5 20.5q-31 0 -49.5 -9t-28.5 -23.5t-15.5 -35t-7.5 -40.5h-92z" />
<glyph unicode="&#xd2;" horiz-adv-x="1519" d="M115 735q0 170 40 308.5t119.5 236.5t201.5 151.5t286 53.5q156 0 274.5 -53.5t200.5 -151.5t124 -237.5t42 -309.5t-42 -308t-124 -237.5t-202 -153.5t-275 -54q-164 0 -285 54t-200.5 153.5t-119.5 238.5t-40 309zM342 733q0 -152 22.5 -271.5t72.5 -202.5t129 -126 t194 -43t193.5 43t129 126t72 203t21.5 271q0 152 -21.5 271.5t-72 201.5t-128 125t-192.5 43t-195 -43t-130 -125t-72.5 -201.5t-22.5 -271.5zM463 1886v21h219q16 -35 38 -75t45.5 -81t48 -79t47.5 -66v-27h-78q-41 29 -89.5 70t-93.5 85t-81.5 85t-55.5 67z" />
<glyph unicode="&#xd3;" horiz-adv-x="1519" d="M115 735q0 170 40 308.5t119.5 236.5t201.5 151.5t286 53.5q156 0 274.5 -53.5t200.5 -151.5t124 -237.5t42 -309.5t-42 -308t-124 -237.5t-202 -153.5t-275 -54q-164 0 -285 54t-200.5 153.5t-119.5 238.5t-40 309zM342 733q0 -152 22.5 -271.5t72.5 -202.5t129 -126 t194 -43t193.5 43t129 126t72 203t21.5 271q0 152 -21.5 271.5t-72 201.5t-128 125t-192.5 43t-195 -43t-130 -125t-72.5 -201.5t-22.5 -271.5zM649 1579v27q23 29 47.5 66.5t48 78.5t45 82t37.5 74h219v-21q-18 -27 -56 -67.5t-83 -84.5t-92 -85t-88 -70h-78z" />
<glyph unicode="&#xd4;" horiz-adv-x="1519" d="M115 735q0 170 40 308.5t119.5 236.5t201.5 151.5t286 53.5q156 0 274.5 -53.5t200.5 -151.5t124 -237.5t42 -309.5t-42 -308t-124 -237.5t-202 -153.5t-275 -54q-164 0 -285 54t-200.5 153.5t-119.5 238.5t-40 309zM342 733q0 -152 22.5 -271.5t72.5 -202.5t129 -126 t194 -43t193.5 43t129 126t72 203t21.5 271q0 152 -21.5 271.5t-72 201.5t-128 125t-192.5 43t-195 -43t-130 -125t-72.5 -201.5t-22.5 -271.5zM459 1579v27q25 29 53.5 66.5t57 78.5t53 82t41.5 74h194q16 -35 41 -75t53.5 -81t57 -79t53.5 -66v-27h-80q-59 35 -117.5 85 t-105.5 99q-47 -49 -105.5 -99t-115.5 -85h-80z" />
<glyph unicode="&#xd5;" horiz-adv-x="1519" d="M115 735q0 170 40 308.5t119.5 236.5t201.5 151.5t286 53.5q156 0 274.5 -53.5t200.5 -151.5t124 -237.5t42 -309.5t-42 -308t-124 -237.5t-202 -153.5t-275 -54q-164 0 -285 54t-200.5 153.5t-119.5 238.5t-40 309zM342 733q0 -152 22.5 -271.5t72.5 -202.5t129 -126 t194 -43t193.5 43t129 126t72 203t21.5 271q0 152 -21.5 271.5t-72 201.5t-128 125t-192.5 43t-195 -43t-130 -125t-72.5 -201.5t-22.5 -271.5zM381 1600q2 47 16.5 90t40 76.5t65.5 54t95 20.5t99.5 -20.5t83.5 -45t71.5 -44t65.5 -19.5q31 0 49 9.5t28.5 24.5t14.5 34.5 t8 40.5h92q-2 -47 -16 -90t-40 -78t-64.5 -54.5t-94.5 -19.5q-55 0 -99 19.5t-83 44t-72.5 45t-66.5 20.5q-31 0 -49.5 -9t-28.5 -23.5t-15.5 -35t-7.5 -40.5h-92z" />
<glyph unicode="&#xd6;" horiz-adv-x="1519" d="M115 735q0 170 40 308.5t119.5 236.5t201.5 151.5t286 53.5q156 0 274.5 -53.5t200.5 -151.5t124 -237.5t42 -309.5t-42 -308t-124 -237.5t-202 -153.5t-275 -54q-164 0 -285 54t-200.5 153.5t-119.5 238.5t-40 309zM342 733q0 -152 22.5 -271.5t72.5 -202.5t129 -126 t194 -43t193.5 43t129 126t72 203t21.5 271q0 152 -21.5 271.5t-72 201.5t-128 125t-192.5 43t-195 -43t-130 -125t-72.5 -201.5t-22.5 -271.5zM455 1747q0 33 8 54.5t22.5 34.5t33 19.5t40.5 6.5q23 0 41.5 -6.5t32.5 -19.5t22.5 -34.5t8.5 -54.5q0 -31 -8.5 -53.5 t-22.5 -35.5t-32.5 -19.5t-41.5 -6.5q-45 0 -74.5 26t-29.5 89zM844 1747q0 33 8 54.5t22.5 34.5t33 19.5t40.5 6.5q23 0 41.5 -6.5t32.5 -19.5t22.5 -34.5t8.5 -54.5q0 -31 -8.5 -53.5t-22.5 -35.5t-32.5 -19.5t-41.5 -6.5q-45 0 -74.5 26t-29.5 89z" />
<glyph unicode="&#xd7;" d="M145 395l340 340l-340 338l86 86l340 -340l340 342l86 -88l-340 -340l340 -340l-86 -86l-340 340l-340 -340z" />
<glyph unicode="&#xd8;" horiz-adv-x="1519" d="M115 735q0 170 40 308.5t119.5 236.5t201.5 151.5t286 53.5q90 0 169 -19.5t144 -54.5l76 135h119l-107 -192q119 -96 179.5 -255t60.5 -366q0 -170 -42 -308t-124 -237.5t-202 -153.5t-275 -54q-92 0 -172 17t-146 52l-71 -131h-121l104 188q-121 98 -180 258t-59 371z M342 733q0 -156 22.5 -273.5t73.5 -201.5l572 1034q-94 82 -248 82q-115 0 -195 -43t-130 -125t-72.5 -201.5t-22.5 -271.5zM510 170q94 -80 250 -80q115 0 193.5 43t129 126t72 202.5t21.5 271.5q0 154 -23 271.5t-72 201.5z" />
<glyph unicode="&#xd9;" horiz-adv-x="1466" d="M31 1376v86h596v-86h-27q-35 0 -65.5 -5t-53 -20.5t-36 -44t-13.5 -77.5v-799q0 -88 25.5 -151.5t70.5 -102.5t107.5 -56.5t138.5 -17.5q88 0 152.5 24t107.5 67t63.5 101t20.5 128v815q0 45 -13 72.5t-37 42t-54.5 19.5t-63.5 5h-26v86h514v-86h-27q-35 0 -65.5 -5 t-53 -20.5t-36 -44t-13.5 -77.5v-811q0 -102 -32.5 -183t-96 -137.5t-157 -87t-216.5 -30.5q-121 0 -217 25.5t-162.5 80.5t-101.5 143t-35 213v795q0 45 -13 72.5t-36.5 42t-54.5 19.5t-64 5h-26zM454 1886v21h219q16 -35 38 -75t45.5 -81t48 -79t47.5 -66v-27h-78 q-41 29 -89.5 70t-93.5 85t-81.5 85t-55.5 67z" />
<glyph unicode="&#xda;" horiz-adv-x="1466" d="M31 1376v86h596v-86h-27q-35 0 -65.5 -5t-53 -20.5t-36 -44t-13.5 -77.5v-799q0 -88 25.5 -151.5t70.5 -102.5t107.5 -56.5t138.5 -17.5q88 0 152.5 24t107.5 67t63.5 101t20.5 128v815q0 45 -13 72.5t-37 42t-54.5 19.5t-63.5 5h-26v86h514v-86h-27q-35 0 -65.5 -5 t-53 -20.5t-36 -44t-13.5 -77.5v-811q0 -102 -32.5 -183t-96 -137.5t-157 -87t-216.5 -30.5q-121 0 -217 25.5t-162.5 80.5t-101.5 143t-35 213v795q0 45 -13 72.5t-36.5 42t-54.5 19.5t-64 5h-26zM649 1579v27q23 29 47.5 66.5t48 78.5t45 82t37.5 74h219v-21 q-18 -27 -56 -67.5t-83 -84.5t-92 -85t-88 -70h-78z" />
<glyph unicode="&#xdb;" horiz-adv-x="1466" d="M31 1376v86h596v-86h-27q-35 0 -65.5 -5t-53 -20.5t-36 -44t-13.5 -77.5v-799q0 -88 25.5 -151.5t70.5 -102.5t107.5 -56.5t138.5 -17.5q88 0 152.5 24t107.5 67t63.5 101t20.5 128v815q0 45 -13 72.5t-37 42t-54.5 19.5t-63.5 5h-26v86h514v-86h-27q-35 0 -65.5 -5 t-53 -20.5t-36 -44t-13.5 -77.5v-811q0 -102 -32.5 -183t-96 -137.5t-157 -87t-216.5 -30.5q-121 0 -217 25.5t-162.5 80.5t-101.5 143t-35 213v795q0 45 -13 72.5t-36.5 42t-54.5 19.5t-64 5h-26zM471 1579v27q25 29 53.5 66.5t57 78.5t53 82t41.5 74h194q16 -35 41 -75 t53.5 -81t57 -79t53.5 -66v-27h-80q-59 35 -117.5 85t-105.5 99q-47 -49 -105.5 -99t-115.5 -85h-80z" />
<glyph unicode="&#xdc;" horiz-adv-x="1466" d="M31 1376v86h596v-86h-27q-35 0 -65.5 -5t-53 -20.5t-36 -44t-13.5 -77.5v-799q0 -88 25.5 -151.5t70.5 -102.5t107.5 -56.5t138.5 -17.5q88 0 152.5 24t107.5 67t63.5 101t20.5 128v815q0 45 -13 72.5t-37 42t-54.5 19.5t-63.5 5h-26v86h514v-86h-27q-35 0 -65.5 -5 t-53 -20.5t-36 -44t-13.5 -77.5v-811q0 -102 -32.5 -183t-96 -137.5t-157 -87t-216.5 -30.5q-121 0 -217 25.5t-162.5 80.5t-101.5 143t-35 213v795q0 45 -13 72.5t-36.5 42t-54.5 19.5t-64 5h-26zM477 1747q0 33 8 54.5t22.5 34.5t33 19.5t40.5 6.5q23 0 41.5 -6.5 t32.5 -19.5t22.5 -34.5t8.5 -54.5q0 -31 -8.5 -53.5t-22.5 -35.5t-32.5 -19.5t-41.5 -6.5q-45 0 -74.5 26t-29.5 89zM866 1747q0 33 8 54.5t22.5 34.5t33 19.5t40.5 6.5q23 0 41.5 -6.5t32.5 -19.5t22.5 -34.5t8.5 -54.5q0 -31 -8.5 -53.5t-22.5 -35.5t-32.5 -19.5 t-41.5 -6.5q-45 0 -74.5 26t-29.5 89z" />
<glyph unicode="&#xdd;" horiz-adv-x="1280" d="M-10 1376v86h563v-86h-76q-29 0 -46 -5t-27.5 -14t-13.5 -21.5t-3 -24.5q0 -29 12.5 -57.5t24.5 -51.5l151 -274q37 -63 62 -125t41 -109q8 23 22.5 49.5t31 57t33.5 63.5t36 64l131 235q20 35 28.5 67t8.5 56q0 45 -32 67.5t-91 22.5h-60v86h500v-86h-24q-23 0 -42.5 -7 t-39 -26.5t-41 -49t-47.5 -76.5l-344 -607v-377q0 -47 13 -76.5t35.5 -45t53.5 -20.5t65 -5h48v-86h-637v86h47q35 0 65.5 4t53 18.5t36 42t13.5 72.5v387l-379 658q-16 29 -31.5 49t-32 33.5t-36 19.5t-46.5 6h-26zM567 1579v27q23 29 47.5 66.5t48 78.5t45 82t37.5 74h219 v-21q-18 -27 -56 -67.5t-83 -84.5t-92 -85t-88 -70h-78z" />
<glyph unicode="&#xde;" horiz-adv-x="1236" d="M78 0v86h26q35 0 66 5t53.5 20.5t35.5 44t13 77.5v996q0 47 -13 76.5t-35.5 45t-53.5 20.5t-66 5h-26v86h616v-86h-47q-35 0 -65.5 -5t-53 -20.5t-36 -44t-13.5 -77.5v-62h174q258 0 381 -103t123 -304q0 -90 -28.5 -171t-93 -142.5t-170 -96.5t-257.5 -35h-129v-82 q0 -47 13.5 -76.5t36 -45t53 -20.5t65.5 -5h47v-86h-616zM479 412h109q92 0 158.5 16t108.5 56t61.5 105.5t19.5 162.5q0 86 -17.5 146t-55.5 98t-98 55.5t-147 17.5h-139v-657z" />
<glyph unicode="&#xdf;" horiz-adv-x="1323" d="M47 0v86h27q35 0 65.5 5t53 20.5t36 44t13.5 77.5v768h-166v97h166v61q0 113 33.5 189.5t93 125t140.5 69t175 20.5q127 0 212 -36t137 -106.5t73.5 -175t23.5 -239.5h-149q-109 0 -160 -41t-51 -125q0 -31 10.5 -56.5t35 -49t65.5 -47t102 -52.5q78 -35 126 -75 t76.5 -83t39 -88t10.5 -90q0 -78 -23.5 -138.5t-68.5 -100.5t-108.5 -60t-145.5 -20q-72 0 -131.5 13t-101.5 40.5t-64.5 68.5t-22.5 95q0 41 12.5 68.5t30 44t38 22.5t36.5 6q0 -53 10.5 -100.5t34 -83t62.5 -56t94 -20.5q76 0 124 46t48 140q0 35 -7.5 63.5t-30 55.5 t-61 54.5t-100.5 56.5q-63 33 -112.5 63.5t-82 68.5t-49 86t-16.5 113q0 61 20.5 112.5t62.5 88.5t105.5 56.5t149.5 19.5q0 96 -14.5 165.5t-45 114.5t-78.5 66.5t-118 21.5q-61 0 -108.5 -20t-78 -56t-46 -88.5t-15.5 -117.5v-1188h-387z" />
<glyph unicode="&#xe0;" horiz-adv-x="1150" d="M102 307q0 164 116 243t351 85l170 6v123q0 55 -6 101t-26.5 80t-57.5 52.5t-100 18.5q-59 0 -95 -16.5t-56.5 -46t-28 -70.5t-7.5 -90q-86 0 -130 29.5t-44 99.5q0 53 29 90t79 60.5t117.5 34.5t143.5 11q94 0 164 -18.5t117 -60.5t70.5 -109.5t23.5 -165.5v-531 q0 -43 7 -71.5t22.5 -45t39 -23.5t58.5 -7h6v-86h-277l-32 176h-17q-33 -43 -62.5 -79t-65.5 -62.5t-82 -40.5t-109 -14q-68 0 -126 19t-101 60t-67 102.5t-24 145.5zM268 1548v21h219q16 -35 38 -75t45.5 -81t48 -79t47.5 -66v-27h-78q-41 29 -89.5 70t-93.5 85t-81.5 85 t-55.5 67zM301 297q0 -96 41 -143.5t125 -47.5q61 0 112.5 19.5t86 56.5t54 90.5t19.5 118.5v166l-131 -6q-86 -4 -145.5 -21.5t-95 -49t-51 -78t-15.5 -105.5z" />
<glyph unicode="&#xe1;" horiz-adv-x="1150" d="M102 307q0 164 116 243t351 85l170 6v123q0 55 -6 101t-26.5 80t-57.5 52.5t-100 18.5q-59 0 -95 -16.5t-56.5 -46t-28 -70.5t-7.5 -90q-86 0 -130 29.5t-44 99.5q0 53 29 90t79 60.5t117.5 34.5t143.5 11q94 0 164 -18.5t117 -60.5t70.5 -109.5t23.5 -165.5v-531 q0 -43 7 -71.5t22.5 -45t39 -23.5t58.5 -7h6v-86h-277l-32 176h-17q-33 -43 -62.5 -79t-65.5 -62.5t-82 -40.5t-109 -14q-68 0 -126 19t-101 60t-67 102.5t-24 145.5zM301 297q0 -96 41 -143.5t125 -47.5q61 0 112.5 19.5t86 56.5t54 90.5t19.5 118.5v166l-131 -6 q-86 -4 -145.5 -21.5t-95 -49t-51 -78t-15.5 -105.5zM471 1241v27q23 29 47.5 66.5t48 78.5t45 82t37.5 74h219v-21q-18 -27 -56 -67.5t-83 -84.5t-92 -85t-88 -70h-78z" />
<glyph unicode="&#xe2;" horiz-adv-x="1150" d="M102 307q0 164 116 243t351 85l170 6v123q0 55 -6 101t-26.5 80t-57.5 52.5t-100 18.5q-59 0 -95 -16.5t-56.5 -46t-28 -70.5t-7.5 -90q-86 0 -130 29.5t-44 99.5q0 53 29 90t79 60.5t117.5 34.5t143.5 11q94 0 164 -18.5t117 -60.5t70.5 -109.5t23.5 -165.5v-531 q0 -43 7 -71.5t22.5 -45t39 -23.5t58.5 -7h6v-86h-277l-32 176h-17q-33 -43 -62.5 -79t-65.5 -62.5t-82 -40.5t-109 -14q-68 0 -126 19t-101 60t-67 102.5t-24 145.5zM260 1241v27q25 29 53.5 66.5t57 78.5t53 82t41.5 74h194q16 -35 41 -75t53.5 -81t57 -79t53.5 -66v-27 h-80q-59 35 -117.5 85t-105.5 99q-47 -49 -105.5 -99t-115.5 -85h-80zM301 297q0 -96 41 -143.5t125 -47.5q61 0 112.5 19.5t86 56.5t54 90.5t19.5 118.5v166l-131 -6q-86 -4 -145.5 -21.5t-95 -49t-51 -78t-15.5 -105.5z" />
<glyph unicode="&#xe3;" horiz-adv-x="1150" d="M102 307q0 164 116 243t351 85l170 6v123q0 55 -6 101t-26.5 80t-57.5 52.5t-100 18.5q-59 0 -95 -16.5t-56.5 -46t-28 -70.5t-7.5 -90q-86 0 -130 29.5t-44 99.5q0 53 29 90t79 60.5t117.5 34.5t143.5 11q94 0 164 -18.5t117 -60.5t70.5 -109.5t23.5 -165.5v-531 q0 -43 7 -71.5t22.5 -45t39 -23.5t58.5 -7h6v-86h-277l-32 176h-17q-33 -43 -62.5 -79t-65.5 -62.5t-82 -40.5t-109 -14q-68 0 -126 19t-101 60t-67 102.5t-24 145.5zM207 1262q2 47 16.5 90t40 76.5t65.5 54t95 20.5t99.5 -20.5t83.5 -45t71.5 -44t65.5 -19.5q31 0 49 9.5 t28.5 24.5t14.5 34.5t8 40.5h92q-2 -47 -16 -90t-40 -78t-64.5 -54.5t-94.5 -19.5q-55 0 -99 19.5t-83 44t-72.5 45t-66.5 20.5q-31 0 -49.5 -9t-28.5 -23.5t-15.5 -35t-7.5 -40.5h-92zM301 297q0 -96 41 -143.5t125 -47.5q61 0 112.5 19.5t86 56.5t54 90.5t19.5 118.5v166 l-131 -6q-86 -4 -145.5 -21.5t-95 -49t-51 -78t-15.5 -105.5z" />
<glyph unicode="&#xe4;" horiz-adv-x="1150" d="M102 307q0 164 116 243t351 85l170 6v123q0 55 -6 101t-26.5 80t-57.5 52.5t-100 18.5q-59 0 -95 -16.5t-56.5 -46t-28 -70.5t-7.5 -90q-86 0 -130 29.5t-44 99.5q0 53 29 90t79 60.5t117.5 34.5t143.5 11q94 0 164 -18.5t117 -60.5t70.5 -109.5t23.5 -165.5v-531 q0 -43 7 -71.5t22.5 -45t39 -23.5t58.5 -7h6v-86h-277l-32 176h-17q-33 -43 -62.5 -79t-65.5 -62.5t-82 -40.5t-109 -14q-68 0 -126 19t-101 60t-67 102.5t-24 145.5zM256 1409q0 33 8 54.5t22.5 34.5t33 19.5t40.5 6.5q23 0 41.5 -6.5t32.5 -19.5t22.5 -34.5t8.5 -54.5 q0 -31 -8.5 -53.5t-22.5 -35.5t-32.5 -19.5t-41.5 -6.5q-45 0 -74.5 26t-29.5 89zM301 297q0 -96 41 -143.5t125 -47.5q61 0 112.5 19.5t86 56.5t54 90.5t19.5 118.5v166l-131 -6q-86 -4 -145.5 -21.5t-95 -49t-51 -78t-15.5 -105.5zM645 1409q0 33 8 54.5t22.5 34.5 t33 19.5t40.5 6.5q23 0 41.5 -6.5t32.5 -19.5t22.5 -34.5t8.5 -54.5q0 -31 -8.5 -53.5t-22.5 -35.5t-32.5 -19.5t-41.5 -6.5q-45 0 -74.5 26t-29.5 89z" />
<glyph unicode="&#xe5;" horiz-adv-x="1150" d="M102 307q0 164 116 243t351 85l170 6v123q0 55 -6 101t-26.5 80t-57.5 52.5t-100 18.5q-59 0 -95 -16.5t-56.5 -46t-28 -70.5t-7.5 -90q-86 0 -130 29.5t-44 99.5q0 53 29 90t79 60.5t117.5 34.5t143.5 11q94 0 164 -18.5t117 -60.5t70.5 -109.5t23.5 -165.5v-531 q0 -43 7 -71.5t22.5 -45t39 -23.5t58.5 -7h6v-86h-277l-32 176h-17q-33 -43 -62.5 -79t-65.5 -62.5t-82 -40.5t-109 -14q-68 0 -126 19t-101 60t-67 102.5t-24 145.5zM301 297q0 -96 41 -143.5t125 -47.5q61 0 112.5 19.5t86 56.5t54 90.5t19.5 118.5v166l-131 -6 q-86 -4 -145.5 -21.5t-95 -49t-51 -78t-15.5 -105.5zM327 1444q0 53 18.5 95t52.5 70.5t79 43t96 14.5t96 -14.5t79 -43t52.5 -70.5t18.5 -95q0 -55 -18.5 -96t-52.5 -70t-79 -43t-96 -14t-96 14t-79 43t-52.5 70t-18.5 96zM438 1444q0 -33 10 -56.5t28.5 -38t43 -21.5 t53.5 -7t53.5 7t43 21.5t28.5 38t10 56.5t-10 56.5t-28.5 37.5t-43 21.5t-53.5 7.5t-53.5 -7.5t-43 -21.5t-28.5 -37.5t-10 -56.5z" />
<glyph unicode="&#xe6;" horiz-adv-x="1720" d="M102 307q0 164 116 243t351 85l170 6v123q0 55 -6 101t-26.5 80t-57.5 52.5t-100 18.5q-59 0 -95 -16.5t-56.5 -46t-28 -70.5t-7.5 -90q-86 0 -130 29.5t-44 99.5q0 53 29 90t79 60.5t117.5 34.5t143.5 11q117 0 195.5 -29.5t124.5 -95.5q115 125 317 125q98 0 177 -30.5 t134.5 -92t85 -153.5t29.5 -213v-94h-682q2 -113 21.5 -193t58.5 -132t97.5 -76.5t139.5 -24.5q45 0 87 11t78 30.5t66 45t50 56.5q14 -6 26.5 -24.5t12.5 -45.5q0 -31 -21.5 -66.5t-65.5 -65.5t-111.5 -50t-155.5 -20q-150 0 -254.5 59t-161.5 174q-18 -45 -52 -87t-83 -75 t-111.5 -52t-138.5 -19q-68 0 -126 19t-101 60t-67 102.5t-24 145.5zM301 297q0 -96 41 -143.5t125 -47.5q61 0 112.5 19.5t86 56.5t54 90.5t19.5 118.5v123v27v16l-131 -6q-86 -4 -145.5 -21.5t-95 -49t-51 -78t-15.5 -105.5zM942 645h471q0 82 -12 148.5t-38 114.5t-69 74 t-104 26q-115 0 -176.5 -92.5t-71.5 -270.5z" />
<glyph unicode="&#xe7;" horiz-adv-x="1007" d="M113 543q0 164 34.5 274.5t96 178t144.5 95t181 27.5q63 0 127 -12t115 -39t83 -65.5t32 -92.5q0 -72 -46 -100.5t-137 -28.5q0 47 -8 90t-27.5 76t-53 51.5t-85.5 18.5q-59 0 -106 -21.5t-82 -76t-52.5 -145.5t-17.5 -228q0 -217 73 -324.5t237 -107.5q94 0 165.5 40 t106.5 103q14 -12 24.5 -31.5t10.5 -48.5q0 -35 -21.5 -69.5t-65.5 -63.5t-109.5 -46t-151.5 -17q-102 0 -188.5 31.5t-148 99t-96 174t-34.5 258.5zM356 -365q37 -8 73.5 -12t65.5 -4q59 0 92 31t33 84q0 59 -44 90t-110 35l43 159h97l-21 -88q100 -8 149.5 -57t49.5 -131 q0 -109 -69.5 -171.5t-200.5 -62.5q-16 0 -36 1.5t-41.5 4.5t-42 8t-38.5 9v104z" />
<glyph unicode="&#xe8;" horiz-adv-x="1095" d="M113 541q0 287 117.5 432t336.5 145q98 0 177 -30.5t134.5 -92t85 -153.5t29.5 -213v-94h-682q2 -113 22.5 -193t58.5 -132t94.5 -76.5t129.5 -24.5q53 0 98.5 12t82.5 31.5t65.5 45t46.5 54.5q14 -6 26.5 -24.5t12.5 -45.5q0 -31 -22.5 -66.5t-67.5 -65.5t-112.5 -50 t-157.5 -20q-111 0 -200 37.5t-149.5 109.5t-93 176.5t-32.5 237.5zM284 1548v21h219q16 -35 38 -75t45.5 -81t48 -79t47.5 -66v-27h-78q-41 29 -89.5 70t-93.5 85t-81.5 85t-55.5 67zM315 645h471q0 82 -12 148.5t-37.5 114.5t-69 74t-104.5 26q-115 0 -176 -92.5 t-72 -270.5z" />
<glyph unicode="&#xe9;" horiz-adv-x="1095" d="M113 541q0 287 117.5 432t336.5 145q98 0 177 -30.5t134.5 -92t85 -153.5t29.5 -213v-94h-682q2 -113 22.5 -193t58.5 -132t94.5 -76.5t129.5 -24.5q53 0 98.5 12t82.5 31.5t65.5 45t46.5 54.5q14 -6 26.5 -24.5t12.5 -45.5q0 -31 -22.5 -66.5t-67.5 -65.5t-112.5 -50 t-157.5 -20q-111 0 -200 37.5t-149.5 109.5t-93 176.5t-32.5 237.5zM315 645h471q0 82 -12 148.5t-37.5 114.5t-69 74t-104.5 26q-115 0 -176 -92.5t-72 -270.5zM473 1241v27q23 29 47.5 66.5t48 78.5t45 82t37.5 74h219v-21q-18 -27 -56 -67.5t-83 -84.5t-92 -85t-88 -70 h-78z" />
<glyph unicode="&#xea;" horiz-adv-x="1095" d="M113 541q0 287 117.5 432t336.5 145q98 0 177 -30.5t134.5 -92t85 -153.5t29.5 -213v-94h-682q2 -113 22.5 -193t58.5 -132t94.5 -76.5t129.5 -24.5q53 0 98.5 12t82.5 31.5t65.5 45t46.5 54.5q14 -6 26.5 -24.5t12.5 -45.5q0 -31 -22.5 -66.5t-67.5 -65.5t-112.5 -50 t-157.5 -20q-111 0 -200 37.5t-149.5 109.5t-93 176.5t-32.5 237.5zM254 1241v27q25 29 53.5 66.5t57 78.5t53 82t41.5 74h194q16 -35 41 -75t53.5 -81t57 -79t53.5 -66v-27h-80q-59 35 -117.5 85t-105.5 99q-47 -49 -105.5 -99t-115.5 -85h-80zM315 645h471q0 82 -12 148.5 t-37.5 114.5t-69 74t-104.5 26q-115 0 -176 -92.5t-72 -270.5z" />
<glyph unicode="&#xeb;" horiz-adv-x="1095" d="M113 541q0 287 117.5 432t336.5 145q98 0 177 -30.5t134.5 -92t85 -153.5t29.5 -213v-94h-682q2 -113 22.5 -193t58.5 -132t94.5 -76.5t129.5 -24.5q53 0 98.5 12t82.5 31.5t65.5 45t46.5 54.5q14 -6 26.5 -24.5t12.5 -45.5q0 -31 -22.5 -66.5t-67.5 -65.5t-112.5 -50 t-157.5 -20q-111 0 -200 37.5t-149.5 109.5t-93 176.5t-32.5 237.5zM252 1409q0 33 8 54.5t22.5 34.5t33 19.5t40.5 6.5q23 0 41.5 -6.5t32.5 -19.5t22.5 -34.5t8.5 -54.5q0 -31 -8.5 -53.5t-22.5 -35.5t-32.5 -19.5t-41.5 -6.5q-45 0 -74.5 26t-29.5 89zM315 645h471 q0 82 -12 148.5t-37.5 114.5t-69 74t-104.5 26q-115 0 -176 -92.5t-72 -270.5zM641 1409q0 33 8 54.5t22.5 34.5t33 19.5t40.5 6.5q23 0 41.5 -6.5t32.5 -19.5t22.5 -34.5t8.5 -54.5q0 -31 -8.5 -53.5t-22.5 -35.5t-32.5 -19.5t-41.5 -6.5q-45 0 -74.5 26t-29.5 89z" />
<glyph unicode="&#xec;" horiz-adv-x="653" d="M39 1548v21h219q16 -35 38 -75t45.5 -81t48 -79t47.5 -66v-27h-78q-41 29 -89.5 70t-93.5 85t-81.5 85t-55.5 67zM47 0v86h27q35 0 65.5 4t53 18.5t36 42t13.5 72.5v649q0 45 -13.5 73t-36 42t-53 19.5t-65.5 5.5h-6v86h366v-865q0 -47 13.5 -76.5t36 -45t53 -20.5 t65.5 -5h27v-86h-582z" />
<glyph unicode="&#xed;" horiz-adv-x="653" d="M47 0v86h27q35 0 65.5 4t53 18.5t36 42t13.5 72.5v649q0 45 -13.5 73t-36 42t-53 19.5t-65.5 5.5h-6v86h366v-865q0 -47 13.5 -76.5t36 -45t53 -20.5t65.5 -5h27v-86h-582zM239 1241v27q23 29 47.5 66.5t48 78.5t45 82t37.5 74h219v-21q-18 -27 -56 -67.5t-83 -84.5 t-92 -85t-88 -70h-78z" />
<glyph unicode="&#xee;" horiz-adv-x="653" d="M23 1241v27q25 29 53.5 66.5t57 78.5t53 82t41.5 74h194q16 -35 41 -75t53.5 -81t57 -79t53.5 -66v-27h-80q-59 35 -117.5 85t-105.5 99q-47 -49 -105.5 -99t-115.5 -85h-80zM47 0v86h27q35 0 65.5 4t53 18.5t36 42t13.5 72.5v649q0 45 -13.5 73t-36 42t-53 19.5 t-65.5 5.5h-6v86h366v-865q0 -47 13.5 -76.5t36 -45t53 -20.5t65.5 -5h27v-86h-582z" />
<glyph unicode="&#xef;" horiz-adv-x="653" d="M19 1409q0 33 8 54.5t22.5 34.5t33 19.5t40.5 6.5q23 0 41.5 -6.5t32.5 -19.5t22.5 -34.5t8.5 -54.5q0 -31 -8.5 -53.5t-22.5 -35.5t-32.5 -19.5t-41.5 -6.5q-45 0 -74.5 26t-29.5 89zM47 0v86h27q35 0 65.5 4t53 18.5t36 42t13.5 72.5v649q0 45 -13.5 73t-36 42 t-53 19.5t-65.5 5.5h-6v86h366v-865q0 -47 13.5 -76.5t36 -45t53 -20.5t65.5 -5h27v-86h-582zM408 1409q0 33 8 54.5t22.5 34.5t33 19.5t40.5 6.5q23 0 41.5 -6.5t32.5 -19.5t22.5 -34.5t8.5 -54.5q0 -31 -8.5 -53.5t-22.5 -35.5t-32.5 -19.5t-41.5 -6.5q-45 0 -74.5 26 t-29.5 89z" />
<glyph unicode="&#xf0;" horiz-adv-x="1181" d="M113 510q0 266 121.5 396t359.5 130q68 0 126 -14t109 -39q-20 68 -74.5 143.5t-131.5 143.5l-256 -146v115l172 98q-51 35 -108.5 62.5t-123.5 48.5v111q94 -23 184.5 -61t170.5 -91l264 154v-117l-181 -103q72 -59 132.5 -137t102.5 -172t65.5 -203.5t23.5 -232.5 q0 -311 -123 -463.5t-358 -152.5q-111 0 -199 32.5t-149.5 98t-94 166t-32.5 233.5zM311 510q0 -104 15.5 -183t48.5 -133.5t86 -81t131 -26.5t130 26.5t86 81t48 133.5t14 183t-15 182t-48 131.5t-86 79t-131 25.5t-130 -25.5t-85 -79t-48.5 -131.5t-15.5 -182z" />
<glyph unicode="&#xf1;" horiz-adv-x="1320" d="M57 0v86h17q35 0 65.5 5t53 20.5t36 44t13.5 77.5v639q0 45 -13.5 73t-36 42t-53 19.5t-65.5 5.5h-6v86h331l27 -166h10q33 57 68 94t74.5 57.5t84 27.5t93.5 7q82 0 145.5 -23.5t107.5 -71.5t67.5 -125t23.5 -181v-484q0 -47 11 -76.5t32.5 -45t50.5 -20.5t63 -5h7v-86 h-357v707q0 68 -12 120t-39 87.5t-70 54t-104 18.5q-70 0 -118 -26.5t-76.5 -72.5t-41 -106.5t-12.5 -126.5v-432q0 -45 13.5 -72.5t37 -42t53 -18.5t64.5 -4h6v-86h-551zM305 1262q2 47 16.5 90t40 76.5t65.5 54t95 20.5t99.5 -20.5t83.5 -45t71.5 -44t65.5 -19.5 q31 0 49 9.5t28.5 24.5t14.5 34.5t8 40.5h92q-2 -47 -16 -90t-40 -78t-64.5 -54.5t-94.5 -19.5q-55 0 -99 19.5t-83 44t-72.5 45t-66.5 20.5q-31 0 -49.5 -9t-28.5 -23.5t-15.5 -35t-7.5 -40.5h-92z" />
<glyph unicode="&#xf2;" horiz-adv-x="1181" d="M113 551q0 287 121.5 427t359.5 140q111 0 199 -34.5t149.5 -105.5t94 -177.5t32.5 -249.5q0 -289 -123 -430t-358 -141q-111 0 -199 34.5t-149.5 106.5t-94 179.5t-32.5 250.5zM299 1548v21h219q16 -35 38 -75t45.5 -81t48 -79t47.5 -66v-27h-78q-41 29 -89.5 70 t-93.5 85t-81.5 85t-55.5 67zM311 551q0 -115 15.5 -202t48.5 -145.5t86 -88t131 -29.5t130 29.5t86 88t48 145.5t14 202t-15 201t-48 143t-86 86t-131 29t-130 -29t-85 -86t-48.5 -143t-15.5 -201z" />
<glyph unicode="&#xf3;" horiz-adv-x="1181" d="M113 551q0 287 121.5 427t359.5 140q111 0 199 -34.5t149.5 -105.5t94 -177.5t32.5 -249.5q0 -289 -123 -430t-358 -141q-111 0 -199 34.5t-149.5 106.5t-94 179.5t-32.5 250.5zM311 551q0 -115 15.5 -202t48.5 -145.5t86 -88t131 -29.5t130 29.5t86 88t48 145.5t14 202 t-15 201t-48 143t-86 86t-131 29t-130 -29t-85 -86t-48.5 -143t-15.5 -201zM512 1241v27q23 29 47.5 66.5t48 78.5t45 82t37.5 74h219v-21q-18 -27 -56 -67.5t-83 -84.5t-92 -85t-88 -70h-78z" />
<glyph unicode="&#xf4;" horiz-adv-x="1181" d="M113 551q0 287 121.5 427t359.5 140q111 0 199 -34.5t149.5 -105.5t94 -177.5t32.5 -249.5q0 -289 -123 -430t-358 -141q-111 0 -199 34.5t-149.5 106.5t-94 179.5t-32.5 250.5zM285 1241v27q25 29 53.5 66.5t57 78.5t53 82t41.5 74h194q16 -35 41 -75t53.5 -81t57 -79 t53.5 -66v-27h-80q-59 35 -117.5 85t-105.5 99q-47 -49 -105.5 -99t-115.5 -85h-80zM311 551q0 -115 15.5 -202t48.5 -145.5t86 -88t131 -29.5t130 29.5t86 88t48 145.5t14 202t-15 201t-48 143t-86 86t-131 29t-130 -29t-85 -86t-48.5 -143t-15.5 -201z" />
<glyph unicode="&#xf5;" horiz-adv-x="1181" d="M113 551q0 287 121.5 427t359.5 140q111 0 199 -34.5t149.5 -105.5t94 -177.5t32.5 -249.5q0 -289 -123 -430t-358 -141q-111 0 -199 34.5t-149.5 106.5t-94 179.5t-32.5 250.5zM221 1262q2 47 16.5 90t40 76.5t65.5 54t95 20.5t99.5 -20.5t83.5 -45t71.5 -44t65.5 -19.5 q31 0 49 9.5t28.5 24.5t14.5 34.5t8 40.5h92q-2 -47 -16 -90t-40 -78t-64.5 -54.5t-94.5 -19.5q-55 0 -99 19.5t-83 44t-72.5 45t-66.5 20.5q-31 0 -49.5 -9t-28.5 -23.5t-15.5 -35t-7.5 -40.5h-92zM311 551q0 -115 15.5 -202t48.5 -145.5t86 -88t131 -29.5t130 29.5t86 88 t48 145.5t14 202t-15 201t-48 143t-86 86t-131 29t-130 -29t-85 -86t-48.5 -143t-15.5 -201z" />
<glyph unicode="&#xf6;" horiz-adv-x="1181" d="M113 551q0 287 121.5 427t359.5 140q111 0 199 -34.5t149.5 -105.5t94 -177.5t32.5 -249.5q0 -289 -123 -430t-358 -141q-111 0 -199 34.5t-149.5 106.5t-94 179.5t-32.5 250.5zM285 1409q0 33 8 54.5t22.5 34.5t33 19.5t40.5 6.5q23 0 41.5 -6.5t32.5 -19.5t22.5 -34.5 t8.5 -54.5q0 -31 -8.5 -53.5t-22.5 -35.5t-32.5 -19.5t-41.5 -6.5q-45 0 -74.5 26t-29.5 89zM311 551q0 -115 15.5 -202t48.5 -145.5t86 -88t131 -29.5t130 29.5t86 88t48 145.5t14 202t-15 201t-48 143t-86 86t-131 29t-130 -29t-85 -86t-48.5 -143t-15.5 -201zM674 1409 q0 33 8 54.5t22.5 34.5t33 19.5t40.5 6.5q23 0 41.5 -6.5t32.5 -19.5t22.5 -34.5t8.5 -54.5q0 -31 -8.5 -53.5t-22.5 -35.5t-32.5 -19.5t-41.5 -6.5q-45 0 -74.5 26t-29.5 89z" />
<glyph unicode="&#xf7;" d="M133 672v121h879v-121h-879zM469 344q0 33 8 54.5t21.5 34.5t33 18.5t41.5 5.5q23 0 41.5 -5.5t33 -18.5t22.5 -34.5t8 -54.5q0 -31 -8 -53.5t-22.5 -34.5t-33 -18.5t-41.5 -6.5q-45 0 -74.5 25t-29.5 88zM469 1120q0 33 8 54.5t21.5 35t33 18.5t41.5 5q23 0 41.5 -5 t33 -18.5t22.5 -36t8 -53t-8 -52t-22.5 -35t-33 -19.5t-41.5 -6t-42 6t-32.5 19.5t-21.5 34.5t-8 52z" />
<glyph unicode="&#xf8;" horiz-adv-x="1181" d="M113 551q0 287 121.5 427t359.5 140q74 0 137.5 -16.5t116.5 -46.5l78 125h118l-114 -189q68 -70 103.5 -179.5t35.5 -260.5q0 -289 -123 -430t-358 -141q-72 0 -133.5 14t-112.5 43l-74 -119h-121l111 180q-72 72 -108.5 183.5t-36.5 269.5zM311 551q0 -94 10.5 -169 t30.5 -132l424 686q-68 74 -186 74q-78 0 -130 -29t-85 -86t-48.5 -143t-15.5 -201zM412 152q33 -33 76.5 -49.5t103.5 -16.5q78 0 130 29.5t86 88t48 145.5t14 202q0 176 -36 285z" />
<glyph unicode="&#xf9;" horiz-adv-x="1298" d="M47 1012v86h367v-707q0 -68 10 -120t34.5 -88t66.5 -54t104 -18q68 0 117 24.5t79.5 67.5t46 104.5t15.5 134.5v422q0 47 -13.5 77t-36 45t-53 20.5t-65.5 5.5h-6v86h366v-875q0 -45 13.5 -72.5t36 -42t53 -18.5t65.5 -4h6v-86h-325l-27 166h-10q-31 -57 -69 -93 t-80 -56.5t-88 -28.5t-95 -8q-82 0 -144.5 23.5t-105.5 72.5t-65.5 124.5t-22.5 180.5v491q0 45 -13 73t-37 42t-54.5 19.5t-63.5 5.5h-6zM313 1548v21h219q16 -35 38 -75t45.5 -81t48 -79t47.5 -66v-27h-78q-41 29 -89.5 70t-93.5 85t-81.5 85t-55.5 67z" />
<glyph unicode="&#xfa;" horiz-adv-x="1298" d="M47 1012v86h367v-707q0 -68 10 -120t34.5 -88t66.5 -54t104 -18q68 0 117 24.5t79.5 67.5t46 104.5t15.5 134.5v422q0 47 -13.5 77t-36 45t-53 20.5t-65.5 5.5h-6v86h366v-875q0 -45 13.5 -72.5t36 -42t53 -18.5t65.5 -4h6v-86h-325l-27 166h-10q-31 -57 -69 -93 t-80 -56.5t-88 -28.5t-95 -8q-82 0 -144.5 23.5t-105.5 72.5t-65.5 124.5t-22.5 180.5v491q0 45 -13 73t-37 42t-54.5 19.5t-63.5 5.5h-6zM541 1241v27q23 29 47.5 66.5t48 78.5t45 82t37.5 74h219v-21q-18 -27 -56 -67.5t-83 -84.5t-92 -85t-88 -70h-78z" />
<glyph unicode="&#xfb;" horiz-adv-x="1298" d="M47 1012v86h367v-707q0 -68 10 -120t34.5 -88t66.5 -54t104 -18q68 0 117 24.5t79.5 67.5t46 104.5t15.5 134.5v422q0 47 -13.5 77t-36 45t-53 20.5t-65.5 5.5h-6v86h366v-875q0 -45 13.5 -72.5t36 -42t53 -18.5t65.5 -4h6v-86h-325l-27 166h-10q-31 -57 -69 -93 t-80 -56.5t-88 -28.5t-95 -8q-82 0 -144.5 23.5t-105.5 72.5t-65.5 124.5t-22.5 180.5v491q0 45 -13 73t-37 42t-54.5 19.5t-63.5 5.5h-6zM342 1241v27q25 29 53.5 66.5t57 78.5t53 82t41.5 74h194q16 -35 41 -75t53.5 -81t57 -79t53.5 -66v-27h-80q-59 35 -117.5 85 t-105.5 99q-47 -49 -105.5 -99t-115.5 -85h-80z" />
<glyph unicode="&#xfc;" horiz-adv-x="1298" d="M47 1012v86h367v-707q0 -68 10 -120t34.5 -88t66.5 -54t104 -18q68 0 117 24.5t79.5 67.5t46 104.5t15.5 134.5v422q0 47 -13.5 77t-36 45t-53 20.5t-65.5 5.5h-6v86h366v-875q0 -45 13.5 -72.5t36 -42t53 -18.5t65.5 -4h6v-86h-325l-27 166h-10q-31 -57 -69 -93 t-80 -56.5t-88 -28.5t-95 -8q-82 0 -144.5 23.5t-105.5 72.5t-65.5 124.5t-22.5 180.5v491q0 45 -13 73t-37 42t-54.5 19.5t-63.5 5.5h-6zM348 1409q0 33 8 54.5t22.5 34.5t33 19.5t40.5 6.5q23 0 41.5 -6.5t32.5 -19.5t22.5 -34.5t8.5 -54.5q0 -31 -8.5 -53.5t-22.5 -35.5 t-32.5 -19.5t-41.5 -6.5q-45 0 -74.5 26t-29.5 89zM737 1409q0 33 8 54.5t22.5 34.5t33 19.5t40.5 6.5q23 0 41.5 -6.5t32.5 -19.5t22.5 -34.5t8.5 -54.5q0 -31 -8.5 -53.5t-22.5 -35.5t-32.5 -19.5t-41.5 -6.5q-45 0 -74.5 26t-29.5 89z" />
<glyph unicode="&#xfd;" horiz-adv-x="1155" d="M8 1012v86h492v-86h-6q-61 0 -92 -23.5t-31 -75.5q0 -16 4 -34.5t12 -40.5l150 -365q14 -35 29.5 -77t28.5 -82t24.5 -75.5t15.5 -62.5h6q10 45 29.5 109.5t46.5 138.5l137 399q8 25 13 48.5t5 39.5q0 53 -33.5 77t-101.5 24h-6v86h426v-86h-6q-31 0 -52.5 -6.5 t-39 -24.5t-31.5 -49t-33 -80l-311 -860q-37 -98 -68.5 -173t-66.5 -129.5t-77 -89t-94 -55t-122 -29t-160 -8.5h-18v97q104 0 179 30.5t129 85t91 128t62 159.5l-379 895q-14 33 -26.5 53.5t-30 32.5t-39 17.5t-50.5 5.5h-6zM504 1241v27q23 29 47.5 66.5t48 78.5t45 82 t37.5 74h219v-21q-18 -27 -56 -67.5t-83 -84.5t-92 -85t-88 -70h-78z" />
<glyph unicode="&#xfe;" horiz-adv-x="1255" d="M37 -406h16q35 0 66 5.5t53.5 20.5t35.5 45t13 77v1589q0 45 -13 73t-37 42t-54.5 19t-63.5 5h-16v86h377v-376q0 -35 -1 -80t-3 -88q-2 -47 -4 -99h8q23 47 52.5 85t67 65t86 41t107.5 14q100 0 178 -33.5t131.5 -103.5t81 -176.5t27.5 -254t-27.5 -256t-81 -178 t-131.5 -103t-178 -33.5q-59 0 -107.5 13t-86 36.5t-67.5 57.5t-52 73h-8q2 -53 4 -99q0 -20 1 -40.5t2 -38t1 -31.5v-23v-196q0 -45 13 -73t36.5 -42t54.5 -18.5t64 -4.5h6v-86h-551v86zM414 551q0 -106 13 -188t46 -138.5t86 -85t135 -28.5q68 0 115 28.5t78 85t45 138 t14 190.5q0 217 -59.5 325.5t-194.5 108.5q-80 0 -133 -26.5t-86 -81t-46 -136t-13 -192.5z" />
<glyph unicode="&#xff;" horiz-adv-x="1155" d="M8 1012v86h492v-86h-6q-61 0 -92 -23.5t-31 -75.5q0 -16 4 -34.5t12 -40.5l150 -365q14 -35 29.5 -77t28.5 -82t24.5 -75.5t15.5 -62.5h6q10 45 29.5 109.5t46.5 138.5l137 399q8 25 13 48.5t5 39.5q0 53 -33.5 77t-101.5 24h-6v86h426v-86h-6q-31 0 -52.5 -6.5 t-39 -24.5t-31.5 -49t-33 -80l-311 -860q-37 -98 -68.5 -173t-66.5 -129.5t-77 -89t-94 -55t-122 -29t-160 -8.5h-18v97q104 0 179 30.5t129 85t91 128t62 159.5l-379 895q-14 33 -26.5 53.5t-30 32.5t-39 17.5t-50.5 5.5h-6zM320 1409q0 33 8 54.5t22.5 34.5t33 19.5 t40.5 6.5q23 0 41.5 -6.5t32.5 -19.5t22.5 -34.5t8.5 -54.5q0 -31 -8.5 -53.5t-22.5 -35.5t-32.5 -19.5t-41.5 -6.5q-45 0 -74.5 26t-29.5 89zM709 1409q0 33 8 54.5t22.5 34.5t33 19.5t40.5 6.5q23 0 41.5 -6.5t32.5 -19.5t22.5 -34.5t8.5 -54.5q0 -31 -8.5 -53.5 t-22.5 -35.5t-32.5 -19.5t-41.5 -6.5q-45 0 -74.5 26t-29.5 89z" />
<glyph unicode="&#x2c6;" horiz-adv-x="1181" d="M289 1241v27q25 29 53.5 66.5t57 78.5t53 82t41.5 74h194q16 -35 41 -75t53.5 -81t57 -79t53.5 -66v-27h-80q-59 35 -117.5 85t-105.5 99q-47 -49 -105.5 -99t-115.5 -85h-80z" />
<glyph unicode="&#x2dc;" horiz-adv-x="1181" d="M225 1262q2 47 16.5 90t40 76.5t65.5 54t95 20.5t99.5 -20.5t83.5 -45t71.5 -44t65.5 -19.5q31 0 49 9.5t28.5 24.5t14.5 34.5t8 40.5h92q-2 -47 -16 -90t-40 -78t-64.5 -54.5t-94.5 -19.5q-55 0 -99 19.5t-83 44t-72.5 45t-66.5 20.5q-31 0 -49.5 -9t-28.5 -23.5 t-15.5 -35t-7.5 -40.5h-92z" />
<glyph unicode="&#x2000;" horiz-adv-x="953" />
<glyph unicode="&#x2001;" horiz-adv-x="1907" />
<glyph unicode="&#x2002;" horiz-adv-x="953" />
<glyph unicode="&#x2003;" horiz-adv-x="1907" />
<glyph unicode="&#x2004;" horiz-adv-x="635" />
<glyph unicode="&#x2005;" horiz-adv-x="476" />
<glyph unicode="&#x2006;" horiz-adv-x="317" />
<glyph unicode="&#x2007;" horiz-adv-x="317" />
<glyph unicode="&#x2008;" horiz-adv-x="238" />
<glyph unicode="&#x2009;" horiz-adv-x="381" />
<glyph unicode="&#x200a;" horiz-adv-x="105" />
<glyph unicode="&#x2010;" horiz-adv-x="634" d="M51 481v154h533v-154h-533z" />
<glyph unicode="&#x2011;" horiz-adv-x="634" d="M51 481v154h533v-154h-533z" />
<glyph unicode="&#x2012;" horiz-adv-x="634" d="M51 481v154h533v-154h-533z" />
<glyph unicode="&#x2013;" horiz-adv-x="1024" d="M-10 489v121h1044v-121h-1044z" />
<glyph unicode="&#x2014;" horiz-adv-x="2048" d="M-10 489v121h2068v-121h-2068z" />
<glyph unicode="&#x2018;" horiz-adv-x="512" d="M115 1063q0 66 18.5 126t58 112.5t104 94.5t155.5 68v-86q-100 -33 -147.5 -79t-47.5 -105q0 -20 11.5 -33.5t27.5 -24t35.5 -20.5t37 -24.5t28 -35t10.5 -50.5q0 -59 -38 -90t-96 -31q-31 0 -59.5 11t-51 33.5t-34.5 56.5t-12 77z" />
<glyph unicode="&#x2019;" horiz-adv-x="512" d="M61 883v86q100 33 147.5 79t47.5 105q0 20 -11.5 33.5t-27.5 24t-35.5 20.5t-37 24.5t-28 35t-10.5 50.5q0 59 38 90t96 31q33 0 60.5 -11t50 -33.5t34.5 -56.5t12 -77q0 -66 -18.5 -126t-58 -112.5t-103 -94.5t-156.5 -68z" />
<glyph unicode="&#x201a;" horiz-adv-x="512" d="M61 -229q100 33 147.5 79t47.5 105q0 20 -11.5 33.5t-27.5 24t-35.5 20.5t-37 24.5t-28 35t-10.5 50.5q0 59 38 90t96 31q33 0 60.5 -11t50 -33.5t34.5 -56.5t12 -77q0 -66 -18.5 -126t-58 -112.5t-103 -94.5t-156.5 -68v86z" />
<glyph unicode="&#x201c;" horiz-adv-x="921" d="M115 1063q0 66 18.5 126t58 112.5t104 94.5t155.5 68v-86q-100 -33 -147.5 -79t-47.5 -105q0 -20 11.5 -33.5t27.5 -24t35.5 -20.5t37 -24.5t28 -35t10.5 -50.5q0 -59 -38 -90t-96 -31q-31 0 -59.5 11t-51 33.5t-34.5 56.5t-12 77zM524 1063q0 66 17.5 126t58.5 112.5 t104.5 94.5t155.5 68v-86q-100 -33 -147 -79t-47 -105q0 -20 11 -33.5t27.5 -24t36 -20.5t36 -24.5t27.5 -35t11 -50.5q0 -59 -38 -90t-95 -31q-31 0 -59.5 11t-50 33.5t-35 56.5t-13.5 77z" />
<glyph unicode="&#x201d;" horiz-adv-x="921" d="M61 883v86q100 33 147.5 79t47.5 105q0 20 -11.5 33.5t-27.5 24t-35.5 20.5t-37 24.5t-28 35t-10.5 50.5q0 59 38 90t96 31q33 0 60.5 -11t50 -33.5t34.5 -56.5t12 -77q0 -66 -18.5 -126t-58 -112.5t-103 -94.5t-156.5 -68zM471 883v86q100 33 147.5 79t47.5 105 q0 20 -11.5 33.5t-28 24t-36 20.5t-35.5 24.5t-27.5 35t-11.5 50.5q0 59 38 90t95 31q33 0 60.5 -11t49 -33.5t35 -56.5t13.5 -77q0 -66 -18.5 -126t-58.5 -112.5t-103.5 -94.5t-155.5 -68z" />
<glyph unicode="&#x201e;" horiz-adv-x="921" d="M61 -229q100 33 147.5 79t47.5 105q0 20 -11.5 33.5t-27.5 24t-35.5 20.5t-37 24.5t-28 35t-10.5 50.5q0 59 38 90t96 31q33 0 60.5 -11t50 -33.5t34.5 -56.5t12 -77q0 -66 -18.5 -126t-58 -112.5t-103 -94.5t-156.5 -68v86zM471 -229q100 33 147.5 79t47.5 105 q0 20 -11.5 33.5t-28 24t-36 20.5t-35.5 24.5t-27.5 35t-11.5 50.5q0 59 38 90t95 31q33 0 60.5 -11t49 -33.5t35 -56.5t13.5 -77q0 -66 -18.5 -126t-58.5 -112.5t-103.5 -94.5t-155.5 -68v86z" />
<glyph unicode="&#x2022;" horiz-adv-x="739" d="M100 729q0 84 20.5 141.5t56.5 91t86 49t108 15.5q55 0 104 -15.5t86 -49t58.5 -91t21.5 -141.5t-21.5 -140.5t-58.5 -91t-86 -50t-104 -15.5q-57 0 -107.5 15.5t-86.5 50t-56.5 91t-20.5 140.5z" />
<glyph unicode="&#x202f;" horiz-adv-x="381" />
<glyph unicode="&#x2039;" horiz-adv-x="681" d="M133 520v66l313 356h103l-207 -389l207 -389h-103z" />
<glyph unicode="&#x203a;" horiz-adv-x="681" d="M135 164l207 389l-207 389h103l313 -356v-66l-313 -356h-103z" />
<glyph unicode="&#x205f;" horiz-adv-x="476" />
<glyph unicode="&#x25fc;" horiz-adv-x="1095" d="M0 0v1096h1096v-1096h-1096z" />
</font>
</defs>
</svg>
