<?xml version="1.0" standalone="no"?>
<!DOCTYPE svg PUBLIC "-//W3C//DTD SVG 1.1//EN" "http://www.w3.org/Graphics/SVG/1.1/DTD/svg11.dtd" >
<svg xmlns="http://www.w3.org/2000/svg" xmlns:xlink="http://www.w3.org/1999/xlink" version="1.1">
<metadata></metadata>
<defs>
<font id="hsn_saranormal" horiz-adv-x="1204" >
<font-face units-per-em="2048" ascent="1638" descent="-410" />
<missing-glyph horiz-adv-x="389" />
<glyph horiz-adv-x="0" />
<glyph unicode="&#xd;" horiz-adv-x="473" />
<glyph unicode=" "  horiz-adv-x="389" />
<glyph unicode="&#x09;" horiz-adv-x="389" />
<glyph unicode="&#xa0;" horiz-adv-x="389" />
<glyph unicode="!" horiz-adv-x="487" d="M154 79q0 41 28 69t66 28q40 0 68 -29t28 -67t-28 -67q-28 -27 -68 -27t-68 26q-26 27 -26 67zM172 1155q0 121 17 141t59 20t60 -20q29 -35 8 -350q-9 -152 -23 -329t-19 -255h-51q-3 78 -27 375t-24 418z" />
<glyph unicode="&#x22;" horiz-adv-x="780" d="M268 1235q0 41 27 67t67 25q66 0 97 -54t30 -126q0 -152 -137 -293l-43 33q53 61 81 117t28 137q-150 0 -150 94zM555 1235q0 41 27 67t67 25q67 0 97 -54t30 -126q0 -152 -137 -293l-43 33q53 61 81 117t28 137q-150 0 -150 94z" />
<glyph unicode="#" horiz-adv-x="2496" />
<glyph unicode="$" horiz-adv-x="993" d="M96 322q0 51 28 89t71 38t67 -26t23 -71q0 -88 -127 -88q14 -90 100 -139t184 -49h9v586q-306 81 -306 314q0 118 81 205t225 109v183h57v-181q121 0 212 -55t91 -168q0 -47 -26 -79q-27 -32 -65 -32t-62 23t-23 59q0 86 72 86q23 0 34 -2q0 53 -62 84t-144 31h-27v-469 q82 -26 135 -50t111 -66q116 -85 115 -246t-98 -260t-263 -121v-168h-57v164h-13q-135 -1 -238 81t-104 218zM246 1010q0 -86 47 -133t158 -91v449q-85 -6 -145 -73q-60 -66 -60 -152zM508 80q116 16 188 91t72 191t-67 182q-67 65 -193 103v-567z" />
<glyph unicode="%" horiz-adv-x="954" d="M154 1292h176l39 -182h-176zM170 -18l539 1394l96 -51l-537 -1397zM623 233h176l41 -184h-176z" />
<glyph unicode="&#x26;" horiz-adv-x="2031" />
<glyph unicode="'" horiz-adv-x="356" d="M231 1233q-1 106 61 106t62 -106q0 -33 -2 -47l-30 -383q0 -54 -29 -58q-29 0 -29 58l-31 383q-2 14 -2 47z" />
<glyph unicode="(" horiz-adv-x="768" d="M154 496q0 208 66 395q67 186 210 315t338 133v-53q-215 0 -350 -222t-135 -568t135 -568t350 -223v-53q-195 2 -338 133t-210 317q-66 186 -66 394z" />
<glyph unicode=")" horiz-adv-x="845" d="M229 -295q215 0 351 222q135 223 135 569t-135 568t-351 222v53q195 -4 339 -133t211 -315q67 -185 67 -367q0 -341 -154 -597q-74 -121 -194 -197t-269 -78v53z" />
<glyph unicode="*" horiz-adv-x="948" d="M166 889l45 135l195 -63l-3 202h142v-205l194 64l43 -135l-194 -62l121 -166l-115 -81l-121 163l-119 -163l-112 81l120 166z" />
<glyph unicode="+" horiz-adv-x="1146" d="M125 555v96h401v402h97v-402h401v-96h-401v-401h-97v401h-401z" />
<glyph unicode="-" d="M125 410v79h956v-79h-956z" />
<glyph unicode="." horiz-adv-x="501" d="M166 93q0 40 29 68q29 27 67 27t68 -28q28 -28 28 -66q0 -40 -28 -68t-69 -28q-39 0 -67 28t-28 67z" />
<glyph unicode="/" horiz-adv-x="872" d="M229 -23l490 1362h96l-489 -1362h-97z" />
<glyph unicode="0" horiz-adv-x="466" d="M172 367q-16 57 16 120t78 88l31 -116q18 -58 -21 -129q-12 -24 -41 -45q-28 -21 -32 -23z" />
<glyph unicode="1" horiz-adv-x="495" d="M104 1069q-4 45 11 95t51 74t53 30q72 -373 207 -957q16 -71 0 -149t-34 -116t-18 -45q-139 594 -270 1068zM374 1q1 -2 1 -3q-1 0 -1 3z" />
<glyph unicode="2" horiz-adv-x="698" d="M70 995q-27 99 41 187q69 88 183 88t204 -62t135 -139q4 -4 4 -9t-7 -14t-16 -2q-104 147 -241 148q-80 0 -128 -53t-30 -133l156 -695q16 -71 0 -149q-15 -78 -33 -116t-19 -46q-96 407 -249 995zM319 0v-2v2z" />
<glyph unicode="3" horiz-adv-x="1071" d="M45 1217q-12 53 31 53h88q29 0 33 -23q14 -42 14 -61l39 -182q27 -116 80 -174t123 -52q85 8 30 176q-23 92 -49 170q-27 78 -31 93q-14 53 31 53q54 0 68 -4q23 -6 48 -115t34 -141q25 -117 80 -176t124 -54q45 4 48 48q2 44 -21 116q-23 92 -39 141t-37 134 q-14 53 31 53q129 0 223 -53q4 -5 4 -9t-5 -10q-4 -6 -32 2t-57 8q-35 0 -24 -34q21 -99 34 -147t33 -138q20 -91 -30 -149t-113 -58q-106 0 -191 150q-4 -74 -49 -113t-96 -39q-98 0 -178 129l114 -500q31 -105 -37 -269q-15 -36 -16 -40q-123 535 -305 1215zM351 0 q0 -2 1 -2q0 2 -1 2z" />
<glyph unicode="4" horiz-adv-x="952" d="M123 1034q0 98 65 166q66 68 174 68t201 -49q94 -49 142 -111q6 -8 2 -22q-5 -14 -9 -15q-4 0 -8 4q-113 125 -250 125q-76 0 -118 -54t-41 -130q0 -136 106 -232t264 -112q8 0 8 -19t-14 -16h-31q-136 -6 -202 -77t-66 -169q0 -143 106 -241t240 -98q135 0 201 54 q4 4 6 5q4 1 9 -13t-1 -20q-70 -80 -207 -80q-138 0 -250 45t-193 142t-81 212t80 192t199 83l-2 6q-131 31 -231 127q-99 96 -99 229z" />
<glyph unicode="5" horiz-adv-x="933" d="M111 548q18 124 90 213t169 99t187 -44q89 -54 149 -143q118 -176 148 -317q42 -194 -22 -276t-246 -82t-298 74t-159 213q-37 139 -18 263zM244 628q-27 -167 37 -323q39 -98 119 -176t171 -78q53 1 87 21t54 85q19 65 -22 183q-4 12 -34 115t-68 180q-73 147 -148 168 q-160 45 -196 -175z" />
<glyph unicode="6" horiz-adv-x="851" d="M41 1165q0 104 141 105h2q178 0 306 -62t155 -190q61 -301 158 -707q16 -71 0 -149q-15 -78 -33 -116t-19 -46q-82 346 -257 1028q-23 92 -95 144t-178 53q-59 0 -92 -47t-29 -115q0 -8 -16 -9q-16 -2 -29 28q-14 30 -14 83z" />
<glyph unicode="7" horiz-adv-x="778" d="M0 1246q0 22 12 24q63 0 119 -41q6 -6 10 -19q47 -133 275 -595t260 -517l-289 1119q-14 53 31 53q55 0 130 -16t111 -37q8 -6 6 -16q-3 -9 -20 -7q-47 14 -76 14q-35 0 -24 -34l231 -1131q6 -27 -7 -36t-49 -7t-56 15t-48 68t-274 505t-294 544q-48 92 -48 114z" />
<glyph unicode="8" horiz-adv-x="894" d="M63 1193q-8 77 64 77q64 0 82 -43l543 -1118q35 -61 116 -13q8 4 18 1t7 -9q-96 -88 -211 -88q-59 0 -82 53l-469 1118l221 -1097q8 -39 -27 -57q-37 -17 -67 -17t-31 14q-8 72 -82 587t-82 592z" />
<glyph unicode="9" horiz-adv-x="854" d="M44 818q-11 156 62 289q74 134 187 159q188 39 301 -211q55 -121 115 -350q82 -332 96 -398q14 -67 -2 -145q-17 -78 -33 -116t-17 -45q-39 171 -171 697q-29 -113 -131 -145q-170 -55 -283 27t-124 238zM168 857q38 -244 182 -268q53 -10 92 3q147 68 95 256 q-63 219 -117 306q-54 86 -136 62q-81 -24 -107 -139q-25 -115 -9 -220zM753 1q0 -1 1 -3q-1 0 -1 3z" />
<glyph unicode=":" horiz-adv-x="638" d="M305 79q0 41 28 69q29 28 67 28t67 -29t29 -67t-29 -67q-29 -27 -69 -27t-66 26t-27 67zM305 753q0 41 28 69q29 28 67 28t67 -29t29 -67t-29 -68q-29 -29 -69 -29t-66 28t-27 68z" />
<glyph unicode="&#x3c;" horiz-adv-x="804" d="M131 508l428 420l115 -119l-305 -301l305 -301l-115 -119z" />
<glyph unicode="=" horiz-adv-x="1146" d="M125 334v94h899v-94h-899zM125 705v94h899v-94h-899z" />
<glyph unicode="&#x3e;" horiz-adv-x="804" d="M131 207l305 301l-305 301l115 119l428 -420l-428 -420z" />
<glyph unicode="[" horiz-adv-x="454" d="M154 -326v1643h301v-55h-74q-63 0 -86 -34t-23 -112v-1241q0 -78 23 -113t86 -34h74v-54h-301z" />
<glyph unicode="\" horiz-adv-x="700" d="M57 1339h97l489 -1362h-96z" />
<glyph unicode="]" horiz-adv-x="532" d="M229 -272h76q63 0 86 34t23 113v1241q0 76 -23 111t-86 35h-76v55h303v-1643h-303v54z" />
<glyph unicode="_" horiz-adv-x="1034" d="M0 -104h1034v-82h-1034v82z" />
<glyph unicode="{" horiz-adv-x="585" d="M0 442v86l53 11q121 25 121 141v309q0 305 232 305h57v-67q-123 -3 -163 -61t-40 -165v-327q0 -82 -45 -128t-158 -59l70 -20q77 -12 105 -56t28 -118v-324q0 -195 141 -217l62 -10v-70h-57q-109 0 -170 82t-62 226v309q0 113 -121 141z" />
<glyph unicode="|" horiz-adv-x="270" d="M90 -332v1598h88v-1598h-88z" />
<glyph unicode="}" horiz-adv-x="585" d="M123 -258l61 10q141 23 142 217v324q0 74 28 118q29 44 105 56l69 20q-114 13 -158 59t-44 128v327q0 107 -40 165t-163 61v67h57q231 0 232 -305v-309q0 -117 120 -141l54 -11v-86l-54 -12q-121 -29 -120 -141v-309q0 -144 -62 -226t-170 -82h-57v70z" />
<glyph unicode="&#xab;" horiz-adv-x="1021" d="M137 393l158 152q145 145 145 178t-43 63q98 -25 99 -96q0 -33 -58 -90l-209 -207l209 -209q58 -57 58 -88q0 -72 -99 -96q43 33 43 62t-57 83zM526 393l156 152q147 147 147 178t-43 63q98 -25 99 -96q0 -33 -58 -90l-209 -207l209 -209q58 -57 58 -88q0 -72 -99 -96 q43 33 43 64t-147 178z" />
<glyph unicode="&#xad;" d="M125 410v79h956v-79h-956z" />
<glyph unicode="&#xbb;" horiz-adv-x="1021" d="M137 96q0 31 58 88l208 209l-208 207q-57 57 -58 90q0 72 99 96q-43 -30 -43 -64t147 -177l156 -152l-246 -248q-57 -55 -57 -83t43 -62q-98 25 -99 96zM526 96q0 31 58 88l207 209l-207 207q-57 57 -58 90q0 72 97 96q-41 -32 -41 -64t145 -177l158 -152l-246 -248 q-57 -55 -57 -83t41 -62q-96 25 -97 96z" />
<glyph unicode="&#xf7;" horiz-adv-x="923" />
<glyph unicode="&#x2000;" horiz-adv-x="736" />
<glyph unicode="&#x2001;" horiz-adv-x="1473" />
<glyph unicode="&#x2002;" horiz-adv-x="736" />
<glyph unicode="&#x2003;" horiz-adv-x="1473" />
<glyph unicode="&#x2004;" horiz-adv-x="491" />
<glyph unicode="&#x2005;" horiz-adv-x="368" />
<glyph unicode="&#x2006;" horiz-adv-x="245" />
<glyph unicode="&#x2007;" horiz-adv-x="245" />
<glyph unicode="&#x2008;" horiz-adv-x="184" />
<glyph unicode="&#x2009;" horiz-adv-x="294" />
<glyph unicode="&#x200a;" horiz-adv-x="81" />
<glyph unicode="&#x2010;" d="M125 410v79h956v-79h-956z" />
<glyph unicode="&#x2011;" d="M125 410v79h956v-79h-956z" />
<glyph unicode="&#x2012;" d="M125 410v79h956v-79h-956z" />
<glyph unicode="&#x2013;" horiz-adv-x="1272" d="M125 410v79h1024v-79h-1024z" />
<glyph unicode="&#x2014;" horiz-adv-x="2296" d="M125 410v79h2048v-79h-2048z" />
<glyph unicode="&#x201c;" horiz-adv-x="843" d="M137 928q0 171 209 282q-113 -113 -113 -217q0 -61 41 -114l-88 -86q-49 63 -49 135zM498 928q0 171 209 282q-113 -111 -113 -217q0 -63 43 -114l-88 -86q-51 63 -51 135z" />
<glyph unicode="&#x201d;" horiz-adv-x="843" d="M137 805q113 111 113 217q0 59 -41 113l88 88q49 -64 49 -138q0 -172 -209 -280zM498 805q113 111 112 217q0 59 -41 113l88 88q50 -64 50 -136q0 -174 -209 -282z" />
<glyph unicode="&#x202f;" horiz-adv-x="294" />
<glyph unicode="&#x205f;" horiz-adv-x="368" />
<glyph unicode="&#x25fc;" horiz-adv-x="500" d="M0 0z" />
</font>
</defs>
</svg>
