<?xml version="1.0" standalone="no"?>
<!DOCTYPE svg PUBLIC "-//W3C//DTD SVG 1.1//EN" "http://www.w3.org/Graphics/SVG/1.1/DTD/svg11.dtd" >
<svg xmlns="http://www.w3.org/2000/svg" xmlns:xlink="http://www.w3.org/1999/xlink" version="1.1">
<metadata></metadata>
<defs>
<font id="hsn_saranormal" horiz-adv-x="0" >
<font-face units-per-em="2048" ascent="1638" descent="-410" />
<missing-glyph horiz-adv-x="389" />
<glyph unicode="&#xfedf;&#xfe82;" horiz-adv-x="1167" arabic-form="isolated" d="M274 1448q-64 0 -118 36t-94 36t-66 -23t-31 -49h-47q37 158 174 158q25 0 102 -34t115 -34q68 0 82 76h47q-6 -66 -53 -116t-111 -50zM950 1018v-715q0 -137 -60 -220t-179 -83h-195q-96 0 -173 54q-113 79 -140 206q0 18 18 19q15 -2 37 -36t27 -40q49 -72 178 -72h90 q-365 1034 -389 1065q0 51 53 99t94 59l365 -1223q72 0 88 47q12 34 12 76v858q0 121 49 199t151 78t146 -66q43 -66 45 -152l-43 -24q-4 96 -84 96q-65 0 -78 -79q-12 -69 -12 -146z" />
<glyph unicode="&#xfee0;&#xfe82;" horiz-adv-x="1261" arabic-form="final" d="M1272 131v-131h-49q-82 0 -160 44t-133 108l-2 2q-53 -154 -215 -154h-195q-96 0 -173 54q-113 79 -140 206q0 18 18 19q15 -2 37 -36t27 -40q49 -72 178 -72h90q-365 1034 -389 1065q0 51 53 99t94 59l365 -1223q72 0 88 47q12 34 12 76v997q0 55 65 97t109 43v-1088 q0 -29 -4 -74q80 -98 221 -98h103zM274 1448q-64 0 -118 36t-94 36t-66 -23t-31 -49h-47q37 158 174 158q25 0 102 -34t115 -34q68 0 82 76h47q-6 -66 -53 -116t-111 -50z" />
<glyph unicode="&#xfedf;&#xfe84;" horiz-adv-x="1167" arabic-form="isolated" d="M250 1712q-44 0 -64 -31t-20 -69t22 -67q22 -27 65 -27q42 0 73 14q24 -2 48 -18t23 -27q-55 -47 -143 -47h-170q-51 0 -85 26t-34 54v34q37 -37 80 -36h49q-20 32 -20 86t50 102t108 49q58 0 100 -18q41 -18 47 -37q-23 -23 -70 -23q-16 35 -59 35zM950 1018v-715 q0 -137 -60 -220t-179 -83h-195q-96 0 -173 54q-113 79 -140 206q0 18 18 19q15 -2 37 -36t27 -40q49 -72 178 -72h90q-365 1034 -389 1065q0 51 53 99t94 59l365 -1223q72 0 88 47q12 34 12 76v858q0 121 49 199t151 78t146 -66q43 -66 45 -152l-43 -24q-4 96 -84 96 q-65 0 -78 -79q-12 -69 -12 -146z" />
<glyph unicode="&#xfee0;&#xfe84;" horiz-adv-x="1261" arabic-form="final" d="M250 1712q-44 0 -64 -31t-20 -69t22 -67q22 -27 65 -27q42 0 73 14q24 -2 48 -18t23 -27q-55 -47 -143 -47h-170q-51 0 -85 26t-34 54v34q37 -37 80 -36h49q-20 32 -20 86t50 102t108 49q58 0 100 -18q41 -18 47 -37q-23 -23 -70 -23q-16 35 -59 35zM1272 131v-131h-49 q-82 0 -160 44t-133 108l-2 2q-53 -154 -215 -154h-195q-96 0 -173 54q-113 79 -140 206q0 18 18 19q15 -2 37 -36t27 -40q49 -72 178 -72h90q-365 1034 -389 1065q0 51 53 99t94 59l365 -1223q72 0 88 47q12 34 12 76v997q0 55 65 97t109 43v-1088q0 -29 -4 -74 q80 -98 221 -98h103z" />
<glyph unicode="&#xfedf;&#xfe88;" horiz-adv-x="1167" arabic-form="isolated" d="M950 1018v-715q0 -137 -60 -220t-179 -83h-195q-96 0 -173 54q-113 79 -140 206q0 18 18 19q15 -2 37 -36t27 -40q49 -72 178 -72h90q-365 1034 -389 1065q0 51 53 99t94 59l365 -1223q72 0 88 47q12 34 12 76v858q0 121 49 199t151 78t146 -66q43 -66 45 -152l-43 -24 q-4 96 -84 96q-65 0 -78 -79q-12 -69 -12 -146zM612 -406h-170q-51 0 -85 26t-33 54v35q37 -37 79 -37h50q-21 33 -21 87q0 55 50 103t108 48t100 -18q41 -18 47 -37q-23 -23 -69 -23q-16 35 -60 35t-63 -31q-21 -32 -21 -70t23 -66t64 -28t65 13l8 2q24 -1 48 -17t24 -28 q-56 -48 -144 -48z" />
<glyph unicode="&#xfee0;&#xfe88;" horiz-adv-x="1261" arabic-form="final" d="M1272 131v-131h-49q-82 0 -160 44t-133 108l-2 2q-53 -154 -215 -154h-195q-96 0 -173 54q-113 79 -140 206q0 18 18 19q15 -2 37 -36t27 -40q49 -72 178 -72h90q-365 1034 -389 1065q0 51 53 99t94 59l365 -1223q72 0 88 47q12 34 12 76v997q0 55 65 97t109 43v-1088 q0 -29 -4 -74q80 -98 221 -98h103zM612 -406h-170q-51 0 -85 26t-33 54v35q37 -37 79 -37h50q-21 33 -21 87q0 55 50 103t108 48t100 -18q41 -18 47 -37q-23 -23 -69 -23q-16 35 -60 35t-63 -31q-21 -32 -21 -70t23 -66t64 -28t65 13l8 2q24 -1 48 -17t24 -28 q-56 -48 -144 -48z" />
<glyph unicode="&#xfedf;&#xfe8e;" horiz-adv-x="1167" arabic-form="isolated" d="M950 1018v-715q0 -137 -60 -220t-179 -83h-195q-96 0 -173 54q-113 79 -140 206q0 18 18 19q15 -2 37 -36t27 -40q49 -72 178 -72h90q-365 1034 -389 1065q0 51 53 99t94 59l365 -1223q72 0 88 47q12 34 12 76v858q0 121 49 199t151 78t146 -66q43 -66 45 -152l-43 -24 q-4 96 -84 96q-65 0 -78 -79q-12 -69 -12 -146z" />
<glyph unicode="&#xfee0;&#xfe8e;" horiz-adv-x="1261" arabic-form="final" d="M1272 131v-131h-49q-82 0 -160 44t-133 108l-2 2q-53 -154 -215 -154h-195q-96 0 -173 54q-113 79 -140 206q0 18 18 19q15 -2 37 -36t27 -40q49 -72 178 -72h90q-365 1034 -389 1065q0 51 53 99t94 59l365 -1223q72 0 88 47q12 34 12 76v997q0 55 65 97t109 43v-1088 q0 -29 -4 -74q80 -98 221 -98h103z" />
<glyph unicode="&#xfc5e;" arabic-form="isolated" d="M175 1378q-60 0 -82 18t-21 60v139l47 -8v-123q0 -61 43 -61q51 0 51 59v125l47 8v-102q0 -33 15 -61t44 -29q43 0 43 59v125l48 8v-139q0 -76 -86 -78q-42 0 -76 52q-13 -52 -73 -52zM305 1937q57 0 86 -37q29 -38 29 -82t-47 -82t-158 -38l-72 4l-12 2q-4 4 -39 59 l35 49q12 22 12 46t-21 42t-41 17q-20 0 -61 -31l9 19q8 16 27 33t44 18h17q80 -22 80 -92t-54 -109q31 -6 73 -6t75 12q-50 50 -54 107q0 31 27 55q23 14 45 14zM281 1842q0 -22 43 -60q55 29 55 59q0 13 -4 21q-13 26 -37 26t-40 -12t-17 -34z" />
<glyph unicode="&#xfc5f;" arabic-form="isolated" d="M175 1677q-60 1 -82 19t-21 57v141l47 -8v-125q0 -61 43 -61q51 0 51 59v127l47 8v-102q0 -32 15 -62t44 -30q43 0 43 59v127l48 8v-141q0 -35 -22 -55t-62 -20t-78 48q-13 -49 -73 -49zM457 1495q0 -14 -27 -51l-336 -66l-41 21l396 114q8 -4 8 -18zM457 1630 q0 -14 -27 -51l-336 -63l-41 18l396 115q8 -5 8 -19z" />
<glyph unicode="&#xfc60;" arabic-form="isolated" d="M175 1378q-60 0 -82 18t-21 60v139l47 -8v-123q0 -61 43 -61q51 0 51 59v125l47 8v-102q0 -33 15 -61t44 -29q43 0 43 59v125l48 8v-139q0 -76 -86 -78q-42 0 -76 52q-13 -52 -73 -52zM420 1810q12 0 12 -17t-26 -60l-340 -66l-52 25z" />
<glyph unicode="&#xfc61;" arabic-form="isolated" d="M175 1378q-60 0 -82 18t-21 60v139l47 -8v-123q0 -61 43 -61q51 0 51 59v125l47 8v-102q0 -33 15 -61t44 -29q43 0 43 59v125l48 8v-139q0 -76 -86 -78q-42 0 -76 52q-13 -52 -73 -52zM362 1841v6q-4 92 -57 92h-16q-35 -3 -61 -31t-24 -70t33 -65q32 -23 54 -12h8 q63 18 63 80zM168 1829q0 69 39 110t94 41t95 -42t40 -98t-37 -94t-94 -48l-237 -31l-41 16l192 52q-51 25 -51 94z" />
<glyph unicode="&#xfc62;" arabic-form="isolated" d="M442 1513q18 -4 7 -27q-1 -1 -25 -42l-336 -66l-41 21zM175 1579q-60 0 -82 18t-21 58v137l47 -8v-121q0 -61 43 -61q51 0 51 59v123l47 8v-100q0 -33 15 -62t44 -28q43 0 43 59v123l48 8v-137q0 -35 -22 -55t-64 -21q-42 0 -76 49q-13 -49 -73 -49z" />
<glyph unicode="&#xfdf2;" horiz-adv-x="2105" arabic-form="isolated" d="M1343 1740q0 -68 -40 -138q6 33 6 53q0 104 -84 160l63 63q55 -70 55 -138zM2103 1391v-1088q0 -137 -60 -220t-179 -83h-113q-92 0 -179 55t-138 129q-47 -184 -265 -184h-161q-127 0 -201 66t-74 194q-31 -37 -118 -70q-166 -63 -301 -3q-106 49 -138 172 q-12 46 -12 94q0 102 59 193q59 92 147 150q191 127 365 126q125 0 172 -11v-647q0 -74 39 -104t117 -29h80q125 0 138 148q3 33 3 81v648q0 53 65 96t109 43v-889q30 -53 96 -90t144 -37h78q154 0 153 180v940q1 55 65 97t109 43zM733 864q-135 0 -266 -128t-131 -290 q0 -74 50 -133t153 -59q39 0 101 24t93 48v538zM1436 1311q-46 0 -74 18q-6 -20 -15 -43q-9 -24 -37 -50t-76 -26q-95 0 -93 127q0 37 8 95l20 8q-1 -4 7 -50t21 -64t42 -19q47 1 69 65t23 141l15 5q31 -102 94 -103q27 0 40 48t13 98l-2 20l25 10q26 -51 26 -123t-30 -115 q-30 -42 -76 -42z" />
<glyph unicode="&#x622;" horiz-adv-x="806" arabic-form="final" d="M817 0h-291q-119 0 -179 83t-60 220v948q0 55 66 97q67 41 112 41v-1078q0 -180 153 -180h199v-131zM478 1464q-64 0 -120 36t-94 36q-40 0 -66 -23t-30 -49h-47q37 158 174 158q25 0 101 -34t116 -34q68 0 82 76h47q-6 -66 -53 -116q-46 -50 -110 -50z" />
<glyph unicode="&#x623;" horiz-adv-x="806" arabic-form="final" d="M447 1546q45 0 69 15q24 -1 48 -17t24 -28q-56 -48 -144 -48h-170q-51 0 -85 26t-33 54v35q37 -37 80 -37h49q-21 33 -21 87q0 55 50 103t108 48t100 -18q41 -18 47 -37q-23 -23 -69 -23q-16 35 -60 35t-63 -31q-21 -31 -21 -70q0 -38 23 -66t68 -28zM817 0h-291 q-119 0 -179 83t-60 220v948q0 55 66 97q67 41 112 41v-1078q0 -180 153 -180h199v-131z" />
<glyph unicode="&#x624;" horiz-adv-x="1327" arabic-form="final" d="M1337 0h-295q-16 -194 -137 -304t-280 -110q-215 0 -342 74q0 31 33 80q34 49 71 55q29 -51 93 -86t153 -35q88 0 163 73t74 169v84h-221q-193 0 -298 120t-105 310t121 350t311 160t278 -111t88 -284v-414h293v-131zM870 131v520q0 90 -50 160t-133 70q-155 0 -214 -140 q-51 -119 -51 -279t61 -246q61 -85 199 -85h188zM782 1159q53 0 88 21q27 -2 57 -20t29 -34q-57 -55 -163 -55h-263q-51 0 -85 26t-42 46v59q49 -43 103 -43h82q-35 55 -35 124t64 126q65 57 155 57q53 0 101 -24t59 -45q-23 -23 -62 -23h-22q-20 45 -74 45t-83 -38 q-30 -38 -29 -89q0 -133 120 -133z" />
<glyph unicode="&#x625;" horiz-adv-x="806" arabic-form="final" d="M817 131v-131h-291q-119 0 -179 83t-60 220v948q0 55 66 97q67 41 112 41v-1078q0 -180 153 -180h199zM414 -414h-170q-51 0 -85 26t-34 54v35q37 -37 80 -37h49q-20 33 -20 87q0 55 50 103t108 48t100 -18t47 -38q-23 -23 -70 -22q-15 35 -59 35t-64 -31t-20 -70 q0 -38 22 -66t64 -28q41 0 65 12l8 2q25 -2 49 -17t23 -28q-55 -47 -143 -47z" />
<glyph unicode="&#x626;" horiz-adv-x="1910" arabic-form="final" d="M1921 131v-131h-18q-57 0 -125 37t-119 94q-31 -125 -110 -224t-175 -155t-252 -106q-156 -49 -362 -52q-280 0 -438 104t-158 262q0 157 151 284q152 127 310 127q53 0 88 -21q4 -4 4 -20t-19 -41q-31 -35 -53 -47q-39 18 -88 18q-100 0 -174 -63t-74 -152 q0 -289 629 -291q282 0 444 126t162 280q0 90 -67 146q-68 56 -148 56q-12 0 -27 28q-16 28 -16 62t8 42q92 0 190 -65t156 -161q35 -59 102 -98t144 -39h35zM516 545q30 0 90 20q25 0 56 -18t30 -35q-58 -53 -164 -53h-262q-53 1 -86 25t-41 44v62q49 -45 103 -45h82 q-37 57 -37 125t65 125q66 57 156 57q53 0 100 -25t60 -45q-25 -20 -62 -20h-24q-20 45 -74 45t-82 -39q-29 -39 -29 -88q0 -135 119 -135z" />
<glyph unicode="&#x626;" horiz-adv-x="520" arabic-form="initial" d="M303 1268q55 0 88 20q27 -2 57 -20t29 -33q-58 -55 -164 -55h-262q-51 0 -85 26t-42 45v60q49 -43 103 -43h82q-35 56 -35 124t64 126q65 57 155 57q53 0 101 -25t59 -45q-23 -23 -62 -22h-22q-19 45 -73 45t-84 -38t-30 -89q0 -133 121 -133zM520 967v-664 q0 -137 -60 -220t-179 -83h-291v131h203q154 0 153 180v516q0 55 64 97t110 43z" />
<glyph unicode="&#x626;" horiz-adv-x="804" arabic-form="medial" d="M815 131v-131h-49q-92 0 -179 55t-138 129q-47 -184 -265 -184h-194v131h168q96 0 122 77q19 56 19 150v408q0 55 65 97t109 42v-649q31 -53 97 -89t143 -36h102zM260 1268q55 0 88 20q26 -2 56 -20t30 -33q-58 -55 -164 -55h-262q-51 0 -85 26t-42 45v60q49 -43 103 -43 h82q-35 56 -35 124t64 126q65 57 155 57q53 0 101 -25t59 -45q-23 -23 -62 -22h-22q-20 45 -74 45t-83 -38q-30 -38 -30 -89q0 -133 121 -133z" />
<glyph unicode="&#x627;" horiz-adv-x="806" arabic-form="final" d="M817 131v-131h-291q-119 0 -179 83t-60 220v948q0 55 66 97q67 41 112 41v-1078q0 -180 153 -180h199z" />
<glyph unicode="&#x628;" horiz-adv-x="2435" arabic-form="final" d="M2445 131v-131h-49q-88 0 -173 51t-136 121q-51 -172 -223 -172h-1278q-186 0 -304 115t-118 277t95 274q95 111 245 110q51 0 116 -20t78 -60q0 -20 -32 -37q-33 -16 -74 -22q-49 84 -123 84t-115 -69t-41 -138q1 -174 103 -278t262 -105h1106q145 0 145 180v455 q0 55 65 97t109 42v-649q31 -53 97 -89t143 -36h102zM1176 -401q-43 1 -74 31t-31 73t31 74t74 31q44 0 74 -32q30 -30 30 -73t-30 -73t-74 -31z" />
<glyph unicode="&#x628;" horiz-adv-x="520" arabic-form="initial" d="M520 967v-664q0 -137 -60 -220t-179 -83h-291v131h203q154 0 153 180v516q0 55 64 97t110 43zM287 -401q-43 1 -74 31t-31 73t31 74t74 31t73 -32q30 -30 31 -73q-1 -43 -31 -73t-73 -31z" />
<glyph unicode="&#x628;" horiz-adv-x="804" arabic-form="medial" d="M815 131v-131h-49q-92 0 -179 55t-138 129q-47 -184 -265 -184h-194v131h168q96 0 122 77q19 56 19 150v408q0 55 65 97t109 42v-649q31 -53 97 -89t143 -36h102zM233 -401q-43 1 -73 31t-31 73q0 43 31 74q32 31 74 31t73 -32q31 -30 31 -73t-31 -73t-74 -31z" />
<glyph unicode="&#x629;" horiz-adv-x="1253" arabic-form="final" d="M449 1133q-43 1 -74 31t-31 73t31 74t74 31t73 -32q30 -30 31 -73q-1 -43 -31 -73t-73 -31zM770 1133q-43 1 -74 31t-30 73q0 43 30 74q31 31 74 31t74 -32q30 -30 30 -73t-30 -74q-31 -30 -74 -30zM1264 131v-131h-256q-127 0 -201 66t-74 194q-31 -37 -118 -70 q-166 -63 -301 -3q-106 49 -138 172q-12 46 -12 94q0 102 59 193q59 92 147 150q191 127 365 126q125 0 172 -11v-647q0 -74 39 -104t117 -29h201zM733 864q-135 0 -266 -128t-131 -290q0 -74 50 -133t153 -59q39 0 101 24t93 48v538z" />
<glyph unicode="&#x62a;" horiz-adv-x="2435" arabic-form="final" d="M1075 760q-43 0 -74 31t-31 73t31 74q31 31 74 31t74 -31t31 -74q0 -44 -31 -74t-74 -30zM1397 760q-43 0 -74 31t-31 73t31 74q31 31 74 31t73 -31t31 -74q-1 -44 -31 -74t-73 -30zM2445 131v-131h-49q-88 0 -173 51t-136 121q-51 -172 -223 -172h-1278q-186 0 -304 115 t-118 277t95 274q95 111 245 110q51 0 116 -20t78 -60q0 -20 -32 -37q-33 -16 -74 -22q-49 84 -123 84t-115 -69t-41 -138q1 -174 103 -278t262 -105h1106q145 0 145 180v455q0 55 65 97t109 42v-649q31 -53 97 -89t143 -36h102z" />
<glyph unicode="&#x62a;" horiz-adv-x="520" arabic-form="initial" d="M-18 1180q-43 0 -74 30t-31 74q0 43 31 74t74 31q44 0 74 -31t30 -74q0 -44 -30 -74t-74 -30zM303 1180q-43 0 -74 30t-30 74q0 43 30 74q31 31 74 31t74 -31t31 -74q0 -44 -31 -74t-74 -30zM520 967v-664q0 -137 -60 -220t-179 -83h-291v131h203q154 0 153 180v516 q0 55 64 97t110 43z" />
<glyph unicode="&#x62a;" horiz-adv-x="804" arabic-form="medial" d="M6 1126q-43 0 -74 31t-30 74q0 43 30 74q31 31 74 31t74 -32q31 -30 31 -73t-31 -74t-74 -31zM328 1126q-43 0 -74 31t-31 74t31 74t74 31q44 0 74 -32q30 -30 30 -73t-30 -74t-74 -31zM815 131v-131h-49q-92 0 -179 55t-138 129q-47 -184 -265 -184h-194v131h168 q96 0 122 77q19 56 19 150v408q0 55 65 97t109 42v-649q31 -53 97 -89t143 -36h102z" />
<glyph unicode="&#x62b;" horiz-adv-x="2435" arabic-form="final" d="M2445 131v-131h-49q-88 0 -173 51t-136 121q-51 -172 -223 -172h-1278q-186 0 -304 115t-118 277t95 274q95 111 245 110q51 0 116 -20t78 -60q0 -20 -32 -37q-33 -16 -74 -22q-49 84 -123 84t-115 -69t-41 -138q1 -174 103 -278t262 -105h1106q145 0 145 180v455 q0 55 65 97t109 42v-649q31 -53 97 -89t143 -36h102zM1081 762q-43 0 -73 31t-31 73q0 42 31 74q32 31 74 31t73 -31t31 -74q0 -44 -31 -74t-74 -30zM1403 762q-43 0 -74 31t-31 73t31 74q31 31 74 31t74 -31t31 -74q0 -44 -32 -74q-30 -30 -73 -30zM1241 1022q-41 0 -69 28 t-28 68t28 69q28 27 69 27t69 -28t28 -68t-28 -68t-69 -28z" />
<glyph unicode="&#x62b;" horiz-adv-x="520" arabic-form="initial" d="M520 889v-586q0 -137 -60 -220t-179 -83h-291v131h203q154 0 153 180v439q0 57 64 98t110 41zM10 1126q-44 0 -74 31t-30 74t31 74t73 31t74 -32q31 -30 31 -73t-31 -74t-74 -31zM332 1126q-43 0 -74 31t-31 74t31 74t74 31t74 -32q30 -30 30 -73t-30 -74t-74 -31z M170 1386q-41 0 -69 28t-27 69q0 41 28 69t68 27q41 0 69 -28q27 -29 27 -69t-28 -68t-68 -28z" />
<glyph unicode="&#x62b;" horiz-adv-x="804" arabic-form="medial" d="M-37 1126q-43 0 -74 31t-30 74q0 43 30 74q31 31 74 31t74 -32q31 -30 31 -73t-31 -74t-74 -31zM285 1126q-43 0 -74 31t-31 74t31 74t74 31t73 -32q30 -30 31 -73q-1 -43 -31 -74t-73 -31zM123 1386q-41 0 -69 28t-27 69q-1 41 27 69t69 27q41 0 69 -28q28 -29 27 -69 q1 -40 -27 -68t-69 -28zM815 131v-131h-49q-92 0 -179 55t-138 129q-47 -184 -265 -184h-194v131h168q96 0 122 77q19 56 19 150v408q0 55 65 97t109 42v-649q31 -53 97 -89t143 -36h102z" />
<glyph unicode="&#x62c;" horiz-adv-x="1189" arabic-form="final" d="M981 827q0 -61 -31 -77q-18 0 -59 -61t-41 -175v-203q0 -180 154 -180h196v-131h-270q-119 0 -179 83t-61 220v139q0 86 35 144q-225 -178 -301 -312t-76 -266q0 -133 77 -227t237 -94q54 1 124 31t99 71v-78q-160 -113 -303 -112q-184 1 -301 113t-117 308q0 109 62 222 q62 112 150 196q192 181 329 254l61 37q-88 2 -153 35q-65 32 -113 64t-88 32q-42 0 -76 -24t-35 -68q-80 0 -94 39q72 131 205 131q52 0 162 -50t245 -50q37 0 82 22t64 55q16 -27 16 -88zM606 -100q-43 0 -74 30t-30 74q0 43 30 74q31 31 74 31t74 -31t31 -74 q0 -44 -31 -74t-74 -30z" />
<glyph unicode="&#x62c;" horiz-adv-x="1484" arabic-form="initial" d="M-10 131h1104q-92 57 -167 151t-120 177l-94 164q-103 176 -252 176q-78 0 -137 -45t-86 -99l-54 -98q-25 -45 -41 -47q-18 0 -18 18q31 144 120 244t234 100q178 0 328 -204l135 -189q68 -94 167 -185t218 -134q74 -29 154 -29q0 -31 -35 -81t-72 -50h-1384v131z M524 -401q-44 1 -74 31t-30 73t31 74t73 31t74 -32q31 -30 31 -73t-31 -73t-74 -31z" />
<glyph unicode="&#x62c;" horiz-adv-x="1480" arabic-form="medial" d="M524 -401q-44 1 -74 31t-30 73t31 74t73 31t74 -32q31 -30 31 -73t-31 -73t-74 -31zM1491 0h-1501v131h1104q-92 57 -167 151t-120 177l-94 164q-103 176 -252 176q-78 0 -137 -45t-86 -99l-54 -98q-25 -45 -41 -47q-18 0 -18 18q31 144 120 244t234 100q178 0 328 -204 l135 -189q68 -94 167 -185t218 -134q74 -29 154 -29h10v-131z" />
<glyph unicode="&#x62d;" horiz-adv-x="1189" arabic-form="final" d="M981 827q0 -61 -31 -77q-18 0 -59 -61t-41 -175v-203q0 -180 154 -180h196v-131h-270q-119 0 -179 83t-61 220v139q0 86 35 144q-225 -178 -301 -312t-76 -266q0 -133 77 -227t237 -94q54 1 124 31t99 71v-78q-160 -113 -303 -112q-184 1 -301 113t-117 308q0 109 62 222 q62 112 150 196q192 181 329 254l61 37q-88 2 -153 35q-65 32 -113 64t-88 32q-42 0 -76 -24t-35 -68q-80 0 -94 39q72 131 205 131q52 0 162 -50t245 -50q37 0 82 22t64 55q16 -27 16 -88z" />
<glyph unicode="&#x62d;" horiz-adv-x="1480" arabic-form="initial" d="M-10 131h1104q-92 57 -167 151t-120 177l-94 164q-103 176 -252 176q-78 0 -137 -45t-86 -99l-54 -98q-25 -45 -41 -47q-18 0 -18 18q31 144 120 244t234 100q178 0 328 -204l135 -189q68 -94 167 -185t218 -134q74 -29 154 -29q0 -31 -35 -81t-72 -50h-1384v131z" />
<glyph unicode="&#x62d;" horiz-adv-x="1480" arabic-form="medial" d="M1491 0h-1501v131h1104q-92 57 -167 151t-120 177l-94 164q-103 176 -252 176q-78 0 -137 -45t-86 -99l-54 -98q-25 -45 -41 -47q-18 0 -18 18q31 144 120 244t234 100q178 0 328 -204l135 -189q68 -94 167 -185t218 -134q74 -29 154 -29h10v-131z" />
<glyph unicode="&#x62e;" horiz-adv-x="1189" arabic-form="final" d="M981 827q0 -61 -31 -77q-18 0 -59 -61t-41 -175v-203q0 -180 154 -180h196v-131h-270q-119 0 -179 83t-61 220v139q0 86 35 144q-225 -178 -301 -312t-76 -266q0 -133 77 -227t237 -94q54 1 124 31t99 71v-78q-160 -113 -303 -112q-184 1 -301 113t-117 308q0 109 62 222 q62 112 150 196q192 181 329 254l61 37q-88 2 -153 35q-65 32 -113 64t-88 32q-42 0 -76 -24t-35 -68q-80 0 -94 39q72 131 205 131q52 0 162 -50t245 -50q37 0 82 22t64 55q16 -27 16 -88zM616 1087q-44 0 -74 31t-30 74t31 74q31 30 73 30t74 -30q31 -30 31 -74 q0 -43 -31 -74t-74 -31z" />
<glyph unicode="&#x62e;" horiz-adv-x="1480" arabic-form="initial" d="M475 1087q-43 0 -74 31t-30 74q0 43 30 74q31 30 74 30t74 -30t31 -74q0 -43 -31 -74t-74 -31zM-10 131h1104q-92 57 -167 151t-120 177l-94 164q-103 176 -252 176q-78 0 -137 -45t-86 -99l-54 -98q-25 -45 -41 -47q-18 0 -18 18q31 144 120 244t234 100q178 0 328 -204 l135 -189q68 -94 167 -185t218 -134q74 -29 154 -29q0 -31 -35 -81t-72 -50h-1384v131z" />
<glyph unicode="&#x62e;" horiz-adv-x="1480" arabic-form="medial" d="M475 1087q-43 0 -74 31t-30 74q0 43 30 74q31 30 74 30t74 -30t31 -74q0 -43 -31 -74t-74 -31zM1491 0h-1501v131h1104q-92 57 -167 151t-120 177l-94 164q-103 176 -252 176q-78 0 -137 -45t-86 -99l-54 -98q-25 -45 -41 -47q-18 0 -18 18q31 144 120 244t234 100 q178 0 328 -204l135 -189q68 -94 167 -185t218 -134q74 -29 154 -29h10v-131z" />
<glyph unicode="&#x62f;" horiz-adv-x="1253" arabic-form="final" d="M1264 131v-131h-50q-84 0 -164 47t-135 113q-29 -160 -249 -160h-441v131h383q135 0 135 125v287q0 172 -33 250q-34 78 -128 77q-127 0 -179 -106q-18 -6 -41 -6q-66 0 -81 43q10 41 96 85t205 44q172 0 255 -93t83 -284v-297h2q30 -53 96 -89t143 -36h103z" />
<glyph unicode="&#x630;" horiz-adv-x="1253" arabic-form="final" d="M1264 131v-131h-50q-84 0 -164 47t-135 113q-29 -160 -249 -160h-441v131h383q135 0 135 125v287q0 172 -33 250q-34 78 -128 77q-127 0 -179 -106q-18 -6 -41 -6q-66 0 -81 43q10 41 96 85t205 44q172 0 255 -93t83 -284v-297h2q30 -53 96 -89t143 -36h103zM586 1153 q-43 0 -74 31q-31 32 -31 74t31 73t74 31q44 0 74 -31t30 -74t-30 -73t-74 -31z" />
<glyph unicode="&#x631;" horiz-adv-x="948" arabic-form="final" d="M958 131v-131h-49q-81 0 -159 44t-134 108v-99q0 -223 -120 -339t-320 -115q-123 0 -168 53q-8 8 -8 20q0 31 47 65t88 38q51 -82 137 -81q170 2 170 167v905q0 55 65 97t109 42v-649q31 -53 97 -89t143 -36h102z" />
<glyph unicode="&#x632;" horiz-adv-x="948" arabic-form="final" d="M958 131v-131h-49q-81 0 -159 44t-134 108v-99q0 -223 -120 -339t-320 -115q-123 0 -168 53q-8 8 -8 20q0 31 47 65t88 38q51 -82 137 -81q170 2 170 167v905q0 55 65 97t109 42v-649q31 -53 97 -89t143 -36h102zM526 1126q-44 0 -74 31t-30 74t31 74t73 31t74 -32 q31 -30 31 -73t-31 -74t-74 -31z" />
<glyph unicode="&#x633;" horiz-adv-x="2598" arabic-form="final" d="M2609 0h-49q-88 0 -172 50t-137 120q-53 -170 -236 -170q-88 0 -175 48t-144 130q-27 -100 -76 -139t-145 -39q-186 0 -318 160q-35 -223 -199 -392t-367 -169t-316 110q-112 111 -111 324q0 143 79 294t183 167q27 -6 27 -54t-13 -73q-94 -23 -139 -109t-45 -192 q0 -150 97 -230t235 -80q403 0 403 402v608q0 55 66 97t112 42v-504q0 -100 -6 -145q82 -125 244 -125q75 0 106 48q27 36 29 88q2 51 2 91v439q0 55 66 97t112 42v-692q40 -57 104 -85t116 -28q96 0 126 50t29 200v446q0 55 66 97t112 43v-566q0 -84 -8 -149q33 -51 97 -86 t143 -35h102v-131z" />
<glyph unicode="&#x633;" horiz-adv-x="1609" arabic-form="initial" d="M1610 967v-566q0 -229 -65 -315t-195 -86q-88 0 -175 48t-145 130q-8 -74 -69 -126t-152 -52q-203 0 -332 178l-6 8v-4q-17 -78 -79 -130t-169 -52h-233v131h180q96 0 126 50t30 200v385q0 55 65 97q66 42 113 42v-504q0 -100 -6 -145q82 -125 243 -125q108 0 128 103 q10 51 10 124v439q0 55 65 97q66 42 113 42v-692q41 -57 104 -85t115 -28q96 0 126 50t30 200v446q0 55 65 98q66 42 113 42z" />
<glyph unicode="&#x633;" horiz-adv-x="1933" arabic-form="medial" d="M1944 131v-131h-50q-88 0 -172 50t-137 120q-53 -170 -235 -170q-88 0 -175 48t-145 130q-8 -74 -69 -126t-152 -52q-201 0 -338 182q-17 -78 -79 -130t-169 -52h-233v131h180q96 0 126 50t30 200v385q0 55 65 97q66 42 113 42v-504q0 -100 -6 -145q82 -125 243 -125 q108 0 128 103q10 51 10 124v439q0 55 65 97q66 42 113 42v-692q41 -57 104 -85t115 -28q96 0 126 50t30 200v446q0 55 65 98q66 42 113 42v-566q0 -84 -8 -149q34 -51 98 -86t141 -35h103z" />
<glyph unicode="&#x634;" horiz-adv-x="2598" arabic-form="final" d="M2609 0h-49q-88 0 -172 50t-137 120q-53 -170 -236 -170q-88 0 -175 48t-144 130q-27 -100 -76 -139t-145 -39q-186 0 -318 160q-35 -223 -199 -392t-367 -169t-316 110q-112 111 -111 324q0 143 79 294t183 167q27 -6 27 -54t-13 -73q-94 -23 -139 -109t-45 -192 q0 -150 97 -230t235 -80q403 0 403 402v608q0 55 66 97t112 42v-504q0 -100 -6 -145q82 -125 244 -125q75 0 106 48q27 36 29 88q2 51 2 91v439q0 55 66 97t112 42v-692q40 -57 104 -85t116 -28q96 0 126 50t29 200v446q0 55 66 97t112 43v-566q0 -84 -8 -149q33 -51 97 -86 t143 -35h102v-131zM1475 1178q-43 0 -74 30t-31 74q0 43 31 74q31 30 74 30t73 -30t31 -74q-1 -44 -31 -74t-73 -30zM1796 1178q-43 0 -74 30t-30 74q0 43 30 74q31 30 74 30t74 -30t31 -74t-31 -74t-74 -30zM1634 1438q-40 0 -68 28t-28 68q0 39 28 68q28 28 68 28t69 -28 q28 -28 28 -68t-28 -68t-69 -28z" />
<glyph unicode="&#x634;" horiz-adv-x="1609" arabic-form="initial" d="M1610 967v-566q0 -229 -65 -315t-195 -86q-88 0 -175 48t-145 130q-8 -74 -69 -126t-152 -52q-203 0 -332 178l-6 8v-4q-17 -78 -79 -130t-169 -52h-233v131h180q96 0 126 50t30 200v385q0 55 65 97q66 42 113 42v-504q0 -100 -6 -145q82 -125 243 -125q108 0 128 103 q10 51 10 124v439q0 55 65 97q66 42 113 42v-692q41 -57 104 -85t115 -28q96 0 126 50t30 200v446q0 55 65 98q66 42 113 42zM807 1178q-43 0 -74 30t-31 74q0 43 31 74q31 30 74 30t74 -30t31 -74q0 -43 -31 -74q-31 -30 -74 -30zM1128 1178q-44 0 -74 30t-30 74 q0 43 31 74q31 30 73 30t74 -30q31 -30 31 -74t-31 -74t-74 -30zM967 1438q-41 0 -69 28t-28 68q0 39 28 68q28 28 69 28t69 -28t27 -68q1 -40 -27 -68t-69 -28z" />
<glyph unicode="&#x634;" horiz-adv-x="1933" arabic-form="medial" d="M1944 131v-131h-50q-88 0 -172 50t-137 120q-53 -170 -235 -170q-88 0 -175 48t-145 130q-8 -74 -69 -126t-152 -52q-201 0 -338 182q-17 -78 -79 -130t-169 -52h-233v131h180q96 0 126 50t30 200v385q0 55 65 97q66 42 113 42v-504q0 -100 -6 -145q82 -125 243 -125 q108 0 128 103q10 51 10 124v439q0 55 65 97q66 42 113 42v-692q41 -57 104 -85t115 -28q96 0 126 50t30 200v446q0 55 65 98q66 42 113 42v-566q0 -84 -8 -149q34 -51 98 -86t141 -35h103zM807 1178q-43 0 -74 30t-31 74q0 43 31 74q31 30 74 30t74 -30t31 -74 q0 -43 -31 -74q-31 -30 -74 -30zM1128 1178q-44 0 -74 30t-30 74q0 43 31 74q31 30 73 30t74 -30q31 -30 31 -74t-31 -74t-74 -30zM967 1438q-41 0 -69 28t-28 68q0 39 28 68q28 28 69 28t69 -28t27 -68q1 -40 -27 -68t-69 -28z" />
<glyph unicode="&#x635;" horiz-adv-x="2695" arabic-form="final" d="M2705 131v-131h-49q-92 0 -179 55t-140 129q-89 -92 -229 -138t-289 -46h-598q-57 0 -97 33q-66 -182 -216 -308t-334 -126q-186 0 -299 110q-112 111 -111 324q0 143 79 294t183 167q27 -6 27 -54t-13 -73q-94 -23 -139 -109t-45 -192q0 -150 97 -230t235 -80 q403 0 403 402v420q-1 55 63 97t109 42h2v-441q163 203 317 344q289 263 476 265q229 0 360 -111t131 -305q0 -135 -71 -236q80 -102 225 -102h102zM1835 131q193 0 317 91t123 251q0 160 -82 246t-231 86q-102 0 -240 -94q-138 -95 -233 -197q-96 -102 -210 -236t-128 -147 h684z" />
<glyph unicode="&#x635;" horiz-adv-x="1785" arabic-form="initial" d="M1155 0h-598q-88 0 -139 78q-68 -78 -195 -78h-233v131h180q96 0 126 50t30 200v166q0 55 65 97q66 42 113 42l-12 -248q-7 -104 -17 -196q162 204 363 396q118 112 238 180t218 67q228 0 360 -111t132 -305q0 -121 -57 -215q-101 -166 -354 -227q-107 -27 -220 -27z M1171 131q193 0 317 91t124 251t-82 246t-232 86q-102 0 -239 -94q-137 -95 -233 -197t-211 -236q-114 -134 -128 -147h684z" />
<glyph unicode="&#x635;" horiz-adv-x="2031" arabic-form="medial" d="M2042 131v-131h-49q-92 0 -179 55t-141 129q-88 -92 -228 -138t-290 -46h-598q-88 0 -139 78q-68 -78 -195 -78h-233v131h180q96 0 126 50t30 200v166q0 55 65 97q66 42 113 42l-12 -248q-7 -104 -17 -196q162 204 363 396q118 112 238 180t218 67q228 0 360 -111 t132 -305q0 -135 -72 -236q80 -102 225 -102h103zM1171 131q193 0 317 91t124 251t-82 246t-232 86q-102 0 -239 -94q-137 -95 -233 -197t-211 -236q-114 -134 -128 -147h684z" />
<glyph unicode="&#x636;" horiz-adv-x="2695" arabic-form="final" d="M2705 131v-131h-49q-92 0 -179 55t-140 129q-89 -92 -229 -138t-289 -46h-598q-57 0 -97 33q-66 -182 -216 -308t-334 -126q-186 0 -299 110q-112 111 -111 324q0 143 79 294t183 167q27 -6 27 -54t-13 -73q-94 -23 -139 -109t-45 -192q0 -150 97 -230t235 -80 q403 0 403 402v420q-1 55 63 97t109 42h2v-441q163 203 317 344q289 263 476 265q229 0 360 -111t131 -305q0 -135 -71 -236q80 -102 225 -102h102zM1835 131q193 0 317 91t123 251q0 160 -82 246t-231 86q-102 0 -240 -94q-138 -95 -233 -197q-96 -102 -210 -236t-128 -147 h684zM1913 1108q-43 0 -74 31t-31 73t31 74q31 31 74 31t74 -31t31 -74q0 -44 -32 -74q-30 -30 -73 -30z" />
<glyph unicode="&#x636;" horiz-adv-x="1785" arabic-form="initial" d="M1155 0h-598q-88 0 -139 78q-68 -78 -195 -78h-233v131h180q96 0 126 50t30 200v166q0 55 65 97q66 42 113 42l-12 -248q-7 -104 -17 -196q162 204 363 396q118 112 238 180t218 67q228 0 360 -111t132 -305q0 -121 -57 -215q-101 -166 -354 -227q-107 -27 -220 -27z M1171 131q193 0 317 91t124 251t-82 246t-232 86q-102 0 -239 -94q-137 -95 -233 -197t-211 -236q-114 -134 -128 -147h684zM1249 1108q-43 0 -73 31t-31 73q0 42 31 74q32 31 74 31t73 -31t31 -74q0 -44 -31 -74t-74 -30z" />
<glyph unicode="&#x636;" horiz-adv-x="2031" arabic-form="medial" d="M2042 131v-131h-49q-92 0 -179 55t-141 129q-88 -92 -228 -138t-290 -46h-598q-88 0 -139 78q-68 -78 -195 -78h-233v131h180q96 0 126 50t30 200v166q0 55 65 97q66 42 113 42l-12 -248q-7 -104 -17 -196q162 204 363 396q118 112 238 180t218 67q228 0 360 -111 t132 -305q0 -135 -72 -236q80 -102 225 -102h103zM1171 131q193 0 317 91t124 251t-82 246t-232 86q-102 0 -239 -94q-137 -95 -233 -197t-211 -236q-114 -134 -128 -147h684zM1249 1108q-43 0 -73 31t-31 73q0 42 31 74q32 31 74 31t73 -31t31 -74q0 -44 -31 -74t-74 -30z " />
<glyph unicode="&#x637;" horiz-adv-x="2179" arabic-form="final" d="M1966 469q0 -143 -86 -258q31 -31 85 -57t122 -25h102v-131h-49q-92 0 -174 52t-129 114q-106 -95 -282 -137q-108 -27 -220 -27h-946q-84 0 -147 49t-74 82q-4 -1 -4 25t4 34q53 -59 174 -59h117l2 1120q0 55 63 97t109 43h2l-33 -1213q68 103 186 233q116 130 222 229 t234 172t231 73q229 0 360 -111t131 -305zM1352 131q192 0 316 91t124 251t-82 246t-231 86q-101 0 -239 -94q-138 -95 -234 -197t-210 -236t-128 -147h684z" />
<glyph unicode="&#x637;" horiz-adv-x="1761" arabic-form="initial" d="M1147 131q193 0 317 91t123 251q0 160 -82 246t-231 86q-102 0 -240 -94q-138 -95 -233 -197q-96 -102 -210 -236t-128 -147h684zM1270 885q229 0 360 -111t131 -305q0 -121 -57 -215q-100 -166 -353 -227q-108 -27 -221 -27h-1140v131h266v1120q0 55 63 97t109 43h2 l-33 -1213q64 97 184 230q119 133 225 232t233 172q128 73 231 73z" />
<glyph unicode="&#x637;" horiz-adv-x="2007" arabic-form="medial" d="M2017 131v-131h-49q-92 0 -179 55t-138 129h-2q-89 -92 -229 -138t-290 -46h-1140v131h266v1120q0 55 63 97t109 43h2l-33 -1213q64 97 184 230q119 133 225 232t233 172q128 73 231 73q229 0 360 -111t131 -305q0 -135 -71 -236q35 -45 96 -73t129 -29h102zM1147 131 q193 0 317 91t123 251q0 160 -82 246t-231 86q-102 0 -240 -94q-138 -95 -233 -197q-96 -102 -210 -236t-128 -147h684z" />
<glyph unicode="&#x638;" horiz-adv-x="2179" arabic-form="final" d="M1966 469q0 -143 -86 -258q31 -31 85 -57t122 -25h102v-131h-49q-92 0 -174 52t-129 114q-106 -95 -282 -137q-108 -27 -220 -27h-946q-84 0 -147 49t-74 82q-4 -1 -4 25t4 34q53 -59 174 -59h117l2 1120q0 55 63 97t109 43h2l-33 -1213q68 103 186 233q116 130 222 229 t234 172t231 73q229 0 360 -111t131 -305zM1352 131q192 0 316 91t124 251t-82 246t-231 86q-101 0 -239 -94q-138 -95 -234 -197t-210 -236t-128 -147h684zM1430 1108q-43 0 -74 31t-31 73t31 74q31 31 74 31q44 0 74 -31t30 -74q0 -44 -30 -74t-74 -30z" />
<glyph unicode="&#x638;" horiz-adv-x="1761" arabic-form="initial" d="M1147 131q193 0 317 91t123 251q0 160 -82 246t-231 86q-102 0 -240 -94q-138 -95 -233 -197q-96 -102 -210 -236t-128 -147h684zM1270 885q229 0 360 -111t131 -305q0 -121 -57 -215q-100 -166 -353 -227q-108 -27 -221 -27h-1140v131h266v1120q0 55 63 97t109 43h2 l-33 -1213q64 97 184 230q119 133 225 232t233 172q128 73 231 73zM1225 1108q-43 0 -74 31t-31 73t31 74q31 31 74 31t73 -31t31 -74q-1 -44 -31 -74t-73 -30z" />
<glyph unicode="&#x638;" horiz-adv-x="2007" arabic-form="medial" d="M2017 131v-131h-49q-92 0 -179 55t-138 129h-2q-89 -92 -229 -138t-290 -46h-1140v131h266v1120q0 55 63 97t109 43h2l-33 -1213q64 97 184 230q119 133 225 232t233 172q128 73 231 73q229 0 360 -111t131 -305q0 -135 -71 -236q35 -45 96 -73t129 -29h102zM1147 131 q193 0 317 91t123 251q0 160 -82 246t-231 86q-102 0 -240 -94q-138 -95 -233 -197q-96 -102 -210 -236t-128 -147h684zM1225 1108q-43 0 -74 31t-31 73t31 74q31 31 74 31t73 -31t31 -74q-1 -44 -31 -74t-73 -30z" />
<glyph unicode="&#x639;" horiz-adv-x="1511" arabic-form="final" d="M899 242q103 80 191 192t124 217q-18 86 -105 136q-87 51 -210 51t-210 -50t-105 -137q37 -105 123 -217t192 -192zM1522 131v-131h-291q-143 0 -332 119q-190 -119 -332 -119h-219q4 -137 82 -225t232 -88q54 1 124 31t99 71v-78q-160 -113 -303 -112q-184 1 -301 113 t-117 308q0 55 14 111h463q72 0 164 49q-137 102 -245 228t-146 241q10 106 148 180t337 74t337 -74t148 -180q-40 -115 -148 -241t-245 -228q92 -49 166 -49h365z" />
<glyph unicode="&#x639;" horiz-adv-x="1052" arabic-form="initial" d="M727 131h172q55 0 105 -49t49 -82h-1063v131h399q-59 55 -93 147t-34 166q0 188 113 304t307 116q94 0 187 -46t102 -83q-4 -14 -43 -32t-80 -5q-25 55 -79 81t-101 26q-115 0 -182 -89q-66 -89 -66 -225t80 -248t227 -112z" />
<glyph unicode="&#x639;" horiz-adv-x="1224" arabic-form="medial" d="M612 242q104 80 192 192t124 217q-18 86 -106 136q-88 51 -210 51q-123 0 -210 -50t-105 -137q37 -105 123 -217t192 -192zM1235 131v-131h-291q-143 0 -332 119q-190 -119 -331 -119h-291v131h364q72 0 164 49q-137 102 -245 228t-146 241q10 106 148 180t337 74 t337 -74t149 -180q-41 -115 -149 -241t-244 -228q92 -49 165 -49h365z" />
<glyph unicode="&#x63a;" horiz-adv-x="1511" arabic-form="final" d="M899 242q103 80 191 192t124 217q-18 86 -105 136q-87 51 -210 51t-210 -50t-105 -137q37 -105 123 -217t192 -192zM1522 131v-131h-291q-143 0 -332 119q-190 -119 -332 -119h-219q4 -137 82 -225t232 -88q54 1 124 31t99 71v-78q-160 -113 -303 -112q-184 1 -301 113 t-117 308q0 55 14 111h463q72 0 164 49q-137 102 -245 228t-146 241q10 106 148 180t337 74t337 -74t148 -180q-40 -115 -148 -241t-245 -228q92 -49 166 -49h365zM901 1120q-43 0 -74 31t-30 74t31 73t73 31q43 0 74 -31q31 -32 31 -74t-31 -73t-74 -31z" />
<glyph unicode="&#x63a;" horiz-adv-x="1052" arabic-form="initial" d="M727 131h172q55 0 105 -49t49 -82h-1063v131h399q-59 55 -93 147t-34 166q0 188 113 304t307 116q94 0 187 -46t102 -83q-4 -14 -43 -32t-80 -5q-25 55 -79 81t-101 26q-115 0 -182 -89q-66 -89 -66 -225t80 -248t227 -112zM672 1051q-43 1 -74 31t-31 73t31 74t74 31 q44 0 74 -31t30 -74t-30 -73t-74 -31z" />
<glyph unicode="&#x63a;" horiz-adv-x="1224" arabic-form="medial" d="M612 242q104 80 192 192t124 217q-18 86 -106 136q-88 51 -210 51q-123 0 -210 -50t-105 -137q37 -105 123 -217t192 -192zM1235 131v-131h-291q-143 0 -332 119q-190 -119 -331 -119h-291v131h364q72 0 164 49q-137 102 -245 228t-146 241q10 106 148 180t337 74 t337 -74t149 -180q-41 -115 -149 -241t-244 -228q92 -49 165 -49h365zM614 1120q-44 0 -74 31t-30 74t31 73t73 31q42 0 74 -31q31 -32 31 -74t-31 -73t-74 -31z" />
<glyph unicode="&#x641;" horiz-adv-x="2365" arabic-form="final" d="M1679 840q-87 0 -153 -84t-66 -223t79 -235t206 -138q207 84 207 328q0 134 -70 242q-70 110 -203 110zM1686 1163q-43 0 -74 31t-31 74q0 44 31 74t74 30q44 0 74 -31t30 -73t-30 -74q-30 -31 -74 -31zM2376 131v-131h-269q-160 0 -346 57q-154 -57 -323 -57h-852 q-186 0 -304 115t-118 277t95 274q95 111 245 110q51 0 116 -20t78 -60q0 -20 -32 -37q-33 -16 -74 -22q-49 84 -123 84t-115 -69t-41 -138q1 -174 103 -278t262 -105h901q-293 147 -293 399q0 162 111 266t289 105q178 0 308 -118t130 -296q0 -221 -213 -356h465z" />
<glyph unicode="&#x641;" horiz-adv-x="724" arabic-form="initial" d="M725 303q0 -137 -60 -220t-180 -83h-495v131h407q154 0 154 180v58q-31 -33 -103 -57t-133 -23q-131 0 -197 82t-67 186q0 104 53 187q86 135 297 200q81 24 179 24t145 -10v-655zM551 911q-127 0 -230 -100t-104 -231q0 -78 49 -136t119 -59q103 0 166 39v487zM442 1178 q-44 0 -74 30t-30 74q0 43 31 74q31 30 73 30t74 -30q31 -30 31 -74t-31 -74t-74 -30z" />
<glyph unicode="&#x641;" horiz-adv-x="1294" arabic-form="medial" d="M608 840q-88 0 -154 -84t-65 -223q0 -139 79 -235t206 -138q206 84 206 328q0 134 -69 242q-70 110 -203 110zM1305 131v-131h-269q-160 0 -346 57q-154 -57 -323 -57h-377v131h518q-293 147 -293 399q0 162 111 266q110 104 288 105q178 0 308 -118t131 -296 q0 -221 -213 -356h465zM614 1163q-44 0 -74 31t-30 74q0 44 31 74t73 30t74 -31q31 -31 31 -73t-31 -74q-31 -31 -74 -31z" />
<glyph unicode="&#x642;" horiz-adv-x="1445" arabic-form="final" d="M657 1233q-43 0 -73 31q-30 32 -31 74q0 42 31 73q32 31 74 31t73 -31t31 -74t-31 -73t-74 -31zM979 1233q-43 0 -74 31q-31 32 -31 74t31 73t74 31t74 -31t31 -74t-32 -73q-30 -30 -73 -31zM1456 131v-131h-350q-78 -172 -228 -287t-320 -115q-169 0 -282 114 q-113 112 -112 321q0 74 12 119q0 2 14 2q66 0 78 -39q-12 -16 -12 -49q0 -146 92 -228t219 -82t244 60t158 184h-187q-194 0 -302 113t-107 282q0 131 57 239q56 108 148 171q193 133 401 133q106 0 186 -23v-659q0 -53 -14 -125h305zM803 131h188v741q-100 25 -231 -47 q-211 -117 -211 -389q1 -150 69 -228t185 -77z" />
<glyph unicode="&#x642;" horiz-adv-x="724" arabic-form="initial" d="M246 1178q-43 0 -74 30t-31 74q0 43 31 74q31 30 74 30q44 0 74 -30t30 -74t-30 -74t-74 -30zM567 1178q-43 0 -73 30t-31 74q0 43 31 74q32 30 74 30t73 -30t31 -74t-31 -74t-74 -30zM725 303q0 -137 -60 -220t-180 -83h-495v131h407q154 0 154 180v58q-31 -33 -103 -57 t-133 -23q-131 0 -197 82t-67 186q0 104 53 187q86 135 297 200q81 24 179 24t145 -10v-655zM551 911q-127 0 -230 -100t-104 -231q0 -78 49 -136t119 -59q103 0 166 39v487z" />
<glyph unicode="&#x642;" horiz-adv-x="1294" arabic-form="medial" d="M436 1163q-43 0 -74 31t-30 74q0 44 30 74t74 30q43 0 74 -31t31 -73t-31 -74q-31 -31 -74 -31zM758 1163q-43 0 -74 31t-31 74q0 44 31 74t74 30q44 0 74 -31t30 -73t-30 -74q-30 -31 -74 -31zM608 840q-88 0 -154 -84t-65 -223q0 -139 79 -235t206 -138q206 84 206 328 q0 134 -69 242q-70 110 -203 110zM1305 131v-131h-269q-160 0 -346 57q-154 -57 -323 -57h-377v131h518q-293 147 -293 399q0 162 111 266q110 104 288 105q178 0 308 -118t131 -296q0 -221 -213 -356h465z" />
<glyph unicode="&#x643;" horiz-adv-x="2435" arabic-form="final" d="M1309 782q46 0 88 21q27 -3 57 -21t29 -32q-58 -56 -164 -56h-262q-51 0 -85 26t-42 46v59q49 -43 102 -43h82q-35 55 -35 124t65 126q65 58 136 58q72 0 120 -25t58 -45q-23 -23 -61 -23h-23q-20 45 -74 45t-82 -38q-30 -38 -30 -89q0 -133 121 -133zM2445 131v-131h-49 q-88 0 -173 51t-136 121q-51 -172 -223 -172h-1278q-186 0 -304 115t-118 277t95 274q95 111 245 110q51 0 116 -20t78 -60q0 -20 -32 -37q-33 -16 -74 -22q-49 84 -123 84t-115 -69t-41 -138q1 -174 103 -278t262 -105h1106q145 0 145 180v938q0 55 65 97t109 43v-1133 q31 -53 97 -89t143 -36h102z" />
<glyph unicode="&#x643;" horiz-adv-x="1159" arabic-form="initial" d="M-10 131h964q16 86 17 152q-1 242 -141 389t-358 147t-388 -123q-4 -4 -9 -4t-5 24t16 93q8 10 67 101q58 91 113 166q56 75 148 143q92 67 182 67t173 -46t133 -110q112 -142 112 -215q0 -12 -15 -16q-12 0 -47 43l-75 92q-43 51 -113 93t-148 42t-170 -89t-155 -199 q102 35 237 34q266 0 448 -185t183 -466q0 -145 -49 -264h-1120v131z" />
<glyph unicode="&#x643;" horiz-adv-x="1490" arabic-form="medial" d="M1501 131v-131h-49q-80 0 -163 45t-138 109q-12 -78 -41 -154h-1120v131h964q16 86 17 152q-1 242 -141 389t-358 147t-388 -123q-4 -4 -9 -4t-5 24t16 93q8 10 67 101q58 91 113 166q56 75 148 143q92 67 182 67t173 -46t133 -110q112 -142 112 -215q0 -12 -15 -16 q-12 0 -47 43l-75 92q-43 51 -113 93t-148 42t-170 -89t-155 -199q102 35 237 34q266 0 448 -186t183 -475q33 -53 97 -88t143 -35h102z" />
<glyph unicode="&#x644;" horiz-adv-x="1497" arabic-form="final" d="M1507 131v-131h-49q-84 0 -165 47t-136 113q-35 -221 -200 -391t-367 -170t-315 110q-112 111 -111 324q0 143 79 294t183 167q27 -6 27 -54t-13 -73q-90 1 -137 -95t-47 -206q0 -150 97 -230t235 -80q403 0 403 402v1091q-1 55 63 97t109 43h2v-1133q31 -53 97 -89 t143 -36h102z" />
<glyph unicode="&#x644;" horiz-adv-x="520" arabic-form="initial" d="M520 1391v-1088q0 -137 -60 -220t-179 -83h-291v131h203q154 0 153 180v940q0 55 64 97t110 43z" />
<glyph unicode="&#x644;" horiz-adv-x="804" arabic-form="medial" d="M815 131v-131h-49q-92 0 -179 55t-138 129q-47 -184 -265 -184h-194v131h168q96 0 122 77q19 56 19 150v891q0 55 65 97t109 43v-1133q31 -53 97 -89t143 -36h102z" />
<glyph unicode="&#x645;" horiz-adv-x="1867" arabic-form="final" d="M164 -401v718q0 152 102 274t309 122t289 80q129 125 295 125q201 0 309 -134t109 -340q0 -104 -37 -198q34 -49 98 -82t138 -33h102v-131h-49q-92 0 -179 55t-139 129q-111 -184 -313 -184q-164 0 -280 100t-115 252v279q-72 -43 -209 -43q-136 0 -196 -91t-60 -212 v-547q0 -55 -64 -97t-110 -42zM973 637v-334q0 -104 62 -150t141 -47q117 0 171 110t54 294q0 258 -111 328q-49 30 -132 30t-134 -68t-51 -163z" />
<glyph unicode="&#x645;" horiz-adv-x="1064" arabic-form="initial" d="M190 0h-200v131h112q86 0 120 34t34 124v305q0 154 100 253t258 99q203 0 327 -147t124 -339t-74 -316q-39 -68 -111 -106t-167 -38q-199 0 -303 164q-54 -164 -220 -164zM647 125q119 0 180 104q61 103 61 269t-62 282q-64 116 -201 117q-91 0 -143 -72t-52 -168 l-2 -393q22 -61 88 -100t131 -39z" />
<glyph unicode="&#x645;" horiz-adv-x="1333" arabic-form="medial" d="M1343 131v-131h-16q-88 0 -174 56t-139 130q-29 -102 -122 -176t-216 -73q-45 0 -92 8t-118 48t-114 107q-31 -48 -88 -74t-121 -26h-153v131h112q86 0 120 34t34 124v137q0 204 93 316t253 112q200 0 314 -142t116 -350l2 -96q33 -55 99 -95t141 -40h69zM428 498v-277 q0 -90 62 -134t137 -44q229 0 229 381t-240 381q-188 0 -188 -307z" />
<glyph unicode="&#x646;" horiz-adv-x="1497" arabic-form="final" d="M662 618q-43 0 -74 31t-31 74t31 74t74 31q44 0 74 -32q30 -30 30 -73t-30 -74t-74 -31zM1507 131v-131h-49q-84 0 -165 47t-136 113q-35 -221 -200 -391t-367 -170t-315 110q-112 111 -111 324q0 143 79 294t183 167q27 -6 27 -54t-13 -73q-94 -23 -139 -109t-45 -192 q0 -150 97 -230t235 -80q403 0 403 402v608q-1 55 63 97t109 42h2v-649q31 -53 97 -89t143 -36h102z" />
<glyph unicode="&#x646;" horiz-adv-x="520" arabic-form="initial" d="M281 0h-291v131h203q154 0 153 180v516q0 55 65 97t109 43v-664q0 -137 -60 -220t-179 -83zM184 1182q-44 0 -74 30t-30 74q0 43 31 74t73 31t74 -31q31 -31 31 -74q0 -44 -31 -74t-74 -30z" />
<glyph unicode="&#x646;" horiz-adv-x="804" arabic-form="medial" d="M815 131v-131h-49q-92 0 -179 55t-138 129q-47 -184 -265 -184h-194v131h168q96 0 122 77q19 56 19 150v408q0 55 65 97t109 42v-649q31 -53 97 -89t143 -36h102zM383 1126q-43 0 -74 31t-30 74q0 43 30 74q31 31 74 31t74 -32q31 -30 31 -73t-32 -74q-30 -31 -73 -31z " />
<glyph unicode="&#x647;" horiz-adv-x="1253" arabic-form="final" d="M1264 131v-131h-256q-127 0 -201 66t-74 194q-31 -37 -118 -70q-166 -63 -301 -3q-106 49 -138 172q-12 46 -12 94q0 102 59 193q59 92 147 150q191 127 365 126q125 0 172 -11v-647q0 -74 39 -104t117 -29h201zM733 864q-135 0 -266 -128t-131 -290q0 -74 50 -133 t153 -59q39 0 101 24t93 48v538z" />
<glyph unicode="&#x647;" horiz-adv-x="1243" arabic-form="initial" d="M758 391q0 94 -41 183t-103 131q-45 -104 -45 -224q1 -193 95 -299q94 78 94 209zM434 442q0 164 78 295q-94 1 -166 -107t-72 -231t68 -195t186 -73q-94 147 -94 311zM1073 524q0 346 -227 346q-117 0 -191 -106q106 -48 174 -154t68 -237t-70 -222q-12 -18 -16 -20h45 q106 0 162 69q55 69 55 179v145zM1249 520v-143q0 -234 -182 -330q-89 -47 -190 -47h-881v131h237q-98 96 -98 242q0 197 131 317t295 101q123 139 303 139q385 0 385 -410z" />
<glyph unicode="&#x647;" horiz-adv-x="1458" arabic-form="medial" d="M563 481q0 -193 96 -299q94 78 95 209q0 94 -41 183t-103 131q-47 -104 -47 -224zM430 442q0 164 78 295q-94 1 -167 -107t-73 -231t68 -195t186 -73q-92 147 -92 311zM1069 524q0 346 -227 346q-117 0 -193 -106q106 -48 175 -154t69 -239t-71 -220q-13 -18 -15 -20h53 q102 0 156 69q53 69 53 179v145zM1243 520v-143q0 -147 -78 -246h303v-131h-1478v131h237q-96 96 -96 242q0 197 130 317t294 101q123 139 305 139q383 0 383 -410z" />
<glyph unicode="&#x648;" horiz-adv-x="1327" arabic-form="final" d="M1337 0h-295q-16 -194 -137 -304t-280 -110q-215 0 -342 74q0 31 33 80q34 49 71 55q29 -51 93 -86t153 -35q88 0 163 73t74 169v84h-221q-193 0 -298 120t-105 310t121 350t311 160t278 -111t88 -284v-414h293v-131zM870 131v520q0 90 -50 160t-133 70q-155 0 -214 -140 q-51 -119 -51 -279t61 -246q61 -85 199 -85h188z" />
<glyph unicode="&#x649;" horiz-adv-x="1910" arabic-form="final" d="M1921 131v-131h-18q-57 0 -125 37t-119 94q-31 -125 -110 -224t-175 -155t-252 -106q-156 -49 -362 -52q-280 0 -438 104t-158 262q0 157 151 284q152 127 310 127q53 0 88 -21q4 -4 4 -20t-19 -41q-31 -35 -53 -47q-39 18 -88 18q-100 0 -174 -63t-74 -152 q0 -289 629 -291q282 0 444 126t162 280q0 90 -67 146q-68 56 -148 56q-12 0 -27 28q-16 28 -16 62t8 42q92 0 190 -65t156 -161q35 -59 102 -98t144 -39h35z" />
<glyph unicode="&#x64a;" horiz-adv-x="1910" arabic-form="final" d="M682 -831q-43 1 -74 31t-30 73q0 43 30 74q31 31 74 31t74 -32q30 -30 30 -73t-30 -74q-31 -30 -74 -30zM1004 -831q-43 1 -74 31t-31 73t31 74t74 31q44 0 74 -32q30 -30 30 -73t-30 -73t-74 -31zM1921 131v-131h-18q-57 0 -125 37t-119 94q-31 -125 -110 -224 t-175 -155t-252 -106q-156 -49 -362 -52q-280 0 -438 104t-158 262q0 157 151 284q152 127 310 127q53 0 88 -21q4 -4 4 -20t-19 -41q-31 -35 -53 -47q-39 18 -88 18q-100 0 -174 -63t-74 -152q0 -289 629 -291q282 0 444 126t162 280q0 90 -67 146q-68 56 -148 56 q-12 0 -27 28q-16 28 -16 62t8 42q92 0 190 -65t156 -161q35 -59 102 -98t144 -39h35z" />
<glyph unicode="&#x64a;" horiz-adv-x="745" arabic-form="initial" />
<glyph unicode="&#x64a;" horiz-adv-x="804" arabic-form="medial" d="M-37 -401q-43 1 -74 31t-30 73q0 43 30 74q31 31 74 31t74 -32q31 -30 31 -73t-31 -73t-74 -31zM285 -401q-43 1 -74 31t-31 73t31 74t74 31t73 -32q30 -30 31 -73q-1 -43 -31 -73t-73 -31zM815 131v-131h-49q-92 0 -179 55t-138 129q-47 -184 -265 -184h-194v131h168 q96 0 122 77q19 56 19 150v408q0 55 65 97t109 42v-649q31 -53 97 -89t143 -36h102z" />
<glyph unicode="&#xd;" horiz-adv-x="473" />
<glyph unicode=" "  horiz-adv-x="389" />
<glyph unicode="&#x09;" horiz-adv-x="389" />
<glyph unicode="&#xa0;" horiz-adv-x="389" />
<glyph unicode="!" horiz-adv-x="487" d="M154 79q0 41 28 69t66 28q40 0 68 -29t28 -67t-28 -67q-28 -27 -68 -27t-68 26q-26 27 -26 67zM172 1155q0 121 17 141t59 20t60 -20q29 -35 8 -350q-9 -152 -23 -329t-19 -255h-51q-3 78 -27 375t-24 418z" />
<glyph unicode="&#x22;" horiz-adv-x="780" d="M705 1141q-150 0 -150 94q0 41 27 67t67 25q67 0 97 -54t30 -126q0 -152 -137 -293l-43 33q53 61 81 117t28 137zM418 1141q-150 0 -150 94q0 41 27 67t67 25q66 0 97 -54t30 -126q0 -152 -137 -293l-43 33q53 61 81 117t28 137z" />
<glyph unicode="#" horiz-adv-x="2496" />
<glyph unicode="$" horiz-adv-x="993" d="M768 362q0 116 -67 182q-67 65 -193 103v-567q116 16 188 91t72 191zM246 1010q0 -86 47 -133t158 -91v449q-85 -6 -145 -73q-60 -66 -60 -152zM145 976q0 118 81 205t225 109v183h57v-181q121 0 212 -55t91 -168q0 -47 -26 -79q-27 -32 -65 -32t-62 23t-23 59 q0 86 72 86q23 0 34 -2q0 53 -62 84t-144 31h-27v-469q82 -26 135 -50t111 -66q116 -85 115 -246t-98 -260t-263 -121v-168h-57v164h-13q-135 -1 -238 81t-104 218q0 51 28 89t71 38t67 -26t23 -71q0 -88 -127 -88q14 -90 100 -139t184 -49h9v586q-306 81 -306 314z" />
<glyph unicode="%" horiz-adv-x="954" d="M664 49l-41 184h176l41 -184h-176zM268 -72l-98 54l539 1394l96 -51zM193 1110l-39 182h176l39 -182h-176z" />
<glyph unicode="&#x26;" horiz-adv-x="2031" />
<glyph unicode="'" horiz-adv-x="356" d="M231 1233q-1 106 61 106t62 -106q0 -33 -2 -47l-30 -383q0 -54 -29 -58q-29 0 -29 58l-31 383q-2 14 -2 47z" />
<glyph unicode="(" horiz-adv-x="768" d="M768 1286q-215 0 -350 -222t-135 -568t135 -568t350 -223v-53q-195 2 -338 133t-210 317q-66 186 -66 394t66 395q67 186 210 315t338 133v-53z" />
<glyph unicode=")" horiz-adv-x="845" d="M846 524q0 -341 -154 -597q-74 -121 -194 -197t-269 -78v53q215 0 351 222q135 223 135 569t-135 568t-351 222v53q195 -4 339 -133t211 -315q67 -185 67 -367z" />
<glyph unicode="*" horiz-adv-x="948" d="M545 1163v-205l194 64l43 -135l-194 -62l121 -166l-115 -81l-121 163l-119 -163l-112 81l120 166l-196 64l45 135l195 -63l-3 202h142z" />
<glyph unicode="+" horiz-adv-x="1146" d="M526 1053h97v-402h401v-96h-401v-401h-97v401h-401v96h401v402z" />
<glyph unicode="-" horiz-adv-x="1204" d="M125 410v79h956v-79h-956z" />
<glyph unicode="." horiz-adv-x="501" d="M261 -2q-39 0 -67 28t-28 67q0 40 29 68q29 27 67 27t68 -28q28 -28 28 -66q0 -40 -28 -68t-69 -28z" />
<glyph unicode="/" horiz-adv-x="872" d="M229 -23l490 1362h96l-489 -1362h-97z" />
<glyph unicode="0" horiz-adv-x="466" d="M172 367q-16 57 16 120t78 88l31 -116q18 -58 -21 -129q-12 -24 -41 -45q-28 -21 -32 -23z" />
<glyph unicode="1" horiz-adv-x="495" d="M375 -2q-1 0 -1 3q1 -2 1 -3zM374 1q-139 594 -270 1068q-4 45 11 95t51 74t53 30q72 -373 207 -957q16 -71 0 -149t-34 -116t-18 -45z" />
<glyph unicode="2" horiz-adv-x="698" d="M294 1270q114 0 204 -62t135 -139q4 -4 4 -9t-7 -14t-16 -2q-104 147 -241 148q-80 0 -128 -53t-30 -133l156 -695q16 -71 0 -149q-15 -78 -33 -116t-19 -46q-96 407 -249 995q-27 99 41 187q69 88 183 88zM319 0v-2v2z" />
<glyph unicode="3" horiz-adv-x="1071" d="M76 1270h88q29 0 33 -23q14 -42 14 -61l39 -182q27 -116 80 -174t123 -52q85 8 30 176q-23 92 -49 170q-27 78 -31 93q-14 53 31 53q54 0 68 -4q23 -6 48 -115t34 -141q25 -117 80 -176t124 -54q45 4 48 48q2 44 -21 116q-23 92 -39 141t-37 134q-14 53 31 53 q129 0 223 -53q4 -5 4 -9t-5 -10q-4 -6 -32 2t-57 8q-35 0 -24 -34q21 -99 34 -147t33 -138q20 -91 -30 -149t-113 -58q-106 0 -191 150q-4 -74 -49 -113t-96 -39q-98 0 -178 129l114 -500q31 -105 -37 -269q-15 -36 -16 -40q-123 535 -305 1215q-12 53 31 53zM352 -2 q0 2 -1 2q0 -2 1 -2z" />
<glyph unicode="4" horiz-adv-x="952" d="M123 1034q0 98 65 166q66 68 174 68t201 -49q94 -49 142 -111q6 -8 2 -22q-5 -14 -9 -15q-4 0 -8 4q-113 125 -250 125q-76 0 -118 -54t-41 -130q0 -136 106 -232t264 -112q8 0 8 -19t-14 -16h-31q-136 -6 -202 -77t-66 -169q0 -143 106 -241t240 -98q135 0 201 54 q4 4 6 5q4 1 9 -13t-1 -20q-70 -80 -207 -80q-138 0 -250 45t-193 142t-81 212t80 192t199 83l-2 6q-131 31 -231 127q-99 96 -99 229z" />
<glyph unicode="5" horiz-adv-x="933" d="M586 -2q-182 0 -298 74t-159 213q-37 139 -18 263q18 124 90 213t169 99t187 -44q89 -54 149 -143q118 -176 148 -317q42 -194 -22 -276t-246 -82zM571 51q53 1 87 21t54 85q19 65 -22 183q-4 12 -34 115t-68 180q-73 147 -148 168q-160 45 -196 -175q-27 -167 37 -323 q39 -98 119 -176t171 -78z" />
<glyph unicode="6" horiz-adv-x="851" d="M41 1165q0 104 141 105h2q178 0 306 -62t155 -190q61 -301 158 -707q16 -71 0 -149q-15 -78 -33 -116t-19 -46q-82 346 -257 1028q-23 92 -95 144t-178 53q-59 0 -92 -47t-29 -115q0 -8 -16 -9q-16 -2 -29 28q-14 30 -14 83z" />
<glyph unicode="7" horiz-adv-x="778" d="M0 1246q0 22 12 24q63 0 119 -41q6 -6 10 -19q47 -133 275 -595t260 -517l-289 1119q-14 53 31 53q55 0 130 -16t111 -37q8 -6 6 -16q-3 -9 -20 -7q-47 14 -76 14q-35 0 -24 -34l231 -1131q6 -27 -7 -36t-49 -7t-56 15t-48 68t-274 505t-294 544q-48 92 -48 114z" />
<glyph unicode="8" horiz-adv-x="894" d="M682 0q-59 0 -82 53l-469 1118l221 -1097q8 -39 -27 -57q-37 -17 -67 -17t-31 14q-8 72 -82 587t-82 592t64 77q64 0 82 -43l543 -1118q35 -61 116 -13q8 4 18 1t7 -9q-96 -88 -211 -88z" />
<glyph unicode="9" horiz-adv-x="854" d="M442 592q147 68 95 256q-63 219 -117 306q-54 86 -136 62q-81 -24 -107 -139q-25 -115 -9 -220q38 -244 182 -268q53 -10 92 3zM753 1q-39 171 -171 697q-29 -113 -131 -145q-170 -55 -283 27t-124 238t62 289q74 134 187 159q188 39 301 -211q55 -121 115 -350 q82 -332 96 -398q14 -67 -2 -145q-17 -78 -33 -116t-17 -45zM753 1q0 -1 1 -3q-1 0 -1 3z" />
<glyph unicode=":" horiz-adv-x="638" d="M398 657q-40 0 -66 28t-27 68q0 41 28 69q29 28 67 28t67 -29t29 -67t-29 -68q-29 -29 -69 -29zM305 79q0 41 28 69q29 28 67 28t67 -29t29 -67t-29 -67q-29 -27 -69 -27t-66 26t-27 67z" />
<glyph unicode="&#x3c;" horiz-adv-x="804" d="M559 88l-428 420l428 420l115 -119l-305 -301l305 -301z" />
<glyph unicode="=" horiz-adv-x="1146" d="M1024 334h-899v94h899v-94zM1024 705h-899v94h899v-94z" />
<glyph unicode="&#x3e;" horiz-adv-x="804" d="M246 88l-115 119l305 301l-305 301l115 119l428 -420z" />
<glyph unicode="[" horiz-adv-x="454" d="M154 1317h301v-55h-74q-63 0 -86 -34t-23 -112v-1241q0 -78 23 -113t86 -34h74v-54h-301v1643z" />
<glyph unicode="\" horiz-adv-x="700" d="M547 -23l-490 1362h97l489 -1362h-96z" />
<glyph unicode="]" horiz-adv-x="532" d="M532 -326h-303v54h76q63 0 86 34t23 113v1241q0 76 -23 111t-86 35h-76v55h303v-1643z" />
<glyph unicode="_" horiz-adv-x="1034" d="M0 -186v82h1034v-82h-1034z" />
<glyph unicode="{" horiz-adv-x="585" d="M174 680v309q0 305 232 305h57v-67q-123 -3 -163 -61t-40 -165v-327q0 -82 -45 -128t-158 -59l70 -20q77 -12 105 -56t28 -118v-324q0 -195 141 -217l62 -10v-70h-57q-109 0 -170 82t-62 226v309q0 113 -121 141l-53 12v86l53 11q121 25 121 141z" />
<glyph unicode="|" horiz-adv-x="270" d="M90 -332v1598h88v-1598h-88z" />
<glyph unicode="}" horiz-adv-x="585" d="M412 -20q0 -144 -62 -226t-170 -82h-57v70l61 10q141 23 142 217v324q0 74 28 118q29 44 105 56l69 20q-114 13 -158 59t-44 128v327q0 107 -40 165t-163 61v67h57q231 0 232 -305v-309q0 -117 120 -141l54 -11v-86l-54 -12q-121 -29 -120 -141v-309z" />
<glyph unicode="&#xab;" horiz-adv-x="1021" d="M496 96q0 -72 -99 -96q43 33 43 62t-57 83l-246 248l158 152q145 145 145 178t-43 63q98 -25 99 -96q0 -33 -58 -90l-209 -207l209 -209q58 -57 58 -88zM885 96q0 -72 -99 -96q43 33 43 64t-147 178l-156 151l156 152q147 147 147 178t-43 63q98 -25 99 -96 q0 -33 -58 -90l-209 -207l209 -209q58 -57 58 -88z" />
<glyph unicode="&#xad;" horiz-adv-x="1204" d="M125 410v79h956v-79h-956z" />
<glyph unicode="&#xbb;" horiz-adv-x="1021" d="M193 62q0 -28 43 -62q-98 25 -99 96q0 31 58 88l208 209l-208 207q-57 57 -58 90q0 72 99 96q-43 -30 -43 -64t147 -177l156 -152l-246 -248q-57 -55 -57 -83zM582 62q0 -28 41 -62q-96 25 -97 96q0 31 58 88l207 209l-207 207q-57 57 -58 90q0 72 97 96q-41 -32 -41 -64 t145 -177l158 -152l-246 -248q-57 -55 -57 -83z" />
<glyph unicode="&#xf7;" horiz-adv-x="923" />
<glyph unicode="&#x60c;" horiz-adv-x="532" d="M293 -2q-67 0 -97 55t-30 125q0 156 139 295l41 -35q-51 -59 -79 -114t-27 -138q150 0 149 -96q0 -40 -28 -66t-68 -26z" />
<glyph unicode="&#x61b;" horiz-adv-x="638" d="M496 97q0 -41 -29 -69t-68 -28t-67 29t-27 67q0 38 28 67q27 27 67 27t68 -26t28 -67zM401 864q39 0 67 -26t28 -68q0 -41 -29 -69t-68 -27q-119 0 -119 194t169 340l43 -37q-160 -156 -142 -309q12 2 51 2z" />
<glyph unicode="&#x61f;" horiz-adv-x="888" d="M551 95q0 -39 -28 -67q-27 -28 -67 -28t-68 28t-28 68t28 67t67 27t67 -28t29 -67zM436 391v80q0 148 -123 240q-51 37 -102 75q-123 90 -123 235q0 146 100 228t234 82t229 -79q94 -79 94 -199q0 -63 -30 -103q-31 -39 -71 -39t-64 24q-24 23 -25 59q0 36 25 63 q24 27 58 27t50 -9q-4 91 -72 147t-166 56t-165 -78q-68 -78 -68 -188q0 -70 43 -138t93 -112q136 -118 136 -211v-160h-53z" />
<glyph unicode="&#x621;" horiz-adv-x="1159" d="M838 647q-106 0 -164 -75q-58 -76 -58 -184t56 -182t168 -75q110 0 184 37q45 -2 90 -31t45 -49q-9 -10 -29 -24t-94 -40q-74 -24 -162 -24h-485q-86 0 -148 49t-73 82q-4 -1 -4 25t4 34q53 -59 174 -59h178q-78 111 -78 241t115 232t283 103q92 0 174 -41t98 -72 q-4 -10 -36 -20t-55 -9q-23 0 -30 2q-20 39 -67 59t-86 21z" />
<glyph unicode="&#x622;" horiz-adv-x="464" d="M465 1389v-1115q0 -124 -48 -194t-130 -80v1249q0 55 65 98q66 42 113 42zM478 1464q-64 0 -120 36t-94 36q-40 0 -66 -23t-30 -49h-47q37 158 174 158q25 0 101 -34t116 -34q68 0 82 76h47q-6 -66 -53 -116q-46 -50 -110 -50z" />
<glyph unicode="&#x623;" horiz-adv-x="464" d="M447 1546q45 0 69 15q24 -1 48 -17t24 -28q-56 -48 -144 -48h-170q-51 0 -85 26t-33 54v35q37 -37 80 -37h49q-21 33 -21 87q0 55 50 103t108 48t100 -18q41 -18 47 -37q-23 -23 -69 -23q-16 35 -60 35t-63 -31q-21 -31 -21 -70q0 -38 23 -66t68 -28zM465 1389v-1115 q0 -124 -48 -194t-130 -80v1249q0 55 65 98q66 42 113 42z" />
<glyph unicode="&#x624;" horiz-adv-x="1067" d="M893 -84v229q-121 -145 -283 -145q-96 0 -170 42q-127 72 -175 256q-19 77 -19 161q0 205 130 353t322 148t281 -114q88 -115 88 -289v-504q0 -219 -125 -343t-295 -124q-215 0 -342 74q0 31 34 80t71 55q29 -51 93 -86t152 -35t163 73t75 169zM893 346v318q0 90 -50 164 t-145 73q-139 0 -208 -115q-68 -114 -68 -276t66 -270t176 -109q110 0 170 51q59 51 59 164zM782 1159q53 0 88 21q27 -2 57 -20t29 -34q-57 -55 -163 -55h-263q-51 0 -85 26t-42 46v59q49 -43 103 -43h82q-35 55 -35 124t64 126q65 57 155 57q53 0 101 -24t59 -45 q-23 -23 -62 -23h-22q-20 45 -74 45t-83 -38q-30 -38 -29 -89q0 -133 120 -133z" />
<glyph unicode="&#x625;" horiz-adv-x="464" d="M397 -336q12 0 68 14q25 -2 49 -17t23 -28q-56 -47 -144 -47h-170q-51 0 -85 26t-34 54v35q37 -37 80 -37h49q-20 33 -20 87q0 55 50 103q51 48 109 48t99 -18t47 -38q-23 -23 -69 -22q-15 35 -59 35t-64 -31t-20 -70q0 -38 22 -66q23 -28 69 -28zM465 1389v-1115 q0 -124 -48 -194t-130 -80v1249q0 55 65 98q66 42 113 42z" />
<glyph unicode="&#x626;" horiz-adv-x="1660" d="M938 -246q280 0 442 122t162 265q0 213 -309 213h-68q-189 0 -238 91q-26 46 -26 118q0 135 100 214t213 79t201 -45t96 -84q-5 -13 -33 -27t-52 -14t-37 4q-47 106 -164 107q-74 1 -120 -57t-46 -131q1 -73 27 -95t79 -22h72q410 0 424 -326q-11 -145 -107 -261 q-96 -117 -237 -181q-290 -132 -563 -132q-274 0 -432 106t-158 262q0 157 151 284q152 127 310 127q53 0 88 -21q4 -4 4 -20t-19 -41q-31 -35 -53 -47q-39 18 -88 18q-100 0 -174 -63t-74 -152q0 -289 623 -291h6zM516 545q30 0 90 20q25 0 56 -18t30 -35q-58 -53 -164 -53 h-262q-53 1 -86 25t-41 44v62q49 -45 103 -45h82q-37 57 -37 125t65 125q66 57 156 57q53 0 100 -25t60 -45q-25 -20 -62 -20h-24q-20 45 -74 45t-82 -39q-29 -39 -29 -88q0 -135 119 -135z" />
<glyph unicode="&#x627;" horiz-adv-x="464" d="M465 1389v-1115q0 -124 -48 -194t-130 -80v1249q0 55 65 98q66 42 113 42z" />
<glyph unicode="&#x628;" horiz-adv-x="2103" d="M1864 0h-1278q-186 0 -304 115t-118 277t95 274q95 111 245 110q51 0 116 -20t78 -60q0 -20 -32 -37q-33 -16 -74 -22q-49 84 -123 84t-115 -69t-41 -138q1 -174 103 -278t262 -105h1106q145 0 145 180v516q0 55 65 97t109 43v-664q0 -137 -60 -220t-179 -83zM1174 -401 q-43 1 -74 31t-31 73t31 74t74 31q44 0 74 -32q30 -30 30 -73t-30 -73t-74 -31z" />
<glyph unicode="&#x629;" horiz-adv-x="966" d="M477 1180q-43 0 -74 30t-30 74q0 43 30 74q31 31 74 31t74 -31t31 -74q0 -44 -31 -74t-74 -30zM799 1180q-43 0 -74 30t-31 74q0 43 31 74t74 31t73 -31t31 -74q-1 -44 -31 -74t-73 -30zM967 356q1 -144 -101 -250t-294 -106t-300 116t-108 294q0 130 59 238 q101 183 350 270q104 35 209 35t185 -23v-574zM740 891q-36 0 -84 -12q-115 -29 -209 -123q-47 -47 -77 -127t-30 -178q0 -169 70 -263t174 -94t156 52t51 135l2 606q-17 4 -53 4z" />
<glyph unicode="&#x62a;" horiz-adv-x="2103" d="M1065 760q-43 0 -74 31t-31 73t31 74q31 31 74 31t74 -31t31 -74q0 -44 -32 -74q-30 -30 -73 -30zM1386 760q-44 0 -74 31t-30 73t31 74q31 31 73 31t74 -31q31 -31 31 -74q0 -44 -31 -74t-74 -30zM1864 0h-1278q-186 0 -304 115t-118 277t95 274q95 111 245 110 q51 0 116 -20t78 -60q0 -20 -32 -37q-33 -16 -74 -22q-49 84 -123 84t-115 -69t-41 -138q1 -174 103 -278t262 -105h1106q145 0 145 180v516q0 55 65 97t109 43v-664q0 -137 -60 -220t-179 -83z" />
<glyph unicode="&#x62b;" horiz-adv-x="2103" d="M1864 0h-1278q-186 0 -304 115t-118 277t95 274q95 111 245 110q51 0 116 -20t78 -60q0 -20 -32 -37q-33 -16 -74 -22q-49 84 -123 84t-115 -69t-41 -138q1 -174 103 -278t262 -105h1106q145 0 145 180v516q0 55 65 97t109 43v-664q0 -137 -60 -220t-179 -83zM1065 760 q-43 0 -74 31t-31 73t31 74q31 31 74 31t74 -31t31 -74q0 -44 -32 -74q-30 -30 -73 -30zM1386 760q-44 0 -74 31t-30 73t31 74q31 31 73 31t74 -31q31 -31 31 -74q0 -44 -31 -74t-74 -30zM1225 1020q-41 0 -69 28t-28 68t28 69q28 27 69 27t69 -28t27 -68q1 -40 -27 -68 t-69 -28z" />
<glyph unicode="&#x62c;" horiz-adv-x="1189" d="M981 827q0 -61 -31 -77q-3 0 -225 -164q-225 -178 -301 -312t-76 -266q0 -133 77 -227t237 -94q54 1 124 31t99 71v-78q-160 -113 -303 -112q-184 1 -301 113t-117 308q0 109 62 222q62 112 150 196q192 181 329 254l61 37q-88 2 -153 35q-65 32 -113 64t-88 32 q-42 0 -76 -24t-35 -68q-80 0 -94 39q72 131 205 131q52 0 162 -50t245 -50q37 0 82 22t64 55q16 -27 16 -88zM709 -18q-43 0 -74 30t-31 74q0 43 31 74q31 30 74 30t73 -30t31 -74q-1 -44 -31 -74t-73 -30z" />
<glyph unicode="&#x62d;" horiz-adv-x="980" d="M981 827q0 -61 -31 -77q-3 0 -225 -164q-225 -178 -301 -312t-76 -266q0 -133 77 -227t237 -94q54 1 124 31t99 71v-78q-160 -113 -303 -112q-184 1 -301 113t-117 308q0 109 62 222q62 112 150 196q192 181 329 254l61 37q-88 2 -153 35q-65 32 -113 64t-88 32 q-42 0 -76 -24t-35 -68q-80 0 -94 39q72 131 205 131q52 0 162 -50t245 -50q37 0 82 22t64 55q16 -27 16 -88z" />
<glyph unicode="&#x62e;" horiz-adv-x="980" d="M981 827q0 -61 -31 -77q-3 0 -225 -164q-225 -178 -301 -312t-76 -266q0 -133 77 -227t237 -94q54 1 124 31t99 71v-78q-160 -113 -303 -112q-184 1 -301 113t-117 308q0 109 62 222q62 112 150 196q192 181 329 254l61 37q-88 2 -153 35q-65 32 -113 64t-88 32 q-42 0 -76 -24t-35 -68q-80 0 -94 39q72 131 205 131q52 0 162 -50t245 -50q37 0 82 22t64 55q16 -27 16 -88zM616 1087q-44 0 -74 31t-30 74t31 74q31 30 73 30t74 -30q31 -30 31 -74q0 -43 -31 -74t-74 -31z" />
<glyph unicode="&#x62f;" horiz-adv-x="919" d="M666 0h-441v131h383q135 0 135 125v287q0 172 -33 250q-34 78 -128 77q-127 0 -179 -106q-18 -6 -41 -6q-66 0 -81 43q10 41 96 85t205 44q172 0 255 -93t83 -284v-346q0 -207 -254 -207z" />
<glyph unicode="&#x630;" horiz-adv-x="919" d="M586 1153q-43 0 -74 31q-31 32 -31 74t31 73t74 31q44 0 74 -31t30 -74t-30 -73t-74 -31zM666 0h-441v131h383q135 0 135 125v287q0 172 -33 250q-34 78 -128 77q-127 0 -179 -106q-18 -6 -41 -6q-66 0 -81 43q10 41 96 85t205 44q172 0 255 -93t83 -284v-346 q0 -207 -254 -207z" />
<glyph unicode="&#x631;" horiz-adv-x="616" d="M442 -139v966q0 55 65 97t109 43v-914q0 -223 -120 -339t-320 -115q-43 0 -95 18t-81 55q0 31 47 65t88 38q51 -82 137 -82t128 44t42 124z" />
<glyph unicode="&#x632;" horiz-adv-x="616" d="M442 -139v966q0 55 65 97t109 43v-914q0 -223 -120 -339t-320 -115q-43 0 -95 18t-81 55q0 31 47 65t88 38q51 -82 137 -82t128 44t42 124zM526 1188q-44 0 -74 31t-30 73t31 74q31 31 73 31t74 -31q31 -31 31 -74q0 -44 -31 -74t-74 -30z" />
<glyph unicode="&#x633;" horiz-adv-x="2598" d="M2015 0q-88 0 -175 48t-144 130q-27 -100 -76 -139t-145 -39q-186 0 -318 160q-35 -223 -199 -392t-367 -169t-316 110q-112 111 -111 324q0 143 79 294t183 167q27 -6 27 -54t-13 -73q-94 -23 -139 -109t-45 -192q0 -150 97 -230t235 -80q403 0 403 402v608q0 55 66 97 t112 42v-504q0 -100 -6 -145q82 -125 244 -125q75 0 106 48q27 36 29 88q2 51 2 91v439q0 55 66 97t112 42v-692q40 -57 104 -85t116 -28q96 0 126 50t29 200v446q0 55 66 97t112 43v-566q0 -84 -8 -149q33 -51 -16 -82q-53 -170 -236 -170z" />
<glyph unicode="&#x634;" horiz-adv-x="2598" d="M2015 0q-88 0 -175 48t-144 130q-27 -100 -76 -139t-145 -39q-186 0 -318 160q-35 -223 -199 -392t-367 -169t-316 110q-112 111 -111 324q0 143 79 294t183 167q27 -6 27 -54t-13 -73q-94 -23 -139 -109t-45 -192q0 -150 97 -230t235 -80q403 0 403 402v608q0 55 66 97 t112 42v-504q0 -100 -6 -145q82 -125 244 -125q75 0 106 48q27 36 29 88q2 51 2 91v439q0 55 66 97t112 42v-692q40 -57 104 -85t116 -28q96 0 126 50t29 200v446q0 55 66 97t112 43v-566q0 -84 -8 -149q33 -51 -16 -82q-53 -170 -236 -170zM1475 1178q-43 0 -74 30t-31 74 q0 43 31 74q31 30 74 30t73 -30t31 -74q-1 -44 -31 -74t-73 -30zM1796 1178q-43 0 -74 30t-30 74q0 43 30 74q31 30 74 30t74 -30t31 -74t-31 -74t-74 -30zM1634 1438q-40 0 -68 28t-28 68q0 39 28 68q28 28 68 28t69 -28q28 -28 28 -68t-28 -68t-69 -28z" />
<glyph unicode="&#x635;" horiz-adv-x="2449" d="M1819 0h-598q-57 0 -97 33q-66 -182 -216 -308t-334 -126q-186 0 -299 110q-112 111 -111 324q0 143 79 294t183 167q27 -6 27 -54t-13 -73q-94 -23 -139 -109t-45 -192q0 -150 97 -230t235 -80q403 0 403 402v420q-1 55 63 97t109 42h2v-441q163 203 317 344 q289 263 476 265q229 0 360 -111t131 -305q0 -121 -57 -215q-101 -166 -353 -227q-107 -27 -220 -27zM1835 131q193 0 317 91t123 251q0 160 -82 246t-231 86q-102 0 -240 -94q-138 -95 -233 -197q-96 -102 -210 -236t-128 -147h684z" />
<glyph unicode="&#x636;" horiz-adv-x="2449" d="M1819 0h-598q-57 0 -97 33q-66 -182 -216 -308t-334 -126q-186 0 -299 110q-112 111 -111 324q0 143 79 294t183 167q27 -6 27 -54t-13 -73q-94 -23 -139 -109t-45 -192q0 -150 97 -230t235 -80q403 0 403 402v420q-1 55 63 97t109 42h2v-441q163 203 317 344 q289 263 476 265q229 0 360 -111t131 -305q0 -121 -57 -215q-101 -166 -353 -227q-107 -27 -220 -27zM1835 131q193 0 317 91t123 251q0 160 -82 246t-231 86q-102 0 -240 -94q-138 -95 -233 -197q-96 -102 -210 -236t-128 -147h684zM1915 1108q-43 0 -74 31t-31 73t31 74 q31 31 74 31t74 -31t31 -74q0 -44 -32 -74q-30 -30 -73 -30z" />
<glyph unicode="&#x637;" horiz-adv-x="1966" d="M1352 131q192 0 316 91t124 251t-82 246t-231 86q-101 0 -239 -94q-138 -95 -234 -197t-210 -236t-128 -147h684zM389 0q-84 0 -147 49t-74 82q-4 -1 -4 25t4 34q53 -59 174 -59h117l2 1120q0 55 63 97t109 43h2l-33 -1213q68 103 186 233q116 130 222 229t234 172 t231 73q229 0 360 -111t131 -305q0 -121 -57 -215q-101 -166 -354 -227q-108 -27 -220 -27h-946z" />
<glyph unicode="&#x638;" horiz-adv-x="1966" d="M1352 131q192 0 316 91t124 251t-82 246t-231 86q-101 0 -239 -94q-138 -95 -234 -197t-210 -236t-128 -147h684zM389 0q-84 0 -147 49t-74 82q-4 -1 -4 25t4 34q53 -59 174 -59h117l2 1120q0 55 63 97t109 43h2l-33 -1213q68 103 186 233q116 130 222 229t234 172 t231 73q229 0 360 -111t131 -305q0 -121 -57 -215q-101 -166 -354 -227q-108 -27 -220 -27h-946zM1430 1108q-43 0 -74 31t-31 73t31 74q31 31 74 31q44 0 74 -31t30 -74q0 -44 -30 -74t-74 -30z" />
<glyph unicode="&#x639;" horiz-adv-x="1007" d="M338 774q0 144 95 246t261 102q92 0 172 -43t103 -86q-4 -14 -43 -32t-80 -5q-40 111 -138 111t-155 -71t-57 -191q0 -66 19 -126q19 -59 81 -113t162 -54h96q55 0 104 -47t50 -80h-320q-162 0 -258 -101t-96 -227q0 -172 82 -271t246 -99q54 1 124 31t99 71v-78 q-160 -113 -303 -112q-188 0 -311 119q-122 120 -121 339q0 127 83 244q84 117 250 174q-145 125 -145 299z" />
<glyph unicode="&#x63a;" horiz-adv-x="1007" d="M338 774q0 144 95 246t261 102q92 0 172 -43t103 -86q-4 -14 -43 -32t-80 -5q-40 111 -138 111t-155 -71t-57 -191q0 -66 19 -126q19 -59 81 -113t162 -54h96q55 0 104 -47t50 -80h-320q-162 0 -258 -101t-96 -227q0 -172 82 -271t246 -99q54 1 124 31t99 71v-78 q-160 -113 -303 -112q-188 0 -311 119q-122 120 -121 339q0 127 83 244q84 117 250 174q-145 125 -145 299zM684 1290q-43 0 -74 31t-30 74q0 43 30 73t74 31q43 0 74 -31q30 -32 30 -74t-30 -73t-74 -31z" />
<glyph unicode="&#x640;" horiz-adv-x="176" />
<glyph unicode="&#x641;" horiz-adv-x="2123" d="M1679 840q-87 0 -153 -84t-66 -223t79 -235t206 -138q207 84 207 328q0 134 -70 242q-70 110 -203 110zM1686 1163q-43 0 -74 31t-31 74q0 44 31 74t74 30q44 0 74 -31t30 -73t-30 -74q-30 -31 -74 -31zM1438 0h-852q-186 0 -304 115t-118 277t95 274q95 111 245 110 q51 0 116 -20t78 -60q0 -20 -32 -37q-33 -16 -74 -22q-49 84 -123 84t-115 -69t-41 -138q1 -174 103 -278t262 -105h901q-293 147 -293 399q0 162 111 266t289 105q178 0 308 -118t130 -296q0 -221 -213 -356l-150 -74q-154 -57 -323 -57z" />
<glyph unicode="&#x642;" horiz-adv-x="1165" d="M657 1233q-43 0 -73 31q-30 32 -31 74q0 42 31 73q32 31 74 31t73 -31t31 -74t-31 -73t-74 -31zM979 1233q-43 0 -74 31q-31 32 -31 74t31 73t74 31t74 -31t31 -74t-32 -73q-30 -30 -73 -31zM190 154q66 0 78 -39q-12 -16 -12 -49q0 -146 92 -228t219 -82t244 60t158 184 h-187q-194 0 -302 113t-107 282q0 131 57 239q56 108 148 171q193 133 401 133q106 0 186 -23v-659q0 -53 -14 -125l-45 -131q-78 -172 -228 -287t-320 -115q-169 0 -282 114q-113 112 -112 321q0 74 12 119q0 2 14 2zM803 131h188v741q-100 25 -231 -47 q-211 -117 -211 -389q1 -150 69 -228t185 -77z" />
<glyph unicode="&#x643;" horiz-adv-x="2105" d="M1309 782q46 0 88 21q27 -3 57 -21t29 -32q-58 -56 -164 -56h-262q-51 0 -85 26t-42 46v59q49 -43 102 -43h82q-35 55 -35 124t65 126q65 58 136 58q72 0 120 -25t58 -45q-23 -23 -61 -23h-23q-20 45 -74 45t-82 -38q-30 -38 -30 -89q0 -133 121 -133zM1864 0h-1278 q-186 0 -304 115t-118 277t95 274q95 111 245 110q51 0 116 -20t78 -60q0 -20 -32 -37q-33 -16 -74 -22q-49 84 -123 84t-115 -69t-41 -138q1 -174 103 -278t262 -105h1106q145 0 145 180v938q0 55 65 97t109 43v-1133q31 -53 -16 -84q-51 -172 -223 -172z" />
<glyph unicode="&#x644;" horiz-adv-x="1167" d="M1167 1389v-1133q1 -156 -75 -306t-214 -251q-138 -100 -313 -100q-175 1 -287 111t-112 323q0 143 79 294t183 167q27 -6 27 -54t-13 -73q-94 -23 -139 -109t-45 -192q0 -150 97 -230t235 -80q403 0 403 402v1091q-1 55 63 97t109 43h2z" />
<glyph unicode="&#x645;" horiz-adv-x="1576" d="M164 -401v718q0 152 102 274t309 122t289 80q129 125 295 125q201 0 309 -134t109 -340q0 -94 -36 -195t-137 -175t-206 -74q-164 0 -280 100t-115 252v279q-72 -43 -209 -43q-136 0 -196 -91t-60 -212v-547q0 -55 -64 -97t-110 -42zM973 637v-334q0 -104 62 -150 t141 -47q117 0 171 110t54 294q0 258 -111 328q-49 30 -132 30t-134 -68t-51 -163z" />
<glyph unicode="&#x646;" horiz-adv-x="1167" d="M1167 967v-711q1 -156 -75 -306t-214 -251q-138 -100 -313 -100q-175 1 -287 111t-112 323q0 143 79 294t183 167q27 -6 27 -54t-13 -73q-94 -23 -139 -109t-45 -192q0 -150 97 -230t235 -80q403 0 403 402v669q-1 55 63 97t109 43h2zM662 618q-43 0 -74 31t-31 74t31 74 t74 31q44 0 74 -32q30 -30 30 -73t-30 -74t-74 -31z" />
<glyph unicode="&#x647;" horiz-adv-x="966" d="M967 356q1 -144 -101 -250t-294 -106t-300 116t-108 294q0 130 59 238q101 183 350 270q104 35 209 35t185 -23v-574zM740 891q-36 0 -84 -12q-115 -29 -209 -123q-47 -47 -77 -127t-30 -178q0 -169 70 -263t174 -94t156 52t51 135l2 606q-17 4 -53 4z" />
<glyph unicode="&#x648;" horiz-adv-x="1067" d="M893 -84v229q-121 -145 -283 -145q-96 0 -170 42q-127 72 -175 256q-19 77 -19 161q0 205 130 353t322 148t281 -114q88 -115 88 -289v-504q0 -219 -125 -343t-295 -124q-215 0 -342 74q0 31 34 80t71 55q29 -51 93 -86t152 -35t163 73t75 169zM893 346v318q0 90 -50 164 t-145 73q-139 0 -208 -115q-68 -114 -68 -276t66 -270t176 -109q110 0 170 51q59 51 59 164z" />
<glyph unicode="&#x649;" horiz-adv-x="1660" d="M938 -246q280 0 442 122t162 265q0 213 -309 213h-68q-189 0 -238 91q-26 46 -26 118q0 135 100 214t213 79t201 -45t96 -84q-5 -13 -33 -27t-52 -14t-37 4q-47 106 -164 107q-74 1 -120 -57t-46 -131q1 -73 27 -95t79 -22h72q410 0 424 -326q-11 -145 -107 -261 q-96 -117 -237 -181q-290 -132 -563 -132q-274 0 -432 106t-158 262q0 157 151 284q152 127 310 127q53 0 88 -21q4 -4 4 -20t-19 -41q-31 -35 -53 -47q-39 18 -88 18q-100 0 -174 -63t-74 -152q0 -289 623 -291h6z" />
<glyph unicode="&#x64a;" horiz-adv-x="1660" d="M682 -831q-43 1 -74 31t-30 73q0 43 30 74q31 31 74 31t74 -32q30 -30 30 -73t-30 -74q-31 -30 -74 -30zM1004 -831q-43 1 -74 31t-31 73t31 74t74 31q44 0 74 -32q30 -30 30 -73t-30 -73t-74 -31zM938 -246q280 0 442 122t162 265q0 213 -309 213h-68q-189 0 -238 91 q-26 46 -26 118q0 135 100 214t213 79t201 -45t96 -84q-5 -13 -33 -27t-52 -14t-37 4q-47 106 -164 107q-74 1 -120 -57t-46 -131q1 -73 27 -95t79 -22h72q410 0 424 -326q-11 -145 -107 -261q-96 -117 -237 -181q-290 -132 -563 -132q-274 0 -432 106t-158 262 q0 157 151 284q152 127 310 127q53 0 88 -21q4 -4 4 -20t-19 -41q-31 -35 -53 -47q-39 18 -88 18q-100 0 -174 -63t-74 -152q0 -289 623 -291h6z" />
<glyph unicode="&#x64b;" d="M117 1542l405 119q14 0 15 -21t-29 -57l-340 -63zM117 1405l405 119q14 0 15 -20t-29 -56l-340 -66z" />
<glyph unicode="&#x64c;" horiz-adv-x="2" d="M325 1475h19l4 2h4q63 20 64 86q-4 92 -74 92q-34 -4 -60 -33t-25 -70t27 -59t41 -18zM272 1450q-51 20 -51 118q0 44 39 84q39 42 95 42q55 0 95 -41t40 -97t-38 -95q-36 -38 -94 -48l-239 -35l-19 19q45 31 45 88t-25 77t-51 19q-26 0 -44 -18l-5 2q25 47 82 47l4 -2h7 q78 -8 77 -97q0 -53 -22 -92z" />
<glyph unicode="&#x64d;" d="M82 -528l405 118q33 0 -12 -75l-342 -66zM82 -664l405 119q28 0 8 -43l-20 -35l-342 -63z" />
<glyph unicode="&#x64e;" d="M426 1518q14 0 14 -17t-26 -61l-342 -64l-52 23z" />
<glyph unicode="&#x64f;" d="M325 1473q15 0 19 2h8q63 20 64 86q-4 92 -74 92q-34 -4 -60 -33t-25 -70t27 -59t41 -18zM221 1541q0 67 39 109t95 42q55 0 95 -38t40 -98t-38 -97q-36 -38 -94 -48l-237 -35l-41 21l194 51q-53 25 -53 93z" />
<glyph unicode="&#x650;" d="M381 -410q12 0 12 -20t-20 -45l-6 -10l-340 -66l-52 23z" />
<glyph unicode="&#x651;" d="M175 1378q-60 0 -82 18t-21 60v139l47 -8v-123q0 -61 43 -61q51 0 51 59v125l47 8v-102q0 -33 15 -61t44 -29q43 0 43 59v125l48 8v-139q0 -76 -86 -78q-42 0 -76 52q-13 -52 -73 -52z" />
<glyph unicode="&#x652;" d="M236 1430q36 0 62 24t26 61t-26 63t-62 26t-62 -27q-27 -27 -27 -61t26 -60t63 -26zM236 1378q-59 0 -101 39q-41 39 -41 99t41 99q41 40 101 40t100 -40q41 -40 41 -99q0 -58 -41 -98t-100 -40z" />
<glyph unicode="&#x653;" d="M282 1339q-54 0 -113 33q-58 33 -93 33q-63 0 -74 -55l-88 32q8 53 51 87t97 34t113 -33q58 -33 95 -32q61 0 72 55l90 -33q-8 -53 -52 -87t-98 -34z" />
<glyph unicode="&#x654;" d="M214 1712q71 0 138 -74l-53 -61q-65 55 -93 55t-47 -22t-20 -64q0 -92 68 -92h155l-43 -82h-346l39 82h60q-18 51 -19 92q0 84 45 125t116 41z" />
<glyph unicode="&#x655;" d="M197 -207q-64 0 -65 -89t65 -89h157l-45 -82h-346l39 82h61q-20 49 -20 94q0 84 46 125t118 41t135 -76l-55 -61q-55 55 -90 55z" />
<glyph unicode="&#x660;" horiz-adv-x="466" d="M172 367q-16 57 16 120t78 88l31 -116q18 -58 -21 -129q-12 -24 -41 -45q-28 -21 -32 -23z" />
<glyph unicode="&#x661;" horiz-adv-x="495" d="M375 -2q-1 0 -1 3q1 -2 1 -3zM374 1q-139 594 -270 1068q-4 45 11 95t51 74t53 30q72 -373 207 -957q16 -71 0 -149t-34 -116t-18 -45z" />
<glyph unicode="&#x662;" horiz-adv-x="698" d="M294 1270q114 0 204 -62t135 -139q4 -4 4 -9t-7 -14t-16 -2q-104 147 -241 148q-80 0 -128 -53t-30 -133l156 -695q16 -71 0 -149q-15 -78 -33 -116t-19 -46q-96 407 -249 995q-27 99 41 187q69 88 183 88zM319 0v-2v2z" />
<glyph unicode="&#x663;" horiz-adv-x="1071" d="M76 1270h88q29 0 33 -23q14 -42 14 -61l39 -182q27 -116 80 -174t123 -52q85 8 30 176q-23 92 -49 170q-27 78 -31 93q-14 53 31 53q54 0 68 -4q23 -6 48 -115t34 -141q25 -117 80 -176t124 -54q45 4 48 48q2 44 -21 116q-23 92 -39 141t-37 134q-14 53 31 53 q129 0 223 -53q4 -5 4 -9t-5 -10q-4 -6 -32 2t-57 8q-35 0 -24 -34q21 -99 34 -147t33 -138q20 -91 -30 -149t-113 -58q-106 0 -191 150q-4 -74 -49 -113t-96 -39q-98 0 -178 129l114 -500q31 -105 -37 -269q-15 -36 -16 -40q-123 535 -305 1215q-12 53 31 53zM352 -2 q0 2 -1 2q0 -2 1 -2z" />
<glyph unicode="&#x664;" horiz-adv-x="952" d="M123 1034q0 98 65 166q66 68 174 68t201 -49q94 -49 142 -111q6 -8 2 -22q-5 -14 -9 -15q-4 0 -8 4q-113 125 -250 125q-76 0 -118 -54t-41 -130q0 -136 106 -232t264 -112q8 0 8 -19t-14 -16h-31q-136 -6 -202 -77t-66 -169q0 -143 106 -241t240 -98q135 0 201 54 q4 4 6 5q4 1 9 -13t-1 -20q-70 -80 -207 -80q-138 0 -250 45t-193 142t-81 212t80 192t199 83l-2 6q-131 31 -231 127q-99 96 -99 229z" />
<glyph unicode="&#x665;" horiz-adv-x="933" d="M586 -2q-182 0 -298 74t-159 213q-37 139 -18 263q18 124 90 213t169 99t187 -44q89 -54 149 -143q118 -176 148 -317q42 -194 -22 -276t-246 -82zM571 51q53 1 87 21t54 85q19 65 -22 183q-4 12 -34 115t-68 180q-73 147 -148 168q-160 45 -196 -175q-27 -167 37 -323 q39 -98 119 -176t171 -78z" />
<glyph unicode="&#x666;" horiz-adv-x="851" d="M41 1165q0 104 141 105h2q178 0 306 -62t155 -190q61 -301 158 -707q16 -71 0 -149q-15 -78 -33 -116t-19 -46q-82 346 -257 1028q-23 92 -95 144t-178 53q-59 0 -92 -47t-29 -115q0 -8 -16 -9q-16 -2 -29 28q-14 30 -14 83z" />
<glyph unicode="&#x667;" horiz-adv-x="778" d="M0 1246q0 22 12 24q63 0 119 -41q6 -6 10 -19q47 -133 275 -595t260 -517l-289 1119q-14 53 31 53q55 0 130 -16t111 -37q8 -6 6 -16q-3 -9 -20 -7q-47 14 -76 14q-35 0 -24 -34l231 -1131q6 -27 -7 -36t-49 -7t-56 15t-48 68t-274 505t-294 544q-48 92 -48 114z" />
<glyph unicode="&#x668;" horiz-adv-x="894" d="M682 0q-59 0 -82 53l-469 1118l221 -1097q8 -39 -27 -57q-37 -17 -67 -17t-31 14q-8 72 -82 587t-82 592t64 77q64 0 82 -43l543 -1118q35 -61 116 -13q8 4 18 1t7 -9q-96 -88 -211 -88z" />
<glyph unicode="&#x669;" horiz-adv-x="854" d="M442 592q147 68 95 256q-63 219 -117 306q-54 86 -136 62q-81 -24 -107 -139q-25 -115 -9 -220q38 -244 182 -268q53 -10 92 3zM753 1q-39 171 -171 697q-29 -113 -131 -145q-170 -55 -283 27t-124 238t62 289q74 134 187 159q188 39 301 -211q55 -121 115 -350 q82 -332 96 -398q14 -67 -2 -145q-17 -78 -33 -116t-17 -45zM753 1q0 -1 1 -3q-1 0 -1 3z" />
<glyph unicode="&#x66b;" horiz-adv-x="483" d="M250 217q0 61 -41 115l88 86q49 -66 49 -135q0 -172 -209 -283q113 113 113 217z" />
<glyph unicode="&#x66c;" horiz-adv-x="483" d="M250 217q0 61 -41 115l88 86q49 -66 49 -135q0 -172 -209 -283q113 113 113 217z" />
<glyph unicode="&#x2000;" horiz-adv-x="990" />
<glyph unicode="&#x2001;" horiz-adv-x="1980" />
<glyph unicode="&#x2002;" horiz-adv-x="990" />
<glyph unicode="&#x2003;" horiz-adv-x="1980" />
<glyph unicode="&#x2004;" horiz-adv-x="660" />
<glyph unicode="&#x2005;" horiz-adv-x="495" />
<glyph unicode="&#x2006;" horiz-adv-x="330" />
<glyph unicode="&#x2007;" horiz-adv-x="330" />
<glyph unicode="&#x2008;" horiz-adv-x="247" />
<glyph unicode="&#x2009;" horiz-adv-x="396" />
<glyph unicode="&#x200a;" horiz-adv-x="110" />
<glyph unicode="&#x200c;" horiz-adv-x="40" d="M41 0h-41v1479h41v-1479z" />
<glyph unicode="&#x200d;" horiz-adv-x="40" d="M41 0h-41v1407l-76 -76l-28 27l98 98l-98 96l28 29l96 -98l97 98l28 -29l-96 -96l96 -98l-28 -27l-76 76v-1407z" />
<glyph unicode="&#x200e;" horiz-adv-x="40" d="M41 1438v-1438h-41v1479h197l-74 73l29 29l122 -125l-122 -125l-29 29l78 78h-160z" />
<glyph unicode="&#x200f;" horiz-adv-x="40" d="M41 0h-41v1438h-160l78 -78l-29 -29l-122 125l122 125l29 -29l-74 -73h197v-1479z" />
<glyph unicode="&#x2010;" horiz-adv-x="929" d="M49 393v80h862v-80h-862z" />
<glyph unicode="&#x2011;" horiz-adv-x="1204" d="M125 410v79h956v-79h-956z" />
<glyph unicode="&#x2012;" horiz-adv-x="1204" d="M125 410v79h956v-79h-956z" />
<glyph unicode="&#x2013;" horiz-adv-x="1272" d="M125 410v79h1024v-79h-1024z" />
<glyph unicode="&#x2014;" horiz-adv-x="2296" d="M125 410v79h2048v-79h-2048z" />
<glyph unicode="&#x201c;" horiz-adv-x="843" d="M233 993q0 -61 41 -114l-88 -86q-49 63 -49 135q0 171 209 282q-113 -113 -113 -217zM594 993q0 -63 43 -114l-88 -86q-51 63 -51 135q0 171 209 282q-113 -111 -113 -217z" />
<glyph unicode="&#x201d;" horiz-adv-x="843" d="M346 1085q0 -172 -209 -280q113 111 113 217q0 59 -41 113l88 88q49 -64 49 -138zM707 1087q0 -174 -209 -282q113 111 112 217q0 59 -41 113l88 88q50 -64 50 -136z" />
<glyph unicode="&#x202f;" horiz-adv-x="396" />
<glyph unicode="&#x205f;" horiz-adv-x="495" />
<glyph unicode="&#x25fc;" horiz-adv-x="500" d="M0 0v0v0v0v0z" />
<glyph horiz-adv-x="1024" />
<glyph />
</font>
</defs>
</svg>
