<svg xmlns="http://www.w3.org/2000/svg" xmlns:xlink="http://www.w3.org/1999/xlink" version="1.1"><metadata/><defs><font id="stvregular" horiz-adv-x="1013"><font-face ascent="1638" descent="-410" units-per-em="2048"/><glyph horiz-adv-x="0"/><glyph horiz-adv-x="681"/><glyph horiz-adv-x="286"/><glyph horiz-adv-x="286"/><glyph horiz-adv-x="286"/><glyph d="M194 94q0 47 34 80t82 33t81 -33t33 -80t-33 -79q-33 -31 -81 -31t-82 32t-34 78zM209 1296h203l-27 -936l-145 -53z" horiz-adv-x="589" unicode="!"/><glyph d="M92 1288h182l-24 -430h-133zM397 1288h185l-27 -430h-131z" horiz-adv-x="673" unicode="&quot;"/><glyph d="M57 348v121h179l36 315h-170v123h179l36 336h142l-37 -336h274l37 336h141l-36 -336h166v-123h-179l-34 -315h167v-121h-180l-37 -348h-139l35 348h-272l-37 -348h-140l37 348h-168zM379 469h270q7 55 19 159t16 156h-270z" horiz-adv-x="1062" unicode="#"/><glyph d="M92 1288h180l-24 -430h-131z" horiz-adv-x="366" unicode="'"/><glyph d="M125 528q0 481 270 912l129 -60q-229 -396 -229 -856t231 -843l-133 -66q-268 432 -268 913z" horiz-adv-x="559" unicode="("/><glyph d="M39 1378l135 62q266 -428 266 -918t-270 -907l-129 63q231 381 231 844t-233 856z" horiz-adv-x="559" unicode=")"/><glyph d="M63 985l185 82l-185 80l68 117l164 -121l-21 203h129l-22 -201l166 119l65 -117l-184 -78l184 -84l-67 -115l-164 121l20 -203h-129l21 201l-164 -119z" horiz-adv-x="690" unicode="*"/><glyph d="M76 475v146h346v366h164v-366h350v-146h-350v-366h-164v366h-346z" unicode="+"/><glyph d="M43 -215q104 111 104 190q-1 41 -25 73t-24 68t32 68t79 31q47 0 80 -39t33 -102q0 -168 -203 -357z" horiz-adv-x="419" unicode=","/><glyph d="M82 459v143h442v-143h-442z" horiz-adv-x="608" unicode="-"/><glyph d="M92 100q0 49 34 83t83 34t83 -34t34 -83t-34 -83q-34 -33 -83 -33t-83 34t-34 82z" horiz-adv-x="419" unicode="."/><glyph d="M2 -295l643 1690h166l-643 -1690h-166z" horiz-adv-x="806" unicode="/"/><glyph d="M86 610q0 318 130 484t335 166q438 0 438 -625q0 -317 -132 -484t-335 -167q-436 0 -436 626zM270 622q0 -490 267 -491q123 1 195 117t73 370q0 494 -264 494q-271 0 -271 -490z" horiz-adv-x="1077" unicode="0"/><glyph d="M43 1137l299 106h141v-1243h-180v1067l-231 -92z" horiz-adv-x="649" unicode="1"/><glyph d="M106 0v141l236 269q148 168 204 278t56 205q0 97 -54 155t-164 58t-239 -76l-26 156q151 76 317 76t259 -96t93 -232q0 -137 -70 -271t-229 -319l-157 -186q111 6 504 6v-164h-730z" horiz-adv-x="923" unicode="2"/><glyph d="M102 6l19 158q75 -27 201 -27t205 66t79 164t-81 154t-238 57q-84 0 -117 -7v142q389 -8 389 225q0 174 -211 174q-109 0 -207 -55l-14 149q127 56 283 56t243 -82q88 -82 88 -198q0 -226 -198 -308q111 -31 179 -111t69 -186q1 -172 -135 -282t-349 -109q-135 0 -205 20 z" horiz-adv-x="901" unicode="3"/><glyph d="M29 424l501 819h228v-794h209v-160h-209v-289h-170v289h-547zM201 444q27 2 207 2h182l-2 623z" horiz-adv-x="1003" unicode="4"/><glyph d="M98 4l19 160q75 -25 199 -25t206 69q82 70 82 184t-85 169t-269 55h-19q-61 0 -90 -4v631h578v-164h-412v-317q477 4 477 -360q0 -180 -139 -299q-139 -118 -358 -117q-104 0 -189 18z" horiz-adv-x="851" unicode="5"/><glyph d="M117 518q0 367 176 554t452 188q82 0 115 -9v-153q-39 8 -123 8q-178 0 -281 -91t-141 -286l-8 -59q97 116 279 116t284 -101t103 -279q0 -178 -121 -302t-317 -122q-322 0 -400 354q-18 86 -18 182zM309 392q-1 -111 63 -186t176 -75q112 -1 178 69t67 189t-61 187 t-174 67q-112 0 -180 -70t-69 -181z" horiz-adv-x="1060" unicode="6"/><glyph d="M43 1075v168h741v-147q-106 -230 -206 -532t-158 -564h-197q70 279 174 582t193 497l-193 -2q-119 -2 -354 -2z" horiz-adv-x="837" unicode="7"/><glyph d="M98 278q0 122 66 201q66 78 182 154q-227 129 -227 305q0 147 110 239q111 91 285 91t271 -83t97 -197t-60 -189q-62 -74 -171 -146q125 -74 192 -150q66 -77 66 -181q0 -158 -121 -249t-303 -91t-284 87q-103 87 -103 209zM283 305q0 -78 59 -127q58 -49 158 -49t163 45 q62 45 62 127t-63 140t-177 116q-96 -59 -149 -117t-53 -135zM297 956q0 -111 209 -227q196 118 196 227q0 76 -50 122t-146 46t-152 -45t-57 -123z" horiz-adv-x="1015" unicode="8"/><glyph d="M98 833q0 177 120 303t312 126q100 0 178 -35q242 -110 242 -488q0 -379 -168 -567t-460 -188q-86 0 -154 10v164q70 -20 172 -21q334 0 401 365q1 2 7 24t6 41q-92 -117 -274 -117t-281 103q-101 102 -101 280zM276 852q0 -116 62 -184t172 -68t178 71t68 183t-62 184 q-62 74 -172 74t-178 -72t-68 -188z" horiz-adv-x="1073" unicode="9"/><glyph d="M172 100q0 49 35 83t84 34t83 -34t34 -83t-34 -83q-34 -33 -83 -33t-84 34t-35 82zM172 638q0 50 35 84t84 34t83 -34t34 -84t-34 -84t-83 -34t-84 34t-35 84z" horiz-adv-x="526" unicode=":"/><glyph d="M127 -215q104 111 104 195q-1 36 -25 68t-24 68t31 68t78 31q47 0 80 -39t32 -102q0 -168 -202 -357zM172 638q0 50 35 84t84 34t83 -34t34 -84t-34 -84t-83 -34t-84 34t-35 84z" horiz-adv-x="526" unicode=";"/><glyph d="M129 557l582 524l112 -112l-473 -410l473 -403l-112 -121z" unicode="&lt;"/><glyph d="M98 319v146h813v-146h-813zM98 631v147h813v-147h-813z" unicode="="/><glyph d="M186 147l476 410l-476 406l113 118l582 -522l-582 -524z" unicode="&gt;"/><glyph d="M154 -365v1784h372v-133h-209v-1511h209v-140h-372z" horiz-adv-x="593" unicode="["/><glyph d="M16 1395h168l643 -1690h-168z" horiz-adv-x="815" unicode="\"/><glyph d="M66 -225h210v1511h-210v133h370v-1784h-370v140z" horiz-adv-x="593" unicode="]"/><glyph d="M-2 -317h1016v-140h-1016v140z" unicode="_"/><glyph d="M147 1307l119 94l219 -287l-96 -76z" horiz-adv-x="679" unicode="`"/><glyph d="M49 514v139q111 4 153 45t42 148v215q0 172 66 265q67 93 225 93h36v-133q-96 0 -132 -47t-36 -172v-213q0 -223 -157 -272q158 -39 157 -271v-317q0 -125 36 -172t132 -47v-140h-36q-158 1 -225 89t-66 272v321q0 103 -44 147t-151 50z" horiz-adv-x="628" unicode="{"/><glyph d="M190 -453v1842h138v-1842h-138z" horiz-adv-x="524" unicode="|"/><glyph d="M66 -225q96 0 132 47t35 172v317q0 221 154 273q-154 35 -154 262v221q0 125 -35 172q-36 47 -132 47v133h36q291 0 291 -358v-207q0 -113 42 -155t153 -46v-139q-106 -6 -150 -49t-45 -148v-321q-1 -184 -67 -272t-224 -89h-36v140z" horiz-adv-x="622" unicode="}"/><glyph d="M82 459v143h442v-143h-442z" horiz-adv-x="608" unicode="­"/><glyph horiz-adv-x="720"/><glyph horiz-adv-x="1440"/><glyph horiz-adv-x="720"/><glyph horiz-adv-x="1440"/><glyph horiz-adv-x="480"/><glyph horiz-adv-x="360"/><glyph horiz-adv-x="240"/><glyph horiz-adv-x="240"/><glyph horiz-adv-x="180"/><glyph horiz-adv-x="288"/><glyph horiz-adv-x="80"/><glyph d="M82 459v143h442v-143h-442z" horiz-adv-x="608" unicode="‐"/><glyph d="M82 459v143h442v-143h-442z" horiz-adv-x="608" unicode="‑"/><glyph d="M82 459v143h442v-143h-442z" horiz-adv-x="608" unicode="‒"/><glyph d="M82 459v143h1024v-143h-1024z" horiz-adv-x="1190" unicode="–"/><glyph d="M82 459v143h2048v-143h-2048z" horiz-adv-x="2214" unicode="—"/><glyph horiz-adv-x="288"/><glyph horiz-adv-x="360"/><glyph d="M0 0z" horiz-adv-x="500" unicode="◼"/></font>
</defs>
</svg>
