<?xml version="1.0" standalone="no"?>
<!DOCTYPE svg PUBLIC "-//W3C//DTD SVG 1.1//EN" "http://www.w3.org/Graphics/SVG/1.1/DTD/svg11.dtd" >
<svg xmlns="http://www.w3.org/2000/svg" xmlns:xlink="http://www.w3.org/1999/xlink" version="1.1">
<metadata></metadata>
<defs>
<font id="scheherazaderegular" horiz-adv-x="0" >
<font-face units-per-em="1000" ascent="800" descent="-200" />
<missing-glyph horiz-adv-x="250" />
<glyph unicode="&#x648;&#x654;" horiz-adv-x="279" d="M255 61q0 -30 -7 -63t-19 -64.5t-28 -60.5t-36 -50.5t-42 -34.5t-45 -13t-43.5 6t-36.5 13t-25.5 13.5t-9.5 8.5t1 4.5t3 2.5q1 0 8.5 -2t17 -4l19 -4t16.5 -2q24 0 48.5 9.5t47 25.5t42 37.5t33.5 45.5t22.5 48.5t8.5 47.5q0 12 -2 20t-5 15q-4 -5 -9 -10.5t-10.5 -10 t-12.5 -7.5t-15 -3q-9 0 -19.5 4.5t-18.5 12t-13 18t-5 23.5q0 19 7.5 41.5t18 42t22 33t20.5 13.5q11 0 22.5 -10t21.5 -30t16.5 -49t6.5 -67zM197 120q-5 8 -12.5 12.5t-12.5 4.5q-7 0 -10.5 -6t-3.5 -14q0 -4 4.5 -9.5t11.5 -5.5q5 0 12.5 5.5t10.5 12.5zM254 340 q0 -1 -1 -5.5t-3.5 -9t-6 -9t-8.5 -6.5l-9 -3t-14 -5t-18 -7t-20 -7q-24 -9 -36 -14q-10 -6 -14 -6t-4 3q0 2 1.5 6t3 7.5t3.5 7.5t3 5t4.5 3.5l7 5t7 3.5t5.5 2q-4 1 -8.5 4t-8.5 7t-7 9.5t-3 12.5q0 6 3 13t8 14t10.5 14t11.5 12q9 9 16 14.5t12 7.5t9.5 2.5t8.5 0.5 q11 0 16 -8.5t5 -18.5q0 -2 -1 -7t-3.5 -10t-4.5 -8t-4 -3t-5.5 1.5t-8.5 3.5t-10.5 3.5t-9.5 1.5q-8 0 -16 -5.5t-8 -11.5q0 -1 5.5 -5t13.5 -9t17 -8.5t16 -4.5q6 1 13 3t13 3t10.5 2t5.5 2q1 0 2 -0.5t1 -2.5z" />
<glyph unicode="&#x64a;&#x654;" horiz-adv-x="551" d="M499 233q-8 8 -16 12.5t-25 4.5q-18 0 -41 -9.5t-44.5 -24.5t-36 -35t-14.5 -42q0 -11 11 -18.5t26 -12.5t29.5 -7.5t22.5 -4.5q13 -2 24 -3t20 -2.5t16 -4t11 -7.5q5 -5 6 -16t1 -25q0 -16 -11.5 -33.5t-29.5 -31.5q-23 -18 -51.5 -34.5t-62 -28.5t-70 -19t-74.5 -7 q-37 0 -67 8.5t-52 25.5t-33.5 41t-11.5 56q0 18 5.5 39t13.5 42t17.5 40.5t18 34.5t14 24t6.5 9q8 0 8 -6q0 -2 -7.5 -16.5t-16 -34.5t-16 -43.5t-7.5 -45.5q0 -32 14.5 -53t36.5 -34t49.5 -18t53.5 -5q22 0 48.5 5t53 12.5t51.5 17t44.5 18.5t31 16.5t11.5 11.5t-3.5 7 t-13 5.5t-28 5.5t-48.5 7q-13 1 -26.5 4.5t-25 10.5t-19 18.5t-7.5 27.5q0 13 5.5 28.5t14.5 32t21.5 33t27.5 30.5q15 15 31 28t33.5 22.5t34.5 15t34 5.5q2 0 6.5 -0.5t8.5 -2.5t7.5 -4.5t3.5 -5.5zM284 382q0 -1 -1 -5.5t-3.5 -9t-6 -9t-8.5 -6.5l-9 -3t-14 -5t-18 -7 t-20 -7q-24 -9 -36 -14q-10 -6 -14 -6t-4 3q0 2 1.5 6t3 7.5t3.5 7.5t3 5t4.5 3.5l7 5t7 3.5t5.5 2q-4 1 -8.5 4t-8.5 7t-7 9.5t-3 12.5q0 6 3 13t8 14t10.5 14t11.5 12q9 9 16 14.5t12 7.5t9.5 2.5t8.5 0.5q11 0 16 -8.5t5 -18.5q0 -2 -1 -7t-3.5 -10t-4.5 -8t-4 -3 t-5.5 1.5t-8.5 3.5t-10.5 3.5t-9.5 1.5q-8 0 -16 -5.5t-8 -11.5q0 -1 5.5 -5t13.5 -9t17 -8.5t16 -4.5q6 1 13 3t13 3t10.5 2t5.5 2q1 0 2 -0.5t1 -2.5z" />
<glyph unicode="&#x6d5;&#x654;" horiz-adv-x="245" d="M213 114q0 -26 -7.5 -48t-21 -37.5t-33 -24.5t-44.5 -9q-17 0 -30.5 6.5t-22 18t-13 27t-4.5 33.5q0 14 8.5 38t22.5 55q7 15 13.5 28.5t13 24t12 17t10.5 6.5q18 0 35 -11.5t30.5 -30.5t22 -43.5t8.5 -49.5zM184 101q0 8 -9 17.5t-22.5 18.5t-28 14.5t-24.5 5.5 q-7 0 -13 -6t-11 -15.5t-8 -20t-3 -19.5q0 -6 5 -11.5t12.5 -9t17 -5.5t18.5 -2t20.5 2t21.5 6.5t17 10.5t7 14zM193 370q0 -1 -1 -5.5t-3.5 -9t-6 -9t-8.5 -6.5l-9 -3t-14 -5t-18 -7t-20 -7q-24 -9 -36 -14q-10 -6 -14 -6t-4 3q0 2 1.5 6t3 7.5t3.5 7.5t3 5t4.5 3.5l7 5 t7 3.5t5.5 2q-4 1 -8.5 4t-8.5 7t-7 9.5t-3 12.5q0 6 3 13t8 14t10.5 14t11.5 12q9 9 16 14.5t12 7.5t9.5 2.5t8.5 0.5q11 0 16 -8.5t5 -18.5q0 -2 -1 -7t-3.5 -10t-4.5 -8t-4 -3t-5.5 1.5t-8.5 3.5t-10.5 3.5t-9.5 1.5q-8 0 -16 -5.5t-8 -11.5q0 -1 5.5 -5t13.5 -9t17 -8.5 t16 -4.5q6 1 13 3t13 3t10.5 2t5.5 2q1 0 2 -0.5t1 -2.5z" />
<glyph unicode="&#x6c1;&#x654;" horiz-adv-x="245" d="M213 114q0 -26 -7.5 -48t-21 -37.5t-33 -24.5t-44.5 -9q-17 0 -30.5 6.5t-22 18t-13 27t-4.5 33.5q0 14 8.5 38t22.5 55q7 15 13.5 28.5t13 24t12 17t10.5 6.5q18 0 35 -11.5t30.5 -30.5t22 -43.5t8.5 -49.5zM184 101q0 8 -9 17.5t-22.5 18.5t-28 14.5t-24.5 5.5 q-7 0 -13 -6t-11 -15.5t-8 -20t-3 -19.5q0 -6 5 -11.5t12.5 -9t17 -5.5t18.5 -2t20.5 2t21.5 6.5t17 10.5t7 14zM193 370q0 -1 -1 -5.5t-3.5 -9t-6 -9t-8.5 -6.5l-9 -3t-14 -5t-18 -7t-20 -7q-24 -9 -36 -14q-10 -6 -14 -6t-4 3q0 2 1.5 6t3 7.5t3.5 7.5t3 5t4.5 3.5l7 5 t7 3.5t5.5 2q-4 1 -8.5 4t-8.5 7t-7 9.5t-3 12.5q0 6 3 13t8 14t10.5 14t11.5 12q9 9 16 14.5t12 7.5t9.5 2.5t8.5 0.5q11 0 16 -8.5t5 -18.5q0 -2 -1 -7t-3.5 -10t-4.5 -8t-4 -3t-5.5 1.5t-8.5 3.5t-10.5 3.5t-9.5 1.5q-8 0 -16 -5.5t-8 -11.5q0 -1 5.5 -5t13.5 -9t17 -8.5 t16 -4.5q6 1 13 3t13 3t10.5 2t5.5 2q1 0 2 -0.5t1 -2.5z" />
<glyph unicode="&#xfedf;&#xfef0;" horiz-adv-x="996" arabic-form="isolated" d="M736 -5l9 82q57 0 80 11t26.5 39t1.5 78l-19 509h81l20 -500q3 -71 -9.5 -120t-56 -74t-133.5 -25zM30 -1q0 36 10 80t32 97l72 -28q-16 -42 -24 -77t-8 -65q0 -55 32.5 -90t86 -51t117.5 -16q77 0 140.5 18t101.5 47.5t38 65.5q0 26 -40 45t-112 39l19 83 q104 -40 162 -55t89 -15q21 0 30.5 -11.5t9.5 -27.5t-14 -29.5t-36 -13.5h-37q2 -9 3 -14.5t1 -14.5q0 -49 -45 -94.5t-129.5 -74.5t-202.5 -29q-79 0 -146.5 25.5t-108.5 76.5t-41 129z" />
<glyph unicode="&#xfee0;&#xfef0;" horiz-adv-x="1036" arabic-form="final" d="M736 -5l9 82q57 0 80 11t26.5 39t1.5 78l-17 509h83l16 -507q2 -51 16.5 -79.5t39.5 -39.5t55 -11q21 0 30.5 -11.5t9.5 -27.5t-14 -29.5t-36 -13.5q-51 0 -81 19.5t-43 47.5q-20 -33 -61.5 -50t-114.5 -17zM30 -1q0 36 10 80t32 97l72 -28q-16 -42 -24 -77t-8 -65 q0 -55 32.5 -90t86 -51t117.5 -16q77 0 140.5 18t101.5 47.5t38 65.5q0 26 -40 45t-112 39l19 83q104 -40 162 -55t89 -15q21 0 30.5 -11.5t9.5 -27.5t-14 -29.5t-36 -13.5h-37q2 -9 3 -14.5t1 -14.5q0 -49 -45 -94.5t-129.5 -74.5t-202.5 -29q-79 0 -146.5 25.5 t-108.5 76.5t-41 129z" />
<glyph unicode="&#xfee0;&#xfea4;&#xfef0;" horiz-adv-x="1673" arabic-form="final" d="M1373 -5l9 82q57 0 80 11t26.5 39t1.5 78l-17 509h83l16 -507q2 -51 16.5 -79.5t39.5 -39.5t55 -11q21 0 30.5 -11.5t9.5 -27.5t-14 -29.5t-36 -13.5q-51 0 -81 19.5t-43 47.5q-20 -33 -61.5 -50t-114.5 -17zM736 -5l9 82q104 0 200.5 31t176.5 86q-39 35 -95.5 55.5 t-124.5 20.5q-25 0 -44 -2.5t-46 -8.5l-16 76q56 17 106 17q52 0 94 -12.5t76.5 -30.5t65 -36t59.5 -30.5t60 -12.5h21l7 -72q-31 0 -60 -7q19 -45 54 -59.5t104 -14.5q21 0 30.5 -11.5t9.5 -27.5t-14 -29.5t-36 -13.5q-54 0 -96.5 9.5t-72.5 38t-44 85.5 q-38 -18 -77.5 -40.5t-87.5 -43.5t-111 -35t-148 -14zM30 -1q0 36 10 80t32 97l72 -28q-16 -42 -24 -77t-8 -65q0 -55 32.5 -90t86 -51t117.5 -16q77 0 140.5 18t101.5 47.5t38 65.5q0 26 -40 45t-112 39l19 83q104 -40 162 -55t89 -15q21 0 30.5 -11.5t9.5 -27.5t-14 -29.5 t-36 -13.5h-37q2 -9 3 -14.5t1 -14.5q0 -49 -45 -94.5t-129.5 -74.5t-202.5 -29q-79 0 -146.5 25.5t-108.5 76.5t-41 129z" />
<glyph unicode="&#xfedf;&#xfe82;" horiz-adv-x="678" arabic-form="isolated" d="M393 536q0 22 -3 53t-7 62t-8 53l86 10q3 -20 6.5 -52.5t5.5 -64.5t2 -53q0 -63 -11.5 -122.5t-37.5 -115.5q47 -49 69 -90t22 -81q0 -29 -14 -60.5t-51 -53t-107 -21.5h-230v81q150 107 214 213q-56 50 -131.5 107t-157.5 116l47 66q89 -66 158 -119.5t119 -98.5 q15 40 22 82.5t7 88.5zM234 82h126q51 0 67 18.5t16 42.5q0 18 -14.5 42t-40.5 52q-28 -42 -66.5 -81t-87.5 -74zM283 625q0 -7 -10.5 -14.5t-28 -15t-38.5 -14t-42 -12t-40 -8.5t-31 -3q-13 0 -28.5 0.5t-30.5 1.5l-32 2q-4 0 -6 -5.5t-3 -11.5t-2.5 -11.5t-6.5 -5.5 q-6 0 -12.5 6t-11.5 14t-8 16.5t-3 14.5q0 12 5 19.5t12.5 11.5t16.5 5.5t17 1.5q6 0 16.5 -1t24 -2t29 -2t30.5 -1q42 0 72.5 4.5t51.5 9t33 8.5t16 4q10 0 10 -12z" />
<glyph unicode="&#xfee0;&#xfe82;" horiz-adv-x="689" arabic-form="final" d="M142 -5q-27 0 -54.5 4.5t-38.5 6.5l11 79q90 -12 164.5 2.5t118.5 72.5q-39 64 -117 155.5t-186 188.5l54 57q106 -100 175 -181t111 -141q12 43 14 98l-14 377h82l20 -515q2 -49 9.5 -75.5t34 -36.5t83.5 -10q21 0 30.5 -11.5t9.5 -27.5t-14 -29.5t-36 -13.5 q-70 0 -111 13.5t-60 42t-25 73.5q-31 -55 -76 -83t-93.5 -37t-91.5 -9zM283 625q0 -7 -10.5 -14.5t-28 -15t-38.5 -14t-42 -12t-40 -8.5t-31 -3q-13 0 -28.5 0.5t-30.5 1.5l-32 2q-4 0 -6 -5.5t-3 -11.5t-2.5 -11.5t-6.5 -5.5q-6 0 -12.5 6t-11.5 14t-8 16.5t-3 14.5 q0 12 5 19.5t12.5 11.5t16.5 5.5t17 1.5q6 0 16.5 -1t24 -2t29 -2t30.5 -1q42 0 72.5 4.5t51.5 9t33 8.5t16 4q10 0 10 -12z" />
<glyph unicode="&#xfedf;&#xfe84;" horiz-adv-x="582" arabic-form="isolated" d="M393 536q0 22 -3 53t-7 62t-8 53l86 10q3 -20 6.5 -52.5t5.5 -64.5t2 -53q0 -63 -11.5 -122.5t-37.5 -115.5q47 -49 69 -90t22 -81q0 -29 -14 -60.5t-51 -53t-107 -21.5h-230v81q150 107 214 213q-56 50 -131.5 107t-157.5 116l47 66q89 -66 158 -119.5t119 -98.5 q15 40 22 82.5t7 88.5zM234 82h126q51 0 67 18.5t16 42.5q0 18 -14.5 42t-40.5 52q-28 -42 -66.5 -81t-87.5 -74zM146 624q0 -1 -1 -5.5t-3.5 -9t-6 -9t-8.5 -6.5l-9 -3t-14 -5t-18 -7t-20 -7q-24 -9 -36 -14q-10 -6 -14 -6t-4 3q0 2 1.5 6t3 7.5t3.5 7.5t3 5t4.5 3.5l7 5 t7 3.5t5.5 2q-4 1 -8.5 4t-8.5 7t-7 9.5t-3 12.5q0 6 3 13t8 14t10.5 14t11.5 12q9 9 16 14.5t12 7.5t9.5 2.5t8.5 0.5q11 0 16 -8.5t5 -18.5q0 -2 -1 -7t-3.5 -10t-4.5 -8t-4 -3t-5.5 1.5t-8.5 3.5t-10.5 3.5t-9.5 1.5q-8 0 -16 -5.5t-8 -11.5q0 -1 5.5 -5t13.5 -9t17 -8.5 t16 -4.5q6 1 13 3t13 3t10.5 2t5.5 2q1 0 2 -0.5t1 -2.5z" />
<glyph unicode="&#xfee0;&#xfe84;" horiz-adv-x="599" arabic-form="final" d="M142 -5q-27 0 -54.5 4.5t-38.5 6.5l11 79q90 -12 164.5 2.5t118.5 72.5q-39 64 -117 155.5t-186 188.5l54 57q106 -100 175 -181t111 -141q12 43 14 98l-14 377h82l20 -515q2 -49 9.5 -75.5t34 -36.5t83.5 -10q21 0 30.5 -11.5t9.5 -27.5t-14 -29.5t-36 -13.5 q-70 0 -111 13.5t-60 42t-25 73.5q-31 -55 -76 -83t-93.5 -37t-91.5 -9zM146 624q0 -1 -1 -5.5t-3.5 -9t-6 -9t-8.5 -6.5l-9 -3t-14 -5t-18 -7t-20 -7q-24 -9 -36 -14q-10 -6 -14 -6t-4 3q0 2 1.5 6t3 7.5t3.5 7.5t3 5t4.5 3.5l7 5t7 3.5t5.5 2q-4 1 -8.5 4t-8.5 7t-7 9.5 t-3 12.5q0 6 3 13t8 14t10.5 14t11.5 12q9 9 16 14.5t12 7.5t9.5 2.5t8.5 0.5q11 0 16 -8.5t5 -18.5q0 -2 -1 -7t-3.5 -10t-4.5 -8t-4 -3t-5.5 1.5t-8.5 3.5t-10.5 3.5t-9.5 1.5q-8 0 -16 -5.5t-8 -11.5q0 -1 5.5 -5t13.5 -9t17 -8.5t16 -4.5q6 1 13 3t13 3t10.5 2t5.5 2 q1 0 2 -0.5t1 -2.5z" />
<glyph unicode="&#xfedf;&#xfe88;" horiz-adv-x="582" arabic-form="isolated" d="M393 536q0 22 -3 53t-7 62t-8 53l86 10q3 -20 6.5 -52.5t5.5 -64.5t2 -53q0 -63 -11.5 -122.5t-37.5 -115.5q47 -49 69 -90t22 -81q0 -29 -14 -60.5t-51 -53t-107 -21.5h-230v81q150 107 214 213q-56 50 -131.5 107t-157.5 116l47 66q89 -66 158 -119.5t119 -98.5 q15 40 22 82.5t7 88.5zM234 82h126q51 0 67 18.5t16 42.5q0 18 -14.5 42t-40.5 52q-28 -42 -66.5 -81t-87.5 -74zM206 -158q0 -1 -1 -5.5t-3.5 -9t-6 -9t-8.5 -6.5l-9 -3t-14 -5t-18 -7t-20 -7q-24 -9 -36 -14q-10 -6 -14 -6t-4 3q0 2 1.5 6t3 7.5t3.5 7.5t3 5t4.5 3.5l7 5 t7 3.5t5.5 2q-4 1 -8.5 4t-8.5 7t-7 9.5t-3 12.5q0 6 3 13t8 14t10.5 14t11.5 12q9 9 16 14.5t12 7.5t9.5 2.5t8.5 0.5q11 0 16 -8.5t5 -18.5q0 -2 -1 -7t-3.5 -10t-4.5 -8t-4 -3t-5.5 1.5t-8.5 3.5t-10.5 3.5t-9.5 1.5q-8 0 -16 -5.5t-8 -11.5q0 -1 5.5 -5t13.5 -9t17 -8.5 t16 -4.5q6 1 13 3t13 3t10.5 2t5.5 2q1 0 2 -0.5t1 -2.5z" />
<glyph unicode="&#xfee0;&#xfe88;" horiz-adv-x="599" arabic-form="final" d="M142 -5q-27 0 -54.5 4.5t-38.5 6.5l11 79q90 -12 164.5 2.5t118.5 72.5q-39 64 -117 155.5t-186 188.5l54 57q106 -100 175 -181t111 -141q12 43 14 98l-14 377h82l20 -515q2 -49 9.5 -75.5t34 -36.5t83.5 -10q21 0 30.5 -11.5t9.5 -27.5t-14 -29.5t-36 -13.5 q-70 0 -111 13.5t-60 42t-25 73.5q-31 -55 -76 -83t-93.5 -37t-91.5 -9zM206 -158q0 -1 -1 -5.5t-3.5 -9t-6 -9t-8.5 -6.5l-9 -3t-14 -5t-18 -7t-20 -7q-24 -9 -36 -14q-10 -6 -14 -6t-4 3q0 2 1.5 6t3 7.5t3.5 7.5t3 5t4.5 3.5l7 5t7 3.5t5.5 2q-4 1 -8.5 4t-8.5 7t-7 9.5 t-3 12.5q0 6 3 13t8 14t10.5 14t11.5 12q9 9 16 14.5t12 7.5t9.5 2.5t8.5 0.5q11 0 16 -8.5t5 -18.5q0 -2 -1 -7t-3.5 -10t-4.5 -8t-4 -3t-5.5 1.5t-8.5 3.5t-10.5 3.5t-9.5 1.5q-8 0 -16 -5.5t-8 -11.5q0 -1 5.5 -5t13.5 -9t17 -8.5t16 -4.5q6 1 13 3t13 3t10.5 2t5.5 2 q1 0 2 -0.5t1 -2.5z" />
<glyph unicode="&#xfedf;&#xfe8e;" horiz-adv-x="582" arabic-form="isolated" d="M393 536q0 22 -3 53t-7 62t-8 53l86 10q3 -20 6.5 -52.5t5.5 -64.5t2 -53q0 -63 -11.5 -122.5t-37.5 -115.5q47 -49 69 -90t22 -81q0 -29 -14 -60.5t-51 -53t-107 -21.5h-230v81q150 107 214 213q-56 50 -131.5 107t-157.5 116l47 66q89 -66 158 -119.5t119 -98.5 q15 40 22 82.5t7 88.5zM234 82h126q51 0 67 18.5t16 42.5q0 18 -14.5 42t-40.5 52q-28 -42 -66.5 -81t-87.5 -74z" />
<glyph unicode="&#xfee0;&#xfe8e;" horiz-adv-x="599" arabic-form="final" d="M142 -5q-27 0 -54.5 4.5t-38.5 6.5l11 79q90 -12 164.5 2.5t118.5 72.5q-39 64 -117 155.5t-186 188.5l54 57q106 -100 175 -181t111 -141q12 43 14 98l-14 377h82l20 -515q2 -49 9.5 -75.5t34 -36.5t83.5 -10q21 0 30.5 -11.5t9.5 -27.5t-14 -29.5t-36 -13.5 q-70 0 -111 13.5t-60 42t-25 73.5q-31 -55 -76 -83t-93.5 -37t-91.5 -9z" />
<glyph unicode="&#x64b;&#x651;" d="M149 739q0 -1 -1.5 -5.5t-4 -9.5l-5 -10t-4.5 -7q-3 -3 -9 -6t-12 -7l-94 -49q-12 -6 -17 -9t-8 -3t-3 4q0 2 1 6t3 8.5l4 9t4 6.5t5.5 4l10.5 6l97 51q8 4 17 9.5t12 5.5q4 0 4 -4zM149 812q0 -1 -1.5 -5.5t-4 -9.5l-5 -10t-4.5 -7q-3 -3 -9 -6t-12 -7l-94 -49 q-12 -6 -17 -9t-8 -3t-3 4q0 2 1 6t3 8.5l4 9t4 6.5t5.5 4l10.5 6l97 51q8 4 17 9.5t12 5.5q4 0 4 -4zM164 610q0 -16 -2.5 -31.5t-8.5 -27.5t-15 -20t-22 -8q-10 0 -18 2.5t-15 8.5q-5 -8 -10.5 -16t-11.5 -14t-13.5 -10t-16.5 -4q-16 0 -28 14.5t-12 39.5q0 2 1 8.5 t2.5 14.5t3.5 16t5 13q0 1 2.5 1h5.5t3.5 -9t1 -20t4 -20t13.5 -9q12 0 19.5 12t12.5 27.5t7 28.5t3 14q1 2 9 2q3 0 4.5 -8t4 -17.5t7 -17.5t14.5 -8t15.5 11.5t8.5 25t4 25.5t1 13q1 2 5 4.5t7 2.5q2 0 3.5 -5t2.5 -12t2 -14.5t1 -12.5z" />
<glyph unicode="&#x64c;&#x651;" d="M164 610q0 -16 -2.5 -31.5t-8.5 -27.5t-15 -20t-22 -8q-10 0 -18 2.5t-15 8.5q-5 -8 -10.5 -16t-11.5 -14t-13.5 -10t-16.5 -4q-16 0 -28 14.5t-12 39.5q0 2 1 8.5t2.5 14.5t3.5 16t5 13q0 1 2.5 1h5.5t3.5 -9t1 -20t4 -20t13.5 -9q12 0 19.5 12t12.5 27.5t7 28.5t3 14 q1 2 9 2q3 0 4.5 -8t4 -17.5t7 -17.5t14.5 -8t15.5 11.5t8.5 25t4 25.5t1 13q1 2 5 4.5t7 2.5q2 0 3.5 -5t2.5 -12t2 -14.5t1 -12.5zM156 704q0 -9 -2 -14.5t-8 -5.5q-2 0 -6.5 2.5t-9 6t-9.5 7.5t-8 7q-31 -30 -58 -47.5t-43 -17.5q-4 0 -6.5 1.5t-2.5 3.5q0 1 3 6.5 t6.5 13t6 15.5t2.5 16t-3 16t-16 8q-7 0 -11 -4.5t-6 -10.5t-3 -10.5t-2 -4.5q-5 0 -5 8q0 7 1 18t5 21.5t10 18t16 7.5q12 0 19 -4.5t10.5 -12t4.5 -17t1 -18.5v-16.5t-1 -15.5q14 5 28 16t25 22q-5 3 -10.5 7t-9.5 8.5t-7 10.5t-3 16q0 12 4 23.5t11.5 21.5t17.5 16t23 6 q8 0 14 -3.5t10 -9t6 -12t2 -13.5q0 -10 -5.5 -24t-10.5 -24q10 -8 15 -16t5 -22zM119 772q0 10 -5.5 17t-14.5 7q-3 0 -6 -3t-3 -6q0 -7 5.5 -13.5t20.5 -16.5q3 8 3 15z" />
<glyph unicode="&#x64d;&#x651;" d="M163 599q0 -1 -1.5 -5.5t-4 -9.5l-5 -10t-4.5 -7q-3 -3 -9 -6t-12 -7l-94 -49q-12 -6 -17 -9t-8 -3t-3 4q0 2 1 6t3 8.5l4 9t4 6.5t5.5 4l10.5 6l97 51q8 4 17 9.5t12 5.5q4 0 4 -4zM163 670q0 -1 -1.5 -5.5t-4 -9.5l-5 -10t-4.5 -7q-3 -3 -9 -6t-12 -7l-94 -49 q-12 -6 -17 -9t-8 -3t-3 4q0 2 1 6t3 8.5l4 9t4 6.5t5.5 4l10.5 6l97 51q8 4 17 9.5t12 5.5q4 0 4 -4zM164 788q0 -16 -2.5 -31.5t-8.5 -27.5t-15 -20t-22 -8q-10 0 -18 2.5t-15 8.5q-5 -8 -10.5 -16t-11.5 -14t-13.5 -10t-16.5 -4q-16 0 -28 14.5t-12 39.5q0 2 1 8.5 t2.5 14.5t3.5 16t5 13q0 1 2.5 1h5.5t3.5 -9t1 -20t4 -20t13.5 -9q12 0 19.5 12t12.5 27.5t7 28.5t3 14q1 2 9 2q3 0 4.5 -8t4 -17.5t7 -17.5t14.5 -8t15.5 11.5t8.5 25t4 25.5t1 13q1 2 5 4.5t7 2.5q2 0 3.5 -5t2.5 -12t2 -14.5t1 -12.5z" />
<glyph unicode="&#x64e;&#x651;" d="M154 739q0 -1 -1.5 -5.5t-4 -9.5l-5 -10t-4.5 -7q-3 -3 -9 -6t-12 -7l-94 -49q-12 -6 -17 -9t-8 -3t-3 4q0 2 1 6t3 8.5l4 9t4 6.5t5.5 4l10.5 6l97 51q8 4 17 9.5t12 5.5q4 0 4 -4zM164 610q0 -16 -2.5 -31.5t-8.5 -27.5t-15 -20t-22 -8q-10 0 -18 2.5t-15 8.5 q-5 -8 -10.5 -16t-11.5 -14t-13.5 -10t-16.5 -4q-16 0 -28 14.5t-12 39.5q0 2 1 8.5t2.5 14.5t3.5 16t5 13q0 1 2.5 1h5.5t3.5 -9t1 -20t4 -20t13.5 -9q12 0 19.5 12t12.5 27.5t7 28.5t3 14q1 2 9 2q3 0 4.5 -8t4 -17.5t7 -17.5t14.5 -8t15.5 11.5t8.5 25t4 25.5t1 13 q1 2 5 4.5t7 2.5q2 0 3.5 -5t2.5 -12t2 -14.5t1 -12.5z" />
<glyph unicode="&#x64f;&#x651;" d="M164 610q0 -16 -2.5 -31.5t-8.5 -27.5t-15 -20t-22 -8q-10 0 -18 2.5t-15 8.5q-5 -8 -10.5 -16t-11.5 -14t-13.5 -10t-16.5 -4q-16 0 -28 14.5t-12 39.5q0 2 1 8.5t2.5 14.5t3.5 16t5 13q0 1 2.5 1h5.5t3.5 -9t1 -20t4 -20t13.5 -9q12 0 19.5 12t12.5 27.5t7 28.5t3 14 q1 2 9 2q3 0 4.5 -8t4 -17.5t7 -17.5t14.5 -8t15.5 11.5t8.5 25t4 25.5t1 13q1 2 5 4.5t7 2.5q2 0 3.5 -5t2.5 -12t2 -14.5t1 -12.5zM112 832q10 0 16.5 -5t9.5 -12.5t4 -14.5t1 -11q0 -13 -4 -26.5t-11 -27.5q7 -5 13.5 -9t9.5 -6q2 -1 2 -4q0 -4 -2 -10t-4 -11.5t-5 -9.5 t-4 -4q-3 0 -12.5 4.5t-20.5 12.5q-10 -13 -21 -24t-22 -19.5t-20.5 -13t-17.5 -4.5t-16 2t-14 5q31 17 53.5 35.5t37.5 34.5q-11 10 -18.5 20.5t-7.5 20.5t4.5 23.5t12 25.5t17 20t19.5 8zM85 783q0 -7 7 -15.5t17 -16.5q4 10 4 17q0 10 -7 16t-14 6q-7 -1 -7 -7z" />
<glyph unicode="&#x650;&#x651;" d="M163 593q0 -1 -1.5 -5.5t-4 -9.5l-5 -10t-4.5 -7q-3 -3 -9 -6t-12 -7l-94 -49q-12 -6 -17 -9t-8 -3t-3 4q0 2 1 6t3 8.5l4 9t4 6.5t5.5 4l10.5 6l97 51q8 4 17 9.5t12 5.5q4 0 4 -4zM164 711q0 -16 -2.5 -31.5t-8.5 -27.5t-15 -20t-22 -8q-10 0 -18 2.5t-15 8.5 q-5 -8 -10.5 -16t-11.5 -14t-13.5 -10t-16.5 -4q-16 0 -28 14.5t-12 39.5q0 2 1 8.5t2.5 14.5t3.5 16t5 13q0 1 2.5 1h5.5t3.5 -9t1 -20t4 -20t13.5 -9q12 0 19.5 12t12.5 27.5t7 28.5t3 14q1 2 9 2q3 0 4.5 -8t4 -17.5t7 -17.5t14.5 -8t15.5 11.5t8.5 25t4 25.5t1 13 q1 2 5 4.5t7 2.5q2 0 3.5 -5t2.5 -12t2 -14.5t1 -12.5z" />
<glyph unicode="&#x64e;&#x654;" d="M138 753q0 -1 -1.5 -5.5t-4 -9.5l-5 -10t-4.5 -7q-3 -3 -9 -6t-12 -7l-94 -49q-12 -6 -17 -9t-8 -3t-3 4q0 2 1 6t3 8.5l4 9t4 6.5t5.5 4l10.5 6l97 51q8 4 17 9.5t12 5.5q4 0 4 -4zM133 566q0 -1 -1 -5.5t-3.5 -9t-6 -9t-8.5 -6.5l-9 -3t-14 -5t-18 -7t-20 -7 q-24 -9 -36 -14q-10 -6 -14 -6t-4 3q0 2 1.5 6t3 7.5t3.5 7.5t3 5t4.5 3.5l7 5t7 3.5t5.5 2q-4 1 -8.5 4t-8.5 7t-7 9.5t-3 12.5q0 6 3 13t8 14t10.5 14t11.5 12q9 9 16 14.5t12 7.5t9.5 2.5t8.5 0.5q11 0 16 -8.5t5 -18.5q0 -2 -1 -7t-3.5 -10t-4.5 -8t-4 -3t-5.5 1.5 t-8.5 3.5t-10.5 3.5t-9.5 1.5q-8 0 -16 -5.5t-8 -11.5q0 -1 5.5 -5t13.5 -9t17 -8.5t16 -4.5q6 1 13 3t13 3t10.5 2t5.5 2q1 0 2 -0.5t1 -2.5z" />
<glyph unicode="&#x64f;&#x654;" d="M132 565q0 -1 -1 -5.5t-3.5 -9t-6 -9t-8.5 -6.5l-9 -3t-14 -5t-18 -7t-20 -7q-24 -9 -36 -14q-10 -6 -14 -6t-4 3q0 2 1.5 6t3 7.5t3.5 7.5t3 5t4.5 3.5l7 5t7 3.5t5.5 2q-4 1 -8.5 4t-8.5 7t-7 9.5t-3 12.5q0 6 3 13t8 14t10.5 14t11.5 12q9 9 16 14.5t12 7.5t9.5 2.5 t8.5 0.5q11 0 16 -8.5t5 -18.5q0 -2 -1 -7t-3.5 -10t-4.5 -8t-4 -3t-5.5 1.5t-8.5 3.5t-10.5 3.5t-9.5 1.5q-8 0 -16 -5.5t-8 -11.5q0 -1 5.5 -5t13.5 -9t17 -8.5t16 -4.5q6 1 13 3t13 3t10.5 2t5.5 2q1 0 2 -0.5t1 -2.5zM86 851q10 0 16.5 -5t9.5 -12.5t4 -14.5t1 -11 q0 -13 -4 -26.5t-11 -27.5q7 -5 13.5 -9t9.5 -6q2 -1 2 -4q0 -4 -2 -10t-4 -11.5t-5 -9.5t-4 -4q-3 0 -12.5 4.5t-20.5 12.5q-10 -13 -21 -24t-22 -19.5t-20.5 -13t-17.5 -4.5t-16 2t-14 5q31 17 53.5 35.5t37.5 34.5q-11 10 -18.5 20.5t-7.5 20.5t4.5 23.5t12 25.5t17 20 t19.5 8zM59 802q0 -7 7 -15.5t17 -16.5q4 10 4 17q0 10 -7 16t-14 6q-7 -1 -7 -7z" />
<glyph unicode="&#x651;&#x670;" d="M84 679q0 -5 -3.5 -12t-6.5 -7q-1 0 -2.5 3.5t-3 7.5l-3 8t-2.5 6q-11 26 -28.5 46t-34.5 34q-1 0 -4 8t-6 17t-5 17.5t-2 11.5q0 5 0.5 7t5.5 2q2 0 7.5 -2t13 -6.5t14.5 -10t13 -12.5q12 -15 20.5 -33t14.5 -36t9 -31.5t3 -17.5zM164 610q0 -16 -2.5 -31.5t-8.5 -27.5 t-15 -20t-22 -8q-10 0 -18 2.5t-15 8.5q-5 -8 -10.5 -16t-11.5 -14t-13.5 -10t-16.5 -4q-16 0 -28 14.5t-12 39.5q0 2 1 8.5t2.5 14.5t3.5 16t5 13q0 1 2.5 1h5.5t3.5 -9t1 -20t4 -20t13.5 -9q12 0 19.5 12t12.5 27.5t7 28.5t3 14q1 2 9 2q3 0 4.5 -8t4 -17.5t7 -17.5 t14.5 -8t15.5 11.5t8.5 25t4 25.5t1 13q1 2 5 4.5t7 2.5q2 0 3.5 -5t2.5 -12t2 -14.5t1 -12.5z" />
<glyph unicode="&#xfedf;&#xfbe9;&#xfee2;" horiz-adv-x="1091" d="M831 -5l9 82q57 0 80 11t26.5 39t1.5 78l-19 509h81l20 -500q3 -71 -9.5 -120t-56 -74t-133.5 -25zM683 129q0 -37 -8.5 -62t-23 -40t-34.5 -21t-43 -6h-18q-9 0 -14.5 2.5t-8 7t-3.5 10t-1 11.5t1 11t3.5 9.5t8 7t14.5 2.5h18q21 0 37.5 3.5t27.5 8.5q10 5 15.5 11.5 t5.5 9.5t-5 13t-11 21.5t-11 21t-5 11.5q0 3 4.5 12.5t10.5 19t11.5 18t6.5 10.5q11 -24 16.5 -46.5t5.5 -45.5zM77 -393q-21 77 -36 150.5t-23 131.5t-8 86q0 74 24 135t62 107.5t82 79t85.5 49t70.5 16.5q25 0 44 -11t37 -43t38 -94q19 -57 36 -86.5t37 -40t46 -10.5 q21 0 30.5 -11.5t9.5 -27.5t-14 -29.5t-36 -13.5q-35 0 -60.5 11.5t-45.5 31.5q-19 -29 -46 -42.5t-58 -13.5q-37 0 -77.5 17.5t-77.5 51.5t-64 82q-25 -38 -33 -81.5t-8 -76.5q0 -28 6 -71.5t15.5 -92.5t21 -97.5t21.5 -87.5zM360 64q26 0 39 16t3 47q-23 73 -41.5 109.5 t-40.5 36.5t-61.5 -19.5t-71.5 -56.5q22 -45 53.5 -75t63 -44t56.5 -14z" />
<glyph unicode="&#xfedf;&#xfb51;" horiz-adv-x="503" d="M151 661q-22 0 -52.5 2t-57.5 5.5t-41 5.5l7 51q9 -1 23 -3t31 -3q14 30 34.5 60t48 50.5t64.5 20.5q32 0 60.5 -20t28.5 -67q0 -24 -12 -47.5t-43.5 -39t-90.5 -15.5zM204 796q-25 0 -48 -23t-42 -59q21 -1 37 -1q57 0 74.5 13t17.5 32q0 20 -12 29t-27 9zM393 536 q0 22 -3 53t-7 62t-8 53l86 10q3 -20 6.5 -52.5t5.5 -64.5t2 -53q0 -63 -11.5 -122.5t-37.5 -115.5q47 -49 69 -90t22 -81q0 -29 -14 -60.5t-51 -53t-107 -21.5h-230v81q150 107 214 213q-56 50 -131.5 107t-157.5 116l47 66q89 -66 158 -119.5t119 -98.5q15 40 22 82.5 t7 88.5zM234 82h126q51 0 67 18.5t16 42.5q0 18 -14.5 42t-40.5 52q-28 -42 -66.5 -81t-87.5 -74z" />
<glyph unicode="&#xfee0;&#xfb51;" horiz-adv-x="635" d="M151 661q-22 0 -52.5 2t-57.5 5.5t-41 5.5l7 51q9 -1 23 -3t31 -3q14 30 34.5 60t48 50.5t64.5 20.5q32 0 60.5 -20t28.5 -67q0 -24 -12 -47.5t-43.5 -39t-90.5 -15.5zM204 796q-25 0 -48 -23t-42 -59q21 -1 37 -1q57 0 74.5 13t17.5 32q0 20 -12 29t-27 9zM142 -5 q-27 0 -54.5 4.5t-38.5 6.5l11 79q90 -12 164.5 2.5t118.5 72.5q-39 64 -117 155.5t-186 188.5l54 57q106 -100 175 -181t111 -141q12 43 14 98l-14 377h82l20 -515q2 -49 9.5 -75.5t34 -36.5t83.5 -10q21 0 30.5 -11.5t9.5 -27.5t-14 -29.5t-36 -13.5q-70 0 -111 13.5 t-60 42t-25 73.5q-31 -55 -76 -83t-93.5 -37t-91.5 -9z" />
<glyph unicode="&#x620;" horiz-adv-x="175" d="M121 129q0 -37 -8.5 -62t-23 -40t-34.5 -21t-43 -6h-18q-9 0 -14.5 2.5t-8 7t-3.5 10t-1 11.5t1 11t3.5 9.5t8 7t14.5 2.5h18q21 0 37.5 3.5t27.5 8.5q10 5 15.5 11.5t5.5 9.5t-5 13t-11 21.5t-11 21t-5 11.5q0 3 4.5 12.5t10.5 19t11.5 18t6.5 10.5q11 -24 16.5 -46.5 t5.5 -45.5zM136 -121q0 -16 -5 -29.5t-14.5 -23.5t-23 -16t-28.5 -6q-22 0 -34.5 16t-12.5 51q0 15 5 28t14 23t21.5 16t27.5 6q10 0 19.5 -6.5t16.5 -16t10.5 -21t3.5 -21.5zM110 -135q0 6 -5 13t-11.5 13t-15 9.5t-15.5 3.5q-12 0 -19.5 -9t-7.5 -20q0 -12 12.5 -18.5 t27.5 -6.5q4 0 10 1t11 3.5t9 5t4 5.5z" />
<glyph unicode="&#x620;" horiz-adv-x="179" d="M213 31q0 -6 -1 -11.5t-3.5 -10t-8 -7t-14.5 -2.5h-19q-14 0 -23 4.5t-17 12.5q-5 6 -11.5 16t-10.5 19q-9 -10 -17.5 -19.5t-19.5 -16.5t-24.5 -11.5t-31.5 -4.5h-18q-9 0 -14.5 2.5t-8 7t-3.5 10t-1 11.5t1 11t3.5 9.5t8 7t14.5 2.5h18q22 0 38 4.5t27.5 12t19 15.5 t12.5 15.5t8.5 12t5.5 4.5q3 0 4 -8.5t5 -18.5q2 -6 5 -12.5t7 -12t10 -9t13 -3.5h19q9 0 14.5 -2.5t8 -7t3.5 -9.5t1 -11zM155 -113q0 -16 -5 -29.5t-14.5 -23.5t-23 -16t-28.5 -6q-22 0 -34.5 16t-12.5 51q0 15 5 28t14 23t21.5 16t27.5 6q10 0 19.5 -6.5t16.5 -16 t10.5 -21t3.5 -21.5zM129 -127q0 6 -5 13t-11.5 13t-15 9.5t-15.5 3.5q-12 0 -19.5 -9t-7.5 -20q0 -12 12.5 -18.5t27.5 -6.5q4 0 10 1t11 3.5t9 5t4 5.5z" />
<glyph unicode="&#x620;" horiz-adv-x="350" d="M386 31q0 -6 -0.5 -11.5t-3.5 -10t-8 -7t-15 -2.5h-42q-14 0 -29.5 -1t-28.5 -5q-17 -5 -27 -15t-10 -21q0 -6 3.5 -9t9 -5t13.5 -3.5t18 -2.5q11 -2 25 -6t26.5 -11.5t21 -18t8.5 -25.5q0 -19 -9.5 -35t-26.5 -31q-12 -10 -34.5 -23.5t-49 -25t-54.5 -19t-50 -7.5 q-18 0 -39 7.5t-38.5 18t-29 20t-11.5 12.5q0 1 1.5 3.5t2.5 2.5q3 0 12.5 -1t21.5 -2.5t26 -2.5t25 -1q25 0 52 5t52.5 12t48.5 16t40.5 18t27.5 16.5t10 11.5q0 11 -15.5 16.5t-47.5 6.5q-14 0 -29 1.5t-27.5 5.5t-20 11.5t-7.5 20.5q0 12 6 25t12 23q39 61 95 75 q11 3 20 3.5t21 0.5h27q9 0 14.5 -2.5t8.5 -7t3.5 -9.5t0.5 -11z" />
<glyph unicode="&#x622;" horiz-adv-x="176" arabic-form="final" d="M210 31q0 -6 -1 -11.5t-3.5 -10t-8 -7t-14.5 -2.5h-18q-16 0 -31 3t-27 12.5t-20 25.5t-10 42l-4.5 45t-5.5 52.5t-6 56.5t-6 56q-3 22 -6 43.5t-5 39.5t-3.5 32t-1.5 23q0 2 4 11t9.5 18t10 16.5t6.5 7.5q1 0 2.5 -2t1.5 -8q2 -27 5.5 -64t7 -77.5t7.5 -81.5t7.5 -74.5 t7 -57t6.5 -30.5q4 -9 9.5 -15t12.5 -9t14.5 -3.5t14.5 -0.5h18q9 0 14.5 -2.5t8 -7t3.5 -9.5t1 -11zM244 607q0 -7 -10.5 -14.5t-28 -15t-38.5 -14t-42 -12t-40 -8.5t-31 -3q-13 0 -28.5 0.5t-30.5 1.5l-32 2q-4 0 -6 -5.5t-3 -11.5t-2.5 -11.5t-6.5 -5.5q-6 0 -12.5 6 t-11.5 14t-8 16.5t-3 14.5q0 12 5 19.5t12.5 11.5t16.5 5.5t17 1.5q6 0 16.5 -1t24 -2t29 -2t30.5 -1q42 0 72.5 4.5t51.5 9t33 8.5t16 4q10 0 10 -12z" />
<glyph unicode="&#x623;" horiz-adv-x="176" arabic-form="final" d="M210 31q0 -6 -1 -11.5t-3.5 -10t-8 -7t-14.5 -2.5h-18q-16 0 -31 3t-27 12.5t-20 25.5t-10 42l-4.5 45t-5.5 52.5t-6 56.5t-6 56q-3 22 -6 43.5t-5 39.5t-3.5 32t-1.5 23q0 2 4 11t9.5 18t10 16.5t6.5 7.5q1 0 2.5 -2t1.5 -8q2 -27 5.5 -64t7 -77.5t7.5 -81.5t7.5 -74.5 t7 -57t6.5 -30.5q4 -9 9.5 -15t12.5 -9t14.5 -3.5t14.5 -0.5h18q9 0 14.5 -2.5t8 -7t3.5 -9.5t1 -11zM134 606q0 -1 -1 -5.5t-3.5 -9t-6 -9t-8.5 -6.5l-9 -3t-14 -5t-18 -7t-20 -7q-24 -9 -36 -14q-10 -6 -14 -6t-4 3q0 2 1.5 6t3 7.5t3.5 7.5t3 5t4.5 3.5l7 5t7 3.5t5.5 2 q-4 1 -8.5 4t-8.5 7t-7 9.5t-3 12.5q0 6 3 13t8 14t10.5 14t11.5 12q9 9 16 14.5t12 7.5t9.5 2.5t8.5 0.5q11 0 16 -8.5t5 -18.5q0 -2 -1 -7t-3.5 -10t-4.5 -8t-4 -3t-5.5 1.5t-8.5 3.5t-10.5 3.5t-9.5 1.5q-8 0 -16 -5.5t-8 -11.5q0 -1 5.5 -5t13.5 -9t17 -8.5t16 -4.5 q6 1 13 3t13 3t10.5 2t5.5 2q1 0 2 -0.5t1 -2.5z" />
<glyph unicode="&#x625;" horiz-adv-x="176" arabic-form="final" d="M210 31q0 -6 -1 -11.5t-3.5 -10t-8 -7t-14.5 -2.5h-18q-16 0 -31 3t-27 12.5t-20 25.5t-10 42l-4.5 45t-5.5 52.5t-6 56.5t-6 56q-3 22 -6 43.5t-5 39.5t-3.5 32t-1.5 23q0 2 4 11t9.5 18t10 16.5t6.5 7.5q1 0 2.5 -2t1.5 -8q2 -27 5.5 -64t7 -77.5t7.5 -81.5t7.5 -74.5 t7 -57t6.5 -30.5q4 -9 9.5 -15t12.5 -9t14.5 -3.5t14.5 -0.5h18q9 0 14.5 -2.5t8 -7t3.5 -9.5t1 -11zM178 -132q0 -1 -1 -5.5t-3.5 -9t-6 -9t-8.5 -6.5l-9 -3t-14 -5t-18 -7t-20 -7q-24 -9 -36 -14q-10 -6 -14 -6t-4 3q0 2 1.5 6t3 7.5t3.5 7.5t3 5t4.5 3.5l7 5t7 3.5t5.5 2 q-4 1 -8.5 4t-8.5 7t-7 9.5t-3 12.5q0 6 3 13t8 14t10.5 14t11.5 12q9 9 16 14.5t12 7.5t9.5 2.5t8.5 0.5q11 0 16 -8.5t5 -18.5q0 -2 -1 -7t-3.5 -10t-4.5 -8t-4 -3t-5.5 1.5t-8.5 3.5t-10.5 3.5t-9.5 1.5q-8 0 -16 -5.5t-8 -11.5q0 -1 5.5 -5t13.5 -9t17 -8.5t16 -4.5 q6 1 13 3t13 3t10.5 2t5.5 2q1 0 2 -0.5t1 -2.5z" />
<glyph unicode="&#x627;" horiz-adv-x="176" arabic-form="final" d="M210 31q0 -6 -1 -11.5t-3.5 -10t-8 -7t-14.5 -2.5h-18q-16 0 -31 3t-27 12.5t-20 25.5t-10 42l-4.5 45t-5.5 52.5t-6 56.5t-6 56q-3 22 -6 43.5t-5 39.5t-3.5 32t-1.5 23q0 2 4 11t9.5 18t10 16.5t6.5 7.5q1 0 2.5 -2t1.5 -8q2 -27 5.5 -64t7 -77.5t7.5 -81.5t7.5 -74.5 t7 -57t6.5 -30.5q4 -9 9.5 -15t12.5 -9t14.5 -3.5t14.5 -0.5h18q9 0 14.5 -2.5t8 -7t3.5 -9.5t1 -11z" />
<glyph unicode="&#x628;" horiz-adv-x="175" arabic-form="initial" d="M121 129q0 -37 -8.5 -62t-23 -40t-34.5 -21t-43 -6h-18q-9 0 -14.5 2.5t-8 7t-3.5 10t-1 11.5t1 11t3.5 9.5t8 7t14.5 2.5h18q21 0 37.5 3.5t27.5 8.5q10 5 15.5 11.5t5.5 9.5t-5 13t-11 21.5t-11 21t-5 11.5q0 3 4.5 12.5t10.5 19t11.5 18t6.5 10.5q11 -24 16.5 -46.5 t5.5 -45.5zM97 -81q0 -2 -4.5 -9.5t-10 -16t-11.5 -15.5t-8 -7q-1 0 -8 4.5t-15 10t-14.5 11t-6.5 7.5t5 9.5t10.5 16t11 15.5t6.5 7q2 0 9.5 -5t15 -10.5t14 -11t6.5 -6.5z" />
<glyph unicode="&#x628;" horiz-adv-x="179" arabic-form="medial" d="M213 31q0 -6 -1 -11.5t-3.5 -10t-8 -7t-14.5 -2.5h-19q-14 0 -23 4.5t-17 12.5q-5 6 -11.5 16t-10.5 19q-9 -10 -17.5 -19.5t-19.5 -16.5t-24.5 -11.5t-31.5 -4.5h-18q-9 0 -14.5 2.5t-8 7t-3.5 10t-1 11.5t1 11t3.5 9.5t8 7t14.5 2.5h18q22 0 38 4.5t27.5 12t19 15.5 t12.5 15.5t8.5 12t5.5 4.5q3 0 4 -8.5t5 -18.5q2 -6 5 -12.5t7 -12t10 -9t13 -3.5h19q9 0 14.5 -2.5t8 -7t3.5 -9.5t1 -11zM129 -81q0 -2 -4.5 -9.5t-10 -16t-11.5 -15.5t-8 -7q-1 0 -8 4.5t-15 10t-14.5 11t-6.5 7.5t5 9.5t10.5 16t11 15.5t6.5 7q2 0 9.5 -5t15 -10.5 t14 -11t6.5 -6.5z" />
<glyph unicode="&#x628;" horiz-adv-x="672" arabic-form="final" d="M706 31q0 -6 -0.5 -11.5t-3 -10t-7 -7t-12.5 -2.5h-20q-16 0 -28 1t-22 6t-18.5 13.5t-15.5 24.5q-16 -19 -48 -34t-76 -26.5t-98 -18t-114 -6.5q-43 0 -80 8t-64.5 24t-43.5 41t-16 60q0 19 5 38t11.5 35t13 25.5t8.5 9.5q1 0 4 -1.5t3 -4.5q0 -2 -3 -8t-6.5 -14.5 t-6.5 -18.5t-3 -20q0 -25 15 -45t42.5 -33.5t66 -21t86.5 -7.5q41 0 83.5 3t81 9.5t70 17t50.5 25.5q10 7 13.5 14.5t7.5 7.5q1 0 2 -3.5t3.5 -9t6 -10.5t8.5 -9t12 -6t15.5 -3t17 -1.5t17.5 -0.5h20q8 0 12.5 -2.5t7 -7t3 -9.5t0.5 -11zM323 -121q0 -2 -4.5 -9.5t-10 -16 t-11.5 -15.5t-8 -7q-1 0 -8 4.5t-15 10t-14.5 11t-6.5 7.5t5 9.5t10.5 16t11 15.5t6.5 7q2 0 9.5 -5t15 -10.5t14 -11t6.5 -6.5z" />
<glyph unicode="&#x629;" horiz-adv-x="270" arabic-form="final" d="M303 31q0 -6 -1 -11.5t-3.5 -10t-8 -7t-14.5 -2.5h-18q-19 0 -31.5 3.5t-22 14.5t-16.5 30.5t-15 52.5q-7 -7 -15 -14.5t-16.5 -14t-18.5 -11t-23 -4.5q-6 0 -18 2.5t-24 6.5t-21 10t-9 14q0 6 5 17.5t12 24.5t16.5 26t18.5 23q16 18 34.5 30.5t36.5 19.5q0 4 -0.5 9 t-0.5 9v6.5t1 6.5q4 18 10 29.5t11 11.5l1 -5q1 -6 2.5 -15.5t3.5 -22t4 -26.5q3 -22 7.5 -45.5t8.5 -44t6.5 -35t4.5 -17.5q3 -8 5.5 -13.5t7 -9.5t13 -6t22.5 -2h18q9 0 14.5 -2.5t8 -7t3.5 -9.5t1 -11zM168 133q-2 14 -5 31.5t-7 32.5q-19 -5 -33 -15t-23 -19.5t-14 -17 t-5 -9.5q0 -1 8 -3t18.5 -4t20.5 -3t13 -1q5 0 13.5 2t13.5 6zM229 408q0 -2 -4.5 -9.5t-10 -16t-10.5 -15.5t-7 -7q-1 0 -7.5 4.5t-14.5 10.5q-9 6 -20 15q-2 2 -4 2q-1 0 -3 -2q-7 -11 -13 -19q-5 -7 -10 -13t-6 -6t-8.5 4.5t-15 10.5t-14 11.5t-6.5 6.5q0 2 4.5 9.5 t10.5 16t11 15.5t6 7q2 0 8.5 -5t13.5 -10q8 -6 18 -15q3 -3 4 -3t4 4q7 10 14 19q5 7 10 13t6 6t8.5 -5t15 -11t14 -11.5t6.5 -6.5z" />
<glyph unicode="&#x62a;" horiz-adv-x="175" arabic-form="initial" d="M121 129q0 -37 -8.5 -62t-23 -40t-34.5 -21t-43 -6h-18q-9 0 -14.5 2.5t-8 7t-3.5 10t-1 11.5t1 11t3.5 9.5t8 7t14.5 2.5h18q21 0 37.5 3.5t27.5 8.5q10 5 15.5 11.5t5.5 9.5t-5 13t-11 21.5t-11 21t-5 11.5q0 3 4.5 12.5t10.5 19t11.5 18t6.5 10.5q11 -24 16.5 -46.5 t5.5 -45.5zM159 326q0 -2 -4.5 -9.5t-10 -16t-10.5 -15.5t-7 -7q-1 0 -7.5 4.5t-14.5 10.5q-9 6 -20 15q-2 2 -4 2q-1 0 -3 -2q-7 -11 -13 -19q-5 -7 -10 -13t-6 -6t-8.5 4.5t-15 10.5t-14 11.5t-6.5 6.5q0 2 4.5 9.5t10.5 16t11 15.5t6 7q2 0 8.5 -5t13.5 -10q8 -6 18 -15 q3 -3 4 -3t4 4q7 10 14 19q5 7 10 13t6 6t8.5 -5t15 -11t14 -11.5t6.5 -6.5z" />
<glyph unicode="&#x62a;" horiz-adv-x="179" arabic-form="medial" d="M213 31q0 -6 -1 -11.5t-3.5 -10t-8 -7t-14.5 -2.5h-19q-14 0 -23 4.5t-17 12.5q-5 6 -11.5 16t-10.5 19q-9 -10 -17.5 -19.5t-19.5 -16.5t-24.5 -11.5t-31.5 -4.5h-18q-9 0 -14.5 2.5t-8 7t-3.5 10t-1 11.5t1 11t3.5 9.5t8 7t14.5 2.5h18q22 0 38 4.5t27.5 12t19 15.5 t12.5 15.5t8.5 12t5.5 4.5q3 0 4 -8.5t5 -18.5q2 -6 5 -12.5t7 -12t10 -9t13 -3.5h19q9 0 14.5 -2.5t8 -7t3.5 -9.5t1 -11zM167 230q0 -2 -4.5 -9.5t-10 -16t-10.5 -15.5t-7 -7q-1 0 -7.5 4.5t-14.5 10.5q-9 6 -20 15q-2 2 -4 2q-1 0 -3 -2q-7 -11 -13 -19q-5 -7 -10 -13 t-6 -6t-8.5 4.5t-15 10.5t-14 11.5t-6.5 6.5q0 2 4.5 9.5t10.5 16t11 15.5t6 7q2 0 8.5 -5t13.5 -10q8 -6 18 -15q3 -3 4 -3t4 4q7 10 14 19q5 7 10 13t6 6t8.5 -5t15 -11t14 -11.5t6.5 -6.5z" />
<glyph unicode="&#x62a;" horiz-adv-x="672" arabic-form="final" d="M706 31q0 -6 -0.5 -11.5t-3 -10t-7 -7t-12.5 -2.5h-20q-16 0 -28 1t-22 6t-18.5 13.5t-15.5 24.5q-16 -19 -48 -34t-76 -26.5t-98 -18t-114 -6.5q-43 0 -80 8t-64.5 24t-43.5 41t-16 60q0 19 5 38t11.5 35t13 25.5t8.5 9.5q1 0 4 -1.5t3 -4.5q0 -2 -3 -8t-6.5 -14.5 t-6.5 -18.5t-3 -20q0 -25 15 -45t42.5 -33.5t66 -21t86.5 -7.5q41 0 83.5 3t81 9.5t70 17t50.5 25.5q10 7 13.5 14.5t7.5 7.5q1 0 2 -3.5t3.5 -9t6 -10.5t8.5 -9t12 -6t15.5 -3t17 -1.5t17.5 -0.5h20q8 0 12.5 -2.5t7 -7t3 -9.5t0.5 -11zM394 227q0 -2 -4.5 -9.5t-10 -16 t-10.5 -15.5t-7 -7q-1 0 -7.5 4.5t-14.5 10.5q-9 6 -20 15q-2 2 -4 2q-1 0 -3 -2q-7 -11 -13 -19q-5 -7 -10 -13t-6 -6t-8.5 4.5t-15 10.5t-14 11.5t-6.5 6.5q0 2 4.5 9.5t10.5 16t11 15.5t6 7q2 0 8.5 -5t13.5 -10q8 -6 18 -15q3 -3 4 -3t4 4q7 10 14 19q5 7 10 13t6 6 t8.5 -5t15 -11t14 -11.5t6.5 -6.5z" />
<glyph unicode="&#x62b;" horiz-adv-x="175" arabic-form="initial" d="M121 129q0 -37 -8.5 -62t-23 -40t-34.5 -21t-43 -6h-18q-9 0 -14.5 2.5t-8 7t-3.5 10t-1 11.5t1 11t3.5 9.5t8 7t14.5 2.5h18q21 0 37.5 3.5t27.5 8.5q10 5 15.5 11.5t5.5 9.5t-5 13t-11 21.5t-11 21t-5 11.5q0 3 4.5 12.5t10.5 19t11.5 18t6.5 10.5q11 -24 16.5 -46.5 t5.5 -45.5zM109 413q0 -2 -4 -10t-9.5 -16.5t-11 -15.5t-7.5 -7q-1 0 -8 5t-15 10.5t-14.5 11.5t-6.5 8t4.5 9.5t10.5 15.5t11 14.5t6 6.5q2 0 9.5 -4.5t15 -10.5t13.5 -11t6 -6zM159 328q0 -2 -4.5 -10t-9.5 -16.5t-10.5 -15.5t-7.5 -7q-1 0 -7.5 5t-13.5 11q-9 6 -20 15 q-2 2 -4 2q-1 0 -3 -3q-8 -11 -14 -19q-5 -7 -9.5 -13t-6.5 -6q-1 0 -8 4.5t-15 10.5t-14.5 11.5t-6.5 7.5q0 1 5 8.5t10.5 16t10.5 15.5t6 7q2 0 9 -5l14 -10q8 -6 17 -15q3 -2 5 -2q1 0 4 3q7 10 13 19q5 7 10 12.5t6 5.5t8.5 -4.5t15 -10.5t14 -11t6.5 -6z" />
<glyph unicode="&#x62b;" horiz-adv-x="179" arabic-form="medial" d="M213 31q0 -6 -1 -11.5t-3.5 -10t-8 -7t-14.5 -2.5h-19q-14 0 -23 4.5t-17 12.5q-5 6 -11.5 16t-10.5 19q-9 -10 -17.5 -19.5t-19.5 -16.5t-24.5 -11.5t-31.5 -4.5h-18q-9 0 -14.5 2.5t-8 7t-3.5 10t-1 11.5t1 11t3.5 9.5t8 7t14.5 2.5h18q22 0 38 4.5t27.5 12t19 15.5 t12.5 15.5t8.5 12t5.5 4.5q3 0 4 -8.5t5 -18.5q2 -6 5 -12.5t7 -12t10 -9t13 -3.5h19q9 0 14.5 -2.5t8 -7t3.5 -9.5t1 -11zM117 316q0 -2 -4 -10t-9.5 -16.5t-11 -15.5t-7.5 -7q-1 0 -8 5t-15 10.5t-14.5 11.5t-6.5 8t4.5 9.5t10.5 15.5t11 14.5t6 6.5q2 0 9.5 -4.5 t15 -10.5t13.5 -11t6 -6zM167 231q0 -2 -4.5 -10t-9.5 -16.5t-10.5 -15.5t-7.5 -7q-1 0 -7.5 5t-13.5 11q-9 6 -20 15q-2 2 -4 2q-1 0 -3 -3q-8 -11 -14 -19q-5 -7 -9.5 -13t-6.5 -6q-1 0 -8 4.5t-15 10.5t-14.5 11.5t-6.5 7.5q0 1 5 8.5t10.5 16t10.5 15.5t6 7q2 0 9 -5 l14 -10q8 -6 17 -15q3 -2 5 -2q1 0 4 3q7 10 13 19q5 7 10 12.5t6 5.5t8.5 -4.5t15 -10.5t14 -11t6.5 -6z" />
<glyph unicode="&#x62b;" horiz-adv-x="672" arabic-form="final" d="M706 31q0 -6 -0.5 -11.5t-3 -10t-7 -7t-12.5 -2.5h-20q-16 0 -28 1t-22 6t-18.5 13.5t-15.5 24.5q-16 -19 -48 -34t-76 -26.5t-98 -18t-114 -6.5q-43 0 -80 8t-64.5 24t-43.5 41t-16 60q0 19 5 38t11.5 35t13 25.5t8.5 9.5q1 0 4 -1.5t3 -4.5q0 -2 -3 -8t-6.5 -14.5 t-6.5 -18.5t-3 -20q0 -25 15 -45t42.5 -33.5t66 -21t86.5 -7.5q41 0 83.5 3t81 9.5t70 17t50.5 25.5q10 7 13.5 14.5t7.5 7.5q1 0 2 -3.5t3.5 -9t6 -10.5t8.5 -9t12 -6t15.5 -3t17 -1.5t17.5 -0.5h20q8 0 12.5 -2.5t7 -7t3 -9.5t0.5 -11zM344 313q0 -2 -4 -10t-9.5 -16.5 t-11 -15.5t-7.5 -7q-1 0 -8 5t-15 10.5t-14.5 11.5t-6.5 8t4.5 9.5t10.5 15.5t11 14.5t6 6.5q2 0 9.5 -4.5t15 -10.5t13.5 -11t6 -6zM394 228q0 -2 -4.5 -10t-9.5 -16.5t-10.5 -15.5t-7.5 -7q-1 0 -7.5 5t-13.5 11q-9 6 -20 15q-2 2 -4 2q-1 0 -3 -3q-8 -11 -14 -19 q-5 -7 -9.5 -13t-6.5 -6q-1 0 -8 4.5t-15 10.5t-14.5 11.5t-6.5 7.5q0 1 5 8.5t10.5 16t10.5 15.5t6 7q2 0 9 -5l14 -10q8 -6 17 -15q3 -2 5 -2q1 0 4 3q7 10 13 19q5 7 10 12.5t6 5.5t8.5 -4.5t15 -10.5t14 -11t6.5 -6z" />
<glyph unicode="&#x62c;" horiz-adv-x="477" arabic-form="initial" d="M437 147q0 -1 -1.5 -9t-4.5 -16.5t-5.5 -15.5t-3.5 -7q-15 0 -33 0.5t-35 1t-31.5 0.5h-22.5q-19 0 -36 -3.5t-33 -8.5t-29.5 -11.5t-25.5 -12.5q-20 -10 -40 -21.5t-40.5 -21t-41 -16t-42.5 -6.5h-18q-9 0 -14.5 2.5t-8 7t-3.5 10t-1 11.5t1 11t3.5 9.5t8 7t14.5 2.5h18 q19 0 35.5 1.5t32 4.5t31 8t32.5 12q19 8 40.5 16t41.5 14q-17 5 -32.5 12t-31.5 13t-32 10.5t-32 4.5q-11 0 -21 -2t-18.5 -4t-14 -4t-7.5 -2q-3 0 -3 4q0 5 3.5 13t9 17t13 17t15.5 14q11 8 22 10t28 2q13 0 29 -5.5t33 -12.5t33.5 -15t30.5 -14q26 -10 60 -16.5t72 -8.5 q23 -1 39 -1.5t16 -1.5zM254 -81q0 -2 -4.5 -9.5t-10 -16t-11.5 -15.5t-8 -7q-1 0 -8 4.5t-15 10t-14.5 11t-6.5 7.5t5 9.5t10.5 16t11 15.5t6.5 7q2 0 9.5 -5t15 -10.5t14 -11t6.5 -6.5z" />
<glyph unicode="&#x62c;" horiz-adv-x="509" arabic-form="medial" d="M543 31q0 -6 -0.5 -11.5t-3.5 -10t-8.5 -7t-14.5 -2.5h-18q-61 0 -97 4t-53 16q-11 7 -15.5 17.5t-4.5 25.5q0 10 2.5 19t4.5 20h-9q-29 0 -52.5 -4t-44.5 -11t-39.5 -16t-34.5 -18q-18 -10 -34.5 -19.5t-33.5 -17t-35.5 -12t-39.5 -4.5h-18q-9 0 -14.5 2.5t-8 7t-3.5 10 t-1 11.5t1 11t3.5 9.5t8 7t14.5 2.5h18q24 0 44.5 2.5t38 7.5t33 10.5t29.5 11.5q18 7 34.5 13.5t35.5 10.5q-10 4 -25.5 11t-34.5 13.5t-39.5 11.5t-39.5 5q-10 0 -19 -1.5t-15.5 -4t-10.5 -4t-5 -1.5q-4 0 -4 3q0 11 4.5 20.5t11.5 17.5t15.5 14.5t16.5 11.5 q10 5 21.5 6.5t18.5 1.5q15 0 35.5 -7t42 -17t43 -19t38.5 -13q20 -4 36 -7t34.5 -4.5t39.5 -1.5h50q1 0 2 -1.5t1 -2.5t-1.5 -6.5t-3.5 -12.5l-4 -14t-3 -10t-19 -4t-52 -1q0 -1 -0.5 -3t-0.5 -3q0 -7 5.5 -12.5t13.5 -9.5q11 -4 26 -7t31.5 -3.5t32.5 -1t29 -0.5h18 q9 0 14.5 -2.5t8.5 -7t3.5 -9.5t0.5 -11zM294 -81q0 -2 -4.5 -9.5t-10 -16t-11.5 -15.5t-8 -7q-1 0 -8 4.5t-15 10t-14.5 11t-6.5 7.5t5 9.5t10.5 16t11 15.5t6.5 7q2 0 9.5 -5t15 -10.5t14 -11t6.5 -6.5z" />
<glyph unicode="&#x62c;" horiz-adv-x="479" arabic-form="final" d="M512 31q0 -6 -1 -11.5t-3.5 -10t-8 -7t-14.5 -2.5h-49q-37 0 -65 1t-47 8q-20 6 -28 18.5t-8 23.5q0 6 1 13.5t2 15.5t2.5 16t2.5 13q-32 -6 -63 -18t-58.5 -28.5t-50 -36.5t-39 -43t-25.5 -48t-9 -51q0 -40 16.5 -74t51.5 -58t90 -37.5t132 -13.5q24 0 49 2t46.5 4 t35.5 4t17 2q2 0 2.5 -2.5t0.5 -3.5t-9 -5t-23.5 -9.5t-32 -12.5t-34.5 -12.5t-30 -10t-19 -6.5q-9 -2 -18 -3.5t-17 -2.5t-15 -1h-11q-29 0 -60 3.5t-60 11.5t-54.5 22.5t-45 36.5t-30.5 52.5t-11 71.5q0 40 12 79.5t35 75.5t56 66.5t75 52.5q-21 4 -45 6.5t-40 2.5 q-7 0 -16 -1t-18 -2.5t-16.5 -2.5t-12.5 -1q-3 0 -3 4q0 2 1 8.5t2.5 13t3 12.5t1.5 8q1 3 10.5 8t22.5 9t27 6.5t25 2.5q20 0 40.5 -2.5t42 -6t44 -6.5t44.5 -3h18t22.5 0.5t23.5 1t21 0.5t15 -0.5t6 -1.5t-4 -9t-9 -16t-8.5 -15t-4.5 -7q-17 -3 -36.5 -6t-36.5 -6 q0 -16 6.5 -26t23 -16t45 -8t72.5 -2h18q9 0 14.5 -2.5t8 -7t3.5 -9.5t1 -11zM296 -105q0 -2 -4.5 -9.5t-10 -16t-11.5 -15.5t-8 -7q-1 0 -8 4.5t-15 10t-14.5 11t-6.5 7.5t5 9.5t10.5 16t11 15.5t6.5 7q2 0 9.5 -5t15 -10.5t14 -11t6.5 -6.5z" />
<glyph unicode="&#x62d;" horiz-adv-x="477" arabic-form="initial" d="M437 147q0 -1 -1.5 -9t-4.5 -16.5t-5.5 -15.5t-3.5 -7q-15 0 -33 0.5t-35 1t-31.5 0.5h-22.5q-19 0 -36 -3.5t-33 -8.5t-29.5 -11.5t-25.5 -12.5q-20 -10 -40 -21.5t-40.5 -21t-41 -16t-42.5 -6.5h-18q-9 0 -14.5 2.5t-8 7t-3.5 10t-1 11.5t1 11t3.5 9.5t8 7t14.5 2.5h18 q19 0 35.5 1.5t32 4.5t31 8t32.5 12q19 8 40.5 16t41.5 14q-17 5 -32.5 12t-31.5 13t-32 10.5t-32 4.5q-11 0 -21 -2t-18.5 -4t-14 -4t-7.5 -2q-3 0 -3 4q0 5 3.5 13t9 17t13 17t15.5 14q11 8 22 10t28 2q13 0 29 -5.5t33 -12.5t33.5 -15t30.5 -14q26 -10 60 -16.5t72 -8.5 q23 -1 39 -1.5t16 -1.5z" />
<glyph unicode="&#x62d;" horiz-adv-x="509" arabic-form="medial" d="M543 31q0 -6 -0.5 -11.5t-3.5 -10t-8.5 -7t-14.5 -2.5h-18q-61 0 -97 4t-53 16q-11 7 -15.5 17.5t-4.5 25.5q0 10 2.5 19t4.5 20h-9q-29 0 -52.5 -4t-44.5 -11t-39.5 -16t-34.5 -18q-18 -10 -34.5 -19.5t-33.5 -17t-35.5 -12t-39.5 -4.5h-18q-9 0 -14.5 2.5t-8 7t-3.5 10 t-1 11.5t1 11t3.5 9.5t8 7t14.5 2.5h18q24 0 44.5 2.5t38 7.5t33 10.5t29.5 11.5q18 7 34.5 13.5t35.5 10.5q-10 4 -25.5 11t-34.5 13.5t-39.5 11.5t-39.5 5q-10 0 -19 -1.5t-15.5 -4t-10.5 -4t-5 -1.5q-4 0 -4 3q0 11 4.5 20.5t11.5 17.5t15.5 14.5t16.5 11.5 q10 5 21.5 6.5t18.5 1.5q15 0 35.5 -7t42 -17t43 -19t38.5 -13q20 -4 36 -7t34.5 -4.5t39.5 -1.5h50q1 0 2 -1.5t1 -2.5t-1.5 -6.5t-3.5 -12.5l-4 -14t-3 -10t-19 -4t-52 -1q0 -1 -0.5 -3t-0.5 -3q0 -7 5.5 -12.5t13.5 -9.5q11 -4 26 -7t31.5 -3.5t32.5 -1t29 -0.5h18 q9 0 14.5 -2.5t8.5 -7t3.5 -9.5t0.5 -11z" />
<glyph unicode="&#x62d;" horiz-adv-x="479" arabic-form="final" d="M512 31q0 -6 -1 -11.5t-3.5 -10t-8 -7t-14.5 -2.5h-49q-37 0 -65 1t-47 8q-20 6 -28 18.5t-8 23.5q0 6 1 13.5t2 15.5t2.5 16t2.5 13q-32 -6 -63 -18t-58.5 -28.5t-50 -36.5t-39 -43t-25.5 -48t-9 -51q0 -40 16.5 -74t51.5 -58t90 -37.5t132 -13.5q24 0 49 2t46.5 4 t35.5 4t17 2q2 0 2.5 -2.5t0.5 -3.5t-9 -5t-23.5 -9.5t-32 -12.5t-34.5 -12.5t-30 -10t-19 -6.5q-9 -2 -18 -3.5t-17 -2.5t-15 -1h-11q-29 0 -60 3.5t-60 11.5t-54.5 22.5t-45 36.5t-30.5 52.5t-11 71.5q0 40 12 79.5t35 75.5t56 66.5t75 52.5q-21 4 -45 6.5t-40 2.5 q-7 0 -16 -1t-18 -2.5t-16.5 -2.5t-12.5 -1q-3 0 -3 4q0 2 1 8.5t2.5 13t3 12.5t1.5 8q1 3 10.5 8t22.5 9t27 6.5t25 2.5q20 0 40.5 -2.5t42 -6t44 -6.5t44.5 -3h18t22.5 0.5t23.5 1t21 0.5t15 -0.5t6 -1.5t-4 -9t-9 -16t-8.5 -15t-4.5 -7q-17 -3 -36.5 -6t-36.5 -6 q0 -16 6.5 -26t23 -16t45 -8t72.5 -2h18q9 0 14.5 -2.5t8 -7t3.5 -9.5t1 -11z" />
<glyph unicode="&#x62e;" horiz-adv-x="477" arabic-form="initial" d="M437 147q0 -1 -1.5 -9t-4.5 -16.5t-5.5 -15.5t-3.5 -7q-15 0 -33 0.5t-35 1t-31.5 0.5h-22.5q-19 0 -36 -3.5t-33 -8.5t-29.5 -11.5t-25.5 -12.5q-20 -10 -40 -21.5t-40.5 -21t-41 -16t-42.5 -6.5h-18q-9 0 -14.5 2.5t-8 7t-3.5 10t-1 11.5t1 11t3.5 9.5t8 7t14.5 2.5h18 q19 0 35.5 1.5t32 4.5t31 8t32.5 12q19 8 40.5 16t41.5 14q-17 5 -32.5 12t-31.5 13t-32 10.5t-32 4.5q-11 0 -21 -2t-18.5 -4t-14 -4t-7.5 -2q-3 0 -3 4q0 5 3.5 13t9 17t13 17t15.5 14q11 8 22 10t28 2q13 0 29 -5.5t33 -12.5t33.5 -15t30.5 -14q26 -10 60 -16.5t72 -8.5 q23 -1 39 -1.5t16 -1.5zM254 319q0 -2 -4.5 -9.5t-10 -16t-11.5 -15.5t-8 -7q-1 0 -8 4.5t-15 10t-14.5 11t-6.5 7.5t5 9.5t10.5 16t11 15.5t6.5 7q2 0 9.5 -5t15 -10.5t14 -11t6.5 -6.5z" />
<glyph unicode="&#x62e;" horiz-adv-x="509" arabic-form="medial" d="M543 31q0 -6 -0.5 -11.5t-3.5 -10t-8.5 -7t-14.5 -2.5h-18q-61 0 -97 4t-53 16q-11 7 -15.5 17.5t-4.5 25.5q0 10 2.5 19t4.5 20h-9q-29 0 -52.5 -4t-44.5 -11t-39.5 -16t-34.5 -18q-18 -10 -34.5 -19.5t-33.5 -17t-35.5 -12t-39.5 -4.5h-18q-9 0 -14.5 2.5t-8 7t-3.5 10 t-1 11.5t1 11t3.5 9.5t8 7t14.5 2.5h18q24 0 44.5 2.5t38 7.5t33 10.5t29.5 11.5q18 7 34.5 13.5t35.5 10.5q-10 4 -25.5 11t-34.5 13.5t-39.5 11.5t-39.5 5q-10 0 -19 -1.5t-15.5 -4t-10.5 -4t-5 -1.5q-4 0 -4 3q0 11 4.5 20.5t11.5 17.5t15.5 14.5t16.5 11.5 q10 5 21.5 6.5t18.5 1.5q15 0 35.5 -7t42 -17t43 -19t38.5 -13q20 -4 36 -7t34.5 -4.5t39.5 -1.5h50q1 0 2 -1.5t1 -2.5t-1.5 -6.5t-3.5 -12.5l-4 -14t-3 -10t-19 -4t-52 -1q0 -1 -0.5 -3t-0.5 -3q0 -7 5.5 -12.5t13.5 -9.5q11 -4 26 -7t31.5 -3.5t32.5 -1t29 -0.5h18 q9 0 14.5 -2.5t8.5 -7t3.5 -9.5t0.5 -11zM294 319q0 -2 -4.5 -9.5t-10 -16t-11.5 -15.5t-8 -7q-1 0 -8 4.5t-15 10t-14.5 11t-6.5 7.5t5 9.5t10.5 16t11 15.5t6.5 7q2 0 9.5 -5t15 -10.5t14 -11t6.5 -6.5z" />
<glyph unicode="&#x62e;" horiz-adv-x="479" arabic-form="final" d="M512 31q0 -6 -1 -11.5t-3.5 -10t-8 -7t-14.5 -2.5h-49q-37 0 -65 1t-47 8q-20 6 -28 18.5t-8 23.5q0 6 1 13.5t2 15.5t2.5 16t2.5 13q-32 -6 -63 -18t-58.5 -28.5t-50 -36.5t-39 -43t-25.5 -48t-9 -51q0 -40 16.5 -74t51.5 -58t90 -37.5t132 -13.5q24 0 49 2t46.5 4 t35.5 4t17 2q2 0 2.5 -2.5t0.5 -3.5t-9 -5t-23.5 -9.5t-32 -12.5t-34.5 -12.5t-30 -10t-19 -6.5q-9 -2 -18 -3.5t-17 -2.5t-15 -1h-11q-29 0 -60 3.5t-60 11.5t-54.5 22.5t-45 36.5t-30.5 52.5t-11 71.5q0 40 12 79.5t35 75.5t56 66.5t75 52.5q-21 4 -45 6.5t-40 2.5 q-7 0 -16 -1t-18 -2.5t-16.5 -2.5t-12.5 -1q-3 0 -3 4q0 2 1 8.5t2.5 13t3 12.5t1.5 8q1 3 10.5 8t22.5 9t27 6.5t25 2.5q20 0 40.5 -2.5t42 -6t44 -6.5t44.5 -3h18t22.5 0.5t23.5 1t21 0.5t15 -0.5t6 -1.5t-4 -9t-9 -16t-8.5 -15t-4.5 -7q-17 -3 -36.5 -6t-36.5 -6 q0 -16 6.5 -26t23 -16t45 -8t72.5 -2h18q9 0 14.5 -2.5t8 -7t3.5 -9.5t1 -11zM296 287q0 -2 -4.5 -9.5t-10 -16t-11.5 -15.5t-8 -7q-1 0 -8 4.5t-15 10t-14.5 11t-6.5 7.5t5 9.5t10.5 16t11 15.5t6.5 7q2 0 9.5 -5t15 -10.5t14 -11t6.5 -6.5z" />
<glyph unicode="&#x62f;" horiz-adv-x="372" arabic-form="final" d="M405 31q0 -6 -1 -11.5t-3.5 -10t-8 -7t-14.5 -2.5h-18q-25 0 -40.5 6t-26 19t-18.5 32t-18 46q-13 -22 -24 -38t-27 -27q-22 -16 -48.5 -22.5t-53.5 -6.5q-13 0 -26 2t-24 7.5t-17.5 14.5t-6.5 21q0 3 3 13.5t6.5 21.5t7.5 19.5t6 8.5q1 0 2.5 -2t2.5 -5t1.5 -6t1.5 -5 q1 -4 5 -9t11 -9t19 -6.5t29 -2.5q22 0 44 2t39.5 10t28 23.5t10.5 43.5q-2 23 -6.5 45t-9.5 42.5t-8.5 38.5t-3.5 33q0 4 4 13.5t8.5 20t8.5 17.5t5 7q2 0 3 -2.5t2 -10.5q3 -24 7.5 -51t9.5 -54t10 -52.5t10.5 -47.5t10.5 -38t10 -24q8 -14 22.5 -20.5t29.5 -6.5h18 q9 0 14.5 -2.5t8 -7t3.5 -9.5t1 -11z" />
<glyph unicode="&#x630;" horiz-adv-x="372" arabic-form="final" d="M405 31q0 -6 -1 -11.5t-3.5 -10t-8 -7t-14.5 -2.5h-18q-25 0 -40.5 6t-26 19t-18.5 32t-18 46q-13 -22 -24 -38t-27 -27q-22 -16 -48.5 -22.5t-53.5 -6.5q-13 0 -26 2t-24 7.5t-17.5 14.5t-6.5 21q0 3 3 13.5t6.5 21.5t7.5 19.5t6 8.5q1 0 2.5 -2t2.5 -5t1.5 -6t1.5 -5 q1 -4 5 -9t11 -9t19 -6.5t29 -2.5q22 0 44 2t39.5 10t28 23.5t10.5 43.5q-2 23 -6.5 45t-9.5 42.5t-8.5 38.5t-3.5 33q0 4 4 13.5t8.5 20t8.5 17.5t5 7q2 0 3 -2.5t2 -10.5q3 -24 7.5 -51t9.5 -54t10 -52.5t10.5 -47.5t10.5 -38t10 -24q8 -14 22.5 -20.5t29.5 -6.5h18 q9 0 14.5 -2.5t8 -7t3.5 -9.5t1 -11zM268 470q0 -2 -4.5 -9.5t-10 -16t-11.5 -15.5t-8 -7q-1 0 -8 4.5t-15 10t-14.5 11t-6.5 7.5t5 9.5t10.5 16t11 15.5t6.5 7q2 0 9.5 -5t15 -10.5t14 -11t6.5 -6.5z" />
<glyph unicode="&#x631;" horiz-adv-x="237" arabic-form="final" d="M271 31q0 -6 -0.5 -11.5t-3.5 -10t-8.5 -7t-14.5 -2.5h-18q-4 0 -7.5 0.5t-7.5 0.5q-2 -21 -6 -41t-11 -40t-18 -40t-28 -40q-19 -22 -42.5 -36.5t-57.5 -14.5q-14 0 -31 2.5t-31.5 6.5t-24.5 8t-10 6q0 3 3 5t5 2l3 -1q3 0 7 -0.5l8 -1t8 -0.5q14 0 31.5 4t37 12.5 t40 22t39.5 33.5q16 16 26.5 31.5t16.5 28.5t8.5 22t2.5 12t-5.5 11.5t-12.5 18t-12.5 17.5t-5.5 10q0 1 3 8.5t7 16.5t8 17t5 11h3q10 -11 21.5 -21t27.5 -10h18q9 0 14.5 -2.5t8.5 -7t3.5 -9.5t0.5 -11z" />
<glyph unicode="&#x632;" horiz-adv-x="237" arabic-form="final" d="M271 31q0 -6 -0.5 -11.5t-3.5 -10t-8.5 -7t-14.5 -2.5h-18q-4 0 -7.5 0.5t-7.5 0.5q-2 -21 -6 -41t-11 -40t-18 -40t-28 -40q-19 -22 -42.5 -36.5t-57.5 -14.5q-14 0 -31 2.5t-31.5 6.5t-24.5 8t-10 6q0 3 3 5t5 2l3 -1q3 0 7 -0.5l8 -1t8 -0.5q14 0 31.5 4t37 12.5 t40 22t39.5 33.5q16 16 26.5 31.5t16.5 28.5t8.5 22t2.5 12t-5.5 11.5t-12.5 18t-12.5 17.5t-5.5 10q0 1 3 8.5t7 16.5t8 17t5 11h3q10 -11 21.5 -21t27.5 -10h18q9 0 14.5 -2.5t8.5 -7t3.5 -9.5t0.5 -11zM209 191q0 -2 -4.5 -9.5t-10 -16t-11.5 -15.5t-8 -7q-1 0 -8 4.5 t-15 10t-14.5 11t-6.5 7.5t5 9.5t10.5 16t11 15.5t6.5 7q2 0 9.5 -5t15 -10.5t14 -11t6.5 -6.5z" />
<glyph unicode="&#x633;" horiz-adv-x="448" arabic-form="initial" d="M398 144q0 -15 -4 -33.5t-11.5 -35.5t-19.5 -28.5t-29 -11.5q-14 0 -24.5 4.5t-18.5 11.5t-14 13.5t-10 10.5q-7 -13 -16.5 -25.5t-21 -23.5t-25.5 -18t-29 -7q-23 0 -41.5 11.5t-31.5 38.5q-19 -28 -41.5 -39.5t-48.5 -11.5h-18q-9 0 -14.5 2.5t-8 7t-3.5 10t-1 11.5 t1 11t3.5 9.5t8 7t14.5 2.5h18q21 0 37 5t27 12t18.5 15.5t12.5 15.5t8.5 12t6.5 5t4 -4.5t2.5 -11.5t3.5 -15.5t8 -15.5t16 -11.5t26 -4.5q18 0 34.5 7t29 19t20.5 28.5t10 35.5q0 4 2.5 7t4.5 3q1 0 3 -3t3 -9q2 -16 10.5 -26t19.5 -15.5t21.5 -8t17.5 -2.5q1 0 3.5 1.5 t5.5 3t5 3.5t2 4q0 3 -3.5 7t-7.5 7.5t-7.5 6t-3.5 3.5t2.5 10.5t5.5 20t6.5 19t5.5 8.5q4 0 8.5 -5.5t8.5 -13.5t6.5 -16.5t2.5 -13.5z" />
<glyph unicode="&#x633;" horiz-adv-x="497" arabic-form="medial" d="M530 31q0 -6 -1 -11.5t-3.5 -10t-8 -7t-14.5 -2.5h-18q-26 0 -46 21.5t-34 55.5q-7 -14 -14 -25.5t-16 -20.5t-20 -14t-25 -5q-13 0 -22 3.5t-15.5 9.5t-10.5 13.5t-7 16.5q-19 -26 -41.5 -40t-58.5 -14q-23 0 -41.5 11.5t-31.5 38.5q-19 -28 -41.5 -39.5t-48.5 -11.5 h-18q-9 0 -14.5 2.5t-8 7t-3.5 10t-1 11.5t1 11t3.5 9.5t8 7t14.5 2.5h18q21 0 37 5t27 12t18.5 15.5t12.5 15.5t8.5 12t6.5 5t4 -4.5t2.5 -11.5t3.5 -15.5t8 -15.5t16 -11.5t26 -4.5q22 0 38.5 5.5t28.5 13.5t20.5 17.5t14 17.5t8.5 13.5t6 5.5q1 0 4 -3t3 -10t1.5 -14 t6 -13t12 -10t19.5 -4q18 0 29 9t17.5 19.5t10 19t6.5 8.5t4.5 -2.5t3.5 -8.5q2 -8 7.5 -19.5t14 -21.5t20.5 -17.5t28 -7.5h18q9 0 14.5 -2.5t8 -7t3.5 -9.5t1 -11z" />
<glyph unicode="&#x633;" horiz-adv-x="687" arabic-form="final" d="M720 31q0 -6 -1 -11.5t-3.5 -10t-8 -7t-14.5 -2.5h-18q-25 0 -43.5 20t-35.5 58q-7 -14 -14 -25.5t-15.5 -20.5t-19.5 -14t-25 -5q-17 0 -26.5 5t-15.5 12t-9 14t-5 12q-9 -13 -17 -22t-17 -15t-21 -8.5t-30 -2.5q0 -14 -0.5 -24t-1.5 -19.5t-2.5 -19t-4.5 -22.5 q-10 -51 -35.5 -83t-58.5 -50t-70 -24t-71 -6q-29 0 -51.5 9.5t-38.5 26t-24.5 38.5t-8.5 46q0 23 8 47t17.5 43.5t18.5 31.5t12 12q2 0 4 -1.5t2 -3.5q0 -3 -5.5 -12t-11.5 -22.5t-11.5 -30.5t-5.5 -37q0 -24 12 -40.5t30 -26t38.5 -14t35.5 -4.5q21 0 43 2t42.5 6.5 t38 10.5t29.5 14q26 17 35 41t9 60q0 23 -4 39t-9 27t-9 17.5t-4 10.5q0 3 3.5 11t8 17.5t8.5 16.5t6 7q6 -8 10.5 -17.5t7.5 -20.5q22 0 38.5 5.5t28.5 13.5t20.5 17.5t14 17.5t8.5 13.5t6 5.5q2 0 4.5 -3t2.5 -10t1.5 -14t6 -13t12 -10t19.5 -4q18 0 29 9t17.5 19.5t10 19 t6.5 8.5t4.5 -2.5t3.5 -8.5q2 -7 7.5 -18t14 -22t20 -19t27.5 -8h18q9 0 14.5 -2.5t8 -7t3.5 -9.5t1 -11z" />
<glyph unicode="&#x634;" horiz-adv-x="448" arabic-form="initial" d="M398 144q0 -15 -4 -33.5t-11.5 -35.5t-19.5 -28.5t-29 -11.5q-14 0 -24.5 4.5t-18.5 11.5t-14 13.5t-10 10.5q-7 -13 -16.5 -25.5t-21 -23.5t-25.5 -18t-29 -7q-23 0 -41.5 11.5t-31.5 38.5q-19 -28 -41.5 -39.5t-48.5 -11.5h-18q-9 0 -14.5 2.5t-8 7t-3.5 10t-1 11.5 t1 11t3.5 9.5t8 7t14.5 2.5h18q21 0 37 5t27 12t18.5 15.5t12.5 15.5t8.5 12t6.5 5t4 -4.5t2.5 -11.5t3.5 -15.5t8 -15.5t16 -11.5t26 -4.5q18 0 34.5 7t29 19t20.5 28.5t10 35.5q0 4 2.5 7t4.5 3q1 0 3 -3t3 -9q2 -16 10.5 -26t19.5 -15.5t21.5 -8t17.5 -2.5q1 0 3.5 1.5 t5.5 3t5 3.5t2 4q0 3 -3.5 7t-7.5 7.5t-7.5 6t-3.5 3.5t2.5 10.5t5.5 20t6.5 19t5.5 8.5q4 0 8.5 -5.5t8.5 -13.5t6.5 -16.5t2.5 -13.5zM271 376q0 -2 -4 -10t-9.5 -16.5t-11 -15.5t-7.5 -7q-1 0 -8 5t-15 10.5t-14.5 11.5t-6.5 8t4.5 9.5t10.5 15.5t11 14.5t6 6.5 q2 0 9.5 -4.5t15 -10.5t13.5 -11t6 -6zM321 291q0 -2 -4.5 -10t-9.5 -16.5t-10.5 -15.5t-7.5 -7q-1 0 -7.5 5t-13.5 11q-9 6 -20 15q-2 2 -4 2q-1 0 -3 -3q-8 -11 -14 -19q-5 -7 -9.5 -13t-6.5 -6q-1 0 -8 4.5t-15 10.5t-14.5 11.5t-6.5 7.5q0 1 5 8.5t10.5 16t10.5 15.5 t6 7q2 0 9 -5l14 -10q8 -6 17 -15q3 -2 5 -2q1 0 4 3q7 10 13 19q5 7 10 12.5t6 5.5t8.5 -4.5t15 -10.5t14 -11t6.5 -6z" />
<glyph unicode="&#x634;" horiz-adv-x="497" arabic-form="medial" d="M530 31q0 -6 -1 -11.5t-3.5 -10t-8 -7t-14.5 -2.5h-18q-26 0 -46 21.5t-34 55.5q-7 -14 -14 -25.5t-16 -20.5t-20 -14t-25 -5q-13 0 -22 3.5t-15.5 9.5t-10.5 13.5t-7 16.5q-19 -26 -41.5 -40t-58.5 -14q-23 0 -41.5 11.5t-31.5 38.5q-19 -28 -41.5 -39.5t-48.5 -11.5 h-18q-9 0 -14.5 2.5t-8 7t-3.5 10t-1 11.5t1 11t3.5 9.5t8 7t14.5 2.5h18q21 0 37 5t27 12t18.5 15.5t12.5 15.5t8.5 12t6.5 5t4 -4.5t2.5 -11.5t3.5 -15.5t8 -15.5t16 -11.5t26 -4.5q22 0 38.5 5.5t28.5 13.5t20.5 17.5t14 17.5t8.5 13.5t6 5.5q1 0 4 -3t3 -10t1.5 -14 t6 -13t12 -10t19.5 -4q18 0 29 9t17.5 19.5t10 19t6.5 8.5t4.5 -2.5t3.5 -8.5q2 -8 7.5 -19.5t14 -21.5t20.5 -17.5t28 -7.5h18q9 0 14.5 -2.5t8 -7t3.5 -9.5t1 -11zM276 329q0 -2 -4 -10t-9.5 -16.5t-11 -15.5t-7.5 -7q-1 0 -8 5t-15 10.5t-14.5 11.5t-6.5 8t4.5 9.5 t10.5 15.5t11 14.5t6 6.5q2 0 9.5 -4.5t15 -10.5t13.5 -11t6 -6zM326 244q0 -2 -4.5 -10t-9.5 -16.5t-10.5 -15.5t-7.5 -7q-1 0 -7.5 5t-13.5 11q-9 6 -20 15q-2 2 -4 2q-1 0 -3 -3q-8 -11 -14 -19q-5 -7 -9.5 -13t-6.5 -6q-1 0 -8 4.5t-15 10.5t-14.5 11.5t-6.5 7.5 q0 1 5 8.5t10.5 16t10.5 15.5t6 7q2 0 9 -5l14 -10q8 -6 17 -15q3 -2 5 -2q1 0 4 3q7 10 13 19q5 7 10 12.5t6 5.5t8.5 -4.5t15 -10.5t14 -11t6.5 -6z" />
<glyph unicode="&#x634;" horiz-adv-x="687" arabic-form="final" d="M720 31q0 -6 -1 -11.5t-3.5 -10t-8 -7t-14.5 -2.5h-18q-25 0 -43.5 20t-35.5 58q-7 -14 -14 -25.5t-15.5 -20.5t-19.5 -14t-25 -5q-17 0 -26.5 5t-15.5 12t-9 14t-5 12q-9 -13 -17 -22t-17 -15t-21 -8.5t-30 -2.5q0 -14 -0.5 -24t-1.5 -19.5t-2.5 -19t-4.5 -22.5 q-10 -51 -35.5 -83t-58.5 -50t-70 -24t-71 -6q-29 0 -51.5 9.5t-38.5 26t-24.5 38.5t-8.5 46q0 23 8 47t17.5 43.5t18.5 31.5t12 12q2 0 4 -1.5t2 -3.5q0 -3 -5.5 -12t-11.5 -22.5t-11.5 -30.5t-5.5 -37q0 -24 12 -40.5t30 -26t38.5 -14t35.5 -4.5q21 0 43 2t42.5 6.5 t38 10.5t29.5 14q26 17 35 41t9 60q0 23 -4 39t-9 27t-9 17.5t-4 10.5q0 3 3.5 11t8 17.5t8.5 16.5t6 7q6 -8 10.5 -17.5t7.5 -20.5q22 0 38.5 5.5t28.5 13.5t20.5 17.5t14 17.5t8.5 13.5t6 5.5q2 0 4.5 -3t2.5 -10t1.5 -14t6 -13t12 -10t19.5 -4q18 0 29 9t17.5 19.5t10 19 t6.5 8.5t4.5 -2.5t3.5 -8.5q2 -7 7.5 -18t14 -22t20 -19t27.5 -8h18q9 0 14.5 -2.5t8 -7t3.5 -9.5t1 -11zM500 329q0 -2 -4 -10t-9.5 -16.5t-11 -15.5t-7.5 -7q-1 0 -8 5t-15 10.5t-14.5 11.5t-6.5 8t4.5 9.5t10.5 15.5t11 14.5t6 6.5q2 0 9.5 -4.5t15 -10.5t13.5 -11t6 -6z M550 244q0 -2 -4.5 -10t-9.5 -16.5t-10.5 -15.5t-7.5 -7q-1 0 -7.5 5t-13.5 11q-9 6 -20 15q-2 2 -4 2q-1 0 -3 -3q-8 -11 -14 -19q-5 -7 -9.5 -13t-6.5 -6q-1 0 -8 4.5t-15 10.5t-14.5 11.5t-6.5 7.5q0 1 5 8.5t10.5 16t10.5 15.5t6 7q2 0 9 -5l14 -10q8 -6 17 -15 q3 -2 5 -2q1 0 4 3q7 10 13 19q5 7 10 12.5t6 5.5t8.5 -4.5t15 -10.5t14 -11t6.5 -6z" />
<glyph unicode="&#x635;" horiz-adv-x="590" arabic-form="initial" d="M541 164q0 -30 -17 -54t-44 -41.5t-61 -30t-68.5 -20t-66.5 -11.5t-54 -4q-2 -4 -5.5 -13t-6.5 -19l-6 -20t-3 -16q-1 0 -3.5 2t-4.5 5.5t-3.5 7.5t-1.5 6t1.5 7.5t3.5 12.5t4.5 14t4.5 13q-19 0 -35 1t-30 6t-24.5 15.5t-18.5 29.5q-7 -11 -15.5 -21t-19.5 -17.5 t-24.5 -12t-30.5 -4.5h-18q-9 0 -14.5 2.5t-8 7t-3.5 10t-1 11.5t1 11t3.5 9.5t8 7t14.5 2.5h18q31 0 51 10.5t32.5 22.5t18.5 22.5t8 10.5q1 0 2.5 -3.5t3 -8t2.5 -10t2 -10.5q2 -12 11 -19t21 -10.5t26 -4.5t26 -1h20q18 26 45 57.5t59 59t66 46t68 18.5q18 0 31 -7.5 t21 -19t11.5 -25t3.5 -25.5zM505 135q0 6 -5 12t-14 12t-20.5 9.5t-25.5 3.5q-23 0 -48.5 -8.5t-49.5 -23t-45 -35t-35 -44.5q27 0 55.5 4t55.5 11t51 15t42 16t28.5 15.5t10.5 12.5z" />
<glyph unicode="&#x635;" horiz-adv-x="590" arabic-form="medial" d="M624 31q0 -6 -0.5 -11.5t-3.5 -10t-8.5 -7t-14.5 -2.5h-18h-115h-116h-58h-57q-5 -10 -9 -22t-7 -22.5l-5 -17.5l-3 -7q-2 0 -4 2.5t-4 6t-3 7.5t-1 6q0 1 1 6.5t3 12.5t4 14.5t4 13.5q-19 0 -35 1t-29.5 6.5t-24.5 16.5t-18 31q-7 -11 -15.5 -21t-19.5 -17.5t-24.5 -12 t-30.5 -4.5h-18q-9 0 -14.5 2.5t-8 7t-3.5 10t-1 11.5t1 11t3.5 9.5t8 7t14.5 2.5h18q31 0 51 10.5t32.5 22.5t18.5 22.5t8 10.5q1 0 2.5 -3.5t3 -8t2.5 -10t2 -10.5q2 -12 11 -19t21.5 -10.5t26 -4.5t25.5 -1h20q11 17 27 36.5t35.5 39.5t42 38.5t46 33t47.5 23t47 8.5 q15 0 26.5 -7.5t19.5 -18.5t12 -24t4 -24q0 -36 -24 -61.5t-67 -48.5q41 4 72.5 5t54.5 1h18q9 0 14.5 -2.5t8.5 -7t3.5 -9.5t0.5 -11zM505 133q0 7 -9 13t-20.5 10.5t-22.5 7t-14 2.5q-21 0 -44 -6t-46 -19t-44.5 -33t-39.5 -47q26 0 54 4t54.5 10t50.5 14t42 15.5 t28.5 15.5t10.5 13z" />
<glyph unicode="&#x635;" horiz-adv-x="796" arabic-form="final" d="M830 31q0 -6 -0.5 -11.5t-3.5 -10t-8.5 -7t-14.5 -2.5h-18q-57 0 -114.5 0.5t-115.5 0.5q-29 0 -58 -0.5t-57 -0.5q-5 -10 -9 -22t-7 -22.5l-5 -17.5t-3 -7q-2 0 -4 2.5t-4 6t-3.5 7.5t-1.5 6q0 1 1.5 6.5t4 12.5t5.5 15t5 14q-3 0 -8.5 0.5t-11.5 1.5t-11 2.5t-7 2.5 q0 -15 -0.5 -25t-1.5 -19t-2.5 -18.5t-4.5 -22.5q-10 -51 -35.5 -83t-58.5 -50t-70 -24t-71 -6q-29 0 -51.5 9.5t-38.5 26t-24.5 38.5t-8.5 46q0 23 8 47t17.5 43.5t18.5 31.5t12 12q2 0 4 -1.5t2 -3.5q0 -3 -5.5 -12t-11.5 -22.5t-11.5 -30.5t-5.5 -37q0 -24 12 -40.5 t30 -26t38.5 -14t35.5 -4.5q21 0 43 2t42.5 6.5t38 10.5t29.5 14q26 17 35 41t9 60q0 23 -4 39t-9 27t-9 17.5t-4 10.5q0 3 3.5 11t8 17.5t8.5 16.5t6 7q6 -8 10.5 -17.5t7.5 -20.5q9 -1 27 -2.5t43 -1.5q11 17 27 36.5t35.5 39.5t42 38.5t46 33t47.5 23t47 8.5 q15 0 26.5 -7.5t19.5 -18.5t12 -24t4 -24q0 -36 -24 -61.5t-68 -48.5q41 4 72.5 5t54.5 1h18q9 0 14.5 -2.5t8.5 -7t3.5 -9.5t0.5 -11zM712 133q0 7 -9 13t-20.5 10.5t-22.5 7t-14 2.5q-21 0 -44 -6t-46 -19t-44.5 -33t-39.5 -47q26 0 54 4t54.5 10t50.5 14t42 15.5 t28.5 15.5t10.5 13z" />
<glyph unicode="&#x636;" horiz-adv-x="590" arabic-form="initial" d="M541 164q0 -30 -17 -54t-44 -41.5t-61 -30t-68.5 -20t-66.5 -11.5t-54 -4q-2 -4 -5.5 -13t-6.5 -19l-6 -20t-3 -16q-1 0 -3.5 2t-4.5 5.5t-3.5 7.5t-1.5 6t1.5 7.5t3.5 12.5t4.5 14t4.5 13q-19 0 -35 1t-30 6t-24.5 15.5t-18.5 29.5q-7 -11 -15.5 -21t-19.5 -17.5 t-24.5 -12t-30.5 -4.5h-18q-9 0 -14.5 2.5t-8 7t-3.5 10t-1 11.5t1 11t3.5 9.5t8 7t14.5 2.5h18q31 0 51 10.5t32.5 22.5t18.5 22.5t8 10.5q1 0 2.5 -3.5t3 -8t2.5 -10t2 -10.5q2 -12 11 -19t21 -10.5t26 -4.5t26 -1h20q18 26 45 57.5t59 59t66 46t68 18.5q18 0 31 -7.5 t21 -19t11.5 -25t3.5 -25.5zM505 135q0 6 -5 12t-14 12t-20.5 9.5t-25.5 3.5q-23 0 -48.5 -8.5t-49.5 -23t-45 -35t-35 -44.5q27 0 55.5 4t55.5 11t51 15t42 16t28.5 15.5t10.5 12.5zM331 299q0 -2 -4.5 -9.5t-10 -16t-11.5 -15.5t-8 -7q-1 0 -8 4.5t-15 10t-14.5 11 t-6.5 7.5t5 9.5t10.5 16t11 15.5t6.5 7q2 0 9.5 -5t15 -10.5t14 -11t6.5 -6.5z" />
<glyph unicode="&#x636;" horiz-adv-x="590" arabic-form="medial" d="M624 31q0 -6 -0.5 -11.5t-3.5 -10t-8.5 -7t-14.5 -2.5h-18h-115h-116h-58h-57q-5 -10 -9 -22t-7 -22.5l-5 -17.5l-3 -7q-2 0 -4 2.5t-4 6t-3 7.5t-1 6q0 1 1 6.5t3 12.5t4 14.5t4 13.5q-19 0 -35 1t-29.5 6.5t-24.5 16.5t-18 31q-7 -11 -15.5 -21t-19.5 -17.5t-24.5 -12 t-30.5 -4.5h-18q-9 0 -14.5 2.5t-8 7t-3.5 10t-1 11.5t1 11t3.5 9.5t8 7t14.5 2.5h18q31 0 51 10.5t32.5 22.5t18.5 22.5t8 10.5q1 0 2.5 -3.5t3 -8t2.5 -10t2 -10.5q2 -12 11 -19t21.5 -10.5t26 -4.5t25.5 -1h20q11 17 27 36.5t35.5 39.5t42 38.5t46 33t47.5 23t47 8.5 q15 0 26.5 -7.5t19.5 -18.5t12 -24t4 -24q0 -36 -24 -61.5t-67 -48.5q41 4 72.5 5t54.5 1h18q9 0 14.5 -2.5t8.5 -7t3.5 -9.5t0.5 -11zM505 133q0 7 -9 13t-20.5 10.5t-22.5 7t-14 2.5q-21 0 -44 -6t-46 -19t-44.5 -33t-39.5 -47q26 0 54 4t54.5 10t50.5 14t42 15.5 t28.5 15.5t10.5 13zM351 311q0 -2 -4.5 -9.5t-10 -16t-11.5 -15.5t-8 -7q-1 0 -8 4.5t-15 10t-14.5 11t-6.5 7.5t5 9.5t10.5 16t11 15.5t6.5 7q2 0 9.5 -5t15 -10.5t14 -11t6.5 -6.5z" />
<glyph unicode="&#x636;" horiz-adv-x="796" arabic-form="final" d="M830 31q0 -6 -0.5 -11.5t-3.5 -10t-8.5 -7t-14.5 -2.5h-18q-57 0 -114.5 0.5t-115.5 0.5q-29 0 -58 -0.5t-57 -0.5q-5 -10 -9 -22t-7 -22.5l-5 -17.5t-3 -7q-2 0 -4 2.5t-4 6t-3.5 7.5t-1.5 6q0 1 1.5 6.5t4 12.5t5.5 15t5 14q-3 0 -8.5 0.5t-11.5 1.5t-11 2.5t-7 2.5 q0 -15 -0.5 -25t-1.5 -19t-2.5 -18.5t-4.5 -22.5q-10 -51 -35.5 -83t-58.5 -50t-70 -24t-71 -6q-29 0 -51.5 9.5t-38.5 26t-24.5 38.5t-8.5 46q0 23 8 47t17.5 43.5t18.5 31.5t12 12q2 0 4 -1.5t2 -3.5q0 -3 -5.5 -12t-11.5 -22.5t-11.5 -30.5t-5.5 -37q0 -24 12 -40.5 t30 -26t38.5 -14t35.5 -4.5q21 0 43 2t42.5 6.5t38 10.5t29.5 14q26 17 35 41t9 60q0 23 -4 39t-9 27t-9 17.5t-4 10.5q0 3 3.5 11t8 17.5t8.5 16.5t6 7q6 -8 10.5 -17.5t7.5 -20.5q9 -1 27 -2.5t43 -1.5q11 17 27 36.5t35.5 39.5t42 38.5t46 33t47.5 23t47 8.5 q15 0 26.5 -7.5t19.5 -18.5t12 -24t4 -24q0 -36 -24 -61.5t-68 -48.5q41 4 72.5 5t54.5 1h18q9 0 14.5 -2.5t8.5 -7t3.5 -9.5t0.5 -11zM712 133q0 7 -9 13t-20.5 10.5t-22.5 7t-14 2.5q-21 0 -44 -6t-46 -19t-44.5 -33t-39.5 -47q26 0 54 4t54.5 10t50.5 14t42 15.5 t28.5 15.5t10.5 13zM528 282q0 -2 -4.5 -9.5t-10 -16t-11.5 -15.5t-8 -7q-1 0 -8 4.5t-15 10t-14.5 11t-6.5 7.5t5 9.5t10.5 16t11 15.5t6.5 7q2 0 9.5 -5t15 -10.5t14 -11t6.5 -6.5z" />
<glyph unicode="&#x637;" horiz-adv-x="410" arabic-form="initial" d="M377 168q0 -14 -3.5 -28.5t-11.5 -28.5t-21 -27t-32 -23q-35 -19 -71 -30.5t-73.5 -18.5t-75.5 -9.5t-77 -2.5h-18q-9 0 -14.5 2.5t-8 7t-3.5 10t-1 11.5t1 11t3.5 9.5t8 7t14.5 2.5h18q13 0 21.5 0.5t15.5 1.5q11 6 20.5 13t13.5 14q7 22 9 47t2 48q0 28 -3 58t-7 59 t-9.5 55t-10 46.5t-7.5 35t-3 18.5q0 7 3 17t6.5 19.5t8 16.5t7.5 7q2 0 8.5 -8.5t14 -18.5t13 -19t5.5 -10q0 -2 -3.5 -6.5t-7.5 -10.5t-7.5 -14t-3.5 -17q0 -21 3 -39.5t7.5 -42t7.5 -55.5t3 -80q0 -7 -0.5 -18t-1.5 -22.5t-2.5 -22.5t-2.5 -18q18 18 41 40.5t49.5 42 t55 32.5t56.5 13q15 0 27 -6t20 -16.5t12 -24t4 -28.5zM339 135q0 14 -18 24.5t-48 10.5q-20 0 -40 -4.5t-41 -16.5t-44 -33t-48 -53q54 2 98 11.5t75.5 21.5t48.5 23t17 16z" />
<glyph unicode="&#x637;" horiz-adv-x="430" arabic-form="medial" d="M463 31q0 -6 -1 -11.5t-3.5 -10t-8 -7t-14.5 -2.5h-364q-3 -6 -7 -14.5t-7.5 -18.5t-6 -20t-3.5 -18q-4 3 -7 7q-2 3 -4.5 6t-2.5 7t5 19t11 32h-56q-9 0 -14.5 2.5t-8 7t-3.5 10t-1 11.5t1 11t3.5 9.5t8 7t14.5 2.5h18q19 0 33 0.5t23 3.5q10 3 16 12t9 30t4.5 41.5 t1.5 41.5q0 40 -6.5 80.5t-10.5 79.5q-1 13 -5 28.5t-7.5 30t-6 27.5t-2.5 22t2.5 19t6.5 19t8.5 14.5t8.5 5.5l38 -54q-4 -3 -8 -9t-7 -12.5t-5 -14.5t-2 -15q0 -17 3 -35t6.5 -42.5t6.5 -58t3 -80.5q0 -7 -0.5 -18t-2 -23t-3.5 -23.5t-4 -21.5q21 21 45.5 43.5t50.5 42 t53 32t51 12.5q16 0 29 -6.5t22 -17t14 -24t5 -28.5q0 -22 -8 -39t-21 -29.5t-28.5 -22t-30.5 -17.5q5 0 14.5 1t22 2t26 2t25.5 1h54q9 0 14.5 -2.5t8 -7t3.5 -9.5t1 -11zM344 133q0 4 -5 10t-14 11.5t-21.5 9t-28.5 3.5q-24 0 -47.5 -8t-45 -22t-41 -33.5t-36.5 -42.5 q46 0 89 8.5t76.5 20t53.5 23.5t20 20z" />
<glyph unicode="&#x637;" horiz-adv-x="533" arabic-form="final" d="M567 31q0 -6 -1 -11.5t-3.5 -10t-8 -7t-14.5 -2.5h-422q-17 0 -24 1t-15 4q-3 1 -13.5 9t-22 18t-20.5 18.5t-9 11.5q0 4 5 4q13 0 23.5 -1t20.5 -2.5t20.5 -2.5t23.5 -1q33 0 58.5 5.5t43.5 24.5q3 7 5.5 17t4 20t2.5 19t1 14q0 26 -0.5 46.5t-2.5 39t-4.5 36.5t-6.5 39 q-3 21 -7.5 41.5t-8 38t-6 30.5t-2.5 20q0 6 2.5 17t6.5 21.5t8.5 17.5t7.5 7q2 0 8.5 -8.5t13 -19t12 -19.5t5.5 -11q-8 -6 -15.5 -17.5t-7.5 -33.5q0 -9 3 -29t7 -44.5t7 -52t3 -50.5q0 -9 -0.5 -22.5t-1 -28.5t-2 -30t-2.5 -26q24 25 49 47t50 39t47.5 26.5t41.5 9.5 q18 0 31 -6t22 -16.5t13.5 -24t4.5 -28.5q0 -19 -7 -35.5t-19.5 -31.5t-30 -27t-38.5 -22q33 4 62 6.5t46 2.5h29q9 0 14.5 -2.5t8 -7t3.5 -9.5t1 -11zM462 138q0 6 -6.5 12.5t-16 11.5t-20.5 7.5t-21 2.5q-20 0 -42.5 -4.5t-45 -16.5t-45.5 -33t-44 -55q64 4 109.5 15 t75 24t43 23.5t13.5 12.5z" />
<glyph unicode="&#x638;" horiz-adv-x="410" arabic-form="initial" d="M377 168q0 -14 -3.5 -28.5t-11.5 -28.5t-21 -27t-32 -23q-35 -19 -71 -30.5t-73.5 -18.5t-75.5 -9.5t-77 -2.5h-18q-9 0 -14.5 2.5t-8 7t-3.5 10t-1 11.5t1 11t3.5 9.5t8 7t14.5 2.5h18q13 0 21.5 0.5t15.5 1.5q11 6 20.5 13t13.5 14q7 22 9 47t2 48q0 28 -3 58t-7 59 t-9.5 55t-10 46.5t-7.5 35t-3 18.5q0 7 3 17t6.5 19.5t8 16.5t7.5 7q2 0 8.5 -8.5t14 -18.5t13 -19t5.5 -10q0 -2 -3.5 -6.5t-7.5 -10.5t-7.5 -14t-3.5 -17q0 -21 3 -39.5t7.5 -42t7.5 -55.5t3 -80q0 -7 -0.5 -18t-1.5 -22.5t-2.5 -22.5t-2.5 -18q18 18 41 40.5t49.5 42 t55 32.5t56.5 13q15 0 27 -6t20 -16.5t12 -24t4 -28.5zM339 135q0 14 -18 24.5t-48 10.5q-20 0 -40 -4.5t-41 -16.5t-44 -33t-48 -53q54 2 98 11.5t75.5 21.5t48.5 23t17 16zM279 353q0 -2 -4.5 -9.5t-10 -16t-11.5 -15.5t-8 -7q-1 0 -8 4.5t-15 10t-14.5 11t-6.5 7.5t5 9.5 t10.5 16t11 15.5t6.5 7q2 0 9.5 -5t15 -10.5t14 -11t6.5 -6.5z" />
<glyph unicode="&#x638;" horiz-adv-x="430" arabic-form="medial" d="M463 31q0 -6 -1 -11.5t-3.5 -10t-8 -7t-14.5 -2.5h-364q-3 -6 -7 -14.5t-7.5 -18.5t-6 -20t-3.5 -18q-4 3 -7 7q-2 3 -4.5 6t-2.5 7t5 19t11 32h-56q-9 0 -14.5 2.5t-8 7t-3.5 10t-1 11.5t1 11t3.5 9.5t8 7t14.5 2.5h18q19 0 33 0.5t23 3.5q10 3 16 12t9 30t4.5 41.5 t1.5 41.5q0 40 -6.5 80.5t-10.5 79.5q-1 13 -5 28.5t-7.5 30t-6 27.5t-2.5 22t2.5 19t6.5 19t8.5 14.5t8.5 5.5l38 -54q-4 -3 -8 -9t-7 -12.5t-5 -14.5t-2 -15q0 -17 3 -35t6.5 -42.5t6.5 -58t3 -80.5q0 -7 -0.5 -18t-2 -23t-3.5 -23.5t-4 -21.5q21 21 45.5 43.5t50.5 42 t53 32t51 12.5q16 0 29 -6.5t22 -17t14 -24t5 -28.5q0 -22 -8 -39t-21 -29.5t-28.5 -22t-30.5 -17.5q5 0 14.5 1t22 2t26 2t25.5 1h54q9 0 14.5 -2.5t8 -7t3.5 -9.5t1 -11zM344 133q0 4 -5 10t-14 11.5t-21.5 9t-28.5 3.5q-24 0 -47.5 -8t-45 -22t-41 -33.5t-36.5 -42.5 q46 0 89 8.5t76.5 20t53.5 23.5t20 20zM282 345q0 -2 -4.5 -9.5t-10 -16t-11.5 -15.5t-8 -7q-1 0 -8 4.5t-15 10t-14.5 11t-6.5 7.5t5 9.5t10.5 16t11 15.5t6.5 7q2 0 9.5 -5t15 -10.5t14 -11t6.5 -6.5z" />
<glyph unicode="&#x638;" horiz-adv-x="533" arabic-form="final" d="M567 31q0 -6 -1 -11.5t-3.5 -10t-8 -7t-14.5 -2.5h-422q-17 0 -24 1t-15 4q-3 1 -13.5 9t-22 18t-20.5 18.5t-9 11.5q0 4 5 4q13 0 23.5 -1t20.5 -2.5t20.5 -2.5t23.5 -1q33 0 58.5 5.5t43.5 24.5q3 7 5.5 17t4 20t2.5 19t1 14q0 26 -0.5 46.5t-2.5 39t-4.5 36.5t-6.5 39 q-3 21 -7.5 41.5t-8 38t-6 30.5t-2.5 20q0 6 2.5 17t6.5 21.5t8.5 17.5t7.5 7q2 0 8.5 -8.5t13 -19t12 -19.5t5.5 -11q-8 -6 -15.5 -17.5t-7.5 -33.5q0 -9 3 -29t7 -44.5t7 -52t3 -50.5q0 -9 -0.5 -22.5t-1 -28.5t-2 -30t-2.5 -26q24 25 49 47t50 39t47.5 26.5t41.5 9.5 q18 0 31 -6t22 -16.5t13.5 -24t4.5 -28.5q0 -19 -7 -35.5t-19.5 -31.5t-30 -27t-38.5 -22q33 4 62 6.5t46 2.5h29q9 0 14.5 -2.5t8 -7t3.5 -9.5t1 -11zM462 138q0 6 -6.5 12.5t-16 11.5t-20.5 7.5t-21 2.5q-20 0 -42.5 -4.5t-45 -16.5t-45.5 -33t-44 -55q64 4 109.5 15 t75 24t43 23.5t13.5 12.5zM402 347q0 -2 -4.5 -9.5t-10 -16t-11.5 -15.5t-8 -7q-1 0 -8 4.5t-15 10t-14.5 11t-6.5 7.5t5 9.5t10.5 16t11 15.5t6.5 7q2 0 9.5 -5t15 -10.5t14 -11t6.5 -6.5z" />
<glyph unicode="&#x639;" horiz-adv-x="358" arabic-form="initial" d="M328 170q0 -1 -0.5 -4.5t-2 -8.5t-3 -10.5t-2.5 -11.5q-3 -15 -15 -19q-27 -11 -60.5 -25.5t-68.5 -30.5q-21 -9 -42.5 -19.5t-42 -19.5t-40 -15t-39.5 -6h-18q-9 0 -14.5 2.5t-8 7t-3.5 10t-1 11.5t1 11t3.5 9.5t8 7t14.5 2.5h18q19 0 34.5 5t35.5 15q-6 5 -13 11.5 t-12.5 13.5t-9 14.5t-3.5 16.5q0 20 7.5 39.5t20 38t28 34t32.5 26.5t33.5 14t29.5 3q4 0 11 -3t16 -8t18.5 -11t17 -12t12.5 -11.5t5 -9.5q0 -5 -5 -5q-1 0 -6.5 2t-13 4t-16.5 4t-17 2q-15 0 -37.5 -6t-43.5 -14q-16 -7 -25.5 -11.5t-15 -7.5t-7 -5.5t-1.5 -4.5 q0 -12 9 -24.5t23 -23t30.5 -17.5t29.5 -7q12 0 27 3.5t29.5 9.5t29.5 12.5t27 12.5t21 9.5t12 3.5t3 -4z" />
<glyph unicode="&#x639;" horiz-adv-x="288" arabic-form="medial" d="M321 31q0 -6 -1 -11.5t-3.5 -10t-8 -7t-14.5 -2.5h-18q-21 0 -41 9.5t-37.5 21.5t-31 24.5t-21.5 18.5q-14 -13 -29.5 -26t-32.5 -23.5t-35 -17.5t-36 -7h-18q-9 0 -14.5 2.5t-8 7t-3.5 10t-1 11.5t1 11t3.5 9.5t8 7t14.5 2.5h18q17 0 40.5 7.5t51.5 28.5 q-32 15 -48.5 23.5t-16.5 12.5q0 6 5.5 19t18.5 26t34.5 23t54.5 10q18 0 35 -5t30.5 -13.5t22 -19.5t8.5 -23q0 -14 -13.5 -27.5t-43.5 -26.5q24 -16 44 -25.5t41 -9.5h18q9 0 14.5 -2.5t8 -7t3.5 -9.5t1 -11z" />
<glyph unicode="&#x639;" horiz-adv-x="390" arabic-form="final" d="M479 -296q0 -1 -12.5 -6t-31 -11.5t-41 -13t-42.5 -12.5t-35 -10t-19 -4q-34 0 -67.5 2.5t-64 10.5t-57 22.5t-46 38t-30.5 57t-11 79.5q0 38 11.5 73.5t30.5 67t45 59.5t54 52q-7 6 -17.5 11.5t-20 10t-16 8t-6.5 5.5q0 6 6.5 18.5t19.5 25t31.5 22t42.5 9.5 q25 0 43.5 -7t30.5 -17t18 -19.5t6 -14.5q0 -6 -2.5 -11.5t-8 -12t-15 -13t-24.5 -14.5q13 -14 26 -23t28 -15t33 -8.5t40 -2.5h18q9 0 14.5 -2.5t8 -7t3.5 -9.5t1 -11t-1 -11.5t-3.5 -10t-8 -7t-14.5 -2.5h-18q-22 0 -40 1.5t-37.5 10t-42.5 26t-54 49.5 q-27 -16 -54.5 -36.5t-49.5 -46.5t-36 -56.5t-14 -63.5q0 -43 20 -76.5t57 -56t88.5 -34.5t114.5 -12q21 0 41.5 1t39.5 2.5t34.5 2.5t27.5 1q4 0 5 -2t1 -6z" />
<glyph unicode="&#x63a;" horiz-adv-x="358" arabic-form="initial" d="M328 170q0 -1 -0.5 -4.5t-2 -8.5t-3 -10.5t-2.5 -11.5q-3 -15 -15 -19q-27 -11 -60.5 -25.5t-68.5 -30.5q-21 -9 -42.5 -19.5t-42 -19.5t-40 -15t-39.5 -6h-18q-9 0 -14.5 2.5t-8 7t-3.5 10t-1 11.5t1 11t3.5 9.5t8 7t14.5 2.5h18q19 0 34.5 5t35.5 15q-6 5 -13 11.5 t-12.5 13.5t-9 14.5t-3.5 16.5q0 20 7.5 39.5t20 38t28 34t32.5 26.5t33.5 14t29.5 3q4 0 11 -3t16 -8t18.5 -11t17 -12t12.5 -11.5t5 -9.5q0 -5 -5 -5q-1 0 -6.5 2t-13 4t-16.5 4t-17 2q-15 0 -37.5 -6t-43.5 -14q-16 -7 -25.5 -11.5t-15 -7.5t-7 -5.5t-1.5 -4.5 q0 -12 9 -24.5t23 -23t30.5 -17.5t29.5 -7q12 0 27 3.5t29.5 9.5t29.5 12.5t27 12.5t21 9.5t12 3.5t3 -4zM200 389q0 -2 -4.5 -9.5t-10 -16t-11.5 -15.5t-8 -7q-1 0 -8 4.5t-15 10t-14.5 11t-6.5 7.5t5 9.5t10.5 16t11 15.5t6.5 7q2 0 9.5 -5t15 -10.5t14 -11t6.5 -6.5z" />
<glyph unicode="&#x63a;" horiz-adv-x="288" arabic-form="medial" d="M321 31q0 -6 -1 -11.5t-3.5 -10t-8 -7t-14.5 -2.5h-18q-21 0 -41 9.5t-37.5 21.5t-31 24.5t-21.5 18.5q-14 -13 -29.5 -26t-32.5 -23.5t-35 -17.5t-36 -7h-18q-9 0 -14.5 2.5t-8 7t-3.5 10t-1 11.5t1 11t3.5 9.5t8 7t14.5 2.5h18q17 0 40.5 7.5t51.5 28.5 q-32 15 -48.5 23.5t-16.5 12.5q0 6 5.5 19t18.5 26t34.5 23t54.5 10q18 0 35 -5t30.5 -13.5t22 -19.5t8.5 -23q0 -14 -13.5 -27.5t-43.5 -26.5q24 -16 44 -25.5t41 -9.5h18q9 0 14.5 -2.5t8 -7t3.5 -9.5t1 -11zM184 334q0 -2 -4.5 -9.5t-10 -16t-11.5 -15.5t-8 -7 q-1 0 -8 4.5t-15 10t-14.5 11t-6.5 7.5t5 9.5t10.5 16t11 15.5t6.5 7q2 0 9.5 -5t15 -10.5t14 -11t6.5 -6.5z" />
<glyph unicode="&#x63a;" horiz-adv-x="390" arabic-form="final" d="M479 -296q0 -1 -12.5 -6t-31 -11.5t-41 -13t-42.5 -12.5t-35 -10t-19 -4q-34 0 -67.5 2.5t-64 10.5t-57 22.5t-46 38t-30.5 57t-11 79.5q0 38 11.5 73.5t30.5 67t45 59.5t54 52q-7 6 -17.5 11.5t-20 10t-16 8t-6.5 5.5q0 6 6.5 18.5t19.5 25t31.5 22t42.5 9.5 q25 0 43.5 -7t30.5 -17t18 -19.5t6 -14.5q0 -6 -2.5 -11.5t-8 -12t-15 -13t-24.5 -14.5q13 -14 26 -23t28 -15t33 -8.5t40 -2.5h18q9 0 14.5 -2.5t8 -7t3.5 -9.5t1 -11t-1 -11.5t-3.5 -10t-8 -7t-14.5 -2.5h-18q-22 0 -40 1.5t-37.5 10t-42.5 26t-54 49.5 q-27 -16 -54.5 -36.5t-49.5 -46.5t-36 -56.5t-14 -63.5q0 -43 20 -76.5t57 -56t88.5 -34.5t114.5 -12q21 0 41.5 1t39.5 2.5t34.5 2.5t27.5 1q4 0 5 -2t1 -6zM240 326q0 -2 -4.5 -9.5t-10 -16t-11.5 -15.5t-8 -7q-1 0 -8 4.5t-15 10t-14.5 11t-6.5 7.5t5 9.5t10.5 16 t11 15.5t6.5 7q2 0 9.5 -5t15 -10.5t14 -11t6.5 -6.5z" />
<glyph unicode="&#x63b;" horiz-adv-x="404" d="M408 512q-8 -10 -12 -19.5t-7 -17.5t-6 -13.5t-8 -7.5q-21 -6 -53 -17t-69 -24.5t-74 -28t-67 -28.5t-49 -26t-19 -20q0 -4 8.5 -9.5t21.5 -12t29.5 -16t33.5 -21.5q16 -12 31 -27t26.5 -33t18 -38.5t6.5 -43.5q0 -36 -15 -57.5t-42.5 -33t-65.5 -15t-84 -3.5h-18 q-9 0 -14.5 2.5t-8 7t-3.5 10t-1 11.5t1 11t3.5 9.5t8 7t14.5 2.5h18q41 0 70.5 1.5t50.5 5.5q38 7 52.5 18.5t14.5 21.5q0 9 -7.5 20.5t-18.5 23.5t-23 23t-21 18q-10 8 -23 15.5t-25.5 13.5t-23 11.5t-16.5 9.5q-10 8 -14 18t-4 31t2.5 35t7.5 19q14 12 33.5 25t42.5 25.5 t47 24t47 22t43.5 18.5t35.5 13q10 3 29.5 10l39 14t35 12.5t17.5 5.5q1 0 1.5 -1.5t2.5 -2.5zM137 476q0 -2 -4.5 -9.5t-10 -16t-10.5 -15.5t-7 -7q-1 0 -7.5 4.5t-14.5 10.5q-9 6 -20 15q-2 2 -4 2q-1 0 -3 -2q-7 -11 -13 -19q-5 -7 -10 -13t-6 -6t-8.5 4.5t-15 10.5 t-14 11.5t-6.5 6.5q0 2 4.5 9.5t10.5 16t11 15.5t6 7q2 0 8.5 -5t13.5 -10q8 -6 18 -15q3 -3 4 -3t4 4q7 10 14 19q5 7 10 13t6 6t8.5 -5t15 -11t14 -11.5t6.5 -6.5z" />
<glyph unicode="&#x63b;" horiz-adv-x="460" d="M495 31q0 -6 -1 -11.5t-3.5 -10t-8 -7t-14.5 -2.5h-19q-17 0 -31 5.5t-27.5 16t-28.5 25.5t-33.5 33t-43 38.5t-57.5 42.5q2 -8 2.5 -20t0.5 -18q0 -33 -11 -56.5t-36 -38t-67 -21.5t-105 -7h-18q-9 0 -14.5 2.5t-8 7t-3.5 10t-1 11.5t1 11t3.5 9.5t8 7t14.5 2.5h18 q34 0 70 1.5t65.5 8t48.5 18.5t19 32q0 16 -7 29.5t-18.5 25t-26 21t-29.5 17.5q-19 10 -35 15.5t-31 18.5q-5 4 -11.5 13t-12 20t-9.5 22t-4 21q0 6 2 15t6.5 19t12.5 20t19 19q25 20 60 40.5t72.5 40t75 36.5t68 29.5t50.5 20t22 7.5q4 0 4 -3q0 -1 -3 -10.5t-6 -20 t-7 -19t-5 -9.5q-40 -13 -82 -29.5t-81 -34t-74 -35.5t-60.5 -34.5t-40.5 -29.5t-15 -20q0 -8 15.5 -16.5t37.5 -18.5q21 -10 41.5 -20.5t40 -22.5t37.5 -23.5t34 -23.5q37 -27 65 -52t50.5 -45t41.5 -31.5t37 -11.5h19q9 0 14.5 -2.5t8 -7t3.5 -9.5t1 -11zM140 506 q0 -2 -4.5 -9.5t-10 -16t-10.5 -15.5t-7 -7q-1 0 -7.5 4.5t-14.5 10.5q-9 6 -20 15q-2 2 -4 2q-1 0 -3 -2q-7 -11 -13 -19q-5 -7 -10 -13t-6 -6t-8.5 4.5t-15 10.5t-14 11.5t-6.5 6.5q0 2 4.5 9.5t10.5 16t11 15.5t6 7q2 0 8.5 -5t13.5 -10q8 -6 18 -15q3 -3 4 -3t4 4 q7 10 14 19q5 7 10 13t6 6t8.5 -5t15 -11t14 -11.5t6.5 -6.5z" />
<glyph unicode="&#x63b;" horiz-adv-x="753" d="M787 31q0 -6 -1 -11.5t-3.5 -10t-8 -7t-14.5 -2.5h-18q-23 0 -40.5 10t-36.5 27.5t-42 41.5t-58 51q3 -15 3 -31q0 -37 -26.5 -59t-72 -34t-105.5 -15.5t-126 -3.5q-59 0 -97.5 6t-62 20t-33.5 37t-10 56q0 3 1.5 12t4 20.5t5.5 24t6 23t6 17t5 6.5t4 -1.5t2 -4.5 q0 -1 -1.5 -7t-3 -14l-3 -16t-1.5 -14q0 -24 9.5 -42.5t32 -31.5t59.5 -19.5t92 -6.5h91t65 1t44.5 2.5t28.5 3.5q19 3 31.5 8t20.5 10.5t11.5 11t3.5 9.5q0 9 -7.5 21t-18.5 24t-23 23t-21 18q-10 8 -23 15t-25.5 13t-23.5 11.5t-16 9.5t-8.5 8t-5.5 9.5t-2.5 13t-0.5 18.5 q0 21 2 35.5t8 18.5q14 12 33.5 25t41.5 25t46.5 24t47.5 22t43.5 18.5t36.5 13.5q6 2 17 6.5t24 8.5t26.5 9t24.5 9t18.5 6.5t9.5 2.5q1 0 1.5 -1.5t2.5 -2.5q-8 -10 -12 -19.5t-7 -17.5t-6 -13.5t-8 -7.5q-20 -6 -52.5 -17t-69 -24t-73.5 -28t-67 -28.5t-49 -25.5t-19 -20 q0 -9 23 -21q38 -19 71 -41t63 -45q32 -25 59.5 -49t51 -43t43.5 -30t37 -11h18q9 0 14.5 -2.5t8 -7t3.5 -9.5t1 -11zM485 465q0 -2 -4.5 -9.5t-10 -16t-10.5 -15.5t-7 -7q-1 0 -7.5 4.5t-14.5 10.5q-9 6 -20 15q-2 2 -4 2q-1 0 -3 -2q-7 -11 -13 -19q-5 -7 -10 -13t-6 -6 t-8.5 4.5t-15 10.5t-14 11.5t-6.5 6.5q0 2 4.5 9.5t10.5 16t11 15.5t6 7q2 0 8.5 -5t13.5 -10q8 -6 18 -15q3 -3 4 -3t4 4q7 10 14 19q5 7 10 13t6 6t8.5 -5t15 -11t14 -11.5t6.5 -6.5z" />
<glyph unicode="&#x63c;" horiz-adv-x="404" d="M408 512q-8 -10 -12 -19.5t-7 -17.5t-6 -13.5t-8 -7.5q-21 -6 -53 -17t-69 -24.5t-74 -28t-67 -28.5t-49 -26t-19 -20q0 -4 8.5 -9.5t21.5 -12t29.5 -16t33.5 -21.5q16 -12 31 -27t26.5 -33t18 -38.5t6.5 -43.5q0 -36 -15 -57.5t-42.5 -33t-65.5 -15t-84 -3.5h-18 q-9 0 -14.5 2.5t-8 7t-3.5 10t-1 11.5t1 11t3.5 9.5t8 7t14.5 2.5h18q41 0 70.5 1.5t50.5 5.5q38 7 52.5 18.5t14.5 21.5q0 9 -7.5 20.5t-18.5 23.5t-23 23t-21 18q-10 8 -23 15.5t-25.5 13.5t-23 11.5t-16.5 9.5q-10 8 -14 18t-4 31t2.5 35t7.5 19q14 12 33.5 25t42.5 25.5 t47 24t47 22t43.5 18.5t35.5 13q10 3 29.5 10l39 14t35 12.5t17.5 5.5q1 0 1.5 -1.5t2.5 -2.5zM155 -81q0 -2 -4.5 -9.5t-10 -16t-10.5 -15.5t-7 -7q-1 0 -7.5 4.5t-14.5 10.5q-9 6 -20 15q-2 2 -4 2q-1 0 -3 -3q-8 -11 -14 -19q-5 -7 -10 -13t-6 -6t-8 4.5t-15 11 t-14.5 11.5t-6.5 7q0 1 4.5 9t10.5 16t11 15t6 7q2 0 8.5 -4.5t14.5 -9.5l18 -15q3 -2 4 -3q1 0 4 4l14 18q5 7 9.5 13t6.5 6t9 -4.5t15 -10.5t14 -11.5t6 -6.5zM121 -178q0 -1 -4.5 -9t-10 -16t-11 -15t-7.5 -7q-1 0 -8 4.5t-15.5 10t-14.5 11t-6 7.5t4.5 9.5t10.5 16 t11.5 15.5t6.5 7q2 0 9 -5t15 -11t14 -11.5t6 -6.5z" />
<glyph unicode="&#x63c;" horiz-adv-x="460" d="M495 31q0 -6 -1 -11.5t-3.5 -10t-8 -7t-14.5 -2.5h-19q-17 0 -31 5.5t-27.5 16t-28.5 25.5t-33.5 33t-43 38.5t-57.5 42.5q2 -8 2.5 -20t0.5 -18q0 -33 -11 -56.5t-36 -38t-67 -21.5t-105 -7h-18q-9 0 -14.5 2.5t-8 7t-3.5 10t-1 11.5t1 11t3.5 9.5t8 7t14.5 2.5h18 q34 0 70 1.5t65.5 8t48.5 18.5t19 32q0 16 -7 29.5t-18.5 25t-26 21t-29.5 17.5q-19 10 -35 15.5t-31 18.5q-5 4 -11.5 13t-12 20t-9.5 22t-4 21q0 6 2 15t6.5 19t12.5 20t19 19q25 20 60 40.5t72.5 40t75 36.5t68 29.5t50.5 20t22 7.5q4 0 4 -3q0 -1 -3 -10.5t-6 -20 t-7 -19t-5 -9.5q-40 -13 -82 -29.5t-81 -34t-74 -35.5t-60.5 -34.5t-40.5 -29.5t-15 -20q0 -8 15.5 -16.5t37.5 -18.5q21 -10 41.5 -20.5t40 -22.5t37.5 -23.5t34 -23.5q37 -27 65 -52t50.5 -45t41.5 -31.5t37 -11.5h19q9 0 14.5 -2.5t8 -7t3.5 -9.5t1 -11zM145 -81 q0 -2 -4.5 -9.5t-10 -16t-10.5 -15.5t-7 -7q-1 0 -7.5 4.5t-14.5 10.5q-9 6 -20 15q-2 2 -4 2q-1 0 -3 -3q-8 -11 -14 -19q-5 -7 -10 -13t-6 -6t-8 4.5t-15 11t-14.5 11.5t-6.5 7q0 1 4.5 9t10.5 16t11 15t6 7q2 0 8.5 -4.5t14.5 -9.5l18 -15q3 -2 4 -3q1 0 4 4l14 18 q5 7 9.5 13t6.5 6t9 -4.5t15 -10.5t14 -11.5t6 -6.5zM111 -178q0 -1 -4.5 -9t-10 -16t-11 -15t-7.5 -7q-1 0 -8 4.5t-15.5 10t-14.5 11t-6 7.5t4.5 9.5t10.5 16t11.5 15.5t6.5 7q2 0 9 -5t15 -11t14 -11.5t6 -6.5z" />
<glyph unicode="&#x63c;" horiz-adv-x="753" d="M787 31q0 -6 -1 -11.5t-3.5 -10t-8 -7t-14.5 -2.5h-18q-23 0 -40.5 10t-36.5 27.5t-42 41.5t-58 51q3 -15 3 -31q0 -37 -26.5 -59t-72 -34t-105.5 -15.5t-126 -3.5q-59 0 -97.5 6t-62 20t-33.5 37t-10 56q0 3 1.5 12t4 20.5t5.5 24t6 23t6 17t5 6.5t4 -1.5t2 -4.5 q0 -1 -1.5 -7t-3 -14l-3 -16t-1.5 -14q0 -24 9.5 -42.5t32 -31.5t59.5 -19.5t92 -6.5h91t65 1t44.5 2.5t28.5 3.5q19 3 31.5 8t20.5 10.5t11.5 11t3.5 9.5q0 9 -7.5 21t-18.5 24t-23 23t-21 18q-10 8 -23 15t-25.5 13t-23.5 11.5t-16 9.5t-8.5 8t-5.5 9.5t-2.5 13t-0.5 18.5 q0 21 2 35.5t8 18.5q14 12 33.5 25t41.5 25t46.5 24t47.5 22t43.5 18.5t36.5 13.5q6 2 17 6.5t24 8.5t26.5 9t24.5 9t18.5 6.5t9.5 2.5q1 0 1.5 -1.5t2.5 -2.5q-8 -10 -12 -19.5t-7 -17.5t-6 -13.5t-8 -7.5q-20 -6 -52.5 -17t-69 -24t-73.5 -28t-67 -28.5t-49 -25.5t-19 -20 q0 -9 23 -21q38 -19 71 -41t63 -45q32 -25 59.5 -49t51 -43t43.5 -30t37 -11h18q9 0 14.5 -2.5t8 -7t3.5 -9.5t1 -11zM475 -95q0 -2 -4.5 -9.5t-10 -16t-10.5 -15.5t-7 -7q-1 0 -7.5 4.5t-14.5 10.5q-9 6 -20 15q-2 2 -4 2q-1 0 -3 -3q-8 -11 -14 -19q-5 -7 -10 -13t-6 -6 t-8 4.5t-15 11t-14.5 11.5t-6.5 7q0 1 4.5 9t10.5 16t11 15t6 7q2 0 8.5 -4.5t14.5 -9.5l18 -15q3 -2 4 -3q1 0 4 4l14 18q5 7 9.5 13t6.5 6t9 -4.5t15 -10.5t14 -11.5t6 -6.5zM441 -192q0 -1 -4.5 -9t-10 -16t-11 -15t-7.5 -7q-1 0 -8 4.5t-15.5 10t-14.5 11t-6 7.5 t4.5 9.5t10.5 16t11.5 15.5t6.5 7q2 0 9 -5t15 -11t14 -11.5t6 -6.5z" />
<glyph unicode="&#x63d;" horiz-adv-x="175" d="M121 129q0 -37 -8.5 -62t-23 -40t-34.5 -21t-43 -6h-18q-9 0 -14.5 2.5t-8 7t-3.5 10t-1 11.5t1 11t3.5 9.5t8 7t14.5 2.5h18q21 0 37.5 3.5t27.5 8.5q10 5 15.5 11.5t5.5 9.5t-5 13t-11 21.5t-11 21t-5 11.5q0 3 4.5 12.5t10.5 19t11.5 18t6.5 10.5q11 -24 16.5 -46.5 t5.5 -45.5zM178 274q0 -1 -0.5 -2.5t-2.5 -1.5h-15q-1 0 -7.5 5t-14.5 12.5t-17.5 16t-17.5 16t-14.5 12.5t-7.5 5q-2 0 -8 -5t-14 -12.5t-17.5 -16t-17.5 -16t-14 -12.5t-8 -5h-15q-2 0 -2.5 1t-0.5 3t7.5 13.5t18 26t22.5 29t21 23.5q4 4 7 7.5t7 3.5h28q3 0 6 -3l8 -8 q6 -6 13.5 -15t15 -19l15 -20t13 -18t7.5 -11zM135 -83q0 -2 -4.5 -9.5t-10 -16t-10.5 -15.5t-7 -7q-1 0 -7.5 4.5t-14.5 10.5q-9 6 -20 15q-2 2 -4 2q-1 0 -3 -2q-7 -11 -13 -19q-5 -7 -10 -13t-6 -6t-8.5 4.5t-15 10.5t-14 11.5t-6.5 6.5q0 2 4.5 9.5t10.5 16t11 15.5t6 7 q2 0 8.5 -5t13.5 -10q8 -6 18 -15q3 -3 4 -3t4 4q7 10 14 19q5 7 10 13t6 6t8.5 -5t15 -11t14 -11.5t6.5 -6.5z" />
<glyph unicode="&#x63d;" horiz-adv-x="179" d="M213 31q0 -6 -1 -11.5t-3.5 -10t-8 -7t-14.5 -2.5h-19q-14 0 -23 4.5t-17 12.5q-5 6 -11.5 16t-10.5 19q-9 -10 -17.5 -19.5t-19.5 -16.5t-24.5 -11.5t-31.5 -4.5h-18q-9 0 -14.5 2.5t-8 7t-3.5 10t-1 11.5t1 11t3.5 9.5t8 7t14.5 2.5h18q22 0 38 4.5t27.5 12t19 15.5 t12.5 15.5t8.5 12t5.5 4.5q3 0 4 -8.5t5 -18.5q2 -6 5 -12.5t7 -12t10 -9t13 -3.5h19q9 0 14.5 -2.5t8 -7t3.5 -9.5t1 -11zM186 178q0 -1 -0.5 -2.5t-2.5 -1.5h-15q-1 0 -7.5 5t-14.5 12.5t-17.5 16t-17.5 16t-14.5 12.5t-7.5 5q-2 0 -8 -5t-14 -12.5t-17.5 -16t-17.5 -16 t-14 -12.5t-8 -5h-15q-2 0 -2.5 1t-0.5 3t7.5 13.5t18 26t22.5 29t21 23.5q4 4 7 7.5t7 3.5h28q3 0 6 -3l8 -8q6 -6 13.5 -15t15 -19l15 -20t13 -18t7.5 -11zM167 -83q0 -2 -4.5 -9.5t-10 -16t-10.5 -15.5t-7 -7q-1 0 -7.5 4.5t-14.5 10.5q-9 6 -20 15q-2 2 -4 2q-1 0 -3 -2 q-7 -11 -13 -19q-5 -7 -10 -13t-6 -6t-8.5 4.5t-15 10.5t-14 11.5t-6.5 6.5q0 2 4.5 9.5t10.5 16t11 15.5t6 7q2 0 8.5 -5t13.5 -10q8 -6 18 -15q3 -3 4 -3t4 4q7 10 14 19q5 7 10 13t6 6t8.5 -5t15 -11t14 -11.5t6.5 -6.5z" />
<glyph unicode="&#x63d;" horiz-adv-x="478" d="M511 31q0 -6 -0.5 -11.5t-3.5 -10t-8 -7t-15 -2.5h-52q-14 0 -29 -1t-29 -5q-17 -5 -27 -15t-10 -21q0 -6 3.5 -9t9 -5t14 -3.5t17.5 -2.5q11 -2 25 -6t26.5 -11.5t21 -18t8.5 -25.5q0 -21 -12.5 -40t-33 -34.5t-48 -28t-56.5 -21.5t-58 -13.5t-54 -4.5q-37 0 -66.5 10 t-50 28.5t-31 45t-10.5 59.5q0 27 7.5 54t16.5 48.5t17.5 35.5t10.5 14q3 0 5.5 -1.5t2.5 -4.5q0 -1 -5 -11.5t-11.5 -26t-11.5 -35t-5 -40.5q0 -36 15.5 -57t39.5 -32.5t53 -15t57 -3.5q10 0 29.5 3.5t42.5 9t46.5 13t43 15t32 15t12.5 13.5q0 11 -15.5 16.5t-47.5 6.5 q-14 0 -29 1.5t-27 5.5t-20 11.5t-8 20.5q0 12 6 25t13 23q39 61 94 75q11 3 20.5 3.5t20.5 0.5h37q9 0 14.5 -2.5t8.5 -7t3.5 -9.5t0.5 -11zM320 85q0 -1 -0.5 -2.5t-2.5 -1.5h-15q-1 0 -7.5 5t-14.5 12.5t-17.5 16t-17.5 16t-14.5 12.5t-7.5 5q-2 0 -8 -5t-14 -12.5 t-17.5 -16t-17.5 -16t-14 -12.5t-8 -5h-15q-2 0 -2.5 1t-0.5 3t7.5 13.5t18 26t22.5 29t21 23.5q4 4 7 7.5t7 3.5h28q3 0 6 -3l8 -8q6 -6 13.5 -15t15 -19l15 -20t13 -18t7.5 -11z" />
<glyph unicode="&#x63e;" horiz-adv-x="175" d="M121 129q0 -37 -8.5 -62t-23 -40t-34.5 -21t-43 -6h-18q-9 0 -14.5 2.5t-8 7t-3.5 10t-1 11.5t1 11t3.5 9.5t8 7t14.5 2.5h18q21 0 37.5 3.5t27.5 8.5q10 5 15.5 11.5t5.5 9.5t-5 13t-11 21.5t-11 21t-5 11.5q0 3 4.5 12.5t10.5 19t11.5 18t6.5 10.5q11 -24 16.5 -46.5 t5.5 -45.5zM159 326q0 -2 -4.5 -9.5t-10 -16t-10.5 -15.5t-7 -7q-1 0 -7.5 4.5t-14.5 10.5q-9 6 -20 15q-2 2 -4 2q-1 0 -3 -2q-7 -11 -13 -19q-5 -7 -10 -13t-6 -6t-8.5 4.5t-15 10.5t-14 11.5t-6.5 6.5q0 2 4.5 9.5t10.5 16t11 15.5t6 7q2 0 8.5 -5t13.5 -10q8 -6 18 -15 q3 -3 4 -3t4 4q7 10 14 19q5 7 10 13t6 6t8.5 -5t15 -11t14 -11.5t6.5 -6.5zM135 -83q0 -2 -4.5 -9.5t-10 -16t-10.5 -15.5t-7 -7q-1 0 -7.5 4.5t-14.5 10.5q-9 6 -20 15q-2 2 -4 2q-1 0 -3 -2q-7 -11 -13 -19q-5 -7 -10 -13t-6 -6t-8.5 4.5t-15 10.5t-14 11.5t-6.5 6.5 q0 2 4.5 9.5t10.5 16t11 15.5t6 7q2 0 8.5 -5t13.5 -10q8 -6 18 -15q3 -3 4 -3t4 4q7 10 14 19q5 7 10 13t6 6t8.5 -5t15 -11t14 -11.5t6.5 -6.5z" />
<glyph unicode="&#x63e;" horiz-adv-x="179" d="M213 31q0 -6 -1 -11.5t-3.5 -10t-8 -7t-14.5 -2.5h-19q-14 0 -23 4.5t-17 12.5q-5 6 -11.5 16t-10.5 19q-9 -10 -17.5 -19.5t-19.5 -16.5t-24.5 -11.5t-31.5 -4.5h-18q-9 0 -14.5 2.5t-8 7t-3.5 10t-1 11.5t1 11t3.5 9.5t8 7t14.5 2.5h18q22 0 38 4.5t27.5 12t19 15.5 t12.5 15.5t8.5 12t5.5 4.5q3 0 4 -8.5t5 -18.5q2 -6 5 -12.5t7 -12t10 -9t13 -3.5h19q9 0 14.5 -2.5t8 -7t3.5 -9.5t1 -11zM167 230q0 -2 -4.5 -9.5t-10 -16t-10.5 -15.5t-7 -7q-1 0 -7.5 4.5t-14.5 10.5q-9 6 -20 15q-2 2 -4 2q-1 0 -3 -2q-7 -11 -13 -19q-5 -7 -10 -13 t-6 -6t-8.5 4.5t-15 10.5t-14 11.5t-6.5 6.5q0 2 4.5 9.5t10.5 16t11 15.5t6 7q2 0 8.5 -5t13.5 -10q8 -6 18 -15q3 -3 4 -3t4 4q7 10 14 19q5 7 10 13t6 6t8.5 -5t15 -11t14 -11.5t6.5 -6.5zM167 -83q0 -2 -4.5 -9.5t-10 -16t-10.5 -15.5t-7 -7q-1 0 -7.5 4.5t-14.5 10.5 q-9 6 -20 15q-2 2 -4 2q-1 0 -3 -2q-7 -11 -13 -19q-5 -7 -10 -13t-6 -6t-8.5 4.5t-15 10.5t-14 11.5t-6.5 6.5q0 2 4.5 9.5t10.5 16t11 15.5t6 7q2 0 8.5 -5t13.5 -10q8 -6 18 -15q3 -3 4 -3t4 4q7 10 14 19q5 7 10 13t6 6t8.5 -5t15 -11t14 -11.5t6.5 -6.5z" />
<glyph unicode="&#x63e;" horiz-adv-x="478" d="M511 31q0 -6 -0.5 -11.5t-3.5 -10t-8 -7t-15 -2.5h-52q-14 0 -29 -1t-29 -5q-17 -5 -27 -15t-10 -21q0 -6 3.5 -9t9 -5t14 -3.5t17.5 -2.5q11 -2 25 -6t26.5 -11.5t21 -18t8.5 -25.5q0 -21 -12.5 -40t-33 -34.5t-48 -28t-56.5 -21.5t-58 -13.5t-54 -4.5q-37 0 -66.5 10 t-50 28.5t-31 45t-10.5 59.5q0 27 7.5 54t16.5 48.5t17.5 35.5t10.5 14q3 0 5.5 -1.5t2.5 -4.5q0 -1 -5 -11.5t-11.5 -26t-11.5 -35t-5 -40.5q0 -36 15.5 -57t39.5 -32.5t53 -15t57 -3.5q10 0 29.5 3.5t42.5 9t46.5 13t43 15t32 15t12.5 13.5q0 11 -15.5 16.5t-47.5 6.5 q-14 0 -29 1.5t-27 5.5t-20 11.5t-8 20.5q0 12 6 25t13 23q39 61 94 75q11 3 20.5 3.5t20.5 0.5h37q9 0 14.5 -2.5t8.5 -7t3.5 -9.5t0.5 -11zM301 137q0 -2 -4.5 -9.5t-10 -16t-10.5 -15.5t-7 -7q-1 0 -7.5 4.5t-14.5 10.5q-9 6 -20 15q-2 2 -4 2q-1 0 -3 -2q-7 -11 -13 -19 q-5 -7 -10 -13t-6 -6t-8.5 4.5t-15 10.5t-14 11.5t-6.5 6.5q0 2 4.5 9.5t10.5 16t11 15.5t6 7q2 0 8.5 -5t13.5 -10q8 -6 18 -15q3 -3 4 -3t4 4q7 10 14 19q5 7 10 13t6 6t8.5 -5t15 -11t14 -11.5t6.5 -6.5z" />
<glyph unicode="&#x63f;" horiz-adv-x="175" d="M121 129q0 -37 -8.5 -62t-23 -40t-34.5 -21t-43 -6h-18q-9 0 -14.5 2.5t-8 7t-3.5 10t-1 11.5t1 11t3.5 9.5t8 7t14.5 2.5h18q21 0 37.5 3.5t27.5 8.5q10 5 15.5 11.5t5.5 9.5t-5 13t-11 21.5t-11 21t-5 11.5q0 3 4.5 12.5t10.5 19t11.5 18t6.5 10.5q11 -24 16.5 -46.5 t5.5 -45.5zM109 413q0 -2 -4 -10t-9.5 -16.5t-11 -15.5t-7.5 -7q-1 0 -8 5t-15 10.5t-14.5 11.5t-6.5 8t4.5 9.5t10.5 15.5t11 14.5t6 6.5q2 0 9.5 -4.5t15 -10.5t13.5 -11t6 -6zM159 328q0 -2 -4.5 -10t-9.5 -16.5t-10.5 -15.5t-7.5 -7q-1 0 -7.5 5t-13.5 11q-9 6 -20 15 q-2 2 -4 2q-1 0 -3 -3q-8 -11 -14 -19q-5 -7 -9.5 -13t-6.5 -6q-1 0 -8 4.5t-15 10.5t-14.5 11.5t-6.5 7.5q0 1 5 8.5t10.5 16t10.5 15.5t6 7q2 0 9 -5l14 -10q8 -6 17 -15q3 -2 5 -2q1 0 4 3q7 10 13 19q5 7 10 12.5t6 5.5t8.5 -4.5t15 -10.5t14 -11t6.5 -6zM135 -83 q0 -2 -4.5 -9.5t-10 -16t-10.5 -15.5t-7 -7q-1 0 -7.5 4.5t-14.5 10.5q-9 6 -20 15q-2 2 -4 2q-1 0 -3 -2q-7 -11 -13 -19q-5 -7 -10 -13t-6 -6t-8.5 4.5t-15 10.5t-14 11.5t-6.5 6.5q0 2 4.5 9.5t10.5 16t11 15.5t6 7q2 0 8.5 -5t13.5 -10q8 -6 18 -15q3 -3 4 -3t4 4 q7 10 14 19q5 7 10 13t6 6t8.5 -5t15 -11t14 -11.5t6.5 -6.5z" />
<glyph unicode="&#x63f;" horiz-adv-x="179" d="M213 31q0 -6 -1 -11.5t-3.5 -10t-8 -7t-14.5 -2.5h-19q-14 0 -23 4.5t-17 12.5q-5 6 -11.5 16t-10.5 19q-9 -10 -17.5 -19.5t-19.5 -16.5t-24.5 -11.5t-31.5 -4.5h-18q-9 0 -14.5 2.5t-8 7t-3.5 10t-1 11.5t1 11t3.5 9.5t8 7t14.5 2.5h18q22 0 38 4.5t27.5 12t19 15.5 t12.5 15.5t8.5 12t5.5 4.5q3 0 4 -8.5t5 -18.5q2 -6 5 -12.5t7 -12t10 -9t13 -3.5h19q9 0 14.5 -2.5t8 -7t3.5 -9.5t1 -11zM117 316q0 -2 -4 -10t-9.5 -16.5t-11 -15.5t-7.5 -7q-1 0 -8 5t-15 10.5t-14.5 11.5t-6.5 8t4.5 9.5t10.5 15.5t11 14.5t6 6.5q2 0 9.5 -4.5 t15 -10.5t13.5 -11t6 -6zM167 231q0 -2 -4.5 -10t-9.5 -16.5t-10.5 -15.5t-7.5 -7q-1 0 -7.5 5t-13.5 11q-9 6 -20 15q-2 2 -4 2q-1 0 -3 -3q-8 -11 -14 -19q-5 -7 -9.5 -13t-6.5 -6q-1 0 -8 4.5t-15 10.5t-14.5 11.5t-6.5 7.5q0 1 5 8.5t10.5 16t10.5 15.5t6 7q2 0 9 -5 l14 -10q8 -6 17 -15q3 -2 5 -2q1 0 4 3q7 10 13 19q5 7 10 12.5t6 5.5t8.5 -4.5t15 -10.5t14 -11t6.5 -6zM167 -83q0 -2 -4.5 -9.5t-10 -16t-10.5 -15.5t-7 -7q-1 0 -7.5 4.5t-14.5 10.5q-9 6 -20 15q-2 2 -4 2q-1 0 -3 -2q-7 -11 -13 -19q-5 -7 -10 -13t-6 -6t-8.5 4.5 t-15 10.5t-14 11.5t-6.5 6.5q0 2 4.5 9.5t10.5 16t11 15.5t6 7q2 0 8.5 -5t13.5 -10q8 -6 18 -15q3 -3 4 -3t4 4q7 10 14 19q5 7 10 13t6 6t8.5 -5t15 -11t14 -11.5t6.5 -6.5z" />
<glyph unicode="&#x63f;" horiz-adv-x="478" d="M511 31q0 -6 -0.5 -11.5t-3.5 -10t-8 -7t-15 -2.5h-52q-14 0 -29 -1t-29 -5q-17 -5 -27 -15t-10 -21q0 -6 3.5 -9t9 -5t14 -3.5t17.5 -2.5q11 -2 25 -6t26.5 -11.5t21 -18t8.5 -25.5q0 -21 -12.5 -40t-33 -34.5t-48 -28t-56.5 -21.5t-58 -13.5t-54 -4.5q-37 0 -66.5 10 t-50 28.5t-31 45t-10.5 59.5q0 27 7.5 54t16.5 48.5t17.5 35.5t10.5 14q3 0 5.5 -1.5t2.5 -4.5q0 -1 -5 -11.5t-11.5 -26t-11.5 -35t-5 -40.5q0 -36 15.5 -57t39.5 -32.5t53 -15t57 -3.5q10 0 29.5 3.5t42.5 9t46.5 13t43 15t32 15t12.5 13.5q0 11 -15.5 16.5t-47.5 6.5 q-14 0 -29 1.5t-27 5.5t-20 11.5t-8 20.5q0 12 6 25t13 23q39 61 94 75q11 3 20.5 3.5t20.5 0.5h37q9 0 14.5 -2.5t8.5 -7t3.5 -9.5t0.5 -11zM251 223q0 -2 -4 -10t-9.5 -16.5t-11 -15.5t-7.5 -7q-1 0 -8 5t-15 10.5t-14.5 11.5t-6.5 8t4.5 9.5t10.5 15.5t11 14.5t6 6.5 q2 0 9.5 -4.5t15 -10.5t13.5 -11t6 -6zM301 138q0 -2 -4.5 -10t-9.5 -16.5t-10.5 -15.5t-7.5 -7q-1 0 -7.5 5t-13.5 11q-9 6 -20 15q-2 2 -4 2q-1 0 -3 -3q-8 -11 -14 -19q-5 -7 -9.5 -13t-6.5 -6q-1 0 -8 4.5t-15 10.5t-14.5 11.5t-6.5 7.5q0 1 5 8.5t10.5 16t10.5 15.5 t6 7q2 0 9 -5l14 -10q8 -6 17 -15q3 -2 5 -2q1 0 4 3q7 10 13 19q5 7 10 12.5t6 5.5t8.5 -4.5t15 -10.5t14 -11t6.5 -6z" />
<glyph unicode="&#x641;" horiz-adv-x="209" arabic-form="initial" d="M182 134q0 -9 -1.5 -19t-4.5 -20t-7.5 -20t-11.5 -18t-20.5 -18t-33 -18.5t-42.5 -14.5t-49 -6h-18q-9 0 -14.5 2.5t-8 7t-3.5 10t-1 11.5t1 11t3.5 9.5t8 7t14.5 2.5h18q31 0 58.5 6.5t48 15.5t32.5 19t12 17t-6 17.5t-13 18.5q-4 -8 -9 -17t-12.5 -16.5t-18 -12.5 t-24.5 -5q-15 0 -24.5 5t-14.5 13t-7 18.5t-2 22.5q0 5 2.5 16t6 24.5t9.5 28t13.5 26.5t15.5 19.5t18 7.5t25 -13t28.5 -34.5t22.5 -48.5t9 -55zM111 191q0 1 -3.5 4.5t-9 7.5t-10.5 6.5t-9 2.5q-5 0 -10 -6t-5 -11q0 -6 6 -14t15 -8q3 0 7.5 2t8.5 5t7 6t3 5zM127 382 q0 -2 -4.5 -9.5t-10 -16t-11.5 -15.5t-8 -7q-1 0 -8 4.5t-15 10t-14.5 11t-6.5 7.5t5 9.5t10.5 16t11 15.5t6.5 7q2 0 9.5 -5t15 -10.5t14 -11t6.5 -6.5z" />
<glyph unicode="&#x641;" horiz-adv-x="289" arabic-form="medial" d="M322 31q0 -6 -1 -11.5t-3.5 -10t-8 -7t-14.5 -2.5h-18q-21 0 -38 2.5t-33 7.5t-32 12t-36 16q-21 -9 -37 -16t-30 -12t-28 -7.5t-31 -2.5h-18q-9 0 -14.5 2.5t-8 7t-3.5 10t-1 11.5t1 11t3.5 9.5t8 7t14.5 2.5h18q18 0 38.5 3.5t37.5 11.5q-1 5 -2 13t-1 15t3.5 19t10 26 t15.5 28.5t19 27.5q17 22 35 35.5t29 13.5q12 0 21.5 -10t16.5 -23.5t10.5 -28.5t3.5 -25q0 -23 -10 -47.5t-30 -43.5q34 -15 68 -15h18q9 0 14.5 -2.5t8 -7t3.5 -9.5t1 -11zM221 138q0 8 -3.5 16.5t-10 15t-15 10.5t-18.5 4q-6 0 -16 -4t-19 -10t-15.5 -13t-6.5 -13 q0 -7 4 -13t9.5 -11.5t12.5 -11t14 -10.5q13 5 24.5 9.5t20.5 9.5t14 10t5 11zM224 370q0 -2 -4.5 -9.5t-10 -16t-11.5 -15.5t-8 -7q-1 0 -8 4.5t-15 10t-14.5 11t-6.5 7.5t5 9.5t10.5 16t11 15.5t6.5 7q2 0 9.5 -5t15 -10.5t14 -11t6.5 -6.5z" />
<glyph unicode="&#x641;" horiz-adv-x="711" arabic-form="final" d="M745 31q0 -6 -1 -11.5t-3.5 -10t-8 -7t-14.5 -2.5h-19q-25 0 -47 4t-38 8.5t-26 8.5t-12 4q-39 -18 -81 -34.5t-86 -30t-88.5 -21.5t-87.5 -8q-31 0 -64.5 5.5t-61 20t-45.5 39.5t-18 63q0 7 4.5 23.5t12 33t16 29.5t16.5 13l4 -5l-7.5 -15t-8 -18t-6 -18t-2.5 -16 q0 -18 9.5 -32t25 -24t34.5 -17t39 -10.5t38 -5.5t32 -2q43 0 87.5 9t85.5 20q23 7 45 15.5t41 16.5l1 3q-8 7 -12 17t-4 20q0 8 4 23t11 32t16 34.5t19.5 32t20.5 23.5t20 9q7 0 14.5 -5.5t14.5 -13.5t13.5 -19t11 -21.5t7 -20t2.5 -15.5q0 -7 -2 -18.5t-5.5 -23.5 t-7.5 -23.5t-8 -17.5q0 -4 8.5 -6.5t19.5 -3t23 -1t22 -0.5h19q9 0 14.5 -2.5t8 -7t3.5 -9.5t1 -11zM620 133q0 5 -3.5 14t-9 17.5t-12 14.5t-12.5 6t-15 -6.5t-18 -15.5t-15.5 -18.5t-6.5 -14.5q0 -7 5 -13t11.5 -10.5t13.5 -9t12 -7.5q3 2 11 8t17 13t15.5 13.5t6.5 8.5z M616 345q0 -2 -4.5 -9.5t-10 -16t-11.5 -15.5t-8 -7q-1 0 -8 4.5t-15 10t-14.5 11t-6.5 7.5t5 9.5t10.5 16t11 15.5t6.5 7q2 0 9.5 -5t15 -10.5t14 -11t6.5 -6.5z" />
<glyph unicode="&#x642;" horiz-adv-x="209" arabic-form="initial" d="M182 134q0 -9 -1.5 -19t-4.5 -20t-7.5 -20t-11.5 -18t-20.5 -18t-33 -18.5t-42.5 -14.5t-49 -6h-18q-9 0 -14.5 2.5t-8 7t-3.5 10t-1 11.5t1 11t3.5 9.5t8 7t14.5 2.5h18q31 0 58.5 6.5t48 15.5t32.5 19t12 17t-6 17.5t-13 18.5q-4 -8 -9 -17t-12.5 -16.5t-18 -12.5 t-24.5 -5q-15 0 -24.5 5t-14.5 13t-7 18.5t-2 22.5q0 5 2.5 16t6 24.5t9.5 28t13.5 26.5t15.5 19.5t18 7.5t25 -13t28.5 -34.5t22.5 -48.5t9 -55zM111 191q0 1 -3.5 4.5t-9 7.5t-10.5 6.5t-9 2.5q-5 0 -10 -6t-5 -11q0 -6 6 -14t15 -8q3 0 7.5 2t8.5 5t7 6t3 5zM165 390 q0 -2 -4.5 -9.5t-10 -16t-10.5 -15.5t-7 -7q-1 0 -7.5 4.5t-14.5 10.5q-9 6 -20 15q-2 2 -4 2q-1 0 -3 -2q-7 -11 -13 -19q-5 -7 -10 -13t-6 -6t-8.5 4.5t-15 10.5t-14 11.5t-6.5 6.5q0 2 4.5 9.5t10.5 16t11 15.5t6 7q2 0 8.5 -5t13.5 -10q8 -6 18 -15q3 -3 4 -3t4 4 q7 10 14 19q5 7 10 13t6 6t8.5 -5t15 -11t14 -11.5t6.5 -6.5z" />
<glyph unicode="&#x642;" horiz-adv-x="289" arabic-form="medial" d="M322 31q0 -6 -1 -11.5t-3.5 -10t-8 -7t-14.5 -2.5h-18q-21 0 -38 2.5t-33 7.5t-32 12t-36 16q-21 -9 -37 -16t-30 -12t-28 -7.5t-31 -2.5h-18q-9 0 -14.5 2.5t-8 7t-3.5 10t-1 11.5t1 11t3.5 9.5t8 7t14.5 2.5h18q18 0 38.5 3.5t37.5 11.5q-1 5 -2 13t-1 15t3.5 19t10 26 t15.5 28.5t19 27.5q17 22 35 35.5t29 13.5q12 0 21.5 -10t16.5 -23.5t10.5 -28.5t3.5 -25q0 -23 -10 -47.5t-30 -43.5q34 -15 68 -15h18q9 0 14.5 -2.5t8 -7t3.5 -9.5t1 -11zM221 138q0 8 -3.5 16.5t-10 15t-15 10.5t-18.5 4q-6 0 -16 -4t-19 -10t-15.5 -13t-6.5 -13 q0 -7 4 -13t9.5 -11.5t12.5 -11t14 -10.5q13 5 24.5 9.5t20.5 9.5t14 10t5 11zM262 378q0 -2 -4.5 -9.5t-10 -16t-10.5 -15.5t-7 -7q-1 0 -7.5 4.5t-14.5 10.5q-9 6 -20 15q-2 2 -4 2q-1 0 -3 -2q-7 -11 -13 -19q-5 -7 -10 -13t-6 -6t-8.5 4.5t-15 10.5t-14 11.5t-6.5 6.5 q0 2 4.5 9.5t10.5 16t11 15.5t6 7q2 0 8.5 -5t13.5 -10q8 -6 18 -15q3 -3 4 -3t4 4q7 10 14 19q5 7 10 13t6 6t8.5 -5t15 -11t14 -11.5t6.5 -6.5z" />
<glyph unicode="&#x642;" horiz-adv-x="443" arabic-form="final" d="M477 31q0 -6 -1 -11.5t-3.5 -10t-8 -7t-14.5 -2.5h-44q-1 -9 -3.5 -19t-5.5 -20t-7.5 -19.5t-9.5 -17.5q-15 -23 -37.5 -44.5t-51 -37.5t-63 -26t-72.5 -10q-21 0 -42 8t-37.5 23t-27 37t-10.5 51q0 32 8.5 59t19 46.5t19.5 30.5t11 11q3 0 5.5 -2.5t2.5 -5.5 q0 -1 -6 -11t-14 -24t-14.5 -32.5t-6.5 -37.5q0 -23 11 -39.5t29 -27t40 -15.5t44 -5t46 4.5t47.5 12.5t44 20t34.5 26q7 7 11 16t5.5 18t2 17t0.5 14h-11t-11 -0.5t-11 -0.5q-12 0 -24.5 1.5t-22.5 6.5t-16.5 13.5t-6.5 21.5q0 11 6.5 29.5t17 36.5t23.5 31t27 13 q11 0 20.5 -9.5t17.5 -23t13.5 -29.5t7.5 -28q5 0 10.5 -0.5t12.5 -0.5h18q9 0 14.5 -2.5t8 -7t3.5 -9.5t1 -11zM363 59q-2 7 -6 13.5t-9.5 11.5t-11 8t-9.5 3q-8 0 -13 -6t-5 -13q0 -5 5.5 -8.5t14 -5t18 -2.5t16.5 -1zM417 251q0 -2 -4.5 -9.5t-10 -16t-10.5 -15.5t-7 -7 q-1 0 -7.5 4.5t-14.5 10.5q-9 6 -20 15q-2 2 -4 2q-1 0 -3 -2q-7 -11 -13 -19q-5 -7 -10 -13t-6 -6t-8.5 4.5t-15 10.5t-14 11.5t-6.5 6.5q0 2 4.5 9.5t10.5 16t11 15.5t6 7q2 0 8.5 -5t13.5 -10q8 -6 18 -15q3 -3 4 -3t4 4q7 10 14 19q5 7 10 13t6 6t8.5 -5t15 -11 t14 -11.5t6.5 -6.5z" />
<glyph unicode="&#x643;" horiz-adv-x="404" arabic-form="initial" d="M408 512q-8 -10 -12 -19.5t-7 -17.5t-6 -13.5t-8 -7.5q-21 -6 -53 -17t-69 -24.5t-74 -28t-67 -28.5t-49 -26t-19 -20q0 -4 8.5 -9.5t21.5 -12t29.5 -16t33.5 -21.5q16 -12 31 -27t26.5 -33t18 -38.5t6.5 -43.5q0 -36 -15 -57.5t-42.5 -33t-65.5 -15t-84 -3.5h-18 q-9 0 -14.5 2.5t-8 7t-3.5 10t-1 11.5t1 11t3.5 9.5t8 7t14.5 2.5h18q41 0 70.5 1.5t50.5 5.5q38 7 52.5 18.5t14.5 21.5q0 9 -7.5 20.5t-18.5 23.5t-23 23t-21 18q-10 8 -23 15.5t-25.5 13.5t-23 11.5t-16.5 9.5q-10 8 -14 18t-4 31t2.5 35t7.5 19q14 12 33.5 25t42.5 25.5 t47 24t47 22t43.5 18.5t35.5 13q10 3 29.5 10l39 14t35 12.5t17.5 5.5q1 0 1.5 -1.5t2.5 -2.5z" />
<glyph unicode="&#x643;" horiz-adv-x="460" arabic-form="medial" d="M495 31q0 -6 -1 -11.5t-3.5 -10t-8 -7t-14.5 -2.5h-19q-17 0 -31 5.5t-27.5 16t-28.5 25.5t-33.5 33t-43 38.5t-57.5 42.5q2 -8 2.5 -20t0.5 -18q0 -33 -11 -56.5t-36 -38t-67 -21.5t-105 -7h-18q-9 0 -14.5 2.5t-8 7t-3.5 10t-1 11.5t1 11t3.5 9.5t8 7t14.5 2.5h18 q34 0 70 1.5t65.5 8t48.5 18.5t19 32q0 16 -7 29.5t-18.5 25t-26 21t-29.5 17.5q-19 10 -35 15.5t-31 18.5q-5 4 -11.5 13t-12 20t-9.5 22t-4 21q0 6 2 15t6.5 19t12.5 20t19 19q25 20 60 40.5t72.5 40t75 36.5t68 29.5t50.5 20t22 7.5q4 0 4 -3q0 -1 -3 -10.5t-6 -20 t-7 -19t-5 -9.5q-40 -13 -82 -29.5t-81 -34t-74 -35.5t-60.5 -34.5t-40.5 -29.5t-15 -20q0 -8 15.5 -16.5t37.5 -18.5q21 -10 41.5 -20.5t40 -22.5t37.5 -23.5t34 -23.5q37 -27 65 -52t50.5 -45t41.5 -31.5t37 -11.5h19q9 0 14.5 -2.5t8 -7t3.5 -9.5t1 -11z" />
<glyph unicode="&#x643;" horiz-adv-x="650" arabic-form="final" d="M684 31q0 -6 -0.5 -11.5t-3.5 -10t-8 -7t-15 -2.5h-19q-23 0 -37.5 9.5t-24 24t-14 33t-8.5 37.5q-3 -9 -8.5 -20t-11.5 -22.5t-12 -21.5t-11 -16q-13 -16 -41.5 -31.5t-68.5 -28.5t-88 -21t-101 -8q-42 0 -75 6t-55.5 20t-34.5 36.5t-12 55.5q0 3 1.5 12.5t4 21t5.5 24 t6 23t6 17t5 6.5t4 -2t2 -4t-1.5 -8t-3 -13.5t-3 -16t-1.5 -14.5q0 -24 11.5 -41.5t33.5 -29.5t53 -17.5t69 -5.5q18 0 42 1.5t50.5 5t54 9t53 12.5t46.5 15.5t35 19.5q19 15 27 36t8 44q0 25 -1.5 56t-4 64t-5.5 65.5t-5.5 59.5t-4 46t-1.5 27v8t1.5 10t4.5 8.5t7 3.5 q3 0 9 -9t7 -24q1 -17 3.5 -43.5t5 -58t4.5 -64t4.5 -61t4.5 -50.5t4 -30q3 -24 6.5 -42t10 -29.5t17.5 -17.5t28 -6h19q9 0 14.5 -2.5t8.5 -7t3.5 -9.5t0.5 -11zM361 260q0 -14 -6.5 -29t-17.5 -27.5t-25.5 -20.5t-30.5 -8q-7 0 -17 2t-20.5 6t-20 8.5t-15.5 9.5 q12 1 30 3.5t35 5.5t28.5 7.5t11.5 10.5q0 5 -4.5 7t-12 2.5t-15.5 1.5t-15.5 4t-12 8.5t-4.5 16.5q0 14 6 31t17 34t25.5 32.5t33.5 25.5q1 -2 2.5 -9t3 -14.5t2.5 -14t1 -8.5q-6 -2 -14 -5.5t-15.5 -7.5t-13 -9.5t-5.5 -10.5q0 -7 5 -10.5t13 -5t16.5 -2.5t16.5 -4.5 t13 -10t5 -19.5z" />
<glyph unicode="&#x644;" horiz-adv-x="164" arabic-form="initial" d="M122 181q0 -7 -1 -16.5t-2 -19.5t-2.5 -19t-2.5 -17q-2 -14 -6.5 -32.5t-15 -35.5t-29.5 -29t-51 -12h-18q-9 0 -14.5 2.5t-8 7t-3.5 10t-1 11.5t1 11t3.5 9.5t8 7t14.5 2.5h18q13 0 28.5 4t28.5 12.5t21.5 20.5t8.5 28q0 9 -3.5 32.5t-9 54t-11.5 66t-11 69t-8.5 62.5 t-3.5 48q0 7 2.5 17.5t6.5 20t9.5 16t11.5 6.5l6 -9q7 -9 13.5 -20t12 -21t5.5 -11t-4.5 -5t-10.5 -10.5t-10.5 -15.5t-4.5 -21q0 -13 2.5 -31t6 -38t7.5 -42t8 -42.5t6.5 -38.5t2.5 -32z" />
<glyph unicode="&#x644;" horiz-adv-x="196" arabic-form="medial" d="M230 31q0 -6 -0.5 -11.5t-3.5 -10t-8.5 -7t-14.5 -2.5h-19q-18 0 -31 7t-23 20t-18 31t-13 39q-5 -21 -14.5 -39t-21 -31t-25 -20t-26.5 -7h-18q-9 0 -14.5 2.5t-8 7t-3.5 10t-1 11.5t1 11t3.5 9.5t8 7t14.5 2.5h18q10 0 21 2t16 6q16 11 28 28.5t12 43.5q0 47 -3 90.5 t-7 82.5t-7.5 73t-3.5 63q0 8 2.5 17t6 16.5t7.5 12.5t8 5q3 0 5.5 -7t2.5 -29q0 -19 1.5 -45.5t3.5 -56t4.5 -60t5.5 -58.5t5.5 -52t4.5 -39q2 -21 7.5 -38t13 -29.5t17.5 -19t21 -6.5h19q9 0 14.5 -2.5t8.5 -7t3.5 -9.5t0.5 -11z" />
<glyph unicode="&#x644;" horiz-adv-x="415" arabic-form="final" d="M448 31q0 -6 -1 -11.5t-3.5 -10t-8 -7t-14.5 -2.5h-18q-14 0 -24.5 4.5t-18.5 11.5t-14 16t-10 18q0 -27 1 -53.5t1 -54.5v-13.5v-13.5q-1 -11 -3.5 -28.5t-10.5 -37.5q-23 -53 -71 -80t-121 -27q-24 0 -46.5 6t-38.5 20.5t-26 38.5t-10 59q0 15 3.5 31t9 31t11.5 28.5 t12 23.5t10.5 16t5.5 6q4 0 5 -2t1 -5q0 -2 -5 -12t-11 -24.5t-11 -31t-5 -31.5q0 -23 9.5 -39.5t25 -27t36.5 -15.5t43 -5q19 0 42 4.5t45.5 13t41.5 20t29 25.5q2 3 3.5 9t2 13.5t1 15.5t0.5 15q0 9 -1 33.5t-2.5 57t-4 70.5t-4.5 74q-2 38 -4.5 72t-5 65.5t-3.5 61.5 t-1 62q0 7 2.5 17.5t6 20.5t7.5 17t7 7l1 -21q2 -21 3.5 -54.5t4.5 -76t7 -85t10 -81.5t14 -66q2 -8 7.5 -15t13 -12t15 -8t14.5 -3h18q9 0 14.5 -2.5t8 -7t3.5 -9.5t1 -11z" />
<glyph unicode="&#x645;" horiz-adv-x="282" arabic-form="initial" d="M243 110q0 -6 -4 -17t-10 -21t-13.5 -17.5t-13.5 -7.5q-8 0 -20 4t-25 10t-26.5 13.5t-24.5 14.5q-9 -10 -17 -21.5t-16.5 -21.5t-16.5 -19t-16 -15q-8 -5 -14.5 -8.5t-13.5 -3.5h-18q-9 0 -14.5 2.5t-8 7t-3.5 10t-1 11.5t1 11t3.5 9.5t8 7t14.5 2.5h18q21 0 36.5 9.5 t28 24.5t23 33.5t20.5 36.5q7 12 13.5 22.5t14 18.5t15 13t17.5 5q11 0 19.5 -4.5t15.5 -16.5q6 -10 11 -23t9 -26t6 -25t2 -19zM192 132q0 5 -2.5 11.5t-7.5 12t-10.5 9.5t-12.5 4q-10 0 -16.5 -7t-6.5 -15q0 -1 1 -3t5 -5q5 -3 12 -5.5t14 -4.5t12.5 -3t6.5 -1q5 0 5 7z " />
<glyph unicode="&#x645;" horiz-adv-x="375" arabic-form="medial" d="M409 31q0 -6 -1 -11.5t-3.5 -10t-8 -7t-14.5 -2.5h-18q-16 0 -29.5 3.5t-26 9t-24.5 13t-24 14.5q-1 -10 -2.5 -19.5t-4.5 -16t-10 -10.5t-18 -4q-13 0 -26.5 6t-28.5 15.5t-30.5 22.5t-32.5 27q-10 -12 -20.5 -23t-22 -19.5t-24.5 -13.5t-28 -5h-18q-9 0 -14.5 2.5t-8 7 t-3.5 10t-1 11.5t1 11t3.5 9.5t8 7t14.5 2.5h18q29 0 57 13.5t48 35.5q0 1 7.5 10t17 19.5t20 19.5t18.5 9q6 0 10 -0.5t8.5 -3.5t10.5 -9.5t16 -16.5q13 -14 28 -27.5t33 -24.5t37.5 -18t40.5 -7h18q9 0 14.5 -2.5t8 -7t3.5 -9.5t1 -11zM210 70q0 7 -2 17.5t-6 21t-9 18 t-11 7.5q-4 0 -10.5 -5.5t-13.5 -12t-11.5 -12t-4.5 -6.5q0 -3 8 -10t18.5 -15t19.5 -13.5t12 -5.5q7 0 8.5 5.5t1.5 10.5z" />
<glyph unicode="&#x645;" horiz-adv-x="370" arabic-form="final" d="M403 31q0 -6 -1 -11.5t-3.5 -10t-8 -7t-14.5 -2.5h-18q-21 0 -38.5 1t-32.5 4t-29.5 7.5t-29.5 10.5q1 -8 1.5 -19t0.5 -22q0 -4 -1.5 -14t-5.5 -21t-10 -19t-15 -8q-13 0 -24 12.5t-20 30.5t-14.5 38.5t-5.5 36.5q-20 -5 -35.5 -11t-26.5 -13.5t-17 -17.5t-6 -24 q0 -10 3 -32t8 -49.5t10.5 -57.5t10 -57.5t8 -48.5t3.5 -30q0 -7 -2.5 -15.5t-5 -15.5t-6 -12t-5.5 -5t-3.5 6t-2.5 16t-2.5 24t-3.5 30q-5 33 -10.5 66.5t-10 63.5t-7.5 54.5t-3 39.5q0 24 4 46.5t13.5 42t24.5 36t39 29.5q12 7 20.5 14t14 12t9 8.5t5.5 3.5q3 0 8 -6 t15 -15t24.5 -19t35.5 -19t49.5 -15t65.5 -6h18q9 0 14.5 -2.5t8 -7t3.5 -9.5t1 -11z" />
<glyph unicode="&#x646;" horiz-adv-x="175" arabic-form="initial" d="M121 129q0 -37 -8.5 -62t-23 -40t-34.5 -21t-43 -6h-18q-9 0 -14.5 2.5t-8 7t-3.5 10t-1 11.5t1 11t3.5 9.5t8 7t14.5 2.5h18q21 0 37.5 3.5t27.5 8.5q10 5 15.5 11.5t5.5 9.5t-5 13t-11 21.5t-11 21t-5 11.5q0 3 4.5 12.5t10.5 19t11.5 18t6.5 10.5q11 -24 16.5 -46.5 t5.5 -45.5zM121 319q0 -2 -4.5 -9.5t-10 -16t-11.5 -15.5t-8 -7q-1 0 -8 4.5t-15 10t-14.5 11t-6.5 7.5t5 9.5t10.5 16t11 15.5t6.5 7q2 0 9.5 -5t15 -10.5t14 -11t6.5 -6.5z" />
<glyph unicode="&#x646;" horiz-adv-x="179" arabic-form="medial" d="M213 31q0 -6 -1 -11.5t-3.5 -10t-8 -7t-14.5 -2.5h-19q-14 0 -23 4.5t-17 12.5q-5 6 -11.5 16t-10.5 19q-9 -10 -17.5 -19.5t-19.5 -16.5t-24.5 -11.5t-31.5 -4.5h-18q-9 0 -14.5 2.5t-8 7t-3.5 10t-1 11.5t1 11t3.5 9.5t8 7t14.5 2.5h18q22 0 38 4.5t27.5 12t19 15.5 t12.5 15.5t8.5 12t5.5 4.5q3 0 4 -8.5t5 -18.5q2 -6 5 -12.5t7 -12t10 -9t13 -3.5h19q9 0 14.5 -2.5t8 -7t3.5 -9.5t1 -11zM129 222q0 -2 -4.5 -9.5t-10 -16t-11.5 -15.5t-8 -7q-1 0 -8 4.5t-15 10t-14.5 11t-6.5 7.5t5 9.5t10.5 16t11 15.5t6.5 7q2 0 9.5 -5t15 -10.5 t14 -11t6.5 -6.5z" />
<glyph unicode="&#x646;" horiz-adv-x="449" arabic-form="final" d="M482 31q0 -6 -1 -11.5t-3.5 -10t-8 -7t-14.5 -2.5h-18q-8 0 -16.5 0.5t-14.5 2.5q-1 -17 -4 -39.5t-8 -45.5t-12.5 -45t-18.5 -38q-6 -9 -19.5 -22t-38.5 -25.5t-63 -21.5t-92 -9q-26 0 -49.5 8.5t-41 23t-27.5 34.5t-10 42q0 28 8.5 55.5t18.5 48.5t19 34t10 13 q4 0 6 -2.5t2 -5.5q0 -2 -5.5 -11.5t-12 -23t-12 -30t-5.5 -34.5q0 -23 12.5 -40t32 -28.5t45 -17t51.5 -5.5q27 0 52.5 4t47.5 11.5t39 18t27 23.5q11 15 14.5 36.5t3.5 49.5q0 23 -5.5 39t-10.5 27q-3 5 -7.5 10.5t-4.5 7.5t3.5 11t7.5 19t8 18t5 8q5 0 9 -8q2 -4 7 -10 t12 -10.5t16.5 -8t20.5 -3.5h18q9 0 14.5 -2.5t8 -7t3.5 -9.5t1 -11zM261 133q0 -2 -4.5 -9.5t-10 -16t-11.5 -15.5t-8 -7q-1 0 -8 4.5t-15 10t-14.5 11t-6.5 7.5t5 9.5t10.5 16t11 15.5t6.5 7q2 0 9.5 -5t15 -10.5t14 -11t6.5 -6.5z" />
<glyph unicode="&#x647;" horiz-adv-x="354" arabic-form="initial" d="M314 104q0 -32 -11 -49.5t-37 -17.5q-14 0 -31.5 3t-35 8t-34.5 10.5t-30 9.5q-14 -10 -28 -22t-28.5 -22t-31 -17t-35.5 -7h-18q-9 0 -14.5 2.5t-8 7t-3.5 10t-1 11.5t1 11t3.5 9.5t8 7t14.5 2.5h18q22 0 42 7t35 15q-7 4 -12 13t-5 18q0 12 4.5 25t11.5 27t17 28t20 29 q-5 1 -10 1.5t-9 0.5q-3 0 -5 2.5t-2 5.5q0 8 3.5 18.5t9.5 20t13.5 16t16.5 6.5q12 0 29.5 -9t37 -24t38.5 -34.5t33.5 -40.5t24 -42.5t9.5 -39.5zM294 91q-6 11 -15.5 24t-21 26t-24 23.5t-23.5 15.5q-3 -10 -5.5 -19.5t-5.5 -19t-7 -18.5t-10 -17q5 -2 19.5 -5.5 t31.5 -6.5t31.5 -5t21.5 -2q6 0 8 4zM183 154q0 4 -3 11t-7.5 14t-10 11.5t-10.5 4.5q-7 0 -15.5 -5t-15.5 -12.5t-11.5 -16t-4.5 -15.5q0 -8 4.5 -12.5t11 -7.5t14 -5.5t13.5 -6.5q4 0 10.5 5t12 11t9 13t3.5 11z" />
<glyph unicode="&#x647;" horiz-adv-x="338" arabic-form="medial" d="M372 31q0 -6 -0.5 -11.5t-3.5 -10t-8.5 -7t-14.5 -2.5h-18q-23 0 -49.5 -0.5t-51.5 -4.5q5 -6 10 -11.5t9.5 -13t7 -17t2.5 -22.5q0 -17 -4 -36t-13.5 -35t-23.5 -26.5t-34 -10.5q-10 0 -19.5 5.5t-17.5 14.5t-15 19.5t-11 20.5q-6 16 -10.5 33.5t-7 33.5t-3.5 28t-2 17 q-20 3 -40.5 4t-41.5 1h-18q-9 0 -14.5 2.5t-8 7t-3.5 10t-1 11.5t1 11t3.5 9.5t8 7t14.5 2.5h18q25 0 47.5 2.5t37.5 10.5q16 36 33.5 68t34.5 55.5t32 37.5t28 14q6 0 10 -7.5t7 -17.5t4 -21.5t1 -18.5q0 -43 -20 -78t-60 -60q1 0 9 1l20 2.5t26.5 4t29.5 4t29 2.5t25 1 h39q9 0 14.5 -2.5t8.5 -7t3.5 -9.5t0.5 -11zM221 149q0 9 -6.5 18.5t-16.5 9.5q-12 0 -23 -10t-21.5 -24.5t-18.5 -32t-13 -32.5q52 20 75.5 37t23.5 34zM235 -87q0 9 -6.5 20.5t-20.5 22.5t-36 20.5t-52 14.5q0 -13 5 -30.5t14.5 -33.5t23 -27t30.5 -11q4 0 11.5 1.5t14 4 t11.5 7.5t5 11z" />
<glyph unicode="&#x647;" horiz-adv-x="270" arabic-form="final" d="M303 31q0 -6 -1 -11.5t-3.5 -10t-8 -7t-14.5 -2.5h-18q-19 0 -31.5 3.5t-22 14.5t-16.5 30.5t-15 52.5q-7 -7 -15 -14.5t-16.5 -14t-18.5 -11t-23 -4.5q-6 0 -18 2.5t-24 6.5t-21 10t-9 14q0 6 5 17.5t12 24.5t16.5 26t18.5 23q16 18 34.5 30.5t36.5 19.5q0 4 -0.5 9 t-0.5 9v6.5t1 6.5q4 18 10 29.5t11 11.5l1 -5q1 -6 2.5 -15.5t3.5 -22t4 -26.5q3 -22 7.5 -45.5t8.5 -44t6.5 -35t4.5 -17.5q3 -8 5.5 -13.5t7 -9.5t13 -6t22.5 -2h18q9 0 14.5 -2.5t8 -7t3.5 -9.5t1 -11zM168 133q-2 14 -5 31.5t-7 32.5q-19 -5 -33 -15t-23 -19.5t-14 -17 t-5 -9.5q0 -1 8 -3t18.5 -4t20.5 -3t13 -1q5 0 13.5 2t13.5 6z" />
<glyph unicode="&#x648;" horiz-adv-x="279" arabic-form="final" d="M313 31q0 -6 -0.5 -11.5t-3.5 -10t-8.5 -7t-14.5 -2.5h-19h-10h-8q-4 0 -9 -1q-3 -17 -9.5 -38.5t-17 -44.5t-24 -45.5t-29.5 -40.5q-26 -29 -51 -41t-51 -12q-14 0 -33 5.5t-36 12.5t-29 13.5t-12 8.5q0 3 2 5t6 2q3 0 9.5 -1.5t14.5 -3t17 -3t19 -1.5q21 0 43 7 t43 19.5t40 30t34.5 38t26 43t14.5 45.5q-23 2 -42.5 5t-33.5 9t-21.5 15t-7.5 23q0 6 3.5 17.5t9 24.5t13 27t15.5 25t16 18t16 7q13 0 23.5 -11.5t18 -28t12 -35.5t4.5 -33h43q9 0 14.5 -2.5t8.5 -7t3.5 -9.5t0.5 -11zM215 62q0 7 -4.5 15t-11.5 15t-14.5 11.5t-14.5 4.5 q-10 0 -14.5 -7.5t-4.5 -17.5q0 -7 16 -13.5t48 -7.5z" />
<glyph unicode="&#x649;" horiz-adv-x="175" d="M121 129q0 -37 -8.5 -62t-23 -40t-34.5 -21t-43 -6h-18q-9 0 -14.5 2.5t-8 7t-3.5 10t-1 11.5t1 11t3.5 9.5t8 7t14.5 2.5h18q21 0 37.5 3.5t27.5 8.5q10 5 15.5 11.5t5.5 9.5t-5 13t-11 21.5t-11 21t-5 11.5q0 3 4.5 12.5t10.5 19t11.5 18t6.5 10.5q11 -24 16.5 -46.5 t5.5 -45.5z" />
<glyph unicode="&#x649;" horiz-adv-x="179" d="M213 31q0 -6 -1 -11.5t-3.5 -10t-8 -7t-14.5 -2.5h-19q-14 0 -23 4.5t-17 12.5q-5 6 -11.5 16t-10.5 19q-9 -10 -17.5 -19.5t-19.5 -16.5t-24.5 -11.5t-31.5 -4.5h-18q-9 0 -14.5 2.5t-8 7t-3.5 10t-1 11.5t1 11t3.5 9.5t8 7t14.5 2.5h18q22 0 38 4.5t27.5 12t19 15.5 t12.5 15.5t8.5 12t5.5 4.5q3 0 4 -8.5t5 -18.5q2 -6 5 -12.5t7 -12t10 -9t13 -3.5h19q9 0 14.5 -2.5t8 -7t3.5 -9.5t1 -11z" />
<glyph unicode="&#x649;" horiz-adv-x="478" arabic-form="final" d="M511 31q0 -6 -0.5 -11.5t-3.5 -10t-8 -7t-15 -2.5h-52q-14 0 -29 -1t-29 -5q-17 -5 -27 -15t-10 -21q0 -6 3.5 -9t9 -5t14 -3.5t17.5 -2.5q11 -2 25 -6t26.5 -11.5t21 -18t8.5 -25.5q0 -21 -12.5 -40t-33 -34.5t-48 -28t-56.5 -21.5t-58 -13.5t-54 -4.5q-37 0 -66.5 10 t-50 28.5t-31 45t-10.5 59.5q0 27 7.5 54t16.5 48.5t17.5 35.5t10.5 14q3 0 5.5 -1.5t2.5 -4.5q0 -1 -5 -11.5t-11.5 -26t-11.5 -35t-5 -40.5q0 -36 15.5 -57t39.5 -32.5t53 -15t57 -3.5q10 0 29.5 3.5t42.5 9t46.5 13t43 15t32 15t12.5 13.5q0 11 -15.5 16.5t-47.5 6.5 q-14 0 -29 1.5t-27 5.5t-20 11.5t-8 20.5q0 12 6 25t13 23q39 61 94 75q11 3 20.5 3.5t20.5 0.5h37q9 0 14.5 -2.5t8.5 -7t3.5 -9.5t0.5 -11z" />
<glyph unicode="&#x64a;" horiz-adv-x="175" arabic-form="initial" d="M121 129q0 -37 -8.5 -62t-23 -40t-34.5 -21t-43 -6h-18q-9 0 -14.5 2.5t-8 7t-3.5 10t-1 11.5t1 11t3.5 9.5t8 7t14.5 2.5h18q21 0 37.5 3.5t27.5 8.5q10 5 15.5 11.5t5.5 9.5t-5 13t-11 21.5t-11 21t-5 11.5q0 3 4.5 12.5t10.5 19t11.5 18t6.5 10.5q11 -24 16.5 -46.5 t5.5 -45.5zM135 -83q0 -2 -4.5 -9.5t-10 -16t-10.5 -15.5t-7 -7q-1 0 -7.5 4.5t-14.5 10.5q-9 6 -20 15q-2 2 -4 2q-1 0 -3 -2q-7 -11 -13 -19q-5 -7 -10 -13t-6 -6t-8.5 4.5t-15 10.5t-14 11.5t-6.5 6.5q0 2 4.5 9.5t10.5 16t11 15.5t6 7q2 0 8.5 -5t13.5 -10q8 -6 18 -15 q3 -3 4 -3t4 4q7 10 14 19q5 7 10 13t6 6t8.5 -5t15 -11t14 -11.5t6.5 -6.5z" />
<glyph unicode="&#x64a;" horiz-adv-x="179" arabic-form="medial" d="M213 31q0 -6 -1 -11.5t-3.5 -10t-8 -7t-14.5 -2.5h-19q-14 0 -23 4.5t-17 12.5q-5 6 -11.5 16t-10.5 19q-9 -10 -17.5 -19.5t-19.5 -16.5t-24.5 -11.5t-31.5 -4.5h-18q-9 0 -14.5 2.5t-8 7t-3.5 10t-1 11.5t1 11t3.5 9.5t8 7t14.5 2.5h18q22 0 38 4.5t27.5 12t19 15.5 t12.5 15.5t8.5 12t5.5 4.5q3 0 4 -8.5t5 -18.5q2 -6 5 -12.5t7 -12t10 -9t13 -3.5h19q9 0 14.5 -2.5t8 -7t3.5 -9.5t1 -11zM167 -83q0 -2 -4.5 -9.5t-10 -16t-10.5 -15.5t-7 -7q-1 0 -7.5 4.5t-14.5 10.5q-9 6 -20 15q-2 2 -4 2q-1 0 -3 -2q-7 -11 -13 -19q-5 -7 -10 -13 t-6 -6t-8.5 4.5t-15 10.5t-14 11.5t-6.5 6.5q0 2 4.5 9.5t10.5 16t11 15.5t6 7q2 0 8.5 -5t13.5 -10q8 -6 18 -15q3 -3 4 -3t4 4q7 10 14 19q5 7 10 13t6 6t8.5 -5t15 -11t14 -11.5t6.5 -6.5z" />
<glyph unicode="&#x64a;" horiz-adv-x="478" arabic-form="final" d="M511 31q0 -6 -0.5 -11.5t-3.5 -10t-8 -7t-15 -2.5h-52q-14 0 -29 -1t-29 -5q-17 -5 -27 -15t-10 -21q0 -6 3.5 -9t9 -5t14 -3.5t17.5 -2.5q11 -2 25 -6t26.5 -11.5t21 -18t8.5 -25.5q0 -21 -12.5 -40t-33 -34.5t-48 -28t-56.5 -21.5t-58 -13.5t-54 -4.5q-37 0 -66.5 10 t-50 28.5t-31 45t-10.5 59.5q0 27 7.5 54t16.5 48.5t17.5 35.5t10.5 14q3 0 5.5 -1.5t2.5 -4.5q0 -1 -5 -11.5t-11.5 -26t-11.5 -35t-5 -40.5q0 -36 15.5 -57t39.5 -32.5t53 -15t57 -3.5q10 0 29.5 3.5t42.5 9t46.5 13t43 15t32 15t12.5 13.5q0 11 -15.5 16.5t-47.5 6.5 q-14 0 -29 1.5t-27 5.5t-20 11.5t-8 20.5q0 12 6 25t13 23q39 61 94 75q11 3 20.5 3.5t20.5 0.5h37q9 0 14.5 -2.5t8.5 -7t3.5 -9.5t0.5 -11zM295 -339q0 -2 -4.5 -9.5t-10 -16t-10.5 -15.5t-7 -7q-1 0 -7.5 4.5t-14.5 10.5q-9 6 -20 15q-2 2 -4 2q-1 0 -3 -2 q-7 -11 -13 -19q-5 -7 -10 -13t-6 -6t-8.5 4.5t-15 10.5t-14 11.5t-6.5 6.5q0 2 4.5 9.5t10.5 16t11 15.5t6 7q2 0 8.5 -5t13.5 -10q8 -6 18 -15q3 -3 4 -3t4 4q7 10 14 19q5 7 10 13t6 6t8.5 -5t15 -11t14 -11.5t6.5 -6.5z" />
<glyph unicode="&#x66e;" horiz-adv-x="175" d="M121 129q0 -37 -8.5 -62t-23 -40t-34.5 -21t-43 -6h-18q-9 0 -14.5 2.5t-8 7t-3.5 10t-1 11.5t1 11t3.5 9.5t8 7t14.5 2.5h18q21 0 37.5 3.5t27.5 8.5q10 5 15.5 11.5t5.5 9.5t-5 13t-11 21.5t-11 21t-5 11.5q0 3 4.5 12.5t10.5 19t11.5 18t6.5 10.5q11 -24 16.5 -46.5 t5.5 -45.5z" />
<glyph unicode="&#x66e;" horiz-adv-x="179" d="M213 31q0 -6 -1 -11.5t-3.5 -10t-8 -7t-14.5 -2.5h-19q-14 0 -23 4.5t-17 12.5q-5 6 -11.5 16t-10.5 19q-9 -10 -17.5 -19.5t-19.5 -16.5t-24.5 -11.5t-31.5 -4.5h-18q-9 0 -14.5 2.5t-8 7t-3.5 10t-1 11.5t1 11t3.5 9.5t8 7t14.5 2.5h18q22 0 38 4.5t27.5 12t19 15.5 t12.5 15.5t8.5 12t5.5 4.5q3 0 4 -8.5t5 -18.5q2 -6 5 -12.5t7 -12t10 -9t13 -3.5h19q9 0 14.5 -2.5t8 -7t3.5 -9.5t1 -11z" />
<glyph unicode="&#x66e;" horiz-adv-x="672" d="M706 31q0 -6 -0.5 -11.5t-3 -10t-7 -7t-12.5 -2.5h-20q-16 0 -28 1t-22 6t-18.5 13.5t-15.5 24.5q-16 -19 -48 -34t-76 -26.5t-98 -18t-114 -6.5q-43 0 -80 8t-64.5 24t-43.5 41t-16 60q0 19 5 38t11.5 35t13 25.5t8.5 9.5q1 0 4 -1.5t3 -4.5q0 -2 -3 -8t-6.5 -14.5 t-6.5 -18.5t-3 -20q0 -25 15 -45t42.5 -33.5t66 -21t86.5 -7.5q41 0 83.5 3t81 9.5t70 17t50.5 25.5q10 7 13.5 14.5t7.5 7.5q1 0 2 -3.5t3.5 -9t6 -10.5t8.5 -9t12 -6t15.5 -3t17 -1.5t17.5 -0.5h20q8 0 12.5 -2.5t7 -7t3 -9.5t0.5 -11z" />
<glyph unicode="&#x66f;" horiz-adv-x="209" d="M182 134q0 -9 -1.5 -19t-4.5 -20t-7.5 -20t-11.5 -18t-20.5 -18t-33 -18.5t-42.5 -14.5t-49 -6h-18q-9 0 -14.5 2.5t-8 7t-3.5 10t-1 11.5t1 11t3.5 9.5t8 7t14.5 2.5h18q31 0 58.5 6.5t48 15.5t32.5 19t12 17t-6 17.5t-13 18.5q-4 -8 -9 -17t-12.5 -16.5t-18 -12.5 t-24.5 -5q-15 0 -24.5 5t-14.5 13t-7 18.5t-2 22.5q0 5 2.5 16t6 24.5t9.5 28t13.5 26.5t15.5 19.5t18 7.5t25 -13t28.5 -34.5t22.5 -48.5t9 -55zM111 191q0 1 -3.5 4.5t-9 7.5t-10.5 6.5t-9 2.5q-5 0 -10 -6t-5 -11q0 -6 6 -14t15 -8q3 0 7.5 2t8.5 5t7 6t3 5z" />
<glyph unicode="&#x66f;" horiz-adv-x="289" d="M322 31q0 -6 -1 -11.5t-3.5 -10t-8 -7t-14.5 -2.5h-18q-21 0 -38 2.5t-33 7.5t-32 12t-36 16q-21 -9 -37 -16t-30 -12t-28 -7.5t-31 -2.5h-18q-9 0 -14.5 2.5t-8 7t-3.5 10t-1 11.5t1 11t3.5 9.5t8 7t14.5 2.5h18q18 0 38.5 3.5t37.5 11.5q-1 5 -2 13t-1 15t3.5 19t10 26 t15.5 28.5t19 27.5q17 22 35 35.5t29 13.5q12 0 21.5 -10t16.5 -23.5t10.5 -28.5t3.5 -25q0 -23 -10 -47.5t-30 -43.5q34 -15 68 -15h18q9 0 14.5 -2.5t8 -7t3.5 -9.5t1 -11zM221 138q0 8 -3.5 16.5t-10 15t-15 10.5t-18.5 4q-6 0 -16 -4t-19 -10t-15.5 -13t-6.5 -13 q0 -7 4 -13t9.5 -11.5t12.5 -11t14 -10.5q13 5 24.5 9.5t20.5 9.5t14 10t5 11z" />
<glyph unicode="&#x66f;" horiz-adv-x="443" d="M477 31q0 -6 -1 -11.5t-3.5 -10t-8 -7t-14.5 -2.5h-44q-1 -9 -3.5 -19t-5.5 -20t-7.5 -19.5t-9.5 -17.5q-15 -23 -37.5 -44.5t-51 -37.5t-63 -26t-72.5 -10q-21 0 -42 8t-37.5 23t-27 37t-10.5 51q0 32 8.5 59t19 46.5t19.5 30.5t11 11q3 0 5.5 -2.5t2.5 -5.5 q0 -1 -6 -11t-14 -24t-14.5 -32.5t-6.5 -37.5q0 -23 11 -39.5t29 -27t40 -15.5t44 -5t46 4.5t47.5 12.5t44 20t34.5 26q7 7 11 16t5.5 18t2 17t0.5 14h-11t-11 -0.5t-11 -0.5q-12 0 -24.5 1.5t-22.5 6.5t-16.5 13.5t-6.5 21.5q0 11 6.5 29.5t17 36.5t23.5 31t27 13 q11 0 20.5 -9.5t17.5 -23t13.5 -29.5t7.5 -28q5 0 10.5 -0.5t12.5 -0.5h18q9 0 14.5 -2.5t8 -7t3.5 -9.5t1 -11zM363 59q-2 7 -6 13.5t-9.5 11.5t-11 8t-9.5 3q-8 0 -13 -6t-5 -13q0 -5 5.5 -8.5t14 -5t18 -2.5t16.5 -1z" />
<glyph unicode="&#x671;" horiz-adv-x="176" arabic-form="final" d="M210 31q0 -6 -1 -11.5t-3.5 -10t-8 -7t-14.5 -2.5h-18q-16 0 -31 3t-27 12.5t-20 25.5t-10 42l-4.5 45t-5.5 52.5t-6 56.5t-6 56q-3 22 -6 43.5t-5 39.5t-3.5 32t-1.5 23q0 2 4 11t9.5 18t10 16.5t6.5 7.5q1 0 2.5 -2t1.5 -8q2 -27 5.5 -64t7 -77.5t7.5 -81.5t7.5 -74.5 t7 -57t6.5 -30.5q4 -9 9.5 -15t12.5 -9t14.5 -3.5t14.5 -0.5h18q9 0 14.5 -2.5t8 -7t3.5 -9.5t1 -11zM152 590q0 -4 -4 -12.5t-13.5 -16.5t-23 -13.5t-32.5 -5.5h-12.5t-21 0.5t-22 1t-15.5 0.5q-7 0 -11 -1t-6 -2.5t-3 -3.5l-2 -4q-1 -3 -3 -3t-2 5q0 3 1 8t4 9.5t8 8.5 t12 7q8 2 21 2.5t25 0.5q7 14 13.5 25t14.5 19t17.5 13t23.5 5t22.5 -10t8.5 -33zM126 589q0 6 -5 9.5t-14 3.5q-4 0 -9.5 -3.5t-11 -8t-10 -10t-7.5 -9.5h18t18.5 2t14.5 6t6 10z" />
<glyph unicode="&#x672;" horiz-adv-x="176" d="M210 31q0 -6 -1 -11.5t-3.5 -10t-8 -7t-14.5 -2.5h-18q-16 0 -31 3t-27 12.5t-20 25.5t-10 42l-4.5 45t-5.5 52.5t-6 56.5t-6 56q-3 22 -6 43.5t-5 39.5t-3.5 32t-1.5 23q0 2 4 11t9.5 18t10 16.5t6.5 7.5q1 0 2.5 -2t1.5 -8q2 -27 5.5 -64t7 -77.5t7.5 -81.5t7.5 -74.5 t7 -57t6.5 -30.5q4 -9 9.5 -15t12.5 -9t14.5 -3.5t14.5 -0.5h18q9 0 14.5 -2.5t8 -7t3.5 -9.5t1 -11zM154 609q0 -1 -1.5 -6t-3.5 -9.5t-5.5 -9t-7.5 -5.5q-7 -1 -25 -8t-37 -15q-24 -10 -39.5 -17t-27.5 -7q-8 0 -14.5 2.5t-11.5 6t-10.5 6t-12.5 2.5t-13.5 -2t-12 -4 t-9 -3.5t-5.5 -1.5q-4 0 -4.5 1.5t-0.5 4.5q0 1 4.5 6t13 10t18.5 9t20 4q11 0 17.5 -1.5t11.5 -4t8.5 -4.5t9.5 -2q5 0 10 2t10 5.5t10 6.5t10 5q-4 1 -9 4t-9 6.5t-7 9t-3 12.5q0 6 3 13t7.5 14.5t10.5 14.5t12 13q9 9 15.5 14t11.5 7.5t9.5 3t9.5 0.5q10 0 15.5 -8.5 t5.5 -18.5q0 -3 -1.5 -8t-3.5 -10t-4 -8.5t-3 -3.5q-2 0 -6 1.5t-9 3.5t-10.5 4t-9.5 2q-9 0 -16.5 -6t-7.5 -11q0 -1 5.5 -5.5t13.5 -9t17.5 -8.5t16.5 -4q6 1 12.5 2.5t12.5 3l10 2.5t6 1q3 0 3 -2z" />
<glyph unicode="&#x673;" horiz-adv-x="176" d="M210 31q0 -6 -1 -11.5t-3.5 -10t-8 -7t-14.5 -2.5h-18q-16 0 -31 3t-27 12.5t-20 25.5t-10 42l-4.5 45t-5.5 52.5t-6 56.5t-6 56q-3 22 -6 43.5t-5 39.5t-3.5 32t-1.5 23q0 2 4 11t9.5 18t10 16.5t6.5 7.5q1 0 2.5 -2t1.5 -8q2 -27 5.5 -64t7 -77.5t7.5 -81.5t7.5 -74.5 t7 -57t6.5 -30.5q4 -9 9.5 -15t12.5 -9t14.5 -3.5t14.5 -0.5h18q9 0 14.5 -2.5t8 -7t3.5 -9.5t1 -11zM199 -131q0 -1 -1.5 -6t-3.5 -9.5t-5.5 -9t-7.5 -5.5q-7 -1 -25 -8t-37 -15q-24 -10 -39.5 -17t-27.5 -7q-8 0 -14.5 2.5t-11.5 6t-10.5 6t-12.5 2.5t-13.5 -2t-12 -4 t-9 -3.5t-5.5 -1.5q-4 0 -4.5 1.5t-0.5 4.5q0 1 4.5 6t13 10t18.5 9t20 4q11 0 17.5 -1.5t11.5 -4t8.5 -4.5t9.5 -2q5 0 10 2t10 5.5t10 6.5t10 5q-4 1 -9 4t-9 6.5t-7 9t-3 12.5q0 6 3 13t7.5 14.5t10.5 14.5t12 13q9 9 15.5 14t11.5 7.5t9.5 3t9.5 0.5q10 0 15.5 -8.5 t5.5 -18.5q0 -3 -1.5 -8t-3.5 -10t-4 -8.5t-3 -3.5q-2 0 -6 1.5t-9 3.5t-10.5 4t-9.5 2q-9 0 -16.5 -6t-7.5 -11q0 -1 5.5 -5.5t13.5 -9t17.5 -8.5t16.5 -4q6 1 12.5 2.5t12.5 3l10 2.5t6 1q3 0 3 -2z" />
<glyph unicode="&#x675;" horiz-adv-x="176" d="M210 31q0 -6 -1 -11.5t-3.5 -10t-8 -7t-14.5 -2.5h-18q-16 0 -31 3t-27 12.5t-20 25.5t-10 42l-4.5 45t-5.5 52.5t-6 56.5t-6 56q-3 22 -6 43.5t-5 39.5t-3.5 32t-1.5 23q0 2 4 11t9.5 18t10 16.5t6.5 7.5q1 0 2.5 -2t1.5 -8q2 -27 5.5 -64t7 -77.5t7.5 -81.5t7.5 -74.5 t7 -57t6.5 -30.5q4 -9 9.5 -15t12.5 -9t14.5 -3.5t14.5 -0.5h18q9 0 14.5 -2.5t8 -7t3.5 -9.5t1 -11zM209 607q0 -1 -1 -5.5t-3.5 -9t-6 -9t-8.5 -6.5l-9 -3t-14 -5t-18 -7t-20 -7q-24 -9 -36 -14q-10 -6 -14 -6t-4 3q0 2 1.5 6t3 7.5t3.5 7.5t3 5t4.5 3.5l7 5t7 3.5t5.5 2 q-4 1 -8.5 4t-8.5 7t-7 9.5t-3 12.5q0 6 3 13t8 14t10.5 14t11.5 12q9 9 16 14.5t12 7.5t9.5 2.5t8.5 0.5q11 0 16 -8.5t5 -18.5q0 -2 -1 -7t-3.5 -10t-4.5 -8t-4 -3t-5.5 1.5t-8.5 3.5t-10.5 3.5t-9.5 1.5q-8 0 -16 -5.5t-8 -11.5q0 -1 5.5 -5t13.5 -9t17 -8.5t16 -4.5 q6 1 13 3t13 3t10.5 2t5.5 2q1 0 2 -0.5t1 -2.5z" />
<glyph unicode="&#x676;" horiz-adv-x="279" d="M313 31q0 -6 -0.5 -11.5t-3.5 -10t-8.5 -7t-14.5 -2.5h-19h-10h-8q-4 0 -9 -1q-3 -17 -9.5 -38.5t-17 -44.5t-24 -45.5t-29.5 -40.5q-26 -29 -51 -41t-51 -12q-14 0 -33 5.5t-36 12.5t-29 13.5t-12 8.5q0 3 2 5t6 2q3 0 9.5 -1.5t14.5 -3t17 -3t19 -1.5q21 0 43 7 t43 19.5t40 30t34.5 38t26 43t14.5 45.5q-23 2 -42.5 5t-33.5 9t-21.5 15t-7.5 23q0 6 3.5 17.5t9 24.5t13 27t15.5 25t16 18t16 7q13 0 23.5 -11.5t18 -28t12 -35.5t4.5 -33h43q9 0 14.5 -2.5t8.5 -7t3.5 -9.5t0.5 -11zM215 62q0 7 -4.5 15t-11.5 15t-14.5 11.5t-14.5 4.5 q-10 0 -14.5 -7.5t-4.5 -17.5q0 -7 16 -13.5t48 -7.5zM326 292q0 -1 -1 -5.5t-3.5 -9t-6 -9t-8.5 -6.5l-9 -3t-14 -5t-18 -7t-20 -7q-24 -9 -36 -14q-10 -6 -14 -6t-4 3q0 2 1.5 6t3 7.5t3.5 7.5t3 5t4.5 3.5l7 5t7 3.5t5.5 2q-4 1 -8.5 4t-8.5 7t-7 9.5t-3 12.5q0 6 3 13 t8 14t10.5 14t11.5 12q9 9 16 14.5t12 7.5t9.5 2.5t8.5 0.5q11 0 16 -8.5t5 -18.5q0 -2 -1 -7t-3.5 -10t-4.5 -8t-4 -3t-5.5 1.5t-8.5 3.5t-10.5 3.5t-9.5 1.5q-8 0 -16 -5.5t-8 -11.5q0 -1 5.5 -5t13.5 -9t17 -8.5t16 -4.5q6 1 13 3t13 3t10.5 2t5.5 2q1 0 2 -0.5t1 -2.5z " />
<glyph unicode="&#x677;" horiz-adv-x="279" d="M313 31q0 -6 -0.5 -11.5t-3.5 -10t-8.5 -7t-14.5 -2.5h-19h-10h-8q-4 0 -9 -1q-3 -17 -9.5 -38.5t-17 -44.5t-24 -45.5t-29.5 -40.5q-26 -29 -51 -41t-51 -12q-14 0 -33 5.5t-36 12.5t-29 13.5t-12 8.5q0 3 2 5t6 2q3 0 9.5 -1.5t14.5 -3t17 -3t19 -1.5q21 0 43 7 t43 19.5t40 30t34.5 38t26 43t14.5 45.5q-23 2 -42.5 5t-33.5 9t-21.5 15t-7.5 23q0 6 3.5 17.5t9 24.5t13 27t15.5 25t16 18t16 7q13 0 23.5 -11.5t18 -28t12 -35.5t4.5 -33h43q9 0 14.5 -2.5t8.5 -7t3.5 -9.5t0.5 -11zM215 62q0 7 -4.5 15t-11.5 15t-14.5 11.5t-14.5 4.5 q-10 0 -14.5 -7.5t-4.5 -17.5q0 -7 16 -13.5t48 -7.5zM145 403q10 0 16.5 -5t9.5 -12.5t4 -14.5t1 -11q0 -13 -4 -26.5t-11 -27.5q7 -5 13.5 -9t9.5 -6q2 -1 2 -4q0 -4 -2 -10t-4 -11.5t-5 -9.5t-4 -4q-3 0 -12.5 4.5t-20.5 12.5q-10 -13 -21 -24t-22 -19.5t-20.5 -13 t-17.5 -4.5t-16 2t-14 5q31 17 53.5 35.5t37.5 34.5q-11 10 -18.5 20.5t-7.5 20.5t4.5 23.5t12 25.5t17 20t19.5 8zM118 354q0 -7 7 -15.5t17 -16.5q4 10 4 17q0 10 -7 16t-14 6q-7 -1 -7 -7zM343 336q0 -1 -1 -5.5t-3.5 -9t-6 -9t-8.5 -6.5l-9 -3t-14 -5t-18 -7t-20 -7 q-24 -9 -36 -14q-10 -6 -14 -6t-4 3q0 2 1.5 6t3 7.5t3.5 7.5t3 5t4.5 3.5l7 5t7 3.5t5.5 2q-4 1 -8.5 4t-8.5 7t-7 9.5t-3 12.5q0 6 3 13t8 14t10.5 14t11.5 12q9 9 16 14.5t12 7.5t9.5 2.5t8.5 0.5q11 0 16 -8.5t5 -18.5q0 -2 -1 -7t-3.5 -10t-4.5 -8t-4 -3t-5.5 1.5 t-8.5 3.5t-10.5 3.5t-9.5 1.5q-8 0 -16 -5.5t-8 -11.5q0 -1 5.5 -5t13.5 -9t17 -8.5t16 -4.5q6 1 13 3t13 3t10.5 2t5.5 2q1 0 2 -0.5t1 -2.5z" />
<glyph unicode="&#x678;" horiz-adv-x="175" d="M121 129q0 -37 -8.5 -62t-23 -40t-34.5 -21t-43 -6h-18q-9 0 -14.5 2.5t-8 7t-3.5 10t-1 11.5t1 11t3.5 9.5t8 7t14.5 2.5h18q21 0 37.5 3.5t27.5 8.5q10 5 15.5 11.5t5.5 9.5t-5 13t-11 21.5t-11 21t-5 11.5q0 3 4.5 12.5t10.5 19t11.5 18t6.5 10.5q11 -24 16.5 -46.5 t5.5 -45.5zM225 344q0 -1 -1 -5.5t-3.5 -9t-6 -9t-8.5 -6.5l-9 -3t-14 -5t-18 -7t-20 -7q-24 -9 -36 -14q-10 -6 -14 -6t-4 3q0 2 1.5 6t3 7.5t3.5 7.5t3 5t4.5 3.5l7 5t7 3.5t5.5 2q-4 1 -8.5 4t-8.5 7t-7 9.5t-3 12.5q0 6 3 13t8 14t10.5 14t11.5 12q9 9 16 14.5t12 7.5 t9.5 2.5t8.5 0.5q11 0 16 -8.5t5 -18.5q0 -2 -1 -7t-3.5 -10t-4.5 -8t-4 -3t-5.5 1.5t-8.5 3.5t-10.5 3.5t-9.5 1.5q-8 0 -16 -5.5t-8 -11.5q0 -1 5.5 -5t13.5 -9t17 -8.5t16 -4.5q6 1 13 3t13 3t10.5 2t5.5 2q1 0 2 -0.5t1 -2.5z" />
<glyph unicode="&#x678;" horiz-adv-x="179" d="M213 31q0 -6 -1 -11.5t-3.5 -10t-8 -7t-14.5 -2.5h-19q-14 0 -23 4.5t-17 12.5q-5 6 -11.5 16t-10.5 19q-9 -10 -17.5 -19.5t-19.5 -16.5t-24.5 -11.5t-31.5 -4.5h-18q-9 0 -14.5 2.5t-8 7t-3.5 10t-1 11.5t1 11t3.5 9.5t8 7t14.5 2.5h18q22 0 38 4.5t27.5 12t19 15.5 t12.5 15.5t8.5 12t5.5 4.5q3 0 4 -8.5t5 -18.5q2 -6 5 -12.5t7 -12t10 -9t13 -3.5h19q9 0 14.5 -2.5t8 -7t3.5 -9.5t1 -11zM233 247q0 -1 -1 -5.5t-3.5 -9t-6 -9t-8.5 -6.5l-9 -3t-14 -5t-18 -7t-20 -7q-24 -9 -36 -14q-10 -6 -14 -6t-4 3q0 2 1.5 6t3 7.5t3.5 7.5t3 5 t4.5 3.5l7 5t7 3.5t5.5 2q-4 1 -8.5 4t-8.5 7t-7 9.5t-3 12.5q0 6 3 13t8 14t10.5 14t11.5 12q9 9 16 14.5t12 7.5t9.5 2.5t8.5 0.5q11 0 16 -8.5t5 -18.5q0 -2 -1 -7t-3.5 -10t-4.5 -8t-4 -3t-5.5 1.5t-8.5 3.5t-10.5 3.5t-9.5 1.5q-8 0 -16 -5.5t-8 -11.5q0 -1 5.5 -5 t13.5 -9t17 -8.5t16 -4.5q6 1 13 3t13 3t10.5 2t5.5 2q1 0 2 -0.5t1 -2.5z" />
<glyph unicode="&#x678;" horiz-adv-x="478" d="M511 31q0 -6 -0.5 -11.5t-3.5 -10t-8 -7t-15 -2.5h-52q-14 0 -29 -1t-29 -5q-17 -5 -27 -15t-10 -21q0 -6 3.5 -9t9 -5t14 -3.5t17.5 -2.5q11 -2 25 -6t26.5 -11.5t21 -18t8.5 -25.5q0 -21 -12.5 -40t-33 -34.5t-48 -28t-56.5 -21.5t-58 -13.5t-54 -4.5q-37 0 -66.5 10 t-50 28.5t-31 45t-10.5 59.5q0 27 7.5 54t16.5 48.5t17.5 35.5t10.5 14q3 0 5.5 -1.5t2.5 -4.5q0 -1 -5 -11.5t-11.5 -26t-11.5 -35t-5 -40.5q0 -36 15.5 -57t39.5 -32.5t53 -15t57 -3.5q10 0 29.5 3.5t42.5 9t46.5 13t43 15t32 15t12.5 13.5q0 11 -15.5 16.5t-47.5 6.5 q-14 0 -29 1.5t-27 5.5t-20 11.5t-8 20.5q0 12 6 25t13 23q39 61 94 75q11 3 20.5 3.5t20.5 0.5h37q9 0 14.5 -2.5t8.5 -7t3.5 -9.5t0.5 -11zM366 155q0 -1 -1 -5.5t-3.5 -9t-6 -9t-8.5 -6.5l-9 -3t-14 -5t-18 -7t-20 -7q-24 -9 -36 -14q-10 -6 -14 -6t-4 3q0 2 1.5 6t3 7.5 t3.5 7.5t3 5t4.5 3.5l7 5t7 3.5t5.5 2q-4 1 -8.5 4t-8.5 7t-7 9.5t-3 12.5q0 6 3 13t8 14t10.5 14t11.5 12q9 9 16 14.5t12 7.5t9.5 2.5t8.5 0.5q11 0 16 -8.5t5 -18.5q0 -2 -1 -7t-3.5 -10t-4.5 -8t-4 -3t-5.5 1.5t-8.5 3.5t-10.5 3.5t-9.5 1.5q-8 0 -16 -5.5t-8 -11.5 q0 -1 5.5 -5t13.5 -9t17 -8.5t16 -4.5q6 1 13 3t13 3t10.5 2t5.5 2q1 0 2 -0.5t1 -2.5z" />
<glyph unicode="&#x679;" horiz-adv-x="175" arabic-form="initial" d="M121 129q0 -37 -8.5 -62t-23 -40t-34.5 -21t-43 -6h-18q-9 0 -14.5 2.5t-8 7t-3.5 10t-1 11.5t1 11t3.5 9.5t8 7t14.5 2.5h18q21 0 37.5 3.5t27.5 8.5q10 5 15.5 11.5t5.5 9.5t-5 13t-11 21.5t-11 21t-5 11.5q0 3 4.5 12.5t10.5 19t11.5 18t6.5 10.5q11 -24 16.5 -46.5 t5.5 -45.5zM185 357q0 -17 -8.5 -30t-22 -22.5t-31 -16.5t-35.5 -10.5t-36.5 -5.5t-32.5 -2q-6 0 -12.5 4t-12.5 9.5t-10 11.5t-4 9q0 4 4 5q5 0 14.5 -1.5t18.5 -1.5q10 0 16 4.5t9 12.5q2 7 3 14t1 11q0 17 -2.5 32.5t-5.5 31.5t-5 32t-2 33q0 6 1 11.5t3.5 10.5t5 8 t5.5 3q1 0 4 -5t6.5 -10.5t6.5 -10.5t3 -6q-4 -3 -7.5 -8t-3.5 -15t1.5 -18.5t3.5 -18.5t3.5 -21.5t1.5 -26.5q0 -13 -2 -29q47 56 86 56q17 0 26.5 -11.5t9.5 -28.5zM163 342q0 2 -3 4.5t-7 4t-9.5 2.5t-9.5 1q-9 0 -17.5 -2t-17 -7t-18 -14t-20.5 -22q29 2 48.5 7.5 t31.5 10.5t17 9.5t5 5.5z" />
<glyph unicode="&#x679;" horiz-adv-x="179" arabic-form="medial" d="M213 31q0 -6 -1 -11.5t-3.5 -10t-8 -7t-14.5 -2.5h-19q-14 0 -23 4.5t-17 12.5q-5 6 -11.5 16t-10.5 19q-9 -10 -17.5 -19.5t-19.5 -16.5t-24.5 -11.5t-31.5 -4.5h-18q-9 0 -14.5 2.5t-8 7t-3.5 10t-1 11.5t1 11t3.5 9.5t8 7t14.5 2.5h18q22 0 38 4.5t27.5 12t19 15.5 t12.5 15.5t8.5 12t5.5 4.5q3 0 4 -8.5t5 -18.5q2 -6 5 -12.5t7 -12t10 -9t13 -3.5h19q9 0 14.5 -2.5t8 -7t3.5 -9.5t1 -11zM193 260q0 -17 -8.5 -30t-22 -22.5t-31 -16.5t-35.5 -10.5t-36.5 -5.5t-32.5 -2q-6 0 -12.5 4t-12.5 9.5t-10 11.5t-4 9q0 4 4 5q5 0 14.5 -1.5 t18.5 -1.5q10 0 16 4.5t9 12.5q2 7 3 14t1 11q0 17 -2.5 32.5t-5.5 31.5t-5 32t-2 33q0 6 1 11.5t3.5 10.5t5 8t5.5 3q1 0 4 -5t6.5 -10.5t6.5 -10.5t3 -6q-4 -3 -7.5 -8t-3.5 -15t1.5 -18.5t3.5 -18.5t3.5 -21.5t1.5 -26.5q0 -13 -2 -29q47 56 86 56q17 0 26.5 -11.5 t9.5 -28.5zM171 245q0 2 -3 4.5t-7 4t-9.5 2.5t-9.5 1q-9 0 -17.5 -2t-17 -7t-18 -14t-20.5 -22q29 2 48.5 7.5t31.5 10.5t17 9.5t5 5.5z" />
<glyph unicode="&#x679;" horiz-adv-x="672" arabic-form="final" d="M706 31q0 -6 -0.5 -11.5t-3 -10t-7 -7t-12.5 -2.5h-20q-16 0 -28 1t-22 6t-18.5 13.5t-15.5 24.5q-16 -19 -48 -34t-76 -26.5t-98 -18t-114 -6.5q-43 0 -80 8t-64.5 24t-43.5 41t-16 60q0 19 5 38t11.5 35t13 25.5t8.5 9.5q1 0 4 -1.5t3 -4.5q0 -2 -3 -8t-6.5 -14.5 t-6.5 -18.5t-3 -20q0 -25 15 -45t42.5 -33.5t66 -21t86.5 -7.5q41 0 83.5 3t81 9.5t70 17t50.5 25.5q10 7 13.5 14.5t7.5 7.5q1 0 2 -3.5t3.5 -9t6 -10.5t8.5 -9t12 -6t15.5 -3t17 -1.5t17.5 -0.5h20q8 0 12.5 -2.5t7 -7t3 -9.5t0.5 -11zM420 257q0 -17 -8.5 -30t-22 -22.5 t-31 -16.5t-35.5 -10.5t-36.5 -5.5t-32.5 -2q-6 0 -12.5 4t-12.5 9.5t-10 11.5t-4 9q0 4 4 5q5 0 14.5 -1.5t18.5 -1.5q10 0 16 4.5t9 12.5q2 7 3 14t1 11q0 17 -2.5 32.5t-5.5 31.5t-5 32t-2 33q0 6 1 11.5t3.5 10.5t5 8t5.5 3q1 0 4 -5t6.5 -10.5t6.5 -10.5t3 -6 q-4 -3 -7.5 -8t-3.5 -15t1.5 -18.5t3.5 -18.5t3.5 -21.5t1.5 -26.5q0 -13 -2 -29q47 56 86 56q17 0 26.5 -11.5t9.5 -28.5zM398 242q0 2 -3 4.5t-7 4t-9.5 2.5t-9.5 1q-9 0 -17.5 -2t-17 -7t-18 -14t-20.5 -22q29 2 48.5 7.5t31.5 10.5t17 9.5t5 5.5z" />
<glyph unicode="&#x67a;" horiz-adv-x="175" arabic-form="initial" d="M121 129q0 -37 -8.5 -62t-23 -40t-34.5 -21t-43 -6h-18q-9 0 -14.5 2.5t-8 7t-3.5 10t-1 11.5t1 11t3.5 9.5t8 7t14.5 2.5h18q21 0 37.5 3.5t27.5 8.5q10 5 15.5 11.5t5.5 9.5t-5 13t-11 21.5t-11 21t-5 11.5q0 3 4.5 12.5t10.5 19t11.5 18t6.5 10.5q11 -24 16.5 -46.5 t5.5 -45.5zM123 318q0 -1 -4.5 -9t-10 -16t-10.5 -15t-7 -7q-1 0 -8.5 4.5t-15 10t-14 11t-6.5 7.5q0 1 3 7t7.5 13t9.5 14t9 11q3 4 3 6t-2 4l-10 7.5t-12 8.5t-9.5 8t-3.5 5q0 2 4.5 9.5t10 16t10.5 15.5t7 7t9.5 -5t15 -10.5t13.5 -11t6 -6.5t-3 -7t-7.5 -13.5 t-9.5 -14.5t-8 -10l-3 -3t-2 -5q0 -2 2 -3q4 -2 10.5 -7t12 -9.5t9.5 -8t4 -4.5z" />
<glyph unicode="&#x67a;" horiz-adv-x="179" arabic-form="medial" d="M213 31q0 -6 -1 -11.5t-3.5 -10t-8 -7t-14.5 -2.5h-19q-14 0 -23 4.5t-17 12.5q-5 6 -11.5 16t-10.5 19q-9 -10 -17.5 -19.5t-19.5 -16.5t-24.5 -11.5t-31.5 -4.5h-18q-9 0 -14.5 2.5t-8 7t-3.5 10t-1 11.5t1 11t3.5 9.5t8 7t14.5 2.5h18q22 0 38 4.5t27.5 12t19 15.5 t12.5 15.5t8.5 12t5.5 4.5q3 0 4 -8.5t5 -18.5q2 -6 5 -12.5t7 -12t10 -9t13 -3.5h19q9 0 14.5 -2.5t8 -7t3.5 -9.5t1 -11zM130 221q0 -1 -4.5 -9t-10 -16t-10.5 -15t-7 -7q-1 0 -8.5 4.5t-15 10t-14 11t-6.5 7.5q0 1 3 7t7.5 13t9.5 14t9 11q3 4 3 6t-2 4l-10 7.5t-12 8.5 t-9.5 8t-3.5 5q0 2 4.5 9.5t10 16t10.5 15.5t7 7t9.5 -5t15 -10.5t13.5 -11t6 -6.5t-3 -7t-7.5 -13.5t-9.5 -14.5t-8 -10l-3 -3t-2 -5q0 -2 2 -3q4 -2 10.5 -7t12 -9.5t9.5 -8t4 -4.5z" />
<glyph unicode="&#x67a;" horiz-adv-x="672" arabic-form="final" d="M706 31q0 -6 -0.5 -11.5t-3 -10t-7 -7t-12.5 -2.5h-20q-16 0 -28 1t-22 6t-18.5 13.5t-15.5 24.5q-16 -19 -48 -34t-76 -26.5t-98 -18t-114 -6.5q-43 0 -80 8t-64.5 24t-43.5 41t-16 60q0 19 5 38t11.5 35t13 25.5t8.5 9.5q1 0 4 -1.5t3 -4.5q0 -2 -3 -8t-6.5 -14.5 t-6.5 -18.5t-3 -20q0 -25 15 -45t42.5 -33.5t66 -21t86.5 -7.5q41 0 83.5 3t81 9.5t70 17t50.5 25.5q10 7 13.5 14.5t7.5 7.5q1 0 2 -3.5t3.5 -9t6 -10.5t8.5 -9t12 -6t15.5 -3t17 -1.5t17.5 -0.5h20q8 0 12.5 -2.5t7 -7t3 -9.5t0.5 -11zM357 218q0 -1 -4.5 -9t-10 -16 t-10.5 -15t-7 -7q-1 0 -8.5 4.5t-15 10t-14 11t-6.5 7.5q0 1 3 7t7.5 13t9.5 14t9 11q3 4 3 6t-2 4l-10 7.5t-12 8.5t-9.5 8t-3.5 5q0 2 4.5 9.5t10 16t10.5 15.5t7 7t9.5 -5t15 -10.5t13.5 -11t6 -6.5t-3 -7t-7.5 -13.5t-9.5 -14.5t-8 -10l-3 -3t-2 -5q0 -2 2 -3 q4 -2 10.5 -7t12 -9.5t9.5 -8t4 -4.5z" />
<glyph unicode="&#x67b;" horiz-adv-x="175" arabic-form="initial" d="M121 129q0 -37 -8.5 -62t-23 -40t-34.5 -21t-43 -6h-18q-9 0 -14.5 2.5t-8 7t-3.5 10t-1 11.5t1 11t3.5 9.5t8 7t14.5 2.5h18q21 0 37.5 3.5t27.5 8.5q10 5 15.5 11.5t5.5 9.5t-5 13t-11 21.5t-11 21t-5 11.5q0 3 4.5 12.5t10.5 19t11.5 18t6.5 10.5q11 -24 16.5 -46.5 t5.5 -45.5zM98 -167q0 -1 -4.5 -9t-10 -16t-10.5 -15t-7 -7q-1 0 -8.5 4.5t-15 10t-14 11t-6.5 7.5q0 1 3 7t7.5 13t9.5 14t9 11q3 4 3 6t-2 4l-10 7.5t-12 8.5t-9.5 8t-3.5 5q0 2 4.5 9.5t10 16t10.5 15.5t7 7t9.5 -5t15 -10.5t13.5 -11t6 -6.5t-3 -7t-7.5 -13.5 t-9.5 -14.5t-8 -10l-3 -3t-2 -5q0 -2 2 -3q4 -2 10.5 -7t12 -9.5t9.5 -8t4 -4.5z" />
<glyph unicode="&#x67b;" horiz-adv-x="179" arabic-form="medial" d="M213 31q0 -6 -1 -11.5t-3.5 -10t-8 -7t-14.5 -2.5h-19q-14 0 -23 4.5t-17 12.5q-5 6 -11.5 16t-10.5 19q-9 -10 -17.5 -19.5t-19.5 -16.5t-24.5 -11.5t-31.5 -4.5h-18q-9 0 -14.5 2.5t-8 7t-3.5 10t-1 11.5t1 11t3.5 9.5t8 7t14.5 2.5h18q22 0 38 4.5t27.5 12t19 15.5 t12.5 15.5t8.5 12t5.5 4.5q3 0 4 -8.5t5 -18.5q2 -6 5 -12.5t7 -12t10 -9t13 -3.5h19q9 0 14.5 -2.5t8 -7t3.5 -9.5t1 -11zM130 -167q0 -1 -4.5 -9t-10 -16t-10.5 -15t-7 -7q-1 0 -8.5 4.5t-15 10t-14 11t-6.5 7.5q0 1 3 7t7.5 13t9.5 14t9 11q3 4 3 6t-2 4l-10 7.5t-12 8.5 t-9.5 8t-3.5 5q0 2 4.5 9.5t10 16t10.5 15.5t7 7t9.5 -5t15 -10.5t13.5 -11t6 -6.5t-3 -7t-7.5 -13.5t-9.5 -14.5t-8 -10l-3 -3t-2 -5q0 -2 2 -3q4 -2 10.5 -7t12 -9.5t9.5 -8t4 -4.5z" />
<glyph unicode="&#x67b;" horiz-adv-x="672" arabic-form="final" d="M706 31q0 -6 -0.5 -11.5t-3 -10t-7 -7t-12.5 -2.5h-20q-16 0 -28 1t-22 6t-18.5 13.5t-15.5 24.5q-16 -19 -48 -34t-76 -26.5t-98 -18t-114 -6.5q-43 0 -80 8t-64.5 24t-43.5 41t-16 60q0 19 5 38t11.5 35t13 25.5t8.5 9.5q1 0 4 -1.5t3 -4.5q0 -2 -3 -8t-6.5 -14.5 t-6.5 -18.5t-3 -20q0 -25 15 -45t42.5 -33.5t66 -21t86.5 -7.5q41 0 83.5 3t81 9.5t70 17t50.5 25.5q10 7 13.5 14.5t7.5 7.5q1 0 2 -3.5t3.5 -9t6 -10.5t8.5 -9t12 -6t15.5 -3t17 -1.5t17.5 -0.5h20q8 0 12.5 -2.5t7 -7t3 -9.5t0.5 -11zM324 -207q0 -1 -4.5 -9t-10 -16 t-10.5 -15t-7 -7q-1 0 -8.5 4.5t-15 10t-14 11t-6.5 7.5q0 1 3 7t7.5 13t9.5 14t9 11q3 4 3 6t-2 4l-10 7.5t-12 8.5t-9.5 8t-3.5 5q0 2 4.5 9.5t10 16t10.5 15.5t7 7t9.5 -5t15 -10.5t13.5 -11t6 -6.5t-3 -7t-7.5 -13.5t-9.5 -14.5t-8 -10l-3 -3t-2 -5q0 -2 2 -3 q4 -2 10.5 -7t12 -9.5t9.5 -8t4 -4.5z" />
<glyph unicode="&#x67c;" horiz-adv-x="175" d="M136 -23q0 -16 -5.5 -29.5t-15 -23.5t-22.5 -16.5t-29 -6.5q-22 0 -34 16.5t-12 50.5q0 18 6 32h-6h-6h-18q-9 0 -14.5 2.5t-8 7t-3.5 10t-1 11.5t1 11t3.5 9.5t8 7t14.5 2.5h18q21 0 37.5 3.5t27.5 8.5q10 5 15.5 11.5t5.5 9.5t-5 13t-11 21.5t-11 21t-5 11.5 q0 3 4.5 12.5t10.5 19t11.5 18t6.5 10.5q11 -24 16.5 -46.5t5.5 -45.5q0 -31 -6 -53t-16 -37q8 -4 15 -11t11.5 -16t7.5 -18t3 -17zM159 327q0 -2 -4.5 -10t-10 -16.5t-10.5 -15.5t-7 -7q-1 0 -7.5 5t-14.5 10q-9 6 -20 16q-2 2 -3 2t-4 -2q-7 -11 -13 -19q-5 -7 -10 -13 t-6 -6t-8.5 4.5t-15 10.5t-14 11t-6.5 7t4.5 9.5t10.5 16t11 15.5t6 7q2 0 8.5 -5t13.5 -11q8 -6 18 -14q3 -3 5 -3q1 0 3 4q7 10 14 18q5 7 10 13t6 6t8.5 -4.5t15 -11t14 -11.5t6.5 -6zM109 -37q0 6 -4.5 12.5t-11.5 12.5t-15 10t-16 4q-12 0 -19 -9.5t-7 -19.5 q0 -12 12.5 -19t27.5 -7q4 0 10 1.5t11 3.5t8.5 5t3.5 6z" />
<glyph unicode="&#x67c;" horiz-adv-x="179" d="M155 -16q0 -16 -5 -29.5t-15 -23.5t-23 -16t-29 -6q-22 0 -34 16t-12 51q0 16 5 28q-14 -4 -30 -4h-18q-9 0 -14.5 2.5t-8 7t-3.5 10t-1 11.5t1 11t3.5 9.5t8 7t14.5 2.5h18q22 0 38 4.5t27.5 12t19 15.5t12.5 15.5t8.5 12t5.5 4.5q3 0 4 -8.5t5 -18.5q2 -6 5 -12.5 t7 -12t10 -9t13 -3.5h19q9 0 14.5 -2.5t8 -7t3.5 -9.5t1 -11t-1 -11.5t-3.5 -10t-8 -7t-14.5 -2.5h-19q-8 0 -15 1q3 -9 3 -17zM167 230q0 -2 -4.5 -10t-10 -16.5t-10.5 -15t-7 -6.5q-1 0 -7.5 4.5t-14.5 10.5q-9 6 -20 15q-2 2 -4 2q-1 0 -3 -2q-7 -11 -13 -19 q-5 -7 -10 -13t-6 -6t-8.5 4.5t-15.5 10.5t-14 11.5t-6 6.5q0 2 4.5 9.5t10.5 16t11 15.5t6 7q2 0 8.5 -5t13.5 -10q8 -6 18 -15q3 -3 4 -3t4 4q7 10 13 19q5 7 10.5 13t6.5 6t8.5 -5t15 -11t14 -11.5t6.5 -6.5zM128 -30q0 6 -4.5 13t-11.5 12.5t-15 9.5t-15 4 q-12 0 -19.5 -9t-7.5 -20q0 -12 12.5 -18.5t27.5 -6.5q4 0 10 1t11 3t8.5 5t3.5 6zM102 49h2h2l-1 3z" />
<glyph unicode="&#x67c;" horiz-adv-x="672" d="M337 -82q0 -16 -5 -29.5t-14.5 -24t-23 -16.5t-28.5 -6q-22 0 -34.5 16.5t-12.5 50.5q0 15 5 28t14 23q-42 0 -78.5 8.5t-63 24.5t-42 41t-15.5 59q0 19 5 38t11.5 35t13 25.5t8.5 9.5q1 0 4 -1.5t3 -4.5q0 -2 -3 -8t-6.5 -14.5t-6.5 -18.5t-3 -20q0 -25 15 -45 t42.5 -33.5t66 -21t86.5 -7.5q41 0 83.5 3t81 9.5t70 17t50.5 25.5q10 7 13.5 14.5t7.5 7.5q1 0 2 -3.5t3.5 -9t6 -10.5t8.5 -9t12 -6t15.5 -3t17 -1.5t17.5 -0.5h20q8 0 12.5 -2.5t7 -7t3 -9.5t0.5 -11t-0.5 -11.5t-3 -10t-7 -7t-12.5 -2.5h-20q-16 0 -28 1t-22 6 t-18.5 13.5t-15.5 24.5q-14 -16 -38.5 -29t-58 -24t-74.5 -18.5t-88 -10.5q8 -10 12.5 -22t4.5 -23zM394 227q0 -2 -4.5 -10t-10 -16.5t-10.5 -15t-7 -6.5q-1 0 -7.5 4.5t-14.5 10.5q-9 6 -20 15q-2 2 -4 2q-1 0 -3 -2q-7 -11 -13 -19q-5 -7 -10 -13t-6 -6t-8.5 4.5 t-15.5 10.5t-14 11.5t-6 6.5q0 2 4.5 9.5t10.5 16t11 15.5t6 7q2 0 8.5 -5t13.5 -10q8 -6 18 -15q3 -3 4 -3t4 4q7 10 13 19q5 7 10.5 13t6.5 6t8.5 -5t15 -11t14 -11.5t6.5 -6.5zM311 -96q0 6 -5 12.5t-11.5 12.5t-15 10t-15.5 4q-12 0 -19.5 -9.5t-7.5 -19.5 q0 -12 12.5 -19t27.5 -7q4 0 10 1.5t11 3.5t9 5t4 6z" />
<glyph unicode="&#x67d;" horiz-adv-x="175" d="M121 129q0 -37 -8.5 -62t-23 -40t-34.5 -21t-43 -6h-18q-9 0 -14.5 2.5t-8 7t-3.5 10t-1 11.5t1 11t3.5 9.5t8 7t14.5 2.5h18q21 0 37.5 3.5t27.5 8.5q10 5 15.5 11.5t5.5 9.5t-5 13t-11 21.5t-11 21t-5 11.5q0 3 4.5 12.5t10.5 19t11.5 18t6.5 10.5q11 -24 16.5 -46.5 t5.5 -45.5zM160 414q0 -2 -4.5 -9.5t-10 -16t-10.5 -15.5t-7 -7q-1 0 -7.5 4.5t-14.5 10.5q-9 6 -20 15q-2 2 -4 2q-1 0 -3 -3q-8 -11 -14 -19q-5 -7 -10 -13t-6 -6t-8 4.5t-15 11t-14.5 11.5t-6.5 7q0 1 4.5 9t10.5 16t11 15t6 7q2 0 8.5 -4.5t14.5 -9.5l18 -15q3 -2 4 -3 q1 0 4 4l14 18q5 7 9.5 13t6.5 6t9 -4.5t15 -10.5t14 -11.5t6 -6.5zM126 317q0 -1 -4.5 -9t-10 -16t-11 -15t-7.5 -7q-1 0 -8 4.5t-15.5 10t-14.5 11t-6 7.5t4.5 9.5t10.5 16t11.5 15.5t6.5 7q2 0 9 -5t15 -11t14 -11.5t6 -6.5z" />
<glyph unicode="&#x67d;" horiz-adv-x="179" d="M213 31q0 -6 -1 -11.5t-3.5 -10t-8 -7t-14.5 -2.5h-19q-14 0 -23 4.5t-17 12.5q-5 6 -11.5 16t-10.5 19q-9 -10 -17.5 -19.5t-19.5 -16.5t-24.5 -11.5t-31.5 -4.5h-18q-9 0 -14.5 2.5t-8 7t-3.5 10t-1 11.5t1 11t3.5 9.5t8 7t14.5 2.5h18q22 0 38 4.5t27.5 12t19 15.5 t12.5 15.5t8.5 12t5.5 4.5q3 0 4 -8.5t5 -18.5q2 -6 5 -12.5t7 -12t10 -9t13 -3.5h19q9 0 14.5 -2.5t8 -7t3.5 -9.5t1 -11zM167 318q0 -2 -4.5 -9.5t-10 -16t-10.5 -15.5t-7 -7q-1 0 -7.5 4.5t-14.5 10.5q-9 6 -20 15q-2 2 -4 2q-1 0 -3 -3q-8 -11 -14 -19q-5 -7 -10 -13 t-6 -6t-8 4.5t-15 11t-14.5 11.5t-6.5 7q0 1 4.5 9t10.5 16t11 15t6 7q2 0 8.5 -4.5t14.5 -9.5l18 -15q3 -2 4 -3q1 0 4 4l14 18q5 7 9.5 13t6.5 6t9 -4.5t15 -10.5t14 -11.5t6 -6.5zM133 221q0 -1 -4.5 -9t-10 -16t-11 -15t-7.5 -7q-1 0 -8 4.5t-15.5 10t-14.5 11t-6 7.5 t4.5 9.5t10.5 16t11.5 15.5t6.5 7q2 0 9 -5t15 -11t14 -11.5t6 -6.5z" />
<glyph unicode="&#x67d;" horiz-adv-x="672" d="M706 31q0 -6 -0.5 -11.5t-3 -10t-7 -7t-12.5 -2.5h-20q-16 0 -28 1t-22 6t-18.5 13.5t-15.5 24.5q-16 -19 -48 -34t-76 -26.5t-98 -18t-114 -6.5q-43 0 -80 8t-64.5 24t-43.5 41t-16 60q0 19 5 38t11.5 35t13 25.5t8.5 9.5q1 0 4 -1.5t3 -4.5q0 -2 -3 -8t-6.5 -14.5 t-6.5 -18.5t-3 -20q0 -25 15 -45t42.5 -33.5t66 -21t86.5 -7.5q41 0 83.5 3t81 9.5t70 17t50.5 25.5q10 7 13.5 14.5t7.5 7.5q1 0 2 -3.5t3.5 -9t6 -10.5t8.5 -9t12 -6t15.5 -3t17 -1.5t17.5 -0.5h20q8 0 12.5 -2.5t7 -7t3 -9.5t0.5 -11zM394 315q0 -2 -4.5 -9.5t-10 -16 t-10.5 -15.5t-7 -7q-1 0 -7.5 4.5t-14.5 10.5q-9 6 -20 15q-2 2 -4 2q-1 0 -3 -3q-8 -11 -14 -19q-5 -7 -10 -13t-6 -6t-8 4.5t-15 11t-14.5 11.5t-6.5 7q0 1 4.5 9t10.5 16t11 15t6 7q2 0 8.5 -4.5t14.5 -9.5l18 -15q3 -2 4 -3q1 0 4 4l14 18q5 7 9.5 13t6.5 6t9 -4.5 t15 -10.5t14 -11.5t6 -6.5zM360 218q0 -1 -4.5 -9t-10 -16t-11 -15t-7.5 -7q-1 0 -8 4.5t-15.5 10t-14.5 11t-6 7.5t4.5 9.5t10.5 16t11.5 15.5t6.5 7q2 0 9 -5t15 -11t14 -11.5t6 -6.5z" />
<glyph unicode="&#x67e;" horiz-adv-x="175" arabic-form="initial" d="M121 129q0 -37 -8.5 -62t-23 -40t-34.5 -21t-43 -6h-18q-9 0 -14.5 2.5t-8 7t-3.5 10t-1 11.5t1 11t3.5 9.5t8 7t14.5 2.5h18q21 0 37.5 3.5t27.5 8.5q10 5 15.5 11.5t5.5 9.5t-5 13t-11 21.5t-11 21t-5 11.5q0 3 4.5 12.5t10.5 19t11.5 18t6.5 10.5q11 -24 16.5 -46.5 t5.5 -45.5zM135 -82q0 -2 -4.5 -9.5t-10 -16t-10.5 -15.5t-7 -7q-1 0 -7.5 4.5t-14.5 10.5q-9 6 -20 15q-2 2 -4 2q-1 0 -3 -3q-8 -11 -14 -19q-5 -7 -10 -13t-6 -6t-8 4.5t-15 11t-14.5 11.5t-6.5 7q0 1 4.5 9t10.5 16t11 15t6 7q2 0 8.5 -4.5t14.5 -9.5l18 -15q3 -2 4 -3 q1 0 4 4l14 18q5 7 9.5 13t6.5 6t9 -4.5t15 -10.5t14 -11.5t6 -6.5zM101 -179q0 -1 -4.5 -9t-10 -16t-11 -15t-7.5 -7q-1 0 -8 4.5t-15.5 10t-14.5 11t-6 7.5t4.5 9.5t10.5 16t11.5 15.5t6.5 7q2 0 9 -5t15 -11t14 -11.5t6 -6.5z" />
<glyph unicode="&#x67e;" horiz-adv-x="179" arabic-form="medial" d="M213 31q0 -6 -1 -11.5t-3.5 -10t-8 -7t-14.5 -2.5h-19q-14 0 -23 4.5t-17 12.5q-5 6 -11.5 16t-10.5 19q-9 -10 -17.5 -19.5t-19.5 -16.5t-24.5 -11.5t-31.5 -4.5h-18q-9 0 -14.5 2.5t-8 7t-3.5 10t-1 11.5t1 11t3.5 9.5t8 7t14.5 2.5h18q22 0 38 4.5t27.5 12t19 15.5 t12.5 15.5t8.5 12t5.5 4.5q3 0 4 -8.5t5 -18.5q2 -6 5 -12.5t7 -12t10 -9t13 -3.5h19q9 0 14.5 -2.5t8 -7t3.5 -9.5t1 -11zM167 -82q0 -2 -4.5 -9.5t-10 -16t-10.5 -15.5t-7 -7q-1 0 -7.5 4.5t-14.5 10.5q-9 6 -20 15q-2 2 -4 2q-1 0 -3 -3q-8 -11 -14 -19q-5 -7 -10 -13 t-6 -6t-8 4.5t-15 11t-14.5 11.5t-6.5 7q0 1 4.5 9t10.5 16t11 15t6 7q2 0 8.5 -4.5t14.5 -9.5l18 -15q3 -2 4 -3q1 0 4 4l14 18q5 7 9.5 13t6.5 6t9 -4.5t15 -10.5t14 -11.5t6 -6.5zM133 -179q0 -1 -4.5 -9t-10 -16t-11 -15t-7.5 -7q-1 0 -8 4.5t-15.5 10t-14.5 11t-6 7.5 t4.5 9.5t10.5 16t11.5 15.5t6.5 7q2 0 9 -5t15 -11t14 -11.5t6 -6.5z" />
<glyph unicode="&#x67e;" horiz-adv-x="672" arabic-form="final" d="M706 31q0 -6 -0.5 -11.5t-3 -10t-7 -7t-12.5 -2.5h-20q-16 0 -28 1t-22 6t-18.5 13.5t-15.5 24.5q-16 -19 -48 -34t-76 -26.5t-98 -18t-114 -6.5q-43 0 -80 8t-64.5 24t-43.5 41t-16 60q0 19 5 38t11.5 35t13 25.5t8.5 9.5q1 0 4 -1.5t3 -4.5q0 -2 -3 -8t-6.5 -14.5 t-6.5 -18.5t-3 -20q0 -25 15 -45t42.5 -33.5t66 -21t86.5 -7.5q41 0 83.5 3t81 9.5t70 17t50.5 25.5q10 7 13.5 14.5t7.5 7.5q1 0 2 -3.5t3.5 -9t6 -10.5t8.5 -9t12 -6t15.5 -3t17 -1.5t17.5 -0.5h20q8 0 12.5 -2.5t7 -7t3 -9.5t0.5 -11zM361 -122q0 -2 -4.5 -9.5t-10 -16 t-10.5 -15.5t-7 -7q-1 0 -7.5 4.5t-14.5 10.5q-9 6 -20 15q-2 2 -4 2q-1 0 -3 -3q-8 -11 -14 -19q-5 -7 -10 -13t-6 -6t-8 4.5t-15 11t-14.5 11.5t-6.5 7q0 1 4.5 9t10.5 16t11 15t6 7q2 0 8.5 -4.5t14.5 -9.5l18 -15q3 -2 4 -3q1 0 4 4l14 18q5 7 9.5 13t6.5 6t9 -4.5 t15 -10.5t14 -11.5t6 -6.5zM327 -219q0 -1 -4.5 -9t-10 -16t-11 -15t-7.5 -7q-1 0 -8 4.5t-15.5 10t-14.5 11t-6 7.5t4.5 9.5t10.5 16t11.5 15.5t6.5 7q2 0 9 -5t15 -11t14 -11.5t6 -6.5z" />
<glyph unicode="&#x67f;" horiz-adv-x="175" arabic-form="initial" d="M121 129q0 -37 -8.5 -62t-23 -40t-34.5 -21t-43 -6h-18q-9 0 -14.5 2.5t-8 7t-3.5 10t-1 11.5t1 11t3.5 9.5t8 7t14.5 2.5h18q21 0 37.5 3.5t27.5 8.5q10 5 15.5 11.5t5.5 9.5t-5 13t-11 21.5t-11 21t-5 11.5q0 3 4.5 12.5t10.5 19t11.5 18t6.5 10.5q11 -24 16.5 -46.5 t5.5 -45.5zM156 411q0 -2 -4.5 -9.5t-10 -16t-10.5 -15.5t-7 -7q-1 0 -7.5 4.5t-14.5 10.5q-9 6 -20 15q-2 2 -4 2q-1 0 -3 -2q-8 -11 -14 -19q-5 -7 -10 -13t-6 -6t-8 4.5t-15 10.5t-14.5 11t-6.5 7t4.5 9.5t10.5 16t11.5 15.5t6.5 7q2 0 8.5 -5t13.5 -11q8 -6 18 -14 q3 -3 4 -3t4 4q7 10 13 18q5 7 10 13t7 6q1 0 8 -4.5t15 -11t14.5 -11.5t6.5 -6zM163 327q0 -2 -4.5 -10t-10 -16.5t-11 -15.5t-6.5 -7t-8 5t-15 11q-9 6 -19 15q-2 2 -4 2q-1 0 -3 -2q-8 -11 -14 -19q-5 -7 -10 -13t-6 -6t-8.5 4.5t-15.5 10.5t-14 11t-6 7t4.5 9.5t10.5 16 t11 15.5t6 7q2 0 8.5 -5t13.5 -11q8 -6 18 -14q3 -3 5 -3q1 0 4 4l14 18q5 7 9.5 13t5.5 6q2 0 9 -4.5t15 -11t14.5 -11.5t6.5 -6z" />
<glyph unicode="&#x67f;" horiz-adv-x="179" arabic-form="medial" d="M213 31q0 -6 -1 -11.5t-3.5 -10t-8 -7t-14.5 -2.5h-19q-14 0 -23 4.5t-17 12.5q-5 6 -11.5 16t-10.5 19q-9 -10 -17.5 -19.5t-19.5 -16.5t-24.5 -11.5t-31.5 -4.5h-18q-9 0 -14.5 2.5t-8 7t-3.5 10t-1 11.5t1 11t3.5 9.5t8 7t14.5 2.5h18q22 0 38 4.5t27.5 12t19 15.5 t12.5 15.5t8.5 12t5.5 4.5q3 0 4 -8.5t5 -18.5q2 -6 5 -12.5t7 -12t10 -9t13 -3.5h19q9 0 14.5 -2.5t8 -7t3.5 -9.5t1 -11zM164 314q0 -2 -4.5 -9.5t-10 -16t-10.5 -15.5t-7 -7q-1 0 -7.5 4.5t-14.5 10.5q-9 6 -20 15q-2 2 -4 2q-1 0 -3 -2q-8 -11 -14 -19q-5 -7 -10 -13 t-6 -6t-8 4.5t-15 10.5t-14.5 11t-6.5 7t4.5 9.5t10.5 16t11.5 15.5t6.5 7q2 0 8.5 -5t13.5 -11q8 -6 18 -14q3 -3 4 -3t4 4q7 10 13 18q5 7 10 13t7 6q1 0 8 -4.5t15 -11t14.5 -11.5t6.5 -6zM171 230q0 -2 -4.5 -10t-10 -16.5t-11 -15.5t-6.5 -7t-8 5t-15 11q-9 6 -19 15 q-2 2 -4 2q-1 0 -3 -2q-8 -11 -14 -19q-5 -7 -10 -13t-6 -6t-8.5 4.5t-15.5 10.5t-14 11t-6 7t4.5 9.5t10.5 16t11 15.5t6 7q2 0 8.5 -5t13.5 -11q8 -6 18 -14q3 -3 5 -3q1 0 4 4l14 18q5 7 9.5 13t5.5 6q2 0 9 -4.5t15 -11t14.5 -11.5t6.5 -6z" />
<glyph unicode="&#x67f;" horiz-adv-x="672" arabic-form="final" d="M706 31q0 -6 -0.5 -11.5t-3 -10t-7 -7t-12.5 -2.5h-20q-16 0 -28 1t-22 6t-18.5 13.5t-15.5 24.5q-16 -19 -48 -34t-76 -26.5t-98 -18t-114 -6.5q-43 0 -80 8t-64.5 24t-43.5 41t-16 60q0 19 5 38t11.5 35t13 25.5t8.5 9.5q1 0 4 -1.5t3 -4.5q0 -2 -3 -8t-6.5 -14.5 t-6.5 -18.5t-3 -20q0 -25 15 -45t42.5 -33.5t66 -21t86.5 -7.5q41 0 83.5 3t81 9.5t70 17t50.5 25.5q10 7 13.5 14.5t7.5 7.5q1 0 2 -3.5t3.5 -9t6 -10.5t8.5 -9t12 -6t15.5 -3t17 -1.5t17.5 -0.5h20q8 0 12.5 -2.5t7 -7t3 -9.5t0.5 -11zM391 311q0 -2 -4.5 -9.5t-10 -16 t-10.5 -15.5t-7 -7q-1 0 -7.5 4.5t-14.5 10.5q-9 6 -20 15q-2 2 -4 2q-1 0 -3 -2q-8 -11 -14 -19q-5 -7 -10 -13t-6 -6t-8 4.5t-15 10.5t-14.5 11t-6.5 7t4.5 9.5t10.5 16t11.5 15.5t6.5 7q2 0 8.5 -5t13.5 -11q8 -6 18 -14q3 -3 4 -3t4 4q7 10 13 18q5 7 10 13t7 6 q1 0 8 -4.5t15 -11t14.5 -11.5t6.5 -6zM398 227q0 -2 -4.5 -10t-10 -16.5t-11 -15.5t-6.5 -7t-8 5t-15 11q-9 6 -19 15q-2 2 -4 2q-1 0 -3 -2q-8 -11 -14 -19q-5 -7 -10 -13t-6 -6t-8.5 4.5t-15.5 10.5t-14 11t-6 7t4.5 9.5t10.5 16t11 15.5t6 7q2 0 8.5 -5t13.5 -11 q8 -6 18 -14q3 -3 5 -3q1 0 4 4l14 18q5 7 9.5 13t5.5 6q2 0 9 -4.5t15 -11t14.5 -11.5t6.5 -6z" />
<glyph unicode="&#x680;" horiz-adv-x="175" arabic-form="initial" d="M121 129q0 -37 -8.5 -62t-23 -40t-34.5 -21t-43 -6h-18q-9 0 -14.5 2.5t-8 7t-3.5 10t-1 11.5t1 11t3.5 9.5t8 7t14.5 2.5h18q21 0 37.5 3.5t27.5 8.5q10 5 15.5 11.5t5.5 9.5t-5 13t-11 21.5t-11 21t-5 11.5q0 3 4.5 12.5t10.5 19t11.5 18t6.5 10.5q11 -24 16.5 -46.5 t5.5 -45.5zM132 -82q0 -2 -4.5 -9.5t-10 -16t-10.5 -15.5t-7 -7q-1 0 -7.5 4.5t-14.5 10.5q-9 6 -20 15q-2 2 -4 2q-1 0 -3 -2q-8 -11 -14 -19q-5 -7 -10 -13t-6 -6t-8 4.5t-15 10.5t-14.5 11t-6.5 7t4.5 9.5t10.5 16t11.5 15.5t6.5 7q2 0 8.5 -5t13.5 -11q8 -6 18 -14 q3 -3 4 -3t4 4q7 10 13 18q5 7 10 13t7 6q1 0 8 -4.5t15 -11t14.5 -11.5t6.5 -6zM139 -166q0 -2 -4.5 -10t-10 -16.5t-11 -15.5t-6.5 -7t-8 5t-15 11q-9 6 -19 15q-2 2 -4 2q-1 0 -3 -2q-8 -11 -14 -19q-5 -7 -10 -13t-6 -6t-8.5 4.5t-15.5 10.5t-14 11t-6 7t4.5 9.5 t10.5 16t11 15.5t6 7q2 0 8.5 -5t13.5 -11q8 -6 18 -14q3 -3 5 -3q1 0 4 4l14 18q5 7 9.5 13t5.5 6q2 0 9 -4.5t15 -11t14.5 -11.5t6.5 -6z" />
<glyph unicode="&#x680;" horiz-adv-x="179" arabic-form="medial" d="M213 31q0 -6 -1 -11.5t-3.5 -10t-8 -7t-14.5 -2.5h-19q-14 0 -23 4.5t-17 12.5q-5 6 -11.5 16t-10.5 19q-9 -10 -17.5 -19.5t-19.5 -16.5t-24.5 -11.5t-31.5 -4.5h-18q-9 0 -14.5 2.5t-8 7t-3.5 10t-1 11.5t1 11t3.5 9.5t8 7t14.5 2.5h18q22 0 38 4.5t27.5 12t19 15.5 t12.5 15.5t8.5 12t5.5 4.5q3 0 4 -8.5t5 -18.5q2 -6 5 -12.5t7 -12t10 -9t13 -3.5h19q9 0 14.5 -2.5t8 -7t3.5 -9.5t1 -11zM164 -82q0 -2 -4.5 -9.5t-10 -16t-10.5 -15.5t-7 -7q-1 0 -7.5 4.5t-14.5 10.5q-9 6 -20 15q-2 2 -4 2q-1 0 -3 -2q-8 -11 -14 -19q-5 -7 -10 -13 t-6 -6t-8 4.5t-15 10.5t-14.5 11t-6.5 7t4.5 9.5t10.5 16t11.5 15.5t6.5 7q2 0 8.5 -5t13.5 -11q8 -6 18 -14q3 -3 4 -3t4 4q7 10 13 18q5 7 10 13t7 6q1 0 8 -4.5t15 -11t14.5 -11.5t6.5 -6zM171 -166q0 -2 -4.5 -10t-10 -16.5t-11 -15.5t-6.5 -7t-8 5t-15 11q-9 6 -19 15 q-2 2 -4 2q-1 0 -3 -2q-8 -11 -14 -19q-5 -7 -10 -13t-6 -6t-8.5 4.5t-15.5 10.5t-14 11t-6 7t4.5 9.5t10.5 16t11 15.5t6 7q2 0 8.5 -5t13.5 -11q8 -6 18 -14q3 -3 5 -3q1 0 4 4l14 18q5 7 9.5 13t5.5 6q2 0 9 -4.5t15 -11t14.5 -11.5t6.5 -6z" />
<glyph unicode="&#x680;" horiz-adv-x="672" arabic-form="final" d="M706 31q0 -6 -0.5 -11.5t-3 -10t-7 -7t-12.5 -2.5h-20q-16 0 -28 1t-22 6t-18.5 13.5t-15.5 24.5q-16 -19 -48 -34t-76 -26.5t-98 -18t-114 -6.5q-43 0 -80 8t-64.5 24t-43.5 41t-16 60q0 19 5 38t11.5 35t13 25.5t8.5 9.5q1 0 4 -1.5t3 -4.5q0 -2 -3 -8t-6.5 -14.5 t-6.5 -18.5t-3 -20q0 -25 15 -45t42.5 -33.5t66 -21t86.5 -7.5q41 0 83.5 3t81 9.5t70 17t50.5 25.5q10 7 13.5 14.5t7.5 7.5q1 0 2 -3.5t3.5 -9t6 -10.5t8.5 -9t12 -6t15.5 -3t17 -1.5t17.5 -0.5h20q8 0 12.5 -2.5t7 -7t3 -9.5t0.5 -11zM358 -122q0 -2 -4.5 -9.5t-10 -16 t-10.5 -15.5t-7 -7q-1 0 -7.5 4.5t-14.5 10.5q-9 6 -20 15q-2 2 -4 2q-1 0 -3 -2q-8 -11 -14 -19q-5 -7 -10 -13t-6 -6t-8 4.5t-15 10.5t-14.5 11t-6.5 7t4.5 9.5t10.5 16t11.5 15.5t6.5 7q2 0 8.5 -5t13.5 -11q8 -6 18 -14q3 -3 4 -3t4 4q7 10 13 18q5 7 10 13t7 6 q1 0 8 -4.5t15 -11t14.5 -11.5t6.5 -6zM365 -206q0 -2 -4.5 -10t-10 -16.5t-11 -15.5t-6.5 -7t-8 5t-15 11q-9 6 -19 15q-2 2 -4 2q-1 0 -3 -2q-8 -11 -14 -19q-5 -7 -10 -13t-6 -6t-8.5 4.5t-15.5 10.5t-14 11t-6 7t4.5 9.5t10.5 16t11 15.5t6 7q2 0 8.5 -5t13.5 -11 q8 -6 18 -14q3 -3 5 -3q1 0 4 4l14 18q5 7 9.5 13t5.5 6q2 0 9 -4.5t15 -11t14.5 -11.5t6.5 -6z" />
<glyph unicode="&#x681;" horiz-adv-x="477" d="M437 147q0 -1 -1.5 -9t-4.5 -16.5t-5.5 -15.5t-3.5 -7q-15 0 -33 0.5t-35 1t-31.5 0.5h-22.5q-19 0 -36 -3.5t-33 -8.5t-29.5 -11.5t-25.5 -12.5q-20 -10 -40 -21.5t-40.5 -21t-41 -16t-42.5 -6.5h-18q-9 0 -14.5 2.5t-8 7t-3.5 10t-1 11.5t1 11t3.5 9.5t8 7t14.5 2.5h18 q19 0 35.5 1.5t32 4.5t31 8t32.5 12q19 8 40.5 16t41.5 14q-17 5 -32.5 12t-31.5 13t-32 10.5t-32 4.5q-11 0 -21 -2t-18.5 -4t-14 -4t-7.5 -2q-3 0 -3 4q0 5 3.5 13t9 17t13 17t15.5 14q11 8 22 10t28 2q13 0 29 -5.5t33 -12.5t33.5 -15t30.5 -14q26 -10 60 -16.5t72 -8.5 q23 -1 39 -1.5t16 -1.5zM283 343q0 -1 -1 -5.5t-3.5 -9t-6 -9t-8.5 -6.5l-9 -3t-14 -5t-18 -7t-20 -7q-24 -9 -36 -14q-10 -6 -14 -6t-4 3q0 2 1.5 6t3 7.5t3.5 7.5t3 5t4.5 3.5l7 5t7 3.5t5.5 2q-4 1 -8.5 4t-8.5 7t-7 9.5t-3 12.5q0 6 3 13t8 14t10.5 14t11.5 12 q9 9 16 14.5t12 7.5t9.5 2.5t8.5 0.5q11 0 16 -8.5t5 -18.5q0 -2 -1 -7t-3.5 -10t-4.5 -8t-4 -3t-5.5 1.5t-8.5 3.5t-10.5 3.5t-9.5 1.5q-8 0 -16 -5.5t-8 -11.5q0 -1 5.5 -5t13.5 -9t17 -8.5t16 -4.5q6 1 13 3t13 3t10.5 2t5.5 2q1 0 2 -0.5t1 -2.5z" />
<glyph unicode="&#x681;" horiz-adv-x="509" d="M543 31q0 -6 -0.5 -11.5t-3.5 -10t-8.5 -7t-14.5 -2.5h-18q-61 0 -97 4t-53 16q-11 7 -15.5 17.5t-4.5 25.5q0 10 2.5 19t4.5 20h-9q-29 0 -52.5 -4t-44.5 -11t-39.5 -16t-34.5 -18q-18 -10 -34.5 -19.5t-33.5 -17t-35.5 -12t-39.5 -4.5h-18q-9 0 -14.5 2.5t-8 7t-3.5 10 t-1 11.5t1 11t3.5 9.5t8 7t14.5 2.5h18q24 0 44.5 2.5t38 7.5t33 10.5t29.5 11.5q18 7 34.5 13.5t35.5 10.5q-10 4 -25.5 11t-34.5 13.5t-39.5 11.5t-39.5 5q-10 0 -19 -1.5t-15.5 -4t-10.5 -4t-5 -1.5q-4 0 -4 3q0 11 4.5 20.5t11.5 17.5t15.5 14.5t16.5 11.5 q10 5 21.5 6.5t18.5 1.5q15 0 35.5 -7t42 -17t43 -19t38.5 -13q20 -4 36 -7t34.5 -4.5t39.5 -1.5h50q1 0 2 -1.5t1 -2.5t-1.5 -6.5t-3.5 -12.5l-4 -14t-3 -10t-19 -4t-52 -1q0 -1 -0.5 -3t-0.5 -3q0 -7 5.5 -12.5t13.5 -9.5q11 -4 26 -7t31.5 -3.5t32.5 -1t29 -0.5h18 q9 0 14.5 -2.5t8.5 -7t3.5 -9.5t0.5 -11zM322 343q0 -1 -1 -5.5t-3.5 -9t-6 -9t-8.5 -6.5l-9 -3t-14 -5t-18 -7t-20 -7q-24 -9 -36 -14q-10 -6 -14 -6t-4 3q0 2 1.5 6t3 7.5t3.5 7.5t3 5t4.5 3.5l7 5t7 3.5t5.5 2q-4 1 -8.5 4t-8.5 7t-7 9.5t-3 12.5q0 6 3 13t8 14t10.5 14 t11.5 12q9 9 16 14.5t12 7.5t9.5 2.5t8.5 0.5q11 0 16 -8.5t5 -18.5q0 -2 -1 -7t-3.5 -10t-4.5 -8t-4 -3t-5.5 1.5t-8.5 3.5t-10.5 3.5t-9.5 1.5q-8 0 -16 -5.5t-8 -11.5q0 -1 5.5 -5t13.5 -9t17 -8.5t16 -4.5q6 1 13 3t13 3t10.5 2t5.5 2q1 0 2 -0.5t1 -2.5z" />
<glyph unicode="&#x681;" horiz-adv-x="479" d="M512 31q0 -6 -1 -11.5t-3.5 -10t-8 -7t-14.5 -2.5h-49q-37 0 -65 1t-47 8q-20 6 -28 18.5t-8 23.5q0 6 1 13.5t2 15.5t2.5 16t2.5 13q-32 -6 -63 -18t-58.5 -28.5t-50 -36.5t-39 -43t-25.5 -48t-9 -51q0 -40 16.5 -74t51.5 -58t90 -37.5t132 -13.5q24 0 49 2t46.5 4 t35.5 4t17 2q2 0 2.5 -2.5t0.5 -3.5t-9 -5t-23.5 -9.5t-32 -12.5t-34.5 -12.5t-30 -10t-19 -6.5q-9 -2 -18 -3.5t-17 -2.5t-15 -1h-11q-29 0 -60 3.5t-60 11.5t-54.5 22.5t-45 36.5t-30.5 52.5t-11 71.5q0 40 12 79.5t35 75.5t56 66.5t75 52.5q-21 4 -45 6.5t-40 2.5 q-7 0 -16 -1t-18 -2.5t-16.5 -2.5t-12.5 -1q-3 0 -3 4q0 2 1 8.5t2.5 13t3 12.5t1.5 8q1 3 10.5 8t22.5 9t27 6.5t25 2.5q20 0 40.5 -2.5t42 -6t44 -6.5t44.5 -3h18t22.5 0.5t23.5 1t21 0.5t15 -0.5t6 -1.5t-4 -9t-9 -16t-8.5 -15t-4.5 -7q-17 -3 -36.5 -6t-36.5 -6 q0 -16 6.5 -26t23 -16t45 -8t72.5 -2h18q9 0 14.5 -2.5t8 -7t3.5 -9.5t1 -11zM324 311q0 -1 -1 -5.5t-3.5 -9t-6 -9t-8.5 -6.5l-9 -3t-14 -5t-18 -7t-20 -7q-24 -9 -36 -14q-10 -6 -14 -6t-4 3q0 2 1.5 6t3 7.5t3.5 7.5t3 5t4.5 3.5l7 5t7 3.5t5.5 2q-4 1 -8.5 4t-8.5 7 t-7 9.5t-3 12.5q0 6 3 13t8 14t10.5 14t11.5 12q9 9 16 14.5t12 7.5t9.5 2.5t8.5 0.5q11 0 16 -8.5t5 -18.5q0 -2 -1 -7t-3.5 -10t-4.5 -8t-4 -3t-5.5 1.5t-8.5 3.5t-10.5 3.5t-9.5 1.5q-8 0 -16 -5.5t-8 -11.5q0 -1 5.5 -5t13.5 -9t17 -8.5t16 -4.5q6 1 13 3t13 3t10.5 2 t5.5 2q1 0 2 -0.5t1 -2.5z" />
<glyph unicode="&#x682;" horiz-adv-x="477" d="M437 147q0 -1 -1.5 -9t-4.5 -16.5t-5.5 -15.5t-3.5 -7q-15 0 -33 0.5t-35 1t-31.5 0.5h-22.5q-19 0 -36 -3.5t-33 -8.5t-29.5 -11.5t-25.5 -12.5q-20 -10 -40 -21.5t-40.5 -21t-41 -16t-42.5 -6.5h-18q-9 0 -14.5 2.5t-8 7t-3.5 10t-1 11.5t1 11t3.5 9.5t8 7t14.5 2.5h18 q19 0 35.5 1.5t32 4.5t31 8t32.5 12q19 8 40.5 16t41.5 14q-17 5 -32.5 12t-31.5 13t-32 10.5t-32 4.5q-11 0 -21 -2t-18.5 -4t-14 -4t-7.5 -2q-3 0 -3 4q0 5 3.5 13t9 17t13 17t15.5 14q11 8 22 10t28 2q13 0 29 -5.5t33 -12.5t33.5 -15t30.5 -14q26 -10 60 -16.5t72 -8.5 q23 -1 39 -1.5t16 -1.5zM256 318q0 -1 -4.5 -9t-10 -16t-10.5 -15t-7 -7q-1 0 -8.5 4.5t-15 10t-14 11t-6.5 7.5q0 1 3 7t7.5 13t9.5 14t9 11q3 4 3 6t-2 4l-10 7.5t-12 8.5t-9.5 8t-3.5 5q0 2 4.5 9.5t10 16t10.5 15.5t7 7t9.5 -5t15 -10.5t13.5 -11t6 -6.5t-3 -7 t-7.5 -13.5t-9.5 -14.5t-8 -10l-3 -3t-2 -5q0 -2 2 -3q4 -2 10.5 -7t12 -9.5t9.5 -8t4 -4.5z" />
<glyph unicode="&#x682;" horiz-adv-x="509" d="M543 31q0 -6 -0.5 -11.5t-3.5 -10t-8.5 -7t-14.5 -2.5h-18q-61 0 -97 4t-53 16q-11 7 -15.5 17.5t-4.5 25.5q0 10 2.5 19t4.5 20h-9q-29 0 -52.5 -4t-44.5 -11t-39.5 -16t-34.5 -18q-18 -10 -34.5 -19.5t-33.5 -17t-35.5 -12t-39.5 -4.5h-18q-9 0 -14.5 2.5t-8 7t-3.5 10 t-1 11.5t1 11t3.5 9.5t8 7t14.5 2.5h18q24 0 44.5 2.5t38 7.5t33 10.5t29.5 11.5q18 7 34.5 13.5t35.5 10.5q-10 4 -25.5 11t-34.5 13.5t-39.5 11.5t-39.5 5q-10 0 -19 -1.5t-15.5 -4t-10.5 -4t-5 -1.5q-4 0 -4 3q0 11 4.5 20.5t11.5 17.5t15.5 14.5t16.5 11.5 q10 5 21.5 6.5t18.5 1.5q15 0 35.5 -7t42 -17t43 -19t38.5 -13q20 -4 36 -7t34.5 -4.5t39.5 -1.5h50q1 0 2 -1.5t1 -2.5t-1.5 -6.5t-3.5 -12.5l-4 -14t-3 -10t-19 -4t-52 -1q0 -1 -0.5 -3t-0.5 -3q0 -7 5.5 -12.5t13.5 -9.5q11 -4 26 -7t31.5 -3.5t32.5 -1t29 -0.5h18 q9 0 14.5 -2.5t8.5 -7t3.5 -9.5t0.5 -11zM295 318q0 -1 -4.5 -9t-10 -16t-10.5 -15t-7 -7q-1 0 -8.5 4.5t-15 10t-14 11t-6.5 7.5q0 1 3 7t7.5 13t9.5 14t9 11q3 4 3 6t-2 4l-10 7.5t-12 8.5t-9.5 8t-3.5 5q0 2 4.5 9.5t10 16t10.5 15.5t7 7t9.5 -5t15 -10.5t13.5 -11 t6 -6.5t-3 -7t-7.5 -13.5t-9.5 -14.5t-8 -10l-3 -3t-2 -5q0 -2 2 -3q4 -2 10.5 -7t12 -9.5t9.5 -8t4 -4.5z" />
<glyph unicode="&#x682;" horiz-adv-x="479" d="M512 31q0 -6 -1 -11.5t-3.5 -10t-8 -7t-14.5 -2.5h-49q-37 0 -65 1t-47 8q-20 6 -28 18.5t-8 23.5q0 6 1 13.5t2 15.5t2.5 16t2.5 13q-32 -6 -63 -18t-58.5 -28.5t-50 -36.5t-39 -43t-25.5 -48t-9 -51q0 -40 16.5 -74t51.5 -58t90 -37.5t132 -13.5q24 0 49 2t46.5 4 t35.5 4t17 2q2 0 2.5 -2.5t0.5 -3.5t-9 -5t-23.5 -9.5t-32 -12.5t-34.5 -12.5t-30 -10t-19 -6.5q-9 -2 -18 -3.5t-17 -2.5t-15 -1h-11q-29 0 -60 3.5t-60 11.5t-54.5 22.5t-45 36.5t-30.5 52.5t-11 71.5q0 40 12 79.5t35 75.5t56 66.5t75 52.5q-21 4 -45 6.5t-40 2.5 q-7 0 -16 -1t-18 -2.5t-16.5 -2.5t-12.5 -1q-3 0 -3 4q0 2 1 8.5t2.5 13t3 12.5t1.5 8q1 3 10.5 8t22.5 9t27 6.5t25 2.5q20 0 40.5 -2.5t42 -6t44 -6.5t44.5 -3h18t22.5 0.5t23.5 1t21 0.5t15 -0.5t6 -1.5t-4 -9t-9 -16t-8.5 -15t-4.5 -7q-17 -3 -36.5 -6t-36.5 -6 q0 -16 6.5 -26t23 -16t45 -8t72.5 -2h18q9 0 14.5 -2.5t8 -7t3.5 -9.5t1 -11zM297 286q0 -1 -4.5 -9t-10 -16t-10.5 -15t-7 -7q-1 0 -8.5 4.5t-15 10t-14 11t-6.5 7.5q0 1 3 7t7.5 13t9.5 14t9 11q3 4 3 6t-2 4l-10 7.5t-12 8.5t-9.5 8t-3.5 5q0 2 4.5 9.5t10 16t10.5 15.5 t7 7t9.5 -5t15 -10.5t13.5 -11t6 -6.5t-3 -7t-7.5 -13.5t-9.5 -14.5t-8 -10l-3 -3t-2 -5q0 -2 2 -3q4 -2 10.5 -7t12 -9.5t9.5 -8t4 -4.5z" />
<glyph unicode="&#x683;" horiz-adv-x="477" arabic-form="initial" d="M437 147q0 -1 -1.5 -9t-4.5 -16.5t-5.5 -15.5t-3.5 -7q-15 0 -33 0.5t-35 1t-31.5 0.5h-22.5q-19 0 -36 -3.5t-33 -8.5t-29.5 -11.5t-25.5 -12.5q-20 -10 -40 -21.5t-40.5 -21t-41 -16t-42.5 -6.5h-18q-9 0 -14.5 2.5t-8 7t-3.5 10t-1 11.5t1 11t3.5 9.5t8 7t14.5 2.5h18 q19 0 35.5 1.5t32 4.5t31 8t32.5 12q19 8 40.5 16t41.5 14q-17 5 -32.5 12t-31.5 13t-32 10.5t-32 4.5q-11 0 -21 -2t-18.5 -4t-14 -4t-7.5 -2q-3 0 -3 4q0 5 3.5 13t9 17t13 17t15.5 14q11 8 22 10t28 2q13 0 29 -5.5t33 -12.5t33.5 -15t30.5 -14q26 -10 60 -16.5t72 -8.5 q23 -1 39 -1.5t16 -1.5zM292 -83q0 -2 -4.5 -9.5t-10 -16t-10.5 -15.5t-7 -7q-1 0 -7.5 4.5t-14.5 10.5q-9 6 -20 15q-2 2 -4 2q-1 0 -3 -2q-7 -11 -13 -19q-5 -7 -10 -13t-6 -6t-8.5 4.5t-15 10.5t-14 11.5t-6.5 6.5q0 2 4.5 9.5t10.5 16t11 15.5t6 7q2 0 8.5 -5t13.5 -10 q8 -6 18 -15q3 -3 4 -3t4 4q7 10 14 19q5 7 10 13t6 6t8.5 -5t15 -11t14 -11.5t6.5 -6.5z" />
<glyph unicode="&#x683;" horiz-adv-x="509" arabic-form="medial" d="M543 31q0 -6 -0.5 -11.5t-3.5 -10t-8.5 -7t-14.5 -2.5h-18q-61 0 -97 4t-53 16q-11 7 -15.5 17.5t-4.5 25.5q0 10 2.5 19t4.5 20h-9q-29 0 -52.5 -4t-44.5 -11t-39.5 -16t-34.5 -18q-18 -10 -34.5 -19.5t-33.5 -17t-35.5 -12t-39.5 -4.5h-18q-9 0 -14.5 2.5t-8 7t-3.5 10 t-1 11.5t1 11t3.5 9.5t8 7t14.5 2.5h18q24 0 44.5 2.5t38 7.5t33 10.5t29.5 11.5q18 7 34.5 13.5t35.5 10.5q-10 4 -25.5 11t-34.5 13.5t-39.5 11.5t-39.5 5q-10 0 -19 -1.5t-15.5 -4t-10.5 -4t-5 -1.5q-4 0 -4 3q0 11 4.5 20.5t11.5 17.5t15.5 14.5t16.5 11.5 q10 5 21.5 6.5t18.5 1.5q15 0 35.5 -7t42 -17t43 -19t38.5 -13q20 -4 36 -7t34.5 -4.5t39.5 -1.5h50q1 0 2 -1.5t1 -2.5t-1.5 -6.5t-3.5 -12.5l-4 -14t-3 -10t-19 -4t-52 -1q0 -1 -0.5 -3t-0.5 -3q0 -7 5.5 -12.5t13.5 -9.5q11 -4 26 -7t31.5 -3.5t32.5 -1t29 -0.5h18 q9 0 14.5 -2.5t8.5 -7t3.5 -9.5t0.5 -11zM332 -83q0 -2 -4.5 -9.5t-10 -16t-10.5 -15.5t-7 -7q-1 0 -7.5 4.5t-14.5 10.5q-9 6 -20 15q-2 2 -4 2q-1 0 -3 -2q-7 -11 -13 -19q-5 -7 -10 -13t-6 -6t-8.5 4.5t-15 10.5t-14 11.5t-6.5 6.5q0 2 4.5 9.5t10.5 16t11 15.5t6 7 q2 0 8.5 -5t13.5 -10q8 -6 18 -15q3 -3 4 -3t4 4q7 10 14 19q5 7 10 13t6 6t8.5 -5t15 -11t14 -11.5t6.5 -6.5z" />
<glyph unicode="&#x683;" horiz-adv-x="479" arabic-form="final" d="M512 31q0 -6 -1 -11.5t-3.5 -10t-8 -7t-14.5 -2.5h-49q-37 0 -65 1t-47 8q-20 6 -28 18.5t-8 23.5q0 6 1 13.5t2 15.5t2.5 16t2.5 13q-32 -6 -63 -18t-58.5 -28.5t-50 -36.5t-39 -43t-25.5 -48t-9 -51q0 -40 16.5 -74t51.5 -58t90 -37.5t132 -13.5q24 0 49 2t46.5 4 t35.5 4t17 2q2 0 2.5 -2.5t0.5 -3.5t-9 -5t-23.5 -9.5t-32 -12.5t-34.5 -12.5t-30 -10t-19 -6.5q-9 -2 -18 -3.5t-17 -2.5t-15 -1h-11q-29 0 -60 3.5t-60 11.5t-54.5 22.5t-45 36.5t-30.5 52.5t-11 71.5q0 40 12 79.5t35 75.5t56 66.5t75 52.5q-21 4 -45 6.5t-40 2.5 q-7 0 -16 -1t-18 -2.5t-16.5 -2.5t-12.5 -1q-3 0 -3 4q0 2 1 8.5t2.5 13t3 12.5t1.5 8q1 3 10.5 8t22.5 9t27 6.5t25 2.5q20 0 40.5 -2.5t42 -6t44 -6.5t44.5 -3h18t22.5 0.5t23.5 1t21 0.5t15 -0.5t6 -1.5t-4 -9t-9 -16t-8.5 -15t-4.5 -7q-17 -3 -36.5 -6t-36.5 -6 q0 -16 6.5 -26t23 -16t45 -8t72.5 -2h18q9 0 14.5 -2.5t8 -7t3.5 -9.5t1 -11zM333 -101q0 -2 -4.5 -9.5t-10 -16t-10.5 -15.5t-7 -7q-1 0 -7.5 4.5t-14.5 10.5q-9 6 -20 15q-2 2 -4 2q-1 0 -3 -2q-7 -11 -13 -19q-5 -7 -10 -13t-6 -6t-8.5 4.5t-15 10.5t-14 11.5t-6.5 6.5 q0 2 4.5 9.5t10.5 16t11 15.5t6 7q2 0 8.5 -5t13.5 -10q8 -6 18 -15q3 -3 4 -3t4 4q7 10 14 19q5 7 10 13t6 6t8.5 -5t15 -11t14 -11.5t6.5 -6.5z" />
<glyph unicode="&#x684;" horiz-adv-x="477" arabic-form="initial" d="M437 147q0 -1 -1.5 -9t-4.5 -16.5t-5.5 -15.5t-3.5 -7q-15 0 -33 0.5t-35 1t-31.5 0.5h-22.5q-19 0 -36 -3.5t-33 -8.5t-29.5 -11.5t-25.5 -12.5q-20 -10 -40 -21.5t-40.5 -21t-41 -16t-42.5 -6.5h-18q-9 0 -14.5 2.5t-8 7t-3.5 10t-1 11.5t1 11t3.5 9.5t8 7t14.5 2.5h18 q19 0 35.5 1.5t32 4.5t31 8t32.5 12q19 8 40.5 16t41.5 14q-17 5 -32.5 12t-31.5 13t-32 10.5t-32 4.5q-11 0 -21 -2t-18.5 -4t-14 -4t-7.5 -2q-3 0 -3 4q0 5 3.5 13t9 17t13 17t15.5 14q11 8 22 10t28 2q13 0 29 -5.5t33 -12.5t33.5 -15t30.5 -14q26 -10 60 -16.5t72 -8.5 q23 -1 39 -1.5t16 -1.5zM256 -167q0 -1 -4.5 -9t-10 -16t-10.5 -15t-7 -7q-1 0 -8.5 4.5t-15 10t-14 11t-6.5 7.5q0 1 3 7t7.5 13t9.5 14t9 11q3 4 3 6t-2 4l-10 7.5t-12 8.5t-9.5 8t-3.5 5q0 2 4.5 9.5t10 16t10.5 15.5t7 7t9.5 -5t15 -10.5t13.5 -11t6 -6.5t-3 -7 t-7.5 -13.5t-9.5 -14.5t-8 -10l-3 -3t-2 -5q0 -2 2 -3q4 -2 10.5 -7t12 -9.5t9.5 -8t4 -4.5z" />
<glyph unicode="&#x684;" horiz-adv-x="509" arabic-form="medial" d="M543 31q0 -6 -0.5 -11.5t-3.5 -10t-8.5 -7t-14.5 -2.5h-18q-61 0 -97 4t-53 16q-11 7 -15.5 17.5t-4.5 25.5q0 10 2.5 19t4.5 20h-9q-29 0 -52.5 -4t-44.5 -11t-39.5 -16t-34.5 -18q-18 -10 -34.5 -19.5t-33.5 -17t-35.5 -12t-39.5 -4.5h-18q-9 0 -14.5 2.5t-8 7t-3.5 10 t-1 11.5t1 11t3.5 9.5t8 7t14.5 2.5h18q24 0 44.5 2.5t38 7.5t33 10.5t29.5 11.5q18 7 34.5 13.5t35.5 10.5q-10 4 -25.5 11t-34.5 13.5t-39.5 11.5t-39.5 5q-10 0 -19 -1.5t-15.5 -4t-10.5 -4t-5 -1.5q-4 0 -4 3q0 11 4.5 20.5t11.5 17.5t15.5 14.5t16.5 11.5 q10 5 21.5 6.5t18.5 1.5q15 0 35.5 -7t42 -17t43 -19t38.5 -13q20 -4 36 -7t34.5 -4.5t39.5 -1.5h50q1 0 2 -1.5t1 -2.5t-1.5 -6.5t-3.5 -12.5l-4 -14t-3 -10t-19 -4t-52 -1q0 -1 -0.5 -3t-0.5 -3q0 -7 5.5 -12.5t13.5 -9.5q11 -4 26 -7t31.5 -3.5t32.5 -1t29 -0.5h18 q9 0 14.5 -2.5t8.5 -7t3.5 -9.5t0.5 -11zM295 -167q0 -1 -4.5 -9t-10 -16t-10.5 -15t-7 -7q-1 0 -8.5 4.5t-15 10t-14 11t-6.5 7.5q0 1 3 7t7.5 13t9.5 14t9 11q3 4 3 6t-2 4l-10 7.5t-12 8.5t-9.5 8t-3.5 5q0 2 4.5 9.5t10 16t10.5 15.5t7 7t9.5 -5t15 -10.5t13.5 -11 t6 -6.5t-3 -7t-7.5 -13.5t-9.5 -14.5t-8 -10l-3 -3t-2 -5q0 -2 2 -3q4 -2 10.5 -7t12 -9.5t9.5 -8t4 -4.5z" />
<glyph unicode="&#x684;" horiz-adv-x="479" arabic-form="final" d="M512 31q0 -6 -1 -11.5t-3.5 -10t-8 -7t-14.5 -2.5h-49q-37 0 -65 1t-47 8q-20 6 -28 18.5t-8 23.5q0 6 1 13.5t2 15.5t2.5 16t2.5 13q-32 -6 -63 -18t-58.5 -28.5t-50 -36.5t-39 -43t-25.5 -48t-9 -51q0 -40 16.5 -74t51.5 -58t90 -37.5t132 -13.5q24 0 49 2t46.5 4 t35.5 4t17 2q2 0 2.5 -2.5t0.5 -3.5t-9 -5t-23.5 -9.5t-32 -12.5t-34.5 -12.5t-30 -10t-19 -6.5q-9 -2 -18 -3.5t-17 -2.5t-15 -1h-11q-29 0 -60 3.5t-60 11.5t-54.5 22.5t-45 36.5t-30.5 52.5t-11 71.5q0 40 12 79.5t35 75.5t56 66.5t75 52.5q-21 4 -45 6.5t-40 2.5 q-7 0 -16 -1t-18 -2.5t-16.5 -2.5t-12.5 -1q-3 0 -3 4q0 2 1 8.5t2.5 13t3 12.5t1.5 8q1 3 10.5 8t22.5 9t27 6.5t25 2.5q20 0 40.5 -2.5t42 -6t44 -6.5t44.5 -3h18t22.5 0.5t23.5 1t21 0.5t15 -0.5t6 -1.5t-4 -9t-9 -16t-8.5 -15t-4.5 -7q-17 -3 -36.5 -6t-36.5 -6 q0 -16 6.5 -26t23 -16t45 -8t72.5 -2h18q9 0 14.5 -2.5t8 -7t3.5 -9.5t1 -11zM296 -148q0 -1 -4.5 -9t-10 -16t-10.5 -15t-7 -7q-1 0 -8.5 4.5t-15 10t-14 11t-6.5 7.5q0 1 3 7t7.5 13t9.5 14t9 11q3 4 3 6t-2 4l-10 7.5t-12 8.5t-9.5 8t-3.5 5q0 2 4.5 9.5t10 16t10.5 15.5 t7 7t9.5 -5t15 -10.5t13.5 -11t6 -6.5t-3 -7t-7.5 -13.5t-9.5 -14.5t-8 -10l-3 -3t-2 -5q0 -2 2 -3q4 -2 10.5 -7t12 -9.5t9.5 -8t4 -4.5z" />
<glyph unicode="&#x685;" horiz-adv-x="477" d="M437 147q0 -1 -1.5 -9t-4.5 -16.5t-5.5 -15.5t-3.5 -7q-15 0 -33 0.5t-35 1t-31.5 0.5h-22.5q-19 0 -36 -3.5t-33 -8.5t-29.5 -11.5t-25.5 -12.5q-20 -10 -40 -21.5t-40.5 -21t-41 -16t-42.5 -6.5h-18q-9 0 -14.5 2.5t-8 7t-3.5 10t-1 11.5t1 11t3.5 9.5t8 7t14.5 2.5h18 q19 0 35.5 1.5t32 4.5t31 8t32.5 12q19 8 40.5 16t41.5 14q-17 5 -32.5 12t-31.5 13t-32 10.5t-32 4.5q-11 0 -21 -2t-18.5 -4t-14 -4t-7.5 -2q-3 0 -3 4q0 5 3.5 13t9 17t13 17t15.5 14q11 8 22 10t28 2q13 0 29 -5.5t33 -12.5t33.5 -15t30.5 -14q26 -10 60 -16.5t72 -8.5 q23 -1 39 -1.5t16 -1.5zM242 413q0 -2 -4 -10t-9.5 -16.5t-11 -15.5t-7.5 -7q-1 0 -8 5t-15 10.5t-14.5 11.5t-6.5 8t4.5 9.5t10.5 15.5t11 14.5t6 6.5q2 0 9.5 -4.5t15 -10.5t13.5 -11t6 -6zM292 328q0 -2 -4.5 -10t-9.5 -16.5t-10.5 -15.5t-7.5 -7q-1 0 -7.5 5t-13.5 11 q-9 6 -20 15q-2 2 -4 2q-1 0 -3 -3q-8 -11 -14 -19q-5 -7 -9.5 -13t-6.5 -6q-1 0 -8 4.5t-15 10.5t-14.5 11.5t-6.5 7.5q0 1 5 8.5t10.5 16t10.5 15.5t6 7q2 0 9 -5l14 -10q8 -6 17 -15q3 -2 5 -2q1 0 4 3q7 10 13 19q5 7 10 12.5t6 5.5t8.5 -4.5t15 -10.5t14 -11t6.5 -6z " />
<glyph unicode="&#x685;" horiz-adv-x="509" d="M543 31q0 -6 -0.5 -11.5t-3.5 -10t-8.5 -7t-14.5 -2.5h-18q-61 0 -97 4t-53 16q-11 7 -15.5 17.5t-4.5 25.5q0 10 2.5 19t4.5 20h-9q-29 0 -52.5 -4t-44.5 -11t-39.5 -16t-34.5 -18q-18 -10 -34.5 -19.5t-33.5 -17t-35.5 -12t-39.5 -4.5h-18q-9 0 -14.5 2.5t-8 7t-3.5 10 t-1 11.5t1 11t3.5 9.5t8 7t14.5 2.5h18q24 0 44.5 2.5t38 7.5t33 10.5t29.5 11.5q18 7 34.5 13.5t35.5 10.5q-10 4 -25.5 11t-34.5 13.5t-39.5 11.5t-39.5 5q-10 0 -19 -1.5t-15.5 -4t-10.5 -4t-5 -1.5q-4 0 -4 3q0 11 4.5 20.5t11.5 17.5t15.5 14.5t16.5 11.5 q10 5 21.5 6.5t18.5 1.5q15 0 35.5 -7t42 -17t43 -19t38.5 -13q20 -4 36 -7t34.5 -4.5t39.5 -1.5h50q1 0 2 -1.5t1 -2.5t-1.5 -6.5t-3.5 -12.5l-4 -14t-3 -10t-19 -4t-52 -1q0 -1 -0.5 -3t-0.5 -3q0 -7 5.5 -12.5t13.5 -9.5q11 -4 26 -7t31.5 -3.5t32.5 -1t29 -0.5h18 q9 0 14.5 -2.5t8.5 -7t3.5 -9.5t0.5 -11zM282 413q0 -2 -4 -10t-9.5 -16.5t-11 -15.5t-7.5 -7q-1 0 -8 5t-15 10.5t-14.5 11.5t-6.5 8t4.5 9.5t10.5 15.5t11 14.5t6 6.5q2 0 9.5 -4.5t15 -10.5t13.5 -11t6 -6zM332 328q0 -2 -4.5 -10t-9.5 -16.5t-10.5 -15.5t-7.5 -7 q-1 0 -7.5 5t-13.5 11q-9 6 -20 15q-2 2 -4 2q-1 0 -3 -3q-8 -11 -14 -19q-5 -7 -9.5 -13t-6.5 -6q-1 0 -8 4.5t-15 10.5t-14.5 11.5t-6.5 7.5q0 1 5 8.5t10.5 16t10.5 15.5t6 7q2 0 9 -5l14 -10q8 -6 17 -15q3 -2 5 -2q1 0 4 3q7 10 13 19q5 7 10 12.5t6 5.5t8.5 -4.5 t15 -10.5t14 -11t6.5 -6z" />
<glyph unicode="&#x685;" horiz-adv-x="479" d="M512 31q0 -6 -1 -11.5t-3.5 -10t-8 -7t-14.5 -2.5h-49q-37 0 -65 1t-47 8q-20 6 -28 18.5t-8 23.5q0 6 1 13.5t2 15.5t2.5 16t2.5 13q-32 -6 -63 -18t-58.5 -28.5t-50 -36.5t-39 -43t-25.5 -48t-9 -51q0 -40 16.5 -74t51.5 -58t90 -37.5t132 -13.5q24 0 49 2t46.5 4 t35.5 4t17 2q2 0 2.5 -2.5t0.5 -3.5t-9 -5t-23.5 -9.5t-32 -12.5t-34.5 -12.5t-30 -10t-19 -6.5q-9 -2 -18 -3.5t-17 -2.5t-15 -1h-11q-29 0 -60 3.5t-60 11.5t-54.5 22.5t-45 36.5t-30.5 52.5t-11 71.5q0 40 12 79.5t35 75.5t56 66.5t75 52.5q-21 4 -45 6.5t-40 2.5 q-7 0 -16 -1t-18 -2.5t-16.5 -2.5t-12.5 -1q-3 0 -3 4q0 2 1 8.5t2.5 13t3 12.5t1.5 8q1 3 10.5 8t22.5 9t27 6.5t25 2.5q20 0 40.5 -2.5t42 -6t44 -6.5t44.5 -3h18t22.5 0.5t23.5 1t21 0.5t15 -0.5t6 -1.5t-4 -9t-9 -16t-8.5 -15t-4.5 -7q-17 -3 -36.5 -6t-36.5 -6 q0 -16 6.5 -26t23 -16t45 -8t72.5 -2h18q9 0 14.5 -2.5t8 -7t3.5 -9.5t1 -11zM284 381q0 -2 -4 -10t-9.5 -16.5t-11 -15.5t-7.5 -7q-1 0 -8 5t-15 10.5t-14.5 11.5t-6.5 8t4.5 9.5t10.5 15.5t11 14.5t6 6.5q2 0 9.5 -4.5t15 -10.5t13.5 -11t6 -6zM334 296q0 -2 -4.5 -10 t-9.5 -16.5t-10.5 -15.5t-7.5 -7q-1 0 -7.5 5t-13.5 11q-9 6 -20 15q-2 2 -4 2q-1 0 -3 -3q-8 -11 -14 -19q-5 -7 -9.5 -13t-6.5 -6q-1 0 -8 4.5t-15 10.5t-14.5 11.5t-6.5 7.5q0 1 5 8.5t10.5 16t10.5 15.5t6 7q2 0 9 -5l14 -10q8 -6 17 -15q3 -2 5 -2q1 0 4 3q7 10 13 19 q5 7 10 12.5t6 5.5t8.5 -4.5t15 -10.5t14 -11t6.5 -6z" />
<glyph unicode="&#x686;" horiz-adv-x="477" arabic-form="initial" d="M437 147q0 -1 -1.5 -9t-4.5 -16.5t-5.5 -15.5t-3.5 -7q-15 0 -33 0.5t-35 1t-31.5 0.5h-22.5q-19 0 -36 -3.5t-33 -8.5t-29.5 -11.5t-25.5 -12.5q-20 -10 -40 -21.5t-40.5 -21t-41 -16t-42.5 -6.5h-18q-9 0 -14.5 2.5t-8 7t-3.5 10t-1 11.5t1 11t3.5 9.5t8 7t14.5 2.5h18 q19 0 35.5 1.5t32 4.5t31 8t32.5 12q19 8 40.5 16t41.5 14q-17 5 -32.5 12t-31.5 13t-32 10.5t-32 4.5q-11 0 -21 -2t-18.5 -4t-14 -4t-7.5 -2q-3 0 -3 4q0 5 3.5 13t9 17t13 17t15.5 14q11 8 22 10t28 2q13 0 29 -5.5t33 -12.5t33.5 -15t30.5 -14q26 -10 60 -16.5t72 -8.5 q23 -1 39 -1.5t16 -1.5zM293 -82q0 -2 -4.5 -9.5t-10 -16t-10.5 -15.5t-7 -7q-1 0 -7.5 4.5t-14.5 10.5q-9 6 -20 15q-2 2 -4 2q-1 0 -3 -3q-8 -11 -14 -19q-5 -7 -10 -13t-6 -6t-8 4.5t-15 11t-14.5 11.5t-6.5 7q0 1 4.5 9t10.5 16t11 15t6 7q2 0 8.5 -4.5t14.5 -9.5 l18 -15q3 -2 4 -3q1 0 4 4l14 18q5 7 9.5 13t6.5 6t9 -4.5t15 -10.5t14 -11.5t6 -6.5zM259 -179q0 -1 -4.5 -9t-10 -16t-11 -15t-7.5 -7q-1 0 -8 4.5t-15.5 10t-14.5 11t-6 7.5t4.5 9.5t10.5 16t11.5 15.5t6.5 7q2 0 9 -5t15 -11t14 -11.5t6 -6.5z" />
<glyph unicode="&#x686;" horiz-adv-x="509" arabic-form="medial" d="M543 31q0 -6 -0.5 -11.5t-3.5 -10t-8.5 -7t-14.5 -2.5h-18q-61 0 -97 4t-53 16q-11 7 -15.5 17.5t-4.5 25.5q0 10 2.5 19t4.5 20h-9q-29 0 -52.5 -4t-44.5 -11t-39.5 -16t-34.5 -18q-18 -10 -34.5 -19.5t-33.5 -17t-35.5 -12t-39.5 -4.5h-18q-9 0 -14.5 2.5t-8 7t-3.5 10 t-1 11.5t1 11t3.5 9.5t8 7t14.5 2.5h18q24 0 44.5 2.5t38 7.5t33 10.5t29.5 11.5q18 7 34.5 13.5t35.5 10.5q-10 4 -25.5 11t-34.5 13.5t-39.5 11.5t-39.5 5q-10 0 -19 -1.5t-15.5 -4t-10.5 -4t-5 -1.5q-4 0 -4 3q0 11 4.5 20.5t11.5 17.5t15.5 14.5t16.5 11.5 q10 5 21.5 6.5t18.5 1.5q15 0 35.5 -7t42 -17t43 -19t38.5 -13q20 -4 36 -7t34.5 -4.5t39.5 -1.5h50q1 0 2 -1.5t1 -2.5t-1.5 -6.5t-3.5 -12.5l-4 -14t-3 -10t-19 -4t-52 -1q0 -1 -0.5 -3t-0.5 -3q0 -7 5.5 -12.5t13.5 -9.5q11 -4 26 -7t31.5 -3.5t32.5 -1t29 -0.5h18 q9 0 14.5 -2.5t8.5 -7t3.5 -9.5t0.5 -11zM332 -82q0 -2 -4.5 -9.5t-10 -16t-10.5 -15.5t-7 -7q-1 0 -7.5 4.5t-14.5 10.5q-9 6 -20 15q-2 2 -4 2q-1 0 -3 -3q-8 -11 -14 -19q-5 -7 -10 -13t-6 -6t-8 4.5t-15 11t-14.5 11.5t-6.5 7q0 1 4.5 9t10.5 16t11 15t6 7q2 0 8.5 -4.5 t14.5 -9.5l18 -15q3 -2 4 -3q1 0 4 4l14 18q5 7 9.5 13t6.5 6t9 -4.5t15 -10.5t14 -11.5t6 -6.5zM298 -179q0 -1 -4.5 -9t-10 -16t-11 -15t-7.5 -7q-1 0 -8 4.5t-15.5 10t-14.5 11t-6 7.5t4.5 9.5t10.5 16t11.5 15.5t6.5 7q2 0 9 -5t15 -11t14 -11.5t6 -6.5z" />
<glyph unicode="&#x686;" horiz-adv-x="479" arabic-form="final" d="M512 31q0 -6 -1 -11.5t-3.5 -10t-8 -7t-14.5 -2.5h-49q-37 0 -65 1t-47 8q-20 6 -28 18.5t-8 23.5q0 6 1 13.5t2 15.5t2.5 16t2.5 13q-32 -6 -63 -18t-58.5 -28.5t-50 -36.5t-39 -43t-25.5 -48t-9 -51q0 -40 16.5 -74t51.5 -58t90 -37.5t132 -13.5q24 0 49 2t46.5 4 t35.5 4t17 2q2 0 2.5 -2.5t0.5 -3.5t-9 -5t-23.5 -9.5t-32 -12.5t-34.5 -12.5t-30 -10t-19 -6.5q-9 -2 -18 -3.5t-17 -2.5t-15 -1h-11q-29 0 -60 3.5t-60 11.5t-54.5 22.5t-45 36.5t-30.5 52.5t-11 71.5q0 40 12 79.5t35 75.5t56 66.5t75 52.5q-21 4 -45 6.5t-40 2.5 q-7 0 -16 -1t-18 -2.5t-16.5 -2.5t-12.5 -1q-3 0 -3 4q0 2 1 8.5t2.5 13t3 12.5t1.5 8q1 3 10.5 8t22.5 9t27 6.5t25 2.5q20 0 40.5 -2.5t42 -6t44 -6.5t44.5 -3h18t22.5 0.5t23.5 1t21 0.5t15 -0.5t6 -1.5t-4 -9t-9 -16t-8.5 -15t-4.5 -7q-17 -3 -36.5 -6t-36.5 -6 q0 -16 6.5 -26t23 -16t45 -8t72.5 -2h18q9 0 14.5 -2.5t8 -7t3.5 -9.5t1 -11zM334 -57q0 -2 -4.5 -9.5t-10 -16t-10.5 -15.5t-7 -7q-1 0 -7.5 4.5t-14.5 10.5q-9 6 -20 15q-2 2 -4 2q-1 0 -3 -3q-8 -11 -14 -19q-5 -7 -10 -13t-6 -6t-8 4.5t-15 11t-14.5 11.5t-6.5 7 q0 1 4.5 9t10.5 16t11 15t6 7q2 0 8.5 -4.5t14.5 -9.5l18 -15q3 -2 4 -3q1 0 4 4l14 18q5 7 9.5 13t6.5 6t9 -4.5t15 -10.5t14 -11.5t6 -6.5zM300 -154q0 -1 -4.5 -9t-10 -16t-11 -15t-7.5 -7q-1 0 -8 4.5t-15.5 10t-14.5 11t-6 7.5t4.5 9.5t10.5 16t11.5 15.5t6.5 7 q2 0 9 -5t15 -11t14 -11.5t6 -6.5z" />
<glyph unicode="&#x687;" horiz-adv-x="477" arabic-form="initial" d="M437 147q0 -1 -1.5 -9t-4.5 -16.5t-5.5 -15.5t-3.5 -7q-15 0 -33 0.5t-35 1t-31.5 0.5h-22.5q-19 0 -36 -3.5t-33 -8.5t-29.5 -11.5t-25.5 -12.5q-20 -10 -40 -21.5t-40.5 -21t-41 -16t-42.5 -6.5h-18q-9 0 -14.5 2.5t-8 7t-3.5 10t-1 11.5t1 11t3.5 9.5t8 7t14.5 2.5h18 q19 0 35.5 1.5t32 4.5t31 8t32.5 12q19 8 40.5 16t41.5 14q-17 5 -32.5 12t-31.5 13t-32 10.5t-32 4.5q-11 0 -21 -2t-18.5 -4t-14 -4t-7.5 -2q-3 0 -3 4q0 5 3.5 13t9 17t13 17t15.5 14q11 8 22 10t28 2q13 0 29 -5.5t33 -12.5t33.5 -15t30.5 -14q26 -10 60 -16.5t72 -8.5 q23 -1 39 -1.5t16 -1.5zM289 -82q0 -2 -4.5 -9.5t-10 -16t-10.5 -15.5t-7 -7q-1 0 -7.5 4.5t-14.5 10.5q-9 6 -20 15q-2 2 -4 2q-1 0 -3 -2q-8 -11 -14 -19q-5 -7 -10 -13t-6 -6t-8 4.5t-15 10.5t-14.5 11t-6.5 7t4.5 9.5t10.5 16t11.5 15.5t6.5 7q2 0 8.5 -5t13.5 -11 q8 -6 18 -14q3 -3 4 -3t4 4q7 10 13 18q5 7 10 13t7 6q1 0 8 -4.5t15 -11t14.5 -11.5t6.5 -6zM296 -166q0 -2 -4.5 -10t-10 -16.5t-11 -15.5t-6.5 -7t-8 5t-15 11q-9 6 -19 15q-2 2 -4 2q-1 0 -3 -2q-8 -11 -14 -19q-5 -7 -10 -13t-6 -6t-8.5 4.5t-15.5 10.5t-14 11t-6 7 t4.5 9.5t10.5 16t11 15.5t6 7q2 0 8.5 -5t13.5 -11q8 -6 18 -14q3 -3 5 -3q1 0 4 4l14 18q5 7 9.5 13t5.5 6q2 0 9 -4.5t15 -11t14.5 -11.5t6.5 -6z" />
<glyph unicode="&#x687;" horiz-adv-x="509" arabic-form="medial" d="M543 31q0 -6 -0.5 -11.5t-3.5 -10t-8.5 -7t-14.5 -2.5h-18q-61 0 -97 4t-53 16q-11 7 -15.5 17.5t-4.5 25.5q0 10 2.5 19t4.5 20h-9q-29 0 -52.5 -4t-44.5 -11t-39.5 -16t-34.5 -18q-18 -10 -34.5 -19.5t-33.5 -17t-35.5 -12t-39.5 -4.5h-18q-9 0 -14.5 2.5t-8 7t-3.5 10 t-1 11.5t1 11t3.5 9.5t8 7t14.5 2.5h18q24 0 44.5 2.5t38 7.5t33 10.5t29.5 11.5q18 7 34.5 13.5t35.5 10.5q-10 4 -25.5 11t-34.5 13.5t-39.5 11.5t-39.5 5q-10 0 -19 -1.5t-15.5 -4t-10.5 -4t-5 -1.5q-4 0 -4 3q0 11 4.5 20.5t11.5 17.5t15.5 14.5t16.5 11.5 q10 5 21.5 6.5t18.5 1.5q15 0 35.5 -7t42 -17t43 -19t38.5 -13q20 -4 36 -7t34.5 -4.5t39.5 -1.5h50q1 0 2 -1.5t1 -2.5t-1.5 -6.5t-3.5 -12.5l-4 -14t-3 -10t-19 -4t-52 -1q0 -1 -0.5 -3t-0.5 -3q0 -7 5.5 -12.5t13.5 -9.5q11 -4 26 -7t31.5 -3.5t32.5 -1t29 -0.5h18 q9 0 14.5 -2.5t8.5 -7t3.5 -9.5t0.5 -11zM329 -82q0 -2 -4.5 -9.5t-10 -16t-10.5 -15.5t-7 -7q-1 0 -7.5 4.5t-14.5 10.5q-9 6 -20 15q-2 2 -4 2q-1 0 -3 -2q-8 -11 -14 -19q-5 -7 -10 -13t-6 -6t-8 4.5t-15 10.5t-14.5 11t-6.5 7t4.5 9.5t10.5 16t11.5 15.5t6.5 7 q2 0 8.5 -5t13.5 -11q8 -6 18 -14q3 -3 4 -3t4 4q7 10 13 18q5 7 10 13t7 6q1 0 8 -4.5t15 -11t14.5 -11.5t6.5 -6zM336 -166q0 -2 -4.5 -10t-10 -16.5t-11 -15.5t-6.5 -7t-8 5t-15 11q-9 6 -19 15q-2 2 -4 2q-1 0 -3 -2q-8 -11 -14 -19q-5 -7 -10 -13t-6 -6t-8.5 4.5 t-15.5 10.5t-14 11t-6 7t4.5 9.5t10.5 16t11 15.5t6 7q2 0 8.5 -5t13.5 -11q8 -6 18 -14q3 -3 5 -3q1 0 4 4l14 18q5 7 9.5 13t5.5 6q2 0 9 -4.5t15 -11t14.5 -11.5t6.5 -6z" />
<glyph unicode="&#x687;" horiz-adv-x="479" arabic-form="final" d="M512 31q0 -6 -1 -11.5t-3.5 -10t-8 -7t-14.5 -2.5h-49q-37 0 -65 1t-47 8q-20 6 -28 18.5t-8 23.5q0 6 1 13.5t2 15.5t2.5 16t2.5 13q-32 -6 -63 -18t-58.5 -28.5t-50 -36.5t-39 -43t-25.5 -48t-9 -51q0 -40 16.5 -74t51.5 -58t90 -37.5t132 -13.5q24 0 49 2t46.5 4 t35.5 4t17 2q2 0 2.5 -2.5t0.5 -3.5t-9 -5t-23.5 -9.5t-32 -12.5t-34.5 -12.5t-30 -10t-19 -6.5q-9 -2 -18 -3.5t-17 -2.5t-15 -1h-11q-29 0 -60 3.5t-60 11.5t-54.5 22.5t-45 36.5t-30.5 52.5t-11 71.5q0 40 12 79.5t35 75.5t56 66.5t75 52.5q-21 4 -45 6.5t-40 2.5 q-7 0 -16 -1t-18 -2.5t-16.5 -2.5t-12.5 -1q-3 0 -3 4q0 2 1 8.5t2.5 13t3 12.5t1.5 8q1 3 10.5 8t22.5 9t27 6.5t25 2.5q20 0 40.5 -2.5t42 -6t44 -6.5t44.5 -3h18t22.5 0.5t23.5 1t21 0.5t15 -0.5t6 -1.5t-4 -9t-9 -16t-8.5 -15t-4.5 -7q-17 -3 -36.5 -6t-36.5 -6 q0 -16 6.5 -26t23 -16t45 -8t72.5 -2h18q9 0 14.5 -2.5t8 -7t3.5 -9.5t1 -11zM330 -58q0 -2 -4.5 -9.5t-10 -16t-10.5 -15.5t-7 -7q-1 0 -7.5 4.5t-14.5 10.5q-9 6 -20 15q-2 2 -4 2q-1 0 -3 -2q-8 -11 -14 -19q-5 -7 -10 -13t-6 -6t-8 4.5t-15 10.5t-14.5 11t-6.5 7 t4.5 9.5t10.5 16t11.5 15.5t6.5 7q2 0 8.5 -5t13.5 -11q8 -6 18 -14q3 -3 4 -3t4 4q7 10 13 18q5 7 10 13t7 6q1 0 8 -4.5t15 -11t14.5 -11.5t6.5 -6zM337 -142q0 -2 -4.5 -10t-10 -16.5t-11 -15.5t-6.5 -7t-8 5t-15 11q-9 6 -19 15q-2 2 -4 2q-1 0 -3 -2q-8 -11 -14 -19 q-5 -7 -10 -13t-6 -6t-8.5 4.5t-15.5 10.5t-14 11t-6 7t4.5 9.5t10.5 16t11 15.5t6 7q2 0 8.5 -5t13.5 -11q8 -6 18 -14q3 -3 5 -3q1 0 4 4l14 18q5 7 9.5 13t5.5 6q2 0 9 -4.5t15 -11t14.5 -11.5t6.5 -6z" />
<glyph unicode="&#x688;" horiz-adv-x="372" arabic-form="final" d="M405 31q0 -6 -1 -11.5t-3.5 -10t-8 -7t-14.5 -2.5h-18q-25 0 -40.5 6t-26 19t-18.5 32t-18 46q-13 -22 -24 -38t-27 -27q-22 -16 -48.5 -22.5t-53.5 -6.5q-13 0 -26 2t-24 7.5t-17.5 14.5t-6.5 21q0 3 3 13.5t6.5 21.5t7.5 19.5t6 8.5q1 0 2.5 -2t2.5 -5t1.5 -6t1.5 -5 q1 -4 5 -9t11 -9t19 -6.5t29 -2.5q22 0 44 2t39.5 10t28 23.5t10.5 43.5q-2 23 -6.5 45t-9.5 42.5t-8.5 38.5t-3.5 33q0 4 4 13.5t8.5 20t8.5 17.5t5 7q2 0 3 -2.5t2 -10.5q3 -24 7.5 -51t9.5 -54t10 -52.5t10.5 -47.5t10.5 -38t10 -24q8 -14 22.5 -20.5t29.5 -6.5h18 q9 0 14.5 -2.5t8 -7t3.5 -9.5t1 -11zM331 508q0 -17 -8.5 -30t-22 -22.5t-31 -16.5t-35.5 -10.5t-36.5 -5.5t-32.5 -2q-6 0 -12.5 4t-12.5 9.5t-10 11.5t-4 9q0 4 4 5q5 0 14.5 -1.5t18.5 -1.5q10 0 16 4.5t9 12.5q2 7 3 14t1 11q0 17 -2.5 32.5t-5.5 31.5t-5 32t-2 33 q0 6 1 11.5t3.5 10.5t5 8t5.5 3q1 0 4 -5t6.5 -10.5t6.5 -10.5t3 -6q-4 -3 -7.5 -8t-3.5 -15t1.5 -18.5t3.5 -18.5t3.5 -21.5t1.5 -26.5q0 -13 -2 -29q47 56 86 56q17 0 26.5 -11.5t9.5 -28.5zM309 493q0 2 -3 4.5t-7 4t-9.5 2.5t-9.5 1q-9 0 -17.5 -2t-17 -7t-18 -14 t-20.5 -22q29 2 48.5 7.5t31.5 10.5t17 9.5t5 5.5z" />
<glyph unicode="&#x689;" horiz-adv-x="372" d="M204 -23q0 -16 -5.5 -29.5t-15 -23.5t-22.5 -16.5t-29 -6.5q-22 0 -34 16.5t-12 50.5q0 22 11 41q-12 0 -24 3t-21.5 8t-15.5 13.5t-6 20.5q0 3 3 13.5t6.5 21.5t7.5 19.5t6 8.5q1 0 2.5 -2t2.5 -5t1.5 -6t1.5 -5q1 -4 5 -9t11 -9t19 -6.5t29 -2.5q22 0 44 2t39.5 10 t28 23.5t10.5 43.5q-2 23 -6.5 45t-9.5 42.5t-8.5 38.5t-3.5 33q0 4 4 13.5t8.5 20t8.5 17.5t5 7q2 0 3 -2.5t2 -10.5q3 -24 7.5 -51t9.5 -54t10 -52.5t10.5 -47.5t10.5 -38t10 -24q8 -14 22.5 -20.5t29.5 -6.5h18q9 0 14.5 -2.5t8 -7t3.5 -9.5t1 -11t-1 -11.5t-3.5 -10 t-8 -7t-14.5 -2.5h-18q-25 0 -40.5 6t-26 19t-18.5 32t-18 46q-13 -22 -24 -38t-27 -27q-5 -4 -11 -7t-11 -6q9 -10 14.5 -23.5t5.5 -24.5zM177 -37q0 6 -4.5 12.5t-11.5 12.5t-15 10t-16 4q-12 0 -19 -9.5t-7 -19.5q0 -12 12 -19t28 -7q4 0 10 1.5t11 3.5t8.5 5t3.5 6z" />
<glyph unicode="&#x68a;" horiz-adv-x="372" d="M405 31q0 -6 -1 -11.5t-3.5 -10t-8 -7t-14.5 -2.5h-18q-25 0 -40.5 6t-26 19t-18.5 32t-18 46q-13 -22 -24 -38t-27 -27q-22 -16 -48.5 -22.5t-53.5 -6.5q-13 0 -26 2t-24 7.5t-17.5 14.5t-6.5 21q0 3 3 13.5t6.5 21.5t7.5 19.5t6 8.5q1 0 2.5 -2t2.5 -5t1.5 -6t1.5 -5 q1 -4 5 -9t11 -9t19 -6.5t29 -2.5q22 0 44 2t39.5 10t28 23.5t10.5 43.5q-2 23 -6.5 45t-9.5 42.5t-8.5 38.5t-3.5 33q0 4 4 13.5t8.5 20t8.5 17.5t5 7q2 0 3 -2.5t2 -10.5q3 -24 7.5 -51t9.5 -54t10 -52.5t10.5 -47.5t10.5 -38t10 -24q8 -14 22.5 -20.5t29.5 -6.5h18 q9 0 14.5 -2.5t8 -7t3.5 -9.5t1 -11zM243 -81q0 -2 -4.5 -9.5t-10 -16t-11.5 -15.5t-8 -7q-1 0 -8 4.5t-15 10t-14.5 11t-6.5 7.5t5 9.5t10.5 16t11 15.5t6.5 7q2 0 9.5 -5t15 -10.5t14 -11t6.5 -6.5z" />
<glyph unicode="&#x68b;" horiz-adv-x="372" d="M405 31q0 -6 -1 -11.5t-3.5 -10t-8 -7t-14.5 -2.5h-18q-25 0 -40.5 6t-26 19t-18.5 32t-18 46q-13 -22 -24 -38t-27 -27q-22 -16 -48.5 -22.5t-53.5 -6.5q-13 0 -26 2t-24 7.5t-17.5 14.5t-6.5 21q0 3 3 13.5t6.5 21.5t7.5 19.5t6 8.5q1 0 2.5 -2t2.5 -5t1.5 -6t1.5 -5 q1 -4 5 -9t11 -9t19 -6.5t29 -2.5q22 0 44 2t39.5 10t28 23.5t10.5 43.5q-2 23 -6.5 45t-9.5 42.5t-8.5 38.5t-3.5 33q0 4 4 13.5t8.5 20t8.5 17.5t5 7q2 0 3 -2.5t2 -10.5q3 -24 7.5 -51t9.5 -54t10 -52.5t10.5 -47.5t10.5 -38t10 -24q8 -14 22.5 -20.5t29.5 -6.5h18 q9 0 14.5 -2.5t8 -7t3.5 -9.5t1 -11zM331 508q0 -17 -8.5 -30t-22 -22.5t-31 -16.5t-35.5 -10.5t-36.5 -5.5t-32.5 -2q-6 0 -12.5 4t-12.5 9.5t-10 11.5t-4 9q0 4 4 5q5 0 14.5 -1.5t18.5 -1.5q10 0 16 4.5t9 12.5q2 7 3 14t1 11q0 17 -2.5 32.5t-5.5 31.5t-5 32t-2 33 q0 6 1 11.5t3.5 10.5t5 8t5.5 3q1 0 4 -5t6.5 -10.5t6.5 -10.5t3 -6q-4 -3 -7.5 -8t-3.5 -15t1.5 -18.5t3.5 -18.5t3.5 -21.5t1.5 -26.5q0 -13 -2 -29q47 56 86 56q17 0 26.5 -11.5t9.5 -28.5zM309 493q0 2 -3 4.5t-7 4t-9.5 2.5t-9.5 1q-9 0 -17.5 -2t-17 -7t-18 -14 t-20.5 -22q29 2 48.5 7.5t31.5 10.5t17 9.5t5 5.5zM243 -81q0 -2 -4.5 -9.5t-10 -16t-11.5 -15.5t-8 -7q-1 0 -8 4.5t-15 10t-14.5 11t-6.5 7.5t5 9.5t10.5 16t11 15.5t6.5 7q2 0 9.5 -5t15 -10.5t14 -11t6.5 -6.5z" />
<glyph unicode="&#x68c;" horiz-adv-x="372" arabic-form="final" d="M405 31q0 -6 -1 -11.5t-3.5 -10t-8 -7t-14.5 -2.5h-18q-25 0 -40.5 6t-26 19t-18.5 32t-18 46q-13 -22 -24 -38t-27 -27q-22 -16 -48.5 -22.5t-53.5 -6.5q-13 0 -26 2t-24 7.5t-17.5 14.5t-6.5 21q0 3 3 13.5t6.5 21.5t7.5 19.5t6 8.5q1 0 2.5 -2t2.5 -5t1.5 -6t1.5 -5 q1 -4 5 -9t11 -9t19 -6.5t29 -2.5q22 0 44 2t39.5 10t28 23.5t10.5 43.5q-2 23 -6.5 45t-9.5 42.5t-8.5 38.5t-3.5 33q0 4 4 13.5t8.5 20t8.5 17.5t5 7q2 0 3 -2.5t2 -10.5q3 -24 7.5 -51t9.5 -54t10 -52.5t10.5 -47.5t10.5 -38t10 -24q8 -14 22.5 -20.5t29.5 -6.5h18 q9 0 14.5 -2.5t8 -7t3.5 -9.5t1 -11zM306 478q0 -2 -4.5 -9.5t-10 -16t-10.5 -15.5t-7 -7q-1 0 -7.5 4.5t-14.5 10.5q-9 6 -20 15q-2 2 -4 2q-1 0 -3 -2q-7 -11 -13 -19q-5 -7 -10 -13t-6 -6t-8.5 4.5t-15 10.5t-14 11.5t-6.5 6.5q0 2 4.5 9.5t10.5 16t11 15.5t6 7 q2 0 8.5 -5t13.5 -10q8 -6 18 -15q3 -3 4 -3t4 4q7 10 14 19q5 7 10 13t6 6t8.5 -5t15 -11t14 -11.5t6.5 -6.5z" />
<glyph unicode="&#x68d;" horiz-adv-x="372" arabic-form="final" d="M405 31q0 -6 -1 -11.5t-3.5 -10t-8 -7t-14.5 -2.5h-18q-25 0 -40.5 6t-26 19t-18.5 32t-18 46q-13 -22 -24 -38t-27 -27q-22 -16 -48.5 -22.5t-53.5 -6.5q-13 0 -26 2t-24 7.5t-17.5 14.5t-6.5 21q0 3 3 13.5t6.5 21.5t7.5 19.5t6 8.5q1 0 2.5 -2t2.5 -5t1.5 -6t1.5 -5 q1 -4 5 -9t11 -9t19 -6.5t29 -2.5q22 0 44 2t39.5 10t28 23.5t10.5 43.5q-2 23 -6.5 45t-9.5 42.5t-8.5 38.5t-3.5 33q0 4 4 13.5t8.5 20t8.5 17.5t5 7q2 0 3 -2.5t2 -10.5q3 -24 7.5 -51t9.5 -54t10 -52.5t10.5 -47.5t10.5 -38t10 -24q8 -14 22.5 -20.5t29.5 -6.5h18 q9 0 14.5 -2.5t8 -7t3.5 -9.5t1 -11zM281 -83q0 -2 -4.5 -9.5t-10 -16t-10.5 -15.5t-7 -7q-1 0 -7.5 4.5t-14.5 10.5q-9 6 -20 15q-2 2 -4 2q-1 0 -3 -2q-7 -11 -13 -19q-5 -7 -10 -13t-6 -6t-8.5 4.5t-15 10.5t-14 11.5t-6.5 6.5q0 2 4.5 9.5t10.5 16t11 15.5t6 7 q2 0 8.5 -5t13.5 -10q8 -6 18 -15q3 -3 4 -3t4 4q7 10 14 19q5 7 10 13t6 6t8.5 -5t15 -11t14 -11.5t6.5 -6.5z" />
<glyph unicode="&#x68e;" horiz-adv-x="372" arabic-form="final" d="M405 31q0 -6 -1 -11.5t-3.5 -10t-8 -7t-14.5 -2.5h-18q-25 0 -40.5 6t-26 19t-18.5 32t-18 46q-13 -22 -24 -38t-27 -27q-22 -16 -48.5 -22.5t-53.5 -6.5q-13 0 -26 2t-24 7.5t-17.5 14.5t-6.5 21q0 3 3 13.5t6.5 21.5t7.5 19.5t6 8.5q1 0 2.5 -2t2.5 -5t1.5 -6t1.5 -5 q1 -4 5 -9t11 -9t19 -6.5t29 -2.5q22 0 44 2t39.5 10t28 23.5t10.5 43.5q-2 23 -6.5 45t-9.5 42.5t-8.5 38.5t-3.5 33q0 4 4 13.5t8.5 20t8.5 17.5t5 7q2 0 3 -2.5t2 -10.5q3 -24 7.5 -51t9.5 -54t10 -52.5t10.5 -47.5t10.5 -38t10 -24q8 -14 22.5 -20.5t29.5 -6.5h18 q9 0 14.5 -2.5t8 -7t3.5 -9.5t1 -11zM256 564q0 -2 -4 -10t-9.5 -16.5t-11 -15.5t-7.5 -7q-1 0 -8 5t-15 10.5t-14.5 11.5t-6.5 8t4.5 9.5t10.5 15.5t11 14.5t6 6.5q2 0 9.5 -4.5t15 -10.5t13.5 -11t6 -6zM306 479q0 -2 -4.5 -10t-9.5 -16.5t-10.5 -15.5t-7.5 -7 q-1 0 -7.5 5t-13.5 11q-9 6 -20 15q-2 2 -4 2q-1 0 -3 -3q-8 -11 -14 -19q-5 -7 -9.5 -13t-6.5 -6q-1 0 -8 4.5t-15 10.5t-14.5 11.5t-6.5 7.5q0 1 5 8.5t10.5 16t10.5 15.5t6 7q2 0 9 -5l14 -10q8 -6 17 -15q3 -2 5 -2q1 0 4 3q7 10 13 19q5 7 10 12.5t6 5.5t8.5 -4.5 t15 -10.5t14 -11t6.5 -6z" />
<glyph unicode="&#x68f;" horiz-adv-x="372" d="M405 31q0 -6 -1 -11.5t-3.5 -10t-8 -7t-14.5 -2.5h-18q-25 0 -40.5 6t-26 19t-18.5 32t-18 46q-13 -22 -24 -38t-27 -27q-22 -16 -48.5 -22.5t-53.5 -6.5q-13 0 -26 2t-24 7.5t-17.5 14.5t-6.5 21q0 3 3 13.5t6.5 21.5t7.5 19.5t6 8.5q1 0 2.5 -2t2.5 -5t1.5 -6t1.5 -5 q1 -4 5 -9t11 -9t19 -6.5t29 -2.5q22 0 44 2t39.5 10t28 23.5t10.5 43.5q-2 23 -6.5 45t-9.5 42.5t-8.5 38.5t-3.5 33q0 4 4 13.5t8.5 20t8.5 17.5t5 7q2 0 3 -2.5t2 -10.5q3 -24 7.5 -51t9.5 -54t10 -52.5t10.5 -47.5t10.5 -38t10 -24q8 -14 22.5 -20.5t29.5 -6.5h18 q9 0 14.5 -2.5t8 -7t3.5 -9.5t1 -11zM306 566q0 -2 -4.5 -9.5t-10 -16t-10.5 -15.5t-7 -7q-1 0 -7.5 4.5t-14.5 10.5q-9 6 -20 15q-2 2 -4 2q-1 0 -3 -3q-8 -11 -14 -19q-5 -7 -10 -13t-6 -6t-8 4.5t-15 11t-14.5 11.5t-6.5 7q0 1 4.5 9t10.5 16t11 15t6 7q2 0 8.5 -4.5 t14.5 -9.5l18 -15q3 -2 4 -3q1 0 4 4l14 18q5 7 9.5 13t6.5 6t9 -4.5t15 -10.5t14 -11.5t6 -6.5zM272 469q0 -1 -4.5 -9t-10 -16t-11 -15t-7.5 -7q-1 0 -8 4.5t-15.5 10t-14.5 11t-6 7.5t4.5 9.5t10.5 16t11.5 15.5t6.5 7q2 0 9 -5t15 -11t14 -11.5t6 -6.5z" />
<glyph unicode="&#x690;" horiz-adv-x="372" d="M405 31q0 -6 -1 -11.5t-3.5 -10t-8 -7t-14.5 -2.5h-18q-25 0 -40.5 6t-26 19t-18.5 32t-18 46q-13 -22 -24 -38t-27 -27q-22 -16 -48.5 -22.5t-53.5 -6.5q-13 0 -26 2t-24 7.5t-17.5 14.5t-6.5 21q0 3 3 13.5t6.5 21.5t7.5 19.5t6 8.5q1 0 2.5 -2t2.5 -5t1.5 -6t1.5 -5 q1 -4 5 -9t11 -9t19 -6.5t29 -2.5q22 0 44 2t39.5 10t28 23.5t10.5 43.5q-2 23 -6.5 45t-9.5 42.5t-8.5 38.5t-3.5 33q0 4 4 13.5t8.5 20t8.5 17.5t5 7q2 0 3 -2.5t2 -10.5q3 -24 7.5 -51t9.5 -54t10 -52.5t10.5 -47.5t10.5 -38t10 -24q8 -14 22.5 -20.5t29.5 -6.5h18 q9 0 14.5 -2.5t8 -7t3.5 -9.5t1 -11zM303 562q0 -2 -4.5 -9.5t-10 -16t-10.5 -15.5t-7 -7q-1 0 -7.5 4.5t-14.5 10.5q-9 6 -20 15q-2 2 -4 2q-1 0 -3 -2q-8 -11 -14 -19q-5 -7 -10 -13t-6 -6t-8 4.5t-15 10.5t-14.5 11t-6.5 7t4.5 9.5t10.5 16t11.5 15.5t6.5 7q2 0 8.5 -5 t13.5 -11q8 -6 18 -14q3 -3 4 -3t4 4q7 10 13 18q5 7 10 13t7 6q1 0 8 -4.5t15 -11t14.5 -11.5t6.5 -6zM310 478q0 -2 -4.5 -10t-10 -16.5t-11 -15.5t-6.5 -7t-8 5t-15 11q-9 6 -19 15q-2 2 -4 2q-1 0 -3 -2q-8 -11 -14 -19q-5 -7 -10 -13t-6 -6t-8.5 4.5t-15.5 10.5t-14 11 t-6 7t4.5 9.5t10.5 16t11 15.5t6 7q2 0 8.5 -5t13.5 -11q8 -6 18 -14q3 -3 5 -3q1 0 4 4l14 18q5 7 9.5 13t5.5 6q2 0 9 -4.5t15 -11t14.5 -11.5t6.5 -6z" />
<glyph unicode="&#x691;" horiz-adv-x="237" arabic-form="final" d="M271 31q0 -6 -0.5 -11.5t-3.5 -10t-8.5 -7t-14.5 -2.5h-18q-4 0 -7.5 0.5t-7.5 0.5q-2 -21 -6 -41t-11 -40t-18 -40t-28 -40q-19 -22 -42.5 -36.5t-57.5 -14.5q-14 0 -31 2.5t-31.5 6.5t-24.5 8t-10 6q0 3 3 5t5 2l3 -1q3 0 7 -0.5l8 -1t8 -0.5q14 0 31.5 4t37 12.5 t40 22t39.5 33.5q16 16 26.5 31.5t16.5 28.5t8.5 22t2.5 12t-5.5 11.5t-12.5 18t-12.5 17.5t-5.5 10q0 1 3 8.5t7 16.5t8 17t5 11h3q10 -11 21.5 -21t27.5 -10h18q9 0 14.5 -2.5t8.5 -7t3.5 -9.5t0.5 -11zM273 229q0 -17 -8.5 -30t-22 -22.5t-31 -16.5t-35.5 -10.5 t-36.5 -5.5t-32.5 -2q-6 0 -12.5 4t-12.5 9.5t-10 11.5t-4 9q0 4 4 5q5 0 14.5 -1.5t18.5 -1.5q10 0 16 4.5t9 12.5q2 7 3 14t1 11q0 17 -2.5 32.5t-5.5 31.5t-5 32t-2 33q0 6 1 11.5t3.5 10.5t5 8t5.5 3q1 0 4 -5t6.5 -10.5t6.5 -10.5t3 -6q-4 -3 -7.5 -8t-3.5 -15 t1.5 -18.5t3.5 -18.5t3.5 -21.5t1.5 -26.5q0 -13 -2 -29q47 56 86 56q17 0 26.5 -11.5t9.5 -28.5zM251 214q0 2 -3 4.5t-7 4t-9.5 2.5t-9.5 1q-9 0 -17.5 -2t-17 -7t-18 -14t-20.5 -22q29 2 48.5 7.5t31.5 10.5t17 9.5t5 5.5z" />
<glyph unicode="&#x692;" horiz-adv-x="237" d="M271 31q0 -6 -0.5 -11.5t-3.5 -10t-8.5 -7t-14.5 -2.5h-18q-4 0 -7.5 0.5t-7.5 0.5q-2 -21 -6 -41t-11 -40t-18 -40t-28 -40q-19 -22 -42.5 -36.5t-57.5 -14.5q-14 0 -31 2.5t-31.5 6.5t-24.5 8t-10 6q0 3 3 5t5 2l3 -1q3 0 7 -0.5l8 -1t8 -0.5q14 0 31.5 4t37 12.5 t40 22t39.5 33.5q16 16 26.5 31.5t16.5 28.5t8.5 22t2.5 12t-5.5 11.5t-12.5 18t-12.5 17.5t-5.5 10q0 1 3 8.5t7 16.5t8 17t5 11h3q10 -11 21.5 -21t27.5 -10h18q9 0 14.5 -2.5t8.5 -7t3.5 -9.5t0.5 -11zM255 265q0 -2 -6 -13t-14.5 -25.5t-18.5 -29.5t-18 -24l-7.5 -7.5 t-6.5 -3.5h-27q-3 0 -6.5 3t-7.5 8q-8 9 -18 24t-18.5 29.5t-14.5 25.5t-6 13q0 4 3 4h12q1 0 6.5 -5t12.5 -12.5t15 -16.5t15.5 -16.5t13 -12.5t7.5 -5q1 0 6.5 5t13 12.5t15.5 16.5t15 16.5t12.5 12.5t6.5 5h13q2 0 2 -4z" />
<glyph unicode="&#x693;" horiz-adv-x="237" d="M220 -198q0 -16 -5.5 -29.5t-15 -24t-22.5 -16.5t-29 -6q-22 0 -34 16t-12 51v4t1 5q-12 -6 -26 -9.5t-29 -3.5q-14 0 -31 2.5t-31.5 6.5t-24.5 8t-10 6q0 3 3 5t5 2l3 -1q3 0 7 -0.5l8 -1t8 -0.5q14 0 31.5 4t37 12.5t40 22t39.5 33.5q16 16 26.5 31.5t16.5 28.5t8.5 22 t2.5 12t-5.5 11.5t-12.5 18t-12.5 17.5t-5.5 10q0 1 3 8.5t7 16.5t8 17t5 11h3q10 -11 21.5 -21t27.5 -10h18q9 0 14.5 -2.5t8.5 -7t3.5 -9.5t0.5 -11t-0.5 -11.5t-3.5 -10t-8.5 -7t-14.5 -2.5h-18q-4 0 -7.5 0.5t-7.5 0.5q-2 -17 -5 -34t-8 -33.5t-12.5 -33.5t-18.5 -34h2 q10 0 19.5 -6t16.5 -16t11 -21t4 -21zM193 -212q0 6 -4.5 12.5t-11.5 12.5t-15 10t-16 4q-12 0 -19 -9.5t-7 -20.5q0 -12 12.5 -18.5t27.5 -6.5q4 0 10 1t11 3.5t8.5 5.5t3.5 6z" />
<glyph unicode="&#x694;" horiz-adv-x="237" d="M271 31q0 -6 -0.5 -11.5t-3.5 -10t-8.5 -7t-14.5 -2.5h-18q-4 0 -7.5 0.5t-7.5 0.5q-2 -21 -6 -41t-11 -40t-18 -40t-28 -40q-19 -22 -42.5 -36.5t-57.5 -14.5q-14 0 -31 2.5t-31.5 6.5t-24.5 8t-10 6q0 3 3 5t5 2l3 -1q3 0 7 -0.5l8 -1t8 -0.5q14 0 31.5 4t37 12.5 t40 22t39.5 33.5q16 16 26.5 31.5t16.5 28.5t8.5 22t2.5 12t-5.5 11.5t-12.5 18t-12.5 17.5t-5.5 10q0 1 3 8.5t7 16.5t8 17t5 11h3q10 -11 21.5 -21t27.5 -10h18q9 0 14.5 -2.5t8.5 -7t3.5 -9.5t0.5 -11zM209 -268q0 -2 -4.5 -9.5t-10 -16t-11.5 -15.5t-8 -7q-1 0 -8 4.5 t-15 10t-14.5 11t-6.5 7.5t5 9.5t10.5 16t11 15.5t6.5 7q2 0 9.5 -5t15 -10.5t14 -11t6.5 -6.5z" />
<glyph unicode="&#x695;" horiz-adv-x="237" d="M271 31q0 -6 -0.5 -11.5t-3.5 -10t-8.5 -7t-14.5 -2.5h-18q-4 0 -7.5 0.5t-7.5 0.5q-2 -21 -6 -41t-11 -40t-18 -40t-28 -40q-19 -22 -42.5 -36.5t-57.5 -14.5q-14 0 -31 2.5t-31.5 6.5t-24.5 8t-10 6q0 3 3 5t5 2l3 -1q3 0 7 -0.5l8 -1t8 -0.5q14 0 31.5 4t37 12.5 t40 22t39.5 33.5q16 16 26.5 31.5t16.5 28.5t8.5 22t2.5 12t-5.5 11.5t-12.5 18t-12.5 17.5t-5.5 10q0 1 3 8.5t7 16.5t8 17t5 11h3q10 -11 21.5 -21t27.5 -10h18q9 0 14.5 -2.5t8.5 -7t3.5 -9.5t0.5 -11zM255 -239q0 -2 -6 -13t-14.5 -25.5t-18.5 -29.5t-18 -24l-7.5 -7.5 t-6.5 -3.5h-27q-3 0 -6.5 3t-7.5 8q-8 9 -18 24t-18.5 29.5t-14.5 25.5t-6 13q0 4 3 4h12q1 0 6.5 -5t12.5 -12.5t15 -16.5t15.5 -16.5t13 -12.5t7.5 -5q1 0 6.5 5t13 12.5t15.5 16.5t15 16.5t12.5 12.5t6.5 5h13q2 0 2 -4z" />
<glyph unicode="&#x696;" horiz-adv-x="237" d="M271 31q0 -6 -0.5 -11.5t-3.5 -10t-8.5 -7t-14.5 -2.5h-18q-4 0 -7.5 0.5t-7.5 0.5q-2 -21 -6 -41t-11 -40t-18 -40t-28 -40q-19 -22 -42.5 -36.5t-57.5 -14.5q-14 0 -31 2.5t-31.5 6.5t-24.5 8t-10 6q0 3 3 5t5 2l3 -1q3 0 7 -0.5l8 -1t8 -0.5q14 0 31.5 4t37 12.5 t40 22t39.5 33.5q16 16 26.5 31.5t16.5 28.5t8.5 22t2.5 12t-5.5 11.5t-12.5 18t-12.5 17.5t-5.5 10q0 1 3 8.5t7 16.5t8 17t5 11h3q10 -11 21.5 -21t27.5 -10h18q9 0 14.5 -2.5t8.5 -7t3.5 -9.5t0.5 -11zM209 -268q0 -2 -4.5 -9.5t-10 -16t-11.5 -15.5t-8 -7q-1 0 -8 4.5 t-15 10t-14.5 11t-6.5 7.5t5 9.5t10.5 16t11 15.5t6.5 7q2 0 9.5 -5t15 -10.5t14 -11t6.5 -6.5zM111 7q0 -2 -4.5 -9.5t-10 -16t-11.5 -15.5t-8 -7q-1 0 -8 4.5t-15 10t-14.5 11t-6.5 7.5t5 9.5t10.5 16t11 15.5t6.5 7q2 0 9.5 -5t15 -10.5t14 -11t6.5 -6.5z" />
<glyph unicode="&#x697;" horiz-adv-x="237" d="M271 31q0 -6 -0.5 -11.5t-3.5 -10t-8.5 -7t-14.5 -2.5h-18q-4 0 -7.5 0.5t-7.5 0.5q-2 -21 -6 -41t-11 -40t-18 -40t-28 -40q-19 -22 -42.5 -36.5t-57.5 -14.5q-14 0 -31 2.5t-31.5 6.5t-24.5 8t-10 6q0 3 3 5t5 2l3 -1q3 0 7 -0.5l8 -1t8 -0.5q14 0 31.5 4t37 12.5 t40 22t39.5 33.5q16 16 26.5 31.5t16.5 28.5t8.5 22t2.5 12t-5.5 11.5t-12.5 18t-12.5 17.5t-5.5 10q0 1 3 8.5t7 16.5t8 17t5 11h3q10 -11 21.5 -21t27.5 -10h18q9 0 14.5 -2.5t8.5 -7t3.5 -9.5t0.5 -11zM247 199q0 -2 -4.5 -9.5t-10 -16t-10.5 -15.5t-7 -7q-1 0 -7.5 4.5 t-14.5 10.5q-9 6 -20 15q-2 2 -4 2q-1 0 -3 -2q-7 -11 -13 -19q-5 -7 -10 -13t-6 -6t-8.5 4.5t-15 10.5t-14 11.5t-6.5 6.5q0 2 4.5 9.5t10.5 16t11 15.5t6 7q2 0 8.5 -5t13.5 -10q8 -6 18 -15q3 -3 4 -3t4 4q7 10 14 19q5 7 10 13t6 6t8.5 -5t15 -11t14 -11.5t6.5 -6.5z " />
<glyph unicode="&#x698;" horiz-adv-x="237" arabic-form="final" d="M271 31q0 -6 -0.5 -11.5t-3.5 -10t-8.5 -7t-14.5 -2.5h-18q-4 0 -7.5 0.5t-7.5 0.5q-2 -21 -6 -41t-11 -40t-18 -40t-28 -40q-19 -22 -42.5 -36.5t-57.5 -14.5q-14 0 -31 2.5t-31.5 6.5t-24.5 8t-10 6q0 3 3 5t5 2l3 -1q3 0 7 -0.5l8 -1t8 -0.5q14 0 31.5 4t37 12.5 t40 22t39.5 33.5q16 16 26.5 31.5t16.5 28.5t8.5 22t2.5 12t-5.5 11.5t-12.5 18t-12.5 17.5t-5.5 10q0 1 3 8.5t7 16.5t8 17t5 11h3q10 -11 21.5 -21t27.5 -10h18q9 0 14.5 -2.5t8.5 -7t3.5 -9.5t0.5 -11zM197 285q0 -2 -4 -10t-9.5 -16.5t-11 -15.5t-7.5 -7q-1 0 -8 5 t-15 10.5t-14.5 11.5t-6.5 8t4.5 9.5t10.5 15.5t11 14.5t6 6.5q2 0 9.5 -4.5t15 -10.5t13.5 -11t6 -6zM247 200q0 -2 -4.5 -10t-9.5 -16.5t-10.5 -15.5t-7.5 -7q-1 0 -7.5 5t-13.5 11q-9 6 -20 15q-2 2 -4 2q-1 0 -3 -3q-8 -11 -14 -19q-5 -7 -9.5 -13t-6.5 -6q-1 0 -8 4.5 t-15 10.5t-14.5 11.5t-6.5 7.5q0 1 5 8.5t10.5 16t10.5 15.5t6 7q2 0 9 -5l14 -10q8 -6 17 -15q3 -2 5 -2q1 0 4 3q7 10 13 19q5 7 10 12.5t6 5.5t8.5 -4.5t15 -10.5t14 -11t6.5 -6z" />
<glyph unicode="&#x699;" horiz-adv-x="237" d="M271 31q0 -6 -0.5 -11.5t-3.5 -10t-8.5 -7t-14.5 -2.5h-18q-4 0 -7.5 0.5t-7.5 0.5q-2 -21 -6 -41t-11 -40t-18 -40t-28 -40q-19 -22 -42.5 -36.5t-57.5 -14.5q-14 0 -31 2.5t-31.5 6.5t-24.5 8t-10 6q0 3 3 5t5 2l3 -1q3 0 7 -0.5l8 -1t8 -0.5q14 0 31.5 4t37 12.5 t40 22t39.5 33.5q16 16 26.5 31.5t16.5 28.5t8.5 22t2.5 12t-5.5 11.5t-12.5 18t-12.5 17.5t-5.5 10q0 1 3 8.5t7 16.5t8 17t5 11h3q10 -11 21.5 -21t27.5 -10h18q9 0 14.5 -2.5t8.5 -7t3.5 -9.5t0.5 -11zM244 283q0 -2 -4.5 -9.5t-10 -16t-10.5 -15.5t-7 -7q-1 0 -7.5 4.5 t-14.5 10.5q-9 6 -20 15q-2 2 -4 2q-1 0 -3 -2q-8 -11 -14 -19q-5 -7 -10 -13t-6 -6t-8 4.5t-15 10.5t-14.5 11t-6.5 7t4.5 9.5t10.5 16t11.5 15.5t6.5 7q2 0 8.5 -5t13.5 -11q8 -6 18 -14q3 -3 4 -3t4 4q7 10 13 18q5 7 10 13t7 6q1 0 8 -4.5t15 -11t14.5 -11.5t6.5 -6z M251 199q0 -2 -4.5 -10t-10 -16.5t-11 -15.5t-6.5 -7t-8 5t-15 11q-9 6 -19 15q-2 2 -4 2q-1 0 -3 -2q-8 -11 -14 -19q-5 -7 -10 -13t-6 -6t-8.5 4.5t-15.5 10.5t-14 11t-6 7t4.5 9.5t10.5 16t11 15.5t6 7q2 0 8.5 -5t13.5 -11q8 -6 18 -14q3 -3 5 -3q1 0 4 4l14 18 q5 7 9.5 13t5.5 6q2 0 9 -4.5t15 -11t14.5 -11.5t6.5 -6z" />
<glyph unicode="&#x69a;" horiz-adv-x="448" d="M398 144q0 -15 -4 -33.5t-11.5 -35.5t-19.5 -28.5t-29 -11.5q-14 0 -24.5 4.5t-18.5 11.5t-14 13.5t-10 10.5q-7 -13 -16.5 -25.5t-21 -23.5t-25.5 -18t-29 -7q-23 0 -41.5 11.5t-31.5 38.5q-19 -28 -41.5 -39.5t-48.5 -11.5h-18q-9 0 -14.5 2.5t-8 7t-3.5 10t-1 11.5 t1 11t3.5 9.5t8 7t14.5 2.5h18q21 0 37 5t27 12t18.5 15.5t12.5 15.5t8.5 12t6.5 5t4 -4.5t2.5 -11.5t3.5 -15.5t8 -15.5t16 -11.5t26 -4.5q18 0 34.5 7t29 19t20.5 28.5t10 35.5q0 4 2.5 7t4.5 3q1 0 3 -3t3 -9q2 -16 10.5 -26t19.5 -15.5t21.5 -8t17.5 -2.5q1 0 3.5 1.5 t5.5 3t5 3.5t2 4q0 3 -3.5 7t-7.5 7.5t-7.5 6t-3.5 3.5t2.5 10.5t5.5 20t6.5 19t5.5 8.5q4 0 8.5 -5.5t8.5 -13.5t6.5 -16.5t2.5 -13.5zM283 282q0 -2 -4.5 -9.5t-10 -16t-11.5 -15.5t-8 -7q-1 0 -8 4.5t-15 10t-14.5 11t-6.5 7.5t5 9.5t10.5 16t11 15.5t6.5 7q2 0 9.5 -5 t15 -10.5t14 -11t6.5 -6.5zM285 -79q0 -2 -4.5 -9.5t-10 -16t-11.5 -15.5t-8 -7q-1 0 -8 4.5t-15 10t-14.5 11t-6.5 7.5t5 9.5t10.5 16t11 15.5t6.5 7q2 0 9.5 -5t15 -10.5t14 -11t6.5 -6.5z" />
<glyph unicode="&#x69a;" horiz-adv-x="497" d="M530 31q0 -6 -1 -11.5t-3.5 -10t-8 -7t-14.5 -2.5h-18q-26 0 -46 21.5t-34 55.5q-7 -14 -14 -25.5t-16 -20.5t-20 -14t-25 -5q-13 0 -22 3.5t-15.5 9.5t-10.5 13.5t-7 16.5q-19 -26 -41.5 -40t-58.5 -14q-23 0 -41.5 11.5t-31.5 38.5q-19 -28 -41.5 -39.5t-48.5 -11.5 h-18q-9 0 -14.5 2.5t-8 7t-3.5 10t-1 11.5t1 11t3.5 9.5t8 7t14.5 2.5h18q21 0 37 5t27 12t18.5 15.5t12.5 15.5t8.5 12t6.5 5t4 -4.5t2.5 -11.5t3.5 -15.5t8 -15.5t16 -11.5t26 -4.5q22 0 38.5 5.5t28.5 13.5t20.5 17.5t14 17.5t8.5 13.5t6 5.5q1 0 4 -3t3 -10t1.5 -14 t6 -13t12 -10t19.5 -4q18 0 29 9t17.5 19.5t10 19t6.5 8.5t4.5 -2.5t3.5 -8.5q2 -8 7.5 -19.5t14 -21.5t20.5 -17.5t28 -7.5h18q9 0 14.5 -2.5t8 -7t3.5 -9.5t1 -11zM288 235q0 -2 -4.5 -9.5t-10 -16t-11.5 -15.5t-8 -7q-1 0 -8 4.5t-15 10t-14.5 11t-6.5 7.5t5 9.5t10.5 16 t11 15.5t6.5 7q2 0 9.5 -5t15 -10.5t14 -11t6.5 -6.5zM288 -81q0 -2 -4.5 -9.5t-10 -16t-11.5 -15.5t-8 -7q-1 0 -8 4.5t-15 10t-14.5 11t-6.5 7.5t5 9.5t10.5 16t11 15.5t6.5 7q2 0 9.5 -5t15 -10.5t14 -11t6.5 -6.5z" />
<glyph unicode="&#x69a;" horiz-adv-x="687" d="M720 31q0 -6 -1 -11.5t-3.5 -10t-8 -7t-14.5 -2.5h-18q-25 0 -43.5 20t-35.5 58q-7 -14 -14 -25.5t-15.5 -20.5t-19.5 -14t-25 -5q-17 0 -26.5 5t-15.5 12t-9 14t-5 12q-9 -13 -17 -22t-17 -15t-21 -8.5t-30 -2.5q0 -14 -0.5 -24t-1.5 -19.5t-2.5 -19t-4.5 -22.5 q-10 -51 -35.5 -83t-58.5 -50t-70 -24t-71 -6q-29 0 -51.5 9.5t-38.5 26t-24.5 38.5t-8.5 46q0 23 8 47t17.5 43.5t18.5 31.5t12 12q2 0 4 -1.5t2 -3.5q0 -3 -5.5 -12t-11.5 -22.5t-11.5 -30.5t-5.5 -37q0 -24 12 -40.5t30 -26t38.5 -14t35.5 -4.5q21 0 43 2t42.5 6.5 t38 10.5t29.5 14q26 17 35 41t9 60q0 23 -4 39t-9 27t-9 17.5t-4 10.5q0 3 3.5 11t8 17.5t8.5 16.5t6 7q6 -8 10.5 -17.5t7.5 -20.5q22 0 38.5 5.5t28.5 13.5t20.5 17.5t14 17.5t8.5 13.5t6 5.5q2 0 4.5 -3t2.5 -10t1.5 -14t6 -13t12 -10t19.5 -4q18 0 29 9t17.5 19.5t10 19 t6.5 8.5t4.5 -2.5t3.5 -8.5q2 -7 7.5 -18t14 -22t20 -19t27.5 -8h18q9 0 14.5 -2.5t8 -7t3.5 -9.5t1 -11zM512 235q0 -2 -4.5 -9.5t-10 -16t-11.5 -15.5t-8 -7q-1 0 -8 4.5t-15 10t-14.5 11t-6.5 7.5t5 9.5t10.5 16t11 15.5t6.5 7q2 0 9.5 -5t15 -10.5t14 -11t6.5 -6.5z M545 -89q0 -2 -4.5 -9.5t-10 -16t-11.5 -15.5t-8 -7q-1 0 -8 4.5t-15 10t-14.5 11t-6.5 7.5t5 9.5t10.5 16t11 15.5t6.5 7q2 0 9.5 -5t15 -10.5t14 -11t6.5 -6.5z" />
<glyph unicode="&#x69b;" horiz-adv-x="448" d="M398 144q0 -15 -4 -33.5t-11.5 -35.5t-19.5 -28.5t-29 -11.5q-14 0 -24.5 4.5t-18.5 11.5t-14 13.5t-10 10.5q-7 -13 -16.5 -25.5t-21 -23.5t-25.5 -18t-29 -7q-23 0 -41.5 11.5t-31.5 38.5q-19 -28 -41.5 -39.5t-48.5 -11.5h-18q-9 0 -14.5 2.5t-8 7t-3.5 10t-1 11.5 t1 11t3.5 9.5t8 7t14.5 2.5h18q21 0 37 5t27 12t18.5 15.5t12.5 15.5t8.5 12t6.5 5t4 -4.5t2.5 -11.5t3.5 -15.5t8 -15.5t16 -11.5t26 -4.5q18 0 34.5 7t29 19t20.5 28.5t10 35.5q0 4 2.5 7t4.5 3q1 0 3 -3t3 -9q2 -16 10.5 -26t19.5 -15.5t21.5 -8t17.5 -2.5q1 0 3.5 1.5 t5.5 3t5 3.5t2 4q0 3 -3.5 7t-7.5 7.5t-7.5 6t-3.5 3.5t2.5 10.5t5.5 20t6.5 19t5.5 8.5q4 0 8.5 -5.5t8.5 -13.5t6.5 -16.5t2.5 -13.5zM324 -79q0 -2 -4.5 -9.5t-10 -16t-10.5 -15.5t-7 -7q-1 0 -7.5 4.5t-14.5 10.5q-9 6 -20 15q-2 2 -4 2q-1 0 -3 -3q-8 -11 -14 -19 q-5 -7 -10 -13t-6 -6t-8 4.5t-15 11t-14.5 11.5t-6.5 7q0 1 4.5 9t10.5 16t11 15t6 7q2 0 8.5 -4.5t14.5 -9.5l18 -15q3 -2 4 -3q1 0 4 4l14 18q5 7 9.5 13t6.5 6t9 -4.5t15 -10.5t14 -11.5t6 -6.5zM290 -176q0 -1 -4.5 -9t-10 -16t-11 -15t-7.5 -7q-1 0 -8 4.5t-15.5 10 t-14.5 11t-6 7.5t4.5 9.5t10.5 16t11.5 15.5t6.5 7q2 0 9 -5t15 -11t14 -11.5t6 -6.5z" />
<glyph unicode="&#x69b;" horiz-adv-x="497" d="M530 31q0 -6 -1 -11.5t-3.5 -10t-8 -7t-14.5 -2.5h-18q-26 0 -46 21.5t-34 55.5q-7 -14 -14 -25.5t-16 -20.5t-20 -14t-25 -5q-13 0 -22 3.5t-15.5 9.5t-10.5 13.5t-7 16.5q-19 -26 -41.5 -40t-58.5 -14q-23 0 -41.5 11.5t-31.5 38.5q-19 -28 -41.5 -39.5t-48.5 -11.5 h-18q-9 0 -14.5 2.5t-8 7t-3.5 10t-1 11.5t1 11t3.5 9.5t8 7t14.5 2.5h18q21 0 37 5t27 12t18.5 15.5t12.5 15.5t8.5 12t6.5 5t4 -4.5t2.5 -11.5t3.5 -15.5t8 -15.5t16 -11.5t26 -4.5q22 0 38.5 5.5t28.5 13.5t20.5 17.5t14 17.5t8.5 13.5t6 5.5q1 0 4 -3t3 -10t1.5 -14 t6 -13t12 -10t19.5 -4q18 0 29 9t17.5 19.5t10 19t6.5 8.5t4.5 -2.5t3.5 -8.5q2 -8 7.5 -19.5t14 -21.5t20.5 -17.5t28 -7.5h18q9 0 14.5 -2.5t8 -7t3.5 -9.5t1 -11zM326 -82q0 -2 -4.5 -9.5t-10 -16t-10.5 -15.5t-7 -7q-1 0 -7.5 4.5t-14.5 10.5q-9 6 -20 15q-2 2 -4 2 q-1 0 -3 -3q-8 -11 -14 -19q-5 -7 -10 -13t-6 -6t-8 4.5t-15 11t-14.5 11.5t-6.5 7q0 1 4.5 9t10.5 16t11 15t6 7q2 0 8.5 -4.5t14.5 -9.5l18 -15q3 -2 4 -3q1 0 4 4l14 18q5 7 9.5 13t6.5 6t9 -4.5t15 -10.5t14 -11.5t6 -6.5zM292 -179q0 -1 -4.5 -9t-10 -16t-11 -15 t-7.5 -7q-1 0 -8 4.5t-15.5 10t-14.5 11t-6 7.5t4.5 9.5t10.5 16t11.5 15.5t6.5 7q2 0 9 -5t15 -11t14 -11.5t6 -6.5z" />
<glyph unicode="&#x69b;" horiz-adv-x="687" d="M720 31q0 -6 -1 -11.5t-3.5 -10t-8 -7t-14.5 -2.5h-18q-25 0 -43.5 20t-35.5 58q-7 -14 -14 -25.5t-15.5 -20.5t-19.5 -14t-25 -5q-17 0 -26.5 5t-15.5 12t-9 14t-5 12q-9 -13 -17 -22t-17 -15t-21 -8.5t-30 -2.5q0 -14 -0.5 -24t-1.5 -19.5t-2.5 -19t-4.5 -22.5 q-10 -51 -35.5 -83t-58.5 -50t-70 -24t-71 -6q-29 0 -51.5 9.5t-38.5 26t-24.5 38.5t-8.5 46q0 23 8 47t17.5 43.5t18.5 31.5t12 12q2 0 4 -1.5t2 -3.5q0 -3 -5.5 -12t-11.5 -22.5t-11.5 -30.5t-5.5 -37q0 -24 12 -40.5t30 -26t38.5 -14t35.5 -4.5q21 0 43 2t42.5 6.5 t38 10.5t29.5 14q26 17 35 41t9 60q0 23 -4 39t-9 27t-9 17.5t-4 10.5q0 3 3.5 11t8 17.5t8.5 16.5t6 7q6 -8 10.5 -17.5t7.5 -20.5q22 0 38.5 5.5t28.5 13.5t20.5 17.5t14 17.5t8.5 13.5t6 5.5q2 0 4.5 -3t2.5 -10t1.5 -14t6 -13t12 -10t19.5 -4q18 0 29 9t17.5 19.5t10 19 t6.5 8.5t4.5 -2.5t3.5 -8.5q2 -7 7.5 -18t14 -22t20 -19t27.5 -8h18q9 0 14.5 -2.5t8 -7t3.5 -9.5t1 -11zM583 -89q0 -2 -4.5 -9.5t-10 -16t-10.5 -15.5t-7 -7q-1 0 -7.5 4.5t-14.5 10.5q-9 6 -20 15q-2 2 -4 2q-1 0 -3 -3q-8 -11 -14 -19q-5 -7 -10 -13t-6 -6t-8 4.5 t-15 11t-14.5 11.5t-6.5 7q0 1 4.5 9t10.5 16t11 15t6 7q2 0 8.5 -4.5t14.5 -9.5l18 -15q3 -2 4 -3q1 0 4 4l14 18q5 7 9.5 13t6.5 6t9 -4.5t15 -10.5t14 -11.5t6 -6.5zM549 -186q0 -1 -4.5 -9t-10 -16t-11 -15t-7.5 -7q-1 0 -8 4.5t-15.5 10t-14.5 11t-6 7.5t4.5 9.5 t10.5 16t11.5 15.5t6.5 7q2 0 9 -5t15 -11t14 -11.5t6 -6.5z" />
<glyph unicode="&#x69c;" horiz-adv-x="448" d="M398 144q0 -15 -4 -33.5t-11.5 -35.5t-19.5 -28.5t-29 -11.5q-14 0 -24.5 4.5t-18.5 11.5t-14 13.5t-10 10.5q-7 -13 -16.5 -25.5t-21 -23.5t-25.5 -18t-29 -7q-23 0 -41.5 11.5t-31.5 38.5q-19 -28 -41.5 -39.5t-48.5 -11.5h-18q-9 0 -14.5 2.5t-8 7t-3.5 10t-1 11.5 t1 11t3.5 9.5t8 7t14.5 2.5h18q21 0 37 5t27 12t18.5 15.5t12.5 15.5t8.5 12t6.5 5t4 -4.5t2.5 -11.5t3.5 -15.5t8 -15.5t16 -11.5t26 -4.5q18 0 34.5 7t29 19t20.5 28.5t10 35.5q0 4 2.5 7t4.5 3q1 0 3 -3t3 -9q2 -16 10.5 -26t19.5 -15.5t21.5 -8t17.5 -2.5q1 0 3.5 1.5 t5.5 3t5 3.5t2 4q0 3 -3.5 7t-7.5 7.5t-7.5 6t-3.5 3.5t2.5 10.5t5.5 20t6.5 19t5.5 8.5q4 0 8.5 -5.5t8.5 -13.5t6.5 -16.5t2.5 -13.5zM271 376q0 -2 -4 -10t-9.5 -16.5t-11 -15.5t-7.5 -7q-1 0 -8 5t-15 10.5t-14.5 11.5t-6.5 8t4.5 9.5t10.5 15.5t11 14.5t6 6.5 q2 0 9.5 -4.5t15 -10.5t13.5 -11t6 -6zM321 291q0 -2 -4.5 -10t-9.5 -16.5t-10.5 -15.5t-7.5 -7q-1 0 -7.5 5t-13.5 11q-9 6 -20 15q-2 2 -4 2q-1 0 -3 -3q-8 -11 -14 -19q-5 -7 -9.5 -13t-6.5 -6q-1 0 -8 4.5t-15 10.5t-14.5 11.5t-6.5 7.5q0 1 5 8.5t10.5 16t10.5 15.5 t6 7q2 0 9 -5l14 -10q8 -6 17 -15q3 -2 5 -2q1 0 4 3q7 10 13 19q5 7 10 12.5t6 5.5t8.5 -4.5t15 -10.5t14 -11t6.5 -6zM324 -79q0 -2 -4.5 -9.5t-10 -16t-10.5 -15.5t-7 -7q-1 0 -7.5 4.5t-14.5 10.5q-9 6 -20 15q-2 2 -4 2q-1 0 -3 -3q-8 -11 -14 -19q-5 -7 -10 -13t-6 -6 t-8 4.5t-15 11t-14.5 11.5t-6.5 7q0 1 4.5 9t10.5 16t11 15t6 7q2 0 8.5 -4.5t14.5 -9.5l18 -15q3 -2 4 -3q1 0 4 4l14 18q5 7 9.5 13t6.5 6t9 -4.5t15 -10.5t14 -11.5t6 -6.5zM290 -176q0 -1 -4.5 -9t-10 -16t-11 -15t-7.5 -7q-1 0 -8 4.5t-15.5 10t-14.5 11t-6 7.5 t4.5 9.5t10.5 16t11.5 15.5t6.5 7q2 0 9 -5t15 -11t14 -11.5t6 -6.5z" />
<glyph unicode="&#x69c;" horiz-adv-x="497" d="M530 31q0 -6 -1 -11.5t-3.5 -10t-8 -7t-14.5 -2.5h-18q-26 0 -46 21.5t-34 55.5q-7 -14 -14 -25.5t-16 -20.5t-20 -14t-25 -5q-13 0 -22 3.5t-15.5 9.5t-10.5 13.5t-7 16.5q-19 -26 -41.5 -40t-58.5 -14q-23 0 -41.5 11.5t-31.5 38.5q-19 -28 -41.5 -39.5t-48.5 -11.5 h-18q-9 0 -14.5 2.5t-8 7t-3.5 10t-1 11.5t1 11t3.5 9.5t8 7t14.5 2.5h18q21 0 37 5t27 12t18.5 15.5t12.5 15.5t8.5 12t6.5 5t4 -4.5t2.5 -11.5t3.5 -15.5t8 -15.5t16 -11.5t26 -4.5q22 0 38.5 5.5t28.5 13.5t20.5 17.5t14 17.5t8.5 13.5t6 5.5q1 0 4 -3t3 -10t1.5 -14 t6 -13t12 -10t19.5 -4q18 0 29 9t17.5 19.5t10 19t6.5 8.5t4.5 -2.5t3.5 -8.5q2 -8 7.5 -19.5t14 -21.5t20.5 -17.5t28 -7.5h18q9 0 14.5 -2.5t8 -7t3.5 -9.5t1 -11zM276 329q0 -2 -4 -10t-9.5 -16.5t-11 -15.5t-7.5 -7q-1 0 -8 5t-15 10.5t-14.5 11.5t-6.5 8t4.5 9.5 t10.5 15.5t11 14.5t6 6.5q2 0 9.5 -4.5t15 -10.5t13.5 -11t6 -6zM326 244q0 -2 -4.5 -10t-9.5 -16.5t-10.5 -15.5t-7.5 -7q-1 0 -7.5 5t-13.5 11q-9 6 -20 15q-2 2 -4 2q-1 0 -3 -3q-8 -11 -14 -19q-5 -7 -9.5 -13t-6.5 -6q-1 0 -8 4.5t-15 10.5t-14.5 11.5t-6.5 7.5 q0 1 5 8.5t10.5 16t10.5 15.5t6 7q2 0 9 -5l14 -10q8 -6 17 -15q3 -2 5 -2q1 0 4 3q7 10 13 19q5 7 10 12.5t6 5.5t8.5 -4.5t15 -10.5t14 -11t6.5 -6zM326 -82q0 -2 -4.5 -9.5t-10 -16t-10.5 -15.5t-7 -7q-1 0 -7.5 4.5t-14.5 10.5q-9 6 -20 15q-2 2 -4 2q-1 0 -3 -3 q-8 -11 -14 -19q-5 -7 -10 -13t-6 -6t-8 4.5t-15 11t-14.5 11.5t-6.5 7q0 1 4.5 9t10.5 16t11 15t6 7q2 0 8.5 -4.5t14.5 -9.5l18 -15q3 -2 4 -3q1 0 4 4l14 18q5 7 9.5 13t6.5 6t9 -4.5t15 -10.5t14 -11.5t6 -6.5zM292 -179q0 -1 -4.5 -9t-10 -16t-11 -15t-7.5 -7 q-1 0 -8 4.5t-15.5 10t-14.5 11t-6 7.5t4.5 9.5t10.5 16t11.5 15.5t6.5 7q2 0 9 -5t15 -11t14 -11.5t6 -6.5z" />
<glyph unicode="&#x69c;" horiz-adv-x="687" d="M720 31q0 -6 -1 -11.5t-3.5 -10t-8 -7t-14.5 -2.5h-18q-25 0 -43.5 20t-35.5 58q-7 -14 -14 -25.5t-15.5 -20.5t-19.5 -14t-25 -5q-17 0 -26.5 5t-15.5 12t-9 14t-5 12q-9 -13 -17 -22t-17 -15t-21 -8.5t-30 -2.5q0 -14 -0.5 -24t-1.5 -19.5t-2.5 -19t-4.5 -22.5 q-10 -51 -35.5 -83t-58.5 -50t-70 -24t-71 -6q-29 0 -51.5 9.5t-38.5 26t-24.5 38.5t-8.5 46q0 23 8 47t17.5 43.5t18.5 31.5t12 12q2 0 4 -1.5t2 -3.5q0 -3 -5.5 -12t-11.5 -22.5t-11.5 -30.5t-5.5 -37q0 -24 12 -40.5t30 -26t38.5 -14t35.5 -4.5q21 0 43 2t42.5 6.5 t38 10.5t29.5 14q26 17 35 41t9 60q0 23 -4 39t-9 27t-9 17.5t-4 10.5q0 3 3.5 11t8 17.5t8.5 16.5t6 7q6 -8 10.5 -17.5t7.5 -20.5q22 0 38.5 5.5t28.5 13.5t20.5 17.5t14 17.5t8.5 13.5t6 5.5q2 0 4.5 -3t2.5 -10t1.5 -14t6 -13t12 -10t19.5 -4q18 0 29 9t17.5 19.5t10 19 t6.5 8.5t4.5 -2.5t3.5 -8.5q2 -7 7.5 -18t14 -22t20 -19t27.5 -8h18q9 0 14.5 -2.5t8 -7t3.5 -9.5t1 -11zM500 329q0 -2 -4 -10t-9.5 -16.5t-11 -15.5t-7.5 -7q-1 0 -8 5t-15 10.5t-14.5 11.5t-6.5 8t4.5 9.5t10.5 15.5t11 14.5t6 6.5q2 0 9.5 -4.5t15 -10.5t13.5 -11t6 -6z M550 244q0 -2 -4.5 -10t-9.5 -16.5t-10.5 -15.5t-7.5 -7q-1 0 -7.5 5t-13.5 11q-9 6 -20 15q-2 2 -4 2q-1 0 -3 -3q-8 -11 -14 -19q-5 -7 -9.5 -13t-6.5 -6q-1 0 -8 4.5t-15 10.5t-14.5 11.5t-6.5 7.5q0 1 5 8.5t10.5 16t10.5 15.5t6 7q2 0 9 -5l14 -10q8 -6 17 -15 q3 -2 5 -2q1 0 4 3q7 10 13 19q5 7 10 12.5t6 5.5t8.5 -4.5t15 -10.5t14 -11t6.5 -6zM583 -89q0 -2 -4.5 -9.5t-10 -16t-10.5 -15.5t-7 -7q-1 0 -7.5 4.5t-14.5 10.5q-9 6 -20 15q-2 2 -4 2q-1 0 -3 -3q-8 -11 -14 -19q-5 -7 -10 -13t-6 -6t-8 4.5t-15 11t-14.5 11.5t-6.5 7 q0 1 4.5 9t10.5 16t11 15t6 7q2 0 8.5 -4.5t14.5 -9.5l18 -15q3 -2 4 -3q1 0 4 4l14 18q5 7 9.5 13t6.5 6t9 -4.5t15 -10.5t14 -11.5t6 -6.5zM549 -186q0 -1 -4.5 -9t-10 -16t-11 -15t-7.5 -7q-1 0 -8 4.5t-15.5 10t-14.5 11t-6 7.5t4.5 9.5t10.5 16t11.5 15.5t6.5 7 q2 0 9 -5t15 -11t14 -11.5t6 -6.5z" />
<glyph unicode="&#x69d;" horiz-adv-x="590" d="M541 164q0 -30 -17 -54t-44 -41.5t-61 -30t-68.5 -20t-66.5 -11.5t-54 -4q-2 -4 -5.5 -13t-6.5 -19l-6 -20t-3 -16q-1 0 -3.5 2t-4.5 5.5t-3.5 7.5t-1.5 6t1.5 7.5t3.5 12.5t4.5 14t4.5 13q-19 0 -35 1t-30 6t-24.5 15.5t-18.5 29.5q-7 -11 -15.5 -21t-19.5 -17.5 t-24.5 -12t-30.5 -4.5h-18q-9 0 -14.5 2.5t-8 7t-3.5 10t-1 11.5t1 11t3.5 9.5t8 7t14.5 2.5h18q31 0 51 10.5t32.5 22.5t18.5 22.5t8 10.5q1 0 2.5 -3.5t3 -8t2.5 -10t2 -10.5q2 -12 11 -19t21 -10.5t26 -4.5t26 -1h20q18 26 45 57.5t59 59t66 46t68 18.5q18 0 31 -7.5 t21 -19t11.5 -25t3.5 -25.5zM505 135q0 6 -5 12t-14 12t-20.5 9.5t-25.5 3.5q-23 0 -48.5 -8.5t-49.5 -23t-45 -35t-35 -44.5q27 0 55.5 4t55.5 11t51 15t42 16t28.5 15.5t10.5 12.5zM413 -96q0 -2 -4.5 -9.5t-10 -16t-10.5 -15.5t-7 -7q-1 0 -7.5 4.5t-14.5 10.5 q-9 6 -20 15q-2 2 -4 2q-1 0 -3 -2q-7 -11 -13 -19q-5 -7 -10 -13t-6 -6t-8.5 4.5t-15 10.5t-14 11.5t-6.5 6.5q0 2 4.5 9.5t10.5 16t11 15.5t6 7q2 0 8.5 -5t13.5 -10q8 -6 18 -15q3 -3 4 -3t4 4q7 10 14 19q5 7 10 13t6 6t8.5 -5t15 -11t14 -11.5t6.5 -6.5z" />
<glyph unicode="&#x69d;" horiz-adv-x="590" d="M624 31q0 -6 -0.5 -11.5t-3.5 -10t-8.5 -7t-14.5 -2.5h-18h-115h-116h-58h-57q-5 -10 -9 -22t-7 -22.5l-5 -17.5l-3 -7q-2 0 -4 2.5t-4 6t-3 7.5t-1 6q0 1 1 6.5t3 12.5t4 14.5t4 13.5q-19 0 -35 1t-29.5 6.5t-24.5 16.5t-18 31q-7 -11 -15.5 -21t-19.5 -17.5t-24.5 -12 t-30.5 -4.5h-18q-9 0 -14.5 2.5t-8 7t-3.5 10t-1 11.5t1 11t3.5 9.5t8 7t14.5 2.5h18q31 0 51 10.5t32.5 22.5t18.5 22.5t8 10.5q1 0 2.5 -3.5t3 -8t2.5 -10t2 -10.5q2 -12 11 -19t21.5 -10.5t26 -4.5t25.5 -1h20q11 17 27 36.5t35.5 39.5t42 38.5t46 33t47.5 23t47 8.5 q15 0 26.5 -7.5t19.5 -18.5t12 -24t4 -24q0 -36 -24 -61.5t-67 -48.5q41 4 72.5 5t54.5 1h18q9 0 14.5 -2.5t8.5 -7t3.5 -9.5t0.5 -11zM505 133q0 7 -9 13t-20.5 10.5t-22.5 7t-14 2.5q-21 0 -44 -6t-46 -19t-44.5 -33t-39.5 -47q26 0 54 4t54.5 10t50.5 14t42 15.5 t28.5 15.5t10.5 13zM410 -101q0 -2 -4.5 -9.5t-10 -16t-10.5 -15.5t-7 -7q-1 0 -7.5 4.5t-14.5 10.5q-9 6 -20 15q-2 2 -4 2q-1 0 -3 -2q-7 -11 -13 -19q-5 -7 -10 -13t-6 -6t-8.5 4.5t-15 10.5t-14 11.5t-6.5 6.5q0 2 4.5 9.5t10.5 16t11 15.5t6 7q2 0 8.5 -5t13.5 -10 q8 -6 18 -15q3 -3 4 -3t4 4q7 10 14 19q5 7 10 13t6 6t8.5 -5t15 -11t14 -11.5t6.5 -6.5z" />
<glyph unicode="&#x69d;" horiz-adv-x="796" d="M830 31q0 -6 -0.5 -11.5t-3.5 -10t-8.5 -7t-14.5 -2.5h-18q-57 0 -114.5 0.5t-115.5 0.5q-29 0 -58 -0.5t-57 -0.5q-5 -10 -9 -22t-7 -22.5l-5 -17.5t-3 -7q-2 0 -4 2.5t-4 6t-3.5 7.5t-1.5 6q0 1 1.5 6.5t4 12.5t5.5 15t5 14q-3 0 -8.5 0.5t-11.5 1.5t-11 2.5t-7 2.5 q0 -15 -0.5 -25t-1.5 -19t-2.5 -18.5t-4.5 -22.5q-10 -51 -35.5 -83t-58.5 -50t-70 -24t-71 -6q-29 0 -51.5 9.5t-38.5 26t-24.5 38.5t-8.5 46q0 23 8 47t17.5 43.5t18.5 31.5t12 12q2 0 4 -1.5t2 -3.5q0 -3 -5.5 -12t-11.5 -22.5t-11.5 -30.5t-5.5 -37q0 -24 12 -40.5 t30 -26t38.5 -14t35.5 -4.5q21 0 43 2t42.5 6.5t38 10.5t29.5 14q26 17 35 41t9 60q0 23 -4 39t-9 27t-9 17.5t-4 10.5q0 3 3.5 11t8 17.5t8.5 16.5t6 7q6 -8 10.5 -17.5t7.5 -20.5q9 -1 27 -2.5t43 -1.5q11 17 27 36.5t35.5 39.5t42 38.5t46 33t47.5 23t47 8.5 q15 0 26.5 -7.5t19.5 -18.5t12 -24t4 -24q0 -36 -24 -61.5t-68 -48.5q41 4 72.5 5t54.5 1h18q9 0 14.5 -2.5t8.5 -7t3.5 -9.5t0.5 -11zM712 133q0 7 -9 13t-20.5 10.5t-22.5 7t-14 2.5q-21 0 -44 -6t-46 -19t-44.5 -33t-39.5 -47q26 0 54 4t54.5 10t50.5 14t42 15.5 t28.5 15.5t10.5 13zM630 -102q0 -2 -4.5 -9.5t-10 -16t-10.5 -15.5t-7 -7q-1 0 -7.5 4.5t-14.5 10.5q-9 6 -20 15q-2 2 -4 2q-1 0 -3 -2q-7 -11 -13 -19q-5 -7 -10 -13t-6 -6t-8.5 4.5t-15 10.5t-14 11.5t-6.5 6.5q0 2 4.5 9.5t10.5 16t11 15.5t6 7q2 0 8.5 -5t13.5 -10 q8 -6 18 -15q3 -3 4 -3t4 4q7 10 14 19q5 7 10 13t6 6t8.5 -5t15 -11t14 -11.5t6.5 -6.5z" />
<glyph unicode="&#x69e;" horiz-adv-x="590" d="M541 164q0 -30 -17 -54t-44 -41.5t-61 -30t-68.5 -20t-66.5 -11.5t-54 -4q-2 -4 -5.5 -13t-6.5 -19l-6 -20t-3 -16q-1 0 -3.5 2t-4.5 5.5t-3.5 7.5t-1.5 6t1.5 7.5t3.5 12.5t4.5 14t4.5 13q-19 0 -35 1t-30 6t-24.5 15.5t-18.5 29.5q-7 -11 -15.5 -21t-19.5 -17.5 t-24.5 -12t-30.5 -4.5h-18q-9 0 -14.5 2.5t-8 7t-3.5 10t-1 11.5t1 11t3.5 9.5t8 7t14.5 2.5h18q31 0 51 10.5t32.5 22.5t18.5 22.5t8 10.5q1 0 2.5 -3.5t3 -8t2.5 -10t2 -10.5q2 -12 11 -19t21 -10.5t26 -4.5t26 -1h20q18 26 45 57.5t59 59t66 46t68 18.5q18 0 31 -7.5 t21 -19t11.5 -25t3.5 -25.5zM505 135q0 6 -5 12t-14 12t-20.5 9.5t-25.5 3.5q-23 0 -48.5 -8.5t-49.5 -23t-45 -35t-35 -44.5q27 0 55.5 4t55.5 11t51 15t42 16t28.5 15.5t10.5 12.5zM319 394q0 -2 -4 -10t-9.5 -16.5t-11 -15.5t-7.5 -7q-1 0 -8 5t-15 10.5t-14.5 11.5 t-6.5 8t4.5 9.5t10.5 15.5t11 14.5t6 6.5q2 0 9.5 -4.5t15 -10.5t13.5 -11t6 -6zM369 309q0 -2 -4.5 -10t-9.5 -16.5t-10.5 -15.5t-7.5 -7q-1 0 -7.5 5t-13.5 11q-9 6 -20 15q-2 2 -4 2q-1 0 -3 -3q-8 -11 -14 -19q-5 -7 -9.5 -13t-6.5 -6q-1 0 -8 4.5t-15 10.5t-14.5 11.5 t-6.5 7.5q0 1 5 8.5t10.5 16t10.5 15.5t6 7q2 0 9 -5l14 -10q8 -6 17 -15q3 -2 5 -2q1 0 4 3q7 10 13 19q5 7 10 12.5t6 5.5t8.5 -4.5t15 -10.5t14 -11t6.5 -6z" />
<glyph unicode="&#x69e;" horiz-adv-x="590" d="M624 31q0 -6 -0.5 -11.5t-3.5 -10t-8.5 -7t-14.5 -2.5h-18h-115h-116h-58h-57q-5 -10 -9 -22t-7 -22.5l-5 -17.5l-3 -7q-2 0 -4 2.5t-4 6t-3 7.5t-1 6q0 1 1 6.5t3 12.5t4 14.5t4 13.5q-19 0 -35 1t-29.5 6.5t-24.5 16.5t-18 31q-7 -11 -15.5 -21t-19.5 -17.5t-24.5 -12 t-30.5 -4.5h-18q-9 0 -14.5 2.5t-8 7t-3.5 10t-1 11.5t1 11t3.5 9.5t8 7t14.5 2.5h18q31 0 51 10.5t32.5 22.5t18.5 22.5t8 10.5q1 0 2.5 -3.5t3 -8t2.5 -10t2 -10.5q2 -12 11 -19t21.5 -10.5t26 -4.5t25.5 -1h20q11 17 27 36.5t35.5 39.5t42 38.5t46 33t47.5 23t47 8.5 q15 0 26.5 -7.5t19.5 -18.5t12 -24t4 -24q0 -36 -24 -61.5t-67 -48.5q41 4 72.5 5t54.5 1h18q9 0 14.5 -2.5t8.5 -7t3.5 -9.5t0.5 -11zM505 133q0 7 -9 13t-20.5 10.5t-22.5 7t-14 2.5q-21 0 -44 -6t-46 -19t-44.5 -33t-39.5 -47q26 0 54 4t54.5 10t50.5 14t42 15.5 t28.5 15.5t10.5 13zM339 406q0 -2 -4 -10t-9.5 -16.5t-11 -15.5t-7.5 -7q-1 0 -8 5t-15 10.5t-14.5 11.5t-6.5 8t4.5 9.5t10.5 15.5t11 14.5t6 6.5q2 0 9.5 -4.5t15 -10.5t13.5 -11t6 -6zM389 321q0 -2 -4.5 -10t-9.5 -16.5t-10.5 -15.5t-7.5 -7q-1 0 -7.5 5t-13.5 11 q-9 6 -20 15q-2 2 -4 2q-1 0 -3 -3q-8 -11 -14 -19q-5 -7 -9.5 -13t-6.5 -6q-1 0 -8 4.5t-15 10.5t-14.5 11.5t-6.5 7.5q0 1 5 8.5t10.5 16t10.5 15.5t6 7q2 0 9 -5l14 -10q8 -6 17 -15q3 -2 5 -2q1 0 4 3q7 10 13 19q5 7 10 12.5t6 5.5t8.5 -4.5t15 -10.5t14 -11t6.5 -6z " />
<glyph unicode="&#x69e;" horiz-adv-x="796" d="M830 31q0 -6 -0.5 -11.5t-3.5 -10t-8.5 -7t-14.5 -2.5h-18q-57 0 -114.5 0.5t-115.5 0.5q-29 0 -58 -0.5t-57 -0.5q-5 -10 -9 -22t-7 -22.5l-5 -17.5t-3 -7q-2 0 -4 2.5t-4 6t-3.5 7.5t-1.5 6q0 1 1.5 6.5t4 12.5t5.5 15t5 14q-3 0 -8.5 0.5t-11.5 1.5t-11 2.5t-7 2.5 q0 -15 -0.5 -25t-1.5 -19t-2.5 -18.5t-4.5 -22.5q-10 -51 -35.5 -83t-58.5 -50t-70 -24t-71 -6q-29 0 -51.5 9.5t-38.5 26t-24.5 38.5t-8.5 46q0 23 8 47t17.5 43.5t18.5 31.5t12 12q2 0 4 -1.5t2 -3.5q0 -3 -5.5 -12t-11.5 -22.5t-11.5 -30.5t-5.5 -37q0 -24 12 -40.5 t30 -26t38.5 -14t35.5 -4.5q21 0 43 2t42.5 6.5t38 10.5t29.5 14q26 17 35 41t9 60q0 23 -4 39t-9 27t-9 17.5t-4 10.5q0 3 3.5 11t8 17.5t8.5 16.5t6 7q6 -8 10.5 -17.5t7.5 -20.5q9 -1 27 -2.5t43 -1.5q11 17 27 36.5t35.5 39.5t42 38.5t46 33t47.5 23t47 8.5 q15 0 26.5 -7.5t19.5 -18.5t12 -24t4 -24q0 -36 -24 -61.5t-68 -48.5q41 4 72.5 5t54.5 1h18q9 0 14.5 -2.5t8.5 -7t3.5 -9.5t0.5 -11zM712 133q0 7 -9 13t-20.5 10.5t-22.5 7t-14 2.5q-21 0 -44 -6t-46 -19t-44.5 -33t-39.5 -47q26 0 54 4t54.5 10t50.5 14t42 15.5 t28.5 15.5t10.5 13zM516 376q0 -2 -4 -10t-9.5 -16.5t-11 -15.5t-7.5 -7q-1 0 -8 5t-15 10.5t-14.5 11.5t-6.5 8t4.5 9.5t10.5 15.5t11 14.5t6 6.5q2 0 9.5 -4.5t15 -10.5t13.5 -11t6 -6zM566 291q0 -2 -4.5 -10t-9.5 -16.5t-10.5 -15.5t-7.5 -7q-1 0 -7.5 5t-13.5 11 q-9 6 -20 15q-2 2 -4 2q-1 0 -3 -3q-8 -11 -14 -19q-5 -7 -9.5 -13t-6.5 -6q-1 0 -8 4.5t-15 10.5t-14.5 11.5t-6.5 7.5q0 1 5 8.5t10.5 16t10.5 15.5t6 7q2 0 9 -5l14 -10q8 -6 17 -15q3 -2 5 -2q1 0 4 3q7 10 13 19q5 7 10 12.5t6 5.5t8.5 -4.5t15 -10.5t14 -11t6.5 -6z " />
<glyph unicode="&#x69f;" horiz-adv-x="410" d="M377 168q0 -14 -3.5 -28.5t-11.5 -28.5t-21 -27t-32 -23q-35 -19 -71 -30.5t-73.5 -18.5t-75.5 -9.5t-77 -2.5h-18q-9 0 -14.5 2.5t-8 7t-3.5 10t-1 11.5t1 11t3.5 9.5t8 7t14.5 2.5h18q13 0 21.5 0.5t15.5 1.5q11 6 20.5 13t13.5 14q7 22 9 47t2 48q0 28 -3 58t-7 59 t-9.5 55t-10 46.5t-7.5 35t-3 18.5q0 7 3 17t6.5 19.5t8 16.5t7.5 7q2 0 8.5 -8.5t14 -18.5t13 -19t5.5 -10q0 -2 -3.5 -6.5t-7.5 -10.5t-7.5 -14t-3.5 -17q0 -21 3 -39.5t7.5 -42t7.5 -55.5t3 -80q0 -7 -0.5 -18t-1.5 -22.5t-2.5 -22.5t-2.5 -18q18 18 41 40.5t49.5 42 t55 32.5t56.5 13q15 0 27 -6t20 -16.5t12 -24t4 -28.5zM339 135q0 14 -18 24.5t-48 10.5q-20 0 -40 -4.5t-41 -16.5t-44 -33t-48 -53q54 2 98 11.5t75.5 21.5t48.5 23t17 16zM267 448q0 -2 -4 -10t-9.5 -16.5t-11 -15.5t-7.5 -7q-1 0 -8 5t-15 10.5t-14.5 11.5t-6.5 8 t4.5 9.5t10.5 15.5t11 14.5t6 6.5q2 0 9.5 -4.5t15 -10.5t13.5 -11t6 -6zM317 363q0 -2 -4.5 -10t-9.5 -16.5t-10.5 -15.5t-7.5 -7q-1 0 -7.5 5t-13.5 11q-9 6 -20 15q-2 2 -4 2q-1 0 -3 -3q-8 -11 -14 -19q-5 -7 -9.5 -13t-6.5 -6q-1 0 -8 4.5t-15 10.5t-14.5 11.5 t-6.5 7.5q0 1 5 8.5t10.5 16t10.5 15.5t6 7q2 0 9 -5l14 -10q8 -6 17 -15q3 -2 5 -2q1 0 4 3q7 10 13 19q5 7 10 12.5t6 5.5t8.5 -4.5t15 -10.5t14 -11t6.5 -6z" />
<glyph unicode="&#x69f;" horiz-adv-x="430" d="M463 31q0 -6 -1 -11.5t-3.5 -10t-8 -7t-14.5 -2.5h-364q-3 -6 -7 -14.5t-7.5 -18.5t-6 -20t-3.5 -18q-4 3 -7 7q-2 3 -4.5 6t-2.5 7t5 19t11 32h-56q-9 0 -14.5 2.5t-8 7t-3.5 10t-1 11.5t1 11t3.5 9.5t8 7t14.5 2.5h18q19 0 33 0.5t23 3.5q10 3 16 12t9 30t4.5 41.5 t1.5 41.5q0 40 -6.5 80.5t-10.5 79.5q-1 13 -5 28.5t-7.5 30t-6 27.5t-2.5 22t2.5 19t6.5 19t8.5 14.5t8.5 5.5l38 -54q-4 -3 -8 -9t-7 -12.5t-5 -14.5t-2 -15q0 -17 3 -35t6.5 -42.5t6.5 -58t3 -80.5q0 -7 -0.5 -18t-2 -23t-3.5 -23.5t-4 -21.5q21 21 45.5 43.5t50.5 42 t53 32t51 12.5q16 0 29 -6.5t22 -17t14 -24t5 -28.5q0 -22 -8 -39t-21 -29.5t-28.5 -22t-30.5 -17.5q5 0 14.5 1t22 2t26 2t25.5 1h54q9 0 14.5 -2.5t8 -7t3.5 -9.5t1 -11zM344 133q0 4 -5 10t-14 11.5t-21.5 9t-28.5 3.5q-24 0 -47.5 -8t-45 -22t-41 -33.5t-36.5 -42.5 q46 0 89 8.5t76.5 20t53.5 23.5t20 20zM270 440q0 -2 -4 -10t-9.5 -16.5t-11 -15.5t-7.5 -7q-1 0 -8 5t-15 10.5t-14.5 11.5t-6.5 8t4.5 9.5t10.5 15.5t11 14.5t6 6.5q2 0 9.5 -4.5t15 -10.5t13.5 -11t6 -6zM320 355q0 -2 -4.5 -10t-9.5 -16.5t-10.5 -15.5t-7.5 -7 q-1 0 -7.5 5t-13.5 11q-9 6 -20 15q-2 2 -4 2q-1 0 -3 -3q-8 -11 -14 -19q-5 -7 -9.5 -13t-6.5 -6q-1 0 -8 4.5t-15 10.5t-14.5 11.5t-6.5 7.5q0 1 5 8.5t10.5 16t10.5 15.5t6 7q2 0 9 -5l14 -10q8 -6 17 -15q3 -2 5 -2q1 0 4 3q7 10 13 19q5 7 10 12.5t6 5.5t8.5 -4.5 t15 -10.5t14 -11t6.5 -6z" />
</font>
</defs>
</svg>
