<?xml version="1.0" standalone="no"?>
<!DOCTYPE svg PUBLIC "-//W3C//DTD SVG 1.1//EN" "http://www.w3.org/Graphics/SVG/1.1/DTD/svg11.dtd" >
<svg xmlns="http://www.w3.org/2000/svg" xmlns:xlink="http://www.w3.org/1999/xlink" version="1.1">
<metadata></metadata>
<defs>
<font id="scheherazadebold" horiz-adv-x="0" >
<font-face units-per-em="2048" ascent="1638" descent="-410" />
<missing-glyph horiz-adv-x="512" />
<glyph unicode="&#x648;&#x654;" horiz-adv-x="653" d="M602 175q0 -69 -14 -143t-39.5 -145.5t-61.5 -135.5t-79.5 -112t-94 -76.5t-104.5 -28.5q-31 0 -64 12t-65 30.5t-60 39.5t-49.5 40t-34 32.5t-12.5 15.5t3 7t7 10.5t8 9.5t6 4q3 0 15.5 -7t32.5 -15.5t45.5 -15.5t53.5 -7q76 0 150 33t132.5 85t94.5 116.5t36 126.5 q0 25 -0.5 47.5t-3.5 44.5q-12 -21 -28 -37t-33.5 -26.5t-33.5 -16t-28 -5.5q-20 0 -43.5 10.5t-43.5 30t-34 47.5t-14 62q0 26 7.5 61t20.5 72t30 73.5t36.5 65.5t40 46.5t39.5 17.5q30 0 62 -24.5t58.5 -71.5t44 -115.5t17.5 -157.5zM430 299q-9 14 -23.5 29.5t-32.5 15.5 q-12 0 -20 -11.5t-8 -31.5q0 -13 9 -22.5t23 -9.5q20 0 33.5 9.5t18.5 20.5zM597 807q0 -6 -4.5 -18.5t-11.5 -24.5t-14.5 -22t-13.5 -12t-25 -9t-43.5 -16.5t-50.5 -20t-46 -17.5q-49 -19 -84 -36t-43 -17q-5 0 -9 2.5t-4 10.5q0 5 3.5 15.5t8.5 21t10 19.5t7 12q3 3 10 8 t15 9.5t15.5 8t11.5 5.5q-8 2 -17.5 7.5t-17.5 14t-14 19.5t-6 25q0 17 9 38.5t22.5 42.5t28 39t26.5 30q19 19 37 30t33 16.5t28 7t23 1.5q11 0 23 -4.5t22 -13t16.5 -20t6.5 -25.5q0 -13 -4 -28.5t-10 -29t-12.5 -22.5t-10.5 -9t-14.5 6.5t-23.5 14.5t-27 14.5t-26 6.5 q-20 0 -34 -12t-14 -23q0 -3 11.5 -12.5t28.5 -19.5t36 -18t34 -9q12 3 28.5 8t32 9.5t27.5 8t15 3.5q11 0 11 -15z" />
<glyph unicode="&#x64a;&#x654;" horiz-adv-x="1220" d="M1082 477q-17 16 -33.5 25.5t-50.5 9.5q-24 0 -53.5 -8.5t-59.5 -22.5t-59 -32t-51 -38t-35.5 -39.5t-13.5 -36.5t16 -32t43 -27t62 -21t72 -15q61 -9 99.5 -22t58.5 -36q11 -13 14 -33.5t3 -49.5q0 -17 -8 -38t-21.5 -42t-31 -40t-35.5 -34q-47 -37 -113 -73.5t-144 -65 t-165 -46.5t-177 -18q-98 0 -164 24t-106.5 66t-58 98t-17.5 121q0 44 11 89.5t27.5 88t36 80t36.5 65t28.5 43.5t13.5 16t8.5 -4t13 -8.5t11 -9t4.5 -5.5q-1 -4 -15 -27t-30 -59t-29 -83t-13 -98q0 -65 25.5 -103.5t69.5 -58.5t103.5 -25.5t127.5 -5.5q45 0 99 5.5 t108.5 15t105.5 21t90.5 23.5t63 23t23.5 19q0 17 -53 28.5t-146 28.5q-26 5 -54 14t-51 26.5t-38.5 45.5t-15.5 70q0 27 12.5 61.5t33 72t47.5 74t57 66.5q31 31 69.5 62.5t79 56.5t80 40.5t74.5 15.5q13 0 26 -3.5t23.5 -8.5t17 -11.5t6.5 -13.5zM658 850q0 -6 -4.5 -18.5 t-11.5 -24.5t-14.5 -22t-13.5 -12t-25 -9t-43.5 -16.5t-50.5 -20t-46 -17.5q-49 -19 -84 -36t-43 -17q-5 0 -9 2.5t-4 10.5q0 5 3.5 15.5t8.5 21t10 19.5t7 12q3 3 10 8t15 9.5t15.5 8t11.5 5.5q-8 2 -17.5 7.5t-17.5 14t-14 19.5t-6 25q0 17 9 38.5t22.5 42.5t28 39 t26.5 30q19 19 37 30t33 16.5t28 7t23 1.5q11 0 23 -4.5t22 -13t16.5 -20t6.5 -25.5q0 -13 -4 -28.5t-10 -29t-12.5 -22.5t-10.5 -9t-14.5 6.5t-23.5 14.5t-27 14.5t-26 6.5q-20 0 -34 -12t-14 -23q0 -3 11.5 -12.5t28.5 -19.5t36 -18t34 -9q12 3 28.5 8t32 9.5t27.5 8 t15 3.5q11 0 11 -15z" />
<glyph unicode="&#x6d5;&#x654;" horiz-adv-x="577" d="M511 294q0 -64 -17 -119.5t-48.5 -96.5t-77.5 -64.5t-104 -23.5q-36 0 -70 17t-60.5 47.5t-42 71.5t-15.5 89q0 24 4.5 46t13.5 45.5t22 50t29 58.5q11 21 27.5 51.5t34.5 58t36 47t32 19.5q36 0 77.5 -26.5t76.5 -69.5t58.5 -96t23.5 -105zM432 268q0 9 -22 24.5 t-52.5 31.5t-63.5 27.5t-54 11.5q-14 0 -27 -12.5t-23 -29.5t-16 -34.5t-6 -28.5q0 -13 11.5 -24t28.5 -18.5t35.5 -11.5t33.5 -4q19 0 45.5 4.5t51 13.5t41.5 21.5t17 28.5zM455 879q0 -6 -4.5 -18.5t-11.5 -24.5t-14.5 -22t-13.5 -12t-25 -9t-43.5 -16.5t-50.5 -20 t-46 -17.5q-49 -19 -84 -36t-43 -17q-5 0 -9 2.5t-4 10.5q0 5 3.5 15.5t8.5 21t10 19.5t7 12q3 3 10 8t15 9.5t15.5 8t11.5 5.5q-8 2 -17.5 7.5t-17.5 14t-14 19.5t-6 25q0 17 9 38.5t22.5 42.5t28 39t26.5 30q19 19 37 30t33 16.5t28 7t23 1.5q11 0 23 -4.5t22 -13 t16.5 -20t6.5 -25.5q0 -13 -4 -28.5t-10 -29t-12.5 -22.5t-10.5 -9t-14.5 6.5t-23.5 14.5t-27 14.5t-26 6.5q-20 0 -34 -12t-14 -23q0 -3 11.5 -12.5t28.5 -19.5t36 -18t34 -9q12 3 28.5 8t32 9.5t27.5 8t15 3.5q11 0 11 -15z" />
<glyph unicode="&#x6c1;&#x654;" horiz-adv-x="577" d="M511 294q0 -64 -17 -119.5t-48.5 -96.5t-77.5 -64.5t-104 -23.5q-36 0 -70 17t-60.5 47.5t-42 71.5t-15.5 89q0 24 4.5 46t13.5 45.5t22 50t29 58.5q11 21 27.5 51.5t34.5 58t36 47t32 19.5q36 0 77.5 -26.5t76.5 -69.5t58.5 -96t23.5 -105zM432 268q0 9 -22 24.5 t-52.5 31.5t-63.5 27.5t-54 11.5q-14 0 -27 -12.5t-23 -29.5t-16 -34.5t-6 -28.5q0 -13 11.5 -24t28.5 -18.5t35.5 -11.5t33.5 -4q19 0 45.5 4.5t51 13.5t41.5 21.5t17 28.5zM455 879q0 -6 -4.5 -18.5t-11.5 -24.5t-14.5 -22t-13.5 -12t-25 -9t-43.5 -16.5t-50.5 -20 t-46 -17.5q-49 -19 -84 -36t-43 -17q-5 0 -9 2.5t-4 10.5q0 5 3.5 15.5t8.5 21t10 19.5t7 12q3 3 10 8t15 9.5t15.5 8t11.5 5.5q-8 2 -17.5 7.5t-17.5 14t-14 19.5t-6 25q0 17 9 38.5t22.5 42.5t28 39t26.5 30q19 19 37 30t33 16.5t28 7t23 1.5q11 0 23 -4.5t22 -13 t16.5 -20t6.5 -25.5q0 -13 -4 -28.5t-10 -29t-12.5 -22.5t-10.5 -9t-14.5 6.5t-23.5 14.5t-27 14.5t-26 6.5q-20 0 -34 -12t-14 -23q0 -3 11.5 -12.5t28.5 -19.5t36 -18t34 -9q12 3 28.5 8t32 9.5t27.5 8t15 3.5q11 0 11 -15z" />
<glyph unicode="&#x64b;&#x651;" d="M354 1773q0 -3 -4.5 -17t-10.5 -31.5t-12.5 -33t-10.5 -19.5q-7 -7 -18 -13t-25 -14l-242 -130q-24 -13 -32.5 -19t-16.5 -6q-13 0 -13 14q0 4 3.5 18t8 30t9.5 29.5t9 17.5t11 8.5t21 12.5l248 134q17 9 36.5 20t25.5 11q7 0 10 -3.5t3 -8.5zM354 1583q0 -3 -4.5 -17 t-10.5 -31.5t-12.5 -33t-10.5 -19.5q-7 -7 -18 -13t-25 -14l-242 -130q-24 -13 -32.5 -19t-16.5 -6q-13 0 -13 14q0 4 3.5 18t8 30t9.5 29.5t9 17.5t11 8.5t21 12.5l248 134q17 9 36.5 20t25.5 11q7 0 10 -3.5t3 -8.5zM365 1230q0 -39 -8 -73.5t-24 -60t-40 -40.5t-56 -15 q-21 0 -37 5.5t-30 16.5q-11 -17 -21.5 -33t-24 -28.5t-31 -20t-40.5 -7.5q-45 0 -71.5 35t-26.5 87q0 11 1.5 29t5.5 38t10 40.5t14 37.5q1 2 13.5 2h17.5q6 0 4.5 -21.5t-1.5 -48t7 -48.5t30 -22q19 0 33 13.5t24 33.5t16 44t10 44.5t6 35t3 16.5q3 4 15 5t19 1 q6 0 8.5 -19.5t7 -42.5t14 -42.5t30.5 -19.5q22 0 34.5 21t18 48.5t6.5 55.5t1 42q3 7 15.5 12.5t17.5 5.5q4 0 9 -11.5t9.5 -29.5t7.5 -40.5t3 -45.5z" />
<glyph unicode="&#x64c;&#x651;" d="M365 1230q0 -39 -8 -73.5t-24 -60t-40 -40.5t-56 -15q-21 0 -37 5.5t-30 16.5q-11 -17 -21.5 -33t-24 -28.5t-31 -20t-40.5 -7.5q-45 0 -71.5 35t-26.5 87q0 11 1.5 29t5.5 38t10 40.5t14 37.5q1 2 13.5 2h17.5q6 0 4.5 -21.5t-1.5 -48t7 -48.5t30 -22q19 0 33 13.5 t24 33.5t16 44t10 44.5t6 35t3 16.5q3 4 15 5t19 1q6 0 8.5 -19.5t7 -42.5t14 -42.5t30.5 -19.5q22 0 34.5 21t18 48.5t6.5 55.5t1 42q3 7 15.5 12.5t17.5 5.5q4 0 9 -11.5t9.5 -29.5t7.5 -40.5t3 -45.5zM364 1503q0 -19 -3 -36.5t-14 -17.5q-5 0 -16 4.5t-23.5 11.5t-24 14 t-18.5 12q-31 -31 -65.5 -57t-67 -45t-60 -29.5t-44.5 -10.5q-12 0 -24.5 5.5t-12.5 14.5q0 3 5.5 13t12.5 25t12.5 33.5t5.5 38.5q0 29 -11.5 45t-36.5 16q-15 0 -24.5 -10.5t-15.5 -22.5t-9.5 -22.5t-4.5 -10.5q-14 0 -17.5 7.5t-3.5 21.5q0 22 5 51t17 54t31 42.5 t46 17.5q29 0 47 -14t27.5 -35t12.5 -45t3 -44q0 -17 -2 -33.5t-5 -26.5q29 14 58.5 33.5t49.5 34.5q-11 7 -23.5 17t-23 22.5t-17.5 27t-7 30.5q0 21 11.5 51t32.5 57.5t50.5 47.5t64.5 20q43 0 65 -31.5t22 -80.5q0 -18 -4.5 -35.5t-11 -33.5t-14 -30.5t-13.5 -24.5 q20 -17 29 -30.5t9 -41.5zM285 1659q0 29 -17.5 46t-37.5 17q-13 0 -19.5 -12t-6.5 -20q0 -11 11.5 -30.5t53.5 -45.5q4 7 10 19t6 26z" />
<glyph unicode="&#x64d;&#x651;" d="M354 1397q0 -3 -4.5 -17t-10.5 -31.5t-12.5 -33t-10.5 -19.5q-7 -7 -18 -13t-25 -14l-242 -130q-24 -13 -32.5 -19t-16.5 -6q-13 0 -13 14q0 4 3.5 18t8 30t9.5 29.5t9 17.5t11 8.5t21 12.5l248 134q17 9 36.5 20t25.5 11q7 0 10 -3.5t3 -8.5zM354 1207q0 -3 -4.5 -17 t-10.5 -31.5t-12.5 -33t-10.5 -19.5q-7 -7 -18 -13t-25 -14l-242 -130q-24 -13 -32.5 -19t-16.5 -6q-13 0 -13 14q0 4 3.5 18t8 30t9.5 29.5t9 17.5t11 8.5t21 12.5l248 134q17 9 36.5 20t25.5 11q7 0 10 -3.5t3 -8.5zM365 1634q0 -39 -8 -73.5t-24 -60t-40 -40.5t-56 -15 q-21 0 -37 5.5t-30 16.5q-11 -17 -21.5 -33t-24 -28.5t-31 -20t-40.5 -7.5q-45 0 -71.5 35t-26.5 87q0 11 1.5 29t5.5 38t10 40.5t14 37.5q1 2 13.5 2h17.5q6 0 4.5 -21.5t-1.5 -48t7 -48.5t30 -22q19 0 33 13.5t24 33.5t16 44t10 44.5t6 35t3 16.5q3 4 15 5t19 1 q6 0 8.5 -19.5t7 -42.5t14 -42.5t30.5 -19.5q22 0 34.5 21t18 48.5t6.5 55.5t1 42q3 7 15.5 12.5t17.5 5.5q4 0 9 -11.5t9.5 -29.5t7.5 -40.5t3 -45.5z" />
<glyph unicode="&#x64e;&#x651;" d="M354 1593q0 -3 -4.5 -17t-10.5 -31.5t-12.5 -33t-10.5 -19.5q-7 -7 -18 -13t-25 -14l-242 -130q-24 -13 -32.5 -19t-16.5 -6q-13 0 -13 14q0 4 3.5 18t8 30t9.5 29.5t9 17.5t11 8.5t21 12.5l248 134q17 9 36.5 20t25.5 11q7 0 10 -3.5t3 -8.5zM365 1230q0 -39 -8 -73.5 t-24 -60t-40 -40.5t-56 -15q-21 0 -37 5.5t-30 16.5q-11 -17 -21.5 -33t-24 -28.5t-31 -20t-40.5 -7.5q-45 0 -71.5 35t-26.5 87q0 11 1.5 29t5.5 38t10 40.5t14 37.5q1 2 13.5 2h17.5q6 0 4.5 -21.5t-1.5 -48t7 -48.5t30 -22q19 0 33 13.5t24 33.5t16 44t10 44.5t6 35 t3 16.5q3 4 15 5t19 1q6 0 8.5 -19.5t7 -42.5t14 -42.5t30.5 -19.5q22 0 34.5 21t18 48.5t6.5 55.5t1 42q3 7 15.5 12.5t17.5 5.5q4 0 9 -11.5t9.5 -29.5t7.5 -40.5t3 -45.5z" />
<glyph unicode="&#x64f;&#x651;" d="M237 1757q43 0 65 -31.5t22 -80.5q0 -27 -11 -58t-30 -63l35 -24.5t22 -14.5q5 -3 5 -9q0 -8 -7 -23t-16 -30t-17.5 -26.5t-11.5 -11.5q-6 0 -28.5 12t-51.5 32q-40 -45 -80.5 -73.5t-68.5 -28.5q-15 0 -34 4t-37.5 10t-34.5 13.5t-25 14.5q66 25 119.5 53.5t92.5 57.5 q-28 25 -47.5 50.5t-19.5 48.5q0 21 11.5 51.5t32.5 58.5t50.5 48t64.5 20zM158 1646q0 -14 20.5 -35.5t48.5 -44.5q13 23 13 39q0 10 -4.5 21t-12.5 20.5t-19.5 16t-25.5 6.5q-13 0 -16.5 -8.5t-3.5 -14.5zM365 1230q0 -39 -8 -73.5t-24 -60t-40 -40.5t-56 -15 q-21 0 -37 5.5t-30 16.5q-11 -17 -21.5 -33t-24 -28.5t-31 -20t-40.5 -7.5q-45 0 -71.5 35t-26.5 87q0 11 1.5 29t5.5 38t10 40.5t14 37.5q1 2 13.5 2h17.5q6 0 4.5 -21.5t-1.5 -48t7 -48.5t30 -22q19 0 33 13.5t24 33.5t16 44t10 44.5t6 35t3 16.5q3 4 15 5t19 1 q6 0 8.5 -19.5t7 -42.5t14 -42.5t30.5 -19.5q22 0 34.5 21t18 48.5t6.5 55.5t1 42q3 7 15.5 12.5t17.5 5.5q4 0 9 -11.5t9.5 -29.5t7.5 -40.5t3 -45.5z" />
<glyph unicode="&#x650;&#x651;" d="M354 1235q0 -3 -4.5 -17t-10.5 -31.5t-12.5 -33t-10.5 -19.5q-7 -7 -18 -13t-25 -14l-242 -130q-24 -13 -32.5 -19t-16.5 -6q-13 0 -13 14q0 4 3.5 18t8 30t9.5 29.5t9 17.5t11 8.5t21 12.5l248 134q17 9 36.5 20t25.5 11q7 0 10 -3.5t3 -8.5zM365 1469q0 -39 -8 -73.5 t-24 -60t-40 -40.5t-56 -15q-21 0 -37 5.5t-30 16.5q-11 -17 -21.5 -33t-24 -28.5t-31 -20t-40.5 -7.5q-45 0 -71.5 35t-26.5 87q0 11 1.5 29t5.5 38t10 40.5t14 37.5q1 2 13.5 2h17.5q6 0 4.5 -21.5t-1.5 -48t7 -48.5t30 -22q19 0 33 13.5t24 33.5t16 44t10 44.5t6 35 t3 16.5q3 4 15 5t19 1q6 0 8.5 -19.5t7 -42.5t14 -42.5t30.5 -19.5q22 0 34.5 21t18 48.5t6.5 55.5t1 42q3 7 15.5 12.5t17.5 5.5q4 0 9 -11.5t9.5 -29.5t7.5 -40.5t3 -45.5z" />
<glyph unicode="&#x64e;&#x654;" d="M354 1581q0 -3 -4.5 -17t-10.5 -31.5t-12.5 -33t-10.5 -19.5q-7 -7 -18 -13t-25 -14l-242 -130q-24 -13 -32.5 -19t-16.5 -6q-13 0 -13 14q0 4 3.5 18t8 30t9.5 29.5t9 17.5t11 8.5t21 12.5l248 134q17 9 36.5 20t25.5 11q7 0 10 -3.5t3 -8.5zM344 1140q0 -6 -4.5 -18.5 t-11.5 -24.5t-14.5 -22t-13.5 -12t-25 -9t-43.5 -16.5t-50.5 -20t-46 -17.5q-49 -19 -84 -36t-43 -17q-5 0 -9 2.5t-4 10.5q0 5 3.5 15.5t8.5 21t10 19.5t7 12q3 3 10 8t15 9.5t15.5 8t11.5 5.5q-8 2 -17.5 7.5t-17.5 14t-14 19.5t-6 25q0 17 9 38.5t22.5 42.5t28 39 t26.5 30q19 19 37 30t33 16.5t28 7t23 1.5q11 0 23 -4.5t22 -13t16.5 -20t6.5 -25.5q0 -13 -4 -28.5t-10 -29t-12.5 -22.5t-10.5 -9t-14.5 6.5t-23.5 14.5t-27 14.5t-26 6.5q-20 0 -34 -12t-14 -23q0 -3 11.5 -12.5t28.5 -19.5t36 -18t34 -9q12 3 28.5 8t32 9.5t27.5 8 t15 3.5q11 0 11 -15z" />
<glyph unicode="&#x64f;&#x654;" d="M344 1140q0 -6 -4.5 -18.5t-11.5 -24.5t-14.5 -22t-13.5 -12t-25 -9t-43.5 -16.5t-50.5 -20t-46 -17.5q-49 -19 -84 -36t-43 -17q-5 0 -9 2.5t-4 10.5q0 5 3.5 15.5t8.5 21t10 19.5t7 12q3 3 10 8t15 9.5t15.5 8t11.5 5.5q-8 2 -17.5 7.5t-17.5 14t-14 19.5t-6 25 q0 17 9 38.5t22.5 42.5t28 39t26.5 30q19 19 37 30t33 16.5t28 7t23 1.5q11 0 23 -4.5t22 -13t16.5 -20t6.5 -25.5q0 -13 -4 -28.5t-10 -29t-12.5 -22.5t-10.5 -9t-14.5 6.5t-23.5 14.5t-27 14.5t-26 6.5q-20 0 -34 -12t-14 -23q0 -3 11.5 -12.5t28.5 -19.5t36 -18t34 -9 q12 3 28.5 8t32 9.5t27.5 8t15 3.5q11 0 11 -15zM237 1757q43 0 65 -31.5t22 -80.5q0 -27 -11 -58t-30 -63l35 -24.5t22 -14.5q5 -3 5 -9q0 -8 -7 -23t-16 -30t-17.5 -26.5t-11.5 -11.5q-6 0 -28.5 12t-51.5 32q-40 -45 -80.5 -73.5t-68.5 -28.5q-15 0 -34 4t-37.5 10 t-34.5 13.5t-25 14.5q66 25 119.5 53.5t92.5 57.5q-28 25 -47.5 50.5t-19.5 48.5q0 21 11.5 51.5t32.5 58.5t50.5 48t64.5 20zM158 1646q0 -14 20.5 -35.5t48.5 -44.5q13 23 13 39q0 10 -4.5 21t-12.5 20.5t-19.5 16t-25.5 6.5q-13 0 -16.5 -8.5t-3.5 -14.5z" />
<glyph unicode="&#x651;&#x670;" d="M182 1391q0 -6 -3.5 -16.5t-8.5 -21t-11 -18.5t-12 -8q-2 0 -4.5 7t-5.5 16l-6 18t-5 13q-12 26 -28 51.5t-34.5 48t-37.5 42t-36 34.5q-2 1 -8.5 16.5t-13.5 35.5t-12.5 39.5t-5.5 29.5t2 20t16 10q13 0 30.5 -5t35 -13.5t34 -20.5t27.5 -26q24 -30 40.5 -70t27 -77.5 t15 -67t4.5 -37.5zM365 1200q0 -39 -8 -73.5t-24 -60t-40 -40.5t-56 -15q-21 0 -37 5.5t-30 16.5q-11 -17 -21.5 -33t-24 -28.5t-31 -20t-40.5 -7.5q-45 0 -71.5 35t-26.5 87q0 11 1.5 29t5.5 38t10 40.5t14 37.5q1 2 13.5 2h17.5q6 0 4.5 -21.5t-1.5 -48t7 -48.5t30 -22 q19 0 33 13.5t24 33.5t16 44t10 44.5t6 35t3 16.5q3 4 15 5t19 1q6 0 8.5 -19.5t7 -42.5t14 -42.5t30.5 -19.5q22 0 34.5 21t18 48.5t6.5 55.5t1 42q3 7 15.5 12.5t17.5 5.5q4 0 9 -11.5t9.5 -29.5t7.5 -40.5t3 -45.5z" />
<glyph unicode="&#x620;" horiz-adv-x="439" d="M355 354q0 -72 -22.5 -136t-65.5 -112.5t-105 -77t-140 -28.5h-39q-23 0 -36.5 21.5t-13.5 82.5q0 30 4.5 50t12 31t16.5 15.5t17 4.5h39q24 0 54.5 1t60.5 4t55.5 7.5t39.5 12.5q19 11 27 23.5t8 20.5q0 19 -18.5 39t-40 39t-40 36.5t-18.5 31.5q0 6 10 30t25 54.5 t34 62.5t37 55q17 -26 34.5 -58.5t32 -68t23.5 -72t9 -69.5zM339 -246q0 -36 -12.5 -68t-35 -56t-52.5 -37.5t-65 -13.5q-54 0 -84.5 38t-30.5 121q0 31 11 61t32 54t50 38.5t65 14.5q27 0 49.5 -14t38.5 -36.5t25 -49.5t9 -52zM261 -269q0 8 -9 19.5t-22.5 22.5t-28.5 18.5 t-27 7.5q-25 0 -37 -16.5t-12 -34.5q0 -19 20.5 -33.5t51.5 -14.5q9 0 20 3t21 7.5t16.5 10t6.5 10.5z" />
<glyph unicode="&#x620;" horiz-adv-x="427" d="M496 104q0 -49 -9 -76.5t-46 -27.5h-39q-28 0 -46.5 7t-38.5 24q-17 14 -32 37t-25 52q-18 -24 -38.5 -45.5t-48.5 -38t-64 -26.5t-84 -10h-37q-19 0 -30 6.5t-16.5 20t-7 32.5t-1.5 45q0 24 1.5 42.5t7 31.5t16.5 20t30 7h37q52 0 90.5 9.5t65.5 24.5t44.5 31.5t30 31.5 t20.5 24.5t16 9.5q6 0 13 -9t15 -46q3 -13 7.5 -26.5t14 -24.5t24 -18t36.5 -7h39q37 0 46 -26t9 -75zM369 -242q0 -36 -12.5 -68t-35 -56t-52.5 -37.5t-65 -13.5q-54 0 -84.5 38t-30.5 121q0 31 11 61t32 54t50 38.5t65 14.5q27 0 49.5 -14t38.5 -36.5t25 -49.5t9 -52z M291 -265q0 8 -9 19.5t-22.5 22.5t-28.5 18.5t-27 7.5q-25 0 -37 -16.5t-12 -34.5q0 -19 20.5 -33.5t51.5 -14.5q9 0 20 3t21 7.5t16.5 10t6.5 10.5z" />
<glyph unicode="&#x620;" horiz-adv-x="983" d="M1056 103q0 -12 -1.5 -29.5t-7 -34t-16.5 -28t-30 -11.5h-127q-14 0 -41.5 -0.5t-58.5 -1.5t-58.5 -3.5t-41.5 -6.5q-34 -10 -54.5 -24t-20.5 -30q0 -8 23 -16.5t77 -14.5q47 -5 82 -13t58 -22.5t34.5 -38.5t11.5 -61q0 -19 -8 -40.5t-20.5 -43t-29.5 -41t-35 -33.5 q-44 -35 -102 -69t-121 -60.5t-126.5 -43t-119.5 -16.5q-32 0 -68 13t-70.5 33t-66 43.5t-56 45.5t-38.5 38.5t-14 22.5q0 9 8.5 18.5t16.5 9.5q6 0 25.5 -4.5t51.5 -10t77.5 -10t102.5 -4.5q103 0 192.5 13t155 31t103 38t37.5 34q0 22 -36.5 26.5t-102.5 6.5 q-47 1 -78.5 10t-50 24.5t-26 37t-7.5 48.5q0 30 13 63t35 64q21 30 50 58.5t61 52.5t65 42t64 27q11 3 29.5 5.5t38.5 4t39 2.5t30 1h97q19 0 30 -11.5t16.5 -28t7 -33.5t1.5 -29z" />
<glyph unicode="&#x622;" horiz-adv-x="389" arabic-form="final" d="M530 1276q0 -14 -21.5 -30.5t-56.5 -34t-80 -33.5t-91 -29t-89.5 -20.5t-76.5 -7.5q-34 0 -65.5 1t-56.5 3q-29 2 -55 4q-9 0 -13.5 -14t-9 -30.5t-12 -30.5t-22.5 -14q-19 0 -36 14.5t-29.5 35t-20 43.5t-7.5 41q0 24 5.5 45.5t19.5 37.5t38.5 25.5t62.5 9.5 q19 0 43.5 -3t52.5 -7t58 -7t61 -3q86 0 152.5 6.5t113 14t73.5 14t35 6.5q10 0 15.5 -3.5t8 -9t3 -12t0.5 -12.5zM371 0q-89 0 -144.5 46t-73.5 153q-12 72 -23.5 174.5t-25.5 226.5q-5 45 -9.5 76.5t-7.5 55.5t-5 42t-2 35q0 15 15 45t34 60.5t36 53.5t21 23q9 0 19.5 -13 t11.5 -33q7 -142 11.5 -247.5t8 -184t7 -134t8.5 -96.5q3 -23 13.5 -38t26 -24t36 -12.5t43.5 -3.5h35q23 0 36.5 -19.5t13.5 -76.5q0 -61 -15 -85t-35 -24h-35z" />
<glyph unicode="&#x623;" horiz-adv-x="389" arabic-form="final" d="M326 1254q0 -6 -4.5 -18.5t-11.5 -24.5t-14.5 -22t-13.5 -12t-25 -9t-43.5 -16.5t-50.5 -20t-46 -17.5q-49 -19 -84 -36t-43 -17q-5 0 -9 2.5t-4 10.5q0 5 3.5 15.5t8.5 21t10 19.5t7 12q3 3 10 8t15 9.5t15.5 8t11.5 5.5q-8 2 -17.5 7.5t-17.5 14t-14 19.5t-6 25 q0 17 9 38.5t22.5 42.5t28 39t26.5 30q19 19 37 30t33 16.5t28 7t23 1.5q11 0 23 -4.5t22 -13t16.5 -20t6.5 -25.5q0 -13 -4 -28.5t-10 -29t-12.5 -22.5t-10.5 -9t-14.5 6.5t-23.5 14.5t-27 14.5t-26 6.5q-20 0 -34 -12t-14 -23q0 -3 11.5 -12.5t28.5 -19.5t36 -18t34 -9 q12 3 28.5 8t32 9.5t27.5 8t15 3.5q11 0 11 -15zM371 0q-89 0 -144.5 46t-73.5 153q-12 72 -23.5 174.5t-25.5 226.5q-5 45 -9.5 76.5t-7.5 55.5t-5 42t-2 35q0 15 15 45t34 60.5t36 53.5t21 23q9 0 19.5 -13t11.5 -33q7 -142 11.5 -247.5t8 -184t7 -134t8.5 -96.5 q3 -23 13.5 -38t26 -24t36 -12.5t43.5 -3.5h35q23 0 36.5 -19.5t13.5 -76.5q0 -61 -15 -85t-35 -24h-35z" />
<glyph unicode="&#x625;" horiz-adv-x="389" arabic-form="final" d="M407 -407q0 -6 -4.5 -18.5t-11.5 -24.5t-14.5 -22t-13.5 -12t-25 -9t-43.5 -16.5t-50.5 -20t-46 -17.5q-49 -19 -84 -36t-43 -17q-5 0 -9 2.5t-4 10.5q0 5 3.5 15.5t8.5 21t10 19.5t7 12q3 3 10 8t15 9.5t15.5 8t11.5 5.5q-8 2 -17.5 7.5t-17.5 14t-14 19.5t-6 25 q0 17 9 38.5t22.5 42.5t28 39t26.5 30q19 19 37 30t33 16.5t28 7t23 1.5q11 0 23 -4.5t22 -13t16.5 -20t6.5 -25.5q0 -13 -4 -28.5t-10 -29t-12.5 -22.5t-10.5 -9t-14.5 6.5t-23.5 14.5t-27 14.5t-26 6.5q-20 0 -34 -12t-14 -23q0 -3 11.5 -12.5t28.5 -19.5t36 -18t34 -9 q12 3 28.5 8t32 9.5t27.5 8t15 3.5q11 0 11 -15zM371 0q-89 0 -144.5 46t-73.5 153q-12 72 -23.5 174.5t-25.5 226.5q-5 45 -9.5 76.5t-7.5 55.5t-5 42t-2 35q0 15 15 45t34 60.5t36 53.5t21 23q9 0 19.5 -13t11.5 -33q7 -142 11.5 -247.5t8 -184t7 -134t8.5 -96.5 q3 -23 13.5 -38t26 -24t36 -12.5t43.5 -3.5h35q23 0 36.5 -19.5t13.5 -76.5q0 -61 -15 -85t-35 -24h-35z" />
<glyph unicode="&#x627;" horiz-adv-x="389" arabic-form="final" d="M371 0q-89 0 -144.5 46t-73.5 153q-12 72 -23.5 174.5t-25.5 226.5q-5 45 -9.5 76.5t-7.5 55.5t-5 42t-2 35q0 15 15 45t34 60.5t36 53.5t21 23q9 0 19.5 -13t11.5 -33q7 -142 11.5 -247.5t8 -184t7 -134t8.5 -96.5q3 -23 13.5 -38t26 -24t36 -12.5t43.5 -3.5h35 q23 0 36.5 -19.5t13.5 -76.5q0 -61 -15 -85t-35 -24h-35z" />
<glyph unicode="&#x628;" horiz-adv-x="439" arabic-form="initial" d="M355 354q0 -72 -22.5 -136t-65.5 -112.5t-105 -77t-140 -28.5h-39q-23 0 -36.5 21.5t-13.5 82.5q0 30 4.5 50t12 31t16.5 15.5t17 4.5h39q24 0 54.5 1t60.5 4t55.5 7.5t39.5 12.5q19 11 27 23.5t8 20.5q0 19 -18.5 39t-40 39t-40 36.5t-18.5 31.5q0 6 10 30t25 54.5 t34 62.5t37 55q17 -26 34.5 -58.5t32 -68t23.5 -72t9 -69.5zM291 -184q0 -4 -6.5 -16.5t-16.5 -29.5t-22.5 -36t-24 -34.5t-21.5 -26t-14 -10.5q-3 0 -25.5 14.5t-47.5 33t-45.5 36t-20.5 22.5q0 4 6.5 17t17 30t23 36t24 34.5t20.5 26t13 10.5q6 0 28.5 -15t47.5 -33.5 t44.5 -36t19.5 -22.5z" />
<glyph unicode="&#x628;" horiz-adv-x="427" arabic-form="medial" d="M496 104q0 -49 -9 -76.5t-46 -27.5h-39q-28 0 -46.5 7t-38.5 24q-17 14 -32 37t-25 52q-18 -24 -38.5 -45.5t-48.5 -38t-64 -26.5t-84 -10h-37q-19 0 -30 6.5t-16.5 20t-7 32.5t-1.5 45q0 24 1.5 42.5t7 31.5t16.5 20t30 7h37q52 0 90.5 9.5t65.5 24.5t44.5 31.5t30 31.5 t20.5 24.5t16 9.5q6 0 13 -9t15 -46q3 -13 7.5 -26.5t14 -24.5t24 -18t36.5 -7h39q37 0 46 -26t9 -75zM326 -192q0 -4 -6.5 -16.5t-16.5 -29.5t-22.5 -36t-24 -34.5t-21.5 -26t-14 -10.5q-3 0 -25.5 14.5t-47.5 33t-45.5 36t-20.5 22.5q0 4 6.5 17t17 30t23 36t24 34.5 t20.5 26t13 10.5q6 0 28.5 -15t47.5 -33.5t44.5 -36t19.5 -22.5z" />
<glyph unicode="&#x628;" horiz-adv-x="1498" arabic-form="final" d="M1566 103q0 -12 -1 -29.5t-6 -34t-14.5 -28t-26.5 -11.5h-40q-32 0 -58.5 4t-50 16.5t-44 36.5t-39.5 63q-44 -38 -117.5 -74t-168.5 -64.5t-207.5 -46t-234.5 -17.5q-114 0 -203 22.5t-150 63t-93 98t-32 128.5q0 61 18 117.5t40.5 99.5t43 69t24.5 26q1 0 6 -3t10 -7 t9 -8.5t4 -7.5q0 -4 -9.5 -18t-21.5 -37.5t-21.5 -55.5t-9.5 -71q0 -55 36.5 -93t98.5 -61.5t143.5 -34t171.5 -10.5q102 0 196.5 6.5t174.5 20t142 35t101 51.5q10 7 18.5 17t15.5 18t13.5 14t12.5 6q8 0 14.5 -6t11.5 -15t10.5 -19.5t12.5 -19.5q14 -17 45.5 -27.5 t86.5 -10.5h40q17 0 26.5 -11.5t14.5 -28t6 -33.5t1 -29zM773 -266q0 -4 -6.5 -16.5t-16.5 -29.5t-22.5 -36t-24 -34.5t-21.5 -26t-14 -10.5q-3 0 -25.5 14.5t-47.5 33t-45.5 36t-20.5 22.5q0 4 6.5 17t17 30t23 36t24 34.5t20.5 26t13 10.5q6 0 28.5 -15t47.5 -33.5 t44.5 -36t19.5 -22.5z" />
<glyph unicode="&#x629;" horiz-adv-x="645" arabic-form="final" d="M712 103q0 -12 -1.5 -29.5t-7 -34t-16.5 -28t-30 -11.5h-37q-46 0 -79.5 9t-58.5 31t-43 59.5t-31 95.5q-12 -17 -29 -35.5t-37.5 -33.5t-44.5 -24.5t-50 -9.5q-21 0 -53.5 4t-62.5 13.5t-52 25t-22 38.5q0 12 6.5 35t17.5 49.5t25 53.5t29 49q13 19 40.5 45.5t59.5 52.5 t63 46.5t49 28.5q-1 9 -1.5 15.5t-0.5 15.5v10t1 10q2 22 13 44.5t25.5 41t28.5 30t22 11.5q1 0 3.5 -14.5t6.5 -37.5t9 -52l10 -58q7 -45 15 -90t14.5 -82.5t11.5 -64.5t7 -34q4 -17 9 -30t15.5 -23t30 -15t53.5 -5h37q19 0 30 -11.5t16.5 -28t7 -33.5t1.5 -29zM388 302 q-5 23 -11 62t-13 75q-38 -16 -68.5 -37.5t-51.5 -42t-32.5 -36t-11.5 -18.5t12.5 -6.5t31.5 -6.5t41.5 -4.5t42.5 -1.5q25 0 37 4t23 12zM461 1045q6 0 27 -14t44 -31.5t41 -34t18 -20.5t-6 -16t-15.5 -28t-21 -33.5t-22 -32t-19 -24t-11.5 -9.5q-4 0 -23.5 14t-42.5 31 l-60 46q-6 6 -13 6q-3 0 -8 -9q-23 -32 -41 -58q-16 -22 -31 -39.5t-20 -17.5q-2 0 -12.5 6.5t-25.5 17t-31 22.5t-30 23t-23 19.5t-9 11.5q0 4 6.5 16t16.5 28.5t21.5 34.5t22.5 32.5t19 24.5t10 10q7 0 27 -14.5t42 -31.5q26 -20 55 -45q6 -7 11 -7q3 0 5.5 2t7.5 9 q23 30 42 55q16 21 30.5 38.5t18.5 17.5z" />
<glyph unicode="&#x62a;" horiz-adv-x="439" arabic-form="initial" d="M355 354q0 -72 -22.5 -136t-65.5 -112.5t-105 -77t-140 -28.5h-39q-23 0 -36.5 21.5t-13.5 82.5q0 30 4.5 50t12 31t16.5 15.5t17 4.5h39q24 0 54.5 1t60.5 4t55.5 7.5t39.5 12.5q19 11 27 23.5t8 20.5q0 19 -18.5 39t-40 39t-40 36.5t-18.5 31.5q0 6 10 30t25 54.5 t34 62.5t37 55q17 -26 34.5 -58.5t32 -68t23.5 -72t9 -69.5zM322 983q6 0 27 -14t44 -31.5t41 -34t18 -20.5t-6 -16t-15.5 -28t-21 -33.5t-22 -32t-19 -24t-11.5 -9.5q-4 0 -23.5 14t-42.5 31l-60 46q-6 6 -13 6q-3 0 -8 -9q-23 -32 -41 -58q-16 -22 -31 -39.5t-20 -17.5 q-2 0 -12.5 6.5t-25.5 17t-31 22.5t-30 23t-23 19.5t-9 11.5q0 4 6.5 16t16.5 28.5t21.5 34.5t22.5 32.5t19 24.5t10 10q7 0 27 -14.5t42 -31.5q26 -20 55 -45q6 -7 11 -7q3 0 5.5 2t7.5 9q23 30 42 55q16 21 30.5 38.5t18.5 17.5z" />
<glyph unicode="&#x62a;" horiz-adv-x="427" arabic-form="medial" d="M496 104q0 -49 -9 -76.5t-46 -27.5h-39q-28 0 -46.5 7t-38.5 24q-17 14 -32 37t-25 52q-18 -24 -38.5 -45.5t-48.5 -38t-64 -26.5t-84 -10h-37q-19 0 -30 6.5t-16.5 20t-7 32.5t-1.5 45q0 24 1.5 42.5t7 31.5t16.5 20t30 7h37q52 0 90.5 9.5t65.5 24.5t44.5 31.5t30 31.5 t20.5 24.5t16 9.5q6 0 13 -9t15 -46q3 -13 7.5 -26.5t14 -24.5t24 -18t36.5 -7h39q37 0 46 -26t9 -75zM317 697q6 0 27 -14t44 -31.5t41 -34t18 -20.5t-6 -16t-15.5 -28t-21 -33.5t-22 -32t-19 -24t-11.5 -9.5q-4 0 -23.5 14t-42.5 31l-60 46q-6 6 -13 6q-3 0 -8 -9 q-23 -32 -41 -58q-16 -22 -31 -39.5t-20 -17.5q-2 0 -12.5 6.5t-25.5 17t-31 22.5t-30 23t-23 19.5t-9 11.5q0 4 6.5 16t16.5 28.5t21.5 34.5t22.5 32.5t19 24.5t10 10q7 0 27 -14.5t42 -31.5q26 -20 55 -45q6 -7 11 -7q3 0 5.5 2t7.5 9q23 30 42 55q16 21 30.5 38.5 t18.5 17.5z" />
<glyph unicode="&#x62a;" horiz-adv-x="1498" arabic-form="final" d="M1566 103q0 -12 -1 -29.5t-6 -34t-14.5 -28t-26.5 -11.5h-40q-32 0 -58.5 4t-50 16.5t-44 36.5t-39.5 63q-44 -38 -117.5 -74t-168.5 -64.5t-207.5 -46t-234.5 -17.5q-114 0 -203 22.5t-150 63t-93 98t-32 128.5q0 61 18 117.5t40.5 99.5t43 69t24.5 26q1 0 6 -3t10 -7 t9 -8.5t4 -7.5q0 -4 -9.5 -18t-21.5 -37.5t-21.5 -55.5t-9.5 -71q0 -55 36.5 -93t98.5 -61.5t143.5 -34t171.5 -10.5q102 0 196.5 6.5t174.5 20t142 35t101 51.5q10 7 18.5 17t15.5 18t13.5 14t12.5 6q8 0 14.5 -6t11.5 -15t10.5 -19.5t12.5 -19.5q14 -17 45.5 -27.5 t86.5 -10.5h40q17 0 26.5 -11.5t14.5 -28t6 -33.5t1 -29zM805 710q6 0 27 -14t44 -31.5t41 -34t18 -20.5t-6 -16t-15.5 -28t-21 -33.5t-22 -32t-19 -24t-11.5 -9.5q-4 0 -23.5 14t-42.5 31l-60 46q-6 6 -13 6q-3 0 -8 -9q-23 -32 -41 -58q-16 -22 -31 -39.5t-20 -17.5 q-2 0 -12.5 6.5t-25.5 17t-31 22.5t-30 23t-23 19.5t-9 11.5q0 4 6.5 16t16.5 28.5t21.5 34.5t22.5 32.5t19 24.5t10 10q7 0 27 -14.5t42 -31.5q26 -20 55 -45q6 -7 11 -7q3 0 5.5 2t7.5 9q23 30 42 55q16 21 30.5 38.5t18.5 17.5z" />
<glyph unicode="&#x62b;" horiz-adv-x="439" arabic-form="initial" d="M355 354q0 -72 -22.5 -136t-65.5 -112.5t-105 -77t-140 -28.5h-39q-23 0 -36.5 21.5t-13.5 82.5q0 30 4.5 50t12 31t16.5 15.5t17 4.5h39q24 0 54.5 1t60.5 4t55.5 7.5t39.5 12.5q19 11 27 23.5t8 20.5q0 19 -18.5 39t-40 39t-40 36.5t-18.5 31.5q0 6 10 30t25 54.5 t34 62.5t37 55q17 -26 34.5 -58.5t32 -68t23.5 -72t9 -69.5zM77 1081q0 6 13 29.5t30 49.5t33.5 46.5t22.5 20.5q2 0 13 -6.5t25.5 -16.5t31 -22.5t30.5 -23.5t23 -20t9 -12q0 -4 -6.5 -16t-16 -28.5t-21.5 -34.5t-23 -32.5t-19.5 -24.5t-11.5 -10q-6 0 -27.5 14t-45 32 t-42 34t-18.5 21zM120 718q-6 0 -27 14t-44 32t-41 34t-18 20q0 6 13 29t29.5 48.5t32 46t20.5 20.5q3 0 23 -14.5t43 -31.5l60 -46q7 -5 13 -5q3 0 8 8q23 31 41 57q16 22 31 40t20 18q2 0 12.5 -6.5t25.5 -17t31 -22.5t30 -23t23 -19.5t9 -11.5q0 -4 -6.5 -16t-16.5 -28.5 t-21.5 -34.5t-22.5 -32.5t-19 -24.5t-10 -10q-8 0 -27.5 14t-41.5 31q-26 20 -55 46q-6 7 -11 7q-6 0 -13 -10l-42 -56q-17 -21 -31 -38.5t-18 -17.5z" />
<glyph unicode="&#x62b;" horiz-adv-x="427" arabic-form="medial" d="M496 104q0 -49 -9 -76.5t-46 -27.5h-39q-28 0 -46.5 7t-38.5 24q-17 14 -32 37t-25 52q-18 -24 -38.5 -45.5t-48.5 -38t-64 -26.5t-84 -10h-37q-19 0 -30 6.5t-16.5 20t-7 32.5t-1.5 45q0 24 1.5 42.5t7 31.5t16.5 20t30 7h37q52 0 90.5 9.5t65.5 24.5t44.5 31.5t30 31.5 t20.5 24.5t16 9.5q6 0 13 -9t15 -46q3 -13 7.5 -26.5t14 -24.5t24 -18t36.5 -7h39q37 0 46 -26t9 -75zM70 792q0 6 13 29.5t30 49.5t33.5 46.5t22.5 20.5q2 0 13 -6.5t25.5 -16.5t31 -22.5t30.5 -23.5t23 -20t9 -12q0 -4 -6.5 -16t-16 -28.5t-21.5 -34.5t-23 -32.5 t-19.5 -24.5t-11.5 -10q-6 0 -27.5 14t-45 32t-42 34t-18.5 21zM113 429q-6 0 -27 14t-44 32t-41 34t-18 20q0 6 13 29t29.5 48.5t32 46t20.5 20.5q3 0 23 -14.5t43 -31.5l60 -46q7 -5 13 -5q3 0 8 8q23 31 41 57q16 22 31 40t20 18q2 0 12.5 -6.5t25.5 -17t31 -22.5t30 -23 t23 -19.5t9 -11.5q0 -4 -6.5 -16t-16.5 -28.5t-21.5 -34.5t-22.5 -32.5t-19 -24.5t-10 -10q-8 0 -27.5 14t-41.5 31q-26 20 -55 46q-6 7 -11 7q-6 0 -13 -10l-42 -56q-17 -21 -31 -38.5t-18 -17.5z" />
<glyph unicode="&#x62b;" horiz-adv-x="1498" arabic-form="final" d="M1566 103q0 -12 -1 -29.5t-6 -34t-14.5 -28t-26.5 -11.5h-40q-32 0 -58.5 4t-50 16.5t-44 36.5t-39.5 63q-44 -38 -117.5 -74t-168.5 -64.5t-207.5 -46t-234.5 -17.5q-114 0 -203 22.5t-150 63t-93 98t-32 128.5q0 61 18 117.5t40.5 99.5t43 69t24.5 26q1 0 6 -3t10 -7 t9 -8.5t4 -7.5q0 -4 -9.5 -18t-21.5 -37.5t-21.5 -55.5t-9.5 -71q0 -55 36.5 -93t98.5 -61.5t143.5 -34t171.5 -10.5q102 0 196.5 6.5t174.5 20t142 35t101 51.5q10 7 18.5 17t15.5 18t13.5 14t12.5 6q8 0 14.5 -6t11.5 -15t10.5 -19.5t12.5 -19.5q14 -17 45.5 -27.5 t86.5 -10.5h40q17 0 26.5 -11.5t14.5 -28t6 -33.5t1 -29zM567 803q0 6 13 29.5t30 49.5t33.5 46.5t22.5 20.5q2 0 13 -6.5t25.5 -16.5t31 -22.5t30.5 -23.5t23 -20t9 -12q0 -4 -6.5 -16t-16 -28.5t-21.5 -34.5t-23 -32.5t-19.5 -24.5t-11.5 -10q-6 0 -27.5 14t-45 32t-42 34 t-18.5 21zM610 440q-6 0 -27 14t-44 32t-41 34t-18 20q0 6 13 29t29.5 48.5t32 46t20.5 20.5q3 0 23 -14.5t43 -31.5l60 -46q7 -5 13 -5q3 0 8 8q23 31 41 57q16 22 31 40t20 18q2 0 12.5 -6.5t25.5 -17t31 -22.5t30 -23t23 -19.5t9 -11.5q0 -4 -6.5 -16t-16.5 -28.5 t-21.5 -34.5t-22.5 -32.5t-19 -24.5t-10 -10q-8 0 -27.5 14t-41.5 31q-26 20 -55 46q-6 7 -11 7q-6 0 -13 -10l-42 -56q-17 -21 -31 -38.5t-18 -17.5z" />
<glyph unicode="&#x62c;" horiz-adv-x="1120" arabic-form="initial" d="M1038 445q0 -3 -3 -23.5t-7.5 -45.5t-8.5 -47t-6 -28q-1 -3 -27.5 -5.5t-72 -4t-106 -2t-129.5 -0.5q-47 0 -88.5 -15.5t-81.5 -40t-79 -55t-80 -60.5q-33 -24 -69 -45t-76.5 -37.5t-84.5 -26t-92 -9.5h-39q-19 0 -30 11.5t-16.5 28t-7 34t-1.5 29.5t1.5 29t7 33.5 t16.5 28t30 11.5h37q77 0 157 8.5t149 36.5q19 8 40 18.5t42 20.5t42 18.5t40 12.5q-21 8 -54.5 24t-73.5 31.5t-83.5 27t-83.5 11.5q-21 0 -41.5 -6.5t-37 -15t-28 -15t-12.5 -6.5q-2 0 -7 2t-10 4.5t-9.5 5t-4.5 4.5q0 20 7 44.5t19.5 49.5t30.5 47.5t40 37.5q25 17 55 29 t78 12q31 0 72.5 -15t85.5 -35t88 -39.5t79 -27.5q54 -13 117.5 -23t141.5 -14q24 -1 54 -2t57 -1.5t45 -2t18 -2.5zM654 -162q0 -4 -6.5 -16.5t-16.5 -29.5t-22.5 -36t-24 -34.5t-21.5 -26t-14 -10.5q-3 0 -25.5 14.5t-47.5 33t-45.5 36t-20.5 22.5q0 4 6.5 17t17 30t23 36 t24 34.5t20.5 26t13 10.5q6 0 28.5 -15t47.5 -33.5t44.5 -36t19.5 -22.5z" />
<glyph unicode="&#x62c;" horiz-adv-x="1095" arabic-form="medial" d="M1162 103q0 -12 -1.5 -29.5t-7 -34t-16.5 -28t-30 -11.5h-37q-117 0 -206.5 11t-134.5 42q-59 40 -59 124q0 10 2 24t6 29.5t8.5 31t9.5 27.5h-18q-47 0 -88.5 -15.5t-81.5 -40t-79 -55t-80 -60.5q-33 -24 -69 -45t-76.5 -37.5t-85 -26t-93.5 -9.5h-37q-19 0 -30 11.5 t-16.5 28t-7 34t-1.5 29.5t1.5 29t7 33.5t16.5 28t30 11.5h37q100 0 173.5 10.5t132.5 34.5q18 7 38.5 17.5t42 21t43 19t40.5 12.5q-21 8 -54.5 24t-73.5 31.5t-83.5 27t-83.5 11.5q-21 0 -41.5 -6.5t-37 -15t-28 -15t-12.5 -6.5q-2 0 -7.5 2t-10.5 4.5t-9 5t-4 4.5 q0 20 7 44.5t19.5 49.5t30.5 47.5t40 37.5q25 17 55 29t78 12q31 0 72.5 -15t85.5 -35t88 -39.5t79 -27.5q81 -19 192 -31t230 -12q5 0 7.5 -4.5t2.5 -9.5q0 -2 -3 -20.5t-7 -41t-8 -43.5t-6 -27q-1 -3 -26.5 -6t-62 -4.5t-78.5 -2.5t-77 -1q-1 -2 -1 -6v-7q0 -14 11 -25 t28 -19q22 -9 56 -14.5t71 -7.5t73 -2.5t63 -0.5h37q19 0 30 -11.5t16.5 -28t7 -33.5t1.5 -29zM664 -182q0 -4 -6.5 -16.5t-16.5 -29.5t-22.5 -36t-24 -34.5t-21.5 -26t-14 -10.5q-3 0 -25.5 14.5t-47.5 33t-45.5 36t-20.5 22.5q0 4 6.5 17t17 30t23 36t24 34.5t20.5 26 t13 10.5q6 0 28.5 -15t47.5 -33.5t44.5 -36t19.5 -22.5z" />
<glyph unicode="&#x62c;" horiz-adv-x="1112" arabic-form="final" d="M1101 -593q0 -5 -22.5 -17.5t-58 -29.5t-79 -35.5t-84.5 -35t-75.5 -28.5t-51.5 -16q-40 -9 -70.5 -10.5t-47.5 -1.5q-104 0 -205.5 26.5t-182 83.5t-130 146.5t-49.5 214.5q0 99 35.5 185.5t94.5 159t134 131t155 101.5q-54 17 -100.5 23t-84.5 6t-67.5 -4.5t-51 -10 t-34.5 -10t-19 -4.5q-2 0 -11 6.5t-9 11.5q0 13 4 34.5t8.5 43.5t8.5 39.5t5 21.5q1 5 21.5 17.5t52 25t70 22.5t76.5 10q69 0 116.5 -7.5t91 -16.5t91 -16.5t117.5 -7.5q16 0 41.5 1t53 2.5t55 2.5t47.5 1q17 0 28 -1.5t11 -3.5t-4.5 -13t-11 -26.5t-14.5 -33.5t-15.5 -33 t-13 -25t-6.5 -10q-10 -2 -27 -4.5t-37 -5.5t-41 -6.5l-39 -6.5q1 -26 11.5 -44.5t43 -30.5t93.5 -17.5t163 -5.5h37q11 0 21 -2t17.5 -12t12 -29.5t4.5 -54.5q0 -63 -16 -85t-39 -22h-117q-76 0 -133.5 2t-103.5 16q-39 11 -60 43t-21 89q0 23 6.5 59t14.5 73 q-120 -31 -224 -81.5t-180 -115.5t-119.5 -143t-43.5 -164q0 -95 45.5 -163t132.5 -112t214 -64.5t290 -20.5q54 0 100 3.5t80.5 8t56.5 8.5t28 4q1 0 3 -5t4 -11.5t3 -12t1 -6.5zM690 -177q0 -4 -6.5 -16.5t-16.5 -29.5t-22.5 -36t-24 -34.5t-21.5 -26t-14 -10.5 q-3 0 -25.5 14.5t-47.5 33t-45.5 36t-20.5 22.5q0 4 6.5 17t17 30t23 36t24 34.5t20.5 26t13 10.5q6 0 28.5 -15t47.5 -33.5t44.5 -36t19.5 -22.5z" />
<glyph unicode="&#x62d;" horiz-adv-x="1120" arabic-form="initial" d="M1038 445q0 -3 -3 -23.5t-7.5 -45.5t-8.5 -47t-6 -28q-1 -3 -27.5 -5.5t-72 -4t-106 -2t-129.5 -0.5q-47 0 -88.5 -15.5t-81.5 -40t-79 -55t-80 -60.5q-33 -24 -69 -45t-76.5 -37.5t-84.5 -26t-92 -9.5h-39q-19 0 -30 11.5t-16.5 28t-7 34t-1.5 29.5t1.5 29t7 33.5 t16.5 28t30 11.5h37q77 0 157 8.5t149 36.5q19 8 40 18.5t42 20.5t42 18.5t40 12.5q-21 8 -54.5 24t-73.5 31.5t-83.5 27t-83.5 11.5q-21 0 -41.5 -6.5t-37 -15t-28 -15t-12.5 -6.5q-2 0 -7 2t-10 4.5t-9.5 5t-4.5 4.5q0 20 7 44.5t19.5 49.5t30.5 47.5t40 37.5q25 17 55 29 t78 12q31 0 72.5 -15t85.5 -35t88 -39.5t79 -27.5q54 -13 117.5 -23t141.5 -14q24 -1 54 -2t57 -1.5t45 -2t18 -2.5z" />
<glyph unicode="&#x62d;" horiz-adv-x="1095" arabic-form="medial" d="M1162 103q0 -12 -1.5 -29.5t-7 -34t-16.5 -28t-30 -11.5h-37q-117 0 -206.5 11t-134.5 42q-59 40 -59 124q0 10 2 24t6 29.5t8.5 31t9.5 27.5h-18q-47 0 -88.5 -15.5t-81.5 -40t-79 -55t-80 -60.5q-33 -24 -69 -45t-76.5 -37.5t-85 -26t-93.5 -9.5h-37q-19 0 -30 11.5 t-16.5 28t-7 34t-1.5 29.5t1.5 29t7 33.5t16.5 28t30 11.5h37q100 0 173.5 10.5t132.5 34.5q18 7 38.5 17.5t42 21t43 19t40.5 12.5q-21 8 -54.5 24t-73.5 31.5t-83.5 27t-83.5 11.5q-21 0 -41.5 -6.5t-37 -15t-28 -15t-12.5 -6.5q-2 0 -7.5 2t-10.5 4.5t-9 5t-4 4.5 q0 20 7 44.5t19.5 49.5t30.5 47.5t40 37.5q25 17 55 29t78 12q31 0 72.5 -15t85.5 -35t88 -39.5t79 -27.5q81 -19 192 -31t230 -12q5 0 7.5 -4.5t2.5 -9.5q0 -2 -3 -20.5t-7 -41t-8 -43.5t-6 -27q-1 -3 -26.5 -6t-62 -4.5t-78.5 -2.5t-77 -1q-1 -2 -1 -6v-7q0 -14 11 -25 t28 -19q22 -9 56 -14.5t71 -7.5t73 -2.5t63 -0.5h37q19 0 30 -11.5t16.5 -28t7 -33.5t1.5 -29z" />
<glyph unicode="&#x62d;" horiz-adv-x="1112" arabic-form="final" d="M1101 -593q0 -5 -22.5 -17.5t-58 -29.5t-79 -35.5t-84.5 -35t-75.5 -28.5t-51.5 -16q-40 -9 -70.5 -10.5t-47.5 -1.5q-104 0 -205.5 26.5t-182 83.5t-130 146.5t-49.5 214.5q0 99 35.5 185.5t94.5 159t134 131t155 101.5q-54 17 -100.5 23t-84.5 6t-67.5 -4.5t-51 -10 t-34.5 -10t-19 -4.5q-2 0 -11 6.5t-9 11.5q0 13 4 34.5t8.5 43.5t8.5 39.5t5 21.5q1 5 21.5 17.5t52 25t70 22.5t76.5 10q69 0 116.5 -7.5t91 -16.5t91 -16.5t117.5 -7.5q16 0 41.5 1t53 2.5t55 2.5t47.5 1q17 0 28 -1.5t11 -3.5t-4.5 -13t-11 -26.5t-14.5 -33.5t-15.5 -33 t-13 -25t-6.5 -10q-10 -2 -27 -4.5t-37 -5.5t-41 -6.5l-39 -6.5q1 -26 11.5 -44.5t43 -30.5t93.5 -17.5t163 -5.5h37q11 0 21 -2t17.5 -12t12 -29.5t4.5 -54.5q0 -63 -16 -85t-39 -22h-117q-76 0 -133.5 2t-103.5 16q-39 11 -60 43t-21 89q0 23 6.5 59t14.5 73 q-120 -31 -224 -81.5t-180 -115.5t-119.5 -143t-43.5 -164q0 -95 45.5 -163t132.5 -112t214 -64.5t290 -20.5q54 0 100 3.5t80.5 8t56.5 8.5t28 4q1 0 3 -5t4 -11.5t3 -12t1 -6.5z" />
<glyph unicode="&#x62e;" horiz-adv-x="1120" arabic-form="initial" d="M1038 445q0 -3 -3 -23.5t-7.5 -45.5t-8.5 -47t-6 -28q-1 -3 -27.5 -5.5t-72 -4t-106 -2t-129.5 -0.5q-47 0 -88.5 -15.5t-81.5 -40t-79 -55t-80 -60.5q-33 -24 -69 -45t-76.5 -37.5t-84.5 -26t-92 -9.5h-39q-19 0 -30 11.5t-16.5 28t-7 34t-1.5 29.5t1.5 29t7 33.5 t16.5 28t30 11.5h37q77 0 157 8.5t149 36.5q19 8 40 18.5t42 20.5t42 18.5t40 12.5q-21 8 -54.5 24t-73.5 31.5t-83.5 27t-83.5 11.5q-21 0 -41.5 -6.5t-37 -15t-28 -15t-12.5 -6.5q-2 0 -7 2t-10 4.5t-9.5 5t-4.5 4.5q0 20 7 44.5t19.5 49.5t30.5 47.5t40 37.5q25 17 55 29 t78 12q31 0 72.5 -15t85.5 -35t88 -39.5t79 -27.5q54 -13 117.5 -23t141.5 -14q24 -1 54 -2t57 -1.5t45 -2t18 -2.5zM654 865q0 -4 -6.5 -16.5t-16.5 -29.5t-22.5 -36t-24 -34.5t-21.5 -26t-14 -10.5q-3 0 -25.5 14.5t-47.5 33t-45.5 36t-20.5 22.5q0 4 6.5 17t17 30t23 36 t24 34.5t20.5 26t13 10.5q6 0 28.5 -15t47.5 -33.5t44.5 -36t19.5 -22.5z" />
<glyph unicode="&#x62e;" horiz-adv-x="1095" arabic-form="medial" d="M1162 103q0 -12 -1.5 -29.5t-7 -34t-16.5 -28t-30 -11.5h-37q-117 0 -206.5 11t-134.5 42q-59 40 -59 124q0 10 2 24t6 29.5t8.5 31t9.5 27.5h-18q-47 0 -88.5 -15.5t-81.5 -40t-79 -55t-80 -60.5q-33 -24 -69 -45t-76.5 -37.5t-85 -26t-93.5 -9.5h-37q-19 0 -30 11.5 t-16.5 28t-7 34t-1.5 29.5t1.5 29t7 33.5t16.5 28t30 11.5h37q100 0 173.5 10.5t132.5 34.5q18 7 38.5 17.5t42 21t43 19t40.5 12.5q-21 8 -54.5 24t-73.5 31.5t-83.5 27t-83.5 11.5q-21 0 -41.5 -6.5t-37 -15t-28 -15t-12.5 -6.5q-2 0 -7.5 2t-10.5 4.5t-9 5t-4 4.5 q0 20 7 44.5t19.5 49.5t30.5 47.5t40 37.5q25 17 55 29t78 12q31 0 72.5 -15t85.5 -35t88 -39.5t79 -27.5q81 -19 192 -31t230 -12q5 0 7.5 -4.5t2.5 -9.5q0 -2 -3 -20.5t-7 -41t-8 -43.5t-6 -27q-1 -3 -26.5 -6t-62 -4.5t-78.5 -2.5t-77 -1q-1 -2 -1 -6v-7q0 -14 11 -25 t28 -19q22 -9 56 -14.5t71 -7.5t73 -2.5t63 -0.5h37q19 0 30 -11.5t16.5 -28t7 -33.5t1.5 -29zM676 840q0 -4 -6.5 -16.5t-16.5 -29.5t-22.5 -36t-24 -34.5t-21.5 -26t-14 -10.5q-3 0 -25.5 14.5t-47.5 33t-45.5 36t-20.5 22.5q0 4 6.5 17t17 30t23 36t24 34.5t20.5 26 t13 10.5q6 0 28.5 -15t47.5 -33.5t44.5 -36t19.5 -22.5z" />
<glyph unicode="&#x62e;" horiz-adv-x="1112" arabic-form="final" d="M1101 -593q0 -5 -22.5 -17.5t-58 -29.5t-79 -35.5t-84.5 -35t-75.5 -28.5t-51.5 -16q-40 -9 -70.5 -10.5t-47.5 -1.5q-104 0 -205.5 26.5t-182 83.5t-130 146.5t-49.5 214.5q0 99 35.5 185.5t94.5 159t134 131t155 101.5q-54 17 -100.5 23t-84.5 6t-67.5 -4.5t-51 -10 t-34.5 -10t-19 -4.5q-2 0 -11 6.5t-9 11.5q0 13 4 34.5t8.5 43.5t8.5 39.5t5 21.5q1 5 21.5 17.5t52 25t70 22.5t76.5 10q69 0 116.5 -7.5t91 -16.5t91 -16.5t117.5 -7.5q16 0 41.5 1t53 2.5t55 2.5t47.5 1q17 0 28 -1.5t11 -3.5t-4.5 -13t-11 -26.5t-14.5 -33.5t-15.5 -33 t-13 -25t-6.5 -10q-10 -2 -27 -4.5t-37 -5.5t-41 -6.5l-39 -6.5q1 -26 11.5 -44.5t43 -30.5t93.5 -17.5t163 -5.5h37q11 0 21 -2t17.5 -12t12 -29.5t4.5 -54.5q0 -63 -16 -85t-39 -22h-117q-76 0 -133.5 2t-103.5 16q-39 11 -60 43t-21 89q0 23 6.5 59t14.5 73 q-120 -31 -224 -81.5t-180 -115.5t-119.5 -143t-43.5 -164q0 -95 45.5 -163t132.5 -112t214 -64.5t290 -20.5q54 0 100 3.5t80.5 8t56.5 8.5t28 4q1 0 3 -5t4 -11.5t3 -12t1 -6.5zM728 763q0 -4 -6.5 -16.5t-16.5 -29.5t-22.5 -36t-24 -34.5t-21.5 -26t-14 -10.5 q-3 0 -25.5 14.5t-47.5 33t-45.5 36t-20.5 22.5q0 4 6.5 17t17 30t23 36t24 34.5t20.5 26t13 10.5q6 0 28.5 -15t47.5 -33.5t44.5 -36t19.5 -22.5z" />
<glyph unicode="&#x62f;" horiz-adv-x="845" arabic-form="final" d="M912 103q0 -12 -1.5 -29.5t-7 -34t-16.5 -28t-30 -11.5h-37q-44 0 -78.5 20t-61.5 55t-47.5 82.5t-36.5 103.5q-10 -42 -37 -87t-59 -77q-42 -40 -109 -63.5t-158 -23.5q-36 0 -67.5 8t-55 22.5t-36.5 35.5t-13 47q0 5 4.5 21t11 38.5t15.5 47t17.5 45t16.5 34t14 13.5 q8 0 14 -13.5t12 -23.5q5 -8 12 -21t20.5 -25t36.5 -21t61 -9q52 0 99 8.5t83 28.5t57.5 53t21.5 82q-5 47 -14 86t-18 69.5t-16 53t-7 35.5q0 9 12 36.5t27 57t28.5 52.5t15.5 23q5 0 15.5 -5t12.5 -22q11 -74 22.5 -153t24 -149.5t26 -125t28.5 -79.5q17 -28 46 -41.5 t60 -13.5h37q19 0 30 -11.5t16.5 -28t7 -33.5t1.5 -29z" />
<glyph unicode="&#x630;" horiz-adv-x="845" arabic-form="final" d="M912 103q0 -12 -1.5 -29.5t-7 -34t-16.5 -28t-30 -11.5h-37q-44 0 -78.5 20t-61.5 55t-47.5 82.5t-36.5 103.5q-10 -42 -37 -87t-59 -77q-42 -40 -109 -63.5t-158 -23.5q-36 0 -67.5 8t-55 22.5t-36.5 35.5t-13 47q0 5 4.5 21t11 38.5t15.5 47t17.5 45t16.5 34t14 13.5 q8 0 14 -13.5t12 -23.5q5 -8 12 -21t20.5 -25t36.5 -21t61 -9q52 0 99 8.5t83 28.5t57.5 53t21.5 82q-5 47 -14 86t-18 69.5t-16 53t-7 35.5q0 9 12 36.5t27 57t28.5 52.5t15.5 23q5 0 15.5 -5t12.5 -22q11 -74 22.5 -153t24 -149.5t26 -125t28.5 -79.5q17 -28 46 -41.5 t60 -13.5h37q19 0 30 -11.5t16.5 -28t7 -33.5t1.5 -29zM650 1038q0 -4 -6.5 -16.5t-16.5 -29.5t-22.5 -36t-24 -34.5t-21.5 -26t-14 -10.5q-3 0 -25.5 14.5t-47.5 33t-45.5 36t-20.5 22.5q0 4 6.5 17t17 30t23 36t24 34.5t20.5 26t13 10.5q6 0 28.5 -15t47.5 -33.5t44.5 -36 t19.5 -22.5z" />
<glyph unicode="&#x631;" horiz-adv-x="647" arabic-form="final" d="M715 103q0 -12 -1.5 -29.5t-7 -34t-16.5 -28t-30 -11.5h-37q-8 0 -24 2t-27 10q-5 -42 -12.5 -91.5t-22 -100t-37 -99t-56.5 -90.5q-19 -23 -47.5 -45t-64 -39.5t-75 -28.5t-79.5 -11q-19 0 -47 6.5t-58.5 16.5t-61.5 21.5t-55.5 22.5t-40 19.5t-15.5 11.5t1 9.5t2.5 13 t4 11.5t4.5 5q3 0 22 -3t61 -3q41 0 90 10.5t99.5 31t99.5 50.5t89 70q66 66 93 108.5t27 54.5q0 4 -8.5 16.5t-21 28.5t-27.5 34.5t-27.5 34.5t-21 27.5t-8.5 15.5q0 1 5.5 13.5t13.5 30t17.5 37.5t18 38.5t14.5 31.5t8 17h26q9 -11 22 -25.5t30 -27.5t39.5 -21.5 t49.5 -8.5h37q19 0 30 -11.5t16.5 -28t7 -33.5t1.5 -29z" />
<glyph unicode="&#x632;" horiz-adv-x="647" arabic-form="final" d="M715 103q0 -12 -1.5 -29.5t-7 -34t-16.5 -28t-30 -11.5h-37q-8 0 -24 2t-27 10q-5 -42 -12.5 -91.5t-22 -100t-37 -99t-56.5 -90.5q-19 -23 -47.5 -45t-64 -39.5t-75 -28.5t-79.5 -11q-19 0 -47 6.5t-58.5 16.5t-61.5 21.5t-55.5 22.5t-40 19.5t-15.5 11.5t1 9.5t2.5 13 t4 11.5t4.5 5q3 0 22 -3t61 -3q41 0 90 10.5t99.5 31t99.5 50.5t89 70q66 66 93 108.5t27 54.5q0 4 -8.5 16.5t-21 28.5t-27.5 34.5t-27.5 34.5t-21 27.5t-8.5 15.5q0 1 5.5 13.5t13.5 30t17.5 37.5t18 38.5t14.5 31.5t8 17h26q9 -11 22 -25.5t30 -27.5t39.5 -21.5 t49.5 -8.5h37q19 0 30 -11.5t16.5 -28t7 -33.5t1.5 -29zM564 543q0 -4 -6.5 -16.5t-16.5 -29.5t-22.5 -36t-24 -34.5t-21.5 -26t-14 -10.5q-3 0 -25.5 14.5t-47.5 33t-45.5 36t-20.5 22.5q0 4 6.5 17t17 30t23 36t24 34.5t20.5 26t13 10.5q6 0 28.5 -15t47.5 -33.5t44.5 -36 t19.5 -22.5z" />
<glyph unicode="&#x633;" horiz-adv-x="1074" arabic-form="initial" d="M971 401q0 -20 -3.5 -52t-12 -68.5t-21.5 -73.5t-32.5 -67t-46 -48.5t-60.5 -18.5q-28 0 -53 11t-46 28.5t-38 40t-29 45.5q-17 -30 -38.5 -64.5t-49 -64t-60.5 -48.5t-73 -19q-31 0 -58.5 11.5t-50 29t-38 39t-22.5 42.5q-38 -57 -92.5 -90.5t-121.5 -33.5h-37 q-19 0 -30 11.5t-16.5 28t-7 34t-1.5 29.5t1.5 29t7 33.5t16.5 28t30 11.5h37q54 0 93.5 10t67 24.5t45.5 32t29.5 32t19 24.5t13.5 10q12 0 18 -10t11 -24.5t10.5 -31.5t16 -31.5t28 -24.5t46.5 -10q49 0 89.5 19.5t69.5 50.5t46 69.5t21 77.5q1 8 5.5 14.5t15.5 6.5 q14 0 22 -25q23 -74 67.5 -110t93.5 -36q22 0 35.5 10.5t13.5 24.5t-12 24.5t-27 18t-27 11.5t-12 6t3 19t8 41.5t12 52.5t14.5 51.5t15 39t14.5 15.5q8 0 21.5 -17.5t26.5 -44.5t22.5 -60t9.5 -64z" />
<glyph unicode="&#x633;" horiz-adv-x="1099" arabic-form="medial" d="M1165 93v-28t-4 -30.5t-13 -24.5t-28 -10h-37q-77 0 -126 46.5t-78 131.5q-27 -72 -61.5 -112.5t-91.5 -40.5q-54 0 -82.5 28.5t-40.5 79.5q-38 -68 -84.5 -99.5t-120.5 -31.5q-24 0 -46.5 6t-43.5 20t-38.5 37.5t-30.5 58.5q-19 -36 -45 -59.5t-55 -38t-58.5 -20.5 t-55.5 -6h-37q-19 0 -30 10t-16.5 24.5t-7 30.5t-1.5 28t1.5 31t7 37t16.5 31t30 13h37q53 0 91 12t64 30t42.5 39.5t27.5 39.5t17.5 30t12.5 12q12 0 17.5 -12t9.5 -29.5t9.5 -38t18 -38t35 -29.5t60.5 -12q41 0 72.5 13.5t55 33.5t40 43t28 43t18.5 33.5t12 13.5 q17 0 22.5 -6t6.5 -21q0 -8 2 -26.5t9.5 -38t22 -34.5t41.5 -15q36 0 60 22.5t39 50t23.5 50t14.5 22.5q28 0 28 -23q0 -17 10 -45t29.5 -54.5t49 -46t69.5 -19.5h37q19 0 28 -13t13 -31t4 -37v-31z" />
<glyph unicode="&#x633;" horiz-adv-x="1550" arabic-form="final" d="M1617 103q0 -24 -1.5 -43t-7 -32.5t-16.5 -20.5t-30 -7h-37q-77 0 -126 46.5t-78 131.5q-27 -72 -61.5 -112.5t-91.5 -40.5q-54 0 -82.5 28.5t-40.5 79.5q-38 -68 -83.5 -100t-115.5 -33q-3 -40 -7.5 -79.5t-12.5 -75.5q-22 -96 -75.5 -162.5t-124.5 -107.5t-154 -59 t-164 -18q-84 0 -138 24.5t-85.5 63.5t-43.5 88t-12 98q0 59 19.5 119t43.5 109t44.5 79.5t23.5 30.5t9 -2.5t12 -6.5t10.5 -7.5t4.5 -5.5q0 -6 -12.5 -25.5t-27.5 -49t-27.5 -66.5t-12.5 -77q0 -30 12 -59.5t39 -53t70 -38t104 -14.5q135 0 233 18.5t149 65.5q50 47 50 121 q0 47 -10.5 84.5t-23 65t-23 45t-10.5 25.5q0 4 7 20.5t17 38.5t22.5 47.5t24 46.5t19.5 35t11 14q10 -7 19 -24t16.5 -36.5t13 -38t8.5 -29.5q43 0 75.5 13.5t57 34.5t42 44.5t29 44.5t18.5 34.5t12 13.5q18 0 23 -6t6 -21q0 -8 2 -26.5t9.5 -38t22 -34.5t41.5 -15 q36 0 60 22.5t39 50t23.5 50t14.5 22.5q28 0 28 -23q0 -17 10 -45t29.5 -54.5t49 -46t69.5 -19.5h37q19 0 30 -4.5t16.5 -16t7 -31.5t1.5 -50z" />
<glyph unicode="&#x634;" horiz-adv-x="1074" arabic-form="initial" d="M971 401q0 -20 -3.5 -52t-12 -68.5t-21.5 -73.5t-32.5 -67t-46 -48.5t-60.5 -18.5q-28 0 -53 11t-46 28.5t-38 40t-29 45.5q-17 -30 -38.5 -64.5t-49 -64t-60.5 -48.5t-73 -19q-31 0 -58.5 11.5t-50 29t-38 39t-22.5 42.5q-38 -57 -92.5 -90.5t-121.5 -33.5h-37 q-19 0 -30 11.5t-16.5 28t-7 34t-1.5 29.5t1.5 29t7 33.5t16.5 28t30 11.5h37q54 0 93.5 10t67 24.5t45.5 32t29.5 32t19 24.5t13.5 10q12 0 18 -10t11 -24.5t10.5 -31.5t16 -31.5t28 -24.5t46.5 -10q49 0 89.5 19.5t69.5 50.5t46 69.5t21 77.5q1 8 5.5 14.5t15.5 6.5 q14 0 22 -25q23 -74 67.5 -110t93.5 -36q22 0 35.5 10.5t13.5 24.5t-12 24.5t-27 18t-27 11.5t-12 6t3 19t8 41.5t12 52.5t14.5 51.5t15 39t14.5 15.5q8 0 21.5 -17.5t26.5 -44.5t22.5 -60t9.5 -64zM383 935q0 6 13 29.5t30 49.5t33.5 46.5t22.5 20.5q2 0 13 -6.5 t25.5 -16.5t31 -22.5t30.5 -23.5t23 -20t9 -12q0 -4 -6.5 -16t-16 -28.5t-21.5 -34.5t-23 -32.5t-19.5 -24.5t-11.5 -10q-6 0 -27.5 14t-45 32t-42 34t-18.5 21zM426 572q-6 0 -27 14t-44 32t-41 34t-18 20q0 6 13 29t29.5 48.5t32 46t20.5 20.5q3 0 23 -14.5t43 -31.5 l60 -46q7 -5 13 -5q3 0 8 8q23 31 41 57q16 22 31 40t20 18q2 0 12.5 -6.5t25.5 -17t31 -22.5t30 -23t23 -19.5t9 -11.5q0 -4 -6.5 -16t-16.5 -28.5t-21.5 -34.5t-22.5 -32.5t-19 -24.5t-10 -10q-8 0 -27.5 14t-41.5 31q-26 20 -55 46q-6 7 -11 7q-6 0 -13 -10l-42 -56 q-17 -21 -31 -38.5t-18 -17.5z" />
<glyph unicode="&#x634;" horiz-adv-x="1099" arabic-form="medial" d="M1165 93v-28t-4 -30.5t-13 -24.5t-28 -10h-37q-77 0 -126 46.5t-78 131.5q-27 -72 -61.5 -112.5t-91.5 -40.5q-54 0 -82.5 28.5t-40.5 79.5q-38 -68 -84.5 -99.5t-120.5 -31.5q-24 0 -46.5 6t-43.5 20t-38.5 37.5t-30.5 58.5q-19 -36 -45 -59.5t-55 -38t-58.5 -20.5 t-55.5 -6h-37q-19 0 -30 10t-16.5 24.5t-7 30.5t-1.5 28t1.5 31t7 37t16.5 31t30 13h37q53 0 91 12t64 30t42.5 39.5t27.5 39.5t17.5 30t12.5 12q12 0 17.5 -12t9.5 -29.5t9.5 -38t18 -38t35 -29.5t60.5 -12q41 0 72.5 13.5t55 33.5t40 43t28 43t18.5 33.5t12 13.5 q17 0 22.5 -6t6.5 -21q0 -8 2 -26.5t9.5 -38t22 -34.5t41.5 -15q36 0 60 22.5t39 50t23.5 50t14.5 22.5q28 0 28 -23q0 -17 10 -45t29.5 -54.5t49 -46t69.5 -19.5h37q19 0 28 -13t13 -31t4 -37v-31zM428 847q0 6 13 29.5t30 49.5t33.5 46.5t22.5 20.5q2 0 13 -6.5 t25.5 -16.5t31 -22.5t30.5 -23.5t23 -20t9 -12q0 -4 -6.5 -16t-16 -28.5t-21.5 -34.5t-23 -32.5t-19.5 -24.5t-11.5 -10q-6 0 -27.5 14t-45 32t-42 34t-18.5 21zM471 484q-6 0 -27 14t-44 32t-41 34t-18 20q0 6 13 29t29.5 48.5t32 46t20.5 20.5q3 0 23 -14.5t43 -31.5 l60 -46q7 -5 13 -5q3 0 8 8q23 31 41 57q16 22 31 40t20 18q2 0 12.5 -6.5t25.5 -17t31 -22.5t30 -23t23 -19.5t9 -11.5q0 -4 -6.5 -16t-16.5 -28.5t-21.5 -34.5t-22.5 -32.5t-19 -24.5t-10 -10q-8 0 -27.5 14t-41.5 31q-26 20 -55 46q-6 7 -11 7q-6 0 -13 -10l-42 -56 q-17 -21 -31 -38.5t-18 -17.5z" />
<glyph unicode="&#x634;" horiz-adv-x="1550" arabic-form="final" d="M1617 103q0 -24 -1.5 -43t-7 -32.5t-16.5 -20.5t-30 -7h-37q-77 0 -126 46.5t-78 131.5q-27 -72 -61.5 -112.5t-91.5 -40.5q-54 0 -82.5 28.5t-40.5 79.5q-38 -68 -83.5 -100t-115.5 -33q-3 -40 -7.5 -79.5t-12.5 -75.5q-22 -96 -75.5 -162.5t-124.5 -107.5t-154 -59 t-164 -18q-84 0 -138 24.5t-85.5 63.5t-43.5 88t-12 98q0 59 19.5 119t43.5 109t44.5 79.5t23.5 30.5t9 -2.5t12 -6.5t10.5 -7.5t4.5 -5.5q0 -6 -12.5 -25.5t-27.5 -49t-27.5 -66.5t-12.5 -77q0 -30 12 -59.5t39 -53t70 -38t104 -14.5q135 0 233 18.5t149 65.5q50 47 50 121 q0 47 -10.5 84.5t-23 65t-23 45t-10.5 25.5q0 4 7 20.5t17 38.5t22.5 47.5t24 46.5t19.5 35t11 14q10 -7 19 -24t16.5 -36.5t13 -38t8.5 -29.5q43 0 75.5 13.5t57 34.5t42 44.5t29 44.5t18.5 34.5t12 13.5q18 0 23 -6t6 -21q0 -8 2 -26.5t9.5 -38t22 -34.5t41.5 -15 q36 0 60 22.5t39 50t23.5 50t14.5 22.5q28 0 28 -23q0 -17 10 -45t29.5 -54.5t49 -46t69.5 -19.5h37q19 0 30 -4.5t16.5 -16t7 -31.5t1.5 -50zM932 883q0 6 13 29.5t30 49.5t33.5 46.5t22.5 20.5q2 0 13 -6.5t25.5 -16.5t31 -22.5t30.5 -23.5t23 -20t9 -12q0 -4 -6.5 -16 t-16 -28.5t-21.5 -34.5t-23 -32.5t-19.5 -24.5t-11.5 -10q-6 0 -27.5 14t-45 32t-42 34t-18.5 21zM975 520q-6 0 -27 14t-44 32t-41 34t-18 20q0 6 13 29t29.5 48.5t32 46t20.5 20.5q3 0 23 -14.5t43 -31.5l60 -46q7 -5 13 -5q3 0 8 8q23 31 41 57q16 22 31 40t20 18 q2 0 12.5 -6.5t25.5 -17t31 -22.5t30 -23t23 -19.5t9 -11.5q0 -4 -6.5 -16t-16.5 -28.5t-21.5 -34.5t-22.5 -32.5t-19 -24.5t-10 -10q-8 0 -27.5 14t-41.5 31q-26 20 -55 46q-6 7 -11 7q-6 0 -13 -10l-42 -56q-17 -21 -31 -38.5t-18 -17.5z" />
<glyph unicode="&#x635;" horiz-adv-x="1287" arabic-form="initial" d="M1185 452q0 -92 -37 -161t-96.5 -119t-134.5 -83t-149.5 -52.5t-142.5 -27.5t-114 -9q-5 -9 -12.5 -30t-15 -45.5t-13.5 -47.5t-7 -36q-3 0 -12 9.5t-18 22t-16.5 24.5t-7.5 17q0 4 2 14t5 22t6.5 25t7.5 25q-77 0 -136.5 25t-96.5 82q-14 -22 -30 -41.5t-36 -34t-46 -23 t-60 -8.5h-37q-19 0 -30 7.5t-16.5 21t-7 32.5t-1.5 42q0 26 1.5 45.5t7 32t16.5 18.5t30 6h37q64 0 105 21t66 46.5t37 46.5t17 21q9 0 13.5 -6t6.5 -15.5t3 -21t3 -22.5q5 -25 26.5 -39t50 -21t59.5 -8.5t55 -1.5h40q24 44 56.5 92.5t72.5 95.5t85.5 89t96 74t104 51 t108.5 19q43 0 72.5 -18.5t48 -45t26.5 -56.5t8 -54zM1081 359q0 6 -9.5 15t-28 18t-44.5 15.5t-59 6.5q-42 0 -91 -14.5t-96 -41.5t-87.5 -65.5t-65.5 -85.5q54 1 110.5 9.5t110 22t101 30t83 33.5t56 32t20.5 25z" />
<glyph unicode="&#x635;" horiz-adv-x="1254" arabic-form="medial" d="M1310 103q0 -12 -1.5 -29.5t-7 -34t-16.5 -28t-30 -11.5h-37q-117 0 -237 0.5t-240 0.5h-121.5t-119.5 -1q-10 -20 -18 -47.5t-14.5 -52t-11 -42t-5.5 -17.5q-8 0 -17.5 7t-17.5 18t-13.5 23.5t-5.5 24.5q0 9 5.5 35t14.5 52q-77 0 -135.5 24.5t-95.5 81.5 q-14 -22 -30 -41.5t-36 -34t-46 -23t-60 -8.5h-37q-19 0 -30 11.5t-16.5 28t-7 34t-1.5 29.5t1.5 29t7 33.5t16.5 28t30 11.5h37q64 0 105 21t66 46.5t37 46.5t17 21q9 0 13.5 -7t6.5 -16.5t3 -21t3 -20.5q5 -25 26.5 -39t50 -21t59.5 -8.5t55 -1.5h39q24 44 57.5 93.5 t74.5 97.5t88 91.5t98 76.5t105.5 52.5t109.5 19.5q40 0 67.5 -20t44.5 -49t25 -60.5t8 -54.5q0 -37 -7 -73.5t-22.5 -70.5t-41 -63.5t-62.5 -51.5q41 4 65 6t41 3.5t32.5 2t39.5 0.5h37q19 0 30 -11.5t16.5 -28t7 -33.5t1.5 -29zM1069 359q0 15 -19.5 25.5t-44 17 t-47.5 9.5t-30 3q-103 0 -192.5 -49t-147.5 -160q54 1 110.5 10t110 23t101 30.5t83 33.5t56 32t20.5 25z" />
<glyph unicode="&#x635;" horiz-adv-x="1769" arabic-form="final" d="M1837 103q0 -12 -1.5 -29.5t-7 -34t-16.5 -28t-30 -11.5h-37q-58 0 -124.5 1t-133 4t-128.5 7.5t-111 12.5q-51 -3 -106 -7.5t-113 -5.5q-9 -24 -17.5 -54t-15.5 -56t-12 -43.5t-6 -17.5q-8 0 -17.5 7t-17.5 18t-13.5 23.5t-5.5 24.5q0 4 2 15t5 25t7.5 29t9.5 28 q-14 0 -33 1.5t-29 6.5q-1 -30 -1.5 -50t-2 -37t-4 -35.5t-8.5 -44.5q-20 -97 -65.5 -167t-110.5 -115t-146.5 -66.5t-173.5 -21.5q-87 0 -152 24t-108 63.5t-64 90t-21 104.5q0 49 11 96t27.5 88.5t36 76t36.5 59.5t29.5 39t14.5 14q8 0 18.5 -11t10.5 -18 q0 -5 -14.5 -24.5t-32.5 -51t-32.5 -74t-14.5 -93.5q0 -56 26.5 -92t70 -57.5t99 -30t112.5 -8.5q45 0 93 6t92 17.5t79.5 27.5t55.5 36q23 24 39.5 72t16.5 106q0 45 -13.5 79t-29.5 57.5t-29.5 37t-13.5 16.5q0 4 6 19t15 35t20 43t20.5 42t17 31.5t10.5 12.5q6 -9 13 -22 t14 -27.5t12.5 -28.5t8.5 -25q9 -2 27.5 -3t41.5 -2t48.5 -1.5t50.5 -0.5q24 44 56.5 92.5t72.5 95.5t85.5 89t96 74t104 51t108.5 19q40 0 69 -18.5t48 -45.5t28.5 -57t9.5 -53q0 -37 -7 -73.5t-22.5 -70.5t-41 -63.5t-62.5 -51.5q41 4 65 6t41 3.5t32.5 2t39.5 0.5h37 q19 0 30 -11.5t16.5 -28t7 -33.5t1.5 -29zM1596 359q0 9 -14 19t-35 18t-45.5 13t-46.5 5q-42 0 -91 -14.5t-96 -41.5t-87.5 -65.5t-65.5 -85.5q54 1 110.5 9.5t110 22t101 30t83 33.5t56 32t20.5 25z" />
<glyph unicode="&#x636;" horiz-adv-x="1287" arabic-form="initial" d="M1185 452q0 -92 -37 -161t-96.5 -119t-134.5 -83t-149.5 -52.5t-142.5 -27.5t-114 -9q-5 -9 -12.5 -30t-15 -45.5t-13.5 -47.5t-7 -36q-3 0 -12 9.5t-18 22t-16.5 24.5t-7.5 17q0 4 2 14t5 22t6.5 25t7.5 25q-77 0 -136.5 25t-96.5 82q-14 -22 -30 -41.5t-36 -34t-46 -23 t-60 -8.5h-37q-19 0 -30 7.5t-16.5 21t-7 32.5t-1.5 42q0 26 1.5 45.5t7 32t16.5 18.5t30 6h37q64 0 105 21t66 46.5t37 46.5t17 21q9 0 13.5 -6t6.5 -15.5t3 -21t3 -22.5q5 -25 26.5 -39t50 -21t59.5 -8.5t55 -1.5h40q24 44 56.5 92.5t72.5 95.5t85.5 89t96 74t104 51 t108.5 19q43 0 72.5 -18.5t48 -45t26.5 -56.5t8 -54zM1081 359q0 6 -9.5 15t-28 18t-44.5 15.5t-59 6.5q-42 0 -91 -14.5t-96 -41.5t-87.5 -65.5t-65.5 -85.5q54 1 110.5 9.5t110 22t101 30t83 33.5t56 32t20.5 25zM746 724q0 -4 -6.5 -16.5t-16.5 -29.5t-22.5 -36 t-24 -34.5t-21.5 -26t-14 -10.5q-3 0 -25.5 14.5t-47.5 33t-45.5 36t-20.5 22.5q0 4 6.5 17t17 30t23 36t24 34.5t20.5 26t13 10.5q6 0 28.5 -15t47.5 -33.5t44.5 -36t19.5 -22.5z" />
<glyph unicode="&#x636;" horiz-adv-x="1254" arabic-form="medial" d="M1321 103q0 -12 -1.5 -29.5t-7 -34t-16.5 -28t-30 -11.5h-37q-117 0 -237 0.5t-240 0.5h-121.5t-119.5 -1q-10 -20 -18 -47.5t-14.5 -52t-11 -42t-5.5 -17.5q-8 0 -17.5 7t-17.5 18t-13.5 23.5t-5.5 24.5q0 9 5.5 35t14.5 52q-77 0 -135.5 24.5t-95.5 81.5 q-14 -22 -30 -41.5t-36 -34t-46 -23t-60 -8.5h-37q-19 0 -30 11.5t-16.5 28t-7 34t-1.5 29.5t1.5 29t7 33.5t16.5 28t30 11.5h37q64 0 105 21t66 46.5t37 46.5t17 21q9 0 13.5 -7t6.5 -16.5t3 -21t3 -20.5q5 -25 26.5 -39t50 -21t59.5 -8.5t55 -1.5h39q24 44 57.5 93.5 t74.5 97.5t88 91.5t98 76.5t105.5 52.5t109.5 19.5q40 0 67.5 -20t44.5 -49t25 -60.5t8 -54.5q0 -37 -7 -73.5t-22.5 -70.5t-41 -63.5t-62.5 -51.5q41 4 65 6t41 3.5t32.5 2t39.5 0.5h37q19 0 30 -11.5t16.5 -28t7 -33.5t1.5 -29zM1080 359q0 15 -19.5 25.5t-44 17 t-47.5 9.5t-30 3q-103 0 -192.5 -49t-147.5 -160q54 1 110.5 10t110 23t101 30.5t83 33.5t56 32t20.5 25zM750 788q0 -4 -6.5 -16.5t-16.5 -29.5t-22.5 -36t-24 -34.5t-21.5 -26t-14 -10.5q-3 0 -25.5 14.5t-47.5 33t-45.5 36t-20.5 22.5q0 4 6.5 17t17 30t23 36t24 34.5 t20.5 26t13 10.5q6 0 28.5 -15t47.5 -33.5t44.5 -36t19.5 -22.5z" />
<glyph unicode="&#x636;" horiz-adv-x="1769" arabic-form="final" d="M1837 103q0 -12 -1.5 -29.5t-7 -34t-16.5 -28t-30 -11.5h-37q-58 0 -124.5 1t-133 4t-128.5 7.5t-111 12.5q-51 -3 -106 -7.5t-113 -5.5q-9 -24 -17.5 -54t-15.5 -56t-12 -43.5t-6 -17.5q-8 0 -17.5 7t-17.5 18t-13.5 23.5t-5.5 24.5q0 4 2 15t5 25t7.5 29t9.5 28 q-14 0 -33 1.5t-29 6.5q-1 -30 -1.5 -50t-2 -37t-4 -35.5t-8.5 -44.5q-20 -97 -65.5 -167t-110.5 -115t-146.5 -66.5t-173.5 -21.5q-87 0 -152 24t-108 63.5t-64 90t-21 104.5q0 49 11 96t27.5 88.5t36 76t36.5 59.5t29.5 39t14.5 14q8 0 18.5 -11t10.5 -18 q0 -5 -14.5 -24.5t-32.5 -51t-32.5 -74t-14.5 -93.5q0 -56 26.5 -92t70 -57.5t99 -30t112.5 -8.5q45 0 93 6t92 17.5t79.5 27.5t55.5 36q23 24 39.5 72t16.5 106q0 45 -13.5 79t-29.5 57.5t-29.5 37t-13.5 16.5q0 4 6 19t15 35t20 43t20.5 42t17 31.5t10.5 12.5q6 -9 13 -22 t14 -27.5t12.5 -28.5t8.5 -25q9 -2 27.5 -3t41.5 -2t48.5 -1.5t50.5 -0.5q24 44 56.5 92.5t72.5 95.5t85.5 89t96 74t104 51t108.5 19q40 0 69 -18.5t48 -45.5t28.5 -57t9.5 -53q0 -37 -7 -73.5t-22.5 -70.5t-41 -63.5t-62.5 -51.5q41 4 65 6t41 3.5t32.5 2t39.5 0.5h37 q19 0 30 -11.5t16.5 -28t7 -33.5t1.5 -29zM1596 359q0 9 -14 19t-35 18t-45.5 13t-46.5 5q-42 0 -91 -14.5t-96 -41.5t-87.5 -65.5t-65.5 -85.5q54 1 110.5 9.5t110 22t101 30t83 33.5t56 32t20.5 25zM1212 750q0 -4 -6.5 -16.5t-16.5 -29.5t-22.5 -36t-24 -34.5t-21.5 -26 t-14 -10.5q-3 0 -25.5 14.5t-47.5 33t-45.5 36t-20.5 22.5q0 4 6.5 17t17 30t23 36t24 34.5t20.5 26t13 10.5q6 0 28.5 -15t47.5 -33.5t44.5 -36t19.5 -22.5z" />
<glyph unicode="&#x637;" horiz-adv-x="909" arabic-form="initial" d="M841 452q0 -29 -6.5 -68.5t-26 -82.5t-55.5 -86t-96 -78q-67 -39 -146 -65.5t-162 -42.5t-166 -22.5t-158 -6.5h-37q-19 0 -30 11.5t-16.5 28t-7 34t-1.5 29.5t1.5 29t7 33.5t16.5 28t30 11.5h37q23 0 43.5 2.5t41.5 11.5q32 14 62 45q9 31 14 63.5t5 80.5 q0 61 -12.5 129t-27.5 133.5t-27.5 124.5t-12.5 101q0 22 11.5 50.5t27 53.5t30.5 42t22 17q2 0 11.5 -12.5t21.5 -31t25.5 -40t25 -41t19 -33t7.5 -15.5q0 -3 -9 -9.5t-19.5 -19.5t-19.5 -34t-9 -52q0 -18 4.5 -53t10.5 -73.5t10.5 -73.5t4.5 -53v-35.5t-1 -44.5t-2 -45 t-4 -35q72 77 130 128.5t107 82.5t91 44t80 13q43 0 72.5 -18.5t48 -45t26.5 -56.5t8 -54zM737 359q0 6 -9.5 15t-28 18t-44.5 15.5t-59 6.5q-41 0 -90 -14.5t-96.5 -41.5t-88.5 -65.5t-66 -86.5q54 1 110.5 10t110.5 22.5t101 30t83 33.5t56.5 32t20.5 25z" />
<glyph unicode="&#x637;" horiz-adv-x="1041" arabic-form="medial" d="M1108 103q0 -12 -1.5 -29.5t-7 -34t-16.5 -28t-30 -11.5h-845q-5 -9 -12.5 -30t-15 -45.5t-13.5 -47.5t-7 -36q-3 1 -12 10.5t-18 21.5t-16.5 24t-7.5 17q0 4 2 14t5 22.5t7 25.5t7 24h-139q-19 0 -30 11.5t-16.5 28t-7 34t-1.5 29.5t1.5 29t7 33.5t16.5 28t30 11.5h37 q71 0 111.5 4t57.5 13q38 20 44 61q3 19 5 33t2.5 27.5t1 28.5t0.5 36q0 40 -1.5 64.5t-5.5 45.5t-9.5 45t-13.5 64q-9 43 -17.5 79.5t-16 68.5t-12 61.5t-4.5 59.5q0 18 11.5 45.5t26.5 53t30 44t23 18.5l110 -171q-8 -6 -18 -16t-18.5 -24t-14.5 -32.5t-6 -42.5 q0 -18 4.5 -53t10.5 -73.5t10.5 -73.5t4.5 -53q0 -15 -0.5 -35.5t-1.5 -42.5t-2.5 -43t-2.5 -39q72 77 130 128.5t107 82.5t91 44t80 13q36 0 64.5 -15.5t48.5 -40.5t31 -56t11 -62q0 -32 -6.5 -67.5t-20.5 -71t-37.5 -68.5t-56.5 -59q34 4 63.5 7.5t55.5 6t50.5 4t49.5 1.5 h58q19 0 30 -11.5t16.5 -28t7 -33.5t1.5 -29zM793 359q0 6 -10 15.5t-28.5 18t-44.5 15t-58 6.5q-44 0 -92.5 -15t-96 -42.5t-91 -66t-77.5 -85.5q59 1 119 10t115 22.5t103.5 30.5t84 33.5t56 31.5t20.5 26z" />
<glyph unicode="&#x637;" horiz-adv-x="1300" arabic-form="final" d="M1369 103q0 -52 -9 -77.5t-46 -25.5h-982q-35 0 -64 3t-46 9q-5 1 -21 13.5t-37.5 31t-45 40.5t-43.5 42.5t-33 37t-13 24.5q0 5 5.5 11.5t14.5 6.5q26 0 60 -2t69.5 -5t69.5 -5t61 -2q34 0 59 2t45.5 8.5t38.5 18t36 30.5q6 15 9.5 36t6 41.5t3 38.5t0.5 28 q0 12 -2.5 38t-7 57.5t-10 64t-10.5 59.5q-9 43 -17.5 79.5t-16 68.5t-12 61.5t-4.5 59.5q0 22 11.5 49.5t27 50.5t30.5 39t22 16q2 0 11.5 -11.5t21.5 -29.5t25.5 -38.5t25 -39t19 -31.5t7.5 -15q-8 -6 -18 -16t-18.5 -24t-14.5 -32.5t-6 -42.5q0 -18 4.5 -53t10.5 -73.5 t10.5 -73.5t4.5 -53q0 -13 -0.5 -33t-1.5 -42.5t-2.5 -44.5t-2.5 -40q72 77 130 128.5t107 82.5t91 44t80 13q36 0 64.5 -15.5t48.5 -40.5t31 -56t11 -62q0 -32 -6.5 -67.5t-20.5 -71t-37.5 -68.5t-56.5 -59q68 8 126 13.5t93 5.5h59q37 0 46 -23.5t9 -78.5zM1053 359 q0 6 -9.5 15t-28 18t-44.5 15.5t-59 6.5q-41 0 -90 -14.5t-96.5 -41.5t-88.5 -65.5t-66 -86.5q54 1 110.5 10t110.5 22.5t101 30t83 33.5t56.5 32t20.5 25z" />
<glyph unicode="&#x638;" horiz-adv-x="909" arabic-form="initial" d="M841 452q0 -29 -6.5 -68.5t-26 -82.5t-55.5 -86t-96 -78q-67 -39 -146 -65.5t-162 -42.5t-166 -22.5t-158 -6.5h-37q-19 0 -30 11.5t-16.5 28t-7 34t-1.5 29.5t1.5 29t7 33.5t16.5 28t30 11.5h37q23 0 43.5 2.5t41.5 11.5q32 14 62 45q9 31 14 63.5t5 80.5 q0 61 -12.5 129t-27.5 133.5t-27.5 124.5t-12.5 101q0 22 11.5 50.5t27 53.5t30.5 42t22 17q2 0 11.5 -12.5t21.5 -31t25.5 -40t25 -41t19 -33t7.5 -15.5q0 -3 -9 -9.5t-19.5 -19.5t-19.5 -34t-9 -52q0 -18 4.5 -53t10.5 -73.5t10.5 -73.5t4.5 -53v-35.5t-1 -44.5t-2 -45 t-4 -35q72 77 130 128.5t107 82.5t91 44t80 13q43 0 72.5 -18.5t48 -45t26.5 -56.5t8 -54zM737 359q0 6 -9.5 15t-28 18t-44.5 15.5t-59 6.5q-41 0 -90 -14.5t-96.5 -41.5t-88.5 -65.5t-66 -86.5q54 1 110.5 10t110.5 22.5t101 30t83 33.5t56.5 32t20.5 25zM666 854 q0 -4 -6.5 -16.5t-16.5 -29.5t-22.5 -36t-24 -34.5t-21.5 -26t-14 -10.5q-3 0 -25.5 14.5t-47.5 33t-45.5 36t-20.5 22.5q0 4 6.5 17t17 30t23 36t24 34.5t20.5 26t13 10.5q6 0 28.5 -15t47.5 -33.5t44.5 -36t19.5 -22.5z" />
<glyph unicode="&#x638;" horiz-adv-x="1041" arabic-form="medial" d="M1108 103q0 -12 -1.5 -29.5t-7 -34t-16.5 -28t-30 -11.5h-845q-5 -9 -12.5 -30t-15 -45.5t-13.5 -47.5t-7 -36q-3 1 -12 10.5t-18 21.5t-16.5 24t-7.5 17q0 4 2 14t5 22.5t7 25.5t7 24h-139q-19 0 -30 11.5t-16.5 28t-7 34t-1.5 29.5t1.5 29t7 33.5t16.5 28t30 11.5h37 q71 0 111.5 4t57.5 13q38 20 44 61q3 19 5 33t2.5 27.5t1 28.5t0.5 36q0 40 -1.5 64.5t-5.5 45.5t-9.5 45t-13.5 64q-9 43 -17.5 79.5t-16 68.5t-12 61.5t-4.5 59.5q0 18 11.5 45.5t26.5 53t30 44t23 18.5l110 -171q-8 -6 -18 -16t-18.5 -24t-14.5 -32.5t-6 -42.5 q0 -18 4.5 -53t10.5 -73.5t10.5 -73.5t4.5 -53q0 -15 -0.5 -35.5t-1.5 -42.5t-2.5 -43t-2.5 -39q72 77 130 128.5t107 82.5t91 44t80 13q36 0 64.5 -15.5t48.5 -40.5t31 -56t11 -62q0 -32 -6.5 -67.5t-20.5 -71t-37.5 -68.5t-56.5 -59q34 4 63.5 7.5t55.5 6t50.5 4t49.5 1.5 h58q19 0 30 -11.5t16.5 -28t7 -33.5t1.5 -29zM793 359q0 6 -10 15.5t-28.5 18t-44.5 15t-58 6.5q-44 0 -92.5 -15t-96 -42.5t-91 -66t-77.5 -85.5q59 1 119 10t115 22.5t103.5 30.5t84 33.5t56 31.5t20.5 26zM684 838q0 -4 -6.5 -16.5t-16.5 -29.5t-22.5 -36t-24 -34.5 t-21.5 -26t-14 -10.5q-3 0 -25.5 14.5t-47.5 33t-45.5 36t-20.5 22.5q0 4 6.5 17t17 30t23 36t24 34.5t20.5 26t13 10.5q6 0 28.5 -15t47.5 -33.5t44.5 -36t19.5 -22.5z" />
<glyph unicode="&#x638;" horiz-adv-x="1300" arabic-form="final" d="M1369 103q0 -52 -9 -77.5t-46 -25.5h-982q-35 0 -64 3t-46 9q-5 1 -21 13.5t-37.5 31t-45 40.5t-43.5 42.5t-33 37t-13 24.5q0 5 5.5 11.5t14.5 6.5q26 0 60 -2t69.5 -5t69.5 -5t61 -2q34 0 59 2t45.5 8.5t38.5 18t36 30.5q6 15 9.5 36t6 41.5t3 38.5t0.5 28 q0 12 -2.5 38t-7 57.5t-10 64t-10.5 59.5q-9 43 -17.5 79.5t-16 68.5t-12 61.5t-4.5 59.5q0 22 11.5 49.5t27 50.5t30.5 39t22 16q2 0 11.5 -11.5t21.5 -29.5t25.5 -38.5t25 -39t19 -31.5t7.5 -15q-8 -6 -18 -16t-18.5 -24t-14.5 -32.5t-6 -42.5q0 -18 4.5 -53t10.5 -73.5 t10.5 -73.5t4.5 -53q0 -13 -0.5 -33t-1.5 -42.5t-2.5 -44.5t-2.5 -40q72 77 130 128.5t107 82.5t91 44t80 13q36 0 64.5 -15.5t48.5 -40.5t31 -56t11 -62q0 -32 -6.5 -67.5t-20.5 -71t-37.5 -68.5t-56.5 -59q68 8 126 13.5t93 5.5h59q37 0 46 -23.5t9 -78.5zM1053 359 q0 6 -9.5 15t-28 18t-44.5 15.5t-59 6.5q-41 0 -90 -14.5t-96.5 -41.5t-88.5 -65.5t-66 -86.5q54 1 110.5 10t110.5 22.5t101 30t83 33.5t56.5 32t20.5 25zM955 828q0 -4 -6.5 -16.5t-16.5 -29.5t-22.5 -36t-24 -34.5t-21.5 -26t-14 -10.5q-3 0 -25.5 14.5t-47.5 33 t-45.5 36t-20.5 22.5q0 4 6.5 17t17 30t23 36t24 34.5t20.5 26t13 10.5q6 0 28.5 -15t47.5 -33.5t44.5 -36t19.5 -22.5z" />
<glyph unicode="&#x639;" horiz-adv-x="845" arabic-form="initial" d="M782 471q0 -2 -0.5 -9t-1.5 -17t-3 -22l-4 -24q-2 -8 -5.5 -26.5t-9 -38t-11.5 -35.5t-12 -18q-27 -11 -72.5 -31t-96 -43t-100.5 -45.5t-86 -38.5q-44 -19 -90 -40.5t-92 -40t-89.5 -30.5t-83.5 -12h-37q-19 0 -30 11.5t-16.5 28t-7 34t-1.5 29.5t1.5 29t7 33.5t16.5 28 t30 11.5h37q38 0 75.5 5.5t77.5 25.5q-13 11 -29 25t-29.5 32.5t-23 41.5t-9.5 51q0 37 23.5 86t59 97.5t76 90t74.5 63.5q35 23 69 34t60 11q24 0 49.5 -11.5t50.5 -29t47.5 -39t39.5 -42t27 -37t10 -24.5q0 -6 -5 -14t-10 -8q-3 0 -18.5 7.5t-37 16t-45.5 16t-43 7.5 q-42 0 -91 -10.5t-93 -25.5q-49 -17 -81.5 -36.5t-32.5 -38.5q0 -13 22.5 -39t55 -52.5t69 -46t64.5 -19.5q25 0 58.5 10t70 25.5t72.5 33t66.5 33t52.5 25.5t29 10q6 0 6 -8z" />
<glyph unicode="&#x639;" horiz-adv-x="668" arabic-form="medial" d="M735 103q0 -12 -1.5 -29.5t-7 -34t-16.5 -28t-30 -11.5h-37q-38 0 -73.5 15t-67.5 38t-59.5 50.5t-48.5 53.5t-36 46.5t-21 28.5q-18 -26 -49 -65.5t-72 -76.5t-90 -63.5t-101 -26.5h-37q-19 0 -30 11.5t-16.5 28t-7 34t-1.5 29.5t1.5 29t7 33.5t16.5 28t30 11.5h37 q28 0 58 3.5t59.5 12t57.5 22.5t53 36q-34 17 -64 31t-52 25t-34.5 18t-12.5 11q0 8 4 26t14.5 39.5t28 44.5t45 42t65.5 31t89 12q52 0 94 -15.5t72 -39t46.5 -51.5t16.5 -53q0 -21 -12 -41.5t-31.5 -37.5t-43 -29t-47.5 -15q14 -16 37 -29t51 -22.5t60 -15t64 -5.5h37 q19 0 30 -11.5t16.5 -28t7 -33.5t1.5 -29z" />
<glyph unicode="&#x639;" horiz-adv-x="921" arabic-form="final" d="M1103 -583q0 -6 -25.5 -21t-67.5 -34t-94.5 -40t-107 -38.5t-105.5 -29t-89 -11.5q-104 0 -205.5 25t-182.5 80.5t-131 143t-50 212.5q0 81 24.5 158.5t65 149.5t94 138t112.5 123q-24 17 -52 31.5t-53 26.5t-41.5 20.5t-16.5 13.5q0 22 14.5 55t44.5 64t76 53t110 22 q60 0 103.5 -19t71.5 -44.5t41.5 -52.5t13.5 -43q0 -15 -10.5 -34.5t-28.5 -38t-42 -33t-51 -19.5q20 -22 50.5 -35.5t69 -21t82 -10.5t88.5 -3h37q19 0 30 -5t16.5 -17t7 -31.5t1.5 -48.5q0 -51 -9 -77t-46 -26h-37q-52 0 -102 8.5t-98.5 31t-94.5 61t-91 97.5 q-56 -32 -107.5 -72.5t-91.5 -91.5t-64 -112.5t-24 -134.5q0 -97 43 -165t127.5 -111t211 -63t293.5 -20q68 0 118 3.5t84 8t53 8.5t24 4q1 0 3 -5t4 -11t3 -11.5t1 -7.5z" />
<glyph unicode="&#x63a;" horiz-adv-x="845" arabic-form="initial" d="M782 471q0 -2 -0.5 -9t-1.5 -17t-3 -22l-4 -24q-2 -8 -5.5 -26.5t-9 -38t-11.5 -35.5t-12 -18q-27 -11 -72.5 -31t-96 -43t-100.5 -45.5t-86 -38.5q-44 -19 -90 -40.5t-92 -40t-89.5 -30.5t-83.5 -12h-37q-19 0 -30 11.5t-16.5 28t-7 34t-1.5 29.5t1.5 29t7 33.5t16.5 28 t30 11.5h37q38 0 75.5 5.5t77.5 25.5q-13 11 -29 25t-29.5 32.5t-23 41.5t-9.5 51q0 37 23.5 86t59 97.5t76 90t74.5 63.5q35 23 69 34t60 11q24 0 49.5 -11.5t50.5 -29t47.5 -39t39.5 -42t27 -37t10 -24.5q0 -6 -5 -14t-10 -8q-3 0 -18.5 7.5t-37 16t-45.5 16t-43 7.5 q-42 0 -91 -10.5t-93 -25.5q-49 -17 -81.5 -36.5t-32.5 -38.5q0 -13 22.5 -39t55 -52.5t69 -46t64.5 -19.5q25 0 58.5 10t70 25.5t72.5 33t66.5 33t52.5 25.5t29 10q6 0 6 -8zM515 1011q0 -4 -6.5 -16.5t-16.5 -29.5t-22.5 -36t-24 -34.5t-21.5 -26t-14 -10.5 q-3 0 -25.5 14.5t-47.5 33t-45.5 36t-20.5 22.5q0 4 6.5 17t17 30t23 36t24 34.5t20.5 26t13 10.5q6 0 28.5 -15t47.5 -33.5t44.5 -36t19.5 -22.5z" />
<glyph unicode="&#x63a;" horiz-adv-x="668" arabic-form="medial" d="M735 103q0 -12 -1.5 -29.5t-7 -34t-16.5 -28t-30 -11.5h-37q-38 0 -73.5 15t-67.5 38t-59.5 50.5t-48.5 53.5t-36 46.5t-21 28.5q-18 -26 -49 -65.5t-72 -76.5t-90 -63.5t-101 -26.5h-37q-19 0 -30 11.5t-16.5 28t-7 34t-1.5 29.5t1.5 29t7 33.5t16.5 28t30 11.5h37 q28 0 58 3.5t59.5 12t57.5 22.5t53 36q-34 17 -64 31t-52 25t-34.5 18t-12.5 11q0 8 4 26t14.5 39.5t28 44.5t45 42t65.5 31t89 12q52 0 94 -15.5t72 -39t46.5 -51.5t16.5 -53q0 -21 -12 -41.5t-31.5 -37.5t-43 -29t-47.5 -15q14 -16 37 -29t51 -22.5t60 -15t64 -5.5h37 q19 0 30 -11.5t16.5 -28t7 -33.5t1.5 -29zM457 864q0 -4 -6.5 -16.5t-16.5 -29.5t-22.5 -36t-24 -34.5t-21.5 -26t-14 -10.5q-3 0 -25.5 14.5t-47.5 33t-45.5 36t-20.5 22.5q0 4 6.5 17t17 30t23 36t24 34.5t20.5 26t13 10.5q6 0 28.5 -15t47.5 -33.5t44.5 -36t19.5 -22.5z " />
<glyph unicode="&#x63a;" horiz-adv-x="921" arabic-form="final" d="M1103 -583q0 -6 -25.5 -21t-67.5 -34t-94.5 -40t-107 -38.5t-105.5 -29t-89 -11.5q-104 0 -205.5 25t-182.5 80.5t-131 143t-50 212.5q0 81 24.5 158.5t65 149.5t94 138t112.5 123q-24 17 -52 31.5t-53 26.5t-41.5 20.5t-16.5 13.5q0 22 14.5 55t44.5 64t76 53t110 22 q60 0 103.5 -19t71.5 -44.5t41.5 -52.5t13.5 -43q0 -15 -10.5 -34.5t-28.5 -38t-42 -33t-51 -19.5q20 -22 50.5 -35.5t69 -21t82 -10.5t88.5 -3h37q19 0 30 -5t16.5 -17t7 -31.5t1.5 -48.5q0 -51 -9 -77t-46 -26h-37q-52 0 -102 8.5t-98.5 31t-94.5 61t-91 97.5 q-56 -32 -107.5 -72.5t-91.5 -91.5t-64 -112.5t-24 -134.5q0 -97 43 -165t127.5 -111t211 -63t293.5 -20q68 0 118 3.5t84 8t53 8.5t24 4q1 0 3 -5t4 -11t3 -11.5t1 -7.5zM540 818q0 -4 -6.5 -16.5t-16.5 -29.5t-22.5 -36t-24 -34.5t-21.5 -26t-14 -10.5q-3 0 -25.5 14.5 t-47.5 33t-45.5 36t-20.5 22.5q0 4 6.5 17t17 30t23 36t24 34.5t20.5 26t13 10.5q6 0 28.5 -15t47.5 -33.5t44.5 -36t19.5 -22.5z" />
<glyph unicode="&#x63b;" horiz-adv-x="934" d="M941 1038q-21 -26 -32.5 -57t-20 -58.5t-18 -47.5t-26.5 -24q-33 -9 -81 -21t-103.5 -26t-115 -30t-117 -32t-109 -32t-90 -30.5t-61.5 -26.5t-23 -21q0 -7 19.5 -16.5t51 -22.5t70.5 -30t77 -39q57 -32 90 -69.5t50 -73t22 -64t5 -42.5q0 -73 -21.5 -125t-78 -85.5 t-154 -49t-250.5 -15.5h-37q-19 0 -30 7t-16.5 20t-7 32.5t-1.5 43.5q0 25 1.5 44.5t7 32t16.5 19t30 6.5h37h86.5t87.5 0.5t77.5 2t56.5 3.5q39 4 62.5 7.5t37 8t18 10.5t4.5 16q0 13 -17.5 28.5t-42.5 30.5t-53 29t-50 24q-24 11 -51 21t-52 19.5t-46 18.5t-33 18 q-20 16 -28.5 51.5t-8.5 78.5q0 21 1 45.5t4.5 47t11 41t20.5 27.5q26 18 68 41t92.5 47t105.5 48t107 45t97.5 38.5t76.5 28.5q13 4 37 11.5t52.5 16t58.5 17t55 15.5t41.5 11.5t19.5 4.5q5 0 8.5 -7t11.5 -12zM277 1166q6 0 27 -14t44 -31.5t41 -34t18 -20.5t-6 -16 t-15.5 -28t-21 -33.5t-22 -32t-19 -24t-11.5 -9.5q-4 0 -23.5 14t-42.5 31l-60 46q-6 6 -13 6q-3 0 -8 -9q-23 -32 -41 -58q-16 -22 -31 -39.5t-20 -17.5q-2 0 -12.5 6.5t-25.5 17t-31 22.5t-30 23t-23 19.5t-9 11.5q0 4 6.5 16t16.5 28.5t21.5 34.5t22.5 32.5t19 24.5 t10 10q7 0 27 -14.5t42 -31.5q26 -20 55 -45q6 -7 11 -7q3 0 5.5 2t7.5 9q23 30 42 55q16 21 30.5 38.5t18.5 17.5z" />
<glyph unicode="&#x63b;" horiz-adv-x="1006" d="M1073 103q0 -12 -1.5 -29.5t-7 -34t-16.5 -28t-30 -11.5h-38q-35 0 -65 10.5t-60.5 29.5t-63 46.5t-73.5 62t-92.5 75t-118.5 86.5q4 -17 5 -41t1 -37q0 -117 -122.5 -174.5t-365.5 -57.5h-37q-19 0 -30 11.5t-16.5 28t-7 34t-1.5 29.5t1.5 29t7 33.5t16.5 28t30 11.5h37 q114 0 191 10t123.5 25.5t66.5 35t20 39.5q0 23 -35 57t-97 66q-19 10 -41.5 19.5t-43.5 18.5t-37.5 17t-22.5 15q-11 12 -21.5 29t-18.5 36.5t-13.5 39.5t-5.5 38q0 7 3 26.5t11 43.5t23 49t38 43q51 40 125.5 82t156.5 82t164 75t149 61t110 41.5t48 15.5q3 0 10.5 -6.5 t7.5 -9.5q0 -2 -5 -17.5t-12 -37.5t-16 -47.5t-17 -47t-14.5 -36t-8.5 -15.5q-81 -23 -164.5 -49t-161 -52.5t-146 -52.5t-119.5 -50t-81 -45t-31 -36q0 -5 20.5 -10.5t50.5 -13t65 -17t63 -21.5q43 -18 85.5 -40t82.5 -46t76.5 -49t68.5 -49q75 -56 123.5 -96.5t81 -67.5 t55.5 -40t48 -13h38q19 0 30 -11.5t16.5 -28t7 -33.5t1.5 -29zM324 1229q6 0 27 -14t44 -31.5t41 -34t18 -20.5t-6 -16t-15.5 -28t-21 -33.5t-22 -32t-19 -24t-11.5 -9.5q-4 0 -23.5 14t-42.5 31l-60 46q-6 6 -13 6q-3 0 -8 -9q-23 -32 -41 -58q-16 -22 -31 -39.5t-20 -17.5 q-2 0 -12.5 6.5t-25.5 17t-31 22.5t-30 23t-23 19.5t-9 11.5q0 4 6.5 16t16.5 28.5t21.5 34.5t22.5 32.5t19 24.5t10 10q7 0 27 -14.5t42 -31.5q26 -20 55 -45q6 -7 11 -7q3 0 5.5 2t7.5 9q23 30 42 55q16 21 30.5 38.5t18.5 17.5z" />
<glyph unicode="&#x63b;" horiz-adv-x="1704" d="M1771 103q0 -12 -1.5 -29.5t-7 -34t-16.5 -28t-30 -11.5h-36q-57 0 -116.5 32.5t-122 79.5t-128 99.5t-133.5 93.5q5 -15 7.5 -32t2.5 -34q0 -67 -47 -117t-135 -83t-212.5 -49.5t-278.5 -16.5q-123 0 -208 13.5t-137.5 46.5t-76 87.5t-23.5 136.5q0 18 4.5 45.5t12 59 t15.5 63.5t15.5 57.5t13 41.5t6.5 16q19 0 28 -9.5t9 -15.5q0 -3 -3 -18t-6 -34.5t-6 -39.5t-3 -32q0 -49 22.5 -86t73.5 -62t133 -37.5t201 -12.5q108 0 170 1t97 3t54.5 4t42.5 5q151 16 151 92q0 12 -2 20t-11.5 17t-31 22t-60.5 35q-24 13 -38 20.5t-24.5 13t-20.5 10.5 t-24 13q-11 6 -20.5 14.5t-16 22.5t-10 36t-3.5 56q0 43 5 76.5t23 44.5q71 47 156 93.5t168.5 87t156.5 73t119 52.5q25 10 65.5 25t80 28t69.5 22.5t34 9.5q3 0 10.5 -6.5t7.5 -9.5q-21 -28 -36.5 -65t-28 -71.5t-23 -59t-20.5 -27.5q-50 -13 -119.5 -31.5t-145 -39 t-150 -42.5t-133.5 -40.5t-95.5 -32.5t-36.5 -19q0 -4 5.5 -8t13 -8t15 -7.5t12.5 -5.5q43 -18 87 -41t86 -48.5t80.5 -51.5t71.5 -50l104 -78t99 -71t87.5 -52t70.5 -20h36q19 0 30 -11.5t16.5 -28t7 -33.5t1.5 -29zM1049 1135q6 0 27 -14t44 -31.5t41 -34t18 -20.5t-6 -16 t-15.5 -28t-21 -33.5t-22 -32t-19 -24t-11.5 -9.5q-4 0 -23.5 14t-42.5 31l-60 46q-6 6 -13 6q-3 0 -8 -9q-23 -32 -41 -58q-16 -22 -31 -39.5t-20 -17.5q-2 0 -12.5 6.5t-25.5 17t-31 22.5t-30 23t-23 19.5t-9 11.5q0 4 6.5 16t16.5 28.5t21.5 34.5t22.5 32.5t19 24.5 t10 10q7 0 27 -14.5t42 -31.5q26 -20 55 -45q6 -7 11 -7q3 0 5.5 2t7.5 9q23 30 42 55q16 21 30.5 38.5t18.5 17.5z" />
<glyph unicode="&#x63c;" horiz-adv-x="934" d="M941 1038q-21 -26 -32.5 -57t-20 -58.5t-18 -47.5t-26.5 -24q-33 -9 -81 -21t-103.5 -26t-115 -30t-117 -32t-109 -32t-90 -30.5t-61.5 -26.5t-23 -21q0 -7 19.5 -16.5t51 -22.5t70.5 -30t77 -39q57 -32 90 -69.5t50 -73t22 -64t5 -42.5q0 -73 -21.5 -125t-78 -85.5 t-154 -49t-250.5 -15.5h-37q-19 0 -30 7t-16.5 20t-7 32.5t-1.5 43.5q0 25 1.5 44.5t7 32t16.5 19t30 6.5h37h86.5t87.5 0.5t77.5 2t56.5 3.5q39 4 62.5 7.5t37 8t18 10.5t4.5 16q0 13 -17.5 28.5t-42.5 30.5t-53 29t-50 24q-24 11 -51 21t-52 19.5t-46 18.5t-33 18 q-20 16 -28.5 51.5t-8.5 78.5q0 21 1 45.5t4.5 47t11 41t20.5 27.5q26 18 68 41t92.5 47t105.5 48t107 45t97.5 38.5t76.5 28.5q13 4 37 11.5t52.5 16t58.5 17t55 15.5t41.5 11.5t19.5 4.5q5 0 8.5 -7t11.5 -12zM341 -36q6 0 27 -14t44 -32t41 -34t18 -20q0 -6 -13 -29 t-29.5 -48.5t-32 -46t-20.5 -20.5q-4 0 -23.5 14.5t-42.5 31.5l-60 46q-7 5 -13 5q-3 0 -8 -8q-23 -32 -41 -58q-16 -22 -31 -39.5t-20 -17.5q-2 0 -12.5 6.5t-25.5 17t-31 22.5t-30 23t-23 19.5t-9 11.5q0 4 6.5 16t16.5 28.5t21.5 34.5t22.5 32.5t19 24.5t10 10 q7 0 27 -14.5t42 -31.5q26 -20 55 -45q6 -7 11 -7t13 10q23 31 42 56q16 21 30.5 38.5t18.5 17.5zM384 -399q0 -6 -13 -29.5t-30 -49.5t-33.5 -46.5t-22.5 -20.5q-2 0 -13 6.5t-25.5 16.5t-31 22.5t-30.5 23.5t-23 20t-9 12q0 4 6.5 16t16 28.5t21.5 34.5t23 32.5t19.5 24.5 t11.5 10q6 0 27.5 -14t45 -32t42 -34.5t18.5 -20.5z" />
<glyph unicode="&#x63c;" horiz-adv-x="1006" d="M1073 103q0 -12 -1.5 -29.5t-7 -34t-16.5 -28t-30 -11.5h-38q-35 0 -65 10.5t-60.5 29.5t-63 46.5t-73.5 62t-92.5 75t-118.5 86.5q4 -17 5 -41t1 -37q0 -117 -122.5 -174.5t-365.5 -57.5h-37q-19 0 -30 11.5t-16.5 28t-7 34t-1.5 29.5t1.5 29t7 33.5t16.5 28t30 11.5h37 q114 0 191 10t123.5 25.5t66.5 35t20 39.5q0 23 -35 57t-97 66q-19 10 -41.5 19.5t-43.5 18.5t-37.5 17t-22.5 15q-11 12 -21.5 29t-18.5 36.5t-13.5 39.5t-5.5 38q0 7 3 26.5t11 43.5t23 49t38 43q51 40 125.5 82t156.5 82t164 75t149 61t110 41.5t48 15.5q3 0 10.5 -6.5 t7.5 -9.5q0 -2 -5 -17.5t-12 -37.5t-16 -47.5t-17 -47t-14.5 -36t-8.5 -15.5q-81 -23 -164.5 -49t-161 -52.5t-146 -52.5t-119.5 -50t-81 -45t-31 -36q0 -5 20.5 -10.5t50.5 -13t65 -17t63 -21.5q43 -18 85.5 -40t82.5 -46t76.5 -49t68.5 -49q75 -56 123.5 -96.5t81 -67.5 t55.5 -40t48 -13h38q19 0 30 -11.5t16.5 -28t7 -33.5t1.5 -29zM301 -69q6 0 27 -14t44 -32t41 -34t18 -20q0 -6 -13 -29t-29.5 -48.5t-32 -46t-20.5 -20.5q-4 0 -23.5 14.5t-42.5 31.5l-60 46q-7 5 -13 5q-3 0 -8 -8q-23 -32 -41 -58q-16 -22 -31 -39.5t-20 -17.5 q-2 0 -12.5 6.5t-25.5 17t-31 22.5t-30 23t-23 19.5t-9 11.5q0 4 6.5 16t16.5 28.5t21.5 34.5t22.5 32.5t19 24.5t10 10q7 0 27 -14.5t42 -31.5q26 -20 55 -45q6 -7 11 -7t13 10q23 31 42 56q16 21 30.5 38.5t18.5 17.5zM344 -432q0 -6 -13 -29.5t-30 -49.5t-33.5 -46.5 t-22.5 -20.5q-2 0 -13 6.5t-25.5 16.5t-31 22.5t-30.5 23.5t-23 20t-9 12q0 4 6.5 16t16 28.5t21.5 34.5t23 32.5t19.5 24.5t11.5 10q6 0 27.5 -14t45 -32t42 -34.5t18.5 -20.5z" />
<glyph unicode="&#x63c;" horiz-adv-x="1704" d="M1771 103q0 -12 -1.5 -29.5t-7 -34t-16.5 -28t-30 -11.5h-36q-57 0 -116.5 32.5t-122 79.5t-128 99.5t-133.5 93.5q5 -15 7.5 -32t2.5 -34q0 -67 -47 -117t-135 -83t-212.5 -49.5t-278.5 -16.5q-123 0 -208 13.5t-137.5 46.5t-76 87.5t-23.5 136.5q0 18 4.5 45.5t12 59 t15.5 63.5t15.5 57.5t13 41.5t6.5 16q19 0 28 -9.5t9 -15.5q0 -3 -3 -18t-6 -34.5t-6 -39.5t-3 -32q0 -49 22.5 -86t73.5 -62t133 -37.5t201 -12.5q108 0 170 1t97 3t54.5 4t42.5 5q151 16 151 92q0 12 -2 20t-11.5 17t-31 22t-60.5 35q-24 13 -38 20.5t-24.5 13t-20.5 10.5 t-24 13q-11 6 -20.5 14.5t-16 22.5t-10 36t-3.5 56q0 43 5 76.5t23 44.5q71 47 156 93.5t168.5 87t156.5 73t119 52.5q25 10 65.5 25t80 28t69.5 22.5t34 9.5q3 0 10.5 -6.5t7.5 -9.5q-21 -28 -36.5 -65t-28 -71.5t-23 -59t-20.5 -27.5q-50 -13 -119.5 -31.5t-145 -39 t-150 -42.5t-133.5 -40.5t-95.5 -32.5t-36.5 -19q0 -4 5.5 -8t13 -8t15 -7.5t12.5 -5.5q43 -18 87 -41t86 -48.5t80.5 -51.5t71.5 -50l104 -78t99 -71t87.5 -52t70.5 -20h36q19 0 30 -11.5t16.5 -28t7 -33.5t1.5 -29zM1056 -82q6 0 27 -14t44 -32t41 -34t18 -20 q0 -6 -13 -29t-29.5 -48.5t-32 -46t-20.5 -20.5q-4 0 -23.5 14.5t-42.5 31.5l-60 46q-7 5 -13 5q-3 0 -8 -8q-23 -32 -41 -58q-16 -22 -31 -39.5t-20 -17.5q-2 0 -12.5 6.5t-25.5 17t-31 22.5t-30 23t-23 19.5t-9 11.5q0 4 6.5 16t16.5 28.5t21.5 34.5t22.5 32.5t19 24.5 t10 10q7 0 27 -14.5t42 -31.5q26 -20 55 -45q6 -7 11 -7t13 10q23 31 42 56q16 21 30.5 38.5t18.5 17.5zM1099 -445q0 -6 -13 -29.5t-30 -49.5t-33.5 -46.5t-22.5 -20.5q-2 0 -13 6.5t-25.5 16.5t-31 22.5t-30.5 23.5t-23 20t-9 12q0 4 6.5 16t16 28.5t21.5 34.5t23 32.5 t19.5 24.5t11.5 10q6 0 27.5 -14t45 -32t42 -34.5t18.5 -20.5z" />
<glyph unicode="&#x63d;" horiz-adv-x="439" d="M355 354q0 -72 -22.5 -136t-65.5 -112.5t-105 -77t-140 -28.5h-39q-23 0 -36.5 21.5t-13.5 82.5q0 30 4.5 50t12 31t16.5 15.5t17 4.5h39q24 0 54.5 1t60.5 4t55.5 7.5t39.5 12.5q19 11 27 23.5t8 20.5q0 19 -18.5 39t-40 39t-40 36.5t-18.5 31.5q0 6 10 30t25 54.5 t34 62.5t37 55q17 -26 34.5 -58.5t32 -68t23.5 -72t9 -69.5zM484 724q0 -5 -1 -8t-9 -3h-52q-5 0 -19.5 11t-34 27t-41.5 35t-41.5 35t-34.5 27t-19 11t-19 -11t-34.5 -27t-41 -35t-41 -35t-33.5 -27t-17 -11h-58q-6 0 -8 3.5t-2 7.5q0 2 9.5 15t25 33.5t35 46t40 51t40 49 t34.5 40.5q10 11 17.5 20t15.5 9h76q8 0 14.5 -9t16.5 -18q23 -24 54 -62t59.5 -75t48.5 -66t20 -34zM286 -74q6 0 27 -14t44 -31.5t41 -34t18 -20.5t-6 -16t-15.5 -28t-21 -33.5t-22 -32t-19 -24t-11.5 -9.5q-4 0 -23.5 14t-42.5 31l-60 46q-6 6 -13 6q-3 0 -8 -9 q-23 -32 -41 -58q-16 -22 -31 -39.5t-20 -17.5q-2 0 -12.5 6.5t-25.5 17t-31 22.5t-30 23t-23 19.5t-9 11.5q0 4 6.5 16t16.5 28.5t21.5 34.5t22.5 32.5t19 24.5t10 10q7 0 27 -14.5t42 -31.5q26 -20 55 -45q6 -7 11 -7q3 0 5.5 2t7.5 9q23 30 42 55q16 21 30.5 38.5 t18.5 17.5z" />
<glyph unicode="&#x63d;" horiz-adv-x="427" d="M496 104q0 -49 -9 -76.5t-46 -27.5h-39q-28 0 -46.5 7t-38.5 24q-17 14 -32 37t-25 52q-18 -24 -38.5 -45.5t-48.5 -38t-64 -26.5t-84 -10h-37q-19 0 -30 6.5t-16.5 20t-7 32.5t-1.5 45q0 24 1.5 42.5t7 31.5t16.5 20t30 7h37q52 0 90.5 9.5t65.5 24.5t44.5 31.5t30 31.5 t20.5 24.5t16 9.5q6 0 13 -9t15 -46q3 -13 7.5 -26.5t14 -24.5t24 -18t36.5 -7h39q37 0 46 -26t9 -75zM469 450q0 -5 -1 -8t-9 -3h-52q-5 0 -19.5 11t-34 27t-41.5 35t-41.5 35t-34.5 27t-19 11t-19 -11t-34.5 -27t-41 -35t-41 -35t-33.5 -27t-17 -11h-58q-6 0 -8 3.5 t-2 7.5q0 2 9.5 15t25 33.5t35 46t40 51t40 49t34.5 40.5q10 11 17.5 20t15.5 9h76q8 0 14.5 -9t16.5 -18q23 -24 54 -62t59.5 -75t48.5 -66t20 -34zM318 -79q6 0 27 -14t44 -31.5t41 -34t18 -20.5t-6 -16t-15.5 -28t-21 -33.5t-22 -32t-19 -24t-11.5 -9.5q-4 0 -23.5 14 t-42.5 31l-60 46q-6 6 -13 6q-3 0 -8 -9q-23 -32 -41 -58q-16 -22 -31 -39.5t-20 -17.5q-2 0 -12.5 6.5t-25.5 17t-31 22.5t-30 23t-23 19.5t-9 11.5q0 4 6.5 16t16.5 28.5t21.5 34.5t22.5 32.5t19 24.5t10 10q7 0 27 -14.5t42 -31.5q26 -20 55 -45q6 -7 11 -7q3 0 5.5 2 t7.5 9q23 30 42 55q16 21 30.5 38.5t18.5 17.5z" />
<glyph unicode="&#x63d;" horiz-adv-x="1140" d="M1207 103q0 -12 -1.5 -29.5t-7 -34t-16.5 -28t-30 -11.5h-97q-14 0 -46.5 -0.5t-68.5 -1.5t-68.5 -3.5t-46.5 -6.5q-34 -10 -54.5 -24t-20.5 -30q0 -8 23 -16.5t77 -14.5q47 -5 82 -13t58 -22.5t34.5 -38.5t11.5 -61q0 -31 -19.5 -68t-55.5 -74t-87 -71.5t-113 -61.5 t-134.5 -43t-150.5 -16q-110 0 -184.5 28.5t-120.5 76.5t-65.5 110.5t-19.5 130.5q0 44 11.5 91t28.5 91.5t37.5 84t38 69.5t30 47.5t13.5 17.5q3 0 9 -2.5t12 -6t10.5 -7.5t4.5 -6q0 -3 -14 -27.5t-30.5 -63.5t-30 -89t-13.5 -105t20 -99.5t61.5 -76t105 -48.5t149.5 -17 q24 0 63.5 4.5t84 12t90 17.5t82 21t59.5 22t23 22q0 22 -36.5 26.5t-102.5 6.5q-47 1 -78.5 10t-50 24.5t-26 37t-7.5 48.5q0 32 13 64t35 63t50.5 59.5t60.5 52t65 41.5t64 27q10 3 28.5 5.5t38.5 4t39.5 2.5t30.5 1h97q19 0 30 -11.5t16.5 -28t7 -33.5t1.5 -29zM796 258 q0 -5 -1 -8t-9 -3h-52q-5 0 -19.5 11t-34 27t-41.5 35t-41.5 35t-34.5 27t-19 11t-19 -11t-34.5 -27t-41 -35t-41 -35t-33.5 -27t-17 -11h-58q-6 0 -8 3.5t-2 7.5q0 2 9.5 15t25 33.5t35 46t40 51t40 49t34.5 40.5q10 11 17.5 20t15.5 9h76q8 0 14.5 -9t16.5 -18 q23 -24 54 -62t59.5 -75t48.5 -66t20 -34z" />
<glyph unicode="&#x63e;" horiz-adv-x="439" d="M355 354q0 -72 -22.5 -136t-65.5 -112.5t-105 -77t-140 -28.5h-39q-23 0 -36.5 21.5t-13.5 82.5q0 30 4.5 50t12 31t16.5 15.5t17 4.5h39q24 0 54.5 1t60.5 4t55.5 7.5t39.5 12.5q19 11 27 23.5t8 20.5q0 19 -18.5 39t-40 39t-40 36.5t-18.5 31.5q0 6 10 30t25 54.5 t34 62.5t37 55q17 -26 34.5 -58.5t32 -68t23.5 -72t9 -69.5zM322 983q6 0 27 -14t44 -31.5t41 -34t18 -20.5t-6 -16t-15.5 -28t-21 -33.5t-22 -32t-19 -24t-11.5 -9.5q-4 0 -23.5 14t-42.5 31l-60 46q-6 6 -13 6q-3 0 -8 -9q-23 -32 -41 -58q-16 -22 -31 -39.5t-20 -17.5 q-2 0 -12.5 6.5t-25.5 17t-31 22.5t-30 23t-23 19.5t-9 11.5q0 4 6.5 16t16.5 28.5t21.5 34.5t22.5 32.5t19 24.5t10 10q7 0 27 -14.5t42 -31.5q26 -20 55 -45q6 -7 11 -7q3 0 5.5 2t7.5 9q23 30 42 55q16 21 30.5 38.5t18.5 17.5zM286 -74q6 0 27 -14t44 -31.5t41 -34 t18 -20.5t-6 -16t-15.5 -28t-21 -33.5t-22 -32t-19 -24t-11.5 -9.5q-4 0 -23.5 14t-42.5 31l-60 46q-6 6 -13 6q-3 0 -8 -9q-23 -32 -41 -58q-16 -22 -31 -39.5t-20 -17.5q-2 0 -12.5 6.5t-25.5 17t-31 22.5t-30 23t-23 19.5t-9 11.5q0 4 6.5 16t16.5 28.5t21.5 34.5 t22.5 32.5t19 24.5t10 10q7 0 27 -14.5t42 -31.5q26 -20 55 -45q6 -7 11 -7q3 0 5.5 2t7.5 9q23 30 42 55q16 21 30.5 38.5t18.5 17.5z" />
<glyph unicode="&#x63e;" horiz-adv-x="427" d="M496 104q0 -49 -9 -76.5t-46 -27.5h-39q-28 0 -46.5 7t-38.5 24q-17 14 -32 37t-25 52q-18 -24 -38.5 -45.5t-48.5 -38t-64 -26.5t-84 -10h-37q-19 0 -30 6.5t-16.5 20t-7 32.5t-1.5 45q0 24 1.5 42.5t7 31.5t16.5 20t30 7h37q52 0 90.5 9.5t65.5 24.5t44.5 31.5t30 31.5 t20.5 24.5t16 9.5q6 0 13 -9t15 -46q3 -13 7.5 -26.5t14 -24.5t24 -18t36.5 -7h39q37 0 46 -26t9 -75zM317 697q6 0 27 -14t44 -31.5t41 -34t18 -20.5t-6 -16t-15.5 -28t-21 -33.5t-22 -32t-19 -24t-11.5 -9.5q-4 0 -23.5 14t-42.5 31l-60 46q-6 6 -13 6q-3 0 -8 -9 q-23 -32 -41 -58q-16 -22 -31 -39.5t-20 -17.5q-2 0 -12.5 6.5t-25.5 17t-31 22.5t-30 23t-23 19.5t-9 11.5q0 4 6.5 16t16.5 28.5t21.5 34.5t22.5 32.5t19 24.5t10 10q7 0 27 -14.5t42 -31.5q26 -20 55 -45q6 -7 11 -7q3 0 5.5 2t7.5 9q23 30 42 55q16 21 30.5 38.5 t18.5 17.5zM318 -79q6 0 27 -14t44 -31.5t41 -34t18 -20.5t-6 -16t-15.5 -28t-21 -33.5t-22 -32t-19 -24t-11.5 -9.5q-4 0 -23.5 14t-42.5 31l-60 46q-6 6 -13 6q-3 0 -8 -9q-23 -32 -41 -58q-16 -22 -31 -39.5t-20 -17.5q-2 0 -12.5 6.5t-25.5 17t-31 22.5t-30 23t-23 19.5 t-9 11.5q0 4 6.5 16t16.5 28.5t21.5 34.5t22.5 32.5t19 24.5t10 10q7 0 27 -14.5t42 -31.5q26 -20 55 -45q6 -7 11 -7q3 0 5.5 2t7.5 9q23 30 42 55q16 21 30.5 38.5t18.5 17.5z" />
<glyph unicode="&#x63e;" horiz-adv-x="1140" d="M1207 103q0 -12 -1.5 -29.5t-7 -34t-16.5 -28t-30 -11.5h-97q-14 0 -46.5 -0.5t-68.5 -1.5t-68.5 -3.5t-46.5 -6.5q-34 -10 -54.5 -24t-20.5 -30q0 -8 23 -16.5t77 -14.5q47 -5 82 -13t58 -22.5t34.5 -38.5t11.5 -61q0 -31 -19.5 -68t-55.5 -74t-87 -71.5t-113 -61.5 t-134.5 -43t-150.5 -16q-110 0 -184.5 28.5t-120.5 76.5t-65.5 110.5t-19.5 130.5q0 44 11.5 91t28.5 91.5t37.5 84t38 69.5t30 47.5t13.5 17.5q3 0 9 -2.5t12 -6t10.5 -7.5t4.5 -6q0 -3 -14 -27.5t-30.5 -63.5t-30 -89t-13.5 -105t20 -99.5t61.5 -76t105 -48.5t149.5 -17 q24 0 63.5 4.5t84 12t90 17.5t82 21t59.5 22t23 22q0 22 -36.5 26.5t-102.5 6.5q-47 1 -78.5 10t-50 24.5t-26 37t-7.5 48.5q0 32 13 64t35 63t50.5 59.5t60.5 52t65 41.5t64 27q10 3 28.5 5.5t38.5 4t39.5 2.5t30.5 1h97q19 0 30 -11.5t16.5 -28t7 -33.5t1.5 -29zM649 510 q6 0 27 -14t44 -31.5t41 -34t18 -20.5t-6 -16t-15.5 -28t-21 -33.5t-22 -32t-19 -24t-11.5 -9.5q-4 0 -23.5 14t-42.5 31l-60 46q-6 6 -13 6q-3 0 -8 -9q-23 -32 -41 -58q-16 -22 -31 -39.5t-20 -17.5q-2 0 -12.5 6.5t-25.5 17t-31 22.5t-30 23t-23 19.5t-9 11.5q0 4 6.5 16 t16.5 28.5t21.5 34.5t22.5 32.5t19 24.5t10 10q7 0 27 -14.5t42 -31.5q26 -20 55 -45q6 -7 11 -7q3 0 5.5 2t7.5 9q23 30 42 55q16 21 30.5 38.5t18.5 17.5z" />
<glyph unicode="&#x63f;" horiz-adv-x="439" d="M355 354q0 -72 -22.5 -136t-65.5 -112.5t-105 -77t-140 -28.5h-39q-23 0 -36.5 21.5t-13.5 82.5q0 30 4.5 50t12 31t16.5 15.5t17 4.5h39q24 0 54.5 1t60.5 4t55.5 7.5t39.5 12.5q19 11 27 23.5t8 20.5q0 19 -18.5 39t-40 39t-40 36.5t-18.5 31.5q0 6 10 30t25 54.5 t34 62.5t37 55q17 -26 34.5 -58.5t32 -68t23.5 -72t9 -69.5zM77 1081q0 6 13 29.5t30 49.5t33.5 46.5t22.5 20.5q2 0 13 -6.5t25.5 -16.5t31 -22.5t30.5 -23.5t23 -20t9 -12q0 -4 -6.5 -16t-16 -28.5t-21.5 -34.5t-23 -32.5t-19.5 -24.5t-11.5 -10q-6 0 -27.5 14t-45 32 t-42 34t-18.5 21zM120 718q-6 0 -27 14t-44 32t-41 34t-18 20q0 6 13 29t29.5 48.5t32 46t20.5 20.5q3 0 23 -14.5t43 -31.5l60 -46q7 -5 13 -5q3 0 8 8q23 31 41 57q16 22 31 40t20 18q2 0 12.5 -6.5t25.5 -17t31 -22.5t30 -23t23 -19.5t9 -11.5q0 -4 -6.5 -16t-16.5 -28.5 t-21.5 -34.5t-22.5 -32.5t-19 -24.5t-10 -10q-8 0 -27.5 14t-41.5 31q-26 20 -55 46q-6 7 -11 7q-6 0 -13 -10l-42 -56q-17 -21 -31 -38.5t-18 -17.5zM286 -74q6 0 27 -14t44 -31.5t41 -34t18 -20.5t-6 -16t-15.5 -28t-21 -33.5t-22 -32t-19 -24t-11.5 -9.5q-4 0 -23.5 14 t-42.5 31l-60 46q-6 6 -13 6q-3 0 -8 -9q-23 -32 -41 -58q-16 -22 -31 -39.5t-20 -17.5q-2 0 -12.5 6.5t-25.5 17t-31 22.5t-30 23t-23 19.5t-9 11.5q0 4 6.5 16t16.5 28.5t21.5 34.5t22.5 32.5t19 24.5t10 10q7 0 27 -14.5t42 -31.5q26 -20 55 -45q6 -7 11 -7q3 0 5.5 2 t7.5 9q23 30 42 55q16 21 30.5 38.5t18.5 17.5z" />
<glyph unicode="&#x63f;" horiz-adv-x="427" d="M496 104q0 -49 -9 -76.5t-46 -27.5h-39q-28 0 -46.5 7t-38.5 24q-17 14 -32 37t-25 52q-18 -24 -38.5 -45.5t-48.5 -38t-64 -26.5t-84 -10h-37q-19 0 -30 6.5t-16.5 20t-7 32.5t-1.5 45q0 24 1.5 42.5t7 31.5t16.5 20t30 7h37q52 0 90.5 9.5t65.5 24.5t44.5 31.5t30 31.5 t20.5 24.5t16 9.5q6 0 13 -9t15 -46q3 -13 7.5 -26.5t14 -24.5t24 -18t36.5 -7h39q37 0 46 -26t9 -75zM70 792q0 6 13 29.5t30 49.5t33.5 46.5t22.5 20.5q2 0 13 -6.5t25.5 -16.5t31 -22.5t30.5 -23.5t23 -20t9 -12q0 -4 -6.5 -16t-16 -28.5t-21.5 -34.5t-23 -32.5 t-19.5 -24.5t-11.5 -10q-6 0 -27.5 14t-45 32t-42 34t-18.5 21zM113 429q-6 0 -27 14t-44 32t-41 34t-18 20q0 6 13 29t29.5 48.5t32 46t20.5 20.5q3 0 23 -14.5t43 -31.5l60 -46q7 -5 13 -5q3 0 8 8q23 31 41 57q16 22 31 40t20 18q2 0 12.5 -6.5t25.5 -17t31 -22.5t30 -23 t23 -19.5t9 -11.5q0 -4 -6.5 -16t-16.5 -28.5t-21.5 -34.5t-22.5 -32.5t-19 -24.5t-10 -10q-8 0 -27.5 14t-41.5 31q-26 20 -55 46q-6 7 -11 7q-6 0 -13 -10l-42 -56q-17 -21 -31 -38.5t-18 -17.5zM318 -79q6 0 27 -14t44 -31.5t41 -34t18 -20.5t-6 -16t-15.5 -28t-21 -33.5 t-22 -32t-19 -24t-11.5 -9.5q-4 0 -23.5 14t-42.5 31l-60 46q-6 6 -13 6q-3 0 -8 -9q-23 -32 -41 -58q-16 -22 -31 -39.5t-20 -17.5q-2 0 -12.5 6.5t-25.5 17t-31 22.5t-30 23t-23 19.5t-9 11.5q0 4 6.5 16t16.5 28.5t21.5 34.5t22.5 32.5t19 24.5t10 10q7 0 27 -14.5 t42 -31.5q26 -20 55 -45q6 -7 11 -7q3 0 5.5 2t7.5 9q23 30 42 55q16 21 30.5 38.5t18.5 17.5z" />
<glyph unicode="&#x63f;" horiz-adv-x="1140" d="M1207 103q0 -12 -1.5 -29.5t-7 -34t-16.5 -28t-30 -11.5h-97q-14 0 -46.5 -0.5t-68.5 -1.5t-68.5 -3.5t-46.5 -6.5q-34 -10 -54.5 -24t-20.5 -30q0 -8 23 -16.5t77 -14.5q47 -5 82 -13t58 -22.5t34.5 -38.5t11.5 -61q0 -31 -19.5 -68t-55.5 -74t-87 -71.5t-113 -61.5 t-134.5 -43t-150.5 -16q-110 0 -184.5 28.5t-120.5 76.5t-65.5 110.5t-19.5 130.5q0 44 11.5 91t28.5 91.5t37.5 84t38 69.5t30 47.5t13.5 17.5q3 0 9 -2.5t12 -6t10.5 -7.5t4.5 -6q0 -3 -14 -27.5t-30.5 -63.5t-30 -89t-13.5 -105t20 -99.5t61.5 -76t105 -48.5t149.5 -17 q24 0 63.5 4.5t84 12t90 17.5t82 21t59.5 22t23 22q0 22 -36.5 26.5t-102.5 6.5q-47 1 -78.5 10t-50 24.5t-26 37t-7.5 48.5q0 32 13 64t35 63t50.5 59.5t60.5 52t65 41.5t64 27q10 3 28.5 5.5t38.5 4t39.5 2.5t30.5 1h97q19 0 30 -11.5t16.5 -28t7 -33.5t1.5 -29zM387 589 q0 6 13 29.5t30 49.5t33.5 46.5t22.5 20.5q2 0 13 -6.5t25.5 -16.5t31 -22.5t30.5 -23.5t23 -20t9 -12q0 -4 -6.5 -16t-16 -28.5t-21.5 -34.5t-23 -32.5t-19.5 -24.5t-11.5 -10q-6 0 -27.5 14t-45 32t-42 34t-18.5 21zM430 226q-6 0 -27 14t-44 32t-41 34t-18 20q0 6 13 29 t29.5 48.5t32 46t20.5 20.5q3 0 23 -14.5t43 -31.5l60 -46q7 -5 13 -5q3 0 8 8q23 31 41 57q16 22 31 40t20 18q2 0 12.5 -6.5t25.5 -17t31 -22.5t30 -23t23 -19.5t9 -11.5q0 -4 -6.5 -16t-16.5 -28.5t-21.5 -34.5t-22.5 -32.5t-19 -24.5t-10 -10q-8 0 -27.5 14t-41.5 31 q-26 20 -55 46q-6 7 -11 7q-6 0 -13 -10l-42 -56q-17 -21 -31 -38.5t-18 -17.5z" />
<glyph unicode="&#x641;" horiz-adv-x="510" arabic-form="initial" d="M453 374q0 -71 -15.5 -125.5t-52.5 -108.5q-12 -18 -40.5 -42t-73.5 -46t-106.5 -37t-139.5 -15h-37q-19 0 -30 11.5t-16.5 28t-7 34t-1.5 29.5t1.5 29t7 33.5t16.5 28t30 11.5h37q91 0 157 13t109 31.5t63 39t20 35.5t-12.5 36.5t-26.5 36.5q-6 -20 -19 -42t-32.5 -40 t-44.5 -30t-54 -12q-27 0 -52 6.5t-43.5 23t-30 43.5t-11.5 68q0 21 7.5 54t21 71t31.5 76t39.5 69t44.5 50.5t47 19.5q34 0 71.5 -34t69 -88.5t52.5 -122.5t21 -135zM257 501q0 3 -6.5 10t-17.5 14.5t-24.5 13t-26.5 5.5q-11 0 -21 -12t-10 -23q0 -12 10 -28.5t33 -16.5 q12 0 23 5t20 11t14.5 12t5.5 9zM319 993q0 -4 -6.5 -16.5t-16.5 -29.5t-22.5 -36t-24 -34.5t-21.5 -26t-14 -10.5q-3 0 -25.5 14.5t-47.5 33t-45.5 36t-20.5 22.5q0 4 6.5 17t17 30t23 36t24 34.5t20.5 26t13 10.5q6 0 28.5 -15t47.5 -33.5t44.5 -36t19.5 -22.5z" />
<glyph unicode="&#x641;" horiz-adv-x="632" arabic-form="medial" d="M699 103q0 -12 -1.5 -29.5t-7 -34t-16.5 -28t-30 -11.5h-37q-54 0 -102 9t-88 21.5t-70.5 27t-49.5 25.5q-19 -10 -49 -24.5t-66 -27.5t-76.5 -22t-80.5 -9h-37q-19 0 -30 11.5t-16.5 28t-7 34t-1.5 29.5t1.5 29t7 33.5t16.5 28t30 11.5h37q37 0 77 5t65 11q-5 9 -9 29 t-4 42q0 28 8.5 60.5t22.5 66t33.5 67.5t42.5 64q21 28 43 51.5t44.5 41t44 27.5t40.5 10q35 0 60.5 -25.5t42.5 -61.5t25.5 -75t8.5 -66q0 -118 -93 -227q31 -9 63 -14.5t67 -5.5h37q19 0 30 -11.5t16.5 -28t7 -33.5t1.5 -29zM483 393q0 9 -7 23.5t-21 28t-34 23t-45 9.5 q-13 0 -32.5 -7t-38 -17.5t-32 -23t-13.5 -24.5t10.5 -28.5t26 -33.5t33 -32.5t31.5 -25.5q24 12 46 25t39 27t27 28t10 28zM529 932q0 -4 -6.5 -16.5t-16.5 -29.5t-22.5 -36t-24 -34.5t-21.5 -26t-14 -10.5q-3 0 -25.5 14.5t-47.5 33t-45.5 36t-20.5 22.5q0 4 6.5 17t17 30 t23 36t24 34.5t20.5 26t13 10.5q6 0 28.5 -15t47.5 -33.5t44.5 -36t19.5 -22.5z" />
<glyph unicode="&#x641;" horiz-adv-x="1556" arabic-form="final" d="M1623 103q0 -12 -1.5 -29.5t-7 -34t-16.5 -28t-30 -11.5h-38q-47 0 -83.5 5t-66 13.5t-54 20t-48.5 25.5q-68 -38 -159.5 -75t-191 -66t-201.5 -46.5t-191 -17.5q-86 0 -166 16.5t-142 51.5t-99.5 91t-37.5 135q0 57 19.5 108.5t43.5 90t45 61t24 22.5l29 -20 q0 -3 -11.5 -17.5t-25 -37t-25 -53t-11.5 -64.5q0 -37 21.5 -65t56 -48t78 -33t87 -20.5t83.5 -10.5t68 -3q44 0 92 4.5t96.5 12t95.5 18t88 22.5q47 14 83 27.5t74 34.5l3 6q-8 7 -16 17.5t-14.5 22.5t-10.5 24.5t-4 22.5q0 33 11.5 77t30.5 90t43.5 90.5t51 79t53 56 t49.5 21.5t45 -14.5t41 -37.5t34.5 -52t27 -58t17.5 -55.5t6 -44.5q0 -29 -4.5 -53.5t-12 -47.5t-19 -47.5t-24.5 -53.5q16 -11 48 -15.5t73 -4.5h38q19 0 30 -11.5t16.5 -28t7 -33.5t1.5 -29zM1378 385q0 7 -8.5 22.5t-22 31t-30 27t-33.5 11.5q-12 0 -32.5 -11.5t-40 -28 t-34 -34.5t-14.5 -32q0 -15 8 -26.5t22.5 -21.5t35 -21t45.5 -25q57 38 80.5 63t23.5 45zM1408 944q0 -4 -6.5 -16.5t-16.5 -29.5t-22.5 -36t-24 -34.5t-21.5 -26t-14 -10.5q-3 0 -25.5 14.5t-47.5 33t-45.5 36t-20.5 22.5q0 4 6.5 17t17 30t23 36t24 34.5t20.5 26t13 10.5 q6 0 28.5 -15t47.5 -33.5t44.5 -36t19.5 -22.5z" />
<glyph unicode="&#x642;" horiz-adv-x="510" arabic-form="initial" d="M453 374q0 -71 -15.5 -125.5t-52.5 -108.5q-12 -18 -40.5 -42t-73.5 -46t-106.5 -37t-139.5 -15h-37q-19 0 -30 11.5t-16.5 28t-7 34t-1.5 29.5t1.5 29t7 33.5t16.5 28t30 11.5h37q91 0 157 13t109 31.5t63 39t20 35.5t-12.5 36.5t-26.5 36.5q-6 -20 -19 -42t-32.5 -40 t-44.5 -30t-54 -12q-27 0 -52 6.5t-43.5 23t-30 43.5t-11.5 68q0 21 7.5 54t21 71t31.5 76t39.5 69t44.5 50.5t47 19.5q34 0 71.5 -34t69 -88.5t52.5 -122.5t21 -135zM257 501q0 3 -6.5 10t-17.5 14.5t-24.5 13t-26.5 5.5q-11 0 -21 -12t-10 -23q0 -12 10 -28.5t33 -16.5 q12 0 23 5t20 11t14.5 12t5.5 9zM298 1088q6 0 27 -14t44 -31.5t41 -34t18 -20.5t-6 -16t-15.5 -28t-21 -33.5t-22 -32t-19 -24t-11.5 -9.5q-4 0 -23.5 14t-42.5 31l-60 46q-6 6 -13 6q-3 0 -8 -9q-23 -32 -41 -58q-16 -22 -31 -39.5t-20 -17.5q-2 0 -12.5 6.5t-25.5 17 t-31 22.5t-30 23t-23 19.5t-9 11.5q0 4 6.5 16t16.5 28.5t21.5 34.5t22.5 32.5t19 24.5t10 10q7 0 27 -14.5t42 -31.5q26 -20 55 -45q6 -7 11 -7q3 0 5.5 2t7.5 9q23 30 42 55q16 21 30.5 38.5t18.5 17.5z" />
<glyph unicode="&#x642;" horiz-adv-x="632" arabic-form="medial" d="M699 103q0 -12 -1.5 -29.5t-7 -34t-16.5 -28t-30 -11.5h-37q-54 0 -102 9t-88 21.5t-70.5 27t-49.5 25.5q-19 -10 -49 -24.5t-66 -27.5t-76.5 -22t-80.5 -9h-37q-19 0 -30 11.5t-16.5 28t-7 34t-1.5 29.5t1.5 29t7 33.5t16.5 28t30 11.5h37q37 0 77 5t65 11q-5 9 -9 29 t-4 42q0 28 8.5 60.5t22.5 66t33.5 67.5t42.5 64q21 28 43 51.5t44.5 41t44 27.5t40.5 10q35 0 60.5 -25.5t42.5 -61.5t25.5 -75t8.5 -66q0 -118 -93 -227q31 -9 63 -14.5t67 -5.5h37q19 0 30 -11.5t16.5 -28t7 -33.5t1.5 -29zM483 393q0 9 -7 23.5t-21 28t-34 23t-45 9.5 q-13 0 -32.5 -7t-38 -17.5t-32 -23t-13.5 -24.5t10.5 -28.5t26 -33.5t33 -32.5t31.5 -25.5q24 12 46 25t39 27t27 28t10 28zM508 1067q6 0 27 -14t44 -31.5t41 -34t18 -20.5t-6 -16t-15.5 -28t-21 -33.5t-22 -32t-19 -24t-11.5 -9.5q-4 0 -23.5 14t-42.5 31l-60 46 q-6 6 -13 6q-3 0 -8 -9q-23 -32 -41 -58q-16 -22 -31 -39.5t-20 -17.5q-2 0 -12.5 6.5t-25.5 17t-31 22.5t-30 23t-23 19.5t-9 11.5q0 4 6.5 16t16.5 28.5t21.5 34.5t22.5 32.5t19 24.5t10 10q7 0 27 -14.5t42 -31.5q26 -20 55 -45q6 -7 11 -7q3 0 5.5 2t7.5 9q23 30 42 55 q16 21 30.5 38.5t18.5 17.5z" />
<glyph unicode="&#x642;" horiz-adv-x="1026" arabic-form="final" d="M1093 103q0 -12 -1.5 -29.5t-7 -34t-16.5 -28t-30 -11.5h-99q-8 -35 -18 -63.5t-27 -62.5q-24 -47 -71.5 -99.5t-115 -97.5t-153.5 -74.5t-187 -29.5q-62 0 -115 20t-91.5 57.5t-60 92t-21.5 123.5q0 48 11.5 94.5t28.5 88t37 76t37.5 59.5t30 39t14.5 14q6 0 17 -10 t11 -16q0 -3 -14 -26.5t-31 -57t-31 -71.5t-14 -70q0 -48 18 -86.5t51.5 -65.5t81 -41.5t106.5 -14.5q74 0 135 9t109.5 24.5t84 36.5t58.5 44q6 6 12 19t10.5 28.5t7.5 32t4 28.5q-14 -1 -30 -1q-14 -1 -31.5 -1h-37.5q-44 0 -76 13t-53.5 34t-32 47.5t-10.5 53.5 q0 55 18.5 113.5t46 106t59.5 78t60 30.5q43 0 75 -31t54 -74t33.5 -88.5t14.5 -75.5h94q19 0 30 -11.5t16.5 -28t7 -33.5t1.5 -29zM821 205q-4 14 -13 26.5t-22 22.5t-28.5 15.5t-31.5 5.5q-25 0 -36 -12.5t-11 -26.5q0 -22 39 -26.5t103 -4.5zM842 840q6 0 27 -14 t44 -31.5t41 -34t18 -20.5t-6 -16t-15.5 -28t-21 -33.5t-22 -32t-19 -24t-11.5 -9.5q-4 0 -23.5 14t-42.5 31l-60 46q-6 6 -13 6q-3 0 -8 -9q-23 -32 -41 -58q-16 -22 -31 -39.5t-20 -17.5q-2 0 -12.5 6.5t-25.5 17t-31 22.5t-30 23t-23 19.5t-9 11.5q0 4 6.5 16t16.5 28.5 t21.5 34.5t22.5 32.5t19 24.5t10 10q7 0 27 -14.5t42 -31.5q26 -20 55 -45q6 -7 11 -7q3 0 5.5 2t7.5 9q23 30 42 55q16 21 30.5 38.5t18.5 17.5z" />
<glyph unicode="&#x643;" horiz-adv-x="934" arabic-form="initial" d="M941 1038q-21 -26 -32.5 -57t-20 -58.5t-18 -47.5t-26.5 -24q-33 -9 -81 -21t-103.5 -26t-115 -30t-117 -32t-109 -32t-90 -30.5t-61.5 -26.5t-23 -21q0 -7 19.5 -16.5t51 -22.5t70.5 -30t77 -39q57 -32 90 -69.5t50 -73t22 -64t5 -42.5q0 -73 -21.5 -125t-78 -85.5 t-154 -49t-250.5 -15.5h-37q-19 0 -30 7t-16.5 20t-7 32.5t-1.5 43.5q0 25 1.5 44.5t7 32t16.5 19t30 6.5h37h86.5t87.5 0.5t77.5 2t56.5 3.5q39 4 62.5 7.5t37 8t18 10.5t4.5 16q0 13 -17.5 28.5t-42.5 30.5t-53 29t-50 24q-24 11 -51 21t-52 19.5t-46 18.5t-33 18 q-20 16 -28.5 51.5t-8.5 78.5q0 21 1 45.5t4.5 47t11 41t20.5 27.5q26 18 68 41t92.5 47t105.5 48t107 45t97.5 38.5t76.5 28.5q13 4 37 11.5t52.5 16t58.5 17t55 15.5t41.5 11.5t19.5 4.5q5 0 8.5 -7t11.5 -12z" />
<glyph unicode="&#x643;" horiz-adv-x="1006" arabic-form="medial" d="M1073 103q0 -12 -1.5 -29.5t-7 -34t-16.5 -28t-30 -11.5h-38q-35 0 -65 10.5t-60.5 29.5t-63 46.5t-73.5 62t-92.5 75t-118.5 86.5q4 -17 5 -41t1 -37q0 -117 -122.5 -174.5t-365.5 -57.5h-37q-19 0 -30 11.5t-16.5 28t-7 34t-1.5 29.5t1.5 29t7 33.5t16.5 28t30 11.5h37 q114 0 191 10t123.5 25.5t66.5 35t20 39.5q0 23 -35 57t-97 66q-19 10 -41.5 19.5t-43.5 18.5t-37.5 17t-22.5 15q-11 12 -21.5 29t-18.5 36.5t-13.5 39.5t-5.5 38q0 7 3 26.5t11 43.5t23 49t38 43q51 40 125.5 82t156.5 82t164 75t149 61t110 41.5t48 15.5q3 0 10.5 -6.5 t7.5 -9.5q0 -2 -5 -17.5t-12 -37.5t-16 -47.5t-17 -47t-14.5 -36t-8.5 -15.5q-81 -23 -164.5 -49t-161 -52.5t-146 -52.5t-119.5 -50t-81 -45t-31 -36q0 -5 20.5 -10.5t50.5 -13t65 -17t63 -21.5q43 -18 85.5 -40t82.5 -46t76.5 -49t68.5 -49q75 -56 123.5 -96.5t81 -67.5 t55.5 -40t48 -13h38q19 0 30 -11.5t16.5 -28t7 -33.5t1.5 -29z" />
<glyph unicode="&#x643;" horiz-adv-x="1416" arabic-form="final" d="M1484 103q0 -29 -1.5 -49t-7 -32t-16.5 -17t-30 -5h-39q-47 0 -77.5 9.5t-52.5 34.5t-40 69t-40 112q-9 -18 -21 -44t-28.5 -54t-38 -55t-49.5 -47q-33 -24 -89 -51.5t-131 -51.5t-168 -39.5t-201 -15.5q-112 0 -186 21t-117.5 56.5t-61 83t-17.5 101.5q0 18 4.5 45.5 t12 59t15.5 63.5t15.5 57.5t13 41.5t6.5 16q19 0 28 -10t9 -15q0 -4 -3 -19t-6 -34t-6 -38.5t-3 -32.5q0 -99 84.5 -146t242.5 -47q37 0 86.5 4.5t105.5 12.5t113.5 20t110.5 27.5t97 34t72 40.5q39 31 55.5 74.5t16.5 89.5q0 77 -9.5 155.5t-21 146t-21 118.5t-9.5 73 q0 27 9.5 54t23.5 48t30.5 34.5t31.5 13.5q16 0 23 -19.5t9 -50.5q2 -34 5.5 -80.5t6.5 -99t6 -105.5t6 -99.5t5 -83t4 -53.5q5 -59 12 -101t22 -68.5t42 -38.5t73 -12h39q19 0 30 -6.5t16.5 -19.5t7 -32t1.5 -44zM784 565q0 -47 -21 -82.5t-50.5 -60t-60.5 -37t-51 -12.5 q-25 0 -49.5 6.5t-46.5 17t-39.5 24t-27.5 27.5q25 2 62.5 6.5t72 11t59 15t24.5 18.5q0 9 -12 12.5t-29.5 6t-38 5t-38 8.5t-29.5 18t-12 34q0 28 10 62t34 69.5t63.5 71t98.5 67.5q2 -5 6.5 -23t9.5 -39t8.5 -39t4.5 -22q-17 2 -37.5 -2.5t-38.5 -13t-30.5 -19.5 t-12.5 -21q-1 -19 11.5 -27t31.5 -11t41.5 -4t41.5 -7t32 -19.5t13 -40.5z" />
<glyph unicode="&#x644;" horiz-adv-x="411" arabic-form="initial" d="M289 396q0 -13 -1.5 -33t-5.5 -44t-11 -51t-17 -54q-14 -36 -34 -74t-47.5 -69t-63.5 -51t-82 -20h-39q-19 0 -30 7t-16.5 20t-7 32t-1.5 44q0 19 1.5 37.5t7 32.5t16.5 23t30 9h39q37 0 69.5 5.5t56 18.5t37 35t13.5 54q0 19 -7 59.5t-18 93.5t-23.5 114t-23.5 120 t-18 112t-7 91q0 26 10 53t25.5 49.5t33.5 36.5t33 14q1 0 10 -10.5t22 -26t27.5 -34t27 -34.5t21 -27.5t8.5 -12.5q0 -2 -9.5 -10t-21.5 -21.5t-21.5 -32.5t-9.5 -43q0 -40 4 -93.5t9.5 -110.5t9.5 -112t4 -97z" />
<glyph unicode="&#x644;" horiz-adv-x="453" arabic-form="medial" d="M432 0q-45 0 -76 13.5t-53.5 39t-39.5 61.5t-32 81q-13 -53 -30.5 -90t-42.5 -60.5t-58.5 -34t-77.5 -10.5h-39q-12 0 -21.5 3.5t-15.5 14.5t-9.5 31.5t-3.5 54.5q0 48 12 74.5t38 26.5h39q39 0 66.5 6t49.5 22q17 13 27 39.5t15.5 60t7 70.5t1.5 70q0 55 -5.5 115.5 t-12.5 114.5t-12.5 97.5t-5.5 65.5q0 31 10.5 59.5t25.5 51t31.5 36t27.5 13.5q17 0 23.5 -23t8.5 -57q3 -59 5.5 -129t5 -140.5t5.5 -136t7 -115.5q4 -62 12 -104t22.5 -67.5t37.5 -37t57 -11.5h39q11 0 20.5 -4t16 -15t10 -30.5t3.5 -51.5q0 -53 -13.5 -78.5t-36.5 -25.5 h-39z" />
<glyph unicode="&#x644;" horiz-adv-x="929" arabic-form="final" d="M900 0q-60 0 -104 45t-67 130q8 -69 12.5 -142t4.5 -142v-23.5t-2 -30.5q-2 -32 -9 -66t-18 -60q-24 -54 -65 -97.5t-95.5 -75t-121 -48.5t-142.5 -17q-29 0 -74.5 10t-89 37.5t-75 77t-31.5 128.5q0 36 9.5 78t23.5 83t31 79.5t33 67.5t27.5 46.5t15.5 17.5q2 0 7 -3 t10 -7.5t9 -9t4 -6.5q0 -5 -10.5 -26t-22.5 -50.5t-22.5 -65.5t-10.5 -71q0 -51 13.5 -86t40 -56.5t64.5 -31.5t87 -10q60 0 111.5 10t92.5 26.5t70 38.5t44 47q16 26 16 97q0 24 -2 62.5t-5.5 93t-9.5 127.5t-14 167q-6 71 -12 145t-10.5 142t-7.5 126.5t-3 99.5 q0 29 15.5 53t34.5 41.5t36.5 27.5t22.5 10q1 0 3.5 -34t6 -90.5t9 -130.5t14 -154t19.5 -160.5t26 -150.5q8 -35 34 -49.5t77 -14.5h46q11 0 20.5 -3t16 -13.5t10 -30t3.5 -53.5q0 -57 -13.5 -81t-36.5 -24h-46z" />
<glyph unicode="&#x645;" horiz-adv-x="639" arabic-form="initial" d="M559 252q0 -26 -10 -58.5t-25 -61t-33.5 -47.5t-36.5 -19q-24 0 -54 10t-61.5 25.5t-61 33.5t-51.5 35q-13 -23 -28.5 -45t-30.5 -40t-27 -31t-19 -18q-15 -12 -41 -24t-55 -12h-37q-19 0 -30 11.5t-16.5 28t-7 34t-1.5 29.5t1.5 29t7 33.5t16.5 28t30 11.5h37 q60 0 101.5 25.5t72.5 64t53.5 82.5t43.5 81q28 48 56 74.5t67 26.5q23 0 39.5 -9t31.5 -34q12 -21 24.5 -56t22.5 -73.5t16 -75t6 -59.5zM427 310q0 11 -7.5 25t-19 27t-25 21.5t-25.5 8.5q-16 0 -25.5 -15.5t-9.5 -25.5q0 -3 2 -7t10 -9q10 -6 24 -12.5t27.5 -12.5 t24.5 -10t14 -4q10 0 10 14z" />
<glyph unicode="&#x645;" horiz-adv-x="830" arabic-form="medial" d="M897 103q0 -12 -1.5 -29.5t-7 -34t-16.5 -28t-30 -11.5h-37q-33 0 -69 9.5t-69 25.5t-61 36t-44 41q0 -24 -2.5 -48t-10 -42.5t-21.5 -30t-37 -11.5q-26 0 -54 12t-58.5 32t-63 46t-66.5 55q-21 -24 -47.5 -46.5t-55.5 -40t-59.5 -28t-61.5 -10.5h-37q-19 0 -30 11.5 t-16.5 28t-7 34t-1.5 29.5t1.5 29t7 33.5t16.5 28t30 11.5h37q58 0 97 11t67 28.5t49 39t42 41.5q1 2 16 20.5t36 39.5t45 38.5t45 17.5q16 0 29 -7t24 -18t22.5 -25t24.5 -28q26 -28 57.5 -56t67.5 -50.5t75.5 -37t82.5 -14.5h37q19 0 30 -11.5t16.5 -28t7 -33.5t1.5 -29z M460 203q0 14 -6.5 36t-16 43t-21.5 36.5t-23 15.5q-9 0 -18 -9.5t-17 -20.5t-13 -21.5t-5 -11.5q0 -6 15 -19.5t34.5 -27t37 -23.5t23.5 -10q5 0 7.5 2t2.5 10z" />
<glyph unicode="&#x645;" horiz-adv-x="838" arabic-form="final" d="M905 103q0 -12 -1.5 -29.5t-7 -34t-16.5 -28t-30 -11.5h-37q-44 0 -79 2.5t-66 8.5t-60.5 15t-60.5 21q1 -9 1.5 -23t1 -29t1 -29t0.5 -23q0 -29 -8 -57.5t-21.5 -50.5t-30.5 -35.5t-35 -13.5q-33 0 -64 28t-55 71t-38.5 94.5t-14.5 98.5q-40 -11 -66.5 -22.5t-42.5 -27 t-22.5 -36.5t-6.5 -49q0 -21 6 -60t15 -88t20 -102t20 -101t15 -86.5t6 -56.5q0 -14 -7.5 -42t-19 -56t-23.5 -49t-21 -21q-5 0 -8.5 12t-7.5 33t-7.5 49.5t-8.5 61.5q-10 67 -21.5 136t-21 130.5t-15.5 111.5t-6 80q0 50 9.5 109t30.5 114.5t54.5 102t81.5 70.5 q67 34 99 56t42 22q8 0 34 -25.5t77 -56.5t130.5 -56.5t193.5 -25.5h37q19 0 30 -11.5t16.5 -28t7 -33.5t1.5 -29z" />
<glyph unicode="&#x646;" horiz-adv-x="439" arabic-form="initial" d="M355 354q0 -72 -22.5 -136t-65.5 -112.5t-105 -77t-140 -28.5h-39q-23 0 -36.5 21.5t-13.5 82.5q0 30 4.5 50t12 31t16.5 15.5t17 4.5h39q24 0 54.5 1t60.5 4t55.5 7.5t39.5 12.5q19 11 27 23.5t8 20.5q0 19 -18.5 39t-40 39t-40 36.5t-18.5 31.5q0 6 10 30t25 54.5 t34 62.5t37 55q17 -26 34.5 -58.5t32 -68t23.5 -72t9 -69.5zM343 888q0 -4 -6.5 -16.5t-16.5 -29.5t-22.5 -36t-24 -34.5t-21.5 -26t-14 -10.5q-3 0 -25.5 14.5t-47.5 33t-45.5 36t-20.5 22.5q0 4 6.5 17t17 30t23 36t24 34.5t20.5 26t13 10.5q6 0 28.5 -15t47.5 -33.5 t44.5 -36t19.5 -22.5z" />
<glyph unicode="&#x646;" horiz-adv-x="427" arabic-form="medial" d="M496 104q0 -49 -9 -76.5t-46 -27.5h-39q-28 0 -46.5 7t-38.5 24q-17 14 -32 37t-25 52q-18 -24 -38.5 -45.5t-48.5 -38t-64 -26.5t-84 -10h-37q-19 0 -30 6.5t-16.5 20t-7 32.5t-1.5 45q0 24 1.5 42.5t7 31.5t16.5 20t30 7h37q52 0 90.5 9.5t65.5 24.5t44.5 31.5t30 31.5 t20.5 24.5t16 9.5q6 0 13 -9t15 -46q3 -13 7.5 -26.5t14 -24.5t24 -18t36.5 -7h39q37 0 46 -26t9 -75zM338 584q0 -4 -6.5 -16.5t-16.5 -29.5t-22.5 -36t-24 -34.5t-21.5 -26t-14 -10.5q-3 0 -25.5 14.5t-47.5 33t-45.5 36t-20.5 22.5q0 4 6.5 17t17 30t23 36t24 34.5 t20.5 26t13 10.5q6 0 28.5 -15t47.5 -33.5t44.5 -36t19.5 -22.5z" />
<glyph unicode="&#x646;" horiz-adv-x="1030" arabic-form="final" d="M1097 103q0 -12 -1.5 -29.5t-7 -34t-16.5 -28t-30 -11.5h-37q-8 0 -19.5 0.5t-23.5 3t-23 6t-17 9.5q0 -50 -5.5 -100t-16.5 -96t-28 -87t-39 -74q-12 -18 -45 -48t-87.5 -59.5t-132 -51t-178.5 -21.5q-87 0 -152 24t-108 63.5t-64 90t-21 104.5q0 49 11 96t27.5 88.5 t36 76t36.5 59.5t29.5 39t14.5 14q8 0 18.5 -11t10.5 -18q0 -5 -14.5 -24.5t-32.5 -51t-32.5 -74t-14.5 -94.5q0 -55 25.5 -91t70 -57.5t104 -30t128.5 -8.5q44 0 92.5 6t92.5 17.5t79.5 27.5t55.5 36q23 24 39.5 71.5t16.5 104.5q0 23 -5.5 46t-13.5 43.5t-17.5 37.5 t-18.5 28q-8 11 -19.5 22.5t-11.5 14.5t6 18t15.5 35.5t20.5 43.5t21 42.5t17 32.5t9 13q6 0 15 -3.5t14 -13.5q4 -9 17 -25t31.5 -31.5t40.5 -27t45 -11.5h37q19 0 30 -11.5t16.5 -28t7 -33.5t1.5 -29zM614 424q0 -4 -6.5 -16.5t-16.5 -29.5t-22.5 -36t-24 -34.5t-21.5 -26 t-14 -10.5q-3 0 -25.5 14.5t-47.5 33t-45.5 36t-20.5 22.5q0 4 6.5 17t17 30t23 36t24 34.5t20.5 26t13 10.5q6 0 28.5 -15t47.5 -33.5t44.5 -36t19.5 -22.5z" />
<glyph unicode="&#x647;" horiz-adv-x="803" arabic-form="initial" d="M721 283q0 -117 -34.5 -167t-92.5 -50q-37 0 -76 7t-76.5 17.5t-71 23t-60.5 22.5q-9 -9 -34.5 -31.5t-63 -45.5t-85.5 -41t-102 -18h-37q-19 0 -30 11.5t-16.5 28t-7 34t-1.5 29.5t1.5 29t7 33.5t16.5 28t30 11.5h37q46 0 80 4.5t54 10.5q-24 18 -36 39.5t-12 38.5 q0 20 8.5 50t25 64.5t39.5 72t52 72.5q-11 2 -17.5 2.5t-15.5 0.5q-15 0 -21 6t-6 11q0 16 11 47t29.5 61.5t43 53.5t51.5 23q41 0 88 -26t92.5 -68t87 -95t73 -106t50.5 -101.5t19 -82.5zM407 417q0 9 -8.5 23.5t-20.5 28t-25.5 23.5t-23.5 10q-13 0 -31.5 -10t-36 -25 t-30 -32t-12.5 -31q0 -11 10 -22.5t25.5 -23.5t33.5 -23t35 -20q13 10 28 23t27.5 27t20.5 27.5t8 24.5zM648 246q-5 18 -22 49t-40 63.5t-49.5 60t-49.5 37.5q-8 -57 -27 -102.5t-44 -79.5q6 -3 26.5 -9.5t48.5 -14t61 -13t65 -5.5q5 0 17.5 3t13.5 11z" />
<glyph unicode="&#x647;" horiz-adv-x="844" arabic-form="medial" d="M912 103q0 -12 -1.5 -29.5t-7 -34t-16.5 -28t-30 -11.5h-37h-56t-66 -1t-67 -3t-58 -6q26 -17 45 -52t19 -80q0 -62 -16 -113t-42 -88.5t-60 -58t-70 -20.5q-29 0 -57 13t-52.5 35.5t-44 52.5t-31.5 64q-12 32 -21.5 67t-16.5 68t-12.5 62t-8.5 50q-41 6 -89 8t-91 2h-37 q-19 0 -30 11.5t-16.5 28t-7 34t-1.5 29.5t1.5 29t7 33.5t16.5 28t30 11.5h37q25 0 52.5 0.5t53.5 1.5t47.5 3.5t35.5 6.5q21 50 46.5 102t54.5 101.5t59.5 93t61 76t60 51.5t55.5 19q22 0 38.5 -22t26.5 -54t15 -67t5 -60q0 -29 -10.5 -69t-31.5 -80.5t-53.5 -76.5 t-77.5 -57q3 0 21 2.5t45.5 5.5t61 7.5t67.5 7.5t65 5.5t54 2.5h80q19 0 30 -11.5t16.5 -28t7 -33.5t1.5 -29zM533 375q0 19 -10 38t-41 19q-20 0 -47 -20t-54 -50t-49 -65.5t-32 -66.5q50 13 93 29.5t74 35t48.5 39t17.5 41.5zM551 -178q0 18 -20 41.5t-55 46.5t-82 42.5 t-102 29.5q6 -24 24 -58.5t44.5 -65.5t58.5 -53t66 -22t50 12.5t16 26.5z" />
<glyph unicode="&#x647;" horiz-adv-x="645" arabic-form="final" d="M712 103q0 -12 -1.5 -29.5t-7 -34t-16.5 -28t-30 -11.5h-37q-46 0 -79.5 9t-58.5 31t-43 59.5t-31 95.5q-12 -17 -29 -35.5t-37.5 -33.5t-44.5 -24.5t-50 -9.5q-21 0 -53.5 4t-62.5 13.5t-52 25t-22 38.5q0 12 6.5 35t17.5 49.5t25 53.5t29 49q13 19 40.5 45.5t59.5 52.5 t63 46.5t49 28.5q-1 9 -1.5 15.5t-0.5 15.5v10t1 10q2 22 13 44.5t25.5 41t28.5 30t22 11.5q1 0 3.5 -14.5t6.5 -37.5t9 -52l10 -58q7 -45 15 -90t14.5 -82.5t11.5 -64.5t7 -34q4 -17 9 -30t15.5 -23t30 -15t53.5 -5h37q19 0 30 -11.5t16.5 -28t7 -33.5t1.5 -29zM388 302 q-5 23 -11 62t-13 75q-38 -16 -68.5 -37.5t-51.5 -42t-32.5 -36t-11.5 -18.5t12.5 -6.5t31.5 -6.5t41.5 -4.5t42.5 -1.5q25 0 37 4t23 12z" />
<glyph unicode="&#x648;" horiz-adv-x="653" arabic-form="final" d="M721 103q0 -12 -1.5 -29.5t-7 -34t-16.5 -28t-30 -11.5h-39q-11 0 -25 -0.5t-28 -0.5q-16 -1 -32 -1q-9 -34 -22.5 -78.5t-32 -91.5t-43 -93t-56.5 -83q-53 -59 -104 -89t-105 -30q-23 0 -53.5 10.5t-62 26.5t-62 35t-54.5 36t-38.5 29t-14.5 15t2.5 8t6.5 10.5t8.5 9 t8.5 3.5t16.5 -4t30 -8.5t39.5 -8.5t47 -4q49 0 111.5 23.5t122 65t105.5 97t62 119.5q-56 3 -98 10t-70 24t-42.5 46t-14.5 76q0 30 8.5 68t23.5 77.5t34 77t40.5 66.5t43 47t40.5 18q18 0 35 -17t32.5 -44t28.5 -60.5t22.5 -67t15 -63.5t5.5 -49h108q19 0 30 -11.5 t16.5 -28t7 -33.5t1.5 -29zM467 207q0 8 -8.5 24t-22.5 31.5t-31 27t-34 11.5q-6 0 -13.5 -5.5t-13.5 -13.5t-10.5 -16.5t-4.5 -15.5q0 -14 36 -27.5t102 -15.5z" />
<glyph unicode="&#x649;" horiz-adv-x="439" d="M355 354q0 -72 -22.5 -136t-65.5 -112.5t-105 -77t-140 -28.5h-39q-23 0 -36.5 21.5t-13.5 82.5q0 30 4.5 50t12 31t16.5 15.5t17 4.5h39q24 0 54.5 1t60.5 4t55.5 7.5t39.5 12.5q19 11 27 23.5t8 20.5q0 19 -18.5 39t-40 39t-40 36.5t-18.5 31.5q0 6 10 30t25 54.5 t34 62.5t37 55q17 -26 34.5 -58.5t32 -68t23.5 -72t9 -69.5z" />
<glyph unicode="&#x649;" horiz-adv-x="427" d="M496 104q0 -49 -9 -76.5t-46 -27.5h-39q-28 0 -46.5 7t-38.5 24q-17 14 -32 37t-25 52q-18 -24 -38.5 -45.5t-48.5 -38t-64 -26.5t-84 -10h-37q-19 0 -30 6.5t-16.5 20t-7 32.5t-1.5 45q0 24 1.5 42.5t7 31.5t16.5 20t30 7h37q52 0 90.5 9.5t65.5 24.5t44.5 31.5t30 31.5 t20.5 24.5t16 9.5q6 0 13 -9t15 -46q3 -13 7.5 -26.5t14 -24.5t24 -18t36.5 -7h39q37 0 46 -26t9 -75z" />
<glyph unicode="&#x649;" horiz-adv-x="1140" arabic-form="final" d="M1207 103q0 -12 -1.5 -29.5t-7 -34t-16.5 -28t-30 -11.5h-97q-14 0 -46.5 -0.5t-68.5 -1.5t-68.5 -3.5t-46.5 -6.5q-34 -10 -54.5 -24t-20.5 -30q0 -8 23 -16.5t77 -14.5q47 -5 82 -13t58 -22.5t34.5 -38.5t11.5 -61q0 -31 -19.5 -68t-55.5 -74t-87 -71.5t-113 -61.5 t-134.5 -43t-150.5 -16q-110 0 -184.5 28.5t-120.5 76.5t-65.5 110.5t-19.5 130.5q0 44 11.5 91t28.5 91.5t37.5 84t38 69.5t30 47.5t13.5 17.5q3 0 9 -2.5t12 -6t10.5 -7.5t4.5 -6q0 -3 -14 -27.5t-30.5 -63.5t-30 -89t-13.5 -105t20 -99.5t61.5 -76t105 -48.5t149.5 -17 q24 0 63.5 4.5t84 12t90 17.5t82 21t59.5 22t23 22q0 22 -36.5 26.5t-102.5 6.5q-47 1 -78.5 10t-50 24.5t-26 37t-7.5 48.5q0 32 13 64t35 63t50.5 59.5t60.5 52t65 41.5t64 27q10 3 28.5 5.5t38.5 4t39.5 2.5t30.5 1h97q19 0 30 -11.5t16.5 -28t7 -33.5t1.5 -29z" />
<glyph unicode="&#x64a;" horiz-adv-x="439" arabic-form="initial" d="M355 354q0 -72 -22.5 -136t-65.5 -112.5t-105 -77t-140 -28.5h-39q-23 0 -36.5 21.5t-13.5 82.5q0 30 4.5 50t12 31t16.5 15.5t17 4.5h39q24 0 54.5 1t60.5 4t55.5 7.5t39.5 12.5q19 11 27 23.5t8 20.5q0 19 -18.5 39t-40 39t-40 36.5t-18.5 31.5q0 6 10 30t25 54.5 t34 62.5t37 55q17 -26 34.5 -58.5t32 -68t23.5 -72t9 -69.5zM286 -74q6 0 27 -14t44 -31.5t41 -34t18 -20.5t-6 -16t-15.5 -28t-21 -33.5t-22 -32t-19 -24t-11.5 -9.5q-4 0 -23.5 14t-42.5 31l-60 46q-6 6 -13 6q-3 0 -8 -9q-23 -32 -41 -58q-16 -22 -31 -39.5t-20 -17.5 q-2 0 -12.5 6.5t-25.5 17t-31 22.5t-30 23t-23 19.5t-9 11.5q0 4 6.5 16t16.5 28.5t21.5 34.5t22.5 32.5t19 24.5t10 10q7 0 27 -14.5t42 -31.5q26 -20 55 -45q6 -7 11 -7q3 0 5.5 2t7.5 9q23 30 42 55q16 21 30.5 38.5t18.5 17.5z" />
<glyph unicode="&#x64a;" horiz-adv-x="427" arabic-form="medial" d="M496 104q0 -49 -9 -76.5t-46 -27.5h-39q-28 0 -46.5 7t-38.5 24q-17 14 -32 37t-25 52q-18 -24 -38.5 -45.5t-48.5 -38t-64 -26.5t-84 -10h-37q-19 0 -30 6.5t-16.5 20t-7 32.5t-1.5 45q0 24 1.5 42.5t7 31.5t16.5 20t30 7h37q52 0 90.5 9.5t65.5 24.5t44.5 31.5t30 31.5 t20.5 24.5t16 9.5q6 0 13 -9t15 -46q3 -13 7.5 -26.5t14 -24.5t24 -18t36.5 -7h39q37 0 46 -26t9 -75zM318 -79q6 0 27 -14t44 -31.5t41 -34t18 -20.5t-6 -16t-15.5 -28t-21 -33.5t-22 -32t-19 -24t-11.5 -9.5q-4 0 -23.5 14t-42.5 31l-60 46q-6 6 -13 6q-3 0 -8 -9 q-23 -32 -41 -58q-16 -22 -31 -39.5t-20 -17.5q-2 0 -12.5 6.5t-25.5 17t-31 22.5t-30 23t-23 19.5t-9 11.5q0 4 6.5 16t16.5 28.5t21.5 34.5t22.5 32.5t19 24.5t10 10q7 0 27 -14.5t42 -31.5q26 -20 55 -45q6 -7 11 -7q3 0 5.5 2t7.5 9q23 30 42 55q16 21 30.5 38.5 t18.5 17.5z" />
<glyph unicode="&#x64a;" horiz-adv-x="1140" arabic-form="final" d="M1207 103q0 -12 -1.5 -29.5t-7 -34t-16.5 -28t-30 -11.5h-97q-14 0 -46.5 -0.5t-68.5 -1.5t-68.5 -3.5t-46.5 -6.5q-34 -10 -54.5 -24t-20.5 -30q0 -8 23 -16.5t77 -14.5q47 -5 82 -13t58 -22.5t34.5 -38.5t11.5 -61q0 -31 -19.5 -68t-55.5 -74t-87 -71.5t-113 -61.5 t-134.5 -43t-150.5 -16q-110 0 -184.5 28.5t-120.5 76.5t-65.5 110.5t-19.5 130.5q0 44 11.5 91t28.5 91.5t37.5 84t38 69.5t30 47.5t13.5 17.5q3 0 9 -2.5t12 -6t10.5 -7.5t4.5 -6q0 -3 -14 -27.5t-30.5 -63.5t-30 -89t-13.5 -105t20 -99.5t61.5 -76t105 -48.5t149.5 -17 q24 0 63.5 4.5t84 12t90 17.5t82 21t59.5 22t23 22q0 22 -36.5 26.5t-102.5 6.5q-47 1 -78.5 10t-50 24.5t-26 37t-7.5 48.5q0 32 13 64t35 63t50.5 59.5t60.5 52t65 41.5t64 27q10 3 28.5 5.5t38.5 4t39.5 2.5t30.5 1h97q19 0 30 -11.5t16.5 -28t7 -33.5t1.5 -29zM569 -619 q6 0 27 -14t44 -31.5t41 -34t18 -20.5t-6 -16t-15.5 -28t-21 -33.5t-22 -32t-19 -24t-11.5 -9.5q-4 0 -23.5 14t-42.5 31l-60 46q-6 6 -13 6q-3 0 -8 -9q-23 -32 -41 -58q-16 -22 -31 -39.5t-20 -17.5q-2 0 -12.5 6.5t-25.5 17t-31 22.5t-30 23t-23 19.5t-9 11.5q0 4 6.5 16 t16.5 28.5t21.5 34.5t22.5 32.5t19 24.5t10 10q7 0 27 -14.5t42 -31.5q26 -20 55 -45q6 -7 11 -7q3 0 5.5 2t7.5 9q23 30 42 55q16 21 30.5 38.5t18.5 17.5z" />
<glyph unicode="&#x66e;" horiz-adv-x="439" d="M355 354q0 -72 -22.5 -136t-65.5 -112.5t-105 -77t-140 -28.5h-39q-23 0 -36.5 21.5t-13.5 82.5q0 30 4.5 50t12 31t16.5 15.5t17 4.5h39q24 0 54.5 1t60.5 4t55.5 7.5t39.5 12.5q19 11 27 23.5t8 20.5q0 19 -18.5 39t-40 39t-40 36.5t-18.5 31.5q0 6 10 30t25 54.5 t34 62.5t37 55q17 -26 34.5 -58.5t32 -68t23.5 -72t9 -69.5z" />
<glyph unicode="&#x66e;" horiz-adv-x="427" d="M496 104q0 -49 -9 -76.5t-46 -27.5h-39q-28 0 -46.5 7t-38.5 24q-17 14 -32 37t-25 52q-18 -24 -38.5 -45.5t-48.5 -38t-64 -26.5t-84 -10h-37q-19 0 -30 6.5t-16.5 20t-7 32.5t-1.5 45q0 24 1.5 42.5t7 31.5t16.5 20t30 7h37q52 0 90.5 9.5t65.5 24.5t44.5 31.5t30 31.5 t20.5 24.5t16 9.5q6 0 13 -9t15 -46q3 -13 7.5 -26.5t14 -24.5t24 -18t36.5 -7h39q37 0 46 -26t9 -75z" />
<glyph unicode="&#x66e;" horiz-adv-x="1498" d="M1566 103q0 -12 -1 -29.5t-6 -34t-14.5 -28t-26.5 -11.5h-40q-32 0 -58.5 4t-50 16.5t-44 36.5t-39.5 63q-44 -38 -117.5 -74t-168.5 -64.5t-207.5 -46t-234.5 -17.5q-114 0 -203 22.5t-150 63t-93 98t-32 128.5q0 61 18 117.5t40.5 99.5t43 69t24.5 26q1 0 6 -3t10 -7 t9 -8.5t4 -7.5q0 -4 -9.5 -18t-21.5 -37.5t-21.5 -55.5t-9.5 -71q0 -55 36.5 -93t98.5 -61.5t143.5 -34t171.5 -10.5q102 0 196.5 6.5t174.5 20t142 35t101 51.5q10 7 18.5 17t15.5 18t13.5 14t12.5 6q8 0 14.5 -6t11.5 -15t10.5 -19.5t12.5 -19.5q14 -17 45.5 -27.5 t86.5 -10.5h40q17 0 26.5 -11.5t14.5 -28t6 -33.5t1 -29z" />
<glyph unicode="&#x66f;" horiz-adv-x="510" d="M453 374q0 -71 -15.5 -125.5t-52.5 -108.5q-12 -18 -40.5 -42t-73.5 -46t-106.5 -37t-139.5 -15h-37q-19 0 -30 11.5t-16.5 28t-7 34t-1.5 29.5t1.5 29t7 33.5t16.5 28t30 11.5h37q91 0 157 13t109 31.5t63 39t20 35.5t-12.5 36.5t-26.5 36.5q-6 -20 -19 -42t-32.5 -40 t-44.5 -30t-54 -12q-27 0 -52 6.5t-43.5 23t-30 43.5t-11.5 68q0 21 7.5 54t21 71t31.5 76t39.5 69t44.5 50.5t47 19.5q34 0 71.5 -34t69 -88.5t52.5 -122.5t21 -135zM257 501q0 3 -6.5 10t-17.5 14.5t-24.5 13t-26.5 5.5q-11 0 -21 -12t-10 -23q0 -12 10 -28.5t33 -16.5 q12 0 23 5t20 11t14.5 12t5.5 9z" />
<glyph unicode="&#x66f;" horiz-adv-x="632" d="M699 103q0 -12 -1.5 -29.5t-7 -34t-16.5 -28t-30 -11.5h-37q-54 0 -102 9t-88 21.5t-70.5 27t-49.5 25.5q-19 -10 -49 -24.5t-66 -27.5t-76.5 -22t-80.5 -9h-37q-19 0 -30 11.5t-16.5 28t-7 34t-1.5 29.5t1.5 29t7 33.5t16.5 28t30 11.5h37q37 0 77 5t65 11q-5 9 -9 29 t-4 42q0 28 8.5 60.5t22.5 66t33.5 67.5t42.5 64q21 28 43 51.5t44.5 41t44 27.5t40.5 10q35 0 60.5 -25.5t42.5 -61.5t25.5 -75t8.5 -66q0 -118 -93 -227q31 -9 63 -14.5t67 -5.5h37q19 0 30 -11.5t16.5 -28t7 -33.5t1.5 -29zM483 393q0 9 -7 23.5t-21 28t-34 23t-45 9.5 q-13 0 -32.5 -7t-38 -17.5t-32 -23t-13.5 -24.5t10.5 -28.5t26 -33.5t33 -32.5t31.5 -25.5q24 12 46 25t39 27t27 28t10 28z" />
<glyph unicode="&#x66f;" horiz-adv-x="1026" d="M1093 103q0 -12 -1.5 -29.5t-7 -34t-16.5 -28t-30 -11.5h-99q-8 -35 -18 -63.5t-27 -62.5q-24 -47 -71.5 -99.5t-115 -97.5t-153.5 -74.5t-187 -29.5q-62 0 -115 20t-91.5 57.5t-60 92t-21.5 123.5q0 48 11.5 94.5t28.5 88t37 76t37.5 59.5t30 39t14.5 14q6 0 17 -10 t11 -16q0 -3 -14 -26.5t-31 -57t-31 -71.5t-14 -70q0 -48 18 -86.5t51.5 -65.5t81 -41.5t106.5 -14.5q74 0 135 9t109.5 24.5t84 36.5t58.5 44q6 6 12 19t10.5 28.5t7.5 32t4 28.5q-14 -1 -30 -1q-14 -1 -31.5 -1h-37.5q-44 0 -76 13t-53.5 34t-32 47.5t-10.5 53.5 q0 55 18.5 113.5t46 106t59.5 78t60 30.5q43 0 75 -31t54 -74t33.5 -88.5t14.5 -75.5h94q19 0 30 -11.5t16.5 -28t7 -33.5t1.5 -29zM821 205q-4 14 -13 26.5t-22 22.5t-28.5 15.5t-31.5 5.5q-25 0 -36 -12.5t-11 -26.5q0 -22 39 -26.5t103 -4.5z" />
<glyph unicode="&#x671;" horiz-adv-x="389" arabic-form="final" d="M261 1359q24 0 41 -8.5t28.5 -22t16.5 -30.5t5 -35q0 -27 -12 -57t-36 -55t-58.5 -41.5t-79.5 -16.5q-20 0 -46.5 0.5t-52.5 1.5t-48 1.5t-32 0.5q-28 0 -35 -4t-10 -12q-2 -5 -7 -16t-13 -11q-11 0 -11 26q0 7 2 22.5t9 32t20 31t35 20.5q8 2 22.5 3.5t31 2t32.5 0.5h28 q11 28 27.5 57.5t38.5 54t48 40t56 15.5zM285 1228q0 9 -6.5 18.5t-26.5 9.5q-12 0 -27 -6.5t-29.5 -16t-26 -21t-17.5 -20.5q69 0 101 9.5t32 26.5zM371 0q-89 0 -144.5 46t-73.5 153q-12 72 -23.5 174.5t-25.5 226.5q-5 45 -9.5 76.5t-7.5 55.5t-5 42t-2 35q0 15 15 45 t34 60.5t36 53.5t21 23q9 0 19.5 -13t11.5 -33q7 -142 11.5 -247.5t8 -184t7 -134t8.5 -96.5q3 -23 13.5 -38t26 -24t36 -12.5t43.5 -3.5h35q23 0 36.5 -19.5t13.5 -76.5q0 -61 -15 -85t-35 -24h-35z" />
<glyph unicode="&#x672;" horiz-adv-x="389" d="M325 1257q0 -3 -3.5 -14.5t-9.5 -24t-14 -24t-17 -14.5q-7 -2 -24.5 -8t-40 -14t-47 -17.5t-45.5 -17.5q-50 -19 -89 -38t-74 -19q-17 0 -34 6t-33.5 13.5t-32 13.5t-30.5 6t-32.5 -5.5t-33 -12.5t-27 -12.5t-15.5 -5.5q-14 0 -14 16q0 5 20.5 22.5t48.5 36.5t58 34 t49 15q16 0 30 -5t27 -11.5t25 -11.5t24 -5h10.5t10.5 1.5t16.5 5l28.5 9.5q-8 2 -17.5 7.5t-17.5 14t-14 19.5t-6 25q0 17 9 38t22 42t28 39.5t27 30.5q37 37 68.5 46t52.5 9q10 0 22 -4.5t22.5 -13t17 -20t6.5 -25.5q0 -13 -4 -28.5t-10 -29t-12.5 -22.5t-10.5 -9 t-14.5 6.5t-23.5 14.5t-27 14.5t-26 6.5q-20 0 -34 -12t-14 -23q0 -3 11.5 -12t28 -19t36 -18.5t34.5 -9.5q12 3 28 8t32 9.5t28 8t15 3.5q5 0 8 -4.5t3 -10.5zM371 0q-89 0 -144.5 46t-73.5 153q-12 72 -23.5 174.5t-25.5 226.5q-5 45 -9.5 76.5t-7.5 55.5t-5 42t-2 35 q0 15 15 45t34 60.5t36 53.5t21 23q9 0 19.5 -13t11.5 -33q7 -142 11.5 -247.5t8 -184t7 -134t8.5 -96.5q3 -23 13.5 -38t26 -24t36 -12.5t43.5 -3.5h35q23 0 36.5 -19.5t13.5 -76.5q0 -61 -15 -85t-35 -24h-35z" />
<glyph unicode="&#x673;" horiz-adv-x="389" d="M404 -304q0 -3 -3.5 -14.5t-9.5 -24t-14 -24t-17 -14.5q-7 -2 -24.5 -8t-40 -14t-47 -17.5t-45.5 -17.5q-50 -19 -89 -38t-74 -19q-17 0 -34 6t-33.5 13.5t-32 13.5t-30.5 6t-32.5 -5.5t-33 -12.5t-27 -12.5t-15.5 -5.5q-14 0 -14 16q0 5 20.5 22.5t48.5 36.5t58 34 t49 15q16 0 30 -5t27 -11.5t25 -11.5t24 -5h10.5t10.5 1.5t16.5 5l28.5 9.5q-8 2 -17.5 7.5t-17.5 14t-14 19.5t-6 25q0 17 9 38t22 42t28 39.5t27 30.5q37 37 68.5 46t52.5 9q10 0 22 -4.5t22.5 -13t17 -20t6.5 -25.5q0 -13 -4 -28.5t-10 -29t-12.5 -22.5t-10.5 -9 t-14.5 6.5t-23.5 14.5t-27 14.5t-26 6.5q-20 0 -34 -12t-14 -23q0 -3 11.5 -12t28 -19t36 -18.5t34.5 -9.5q12 3 28 8t32 9.5t28 8t15 3.5q5 0 8 -4.5t3 -10.5zM371 0q-89 0 -144.5 46t-73.5 153q-12 72 -23.5 174.5t-25.5 226.5q-5 45 -9.5 76.5t-7.5 55.5t-5 42t-2 35 q0 15 15 45t34 60.5t36 53.5t21 23q9 0 19.5 -13t11.5 -33q7 -142 11.5 -247.5t8 -184t7 -134t8.5 -96.5q3 -23 13.5 -38t26 -24t36 -12.5t43.5 -3.5h35q23 0 36.5 -19.5t13.5 -76.5q0 -61 -15 -85t-35 -24h-35z" />
<glyph unicode="&#x675;" horiz-adv-x="389" d="M371 0q-89 0 -144.5 46t-73.5 153q-12 72 -23.5 174.5t-25.5 226.5q-5 45 -9.5 76.5t-7.5 55.5t-5 42t-2 35q0 15 15 45t34 60.5t36 53.5t21 23q9 0 19.5 -13t11.5 -33q7 -142 11.5 -247.5t8 -184t7 -134t8.5 -96.5q3 -23 13.5 -38t26 -24t36 -12.5t43.5 -3.5h35 q23 0 36.5 -19.5t13.5 -76.5q0 -61 -15 -85t-35 -24h-35zM506 1266q0 -6 -4.5 -18.5t-11.5 -24.5t-14.5 -22t-13.5 -12t-25 -9t-43.5 -16.5t-50.5 -20t-46 -17.5q-49 -19 -84 -36t-43 -17q-5 0 -9 2.5t-4 10.5q0 5 3.5 15.5t8.5 21t10 19.5t7 12q3 3 10 8t15 9.5t15.5 8 t11.5 5.5q-8 2 -17.5 7.5t-17.5 14t-14 19.5t-6 25q0 17 9 38.5t22.5 42.5t28 39t26.5 30q19 19 37 30t33 16.5t28 7t23 1.5q11 0 23 -4.5t22 -13t16.5 -20t6.5 -25.5q0 -13 -4 -28.5t-10 -29t-12.5 -22.5t-10.5 -9t-14.5 6.5t-23.5 14.5t-27 14.5t-26 6.5q-20 0 -34 -12 t-14 -23q0 -3 11.5 -12.5t28.5 -19.5t36 -18t34 -9q12 3 28.5 8t32 9.5t27.5 8t15 3.5q11 0 11 -15z" />
<glyph unicode="&#x676;" horiz-adv-x="653" d="M721 103q0 -12 -1.5 -29.5t-7 -34t-16.5 -28t-30 -11.5h-39q-11 0 -25 -0.5t-28 -0.5q-16 -1 -32 -1q-9 -34 -22.5 -78.5t-32 -91.5t-43 -93t-56.5 -83q-53 -59 -104 -89t-105 -30q-23 0 -53.5 10.5t-62 26.5t-62 35t-54.5 36t-38.5 29t-14.5 15t2.5 8t6.5 10.5t8.5 9 t8.5 3.5t16.5 -4t30 -8.5t39.5 -8.5t47 -4q49 0 111.5 23.5t122 65t105.5 97t62 119.5q-56 3 -98 10t-70 24t-42.5 46t-14.5 76q0 30 8.5 68t23.5 77.5t34 77t40.5 66.5t43 47t40.5 18q18 0 35 -17t32.5 -44t28.5 -60.5t22.5 -67t15 -63.5t5.5 -49h108q19 0 30 -11.5 t16.5 -28t7 -33.5t1.5 -29zM467 207q0 8 -8.5 24t-22.5 31.5t-31 27t-34 11.5q-6 0 -13.5 -5.5t-13.5 -13.5t-10.5 -16.5t-4.5 -15.5q0 -14 36 -27.5t102 -15.5zM774 826q0 -6 -4.5 -18.5t-11.5 -24.5t-14.5 -22t-13.5 -12t-25 -9t-43.5 -16.5t-50.5 -20t-46 -17.5 q-49 -19 -84 -36t-43 -17q-5 0 -9 2.5t-4 10.5q0 5 3.5 15.5t8.5 21t10 19.5t7 12q3 3 10 8t15 9.5t15.5 8t11.5 5.5q-8 2 -17.5 7.5t-17.5 14t-14 19.5t-6 25q0 17 9 38.5t22.5 42.5t28 39t26.5 30q19 19 37 30t33 16.5t28 7t23 1.5q11 0 23 -4.5t22 -13t16.5 -20 t6.5 -25.5q0 -13 -4 -28.5t-10 -29t-12.5 -22.5t-10.5 -9t-14.5 6.5t-23.5 14.5t-27 14.5t-26 6.5q-20 0 -34 -12t-14 -23q0 -3 11.5 -12.5t28.5 -19.5t36 -18t34 -9q12 3 28.5 8t32 9.5t27.5 8t15 3.5q11 0 11 -15z" />
<glyph unicode="&#x677;" horiz-adv-x="653" d="M721 103q0 -12 -1.5 -29.5t-7 -34t-16.5 -28t-30 -11.5h-39q-11 0 -25 -0.5t-28 -0.5q-16 -1 -32 -1q-9 -34 -22.5 -78.5t-32 -91.5t-43 -93t-56.5 -83q-53 -59 -104 -89t-105 -30q-23 0 -53.5 10.5t-62 26.5t-62 35t-54.5 36t-38.5 29t-14.5 15t2.5 8t6.5 10.5t8.5 9 t8.5 3.5t16.5 -4t30 -8.5t39.5 -8.5t47 -4q49 0 111.5 23.5t122 65t105.5 97t62 119.5q-56 3 -98 10t-70 24t-42.5 46t-14.5 76q0 30 8.5 68t23.5 77.5t34 77t40.5 66.5t43 47t40.5 18q18 0 35 -17t32.5 -44t28.5 -60.5t22.5 -67t15 -63.5t5.5 -49h108q19 0 30 -11.5 t16.5 -28t7 -33.5t1.5 -29zM467 207q0 8 -8.5 24t-22.5 31.5t-31 27t-34 11.5q-6 0 -13.5 -5.5t-13.5 -13.5t-10.5 -16.5t-4.5 -15.5q0 -14 36 -27.5t102 -15.5zM276 993q43 0 65 -31.5t22 -80.5q0 -27 -11 -58t-30 -63l35 -24.5t22 -14.5q5 -3 5 -9q0 -8 -7 -23t-16 -30 t-17.5 -26.5t-11.5 -11.5q-6 0 -28.5 12t-51.5 32q-40 -45 -80.5 -73.5t-68.5 -28.5q-15 0 -34 4t-37.5 10t-34.5 13.5t-25 14.5q66 25 119.5 53.5t92.5 57.5q-28 25 -47.5 50.5t-19.5 48.5q0 21 11.5 51.5t32.5 58.5t50.5 48t64.5 20zM197 882q0 -14 20.5 -35.5t48.5 -44.5 q13 23 13 39q0 10 -4.5 21t-12.5 20.5t-19.5 16t-25.5 6.5q-13 0 -16.5 -8.5t-3.5 -14.5zM774 867q0 -6 -4.5 -18.5t-11.5 -24.5t-14.5 -22t-13.5 -12t-25 -9t-43.5 -16.5t-50.5 -20t-46 -17.5q-49 -19 -84 -36t-43 -17q-5 0 -9 2.5t-4 10.5q0 5 3.5 15.5t8.5 21t10 19.5 t7 12q3 3 10 8t15 9.5t15.5 8t11.5 5.5q-8 2 -17.5 7.5t-17.5 14t-14 19.5t-6 25q0 17 9 38.5t22.5 42.5t28 39t26.5 30q19 19 37 30t33 16.5t28 7t23 1.5q11 0 23 -4.5t22 -13t16.5 -20t6.5 -25.5q0 -13 -4 -28.5t-10 -29t-12.5 -22.5t-10.5 -9t-14.5 6.5t-23.5 14.5 t-27 14.5t-26 6.5q-20 0 -34 -12t-14 -23q0 -3 11.5 -12.5t28.5 -19.5t36 -18t34 -9q12 3 28.5 8t32 9.5t27.5 8t15 3.5q11 0 11 -15z" />
<glyph unicode="&#x678;" horiz-adv-x="439" d="M355 354q0 -72 -22.5 -136t-65.5 -112.5t-105 -77t-140 -28.5h-39q-23 0 -36.5 21.5t-13.5 82.5q0 30 4.5 50t12 31t16.5 15.5t17 4.5h39q24 0 54.5 1t60.5 4t55.5 7.5t39.5 12.5q19 11 27 23.5t8 20.5q0 19 -18.5 39t-40 39t-40 36.5t-18.5 31.5q0 6 10 30t25 54.5 t34 62.5t37 55q17 -26 34.5 -58.5t32 -68t23.5 -72t9 -69.5zM558 927q0 -6 -4.5 -18.5t-11.5 -24.5t-14.5 -22t-13.5 -12t-25 -9t-43.5 -16.5t-50.5 -20t-46 -17.5q-49 -19 -84 -36t-43 -17q-5 0 -9 2.5t-4 10.5q0 5 3.5 15.5t8.5 21t10 19.5t7 12q3 3 10 8t15 9.5t15.5 8 t11.5 5.5q-8 2 -17.5 7.5t-17.5 14t-14 19.5t-6 25q0 17 9 38.5t22.5 42.5t28 39t26.5 30q19 19 37 30t33 16.5t28 7t23 1.5q11 0 23 -4.5t22 -13t16.5 -20t6.5 -25.5q0 -13 -4 -28.5t-10 -29t-12.5 -22.5t-10.5 -9t-14.5 6.5t-23.5 14.5t-27 14.5t-26 6.5q-20 0 -34 -12 t-14 -23q0 -3 11.5 -12.5t28.5 -19.5t36 -18t34 -9q12 3 28.5 8t32 9.5t27.5 8t15 3.5q11 0 11 -15z" />
<glyph unicode="&#x678;" horiz-adv-x="427" d="M496 104q0 -49 -9 -76.5t-46 -27.5h-39q-28 0 -46.5 7t-38.5 24q-17 14 -32 37t-25 52q-18 -24 -38.5 -45.5t-48.5 -38t-64 -26.5t-84 -10h-37q-19 0 -30 6.5t-16.5 20t-7 32.5t-1.5 45q0 24 1.5 42.5t7 31.5t16.5 20t30 7h37q52 0 90.5 9.5t65.5 24.5t44.5 31.5t30 31.5 t20.5 24.5t16 9.5q6 0 13 -9t15 -46q3 -13 7.5 -26.5t14 -24.5t24 -18t36.5 -7h39q37 0 46 -26t9 -75zM560 625q0 -6 -4.5 -18.5t-11.5 -24.5t-14.5 -22t-13.5 -12t-25 -9t-43.5 -16.5t-50.5 -20t-46 -17.5q-49 -19 -84 -36t-43 -17q-5 0 -9 2.5t-4 10.5q0 5 3.5 15.5 t8.5 21t10 19.5t7 12q3 3 10 8t15 9.5t15.5 8t11.5 5.5q-8 2 -17.5 7.5t-17.5 14t-14 19.5t-6 25q0 17 9 38.5t22.5 42.5t28 39t26.5 30q19 19 37 30t33 16.5t28 7t23 1.5q11 0 23 -4.5t22 -13t16.5 -20t6.5 -25.5q0 -13 -4 -28.5t-10 -29t-12.5 -22.5t-10.5 -9t-14.5 6.5 t-23.5 14.5t-27 14.5t-26 6.5q-20 0 -34 -12t-14 -23q0 -3 11.5 -12.5t28.5 -19.5t36 -18t34 -9q12 3 28.5 8t32 9.5t27.5 8t15 3.5q11 0 11 -15z" />
<glyph unicode="&#x678;" horiz-adv-x="1140" d="M1207 103q0 -12 -1.5 -29.5t-7 -34t-16.5 -28t-30 -11.5h-97q-14 0 -46.5 -0.5t-68.5 -1.5t-68.5 -3.5t-46.5 -6.5q-34 -10 -54.5 -24t-20.5 -30q0 -8 23 -16.5t77 -14.5q47 -5 82 -13t58 -22.5t34.5 -38.5t11.5 -61q0 -31 -19.5 -68t-55.5 -74t-87 -71.5t-113 -61.5 t-134.5 -43t-150.5 -16q-110 0 -184.5 28.5t-120.5 76.5t-65.5 110.5t-19.5 130.5q0 44 11.5 91t28.5 91.5t37.5 84t38 69.5t30 47.5t13.5 17.5q3 0 9 -2.5t12 -6t10.5 -7.5t4.5 -6q0 -3 -14 -27.5t-30.5 -63.5t-30 -89t-13.5 -105t20 -99.5t61.5 -76t105 -48.5t149.5 -17 q24 0 63.5 4.5t84 12t90 17.5t82 21t59.5 22t23 22q0 22 -36.5 26.5t-102.5 6.5q-47 1 -78.5 10t-50 24.5t-26 37t-7.5 48.5q0 32 13 64t35 63t50.5 59.5t60.5 52t65 41.5t64 27q10 3 28.5 5.5t38.5 4t39.5 2.5t30.5 1h97q19 0 30 -11.5t16.5 -28t7 -33.5t1.5 -29zM926 433 q0 -6 -4.5 -18.5t-11.5 -24.5t-14.5 -22t-13.5 -12t-25 -9t-43.5 -16.5t-50.5 -20t-46 -17.5q-49 -19 -84 -36t-43 -17q-5 0 -9 2.5t-4 10.5q0 5 3.5 15.5t8.5 21t10 19.5t7 12q3 3 10 8t15 9.5t15.5 8t11.5 5.5q-8 2 -17.5 7.5t-17.5 14t-14 19.5t-6 25q0 17 9 38.5 t22.5 42.5t28 39t26.5 30q19 19 37 30t33 16.5t28 7t23 1.5q11 0 23 -4.5t22 -13t16.5 -20t6.5 -25.5q0 -13 -4 -28.5t-10 -29t-12.5 -22.5t-10.5 -9t-14.5 6.5t-23.5 14.5t-27 14.5t-26 6.5q-20 0 -34 -12t-14 -23q0 -3 11.5 -12.5t28.5 -19.5t36 -18t34 -9q12 3 28.5 8 t32 9.5t27.5 8t15 3.5q11 0 11 -15z" />
<glyph unicode="&#x679;" horiz-adv-x="439" arabic-form="initial" d="M355 354q0 -72 -22.5 -136t-65.5 -112.5t-105 -77t-140 -28.5h-39q-23 0 -36.5 21.5t-13.5 82.5q0 30 4.5 50t12 31t16.5 15.5t17 4.5h39q24 0 54.5 1t60.5 4t55.5 7.5t39.5 12.5q19 11 27 23.5t8 20.5q0 19 -18.5 39t-40 39t-40 36.5t-18.5 31.5q0 6 10 30t25 54.5 t34 62.5t37 55q17 -26 34.5 -58.5t32 -68t23.5 -72t9 -69.5zM449 922q0 -52 -38.5 -90.5t-98 -64.5t-129.5 -39t-133 -13q-12 0 -29 12.5t-33 29t-27.5 33.5t-11.5 25q0 9 8 9q5 0 16 -1t24 -1.5t26 -1.5t23 -1q21 0 32.5 8.5t17.5 25.5q5 14 7 28.5t2 22.5q0 34 -5 69 t-11 68t-11 63t-5 54q0 17 6 33t14 28t17 19.5t14 7.5q2 0 12 -14.5t21 -32t19.5 -32.5t8.5 -16q-8 -7 -14.5 -17t-6.5 -30q0 -29 3 -64t3 -61q0 -14 -2 -40.5t-6 -51.5q24 29 50 54t52.5 44t52 29.5t48.5 10.5q21 0 37 -10t26.5 -25t15.5 -33t5 -35zM375 892q0 11 -16 13 t-35 2t-42 -6.5t-47 -17.5t-47.5 -26.5t-41.5 -34.5q59 4 102.5 15t71.5 22.5t41.5 21t13.5 11.5z" />
<glyph unicode="&#x679;" horiz-adv-x="427" arabic-form="medial" d="M496 104q0 -49 -9 -76.5t-46 -27.5h-39q-28 0 -46.5 7t-38.5 24q-17 14 -32 37t-25 52q-18 -24 -38.5 -45.5t-48.5 -38t-64 -26.5t-84 -10h-37q-19 0 -30 6.5t-16.5 20t-7 32.5t-1.5 45q0 24 1.5 42.5t7 31.5t16.5 20t30 7h37q52 0 90.5 9.5t65.5 24.5t44.5 31.5t30 31.5 t20.5 24.5t16 9.5q6 0 13 -9t15 -46q3 -13 7.5 -26.5t14 -24.5t24 -18t36.5 -7h39q37 0 46 -26t9 -75zM471 663q0 -52 -38.5 -90.5t-98 -64.5t-129.5 -39t-133 -13q-12 0 -29 12.5t-33 29t-27.5 33.5t-11.5 25q0 9 8 9q5 0 16 -1t24 -1.5t26 -1.5t23 -1q21 0 32.5 8.5 t17.5 25.5q5 14 7 28.5t2 22.5q0 34 -5 69t-11 68t-11 63t-5 54q0 17 6 33t14 28t17 19.5t14 7.5q2 0 12 -14.5t21 -32t19.5 -32.5t8.5 -16q-8 -7 -14.5 -17t-6.5 -30q0 -29 3 -64t3 -61q0 -14 -2 -40.5t-6 -51.5q24 29 50 54t52.5 44t52 29.5t48.5 10.5q21 0 37 -10 t26.5 -25t15.5 -33t5 -35zM397 633q0 11 -16 13t-35 2t-42 -6.5t-47 -17.5t-47.5 -26.5t-41.5 -34.5q59 4 102.5 15t71.5 22.5t41.5 21t13.5 11.5z" />
<glyph unicode="&#x679;" horiz-adv-x="1498" arabic-form="final" d="M1566 103q0 -12 -1 -29.5t-6 -34t-14.5 -28t-26.5 -11.5h-40q-32 0 -58.5 4t-50 16.5t-44 36.5t-39.5 63q-44 -38 -117.5 -74t-168.5 -64.5t-207.5 -46t-234.5 -17.5q-114 0 -203 22.5t-150 63t-93 98t-32 128.5q0 61 18 117.5t40.5 99.5t43 69t24.5 26q1 0 6 -3t10 -7 t9 -8.5t4 -7.5q0 -4 -9.5 -18t-21.5 -37.5t-21.5 -55.5t-9.5 -71q0 -55 36.5 -93t98.5 -61.5t143.5 -34t171.5 -10.5q102 0 196.5 6.5t174.5 20t142 35t101 51.5q10 7 18.5 17t15.5 18t13.5 14t12.5 6q8 0 14.5 -6t11.5 -15t10.5 -19.5t12.5 -19.5q14 -17 45.5 -27.5 t86.5 -10.5h40q17 0 26.5 -11.5t14.5 -28t6 -33.5t1 -29zM947 626q0 -52 -38.5 -90.5t-98 -64.5t-129.5 -39t-133 -13q-12 0 -29 12.5t-33 29t-27.5 33.5t-11.5 25q0 9 8 9q5 0 16 -1t24 -1.5t26 -1.5t23 -1q21 0 32.5 8.5t17.5 25.5q5 14 7 28.5t2 22.5q0 34 -5 69t-11 68 t-11 63t-5 54q0 17 6 33t14 28t17 19.5t14 7.5q2 0 12 -14.5t21 -32t19.5 -32.5t8.5 -16q-8 -7 -14.5 -17t-6.5 -30q0 -29 3 -64t3 -61q0 -14 -2 -40.5t-6 -51.5q24 29 50 54t52.5 44t52 29.5t48.5 10.5q21 0 37 -10t26.5 -25t15.5 -33t5 -35zM873 596q0 11 -16 13t-35 2 t-42 -6.5t-47 -17.5t-47.5 -26.5t-41.5 -34.5q59 4 102.5 15t71.5 22.5t41.5 21t13.5 11.5z" />
<glyph unicode="&#x67a;" horiz-adv-x="439" arabic-form="initial" d="M355 354q0 -72 -22.5 -136t-65.5 -112.5t-105 -77t-140 -28.5h-39q-23 0 -36.5 21.5t-13.5 82.5q0 30 4.5 50t12 31t16.5 15.5t17 4.5h39q24 0 54.5 1t60.5 4t55.5 7.5t39.5 12.5q19 11 27 23.5t8 20.5q0 19 -18.5 39t-40 39t-40 36.5t-18.5 31.5q0 6 10 30t25 54.5 t34 62.5t37 55q17 -26 34.5 -58.5t32 -68t23.5 -72t9 -69.5zM327 871q0 -8 -13.5 -29.5t-30.5 -44.5t-32.5 -41t-19.5 -18q-3 0 -23.5 12t-44 28t-43 30.5t-19.5 19.5q0 6 10.5 22.5t25 35.5t28.5 36.5t22 25.5q5 7 5 11q0 5 -3 8q-9 6 -28 18.5t-38.5 26.5t-34 26t-14.5 17 q0 3 6.5 14t16 26t21 32t22.5 31t19.5 23.5t12.5 9.5q7 0 29.5 -14.5t46 -32.5t42 -34t18.5 -18q0 -3 -10.5 -18t-24 -34t-27 -37l-19.5 -26q-2 -2 -6 -7t-4 -10q0 -4 9 -10q8 -6 25 -17.5t34 -23.5t29.5 -23t12.5 -15z" />
<glyph unicode="&#x67a;" horiz-adv-x="427" arabic-form="medial" d="M496 104q0 -49 -9 -76.5t-46 -27.5h-39q-28 0 -46.5 7t-38.5 24q-17 14 -32 37t-25 52q-18 -24 -38.5 -45.5t-48.5 -38t-64 -26.5t-84 -10h-37q-19 0 -30 6.5t-16.5 20t-7 32.5t-1.5 45q0 24 1.5 42.5t7 31.5t16.5 20t30 7h37q52 0 90.5 9.5t65.5 24.5t44.5 31.5t30 31.5 t20.5 24.5t16 9.5q6 0 13 -9t15 -46q3 -13 7.5 -26.5t14 -24.5t24 -18t36.5 -7h39q37 0 46 -26t9 -75zM344 595q0 -8 -13.5 -29.5t-30.5 -44.5t-32.5 -41t-19.5 -18q-3 0 -23.5 12t-44 28t-43 30.5t-19.5 19.5q0 6 10.5 22.5t25 35.5t28.5 36.5t22 25.5q5 7 5 11q0 5 -3 8 q-9 6 -28 18.5t-38.5 26.5t-34 26t-14.5 17q0 3 6.5 14t16 26t21 32t22.5 31t19.5 23.5t12.5 9.5q7 0 29.5 -14.5t46 -32.5t42 -34t18.5 -18q0 -3 -10.5 -18t-24 -34t-27 -37l-19.5 -26q-2 -2 -6 -7t-4 -10q0 -4 9 -10q8 -6 25 -17.5t34 -23.5t29.5 -23t12.5 -15z" />
<glyph unicode="&#x67a;" horiz-adv-x="1498" arabic-form="final" d="M1566 103q0 -12 -1 -29.5t-6 -34t-14.5 -28t-26.5 -11.5h-40q-32 0 -58.5 4t-50 16.5t-44 36.5t-39.5 63q-44 -38 -117.5 -74t-168.5 -64.5t-207.5 -46t-234.5 -17.5q-114 0 -203 22.5t-150 63t-93 98t-32 128.5q0 61 18 117.5t40.5 99.5t43 69t24.5 26q1 0 6 -3t10 -7 t9 -8.5t4 -7.5q0 -4 -9.5 -18t-21.5 -37.5t-21.5 -55.5t-9.5 -71q0 -55 36.5 -93t98.5 -61.5t143.5 -34t171.5 -10.5q102 0 196.5 6.5t174.5 20t142 35t101 51.5q10 7 18.5 17t15.5 18t13.5 14t12.5 6q8 0 14.5 -6t11.5 -15t10.5 -19.5t12.5 -19.5q14 -17 45.5 -27.5 t86.5 -10.5h40q17 0 26.5 -11.5t14.5 -28t6 -33.5t1 -29zM816 600q0 -8 -13.5 -29.5t-30.5 -44.5t-32.5 -41t-19.5 -18q-3 0 -23.5 12t-44 28t-43 30.5t-19.5 19.5q0 6 10.5 22.5t25 35.5t28.5 36.5t22 25.5q5 7 5 11q0 5 -3 8q-9 6 -28 18.5t-38.5 26.5t-34 26t-14.5 17 q0 3 6.5 14t16 26t21 32t22.5 31t19.5 23.5t12.5 9.5q7 0 29.5 -14.5t46 -32.5t42 -34t18.5 -18q0 -3 -10.5 -18t-24 -34t-27 -37l-19.5 -26q-2 -2 -6 -7t-4 -10q0 -4 9 -10q8 -6 25 -17.5t34 -23.5t29.5 -23t12.5 -15z" />
<glyph unicode="&#x67b;" horiz-adv-x="439" arabic-form="initial" d="M355 354q0 -72 -22.5 -136t-65.5 -112.5t-105 -77t-140 -28.5h-39q-23 0 -36.5 21.5t-13.5 82.5q0 30 4.5 50t12 31t16.5 15.5t17 4.5h39q24 0 54.5 1t60.5 4t55.5 7.5t39.5 12.5q19 11 27 23.5t8 20.5q0 19 -18.5 39t-40 39t-40 36.5t-18.5 31.5q0 6 10 30t25 54.5 t34 62.5t37 55q17 -26 34.5 -58.5t32 -68t23.5 -72t9 -69.5zM297 -401q0 -8 -13.5 -29.5t-30.5 -44.5t-32.5 -41t-19.5 -18q-3 0 -23.5 12t-44 28t-43 30.5t-19.5 19.5q0 6 10.5 22.5t25 35.5t28.5 36.5t22 25.5q5 7 5 11q0 5 -3 8q-9 6 -28 18.5t-38.5 26.5t-34 26 t-14.5 17q0 3 6.5 14t16 26t21 32t22.5 31t19.5 23.5t12.5 9.5q7 0 29.5 -14.5t46 -32.5t42 -34t18.5 -18q0 -3 -10.5 -18t-24 -34t-27 -37l-19.5 -26q-2 -2 -6 -7t-4 -10q0 -4 9 -10q8 -6 25 -17.5t34 -23.5t29.5 -23t12.5 -15z" />
<glyph unicode="&#x67b;" horiz-adv-x="427" arabic-form="medial" d="M496 104q0 -49 -9 -76.5t-46 -27.5h-39q-28 0 -46.5 7t-38.5 24q-17 14 -32 37t-25 52q-18 -24 -38.5 -45.5t-48.5 -38t-64 -26.5t-84 -10h-37q-19 0 -30 6.5t-16.5 20t-7 32.5t-1.5 45q0 24 1.5 42.5t7 31.5t16.5 20t30 7h37q52 0 90.5 9.5t65.5 24.5t44.5 31.5t30 31.5 t20.5 24.5t16 9.5q6 0 13 -9t15 -46q3 -13 7.5 -26.5t14 -24.5t24 -18t36.5 -7h39q37 0 46 -26t9 -75zM344 -401q0 -8 -13.5 -29.5t-30.5 -44.5t-32.5 -41t-19.5 -18q-3 0 -23.5 12t-44 28t-43 30.5t-19.5 19.5q0 6 10.5 22.5t25 35.5t28.5 36.5t22 25.5q5 7 5 11q0 5 -3 8 q-9 6 -28 18.5t-38.5 26.5t-34 26t-14.5 17q0 3 6.5 14t16 26t21 32t22.5 31t19.5 23.5t12.5 9.5q7 0 29.5 -14.5t46 -32.5t42 -34t18.5 -18q0 -3 -10.5 -18t-24 -34t-27 -37l-19.5 -26q-2 -2 -6 -7t-4 -10q0 -4 9 -10q8 -6 25 -17.5t34 -23.5t29.5 -23t12.5 -15z" />
<glyph unicode="&#x67b;" horiz-adv-x="1498" arabic-form="final" d="M1566 103q0 -12 -1 -29.5t-6 -34t-14.5 -28t-26.5 -11.5h-40q-32 0 -58.5 4t-50 16.5t-44 36.5t-39.5 63q-44 -38 -117.5 -74t-168.5 -64.5t-207.5 -46t-234.5 -17.5q-114 0 -203 22.5t-150 63t-93 98t-32 128.5q0 61 18 117.5t40.5 99.5t43 69t24.5 26q1 0 6 -3t10 -7 t9 -8.5t4 -7.5q0 -4 -9.5 -18t-21.5 -37.5t-21.5 -55.5t-9.5 -71q0 -55 36.5 -93t98.5 -61.5t143.5 -34t171.5 -10.5q102 0 196.5 6.5t174.5 20t142 35t101 51.5q10 7 18.5 17t15.5 18t13.5 14t12.5 6q8 0 14.5 -6t11.5 -15t10.5 -19.5t12.5 -19.5q14 -17 45.5 -27.5 t86.5 -10.5h40q17 0 26.5 -11.5t14.5 -28t6 -33.5t1 -29zM770 -503q0 -8 -13.5 -29.5t-30.5 -44.5t-32.5 -41t-19.5 -18q-3 0 -23.5 12t-44 28t-43 30.5t-19.5 19.5q0 6 10.5 22.5t25 35.5t28.5 36.5t22 25.5q5 7 5 11q0 5 -3 8q-9 6 -28 18.5t-38.5 26.5t-34 26t-14.5 17 q0 3 6.5 14t16 26t21 32t22.5 31t19.5 23.5t12.5 9.5q7 0 29.5 -14.5t46 -32.5t42 -34t18.5 -18q0 -3 -10.5 -18t-24 -34t-27 -37l-19.5 -26q-2 -2 -6 -7t-4 -10q0 -4 9 -10q8 -6 25 -17.5t34 -23.5t29.5 -23t12.5 -15z" />
<glyph unicode="&#x67c;" horiz-adv-x="439" d="M342 -43q0 -36 -12.5 -68t-35 -56t-52.5 -37.5t-65 -13.5q-54 0 -84.5 38t-30.5 121q0 32 11 62q-24 -3 -51 -3h-39q-23 0 -36.5 21.5t-13.5 82.5q0 30 4.5 50t12 31t16.5 15.5t17 4.5h39q24 0 54.5 1t60.5 4t55.5 7.5t39.5 12.5q19 11 27 23.5t8 20.5q0 19 -18.5 39 t-40 39t-40 36.5t-18.5 31.5q0 6 10 30t25 54.5t34 62.5t37 55q17 -26 34.5 -58.5t32 -68t23.5 -72t9 -69.5q0 -75 -24.5 -140.5t-69.5 -114.5q18 -9 33 -24.5t25.5 -35t16.5 -41t6 -41.5zM322 983q6 0 27 -14t44 -31.5t41 -34t18 -20.5t-6 -16t-15.5 -28t-21 -33.5t-22 -32 t-19 -24t-11.5 -9.5q-4 0 -23.5 14t-42.5 31l-60 46q-6 6 -13 6q-3 0 -8 -9q-23 -32 -41 -58q-16 -22 -31 -39.5t-20 -17.5q-2 0 -12.5 6.5t-25.5 17t-31 22.5t-30 23t-23 19.5t-9 11.5q0 4 6.5 16t16.5 28.5t21.5 34.5t22.5 32.5t19 24.5t10 10q7 0 27 -14.5t42 -31.5 q26 -20 55 -45q6 -7 11 -7q3 0 5.5 2t7.5 9q23 30 42 55q16 21 30.5 38.5t18.5 17.5zM264 -66q0 8 -9 19.5t-22.5 22.5t-28.5 18.5t-27 7.5q-25 0 -37 -16.5t-12 -34.5q0 -19 20.5 -33.5t51.5 -14.5q9 0 20 3t21 7.5t16.5 10t6.5 10.5z" />
<glyph unicode="&#x67c;" horiz-adv-x="427" d="M389 -28q0 -36 -12.5 -68t-35 -56t-52.5 -37.5t-65 -13.5q-54 0 -84.5 38t-30.5 121q0 30 9 56q-39 -12 -93 -12h-37q-19 0 -30 6.5t-16.5 20t-7 32.5t-1.5 45q0 24 1.5 42.5t7 31.5t16.5 20t30 7h37q52 0 90.5 9.5t65.5 24.5t44.5 31.5t30 31.5t20.5 24.5t16 9.5 q6 0 13 -9t15 -46q3 -13 7.5 -26.5t14 -24.5t24 -18t36.5 -7h39q37 0 46 -26t9 -75t-9 -76.5t-46 -27.5h-39h-16q3 -14 3 -28zM317 697q6 0 27 -14t44 -31.5t41 -34t18 -20.5t-6 -16t-15.5 -28t-21 -33.5t-22 -32t-19 -24t-11.5 -9.5q-4 0 -23.5 14t-42.5 31l-60 46 q-6 6 -13 6q-3 0 -8 -9q-23 -32 -41 -58q-16 -22 -31 -39.5t-20 -17.5q-2 0 -12.5 6.5t-25.5 17t-31 22.5t-30 23t-23 19.5t-9 11.5q0 4 6.5 16t16.5 28.5t21.5 34.5t22.5 32.5t19 24.5t10 10q7 0 27 -14.5t42 -31.5q26 -20 55 -45q6 -7 11 -7q3 0 5.5 2t7.5 9q23 30 42 55 q16 21 30.5 38.5t18.5 17.5zM311 -51q0 8 -9 19.5t-22.5 22.5t-28.5 18.5t-27 7.5q-25 0 -37 -16.5t-12 -34.5q0 -19 20.5 -33.5t51.5 -14.5q9 0 20 3t21 7.5t16.5 10t6.5 10.5z" />
<glyph unicode="&#x67c;" horiz-adv-x="1498" d="M733 -159q0 -36 -12.5 -68t-35 -56t-52.5 -37.5t-65 -13.5q-54 0 -84.5 38t-30.5 121q0 51 28 96q-96 7 -170.5 32t-126 65t-78 93.5t-26.5 118.5q0 61 18 117.5t40.5 99.5t43 69t24.5 26q1 0 6 -3t10 -7t9 -8.5t4 -7.5q0 -4 -9.5 -18t-21.5 -37.5t-21.5 -55.5t-9.5 -71 q0 -55 36.5 -93t98.5 -61.5t143.5 -34t171.5 -10.5q102 0 196.5 6.5t174.5 20t142 35t101 51.5q10 7 18.5 17t15.5 18t13.5 14t12.5 6q8 0 14.5 -6t11.5 -15t10.5 -19.5t12.5 -19.5q14 -17 45.5 -27.5t86.5 -10.5h40q17 0 26.5 -11.5t14.5 -28t6 -33.5t1 -29t-1 -29.5 t-6 -34t-14.5 -28t-26.5 -11.5h-40q-32 0 -58.5 4t-50 16.5t-44 36.5t-39.5 63q-37 -32 -95.5 -62.5t-132.5 -56.5t-162.5 -46t-185.5 -29q11 -20 17 -42t6 -43zM805 710q6 0 27 -14t44 -31.5t41 -34t18 -20.5t-6 -16t-15.5 -28t-21 -33.5t-22 -32t-19 -24t-11.5 -9.5 q-4 0 -23.5 14t-42.5 31l-60 46q-6 6 -13 6q-3 0 -8 -9q-23 -32 -41 -58q-16 -22 -31 -39.5t-20 -17.5q-2 0 -12.5 6.5t-25.5 17t-31 22.5t-30 23t-23 19.5t-9 11.5q0 4 6.5 16t16.5 28.5t21.5 34.5t22.5 32.5t19 24.5t10 10q7 0 27 -14.5t42 -31.5q26 -20 55 -45 q6 -7 11 -7q3 0 5.5 2t7.5 9q23 30 42 55q16 21 30.5 38.5t18.5 17.5zM655 -182q0 8 -9 19.5t-22.5 22.5t-28.5 18.5t-27 7.5q-25 0 -37 -16.5t-12 -34.5q0 -19 20.5 -33.5t51.5 -14.5q9 0 20 3t21 7.5t16.5 10t6.5 10.5z" />
<glyph unicode="&#x67d;" horiz-adv-x="439" d="M355 354q0 -72 -22.5 -136t-65.5 -112.5t-105 -77t-140 -28.5h-39q-23 0 -36.5 21.5t-13.5 82.5q0 30 4.5 50t12 31t16.5 15.5t17 4.5h39q24 0 54.5 1t60.5 4t55.5 7.5t39.5 12.5q19 11 27 23.5t8 20.5q0 19 -18.5 39t-40 39t-40 36.5t-18.5 31.5q0 6 10 30t25 54.5 t34 62.5t37 55q17 -26 34.5 -58.5t32 -68t23.5 -72t9 -69.5zM307 1228q6 0 27 -14t44 -32t41 -34t18 -20q0 -6 -13 -29t-29.5 -48.5t-32 -46t-20.5 -20.5q-4 0 -23.5 14.5t-42.5 31.5l-60 46q-7 5 -13 5q-3 0 -8 -8q-23 -32 -41 -58q-16 -22 -31 -39.5t-20 -17.5 q-2 0 -12.5 6.5t-25.5 17t-31 22.5t-30 23t-23 19.5t-9 11.5q0 4 6.5 16t16.5 28.5t21.5 34.5t22.5 32.5t19 24.5t10 10q7 0 27 -14.5t42 -31.5q26 -20 55 -45q6 -7 11 -7t13 10q23 31 42 56q16 21 30.5 38.5t18.5 17.5zM350 865q0 -6 -13 -29.5t-30 -49.5t-33.5 -46.5 t-22.5 -20.5q-2 0 -13 6.5t-25.5 16.5t-31 22.5t-30.5 23.5t-23 20t-9 12q0 4 6.5 16t16 28.5t21.5 34.5t23 32.5t19.5 24.5t11.5 10q6 0 27.5 -14t45 -32t42 -34.5t18.5 -20.5z" />
<glyph unicode="&#x67d;" horiz-adv-x="427" d="M496 104q0 -49 -9 -76.5t-46 -27.5h-39q-28 0 -46.5 7t-38.5 24q-17 14 -32 37t-25 52q-18 -24 -38.5 -45.5t-48.5 -38t-64 -26.5t-84 -10h-37q-19 0 -30 6.5t-16.5 20t-7 32.5t-1.5 45q0 24 1.5 42.5t7 31.5t16.5 20t30 7h37q52 0 90.5 9.5t65.5 24.5t44.5 31.5t30 31.5 t20.5 24.5t16 9.5q6 0 13 -9t15 -46q3 -13 7.5 -26.5t14 -24.5t24 -18t36.5 -7h39q37 0 46 -26t9 -75zM319 937q6 0 27 -14t44 -32t41 -34t18 -20q0 -6 -13 -29t-29.5 -48.5t-32 -46t-20.5 -20.5q-4 0 -23.5 14.5t-42.5 31.5l-60 46q-7 5 -13 5q-3 0 -8 -8q-23 -32 -41 -58 q-16 -22 -31 -39.5t-20 -17.5q-2 0 -12.5 6.5t-25.5 17t-31 22.5t-30 23t-23 19.5t-9 11.5q0 4 6.5 16t16.5 28.5t21.5 34.5t22.5 32.5t19 24.5t10 10q7 0 27 -14.5t42 -31.5q26 -20 55 -45q6 -7 11 -7t13 10q23 31 42 56q16 21 30.5 38.5t18.5 17.5zM362 574 q0 -6 -13 -29.5t-30 -49.5t-33.5 -46.5t-22.5 -20.5q-2 0 -13 6.5t-25.5 16.5t-31 22.5t-30.5 23.5t-23 20t-9 12q0 4 6.5 16t16 28.5t21.5 34.5t23 32.5t19.5 24.5t11.5 10q6 0 27.5 -14t45 -32t42 -34.5t18.5 -20.5z" />
<glyph unicode="&#x67d;" horiz-adv-x="1498" d="M1566 103q0 -12 -1 -29.5t-6 -34t-14.5 -28t-26.5 -11.5h-40q-32 0 -58.5 4t-50 16.5t-44 36.5t-39.5 63q-44 -38 -117.5 -74t-168.5 -64.5t-207.5 -46t-234.5 -17.5q-114 0 -203 22.5t-150 63t-93 98t-32 128.5q0 61 18 117.5t40.5 99.5t43 69t24.5 26q1 0 6 -3t10 -7 t9 -8.5t4 -7.5q0 -4 -9.5 -18t-21.5 -37.5t-21.5 -55.5t-9.5 -71q0 -55 36.5 -93t98.5 -61.5t143.5 -34t171.5 -10.5q102 0 196.5 6.5t174.5 20t142 35t101 51.5q10 7 18.5 17t15.5 18t13.5 14t12.5 6q8 0 14.5 -6t11.5 -15t10.5 -19.5t12.5 -19.5q14 -17 45.5 -27.5 t86.5 -10.5h40q17 0 26.5 -11.5t14.5 -28t6 -33.5t1 -29zM790 887q6 0 27 -14t44 -32t41 -34t18 -20q0 -6 -13 -29t-29.5 -48.5t-32 -46t-20.5 -20.5q-4 0 -23.5 14.5t-42.5 31.5l-60 46q-7 5 -13 5q-3 0 -8 -8q-23 -32 -41 -58q-16 -22 -31 -39.5t-20 -17.5q-2 0 -12.5 6.5 t-25.5 17t-31 22.5t-30 23t-23 19.5t-9 11.5q0 4 6.5 16t16.5 28.5t21.5 34.5t22.5 32.5t19 24.5t10 10q7 0 27 -14.5t42 -31.5q26 -20 55 -45q6 -7 11 -7t13 10q23 31 42 56q16 21 30.5 38.5t18.5 17.5zM833 524q0 -6 -13 -29.5t-30 -49.5t-33.5 -46.5t-22.5 -20.5 q-2 0 -13 6.5t-25.5 16.5t-31 22.5t-30.5 23.5t-23 20t-9 12q0 4 6.5 16t16 28.5t21.5 34.5t23 32.5t19.5 24.5t11.5 10q6 0 27.5 -14t45 -32t42 -34.5t18.5 -20.5z" />
<glyph unicode="&#x67e;" horiz-adv-x="439" arabic-form="initial" d="M355 354q0 -72 -22.5 -136t-65.5 -112.5t-105 -77t-140 -28.5h-39q-23 0 -36.5 21.5t-13.5 82.5q0 30 4.5 50t12 31t16.5 15.5t17 4.5h39q24 0 54.5 1t60.5 4t55.5 7.5t39.5 12.5q19 11 27 23.5t8 20.5q0 19 -18.5 39t-40 39t-40 36.5t-18.5 31.5q0 6 10 30t25 54.5 t34 62.5t37 55q17 -26 34.5 -58.5t32 -68t23.5 -72t9 -69.5zM285 -72q6 0 27 -14t44 -32t41 -34t18 -20q0 -6 -13 -29t-29.5 -48.5t-32 -46t-20.5 -20.5q-4 0 -23.5 14.5t-42.5 31.5l-60 46q-7 5 -13 5q-3 0 -8 -8q-23 -32 -41 -58q-16 -22 -31 -39.5t-20 -17.5 q-2 0 -12.5 6.5t-25.5 17t-31 22.5t-30 23t-23 19.5t-9 11.5q0 4 6.5 16t16.5 28.5t21.5 34.5t22.5 32.5t19 24.5t10 10q7 0 27 -14.5t42 -31.5q26 -20 55 -45q6 -7 11 -7t13 10q23 31 42 56q16 21 30.5 38.5t18.5 17.5zM328 -435q0 -6 -13 -29.5t-30 -49.5t-33.5 -46.5 t-22.5 -20.5q-2 0 -13 6.5t-25.5 16.5t-31 22.5t-30.5 23.5t-23 20t-9 12q0 4 6.5 16t16 28.5t21.5 34.5t23 32.5t19.5 24.5t11.5 10q6 0 27.5 -14t45 -32t42 -34.5t18.5 -20.5z" />
<glyph unicode="&#x67e;" horiz-adv-x="427" arabic-form="medial" d="M496 104q0 -49 -9 -76.5t-46 -27.5h-39q-28 0 -46.5 7t-38.5 24q-17 14 -32 37t-25 52q-18 -24 -38.5 -45.5t-48.5 -38t-64 -26.5t-84 -10h-37q-19 0 -30 6.5t-16.5 20t-7 32.5t-1.5 45q0 24 1.5 42.5t7 31.5t16.5 20t30 7h37q52 0 90.5 9.5t65.5 24.5t44.5 31.5t30 31.5 t20.5 24.5t16 9.5q6 0 13 -9t15 -46q3 -13 7.5 -26.5t14 -24.5t24 -18t36.5 -7h39q37 0 46 -26t9 -75zM322 -70q6 0 27 -14t44 -32t41 -34t18 -20q0 -6 -13 -29t-29.5 -48.5t-32 -46t-20.5 -20.5q-4 0 -23.5 14.5t-42.5 31.5l-60 46q-7 5 -13 5q-3 0 -8 -8q-23 -32 -41 -58 q-16 -22 -31 -39.5t-20 -17.5q-2 0 -12.5 6.5t-25.5 17t-31 22.5t-30 23t-23 19.5t-9 11.5q0 4 6.5 16t16.5 28.5t21.5 34.5t22.5 32.5t19 24.5t10 10q7 0 27 -14.5t42 -31.5q26 -20 55 -45q6 -7 11 -7t13 10q23 31 42 56q16 21 30.5 38.5t18.5 17.5zM365 -433 q0 -6 -13 -29.5t-30 -49.5t-33.5 -46.5t-22.5 -20.5q-2 0 -13 6.5t-25.5 16.5t-31 22.5t-30.5 23.5t-23 20t-9 12q0 4 6.5 16t16 28.5t21.5 34.5t23 32.5t19.5 24.5t11.5 10q6 0 27.5 -14t45 -32t42 -34.5t18.5 -20.5z" />
<glyph unicode="&#x67e;" horiz-adv-x="1498" arabic-form="final" d="M1566 103q0 -12 -1 -29.5t-6 -34t-14.5 -28t-26.5 -11.5h-40q-32 0 -58.5 4t-50 16.5t-44 36.5t-39.5 63q-44 -38 -117.5 -74t-168.5 -64.5t-207.5 -46t-234.5 -17.5q-114 0 -203 22.5t-150 63t-93 98t-32 128.5q0 61 18 117.5t40.5 99.5t43 69t24.5 26q1 0 6 -3t10 -7 t9 -8.5t4 -7.5q0 -4 -9.5 -18t-21.5 -37.5t-21.5 -55.5t-9.5 -71q0 -55 36.5 -93t98.5 -61.5t143.5 -34t171.5 -10.5q102 0 196.5 6.5t174.5 20t142 35t101 51.5q10 7 18.5 17t15.5 18t13.5 14t12.5 6q8 0 14.5 -6t11.5 -15t10.5 -19.5t12.5 -19.5q14 -17 45.5 -27.5 t86.5 -10.5h40q17 0 26.5 -11.5t14.5 -28t6 -33.5t1 -29zM762 -176q6 0 27 -14t44 -32t41 -34t18 -20q0 -6 -13 -29t-29.5 -48.5t-32 -46t-20.5 -20.5q-4 0 -23.5 14.5t-42.5 31.5l-60 46q-7 5 -13 5q-3 0 -8 -8q-23 -32 -41 -58q-16 -22 -31 -39.5t-20 -17.5 q-2 0 -12.5 6.5t-25.5 17t-31 22.5t-30 23t-23 19.5t-9 11.5q0 4 6.5 16t16.5 28.5t21.5 34.5t22.5 32.5t19 24.5t10 10q7 0 27 -14.5t42 -31.5q26 -20 55 -45q6 -7 11 -7t13 10q23 31 42 56q16 21 30.5 38.5t18.5 17.5zM805 -539q0 -6 -13 -29.5t-30 -49.5t-33.5 -46.5 t-22.5 -20.5q-2 0 -13 6.5t-25.5 16.5t-31 22.5t-30.5 23.5t-23 20t-9 12q0 4 6.5 16t16 28.5t21.5 34.5t23 32.5t19.5 24.5t11.5 10q6 0 27.5 -14t45 -32t42 -34.5t18.5 -20.5z" />
<glyph unicode="&#x67f;" horiz-adv-x="439" arabic-form="initial" d="M355 354q0 -72 -22.5 -136t-65.5 -112.5t-105 -77t-140 -28.5h-39q-23 0 -36.5 21.5t-13.5 82.5q0 30 4.5 50t12 31t16.5 15.5t17 4.5h39q24 0 54.5 1t60.5 4t55.5 7.5t39.5 12.5q19 11 27 23.5t8 20.5q0 19 -18.5 39t-40 39t-40 36.5t-18.5 31.5q0 6 10 30t25 54.5 t34 62.5t37 55q17 -26 34.5 -58.5t32 -68t23.5 -72t9 -69.5zM304 1227q6 0 27 -14t44 -31.5t41 -33.5t18 -20q0 -6 -12.5 -29.5t-29 -49t-32 -45.5t-21.5 -20q-3 0 -23 14t-43 31q-26 20 -59 46q-8 6 -13 6q-2 0 -9 -9q-23 -32 -41 -58q-16 -22 -30.5 -39.5t-19.5 -17.5 q-2 0 -12.5 6.5t-25.5 17t-31 23t-30 23.5t-23 19t-9 11q0 4 6.5 16t16 28.5t21.5 34.5t22.5 33t18.5 25t11 10q7 0 27.5 -14.5t41.5 -31.5q25 -20 54 -46q7 -6 12 -6q4 0 13 10q24 30 42 55q16 21 30 38.5t18 17.5zM331 976q6 0 27 -14t44 -32t41 -34t18 -20q0 -6 -13 -29 t-29.5 -48.5t-32 -46t-20.5 -20.5q-3 0 -23 14.5t-43 31.5q-26 20 -59 46q-8 5 -14 5q-2 0 -3.5 -2.5t-4.5 -5.5q-23 -32 -41 -58q-16 -22 -30.5 -39.5t-19.5 -17.5q-4 0 -25 14t-44.5 31.5t-42.5 33.5t-19 20q0 6 13.5 29.5t30.5 50t32.5 47t18.5 20.5q7 0 27 -14.5 t42 -31.5q26 -20 55 -45q7 -7 11 -7q5 0 14 10q23 31 41 56q16 21 30.5 38.5t18.5 17.5z" />
<glyph unicode="&#x67f;" horiz-adv-x="427" arabic-form="medial" d="M496 104q0 -49 -9 -76.5t-46 -27.5h-39q-28 0 -46.5 7t-38.5 24q-17 14 -32 37t-25 52q-18 -24 -38.5 -45.5t-48.5 -38t-64 -26.5t-84 -10h-37q-19 0 -30 6.5t-16.5 20t-7 32.5t-1.5 45q0 24 1.5 42.5t7 31.5t16.5 20t30 7h37q52 0 90.5 9.5t65.5 24.5t44.5 31.5t30 31.5 t20.5 24.5t16 9.5q6 0 13 -9t15 -46q3 -13 7.5 -26.5t14 -24.5t24 -18t36.5 -7h39q37 0 46 -26t9 -75zM305 940q6 0 27 -14t44 -31.5t41 -33.5t18 -20q0 -6 -12.5 -29.5t-29 -49t-32 -45.5t-21.5 -20q-3 0 -23 14t-43 31q-26 20 -59 46q-8 6 -13 6q-2 0 -9 -9 q-23 -32 -41 -58q-16 -22 -30.5 -39.5t-19.5 -17.5q-2 0 -12.5 6.5t-25.5 17t-31 23t-30 23.5t-23 19t-9 11q0 4 6.5 16t16 28.5t21.5 34.5t22.5 33t18.5 25t11 10q7 0 27.5 -14.5t41.5 -31.5q25 -20 54 -46q7 -6 12 -6q4 0 13 10q24 30 42 55q16 21 30 38.5t18 17.5z M332 689q6 0 27 -14t44 -32t41 -34t18 -20q0 -6 -13 -29t-29.5 -48.5t-32 -46t-20.5 -20.5q-3 0 -23 14.5t-43 31.5q-26 20 -59 46q-8 5 -14 5q-2 0 -3.5 -2.5t-4.5 -5.5q-23 -32 -41 -58q-16 -22 -30.5 -39.5t-19.5 -17.5q-4 0 -25 14t-44.5 31.5t-42.5 33.5t-19 20 q0 6 13.5 29.5t30.5 50t32.5 47t18.5 20.5q7 0 27 -14.5t42 -31.5q26 -20 55 -45q7 -7 11 -7q5 0 14 10q23 31 41 56q16 21 30.5 38.5t18.5 17.5z" />
<glyph unicode="&#x67f;" horiz-adv-x="1498" arabic-form="final" d="M1566 103q0 -12 -1 -29.5t-6 -34t-14.5 -28t-26.5 -11.5h-40q-32 0 -58.5 4t-50 16.5t-44 36.5t-39.5 63q-44 -38 -117.5 -74t-168.5 -64.5t-207.5 -46t-234.5 -17.5q-114 0 -203 22.5t-150 63t-93 98t-32 128.5q0 61 18 117.5t40.5 99.5t43 69t24.5 26q1 0 6 -3t10 -7 t9 -8.5t4 -7.5q0 -4 -9.5 -18t-21.5 -37.5t-21.5 -55.5t-9.5 -71q0 -55 36.5 -93t98.5 -61.5t143.5 -34t171.5 -10.5q102 0 196.5 6.5t174.5 20t142 35t101 51.5q10 7 18.5 17t15.5 18t13.5 14t12.5 6q8 0 14.5 -6t11.5 -15t10.5 -19.5t12.5 -19.5q14 -17 45.5 -27.5 t86.5 -10.5h40q17 0 26.5 -11.5t14.5 -28t6 -33.5t1 -29zM804 925q6 0 27 -14t44 -31.5t41 -33.5t18 -20q0 -6 -12.5 -29.5t-29 -49t-32 -45.5t-21.5 -20q-3 0 -23 14t-43 31q-26 20 -59 46q-8 6 -13 6q-2 0 -9 -9q-23 -32 -41 -58q-16 -22 -30.5 -39.5t-19.5 -17.5 q-2 0 -12.5 6.5t-25.5 17t-31 23t-30 23.5t-23 19t-9 11q0 4 6.5 16t16 28.5t21.5 34.5t22.5 33t18.5 25t11 10q7 0 27.5 -14.5t41.5 -31.5q25 -20 54 -46q7 -6 12 -6q4 0 13 10q24 30 42 55q16 21 30 38.5t18 17.5zM831 674q6 0 27 -14t44 -32t41 -34t18 -20q0 -6 -13 -29 t-29.5 -48.5t-32 -46t-20.5 -20.5q-3 0 -23 14.5t-43 31.5q-26 20 -59 46q-8 5 -14 5q-2 0 -3.5 -2.5t-4.5 -5.5q-23 -32 -41 -58q-16 -22 -30.5 -39.5t-19.5 -17.5q-4 0 -25 14t-44.5 31.5t-42.5 33.5t-19 20q0 6 13.5 29.5t30.5 50t32.5 47t18.5 20.5q7 0 27 -14.5 t42 -31.5q26 -20 55 -45q7 -7 11 -7q5 0 14 10q23 31 41 56q16 21 30.5 38.5t18.5 17.5z" />
<glyph unicode="&#x680;" horiz-adv-x="439" arabic-form="initial" d="M355 354q0 -72 -22.5 -136t-65.5 -112.5t-105 -77t-140 -28.5h-39q-23 0 -36.5 21.5t-13.5 82.5q0 30 4.5 50t12 31t16.5 15.5t17 4.5h39q24 0 54.5 1t60.5 4t55.5 7.5t39.5 12.5q19 11 27 23.5t8 20.5q0 19 -18.5 39t-40 39t-40 36.5t-18.5 31.5q0 6 10 30t25 54.5 t34 62.5t37 55q17 -26 34.5 -58.5t32 -68t23.5 -72t9 -69.5zM291 -102q6 0 27 -14t44 -31.5t41 -33.5t18 -20q0 -6 -12.5 -29.5t-29 -49t-32 -45.5t-21.5 -20q-3 0 -23 14t-43 31q-26 20 -59 46q-8 6 -13 6q-2 0 -9 -9q-23 -32 -41 -58q-16 -22 -30.5 -39.5t-19.5 -17.5 q-2 0 -12.5 6.5t-25.5 17t-31 23t-30 23.5t-23 19t-9 11q0 4 6.5 16t16 28.5t21.5 34.5t22.5 33t18.5 25t11 10q7 0 27.5 -14.5t41.5 -31.5q25 -20 54 -46q7 -6 12 -6q4 0 13 10q24 30 42 55q16 21 30 38.5t18 17.5zM318 -353q6 0 27 -14t44 -32t41 -34t18 -20q0 -6 -13 -29 t-29.5 -48.5t-32 -46t-20.5 -20.5q-3 0 -23 14.5t-43 31.5q-26 20 -59 46q-8 5 -14 5q-2 0 -3.5 -2.5t-4.5 -5.5q-23 -32 -41 -58q-16 -22 -30.5 -39.5t-19.5 -17.5q-4 0 -25 14t-44.5 31.5t-42.5 33.5t-19 20q0 6 13.5 29.5t30.5 50t32.5 47t18.5 20.5q7 0 27 -14.5 t42 -31.5q26 -20 55 -45q7 -7 11 -7q5 0 14 10q23 31 41 56q16 21 30.5 38.5t18.5 17.5z" />
<glyph unicode="&#x680;" horiz-adv-x="427" arabic-form="medial" d="M496 104q0 -49 -9 -76.5t-46 -27.5h-39q-28 0 -46.5 7t-38.5 24q-17 14 -32 37t-25 52q-18 -24 -38.5 -45.5t-48.5 -38t-64 -26.5t-84 -10h-37q-19 0 -30 6.5t-16.5 20t-7 32.5t-1.5 45q0 24 1.5 42.5t7 31.5t16.5 20t30 7h37q52 0 90.5 9.5t65.5 24.5t44.5 31.5t30 31.5 t20.5 24.5t16 9.5q6 0 13 -9t15 -46q3 -13 7.5 -26.5t14 -24.5t24 -18t36.5 -7h39q37 0 46 -26t9 -75zM304 -70q6 0 27 -14t44 -31.5t41 -33.5t18 -20q0 -6 -12.5 -29.5t-29 -49t-32 -45.5t-21.5 -20q-3 0 -23 14t-43 31q-26 20 -59 46q-8 6 -13 6q-2 0 -9 -9 q-23 -32 -41 -58q-16 -22 -30.5 -39.5t-19.5 -17.5q-2 0 -12.5 6.5t-25.5 17t-31 23t-30 23.5t-23 19t-9 11q0 4 6.5 16t16 28.5t21.5 34.5t22.5 33t18.5 25t11 10q7 0 27.5 -14.5t41.5 -31.5q25 -20 54 -46q7 -6 12 -6q4 0 13 10q24 30 42 55q16 21 30 38.5t18 17.5z M331 -321q6 0 27 -14t44 -32t41 -34t18 -20q0 -6 -13 -29t-29.5 -48.5t-32 -46t-20.5 -20.5q-3 0 -23 14.5t-43 31.5q-26 20 -59 46q-8 5 -14 5q-2 0 -3.5 -2.5t-4.5 -5.5q-23 -32 -41 -58q-16 -22 -30.5 -39.5t-19.5 -17.5q-4 0 -25 14t-44.5 31.5t-42.5 33.5t-19 20 q0 6 13.5 29.5t30.5 50t32.5 47t18.5 20.5q7 0 27 -14.5t42 -31.5q26 -20 55 -45q7 -7 11 -7q5 0 14 10q23 31 41 56q16 21 30.5 38.5t18.5 17.5z" />
<glyph unicode="&#x680;" horiz-adv-x="1498" arabic-form="final" d="M1566 103q0 -12 -1 -29.5t-6 -34t-14.5 -28t-26.5 -11.5h-40q-32 0 -58.5 4t-50 16.5t-44 36.5t-39.5 63q-44 -38 -117.5 -74t-168.5 -64.5t-207.5 -46t-234.5 -17.5q-114 0 -203 22.5t-150 63t-93 98t-32 128.5q0 61 18 117.5t40.5 99.5t43 69t24.5 26q1 0 6 -3t10 -7 t9 -8.5t4 -7.5q0 -4 -9.5 -18t-21.5 -37.5t-21.5 -55.5t-9.5 -71q0 -55 36.5 -93t98.5 -61.5t143.5 -34t171.5 -10.5q102 0 196.5 6.5t174.5 20t142 35t101 51.5q10 7 18.5 17t15.5 18t13.5 14t12.5 6q8 0 14.5 -6t11.5 -15t10.5 -19.5t12.5 -19.5q14 -17 45.5 -27.5 t86.5 -10.5h40q17 0 26.5 -11.5t14.5 -28t6 -33.5t1 -29zM734 -183q6 0 27 -14t44 -31.5t41 -33.5t18 -20q0 -6 -12.5 -29.5t-29 -49t-32 -45.5t-21.5 -20q-3 0 -23 14t-43 31q-26 20 -59 46q-8 6 -13 6q-2 0 -9 -9q-23 -32 -41 -58q-16 -22 -30.5 -39.5t-19.5 -17.5 q-2 0 -12.5 6.5t-25.5 17t-31 23t-30 23.5t-23 19t-9 11q0 4 6.5 16t16 28.5t21.5 34.5t22.5 33t18.5 25t11 10q7 0 27.5 -14.5t41.5 -31.5q25 -20 54 -46q7 -6 12 -6q4 0 13 10q24 30 42 55q16 21 30 38.5t18 17.5zM761 -434q6 0 27 -14t44 -32t41 -34t18 -20q0 -6 -13 -29 t-29.5 -48.5t-32 -46t-20.5 -20.5q-3 0 -23 14.5t-43 31.5q-26 20 -59 46q-8 5 -14 5q-2 0 -3.5 -2.5t-4.5 -5.5q-23 -32 -41 -58q-16 -22 -30.5 -39.5t-19.5 -17.5q-4 0 -25 14t-44.5 31.5t-42.5 33.5t-19 20q0 6 13.5 29.5t30.5 50t32.5 47t18.5 20.5q7 0 27 -14.5 t42 -31.5q26 -20 55 -45q7 -7 11 -7q5 0 14 10q23 31 41 56q16 21 30.5 38.5t18.5 17.5z" />
<glyph unicode="&#x681;" horiz-adv-x="1120" d="M1038 445q0 -3 -3 -23.5t-7.5 -45.5t-8.5 -47t-6 -28q-1 -3 -27.5 -5.5t-72 -4t-106 -2t-129.5 -0.5q-47 0 -88.5 -15.5t-81.5 -40t-79 -55t-80 -60.5q-33 -24 -69 -45t-76.5 -37.5t-84.5 -26t-92 -9.5h-39q-19 0 -30 11.5t-16.5 28t-7 34t-1.5 29.5t1.5 29t7 33.5 t16.5 28t30 11.5h37q77 0 157 8.5t149 36.5q19 8 40 18.5t42 20.5t42 18.5t40 12.5q-21 8 -54.5 24t-73.5 31.5t-83.5 27t-83.5 11.5q-21 0 -41.5 -6.5t-37 -15t-28 -15t-12.5 -6.5q-2 0 -7 2t-10 4.5t-9.5 5t-4.5 4.5q0 20 7 44.5t19.5 49.5t30.5 47.5t40 37.5q25 17 55 29 t78 12q31 0 72.5 -15t85.5 -35t88 -39.5t79 -27.5q54 -13 117.5 -23t141.5 -14q24 -1 54 -2t57 -1.5t45 -2t18 -2.5zM710 888q0 -6 -4.5 -18.5t-11.5 -24.5t-14.5 -22t-13.5 -12t-25 -9t-43.5 -16.5t-50.5 -20t-46 -17.5q-49 -19 -84 -36t-43 -17q-5 0 -9 2.5t-4 10.5 q0 5 3.5 15.5t8.5 21t10 19.5t7 12q3 3 10 8t15 9.5t15.5 8t11.5 5.5q-8 2 -17.5 7.5t-17.5 14t-14 19.5t-6 25q0 17 9 38.5t22.5 42.5t28 39t26.5 30q19 19 37 30t33 16.5t28 7t23 1.5q11 0 23 -4.5t22 -13t16.5 -20t6.5 -25.5q0 -13 -4 -28.5t-10 -29t-12.5 -22.5 t-10.5 -9t-14.5 6.5t-23.5 14.5t-27 14.5t-26 6.5q-20 0 -34 -12t-14 -23q0 -3 11.5 -12.5t28.5 -19.5t36 -18t34 -9q12 3 28.5 8t32 9.5t27.5 8t15 3.5q11 0 11 -15z" />
<glyph unicode="&#x681;" horiz-adv-x="1095" d="M1162 103q0 -12 -1.5 -29.5t-7 -34t-16.5 -28t-30 -11.5h-37q-117 0 -206.5 11t-134.5 42q-59 40 -59 124q0 10 2 24t6 29.5t8.5 31t9.5 27.5h-18q-47 0 -88.5 -15.5t-81.5 -40t-79 -55t-80 -60.5q-33 -24 -69 -45t-76.5 -37.5t-85 -26t-93.5 -9.5h-37q-19 0 -30 11.5 t-16.5 28t-7 34t-1.5 29.5t1.5 29t7 33.5t16.5 28t30 11.5h37q100 0 173.5 10.5t132.5 34.5q18 7 38.5 17.5t42 21t43 19t40.5 12.5q-21 8 -54.5 24t-73.5 31.5t-83.5 27t-83.5 11.5q-21 0 -41.5 -6.5t-37 -15t-28 -15t-12.5 -6.5q-2 0 -7.5 2t-10.5 4.5t-9 5t-4 4.5 q0 20 7 44.5t19.5 49.5t30.5 47.5t40 37.5q25 17 55 29t78 12q31 0 72.5 -15t85.5 -35t88 -39.5t79 -27.5q81 -19 192 -31t230 -12q5 0 7.5 -4.5t2.5 -9.5q0 -2 -3 -20.5t-7 -41t-8 -43.5t-6 -27q-1 -3 -26.5 -6t-62 -4.5t-78.5 -2.5t-77 -1q-1 -2 -1 -6v-7q0 -14 11 -25 t28 -19q22 -9 56 -14.5t71 -7.5t73 -2.5t63 -0.5h37q19 0 30 -11.5t16.5 -28t7 -33.5t1.5 -29zM733 864q0 -6 -4.5 -18.5t-11.5 -24.5t-14.5 -22t-13.5 -12t-25 -9t-43.5 -16.5t-50.5 -20t-46 -17.5q-49 -19 -84 -36t-43 -17q-5 0 -9 2.5t-4 10.5q0 5 3.5 15.5t8.5 21 t10 19.5t7 12q3 3 10 8t15 9.5t15.5 8t11.5 5.5q-8 2 -17.5 7.5t-17.5 14t-14 19.5t-6 25q0 17 9 38.5t22.5 42.5t28 39t26.5 30q19 19 37 30t33 16.5t28 7t23 1.5q11 0 23 -4.5t22 -13t16.5 -20t6.5 -25.5q0 -13 -4 -28.5t-10 -29t-12.5 -22.5t-10.5 -9t-14.5 6.5 t-23.5 14.5t-27 14.5t-26 6.5q-20 0 -34 -12t-14 -23q0 -3 11.5 -12.5t28.5 -19.5t36 -18t34 -9q12 3 28.5 8t32 9.5t27.5 8t15 3.5q11 0 11 -15z" />
<glyph unicode="&#x681;" horiz-adv-x="1112" d="M1101 -593q0 -5 -22.5 -17.5t-58 -29.5t-79 -35.5t-84.5 -35t-75.5 -28.5t-51.5 -16q-40 -9 -70.5 -10.5t-47.5 -1.5q-104 0 -205.5 26.5t-182 83.5t-130 146.5t-49.5 214.5q0 99 35.5 185.5t94.5 159t134 131t155 101.5q-54 17 -100.5 23t-84.5 6t-67.5 -4.5t-51 -10 t-34.5 -10t-19 -4.5q-2 0 -11 6.5t-9 11.5q0 13 4 34.5t8.5 43.5t8.5 39.5t5 21.5q1 5 21.5 17.5t52 25t70 22.5t76.5 10q69 0 116.5 -7.5t91 -16.5t91 -16.5t117.5 -7.5q16 0 41.5 1t53 2.5t55 2.5t47.5 1q17 0 28 -1.5t11 -3.5t-4.5 -13t-11 -26.5t-14.5 -33.5t-15.5 -33 t-13 -25t-6.5 -10q-10 -2 -27 -4.5t-37 -5.5t-41 -6.5l-39 -6.5q1 -26 11.5 -44.5t43 -30.5t93.5 -17.5t163 -5.5h37q11 0 21 -2t17.5 -12t12 -29.5t4.5 -54.5q0 -63 -16 -85t-39 -22h-117q-76 0 -133.5 2t-103.5 16q-39 11 -60 43t-21 89q0 23 6.5 59t14.5 73 q-120 -31 -224 -81.5t-180 -115.5t-119.5 -143t-43.5 -164q0 -95 45.5 -163t132.5 -112t214 -64.5t290 -20.5q54 0 100 3.5t80.5 8t56.5 8.5t28 4q1 0 3 -5t4 -11.5t3 -12t1 -6.5zM794 796q0 -6 -4.5 -18.5t-11.5 -24.5t-14.5 -22t-13.5 -12t-25 -9t-43.5 -16.5t-50.5 -20 t-46 -17.5q-49 -19 -84 -36t-43 -17q-5 0 -9 2.5t-4 10.5q0 5 3.5 15.5t8.5 21t10 19.5t7 12q3 3 10 8t15 9.5t15.5 8t11.5 5.5q-8 2 -17.5 7.5t-17.5 14t-14 19.5t-6 25q0 17 9 38.5t22.5 42.5t28 39t26.5 30q19 19 37 30t33 16.5t28 7t23 1.5q11 0 23 -4.5t22 -13 t16.5 -20t6.5 -25.5q0 -13 -4 -28.5t-10 -29t-12.5 -22.5t-10.5 -9t-14.5 6.5t-23.5 14.5t-27 14.5t-26 6.5q-20 0 -34 -12t-14 -23q0 -3 11.5 -12.5t28.5 -19.5t36 -18t34 -9q12 3 28.5 8t32 9.5t27.5 8t15 3.5q11 0 11 -15z" />
<glyph unicode="&#x682;" horiz-adv-x="1120" d="M1038 445q0 -3 -3 -23.5t-7.5 -45.5t-8.5 -47t-6 -28q-1 -3 -27.5 -5.5t-72 -4t-106 -2t-129.5 -0.5q-47 0 -88.5 -15.5t-81.5 -40t-79 -55t-80 -60.5q-33 -24 -69 -45t-76.5 -37.5t-84.5 -26t-92 -9.5h-39q-19 0 -30 11.5t-16.5 28t-7 34t-1.5 29.5t1.5 29t7 33.5 t16.5 28t30 11.5h37q77 0 157 8.5t149 36.5q19 8 40 18.5t42 20.5t42 18.5t40 12.5q-21 8 -54.5 24t-73.5 31.5t-83.5 27t-83.5 11.5q-21 0 -41.5 -6.5t-37 -15t-28 -15t-12.5 -6.5q-2 0 -7 2t-10 4.5t-9.5 5t-4.5 4.5q0 20 7 44.5t19.5 49.5t30.5 47.5t40 37.5q25 17 55 29 t78 12q31 0 72.5 -15t85.5 -35t88 -39.5t79 -27.5q54 -13 117.5 -23t141.5 -14q24 -1 54 -2t57 -1.5t45 -2t18 -2.5zM649 796q0 -8 -13.5 -29.5t-30.5 -44.5t-32.5 -41t-19.5 -18q-3 0 -23.5 12t-44 28t-43 30.5t-19.5 19.5q0 6 10.5 22.5t25 35.5t28.5 36.5t22 25.5 q5 7 5 11q0 5 -3 8q-9 6 -28 18.5t-38.5 26.5t-34 26t-14.5 17q0 3 6.5 14t16 26t21 32t22.5 31t19.5 23.5t12.5 9.5q7 0 29.5 -14.5t46 -32.5t42 -34t18.5 -18q0 -3 -10.5 -18t-24 -34t-27 -37l-19.5 -26q-2 -2 -6 -7t-4 -10q0 -4 9 -10q8 -6 25 -17.5t34 -23.5t29.5 -23 t12.5 -15z" />
<glyph unicode="&#x682;" horiz-adv-x="1095" d="M1162 103q0 -12 -1.5 -29.5t-7 -34t-16.5 -28t-30 -11.5h-37q-117 0 -206.5 11t-134.5 42q-59 40 -59 124q0 10 2 24t6 29.5t8.5 31t9.5 27.5h-18q-47 0 -88.5 -15.5t-81.5 -40t-79 -55t-80 -60.5q-33 -24 -69 -45t-76.5 -37.5t-85 -26t-93.5 -9.5h-37q-19 0 -30 11.5 t-16.5 28t-7 34t-1.5 29.5t1.5 29t7 33.5t16.5 28t30 11.5h37q100 0 173.5 10.5t132.5 34.5q18 7 38.5 17.5t42 21t43 19t40.5 12.5q-21 8 -54.5 24t-73.5 31.5t-83.5 27t-83.5 11.5q-21 0 -41.5 -6.5t-37 -15t-28 -15t-12.5 -6.5q-2 0 -7.5 2t-10.5 4.5t-9 5t-4 4.5 q0 20 7 44.5t19.5 49.5t30.5 47.5t40 37.5q25 17 55 29t78 12q31 0 72.5 -15t85.5 -35t88 -39.5t79 -27.5q81 -19 192 -31t230 -12q5 0 7.5 -4.5t2.5 -9.5q0 -2 -3 -20.5t-7 -41t-8 -43.5t-6 -27q-1 -3 -26.5 -6t-62 -4.5t-78.5 -2.5t-77 -1q-1 -2 -1 -6v-7q0 -14 11 -25 t28 -19q22 -9 56 -14.5t71 -7.5t73 -2.5t63 -0.5h37q19 0 30 -11.5t16.5 -28t7 -33.5t1.5 -29zM671 842q0 -8 -13.5 -29.5t-30.5 -44.5t-32.5 -41t-19.5 -18q-3 0 -23.5 12t-44 28t-43 30.5t-19.5 19.5q0 6 10.5 22.5t25 35.5t28.5 36.5t22 25.5q5 7 5 11q0 5 -3 8 q-9 6 -28 18.5t-38.5 26.5t-34 26t-14.5 17q0 3 6.5 14t16 26t21 32t22.5 31t19.5 23.5t12.5 9.5q7 0 29.5 -14.5t46 -32.5t42 -34t18.5 -18q0 -3 -10.5 -18t-24 -34t-27 -37l-19.5 -26q-2 -2 -6 -7t-4 -10q0 -4 9 -10q8 -6 25 -17.5t34 -23.5t29.5 -23t12.5 -15z" />
<glyph unicode="&#x682;" horiz-adv-x="1112" d="M1101 -593q0 -5 -22.5 -17.5t-58 -29.5t-79 -35.5t-84.5 -35t-75.5 -28.5t-51.5 -16q-40 -9 -70.5 -10.5t-47.5 -1.5q-104 0 -205.5 26.5t-182 83.5t-130 146.5t-49.5 214.5q0 99 35.5 185.5t94.5 159t134 131t155 101.5q-54 17 -100.5 23t-84.5 6t-67.5 -4.5t-51 -10 t-34.5 -10t-19 -4.5q-2 0 -11 6.5t-9 11.5q0 13 4 34.5t8.5 43.5t8.5 39.5t5 21.5q1 5 21.5 17.5t52 25t70 22.5t76.5 10q69 0 116.5 -7.5t91 -16.5t91 -16.5t117.5 -7.5q16 0 41.5 1t53 2.5t55 2.5t47.5 1q17 0 28 -1.5t11 -3.5t-4.5 -13t-11 -26.5t-14.5 -33.5t-15.5 -33 t-13 -25t-6.5 -10q-10 -2 -27 -4.5t-37 -5.5t-41 -6.5l-39 -6.5q1 -26 11.5 -44.5t43 -30.5t93.5 -17.5t163 -5.5h37q11 0 21 -2t17.5 -12t12 -29.5t4.5 -54.5q0 -63 -16 -85t-39 -22h-117q-76 0 -133.5 2t-103.5 16q-39 11 -60 43t-21 89q0 23 6.5 59t14.5 73 q-120 -31 -224 -81.5t-180 -115.5t-119.5 -143t-43.5 -164q0 -95 45.5 -163t132.5 -112t214 -64.5t290 -20.5q54 0 100 3.5t80.5 8t56.5 8.5t28 4q1 0 3 -5t4 -11.5t3 -12t1 -6.5zM713 727q0 -8 -13.5 -29.5t-30.5 -44.5t-32.5 -41t-19.5 -18q-3 0 -23.5 12t-44 28t-43 30.5 t-19.5 19.5q0 6 10.5 22.5t25 35.5t28.5 36.5t22 25.5q5 7 5 11q0 5 -3 8q-9 6 -28 18.5t-38.5 26.5t-34 26t-14.5 17q0 3 6.5 14t16 26t21 32t22.5 31t19.5 23.5t12.5 9.5q7 0 29.5 -14.5t46 -32.5t42 -34t18.5 -18q0 -3 -10.5 -18t-24 -34t-27 -37l-19.5 -26q-2 -2 -6 -7 t-4 -10q0 -4 9 -10q8 -6 25 -17.5t34 -23.5t29.5 -23t12.5 -15z" />
<glyph unicode="&#x683;" horiz-adv-x="1120" arabic-form="initial" d="M1038 445q0 -3 -3 -23.5t-7.5 -45.5t-8.5 -47t-6 -28q-1 -3 -27.5 -5.5t-72 -4t-106 -2t-129.5 -0.5q-47 0 -88.5 -15.5t-81.5 -40t-79 -55t-80 -60.5q-33 -24 -69 -45t-76.5 -37.5t-84.5 -26t-92 -9.5h-39q-19 0 -30 11.5t-16.5 28t-7 34t-1.5 29.5t1.5 29t7 33.5 t16.5 28t30 11.5h37q77 0 157 8.5t149 36.5q19 8 40 18.5t42 20.5t42 18.5t40 12.5q-21 8 -54.5 24t-73.5 31.5t-83.5 27t-83.5 11.5q-21 0 -41.5 -6.5t-37 -15t-28 -15t-12.5 -6.5q-2 0 -7 2t-10 4.5t-9.5 5t-4.5 4.5q0 20 7 44.5t19.5 49.5t30.5 47.5t40 37.5q25 17 55 29 t78 12q31 0 72.5 -15t85.5 -35t88 -39.5t79 -27.5q54 -13 117.5 -23t141.5 -14q24 -1 54 -2t57 -1.5t45 -2t18 -2.5zM621 -81q6 0 27 -14t44 -31.5t41 -34t18 -20.5t-6 -16t-15.5 -28t-21 -33.5t-22 -32t-19 -24t-11.5 -9.5q-4 0 -23.5 14t-42.5 31l-60 46q-6 6 -13 6 q-3 0 -8 -9q-23 -32 -41 -58q-16 -22 -31 -39.5t-20 -17.5q-2 0 -12.5 6.5t-25.5 17t-31 22.5t-30 23t-23 19.5t-9 11.5q0 4 6.5 16t16.5 28.5t21.5 34.5t22.5 32.5t19 24.5t10 10q7 0 27 -14.5t42 -31.5q26 -20 55 -45q6 -7 11 -7q3 0 5.5 2t7.5 9q23 30 42 55 q16 21 30.5 38.5t18.5 17.5z" />
<glyph unicode="&#x683;" horiz-adv-x="1095" arabic-form="medial" d="M1162 103q0 -12 -1.5 -29.5t-7 -34t-16.5 -28t-30 -11.5h-37q-117 0 -206.5 11t-134.5 42q-59 40 -59 124q0 10 2 24t6 29.5t8.5 31t9.5 27.5h-18q-47 0 -88.5 -15.5t-81.5 -40t-79 -55t-80 -60.5q-33 -24 -69 -45t-76.5 -37.5t-85 -26t-93.5 -9.5h-37q-19 0 -30 11.5 t-16.5 28t-7 34t-1.5 29.5t1.5 29t7 33.5t16.5 28t30 11.5h37q100 0 173.5 10.5t132.5 34.5q18 7 38.5 17.5t42 21t43 19t40.5 12.5q-21 8 -54.5 24t-73.5 31.5t-83.5 27t-83.5 11.5q-21 0 -41.5 -6.5t-37 -15t-28 -15t-12.5 -6.5q-2 0 -7.5 2t-10.5 4.5t-9 5t-4 4.5 q0 20 7 44.5t19.5 49.5t30.5 47.5t40 37.5q25 17 55 29t78 12q31 0 72.5 -15t85.5 -35t88 -39.5t79 -27.5q81 -19 192 -31t230 -12q5 0 7.5 -4.5t2.5 -9.5q0 -2 -3 -20.5t-7 -41t-8 -43.5t-6 -27q-1 -3 -26.5 -6t-62 -4.5t-78.5 -2.5t-77 -1q-1 -2 -1 -6v-7q0 -14 11 -25 t28 -19q22 -9 56 -14.5t71 -7.5t73 -2.5t63 -0.5h37q19 0 30 -11.5t16.5 -28t7 -33.5t1.5 -29zM645 -66q6 0 27 -14t44 -31.5t41 -34t18 -20.5t-6 -16t-15.5 -28t-21 -33.5t-22 -32t-19 -24t-11.5 -9.5q-4 0 -23.5 14t-42.5 31l-60 46q-6 6 -13 6q-3 0 -8 -9 q-23 -32 -41 -58q-16 -22 -31 -39.5t-20 -17.5q-2 0 -12.5 6.5t-25.5 17t-31 22.5t-30 23t-23 19.5t-9 11.5q0 4 6.5 16t16.5 28.5t21.5 34.5t22.5 32.5t19 24.5t10 10q7 0 27 -14.5t42 -31.5q26 -20 55 -45q6 -7 11 -7q3 0 5.5 2t7.5 9q23 30 42 55q16 21 30.5 38.5 t18.5 17.5z" />
<glyph unicode="&#x683;" horiz-adv-x="1112" arabic-form="final" d="M1101 -593q0 -5 -22.5 -17.5t-58 -29.5t-79 -35.5t-84.5 -35t-75.5 -28.5t-51.5 -16q-40 -9 -70.5 -10.5t-47.5 -1.5q-104 0 -205.5 26.5t-182 83.5t-130 146.5t-49.5 214.5q0 99 35.5 185.5t94.5 159t134 131t155 101.5q-54 17 -100.5 23t-84.5 6t-67.5 -4.5t-51 -10 t-34.5 -10t-19 -4.5q-2 0 -11 6.5t-9 11.5q0 13 4 34.5t8.5 43.5t8.5 39.5t5 21.5q1 5 21.5 17.5t52 25t70 22.5t76.5 10q69 0 116.5 -7.5t91 -16.5t91 -16.5t117.5 -7.5q16 0 41.5 1t53 2.5t55 2.5t47.5 1q17 0 28 -1.5t11 -3.5t-4.5 -13t-11 -26.5t-14.5 -33.5t-15.5 -33 t-13 -25t-6.5 -10q-10 -2 -27 -4.5t-37 -5.5t-41 -6.5l-39 -6.5q1 -26 11.5 -44.5t43 -30.5t93.5 -17.5t163 -5.5h37q11 0 21 -2t17.5 -12t12 -29.5t4.5 -54.5q0 -63 -16 -85t-39 -22h-117q-76 0 -133.5 2t-103.5 16q-39 11 -60 43t-21 89q0 23 6.5 59t14.5 73 q-120 -31 -224 -81.5t-180 -115.5t-119.5 -143t-43.5 -164q0 -95 45.5 -163t132.5 -112t214 -64.5t290 -20.5q54 0 100 3.5t80.5 8t56.5 8.5t28 4q1 0 3 -5t4 -11.5t3 -12t1 -6.5zM687 -68q6 0 27 -14t44 -31.5t41 -34t18 -20.5t-6 -16t-15.5 -28t-21 -33.5t-22 -32t-19 -24 t-11.5 -9.5q-4 0 -23.5 14t-42.5 31l-60 46q-6 6 -13 6q-3 0 -8 -9q-23 -32 -41 -58q-16 -22 -31 -39.5t-20 -17.5q-2 0 -12.5 6.5t-25.5 17t-31 22.5t-30 23t-23 19.5t-9 11.5q0 4 6.5 16t16.5 28.5t21.5 34.5t22.5 32.5t19 24.5t10 10q7 0 27 -14.5t42 -31.5 q26 -20 55 -45q6 -7 11 -7q3 0 5.5 2t7.5 9q23 30 42 55q16 21 30.5 38.5t18.5 17.5z" />
<glyph unicode="&#x684;" horiz-adv-x="1120" arabic-form="initial" d="M1038 445q0 -3 -3 -23.5t-7.5 -45.5t-8.5 -47t-6 -28q-1 -3 -27.5 -5.5t-72 -4t-106 -2t-129.5 -0.5q-47 0 -88.5 -15.5t-81.5 -40t-79 -55t-80 -60.5q-33 -24 -69 -45t-76.5 -37.5t-84.5 -26t-92 -9.5h-39q-19 0 -30 11.5t-16.5 28t-7 34t-1.5 29.5t1.5 29t7 33.5 t16.5 28t30 11.5h37q77 0 157 8.5t149 36.5q19 8 40 18.5t42 20.5t42 18.5t40 12.5q-21 8 -54.5 24t-73.5 31.5t-83.5 27t-83.5 11.5q-21 0 -41.5 -6.5t-37 -15t-28 -15t-12.5 -6.5q-2 0 -7 2t-10 4.5t-9.5 5t-4.5 4.5q0 20 7 44.5t19.5 49.5t30.5 47.5t40 37.5q25 17 55 29 t78 12q31 0 72.5 -15t85.5 -35t88 -39.5t79 -27.5q54 -13 117.5 -23t141.5 -14q24 -1 54 -2t57 -1.5t45 -2t18 -2.5zM656 -406q0 -8 -13.5 -29.5t-30.5 -44.5t-32.5 -41t-19.5 -18q-3 0 -23.5 12t-44 28t-43 30.5t-19.5 19.5q0 6 10.5 22.5t25 35.5t28.5 36.5t22 25.5 q5 7 5 11q0 5 -3 8q-9 6 -28 18.5t-38.5 26.5t-34 26t-14.5 17q0 3 6.5 14t16 26t21 32t22.5 31t19.5 23.5t12.5 9.5q7 0 29.5 -14.5t46 -32.5t42 -34t18.5 -18q0 -3 -10.5 -18t-24 -34t-27 -37l-19.5 -26q-2 -2 -6 -7t-4 -10q0 -4 9 -10q8 -6 25 -17.5t34 -23.5t29.5 -23 t12.5 -15z" />
<glyph unicode="&#x684;" horiz-adv-x="1095" arabic-form="medial" d="M1162 103q0 -12 -1.5 -29.5t-7 -34t-16.5 -28t-30 -11.5h-37q-117 0 -206.5 11t-134.5 42q-59 40 -59 124q0 10 2 24t6 29.5t8.5 31t9.5 27.5h-18q-47 0 -88.5 -15.5t-81.5 -40t-79 -55t-80 -60.5q-33 -24 -69 -45t-76.5 -37.5t-85 -26t-93.5 -9.5h-37q-19 0 -30 11.5 t-16.5 28t-7 34t-1.5 29.5t1.5 29t7 33.5t16.5 28t30 11.5h37q100 0 173.5 10.5t132.5 34.5q18 7 38.5 17.5t42 21t43 19t40.5 12.5q-21 8 -54.5 24t-73.5 31.5t-83.5 27t-83.5 11.5q-21 0 -41.5 -6.5t-37 -15t-28 -15t-12.5 -6.5q-2 0 -7.5 2t-10.5 4.5t-9 5t-4 4.5 q0 20 7 44.5t19.5 49.5t30.5 47.5t40 37.5q25 17 55 29t78 12q31 0 72.5 -15t85.5 -35t88 -39.5t79 -27.5q81 -19 192 -31t230 -12q5 0 7.5 -4.5t2.5 -9.5q0 -2 -3 -20.5t-7 -41t-8 -43.5t-6 -27q-1 -3 -26.5 -6t-62 -4.5t-78.5 -2.5t-77 -1q-1 -2 -1 -6v-7q0 -14 11 -25 t28 -19q22 -9 56 -14.5t71 -7.5t73 -2.5t63 -0.5h37q19 0 30 -11.5t16.5 -28t7 -33.5t1.5 -29zM671 -410q0 -8 -13.5 -29.5t-30.5 -44.5t-32.5 -41t-19.5 -18q-3 0 -23.5 12t-44 28t-43 30.5t-19.5 19.5q0 6 10.5 22.5t25 35.5t28.5 36.5t22 25.5q5 7 5 11q0 5 -3 8 q-9 6 -28 18.5t-38.5 26.5t-34 26t-14.5 17q0 3 6.5 14t16 26t21 32t22.5 31t19.5 23.5t12.5 9.5q7 0 29.5 -14.5t46 -32.5t42 -34t18.5 -18q0 -3 -10.5 -18t-24 -34t-27 -37l-19.5 -26q-2 -2 -6 -7t-4 -10q0 -4 9 -10q8 -6 25 -17.5t34 -23.5t29.5 -23t12.5 -15z" />
<glyph unicode="&#x684;" horiz-adv-x="1112" arabic-form="final" d="M1101 -593q0 -5 -22.5 -17.5t-58 -29.5t-79 -35.5t-84.5 -35t-75.5 -28.5t-51.5 -16q-40 -9 -70.5 -10.5t-47.5 -1.5q-104 0 -205.5 26.5t-182 83.5t-130 146.5t-49.5 214.5q0 99 35.5 185.5t94.5 159t134 131t155 101.5q-54 17 -100.5 23t-84.5 6t-67.5 -4.5t-51 -10 t-34.5 -10t-19 -4.5q-2 0 -11 6.5t-9 11.5q0 13 4 34.5t8.5 43.5t8.5 39.5t5 21.5q1 5 21.5 17.5t52 25t70 22.5t76.5 10q69 0 116.5 -7.5t91 -16.5t91 -16.5t117.5 -7.5q16 0 41.5 1t53 2.5t55 2.5t47.5 1q17 0 28 -1.5t11 -3.5t-4.5 -13t-11 -26.5t-14.5 -33.5t-15.5 -33 t-13 -25t-6.5 -10q-10 -2 -27 -4.5t-37 -5.5t-41 -6.5l-39 -6.5q1 -26 11.5 -44.5t43 -30.5t93.5 -17.5t163 -5.5h37q11 0 21 -2t17.5 -12t12 -29.5t4.5 -54.5q0 -63 -16 -85t-39 -22h-117q-76 0 -133.5 2t-103.5 16q-39 11 -60 43t-21 89q0 23 6.5 59t14.5 73 q-120 -31 -224 -81.5t-180 -115.5t-119.5 -143t-43.5 -164q0 -95 45.5 -163t132.5 -112t214 -64.5t290 -20.5q54 0 100 3.5t80.5 8t56.5 8.5t28 4q1 0 3 -5t4 -11.5t3 -12t1 -6.5zM700 -306q0 -8 -13.5 -29.5t-30.5 -44.5t-32.5 -41t-19.5 -18q-3 0 -23.5 12t-44 28 t-43 30.5t-19.5 19.5q0 6 10.5 22.5t25 35.5t28.5 36.5t22 25.5q5 7 5 11q0 5 -3 8q-9 6 -28 18.5t-38.5 26.5t-34 26t-14.5 17q0 3 6.5 14t16 26t21 32t22.5 31t19.5 23.5t12.5 9.5q7 0 29.5 -14.5t46 -32.5t42 -34t18.5 -18q0 -3 -10.5 -18t-24 -34t-27 -37l-19.5 -26 q-2 -2 -6 -7t-4 -10q0 -4 9 -10q8 -6 25 -17.5t34 -23.5t29.5 -23t12.5 -15z" />
<glyph unicode="&#x685;" horiz-adv-x="1120" d="M1038 445q0 -3 -3 -23.5t-7.5 -45.5t-8.5 -47t-6 -28q-1 -3 -27.5 -5.5t-72 -4t-106 -2t-129.5 -0.5q-47 0 -88.5 -15.5t-81.5 -40t-79 -55t-80 -60.5q-33 -24 -69 -45t-76.5 -37.5t-84.5 -26t-92 -9.5h-39q-19 0 -30 11.5t-16.5 28t-7 34t-1.5 29.5t1.5 29t7 33.5 t16.5 28t30 11.5h37q77 0 157 8.5t149 36.5q19 8 40 18.5t42 20.5t42 18.5t40 12.5q-21 8 -54.5 24t-73.5 31.5t-83.5 27t-83.5 11.5q-21 0 -41.5 -6.5t-37 -15t-28 -15t-12.5 -6.5q-2 0 -7 2t-10 4.5t-9.5 5t-4.5 4.5q0 20 7 44.5t19.5 49.5t30.5 47.5t40 37.5q25 17 55 29 t78 12q31 0 72.5 -15t85.5 -35t88 -39.5t79 -27.5q54 -13 117.5 -23t141.5 -14q24 -1 54 -2t57 -1.5t45 -2t18 -2.5zM380 1072q0 6 13 29.5t30 49.5t33.5 46.5t22.5 20.5q2 0 13 -6.5t25.5 -16.5t31 -22.5t30.5 -23.5t23 -20t9 -12q0 -4 -6.5 -16t-16 -28.5t-21.5 -34.5 t-23 -32.5t-19.5 -24.5t-11.5 -10q-6 0 -27.5 14t-45 32t-42 34t-18.5 21zM423 709q-6 0 -27 14t-44 32t-41 34t-18 20q0 6 13 29t29.5 48.5t32 46t20.5 20.5q3 0 23 -14.5t43 -31.5l60 -46q7 -5 13 -5q3 0 8 8q23 31 41 57q16 22 31 40t20 18q2 0 12.5 -6.5t25.5 -17 t31 -22.5t30 -23t23 -19.5t9 -11.5q0 -4 -6.5 -16t-16.5 -28.5t-21.5 -34.5t-22.5 -32.5t-19 -24.5t-10 -10q-8 0 -27.5 14t-41.5 31q-26 20 -55 46q-6 7 -11 7q-6 0 -13 -10l-42 -56q-17 -21 -31 -38.5t-18 -17.5z" />
<glyph unicode="&#x685;" horiz-adv-x="1095" d="M1162 103q0 -12 -1.5 -29.5t-7 -34t-16.5 -28t-30 -11.5h-37q-117 0 -206.5 11t-134.5 42q-59 40 -59 124q0 10 2 24t6 29.5t8.5 31t9.5 27.5h-18q-47 0 -88.5 -15.5t-81.5 -40t-79 -55t-80 -60.5q-33 -24 -69 -45t-76.5 -37.5t-85 -26t-93.5 -9.5h-37q-19 0 -30 11.5 t-16.5 28t-7 34t-1.5 29.5t1.5 29t7 33.5t16.5 28t30 11.5h37q100 0 173.5 10.5t132.5 34.5q18 7 38.5 17.5t42 21t43 19t40.5 12.5q-21 8 -54.5 24t-73.5 31.5t-83.5 27t-83.5 11.5q-21 0 -41.5 -6.5t-37 -15t-28 -15t-12.5 -6.5q-2 0 -7.5 2t-10.5 4.5t-9 5t-4 4.5 q0 20 7 44.5t19.5 49.5t30.5 47.5t40 37.5q25 17 55 29t78 12q31 0 72.5 -15t85.5 -35t88 -39.5t79 -27.5q81 -19 192 -31t230 -12q5 0 7.5 -4.5t2.5 -9.5q0 -2 -3 -20.5t-7 -41t-8 -43.5t-6 -27q-1 -3 -26.5 -6t-62 -4.5t-78.5 -2.5t-77 -1q-1 -2 -1 -6v-7q0 -14 11 -25 t28 -19q22 -9 56 -14.5t71 -7.5t73 -2.5t63 -0.5h37q19 0 30 -11.5t16.5 -28t7 -33.5t1.5 -29zM375 1104q0 6 13 29.5t30 49.5t33.5 46.5t22.5 20.5q2 0 13 -6.5t25.5 -16.5t31 -22.5t30.5 -23.5t23 -20t9 -12q0 -4 -6.5 -16t-16 -28.5t-21.5 -34.5t-23 -32.5t-19.5 -24.5 t-11.5 -10q-6 0 -27.5 14t-45 32t-42 34t-18.5 21zM418 741q-6 0 -27 14t-44 32t-41 34t-18 20q0 6 13 29t29.5 48.5t32 46t20.5 20.5q3 0 23 -14.5t43 -31.5l60 -46q7 -5 13 -5q3 0 8 8q23 31 41 57q16 22 31 40t20 18q2 0 12.5 -6.5t25.5 -17t31 -22.5t30 -23t23 -19.5 t9 -11.5q0 -4 -6.5 -16t-16.5 -28.5t-21.5 -34.5t-22.5 -32.5t-19 -24.5t-10 -10q-8 0 -27.5 14t-41.5 31q-26 20 -55 46q-6 7 -11 7q-6 0 -13 -10l-42 -56q-17 -21 -31 -38.5t-18 -17.5z" />
<glyph unicode="&#x685;" horiz-adv-x="1112" d="M1101 -593q0 -5 -22.5 -17.5t-58 -29.5t-79 -35.5t-84.5 -35t-75.5 -28.5t-51.5 -16q-40 -9 -70.5 -10.5t-47.5 -1.5q-104 0 -205.5 26.5t-182 83.5t-130 146.5t-49.5 214.5q0 99 35.5 185.5t94.5 159t134 131t155 101.5q-54 17 -100.5 23t-84.5 6t-67.5 -4.5t-51 -10 t-34.5 -10t-19 -4.5q-2 0 -11 6.5t-9 11.5q0 13 4 34.5t8.5 43.5t8.5 39.5t5 21.5q1 5 21.5 17.5t52 25t70 22.5t76.5 10q69 0 116.5 -7.5t91 -16.5t91 -16.5t117.5 -7.5q16 0 41.5 1t53 2.5t55 2.5t47.5 1q17 0 28 -1.5t11 -3.5t-4.5 -13t-11 -26.5t-14.5 -33.5t-15.5 -33 t-13 -25t-6.5 -10q-10 -2 -27 -4.5t-37 -5.5t-41 -6.5l-39 -6.5q1 -26 11.5 -44.5t43 -30.5t93.5 -17.5t163 -5.5h37q11 0 21 -2t17.5 -12t12 -29.5t4.5 -54.5q0 -63 -16 -85t-39 -22h-117q-76 0 -133.5 2t-103.5 16q-39 11 -60 43t-21 89q0 23 6.5 59t14.5 73 q-120 -31 -224 -81.5t-180 -115.5t-119.5 -143t-43.5 -164q0 -95 45.5 -163t132.5 -112t214 -64.5t290 -20.5q54 0 100 3.5t80.5 8t56.5 8.5t28 4q1 0 3 -5t4 -11.5t3 -12t1 -6.5zM454 979q0 6 13 29.5t30 49.5t33.5 46.5t22.5 20.5q2 0 13 -6.5t25.5 -16.5t31 -22.5 t30.5 -23.5t23 -20t9 -12q0 -4 -6.5 -16t-16 -28.5t-21.5 -34.5t-23 -32.5t-19.5 -24.5t-11.5 -10q-6 0 -27.5 14t-45 32t-42 34t-18.5 21zM497 616q-6 0 -27 14t-44 32t-41 34t-18 20q0 6 13 29t29.5 48.5t32 46t20.5 20.5q3 0 23 -14.5t43 -31.5l60 -46q7 -5 13 -5 q3 0 8 8q23 31 41 57q16 22 31 40t20 18q2 0 12.5 -6.5t25.5 -17t31 -22.5t30 -23t23 -19.5t9 -11.5q0 -4 -6.5 -16t-16.5 -28.5t-21.5 -34.5t-22.5 -32.5t-19 -24.5t-10 -10q-8 0 -27.5 14t-41.5 31q-26 20 -55 46q-6 7 -11 7q-6 0 -13 -10l-42 -56q-17 -21 -31 -38.5 t-18 -17.5z" />
<glyph unicode="&#x686;" horiz-adv-x="1120" arabic-form="initial" d="M1038 445q0 -3 -3 -23.5t-7.5 -45.5t-8.5 -47t-6 -28q-1 -3 -27.5 -5.5t-72 -4t-106 -2t-129.5 -0.5q-47 0 -88.5 -15.5t-81.5 -40t-79 -55t-80 -60.5q-33 -24 -69 -45t-76.5 -37.5t-84.5 -26t-92 -9.5h-39q-19 0 -30 11.5t-16.5 28t-7 34t-1.5 29.5t1.5 29t7 33.5 t16.5 28t30 11.5h37q77 0 157 8.5t149 36.5q19 8 40 18.5t42 20.5t42 18.5t40 12.5q-21 8 -54.5 24t-73.5 31.5t-83.5 27t-83.5 11.5q-21 0 -41.5 -6.5t-37 -15t-28 -15t-12.5 -6.5q-2 0 -7 2t-10 4.5t-9.5 5t-4.5 4.5q0 20 7 44.5t19.5 49.5t30.5 47.5t40 37.5q25 17 55 29 t78 12q31 0 72.5 -15t85.5 -35t88 -39.5t79 -27.5q54 -13 117.5 -23t141.5 -14q24 -1 54 -2t57 -1.5t45 -2t18 -2.5zM630 -75q6 0 27 -14t44 -32t41 -34t18 -20q0 -6 -13 -29t-29.5 -48.5t-32 -46t-20.5 -20.5q-4 0 -23.5 14.5t-42.5 31.5l-60 46q-7 5 -13 5q-3 0 -8 -8 q-23 -32 -41 -58q-16 -22 -31 -39.5t-20 -17.5q-2 0 -12.5 6.5t-25.5 17t-31 22.5t-30 23t-23 19.5t-9 11.5q0 4 6.5 16t16.5 28.5t21.5 34.5t22.5 32.5t19 24.5t10 10q7 0 27 -14.5t42 -31.5q26 -20 55 -45q6 -7 11 -7t13 10q23 31 42 56q16 21 30.5 38.5t18.5 17.5z M673 -438q0 -6 -13 -29.5t-30 -49.5t-33.5 -46.5t-22.5 -20.5q-2 0 -13 6.5t-25.5 16.5t-31 22.5t-30.5 23.5t-23 20t-9 12q0 4 6.5 16t16 28.5t21.5 34.5t23 32.5t19.5 24.5t11.5 10q6 0 27.5 -14t45 -32t42 -34.5t18.5 -20.5z" />
<glyph unicode="&#x686;" horiz-adv-x="1095" arabic-form="medial" d="M1162 103q0 -12 -1.5 -29.5t-7 -34t-16.5 -28t-30 -11.5h-37q-117 0 -206.5 11t-134.5 42q-59 40 -59 124q0 10 2 24t6 29.5t8.5 31t9.5 27.5h-18q-47 0 -88.5 -15.5t-81.5 -40t-79 -55t-80 -60.5q-33 -24 -69 -45t-76.5 -37.5t-85 -26t-93.5 -9.5h-37q-19 0 -30 11.5 t-16.5 28t-7 34t-1.5 29.5t1.5 29t7 33.5t16.5 28t30 11.5h37q100 0 173.5 10.5t132.5 34.5q18 7 38.5 17.5t42 21t43 19t40.5 12.5q-21 8 -54.5 24t-73.5 31.5t-83.5 27t-83.5 11.5q-21 0 -41.5 -6.5t-37 -15t-28 -15t-12.5 -6.5q-2 0 -7.5 2t-10.5 4.5t-9 5t-4 4.5 q0 20 7 44.5t19.5 49.5t30.5 47.5t40 37.5q25 17 55 29t78 12q31 0 72.5 -15t85.5 -35t88 -39.5t79 -27.5q81 -19 192 -31t230 -12q5 0 7.5 -4.5t2.5 -9.5q0 -2 -3 -20.5t-7 -41t-8 -43.5t-6 -27q-1 -3 -26.5 -6t-62 -4.5t-78.5 -2.5t-77 -1q-1 -2 -1 -6v-7q0 -14 11 -25 t28 -19q22 -9 56 -14.5t71 -7.5t73 -2.5t63 -0.5h37q19 0 30 -11.5t16.5 -28t7 -33.5t1.5 -29zM645 -72q6 0 27 -14t44 -32t41 -34t18 -20q0 -6 -13 -29t-29.5 -48.5t-32 -46t-20.5 -20.5q-4 0 -23.5 14.5t-42.5 31.5l-60 46q-7 5 -13 5q-3 0 -8 -8q-23 -32 -41 -58 q-16 -22 -31 -39.5t-20 -17.5q-2 0 -12.5 6.5t-25.5 17t-31 22.5t-30 23t-23 19.5t-9 11.5q0 4 6.5 16t16.5 28.5t21.5 34.5t22.5 32.5t19 24.5t10 10q7 0 27 -14.5t42 -31.5q26 -20 55 -45q6 -7 11 -7t13 10q23 31 42 56q16 21 30.5 38.5t18.5 17.5zM688 -435 q0 -6 -13 -29.5t-30 -49.5t-33.5 -46.5t-22.5 -20.5q-2 0 -13 6.5t-25.5 16.5t-31 22.5t-30.5 23.5t-23 20t-9 12q0 4 6.5 16t16 28.5t21.5 34.5t23 32.5t19.5 24.5t11.5 10q6 0 27.5 -14t45 -32t42 -34.5t18.5 -20.5z" />
<glyph unicode="&#x686;" horiz-adv-x="1112" arabic-form="final" d="M1101 -593q0 -5 -22.5 -17.5t-58 -29.5t-79 -35.5t-84.5 -35t-75.5 -28.5t-51.5 -16q-40 -9 -70.5 -10.5t-47.5 -1.5q-104 0 -205.5 26.5t-182 83.5t-130 146.5t-49.5 214.5q0 99 35.5 185.5t94.5 159t134 131t155 101.5q-54 17 -100.5 23t-84.5 6t-67.5 -4.5t-51 -10 t-34.5 -10t-19 -4.5q-2 0 -11 6.5t-9 11.5q0 13 4 34.5t8.5 43.5t8.5 39.5t5 21.5q1 5 21.5 17.5t52 25t70 22.5t76.5 10q69 0 116.5 -7.5t91 -16.5t91 -16.5t117.5 -7.5q16 0 41.5 1t53 2.5t55 2.5t47.5 1q17 0 28 -1.5t11 -3.5t-4.5 -13t-11 -26.5t-14.5 -33.5t-15.5 -33 t-13 -25t-6.5 -10q-10 -2 -27 -4.5t-37 -5.5t-41 -6.5l-39 -6.5q1 -26 11.5 -44.5t43 -30.5t93.5 -17.5t163 -5.5h37q11 0 21 -2t17.5 -12t12 -29.5t4.5 -54.5q0 -63 -16 -85t-39 -22h-117q-76 0 -133.5 2t-103.5 16q-39 11 -60 43t-21 89q0 23 6.5 59t14.5 73 q-120 -31 -224 -81.5t-180 -115.5t-119.5 -143t-43.5 -164q0 -95 45.5 -163t132.5 -112t214 -64.5t290 -20.5q54 0 100 3.5t80.5 8t56.5 8.5t28 4q1 0 3 -5t4 -11.5t3 -12t1 -6.5zM679 -3q6 0 27 -14t44 -32t41 -34t18 -20q0 -6 -13 -29t-29.5 -48.5t-32 -46t-20.5 -20.5 q-4 0 -23.5 14.5t-42.5 31.5l-60 46q-7 5 -13 5q-3 0 -8 -8q-23 -32 -41 -58q-16 -22 -31 -39.5t-20 -17.5q-2 0 -12.5 6.5t-25.5 17t-31 22.5t-30 23t-23 19.5t-9 11.5q0 4 6.5 16t16.5 28.5t21.5 34.5t22.5 32.5t19 24.5t10 10q7 0 27 -14.5t42 -31.5q26 -20 55 -45 q6 -7 11 -7t13 10q23 31 42 56q16 21 30.5 38.5t18.5 17.5zM722 -366q0 -6 -13 -29.5t-30 -49.5t-33.5 -46.5t-22.5 -20.5q-2 0 -13 6.5t-25.5 16.5t-31 22.5t-30.5 23.5t-23 20t-9 12q0 4 6.5 16t16 28.5t21.5 34.5t23 32.5t19.5 24.5t11.5 10q6 0 27.5 -14t45 -32 t42 -34.5t18.5 -20.5z" />
<glyph unicode="&#x687;" horiz-adv-x="1120" arabic-form="initial" d="M1038 445q0 -3 -3 -23.5t-7.5 -45.5t-8.5 -47t-6 -28q-1 -3 -27.5 -5.5t-72 -4t-106 -2t-129.5 -0.5q-47 0 -88.5 -15.5t-81.5 -40t-79 -55t-80 -60.5q-33 -24 -69 -45t-76.5 -37.5t-84.5 -26t-92 -9.5h-39q-19 0 -30 11.5t-16.5 28t-7 34t-1.5 29.5t1.5 29t7 33.5 t16.5 28t30 11.5h37q77 0 157 8.5t149 36.5q19 8 40 18.5t42 20.5t42 18.5t40 12.5q-21 8 -54.5 24t-73.5 31.5t-83.5 27t-83.5 11.5q-21 0 -41.5 -6.5t-37 -15t-28 -15t-12.5 -6.5q-2 0 -7 2t-10 4.5t-9.5 5t-4.5 4.5q0 20 7 44.5t19.5 49.5t30.5 47.5t40 37.5q25 17 55 29 t78 12q31 0 72.5 -15t85.5 -35t88 -39.5t79 -27.5q54 -13 117.5 -23t141.5 -14q24 -1 54 -2t57 -1.5t45 -2t18 -2.5zM610 -70q6 0 27 -14t44 -31.5t41 -33.5t18 -20q0 -6 -12.5 -29.5t-29 -49t-32 -45.5t-21.5 -20q-3 0 -23 14t-43 31q-26 20 -59 46q-8 6 -13 6q-2 0 -9 -9 q-23 -32 -41 -58q-16 -22 -30.5 -39.5t-19.5 -17.5q-2 0 -12.5 6.5t-25.5 17t-31 23t-30 23.5t-23 19t-9 11q0 4 6.5 16t16 28.5t21.5 34.5t22.5 33t18.5 25t11 10q7 0 27.5 -14.5t41.5 -31.5q25 -20 54 -46q7 -6 12 -6q4 0 13 10q24 30 42 55q16 21 30 38.5t18 17.5z M637 -321q6 0 27 -14t44 -32t41 -34t18 -20q0 -6 -13 -29t-29.5 -48.5t-32 -46t-20.5 -20.5q-3 0 -23 14.5t-43 31.5q-26 20 -59 46q-8 5 -14 5q-2 0 -3.5 -2.5t-4.5 -5.5q-23 -32 -41 -58q-16 -22 -30.5 -39.5t-19.5 -17.5q-4 0 -25 14t-44.5 31.5t-42.5 33.5t-19 20 q0 6 13.5 29.5t30.5 50t32.5 47t18.5 20.5q7 0 27 -14.5t42 -31.5q26 -20 55 -45q7 -7 11 -7q5 0 14 10q23 31 41 56q16 21 30.5 38.5t18.5 17.5z" />
<glyph unicode="&#x687;" horiz-adv-x="1095" arabic-form="medial" d="M1162 103q0 -12 -1.5 -29.5t-7 -34t-16.5 -28t-30 -11.5h-37q-117 0 -206.5 11t-134.5 42q-59 40 -59 124q0 10 2 24t6 29.5t8.5 31t9.5 27.5h-18q-47 0 -88.5 -15.5t-81.5 -40t-79 -55t-80 -60.5q-33 -24 -69 -45t-76.5 -37.5t-85 -26t-93.5 -9.5h-37q-19 0 -30 11.5 t-16.5 28t-7 34t-1.5 29.5t1.5 29t7 33.5t16.5 28t30 11.5h37q100 0 173.5 10.5t132.5 34.5q18 7 38.5 17.5t42 21t43 19t40.5 12.5q-21 8 -54.5 24t-73.5 31.5t-83.5 27t-83.5 11.5q-21 0 -41.5 -6.5t-37 -15t-28 -15t-12.5 -6.5q-2 0 -7.5 2t-10.5 4.5t-9 5t-4 4.5 q0 20 7 44.5t19.5 49.5t30.5 47.5t40 37.5q25 17 55 29t78 12q31 0 72.5 -15t85.5 -35t88 -39.5t79 -27.5q81 -19 192 -31t230 -12q5 0 7.5 -4.5t2.5 -9.5q0 -2 -3 -20.5t-7 -41t-8 -43.5t-6 -27q-1 -3 -26.5 -6t-62 -4.5t-78.5 -2.5t-77 -1q-1 -2 -1 -6v-7q0 -14 11 -25 t28 -19q22 -9 56 -14.5t71 -7.5t73 -2.5t63 -0.5h37q19 0 30 -11.5t16.5 -28t7 -33.5t1.5 -29zM631 -80q6 0 27 -14t44 -31.5t41 -33.5t18 -20q0 -6 -12.5 -29.5t-29 -49t-32 -45.5t-21.5 -20q-3 0 -23 14t-43 31q-26 20 -59 46q-8 6 -13 6q-2 0 -9 -9q-23 -32 -41 -58 q-16 -22 -30.5 -39.5t-19.5 -17.5q-2 0 -12.5 6.5t-25.5 17t-31 23t-30 23.5t-23 19t-9 11q0 4 6.5 16t16 28.5t21.5 34.5t22.5 33t18.5 25t11 10q7 0 27.5 -14.5t41.5 -31.5q25 -20 54 -46q7 -6 12 -6q4 0 13 10q24 30 42 55q16 21 30 38.5t18 17.5zM658 -331q6 0 27 -14 t44 -32t41 -34t18 -20q0 -6 -13 -29t-29.5 -48.5t-32 -46t-20.5 -20.5q-3 0 -23 14.5t-43 31.5q-26 20 -59 46q-8 5 -14 5q-2 0 -3.5 -2.5t-4.5 -5.5q-23 -32 -41 -58q-16 -22 -30.5 -39.5t-19.5 -17.5q-4 0 -25 14t-44.5 31.5t-42.5 33.5t-19 20q0 6 13.5 29.5t30.5 50 t32.5 47t18.5 20.5q7 0 27 -14.5t42 -31.5q26 -20 55 -45q7 -7 11 -7q5 0 14 10q23 31 41 56q16 21 30.5 38.5t18.5 17.5z" />
<glyph unicode="&#x687;" horiz-adv-x="1112" arabic-form="final" d="M1101 -593q0 -5 -22.5 -17.5t-58 -29.5t-79 -35.5t-84.5 -35t-75.5 -28.5t-51.5 -16q-40 -9 -70.5 -10.5t-47.5 -1.5q-104 0 -205.5 26.5t-182 83.5t-130 146.5t-49.5 214.5q0 99 35.5 185.5t94.5 159t134 131t155 101.5q-54 17 -100.5 23t-84.5 6t-67.5 -4.5t-51 -10 t-34.5 -10t-19 -4.5q-2 0 -11 6.5t-9 11.5q0 13 4 34.5t8.5 43.5t8.5 39.5t5 21.5q1 5 21.5 17.5t52 25t70 22.5t76.5 10q69 0 116.5 -7.5t91 -16.5t91 -16.5t117.5 -7.5q16 0 41.5 1t53 2.5t55 2.5t47.5 1q17 0 28 -1.5t11 -3.5t-4.5 -13t-11 -26.5t-14.5 -33.5t-15.5 -33 t-13 -25t-6.5 -10q-10 -2 -27 -4.5t-37 -5.5t-41 -6.5l-39 -6.5q1 -26 11.5 -44.5t43 -30.5t93.5 -17.5t163 -5.5h37q11 0 21 -2t17.5 -12t12 -29.5t4.5 -54.5q0 -63 -16 -85t-39 -22h-117q-76 0 -133.5 2t-103.5 16q-39 11 -60 43t-21 89q0 23 6.5 59t14.5 73 q-120 -31 -224 -81.5t-180 -115.5t-119.5 -143t-43.5 -164q0 -95 45.5 -163t132.5 -112t214 -64.5t290 -20.5q54 0 100 3.5t80.5 8t56.5 8.5t28 4q1 0 3 -5t4 -11.5t3 -12t1 -6.5zM654 38q6 0 27 -14t44 -31.5t41 -33.5t18 -20q0 -6 -12.5 -29.5t-29 -49t-32 -45.5 t-21.5 -20q-3 0 -23 14t-43 31q-26 20 -59 46q-8 6 -13 6q-2 0 -9 -9q-23 -32 -41 -58q-16 -22 -30.5 -39.5t-19.5 -17.5q-2 0 -12.5 6.5t-25.5 17t-31 23t-30 23.5t-23 19t-9 11q0 4 6.5 16t16 28.5t21.5 34.5t22.5 33t18.5 25t11 10q7 0 27.5 -14.5t41.5 -31.5 q25 -20 54 -46q7 -6 12 -6q4 0 13 10q24 30 42 55q16 21 30 38.5t18 17.5zM681 -213q6 0 27 -14t44 -32t41 -34t18 -20q0 -6 -13 -29t-29.5 -48.5t-32 -46t-20.5 -20.5q-3 0 -23 14.5t-43 31.5q-26 20 -59 46q-8 5 -14 5q-2 0 -3.5 -2.5t-4.5 -5.5q-23 -32 -41 -58 q-16 -22 -30.5 -39.5t-19.5 -17.5q-4 0 -25 14t-44.5 31.5t-42.5 33.5t-19 20q0 6 13.5 29.5t30.5 50t32.5 47t18.5 20.5q7 0 27 -14.5t42 -31.5q26 -20 55 -45q7 -7 11 -7q5 0 14 10q23 31 41 56q16 21 30.5 38.5t18.5 17.5z" />
<glyph unicode="&#x688;" horiz-adv-x="845" arabic-form="final" d="M912 103q0 -12 -1.5 -29.5t-7 -34t-16.5 -28t-30 -11.5h-37q-44 0 -78.5 20t-61.5 55t-47.5 82.5t-36.5 103.5q-10 -42 -37 -87t-59 -77q-42 -40 -109 -63.5t-158 -23.5q-36 0 -67.5 8t-55 22.5t-36.5 35.5t-13 47q0 5 4.5 21t11 38.5t15.5 47t17.5 45t16.5 34t14 13.5 q8 0 14 -13.5t12 -23.5q5 -8 12 -21t20.5 -25t36.5 -21t61 -9q52 0 99 8.5t83 28.5t57.5 53t21.5 82q-5 47 -14 86t-18 69.5t-16 53t-7 35.5q0 9 12 36.5t27 57t28.5 52.5t15.5 23q5 0 15.5 -5t12.5 -22q11 -74 22.5 -153t24 -149.5t26 -125t28.5 -79.5q17 -28 46 -41.5 t60 -13.5h37q19 0 30 -11.5t16.5 -28t7 -33.5t1.5 -29zM768 1061q0 -52 -38.5 -90.5t-98 -64.5t-129.5 -39t-133 -13q-12 0 -29 12.5t-33 29t-27.5 33.5t-11.5 25q0 9 8 9q5 0 16 -1t24 -1.5t26 -1.5t23 -1q21 0 32.5 8.5t17.5 25.5q5 14 7 28.5t2 22.5q0 34 -5 69t-11 68 t-11 63t-5 54q0 17 6 33t14 28t17 19.5t14 7.5q2 0 12 -14.5t21 -32t19.5 -32.5t8.5 -16q-8 -7 -14.5 -17t-6.5 -30q0 -29 3 -64t3 -61q0 -14 -2 -40.5t-6 -51.5q24 29 50 54t52.5 44t52 29.5t48.5 10.5q21 0 37 -10t26.5 -25t15.5 -33t5 -35zM694 1031q0 11 -16 13t-35 2 t-42 -6.5t-47 -17.5t-47.5 -26.5t-41.5 -34.5q59 4 102.5 15t71.5 22.5t41.5 21t13.5 11.5z" />
<glyph unicode="&#x689;" horiz-adv-x="845" d="M474 -70q0 -36 -12.5 -68t-35 -56t-52.5 -37.5t-65 -13.5q-54 0 -84.5 38t-30.5 121q0 52 28 96q-35 1 -64 9.5t-51 23t-34 34.5t-12 46q0 5 4.5 21t11 38.5t15.5 47t17.5 45t16.5 34t14 13.5q8 0 14 -13.5t12 -23.5q5 -8 12 -21t20.5 -25t36.5 -21t61 -9q52 0 99 8.5 t83 28.5t57.5 53t21.5 82q-5 47 -14 86t-18 69.5t-16 53t-7 35.5q0 9 12 36.5t27 57t28.5 52.5t15.5 23q5 0 15.5 -5t12.5 -22q11 -74 22.5 -153t24 -149.5t26 -125t28.5 -79.5q17 -28 46 -41.5t60 -13.5h37q19 0 30 -11.5t16.5 -28t7 -33.5t1.5 -29t-1.5 -29.5t-7 -34 t-16.5 -28t-30 -11.5h-37q-44 0 -78.5 20t-61.5 55t-47.5 82.5t-36.5 103.5q-10 -42 -37 -87t-59 -77q-31 -29 -74 -50q23 -23 35.5 -54.5t12.5 -62.5zM396 -93q0 8 -9 19.5t-22.5 22.5t-28.5 18.5t-27 7.5q-25 0 -37 -16.5t-12 -34.5q0 -19 20.5 -33.5t51.5 -14.5q9 0 20 3 t21 7.5t16.5 10t6.5 10.5z" />
<glyph unicode="&#x68a;" horiz-adv-x="845" d="M912 103q0 -12 -1.5 -29.5t-7 -34t-16.5 -28t-30 -11.5h-37q-44 0 -78.5 20t-61.5 55t-47.5 82.5t-36.5 103.5q-10 -42 -37 -87t-59 -77q-42 -40 -109 -63.5t-158 -23.5q-36 0 -67.5 8t-55 22.5t-36.5 35.5t-13 47q0 5 4.5 21t11 38.5t15.5 47t17.5 45t16.5 34t14 13.5 q8 0 14 -13.5t12 -23.5q5 -8 12 -21t20.5 -25t36.5 -21t61 -9q52 0 99 8.5t83 28.5t57.5 53t21.5 82q-5 47 -14 86t-18 69.5t-16 53t-7 35.5q0 9 12 36.5t27 57t28.5 52.5t15.5 23q5 0 15.5 -5t12.5 -22q11 -74 22.5 -153t24 -149.5t26 -125t28.5 -79.5q17 -28 46 -41.5 t60 -13.5h37q19 0 30 -11.5t16.5 -28t7 -33.5t1.5 -29zM566 -218q0 -4 -6.5 -16.5t-16.5 -29.5t-22.5 -36t-24 -34.5t-21.5 -26t-14 -10.5q-3 0 -25.5 14.5t-47.5 33t-45.5 36t-20.5 22.5q0 4 6.5 17t17 30t23 36t24 34.5t20.5 26t13 10.5q6 0 28.5 -15t47.5 -33.5t44.5 -36 t19.5 -22.5z" />
<glyph unicode="&#x68b;" horiz-adv-x="845" d="M912 103q0 -12 -1.5 -29.5t-7 -34t-16.5 -28t-30 -11.5h-37q-44 0 -78.5 20t-61.5 55t-47.5 82.5t-36.5 103.5q-10 -42 -37 -87t-59 -77q-42 -40 -109 -63.5t-158 -23.5q-36 0 -67.5 8t-55 22.5t-36.5 35.5t-13 47q0 5 4.5 21t11 38.5t15.5 47t17.5 45t16.5 34t14 13.5 q8 0 14 -13.5t12 -23.5q5 -8 12 -21t20.5 -25t36.5 -21t61 -9q52 0 99 8.5t83 28.5t57.5 53t21.5 82q-5 47 -14 86t-18 69.5t-16 53t-7 35.5q0 9 12 36.5t27 57t28.5 52.5t15.5 23q5 0 15.5 -5t12.5 -22q11 -74 22.5 -153t24 -149.5t26 -125t28.5 -79.5q17 -28 46 -41.5 t60 -13.5h37q19 0 30 -11.5t16.5 -28t7 -33.5t1.5 -29zM768 1061q0 -52 -38.5 -90.5t-98 -64.5t-129.5 -39t-133 -13q-12 0 -29 12.5t-33 29t-27.5 33.5t-11.5 25q0 9 8 9q5 0 16 -1t24 -1.5t26 -1.5t23 -1q21 0 32.5 8.5t17.5 25.5q5 14 7 28.5t2 22.5q0 34 -5 69t-11 68 t-11 63t-5 54q0 17 6 33t14 28t17 19.5t14 7.5q2 0 12 -14.5t21 -32t19.5 -32.5t8.5 -16q-8 -7 -14.5 -17t-6.5 -30q0 -29 3 -64t3 -61q0 -14 -2 -40.5t-6 -51.5q24 29 50 54t52.5 44t52 29.5t48.5 10.5q21 0 37 -10t26.5 -25t15.5 -33t5 -35zM694 1031q0 11 -16 13t-35 2 t-42 -6.5t-47 -17.5t-47.5 -26.5t-41.5 -34.5q59 4 102.5 15t71.5 22.5t41.5 21t13.5 11.5zM566 -218q0 -4 -6.5 -16.5t-16.5 -29.5t-22.5 -36t-24 -34.5t-21.5 -26t-14 -10.5q-3 0 -25.5 14.5t-47.5 33t-45.5 36t-20.5 22.5q0 4 6.5 17t17 30t23 36t24 34.5t20.5 26 t13 10.5q6 0 28.5 -15t47.5 -33.5t44.5 -36t19.5 -22.5z" />
<glyph unicode="&#x68c;" horiz-adv-x="845" arabic-form="final" d="M912 103q0 -12 -1.5 -29.5t-7 -34t-16.5 -28t-30 -11.5h-37q-44 0 -78.5 20t-61.5 55t-47.5 82.5t-36.5 103.5q-10 -42 -37 -87t-59 -77q-42 -40 -109 -63.5t-158 -23.5q-36 0 -67.5 8t-55 22.5t-36.5 35.5t-13 47q0 5 4.5 21t11 38.5t15.5 47t17.5 45t16.5 34t14 13.5 q8 0 14 -13.5t12 -23.5q5 -8 12 -21t20.5 -25t36.5 -21t61 -9q52 0 99 8.5t83 28.5t57.5 53t21.5 82q-5 47 -14 86t-18 69.5t-16 53t-7 35.5q0 9 12 36.5t27 57t28.5 52.5t15.5 23q5 0 15.5 -5t12.5 -22q11 -74 22.5 -153t24 -149.5t26 -125t28.5 -79.5q17 -28 46 -41.5 t60 -13.5h37q19 0 30 -11.5t16.5 -28t7 -33.5t1.5 -29zM622 1154q6 0 27 -14t44 -31.5t41 -34t18 -20.5t-6 -16t-15.5 -28t-21 -33.5t-22 -32t-19 -24t-11.5 -9.5q-4 0 -23.5 14t-42.5 31l-60 46q-6 6 -13 6q-3 0 -8 -9q-23 -32 -41 -58q-16 -22 -31 -39.5t-20 -17.5 q-2 0 -12.5 6.5t-25.5 17t-31 22.5t-30 23t-23 19.5t-9 11.5q0 4 6.5 16t16.5 28.5t21.5 34.5t22.5 32.5t19 24.5t10 10q7 0 27 -14.5t42 -31.5q26 -20 55 -45q6 -7 11 -7q3 0 5.5 2t7.5 9q23 30 42 55q16 21 30.5 38.5t18.5 17.5z" />
<glyph unicode="&#x68d;" horiz-adv-x="845" arabic-form="final" d="M912 103q0 -12 -1.5 -29.5t-7 -34t-16.5 -28t-30 -11.5h-37q-44 0 -78.5 20t-61.5 55t-47.5 82.5t-36.5 103.5q-10 -42 -37 -87t-59 -77q-42 -40 -109 -63.5t-158 -23.5q-36 0 -67.5 8t-55 22.5t-36.5 35.5t-13 47q0 5 4.5 21t11 38.5t15.5 47t17.5 45t16.5 34t14 13.5 q8 0 14 -13.5t12 -23.5q5 -8 12 -21t20.5 -25t36.5 -21t61 -9q52 0 99 8.5t83 28.5t57.5 53t21.5 82q-5 47 -14 86t-18 69.5t-16 53t-7 35.5q0 9 12 36.5t27 57t28.5 52.5t15.5 23q5 0 15.5 -5t12.5 -22q11 -74 22.5 -153t24 -149.5t26 -125t28.5 -79.5q17 -28 46 -41.5 t60 -13.5h37q19 0 30 -11.5t16.5 -28t7 -33.5t1.5 -29zM585 -101q6 0 27 -14t44 -31.5t41 -34t18 -20.5t-6 -16t-15.5 -28t-21 -33.5t-22 -32t-19 -24t-11.5 -9.5q-4 0 -23.5 14t-42.5 31l-60 46q-6 6 -13 6q-3 0 -8 -9q-23 -32 -41 -58q-16 -22 -31 -39.5t-20 -17.5 q-2 0 -12.5 6.5t-25.5 17t-31 22.5t-30 23t-23 19.5t-9 11.5q0 4 6.5 16t16.5 28.5t21.5 34.5t22.5 32.5t19 24.5t10 10q7 0 27 -14.5t42 -31.5q26 -20 55 -45q6 -7 11 -7q3 0 5.5 2t7.5 9q23 30 42 55q16 21 30.5 38.5t18.5 17.5z" />
<glyph unicode="&#x68e;" horiz-adv-x="845" arabic-form="final" d="M912 103q0 -12 -1.5 -29.5t-7 -34t-16.5 -28t-30 -11.5h-37q-44 0 -78.5 20t-61.5 55t-47.5 82.5t-36.5 103.5q-10 -42 -37 -87t-59 -77q-42 -40 -109 -63.5t-158 -23.5q-36 0 -67.5 8t-55 22.5t-36.5 35.5t-13 47q0 5 4.5 21t11 38.5t15.5 47t17.5 45t16.5 34t14 13.5 q8 0 14 -13.5t12 -23.5q5 -8 12 -21t20.5 -25t36.5 -21t61 -9q52 0 99 8.5t83 28.5t57.5 53t21.5 82q-5 47 -14 86t-18 69.5t-16 53t-7 35.5q0 9 12 36.5t27 57t28.5 52.5t15.5 23q5 0 15.5 -5t12.5 -22q11 -74 22.5 -153t24 -149.5t26 -125t28.5 -79.5q17 -28 46 -41.5 t60 -13.5h37q19 0 30 -11.5t16.5 -28t7 -33.5t1.5 -29zM403 1237q0 6 13 29.5t30 49.5t33.5 46.5t22.5 20.5q2 0 13 -6.5t25.5 -16.5t31 -22.5t30.5 -23.5t23 -20t9 -12q0 -4 -6.5 -16t-16 -28.5t-21.5 -34.5t-23 -32.5t-19.5 -24.5t-11.5 -10q-6 0 -27.5 14t-45 32t-42 34 t-18.5 21zM446 874q-6 0 -27 14t-44 32t-41 34t-18 20q0 6 13 29t29.5 48.5t32 46t20.5 20.5q3 0 23 -14.5t43 -31.5l60 -46q7 -5 13 -5q3 0 8 8q23 31 41 57q16 22 31 40t20 18q2 0 12.5 -6.5t25.5 -17t31 -22.5t30 -23t23 -19.5t9 -11.5q0 -4 -6.5 -16t-16.5 -28.5 t-21.5 -34.5t-22.5 -32.5t-19 -24.5t-10 -10q-8 0 -27.5 14t-41.5 31q-26 20 -55 46q-6 7 -11 7q-6 0 -13 -10l-42 -56q-17 -21 -31 -38.5t-18 -17.5z" />
<glyph unicode="&#x68f;" horiz-adv-x="845" d="M912 103q0 -12 -1.5 -29.5t-7 -34t-16.5 -28t-30 -11.5h-37q-44 0 -78.5 20t-61.5 55t-47.5 82.5t-36.5 103.5q-10 -42 -37 -87t-59 -77q-42 -40 -109 -63.5t-158 -23.5q-36 0 -67.5 8t-55 22.5t-36.5 35.5t-13 47q0 5 4.5 21t11 38.5t15.5 47t17.5 45t16.5 34t14 13.5 q8 0 14 -13.5t12 -23.5q5 -8 12 -21t20.5 -25t36.5 -21t61 -9q52 0 99 8.5t83 28.5t57.5 53t21.5 82q-5 47 -14 86t-18 69.5t-16 53t-7 35.5q0 9 12 36.5t27 57t28.5 52.5t15.5 23q5 0 15.5 -5t12.5 -22q11 -74 22.5 -153t24 -149.5t26 -125t28.5 -79.5q17 -28 46 -41.5 t60 -13.5h37q19 0 30 -11.5t16.5 -28t7 -33.5t1.5 -29zM622 1416q6 0 27 -14t44 -32t41 -34t18 -20q0 -6 -13 -29t-29.5 -48.5t-32 -46t-20.5 -20.5q-4 0 -23.5 14.5t-42.5 31.5l-60 46q-7 5 -13 5q-3 0 -8 -8q-23 -32 -41 -58q-16 -22 -31 -39.5t-20 -17.5q-2 0 -12.5 6.5 t-25.5 17t-31 22.5t-30 23t-23 19.5t-9 11.5q0 4 6.5 16t16.5 28.5t21.5 34.5t22.5 32.5t19 24.5t10 10q7 0 27 -14.5t42 -31.5q26 -20 55 -45q6 -7 11 -7t13 10q23 31 42 56q16 21 30.5 38.5t18.5 17.5zM665 1053q0 -6 -13 -29.5t-30 -49.5t-33.5 -46.5t-22.5 -20.5 q-2 0 -13 6.5t-25.5 16.5t-31 22.5t-30.5 23.5t-23 20t-9 12q0 4 6.5 16t16 28.5t21.5 34.5t23 32.5t19.5 24.5t11.5 10q6 0 27.5 -14t45 -32t42 -34.5t18.5 -20.5z" />
<glyph unicode="&#x690;" horiz-adv-x="845" d="M912 103q0 -12 -1.5 -29.5t-7 -34t-16.5 -28t-30 -11.5h-37q-44 0 -78.5 20t-61.5 55t-47.5 82.5t-36.5 103.5q-10 -42 -37 -87t-59 -77q-42 -40 -109 -63.5t-158 -23.5q-36 0 -67.5 8t-55 22.5t-36.5 35.5t-13 47q0 5 4.5 21t11 38.5t15.5 47t17.5 45t16.5 34t14 13.5 q8 0 14 -13.5t12 -23.5q5 -8 12 -21t20.5 -25t36.5 -21t61 -9q52 0 99 8.5t83 28.5t57.5 53t21.5 82q-5 47 -14 86t-18 69.5t-16 53t-7 35.5q0 9 12 36.5t27 57t28.5 52.5t15.5 23q5 0 15.5 -5t12.5 -22q11 -74 22.5 -153t24 -149.5t26 -125t28.5 -79.5q17 -28 46 -41.5 t60 -13.5h37q19 0 30 -11.5t16.5 -28t7 -33.5t1.5 -29zM631 1443q6 0 27 -14t44 -31.5t41 -33.5t18 -20q0 -6 -12.5 -29.5t-29 -49t-32 -45.5t-21.5 -20q-3 0 -23 14t-43 31q-26 20 -59 46q-8 6 -13 6q-2 0 -9 -9q-23 -32 -41 -58q-16 -22 -30.5 -39.5t-19.5 -17.5 q-2 0 -12.5 6.5t-25.5 17t-31 23t-30 23.5t-23 19t-9 11q0 4 6.5 16t16 28.5t21.5 34.5t22.5 33t18.5 25t11 10q7 0 27.5 -14.5t41.5 -31.5q25 -20 54 -46q7 -6 12 -6q4 0 13 10q24 30 42 55q16 21 30 38.5t18 17.5zM658 1192q6 0 27 -14t44 -32t41 -34t18 -20q0 -6 -13 -29 t-29.5 -48.5t-32 -46t-20.5 -20.5q-3 0 -23 14.5t-43 31.5q-26 20 -59 46q-8 5 -14 5q-2 0 -3.5 -2.5t-4.5 -5.5q-23 -32 -41 -58q-16 -22 -30.5 -39.5t-19.5 -17.5q-4 0 -25 14t-44.5 31.5t-42.5 33.5t-19 20q0 6 13.5 29.5t30.5 50t32.5 47t18.5 20.5q7 0 27 -14.5 t42 -31.5q26 -20 55 -45q7 -7 11 -7q5 0 14 10q23 31 41 56q16 21 30.5 38.5t18.5 17.5z" />
<glyph unicode="&#x691;" horiz-adv-x="647" arabic-form="final" d="M715 103q0 -12 -1.5 -29.5t-7 -34t-16.5 -28t-30 -11.5h-37q-8 0 -24 2t-27 10q-5 -42 -12.5 -91.5t-22 -100t-37 -99t-56.5 -90.5q-19 -23 -47.5 -45t-64 -39.5t-75 -28.5t-79.5 -11q-19 0 -47 6.5t-58.5 16.5t-61.5 21.5t-55.5 22.5t-40 19.5t-15.5 11.5t1 9.5t2.5 13 t4 11.5t4.5 5q3 0 22 -3t61 -3q41 0 90 10.5t99.5 31t99.5 50.5t89 70q66 66 93 108.5t27 54.5q0 4 -8.5 16.5t-21 28.5t-27.5 34.5t-27.5 34.5t-21 27.5t-8.5 15.5q0 1 5.5 13.5t13.5 30t17.5 37.5t18 38.5t14.5 31.5t8 17h26q9 -11 22 -25.5t30 -27.5t39.5 -21.5 t49.5 -8.5h37q19 0 30 -11.5t16.5 -28t7 -33.5t1.5 -29zM732 578q0 -52 -38.5 -90.5t-98 -64.5t-129.5 -39t-133 -13q-12 0 -29 12.5t-33 29t-27.5 33.5t-11.5 25q0 9 8 9q5 0 16 -1t24 -1.5t26 -1.5t23 -1q21 0 32.5 8.5t17.5 25.5q5 14 7 28.5t2 22.5q0 34 -5 69t-11 68 t-11 63t-5 54q0 17 6 33t14 28t17 19.5t14 7.5q2 0 12 -14.5t21 -32t19.5 -32.5t8.5 -16q-8 -7 -14.5 -17t-6.5 -30q0 -29 3 -64t3 -61q0 -14 -2 -40.5t-6 -51.5q24 29 50 54t52.5 44t52 29.5t48.5 10.5q21 0 37 -10t26.5 -25t15.5 -33t5 -35zM658 548q0 11 -16 13t-35 2 t-42 -6.5t-47 -17.5t-47.5 -26.5t-41.5 -34.5q59 4 102.5 15t71.5 22.5t41.5 21t13.5 11.5z" />
<glyph unicode="&#x692;" horiz-adv-x="647" d="M715 103q0 -12 -1.5 -29.5t-7 -34t-16.5 -28t-30 -11.5h-37q-8 0 -24 2t-27 10q-5 -42 -12.5 -91.5t-22 -100t-37 -99t-56.5 -90.5q-19 -23 -47.5 -45t-64 -39.5t-75 -28.5t-79.5 -11q-19 0 -47 6.5t-58.5 16.5t-61.5 21.5t-55.5 22.5t-40 19.5t-15.5 11.5t1 9.5t2.5 13 t4 11.5t4.5 5q3 0 22 -3t61 -3q41 0 90 10.5t99.5 31t99.5 50.5t89 70q66 66 93 108.5t27 54.5q0 4 -8.5 16.5t-21 28.5t-27.5 34.5t-27.5 34.5t-21 27.5t-8.5 15.5q0 1 5.5 13.5t13.5 30t17.5 37.5t18 38.5t14.5 31.5t8 17h26q9 -11 22 -25.5t30 -27.5t39.5 -21.5 t49.5 -8.5h37q19 0 30 -11.5t16.5 -28t7 -33.5t1.5 -29zM228 680q0 18 17 18h52q3 0 14.5 -11t27.5 -27t34.5 -35.5t34.5 -35.5t28 -27t16 -11t16 11t28 27t34.5 35.5t34.5 35.5t27.5 27t14.5 11h52q17 0 17 -18q0 -1 -9.5 -17t-24 -40t-33.5 -52.5t-37.5 -56t-35.5 -50.5 t-29 -35l-14 -14t-13 -6h-56q-6 0 -12.5 6t-14.5 14q-12 12 -29 35t-35.5 50.5t-37.5 56t-33.5 52.5t-24 39.5t-9.5 17.5z" />
<glyph unicode="&#x693;" horiz-adv-x="647" d="M604 -439q0 -36 -12.5 -68t-35 -56t-52.5 -37.5t-65 -13.5q-54 0 -84 37.5t-31 118.5q-34 -16 -71 -25.5t-75 -9.5q-19 0 -47 6.5t-58.5 16.5t-61.5 21.5t-55.5 22.5t-40 19.5t-15.5 11.5t1 9.5t2.5 13t4 11.5t4.5 5q3 0 22 -3t61 -3q41 0 90 10.5t99.5 31t99.5 50.5 t89 70q66 66 93 108.5t27 54.5q0 4 -8.5 16.5t-21 28.5t-27.5 34.5t-27.5 34.5t-21 27.5t-8.5 15.5q0 1 5.5 13.5t13.5 30t17.5 37.5t18 38.5t14.5 31.5t8 17h26q9 -11 22 -25.5t30 -27.5t39.5 -21.5t49.5 -8.5h37q19 0 30 -11.5t16.5 -28t7 -33.5t1.5 -29t-1.5 -29.5 t-7 -34t-16.5 -28t-30 -11.5h-37q-8 0 -24 2t-27 10q-4 -33 -9.5 -70t-14 -75.5t-21.5 -78t-31 -76.5q24 -4 44 -19t34 -36.5t22 -46.5t8 -49zM526 -462q0 8 -9 19.5t-22.5 22.5t-28.5 18.5t-27 7.5q-15 0 -27 -7l-8 -7q-8 -8 -11 -17.5t-3 -19.5q0 -19 20.5 -33.5 t51.5 -14.5q9 0 20 3t21 7.5t16.5 10t6.5 10.5z" />
<glyph unicode="&#x694;" horiz-adv-x="647" d="M715 103q0 -12 -1.5 -29.5t-7 -34t-16.5 -28t-30 -11.5h-37q-8 0 -24 2t-27 10q-5 -42 -12.5 -91.5t-22 -100t-37 -99t-56.5 -90.5q-19 -23 -47.5 -45t-64 -39.5t-75 -28.5t-79.5 -11q-19 0 -47 6.5t-58.5 16.5t-61.5 21.5t-55.5 22.5t-40 19.5t-15.5 11.5t1 9.5t2.5 13 t4 11.5t4.5 5q3 0 22 -3t61 -3q41 0 90 10.5t99.5 31t99.5 50.5t89 70q66 66 93 108.5t27 54.5q0 4 -8.5 16.5t-21 28.5t-27.5 34.5t-27.5 34.5t-21 27.5t-8.5 15.5q0 1 5.5 13.5t13.5 30t17.5 37.5t18 38.5t14.5 31.5t8 17h26q9 -11 22 -25.5t30 -27.5t39.5 -21.5 t49.5 -8.5h37q19 0 30 -11.5t16.5 -28t7 -33.5t1.5 -29zM575 -621q0 -4 -6.5 -16.5t-16.5 -29.5t-22.5 -36t-24 -34.5t-21.5 -26t-14 -10.5q-3 0 -25.5 14.5t-47.5 33t-45.5 36t-20.5 22.5q0 4 6.5 17t17 30t23 36t24 34.5t20.5 26t13 10.5q6 0 28.5 -15t47.5 -33.5 t44.5 -36t19.5 -22.5z" />
<glyph unicode="&#x695;" horiz-adv-x="647" d="M715 103q0 -12 -1.5 -29.5t-7 -34t-16.5 -28t-30 -11.5h-37q-8 0 -24 2t-27 10q-5 -42 -12.5 -91.5t-22 -100t-37 -99t-56.5 -90.5q-19 -23 -47.5 -45t-64 -39.5t-75 -28.5t-79.5 -11q-19 0 -47 6.5t-58.5 16.5t-61.5 21.5t-55.5 22.5t-40 19.5t-15.5 11.5t1 9.5t2.5 13 t4 11.5t4.5 5q3 0 22 -3t61 -3q41 0 90 10.5t99.5 31t99.5 50.5t89 70q66 66 93 108.5t27 54.5q0 4 -8.5 16.5t-21 28.5t-27.5 34.5t-27.5 34.5t-21 27.5t-8.5 15.5q0 1 5.5 13.5t13.5 30t17.5 37.5t18 38.5t14.5 31.5t8 17h26q9 -11 22 -25.5t30 -27.5t39.5 -21.5 t49.5 -8.5h37q19 0 30 -11.5t16.5 -28t7 -33.5t1.5 -29zM227 -570q0 18 17 18h52q3 0 14.5 -11t27.5 -27t34.5 -35.5t34.5 -35.5t28 -27t16 -11t16 11t28 27t34.5 35.5t34.5 35.5t27.5 27t14.5 11h52q17 0 17 -18q0 -1 -9.5 -17t-24 -40t-33.5 -52.5t-37.5 -56t-35.5 -50.5 t-29 -35l-14 -14t-13 -6h-56q-6 0 -12.5 6t-14.5 14q-12 12 -29 35t-35.5 50.5t-37.5 56t-33.5 52.5t-24 39.5t-9.5 17.5z" />
<glyph unicode="&#x696;" horiz-adv-x="647" d="M715 103q0 -12 -1.5 -29.5t-7 -34t-16.5 -28t-30 -11.5h-37q-8 0 -24 2t-27 10q-5 -42 -12.5 -91.5t-22 -100t-37 -99t-56.5 -90.5q-19 -23 -47.5 -45t-64 -39.5t-75 -28.5t-79.5 -11q-19 0 -47 6.5t-58.5 16.5t-61.5 21.5t-55.5 22.5t-40 19.5t-15.5 11.5t1 9.5t2.5 13 t4 11.5t4.5 5q3 0 22 -3t61 -3q41 0 90 10.5t99.5 31t99.5 50.5t89 70q66 66 93 108.5t27 54.5q0 4 -8.5 16.5t-21 28.5t-27.5 34.5t-27.5 34.5t-21 27.5t-8.5 15.5q0 1 5.5 13.5t13.5 30t17.5 37.5t18 38.5t14.5 31.5t8 17h26q9 -11 22 -25.5t30 -27.5t39.5 -21.5 t49.5 -8.5h37q19 0 30 -11.5t16.5 -28t7 -33.5t1.5 -29zM578 -621q0 -4 -6.5 -16.5t-16.5 -29.5t-22.5 -36t-24 -34.5t-21.5 -26t-14 -10.5q-3 0 -25.5 14.5t-47.5 33t-45.5 36t-20.5 22.5q0 4 6.5 17t17 30t23 36t24 34.5t20.5 26t13 10.5q6 0 28.5 -15t47.5 -33.5 t44.5 -36t19.5 -22.5zM294 14q0 -4 -6.5 -16.5t-16.5 -29.5t-22.5 -36t-24 -34.5t-21.5 -26t-14 -10.5q-3 0 -25.5 14.5t-47.5 33t-45.5 36t-20.5 22.5q0 4 6.5 17t17 30t23 36t24 34.5t20.5 26t13 10.5q6 0 28.5 -15t47.5 -33.5t44.5 -36t19.5 -22.5z" />
<glyph unicode="&#x697;" horiz-adv-x="647" d="M715 103q0 -12 -1.5 -29.5t-7 -34t-16.5 -28t-30 -11.5h-37q-8 0 -24 2t-27 10q-5 -42 -12.5 -91.5t-22 -100t-37 -99t-56.5 -90.5q-19 -23 -47.5 -45t-64 -39.5t-75 -28.5t-79.5 -11q-19 0 -47 6.5t-58.5 16.5t-61.5 21.5t-55.5 22.5t-40 19.5t-15.5 11.5t1 9.5t2.5 13 t4 11.5t4.5 5q3 0 22 -3t61 -3q41 0 90 10.5t99.5 31t99.5 50.5t89 70q66 66 93 108.5t27 54.5q0 4 -8.5 16.5t-21 28.5t-27.5 34.5t-27.5 34.5t-21 27.5t-8.5 15.5q0 1 5.5 13.5t13.5 30t17.5 37.5t18 38.5t14.5 31.5t8 17h26q9 -11 22 -25.5t30 -27.5t39.5 -21.5 t49.5 -8.5h37q19 0 30 -11.5t16.5 -28t7 -33.5t1.5 -29zM558 624q6 0 27 -14t44 -31.5t41 -34t18 -20.5t-6 -16t-15.5 -28t-21 -33.5t-22 -32t-19 -24t-11.5 -9.5q-4 0 -23.5 14t-42.5 31l-60 46q-6 6 -13 6q-3 0 -8 -9q-23 -32 -41 -58q-16 -22 -31 -39.5t-20 -17.5 q-2 0 -12.5 6.5t-25.5 17t-31 22.5t-30 23t-23 19.5t-9 11.5q0 4 6.5 16t16.5 28.5t21.5 34.5t22.5 32.5t19 24.5t10 10q7 0 27 -14.5t42 -31.5q26 -20 55 -45q6 -7 11 -7q3 0 5.5 2t7.5 9q23 30 42 55q16 21 30.5 38.5t18.5 17.5z" />
<glyph unicode="&#x698;" horiz-adv-x="647" arabic-form="final" d="M715 103q0 -12 -1.5 -29.5t-7 -34t-16.5 -28t-30 -11.5h-37q-8 0 -24 2t-27 10q-5 -42 -12.5 -91.5t-22 -100t-37 -99t-56.5 -90.5q-19 -23 -47.5 -45t-64 -39.5t-75 -28.5t-79.5 -11q-19 0 -47 6.5t-58.5 16.5t-61.5 21.5t-55.5 22.5t-40 19.5t-15.5 11.5t1 9.5t2.5 13 t4 11.5t4.5 5q3 0 22 -3t61 -3q41 0 90 10.5t99.5 31t99.5 50.5t89 70q66 66 93 108.5t27 54.5q0 4 -8.5 16.5t-21 28.5t-27.5 34.5t-27.5 34.5t-21 27.5t-8.5 15.5q0 1 5.5 13.5t13.5 30t17.5 37.5t18 38.5t14.5 31.5t8 17h26q9 -11 22 -25.5t30 -27.5t39.5 -21.5 t49.5 -8.5h37q19 0 30 -11.5t16.5 -28t7 -33.5t1.5 -29zM307 720q0 6 13 29.5t30 49.5t33.5 46.5t22.5 20.5q2 0 13 -6.5t25.5 -16.5t31 -22.5t30.5 -23.5t23 -20t9 -12q0 -4 -6.5 -16t-16 -28.5t-21.5 -34.5t-23 -32.5t-19.5 -24.5t-11.5 -10q-6 0 -27.5 14t-45 32t-42 34 t-18.5 21zM350 357q-6 0 -27 14t-44 32t-41 34t-18 20q0 6 13 29t29.5 48.5t32 46t20.5 20.5q3 0 23 -14.5t43 -31.5l60 -46q7 -5 13 -5q3 0 8 8q23 31 41 57q16 22 31 40t20 18q2 0 12.5 -6.5t25.5 -17t31 -22.5t30 -23t23 -19.5t9 -11.5q0 -4 -6.5 -16t-16.5 -28.5 t-21.5 -34.5t-22.5 -32.5t-19 -24.5t-10 -10q-8 0 -27.5 14t-41.5 31q-26 20 -55 46q-6 7 -11 7q-6 0 -13 -10l-42 -56q-17 -21 -31 -38.5t-18 -17.5z" />
<glyph unicode="&#x699;" horiz-adv-x="647" d="M715 103q0 -12 -1.5 -29.5t-7 -34t-16.5 -28t-30 -11.5h-37q-8 0 -24 2t-27 10q-5 -42 -12.5 -91.5t-22 -100t-37 -99t-56.5 -90.5q-19 -23 -47.5 -45t-64 -39.5t-75 -28.5t-79.5 -11q-19 0 -47 6.5t-58.5 16.5t-61.5 21.5t-55.5 22.5t-40 19.5t-15.5 11.5t1 9.5t2.5 13 t4 11.5t4.5 5q3 0 22 -3t61 -3q41 0 90 10.5t99.5 31t99.5 50.5t89 70q66 66 93 108.5t27 54.5q0 4 -8.5 16.5t-21 28.5t-27.5 34.5t-27.5 34.5t-21 27.5t-8.5 15.5q0 1 5.5 13.5t13.5 30t17.5 37.5t18 38.5t14.5 31.5t8 17h26q9 -11 22 -25.5t30 -27.5t39.5 -21.5 t49.5 -8.5h37q19 0 30 -11.5t16.5 -28t7 -33.5t1.5 -29zM536 878q6 0 27 -14t44 -31.5t41 -33.5t18 -20q0 -6 -12.5 -29.5t-29 -49t-32 -45.5t-21.5 -20q-3 0 -23 14t-43 31q-26 20 -59 46q-8 6 -13 6q-2 0 -9 -9q-23 -32 -41 -58q-16 -22 -30.5 -39.5t-19.5 -17.5 q-2 0 -12.5 6.5t-25.5 17t-31 23t-30 23.5t-23 19t-9 11q0 4 6.5 16t16 28.5t21.5 34.5t22.5 33t18.5 25t11 10q7 0 27.5 -14.5t41.5 -31.5q25 -20 54 -46q7 -6 12 -6q4 0 13 10q24 30 42 55q16 21 30 38.5t18 17.5zM563 627q6 0 27 -14t44 -32t41 -34t18 -20q0 -6 -13 -29 t-29.5 -48.5t-32 -46t-20.5 -20.5q-3 0 -23 14.5t-43 31.5q-26 20 -59 46q-8 5 -14 5q-2 0 -3.5 -2.5t-4.5 -5.5q-23 -32 -41 -58q-16 -22 -30.5 -39.5t-19.5 -17.5q-4 0 -25 14t-44.5 31.5t-42.5 33.5t-19 20q0 6 13.5 29.5t30.5 50t32.5 47t18.5 20.5q7 0 27 -14.5 t42 -31.5q26 -20 55 -45q7 -7 11 -7q5 0 14 10q23 31 41 56q16 21 30.5 38.5t18.5 17.5z" />
<glyph unicode="&#x69a;" horiz-adv-x="1074" d="M971 401q0 -20 -3.5 -52t-12 -68.5t-21.5 -73.5t-32.5 -67t-46 -48.5t-60.5 -18.5q-28 0 -53 11t-46 28.5t-38 40t-29 45.5q-17 -30 -38.5 -64.5t-49 -64t-60.5 -48.5t-73 -19q-31 0 -58.5 11.5t-50 29t-38 39t-22.5 42.5q-38 -57 -92.5 -90.5t-121.5 -33.5h-37 q-19 0 -30 11.5t-16.5 28t-7 34t-1.5 29.5t1.5 29t7 33.5t16.5 28t30 11.5h37q54 0 93.5 10t67 24.5t45.5 32t29.5 32t19 24.5t13.5 10q12 0 18 -10t11 -24.5t10.5 -31.5t16 -31.5t28 -24.5t46.5 -10q49 0 89.5 19.5t69.5 50.5t46 69.5t21 77.5q1 8 5.5 14.5t15.5 6.5 q14 0 22 -25q23 -74 67.5 -110t93.5 -36q22 0 35.5 10.5t13.5 24.5t-12 24.5t-27 18t-27 11.5t-12 6t3 19t8 41.5t12 52.5t14.5 51.5t15 39t14.5 15.5q8 0 21.5 -17.5t26.5 -44.5t22.5 -60t9.5 -64zM687 767q0 -4 -6.5 -16.5t-16.5 -29.5t-22.5 -36t-24 -34.5t-21.5 -26 t-14 -10.5q-3 0 -25.5 14.5t-47.5 33t-45.5 36t-20.5 22.5q0 4 6.5 17t17 30t23 36t24 34.5t20.5 26t13 10.5q6 0 28.5 -15t47.5 -33.5t44.5 -36t19.5 -22.5zM691 -216q0 -4 -6.5 -16.5t-16.5 -29.5t-22.5 -36t-24 -34.5t-21.5 -26t-14 -10.5q-3 0 -25.5 14.5t-47.5 33 t-45.5 36t-20.5 22.5q0 4 6.5 17t17 30t23 36t24 34.5t20.5 26t13 10.5q6 0 28.5 -15t47.5 -33.5t44.5 -36t19.5 -22.5z" />
<glyph unicode="&#x69a;" horiz-adv-x="1099" d="M1165 93v-28t-4 -30.5t-13 -24.5t-28 -10h-37q-77 0 -126 46.5t-78 131.5q-27 -72 -61.5 -112.5t-91.5 -40.5q-54 0 -82.5 28.5t-40.5 79.5q-38 -68 -84.5 -99.5t-120.5 -31.5q-24 0 -46.5 6t-43.5 20t-38.5 37.5t-30.5 58.5q-19 -36 -45 -59.5t-55 -38t-58.5 -20.5 t-55.5 -6h-37q-19 0 -30 10t-16.5 24.5t-7 30.5t-1.5 28t1.5 31t7 37t16.5 31t30 13h37q53 0 91 12t64 30t42.5 39.5t27.5 39.5t17.5 30t12.5 12q12 0 17.5 -12t9.5 -29.5t9.5 -38t18 -38t35 -29.5t60.5 -12q41 0 72.5 13.5t55 33.5t40 43t28 43t18.5 33.5t12 13.5 q17 0 22.5 -6t6.5 -21q0 -8 2 -26.5t9.5 -38t22 -34.5t41.5 -15q36 0 60 22.5t39 50t23.5 50t14.5 22.5q28 0 28 -23q0 -17 10 -45t29.5 -54.5t49 -46t69.5 -19.5h37q19 0 28 -13t13 -31t4 -37v-31zM668 643q0 -4 -6.5 -16.5t-16.5 -29.5t-22.5 -36t-24 -34.5t-21.5 -26 t-14 -10.5q-3 0 -25.5 14.5t-47.5 33t-45.5 36t-20.5 22.5q0 4 6.5 17t17 30t23 36t24 34.5t20.5 26t13 10.5q6 0 28.5 -15t47.5 -33.5t44.5 -36t19.5 -22.5zM662 -213q0 -4 -6.5 -16.5t-16.5 -29.5t-22.5 -36t-24 -34.5t-21.5 -26t-14 -10.5q-3 0 -25.5 14.5t-47.5 33 t-45.5 36t-20.5 22.5q0 4 6.5 17t17 30t23 36t24 34.5t20.5 26t13 10.5q6 0 28.5 -15t47.5 -33.5t44.5 -36t19.5 -22.5z" />
<glyph unicode="&#x69a;" horiz-adv-x="1550" d="M1617 103q0 -24 -1.5 -43t-7 -32.5t-16.5 -20.5t-30 -7h-37q-77 0 -126 46.5t-78 131.5q-27 -72 -61.5 -112.5t-91.5 -40.5q-54 0 -82.5 28.5t-40.5 79.5q-38 -68 -83.5 -100t-115.5 -33q-3 -40 -7.5 -79.5t-12.5 -75.5q-22 -96 -75.5 -162.5t-124.5 -107.5t-154 -59 t-164 -18q-84 0 -138 24.5t-85.5 63.5t-43.5 88t-12 98q0 59 19.5 119t43.5 109t44.5 79.5t23.5 30.5t9 -2.5t12 -6.5t10.5 -7.5t4.5 -5.5q0 -6 -12.5 -25.5t-27.5 -49t-27.5 -66.5t-12.5 -77q0 -30 12 -59.5t39 -53t70 -38t104 -14.5q135 0 233 18.5t149 65.5q50 47 50 121 q0 47 -10.5 84.5t-23 65t-23 45t-10.5 25.5q0 4 7 20.5t17 38.5t22.5 47.5t24 46.5t19.5 35t11 14q10 -7 19 -24t16.5 -36.5t13 -38t8.5 -29.5q43 0 75.5 13.5t57 34.5t42 44.5t29 44.5t18.5 34.5t12 13.5q18 0 23 -6t6 -21q0 -8 2 -26.5t9.5 -38t22 -34.5t41.5 -15 q36 0 60 22.5t39 50t23.5 50t14.5 22.5q28 0 28 -23q0 -17 10 -45t29.5 -54.5t49 -46t69.5 -19.5h37q19 0 30 -4.5t16.5 -16t7 -31.5t1.5 -50zM1172 639q0 -4 -6.5 -16.5t-16.5 -29.5t-22.5 -36t-24 -34.5t-21.5 -26t-14 -10.5q-3 0 -25.5 14.5t-47.5 33t-45.5 36 t-20.5 22.5q0 4 6.5 17t17 30t23 36t24 34.5t20.5 26t13 10.5q6 0 28.5 -15t47.5 -33.5t44.5 -36t19.5 -22.5zM1251 -208q0 -4 -6.5 -16.5t-16.5 -29.5t-22.5 -36t-24 -34.5t-21.5 -26t-14 -10.5q-3 0 -25.5 14.5t-47.5 33t-45.5 36t-20.5 22.5q0 4 6.5 17t17 30t23 36 t24 34.5t20.5 26t13 10.5q6 0 28.5 -15t47.5 -33.5t44.5 -36t19.5 -22.5z" />
<glyph unicode="&#x69b;" horiz-adv-x="1074" d="M971 401q0 -20 -3.5 -52t-12 -68.5t-21.5 -73.5t-32.5 -67t-46 -48.5t-60.5 -18.5q-28 0 -53 11t-46 28.5t-38 40t-29 45.5q-17 -30 -38.5 -64.5t-49 -64t-60.5 -48.5t-73 -19q-31 0 -58.5 11.5t-50 29t-38 39t-22.5 42.5q-38 -57 -92.5 -90.5t-121.5 -33.5h-37 q-19 0 -30 11.5t-16.5 28t-7 34t-1.5 29.5t1.5 29t7 33.5t16.5 28t30 11.5h37q54 0 93.5 10t67 24.5t45.5 32t29.5 32t19 24.5t13.5 10q12 0 18 -10t11 -24.5t10.5 -31.5t16 -31.5t28 -24.5t46.5 -10q49 0 89.5 19.5t69.5 50.5t46 69.5t21 77.5q1 8 5.5 14.5t15.5 6.5 q14 0 22 -25q23 -74 67.5 -110t93.5 -36q22 0 35.5 10.5t13.5 24.5t-12 24.5t-27 18t-27 11.5t-12 6t3 19t8 41.5t12 52.5t14.5 51.5t15 39t14.5 15.5q8 0 21.5 -17.5t26.5 -44.5t22.5 -60t9.5 -64zM677 -88q6 0 27 -14t44 -32t41 -34t18 -20q0 -6 -13 -29t-29.5 -48.5 t-32 -46t-20.5 -20.5q-4 0 -23.5 14.5t-42.5 31.5l-60 46q-7 5 -13 5q-3 0 -8 -8q-23 -32 -41 -58q-16 -22 -31 -39.5t-20 -17.5q-2 0 -12.5 6.5t-25.5 17t-31 22.5t-30 23t-23 19.5t-9 11.5q0 4 6.5 16t16.5 28.5t21.5 34.5t22.5 32.5t19 24.5t10 10q7 0 27 -14.5t42 -31.5 q26 -20 55 -45q6 -7 11 -7t13 10q23 31 42 56q16 21 30.5 38.5t18.5 17.5zM720 -451q0 -6 -13 -29.5t-30 -49.5t-33.5 -46.5t-22.5 -20.5q-2 0 -13 6.5t-25.5 16.5t-31 22.5t-30.5 23.5t-23 20t-9 12q0 4 6.5 16t16 28.5t21.5 34.5t23 32.5t19.5 24.5t11.5 10q6 0 27.5 -14 t45 -32t42 -34.5t18.5 -20.5z" />
<glyph unicode="&#x69b;" horiz-adv-x="1099" d="M1165 93v-28t-4 -30.5t-13 -24.5t-28 -10h-37q-77 0 -126 46.5t-78 131.5q-27 -72 -61.5 -112.5t-91.5 -40.5q-54 0 -82.5 28.5t-40.5 79.5q-38 -68 -84.5 -99.5t-120.5 -31.5q-24 0 -46.5 6t-43.5 20t-38.5 37.5t-30.5 58.5q-19 -36 -45 -59.5t-55 -38t-58.5 -20.5 t-55.5 -6h-37q-19 0 -30 10t-16.5 24.5t-7 30.5t-1.5 28t1.5 31t7 37t16.5 31t30 13h37q53 0 91 12t64 30t42.5 39.5t27.5 39.5t17.5 30t12.5 12q12 0 17.5 -12t9.5 -29.5t9.5 -38t18 -38t35 -29.5t60.5 -12q41 0 72.5 13.5t55 33.5t40 43t28 43t18.5 33.5t12 13.5 q17 0 22.5 -6t6.5 -21q0 -8 2 -26.5t9.5 -38t22 -34.5t41.5 -15q36 0 60 22.5t39 50t23.5 50t14.5 22.5q28 0 28 -23q0 -17 10 -45t29.5 -54.5t49 -46t69.5 -19.5h37q19 0 28 -13t13 -31t4 -37v-31zM659 -72q6 0 27 -14t44 -32t41 -34t18 -20q0 -6 -13 -29t-29.5 -48.5 t-32 -46t-20.5 -20.5q-4 0 -23.5 14.5t-42.5 31.5l-60 46q-7 5 -13 5q-3 0 -8 -8q-23 -32 -41 -58q-16 -22 -31 -39.5t-20 -17.5q-2 0 -12.5 6.5t-25.5 17t-31 22.5t-30 23t-23 19.5t-9 11.5q0 4 6.5 16t16.5 28.5t21.5 34.5t22.5 32.5t19 24.5t10 10q7 0 27 -14.5t42 -31.5 q26 -20 55 -45q6 -7 11 -7t13 10q23 31 42 56q16 21 30.5 38.5t18.5 17.5zM702 -435q0 -6 -13 -29.5t-30 -49.5t-33.5 -46.5t-22.5 -20.5q-2 0 -13 6.5t-25.5 16.5t-31 22.5t-30.5 23.5t-23 20t-9 12q0 4 6.5 16t16 28.5t21.5 34.5t23 32.5t19.5 24.5t11.5 10q6 0 27.5 -14 t45 -32t42 -34.5t18.5 -20.5z" />
<glyph unicode="&#x69b;" horiz-adv-x="1550" d="M1617 103q0 -24 -1.5 -43t-7 -32.5t-16.5 -20.5t-30 -7h-37q-77 0 -126 46.5t-78 131.5q-27 -72 -61.5 -112.5t-91.5 -40.5q-54 0 -82.5 28.5t-40.5 79.5q-38 -68 -83.5 -100t-115.5 -33q-3 -40 -7.5 -79.5t-12.5 -75.5q-22 -96 -75.5 -162.5t-124.5 -107.5t-154 -59 t-164 -18q-84 0 -138 24.5t-85.5 63.5t-43.5 88t-12 98q0 59 19.5 119t43.5 109t44.5 79.5t23.5 30.5t9 -2.5t12 -6.5t10.5 -7.5t4.5 -5.5q0 -6 -12.5 -25.5t-27.5 -49t-27.5 -66.5t-12.5 -77q0 -30 12 -59.5t39 -53t70 -38t104 -14.5q135 0 233 18.5t149 65.5q50 47 50 121 q0 47 -10.5 84.5t-23 65t-23 45t-10.5 25.5q0 4 7 20.5t17 38.5t22.5 47.5t24 46.5t19.5 35t11 14q10 -7 19 -24t16.5 -36.5t13 -38t8.5 -29.5q43 0 75.5 13.5t57 34.5t42 44.5t29 44.5t18.5 34.5t12 13.5q18 0 23 -6t6 -21q0 -8 2 -26.5t9.5 -38t22 -34.5t41.5 -15 q36 0 60 22.5t39 50t23.5 50t14.5 22.5q28 0 28 -23q0 -17 10 -45t29.5 -54.5t49 -46t69.5 -19.5h37q19 0 30 -4.5t16.5 -16t7 -31.5t1.5 -50zM1240 -95q6 0 27 -14t44 -32t41 -34t18 -20q0 -6 -13 -29t-29.5 -48.5t-32 -46t-20.5 -20.5q-4 0 -23.5 14.5t-42.5 31.5l-60 46 q-7 5 -13 5q-3 0 -8 -8q-23 -32 -41 -58q-16 -22 -31 -39.5t-20 -17.5q-2 0 -12.5 6.5t-25.5 17t-31 22.5t-30 23t-23 19.5t-9 11.5q0 4 6.5 16t16.5 28.5t21.5 34.5t22.5 32.5t19 24.5t10 10q7 0 27 -14.5t42 -31.5q26 -20 55 -45q6 -7 11 -7t13 10q23 31 42 56 q16 21 30.5 38.5t18.5 17.5zM1283 -458q0 -6 -13 -29.5t-30 -49.5t-33.5 -46.5t-22.5 -20.5q-2 0 -13 6.5t-25.5 16.5t-31 22.5t-30.5 23.5t-23 20t-9 12q0 4 6.5 16t16 28.5t21.5 34.5t23 32.5t19.5 24.5t11.5 10q6 0 27.5 -14t45 -32t42 -34.5t18.5 -20.5z" />
</font>
</defs>
</svg>
