<?xml version="1.0" standalone="no"?>
<!DOCTYPE svg PUBLIC "-//W3C//DTD SVG 1.1//EN" "http://www.w3.org/Graphics/SVG/1.1/DTD/svg11.dtd" >
<svg xmlns="http://www.w3.org/2000/svg" xmlns:xlink="http://www.w3.org/1999/xlink" version="1.1">
<metadata></metadata>
<defs>
<font id="scheherazaderegular" horiz-adv-x="0" >
<font-face units-per-em="2048" ascent="1638" descent="-410" />
<missing-glyph horiz-adv-x="512" />
<glyph unicode="&#x648;&#x654;" horiz-adv-x="573" d="M522 125q0 -61 -14 -128.5t-38.5 -132.5t-58 -124t-74 -103.5t-85.5 -71t-92 -26.5t-89.5 12t-75 27t-52 28.5t-19.5 16.5q0 5 2.5 10t5.5 5t18 -4t34.5 -8.5t39.5 -8.5t33 -4q50 0 100 19.5t96 52.5t85.5 77t69 92.5t46.5 99t17 97.5q0 25 -4 41.5t-10 30.5 q-8 -10 -18 -21.5t-22 -21t-26.5 -15.5t-30.5 -6q-19 0 -39.5 9t-37 24.5t-27 37.5t-10.5 48q0 39 15 85t37 86.5t45.5 67.5t41.5 27q22 0 46 -20.5t44.5 -61t33.5 -100t13 -137.5zM403 246q-11 17 -26 26t-25 9q-15 0 -21.5 -12t-6.5 -29q0 -8 9 -19.5t23 -11.5 q11 0 26 11.5t21 25.5zM520 696q0 -3 -2.5 -12t-7.5 -18.5t-12.5 -18.5t-16.5 -12q-6 -2 -18.5 -6.5t-29.5 -11t-37 -14.5t-40 -15q-49 -19 -72.5 -30t-31.5 -11t-8 8q0 4 3 11.5t7 15.5t8 15.5t6 10.5q3 3 9.5 7.5t14 9t14.5 7.5t11 5q-8 2 -17.5 7.5t-17.5 14t-14 19.5 t-6 25q0 12 6 26.5t15.5 29t21 28.5t23.5 26q19 19 33 29.5t24.5 15t19.5 5.5t19 1q22 0 32.5 -17.5t10.5 -37.5q0 -5 -3 -15t-7.5 -20t-9 -17t-7.5 -7q-4 0 -12 3.5t-18 7.5t-21 7.5t-20 3.5q-17 0 -32.5 -12t-15.5 -23q0 -3 11 -11.5t27.5 -18t35 -17t33.5 -8.5q12 3 26 6 t26.5 5.5t21.5 4.5t12 3q2 0 4 -0.5t2 -4.5z" />
<glyph unicode="&#x64a;&#x654;" horiz-adv-x="1130" d="M1022 477q-17 16 -33.5 25.5t-50.5 9.5q-36 0 -84 -19t-91.5 -50.5t-73.5 -72.5t-30 -85q0 -22 22.5 -37.5t53 -26t61 -16t46.5 -8.5q26 -4 48.5 -6t41 -5t32.5 -8.5t23 -15.5q11 -11 12.5 -33t1.5 -51q0 -32 -23 -68t-60 -65q-47 -37 -106 -70.5t-127 -58.5t-143 -39.5 t-153 -14.5q-75 0 -137 18t-106.5 52t-68.5 84t-24 115q0 37 11 80t27.5 86t36 83t37 70.5t29 49t13.5 18.5q16 0 16 -12q0 -5 -15 -34t-33 -70.5t-33 -90t-15 -92.5q0 -65 29.5 -108.5t75 -69.5t101.5 -36.5t109 -10.5q45 0 99 10t109 25.5t106 35t90.5 37.5t63.5 33.5 t24 23.5q0 9 -7 15t-27 11t-58 11t-99 14q-26 3 -54 10.5t-51.5 21.5t-38.5 37t-15 57q0 27 11 58.5t29.5 65t44 67t55.5 63.5q31 31 64.5 57.5t68.5 46t70 30.5t70 11q5 0 14 -1.5t17.5 -5t15 -8.5t6.5 -12zM583 782q0 -3 -2.5 -12t-7.5 -18.5t-12.5 -18.5t-16.5 -12 q-6 -2 -18.5 -6.5t-29.5 -11t-37 -14.5t-40 -15q-49 -19 -72.5 -30t-31.5 -11t-8 8q0 4 3 11.5t7 15.5t8 15.5t6 10.5q3 3 9.5 7.5t14 9t14.5 7.5t11 5q-8 2 -17.5 7.5t-17.5 14t-14 19.5t-6 25q0 12 6 26.5t15.5 29t21 28.5t23.5 26q19 19 33 29.5t24.5 15t19.5 5.5t19 1 q22 0 32.5 -17.5t10.5 -37.5q0 -5 -3 -15t-7.5 -20t-9 -17t-7.5 -7q-4 0 -12 3.5t-18 7.5t-21 7.5t-20 3.5q-17 0 -32.5 -12t-15.5 -23q0 -3 11 -11.5t27.5 -18t35 -17t33.5 -8.5q12 3 26 6t26.5 5.5t21.5 4.5t12 3q2 0 4 -0.5t2 -4.5z" />
<glyph unicode="&#x6d5;&#x654;" horiz-adv-x="502" d="M436 233q0 -53 -15 -97.5t-43 -77t-68 -50.5t-91 -18q-35 0 -62 13.5t-45 37t-27 55t-9 68.5q0 29 17.5 78t45.5 112q14 31 27.5 59t26.5 49.5t25 34.5t22 13q36 0 71 -23.5t63 -62.5t45 -89t17 -102zM377 207q0 16 -19 36t-46 37.5t-56.5 29.5t-50.5 12q-14 0 -27 -12.5 t-23 -31.5t-16 -41t-6 -40q0 -13 10 -24t26 -18.5t35.5 -11.5t37.5 -4q19 0 42.5 4.5t44 13.5t34.5 21.5t14 28.5zM395 759q0 -3 -2.5 -12t-7.5 -18.5t-12.5 -18.5t-16.5 -12q-6 -2 -18.5 -6.5t-29.5 -11t-37 -14.5t-40 -15q-49 -19 -72.5 -30t-31.5 -11t-8 8q0 4 3 11.5 t7 15.5t8 15.5t6 10.5q3 3 9.5 7.5t14 9t14.5 7.5t11 5q-8 2 -17.5 7.5t-17.5 14t-14 19.5t-6 25q0 12 6 26.5t15.5 29t21 28.5t23.5 26q19 19 33 29.5t24.5 15t19.5 5.5t19 1q22 0 32.5 -17.5t10.5 -37.5q0 -5 -3 -15t-7.5 -20t-9 -17t-7.5 -7q-4 0 -12 3.5t-18 7.5 t-21 7.5t-20 3.5q-17 0 -32.5 -12t-15.5 -23q0 -3 11 -11.5t27.5 -18t35 -17t33.5 -8.5q12 3 26 6t26.5 5.5t21.5 4.5t12 3q2 0 4 -0.5t2 -4.5z" />
<glyph unicode="&#x6c1;&#x654;" horiz-adv-x="502" d="M436 233q0 -53 -15 -97.5t-43 -77t-68 -50.5t-91 -18q-35 0 -62 13.5t-45 37t-27 55t-9 68.5q0 29 17.5 78t45.5 112q14 31 27.5 59t26.5 49.5t25 34.5t22 13q36 0 71 -23.5t63 -62.5t45 -89t17 -102zM377 207q0 16 -19 36t-46 37.5t-56.5 29.5t-50.5 12q-14 0 -27 -12.5 t-23 -31.5t-16 -41t-6 -40q0 -13 10 -24t26 -18.5t35.5 -11.5t37.5 -4q19 0 42.5 4.5t44 13.5t34.5 21.5t14 28.5zM395 759q0 -3 -2.5 -12t-7.5 -18.5t-12.5 -18.5t-16.5 -12q-6 -2 -18.5 -6.5t-29.5 -11t-37 -14.5t-40 -15q-49 -19 -72.5 -30t-31.5 -11t-8 8q0 4 3 11.5 t7 15.5t8 15.5t6 10.5q3 3 9.5 7.5t14 9t14.5 7.5t11 5q-8 2 -17.5 7.5t-17.5 14t-14 19.5t-6 25q0 12 6 26.5t15.5 29t21 28.5t23.5 26q19 19 33 29.5t24.5 15t19.5 5.5t19 1q22 0 32.5 -17.5t10.5 -37.5q0 -5 -3 -15t-7.5 -20t-9 -17t-7.5 -7q-4 0 -12 3.5t-18 7.5 t-21 7.5t-20 3.5q-17 0 -32.5 -12t-15.5 -23q0 -3 11 -11.5t27.5 -18t35 -17t33.5 -8.5q12 3 26 6t26.5 5.5t21.5 4.5t12 3q2 0 4 -0.5t2 -4.5z" />
<glyph unicode="&#x64b;&#x651;" d="M304 1515q0 -3 -3 -12t-8 -19.5t-10.5 -20.5t-9.5 -14q-7 -7 -18 -13t-25 -14l-192 -100q-24 -13 -34 -19t-18 -6q-6 0 -6 8q0 4 2.5 12.5t6.5 18t8.5 18t8.5 12.5t11 8.5t21 12.5l198 104q17 9 35.5 20.5t24.5 11.5q8 0 8 -8zM304 1663q0 -3 -3 -12t-8 -19.5 t-10.5 -20.5t-9.5 -14q-7 -7 -18 -13t-25 -14l-192 -100q-24 -13 -34 -19t-18 -6q-6 0 -6 8q0 4 2.5 12.5t6.5 18t8.5 18t8.5 12.5t11 8.5t21 12.5l198 104q17 9 35.5 20.5t24.5 11.5q8 0 8 -8zM335 1250q0 -32 -5 -64t-17 -57.5t-30.5 -41.5t-45.5 -16q-21 0 -37 5.5 t-30 16.5q-11 -17 -22 -33t-23.5 -28.5t-28 -20t-33.5 -7.5q-32 0 -56.5 29t-24.5 81q0 4 1.5 17.5t4.5 30t7.5 32.5t10.5 27q1 2 6 2h10q7 0 7.5 -19t2 -41.5t8.5 -41t27 -18.5q24 0 40 25.5t26 56.5t14.5 57.5t6.5 29.5q3 4 19 4q6 0 9 -16.5t7.5 -36t14 -35.5t29.5 -16 t32 23t18 51t8 52.5t2 26.5q2 5 10.5 9.5t13.5 4.5q4 0 7 -10t5.5 -24t4 -29.5t1.5 -25.5z" />
<glyph unicode="&#x64c;&#x651;" d="M335 1250q0 -32 -5 -64t-17 -57.5t-30.5 -41.5t-45.5 -16q-21 0 -37 5.5t-30 16.5q-11 -17 -22 -33t-23.5 -28.5t-28 -20t-33.5 -7.5q-32 0 -56.5 29t-24.5 81q0 4 1.5 17.5t4.5 30t7.5 32.5t10.5 27q1 2 6 2h10q7 0 7.5 -19t2 -41.5t8.5 -41t27 -18.5q24 0 40 25.5 t26 56.5t14.5 57.5t6.5 29.5q3 4 19 4q6 0 9 -16.5t7.5 -36t14 -35.5t29.5 -16t32 23t18 51t8 52.5t2 26.5q2 5 10.5 9.5t13.5 4.5q4 0 7 -10t5.5 -24t4 -29.5t1.5 -25.5zM320 1443q0 -19 -4.5 -30.5t-15.5 -11.5q-5 0 -14 5t-18.5 12.5t-19.5 15.5t-16 14 q-63 -62 -118.5 -97.5t-89.5 -35.5q-8 0 -12.5 3.5t-4.5 6.5t5.5 14t12.5 26t12.5 32t5.5 32q0 16 -6.5 33.5t-31.5 17.5q-15 0 -23 -9.5t-12.5 -21.5t-6.5 -21.5t-3 -9.5q-11 0 -11 17q0 14 2.5 36.5t10 44t20 37t33.5 15.5q24 0 38 -9.5t21.5 -24.5t10 -34.5t2.5 -39.5 q0 -17 -0.5 -33.5t-2.5 -30.5q29 10 57.5 32.5t51.5 45.5q-10 7 -21 14t-20 16t-15 22t-6 33q0 24 8.5 48t23.5 44t36 32.5t46 12.5q16 0 28.5 -7t21 -18t12.5 -25t4 -28q0 -20 -11 -48.5t-21 -48.5q20 -17 30.5 -33.5t10.5 -44.5zM244 1581q0 20 -11 34.5t-31 14.5 q-7 0 -12 -6t-5 -12q0 -14 11.5 -27.5t41.5 -33.5q6 15 6 30z" />
<glyph unicode="&#x64d;&#x651;" d="M334 1228q0 -3 -3 -12t-8 -19.5t-10.5 -20.5t-9.5 -14q-7 -7 -18 -13t-25 -14l-192 -100q-24 -13 -34 -19t-18 -6q-6 0 -6 8q0 4 2.5 12.5t6.5 18t8.5 18t8.5 12.5t11 8.5t21 12.5l198 104q17 9 35.5 20.5t24.5 11.5q8 0 8 -8zM334 1373q0 -3 -3 -12t-8 -19.5 t-10.5 -20.5t-9.5 -14q-7 -7 -18 -13t-25 -14l-192 -100q-24 -13 -34 -19t-18 -6q-6 0 -6 8q0 4 2.5 12.5t6.5 18t8.5 18t8.5 12.5t11 8.5t21 12.5l198 104q17 9 35.5 20.5t24.5 11.5q8 0 8 -8zM335 1614q0 -32 -5 -64t-17 -57.5t-30.5 -41.5t-45.5 -16q-21 0 -37 5.5 t-30 16.5q-11 -17 -22 -33t-23.5 -28.5t-28 -20t-33.5 -7.5q-32 0 -56.5 29t-24.5 81q0 4 1.5 17.5t4.5 30t7.5 32.5t10.5 27q1 2 6 2h10q7 0 7.5 -19t2 -41.5t8.5 -41t27 -18.5q24 0 40 25.5t26 56.5t14.5 57.5t6.5 29.5q3 4 19 4q6 0 9 -16.5t7.5 -36t14 -35.5t29.5 -16 t32 23t18 51t8 52.5t2 26.5q2 5 10.5 9.5t13.5 4.5q4 0 7 -10t5.5 -24t4 -29.5t1.5 -25.5z" />
<glyph unicode="&#x64e;&#x651;" d="M314 1515q0 -3 -3 -12t-8 -19.5t-10.5 -20.5t-9.5 -14q-7 -7 -18 -13t-25 -14l-192 -100q-24 -13 -34 -19t-18 -6q-6 0 -6 8q0 4 2.5 12.5t6.5 18t8.5 18t8.5 12.5t11 8.5t21 12.5l198 104q17 9 35.5 20.5t24.5 11.5q8 0 8 -8zM335 1250q0 -32 -5 -64t-17 -57.5 t-30.5 -41.5t-45.5 -16q-21 0 -37 5.5t-30 16.5q-11 -17 -22 -33t-23.5 -28.5t-28 -20t-33.5 -7.5q-32 0 -56.5 29t-24.5 81q0 4 1.5 17.5t4.5 30t7.5 32.5t10.5 27q1 2 6 2h10q7 0 7.5 -19t2 -41.5t8.5 -41t27 -18.5q24 0 40 25.5t26 56.5t14.5 57.5t6.5 29.5q3 4 19 4 q6 0 9 -16.5t7.5 -36t14 -35.5t29.5 -16t32 23t18 51t8 52.5t2 26.5q2 5 10.5 9.5t13.5 4.5q4 0 7 -10t5.5 -24t4 -29.5t1.5 -25.5z" />
<glyph unicode="&#x64f;&#x651;" d="M335 1250q0 -32 -5 -64t-17 -57.5t-30.5 -41.5t-45.5 -16q-21 0 -37 5.5t-30 16.5q-11 -17 -22 -33t-23.5 -28.5t-28 -20t-33.5 -7.5q-32 0 -56.5 29t-24.5 81q0 4 1.5 17.5t4.5 30t7.5 32.5t10.5 27q1 2 6 2h10q7 0 7.5 -19t2 -41.5t8.5 -41t27 -18.5q24 0 40 25.5 t26 56.5t14.5 57.5t6.5 29.5q3 4 19 4q6 0 9 -16.5t7.5 -36t14 -35.5t29.5 -16t32 23t18 51t8 52.5t2 26.5q2 5 10.5 9.5t13.5 4.5q4 0 7 -10t5.5 -24t4 -29.5t1.5 -25.5zM230 1704q21 0 34 -11t19.5 -25.5t8.5 -29.5t2 -23q0 -26 -8 -54t-22 -56q15 -11 27 -19t19 -12 q4 -3 4 -9q0 -8 -3.5 -20t-8.5 -23t-10.5 -19.5t-8.5 -8.5q-7 0 -25.5 9.5t-41.5 25.5q-21 -27 -43.5 -49.5t-44.5 -39.5t-42 -26.5t-35 -9.5q-16 0 -33 4.5t-30 10.5q64 35 110 72t76 71q-22 20 -37.5 42t-15.5 42q0 21 9.5 48.5t25 52t35 41t39.5 16.5zM174 1604 q0 -14 15 -32t35 -35q9 21 9 35q0 20 -15 32.5t-29 12.5q-15 0 -15 -13z" />
<glyph unicode="&#x650;&#x651;" d="M334 1215q0 -3 -3 -12t-8 -19.5t-10.5 -20.5t-9.5 -14q-7 -7 -18 -13t-25 -14l-192 -100q-24 -13 -34 -19t-18 -6q-6 0 -6 8q0 4 2.5 12.5t6.5 18t8.5 18t8.5 12.5t11 8.5t21 12.5l198 104q17 9 35.5 20.5t24.5 11.5q8 0 8 -8zM335 1456q0 -32 -5 -64t-17 -57.5 t-30.5 -41.5t-45.5 -16q-21 0 -37 5.5t-30 16.5q-11 -17 -22 -33t-23.5 -28.5t-28 -20t-33.5 -7.5q-32 0 -56.5 29t-24.5 81q0 4 1.5 17.5t4.5 30t7.5 32.5t10.5 27q1 2 6 2h10q7 0 7.5 -19t2 -41.5t8.5 -41t27 -18.5q24 0 40 25.5t26 56.5t14.5 57.5t6.5 29.5q3 4 19 4 q6 0 9 -16.5t7.5 -36t14 -35.5t29.5 -16t32 23t18 51t8 52.5t2 26.5q2 5 10.5 9.5t13.5 4.5q4 0 7 -10t5.5 -24t4 -29.5t1.5 -25.5z" />
<glyph unicode="&#x64e;&#x654;" d="M282 1543q0 -3 -3 -12t-8 -19.5t-10.5 -20.5t-9.5 -14q-7 -7 -18 -13t-25 -14l-192 -100q-24 -13 -34 -19t-18 -6q-6 0 -6 8q0 4 2.5 12.5t6.5 18t8.5 18t8.5 12.5t11 8.5t21 12.5l198 104q17 9 35.5 20.5t24.5 11.5q8 0 8 -8zM273 1159q0 -3 -2.5 -12t-7.5 -18.5 t-12.5 -18.5t-16.5 -12q-6 -2 -18.5 -6.5t-29.5 -11t-37 -14.5t-40 -15q-49 -19 -72.5 -30t-31.5 -11t-8 8q0 4 3 11.5t7 15.5t8 15.5t6 10.5q3 3 9.5 7.5t14 9t14.5 7.5t11 5q-8 2 -17.5 7.5t-17.5 14t-14 19.5t-6 25q0 12 6 26.5t15.5 29t21 28.5t23.5 26q19 19 33 29.5 t24.5 15t19.5 5.5t19 1q22 0 32.5 -17.5t10.5 -37.5q0 -5 -3 -15t-7.5 -20t-9 -17t-7.5 -7q-4 0 -12 3.5t-18 7.5t-21 7.5t-20 3.5q-17 0 -32.5 -12t-15.5 -23q0 -3 11 -11.5t27.5 -18t35 -17t33.5 -8.5q12 3 26 6t26.5 5.5t21.5 4.5t12 3q2 0 4 -0.5t2 -4.5z" />
<glyph unicode="&#x64f;&#x654;" d="M272 1158q0 -3 -2.5 -12t-7.5 -18.5t-12.5 -18.5t-16.5 -12q-6 -2 -18.5 -6.5t-29.5 -11t-37 -14.5t-40 -15q-49 -19 -72.5 -30t-31.5 -11t-8 8q0 4 3 11.5t7 15.5t8 15.5t6 10.5q3 3 9.5 7.5t14 9t14.5 7.5t11 5q-8 2 -17.5 7.5t-17.5 14t-14 19.5t-6 25q0 12 6 26.5 t15.5 29t21 28.5t23.5 26q19 19 33 29.5t24.5 15t19.5 5.5t19 1q22 0 32.5 -17.5t10.5 -37.5q0 -5 -3 -15t-7.5 -20t-9 -17t-7.5 -7q-4 0 -12 3.5t-18 7.5t-21 7.5t-20 3.5q-17 0 -32.5 -12t-15.5 -23q0 -3 11 -11.5t27.5 -18t35 -17t33.5 -8.5q12 3 26 6t26.5 5.5t21.5 4.5 t12 3q2 0 4 -0.5t2 -4.5zM175 1744q21 0 34 -11t19.5 -25.5t8.5 -29.5t2 -23q0 -26 -8 -54t-22 -56q15 -11 27 -19t19 -12q4 -3 4 -9q0 -8 -3.5 -20t-8.5 -23t-10.5 -19.5t-8.5 -8.5q-7 0 -25.5 9.5t-41.5 25.5q-21 -27 -43.5 -49.5t-44.5 -39.5t-42 -26.5t-35 -9.5 q-16 0 -33 4.5t-30 10.5q64 35 110 72t76 71q-22 20 -37.5 42t-15.5 42q0 21 9.5 48.5t25 52t35 41t39.5 16.5zM119 1644q0 -14 15 -32t35 -35q9 21 9 35q0 20 -15 32.5t-29 12.5q-15 0 -15 -13z" />
<glyph unicode="&#x651;&#x670;" d="M172 1391q0 -11 -7 -25t-13 -14q-2 0 -5 6.5t-6 15t-6.5 17t-5.5 12.5q-23 53 -59 94t-70 70q-2 1 -8 16.5t-12 34t-10.5 36t-4.5 23.5q0 10 1.5 14.5t10.5 4.5q5 0 16.5 -4.5t26 -13t29.5 -20t26 -25.5q24 -30 42 -68t30.5 -74t18.5 -64t6 -36zM335 1250q0 -32 -5 -64 t-17 -57.5t-30.5 -41.5t-45.5 -16q-21 0 -37 5.5t-30 16.5q-11 -17 -22 -33t-23.5 -28.5t-28 -20t-33.5 -7.5q-32 0 -56.5 29t-24.5 81q0 4 1.5 17.5t4.5 30t7.5 32.5t10.5 27q1 2 6 2h10q7 0 7.5 -19t2 -41.5t8.5 -41t27 -18.5q24 0 40 25.5t26 56.5t14.5 57.5t6.5 29.5 q3 4 19 4q6 0 9 -16.5t7.5 -36t14 -35.5t29.5 -16t32 23t18 51t8 52.5t2 26.5q2 5 10.5 9.5t13.5 4.5q4 0 7 -10t5.5 -24t4 -29.5t1.5 -25.5z" />
<glyph unicode="&#x620;" horiz-adv-x="360" d="M248 264q0 -76 -17.5 -127t-47.5 -81.5t-70.5 -43t-87.5 -12.5h-37q-19 0 -30 5.5t-16.5 14.5t-7 20t-1.5 23t1.5 23t7 19.5t16.5 14t30 5.5h37q43 0 76.5 7t56.5 18q21 11 32 23.5t11 19.5q0 6 -10.5 26.5t-22.5 43.5t-22.5 42.5t-10.5 24.5q0 7 9.5 25.5t21.5 38.5 t23 37.5t14 21.5q23 -50 34 -95.5t11 -93.5zM279 -246q0 -32 -11 -60t-30.5 -49t-46.5 -33.5t-59 -12.5q-46 0 -70.5 33t-24.5 104q0 30 10 57t28 47.5t43.5 33t56.5 12.5q21 0 40 -13t33.5 -33t22.5 -43t8 -43zM224 -275q0 12 -9.5 26t-23.5 26t-31 20t-32 8q-25 0 -40 -19 t-15 -41q0 -24 25.5 -38t56.5 -14q9 0 21 2.5t22.5 7t18 10.5t7.5 12z" />
<glyph unicode="&#x620;" horiz-adv-x="367" d="M436 63q0 -12 -1.5 -23t-7 -20t-16.5 -14.5t-30 -5.5h-39q-28 0 -47 9t-35 26q-11 12 -24 32.5t-21 38.5q-18 -20 -36 -39t-40 -34t-49.5 -24t-64.5 -9h-37q-19 0 -30 5.5t-16.5 14.5t-7 20t-1.5 23t1.5 23t7 19.5t16.5 14t30 5.5h37q45 0 78 9.5t56.5 24.5t39 31.5 t25.5 31.5t16.5 24.5t11.5 9.5q6 0 8 -17t10 -38q4 -12 10.5 -25.5t15 -25t20 -18.5t26.5 -7h39q19 0 30 -5.5t16.5 -14t7 -19.5t1.5 -23zM318 -231q0 -32 -11 -60t-30.5 -49t-46.5 -33.5t-59 -12.5q-46 0 -70.5 33t-24.5 104q0 30 10 57t28 47.5t43.5 33t56.5 12.5 q21 0 40 -13t33.5 -33t22.5 -43t8 -43zM263 -260q0 12 -9.5 26t-23.5 26t-31 20t-32 8q-25 0 -40 -19t-15 -41q0 -24 25.5 -38t56.5 -14q9 0 21 2.5t22.5 7t18 10.5t7.5 12z" />
<glyph unicode="&#x620;" horiz-adv-x="718" d="M791 63q0 -12 -1.5 -23t-7 -20t-16.5 -14.5t-30 -5.5h-87q-28 0 -59.5 -2t-59.5 -10q-34 -10 -55 -30.5t-21 -43.5q0 -12 7 -18.5t19 -10.5t28.5 -6.5t35.5 -5.5q23 -4 52 -12.5t54.5 -23.5t42.5 -37t17 -52q0 -38 -19.5 -71.5t-53.5 -64.5q-24 -21 -70 -48t-101 -50 t-112.5 -39t-102.5 -16q-37 0 -79 16t-78 37t-60 40.5t-24 25.5q0 3 3 8t6 5q6 0 25 -2t44 -5t53 -5t52 -2q51 0 106 9.5t107.5 24t99.5 33t82.5 36.5t56 33.5t20.5 24.5q0 22 -31.5 33t-97.5 14q-29 1 -59 4t-55.5 10.5t-41.5 23t-16 42.5q0 25 12.5 51.5t25.5 46.5 q79 125 193 154q22 6 41.5 7t42.5 1h57q19 0 30 -5.5t16.5 -14t7 -19.5t1.5 -23z" />
<glyph unicode="&#x622;" horiz-adv-x="362" arabic-form="final" d="M430 63q0 -12 -1.5 -23t-7 -20t-16.5 -14.5t-30 -5.5h-37q-33 0 -63.5 6.5t-55 25.5t-41 52t-21.5 86q-4 40 -9 91.5t-10.5 108.5t-12 116t-13.5 114q-6 46 -12 89.5t-10.5 80.5t-7 66t-2.5 47q0 5 8.5 22.5t19 36.5t20.5 34t13 15q2 0 5.5 -4t3.5 -16q4 -56 10.5 -132 t14 -159t15.5 -166t15.5 -152t14.5 -117.5t13 -62.5q8 -19 20 -30.5t26 -17.5t29 -7.5t30 -1.5h37q19 0 30 -5.5t16.5 -14t7 -19.5t1.5 -23zM500 1244q0 -14 -22 -29.5t-57 -30.5t-78 -29t-86.5 -24.5t-82 -17t-63.5 -6.5q-26 0 -58.5 1t-61.5 3q-33 2 -67 4q-9 0 -12 -11 t-5 -23.5t-5.5 -23.5t-14.5 -11q-13 0 -26 11.5t-23 28t-16 34.5t-6 30q0 24 10 39t25.5 24t34 12t34.5 3q12 0 34 -2t49.5 -4t59 -4t62.5 -2q86 0 149 8.5t106 18t67 18t32 8.5q21 0 21 -25z" />
<glyph unicode="&#x623;" horiz-adv-x="362" arabic-form="final" d="M430 63q0 -12 -1.5 -23t-7 -20t-16.5 -14.5t-30 -5.5h-37q-33 0 -63.5 6.5t-55 25.5t-41 52t-21.5 86q-4 40 -9 91.5t-10.5 108.5t-12 116t-13.5 114q-6 46 -12 89.5t-10.5 80.5t-7 66t-2.5 47q0 5 8.5 22.5t19 36.5t20.5 34t13 15q2 0 5.5 -4t3.5 -16q4 -56 10.5 -132 t14 -159t15.5 -166t15.5 -152t14.5 -117.5t13 -62.5q8 -19 20 -30.5t26 -17.5t29 -7.5t30 -1.5h37q19 0 30 -5.5t16.5 -14t7 -19.5t1.5 -23zM275 1242q0 -3 -2.5 -12t-7.5 -18.5t-12.5 -18.5t-16.5 -12q-6 -2 -18.5 -6.5t-29.5 -11t-37 -14.5t-40 -15q-49 -19 -72.5 -30 t-31.5 -11t-8 8q0 4 3 11.5t7 15.5t8 15.5t6 10.5q3 3 9.5 7.5t14 9t14.5 7.5t11 5q-8 2 -17.5 7.5t-17.5 14t-14 19.5t-6 25q0 12 6 26.5t15.5 29t21 28.5t23.5 26q19 19 33 29.5t24.5 15t19.5 5.5t19 1q22 0 32.5 -17.5t10.5 -37.5q0 -5 -3 -15t-7.5 -20t-9 -17t-7.5 -7 q-4 0 -12 3.5t-18 7.5t-21 7.5t-20 3.5q-17 0 -32.5 -12t-15.5 -23q0 -3 11 -11.5t27.5 -18t35 -17t33.5 -8.5q12 3 26 6t26.5 5.5t21.5 4.5t12 3q2 0 4 -0.5t2 -4.5z" />
<glyph unicode="&#x625;" horiz-adv-x="362" arabic-form="final" d="M430 63q0 -12 -1.5 -23t-7 -20t-16.5 -14.5t-30 -5.5h-37q-33 0 -63.5 6.5t-55 25.5t-41 52t-21.5 86q-4 40 -9 91.5t-10.5 108.5t-12 116t-13.5 114q-6 46 -12 89.5t-10.5 80.5t-7 66t-2.5 47q0 5 8.5 22.5t19 36.5t20.5 34t13 15q2 0 5.5 -4t3.5 -16q4 -56 10.5 -132 t14 -159t15.5 -166t15.5 -152t14.5 -117.5t13 -62.5q8 -19 20 -30.5t26 -17.5t29 -7.5t30 -1.5h37q19 0 30 -5.5t16.5 -14t7 -19.5t1.5 -23zM366 -270q0 -3 -2.5 -12t-7.5 -18.5t-12.5 -18.5t-16.5 -12q-6 -2 -18.5 -6.5t-29.5 -11t-37 -14.5t-40 -15q-49 -19 -72.5 -30 t-31.5 -11t-8 8q0 4 3 11.5t7 15.5t8 15.5t6 10.5q3 3 9.5 7.5t14 9t14.5 7.5t11 5q-8 2 -17.5 7.5t-17.5 14t-14 19.5t-6 25q0 12 6 26.5t15.5 29t21 28.5t23.5 26q19 19 33 29.5t24.5 15t19.5 5.5t19 1q22 0 32.5 -17.5t10.5 -37.5q0 -5 -3 -15t-7.5 -20t-9 -17t-7.5 -7 q-4 0 -12 3.5t-18 7.5t-21 7.5t-20 3.5q-17 0 -32.5 -12t-15.5 -23q0 -3 11 -11.5t27.5 -18t35 -17t33.5 -8.5q12 3 26 6t26.5 5.5t21.5 4.5t12 3q2 0 4 -0.5t2 -4.5z" />
<glyph unicode="&#x627;" horiz-adv-x="362" arabic-form="final" d="M430 63q0 -12 -1.5 -23t-7 -20t-16.5 -14.5t-30 -5.5h-37q-33 0 -63.5 6.5t-55 25.5t-41 52t-21.5 86q-4 40 -9 91.5t-10.5 108.5t-12 116t-13.5 114q-6 46 -12 89.5t-10.5 80.5t-7 66t-2.5 47q0 5 8.5 22.5t19 36.5t20.5 34t13 15q2 0 5.5 -4t3.5 -16q4 -56 10.5 -132 t14 -159t15.5 -166t15.5 -152t14.5 -117.5t13 -62.5q8 -19 20 -30.5t26 -17.5t29 -7.5t30 -1.5h37q19 0 30 -5.5t16.5 -14t7 -19.5t1.5 -23z" />
<glyph unicode="&#x628;" horiz-adv-x="360" arabic-form="initial" d="M248 264q0 -76 -17.5 -127t-47.5 -81.5t-70.5 -43t-87.5 -12.5h-37q-19 0 -30 5.5t-16.5 14.5t-7 20t-1.5 23t1.5 23t7 19.5t16.5 14t30 5.5h37q43 0 76.5 7t56.5 18q21 11 32 23.5t11 19.5q0 6 -10.5 26.5t-22.5 43.5t-22.5 42.5t-10.5 24.5q0 7 9.5 25.5t21.5 38.5 t23 37.5t14 21.5q23 -50 34 -95.5t11 -93.5zM197 -167q0 -4 -9 -19.5t-20.5 -33t-23 -31.5t-15.5 -14q-2 0 -16.5 9t-31 20.5t-29.5 22.5t-13 15t9.5 19.5t21 33t22.5 31.5t14 14q4 0 19 -9.5t31 -21.5t28.5 -23t12.5 -13z" />
<glyph unicode="&#x628;" horiz-adv-x="367" arabic-form="medial" d="M436 63q0 -12 -1.5 -23t-7 -20t-16.5 -14.5t-30 -5.5h-39q-28 0 -47 9t-35 26q-11 12 -24 32.5t-21 38.5q-18 -20 -36 -39t-40 -34t-49.5 -24t-64.5 -9h-37q-19 0 -30 5.5t-16.5 14.5t-7 20t-1.5 23t1.5 23t7 19.5t16.5 14t30 5.5h37q45 0 78 9.5t56.5 24.5t39 31.5 t25.5 31.5t16.5 24.5t11.5 9.5q6 0 8 -17t10 -38q4 -12 10.5 -25.5t15 -25t20 -18.5t26.5 -7h39q19 0 30 -5.5t16.5 -14t7 -19.5t1.5 -23zM263 -167q0 -4 -9 -19.5t-20.5 -33t-23 -31.5t-15.5 -14q-2 0 -16.5 9t-31 20.5t-29.5 22.5t-13 15t9.5 19.5t21 33t22.5 31.5t14 14 q4 0 19 -9.5t31 -21.5t28.5 -23t12.5 -13z" />
<glyph unicode="&#x628;" horiz-adv-x="1378" arabic-form="final" d="M1446 63q0 -12 -1 -23t-6 -20t-14.5 -14.5t-26.5 -5.5h-40q-32 0 -57 2.5t-45.5 12t-37.5 27.5t-32 50q-33 -38 -99 -69.5t-156 -55t-200.5 -36.5t-232.5 -13q-88 0 -164 16t-132.5 49.5t-89 84.5t-32.5 122q0 39 10.5 78.5t24 71.5t26.5 52t17 20q3 0 8.5 -3t5.5 -10 q0 -4 -6 -16.5t-13.5 -29.5t-13.5 -38t-6 -41q0 -51 30.5 -92t87 -69t135.5 -43t177 -15q84 0 171 6.5t166 20t143.5 35t103.5 51.5q20 15 27 30t16 15q2 0 4.5 -7.5t7 -18t11.5 -21.5t18 -19q10 -8 24.5 -12t31.5 -6.5t35 -3t36 -0.5h40q17 0 26.5 -5.5t14.5 -14t6 -19.5 t1 -23zM660 -249q0 -4 -9 -19.5t-20.5 -33t-23 -31.5t-15.5 -14q-2 0 -16.5 9t-31 20.5t-29.5 22.5t-13 15t9.5 19.5t21 33t22.5 31.5t14 14q4 0 19 -9.5t31 -21.5t28.5 -23t12.5 -13z" />
<glyph unicode="&#x629;" horiz-adv-x="553" arabic-form="final" d="M620 63q0 -12 -1.5 -23t-7 -20t-16.5 -14.5t-30 -5.5h-37q-38 0 -64 7.5t-45 29.5t-34 62.5t-31 107.5q-15 -14 -30.5 -29.5t-33.5 -29t-38.5 -22.5t-46.5 -9q-12 0 -37 4.5t-49.5 13t-43 21t-18.5 28.5q0 12 10 35.5t25 50.5t34 54t37 46q33 36 71 62t75 41 q-1 9 -1.5 18.5t-0.5 18.5v13.5t2 13.5q9 37 20.5 60.5t22.5 23.5q1 0 2.5 -11t4.5 -30.5l7 -45.5t9 -55q7 -45 16 -93t16.5 -90t13.5 -71.5t9 -36.5q6 -16 11 -27.5t14.5 -19.5t26.5 -12t46 -4h37q19 0 30 -5.5t16.5 -14t7 -19.5t1.5 -23zM344 272q-5 28 -11 64t-14 67 q-38 -11 -66.5 -30.5t-47.5 -39t-29 -35.5t-10 -19t16.5 -7t38 -7.5t41.5 -6t27 -2.5q11 0 27.5 4t27.5 12zM469 836q0 -4 -9 -20t-20.5 -33.5t-22 -31.5t-14.5 -14q-2 0 -15.5 9.5t-29.5 21.5q-18 13 -41 31q-4 4 -7 4t-7 -4q-15 -22 -27 -39q-11 -15 -20.5 -27t-12.5 -12 t-17.5 9.5t-30.5 21.5t-29 23t-13 14q0 4 9.5 19.5t21.5 33t22.5 31.5t12.5 14q5 0 18 -10t27 -21q17 -13 37 -30q6 -6 9 -6t7 8q15 21 28 38q11 14 21 26.5t12 12.5q3 0 18 -10t31 -22.5t29 -23.5t13 -13z" />
<glyph unicode="&#x62a;" horiz-adv-x="360" arabic-form="initial" d="M248 264q0 -76 -17.5 -127t-47.5 -81.5t-70.5 -43t-87.5 -12.5h-37q-19 0 -30 5.5t-16.5 14.5t-7 20t-1.5 23t1.5 23t7 19.5t16.5 14t30 5.5h37q43 0 76.5 7t56.5 18q21 11 32 23.5t11 19.5q0 6 -10.5 26.5t-22.5 43.5t-22.5 42.5t-10.5 24.5q0 7 9.5 25.5t21.5 38.5 t23 37.5t14 21.5q23 -50 34 -95.5t11 -93.5zM326 669q0 -4 -9 -20t-20.5 -33.5t-22 -31.5t-14.5 -14q-2 0 -15.5 9.5t-29.5 21.5q-18 13 -41 31q-4 4 -7 4t-7 -4q-15 -22 -27 -39q-11 -15 -20.5 -27t-12.5 -12t-17.5 9.5t-30.5 21.5t-29 23t-13 14q0 4 9.5 19.5t21.5 33 t22.5 31.5t12.5 14q5 0 18 -10t27 -21q17 -13 37 -30q6 -6 9 -6t7 8q15 21 28 38q11 14 21 26.5t12 12.5q3 0 18 -10t31 -22.5t29 -23.5t13 -13z" />
<glyph unicode="&#x62a;" horiz-adv-x="367" arabic-form="medial" d="M436 63q0 -12 -1.5 -23t-7 -20t-16.5 -14.5t-30 -5.5h-39q-28 0 -47 9t-35 26q-11 12 -24 32.5t-21 38.5q-18 -20 -36 -39t-40 -34t-49.5 -24t-64.5 -9h-37q-19 0 -30 5.5t-16.5 14.5t-7 20t-1.5 23t1.5 23t7 19.5t16.5 14t30 5.5h37q45 0 78 9.5t56.5 24.5t39 31.5 t25.5 31.5t16.5 24.5t11.5 9.5q6 0 8 -17t10 -38q4 -12 10.5 -25.5t15 -25t20 -18.5t26.5 -7h39q19 0 30 -5.5t16.5 -14t7 -19.5t1.5 -23zM342 471q0 -4 -9 -20t-20.5 -33.5t-22 -31.5t-14.5 -14q-2 0 -15.5 9.5t-29.5 21.5q-18 13 -41 31q-4 4 -7 4t-7 -4q-15 -22 -27 -39 q-11 -15 -20.5 -27t-12.5 -12t-17.5 9.5t-30.5 21.5t-29 23t-13 14q0 4 9.5 19.5t21.5 33t22.5 31.5t12.5 14q5 0 18 -10t27 -21q17 -13 37 -30q6 -6 9 -6t7 8q15 21 28 38q11 14 21 26.5t12 12.5q3 0 18 -10t31 -22.5t29 -23.5t13 -13z" />
<glyph unicode="&#x62a;" horiz-adv-x="1378" arabic-form="final" d="M1446 63q0 -12 -1 -23t-6 -20t-14.5 -14.5t-26.5 -5.5h-40q-32 0 -57 2.5t-45.5 12t-37.5 27.5t-32 50q-33 -38 -99 -69.5t-156 -55t-200.5 -36.5t-232.5 -13q-88 0 -164 16t-132.5 49.5t-89 84.5t-32.5 122q0 39 10.5 78.5t24 71.5t26.5 52t17 20q3 0 8.5 -3t5.5 -10 q0 -4 -6 -16.5t-13.5 -29.5t-13.5 -38t-6 -41q0 -51 30.5 -92t87 -69t135.5 -43t177 -15q84 0 171 6.5t166 20t143.5 35t103.5 51.5q20 15 27 30t16 15q2 0 4.5 -7.5t7 -18t11.5 -21.5t18 -19q10 -8 24.5 -12t31.5 -6.5t35 -3t36 -0.5h40q17 0 26.5 -5.5t14.5 -14t6 -19.5 t1 -23zM807 465q0 -4 -9 -20t-20.5 -33.5t-22 -31.5t-14.5 -14q-2 0 -15.5 9.5t-29.5 21.5q-18 13 -41 31q-4 4 -7 4t-7 -4q-15 -22 -27 -39q-11 -15 -20.5 -27t-12.5 -12t-17.5 9.5t-30.5 21.5t-29 23t-13 14q0 4 9.5 19.5t21.5 33t22.5 31.5t12.5 14q5 0 18 -10t27 -21 q17 -13 37 -30q6 -6 9 -6t7 8q15 21 28 38q11 14 21 26.5t12 12.5q3 0 18 -10t31 -22.5t29 -23.5t13 -13z" />
<glyph unicode="&#x62b;" horiz-adv-x="360" arabic-form="initial" d="M248 264q0 -76 -17.5 -127t-47.5 -81.5t-70.5 -43t-87.5 -12.5h-37q-19 0 -30 5.5t-16.5 14.5t-7 20t-1.5 23t1.5 23t7 19.5t16.5 14t30 5.5h37q43 0 76.5 7t56.5 18q21 11 32 23.5t11 19.5q0 6 -10.5 26.5t-22.5 43.5t-22.5 42.5t-10.5 24.5q0 7 9.5 25.5t21.5 38.5 t23 37.5t14 21.5q23 -50 34 -95.5t11 -93.5zM224 845q0 -4 -9 -20t-20 -33.5t-22 -31.5t-15 -14q-2 0 -16.5 9.5t-31 21.5t-29.5 23.5t-13 15.5t9.5 19.5t21.5 32.5t22.5 30.5t12.5 13.5q4 0 19 -9.5t30.5 -21.5t28 -23t12.5 -13zM326 671q0 -4 -9 -20t-20 -33.5 t-21.5 -31.5t-14.5 -14q-2 0 -15.5 9.5t-28.5 21.5q-18 13 -40 31q-4 4 -8 4q-3 0 -7 -6q-16 -22 -28 -39q-11 -15 -20.5 -27t-12.5 -12t-17.5 9.5t-30.5 22t-29 24t-13 14.5t9.5 18.5t21 32.5t22 31t12.5 14q5 0 18.5 -9.5t27.5 -20.5q17 -13 36 -30q7 -5 10 -5t9 7 q14 21 26 38q11 14 20.5 26t12.5 12t17.5 -9.5t30.5 -21.5t29 -23t13 -13z" />
<glyph unicode="&#x62b;" horiz-adv-x="367" arabic-form="medial" d="M436 63q0 -12 -1.5 -23t-7 -20t-16.5 -14.5t-30 -5.5h-39q-28 0 -47 9t-35 26q-11 12 -24 32.5t-21 38.5q-18 -20 -36 -39t-40 -34t-49.5 -24t-64.5 -9h-37q-19 0 -30 5.5t-16.5 14.5t-7 20t-1.5 23t1.5 23t7 19.5t16.5 14t30 5.5h37q45 0 78 9.5t56.5 24.5t39 31.5 t25.5 31.5t16.5 24.5t11.5 9.5q6 0 8 -17t10 -38q4 -12 10.5 -25.5t15 -25t20 -18.5t26.5 -7h39q19 0 30 -5.5t16.5 -14t7 -19.5t1.5 -23zM240 647q0 -4 -9 -20t-20 -33.5t-22 -31.5t-15 -14q-2 0 -16.5 9.5t-31 21.5t-29.5 23.5t-13 15.5t9.5 19.5t21.5 32.5t22.5 30.5 t12.5 13.5q4 0 19 -9.5t30.5 -21.5t28 -23t12.5 -13zM342 473q0 -4 -9 -20t-20 -33.5t-21.5 -31.5t-14.5 -14q-2 0 -15.5 9.5t-28.5 21.5q-18 13 -40 31q-4 4 -8 4q-3 0 -7 -6q-16 -22 -28 -39q-11 -15 -20.5 -27t-12.5 -12t-17.5 9.5t-30.5 22t-29 24t-13 14.5t9.5 18.5 t21 32.5t22 31t12.5 14q5 0 18.5 -9.5t27.5 -20.5q17 -13 36 -30q7 -5 10 -5t9 7q14 21 26 38q11 14 20.5 26t12.5 12t17.5 -9.5t30.5 -21.5t29 -23t13 -13z" />
<glyph unicode="&#x62b;" horiz-adv-x="1378" arabic-form="final" d="M1446 63q0 -12 -1 -23t-6 -20t-14.5 -14.5t-26.5 -5.5h-40q-32 0 -57 2.5t-45.5 12t-37.5 27.5t-32 50q-33 -38 -99 -69.5t-156 -55t-200.5 -36.5t-232.5 -13q-88 0 -164 16t-132.5 49.5t-89 84.5t-32.5 122q0 39 10.5 78.5t24 71.5t26.5 52t17 20q3 0 8.5 -3t5.5 -10 q0 -4 -6 -16.5t-13.5 -29.5t-13.5 -38t-6 -41q0 -51 30.5 -92t87 -69t135.5 -43t177 -15q84 0 171 6.5t166 20t143.5 35t103.5 51.5q20 15 27 30t16 15q2 0 4.5 -7.5t7 -18t11.5 -21.5t18 -19q10 -8 24.5 -12t31.5 -6.5t35 -3t36 -0.5h40q17 0 26.5 -5.5t14.5 -14t6 -19.5 t1 -23zM705 641q0 -4 -9 -20t-20 -33.5t-22 -31.5t-15 -14q-2 0 -16.5 9.5t-31 21.5t-29.5 23.5t-13 15.5t9.5 19.5t21.5 32.5t22.5 30.5t12.5 13.5q4 0 19 -9.5t30.5 -21.5t28 -23t12.5 -13zM807 467q0 -4 -9 -20t-20 -33.5t-21.5 -31.5t-14.5 -14q-2 0 -15.5 9.5 t-28.5 21.5q-18 13 -40 31q-4 4 -8 4q-3 0 -7 -6q-16 -22 -28 -39q-11 -15 -20.5 -27t-12.5 -12t-17.5 9.5t-30.5 22t-29 24t-13 14.5t9.5 18.5t21 32.5t22 31t12.5 14q5 0 18.5 -9.5t27.5 -20.5q17 -13 36 -30q7 -5 10 -5t9 7q14 21 26 38q11 14 20.5 26t12.5 12t17.5 -9.5 t30.5 -21.5t29 -23t13 -13z" />
<glyph unicode="&#x62c;" horiz-adv-x="977" arabic-form="initial" d="M895 301q0 -3 -3.5 -18.5t-9 -33.5t-10.5 -32t-8 -14q-31 0 -67.5 0.5t-71.5 1.5t-64.5 1.5t-46.5 0.5q-38 0 -73.5 -7t-67.5 -17.5t-60.5 -24t-52.5 -25.5q-41 -21 -82 -44.5t-82.5 -43t-84 -32.5t-86.5 -13h-37q-19 0 -30 5.5t-16.5 14.5t-7 20t-1.5 23t1.5 23t7 19.5 t16.5 14t30 5.5h37q38 0 72 3t66 9.5t63.5 16.5t66.5 24q38 16 82 32.5t86 29.5q-34 10 -66.5 24.5t-65 27t-65 21.5t-65.5 9q-22 0 -43 -4t-38.5 -8.5t-29 -8.5t-14.5 -4q-6 0 -6 8q0 11 7 27.5t18.5 34t26.5 34.5t32 29q22 16 44.5 20.5t57.5 4.5q27 0 59.5 -11t67 -26 t68.5 -31.5t63 -28.5q53 -21 122.5 -33.5t147.5 -16.5q48 -2 80.5 -3t32.5 -4zM520 -167q0 -4 -9 -19.5t-20.5 -33t-23 -31.5t-15.5 -14q-2 0 -16.5 9t-31 20.5t-29.5 22.5t-13 15t9.5 19.5t21 33t22.5 31.5t14 14q4 0 19 -9.5t31 -21.5t28.5 -23t12.5 -13z" />
<glyph unicode="&#x62c;" horiz-adv-x="1044" arabic-form="medial" d="M1112 63q0 -12 -1.5 -23t-7 -20t-16.5 -14.5t-30 -5.5h-37q-125 0 -199 8.5t-109 32.5q-22 15 -31 36.5t-9 51.5q0 20 4.5 39t9.5 41h-18q-59 0 -108 -8.5t-91.5 -23t-80 -32.5t-71.5 -37q-36 -20 -69.5 -39.5t-69 -34.5t-73 -24.5t-80.5 -9.5h-37q-19 0 -30 5.5 t-16.5 14.5t-7 20t-1.5 23t1.5 23t7 19.5t16.5 14t30 5.5h37q49 0 90.5 5.5t77.5 15t67.5 21t60.5 23.5q36 15 71 28.5t73 21.5q-21 8 -53 22.5t-70 28t-80 23.5t-82 10q-21 0 -39 -3.5t-31.5 -8t-22 -8t-9.5 -3.5q-8 0 -8 6q0 22 9 41.5t23 36.5t31.5 30.5t34.5 22.5 q20 11 44 14t38 3q31 0 72.5 -15t85.5 -34.5t88 -38.5t79 -27q40 -9 74 -14.5t71 -8.5t80.5 -3.5t102.5 -0.5q3 0 4.5 -3t1.5 -5t-3 -13.5t-7 -26t-8 -28.5t-6 -20q-2 -7 -39 -8.5t-107 -1.5q-1 -2 -1 -6v-7q0 -14 11 -25t28 -19q22 -9 53 -14.5t64 -7.5t66 -2.5t60 -0.5h37 q19 0 30 -5.5t16.5 -14t7 -19.5t1.5 -23zM601 -167q0 -4 -9 -19.5t-20.5 -33t-23 -31.5t-15.5 -14q-2 0 -16.5 9t-31 20.5t-29.5 22.5t-13 15t9.5 19.5t21 33t22.5 31.5t14 14q4 0 19 -9.5t31 -21.5t28.5 -23t12.5 -13z" />
<glyph unicode="&#x62c;" horiz-adv-x="981" arabic-form="final" d="M1048 63q0 -12 -1.5 -23t-7 -20t-16.5 -14.5t-30 -5.5h-100q-75 0 -133 2.5t-97 15.5q-40 13 -56.5 38t-16.5 48q0 12 1.5 27.5t4 32t5.5 32.5t5 27q-66 -13 -129.5 -37t-119 -57.5t-102 -74.5t-80.5 -88t-52.5 -98.5t-18.5 -105.5q0 -82 34 -151t106 -118.5t184.5 -77 t269.5 -27.5q49 0 100.5 3.5t95 8t73 8.5t34.5 4t6 -4.5t1 -7.5t-19 -11t-48.5 -19.5t-65.5 -25t-70 -25.5t-61.5 -21t-39.5 -13q-18 -5 -36.5 -8t-35 -4.5t-30.5 -1.5h-23q-60 0 -122.5 7t-122 24t-112 46.5t-92 74.5t-62.5 107.5t-23 145.5q0 82 25 163t72 154.5 t114.5 136t153.5 108.5q-44 8 -92.5 13t-82.5 5q-15 0 -33 -2t-36 -5t-33.5 -5t-26.5 -2q-6 0 -6 8q0 5 2.5 17.5t5.5 26.5t5.5 26t3.5 16q2 7 21.5 16.5t46 17.5t55.5 13.5t51 5.5q40 0 82 -5.5t86.5 -12.5t90 -12.5t91.5 -6.5q15 0 37 0.5t46 1.5t48 1.5t43 0.5t31 -1 t12 -3q0 -3 -8 -18.5t-18 -32.5t-18 -31t-9 -14q-34 -6 -74.5 -12t-75.5 -13q1 -32 14 -52.5t47 -32.5t92 -16.5t148 -4.5h37q19 0 30 -5.5t16.5 -14t7 -19.5t1.5 -23zM605 -215q0 -4 -9 -19.5t-20.5 -33t-23 -31.5t-15.5 -14q-2 0 -16.5 9t-31 20.5t-29.5 22.5t-13 15 t9.5 19.5t21 33t22.5 31.5t14 14q4 0 19 -9.5t31 -21.5t28.5 -23t12.5 -13z" />
<glyph unicode="&#x62d;" horiz-adv-x="977" arabic-form="initial" d="M895 301q0 -3 -3.5 -18.5t-9 -33.5t-10.5 -32t-8 -14q-31 0 -67.5 0.5t-71.5 1.5t-64.5 1.5t-46.5 0.5q-38 0 -73.5 -7t-67.5 -17.5t-60.5 -24t-52.5 -25.5q-41 -21 -82 -44.5t-82.5 -43t-84 -32.5t-86.5 -13h-37q-19 0 -30 5.5t-16.5 14.5t-7 20t-1.5 23t1.5 23t7 19.5 t16.5 14t30 5.5h37q38 0 72 3t66 9.5t63.5 16.5t66.5 24q38 16 82 32.5t86 29.5q-34 10 -66.5 24.5t-65 27t-65 21.5t-65.5 9q-22 0 -43 -4t-38.5 -8.5t-29 -8.5t-14.5 -4q-6 0 -6 8q0 11 7 27.5t18.5 34t26.5 34.5t32 29q22 16 44.5 20.5t57.5 4.5q27 0 59.5 -11t67 -26 t68.5 -31.5t63 -28.5q53 -21 122.5 -33.5t147.5 -16.5q48 -2 80.5 -3t32.5 -4z" />
<glyph unicode="&#x62d;" horiz-adv-x="1044" arabic-form="medial" d="M1112 63q0 -12 -1.5 -23t-7 -20t-16.5 -14.5t-30 -5.5h-37q-125 0 -199 8.5t-109 32.5q-22 15 -31 36.5t-9 51.5q0 20 4.5 39t9.5 41h-18q-59 0 -108 -8.5t-91.5 -23t-80 -32.5t-71.5 -37q-36 -20 -69.5 -39.5t-69 -34.5t-73 -24.5t-80.5 -9.5h-37q-19 0 -30 5.5 t-16.5 14.5t-7 20t-1.5 23t1.5 23t7 19.5t16.5 14t30 5.5h37q49 0 90.5 5.5t77.5 15t67.5 21t60.5 23.5q36 15 71 28.5t73 21.5q-21 8 -53 22.5t-70 28t-80 23.5t-82 10q-21 0 -39 -3.5t-31.5 -8t-22 -8t-9.5 -3.5q-8 0 -8 6q0 22 9 41.5t23 36.5t31.5 30.5t34.5 22.5 q20 11 44 14t38 3q31 0 72.5 -15t85.5 -34.5t88 -38.5t79 -27q40 -9 74 -14.5t71 -8.5t80.5 -3.5t102.5 -0.5q3 0 4.5 -3t1.5 -5t-3 -13.5t-7 -26t-8 -28.5t-6 -20q-2 -7 -39 -8.5t-107 -1.5q-1 -2 -1 -6v-7q0 -14 11 -25t28 -19q22 -9 53 -14.5t64 -7.5t66 -2.5t60 -0.5h37 q19 0 30 -5.5t16.5 -14t7 -19.5t1.5 -23z" />
<glyph unicode="&#x62d;" horiz-adv-x="981" arabic-form="final" d="M1048 63q0 -12 -1.5 -23t-7 -20t-16.5 -14.5t-30 -5.5h-100q-75 0 -133 2.5t-97 15.5q-40 13 -56.5 38t-16.5 48q0 12 1.5 27.5t4 32t5.5 32.5t5 27q-66 -13 -129.5 -37t-119 -57.5t-102 -74.5t-80.5 -88t-52.5 -98.5t-18.5 -105.5q0 -82 34 -151t106 -118.5t184.5 -77 t269.5 -27.5q49 0 100.5 3.5t95 8t73 8.5t34.5 4t6 -4.5t1 -7.5t-19 -11t-48.5 -19.5t-65.5 -25t-70 -25.5t-61.5 -21t-39.5 -13q-18 -5 -36.5 -8t-35 -4.5t-30.5 -1.5h-23q-60 0 -122.5 7t-122 24t-112 46.5t-92 74.5t-62.5 107.5t-23 145.5q0 82 25 163t72 154.5 t114.5 136t153.5 108.5q-44 8 -92.5 13t-82.5 5q-15 0 -33 -2t-36 -5t-33.5 -5t-26.5 -2q-6 0 -6 8q0 5 2.5 17.5t5.5 26.5t5.5 26t3.5 16q2 7 21.5 16.5t46 17.5t55.5 13.5t51 5.5q40 0 82 -5.5t86.5 -12.5t90 -12.5t91.5 -6.5q15 0 37 0.5t46 1.5t48 1.5t43 0.5t31 -1 t12 -3q0 -3 -8 -18.5t-18 -32.5t-18 -31t-9 -14q-34 -6 -74.5 -12t-75.5 -13q1 -32 14 -52.5t47 -32.5t92 -16.5t148 -4.5h37q19 0 30 -5.5t16.5 -14t7 -19.5t1.5 -23z" />
<glyph unicode="&#x62e;" horiz-adv-x="977" arabic-form="initial" d="M895 301q0 -3 -3.5 -18.5t-9 -33.5t-10.5 -32t-8 -14q-31 0 -67.5 0.5t-71.5 1.5t-64.5 1.5t-46.5 0.5q-38 0 -73.5 -7t-67.5 -17.5t-60.5 -24t-52.5 -25.5q-41 -21 -82 -44.5t-82.5 -43t-84 -32.5t-86.5 -13h-37q-19 0 -30 5.5t-16.5 14.5t-7 20t-1.5 23t1.5 23t7 19.5 t16.5 14t30 5.5h37q38 0 72 3t66 9.5t63.5 16.5t66.5 24q38 16 82 32.5t86 29.5q-34 10 -66.5 24.5t-65 27t-65 21.5t-65.5 9q-22 0 -43 -4t-38.5 -8.5t-29 -8.5t-14.5 -4q-6 0 -6 8q0 11 7 27.5t18.5 34t26.5 34.5t32 29q22 16 44.5 20.5t57.5 4.5q27 0 59.5 -11t67 -26 t68.5 -31.5t63 -28.5q53 -21 122.5 -33.5t147.5 -16.5q48 -2 80.5 -3t32.5 -4zM520 653q0 -4 -9 -19.5t-20.5 -33t-23 -31.5t-15.5 -14q-2 0 -16.5 9t-31 20.5t-29.5 22.5t-13 15t9.5 19.5t21 33t22.5 31.5t14 14q4 0 19 -9.5t31 -21.5t28.5 -23t12.5 -13z" />
<glyph unicode="&#x62e;" horiz-adv-x="1044" arabic-form="medial" d="M1112 63q0 -12 -1.5 -23t-7 -20t-16.5 -14.5t-30 -5.5h-37q-125 0 -199 8.5t-109 32.5q-22 15 -31 36.5t-9 51.5q0 20 4.5 39t9.5 41h-18q-59 0 -108 -8.5t-91.5 -23t-80 -32.5t-71.5 -37q-36 -20 -69.5 -39.5t-69 -34.5t-73 -24.5t-80.5 -9.5h-37q-19 0 -30 5.5 t-16.5 14.5t-7 20t-1.5 23t1.5 23t7 19.5t16.5 14t30 5.5h37q49 0 90.5 5.5t77.5 15t67.5 21t60.5 23.5q36 15 71 28.5t73 21.5q-21 8 -53 22.5t-70 28t-80 23.5t-82 10q-21 0 -39 -3.5t-31.5 -8t-22 -8t-9.5 -3.5q-8 0 -8 6q0 22 9 41.5t23 36.5t31.5 30.5t34.5 22.5 q20 11 44 14t38 3q31 0 72.5 -15t85.5 -34.5t88 -38.5t79 -27q40 -9 74 -14.5t71 -8.5t80.5 -3.5t102.5 -0.5q3 0 4.5 -3t1.5 -5t-3 -13.5t-7 -26t-8 -28.5t-6 -20q-2 -7 -39 -8.5t-107 -1.5q-1 -2 -1 -6v-7q0 -14 11 -25t28 -19q22 -9 53 -14.5t64 -7.5t66 -2.5t60 -0.5h37 q19 0 30 -5.5t16.5 -14t7 -19.5t1.5 -23zM601 653q0 -4 -9 -19.5t-20.5 -33t-23 -31.5t-15.5 -14q-2 0 -16.5 9t-31 20.5t-29.5 22.5t-13 15t9.5 19.5t21 33t22.5 31.5t14 14q4 0 19 -9.5t31 -21.5t28.5 -23t12.5 -13z" />
<glyph unicode="&#x62e;" horiz-adv-x="981" arabic-form="final" d="M1048 63q0 -12 -1.5 -23t-7 -20t-16.5 -14.5t-30 -5.5h-100q-75 0 -133 2.5t-97 15.5q-40 13 -56.5 38t-16.5 48q0 12 1.5 27.5t4 32t5.5 32.5t5 27q-66 -13 -129.5 -37t-119 -57.5t-102 -74.5t-80.5 -88t-52.5 -98.5t-18.5 -105.5q0 -82 34 -151t106 -118.5t184.5 -77 t269.5 -27.5q49 0 100.5 3.5t95 8t73 8.5t34.5 4t6 -4.5t1 -7.5t-19 -11t-48.5 -19.5t-65.5 -25t-70 -25.5t-61.5 -21t-39.5 -13q-18 -5 -36.5 -8t-35 -4.5t-30.5 -1.5h-23q-60 0 -122.5 7t-122 24t-112 46.5t-92 74.5t-62.5 107.5t-23 145.5q0 82 25 163t72 154.5 t114.5 136t153.5 108.5q-44 8 -92.5 13t-82.5 5q-15 0 -33 -2t-36 -5t-33.5 -5t-26.5 -2q-6 0 -6 8q0 5 2.5 17.5t5.5 26.5t5.5 26t3.5 16q2 7 21.5 16.5t46 17.5t55.5 13.5t51 5.5q40 0 82 -5.5t86.5 -12.5t90 -12.5t91.5 -6.5q15 0 37 0.5t46 1.5t48 1.5t43 0.5t31 -1 t12 -3q0 -3 -8 -18.5t-18 -32.5t-18 -31t-9 -14q-34 -6 -74.5 -12t-75.5 -13q1 -32 14 -52.5t47 -32.5t92 -16.5t148 -4.5h37q19 0 30 -5.5t16.5 -14t7 -19.5t1.5 -23zM605 587q0 -4 -9 -19.5t-20.5 -33t-23 -31.5t-15.5 -14q-2 0 -16.5 9t-31 20.5t-29.5 22.5t-13 15 t9.5 19.5t21 33t22.5 31.5t14 14q4 0 19 -9.5t31 -21.5t28.5 -23t12.5 -13z" />
<glyph unicode="&#x62f;" horiz-adv-x="762" arabic-form="final" d="M829 63q0 -12 -1.5 -23t-7 -20t-16.5 -14.5t-30 -5.5h-37q-51 0 -83 12.5t-53.5 38.5t-38 65.5t-36.5 94.5q-26 -45 -49 -78t-55 -55q-46 -32 -99.5 -46t-109.5 -14q-26 0 -53 4.5t-49 15.5t-36 29t-14 44q0 7 6 28t14 43.5t16 40t12 17.5q3 0 5.5 -4.5t4 -10.5l3 -12 t3.5 -10q3 -9 10.5 -18.5t22.5 -18t39 -14t59 -5.5q46 0 91 4t80 20.5t57 48.5t22 89q-5 47 -14 92.5t-19 87.5t-17 79t-7 67q0 9 7.5 28.5t17 40t18 35.5t10.5 15q5 0 6.5 -5t3.5 -22q7 -49 16 -104t19 -110.5t20.5 -108t21.5 -97t21.5 -78t20.5 -49.5q17 -28 46 -41.5 t60 -13.5h37q19 0 30 -5.5t16.5 -14t7 -19.5t1.5 -23z" />
<glyph unicode="&#x630;" horiz-adv-x="762" arabic-form="final" d="M829 63q0 -12 -1.5 -23t-7 -20t-16.5 -14.5t-30 -5.5h-37q-51 0 -83 12.5t-53.5 38.5t-38 65.5t-36.5 94.5q-26 -45 -49 -78t-55 -55q-46 -32 -99.5 -46t-109.5 -14q-26 0 -53 4.5t-49 15.5t-36 29t-14 44q0 7 6 28t14 43.5t16 40t12 17.5q3 0 5.5 -4.5t4 -10.5l3 -12 t3.5 -10q3 -9 10.5 -18.5t22.5 -18t39 -14t59 -5.5q46 0 91 4t80 20.5t57 48.5t22 89q-5 47 -14 92.5t-19 87.5t-17 79t-7 67q0 9 7.5 28.5t17 40t18 35.5t10.5 15q5 0 6.5 -5t3.5 -22q7 -49 16 -104t19 -110.5t20.5 -108t21.5 -97t21.5 -78t20.5 -49.5q17 -28 46 -41.5 t60 -13.5h37q19 0 30 -5.5t16.5 -14t7 -19.5t1.5 -23zM547 962q0 -4 -9 -19.5t-20.5 -33t-23 -31.5t-15.5 -14q-2 0 -16.5 9t-31 20.5t-29.5 22.5t-13 15t9.5 19.5t21 33t22.5 31.5t14 14q4 0 19 -9.5t31 -21.5t28.5 -23t12.5 -13z" />
<glyph unicode="&#x631;" horiz-adv-x="487" arabic-form="final" d="M555 63q0 -12 -1.5 -23t-7 -20t-16.5 -14.5t-30 -5.5h-37q-8 0 -15 1t-16 1q-5 -42 -12.5 -83.5t-22 -82.5t-37 -81.5t-56.5 -82.5q-38 -46 -87.5 -75t-118.5 -29q-28 0 -62.5 5.5t-64.5 13.5t-50.5 15.5t-20.5 12.5q0 6 5.5 10t10.5 4q1 0 7 -1t14 -2t16.5 -2t15.5 -1 q29 0 65 8t76 25.5t81.5 45.5t81.5 68q33 33 54 65t33.5 58.5t17.5 45t5 24.5t-11.5 23.5t-25.5 36.5t-25.5 35.5t-11.5 21.5q0 2 6.5 17.5t14.5 33.5t16 35t10 22h6q20 -23 44.5 -43t56.5 -20h37q19 0 30 -5.5t16.5 -14t7 -19.5t1.5 -23z" />
<glyph unicode="&#x632;" horiz-adv-x="487" arabic-form="final" d="M555 63q0 -12 -1.5 -23t-7 -20t-16.5 -14.5t-30 -5.5h-37q-8 0 -15 1t-16 1q-5 -42 -12.5 -83.5t-22 -82.5t-37 -81.5t-56.5 -82.5q-38 -46 -87.5 -75t-118.5 -29q-28 0 -62.5 5.5t-64.5 13.5t-50.5 15.5t-20.5 12.5q0 6 5.5 10t10.5 4q1 0 7 -1t14 -2t16.5 -2t15.5 -1 q29 0 65 8t76 25.5t81.5 45.5t81.5 68q33 33 54 65t33.5 58.5t17.5 45t5 24.5t-11.5 23.5t-25.5 36.5t-25.5 35.5t-11.5 21.5q0 2 6.5 17.5t14.5 33.5t16 35t10 22h6q20 -23 44.5 -43t56.5 -20h37q19 0 30 -5.5t16.5 -14t7 -19.5t1.5 -23zM428 390q0 -4 -9 -19.5t-20.5 -33 t-23 -31.5t-15.5 -14q-2 0 -16.5 9t-31 20.5t-29.5 22.5t-13 15t9.5 19.5t21 33t22.5 31.5t14 14q4 0 19 -9.5t31 -21.5t28.5 -23t12.5 -13z" />
<glyph unicode="&#x633;" horiz-adv-x="918" arabic-form="initial" d="M815 295q0 -30 -8 -68.5t-24 -73t-40.5 -58t-58.5 -23.5q-28 0 -49.5 9.5t-38.5 23t-29 27l-20 22.5q-15 -26 -34.5 -52.5t-43 -49t-51.5 -36.5t-60 -14q-48 0 -85.5 23.5t-63.5 78.5q-38 -57 -85 -80.5t-99 -23.5h-37q-19 0 -30 5.5t-16.5 14.5t-7 20t-1.5 23t1.5 23 t7 19.5t16.5 14t30 5.5h37q44 0 76 10t55 24.5t38 32t25.5 32t17.5 24.5t13 10q7 0 9 -9.5t4.5 -24t7 -31t16 -31t32 -24t54.5 -9.5q37 0 70.5 14.5t59 39t42 58t20.5 72.5q1 8 5.5 14.5t9.5 6.5q2 0 6 -6t6 -19q4 -32 21.5 -52.5t39.5 -32.5t44 -16.5t36 -4.5q2 0 7.5 2.5 t11 6t10 7.5t4.5 8q0 7 -7 15t-15.5 15t-15.5 12t-7 7q0 3 5 22t11.5 40.5t13.5 39t11 17.5q8 0 17.5 -11.5t17.5 -27.5t13 -33t5 -28z" />
<glyph unicode="&#x633;" horiz-adv-x="1018" arabic-form="medial" d="M1085 63q0 -12 -1.5 -23t-7 -20t-16.5 -14.5t-30 -5.5h-37q-53 0 -94 44.5t-70 113.5q-14 -29 -28.5 -53t-33 -42t-41 -28t-50.5 -10q-27 0 -45.5 7t-31.5 19t-21.5 28t-14.5 34q-38 -53 -84.5 -82t-120.5 -29q-48 0 -85.5 23.5t-63.5 78.5q-38 -57 -85 -80.5t-99 -23.5 h-37q-19 0 -30 5.5t-16.5 14.5t-7 20t-1.5 23t1.5 23t7 19.5t16.5 14t30 5.5h37q44 0 76 10t55 24.5t38 32t25.5 32t17.5 24.5t13 10q7 0 9 -9.5t4.5 -24t7 -31t16 -31t32 -24t54.5 -9.5q45 0 79 11t58.5 28t41.5 36t28.5 36t18 28t11.5 11q3 0 9 -6t6 -21q0 -14 3 -29 t12 -27t24.5 -20t40.5 -8q36 0 58.5 18t36.5 39.5t21 39.5t13 18t9 -5.5t7 -17.5q5 -17 16 -40t28.5 -44t42 -36t56.5 -15h37q19 0 30 -5.5t16.5 -14t7 -19.5t1.5 -23z" />
<glyph unicode="&#x633;" horiz-adv-x="1407" arabic-form="final" d="M1474 63q0 -12 -1.5 -23t-7 -20t-16.5 -14.5t-30 -5.5h-37q-51 0 -88.5 41t-72.5 119q-14 -29 -28.5 -53t-32.5 -42t-40.5 -28t-50.5 -10q-34 0 -54 10t-32 24t-18 29t-11 25q-19 -26 -34.5 -45t-34 -31t-43 -17.5t-62.5 -5.5q0 -28 -1 -49t-3 -40t-5.5 -39t-8.5 -46 q-21 -105 -73 -170.5t-119.5 -101.5t-143 -49t-145.5 -13q-59 0 -105.5 20t-79 54t-50 78.5t-17.5 93.5q0 48 16 97t36 88.5t38.5 64.5t23.5 25t9 -3.5t4 -7.5q0 -6 -11 -24t-24 -45.5t-24 -63t-11 -75.5q0 -50 25 -83.5t61.5 -53.5t78 -29t73.5 -9q43 0 88 4.5t87 13.5 t78 21.5t60 28.5q53 35 71.5 84t18.5 123q0 47 -8.5 80t-18 55.5t-18 35.5t-8.5 21q0 6 7 23t16 36t17.5 33.5t12.5 14.5q12 -17 21.5 -36.5t15.5 -41.5q45 0 79 11t58.5 28t41.5 36t28.5 36t18 28t11.5 11q4 0 9.5 -6t5.5 -21q0 -14 3 -29t12 -27t24.5 -20t40.5 -8 q36 0 58.5 18t36.5 39.5t21 39.5t13 18t8.5 -5t7.5 -18q5 -14 16 -37t28 -45.5t41 -38.5t56 -16h37q19 0 30 -5.5t16.5 -14t7 -19.5t1.5 -23z" />
<glyph unicode="&#x634;" horiz-adv-x="918" arabic-form="initial" d="M815 295q0 -30 -8 -68.5t-24 -73t-40.5 -58t-58.5 -23.5q-28 0 -49.5 9.5t-38.5 23t-29 27l-20 22.5q-15 -26 -34.5 -52.5t-43 -49t-51.5 -36.5t-60 -14q-48 0 -85.5 23.5t-63.5 78.5q-38 -57 -85 -80.5t-99 -23.5h-37q-19 0 -30 5.5t-16.5 14.5t-7 20t-1.5 23t1.5 23 t7 19.5t16.5 14t30 5.5h37q44 0 76 10t55 24.5t38 32t25.5 32t17.5 24.5t13 10q7 0 9 -9.5t4.5 -24t7 -31t16 -31t32 -24t54.5 -9.5q37 0 70.5 14.5t59 39t42 58t20.5 72.5q1 8 5.5 14.5t9.5 6.5q2 0 6 -6t6 -19q4 -32 21.5 -52.5t39.5 -32.5t44 -16.5t36 -4.5q2 0 7.5 2.5 t11 6t10 7.5t4.5 8q0 7 -7 15t-15.5 15t-15.5 12t-7 7q0 3 5 22t11.5 40.5t13.5 39t11 17.5q8 0 17.5 -11.5t17.5 -27.5t13 -33t5 -28zM556 770q0 -4 -9 -20t-20 -33.5t-22 -31.5t-15 -14q-2 0 -16.5 9.5t-31 21.5t-29.5 23.5t-13 15.5t9.5 19.5t21.5 32.5t22.5 30.5 t12.5 13.5q4 0 19 -9.5t30.5 -21.5t28 -23t12.5 -13zM658 596q0 -4 -9 -20t-20 -33.5t-21.5 -31.5t-14.5 -14q-2 0 -15.5 9.5t-28.5 21.5q-18 13 -40 31q-4 4 -8 4q-3 0 -7 -6q-16 -22 -28 -39q-11 -15 -20.5 -27t-12.5 -12t-17.5 9.5t-30.5 22t-29 24t-13 14.5t9.5 18.5 t21 32.5t22 31t12.5 14q5 0 18.5 -9.5t27.5 -20.5q17 -13 36 -30q7 -5 10 -5t9 7q14 21 26 38q11 14 20.5 26t12.5 12t17.5 -9.5t30.5 -21.5t29 -23t13 -13z" />
<glyph unicode="&#x634;" horiz-adv-x="1018" arabic-form="medial" d="M1085 63q0 -12 -1.5 -23t-7 -20t-16.5 -14.5t-30 -5.5h-37q-53 0 -94 44.5t-70 113.5q-14 -29 -28.5 -53t-33 -42t-41 -28t-50.5 -10q-27 0 -45.5 7t-31.5 19t-21.5 28t-14.5 34q-38 -53 -84.5 -82t-120.5 -29q-48 0 -85.5 23.5t-63.5 78.5q-38 -57 -85 -80.5t-99 -23.5 h-37q-19 0 -30 5.5t-16.5 14.5t-7 20t-1.5 23t1.5 23t7 19.5t16.5 14t30 5.5h37q44 0 76 10t55 24.5t38 32t25.5 32t17.5 24.5t13 10q7 0 9 -9.5t4.5 -24t7 -31t16 -31t32 -24t54.5 -9.5q45 0 79 11t58.5 28t41.5 36t28.5 36t18 28t11.5 11q3 0 9 -6t6 -21q0 -14 3 -29 t12 -27t24.5 -20t40.5 -8q36 0 58.5 18t36.5 39.5t21 39.5t13 18t9 -5.5t7 -17.5q5 -17 16 -40t28.5 -44t42 -36t56.5 -15h37q19 0 30 -5.5t16.5 -14t7 -19.5t1.5 -23zM565 674q0 -4 -9 -20t-20 -33.5t-22 -31.5t-15 -14q-2 0 -16.5 9.5t-31 21.5t-29.5 23.5t-13 15.5 t9.5 19.5t21.5 32.5t22.5 30.5t12.5 13.5q4 0 19 -9.5t30.5 -21.5t28 -23t12.5 -13zM667 500q0 -4 -9 -20t-20 -33.5t-21.5 -31.5t-14.5 -14q-2 0 -15.5 9.5t-28.5 21.5q-18 13 -40 31q-4 4 -8 4q-3 0 -7 -6q-16 -22 -28 -39q-11 -15 -20.5 -27t-12.5 -12t-17.5 9.5 t-30.5 22t-29 24t-13 14.5t9.5 18.5t21 32.5t22 31t12.5 14q5 0 18.5 -9.5t27.5 -20.5q17 -13 36 -30q7 -5 10 -5t9 7q14 21 26 38q11 14 20.5 26t12.5 12t17.5 -9.5t30.5 -21.5t29 -23t13 -13z" />
<glyph unicode="&#x634;" horiz-adv-x="1407" arabic-form="final" d="M1474 63q0 -12 -1.5 -23t-7 -20t-16.5 -14.5t-30 -5.5h-37q-51 0 -88.5 41t-72.5 119q-14 -29 -28.5 -53t-32.5 -42t-40.5 -28t-50.5 -10q-34 0 -54 10t-32 24t-18 29t-11 25q-19 -26 -34.5 -45t-34 -31t-43 -17.5t-62.5 -5.5q0 -28 -1 -49t-3 -40t-5.5 -39t-8.5 -46 q-21 -105 -73 -170.5t-119.5 -101.5t-143 -49t-145.5 -13q-59 0 -105.5 20t-79 54t-50 78.5t-17.5 93.5q0 48 16 97t36 88.5t38.5 64.5t23.5 25t9 -3.5t4 -7.5q0 -6 -11 -24t-24 -45.5t-24 -63t-11 -75.5q0 -50 25 -83.5t61.5 -53.5t78 -29t73.5 -9q43 0 88 4.5t87 13.5 t78 21.5t60 28.5q53 35 71.5 84t18.5 123q0 47 -8.5 80t-18 55.5t-18 35.5t-8.5 21q0 6 7 23t16 36t17.5 33.5t12.5 14.5q12 -17 21.5 -36.5t15.5 -41.5q45 0 79 11t58.5 28t41.5 36t28.5 36t18 28t11.5 11q4 0 9.5 -6t5.5 -21q0 -14 3 -29t12 -27t24.5 -20t40.5 -8 q36 0 58.5 18t36.5 39.5t21 39.5t13 18t8.5 -5t7.5 -18q5 -14 16 -37t28 -45.5t41 -38.5t56 -16h37q19 0 30 -5.5t16.5 -14t7 -19.5t1.5 -23zM1025 674q0 -4 -9 -20t-20 -33.5t-22 -31.5t-15 -14q-2 0 -16.5 9.5t-31 21.5t-29.5 23.5t-13 15.5t9.5 19.5t21.5 32.5t22.5 30.5 t12.5 13.5q4 0 19 -9.5t30.5 -21.5t28 -23t12.5 -13zM1127 500q0 -4 -9 -20t-20 -33.5t-21.5 -31.5t-14.5 -14q-2 0 -15.5 9.5t-28.5 21.5q-18 13 -40 31q-4 4 -8 4q-3 0 -7 -6q-16 -22 -28 -39q-11 -15 -20.5 -27t-12.5 -12t-17.5 9.5t-30.5 22t-29 24t-13 14.5t9.5 18.5 t21 32.5t22 31t12.5 14q5 0 18.5 -9.5t27.5 -20.5q17 -13 36 -30q7 -5 10 -5t9 7q14 21 26 38q11 14 20.5 26t12.5 12t17.5 -9.5t30.5 -21.5t29 -23t13 -13z" />
<glyph unicode="&#x635;" horiz-adv-x="1210" arabic-form="initial" d="M1108 336q0 -62 -34.5 -110.5t-90 -84.5t-125 -61.5t-140.5 -41.5t-136 -23.5t-111 -8.5q-5 -9 -11.5 -27t-13 -38.5t-12 -40.5t-6.5 -33q-3 0 -7.5 4.5t-9 11.5t-7.5 14.5t-3 12.5q0 4 3 15.5t7.5 25.5t9.5 28.5t9 26.5q-38 0 -71.5 2t-61.5 12t-50 31.5t-38 61.5 q-14 -22 -32 -42.5t-40.5 -36t-50 -25t-61.5 -9.5h-37q-19 0 -30 5.5t-16.5 14.5t-7 20t-1.5 23t1.5 23t7 19.5t16.5 14t30 5.5h37q64 0 105 21t66 46.5t37 46.5t17 21q3 0 6 -7t5.5 -16.5t4.5 -21t4 -20.5q5 -25 23.5 -39t43 -21.5t53 -9.5t52.5 -2h41q37 53 92 117.5 t120.5 121t136 94.5t139.5 38q37 0 63 -16t42.5 -39.5t24 -51t7.5 -51.5zM1034 276q0 12 -10.5 25t-28.5 24.5t-42 19t-52 7.5q-47 0 -99 -17t-101.5 -47t-92.5 -71.5t-71 -91.5q55 0 113.5 8.5t113.5 22t104 30t86 33.5t58.5 32t21.5 25z" />
<glyph unicode="&#x635;" horiz-adv-x="1210" arabic-form="medial" d="M1278 63q0 -12 -1.5 -23t-7 -20t-16.5 -14.5t-30 -5.5h-37q-117 0 -235.5 0.5t-238.5 0.5h-118.5t-116.5 -1q-10 -20 -18 -44.5t-14.5 -46t-11 -36t-5.5 -14.5q-4 0 -8.5 5t-8 12.5t-6 15t-2.5 12.5q0 3 2 13.5t6 24.5t8 29.5t9 28.5q-38 0 -71.5 2.5t-61 13.5 t-49.5 33.5t-37 63.5q-14 -22 -32 -42.5t-40.5 -36t-50 -25t-61.5 -9.5h-37q-19 0 -30 5.5t-16.5 14.5t-7 20t-1.5 23t1.5 23t7 19.5t16.5 14t30 5.5h37q64 0 105 21t66 46.5t37 46.5t17 21q3 0 6 -7t5.5 -16.5t4.5 -21t4 -20.5q5 -25 23.5 -39t43.5 -21.5t53 -9.5t52 -2h41 q23 34 56 74t73 81t85.5 79t93.5 67.5t97 47t97 17.5q30 0 53.5 -15t40 -37.5t25 -49t8.5 -49.5q0 -74 -49.5 -126.5t-136.5 -98.5q83 8 147.5 10t112.5 2h37q19 0 30 -5.5t16.5 -14t7 -19.5t1.5 -23zM1034 272q0 15 -18.5 27.5t-42 21.5t-45.5 14t-29 5q-44 0 -91 -12.5 t-93.5 -39t-90.5 -67t-81 -96.5q53 0 110 8t112 20.5t103.5 28.5t85.5 32t58.5 31.5t21.5 26.5z" />
<glyph unicode="&#x635;" horiz-adv-x="1632" arabic-form="final" d="M1700 63q0 -12 -1.5 -23t-7 -20t-16.5 -14.5t-30 -5.5h-37q-117 0 -235 1t-237 1q-60 0 -118.5 -0.5t-116.5 -1.5q-10 -20 -18.5 -44.5t-14.5 -46t-10.5 -36t-5.5 -14.5q-4 0 -8.5 5t-8.5 12.5t-7 15t-3 12.5q0 3 3 14t8 25t11 30t11 29q-7 0 -18 1.5t-23 3.5t-22 4.5 t-15 4.5q0 -30 -1 -51t-3 -39.5t-5.5 -38t-8.5 -45.5q-21 -105 -73 -170.5t-119.5 -101.5t-143 -49t-145.5 -13q-59 0 -105.5 20t-79 54t-50 78.5t-17.5 93.5q0 48 16 97t36 88.5t38.5 64.5t23.5 25t9 -3.5t4 -7.5q0 -6 -11 -24t-24 -45.5t-24 -63t-11 -75.5q0 -50 25 -83.5 t61.5 -53.5t78 -29t73.5 -9q43 0 88 4.5t87 13.5t78 21.5t60 28.5q53 35 71.5 84t18.5 123q0 47 -8.5 80t-18 55.5t-18 35.5t-8.5 21q0 6 7 23t16 36t17.5 33.5t12.5 14.5q12 -17 21.5 -36.5t15.5 -41.5q19 -3 56 -5.5t87 -2.5q23 34 56 74t73 81t85.5 79t93.5 67.5t97 47 t97 17.5q30 0 53.5 -15t40 -37.5t25 -49t8.5 -49.5q0 -74 -49.5 -126.5t-138.5 -98.5q83 8 147.5 10t112.5 2h37q19 0 30 -5.5t16.5 -14t7 -19.5t1.5 -23zM1458 272q0 15 -18.5 27.5t-42 21.5t-45.5 14t-29 5q-44 0 -91 -12.5t-93.5 -39t-90.5 -67t-81 -96.5q53 0 110 8 t111.5 20.5t103.5 28.5t86 32t58.5 31.5t21.5 26.5z" />
<glyph unicode="&#x636;" horiz-adv-x="1210" arabic-form="initial" d="M1108 336q0 -62 -34.5 -110.5t-90 -84.5t-125 -61.5t-140.5 -41.5t-136 -23.5t-111 -8.5q-5 -9 -11.5 -27t-13 -38.5t-12 -40.5t-6.5 -33q-3 0 -7.5 4.5t-9 11.5t-7.5 14.5t-3 12.5q0 4 3 15.5t7.5 25.5t9.5 28.5t9 26.5q-38 0 -71.5 2t-61.5 12t-50 31.5t-38 61.5 q-14 -22 -32 -42.5t-40.5 -36t-50 -25t-61.5 -9.5h-37q-19 0 -30 5.5t-16.5 14.5t-7 20t-1.5 23t1.5 23t7 19.5t16.5 14t30 5.5h37q64 0 105 21t66 46.5t37 46.5t17 21q3 0 6 -7t5.5 -16.5t4.5 -21t4 -20.5q5 -25 23.5 -39t43 -21.5t53 -9.5t52.5 -2h41q37 53 92 117.5 t120.5 121t136 94.5t139.5 38q37 0 63 -16t42.5 -39.5t24 -51t7.5 -51.5zM1034 276q0 12 -10.5 25t-28.5 24.5t-42 19t-52 7.5q-47 0 -99 -17t-101.5 -47t-92.5 -71.5t-71 -91.5q55 0 113.5 8.5t113.5 22t104 30t86 33.5t58.5 32t21.5 25zM676 613q0 -4 -9 -19.5t-20.5 -33 t-23 -31.5t-15.5 -14q-2 0 -16.5 9t-31 20.5t-29.5 22.5t-13 15t9.5 19.5t21 33t22.5 31.5t14 14q4 0 19 -9.5t31 -21.5t28.5 -23t12.5 -13z" />
<glyph unicode="&#x636;" horiz-adv-x="1210" arabic-form="medial" d="M1278 63q0 -12 -1.5 -23t-7 -20t-16.5 -14.5t-30 -5.5h-37q-117 0 -235.5 0.5t-238.5 0.5h-118.5t-116.5 -1q-10 -20 -18 -44.5t-14.5 -46t-11 -36t-5.5 -14.5q-4 0 -8.5 5t-8 12.5t-6 15t-2.5 12.5q0 3 2 13.5t6 24.5t8 29.5t9 28.5q-38 0 -71.5 2.5t-61 13.5 t-49.5 33.5t-37 63.5q-14 -22 -32 -42.5t-40.5 -36t-50 -25t-61.5 -9.5h-37q-19 0 -30 5.5t-16.5 14.5t-7 20t-1.5 23t1.5 23t7 19.5t16.5 14t30 5.5h37q64 0 105 21t66 46.5t37 46.5t17 21q3 0 6 -7t5.5 -16.5t4.5 -21t4 -20.5q5 -25 23.5 -39t43.5 -21.5t53 -9.5t52 -2h41 q23 34 56 74t73 81t85.5 79t93.5 67.5t97 47t97 17.5q30 0 53.5 -15t40 -37.5t25 -49t8.5 -49.5q0 -74 -49.5 -126.5t-136.5 -98.5q83 8 147.5 10t112.5 2h37q19 0 30 -5.5t16.5 -14t7 -19.5t1.5 -23zM1034 272q0 15 -18.5 27.5t-42 21.5t-45.5 14t-29 5q-44 0 -91 -12.5 t-93.5 -39t-90.5 -67t-81 -96.5q53 0 110 8t112 20.5t103.5 28.5t85.5 32t58.5 31.5t21.5 26.5zM718 637q0 -4 -9 -19.5t-20.5 -33t-23 -31.5t-15.5 -14q-2 0 -16.5 9t-31 20.5t-29.5 22.5t-13 15t9.5 19.5t21 33t22.5 31.5t14 14q4 0 19 -9.5t31 -21.5t28.5 -23t12.5 -13z " />
<glyph unicode="&#x636;" horiz-adv-x="1632" arabic-form="final" d="M1700 63q0 -12 -1.5 -23t-7 -20t-16.5 -14.5t-30 -5.5h-37q-117 0 -235 1t-237 1q-60 0 -118.5 -0.5t-116.5 -1.5q-10 -20 -18.5 -44.5t-14.5 -46t-10.5 -36t-5.5 -14.5q-4 0 -8.5 5t-8.5 12.5t-7 15t-3 12.5q0 3 3 14t8 25t11 30t11 29q-7 0 -18 1.5t-23 3.5t-22 4.5 t-15 4.5q0 -30 -1 -51t-3 -39.5t-5.5 -38t-8.5 -45.5q-21 -105 -73 -170.5t-119.5 -101.5t-143 -49t-145.5 -13q-59 0 -105.5 20t-79 54t-50 78.5t-17.5 93.5q0 48 16 97t36 88.5t38.5 64.5t23.5 25t9 -3.5t4 -7.5q0 -6 -11 -24t-24 -45.5t-24 -63t-11 -75.5q0 -50 25 -83.5 t61.5 -53.5t78 -29t73.5 -9q43 0 88 4.5t87 13.5t78 21.5t60 28.5q53 35 71.5 84t18.5 123q0 47 -8.5 80t-18 55.5t-18 35.5t-8.5 21q0 6 7 23t16 36t17.5 33.5t12.5 14.5q12 -17 21.5 -36.5t15.5 -41.5q19 -3 56 -5.5t87 -2.5q23 34 56 74t73 81t85.5 79t93.5 67.5t97 47 t97 17.5q30 0 53.5 -15t40 -37.5t25 -49t8.5 -49.5q0 -74 -49.5 -126.5t-138.5 -98.5q83 8 147.5 10t112.5 2h37q19 0 30 -5.5t16.5 -14t7 -19.5t1.5 -23zM1458 272q0 15 -18.5 27.5t-42 21.5t-45.5 14t-29 5q-44 0 -91 -12.5t-93.5 -39t-90.5 -67t-81 -96.5q53 0 110 8 t111.5 20.5t103.5 28.5t86 32t58.5 31.5t21.5 26.5zM1080 577q0 -4 -9 -19.5t-20.5 -33t-23 -31.5t-15.5 -14q-2 0 -16.5 9t-31 20.5t-29.5 22.5t-13 15t9.5 19.5t21 33t22.5 31.5t14 14q4 0 19 -9.5t31 -21.5t28.5 -23t12.5 -13z" />
<glyph unicode="&#x637;" horiz-adv-x="840" arabic-form="initial" d="M772 344q0 -29 -7 -59t-23.5 -58.5t-43.5 -55t-66 -47.5q-71 -38 -144.5 -62t-150 -38t-155 -19t-157.5 -5h-37q-19 0 -30 5.5t-16.5 14.5t-7 20t-1.5 23t1.5 23t7 19.5t16.5 14t30 5.5h37q26 0 43.5 0.5t31.5 3.5q22 12 41.5 26.5t28.5 28.5q14 45 18.5 96t4.5 99 q0 58 -6 119t-15 120t-20 112.5t-20 96t-15 71.5t-6 38q0 14 5.5 35t13 40.5t16.5 33.5t16 14q4 0 17.5 -17t28.5 -37.5t26.5 -39t11.5 -21.5q0 -5 -7 -13.5t-15.5 -21.5t-15.5 -29t-7 -34q0 -42 6.5 -80.5t15 -86.5t15 -114t6.5 -164q0 -14 -1.5 -36t-3.5 -46.5t-4.5 -47 t-5.5 -35.5q36 37 83.5 82.5t102.5 85.5t113 67t115 27q31 0 55.5 -12.5t40.5 -33.5t24.5 -49t8.5 -59zM694 276q0 28 -36.5 50t-98.5 22q-41 0 -81.5 -9.5t-84 -34t-90 -67t-98.5 -108.5q110 4 200 23.5t154.5 44t99.5 47t35 32.5z" />
<glyph unicode="&#x637;" horiz-adv-x="881" arabic-form="medial" d="M948 63q0 -12 -1.5 -23t-7 -20t-16.5 -14.5t-30 -5.5h-746q-7 -12 -14.5 -30t-14.5 -38t-12.5 -40.5t-7.5 -36.5q-8 6 -14 13q-5 6 -9.5 13t-4.5 15t10 39t22 65h-114q-19 0 -30 5.5t-16.5 14.5t-7 20t-1.5 23t1.5 23t7 19.5t16.5 14t30 5.5h37q38 0 67 1t47 7 q20 6 32.5 25t18.5 61q7 43 10 85t3 85q0 81 -13 164t-23 164q-3 27 -10 58t-14 61.5t-12.5 57t-5.5 44.5t5.5 39t13.5 39t17 29.5t17 11.5l78 -111q-9 -7 -17 -18.5t-14 -25.5t-10 -29.5t-4 -30.5q0 -35 6 -72t13.5 -87t13.5 -118.5t6 -165.5q0 -15 -1.5 -37t-4 -46.5 t-6.5 -48.5t-9 -44q42 42 92.5 89t104.5 86.5t108.5 65t104.5 25.5q33 0 59.5 -13t45 -34.5t28.5 -49.5t10 -58q0 -45 -16.5 -79.5t-42.5 -60.5t-58 -45.5t-63 -35.5q10 0 30 2t45 4t52.5 4t52.5 2h111q19 0 30 -5.5t16.5 -14t7 -19.5t1.5 -23zM705 272q0 9 -10 21.5 t-28.5 23t-45 18t-58.5 7.5q-50 0 -98 -16.5t-92 -45.5t-84 -68.5t-74 -86.5q94 0 182 17t156.5 40.5t110 48.5t41.5 41z" />
<glyph unicode="&#x637;" horiz-adv-x="1092" arabic-form="final" d="M1161 63q0 -12 -1.5 -23t-7 -20t-16.5 -14.5t-30 -5.5h-864q-35 0 -49.5 2t-30.5 8q-7 2 -28.5 18.5t-45 36.5t-41.5 38t-18 24q0 8 10 8q26 0 47.5 -2t42 -5t42 -5t48.5 -2q68 0 120 11.5t89 49.5q6 15 11 35.5t8.5 41t5.5 38.5t2 29q0 53 -1.5 95t-5 79.5t-9 74.5 t-12.5 80q-7 44 -16 86t-16.5 77.5t-12.5 62.5t-5 41q0 13 5.5 35t13.5 43t16.5 36t15.5 15q4 0 17 -17.5t27 -39t25 -40.5t11 -22q-16 -13 -31.5 -36.5t-15.5 -68.5q0 -18 6.5 -58.5t14 -91.5t14 -106.5t6.5 -103.5q0 -18 -1 -46t-2.5 -59t-4 -61.5t-5.5 -52.5 q49 51 101 96.5t102.5 79.5t97 54t84.5 20q36 0 63 -12.5t45.5 -33.5t28 -49t9.5 -59q0 -39 -14.5 -73t-40 -64t-61.5 -55t-79 -46q68 8 127.5 13.5t94.5 5.5h59q19 0 30 -5.5t16.5 -14t7 -19.5t1.5 -23zM946 283q0 13 -13 25.5t-32.5 22.5t-42.5 15.5t-43 5.5 q-41 0 -86.5 -9t-92 -33.5t-93.5 -68t-90 -112.5q131 8 224.5 31t153 49t87.5 47.5t28 26.5z" />
<glyph unicode="&#x638;" horiz-adv-x="840" arabic-form="initial" d="M772 344q0 -29 -7 -59t-23.5 -58.5t-43.5 -55t-66 -47.5q-71 -38 -144.5 -62t-150 -38t-155 -19t-157.5 -5h-37q-19 0 -30 5.5t-16.5 14.5t-7 20t-1.5 23t1.5 23t7 19.5t16.5 14t30 5.5h37q26 0 43.5 0.5t31.5 3.5q22 12 41.5 26.5t28.5 28.5q14 45 18.5 96t4.5 99 q0 58 -6 119t-15 120t-20 112.5t-20 96t-15 71.5t-6 38q0 14 5.5 35t13 40.5t16.5 33.5t16 14q4 0 17.5 -17t28.5 -37.5t26.5 -39t11.5 -21.5q0 -5 -7 -13.5t-15.5 -21.5t-15.5 -29t-7 -34q0 -42 6.5 -80.5t15 -86.5t15 -114t6.5 -164q0 -14 -1.5 -36t-3.5 -46.5t-4.5 -47 t-5.5 -35.5q36 37 83.5 82.5t102.5 85.5t113 67t115 27q31 0 55.5 -12.5t40.5 -33.5t24.5 -49t8.5 -59zM694 276q0 28 -36.5 50t-98.5 22q-41 0 -81.5 -9.5t-84 -34t-90 -67t-98.5 -108.5q110 4 200 23.5t154.5 44t99.5 47t35 32.5zM570 723q0 -4 -9 -19.5t-20.5 -33 t-23 -31.5t-15.5 -14q-2 0 -16.5 9t-31 20.5t-29.5 22.5t-13 15t9.5 19.5t21 33t22.5 31.5t14 14q4 0 19 -9.5t31 -21.5t28.5 -23t12.5 -13z" />
<glyph unicode="&#x638;" horiz-adv-x="881" arabic-form="medial" d="M948 63q0 -12 -1.5 -23t-7 -20t-16.5 -14.5t-30 -5.5h-746q-7 -12 -14.5 -30t-14.5 -38t-12.5 -40.5t-7.5 -36.5q-8 6 -14 13q-5 6 -9.5 13t-4.5 15t10 39t22 65h-114q-19 0 -30 5.5t-16.5 14.5t-7 20t-1.5 23t1.5 23t7 19.5t16.5 14t30 5.5h37q38 0 67 1t47 7 q20 6 32.5 25t18.5 61q7 43 10 85t3 85q0 81 -13 164t-23 164q-3 27 -10 58t-14 61.5t-12.5 57t-5.5 44.5t5.5 39t13.5 39t17 29.5t17 11.5l78 -111q-9 -7 -17 -18.5t-14 -25.5t-10 -29.5t-4 -30.5q0 -35 6 -72t13.5 -87t13.5 -118.5t6 -165.5q0 -15 -1.5 -37t-4 -46.5 t-6.5 -48.5t-9 -44q42 42 92.5 89t104.5 86.5t108.5 65t104.5 25.5q33 0 59.5 -13t45 -34.5t28.5 -49.5t10 -58q0 -45 -16.5 -79.5t-42.5 -60.5t-58 -45.5t-63 -35.5q10 0 30 2t45 4t52.5 4t52.5 2h111q19 0 30 -5.5t16.5 -14t7 -19.5t1.5 -23zM705 272q0 9 -10 21.5 t-28.5 23t-45 18t-58.5 7.5q-50 0 -98 -16.5t-92 -45.5t-84 -68.5t-74 -86.5q94 0 182 17t156.5 40.5t110 48.5t41.5 41zM576 707q0 -4 -9 -19.5t-20.5 -33t-23 -31.5t-15.5 -14q-2 0 -16.5 9t-31 20.5t-29.5 22.5t-13 15t9.5 19.5t21 33t22.5 31.5t14 14q4 0 19 -9.5 t31 -21.5t28.5 -23t12.5 -13z" />
<glyph unicode="&#x638;" horiz-adv-x="1092" arabic-form="final" d="M1161 63q0 -12 -1.5 -23t-7 -20t-16.5 -14.5t-30 -5.5h-864q-35 0 -49.5 2t-30.5 8q-7 2 -28.5 18.5t-45 36.5t-41.5 38t-18 24q0 8 10 8q26 0 47.5 -2t42 -5t42 -5t48.5 -2q68 0 120 11.5t89 49.5q6 15 11 35.5t8.5 41t5.5 38.5t2 29q0 53 -1.5 95t-5 79.5t-9 74.5 t-12.5 80q-7 44 -16 86t-16.5 77.5t-12.5 62.5t-5 41q0 13 5.5 35t13.5 43t16.5 36t15.5 15q4 0 17 -17.5t27 -39t25 -40.5t11 -22q-16 -13 -31.5 -36.5t-15.5 -68.5q0 -18 6.5 -58.5t14 -91.5t14 -106.5t6.5 -103.5q0 -18 -1 -46t-2.5 -59t-4 -61.5t-5.5 -52.5 q49 51 101 96.5t102.5 79.5t97 54t84.5 20q36 0 63 -12.5t45.5 -33.5t28 -49t9.5 -59q0 -39 -14.5 -73t-40 -64t-61.5 -55t-79 -46q68 8 127.5 13.5t94.5 5.5h59q19 0 30 -5.5t16.5 -14t7 -19.5t1.5 -23zM946 283q0 13 -13 25.5t-32.5 22.5t-42.5 15.5t-43 5.5 q-41 0 -86.5 -9t-92 -33.5t-93.5 -68t-90 -112.5q131 8 224.5 31t153 49t87.5 47.5t28 26.5zM822 710q0 -4 -9 -19.5t-20.5 -33t-23 -31.5t-15.5 -14q-2 0 -16.5 9t-31 20.5t-29.5 22.5t-13 15t9.5 19.5t21 33t22.5 31.5t14 14q4 0 19 -9.5t31 -21.5t28.5 -23t12.5 -13z" />
<glyph unicode="&#x639;" horiz-adv-x="735" arabic-form="initial" d="M672 348q0 -2 -1.5 -9t-4 -17l-5.5 -22l-6 -24q-7 -30 -30 -38q-55 -22 -123.5 -52.5t-141.5 -62.5q-44 -19 -87 -40.5t-85 -40t-82.5 -30.5t-80.5 -12h-37q-19 0 -30 5.5t-16.5 14.5t-7 20t-1.5 23t1.5 23t7 19.5t16.5 14t30 5.5h37q38 0 70.5 10.5t72.5 30.5 q-13 11 -27 23.5t-25 27t-18.5 30.5t-7.5 34q0 40 15.5 80.5t41 78t57.5 69.5t66 54q35 23 69 29t60 6q8 0 23 -6t33.5 -16t37.5 -22.5t34.5 -25t25.5 -24t10 -19.5q0 -10 -10 -10q-3 0 -14 4t-26.5 8.5t-33.5 8.5t-35 4q-31 0 -76.5 -12.5t-88.5 -29.5q-33 -14 -53 -23 t-30.5 -15.5t-14 -11t-3.5 -9.5q0 -24 19 -49.5t47.5 -47.5t61.5 -36t61 -14q25 0 55 7.5t60.5 19.5t60.5 25t55 25t43 19.5t25 7.5q6 0 6 -8z" />
<glyph unicode="&#x639;" horiz-adv-x="590" arabic-form="medial" d="M657 63q0 -12 -1.5 -23t-7 -20t-16.5 -14.5t-30 -5.5h-37q-42 0 -83 19t-77 44.5t-64 51t-44 37.5q-29 -26 -61 -53t-66.5 -49t-71 -36t-73.5 -14h-37q-19 0 -30 5.5t-16.5 14.5t-7 20t-1.5 23t1.5 23t7 19.5t16.5 14t30 5.5h37q34 0 82.5 15t105.5 59q-66 31 -99.5 48 t-33.5 25q0 12 11 38.5t37.5 53.5t71 47.5t111.5 20.5q36 0 71.5 -10.5t63.5 -27.5t45 -39.5t17 -47.5q0 -28 -27.5 -55.5t-89.5 -54.5q50 -32 91 -52t83 -20h37q19 0 30 -5.5t16.5 -14t7 -19.5t1.5 -23z" />
<glyph unicode="&#x639;" horiz-adv-x="799" arabic-form="final" d="M981 -606q0 -3 -25.5 -13t-64 -23t-84.5 -27t-87 -26t-71.5 -20t-38.5 -8q-69 0 -137.5 5.5t-131.5 22t-117 46t-94 77.5t-62.5 116.5t-22.5 162.5q0 78 23.5 150.5t63 137.5t92 122.5t110.5 105.5q-15 12 -36.5 23.5t-40.5 20.5t-32.5 16t-13.5 12q0 12 13.5 37.5 t39.5 51.5t64 45.5t88 19.5q51 0 88.5 -15t62 -35.5t37 -40t12.5 -28.5q0 -12 -4.5 -23.5t-16 -24.5t-31 -27t-50.5 -30q26 -28 53 -47t58 -31t67.5 -17t81.5 -5h37q19 0 30 -5.5t16.5 -14t7 -19.5t1.5 -23t-1.5 -23t-7 -20t-16.5 -14.5t-30 -5.5h-37q-45 0 -82 3.5 t-77 20.5t-86.5 53t-110.5 101q-56 -32 -112 -74.5t-101.5 -95.5t-74 -115t-28.5 -131q0 -88 41.5 -156.5t116.5 -115t181 -70.5t235 -24q43 0 85 2t80.5 5t71 5t56.5 2q9 0 10.5 -4t1.5 -12z" />
<glyph unicode="&#x63a;" horiz-adv-x="735" arabic-form="initial" d="M672 348q0 -2 -1.5 -9t-4 -17l-5.5 -22l-6 -24q-7 -30 -30 -38q-55 -22 -123.5 -52.5t-141.5 -62.5q-44 -19 -87 -40.5t-85 -40t-82.5 -30.5t-80.5 -12h-37q-19 0 -30 5.5t-16.5 14.5t-7 20t-1.5 23t1.5 23t7 19.5t16.5 14t30 5.5h37q38 0 70.5 10.5t72.5 30.5 q-13 11 -27 23.5t-25 27t-18.5 30.5t-7.5 34q0 40 15.5 80.5t41 78t57.5 69.5t66 54q35 23 69 29t60 6q8 0 23 -6t33.5 -16t37.5 -22.5t34.5 -25t25.5 -24t10 -19.5q0 -10 -10 -10q-3 0 -14 4t-26.5 8.5t-33.5 8.5t-35 4q-31 0 -76.5 -12.5t-88.5 -29.5q-33 -14 -53 -23 t-30.5 -15.5t-14 -11t-3.5 -9.5q0 -24 19 -49.5t47.5 -47.5t61.5 -36t61 -14q25 0 55 7.5t60.5 19.5t60.5 25t55 25t43 19.5t25 7.5q6 0 6 -8zM409 796q0 -4 -9 -19.5t-20.5 -33t-23 -31.5t-15.5 -14q-2 0 -16.5 9t-31 20.5t-29.5 22.5t-13 15t9.5 19.5t21 33t22.5 31.5 t14 14q4 0 19 -9.5t31 -21.5t28.5 -23t12.5 -13z" />
<glyph unicode="&#x63a;" horiz-adv-x="590" arabic-form="medial" d="M657 63q0 -12 -1.5 -23t-7 -20t-16.5 -14.5t-30 -5.5h-37q-42 0 -83 19t-77 44.5t-64 51t-44 37.5q-29 -26 -61 -53t-66.5 -49t-71 -36t-73.5 -14h-37q-19 0 -30 5.5t-16.5 14.5t-7 20t-1.5 23t1.5 23t7 19.5t16.5 14t30 5.5h37q34 0 82.5 15t105.5 59q-66 31 -99.5 48 t-33.5 25q0 12 11 38.5t37.5 53.5t71 47.5t111.5 20.5q36 0 71.5 -10.5t63.5 -27.5t45 -39.5t17 -47.5q0 -28 -27.5 -55.5t-89.5 -54.5q50 -32 91 -52t83 -20h37q19 0 30 -5.5t16.5 -14t7 -19.5t1.5 -23zM376 684q0 -4 -9 -19.5t-20.5 -33t-23 -31.5t-15.5 -14q-2 0 -16.5 9 t-31 20.5t-29.5 22.5t-13 15t9.5 19.5t21 33t22.5 31.5t14 14q4 0 19 -9.5t31 -21.5t28.5 -23t12.5 -13z" />
<glyph unicode="&#x63a;" horiz-adv-x="799" arabic-form="final" d="M981 -606q0 -3 -25.5 -13t-64 -23t-84.5 -27t-87 -26t-71.5 -20t-38.5 -8q-69 0 -137.5 5.5t-131.5 22t-117 46t-94 77.5t-62.5 116.5t-22.5 162.5q0 78 23.5 150.5t63 137.5t92 122.5t110.5 105.5q-15 12 -36.5 23.5t-40.5 20.5t-32.5 16t-13.5 12q0 12 13.5 37.5 t39.5 51.5t64 45.5t88 19.5q51 0 88.5 -15t62 -35.5t37 -40t12.5 -28.5q0 -12 -4.5 -23.5t-16 -24.5t-31 -27t-50.5 -30q26 -28 53 -47t58 -31t67.5 -17t81.5 -5h37q19 0 30 -5.5t16.5 -14t7 -19.5t1.5 -23t-1.5 -23t-7 -20t-16.5 -14.5t-30 -5.5h-37q-45 0 -82 3.5 t-77 20.5t-86.5 53t-110.5 101q-56 -32 -112 -74.5t-101.5 -95.5t-74 -115t-28.5 -131q0 -88 41.5 -156.5t116.5 -115t181 -70.5t235 -24q43 0 85 2t80.5 5t71 5t56.5 2q9 0 10.5 -4t1.5 -12zM490 668q0 -4 -9 -19.5t-20.5 -33t-23 -31.5t-15.5 -14q-2 0 -16.5 9t-31 20.5 t-29.5 22.5t-13 15t9.5 19.5t21 33t22.5 31.5t14 14q4 0 19 -9.5t31 -21.5t28.5 -23t12.5 -13z" />
<glyph unicode="&#x63b;" horiz-adv-x="829" d="M836 1049q-16 -20 -24.5 -40t-14.5 -36t-12 -27.5t-17 -15.5q-42 -13 -108 -35.5t-141.5 -49.5t-152 -57t-138 -58.5t-100 -53t-38.5 -41.5q0 -9 17 -19.5t44 -24.5t61 -33t69 -44q32 -24 62.5 -54.5t54 -67.5t37.5 -79.5t14 -89.5q0 -73 -31 -117t-87.5 -67.5 t-134.5 -31t-171 -7.5h-37q-19 0 -30 5.5t-16.5 14.5t-7 20t-1.5 23t1.5 23t7 19.5t16.5 14t30 5.5h37q83 0 143.5 3t103.5 11q77 15 107.5 38.5t30.5 43.5q0 18 -16 42t-38.5 48.5t-47 46.5t-42.5 37q-21 17 -47 32t-51.5 27.5t-47.5 23.5t-34 20q-20 16 -28.5 36.5 t-8.5 63.5t5 72t16 39q29 25 69 51t86.5 51.5t96 49.5t96.5 45t89 37.5t73 27.5q20 7 59.5 21t80 28.5t72 25.5t35.5 11q2 0 3.5 -3t5.5 -5zM280 976q0 -4 -9 -20t-20.5 -33.5t-22 -31.5t-14.5 -14q-2 0 -15.5 9.5t-29.5 21.5q-18 13 -41 31q-4 4 -7 4t-7 -4 q-15 -22 -27 -39q-11 -15 -20.5 -27t-12.5 -12t-17.5 9.5t-30.5 21.5t-29 23t-13 14q0 4 9.5 19.5t21.5 33t22.5 31.5t12.5 14q5 0 18 -10t27 -21q17 -13 37 -30q6 -6 9 -6t7 8q15 21 28 38q11 14 21 26.5t12 12.5q3 0 18 -10t31 -22.5t29 -23.5t13 -13z" />
<glyph unicode="&#x63b;" horiz-adv-x="944" d="M1013 63q0 -12 -1.5 -23t-7 -20t-16.5 -14.5t-30 -5.5h-38q-35 0 -63.5 11.5t-56.5 33t-58.5 51.5t-69 67t-88.5 79t-117 88q4 -17 5 -41t1 -37q0 -68 -22 -115.5t-74 -78t-138 -44.5t-214 -14h-37q-19 0 -30 5.5t-16.5 14.5t-7 20t-1.5 23t1.5 23t7 19.5t16.5 14t30 5.5 h37q70 0 143.5 3.5t134 16t99 37t38.5 66.5q0 32 -14.5 60t-38 51.5t-53 43t-60.5 35.5q-38 20 -70.5 32t-64.5 38q-11 9 -24 27t-24.5 40.5t-19.5 45.5t-8 43q0 13 4 31t13.5 38t25.5 41t39 39q51 40 122.5 82t149 82t154.5 75t139.5 61t102.5 41.5t45 15.5q8 0 8 -6 q0 -3 -5.5 -22t-12.5 -40.5t-14.5 -39.5t-10.5 -19q-82 -26 -167.5 -60t-166 -70.5t-151.5 -73.5t-124 -70t-83.5 -59.5t-30.5 -41.5q0 -16 32 -33.5t77 -38.5q42 -20 84.5 -42t82.5 -46t77 -48t69 -48q75 -56 132.5 -107.5t104 -91.5t85 -64t76.5 -24h38q19 0 30 -5.5 t16.5 -14t7 -19.5t1.5 -23zM288 1037q0 -4 -9 -20t-20.5 -33.5t-22 -31.5t-14.5 -14q-2 0 -15.5 9.5t-29.5 21.5q-18 13 -41 31q-4 4 -7 4t-7 -4q-15 -22 -27 -39q-11 -15 -20.5 -27t-12.5 -12t-17.5 9.5t-30.5 21.5t-29 23t-13 14q0 4 9.5 19.5t21.5 33t22.5 31.5t12.5 14 q5 0 18 -10t27 -21q17 -13 37 -30q6 -6 9 -6t7 8q15 21 28 38q11 14 21 26.5t12 12.5q3 0 18 -10t31 -22.5t29 -23.5t13 -13z" />
<glyph unicode="&#x63b;" horiz-adv-x="1544" d="M1611 63q0 -12 -1.5 -23t-7 -20t-16.5 -14.5t-30 -5.5h-36q-48 0 -83.5 20.5t-74 56.5t-86 84.5t-119.5 104.5q6 -30 6 -63q0 -75 -54.5 -120.5t-147.5 -70t-215.5 -32t-258.5 -7.5q-120 0 -199.5 12.5t-127.5 41t-68 75.5t-20 115q0 7 3 25.5t8 42t11 49t12.5 46.5 t12 34.5t10.5 13.5t8.5 -3t3.5 -9q0 -3 -3 -15t-6 -28t-6 -33t-3 -29q0 -49 19.5 -87t65.5 -64.5t122 -40t188 -13.5q108 0 186.5 0.5t133.5 2t90.5 4.5t58.5 7q39 7 65 17t42 21t23 22.5t7 20.5q0 19 -15.5 43.5t-37.5 49t-46.5 46.5t-42.5 36q-21 16 -47.5 30.5 t-52.5 27.5t-48 23.5t-33 19.5q-10 8 -17 16.5t-11 20t-5.5 27t-1.5 37.5q0 43 4 72t16 38q28 25 68 51t86 51.5t95.5 50t97 45t89.5 37.5t74 28q13 4 35.5 12.5t49 17.5t54 19t50.5 18t38.5 13t18.5 5t4 -2.5t4 -5.5q-16 -20 -24.5 -39.5t-14 -36t-11.5 -28t-17 -15.5 q-41 -13 -107.5 -35t-141.5 -49t-151 -57t-137.5 -58t-100 -53t-38.5 -41q0 -19 47 -42q77 -38 145 -83.5t129 -93.5q66 -51 122 -100t104 -87.5t89 -61.5t77 -23h36q19 0 30 -5.5t16.5 -14t7 -19.5t1.5 -23zM993 953q0 -4 -9 -20t-20.5 -33.5t-22 -31.5t-14.5 -14 q-2 0 -15.5 9.5t-29.5 21.5q-18 13 -41 31q-4 4 -7 4t-7 -4q-15 -22 -27 -39q-11 -15 -20.5 -27t-12.5 -12t-17.5 9.5t-30.5 21.5t-29 23t-13 14q0 4 9.5 19.5t21.5 33t22.5 31.5t12.5 14q5 0 18 -10t27 -21q17 -13 37 -30q6 -6 9 -6t7 8q15 21 28 38q11 14 21 26.5t12 12.5 q3 0 18 -10t31 -22.5t29 -23.5t13 -13z" />
<glyph unicode="&#x63c;" horiz-adv-x="829" d="M836 1049q-16 -20 -24.5 -40t-14.5 -36t-12 -27.5t-17 -15.5q-42 -13 -108 -35.5t-141.5 -49.5t-152 -57t-138 -58.5t-100 -53t-38.5 -41.5q0 -9 17 -19.5t44 -24.5t61 -33t69 -44q32 -24 62.5 -54.5t54 -67.5t37.5 -79.5t14 -89.5q0 -73 -31 -117t-87.5 -67.5 t-134.5 -31t-171 -7.5h-37q-19 0 -30 5.5t-16.5 14.5t-7 20t-1.5 23t1.5 23t7 19.5t16.5 14t30 5.5h37q83 0 143.5 3t103.5 11q77 15 107.5 38.5t30.5 43.5q0 18 -16 42t-38.5 48.5t-47 46.5t-42.5 37q-21 17 -47 32t-51.5 27.5t-47.5 23.5t-34 20q-20 16 -28.5 36.5 t-8.5 63.5t5 72t16 39q29 25 69 51t86.5 51.5t96 49.5t96.5 45t89 37.5t73 27.5q20 7 59.5 21t80 28.5t72 25.5t35.5 11q2 0 3.5 -3t5.5 -5zM317 -166q0 -4 -9 -19.5t-20.5 -33t-22 -31.5t-14.5 -14q-2 0 -15.5 9.5t-29.5 21.5q-18 13 -41 31q-4 4 -7 4t-7 -6 q-16 -22 -28 -39q-11 -15 -21 -27t-13 -12q-2 0 -16.5 9.5t-31 22t-29.5 23.5t-13 14t9.5 19t21.5 33t22.5 31t12.5 14q5 0 18 -9.5t28 -20.5l38 -30q7 -5 8 -5q2 0 8 7l28 38q11 14 20.5 26t13.5 12t18.5 -9.5t30.5 -21.5t28.5 -23t12.5 -14zM247 -364q0 -3 -9 -18.5 t-20 -32.5t-22.5 -31t-15.5 -14q-3 0 -17.5 9t-31 20.5t-29.5 22.5t-13 15t9.5 19.5t21.5 33t23 31.5t14 14q4 0 18.5 -9.5t30.5 -22t28.5 -23.5t12.5 -14z" />
<glyph unicode="&#x63c;" horiz-adv-x="944" d="M1013 63q0 -12 -1.5 -23t-7 -20t-16.5 -14.5t-30 -5.5h-38q-35 0 -63.5 11.5t-56.5 33t-58.5 51.5t-69 67t-88.5 79t-117 88q4 -17 5 -41t1 -37q0 -68 -22 -115.5t-74 -78t-138 -44.5t-214 -14h-37q-19 0 -30 5.5t-16.5 14.5t-7 20t-1.5 23t1.5 23t7 19.5t16.5 14t30 5.5 h37q70 0 143.5 3.5t134 16t99 37t38.5 66.5q0 32 -14.5 60t-38 51.5t-53 43t-60.5 35.5q-38 20 -70.5 32t-64.5 38q-11 9 -24 27t-24.5 40.5t-19.5 45.5t-8 43q0 13 4 31t13.5 38t25.5 41t39 39q51 40 122.5 82t149 82t154.5 75t139.5 61t102.5 41.5t45 15.5q8 0 8 -6 q0 -3 -5.5 -22t-12.5 -40.5t-14.5 -39.5t-10.5 -19q-82 -26 -167.5 -60t-166 -70.5t-151.5 -73.5t-124 -70t-83.5 -59.5t-30.5 -41.5q0 -16 32 -33.5t77 -38.5q42 -20 84.5 -42t82.5 -46t77 -48t69 -48q75 -56 132.5 -107.5t104 -91.5t85 -64t76.5 -24h38q19 0 30 -5.5 t16.5 -14t7 -19.5t1.5 -23zM298 -166q0 -4 -9 -19.5t-20.5 -33t-22 -31.5t-14.5 -14q-2 0 -15.5 9.5t-29.5 21.5q-18 13 -41 31q-4 4 -7 4t-7 -6q-16 -22 -28 -39q-11 -15 -21 -27t-13 -12q-2 0 -16.5 9.5t-31 22t-29.5 23.5t-13 14t9.5 19t21.5 33t22.5 31t12.5 14 q5 0 18 -9.5t28 -20.5l38 -30q7 -5 8 -5q2 0 8 7l28 38q11 14 20.5 26t13.5 12t18.5 -9.5t30.5 -21.5t28.5 -23t12.5 -14zM228 -364q0 -3 -9 -18.5t-20 -32.5t-22.5 -31t-15.5 -14q-3 0 -17.5 9t-31 20.5t-29.5 22.5t-13 15t9.5 19.5t21.5 33t23 31.5t14 14q4 0 18.5 -9.5 t30.5 -22t28.5 -23.5t12.5 -14z" />
<glyph unicode="&#x63c;" horiz-adv-x="1544" d="M1611 63q0 -12 -1.5 -23t-7 -20t-16.5 -14.5t-30 -5.5h-36q-48 0 -83.5 20.5t-74 56.5t-86 84.5t-119.5 104.5q6 -30 6 -63q0 -75 -54.5 -120.5t-147.5 -70t-215.5 -32t-258.5 -7.5q-120 0 -199.5 12.5t-127.5 41t-68 75.5t-20 115q0 7 3 25.5t8 42t11 49t12.5 46.5 t12 34.5t10.5 13.5t8.5 -3t3.5 -9q0 -3 -3 -15t-6 -28t-6 -33t-3 -29q0 -49 19.5 -87t65.5 -64.5t122 -40t188 -13.5q108 0 186.5 0.5t133.5 2t90.5 4.5t58.5 7q39 7 65 17t42 21t23 22.5t7 20.5q0 19 -15.5 43.5t-37.5 49t-46.5 46.5t-42.5 36q-21 16 -47.5 30.5 t-52.5 27.5t-48 23.5t-33 19.5q-10 8 -17 16.5t-11 20t-5.5 27t-1.5 37.5q0 43 4 72t16 38q28 25 68 51t86 51.5t95.5 50t97 45t89.5 37.5t74 28q13 4 35.5 12.5t49 17.5t54 19t50.5 18t38.5 13t18.5 5t4 -2.5t4 -5.5q-16 -20 -24.5 -39.5t-14 -36t-11.5 -28t-17 -15.5 q-41 -13 -107.5 -35t-141.5 -49t-151 -57t-137.5 -58t-100 -53t-38.5 -41q0 -19 47 -42q77 -38 145 -83.5t129 -93.5q66 -51 122 -100t104 -87.5t89 -61.5t77 -23h36q19 0 30 -5.5t16.5 -14t7 -19.5t1.5 -23zM973 -195q0 -4 -9 -19.5t-20.5 -33t-22 -31.5t-14.5 -14 q-2 0 -15.5 9.5t-29.5 21.5q-18 13 -41 31q-4 4 -7 4t-7 -6q-16 -22 -28 -39q-11 -15 -21 -27t-13 -12q-2 0 -16.5 9.5t-31 22t-29.5 23.5t-13 14t9.5 19t21.5 33t22.5 31t12.5 14q5 0 18 -9.5t28 -20.5l38 -30q7 -5 8 -5q2 0 8 7l28 38q11 14 20.5 26t13.5 12t18.5 -9.5 t30.5 -21.5t28.5 -23t12.5 -14zM903 -393q0 -3 -9 -18.5t-20 -32.5t-22.5 -31t-15.5 -14q-3 0 -17.5 9t-31 20.5t-29.5 22.5t-13 15t9.5 19.5t21.5 33t23 31.5t14 14q4 0 18.5 -9.5t30.5 -22t28.5 -23.5t12.5 -14z" />
<glyph unicode="&#x63d;" horiz-adv-x="360" d="M248 264q0 -76 -17.5 -127t-47.5 -81.5t-70.5 -43t-87.5 -12.5h-37q-19 0 -30 5.5t-16.5 14.5t-7 20t-1.5 23t1.5 23t7 19.5t16.5 14t30 5.5h37q43 0 76.5 7t56.5 18q21 11 32 23.5t11 19.5q0 6 -10.5 26.5t-22.5 43.5t-22.5 42.5t-10.5 24.5q0 7 9.5 25.5t21.5 38.5 t23 37.5t14 21.5q23 -50 34 -95.5t11 -93.5zM364 562q0 -3 -0.5 -5.5t-5.5 -2.5h-31q-3 0 -15.5 10t-29 25.5t-35.5 33t-36 33t-29.5 25.5t-15.5 10q-4 0 -16 -10t-29 -25.5t-36 -33t-35.5 -33t-29 -25.5t-15.5 -10h-31q-5 0 -5.5 2.5t-0.5 5.5q0 5 15 28t37 53t46.5 60 t42.5 48q8 9 14.5 15.5t13.5 6.5h58q7 0 13 -6.5t15 -15.5q12 -12 27.5 -30.5t31 -39t30.5 -41t26.5 -37.5t18.5 -28.5t7 -12.5zM276 -169q0 -4 -9 -20t-20.5 -33.5t-22 -31.5t-14.5 -14q-2 0 -15.5 9.5t-29.5 21.5q-18 13 -41 31q-4 4 -7 4t-7 -4q-15 -22 -27 -39 q-11 -15 -20.5 -27t-12.5 -12t-17.5 9.5t-30.5 21.5t-29 23t-13 14q0 4 9.5 19.5t21.5 33t22.5 31.5t12.5 14q5 0 18 -10t27 -21q17 -13 37 -30q6 -6 9 -6t7 8q15 21 28 38q11 14 21 26.5t12 12.5q3 0 18 -10t31 -22.5t29 -23.5t13 -13z" />
<glyph unicode="&#x63d;" horiz-adv-x="367" d="M436 63q0 -12 -1.5 -23t-7 -20t-16.5 -14.5t-30 -5.5h-39q-28 0 -47 9t-35 26q-11 12 -24 32.5t-21 38.5q-18 -20 -36 -39t-40 -34t-49.5 -24t-64.5 -9h-37q-19 0 -30 5.5t-16.5 14.5t-7 20t-1.5 23t1.5 23t7 19.5t16.5 14t30 5.5h37q45 0 78 9.5t56.5 24.5t39 31.5 t25.5 31.5t16.5 24.5t11.5 9.5q6 0 8 -17t10 -38q4 -12 10.5 -25.5t15 -25t20 -18.5t26.5 -7h39q19 0 30 -5.5t16.5 -14t7 -19.5t1.5 -23zM380 364q0 -3 -0.5 -5.5t-5.5 -2.5h-31q-3 0 -15.5 10t-29 25.5t-35.5 33t-36 33t-29.5 25.5t-15.5 10q-4 0 -16 -10t-29 -25.5 t-36 -33t-35.5 -33t-29 -25.5t-15.5 -10h-31q-5 0 -5.5 2.5t-0.5 5.5q0 5 15 28t37 53t46.5 60t42.5 48q8 9 14.5 15.5t13.5 6.5h58q7 0 13 -6.5t15 -15.5q12 -12 27.5 -30.5t31 -39t30.5 -41t26.5 -37.5t18.5 -28.5t7 -12.5zM342 -169q0 -4 -9 -20t-20.5 -33.5t-22 -31.5 t-14.5 -14q-2 0 -15.5 9.5t-29.5 21.5q-18 13 -41 31q-4 4 -7 4t-7 -4q-15 -22 -27 -39q-11 -15 -20.5 -27t-12.5 -12t-17.5 9.5t-30.5 21.5t-29 23t-13 14q0 4 9.5 19.5t21.5 33t22.5 31.5t12.5 14q5 0 18 -10t27 -21q17 -13 37 -30q6 -6 9 -6t7 8q15 21 28 38 q11 14 21 26.5t12 12.5q3 0 18 -10t31 -22.5t29 -23.5t13 -13z" />
<glyph unicode="&#x63d;" horiz-adv-x="980" d="M1047 63q0 -12 -1.5 -23t-7 -20t-16.5 -14.5t-30 -5.5h-107q-28 0 -59.5 -2t-59.5 -10q-34 -10 -55 -30.5t-21 -43.5q0 -12 7 -18.5t19 -10.5t28.5 -6.5t35.5 -5.5q23 -4 52 -12.5t54.5 -23.5t42.5 -37t17 -52q0 -43 -25.5 -81.5t-68 -71t-98 -58t-115 -43.5t-119 -27.5 t-110.5 -9.5q-76 0 -136 20.5t-102 58.5t-64 92t-22 122q0 55 15 110.5t34 100t36.5 72.5t21.5 28q6 0 11 -3t5 -9q0 -3 -10.5 -23.5t-23.5 -53t-23.5 -72.5t-10.5 -82q0 -74 31.5 -117.5t81 -66.5t109 -30t116.5 -7q21 0 61 7t87 18.5t95.5 26.5t88 30.5t65 31t25.5 27.5 q0 22 -31.5 33t-97.5 14q-29 1 -59 4t-55.5 10.5t-41.5 23t-16 42.5q0 25 12.5 51.5t25.5 46.5q79 125 193 154q22 6 41.5 7t42.5 1h77q19 0 30 -5.5t16.5 -14t7 -19.5t1.5 -23zM654 174q0 -3 -0.5 -5.5t-5.5 -2.5h-31q-3 0 -15.5 10t-29 25.5t-35.5 33t-36 33t-29.5 25.5 t-15.5 10q-4 0 -16 -10t-29 -25.5t-36 -33t-35.5 -33t-29 -25.5t-15.5 -10h-31q-5 0 -5.5 2.5t-0.5 5.5q0 5 15 28t37 53t46.5 60t42.5 48q8 9 14.5 15.5t13.5 6.5h58q7 0 13 -6.5t15 -15.5q12 -12 27.5 -30.5t31 -39t30.5 -41t26.5 -37.5t18.5 -28.5t7 -12.5z" />
<glyph unicode="&#x63e;" horiz-adv-x="360" d="M248 264q0 -76 -17.5 -127t-47.5 -81.5t-70.5 -43t-87.5 -12.5h-37q-19 0 -30 5.5t-16.5 14.5t-7 20t-1.5 23t1.5 23t7 19.5t16.5 14t30 5.5h37q43 0 76.5 7t56.5 18q21 11 32 23.5t11 19.5q0 6 -10.5 26.5t-22.5 43.5t-22.5 42.5t-10.5 24.5q0 7 9.5 25.5t21.5 38.5 t23 37.5t14 21.5q23 -50 34 -95.5t11 -93.5zM326 669q0 -4 -9 -20t-20.5 -33.5t-22 -31.5t-14.5 -14q-2 0 -15.5 9.5t-29.5 21.5q-18 13 -41 31q-4 4 -7 4t-7 -4q-15 -22 -27 -39q-11 -15 -20.5 -27t-12.5 -12t-17.5 9.5t-30.5 21.5t-29 23t-13 14q0 4 9.5 19.5t21.5 33 t22.5 31.5t12.5 14q5 0 18 -10t27 -21q17 -13 37 -30q6 -6 9 -6t7 8q15 21 28 38q11 14 21 26.5t12 12.5q3 0 18 -10t31 -22.5t29 -23.5t13 -13zM276 -169q0 -4 -9 -20t-20.5 -33.5t-22 -31.5t-14.5 -14q-2 0 -15.5 9.5t-29.5 21.5q-18 13 -41 31q-4 4 -7 4t-7 -4 q-15 -22 -27 -39q-11 -15 -20.5 -27t-12.5 -12t-17.5 9.5t-30.5 21.5t-29 23t-13 14q0 4 9.5 19.5t21.5 33t22.5 31.5t12.5 14q5 0 18 -10t27 -21q17 -13 37 -30q6 -6 9 -6t7 8q15 21 28 38q11 14 21 26.5t12 12.5q3 0 18 -10t31 -22.5t29 -23.5t13 -13z" />
<glyph unicode="&#x63e;" horiz-adv-x="367" d="M436 63q0 -12 -1.5 -23t-7 -20t-16.5 -14.5t-30 -5.5h-39q-28 0 -47 9t-35 26q-11 12 -24 32.5t-21 38.5q-18 -20 -36 -39t-40 -34t-49.5 -24t-64.5 -9h-37q-19 0 -30 5.5t-16.5 14.5t-7 20t-1.5 23t1.5 23t7 19.5t16.5 14t30 5.5h37q45 0 78 9.5t56.5 24.5t39 31.5 t25.5 31.5t16.5 24.5t11.5 9.5q6 0 8 -17t10 -38q4 -12 10.5 -25.5t15 -25t20 -18.5t26.5 -7h39q19 0 30 -5.5t16.5 -14t7 -19.5t1.5 -23zM342 471q0 -4 -9 -20t-20.5 -33.5t-22 -31.5t-14.5 -14q-2 0 -15.5 9.5t-29.5 21.5q-18 13 -41 31q-4 4 -7 4t-7 -4q-15 -22 -27 -39 q-11 -15 -20.5 -27t-12.5 -12t-17.5 9.5t-30.5 21.5t-29 23t-13 14q0 4 9.5 19.5t21.5 33t22.5 31.5t12.5 14q5 0 18 -10t27 -21q17 -13 37 -30q6 -6 9 -6t7 8q15 21 28 38q11 14 21 26.5t12 12.5q3 0 18 -10t31 -22.5t29 -23.5t13 -13zM342 -169q0 -4 -9 -20t-20.5 -33.5 t-22 -31.5t-14.5 -14q-2 0 -15.5 9.5t-29.5 21.5q-18 13 -41 31q-4 4 -7 4t-7 -4q-15 -22 -27 -39q-11 -15 -20.5 -27t-12.5 -12t-17.5 9.5t-30.5 21.5t-29 23t-13 14q0 4 9.5 19.5t21.5 33t22.5 31.5t12.5 14q5 0 18 -10t27 -21q17 -13 37 -30q6 -6 9 -6t7 8q15 21 28 38 q11 14 21 26.5t12 12.5q3 0 18 -10t31 -22.5t29 -23.5t13 -13z" />
<glyph unicode="&#x63e;" horiz-adv-x="980" d="M1047 63q0 -12 -1.5 -23t-7 -20t-16.5 -14.5t-30 -5.5h-107q-28 0 -59.5 -2t-59.5 -10q-34 -10 -55 -30.5t-21 -43.5q0 -12 7 -18.5t19 -10.5t28.5 -6.5t35.5 -5.5q23 -4 52 -12.5t54.5 -23.5t42.5 -37t17 -52q0 -43 -25.5 -81.5t-68 -71t-98 -58t-115 -43.5t-119 -27.5 t-110.5 -9.5q-76 0 -136 20.5t-102 58.5t-64 92t-22 122q0 55 15 110.5t34 100t36.5 72.5t21.5 28q6 0 11 -3t5 -9q0 -3 -10.5 -23.5t-23.5 -53t-23.5 -72.5t-10.5 -82q0 -74 31.5 -117.5t81 -66.5t109 -30t116.5 -7q21 0 61 7t87 18.5t95.5 26.5t88 30.5t65 31t25.5 27.5 q0 22 -31.5 33t-97.5 14q-29 1 -59 4t-55.5 10.5t-41.5 23t-16 42.5q0 25 12.5 51.5t25.5 46.5q79 125 193 154q22 6 41.5 7t42.5 1h77q19 0 30 -5.5t16.5 -14t7 -19.5t1.5 -23zM616 281q0 -4 -9 -20t-20.5 -33.5t-22 -31.5t-14.5 -14q-2 0 -15.5 9.5t-29.5 21.5 q-18 13 -41 31q-4 4 -7 4t-7 -4q-15 -22 -27 -39q-11 -15 -20.5 -27t-12.5 -12t-17.5 9.5t-30.5 21.5t-29 23t-13 14q0 4 9.5 19.5t21.5 33t22.5 31.5t12.5 14q5 0 18 -10t27 -21q17 -13 37 -30q6 -6 9 -6t7 8q15 21 28 38q11 14 21 26.5t12 12.5q3 0 18 -10t31 -22.5 t29 -23.5t13 -13z" />
<glyph unicode="&#x63f;" horiz-adv-x="360" d="M248 264q0 -76 -17.5 -127t-47.5 -81.5t-70.5 -43t-87.5 -12.5h-37q-19 0 -30 5.5t-16.5 14.5t-7 20t-1.5 23t1.5 23t7 19.5t16.5 14t30 5.5h37q43 0 76.5 7t56.5 18q21 11 32 23.5t11 19.5q0 6 -10.5 26.5t-22.5 43.5t-22.5 42.5t-10.5 24.5q0 7 9.5 25.5t21.5 38.5 t23 37.5t14 21.5q23 -50 34 -95.5t11 -93.5zM224 845q0 -4 -9 -20t-20 -33.5t-22 -31.5t-15 -14q-2 0 -16.5 9.5t-31 21.5t-29.5 23.5t-13 15.5t9.5 19.5t21.5 32.5t22.5 30.5t12.5 13.5q4 0 19 -9.5t30.5 -21.5t28 -23t12.5 -13zM326 671q0 -4 -9 -20t-20 -33.5 t-21.5 -31.5t-14.5 -14q-2 0 -15.5 9.5t-28.5 21.5q-18 13 -40 31q-4 4 -8 4q-3 0 -7 -6q-16 -22 -28 -39q-11 -15 -20.5 -27t-12.5 -12t-17.5 9.5t-30.5 22t-29 24t-13 14.5t9.5 18.5t21 32.5t22 31t12.5 14q5 0 18.5 -9.5t27.5 -20.5q17 -13 36 -30q7 -5 10 -5t9 7 q14 21 26 38q11 14 20.5 26t12.5 12t17.5 -9.5t30.5 -21.5t29 -23t13 -13zM276 -169q0 -4 -9 -20t-20.5 -33.5t-22 -31.5t-14.5 -14q-2 0 -15.5 9.5t-29.5 21.5q-18 13 -41 31q-4 4 -7 4t-7 -4q-15 -22 -27 -39q-11 -15 -20.5 -27t-12.5 -12t-17.5 9.5t-30.5 21.5t-29 23 t-13 14q0 4 9.5 19.5t21.5 33t22.5 31.5t12.5 14q5 0 18 -10t27 -21q17 -13 37 -30q6 -6 9 -6t7 8q15 21 28 38q11 14 21 26.5t12 12.5q3 0 18 -10t31 -22.5t29 -23.5t13 -13z" />
<glyph unicode="&#x63f;" horiz-adv-x="367" d="M436 63q0 -12 -1.5 -23t-7 -20t-16.5 -14.5t-30 -5.5h-39q-28 0 -47 9t-35 26q-11 12 -24 32.5t-21 38.5q-18 -20 -36 -39t-40 -34t-49.5 -24t-64.5 -9h-37q-19 0 -30 5.5t-16.5 14.5t-7 20t-1.5 23t1.5 23t7 19.5t16.5 14t30 5.5h37q45 0 78 9.5t56.5 24.5t39 31.5 t25.5 31.5t16.5 24.5t11.5 9.5q6 0 8 -17t10 -38q4 -12 10.5 -25.5t15 -25t20 -18.5t26.5 -7h39q19 0 30 -5.5t16.5 -14t7 -19.5t1.5 -23zM240 647q0 -4 -9 -20t-20 -33.5t-22 -31.5t-15 -14q-2 0 -16.5 9.5t-31 21.5t-29.5 23.5t-13 15.5t9.5 19.5t21.5 32.5t22.5 30.5 t12.5 13.5q4 0 19 -9.5t30.5 -21.5t28 -23t12.5 -13zM342 473q0 -4 -9 -20t-20 -33.5t-21.5 -31.5t-14.5 -14q-2 0 -15.5 9.5t-28.5 21.5q-18 13 -40 31q-4 4 -8 4q-3 0 -7 -6q-16 -22 -28 -39q-11 -15 -20.5 -27t-12.5 -12t-17.5 9.5t-30.5 22t-29 24t-13 14.5t9.5 18.5 t21 32.5t22 31t12.5 14q5 0 18.5 -9.5t27.5 -20.5q17 -13 36 -30q7 -5 10 -5t9 7q14 21 26 38q11 14 20.5 26t12.5 12t17.5 -9.5t30.5 -21.5t29 -23t13 -13zM342 -169q0 -4 -9 -20t-20.5 -33.5t-22 -31.5t-14.5 -14q-2 0 -15.5 9.5t-29.5 21.5q-18 13 -41 31q-4 4 -7 4 t-7 -4q-15 -22 -27 -39q-11 -15 -20.5 -27t-12.5 -12t-17.5 9.5t-30.5 21.5t-29 23t-13 14q0 4 9.5 19.5t21.5 33t22.5 31.5t12.5 14q5 0 18 -10t27 -21q17 -13 37 -30q6 -6 9 -6t7 8q15 21 28 38q11 14 21 26.5t12 12.5q3 0 18 -10t31 -22.5t29 -23.5t13 -13z" />
<glyph unicode="&#x63f;" horiz-adv-x="980" d="M1047 63q0 -12 -1.5 -23t-7 -20t-16.5 -14.5t-30 -5.5h-107q-28 0 -59.5 -2t-59.5 -10q-34 -10 -55 -30.5t-21 -43.5q0 -12 7 -18.5t19 -10.5t28.5 -6.5t35.5 -5.5q23 -4 52 -12.5t54.5 -23.5t42.5 -37t17 -52q0 -43 -25.5 -81.5t-68 -71t-98 -58t-115 -43.5t-119 -27.5 t-110.5 -9.5q-76 0 -136 20.5t-102 58.5t-64 92t-22 122q0 55 15 110.5t34 100t36.5 72.5t21.5 28q6 0 11 -3t5 -9q0 -3 -10.5 -23.5t-23.5 -53t-23.5 -72.5t-10.5 -82q0 -74 31.5 -117.5t81 -66.5t109 -30t116.5 -7q21 0 61 7t87 18.5t95.5 26.5t88 30.5t65 31t25.5 27.5 q0 22 -31.5 33t-97.5 14q-29 1 -59 4t-55.5 10.5t-41.5 23t-16 42.5q0 25 12.5 51.5t25.5 46.5q79 125 193 154q22 6 41.5 7t42.5 1h77q19 0 30 -5.5t16.5 -14t7 -19.5t1.5 -23zM514 457q0 -4 -9 -20t-20 -33.5t-22 -31.5t-15 -14q-2 0 -16.5 9.5t-31 21.5t-29.5 23.5 t-13 15.5t9.5 19.5t21.5 32.5t22.5 30.5t12.5 13.5q4 0 19 -9.5t30.5 -21.5t28 -23t12.5 -13zM616 283q0 -4 -9 -20t-20 -33.5t-21.5 -31.5t-14.5 -14q-2 0 -15.5 9.5t-28.5 21.5q-18 13 -40 31q-4 4 -8 4q-3 0 -7 -6q-16 -22 -28 -39q-11 -15 -20.5 -27t-12.5 -12 t-17.5 9.5t-30.5 22t-29 24t-13 14.5t9.5 18.5t21 32.5t22 31t12.5 14q5 0 18.5 -9.5t27.5 -20.5q17 -13 36 -30q7 -5 10 -5t9 7q14 21 26 38q11 14 20.5 26t12.5 12t17.5 -9.5t30.5 -21.5t29 -23t13 -13z" />
<glyph unicode="&#x641;" horiz-adv-x="430" arabic-form="initial" d="M373 274q0 -18 -3 -38t-9 -41t-16 -41t-23 -37q-14 -17 -42.5 -37.5t-67.5 -38t-86.5 -29.5t-100.5 -12h-37q-19 0 -30 5.5t-16.5 14.5t-7 20t-1.5 23t1.5 23t7 19.5t16.5 14t30 5.5h37q63 0 119 13t98.5 31.5t67 39t24.5 35.5t-12.5 36.5t-26.5 36.5q-8 -16 -18.5 -34.5 t-25.5 -34t-36.5 -25.5t-50.5 -10q-31 0 -50 10t-29.5 26.5t-14.5 38.5t-4 46q0 10 4.5 32.5t12.5 50.5t20 57.5t27 54t32 40t37 15.5q21 0 51 -27t57.5 -71t46.5 -99.5t19 -112.5zM227 391q0 3 -7.5 10t-18 14.5t-21.5 13t-18 5.5q-11 0 -21 -12t-10 -23q0 -12 12.5 -28.5 t30.5 -16.5q7 0 16 4.5t17.5 10.5t14 12t5.5 10zM259 782q0 -4 -9 -19.5t-20.5 -33t-23 -31.5t-15.5 -14q-2 0 -16.5 9t-31 20.5t-29.5 22.5t-13 15t9.5 19.5t21 33t22.5 31.5t14 14q4 0 19 -9.5t31 -21.5t28.5 -23t12.5 -13z" />
<glyph unicode="&#x641;" horiz-adv-x="592" arabic-form="medial" d="M659 63q0 -12 -1.5 -23t-7 -20t-16.5 -14.5t-30 -5.5h-37q-43 0 -77.5 5.5t-67.5 15.5t-66 24.5t-73 32.5q-43 -18 -75.5 -32.5t-61.5 -24.5t-57.5 -15.5t-63.5 -5.5h-37q-19 0 -30 5.5t-16.5 14.5t-7 20t-1.5 23t1.5 23t7 19.5t16.5 14t30 5.5h37q37 0 79 7.5t76 23.5 q-3 11 -4.5 26.5t-1.5 29.5q0 15 7.5 39.5t20.5 53t31 58.5t39 57q35 46 71.5 73t59.5 27q25 0 44.5 -20t33.5 -48.5t21.5 -58.5t7.5 -51q0 -47 -20.5 -97.5t-61.5 -88.5q69 -31 139 -31h37q19 0 30 -5.5t16.5 -14t7 -19.5t1.5 -23zM453 283q0 17 -7.5 33.5t-20.5 30t-31 22 t-38 8.5q-13 0 -32.5 -8.5t-38 -21t-32 -26.5t-13.5 -26q0 -14 7.5 -26.5t19.5 -24t26.5 -22.5t28.5 -21q27 10 50.5 19.5t41.5 19t28.5 20.5t10.5 23zM458 757q0 -4 -9 -19.5t-20.5 -33t-23 -31.5t-15.5 -14q-2 0 -16.5 9t-31 20.5t-29.5 22.5t-13 15t9.5 19.5t21 33 t22.5 31.5t14 14q4 0 19 -9.5t31 -21.5t28.5 -23t12.5 -13z" />
<glyph unicode="&#x641;" horiz-adv-x="1458" arabic-form="final" d="M1525 63q0 -12 -1.5 -23t-7 -20t-16.5 -14.5t-30 -5.5h-38q-52 0 -96.5 8t-78 17.5t-54 17.5t-23.5 8q-80 -36 -166.5 -70.5t-176 -61.5t-180.5 -43.5t-180 -16.5q-63 0 -131.5 11.5t-125 40.5t-93.5 80t-37 130q0 14 9.5 47.5t24.5 68t32.5 61t33.5 26.5l9 -11 q-7 -13 -15.5 -30.5t-16 -36.5t-12.5 -37.5t-5 -32.5q0 -37 19.5 -65.5t50.5 -49t70.5 -34.5t80 -22t78 -11.5t65.5 -3.5q88 0 179.5 18t174.5 42q47 14 92.5 31t83.5 34l3 6q-16 14 -24.5 35t-8.5 41q0 17 8.5 47t22.5 65t32.5 71t39.5 65.5t42 48t41 18.5q15 0 30.5 -11 t29.5 -28t27 -39t22 -43.5t14.5 -41t5.5 -32.5q0 -14 -4.5 -37t-11 -48.5t-15 -48.5t-16.5 -36q1 -8 17.5 -12.5t39 -6.5t48 -2.5t45.5 -0.5h38q19 0 30 -5.5t16.5 -14t7 -19.5t1.5 -23zM1270 272q0 11 -7.5 29t-19 35.5t-24.5 30t-25 12.5t-31 -13.5t-37 -32t-31.5 -37.5 t-13.5 -30q0 -15 10 -27t23.5 -21.5t28 -18t24.5 -15.5q6 4 23 16.5t35 27t31.5 27t13.5 17.5zM1261 707q0 -4 -9 -19.5t-20.5 -33t-23 -31.5t-15.5 -14q-2 0 -16.5 9t-31 20.5t-29.5 22.5t-13 15t9.5 19.5t21 33t22.5 31.5t14 14q4 0 19 -9.5t31 -21.5t28.5 -23t12.5 -13z " />
<glyph unicode="&#x642;" horiz-adv-x="430" arabic-form="initial" d="M373 274q0 -18 -3 -38t-9 -41t-16 -41t-23 -37q-14 -17 -42.5 -37.5t-67.5 -38t-86.5 -29.5t-100.5 -12h-37q-19 0 -30 5.5t-16.5 14.5t-7 20t-1.5 23t1.5 23t7 19.5t16.5 14t30 5.5h37q63 0 119 13t98.5 31.5t67 39t24.5 35.5t-12.5 36.5t-26.5 36.5q-8 -16 -18.5 -34.5 t-25.5 -34t-36.5 -25.5t-50.5 -10q-31 0 -50 10t-29.5 26.5t-14.5 38.5t-4 46q0 10 4.5 32.5t12.5 50.5t20 57.5t27 54t32 40t37 15.5q21 0 51 -27t57.5 -71t46.5 -99.5t19 -112.5zM227 391q0 3 -7.5 10t-18 14.5t-21.5 13t-18 5.5q-11 0 -21 -12t-10 -23q0 -12 12.5 -28.5 t30.5 -16.5q7 0 16 4.5t17.5 10.5t14 12t5.5 10zM338 799q0 -4 -9 -20t-20.5 -33.5t-22 -31.5t-14.5 -14q-2 0 -15.5 9.5t-29.5 21.5q-18 13 -41 31q-4 4 -7 4t-7 -4q-15 -22 -27 -39q-11 -15 -20.5 -27t-12.5 -12t-17.5 9.5t-30.5 21.5t-29 23t-13 14q0 4 9.5 19.5t21.5 33 t22.5 31.5t12.5 14q5 0 18 -10t27 -21q17 -13 37 -30q6 -6 9 -6t7 8q15 21 28 38q11 14 21 26.5t12 12.5q3 0 18 -10t31 -22.5t29 -23.5t13 -13z" />
<glyph unicode="&#x642;" horiz-adv-x="592" arabic-form="medial" d="M659 63q0 -12 -1.5 -23t-7 -20t-16.5 -14.5t-30 -5.5h-37q-43 0 -77.5 5.5t-67.5 15.5t-66 24.5t-73 32.5q-43 -18 -75.5 -32.5t-61.5 -24.5t-57.5 -15.5t-63.5 -5.5h-37q-19 0 -30 5.5t-16.5 14.5t-7 20t-1.5 23t1.5 23t7 19.5t16.5 14t30 5.5h37q37 0 79 7.5t76 23.5 q-3 11 -4.5 26.5t-1.5 29.5q0 15 7.5 39.5t20.5 53t31 58.5t39 57q35 46 71.5 73t59.5 27q25 0 44.5 -20t33.5 -48.5t21.5 -58.5t7.5 -51q0 -47 -20.5 -97.5t-61.5 -88.5q69 -31 139 -31h37q19 0 30 -5.5t16.5 -14t7 -19.5t1.5 -23zM453 283q0 17 -7.5 33.5t-20.5 30t-31 22 t-38 8.5q-13 0 -32.5 -8.5t-38 -21t-32 -26.5t-13.5 -26q0 -14 7.5 -26.5t19.5 -24t26.5 -22.5t28.5 -21q27 10 50.5 19.5t41.5 19t28.5 20.5t10.5 23zM537 774q0 -4 -9 -20t-20.5 -33.5t-22 -31.5t-14.5 -14q-2 0 -15.5 9.5t-29.5 21.5q-18 13 -41 31q-4 4 -7 4t-7 -4 q-15 -22 -27 -39q-11 -15 -20.5 -27t-12.5 -12t-17.5 9.5t-30.5 21.5t-29 23t-13 14q0 4 9.5 19.5t21.5 33t22.5 31.5t12.5 14q5 0 18 -10t27 -21q17 -13 37 -30q6 -6 9 -6t7 8q15 21 28 38q11 14 21 26.5t12 12.5q3 0 18 -10t31 -22.5t29 -23.5t13 -13z" />
<glyph unicode="&#x642;" horiz-adv-x="908" arabic-form="final" d="M976 63q0 -12 -1.5 -23t-7 -20t-16.5 -14.5t-30 -5.5h-89q-2 -18 -7 -38.5t-11.5 -41t-15.5 -40.5t-19 -36q-31 -48 -77 -91.5t-105 -76.5t-129 -53t-148 -20q-44 0 -87 16t-77 47t-55.5 76.5t-21.5 103.5q0 65 17.5 120.5t39.5 95.5t40.5 62.5t21.5 22.5q6 0 12 -5 t6 -11q0 -3 -13 -22.5t-29 -49t-29 -67t-13 -76.5q0 -48 22.5 -81.5t58.5 -55t81.5 -31.5t91.5 -10q45 0 94 9t96.5 26t89.5 41t72 53q15 15 23 33t11 36t3.5 35t1.5 29q-12 -1 -23 -1q-11 -1 -23 -1h-23q-25 0 -50 3.5t-45.5 13.5t-33.5 27t-13 44q0 23 13 61t34 74.5 t48 63t55 26.5q23 0 43 -19t36 -47t27 -60.5t15 -58.5q10 -1 22 -1h25h37q19 0 30 -5.5t16.5 -14t7 -19.5t1.5 -23zM744 121q-4 14 -13 27t-20 23.5t-22.5 17t-19.5 6.5q-16 0 -26.5 -12.5t-10.5 -26.5q0 -11 12 -18t29.5 -10.5t37 -5t33.5 -1.5zM854 514q0 -4 -9 -20 t-20.5 -33.5t-22 -31.5t-14.5 -14q-2 0 -15.5 9.5t-29.5 21.5q-18 13 -41 31q-4 4 -7 4t-7 -4q-15 -22 -27 -39q-11 -15 -20.5 -27t-12.5 -12t-17.5 9.5t-30.5 21.5t-29 23t-13 14q0 4 9.5 19.5t21.5 33t22.5 31.5t12.5 14q5 0 18 -10t27 -21q17 -13 37 -30q6 -6 9 -6t7 8 q15 21 28 38q11 14 21 26.5t12 12.5q3 0 18 -10t31 -22.5t29 -23.5t13 -13z" />
<glyph unicode="&#x643;" horiz-adv-x="829" arabic-form="initial" d="M836 1049q-16 -20 -24.5 -40t-14.5 -36t-12 -27.5t-17 -15.5q-42 -13 -108 -35.5t-141.5 -49.5t-152 -57t-138 -58.5t-100 -53t-38.5 -41.5q0 -9 17 -19.5t44 -24.5t61 -33t69 -44q32 -24 62.5 -54.5t54 -67.5t37.5 -79.5t14 -89.5q0 -73 -31 -117t-87.5 -67.5 t-134.5 -31t-171 -7.5h-37q-19 0 -30 5.5t-16.5 14.5t-7 20t-1.5 23t1.5 23t7 19.5t16.5 14t30 5.5h37q83 0 143.5 3t103.5 11q77 15 107.5 38.5t30.5 43.5q0 18 -16 42t-38.5 48.5t-47 46.5t-42.5 37q-21 17 -47 32t-51.5 27.5t-47.5 23.5t-34 20q-20 16 -28.5 36.5 t-8.5 63.5t5 72t16 39q29 25 69 51t86.5 51.5t96 49.5t96.5 45t89 37.5t73 27.5q20 7 59.5 21t80 28.5t72 25.5t35.5 11q2 0 3.5 -3t5.5 -5z" />
<glyph unicode="&#x643;" horiz-adv-x="944" arabic-form="medial" d="M1013 63q0 -12 -1.5 -23t-7 -20t-16.5 -14.5t-30 -5.5h-38q-35 0 -63.5 11.5t-56.5 33t-58.5 51.5t-69 67t-88.5 79t-117 88q4 -17 5 -41t1 -37q0 -68 -22 -115.5t-74 -78t-138 -44.5t-214 -14h-37q-19 0 -30 5.5t-16.5 14.5t-7 20t-1.5 23t1.5 23t7 19.5t16.5 14t30 5.5 h37q70 0 143.5 3.5t134 16t99 37t38.5 66.5q0 32 -14.5 60t-38 51.5t-53 43t-60.5 35.5q-38 20 -70.5 32t-64.5 38q-11 9 -24 27t-24.5 40.5t-19.5 45.5t-8 43q0 13 4 31t13.5 38t25.5 41t39 39q51 40 122.5 82t149 82t154.5 75t139.5 61t102.5 41.5t45 15.5q8 0 8 -6 q0 -3 -5.5 -22t-12.5 -40.5t-14.5 -39.5t-10.5 -19q-82 -26 -167.5 -60t-166 -70.5t-151.5 -73.5t-124 -70t-83.5 -59.5t-30.5 -41.5q0 -16 32 -33.5t77 -38.5q42 -20 84.5 -42t82.5 -46t77 -48t69 -48q75 -56 132.5 -107.5t104 -91.5t85 -64t76.5 -24h38q19 0 30 -5.5 t16.5 -14t7 -19.5t1.5 -23z" />
<glyph unicode="&#x643;" horiz-adv-x="1333" arabic-form="final" d="M1401 63q0 -12 -1.5 -23t-7 -20t-16.5 -14.5t-30 -5.5h-39q-47 0 -77 19t-49 49.5t-29 68.5t-17 76q-7 -18 -18 -41t-23 -46t-24.5 -43.5t-22.5 -33.5q-26 -32 -85 -64.5t-140.5 -58.5t-180.5 -42.5t-207 -16.5q-87 0 -154 12.5t-113.5 41t-70.5 74.5t-24 114q0 7 3 26 t8 42.5t11 49t12.5 47t12 35t10.5 13.5t8.5 -4t3.5 -9q0 -4 -3 -16t-6 -27.5t-6 -32.5t-3 -30q0 -49 24 -85.5t68.5 -60.5t108 -35.5t141.5 -11.5q37 0 86 3.5t103.5 10.5t111 18t108 25.5t95 32t71.5 39.5q39 31 55.5 74.5t16.5 89.5q0 51 -3.5 115t-8.5 131.5t-10.5 133.5 t-10.5 121.5t-8.5 95t-3.5 54.5q0 6 0.5 16.5t3.5 20.5t8.5 17.5t14.5 7.5q6 0 18.5 -18.5t14.5 -49.5q2 -34 6.5 -88.5t9.5 -119t10 -131.5t10 -125.5t9 -103t7 -61.5q7 -49 14.5 -85.5t20.5 -60.5t35 -36t58 -12h39q19 0 30 -5.5t16.5 -14t7 -19.5t1.5 -23zM740 532 q0 -28 -13.5 -59t-36 -56.5t-52 -42t-62.5 -16.5q-14 0 -34.5 4.5t-42 12t-41.5 17t-32 20.5q25 2 62 6.5t71 11.5t58 16t24 21q0 10 -9.5 14t-24.5 5.5t-31.5 3.5t-31.5 8t-24.5 17.5t-9.5 33.5q0 28 12 63.5t34.5 70t53 66t68.5 52.5q2 -5 5 -19t6 -29.5t5.5 -28.5 t2.5 -17q-12 -4 -28.5 -11t-32.5 -16t-27 -19.5t-11 -21.5q0 -15 10.5 -21.5t26.5 -10t34 -5.5t34 -9t26.5 -21t10.5 -40z" />
<glyph unicode="&#x644;" horiz-adv-x="336" arabic-form="initial" d="M249 371q0 -15 -1.5 -34.5t-4 -39.5t-5.5 -39t-5 -34q-5 -29 -13.5 -67.5t-30 -73t-60 -59t-104.5 -24.5h-37q-19 0 -30 5.5t-16.5 14.5t-7 20t-1.5 23t1.5 23t7 19.5t16.5 14t30 5.5h37q27 0 58.5 8.5t57.5 25.5t43.5 42t17.5 57q0 19 -7 66.5t-18 110.5t-23 135.5 t-23 141.5t-18 128.5t-7 97.5q0 15 5.5 36t14 40.5t19.5 33t23 13.5q1 0 13.5 -18.5t26 -41.5t25 -43t11.5 -22t-9.5 -10t-21.5 -21.5t-21.5 -32.5t-9.5 -43q0 -27 5 -63t12.5 -77.5t16 -86t16 -86.5t12.5 -79.5t5 -65.5z" />
<glyph unicode="&#x644;" horiz-adv-x="403" arabic-form="medial" d="M471 63q0 -12 -1.5 -23t-7 -20t-16.5 -14.5t-30 -5.5h-39q-36 0 -63.5 14.5t-48 41t-36 63t-27.5 80.5q-11 -44 -30 -80.5t-42.5 -63t-50.5 -41t-54 -14.5h-37q-19 0 -30 5.5t-16.5 14.5t-7 20t-1.5 23t1.5 23t7 19.5t16.5 14t30 5.5h37q21 0 43 4.5t32 11.5 q32 23 57.5 59t25.5 89q0 97 -6.5 185.5t-15 168t-15 149.5t-6.5 130q0 16 4.5 34t11.5 33.5t15.5 26t17.5 10.5q7 0 11 -14t4 -60q0 -39 3 -93t7.5 -114t10 -123t11 -120.5t10.5 -106t9 -80.5q5 -43 16 -78t27 -60t36 -38.5t43 -13.5h39q19 0 30 -5.5t16.5 -14t7 -19.5 t1.5 -23z" />
<glyph unicode="&#x644;" horiz-adv-x="850" arabic-form="final" d="M917 63q0 -12 -1.5 -23t-7 -20t-16.5 -14.5t-30 -5.5h-37q-28 0 -49.5 9t-38 24t-28.5 33t-21 36q0 -56 2.5 -110t2.5 -110v-28t-1 -28q-2 -22 -7 -58.5t-22 -76.5q-48 -109 -146 -164t-247 -55q-50 0 -95 12.5t-78.5 41.5t-53.5 78t-20 122q0 30 7 62.5t18 63.5 t23.5 58.5t24.5 48.5t21 33t12 12q8 0 10 -4t2 -10q0 -5 -10 -25.5t-22.5 -49.5t-22.5 -63t-10 -65q0 -48 19.5 -81.5t51.5 -55t74.5 -31.5t87.5 -10q38 0 86 9.5t94 27t85 41t59 51.5q4 6 7 18.5t4.5 28t2 31.5t0.5 30q0 19 -2 69t-5.5 117t-8 144.5t-8.5 151.5 q-5 78 -10 147t-9.5 133.5t-7 126.5t-2.5 127q0 14 5 35.5t12.5 42t15.5 35t14 14.5q1 0 3.5 -43t6 -112t9 -156t14 -174t20.5 -166.5t28 -134.5q5 -17 16.5 -31t26.5 -24.5t30.5 -16.5t29.5 -6h37q19 0 30 -5.5t16.5 -14t7 -19.5t1.5 -23z" />
<glyph unicode="&#x645;" horiz-adv-x="578" arabic-form="initial" d="M498 225q0 -13 -8 -35t-20.5 -43t-27.5 -36t-28 -15q-16 0 -40.5 8t-52 21t-55 28t-49.5 29q-18 -21 -35 -44t-33.5 -44t-33 -39t-33.5 -30q-16 -11 -29.5 -18t-27.5 -7h-37q-19 0 -30 5.5t-16.5 14.5t-7 20t-1.5 23t1.5 23t7 19.5t16.5 14t30 5.5h37q43 0 75 19.5 t57.5 50t46.5 68.5t42 75q14 24 27.5 45.5t28.5 38.5t31 27t36 10q23 0 39.5 -9t31.5 -34q12 -21 23 -47.5t18.5 -53.5t12 -51t4.5 -39zM393 270q0 11 -5.5 24t-15 24.5t-21.5 19.5t-25 8q-20 0 -33.5 -14t-13.5 -31q0 -3 2 -7t10 -9q10 -6 24.5 -11t28.5 -9t25 -6.5 t14 -2.5q10 0 10 14z" />
<glyph unicode="&#x645;" horiz-adv-x="770" arabic-form="medial" d="M837 63q0 -12 -1.5 -23t-7 -20t-16.5 -14.5t-30 -5.5h-37q-33 0 -60.5 7t-52.5 18.5t-49.5 26.5t-50.5 30q-2 -21 -4.5 -40t-9.5 -32.5t-20.5 -21.5t-36.5 -8q-26 0 -54 12t-58.5 32t-63 46t-66.5 55q-21 -24 -42.5 -46.5t-45 -40t-49.5 -28t-57 -10.5h-37q-19 0 -30 5.5 t-16.5 14.5t-7 20t-1.5 23t1.5 23t7 19.5t16.5 14t30 5.5h37q60 0 116.5 27.5t98.5 72.5q1 2 15.5 21t34.5 40.5t41.5 39.5t37.5 18q12 0 20 -1.5t17 -7.5t21.5 -18.5t32.5 -34.5q26 -28 57.5 -56t68 -50.5t76.5 -36.5t83 -14h37q19 0 30 -5.5t16.5 -14t7 -19.5t1.5 -23z M430 143q0 14 -4.5 36t-12.5 43t-18.5 36.5t-21.5 15.5q-9 0 -22.5 -11t-27 -24t-23 -25t-9.5 -13q0 -6 16.5 -21t37.5 -30.5t40 -27t25 -11.5q14 0 17 11t3 21z" />
<glyph unicode="&#x645;" horiz-adv-x="758" arabic-form="final" d="M825 63q0 -12 -1.5 -23t-7 -20t-16.5 -14.5t-30 -5.5h-37q-44 0 -79 2.5t-66 8.5t-60.5 15t-60.5 21q2 -17 3 -39.5t1 -44.5q0 -8 -3.5 -29t-11.5 -43t-20 -38.5t-30 -16.5q-26 0 -49.5 25.5t-41.5 63t-29 79.5t-12 74q-40 -11 -72.5 -22.5t-55 -27t-34.5 -36.5t-12 -49 q0 -21 6.5 -65.5t16.5 -101t21 -118.5t21 -118t16.5 -99.5t6.5 -61.5q0 -14 -4.5 -31t-10.5 -32t-12.5 -25t-10.5 -10q-5 0 -7.5 12t-5 33t-5 49.5t-7.5 61.5q-10 67 -21.5 136t-21 130.5t-15.5 111.5t-6 80q0 50 8 96t27.5 86t51 74t79.5 60q25 14 42.5 28t28.5 25l18 18 t12 7q6 0 16.5 -12t30.5 -30.5t49.5 -39.5t73 -39.5t101.5 -30.5t134 -12h37q19 0 30 -5.5t16.5 -14t7 -19.5t1.5 -23z" />
<glyph unicode="&#x646;" horiz-adv-x="360" arabic-form="initial" d="M248 264q0 -76 -17.5 -127t-47.5 -81.5t-70.5 -43t-87.5 -12.5h-37q-19 0 -30 5.5t-16.5 14.5t-7 20t-1.5 23t1.5 23t7 19.5t16.5 14t30 5.5h37q43 0 76.5 7t56.5 18q21 11 32 23.5t11 19.5q0 6 -10.5 26.5t-22.5 43.5t-22.5 42.5t-10.5 24.5q0 7 9.5 25.5t21.5 38.5 t23 37.5t14 21.5q23 -50 34 -95.5t11 -93.5zM247 652q0 -4 -9 -19.5t-20.5 -33t-23 -31.5t-15.5 -14q-2 0 -16.5 9t-31 20.5t-29.5 22.5t-13 15t9.5 19.5t21 33t22.5 31.5t14 14q4 0 19 -9.5t31 -21.5t28.5 -23t12.5 -13z" />
<glyph unicode="&#x646;" horiz-adv-x="367" arabic-form="medial" d="M436 63q0 -12 -1.5 -23t-7 -20t-16.5 -14.5t-30 -5.5h-39q-28 0 -47 9t-35 26q-11 12 -24 32.5t-21 38.5q-18 -20 -36 -39t-40 -34t-49.5 -24t-64.5 -9h-37q-19 0 -30 5.5t-16.5 14.5t-7 20t-1.5 23t1.5 23t7 19.5t16.5 14t30 5.5h37q45 0 78 9.5t56.5 24.5t39 31.5 t25.5 31.5t16.5 24.5t11.5 9.5q6 0 8 -17t10 -38q4 -12 10.5 -25.5t15 -25t20 -18.5t26.5 -7h39q19 0 30 -5.5t16.5 -14t7 -19.5t1.5 -23zM263 454q0 -4 -9 -19.5t-20.5 -33t-23 -31.5t-15.5 -14q-2 0 -16.5 9t-31 20.5t-29.5 22.5t-13 15t9.5 19.5t21 33t22.5 31.5t14 14 q4 0 19 -9.5t31 -21.5t28.5 -23t12.5 -13z" />
<glyph unicode="&#x646;" horiz-adv-x="920" arabic-form="final" d="M987 63q0 -12 -1.5 -23t-7 -20t-16.5 -14.5t-30 -5.5h-37q-17 0 -34.5 1.5t-28.5 4.5q-2 -35 -8 -81t-16.5 -93.5t-26.5 -92t-38 -77.5q-12 -18 -40 -45t-79 -52.5t-128.5 -44t-188.5 -18.5q-54 0 -101.5 17.5t-83 47.5t-56.5 70.5t-21 86.5q0 58 17 113.5t37.5 99t39 70 t21.5 26.5q8 0 12 -5t4 -12q0 -5 -11 -23.5t-24.5 -46t-24.5 -61.5t-11 -71q0 -48 25 -83t65.5 -58t92 -34.5t105.5 -11.5q55 0 107.5 8.5t97.5 24t79.5 37t55.5 47.5q23 31 30 75t7 101q0 47 -11 79.5t-22 55.5q-6 11 -15 22.5t-9 14.5q0 4 7 23t15.5 39t16.5 36.5t10 16.5 q10 0 18 -17q4 -9 14 -20.5t25 -21t34 -16.5t42 -7h37q19 0 30 -5.5t16.5 -14t7 -19.5t1.5 -23zM534 273q0 -4 -9 -19.5t-20.5 -33t-23 -31.5t-15.5 -14q-2 0 -16.5 9t-31 20.5t-29.5 22.5t-13 15t9.5 19.5t21 33t22.5 31.5t14 14q4 0 19 -9.5t31 -21.5t28.5 -23t12.5 -13z " />
<glyph unicode="&#x647;" horiz-adv-x="725" arabic-form="initial" d="M643 213q0 -65 -23 -101t-75 -36q-29 0 -64.5 6.5t-72 16.5t-71 21t-61.5 19q-29 -21 -57 -45t-58 -45t-63.5 -35t-72.5 -14h-37q-19 0 -30 5.5t-16.5 14.5t-7 20t-1.5 23t1.5 23t7 19.5t16.5 14t30 5.5h37q46 0 86 14t71 31q-15 8 -25 27t-10 36q0 25 9 52t24 55.5 t35 57.5t41 59q-11 3 -20.5 3.5t-18.5 0.5q-6 0 -10 5.5t-4 10.5q0 16 7 37.5t19 41t28 33t34 13.5q25 0 61 -18.5t75.5 -49.5t78 -71t69 -83t49.5 -86.5t19 -80.5zM602 186q-12 22 -31.5 49.5t-43 53.5t-49 48t-48.5 32q-7 -20 -12 -39.5t-11 -39t-14 -38t-20 -35.5 q11 -5 40.5 -11.5t63.5 -12.5t64.5 -10.5t44.5 -4.5q11 0 16 8zM375 315q0 9 -6 23.5t-15.5 28t-21 23t-21.5 9.5q-15 0 -31.5 -10.5t-31 -25.5t-24 -32.5t-9.5 -31.5q0 -16 9.5 -25t23 -15.5t28.5 -11.5t27 -14q9 1 21.5 10.5t24 22.5t19 26.5t7.5 22.5z" />
<glyph unicode="&#x647;" horiz-adv-x="694" arabic-form="medial" d="M762 63q0 -12 -1.5 -23t-7 -20t-16.5 -14.5t-30 -5.5h-37q-48 0 -102 -1t-105 -9q10 -12 20.5 -23.5t19 -26.5t14 -34.5t5.5 -46.5q0 -35 -8.5 -73.5t-27.5 -71.5t-48 -54.5t-69 -21.5q-20 0 -39.5 11.5t-36.5 29t-31 39t-22 42.5q-13 32 -22 68.5t-14 69t-7.5 57.5 l-3.5 35q-41 6 -83 8t-85 2h-37q-19 0 -30 5.5t-16.5 14.5t-7 20t-1.5 23t1.5 23t7 19.5t16.5 14t30 5.5h37q51 0 96.5 5.5t77.5 21.5q33 73 68.5 138.5t70 114t66 77t57.5 28.5q12 0 20.5 -15t14 -36t8 -44t2.5 -38q0 -88 -41.5 -160t-122.5 -123q3 0 19 2.5t40 5.5t54 7.5 t60.5 7.5t59.5 5.5t52 2.5h80q19 0 30 -5.5t16.5 -14t7 -19.5t1.5 -23zM453 305q0 19 -13.5 38t-33.5 19q-24 0 -47.5 -20t-44.5 -50t-37.5 -65.5t-26.5 -66.5q107 41 155 76t48 69zM481 -178q0 18 -13.5 41.5t-42 46.5t-73 42.5t-106.5 29.5q0 -27 10.5 -63t30 -68.5 t47 -55t61.5 -22.5q9 0 24 2.5t28.5 8.5t23.5 15.5t10 22.5z" />
<glyph unicode="&#x647;" horiz-adv-x="553" arabic-form="final" d="M620 63q0 -12 -1.5 -23t-7 -20t-16.5 -14.5t-30 -5.5h-37q-38 0 -64 7.5t-45 29.5t-34 62.5t-31 107.5q-15 -14 -30.5 -29.5t-33.5 -29t-38.5 -22.5t-46.5 -9q-12 0 -37 4.5t-49.5 13t-43 21t-18.5 28.5q0 12 10 35.5t25 50.5t34 54t37 46q33 36 71 62t75 41 q-1 9 -1.5 18.5t-0.5 18.5v13.5t2 13.5q9 37 20.5 60.5t22.5 23.5q1 0 2.5 -11t4.5 -30.5l7 -45.5t9 -55q7 -45 16 -93t16.5 -90t13.5 -71.5t9 -36.5q6 -16 11 -27.5t14.5 -19.5t26.5 -12t46 -4h37q19 0 30 -5.5t16.5 -14t7 -19.5t1.5 -23zM344 272q-5 28 -11 64t-14 67 q-38 -11 -66.5 -30.5t-47.5 -39t-29 -35.5t-10 -19t16.5 -7t38 -7.5t41.5 -6t27 -2.5q11 0 27.5 4t27.5 12z" />
<glyph unicode="&#x648;" horiz-adv-x="573" arabic-form="final" d="M641 63q0 -12 -1.5 -23t-7 -20t-16.5 -14.5t-30 -5.5h-39q-11 0 -20.5 -0.5t-17.5 -0.5q-9 -1 -17 -1q-6 -34 -20 -78.5t-35.5 -91.5t-49 -93t-59.5 -83q-53 -59 -104 -84t-105 -25q-29 0 -68 11.5t-74 26t-59 27.5t-24 17q0 6 4 10.5t12 4.5q7 0 19.5 -3t29 -6.5 t35.5 -6.5t39 -3q43 0 87.5 14.5t87.5 40.5t82 61t71 77t53.5 88t29.5 94q-48 4 -87.5 10.5t-68 18t-44 30t-15.5 47.5q0 13 7 36.5t18.5 50.5t26.5 55t31.5 50.5t33.5 37t33 14.5q26 0 48 -23.5t37.5 -57.5t24.5 -72.5t9 -67.5h88q19 0 30 -5.5t16.5 -14t7 -19.5t1.5 -23z M440 127q0 14 -9 30.5t-23 30.5t-30 23.5t-30 9.5q-20 0 -29.5 -15.5t-9.5 -35.5q0 -14 32.5 -27.5t98.5 -15.5z" />
<glyph unicode="&#x649;" horiz-adv-x="360" d="M248 264q0 -76 -17.5 -127t-47.5 -81.5t-70.5 -43t-87.5 -12.5h-37q-19 0 -30 5.5t-16.5 14.5t-7 20t-1.5 23t1.5 23t7 19.5t16.5 14t30 5.5h37q43 0 76.5 7t56.5 18q21 11 32 23.5t11 19.5q0 6 -10.5 26.5t-22.5 43.5t-22.5 42.5t-10.5 24.5q0 7 9.5 25.5t21.5 38.5 t23 37.5t14 21.5q23 -50 34 -95.5t11 -93.5z" />
<glyph unicode="&#x649;" horiz-adv-x="367" d="M436 63q0 -12 -1.5 -23t-7 -20t-16.5 -14.5t-30 -5.5h-39q-28 0 -47 9t-35 26q-11 12 -24 32.5t-21 38.5q-18 -20 -36 -39t-40 -34t-49.5 -24t-64.5 -9h-37q-19 0 -30 5.5t-16.5 14.5t-7 20t-1.5 23t1.5 23t7 19.5t16.5 14t30 5.5h37q45 0 78 9.5t56.5 24.5t39 31.5 t25.5 31.5t16.5 24.5t11.5 9.5q6 0 8 -17t10 -38q4 -12 10.5 -25.5t15 -25t20 -18.5t26.5 -7h39q19 0 30 -5.5t16.5 -14t7 -19.5t1.5 -23z" />
<glyph unicode="&#x649;" horiz-adv-x="980" arabic-form="final" d="M1047 63q0 -12 -1.5 -23t-7 -20t-16.5 -14.5t-30 -5.5h-107q-28 0 -59.5 -2t-59.5 -10q-34 -10 -55 -30.5t-21 -43.5q0 -12 7 -18.5t19 -10.5t28.5 -6.5t35.5 -5.5q23 -4 52 -12.5t54.5 -23.5t42.5 -37t17 -52q0 -43 -25.5 -81.5t-68 -71t-98 -58t-115 -43.5t-119 -27.5 t-110.5 -9.5q-76 0 -136 20.5t-102 58.5t-64 92t-22 122q0 55 15 110.5t34 100t36.5 72.5t21.5 28q6 0 11 -3t5 -9q0 -3 -10.5 -23.5t-23.5 -53t-23.5 -72.5t-10.5 -82q0 -74 31.5 -117.5t81 -66.5t109 -30t116.5 -7q21 0 61 7t87 18.5t95.5 26.5t88 30.5t65 31t25.5 27.5 q0 22 -31.5 33t-97.5 14q-29 1 -59 4t-55.5 10.5t-41.5 23t-16 42.5q0 25 12.5 51.5t25.5 46.5q79 125 193 154q22 6 41.5 7t42.5 1h77q19 0 30 -5.5t16.5 -14t7 -19.5t1.5 -23z" />
<glyph unicode="&#x64a;" horiz-adv-x="360" arabic-form="initial" d="M248 264q0 -76 -17.5 -127t-47.5 -81.5t-70.5 -43t-87.5 -12.5h-37q-19 0 -30 5.5t-16.5 14.5t-7 20t-1.5 23t1.5 23t7 19.5t16.5 14t30 5.5h37q43 0 76.5 7t56.5 18q21 11 32 23.5t11 19.5q0 6 -10.5 26.5t-22.5 43.5t-22.5 42.5t-10.5 24.5q0 7 9.5 25.5t21.5 38.5 t23 37.5t14 21.5q23 -50 34 -95.5t11 -93.5zM276 -169q0 -4 -9 -20t-20.5 -33.5t-22 -31.5t-14.5 -14q-2 0 -15.5 9.5t-29.5 21.5q-18 13 -41 31q-4 4 -7 4t-7 -4q-15 -22 -27 -39q-11 -15 -20.5 -27t-12.5 -12t-17.5 9.5t-30.5 21.5t-29 23t-13 14q0 4 9.5 19.5t21.5 33 t22.5 31.5t12.5 14q5 0 18 -10t27 -21q17 -13 37 -30q6 -6 9 -6t7 8q15 21 28 38q11 14 21 26.5t12 12.5q3 0 18 -10t31 -22.5t29 -23.5t13 -13z" />
<glyph unicode="&#x64a;" horiz-adv-x="367" arabic-form="medial" d="M436 63q0 -12 -1.5 -23t-7 -20t-16.5 -14.5t-30 -5.5h-39q-28 0 -47 9t-35 26q-11 12 -24 32.5t-21 38.5q-18 -20 -36 -39t-40 -34t-49.5 -24t-64.5 -9h-37q-19 0 -30 5.5t-16.5 14.5t-7 20t-1.5 23t1.5 23t7 19.5t16.5 14t30 5.5h37q45 0 78 9.5t56.5 24.5t39 31.5 t25.5 31.5t16.5 24.5t11.5 9.5q6 0 8 -17t10 -38q4 -12 10.5 -25.5t15 -25t20 -18.5t26.5 -7h39q19 0 30 -5.5t16.5 -14t7 -19.5t1.5 -23zM342 -169q0 -4 -9 -20t-20.5 -33.5t-22 -31.5t-14.5 -14q-2 0 -15.5 9.5t-29.5 21.5q-18 13 -41 31q-4 4 -7 4t-7 -4q-15 -22 -27 -39 q-11 -15 -20.5 -27t-12.5 -12t-17.5 9.5t-30.5 21.5t-29 23t-13 14q0 4 9.5 19.5t21.5 33t22.5 31.5t12.5 14q5 0 18 -10t27 -21q17 -13 37 -30q6 -6 9 -6t7 8q15 21 28 38q11 14 21 26.5t12 12.5q3 0 18 -10t31 -22.5t29 -23.5t13 -13z" />
<glyph unicode="&#x64a;" horiz-adv-x="980" arabic-form="final" d="M1047 63q0 -12 -1.5 -23t-7 -20t-16.5 -14.5t-30 -5.5h-107q-28 0 -59.5 -2t-59.5 -10q-34 -10 -55 -30.5t-21 -43.5q0 -12 7 -18.5t19 -10.5t28.5 -6.5t35.5 -5.5q23 -4 52 -12.5t54.5 -23.5t42.5 -37t17 -52q0 -43 -25.5 -81.5t-68 -71t-98 -58t-115 -43.5t-119 -27.5 t-110.5 -9.5q-76 0 -136 20.5t-102 58.5t-64 92t-22 122q0 55 15 110.5t34 100t36.5 72.5t21.5 28q6 0 11 -3t5 -9q0 -3 -10.5 -23.5t-23.5 -53t-23.5 -72.5t-10.5 -82q0 -74 31.5 -117.5t81 -66.5t109 -30t116.5 -7q21 0 61 7t87 18.5t95.5 26.5t88 30.5t65 31t25.5 27.5 q0 22 -31.5 33t-97.5 14q-29 1 -59 4t-55.5 10.5t-41.5 23t-16 42.5q0 25 12.5 51.5t25.5 46.5q79 125 193 154q22 6 41.5 7t42.5 1h77q19 0 30 -5.5t16.5 -14t7 -19.5t1.5 -23zM604 -693q0 -4 -9 -20t-20.5 -33.5t-22 -31.5t-14.5 -14q-2 0 -15.5 9.5t-29.5 21.5 q-18 13 -41 31q-4 4 -7 4t-7 -4q-15 -22 -27 -39q-11 -15 -20.5 -27t-12.5 -12t-17.5 9.5t-30.5 21.5t-29 23t-13 14q0 4 9.5 19.5t21.5 33t22.5 31.5t12.5 14q5 0 18 -10t27 -21q17 -13 37 -30q6 -6 9 -6t7 8q15 21 28 38q11 14 21 26.5t12 12.5q3 0 18 -10t31 -22.5 t29 -23.5t13 -13z" />
<glyph unicode="&#x66e;" horiz-adv-x="360" d="M248 264q0 -76 -17.5 -127t-47.5 -81.5t-70.5 -43t-87.5 -12.5h-37q-19 0 -30 5.5t-16.5 14.5t-7 20t-1.5 23t1.5 23t7 19.5t16.5 14t30 5.5h37q43 0 76.5 7t56.5 18q21 11 32 23.5t11 19.5q0 6 -10.5 26.5t-22.5 43.5t-22.5 42.5t-10.5 24.5q0 7 9.5 25.5t21.5 38.5 t23 37.5t14 21.5q23 -50 34 -95.5t11 -93.5z" />
<glyph unicode="&#x66e;" horiz-adv-x="367" d="M436 63q0 -12 -1.5 -23t-7 -20t-16.5 -14.5t-30 -5.5h-39q-28 0 -47 9t-35 26q-11 12 -24 32.5t-21 38.5q-18 -20 -36 -39t-40 -34t-49.5 -24t-64.5 -9h-37q-19 0 -30 5.5t-16.5 14.5t-7 20t-1.5 23t1.5 23t7 19.5t16.5 14t30 5.5h37q45 0 78 9.5t56.5 24.5t39 31.5 t25.5 31.5t16.5 24.5t11.5 9.5q6 0 8 -17t10 -38q4 -12 10.5 -25.5t15 -25t20 -18.5t26.5 -7h39q19 0 30 -5.5t16.5 -14t7 -19.5t1.5 -23z" />
<glyph unicode="&#x66e;" horiz-adv-x="1378" d="M1446 63q0 -12 -1 -23t-6 -20t-14.5 -14.5t-26.5 -5.5h-40q-32 0 -57 2.5t-45.5 12t-37.5 27.5t-32 50q-33 -38 -99 -69.5t-156 -55t-200.5 -36.5t-232.5 -13q-88 0 -164 16t-132.5 49.5t-89 84.5t-32.5 122q0 39 10.5 78.5t24 71.5t26.5 52t17 20q3 0 8.5 -3t5.5 -10 q0 -4 -6 -16.5t-13.5 -29.5t-13.5 -38t-6 -41q0 -51 30.5 -92t87 -69t135.5 -43t177 -15q84 0 171 6.5t166 20t143.5 35t103.5 51.5q20 15 27 30t16 15q2 0 4.5 -7.5t7 -18t11.5 -21.5t18 -19q10 -8 24.5 -12t31.5 -6.5t35 -3t36 -0.5h40q17 0 26.5 -5.5t14.5 -14t6 -19.5 t1 -23z" />
<glyph unicode="&#x66f;" horiz-adv-x="430" d="M373 274q0 -18 -3 -38t-9 -41t-16 -41t-23 -37q-14 -17 -42.5 -37.5t-67.5 -38t-86.5 -29.5t-100.5 -12h-37q-19 0 -30 5.5t-16.5 14.5t-7 20t-1.5 23t1.5 23t7 19.5t16.5 14t30 5.5h37q63 0 119 13t98.5 31.5t67 39t24.5 35.5t-12.5 36.5t-26.5 36.5q-8 -16 -18.5 -34.5 t-25.5 -34t-36.5 -25.5t-50.5 -10q-31 0 -50 10t-29.5 26.5t-14.5 38.5t-4 46q0 10 4.5 32.5t12.5 50.5t20 57.5t27 54t32 40t37 15.5q21 0 51 -27t57.5 -71t46.5 -99.5t19 -112.5zM227 391q0 3 -7.5 10t-18 14.5t-21.5 13t-18 5.5q-11 0 -21 -12t-10 -23q0 -12 12.5 -28.5 t30.5 -16.5q7 0 16 4.5t17.5 10.5t14 12t5.5 10z" />
<glyph unicode="&#x66f;" horiz-adv-x="592" d="M659 63q0 -12 -1.5 -23t-7 -20t-16.5 -14.5t-30 -5.5h-37q-43 0 -77.5 5.5t-67.5 15.5t-66 24.5t-73 32.5q-43 -18 -75.5 -32.5t-61.5 -24.5t-57.5 -15.5t-63.5 -5.5h-37q-19 0 -30 5.5t-16.5 14.5t-7 20t-1.5 23t1.5 23t7 19.5t16.5 14t30 5.5h37q37 0 79 7.5t76 23.5 q-3 11 -4.5 26.5t-1.5 29.5q0 15 7.5 39.5t20.5 53t31 58.5t39 57q35 46 71.5 73t59.5 27q25 0 44.5 -20t33.5 -48.5t21.5 -58.5t7.5 -51q0 -47 -20.5 -97.5t-61.5 -88.5q69 -31 139 -31h37q19 0 30 -5.5t16.5 -14t7 -19.5t1.5 -23zM453 283q0 17 -7.5 33.5t-20.5 30t-31 22 t-38 8.5q-13 0 -32.5 -8.5t-38 -21t-32 -26.5t-13.5 -26q0 -14 7.5 -26.5t19.5 -24t26.5 -22.5t28.5 -21q27 10 50.5 19.5t41.5 19t28.5 20.5t10.5 23z" />
<glyph unicode="&#x66f;" horiz-adv-x="908" d="M976 63q0 -12 -1.5 -23t-7 -20t-16.5 -14.5t-30 -5.5h-89q-2 -18 -7 -38.5t-11.5 -41t-15.5 -40.5t-19 -36q-31 -48 -77 -91.5t-105 -76.5t-129 -53t-148 -20q-44 0 -87 16t-77 47t-55.5 76.5t-21.5 103.5q0 65 17.5 120.5t39.5 95.5t40.5 62.5t21.5 22.5q6 0 12 -5 t6 -11q0 -3 -13 -22.5t-29 -49t-29 -67t-13 -76.5q0 -48 22.5 -81.5t58.5 -55t81.5 -31.5t91.5 -10q45 0 94 9t96.5 26t89.5 41t72 53q15 15 23 33t11 36t3.5 35t1.5 29q-12 -1 -23 -1q-11 -1 -23 -1h-23q-25 0 -50 3.5t-45.5 13.5t-33.5 27t-13 44q0 23 13 61t34 74.5 t48 63t55 26.5q23 0 43 -19t36 -47t27 -60.5t15 -58.5q10 -1 22 -1h25h37q19 0 30 -5.5t16.5 -14t7 -19.5t1.5 -23zM744 121q-4 14 -13 27t-20 23.5t-22.5 17t-19.5 6.5q-16 0 -26.5 -12.5t-10.5 -26.5q0 -11 12 -18t29.5 -10.5t37 -5t33.5 -1.5z" />
<glyph unicode="&#x671;" horiz-adv-x="362" arabic-form="final" d="M430 63q0 -12 -1.5 -23t-7 -20t-16.5 -14.5t-30 -5.5h-37q-33 0 -63.5 6.5t-55 25.5t-41 52t-21.5 86q-4 40 -9 91.5t-10.5 108.5t-12 116t-13.5 114q-6 46 -12 89.5t-10.5 80.5t-7 66t-2.5 47q0 5 8.5 22.5t19 36.5t20.5 34t13 15q2 0 5.5 -4t3.5 -16q4 -56 10.5 -132 t14 -159t15.5 -166t15.5 -152t14.5 -117.5t13 -62.5q8 -19 20 -30.5t26 -17.5t29 -7.5t30 -1.5h37q19 0 30 -5.5t16.5 -14t7 -19.5t1.5 -23zM311 1208q0 -9 -8.5 -25.5t-27 -32.5t-47 -28t-67.5 -12q-6 0 -25.5 0.5t-43 1.5t-45 1.5t-31.5 0.5q-14 0 -22 -2t-12.5 -5 t-6.5 -7t-4 -7q-3 -6 -6 -6q-4 0 -4 9q0 7 2 17t8 19.5t16 17.5t25 13q17 5 44 5.5t50 0.5q14 28 27.5 51t30 40t36.5 26.5t47 9.5q29 0 46.5 -20t17.5 -68zM258 1206q0 13 -10.5 20t-28.5 7q-9 0 -20 -6.5t-22 -16t-20.5 -21t-15.5 -20.5q17 0 37.5 1t38 5t29.5 11.5 t12 19.5z" />
<glyph unicode="&#x672;" horiz-adv-x="362" d="M430 63q0 -12 -1.5 -23t-7 -20t-16.5 -14.5t-30 -5.5h-37q-33 0 -63.5 6.5t-55 25.5t-41 52t-21.5 86q-4 40 -9 91.5t-10.5 108.5t-12 116t-13.5 114q-6 46 -12 89.5t-10.5 80.5t-7 66t-2.5 47q0 5 8.5 22.5t19 36.5t20.5 34t13 15q2 0 5.5 -4t3.5 -16q4 -56 10.5 -132 t14 -159t15.5 -166t15.5 -152t14.5 -117.5t13 -62.5q8 -19 20 -30.5t26 -17.5t29 -7.5t30 -1.5h37q19 0 30 -5.5t16.5 -14t7 -19.5t1.5 -23zM316 1246q0 -3 -2.5 -12t-7.5 -18.5t-11.5 -18.5t-15.5 -12q-14 -3 -50.5 -16.5t-76.5 -29.5q-49 -20 -80.5 -34.5t-56.5 -14.5 q-17 0 -29.5 5t-23.5 11.5t-22 11.5t-26 5t-28 -3.5t-23.5 -7.5t-18 -7.5t-11.5 -3.5q-8 0 -9.5 3.5t-1.5 8.5q0 3 10 13t26.5 20.5t37 19t41.5 8.5q22 0 36 -4t23.5 -9t17.5 -9t19 -4t21.5 4.5t20.5 11l20 13t20 10.5q-8 3 -18 8.5t-18.5 13.5t-14.5 18.5t-6 24.5 q0 12 6 27t15.5 30t21.5 29.5t24 26.5q19 19 32 29t23.5 15t19.5 6t20 1q21 0 32 -17.5t11 -37.5q0 -6 -3 -16t-7 -20.5t-8.5 -18t-6.5 -7.5q-4 0 -12 3.5t-18.5 8t-21.5 8t-20 3.5q-18 0 -33.5 -12t-15.5 -23q0 -3 11.5 -11.5t28 -17.5t35.5 -17t34 -9q12 3 25.5 6t25.5 6 t21 4.5t12 1.5q6 0 6 -4z" />
<glyph unicode="&#x673;" horiz-adv-x="362" d="M430 63q0 -12 -1.5 -23t-7 -20t-16.5 -14.5t-30 -5.5h-37q-33 0 -63.5 6.5t-55 25.5t-41 52t-21.5 86q-4 40 -9 91.5t-10.5 108.5t-12 116t-13.5 114q-6 46 -12 89.5t-10.5 80.5t-7 66t-2.5 47q0 5 8.5 22.5t19 36.5t20.5 34t13 15q2 0 5.5 -4t3.5 -16q4 -56 10.5 -132 t14 -159t15.5 -166t15.5 -152t14.5 -117.5t13 -62.5q8 -19 20 -30.5t26 -17.5t29 -7.5t30 -1.5h37q19 0 30 -5.5t16.5 -14t7 -19.5t1.5 -23zM407 -270q0 -3 -2.5 -12t-7.5 -18.5t-11.5 -18.5t-15.5 -12q-14 -3 -50.5 -16.5t-76.5 -29.5q-49 -20 -80.5 -34.5t-56.5 -14.5 q-17 0 -29.5 5t-23.5 11.5t-22 11.5t-26 5t-28 -3.5t-23.5 -7.5t-18 -7.5t-11.5 -3.5q-8 0 -9.5 3.5t-1.5 8.5q0 3 10 13t26.5 20.5t37 19t41.5 8.5q22 0 36 -4t23.5 -9t17.5 -9t19 -4t21.5 4.5t20.5 11l20 13t20 10.5q-8 3 -18 8.5t-18.5 13.5t-14.5 18.5t-6 24.5 q0 12 6 27t15.5 30t21.5 29.5t24 26.5q19 19 32 29t23.5 15t19.5 6t20 1q21 0 32 -17.5t11 -37.5q0 -6 -3 -16t-7 -20.5t-8.5 -18t-6.5 -7.5q-4 0 -12 3.5t-18.5 8t-21.5 8t-20 3.5q-18 0 -33.5 -12t-15.5 -23q0 -3 11.5 -11.5t28 -17.5t35.5 -17t34 -9q12 3 25.5 6t25.5 6 t21 4.5t12 1.5q6 0 6 -4z" />
<glyph unicode="&#x675;" horiz-adv-x="362" d="M430 63q0 -12 -1.5 -23t-7 -20t-16.5 -14.5t-30 -5.5h-37q-33 0 -63.5 6.5t-55 25.5t-41 52t-21.5 86q-4 40 -9 91.5t-10.5 108.5t-12 116t-13.5 114q-6 46 -12 89.5t-10.5 80.5t-7 66t-2.5 47q0 5 8.5 22.5t19 36.5t20.5 34t13 15q2 0 5.5 -4t3.5 -16q4 -56 10.5 -132 t14 -159t15.5 -166t15.5 -152t14.5 -117.5t13 -62.5q8 -19 20 -30.5t26 -17.5t29 -7.5t30 -1.5h37q19 0 30 -5.5t16.5 -14t7 -19.5t1.5 -23zM429 1244q0 -3 -2.5 -12t-7.5 -18.5t-12.5 -18.5t-16.5 -12q-6 -2 -18.5 -6.5t-29.5 -11t-37 -14.5t-40 -15q-49 -19 -72.5 -30 t-31.5 -11t-8 8q0 4 3 11.5t7 15.5t8 15.5t6 10.5q3 3 9.5 7.5t14 9t14.5 7.5t11 5q-8 2 -17.5 7.5t-17.5 14t-14 19.5t-6 25q0 12 6 26.5t15.5 29t21 28.5t23.5 26q19 19 33 29.5t24.5 15t19.5 5.5t19 1q22 0 32.5 -17.5t10.5 -37.5q0 -5 -3 -15t-7.5 -20t-9 -17t-7.5 -7 q-4 0 -12 3.5t-18 7.5t-21 7.5t-20 3.5q-17 0 -32.5 -12t-15.5 -23q0 -3 11 -11.5t27.5 -18t35 -17t33.5 -8.5q12 3 26 6t26.5 5.5t21.5 4.5t12 3q2 0 4 -0.5t2 -4.5z" />
<glyph unicode="&#x676;" horiz-adv-x="573" d="M641 63q0 -12 -1.5 -23t-7 -20t-16.5 -14.5t-30 -5.5h-39q-11 0 -20.5 -0.5t-17.5 -0.5q-9 -1 -17 -1q-6 -34 -20 -78.5t-35.5 -91.5t-49 -93t-59.5 -83q-53 -59 -104 -84t-105 -25q-29 0 -68 11.5t-74 26t-59 27.5t-24 17q0 6 4 10.5t12 4.5q7 0 19.5 -3t29 -6.5 t35.5 -6.5t39 -3q43 0 87.5 14.5t87.5 40.5t82 61t71 77t53.5 88t29.5 94q-48 4 -87.5 10.5t-68 18t-44 30t-15.5 47.5q0 13 7 36.5t18.5 50.5t26.5 55t31.5 50.5t33.5 37t33 14.5q26 0 48 -23.5t37.5 -57.5t24.5 -72.5t9 -67.5h88q19 0 30 -5.5t16.5 -14t7 -19.5t1.5 -23z M440 127q0 14 -9 30.5t-23 30.5t-30 23.5t-30 9.5q-20 0 -29.5 -15.5t-9.5 -35.5q0 -14 32.5 -27.5t98.5 -15.5zM668 598q0 -3 -2.5 -12t-7.5 -18.5t-12.5 -18.5t-16.5 -12q-6 -2 -18.5 -6.5t-29.5 -11t-37 -14.5t-40 -15q-49 -19 -72.5 -30t-31.5 -11t-8 8q0 4 3 11.5 t7 15.5t8 15.5t6 10.5q3 3 9.5 7.5t14 9t14.5 7.5t11 5q-8 2 -17.5 7.5t-17.5 14t-14 19.5t-6 25q0 12 6 26.5t15.5 29t21 28.5t23.5 26q19 19 33 29.5t24.5 15t19.5 5.5t19 1q22 0 32.5 -17.5t10.5 -37.5q0 -5 -3 -15t-7.5 -20t-9 -17t-7.5 -7q-4 0 -12 3.5t-18 7.5 t-21 7.5t-20 3.5q-17 0 -32.5 -12t-15.5 -23q0 -3 11 -11.5t27.5 -18t35 -17t33.5 -8.5q12 3 26 6t26.5 5.5t21.5 4.5t12 3q2 0 4 -0.5t2 -4.5z" />
<glyph unicode="&#x677;" horiz-adv-x="573" d="M641 63q0 -12 -1.5 -23t-7 -20t-16.5 -14.5t-30 -5.5h-39q-11 0 -20.5 -0.5t-17.5 -0.5q-9 -1 -17 -1q-6 -34 -20 -78.5t-35.5 -91.5t-49 -93t-59.5 -83q-53 -59 -104 -84t-105 -25q-29 0 -68 11.5t-74 26t-59 27.5t-24 17q0 6 4 10.5t12 4.5q7 0 19.5 -3t29 -6.5 t35.5 -6.5t39 -3q43 0 87.5 14.5t87.5 40.5t82 61t71 77t53.5 88t29.5 94q-48 4 -87.5 10.5t-68 18t-44 30t-15.5 47.5q0 13 7 36.5t18.5 50.5t26.5 55t31.5 50.5t33.5 37t33 14.5q26 0 48 -23.5t37.5 -57.5t24.5 -72.5t9 -67.5h88q19 0 30 -5.5t16.5 -14t7 -19.5t1.5 -23z M440 127q0 14 -9 30.5t-23 30.5t-30 23.5t-30 9.5q-20 0 -29.5 -15.5t-9.5 -35.5q0 -14 32.5 -27.5t98.5 -15.5zM296 825q21 0 34 -11t19.5 -25.5t8.5 -29.5t2 -23q0 -26 -8 -54t-22 -56q15 -11 27 -19t19 -12q4 -3 4 -9q0 -8 -3.5 -20t-8.5 -23t-10.5 -19.5t-8.5 -8.5 q-7 0 -25.5 9.5t-41.5 25.5q-21 -27 -43.5 -49.5t-44.5 -39.5t-42 -26.5t-35 -9.5q-16 0 -33 4.5t-30 10.5q64 35 110 72t76 71q-22 20 -37.5 42t-15.5 42q0 21 9.5 48.5t25 52t35 41t39.5 16.5zM240 725q0 -14 15 -32t35 -35q9 21 9 35q0 20 -15 32.5t-29 12.5 q-15 0 -15 -13zM703 689q0 -3 -2.5 -12t-7.5 -18.5t-12.5 -18.5t-16.5 -12q-6 -2 -18.5 -6.5t-29.5 -11t-37 -14.5t-40 -15q-49 -19 -72.5 -30t-31.5 -11t-8 8q0 4 3 11.5t7 15.5t8 15.5t6 10.5q3 3 9.5 7.5t14 9t14.5 7.5t11 5q-8 2 -17.5 7.5t-17.5 14t-14 19.5t-6 25 q0 12 6 26.5t15.5 29t21 28.5t23.5 26q19 19 33 29.5t24.5 15t19.5 5.5t19 1q22 0 32.5 -17.5t10.5 -37.5q0 -5 -3 -15t-7.5 -20t-9 -17t-7.5 -7q-4 0 -12 3.5t-18 7.5t-21 7.5t-20 3.5q-17 0 -32.5 -12t-15.5 -23q0 -3 11 -11.5t27.5 -18t35 -17t33.5 -8.5q12 3 26 6 t26.5 5.5t21.5 4.5t12 3q2 0 4 -0.5t2 -4.5z" />
<glyph unicode="&#x678;" horiz-adv-x="360" d="M248 264q0 -76 -17.5 -127t-47.5 -81.5t-70.5 -43t-87.5 -12.5h-37q-19 0 -30 5.5t-16.5 14.5t-7 20t-1.5 23t1.5 23t7 19.5t16.5 14t30 5.5h37q43 0 76.5 7t56.5 18q21 11 32 23.5t11 19.5q0 6 -10.5 26.5t-22.5 43.5t-22.5 42.5t-10.5 24.5q0 7 9.5 25.5t21.5 38.5 t23 37.5t14 21.5q23 -50 34 -95.5t11 -93.5zM461 705q0 -3 -2.5 -12t-7.5 -18.5t-12.5 -18.5t-16.5 -12q-6 -2 -18.5 -6.5t-29.5 -11t-37 -14.5t-40 -15q-49 -19 -72.5 -30t-31.5 -11t-8 8q0 4 3 11.5t7 15.5t8 15.5t6 10.5q3 3 9.5 7.5t14 9t14.5 7.5t11 5q-8 2 -17.5 7.5 t-17.5 14t-14 19.5t-6 25q0 12 6 26.5t15.5 29t21 28.5t23.5 26q19 19 33 29.5t24.5 15t19.5 5.5t19 1q22 0 32.5 -17.5t10.5 -37.5q0 -5 -3 -15t-7.5 -20t-9 -17t-7.5 -7q-4 0 -12 3.5t-18 7.5t-21 7.5t-20 3.5q-17 0 -32.5 -12t-15.5 -23q0 -3 11 -11.5t27.5 -18t35 -17 t33.5 -8.5q12 3 26 6t26.5 5.5t21.5 4.5t12 3q2 0 4 -0.5t2 -4.5z" />
<glyph unicode="&#x678;" horiz-adv-x="367" d="M436 63q0 -12 -1.5 -23t-7 -20t-16.5 -14.5t-30 -5.5h-39q-28 0 -47 9t-35 26q-11 12 -24 32.5t-21 38.5q-18 -20 -36 -39t-40 -34t-49.5 -24t-64.5 -9h-37q-19 0 -30 5.5t-16.5 14.5t-7 20t-1.5 23t1.5 23t7 19.5t16.5 14t30 5.5h37q45 0 78 9.5t56.5 24.5t39 31.5 t25.5 31.5t16.5 24.5t11.5 9.5q6 0 8 -17t10 -38q4 -12 10.5 -25.5t15 -25t20 -18.5t26.5 -7h39q19 0 30 -5.5t16.5 -14t7 -19.5t1.5 -23zM477 507q0 -3 -2.5 -12t-7.5 -18.5t-12.5 -18.5t-16.5 -12q-6 -2 -18.5 -6.5t-29.5 -11t-37 -14.5t-40 -15q-49 -19 -72.5 -30 t-31.5 -11t-8 8q0 4 3 11.5t7 15.5t8 15.5t6 10.5q3 3 9.5 7.5t14 9t14.5 7.5t11 5q-8 2 -17.5 7.5t-17.5 14t-14 19.5t-6 25q0 12 6 26.5t15.5 29t21 28.5t23.5 26q19 19 33 29.5t24.5 15t19.5 5.5t19 1q22 0 32.5 -17.5t10.5 -37.5q0 -5 -3 -15t-7.5 -20t-9 -17t-7.5 -7 q-4 0 -12 3.5t-18 7.5t-21 7.5t-20 3.5q-17 0 -32.5 -12t-15.5 -23q0 -3 11 -11.5t27.5 -18t35 -17t33.5 -8.5q12 3 26 6t26.5 5.5t21.5 4.5t12 3q2 0 4 -0.5t2 -4.5z" />
<glyph unicode="&#x678;" horiz-adv-x="980" d="M1047 63q0 -12 -1.5 -23t-7 -20t-16.5 -14.5t-30 -5.5h-107q-28 0 -59.5 -2t-59.5 -10q-34 -10 -55 -30.5t-21 -43.5q0 -12 7 -18.5t19 -10.5t28.5 -6.5t35.5 -5.5q23 -4 52 -12.5t54.5 -23.5t42.5 -37t17 -52q0 -43 -25.5 -81.5t-68 -71t-98 -58t-115 -43.5t-119 -27.5 t-110.5 -9.5q-76 0 -136 20.5t-102 58.5t-64 92t-22 122q0 55 15 110.5t34 100t36.5 72.5t21.5 28q6 0 11 -3t5 -9q0 -3 -10.5 -23.5t-23.5 -53t-23.5 -72.5t-10.5 -82q0 -74 31.5 -117.5t81 -66.5t109 -30t116.5 -7q21 0 61 7t87 18.5t95.5 26.5t88 30.5t65 31t25.5 27.5 q0 22 -31.5 33t-97.5 14q-29 1 -59 4t-55.5 10.5t-41.5 23t-16 42.5q0 25 12.5 51.5t25.5 46.5q79 125 193 154q22 6 41.5 7t42.5 1h77q19 0 30 -5.5t16.5 -14t7 -19.5t1.5 -23zM751 317q0 -3 -2.5 -12t-7.5 -18.5t-12.5 -18.5t-16.5 -12q-6 -2 -18.5 -6.5t-29.5 -11 t-37 -14.5t-40 -15q-49 -19 -72.5 -30t-31.5 -11t-8 8q0 4 3 11.5t7 15.5t8 15.5t6 10.5q3 3 9.5 7.5t14 9t14.5 7.5t11 5q-8 2 -17.5 7.5t-17.5 14t-14 19.5t-6 25q0 12 6 26.5t15.5 29t21 28.5t23.5 26q19 19 33 29.5t24.5 15t19.5 5.5t19 1q22 0 32.5 -17.5t10.5 -37.5 q0 -5 -3 -15t-7.5 -20t-9 -17t-7.5 -7q-4 0 -12 3.5t-18 7.5t-21 7.5t-20 3.5q-17 0 -32.5 -12t-15.5 -23q0 -3 11 -11.5t27.5 -18t35 -17t33.5 -8.5q12 3 26 6t26.5 5.5t21.5 4.5t12 3q2 0 4 -0.5t2 -4.5z" />
<glyph unicode="&#x679;" horiz-adv-x="360" arabic-form="initial" d="M248 264q0 -76 -17.5 -127t-47.5 -81.5t-70.5 -43t-87.5 -12.5h-37q-19 0 -30 5.5t-16.5 14.5t-7 20t-1.5 23t1.5 23t7 19.5t16.5 14t30 5.5h37q43 0 76.5 7t56.5 18q21 11 32 23.5t11 19.5q0 6 -10.5 26.5t-22.5 43.5t-22.5 42.5t-10.5 24.5q0 7 9.5 25.5t21.5 38.5 t23 37.5t14 21.5q23 -50 34 -95.5t11 -93.5zM378 730q0 -35 -17 -61.5t-44.5 -46t-63.5 -33t-73.5 -21.5t-74.5 -11.5t-66 -3.5q-12 0 -26 8t-26 19t-20.5 23t-8.5 20q0 9 8 9q11 0 30 -2.5t39 -2.5q21 0 32.5 8.5t17.5 25.5q5 14 7 28.5t2 22.5q0 34 -5 66.5t-11 65t-11 65 t-5 67.5q0 12 3 24t7.5 22t10 16t10.5 6q2 0 8.5 -10t14 -22t13 -22t5.5 -11q-8 -7 -14.5 -17t-6.5 -30t3 -38t6.5 -38t6.5 -43.5t3 -54.5q0 -27 -3 -60q97 115 175 115q35 0 54.5 -24.5t19.5 -58.5zM334 700q0 5 -6 9.5t-15 8t-20 5.5t-20 2q-19 0 -36 -4.5t-34.5 -15 t-36.5 -28.5t-41 -44q59 4 99 14.5t64.5 21.5t35 20t10.5 11z" />
<glyph unicode="&#x679;" horiz-adv-x="367" arabic-form="medial" d="M436 63q0 -12 -1.5 -23t-7 -20t-16.5 -14.5t-30 -5.5h-39q-28 0 -47 9t-35 26q-11 12 -24 32.5t-21 38.5q-18 -20 -36 -39t-40 -34t-49.5 -24t-64.5 -9h-37q-19 0 -30 5.5t-16.5 14.5t-7 20t-1.5 23t1.5 23t7 19.5t16.5 14t30 5.5h37q45 0 78 9.5t56.5 24.5t39 31.5 t25.5 31.5t16.5 24.5t11.5 9.5q6 0 8 -17t10 -38q4 -12 10.5 -25.5t15 -25t20 -18.5t26.5 -7h39q19 0 30 -5.5t16.5 -14t7 -19.5t1.5 -23zM394 532q0 -35 -17 -61.5t-44.5 -46t-63.5 -33t-73.5 -21.5t-74.5 -11.5t-66 -3.5q-12 0 -26 8t-26 19t-20.5 23t-8.5 20q0 9 8 9 q11 0 30 -2.5t39 -2.5q21 0 32.5 8.5t17.5 25.5q5 14 7 28.5t2 22.5q0 34 -5 66.5t-11 65t-11 65t-5 67.5q0 12 3 24t7.5 22t10 16t10.5 6q2 0 8.5 -10t14 -22t13 -22t5.5 -11q-8 -7 -14.5 -17t-6.5 -30t3 -38t6.5 -38t6.5 -43.5t3 -54.5q0 -27 -3 -60q97 115 175 115 q35 0 54.5 -24.5t19.5 -58.5zM350 502q0 5 -6 9.5t-15 8t-20 5.5t-20 2q-19 0 -36 -4.5t-34.5 -15t-36.5 -28.5t-41 -44q59 4 99 14.5t64.5 21.5t35 20t10.5 11z" />
<glyph unicode="&#x679;" horiz-adv-x="1378" arabic-form="final" d="M1446 63q0 -12 -1 -23t-6 -20t-14.5 -14.5t-26.5 -5.5h-40q-32 0 -57 2.5t-45.5 12t-37.5 27.5t-32 50q-33 -38 -99 -69.5t-156 -55t-200.5 -36.5t-232.5 -13q-88 0 -164 16t-132.5 49.5t-89 84.5t-32.5 122q0 39 10.5 78.5t24 71.5t26.5 52t17 20q3 0 8.5 -3t5.5 -10 q0 -4 -6 -16.5t-13.5 -29.5t-13.5 -38t-6 -41q0 -51 30.5 -92t87 -69t135.5 -43t177 -15q84 0 171 6.5t166 20t143.5 35t103.5 51.5q20 15 27 30t16 15q2 0 4.5 -7.5t7 -18t11.5 -21.5t18 -19q10 -8 24.5 -12t31.5 -6.5t35 -3t36 -0.5h40q17 0 26.5 -5.5t14.5 -14t6 -19.5 t1 -23zM859 526q0 -35 -17 -61.5t-44.5 -46t-63.5 -33t-73.5 -21.5t-74.5 -11.5t-66 -3.5q-12 0 -26 8t-26 19t-20.5 23t-8.5 20q0 9 8 9q11 0 30 -2.5t39 -2.5q21 0 32.5 8.5t17.5 25.5q5 14 7 28.5t2 22.5q0 34 -5 66.5t-11 65t-11 65t-5 67.5q0 12 3 24t7.5 22t10 16 t10.5 6q2 0 8.5 -10t14 -22t13 -22t5.5 -11q-8 -7 -14.5 -17t-6.5 -30t3 -38t6.5 -38t6.5 -43.5t3 -54.5q0 -27 -3 -60q97 115 175 115q35 0 54.5 -24.5t19.5 -58.5zM815 496q0 5 -6 9.5t-15 8t-20 5.5t-20 2q-19 0 -36 -4.5t-34.5 -15t-36.5 -28.5t-41 -44q59 4 99 14.5 t64.5 21.5t35 20t10.5 11z" />
<glyph unicode="&#x67a;" horiz-adv-x="360" arabic-form="initial" d="M248 264q0 -76 -17.5 -127t-47.5 -81.5t-70.5 -43t-87.5 -12.5h-37q-19 0 -30 5.5t-16.5 14.5t-7 20t-1.5 23t1.5 23t7 19.5t16.5 14t30 5.5h37q43 0 76.5 7t56.5 18q21 11 32 23.5t11 19.5q0 6 -10.5 26.5t-22.5 43.5t-22.5 42.5t-10.5 24.5q0 7 9.5 25.5t21.5 38.5 t23 37.5t14 21.5q23 -50 34 -95.5t11 -93.5zM251 650q0 -3 -9 -18.5t-20.5 -32.5t-22 -31t-14.5 -14q-3 0 -17.5 9t-30.5 20.5t-29 22.5t-13 15q0 3 6.5 15t15.5 26.5t19.5 29t18.5 22.5q6 8 6 13q0 4 -4 7q-9 6 -21.5 15t-24 18t-19 16.5t-7.5 9.5q0 4 9 20t20.5 33.5 t22 31.5t13.5 14q5 0 20 -10t30.5 -22t28 -23t12.5 -13q0 -3 -6.5 -15t-15.5 -27t-19 -29t-17 -21q-2 -2 -6 -6.5t-4 -9.5q0 -4 4 -7q9 -5 22 -14t24.5 -18.5t19.5 -17t8 -9.5z" />
<glyph unicode="&#x67a;" horiz-adv-x="367" arabic-form="medial" d="M436 63q0 -12 -1.5 -23t-7 -20t-16.5 -14.5t-30 -5.5h-39q-28 0 -47 9t-35 26q-11 12 -24 32.5t-21 38.5q-18 -20 -36 -39t-40 -34t-49.5 -24t-64.5 -9h-37q-19 0 -30 5.5t-16.5 14.5t-7 20t-1.5 23t1.5 23t7 19.5t16.5 14t30 5.5h37q45 0 78 9.5t56.5 24.5t39 31.5 t25.5 31.5t16.5 24.5t11.5 9.5q6 0 8 -17t10 -38q4 -12 10.5 -25.5t15 -25t20 -18.5t26.5 -7h39q19 0 30 -5.5t16.5 -14t7 -19.5t1.5 -23zM267 452q0 -3 -9 -18.5t-20.5 -32.5t-22 -31t-14.5 -14q-3 0 -17.5 9t-30.5 20.5t-29 22.5t-13 15q0 3 6.5 15t15.5 26.5t19.5 29 t18.5 22.5q6 8 6 13q0 4 -4 7q-9 6 -21.5 15t-24 18t-19 16.5t-7.5 9.5q0 4 9 20t20.5 33.5t22 31.5t13.5 14q5 0 20 -10t30.5 -22t28 -23t12.5 -13q0 -3 -6.5 -15t-15.5 -27t-19 -29t-17 -21q-2 -2 -6 -6.5t-4 -9.5q0 -4 4 -7q9 -5 22 -14t24.5 -18.5t19.5 -17t8 -9.5z" />
<glyph unicode="&#x67a;" horiz-adv-x="1378" arabic-form="final" d="M1446 63q0 -12 -1 -23t-6 -20t-14.5 -14.5t-26.5 -5.5h-40q-32 0 -57 2.5t-45.5 12t-37.5 27.5t-32 50q-33 -38 -99 -69.5t-156 -55t-200.5 -36.5t-232.5 -13q-88 0 -164 16t-132.5 49.5t-89 84.5t-32.5 122q0 39 10.5 78.5t24 71.5t26.5 52t17 20q3 0 8.5 -3t5.5 -10 q0 -4 -6 -16.5t-13.5 -29.5t-13.5 -38t-6 -41q0 -51 30.5 -92t87 -69t135.5 -43t177 -15q84 0 171 6.5t166 20t143.5 35t103.5 51.5q20 15 27 30t16 15q2 0 4.5 -7.5t7 -18t11.5 -21.5t18 -19q10 -8 24.5 -12t31.5 -6.5t35 -3t36 -0.5h40q17 0 26.5 -5.5t14.5 -14t6 -19.5 t1 -23zM732 446q0 -3 -9 -18.5t-20.5 -32.5t-22 -31t-14.5 -14q-3 0 -17.5 9t-30.5 20.5t-29 22.5t-13 15q0 3 6.5 15t15.5 26.5t19.5 29t18.5 22.5q6 8 6 13q0 4 -4 7q-9 6 -21.5 15t-24 18t-19 16.5t-7.5 9.5q0 4 9 20t20.5 33.5t22 31.5t13.5 14q5 0 20 -10t30.5 -22 t28 -23t12.5 -13q0 -3 -6.5 -15t-15.5 -27t-19 -29t-17 -21q-2 -2 -6 -6.5t-4 -9.5q0 -4 4 -7q9 -5 22 -14t24.5 -18.5t19.5 -17t8 -9.5z" />
<glyph unicode="&#x67b;" horiz-adv-x="360" arabic-form="initial" d="M248 264q0 -76 -17.5 -127t-47.5 -81.5t-70.5 -43t-87.5 -12.5h-37q-19 0 -30 5.5t-16.5 14.5t-7 20t-1.5 23t1.5 23t7 19.5t16.5 14t30 5.5h37q43 0 76.5 7t56.5 18q21 11 32 23.5t11 19.5q0 6 -10.5 26.5t-22.5 43.5t-22.5 42.5t-10.5 24.5q0 7 9.5 25.5t21.5 38.5 t23 37.5t14 21.5q23 -50 34 -95.5t11 -93.5zM201 -342q0 -3 -9 -18.5t-20.5 -32.5t-22 -31t-14.5 -14q-3 0 -17.5 9t-30.5 20.5t-29 22.5t-13 15q0 3 6.5 15t15.5 26.5t19.5 29t18.5 22.5q6 8 6 13q0 4 -4 7q-9 6 -21.5 15t-24 18t-19 16.5t-7.5 9.5q0 4 9 20t20.5 33.5 t22 31.5t13.5 14q5 0 20 -10t30.5 -22t28 -23t12.5 -13q0 -3 -6.5 -15t-15.5 -27t-19 -29t-17 -21q-2 -2 -6 -6.5t-4 -9.5q0 -4 4 -7q9 -5 22 -14t24.5 -18.5t19.5 -17t8 -9.5z" />
<glyph unicode="&#x67b;" horiz-adv-x="367" arabic-form="medial" d="M436 63q0 -12 -1.5 -23t-7 -20t-16.5 -14.5t-30 -5.5h-39q-28 0 -47 9t-35 26q-11 12 -24 32.5t-21 38.5q-18 -20 -36 -39t-40 -34t-49.5 -24t-64.5 -9h-37q-19 0 -30 5.5t-16.5 14.5t-7 20t-1.5 23t1.5 23t7 19.5t16.5 14t30 5.5h37q45 0 78 9.5t56.5 24.5t39 31.5 t25.5 31.5t16.5 24.5t11.5 9.5q6 0 8 -17t10 -38q4 -12 10.5 -25.5t15 -25t20 -18.5t26.5 -7h39q19 0 30 -5.5t16.5 -14t7 -19.5t1.5 -23zM267 -342q0 -3 -9 -18.5t-20.5 -32.5t-22 -31t-14.5 -14q-3 0 -17.5 9t-30.5 20.5t-29 22.5t-13 15q0 3 6.5 15t15.5 26.5t19.5 29 t18.5 22.5q6 8 6 13q0 4 -4 7q-9 6 -21.5 15t-24 18t-19 16.5t-7.5 9.5q0 4 9 20t20.5 33.5t22 31.5t13.5 14q5 0 20 -10t30.5 -22t28 -23t12.5 -13q0 -3 -6.5 -15t-15.5 -27t-19 -29t-17 -21q-2 -2 -6 -6.5t-4 -9.5q0 -4 4 -7q9 -5 22 -14t24.5 -18.5t19.5 -17t8 -9.5z" />
<glyph unicode="&#x67b;" horiz-adv-x="1378" arabic-form="final" d="M1446 63q0 -12 -1 -23t-6 -20t-14.5 -14.5t-26.5 -5.5h-40q-32 0 -57 2.5t-45.5 12t-37.5 27.5t-32 50q-33 -38 -99 -69.5t-156 -55t-200.5 -36.5t-232.5 -13q-88 0 -164 16t-132.5 49.5t-89 84.5t-32.5 122q0 39 10.5 78.5t24 71.5t26.5 52t17 20q3 0 8.5 -3t5.5 -10 q0 -4 -6 -16.5t-13.5 -29.5t-13.5 -38t-6 -41q0 -51 30.5 -92t87 -69t135.5 -43t177 -15q84 0 171 6.5t166 20t143.5 35t103.5 51.5q20 15 27 30t16 15q2 0 4.5 -7.5t7 -18t11.5 -21.5t18 -19q10 -8 24.5 -12t31.5 -6.5t35 -3t36 -0.5h40q17 0 26.5 -5.5t14.5 -14t6 -19.5 t1 -23zM664 -424q0 -3 -9 -18.5t-20.5 -32.5t-22 -31t-14.5 -14q-3 0 -17.5 9t-30.5 20.5t-29 22.5t-13 15q0 3 6.5 15t15.5 26.5t19.5 29t18.5 22.5q6 8 6 13q0 4 -4 7q-9 6 -21.5 15t-24 18t-19 16.5t-7.5 9.5q0 4 9 20t20.5 33.5t22 31.5t13.5 14q5 0 20 -10t30.5 -22 t28 -23t12.5 -13q0 -3 -6.5 -15t-15.5 -27t-19 -29t-17 -21q-2 -2 -6 -6.5t-4 -9.5q0 -4 4 -7q9 -5 22 -14t24.5 -18.5t19.5 -17t8 -9.5z" />
<glyph unicode="&#x67c;" horiz-adv-x="360" d="M279 -47q0 -32 -11 -60t-30.5 -49t-46.5 -33.5t-59 -12.5q-46 0 -70.5 33t-24.5 104q0 37 13 66q-6 -1 -12.5 -1h-12.5h-37q-19 0 -30 5.5t-16.5 14.5t-7 20t-1.5 23t1.5 23t7 19.5t16.5 14t30 5.5h37q43 0 76.5 7t56.5 18q21 11 32 23.5t11 19.5q0 6 -10.5 26.5 t-22.5 43.5t-22.5 42.5t-10.5 24.5q0 7 9.5 25.5t21.5 38.5t23 37.5t14 21.5q23 -50 34 -95.5t11 -93.5q0 -63 -12 -108.5t-34 -76.5q16 -8 30.5 -22t24.5 -32t16 -37t6 -35zM326 669q0 -4 -9 -20t-20.5 -33.5t-22 -31.5t-14.5 -14q-2 0 -15.5 9.5t-29.5 21.5q-18 13 -41 31 q-4 4 -7 4t-7 -4q-15 -22 -27 -39q-11 -15 -20.5 -27t-12.5 -12t-17.5 9.5t-30.5 21.5t-29 23t-13 14q0 4 9.5 19.5t21.5 33t22.5 31.5t12.5 14q5 0 18 -10t27 -21q17 -13 37 -30q6 -6 9 -6t7 8q15 21 28 38q11 14 21 26.5t12 12.5q3 0 18 -10t31 -22.5t29 -23.5t13 -13z M224 -76q0 12 -9.5 26t-23.5 26t-31 20t-32 8q-25 0 -40 -19t-15 -41q0 -24 25.5 -38t56.5 -14q9 0 21 2.5t22.5 7t18 10.5t7.5 12z" />
<glyph unicode="&#x67c;" horiz-adv-x="367" d="M318 -32q0 -32 -11 -60t-30.5 -49t-46.5 -33.5t-59 -12.5q-46 0 -70.5 33t-24.5 104q0 32 10 58q-29 -8 -61 -8h-37q-19 0 -30 5.5t-16.5 14.5t-7 20t-1.5 23t1.5 23t7 19.5t16.5 14t30 5.5h37q45 0 78 9.5t56.5 24.5t39 31.5t25.5 31.5t16.5 24.5t11.5 9.5q6 0 8 -17 t10 -38q4 -12 10.5 -25.5t15 -25t20 -18.5t26.5 -7h39q19 0 30 -5.5t16.5 -14t7 -19.5t1.5 -23t-1.5 -23t-7 -20t-16.5 -14.5t-30 -5.5h-39q-17 0 -30 3q6 -18 6 -35zM342 471q0 -4 -9 -20t-20.5 -33.5t-22 -31.5t-14.5 -14q-2 0 -15.5 9.5t-29.5 21.5q-18 13 -41 31 q-4 4 -7 4t-7 -4q-15 -22 -27 -39q-11 -15 -20.5 -27t-12.5 -12t-17.5 9.5t-30.5 21.5t-29 23t-13 14q0 4 9.5 19.5t21.5 33t22.5 31.5t12.5 14q5 0 18 -10t27 -21q17 -13 37 -30q6 -6 9 -6t7 8q15 21 28 38q11 14 21 26.5t12 12.5q3 0 18 -10t31 -22.5t29 -23.5t13 -13z M263 -61q0 12 -9.5 26t-23.5 26t-31 20t-32 8q-25 0 -40 -19t-15 -41q0 -24 25.5 -38t56.5 -14q9 0 21 2.5t22.5 7t18 10.5t7.5 12zM209 100h5h3l-2 6z" />
<glyph unicode="&#x67c;" horiz-adv-x="1378" d="M691 -168q0 -32 -11 -60t-30.5 -49t-46.5 -33.5t-59 -12.5q-46 0 -70.5 33t-24.5 104q0 30 10 57t28 47q-86 1 -160.5 17.5t-129 50t-86 84.5t-31.5 120q0 39 10.5 78.5t24 71.5t26.5 52t17 20q3 0 8.5 -3t5.5 -10q0 -4 -6 -16.5t-13.5 -29.5t-13.5 -38t-6 -41 q0 -51 30.5 -92t87 -69t135.5 -43t177 -15q84 0 171 6.5t166 20t143.5 35t103.5 51.5q20 15 27 30t16 15q2 0 4.5 -7.5t7 -18t11.5 -21.5t18 -19q10 -8 24.5 -12t31.5 -6.5t35 -3t36 -0.5h40q17 0 26.5 -5.5t14.5 -14t6 -19.5t1 -23t-1 -23t-6 -20t-14.5 -14.5t-26.5 -5.5 h-40q-32 0 -57 2.5t-45.5 12t-37.5 27.5t-32 50q-28 -32 -78.5 -59t-119.5 -49t-153 -37.5t-179 -22.5q16 -20 25.5 -45t9.5 -47zM807 465q0 -4 -9 -20t-20.5 -33.5t-22 -31.5t-14.5 -14q-2 0 -15.5 9.5t-29.5 21.5q-18 13 -41 31q-4 4 -7 4t-7 -4q-15 -22 -27 -39 q-11 -15 -20.5 -27t-12.5 -12t-17.5 9.5t-30.5 21.5t-29 23t-13 14q0 4 9.5 19.5t21.5 33t22.5 31.5t12.5 14q5 0 18 -10t27 -21q17 -13 37 -30q6 -6 9 -6t7 8q15 21 28 38q11 14 21 26.5t12 12.5q3 0 18 -10t31 -22.5t29 -23.5t13 -13zM636 -197q0 12 -9.5 26t-23.5 26 t-31 20t-32 8q-25 0 -40 -19t-15 -41q0 -24 25.5 -38t56.5 -14q9 0 21 2.5t22.5 7t18 10.5t7.5 12z" />
<glyph unicode="&#x67d;" horiz-adv-x="360" d="M248 264q0 -76 -17.5 -127t-47.5 -81.5t-70.5 -43t-87.5 -12.5h-37q-19 0 -30 5.5t-16.5 14.5t-7 20t-1.5 23t1.5 23t7 19.5t16.5 14t30 5.5h37q43 0 76.5 7t56.5 18q21 11 32 23.5t11 19.5q0 6 -10.5 26.5t-22.5 43.5t-22.5 42.5t-10.5 24.5q0 7 9.5 25.5t21.5 38.5 t23 37.5t14 21.5q23 -50 34 -95.5t11 -93.5zM327 848q0 -4 -9 -19.5t-20.5 -33t-22 -31.5t-14.5 -14q-2 0 -15.5 9.5t-29.5 21.5q-18 13 -41 31q-4 4 -7 4t-7 -6q-16 -22 -28 -39q-11 -15 -21 -27t-13 -12q-2 0 -16.5 9.5t-31 22t-29.5 23.5t-13 14t9.5 19t21.5 33t22.5 31 t12.5 14q5 0 18 -9.5t28 -20.5l38 -30q7 -5 8 -5q2 0 8 7l28 38q11 14 20.5 26t13.5 12t18.5 -9.5t30.5 -21.5t28.5 -23t12.5 -14zM257 650q0 -3 -9 -18.5t-20 -32.5t-22.5 -31t-15.5 -14q-3 0 -17.5 9t-31 20.5t-29.5 22.5t-13 15t9.5 19.5t21.5 33t23 31.5t14 14 q4 0 18.5 -9.5t30.5 -22t28.5 -23.5t12.5 -14z" />
<glyph unicode="&#x67d;" horiz-adv-x="367" d="M436 63q0 -12 -1.5 -23t-7 -20t-16.5 -14.5t-30 -5.5h-39q-28 0 -47 9t-35 26q-11 12 -24 32.5t-21 38.5q-18 -20 -36 -39t-40 -34t-49.5 -24t-64.5 -9h-37q-19 0 -30 5.5t-16.5 14.5t-7 20t-1.5 23t1.5 23t7 19.5t16.5 14t30 5.5h37q45 0 78 9.5t56.5 24.5t39 31.5 t25.5 31.5t16.5 24.5t11.5 9.5q6 0 8 -17t10 -38q4 -12 10.5 -25.5t15 -25t20 -18.5t26.5 -7h39q19 0 30 -5.5t16.5 -14t7 -19.5t1.5 -23zM343 650q0 -4 -9 -19.5t-20.5 -33t-22 -31.5t-14.5 -14q-2 0 -15.5 9.5t-29.5 21.5q-18 13 -41 31q-4 4 -7 4t-7 -6q-16 -22 -28 -39 q-11 -15 -21 -27t-13 -12q-2 0 -16.5 9.5t-31 22t-29.5 23.5t-13 14t9.5 19t21.5 33t22.5 31t12.5 14q5 0 18 -9.5t28 -20.5l38 -30q7 -5 8 -5q2 0 8 7l28 38q11 14 20.5 26t13.5 12t18.5 -9.5t30.5 -21.5t28.5 -23t12.5 -14zM273 452q0 -3 -9 -18.5t-20 -32.5t-22.5 -31 t-15.5 -14q-3 0 -17.5 9t-31 20.5t-29.5 22.5t-13 15t9.5 19.5t21.5 33t23 31.5t14 14q4 0 18.5 -9.5t30.5 -22t28.5 -23.5t12.5 -14z" />
<glyph unicode="&#x67d;" horiz-adv-x="1378" d="M1446 63q0 -12 -1 -23t-6 -20t-14.5 -14.5t-26.5 -5.5h-40q-32 0 -57 2.5t-45.5 12t-37.5 27.5t-32 50q-33 -38 -99 -69.5t-156 -55t-200.5 -36.5t-232.5 -13q-88 0 -164 16t-132.5 49.5t-89 84.5t-32.5 122q0 39 10.5 78.5t24 71.5t26.5 52t17 20q3 0 8.5 -3t5.5 -10 q0 -4 -6 -16.5t-13.5 -29.5t-13.5 -38t-6 -41q0 -51 30.5 -92t87 -69t135.5 -43t177 -15q84 0 171 6.5t166 20t143.5 35t103.5 51.5q20 15 27 30t16 15q2 0 4.5 -7.5t7 -18t11.5 -21.5t18 -19q10 -8 24.5 -12t31.5 -6.5t35 -3t36 -0.5h40q17 0 26.5 -5.5t14.5 -14t6 -19.5 t1 -23zM808 644q0 -4 -9 -19.5t-20.5 -33t-22 -31.5t-14.5 -14q-2 0 -15.5 9.5t-29.5 21.5q-18 13 -41 31q-4 4 -7 4t-7 -6q-16 -22 -28 -39q-11 -15 -21 -27t-13 -12q-2 0 -16.5 9.5t-31 22t-29.5 23.5t-13 14t9.5 19t21.5 33t22.5 31t12.5 14q5 0 18 -9.5t28 -20.5l38 -30 q7 -5 8 -5q2 0 8 7l28 38q11 14 20.5 26t13.5 12t18.5 -9.5t30.5 -21.5t28.5 -23t12.5 -14zM738 446q0 -3 -9 -18.5t-20 -32.5t-22.5 -31t-15.5 -14q-3 0 -17.5 9t-31 20.5t-29.5 22.5t-13 15t9.5 19.5t21.5 33t23 31.5t14 14q4 0 18.5 -9.5t30.5 -22t28.5 -23.5t12.5 -14z " />
<glyph unicode="&#x67e;" horiz-adv-x="360" arabic-form="initial" d="M248 264q0 -76 -17.5 -127t-47.5 -81.5t-70.5 -43t-87.5 -12.5h-37q-19 0 -30 5.5t-16.5 14.5t-7 20t-1.5 23t1.5 23t7 19.5t16.5 14t30 5.5h37q43 0 76.5 7t56.5 18q21 11 32 23.5t11 19.5q0 6 -10.5 26.5t-22.5 43.5t-22.5 42.5t-10.5 24.5q0 7 9.5 25.5t21.5 38.5 t23 37.5t14 21.5q23 -50 34 -95.5t11 -93.5zM277 -168q0 -4 -9 -19.5t-20.5 -33t-22 -31.5t-14.5 -14q-2 0 -15.5 9.5t-29.5 21.5q-18 13 -41 31q-4 4 -7 4t-7 -6q-16 -22 -28 -39q-11 -15 -21 -27t-13 -12q-2 0 -16.5 9.5t-31 22t-29.5 23.5t-13 14t9.5 19t21.5 33t22.5 31 t12.5 14q5 0 18 -9.5t28 -20.5l38 -30q7 -5 8 -5q2 0 8 7l28 38q11 14 20.5 26t13.5 12t18.5 -9.5t30.5 -21.5t28.5 -23t12.5 -14zM207 -366q0 -3 -9 -18.5t-20 -32.5t-22.5 -31t-15.5 -14q-3 0 -17.5 9t-31 20.5t-29.5 22.5t-13 15t9.5 19.5t21.5 33t23 31.5t14 14 q4 0 18.5 -9.5t30.5 -22t28.5 -23.5t12.5 -14z" />
<glyph unicode="&#x67e;" horiz-adv-x="367" arabic-form="medial" d="M436 63q0 -12 -1.5 -23t-7 -20t-16.5 -14.5t-30 -5.5h-39q-28 0 -47 9t-35 26q-11 12 -24 32.5t-21 38.5q-18 -20 -36 -39t-40 -34t-49.5 -24t-64.5 -9h-37q-19 0 -30 5.5t-16.5 14.5t-7 20t-1.5 23t1.5 23t7 19.5t16.5 14t30 5.5h37q45 0 78 9.5t56.5 24.5t39 31.5 t25.5 31.5t16.5 24.5t11.5 9.5q6 0 8 -17t10 -38q4 -12 10.5 -25.5t15 -25t20 -18.5t26.5 -7h39q19 0 30 -5.5t16.5 -14t7 -19.5t1.5 -23zM343 -168q0 -4 -9 -19.5t-20.5 -33t-22 -31.5t-14.5 -14q-2 0 -15.5 9.5t-29.5 21.5q-18 13 -41 31q-4 4 -7 4t-7 -6q-16 -22 -28 -39 q-11 -15 -21 -27t-13 -12q-2 0 -16.5 9.5t-31 22t-29.5 23.5t-13 14t9.5 19t21.5 33t22.5 31t12.5 14q5 0 18 -9.5t28 -20.5l38 -30q7 -5 8 -5q2 0 8 7l28 38q11 14 20.5 26t13.5 12t18.5 -9.5t30.5 -21.5t28.5 -23t12.5 -14zM273 -366q0 -3 -9 -18.5t-20 -32.5t-22.5 -31 t-15.5 -14q-3 0 -17.5 9t-31 20.5t-29.5 22.5t-13 15t9.5 19.5t21.5 33t23 31.5t14 14q4 0 18.5 -9.5t30.5 -22t28.5 -23.5t12.5 -14z" />
<glyph unicode="&#x67e;" horiz-adv-x="1378" arabic-form="final" d="M1446 63q0 -12 -1 -23t-6 -20t-14.5 -14.5t-26.5 -5.5h-40q-32 0 -57 2.5t-45.5 12t-37.5 27.5t-32 50q-33 -38 -99 -69.5t-156 -55t-200.5 -36.5t-232.5 -13q-88 0 -164 16t-132.5 49.5t-89 84.5t-32.5 122q0 39 10.5 78.5t24 71.5t26.5 52t17 20q3 0 8.5 -3t5.5 -10 q0 -4 -6 -16.5t-13.5 -29.5t-13.5 -38t-6 -41q0 -51 30.5 -92t87 -69t135.5 -43t177 -15q84 0 171 6.5t166 20t143.5 35t103.5 51.5q20 15 27 30t16 15q2 0 4.5 -7.5t7 -18t11.5 -21.5t18 -19q10 -8 24.5 -12t31.5 -6.5t35 -3t36 -0.5h40q17 0 26.5 -5.5t14.5 -14t6 -19.5 t1 -23zM740 -250q0 -4 -9 -19.5t-20.5 -33t-22 -31.5t-14.5 -14q-2 0 -15.5 9.5t-29.5 21.5q-18 13 -41 31q-4 4 -7 4t-7 -6q-16 -22 -28 -39q-11 -15 -21 -27t-13 -12q-2 0 -16.5 9.5t-31 22t-29.5 23.5t-13 14t9.5 19t21.5 33t22.5 31t12.5 14q5 0 18 -9.5t28 -20.5 l38 -30q7 -5 8 -5q2 0 8 7l28 38q11 14 20.5 26t13.5 12t18.5 -9.5t30.5 -21.5t28.5 -23t12.5 -14zM670 -448q0 -3 -9 -18.5t-20 -32.5t-22.5 -31t-15.5 -14q-3 0 -17.5 9t-31 20.5t-29.5 22.5t-13 15t9.5 19.5t21.5 33t23 31.5t14 14q4 0 18.5 -9.5t30.5 -22t28.5 -23.5 t12.5 -14z" />
<glyph unicode="&#x67f;" horiz-adv-x="360" arabic-form="initial" d="M248 264q0 -76 -17.5 -127t-47.5 -81.5t-70.5 -43t-87.5 -12.5h-37q-19 0 -30 5.5t-16.5 14.5t-7 20t-1.5 23t1.5 23t7 19.5t16.5 14t30 5.5h37q43 0 76.5 7t56.5 18q21 11 32 23.5t11 19.5q0 6 -10.5 26.5t-22.5 43.5t-22.5 42.5t-10.5 24.5q0 7 9.5 25.5t21.5 38.5 t23 37.5t14 21.5q23 -50 34 -95.5t11 -93.5zM319 841q0 -4 -9 -19.5t-20 -33t-21.5 -31.5t-14.5 -14q-2 0 -15.5 9.5t-29.5 20.5q-18 13 -41 31q-5 4 -8 4q-2 0 -6 -4q-16 -22 -28 -39q-11 -15 -21 -27t-13 -12q-2 0 -16.5 9.5t-31 21.5t-29.5 23t-13 14q0 4 9.5 19.5 t21.5 33t23 31.5t14 14q5 0 18 -10t27 -21q17 -13 37 -30q6 -6 8 -6q3 0 8 8q15 21 27 38q11 14 21 26.5t13 12.5t17.5 -10t30.5 -22.5t29 -23.5t13 -13zM334 669q0 -4 -9 -20t-21 -33.5t-22.5 -31.5t-13.5 -14t-17 9.5t-29 21.5q-18 13 -40 31q-5 4 -8 4q-2 0 -6 -4 q-16 -22 -28 -39q-11 -15 -21 -27t-13 -12t-17.5 9.5t-30.5 21.5t-29 23t-13 14q0 4 9.5 19.5t21.5 33t22.5 31.5t12.5 14q5 0 18 -10t27 -21q17 -13 37 -30q7 -6 10 -6t8 8l28 38q11 14 20.5 26.5t11.5 12.5q4 0 18.5 -10t31 -22.5t29.5 -23.5t13 -13z" />
<glyph unicode="&#x67f;" horiz-adv-x="367" arabic-form="medial" d="M436 63q0 -12 -1.5 -23t-7 -20t-16.5 -14.5t-30 -5.5h-39q-28 0 -47 9t-35 26q-11 12 -24 32.5t-21 38.5q-18 -20 -36 -39t-40 -34t-49.5 -24t-64.5 -9h-37q-19 0 -30 5.5t-16.5 14.5t-7 20t-1.5 23t1.5 23t7 19.5t16.5 14t30 5.5h37q45 0 78 9.5t56.5 24.5t39 31.5 t25.5 31.5t16.5 24.5t11.5 9.5q6 0 8 -17t10 -38q4 -12 10.5 -25.5t15 -25t20 -18.5t26.5 -7h39q19 0 30 -5.5t16.5 -14t7 -19.5t1.5 -23zM335 643q0 -4 -9 -19.5t-20 -33t-21.5 -31.5t-14.5 -14q-2 0 -15.5 9.5t-29.5 20.5q-18 13 -41 31q-5 4 -8 4q-2 0 -6 -4 q-16 -22 -28 -39q-11 -15 -21 -27t-13 -12q-2 0 -16.5 9.5t-31 21.5t-29.5 23t-13 14q0 4 9.5 19.5t21.5 33t23 31.5t14 14q5 0 18 -10t27 -21q17 -13 37 -30q6 -6 8 -6q3 0 8 8q15 21 27 38q11 14 21 26.5t13 12.5t17.5 -10t30.5 -22.5t29 -23.5t13 -13zM350 471 q0 -4 -9 -20t-21 -33.5t-22.5 -31.5t-13.5 -14t-17 9.5t-29 21.5q-18 13 -40 31q-5 4 -8 4q-2 0 -6 -4q-16 -22 -28 -39q-11 -15 -21 -27t-13 -12t-17.5 9.5t-30.5 21.5t-29 23t-13 14q0 4 9.5 19.5t21.5 33t22.5 31.5t12.5 14q5 0 18 -10t27 -21q17 -13 37 -30q7 -6 10 -6 t8 8l28 38q11 14 20.5 26.5t11.5 12.5q4 0 18.5 -10t31 -22.5t29.5 -23.5t13 -13z" />
<glyph unicode="&#x67f;" horiz-adv-x="1378" arabic-form="final" d="M1446 63q0 -12 -1 -23t-6 -20t-14.5 -14.5t-26.5 -5.5h-40q-32 0 -57 2.5t-45.5 12t-37.5 27.5t-32 50q-33 -38 -99 -69.5t-156 -55t-200.5 -36.5t-232.5 -13q-88 0 -164 16t-132.5 49.5t-89 84.5t-32.5 122q0 39 10.5 78.5t24 71.5t26.5 52t17 20q3 0 8.5 -3t5.5 -10 q0 -4 -6 -16.5t-13.5 -29.5t-13.5 -38t-6 -41q0 -51 30.5 -92t87 -69t135.5 -43t177 -15q84 0 171 6.5t166 20t143.5 35t103.5 51.5q20 15 27 30t16 15q2 0 4.5 -7.5t7 -18t11.5 -21.5t18 -19q10 -8 24.5 -12t31.5 -6.5t35 -3t36 -0.5h40q17 0 26.5 -5.5t14.5 -14t6 -19.5 t1 -23zM800 637q0 -4 -9 -19.5t-20 -33t-21.5 -31.5t-14.5 -14q-2 0 -15.5 9.5t-29.5 20.5q-18 13 -41 31q-5 4 -8 4q-2 0 -6 -4q-16 -22 -28 -39q-11 -15 -21 -27t-13 -12q-2 0 -16.5 9.5t-31 21.5t-29.5 23t-13 14q0 4 9.5 19.5t21.5 33t23 31.5t14 14q5 0 18 -10t27 -21 q17 -13 37 -30q6 -6 8 -6q3 0 8 8q15 21 27 38q11 14 21 26.5t13 12.5t17.5 -10t30.5 -22.5t29 -23.5t13 -13zM815 465q0 -4 -9 -20t-21 -33.5t-22.5 -31.5t-13.5 -14t-17 9.5t-29 21.5q-18 13 -40 31q-5 4 -8 4q-2 0 -6 -4q-16 -22 -28 -39q-11 -15 -21 -27t-13 -12 t-17.5 9.5t-30.5 21.5t-29 23t-13 14q0 4 9.5 19.5t21.5 33t22.5 31.5t12.5 14q5 0 18 -10t27 -21q17 -13 37 -30q7 -6 10 -6t8 8l28 38q11 14 20.5 26.5t11.5 12.5q4 0 18.5 -10t31 -22.5t29.5 -23.5t13 -13z" />
<glyph unicode="&#x680;" horiz-adv-x="360" arabic-form="initial" d="M248 264q0 -76 -17.5 -127t-47.5 -81.5t-70.5 -43t-87.5 -12.5h-37q-19 0 -30 5.5t-16.5 14.5t-7 20t-1.5 23t1.5 23t7 19.5t16.5 14t30 5.5h37q43 0 76.5 7t56.5 18q21 11 32 23.5t11 19.5q0 6 -10.5 26.5t-22.5 43.5t-22.5 42.5t-10.5 24.5q0 7 9.5 25.5t21.5 38.5 t23 37.5t14 21.5q23 -50 34 -95.5t11 -93.5zM269 -169q0 -4 -9 -19.5t-20 -33t-21.5 -31.5t-14.5 -14q-2 0 -15.5 9.5t-29.5 20.5q-18 13 -41 31q-5 4 -8 4q-2 0 -6 -4q-16 -22 -28 -39q-11 -15 -21 -27t-13 -12q-2 0 -16.5 9.5t-31 21.5t-29.5 23t-13 14q0 4 9.5 19.5 t21.5 33t23 31.5t14 14q5 0 18 -10t27 -21q17 -13 37 -30q6 -6 8 -6q3 0 8 8q15 21 27 38q11 14 21 26.5t13 12.5t17.5 -10t30.5 -22.5t29 -23.5t13 -13zM284 -341q0 -4 -9 -20t-21 -33.5t-22.5 -31.5t-13.5 -14t-17 9.5t-29 21.5q-18 13 -40 31q-5 4 -8 4q-2 0 -6 -4 q-16 -22 -28 -39q-11 -15 -21 -27t-13 -12t-17.5 9.5t-30.5 21.5t-29 23t-13 14q0 4 9.5 19.5t21.5 33t22.5 31.5t12.5 14q5 0 18 -10t27 -21q17 -13 37 -30q7 -6 10 -6t8 8l28 38q11 14 20.5 26.5t11.5 12.5q4 0 18.5 -10t31 -22.5t29.5 -23.5t13 -13z" />
<glyph unicode="&#x680;" horiz-adv-x="367" arabic-form="medial" d="M436 63q0 -12 -1.5 -23t-7 -20t-16.5 -14.5t-30 -5.5h-39q-28 0 -47 9t-35 26q-11 12 -24 32.5t-21 38.5q-18 -20 -36 -39t-40 -34t-49.5 -24t-64.5 -9h-37q-19 0 -30 5.5t-16.5 14.5t-7 20t-1.5 23t1.5 23t7 19.5t16.5 14t30 5.5h37q45 0 78 9.5t56.5 24.5t39 31.5 t25.5 31.5t16.5 24.5t11.5 9.5q6 0 8 -17t10 -38q4 -12 10.5 -25.5t15 -25t20 -18.5t26.5 -7h39q19 0 30 -5.5t16.5 -14t7 -19.5t1.5 -23zM335 -169q0 -4 -9 -19.5t-20 -33t-21.5 -31.5t-14.5 -14q-2 0 -15.5 9.5t-29.5 20.5q-18 13 -41 31q-5 4 -8 4q-2 0 -6 -4 q-16 -22 -28 -39q-11 -15 -21 -27t-13 -12q-2 0 -16.5 9.5t-31 21.5t-29.5 23t-13 14q0 4 9.5 19.5t21.5 33t23 31.5t14 14q5 0 18 -10t27 -21q17 -13 37 -30q6 -6 8 -6q3 0 8 8q15 21 27 38q11 14 21 26.5t13 12.5t17.5 -10t30.5 -22.5t29 -23.5t13 -13zM350 -341 q0 -4 -9 -20t-21 -33.5t-22.5 -31.5t-13.5 -14t-17 9.5t-29 21.5q-18 13 -40 31q-5 4 -8 4q-2 0 -6 -4q-16 -22 -28 -39q-11 -15 -21 -27t-13 -12t-17.5 9.5t-30.5 21.5t-29 23t-13 14q0 4 9.5 19.5t21.5 33t22.5 31.5t12.5 14q5 0 18 -10t27 -21q17 -13 37 -30q7 -6 10 -6 t8 8l28 38q11 14 20.5 26.5t11.5 12.5q4 0 18.5 -10t31 -22.5t29.5 -23.5t13 -13z" />
<glyph unicode="&#x680;" horiz-adv-x="1378" arabic-form="final" d="M1446 63q0 -12 -1 -23t-6 -20t-14.5 -14.5t-26.5 -5.5h-40q-32 0 -57 2.5t-45.5 12t-37.5 27.5t-32 50q-33 -38 -99 -69.5t-156 -55t-200.5 -36.5t-232.5 -13q-88 0 -164 16t-132.5 49.5t-89 84.5t-32.5 122q0 39 10.5 78.5t24 71.5t26.5 52t17 20q3 0 8.5 -3t5.5 -10 q0 -4 -6 -16.5t-13.5 -29.5t-13.5 -38t-6 -41q0 -51 30.5 -92t87 -69t135.5 -43t177 -15q84 0 171 6.5t166 20t143.5 35t103.5 51.5q20 15 27 30t16 15q2 0 4.5 -7.5t7 -18t11.5 -21.5t18 -19q10 -8 24.5 -12t31.5 -6.5t35 -3t36 -0.5h40q17 0 26.5 -5.5t14.5 -14t6 -19.5 t1 -23zM732 -251q0 -4 -9 -19.5t-20 -33t-21.5 -31.5t-14.5 -14q-2 0 -15.5 9.5t-29.5 20.5q-18 13 -41 31q-5 4 -8 4q-2 0 -6 -4q-16 -22 -28 -39q-11 -15 -21 -27t-13 -12q-2 0 -16.5 9.5t-31 21.5t-29.5 23t-13 14q0 4 9.5 19.5t21.5 33t23 31.5t14 14q5 0 18 -10t27 -21 q17 -13 37 -30q6 -6 8 -6q3 0 8 8q15 21 27 38q11 14 21 26.5t13 12.5t17.5 -10t30.5 -22.5t29 -23.5t13 -13zM747 -423q0 -4 -9 -20t-21 -33.5t-22.5 -31.5t-13.5 -14t-17 9.5t-29 21.5q-18 13 -40 31q-5 4 -8 4q-2 0 -6 -4q-16 -22 -28 -39q-11 -15 -21 -27t-13 -12 t-17.5 9.5t-30.5 21.5t-29 23t-13 14q0 4 9.5 19.5t21.5 33t22.5 31.5t12.5 14q5 0 18 -10t27 -21q17 -13 37 -30q7 -6 10 -6t8 8l28 38q11 14 20.5 26.5t11.5 12.5q4 0 18.5 -10t31 -22.5t29.5 -23.5t13 -13z" />
<glyph unicode="&#x681;" horiz-adv-x="977" d="M895 301q0 -3 -3.5 -18.5t-9 -33.5t-10.5 -32t-8 -14q-31 0 -67.5 0.5t-71.5 1.5t-64.5 1.5t-46.5 0.5q-38 0 -73.5 -7t-67.5 -17.5t-60.5 -24t-52.5 -25.5q-41 -21 -82 -44.5t-82.5 -43t-84 -32.5t-86.5 -13h-37q-19 0 -30 5.5t-16.5 14.5t-7 20t-1.5 23t1.5 23t7 19.5 t16.5 14t30 5.5h37q38 0 72 3t66 9.5t63.5 16.5t66.5 24q38 16 82 32.5t86 29.5q-34 10 -66.5 24.5t-65 27t-65 21.5t-65.5 9q-22 0 -43 -4t-38.5 -8.5t-29 -8.5t-14.5 -4q-6 0 -6 8q0 11 7 27.5t18.5 34t26.5 34.5t32 29q22 16 44.5 20.5t57.5 4.5q27 0 59.5 -11t67 -26 t68.5 -31.5t63 -28.5q53 -21 122.5 -33.5t147.5 -16.5q48 -2 80.5 -3t32.5 -4zM580 704q0 -3 -2.5 -12t-7.5 -18.5t-12.5 -18.5t-16.5 -12q-6 -2 -18.5 -6.5t-29.5 -11t-37 -14.5t-40 -15q-49 -19 -72.5 -30t-31.5 -11t-8 8q0 4 3 11.5t7 15.5t8 15.5t6 10.5q3 3 9.5 7.5 t14 9t14.5 7.5t11 5q-8 2 -17.5 7.5t-17.5 14t-14 19.5t-6 25q0 12 6 26.5t15.5 29t21 28.5t23.5 26q19 19 33 29.5t24.5 15t19.5 5.5t19 1q22 0 32.5 -17.5t10.5 -37.5q0 -5 -3 -15t-7.5 -20t-9 -17t-7.5 -7q-4 0 -12 3.5t-18 7.5t-21 7.5t-20 3.5q-17 0 -32.5 -12 t-15.5 -23q0 -3 11 -11.5t27.5 -18t35 -17t33.5 -8.5q12 3 26 6t26.5 5.5t21.5 4.5t12 3q2 0 4 -0.5t2 -4.5z" />
<glyph unicode="&#x681;" horiz-adv-x="1044" d="M1112 63q0 -12 -1.5 -23t-7 -20t-16.5 -14.5t-30 -5.5h-37q-125 0 -199 8.5t-109 32.5q-22 15 -31 36.5t-9 51.5q0 20 4.5 39t9.5 41h-18q-59 0 -108 -8.5t-91.5 -23t-80 -32.5t-71.5 -37q-36 -20 -69.5 -39.5t-69 -34.5t-73 -24.5t-80.5 -9.5h-37q-19 0 -30 5.5 t-16.5 14.5t-7 20t-1.5 23t1.5 23t7 19.5t16.5 14t30 5.5h37q49 0 90.5 5.5t77.5 15t67.5 21t60.5 23.5q36 15 71 28.5t73 21.5q-21 8 -53 22.5t-70 28t-80 23.5t-82 10q-21 0 -39 -3.5t-31.5 -8t-22 -8t-9.5 -3.5q-8 0 -8 6q0 22 9 41.5t23 36.5t31.5 30.5t34.5 22.5 q20 11 44 14t38 3q31 0 72.5 -15t85.5 -34.5t88 -38.5t79 -27q40 -9 74 -14.5t71 -8.5t80.5 -3.5t102.5 -0.5q3 0 4.5 -3t1.5 -5t-3 -13.5t-7 -26t-8 -28.5t-6 -20q-2 -7 -39 -8.5t-107 -1.5q-1 -2 -1 -6v-7q0 -14 11 -25t28 -19q22 -9 53 -14.5t64 -7.5t66 -2.5t60 -0.5h37 q19 0 30 -5.5t16.5 -14t7 -19.5t1.5 -23zM661 704q0 -3 -2.5 -12t-7.5 -18.5t-12.5 -18.5t-16.5 -12q-6 -2 -18.5 -6.5t-29.5 -11t-37 -14.5t-40 -15q-49 -19 -72.5 -30t-31.5 -11t-8 8q0 4 3 11.5t7 15.5t8 15.5t6 10.5q3 3 9.5 7.5t14 9t14.5 7.5t11 5q-8 2 -17.5 7.5 t-17.5 14t-14 19.5t-6 25q0 12 6 26.5t15.5 29t21 28.5t23.5 26q19 19 33 29.5t24.5 15t19.5 5.5t19 1q22 0 32.5 -17.5t10.5 -37.5q0 -5 -3 -15t-7.5 -20t-9 -17t-7.5 -7q-4 0 -12 3.5t-18 7.5t-21 7.5t-20 3.5q-17 0 -32.5 -12t-15.5 -23q0 -3 11 -11.5t27.5 -18t35 -17 t33.5 -8.5q12 3 26 6t26.5 5.5t21.5 4.5t12 3q2 0 4 -0.5t2 -4.5z" />
<glyph unicode="&#x681;" horiz-adv-x="981" d="M1048 63q0 -12 -1.5 -23t-7 -20t-16.5 -14.5t-30 -5.5h-100q-75 0 -133 2.5t-97 15.5q-40 13 -56.5 38t-16.5 48q0 12 1.5 27.5t4 32t5.5 32.5t5 27q-66 -13 -129.5 -37t-119 -57.5t-102 -74.5t-80.5 -88t-52.5 -98.5t-18.5 -105.5q0 -82 34 -151t106 -118.5t184.5 -77 t269.5 -27.5q49 0 100.5 3.5t95 8t73 8.5t34.5 4t6 -4.5t1 -7.5t-19 -11t-48.5 -19.5t-65.5 -25t-70 -25.5t-61.5 -21t-39.5 -13q-18 -5 -36.5 -8t-35 -4.5t-30.5 -1.5h-23q-60 0 -122.5 7t-122 24t-112 46.5t-92 74.5t-62.5 107.5t-23 145.5q0 82 25 163t72 154.5 t114.5 136t153.5 108.5q-44 8 -92.5 13t-82.5 5q-15 0 -33 -2t-36 -5t-33.5 -5t-26.5 -2q-6 0 -6 8q0 5 2.5 17.5t5.5 26.5t5.5 26t3.5 16q2 7 21.5 16.5t46 17.5t55.5 13.5t51 5.5q40 0 82 -5.5t86.5 -12.5t90 -12.5t91.5 -6.5q15 0 37 0.5t46 1.5t48 1.5t43 0.5t31 -1 t12 -3q0 -3 -8 -18.5t-18 -32.5t-18 -31t-9 -14q-34 -6 -74.5 -12t-75.5 -13q1 -32 14 -52.5t47 -32.5t92 -16.5t148 -4.5h37q19 0 30 -5.5t16.5 -14t7 -19.5t1.5 -23zM665 638q0 -3 -2.5 -12t-7.5 -18.5t-12.5 -18.5t-16.5 -12q-6 -2 -18.5 -6.5t-29.5 -11t-37 -14.5 t-40 -15q-49 -19 -72.5 -30t-31.5 -11t-8 8q0 4 3 11.5t7 15.5t8 15.5t6 10.5q3 3 9.5 7.5t14 9t14.5 7.5t11 5q-8 2 -17.5 7.5t-17.5 14t-14 19.5t-6 25q0 12 6 26.5t15.5 29t21 28.5t23.5 26q19 19 33 29.5t24.5 15t19.5 5.5t19 1q22 0 32.5 -17.5t10.5 -37.5q0 -5 -3 -15 t-7.5 -20t-9 -17t-7.5 -7q-4 0 -12 3.5t-18 7.5t-21 7.5t-20 3.5q-17 0 -32.5 -12t-15.5 -23q0 -3 11 -11.5t27.5 -18t35 -17t33.5 -8.5q12 3 26 6t26.5 5.5t21.5 4.5t12 3q2 0 4 -0.5t2 -4.5z" />
<glyph unicode="&#x682;" horiz-adv-x="977" d="M895 301q0 -3 -3.5 -18.5t-9 -33.5t-10.5 -32t-8 -14q-31 0 -67.5 0.5t-71.5 1.5t-64.5 1.5t-46.5 0.5q-38 0 -73.5 -7t-67.5 -17.5t-60.5 -24t-52.5 -25.5q-41 -21 -82 -44.5t-82.5 -43t-84 -32.5t-86.5 -13h-37q-19 0 -30 5.5t-16.5 14.5t-7 20t-1.5 23t1.5 23t7 19.5 t16.5 14t30 5.5h37q38 0 72 3t66 9.5t63.5 16.5t66.5 24q38 16 82 32.5t86 29.5q-34 10 -66.5 24.5t-65 27t-65 21.5t-65.5 9q-22 0 -43 -4t-38.5 -8.5t-29 -8.5t-14.5 -4q-6 0 -6 8q0 11 7 27.5t18.5 34t26.5 34.5t32 29q22 16 44.5 20.5t57.5 4.5q27 0 59.5 -11t67 -26 t68.5 -31.5t63 -28.5q53 -21 122.5 -33.5t147.5 -16.5q48 -2 80.5 -3t32.5 -4zM524 651q0 -3 -9 -18.5t-20.5 -32.5t-22 -31t-14.5 -14q-3 0 -17.5 9t-30.5 20.5t-29 22.5t-13 15q0 3 6.5 15t15.5 26.5t19.5 29t18.5 22.5q6 8 6 13q0 4 -4 7q-9 6 -21.5 15t-24 18t-19 16.5 t-7.5 9.5q0 4 9 20t20.5 33.5t22 31.5t13.5 14q5 0 20 -10t30.5 -22t28 -23t12.5 -13q0 -3 -6.5 -15t-15.5 -27t-19 -29t-17 -21q-2 -2 -6 -6.5t-4 -9.5q0 -4 4 -7q9 -5 22 -14t24.5 -18.5t19.5 -17t8 -9.5z" />
<glyph unicode="&#x682;" horiz-adv-x="1044" d="M1112 63q0 -12 -1.5 -23t-7 -20t-16.5 -14.5t-30 -5.5h-37q-125 0 -199 8.5t-109 32.5q-22 15 -31 36.5t-9 51.5q0 20 4.5 39t9.5 41h-18q-59 0 -108 -8.5t-91.5 -23t-80 -32.5t-71.5 -37q-36 -20 -69.5 -39.5t-69 -34.5t-73 -24.5t-80.5 -9.5h-37q-19 0 -30 5.5 t-16.5 14.5t-7 20t-1.5 23t1.5 23t7 19.5t16.5 14t30 5.5h37q49 0 90.5 5.5t77.5 15t67.5 21t60.5 23.5q36 15 71 28.5t73 21.5q-21 8 -53 22.5t-70 28t-80 23.5t-82 10q-21 0 -39 -3.5t-31.5 -8t-22 -8t-9.5 -3.5q-8 0 -8 6q0 22 9 41.5t23 36.5t31.5 30.5t34.5 22.5 q20 11 44 14t38 3q31 0 72.5 -15t85.5 -34.5t88 -38.5t79 -27q40 -9 74 -14.5t71 -8.5t80.5 -3.5t102.5 -0.5q3 0 4.5 -3t1.5 -5t-3 -13.5t-7 -26t-8 -28.5t-6 -20q-2 -7 -39 -8.5t-107 -1.5q-1 -2 -1 -6v-7q0 -14 11 -25t28 -19q22 -9 53 -14.5t64 -7.5t66 -2.5t60 -0.5h37 q19 0 30 -5.5t16.5 -14t7 -19.5t1.5 -23zM605 651q0 -3 -9 -18.5t-20.5 -32.5t-22 -31t-14.5 -14q-3 0 -17.5 9t-30.5 20.5t-29 22.5t-13 15q0 3 6.5 15t15.5 26.5t19.5 29t18.5 22.5q6 8 6 13q0 4 -4 7q-9 6 -21.5 15t-24 18t-19 16.5t-7.5 9.5q0 4 9 20t20.5 33.5t22 31.5 t13.5 14q5 0 20 -10t30.5 -22t28 -23t12.5 -13q0 -3 -6.5 -15t-15.5 -27t-19 -29t-17 -21q-2 -2 -6 -6.5t-4 -9.5q0 -4 4 -7q9 -5 22 -14t24.5 -18.5t19.5 -17t8 -9.5z" />
<glyph unicode="&#x682;" horiz-adv-x="981" d="M1048 63q0 -12 -1.5 -23t-7 -20t-16.5 -14.5t-30 -5.5h-100q-75 0 -133 2.5t-97 15.5q-40 13 -56.5 38t-16.5 48q0 12 1.5 27.5t4 32t5.5 32.5t5 27q-66 -13 -129.5 -37t-119 -57.5t-102 -74.5t-80.5 -88t-52.5 -98.5t-18.5 -105.5q0 -82 34 -151t106 -118.5t184.5 -77 t269.5 -27.5q49 0 100.5 3.5t95 8t73 8.5t34.5 4t6 -4.5t1 -7.5t-19 -11t-48.5 -19.5t-65.5 -25t-70 -25.5t-61.5 -21t-39.5 -13q-18 -5 -36.5 -8t-35 -4.5t-30.5 -1.5h-23q-60 0 -122.5 7t-122 24t-112 46.5t-92 74.5t-62.5 107.5t-23 145.5q0 82 25 163t72 154.5 t114.5 136t153.5 108.5q-44 8 -92.5 13t-82.5 5q-15 0 -33 -2t-36 -5t-33.5 -5t-26.5 -2q-6 0 -6 8q0 5 2.5 17.5t5.5 26.5t5.5 26t3.5 16q2 7 21.5 16.5t46 17.5t55.5 13.5t51 5.5q40 0 82 -5.5t86.5 -12.5t90 -12.5t91.5 -6.5q15 0 37 0.5t46 1.5t48 1.5t43 0.5t31 -1 t12 -3q0 -3 -8 -18.5t-18 -32.5t-18 -31t-9 -14q-34 -6 -74.5 -12t-75.5 -13q1 -32 14 -52.5t47 -32.5t92 -16.5t148 -4.5h37q19 0 30 -5.5t16.5 -14t7 -19.5t1.5 -23zM609 585q0 -3 -9 -18.5t-20.5 -32.5t-22 -31t-14.5 -14q-3 0 -17.5 9t-30.5 20.5t-29 22.5t-13 15 q0 3 6.5 15t15.5 26.5t19.5 29t18.5 22.5q6 8 6 13q0 4 -4 7q-9 6 -21.5 15t-24 18t-19 16.5t-7.5 9.5q0 4 9 20t20.5 33.5t22 31.5t13.5 14q5 0 20 -10t30.5 -22t28 -23t12.5 -13q0 -3 -6.5 -15t-15.5 -27t-19 -29t-17 -21q-2 -2 -6 -6.5t-4 -9.5q0 -4 4 -7q9 -5 22 -14 t24.5 -18.5t19.5 -17t8 -9.5z" />
<glyph unicode="&#x683;" horiz-adv-x="977" arabic-form="initial" d="M895 301q0 -3 -3.5 -18.5t-9 -33.5t-10.5 -32t-8 -14q-31 0 -67.5 0.5t-71.5 1.5t-64.5 1.5t-46.5 0.5q-38 0 -73.5 -7t-67.5 -17.5t-60.5 -24t-52.5 -25.5q-41 -21 -82 -44.5t-82.5 -43t-84 -32.5t-86.5 -13h-37q-19 0 -30 5.5t-16.5 14.5t-7 20t-1.5 23t1.5 23t7 19.5 t16.5 14t30 5.5h37q38 0 72 3t66 9.5t63.5 16.5t66.5 24q38 16 82 32.5t86 29.5q-34 10 -66.5 24.5t-65 27t-65 21.5t-65.5 9q-22 0 -43 -4t-38.5 -8.5t-29 -8.5t-14.5 -4q-6 0 -6 8q0 11 7 27.5t18.5 34t26.5 34.5t32 29q22 16 44.5 20.5t57.5 4.5q27 0 59.5 -11t67 -26 t68.5 -31.5t63 -28.5q53 -21 122.5 -33.5t147.5 -16.5q48 -2 80.5 -3t32.5 -4zM599 -169q0 -4 -9 -20t-20.5 -33.5t-22 -31.5t-14.5 -14q-2 0 -15.5 9.5t-29.5 21.5q-18 13 -41 31q-4 4 -7 4t-7 -4q-15 -22 -27 -39q-11 -15 -20.5 -27t-12.5 -12t-17.5 9.5t-30.5 21.5 t-29 23t-13 14q0 4 9.5 19.5t21.5 33t22.5 31.5t12.5 14q5 0 18 -10t27 -21q17 -13 37 -30q6 -6 9 -6t7 8q15 21 28 38q11 14 21 26.5t12 12.5q3 0 18 -10t31 -22.5t29 -23.5t13 -13z" />
<glyph unicode="&#x683;" horiz-adv-x="1044" arabic-form="medial" d="M1112 63q0 -12 -1.5 -23t-7 -20t-16.5 -14.5t-30 -5.5h-37q-125 0 -199 8.5t-109 32.5q-22 15 -31 36.5t-9 51.5q0 20 4.5 39t9.5 41h-18q-59 0 -108 -8.5t-91.5 -23t-80 -32.5t-71.5 -37q-36 -20 -69.5 -39.5t-69 -34.5t-73 -24.5t-80.5 -9.5h-37q-19 0 -30 5.5 t-16.5 14.5t-7 20t-1.5 23t1.5 23t7 19.5t16.5 14t30 5.5h37q49 0 90.5 5.5t77.5 15t67.5 21t60.5 23.5q36 15 71 28.5t73 21.5q-21 8 -53 22.5t-70 28t-80 23.5t-82 10q-21 0 -39 -3.5t-31.5 -8t-22 -8t-9.5 -3.5q-8 0 -8 6q0 22 9 41.5t23 36.5t31.5 30.5t34.5 22.5 q20 11 44 14t38 3q31 0 72.5 -15t85.5 -34.5t88 -38.5t79 -27q40 -9 74 -14.5t71 -8.5t80.5 -3.5t102.5 -0.5q3 0 4.5 -3t1.5 -5t-3 -13.5t-7 -26t-8 -28.5t-6 -20q-2 -7 -39 -8.5t-107 -1.5q-1 -2 -1 -6v-7q0 -14 11 -25t28 -19q22 -9 53 -14.5t64 -7.5t66 -2.5t60 -0.5h37 q19 0 30 -5.5t16.5 -14t7 -19.5t1.5 -23zM680 -169q0 -4 -9 -20t-20.5 -33.5t-22 -31.5t-14.5 -14q-2 0 -15.5 9.5t-29.5 21.5q-18 13 -41 31q-4 4 -7 4t-7 -4q-15 -22 -27 -39q-11 -15 -20.5 -27t-12.5 -12t-17.5 9.5t-30.5 21.5t-29 23t-13 14q0 4 9.5 19.5t21.5 33 t22.5 31.5t12.5 14q5 0 18 -10t27 -21q17 -13 37 -30q6 -6 9 -6t7 8q15 21 28 38q11 14 21 26.5t12 12.5q3 0 18 -10t31 -22.5t29 -23.5t13 -13z" />
<glyph unicode="&#x683;" horiz-adv-x="981" arabic-form="final" d="M1048 63q0 -12 -1.5 -23t-7 -20t-16.5 -14.5t-30 -5.5h-100q-75 0 -133 2.5t-97 15.5q-40 13 -56.5 38t-16.5 48q0 12 1.5 27.5t4 32t5.5 32.5t5 27q-66 -13 -129.5 -37t-119 -57.5t-102 -74.5t-80.5 -88t-52.5 -98.5t-18.5 -105.5q0 -82 34 -151t106 -118.5t184.5 -77 t269.5 -27.5q49 0 100.5 3.5t95 8t73 8.5t34.5 4t6 -4.5t1 -7.5t-19 -11t-48.5 -19.5t-65.5 -25t-70 -25.5t-61.5 -21t-39.5 -13q-18 -5 -36.5 -8t-35 -4.5t-30.5 -1.5h-23q-60 0 -122.5 7t-122 24t-112 46.5t-92 74.5t-62.5 107.5t-23 145.5q0 82 25 163t72 154.5 t114.5 136t153.5 108.5q-44 8 -92.5 13t-82.5 5q-15 0 -33 -2t-36 -5t-33.5 -5t-26.5 -2q-6 0 -6 8q0 5 2.5 17.5t5.5 26.5t5.5 26t3.5 16q2 7 21.5 16.5t46 17.5t55.5 13.5t51 5.5q40 0 82 -5.5t86.5 -12.5t90 -12.5t91.5 -6.5q15 0 37 0.5t46 1.5t48 1.5t43 0.5t31 -1 t12 -3q0 -3 -8 -18.5t-18 -32.5t-18 -31t-9 -14q-34 -6 -74.5 -12t-75.5 -13q1 -32 14 -52.5t47 -32.5t92 -16.5t148 -4.5h37q19 0 30 -5.5t16.5 -14t7 -19.5t1.5 -23zM682 -206q0 -4 -9 -20t-20.5 -33.5t-22 -31.5t-14.5 -14q-2 0 -15.5 9.5t-29.5 21.5q-18 13 -41 31 q-4 4 -7 4t-7 -4q-15 -22 -27 -39q-11 -15 -20.5 -27t-12.5 -12t-17.5 9.5t-30.5 21.5t-29 23t-13 14q0 4 9.5 19.5t21.5 33t22.5 31.5t12.5 14q5 0 18 -10t27 -21q17 -13 37 -30q6 -6 9 -6t7 8q15 21 28 38q11 14 21 26.5t12 12.5q3 0 18 -10t31 -22.5t29 -23.5t13 -13z " />
<glyph unicode="&#x684;" horiz-adv-x="977" arabic-form="initial" d="M895 301q0 -3 -3.5 -18.5t-9 -33.5t-10.5 -32t-8 -14q-31 0 -67.5 0.5t-71.5 1.5t-64.5 1.5t-46.5 0.5q-38 0 -73.5 -7t-67.5 -17.5t-60.5 -24t-52.5 -25.5q-41 -21 -82 -44.5t-82.5 -43t-84 -32.5t-86.5 -13h-37q-19 0 -30 5.5t-16.5 14.5t-7 20t-1.5 23t1.5 23t7 19.5 t16.5 14t30 5.5h37q38 0 72 3t66 9.5t63.5 16.5t66.5 24q38 16 82 32.5t86 29.5q-34 10 -66.5 24.5t-65 27t-65 21.5t-65.5 9q-22 0 -43 -4t-38.5 -8.5t-29 -8.5t-14.5 -4q-6 0 -6 8q0 11 7 27.5t18.5 34t26.5 34.5t32 29q22 16 44.5 20.5t57.5 4.5q27 0 59.5 -11t67 -26 t68.5 -31.5t63 -28.5q53 -21 122.5 -33.5t147.5 -16.5q48 -2 80.5 -3t32.5 -4zM524 -342q0 -3 -9 -18.5t-20.5 -32.5t-22 -31t-14.5 -14q-3 0 -17.5 9t-30.5 20.5t-29 22.5t-13 15q0 3 6.5 15t15.5 26.5t19.5 29t18.5 22.5q6 8 6 13q0 4 -4 7q-9 6 -21.5 15t-24 18t-19 16.5 t-7.5 9.5q0 4 9 20t20.5 33.5t22 31.5t13.5 14q5 0 20 -10t30.5 -22t28 -23t12.5 -13q0 -3 -6.5 -15t-15.5 -27t-19 -29t-17 -21q-2 -2 -6 -6.5t-4 -9.5q0 -4 4 -7q9 -5 22 -14t24.5 -18.5t19.5 -17t8 -9.5z" />
<glyph unicode="&#x684;" horiz-adv-x="1044" arabic-form="medial" d="M1112 63q0 -12 -1.5 -23t-7 -20t-16.5 -14.5t-30 -5.5h-37q-125 0 -199 8.5t-109 32.5q-22 15 -31 36.5t-9 51.5q0 20 4.5 39t9.5 41h-18q-59 0 -108 -8.5t-91.5 -23t-80 -32.5t-71.5 -37q-36 -20 -69.5 -39.5t-69 -34.5t-73 -24.5t-80.5 -9.5h-37q-19 0 -30 5.5 t-16.5 14.5t-7 20t-1.5 23t1.5 23t7 19.5t16.5 14t30 5.5h37q49 0 90.5 5.5t77.5 15t67.5 21t60.5 23.5q36 15 71 28.5t73 21.5q-21 8 -53 22.5t-70 28t-80 23.5t-82 10q-21 0 -39 -3.5t-31.5 -8t-22 -8t-9.5 -3.5q-8 0 -8 6q0 22 9 41.5t23 36.5t31.5 30.5t34.5 22.5 q20 11 44 14t38 3q31 0 72.5 -15t85.5 -34.5t88 -38.5t79 -27q40 -9 74 -14.5t71 -8.5t80.5 -3.5t102.5 -0.5q3 0 4.5 -3t1.5 -5t-3 -13.5t-7 -26t-8 -28.5t-6 -20q-2 -7 -39 -8.5t-107 -1.5q-1 -2 -1 -6v-7q0 -14 11 -25t28 -19q22 -9 53 -14.5t64 -7.5t66 -2.5t60 -0.5h37 q19 0 30 -5.5t16.5 -14t7 -19.5t1.5 -23zM605 -342q0 -3 -9 -18.5t-20.5 -32.5t-22 -31t-14.5 -14q-3 0 -17.5 9t-30.5 20.5t-29 22.5t-13 15q0 3 6.5 15t15.5 26.5t19.5 29t18.5 22.5q6 8 6 13q0 4 -4 7q-9 6 -21.5 15t-24 18t-19 16.5t-7.5 9.5q0 4 9 20t20.5 33.5 t22 31.5t13.5 14q5 0 20 -10t30.5 -22t28 -23t12.5 -13q0 -3 -6.5 -15t-15.5 -27t-19 -29t-17 -21q-2 -2 -6 -6.5t-4 -9.5q0 -4 4 -7q9 -5 22 -14t24.5 -18.5t19.5 -17t8 -9.5z" />
<glyph unicode="&#x684;" horiz-adv-x="981" arabic-form="final" d="M1048 63q0 -12 -1.5 -23t-7 -20t-16.5 -14.5t-30 -5.5h-100q-75 0 -133 2.5t-97 15.5q-40 13 -56.5 38t-16.5 48q0 12 1.5 27.5t4 32t5.5 32.5t5 27q-66 -13 -129.5 -37t-119 -57.5t-102 -74.5t-80.5 -88t-52.5 -98.5t-18.5 -105.5q0 -82 34 -151t106 -118.5t184.5 -77 t269.5 -27.5q49 0 100.5 3.5t95 8t73 8.5t34.5 4t6 -4.5t1 -7.5t-19 -11t-48.5 -19.5t-65.5 -25t-70 -25.5t-61.5 -21t-39.5 -13q-18 -5 -36.5 -8t-35 -4.5t-30.5 -1.5h-23q-60 0 -122.5 7t-122 24t-112 46.5t-92 74.5t-62.5 107.5t-23 145.5q0 82 25 163t72 154.5 t114.5 136t153.5 108.5q-44 8 -92.5 13t-82.5 5q-15 0 -33 -2t-36 -5t-33.5 -5t-26.5 -2q-6 0 -6 8q0 5 2.5 17.5t5.5 26.5t5.5 26t3.5 16q2 7 21.5 16.5t46 17.5t55.5 13.5t51 5.5q40 0 82 -5.5t86.5 -12.5t90 -12.5t91.5 -6.5q15 0 37 0.5t46 1.5t48 1.5t43 0.5t31 -1 t12 -3q0 -3 -8 -18.5t-18 -32.5t-18 -31t-9 -14q-34 -6 -74.5 -12t-75.5 -13q1 -32 14 -52.5t47 -32.5t92 -16.5t148 -4.5h37q19 0 30 -5.5t16.5 -14t7 -19.5t1.5 -23zM607 -303q0 -3 -9 -18.5t-20.5 -32.5t-22 -31t-14.5 -14q-3 0 -17.5 9t-30.5 20.5t-29 22.5t-13 15 q0 3 6.5 15t15.5 26.5t19.5 29t18.5 22.5q6 8 6 13q0 4 -4 7q-9 6 -21.5 15t-24 18t-19 16.5t-7.5 9.5q0 4 9 20t20.5 33.5t22 31.5t13.5 14q5 0 20 -10t30.5 -22t28 -23t12.5 -13q0 -3 -6.5 -15t-15.5 -27t-19 -29t-17 -21q-2 -2 -6 -6.5t-4 -9.5q0 -4 4 -7q9 -5 22 -14 t24.5 -18.5t19.5 -17t8 -9.5z" />
<glyph unicode="&#x685;" horiz-adv-x="977" d="M895 301q0 -3 -3.5 -18.5t-9 -33.5t-10.5 -32t-8 -14q-31 0 -67.5 0.5t-71.5 1.5t-64.5 1.5t-46.5 0.5q-38 0 -73.5 -7t-67.5 -17.5t-60.5 -24t-52.5 -25.5q-41 -21 -82 -44.5t-82.5 -43t-84 -32.5t-86.5 -13h-37q-19 0 -30 5.5t-16.5 14.5t-7 20t-1.5 23t1.5 23t7 19.5 t16.5 14t30 5.5h37q38 0 72 3t66 9.5t63.5 16.5t66.5 24q38 16 82 32.5t86 29.5q-34 10 -66.5 24.5t-65 27t-65 21.5t-65.5 9q-22 0 -43 -4t-38.5 -8.5t-29 -8.5t-14.5 -4q-6 0 -6 8q0 11 7 27.5t18.5 34t26.5 34.5t32 29q22 16 44.5 20.5t57.5 4.5q27 0 59.5 -11t67 -26 t68.5 -31.5t63 -28.5q53 -21 122.5 -33.5t147.5 -16.5q48 -2 80.5 -3t32.5 -4zM497 846q0 -4 -9 -20t-20 -33.5t-22 -31.5t-15 -14q-2 0 -16.5 9.5t-31 21.5t-29.5 23.5t-13 15.5t9.5 19.5t21.5 32.5t22.5 30.5t12.5 13.5q4 0 19 -9.5t30.5 -21.5t28 -23t12.5 -13zM599 672 q0 -4 -9 -20t-20 -33.5t-21.5 -31.5t-14.5 -14q-2 0 -15.5 9.5t-28.5 21.5q-18 13 -40 31q-4 4 -8 4q-3 0 -7 -6q-16 -22 -28 -39q-11 -15 -20.5 -27t-12.5 -12t-17.5 9.5t-30.5 22t-29 24t-13 14.5t9.5 18.5t21 32.5t22 31t12.5 14q5 0 18.5 -9.5t27.5 -20.5q17 -13 36 -30 q7 -5 10 -5t9 7q14 21 26 38q11 14 20.5 26t12.5 12t17.5 -9.5t30.5 -21.5t29 -23t13 -13z" />
<glyph unicode="&#x685;" horiz-adv-x="1044" d="M1112 63q0 -12 -1.5 -23t-7 -20t-16.5 -14.5t-30 -5.5h-37q-125 0 -199 8.5t-109 32.5q-22 15 -31 36.5t-9 51.5q0 20 4.5 39t9.5 41h-18q-59 0 -108 -8.5t-91.5 -23t-80 -32.5t-71.5 -37q-36 -20 -69.5 -39.5t-69 -34.5t-73 -24.5t-80.5 -9.5h-37q-19 0 -30 5.5 t-16.5 14.5t-7 20t-1.5 23t1.5 23t7 19.5t16.5 14t30 5.5h37q49 0 90.5 5.5t77.5 15t67.5 21t60.5 23.5q36 15 71 28.5t73 21.5q-21 8 -53 22.5t-70 28t-80 23.5t-82 10q-21 0 -39 -3.5t-31.5 -8t-22 -8t-9.5 -3.5q-8 0 -8 6q0 22 9 41.5t23 36.5t31.5 30.5t34.5 22.5 q20 11 44 14t38 3q31 0 72.5 -15t85.5 -34.5t88 -38.5t79 -27q40 -9 74 -14.5t71 -8.5t80.5 -3.5t102.5 -0.5q3 0 4.5 -3t1.5 -5t-3 -13.5t-7 -26t-8 -28.5t-6 -20q-2 -7 -39 -8.5t-107 -1.5q-1 -2 -1 -6v-7q0 -14 11 -25t28 -19q22 -9 53 -14.5t64 -7.5t66 -2.5t60 -0.5h37 q19 0 30 -5.5t16.5 -14t7 -19.5t1.5 -23zM578 846q0 -4 -9 -20t-20 -33.5t-22 -31.5t-15 -14q-2 0 -16.5 9.5t-31 21.5t-29.5 23.5t-13 15.5t9.5 19.5t21.5 32.5t22.5 30.5t12.5 13.5q4 0 19 -9.5t30.5 -21.5t28 -23t12.5 -13zM680 672q0 -4 -9 -20t-20 -33.5t-21.5 -31.5 t-14.5 -14q-2 0 -15.5 9.5t-28.5 21.5q-18 13 -40 31q-4 4 -8 4q-3 0 -7 -6q-16 -22 -28 -39q-11 -15 -20.5 -27t-12.5 -12t-17.5 9.5t-30.5 22t-29 24t-13 14.5t9.5 18.5t21 32.5t22 31t12.5 14q5 0 18.5 -9.5t27.5 -20.5q17 -13 36 -30q7 -5 10 -5t9 7q14 21 26 38 q11 14 20.5 26t12.5 12t17.5 -9.5t30.5 -21.5t29 -23t13 -13z" />
<glyph unicode="&#x685;" horiz-adv-x="981" d="M1048 63q0 -12 -1.5 -23t-7 -20t-16.5 -14.5t-30 -5.5h-100q-75 0 -133 2.5t-97 15.5q-40 13 -56.5 38t-16.5 48q0 12 1.5 27.5t4 32t5.5 32.5t5 27q-66 -13 -129.5 -37t-119 -57.5t-102 -74.5t-80.5 -88t-52.5 -98.5t-18.5 -105.5q0 -82 34 -151t106 -118.5t184.5 -77 t269.5 -27.5q49 0 100.5 3.5t95 8t73 8.5t34.5 4t6 -4.5t1 -7.5t-19 -11t-48.5 -19.5t-65.5 -25t-70 -25.5t-61.5 -21t-39.5 -13q-18 -5 -36.5 -8t-35 -4.5t-30.5 -1.5h-23q-60 0 -122.5 7t-122 24t-112 46.5t-92 74.5t-62.5 107.5t-23 145.5q0 82 25 163t72 154.5 t114.5 136t153.5 108.5q-44 8 -92.5 13t-82.5 5q-15 0 -33 -2t-36 -5t-33.5 -5t-26.5 -2q-6 0 -6 8q0 5 2.5 17.5t5.5 26.5t5.5 26t3.5 16q2 7 21.5 16.5t46 17.5t55.5 13.5t51 5.5q40 0 82 -5.5t86.5 -12.5t90 -12.5t91.5 -6.5q15 0 37 0.5t46 1.5t48 1.5t43 0.5t31 -1 t12 -3q0 -3 -8 -18.5t-18 -32.5t-18 -31t-9 -14q-34 -6 -74.5 -12t-75.5 -13q1 -32 14 -52.5t47 -32.5t92 -16.5t148 -4.5h37q19 0 30 -5.5t16.5 -14t7 -19.5t1.5 -23zM582 780q0 -4 -9 -20t-20 -33.5t-22 -31.5t-15 -14q-2 0 -16.5 9.5t-31 21.5t-29.5 23.5t-13 15.5 t9.5 19.5t21.5 32.5t22.5 30.5t12.5 13.5q4 0 19 -9.5t30.5 -21.5t28 -23t12.5 -13zM684 606q0 -4 -9 -20t-20 -33.5t-21.5 -31.5t-14.5 -14q-2 0 -15.5 9.5t-28.5 21.5q-18 13 -40 31q-4 4 -8 4q-3 0 -7 -6q-16 -22 -28 -39q-11 -15 -20.5 -27t-12.5 -12t-17.5 9.5 t-30.5 22t-29 24t-13 14.5t9.5 18.5t21 32.5t22 31t12.5 14q5 0 18.5 -9.5t27.5 -20.5q17 -13 36 -30q7 -5 10 -5t9 7q14 21 26 38q11 14 20.5 26t12.5 12t17.5 -9.5t30.5 -21.5t29 -23t13 -13z" />
<glyph unicode="&#x686;" horiz-adv-x="977" arabic-form="initial" d="M895 301q0 -3 -3.5 -18.5t-9 -33.5t-10.5 -32t-8 -14q-31 0 -67.5 0.5t-71.5 1.5t-64.5 1.5t-46.5 0.5q-38 0 -73.5 -7t-67.5 -17.5t-60.5 -24t-52.5 -25.5q-41 -21 -82 -44.5t-82.5 -43t-84 -32.5t-86.5 -13h-37q-19 0 -30 5.5t-16.5 14.5t-7 20t-1.5 23t1.5 23t7 19.5 t16.5 14t30 5.5h37q38 0 72 3t66 9.5t63.5 16.5t66.5 24q38 16 82 32.5t86 29.5q-34 10 -66.5 24.5t-65 27t-65 21.5t-65.5 9q-22 0 -43 -4t-38.5 -8.5t-29 -8.5t-14.5 -4q-6 0 -6 8q0 11 7 27.5t18.5 34t26.5 34.5t32 29q22 16 44.5 20.5t57.5 4.5q27 0 59.5 -11t67 -26 t68.5 -31.5t63 -28.5q53 -21 122.5 -33.5t147.5 -16.5q48 -2 80.5 -3t32.5 -4zM600 -168q0 -4 -9 -19.5t-20.5 -33t-22 -31.5t-14.5 -14q-2 0 -15.5 9.5t-29.5 21.5q-18 13 -41 31q-4 4 -7 4t-7 -6q-16 -22 -28 -39q-11 -15 -21 -27t-13 -12q-2 0 -16.5 9.5t-31 22 t-29.5 23.5t-13 14t9.5 19t21.5 33t22.5 31t12.5 14q5 0 18 -9.5t28 -20.5l38 -30q7 -5 8 -5q2 0 8 7l28 38q11 14 20.5 26t13.5 12t18.5 -9.5t30.5 -21.5t28.5 -23t12.5 -14zM530 -366q0 -3 -9 -18.5t-20 -32.5t-22.5 -31t-15.5 -14q-3 0 -17.5 9t-31 20.5t-29.5 22.5 t-13 15t9.5 19.5t21.5 33t23 31.5t14 14q4 0 18.5 -9.5t30.5 -22t28.5 -23.5t12.5 -14z" />
<glyph unicode="&#x686;" horiz-adv-x="1044" arabic-form="medial" d="M1112 63q0 -12 -1.5 -23t-7 -20t-16.5 -14.5t-30 -5.5h-37q-125 0 -199 8.5t-109 32.5q-22 15 -31 36.5t-9 51.5q0 20 4.5 39t9.5 41h-18q-59 0 -108 -8.5t-91.5 -23t-80 -32.5t-71.5 -37q-36 -20 -69.5 -39.5t-69 -34.5t-73 -24.5t-80.5 -9.5h-37q-19 0 -30 5.5 t-16.5 14.5t-7 20t-1.5 23t1.5 23t7 19.5t16.5 14t30 5.5h37q49 0 90.5 5.5t77.5 15t67.5 21t60.5 23.5q36 15 71 28.5t73 21.5q-21 8 -53 22.5t-70 28t-80 23.5t-82 10q-21 0 -39 -3.5t-31.5 -8t-22 -8t-9.5 -3.5q-8 0 -8 6q0 22 9 41.5t23 36.5t31.5 30.5t34.5 22.5 q20 11 44 14t38 3q31 0 72.5 -15t85.5 -34.5t88 -38.5t79 -27q40 -9 74 -14.5t71 -8.5t80.5 -3.5t102.5 -0.5q3 0 4.5 -3t1.5 -5t-3 -13.5t-7 -26t-8 -28.5t-6 -20q-2 -7 -39 -8.5t-107 -1.5q-1 -2 -1 -6v-7q0 -14 11 -25t28 -19q22 -9 53 -14.5t64 -7.5t66 -2.5t60 -0.5h37 q19 0 30 -5.5t16.5 -14t7 -19.5t1.5 -23zM681 -168q0 -4 -9 -19.5t-20.5 -33t-22 -31.5t-14.5 -14q-2 0 -15.5 9.5t-29.5 21.5q-18 13 -41 31q-4 4 -7 4t-7 -6q-16 -22 -28 -39q-11 -15 -21 -27t-13 -12q-2 0 -16.5 9.5t-31 22t-29.5 23.5t-13 14t9.5 19t21.5 33t22.5 31 t12.5 14q5 0 18 -9.5t28 -20.5l38 -30q7 -5 8 -5q2 0 8 7l28 38q11 14 20.5 26t13.5 12t18.5 -9.5t30.5 -21.5t28.5 -23t12.5 -14zM611 -366q0 -3 -9 -18.5t-20 -32.5t-22.5 -31t-15.5 -14q-3 0 -17.5 9t-31 20.5t-29.5 22.5t-13 15t9.5 19.5t21.5 33t23 31.5t14 14 q4 0 18.5 -9.5t30.5 -22t28.5 -23.5t12.5 -14z" />
<glyph unicode="&#x686;" horiz-adv-x="981" arabic-form="final" d="M1048 63q0 -12 -1.5 -23t-7 -20t-16.5 -14.5t-30 -5.5h-100q-75 0 -133 2.5t-97 15.5q-40 13 -56.5 38t-16.5 48q0 12 1.5 27.5t4 32t5.5 32.5t5 27q-66 -13 -129.5 -37t-119 -57.5t-102 -74.5t-80.5 -88t-52.5 -98.5t-18.5 -105.5q0 -82 34 -151t106 -118.5t184.5 -77 t269.5 -27.5q49 0 100.5 3.5t95 8t73 8.5t34.5 4t6 -4.5t1 -7.5t-19 -11t-48.5 -19.5t-65.5 -25t-70 -25.5t-61.5 -21t-39.5 -13q-18 -5 -36.5 -8t-35 -4.5t-30.5 -1.5h-23q-60 0 -122.5 7t-122 24t-112 46.5t-92 74.5t-62.5 107.5t-23 145.5q0 82 25 163t72 154.5 t114.5 136t153.5 108.5q-44 8 -92.5 13t-82.5 5q-15 0 -33 -2t-36 -5t-33.5 -5t-26.5 -2q-6 0 -6 8q0 5 2.5 17.5t5.5 26.5t5.5 26t3.5 16q2 7 21.5 16.5t46 17.5t55.5 13.5t51 5.5q40 0 82 -5.5t86.5 -12.5t90 -12.5t91.5 -6.5q15 0 37 0.5t46 1.5t48 1.5t43 0.5t31 -1 t12 -3q0 -3 -8 -18.5t-18 -32.5t-18 -31t-9 -14q-34 -6 -74.5 -12t-75.5 -13q1 -32 14 -52.5t47 -32.5t92 -16.5t148 -4.5h37q19 0 30 -5.5t16.5 -14t7 -19.5t1.5 -23zM684 -117q0 -4 -9 -19.5t-20.5 -33t-22 -31.5t-14.5 -14q-2 0 -15.5 9.5t-29.5 21.5q-18 13 -41 31 q-4 4 -7 4t-7 -6q-16 -22 -28 -39q-11 -15 -21 -27t-13 -12q-2 0 -16.5 9.5t-31 22t-29.5 23.5t-13 14t9.5 19t21.5 33t22.5 31t12.5 14q5 0 18 -9.5t28 -20.5l38 -30q7 -5 8 -5q2 0 8 7l28 38q11 14 20.5 26t13.5 12t18.5 -9.5t30.5 -21.5t28.5 -23t12.5 -14zM614 -315 q0 -3 -9 -18.5t-20 -32.5t-22.5 -31t-15.5 -14q-3 0 -17.5 9t-31 20.5t-29.5 22.5t-13 15t9.5 19.5t21.5 33t23 31.5t14 14q4 0 18.5 -9.5t30.5 -22t28.5 -23.5t12.5 -14z" />
<glyph unicode="&#x687;" horiz-adv-x="977" arabic-form="initial" d="M895 301q0 -3 -3.5 -18.5t-9 -33.5t-10.5 -32t-8 -14q-31 0 -67.5 0.5t-71.5 1.5t-64.5 1.5t-46.5 0.5q-38 0 -73.5 -7t-67.5 -17.5t-60.5 -24t-52.5 -25.5q-41 -21 -82 -44.5t-82.5 -43t-84 -32.5t-86.5 -13h-37q-19 0 -30 5.5t-16.5 14.5t-7 20t-1.5 23t1.5 23t7 19.5 t16.5 14t30 5.5h37q38 0 72 3t66 9.5t63.5 16.5t66.5 24q38 16 82 32.5t86 29.5q-34 10 -66.5 24.5t-65 27t-65 21.5t-65.5 9q-22 0 -43 -4t-38.5 -8.5t-29 -8.5t-14.5 -4q-6 0 -6 8q0 11 7 27.5t18.5 34t26.5 34.5t32 29q22 16 44.5 20.5t57.5 4.5q27 0 59.5 -11t67 -26 t68.5 -31.5t63 -28.5q53 -21 122.5 -33.5t147.5 -16.5q48 -2 80.5 -3t32.5 -4zM592 -169q0 -4 -9 -19.5t-20 -33t-21.5 -31.5t-14.5 -14q-2 0 -15.5 9.5t-29.5 20.5q-18 13 -41 31q-5 4 -8 4q-2 0 -6 -4q-16 -22 -28 -39q-11 -15 -21 -27t-13 -12q-2 0 -16.5 9.5t-31 21.5 t-29.5 23t-13 14q0 4 9.5 19.5t21.5 33t23 31.5t14 14q5 0 18 -10t27 -21q17 -13 37 -30q6 -6 8 -6q3 0 8 8q15 21 27 38q11 14 21 26.5t13 12.5t17.5 -10t30.5 -22.5t29 -23.5t13 -13zM607 -341q0 -4 -9 -20t-21 -33.5t-22.5 -31.5t-13.5 -14t-17 9.5t-29 21.5 q-18 13 -40 31q-5 4 -8 4q-2 0 -6 -4q-16 -22 -28 -39q-11 -15 -21 -27t-13 -12t-17.5 9.5t-30.5 21.5t-29 23t-13 14q0 4 9.5 19.5t21.5 33t22.5 31.5t12.5 14q5 0 18 -10t27 -21q17 -13 37 -30q7 -6 10 -6t8 8l28 38q11 14 20.5 26.5t11.5 12.5q4 0 18.5 -10t31 -22.5 t29.5 -23.5t13 -13z" />
<glyph unicode="&#x687;" horiz-adv-x="1044" arabic-form="medial" d="M1112 63q0 -12 -1.5 -23t-7 -20t-16.5 -14.5t-30 -5.5h-37q-125 0 -199 8.5t-109 32.5q-22 15 -31 36.5t-9 51.5q0 20 4.5 39t9.5 41h-18q-59 0 -108 -8.5t-91.5 -23t-80 -32.5t-71.5 -37q-36 -20 -69.5 -39.5t-69 -34.5t-73 -24.5t-80.5 -9.5h-37q-19 0 -30 5.5 t-16.5 14.5t-7 20t-1.5 23t1.5 23t7 19.5t16.5 14t30 5.5h37q49 0 90.5 5.5t77.5 15t67.5 21t60.5 23.5q36 15 71 28.5t73 21.5q-21 8 -53 22.5t-70 28t-80 23.5t-82 10q-21 0 -39 -3.5t-31.5 -8t-22 -8t-9.5 -3.5q-8 0 -8 6q0 22 9 41.5t23 36.5t31.5 30.5t34.5 22.5 q20 11 44 14t38 3q31 0 72.5 -15t85.5 -34.5t88 -38.5t79 -27q40 -9 74 -14.5t71 -8.5t80.5 -3.5t102.5 -0.5q3 0 4.5 -3t1.5 -5t-3 -13.5t-7 -26t-8 -28.5t-6 -20q-2 -7 -39 -8.5t-107 -1.5q-1 -2 -1 -6v-7q0 -14 11 -25t28 -19q22 -9 53 -14.5t64 -7.5t66 -2.5t60 -0.5h37 q19 0 30 -5.5t16.5 -14t7 -19.5t1.5 -23zM673 -169q0 -4 -9 -19.5t-20 -33t-21.5 -31.5t-14.5 -14q-2 0 -15.5 9.5t-29.5 20.5q-18 13 -41 31q-5 4 -8 4q-2 0 -6 -4q-16 -22 -28 -39q-11 -15 -21 -27t-13 -12q-2 0 -16.5 9.5t-31 21.5t-29.5 23t-13 14q0 4 9.5 19.5t21.5 33 t23 31.5t14 14q5 0 18 -10t27 -21q17 -13 37 -30q6 -6 8 -6q3 0 8 8q15 21 27 38q11 14 21 26.5t13 12.5t17.5 -10t30.5 -22.5t29 -23.5t13 -13zM688 -341q0 -4 -9 -20t-21 -33.5t-22.5 -31.5t-13.5 -14t-17 9.5t-29 21.5q-18 13 -40 31q-5 4 -8 4q-2 0 -6 -4 q-16 -22 -28 -39q-11 -15 -21 -27t-13 -12t-17.5 9.5t-30.5 21.5t-29 23t-13 14q0 4 9.5 19.5t21.5 33t22.5 31.5t12.5 14q5 0 18 -10t27 -21q17 -13 37 -30q7 -6 10 -6t8 8l28 38q11 14 20.5 26.5t11.5 12.5q4 0 18.5 -10t31 -22.5t29.5 -23.5t13 -13z" />
<glyph unicode="&#x687;" horiz-adv-x="981" arabic-form="final" d="M1048 63q0 -12 -1.5 -23t-7 -20t-16.5 -14.5t-30 -5.5h-100q-75 0 -133 2.5t-97 15.5q-40 13 -56.5 38t-16.5 48q0 12 1.5 27.5t4 32t5.5 32.5t5 27q-66 -13 -129.5 -37t-119 -57.5t-102 -74.5t-80.5 -88t-52.5 -98.5t-18.5 -105.5q0 -82 34 -151t106 -118.5t184.5 -77 t269.5 -27.5q49 0 100.5 3.5t95 8t73 8.5t34.5 4t6 -4.5t1 -7.5t-19 -11t-48.5 -19.5t-65.5 -25t-70 -25.5t-61.5 -21t-39.5 -13q-18 -5 -36.5 -8t-35 -4.5t-30.5 -1.5h-23q-60 0 -122.5 7t-122 24t-112 46.5t-92 74.5t-62.5 107.5t-23 145.5q0 82 25 163t72 154.5 t114.5 136t153.5 108.5q-44 8 -92.5 13t-82.5 5q-15 0 -33 -2t-36 -5t-33.5 -5t-26.5 -2q-6 0 -6 8q0 5 2.5 17.5t5.5 26.5t5.5 26t3.5 16q2 7 21.5 16.5t46 17.5t55.5 13.5t51 5.5q40 0 82 -5.5t86.5 -12.5t90 -12.5t91.5 -6.5q15 0 37 0.5t46 1.5t48 1.5t43 0.5t31 -1 t12 -3q0 -3 -8 -18.5t-18 -32.5t-18 -31t-9 -14q-34 -6 -74.5 -12t-75.5 -13q1 -32 14 -52.5t47 -32.5t92 -16.5t148 -4.5h37q19 0 30 -5.5t16.5 -14t7 -19.5t1.5 -23zM675 -119q0 -4 -9 -19.5t-20 -33t-21.5 -31.5t-14.5 -14q-2 0 -15.5 9.5t-29.5 20.5q-18 13 -41 31 q-5 4 -8 4q-2 0 -6 -4q-16 -22 -28 -39q-11 -15 -21 -27t-13 -12q-2 0 -16.5 9.5t-31 21.5t-29.5 23t-13 14q0 4 9.5 19.5t21.5 33t23 31.5t14 14q5 0 18 -10t27 -21q17 -13 37 -30q6 -6 8 -6q3 0 8 8q15 21 27 38q11 14 21 26.5t13 12.5t17.5 -10t30.5 -22.5t29 -23.5 t13 -13zM690 -291q0 -4 -9 -20t-21 -33.5t-22.5 -31.5t-13.5 -14t-17 9.5t-29 21.5q-18 13 -40 31q-5 4 -8 4q-2 0 -6 -4q-16 -22 -28 -39q-11 -15 -21 -27t-13 -12t-17.5 9.5t-30.5 21.5t-29 23t-13 14q0 4 9.5 19.5t21.5 33t22.5 31.5t12.5 14q5 0 18 -10t27 -21 q17 -13 37 -30q7 -6 10 -6t8 8l28 38q11 14 20.5 26.5t11.5 12.5q4 0 18.5 -10t31 -22.5t29.5 -23.5t13 -13z" />
<glyph unicode="&#x688;" horiz-adv-x="762" arabic-form="final" d="M829 63q0 -12 -1.5 -23t-7 -20t-16.5 -14.5t-30 -5.5h-37q-51 0 -83 12.5t-53.5 38.5t-38 65.5t-36.5 94.5q-26 -45 -49 -78t-55 -55q-46 -32 -99.5 -46t-109.5 -14q-26 0 -53 4.5t-49 15.5t-36 29t-14 44q0 7 6 28t14 43.5t16 40t12 17.5q3 0 5.5 -4.5t4 -10.5l3 -12 t3.5 -10q3 -9 10.5 -18.5t22.5 -18t39 -14t59 -5.5q46 0 91 4t80 20.5t57 48.5t22 89q-5 47 -14 92.5t-19 87.5t-17 79t-7 67q0 9 7.5 28.5t17 40t18 35.5t10.5 15q5 0 6.5 -5t3.5 -22q7 -49 16 -104t19 -110.5t20.5 -108t21.5 -97t21.5 -78t20.5 -49.5q17 -28 46 -41.5 t60 -13.5h37q19 0 30 -5.5t16.5 -14t7 -19.5t1.5 -23zM678 1040q0 -35 -17 -61.5t-44.5 -46t-63.5 -33t-73.5 -21.5t-74.5 -11.5t-66 -3.5q-12 0 -26 8t-26 19t-20.5 23t-8.5 20q0 9 8 9q11 0 30 -2.5t39 -2.5q21 0 32.5 8.5t17.5 25.5q5 14 7 28.5t2 22.5q0 34 -5 66.5 t-11 65t-11 65t-5 67.5q0 12 3 24t7.5 22t10 16t10.5 6q2 0 8.5 -10t14 -22t13 -22t5.5 -11q-8 -7 -14.5 -17t-6.5 -30t3 -38t6.5 -38t6.5 -43.5t3 -54.5q0 -27 -3 -60q97 115 175 115q35 0 54.5 -24.5t19.5 -58.5zM634 1010q0 5 -6 9.5t-15 8t-20 5.5t-20 2q-19 0 -36 -4.5 t-34.5 -15t-36.5 -28.5t-41 -44q59 4 99 14.5t64.5 21.5t35 20t10.5 11z" />
<glyph unicode="&#x689;" horiz-adv-x="762" d="M418 -47q0 -32 -11 -60t-30.5 -49t-46.5 -33.5t-59 -12.5q-46 0 -70.5 33t-24.5 104q0 45 22 83q-25 1 -49.5 6.5t-44 16.5t-31.5 28.5t-12 41.5q0 7 6 28t14 43.5t16 40t12 17.5q3 0 5.5 -4.5t4 -10.5l3 -12t3.5 -10q3 -9 10.5 -18.5t22.5 -18t39 -14t59 -5.5q46 0 91 4 t80 20.5t57 48.5t22 89q-5 47 -14 92.5t-19 87.5t-17 79t-7 67q0 9 7.5 28.5t17 40t18 35.5t10.5 15q5 0 6.5 -5t3.5 -22q7 -49 16 -104t19 -110.5t20.5 -108t21.5 -97t21.5 -78t20.5 -49.5q17 -28 46 -41.5t60 -13.5h37q19 0 30 -5.5t16.5 -14t7 -19.5t1.5 -23t-1.5 -23 t-7 -20t-16.5 -14.5t-30 -5.5h-37q-51 0 -83 12.5t-53.5 38.5t-38 65.5t-36.5 94.5q-26 -45 -49 -78t-55 -55q-11 -8 -22.5 -14.5t-22.5 -11.5q19 -21 30 -48.5t11 -50.5zM363 -76q0 12 -9.5 26t-23.5 26t-31 20t-32 8q-25 0 -40 -19t-15 -41q0 -24 25.5 -38t56.5 -14 q9 0 21 2.5t22.5 7t18 10.5t7.5 12z" />
<glyph unicode="&#x68a;" horiz-adv-x="762" d="M829 63q0 -12 -1.5 -23t-7 -20t-16.5 -14.5t-30 -5.5h-37q-51 0 -83 12.5t-53.5 38.5t-38 65.5t-36.5 94.5q-26 -45 -49 -78t-55 -55q-46 -32 -99.5 -46t-109.5 -14q-26 0 -53 4.5t-49 15.5t-36 29t-14 44q0 7 6 28t14 43.5t16 40t12 17.5q3 0 5.5 -4.5t4 -10.5l3 -12 t3.5 -10q3 -9 10.5 -18.5t22.5 -18t39 -14t59 -5.5q46 0 91 4t80 20.5t57 48.5t22 89q-5 47 -14 92.5t-19 87.5t-17 79t-7 67q0 9 7.5 28.5t17 40t18 35.5t10.5 15q5 0 6.5 -5t3.5 -22q7 -49 16 -104t19 -110.5t20.5 -108t21.5 -97t21.5 -78t20.5 -49.5q17 -28 46 -41.5 t60 -13.5h37q19 0 30 -5.5t16.5 -14t7 -19.5t1.5 -23zM496 -167q0 -4 -9 -19.5t-20.5 -33t-23 -31.5t-15.5 -14q-2 0 -16.5 9t-31 20.5t-29.5 22.5t-13 15t9.5 19.5t21 33t22.5 31.5t14 14q4 0 19 -9.5t31 -21.5t28.5 -23t12.5 -13z" />
<glyph unicode="&#x68b;" horiz-adv-x="762" d="M829 63q0 -12 -1.5 -23t-7 -20t-16.5 -14.5t-30 -5.5h-37q-51 0 -83 12.5t-53.5 38.5t-38 65.5t-36.5 94.5q-26 -45 -49 -78t-55 -55q-46 -32 -99.5 -46t-109.5 -14q-26 0 -53 4.5t-49 15.5t-36 29t-14 44q0 7 6 28t14 43.5t16 40t12 17.5q3 0 5.5 -4.5t4 -10.5l3 -12 t3.5 -10q3 -9 10.5 -18.5t22.5 -18t39 -14t59 -5.5q46 0 91 4t80 20.5t57 48.5t22 89q-5 47 -14 92.5t-19 87.5t-17 79t-7 67q0 9 7.5 28.5t17 40t18 35.5t10.5 15q5 0 6.5 -5t3.5 -22q7 -49 16 -104t19 -110.5t20.5 -108t21.5 -97t21.5 -78t20.5 -49.5q17 -28 46 -41.5 t60 -13.5h37q19 0 30 -5.5t16.5 -14t7 -19.5t1.5 -23zM678 1040q0 -35 -17 -61.5t-44.5 -46t-63.5 -33t-73.5 -21.5t-74.5 -11.5t-66 -3.5q-12 0 -26 8t-26 19t-20.5 23t-8.5 20q0 9 8 9q11 0 30 -2.5t39 -2.5q21 0 32.5 8.5t17.5 25.5q5 14 7 28.5t2 22.5q0 34 -5 66.5 t-11 65t-11 65t-5 67.5q0 12 3 24t7.5 22t10 16t10.5 6q2 0 8.5 -10t14 -22t13 -22t5.5 -11q-8 -7 -14.5 -17t-6.5 -30t3 -38t6.5 -38t6.5 -43.5t3 -54.5q0 -27 -3 -60q97 115 175 115q35 0 54.5 -24.5t19.5 -58.5zM634 1010q0 5 -6 9.5t-15 8t-20 5.5t-20 2q-19 0 -36 -4.5 t-34.5 -15t-36.5 -28.5t-41 -44q59 4 99 14.5t64.5 21.5t35 20t10.5 11zM496 -167q0 -4 -9 -19.5t-20.5 -33t-23 -31.5t-15.5 -14q-2 0 -16.5 9t-31 20.5t-29.5 22.5t-13 15t9.5 19.5t21 33t22.5 31.5t14 14q4 0 19 -9.5t31 -21.5t28.5 -23t12.5 -13z" />
<glyph unicode="&#x68c;" horiz-adv-x="762" arabic-form="final" d="M829 63q0 -12 -1.5 -23t-7 -20t-16.5 -14.5t-30 -5.5h-37q-51 0 -83 12.5t-53.5 38.5t-38 65.5t-36.5 94.5q-26 -45 -49 -78t-55 -55q-46 -32 -99.5 -46t-109.5 -14q-26 0 -53 4.5t-49 15.5t-36 29t-14 44q0 7 6 28t14 43.5t16 40t12 17.5q3 0 5.5 -4.5t4 -10.5l3 -12 t3.5 -10q3 -9 10.5 -18.5t22.5 -18t39 -14t59 -5.5q46 0 91 4t80 20.5t57 48.5t22 89q-5 47 -14 92.5t-19 87.5t-17 79t-7 67q0 9 7.5 28.5t17 40t18 35.5t10.5 15q5 0 6.5 -5t3.5 -22q7 -49 16 -104t19 -110.5t20.5 -108t21.5 -97t21.5 -78t20.5 -49.5q17 -28 46 -41.5 t60 -13.5h37q19 0 30 -5.5t16.5 -14t7 -19.5t1.5 -23zM626 979q0 -4 -9 -20t-20.5 -33.5t-22 -31.5t-14.5 -14q-2 0 -15.5 9.5t-29.5 21.5q-18 13 -41 31q-4 4 -7 4t-7 -4q-15 -22 -27 -39q-11 -15 -20.5 -27t-12.5 -12t-17.5 9.5t-30.5 21.5t-29 23t-13 14q0 4 9.5 19.5 t21.5 33t22.5 31.5t12.5 14q5 0 18 -10t27 -21q17 -13 37 -30q6 -6 9 -6t7 8q15 21 28 38q11 14 21 26.5t12 12.5q3 0 18 -10t31 -22.5t29 -23.5t13 -13z" />
<glyph unicode="&#x68d;" horiz-adv-x="762" arabic-form="final" d="M829 63q0 -12 -1.5 -23t-7 -20t-16.5 -14.5t-30 -5.5h-37q-51 0 -83 12.5t-53.5 38.5t-38 65.5t-36.5 94.5q-26 -45 -49 -78t-55 -55q-46 -32 -99.5 -46t-109.5 -14q-26 0 -53 4.5t-49 15.5t-36 29t-14 44q0 7 6 28t14 43.5t16 40t12 17.5q3 0 5.5 -4.5t4 -10.5l3 -12 t3.5 -10q3 -9 10.5 -18.5t22.5 -18t39 -14t59 -5.5q46 0 91 4t80 20.5t57 48.5t22 89q-5 47 -14 92.5t-19 87.5t-17 79t-7 67q0 9 7.5 28.5t17 40t18 35.5t10.5 15q5 0 6.5 -5t3.5 -22q7 -49 16 -104t19 -110.5t20.5 -108t21.5 -97t21.5 -78t20.5 -49.5q17 -28 46 -41.5 t60 -13.5h37q19 0 30 -5.5t16.5 -14t7 -19.5t1.5 -23zM575 -169q0 -4 -9 -20t-20.5 -33.5t-22 -31.5t-14.5 -14q-2 0 -15.5 9.5t-29.5 21.5q-18 13 -41 31q-4 4 -7 4t-7 -4q-15 -22 -27 -39q-11 -15 -20.5 -27t-12.5 -12t-17.5 9.5t-30.5 21.5t-29 23t-13 14q0 4 9.5 19.5 t21.5 33t22.5 31.5t12.5 14q5 0 18 -10t27 -21q17 -13 37 -30q6 -6 9 -6t7 8q15 21 28 38q11 14 21 26.5t12 12.5q3 0 18 -10t31 -22.5t29 -23.5t13 -13z" />
<glyph unicode="&#x68e;" horiz-adv-x="762" arabic-form="final" d="M829 63q0 -12 -1.5 -23t-7 -20t-16.5 -14.5t-30 -5.5h-37q-51 0 -83 12.5t-53.5 38.5t-38 65.5t-36.5 94.5q-26 -45 -49 -78t-55 -55q-46 -32 -99.5 -46t-109.5 -14q-26 0 -53 4.5t-49 15.5t-36 29t-14 44q0 7 6 28t14 43.5t16 40t12 17.5q3 0 5.5 -4.5t4 -10.5l3 -12 t3.5 -10q3 -9 10.5 -18.5t22.5 -18t39 -14t59 -5.5q46 0 91 4t80 20.5t57 48.5t22 89q-5 47 -14 92.5t-19 87.5t-17 79t-7 67q0 9 7.5 28.5t17 40t18 35.5t10.5 15q5 0 6.5 -5t3.5 -22q7 -49 16 -104t19 -110.5t20.5 -108t21.5 -97t21.5 -78t20.5 -49.5q17 -28 46 -41.5 t60 -13.5h37q19 0 30 -5.5t16.5 -14t7 -19.5t1.5 -23zM524 1155q0 -4 -9 -20t-20 -33.5t-22 -31.5t-15 -14q-2 0 -16.5 9.5t-31 21.5t-29.5 23.5t-13 15.5t9.5 19.5t21.5 32.5t22.5 30.5t12.5 13.5q4 0 19 -9.5t30.5 -21.5t28 -23t12.5 -13zM626 981q0 -4 -9 -20t-20 -33.5 t-21.5 -31.5t-14.5 -14q-2 0 -15.5 9.5t-28.5 21.5q-18 13 -40 31q-4 4 -8 4q-3 0 -7 -6q-16 -22 -28 -39q-11 -15 -20.5 -27t-12.5 -12t-17.5 9.5t-30.5 22t-29 24t-13 14.5t9.5 18.5t21 32.5t22 31t12.5 14q5 0 18.5 -9.5t27.5 -20.5q17 -13 36 -30q7 -5 10 -5t9 7 q14 21 26 38q11 14 20.5 26t12.5 12t17.5 -9.5t30.5 -21.5t29 -23t13 -13z" />
<glyph unicode="&#x68f;" horiz-adv-x="762" d="M829 63q0 -12 -1.5 -23t-7 -20t-16.5 -14.5t-30 -5.5h-37q-51 0 -83 12.5t-53.5 38.5t-38 65.5t-36.5 94.5q-26 -45 -49 -78t-55 -55q-46 -32 -99.5 -46t-109.5 -14q-26 0 -53 4.5t-49 15.5t-36 29t-14 44q0 7 6 28t14 43.5t16 40t12 17.5q3 0 5.5 -4.5t4 -10.5l3 -12 t3.5 -10q3 -9 10.5 -18.5t22.5 -18t39 -14t59 -5.5q46 0 91 4t80 20.5t57 48.5t22 89q-5 47 -14 92.5t-19 87.5t-17 79t-7 67q0 9 7.5 28.5t17 40t18 35.5t10.5 15q5 0 6.5 -5t3.5 -22q7 -49 16 -104t19 -110.5t20.5 -108t21.5 -97t21.5 -78t20.5 -49.5q17 -28 46 -41.5 t60 -13.5h37q19 0 30 -5.5t16.5 -14t7 -19.5t1.5 -23zM627 1158q0 -4 -9 -19.5t-20.5 -33t-22 -31.5t-14.5 -14q-2 0 -15.5 9.5t-29.5 21.5q-18 13 -41 31q-4 4 -7 4t-7 -6q-16 -22 -28 -39q-11 -15 -21 -27t-13 -12q-2 0 -16.5 9.5t-31 22t-29.5 23.5t-13 14t9.5 19 t21.5 33t22.5 31t12.5 14q5 0 18 -9.5t28 -20.5l38 -30q7 -5 8 -5q2 0 8 7l28 38q11 14 20.5 26t13.5 12t18.5 -9.5t30.5 -21.5t28.5 -23t12.5 -14zM557 960q0 -3 -9 -18.5t-20 -32.5t-22.5 -31t-15.5 -14q-3 0 -17.5 9t-31 20.5t-29.5 22.5t-13 15t9.5 19.5t21.5 33 t23 31.5t14 14q4 0 18.5 -9.5t30.5 -22t28.5 -23.5t12.5 -14z" />
<glyph unicode="&#x690;" horiz-adv-x="762" d="M829 63q0 -12 -1.5 -23t-7 -20t-16.5 -14.5t-30 -5.5h-37q-51 0 -83 12.5t-53.5 38.5t-38 65.5t-36.5 94.5q-26 -45 -49 -78t-55 -55q-46 -32 -99.5 -46t-109.5 -14q-26 0 -53 4.5t-49 15.5t-36 29t-14 44q0 7 6 28t14 43.5t16 40t12 17.5q3 0 5.5 -4.5t4 -10.5l3 -12 t3.5 -10q3 -9 10.5 -18.5t22.5 -18t39 -14t59 -5.5q46 0 91 4t80 20.5t57 48.5t22 89q-5 47 -14 92.5t-19 87.5t-17 79t-7 67q0 9 7.5 28.5t17 40t18 35.5t10.5 15q5 0 6.5 -5t3.5 -22q7 -49 16 -104t19 -110.5t20.5 -108t21.5 -97t21.5 -78t20.5 -49.5q17 -28 46 -41.5 t60 -13.5h37q19 0 30 -5.5t16.5 -14t7 -19.5t1.5 -23zM619 1151q0 -4 -9 -19.5t-20 -33t-21.5 -31.5t-14.5 -14q-2 0 -15.5 9.5t-29.5 20.5q-18 13 -41 31q-5 4 -8 4q-2 0 -6 -4q-16 -22 -28 -39q-11 -15 -21 -27t-13 -12q-2 0 -16.5 9.5t-31 21.5t-29.5 23t-13 14 q0 4 9.5 19.5t21.5 33t23 31.5t14 14q5 0 18 -10t27 -21q17 -13 37 -30q6 -6 8 -6q3 0 8 8q15 21 27 38q11 14 21 26.5t13 12.5t17.5 -10t30.5 -22.5t29 -23.5t13 -13zM634 979q0 -4 -9 -20t-21 -33.5t-22.5 -31.5t-13.5 -14t-17 9.5t-29 21.5q-18 13 -40 31q-5 4 -8 4 q-2 0 -6 -4q-16 -22 -28 -39q-11 -15 -21 -27t-13 -12t-17.5 9.5t-30.5 21.5t-29 23t-13 14q0 4 9.5 19.5t21.5 33t22.5 31.5t12.5 14q5 0 18 -10t27 -21q17 -13 37 -30q7 -6 10 -6t8 8l28 38q11 14 20.5 26.5t11.5 12.5q4 0 18.5 -10t31 -22.5t29.5 -23.5t13 -13z" />
<glyph unicode="&#x691;" horiz-adv-x="487" arabic-form="final" d="M555 63q0 -12 -1.5 -23t-7 -20t-16.5 -14.5t-30 -5.5h-37q-8 0 -15 1t-16 1q-5 -42 -12.5 -83.5t-22 -82.5t-37 -81.5t-56.5 -82.5q-38 -46 -87.5 -75t-118.5 -29q-28 0 -62.5 5.5t-64.5 13.5t-50.5 15.5t-20.5 12.5q0 6 5.5 10t10.5 4q1 0 7 -1t14 -2t16.5 -2t15.5 -1 q29 0 65 8t76 25.5t81.5 45.5t81.5 68q33 33 54 65t33.5 58.5t17.5 45t5 24.5t-11.5 23.5t-25.5 36.5t-25.5 35.5t-11.5 21.5q0 2 6.5 17.5t14.5 33.5t16 35t10 22h6q20 -23 44.5 -43t56.5 -20h37q19 0 30 -5.5t16.5 -14t7 -19.5t1.5 -23zM559 468q0 -35 -17 -61.5 t-44.5 -46t-63.5 -33t-73.5 -21.5t-74.5 -11.5t-66 -3.5q-12 0 -26 8t-26 19t-20.5 23t-8.5 20q0 9 8 9q11 0 30 -2.5t39 -2.5q21 0 32.5 8.5t17.5 25.5q5 14 7 28.5t2 22.5q0 34 -5 66.5t-11 65t-11 65t-5 67.5q0 12 3 24t7.5 22t10 16t10.5 6q2 0 8.5 -10t14 -22t13 -22 t5.5 -11q-8 -7 -14.5 -17t-6.5 -30t3 -38t6.5 -38t6.5 -43.5t3 -54.5q0 -27 -3 -60q97 115 175 115q35 0 54.5 -24.5t19.5 -58.5zM515 438q0 5 -6 9.5t-15 8t-20 5.5t-20 2q-19 0 -36 -4.5t-34.5 -15t-36.5 -28.5t-41 -44q59 4 99 14.5t64.5 21.5t35 20t10.5 11z" />
<glyph unicode="&#x692;" horiz-adv-x="487" d="M555 63q0 -12 -1.5 -23t-7 -20t-16.5 -14.5t-30 -5.5h-37q-8 0 -15 1t-16 1q-5 -42 -12.5 -83.5t-22 -82.5t-37 -81.5t-56.5 -82.5q-38 -46 -87.5 -75t-118.5 -29q-28 0 -62.5 5.5t-64.5 13.5t-50.5 15.5t-20.5 12.5q0 6 5.5 10t10.5 4q1 0 7 -1t14 -2t16.5 -2t15.5 -1 q29 0 65 8t76 25.5t81.5 45.5t81.5 68q33 33 54 65t33.5 58.5t17.5 45t5 24.5t-11.5 23.5t-25.5 36.5t-25.5 35.5t-11.5 21.5q0 2 6.5 17.5t14.5 33.5t16 35t10 22h6q20 -23 44.5 -43t56.5 -20h37q19 0 30 -5.5t16.5 -14t7 -19.5t1.5 -23zM523 543q0 -4 -12.5 -26.5 t-30.5 -52t-38 -60.5t-36 -50q-8 -9 -15.5 -15.5t-13.5 -6.5h-56q-6 0 -13.5 6.5t-15.5 15.5q-16 19 -36 50t-38 60.5t-30.5 52t-12.5 26.5q0 8 6 8h25q3 0 14 -10t25.5 -25.5t31 -33.5t31.5 -33.5t26 -25.5t15 -10q3 0 14.5 10t26.5 25.5t31.5 33.5t31 33.5t25.5 25.5 t14 10h25q6 0 6 -8z" />
<glyph unicode="&#x693;" horiz-adv-x="487" d="M451 -406q0 -32 -11 -60t-30.5 -49t-46.5 -33.5t-59 -12.5q-46 0 -70.5 33t-24.5 104v9t1 9q-24 -12 -52 -19t-60 -7q-28 0 -62.5 5.5t-64.5 13.5t-50.5 15.5t-20.5 12.5q0 6 5.5 10t10.5 4q1 0 7 -1t14 -2t16.5 -2t15.5 -1q29 0 65 8t76 25.5t81.5 45.5t81.5 68 q33 33 54 65t33.5 58.5t17.5 45t5 24.5t-11.5 23.5t-25.5 36.5t-25.5 35.5t-11.5 21.5q0 2 6.5 17.5t14.5 33.5t16 35t10 22h6q20 -23 44.5 -43t56.5 -20h37q19 0 30 -5.5t16.5 -14t7 -19.5t1.5 -23t-1.5 -23t-7 -20t-16.5 -14.5t-30 -5.5h-37q-8 0 -15 1t-16 1 q-4 -35 -10 -69.5t-16 -69t-25.5 -69t-37.5 -68.5h4q21 0 40 -13t33.5 -33t22.5 -43t8 -43zM396 -435q0 12 -9.5 26t-23.5 26t-31 20t-32 8q-25 0 -40 -19t-15 -41q0 -24 25.5 -38t56.5 -14q9 0 21 2.5t22.5 7t18 10.5t7.5 12z" />
<glyph unicode="&#x694;" horiz-adv-x="487" d="M555 63q0 -12 -1.5 -23t-7 -20t-16.5 -14.5t-30 -5.5h-37q-8 0 -15 1t-16 1q-5 -42 -12.5 -83.5t-22 -82.5t-37 -81.5t-56.5 -82.5q-38 -46 -87.5 -75t-118.5 -29q-28 0 -62.5 5.5t-64.5 13.5t-50.5 15.5t-20.5 12.5q0 6 5.5 10t10.5 4q1 0 7 -1t14 -2t16.5 -2t15.5 -1 q29 0 65 8t76 25.5t81.5 45.5t81.5 68q33 33 54 65t33.5 58.5t17.5 45t5 24.5t-11.5 23.5t-25.5 36.5t-25.5 35.5t-11.5 21.5q0 2 6.5 17.5t14.5 33.5t16 35t10 22h6q20 -23 44.5 -43t56.5 -20h37q19 0 30 -5.5t16.5 -14t7 -19.5t1.5 -23zM428 -549q0 -4 -9 -19.5t-20.5 -33 t-23 -31.5t-15.5 -14q-2 0 -16.5 9t-31 20.5t-29.5 22.5t-13 15t9.5 19.5t21 33t22.5 31.5t14 14q4 0 19 -9.5t31 -21.5t28.5 -23t12.5 -13z" />
<glyph unicode="&#x695;" horiz-adv-x="487" d="M555 63q0 -12 -1.5 -23t-7 -20t-16.5 -14.5t-30 -5.5h-37q-8 0 -15 1t-16 1q-5 -42 -12.5 -83.5t-22 -82.5t-37 -81.5t-56.5 -82.5q-38 -46 -87.5 -75t-118.5 -29q-28 0 -62.5 5.5t-64.5 13.5t-50.5 15.5t-20.5 12.5q0 6 5.5 10t10.5 4q1 0 7 -1t14 -2t16.5 -2t15.5 -1 q29 0 65 8t76 25.5t81.5 45.5t81.5 68q33 33 54 65t33.5 58.5t17.5 45t5 24.5t-11.5 23.5t-25.5 36.5t-25.5 35.5t-11.5 21.5q0 2 6.5 17.5t14.5 33.5t16 35t10 22h6q20 -23 44.5 -43t56.5 -20h37q19 0 30 -5.5t16.5 -14t7 -19.5t1.5 -23zM523 -490q0 -4 -12.5 -26.5 t-30.5 -52t-38 -60.5t-36 -50q-8 -9 -15.5 -15.5t-13.5 -6.5h-56q-6 0 -13.5 6.5t-15.5 15.5q-16 19 -36 50t-38 60.5t-30.5 52t-12.5 26.5q0 8 6 8h25q3 0 14 -10t25.5 -25.5t31 -33.5t31.5 -33.5t26 -25.5t15 -10q3 0 14.5 10t26.5 25.5t31.5 33.5t31 33.5t25.5 25.5 t14 10h25q6 0 6 -8z" />
<glyph unicode="&#x696;" horiz-adv-x="487" d="M555 63q0 -12 -1.5 -23t-7 -20t-16.5 -14.5t-30 -5.5h-37q-8 0 -15 1t-16 1q-5 -42 -12.5 -83.5t-22 -82.5t-37 -81.5t-56.5 -82.5q-38 -46 -87.5 -75t-118.5 -29q-28 0 -62.5 5.5t-64.5 13.5t-50.5 15.5t-20.5 12.5q0 6 5.5 10t10.5 4q1 0 7 -1t14 -2t16.5 -2t15.5 -1 q29 0 65 8t76 25.5t81.5 45.5t81.5 68q33 33 54 65t33.5 58.5t17.5 45t5 24.5t-11.5 23.5t-25.5 36.5t-25.5 35.5t-11.5 21.5q0 2 6.5 17.5t14.5 33.5t16 35t10 22h6q20 -23 44.5 -43t56.5 -20h37q19 0 30 -5.5t16.5 -14t7 -19.5t1.5 -23zM428 -549q0 -4 -9 -19.5t-20.5 -33 t-23 -31.5t-15.5 -14q-2 0 -16.5 9t-31 20.5t-29.5 22.5t-13 15t9.5 19.5t21 33t22.5 31.5t14 14q4 0 19 -9.5t31 -21.5t28.5 -23t12.5 -13zM226 14q0 -4 -9 -19.5t-20.5 -33t-23 -31.5t-15.5 -14q-2 0 -16.5 9t-31 20.5t-29.5 22.5t-13 15t9.5 19.5t21 33t22.5 31.5t14 14 q4 0 19 -9.5t31 -21.5t28.5 -23t12.5 -13z" />
<glyph unicode="&#x697;" horiz-adv-x="487" d="M555 63q0 -12 -1.5 -23t-7 -20t-16.5 -14.5t-30 -5.5h-37q-8 0 -15 1t-16 1q-5 -42 -12.5 -83.5t-22 -82.5t-37 -81.5t-56.5 -82.5q-38 -46 -87.5 -75t-118.5 -29q-28 0 -62.5 5.5t-64.5 13.5t-50.5 15.5t-20.5 12.5q0 6 5.5 10t10.5 4q1 0 7 -1t14 -2t16.5 -2t15.5 -1 q29 0 65 8t76 25.5t81.5 45.5t81.5 68q33 33 54 65t33.5 58.5t17.5 45t5 24.5t-11.5 23.5t-25.5 36.5t-25.5 35.5t-11.5 21.5q0 2 6.5 17.5t14.5 33.5t16 35t10 22h6q20 -23 44.5 -43t56.5 -20h37q19 0 30 -5.5t16.5 -14t7 -19.5t1.5 -23zM507 407q0 -4 -9 -20t-20.5 -33.5 t-22 -31.5t-14.5 -14q-2 0 -15.5 9.5t-29.5 21.5q-18 13 -41 31q-4 4 -7 4t-7 -4q-15 -22 -27 -39q-11 -15 -20.5 -27t-12.5 -12t-17.5 9.5t-30.5 21.5t-29 23t-13 14q0 4 9.5 19.5t21.5 33t22.5 31.5t12.5 14q5 0 18 -10t27 -21q17 -13 37 -30q6 -6 9 -6t7 8q15 21 28 38 q11 14 21 26.5t12 12.5q3 0 18 -10t31 -22.5t29 -23.5t13 -13z" />
<glyph unicode="&#x698;" horiz-adv-x="487" arabic-form="final" d="M555 63q0 -12 -1.5 -23t-7 -20t-16.5 -14.5t-30 -5.5h-37q-8 0 -15 1t-16 1q-5 -42 -12.5 -83.5t-22 -82.5t-37 -81.5t-56.5 -82.5q-38 -46 -87.5 -75t-118.5 -29q-28 0 -62.5 5.5t-64.5 13.5t-50.5 15.5t-20.5 12.5q0 6 5.5 10t10.5 4q1 0 7 -1t14 -2t16.5 -2t15.5 -1 q29 0 65 8t76 25.5t81.5 45.5t81.5 68q33 33 54 65t33.5 58.5t17.5 45t5 24.5t-11.5 23.5t-25.5 36.5t-25.5 35.5t-11.5 21.5q0 2 6.5 17.5t14.5 33.5t16 35t10 22h6q20 -23 44.5 -43t56.5 -20h37q19 0 30 -5.5t16.5 -14t7 -19.5t1.5 -23zM405 583q0 -4 -9 -20t-20 -33.5 t-22 -31.5t-15 -14q-2 0 -16.5 9.5t-31 21.5t-29.5 23.5t-13 15.5t9.5 19.5t21.5 32.5t22.5 30.5t12.5 13.5q4 0 19 -9.5t30.5 -21.5t28 -23t12.5 -13zM507 409q0 -4 -9 -20t-20 -33.5t-21.5 -31.5t-14.5 -14q-2 0 -15.5 9.5t-28.5 21.5q-18 13 -40 31q-4 4 -8 4q-3 0 -7 -6 q-16 -22 -28 -39q-11 -15 -20.5 -27t-12.5 -12t-17.5 9.5t-30.5 22t-29 24t-13 14.5t9.5 18.5t21 32.5t22 31t12.5 14q5 0 18.5 -9.5t27.5 -20.5q17 -13 36 -30q7 -5 10 -5t9 7q14 21 26 38q11 14 20.5 26t12.5 12t17.5 -9.5t30.5 -21.5t29 -23t13 -13z" />
<glyph unicode="&#x699;" horiz-adv-x="487" d="M555 63q0 -12 -1.5 -23t-7 -20t-16.5 -14.5t-30 -5.5h-37q-8 0 -15 1t-16 1q-5 -42 -12.5 -83.5t-22 -82.5t-37 -81.5t-56.5 -82.5q-38 -46 -87.5 -75t-118.5 -29q-28 0 -62.5 5.5t-64.5 13.5t-50.5 15.5t-20.5 12.5q0 6 5.5 10t10.5 4q1 0 7 -1t14 -2t16.5 -2t15.5 -1 q29 0 65 8t76 25.5t81.5 45.5t81.5 68q33 33 54 65t33.5 58.5t17.5 45t5 24.5t-11.5 23.5t-25.5 36.5t-25.5 35.5t-11.5 21.5q0 2 6.5 17.5t14.5 33.5t16 35t10 22h6q20 -23 44.5 -43t56.5 -20h37q19 0 30 -5.5t16.5 -14t7 -19.5t1.5 -23zM500 579q0 -4 -9 -19.5t-20 -33 t-21.5 -31.5t-14.5 -14q-2 0 -15.5 9.5t-29.5 20.5q-18 13 -41 31q-5 4 -8 4q-2 0 -6 -4q-16 -22 -28 -39q-11 -15 -21 -27t-13 -12q-2 0 -16.5 9.5t-31 21.5t-29.5 23t-13 14q0 4 9.5 19.5t21.5 33t23 31.5t14 14q5 0 18 -10t27 -21q17 -13 37 -30q6 -6 8 -6q3 0 8 8 q15 21 27 38q11 14 21 26.5t13 12.5t17.5 -10t30.5 -22.5t29 -23.5t13 -13zM515 407q0 -4 -9 -20t-21 -33.5t-22.5 -31.5t-13.5 -14t-17 9.5t-29 21.5q-18 13 -40 31q-5 4 -8 4q-2 0 -6 -4q-16 -22 -28 -39q-11 -15 -21 -27t-13 -12t-17.5 9.5t-30.5 21.5t-29 23t-13 14 q0 4 9.5 19.5t21.5 33t22.5 31.5t12.5 14q5 0 18 -10t27 -21q17 -13 37 -30q7 -6 10 -6t8 8l28 38q11 14 20.5 26.5t11.5 12.5q4 0 18.5 -10t31 -22.5t29.5 -23.5t13 -13z" />
<glyph unicode="&#x69a;" horiz-adv-x="918" d="M815 295q0 -30 -8 -68.5t-24 -73t-40.5 -58t-58.5 -23.5q-28 0 -49.5 9.5t-38.5 23t-29 27l-20 22.5q-15 -26 -34.5 -52.5t-43 -49t-51.5 -36.5t-60 -14q-48 0 -85.5 23.5t-63.5 78.5q-38 -57 -85 -80.5t-99 -23.5h-37q-19 0 -30 5.5t-16.5 14.5t-7 20t-1.5 23t1.5 23 t7 19.5t16.5 14t30 5.5h37q44 0 76 10t55 24.5t38 32t25.5 32t17.5 24.5t13 10q7 0 9 -9.5t4.5 -24t7 -31t16 -31t32 -24t54.5 -9.5q37 0 70.5 14.5t59 39t42 58t20.5 72.5q1 8 5.5 14.5t9.5 6.5q2 0 6 -6t6 -19q4 -32 21.5 -52.5t39.5 -32.5t44 -16.5t36 -4.5q2 0 7.5 2.5 t11 6t10 7.5t4.5 8q0 7 -7 15t-15.5 15t-15.5 12t-7 7q0 3 5 22t11.5 40.5t13.5 39t11 17.5q8 0 17.5 -11.5t17.5 -27.5t13 -33t5 -28zM579 577q0 -4 -9 -19.5t-20.5 -33t-23 -31.5t-15.5 -14q-2 0 -16.5 9t-31 20.5t-29.5 22.5t-13 15t9.5 19.5t21 33t22.5 31.5t14 14 q4 0 19 -9.5t31 -21.5t28.5 -23t12.5 -13zM583 -162q0 -4 -9 -19.5t-20.5 -33t-23 -31.5t-15.5 -14q-2 0 -16.5 9t-31 20.5t-29.5 22.5t-13 15t9.5 19.5t21 33t22.5 31.5t14 14q4 0 19 -9.5t31 -21.5t28.5 -23t12.5 -13z" />
<glyph unicode="&#x69a;" horiz-adv-x="1018" d="M1085 63q0 -12 -1.5 -23t-7 -20t-16.5 -14.5t-30 -5.5h-37q-53 0 -94 44.5t-70 113.5q-14 -29 -28.5 -53t-33 -42t-41 -28t-50.5 -10q-27 0 -45.5 7t-31.5 19t-21.5 28t-14.5 34q-38 -53 -84.5 -82t-120.5 -29q-48 0 -85.5 23.5t-63.5 78.5q-38 -57 -85 -80.5t-99 -23.5 h-37q-19 0 -30 5.5t-16.5 14.5t-7 20t-1.5 23t1.5 23t7 19.5t16.5 14t30 5.5h37q44 0 76 10t55 24.5t38 32t25.5 32t17.5 24.5t13 10q7 0 9 -9.5t4.5 -24t7 -31t16 -31t32 -24t54.5 -9.5q45 0 79 11t58.5 28t41.5 36t28.5 36t18 28t11.5 11q3 0 9 -6t6 -21q0 -14 3 -29 t12 -27t24.5 -20t40.5 -8q36 0 58.5 18t36.5 39.5t21 39.5t13 18t9 -5.5t7 -17.5q5 -17 16 -40t28.5 -44t42 -36t56.5 -15h37q19 0 30 -5.5t16.5 -14t7 -19.5t1.5 -23zM588 481q0 -4 -9 -19.5t-20.5 -33t-23 -31.5t-15.5 -14q-2 0 -16.5 9t-31 20.5t-29.5 22.5t-13 15 t9.5 19.5t21 33t22.5 31.5t14 14q4 0 19 -9.5t31 -21.5t28.5 -23t12.5 -13zM588 -167q0 -4 -9 -19.5t-20.5 -33t-23 -31.5t-15.5 -14q-2 0 -16.5 9t-31 20.5t-29.5 22.5t-13 15t9.5 19.5t21 33t22.5 31.5t14 14q4 0 19 -9.5t31 -21.5t28.5 -23t12.5 -13z" />
<glyph unicode="&#x69a;" horiz-adv-x="1407" d="M1474 63q0 -12 -1.5 -23t-7 -20t-16.5 -14.5t-30 -5.5h-37q-51 0 -88.5 41t-72.5 119q-14 -29 -28.5 -53t-32.5 -42t-40.5 -28t-50.5 -10q-34 0 -54 10t-32 24t-18 29t-11 25q-19 -26 -34.5 -45t-34 -31t-43 -17.5t-62.5 -5.5q0 -28 -1 -49t-3 -40t-5.5 -39t-8.5 -46 q-21 -105 -73 -170.5t-119.5 -101.5t-143 -49t-145.5 -13q-59 0 -105.5 20t-79 54t-50 78.5t-17.5 93.5q0 48 16 97t36 88.5t38.5 64.5t23.5 25t9 -3.5t4 -7.5q0 -6 -11 -24t-24 -45.5t-24 -63t-11 -75.5q0 -50 25 -83.5t61.5 -53.5t78 -29t73.5 -9q43 0 88 4.5t87 13.5 t78 21.5t60 28.5q53 35 71.5 84t18.5 123q0 47 -8.5 80t-18 55.5t-18 35.5t-8.5 21q0 6 7 23t16 36t17.5 33.5t12.5 14.5q12 -17 21.5 -36.5t15.5 -41.5q45 0 79 11t58.5 28t41.5 36t28.5 36t18 28t11.5 11q4 0 9.5 -6t5.5 -21q0 -14 3 -29t12 -27t24.5 -20t40.5 -8 q36 0 58.5 18t36.5 39.5t21 39.5t13 18t8.5 -5t7.5 -18q5 -14 16 -37t28 -45.5t41 -38.5t56 -16h37q19 0 30 -5.5t16.5 -14t7 -19.5t1.5 -23zM1048 481q0 -4 -9 -19.5t-20.5 -33t-23 -31.5t-15.5 -14q-2 0 -16.5 9t-31 20.5t-29.5 22.5t-13 15t9.5 19.5t21 33t22.5 31.5 t14 14q4 0 19 -9.5t31 -21.5t28.5 -23t12.5 -13zM1115 -182q0 -4 -9 -19.5t-20.5 -33t-23 -31.5t-15.5 -14q-2 0 -16.5 9t-31 20.5t-29.5 22.5t-13 15t9.5 19.5t21 33t22.5 31.5t14 14q4 0 19 -9.5t31 -21.5t28.5 -23t12.5 -13z" />
<glyph unicode="&#x69b;" horiz-adv-x="918" d="M815 295q0 -30 -8 -68.5t-24 -73t-40.5 -58t-58.5 -23.5q-28 0 -49.5 9.5t-38.5 23t-29 27l-20 22.5q-15 -26 -34.5 -52.5t-43 -49t-51.5 -36.5t-60 -14q-48 0 -85.5 23.5t-63.5 78.5q-38 -57 -85 -80.5t-99 -23.5h-37q-19 0 -30 5.5t-16.5 14.5t-7 20t-1.5 23t1.5 23 t7 19.5t16.5 14t30 5.5h37q44 0 76 10t55 24.5t38 32t25.5 32t17.5 24.5t13 10q7 0 9 -9.5t4.5 -24t7 -31t16 -31t32 -24t54.5 -9.5q37 0 70.5 14.5t59 39t42 58t20.5 72.5q1 8 5.5 14.5t9.5 6.5q2 0 6 -6t6 -19q4 -32 21.5 -52.5t39.5 -32.5t44 -16.5t36 -4.5q2 0 7.5 2.5 t11 6t10 7.5t4.5 8q0 7 -7 15t-15.5 15t-15.5 12t-7 7q0 3 5 22t11.5 40.5t13.5 39t11 17.5q8 0 17.5 -11.5t17.5 -27.5t13 -33t5 -28zM663 -163q0 -4 -9 -19.5t-20.5 -33t-22 -31.5t-14.5 -14q-2 0 -15.5 9.5t-29.5 21.5q-18 13 -41 31q-4 4 -7 4t-7 -6q-16 -22 -28 -39 q-11 -15 -21 -27t-13 -12q-2 0 -16.5 9.5t-31 22t-29.5 23.5t-13 14t9.5 19t21.5 33t22.5 31t12.5 14q5 0 18 -9.5t28 -20.5l38 -30q7 -5 8 -5q2 0 8 7l28 38q11 14 20.5 26t13.5 12t18.5 -9.5t30.5 -21.5t28.5 -23t12.5 -14zM593 -361q0 -3 -9 -18.5t-20 -32.5t-22.5 -31 t-15.5 -14q-3 0 -17.5 9t-31 20.5t-29.5 22.5t-13 15t9.5 19.5t21.5 33t23 31.5t14 14q4 0 18.5 -9.5t30.5 -22t28.5 -23.5t12.5 -14z" />
<glyph unicode="&#x69b;" horiz-adv-x="1018" d="M1085 63q0 -12 -1.5 -23t-7 -20t-16.5 -14.5t-30 -5.5h-37q-53 0 -94 44.5t-70 113.5q-14 -29 -28.5 -53t-33 -42t-41 -28t-50.5 -10q-27 0 -45.5 7t-31.5 19t-21.5 28t-14.5 34q-38 -53 -84.5 -82t-120.5 -29q-48 0 -85.5 23.5t-63.5 78.5q-38 -57 -85 -80.5t-99 -23.5 h-37q-19 0 -30 5.5t-16.5 14.5t-7 20t-1.5 23t1.5 23t7 19.5t16.5 14t30 5.5h37q44 0 76 10t55 24.5t38 32t25.5 32t17.5 24.5t13 10q7 0 9 -9.5t4.5 -24t7 -31t16 -31t32 -24t54.5 -9.5q45 0 79 11t58.5 28t41.5 36t28.5 36t18 28t11.5 11q3 0 9 -6t6 -21q0 -14 3 -29 t12 -27t24.5 -20t40.5 -8q36 0 58.5 18t36.5 39.5t21 39.5t13 18t9 -5.5t7 -17.5q5 -17 16 -40t28.5 -44t42 -36t56.5 -15h37q19 0 30 -5.5t16.5 -14t7 -19.5t1.5 -23zM668 -168q0 -4 -9 -19.5t-20.5 -33t-22 -31.5t-14.5 -14q-2 0 -15.5 9.5t-29.5 21.5q-18 13 -41 31 q-4 4 -7 4t-7 -6q-16 -22 -28 -39q-11 -15 -21 -27t-13 -12q-2 0 -16.5 9.5t-31 22t-29.5 23.5t-13 14t9.5 19t21.5 33t22.5 31t12.5 14q5 0 18 -9.5t28 -20.5l38 -30q7 -5 8 -5q2 0 8 7l28 38q11 14 20.5 26t13.5 12t18.5 -9.5t30.5 -21.5t28.5 -23t12.5 -14zM598 -366 q0 -3 -9 -18.5t-20 -32.5t-22.5 -31t-15.5 -14q-3 0 -17.5 9t-31 20.5t-29.5 22.5t-13 15t9.5 19.5t21.5 33t23 31.5t14 14q4 0 18.5 -9.5t30.5 -22t28.5 -23.5t12.5 -14z" />
<glyph unicode="&#x69b;" horiz-adv-x="1407" d="M1474 63q0 -12 -1.5 -23t-7 -20t-16.5 -14.5t-30 -5.5h-37q-51 0 -88.5 41t-72.5 119q-14 -29 -28.5 -53t-32.5 -42t-40.5 -28t-50.5 -10q-34 0 -54 10t-32 24t-18 29t-11 25q-19 -26 -34.5 -45t-34 -31t-43 -17.5t-62.5 -5.5q0 -28 -1 -49t-3 -40t-5.5 -39t-8.5 -46 q-21 -105 -73 -170.5t-119.5 -101.5t-143 -49t-145.5 -13q-59 0 -105.5 20t-79 54t-50 78.5t-17.5 93.5q0 48 16 97t36 88.5t38.5 64.5t23.5 25t9 -3.5t4 -7.5q0 -6 -11 -24t-24 -45.5t-24 -63t-11 -75.5q0 -50 25 -83.5t61.5 -53.5t78 -29t73.5 -9q43 0 88 4.5t87 13.5 t78 21.5t60 28.5q53 35 71.5 84t18.5 123q0 47 -8.5 80t-18 55.5t-18 35.5t-8.5 21q0 6 7 23t16 36t17.5 33.5t12.5 14.5q12 -17 21.5 -36.5t15.5 -41.5q45 0 79 11t58.5 28t41.5 36t28.5 36t18 28t11.5 11q4 0 9.5 -6t5.5 -21q0 -14 3 -29t12 -27t24.5 -20t40.5 -8 q36 0 58.5 18t36.5 39.5t21 39.5t13 18t8.5 -5t7.5 -18q5 -14 16 -37t28 -45.5t41 -38.5t56 -16h37q19 0 30 -5.5t16.5 -14t7 -19.5t1.5 -23zM1195 -183q0 -4 -9 -19.5t-20.5 -33t-22 -31.5t-14.5 -14q-2 0 -15.5 9.5t-29.5 21.5q-18 13 -41 31q-4 4 -7 4t-7 -6 q-16 -22 -28 -39q-11 -15 -21 -27t-13 -12q-2 0 -16.5 9.5t-31 22t-29.5 23.5t-13 14t9.5 19t21.5 33t22.5 31t12.5 14q5 0 18 -9.5t28 -20.5l38 -30q7 -5 8 -5q2 0 8 7l28 38q11 14 20.5 26t13.5 12t18.5 -9.5t30.5 -21.5t28.5 -23t12.5 -14zM1125 -381q0 -3 -9 -18.5 t-20 -32.5t-22.5 -31t-15.5 -14q-3 0 -17.5 9t-31 20.5t-29.5 22.5t-13 15t9.5 19.5t21.5 33t23 31.5t14 14q4 0 18.5 -9.5t30.5 -22t28.5 -23.5t12.5 -14z" />
<glyph unicode="&#x69c;" horiz-adv-x="918" d="M815 295q0 -30 -8 -68.5t-24 -73t-40.5 -58t-58.5 -23.5q-28 0 -49.5 9.5t-38.5 23t-29 27l-20 22.5q-15 -26 -34.5 -52.5t-43 -49t-51.5 -36.5t-60 -14q-48 0 -85.5 23.5t-63.5 78.5q-38 -57 -85 -80.5t-99 -23.5h-37q-19 0 -30 5.5t-16.5 14.5t-7 20t-1.5 23t1.5 23 t7 19.5t16.5 14t30 5.5h37q44 0 76 10t55 24.5t38 32t25.5 32t17.5 24.5t13 10q7 0 9 -9.5t4.5 -24t7 -31t16 -31t32 -24t54.5 -9.5q37 0 70.5 14.5t59 39t42 58t20.5 72.5q1 8 5.5 14.5t9.5 6.5q2 0 6 -6t6 -19q4 -32 21.5 -52.5t39.5 -32.5t44 -16.5t36 -4.5q2 0 7.5 2.5 t11 6t10 7.5t4.5 8q0 7 -7 15t-15.5 15t-15.5 12t-7 7q0 3 5 22t11.5 40.5t13.5 39t11 17.5q8 0 17.5 -11.5t17.5 -27.5t13 -33t5 -28zM556 770q0 -4 -9 -20t-20 -33.5t-22 -31.5t-15 -14q-2 0 -16.5 9.5t-31 21.5t-29.5 23.5t-13 15.5t9.5 19.5t21.5 32.5t22.5 30.5 t12.5 13.5q4 0 19 -9.5t30.5 -21.5t28 -23t12.5 -13zM658 596q0 -4 -9 -20t-20 -33.5t-21.5 -31.5t-14.5 -14q-2 0 -15.5 9.5t-28.5 21.5q-18 13 -40 31q-4 4 -8 4q-3 0 -7 -6q-16 -22 -28 -39q-11 -15 -20.5 -27t-12.5 -12t-17.5 9.5t-30.5 22t-29 24t-13 14.5t9.5 18.5 t21 32.5t22 31t12.5 14q5 0 18.5 -9.5t27.5 -20.5q17 -13 36 -30q7 -5 10 -5t9 7q14 21 26 38q11 14 20.5 26t12.5 12t17.5 -9.5t30.5 -21.5t29 -23t13 -13zM663 -163q0 -4 -9 -19.5t-20.5 -33t-22 -31.5t-14.5 -14q-2 0 -15.5 9.5t-29.5 21.5q-18 13 -41 31q-4 4 -7 4 t-7 -6q-16 -22 -28 -39q-11 -15 -21 -27t-13 -12q-2 0 -16.5 9.5t-31 22t-29.5 23.5t-13 14t9.5 19t21.5 33t22.5 31t12.5 14q5 0 18 -9.5t28 -20.5l38 -30q7 -5 8 -5q2 0 8 7l28 38q11 14 20.5 26t13.5 12t18.5 -9.5t30.5 -21.5t28.5 -23t12.5 -14zM593 -361q0 -3 -9 -18.5 t-20 -32.5t-22.5 -31t-15.5 -14q-3 0 -17.5 9t-31 20.5t-29.5 22.5t-13 15t9.5 19.5t21.5 33t23 31.5t14 14q4 0 18.5 -9.5t30.5 -22t28.5 -23.5t12.5 -14z" />
<glyph unicode="&#x69c;" horiz-adv-x="1018" d="M1085 63q0 -12 -1.5 -23t-7 -20t-16.5 -14.5t-30 -5.5h-37q-53 0 -94 44.5t-70 113.5q-14 -29 -28.5 -53t-33 -42t-41 -28t-50.5 -10q-27 0 -45.5 7t-31.5 19t-21.5 28t-14.5 34q-38 -53 -84.5 -82t-120.5 -29q-48 0 -85.5 23.5t-63.5 78.5q-38 -57 -85 -80.5t-99 -23.5 h-37q-19 0 -30 5.5t-16.5 14.5t-7 20t-1.5 23t1.5 23t7 19.5t16.5 14t30 5.5h37q44 0 76 10t55 24.5t38 32t25.5 32t17.5 24.5t13 10q7 0 9 -9.5t4.5 -24t7 -31t16 -31t32 -24t54.5 -9.5q45 0 79 11t58.5 28t41.5 36t28.5 36t18 28t11.5 11q3 0 9 -6t6 -21q0 -14 3 -29 t12 -27t24.5 -20t40.5 -8q36 0 58.5 18t36.5 39.5t21 39.5t13 18t9 -5.5t7 -17.5q5 -17 16 -40t28.5 -44t42 -36t56.5 -15h37q19 0 30 -5.5t16.5 -14t7 -19.5t1.5 -23zM565 674q0 -4 -9 -20t-20 -33.5t-22 -31.5t-15 -14q-2 0 -16.5 9.5t-31 21.5t-29.5 23.5t-13 15.5 t9.5 19.5t21.5 32.5t22.5 30.5t12.5 13.5q4 0 19 -9.5t30.5 -21.5t28 -23t12.5 -13zM667 500q0 -4 -9 -20t-20 -33.5t-21.5 -31.5t-14.5 -14q-2 0 -15.5 9.5t-28.5 21.5q-18 13 -40 31q-4 4 -8 4q-3 0 -7 -6q-16 -22 -28 -39q-11 -15 -20.5 -27t-12.5 -12t-17.5 9.5 t-30.5 22t-29 24t-13 14.5t9.5 18.5t21 32.5t22 31t12.5 14q5 0 18.5 -9.5t27.5 -20.5q17 -13 36 -30q7 -5 10 -5t9 7q14 21 26 38q11 14 20.5 26t12.5 12t17.5 -9.5t30.5 -21.5t29 -23t13 -13zM668 -168q0 -4 -9 -19.5t-20.5 -33t-22 -31.5t-14.5 -14q-2 0 -15.5 9.5 t-29.5 21.5q-18 13 -41 31q-4 4 -7 4t-7 -6q-16 -22 -28 -39q-11 -15 -21 -27t-13 -12q-2 0 -16.5 9.5t-31 22t-29.5 23.5t-13 14t9.5 19t21.5 33t22.5 31t12.5 14q5 0 18 -9.5t28 -20.5l38 -30q7 -5 8 -5q2 0 8 7l28 38q11 14 20.5 26t13.5 12t18.5 -9.5t30.5 -21.5 t28.5 -23t12.5 -14zM598 -366q0 -3 -9 -18.5t-20 -32.5t-22.5 -31t-15.5 -14q-3 0 -17.5 9t-31 20.5t-29.5 22.5t-13 15t9.5 19.5t21.5 33t23 31.5t14 14q4 0 18.5 -9.5t30.5 -22t28.5 -23.5t12.5 -14z" />
<glyph unicode="&#x69c;" horiz-adv-x="1407" d="M1474 63q0 -12 -1.5 -23t-7 -20t-16.5 -14.5t-30 -5.5h-37q-51 0 -88.5 41t-72.5 119q-14 -29 -28.5 -53t-32.5 -42t-40.5 -28t-50.5 -10q-34 0 -54 10t-32 24t-18 29t-11 25q-19 -26 -34.5 -45t-34 -31t-43 -17.5t-62.5 -5.5q0 -28 -1 -49t-3 -40t-5.5 -39t-8.5 -46 q-21 -105 -73 -170.5t-119.5 -101.5t-143 -49t-145.5 -13q-59 0 -105.5 20t-79 54t-50 78.5t-17.5 93.5q0 48 16 97t36 88.5t38.5 64.5t23.5 25t9 -3.5t4 -7.5q0 -6 -11 -24t-24 -45.5t-24 -63t-11 -75.5q0 -50 25 -83.5t61.5 -53.5t78 -29t73.5 -9q43 0 88 4.5t87 13.5 t78 21.5t60 28.5q53 35 71.5 84t18.5 123q0 47 -8.5 80t-18 55.5t-18 35.5t-8.5 21q0 6 7 23t16 36t17.5 33.5t12.5 14.5q12 -17 21.5 -36.5t15.5 -41.5q45 0 79 11t58.5 28t41.5 36t28.5 36t18 28t11.5 11q4 0 9.5 -6t5.5 -21q0 -14 3 -29t12 -27t24.5 -20t40.5 -8 q36 0 58.5 18t36.5 39.5t21 39.5t13 18t8.5 -5t7.5 -18q5 -14 16 -37t28 -45.5t41 -38.5t56 -16h37q19 0 30 -5.5t16.5 -14t7 -19.5t1.5 -23zM1025 674q0 -4 -9 -20t-20 -33.5t-22 -31.5t-15 -14q-2 0 -16.5 9.5t-31 21.5t-29.5 23.5t-13 15.5t9.5 19.5t21.5 32.5t22.5 30.5 t12.5 13.5q4 0 19 -9.5t30.5 -21.5t28 -23t12.5 -13zM1127 500q0 -4 -9 -20t-20 -33.5t-21.5 -31.5t-14.5 -14q-2 0 -15.5 9.5t-28.5 21.5q-18 13 -40 31q-4 4 -8 4q-3 0 -7 -6q-16 -22 -28 -39q-11 -15 -20.5 -27t-12.5 -12t-17.5 9.5t-30.5 22t-29 24t-13 14.5t9.5 18.5 t21 32.5t22 31t12.5 14q5 0 18.5 -9.5t27.5 -20.5q17 -13 36 -30q7 -5 10 -5t9 7q14 21 26 38q11 14 20.5 26t12.5 12t17.5 -9.5t30.5 -21.5t29 -23t13 -13zM1195 -183q0 -4 -9 -19.5t-20.5 -33t-22 -31.5t-14.5 -14q-2 0 -15.5 9.5t-29.5 21.5q-18 13 -41 31q-4 4 -7 4 t-7 -6q-16 -22 -28 -39q-11 -15 -21 -27t-13 -12q-2 0 -16.5 9.5t-31 22t-29.5 23.5t-13 14t9.5 19t21.5 33t22.5 31t12.5 14q5 0 18 -9.5t28 -20.5l38 -30q7 -5 8 -5q2 0 8 7l28 38q11 14 20.5 26t13.5 12t18.5 -9.5t30.5 -21.5t28.5 -23t12.5 -14zM1125 -381 q0 -3 -9 -18.5t-20 -32.5t-22.5 -31t-15.5 -14q-3 0 -17.5 9t-31 20.5t-29.5 22.5t-13 15t9.5 19.5t21.5 33t23 31.5t14 14q4 0 18.5 -9.5t30.5 -22t28.5 -23.5t12.5 -14z" />
<glyph unicode="&#x69d;" horiz-adv-x="1210" d="M1108 336q0 -62 -34.5 -110.5t-90 -84.5t-125 -61.5t-140.5 -41.5t-136 -23.5t-111 -8.5q-5 -9 -11.5 -27t-13 -38.5t-12 -40.5t-6.5 -33q-3 0 -7.5 4.5t-9 11.5t-7.5 14.5t-3 12.5q0 4 3 15.5t7.5 25.5t9.5 28.5t9 26.5q-38 0 -71.5 2t-61.5 12t-50 31.5t-38 61.5 q-14 -22 -32 -42.5t-40.5 -36t-50 -25t-61.5 -9.5h-37q-19 0 -30 5.5t-16.5 14.5t-7 20t-1.5 23t1.5 23t7 19.5t16.5 14t30 5.5h37q64 0 105 21t66 46.5t37 46.5t17 21q3 0 6 -7t5.5 -16.5t4.5 -21t4 -20.5q5 -25 23.5 -39t43 -21.5t53 -9.5t52.5 -2h41q37 53 92 117.5 t120.5 121t136 94.5t139.5 38q37 0 63 -16t42.5 -39.5t24 -51t7.5 -51.5zM1034 276q0 12 -10.5 25t-28.5 24.5t-42 19t-52 7.5q-47 0 -99 -17t-101.5 -47t-92.5 -71.5t-71 -91.5q55 0 113.5 8.5t113.5 22t104 30t86 33.5t58.5 32t21.5 25zM846 -196q0 -4 -9 -20t-20.5 -33.5 t-22 -31.5t-14.5 -14q-2 0 -15.5 9.5t-29.5 21.5q-18 13 -41 31q-4 4 -7 4t-7 -4q-15 -22 -27 -39q-11 -15 -20.5 -27t-12.5 -12t-17.5 9.5t-30.5 21.5t-29 23t-13 14q0 4 9.5 19.5t21.5 33t22.5 31.5t12.5 14q5 0 18 -10t27 -21q17 -13 37 -30q6 -6 9 -6t7 8q15 21 28 38 q11 14 21 26.5t12 12.5q3 0 18 -10t31 -22.5t29 -23.5t13 -13z" />
<glyph unicode="&#x69d;" horiz-adv-x="1210" d="M1278 63q0 -12 -1.5 -23t-7 -20t-16.5 -14.5t-30 -5.5h-37q-117 0 -235.5 0.5t-238.5 0.5h-118.5t-116.5 -1q-10 -20 -18 -44.5t-14.5 -46t-11 -36t-5.5 -14.5q-4 0 -8.5 5t-8 12.5t-6 15t-2.5 12.5q0 3 2 13.5t6 24.5t8 29.5t9 28.5q-38 0 -71.5 2.5t-61 13.5 t-49.5 33.5t-37 63.5q-14 -22 -32 -42.5t-40.5 -36t-50 -25t-61.5 -9.5h-37q-19 0 -30 5.5t-16.5 14.5t-7 20t-1.5 23t1.5 23t7 19.5t16.5 14t30 5.5h37q64 0 105 21t66 46.5t37 46.5t17 21q3 0 6 -7t5.5 -16.5t4.5 -21t4 -20.5q5 -25 23.5 -39t43.5 -21.5t53 -9.5t52 -2h41 q23 34 56 74t73 81t85.5 79t93.5 67.5t97 47t97 17.5q30 0 53.5 -15t40 -37.5t25 -49t8.5 -49.5q0 -74 -49.5 -126.5t-136.5 -98.5q83 8 147.5 10t112.5 2h37q19 0 30 -5.5t16.5 -14t7 -19.5t1.5 -23zM1034 272q0 15 -18.5 27.5t-42 21.5t-45.5 14t-29 5q-44 0 -91 -12.5 t-93.5 -39t-90.5 -67t-81 -96.5q53 0 110 8t112 20.5t103.5 28.5t85.5 32t58.5 31.5t21.5 26.5zM839 -206q0 -4 -9 -20t-20.5 -33.5t-22 -31.5t-14.5 -14q-2 0 -15.5 9.5t-29.5 21.5q-18 13 -41 31q-4 4 -7 4t-7 -4q-15 -22 -27 -39q-11 -15 -20.5 -27t-12.5 -12t-17.5 9.5 t-30.5 21.5t-29 23t-13 14q0 4 9.5 19.5t21.5 33t22.5 31.5t12.5 14q5 0 18 -10t27 -21q17 -13 37 -30q6 -6 9 -6t7 8q15 21 28 38q11 14 21 26.5t12 12.5q3 0 18 -10t31 -22.5t29 -23.5t13 -13z" />
<glyph unicode="&#x69d;" horiz-adv-x="1632" d="M1700 63q0 -12 -1.5 -23t-7 -20t-16.5 -14.5t-30 -5.5h-37q-117 0 -235 1t-237 1q-60 0 -118.5 -0.5t-116.5 -1.5q-10 -20 -18.5 -44.5t-14.5 -46t-10.5 -36t-5.5 -14.5q-4 0 -8.5 5t-8.5 12.5t-7 15t-3 12.5q0 3 3 14t8 25t11 30t11 29q-7 0 -18 1.5t-23 3.5t-22 4.5 t-15 4.5q0 -30 -1 -51t-3 -39.5t-5.5 -38t-8.5 -45.5q-21 -105 -73 -170.5t-119.5 -101.5t-143 -49t-145.5 -13q-59 0 -105.5 20t-79 54t-50 78.5t-17.5 93.5q0 48 16 97t36 88.5t38.5 64.5t23.5 25t9 -3.5t4 -7.5q0 -6 -11 -24t-24 -45.5t-24 -63t-11 -75.5q0 -50 25 -83.5 t61.5 -53.5t78 -29t73.5 -9q43 0 88 4.5t87 13.5t78 21.5t60 28.5q53 35 71.5 84t18.5 123q0 47 -8.5 80t-18 55.5t-18 35.5t-8.5 21q0 6 7 23t16 36t17.5 33.5t12.5 14.5q12 -17 21.5 -36.5t15.5 -41.5q19 -3 56 -5.5t87 -2.5q23 34 56 74t73 81t85.5 79t93.5 67.5t97 47 t97 17.5q30 0 53.5 -15t40 -37.5t25 -49t8.5 -49.5q0 -74 -49.5 -126.5t-138.5 -98.5q83 8 147.5 10t112.5 2h37q19 0 30 -5.5t16.5 -14t7 -19.5t1.5 -23zM1458 272q0 15 -18.5 27.5t-42 21.5t-45.5 14t-29 5q-44 0 -91 -12.5t-93.5 -39t-90.5 -67t-81 -96.5q53 0 110 8 t111.5 20.5t103.5 28.5t86 32t58.5 31.5t21.5 26.5zM1291 -209q0 -4 -9 -20t-20.5 -33.5t-22 -31.5t-14.5 -14q-2 0 -15.5 9.5t-29.5 21.5q-18 13 -41 31q-4 4 -7 4t-7 -4q-15 -22 -27 -39q-11 -15 -20.5 -27t-12.5 -12t-17.5 9.5t-30.5 21.5t-29 23t-13 14q0 4 9.5 19.5 t21.5 33t22.5 31.5t12.5 14q5 0 18 -10t27 -21q17 -13 37 -30q6 -6 9 -6t7 8q15 21 28 38q11 14 21 26.5t12 12.5q3 0 18 -10t31 -22.5t29 -23.5t13 -13z" />
<glyph unicode="&#x69e;" horiz-adv-x="1210" d="M1108 336q0 -62 -34.5 -110.5t-90 -84.5t-125 -61.5t-140.5 -41.5t-136 -23.5t-111 -8.5q-5 -9 -11.5 -27t-13 -38.5t-12 -40.5t-6.5 -33q-3 0 -7.5 4.5t-9 11.5t-7.5 14.5t-3 12.5q0 4 3 15.5t7.5 25.5t9.5 28.5t9 26.5q-38 0 -71.5 2t-61.5 12t-50 31.5t-38 61.5 q-14 -22 -32 -42.5t-40.5 -36t-50 -25t-61.5 -9.5h-37q-19 0 -30 5.5t-16.5 14.5t-7 20t-1.5 23t1.5 23t7 19.5t16.5 14t30 5.5h37q64 0 105 21t66 46.5t37 46.5t17 21q3 0 6 -7t5.5 -16.5t4.5 -21t4 -20.5q5 -25 23.5 -39t43 -21.5t53 -9.5t52.5 -2h41q37 53 92 117.5 t120.5 121t136 94.5t139.5 38q37 0 63 -16t42.5 -39.5t24 -51t7.5 -51.5zM1034 276q0 12 -10.5 25t-28.5 24.5t-42 19t-52 7.5q-47 0 -99 -17t-101.5 -47t-92.5 -71.5t-71 -91.5q55 0 113.5 8.5t113.5 22t104 30t86 33.5t58.5 32t21.5 25zM653 806q0 -4 -9 -20t-20 -33.5 t-22 -31.5t-15 -14q-2 0 -16.5 9.5t-31 21.5t-29.5 23.5t-13 15.5t9.5 19.5t21.5 32.5t22.5 30.5t12.5 13.5q4 0 19 -9.5t30.5 -21.5t28 -23t12.5 -13zM755 632q0 -4 -9 -20t-20 -33.5t-21.5 -31.5t-14.5 -14q-2 0 -15.5 9.5t-28.5 21.5q-18 13 -40 31q-4 4 -8 4q-3 0 -7 -6 q-16 -22 -28 -39q-11 -15 -20.5 -27t-12.5 -12t-17.5 9.5t-30.5 22t-29 24t-13 14.5t9.5 18.5t21 32.5t22 31t12.5 14q5 0 18.5 -9.5t27.5 -20.5q17 -13 36 -30q7 -5 10 -5t9 7q14 21 26 38q11 14 20.5 26t12.5 12t17.5 -9.5t30.5 -21.5t29 -23t13 -13z" />
<glyph unicode="&#x69e;" horiz-adv-x="1210" d="M1278 63q0 -12 -1.5 -23t-7 -20t-16.5 -14.5t-30 -5.5h-37q-117 0 -235.5 0.5t-238.5 0.5h-118.5t-116.5 -1q-10 -20 -18 -44.5t-14.5 -46t-11 -36t-5.5 -14.5q-4 0 -8.5 5t-8 12.5t-6 15t-2.5 12.5q0 3 2 13.5t6 24.5t8 29.5t9 28.5q-38 0 -71.5 2.5t-61 13.5 t-49.5 33.5t-37 63.5q-14 -22 -32 -42.5t-40.5 -36t-50 -25t-61.5 -9.5h-37q-19 0 -30 5.5t-16.5 14.5t-7 20t-1.5 23t1.5 23t7 19.5t16.5 14t30 5.5h37q64 0 105 21t66 46.5t37 46.5t17 21q3 0 6 -7t5.5 -16.5t4.5 -21t4 -20.5q5 -25 23.5 -39t43.5 -21.5t53 -9.5t52 -2h41 q23 34 56 74t73 81t85.5 79t93.5 67.5t97 47t97 17.5q30 0 53.5 -15t40 -37.5t25 -49t8.5 -49.5q0 -74 -49.5 -126.5t-136.5 -98.5q83 8 147.5 10t112.5 2h37q19 0 30 -5.5t16.5 -14t7 -19.5t1.5 -23zM1034 272q0 15 -18.5 27.5t-42 21.5t-45.5 14t-29 5q-44 0 -91 -12.5 t-93.5 -39t-90.5 -67t-81 -96.5q53 0 110 8t112 20.5t103.5 28.5t85.5 32t58.5 31.5t21.5 26.5zM695 830q0 -4 -9 -20t-20 -33.5t-22 -31.5t-15 -14q-2 0 -16.5 9.5t-31 21.5t-29.5 23.5t-13 15.5t9.5 19.5t21.5 32.5t22.5 30.5t12.5 13.5q4 0 19 -9.5t30.5 -21.5t28 -23 t12.5 -13zM797 656q0 -4 -9 -20t-20 -33.5t-21.5 -31.5t-14.5 -14q-2 0 -15.5 9.5t-28.5 21.5q-18 13 -40 31q-4 4 -8 4q-3 0 -7 -6q-16 -22 -28 -39q-11 -15 -20.5 -27t-12.5 -12t-17.5 9.5t-30.5 22t-29 24t-13 14.5t9.5 18.5t21 32.5t22 31t12.5 14q5 0 18.5 -9.5 t27.5 -20.5q17 -13 36 -30q7 -5 10 -5t9 7q14 21 26 38q11 14 20.5 26t12.5 12t17.5 -9.5t30.5 -21.5t29 -23t13 -13z" />
</font>
</defs>
</svg>
