<?xml version="1.0" standalone="no"?>
<!DOCTYPE svg PUBLIC "-//W3C//DTD SVG 1.1//EN" "http://www.w3.org/Graphics/SVG/1.1/DTD/svg11.dtd" >
<svg xmlns="http://www.w3.org/2000/svg" xmlns:xlink="http://www.w3.org/1999/xlink" version="1.1">
<metadata></metadata>
<defs>
<font id="bsetarehregular" horiz-adv-x="0" >
<font-face units-per-em="2048" ascent="1638" descent="-410" />
<missing-glyph horiz-adv-x="418" />
<glyph unicode="&#x651;&#x64b;" d="M308 1818q-115 0 -115 12q0 1 118 39l195 62q8 3 9 3t58 -12q28 -2 62 -13l-4 -4q-29 8 -34 7q-70 -21 -126 -40l-124 -40q-8 -3 -22.5 -8.5t-16.5 -5.5zM308 1954q-115 0 -115 12q0 2 118 40l195 62q8 2 9 2t58 -12q28 -2 62 -13l-4 -4q-29 9 -34 7q-70 -21 -126 -39 l-124 -41q-8 -3 -22.5 -8.5t-16.5 -5.5zM466 1543h7q25 0 88 17q-29 58 -35 69q13 20 38 61q16 -22 21 -50q-1 -40 -9 -61t-31 -60q-58 -32 -108 -39q-37 9 -45 16t-21 65q-48 -66 -49 -67q-26 -28 -72 -28t-46 64t38 147v-31l-4 -58q0 -35 21 -42q7 -2 40 12t51 16 q-3 29 -3 59t31 56l2 -61q3 -26 32 -55.5t54 -29.5z" />
<glyph unicode="&#x651;&#x64c;" arabic-form="isolated" d="M268 2166q0 -20 32 -28t57 -6l74 4l-52 60q-48 57 -79.5 23.5t-31.5 -53.5zM584 2166q0 -20 32 -28t57 -6l74 4l-51 60q-49 56 -80.5 23t-31.5 -53zM110 1839q-12 0 -17 3q8 7 17 14q43 15 120 55q100 72 141 144q-3 16 -35 22t-73 13q-14 24 -14 45t27 102q16 51 55 51 q21 0 84 -24q46 -27 46 -47q0 -8 -3 -19q5 -28 -30 -109.5t-58 -106.5q-46 -47 -126 -95t-134 -48zM426 1839q-12 0 -17 3q8 7 17 14q43 15 120 55q100 72 141 144q-3 16 -35 22t-73 13q-14 24 -14 45t27 102q17 51 55 51q21 0 84 -24q46 -27 46 -47q0 -8 -3 -19 q5 -28 -30 -109.5t-58 -106.5q-46 -47 -126 -95t-134 -48zM463 1547h6q25 0 88 17q-29 58 -35 69q13 20 38 61q16 -22 21 -50q-1 -40 -9 -61t-30 -60q-58 -32 -109 -39q-37 9 -45 16t-21 65q-48 -66 -48 -67q-27 -28 -73 -28t-46 64t39 147l-1 -31l-4 -58q0 -35 22 -42 q6 -2 39 12t52 16q-4 29 -4 58t31 57l2 -61q3 -26 32 -55.5t55 -29.5z" />
<glyph unicode="&#x651;&#x64d;" arabic-form="isolated" d="M252 1410q-115 0 -115 12q0 1 118 39l195 62q8 3 9 3t58 -13q27 -1 62 -13l-4 -3q-29 8 -34 7q-70 -21 -126 -40l-125 -40q-8 -3 -22 -8.5t-16 -5.5zM252 1546q-115 0 -115 12q0 1 118 39l195 63q8 2 9 2t58 -12q27 -2 62 -13l-4 -4q-29 8 -34 7q-70 -21 -126 -40 l-125 -40q-8 -3 -22 -8.5t-16 -5.5zM445 1858h7q25 0 87 16q-29 59 -35 70l39 60q16 -21 20 -50q0 -40 -8 -61t-31 -60q-58 -32 -109 -38q-37 8 -45 15t-21 65q-47 -66 -48 -66q-27 -28 -73 -28t-46 53q0 74 39 158l-1 -32l-4 -57q0 -35 22 -42q8 -3 40 11t51 16 q-3 30 -3 60t30 55l2 -61q3 -26 32 -55t55 -29z" />
<glyph unicode="&#x651;&#x64e;" arabic-form="isolated" d="M265 1751q-115 0 -115 12q0 1 118 39l195 62l9 3l58 -13q28 -1 62 -13l-4 -4q-29 9 -34 8q-70 -21 -126 -40l-124 -41q-8 -2 -22.5 -7.5t-16.5 -5.5zM454 1533h6q26 0 88 17q-29 58 -35 69q13 20 38 60q16 -21 21 -50q0 -41 -8 -61t-31 -60q-58 -32 -109 -38 q-36 8 -44 15t-22 65l-48 -66q-27 -28 -73 -28t-46 53q0 74 39 158l-1 -32l-4 -57q0 -35 22 -42q6 -2 39 12t52 15q-4 30 -4 60t31 55l2 -61q3 -26 32 -55t55 -29z" />
<glyph unicode="&#x651;&#x64f;" arabic-form="isolated" d="M438 2113q0 -21 32 -29t56 -5l75 4l-52 60q-49 56 -80 23.5t-31 -53.5zM280 1786q-12 0 -18 3q8 7 17 14q43 15 120 55q100 72 142 144q-4 16 -36 22t-72 13q-15 24 -15 45t27 102q17 51 55 51q20 0 42 -8t43 -16q45 -27 45 -47q0 -8 -3 -19q5 -28 -29.5 -109.5 t-69.5 -117.5t-115 -84t-133 -48zM462 1489h7q25 0 87 17q-28 59 -34 69q13 20 38 61q16 -22 20 -50q0 -40 -8 -61t-31 -60q-58 -32 -109 -38q-36 8 -44 15t-22 65q-47 -66 -48 -67q-26 -28 -72 -28t-46 64t38 147v-31l-5 -57q0 -35 22 -42q7 -3 40 11t51 16q-3 29 -3 59 t30 56l3 -61q2 -26 31.5 -55.5t54.5 -29.5z" />
<glyph unicode="&#x651;&#x650;" arabic-form="isolated" d="M123 1406q0 1 118 39l195 62l10 3l57 -13q28 -1 62 -13l-4 -4q-29 9 -34 8q-70 -21 -126 -40l-124 -41q-8 -2 -22.5 -8t-16.5 -5q-115 0 -115 12zM440 1694h7q25 0 87 17q-28 58 -34 69q13 20 38 61q16 -22 20 -51q0 -39 -8 -60t-31 -61q-58 -31 -109 -38q-36 7 -44 15 t-22 65q-47 -65 -48 -66q-27 -28 -73 -28t-46 64t39 147v-32q-5 -44 -5 -68t22 -31q7 -2 40 12t51 15q-3 30 -3 60t30 55l2 -61q3 -26 32.5 -55t54.5 -29z" />
<glyph unicode="&#xfedf;&#xfee0;&#xfeea;" horiz-adv-x="1789" arabic-form="isolated" d="M1421 1187h7q25 0 88 16q-29 59 -35 70q13 20 38 60q16 -21 21 -50q0 -40 -8 -61t-31 -60q-59 -32 -109 -38q-36 8 -44 15t-22 65q-48 -66 -49 -66q-27 -28 -73 -28t-45 64q0 64 38 147v-32l-4 -57q0 -35 21 -42q7 -2 40 12t51 15q-3 30 -3 61t31 54l2 -61q3 -26 32 -55 t54 -29zM1275 1433q-115 0 -115 12q0 2 119 40l195 62q8 3 12 3l55 -13q27 -1 61 -13l-3 -4q-30 9 -35 7q-69 -21 -126 -39l-124 -41q-8 -2 -22 -8t-17 -6zM836 403v102q-37 176 -78 268q-40 92 -58 105l-19 19q-14 12 -35 12q-64 0 -244 -114q-71 -45 -116 -127t-45 -142 q0 -112 73 -174t186 -61q25 0 98 12q73 13 83 19t30 36q30 45 125 45zM1448 -29q-37 0 -68 55q-12 18 -42 88t-43 70q-19 0 -81 -64t-96 -91q-68 -54 -127 -54q-31 1 -31 51t9 77q-14 116 -20 147q-20 116 -89 116q-10 0 -94 -57q-212 -143 -392 -143q-107 0 -178 69.5 t-71 178.5t286 443q230 205 335 205q106 0 151 -147q8 -28 57 -327l29 -180q24 -142 53 -222t56 -83q207 0 207 421q0 134 -25 316l-8 66q6 3 9 0q57 0 71 -22t15 -82l-2 -133q1 -137 15 -265t94 -240q38 -52 66 -52q64 0 100 116t37 233t-19 234t-20 153t39 67 q49 -81 50 -276l5 -125q0 -270 -87 -368q-35 -40 -95 -107q-60 -68 -96 -68z" />
<glyph unicode="&#xfedf;&#xfe82;" horiz-adv-x="1122" arabic-form="isolated" d="M567 1378q9 0 9 -6t-20 -22t-28 -27q-9 -11 -39 -11h-17q-9 -1 -56 -27t-86 -26h-8q-12 -1 -54 9t-68 10q-6 -4 -24 -20t-22 -11l3 16q0 19 40 48q5 5 18 23t21 18t16.5 -4.5t11 -5t40.5 -14.5t53 -13t83 33t97 32l25 -2h5zM425 538q0 139 -22 231l-34 92q-7 20 -7 38 t27 72t40 54q38 0 38 -261q1 -260 7 -338t8 -114q3 -108 -77 -180l1 17q0 16 3 48l5 68q11 134 11 273zM50 -253q0 14 23 31q82 59 99.5 79t17.5 32t-2 24q0 12 20 13t64 12l198 47q65 14 195 149q49 52 119 170t102 167q94 144 94 323q0 58 -8 126q0 98 4 103q1 -9 1 -40 q35 23 54 57l22 60q3 -1 6 -13q0 -234 -10 -330q-39 -338 -329 -663l-101 -138q-26 -34 -63 -50q-38 -16 -114 -52q-76 -34 -160 -44t-120 -44q-8 -7 -69 -67q-11 0 -27 17t-16 31z" />
<glyph unicode="&#xfee0;&#xfe82;" horiz-adv-x="1047" arabic-form="final" d="M584 1366q0 -6 -19 -22t-28 -26t-39 -11h-17q-9 -2 -19 -6q-85 -48 -123 -48h-8q-13 -1 -55 9t-67 10q-6 -4 -24 -20q-19 -16 -21 -11q-2 4 0 9t2 7q0 19 40 48q5 5 18 23t21 18t16 -4t11.5 -5t40.5 -15t53 -13q16 0 82 33q68 33 98 33l25 -2h5q8 -1 8 -7zM1085 0h-29 q-56 0 -97 -30q-11 -8 -81 -66q20 18 20 44t7 89t7 116t-8 103t-54 247q-104 -277 -121 -304t-56 -76l-130 -199q-23 -24 -99 -58t-174 -50.5t-130 -31.5t-50 -29q3 9 3 23q0 13 71 117q14 21 14 34t-1 23q0 10 32 11q-3 1 95 23t138 32t97 48q165 114 198 202t69 294 q34 206 46 257t21 98q11 36 31 54q0 7 22 25t23 22q22 91 39 91q10 0 10 -11q-51 -151 -51 -187l-1 -337q0 -316 35.5 -404t83.5 -88h20v-82zM423 540q0 140 -22 232l-34 92q-7 20 -7 38t27 71.5t40 53.5q38 0 38 -261q1 -261 7 -338t8 -114q3 -107 -77 -179l1 17q0 15 3 48 l5 68q11 132 11 272zM90 -245q-8 -29 -40 -38q19 22 40 38z" />
<glyph unicode="&#xfedf;&#xfe84;" horiz-adv-x="1122" arabic-form="isolated" d="M474 1243q-10 0 -36 9l-140 -14q-51 -11 -102 -27t-76 -21q4 23 17 74q3 9 23 9h17q34 0 57 12q-41 71 -40 93q3 64 21 109q38 85 179 85q60 0 99 -74q-4 -48 -16 -61q-6 2 -7.5 20.5t-11.5 26.5t-42 18q-32 8 -59 8t-68 -23t-63 -50q21 -46 31 -65q33 -62 79 -78l151 6 q8 0 21 -2q0 -21 -18 -41q-6 -14 -16 -14zM425 534q0 140 -22 231l-34 93q-7 20 -7 38t27 71.5t40 53.5q38 0 38 -261q1 -261 7 -338t8 -114q3 -107 -77 -179l1 17q0 15 3 47l5 69q11 132 11 272zM50 -256q0 14 23 31q82 58 99.5 78.5t17.5 32.5t-2 24q0 12 20 13t64 12 l198 46q65 15 195 149q49 51 119 170t102 168q94 144 94 323q0 58 -8 125q0 99 4 103q1 -9 1 -40q35 23 54 57l22 61q3 -2 6 -13q0 -235 -10 -331q-39 -337 -329 -663l-101 -137q-26 -34 -63 -51l-114 -51t-160 -45t-120 -43q-8 -7 -69 -67q-11 0 -27 16q-16 18 -16 32z" />
<glyph unicode="&#xfee0;&#xfe84;" horiz-adv-x="1048" arabic-form="final" d="M474 1249q-10 0 -36 10l-140 -15q-51 -11 -102 -27t-76 -21q4 23 17 74q3 10 23 10l17 -1q34 0 57 12q-41 71 -40 93q3 64 22 109q35 85 185 85q53 0 92 -73q-4 -49 -16 -61q-6 2 -7.5 21t-11.5 27t-42 16t-59 8t-68 -22t-63 -51q21 -46 31 -64q33 -63 79 -79l151 7 q8 -1 21 -2q0 -21 -18 -42q-6 -14 -16 -14zM1085 0h-29q-56 0 -97 -30q-11 -8 -81 -66q20 18 20 44t7 89t7 116t-8 103t-54 247q-104 -277 -121 -304t-56 -76l-130 -199q-23 -24 -99 -58t-174 -50.5t-130 -31.5t-50 -29q3 9 3 23q0 13 71 117q14 21 14 34t-1 23q0 10 32 11 q-3 1 95 23t138 32t97 49q165 113 199 203t68 294t46 255t21 98q11 36 31 54q0 7 22 25t23 22q22 91 39 91q10 0 10 -11q-51 -151 -51 -187l-1 -336q0 -317 35.5 -405t83.5 -88h20v-82zM423 541q0 139 -22 231l-34 92q-7 20 -7 38t27 72t40 54q38 0 38 -262q1 -262 7 -338 q6 -77 8 -113q3 -108 -77 -180l1 17q0 15 3 48l5 68q11 134 11 273zM90 -245q-8 -29 -40 -38q19 22 40 38z" />
<glyph unicode="&#xfedf;&#xfe88;" horiz-adv-x="1122" arabic-form="isolated" d="M660 -594q-10 0 -37 9l-140 -14q-51 -11 -102 -27t-76 -21q4 23 17 74q3 9 23 9h17q34 0 57 12q-41 71 -40 93q3 64 21 109q38 85 179 85q60 0 99 -74q-4 -48 -16 -61q-6 2 -8 21t-12 27t-41 16q-32 8 -59 9q-27 0 -68 -23t-63 -50q21 -46 31 -64q33 -63 79 -79l151 6 q8 0 21 -2q0 -21 -18 -41q-5 -14 -15 -14zM425 556q0 140 -22 232l-34 92q-7 20 -7 38t27 71.5t40 53.5q38 0 38 -261q1 -261 7 -338t8 -114q3 -107 -77 -179l1 17q0 15 3 48l5 68q11 132 11 272zM50 -234q0 14 23 31q82 59 99.5 79t17.5 32t-2 24q0 12 20 13t64 12l198 46 q65 15 195 150q49 51 119 169t102 168q94 144 94 323q0 58 -8 126q0 98 4 103q1 -9 1 -41q35 23 54 57l22 61q3 -2 6 -13q0 -235 -10 -331q-39 -337 -329 -663l-101 -137q-26 -34 -63 -51l-114 -51t-160 -45t-120 -43q-8 -7 -69 -67q-11 0 -27 16q-16 18 -16 32z" />
<glyph unicode="&#xfee0;&#xfe88;" horiz-adv-x="1048" arabic-form="final" d="M634 -652q-10 0 -37 9l-139 -14q-52 -11 -103 -27t-76 -21q5 23 18 74q2 9 22 9h17q34 0 58 12q-42 71 -42 103q2 12 10 50t13 49q37 85 179 85q60 0 99 -74q-5 -49 -16 -61q-7 2 -9 21t-12 27t-40 16q-32 8 -60 9q-28 0 -68 -23t-63 -50q21 -46 31 -65q34 -62 79 -78 l151 6q8 0 21 -2q0 -21 -17 -41q-6 -14 -16 -14zM1085 0h-29q-56 0 -97 -30q-11 -8 -81 -66q20 18 20 44t7 89t7 116t-8 103t-54 247q-104 -277 -121 -304t-56 -76l-130 -199q-23 -24 -99 -58t-174 -50.5t-130 -31.5t-50 -29q3 9 3 23q0 13 71 117q14 21 14 34t-1 23 q0 10 32 11q-3 1 95 23t138 32t97 48q165 114 198 203t69 294q34 205 46 256t21 98q11 36 31 54q0 7 22 25t23 22q22 91 39 91q10 0 10 -11q-51 -151 -51 -187l-1 -337q0 -316 35.5 -404t83.5 -88h20v-82zM423 540q0 140 -22 232l-34 92q-7 20 -7 38t27 71.5t40 53.5 q38 0 38 -261q1 -261 7 -338t8 -114q3 -107 -77 -179l1 17q0 15 3 48l5 68q11 132 11 272zM90 -245q-8 -29 -40 -38q19 22 40 38z" />
<glyph unicode="&#xfedf;&#xfe8e;" horiz-adv-x="1122" arabic-form="isolated" d="M425 532q0 139 -22 231l-34 92q-7 20 -7 38t27 71.5t40 53.5q38 0 38 -261q1 -261 7 -338t8 -113q3 -108 -77 -180l1 17q0 15 3 48l5 68q11 134 11 273zM50 -260q0 14 23 32q82 59 99.5 78.5t17.5 31.5t-2 25q0 12 20 13t64 12l198 46q27 6 88 54t109 98q47 50 117 168 t102 167q94 144 94 323q0 58 -8 126q0 98 4 103q1 -9 1 -41q35 23 54 58l22 60q3 -2 6 -13q0 -235 -10 -331q-39 -337 -329 -663l-101 -137q-26 -34 -63 -51l-114 -51t-160 -45t-120 -43q-8 -7 -69 -67q-11 1 -27 17t-16 30z" />
<glyph unicode="&#xfee0;&#xfe8e;" horiz-adv-x="1051" arabic-form="final" d="M1085 0h-29q-56 0 -97 -30q-11 -8 -81 -66q20 18 20 44t7 89t7 116t-8 103t-54 247q-104 -277 -121 -304t-56 -76l-130 -199q-23 -24 -99 -58t-174 -50.5t-130 -31.5t-50 -29q3 9 3 23q0 13 71 117q14 21 14 34t-1 23q0 10 32 11q-3 1 95 23t138 32t97 49 q165 113 198 201t69 294q34 206 46 257t21 98q11 36 31 54q0 7 22 25t23 22q22 91 39 91q10 0 10 -11q-51 -151 -51 -187l-1 -336q0 -317 35.5 -405t83.5 -88h20v-82zM423 541q0 139 -22 231l-34 92q-7 20 -7 38t27 71.5t40 53.5q38 0 38 -261q1 -261 7 -338t8 -113 q3 -108 -77 -180l1 17q0 15 3 48l5 68q11 134 11 273zM90 -245q-8 -29 -40 -38q19 22 40 38z" />
<glyph unicode="&#x6c0;" horiz-adv-x="679" arabic-form="isolated" d="M475 694q-9 0 -33 9l-127 -13q-47 -11 -93 -25t-69 -19q4 21 16 67q3 9 20 9l16 -1q31 0 52 11q-37 65 -36 85q3 62 20 101q33 75 168 75q47 0 83 -67q-4 -44 -14 -55q-6 1 -8 18t-10 25t-38 15t-54 7t-61 -20t-57 -46q18 -41 27 -58q31 -57 72 -71l137 5q8 0 19 -1 q0 -20 -16 -38q-5 -13 -14 -13zM267 164q-1 -26 51 -55t88 -29t64 10t62 23q-32 92 -104 171q-11 12 -55 56q-14 -24 -60 -91t-46 -85zM136 584q18 0 49 -20t101 -68t76 -48t117 91t137 91v-7q-18 -26 -18 -37l9 -39q0 -8 -6 -12q-151 -104 -151 -140q0 -5 42 -41 q119 -103 119 -250q0 -45 -35 -113l-4 -2q-49 -13 -266 -13q-133 0 -133 113q0 83 19 129q20 46 62 99q42 54 56 82q-43 47 -90 61l-54 6q-30 8 -30 33l-11 64q0 21 11 21z" />
<glyph unicode="&#x6a9;" horiz-adv-x="1398" arabic-form="isolated" d="M1298 1049h16q21 0 21 -11q-1 -5 -31 -16t-42 -31q-13 -16 -44 -16h-14q-18 0 -96 22q-68 44 -177 44q-109 -1 -243 -27t-163 -146q-2 -9 -2 -13q0 -105 368 -200q111 -54 194 -110q119 -25 119 -166q2 -16 2 -32q0 -182 -180 -288q-43 -25 -103 -39q-75 -13 -110 -18 t-179 -5t-246 24q-263 61 -263 258q0 61 52 197t82 172q9 -4 33 -16t33 -16t35 -6t26 -8q0 -15 -58 -99t-78 -127t-20 -106q0 -158 181 -158h66q45 -1 141 -1q96 1 184 25q87 24 127 33q102 40 127 74q48 65 48 111q0 65 -132 138q-87 49 -177 78t-136 45t-79 43 q-107 29 -115 32q-55 20 -66 93q26 189 173 229q122 78 303 78l242 -8l121 -20q23 -13 60 -13z" />
<glyph unicode="&#x6cc;" horiz-adv-x="1438" arabic-form="isolated" d="M1375 504q0 -38 -29 -63q-82 99 -159 99q-220 0 -335 -66q-76 -44 -93 -114q48 -106 194 -170q83 -32 248 -103q125 -58 139 -166q-64 -247 -350 -314q-127 -30 -317 -30h-64q-193 0 -264 16t-109 40t-60 90t-51 184q8 66 133 162q32 33 42 70t20 79t31 41q21 0 21 -41 q0 -83 -42 -124q-133 -166 -133 -222t16 -84q52 -93 293 -93q125 0 253 7q417 21 492 95q-18 105 -164 179q-87 40 -260 124q-136 69 -136 162q9 86 79 172t169 142t216 57q220 0 220 -129z" />
<glyph unicode="&#x67e;" horiz-adv-x="1336" arabic-form="final" d="M513 -248q13 0 24 -33t11 -45t-2 -17q20 25 60 66t60 41q13 0 24 -33t11 -48q-1 -15 -5 -18t-7 4q-9 23 -17 23t-19.5 -16.5t-16.5 -18.5q-14 -4 -49 -68t-38 -64q-2 1 -2 9l4 68q0 20 -3 36t-4 15q-1 0 -3 -1q-2 -2 -4 5q-9 23 -17 23t-20 -16.5t-21 -19.5t-44.5 -67 t-38.5 -64q-2 1 -2 9l4 68q0 21 -7 51q19 27 61 69t61 42zM504 -489q13 -1 24 -33t11 -47q-1 -15 -5 -18t-6 4q-10 23 -18 23t-19 -16t-21 -20t-45 -67.5t-38 -63.5q-2 1 -2 8l4 69q0 20 -3.5 35.5t-4.5 15.5q21 27 62 69t61 41zM1314 82h51v-82h-112q-58 10 -92 56 q-19 25 -37 73t-30 48q-12 1 -72 -59t-159 -104q-100 -44 -254 -44t-238 12q-246 37 -246 192q0 126 87 275q42 72 170 239q76 154 87 154q5 0 5 -15t-5 -45q8 -10 8 -26q-1 -16 -11 -30t-64 -78q-225 -265 -225 -391q0 -190 503 -190q274 1 402 143q22 24 22 66q0 8 -29 50 t-29 64q71 78 92 110q20 32 31 32q25 0 25 -37l-17 -150q-1 -41 17 -87t71 -148q22 -28 49 -28z" />
<glyph unicode="&#x67e;" horiz-adv-x="578" arabic-form="initial" d="M140 -418l2 65q0 32 -3 48t-4 15q19 27 61 69t61 42q13 0 24 -33t11 -45t-2 -17q20 25 60 66t60 41q13 0 24 -33t11 -48q-1 -15 -5 -18t-6 4q-10 23 -18 23t-19.5 -16.5t-16.5 -18.5q-14 -4 -49 -68t-38 -64q-2 1 -2 9l4 68q0 20 -3 36t-4 15q-1 0 -3 -1q-2 -2 -4 5 q-9 23 -17 23t-20 -16.5t-21 -19.5t-44.5 -67t-38.5 -64zM242 -373q13 0 24 -33t11 -48q-1 -15 -5 -18t-6 4q-10 23 -18 23t-19.5 -16.5t-16.5 -18.5q-14 -4 -49 -68t-38 -64q-2 1 -2 9l4 68q0 20 -3.5 36t-4.5 15q21 27 62 69t61 42zM511 282q0 -17 -6 -44 q-22 -104 -93 -175q-191 -63 -245 -63h-195v82h188q151 0 233 64t82 149q0 33 -17 55t-85 76q-67 54 -91 84t-24 63q0 79 28 79q9 -4 36 -25q91 -71 142 -138q47 -92 47 -207z" />
<glyph unicode="&#x67e;" horiz-adv-x="578" arabic-form="medial" d="M64 -401l1 65q0 32 -3 48t-4 15q21 27 62 69t61 42q11 0 23 -33t12 -45t-2 -17q19 26 60 66q40 41 59 41q13 0 24 -33t11 -47t-5 -19q-4 -2 -6 4q-9 24 -17 24t-20 -16.5t-21 -20.5t-44.5 -67.5t-38.5 -63.5q-2 2 -2 9l4 69q0 21 -7 50q-4 -2 -7 4q-9 24 -17 24 t-19.5 -16.5t-21.5 -20.5t-45 -67.5t-37 -63.5zM144 -382q13 0 24 -33t11 -48q-1 -15 -5 -18t-6 4q-10 23 -18 23t-19.5 -16.5t-16.5 -18.5q-14 -4 -49 -68t-38 -64q-2 1 -2 9l4 68q0 20 -3.5 36t-4.5 15q21 27 62 69t61 42zM590 82h18v-82q-18 0 -32 15t-66 57 q-37 24 -52 38t-28 26t-29 13q-17 1 -57 -43t-73 -64t-133 -31t-158 -11h-8v82h178q79 0 158 88q31 34 53 89t22 111t-19 121l-42 147q0 11 7 11q7 -4 27 -26q20 -23 36 -31q15 -8 52 -28q25 -23 25 -83l-21 -195q0 -90 71 -163q40 -41 71 -41z" />
<glyph unicode="&#x686;" horiz-adv-x="1289" arabic-form="final" d="M1288 584q10 0 12 -68q1 -68 -34 -85l-199 -43q-76 -18 -97 -28q-20 -10 -88 -66t-100 -75l81 -137h464v-81h-369q-94 0 -104 -1t-70 13q-18 8 -45 36.5t-59 55.5q-125 -106 -251 -287t-191 -301q-65 -121 -65 -153t11 -60q42 -109 170 -109q64 0 302 62t361 101 q16 6 76 46t78 40q42 0 42 -56t-24 -90q-6 -10 -12 -10q-12 7 -25 13l-504 -138q-193 -52 -400 -75q-62 34 -93 141q-7 27 -30 118q0 176 191 436q14 19 148 185t360 418q-183 0 -292 -17t-117 -17t-8 4q1 63 23 83t131 32t245 12q195 32 249 32q52 23 104 23q111 46 129 46 zM633 -383l2 63q0 34 -3 50t-4 15q20 27 62 69t61 42q12 0 23 -33t11 -46t-2 -17q20 26 60 67t60 41q13 0 24 -33t11 -48t-4 -18t-7 4q-9 23 -17 23t-20 -16.5t-17 -18.5q-14 -4 -49 -68t-38 -64q-2 1 -2 9l4 68q0 21 -7 51q-4 -3 -7 4q-9 23 -17 23t-20 -16.5t-21 -19.5 t-44.5 -67t-38.5 -64zM587 -657l2 65q0 32 -3 48t-4 15q21 27 62 69t61 42q11 0 23 -33t12 -47t-4 -18t-8 3q-9 23 -17 23t-20 -16t-21 -20q-9 -3 -44.5 -67t-38.5 -64z" />
<glyph unicode="&#x686;" horiz-adv-x="1061" arabic-form="initial" d="M223 -618l1 81q0 48 -7 48q21 27 62 69t61 41q12 0 24 -33t11 -45q0 -12 -1 -15q19 25 59 65t59 40q13 0 24 -33q11 -34 11 -48t-5 -18q-4 -2 -6 4q-9 24 -17 24t-20 -16t-21 -20t-44.5 -68t-38.5 -64q-2 2 -2 9l4 69q0 20 -7 51q-4 -3 -7 3q-9 24 -17 24t-20 -16 t-21 -20t-44.5 -68t-37.5 -64zM316 -646q13 0 24 -32t11 -48q-1 -15 -5 -18t-6 4q-9 23 -17 23t-19.5 -16.5t-21.5 -20.5t-45 -67t-38 -63q-2 1 -2 8l4 69q0 20 -7 51q20 26 61 68t61 42zM-31 82l333 -1q341 0 645 133q-149 138 -327 174t-295 37t-151 -7t-42 -8 q-22 0 -31 63q0 4 -22 25.5t-22 27.5t9 6q358 0 597 -71l150 -57q37 -13 111 -41t74 -66l-13 -58q1 -68 -23 -99q-24 -30 -99 -56t-205 -56t-216 -31q-86 0 -114 1l-127 2h-232v82z" />
<glyph unicode="&#x686;" horiz-adv-x="1066" arabic-form="medial" d="M281 -592l1 81q0 48 -7 48q21 27 62 69t61 41q12 -1 24 -33t11 -44q0 -12 -1 -16q19 25 59 65t59 40q13 -1 24 -33t11 -47q-1 -15 -5 -18t-6 3q-9 24 -17 24t-20 -16t-21 -20t-44.5 -68t-38.5 -64q-2 2 -2 9l4 69q0 20 -7 51q-4 -3 -7 3q-9 24 -17 24t-20 -16t-21 -20 t-44.5 -68t-37.5 -64zM348 -620q12 0 24 -32t11 -48q-1 -15 -5 -18t-7 4q-9 23 -17 23t-19 -16.5t-21 -19.5t-45 -67t-38 -64q-2 1 -2 8l3 69q0 20 -3 36t-4 15q21 26 62 68t61 42zM1103 0l-88 -1q-123 -1 -197 77l-151 -43q-121 -35 -288 -35q-39 0 -101 1l-63 1h-232v82 h219q117 0 181 4q308 18 576 134q-143 138 -323 176t-325 38l-163 -15h-4q-21 0 -27 56q-2 11 -23 30t-21 23q1 4 8 4q207 0 335 -10t261 -52q129 -49 270 -99q70 -27 76 -61q1 -6 1 -12l-6 -52q0 -56 -69 -164h154v-82z" />
<glyph unicode="&#x698;" horiz-adv-x="908" arabic-form="final" d="M547 629l1 81q0 48 -7 48q21 26 62 68t61 42q12 0 24 -33t11 -45q0 -12 -1 -15q19 25 59 65t59 40q13 0 24 -33t11 -47t-5 -19q-4 -2 -6 4q-9 24 -17 24t-20 -16.5t-21 -20.5t-44.5 -67.5t-38.5 -63.5q-2 2 -2 9l4 69q0 20 -7 51q-4 -3 -7 3q-9 24 -17 24t-19 -16.5 t-21 -20.5t-45.5 -67.5t-37.5 -63.5zM840 1153q12 -1 24 -33t11 -47t-5 -18t-7 3q-9 24 -17 24t-19 -16t-21 -20t-45 -67.5t-38 -63.5q-2 1 -2 8l3 69q0 51 -7 51q21 27 62 69t61 41zM957 82v-82h-210q0 -96 -64 -147q-39 -42 -58 -63q-109 -117 -444 -239 q-115 -41 -193 -120q-28 -28 -38 -28t-10 5v22t27 73t52 70q7 21 158 61q41 11 52 13q52 21 122 55q338 165 338 280q-1 46 -17 86t-34 80l-32 71q-11 24 -11 67q21 67 61 128q14 33 19 39q18 8 38 -104q4 -23 12 -79l14 -136q4 -36 8 -52h210z" />
<glyph unicode="&#x6af;" horiz-adv-x="1295" arabic-form="final" d="M1263 1208h13q17 0 17 -10q0 -4 -25 -12t-34 -26q-11 -13 -36 -13h-12q-14 0 -78 18q-30 21 -56 29t-110 8q-82 0 -165 -16t-117 -42l-14 32q104 68 259 68l211 -10l98 -16q19 -10 49 -10zM1298 1049h16q21 0 21 -11q-1 -6 -31 -16t-42 -31q-13 -16 -44 -16h-14 q-18 0 -96 22q-68 44 -177 44q-109 -1 -243 -27t-163 -146q-2 -9 -2 -13q0 -105 368 -200q111 -54 194 -110q119 -25 119 -166q2 -13 2 -27q0 -151 -136 -270h260v-82h-104q-14 0 -33 -3h-56q-53 0 -99 30q-9 6 -92 65q-4 0 -6 -2q-112 -93 -312 -93q-304 0 -428 111 q-75 66 -75 171q0 68 52 200t82 169q9 -4 33 -16t33 -16t35 -6t26 -8q0 -4 -1 -7q-50 -70 -134 -216q-21 -46 -21 -109q0 -158 181 -158h66l69 -1q178 0 258 24q43 7 94 19q2 0 64 32t85 58q57 66 57 110q0 65 -132 138q-87 49 -189 82l-107 34q-63 23 -96 50l-115 32 q-55 20 -66 93q26 189 173 229q122 78 303 78l242 -8l121 -20q23 -13 60 -13z" />
<glyph unicode="&#x6af;" horiz-adv-x="990" arabic-form="initial" d="M180 -1l-42 1h-147v82h402q137 0 255 161q48 65 48 111q0 65 -132 138q-87 49 -189 82l-107 34q-63 23 -95 50l-116 32q-55 20 -66 93q26 189 173 229q122 78 303 78l242 -8l121 -20q23 -13 60 -13h16q21 0 21 -11q-1 -6 -31 -16t-42 -31q-13 -16 -44 -16h-14 q-18 0 -96 22q-68 44 -177 44q-109 -1 -243 -27t-163 -146q-2 -9 -2 -13q0 -105 368 -200q111 -54 194 -110q119 -25 119 -166q2 -16 2 -32q0 -182 -180 -288q-80 -47 -217 -56q-61 -4 -149 -4h-72zM531 1196q-235 0 -314 -58l-15 33q104 67 259 67l211 -10l99 -15 q19 -11 49 -11h12q18 0 18 -7t-25 -15t-35 -26q-11 -13 -35 -13h-12q-15 0 -79 19q-30 20 -56 28t-77 8z" />
<glyph unicode="&#x6af;" horiz-adv-x="984" arabic-form="medial" d="M890 1049h16q21 0 21 -11q-1 -5 -31 -16t-42 -31q-13 -16 -44 -16h-14q-18 0 -96 23q-68 43 -177 43q-109 -1 -243 -27t-163 -146q-2 -9 -2 -13q0 -105 368 -200q111 -54 194 -110q119 -24 119 -166q2 -13 2 -27q0 -151 -135 -270h359v-82h-204l-125 -13q-86 0 -118 74 q-138 -61 -443 -61h-141v82h366q70 0 149 50t134.5 114t55.5 108q0 65 -132 138q-87 49 -189 82l-107 34q-63 23 -95 50l-116 32q-55 20 -66 93q26 189 173 229q122 78 303 78l242 -8l121 -20q23 -13 60 -13zM801 1200h12q18 0 18 -9q0 -5 -25 -13t-35 -23t-35 -15h-12 q-15 0 -78 18q-30 20 -56 28t-110 8q-82 0 -165 -16t-117 -42l-15 33q104 67 260 67l211 -9l98 -16q19 -11 49 -11z" />
<glyph unicode="&#x622;" horiz-adv-x="545" arabic-form="final" d="M448 1318q9 0 9 -6q1 -6 -19 -22t-29 -27t-39 -11h-17q-9 -1 -56 -27t-86 -26h-8q-13 -1 -55 9t-67 10q-5 -4 -23 -20t-23 -10l3 15q0 19 40 48q5 5 18 23q14 18 22 18t16 -4.5t11 -5t41 -14.5t52 -13q14 0 82 33t98 33l25 -3h5zM229 1032l18 -1q44 0 49 39q2 20 14 20 q7 0 7 -28t-11 -113l-19 -159q-12 -119 -12 -245q0 -463 286 -463h16v-82h-16q-13 0 -46 -1l-37 -1q-128 0 -183 77q-40 55 -55 152q-37 296 -37 501t7 288q0 16 19 16z" />
<glyph unicode="&#x623;" horiz-adv-x="486" arabic-form="final" d="M272 1279q-10 0 -32 8l-126 -13q-48 -10 -94 -24t-68 -19q4 20 16 66q2 9 20 9h16q30 0 52 11q-38 64 -37 84q2 49 19 99q34 77 162 77q54 0 91 -67q-4 -44 -15 -55q-6 2 -10 34t-84 32q-38 0 -76 -21t-58 -46q19 -41 28 -58q31 -57 71 -71l138 6q7 -1 19 -2 q0 -19 -16 -38q-6 -12 -16 -12zM206 545q0 -463 286 -463h16v-82h-16q-13 0 -45 -1l-37 -1q-128 0 -183 77q-40 55 -55 152q-4 25 -21 197t-17 340q0 169 8 252q0 16 19 16h9q6 -1 9 -1q44 0 48 39q3 20 12 20t9 -28t-10 -112l-19 -160q-13 -129 -13 -245z" />
<glyph unicode="&#x624;" horiz-adv-x="1031" arabic-form="final" d="M823 695q-8 0 -34 9l-126 -13q-47 -11 -93 -25t-69 -19q4 21 16 67q2 9 20 9l16 -1q30 0 52 11q-38 65 -37 85q3 60 20 100t62 58q46 18 100 18t90 -67q-4 -44 -15 -55q-5 1 -8 17.5t-11 24.5t-36 16t-54 7q-24 -1 -61 -21t-58 -45q19 -42 28 -58q31 -57 72 -72l137 6 q7 0 19 -1q0 -20 -16 -38q-6 -13 -14 -13zM882 215q0 95 -69 141q-35 22 -87 22t-78 -34q-14 -17 -31 -68q-17 -52 -25 -70t-9 -30q-1 -43 47 -77t93 -34q159 0 159 150zM176 -524q-47 0 -51 13q0 11 60 37l131 58q82 38 127 73q197 155 276 285q-9 49 -86 49l-70 -3 q-23 0 -39 5q-24 49 -24 101t22 120t56 174t114 107q79 0 233 -81q52 -28 52 -73q0 -20 -7 -43q1 -8 1 -26t-23 -98l-26 -89h147v-85h-7q-9 3 -26 3l-66 -5q-52 0 -82 44l-59 -151q-13 -33 -22 -43q-132 -149 -231 -215q-235 -157 -400 -157z" />
<glyph unicode="&#x625;" horiz-adv-x="517" arabic-form="final" d="M447 -487q-9 0 -33 9l-127 -14q-47 -10 -93 -24t-69 -19q4 21 16 67q2 8 20 8h16q31 0 52 11q-37 65 -36 85q3 63 20 101q32 74 168 74q47 0 83 -66q-4 -44 -14 -55q-6 1 -10 33t-85 32q-39 -1 -76 -21t-57 -45q18 -42 27 -58q31 -57 72 -72l137 6q7 0 19 -2 q0 -19 -16 -37q-5 -13 -14 -13zM245 545q0 -463 286 -463h16v-82h-16q-13 0 -46 -1l-36 -1q-129 0 -184 77q-39 55 -54 152q-4 25 -21 197t-17 340q0 169 8 252q0 16 19 16h9q5 -1 8 -1q44 0 49 39q3 20 12 20t9 -28t-10 -113l-19 -159q-13 -117 -13 -245z" />
<glyph unicode="&#x626;" horiz-adv-x="1138" arabic-form="final" d="M770 147q-8 0 -34 9l-126 -14q-47 -10 -93 -24t-69 -19q4 21 16 67q2 8 20 8h16q30 0 52 11q-38 65 -38 94q3 11 10 45t11 44q31 77 168 77q48 0 84 -67q-4 -44 -15 -55q-5 2 -9 34t-85 32q-39 -1 -76 -21t-58 -45q19 -42 28 -58q31 -57 72 -72l137 6q7 0 19 -2 q0 -19 -16 -37q-6 -13 -14 -13zM958 82h216v-82h-67q0 -172 -34 -264t-135 -145q-113 -89 -382 -89q-268 0 -318 33t-88 175q-6 23 -25 102q8 70 133 161q32 33 42 70t19 79q10 42 31 41q21 0 21 -41q0 -83 -41 -124q-129 -161 -145 -207q-4 -12 -4 -33q0 -147 324 -147 q83 0 177 12q294 38 380 148q0 21 -42 61t-52 54q-33 46 -33 103l-6 63q0 30 29 30z" />
<glyph unicode="&#x626;" horiz-adv-x="481" arabic-form="initial" d="M341 915q-10 0 -32 8l-127 -13q-46 -10 -92 -24t-69 -19q4 20 16 66q2 9 20 9h16q30 0 51 11q-37 64 -36 84q3 63 20 102q17 38 62 56q46 18 100 18t89 -67q-4 -44 -14 -55q-6 2 -8.5 18.5t-10.5 24.5t-37 16t-53 7q-24 0 -62 -21q-37 -21 -57 -46q19 -41 28 -58 q30 -57 71 -71l138 6q7 -1 18 -2q0 -19 -15 -38q-6 -12 -16 -12zM419 282q0 -16 -6 -44q-23 -104 -94 -175q-92 -30 -150.5 -46.5t-153.5 -16.5h-36v82h28q121 0 179 15q196 49 196 209q0 42 -85 108t-108 96t-23 63q0 79 27 79q9 -4 68 -50t111 -113q47 -92 47 -207z" />
<glyph unicode="&#x626;" horiz-adv-x="496" arabic-form="medial" d="M338 906q-7 0 -35 8l-126 -13q-47 -11 -93 -25t-69 -18q4 21 16 67q2 8 20 8h16q31 0 52 11q-38 64 -38 94q3 10 10 45t11 44q32 77 162 77q54 0 90 -67q-4 -44 -15 -55q-5 2 -9 34t-85 32q-39 0 -76 -21t-58 -45q19 -42 28 -59q31 -57 72 -71l137 6q7 -1 19 -2 q0 -19 -16 -38q-6 -12 -13 -12zM503 82h19v-82q-17 0 -32 15t-66 57q-43 28 -68 52q-25 25 -41 25q-16 1 -57 -43q-42 -44 -92 -75t-182 -31h-9v82h88q80 0 159 88q30 34 52 90t22 111t-18 120l-42 147q0 11 7 11q7 -4 27 -26q20 -23 35 -31t52 -28q26 -23 26 -83l-21 -195 q0 -90 70 -163q41 -41 71 -41z" />
<glyph unicode="&#x627;" horiz-adv-x="475" arabic-form="final" d="M197 545q0 -463 286 -463h16v-82h-16q-13 0 -45 -1l-37 -1q-128 0 -184 77q-39 55 -54 152q-4 25 -21 197t-17 340q0 169 8 252q0 16 19 16h9q6 -1 8 -1q45 0 49 39q3 20 12 20t9 -28t-10 -113l-19 -159q-13 -117 -13 -245z" />
<glyph unicode="&#x628;" horiz-adv-x="1336" arabic-form="final" d="M586 -343q13 -1 24 -33t11 -47q-1 -15 -5 -18t-6 4q-10 23 -18 23t-19 -16t-21 -20t-45 -67.5t-38 -63.5q-2 1 -2 8l4 69q0 20 -3.5 35.5t-4.5 15.5q21 27 62 69t61 41zM1314 82h51v-82h-112q-58 10 -92 56q-19 25 -37 73t-30 48q-12 1 -72 -59q-148 -148 -434 -148 q-288 0 -391 70q-72 50 -72 135q0 125 87 274q42 72 170 239q76 154 87 154q5 0 5 -15t-5 -45q8 -10 8 -26q-1 -16 -11 -30t-64 -78q-225 -265 -225 -391q0 -190 503 -190q274 1 402 143q22 24 22 66q0 8 -29 50t-29 64q71 78 92 110q20 32 31 32q25 0 25 -36l-17 -151 q-1 -41 17 -87t71 -148q22 -28 49 -28z" />
<glyph unicode="&#x628;" horiz-adv-x="430" arabic-form="initial" d="M172 -280q13 0 24 -33t11 -47t-5 -19q-4 -2 -6 4q-9 24 -17 24t-19.5 -17t-21.5 -20t-45 -67t-38 -64q-2 1 -2 9l4 69q0 21 -7 50q20 27 62 69t60 42zM367 282q0 -16 -6 -44q-22 -104 -93 -175q-191 -63 -245 -63h-35v82h28q151 0 233 64t82 149q-1 34 -17 56 q-16 21 -84 75t-92 84t-24 63q0 79 28 79q9 -4 68 -50t111 -113q46 -92 46 -207z" />
<glyph unicode="&#x628;" horiz-adv-x="446" arabic-form="medial" d="M174 -280q13 0 24 -33t11 -48q-1 -15 -5 -18t-6 4q-9 23 -17 23t-20 -16.5t-17 -18.5q-14 -4 -49 -68t-38 -64q-2 1 -2 9l4 68q0 21 -7 51q20 27 61 69t61 42zM458 82h19v-82q-17 0 -28 9q-19 21 -70 63q-37 24 -46 30q-21 22 -35 34t-29 13q-17 1 -57 -43t-90 -75 t-134 -31h-8v82h38q80 0 159 88q30 34 52 89t22 111t-18 121l-42 147q0 11 7 11q6 -4 26 -26q20 -23 36 -31q15 -8 52 -28q26 -23 26 -83l-22 -195q0 -90 71 -163q41 -41 71 -41z" />
<glyph unicode="&#x629;" horiz-adv-x="1080" arabic-form="final" d="M626 777q-8 0 -34 9l-127 -14q-47 -10 -93 -24t-68 -19q4 21 15 67q3 9 20 9l16 -1q31 0 52 11q-37 65 -36 85q3 62 20 101q32 74 168 74q48 0 83 -66q-4 -44 -14 -55q-6 1 -10 33t-84 32q-40 -1 -77 -21t-57 -45q19 -42 28 -58q30 -57 71 -72l137 6q8 0 19 -1 q0 -20 -15 -38q-6 -13 -14 -13zM836 553q-28 0 -131 -5l-213 -11q-110 -6 -133.5 -6t-34.5 -14q-30 -38 -60 -89t-30 -113t49 -111.5t111 -49.5t100 55l42 58q77 97 114 139q127 147 186 147zM871 491q-56 1 -83 -19t-71 -82t-101 -138t-90 -122t-65 -66t-89 -20 q-97 0 -172 75t-75 172t44 170q5 9 41 63t54 75q16 21 58 21t208 8l333 18q168 9 197 9q6 1 6 -23t-44 -203t-44 -206q0 -85 22 -113t102 -28h12v-82h-171q-48 0 -50 -2q74 330 74 407l7 54q0 32 -103 32z" />
<glyph unicode="&#x62a;" horiz-adv-x="1336" arabic-form="final" d="M802 640l2 66q0 67 -6 63q-6 -3 -8 3q-9 24 -17 24t-19.5 -16t-21.5 -20t-44.5 -68t-37.5 -64q-2 2 -2 9l3 69q0 20 -3 35.5t-4 14.5q21 28 62 70t61 41q11 0 23 -33t12 -45t-2 -17q19 26 60 67q40 40 60 40q12 0 23 -33q11 -34 11 -48t-4 -18q-4 -2 -7 4q-9 24 -17 24 t-20 -16t-21 -20t-44.5 -68t-38.5 -64zM1314 82h51v-82h-112q-58 10 -92 56q-19 24 -37 72t-30 49t-72 -59t-159 -104q-100 -44 -277 -45q-286 0 -389 71q-72 49 -72 134q0 126 87 275q42 72 170 239q76 154 87 154q5 0 5 -15t-5 -45q8 -10 8 -26q-1 -16 -11 -30t-64 -78 q-225 -265 -225 -391q0 -191 503 -191q273 0 402 144q22 24 22 66q0 8 -29 50t-29 64q66 71 89 106q23 36 34 36q25 0 25 -37l-17 -151q-1 -40 17 -87t71 -147q22 -28 49 -28z" />
<glyph unicode="&#x62a;" horiz-adv-x="492" arabic-form="initial" d="M99 899l2 63q0 34 -3 50t-4 15q20 27 62 69t60 42q13 0 24 -33t11 -45t-2 -17q20 25 60 66t60 41q13 0 24 -33t11 -48t-4 -18t-7 4q-9 23 -17 23t-20 -16.5t-17 -18.5q-14 -4 -49 -68t-38 -64q-2 1 -2 9l4 68q0 20 -3 36t-4 15q-1 0 -3 -1q-2 -2 -4 5q-9 23 -17 23 t-20 -16.5t-21 -19.5t-44.5 -67t-38.5 -64zM429 282q0 -16 -6 -44q-23 -104 -93 -175q-191 -63 -245 -63h-105v82h98q151 0 233 64t82 149q0 34 -17 56q-17 21 -85 75q-67 54 -91 84t-24 63q0 79 28 79q9 -4 36 -25q91 -71 142 -138q47 -92 47 -207z" />
<glyph unicode="&#x62a;" horiz-adv-x="522" arabic-form="medial" d="M124 835l2 80q0 48 -7 48q21 27 62 69t61 41q12 -1 24 -33t11 -44q0 -12 -2 -16q19 25 60 65q40 40 59 40q13 -1 24 -33t11 -47q-1 -15 -5 -18t-6 4q-9 23 -17 23t-20 -16t-21 -20t-44.5 -67.5t-38.5 -63.5q-2 1 -2 8l4 69q0 20 -7 51q-4 -3 -7 4q-9 23 -17 23t-20 -16 t-21 -20t-44.5 -67.5t-38.5 -63.5zM458 82h89v-82q-79 0 -91 10t-29 26t-51 38t-43 28q-21 22 -35 34t-29 13q-17 1 -57 -43t-90 -75t-134 -31h-8v82h38q80 0 159 88q30 34 52 89t22 111t-18 121l-42 147q0 11 7 11q6 -4 26 -26q20 -23 36 -31q15 -8 52 -28q26 -23 26 -83 l-22 -195q0 -90 71 -163q41 -41 71 -41z" />
<glyph unicode="&#x62b;" horiz-adv-x="1336" arabic-form="final" d="M644 575l2 65q0 32 -3 48t-4 15q19 27 61 69t62 42q12 0 23 -33t11 -45t-2 -17q20 25 60 66t60 41q13 0 24 -33t11 -48q-1 -15 -5 -18t-6 4q-10 23 -18 23t-19.5 -16.5t-16.5 -18.5q-14 -4 -49 -68t-38 -64q-2 1 -2 9l4 68q0 20 -3 36t-4 15q-1 0 -3 -1q-2 -2 -4 5 q-9 23 -17 23t-20 -16.5t-21 -19.5t-44.5 -67t-38.5 -64zM931 1072q13 0 24 -32t11 -48q0 -15 -4 -18t-7 4q-9 23 -17 23t-20 -16.5t-21 -20.5t-44.5 -67t-38.5 -63q-2 1 -2 8l4 69q0 20 -7 51q19 26 61 68t61 42zM1314 82h51v-82h-112q-58 10 -92 56q-19 25 -37 73t-30 48 q-12 1 -72 -59t-159 -104q-100 -44 -254 -45q-154 0 -238 13q-246 37 -246 192q0 126 87 275q42 72 170 239q76 154 87 154q5 0 5 -15t-5 -45q8 -10 8 -26q-1 -16 -11 -30t-64 -78q-225 -265 -225 -391q0 -191 503 -191q273 0 402 144q22 24 22 66q0 8 -29 50t-29 64 q66 71 89 106q23 36 34 36q25 0 25 -37l-17 -151q-1 -40 17 -87t71 -147q22 -28 49 -28z" />
<glyph unicode="&#x62b;" horiz-adv-x="422" arabic-form="initial" d="M14 805l2 80q0 48 -7 48q19 27 61 69t62 41q12 -1 23 -33t11 -45t-2 -17q20 26 60 66q40 41 60 41q13 -1 24 -33t11 -47q-1 -15 -5 -18t-6 3q-9 24 -17 24t-19.5 -16t-21.5 -20t-45 -67.5t-38 -63.5q-2 1 -2 8l4 69q0 20 -7 51q-4 -3 -7 3q-9 24 -17 24t-20 -16t-21 -20 t-44.5 -67.5t-38.5 -63.5zM191 1078l2 81q0 48 -7 48q20 27 62 69t61 41q12 -1 23 -33t11 -47t-4 -18t-7 3q-9 24 -17 24t-20 -16t-21 -20t-44.5 -68t-38.5 -64zM359 283q0 -17 -6 -44q-23 -104 -94 -175q-191 -63 -244 -63h-35v81h27q152 0 234 65t82 148q0 35 -17 57 q-18 22 -86 75t-91 83t-23 63q0 79 28 79q8 -3 35 -24q92 -71 143 -138q47 -92 47 -207z" />
<glyph unicode="&#x62b;" horiz-adv-x="551" arabic-form="medial" d="M251 1067q13 -1 24 -33t11 -44t-2 -17q20 25 60 66q40 40 60 40q12 -1 24 -33t11 -47t-5 -18t-7 3q-9 24 -17 24t-19 -16t-21 -20t-45 -68t-38 -64q-2 2 -2 9l3 69q0 51 -7 51q-4 -3 -6 3q-9 24 -17 24t-20 -16t-21 -20t-44.5 -68t-38.5 -64q-2 2 -2 9l4 69q0 20 -7 51 q19 27 61 69t61 41zM458 1369q13 0 24 -33q11 -34 11 -48t-5 -18q-4 -2 -6 4q-9 24 -17 24t-20 -16t-21 -20t-44.5 -68t-38.5 -64q-2 1 -2 9l4 69q0 21 -7 50q20 27 62 69t60 42zM463 82h109v-82q-92 0 -107 13q-11 4 -34 21q-15 18 -49 40t-44 28q-20 22 -34 34t-30 13 t-56 -43t-92 -75q-50 -31 -133 -31h-8v82h38q80 0 159 88q30 34 52 89t22 111t-18 121l-42 147q0 11 7 11q7 -4 27 -26q20 -23 35 -31t52 -28q26 -23 26 -83l-22 -195q0 -90 71 -163q41 -41 71 -41z" />
<glyph unicode="&#x62c;" horiz-adv-x="1295" arabic-form="final" d="M1288 584q10 0 12 -68q1 -68 -34 -85l-199 -43q-76 -18 -97 -28q-20 -10 -88 -66t-100 -75l81 -137h464v-81h-369q-94 0 -104 -1t-70 13q-18 8 -45 36.5t-59 55.5q-125 -106 -251 -287t-191 -301q-65 -121 -65 -153t11 -60q42 -109 170 -109q64 0 302 62t361 101 q16 6 76 46t78 40q42 0 42 -56t-24 -90q-6 -10 -12 -10q-12 7 -25 13l-504 -138q-193 -52 -400 -75q-62 34 -93 141q-7 27 -30 118q0 176 191 436q14 19 148 185t360 418q-183 0 -292 -17t-117 -17t-8 4q1 63 23 83t131 32t245 12q195 32 249 32q52 23 104 23q111 46 129 46 zM818 -296q13 0 24 -33t11 -47t-5 -19q-4 -2 -7 4q-9 24 -17 24t-19 -17t-21 -20t-45 -67t-38 -64q-2 1 -2 9l3 69q0 20 -3 35.5t-4 14.5q21 27 62 69t61 42z" />
<glyph unicode="&#x62c;" horiz-adv-x="1069" arabic-form="initial" d="M329 -640l2 65q0 32 -3 48t-4 15q20 27 62 69t61 42q11 0 23 -33t12 -48t-4 -18t-8 4q-9 23 -17 23t-20 -16.5t-21 -19.5t-44.5 -67t-38.5 -64zM-23 82l334 -1q342 0 644 133q-148 138 -342 178q-165 33 -280 33t-149 -7t-43 -7q-23 0 -31 62q-1 4 -22.5 25.5t-21.5 27.5 t9 6q362 0 597 -71l150 -57q38 -13 108 -40t76 -60v-7l-12 -58q0 -68 -24 -99t-99 -56t-205 -56t-216 -31t-114 1l-127 2h-232v82z" />
<glyph unicode="&#x62c;" horiz-adv-x="1057" arabic-form="medial" d="M479 -410q13 0 24 -33t11 -47t-5 -19q-4 -2 -6 4q-9 24 -17 24t-20 -17t-22 -20t-44.5 -67t-37.5 -64q-2 1 -2 9l4 69q0 21 -7 50q20 27 61 69t61 42zM1094 82v-82h-42q-42 0 -45 -1q-123 -1 -198 77l-151 -43q-120 -35 -287 -35q-40 0 -101 1l-63 1h-232v82h219 q117 0 180 4q309 18 577 134q-143 138 -323 176t-326 38l-162 -15h-4q-22 0 -28 56q-1 11 -22.5 30t-21.5 23q1 4 8 4q208 0 336 -10t261 -52q129 -49 270 -99q69 -27 75 -61q1 -6 1 -12l-5 -52q0 -56 -69 -164h153z" />
<glyph unicode="&#x62d;" horiz-adv-x="1294" arabic-form="final" d="M1288 584q10 0 12 -68q1 -68 -34 -85l-199 -43q-76 -18 -97 -28q-20 -10 -88 -66t-100 -75l81 -137h464v-81h-369q-94 0 -104 -1t-70 13q-18 8 -45 36.5t-59 55.5q-125 -106 -251 -287t-191 -301q-65 -121 -65 -153t11 -60q42 -109 170 -109q64 0 302 62t361 101 q16 6 76 46t78 40q42 0 42 -56t-24 -90q-6 -10 -12 -10q-12 7 -25 13l-504 -138q-193 -52 -400 -75q-62 34 -93 141q-7 27 -30 118q0 176 191 436q14 19 148 185t360 418q-183 0 -292 -17t-117 -17t-8 4q1 63 23 83t131 32t245 12q195 32 249 32q52 23 104 23q111 46 129 46 z" />
<glyph unicode="&#x62d;" horiz-adv-x="1069" arabic-form="initial" d="M196 82l115 -1q342 0 644 133q-148 137 -342 178q-165 33 -280 33.5t-149 -7.5t-43 -8q-21 0 -25 22q-1 8 -6 41q-1 4 -22.5 25.5t-21.5 27.5t9 6q356 0 597 -71l150 -57q38 -13 108 -40t76 -60v-8l-12 -57q0 -68 -24 -99q-24 -30 -99 -56t-205 -56t-216 -31 q-86 0 -114 1l-127 2h-232v82h219z" />
<glyph unicode="&#x62d;" horiz-adv-x="1054" arabic-form="medial" d="M1094 82v-82h-87q-123 -1 -198 77l-151 -44q-120 -34 -287 -34q-40 0 -101 1h-295v82h219q117 0 180 4q309 19 577 135q-143 137 -323 175t-326 38l-162 -15h-4q-22 0 -28 56q-1 12 -22.5 31t-21.5 23q1 3 108 3q299 0 497 -61q51 -19 121 -45t144 -54t80 -61q1 -6 1 -7 l-5 -58q0 -55 -69 -164h153z" />
<glyph unicode="&#x62e;" horiz-adv-x="1295" arabic-form="final" d="M1288 584q10 0 12 -68q1 -68 -34 -85l-199 -43q-76 -18 -97 -28q-20 -10 -88 -66t-100 -75l81 -137h464v-81h-369q-94 0 -104 -1t-70 13q-18 8 -45 36.5t-59 55.5q-125 -106 -251 -287t-191 -301q-65 -121 -65 -153t11 -60q42 -109 170 -109q64 0 302 62t361 101 q16 6 76 46t78 40q42 0 42 -56t-24 -90q-6 -10 -12 -10q-12 7 -25 13l-504 -138q-193 -52 -400 -75q-62 34 -93 141q-7 27 -30 118q0 176 191 436q14 19 148 185t360 418q-183 0 -292 -17t-117 -17t-8 4q1 63 23 83t131 32t245 12q195 32 249 32q52 23 104 23q111 46 129 46 zM792 994q12 0 24 -33t11 -47q0 -14 -5 -19q-4 -2 -7 4q-9 24 -17 24t-19 -17t-21 -20t-45.5 -67t-37.5 -64q-2 1 -2 9l3 69q0 20 -3 35.5t-4 14.5q21 27 62 69t61 42z" />
<glyph unicode="&#x62e;" horiz-adv-x="1069" arabic-form="initial" d="M248 842l1 81q0 48 -7 48q21 27 62 69t61 41q11 -1 23 -33t12 -47t-4 -18t-8 3q-9 24 -17 24t-20 -16t-21 -20t-44.5 -68t-37.5 -64zM-23 82l334 -1q342 0 644 133q-148 138 -342 178q-165 33 -280 33.5t-149 -7.5t-43 -8q-23 0 -31 63q-1 4 -22.5 25.5t-21.5 27.5t9 6 q356 0 597 -71l150 -57q38 -13 108 -40t76 -60v-7l-12 -58q0 -68 -24 -99q-24 -30 -99 -56t-205 -56t-216 -31q-86 0 -114 1l-127 2h-232v82z" />
<glyph unicode="&#x62e;" horiz-adv-x="1066" arabic-form="medial" d="M385 1078q13 0 24 -32t11 -48q0 -15 -4 -18t-7 4q-9 23 -17 23t-20 -16.5t-21 -20.5t-44.5 -67t-38.5 -63q-2 1 -2 8l4 69q0 20 -7 51q19 26 61 68t61 42zM1103 0l-88 -1q-123 -1 -197 77l-151 -43q-121 -35 -288 -35q-39 0 -101 1l-63 1h-232v82h219q117 0 181 4 q308 18 576 134q-143 138 -323 176t-325 38l-163 -15h-4q-21 0 -27 56q-2 11 -23 30t-21 23q1 4 8 4q207 0 335 -10t261 -52q129 -49 270 -99q70 -27 76 -61q1 -6 1 -12l-6 -52q0 -56 -69 -164h154v-82z" />
<glyph unicode="&#x62f;" horiz-adv-x="867" arabic-form="final" d="M758 197q0 139 -102 227q-50 41 -70 56t-59 28q-7 3 -44 -13t-43 -16q-6 -1 -7 7q0 8 13 35q12 27 14 35t-9 34t-11 36t11 14q227 -56 333 -198q42 -56 42 -110t-52 -250h126v-82h-33l-104 15q-12 -16 -26 -49q-33 -42 -62.5 -51.5t-88.5 -10.5l-168 -4q-111 -2 -156 -18 t-78 -39q-33 -24 -46 -24t-13 6q44 79 44 101q0 60 59 60h14l214 -16q138 0 220 62t82 165z" />
<glyph unicode="&#x630;" horiz-adv-x="871" arabic-form="final" d="M491 1119q11 0 23 -33t12 -48t-4 -18t-8 4q-9 23 -17 23t-19.5 -16.5t-21.5 -19.5t-44.5 -67t-37.5 -64q-2 1 -2 9l3 68q0 20 -3 36t-4 15q21 27 62 69t61 42zM125 -176q44 88 44 102q0 60 59 60h14l214 -17q138 0 220 63t82 165q0 139 -102 226q-50 42 -70 57t-59 28 q-7 2 -44 -13.5t-43 -15.5q-6 -1 -7 7q0 8 13 35q12 27 14 35t-9 34t-11 36t11 14q227 -56 333 -199q42 -55 42 -109t-52 -250h126v-82h-33l-104 15q-12 -17 -26 -49q-33 -42 -62.5 -51.5t-88.5 -10.5l-168 -4q-111 -2 -156 -18t-78 -40t-46 -24t-13 6z" />
<glyph unicode="&#x631;" horiz-adv-x="820" arabic-form="final" d="M857 82v-82h-110q0 -96 -64 -147q-39 -42 -58 -63q-109 -116 -444 -238q-119 -44 -193 -120q-28 -28 -38 -28t-10 4v23q0 18 28 73q26 55 51 69q8 24 158 61q41 11 52 13q52 21 122 55q338 165 338 280q-1 46 -17 86t-34 80l-32 71q-11 24 -11 67q21 67 61 128 q14 33 19 40q22 9 50 -184l14 -136q4 -35 8 -52h110z" />
<glyph unicode="&#x632;" horiz-adv-x="814" arabic-form="final" d="M497 643l2 65q0 32 -3 48t-4 15q20 27 62 69t61 42q12 0 23 -33t11 -48t-4 -18t-7 4q-9 23 -17 23t-20 -16.5t-21 -19.5t-44.5 -67t-38.5 -64zM857 82v-82h-110q0 -96 -64 -147q-39 -42 -58 -63q-109 -117 -444 -239q-115 -41 -193 -120q-28 -28 -38 -28t-10 4.5v22.5 t27 73t52 70q7 21 158 61q41 11 52 13q52 21 122 55q338 165 338 280q-1 46 -17 86t-34 80l-32 71q-11 24 -11 67q21 67 61 128q14 33 19 39q18 8 38 -104q4 -23 12 -79l14 -136q4 -36 8 -52h110z" />
<glyph unicode="&#x633;" horiz-adv-x="1297" arabic-form="final" d="M1079 70q73 0 73 111q0 17 -11 37t-11 60t12.5 48t39.5 26l18 36q4 9 15 32q20 0 20 -34t-5 -69l-9 -74q0 -46 20 -100t64 -54h28l3 -89l-76 7q-26 2 -35 25q-15 40 -30 57q-52 -48 -152 -124q-34 -21 -73 -21q-14 0 -36 54t-52 103q-21 -57 -72 -164q-18 -31 -39 -31 t-43 40t-43 68q-13 -10 -50 -140q-14 -48 -44 -78q-96 -96 -239 -96q-101 0 -164 72t-63 182q0 256 26 321q11 29 51 119t50 89q6 0 6 -35t-60 -222q-21 -75 -21 -147q0 -139 74 -221t210 -83q120 11 120 140q0 41 -11 94q-17 57 -46 173q6 26 30 72t60 77q14 -30 51 -196 q29 -99 87 -99q29 0 66.5 46t37.5 72t-13 46t-13 31q0 22 100 62q21 -6 21 -37l-3 -54q0 -57 40.5 -94.5t90.5 -37.5z" />
<glyph unicode="&#x633;" horiz-adv-x="951" arabic-form="initial" d="M796 282q0 25 2 40q16 14 75 91l16 12q0 -29 -7 -58l-22 -85l-5 -88q-3 -58 -38 -76q-16 -9 -58 -23t-76 -37t-57 -23h-6q-8 0 -15 16l-46 97q-87 -108 -117 -129q-183 -79 -213 -79q-29 0 -33 8t-4 34q0 58 -46 105q-84 -92 -116 -92l-34 5h-14v82h23q100 0 128 59 q17 36 17 155q0 37 27 73t53 36q26 -1 32 -15t13 -43q-52 -173 -52 -223q0 -49 36 -59q14 -4 37 -4l94 4q101 45 101 136q0 34 -19 103q5 11 62 55q4 7 18 39t18 32q4 -2 4 -16v-102q0 -61 30 -124t75 -63q47 0 85 24t38 60q-6 48 -6 73z" />
<glyph unicode="&#x633;" horiz-adv-x="938" arabic-form="medial" d="M264 355l-27 -169q0 -72 23 -93.5t81 -21.5h38q117 52 117 157q0 34 -12 76q8 17 14 27t35 32l27 49q11 19 16 19t5 -17v-102q-1 -60 27 -116t73 -56t81 18t37 50q-7 42 -7 72t3 45q15 12 43 44l40 45q9 5 18 11q0 -33 -13 -81t-15 -63l-6 -52q-2 -19 -2 -27 q0 -56 36 -90q7 -7 21 -22q11 -8 40 -8h15v-82h-30q-21 0 -29 10t-39 77q-10 -10 -18 -10t-36 16.5t-46 16.5t-32 -6t-52 -27q-38 -22 -58 -22q-20 -1 -34 29t-51 105q-90 -111 -110 -128q-19 -17 -61 -35t-73 -39q-31 -20 -61 -20t-32 25q-6 46 -49 87q-72 -79 -154 -79 h-23v82h38q53 0 110 70.5t57 209.5q25 32 53 48q19 -32 22 -55z" />
<glyph unicode="&#x634;" horiz-adv-x="1301" arabic-form="final" d="M785 533l2 65q0 32 -3 48t-4 15q21 27 62 69t61 42q11 0 23 -33t12 -45t-2 -17q19 26 60 67q40 40 59 40q13 0 24 -33t11 -47t-5 -19q-4 -2 -6 4q-9 24 -17 24t-20 -16.5t-21 -20.5t-44.5 -67.5t-38.5 -63.5q-2 2 -2 9l4 69q0 21 -7 50q-4 -2 -7 4q-9 24 -17 24 t-20 -16.5t-21 -20.5t-44.5 -67.5t-38.5 -63.5zM1089 1073q11 -1 23 -33t12 -47t-4 -18t-8 3q-9 24 -17 24t-19.5 -16t-21.5 -20t-44.5 -67.5t-37.5 -63.5q-2 1 -2 8l3 69q0 51 -7 51q21 27 62 69t61 41zM1079 63q73 0 73 111q0 18 -11 38t-11 58q0 40 12.5 48.5t39.5 26.5 l18 36q4 9 15 32q20 1 20 -33t-5 -70l-9 -74q0 -46 20 -100t64 -54h28v-82h-73q-25 0 -35 25q-15 40 -30 57q-52 -48 -152 -124q-34 -21 -73 -21q-14 0 -36 54t-52 103q-21 -57 -72 -164q-18 -31 -39 -31q-21 -1 -43 39t-43 69q-13 -10 -50 -140q-14 -48 -44 -78 q-96 -96 -239 -96q-101 -1 -164 71t-63 182q0 256 26 322q11 28 51 118t50 90q6 0 6 -35t-60 -222q-21 -75 -21 -147q0 -140 74 -222t210 -82q120 11 120 140q0 41 -11 94q-17 57 -46 173q6 27 30 73t60 76q14 -30 51 -196q29 -99 87 -99q29 0 66.5 46t37.5 72q0 27 -13 47 t-13 30q0 22 100 62q21 -6 21 -37l-3 -54q0 -57 40.5 -94.5t90.5 -37.5z" />
<glyph unicode="&#x634;" horiz-adv-x="960" arabic-form="initial" d="M558 936q13 0 24 -32t11 -45q0 -12 -2 -17q20 25 60 66q40 40 60 40q11 0 23 -32t12 -48q0 -15 -4 -18t-8 3q-9 24 -17 24t-19.5 -16.5t-21.5 -20.5t-44.5 -67t-37.5 -63q-2 1 -2 8l3 69q0 51 -7 51q-4 -3 -6 3q-9 24 -17 24t-20 -16.5t-21 -20.5t-44.5 -67t-38.5 -63 q-2 1 -2 8l4 69q0 20 -7 51q20 26 62 68t60 42zM726 1232q12 0 24 -33t11 -47q0 -14 -5 -19q-4 -2 -7 4q-9 24 -17 24t-19 -16.5t-21 -20.5t-45 -67.5t-38 -63.5q-2 2 -2 9l3 69q0 20 -3 35.5t-4 14.5q21 27 62 69t61 42zM804 280q0 26 3 42q15 14 74 91l16 12q0 -29 -7 -58 l-21 -85l-5 -88q-3 -58 -38 -76q-16 -9 -58 -23t-76 -37t-58 -23h-6q-7 0 -15 16l-46 97q-87 -108 -117 -129q-183 -79 -212 -79q-30 0 -34 8t-4 34q0 60 -46 105q-84 -92 -116 -92l-34 5h-13v82h22q100 0 128 59q17 36 17 155q0 37 28 73t53 36q26 -1 32 -15t12 -43 q-5 -20 -28 -96.5t-23 -126.5t36 -59q14 -4 36 -4l94 4q101 45 101 136q0 34 -19 103q5 11 62 55q4 7 18 39t18 32q4 -2 4 -16v-102q0 -61 30 -124t75 -63q47 0 85 24t38 60q-6 45 -6 71z" />
<glyph unicode="&#x634;" horiz-adv-x="941" arabic-form="medial" d="M582 676l2 66q0 67 -6 63q-6 -3 -8 3q-9 24 -17 24t-19.5 -16t-21.5 -20t-44.5 -68t-37.5 -64q-2 2 -2 9l3 69q0 20 -3 35.5t-4 14.5q21 28 62 70t61 41q11 0 23 -33t12 -45t-2 -17q19 26 60 67q40 40 60 40q12 0 23 -33q11 -34 11 -48t-4 -18q-4 -2 -7 4q-9 24 -17 24 t-20 -16t-21 -20t-44.5 -68t-38.5 -64zM733 1231q13 0 24 -33t11 -48t-4 -18t-7 4q-9 23 -17 23t-20 -16.5t-17 -18.5q-14 -4 -49 -68t-38 -64q-2 1 -2 8l4 69q0 21 -7 51q19 27 61 69t61 42zM264 355l-27 -169q0 -72 23 -93.5t81 -21.5h38q117 52 117 157q0 34 -12 76 q8 17 14 27t35 32l27 49q11 19 16 19t5 -17v-102q-1 -60 27 -116t73 -56t81 18t37 50q-7 42 -7 72t3 45q15 12 43 44l40 45q9 5 18 11q0 -33 -13 -81t-15 -63l-6 -52q-2 -19 -2 -27q0 -56 36 -90q7 -7 21 -22q11 -8 40 -8h15v-82h-30q-21 0 -29 10t-39 77q-10 -10 -18 -10 t-36 16.5t-46 16.5t-32 -6t-52 -27q-38 -22 -58 -22q-20 -1 -34 29t-51 105q-90 -111 -110 -128q-19 -17 -61 -35t-73 -39q-31 -20 -61 -20t-32 25q-6 46 -49 87q-72 -79 -154 -79h-23v82h38q53 0 110 70.5t57 209.5q25 32 53 48q19 -32 22 -55z" />
<glyph unicode="&#x635;" horiz-adv-x="1542" arabic-form="final" d="M1411 366q0 79 -64 118t-134 39t-119 -62.5t-127 -202.5t-125 -202q234 0 342 39q36 14 75 41q112 78 143 176q9 30 9 54zM1549 516q0 -150 -273 -434h304v-82h-25l-63 -5q-29 -1 -49 -1q-127 0 -215 55q-168 -67 -268 -86t-269 -19q-17 -16 -50 -76t-50 -79 q-87 -96 -239 -96q-101 -1 -164 71t-63 182q0 256 26 322q11 28 51 118t50 90q6 0 6 -34t-60 -223q-21 -74 -21 -147q0 -138 74 -221t210 -83q120 11 120 140q0 41 -11 94q-17 58 -46 174q6 26 30 72t60 76q9 -20 62 -247q25 -71 75 -71q16 0 62 115t73 169q86 171 241 281 q118 84 240 84q74 -1 128 -35t54 -104z" />
<glyph unicode="&#x635;" horiz-adv-x="1263" arabic-form="initial" d="M1103 404q0 112 -124 147q-39 10 -87 10t-98 -60q-50 -61 -143 -215q-94 -154 -166 -249q214 0 332 82q18 14 54 41q148 100 208 190q24 37 24 54zM-13 0h-5v82h28q59 0 93 56t47 126q0 2 9 64q58 37 75 61q38 84 55 84q6 0 9 -11q-44 -168 -44 -230q0 -106 94 -174 q33 -24 54 -24q14 0 64 109t74 152q90 164 242 275q116 85 236 85q74 -1 128 -41t54 -111q0 -145 -159 -305q-84 -84 -188 -126t-168 -65q-163 -59 -273 -59t-157 26q-45 26 -81 66t-61 41q-84 -81 -126 -81z" />
<glyph unicode="&#x635;" horiz-adv-x="1209" arabic-form="medial" d="M1103 404q0 112 -123 147q-39 10 -87 10t-110 -75q-38 -46 -132 -200t-166 -249q215 0 332 82q18 14 55 41q147 100 207 190q24 37 24 54zM1201 516q0 -146 -272 -434h313v-82h-35l-95 -2q-146 0 -242 38q-191 -77 -335 -86q-37 -2 -135 -2t-145 24t-83 62t-59 39 q-84 -65 -130 -72v81q131 1 183 118q8 18 33 95t51 127q26 51 39 51q7 0 10 -11q-44 -168 -44 -230q0 -109 94 -192q33 -31 51 -31q18 1 64 115t73 167q86 170 242 280q117 84 240 84q74 -1 128 -35t54 -104zM-17 0v1q-5 -1 -9 -1h9z" />
<glyph unicode="&#x636;" horiz-adv-x="1549" arabic-form="final" d="M1222 966l2 65q0 32 -3 48t-4 15q21 27 62 69t61 42q12 0 24 -33t11 -48t-5 -18t-7 4q-9 23 -17 23t-20 -16.5t-21 -19.5t-44.5 -67t-38.5 -64zM1411 366q0 79 -64 118t-134 39t-119 -62.5t-127 -202.5t-125 -202q234 0 342 39q36 14 73 40q114 78 145 177q9 30 9 54z M1549 516q0 -150 -273 -434h304v-82h-25l-63 -5q-29 -1 -49 -1q-127 0 -215 55q-168 -67 -268 -86t-269 -19q-17 -16 -50 -76t-50 -79q-87 -96 -239 -96q-101 -1 -164 71t-63 182q0 256 26 322q11 28 51 118t50 90q6 0 6 -34t-60 -223q-21 -74 -21 -147q0 -138 74 -221 t210 -83q120 11 120 140q0 41 -11 94q-17 58 -46 174q6 26 30 72t60 76q9 -20 62 -247q25 -71 75 -71q16 0 62 115t73 169q86 171 241 281q118 84 240 84q74 -1 128 -35t54 -104z" />
<glyph unicode="&#x636;" horiz-adv-x="1271" arabic-form="initial" d="M911 976l1 65q0 32 -3 48t-4 15q21 27 62 69t61 42q12 0 24 -33t11 -48t-5 -18t-7 4q-9 23 -17 23t-19 -16.5t-21 -19.5t-45.5 -67t-37.5 -64zM1111 404q0 112 -123 147q-39 10 -87 10t-98 -60q-50 -61 -144 -215t-166 -249q215 0 332 82q18 14 55 41q147 100 207 191 q24 36 24 53zM-4 0h-5v82h27q60 0 94 56t46 126q0 2 9 64q58 37 75 61q38 84 55 84q7 0 9 -11q-43 -168 -43 -230q0 -106 94 -174q32 -24 53 -24q16 0 66 109t72 152q90 164 224 262t254 98q74 -1 128 -41t54 -111q0 -145 -159 -305q-83 -84 -187 -126t-169 -65 q-163 -59 -273 -59t-157 26q-45 26 -81 66t-60 41q-87 -81 -126 -81z" />
<glyph unicode="&#x636;" horiz-adv-x="1218" arabic-form="medial" d="M940 1002l1 66q0 32 -3 47.5t-4 14.5q21 27 62 69t61 42q11 0 23 -33q12 -34 12 -48t-4 -18t-8 4q-9 23 -17 22.5t-20 -16.5t-21 -19t-44.5 -67t-37.5 -64zM1120 404q0 112 -123 146q-39 11 -87 11q-48 -1 -98 -61t-144 -214t-166 -250q214 0 332 83q18 14 55 41 q147 100 207 190q24 37 24 54zM1217 516q0 -149 -272 -434h314v-82h-36l-95 -2q-146 0 -241 38q-191 -77 -336 -86q-35 -2 -134 -2t-145 24t-82 62t-61 39q-84 -65 -129 -72v81q132 1 183 117q8 19 31 93t36 98q12 23 28 53t28 30q6 0 9 -11q-43 -168 -43 -230 q0 -109 93 -192q35 -31 52 -31q17 1 63 115t74 167q86 170 241 280q118 84 240 84q74 -1 128 -35t54 -104zM0 0v1q-5 -1 -10 -1h10z" />
<glyph unicode="&#x637;" horiz-adv-x="1132" arabic-form="final" d="M794 488q-56 0 -122 -49t-295 -303q157 15 345 58t284 102q-30 34 -68 92t-63 79q-26 21 -81 21zM214 81h33q4 1 6 1q31 0 95 88q108 148 155 201q123 139 264 223q22 13 31 37t20 24q43 0 56 -30l9 -40q23 -23 67 -73t87 -88q43 -37 43 -56q0 -63 -36 -125 q-41 -53 -117 -161h233v-82h-267q-30 0 -40 52t-22 72q-55 -9 -183 -45t-200 -53q-70 -17 -125 -17q-34 -5 -66.5 -52t-48.5 -47q-22 -3 -23 31l2 44q1 15 -4 15t-8 1h-7q-3 0 -24 -1q-17 0 -17 44q-2 11 -2 20q0 18 17 18l31 -3h7q12 2 34 2zM429 385v22q0 88 -9 171 q-18 108 -36 244t-18 145q22 63 36 87t32 36q11 -130 53 -452l17 -135q2 -6 2 -23t-35 -62t-39 -47q-3 2 -3 14zM185 -59v3v-3z" />
<glyph unicode="&#x637;" horiz-adv-x="1012" arabic-form="initial" d="M654 488q-56 0 -122 -49t-295 -303q157 15 345 58t284 102q-30 34 -68 92t-63 79q-26 21 -81 21zM40 0h-56v82h130q30 0 94 88q108 148 155 201q123 139 265 223q21 13 30 37t20 24q43 0 56 -30l9 -40q22 -23 64 -70q43 -41 124 -127q18 -20 18 -40t-13 -48 q-57 -118 -258 -169q-117 -37 -352 -101q-87 -21 -143 -21q-34 -5 -66.5 -52t-48.5 -47q-22 -3 -23 31l2 44q1 15 -7 15zM290 385v22q0 88 -10 171q-18 108 -36 244t-18 145q22 63 36 87t33 36q9 -105 52 -452l17 -135q2 -6 2 -23t-41 -73q-11 -11 -21 -23t-12 -13 q-2 2 -2 14zM45 -59v3v-3z" />
<glyph unicode="&#x637;" horiz-adv-x="990" arabic-form="medial" d="M652 488q-56 0 -122 -49t-295 -303q156 15 344 58t284 102q-29 34 -67 92t-63 79q-26 21 -81 21zM1018 0h-267q-30 0 -40 52t-22 72q-55 -9 -183 -45t-200 -53q-70 -17 -125 -17q-35 -5 -67 -52t-48 -47q-22 -3 -23 31l2 44q0 15 -7 15h-56v82h129q31 0 95 88 q108 148 155 201q123 139 264 223q22 13 31 37t20 24q43 0 56 -30l9 -40q21 -23 66 -73t88 -88q43 -37 43 -56q0 -60 -36 -125q-41 -53 -118 -161h234v-82zM287 385v22q0 88 -9 171q-18 108 -36 244t-18 145q22 63 36 87t32 36q11 -136 53 -452l17 -135q0 -6 1 -23t-34 -62 t-40 -47q-2 2 -2 14zM43 -59v3v-3z" />
<glyph unicode="&#x638;" horiz-adv-x="1126" arabic-form="final" d="M740 1135q13 0 24 -33t11 -48q-1 -15 -5 -18t-6 4q-10 23 -18 23t-19.5 -16.5t-16.5 -18.5q-14 -4 -49 -68t-38 -64q-2 1 -2 9l4 68q0 20 -3.5 36t-4.5 15q21 27 62 69t61 42zM794 488q-56 0 -122 -49t-295 -303q157 15 345 58t284 102q-30 34 -68 92t-63 79 q-26 21 -81 21zM214 81h33q4 1 6 1q31 0 95 88q108 148 155 201q123 139 264 223q22 13 31 37t20 24q43 0 56 -30l9 -40q23 -23 67 -73t87 -88q43 -37 43 -56q0 -63 -36 -125q-41 -53 -117 -161h233v-82h-267q-30 0 -40 52t-22 72q-55 -9 -183 -45t-200 -53 q-70 -17 -125 -17q-34 -5 -66.5 -52t-48.5 -47q-22 -3 -23 31l2 44q1 15 -4 15t-8 1h-7q-3 0 -24 -1q-17 0 -17 44q-2 11 -2 20q0 18 17 18l31 -3h7q12 2 34 2zM429 385v22q0 88 -9 171q-18 108 -36 244t-18 145q22 63 36 87t32 36q11 -136 53 -452l17 -135q2 -5 2 -23 t-35 -62t-39 -47q-3 2 -3 14zM185 -59v3v-3z" />
<glyph unicode="&#x638;" horiz-adv-x="1003" arabic-form="initial" d="M475 895l2 65q0 32 -3 48t-4 15q20 27 62 69t61 42q12 0 23 -33t11 -48q-1 -15 -5 -18t-6 4q-9 23 -17 23t-20 -16.5t-21 -19.5t-44.5 -67t-38.5 -64zM646 476q-56 0 -122 -49t-295 -303q156 15 344 58t284 103q-29 33 -67 91t-63 80q-26 20 -81 20zM32 -11h-57v81h130 q31 0 95 88q107 148 155 202q123 138 264 223q23 13 31 37t20 23q43 0 56 -30l9 -39q21 -23 64 -70q43 -42 124 -127q18 -22 18 -41t-14 -48q-56 -117 -257 -169q-117 -36 -353 -101q-86 -21 -142 -21q-35 -4 -67 -51t-48 -47q-22 -3 -23 31l2 43q0 16 -7 16zM281 373v22 q1 88 -13 184q-50 352 -50 377q22 63 36 87t32 36q11 -133 53 -452l17 -135q0 -6 1 -24t-34 -62q-35 -46 -40 -46q-2 2 -2 13zM37 -70v3v-3z" />
<glyph unicode="&#x638;" horiz-adv-x="983" arabic-form="medial" d="M502 932l2 65q0 32 -3 48t-4 15q19 27 61 69t62 42q12 0 23 -33t11 -48t-4 -18t-7 4q-9 23 -17 23t-20 -16.5t-21 -19.5t-44.5 -67t-38.5 -64zM652 488q-56 0 -122 -49t-295 -303q156 15 344 58t284 102q-29 34 -67 92t-63 79q-26 21 -81 21zM1018 0h-267q-30 0 -40 52 t-22 72q-55 -9 -242 -62t-266 -53q-35 -5 -67 -52t-48 -47q-22 -3 -23 31l2 44q0 15 -7 15h-56v82h129q31 0 95 87q107 149 155 202q123 138 264 223q22 13 31 37t20 24q43 0 56 -30l9 -40q21 -23 66 -73t88 -88q43 -37 43 -56q0 -59 -36 -126q-41 -52 -118 -160h234v-82z M287 385v22q0 88 -9 171q-18 108 -36 244t-18 145q22 63 36 87t32 36q11 -136 53 -452l17 -135q0 -5 1 -23t-35 -64t-39 -45q-2 2 -2 14zM43 -59v3v-3z" />
<glyph unicode="&#x639;" horiz-adv-x="1054" arabic-form="final" d="M940 445l-357 -24l184 -218zM1082 82v-82l-139 -1q-20 0 -49.5 -10t-51.5 -10q-22 -1 -34 19q-14 20 -88 133q-158 -132 -309 -345q-34 -49 -96 -143q-62 -95 -93 -181t-31 -106q0 -42 69 -122q19 -13 38 -25t49 -12q117 0 630 138q20 9 70 45q49 36 65 36t28 -4 q40 -12 40 -48t-18 -67t-24 -31q-13 7 -26 13l-504 -138q-89 -24 -208 -46q-51 -1 -152 -7q-62 34 -93 140q-7 27 -30 118q1 135 49 243t120 206q11 15 110 129t239 250q0 40 -25 60q-26 20 -60 46t-34 91q0 108 43 117q177 45 221 45l221 -8q21 0 21 -39q0 -9 -12 -35 t-11 -64l3 -34q0 -10 -43 -68t-85 -121q-41 -62 -59 -82h259z" />
<glyph unicode="&#x639;" horiz-adv-x="766" arabic-form="initial" d="M424 144l196 21q22 0 65 27l17 5v-9l1 -10q0 -18 -21 -18q-59 -101 -116 -101l-82 5l-204 10q-30 0 -48 -4t-96 -37t-110 -33h-41v82h11q39 0 92 34t53 72q-33 89 -33 185q0 162 176 162q-17 1 21 -1t85 -10t70 -8h42t37 -6q12 12 20 12q15 0 15 -31t-21 -59t-54 -29 q-35 18 -105 18q-158 0 -258 -63q35 -66 61 -110t45 -53q93 -51 182 -51z" />
<glyph unicode="&#x639;" horiz-adv-x="653" arabic-form="medial" d="M518 442l-333 -35l128 -196zM609 486q0 -9 -6 -25t-12 -57t-17 -62q-50 -49 -130 -141q-9 -41 -52 -119h297v-82l-205 -1q-19 0 -48.5 -10t-50.5 -10t-28 21q-14 45 -52 85q-62 -85 -242 -85h-82v82h68q104 0 196 59q0 47 -37 83q-106 81 -106 113v34q0 108 43 117 q2 0 92 22t128 23l223 -8q21 0 21 -39z" />
<glyph unicode="&#x63a;" horiz-adv-x="1045" arabic-form="final" d="M940 445l-357 -24l184 -218zM1082 82v-82l-139 -1q-20 0 -49.5 -10t-51.5 -10q-22 -1 -34 19q-14 20 -88 133q-158 -132 -309 -345q-34 -49 -96 -143q-62 -95 -93 -181t-31 -106q0 -42 69 -122q19 -13 38 -25t49 -12q117 0 630 138q20 9 70 45q49 36 65 36t28 -4 q40 -12 40 -48t-18 -67t-24 -31q-13 7 -26 13l-504 -138q-89 -24 -208 -46q-51 -1 -152 -7q-62 34 -93 140q-7 27 -30 118q1 135 49 243t120 206q11 15 110 129t239 250q0 40 -25 60q-26 20 -60 46t-34 91q0 108 43 117q177 45 221 45l221 -8q21 0 21 -39q0 -9 -12 -35 t-11 -64l3 -34q0 -10 -43 -68t-85 -121q-41 -62 -59 -82h259zM723 784l1 66q0 32 -3 47.5t-4 14.5q21 27 62 69t61 42q12 0 24 -33q12 -34 11 -48t-5 -18t-7 4q-9 23 -17 22.5t-20 -16.5t-20 -19q-10 -3 -45.5 -67t-37.5 -64z" />
<glyph unicode="&#x63a;" horiz-adv-x="766" arabic-form="initial" d="M302 810l1 66q0 32 -3 47.5t-4 14.5q21 27 62 69t61 42q11 0 23 -33q12 -34 12 -48t-5 -18q-4 -2 -7 4q-9 24 -17 24t-19.5 -17t-21.5 -20t-45 -67t-37 -64zM424 144l196 21q22 0 65 27l17 5v-9l1 -10q0 -18 -21 -18q-59 -101 -116 -101l-82 5l-204 10q-30 0 -48 -4 t-96 -37t-110 -33h-41v82h11q39 0 92 34t53 72q-33 89 -33 185q0 162 176 162q-17 1 21 -1t85 -11t70 -8q22 1 42 1t37 -6q12 12 20 12q15 0 15 -31t-21 -59t-54 -29q-35 18 -105 18q-158 0 -258 -63q35 -66 61 -110t45 -53q93 -51 182 -51z" />
<glyph unicode="&#x63a;" horiz-adv-x="667" arabic-form="medial" d="M449 1023q11 0 23 -33q12 -34 12 -48t-4 -18t-8 4q-8 23 -16 23q-8 -1 -20 -17t-22 -19t-44.5 -67t-37.5 -64q-2 1 -2 9l3 68q0 21 -3 36.5t-4 14.5q21 27 62 69t61 42zM526 442l-333 -35l128 -196zM617 486q1 -9 -5 -25t-12 -57t-18 -62q-50 -49 -129 -141 q-9 -41 -52 -119h297v-82l-205 -1q-19 0 -49 -10t-50 -10t-32 33q-11 33 -48 74q-63 -86 -242 -86h-83v82h68q105 0 196 59q0 48 -37 84q-105 80 -105 112q0 6 -1 17v17q0 108 44 117q2 0 92 22t100 22l251 -7q20 0 20 -39z" />
<glyph unicode="&#x641;" horiz-adv-x="1489" arabic-form="final" d="M1246 652l1 66q0 32 -3 47.5t-4 14.5q21 27 62 69t61 42q11 0 23 -33q12 -34 12 -48t-4 -18t-8 4q-9 23 -16.5 22.5t-19.5 -16.5t-22 -19t-45 -67t-37 -64zM1248 433q-24 0 -65 -31q-120 -90 -120 -199q0 -13 1 -26q78 37 221 124l30 24q0 35 -22 71q-21 36 -45 37z M1386 450q0 -95 -98 -200q-36 -39 -62 -49l-57 -39q-34 -24 -34 -40q0 -24 46 -32t81 -8h269v-82h-414q-16 0 -76.5 24.5t-75.5 24.5q-140 -49 -193 -49h-249q-244 0 -334 58q-64 40 -64 122t47 168q9 16 199 258q72 93 92 93q14 0 14 -26q1 -27 -15 -45t-78 -104t-98 -157 t-46 -97t-11 -58q1 -32 47 -70t100 -52q54 -12 147 -12l210 4q70 0 158 28l88 28q19 59 54 147q51 91 131 171t169 98q29 -37 41 -55t12 -49z" />
<glyph unicode="&#x641;" horiz-adv-x="488" arabic-form="initial" d="M299 1017q11 -1 23 -33t12 -47t-4 -18t-8 3q-9 24 -17 24t-19.5 -16t-21.5 -20t-44.5 -67.5t-37.5 -63.5q-2 1 -2 8l3 69q0 51 -7 51q21 27 62 69t61 41zM238 540q-24 0 -45 -22t-21 -61.5t81 -44.5l141 -12q-36 43 -109 119q-23 21 -47 21zM128 348q-17 0 -17 2 q0 76 16 108t34 69q10 120 42 120q109 -1 166 -67t57 -168t-3 -150t-34 -121q-62 -141 -377 -141h-24v82h32l125 -1q51 -1 98 21t93 99q11 19 11 47t-31 64.5t-65 35.5h-123z" />
<glyph unicode="&#x641;" horiz-adv-x="783" arabic-form="medial" d="M515 666l1 66q0 32 -3 47.5t-4 14.5q21 27 62 69t61 42q12 0 24 -33q12 -34 11 -48t-5 -18t-7 4q-9 23 -17 22.5t-20 -16.5t-21 -19t-44.5 -67t-37.5 -64zM356 203q0 -13 1 -26q78 37 221 124l30 24q0 35 -22 71t-46 37q-24 0 -64 -31q-120 -90 -120 -199zM519 81l36 1 h259v-82h-404q-16 0 -76.5 24.5t-75.5 24.5q-141 -49 -193 -49h-85v82h45q74 0 158 28l89 28q19 59 54 147q50 91 130 171t169 98q31 -37 42 -55t11 -49q0 -95 -97 -200q-36 -39 -62 -49q-91 -65 -91 -92q0 -28 91 -28z" />
<glyph unicode="&#x642;" horiz-adv-x="1025" arabic-form="final" d="M631 731l1 65q0 32 -3 48t-4 15q21 27 62 69t61 42q12 0 24 -33t11 -45q0 -12 -2 -17q19 26 60 66q40 41 59 41q13 0 24 -33t11 -47q-1 -14 -5 -18t-6 3q-9 23 -17 23t-20 -16t-21 -20q-9 -3 -44.5 -67t-38.5 -64q-2 1 -2 9l4 68q0 22 -7 51q-4 -3 -7 4q-9 23 -17 23 t-20 -16t-20 -20q-10 -3 -45.5 -67t-37.5 -64zM673 366q0 -65 81 -65l141 -13q-36 49 -109 139q-23 25 -48 23t-45 -27.5t-20 -56.5zM789 235q-97 -30 -145 -30h-49q0 96 6 118q14 29 29 69q21 140 59 140q126 0 197 -74t71 -200q-1 -64 27 -120t64 -56h11v-82h-23 q-20 0 -38 18t-51 102q-32 -150 -41 -180q-35 -119 -87 -160q-7 0 -185 -117q-53 -34 -175 -34q-208 0 -301 190q-33 66 -33 116q1 175 33 323q47 213 67 213q5 0 16 -11t10 -15q-67 -188 -67 -284q0 -164 65 -277q79 -139 231 -139q90 0 188 46t165 115.5t67 129.5t-61 155 q-29 44 -50 44z" />
<glyph unicode="&#x642;" horiz-adv-x="505" arabic-form="initial" d="M290 855l2 65q0 64 -7 63q-4 -3 -7 4q-8 23 -16 23t-20 -16.5t-17 -18.5q-10 -16 -49 -68q-18 -32 -38 -64q-2 1 -2 8l4 69q0 20 -3.5 35.5t-4.5 15.5q21 27 62 69t61 41q13 -1 24 -33t11 -44t-2 -17q20 25 60 66q40 40 60 40q12 -1 24 -33t11 -47t-5 -18t-7 4 q-9 23 -17 23t-20 -16t-21 -20t-44.5 -67.5t-38.5 -63.5zM226 540q-24 0 -45.5 -22t-21.5 -61.5t82 -44.5l141 -12q-36 43 -109 119q-23 21 -47 21zM116 348q-18 0 -18 2q0 76 16 108t35 69q9 119 41 119q109 0 166 -66t57 -168q-1 -102 -3 -150t-33 -121 q-62 -141 -377 -141h-24v82h31l126 -1q51 -1 98 21t92 99q11 19 11 47t-30.5 64t-65.5 36h-122z" />
<glyph unicode="&#x642;" horiz-adv-x="789" arabic-form="medial" d="M483 788l2 80q0 48 -7 48q21 26 62 68t61 42q11 0 23 -32t12 -45q0 -12 -2 -16q19 25 60 65q40 40 59 40q13 0 24 -32t11 -48q0 -15 -4 -18t-7 4q-9 23 -17 23t-20 -16.5t-19 -18.5t-35 -52q-28 -48 -50 -80q-2 1 -2 8l4 69q0 20 -7 51q-4 -3 -7 4q-9 23 -17 23 t-20 -16.5t-21 -20.5t-44.5 -67t-38.5 -63zM528 433q-24 0 -64 -31q-121 -90 -121 -199q0 -13 2 -26q77 37 153 85t98 63q0 35 -22 71t-46 37zM525 81l17 1h280v-82h-424q-16 0 -77 24.5t-76 24.5q-140 -49 -193 -49h-85v82h46q74 0 158 28l88 28q19 59 55 147 q50 91 130 171t169 98q29 -37 41 -55t12 -49q0 -95 -98 -200q-36 -39 -61 -49q-91 -63 -91 -91t90 -29h19z" />
<glyph unicode="&#x643;" horiz-adv-x="1305" arabic-form="final" d="M1298 1049h16q21 0 21 -11q-1 -6 -31 -16t-42 -31q-13 -16 -44 -16h-14q-18 0 -96 22q-68 44 -177 44q-109 -1 -243 -27t-163 -146q-2 -9 -2 -13q0 -105 368 -200q111 -54 194 -110q119 -25 119 -166q2 -13 2 -27q0 -151 -136 -270h260v-82h-104q-14 0 -33 -3h-56 q-53 0 -99 30q-9 6 -92 65q-4 0 -6 -2q-112 -93 -312 -93q-304 0 -428 111q-75 66 -75 171q0 17 21 93q56 206 113 276q9 -4 33 -16t33 -16t35 -6t26 -8q0 -4 -1 -7q-50 -70 -134 -216q-21 -46 -21 -109q0 -158 181 -158h66l69 -1q178 0 258 24q43 7 94 19q2 0 64 32t85 58 q57 66 57 110q0 65 -132 138q-87 49 -189 82l-107 34q-63 23 -96 50l-115 32q-55 20 -66 93q26 189 173 229q122 78 303 78l242 -8l121 -20q23 -13 60 -13z" />
<glyph unicode="&#x643;" horiz-adv-x="982" arabic-form="initial" d="M882 1049h15q22 0 22 -11q-1 -5 -31 -16t-42 -31q-13 -16 -44 -16h-14q-18 0 -97 23q-67 43 -176 43q-109 -1 -243 -27t-163 -146q-3 -9 -3 -13q0 -105 368 -200q112 -54 194 -110q120 -24 120 -166q1 -16 1 -32q0 -182 -179 -288q-80 -47 -179 -53t-209 -6h-240v82h403 q137 0 255 161q48 66 48 111q0 65 -132 138q-87 49 -189 82l-107 34q-63 23 -96 50l-115 32q-55 20 -66 93q25 189 173 229q122 78 303 78l242 -8l121 -20q23 -13 60 -13z" />
<glyph unicode="&#x643;" horiz-adv-x="938" arabic-form="medial" d="M874 1049h15q22 0 22 -11q0 -5 -31 -16t-43 -31q-13 -16 -43 -16h-15q-18 0 -96 23q-67 43 -176 43q-109 -1 -244 -27t-163 -146q-2 -9 -2 -13q0 -105 368 -200q112 -54 194 -110q119 -24 119 -166q2 -13 2 -27q0 -151 -135 -270h319v-82h-164l-125 -13q-85 0 -118 74 q-138 -61 -443 -61h-141v82h367q69 0 149 50t135 114t55 108q0 65 -132 138q-88 49 -189 82l-108 34q-62 23 -95 50l-116 32q-55 20 -66 93q26 189 174 229q121 78 302 78l243 -8l120 -20q24 -13 61 -13z" />
<glyph unicode="&#x644;" horiz-adv-x="1247" arabic-form="final" d="M1203 456q0 -189 -38 -374h115v-82l-131 1q-62 -235 -208 -437q-41 -57 -76 -92q-145 -140 -346 -140q-131 0 -226 84q-149 131 -157 332q-4 104 -8 127t-3 79q0 56 23 112q23 57 79 166t77 183q-1 30 21 89q18 23 47 23t55.5 -23.5t27.5 -49.5t-16.5 -50t-51.5 -72 q-105 -146 -133 -274t-28 -208t3 -122q12 -132 102 -228q175 -187 434 13q259 199 331 602q17 98 17 248t-38 389l-55 339v5q3 -1 5 -1q22 -25 37 -25l48 14q13 0 19 -20q41 -125 50 -203q24 -216 24 -405z" />
<glyph unicode="&#x644;" horiz-adv-x="413" arabic-form="initial" d="M348 918l1 -99l1 -67q0 -169 -11 -272q-25 -222 -97 -381q-44 -99 -173 -99h-92v82h20q67 0 133.5 74t99.5 210t33 282q0 173 -51 299q-17 42 -17 58v21l-37 61q2 3 6 3t54 -34t90 -47q40 -14 41 -55v-17q-1 -11 -1 -19z" />
<glyph unicode="&#x644;" horiz-adv-x="502" arabic-form="medial" d="M531 0h-21q-32 0 -53 8q-74 26 -175 187q-64 -123 -112 -159t-110 -36h-92v82h20q83 0 147 90t83 184q4 14 20 82t16 212q0 145 -30 243q-4 15 -24 67t-19 69v21q0 6 -26 31q-2 4 -3 9q14 0 54 -36t87 -52q47 -17 47 -58v-24v-40t-3 -91l-5 -132q-2 -84 -2 -155 q-4 -30 -4 -96t39 -179q50 -145 126 -145h40v-82z" />
<glyph unicode="&#x645;" horiz-adv-x="1644" arabic-form="final" d="M778 178q0 -85 71 -85q184 0 184 134q0 48 -17 63t-46 41q-20 -1 -34 -9t-48 -37q-36 -29 -73 -55t-37 -52zM1545 0q-26 0 -44.5 21t-35.5 43q-24 24 -49 66q-26 42 -46 66t-80 92q-20 33 -80 95q-46 35 -80 39t-134 4q32 -19 87 -77q29 -47 29 -103q0 -99 -80 -159 t-229 -60q-105 0 -105 131q0 39 35 73t169 111q-18 2 -84 24t-85 22q-147 0 -283 -82q-59 -35 -86 -142q-12 -65 -38 -184t-50 -399q-1 -43 -8 -143q-10 -90 -30 -188t-28 -98t-14 2t-33 48t-27 56t6 32t9 69t28 211q9 30 28 100q21 169 58 394q5 46 13 121t39 93 q104 66 179 122q54 31 189 31q45 0 92 -2q47 -3 92 -27l44 -24l63 60q57 55 173 55h15q51 -11 79.5 -32.5t68.5 -53.5t94 -110t86 -110q28 -34 58 -69.5t52 -35.5h64v-82h-121z" />
<glyph unicode="&#x645;" horiz-adv-x="886" arabic-form="initial" d="M551 166q-1 -62 33 -93q34 -30 78 -69q42 48 60 74t17 52q0 98 -137 141q-51 -86 -51 -105zM824 234q0 -120 -93.5 -211t-214.5 -91q-87 0 -87 166q0 61 55 107l112 94q-38 16 -76 16q-78 0 -176 -85q-67 -67 -217 -185q-73 -45 -129 -45h-22v82h44q84 0 161 72t200 174 q117 84 241 84q82 0 142 -48t60 -130z" />
<glyph unicode="&#x645;" horiz-adv-x="1196" arabic-form="medial" d="M555 166q-1 -64 33 -93q34 -30 78 -69q42 48 60 74t17 52q0 98 -137 141q-51 -86 -51 -105zM1226 0h-49q-5 -5 -21 -27t-29 -22q-65 0 -71 129l-5 97q-22 179 -168 216q-60 16 -164 16q55 -46 72 -60q47 -40 47 -83q0 -13 -4 -33q-24 -125 -108 -213t-206 -88 q-87 0 -87 166q0 61 55 107l112 94q-33 15 -70 15q-67 0 -153 -64q-14 -10 -70 -57l-112 -92q-127 -101 -204 -101h-11v82h8q92 0 202 84q63 55 193 159q121 86 238 86q34 17 57 17q60 78 152 78q43 0 101 -15q175 -46 207 -251q4 -31 14.5 -94.5t33.5 -63.5h40v-82z" />
<glyph unicode="&#x646;" horiz-adv-x="1081" arabic-form="final" d="M1117 82v-82l-62 -1q-31 0 -71 25q-38 -137 -182 -306q-121 -91 -346 -91q-37 0 -212 19l-66 7q-53 0 -53 182q0 14 10 58q33 160 132 339q33 58 83 82t50 16t-51 -74q-124 -159 -124 -266q-11 -49 -11 -98q0 -117 69 -146q26 0 81 -4l115 -9q80 -4 155 -4q34 10 102 31 q165 53 165 257q0 232 -63 336q-32 53 -32 69t23 33t41 17q24 0 88 -162q37 -96 37 -228h122zM638 577q13 -1 24 -33t11 -47q-1 -15 -5 -18t-6 3q-9 24 -17 24t-19.5 -16t-21.5 -20t-45 -67.5t-38 -63.5q-2 1 -2 8l4 69q0 20 -7 51q20 27 62 69t60 41z" />
<glyph unicode="&#x646;" horiz-adv-x="413" arabic-form="initial" d="M182 1145q13 0 24 -33q11 -34 11 -48q-1 -14 -5 -18t-6 4q-9 23 -17 23q-8 -1 -20 -17t-21 -19t-44.5 -67t-38.5 -64q-2 1 -2 9l4 69q0 21 -7 50q20 27 62 69t60 42zM351 282q0 -17 -6 -44q-23 -104 -94 -175q-191 -63 -244 -63h-36v82h28q151 0 233 64t82 149 q0 33 -16 55t-86 76q-68 54 -91 84t-23 63q0 79 28 79q8 -4 67 -50t111 -113q47 -92 47 -207z" />
<glyph unicode="&#x646;" horiz-adv-x="451" arabic-form="medial" d="M279 1073q13 -1 24 -33t11 -47t-4 -18t-7 4q-9 23 -17 23t-20 -16.5t-21 -19.5t-44.5 -67t-38.5 -64q-2 1 -2 8l4 69q0 20 -7 51q19 27 61 69t61 41zM458 82h19v-82q-17 0 -28 9q-19 21 -70 63q-37 24 -46 30q-21 22 -35 34t-29 13q-17 1 -57 -43t-90 -75t-134 -31h-8v82 h38q80 0 159 88q30 34 52 89t22 111t-18 121l-42 147q0 11 7 11q6 -4 26 -26q20 -23 36 -31q15 -8 52 -28q26 -23 26 -83l-22 -195q0 -90 71 -163q41 -41 71 -41z" />
<glyph unicode="&#x647;" horiz-adv-x="1083" arabic-form="final" d="M836 553q-28 0 -131 -5l-213 -11q-110 -6 -133.5 -6t-34.5 -14q-30 -38 -60 -89t-30 -113t49 -111.5t111 -49.5t100 55l42 58q77 97 114 139q127 147 186 147zM894 490q-80 0 -106 -19q-27 -19 -71 -81t-101 -138t-90 -122t-65 -66t-89 -20q-97 0 -172 75t-75 172t44 170 q5 9 41 63t54 75q16 21 58 21t208 8l333 18q168 9 197 9q6 1 6 -23t-44 -203t-44 -206q0 -85 22 -113t102 -28h12v-82h-171q-48 -1 -50 -2q74 330 74 406l7 55q0 31 -80 31z" />
<glyph unicode="&#x647;" horiz-adv-x="953" arabic-form="initial" d="M409 338q-14 0 -33.5 -56.5t-63.5 -56.5h-20q-12 1 -17 1q-42 1 -69 -44q-7 -12 -18 -52t-11 -49q0 -31 45 -31q115 0 168 144q27 74 27 109t-8 35zM821 446q0 126 -108 126q-79 0 -137 -32t-153 -138q98 -38 98 -100q0 -49 -73 -204q373 114 373 348zM122 -85 q-12 0 -25 85h-119v82h104q0 145 183 235q99 48 106 53v79q0 91 78 141q77 50 193 49q116 0 182 -69t67 -175q0 -238 -365 -344q-20 -5 -104 -33t-134 -29q-50 0 -73 6q-22 6 -69 38q-25 -25 -25 -45l18 -44q0 -29 -17 -29z" />
<glyph unicode="&#x647;" horiz-adv-x="633" arabic-form="medial" d="M394 -160q0 22 -35 66q-11 9 -34 41t-57 32t-87 -70q-7 -23 -17 -61t-17 -55q-25 -25 -24 -38t40 -48l14 -34q11 -20 33 -20t28 4q8 4 24 15q16 10 22 18q7 8 34 46q14 10 36 28t31 36t9 40zM330 88.5q8 -6.5 27 -6.5t75 74t56 98q16 22 18 90t-21 69q-4 -1 -5 -5 l-93 -112q-11 -13 -36 -68t-41 -76q7 -6 9.5 -31.5t10.5 -32zM666 0h-212q44 -58 44 -102t-16 -70q-20 -44 -66 -79l-51 -40q-25 -38 -86 -102q-33 -25 -49 -31t-50 -6t-56 48l-17 42q-15 13 -41 37q-47 44 -8 85l22 23q16 66 56 195h-151v82q20 0 58 -1h51q31 -2 62 -2 t53 3q29 36 48 79t44 101t50 88q31 28 87 102t86 106q4 9 9 9q19 0 31 -52q12 -53 12 -85q0 -109 -35 -158q0 -36 -34 -84t-77 -106h236v-82z" />
<glyph unicode="&#x648;" horiz-adv-x="1038" arabic-form="final" d="M882 215q0 95 -69 141q-35 22 -87 22t-78 -34q-14 -17 -31 -68q-17 -52 -25 -70t-9 -30q-1 -44 47 -78t93 -33q159 0 159 150zM176 -524q-47 0 -51 13q0 11 60 37l131 58q82 38 127 73q197 155 276 285q-9 49 -86 49l-70 -3q-23 0 -39 5q-24 49 -24 101t22 120t56 174 t114 107q79 0 233 -81q52 -28 52 -73q0 -20 -7 -43q1 -8 1 -26t-23 -98l-26 -89h147v-85h-7q-9 3 -26 3l-66 -5q-52 0 -82 44l-59 -151q-13 -33 -22 -43q-132 -149 -231 -215q-235 -157 -400 -157z" />
<glyph unicode="&#x649;" horiz-adv-x="1146" arabic-form="final" d="M958 82h216v-82h-67q0 -172 -34 -264t-135 -145q-113 -89 -382 -89q-268 0 -318 33t-88 175q-6 23 -25 102q8 70 133 161q32 33 42 70t19 79q10 42 31 41q21 0 21 -41q0 -83 -41 -124q-129 -161 -145 -207q-4 -12 -4 -33q0 -147 324 -147q83 0 177 12q294 38 380 148 q0 21 -42 61t-52 54q-33 46 -33 103l-6 63q0 30 29 30z" />
<glyph unicode="&#x64a;" horiz-adv-x="1146" arabic-form="final" d="M958 82h216v-82h-67q0 -172 -34 -264t-135 -145q-113 -89 -382 -89q-268 0 -318 33t-88 175q-6 23 -25 102q8 70 133 161q32 33 42 70t19 79q10 42 31 41q21 0 21 -41q0 -83 -41 -124q-129 -161 -145 -207q-4 -12 -4 -33q0 -147 324 -147q83 0 177 12q294 38 380 148 q0 21 -42 61t-52 54q-33 46 -33 103l-6 63q0 30 29 30z" />
<glyph unicode="&#x64a;" horiz-adv-x="422" arabic-form="initial" d="M-15 -512l2 64q0 32 -7 64q20 26 62 68t60 42q13 0 24 -32t11 -45q0 -12 -2 -17q20 25 60 66q40 40 60 40q13 0 24 -32t11 -48q0 -15 -4 -18t-7 4q-9 23 -17 23t-20 -16.5t-22 -20.5t-44.5 -67t-37.5 -63q-2 1 -2 8l4 69q0 20 -3.5 35.5t-4.5 15.5q-4 -3 -6 4 q-9 23 -17 23t-20 -16.5t-21 -20.5t-44.5 -67t-38.5 -63zM359 282q0 -17 -6 -44q-23 -104 -94 -175q-191 -63 -244 -63h-35v82h27q151 0 233 64t82 149q0 33 -16 55t-86 76q-68 54 -91 84t-23 63q0 79 28 79q8 -4 35 -25q92 -71 143 -138q47 -92 47 -207z" />
<glyph unicode="&#x64a;" horiz-adv-x="451" arabic-form="medial" d="M124 -264q13 0 24 -32t11 -45q0 -12 -2 -17q20 25 60 66q40 40 60 40q11 0 23 -32t12 -48q0 -15 -4 -18t-8 4q-9 23 -17 23t-19.5 -16.5t-21.5 -20.5t-45 -67t-37 -63q-2 1 -2 8l3 69q0 51 -7 51q-4 -3 -6 4q-9 23 -17 23t-20 -16.5t-21 -20.5t-44.5 -67t-38.5 -63 q-2 1 -2 8l4 69q0 20 -7 51q20 26 62 68t60 42zM458 82h19v-82q-17 0 -28 9q-19 21 -70 63q-37 24 -52 38t-29 26t-29 13q-17 1 -57 -43t-90 -75t-134 -31h-8v82h38q80 0 159 88q30 34 52 89t22 111t-18 121l-42 147q0 11 7 11q6 -4 26 -26q20 -23 36 -31q15 -8 52 -28 q26 -23 26 -83l-22 -195q0 -90 71 -163q41 -41 71 -41z" />
<glyph unicode="&#xd;" horiz-adv-x="418" />
<glyph unicode=" "  horiz-adv-x="418" />
<glyph unicode="&#x09;" horiz-adv-x="418" />
<glyph unicode="&#xa0;" horiz-adv-x="418" />
<glyph unicode="!" horiz-adv-x="549" d="M403 171q13 0 24 -33t11 -48t-4 -18t-7 4q-9 23 -17 23t-20 -16.5t-17 -18.5q-14 -4 -49 -68t-38 -64q-2 1 -2 9l4 68q0 21 -7 51q19 27 61 69t61 42zM405 937q0 -33 4 -55t3 -240q-1 -217 -10 -281q-8 -65 -16 -83t-36 -48q-64 -69 -67 -97q-2 1 -2 17t16.5 72.5 t20.5 146.5t5 370v138q20 28 63 83q39 62 42 62q-1 -6 -1 -12q-22 -40 -22 -73z" />
<glyph unicode="%" horiz-adv-x="1151" d="M467 1078l1 80q0 48 -7 48q21 26 62 68t61 42q12 0 24 -32t11 -48q-1 -15 -5 -18t-7 3q-9 24 -17 24t-20 -16.5t-21 -20.5t-44.5 -67t-37.5 -63zM1005 487q13 -1 24 -33t11 -47t-4 -18t-7 3q-9 24 -17 24t-20 -16t-22 -20t-44.5 -68t-37.5 -64q-2 2 -2 9l4 69 q0 20 -3.5 35.5t-4.5 15.5q21 27 62 69t61 41zM664 146q0 -30 10 -150q0 -34 -20 -34q-7 0 -124 -65q19 53 60 262q42 209 51 250l45 211q26 118 50 202t64 302l60 348q27 154 37 154q3 0 9 -116t5 -186q-1 -69 -63 -332q-113 -476 -126 -538l-23 -108q-35 -170 -35 -200z M530 -103q-3 -9 -5 -9q-1 3 -1 6q3 1 6 3z" />
<glyph unicode="(" horiz-adv-x="871" d="M397 276q0 354 198 823q31 73 35 77q29 0 71 -174q20 -81 20 -144q0 -19 -41 -90l-79 -140q-45 -78 -51 -105q-24 -100 -40 -243t-17 -155q0 -448 211 -647q48 -46 52 -49q-23 0 -65 43q-120 122 -131 122l-15 -3q-28 0 -48 107q-31 101 -80 305q-20 109 -20 273z" />
<glyph unicode=")" horiz-adv-x="871" d="M660 125q0 12 -16 155t-40 243q-7 27 -52 105l-79 140q-41 71 -41 90q0 63 20 144q42 174 71 174q4 -4 63 -144q170 -402 170 -781q0 -139 -20 -248q-49 -204 -80 -305q-20 -107 -47 -107l-16 3q-11 0 -131 -122q-42 -43 -65 -43q4 3 52 49q211 199 211 647z" />
<glyph unicode="*" horiz-adv-x="1566" d="M1226 730l12 -68q0 -13 -34 -62q-26 -48 -77 -141q251 22 333 22q-2 -5 -48 -26t-75 -58q-16 -21 -86 -21q20 0 -128 -16q25 -44 32 -54q18 -12 49 -43q8 -11 8 -42l-4 -72l5 -72q0 -45 -16 -45q-9 2 -23 31q-44 39 -56 65t-34 84t-42 98q-27 -48 -44 -94l-34 -88 q-20 -43 -63 -81q-3 -2 -11.5 -16t-11.5 -14q-16 0 -16 46l1 17v127q0 29 8 40q14 7 49 44q6 8 33 55q-62 -1 -94 -7q-31 -7 -86 -23t-85 -16l-82 8l-12 -1q-10 1 -8 11t12 19q12 9 68 43q86 67 101 67l64 -15q17 0 133 12q-4 8 -9 16l-84 155q-35 50 -35 71q13 46 13 61 t-3 29l-12 67l2 4q51 -71 206 -344l78 137q110 188 121 193z" />
<glyph unicode="+" horiz-adv-x="1566" d="M970 444l-10 143q-9 143 1 155q33 38 41 66t18 66l3 3q17 -93 43 -424q302 28 394 28q-2 -5 -48 -26t-75 -58q-16 -21 -86 -21q23 0 -77 -11t-100 -10q6 -60 20 -133q14 -20 16 -34t-20 -56q-24 -42 -34 -72q-10 -28 -20 -48q-8 -20 -20 -24t-15 12q-1 12 -3 23 q-24 53 -24 104l10 142q0 36 -4 77h-56q-46 0 -126 -23t-110 -23l-82 8l-12 -1q-10 1 -8 11t12 19q12 9 68 43q86 67 101 67l64 -15q17 0 139 12z" />
<glyph unicode="," horiz-adv-x="599" d="M304 96q0 17 11 32l22 30q5 7 15 29t14 22l25 -18q43 -32 67 -26q22 5 32 5t10 -20q0 -22 -32 -107t-50 -119t-58 -78q-39 -46 -60 -46q-6 0 -6 6t14 23l45 59q41 70 46 93t-18 23l-35 -2q-22 0 -32 38t-10 56z" />
<glyph unicode="-" horiz-adv-x="1566" d="M767 516q15 0 31 -8t33 -8t271 24t358 25q-1 -2 -1 -4q-9 -5 -51 -24t-71 -55q-16 -21 -86 -21q23 0 -113 -15t-190 -15t-86 -7q-34 -8 -89 -24t-86 -16l-70 9l-23 -2q-10 1 -8 11t12 20q12 10 68 42q86 68 101 68z" />
<glyph unicode="." horiz-adv-x="597" d="M300 -11l2 95q0 34 -4 48t-4 16q14 19 37 44q85 94 116 94q15 0 29 -41t14 -59t-5 -22t-9 4q-11 29 -21 29q-10 -1 -25 -21t-24.5 -23.5t-23.5 -26.5t-46 -80t-36 -57z" />
<glyph unicode="/" horiz-adv-x="863" d="M513 42q0 -30 10 -150q0 -34 -20 -34q-7 0 -124 -65q17 49 60 260q42 210 51 252l45 211q27 117 51 201t63 302l60 348q27 154 37 154q2 -1 8 -117t6 -186t-62 -331q-115 -483 -127 -538l-23 -107q-35 -170 -35 -200zM379 -207q-3 -9 -5 -9q-1 3 -1 6q3 1 6 3z" />
<glyph unicode="0" horiz-adv-x="669" d="M321 388l3 118q0 40 -6 60t-5 21q14 18 47 55q106 117 145 117q20 -1 37 -51t17 -74q-1 -24 -7 -28t-10 7q-15 36 -27 36q-12 1 -31 -25t-33.5 -31.5t-68.5 -105.5q-54 -99 -61 -99z" />
<glyph unicode="&#x660;" horiz-adv-x="669" d="M321 388l3 118q0 40 -6 60t-5 21q14 18 47 55q106 117 145 117q20 -1 37 -51t17 -74q-1 -24 -7 -28t-10 7q-15 36 -27 36q-12 1 -31 -25t-33.5 -31.5t-68.5 -105.5q-54 -99 -61 -99z" />
<glyph unicode="1" horiz-adv-x="1056" d="M718 -2q-6 0 -6 55q14 26 14 122q0 97 -22 231t-30 200q-9 66 -56 177t-52 134q26 47 55 81t39 62t24 29q4 -11 12 -63t21 -107q35 -110 64 -298t29 -364l-2 -72q-27 -29 -56 -108q-28 -79 -34 -79z" />
<glyph unicode="&#x661;" horiz-adv-x="1056" d="M718 -2q-6 0 -6 55q14 26 14 122q0 97 -22 231t-30 200q-9 66 -56 177t-52 134q26 47 55 81t39 62t24 29q4 -11 12 -63t21 -107q35 -110 64 -298t29 -364l-2 -72q-27 -29 -56 -108q-28 -79 -34 -79z" />
<glyph unicode="2" horiz-adv-x="1056" d="M484 780q0 -19 34 -85t94 -179q58 -114 80 -178t50 -136l27 -68q0 -85 26 -101q-9 -10 -47 -17t-50 -7q-30 1 -38 45t-25 133t-48 143t-63 107q-91 157 -91 255t55 190q55 90 127.5 153.5t118.5 63.5t139 -48q7 -3 39 -5t32 -9q0 -13 -66 -73t-75 -94q-2 -8 -10 -8 l-176 57q-61 -39 -97 -79t-36 -60z" />
<glyph unicode="&#x662;" horiz-adv-x="1056" d="M484 780q0 -19 34 -85t94 -179q58 -114 80 -178t50 -136l27 -68q0 -85 26 -101q-9 -10 -47 -17t-50 -7q-30 1 -38 45t-25 133t-48 143t-63 107q-91 157 -91 255t55 190q55 90 127.5 153.5t118.5 63.5t139 -48q7 -3 39 -5t32 -9q0 -13 -66 -73t-75 -94q-2 -8 -10 -8 l-176 57q-61 -39 -97 -79t-36 -60z" />
<glyph unicode="3" horiz-adv-x="1057" d="M862 709q-26 0 -127 64q-42 0 -143 -121q13 -81 30 -200l29 -203q13 -101 13 -117t-1 -24q0 -8 -17 -28q-17 -19 -35 -47q-5 27 -17 131q-36 310 -115 495q-36 84 -111 231q-7 33 -7 106q1 12 13 29t39 52q10 -20 61 -133t113 -187q16 15 72 66t56 87l-30 111q0 6 17 14 l21 10q9 -29 15 -60t12 -50q22 -77 97 -106q4 -2 12 -2q8 1 37 23t47 29q0 97 7 138q7 18 15 36q0 17 14.5 35t31.5 18q6 0 6 -32l-2 -104q0 -103 -44 -139q-13 -10 -48 -66t-61 -56z" />
<glyph unicode="&#x663;" horiz-adv-x="1057" d="M862 709q-26 0 -127 64q-42 0 -143 -121q13 -81 30 -200l29 -203q13 -101 13 -117t-1 -24q0 -8 -17 -28q-17 -19 -35 -47q-5 27 -17 131q-36 310 -115 495q-36 84 -111 231q-7 33 -7 106q1 12 13 29t39 52q10 -20 61 -133t113 -187q16 15 72 66t56 87l-30 111q0 6 17 14 l21 10q9 -29 15 -60t12 -50q22 -77 97 -106q4 -2 12 -2q8 1 37 23t47 29q0 97 7 138q7 18 15 36q0 17 14.5 35t31.5 18q6 0 6 -32l-2 -104q0 -103 -44 -139q-13 -10 -48 -66t-61 -56z" />
<glyph unicode="4" horiz-adv-x="1056" d="M869 183q-1 -15 -13 -27t-75 -68q-14 -79 -37 -79q-10 0 -74 23t-115 38l-66 9q-51 13 -51 45q0 95 221 348q29 34 143 158q-48 30 -134 60t-98 34q-43 21 -43 53q0 97 169 260q65 62 89 62q7 0 7 -11t-76 -83q-76 -71 -77 -75q0 -41 78 -72q193 -75 221 -96 q-28 -76 -86 -156t-84 -112q-26 -30 -95 -112t-115 -126q63 -52 154 -52l120 11q37 0 37 -32z" />
<glyph unicode="&#x664;" horiz-adv-x="1056" d="M869 183q-1 -15 -13 -27t-75 -68q-14 -79 -37 -79q-10 0 -74 23t-115 38l-66 9q-51 13 -51 45q0 95 221 348q29 34 143 158q-48 30 -134 60t-98 34q-43 21 -43 53q0 97 169 260q65 62 89 62q7 0 7 -11t-76 -83q-76 -71 -77 -75q0 -41 78 -72q193 -75 221 -96 q-28 -76 -86 -156t-84 -112q-26 -30 -95 -112t-115 -126q63 -52 154 -52l120 11q37 0 37 -32z" />
<glyph unicode="5" horiz-adv-x="1056" d="M682 780q-36 0 -147 -256q-38 -89 -38 -98q1 -59 17 -86t71 -27q109 -1 143 1t146 38q0 252 -112 379q-44 49 -80 49zM957 542q0 -62 -60 -300q-41 -20 -67 -25t-193 -53t-192 -47q-25 0 -25 3q0 273 74 451q34 81 109 212q37 51 61 103t27 54q38 0 93 -34 q173 -109 173 -364z" />
<glyph unicode="&#x665;" horiz-adv-x="1056" d="M682 780q-36 0 -147 -256q-38 -89 -38 -98q1 -59 17 -86t71 -27q109 -1 143 1t146 38q0 252 -112 379q-44 49 -80 49zM957 542q0 -62 -60 -300q-41 -20 -67 -25t-193 -53t-192 -47q-25 0 -25 3q0 273 74 451q34 81 109 212q37 51 61 103t27 54q38 0 93 -34 q173 -109 173 -364z" />
<glyph unicode="6" horiz-adv-x="1056" d="M848 7v46l-9 103q-23 302 -23 366q-9 75 -19 192q-9 116 -17 154t-27 57q-45 43 -156 43t-161 19q74 99 99 99h15l185 -16q47 0 96 24q36 -215 66 -477l22 -191q11 -95 22 -154q-3 -27 -31 -83t-32 -71t-12 -63q-10 -48 -18 -48z" />
<glyph unicode="&#x666;" horiz-adv-x="1056" d="M848 7v46l-9 103q-23 302 -23 366q-9 75 -19 192q-9 116 -17 154t-27 57q-45 43 -156 43t-161 19q74 99 99 99h15l185 -16q47 0 96 24q36 -215 66 -477l22 -191q11 -95 22 -154q-3 -27 -31 -83t-32 -71t-12 -63q-10 -48 -18 -48z" />
<glyph unicode="7" horiz-adv-x="1056" d="M850 161q0 -28 -52 -59q-5 -10 -53 -82q-43 84 -107 239l-58 136q-5 12 -99 198t-94 205q1 48 27 126t26 102t-8 43l-19 31q1 2 4 3q76 0 117 -139q26 -104 82 -314t139 -331q59 120 152 503l45 188q3 3 15.5 20t17.5 17t5 -24q-50 -177 -96 -422q-46 -246 -57 -369 q1 -24 7 -42t6 -29z" />
<glyph unicode="&#x667;" horiz-adv-x="1056" d="M850 161q0 -28 -52 -59q-5 -10 -53 -82q-43 84 -107 239l-58 136q-5 12 -99 198t-94 205q1 48 27 126t26 102t-8 43l-19 31q1 2 4 3q76 0 117 -139q26 -104 82 -314t139 -331q59 120 152 503l45 188q3 3 15.5 20t17.5 17t5 -24q-50 -177 -96 -422q-46 -246 -57 -369 q1 -24 7 -42t6 -29z" />
<glyph unicode="8" horiz-adv-x="1056" d="M990 310q0 -48 -26 -126t-27 -106q0 -28 27 -71q-1 -2 -4 -2q-75 0 -113 139q-25 105 -77.5 315.5t-133.5 331.5q-40 -79 -69 -185t-71 -286t-61 -236q-7 -21 -38 -21q-12 0 -10 9l59 254q75 325 94 545l-13 71q1 18 15 32t36 30q9 16 27 41l28 42q39 -82 106 -238 l57 -136q6 -11 100 -198t94 -205z" />
<glyph unicode="&#x668;" horiz-adv-x="1056" d="M990 310q0 -48 -26 -126t-27 -106q0 -28 27 -71q-1 -2 -4 -2q-75 0 -113 139q-25 105 -77.5 315.5t-133.5 331.5q-40 -79 -69 -185t-71 -286t-61 -236q-7 -21 -38 -21q-12 0 -10 9l59 254q75 325 94 545l-13 71q1 18 15 32t36 30q9 16 27 41l28 42q39 -82 106 -238 l57 -136q6 -11 100 -198t94 -205z" />
<glyph unicode="9" horiz-adv-x="1056" d="M729 958q-53 0 -118 -102t-65 -147t13 -79t40 -34q7 -1 41 -1t64 17l14 -2h8q25 0 39 20t40 91q-6 46 -21 136q-10 58 -51 85q-3 3 0 13q-2 3 -4 3zM915 231q0 -15 -38 -67q-39 -52 -43 -70q-4 -20 -9 -52t-14 -33q-16 -1 -24 171t-12 208q-14 135 -52 141 q-52 -28 -106 -28t-67 2q-44 0 -66 56t-22 120t56 167t126 178t120 75q5 0 5 -5l-2 -14q0 -4 4 -7q41 -27 57 -75t24 -138t21 -153q13 -62 25 -422q2 -7 10 -23t7 -31z" />
<glyph unicode="&#x669;" horiz-adv-x="1056" d="M729 958q-53 0 -118 -102t-65 -147t13 -79t40 -34q7 -1 41 -1t64 17l14 -2h8q25 0 39 20t40 91q-6 46 -21 136q-10 58 -51 85q-3 3 0 13q-2 3 -4 3zM915 231q0 -15 -38 -67q-39 -52 -43 -70q-4 -20 -9 -52t-14 -33q-16 -1 -24 171t-12 208q-14 135 -52 141 q-52 -28 -106 -28t-67 2q-44 0 -66 56t-22 120t56 167t126 178t120 75q5 0 5 -5l-2 -14q0 -4 4 -7q41 -27 57 -75t24 -138t21 -153q13 -62 25 -422q2 -7 10 -23t7 -31z" />
<glyph unicode=":" horiz-adv-x="597" d="M300 332l2 96q0 34 -4 48t-4 16q14 19 37 44q85 94 116 94q15 0 29 -41t14 -60t-5 -22t-9 5q-11 29 -21 29t-25 -20.5t-24.5 -24t-23.5 -26.5q-14 -22 -46 -80t-36 -58zM300 -131l2 93q0 36 -4 51l-4 15q14 19 37 45q85 93 116 93q15 0 29 -40t14 -60q0 -18 -5 -22t-9 5 q-11 28 -21 28t-25 -20t-24.5 -24t-23.5 -27t-46 -80t-36 -57z" />
<glyph unicode="=" horiz-adv-x="1566" d="M688 476l-82 8l-12 -1q-10 1 -8 11t12 19q12 9 68 43q86 67 101 67q15 1 31 -7t33 -8t271 24t358 25q-2 -5 -48 -26t-75 -58q-16 -21 -86 -21q23 0 -113 -15t-190 -15t-86 -7q-34 -7 -89 -23t-85 -16zM767 892q15 0 31 -8t33 -7t271 25t358 24q-2 -7 -48 -27 q-46 -21 -75 -57q-16 -21 -86 -21q23 0 -113 -15t-192 -15q-56 1 -154 -21t-103 -22l-70 9l-28 -4q-7 -1 -5 9t13 20t67 42q86 68 101 68z" />
<glyph unicode="[" horiz-adv-x="865" d="M494 -594q-30 0 -53 146q-10 67 -45 201t-51 240q-16 107 -16 325t43 447t98 400t120 343q17 0 60 -146t43 -280q-1 -25 -93 -216t-104 -246t-36 -247t-24 -257q0 -591 238 -859q52 -59 58 -64q-26 -1 -64 45t-88 108q-51 62 -65 62q-14 -2 -21 -2z" />
<glyph unicode="]" horiz-adv-x="865" d="M624 116q0 65 -24 257t-36 247t-104 246t-92 216q0 134 43 280t59 146q124 -324 168 -512q43 -188 53 -240q41 -220 41 -438t-16 -325q-16 -106 -51 -240t-46 -201q-22 -146 -53 -146q-6 0 -20 2t-65 -62q-51 -62 -89 -108t-63 -45q5 5 58 64q237 268 237 859z" />
<glyph unicode="{" horiz-adv-x="1145" d="M543 -285q1 69 29 185t28 149q0 116 -88 191t-210 90v27q299 63 299 261q0 55 -27 171t-27 186q0 172 120 287t297 145v-26q-114 -18 -196 -90t-82 -182q0 -53 26 -185t27 -190q1 -128 -81 -220t-273 -160q351 -133 351 -411q0 -56 -28 -178t-27 -185q0 -212 283 -276 v-22q-177 32 -299 147t-122 286z" />
<glyph unicode="}" horiz-adv-x="1197" d="M718 49q0 -33 28 -149t28 -185q0 -171 -122 -286t-298 -147v22q283 64 283 276q1 63 -27 185t-28 178q0 138 75 235t260 167q-187 69 -263 163t-76 226q0 58 27 190t27 185q0 110 -82 182t-196 90v26q176 -30 296 -145t120 -287q0 -70 -27 -186t-27 -171q0 -198 300 -261 v-27q-122 -15 -210 -90t-88 -191z" />
<glyph unicode="&#xab;" horiz-adv-x="693" d="M435 234q0 84 17 169q17 86 41 154q24 67 29 74q6 1 21 -41t15 -98q0 -9 -15 -40l-29 -59q-23 -50 -31 -128q-7 -78 -7 -83q0 -188 75 -273q11 -12 17 -20v-6q-10 0 -38 34t-36 34q-9 0 -13 10q-8 37 -27 113t-19 160zM359 -110q-10 0 -38 34t-36 34q-9 0 -13 10 q-8 37 -26 111q-18 73 -19 159q0 86 8 130t20 96q13 53 33 110t26 64q4 0 20 -42t16 -97q0 -9 -15 -40l-29 -60q-23 -45 -31 -125t-8 -85q0 -188 76 -273q10 -12 16 -20v-6z" />
<glyph unicode="&#xad;" horiz-adv-x="1566" d="M767 516q15 0 31 -8t33 -8t271 24t358 25q-1 -2 -1 -4q-9 -5 -51 -24t-71 -55q-16 -21 -86 -21q23 0 -113 -15t-190 -15t-86 -7q-34 -8 -89 -24t-86 -16l-70 9l-23 -2q-10 1 -8 11t12 20q12 10 68 42q86 68 101 68z" />
<glyph unicode="&#xb7;" horiz-adv-x="319" d="M206 574q-42 0 -42 46t42 46t42 -46t-42 -46z" />
<glyph unicode="&#x2d9;" horiz-adv-x="319" d="M206 574q-42 0 -42 46t42 46t42 -46t-42 -46z" />
<glyph unicode="&#xbb;" horiz-adv-x="693" d="M506 198q0 4 -8 68t-14 92t-26 63l-35 62q-18 32 -18 50q-1 19 13 75t27 56q2 -2 35 -81t51 -162t18 -156t-9 -121q-22 -91 -36 -136q-9 -47 -21 -47q-5 1 -9 1t-39 -36t-46 -37q2 1 24 22q93 88 93 287zM238 660q103 -206 103 -400q0 -72 -9 -121q-22 -90 -35 -135 q-9 -48 -22 -48q-5 2 -9 2t-39 -36t-45 -37q1 1 23 21q93 89 93 287q0 6 -7 69q-7 64 -14 92t-26 63l-36 62q-18 31 -18 49t14 76q14 56 27 56z" />
<glyph unicode="&#xd7;" horiz-adv-x="1213" d="M1103 24q-5 0 -19.5 20.5t-24.5 24.5q-44 61 -249 222q-12 -14 -43 -50q-32 -35 -67 -94l-48 -81q-27 -38 -76 -67q-4 -3 -14.5 -15t-17.5 -12t-7 22t9 53l9 31q2 6 8 58q5 52 15 62t26 16t30 17q13 12 102 121q-43 37 -95 83q-51 47 -75 63t-34 34q-6 62 -26 92 q-28 44 -34 67q92 -65 325 -265l97 118q49 62 154 171q-35 -93 -35 -120l4 -35q0 -23 -47 -71q-36 -44 -100 -126q75 -64 88 -74q14 -11 32 -13t33 -13t40 -110q5 -12 29 -54q6 -16 13 -33q-4 -5 -4 -6l7 -25q0 -11 -5 -11z" />
<glyph unicode="&#xf7;" horiz-adv-x="1621" d="M767 437q15 0 31 -8t33 -8q17 1 271 25t358 24q-1 -2 -1 -4q-9 -5 -51 -24t-71 -56q-16 -20 -86 -20q23 0 -113 -15t-190 -15t-86 -8q-34 -8 -89 -23q-55 -16 -86 -16l-70 9l-23 -2q-10 0 -8 10t12 20q12 10 68 43q86 68 101 68zM935 13l1 80q0 48 -7 48q21 27 62 69 t61 41q12 -1 24 -33t11 -47t-5 -18t-7 3q-9 24 -17 24t-20 -16t-21 -20t-44.5 -67.5t-37.5 -63.5zM1130 776q13 0 24 -32t11 -48q-1 -15 -5 -18t-6 3q-9 24 -17 24t-19.5 -16.5t-21.5 -20.5t-45 -67.5t-38 -63.5q-2 2 -2 9l4 69q0 20 -7 51q20 26 61 68t61 42z" />
<glyph unicode="&#x60c;" horiz-adv-x="603" d="M498 112q0 -17 -11 -32l-22 -30q-5 -8 -15 -30t-15 -22q-65 52 -90 46t-29 -7q-14 -1 -14 21t32 107t50 118t58 79q38 46 52 46t14 -6t-14 -24l-45 -59q-42 -67 -47 -91q-4 -24 20 -24t34 2q22 0 32 -38t10 -56z" />
<glyph unicode="&#x61b;" horiz-adv-x="592" d="M431 284q15 0 27 -36t12 -54t-5 -20t-8 4q-9 26 -19 26t-20 -15t-23 -30q-15 -5 -25 -23t-39 -68q-28 -52 -33 -52q-2 1 -2 10l4 75q0 32 -4 45t-4 14q13 17 34 40q76 84 105 84zM291 443q-13 0 -13 21t32 106q32 84 50 118t58 80q38 46 52 45q14 1 14 -5t-14 -24 l-46 -59q-42 -72 -46 -93q-4 -22 19 -22h17q13 1 18 1q22 1 32 -37t10 -56t-11 -33l-22 -30q-5 -7 -15 -29t-15 -22q-68 51 -92 45q-23 -6 -28 -6z" />
<glyph unicode="&#x61f;" horiz-adv-x="899" d="M571 -48l2 80q0 48 -7 48q20 26 62 68t60 42q13 0 24 -32t11 -48q-1 -15 -5 -18t-6 3q-9 24 -17 24t-20 -16.5t-21 -20.5t-44.5 -67t-38.5 -63zM386 725q0 130 75 253q37 61 68 61t94 -21t89 -36q26 -9 51 -17q22 -13 22 -33t-25 -46t-25 -38t13 -60q-93 38 -282 100 q14 -30 33 -125t25 -111t41 -86q36 -70 36 -91l5 -142v-26q0 -17 -4 -37t-8 -52q-4 -33 -16 -33t-12 17l9 69q-1 31 -23 104t-30 87q-43 50 -115 158q-21 44 -21 105z" />
<glyph unicode="&#x621;" horiz-adv-x="839" d="M721 89q-16 0 -31 5l-31 11q-57 -1 -127 -13t-107 -12q-87 -19 -252 -71l-48 -9q8 39 30 124q4 15 28 15h38q57 0 96 20q-69 120 -69 174q4 19 17 83t21 82q59 143 312 143q88 0 154 -124q-7 -81 -27 -102q-10 3 -14 34.5t-20 45.5t-69 28t-71 14q-73 -1 -141 -39 t-106 -84q34 -77 51 -108q57 -105 132 -132l254 11q14 -1 35 -3q0 -36 -8 -46t-21 -24q-10 -23 -26 -23z" />
<glyph unicode="&#x622;" horiz-adv-x="547" d="M544 1321q9 -1 9 -7q1 -6 -19 -22t-28 -26q-8 -11 -40 -11h-16q-9 -1 -19 -5q-85 -48 -123 -48h-8q-13 0 -55 10t-67 9q-6 -3 -24 -19t-22 -12q-1 3 1 8.5t2 7.5q0 19 40 48q5 5 17 23t22 18q8 0 16 -4.5t11.5 -4.5t40.5 -14q36 -14 52 -14t83 32t97 33l26 -2h4zM321 184 q1 -38 -15 -52t-51 -31t-69 -59t-43 -42q-18 0 -18 18q1 18 41 105q102 218 102 489q0 272 9 371l4 43q5 8 25 16t50 28t42 20t12 -2q-44 -30 -45 -55l-5 -98l5 -210l-18 -179q-26 -247 -26 -362z" />
<glyph unicode="&#x623;" horiz-adv-x="457" d="M447 1256q-9 0 -33 9l-127 -13q-47 -11 -93 -25t-69 -19q4 21 16 67q2 9 20 9l16 -1q31 0 52 11q-37 65 -36 85q3 62 20 101q33 75 168 75q47 0 83 -67q-4 -44 -14 -55q-6 1 -8 18t-11 25t-37 15t-54 7q-24 0 -61 -20t-57 -46q18 -41 27 -58q31 -57 72 -71l137 5 q7 0 19 -1q0 -20 -16 -38q-5 -13 -14 -13zM410 1090q11 0 12 -2q-44 -30 -45 -55l-5 -98q-1 -5 2 -86t3 -124l-19 -179q-26 -248 -26 -362q0 -38 -16 -52t-50.5 -31t-68.5 -59t-43 -42q-17 0 -17 18t44 114q44 95 71 225q27 131 27 329t9 297l4 43q5 8 25 16t51 28t42 20z " />
<glyph unicode="&#x624;" horiz-adv-x="1040" d="M788 687q-7 0 -35 8l-127 -13q-46 -10 -92 -24t-69 -19q4 21 16 67q2 8 20 8h15q31 0 52 11q-37 64 -36 84q3 63 20 102q17 38 62 56q46 18 100 18t89 -67q-4 -44 -14 -55q-6 2 -10 34t-84 32q-40 0 -77 -21t-57 -45q19 -42 28 -59q30 -57 71 -71l137 6q8 -1 19 -2 q0 -19 -15 -38q-6 -12 -13 -12zM882 212q0 96 -69 141q-35 23 -87 23t-78 -34q-14 -17 -31 -68q-17 -52 -25 -70t-9 -30q-1 -44 47 -78t93 -34q159 0 159 150zM172 -526q-44 0 -47 13q0 10 60 37l131 58q82 37 138 81t94 77q120 102 178 200q-9 48 -89 48q-17 0 -44 -1 l-29 -1q-24 0 -40 5q-24 49 -24 101t22 120t56 174t114 107q26 -1 48 -7t139 -50q3 -2 51 -27t47 -70q0 -20 -7 -44q1 -5 1 -16q0 -113 -121 -349q-49 -96 -83 -131q-103 -107 -287 -216t-308 -109z" />
<glyph unicode="&#x625;" horiz-adv-x="430" d="M277 -476q-9 0 -33 9l-127 -13q-47 -10 -93 -24t-69 -20q4 21 16 67q2 9 20 9h16q31 0 52 10q-37 65 -36 85q3 59 20 99q32 77 168 77q47 0 83 -67q-4 -44 -14 -55q-6 2 -8 18.5t-10 24.5t-38 16t-54 7q-24 0 -61 -21t-57 -46q18 -41 27 -58q31 -57 72 -71l137 6 q8 -1 19 -2q0 -19 -16 -38q-5 -13 -14 -13zM278 183q0 -38 -16 -52t-50.5 -31t-68.5 -59t-43 -42q-18 1 -18 19t40 104q102 217 102 490q0 272 10 370l4 43q4 8 24 16t51 28t43 20t11 -2q-44 -30 -45 -54l-5 -99l5 -210l-19 -179q-25 -247 -25 -362z" />
<glyph unicode="&#x626;" horiz-adv-x="1438" d="M599 420q-8 0 -34 9l-127 -14q-46 -10 -92 -24t-69 -19q4 21 15 67q3 9 20 9l16 -1q31 0 52 11q-37 65 -36 85q3 62 20 101q33 75 168 75q48 0 83 -67q-4 -44 -14 -55q-6 1 -8.5 18t-10.5 25t-37 14q-29 8 -53 8t-62 -20q-37 -20 -57 -46q19 -42 28 -58q30 -57 71 -72 l137 6q8 0 19 -1q0 -20 -15 -38q-6 -13 -14 -13zM1375 486q0 -37 -29 -63q-82 100 -159 100q-220 0 -335 -67q-76 -44 -93 -114q48 -106 194 -170q83 -32 248 -102q125 -58 139 -167q-64 -246 -350 -313q-127 -30 -317 -30h-64q-193 0 -264 16t-109 39q-38 25 -60 91 t-51 183q7 59 100 137q7 5 33 26q32 32 42 69t20 79t31 41q21 0 21 -40q0 -83 -42 -125q-133 -166 -133 -222t16 -84q52 -93 293 -93q125 0 253 7q417 21 492 95q-18 105 -164 180q-87 40 -260 123q-136 70 -136 162q9 86 79 172t169 142t216 57q220 0 220 -129z" />
<glyph unicode="&#x627;" horiz-adv-x="473" d="M321 184q1 -38 -15 -52t-51 -31t-69 -59t-43 -42q-18 0 -18 18t45 114q45 95 71 225q27 131 27 329t9 297l4 43q5 8 25 16t50 28t42 20t12 -2q-44 -30 -45 -55l-5 -98l5 -210l-18 -179q-26 -248 -26 -362z" />
<glyph unicode="&#x628;" horiz-adv-x="1288" d="M634 -315q13 0 24 -33q11 -34 11 -48t-5 -18q-4 -2 -6 4q-9 24 -17 24t-20 -16t-21 -20t-44.5 -68t-38.5 -64q-2 2 -2 9l4 69q0 21 -7 50q20 27 62 69t60 42zM1147 362l-24 98v6q0 8 34.5 31.5t42.5 23.5q26 0 25 -72q0 -72 -69.5 -183.5t-149.5 -155.5q-52 -28 -106 -44 q-276 -81 -489 -81q-85 0 -132 9q-154 26 -154 158t87 282q42 72 170 239q76 154 87 154q5 -1 5 -15t-5 -45q8 -9 8 -25t-17 -40l-125 -189q-32 -47 -103 -149q-32 -47 -32 -93q0 -100 128 -148q91 -34 210 -34h34q198 0 382 80t192 159v12q1 8 1 22z" />
<glyph unicode="&#x62a;" horiz-adv-x="1288" d="M805 643l1 65q0 67 -6 64t-7 3q-9 24 -17 24t-20 -17t-22 -20t-44.5 -67t-37.5 -64q-2 1 -2 9l4 69q0 20 -3.5 35.5t-4.5 14.5q21 27 62 69t61 42q13 0 24 -33t11 -46t-2 -16q20 26 60 66q40 41 60 41q12 0 24 -33t11 -47q0 -14 -5 -19q-4 -2 -7 4q-9 24 -17 24t-20 -17 t-21 -20t-44.5 -67t-37.5 -64zM1147 362l-24 98v6q0 8 34.5 31.5t42.5 23.5q26 0 25 -72q0 -72 -69.5 -183.5t-149.5 -155.5q-52 -28 -106 -44q-276 -81 -489 -81q-85 0 -132 9q-154 26 -154 158t87 282q42 72 170 239q76 154 87 154q5 0 5 -15t-5 -45q8 -9 8 -25t-17 -40 l-125 -189q-32 -47 -103 -149q-32 -47 -32 -93q0 -100 128 -148q91 -34 210 -34h34q198 0 382 80t192 159v12q1 8 1 22z" />
<glyph unicode="&#x62b;" horiz-adv-x="1288" d="M667 645l1 65q0 32 -3 48t-4 15q21 27 62 69t61 42q12 0 24 -33t11 -45q0 -12 -2 -17q19 26 60 66q40 41 59 41q13 0 24 -33t11 -47t-5 -19q-4 -2 -6 4q-9 24 -17 24t-20 -16.5t-21 -20.5t-44.5 -67.5t-38.5 -63.5q-2 1 -2 9l4 69q0 21 -7 50q-4 -2 -7 4q-9 24 -17 24 t-19 -16.5t-21 -20.5t-45.5 -67.5t-37.5 -63.5zM953 1131q13 0 24 -33t11 -48t-4 -18t-7 4q-9 23 -17 23t-20 -16.5t-17 -18.5q-14 -4 -49 -68t-38 -64q-2 1 -2 9l4 68q0 21 -7 51q20 27 61 69t61 42zM1147 362l-24 99v6q0 7 34.5 31t42.5 24q26 0 25 -72q0 -72 -69.5 -184 t-149.5 -155q-52 -29 -106 -45q-266 -80 -489 -80q-85 0 -132 8q-154 28 -154 160t87 281q42 71 170 239q76 153 87 153q5 -1 5 -15t-5 -45q8 -8 8 -24t-17 -41l-125 -189q-32 -47 -103 -149q-32 -46 -32 -93q0 -100 128 -148q91 -34 210 -34h34q198 0 382 80t192 159v12 q1 8 1 22z" />
<glyph unicode="&#x62c;" horiz-adv-x="1364" d="M905 -167q13 -1 24 -33t11 -47t-4 -18t-7 4q-9 23 -17 23t-20 -16t-22 -20t-44.5 -67.5t-37.5 -63.5q-2 1 -2 8l4 69q0 20 -7 51q19 27 61 69t61 41zM1288 584q10 0 12 -68q1 -68 -34 -85q-216 -45 -339 -116t-263 -241q-36 -46 -110 -137q-62 -71 -182 -214 q-84 -106 -149 -216q-64 -110 -64 -155q0 -16 14 -42q51 -91 181 -91q30 0 139 18q299 49 524 121q16 6 76 46t78 40q42 0 42 -56t-24 -90q-6 -10 -12 -10q-12 7 -25 13l-504 -138q-193 -52 -400 -75q-62 35 -93 141q-7 25 -30 118q-1 111 57 221t125 202t237 292 q170 202 280 324q-183 0 -292 -17t-117 -17t-8 4q1 63 23 83t131 32t245 12q195 32 249 32q52 23 104 23q111 46 129 46z" />
<glyph unicode="&#x62d;" horiz-adv-x="1364" d="M1288 584q10 0 12 -68q1 -68 -34 -85q-216 -45 -339 -116t-263 -241q-36 -46 -110 -137q-62 -71 -182 -214q-84 -106 -149 -216q-64 -110 -64 -155q0 -16 14 -42q51 -91 181 -91q30 0 139 18q299 49 524 121q16 6 76 46t78 40q42 0 42 -56t-24 -90q-6 -10 -12 -10 q-12 7 -25 13l-504 -138q-193 -52 -400 -75q-62 35 -93 141q-7 25 -30 118q-1 111 57 221t125 202t237 292q170 202 280 324q-183 0 -292 -17t-117 -17t-8 4q1 63 23 83t131 32t245 12q195 32 249 32q52 23 104 23q111 46 129 46z" />
<glyph unicode="&#x62e;" horiz-adv-x="1364" d="M818 1006q13 0 24 -32t11 -48q-1 -15 -5 -18t-7 4q-9 23 -17 23t-19.5 -16.5t-16.5 -18.5q-14 -4 -49 -68t-38 -64q-2 1 -2 8l3 69q0 51 -7 51q21 26 62 68t61 42zM1288 587q10 0 12 -68q1 -68 -34 -85q-216 -45 -339 -115q-123 -71 -263 -242q-36 -46 -110 -137 q-62 -70 -182 -214q-84 -106 -149 -216q-64 -110 -64 -155q0 -16 14 -42q51 -91 181 -91q30 0 139 18q299 49 524 121q16 5 76 45t78 41q42 1 42 -55t-24 -91q-6 -10 -12 -10q-12 7 -25 13l-504 -137q-193 -53 -400 -76q-62 35 -93 141q-7 25 -30 118q-1 112 57 222t125 200 q67 92 237 294t280 323q-183 0 -292 -17t-117 -17t-8 4q1 63 23 83t131 32t245 12q186 32 249 32q52 23 104 23q111 46 129 46z" />
<glyph unicode="&#x62f;" horiz-adv-x="888" d="M169 -74q0 64 62 64q10 0 51 -5l87 -10q46 -6 80 -6q143 0 226 63t83 165q0 137 -102 227q-30 27 -60 53t-59 36q-9 2 -49 -16t-47 -18q-7 -1 -7 7t12 35t14 35t-9 34t-11 36t11 14q227 -56 333 -198q42 -56 42 -111t-34 -183q-34 -127 -40 -165q-32 -41 -66 -59 t-100 -20l-168 -4q-111 -2 -156 -18t-78 -39q-33 -24 -46 -24t-13 6q44 79 44 101z" />
<glyph unicode="&#x630;" horiz-adv-x="888" d="M491 1094q11 0 23 -33t12 -48t-4 -18t-8 4q-9 23 -17 23t-19.5 -16.5t-21.5 -19.5t-44.5 -67t-37.5 -64q-2 1 -2 9l3 68q0 20 -3 36t-4 15q21 27 62 69t61 42zM125 -183q44 88 44 101q0 65 62 65q10 0 51 -5l87 -11q46 -6 80 -6q143 0 226 63t83 166q0 136 -102 226 q-30 28 -60 54t-59 35q-9 3 -49 -15t-47 -19t-7 7t12 35t14 35t-9 34t-11 37t11 14q227 -57 333 -199q42 -56 42 -111t-34 -183q-34 -127 -40 -165q-32 -39 -66 -58t-100 -21l-168 -3q-111 -3 -156 -18t-78 -39t-46 -25q-13 0 -13 6z" />
<glyph unicode="&#x631;" horiz-adv-x="809" d="M-60 -592v23q0 18 28 73q26 55 51 69q8 24 158 61q41 11 52 13q52 21 122 55q338 165 338 280q-1 46 -17 86t-34 80l-32 71q-11 24 -11 67q21 67 61 128q14 33 19 40q22 9 50 -184l14 -136q4 -35 8 -52l-4 -49q-12 -142 -60 -180q-39 -42 -58 -63q-109 -116 -444 -238 q-119 -44 -193 -120q-28 -28 -38 -28t-10 4z" />
<glyph unicode="&#x632;" horiz-adv-x="809" d="M544 720l2 66q0 32 -3 47.5t-4 14.5q19 28 61 70t62 41q12 0 23 -33q11 -34 11 -48t-4 -18q-4 -2 -7 4q-9 24 -17 24t-20 -16t-21 -20t-44.5 -68t-38.5 -64zM-50 -573q-10 1 -10 5v22t27 73t52 70q8 21 103 46q96 25 107 27q52 21 122 55q338 165 338 281q-1 46 -17 86 t-34 80l-32 70q-11 25 -11 68q21 67 61 128q14 32 19 39q23 9 50 -184l14 -135q4 -36 8 -53l-4 -49q-12 -141 -60 -180q-39 -41 -58 -62q-109 -117 -444 -239q-117 -43 -193 -120q-28 -28 -38 -28z" />
<glyph unicode="&#x633;" horiz-adv-x="1308" d="M1049 155q96 0 96 111q1 18 -7 28t-8 50t12.5 48.5t39.5 26.5l18 36q4 9 15 32q30 1 30 -61t-18 -99t-39 -98t-33 -80q-82 -138 -185 -138q-9 1 -22 53t-43 102l-46 -90q-53 -95 -98 -95h-9q-14 3 -19 36t-28 64q-12 -10 -63 -140q-19 -49 -51 -78q-106 -96 -223 -96 q-117 -1 -180 71t-63 182q0 256 54 392.5t73 136.5q6 0 6 -35t-60 -221q-21 -75 -21 -147q0 -140 74 -222t210 -82q120 11 120 140q0 40 -11 94q-17 57 -46 173q6 27 30 73t60 76q16 -34 47 -186q15 -59 35 -84t52 -25q33 0 70.5 46t37.5 72q0 27 -13 47t-13 30q0 21 100 62 q21 -6 21 -37l-3 -54q0 -58 31 -86t70 -28z" />
<glyph unicode="&#x634;" horiz-adv-x="1308" d="M911 793q13 -1 24 -33t11 -44t-2 -17q20 25 60 66q40 40 60 40q12 -1 24 -33t11 -47t-5 -18t-7 3q-9 24 -17 24t-19 -16t-21 -20t-45 -67.5t-38 -63.5q-2 1 -2 8l3 69q0 51 -7 51q-4 -3 -6 3q-9 24 -17 24t-20 -16t-21 -20t-44.5 -67.5t-38.5 -63.5q-2 1 -2 8l4 69 q0 20 -7 51q19 27 61 69t61 41zM980 847l2 65q0 32 -3 48t-4 15q21 27 62 69t61 42q12 0 24 -33t11 -47t-5 -18t-7 3q-9 23 -17 23t-20 -16t-21 -20q-9 -3 -44.5 -67t-38.5 -64zM1049 85q96 0 96 111q1 18 -7 28t-8 50t12.5 48.5t39.5 26.5l18 36q4 9 15 32q30 0 30 -62 q0 -63 -18 -99t-39 -97t-33 -80q-82 -138 -185 -138q-9 1 -22 53t-43 102l-46 -90q-53 -95 -98 -95h-9q-14 3 -19 36t-28 64q-12 -10 -63 -140q-19 -49 -51 -78q-106 -96 -223 -96q-117 -1 -180 71t-63 182q0 256 54 392.5t73 136.5q6 0 6 -35t-60 -221q-21 -75 -21 -147 q0 -140 74 -222t210 -82q120 11 120 140q0 40 -11 94q-17 57 -46 173q6 26 30 72t60 77q16 -34 47 -186q15 -58 35 -84t52 -26q33 0 70.5 46.5t37.5 72.5q0 27 -13 47t-13 30q0 21 100 62q21 -6 21 -37l-3 -54q0 -58 31 -86t70 -28z" />
<glyph unicode="&#x635;" horiz-adv-x="1612" d="M1367 655q74 -1 128 -35t54 -92t-33 -134q-98 -227 -314 -321q-216 -93 -310 -111t-201 -18q-17 -16 -50 -76t-50 -79q-87 -96 -239 -96q-101 -1 -164 71t-63 182q0 256 26 322q11 28 51 118t50 90q6 0 6 -34t-60 -223q-21 -74 -21 -147q0 -138 74 -221t210 -83 q120 11 120 140q0 41 -11 94q-17 58 -46 174q6 26 30 72t60 76q9 -20 62 -247q25 -71 75 -71q16 0 62 115t73 169q86 171 241 281q118 84 240 84zM1412 372q0 68 -70 112t-134 45t-101 -41t-87 -132t-73 -123q-53 -99 -108 -167q302 0 399 62q130 80 164 190q10 29 10 54z " />
<glyph unicode="&#x636;" horiz-adv-x="1612" d="M1302 1131q13 -1 24 -33t11 -47q-1 -15 -5 -18t-7 4q-9 23 -17 23t-19.5 -16.5t-16.5 -18.5q-14 -4 -49 -68t-38 -64q-2 1 -2 8l4 69q0 20 -3.5 35.5t-4.5 15.5q21 27 62 69t61 41zM1367 632q74 0 128 -34t54 -92t-33 -134q-98 -227 -314 -321q-216 -93 -310 -111 t-201 -18q-17 -16 -50 -76t-50 -79q-87 -96 -239 -96q-101 -1 -164 71t-63 182q0 256 26 322q11 28 51 118t50 90q6 0 6 -35t-60 -222q-21 -75 -21 -147q0 -140 74 -222t210 -82q120 11 120 140q0 41 -11 94q-17 57 -46 173q6 27 30 73t60 76q9 -20 62 -247q25 -71 75 -71 q16 0 62 115t73 169q86 171 241 281q118 83 240 83zM1412 350q0 67 -70 112t-134 45q-64 1 -101 -41t-87 -132t-73 -123q-53 -100 -108 -167q296 0 399 61q130 81 164 191q10 29 10 54z" />
<glyph unicode="&#x637;" horiz-adv-x="1157" d="M800 488q-56 0 -122 -49t-295 -303q156 15 344 58t284 102q-29 34 -67 92t-63 79q-26 21 -81 21zM259 82q30 0 94 88q108 148 156 201q122 139 264 223q22 13 30.5 37t20.5 24q43 0 56 -30l8 -39q22 -24 64 -71q44 -41 124 -127q18 -20 18 -40t-13 -48 q-57 -118 -257 -169q-117 -36 -353 -101q-86 -21 -142 -21q-35 -5 -67 -52t-48 -47q-19 -2 -19 19l13 63q0 9 -12 9h-12q-6 0 -40 -1q-17 0 -17 44q-2 11 -2 20q0 18 17 18l31 -3h7l68 3h11zM435 385v22q0 88 -32 314t-32 246q23 63 36 87t33 36q9 -105 52 -452l18 -135v-23 t-33 -61q-34 -44 -40 -48q-2 2 -2 14z" />
<glyph unicode="&#x638;" horiz-adv-x="1157" d="M744 1156q12 0 24 -32t11 -48q-1 -15 -5 -18t-7 4q-9 23 -17 23t-19 -16.5t-21 -20.5t-45 -67t-38 -63q-2 1 -2 8l3 69q0 51 -7 51q21 26 62 68t61 42zM800 508q-56 0 -122 -49t-295 -303q156 15 344 58t284 102q-29 34 -67 92t-63 79q-26 21 -81 21zM259 102q30 0 94 88 q108 148 156 201q122 139 264 223q22 13 30.5 37t20.5 24q43 0 56 -30l8 -39q22 -24 64 -71q44 -41 124 -127q18 -20 18 -40t-13 -48q-57 -117 -257 -169q-117 -36 -353 -101q-86 -21 -142 -21q-35 -5 -67 -52t-48 -47q-19 -2 -19 19l13 64q0 8 -12 8h-12q-6 0 -40 -1 q-17 0 -17 44q-2 11 -2 20q0 18 17 18l31 -3h7l68 3h11zM435 405v22q0 88 -32 314t-32 246q23 63 36 87t33 36q8 -98 52 -452l18 -135v-23t-33 -61q-34 -44 -40 -48q-2 2 -2 14z" />
<glyph unicode="&#x639;" horiz-adv-x="1356" d="M1293 265q0 -28 -25 -53.5t-53 -25.5q-24 -137 -66 -137q-16 0 -57 27q-40 27 -70 42t-63 15t-69 -44t-95 -110q-61 -62 -230 -236t-298 -390q-76 -127 -76 -173q0 -76 45 -114t119 -38t662 158q33 11 114 39l66 22q19 7 23 7t4 -10q0 -56 -35 -117q-6 -10 -12 -10 q-12 6 -25 12l-504 -137q-193 -52 -400 -75q-62 34 -93 140q-7 25 -30 118q0 113 58 223t129 207q10 14 99 108l192 203q106 113 191 207q2 19 -40 71t-75 103q-33 50 -33 155q0 154 138 199q31 6 62 13l56 6q42 4 60 10t39 28q20 21 26 21t8 -15q-17 -56 -17 -111 q0 -23 36 -81q-1 -3 -6 -5q-36 37 -100 37t-144 -38q-19 -9 -35 -36l-54 -87q85 -144 115 -151q97 -37 172 -37q76 0 110 9t169 61q12 5 12 -10z" />
<glyph unicode="&#x63a;" horiz-adv-x="1356" d="M883 1100q13 0 24 -33t11 -48t-4 -18t-7 4q-9 23 -17 23t-20 -16.5t-21 -19.5t-44.5 -67t-38.5 -64q-2 1 -2 9l4 68q0 21 -7 51q19 27 61 69t61 42zM1293 225q0 -28 -25 -53.5t-53 -25.5q-24 -137 -66 -137q-16 0 -57 27q-40 27 -70 42t-63 15t-69 -44t-95 -110 q-61 -62 -230 -236t-298 -390q-76 -127 -76 -173q0 -76 45 -114t119 -38t662 158q33 11 114 39l66 22q19 7 23 7t4 -10q0 -57 -35 -117q-6 -10 -12 -10q-12 6 -25 12l-504 -137q-193 -52 -400 -75q-62 34 -93 140q-7 25 -30 118q0 113 58 223t129 207q10 14 99 108l192 203 q106 113 191 207q2 19 -40 71t-75 103q-33 50 -33 155q0 154 138 199q31 6 62 13l56 6q42 4 60 10t39 28q20 21 26 21t8 -15q-17 -56 -17 -111q0 -23 36 -81q-1 -4 -6 -5q-36 37 -100 37t-144 -38q-19 -9 -35 -36l-54 -87q85 -144 115 -151q97 -37 172 -37q76 0 110 9 t169 61q12 4 12 -10z" />
<glyph unicode="&#x640;" horiz-adv-x="271" d="M289 0h-303v82h303v-82z" />
</font>
</defs>
</svg>
