<?xml version="1.0" standalone="no"?>
<!DOCTYPE svg PUBLIC "-//W3C//DTD SVG 1.1//EN" "http://www.w3.org/Graphics/SVG/1.1/DTD/svg11.dtd" >
<svg xmlns="http://www.w3.org/2000/svg" xmlns:xlink="http://www.w3.org/1999/xlink" version="1.1">
<metadata></metadata>
<defs>
<font id="bsetarehregular" horiz-adv-x="1056" >
<font-face units-per-em="2048" ascent="1638" descent="-410" />
<missing-glyph horiz-adv-x="418" />
<glyph horiz-adv-x="0" />
<glyph unicode="&#xd;" horiz-adv-x="418" />
<glyph unicode=" "  horiz-adv-x="418" />
<glyph unicode="&#x09;" horiz-adv-x="418" />
<glyph unicode="&#xa0;" horiz-adv-x="418" />
<glyph unicode="!" horiz-adv-x="549" d="M281 60q19 27 61 69t61 42q13 0 24 -33t11 -48t-4 -18t-7 4q-9 23 -17 23t-20 -16.5t-17 -18.5q-14 -4 -49 -68t-38 -64q-2 1 -2 9l4 68q0 21 -7 51zM281 150q0 16 16.5 72.5t20.5 146.5t5 370v138q20 28 63 83q39 62 42 62q-1 -6 -1 -12q-22 -40 -22 -73t4 -55t3 -240 q-1 -217 -10 -281q-8 -65 -16 -83t-36 -48q-64 -69 -67 -97q-2 1 -2 17z" />
<glyph unicode="%" horiz-adv-x="1151" d="M461 1206q21 26 62 68t61 42q12 0 24 -32t11 -48q-1 -15 -5 -18t-7 3q-9 24 -17 24t-20 -16.5t-21 -20.5t-44.5 -67t-37.5 -63l1 80q0 48 -7 48zM524 -106q3 1 6 3q-3 -9 -5 -9q-1 3 -1 6zM530 -103q19 53 60 262q42 209 51 250l45 211q26 118 50 202t64 302l60 348 q27 154 37 154q3 0 9 -116t5 -186q-1 -69 -63 -332q-113 -476 -126 -538l-23 -108q-35 -170 -35 -200t10 -150q0 -34 -20 -34q-7 0 -124 -65zM882 377q21 27 62 69t61 41q13 -1 24 -33t11 -47t-4 -18t-7 3q-9 24 -17 24t-20 -16t-22 -20t-44.5 -68t-37.5 -64q-2 2 -2 9l4 69 q0 20 -3.5 35.5t-4.5 15.5z" />
<glyph unicode="(" horiz-adv-x="871" d="M397 276q0 354 198 823q31 73 35 77q29 0 71 -174q20 -81 20 -144q0 -19 -41 -90l-79 -140q-45 -78 -51 -105q-24 -100 -40 -243t-17 -155q0 -448 211 -647q48 -46 52 -49q-23 0 -65 43q-120 122 -131 122l-15 -3q-28 0 -48 107q-31 101 -80 305q-20 109 -20 273z" />
<glyph unicode=")" horiz-adv-x="871" d="M397 -571q4 3 52 49q211 199 211 647q0 12 -16 155t-40 243q-7 27 -52 105l-79 140q-41 71 -41 90q0 63 20 144q42 174 71 174q4 -4 63 -144q170 -402 170 -781q0 -139 -20 -248q-49 -204 -80 -305q-20 -107 -47 -107l-16 3q-11 0 -131 -122q-42 -43 -65 -43z" />
<glyph unicode="*" horiz-adv-x="1566" d="M586 318q2 10 12 19q12 9 68 43q86 67 101 67l64 -15q17 0 133 12q-4 8 -9 16l-84 155q-35 50 -35 71q13 46 13 61t-3 29l-12 67l2 4q51 -71 206 -344l78 137q110 188 121 193l-15 -103l12 -68q0 -13 -34 -62q-26 -48 -77 -141q251 22 333 22q-2 -5 -48 -26t-75 -58 q-16 -21 -86 -21q20 0 -128 -16q25 -44 32 -54q18 -12 49 -43q8 -11 8 -42l-4 -72l5 -72q0 -45 -16 -45q-9 2 -23 31q-44 39 -56 65t-34 84t-42 98q-27 -48 -44 -94l-34 -88q-20 -43 -63 -81q-3 -2 -11.5 -16t-11.5 -14q-16 0 -16 46l1 17v127q0 29 8 40q14 7 49 44 q6 8 33 55q-62 -1 -94 -7q-31 -7 -86 -23t-85 -16l-82 8l-12 -1q-10 1 -8 11z" />
<glyph unicode="+" horiz-adv-x="1566" d="M586 318q2 10 12 19q12 9 68 43q86 67 101 67l64 -15q17 0 139 12l-10 143q-9 143 1 155q33 38 41 66t18 66l3 3q17 -93 43 -424q302 28 394 28q-2 -5 -48 -26t-75 -58q-16 -21 -86 -21q23 0 -77 -11t-100 -10q6 -60 20 -133q14 -20 16 -34t-20 -56q-24 -42 -34 -72 q-10 -28 -20 -48q-8 -20 -20 -24t-15 12q-1 12 -3 23q-24 53 -24 104l10 142q0 36 -4 77h-56q-46 0 -126 -23t-110 -23l-82 8l-12 -1q-10 1 -8 11z" />
<glyph unicode="," horiz-adv-x="599" d="M294 -194q0 6 14 23l45 59q41 70 46 93t-18 23l-35 -2q-22 0 -32 38t-10 56q0 17 11 32l22 30q5 7 15 29t14 22l25 -18q43 -32 67 -26q22 5 32 5t10 -20q0 -22 -32 -107t-50 -119t-58 -78q-39 -46 -60 -46q-6 0 -6 6z" />
<glyph unicode="-" horiz-adv-x="1566" d="M586 386q2 10 12 20q12 10 68 42q86 68 101 68t31 -8t33 -8t271 24t358 25q-1 -2 -1 -4q-9 -5 -51 -24t-71 -55q-16 -21 -86 -21q23 0 -113 -15t-190 -15t-86 -7q-34 -8 -89 -24t-86 -16l-70 9l-23 -2q-10 1 -8 11z" />
<glyph unicode="." horiz-adv-x="597" d="M294 148q14 19 37 44q85 94 116 94q15 0 29 -41t14 -59t-5 -22t-9 4q-11 29 -21 29q-10 -1 -25 -21t-24.5 -23.5t-23.5 -26.5t-46 -80t-36 -57l2 95q0 34 -4 48t-4 16z" />
<glyph unicode="/" horiz-adv-x="863" d="M373 -210q3 1 6 3q-3 -9 -5 -9q-1 3 -1 6zM379 -207q17 49 60 260q42 210 51 252l45 211q27 117 51 201t63 302l60 348q27 154 37 154q2 -1 8 -117t6 -186t-62 -331q-115 -483 -127 -538l-23 -107q-35 -170 -35 -200t10 -150q0 -34 -20 -34q-7 0 -124 -65z" />
<glyph unicode="0" horiz-adv-x="669" d="M313 587q14 18 47 55q106 117 145 117q20 -1 37 -51t17 -74q-1 -24 -7 -28t-10 7q-15 36 -27 36q-12 1 -31 -25t-33.5 -31.5t-68.5 -105.5q-54 -99 -61 -99l3 118q0 40 -6 60t-5 21z" />
<glyph unicode="1" d="M566 917q26 47 55 81t39 62t24 29q4 -11 12 -63t21 -107q35 -110 64 -298t29 -364l-2 -72q-27 -29 -56 -108q-28 -79 -34 -79t-6 55q14 26 14 122q0 97 -22 231t-30 200q-9 66 -56 177t-52 134z" />
<glyph unicode="2" d="M433 692q0 98 55 190q55 90 127.5 153.5t118.5 63.5t139 -48q7 -3 39 -5t32 -9q0 -13 -66 -73t-75 -94q-2 -8 -10 -8l-176 57q-61 -39 -97 -79t-36 -60q0 -19 34 -85t94 -179q58 -114 80 -178t50 -136l27 -68q0 -85 26 -101q-9 -10 -47 -17t-50 -7q-30 1 -38 45t-25 133 t-48 143t-63 107q-91 157 -91 255z" />
<glyph unicode="3" horiz-adv-x="1057" d="M361 996q1 12 13 29t39 52q10 -20 61 -133t113 -187q16 15 72 66t56 87l-30 111q0 6 17 14l21 10q9 -29 15 -60t12 -50q22 -77 97 -106q4 -2 12 -2q8 1 37 23t47 29q0 97 7 138q7 18 15 36q0 17 14.5 35t31.5 18q6 0 6 -32l-2 -104q0 -103 -44 -139q-13 -10 -48 -66 t-61 -56t-127 64q-42 0 -143 -121q13 -81 30 -200l29 -203q13 -101 13 -117t-1 -24q0 -8 -17 -28q-17 -19 -35 -47q-5 27 -17 131q-36 310 -115 495q-36 84 -111 231q-7 33 -7 106z" />
<glyph unicode="4" d="M438 124q0 95 221 348q29 34 143 158q-48 30 -134 60t-98 34q-43 21 -43 53q0 97 169 260q65 62 89 62q7 0 7 -11t-76 -83q-76 -71 -77 -75q0 -41 78 -72q193 -75 221 -96q-28 -76 -86 -156t-84 -112q-26 -30 -95 -112t-115 -126q63 -52 154 -52l120 11q37 0 37 -32 q-1 -15 -13 -27t-75 -68q-14 -79 -37 -79q-10 0 -74 23t-115 38l-66 9q-51 13 -51 45z" />
<glyph unicode="5" d="M420 120q0 273 74 451q34 81 109 212q37 51 61 103t27 54q38 0 93 -34q173 -109 173 -364q0 -62 -60 -300q-41 -20 -67 -25t-193 -53t-192 -47q-25 0 -25 3zM497 426q1 -59 17 -86t71 -27q109 -1 143 1t146 38q0 252 -112 379q-44 49 -80 49t-147 -256q-38 -89 -38 -98z " />
<glyph unicode="6" d="M436 987q74 99 99 99h15l185 -16q47 0 96 24q36 -215 66 -477l22 -191q11 -95 22 -154q-3 -27 -31 -83t-32 -71t-12 -63q-10 -48 -18 -48v46l-9 103q-23 302 -23 366q-9 75 -19 192q-9 116 -17 154t-27 57q-45 43 -156 43t-161 19z" />
<glyph unicode="7" d="M387 798q1 48 27 126t26 102t-8 43l-19 31q1 2 4 3q76 0 117 -139q26 -104 82 -314t139 -331q59 120 152 503l45 188q3 3 15.5 20t17.5 17t5 -24q-50 -177 -96 -422q-46 -246 -57 -369q1 -24 7 -42t6 -29q0 -28 -52 -59q-5 -10 -53 -82q-43 84 -107 239l-58 136 q-5 12 -99 198t-94 205z" />
<glyph unicode="8" d="M387 72l59 254q75 325 94 545l-13 71q1 18 15 32t36 30q9 16 27 41l28 42q39 -82 106 -238l57 -136q6 -11 100 -198t94 -205q0 -48 -26 -126t-27 -106q0 -28 27 -71q-1 -2 -4 -2q-75 0 -113 139q-25 105 -77.5 315.5t-133.5 331.5q-40 -79 -69 -185t-71 -286t-61 -236 q-7 -21 -38 -21q-12 0 -10 9z" />
<glyph unicode="9" d="M462 679q0 64 56 167t126 178t120 75q5 0 5 -5l-2 -14q0 -4 4 -7q41 -27 57 -75t24 -138t21 -153q13 -62 25 -422q2 -7 10 -23t7 -31q0 -15 -38 -67q-39 -52 -43 -70q-4 -20 -9 -52t-14 -33q-16 -1 -24 171t-12 208q-14 135 -52 141q-52 -28 -106 -28t-67 2q-44 0 -66 56 t-22 120zM546 709q0 -45 13 -79t40 -34q7 -1 41 -1t64 17l14 -2h8q25 0 39 20t40 91q-6 46 -21 136q-10 58 -51 85q-3 3 0 13q-2 3 -4 3q-53 0 -118 -102t-65 -147z" />
<glyph unicode=":" horiz-adv-x="597" d="M294 28q14 19 37 45q85 93 116 93q15 0 29 -40t14 -60q0 -18 -5 -22t-9 5q-11 28 -21 28t-25 -20t-24.5 -24t-23.5 -27t-46 -80t-36 -57l2 93q0 36 -4 51zM294 492q14 19 37 44q85 94 116 94q15 0 29 -41t14 -60t-5 -22t-9 5q-11 29 -21 29t-25 -20.5t-24.5 -24 t-23.5 -26.5q-14 -22 -46 -80t-36 -58l2 96q0 34 -4 48t-4 16z" />
<glyph unicode="=" horiz-adv-x="1566" d="M586 494q2 10 12 19q12 9 68 43q86 67 101 67q15 1 31 -7t33 -8t271 24t358 25q-2 -5 -48 -26t-75 -58q-16 -21 -86 -21q23 0 -113 -15t-190 -15t-86 -7q-34 -7 -89 -23t-85 -16l-82 8l-12 -1q-10 1 -8 11zM586 762q2 10 13 20t67 42q86 68 101 68t31 -8t33 -7t271 25 t358 24q-2 -7 -48 -27q-46 -21 -75 -57q-16 -21 -86 -21q23 0 -113 -15t-192 -15q-56 1 -154 -21t-103 -22l-70 9l-28 -4q-7 -1 -5 9z" />
<glyph unicode="[" horiz-adv-x="865" d="M329 318q0 218 43 447t98 400t120 343q17 0 60 -146t43 -280q-1 -25 -93 -216t-104 -246t-36 -247t-24 -257q0 -591 238 -859q52 -59 58 -64q-26 -1 -64 45t-88 108q-51 62 -65 62q-14 -2 -21 -2q-30 0 -53 146q-10 67 -45 201t-51 240q-16 107 -16 325z" />
<glyph unicode="]" horiz-adv-x="865" d="M329 -807q5 5 58 64q237 268 237 859q0 65 -24 257t-36 247t-104 246t-92 216q0 134 43 280t59 146q124 -324 168 -512q43 -188 53 -240q41 -220 41 -438t-16 -325q-16 -106 -51 -240t-46 -201q-22 -146 -53 -146q-6 0 -20 2t-65 -62q-51 -62 -89 -108t-63 -45z" />
<glyph unicode="{" horiz-adv-x="1145" d="M302 330v27q299 63 299 261q0 55 -27 171t-27 186q0 172 120 287t297 145v-26q-114 -18 -196 -90t-82 -182q0 -53 26 -185t27 -190q1 -128 -81 -220t-273 -160q351 -133 351 -411q0 -56 -28 -178t-27 -185q0 -212 283 -276v-22q-177 32 -299 147t-122 286q1 69 29 185 t28 149q0 116 -88 191t-210 90z" />
<glyph unicode="}" horiz-adv-x="1197" d="M354 -696q283 64 283 276q1 63 -27 185t-28 178q0 138 75 235t260 167q-187 69 -263 163t-76 226q0 58 27 190t27 185q0 110 -82 182t-196 90v26q176 -30 296 -145t120 -287q0 -70 -27 -186t-27 -171q0 -198 300 -261v-27q-122 -15 -210 -90t-88 -191q0 -33 28 -149 t28 -185q0 -171 -122 -286t-298 -147v22z" />
<glyph unicode="&#xab;" horiz-adv-x="693" d="M227 238q0 86 8 130t20 96q13 53 33 110t26 64q4 0 20 -42t16 -97q0 -9 -15 -40l-29 -60q-23 -45 -31 -125t-8 -85q0 -188 76 -273q10 -12 16 -20v-6q-10 0 -38 34t-36 34q-9 0 -13 10q-8 37 -26 111q-18 73 -19 159zM435 234q0 84 17 169q17 86 41 154q24 67 29 74 q6 1 21 -41t15 -98q0 -9 -15 -40l-29 -59q-23 -50 -31 -128q-7 -78 -7 -83q0 -188 75 -273q11 -12 17 -20v-6q-10 0 -38 34t-36 34q-9 0 -13 10q-8 37 -27 113t-19 160z" />
<glyph unicode="&#xad;" horiz-adv-x="1566" d="M586 386q2 10 12 20q12 10 68 42q86 68 101 68t31 -8t33 -8t271 24t358 25q-1 -2 -1 -4q-9 -5 -51 -24t-71 -55q-16 -21 -86 -21q23 0 -113 -15t-190 -15t-86 -7q-34 -8 -89 -24t-86 -16l-70 9l-23 -2q-10 1 -8 11z" />
<glyph unicode="&#xb7;" horiz-adv-x="319" d="M164 620q0 46 42 46t42 -46t-42 -46t-42 46z" />
<glyph unicode="&#xbb;" horiz-adv-x="693" d="M182 -115q1 1 23 21q93 89 93 287q0 6 -7 69q-7 64 -14 92t-26 63l-36 62q-18 31 -18 49t14 76q14 56 27 56q103 -206 103 -400q0 -72 -9 -121q-22 -90 -35 -135q-9 -48 -22 -48q-5 2 -9 2t-39 -36t-45 -37zM389 -111q2 1 24 22q93 88 93 287q0 4 -8 68t-14 92t-26 63 l-35 62q-18 32 -18 50q-1 19 13 75t27 56q2 -2 35 -81t51 -162t18 -156t-9 -121q-22 -91 -36 -136q-9 -47 -21 -47q-5 1 -9 1t-39 -36t-46 -37z" />
<glyph unicode="&#xd7;" horiz-adv-x="1213" d="M472 691q92 -65 325 -265l97 118q49 62 154 171q-35 -93 -35 -120l4 -35q0 -23 -47 -71q-36 -44 -100 -126q75 -64 88 -74q14 -11 32 -13t33 -13t40 -110q5 -12 29 -54q6 -16 13 -33q-4 -5 -4 -6l7 -25q0 -11 -5 -11t-19.5 20.5t-24.5 24.5q-44 61 -249 222 q-12 -14 -43 -50q-32 -35 -67 -94l-48 -81q-27 -38 -76 -67q-4 -3 -14.5 -15t-17.5 -12t-7 22t9 53l9 31q2 6 8 58q5 52 15 62t26 16t30 17q13 12 102 121q-43 37 -95 83q-51 47 -75 63t-34 34q-6 62 -26 92q-28 44 -34 67z" />
<glyph unicode="&#xf7;" horiz-adv-x="1621" d="M586 306q2 10 12 20q12 10 68 43q86 68 101 68t31 -8t33 -8q17 1 271 25t358 24q-1 -2 -1 -4q-9 -5 -51 -24t-71 -56q-16 -20 -86 -20q23 0 -113 -15t-190 -15t-86 -8q-34 -8 -89 -23q-55 -16 -86 -16l-70 9l-23 -2q-10 0 -8 10zM929 141q21 27 62 69t61 41q12 -1 24 -33 t11 -47t-5 -18t-7 3q-9 24 -17 24t-20 -16t-21 -20t-44.5 -67.5t-37.5 -63.5l1 80q0 48 -7 48zM1008 666q20 26 61 68t61 42q13 0 24 -32t11 -48q-1 -15 -5 -18t-6 3q-9 24 -17 24t-19.5 -16.5t-21.5 -20.5t-45 -67.5t-38 -63.5q-2 2 -2 9l4 69q0 20 -7 51z" />
<glyph unicode="&#x2000;" horiz-adv-x="975" />
<glyph unicode="&#x2001;" horiz-adv-x="1951" />
<glyph unicode="&#x2002;" horiz-adv-x="975" />
<glyph unicode="&#x2003;" horiz-adv-x="1951" />
<glyph unicode="&#x2004;" horiz-adv-x="650" />
<glyph unicode="&#x2005;" horiz-adv-x="487" />
<glyph unicode="&#x2006;" horiz-adv-x="325" />
<glyph unicode="&#x2007;" horiz-adv-x="325" />
<glyph unicode="&#x2008;" horiz-adv-x="243" />
<glyph unicode="&#x2009;" horiz-adv-x="390" />
<glyph unicode="&#x200a;" horiz-adv-x="108" />
<glyph unicode="&#x2010;" horiz-adv-x="1566" d="M586 386q2 10 12 20q12 10 68 42q86 68 101 68t31 -8t33 -8t271 24t358 25q-1 -2 -1 -4q-9 -5 -51 -24t-71 -55q-16 -21 -86 -21q23 0 -113 -15t-190 -15t-86 -7q-34 -8 -89 -24t-86 -16l-70 9l-23 -2q-10 1 -8 11z" />
<glyph unicode="&#x2011;" horiz-adv-x="1566" d="M586 386q2 10 12 20q12 10 68 42q86 68 101 68t31 -8t33 -8t271 24t358 25q-1 -2 -1 -4q-9 -5 -51 -24t-71 -55q-16 -21 -86 -21q23 0 -113 -15t-190 -15t-86 -7q-34 -8 -89 -24t-86 -16l-70 9l-23 -2q-10 1 -8 11z" />
<glyph unicode="&#x2012;" horiz-adv-x="1566" d="M586 386q2 10 12 20q12 10 68 42q86 68 101 68t31 -8t33 -8t271 24t358 25q-1 -2 -1 -4q-9 -5 -51 -24t-71 -55q-16 -21 -86 -21q23 0 -113 -15t-190 -15t-86 -7q-34 -8 -89 -24t-86 -16l-70 9l-23 -2q-10 1 -8 11z" />
<glyph unicode="&#x2013;" horiz-adv-x="1715" d="M585.5 386q2.5 10 13.5 20q14 10 80 42q101 68 118.5 68t36 -8t38.5 -8t317.5 24t419.5 25q-1 -2 -1 -4q-11 -5 -60 -24t-83 -55q-19 -21 -101 -21q27 0 -132 -15t-222.5 -15t-100.5 -7q-40 -8 -104.5 -24t-100.5 -16l-82 9l-27 -2q-12 1 -9.5 11z" />
<glyph unicode="&#x2014;" horiz-adv-x="2739" d="M585.5 386q4.5 10 28.5 20q28 10 159 42q202 68 237 68t72.5 -8t77 -8t634.5 24t839 25q-2 -2 -2 -4q-21 -5 -119.5 -24t-166.5 -55q-38 -21 -202 -21q54 0 -264.5 -15t-445 -15t-201.5 -7q-79 -8 -208 -24t-202 -16l-164 9l-53 -2q-24 1 -19.5 11z" />
<glyph unicode="&#x2018;" horiz-adv-x="340" d="M128 1647q0 18 28 91q28 74 43 102t49 68t46 39q12 0 11.5 -5t-12.5 -21l-39 -50q-36 -61 -40 -80t16 -19h15q11 1 15 1q36 1 36 -89q0 -6 -9 -19l-19 -25q-4 -6 -12 -25t-13 -19q-59 44 -79 39q-20 -6 -24 -6q-12 0 -12 18z" />
<glyph unicode="&#x2019;" horiz-adv-x="340" d="M128 1600q0 4 12 21l39 50q36 61 40 80t-16 19h-15q-11 -1 -15 -1q-36 -1 -36 89q0 6 9 19l19 26q5 6 13 25t12 19q59 -45 79 -40q20 6 24 6q12 0 12 -18q1 -18 -27 -91q-28 -74 -44 -102t-50 -67t-44 -39q-12 0 -12 4z" />
<glyph unicode="&#x201c;" horiz-adv-x="659" d="M249 1648q-1 18 27 92q28 72 44 100t50 68t44 40q12 0 12 -5t-12 -20l-39 -51q-36 -59 -40 -79t16 -20l30 1q36 1 36 -89q0 -5 -9 -19l-19 -25q-5 -6 -13 -25t-12 -19q-56 44 -86 37q-12 -4 -21 -4q-8 0 -8 18zM435 1652q-1 18 27 90t44 102q16 28 50 68t44 39 q12 0 12 -5t-13 -21l-38 -50q-35 -58 -40 -79q-4 -20 16 -20h15q11 1 15 1q36 1 36 -89q0 -6 -9 -19l-19 -25q-5 -6 -13 -25t-13 -19q-57 44 -77 39q-21 -5 -29 -5t-8 18z" />
<glyph unicode="&#x201d;" horiz-adv-x="659" d="M249 1602q0 4 12 20l39 51q36 59 40 79t-16 20l-30 -2q-36 -1 -36 89q0 6 9 19l19 26q4 6 12 25t13 19q55 -43 77 -38q22 4 30 4t8 -18t-28 -91t-43 -101t-49 -68q-34 -39 -46 -39q-12 1 -11 5zM435 1604q0 4 12 21l39 50q36 61 39 80q4 19 -15 19h-15q-11 -1 -15 -1 q-37 -1 -37 89q0 6 10 19l19 26q4 6 12 25t13 19q55 -43 77 -38q22 4 26 4q12 0 12 -18t-28 -91q-28 -74 -43 -102t-49 -67t-46 -39t-11 4z" />
<glyph unicode="&#x202f;" horiz-adv-x="390" />
<glyph unicode="&#x2039;" horiz-adv-x="456" d="M227 238q0 86 8 130t20 96q13 53 33 110t26 64q4 0 20 -42t16 -97q0 -9 -15 -40l-29 -60q-23 -45 -31 -125t-8 -85q0 -188 76 -273q10 -12 16 -20v-6q-10 0 -38 34t-36 34q-9 0 -13 10q-8 37 -26 111q-18 73 -19 159z" />
<glyph unicode="&#x203a;" horiz-adv-x="414" d="M182 -115q1 1 23 21q93 89 93 287q0 6 -7 69q-7 64 -14 92t-26 63l-36 62q-18 31 -18 49t14 76q14 56 27 56q56 -112 92 -279q10 -49 11 -121q0 -72 -9 -121q-22 -90 -35 -135q-9 -48 -22 -48q-5 2 -9 2t-39 -36t-45 -37z" />
<glyph unicode="&#x205f;" horiz-adv-x="487" />
<glyph unicode="&#x25fc;" horiz-adv-x="500" d="M0 0z" />
</font>
</defs>
</svg>
