<?xml version="1.0" standalone="no"?>
<!DOCTYPE svg PUBLIC "-//W3C//DTD SVG 1.1//EN" "http://www.w3.org/Graphics/SVG/1.1/DTD/svg11.dtd" >
<svg xmlns="http://www.w3.org/2000/svg" xmlns:xlink="http://www.w3.org/1999/xlink" version="1.1">
<metadata></metadata>
<defs>
<font id="hsn_shahd_regularregular" horiz-adv-x="942" >
<font-face units-per-em="2048" ascent="1638" descent="-410" />
<missing-glyph horiz-adv-x="425" />
<glyph unicode="&#xfedf;&#xfe82;" horiz-adv-x="1363" arabic-form="isolated" d="M705 90h417v1167l21 9l205 -78v-17q-49 -37 -54 -41q-4 -8 -18 -26t-14 -47v-1057h-902q-87 0 -143 33q-67 26 -106 65l4 25q12 -8 37 -12q4 -5 20 -9t21 -4l45 -4l32 -4h299v987l21 8l205 -77v-17q-39 -26 -54 -41q-32 -46 -32 -73l-4 -50v-737zM602 1278l-45 8 q-46 0 -78 -16q-12 0 -20 -8q-4 0 -13 -9l-16 -16l-12 8l16 25l25 24q12 8 37 33q31 25 110 25l37 -17q4 0 21 -8q16 -12 20 -12q57 -29 107 -29q54 -9 102 17l25 24q12 8 20 16l12 -12l-28 -28q-41 -62 -115 -78q-19 -4 -65 4t-85 28t-55 21z" />
<glyph unicode="&#xfee0;&#xfe82;" horiz-adv-x="1519" arabic-form="final" d="M705 90h417v1167l21 9l205 -78v-17q-49 -37 -54 -41q-4 -8 -18 -26t-14 -47v-877q33 -38 88 -64t104 -26h86v-90h-86q-20 0 -61 8q-54 27 -81 61q-26 33 -50 74v-143h-902q-87 0 -143 33q-67 26 -106 65l4 25q12 -8 37 -12q4 -5 20 -9t21 -4l45 -4l32 -4h299v987l21 8 l205 -77v-17q-39 -26 -54 -41q-32 -46 -32 -73l-4 -50v-737zM602 1278l-45 8q-46 0 -78 -16q-12 0 -20 -8q-4 0 -13 -9l-16 -16l-12 8l16 25l25 24q12 8 37 33q31 25 110 25l37 -17q4 0 21 -8q16 -12 20 -12q57 -29 107 -29q54 -9 102 17l25 24q12 8 20 16l12 -12l-28 -28 q-41 -62 -115 -78q-19 -4 -65 4t-85 28t-55 21z" />
<glyph unicode="&#xfedf;&#xfe84;" horiz-adv-x="1363" arabic-form="isolated" d="M434 1200v78h66q0 89 24 139q25 41 45 58q29 20 70 28t61 -4q8 0 45 -12q45 -22 74 -49l-28 -45q-42 37 -111 41q-49 0 -70 -33q-33 -33 -37 -123h246l29 -78h-414zM705 90h417v1167l21 9l205 -78v-17q-49 -37 -54 -41q-4 -8 -18 -26t-14 -47v-1057h-902q-87 0 -143 33 q-67 26 -106 65l4 25q12 -8 37 -12q4 -5 20 -9t21 -4l45 -4l32 -4h299v987l21 8l205 -77v-17q-39 -26 -54 -41q-32 -46 -32 -73l-4 -50v-737z" />
<glyph unicode="&#xfee0;&#xfe84;" horiz-adv-x="1523" arabic-form="final" d="M434 1200v78h66q0 89 24 139q25 41 45 58q29 20 70 28t61 -4q8 0 45 -12q45 -22 74 -49l-28 -45q-42 37 -111 41q-49 0 -70 -33q-33 -33 -37 -123h246l29 -78h-414zM705 90h417v1167l21 9l205 -78v-17q-49 -37 -54 -41q-4 -8 -18 -26t-14 -47v-877q33 -38 88 -64t104 -26 h86v-90h-86q-20 0 -61 8q-54 27 -81 61q-26 33 -50 74v-143h-902q-87 0 -143 33q-67 26 -106 65l4 25q12 -8 37 -12q4 -5 20 -9t21 -4l45 -4l32 -4h299v987l21 8l205 -77v-17q-39 -26 -54 -41q-32 -46 -32 -73l-4 -50v-737z" />
<glyph unicode="&#xfedf;&#xfe88;" horiz-adv-x="1359" arabic-form="isolated" d="M434 -434v78h66q0 97 24 139q20 45 49 61q20 20 78 29q98 0 168 -70l-28 -41q-41 25 -58 33q-41 8 -65 8t-51 -26q-27 -25 -33 -57t-6 -76h241l29 -78h-414zM705 90h417v1167l21 9l205 -78v-17q-49 -37 -54 -41q-4 -8 -18 -26t-14 -47v-1057h-902q-87 0 -143 33 q-67 26 -106 65l4 25q12 -8 37 -12q4 -5 20 -9t21 -4l45 -4l32 -4h299v987l21 8l205 -77v-17q-39 -26 -54 -41q-32 -46 -32 -73l-4 -50v-737z" />
<glyph unicode="&#xfee0;&#xfe88;" horiz-adv-x="1523" arabic-form="final" d="M434 -434v78h66q0 97 24 139q20 45 49 61q20 20 78 29q98 0 168 -70l-28 -41q-41 25 -58 33q-41 8 -65 8t-51 -26q-27 -25 -33 -57t-6 -76h241l29 -78h-414zM705 90h417v1167l21 9l205 -78v-17q-49 -37 -54 -41q-4 -8 -18 -26t-14 -47v-877q33 -38 88 -64t104 -26h86v-90 h-86q-20 0 -61 8q-54 27 -81 61q-26 33 -50 74v-143h-902q-87 0 -143 33q-67 26 -106 65l4 25q12 -8 37 -12q4 -5 20 -9t21 -4l45 -4l32 -4h299v987l21 8l205 -77v-17q-39 -26 -54 -41q-32 -46 -32 -73l-4 -50v-737z" />
<glyph unicode="&#xfedf;&#xfe8e;" horiz-adv-x="1363" arabic-form="isolated" d="M705 90h417v1167l21 9l205 -78v-17q-49 -37 -54 -41q-4 -8 -18 -26t-14 -47v-1057h-902q-87 0 -143 33q-67 26 -106 65l4 25q12 -8 37 -12q4 -5 20 -9t21 -4l45 -4l32 -4h299v987l21 8l205 -77v-17q-39 -26 -54 -41q-32 -46 -32 -73l-4 -50v-737z" />
<glyph unicode="&#xfee0;&#xfe8e;" horiz-adv-x="1519" arabic-form="final" d="M705 90h417v1167l21 9l205 -78v-17q-49 -37 -54 -41q-4 -8 -18 -26t-14 -47v-877q33 -38 88 -64t104 -26h86v-90h-86q-20 0 -61 8q-54 27 -81 61q-26 33 -50 74v-143h-902q-87 0 -143 33q-67 26 -106 65l4 25q12 -8 37 -12q4 -5 20 -9t21 -4l45 -4l32 -4h299v987l21 8 l205 -77v-17q-39 -26 -54 -41q-32 -46 -32 -73l-4 -50v-737z" />
<glyph unicode="&#x622;" horiz-adv-x="610" arabic-form="final" d="M635 90v-90h-442v1257l20 9l201 -78v-17q-49 -37 -54 -41q-4 -8 -18 -26t-14 -47v-967h307zM94 1450q-12 0 -12 -8q-8 0 -16 -8l-17 -17l-12 8l4 9l16 16t9 12q8 4 12 13q12 8 37 32q33 17 51 21t59 4q8 -8 21 -8l16 -8l25 -9q12 -12 20 -12q57 -29 103 -29q56 -8 106 17 l25 24q4 4 12 9l8 8l8 -13q-16 -16 -33 -42t-61 -48q-38 -25 -99 -14q-60 11 -97 31t-54 20l-49 8q-30 0 -50 -8t-32 -8z" />
<glyph unicode="&#x623;" horiz-adv-x="602" arabic-form="final" d="M217 1483h242l28 -78h-413v78h65q0 91 25 135q25 45 49 61q25 25 78 33q65 0 98 -20q29 -9 70 -50l-29 -45q-47 41 -111 41q-102 0 -102 -155zM635 90v-90h-442v1257l20 9l201 -78v-17q-49 -37 -54 -41q-4 -8 -18 -26t-14 -47v-967h307z" />
<glyph unicode="&#x624;" horiz-adv-x="966" arabic-form="final" d="M705 393q-1 57 -9 96t-8 76q-8 25 -24 82q-20 37 -40 64q-48 63 -134 63q-85 0 -130 -33q-82 -60 -106 -200q-8 -82 -8 -133t14 -115q27 -123 113 -174q57 -29 119 -29h213v303zM995 90v-90h-155q0 -78 -17 -176q-20 -74 -53 -127q-49 -57 -115 -92t-168 -72l-12 29 q82 37 123 78q49 41 66 90q28 52 34 128t7 142h-226q-176 0 -282 106q-99 125 -99 295q0 90 25 172q33 74 74 121t122 92q86 29 168 29t152 -29q78 -37 111 -81q45 -49 69 -127q20 -82 21 -168v-320h155zM565 1192q-106 0 -106 -160h246l28 -74h-414v74h66q0 101 25 139 q20 41 45 62q29 20 82 29h49q8 -4 45 -17q49 -24 74 -49l-29 -45q-47 41 -111 41z" />
<glyph unicode="&#x625;" horiz-adv-x="610" arabic-form="final" d="M98 -475v78h66q0 97 24 139q20 45 50 61q20 20 77 29q101 0 168 -70l-28 -41q-41 25 -58 33q-41 8 -65 8t-51 -26t-33 -58t-6 -75h241l29 -78h-414zM635 90v-90h-442v1257l20 9l201 -78v-17q-49 -37 -54 -41q-4 -8 -18 -26t-14 -47v-967h307z" />
<glyph unicode="&#x626;" horiz-adv-x="2023" arabic-form="final" d="M1163 -180q78 0 119 16t74 49q57 71 57 209v78q-228 0 -323 74q-53 37 -91 102q-29 70 -29 164t38 172q37 78 98 127q108 100 270 98h213q94 0 156 -24q66 -33 98 -82q68 -84 70 -307v-406h135v-90h-270v467q0 74 -9 115q0 49 -20 106t-61 98q-41 33 -99 33h-188 q-43 0 -85 -12q-138 -39 -190 -172q-20 -61 -20 -123q0 -131 78 -180q73 -49 205 -49h159v-217q0 -172 -118 -263q-115 -77 -287 -77h-381q-111 0 -246 12q-70 12 -127 41q-129 53 -184 201q-29 70 -29 192v504h135v-434q0 -219 90 -320q29 -41 91 -69q98 -37 213 -37l98 4 h360zM487 975q-47 41 -103 41t-77 -33q-25 -25 -29 -51t-4 -72h242l29 -78h-414v78h66q0 91 24 139q25 41 49 58q20 20 78 28q29 8 53 -4l45 -12q4 -4 26 -16t44 -33z" />
<glyph unicode="&#x626;" horiz-adv-x="643" arabic-form="initial" d="M279 999h241l29 -77h-414v77h66q0 90 24 140q20 33 45 57q33 25 82 29q29 8 49 -4l50 -13q25 -16 39 -24t30 -25l-28 -45q-47 41 -104 41t-77 -33q-25 -25 -29 -51t-3 -72zM483 0h-495v90h360v696l21 9l204 -78v-17q-41 -25 -53 -45q-29 -22 -33 -69l-4 -45v-541z" />
<glyph unicode="&#x626;" horiz-adv-x="667" arabic-form="medial" d="M279 999h241l29 -77h-414v77h66q0 90 24 140q20 33 45 57q33 25 82 29q29 8 49 -4l50 -13q25 -16 39 -24t30 -25l-28 -45q-47 41 -104 41t-77 -33q-25 -25 -29 -51t-3 -72zM614 90h70v-90h-70q-16 0 -57 8q-20 8 -53 33l-45 45q-21 21 -37 53v-139h-434v90h299v696l20 9 l201 -78v-17q-37 -29 -49 -45q-37 -28 -37 -114v-361q90 -90 192 -90z" />
<glyph unicode="&#x627;" horiz-adv-x="610" arabic-form="final" d="M635 90v-90h-442v1257l20 9l201 -78v-17q-49 -37 -54 -41q-4 -8 -18 -26t-14 -47v-967h307z" />
<glyph unicode="&#x628;" horiz-adv-x="1761" arabic-form="final" d="M1696 90h82v-90h-82q-25 0 -58 8q-65 26 -116 103q-14 20 -23 32v-143h-921q-57 0 -86 4l-91 12q-37 12 -67 26t-88 64q-116 181 -25 381q41 90 90 144l29 -21q-16 -16 -29 -53l-24 -61q-17 -85 -17 -153q0 -132 107 -204q64 -45 221 -45h766v692l20 9l205 -78v-17 q-41 -25 -53 -45q-16 -13 -24 -35t-9 -34l-4 -45v-361q90 -90 197 -90zM791 -274q0 37 28 61q25 29 62 29t61 -29q29 -25 29 -61t-29 -62q-26 -29 -62 -29t-61 29q-28 25 -28 62z" />
<glyph unicode="&#x628;" horiz-adv-x="634" arabic-form="initial" d="M184 -274q0 37 29 61q25 29 61 29t62 -29q29 -25 29 -61t-29 -62q-25 -29 -62 -29t-61 29q-29 25 -29 62zM483 0h-495v90h360v696l21 9l204 -78v-17q-41 -25 -53 -45q-29 -22 -33 -69l-4 -45v-541z" />
<glyph unicode="&#x628;" horiz-adv-x="667" arabic-form="medial" d="M274 -274q0 37 29 61q25 29 62 29t61 -29q29 -25 29 -61t-29 -62q-26 -29 -62 -29t-61 29q-29 25 -29 62zM614 90h70v-90h-70q-16 0 -57 8q-20 8 -53 33l-45 45q-21 21 -37 53v-139h-434v90h299v696l20 9l201 -78v-17q-37 -29 -49 -45q-37 -28 -37 -114v-361 q90 -90 192 -90z" />
<glyph unicode="&#x629;" horiz-adv-x="987" arabic-form="final" d="M370 1212q20 0 42 -8q41 -15 51 -49q8 -17 8 -33q0 -57 -57 -82q-25 -8 -44 -8t-55 25q-4 4 -10 16t-10 17l-4 32l4 33q4 4 10 16t10 17q36 24 55 24zM633 1032q-39 0 -64 25q-49 64 0 131q25 24 64 24t63 -24q25 -33 25 -66t-25 -65q-24 -25 -63 -25zM729 393 q0 155 -41 254q-60 127 -188 127t-185 -119q-25 -45 -36 -114q-9 -90 -9 -137t14 -111q26 -114 117 -174q49 -29 115 -29h213v303zM1008 90v-90h-504q-171 0 -279 106q-104 113 -102 295q0 94 24 168q33 82 74 127t123 90q86 29 172 29t154 -31t104 -79q45 -49 70 -127 q20 -82 20 -168v-320h144z" />
<glyph unicode="&#x62a;" horiz-adv-x="1761" arabic-form="final" d="M844 1071q0 -39 -24 -63t-64 -25q-39 0 -66 27q-26 28 -26 62t28 63q29 29 64 29q36 0 62 -28q26 -26 26 -65zM918 1071q0 39 24 64q37 29 66 29t65 -29q25 -25 25 -64t-25 -63q-33 -25 -65 -25t-66 25q-24 24 -24 63zM1696 90h82v-90h-82q-25 0 -58 8q-65 26 -116 103 q-14 20 -23 32v-143h-921q-57 0 -86 4l-91 12q-37 12 -67 26t-88 64q-116 181 -25 381q41 90 90 144l29 -21q-16 -16 -29 -53l-24 -61q-17 -85 -17 -153q0 -132 107 -204q64 -45 221 -45h766v692l20 9l205 -78v-17q-41 -25 -53 -45q-16 -13 -24 -35t-9 -34l-4 -45v-361 q90 -90 197 -90z" />
<glyph unicode="&#x62a;" horiz-adv-x="618" arabic-form="initial" d="M303 1071q-1 -35 -27 -61t-65 -27q-39 0 -64 25q-25 26 -25 64t28 65q26 27 61 27t63 -30q28 -28 29 -63zM377 1071q1 39 27 66t61 27t61 -28q26 -26 27 -65q0 -39 -25 -63q-26 -24 -64 -25q-38 1 -62 25t-25 63zM483 0h-495v90h360v696l21 9l204 -78v-17 q-41 -25 -53 -45q-29 -22 -33 -69l-4 -45v-541z" />
<glyph unicode="&#x62a;" horiz-adv-x="667" arabic-form="medial" d="M303 1071q-1 -35 -27 -61t-65 -27q-39 0 -64 25q-25 26 -25 64t28 65q26 27 61 27t63 -30q28 -28 29 -63zM377 1071q1 39 27 66t61 27t61 -28q26 -26 27 -65q0 -39 -25 -63q-26 -24 -64 -25q-38 1 -62 25t-25 63zM614 90h70v-90h-70q-16 0 -57 8q-20 8 -53 33l-45 45 q-21 21 -37 53v-139h-434v90h299v696l20 9l201 -78v-17q-37 -29 -49 -45q-37 -28 -37 -114v-361q90 -90 192 -90z" />
<glyph unicode="&#x62b;" horiz-adv-x="1757" arabic-form="final" d="M881 1237q-37 0 -62 25q-25 26 -25 64t25 63t62 25t63 -26q26 -24 27 -63q0 -39 -29 -63q-24 -25 -61 -25zM844 1071q0 -39 -24 -63t-64 -25q-39 0 -66 27q-26 28 -26 62t28 63q29 29 64 29q36 0 62 -28q26 -26 26 -65zM918 1071q0 39 24 64q37 29 66 29t65 -29 q25 -25 25 -64t-25 -63q-33 -25 -65 -25t-66 25q-24 24 -24 63zM1696 90h82v-90h-82q-25 0 -58 8q-65 26 -116 103q-14 20 -23 32v-143h-921q-57 0 -86 4l-91 12q-37 12 -67 26t-88 64q-116 181 -25 381q41 90 90 144l29 -21q-16 -16 -29 -53l-24 -61q-17 -85 -17 -153 q0 -132 107 -204q64 -45 221 -45h766v692l20 9l205 -78v-17q-41 -25 -53 -45q-16 -13 -24 -35t-9 -34l-4 -45v-361q90 -90 197 -90z" />
<glyph unicode="&#x62b;" horiz-adv-x="610" arabic-form="initial" d="M338 1237q-39 0 -66 27q-26 28 -26 62t26 61t66 27t64 -26q24 -24 24 -63t-24 -63t-64 -25zM303 1071q-1 -35 -27 -61t-65 -27q-39 0 -64 25q-25 26 -25 64t28 65q26 27 61 27t63 -30q28 -28 29 -63zM377 1071q1 39 27 66t61 27t61 -28q26 -26 27 -65q0 -39 -25 -63 q-26 -24 -64 -25q-38 1 -62 25t-25 63zM483 0h-495v90h360v696l21 9l204 -78v-17q-41 -25 -53 -45q-29 -22 -33 -69l-4 -45v-541z" />
<glyph unicode="&#x62b;" horiz-adv-x="663" arabic-form="medial" d="M338 1237q-39 0 -66 27q-26 28 -26 62t26 61t66 27t64 -26q24 -24 24 -63t-24 -63t-64 -25zM303 1071q-1 -35 -27 -61t-65 -27q-39 0 -64 25q-25 26 -25 64t28 65q26 27 61 27t63 -30q28 -28 29 -63zM377 1071q1 39 27 66t61 27t61 -28q26 -26 27 -65q0 -39 -25 -63 q-26 -24 -64 -25q-38 1 -62 25t-25 63zM614 90h70v-90h-70q-16 0 -57 8q-20 8 -53 33l-45 45q-21 21 -37 53v-139h-434v90h299v696l20 9l201 -78v-17q-37 -29 -49 -45q-37 -28 -37 -114v-361q90 -90 192 -90z" />
<glyph unicode="&#x62c;" horiz-adv-x="1138" arabic-form="final" d="M147 -322q0 84 13 150q20 74 53 123q25 49 90 90q78 40 172 53l270 4v332q0 44 -8 114t-24 99q-25 33 -78 53t-111 9q-57 -3 -127 -51t-118 -113l-25 8q20 45 70 96q92 95 208 133q57 20 121 12q124 -15 170 -85q25 -33 45 -82q12 -49 9 -99v-348q86 -86 188 -86h86v-90 h-86q-16 0 -57 8q-42 21 -99 78q-8 12 -32 45v-131h-312q-98 0 -155 -33q-116 -67 -123 -164q-16 -77 -13 -119q4 -41 5 -53q25 -69 27 -77t30 -66q16 -20 57 -61q70 -56 172 -58q45 1 80 9t55 8l62 24q37 12 53 29l21 -29q-158 -127 -344 -127q-33 0 -111 29 q-82 45 -127 90t-76 119q-31 73 -31 157zM492 -274q0 38 24 64t64 26q39 0 63 -29q29 -29 29 -61t-27 -62q-27 -29 -65 -29t-64 27q-24 27 -24 64z" />
<glyph unicode="&#x62c;" horiz-adv-x="974" arabic-form="initial" d="M397 -274q0 37 29 61q26 29 62 29t61 -29q29 -25 29 -61t-29 -62q-25 -29 -62 -29t-61 29q-29 25 -29 62zM786 524v-524h-811v90h676v340l-4 127q-16 67 -35 93q-20 26 -70 46t-108 9q-66 -8 -127 -50q-74 -45 -119 -114l-28 8q20 33 69 98q74 66 99 78q110 74 224 67 q113 -8 181 -87q33 -49 43 -86t10 -95z" />
<glyph unicode="&#x62c;" horiz-adv-x="1052" arabic-form="medial" d="M983 90h86v-90h-86q-55 0 -109 41t-83 98v-139h-811v90h675v340q0 86 -8 127q0 45 -24 86q-25 33 -76 53q-111 44 -236 -41q-57 -37 -123 -114l-24 8q25 49 74 98q41 49 94 78q107 72 229 66q70 -8 103 -29q37 -12 73 -57q33 -49 43 -86t11 -95v-344q90 -90 192 -90z M401 -274q0 38 27 64t64 26q38 0 64 -27t26 -63t-27 -64q-27 -27 -63 -27t-64 27q-27 27 -27 64z" />
<glyph unicode="&#x62d;" horiz-adv-x="1138" arabic-form="final" d="M147 -322q0 84 13 150q20 74 53 123q25 49 90 90q78 40 172 53l270 4v332q0 44 -8 114t-24 99q-25 33 -78 53t-111 9q-57 -3 -127 -51t-118 -113l-25 8q20 45 70 96q92 95 208 133q57 20 121 12q124 -15 170 -85q25 -33 45 -82q12 -49 9 -99v-348q86 -86 188 -86h86v-90 h-86q-16 0 -57 8q-42 21 -99 78q-8 12 -32 45v-131h-312q-98 0 -155 -33q-116 -67 -123 -164q-16 -77 -13 -119q4 -41 5 -53q25 -69 27 -77t30 -66q16 -20 57 -61q70 -56 172 -58q45 1 80 9t55 8l62 24q37 12 53 29l21 -29q-158 -127 -344 -127q-33 0 -111 29 q-82 45 -127 90t-76 119q-31 73 -31 157z" />
<glyph unicode="&#x62d;" arabic-form="initial" d="M786 524v-524h-811v90h676v340l-4 127q-16 67 -35 93q-20 26 -70 46t-108 9q-66 -8 -127 -50q-74 -45 -119 -114l-28 8q20 33 69 98q74 66 99 78q110 74 224 67q113 -8 181 -87q33 -49 43 -86t10 -95z" />
<glyph unicode="&#x62d;" horiz-adv-x="1052" arabic-form="medial" d="M983 90h86v-90h-86q-55 0 -109 41t-83 98v-139h-811v90h675v340q0 86 -8 127q0 45 -24 86q-25 33 -76 53q-111 44 -236 -41q-57 -37 -123 -114l-24 8q25 49 74 98q41 49 94 78q107 72 229 66q70 -8 103 -29q37 -12 73 -57q33 -49 43 -86t11 -95v-344q90 -90 192 -90z" />
<glyph unicode="&#x62e;" horiz-adv-x="1138" arabic-form="final" d="M147 -322q0 84 13 150q20 74 53 123q25 49 90 90q78 40 172 53l270 4v332q0 44 -8 114t-24 99q-25 33 -78 53t-111 9q-57 -3 -127 -51t-118 -113l-25 8q20 45 70 96q92 95 208 133q57 20 121 12q124 -15 170 -85q25 -33 45 -82q12 -49 9 -99v-348q86 -86 188 -86h86v-90 h-86q-16 0 -57 8q-42 21 -99 78q-8 12 -32 45v-131h-312q-98 0 -155 -33q-116 -67 -123 -164q-16 -77 -13 -119q4 -41 5 -53q25 -69 27 -77t30 -66q16 -20 57 -61q70 -56 172 -58q45 1 80 9t55 8l62 24q37 12 53 29l21 -29q-158 -127 -344 -127q-33 0 -111 29 q-82 45 -127 90t-76 119q-31 73 -31 157zM492 1057q0 33 24 65q25 25 64 25t63 -25q29 -38 29 -66t-29 -65q-25 -25 -63 -25t-64 25q-24 33 -24 66z" />
<glyph unicode="&#x62e;" arabic-form="initial" d="M786 524v-524h-811v90h676v340l-4 127q-16 67 -35 93q-20 26 -70 46t-108 9q-66 -8 -127 -50q-74 -45 -119 -114l-28 8q20 33 69 98q74 66 99 78q110 74 224 67q113 -8 181 -87q33 -49 43 -86t10 -95zM397 1057q0 37 27 63q28 26 64 27q36 0 63 -27q27 -28 27 -64 t-27 -63t-64 -27t-63 28q-26 26 -27 63z" />
<glyph unicode="&#x62e;" horiz-adv-x="1052" arabic-form="medial" d="M983 90h86v-90h-86q-55 0 -109 41t-83 98v-139h-811v90h675v340q0 86 -8 127q0 45 -24 86q-25 33 -76 53q-111 44 -236 -41q-57 -37 -123 -114l-24 8q25 49 74 98q41 49 94 78q107 72 229 66q70 -8 103 -29q37 -12 73 -57q33 -49 43 -86t11 -95v-344q90 -90 192 -90z M401 1057q0 33 25 65q33 25 66 25t65 -25q25 -34 25 -66t-25 -65q-64 -49 -131 0q-25 33 -25 66z" />
<glyph unicode="&#x62f;" horiz-adv-x="1118" arabic-form="final" d="M1135 90v-90h-86q-16 0 -58 8q-52 21 -98 78q-21 21 -37 53v-139h-655l-37 156l29 4q8 -25 36 -45q15 -9 71 -17t101 -8h320v295q0 120 -29 197q-12 41 -32 67q-20 25 -66 63q-45 38 -102 62l12 29q115 -37 180 -74q136 -88 160 -233q12 -78 12 -193v-123q36 -38 94 -64 t99 -26h86z" />
<glyph unicode="&#x630;" horiz-adv-x="1118" arabic-form="final" d="M1135 90v-90h-86q-16 0 -58 8q-52 21 -98 78q-21 21 -37 53v-139h-655l-37 156l29 4q8 -25 36 -45q15 -9 71 -17t101 -8h320v295q0 120 -29 197q-12 41 -32 67q-20 25 -66 63q-45 38 -102 62l12 29q115 -37 180 -74q136 -88 160 -233q12 -78 12 -193v-123q36 -38 94 -64 t99 -26h86zM526 998q-23 -22 -58 -23q-35 0 -63 29t-28 66q0 36 24 60q33 25 66 25t65 -25q25 -25 25 -55t-8 -43q0 -12 -23 -34z" />
<glyph unicode="&#x631;" horiz-adv-x="692" arabic-form="final" d="M639 90h74v-90h-74q-20 0 -61 8q-61 34 -80 58t-56 73v-110q0 -168 -24 -242q-8 -41 -41 -86q-20 -33 -66 -70q-49 -33 -90 -53q-82 -33 -131 -49l-8 29q82 45 98 57q82 73 92 108q11 35 31 113l4 111v655l21 8l200 -78v-16q-31 -31 -49 -41q-20 -29 -24 -37l-13 -37 v-221q37 -38 92 -64t105 -26z" />
<glyph unicode="&#x632;" horiz-adv-x="692" arabic-form="final" d="M426 799q-33 0 -66 24q-24 25 -24 56t8 43q0 12 20 32t52 21q30 0 42 -4t36 -27q22 -23 22 -60q0 -36 -24 -61q-33 -24 -66 -24zM639 90h74v-90h-74q-20 0 -61 8q-61 34 -80 58t-56 73v-110q0 -168 -24 -242q-8 -41 -41 -86q-20 -33 -66 -70q-49 -33 -90 -53 q-82 -33 -131 -49l-8 29q82 45 98 57q82 73 92 108q11 35 31 113l4 111v655l21 8l200 -78v-16q-31 -31 -49 -41q-20 -29 -24 -37l-13 -37v-221q37 -38 92 -64t105 -26z" />
<glyph unicode="&#x633;" horiz-adv-x="2236" arabic-form="final" d="M2245 90v-90h-82q-20 0 -62 8q-75 37 -131 131v-139h-209q-20 0 -61 8q-68 34 -135 135v-143h-209q-16 0 -58 8q-74 30 -135 131v-33q0 -106 -33 -170q-69 -132 -245 -186q-115 -35 -254 -20q-110 0 -199 43q-88 43 -135 92q-106 110 -105 314q1 203 85 330t194 196 l12 -29q-41 -44 -69 -100t-56 -156q-26 -100 -26 -211t26 -183t56 -102q29 -31 78 -63q82 -33 110 -37t53 -4h58q57 0 106 16q118 25 180 127q29 45 29 119v524l21 8l114 -45v-389q37 -38 92 -64t101 -26h74v512l20 8l115 -45v-385q37 -38 92 -64t104 -26h74v512l16 8 l205 -78v-16q-71 -57 -79 -80q-7 -23 -7 -35v-221q37 -45 86 -65q49 -25 107 -25h82z" />
<glyph unicode="&#x633;" horiz-adv-x="1224" arabic-form="initial" d="M1106 401v-401h-213q-16 0 -57 8q-20 8 -54 33l-45 45q-12 16 -37 57v-143h-208q-25 0 -58 8q-52 21 -98 78q-12 16 -37 57v-143h-319v90h184v516l16 8l119 -45v-389q37 -38 95 -64t98 -26h73v512l21 8l114 -45v-385q36 -38 94 -64t99 -26h74v512l20 8l201 -78v-16 q-28 -28 -49 -41q-20 -29 -25 -37q-8 -25 -8 -37z" />
<glyph unicode="&#x633;" horiz-adv-x="1372" arabic-form="medial" d="M893 90h74v512l20 8l201 -78v-16q-28 -28 -49 -41q-20 -29 -25 -37q-8 -25 -8 -37v-221q37 -45 86 -65q49 -25 106 -25h86v-90h-86q-20 0 -61 8q-53 26 -94 78q-29 41 -37 53v-139h-213q-16 0 -57 8q-20 8 -54 33l-45 45q-10 10 -37 53v-139h-208q-25 0 -58 8 q-52 21 -98 78q-21 21 -37 53v-139h-319v90h184v516l16 8l119 -45v-389q90 -90 193 -90h73v512l21 8l114 -45v-385q90 -90 193 -90z" />
<glyph unicode="&#x634;" horiz-adv-x="2236" arabic-form="final" d="M2245 90v-90h-82q-20 0 -62 8q-75 37 -131 131v-139h-209q-20 0 -61 8q-68 34 -135 135v-143h-209q-16 0 -58 8q-74 30 -135 131v-33q0 -106 -33 -170q-69 -132 -245 -186q-115 -35 -254 -20q-110 0 -199 43q-88 43 -135 92q-106 110 -105 314q1 203 85 330t194 196 l12 -29q-41 -44 -69 -100t-56 -156q-26 -100 -26 -211t26 -183t56 -102q29 -31 78 -63q82 -33 110 -37t53 -4h58q57 0 106 16q118 25 180 127q29 45 29 119v524l21 8l114 -45v-389q37 -38 92 -64t101 -26h74v512l20 8l115 -45v-385q37 -38 92 -64t104 -26h74v512l16 8 l205 -78v-16q-71 -57 -79 -80q-7 -23 -7 -35v-221q37 -45 86 -65q49 -25 107 -25h82zM1491 1237q-33 0 -66 25q-25 26 -25 64t25 63q65 49 131 0q25 -25 25 -64t-25 -63q-32 -25 -65 -25zM1364 983q-38 0 -62 25q-24 26 -24 64t27 65t59 27t62 -28q28 -26 28 -65t-29 -63 q-24 -25 -61 -25zM1618 983q-36 1 -64 25q-26 24 -26 63t28 66t62 27t62 -28q28 -26 28 -65t-29 -63q-25 -25 -61 -25z" />
<glyph unicode="&#x634;" horiz-adv-x="1245" arabic-form="initial" d="M1106 401v-401h-213q-16 0 -57 8q-20 8 -54 33l-45 45q-12 16 -37 57v-143h-208q-25 0 -58 8q-52 21 -98 78q-12 16 -37 57v-143h-319v90h184v516l16 8l119 -45v-389q37 -38 95 -64t98 -26h73v512l21 8l114 -45v-385q36 -38 94 -64t99 -26h74v512l20 8l201 -78v-16 q-28 -28 -49 -41q-20 -29 -25 -37q-8 -25 -8 -37zM625 1237q-39 0 -66 27q-27 28 -27 62t27 61t66 27t63 -26q24 -24 25 -63q-1 -39 -25 -63t-63 -25zM590 1071q0 -35 -26 -61t-66 -27q-39 0 -64 25q-24 26 -24 64t26 65t62 27t64 -30q28 -28 28 -63zM664 1071q0 39 26 66 t62 27t62 -28q26 -26 26 -65t-25 -63t-63 -25q-38 1 -64 25q-24 24 -24 63z" />
<glyph unicode="&#x634;" horiz-adv-x="1368" arabic-form="medial" d="M1380 90v-90h-86q-16 0 -57 8q-20 8 -53 33l-45 45q-5 8 -17 24t-16 29v-139h-213q-16 0 -57 8q-20 8 -54 33l-45 45q-10 10 -37 53v-139h-208q-25 0 -58 8q-52 21 -98 78q-21 21 -37 53v-139h-319v90h184v516l16 8l119 -45v-389q90 -90 193 -90h73v512l21 8l114 -45 v-385q90 -90 193 -90h74v512l20 8l201 -78v-16q-28 -28 -49 -41q-20 -29 -25 -37q-8 -25 -8 -37v-221q81 -90 188 -90h86zM844 1071q0 -35 -27 -61t-65 -27q-38 1 -64 25q-24 24 -24 63t24 64q25 25 64 25q40 0 66 -28q26 -26 26 -61zM590 1071q0 -35 -26 -61t-66 -27 q-39 0 -64 25q-24 26 -24 64t24 63q25 25 64 25q40 0 66 -28q26 -26 26 -61zM625 1233q-39 0 -64 29q-29 30 -29 62t29 60q25 29 64 29t63 -29q25 -26 25 -62t-25 -60q-24 -29 -63 -29z" />
<glyph unicode="&#x635;" horiz-adv-x="2215" arabic-form="final" d="M2142 90h86v-90h-86q-16 0 -57 8q-52 21 -98 78q-16 25 -33 53v-139h-803q-20 -99 -119 -180q-53 -41 -157 -73t-244 -17q-110 0 -199 43q-88 43 -135 92q-106 110 -105 314q1 203 85 330t194 196l12 -29q-41 -44 -69 -100t-56 -156q-26 -100 -26 -211t26 -183t56 -102 q29 -31 78 -63q82 -33 110 -37t53 -4h58q57 0 106 16q118 25 180 127q29 45 29 119v524l16 8l185 -69q82 90 98 106t98 78q111 66 231 66q72 0 136 -33t96 -90q37 -53 49 -140q16 -70 17 -180v-172q37 -45 86 -65q49 -25 102 -25zM1819 369q0 33 -9 114q0 53 -20 107 q-43 115 -168 115q-98 0 -217 -74q-127 -75 -242 -238v-303h656v279z" />
<glyph unicode="&#x635;" horiz-adv-x="1220" arabic-form="initial" d="M967 90v393q-19 132 -82 189q-45 33 -103 33q-106 0 -225 -74q-74 -41 -127 -99q-49 -45 -115 -139v-303h652zM810 795q151 0 230 -123q37 -53 50 -140q16 -70 16 -180v-352h-1147v90h221v516l17 8l188 -69q37 57 90 102q20 20 103 82q60 33 108 49t124 17z" />
<glyph unicode="&#x635;" horiz-adv-x="1363" arabic-form="medial" d="M975 90v352q0 53 -8 78q0 58 -49 127q-29 29 -58 43t-78 14q-97 1 -217 -73q-74 -41 -127 -99q-49 -45 -114 -139v-303h651zM1393 90v-90h-86q-20 0 -62 8q-53 26 -94 78q-29 41 -37 57v-143h-1147v90h221v516l17 8l188 -69q37 57 90 102q41 41 103 82q61 33 108 49 t119 16t135 -32q63 -33 101 -90q29 -53 49 -140q16 -106 16 -180v-168q29 -41 86 -65q57 -29 107 -29h86z" />
<glyph unicode="&#x636;" horiz-adv-x="2215" arabic-form="final" d="M2142 90h86v-90h-86q-16 0 -57 8q-52 21 -98 78q-16 25 -33 53v-139h-803q-20 -99 -119 -180q-53 -41 -157 -73t-244 -17q-110 0 -199 43q-88 43 -135 92q-106 110 -105 314q1 203 85 330t194 196l12 -29q-41 -44 -69 -100t-56 -156q-26 -100 -26 -211t26 -183t56 -102 q29 -31 78 -63q82 -33 110 -37t53 -4h58q57 0 106 16q118 25 180 127q29 45 29 119v524l16 8l185 -69q82 90 98 106t98 78q111 66 231 66q72 0 136 -33t96 -90q37 -53 49 -140q16 -70 17 -180v-172q37 -45 86 -65q49 -25 102 -25zM1819 369q0 33 -9 114q0 53 -20 107 q-43 115 -168 115q-98 0 -217 -74q-127 -75 -242 -238v-303h656v279zM1293 934q-28 0 -64 29q-25 25 -25 63t25 64q50 38 91 24t53 -46q11 -32 11 -50t-24 -55q-39 -29 -67 -29z" />
<glyph unicode="&#x636;" horiz-adv-x="1261" arabic-form="initial" d="M436 934q-22 0 -51 29q-29 25 -29 63t35 71q35 32 92 13q9 -4 25 -20q42 -40 20 -99q-4 -12 -20 -28t-25 -21q-25 -8 -47 -8zM967 90v393q-19 132 -82 189q-45 33 -103 33q-106 0 -225 -74q-74 -41 -127 -99q-49 -45 -115 -139v-303h652zM810 795q151 0 230 -123 q37 -53 50 -140q16 -70 16 -180v-352h-1147v90h221v516l17 8l188 -69q37 57 90 102q20 20 103 82q60 33 108 49t124 17z" />
<glyph unicode="&#x636;" horiz-adv-x="1368" arabic-form="medial" d="M516 963q-28 -29 -61 -29t-61 28t-29 64q0 35 22 57q23 23 33 27t41 4t57 -24t27 -64q0 -39 -29 -63zM975 90v352q0 53 -8 78q0 58 -49 127q-29 29 -58 43t-78 14q-97 1 -217 -73q-74 -41 -127 -99q-49 -45 -114 -139v-303h651zM1393 90v-90h-86q-20 0 -62 8 q-53 26 -94 78q-29 41 -37 57v-143h-1147v90h221v516l17 8l188 -69q37 57 90 102q41 41 103 82q61 33 108 49t119 16t135 -32q63 -33 101 -90q29 -53 49 -140q16 -106 16 -180v-168q29 -41 86 -65q57 -29 107 -29h86z" />
<glyph unicode="&#x637;" horiz-adv-x="1544" arabic-form="final" d="M1475 90h86v-90h-86q-16 0 -58 8q-71 28 -127 119v-127h-925q-107 0 -209 61q-33 25 -45 37l8 25q16 -8 78 -25l41 -4h36l91 -4v1167l20 5l201 -74v-17q-49 -37 -54 -41q-4 -8 -18 -26t-14 -47v-590q29 61 164 180q145 145 316 147q171 1 245 -122q33 -49 53 -140 q12 -82 12 -180v-180q82 -82 185 -82zM1155 369q0 136 -29 221q-47 115 -168 115q-98 0 -217 -74q-127 -74 -241 -238v-303h655v279z" />
<glyph unicode="&#x637;" horiz-adv-x="1261" arabic-form="initial" d="M810 795q151 0 230 -123q37 -53 50 -140q16 -70 16 -180v-352h-1147v90h221v1167l17 5l204 -74v-17q-72 -58 -78 -80q-7 -22 -8 -34v-590q33 66 160 180q20 20 103 82q60 33 108 49t124 17zM967 90v393q-19 132 -82 189q-45 33 -103 33q-106 0 -225 -74q-74 -41 -127 -99 q-49 -45 -115 -139v-303h652z" />
<glyph unicode="&#x637;" horiz-adv-x="1363" arabic-form="medial" d="M810 795q151 0 230 -123q37 -53 50 -140q16 -70 16 -180v-176q29 -38 80 -62t108 -24h82v-90h-82q-86 0 -155 86q-20 20 -33 45v-131h-1147v90h221v1167l17 5l204 -74v-17q-72 -58 -78 -80q-7 -22 -8 -34v-590q33 66 160 180q20 20 103 82q60 33 108 49t124 17zM967 90 v393q-19 132 -82 189q-45 33 -103 33q-106 0 -225 -74q-74 -41 -127 -99q-49 -45 -115 -139v-303h652z" />
<glyph unicode="&#x638;" horiz-adv-x="1544" arabic-form="final" d="M1475 90h86v-90h-86q-16 0 -58 8q-71 28 -127 119v-127h-925q-107 0 -209 61q-33 25 -45 37l8 25q16 -8 78 -25l41 -4h36l91 -4v1167l20 5l201 -74v-17q-49 -37 -54 -41q-4 -8 -18 -26t-14 -47v-590q29 61 164 180q145 145 316 147q171 1 245 -122q33 -49 53 -140 q12 -82 12 -180v-180q82 -82 185 -82zM810 934q-20 0 -48 29q-29 25 -29 63t34 70q34 31 89 14q12 -4 34 -26t23 -57q0 -36 -22 -58q-22 -23 -41 -29q-20 -6 -40 -6zM1155 369q0 136 -29 221q-47 115 -168 115q-98 0 -217 -74q-127 -74 -241 -238v-303h655v279z" />
<glyph unicode="&#x638;" horiz-adv-x="1261" arabic-form="initial" d="M810 795q151 0 230 -123q37 -53 50 -140q16 -70 16 -180v-352h-1147v90h221v1167l17 5l204 -74v-17q-72 -58 -78 -80q-7 -22 -8 -34v-590q33 66 160 180q20 20 103 82q60 33 108 49t124 17zM967 90v393q-19 132 -82 189q-45 33 -103 33q-106 0 -225 -74q-74 -41 -127 -99 q-49 -45 -115 -139v-303h652zM672 1110q12 -4 34 -26t23 -58q0 -35 -29 -64q-29 -28 -64 -28q-34 0 -61 27t-27 65t32 71q32 32 92 13z" />
<glyph unicode="&#x638;" horiz-adv-x="1363" arabic-form="medial" d="M810 795q151 0 230 -123q37 -53 50 -140q16 -70 16 -180v-176q29 -38 80 -62t108 -24h82v-90h-82q-86 0 -155 86q-20 20 -33 45v-131h-1147v90h221v1167l17 5l204 -74v-17q-72 -58 -78 -80q-7 -22 -8 -34v-590q33 66 160 180q20 20 103 82q60 33 108 49t124 17zM672 1110 q12 -4 34 -26t23 -58q0 -35 -29 -64q-29 -28 -64 -28q-34 0 -61 27t-27 65t32 71q32 32 92 13zM967 90v393q-19 132 -82 189q-45 33 -103 33q-106 0 -225 -74q-74 -41 -127 -99q-49 -45 -115 -139v-303h652z" />
<glyph unicode="&#x639;" horiz-adv-x="1019" arabic-form="final" d="M782 491q0 70 -32 115q-33 53 -90 86q-112 65 -253 40q-141 -24 -219 -167l447 -327q147 121 147 253zM918 500q0 -186 -193 -328l111 -82h196v-90h-196l-177 131q-41 -29 -85 -45t-95 -33q-78 -11 -143 -65l-21 -17q-4 -4 -4 -8q-8 -4 -8 -12q-8 0 -12 -12t-12 -13 q-33 -70 -41 -98q-14 -134 0 -172q0 -25 16 -74q18 -27 37 -69q33 -41 53 -62q20 -17 68 -37t98 -20q52 0 74 4t71 12l62 25q33 12 53 28l21 -28q-90 -72 -156 -90q-45 -25 -94 -29q-33 -8 -81 -8t-124 28q-82 45 -131 94q-107 107 -107 271q0 89 14 143q34 125 138 209 q12 12 20 13l17 16q12 0 20 6t21 10q8 8 12 8l16 9h13l4 4q4 0 8 4q85 17 102 29l25 12l32 16t25 17l-454 335l-5 66q40 49 82 82t115 74q70 33 119 41q61 16 129 16t141 -20q57 -20 119 -62q107 -97 107 -229z" />
<glyph unicode="&#x639;" arabic-form="initial" d="M332 90h528v-90h-885v90h222v434q0 41 16 99q53 104 139 139q37 16 111 33q125 0 229 -70q53 -29 94 -78q33 -33 74 -98l-29 -8q-129 143 -249 164q-61 12 -103 0q-101 -41 -127 -127q-20 -37 -20 -95v-393z" />
<glyph unicode="&#x639;" horiz-adv-x="1019" arabic-form="medial" d="M782 491q0 70 -32 115q-33 53 -90 86q-112 65 -253 40q-141 -24 -219 -167l447 -327q147 121 147 253zM918 500q0 -186 -193 -328l111 -82h196v-90h-196l-177 131q-70 -47 -220 -89q-151 -42 -267 -42h-192v90h143q106 0 242 29q119 33 200 78l-454 335l-5 66 q40 49 82 82t115 74q70 33 119 41q61 16 129 16t141 -20q57 -20 119 -62q107 -97 107 -229z" />
<glyph unicode="&#x63a;" horiz-adv-x="1019" arabic-form="final" d="M782 491q0 70 -32 115q-33 53 -90 86q-112 65 -253 40q-141 -24 -219 -167l447 -327q147 121 147 253zM918 500q0 -186 -193 -328l111 -82h196v-90h-196l-177 131q-41 -29 -85 -45t-95 -33q-78 -11 -143 -65l-21 -17q-4 -4 -4 -8q-8 -4 -8 -12q-8 0 -12 -12t-12 -13 q-33 -70 -41 -98q-14 -134 0 -172q0 -25 16 -74q18 -27 37 -69q33 -41 53 -62q20 -17 68 -37t98 -20q52 0 74 4t71 12l62 25q33 12 53 28l21 -28q-90 -72 -156 -90q-45 -25 -94 -29q-33 -8 -81 -8t-124 28q-82 45 -131 94q-107 107 -107 271q0 89 14 143q34 125 138 209 q12 12 20 13l17 16q12 0 20 6t21 10q8 8 12 8l16 9h13l4 4q4 0 8 4q85 17 102 29l25 12l32 16t25 17l-454 335l-5 66q40 49 82 82t115 74q70 33 119 41q61 16 129 16t141 -20q57 -20 119 -62q107 -97 107 -229zM518 1032q-35 0 -67 25q-25 33 -25 61t8 37q0 31 35 44t59 13 t50 -24q28 -37 28 -66t-28 -65q-25 -25 -60 -25z" />
<glyph unicode="&#x63a;" arabic-form="initial" d="M332 90h528v-90h-885v90h222v434q0 41 16 99q53 104 139 139q37 16 111 33q125 0 229 -70q53 -29 94 -78q33 -33 74 -98l-29 -8q-129 143 -249 164q-61 12 -103 0q-101 -41 -127 -127q-20 -37 -20 -95v-393zM518 1032q-35 0 -67 25q-25 33 -25 61t8 37q0 31 35 44t59 13 t50 -24q28 -37 28 -66t-28 -65q-25 -25 -60 -25z" />
<glyph unicode="&#x63a;" horiz-adv-x="1019" arabic-form="medial" d="M782 491q0 70 -32 115q-33 53 -90 86q-112 65 -253 40q-141 -24 -219 -167l447 -327q147 121 147 253zM918 500q0 -186 -193 -328l111 -82h196v-90h-196l-177 131q-70 -47 -220 -89q-151 -42 -267 -42h-192v90h143q106 0 242 29q119 33 200 78l-454 335l-5 66 q40 49 82 82t115 74q70 33 119 41q61 16 129 16t141 -20q57 -20 119 -62q107 -97 107 -229zM518 1032q-35 0 -67 25q-25 33 -25 61t8 37q0 31 35 44t59 13t50 -24q28 -37 28 -66t-28 -65q-25 -25 -60 -25z" />
<glyph unicode="&#x641;" horiz-adv-x="1720" arabic-form="final" d="M1417 393q0 155 -41 254q-60 127 -189 127t-183 -119q-25 -45 -37 -114q-9 -90 -9 -137t14 -111q28 -123 113 -174q45 -29 119 -29h213v303zM451 676q-152 -167 -152 -492q0 -94 27 -162q28 -68 56 -98q28 -31 77 -63q83 -33 111 -37t53 -4h475q100 0 180 41q41 16 74 57 q37 29 49 82h-209q-175 0 -283 106q-98 124 -98 295q0 94 25 168q34 82 74 127t122 90q86 29 172 29t154 -31t104 -79q45 -49 70 -127q20 -82 20 -168v-320h185v-90h-197q-16 -66 -61 -121t-99 -84q-106 -69 -282 -69h-418q-45 0 -78 4q-113 0 -204 43t-128 88 q-45 49 -82 131q-58 189 -4 377q20 61 66 147q77 120 188 189zM1190 1032q-39 0 -64 25q-28 37 -28 65t28 66q25 24 64 24t63 -24q25 -33 25 -66t-25 -65q-24 -25 -63 -25z" />
<glyph unicode="&#x641;" horiz-adv-x="1003" arabic-form="initial" d="M547 1032q-39 0 -64 25q-49 64 0 131q25 24 64 24t63 -24q25 -33 25 -66t-25 -65q-24 -25 -63 -25zM774 393q0 155 -41 254q-21 37 -41 64q-48 63 -132 63q-85 0 -130 -33q-86 -63 -102 -200q-24 -132 -4 -222q20 -91 49 -131t71 -69t117 -29h213v303zM559 815 q88 0 156 -31t104 -79q49 -53 66 -127q25 -74 24 -168v-410h-938v90h316q-115 111 -115 306t98 304q41 45 123 86q78 29 166 29z" />
<glyph unicode="&#x641;" horiz-adv-x="991" arabic-form="medial" d="M487 1032q-37 0 -63 27t-27 53q0 70 58 92q25 8 47 8t49 -26t27 -64t-27 -64t-64 -26zM721 492q0 30 -19 103t-71 118q-49 61 -143 61q-95 0 -144 -61q-46 -37 -74 -123q-8 -16 -16 -58v-40q0 -123 55 -203t174 -129q123 49 181 131q57 82 57 201zM-25 0v90h45 q164 0 312 29q-45 25 -84 51q-87 58 -126 168t9 252q37 74 78 117q103 108 278 108q90 0 160 -29q78 -38 119 -80t78 -116q48 -142 8 -254q-20 -57 -49 -90q-45 -67 -164 -131q135 -25 315 -25h45v-90h-49q-193 0 -352 33q-57 8 -111 24q-212 -57 -462 -57h-50z" />
<glyph unicode="&#x642;" horiz-adv-x="1720" arabic-form="final" d="M1417 393q0 155 -41 254q-60 127 -189 127t-183 -119q-25 -45 -37 -114q-9 -90 -9 -137t14 -111q28 -123 113 -174q45 -29 119 -29h213v303zM451 676q-152 -167 -152 -492q0 -94 27 -162q28 -68 56 -98q28 -31 77 -63q83 -33 111 -37t53 -4h475q100 0 180 41q41 16 74 57 q37 29 49 82h-209q-175 0 -283 106q-98 124 -98 295q0 94 25 168q34 82 74 127t122 90q86 29 172 29t154 -31t104 -79q45 -49 70 -127q20 -82 20 -168v-320h185v-90h-197q-16 -66 -61 -121t-99 -84q-106 -69 -282 -69h-418q-45 0 -78 4q-113 0 -204 43t-128 88 q-45 49 -82 131q-58 189 -4 377q20 61 66 147q77 120 188 189zM1067 1212q11 0 33 -8q41 -15 51 -49q8 -17 8 -33q0 -57 -57 -82q-26 -8 -48 -8t-48 27t-27 63l4 33q3 4 11 19t38 30q25 8 35 8zM1354 1040q-22 -8 -42 -8q-19 0 -55 25q-28 37 -28 64t28 67q36 24 55 24 q20 0 42 -8q41 -15 51 -49q4 -8 4 -33t-4 -32q-8 -34 -51 -50z" />
<glyph unicode="&#x642;" horiz-adv-x="1040" arabic-form="initial" d="M426 1032q-33 0 -66 25q-49 64 0 131q65 49 132 0q49 -65 0 -131q-33 -25 -66 -25zM680 1032q-33 0 -66 25q-24 33 -24 61t8 37q0 32 35 44q35 13 53 13t55 -24q29 -39 29 -69t-25 -62q-32 -25 -65 -25zM774 393q0 155 -41 254q-21 37 -41 64q-48 63 -132 63 q-85 0 -130 -33q-86 -63 -102 -200q-24 -132 -4 -222q20 -91 49 -131t71 -69t117 -29h213v303zM559 815q88 0 156 -31t104 -79q49 -53 66 -127q25 -74 24 -168v-410h-938v90h316q-115 111 -115 306t98 304q41 45 123 86q78 29 166 29z" />
<glyph unicode="&#x642;" horiz-adv-x="983" arabic-form="medial" d="M360 1032q-33 0 -65 25q-25 33 -25 61t29 70q36 24 65 24t62 -24q25 -33 25 -66t-25 -65q-33 -25 -66 -25zM614 1032q-33 0 -65 25q-25 33 -25 65t25 66q51 38 98 16q25 -8 40 -23t17 -54q1 -38 -24 -70q-33 -25 -66 -25zM721 492q0 30 -19 103t-71 118q-49 61 -143 61 q-95 0 -144 -61q-46 -37 -74 -123q-8 -16 -16 -58v-40q0 -123 55 -203t174 -129q123 49 181 131q57 82 57 201zM-25 0v90h45q164 0 312 29q-45 25 -84 51q-87 58 -126 168t9 252q37 74 78 117q103 108 278 108q90 0 160 -29q78 -38 119 -80t78 -116q48 -142 8 -254 q-20 -57 -49 -90q-45 -67 -164 -131q135 -25 315 -25h45v-90h-49q-193 0 -352 33q-57 8 -111 24q-212 -57 -462 -57h-50z" />
<glyph unicode="&#x643;" horiz-adv-x="1433" arabic-form="final" d="M578 737q-74 41 -74 118t49 108q57 43 123 45q37 4 86 -16t74 -50l-33 -37q-33 21 -51 29t-64 8t-72 -22t-26 -60q0 -37 20 -57q96 -66 201 -66h25l-29 -61h-324v61h95zM1368 90h82v-90h-82q-20 0 -61 8q-54 27 -93 77t-43 54v-139h-651q-57 0 -86 4l-90 12 q-38 12 -68 26t-88 64q-65 101 -65 196t41 185t90 144l29 -21q-16 -16 -29 -53l-25 -61q-16 -80 -16 -150q0 -134 106 -207q49 -33 107 -37q57 -12 115 -12h495v1167l21 9l205 -78v-17q-39 -26 -54 -41q-32 -46 -32 -73l-5 -49v-828q90 -90 197 -90z" />
<glyph unicode="&#x643;" horiz-adv-x="1245" arabic-form="initial" d="M799 614q61 0 135 -16q66 -29 106 -61q45 -53 66 -107q20 -74 20 -156v-274h-1167v90h1032v164q0 78 -16 123q-23 96 -123 131q-37 16 -107 16h-557v90l648 562l110 110q37 37 86 127h17q13 -85 -82 -213q-41 -53 -90 -102l-107 -99l-98 -81q-57 -49 -74 -66l-270 -238 h471z" />
<glyph unicode="&#x643;" horiz-adv-x="1351" arabic-form="medial" d="M1294 90h82v-90h-82q-20 0 -61 8q-53 26 -92 77q-39 50 -43 54v-139h-1114v90h983v164q0 57 -17 123q-20 61 -49 82q-19 29 -69 47t-111 18h-561v90l647 562l111 110q53 53 86 127h20q0 -61 -22 -110q-55 -119 -158 -205l-99 -99l-98 -81q-53 -41 -74 -66l-274 -238h471 q57 0 139 -16q70 -30 107 -66q80 -79 82 -258v-94q90 -90 196 -90z" />
<glyph unicode="&#x644;" horiz-adv-x="1404" arabic-form="final" d="M459 676q-146 -160 -148 -488q0 -177 82 -262q25 -37 78 -65q57 -25 86 -33q57 -8 78 -8h53q61 0 107 16q112 18 180 127q33 53 33 119v1175l16 9l205 -78v-17q-71 -57 -78 -79q-8 -23 -8 -35l-4 -49v-828q90 -90 196 -90h86v-90h-86q-86 0 -155 86q-37 49 -41 53v-33 q0 -106 -33 -170q-68 -131 -242 -186q-123 -36 -254 -20q-113 0 -204 43t-127 88q-45 49 -82 131q-29 94 -29 194t22 172t68 158q77 120 188 189z" />
<glyph unicode="&#x644;" horiz-adv-x="454" arabic-form="initial" d="M328 0h-344v90h209v1167l20 9l205 -78v-17q-43 -29 -53 -41q-20 -29 -25 -36q-8 -25 -8 -37l-4 -49v-1008z" />
<glyph unicode="&#x644;" horiz-adv-x="585" arabic-form="medial" d="M516 90h86v-90h-86q-84 0 -156 86q-19 19 -36 53v-139h-349v90h213v1167l17 9l205 -78v-17q-73 -59 -80 -80q-6 -22 -6 -34v-877q90 -90 192 -90z" />
<glyph unicode="&#x645;" horiz-adv-x="1421" arabic-form="final" d="M1065 371q0 31 -4 51t-12 64q-28 152 -123 194q-33 20 -82 20h-8q-83 0 -140 -73q-16 -20 -41 -70q-32 -90 -32 -147v-316l213 -4q123 0 188 90q20 33 33 94q8 66 8 97zM614 4q-20 0 -36 -4q-37 0 -58 -8q-16 0 -57 -17q-54 -7 -86 -69q-16 -25 -25 -49q0 -27 -12 -54 q-4 -16 -4 -49q-8 -37 0 -90v-123q0 -61 8 -135q16 -74 33 -119l-8 -12q-45 25 -74 66q-33 33 -57 86q-29 53 -37 161t4 195q4 86 33 131q16 33 28 53q20 25 55 53q76 62 154 70v287q1 94 21 153t69 113q113 96 282 95t268 -100t97 -273q0 -119 -41 -197q33 -33 82 -53 q49 -25 99 -25h86v-90h-86q-25 0 -58 8q-52 21 -98 78q-10 10 -37 53v4q-87 -143 -323 -143h-86l-78 4h-58z" />
<glyph unicode="&#x645;" horiz-adv-x="978" arabic-form="initial" d="M524 90q74 0 119 25q49 37 67 65t35 94q9 74 9 104t-18 118q-18 89 -64 135q-25 37 -58 49q-33 20 -82 20h-8q-42 0 -72 -16t-67 -53q-25 -41 -41 -74q-16 -49 -22 -86t-10 -57t-5 -45v-189q43 -43 103 -65q8 -4 57 -17q49 -8 57 -8zM524 0q-20 0 -61 8q-20 8 -62 33 q-46 34 -94 98v-139h-315v90h172v287q0 94 20 155q29 70 72 113t113 72q73 25 163 25t152 -29q142 -51 193 -193q25 -70 24 -151q0 -369 -377 -369z" />
<glyph unicode="&#x645;" horiz-adv-x="1155" arabic-form="medial" d="M573 700h-4q-45 0 -75 -16t-68 -53q-29 -41 -37 -74q-20 -37 -26 -80t-11 -63v-234q25 -25 41 -37q96 -53 171 -53t120 25q89 67 99 150q11 83 12 112v49q-8 41 -13 66l-24 73q-25 49 -41 66q-25 37 -62 49q-25 20 -82 20zM352 0h-377v90h230v287q0 82 24 155 q56 136 185 185q70 25 162 25t159 -30q209 -88 207 -364q0 -102 -37 -180q37 -37 82 -53q49 -25 94 -25h86v-90h-86q-25 0 -57 12t-53 29l-45 45q-12 16 -37 57q-87 -143 -320 -143q-20 0 -61 8q-62 25 -115 78q-4 4 -41 53v-139z" />
<glyph unicode="&#x646;" horiz-adv-x="1421" arabic-form="final" d="M694 1163q35 -1 64 -29q28 -28 28 -63t-26 -61t-62 -27q-35 0 -67 25q-25 25 -25 55t8 43q0 12 22 34t58 23zM1352 90h82v-90h-82q-20 0 -62 8q-53 26 -92 77q-39 50 -43 54v-33q0 -106 -33 -170q-68 -131 -241 -186q-120 -35 -258 -20q-110 0 -199 43q-90 43 -136 92 q-104 110 -104 312t83 330t196 198l12 -29q-41 -44 -70 -100t-55 -156t-26 -211t26 -183t56 -102q29 -31 77 -63q83 -33 111 -37t53 -4h58q61 0 106 16q117 27 180 127q29 45 29 119l4 704l16 9l205 -78v-17q-41 -25 -53 -45q-16 -13 -24 -35t-9 -34l-4 -45v-361 q90 -90 197 -90z" />
<glyph unicode="&#x646;" horiz-adv-x="606" arabic-form="initial" d="M524 1080q0 -32 -4 -44t-24 -32t-52 -21q-30 0 -42 4t-36 27q-22 23 -22 58q0 34 28 62t64 29q35 0 61 -26q27 -25 27 -57zM483 0h-495v90h360v696l21 9l204 -78v-17q-41 -25 -53 -45q-29 -22 -33 -69l-4 -45v-541z" />
<glyph unicode="&#x646;" horiz-adv-x="667" arabic-form="medial" d="M614 90h70v-90h-70q-16 0 -57 8q-20 8 -53 33l-45 45q-21 21 -37 53v-139h-434v90h299v696l20 9l201 -78v-17q-37 -29 -49 -45q-37 -28 -37 -114v-361q90 -90 192 -90zM350 1140q22 22 57 23q35 -1 64 -29t29 -63t-22 -57t-36 -26q-12 -4 -34 -5q-22 0 -35 4 q-13 5 -29 21t-16 28q-8 12 -8 34t8 36q0 12 22 34z" />
<glyph unicode="&#x647;" horiz-adv-x="987" arabic-form="final" d="M729 393q0 155 -41 254q-60 127 -188 127t-185 -119q-25 -45 -36 -114q-9 -90 -9 -137t14 -111q26 -114 117 -174q49 -29 115 -29h213v303zM1008 90v-90h-504q-171 0 -279 106q-104 113 -102 295q0 94 24 168q33 82 74 127t123 90q86 29 172 29t154 -31t104 -79 q45 -49 70 -127q20 -82 20 -168v-320h144z" />
<glyph unicode="&#x647;" horiz-adv-x="1105" arabic-form="initial" d="M586 90v250q0 69 -21 127l-24 61q-52 60 -119 61t-111 -57q-16 -26 -22 -54q-7 -28 -13 -58t-6 -72q4 -16 6 -57t27 -94q52 -85 156 -95q57 -12 127 -12zM995 0h-1024v90h254q-87 87 -94 205q-27 128 49 229q45 53 94 74q54 33 148 33t151 -25q117 -63 136 -180 q12 -61 12 -127v-209h139v303q0 57 -8 98t-8 74q-8 41 -25 82q-21 37 -41 64q-48 63 -143 63h-209l4 41h209q94 0 162 -31t104 -79q45 -49 70 -127q20 -82 20 -168v-410z" />
<glyph unicode="&#x647;" horiz-adv-x="1253" arabic-form="medial" d="M586 90v250q0 69 -21 127l-24 61q-52 60 -119 61t-111 -57q-16 -26 -22 -54q-7 -28 -13 -58t-6 -72q4 -16 6 -57t27 -94q52 -85 156 -95q57 -12 127 -12zM1188 90h86v-90h-86q-25 0 -58 8q-52 21 -98 78q-10 10 -37 53v-139h-1024v90h254q-87 87 -94 205q-27 128 49 229 q45 53 94 74q54 33 148 33t151 -25q117 -63 136 -180q12 -61 12 -127v-209h139v303q0 57 -8 98t-8 74q-8 41 -25 82q-21 37 -41 64q-48 63 -143 63h-209l4 41h209q94 0 162 -31t104 -79q45 -49 70 -127q20 -82 20 -168v-230q90 -90 193 -90z" />
<glyph unicode="&#x648;" horiz-adv-x="966" arabic-form="final" d="M705 393q-1 57 -9 96t-8 76q-8 25 -24 82q-20 37 -40 64q-48 63 -134 63q-85 0 -130 -33q-82 -60 -106 -200q-8 -82 -8 -133t14 -115q27 -123 113 -174q57 -29 119 -29h213v303zM995 90v-90h-155q0 -78 -17 -176q-20 -74 -53 -127q-49 -57 -115 -92t-168 -72l-12 29 q82 37 123 78q49 41 66 90q28 52 34 128t7 142h-226q-176 0 -282 106q-99 125 -99 295q0 90 25 172q33 74 74 121t122 92q86 29 168 29t152 -29q78 -37 111 -81q45 -49 69 -127q20 -82 21 -168v-320h155z" />
<glyph unicode="&#x649;" horiz-adv-x="2023" arabic-form="final" d="M1163 -180q78 0 119 16t74 49q57 71 57 209v78q-228 0 -323 74q-53 37 -91 102q-29 70 -29 164t38 172q37 78 98 127q108 100 270 98h213q94 0 156 -24q66 -33 98 -82q68 -84 70 -307v-406h135v-90h-270v467q0 74 -9 115q0 49 -20 106t-61 98q-41 33 -99 33h-188 q-43 0 -85 -12q-138 -39 -190 -172q-20 -61 -20 -123q0 -131 78 -180q73 -49 205 -49h159v-217q0 -172 -118 -263q-115 -77 -287 -77h-381q-111 0 -246 12q-70 12 -127 41q-129 53 -184 201q-29 70 -29 192v504h135v-434q0 -219 90 -320q29 -41 91 -69q98 -37 213 -37l98 4 h360z" />
<glyph unicode="&#x64a;" horiz-adv-x="2027" arabic-form="final" d="M1163 -180q78 0 119 16t74 49q57 71 57 209v78q-228 0 -323 74q-53 37 -91 102q-29 70 -29 164t38 172q37 78 98 127q108 100 270 98h213q94 0 156 -24q66 -33 98 -82q68 -84 70 -307v-406h135v-90h-270v467q0 74 -9 115q0 49 -20 106t-61 98q-41 33 -99 33h-188 q-43 0 -85 -12q-138 -39 -190 -172q-20 -61 -20 -123q0 -131 78 -180q73 -49 205 -49h159v-217q0 -172 -118 -263q-115 -77 -287 -77h-381q-111 0 -246 12q-70 12 -127 41q-129 53 -184 201q-29 70 -29 192v504h135v-434q0 -219 90 -320q29 -41 91 -69q98 -37 213 -37l98 4 h360zM745 -543q0 39 25 64q65 49 131 0q25 -25 25 -64t-25 -63q-33 -25 -65 -25t-66 25q-25 24 -25 63zM999 -543q0 39 25 64q65 49 131 0q25 -25 25 -64t-25 -63q-33 -25 -65 -25t-66 25q-25 24 -25 63z" />
<glyph unicode="&#x64a;" horiz-adv-x="610" arabic-form="initial" d="M204 -338q-24 -27 -60 -27t-66 29q-4 4 -21 29l-4 33l4 36q17 25 21 29t28 21l37 4q37 0 62 -27t25 -63q-2 -36 -26 -64zM477 -232q6 -18 6 -48t-25 -56t-49 -27q-47 -3 -76 26q-30 31 -30 65t29 63q4 4 28 21l33 4l37 -4q41 -26 47 -44zM483 0h-495v90h360v696l21 9 l204 -78v-17q-41 -25 -53 -45q-29 -22 -33 -69l-4 -45v-541z" />
<glyph unicode="&#x64a;" horiz-adv-x="663" arabic-form="medial" d="M258 -274q0 -36 -29 -62q-25 -29 -59 -29t-63 28t-29 63t28 65q4 4 29 21l33 4q37 0 61 -29q29 -25 29 -61zM471 -198q41 -33 41 -87q0 -22 -28 -50t-60 -29q-32 -2 -62 27t-30 52q0 59 41 86q8 6 12 11l37 4l37 -4q4 -4 12 -10zM614 90h70v-90h-70q-16 0 -57 8 q-20 8 -53 33l-45 45q-21 21 -37 53v-139h-434v90h299v696l20 9l201 -78v-17q-37 -29 -49 -45q-37 -28 -37 -114v-361q90 -90 192 -90z" />
<glyph unicode="&#xd;" horiz-adv-x="679" />
<glyph unicode=" "  horiz-adv-x="425" />
<glyph unicode="&#x09;" horiz-adv-x="425" />
<glyph unicode="&#xa0;" horiz-adv-x="425" />
<glyph unicode="!" horiz-adv-x="462" d="M295 397q0 -76 -45 -78h-17l-86 811l209 33zM260 -16q-104 0 -104 106t106 107q102 -1 102 -107t-104 -106z" />
<glyph unicode="&#x22;" horiz-adv-x="585" d="M160 1204q45 0 61 -8t33 -25l-57 -364h-58l-57 364q33 33 78 33zM418 1204q37 0 47 -6t22 -14t21 -13l-66 -364h-49l-65 364q8 5 20 13t22 14t48 6z" />
<glyph unicode="#" horiz-adv-x="999" d="M381 360h192l50 197h-193zM217 664h152l65 262h86l-65 -262h192l66 262h86l-66 -262h152l-25 -107h-151l-50 -197h152l-29 -102h-147l-70 -287h-90l74 287h-193l-69 -287h-86l69 287h-155l24 102h156l49 197h-151z" />
<glyph unicode="$" d="M332 717q0 -53 43 -93t190 -104q57 -20 115 -61q57 -45 88 -88t31 -129t-62 -160q-70 -70 -176 -86v-143h-119v139q-160 12 -303 90l58 188h82l16 -123q41 -33 94 -49q53 -24 121 -24t113 39t45 98t-37 88q-33 33 -63 47t-70 34q-39 20 -72 34q-33 12 -107 53 q-57 45 -81 82q-37 49 -37 135q-1 86 71 158t195 84v147h119v-139q37 -4 110 -21q90 -33 107 -41l-49 -159h-74l-25 90q-33 20 -73 28q-36 13 -94 13t-107 -37t-49 -90z" />
<glyph unicode="%" horiz-adv-x="1380" d="M369 885q-103 0 -103 -201t101 -201q100 0 100 201t-98 201zM598 688q0 -138 -66 -200t-167 -62q-102 0 -168 61q-66 66 -66 199t66 199q70 57 182 57t153 -57q30 -19 48 -73t18 -124zM1049 975l73 -66l-778 -950l-74 61zM1016 442q-102 0 -102 -200t100 -201 q100 1 100 201t-98 200zM778 246q0 252 238 254q120 0 164 -58q29 -20 47 -74t18 -126q0 -140 -65 -197q-25 -33 -74 -47t-90 -14q-106 0 -172 61q-66 66 -66 201z" />
<glyph unicode="&#x26;" horiz-adv-x="1110" d="M672 844q0 74 -41 114q-37 41 -103 41t-94 -41q-37 -37 -37 -82t2 -55t23 -59q12 -38 26 -58t29 -42q14 -22 39 -56q156 116 156 238zM299 283q0 -85 49 -135t121 -50q129 0 203 66l-250 352q-123 -86 -123 -233zM942 -16q-127 0 -225 122q-139 -122 -281 -122 q-72 0 -121 24q-53 20 -86 53q-33 25 -53 76t-20 101q0 90 57 174t176 145q-71 93 -95 151t-24 113t17 101q29 57 59 88q77 78 203 79t192 -65q29 -25 49 -68t21 -84q0 -175 -262 -307l213 -303q41 86 41 287l115 65l16 -16q-16 -145 -45 -209q-25 -66 -41 -94 q-12 -33 -45 -82q57 -67 127 -97t168 -42l-17 -66q-25 -4 -59 -14t-80 -10z" />
<glyph unicode="'" horiz-adv-x="335" d="M160 1204q45 0 61 -8t33 -25l-57 -364h-58l-57 364q33 33 78 33z" />
<glyph unicode="(" horiz-adv-x="487" d="M299 942q-53 -164 -53 -472q0 -307 53 -450q20 -78 66 -159q49 -78 94 -123l-33 -82q-74 61 -152 156q-66 94 -104 182q-88 200 -88 482t86 476t258 338l33 -57q-37 -37 -94 -127q-45 -86 -66 -164z" />
<glyph unicode=")" horiz-adv-x="487" d="M66 1290q342 -284 344 -815q0 -147 -25 -262q-20 -127 -66 -217q-72 -184 -253 -340l-33 82q61 66 90 123q33 53 70 159q51 187 52 390q1 204 -9 302t-43 230q-41 114 -74 172t-86 119z" />
<glyph unicode="*" horiz-adv-x="802" d="M406 1257q69 0 69 -69t-57 -246l250 148q57 -36 57 -90t-53 -66q-41 -20 -172 -21h-41q-20 0 -33 5l213 -197q-8 -33 -33 -57q-26 -24 -62 -25t-69 57t-74 205l-114 -270q-45 0 -80 22t-35 60q0 70 205 205l-287 24q-8 16 -8 55t16 60q25 25 54 25q28 0 98 -42 q70 -41 135 -98l-57 287q41 29 78 28z" />
<glyph unicode="+" d="M127 508h287v303h118v-303h287v-111h-287v-299h-118v299h-287v111z" />
<glyph unicode="," horiz-adv-x="520" d="M369 28q0 -62 -41 -151q-57 -82 -156 -156l-41 41q53 61 82 115q16 45 25 82l-132 98l99 164q78 -25 121 -78t43 -115z" />
<glyph unicode="-" horiz-adv-x="643" d="M74 401q0 89 131 91h377v-41q0 -89 -140 -91h-368v41z" />
<glyph unicode="." horiz-adv-x="569" d="M172 98q0 115 115 115q53 0 82 -29t28 -86q-1 -108 -113 -107t-112 107z" />
<glyph unicode="/" horiz-adv-x="593" d="M487 1245l111 -41l-492 -1384l-106 41z" />
<glyph unicode=":" horiz-adv-x="544" d="M172 664q0 115 115 114q112 0 110 -114q-1 -106 -113 -106t-112 106zM172 98q0 115 115 115q53 0 82 -29t28 -86q-1 -108 -113 -107t-112 107z" />
<glyph unicode=";" horiz-adv-x="565" d="M410 28q0 -62 -41 -151q-57 -82 -156 -156l-41 41q53 61 82 115q16 45 25 82l-132 98l99 164q78 -25 121 -78t43 -115zM172 664q0 115 115 114q112 0 110 -114q-1 -106 -113 -106t-112 106z" />
<glyph unicode="&#x3c;" d="M819 -20l-696 401v131l696 401v-135l-586 -332l586 -331v-135z" />
<glyph unicode="=" d="M127 508v110h692v-110h-692zM127 270v115h692v-115h-692z" />
<glyph unicode="&#x3e;" d="M123 115l586 331l-586 332v135l696 -401v-131l-696 -401v135z" />
<glyph unicode="?" horiz-adv-x="761" d="M393 -16q-102 0 -102 106t102 107q107 -1 107 -107t-107 -106zM401 1180q61 0 123 -20t94 -54q41 -29 62 -78q25 -45 25 -92t-6 -82t-72 -133q-12 -16 -86 -90q-101 -88 -133 -128q-31 -41 -31 -73q0 -33 12 -57q4 -4 33 -45l-70 -25q-41 37 -73 74q-25 41 -25 78t8 53 q9 44 78 115q20 25 78 82q45 37 61 57t53 69q33 54 33 97q0 90 -33 121q-24 16 -36 20t-50 4t-55 -4q-18 -4 -59 -20q-67 -42 -107 -72q-41 -31 -61 -43l-103 115q161 131 340 131z" />
<glyph unicode="@" horiz-adv-x="1396" d="M561 336q0 -123 62 -123q33 0 82 57q53 57 81 160q33 87 33 188l-57 21l-49 4h-25l-8 -4h-8q-42 -23 -78 -111q-16 -57 -25 -90q-8 -66 -8 -102zM893 322q0 -105 20 -138q25 -28 68 -28q139 2 195 196q20 82 20 170q0 170 -111 289q-111 111 -294 111q-115 0 -217 -52 t-178 -139q-76 -88 -109 -190q-45 -106 -45 -219t28 -199q45 -82 86 -115q49 -45 127 -69q82 -21 202 -21t208 41l29 -41q-125 -90 -337 -90t-347 123q-132 115 -132 356t189 471q94 98 223 166t293 68q217 0 348 -123q144 -128 144 -350q0 -221 -107 -359q-53 -66 -106 -90 q-53 -33 -131 -33t-123 58q-49 57 -41 176q-120 -201 -230 -201q-53 0 -90 49q-41 45 -41 133t25 166q41 106 73 152q29 53 99 115q57 45 110 45q98 0 213 -41q-61 -282 -61 -387z" />
<glyph unicode="[" horiz-adv-x="450" d="M82 459v270q8 156 8 201q4 29 14 127t19 135q90 55 299 86v-78q-57 -8 -94 -20q-41 -8 -78 -33q-4 -29 -21 -242l-4 -446l4 -443q16 -213 21 -245q4 -5 31 -15t47 -18q90 -20 94 -21v-73q-114 16 -174 32t-125 54q-21 94 -31 232t-10 497z" />
<glyph unicode="\" horiz-adv-x="593" d="M598 -139l-106 -41l-492 1384l106 41z" />
<glyph unicode="]" horiz-adv-x="450" d="M366 768q6 -117 7 -443q0 -326 -41 -595q-78 -41 -135 -54q-49 -16 -164 -32v73q25 4 90 21l82 33q24 210 24 706t-24 670q-60 32 -172 53v78q172 -24 299 -86q13 -154 28 -262q0 -45 6 -162z" />
<glyph unicode="^" horiz-adv-x="1097" d="M119 385l385 696h94l385 -696h-131l-303 590l-295 -590h-135z" />
<glyph unicode="_" horiz-adv-x="1024" d="M0 -74h1024v-98h-1024v98z" />
<glyph unicode="`" horiz-adv-x="716" d="M459 909l-135 107q-86 66 -107 96t-20 64t25 60t57 34l221 -320z" />
<glyph unicode="{" horiz-adv-x="454" d="M336 295q0 -41 -25 -109t-52 -117q-27 -50 -62 -159q37 -57 86 -90q49 -45 110 -58l33 -131q-142 26 -242 115q-94 94 -94 162t20 116t54 104q33 56 45 101q16 37 16 80t-32 68q-25 25 -111 45v70q82 20 111 40q57 57 16 152q-12 45 -49 111q-70 109 -70 200q0 37 25 84 t69 84q41 41 109 76t133 39l-33 -123q-49 -16 -110 -57q-57 -53 -86 -90q25 -66 28 -82q109 -223 111 -308q0 -123 -164 -159q164 -50 164 -164z" />
<glyph unicode="|" horiz-adv-x="819" d="M352 1163h115v-1261h-115v1261z" />
<glyph unicode="}" horiz-adv-x="454" d="M123 295q0 109 156 164q-156 37 -156 159q-1 88 65 218q66 129 66 172q-20 37 -82 90q-61 41 -106 57l-33 123q57 -4 127 -39t110 -76q95 -78 95 -178q0 -47 -23 -96t-47 -94l-49 -111q-41 -95 16 -152q29 -20 115 -40v-70q-90 -20 -115 -45q-33 -25 -33 -68t21 -90 t45 -96q68 -116 69 -200t-94 -177q-44 -41 -110 -74t-127 -41l33 131q57 16 106 58q57 37 82 90q0 33 -25 78q-8 29 -45 102q-61 147 -61 205z" />
<glyph unicode="~" horiz-adv-x="999" d="M266 557q49 49 92 49t137 -57q95 -57 103 -62q38 -12 56 -12t28 4t20 10t19 11l41 41q4 4 12 16q8 13 18 25t19 24l41 -41q-66 -119 -123 -180q-41 -49 -90 -49q-20 0 -93 36t-112 62l-65 33h-17q-49 0 -65 -21q-16 -8 -41 -38t-58 -72l-41 41q74 127 119 180z" />
<glyph unicode="&#xad;" horiz-adv-x="643" d="M74 401q0 89 131 91h377v-41q0 -89 -140 -91h-368v41z" />
<glyph unicode="&#xd7;" horiz-adv-x="1171" d="M512 442l-373 373l74 78l377 -377l368 377l74 -78l-368 -373l368 -368l-74 -74l-368 369l-377 -369l-74 74z" />
<glyph unicode="&#xf7;" horiz-adv-x="1134" d="M565 188q41 0 74 -32t33 -74q0 -41 -33 -74t-74 -33t-73 33t-33 74q1 42 33 74t73 32zM565 913q41 -1 74 -33t33 -73t-33 -74t-74 -33t-73 31t-33 76q1 45 33 75t73 31zM1016 393h-893v107h893v-107z" />
<glyph unicode="&#x60c;" horiz-adv-x="466" d="M115 156q0 86 53 155q41 74 143 135l41 -36q-102 -106 -119 -213q25 -33 58 -50q37 -25 78 -36l-90 -164q-164 61 -164 209z" />
<glyph unicode="&#x61b;" horiz-adv-x="466" d="M348 98q0 -108 -112 -107t-113 107q0 115 115 115q110 0 110 -115zM106 705q0 86 54 155q41 74 143 135l41 -37q-102 -106 -119 -213q25 -33 58 -49q37 -25 77 -37l-90 -163q-164 61 -164 209z" />
<glyph unicode="&#x61f;" horiz-adv-x="716" d="M254 70q0 98 98 98t99 -98q-1 -98 -99 -98t-98 98zM381 422q0 28 -37 86q-33 41 -131 147q-94 85 -117 141q-43 104 -6 212q54 105 160 147q61 21 141 21t152 -33t121 -86l-111 -115q-106 115 -225 115q-70 0 -111 -21q-12 -12 -12 -32q-4 -12 -4 -46t10 -63 q10 -30 26 -49q17 -18 25 -27l66 -74q114 -114 135 -163q30 -47 31 -93q2 -47 -16 -87t-68 -91q-33 -16 -41 -16h-58q8 8 54 70q16 29 16 57z" />
<glyph unicode="&#x621;" horiz-adv-x="1171" d="M147 123q50 -25 74 -25l45 -4l33 -4h94v385q0 33 17 98q34 57 62 86t77 54q67 25 107 29t122 -13q74 -33 111 -57q53 -29 94 -78q41 -41 74 -94l-29 -13q-57 66 -131 119q-132 74 -221 45q-49 -20 -84 -55t-43 -72q-20 -37 -21 -90v-344h529v-90h-664q-77 0 -147 33 q-41 16 -62 28q-33 25 -45 37z" />
<glyph unicode="&#x622;" horiz-adv-x="614" d="M344 0h-135v1257l20 5l201 -74v-17q-31 -31 -49 -41q-20 -29 -25 -36l-12 -37v-1057zM248 1458q-10 0 -51 8q-46 0 -78 -16q-12 0 -21 -8q-5 0 -20 -17q-8 -4 -12 -8l-9 8l17 25l24 25q46 46 74 51q28 6 74 6l33 -16q8 0 24 -9q12 -12 21 -12q57 -29 106 -29 q52 -8 102 17l25 24l21 17l8 -13q-16 -16 -31 -38t-59 -52q-56 -22 -119 -12q-37 9 -78 29t-51 20z" />
<glyph unicode="&#x623;" horiz-adv-x="536" d="M217 1483h242l28 -78h-413v78h65q0 91 25 135q25 45 49 61q25 25 78 33q65 0 98 -20q29 -9 70 -50l-29 -45q-47 41 -111 41q-102 0 -102 -155zM344 0h-135v1257l20 5l201 -74v-17q-31 -31 -49 -41q-20 -29 -25 -36l-12 -37v-1057z" />
<glyph unicode="&#x624;" d="M303 958v74h66q0 218 155 230h49q16 -8 50 -17l36 -24q12 -8 29 -25l-24 -45q-47 41 -115 41q-8 0 -41 -8q-20 -8 -25 -21q-16 -16 -32 -61q0 -10 -5 -70h242l33 -74h-418zM688 90v385q0 42 -16 99t-25 73q-20 64 -98 111q-33 16 -95 16t-106 -33q-45 -33 -69 -86 q-42 -71 -44 -225q-2 -155 48 -237q76 -103 196 -103h209zM688 0h-221q-175 0 -283 106q-98 114 -98 293t102 301q37 41 119 86q86 29 172 29q166 0 258 -110q49 -53 66 -127q25 -74 24 -168v-377q0 -123 -16 -193q-12 -78 -49 -135q-45 -57 -111 -94q-53 -37 -176 -78 l-12 29q217 98 217 282q8 45 8 156z" />
<glyph unicode="&#x625;" horiz-adv-x="507" d="M66 -475v78h65q0 99 25 139q20 45 49 61q20 20 78 29q68 0 98 -20q16 -4 41 -21l29 -29l-25 -41q-8 5 -38 23t-72 18t-74 -32q-12 -16 -29 -58l-4 -69h242l28 -78h-413zM344 0h-135v1257l20 5l201 -74v-17q-31 -31 -49 -41q-20 -29 -25 -36l-12 -37v-1057z" />
<glyph unicode="&#x626;" horiz-adv-x="1564" d="M1077 -180q146 0 193 65q57 57 57 209v78q-235 0 -323 74q-119 77 -119 258q0 132 73 229q49 57 78 80t94 55q66 25 101 33t117 8t139 -32l-12 -25q-123 12 -226 -21q-101 -27 -155 -98q-25 -29 -54 -94q-16 -74 -16 -127t16 -111q29 -49 62 -71q68 -46 201 -47h159v-217 q0 -173 -119 -263q-115 -77 -286 -77h-377q-123 0 -246 12q-78 12 -131 41q-53 19 -104 71t-76 130q-33 78 -33 192v504h139v-434q0 -223 86 -320q97 -106 303 -106l99 4h360zM45 770v78h66q0 99 24 139q16 33 45 62q33 25 91 27t89 -19q16 -4 41 -21l29 -28l-29 -41 q-29 20 -57 32q-42 9 -60 9t-30 -13q-16 -4 -33 -20q-25 -33 -24 -57q-8 -25 -9 -70h242l29 -78h-414z" />
<glyph unicode="&#x627;" horiz-adv-x="487" d="M344 0h-135v1257l20 5l201 -74v-17q-31 -31 -49 -41q-20 -29 -25 -36l-12 -37v-1057z" />
<glyph unicode="&#x628;" horiz-adv-x="1560" d="M1425 0h-921q-57 0 -86 4l-90 12q-38 12 -68 26t-88 64q-64 100 -65 201q-1 173 131 324l28 -21q-16 -16 -28 -53l-25 -61q-16 -80 -16 -150q0 -135 106 -207q64 -45 221 -45h766v692l21 9l205 -78v-17q-41 -25 -54 -45q-16 -13 -24 -35t-8 -34l-5 -45v-541zM717 -274 q0 37 28 61q25 29 62 29t61 -29q29 -25 29 -61t-29 -62q-26 -29 -62 -29t-61 29q-28 25 -28 62z" />
<glyph unicode="&#x629;" horiz-adv-x="917" d="M332 1032q-37 0 -64 27q-26 27 -26 63t26 64q26 26 64 26t64 -26t26 -64t-26 -64t-64 -26zM676 1112q0 -26 -27 -53t-63 -27t-64 27q-26 27 -26 63t26 64q26 27 64 26q8 0 32 -8q58 -24 58 -92zM680 393q0 57 -4 82q0 83 -37 172q-21 37 -39 61q-49 66 -130 66t-134 -33 q-94 -69 -103 -200q-12 -66 -12 -125q0 -213 131 -297q49 -29 115 -29h213v303zM465 815q87 0 155 -31t105 -79q45 -49 70 -127q20 -82 20 -168v-410h-360q-171 0 -279 106q-100 116 -98 295q0 98 28 168q25 78 68 125t125 92q78 29 166 29z" />
<glyph unicode="&#x62a;" horiz-adv-x="1560" d="M770 1071q0 -39 -24 -63t-64 -25q-39 0 -66 27q-26 28 -26 62t28 63q29 29 64 29q36 0 62 -28q26 -26 26 -65zM844 1071q0 39 24 64q37 29 66 29t65 -29q25 -25 25 -64t-25 -63q-33 -25 -65 -25t-66 25q-24 24 -24 63zM1425 0h-921q-57 0 -86 4l-90 12q-38 12 -68 26 t-88 64q-64 100 -65 201q-1 173 131 324l28 -21q-16 -16 -28 -53l-25 -61q-16 -80 -16 -150q0 -135 106 -207q64 -45 221 -45h766v692l21 9l205 -78v-17q-41 -25 -54 -45q-16 -13 -24 -35t-8 -34l-5 -45v-541z" />
<glyph unicode="&#x62b;" horiz-adv-x="1560" d="M1425 0h-921q-57 0 -86 4l-90 12q-38 12 -68 26t-88 64q-64 100 -65 201q-1 173 131 324l28 -21q-16 -16 -28 -53l-25 -61q-16 -80 -16 -150q0 -135 106 -207q64 -45 221 -45h766v692l21 9l205 -78v-17q-41 -25 -54 -45q-16 -13 -24 -35t-8 -34l-5 -45v-541zM807 1237 q-37 0 -62 25q-25 26 -25 64t25 63t62 25t63 -26q26 -24 27 -63q0 -39 -29 -63q-24 -25 -61 -25zM770 1071q0 -39 -24 -63t-64 -25q-39 0 -66 27q-26 28 -26 62t28 63q29 29 64 29q36 0 62 -28q26 -26 26 -65zM844 1071q0 39 24 64q37 29 66 29t65 -29q25 -25 25 -64 t-25 -63q-33 -25 -65 -25t-66 25q-24 24 -24 63z" />
<glyph unicode="&#x62c;" horiz-adv-x="1032" d="M147 -322q0 84 13 150q20 74 53 123q25 49 90 90q78 40 172 53l270 4v332q0 44 -8 114t-24 99q-25 33 -78 53t-111 9q-57 -3 -127 -51t-118 -113l-25 8q20 45 70 96q92 95 208 133q57 20 121 12q124 -15 170 -85q25 -33 45 -82q12 -49 9 -99v-524h-312q-98 0 -155 -33 q-116 -67 -123 -164q-16 -77 -13 -119q4 -41 5 -53q25 -69 27 -77t30 -66q16 -20 57 -61q70 -56 172 -58q45 1 80 9t55 8l62 24q37 12 53 29l21 -29q-158 -127 -344 -127q-33 0 -111 29q-82 45 -127 90t-76 119q-31 73 -31 157zM492 -274q0 38 24 64t64 26q39 0 63 -29 q29 -29 29 -61t-27 -62q-27 -29 -65 -29t-64 27q-24 27 -24 64z" />
<glyph unicode="&#x62d;" horiz-adv-x="1032" d="M147 -322q0 84 13 150q20 74 53 123q25 49 90 90q78 40 172 53l270 4v332q0 44 -8 114t-24 99q-25 33 -78 53t-111 9q-57 -3 -127 -51t-118 -113l-25 8q20 45 70 96q92 95 208 133q57 20 121 12q124 -15 170 -85q25 -33 45 -82q12 -49 9 -99v-524h-312q-98 0 -155 -33 q-116 -67 -123 -164q-16 -77 -13 -119q4 -41 5 -53q25 -69 27 -77t30 -66q16 -20 57 -61q70 -56 172 -58q45 1 80 9t55 8l62 24q37 12 53 29l21 -29q-158 -127 -344 -127q-33 0 -111 29q-82 45 -127 90t-76 119q-31 73 -31 157z" />
<glyph unicode="&#x62e;" horiz-adv-x="1032" d="M147 -322q0 84 13 150q20 74 53 123q25 49 90 90q78 40 172 53l270 4v332q0 44 -8 114t-24 99q-25 33 -78 53t-111 9q-57 -3 -127 -51t-118 -113l-25 8q20 45 70 96q92 95 208 133q57 20 121 12q124 -15 170 -85q25 -33 45 -82q12 -49 9 -99v-524h-312q-98 0 -155 -33 q-116 -67 -123 -164q-16 -77 -13 -119q4 -41 5 -53q25 -69 27 -77t30 -66q16 -20 57 -61q70 -56 172 -58q45 1 80 9t55 8l62 24q37 12 53 29l21 -29q-158 -127 -344 -127q-33 0 -111 29q-82 45 -127 90t-76 119q-31 73 -31 157zM492 1057q0 33 24 65q25 25 64 25t63 -25 q29 -38 29 -66t-29 -65q-25 -25 -63 -25t-64 25q-24 33 -24 66z" />
<glyph unicode="&#x62f;" horiz-adv-x="954" d="M848 0h-655l-37 156l28 4q8 -25 37 -45q15 -9 71 -17t101 -8h320v295q0 120 -29 197q-12 41 -32 67q-20 25 -66 63q-45 38 -103 62l13 29q115 -37 180 -74q134 -86 160 -233q12 -78 12 -193v-303z" />
<glyph unicode="&#x630;" horiz-adv-x="954" d="M848 0h-655l-37 156l28 4q8 -25 37 -45q15 -9 71 -17t101 -8h320v295q0 120 -29 197q-12 41 -32 67q-20 25 -66 63q-45 38 -103 62l13 29q115 -37 180 -74q134 -86 160 -233q12 -78 12 -193v-303zM518 998q-24 -22 -58 -23q-34 1 -62 29t-29 65q0 37 24 61q33 25 66 25 t65 -25q25 -25 25 -55t-8 -43q0 -12 -23 -34z" />
<glyph unicode="&#x631;" horiz-adv-x="606" d="M455 352v-323q0 -239 -62 -328q-45 -57 -110 -94q-57 -37 -181 -78l-8 29q78 42 104 64t56 54q16 20 41 70q16 57 16 90q8 33 8 111v655l21 8l201 -78v-16q-28 -28 -49 -41q-20 -29 -25 -37q-12 -38 -12 -86z" />
<glyph unicode="&#x632;" horiz-adv-x="606" d="M455 352v-323q0 -239 -62 -328q-45 -57 -110 -94q-57 -37 -181 -78l-8 29q78 42 104 64t56 54q16 20 41 70q16 57 16 90q8 33 8 111v655l21 8l201 -78v-16q-28 -28 -49 -41q-20 -29 -25 -37q-12 -38 -12 -86zM436 799q-40 1 -66 27t-26 61t22 57t35 26q12 4 35 5 q23 0 35 -4q13 -5 29 -21t20 -28t4 -43t-24 -56q-25 -24 -64 -24z" />
<glyph unicode="&#x633;" horiz-adv-x="2088" d="M1970 401v-401h-209q-20 0 -61 8q-68 34 -135 135v-143h-209q-16 0 -58 8q-74 30 -135 131v-33q0 -106 -33 -170q-69 -132 -245 -186q-115 -35 -254 -20q-110 0 -199 43q-88 43 -135 92q-106 110 -105 314q1 203 85 330t194 196l12 -29q-41 -44 -69 -100t-56 -156 q-26 -100 -26 -211t26 -183t56 -102q29 -31 78 -63q82 -33 110 -37t53 -4h58q57 0 106 16q118 25 180 127q29 45 29 119v524l21 8l114 -45v-389q37 -38 92 -64t101 -26h74v512l20 8l115 -45v-385q37 -38 92 -64t104 -26h74v512l16 8l205 -78v-16q-71 -57 -79 -80 q-7 -23 -7 -35z" />
<glyph unicode="&#x634;" horiz-adv-x="2088" d="M1970 401v-401h-209q-20 0 -61 8q-68 34 -135 135v-143h-209q-16 0 -58 8q-74 30 -135 131v-33q0 -106 -33 -170q-69 -132 -245 -186q-115 -35 -254 -20q-110 0 -199 43q-88 43 -135 92q-106 110 -105 314q1 203 85 330t194 196l12 -29q-41 -44 -69 -100t-56 -156 q-26 -100 -26 -211t26 -183t56 -102q29 -31 78 -63q82 -33 110 -37t53 -4h58q57 0 106 16q118 25 180 127q29 45 29 119v524l21 8l114 -45v-389q37 -38 92 -64t101 -26h74v512l20 8l115 -45v-385q37 -38 92 -64t104 -26h74v512l16 8l205 -78v-16q-71 -57 -79 -80 q-7 -23 -7 -35zM1491 1237q-33 0 -66 25q-25 26 -25 64t25 63q65 49 131 0q25 -25 25 -64t-25 -63q-32 -25 -65 -25zM1364 983q-37 0 -61 25q-29 26 -29 64t29 65q62 58 122 -2q29 -25 29 -64t-29 -63q-24 -25 -61 -25zM1528 1071q0 39 26 66t62 27t62 -28q26 -26 26 -65 t-25 -63t-63 -25q-38 1 -64 25q-24 24 -24 63z" />
<glyph unicode="&#x635;" horiz-adv-x="2117" d="M1954 0h-803q-20 -99 -119 -180q-53 -41 -157 -73t-244 -17q-110 0 -199 43q-88 43 -135 92q-106 110 -105 314q1 203 85 330t194 196l12 -29q-41 -44 -69 -100t-56 -156q-26 -100 -26 -211t26 -183t56 -102q29 -31 78 -63q82 -33 110 -37t53 -4h58q57 0 106 16 q118 25 180 127q29 45 29 119v524l16 8l185 -69q82 90 98 106t98 78q111 66 231 66q72 0 136 -33t96 -90q37 -53 49 -140q16 -70 17 -180v-352zM1819 369q0 33 -9 114q0 53 -20 107q-43 115 -168 115q-98 0 -217 -74q-127 -75 -242 -238v-303h656v279z" />
<glyph unicode="&#x636;" horiz-adv-x="2117" d="M1954 0h-803q-20 -99 -119 -180q-53 -41 -157 -73t-244 -17q-110 0 -199 43q-88 43 -135 92q-106 110 -105 314q1 203 85 330t194 196l12 -29q-41 -44 -69 -100t-56 -156q-26 -100 -26 -211t26 -183t56 -102q29 -31 78 -63q82 -33 110 -37t53 -4h58q57 0 106 16 q118 25 180 127q29 45 29 119v524l16 8l185 -69q82 90 98 106t98 78q111 66 231 66q72 0 136 -33t96 -90q37 -53 49 -140q16 -70 17 -180v-352zM1819 369q0 33 -9 114q0 53 -20 107q-43 115 -168 115q-98 0 -217 -74q-127 -75 -242 -238v-303h656v279zM1293 934 q-28 0 -64 29q-25 25 -25 63t25 64q50 38 91 24t53 -46q11 -32 11 -50t-24 -55q-39 -29 -67 -29z" />
<glyph unicode="&#x637;" horiz-adv-x="1466" d="M1155 369q0 136 -29 221q-47 115 -168 115q-98 0 -217 -74q-127 -74 -241 -238v-303h655v279zM500 1057v-590q29 61 164 180q145 145 316 147q171 1 245 -122q33 -49 53 -140q12 -82 12 -180v-352h-925q-107 0 -209 61q-33 25 -45 37l8 25q16 -8 78 -25l41 -4h36l91 -4 v1167l20 5l201 -74v-17q-49 -37 -54 -41q-4 -8 -18 -26t-14 -47z" />
<glyph unicode="&#x638;" horiz-adv-x="1466" d="M1155 369q0 136 -29 221q-47 115 -168 115q-98 0 -217 -74q-127 -74 -241 -238v-303h655v279zM810 934q-20 0 -48 29q-29 25 -29 63t34 70q34 31 89 14q12 -4 34 -26t23 -57q0 -36 -22 -58q-22 -23 -41 -29q-20 -6 -40 -6zM500 1057v-590q29 61 164 180q145 145 316 147 q171 1 245 -122q33 -49 53 -140q12 -82 12 -180v-352h-925q-107 0 -209 61q-33 25 -45 37l8 25q16 -8 78 -25l41 -4h36l91 -4v1167l20 5l201 -74v-17q-49 -37 -54 -41q-4 -8 -18 -26t-14 -47z" />
<glyph unicode="&#x639;" horiz-adv-x="1167" d="M492 -717q-29 0 -115 29q-82 49 -123 86q-111 128 -111 278q0 90 17 152q24 133 143 213q41 29 143 57v426q0 49 21 99q25 45 70 86q93 73 208 73q66 0 103 -14t94 -51q97 -54 168 -168l-29 -8q-78 87 -135 117t-119 38q-61 12 -104 -6t-84 -51q-33 -33 -49 -78 q-8 -41 -8 -102v-369h524v-90h-545q-94 0 -151 -33q-116 -67 -123 -164q-21 -101 -8 -162t25 -101t85 -113q82 -57 176 -58q41 1 76 9t55 8q93 30 115 53l25 -29q-33 -25 -74 -49q-45 -33 -86 -41q-68 -37 -184 -37z" />
<glyph unicode="&#x63a;" horiz-adv-x="1167" d="M492 -717q-29 0 -115 29q-82 49 -123 86q-111 128 -111 278q0 90 17 152q24 133 143 213q41 29 143 57v426q0 49 21 99q25 45 70 86q93 73 208 73q66 0 103 -14t94 -51q97 -54 168 -168l-29 -8q-78 87 -135 117t-119 38q-61 12 -104 -6t-84 -51q-33 -33 -49 -78 q-8 -41 -8 -102v-369h524v-90h-545q-94 0 -151 -33q-116 -67 -123 -164q-21 -101 -8 -162t25 -101t85 -113q82 -57 176 -58q41 1 76 9t55 8q93 30 115 53l25 -29q-33 -25 -74 -49q-45 -33 -86 -41q-68 -37 -184 -37zM764 1032q-39 0 -64 25q-29 37 -28 64t28 67q36 24 70 24 t57 -24q25 -33 25 -66t-25 -65q-24 -25 -63 -25z" />
<glyph unicode="&#x640;" horiz-adv-x="237" d="M-16 74h274v-74h-274v74z" />
<glyph unicode="&#x641;" horiz-adv-x="1708" d="M1417 393q0 155 -41 254q-60 127 -189 127t-183 -119q-25 -45 -37 -114q-9 -90 -9 -137t14 -111q28 -123 113 -174q45 -29 119 -29h213v303zM451 676q-152 -167 -152 -492q0 -94 27 -162q28 -68 56 -98q28 -31 77 -63q83 -33 111 -37t53 -4h475q100 0 180 41q41 16 74 57 q37 29 49 82h-209q-175 0 -283 106q-98 124 -98 295q0 94 25 168q34 82 74 127t122 90q86 29 172 29t154 -31t104 -79q45 -49 70 -127q20 -82 20 -168v-320l-12 -90q-16 -66 -61 -121t-99 -84q-106 -69 -282 -69h-418q-45 0 -78 4q-113 0 -204 43t-128 88q-45 49 -82 131 q-58 189 -4 377q20 61 66 147q77 120 188 189zM1190 1032q-39 0 -64 25q-28 37 -28 65t28 66q25 24 64 24t63 -24q25 -33 25 -66t-25 -65q-24 -25 -63 -25z" />
<glyph unicode="&#x642;" horiz-adv-x="1708" d="M1417 393q0 155 -41 254q-60 127 -189 127t-183 -119q-25 -45 -37 -114q-9 -90 -9 -137t14 -111q28 -123 113 -174q45 -29 119 -29h213v303zM451 676q-152 -167 -152 -492q0 -94 27 -162q28 -68 56 -98q28 -31 77 -63q83 -33 111 -37t53 -4h475q100 0 180 41q41 16 74 57 q37 29 49 82h-209q-175 0 -283 106q-98 124 -98 295q0 94 25 168q34 82 74 127t122 90q86 29 172 29t154 -31t104 -79q45 -49 70 -127q20 -82 20 -168v-320l-12 -90q-16 -66 -61 -121t-99 -84q-106 -69 -282 -69h-418q-45 0 -78 4q-113 0 -204 43t-128 88q-45 49 -82 131 q-58 189 -4 377q20 61 66 147q77 120 188 189zM1067 1212q11 0 33 -8q41 -15 51 -49q8 -17 8 -33q0 -57 -57 -82q-26 -8 -48 -8t-48 27t-27 63l4 33q3 4 11 19t38 30q25 8 35 8zM1354 1040q-22 -8 -42 -8q-19 0 -55 25q-28 37 -28 64t28 67q36 24 55 24q20 0 42 -8 q41 -15 51 -49q4 -8 4 -33t-4 -32q-8 -34 -51 -50z" />
<glyph unicode="&#x643;" horiz-adv-x="1368" d="M578 737q-74 41 -74 118t49 108q57 43 123 45q37 4 86 -16t74 -50l-33 -37q-33 21 -51 29t-64 8t-72 -22t-26 -60q0 -37 20 -57q96 -66 201 -66h25l-29 -61h-324v61h95zM1171 0h-651q-57 0 -86 4l-90 12q-38 12 -68 26t-88 64q-65 101 -65 196t41 185t90 144l29 -21 q-16 -16 -29 -53l-25 -61q-16 -80 -16 -150q0 -134 106 -207q49 -33 107 -37q57 -12 115 -12h495v1167l21 9l205 -78v-17q-39 -26 -54 -41q-32 -46 -32 -73l-5 -49v-1008z" />
<glyph unicode="&#x644;" horiz-adv-x="1232" d="M1102 1057v-951q0 -176 -135 -286q-53 -41 -156 -74t-242 -16q-53 0 -98 10t-127 43q-66 37 -110 84q-102 108 -103 310q0 202 90 339q37 66 80 107t109 82l8 -29q-90 -98 -123 -262q-25 -94 -25 -205q0 -201 82 -283q25 -37 78 -65q57 -25 86 -33q57 -8 78 -8h53 q108 0 213 61q49 37 74 82q33 45 33 119v1175l16 9l205 -78v-17q-28 -28 -49 -41q-21 -28 -29 -42t-8 -31z" />
<glyph unicode="&#x645;" horiz-adv-x="1187" d="M745 700h-4q-88 0 -143 -73q-25 -29 -37 -70q-17 -33 -27 -83t-10 -64v-316l217 -4q129 0 185 90q28 48 34 104t7 93v49q-4 16 -13 66l-24 73q-20 37 -43 68t-60 47q-33 20 -82 20zM500 4l-90 -12q-16 -8 -50 -17q-33 -16 -45 -26t-36 -43l-25 -49q0 -27 -12 -54 q-4 -16 -4 -49v-213q8 -82 12 -133t33 -121l-13 -12q-45 25 -73 66q-29 29 -54 86q-29 53 -35 137q-18 270 31 350q5 8 17 26t20 31q8 12 41 45q83 67 160 74v287q0 164 94 266q102 94 279 94t266 -98q100 -100 99 -281q-2 -358 -374 -358h-73l-70 4h-98z" />
<glyph unicode="&#x646;" horiz-adv-x="1282" d="M1163 106q0 -106 -33 -170q-69 -132 -245 -186q-115 -35 -254 -20q-110 0 -199 43q-88 43 -135 92q-106 110 -105 314q1 203 85 330t194 196l12 -29q-41 -44 -69 -100t-56 -156q-26 -100 -26 -211t26 -183t56 -102q29 -31 78 -63q82 -33 110 -37t53 -4h58q57 0 106 16 q118 25 180 127q29 45 29 119v704l21 9l204 -78v-17q-41 -25 -53 -45q-29 -22 -33 -69l-4 -45v-435zM614 1072q0 38 27 65t62 27t63 -30q28 -28 29 -63q0 -35 -27 -61q-28 -26 -66 -27q-38 0 -63 25q-25 26 -25 64z" />
<glyph unicode="&#x647;" horiz-adv-x="901" d="M680 393q0 57 -4 82q0 83 -37 172q-21 37 -39 61q-49 66 -130 66t-134 -33q-94 -69 -103 -200q-12 -66 -12 -125q0 -213 131 -297q49 -29 115 -29h213v303zM465 815q87 0 155 -31t105 -79q45 -49 70 -127q20 -82 20 -168v-410h-360q-171 0 -279 106q-100 116 -98 295 q0 98 28 168q25 78 68 125t125 92q78 29 166 29z" />
<glyph unicode="&#x648;" d="M688 90v385q0 42 -16 99t-25 73q-20 64 -98 111q-33 16 -95 16t-106 -33q-45 -33 -69 -86q-42 -71 -44 -225q-2 -155 48 -237q76 -103 196 -103h209zM688 0h-221q-175 0 -283 106q-98 114 -98 293t102 301q37 41 119 86q86 29 172 29q166 0 258 -110q49 -53 66 -127 q25 -74 24 -168v-377q0 -123 -16 -193q-12 -78 -49 -135q-45 -57 -111 -94q-53 -37 -176 -78l-12 29q217 98 217 282q8 45 8 156z" />
<glyph unicode="&#x649;" horiz-adv-x="1564" d="M1077 -180q146 0 193 65q57 57 57 209v78q-235 0 -323 74q-119 77 -119 258q0 132 73 229q49 57 78 80t94 55q66 25 101 33t117 8t139 -32l-12 -25q-123 12 -226 -21q-101 -27 -155 -98q-25 -29 -54 -94q-16 -74 -16 -127t16 -111q29 -49 62 -71q68 -46 201 -47h159v-217 q0 -173 -119 -263q-115 -77 -286 -77h-377q-123 0 -246 12q-78 12 -131 41q-53 19 -104 71t-76 130q-33 78 -33 192v504h139v-434q0 -223 86 -320q97 -106 303 -106l99 4h360z" />
<glyph unicode="&#x64a;" horiz-adv-x="1585" d="M1077 -180q146 0 193 65q57 57 57 209v78q-235 0 -323 74q-119 77 -119 258q0 132 73 229q49 57 78 80t94 55q66 25 101 33t117 8t139 -32l-12 -25q-123 12 -226 -21q-101 -27 -155 -98q-25 -29 -54 -94q-16 -74 -16 -127t16 -111q29 -49 62 -71q68 -46 201 -47h159v-217 q0 -173 -119 -263q-115 -77 -286 -77h-377q-123 0 -246 12q-78 12 -131 41q-53 19 -104 71t-76 130q-33 78 -33 192v504h139v-434q0 -223 86 -320q97 -106 303 -106l99 4h360zM639 -543q0 39 25 64q71 53 129 -3q27 -26 27 -61t-28 -61q-26 -26 -61 -27q-35 0 -67 25 q-25 24 -25 63zM1073 -543q0 -35 -27 -61q-28 -26 -66 -27q-38 1 -62 25t-25 63q0 39 25 64q26 25 64 25t64 -28q26 -26 27 -61z" />
<glyph unicode="&#x64b;" horiz-adv-x="0" d="M12 1409q0 34 21 74q49 33 172 94q111 49 213 86l-29 -82l-184 -78q-99 -45 -193 -94zM0 1262q0 33 20 73q49 33 173 95q111 49 213 86l-29 -82q-25 -12 -132 -55q-107 -42 -245 -117z" />
<glyph unicode="&#x64c;" horiz-adv-x="0" d="M307 1516l4 24q0 29 -20 51q-20 23 -61 23t-42 -33q0 -20 29 -49q29 -21 78 -41q12 12 12 25zM139 1606q1 98 97 98q46 0 83 -41q41 -53 41 -85t-8 -58q0 -16 -8 -33l29 -4h33l-37 -74h-58q-98 -86 -286 -98q49 61 49 98t-10 47t-30 10t-42 -16q-4 -8 -18 -20t-19 -21 l-21 82q34 57 107 57q37 0 61 -24t25 -62q0 -37 -21 -65q82 4 132 37q-99 51 -99 172z" />
<glyph unicode="&#x64d;" horiz-adv-x="0" d="M12 -913q0 12 8 41t13 36q49 29 172 91q119 53 213 81l-29 -81q-45 -12 -184 -74zM0 -1061q0 12 8 41t12 37q49 29 173 90q119 53 213 82l-29 -82q-57 -16 -189 -74z" />
<glyph unicode="&#x64e;" horiz-adv-x="0" d="M0 1262q0 33 20 73q49 33 173 95q111 49 213 86l-29 -82q-25 -12 -132 -55q-107 -42 -245 -117z" />
<glyph unicode="&#x64f;" horiz-adv-x="0" d="M230 1593q-46 0 -46 -35q0 -36 25 -60t53 -32q41 25 57 74q-43 53 -89 53zM127 1573q0 49 29 78q42 56 114 20q33 -16 45 -33q13 -8 25 -32t12 -58q0 -33 -4 -49t-24 -49q12 -4 32 -4h41l-37 -74q-52 0 -90 12q-115 -83 -184 -81q-29 0 -41 8l-45 24q123 37 201 82 q-74 74 -74 156z" />
<glyph unicode="&#x650;" horiz-adv-x="0" d="M12 -913q0 12 8 41t13 36q49 29 172 91q119 53 213 81l-29 -81q-45 -12 -184 -74z" />
<glyph unicode="&#x651;" horiz-adv-x="0" d="M270 1487q25 1 35 23t10 71v25q0 8 -2 16t-2 16l49 -24q0 -4 4 -22t5 -68q0 -50 -33 -94q-33 -37 -68 -37t-51 16q-12 8 -29 41q-16 -66 -45 -102q-29 -29 -53 -29t-45 33q-20 32 -20 80t24 108l33 29v-45q0 -92 37 -90q13 0 31 18t30 43v53l8 33l33 29q0 -123 49 -123z " />
<glyph unicode="&#x652;" horiz-adv-x="0" d="M127 1489q0 -35 20 -55q25 -16 45 -16t54 16q29 11 33 36q-22 99 -91 99q-25 -1 -43 -23t-18 -57zM197 1327q-115 -1 -115 147q0 78 37 130t88 51q51 0 88 -45q33 -53 33 -119t-37 -115t-94 -49z" />
<glyph unicode="&#x66b;" horiz-adv-x="425" d="M360 28q0 -62 -41 -151q-57 -82 -155 -156l-41 41q53 61 82 115q16 45 24 82l-131 98l99 164q78 -25 118 -78q45 -53 45 -115z" />
<glyph unicode="&#x66c;" horiz-adv-x="425" d="M94 156q0 86 53 155q41 74 144 135l41 -36q-102 -106 -119 -213q25 -33 57 -50q37 -25 78 -36l-90 -164q-164 61 -164 209z" />
<glyph unicode="&#x66d;" horiz-adv-x="1122" d="M860 29l-303 250l-295 -246l148 360l-328 201l393 -25l86 373l94 -377l385 29l-327 -209z" />
<glyph unicode="&#x2000;" horiz-adv-x="856" />
<glyph unicode="&#x2001;" horiz-adv-x="1712" />
<glyph unicode="&#x2002;" horiz-adv-x="856" />
<glyph unicode="&#x2003;" horiz-adv-x="1712" />
<glyph unicode="&#x2004;" horiz-adv-x="570" />
<glyph unicode="&#x2005;" horiz-adv-x="428" />
<glyph unicode="&#x2006;" horiz-adv-x="285" />
<glyph unicode="&#x2007;" horiz-adv-x="285" />
<glyph unicode="&#x2008;" horiz-adv-x="214" />
<glyph unicode="&#x2009;" horiz-adv-x="342" />
<glyph unicode="&#x200a;" horiz-adv-x="95" />
<glyph unicode="&#x200c;" horiz-adv-x="40" d="M41 0h-41v1524h41v-1524z" />
<glyph unicode="&#x200d;" horiz-adv-x="40" d="M41 0h-41v1450l-78 -82l-28 29l98 102l-98 98l28 29l98 -102l103 102l24 -29l-98 -98l98 -102l-24 -29l-82 82v-1450z" />
<glyph unicode="&#x200e;" horiz-adv-x="40" d="M41 1479v-1479h-41v1524h205l-78 73l29 29l127 -127l-127 -131l-29 33l78 78h-164z" />
<glyph unicode="&#x200f;" horiz-adv-x="40" d="M41 0h-41v1479h-164l82 -78l-33 -33l-127 131l127 127l33 -29l-78 -73h201v-1524z" />
<glyph unicode="&#x2010;" horiz-adv-x="1204" d="M123 410v82h958v-82h-958z" />
<glyph unicode="&#x2011;" horiz-adv-x="643" d="M74 401q0 89 131 91h377v-41q0 -89 -140 -91h-368v41z" />
<glyph unicode="&#x2012;" horiz-adv-x="643" d="M74 401q0 89 131 91h377v-41q0 -89 -140 -91h-368v41z" />
<glyph unicode="&#x2013;" horiz-adv-x="1159" d="M74 401q0 89 264 91h760v-41q0 -89 -282 -91h-742v41z" />
<glyph unicode="&#x2014;" horiz-adv-x="2183" d="M74 401q0 89 528 91h1520v-41q0 -89 -564 -91h-1484v41z" />
<glyph unicode="&#x2018;" horiz-adv-x="405" d="M106 1073q139 0 140 -119q0 -46 -31 -78t-80 -32t-92 45t-43 110q0 193 180 357l41 -45q-115 -127 -115 -238z" />
<glyph unicode="&#x2019;" horiz-adv-x="593" d="M492 1130q-139 0 -140 115q0 45 31 78t80 33t92 -45t43 -111q0 -184 -180 -356l-45 49q119 123 119 237z" />
<glyph unicode="&#x201c;" horiz-adv-x="720" d="M106 1073q139 0 140 -119q0 -46 -31 -78t-80 -32t-92 45t-43 110q0 193 180 357l41 -45q-115 -127 -115 -238zM422 1073q143 0 143 -119q0 -46 -33 -78q-34 -32 -82 -32t-92 45q-43 45 -43 110q1 189 177 357l49 -45q-119 -119 -119 -238z" />
<glyph unicode="&#x201d;" horiz-adv-x="913" d="M807 1130q-139 0 -139 115q0 45 32 78q33 33 82 33t90 -45t41 -111q0 -180 -176 -356l-49 49q119 119 119 237zM492 1130q-139 0 -140 115q0 45 31 78t80 33t92 -45t43 -111q0 -184 -180 -356l-45 49q119 123 119 237z" />
<glyph unicode="&#x202f;" horiz-adv-x="342" />
<glyph unicode="&#x205f;" horiz-adv-x="428" />
<glyph unicode="&#x2421;" horiz-adv-x="1490" d="M459 397q0 152 -99 197q-33 8 -90 8h-114v-414h114q98 0 131 33q58 57 58 176zM532 395q0 -227 -163 -264q-25 -8 -90 -8h-197v545h188q49 0 99 -9q163 -37 163 -264zM1008 123h-410v545h401v-66h-327v-168h303v-65h-303v-181h336v-65zM1417 123h-340v545h74v-480h266 v-65z" />
<glyph unicode="&#x25fc;" horiz-adv-x="500" d="M0 0v0v0v0v0z" />
<glyph unicode="&#xfeff;" horiz-adv-x="0" />
<glyph horiz-adv-x="679" />
<glyph horiz-adv-x="573" />
<glyph horiz-adv-x="557" />
<glyph horiz-adv-x="0" />
</font>
</defs>
</svg>
