<svg xmlns="http://www.w3.org/2000/svg" xmlns:xlink="http://www.w3.org/1999/xlink" version="1.1"><metadata/><defs><font id="hsn_shahd_boldbold" horiz-adv-x="643"><font-face ascent="1638" descent="-410" units-per-em="2048"/><glyph horiz-adv-x="0"/><glyph horiz-adv-x="679"/><glyph horiz-adv-x="425"/><glyph horiz-adv-x="425"/><glyph horiz-adv-x="425"/><glyph d="M217 84q1 37 23 62q37 42 82 42t64 -24q40 -51 40 -83q0 -33 -31 -68t-63 -37q-33 -1 -51 10q-64 36 -64 98zM246 324v1036h151v-1036h-151z" unicode="!"/><glyph d="M82 1171q33 33 78 33t61 -8t33 -25l-57 -364h-58zM328 1171q8 5 20 13t22 14t48 6q37 0 47 -6t22 -14t21 -13l-66 -364h-49z" horiz-adv-x="585" unicode="&quot;"/><glyph d="M115 258l24 102h156l49 197h-151l24 107h152l65 262h86l-65 -262h192l66 262h86l-66 -262h152l-25 -107h-151l-50 -197h152l-29 -102h-147l-70 -287h-90l74 287h-193l-69 -287h-86l69 287h-155zM381 360h192l50 197h-193z" horiz-adv-x="999" unicode="#"/><glyph d="M139 82l58 188h82l16 -123q41 -33 94 -49q53 -24 121 -24t113 39t45 98t-37 88q-33 33 -63 47t-70 34q-39 20 -72 34q-33 12 -107 53q-57 45 -81 82q-37 49 -37 135q-1 86 71 158t195 84v147h119v-139q37 -4 110 -21q90 -33 107 -41l-49 -159h-74l-25 90q-33 20 -73 28 q-36 13 -94 13t-107 -37t-49 -90t43 -93t190 -104q57 -20 115 -61q57 -45 88 -88t31 -129t-62 -160q-70 -70 -176 -86v-143h-119v139q-160 12 -303 90z" horiz-adv-x="942" unicode="$"/><glyph d="M131 686q0 133 66 199q70 57 182 57t153 -57q30 -19 48 -73t18 -124q0 -138 -66 -200t-167 -62q-102 0 -168 61q-66 66 -66 199zM266 684q0 -201 101 -201q100 0 100 201t-98 201q-103 0 -103 -201zM270 20l779 955l73 -66l-778 -950zM778 246q0 252 238 254 q120 0 164 -58q29 -20 47 -74t18 -126q0 -140 -65 -197q-25 -33 -74 -47t-90 -14q-106 0 -172 61q-66 66 -66 201zM914 242q0 -200 100 -201q100 1 100 201t-98 200q-102 0 -102 -200z" horiz-adv-x="1380" unicode="%"/><glyph d="M156 238q0 90 57 174t176 145q-71 93 -95 151t-24 113t17 101q29 57 59 88q77 78 203 79t192 -65q29 -25 49 -68t21 -84q0 -175 -262 -307l213 -303q41 86 41 287l115 65l16 -16q-16 -145 -45 -209q-25 -66 -41 -94q-12 -33 -45 -82q57 -67 127 -97t168 -42l-17 -66 q-25 -4 -59 -14t-80 -10q-127 0 -225 122q-139 -122 -281 -122q-72 0 -121 24q-53 20 -86 53q-33 25 -53 76t-20 101zM299 283q0 -85 49 -135t121 -50q129 0 203 66l-250 352q-123 -86 -123 -233zM397 876q0 -45 2 -55t23 -59q12 -38 26 -58t29 -42q14 -22 39 -56 q156 116 156 238q0 74 -41 114q-37 41 -103 41t-94 -41q-37 -37 -37 -82z" horiz-adv-x="1110" unicode="&amp;"/><glyph d="M82 1171q33 33 78 33t61 -8t33 -25l-57 -364h-58z" horiz-adv-x="335" unicode="'"/><glyph d="M176 627q0 376 293 716q88 102 190 197l37 -45q-223 -233 -295 -645q-20 -121 -20 -236q0 -250 80 -458t244 -406l-46 -41q-242 223 -346 410q-137 250 -137 508z" horiz-adv-x="802" unicode="("/><glyph d="M127 -233q328 368 328 860q0 235 -74 462t-242 418l37 41q346 -291 447 -645q76 -265 0 -534q-99 -341 -447 -648z" horiz-adv-x="745" unicode=")"/><glyph d="M82 997q0 39 16 60q25 25 54 25q28 0 98 -42q70 -41 135 -98l-57 287q41 29 78 28q69 0 69 -69t-57 -246l250 148q57 -36 57 -90t-53 -66q-41 -20 -172 -21h-41q-20 0 -33 5l213 -197q-8 -33 -33 -57q-26 -24 -62 -25t-69 57t-74 205l-114 -270q-45 0 -80 22t-35 60 q0 70 205 205l-287 24q-8 16 -8 55z" horiz-adv-x="802" unicode="*"/><glyph d="M127 377v102h373v377h106v-377h377v-102h-377v-377h-106v377h-373z" horiz-adv-x="1052" unicode="+"/><glyph d="M106 57l99 164q78 -25 121 -78t43 -115t-41 -151q-57 -82 -156 -156l-41 41q53 61 82 115q16 45 25 82z" horiz-adv-x="520" unicode=","/><glyph d="M74 360v41q0 89 131 91h377v-41q0 -89 -140 -91h-368z" unicode="-"/><glyph d="M115 138q0 84 49 126q49 43 108 43q60 0 105 -42t45 -94q0 -87 -43 -129t-110 -42t-110 45q-44 45 -44 93z" horiz-adv-x="524" unicode="."/><glyph d="M106 -254l1139 1761l90 -57l-1147 -1757z" horiz-adv-x="1478" unicode="/"/><glyph d="M172 660q0 185 29 281q29 95 61 165t84 121q118 118 273 117t268 -119q85 -88 127 -246q43 -158 43 -274q0 -552 -291 -697q-66 -33 -150 -33q-153 0 -270 117q-89 89 -139 264q-35 119 -35 304zM369 696q0 -202 37 -383t114 -250q41 -35 94 -35q100 1 160 130 q47 96 64 235q18 139 18 225q0 267 -30 392q-67 280 -212 280q-101 0 -161 -131q-36 -77 -60 -235q-24 -159 -24 -228z" horiz-adv-x="1183" unicode="0"/><glyph d="M201 0v29q106 12 159 32q53 19 76 57q39 64 39 242v627q0 160 -41 222t-225 77v29h450q-8 -135 -10 -256t-6 -238t-4 -231l8 -230q0 -90 4 -147q8 -113 109 -152q55 -20 158 -32v-29h-717z" horiz-adv-x="1007" unicode="1"/><glyph d="M135 29q233 172 422 391q126 144 201 330q33 82 33 152q0 138 -70 208t-187 70t-231 -111l-70 -61l-24 24q54 124 172 218q118 95 259 94q142 -1 238 -110q97 -109 97 -262t-91 -295q-127 -198 -384 -407l-123 -110h352q78 0 123 8q92 16 139 102l62 107l24 -17 l-139 -360h-795z" horiz-adv-x="1126" unicode="2"/><glyph d="M131 184q0 93 60 122t133 -11v-41q0 -77 53 -147t155 -70t172 82t70 210q0 127 -115 199q-105 66 -225 66q-46 0 -155 -12l-17 24l70 53q42 42 72 56t55 22l37 8q88 34 136 85q87 92 88 177t-60 137t-163 52q-101 0 -227 -92q-37 -27 -61 -64l-37 25q118 195 285 256 q121 47 241 4q120 -44 168 -139q27 -51 27 -113t-33 -117q-63 -105 -190 -165q-59 -29 -109 -62q157 -8 267 -97t110 -247q0 -90 -43 -166q-84 -149 -260 -213q-85 -31 -149 -31q-64 1 -126 13q-136 28 -196 104q-33 42 -33 92z" horiz-adv-x="1040" unicode="3"/><glyph d="M127 459l684 893l49 -25q-12 -179 -12 -401v-389h270v-131h-270v-74q0 -70 2 -123t24 -86q43 -64 216 -94v-29h-644v29q169 29 216 94q23 33 22 86v197h-549zM270 537h414v553z" horiz-adv-x="1196" unicode="4"/><glyph d="M196 172q0 45 17 74q35 63 104 67q39 2 72 -18q-17 -98 33 -179t157 -80t170 80q62 79 62 180q0 100 -20 160q-19 60 -63 105q-89 92 -225 91t-253 -70l-17 4l62 729h373q117 0 149 14q31 15 43 33t33 55h25l-62 -262h-512l-33 -381l54 17q25 4 60 12t121 8 q184 0 310 -113q127 -113 127 -297q0 -94 -41 -176q-40 -82 -106 -135q-142 -115 -326 -115q-183 0 -281 113q-33 39 -33 84z" horiz-adv-x="1069" unicode="5"/><glyph d="M155 459q1 207 114 389t312 311q198 130 373 189l21 -33q-215 -118 -302 -200q-163 -154 -247 -329q160 53 248 53q88 1 162 -32t127 -84t84 -127t31 -168t-36 -178q-66 -162 -254 -240q-84 -35 -186 -35q-199 0 -323 138q-125 138 -124 346zM360 446q0 -261 148 -370 q53 -39 129 -39q235 0 235 360q0 61 -20 133q-40 142 -164 205q-61 31 -140 31t-138 -21q-50 -134 -50 -299z" horiz-adv-x="1126" unicode="6"/><glyph d="M180 971l94 344h848l13 -8l-754 -1332h-131l717 1180h-541q-80 0 -135 -65l-37 -54q-20 -29 -45 -69z" horiz-adv-x="1200" unicode="7"/><glyph d="M143 297q0 132 94 226t222 149l-103 78l-86 77q-73 73 -73 208t120 222q120 86 263 86t257 -69t113 -217q0 -125 -81 -205t-185 -127l21 -20l98 -74q108 -91 153 -187q27 -55 27 -133t-37 -139t-98 -106t-137 -68t-150 -23q-73 1 -147 21q-163 45 -234 160 q-37 61 -37 141zM315 332q0 -107 76 -205q35 -45 88 -72t107 -27q105 1 165 71q60 69 60 151t-33 137q-69 116 -184 182l-102 82q-37 -25 -70 -59q-107 -113 -107 -260zM365 1108q0 -72 36 -133t160 -164l98 -66q123 99 123 283q0 106 -61 185t-172 77q-76 0 -130 -55 t-54 -127z" horiz-adv-x="1040" unicode="8"/><glyph d="M152 899q1 188 139 318q139 128 334 127q196 -1 322 -128t126 -319q0 -360 -241 -604t-578 -342l-12 41q178 67 351 240t226 354q-131 -88 -278 -86q-245 0 -357 237q-32 70 -32 162zM352 930q0 -82 29 -154q51 -126 172 -174q53 -20 102 -20q128 0 193 65q16 71 16 197 t-18 209q-18 82 -75 159q-57 78 -161 78q-70 0 -118 -33q-140 -94 -140 -327z" horiz-adv-x="1155" unicode="9"/><glyph d="M115 138q0 84 49 126q49 43 108 43q60 0 105 -42t45 -94q0 -87 -43 -129t-110 -42t-110 45q-44 45 -44 93zM115 763q0 67 41 106q41 40 96 40t82 -8q55 -16 78 -80q10 -31 10 -61q0 -99 -88 -142q-27 -12 -79 -12t-96 45t-44 112z" horiz-adv-x="524" unicode=":"/><glyph d="M115 702q0 84 49 127t108 43q60 0 105 -42t45 -94q0 -119 -88 -158q-27 -12 -78 -13t-96 45q-45 44 -45 92zM147 57l99 164q78 -25 121 -78t43 -115t-41 -151q-57 -82 -156 -156l-41 41q53 61 82 115q16 45 25 82z" horiz-adv-x="565" unicode=";"/><glyph d="M123 381v131l696 401v-135l-586 -332l586 -331v-135z" horiz-adv-x="942" unicode="&lt;"/><glyph d="M127 270v115h692v-115h-692zM127 508v110h692v-110h-692z" horiz-adv-x="942" unicode="="/><glyph d="M123 -20v135l586 331l-586 332v135l696 -401v-131z" horiz-adv-x="942" unicode="&gt;"/><glyph d="M61 1049q161 131 340 131q61 0 123 -20t94 -54q41 -29 62 -78q25 -45 25 -92t-6 -82t-72 -133q-12 -16 -86 -90q-101 -88 -133 -128q-31 -41 -31 -73q0 -33 12 -57q4 -4 33 -45l-70 -25q-41 37 -73 74q-25 41 -25 78t8 53q9 44 78 115q20 25 78 82q45 37 61 57t53 69 q33 54 33 97q0 90 -33 121q-24 16 -36 20t-50 4t-55 -4q-18 -4 -59 -20q-67 -42 -107 -72q-41 -31 -61 -43zM291 90q0 106 102 107q107 -1 107 -107t-107 -106q-102 0 -102 106z" horiz-adv-x="761" unicode="?"/><glyph d="M106 307q0 241 189 471q94 98 223 166t293 68q217 0 348 -123q144 -128 144 -350q0 -221 -107 -359q-53 -66 -106 -90q-53 -33 -131 -33t-123 58q-49 57 -41 176q-120 -201 -230 -201q-53 0 -90 49q-41 45 -41 133t25 166q41 106 73 152q29 53 99 115q57 45 110 45 q98 0 213 -41q-61 -282 -61 -387t20 -138q25 -28 68 -28q139 2 195 196q20 82 20 170q0 170 -111 289q-111 111 -294 111q-115 0 -217 -52t-178 -139q-76 -88 -109 -190q-45 -106 -45 -219t28 -199q45 -82 86 -115q49 -45 127 -69q82 -21 202 -21t208 41l29 -41 q-125 -90 -337 -90t-347 123q-132 115 -132 356zM561 336q0 -123 62 -123q33 0 82 57q53 57 81 160q33 87 33 188l-57 21l-49 4h-25l-8 -4h-8q-42 -23 -78 -111q-16 -57 -25 -90q-8 -66 -8 -102z" horiz-adv-x="1396" unicode="@"/><glyph d="M82 459v270q8 156 8 201q4 29 14 127t19 135q90 55 299 86v-78q-57 -8 -94 -20q-41 -8 -78 -33q-4 -29 -21 -242l-4 -446l4 -443q16 -213 21 -245q4 -5 31 -15t47 -18q90 -20 94 -21v-73q-114 16 -174 32t-125 54q-21 94 -31 232t-10 497z" horiz-adv-x="450" unicode="["/><glyph d="M0 1204l106 41l492 -1384l-106 -41z" horiz-adv-x="593" unicode="\"/><glyph d="M33 -283q25 4 90 21l82 33q24 210 24 706t-24 670q-60 32 -172 53v78q172 -24 299 -86q13 -154 28 -262q0 -45 6 -162t7 -443q0 -326 -41 -595q-78 -41 -135 -54q-49 -16 -164 -32v73z" horiz-adv-x="450" unicode="]"/><glyph d="M119 385l385 696h94l385 -696h-131l-303 590l-295 -590h-135z" horiz-adv-x="1097" unicode="^"/><glyph d="M0 -74h1024v-98h-1024v98z" horiz-adv-x="1024" unicode="_"/><glyph d="M197 1176q1 34 25 60t57 34l221 -320l-41 -41l-135 107q-86 66 -107 96t-20 64z" horiz-adv-x="716" unicode="`"/><glyph d="M82 422v70q82 20 111 40q57 57 16 152q-12 45 -49 111q-70 109 -70 200q0 37 25 84t69 84q41 41 109 76t133 39l-33 -123q-49 -16 -110 -57q-57 -53 -86 -90q25 -66 28 -82q109 -223 111 -308q0 -123 -164 -159q164 -50 164 -164q0 -41 -25 -109t-52 -117 q-27 -50 -62 -159q37 -57 86 -90q49 -45 110 -58l33 -131q-142 26 -242 115q-94 94 -94 162t20 116t54 104q33 56 45 101q16 37 16 80t-32 68q-25 25 -111 45z" horiz-adv-x="454" unicode="{"/><glyph d="M352 -98v1261h115v-1261h-115z" horiz-adv-x="819" unicode="|"/><glyph d="M33 -369l33 131q57 16 106 58q57 37 82 90q0 33 -25 78q-8 29 -45 102q-61 147 -61 205q0 109 156 164q-156 37 -156 159q-1 88 65 218q66 129 66 172q-20 37 -82 90q-61 41 -106 57l-33 123q57 -4 127 -39t110 -76q95 -78 95 -178q0 -47 -23 -96t-47 -94l-49 -111 q-41 -95 16 -152q29 -20 115 -40v-70q-90 -20 -115 -45q-33 -25 -33 -68t21 -90t45 -96q68 -116 69 -200t-94 -177q-44 -41 -110 -74t-127 -41z" horiz-adv-x="454" unicode="}"/><glyph d="M147 377q74 127 119 180q49 49 92 49t137 -57q95 -57 103 -62q38 -12 56 -12t28 4t20 10t19 11l41 41q4 4 12 16q8 13 18 25t19 24l41 -41q-66 -119 -123 -180q-41 -49 -90 -49q-20 0 -93 36t-112 62l-65 33h-17q-49 0 -65 -21q-16 -8 -41 -38t-58 -72z" horiz-adv-x="999" unicode="~"/><glyph d="M74 360v41q0 89 131 91h377v-41q0 -89 -140 -91h-368z" unicode="­"/><glyph d="M139 74l373 368l-373 373l74 78l377 -377l368 377l74 -78l-368 -373l368 -368l-74 -74l-368 369l-377 -369z" horiz-adv-x="1171" unicode="×"/><glyph d="M123 393v107h893v-107h-893zM459 82q1 42 33 74t73 32t74 -32t33 -74q0 -41 -33 -74t-74 -33t-73 33t-33 74zM459 807q1 45 33 75t73 31q41 -1 74 -33t33 -73t-33 -74t-74 -33t-73 31t-33 76z" horiz-adv-x="1134" unicode="÷"/><glyph horiz-adv-x="774"/><glyph horiz-adv-x="1548"/><glyph horiz-adv-x="774"/><glyph horiz-adv-x="1548"/><glyph horiz-adv-x="516"/><glyph horiz-adv-x="387"/><glyph horiz-adv-x="258"/><glyph horiz-adv-x="258"/><glyph horiz-adv-x="193"/><glyph horiz-adv-x="309"/><glyph horiz-adv-x="86"/><glyph d="M74 360v41q0 89 131 91h377v-41q0 -89 -140 -91h-368z" unicode="‐"/><glyph d="M74 360v41q0 89 131 91h377v-41q0 -89 -140 -91h-368z" unicode="‑"/><glyph d="M74 360v41q0 89 131 91h377v-41q0 -89 -140 -91h-368z" unicode="‒"/><glyph d="M74 360v41q0 89 264 91h760v-41q0 -89 -282 -91h-742z" horiz-adv-x="1159" unicode="–"/><glyph d="M74 360v41q0 89 528 91h1520v-41q0 -89 -564 -91h-1484z" horiz-adv-x="2183" unicode="—"/><glyph d="M0 999q0 193 180 357l41 -45q-115 -127 -115 -238q139 0 140 -119q0 -46 -31 -78t-80 -32t-92 45t-43 110z" horiz-adv-x="405" unicode="‘"/><glyph d="M352 1245q0 45 31 78t80 33t92 -45t43 -111q0 -184 -180 -356l-45 49q119 123 119 237q-139 0 -140 115z" horiz-adv-x="593" unicode="’"/><glyph d="M0 999q0 193 180 357l41 -45q-115 -127 -115 -238q139 0 140 -119q0 -46 -31 -78t-80 -32t-92 45t-43 110zM315 999q1 189 177 357l49 -45q-119 -119 -119 -238q143 0 143 -119q0 -46 -33 -78q-34 -32 -82 -32t-92 45q-43 45 -43 110z" horiz-adv-x="720" unicode="“"/><glyph d="M352 1245q0 45 31 78t80 33t92 -45t43 -111q0 -184 -180 -356l-45 49q119 123 119 237q-139 0 -140 115zM668 1245q0 45 32 78q33 33 82 33t90 -45t41 -111q0 -180 -176 -356l-49 49q119 119 119 237q-139 0 -139 115z" horiz-adv-x="913" unicode="”"/><glyph horiz-adv-x="309"/><glyph horiz-adv-x="387"/><glyph d="M0 0z" horiz-adv-x="500" unicode="◼"/></font>
</defs>
</svg>
