<?xml version="1.0" standalone="no"?>
<!DOCTYPE svg PUBLIC "-//W3C//DTD SVG 1.1//EN" "http://www.w3.org/Graphics/SVG/1.1/DTD/svg11.dtd" >
<svg xmlns="http://www.w3.org/2000/svg" xmlns:xlink="http://www.w3.org/1999/xlink" version="1.1">
<metadata></metadata>
<defs>
<font id="bshekariregular" horiz-adv-x="700" >
<font-face units-per-em="2048" ascent="1638" descent="-410" />
<missing-glyph horiz-adv-x="356" />
<glyph horiz-adv-x="0" />
<glyph unicode="&#xd;" horiz-adv-x="500" />
<glyph unicode=" "  horiz-adv-x="356" />
<glyph unicode="&#x09;" horiz-adv-x="356" />
<glyph unicode="&#xa0;" horiz-adv-x="356" />
<glyph unicode="!" horiz-adv-x="554" d="M190 92q0 17 4 34q18 82 89 82q17 0 39 -14t22 -72q0 -59 -30 -84q-30 -26 -59 -26q-65 0 -65 80zM203 1109q7 101 63 85t80 -148t24 -296q0 -284 -76 -284l-21 -7q-28 29 -28 55v270q-21 253 -42 325z" />
<glyph unicode="%" horiz-adv-x="776" d="M100 58v5q0 32 95 159q137 154 253 298q122 137 165 137h18q28 -15 28 -46q0 -63 -113 -175q-48 -54 -91 -107q-89 -140 -298 -317h-12q-45 0 -45 46zM131 539q0 17 6 37q20 99 107 99q68 1 68 -83t-36 -114t-68 -29q-77 0 -77 90zM471 110q0 17 6 37q20 99 107 99 q68 0 68 -84t-36 -112q-36 -30 -68 -30q-77 0 -77 90z" />
<glyph unicode="(" horiz-adv-x="530" d="M53 233q-46 253 107 552q65 127 175 241q26 32 51 37q47 10 54 -29q10 -36 -14 -66q-56 -68 -123 -168q-41 -78 -87 -192q-70 -175 -50 -381q10 -106 81 -246q35 -77 85 -153t54 -85t8 -17t8 -19q13 -51 -24 -59q-55 -11 -131 109q-77 121 -131 239t-63 237z" />
<glyph unicode=")" horiz-adv-x="607" d="M116 1008q11 47 48 39t62 -39q112 -114 178 -241q157 -303 109 -552q-9 -119 -65 -237t-132 -238q-77 -119 -133 -110q-23 5 -25 26t0 33q4 11 8 19t8 17t58 90t83 148q72 133 82 224q9 89 3 189q-10 165 -141 406q-68 100 -127 169q-22 29 -16 57z" />
<glyph unicode="*" horiz-adv-x="876" d="M80 446q-2 20 35 40q38 20 229 41q-141 107 -146 177t58 50t174 -192q90 122 118 164t78 56q51 12 51 -18t-20 -78t-126 -128q105 5 163 5q58 1 98 -25t14 -46q-28 -20 -81 -28t-209 -23q121 -131 151 -179q31 -48 23 -78t-43 -25t-88 68t-134 169q-132 -182 -205 -210 t-50 41q23 68 149 205q-141 -32 -189 -19t-50 33z" />
<glyph unicode="+" horiz-adv-x="767" d="M50 418q0 38 36 51q85 28 243 39q0 26 -27 90q-18 62 -18 104q7 58 51 58q52 0 74 -50q10 -18 26 -85t30 -103q7 -1 29 -3q126 -12 167 -22q67 -16 67 -57q0 -40 -36 -58v1q-27 -17 -169 -5h-43q-9 -182 -14 -212q-15 -78 -61 -78q-51 0 -53 66l-1 130q1 26 1 50v43 q-113 -14 -236 -23q-66 -9 -66 64z" />
<glyph unicode="," horiz-adv-x="335" d="M50 117q0 16 6 37q5 22 35 56t95 42q97 -5 122 -107q16 -37 -8 -129t-119 -153q-38 -27 -65 -31t-20 21l44 63l30 54q11 32 11 53q-68 -3 -81 5q-14 8 -26 24t-18 33q-6 16 -6 32z" />
<glyph unicode="-" d="M70 90q28 52 70 66q42 12 85 16t95 10t264 -9q36 0 41 -35q2 -82 -108 -76q-111 6 -153 5t-182 -15t-112 38z" />
<glyph unicode="." horiz-adv-x="453" d="M140 106q0 17 4 34q18 82 89 82q17 0 39 -14t22 -72q0 -59 -30 -84q-30 -26 -59 -26q-65 0 -65 80z" />
<glyph unicode="/" horiz-adv-x="459" d="M1 44l87 216q175 482 227 642t83 164h12q50 0 50 -68l-193 -552l-173 -427l-37 -25h-6q-50 0 -50 50z" />
<glyph unicode="0" horiz-adv-x="532" d="M126 313q0 84 112 176q38 25 65 25q101 -2 117 -166q0 -170 -133 -170q-161 0 -161 135zM216 343q-22 -67 46 -81t74 68t-46 81t-74 -68z" />
<glyph unicode="1" horiz-adv-x="482" d="M97 752q0 40 48 64q58 0 118 -196q59 -196 103 -336t25 -206t-75 -66q-37 0 -43 102q-7 102 -21 142t-67 191l-66 191q-29 63 -22 114z" />
<glyph unicode="2" horiz-adv-x="807" d="M103 619q0 151 155 163t338 97h20q27 -11 27 -48q-25 -113 -227 -130t-197 -82q-2 -67 70 -211t89 -219q17 -76 16 -104t-9 -43t-43 -25q-48 11 -75 125t-76 194t-88 283z" />
<glyph unicode="3" horiz-adv-x="905" d="M92 467q8 164 102 256t159 92h26q86 -47 108 -167t83 -136q100 0 191 270q23 36 49 28t30 -74q-24 -184 -112 -274t-184 -75q-125 33 -145 145t-32 125t-52 4q-63 -22 -96 -125t3 -199t164 -279q22 -30 0 -48t-79 20q-52 31 -138 152q-85 121 -77 285z" />
<glyph unicode="4" horiz-adv-x="586" d="M28 128q-8 32 0 74q8 40 24 74t47 70t55 58q24 20 36 36q13 16 -2 28t-42 27q-26 15 -36 25t-16 18t-10 25q-4 19 2 53t16 64q12 30 32 61q20 33 38 51t52 48t111 63q41 3 55 -33t-14 -60q-197 -106 -197 -202q-1 -18 19 -29t54 -27t52 -32t22 -40q4 -26 -18 -52t-83 -84 q-61 -60 -80 -98t-16 -68t17 -43t48 -12t75 5q40 4 83 26q43 20 59 36t43 38t38 18t24 -19q13 -16 12 -43q-1 -28 -55 -78t-107 -68q-52 -18 -116 -26t-112 6t-74 46q-28 32 -36 64z" />
<glyph unicode="5" horiz-adv-x="778" d="M27 171q15 171 156 337q82 78 129 75l11 -13q-3 -66 -63 -142t-88 -126t-39 -107q-7 -75 27 -83t96 41q62 47 102 61t87 16t172 -75q36 -1 38 37t-152 236q-89 133 -166 177q-95 49 -112 131l-8 34q5 71 45 53q115 -50 436 -507q75 -123 70 -200q-4 -85 -88 -77l-212 90 l-13 1q-54 3 -208 -105q-50 -36 -119 -23q-105 34 -101 169z" />
<glyph unicode="6" horiz-adv-x="537" d="M31 570q12 93 92 199t135 106q23 -8 33 -29q0 -21 -90 -135q-62 -107 -62 -163q9 -116 316 -23q59 5 40 -50q-19 -30 -105 -137t-169 -315q-31 -33 -65 -29t-27 57q63 217 145 327h-56q-119 0 -159 50t-28 142z" />
<glyph unicode="7" horiz-adv-x="786" d="M25 680q7 34 17 43t30 9t33 -12q14 -12 106 -211q112 -208 170 -312q34 54 71 142q38 88 116 268t145 191q51 3 54 -41q-193 -401 -257 -571t-93 -181q-28 -11 -55 -1q-26 10 -130 212t-156 304t-51 160z" />
<glyph unicode="8" horiz-adv-x="798" d="M21 44q201 405 269 577q68 173 96 183t55 0t129 -217t154 -311q50 -104 50 -162q-8 -34 -18 -44t-30 -8q-20 0 -34 12t-105 215q-111 212 -169 319q-34 -56 -72 -144t-120 -269t-150 -192q-53 -3 -55 41z" />
<glyph unicode="9" horiz-adv-x="548" d="M20 493q0 89 44 163t82 116t69 54q32 12 81 -4q49 -15 49 -141q33 -282 71 -400t76 -194q88 -105 -8 -87q-52 26 -101 100t-104 312q-107 -39 -183 -24t-76 105zM112 502q15 -22 75 -15t82 92v41q-11 100 -65 76q-24 -10 -66 -91t-26 -103z" />
<glyph unicode=":" horiz-adv-x="506" d="M189 391q2 59 36 81q35 22 81 13q46 -10 53 -86q-9 -80 -87 -86t-83 78zM190 41q-40 70 18 121t112 -13q36 -49 22 -87t-58 -59q-44 -20 -94 38z" />
<glyph unicode="=" horiz-adv-x="1096" d="M138 179q-10 17 0 45t111 56q250 134 300 152t78 40q-34 4 -55 2q-134 -10 -252 2q-83 16 -97 32t-16 36t17 46q19 25 78 21q175 -27 393 3q86 12 201 17q63 4 63 -63q-25 -55 -156 -97q-248 -71 -447 -157q-54 -22 -46 -34t32 -13h5q137 2 363 40q157 25 191 -19 q-1 -85 -77 -91t-232 -32t-199 -24t-69 2t-97 9q-69 -9 -89 27z" />
<glyph unicode="[" horiz-adv-x="500" d="M99 -86l6 64v334l-1 859q-12 160 51 181t204 21q69 -7 69 -48q-16 -60 -204 -81l-1 -305v-375l-2 -289l6 -266q13 -63 69 -63q104 4 152 -6t28 -47q0 -43 -53 -43l-239 -5q-79 12 -79 69h-6z" />
<glyph unicode="]" horiz-adv-x="575" d="M73 -115q-21 37 27 47t153 6q56 0 69 63l6 266l-2 289v375l-1 305q-188 21 -204 81q0 41 69 48q141 0 204 -21t51 -181l-1 -859v-334l6 -64h-6q0 -57 -79 -69l-239 5q-53 0 -53 43z" />
<glyph unicode="{" horiz-adv-x="878" d="M284 501q0 26 42 53q42 28 112 112q68 84 47 255q-4 235 38 323t164 150h27q29 0 42 -27v-26q-32 -41 -101 -97t-69 -275l11 -133q12 -160 -143 -346q86 -80 112 -136t34 -148q10 -92 -18 -226q-28 -133 115 -190q46 -101 -81 -78q-116 58 -138 154t6 224q28 126 -30 228 t-101 103q-69 54 -69 80z" />
<glyph unicode="}" horiz-adv-x="954" d="M163 1332v26q14 27 44 27h29q128 -61 172 -149t40 -324q-22 -172 50 -256t116 -111t45 -48q0 -31 -59 -58q-58 -27 -120 -129t-32 -230q30 -126 7 -222t-145 -155q-133 -23 -85 78q151 57 121 190t-20 225t37 149q27 56 134 157q-180 165 -167 325l12 133q0 219 -72 275 t-107 97z" />
<glyph unicode="&#xab;" horiz-adv-x="959" d="M212 379q-50 84 106 180q156 95 192 165t72 70t44 -67q-21 -102 -130 -187q-142 -101 -162 -129q20 -82 96 -167t33 -182l-14 -10h-5q-44 0 -86 92t-146 235zM464 405q0 40 100 98q114 78 182 199l39 24q28 0 33 -38v-5q-34 -146 -120 -201q-86 -78 -86 -91 q34 -53 86 -115t144 -220v-19q-8 -19 -34 -19q-60 18 -162 154t-168 195q-14 20 -14 38z" />
<glyph unicode="&#xad;" d="M70 90q28 52 70 66q42 12 85 16t95 10t264 -9q36 0 41 -35q2 -82 -108 -76q-111 6 -153 5t-182 -15t-112 38z" />
<glyph unicode="&#xb7;" horiz-adv-x="405" d="M81 788q3 39 33 70t74 31q44 1 68 -29t34 -75t-24 -76q-33 -31 -77 -23q-43 8 -77 35q-34 28 -31 67z" />
<glyph unicode="&#xbb;" horiz-adv-x="895" d="M186 23v19q92 158 146 220t89 115q0 13 -88 91q-88 55 -122 201v5q5 38 33 38l40 -24q70 -121 186 -199q102 -58 102 -98q0 -18 -14 -38q-68 -59 -172 -195t-165 -154q-27 0 -35 19zM417 697q9 67 45 67t73 -70t190 -170t119 -179q-112 -139 -154 -231t-87 -92h-6l-14 10 q-43 97 35 182q77 85 97 167q-20 28 -166 129q-111 85 -132 187z" />
<glyph unicode="&#xd7;" horiz-adv-x="780" d="M64 120q79 109 206 289q-76 85 -138 134t-36 101q28 52 104 5q76 -46 169 -106q48 76 98 135l44 59q17 31 63 19t39 -80q-17 -71 -131 -233q59 -53 125 -133q65 -80 103 -136t22 -110t-46 -40q-31 14 -103 88t-209 187q-57 -80 -136 -164t-132 -84q-64 19 -42 69z" />
<glyph unicode="&#xf7;" horiz-adv-x="851" d="M102 370l2 20q2 16 68 42t148 46t253 20q140 -9 200 -62q-1 -58 -61 -54l-150 10t-219 -34q-129 -41 -176 -50q-54 25 -65 62zM290 693q0 60 104 92q60 0 80 -88q0 -68 -112 -88q-58 0 -72 84zM358 153v8q0 60 82 76t102 -72q0 -68 -100 -88h-12q-58 0 -72 76z" />
<glyph unicode="&#x2000;" horiz-adv-x="783" />
<glyph unicode="&#x2001;" horiz-adv-x="1567" />
<glyph unicode="&#x2002;" horiz-adv-x="783" />
<glyph unicode="&#x2003;" horiz-adv-x="1567" />
<glyph unicode="&#x2004;" horiz-adv-x="522" />
<glyph unicode="&#x2005;" horiz-adv-x="391" />
<glyph unicode="&#x2006;" horiz-adv-x="261" />
<glyph unicode="&#x2007;" horiz-adv-x="261" />
<glyph unicode="&#x2008;" horiz-adv-x="195" />
<glyph unicode="&#x2009;" horiz-adv-x="313" />
<glyph unicode="&#x200a;" horiz-adv-x="87" />
<glyph unicode="&#x2010;" d="M70 90q28 52 70 66q42 12 85 16t95 10t264 -9q36 0 41 -35q2 -82 -108 -76q-111 6 -153 5t-182 -15t-112 38z" />
<glyph unicode="&#x2011;" d="M70 90q28 52 70 66q42 12 85 16t95 10t264 -9q36 0 41 -35q2 -82 -108 -76q-111 6 -153 5t-182 -15t-112 38z" />
<glyph unicode="&#x2012;" d="M70 90q28 52 70 66q42 12 85 16t95 10t264 -9q36 0 41 -35q2 -82 -108 -76q-111 6 -153 5t-182 -15t-112 38z" />
<glyph unicode="&#x2013;" horiz-adv-x="1162" d="M73.5 90q51.5 52 128.5 66q76 12 155 16t174 10t483 -9q66 0 75 -35q4 -82 -198 -76q-203 6 -279.5 5t-333 -15t-205 38z" />
<glyph unicode="&#x2014;" horiz-adv-x="2186" d="M82.5 90q102.5 52 255.5 66q154 12 311.5 16t347.5 10t966 -9q132 0 150 -35q7 -82 -395 -76q-406 6 -560 5t-666 -15t-409.5 38z" />
<glyph unicode="&#x2018;" horiz-adv-x="405" d="M88 1153q6 115 90 241q110 173 191 173q24 -8 24 -31q-39 -35 -74 -78q-105 -156 -92 -325q58 15 106 -13t46 -96l-4 -35q-11 -50 -45 -73l-29 -16l-44 -3q-183 18 -169 256z" />
<glyph unicode="&#x2019;" horiz-adv-x="420" d="M60 922q27 21 95 89q80 99 98 224q11 59 -37 47t-107 36t-30 135q31 67 73 89t73 19t49 -9t35 -16q15 -10 37 -50t26 -127q-9 -170 -84 -288q-107 -155 -197 -171q-31 0 -31 22z" />
<glyph unicode="&#x201c;" horiz-adv-x="650" d="M59 1008q-9 92 57 208t135 132q17 -6 17 -20t-54 -72q-53 -73 -75 -146v-11q0 -13 33 -19q86 -16 86 -111q0 -61 -43 -83q-134 -39 -156 122zM331 1013q-9 93 57 209t135 131q17 -5 17 -19t-54 -73q-53 -73 -75 -146v-11q0 -13 33 -19q86 -16 86 -111q0 -61 -43 -83 q-134 -39 -156 122z" />
<glyph unicode="&#x201d;" horiz-adv-x="650" d="M107 856q0 12 59 62q55 62 67 134v10q0 14 -37 16q-79 5 -79 91v22q16 81 94 80q69 -15 91 -63t14 -114q-6 -68 -61 -139q-76 -116 -132 -116q-16 5 -16 17zM368 852q0 12 59 62q55 62 67 134v10q0 14 -37 16q-79 5 -79 91v22q16 81 94 80q68 -15 90 -63t16 -114 q-6 -68 -62 -139q-76 -116 -132 -116q-16 5 -16 17z" />
<glyph unicode="&#x202f;" horiz-adv-x="313" />
<glyph unicode="&#x2039;" horiz-adv-x="544" d="M73 510q0 44 97 93q142 103 218 238q23 35 49 31t32 -47v-5q-39 -163 -143 -247q-87 -65 -87 -79q-1 -38 77 -118t186 -243q11 -51 -8 -65t-53 9q-86 60 -185 187t-167 203q-16 23 -16 43z" />
<glyph unicode="&#x203a;" horiz-adv-x="529" d="M72 91q-4 21 14 56q88 150 206 283q37 47 37 65q0 17 -76 83q-144 124 -144 260q0 16 17 36t39 8q21 -12 47 -66q26 -53 88 -125t131 -111q54 -21 54 -80q-9 -33 -87 -122t-251 -285q-26 -23 -49 -23q-22 0 -26 21z" />
<glyph unicode="&#x205f;" horiz-adv-x="391" />
<glyph unicode="&#x25fc;" horiz-adv-x="500" d="M0 0z" />
</font>
</defs>
</svg>
