<?xml version="1.0" standalone="no"?>
<!DOCTYPE svg PUBLIC "-//W3C//DTD SVG 1.1//EN" "http://www.w3.org/Graphics/SVG/1.1/DTD/svg11.dtd" >
<svg xmlns="http://www.w3.org/2000/svg" xmlns:xlink="http://www.w3.org/1999/xlink" version="1.1">
<metadata></metadata>
<defs>
<font id="bshirazregular" horiz-adv-x="0" >
<font-face units-per-em="2048" ascent="1638" descent="-410" />
<missing-glyph horiz-adv-x="434" />
<glyph unicode="&#x651;&#x64b;" d="M81 1878q-33 0 -33 14t2 16l25 21l27 29l27 41q13 20 23 20l21 -6q22 -5 45 -5h309q31 0 33 -16q0 -14 -2 -16l-24 -21q-28 -24 -46 -56t-32 -32l-65 11h-310zM560 2206q0 -10 -2 -15l-22 -21q-22 -16 -46 -52t-33 -36q-8 0 -22 6l-44 5h-310q-33 -1 -33 15t27 36l27 30 l27 39q11 20 21 20q10 1 26 -5t42 -6h309q33 0 33 -16zM236 1369q-92 0 -130 44t-38 149v156q0 27 13 30q5 -3 21 -21t37 -37l42 -34q15 -10 19 -19q-4 -6 -12 -29v-46q0 -46 10 -61q15 -13 48 -13q57 0 57 67v163q0 27 14 30l69 -66l35 -28q13 -8 15 -17q-12 -28 -12 -29 v-74q0 -46 58 -46q33 0 44 14t11 60v156q0 27 14 30q8 -4 12 -11l11 -10l18 -19q5 -6 19 -18l42 -34q15 -10 17 -19q-12 -28 -12 -29v-74q0 -165 -182 -165h-13q-69 0 -98 29q-37 -29 -129 -29z" />
<glyph unicode="&#x651;&#x64c;" arabic-form="isolated" d="M723 1598v-74q0 -166 -183 -166h-12q-69 0 -99 30q-39 -30 -130 -30t-129 44t-38 150v156q0 27 13 30q8 -7 23 -24t35 -35l43 -34q15 -9 19 -19q-5 -5 -13 -28v-46q0 -46 12 -60t46 -14q58 0 58 67v163q0 27 13 30q7 -6 9 -9l60 -57l35 -29q13 -7 15 -17q-12 -27 -12 -28 v-74q0 -46 59 -46q33 0 44 14t11 60v156q0 27 14 30l22 -21q0 -4 37 -38l42 -34q15 -9 17 -19q-11 -27 -11 -28zM438 2060q-28 0 -30 -34t33 -62q29 32 31 52q4 44 -34 44zM331 2017q0 110 107 110q46 0 76 -32t31 -80q0 -48 -53 -105l51 -37l-55 -32l-40 28 q-71 -73 -116 -73q-44 0 -78 38t-48 37t-32 -25t-23 -24q-16 0 -16 26t27 60q28 35 54 35q26 1 58 -37t54 -38q24 0 63 43q-60 38 -60 106z" />
<glyph unicode="&#x651;&#x64d;" arabic-form="isolated" d="M151 1400q-33 0 -33 14t2 17l24 20l28 30l26 40q14 20 24 20l21 -5q21 -6 44 -6h310q31 0 33 -15q0 -15 -2 -16l-25 -22q-31 -26 -47 -57t-30 -31l-66 11h-309zM597 1745q33 1 33 -13t-2 -18l-23 -21q-21 -17 -45 -53t-33 -35q-8 0 -22 5l-45 5h-309q-33 -1 -33 15t26 36 l28 31l26 38q11 20 21 20t26 -5t42 -5h310zM270 1846q-91 0 -129 44t-38 150v156q0 26 12 30q6 -5 26 -25q19 -21 33 -34l42 -34q15 -9 19 -19q-4 -5 -13 -28v-46q0 -47 11 -61q15 -13 48 -13q57 0 57 67v163q0 26 14 30l69 -66l35 -29q12 -7 14 -17q-11 -27 -11 -28v-75 q0 -45 58 -45q33 0 44 13t11 61v156q0 26 14 30q8 -4 12 -11l28 -30q5 -5 19 -18l43 -34q15 -9 17 -19q-12 -27 -12 -28v-75q0 -165 -182 -165h-13q-69 0 -99 30q-38 -30 -129 -30z" />
<glyph unicode="&#x651;&#x64e;" arabic-form="isolated" d="M714 1552v-74q0 -166 -183 -166h-12q-69 0 -99 30q-39 -30 -130 -30t-129 44t-38 150v156q0 27 13 30q8 -7 23 -24t35 -35l43 -34q15 -9 19 -19q-5 -5 -13 -28v-46q1 -46 13 -60t45 -14q58 0 58 67v163q0 27 13 30q7 -6 9 -9l60 -57l35 -29q13 -7 15 -17q-12 -27 -12 -28 v-74q0 -46 59 -46q33 0 44 14t11 60v156q0 27 14 30l22 -21q0 -4 37 -38l42 -34q15 -9 17 -19q-11 -27 -11 -28zM606 2064q33 0 33 -14t-2 -18l-24 -21l-28 -28q-13 -13 -25 -36t-25 -23q-7 0 -21 6l-44 5h-310q-32 0 -33 14q0 13 2 15l25 21l54 70q10 20 20 20q10 1 27 -5 q16 -6 42 -6h309z" />
<glyph unicode="&#x651;&#x64f;" arabic-form="isolated" d="M420 2071q29 24 30 49q3 46 -33 46q-28 0 -30 -36t33 -59zM524 2134q0 -37 -11 -62q-20 -31 -41 -55l49 -37l-53 -32l-39 26l-69 -57q-29 -24 -62 -38l-40 -18q-16 0 -16 15v30q0 20 25 27q20 9 55 35t53 49q-64 43 -66 114q-1 39 30 71t78 32t77 -32t30 -68zM236 1308 q-92 0 -130 44t-38 149v156q0 27 13 30q5 -3 21 -21t37 -37l42 -34q15 -10 19 -19q-4 -6 -12 -29v-46q0 -46 10 -61q15 -13 48 -13q57 0 57 67v163q0 27 14 30l69 -66l35 -28q13 -8 15 -17q-12 -28 -12 -29v-74q0 -46 58 -46q33 -1 44 13t11 61v156q0 27 14 30q8 -4 12 -11 l11 -10l18 -19q5 -6 19 -18l42 -34q15 -10 17 -19q-12 -28 -12 -29v-74q0 -165 -182 -165h-13q-69 0 -98 29q-37 -29 -129 -29z" />
<glyph unicode="&#x651;&#x650;" arabic-form="isolated" d="M562 1510q33 0 33 -14t-2 -17l-22 -21q-23 -16 -47 -52t-32 -36t-22 5l-45 6h-309q-33 -1 -33 15t27 35l27 31l27 38q10 20 23 20q7 0 23 -5t43 -5h309zM253 1629q-92 0 -130 44t-38 150v155q0 27 13 30q8 -6 25 -25q17 -20 33 -33l43 -34q15 -10 19 -19q-5 -6 -13 -29 v-45q1 -47 13 -61t45 -14q58 0 58 67v163q0 27 13 30q3 -2 22 -21l47 -45l35 -28q13 -8 15 -17q-12 -27 -12 -29v-74q0 -46 59 -46q33 0 44 14t11 61v155q0 27 14 30q2 -1 22 -21l18 -19q5 -6 19 -18l42 -34q15 -10 17 -19q-11 -27 -11 -29v-74q0 -165 -183 -165h-12 q-69 0 -99 29q-37 -29 -129 -29z" />
<glyph unicode="&#xfedf;&#xfee0;&#xfeea;" horiz-adv-x="1147" arabic-form="isolated" d="M147 422q0 -10 25.5 -21.5t63.5 -11.5t89 39l-6 87q-43 -10 -107 -39t-65 -54zM923 141q-93 0 -161 146q-61 -176 -202 -176t-208 180q-43 -111 -165 -111q-55 0 -105 30t-50 85q0 54 59 166q27 50 68.5 77.5t146.5 72.5q0 99 16 137t92 90l33 -323q9 -85 26 -118 q28 -54 98 -54q41 0 73.5 27t32.5 67l-3 34q0 14 -9 42l-42 184q-24 109 -24 165t91 179l57 -248q19 -87 48 -210q60 -214 143 -214q24 0 31 41q0 26 -8 59l-89 339q-1 8 -5 25l-3 26q0 53 80 184l79 -333q16 -66 39 -185l8 -65l3 -69q5 -107 -38 -179t-112 -71zM656 1175 q-18 0 -31 4l-19 8l-20 14q-27 -57 -52.5 -80.5t-59.5 -23.5q-54 0 -79 70q-6 17 -6 45t21 106l12 3q0 -106 60 -106q39 0 61 44t22 121l18 6q5 -21 12 -39l19 -32q21 -27 42 -27q66 0 66 135v13l-2 15l15 11l18 -57l5 -29l1 -29q3 -71 -27.5 -121.5t-75.5 -50.5zM586 1490 l-29 -35q-27 101 -53 149t-97 101l-24 143q113 -62 154 -146q29 -58 49 -212z" />
<glyph unicode="&#xfedf;&#xfe82;" horiz-adv-x="1068" arabic-form="isolated" d="M611 1577q-130 -214 -426 -148l-32 7l-36 5l-31 2l-25 -2q-18 -2 -72 -34l-19 18q42 112 124 127q40 6 112 -8q152 -31 226 -14l38 7l30 13q47 21 88 47zM732 240q74 0 74 25q0 15 -16 46l-23 44q-32 -41 -50 -60t-63 -55h78zM927 886q-1 -142 -13 -209q-12 -66 -84 -210 q67 -175 67 -285t-89 -151q-60 -28 -198 -28h-163v237h83q67 48 98 81l104 111q-76 124 -147 216q-72 92 -172 188q-38 -79 -71 -79q-13 0 -37 16l-74 69q-102 94 -102 176q0 49 53 128l35 52l31 41q96 -69 131 -106t67 -75l76 -92q87 -106 123 -164t139 -243q28 67 37 106 l5 46l3 71q2 90 -20 186l-43 191q0 71 98 163q26 -52 51 -82l30 -35l49 -51q-39 -45 -56 -86q-11 -40 -11 -182z" />
<glyph unicode="&#xfee0;&#xfe82;" horiz-adv-x="1280" arabic-form="final" d="M563 1527q-130 -214 -426 -148l-32 7l-36 5l-31 2l-25 -3q-19 -1 -72 -33l-20 17q43 113 124 128q41 7 151 -15t188 -8l37 8l30 13q48 20 89 47zM1338 137h-148q-135 0 -185 202l-34 138q-42 174 -42 479q-36 -273 -64 -399q-27 -126 -75 -249q-48 -122 -129 -182 t-180 -79l-206 -41l-4 20q139 84 278 210q189 171 189 273q0 40 -127 169t-164 129q-14 0 -31.5 -35t-41.5 -35t-78 28l-60 32l-59 37q-49 32 -49 128t2 118q10 106 57 106t234 -137q277 -200 350 -488q41 93 69 243t28 250t9 119q4 50 102 181l8 -122l4 -100q2 -48 10 -148 l12 -96q3 -18 16 -118t27 -184t47 -146q25 -68 87 -68h148v-235z" />
<glyph unicode="&#xfedf;&#xfe84;" horiz-adv-x="1062" arabic-form="isolated" d="M69 1600q0 45 51 105t99 60t48 -63t-33 -63q-20 0 -35 27.5t-27 27.5t-23.5 -13t-11.5 -27q1 -36 49 -66t87 -30.5t88 20.5l-34 -76l-257 -109q16 43 28 63t38 29l31 12l-47 28q-51 30 -51 75zM726 236q74 0 74 26q0 15 -16 45l-23 45q-32 -41 -50 -60t-63 -56h78z M921 882q-1 -142 -13 -208t-85 -210q68 -174 68 -284t-89 -152q-61 -28 -198 -28h-163v236h82q68 49 99 82l104 111q-66 108 -162 235q-58 73 -157 169q-38 -79 -71 -79q-13 0 -37 16l-74 68q-102 95 -102 176q0 50 53 129l35 52l31 41q96 -69 131 -106t67 -75l76 -93 q87 -104 123 -162t139 -245q28 68 37 106l5 47l2 71q3 90 -19 186l-43 190q0 72 97 164q27 -52 52 -82l30 -35l49 -51q-39 -45 -56 -86q-11 -41 -11 -183z" />
<glyph unicode="&#xfee0;&#xfe84;" horiz-adv-x="1320" arabic-form="final" d="M52 1515q0 45 51 105t99 60t48 -64t-33 -63q-20 0 -35 28t-27 28t-23.5 -13.5t-11.5 -26.5q0 -37 48 -67t87.5 -30t88.5 21l-34 -77l-257 -108q15 42 27 62t39 29l31 12l-47 29q-51 30 -51 75zM1366 137h-148q-135 0 -185 202l-34 138q-42 174 -42 479q-36 -273 -64 -399 q-27 -126 -75 -249q-48 -122 -129 -182t-180 -79l-206 -41l-4 20q139 84 278 210q189 171 189 273q0 40 -127 169t-164 129q-14 0 -31.5 -35t-41.5 -35t-78 28l-60 32l-59 37q-49 32 -49 128t2 118q11 106 57 106t234 -137q277 -200 350 -488q41 93 69 243t29 250 q0 100 8 119q4 50 102 181l8 -122l5 -100q1 -48 9 -148l12 -96q3 -18 16 -118t27 -184t47 -146q25 -68 87 -68h148v-235z" />
<glyph unicode="&#xfedf;&#xfe88;" horiz-adv-x="1083" arabic-form="isolated" d="M490 -308q0 37 51 97t99 60q48 1 49 -63q0 -64 -34 -64q-19 0 -34 28q-16 28 -28 28t-23.5 -13.5t-11.5 -27.5q0 -36 48 -66t87.5 -30t88.5 21l-34 -77l-257 -108q15 41 27 61t39 30l31 12l-47 28q-15 10 -33 28t-18 56zM747 240q74 0 74 25q0 15 -16 46l-23 44 q-32 -41 -50 -60t-64 -55h79zM942 886q0 -142 -13 -209q-13 -66 -85 -210q68 -175 68 -285t-89 -151q-61 -28 -198 -28h-163v237h82q68 48 99 81l104 111q-141 232 -319 404q-38 -79 -71 -79q-13 0 -37 16l-75 69q-101 94 -101 176q0 49 53 128l65 93q97 -69 132 -106 t67 -75l76 -92q87 -106 123 -164t139 -243q28 67 37 106l5 46l2 71q3 90 -19 186l-43 191q0 71 97 163q27 -52 52 -82l30 -35l49 -51q-40 -45 -56 -86q-11 -40 -11 -182z" />
<glyph unicode="&#xfee0;&#xfe88;" horiz-adv-x="1284" arabic-form="final" d="M729 -92.5q51 60.5 99 60.5t49 -64q0 -64 -34 -63q-18 -1 -34 27t-28 28t-23.5 -13t-11.5 -27q0 -36 49 -66t87 -31q38 0 88 22l-33 -77l-258 -108q15 42 28 62t38 29l31 12l-47 28q-51 31 -51 75q0 45 51 105.5zM1339 137h-148q-135 0 -185 202l-34 138q-42 174 -42 479 q-36 -273 -64 -399t-76 -249q-48 -122 -128 -182q-81 -60 -181 -79l-205 -41l-4 20q139 84 278 210q189 171 189 273q0 40 -127 169t-164 129q-14 0 -31.5 -35t-41.5 -35t-78 28l-60 32l-59 37q-50 32 -50 128t3 118q10 106 57 106t234 -137q277 -200 350 -488q41 93 69 243 t28 250t9 119q4 50 102 181l8 -122l4 -100q2 -48 10 -148l12 -96q3 -18 16 -118q14 -100 28 -184t46 -146q25 -68 87 -68h148v-235z" />
<glyph unicode="&#xfedf;&#xfe8e;" horiz-adv-x="1083" arabic-form="isolated" d="M747 240q74 0 74 25q0 15 -16 46l-23 44q-32 -41 -50 -60t-64 -55h79zM942 886q0 -142 -13 -209q-13 -66 -85 -210q68 -175 68 -285t-89 -151q-61 -28 -198 -28h-164v237h83q68 48 99 81l104 111q-82 135 -151 221q-69 87 -168 183q-39 -79 -71 -79q-13 0 -38 16l-74 69 q-102 94 -102 176q0 49 53 128l35 52l31 41q97 -69 132 -106t66 -75l77 -92q87 -106 123 -164t139 -243q28 67 37 106l5 46l2 71q3 90 -19 186l-43 191q0 71 97 163q26 -52 52 -82l78 -86q-39 -45 -56 -86q-10 -40 -10 -182z" />
<glyph unicode="&#xfee0;&#xfe8e;" horiz-adv-x="1320" arabic-form="final" d="M1368 137h-148q-135 0 -185 202l-34 138q-42 174 -42 479q-35 -273 -63 -399t-76 -249q-48 -122 -129 -182t-180 -79l-206 -41l-4 20q139 84 279 210q188 171 188 273q0 40 -127 169t-164 129q-13 0 -30.5 -35t-41.5 -35t-79 28l-60 32l-58 37q-50 32 -50 128t2 118 q11 106 57 106t234 -137q277 -200 350 -488q41 93 69 243t29 250q0 100 8 119q4 50 102 181l8 -122l5 -100q1 -48 9 -148l12 -96q3 -18 16 -118t27 -184t47 -146q25 -68 87 -68h148v-235z" />
<glyph unicode="&#x6c0;" horiz-adv-x="582" arabic-form="isolated" d="M211 623q-40 0 -70.5 -31t-30.5 -73q0 -97 137 -97q74 0 190 52q-119 149 -226 149zM508 489q0 -136 -61 -235q-73 -119 -213 -119q-96 -1 -149 65t-53 165q0 183 125 430q69 135 138 135q101 0 164 -172q49 -133 49 -269zM57 1198q0 45 51.5 105.5t99.5 60.5t48 -64 t-34 -63q-18 -1 -34 27t-28 28t-23.5 -13t-11.5 -27q1 -36 49 -66t87 -30.5t88 21.5l-33 -77l-258 -108q15 42 28 62t38 29l31 12l-47 28q-51 30 -51 75z" />
<glyph unicode="&#x6a9;" horiz-adv-x="1564" arabic-form="isolated" d="M1031 456q1 42 -105 104t-188 97q-82 34 -98 70q-14 36 -16 81l-3 73l-2 69q-2 66 20 102t91 74q347 193 754 296l74 19q-61 -135 -85 -171q-43 -66 -102 -83l-296 -90q-396 -119 -396 -161q0 -28 133 -96t209 -176t76 -248q0 -141 -94 -207q-43 -29 -139 -43t-163 -23 q-25 -8 -279 -8t-274 3q-116 19 -116 108v22q0 59 58 231l31 -6q6 -66 87 -85q201 -9 364 -10l89 -1h39l249 19q56 13 69 18t13 22z" />
<glyph unicode="&#x6cc;" horiz-adv-x="1242" arabic-form="isolated" d="M1017 -84q-1 27 -133 27t-192 23q-88 34 -88 126q0 119 197 344q155 176 275 176q97 0 91 -89l-3 -49l-5 -37q-5 -35 -14 -86q-33 39 -121 39t-179 -50t-91 -124q0 -48 41 -70t149 -44t138 -41q50 -32 50 -99q0 -110 -122 -198t-302 -139t-326 -51q-145 0 -247 71 t-102 217q0 178 114 358q42 66 72 112l27 -17q-109 -184 -109 -264q0 -143 152 -214q115 -53 276 -53q88 0 270 40t182 92z" />
<glyph unicode="&#x67e;" horiz-adv-x="1531" arabic-form="final" d="M840 -294l-85 -141l-131 92l-64 -118l-141 105l87 139l126 -101l77 126zM769 -509l-83 -142l-136 105l84 141zM1573 137h-149q-62 1 -96 27t-53 82q-276 -194 -682 -194q-226 0 -373 78q-188 99 -188 305q0 93 27 159t90 166l27 -13q-53 -106 -53 -163q0 -155 189 -231 q138 -55 302 -55t267 9q348 33 413 182l20 -7q0 -110 105 -110h154v-235z" />
<glyph unicode="&#x67e;" horiz-adv-x="474" arabic-form="initial" d="M430 -177l-85 -141l-130 91l-65 -117l-141 105l87 139l126 -101l77 126zM359 -409l-82 -142l-137 105l85 141zM400 487q0 -141 -58 -236q-69 -114 -201 -114h-174v235h174q160 0 160 52q1 12 -39 58t-40 70t50 130l49 105q43 -101 61 -159t18 -141z" />
<glyph unicode="&#x67e;" horiz-adv-x="606" arabic-form="medial" d="M446 -205l-85 -141l-130 91l-65 -118l-141 105l87 139l126 -101l77 127zM375 -446l-82 -142l-137 105l85 141zM647 137h-148q-56 0 -91 29t-61 99q-65 -128 -145 -128h-224v235h224q81 0 123 23t94 94l9 -2q15 -115 71 -115h148v-235z" />
<glyph unicode="&#x686;" horiz-adv-x="1145" arabic-form="final" d="M701 -669q-287 0 -461 110q-208 132 -208 402q0 378 377 624l-120 22q-36 6 -101 6h-46l-57 -10q-9 0 -43 -9l42 170q141 76 226 76q49 0 91 -8l108 -19l166 -25l67 -5l72 -3l48 -3l43 -1l-35 -182q-42 0 -72 -3l-50 -6q23 -58 60 -76.5t143 -18.5h232v-235h-267 q-280 0 -280 167q0 68 39 157q-213 -34 -364 -154q-175 -139 -175 -333t200 -310t445 -116q38 0 77 3l71 5l108 4l152 10l2 -26l-443 -213h-47zM772 12l-85 -141l-130 91l-65 -118l-141 105l87 139l126 -101l77 126zM693 -220l-83 -143l-137 105l85 141z" />
<glyph unicode="&#x686;" horiz-adv-x="1017" arabic-form="initial" d="M46 137h-74v235h86q79 0 159 24.5t218 96.5q-126 66 -229 66q-48 0 -80 -7t-102 -33q31 132 68 187q57 87 165 87q44 0 97 -13q28 -11 100 -37l114 -39l89 -25q83 -22 169 -17l47 4l70 3l-25 -182l-66 -7l-89 -2q-146 -9 -233 -52q-86 -43 -214 -140t-176 -123t-94 -26z M614 -150l-85 -140l-130 91l-65 -118l-141 105l87 139l126 -101l78 126zM535 -382l-83 -142l-137 105l85 141z" />
<glyph unicode="&#x686;" horiz-adv-x="1173" arabic-form="medial" d="M1208 137h-244q-285 0 -285 167q0 52 39 170q-128 -20 -208 -58t-170 -108t-134 -100q-43 -30 -118 -65q-23 -6 -45 -6h-74v235h85q79 0 159.5 24.5t218.5 96.5q-126 66 -229 66q-49 0 -81 -7t-102 -33q32 132 68 187q57 87 166 87q43 0 96 -13q28 -11 101 -37l113 -39 l89 -25q84 -22 170 -17l62 5l94 4l-28 -182l-103 -9l-52 -6q25 -60 63 -81t138 -21h211v-235zM602 -124l-85 -141l-130 91l-65 -118l-141 105l87 139l126 -100l78 126zM557 -348l-83 -142l-136 105l84 141z" />
<glyph unicode="&#x698;" horiz-adv-x="626" arabic-form="final" d="M664 137h-153q-27 -207 -101 -351q-105 -204 -273 -204q-79 0 -141 28t-159 90l16 29q3 -1 49 -7t55 -7q241 0 493 363l-67 80q-62 74 -91 155l126 189q66 -130 132 -130h114v-235zM543 877l-85 -141l-130 91l-65 -118l-141 105l87 139l126 -101l77 126zM387 1094 l-82 -142l-137 105l85 141z" />
<glyph unicode="&#x6af;" horiz-adv-x="1529" arabic-form="final" d="M790 1282q12 21 48 60t48 53q72 90 326 246q9 5 168 81q66 39 246 119q-13 -49 -28 -101t-14 -55q-20 -33 -111 -75l-221 -100q-96 -44 -202 -102t-179 -94t-73 -49zM592 298q238 0 435 58q47 9 86.5 39.5t39.5 57.5q0 65 -190 170q-234 129 -234 300q0 99 91 196 q120 127 380 269q260 141 466 215q-41 -171 -61 -205q-21 -34 -112 -75l-221 -101q-174 -80 -328 -165t-155 -120q0 -8 43 -29t79 -44l175 -117q113 -75 171 -165q42 -63 98 -160q21 -50 65 -50h152v-235h-148q-84 1 -126 45t-60 190q0 -174 -207 -260q-180 -75 -523 -75 q-148 0 -240 23q-236 61 -236 318q0 101 16 157l99 117q-19 -35 -29 -70l-6 -29l-2 -31q-7 -102 119 -163q125 -61 363 -61zM1584 1683q-1 1 0 2q1 0 2 1z" />
<glyph unicode="&#x6af;" horiz-adv-x="1024" arabic-form="initial" d="M71 930q1 -27 133 -96q132 -68 208 -176t77 -242q0 -165 -123 -231q-92 -48 -275 -48h-124v235h124q332 0 332 77q0 43 -127 117q-84 50 -166 84t-98 70q-14 36 -16 81l-3 73l-2 69q-2 67 20 103t91 73q347 193 754 296l74 19q-61 -135 -85 -170q-43 -66 -103 -84 l-295 -89q-396 -119 -396 -161zM510 1373q-192 -58 -389 -138q6 56 91 128q300 167 661 264q47 11 70 16q-46 -96 -53 -105q-42 -63 -99 -80z" />
<glyph unicode="&#x6af;" horiz-adv-x="1004" arabic-form="medial" d="M1068 137h-142q-61 -1 -110 37q-50 38 -164 163t-174 185l17 -62l3 -44q20 -279 -335 -279h-202v235h202q125 0 176 10q93 17 93 72q0 64 -190 169q-234 129 -234 300q0 99 104 210q104 110 365 252q261 143 469 219q-45 -178 -64 -208q-19 -31 -110 -73l-221 -101 q-175 -78 -329 -164t-154 -121q0 -19 122 -73l107 -48q132 -59 291 -196l201 -173q87 -75 141 -75h138v-235zM905 1833l-41 -157q-20 -32 -112 -74l-220 -101q-96 -43 -202 -101t-179 -94t-73 -50l-8 18q10 21 47 60t48 53q55 65 141 125t186 121q9 4 168 81q66 39 245 119z M864 1676z" />
<glyph unicode="&#x622;" horiz-adv-x="607" arabic-form="final" d="M592 1495q-130 -215 -425 -148l-33 7l-35 4l-32 2l-24 -2q-19 -2 -73 -33l-19 17q42 113 124 127q41 7 113 -7q151 -31 226 -15l37 8l30 13q48 20 89 46zM295 490q0 49 -4 183t-35 222t-31 116q0 61 44 112l67 76l17 -98l55 -591q5 -83 27.5 -115t63.5 -32h149v-235h-149 q-204 0 -204 362z" />
<glyph unicode="&#x623;" horiz-adv-x="549" arabic-form="final" d="M38 1460q0 45 51 105t99 60q48 1 48 -63t-34 -64q-19 0 -35 28q-15 28 -27 28t-23 -13.5t-11 -26.5q0 -37 48 -67t87.5 -30t88.5 21l-34 -77l-257 -108q14 43 27 63t39 28l31 12l-47 29q-51 30 -51 75zM217 499q0 49 -4 183t-35 222t-31 116q0 61 44 112l67 76l17 -98 l55 -591q5 -83 27.5 -115t63.5 -32h149v-235h-149q-204 0 -204 362z" />
<glyph unicode="&#x624;" horiz-adv-x="739" arabic-form="final" d="M373 978q0 45 51 105.5t99 60.5t48 -64t-33 -63q-19 -1 -35 27q-15 28 -27 28t-23.5 -13t-11.5 -27q1 -36 49 -66t87 -30.5t88 21.5l-34 -77l-257 -108q14 42 27 62t39 29l31 12l-47 28q-51 30 -51 75zM419 428q0 -56 97 -56h75q-55 104 -113 104t-59 -48zM788 137h-161 q-102 -528 -396 -528q-85 0 -149 28t-157 92l18 23q37 -12 52 -13l52 -4q17 -1 34 -1q294 0 496 403h-35q-99 0 -141 22q-58 31 -58 131q-1 100 69 254t133 153q41 0 68 -77q14 -40 21 -98l19 -150h135v-235z" />
<glyph unicode="&#x625;" horiz-adv-x="502" arabic-form="final" d="M215 -157q0 44 51.5 104t99.5 60t48 -63t-34 -63q-20 -1 -35 27t-27 28t-23.5 -13.5t-11.5 -26.5q0 -36 49 -66q50 -30 88 -31q38 0 88 21l-34 -76l-258 -109q15 43 28 63t38 29l31 12l-47 28q-51 32 -51 76zM118 1020q0 61 45 112l66 76l17 -98l55 -591q5 -83 27.5 -115 t64.5 -32h148v-235h-148q-205 0 -205 362l-4 169q-2 150 -34 237t-32 115z" />
<glyph unicode="&#x626;" horiz-adv-x="1131" arabic-form="final" d="M1169 137h-260q-190 0 -190 -48q0 -13 11 -21l38 -16q142 -44 180 -65q101 -54 101 -144q-1 -125 -197 -231t-387 -105t-312 89t-121 248t59 317q24 61 54 126l32 -20q-37 -85 -51 -128t-14 -108q0 -153 133 -229q107 -63 267 -63q160 -1 300 31q141 32 141 67t-180 35 t-180 132q1 132 99 250t224 118h253v-235zM339 469q0 45 51 105.5t99 60.5q48 1 48 -63t-33 -64q-20 0 -35 28t-27 28t-23.5 -13.5t-11.5 -27.5q1 -36 49 -66t87 -30t88 21l-34 -77l-257 -108q16 41 28 61t38 30l31 12l-47 28q-51 30 -51 75z" />
<glyph unicode="&#x626;" horiz-adv-x="378" arabic-form="initial" d="M-17 1055q0 45 50.5 105t98.5 60t49 -64q0 -64 -34 -63q-19 0 -35 28q-15 28 -27 28t-23 -13.5t-11 -26.5q1 -37 49 -67t87 -30t88 21l-34 -77l-257 -108q14 42 27 62t38 29l31 12l-46 29q-51 30 -51 75zM304 487q0 -141 -58 -236q-69 -114 -201 -114h-74v235h74 q160 0 160 52q1 12 -39 58t-40 70t50 130l50 105q44 -99 61 -158t17 -142z" />
<glyph unicode="&#x626;" horiz-adv-x="450" arabic-form="medial" d="M110 868q0 45 51 105t99 60t48 -63t-33 -63q-20 0 -35 27.5t-27 27.5t-23.5 -13t-11.5 -27q0 -36 48 -66t87.5 -30.5t88.5 20.5l-34 -76l-257 -109q15 43 27 63t39 29l31 12l-47 28q-51 30 -51 75zM494 137h-149q-55 0 -90 29t-61 99q-65 -128 -145 -128h-75v235h75 q80 0 122 23t95 94l8 -2q16 -115 71 -115h149v-235z" />
<glyph unicode="&#x627;" horiz-adv-x="489" arabic-form="final" d="M108 1020q0 61 45 112l67 76l17 -98l55 -591q5 -83 27.5 -115t63.5 -32h148v-235h-148q-205 0 -205 362l-4 169q-2 149 -34 236q-32 88 -32 116z" />
<glyph unicode="&#x628;" horiz-adv-x="1531" arabic-form="final" d="M795 -305l-83 -142l-137 105l85 141zM1573 137h-149q-62 1 -96 27t-53 82q-276 -194 -682 -194q-226 0 -373 78q-188 99 -188 305q0 93 27 159t90 166l27 -13q-53 -106 -53 -163q0 -155 189 -231q138 -55 302 -55t267 9q348 33 413 182l20 -7q0 -110 105 -110h154v-235z " />
<glyph unicode="&#x628;" horiz-adv-x="378" arabic-form="initial" d="M235 -161l-83 -142l-137 105l85 141zM304 487q0 -141 -58 -236q-69 -114 -201 -114h-74v235h74q160 0 160 52q1 12 -39 58t-40 70t50 130l50 105q44 -99 61 -158t17 -142z" />
<glyph unicode="&#x628;" horiz-adv-x="457" arabic-form="medial" d="M201 -187l-83 -142l-137 105l85 141zM494 137h-149q-55 0 -90 29t-61 99q-65 -128 -145 -128h-75v235h75q80 0 122 23t95 94l8 -2q16 -115 71 -115h149v-235z" />
<glyph unicode="&#x629;" horiz-adv-x="659" arabic-form="final" d="M365 493q0 17 -10 71l-6 36q-2 13 -9 39q-164 -92 -164 -137q0 -13 44 -29q49 -12 108 -12q37 0 37 32zM709 137h-148q-99 0 -141 89q-25 51 -41 178q-62 -88 -103 -127t-91 -39q-49 0 -101 30t-52 78t40 140q40 94 74 124t179 112l-9 55q-10 55 -10 61q0 41 104 145 l31 -189l49 -341q12 -81 71 -81h148v-235zM-11 1005q0 45 51.5 105t99.5 60t48 -64t-34 -63q-19 0 -35 28q-15 28 -27 28t-23.5 -13.5t-11.5 -26.5q0 -37 49 -67q50 -30 88 -30t87 21l-33 -77l-258 -108q15 42 28 62t38 29l31 12l-47 29q-51 30 -51 75z" />
<glyph unicode="&#x62a;" horiz-adv-x="1527" arabic-form="final" d="M882 843l-85 -141l-130 91l-65 -118l-141 105l87 139l126 -101l78 126zM1573 137h-149q-62 1 -96 27t-53 82q-276 -194 -682 -194q-226 0 -373 78q-188 99 -188 305q0 93 27 159t90 166l27 -13q-53 -106 -53 -163q0 -155 189 -231q138 -55 302 -55t267 9q348 33 413 182 l20 -7q0 -110 105 -110h154v-235z" />
<glyph unicode="&#x62a;" horiz-adv-x="445" arabic-form="initial" d="M446 1033l-84 -141l-131 92l-64 -118l-141 105l86 139l127 -101l77 126zM371 487q0 -141 -58 -236q-69 -114 -201 -114h-144v235h144q160 0 160 52q0 12 -40 58t-39 70q0 24 50 130l50 105q44 -99 61 -158t17 -142z" />
<glyph unicode="&#x62a;" horiz-adv-x="537" arabic-form="medial" d="M452 855l-85 -141l-131 91l-64 -117l-141 105l87 138l126 -100l77 126zM570 137h-148q-56 0 -90.5 29t-61.5 99q-64 -128 -145 -128h-154v235h154q81 0 123 23t94 94l9 -2q16 -115 71 -115h148v-235z" />
<glyph unicode="&#x62b;" horiz-adv-x="1531" arabic-form="final" d="M899 868l-85 -141l-130 91l-65 -117l-141 105l87 138l126 -100l78 126zM769 1060l-83 -142l-136 105l84 141zM1573 137h-149q-62 1 -96 27t-53 82q-276 -194 -682 -194q-226 0 -373 78q-188 99 -188 305q0 93 27 159t90 166l27 -13q-53 -106 -53 -163q0 -155 189 -231 q138 -55 302 -55t267 9q348 33 413 182l20 -7q0 -110 105 -110h154v-235z" />
<glyph unicode="&#x62b;" horiz-adv-x="484" arabic-form="initial" d="M450 1055l-85 -141l-130 91l-65 -117l-141 105l87 139l126 -101l77 126zM312 1256l-83 -142l-137 104l85 141zM409 487q0 -141 -63 -245t-195 -105h-184v235h184q160 0 160 52q0 12 -40 58t-40 70t50 130l50 105q44 -101 61 -159t17 -141z" />
<glyph unicode="&#x62b;" horiz-adv-x="539" arabic-form="medial" d="M440 852l-85 -141l-130 91l-65 -117l-141 105l87 138l126 -100l77 126zM310 1044l-83 -142l-137 105l85 141zM580 137h-148q-56 0 -91 29t-61 99q-65 -128 -145 -128h-174v235h174q81 0 123 23t94 94l9 -2q15 -115 71 -115h148v-235z" />
<glyph unicode="&#x62c;" horiz-adv-x="1138" arabic-form="final" d="M701 -669q-287 0 -461 110q-208 132 -208 402q0 378 377 624l-120 22q-36 6 -101 6h-46l-57 -10q-9 0 -43 -9l42 170q141 76 226 76q49 0 91 -8l108 -19l166 -25l67 -5l72 -3l48 -3l43 -1l-35 -182q-42 0 -72 -3l-50 -6q23 -58 60 -76.5t143 -18.5h232v-235h-267 q-280 0 -280 167q0 68 39 157q-213 -34 -364 -154q-175 -139 -175 -333t200 -310t445 -116q38 0 77 3l71 5l108 4l152 10l2 -26l-443 -213h-47zM676 -51l-83 -142l-137 105l85 141z" />
<glyph unicode="&#x62c;" horiz-adv-x="1017" arabic-form="initial" d="M46 137h-74v235h86q79 0 159 24.5t218 96.5q-126 66 -229 66q-48 0 -80 -7t-102 -33q31 132 68 187q57 87 165 87q44 0 97 -13q28 -11 100 -37l114 -39l89 -25q83 -22 169 -17l47 4l70 3l-25 -182l-66 -7l-89 -2q-146 -9 -233 -52q-86 -43 -214 -140t-176 -123t-94 -26z M488 -178l-83 -142l-136 105l84 141z" />
<glyph unicode="&#x62c;" horiz-adv-x="1173" arabic-form="medial" d="M1208 137h-244q-285 0 -285 167q0 52 39 170q-128 -20 -208 -58t-170 -108t-134 -100q-43 -30 -118 -65q-23 -6 -45 -6h-74v235h85q79 0 159.5 24.5t218.5 96.5q-126 66 -229 66q-49 0 -81 -7t-102 -33q32 132 68 187q57 87 166 87q43 0 96 -13q28 -11 101 -37l113 -39 l89 -25q84 -22 170 -17l62 5l94 4l-28 -182l-103 -9l-52 -6q25 -60 63 -81t138 -21h211v-235zM489 -229l-82 -142l-137 105l85 141z" />
<glyph unicode="&#x62d;" horiz-adv-x="1143" arabic-form="final" d="M701 -669q-287 0 -461 110q-208 132 -208 402q0 378 377 624l-120 22q-36 6 -101 6h-46l-57 -10q-9 0 -43 -9l42 170q141 76 226 76q49 0 91 -8l108 -19l166 -25l67 -5l72 -3l48 -3l43 -1l-35 -182q-42 0 -72 -3l-50 -6q23 -58 60 -76.5t143 -18.5h232v-235h-267 q-280 0 -280 167q0 68 39 157q-213 -34 -364 -154q-175 -139 -175 -333t200 -310t445 -116q38 0 77 3l71 5l108 4l152 10l2 -26l-443 -213h-47z" />
<glyph unicode="&#x62d;" horiz-adv-x="1017" arabic-form="initial" d="M46 137h-74v235h86q79 0 159 24.5t218 96.5q-126 66 -229 66q-48 0 -80 -7t-102 -33q31 132 68 187q57 87 165 87q44 0 97 -13q28 -11 100 -37l114 -39l89 -25q83 -22 169 -17l47 4l70 3l-25 -182l-66 -7l-89 -2q-146 -9 -233 -52q-86 -43 -214 -140t-176 -123t-94 -26z " />
<glyph unicode="&#x62d;" horiz-adv-x="1165" arabic-form="medial" d="M1208 137h-244q-285 0 -285 167q0 52 39 170q-128 -20 -208 -58t-170 -108t-134 -100q-43 -30 -118 -65q-23 -6 -45 -6h-74v235h85q79 0 159.5 24.5t218.5 96.5q-126 66 -229 66q-49 0 -81 -7t-102 -33q32 132 68 187q57 87 166 87q43 0 96 -13q28 -11 101 -37l113 -39 l89 -25q84 -22 170 -17l62 5l94 4l-28 -182l-103 -9l-52 -6q25 -60 63 -81t138 -21h211v-235z" />
<glyph unicode="&#x62e;" horiz-adv-x="1145" arabic-form="final" d="M701 -669q-287 0 -461 110q-208 132 -208 402q0 378 377 624l-120 22q-36 6 -101 6h-46l-57 -10q-9 0 -43 -9l42 170q141 76 226 76q49 0 91 -8l108 -19l166 -25l67 -5l72 -3l48 -3l43 -1l-35 -182q-42 0 -72 -3l-50 -6q23 -58 60 -76.5t143 -18.5h232v-235h-267 q-280 0 -280 167q0 68 39 157q-213 -34 -364 -154q-175 -139 -175 -333t200 -310t445 -116q38 0 77 3l71 5l108 4l152 10l2 -26l-443 -213h-47zM549 1077l-83 -142l-137 105l85 141z" />
<glyph unicode="&#x62e;" horiz-adv-x="1017" arabic-form="initial" d="M46 137h-74v235h86q79 0 159 24.5t218 96.5q-126 66 -229 66q-48 0 -80 -7t-102 -33q31 132 68 187q57 87 165 87q44 0 97 -13q28 -11 100 -37l114 -39l89 -25q83 -22 169 -17l47 4l70 3l-25 -182l-66 -7l-89 -2q-146 -9 -233 -52q-86 -43 -214 -140t-176 -123t-94 -26z M301 1136l-83 -142l-137 105l85 141z" />
<glyph unicode="&#x62e;" horiz-adv-x="1173" arabic-form="medial" d="M1208 137h-244q-285 0 -285 167q0 52 39 170q-128 -20 -208 -58t-170 -108t-134 -100q-43 -30 -118 -65q-23 -6 -45 -6h-74v235h85q79 0 159.5 24.5t218.5 96.5q-126 66 -229 66q-49 0 -81 -7t-102 -33q32 132 68 187q57 87 166 87q43 0 96 -13q28 -11 101 -37l113 -39 l89 -25q84 -22 170 -17l62 5l94 4l-28 -182l-103 -9l-52 -6q25 -60 63 -81t138 -21h211v-235zM291 1153l-83 -142l-137 105l85 141z" />
<glyph unicode="&#x62f;" horiz-adv-x="864" arabic-form="final" d="M904 137h-139q-162 0 -229 241q-103 -221 -321 -221q-101 0 -142 28.5t-41 87.5q0 17 34 138l12 46l22 62l26 -4q17 -60 57 -86.5t128 -26.5t126 13q66 24 66 92t-25.5 192.5t-25.5 193.5t53 134l56 72l3 -115q1 -46 12 -98l32 -164l40 -184q16 -77 32 -107 q30 -59 85 -59h139v-235z" />
<glyph unicode="&#x630;" horiz-adv-x="868" arabic-form="final" d="M904 137h-139q-162 0 -229 241q-103 -221 -321 -221q-101 0 -142 28.5t-41 87.5q0 17 34 138l12 46l22 62l26 -4q17 -60 57 -86.5t128 -26.5t126 13q66 24 66 92t-25.5 192.5t-25.5 193.5t53 134l56 72l3 -115q1 -46 12 -98l32 -164l40 -184q16 -77 32 -107 q30 -59 85 -59h139v-235zM583 1365l-83 -142l-137 105l85 141z" />
<glyph unicode="&#x631;" horiz-adv-x="628" arabic-form="final" d="M664 137h-153q-27 -207 -101 -351q-105 -204 -273 -204q-79 0 -141 28t-159 90l16 29q3 -1 49 -7t55 -7q241 0 493 363l-67 80q-62 74 -91 155l126 189q66 -130 132 -130h114v-235z" />
<glyph unicode="&#x632;" horiz-adv-x="622" arabic-form="final" d="M664 137h-153q-27 -207 -101 -351q-105 -204 -273 -204q-79 0 -141 28t-159 90l16 29q3 -1 49 -7t55 -7q241 0 493 363l-67 80q-62 74 -91 155l126 189q66 -130 132 -130h114v-235zM447 848l-83 -142l-137 105l85 141z" />
<glyph unicode="&#x633;" horiz-adv-x="1721" arabic-form="final" d="M953 383q162 0 234 151l27 -6q0 -124 95 -124q86 0 118 124h25q37 -156 163 -156h149v-235h-149q-125 0 -192 215q-61 -189 -172 -189q-96 0 -131 124q-70 -150 -194 -150h-25q-24 -172 -72 -294q-103 -265 -459 -265q-142 0 -240 69t-98 200t79 267l35 61l55 86l28 -13 q-91 -147 -91 -215q0 -111 99 -170q82 -50 214 -50t230 39q139 56 139 179q0 61 -27 124l-62 139q0 21 49 111l49 90q78 -112 124 -112z" />
<glyph unicode="&#x633;" horiz-adv-x="1041" arabic-form="initial" d="M967 487q0 -113 -45 -201q-56 -110 -158 -110t-165 128q-76 -167 -216 -167t-188 130q-41 -130 -145 -130h-74v235h74q81 0 123 23q41 23 94 94l8 -2q16 -115 102 -115q109 0 175 52t112 162l22 -13q0 -75 40 -127t100 -51q60 0 60 27q0 5 -33 35t-33 65l1 54l9 61 q6 47 30 119q107 -101 107 -269z" />
<glyph unicode="&#x633;" horiz-adv-x="1212" arabic-form="medial" d="M1258 137h-148q-81 0 -132 70q-30 43 -63 145q-61 -189 -172 -189q-89 0 -130 124q-67 -150 -236 -150q-135 0 -182 130q-57 -130 -145 -130h-74v235h74q81 0 123 23q41 23 94 94l8 -2q17 -115 109 -115q99 0 155 22q92 37 140 140l27 -6q0 -63 21.5 -93.5t73.5 -30.5 q91 0 120 124h25q37 -156 164 -156h148v-235z" />
<glyph unicode="&#x634;" horiz-adv-x="1719" arabic-form="final" d="M953 383q162 0 234 151l27 -6q0 -124 95 -124q86 0 118 124h25q37 -156 163 -156h149v-235h-149q-125 0 -192 215q-61 -189 -172 -189q-96 0 -131 124q-70 -150 -194 -150h-25q-24 -172 -72 -294q-103 -265 -459 -265q-142 0 -240 69t-98 200t79 267l35 61l55 86l28 -13 q-91 -147 -91 -215q0 -111 99 -170q82 -50 214 -50t230 39q139 56 139 179q0 61 -27 124l-62 139q0 21 49 111l49 90q78 -112 124 -112zM1323 944l-85 -141l-130 92l-65 -118l-141 105l87 139l126 -101l78 126zM1186 1145l-83 -142l-137 105l85 141z" />
<glyph unicode="&#x634;" horiz-adv-x="1041" arabic-form="initial" d="M967 487q0 -113 -45 -201q-56 -110 -158 -110t-165 128q-76 -167 -216 -167t-188 130q-41 -130 -145 -130h-74v235h74q81 0 123 23q41 23 94 94l8 -2q16 -115 102 -115q109 0 175 52t112 162l22 -13q0 -75 40 -127t100 -51q60 0 60 27q0 5 -33 35t-33 65l1 54l9 61 q6 47 30 119q107 -101 107 -269zM738 970l-85 -141l-130 91l-65 -118l-141 105l87 139l126 -101l77 127zM591 1179l-83 -142l-136 105l84 141z" />
<glyph unicode="&#x634;" horiz-adv-x="1219" arabic-form="medial" d="M1258 137h-148q-81 0 -132 70q-30 43 -63 145q-61 -189 -172 -189q-89 0 -130 124q-67 -150 -236 -150q-135 0 -182 130q-57 -130 -145 -130h-74v235h74q81 0 123 23q41 23 94 94l8 -2q17 -115 109 -115q99 0 155 22q92 37 140 140l27 -6q0 -63 21.5 -93.5t73.5 -30.5 q91 0 120 124h25q37 -156 164 -156h148v-235zM789 919l-85 -141l-130 91l-65 -118l-141 105l87 139l126 -100l77 126zM659 1128l-83 -142l-137 105l85 141z" />
<glyph unicode="&#x635;" horiz-adv-x="1873" arabic-form="final" d="M1644 528q0 39 -65 61t-113 22q-123 0 -252 -134q-42 -43 -79 -101q365 0 473 88q36 30 36 64zM992 19q-28 0 -28 64l6 54l-65 -2l-3 -35q-2 -13 -8 -39l-20 -74q-20 -79 -45 -144q-103 -265 -459 -265q-142 0 -240 69t-98 204q0 172 169 410l28 -13q-91 -147 -91 -215 q0 -111 99 -170q82 -50 214 -50t230 39q139 56 139 179q0 65 -44.5 157.5t-44.5 109.5t49 107l49 90l52 -79q36 -45 78 -44l31 1l67 5q213 463 480 463q93 0 149 -63q56 -64 56 -158t-32 -144t-150 -124l101 13l78 7h181v-235l-262 1l-110 3l-200 12l-115 -6l-86 -2 q-60 -1 -111 -8q-7 -13 -7 -19l-12 -41q-4 -17 -6 -19q0 -39 -19 -39z" />
<glyph unicode="&#x635;" horiz-adv-x="1306" arabic-form="initial" d="M1134 522q0 38 -66 58t-115 20q-103 0 -183 -65q-47 -39 -132 -150q113 0 275 30q221 41 221 107zM1232 600q0 -209 -264 -345q-201 -103 -447 -127l-7 -33q-11 -50 -16.5 -62.5t-17.5 -14.5t-20 16l-6 18l-3 24v24l7 37l-81 -2q-74 -2 -113.5 28t-68.5 104 q-60 -130 -145 -130h-74v235h74q81 0 123 23q41 23 94 94l8 -2q13 -115 98 -115h64l110 11q227 449 469 449q96 0 156 -68t60 -164z" />
<glyph unicode="&#x635;" horiz-adv-x="1369" arabic-form="medial" d="M1140 528q0 39 -65 61t-113 22q-123 0 -252 -134q-42 -43 -79 -101q364 0 473 88q36 30 36 64zM377 135q-135 0 -179 132q-56 -130 -145 -130h-74v235h74q81 0 123 23t95 94l8 -2q16 -118 108 -115l105 3l60 3q214 463 476 463q100 0 154.5 -61.5t54.5 -157.5 q1 -96 -37 -152t-141 -117l65 10q64 9 96 9h195v-235l-276 1l-100 3l-195 12l-116 -6l-85 -2q-60 -1 -112 -8l-24 -79q0 -37 -13 -38t-26 19l-7 20l-2 26v20l7 32l-44 -2h-45z" />
<glyph unicode="&#x636;" horiz-adv-x="1884" arabic-form="final" d="M1644 528q0 39 -65 61t-113 22q-123 0 -252 -134q-42 -43 -79 -101q365 0 473 88q36 30 36 64zM992 19q-28 0 -28 64l6 54l-65 -2l-3 -35q-2 -13 -8 -39l-20 -74q-20 -79 -45 -144q-103 -265 -459 -265q-142 0 -240 69t-98 204q0 172 169 410l28 -13q-91 -147 -91 -215 q0 -111 99 -170q82 -50 214 -50t230 39q139 56 139 179q0 65 -44.5 157.5t-44.5 109.5t49 107l49 90l52 -79q36 -45 78 -44l31 1l67 5q213 463 480 463q93 0 149 -63q56 -64 56 -158t-32 -144t-150 -124l101 13l78 7h181v-235l-262 1l-110 3l-200 12l-115 -6l-86 -2 q-60 -1 -111 -8q-7 -13 -7 -19l-12 -41q-4 -17 -6 -19q0 -39 -19 -39zM1524 1179l-83 -142l-137 105l85 141z" />
<glyph unicode="&#x636;" horiz-adv-x="1306" arabic-form="initial" d="M1134 522q0 38 -66 58t-115 20q-103 0 -183 -65q-47 -39 -132 -150q113 0 275 30q221 41 221 107zM1232 600q0 -209 -264 -345q-201 -103 -447 -127l-7 -33q-11 -50 -16.5 -62.5t-17.5 -14.5t-20 16l-6 18l-3 24v24l7 37l-81 -2q-74 -2 -113.5 28t-68.5 104 q-60 -130 -145 -130h-74v235h74q81 0 123 23q41 23 94 94l8 -2q13 -115 98 -115h64l110 11q227 449 469 449q96 0 156 -68t60 -164zM930 1170l-82 -142l-137 105l85 141z" />
<glyph unicode="&#x636;" horiz-adv-x="1371" arabic-form="medial" d="M1140 528q0 39 -65 61t-113 22q-123 0 -252 -134q-42 -43 -79 -101q364 0 473 88q36 30 36 64zM377 135q-135 0 -179 132q-56 -130 -145 -130h-74v235h74q81 0 123 23t95 94l8 -2q16 -118 108 -115l105 3l60 3q214 463 476 463q100 0 154.5 -61.5t54.5 -157.5 q1 -96 -37 -152t-141 -117l65 10q64 9 96 9h195v-235l-276 1l-100 3l-195 12l-116 -6l-85 -2q-60 -1 -112 -8l-24 -79q0 -37 -13 -38t-26 19l-7 20l-2 26v20l7 32l-44 -2h-45zM964 1119l-83 -142l-136 105l84 141z" />
<glyph unicode="&#x637;" horiz-adv-x="1314" arabic-form="final" d="M1061 515q1 35 -63 57t-107 22q-194 0 -312 -211h29l44 1h18q14 3 19 4l107 16q74 11 170 41t95 70zM1360 137h-196l-178 4l-224 12l-151 -5l-247 -11q-77 -4 -125.5 20t-91.5 84l-115 161l114 -18q132 -21 155 -19l89 6l72 7q32 82 32 163t-24 208l-46 239 q-25 133 -25 202q0 119 111 238q30 -55 53 -90l61 -93q-89 -116 -89 -196l11 -85l14 -95q12 -87 12 -132v-31l-1 -36l-3 -42q-2 -36 -8 -68l-13 -71q172 332 410 332q93 0 151 -58.5t58 -144.5t-26 -137t-87 -121l35 4l108 8h164v-235z" />
<glyph unicode="&#x637;" horiz-adv-x="983" arabic-form="initial" d="M804 517q0 33 -64 55t-105 22q-188 0 -313 -211h41q35 0 71 5l107 16q107 16 185 48t78 65zM909 611q0 -231 -284 -366q-228 -108 -486 -108h-164v235h229q22 54 26 81l5 36l2 43q4 82 -23 223l-47 241q-23 122 -23 194q0 119 111 238l53 -90l59 -93q-87 -122 -87 -202 l25 -174l7 -70l3 -62q4 -77 -26 -248q167 332 411 332q93 0 151 -58.5t58 -151.5z" />
<glyph unicode="&#x637;" horiz-adv-x="1069" arabic-form="medial" d="M817 517q1 33 -63 55t-106 22q-188 0 -313 -211h41q36 0 71 5l107 16q107 16 185 48t78 65zM1104 137h-204l-175 4l-218 12l-149 -5l-240 -11h-150v235h249q22 54 26 81l5 36l2 43q4 78 -23 220l-47 243l-17 108q-6 41 -6 87q0 119 111 238l53 -90l59 -93 q-86 -115 -86 -196l24 -177l7 -79l4 -56v-93l-6 -37q0 -18 -21 -118q168 332 411 332q93 0 151 -58.5t58 -151.5v-38q-2 -24 -21 -84q-23 -51 -88 -126l88 7l40 2h163v-235z" />
<glyph unicode="&#x638;" horiz-adv-x="1311" arabic-form="final" d="M1061 515q1 35 -63 57t-107 22q-194 0 -312 -211h29l44 1h18q14 3 19 4l107 16q74 11 170 41t95 70zM1360 137h-196l-178 4l-224 12l-151 -5l-247 -11q-77 -4 -125.5 20t-91.5 84l-115 161l114 -18q132 -21 155 -19l89 6l72 7q32 82 32 163t-24 208l-46 239 q-25 133 -25 202q0 119 111 238q30 -55 53 -90l61 -93q-89 -116 -89 -196l11 -85l14 -95q12 -87 12 -132v-31l-1 -36l-3 -42q-2 -36 -8 -68l-13 -71q172 332 410 332q93 0 151 -58.5t58 -144.5t-26 -137t-87 -121l35 4l108 8h164v-235zM922 1238l-83 -142l-137 105l85 141z " />
<glyph unicode="&#x638;" horiz-adv-x="983" arabic-form="initial" d="M804 517q0 33 -64 55t-105 22q-188 0 -313 -211h41q35 0 71 5l107 16q107 16 185 48t78 65zM909 611q0 -231 -284 -366q-228 -108 -486 -108h-174v235h239q22 54 26 81l5 36l2 43q4 82 -23 223l-47 241q-23 122 -23 194q0 119 111 238l53 -90l59 -93q-87 -122 -87 -202 l25 -174l7 -70l3 -62q4 -77 -26 -248q167 332 411 332q93 0 151 -58.5t58 -151.5zM652 1221l-83 -142l-137 105l85 141z" />
<glyph unicode="&#x638;" horiz-adv-x="1040" arabic-form="medial" d="M798 517q0 33 -64 55t-106 22q-187 0 -312 -211h41q35 0 71 5l107 16q107 16 185 48t78 65zM1085 137h-204l-175 4l-219 12l-148 -5l-241 -11h-129v235h229q22 54 26 81l5 36l2 43q4 78 -23 220l-47 243l-17 108q-6 41 -6 87q0 119 111 238l53 -90l59 -93 q-87 -115 -87 -196l25 -177l7 -79l3 -56v-93l-5 -37q0 -18 -21 -118q167 332 411 332q93 0 151 -58.5t58 -151.5v-38q-2 -24 -21 -84q-24 -51 -88 -126l88 7l40 2h163v-235zM685 1204l-83 -142l-137 105l85 141z" />
<glyph unicode="&#x639;" horiz-adv-x="951" arabic-form="final" d="M580 404q82 -32 209 -32h208v-235h-198q-132 0 -235 95l-108 101q-140 -46 -233 -138t-93 -226q0 -194 197 -306t527 -106l103 2h46q20 3 28 4l62 7l2 -26l-417 -209q-282 0 -450 117q-195 135 -195 405q1 161 65 277t245 268l-78 43l-95 42q62 280 297 280q94 1 162 -55 t68 -148t-117 -160z" />
<glyph unicode="&#x639;" horiz-adv-x="839" arabic-form="initial" d="M42 137h-74v235h74q72 0 116 36q-104 86 -104 144t64 162q154 248 293 248q105 0 242 -225l-72 26q-27 7 -90 7t-155 -21q-132 -30 -132 -84q0 -43 86 -97t134 -55q90 0 225 62l116 50l-6 -44l-22 -105q-8 -43 -28 -61t-64 -37l-90 -38q-85 -37 -158.5 -70t-217.5 -94 q-103 -39 -137 -39z" />
<glyph unicode="&#x639;" horiz-adv-x="648" arabic-form="medial" d="M695 137h-149q-49 0 -114 65l-124 124l-100 -95q-99 -94 -157 -94h-74v235h74q84 0 145 44l-64 36q-26 14 -103 43q48 287 287 287q100 0 176 -57t76 -154q0 -64 -29 -99t-95 -70l43 -20q20 -10 59 -10h149v-235z" />
<glyph unicode="&#x63a;" horiz-adv-x="954" arabic-form="final" d="M580 404q82 -32 209 -32h208v-235h-198q-132 0 -235 95l-108 101q-140 -46 -233 -138t-93 -226q0 -194 197 -306t527 -106l103 2h46q20 3 28 4l62 7l2 -26l-417 -209q-282 0 -450 117q-195 135 -195 405q1 161 65 277t245 268l-78 43l-95 42q62 280 297 280q94 1 162 -55 t68 -148t-117 -160zM523 1043l-83 -142l-136 105l85 141z" />
<glyph unicode="&#x63a;" horiz-adv-x="839" arabic-form="initial" d="M42 137h-74v235h74q72 0 116 36q-104 86 -104 144t64 162q154 248 293 248q105 0 242 -225l-72 26q-27 7 -90 7t-155 -21q-132 -30 -132 -84q0 -43 86 -97t134 -55q90 0 225 62l116 50l-6 -44l-22 -105q-8 -43 -28 -61t-64 -37l-90 -38q-85 -37 -158.5 -70t-217.5 -94 q-103 -39 -137 -39zM311 1272l-83 -142l-136 105l85 141z" />
<glyph unicode="&#x63a;" horiz-adv-x="648" arabic-form="medial" d="M695 137h-149q-49 0 -114 65l-124 124l-100 -95q-99 -94 -157 -94h-74v235h74q84 0 145 44l-64 36q-26 14 -103 43q48 287 287 287q100 0 176 -57t76 -154q0 -64 -29 -99t-95 -70l43 -20q20 -10 59 -10h149v-235zM396 1068l-83 -142l-136 105l84 141z" />
<glyph unicode="&#x641;" horiz-adv-x="1568" arabic-form="final" d="M1358 567q0 28 -39.5 66t-73.5 38q-33 0 -85 -42t-52 -75q0 -66 130 -113q120 65 120 126zM1614 137h-172q-173 0 -254 78q-389 -228 -745 -228q-190 0 -300.5 85.5t-110.5 227.5q0 91 36 169.5t129 195.5l31 -22q-76 -109 -76 -173q0 -102 124 -170t312 -62l114 4 q114 3 304 71q-27 46 -27 76q1 97 115 296t202 199q64 0 102 -104t37 -180q0 -120 -71 -207l48 -16q22 -5 42 -5h160v-235zM1323 1180l-83 -139l-137 100l85 141z" />
<glyph unicode="&#x641;" horiz-adv-x="511" arabic-form="initial" d="M156 826q-18 0 -31.5 -18t-13.5 -42t16.5 -43t46.5 -19t65 56q-45 66 -83 66zM437 502q0 -365 -395 -365h-74v235h74q323 0 323 108q0 17 -5 30l-40 96q-30 -72 -66 -102t-106 -30q-128 0 -128 117q0 36 24 165l21 94q48 212 155 212t171 -238q46 -176 46 -322zM287 1262 l-78 -141l-137 104l82 141z" />
<glyph unicode="&#x641;" horiz-adv-x="653" arabic-form="medial" d="M467 559q0 48 -40.5 84t-91.5 36t-89.5 -27.5t-38.5 -59.5t20 -59l33 -32l58 -47q149 43 149 105zM542 137q-163 0 -253 85q-76 -42 -121 -62l-60 -17q-23 -6 -62 -6h-74v235h74q20 0 53 13l25 12q-15 15 -19 25l-4 30q1 145 115 305t204 160q70 0 105 -116 q25 -81 25 -171q0 -131 -80 -228q11 -10 31 -21l20 -8l21 -1h148v-235h-148zM504 1180l-82 -139l-137 100l85 141z" />
<glyph unicode="&#x642;" horiz-adv-x="1024" arabic-form="final" d="M670 441q0 -68 120 -68h67q-41 113 -134 113q-53 0 -53 -45zM1071 137h-141q-24 -253 -188 -399t-381 -146q-329 0 -329 352q0 142 44 236t119 203l23 -27l-53 -92l-31 -67q-20 -40 -20 -112q0 -172 180 -225q57 -17 129 -17q217 0 332 75.5t115 218.5l-89 -41 q-29 -13 -69 -13t-117 45q-32 20 -32 138t81 298q59 128 144 128q79 0 124 -130q14 -42 43 -193l116 3v-235zM938 957l-84 -138l-129 91l-65 -118l-139 104l80 140l128 -101l79 126z" />
<glyph unicode="&#x642;" horiz-adv-x="574" arabic-form="initial" d="M219 826q-19 0 -32.5 -18t-13.5 -42t17.5 -43t47.5 -19t63 56q-45 66 -82 66zM500 502q0 -365 -396 -365h-134v235h134q324 0 324 108q0 17 -6 30l-40 96q-30 -72 -65 -102t-107 -30q-128 0 -128 117q0 36 24 165l22 94q46 212 154 212t171 -238q47 -176 47 -322z M467 1291l-85 -144l-130 91l-61 -117l-142 104l83 141l126 -101l78 128z" />
<glyph unicode="&#x642;" horiz-adv-x="653" arabic-form="medial" d="M418 540q0 45 -37 77t-83 32t-81 -24.5t-35 -54.5t18 -53l30 -28l53 -43q135 38 135 94zM678 372v-235h-193q-147 0 -228 76q-69 -37 -109 -55l-55 -15q-20 -6 -55 -6h-67v235h67q17 0 48 12l22 11q-14 13 -18 22l-3 27q-1 132 103 276t185 144q63 0 95 -105 q22 -73 22 -173t-72 -187q28 -25 65 -27h193zM554 1220l-84 -141l-130 89l-62 -115l-141 103l83 138l126 -97l77 124z" />
<glyph unicode="&#x643;" horiz-adv-x="1534" arabic-form="final" d="M592 298q238 0 435 58q47 9 86.5 39.5t39.5 57.5q0 65 -190 170q-234 129 -234 300q0 99 91 196q120 127 380 269q260 141 466 215q-41 -171 -61 -205q-21 -34 -112 -75l-221 -101q-174 -80 -328 -165t-155 -120q0 -8 43 -29t79 -44l175 -117q113 -75 171 -165 q42 -63 98 -160q21 -50 65 -50h152v-235h-148q-84 1 -126 45t-60 190q0 -174 -207 -260q-180 -75 -523 -75q-148 0 -240 23q-236 61 -236 318q0 101 16 157l99 117q-19 -35 -29 -70l-6 -29l-2 -31q-7 -102 119 -163q125 -61 363 -61z" />
<glyph unicode="&#x643;" horiz-adv-x="1024" arabic-form="initial" d="M71 930q1 -27 133 -96q132 -68 208 -176t77 -242q0 -165 -123 -231q-92 -48 -275 -48h-124v235h124q332 0 332 77q0 43 -127 117q-84 50 -166 84t-98 70q-14 36 -16 81l-3 73l-2 69q-2 67 20 103t91 73q347 193 754 296l74 19q-61 -135 -85 -170q-43 -66 -103 -84 l-295 -89q-396 -119 -396 -161z" />
<glyph unicode="&#x643;" horiz-adv-x="1004" arabic-form="medial" d="M1068 137h-142q-61 -1 -110 37q-50 38 -164 163t-174 185l17 -62l3 -44q20 -279 -335 -279h-202v235h202q125 0 176 10q93 17 93 72q0 64 -190 169q-234 129 -234 300q0 99 104 210q104 110 365 252q261 143 469 219q-45 -178 -64 -208q-19 -31 -110 -73l-221 -101 q-175 -78 -329 -164t-154 -121q0 -19 122 -73l107 -48q132 -59 291 -196l201 -173q87 -75 141 -75h138v-235z" />
<glyph unicode="&#x644;" horiz-adv-x="1076" arabic-form="final" d="M1118 137h-148q-125 0 -189 281q-1 -64 13 -216t14 -219q0 -219 -118 -338t-337 -119q-145 0 -233 74t-88 218q0 192 139 430l33 -20q-53 -101 -70 -149l-13 -51l-4 -55q-7 -83 67 -135t208 -51q134 0 226 39q126 53 126 170q0 43 -15 168l-30 260q-8 65 -15 199l-15 278 l-5 175q-2 65 13.5 112.5t64.5 115.5l33 45l6 -138q8 -322 14 -393t38 -258.5t137 -187.5h148v-235z" />
<glyph unicode="&#x644;" horiz-adv-x="455" arabic-form="initial" d="M298 1074v-38q3 -23 3.5 -34t14.5 -103l33 -220q19 -127 19 -231t-52 -197q-62 -114 -178 -114h-165v235h165q63 0 88.5 21t25.5 87t-26 221l-50 292q-28 162 -28 227t20 100t90 99q41 -89 122 -176q-46 -46 -64 -82t-18 -87z" />
<glyph unicode="&#x644;" horiz-adv-x="621" arabic-form="medial" d="M667 137h-148q-93 0 -143 84q-31 53 -55 168q-67 -252 -184 -252h-164v235h164q72 0 111 67t31 191l-5 84l-4 114l-19 247l-9 163l1 37q1 31 49 99q46 -52 62 -94t19 -148l3 -130l9 -217q5 -99 13 -147t31 -132q36 -134 90 -134h148v-235z" />
<glyph unicode="&#x645;" horiz-adv-x="892" arabic-form="final" d="M938 137h-151q-135 0 -190 43l2 -64q1 -34 -52 -93t-108 -59q-54 0 -131 100q-38 50 -48 68t-9 70q-156 -43 -153 -139l1 -39v-16l4 -27q3 -26 20 -109l74 -387l4 -46q-1 -38 -9 -57t-36 -44l-37 161q-45 192 -58 288l-22 165q-7 55 -7 126q0 144 48.5 230.5t172.5 154.5 q55 30 73 51t37 64q148 -134 221 -170t203 -36h151v-235z" />
<glyph unicode="&#x645;" horiz-adv-x="654" arabic-form="initial" d="M454 485q0 38 -34.5 66.5t-80.5 28.5t-78 -65l102 -54l25 -8q8 -3 34 -6q32 0 32 38zM-23 137v235h74q85 0 138 130l57 141q53 131 143 131q32 0 64.5 -24t55.5 -61q71 -117 71 -254q0 -75 -35 -138t-103 -63t-247 89q-53 -186 -144 -186h-74z" />
<glyph unicode="&#x645;" horiz-adv-x="855" arabic-form="medial" d="M467 372q0 52 -19 126t-58 75q-26 0 -55 -56l-44 -82l65 -60q62 -56 87 -56q24 1 24 53zM-28 137v235h76q47 0 104 40t101 117q44 76 62 96q38 44 84 44t112 -96q34 -51 84 -120q66 -81 142 -81h150v-235h-150q-50 0 -74.5 12.5t-55.5 52.5q-18 -139 -126 -139 q-79 0 -208 129l-79 86q-68 -141 -148 -141h-74z" />
<glyph unicode="&#x646;" horiz-adv-x="1032" arabic-form="final" d="M1078 137h-174q-17 -161 -99 -360t-436 -199q-142 0 -239 68t-97 218t167 397l32 -13q-58 -96 -76 -136t-19 -79q1 -108 93 -164t223 -56t228 39q140 55 140 179q0 70 -45 156l-35 65q-9 23 -10 46t50 110l51 87q36 -66 44 -77q33 -46 70 -46h132v-235zM630 633l-78 -140 l-136 105l79 139z" />
<glyph unicode="&#x646;" horiz-adv-x="378" arabic-form="initial" d="M226 1077l-82 -142l-137 105l85 141zM304 487q0 -141 -58 -236q-69 -114 -201 -114h-74v235h74q160 0 160 52q1 12 -39 58t-40 70t50 130l50 105q44 -99 61 -158t17 -142z" />
<glyph unicode="&#x646;" horiz-adv-x="446" arabic-form="medial" d="M320 869l-82 -142l-137 105l85 141zM494 137h-149q-55 0 -90 29t-61 99q-65 -128 -145 -128h-75v235h75q80 0 122 23t95 94l8 -2q16 -115 71 -115h149v-235z" />
<glyph unicode="&#x647;" horiz-adv-x="667" arabic-form="final" d="M365 493q0 17 -10 71l-6 36q-2 13 -9 39q-164 -92 -164 -137q0 -13 44 -29q49 -12 108 -12q37 0 37 32zM709 137h-148q-99 0 -141 89q-25 51 -41 178q-62 -88 -103 -127t-91 -39q-49 0 -101 30t-52 78t40 140q40 94 74 124t179 112l-9 55q-10 55 -10 61q0 41 104 145 l31 -189l49 -341q12 -81 71 -81h148v-235z" />
<glyph unicode="&#x647;" horiz-adv-x="812" arabic-form="initial" d="M667 383q1 37 -61 97t-113 93q-16 -99 -62 -155l127 -40l45 -9l37 -4q27 0 27 18zM414 538q0 35 -26 61t-62 26t-76 -25t-40 -62q0 -44 111 -82q93 28 93 82zM738 428q0 -78 -25 -151q-35 -101 -102 -101t-314 115q-163 -154 -251 -154h-74v235h74q35 0 67 10l32 9 q-16 22 -22 38l-4 34q0 66 82 169l67 82l-33 8l-25 2l-21 -1l-31 -6q20 97 39 135q35 73 101 73q66 1 173 -69t187 -184t80 -244z" />
<glyph unicode="&#x647;" horiz-adv-x="768" arabic-form="medial" d="M539 -65q0 84 -141 142q-95 38 -211 53q79 -273 228 -273q39 0 81 21t43 57zM474 559q0 25 -29.5 52.5t-54.5 27.5q-67 0 -168 -221q252 76 252 141zM600 -78q0 -98 -46 -188t-139 -90q-160 0 -244 276q-23 78 -46 217h-157v235h74l32 3l49 11l27 9q34 117 146 291 t200 173q40 0 56 -76t16 -137q0 -187 -170 -311q54 20 111 26l66 8l66 3h164v-235l-188 -1q-3 0 -30 -8l-48 -12q61 -96 61 -194z" />
<glyph unicode="&#x648;" horiz-adv-x="737" arabic-form="final" d="M419 428q0 -56 97 -56h75q-55 104 -113 104t-59 -48zM788 137h-161q-102 -528 -396 -528q-85 0 -149 28t-157 92l18 23q37 -12 52 -13l52 -4q17 -1 34 -1q294 0 496 403h-35q-99 0 -141 22q-58 31 -58 131q-1 100 69 254t133 153q41 0 68 -77q14 -40 21 -98l19 -150h135 v-235z" />
<glyph unicode="&#x649;" horiz-adv-x="1131" arabic-form="final" d="M1169 137h-260q-190 0 -190 -48q0 -13 11 -21l38 -16q142 -44 180 -65q101 -54 101 -144q-1 -125 -197 -231t-387 -105t-312 89t-121 248t59 317q24 61 54 126l32 -20q-37 -85 -51 -128t-14 -108q0 -153 133 -229q107 -63 267 -63q160 -1 300 31q141 32 141 67t-180 35 t-180 132q1 132 99 250t224 118h253v-235z" />
<glyph unicode="&#x64a;" horiz-adv-x="1131" arabic-form="final" d="M1169 137h-260q-190 0 -190 -48q0 -13 11 -21l38 -16q142 -44 180 -65q101 -54 101 -144q-1 -125 -197 -231t-387 -105t-312 89t-121 248t59 317q24 61 54 126l32 -20q-37 -85 -51 -128t-14 -108q0 -153 133 -229q107 -63 267 -63q160 -1 300 31q141 32 141 67t-180 35 t-180 132q1 132 99 250t224 118h253v-235z" />
<glyph unicode="&#x64a;" horiz-adv-x="535" arabic-form="initial" d="M461 -207l-85 -141l-131 92l-64 -118l-141 105l87 139l126 -101l77 126zM432 487q0 -141 -63 -245t-195 -105h-183v235h183q160 0 160 52q0 12 -40 58t-40 70t50 130l50 105q44 -99 61 -158t17 -142z" />
<glyph unicode="&#x64a;" horiz-adv-x="702" arabic-form="medial" d="M466 -217l-85 -141l-131 91l-64 -118l-141 105l87 139l126 -101l77 126zM725 137h-257q-56 0 -91 29t-61 99q-65 -128 -145 -128h-183v235h183q81 0 123 23t94 94l9 -2q16 -115 71 -115h257v-235z" />
<glyph unicode="&#xd;" horiz-adv-x="434" />
<glyph unicode=" "  horiz-adv-x="434" />
<glyph unicode="&#x09;" horiz-adv-x="434" />
<glyph unicode="&#xa0;" horiz-adv-x="434" />
<glyph unicode="!" horiz-adv-x="603" d="M402 148q0 -38 -29 -65t-67 -27t-65.5 26t-27.5 66t26.5 68.5t66.5 28.5t68 -29.5t28 -67.5zM209 1046q0 166 94 166t94 -164v-35q-2 -50 -18 -136l-36 -217q-17 -102 -18 -219l-1 -122h-43l-1 124l-4 112q0 58 -34 242q-34 185 -33 249z" />
<glyph unicode="%" horiz-adv-x="1003" d="M795 143q89 0 89 -91t-91 -91q-38 0 -67.5 25.5t-29.5 63.5t30 65.5t69 27.5zM806 1264l-541 -1405h-72l536 1405h77zM311 1086q0 -38 -27 -67t-66 -29t-66.5 28t-27.5 66t29 66.5t65 28.5t64.5 -27.5t28.5 -65.5z" />
<glyph unicode="(" horiz-adv-x="691" d="M569 1049q-346 -380 -346 -763t342 -801l-9 -15q-36 25 -52 37t-43 32l-66 55q-47 38 -113 119q-205 249 -205 553t192 542q34 43 113 124l68 57l101 75z" />
<glyph unicode=")" horiz-adv-x="674" d="M457 286q0 383 -347 763l18 15l101 -75l68 -57q80 -81 114 -124q191 -238 191 -542t-204 -553q-66 -81 -113 -119l-67 -55q-34 -26 -94 -69l-9 15q342 418 342 801z" />
<glyph unicode="*" horiz-adv-x="782" d="M384 557q-29 0 -40 -39q0 -14 12 -26t28 -12q38 0 38 38q0 16 -10 27.5t-28 11.5zM380 843q53 0 50 -62l-1 -24l-33 -166l28 -9l73 110l41 49q24 19 41 19q46 0 46 -46q0 -29 -78 -85l-58 -40l-45 -28q6 -4 18 -31l55 14l80 17q33 7 54 7q58 0 58 -48t-61 -48t-188 35 q-3 -19 -11 -33q176 -104 176 -157q0 -43 -46 -43q-32 0 -82 68q-10 13 -31 43l-42 67l-28 -13q0 -2 12 -61l16 -78l6 -45q0 -63 -48 -63t-48 61q0 31 6 59l13 59l18 68l-31 13l-55 -83q-40 -59 -61 -77t-42 -21q-38 0 -46 44q0 22 35 54q7 8 27 22l46 34l75 47l-14 33 q-124 -33 -185 -33q-62 0 -62 48t59 48l20 -2q11 0 32 -4l37 -7q14 -4 43 -11l56 -14q3 21 14 29l-69 44q-34 21 -74 56t-40 57q0 46 45 46t157 -180l33 14l-17 66l-14 61l-5 31l-1 31q-2 58 46 58z" />
<glyph unicode="+" horiz-adv-x="1003" d="M885 479h-340v-342h-89v342h-345v88h345v348h89v-348h340v-88z" />
<glyph unicode="," horiz-adv-x="603" d="M402 95q0 -174 -195 -344l-33 35q70 62 106 118t34 116l-1 23q-131 0 -131 108q0 41 30 69t74 28t76 -34t36 -66q4 -31 4 -53z" />
<glyph unicode="-" horiz-adv-x="1003" d="M885 479h-774v88h774v-88z" />
<glyph unicode="." horiz-adv-x="603" d="M397 150q0 -40 -26 -67t-66 -27t-66 27t-26 65t24.5 67.5t64.5 29.5t67.5 -27.5t27.5 -67.5z" />
<glyph unicode="/" horiz-adv-x="629" d="M538 1510l-401 -1657h-67l399 1657h69z" />
<glyph unicode="0" horiz-adv-x="1126" d="M750 534l-42 -165l-40 -174q-52 28 -153 90q-74 52 -140 110l28 112l19 69l57 178l134 -114z" />
<glyph unicode="&#x660;" horiz-adv-x="1126" d="M750 534l-42 -165l-40 -174q-52 28 -153 90q-74 52 -140 110l28 112l19 69l57 178l134 -114z" />
<glyph unicode="1" horiz-adv-x="1126" d="M778 460q0 -220 -60 -443h-37q0 103 -5 173q-18 248 -129 439q-62 105 -199 275l134 332q170 -218 233 -387t63 -389z" />
<glyph unicode="&#x661;" horiz-adv-x="1126" d="M778 460q0 -220 -60 -443h-37q0 103 -5 173q-18 248 -129 439q-62 105 -199 275l134 332q170 -218 233 -387t63 -389z" />
<glyph unicode="2" horiz-adv-x="1126" d="M697 343q0 -142 -41 -326h-39q-37 319 -107 494t-262 421l95 287q107 -113 164.5 -148.5t135.5 -35.5q183 0 183 171l45 5l6 -69l1 -75q2 -183 -47 -260.5t-194 -111.5q60 -210 60 -352z" />
<glyph unicode="&#x662;" horiz-adv-x="1126" d="M697 343q0 -142 -41 -326h-39q-37 319 -107 494t-262 421l95 287q107 -113 164.5 -148.5t135.5 -35.5q183 0 183 171l45 5l6 -69l1 -75q2 -183 -47 -260.5t-194 -111.5q60 -210 60 -352z" />
<glyph unicode="3" horiz-adv-x="1126" d="M1003 1069q0 -361 -214 -361q-68 0 -146 85q-33 -60 -62.5 -79t-98.5 -29q16 -54 35 -145l7 -59l2 -73l-3 -107q-3 -107 -69 -284h-37q0 337 -59 509t-236 385l104 312q68 -99 105 -134q70 -68 149 -68q160 0 203 196h38q12 -137 107 -137q107 0 134 137h35l5 -98 q1 -26 1 -50z" />
<glyph unicode="&#x663;" horiz-adv-x="1126" d="M1003 1069q0 -361 -214 -361q-68 0 -146 85q-33 -60 -62.5 -79t-98.5 -29q16 -54 35 -145l7 -59l2 -73l-3 -107q-3 -107 -69 -284h-37q0 337 -59 509t-236 385l104 312q68 -99 105 -134q70 -68 149 -68q160 0 203 196h38q12 -137 107 -137q107 0 134 137h35l5 -98 q1 -26 1 -50z" />
<glyph unicode="4" horiz-adv-x="1126" d="M315 226q0 119 215 320q-145 39 -199.5 76.5t-54.5 91.5q0 113 175 294q128 131 271 230l-41 -247q-46 -11 -108 -38t-62 -55q0 -37 182 -99q41 -13 67 -27t26 -35q0 -22 -81 -105l-71 -72l-56 -64q-46 -52 -46 -78q0 -55 140 -80q86 -15 178 -15l-85 -304l-41 4l-37 1 q-197 6 -285 56t-87 146z" />
<glyph unicode="&#x664;" horiz-adv-x="1126" d="M315 226q0 119 215 320q-145 39 -199.5 76.5t-54.5 91.5q0 113 175 294q128 131 271 230l-41 -247q-46 -11 -108 -38t-62 -55q0 -37 182 -99q41 -13 67 -27t26 -35q0 -22 -81 -105l-71 -72l-56 -64q-46 -52 -46 -78q0 -55 140 -80q86 -15 178 -15l-85 -304l-41 4l-37 1 q-197 6 -285 56t-87 146z" />
<glyph unicode="5" horiz-adv-x="1126" d="M603 495q189 0 189 57q0 37 -91 91q-167 100 -251 100q-108 0 -108 -110q0 -74 100 -111q73 -27 161 -27zM934 669q0 -85 -37 -198t-91 -169t-154 -92t-194 -36q-96 0 -181 55t-85 154q0 214 163 515q89 162 209 162t245 -123t125 -268z" />
<glyph unicode="&#x665;" horiz-adv-x="1126" d="M603 495q189 0 189 57q0 37 -91 91q-167 100 -251 100q-108 0 -108 -110q0 -74 100 -111q73 -27 161 -27zM934 669q0 -85 -37 -198t-91 -169t-154 -92t-194 -36q-96 0 -181 55t-85 154q0 214 163 515q89 162 209 162t245 -123t125 -268z" />
<glyph unicode="6" horiz-adv-x="1126" d="M623 513q0 93 17 243l-100 -18q-18 -3 -99 -3q-138 0 -189 50.5t-48 183.5l2 105q1 64 5 97l46 2q19 -61 64 -88q51 -23 149 -23t290 46q-41 -183 -41 -317t46 -240.5t156 -213.5l-45 -311q-142 80 -198 196t-55 291z" />
<glyph unicode="&#x666;" horiz-adv-x="1126" d="M623 513q0 93 17 243l-100 -18q-18 -3 -99 -3q-138 0 -189 50.5t-48 183.5l2 105q1 64 5 97l46 2q19 -61 64 -88q51 -23 149 -23t290 46q-41 -183 -41 -317t46 -240.5t156 -213.5l-45 -311q-142 80 -198 196t-55 291z" />
<glyph unicode="7" horiz-adv-x="1126" d="M992 1213l-12 -333q-76 -82 -114 -139t-94 -177q-54 -120 -86 -225q-32 -104 -70 -313h-46q-54 262 -171 473q-65 116 -112 178.5t-153 174.5l45 371q107 -87 163 -169t117 -247l86 -234l64 -190l62 255l21 71q106 341 150 401t150 103z" />
<glyph unicode="&#x667;" horiz-adv-x="1126" d="M992 1213l-12 -333q-76 -82 -114 -139t-94 -177q-54 -120 -86 -225q-32 -104 -70 -313h-46q-54 262 -171 473q-65 116 -112 178.5t-153 174.5l45 371q107 -87 163 -169t117 -247l86 -234l64 -190l62 255l21 71q106 341 150 401t150 103z" />
<glyph unicode="8" horiz-adv-x="1126" d="M991 391l-45 -372q-107 83 -154 153t-109 222q-62 153 -87 228l-81 239q-53 -247 -124 -460t-111 -270t-145 -100l9 332q73 79 111 135t97 185t88.5 229.5t68.5 304.5h43q36 -167 58 -227t54 -127l64 -120q51 -94 106 -169t157 -183z" />
<glyph unicode="&#x668;" horiz-adv-x="1126" d="M991 391l-45 -372q-107 83 -154 153t-109 222q-62 153 -87 228l-81 239q-53 -247 -124 -460t-111 -270t-145 -100l9 332q73 79 111 135t97 185t88.5 229.5t68.5 304.5h43q36 -167 58 -227t54 -127l64 -120q51 -94 106 -169t157 -183z" />
<glyph unicode="9" horiz-adv-x="1126" d="M493 969q-41 -1 -87 -21t-46 -54q0 -62 153 -62h13l42 1l47 12q-16 124 -122 124zM484 522q-105 0 -186 56t-81 157q0 190 118 380q75 121 215 121q104 0 146 -54q31 -38 43 -207l28 -394q14 -186 141 -258l-72 -310q-206 106 -206 533l-82 -19l-43 -5h-21z" />
<glyph unicode="&#x669;" horiz-adv-x="1126" d="M493 969q-41 -1 -87 -21t-46 -54q0 -62 153 -62h13l42 1l47 12q-16 124 -122 124zM484 522q-105 0 -186 56t-81 157q0 190 118 380q75 121 215 121q104 0 146 -54q31 -38 43 -207l28 -394q14 -186 141 -258l-72 -310q-206 106 -206 533l-82 -19l-43 -5h-21z" />
<glyph unicode=":" horiz-adv-x="516" d="M350 150q0 -40 -26.5 -67t-66.5 -27t-66 27t-26 65t24.5 67.5t64.5 29.5t68 -27.5t28 -67.5zM348 572q0 -40 -26.5 -67t-66.5 -27t-66 27t-26 65t24.5 67t64.5 29t68 -27t28 -67z" />
<glyph unicode="=" horiz-adv-x="1003" d="M886 384h-775v91h775v-91zM886 571h-775v91h775v-91z" />
<glyph unicode="[" horiz-adv-x="604" d="M538 -593h-420l-1 1699h420v-52h-306l1 -1595h306v-52z" />
<glyph unicode="]" horiz-adv-x="604" d="M117 -593v52h306l1 1595h-306v52h420l-1 -1699h-420z" />
<glyph unicode="{" horiz-adv-x="750" d="M294 -168q0 59 20 156t19 123q0 90 -59 153t-149 74v37q209 50 209 211q0 46 -19 143t-19 157q0 140 84.5 242.5t222.5 127.5v-38q-85 -14 -140 -74.5t-55 -145.5q0 -46 19 -156t19 -158q0 -216 -251 -324q248 -112 248 -338q1 -48 -19 -150t-20 -153q0 -174 199 -225 v-35q-138 27 -223.5 130t-85.5 243z" />
<glyph unicode="}" horiz-adv-x="783" d="M372 -281q0 51 -19 153t-19 150q0 226 248 338q-251 108 -251 324q0 48 19 158t19 156q0 85 -55 145.5t-140 74.5v38q138 -25 222 -127.5t84 -242.5q0 -60 -18 -157t-19 -143q0 -161 209 -211v-37q-90 -11 -149.5 -74t-59.5 -153q0 -26 20 -123t20 -156 q0 -140 -85.5 -243t-223.5 -130v35q198 51 198 225z" />
<glyph unicode="&#xab;" horiz-adv-x="789" d="M209 206q0 -196 225 -408l-6 -8q-21 11 -62 35l-44 28q-31 20 -74 61q-135 128 -135 283t126 276q22 22 75 63l45 30l67 38l11 -8q-228 -194 -228 -390zM469 205q0 -197 226 -407l-6 -8q-21 11 -62 35l-45 28q-30 20 -74 61q-135 128 -135 283t127 276q22 22 74 63l45 30 l67 38l12 -8q-229 -194 -229 -391z" />
<glyph unicode="&#xad;" horiz-adv-x="1003" d="M885 479h-774v88h774v-88z" />
<glyph unicode="&#xb7;" horiz-adv-x="434" d="M215 554q-83 0 -83 90t82 90t81 -91q0 -37 -22 -63t-58 -26z" />
<glyph unicode="&#x2d9;" horiz-adv-x="434" d="M215 554q-83 0 -83 90t82 90t81 -91q0 -37 -22 -63t-58 -26z" />
<glyph unicode="&#xbb;" horiz-adv-x="866" d="M660 206q0 196 -228 390l12 8l66 -38l45 -30q53 -41 75 -63q126 -121 126 -276t-135 -283q-43 -41 -74 -61l-44 -28q-41 -24 -62 -35l-6 8q225 212 225 408zM400 205q0 197 -229 391l12 8l67 -38l45 -30q52 -41 75 -63q126 -121 126 -276t-135 -283q-43 -41 -74 -61 l-44 -28q-42 -24 -63 -35l-6 8q226 210 226 407z" />
<glyph unicode="&#xd7;" horiz-adv-x="1003" d="M850 232l-61 -60l-294 291l-294 -291l-62 60l291 295l-291 294l66 60l290 -293l294 293l61 -60l-296 -294z" />
<glyph unicode="&#xf7;" horiz-adv-x="1003" d="M885 479h-774v88h774v-88zM582 228q0 -36 -26 -63.5t-63 -27.5t-63.5 26t-26.5 64t27.5 64.5t63.5 26.5t62 -27t26 -63zM582 818q0 -36 -25.5 -64t-63.5 -28t-64 27t-26 65t27 63t63 25t62.5 -26t26.5 -62z" />
<glyph unicode="&#x60c;" horiz-adv-x="603" d="M454 167q0 -46 -32 -77.5t-79 -31.5q-87 0 -131 80t-45 175q0 212 185 352l25 -35q-77 -84 -109 -148t-30 -130l2 -29q1 -43 27 -69l34 16q20 10 55 10t66.5 -33.5t31.5 -79.5z" />
<glyph unicode="&#x61b;" horiz-adv-x="603" d="M394 112q0 -40 -26 -67t-66 -27t-66 27t-26 65t25 67t64 29t67 -27t28 -67zM413 444q0 -46 -31.5 -77.5t-78.5 -31.5q-87 0 -131 80t-45 175q0 212 185 352l25 -35q-77 -84 -109 -148t-30 -130l1 -29q2 -43 28 -69l34 16q21 10 55 10t65.5 -33.5t31.5 -79.5z" />
<glyph unicode="&#x61f;" horiz-adv-x="699" d="M460 149q0 -39 -26 -66t-66 -27t-68.5 26.5t-28.5 66.5t26.5 68t66.5 28t68 -28.5t28 -67.5zM613 968q0 -62 -36 -114q-35 -52 -85 -53q-50 0 -76.5 28t-26.5 72t48 81l43 25q28 16 28 58q0 43 -38 69t-96 26q-57 0 -102.5 -43t-43.5 -110l1 -30q1 -35 30 -80l66 -135 q37 -74 61 -164t22 -149l-1 -32v-20q-3 -9 -4 -13l-8 -54h-32l1 45l5 35q0 90 -45 130l-102 92q-137 122 -137 277q0 121 82 207.5t193 86.5t182 -67t71 -168z" />
<glyph unicode="&#x621;" horiz-adv-x="675" d="M32 428q0 86 98 207t191 121q44 0 71 -40t27 -86q0 -121 -66 -121q-35 1 -75 69q-22 40 -46 39q-23 0 -48 -26q-20 -26 -20 -53q0 -70 95 -129t171 -59t171 41l-66 -149l-501 -211q29 83 54 121t74 57l61 23l-92 55q-29 19 -64 55t-35 86z" />
<glyph unicode="&#x622;" horiz-adv-x="514" d="M602 1495q-130 -214 -426 -148l-32 7l-36 4l-31 2l-25 -2q-18 -2 -72 -33l-19 17q42 113 124 127q39 7 111 -7q152 -31 227 -15l38 8l30 13q47 20 88 46zM320 190q0 154 -14 257l-84 508l-4 53q-2 42 20 82t101 126q0 -145 17 -253l25 -156l11 -96l11 -117q1 -38 3 -68 t5 -112t-52 -224h-39z" />
<glyph unicode="&#x623;" horiz-adv-x="422" d="M28 1460q0 45 51 105t99 60q48 1 49 -63q0 -64 -34 -64q-19 0 -34.5 28t-27.5 28t-23.5 -13.5t-11.5 -26.5q0 -37 48 -67t87.5 -30t88.5 21l-34 -77l-257 -108q15 43 27 63t39 28l31 12l-47 29q-51 30 -51 75zM239 182q0 154 -14 257l-85 508l-3 53q-3 42 19 82t102 126 q0 -145 17 -253l24 -156l12 -96l11 -117q0 -38 2 -68t6 -112q3 -82 -52 -224h-39z" />
<glyph unicode="&#x624;" horiz-adv-x="752" d="M322 1021q0 45 51 105t99 60t48 -64t-33 -63q-20 0 -35 28t-27 28t-23.5 -13.5t-11.5 -26.5q0 -37 48 -67t87.5 -30t88.5 21l-34 -77l-257 -108q15 42 27 62t39 29l31 12l-47 29q-51 30 -51 75zM483 541q-52 0 -52 -52q0 -59 70 -59l27 4q13 3 38 20q-21 87 -83 87z M692 374q0 -142 -37 -288q-111 -438 -383 -438q-68 0 -134 20t-178 73l20 27l39 -8q34 -6 52 -6q163 0 339 168q208 197 208 391v26q-60 -97 -124 -97t-96 48t-33 107q0 123 50 237t126 115q61 0 106 -116.5t45 -258.5z" />
<glyph unicode="&#x625;" horiz-adv-x="469" d="M149 -89q0 44 51.5 104t99.5 60q48 1 48 -63t-34 -64q-19 0 -35 28q-15 28 -27 28t-23.5 -13.5t-11.5 -26.5q0 -37 49 -67q50 -30 88 -30t88 21l-34 -77l-257 -108q14 43 27 63t38 28l31 12l-46 29q-52 32 -52 76zM210 182q0 154 -14 257l-84 508l-4 53q-2 42 20 82 t101 126q0 -145 17 -253l25 -156l11 -96l11 -117q1 -38 3 -68t5 -112t-52 -224h-39z" />
<glyph unicode="&#x626;" horiz-adv-x="1240" d="M1017 -84q-1 27 -133 27t-192 23q-88 34 -88 126q0 119 197 344q155 176 275 176q97 0 91 -89l-3 -49l-5 -37q-5 -35 -14 -86q-33 39 -121 39t-179 -50t-91 -124q0 -48 41 -70t149 -44t138 -41q50 -32 50 -99q0 -110 -122 -198t-302 -139t-326 -51q-145 0 -247 71 t-102 217q0 178 114 358q42 66 72 112l27 -17q-109 -184 -109 -264q0 -143 152 -214q115 -53 276 -53q88 0 270 40t182 92zM381 622q0 45 51.5 105.5t99.5 60.5t48 -64t-34 -63q-18 -1 -34 27t-28 28t-23.5 -13t-11.5 -27q1 -36 49 -66t87 -30.5t88 20.5l-33 -76l-258 -109 q15 43 28 63t38 29l31 12l-47 28q-51 30 -51 75z" />
<glyph unicode="&#x627;" horiz-adv-x="385" d="M210 182q0 154 -14 257l-84 508l-4 53q-2 42 20 82t101 126q0 -145 17 -253l25 -156l11 -96l11 -117q1 -38 3 -68t5 -112t-52 -224h-39z" />
<glyph unicode="&#x628;" horiz-adv-x="1484" d="M947 -178l-83 -142l-136 105l85 141zM1410 650q0 -60 -26 -164t-55 -147q-60 -89 -308 -155t-464 -66t-349 63q-176 84 -176 262q0 80 27.5 140.5t109.5 157.5l22 -17q-31 -56 -42 -82l-8 -28l-3 -30q0 -124 151 -178q103 -37 311 -37q208 1 466 61q259 60 259 135 q1 11 -45 57t-46 70q0 25 81 233q95 -131 95 -275z" />
<glyph unicode="&#x62a;" horiz-adv-x="1484" d="M874 961l-85 -141l-131 92l-64 -118l-141 105l87 139l126 -101l77 126zM1410 650q0 -60 -26 -164t-55 -147q-60 -89 -308 -155t-464 -66t-349 63q-176 84 -176 262q0 80 27.5 140.5t109.5 157.5l22 -17q-31 -56 -42 -82l-8 -28l-3 -30q0 -124 151 -178q103 -37 311 -37 q208 1 466 61q259 60 259 135q1 11 -45 57t-46 70q0 25 81 233q95 -131 95 -275z" />
<glyph unicode="&#x62b;" horiz-adv-x="1484" d="M907 970l-84 -141l-131 91l-64 -118l-141 105l87 139l126 -101l77 127zM786 1170l-83 -142l-136 105l84 141zM1410 650q0 -60 -26 -164t-55 -147q-60 -89 -308 -155t-464 -66t-349 63q-176 84 -176 262q0 80 27.5 140.5t109.5 157.5l22 -17q-31 -56 -42 -82l-8 -28 l-3 -30q0 -124 151 -178q103 -37 311 -37q208 1 466 61q259 60 259 135q1 11 -45 57t-46 70q0 25 81 233q95 -131 95 -275z" />
<glyph unicode="&#x62c;" horiz-adv-x="1078" d="M699 -669q-291 0 -462 108q-205 130 -205 404q0 378 378 624l-52 10l-72 12q-39 6 -96 6h-47l-57 -10l-41 -9l41 170l67 35l60 24q57 17 101 17t89 -8l218 -36l79 -10l73 -6h43l48 -3l43 -1l-35 -182l-107 -2q-30 -1 -125 -18q-196 -37 -350 -169q-154 -131 -154 -319 t200 -304t451 -116q36 0 73 3l78 5l122 4l132 10l3 -26l-445 -213h-51zM727 -30l-82 -142l-137 105l85 141z" />
<glyph unicode="&#x62d;" horiz-adv-x="1077" d="M699 -669q-291 0 -462 108q-205 130 -205 404q0 378 378 624l-52 10l-72 12q-39 6 -96 6h-47l-57 -10l-41 -9l41 170l67 35l60 24q57 17 101 17t89 -8l218 -36l79 -10l73 -6h43l48 -3l43 -1l-35 -182l-107 -2q-30 -1 -125 -18q-196 -37 -350 -169q-154 -131 -154 -319 t200 -304t451 -116q36 0 73 3l78 5l122 4l132 10l3 -26l-445 -213h-51z" />
<glyph unicode="&#x62e;" horiz-adv-x="1082" d="M699 -669q-291 0 -462 108q-205 130 -205 404q0 378 378 624l-52 10l-72 12q-39 6 -96 6h-47l-57 -10l-41 -9l41 170l67 35l60 24q57 17 101 17t89 -8l218 -36l79 -10l73 -6h43l48 -3l43 -1l-35 -182l-107 -2q-30 -1 -125 -18q-196 -37 -350 -169q-154 -131 -154 -319 t200 -304t451 -116q36 0 73 3l78 5l122 4l132 10l3 -26l-445 -213h-51zM515 1068l-83 -142l-137 105l85 141z" />
<glyph unicode="&#x62f;" horiz-adv-x="710" d="M636 447q0 -174 -95 -240q-120 -83 -356 -83h-15l-63 1l-75 10l45 267h24l26 -2h24l28 -3q149 -10 291 20q90 19 90 65q0 60 -143 149q-68 42 -224 118l104 253q127 -85 191 -157q148 -168 148 -398z" />
<glyph unicode="&#x630;" horiz-adv-x="710" d="M636 447q0 -174 -95 -240q-120 -83 -356 -83h-15l-63 1l-75 10l45 267h24l26 -2h24l28 -3q149 -10 291 20q90 19 90 65q0 60 -143 149q-68 42 -224 118l104 253q127 -85 191 -157q148 -168 148 -398zM337 1314l-83 -142l-137 105l85 141z" />
<glyph unicode="&#x631;" horiz-adv-x="754" d="M679 158q0 -164 -94 -332q-111 -198 -284 -198q-111 0 -269 107l14 31l42 -10l37 -2q142 -8 309 138t167 269q0 62 -86 153t-86 125t21 115l32 122q101 -114 149 -234t48 -284z" />
<glyph unicode="&#x632;" horiz-adv-x="754" d="M679 158q0 -164 -94 -332q-111 -198 -284 -198q-111 0 -269 107l14 31l42 -10l37 -2q142 -8 309 138t167 269q0 62 -86 153t-86 125t21 115l32 122q101 -114 149 -234t48 -284zM481 975l-83 -142l-137 105l85 141z" />
<glyph unicode="&#x633;" horiz-adv-x="1540" d="M1466 482q0 -110 -46 -197q-56 -109 -156 -109q-64 0 -98 31t-70 97q-38 -82 -80 -124t-115 -43q-24 -172 -72 -294q-103 -265 -459 -265q-142 0 -240 69t-98 204q0 66 27 143t63 136l79 131l28 -13q-91 -147 -91 -215q0 -111 99 -170q82 -50 214 -50t230 39 q139 56 139 179q0 64 -44.5 156.5t-44.5 110.5t49 107l49 90q34 -50 60 -81t51 -31q127 0 222 203l23 -13q0 -74 40 -126q39 -52 101 -52t62 29l-35 33q-35 26 -35 65q0 83 39 234q109 -97 109 -274z" />
<glyph unicode="&#x634;" horiz-adv-x="1540" d="M1466 482q0 -110 -46 -197q-56 -109 -156 -109q-64 0 -98 31t-70 97q-38 -82 -80 -124t-115 -43q-24 -172 -72 -294q-103 -265 -459 -265q-142 0 -240 69t-98 204q0 66 27 143t63 136l79 131l28 -13q-91 -147 -91 -215q0 -111 99 -170q82 -50 214 -50t230 39 q139 56 139 179q0 64 -44.5 156.5t-44.5 110.5t49 107l49 90q34 -50 60 -81t51 -31q127 0 222 203l23 -13q0 -74 40 -126q39 -52 101 -52t62 29l-35 33q-35 26 -35 65q0 83 39 234q109 -97 109 -274zM1273 919l-85 -141l-130 91l-65 -118l-141 105l87 139l126 -100l77 126z M1151 1119l-82 -142l-137 105l85 141z" />
<glyph unicode="&#x635;" horiz-adv-x="1807" d="M1636 522q0 38 -67 58t-134 20t-127 -41t-169 -174q114 0 275 30q222 41 222 107zM1733 598q0 -209 -263 -344q-200 -103 -445 -126l-7 -18q-13 -65 -18 -78q-6 -13 -16 -14t-18 17t-9 41l-1 24l3 28l-58 9q-24 -172 -72 -294q-103 -265 -459 -265q-142 0 -240 69 t-98 204q0 180 169 410l28 -13q-91 -147 -91 -215q0 -111 99 -170q82 -50 214 -50t230 39q139 56 139 179q0 65 -44.5 157.5t-44.5 108.5t49 107l49 91l52 -79q35 -44 78 -44h36l19 3q11 0 34 8q227 449 476 449q93 0 151 -70t58 -164z" />
<glyph unicode="&#x636;" horiz-adv-x="1807" d="M1636 522q0 38 -67 58t-134 20t-127 -41t-169 -174q114 0 275 30q222 41 222 107zM1733 598q0 -209 -263 -344q-200 -103 -445 -126l-7 -18q-13 -65 -18 -78q-6 -13 -16 -14t-18 17t-9 41l-1 24l3 28l-58 9q-24 -172 -72 -294q-103 -265 -459 -265q-142 0 -240 69 t-98 204q0 180 169 410l28 -13q-91 -147 -91 -215q0 -111 99 -170q82 -50 214 -50t230 39q139 56 139 179q0 65 -44.5 157.5t-44.5 108.5t49 107l49 91l52 -79q35 -44 78 -44h36l19 3q11 0 34 8q227 449 476 449q93 0 151 -70t58 -164zM1397 1153l-83 -142l-137 105l85 141z " />
<glyph unicode="&#x637;" horiz-adv-x="1240" d="M1062 515q0 35 -64 57t-105 22q-191 0 -313 -211h41q35 0 71 5l107 16q75 11 169 41t94 70zM547 489q173 332 413 332q90 0 148 -58.5t58 -151.5q0 -232 -284 -367q-227 -107 -486 -107q-116 -1 -176 45t-188 220q53 -13 148 -30l56 -5l67 -2q39 -2 83 4l76 9 q22 53 26 80l5 35l2 39v12q0 71 -25 211l-46 238l-17 109q-6 41 -6 88q0 119 111 238l53 -90l60 -93q-87 -115 -87 -202l24 -173q10 -78 10 -133v-47l-1 -32l-3 -38q-1 -19 -6 -64q-6 -25 -15 -67z" />
<glyph unicode="&#x638;" horiz-adv-x="1240" d="M1062 515q0 35 -64 57t-105 22q-191 0 -313 -211h41q35 0 71 5l107 16q75 11 169 41t94 70zM547 489q173 332 413 332q90 0 148 -58.5t58 -151.5q0 -232 -284 -367q-227 -107 -486 -107q-116 -1 -176 45t-188 220q53 -13 148 -30l56 -5l67 -2q39 -2 83 4l76 9 q22 53 26 80l5 35l2 39v12q0 71 -25 211l-46 238l-17 109q-6 41 -6 88q0 119 111 238l53 -90l60 -93q-87 -115 -87 -202l24 -173q10 -78 10 -133v-47l-1 -32l-3 -38q-1 -19 -6 -64q-6 -25 -15 -67zM922 1272l-83 -142l-137 105l85 141z" />
<glyph unicode="&#x639;" horiz-adv-x="958" d="M32 -128q0 157 66 291q43 88 168 253q-82 19 -118 53.5t-36 75.5t9 85t106 234q63 125 162 125t229 -137l-119 -15q-155 -19 -225 -75t-70 -97q0 -82 205 -127q204 122 362 172q-88 -174 -138 -228t-156 -93q-335 -123 -335 -393q0 -203 216 -331t568 -128q67 0 181 9 l2 -33l-437 -178q-264 0 -452 141t-188 396z" />
<glyph unicode="&#x63a;" horiz-adv-x="955" d="M32 -128q0 157 66 291q43 88 168 253q-82 19 -118 53.5t-36 75.5t9 85t106 234q63 125 162 125t229 -137l-119 -15q-155 -19 -225 -75t-70 -97q0 -82 205 -127q204 122 362 172q-88 -174 -138 -228t-156 -93q-335 -123 -335 -393q0 -203 216 -331t568 -128q67 0 181 9 l2 -33l-437 -178q-264 0 -452 141t-188 396zM354 1263l-83 -142l-137 105l85 141z" />
<glyph unicode="&#x640;" horiz-adv-x="432" d="M480 137h-515v235h515v-235z" />
<glyph unicode="&#x641;" horiz-adv-x="1516" d="M1181 938q-46 0 -46 -46t50 -47q40 0 72 54q-47 39 -76 39zM1162 599q-143 0 -143 137q0 72 29 150t55 147q50 137 128 137q110 0 170 -255q41 -175 41 -335t-78 -229q-129 -115 -378 -191t-515 -76q-190 0 -303 72q-136 87 -136 265q0 92 28 156t96 157l25 -20 q-56 -108 -56 -156q0 -116 162 -173q115 -41 295 -41t442 68q357 92 357 249q0 43 -31 105q-36 -85 -74 -126t-114 -41zM1181 1366l-81 -142l-136 105l84 141z" />
<glyph unicode="&#x642;" horiz-adv-x="1101" d="M730 460q-55 0 -55 -55t57 -55q43 0 94 43q-56 67 -96 67zM1038 175q0 -249 -172 -422t-439 -173q-183 0 -289 89t-106 285t161 445l25 -15q-54 -112 -72 -168t-17 -124q0 -269 372 -269q188 0 318 74q69 39 105 89t34 79l-1 23l-8 33l-28 51q-36 -45 -91 -76t-112 -31 t-100 49t-43 134t39 205q77 235 178 235q33 0 71.5 -32.5t67.5 -86.5q107 -196 107 -394zM961 953l-83 -139l-131 91l-65 -117l-141 105l84 136l124 -97l82 124z" />
<glyph unicode="&#x644;" horiz-adv-x="960" d="M886 -24q0 -228 -136 -342t-342 -113q-156 -1 -266 73t-110 223q0 193 137 384q21 30 49 67l27 -25q-65 -99 -84 -141t-19 -107q0 -104 103 -161q85 -48 219 -48t270 70q51 26 68.5 58t17.5 91q0 280 -73 573q-5 19 -47.5 171.5t-42.5 209.5q0 86 103 164q41 -69 61 -96 l27 -34l36 -36q-66 -66 -66 -147q0 -48 17 -188l33 -270q18 -148 18 -376z" />
<glyph unicode="&#x645;" horiz-adv-x="717" d="M353 832q101 0 195 -143t94 -233t-84 -224l-100 12l-81 4q-113 7 -200 -31q-75 -31 -75 -80q0 -22 42 -151l79 -246q42 -143 42 -212t-53 -134q-13 113 -60 280l-81 285q-39 138 -39 208q0 184 98 246q75 48 274 48q-72 106 -144 106q-53 0 -123 -80l-53 8 q52 173 110 255t159 82z" />
<glyph unicode="&#x646;" horiz-adv-x="907" d="M833 98q0 -192 -131 -319t-335 -127q-135 0 -235 72t-100 198q0 125 32 208t113 220l31 -20q-79 -134 -79 -228t99 -148q81 -45 194 -45q112 0 226 50t114 126q0 55 -83.5 168.5t-83.5 148.5q0 64 82 209q156 -215 156 -513zM469 702l-83 -137l-137 100l85 141z" />
<glyph unicode="&#x647;" horiz-adv-x="582" d="M211 623q-40 0 -70.5 -31t-30.5 -73q0 -97 137 -97q74 0 190 52q-119 149 -226 149zM508 489q0 -136 -61 -235q-73 -119 -213 -119q-96 -1 -149 65t-53 165q0 183 125 430q69 135 138 135q101 0 164 -172q49 -133 49 -269z" />
<glyph unicode="&#x648;" horiz-adv-x="766" d="M483 541q-52 0 -52 -52q0 -59 70 -59l27 4q13 3 38 20q-21 87 -83 87zM692 374q0 -142 -37 -288q-111 -438 -383 -438q-68 0 -134 20t-178 73l20 27l39 -8q34 -6 52 -6q163 0 339 168q208 197 208 391v26q-60 -97 -124 -97t-96 48t-33 107q0 123 50 237t126 115 q61 0 106 -116.5t45 -258.5z" />
<glyph unicode="&#x649;" horiz-adv-x="1242" d="M1017 -84q-1 27 -133 27t-192 23q-88 34 -88 126q0 119 197 344q155 176 275 176q97 0 91 -89l-3 -49l-5 -37q-5 -35 -14 -86q-33 39 -121 39t-179 -50t-91 -124q0 -48 41 -70t149 -44t138 -41q50 -32 50 -99q0 -110 -122 -198t-302 -139t-326 -51q-145 0 -247 72 t-102 216q0 178 114 358q42 66 72 112l27 -17q-109 -184 -109 -264q0 -143 152 -214q115 -53 276 -53q88 0 270 40t182 92z" />
<glyph unicode="&#x64b;" d="M126 1372q-33 0 -33 14t2 16l25 21l27 29l27 40q13 21 23 21l21 -6q22 -5 45 -5h309q31 0 33 -16q0 -14 -2 -16l-24 -21q-28 -24 -46 -56t-32 -32l-65 11h-310zM605 1700q0 -10 -2 -15l-22 -21q-23 -16 -47 -52t-32 -36t-22 6l-44 5h-310q-33 -1 -33 15t27 36l27 30 l27 39q10 20 20 20q10 1 27 -5q16 -6 42 -6h309q33 0 33 -16z" />
<glyph unicode="&#x64c;" d="M396 1636q-28 0 -30 -34t33 -62q29 32 31 52q4 44 -34 44zM289 1593q0 110 107 110q46 0 76.5 -32t30.5 -80t-53 -105l51 -37l-55 -32l-40 28q-71 -73 -116 -73q-44 0 -78 37.5t-48 37.5t-31.5 -24.5t-23.5 -24.5q-16 0 -16 26t27.5 60.5t53.5 34.5q26 1 58 -37t54 -38 q24 0 63 43q-60 38 -60 106z" />
<glyph unicode="&#x64d;" d="M531 -976q33 0 33 -13t-2 -17l-52 -50l-27 -39q-8 -18 -23 -22l-21 6q-21 5 -45 5h-309q-33 0 -33 14t2 17l25 22q25 23 45 56q20 32 32 32l66 -11h309zM462 -901l-68 10h-309q-33 -1 -33 13t2 18l25 22l27 29q4 4 22 31t27 27q8 0 22 -5l45 -5h309q33 1 33 -15t-26 -36 l-28 -30l-27 -38q-11 -21 -21 -21z" />
<glyph unicode="&#x64e;" d="M572 1716q33 0 33 -14t-2 -18l-24 -21l-28 -28q-13 -13 -25 -36t-25 -23q-7 0 -21 6l-44 5h-310q-32 0 -33 14q0 13 2 15l25 21l54 70q10 20 20 20q10 1 27 -5q16 -6 42 -6h309z" />
<glyph unicode="&#x64f;" d="M271 1540q29 24 30 49q3 47 -33 47q-28 0 -30 -36t33 -60zM375 1604q0 -37 -11 -63q-20 -31 -41 -55l49 -37l-53 -32l-39 27l-69 -58q-27 -22 -62 -38l-40 -18q-16 0 -16 15v30q0 20 25 27q21 9 55.5 35.5t52.5 48.5q-33 22 -51 49q-14 26 -15 66t30 71t78 31t77 -31 t30 -68z" />
<glyph unicode="&#x650;" d="M127 -1009q-33 0 -33 13t3 17l52 51q3 4 22 31t27 27t22 -5l44 -5h310q32 0 32 -16t-26 -35l-28 -30l-26 -38q-12 -21 -23 -21l-66 11h-310z" />
<glyph unicode="&#x651;" d="M684 1569v-74q0 -166 -183 -166h-12q-69 0 -99 30q-39 -30 -130 -30q-91 1 -129 45t-38 149v156q0 27 13 30q8 -7 23 -24t35 -35l43 -34q15 -9 19 -19q-5 -5 -13 -28v-46q0 -46 12.5 -60t45.5 -14q58 0 58 67v163q0 27 13 30q7 -6 9 -9l60 -57l35 -29q13 -7 15 -17 q-12 -27 -12 -28v-74q0 -46 59 -46q33 0 44 13.5t11 60.5v156q0 27 14 30l22 -21q0 -4 37 -38l42 -34q15 -9 17 -19q-11 -27 -11 -28z" />
<glyph unicode="&#x652;" d="M196 1635q-32 1 -32 -31t32 -35q29 0 31 33q1 33 -31 33zM300 1602q0 -42 -31 -72.5t-73 -30.5t-72.5 30.5t-30.5 74.5t29 73.5t72 29.5t74.5 -31.5t31.5 -73.5z" />
<glyph unicode="&#x67e;" horiz-adv-x="1484" d="M1026 -234l-85 -141l-130 91l-65 -118l-141 105l87 139l126 -101l78 126zM964 -441l-83 -142l-136 105l84 141zM1410 650q0 -60 -26 -164t-55 -147q-60 -89 -308 -155t-464 -66t-349 63q-176 84 -176 262q0 80 27.5 140.5t109.5 157.5l22 -17q-31 -56 -42 -82l-8 -28 l-3 -30q0 -124 151 -178q103 -37 311 -37q208 1 466 61q259 60 259 135q1 11 -45 57t-46 70q0 25 81 233q95 -131 95 -275z" />
<glyph unicode="&#x686;" horiz-adv-x="1082" d="M699 -669q-291 0 -462 108q-205 130 -205 404q0 378 378 624l-52 10l-72 12q-39 6 -96 6h-47l-57 -10l-41 -9l41 170l67 35l60 24q57 17 101 17t89 -8l218 -36l79 -10l73 -6h43l48 -3l43 -1l-35 -182l-107 -2q-30 -1 -125 -18q-196 -37 -350 -169q-154 -131 -154 -319 t200 -304t451 -116q36 0 73 3l78 5l122 4l132 10l3 -26l-445 -213h-51zM823 46l-85 -141l-131 91l-64 -118l-141 105l87 139l126 -101l77 126zM752 -178l-83 -142l-136 105l84 141z" />
<glyph unicode="&#x698;" horiz-adv-x="754" d="M679 158q0 -164 -94 -332q-111 -198 -284 -198q-111 0 -269 107l14 31l42 -10l37 -2q142 -8 309 138t167 269q0 62 -86 153t-86 125t21 115l32 122q101 -114 149 -234t48 -284zM619 1046l-85 -141l-130 91l-65 -117l-141 105l87 138l126 -100l78 126zM489 1255l-82 -142 l-137 105l85 141z" />
<glyph unicode="&#x6af;" horiz-adv-x="1573" d="M1093 1388q-192 -58 -389 -138q6 56 91 128q355 198 731 280q-46 -96 -53 -105q-42 -63 -99 -81zM1031 456q1 42 -105 104t-188 97q-82 34 -98 70q-14 36 -16 81l-3 73l-2 69q-2 66 20 102t91 74q347 193 754 296l74 19q-61 -135 -85 -171q-43 -66 -102 -83l-296 -90 q-396 -119 -396 -161q0 -28 133 -96t209 -176t76 -248q0 -141 -94 -207q-43 -29 -139 -43t-163 -23q-25 -8 -279 -8t-274 3q-116 19 -116 108v22q0 59 58 231l31 -6q6 -66 87 -85q201 -9 364 -10l89 -1h39l249 19q56 13 69 18t13 22z" />
<glyph unicode="&#x2000;" horiz-adv-x="1117" />
<glyph unicode="&#x2001;" horiz-adv-x="2234" />
<glyph unicode="&#x2002;" horiz-adv-x="1117" />
<glyph unicode="&#x2003;" horiz-adv-x="2234" />
<glyph unicode="&#x2004;" horiz-adv-x="744" />
<glyph unicode="&#x2005;" horiz-adv-x="558" />
<glyph unicode="&#x2006;" horiz-adv-x="372" />
<glyph unicode="&#x2007;" horiz-adv-x="372" />
<glyph unicode="&#x2008;" horiz-adv-x="279" />
<glyph unicode="&#x2009;" horiz-adv-x="446" />
<glyph unicode="&#x200a;" horiz-adv-x="124" />
<glyph unicode="&#x200c;" horiz-adv-x="45" />
<glyph unicode="&#x200d;" horiz-adv-x="45" />
<glyph unicode="&#x200e;" horiz-adv-x="35" d="M35 1209v-1209h-35v1242h165l-63 63l26 24l102 -105l-102 -104l-26 22l67 67h-134z" />
<glyph unicode="&#x200f;" horiz-adv-x="35" d="M35 0h-35v1209h-135l66 -67l-22 -22l-107 104l107 105l22 -24l-63 -63h167v-1242z" />
<glyph unicode="&#x2010;" horiz-adv-x="1003" d="M885 479h-774v88h774v-88z" />
<glyph unicode="&#x2011;" horiz-adv-x="1003" d="M885 479h-774v88h774v-88z" />
<glyph unicode="&#x2012;" horiz-adv-x="1003" d="M885 479h-774v88h774v-88z" />
<glyph unicode="&#x2013;" horiz-adv-x="1253" d="M1135 479h-1024v88h1024v-88z" />
<glyph unicode="&#x2014;" horiz-adv-x="2277" d="M2159 479h-2048v88h2048v-88z" />
<glyph unicode="&#x2018;" horiz-adv-x="464" d="M323 1230q0 -42 -29.5 -70t-71.5 -28q-67 0 -98 64q-20 39 -20 89q0 172 195 344l33 -35q-70 -62 -106 -118t-34 -116l1 -23q130 0 130 -107z" />
<glyph unicode="&#x2019;" horiz-adv-x="464" d="M112 1532q0 42 30 69.5t72 27.5q66 0 98 -63q20 -40 20 -89q0 -173 -195 -345l-33 35q70 63 106 119t34 115l-1 24q-131 0 -131 107z" />
<glyph unicode="&#x201c;" horiz-adv-x="651" d="M287 1219q0 -42 -30 -70t-72 -28q-66 0 -98 64q-20 39 -20 89q0 172 195 344l33 -35q-71 -63 -107 -119t-33 -115l1 -23q131 0 131 -107zM573 1219q0 -42 -30 -70t-72 -28q-66 0 -98 64q-20 39 -20 89q0 172 195 344l33 -35q-69 -63 -105 -119t-35 -115l1 -23 q131 0 131 -107z" />
<glyph unicode="&#x201d;" horiz-adv-x="651" d="M362 1521q0 42 29.5 69.5t72.5 27.5q66 0 98 -63q19 -40 19 -89q0 -173 -195 -345l-33 35q71 62 107 118t33 116l-1 24q-130 0 -130 107zM76 1521q0 42 29.5 69.5t71.5 27.5q67 0 98 -63q20 -40 20 -89q0 -173 -195 -345l-33 35q71 62 107 118t33 116l-1 24 q-130 0 -130 107z" />
<glyph unicode="&#x202f;" horiz-adv-x="446" />
<glyph unicode="&#x2039;" horiz-adv-x="654" d="M268 206q0 -196 225 -408l-6 -8q-21 11 -62 35l-44 28q-31 20 -74 61q-136 128 -136 283t127 276q22 22 75 63l44 30l67 38l12 -8q-228 -194 -228 -390z" />
<glyph unicode="&#x203a;" horiz-adv-x="654" d="M400 205q0 197 -229 391l12 8l67 -38l45 -30q52 -41 75 -63q126 -121 126 -276t-135 -283q-43 -41 -74 -61l-44 -28q-42 -24 -63 -35l-6 8q226 210 226 407z" />
<glyph unicode="&#x205f;" horiz-adv-x="558" />
<glyph unicode="&#x25fc;" horiz-adv-x="500" d="M0 0v0v0v0v0z" />
<glyph unicode="&#xe820;" d="M581 1284q33 0 33 -14t-2 -18l-24 -21l-28 -28q-12 -13 -24 -36t-26 -23q-7 0 -21 6l-44 5h-310q-32 0 -33 14q0 13 2 15l25 21l54 70q11 20 21 20q10 1 26 -5t42 -6h309z" />
<glyph unicode="&#xe821;" d="M288 1147q29 24 30 49q3 47 -33 47q-28 -1 -30 -37t33 -59zM392 1211q0 -37 -11 -63q-20 -31 -41 -55l49 -37l-53 -32l-39 27l-69 -58q-27 -22 -62 -38l-40 -18q-16 0 -16 15v30q0 20 25 27q21 9 55 35t53 49q-33 22 -51 49q-14 26 -15 66t30 71t78 31t77 -31t30 -68z " />
<glyph unicode="&#xe822;" d="M170 1225q-32 1 -32 -31t32 -35q29 0 31 33q1 33 -31 33zM274 1192q0 -42 -30 -72t-74 -31q-42 1 -72 31t-31 74q0 44 29 74t72 29q42 0 74 -31q32 -32 32 -74z" />
<glyph unicode="&#xe823;" d="M117 957q-33 -1 -33 13t2 17l25 21l27 29l27 40q13 21 23 21l21 -6q22 -5 45 -5h309q31 0 33 -16q0 -14 -2 -16l-24 -21q-28 -24 -46 -56t-32 -32l-65 11h-310zM596 1285q0 -10 -2 -15l-22 -21q-22 -16 -46 -52t-33 -36q-8 0 -22 6l-44 5h-310q-33 0 -33 16t27 35l27 30 l27 39q11 20 21 20t26 -6t42 -5h309q33 0 33 -16z" />
<glyph unicode="&#xe824;" d="M448 1239q-28 0 -30 -34t33 -62q29 31 31 51q4 44 -34 45zM341 1196q0 110 107 110q46 0 76 -32t31 -80q0 -48 -53 -105l51 -37l-55 -32l-40 28q-71 -73 -116 -73q-44 -1 -78 37t-48 38t-32 -24t-23 -25q-16 -1 -16 25t27 61q28 35 54 35t58 -38t54 -37q24 0 63 43 q-60 38 -60 106z" />
<glyph unicode="&#xe825;" d="M684 1141v-74q0 -166 -183 -166h-12q-69 0 -99 30q-39 -30 -130 -30q-91 1 -129 45t-38 149v156q0 27 13 30q8 -7 23 -24t35 -35l43 -34q15 -9 19 -19q-5 -5 -13 -28v-46q1 -46 13 -60t45 -14q58 0 58 67v163q0 27 13 30q7 -6 9 -9l60 -57l35 -29q13 -7 15 -17 q-12 -27 -12 -28v-74q0 -46 59 -46q33 -1 44 13t11 61v156q0 27 14 30l22 -21q0 -4 37 -38l42 -34q15 -9 17 -19q-11 -27 -11 -28z" />
<glyph unicode="&#xe826;" d="M34 -384q-33 0 -33 13t3 17l52 51q3 4 22 31t27 27t22 -5l44 -5h310q32 1 32 -15t-26 -36l-28 -30l-26 -38q-12 -21 -23 -21l-66 11h-310z" />
<glyph unicode="&#xe827;" d="M425 -357q33 0 33 -13t-2 -17l-52 -50l-27 -39q-8 -18 -23 -22l-21 6q-21 5 -45 5h-309q-33 -1 -33 13t2 18l25 22q25 23 45 56q20 32 32 32l66 -11h309zM356 -282l-68 10h-309q-33 0 -33 14t2 17l25 22l27 29q4 4 22 31t27 27q8 0 22 -5l45 -5h309q33 0 33 -16t-26 -35 l-28 -30l-27 -38q-11 -21 -21 -21z" />
<glyph unicode="&#xe828;" d="M697 1161v-74q0 -166 -183 -166h-12q-69 0 -99 30q-39 -30 -130 -30q-91 1 -129 45t-38 149v156q0 27 13 30q8 -7 23 -24t35 -35l43 -34q15 -9 19 -19q-5 -5 -13 -28v-46q0 -46 12 -60t46 -14q58 0 58 67v163q0 27 13 30q7 -6 9 -9l60 -57l35 -29q13 -7 15 -17 q-12 -27 -12 -28v-74q0 -46 59 -46q33 -1 44 13t11 61v156q0 27 14 30l22 -21q0 -4 37 -38l42 -34q15 -9 17 -19q-11 -27 -11 -28zM589 1673q33 0 33 -14t-2 -18l-24 -21l-28 -28q-12 -13 -24 -36t-26 -23q-7 0 -21 6l-44 5h-310q-32 0 -33 14q0 13 2 15l25 21l54 70 q11 20 21 20t26 -6t42 -5h309z" />
<glyph unicode="&#xe829;" d="M420 1689q29 24 30 49q3 46 -33 46q-28 0 -30 -36t33 -59zM524 1752q0 -37 -11 -62q-20 -31 -41 -55l49 -37l-53 -32l-39 26l-69 -57q-29 -24 -62 -38l-40 -18q-16 0 -16 15v30q0 20 25 27q20 9 55 35.5t53 48.5q-64 43 -66 114q-1 40 30 71.5t78 31.5t77 -31.5t30 -68.5 zM236 926q-92 0 -130 44t-38 149v156q0 27 13 30q5 -3 21 -21t37 -37l42 -34q15 -10 19 -19q-4 -6 -12 -29v-46q0 -46 10 -61q15 -13 48 -13q57 0 57 67v163q0 27 14 30l69 -66l35 -28q13 -8 15 -17q-12 -28 -12 -29v-74q0 -46 58 -46q33 0 44 13.5t11 60.5v156q0 27 14 30 q8 -4 12 -11l11 -10l18 -19q5 -6 19 -18l42 -34q15 -10 17 -19q-12 -28 -12 -29v-74q0 -165 -182 -165h-13q-69 0 -98 29q-37 -29 -129 -29z" />
<glyph unicode="&#xe82a;" d="M81 1435q-33 -1 -33 13t2 17l25 21l27 29l27 41q13 20 23 20l21 -6q22 -5 45 -5h309q31 0 33 -16q0 -14 -2 -16l-24 -21q-28 -24 -46 -56t-32 -32l-65 11h-310zM560 1763q0 -10 -2 -15l-22 -21q-22 -16 -46 -52t-33 -36q-8 0 -22 6l-44 5h-310q-33 0 -33 16t27 35l27 30 l27 39q11 20 21 20t26 -6t42 -5h309q33 0 33 -16zM236 926q-92 0 -130 44t-38 149v156q0 27 13 30q5 -3 21 -21t37 -37l42 -34q15 -10 19 -19q-4 -6 -12 -29v-46q0 -46 10 -61q15 -13 48 -13q57 0 57 67v163q0 27 14 30l69 -66l35 -28q13 -8 15 -17q-12 -28 -12 -29v-74 q0 -46 58 -46q33 0 44 13.5t11 60.5v156q0 27 14 30q8 -4 12 -11l11 -10l18 -19q5 -6 19 -18l42 -34q15 -10 17 -19q-12 -28 -12 -29v-74q0 -165 -182 -165h-13q-69 0 -98 29q-37 -29 -129 -29z" />
<glyph unicode="&#xe82b;" d="M714 1146v-74q0 -166 -183 -166h-12q-69 0 -99 30q-39 -30 -130 -30t-129 44t-38 150v156q0 27 13 30q8 -7 23 -24t35 -35l43 -34q15 -9 19 -19q-5 -5 -13 -28v-46q1 -46 13 -60t45 -14q58 0 58 67v163q0 27 13 30q7 -6 9 -9l60 -57l35 -29q13 -7 15 -17q-12 -27 -12 -28 v-74q0 -46 59 -46q33 0 44 14t11 60v156q0 27 14 30l22 -21q0 -4 37 -38l42 -34q15 -9 17 -19q-11 -27 -11 -28zM429 1608q-28 0 -30 -34t33 -62q30 32 32 52q4 44 -35 44zM322 1565q0 110 107 110q47 0 77 -32t30 -80t-53 -105l51 -37l-55 -32l-40 28q-71 -73 -116 -73 q-43 0 -77 38t-48 37t-32 -25t-24 -24q-16 0 -16 26t27 60q27 35 53 35q26 1 58 -37t56 -38t62 43q-60 38 -60 106z" />
<glyph unicode="&#xe82c;" d="M562 1076q33 0 33 -14t-2 -17l-22 -21q-23 -16 -47 -52t-32 -36t-22 5l-45 6h-309q-33 -1 -33 15t27 35l27 31l27 38q10 20 23 20q7 0 23 -5t43 -5h309zM253 1195q-92 0 -130 44t-38 150v155q0 27 13 30q8 -6 25 -25q17 -20 33 -33l43 -34q15 -10 19 -19q-5 -6 -13 -29 v-45q0 -47 12.5 -61t45.5 -14q58 0 58 67v163q0 27 13 30q3 -2 22 -21l47 -45l35 -28q13 -8 15 -17q-12 -27 -12 -29v-74q0 -46 59 -46q33 0 44 13.5t11 61.5v155q0 27 14 30q2 -1 22 -21l18 -19q5 -6 19 -18l42 -34q15 -10 17 -19q-11 -27 -11 -29v-74q0 -165 -183 -165 h-12q-69 0 -99 29q-37 -29 -129 -29z" />
<glyph unicode="&#xe82d;" d="M151 931q-33 0 -33 14t2 17l24 20l28 30l26 40q14 20 24 20l21 -5q21 -6 44 -6h310q31 0 33 -15q0 -15 -2 -16l-25 -22q-31 -26 -47 -57t-30 -31l-66 11h-309zM597 1276q33 0 33 -14t-2 -17l-23 -21q-21 -16 -45 -52t-33 -36q-8 0 -22 5l-45 5h-309q-33 0 -33 16t26 35 l28 31l26 38q11 20 21 20t26 -5t42 -5h310zM270 1377q-91 1 -129 45t-38 149v156q0 26 12 30q6 -5 26 -25q19 -21 33 -34l42 -34q15 -9 19 -19q-4 -5 -13 -28v-46q0 -47 11 -61q15 -13 48 -13q57 0 57 67v163q0 26 14 30l69 -66l35 -29q12 -7 14 -17q-11 -27 -11 -28v-75 q0 -45 58 -45q33 0 44 13t11 61v156q0 26 14 30q8 -4 12 -11l28 -30q5 -5 19 -18l43 -34q15 -9 17 -19q-12 -27 -12 -28v-75q0 -165 -182 -165h-13q-69 0 -99 30q-38 -30 -129 -30z" />
</font>
</defs>
</svg>
