<svg xmlns="http://www.w3.org/2000/svg" xmlns:xlink="http://www.w3.org/1999/xlink" version="1.1"><metadata/><defs><font id="bshirazregular" horiz-adv-x="1126"><font-face ascent="1638" descent="-410" units-per-em="2048"/><glyph horiz-adv-x="0"/><glyph horiz-adv-x="434"/><glyph horiz-adv-x="434"/><glyph horiz-adv-x="434"/><glyph horiz-adv-x="434"/><glyph d="M209 1046q0 166 94 166t94 -164v-35q-2 -50 -18 -136l-36 -217q-17 -102 -18 -219l-1 -122h-43l-1 124l-4 112q0 58 -34 242q-34 185 -33 249zM213 148q0 40 26.5 68.5t66.5 28.5t68 -29.5t28 -67.5t-29 -65t-67 -27t-65.5 26t-27.5 66z" horiz-adv-x="603" unicode="!"/><glyph d="M124 1084q0 38 29 66.5t65 28.5t64.5 -27.5t28.5 -65.5t-27 -67t-66 -29t-66.5 28t-27.5 66zM193 -141l536 1405h77l-541 -1405h-72zM696 50q0 38 30 65.5t69 27.5q89 0 89 -91t-91 -91q-38 0 -67.5 25.5t-29.5 63.5z" horiz-adv-x="1003" unicode="%"/><glyph d="M77 266q0 304 192 542q34 43 113 124l68 57l101 75l18 -15q-346 -380 -346 -763t342 -801l-9 -15q-36 25 -52 37t-43 32l-66 55q-47 38 -113 119q-205 249 -205 553z" horiz-adv-x="691" unicode="("/><glyph d="M110 1049l18 15l101 -75l68 -57q80 -81 114 -124q191 -238 191 -542t-204 -553q-66 -81 -113 -119l-67 -55q-34 -26 -94 -69l-9 15q342 418 342 801t-347 763z" horiz-adv-x="674" unicode=")"/><glyph d="M58 520q0 48 59 48l20 -2q11 0 32 -4l37 -7q14 -4 43 -11l56 -14q3 21 14 29l-69 44q-34 21 -74 56t-40 57q0 46 45 46t157 -180l33 14l-17 66l-14 61l-5 31l-1 31q-2 58 46 58q53 0 50 -62l-1 -24l-33 -166l28 -9l73 110l41 49q24 19 41 19q46 0 46 -46q0 -29 -78 -85 l-58 -40l-45 -28q6 -4 18 -31l55 14l80 17q33 7 54 7q58 0 58 -48t-61 -48t-188 35q-3 -19 -11 -33q176 -104 176 -157q0 -43 -46 -43q-32 0 -82 68q-10 13 -31 43l-42 67l-28 -13q0 -2 12 -61l16 -78l6 -45q0 -63 -48 -63t-48 61q0 31 6 59l13 59l18 68l-31 13l-55 -83 q-40 -59 -61 -77t-42 -21q-38 0 -46 44q0 22 35 54q7 8 27 22l46 34l75 47l-14 33q-124 -33 -185 -33q-62 0 -62 48zM344 518q0 -14 12 -26t28 -12q38 0 38 38q0 16 -10 27.5t-28 11.5q-29 0 -40 -39z" horiz-adv-x="782" unicode="*"/><glyph d="M111 479v88h345v348h89v-348h340v-88h-340v-342h-89v342h-345z" horiz-adv-x="1003" unicode="+"/><glyph d="M174 -214q70 62 106 118t34 116l-1 23q-131 0 -131 108q0 41 30 69t74 28t76 -34t36 -66q4 -31 4 -53q0 -174 -195 -344z" horiz-adv-x="603" unicode=","/><glyph d="M111 479v88h774v-88h-774z" horiz-adv-x="1003" unicode="-"/><glyph d="M213 148q0 38 24.5 67.5t64.5 29.5t67.5 -27.5t27.5 -67.5t-26 -67t-66 -27t-66 27t-26 65z" horiz-adv-x="603" unicode="."/><glyph d="M70 -147l399 1657h69l-401 -1657h-67z" horiz-adv-x="629" unicode="/"/><glyph d="M375 395l28 112l19 69l57 178l134 -114l137 -106l-42 -165l-40 -174q-52 28 -153 90q-74 52 -140 110z" unicode="0"/><glyph d="M348 904l134 332q170 -218 233 -387t63 -389t-60 -443h-37q0 103 -5 173q-18 248 -129 439q-62 105 -199 275z" unicode="1"/><glyph d="M248 932l95 287q107 -113 164.5 -148.5t135.5 -35.5q183 0 183 171l45 5l6 -69l1 -75q2 -183 -47 -260.5t-194 -111.5q60 -210 60 -352t-41 -326h-39q-37 319 -107 494t-262 421z" unicode="2"/><glyph d="M122 911l104 312q68 -99 105 -134q70 -68 149 -68q160 0 203 196h38q12 -137 107 -137q107 0 134 137h35l5 -98q1 -26 1 -50q0 -361 -214 -361q-68 0 -146 85q-33 -60 -62.5 -79t-98.5 -29q16 -54 35 -145l7 -59l2 -73l-3 -107q-3 -107 -69 -284h-37q0 337 -59 509 t-236 385z" unicode="3"/><glyph d="M276 714q0 113 175 294q128 131 271 230l-41 -247q-46 -11 -108 -38t-62 -55q0 -37 182 -99q41 -13 67 -27t26 -35q0 -22 -81 -105l-71 -72l-56 -64q-46 -52 -46 -78q0 -55 140 -80q86 -15 178 -15l-85 -304l-41 4l-37 1q-197 6 -285 56t-87 146q0 119 215 320 q-145 39 -199.5 76.5t-54.5 91.5z" unicode="4"/><glyph d="M192 383q0 214 163 515q89 162 209 162t245 -123t125 -268q0 -85 -37 -198t-91 -169t-154 -92t-194 -36q-96 0 -181 55t-85 154zM342 633q0 -74 100 -111q73 -27 161 -27q189 0 189 57q0 37 -91 91q-167 100 -251 100q-108 0 -108 -110z" unicode="5"/><glyph d="M204 969l2 105q1 64 5 97l46 2q19 -61 64 -88q51 -23 149 -23t290 46q-41 -183 -41 -317t46 -240.5t156 -213.5l-45 -311q-142 80 -198 196t-55 291q0 93 17 243l-100 -18q-18 -3 -99 -3q-138 0 -189 50.5t-48 183.5z" unicode="6"/><glyph d="M134 852l45 371q107 -87 163 -169t117 -247l86 -234l64 -190l62 255l21 71q106 341 150 401t150 103l-12 -333q-76 -82 -114 -139t-94 -177q-54 -120 -86 -225q-32 -104 -70 -313h-46q-54 262 -171 473q-65 116 -112 178.5t-153 174.5z" unicode="7"/><glyph d="M135 31l9 332q73 79 111 135t97 185t88.5 229.5t68.5 304.5h43q36 -167 58 -227t54 -127l64 -120q51 -94 106 -169t157 -183l-45 -372q-107 83 -154 153t-109 222q-62 153 -87 228l-81 239q-53 -247 -124 -460t-111 -270t-145 -100z" unicode="8"/><glyph d="M217 735q0 190 118 380q75 121 215 121q104 0 146 -54q31 -38 43 -207l28 -394q14 -186 141 -258l-72 -310q-206 106 -206 533l-82 -19l-43 -5h-21q-105 0 -186 56t-81 157zM360 894q0 -62 153 -62h13l42 1l47 12q-16 124 -122 124q-41 -1 -87 -21t-46 -54z" unicode="9"/><glyph d="M163 570q0 38 24.5 67t64.5 29t68 -27t28 -67t-26.5 -67t-66.5 -27t-66 27t-26 65zM165 148q0 38 24.5 67.5t64.5 29.5t68 -27.5t28 -67.5t-26.5 -67t-66.5 -27t-66 27t-26 65z" horiz-adv-x="516" unicode=":"/><glyph d="M111 384v91h775v-91h-775zM111 571v91h775v-91h-775z" horiz-adv-x="1003" unicode="="/><glyph d="M117 1106h420v-52h-306l1 -1595h306v-52h-420z" horiz-adv-x="604" unicode="["/><glyph d="M117 -541h306l1 1595h-306v52h420l-1 -1699h-420v52z" horiz-adv-x="604" unicode="]"/><glyph d="M125 338v37q209 50 209 211q0 46 -19 143t-19 157q0 140 84.5 242.5t222.5 127.5v-38q-85 -14 -140 -74.5t-55 -145.5q0 -46 19 -156t19 -158q0 -216 -251 -324q248 -112 248 -338q1 -48 -19 -150t-20 -153q0 -174 199 -225v-35q-138 27 -223.5 130t-85.5 243 q0 59 20 156t19 123q0 90 -59 153t-149 74z" horiz-adv-x="750" unicode="{"/><glyph d="M174 -506q198 51 198 225q0 51 -19 153t-19 150q0 226 248 338q-251 108 -251 324q0 48 19 158t19 156q0 85 -55 145.5t-140 74.5v38q138 -25 222 -127.5t84 -242.5q0 -60 -18 -157t-19 -143q0 -161 209 -211v-37q-90 -11 -149.5 -74t-59.5 -153q0 -26 20 -123t20 -156 q0 -140 -85.5 -243t-223.5 -130v35z" horiz-adv-x="783" unicode="}"/><glyph d="M113 197q0 155 126 276q22 22 75 63l45 30l67 38l11 -8q-228 -194 -228 -390t225 -408l-6 -8q-21 11 -62 35l-44 28q-31 20 -74 61q-135 128 -135 283zM373 197q0 155 127 276q22 22 74 63l45 30l67 38l12 -8q-229 -194 -229 -391t226 -407l-6 -8q-21 11 -62 35l-45 28 q-30 20 -74 61q-135 128 -135 283z" horiz-adv-x="789" unicode="«"/><glyph d="M111 479v88h774v-88h-774z" horiz-adv-x="1003" unicode="­"/><glyph d="M132 644q0 90 82 90t81 -91q0 -37 -22 -63t-58 -26q-83 0 -83 90z" horiz-adv-x="434" unicode="·"/><glyph d="M171 596l12 8l67 -38l45 -30q52 -41 75 -63q126 -121 126 -276t-135 -283q-43 -41 -74 -61l-44 -28q-42 -24 -63 -35l-6 8q226 210 226 407t-229 391zM432 596l12 8l66 -38l45 -30q53 -41 75 -63q126 -121 126 -276t-135 -283q-43 -41 -74 -61l-44 -28q-41 -24 -62 -35 l-6 8q225 212 225 408t-228 390z" horiz-adv-x="866" unicode="»"/><glyph d="M139 232l291 295l-291 294l66 60l290 -293l294 293l61 -60l-296 -294l296 -295l-61 -60l-294 291l-294 -291z" horiz-adv-x="1003" unicode="×"/><glyph d="M111 479v88h774v-88h-774zM403 227q0 38 27.5 64.5t63.5 26.5t62 -27t26 -63t-26 -63.5t-63 -27.5t-63.5 26t-26.5 64zM403 818q0 38 27 63t63 25t62.5 -26t26.5 -62t-25.5 -64t-63.5 -28t-64 27t-26 65z" horiz-adv-x="1003" unicode="÷"/><glyph horiz-adv-x="814"/><glyph horiz-adv-x="1629"/><glyph horiz-adv-x="814"/><glyph horiz-adv-x="1629"/><glyph horiz-adv-x="543"/><glyph horiz-adv-x="407"/><glyph horiz-adv-x="271"/><glyph horiz-adv-x="271"/><glyph horiz-adv-x="203"/><glyph horiz-adv-x="325"/><glyph horiz-adv-x="90"/><glyph d="M111 479v88h774v-88h-774z" horiz-adv-x="1003" unicode="‐"/><glyph d="M111 479v88h774v-88h-774z" horiz-adv-x="1003" unicode="‑"/><glyph d="M111 479v88h774v-88h-774z" horiz-adv-x="1003" unicode="‒"/><glyph d="M111 479v88h1024v-88h-1024z" horiz-adv-x="1253" unicode="–"/><glyph d="M111 479v88h2048v-88h-2048z" horiz-adv-x="2277" unicode="—"/><glyph d="M104 1285q0 172 195 344l33 -35q-70 -62 -106 -118t-34 -116l1 -23q130 0 130 -107q0 -42 -29.5 -70t-71.5 -28q-67 0 -98 64q-20 39 -20 89z" horiz-adv-x="464" unicode="‘"/><glyph d="M104 1167q70 63 106 119t34 115l-1 24q-131 0 -131 107q0 42 30 69.5t72 27.5q66 0 98 -63q20 -40 20 -89q0 -173 -195 -345z" horiz-adv-x="464" unicode="’"/><glyph d="M67 1274q0 172 195 344l33 -35q-71 -63 -107 -119t-33 -115l1 -23q131 0 131 -107q0 -42 -30 -70t-72 -28q-66 0 -98 64q-20 39 -20 89zM353 1274q0 172 195 344l33 -35q-69 -63 -105 -119t-35 -115l1 -23q131 0 131 -107q0 -42 -30 -70t-72 -28q-66 0 -98 64 q-20 39 -20 89z" horiz-adv-x="651" unicode="“"/><glyph d="M67 1156q71 62 107 118t33 116l-1 24q-130 0 -130 107q0 42 29.5 69.5t71.5 27.5q67 0 98 -63q20 -40 20 -89q0 -173 -195 -345zM353 1156q71 62 107 118t33 116l-1 24q-130 0 -130 107q0 42 29.5 69.5t72.5 27.5q66 0 98 -63q19 -40 19 -89q0 -173 -195 -345z" horiz-adv-x="651" unicode="”"/><glyph horiz-adv-x="325"/><glyph d="M171 197q0 155 127 276q22 22 75 63l44 30l67 38l12 -8q-228 -194 -228 -390t225 -408l-6 -8q-21 11 -62 35l-44 28q-31 20 -74 61q-136 128 -136 283z" horiz-adv-x="654" unicode="‹"/><glyph d="M171 596l12 8l67 -38l45 -30q52 -41 75 -63q126 -121 126 -276t-135 -283q-43 -41 -74 -61l-44 -28q-42 -24 -63 -35l-6 8q226 210 226 407t-229 391z" horiz-adv-x="654" unicode="›"/><glyph horiz-adv-x="407"/><glyph d="M0 0z" horiz-adv-x="500" unicode="◼"/></font>
</defs>
</svg>
