<?xml version="1.0" standalone="no"?>
<!DOCTYPE svg PUBLIC "-//W3C//DTD SVG 1.1//EN" "http://www.w3.org/Graphics/SVG/1.1/DTD/svg11.dtd" >
<svg xmlns="http://www.w3.org/2000/svg" xmlns:xlink="http://www.w3.org/1999/xlink" version="1.1">
<metadata></metadata>
<defs>
<font id="shorooq_n1regular" horiz-adv-x="0" >
<font-face units-per-em="1000" ascent="684" descent="-316" />
<missing-glyph horiz-adv-x="109" />
<glyph unicode="&#xfedf;&#xfee0;&#xfeea;" horiz-adv-x="804" arabic-form="isolated" d="M414 919l45 16q7 -56 10 -137l-35 -3q0 64 -20 124zM469 701q5 -13 14 -19q9 -9 20 -9q43 9 38 42q-8 49 -24 87l36 21q28 -111 0 -167q-17 -31 -45 -36q-19 -1 -32 10t-18 18l-2 -4q-17 -30 -40.5 -33t-40.5 13q-32 27 -29.5 66t4.5 49l16 19q-1 -10 1 -46 q4 -29 15.5 -38.5t23.5 -9.5q30 5 37 24q-2 8 -1 13t-3 29t-10 34l33 21q7 -22 7 -84zM772 0h-193q-17 14 -31 32v-32h-306v91l-69 -63l-113 49q-38 16 -16 129q8 34 66 73l111 78q-3 17 -5 35l124 46q9 -146 10 -311h88q-2 111 -48 428l141 44l26 -81l-20 -56 q10 -156 11 -335h114q-2 110 -48 428l141 44l25 -81l-19 -58q10 -154 11 -334v-126zM237 193q-2 41 -7 86q-112 -70 -124 -92q71 -61 131 6z" />
<glyph unicode="&#xfedf;&#xfe82;" horiz-adv-x="434" arabic-form="isolated" d="M8 483q-8 41 0.5 57t25.5 24t37 6t53 -13q52 -18 71 13l21 9q8 -42 0 -58q-27 -46 -108 -18q-57 20 -79 -11zM42 91q97 -10 97 10q-48 163 -103 297l113 65q56 -176 87 -328q37 16 53 31q-3 97 -45 389l142 44l24 -82l-18 -55q11 -316 -18 -373q-66 -132 -264 -125z" />
<glyph unicode="&#xfee0;&#xfe82;" horiz-adv-x="458" arabic-form="final" d="M8 483q-8 41 0.5 57t25.5 24t37 6t53 -13q52 -18 71 13l21 9q8 -42 0 -58q-27 -46 -108 -18q-57 20 -79 -11zM409 127h55v-127h-165v34q-80 -74 -179 -70l-70 127q98 -10 97 10q-42 148 -102 297l112 65q61 -190 88 -328q37 16 53 31q-2 82 -46 389l142 44l24 -82 l-19 -55q10 -291 10 -335z" />
<glyph unicode="&#xfedf;&#xfe84;" horiz-adv-x="434" arabic-form="isolated" d="M12 485q15 15 25 23q-22 17 -27 44t-1 45q8 48 54.5 62t87.5 -13l-31 -31q-19 4 -34 1q-33 -6 -25 -48q4 -21 32 -30q58 24 86 32l12 -61q-48 -9 -170 -68zM42 91q97 -10 97 10q-48 163 -103 297l113 65q56 -176 87 -328q37 16 53 31q-3 97 -45 389l142 44l24 -82 l-18 -55q11 -316 -18 -373q-66 -132 -264 -125z" />
<glyph unicode="&#xfee0;&#xfe84;" horiz-adv-x="458" arabic-form="final" d="M12 485q15 15 25 23q-22 17 -27.5 44t-0.5 45q8 48 54.5 62t87.5 -13l-31 -31q-19 4 -34 1q-33 -6 -25 -48q4 -21 32 -30q58 24 86 32l12 -61q-48 -9 -170 -68zM409 127h55v-127h-165v34q-80 -74 -179 -70l-70 127q98 -10 97 10q-42 148 -102 297l112 65q61 -190 88 -328 q37 16 53 31q-2 82 -46 389l142 44l24 -82l-19 -55q10 -291 10 -335z" />
<glyph unicode="&#xfedf;&#xfe88;" horiz-adv-x="434" arabic-form="isolated" d="M101 -259q15 15 24 23q-22 17 -27 43.5t-1 45.5q9 49 55.5 62.5t87.5 -14.5l-32 -31q-19 4 -33 2q-34 -6 -26 -48q4 -21 32 -31q58 24 86 33l12 -61q-48 -9 -170 -68zM42 91q97 -10 97 10q-48 163 -103 297l113 65q56 -176 87 -328q37 16 53 31q-3 97 -45 389l142 44 l24 -82l-18 -55q11 -316 -18 -373q-66 -132 -264 -125z" />
<glyph unicode="&#xfee0;&#xfe88;" horiz-adv-x="458" arabic-form="final" d="M101 -259q15 15 24 23q-22 17 -27 43.5t-1 45.5q9 48 55.5 62t87.5 -14l-32 -31q-19 4 -33 2q-34 -6 -26 -48q4 -21 32 -31q58 24 86 33l12 -61q-48 -9 -170 -68zM409 127h55v-127h-165v34q-80 -74 -179 -70l-70 127q98 -10 97 10q-42 148 -102 297l112 65 q61 -190 88 -328q37 16 53 31q-2 82 -46 389l142 44l24 -82l-19 -55q10 -291 10 -335z" />
<glyph unicode="&#xfedf;&#xfe8e;" horiz-adv-x="434" arabic-form="isolated" d="M42 91q97 -10 97 10q-48 163 -103 297l113 65q56 -176 87 -328q37 16 53 31q-3 97 -45 389l142 44l24 -82l-18 -55q11 -316 -18 -373q-66 -132 -264 -125z" />
<glyph unicode="&#xfee0;&#xfe8e;" horiz-adv-x="458" arabic-form="final" d="M409 127h55v-127h-165v34q-80 -74 -179 -70l-70 127q98 -10 97 10q-42 148 -102 297l112 65q61 -190 88 -328q37 16 53 31q-2 82 -46 389l142 44l24 -82l-19 -55q10 -291 10 -335z" />
<glyph unicode="&#x620;" horiz-adv-x="299" d="M0 -5l10 82q59 0 92 4.5t47 23t14 58.5q0 38 -17.5 95.5t-39.5 114.5l81 30q13 -32 24.5 -73t19.5 -81t8 -70q0 -96 -51 -138q16 -12 25.5 -30.5t9.5 -40.5q0 -37 -26 -63t-63 -26t-63 26t-26 63q0 14 4 27q-23 -2 -49 -2zM134 -68q17 0 29 11t12 27q0 17 -12 28.5 t-29 11.5h-1.5t-8.5 -1q-1 -1 -2 -1q-13 -3 -21 -14t-8 -24q0 -16 12 -27t29 -11z" />
<glyph unicode="&#x620;" horiz-adv-x="373" d="M0 -5l10 82q50 0 78 7.5t42.5 29t23.5 62.5t22 107l78 -15q-6 -27 -13.5 -62t-7.5 -59q0 -15 2 -28t15 -22t44 -14.5t89 -5.5q21 0 30.5 -11.5t9.5 -27.5t-14 -29.5t-36 -13.5q-65 0 -101.5 7.5t-54 22t-25.5 36.5q-12 -17 -26 -29q15 -12 24 -30t9 -39q0 -37 -26 -63 t-63 -26t-63 26t-26 63q0 17 6 32h-27zM110 -75q17 0 29 11t12 27q0 17 -12 28.5t-29 11.5t-29 -11.5t-12 -28.5q0 -16 12 -27t29 -11z" />
<glyph unicode="&#x620;" horiz-adv-x="736" d="M30 -1q0 36 10 80t32 97l72 -28q-16 -42 -24 -77t-8 -65q0 -55 32.5 -90t86 -51t117.5 -16q77 0 140.5 18t101.5 47.5t38 65.5q0 26 -40 45t-112 39l19 83q104 -40 162 -55t89 -15q21 0 30.5 -11.5t9.5 -27.5t-14 -29.5t-36 -13.5h-37q2 -9 3 -14.5t1 -14.5 q0 -43 -34.5 -83.5t-100 -70t-157.5 -39.5q12 -21 12 -45q0 -37 -26 -63t-63 -26t-63 26t-26 63q0 24 12 45q-64 10 -115.5 38t-81.5 75t-30 113zM334 -310q17 0 29 11t12 27q0 17 -12 28.5t-29 11.5t-29 -11.5t-12 -28.5q0 -16 12 -27t29 -11z" />
<glyph unicode="&#x63b;" horiz-adv-x="412" d="M262 723q-21 0 -35.5 14.5t-14.5 34.5t14.5 35t35.5 15q20 0 34.5 -15t14.5 -35t-14.5 -34.5t-34.5 -14.5zM147 670q-21 0 -35.5 14.5t-14.5 34.5t14.5 35t35.5 15q20 0 34.5 -15t14.5 -35t-14.5 -34.5t-34.5 -14.5zM0 -5l10 82h94q59 0 93.5 6.5t51 17t22 23t5.5 25.5 q0 23 -17.5 57t-71.5 88q-37 38 -74 67t-61 49t-24 29q0 23 5.5 43t15.5 31q40 43 125.5 86.5t213.5 107.5l34 -74q-91 -44 -148.5 -72.5t-95 -50t-69.5 -43.5q117 -95 179.5 -170.5t62.5 -152.5q0 -22 -8 -48t-34 -49t-78 -37.5t-140 -14.5h-91z" />
<glyph unicode="&#x63b;" horiz-adv-x="508" d="M230 723q-21 0 -35.5 14.5t-14.5 34.5t14.5 35t35.5 15q20 0 34.5 -15t14.5 -35t-14.5 -34.5t-34.5 -14.5zM115 670q-21 0 -35.5 14.5t-14.5 34.5t14.5 35t35.5 15q20 0 34.5 -15t14.5 -35t-14.5 -34.5t-34.5 -14.5zM0 -5l10 82h77q83 0 123 9t52.5 24t12.5 31 q0 24 -18 53t-46 59.5t-59.5 60.5t-59.5 55t-46 43.5t-18 26.5q0 23 5.5 43t15.5 31q27 29 79.5 60.5t120.5 65t139 68.5l34 -74q-88 -44 -172.5 -85t-147.5 -85q55 -47 103 -91t89 -94.5t75 -114.5q21 -39 49 -57t55.5 -23.5t44.5 -5.5q21 0 30.5 -11.5t9.5 -27.5 t-14 -29.5t-36 -13.5q-24 0 -55.5 6.5t-63.5 25t-56 54.5q-20 -29 -50 -48t-78 -28.5t-122 -9.5h-83z" />
<glyph unicode="&#x63b;" horiz-adv-x="975" d="M733 723q-21 0 -35.5 14.5t-14.5 34.5t14.5 35t35.5 15q20 0 34.5 -15t14.5 -35t-14.5 -34.5t-34.5 -14.5zM618 670q-21 0 -35.5 14.5t-14.5 34.5t14.5 35t35.5 15q20 0 34.5 -15t14.5 -35t-14.5 -34.5t-34.5 -14.5zM390 -21q-178 0 -269 47t-91 156q0 37 9 78.5t19 78.5 l75 -19q-6 -22 -13.5 -55.5t-7.5 -59.5q0 -52 26.5 -83.5t92.5 -46t185 -14.5q125 0 196 13t100.5 32t29.5 35q0 24 -18 53t-46 59.5t-59.5 60.5t-59.5 55t-46 43.5t-18 26.5q0 23 5.5 43t15.5 31q27 29 79.5 60.5t120.5 65t139 68.5l34 -74q-88 -44 -172.5 -85t-147.5 -85 q55 -47 103 -91t89 -94.5t75 -114.5q21 -39 49 -57t55.5 -23.5t44.5 -5.5q21 0 30.5 -11.5t9.5 -27.5t-14 -29.5t-36 -13.5q-24 0 -56 6.5t-63.5 25t-55.5 54.5q-17 -22 -45 -41t-74.5 -32.5t-117.5 -21t-173 -7.5z" />
<glyph unicode="&#x63c;" horiz-adv-x="412" d="M-1 0v127h283q3 60 -90 92q-36 14 -72 19l-27 -10l-55 34q-14 104 23 153q132 112 359 196v-125q-223 -58 -270 -138q159 -47 213 -113q79 -98 7 -235h-371zM95 -189q-21 0 -35.5 14.5t-14.5 34.5t14.5 35t35.5 15q20 0 34.5 -15t14.5 -35t-14.5 -34.5t-34.5 -14.5z M231 -189q-21 0 -35.5 14.5t-14.5 34.5t14.5 35t35.5 15q20 0 34.5 -15t14.5 -35t-14.5 -34.5t-34.5 -14.5zM163 -299q-21 0 -35.5 14.5t-14.5 34.5t14.5 35t35.5 15q20 0 34.5 -15t14.5 -35t-14.5 -34.5t-34.5 -14.5z" />
<glyph unicode="&#x63c;" horiz-adv-x="508" d="M452 0q-28 0 -63 49q-8 -26 -19 -49h-371v127h282q4 60 -89 92q-37 14 -72 19l-27 -10l-56 34q-13 104 24 153q130 112 359 196v-125q-223 -58 -270 -138q159 -49 211 -114q34 -41 37 -107h79v-127h-25zM95 -189q-21 0 -35.5 14.5t-14.5 34.5t14.5 35t35.5 15 q20 0 34.5 -15t14.5 -35t-14.5 -34.5t-34.5 -14.5zM231 -189q-21 0 -35.5 14.5t-14.5 34.5t14.5 35t35.5 15q20 0 34.5 -15t14.5 -35t-14.5 -34.5t-34.5 -14.5zM163 -299q-21 0 -35.5 14.5t-14.5 34.5t14.5 35t35.5 15q20 0 34.5 -15t14.5 -35t-14.5 -34.5t-34.5 -14.5z" />
<glyph unicode="&#x63c;" horiz-adv-x="975" d="M390 -21q-178 0 -269 47t-91 156q0 37 9 78.5t19 78.5l75 -19q-6 -22 -13.5 -55.5t-7.5 -59.5q0 -52 26.5 -83.5t92.5 -46t185 -14.5q125 0 196 13t100.5 32t29.5 35q0 24 -18 53t-46 59.5t-59.5 60.5t-59.5 55t-46 43.5t-18 26.5q0 23 5.5 43t15.5 31q27 29 79.5 60.5 t120.5 65t139 68.5l34 -74q-88 -44 -172.5 -85t-147.5 -85q55 -47 103 -91t89 -94.5t75 -114.5q21 -39 49 -57t55.5 -23.5t44.5 -5.5q21 0 30.5 -11.5t9.5 -27.5t-14 -29.5t-36 -13.5q-24 0 -56 6.5t-63.5 25t-55.5 54.5q-17 -22 -45 -41t-74.5 -32.5t-117.5 -21t-173 -7.5z M342 -210q-21 0 -35.5 14.5t-14.5 34.5t14.5 35t35.5 15q20 0 34.5 -15t14.5 -35t-14.5 -34.5t-34.5 -14.5zM478 -210q-21 0 -35.5 14.5t-14.5 34.5t14.5 35t35.5 15q20 0 34.5 -15t14.5 -35t-14.5 -34.5t-34.5 -14.5zM410 -320q-21 0 -35.5 14.5t-14.5 34.5t14.5 35 t35.5 15q20 0 34.5 -15t14.5 -35t-14.5 -34.5t-34.5 -14.5z" />
<glyph unicode="&#x63d;" horiz-adv-x="269" d="M0 -5l10 82q49 0 78 6t42 24.5t13 55.5q0 38 -17.5 95.5t-39.5 114.5l81 30q13 -32 24.5 -73t19.5 -81t8 -70q0 -100 -53.5 -142t-165.5 -42zM93 726l59 6q9 -20 25 -53.5t33 -67t29 -54.5l-46 -25q-7 12 -20 36.5t-27.5 52t-24.5 49.5q-11 -26 -24 -55.5t-24 -53 t-16 -31.5l-45 19q5 10 16 32.5t24 50t24 53t17 41.5zM179 -194q-21 0 -35.5 14.5t-14.5 34.5t14.5 35t35.5 15q20 0 34.5 -15t14.5 -35t-14.5 -34.5t-34.5 -14.5zM42 -194q-21 0 -35.5 14.5t-14.5 34.5t14.5 35t35.5 15q20 0 34.5 -15t14.5 -35t-14.5 -34.5t-34.5 -14.5z " />
<glyph unicode="&#x63d;" horiz-adv-x="343" d="M0 -5l10 82q42 0 66 7.5t36.5 29t21.5 62.5t22 107l78 -15q-6 -27 -13.5 -62t-7.5 -59q0 -20 9 -36t39 -25t92 -9q21 0 30.5 -11.5t9.5 -27.5t-14 -29.5t-36 -13.5q-79 0 -117 17t-52 51q-30 -42 -69 -55t-105 -13zM152 605l59 6q9 -20 25 -53.5t33 -67t29 -54.5l-46 -25 q-7 12 -20 36.5t-27.5 52t-24.5 49.5q-11 -26 -24 -55.5t-24 -53t-16 -31.5l-45 19q5 10 16 32.5t24 50t24 53t17 41.5zM242 -194q-21 0 -35.5 14.5t-14.5 34.5t14.5 35t35.5 15q20 0 34.5 -15t14.5 -35t-14.5 -34.5t-34.5 -14.5zM105 -194q-21 0 -35.5 14.5t-14.5 34.5 t14.5 35t35.5 15q20 0 34.5 -15t14.5 -35t-14.5 -34.5t-34.5 -14.5z" />
<glyph unicode="&#x63d;" horiz-adv-x="736" d="M443 127v-127l-25 -1q34 -48 -28 -142q-63 -98 -175 -91q-190 9 -175 179q8 82 61 190l64 42q-29 -100 -38 -123q-34 -116 37 -156q36 -18 110 -2.5t90 48.5q-15 51 -85 79q5 36 19 122q55 -20 111 -18h34zM182 472l59 6q9 -20 25 -53.5t33 -67t29 -54.5l-46 -25 q-7 12 -20 36.5t-27.5 52t-24.5 49.5q-11 -26 -24 -55.5t-24 -53t-16 -31.5l-45 19q5 10 16 32.5t24 50t24 53t17 41.5z" />
<glyph unicode="&#x63e;" horiz-adv-x="299" d="M218 507q-21 0 -35.5 14.5t-14.5 34.5t14.5 35t35.5 15q20 0 34.5 -15t14.5 -35t-14.5 -34.5t-34.5 -14.5zM81 507q-21 0 -35.5 14.5t-14.5 34.5t14.5 35t35.5 15q20 0 34.5 -15t14.5 -35t-14.5 -34.5t-34.5 -14.5zM0 -5l10 82q59 0 92 4.5t47 23t14 58.5 q0 38 -17.5 95.5t-39.5 114.5l81 30q13 -32 24.5 -73t19.5 -81t8 -70q0 -100 -56 -142t-183 -42zM185 -194q-21 0 -35.5 14.5t-14.5 34.5t14.5 35t35.5 15q20 0 34.5 -15t14.5 -35t-14.5 -34.5t-34.5 -14.5zM48 -194q-21 0 -35.5 14.5t-14.5 34.5t14.5 35t35.5 15 q20 0 34.5 -15t14.5 -35t-14.5 -34.5t-34.5 -14.5z" />
<glyph unicode="&#x63e;" horiz-adv-x="373" d="M267 386q-21 0 -35.5 14.5t-14.5 34.5t14.5 35t35.5 15q20 0 34.5 -15t14.5 -35t-14.5 -34.5t-34.5 -14.5zM130 386q-21 0 -35.5 14.5t-14.5 34.5t14.5 35t35.5 15q20 0 34.5 -15t14.5 -35t-14.5 -34.5t-34.5 -14.5zM0 -5l10 82q50 0 78 7.5t42.5 29t23.5 62.5t22 107 l78 -15q-6 -27 -13.5 -62t-7.5 -59q0 -15 2 -28t15 -22t44 -14.5t89 -5.5q21 0 30.5 -11.5t9.5 -27.5t-14 -29.5t-36 -13.5q-65 0 -101.5 7.5t-54 22t-25.5 36.5q-29 -41 -71.5 -53.5t-120.5 -12.5zM252 -194q-21 0 -35.5 14.5t-14.5 34.5t14.5 35t35.5 15q20 0 34.5 -15 t14.5 -35t-14.5 -34.5t-34.5 -14.5zM115 -194q-21 0 -35.5 14.5t-14.5 34.5t14.5 35t35.5 15q20 0 34.5 -15t14.5 -35t-14.5 -34.5t-34.5 -14.5z" />
<glyph unicode="&#x63e;" horiz-adv-x="736" d="M443 127v-127l-25 -1q34 -48 -28 -142q-63 -98 -175 -91q-190 9 -175 179q8 82 61 190l64 42q-29 -100 -38 -123q-34 -116 37 -156q36 -18 110 -2.5t90 48.5q-15 51 -85 79q5 36 19 122q55 -20 111 -18h34zM287 253q-21 0 -35.5 14.5t-14.5 34.5t14.5 35t35.5 15 q20 0 34.5 -15t14.5 -35t-14.5 -34.5t-34.5 -14.5zM150 253q-21 0 -35.5 14.5t-14.5 34.5t14.5 35t35.5 15q20 0 34.5 -15t14.5 -35t-14.5 -34.5t-34.5 -14.5z" />
<glyph unicode="&#x63f;" horiz-adv-x="299" d="M150 617q-21 0 -35.5 14.5t-14.5 34.5t14.5 35t35.5 15q20 0 34.5 -15t14.5 -35t-14.5 -34.5t-34.5 -14.5zM82 507q-21 0 -35.5 14.5t-14.5 34.5t14.5 35t35.5 15q20 0 34.5 -15t14.5 -35t-14.5 -34.5t-34.5 -14.5zM218 507q-21 0 -35.5 14.5t-14.5 34.5t14.5 35t35.5 15 q20 0 34.5 -15t14.5 -35t-14.5 -34.5t-34.5 -14.5zM0 -5l10 82q59 0 92 4.5t47 23t14 58.5q0 38 -17.5 95.5t-39.5 114.5l81 30q13 -32 24.5 -73t19.5 -81t8 -70q0 -100 -56 -142t-183 -42zM185 -194q-21 0 -35.5 14.5t-14.5 34.5t14.5 35t35.5 15q20 0 34.5 -15t14.5 -35 t-14.5 -34.5t-34.5 -14.5zM48 -194q-21 0 -35.5 14.5t-14.5 34.5t14.5 35t35.5 15q20 0 34.5 -15t14.5 -35t-14.5 -34.5t-34.5 -14.5z" />
<glyph unicode="&#x63f;" horiz-adv-x="373" d="M199 496q-21 0 -35.5 14.5t-14.5 34.5t14.5 35t35.5 15q20 0 34.5 -15t14.5 -35t-14.5 -34.5t-34.5 -14.5zM131 386q-21 0 -35.5 14.5t-14.5 34.5t14.5 35t35.5 15q20 0 34.5 -15t14.5 -35t-14.5 -34.5t-34.5 -14.5zM267 386q-21 0 -35.5 14.5t-14.5 34.5t14.5 35 t35.5 15q20 0 34.5 -15t14.5 -35t-14.5 -34.5t-34.5 -14.5zM0 -5l10 82q50 0 78 7.5t42.5 29t23.5 62.5t22 107l78 -15q-6 -27 -13.5 -62t-7.5 -59q0 -15 2 -28t15 -22t44 -14.5t89 -5.5q21 0 30.5 -11.5t9.5 -27.5t-14 -29.5t-36 -13.5q-65 0 -101.5 7.5t-54 22t-25.5 36.5 q-29 -41 -71.5 -53.5t-120.5 -12.5zM252 -194q-21 0 -35.5 14.5t-14.5 34.5t14.5 35t35.5 15q20 0 34.5 -15t14.5 -35t-14.5 -34.5t-34.5 -14.5zM115 -194q-21 0 -35.5 14.5t-14.5 34.5t14.5 35t35.5 15q20 0 34.5 -15t14.5 -35t-14.5 -34.5t-34.5 -14.5z" />
<glyph unicode="&#x63f;" horiz-adv-x="736" d="M443 127v-127l-25 -1q34 -48 -28 -142q-63 -98 -175 -91q-190 9 -175 179q8 82 61 190l64 42q-29 -100 -38 -123q-34 -116 37 -156q36 -18 110 -2.5t90 48.5q-15 51 -85 79q5 36 19 122q55 -20 111 -18h34zM219 363q-21 0 -35.5 14.5t-14.5 34.5t14.5 35t35.5 15 q20 0 34.5 -15t14.5 -35t-14.5 -34.5t-34.5 -14.5zM151 253q-21 0 -35.5 14.5t-14.5 34.5t14.5 35t35.5 15q20 0 34.5 -15t14.5 -35t-14.5 -34.5t-34.5 -14.5zM287 253q-21 0 -35.5 14.5t-14.5 34.5t14.5 35t35.5 15q20 0 34.5 -15t14.5 -35t-14.5 -34.5t-34.5 -14.5z" />
<glyph unicode="&#x66e;" horiz-adv-x="269" d="M0 -5l10 82q49 0 78 6t42 24.5t13 55.5q0 38 -17.5 95.5t-39.5 114.5l81 30q13 -32 24.5 -73t19.5 -81t8 -70q0 -100 -53.5 -142t-165.5 -42z" />
<glyph unicode="&#x66e;" horiz-adv-x="343" d="M0 -5l10 82q42 0 66 7.5t36.5 29t21.5 62.5t22 107l78 -15q-6 -27 -13.5 -62t-7.5 -59q0 -20 9 -36t39 -25t92 -9q21 0 30.5 -11.5t9.5 -27.5t-14 -29.5t-36 -13.5q-79 0 -117 17t-52 51q-30 -42 -69 -55t-105 -13z" />
<glyph unicode="&#x66e;" horiz-adv-x="1093" d="M390 -21q-178 0 -269 47t-91 156q0 37 9 78.5t19 78.5l75 -19q-6 -22 -13.5 -55.5t-7.5 -59.5q0 -52 26.5 -83.5t92.5 -46t185 -14.5q61 0 129 7.5t135.5 27t128.5 53.5t107 86l63 -37q-9 -23 -12 -36.5t-3 -24.5q0 -15 11 -28.5t41.5 -22.5t86.5 -9q21 0 30.5 -11.5 t9.5 -27.5t-14 -29.5t-36 -13.5q-88 0 -144.5 26t-57.5 85q-83 -64 -215 -95.5t-286 -31.5z" />
<glyph unicode="&#x66f;" horiz-adv-x="447" d="M0 -5l10 82q33 0 75.5 0.5t82.5 4t63 11.5q32 11 51.5 28.5t29.5 45.5q-18 -6 -38.5 -8.5t-40.5 -2.5q-76 0 -117.5 36t-41.5 91q0 38 12 76.5t34 70.5t53 51.5t69 19.5q54 0 89.5 -35t53 -91.5t17.5 -119.5q0 -75 -25.5 -128.5t-84.5 -88.5q-31 -18 -77.5 -27.5 t-101.5 -12.5t-113 -3zM153 303q0 -31 20 -49.5t69 -18.5q43 0 82 12v14q0 42 -11 78t-31 58t-48 22q-23 0 -41.5 -17.5t-29 -44.5t-10.5 -54z" />
<glyph unicode="&#x66f;" horiz-adv-x="495" d="M0 -5l10 82q34 0 70.5 1t70.5 5q-24 22 -47 57t-23 85q0 54 25 97t65 68t85 25q49 0 86 -27t57.5 -68.5t20.5 -86.5q0 -47 -19 -84t-51 -65q40 -3 82 -5t73 -2q21 0 30.5 -11.5t9.5 -27.5t-14 -29.5t-36 -13.5q-61 0 -127 9.5t-116 23.5q-16 -6 -33 -11 q-46 -13 -105 -17.5t-114 -4.5zM163 223q0 -39 24 -68.5t54 -47.5q41 18 69 48t28 72q0 23 -11 47.5t-30 41.5t-44 17q-24 0 -44.5 -16t-33 -41.5t-12.5 -52.5z" />
<glyph unicode="&#x66f;" horiz-adv-x="808" d="M326 -272q-79 0 -146.5 24.5t-108.5 76.5t-41 136q0 23 9 73.5t48 121.5l73 -34q-23 -47 -33.5 -81t-10.5 -65q0 -62 31.5 -99t84 -53t116.5 -16q116 0 189.5 41.5t93.5 102.5q6 17 10 39h-72q-45 0 -83 12.5t-61 40.5t-25 73q-1 37 11.5 74t35.5 68t54 49.5t67 18.5 q67 0 114 -61t50 -193h86q21 0 30.5 -11.5t9.5 -27.5t-14 -29.5t-36 -13.5h-85q-5 -23 -13 -48t-19 -48q-32 -62 -86.5 -100t-125.5 -54.5t-153 -16.5zM607 77h43q0 83 -26 128t-64 45q-21 0 -39 -16.5t-29.5 -42.5t-11.5 -55q0 -35 31.5 -47t95.5 -12z" />
<glyph unicode="&#x672;" horiz-adv-x="289" d="M-37 721l-41 24q12 28 33 40.5t39 12.5q26 0 43 -11t35 -11h6h6q-20 13 -36 34.5t-16 48.5q0 45 31.5 68t71.5 23q23 0 47 -8l-8 -50q-10 2 -19 4t-20 2q-49 0 -49 -36q0 -20 12 -34.5t28.5 -23t28.5 -10.5q16 6 29.5 11.5t26.5 10.5l16 -48q-10 -5 -38 -16.5 t-60.5 -20.5t-57.5 -9q-26 0 -44.5 11t-32.5 11q-11 0 -17 -6t-14 -17zM289 -5q-80 0 -122 18t-58 56t-19 98l-18 477h82l18 -445q2 -49 9.5 -75.5t34 -36.5t83.5 -10q21 0 30.5 -11.5t9.5 -27.5t-14 -29.5t-36 -13.5z" />
<glyph unicode="&#x673;" horiz-adv-x="291" d="M242 0h-24l-171 1q11 241 -43 555l142 44q21 -234 19 -473h77v-127zM-18 -296l-41 24q12 28 33 40.5t39 12.5q26 0 43 -11t35 -11h6h6q-20 13 -36 34.5t-16 48.5q0 45 31.5 68t71.5 23q23 0 47 -8l-8 -50q-10 2 -19 4t-20 2q-49 0 -49 -36q0 -20 12 -34.5t28.5 -23 t28.5 -10.5q16 6 29.5 11.5t26.5 10.5l16 -48q-10 -5 -38 -16.5t-60.5 -20.5t-57.5 -9q-26 0 -44.5 11t-32.5 11q-11 0 -17 -6t-14 -17z" />
<glyph unicode="&#x675;" horiz-adv-x="411" d="M218 578l-12 54q15 3 26 6t21 5q-19 13 -33 34t-14 46q0 45 31.5 68t71.5 23q23 0 47 -8l-8 -50q-10 2 -19 4t-20 2q-49 0 -49 -36q0 -26 19.5 -43t38.5 -22q38 11 67 22l16 -51q-24 -9 -56.5 -19t-65.5 -19t-61 -16zM411 -5h-122q-79 0 -121 18t-58 56.5t-18 97.5 l-20 547h82l20 -515q2 -48 9.5 -74.5t33 -37t81.5 -10.5h123q21 0 30.5 -11.5t9.5 -27.5t-14 -29.5t-36 -13.5z" />
<glyph unicode="&#x676;" horiz-adv-x="472" d="M98 177q-4 -57 98 -55q3 42 -14 79.5t-55 21.5q-27 -14 -29 -46zM348 127v-127h-63q-15 -78 -84 -181h-182q162 133 190 181v14q-181 12 -195 136q-3 64 38.5 128.5t98.5 56.5q72 -10 112 -81q26 -49 34 -127h51zM298 387l-12 54q15 3 26 6t21 5q-19 13 -33 34t-14 46 q0 45 31.5 68t71.5 23q23 0 47 -8l-8 -50q-10 2 -19 4t-20 2q-49 0 -49 -36q0 -26 19.5 -43t38.5 -22q38 11 67 22l16 -51q-24 -9 -56.5 -19t-65.5 -19t-61 -16z" />
<glyph unicode="&#x677;" horiz-adv-x="531" d="M157 177q-4 -57 98 -55q3 42 -14 79.5t-55 21.5q-27 -14 -29 -46zM407 127v-127h-63q-15 -78 -84 -181h-182q162 133 190 181v14q-181 12 -195 136q-3 64 38.5 128.5t98.5 56.5q72 -10 112 -81q26 -49 34 -127h51zM368 387l-12 54q15 3 26 6t21 5q-19 13 -33 34t-14 46 q0 45 31.5 68t71.5 23q23 0 47 -8l-8 -50q-10 2 -19 4t-20 2q-49 0 -49 -36q0 -26 19.5 -43t38.5 -22q38 11 67 22l16 -51q-24 -9 -56.5 -19t-65.5 -19t-61 -16zM96 -61q-1 -53 -49 -98q-23 -26 -72 -47l-46 29q69 24 91 35l2 4q-72 54 -30 116q45 47 82 16q25 -20 22 -55z M19 -51q-15 -21 23 -43q11 15 13 32.5t-15 19.5q-14 2 -21 -9z" />
<glyph unicode="&#x678;" horiz-adv-x="350" d="M0 -5l10 82q49 0 78 6t42 24.5t13 55.5q0 38 -17.5 95.5t-39.5 114.5l81 30q13 -32 24.5 -73t19.5 -81t8 -70q0 -100 -53.5 -142t-165.5 -42zM167 578l-12 54q15 3 26 6t21 5q-19 13 -33 34t-14 46q0 45 31.5 68t71.5 23q23 0 47 -8l-8 -50q-10 2 -19 4t-20 2 q-49 0 -49 -36q0 -26 19.5 -43t38.5 -22q38 11 67 22l16 -51q-24 -9 -56.5 -19t-65.5 -19t-61 -16z" />
<glyph unicode="&#x678;" horiz-adv-x="343" d="M0 -5l10 82q42 0 66 7.5t36.5 29t21.5 62.5t22 107l78 -15q-6 -27 -13.5 -62t-7.5 -59q0 -20 9 -36t39 -25t92 -9q21 0 30.5 -11.5t9.5 -27.5t-14 -29.5t-36 -13.5q-79 0 -117 17t-52 51q-30 -42 -69 -55t-105 -13zM163 409l-12 54q15 3 26 6t21 5q-19 13 -33 34t-14 46 q0 45 31.5 68t71.5 23q23 0 47 -8l-8 -50q-10 2 -19 4t-20 2q-49 0 -49 -36q0 -26 19.5 -43t38.5 -22q38 11 67 22l16 -51q-24 -9 -56.5 -19t-65.5 -19t-61 -16z" />
<glyph unicode="&#x678;" horiz-adv-x="736" d="M443 127v-127l-25 -1q34 -48 -28 -142q-63 -98 -175 -91q-190 9 -175 179q8 82 61 190l64 42q-29 -100 -38 -123q-34 -116 37 -156q36 -18 110 -2.5t90 48.5q-15 51 -85 79q5 36 19 122q55 -20 111 -18h34zM500 205l-12 54q15 3 26 6t21 5q-19 13 -33 34t-14 46 q0 45 31.5 68t71.5 23q23 0 47 -8l-8 -50q-10 2 -19 4t-20 2q-49 0 -49 -36q0 -26 19.5 -43t38.5 -22q38 11 67 22l16 -51q-24 -9 -56.5 -19t-65.5 -19t-61 -16z" />
<glyph unicode="&#x67c;" horiz-adv-x="299" d="M218 507q-21 0 -35.5 14.5t-14.5 34.5t14.5 35t35.5 15q20 0 34.5 -15t14.5 -35t-14.5 -34.5t-34.5 -14.5zM81 507q-21 0 -35.5 14.5t-14.5 34.5t14.5 35t35.5 15q20 0 34.5 -15t14.5 -35t-14.5 -34.5t-34.5 -14.5zM0 -5l10 82q59 0 92 4.5t47 23t14 58.5 q0 38 -17.5 95.5t-39.5 114.5l81 30q13 -32 24.5 -73t19.5 -81t8 -70q0 -97 -52 -139q16 -12 26 -31t10 -41q0 -37 -26 -63t-63 -26t-63 26t-26 63q0 15 5 29q-23 -2 -50 -2zM134 -70q17 0 29 11t12 27q0 17 -12 28.5t-29 11.5t-29 -11.5t-12 -28.5q0 -16 12 -27t29 -11z " />
<glyph unicode="&#x67c;" horiz-adv-x="343" d="M257 386q-21 0 -35.5 14.5t-14.5 34.5t14.5 35t35.5 15q20 0 34.5 -15t14.5 -35t-14.5 -34.5t-34.5 -14.5zM120 386q-21 0 -35.5 14.5t-14.5 34.5t14.5 35t35.5 15q20 0 34.5 -15t14.5 -35t-14.5 -34.5t-34.5 -14.5zM0 -5l10 82q42 0 66 7.5t36.5 29t21.5 62.5t22 107 l78 -15q-6 -27 -13.5 -62t-7.5 -59q0 -20 9 -36t39 -25t92 -9q21 0 30.5 -11.5t9.5 -27.5t-14 -29.5t-36 -13.5q-79 0 -117 17t-52 51q-9 -13 -19 -23q18 -12 29 -31.5t11 -42.5q0 -37 -26 -63t-63 -26t-63 26t-26 63q0 15 5 29h-22zM106 -72q17 0 29 11t12 27 q0 17 -12 28.5t-29 11.5t-29 -11.5t-12 -28.5q0 -16 12 -27t29 -11z" />
<glyph unicode="&#x67c;" horiz-adv-x="1093" d="M558 401q-21 0 -35.5 14.5t-14.5 34.5t14.5 35t35.5 15q20 0 34.5 -15t14.5 -35t-14.5 -34.5t-34.5 -14.5zM421 401q-21 0 -35.5 14.5t-14.5 34.5t14.5 35t35.5 15q20 0 34.5 -15t14.5 -35t-14.5 -34.5t-34.5 -14.5zM390 -21q-178 0 -269 47t-91 156q0 37 9 78.5t19 78.5 l75 -19q-6 -22 -13.5 -55.5t-7.5 -59.5q0 -52 26.5 -83.5t92.5 -46t185 -14.5q61 0 129 7.5t135.5 27t128.5 53.5t107 86l63 -37q-9 -23 -12 -36.5t-3 -24.5q0 -15 11 -28.5t41.5 -22.5t86.5 -9q21 0 30.5 -11.5t9.5 -27.5t-14 -29.5t-36 -13.5q-88 0 -144.5 26t-57.5 85 q-54 -42 -130.5 -70t-167.5 -42q16 -23 16 -51q0 -37 -26 -63t-63 -26t-63 26t-26 63q0 19 8 37q-24 -1 -49 -1zM520 -95q17 0 29 11t12 27q0 17 -12 28.5t-29 11.5t-29 -11.5t-12 -28.5q0 -16 12 -27t29 -11z" />
<glyph unicode="&#x67d;" horiz-adv-x="299" d="M82 617q-21 0 -35.5 14.5t-14.5 34.5t14.5 35t35.5 15q20 0 34.5 -15t14.5 -35t-14.5 -34.5t-34.5 -14.5zM218 617q-21 0 -35.5 14.5t-14.5 34.5t14.5 35t35.5 15q20 0 34.5 -15t14.5 -35t-14.5 -34.5t-34.5 -14.5zM150 507q-21 0 -35.5 14.5t-14.5 34.5t14.5 35t35.5 15 q20 0 34.5 -15t14.5 -35t-14.5 -34.5t-34.5 -14.5zM0 -5l10 82q59 0 92 4.5t47 23t14 58.5q0 38 -17.5 95.5t-39.5 114.5l81 30q13 -32 24.5 -73t19.5 -81t8 -70q0 -100 -56 -142t-183 -42z" />
<glyph unicode="&#x67d;" horiz-adv-x="373" d="M131 496q-21 0 -35.5 14.5t-14.5 34.5t14.5 35t35.5 15q20 0 34.5 -15t14.5 -35t-14.5 -34.5t-34.5 -14.5zM267 496q-21 0 -35.5 14.5t-14.5 34.5t14.5 35t35.5 15q20 0 34.5 -15t14.5 -35t-14.5 -34.5t-34.5 -14.5zM199 386q-21 0 -35.5 14.5t-14.5 34.5t14.5 35 t35.5 15q20 0 34.5 -15t14.5 -35t-14.5 -34.5t-34.5 -14.5zM0 -5l10 82q50 0 78 7.5t42.5 29t23.5 62.5t22 107l78 -15q-6 -27 -13.5 -62t-7.5 -59q0 -15 2 -28t15 -22t44 -14.5t89 -5.5q21 0 30.5 -11.5t9.5 -27.5t-14 -29.5t-36 -13.5q-65 0 -101.5 7.5t-54 22t-25.5 36.5 q-29 -41 -71.5 -53.5t-120.5 -12.5z" />
<glyph unicode="&#x67d;" horiz-adv-x="1093" d="M390 -21q-178 0 -269 47t-91 156q0 37 9 78.5t19 78.5l75 -19q-6 -22 -13.5 -55.5t-7.5 -59.5q0 -52 26.5 -83.5t92.5 -46t185 -14.5q61 0 129 7.5t135.5 27t128.5 53.5t107 86l63 -37q-9 -23 -12 -36.5t-3 -24.5q0 -15 11 -28.5t41.5 -22.5t86.5 -9q21 0 30.5 -11.5 t9.5 -27.5t-14 -29.5t-36 -13.5q-88 0 -144.5 26t-57.5 85q-83 -64 -215 -95.5t-286 -31.5zM422 511q-21 0 -35.5 14.5t-14.5 34.5t14.5 35t35.5 15q20 0 34.5 -15t14.5 -35t-14.5 -34.5t-34.5 -14.5zM558 511q-21 0 -35.5 14.5t-14.5 34.5t14.5 35t35.5 15q20 0 34.5 -15 t14.5 -35t-14.5 -34.5t-34.5 -14.5zM490 401q-21 0 -35.5 14.5t-14.5 34.5t14.5 35t35.5 15q20 0 34.5 -15t14.5 -35t-14.5 -34.5t-34.5 -14.5z" />
<glyph unicode="&#x681;" horiz-adv-x="589" d="M78 127q77 0 94.5 6t51 27.5t34.5 25.5q-50 39 -52 39q-55 30 -78 36q-44 11 -73 -26l-35 -12q2 84 20 114q57 89 175 9q16 -11 82.5 -61.5t106.5 -59.5l10 -2l-28 -73q-35 -5 -66 -34l-39 -45q-56 -62 -137 -71q-9 -1 -65 0h-80v127h79zM76 462l-12 54q15 3 26 6t21 5 q-19 13 -33 34t-14 46q0 45 31.5 68t71.5 23q23 0 47 -8l-8 -50q-10 2 -19 4t-20 2q-49 0 -49 -36q0 -26 19.5 -43t38.5 -22q38 11 67 22l16 -51q-24 -9 -56.5 -19t-65.5 -19t-61 -16z" />
<glyph unicode="&#x681;" horiz-adv-x="637" d="M-1 0v127h79q78 -1 95.5 6t51 28.5t35.5 24.5q-51 39 -53 40q-55 31 -78 37q-44 12 -74 -27l-35 -12q1 85 20 114.5t46 40.5q51 21 129 -31q17 -11 82.5 -61t108.5 -61l10 -2l-29 -73q-29 -5 -54 -24h100v-127q-120 0 -173 49q-17 -14 -30 -20q-46 -24 -85 -29 q-9 -1 -65 0h-81zM66 462l-12 54q15 3 26 6t21 5q-19 13 -33 34t-14 46q0 45 31.5 68t71.5 23q23 0 47 -8l-8 -50q-10 2 -19 4t-20 2q-49 0 -49 -36q0 -26 19.5 -43t38.5 -22q38 11 67 22l16 -51q-24 -9 -56.5 -19t-65.5 -19t-61 -16z" />
<glyph unicode="&#x681;" horiz-adv-x="649" d="M486 127v-127q-53 -1 -115.5 21t-96.5 60q-146 -67 -137 -159q8 -85 118 -106q75 -14 177 3q27 4 49 10l-42 -66q-66 -39 -151 -50t-146.5 13t-91 70.5t-29.5 107.5q0 78 56 133q51 60 161 128l71 39q-25 9 -64.5 30.5t-62.5 27.5q-45 12 -75 -26l-35 -12q1 85 20 114 q58 90 176 10q17 -11 83 -61.5t108 -60.5l10 -3l-29 -73q-18 -9 -57 -23h103zM221 526l-12 54q15 3 26 6t21 5q-19 13 -33 34t-14 46q0 45 31.5 68t71.5 23q23 0 47 -8l-8 -50q-10 2 -19 4t-20 2q-49 0 -49 -36q0 -26 19.5 -43t38.5 -22q38 11 67 22l16 -51 q-24 -9 -56.5 -19t-65.5 -19t-61 -16z" />
<glyph unicode="&#x682;" horiz-adv-x="589" d="M78 127q77 0 94.5 6t51 27.5t34.5 25.5q-50 39 -52 39q-55 30 -78 36q-44 11 -73 -26l-35 -12q2 84 20 114q57 89 175 9q16 -11 82.5 -61.5t106.5 -59.5l10 -2l-28 -73q-35 -5 -66 -34l-39 -45q-56 -62 -137 -71q-9 -1 -65 0h-80v127h79zM166 584q-21 0 -35.5 14.5 t-14.5 34.5t14.5 35t35.5 15q20 0 34.5 -15t14.5 -35t-14.5 -34.5t-34.5 -14.5zM167 455q-21 0 -35.5 14.5t-14.5 34.5t14.5 35t35.5 15q20 0 34.5 -15t14.5 -35t-14.5 -34.5t-34.5 -14.5z" />
<glyph unicode="&#x682;" horiz-adv-x="637" d="M-1 0v127h79q78 -1 95.5 6t51 28.5t35.5 24.5q-51 39 -53 40q-55 31 -78 37q-44 12 -74 -27l-35 -12q1 85 20 114.5t46 40.5q51 21 129 -31q17 -11 82.5 -61t108.5 -61l10 -2l-29 -73q-29 -5 -54 -24h100v-127q-120 0 -173 49q-17 -14 -30 -20q-46 -24 -85 -29 q-9 -1 -65 0h-81zM156 584q-21 0 -35.5 14.5t-14.5 34.5t14.5 35t35.5 15q20 0 34.5 -15t14.5 -35t-14.5 -34.5t-34.5 -14.5zM157 455q-21 0 -35.5 14.5t-14.5 34.5t14.5 35t35.5 15q20 0 34.5 -15t14.5 -35t-14.5 -34.5t-34.5 -14.5z" />
<glyph unicode="&#x682;" horiz-adv-x="649" d="M486 127v-127q-53 -1 -115.5 21t-96.5 60q-146 -67 -137 -159q8 -85 118 -106q75 -14 177 3q27 4 49 10l-42 -66q-66 -39 -151 -50t-146.5 13t-91 70.5t-29.5 107.5q0 78 56 133q51 60 161 128l71 39q-25 9 -64.5 30.5t-62.5 27.5q-45 12 -75 -26l-35 -12q1 85 20 114 q58 90 176 10q17 -11 83 -61.5t108 -60.5l10 -3l-29 -73q-18 -9 -57 -23h103zM311 648q-21 0 -35.5 14.5t-14.5 34.5t14.5 35t35.5 15q20 0 34.5 -15t14.5 -35t-14.5 -34.5t-34.5 -14.5zM312 519q-21 0 -35.5 14.5t-14.5 34.5t14.5 35t35.5 15q20 0 34.5 -15t14.5 -35 t-14.5 -34.5t-34.5 -14.5z" />
<glyph unicode="&#x685;" horiz-adv-x="589" d="M78 127q77 0 94.5 6t51 27.5t34.5 25.5q-50 39 -52 39q-55 30 -78 36q-44 11 -73 -26l-35 -12q2 84 20 114q57 89 175 9q16 -11 82.5 -61.5t106.5 -59.5l10 -2l-28 -73q-35 -5 -66 -34l-39 -45q-56 -62 -137 -71q-9 -1 -65 0h-80v127h79zM169 565q-21 0 -35.5 14.5 t-14.5 34.5t14.5 35t35.5 15q20 0 34.5 -15t14.5 -35t-14.5 -34.5t-34.5 -14.5zM101 455q-21 0 -35.5 14.5t-14.5 34.5t14.5 35t35.5 15q20 0 34.5 -15t14.5 -35t-14.5 -34.5t-34.5 -14.5zM237 455q-21 0 -35.5 14.5t-14.5 34.5t14.5 35t35.5 15q20 0 34.5 -15t14.5 -35 t-14.5 -34.5t-34.5 -14.5z" />
<glyph unicode="&#x685;" horiz-adv-x="637" d="M-1 0v127h79q78 -1 95.5 6t51 28.5t35.5 24.5q-51 39 -53 40q-55 31 -78 37q-44 12 -74 -27l-35 -12q1 85 20 114.5t46 40.5q51 21 129 -31q17 -11 82.5 -61t108.5 -61l10 -2l-29 -73q-29 -5 -54 -24h100v-127q-120 0 -173 49q-17 -14 -30 -20q-46 -24 -85 -29 q-9 -1 -65 0h-81zM159 565q-21 0 -35.5 14.5t-14.5 34.5t14.5 35t35.5 15q20 0 34.5 -15t14.5 -35t-14.5 -34.5t-34.5 -14.5zM91 455q-21 0 -35.5 14.5t-14.5 34.5t14.5 35t35.5 15q20 0 34.5 -15t14.5 -35t-14.5 -34.5t-34.5 -14.5zM227 455q-21 0 -35.5 14.5t-14.5 34.5 t14.5 35t35.5 15q20 0 34.5 -15t14.5 -35t-14.5 -34.5t-34.5 -14.5z" />
<glyph unicode="&#x685;" horiz-adv-x="649" d="M486 127v-127q-53 -1 -115.5 21t-96.5 60q-146 -67 -137 -159q8 -85 118 -106q75 -14 177 3q27 4 49 10l-42 -66q-66 -39 -151 -50t-146.5 13t-91 70.5t-29.5 107.5q0 78 56 133q51 60 161 128l71 39q-25 9 -64.5 30.5t-62.5 27.5q-45 12 -75 -26l-35 -12q1 85 20 114 q58 90 176 10q17 -11 83 -61.5t108 -60.5l10 -3l-29 -73q-18 -9 -57 -23h103zM314 629q-21 0 -35.5 14.5t-14.5 34.5t14.5 35t35.5 15q20 0 34.5 -15t14.5 -35t-14.5 -34.5t-34.5 -14.5zM246 519q-21 0 -35.5 14.5t-14.5 34.5t14.5 35t35.5 15q20 0 34.5 -15t14.5 -35 t-14.5 -34.5t-34.5 -14.5zM382 519q-21 0 -35.5 14.5t-14.5 34.5t14.5 35t35.5 15q20 0 34.5 -15t14.5 -35t-14.5 -34.5t-34.5 -14.5z" />
<glyph unicode="&#x689;" horiz-adv-x="532" d="M215 77q74 0 105 22.5t31 62.5q0 26 -18 67t-47.5 91.5t-65.5 103.5l69 45q58 -89 94.5 -162.5t54.5 -132.5q14 -44 31.5 -65t36.5 -26.5t35 -5.5q21 0 31 -11.5t10 -27.5t-14 -29.5t-36 -13.5q-39 0 -75 17t-58 58q-14 -24 -40.5 -42t-68.5 -27q13 -22 13 -47 q0 -37 -26 -63t-63 -26t-63 26t-26 63q0 26 13 47q-63 13 -103 44l40 69q20 -13 56 -25t84 -12zM214 -84q17 0 29 11t12 27q0 17 -12 28.5t-29 11.5t-29 -11.5t-12 -28.5q0 -16 12 -27t29 -11z" />
<glyph unicode="&#x68a;" horiz-adv-x="532" d="M377 127v-127h-22q-19 14 -32 35l-4 -15q0 -5 -3 -20q-132 -4 -286 0v127q106 -20 196 0q-25 115 -73 204l121 53q53 -130 55 -257h48zM234 -191q-21 0 -35.5 14.5t-14.5 34.5t14.5 35t35.5 15q20 0 34.5 -15t14.5 -35t-14.5 -34.5t-34.5 -14.5z" />
<glyph unicode="&#x68b;" horiz-adv-x="532" d="M377 127v-127h-22q-19 14 -32 35l-4 -15q0 -5 -3 -20q-132 -4 -286 0v127q106 -20 196 0q-25 115 -73 204l121 53q53 -130 55 -257h48zM224 588q-18 0 -42.5 1.5t-46.5 3.5l-33 3l2 58q6 -1 13 -1.5t15 -1.5q10 18 22 34l-5 162h55l5 -106q18 13 37.5 20.5t39.5 7.5 q38 0 60 -23t22 -57q0 -20 -11.5 -43.5t-42.5 -40.5t-90 -17zM278 710q-18 0 -35 -11t-31.5 -26t-22.5 -26q16 -1 28 -1q49 0 71 10.5t22 27.5q0 14 -9 20t-23 6zM234 -191q-21 0 -35.5 14.5t-14.5 34.5t14.5 35t35.5 15q20 0 34.5 -15t14.5 -35t-14.5 -34.5t-34.5 -14.5z " />
<glyph unicode="&#x68f;" horiz-adv-x="532" d="M377 127v-127h-22q-19 14 -32 35l-4 -15q0 -5 -3 -20q-132 -4 -286 0v127q106 -20 196 0q-25 115 -73 204l121 53q53 -130 55 -257h48zM155 670q-21 0 -35.5 14.5t-14.5 34.5t14.5 35t35.5 15q20 0 34.5 -15t14.5 -35t-14.5 -34.5t-34.5 -14.5zM291 670q-21 0 -35.5 14.5 t-14.5 34.5t14.5 35t35.5 15q20 0 34.5 -15t14.5 -35t-14.5 -34.5t-34.5 -14.5zM223 560q-21 0 -35.5 14.5t-14.5 34.5t14.5 35t35.5 15q20 0 34.5 -15t14.5 -35t-14.5 -34.5t-34.5 -14.5z" />
<glyph unicode="&#x690;" horiz-adv-x="532" d="M377 127v-127h-22q-19 14 -32 35l-4 -15q0 -5 -3 -20q-132 -4 -286 0v127q106 -20 196 0q-25 115 -73 204l121 53q53 -130 55 -257h48zM155 685q-21 0 -35.5 14.5t-14.5 34.5t14.5 35t35.5 15q20 0 34.5 -15t14.5 -35t-14.5 -34.5t-34.5 -14.5zM291 685q-21 0 -35.5 14.5 t-14.5 34.5t14.5 35t35.5 15q20 0 34.5 -15t14.5 -35t-14.5 -34.5t-34.5 -14.5zM155 560q-21 0 -35.5 14.5t-14.5 34.5t14.5 35t35.5 15q20 0 34.5 -15t14.5 -35t-14.5 -34.5t-34.5 -14.5zM291 560q-21 0 -35.5 14.5t-14.5 34.5t14.5 35t35.5 15q20 0 34.5 -15t14.5 -35 t-14.5 -34.5t-34.5 -14.5z" />
<glyph unicode="&#x692;" horiz-adv-x="396" d="M290 127v-127h-12q-16 13 -29 29q-3 -55 -11 -80q-24 -77 -65 -136h-184q150 122 179 212q-2 2 -83 207l132 41q25 -99 32 -146h41zM134 485q-9 20 -25 53.5t-32.5 67t-29.5 54.5l46 25q7 -12 20 -36.5t27.5 -52t24.5 -49.5q11 26 24 55.5t24 53t16 31.5l45 -19 q-5 -10 -16 -32.5t-23.5 -50t-24 -53t-17.5 -41.5z" />
<glyph unicode="&#x693;" horiz-adv-x="396" d="M4 -232l-29 76q97 32 151.5 76t77 92.5t22.5 94.5q0 49 -21.5 99.5t-47.5 95.5l73 37q28 -53 47.5 -102t30.5 -86q14 -43 36.5 -58.5t61.5 -15.5q21 0 30.5 -11.5t9.5 -27.5t-14 -29.5t-36 -13.5q-38 0 -63.5 12t-41.5 32q-4 -24 -13 -46t-21 -42q31 -6 52 -30.5 t21 -57.5q0 -37 -26 -63t-63 -26q-32 0 -55.5 19.5t-30.5 48.5q-39 -28 -78.5 -47t-72.5 -27zM241 -175q17 0 29 11t12 27q0 17 -12 28.5t-29 11.5t-29 -11.5t-12 -28.5q0 -16 12 -27t29 -11z" />
<glyph unicode="&#x694;" horiz-adv-x="396" d="M290 127v-127h-12q-16 13 -29 29q-3 -55 -11 -80q-24 -77 -65 -136h-184q150 122 179 212q-2 2 -83 207l132 41q25 -99 32 -146h41zM83 -403q-21 0 -35.5 14.5t-14.5 34.5t14.5 35t35.5 15q20 0 34.5 -15t14.5 -35t-14.5 -34.5t-34.5 -14.5z" />
<glyph unicode="&#x695;" horiz-adv-x="396" d="M4 -232l-29 76q97 32 151.5 76t77 92.5t22.5 94.5q0 49 -21.5 99.5t-47.5 95.5l73 37q28 -53 47.5 -102t30.5 -86q14 -43 36.5 -58.5t61.5 -15.5q21 0 30.5 -11.5t9.5 -27.5t-14 -29.5t-36 -13.5q-38 0 -63.5 12t-41.5 32q-10 -56 -42 -102t-75 -80.5t-88 -56.5t-82 -32z M45 -57l-20.5 41t-26 50.5t-23.5 42.5l37 20q6 -9 16.5 -27.5t21.5 -39.5t20 -38q8 20 18.5 42.5t19.5 40t13 24.5l36 -15q-6 -11 -19 -37t-26.5 -54.5t-19.5 -44.5z" />
<glyph unicode="&#x696;" horiz-adv-x="396" d="M290 127v-127h-12q-16 13 -29 29q-3 -55 -11 -80q-24 -77 -65 -136h-184q150 122 179 212q-2 2 -83 207l132 41q25 -99 32 -146h41zM71 -7q-21 0 -35.5 14.5t-14.5 34.5t14.5 35t35.5 15q20 0 34.5 -15t14.5 -35t-14.5 -34.5t-34.5 -14.5zM83 -403q-21 0 -35.5 14.5 t-14.5 34.5t14.5 35t35.5 15q20 0 34.5 -15t14.5 -35t-14.5 -34.5t-34.5 -14.5z" />
<glyph unicode="&#x697;" horiz-adv-x="396" d="M290 127v-127h-12q-16 13 -29 29q-3 -55 -11 -80q-24 -77 -65 -136h-184q150 122 179 212q-2 2 -83 207l132 41q25 -99 32 -146h41zM233 454q-21 0 -35.5 14.5t-14.5 34.5t14.5 35t35.5 15q20 0 34.5 -15t14.5 -35t-14.5 -34.5t-34.5 -14.5zM96 454q-21 0 -35.5 14.5 t-14.5 34.5t14.5 35t35.5 15q20 0 34.5 -15t14.5 -35t-14.5 -34.5t-34.5 -14.5z" />
<glyph unicode="&#x699;" horiz-adv-x="396" d="M290 127v-127h-12q-16 13 -29 29q-3 -55 -11 -80q-24 -77 -65 -136h-184q150 122 179 212q-2 2 -83 207l132 41q25 -99 32 -146h41zM97 579q-21 0 -35.5 14.5t-14.5 34.5t14.5 35t35.5 15q20 0 34.5 -15t14.5 -35t-14.5 -34.5t-34.5 -14.5zM233 579q-21 0 -35.5 14.5 t-14.5 34.5t14.5 35t35.5 15q20 0 34.5 -15t14.5 -35t-14.5 -34.5t-34.5 -14.5zM97 454q-21 0 -35.5 14.5t-14.5 34.5t14.5 35t35.5 15q20 0 34.5 -15t14.5 -35t-14.5 -34.5t-34.5 -14.5zM233 454q-21 0 -35.5 14.5t-14.5 34.5t14.5 35t35.5 15q20 0 34.5 -15t14.5 -35 t-14.5 -34.5t-34.5 -14.5z" />
<glyph unicode="&#x69a;" horiz-adv-x="784" d="M427 0q-46 0 -77 43q0 -18 -3 -43h-91q-63 0 -144 43q-50 -43 -66 -43h-47v127h58q4 20 -4 98l102 38q1 -28 -9 -136h103q0 38 -34 137l134 38q2 -32 2 -175q44 -6 111 0q-4 39 -42 161l135 63q16 -111 15 -224l-2 -93q0 -10 -3 -34h-138zM386 -191q-21 0 -35.5 14.5 t-14.5 34.5t14.5 35t35.5 15q20 0 34.5 -15t14.5 -35t-14.5 -34.5t-34.5 -14.5zM429 435q-21 0 -35.5 14.5t-14.5 34.5t14.5 35t35.5 15q20 0 34.5 -15t14.5 -35t-14.5 -34.5t-34.5 -14.5z" />
<glyph unicode="&#x69a;" horiz-adv-x="850" d="M570 127h54v-127h-24q-16 14 -32 34q0 -10 -3 -34h-138q-46 0 -77 43q0 -18 -3 -43h-91q-63 0 -144 43q-50 -43 -66 -43h-47v127h58q4 20 -4 98l102 38q1 -28 -9 -136h103q0 38 -34 137l134 38q2 -32 2 -175q44 -6 111 0q-4 39 -42 161l135 63q15 -111 15 -224zM386 -191 q-21 0 -35.5 14.5t-14.5 34.5t14.5 35t35.5 15q20 0 34.5 -15t14.5 -35t-14.5 -34.5t-34.5 -14.5zM429 435q-21 0 -35.5 14.5t-14.5 34.5t14.5 35t35.5 15q20 0 34.5 -15t14.5 -35t-14.5 -34.5t-34.5 -14.5z" />
<glyph unicode="&#x69a;" horiz-adv-x="1269" d="M535 127q0 36 -41 142l135 35q1 -26 5 -84.5t4 -92.5q17 -2 55 -1t43 1q2 32 -10.5 87t-29.5 99l140 42q13 -91 15.5 -140t5.5 -88h54v-127h-23q-20 15 -34 34v-16q-1 -12 0 -18h-142q-15 0 -37 9t-40 33v-42h-119q-15 0 -37 9t-41 33v-42q-9 -115 -88 -180 q-46 -35 -129 -35q-55 0 -101.5 28.5t-71 79.5t-12 99t29.5 95l59 43q-7 -32 -8.5 -100t32 -93.5t71.5 -26.5q94 1 113 80q15 64 -0.5 134t-34.5 109l132 38q13 -76 12 -144h93zM848 -186q-21 0 -35.5 14.5t-14.5 34.5t14.5 35t35.5 15q20 0 34.5 -15t14.5 -35t-14.5 -34.5 t-34.5 -14.5zM822 435q-21 0 -35.5 14.5t-14.5 34.5t14.5 35t35.5 15q20 0 34.5 -15t14.5 -35t-14.5 -34.5t-34.5 -14.5z" />
<glyph unicode="&#x69b;" horiz-adv-x="784" d="M427 0q-46 0 -77 43q0 -18 -3 -43h-91q-63 0 -144 43q-50 -43 -66 -43h-47v127h58q4 20 -4 98l102 38q1 -28 -9 -136h103q0 38 -34 137l134 38q2 -32 2 -175q44 -6 111 0q-4 39 -42 161l135 63q16 -111 15 -224l-2 -93q0 -10 -3 -34h-138zM318 -194q-21 0 -35.5 14.5 t-14.5 34.5t14.5 35t35.5 15q20 0 34.5 -15t14.5 -35t-14.5 -34.5t-34.5 -14.5zM454 -194q-21 0 -35.5 14.5t-14.5 34.5t14.5 35t35.5 15q20 0 34.5 -15t14.5 -35t-14.5 -34.5t-34.5 -14.5zM386 -304q-21 0 -35.5 14.5t-14.5 34.5t14.5 35t35.5 15q20 0 34.5 -15t14.5 -35 t-14.5 -34.5t-34.5 -14.5z" />
<glyph unicode="&#x69b;" horiz-adv-x="850" d="M570 127h54v-127h-24q-16 14 -32 34q0 -10 -3 -34h-138q-46 0 -77 43q0 -18 -3 -43h-91q-63 0 -144 43q-50 -43 -66 -43h-47v127h58q4 20 -4 98l102 38q1 -28 -9 -136h103q0 38 -34 137l134 38q2 -32 2 -175q44 -6 111 0q-4 39 -42 161l135 63q15 -111 15 -224zM318 -194 q-21 0 -35.5 14.5t-14.5 34.5t14.5 35t35.5 15q20 0 34.5 -15t14.5 -35t-14.5 -34.5t-34.5 -14.5zM454 -194q-21 0 -35.5 14.5t-14.5 34.5t14.5 35t35.5 15q20 0 34.5 -15t14.5 -35t-14.5 -34.5t-34.5 -14.5zM386 -304q-21 0 -35.5 14.5t-14.5 34.5t14.5 35t35.5 15 q20 0 34.5 -15t14.5 -35t-14.5 -34.5t-34.5 -14.5z" />
<glyph unicode="&#x69b;" horiz-adv-x="1269" d="M535 127q0 36 -41 142l135 35q1 -26 5 -84.5t4 -92.5q17 -2 55 -1t43 1q2 32 -10.5 87t-29.5 99l140 42q13 -91 15.5 -140t5.5 -88h54v-127h-23q-20 15 -34 34v-16q-1 -12 0 -18h-142q-15 0 -37 9t-40 33v-42h-119q-15 0 -37 9t-41 33v-42q-9 -115 -88 -180 q-46 -35 -129 -35q-55 0 -101.5 28.5t-71 79.5t-12 99t29.5 95l59 43q-7 -32 -8.5 -100t32 -93.5t71.5 -26.5q94 1 113 80q15 64 -0.5 134t-34.5 109l132 38q13 -76 12 -144h93zM780 -189q-21 0 -35.5 14.5t-14.5 34.5t14.5 35t35.5 15q20 0 34.5 -15t14.5 -35t-14.5 -34.5 t-34.5 -14.5zM916 -189q-21 0 -35.5 14.5t-14.5 34.5t14.5 35t35.5 15q20 0 34.5 -15t14.5 -35t-14.5 -34.5t-34.5 -14.5zM848 -299q-21 0 -35.5 14.5t-14.5 34.5t14.5 35t35.5 15q20 0 34.5 -15t14.5 -35t-14.5 -34.5t-34.5 -14.5z" />
<glyph unicode="&#x69c;" horiz-adv-x="784" d="M427 0q-46 0 -77 43q0 -18 -3 -43h-91q-63 0 -144 43q-50 -43 -66 -43h-47v127h58q4 20 -4 98l102 38q1 -28 -9 -136h103q0 38 -34 137l134 38q2 -32 2 -175q44 -6 111 0q-4 39 -42 161l135 63q16 -111 15 -224l-2 -93q0 -10 -3 -34h-138zM431 545q-21 0 -35.5 14.5 t-14.5 34.5t14.5 35t35.5 15q20 0 34.5 -15t14.5 -35t-14.5 -34.5t-34.5 -14.5zM363 435q-21 0 -35.5 14.5t-14.5 34.5t14.5 35t35.5 15q20 0 34.5 -15t14.5 -35t-14.5 -34.5t-34.5 -14.5zM499 435q-21 0 -35.5 14.5t-14.5 34.5t14.5 35t35.5 15q20 0 34.5 -15t14.5 -35 t-14.5 -34.5t-34.5 -14.5zM318 -194q-21 0 -35.5 14.5t-14.5 34.5t14.5 35t35.5 15q20 0 34.5 -15t14.5 -35t-14.5 -34.5t-34.5 -14.5zM454 -194q-21 0 -35.5 14.5t-14.5 34.5t14.5 35t35.5 15q20 0 34.5 -15t14.5 -35t-14.5 -34.5t-34.5 -14.5zM386 -304q-21 0 -35.5 14.5 t-14.5 34.5t14.5 35t35.5 15q20 0 34.5 -15t14.5 -35t-14.5 -34.5t-34.5 -14.5z" />
<glyph unicode="&#x69c;" horiz-adv-x="850" d="M570 127h54v-127h-24q-16 14 -32 34q0 -10 -3 -34h-138q-46 0 -77 43q0 -18 -3 -43h-91q-63 0 -144 43q-50 -43 -66 -43h-47v127h58q4 20 -4 98l102 38q1 -28 -9 -136h103q0 38 -34 137l134 38q2 -32 2 -175q44 -6 111 0q-4 39 -42 161l135 63q15 -111 15 -224zM431 545 q-21 0 -35.5 14.5t-14.5 34.5t14.5 35t35.5 15q20 0 34.5 -15t14.5 -35t-14.5 -34.5t-34.5 -14.5zM363 435q-21 0 -35.5 14.5t-14.5 34.5t14.5 35t35.5 15q20 0 34.5 -15t14.5 -35t-14.5 -34.5t-34.5 -14.5zM499 435q-21 0 -35.5 14.5t-14.5 34.5t14.5 35t35.5 15 q20 0 34.5 -15t14.5 -35t-14.5 -34.5t-34.5 -14.5zM318 -194q-21 0 -35.5 14.5t-14.5 34.5t14.5 35t35.5 15q20 0 34.5 -15t14.5 -35t-14.5 -34.5t-34.5 -14.5zM454 -194q-21 0 -35.5 14.5t-14.5 34.5t14.5 35t35.5 15q20 0 34.5 -15t14.5 -35t-14.5 -34.5t-34.5 -14.5z M386 -304q-21 0 -35.5 14.5t-14.5 34.5t14.5 35t35.5 15q20 0 34.5 -15t14.5 -35t-14.5 -34.5t-34.5 -14.5z" />
<glyph unicode="&#x69c;" horiz-adv-x="1269" d="M535 127q0 36 -41 142l135 35q1 -26 5 -84.5t4 -92.5q17 -2 55 -1t43 1q2 32 -10.5 87t-29.5 99l140 42q13 -91 15.5 -140t5.5 -88h54v-127h-23q-20 15 -34 34v-16q-1 -12 0 -18h-142q-15 0 -37 9t-40 33v-42h-119q-15 0 -37 9t-41 33v-42q-9 -115 -88 -180 q-46 -35 -129 -35q-55 0 -101.5 28.5t-71 79.5t-12 99t29.5 95l59 43q-7 -32 -8.5 -100t32 -93.5t71.5 -26.5q94 1 113 80q15 64 -0.5 134t-34.5 109l132 38q13 -76 12 -144h93zM824 545q-21 0 -35.5 14.5t-14.5 34.5t14.5 35t35.5 15q20 0 34.5 -15t14.5 -35t-14.5 -34.5 t-34.5 -14.5zM756 435q-21 0 -35.5 14.5t-14.5 34.5t14.5 35t35.5 15q20 0 34.5 -15t14.5 -35t-14.5 -34.5t-34.5 -14.5zM892 435q-21 0 -35.5 14.5t-14.5 34.5t14.5 35t35.5 15q20 0 34.5 -15t14.5 -35t-14.5 -34.5t-34.5 -14.5zM780 -189q-21 0 -35.5 14.5t-14.5 34.5 t14.5 35t35.5 15q20 0 34.5 -15t14.5 -35t-14.5 -34.5t-34.5 -14.5zM916 -189q-21 0 -35.5 14.5t-14.5 34.5t14.5 35t35.5 15q20 0 34.5 -15t14.5 -35t-14.5 -34.5t-34.5 -14.5zM848 -299q-21 0 -35.5 14.5t-14.5 34.5t14.5 35t35.5 15q20 0 34.5 -15t14.5 -35t-14.5 -34.5 t-34.5 -14.5z" />
<glyph unicode="&#x69d;" horiz-adv-x="903" d="M43 0h-44v127h58q2 16 -6 84l102 36q7 -38 -7 -116l10 -4q34 89 103 159q93 96 204 75q69 -12 93 -104q19 -97 -20 -257q-200 -21 -387 5q-16 -41 -15 -51l-23 25q5 17 10 32q-14 8 -23 13q-23 -24 -55 -24zM371 243q-101 0 -167 -118q177 -23 255 0q0 118 -88 118z M556 -207q-21 0 -35.5 14.5t-14.5 34.5t14.5 35t35.5 15q20 0 34.5 -15t14.5 -35t-14.5 -34.5t-34.5 -14.5zM419 -207q-21 0 -35.5 14.5t-14.5 34.5t14.5 35t35.5 15q20 0 34.5 -15t14.5 -35t-14.5 -34.5t-34.5 -14.5z" />
<glyph unicode="&#x69d;" horiz-adv-x="949" d="M44 0h-45v127h59q3 18 -6 84l102 36q6 -38 -6 -116l10 -3q34 88 103 158q91 98 202 76q71 -13 93 -105q10 -53 4 -130h41v-127h-26q-16 16 -31 37q-4 -18 -7 -34q-201 -23 -387 2q-7 -21 -11 -32t-4 -19l-23 25q4 19 10 34q-13 6 -22 11q-24 -24 -56 -24zM373 243 q-103 0 -168 -118q178 -23 254 0q0 118 -86 118zM556 -207q-21 0 -35.5 14.5t-14.5 34.5t14.5 35t35.5 15q20 0 34.5 -15t14.5 -35t-14.5 -34.5t-34.5 -14.5zM419 -207q-21 0 -35.5 14.5t-14.5 34.5t14.5 35t35.5 15q20 0 34.5 -15t14.5 -35t-14.5 -34.5t-34.5 -14.5z" />
<glyph unicode="&#x69d;" horiz-adv-x="1352" d="M669 239q-104 0 -163 -119q184 -17 250 3q0 116 -87 116zM449 126h4q31 83 104 158q77 77 156 81q115 -6 140 -110q13 -52 5 -128h40v-127h-24q-17 15 -31 35q-4 -18 -10 -34q-243 -25 -386 0q-24 -226 -218 -226q-81 0 -143 62.5t-44 141.5q25 79 31 99l59 42 q-5 -18 -10 -102q0 -110 107 -121q166 10 112 220q-16 68 -35 99l134 39q9 -49 9 -129zM976 -202q-21 0 -35.5 14.5t-14.5 34.5t14.5 35t35.5 15q20 0 34.5 -15t14.5 -35t-14.5 -34.5t-34.5 -14.5zM839 -202q-21 0 -35.5 14.5t-14.5 34.5t14.5 35t35.5 15q20 0 34.5 -15 t14.5 -35t-14.5 -34.5t-34.5 -14.5z" />
<glyph unicode="&#x69e;" horiz-adv-x="903" d="M43 0h-44v127h58q2 16 -6 84l102 36q7 -38 -7 -116l10 -4q34 89 103 159q93 96 204 75q69 -12 93 -104q19 -97 -20 -257q-200 -21 -387 5q-16 -41 -15 -51l-23 25q5 17 10 32q-14 8 -23 13q-23 -24 -55 -24zM371 243q-101 0 -167 -118q177 -23 255 0q0 118 -88 118z M654 582q-21 0 -35.5 14.5t-14.5 34.5t14.5 35t35.5 15q20 0 34.5 -15t14.5 -35t-14.5 -34.5t-34.5 -14.5zM586 472q-21 0 -35.5 14.5t-14.5 34.5t14.5 35t35.5 15q20 0 34.5 -15t14.5 -35t-14.5 -34.5t-34.5 -14.5zM722 472q-21 0 -35.5 14.5t-14.5 34.5t14.5 35t35.5 15 q20 0 34.5 -15t14.5 -35t-14.5 -34.5t-34.5 -14.5z" />
<glyph unicode="&#x69e;" horiz-adv-x="949" d="M44 0h-45v127h59q3 18 -6 84l102 36q6 -38 -6 -116l10 -3q34 88 103 158q91 98 202 76q71 -13 93 -105q10 -53 4 -130h41v-127h-26q-16 16 -31 37q-4 -18 -7 -34q-201 -23 -387 2q-7 -21 -11 -32t-4 -19l-23 25q4 19 10 34q-13 6 -22 11q-24 -24 -56 -24zM373 243 q-103 0 -168 -118q178 -23 254 0q0 118 -86 118zM654 582q-21 0 -35.5 14.5t-14.5 34.5t14.5 35t35.5 15q20 0 34.5 -15t14.5 -35t-14.5 -34.5t-34.5 -14.5zM586 472q-21 0 -35.5 14.5t-14.5 34.5t14.5 35t35.5 15q20 0 34.5 -15t14.5 -35t-14.5 -34.5t-34.5 -14.5zM722 472 q-21 0 -35.5 14.5t-14.5 34.5t14.5 35t35.5 15q20 0 34.5 -15t14.5 -35t-14.5 -34.5t-34.5 -14.5z" />
<glyph unicode="&#x69e;" horiz-adv-x="1352" d="M669 239q-104 0 -163 -119q184 -17 250 3q0 116 -87 116zM449 126h4q31 83 104 158q77 77 156 81q115 -6 140 -110q13 -52 5 -128h40v-127h-24q-17 15 -31 35q-4 -18 -10 -34q-243 -25 -386 0q-24 -226 -218 -226q-81 0 -143 62.5t-44 141.5q25 79 31 99l59 42 q-5 -18 -10 -102q0 -110 107 -121q166 10 112 220q-16 68 -35 99l134 39q9 -49 9 -129zM1057 587q-21 0 -35.5 14.5t-14.5 34.5t14.5 35t35.5 15q20 0 34.5 -15t14.5 -35t-14.5 -34.5t-34.5 -14.5zM989 477q-21 0 -35.5 14.5t-14.5 34.5t14.5 35t35.5 15q20 0 34.5 -15 t14.5 -35t-14.5 -34.5t-34.5 -14.5zM1125 477q-21 0 -35.5 14.5t-14.5 34.5t14.5 35t35.5 15q20 0 34.5 -15t14.5 -35t-14.5 -34.5t-34.5 -14.5z" />
<glyph unicode="&#x69f;" horiz-adv-x="677" d="M-1 0v127h52l10 24q-5 166 -13 213l-24 183l117 55l24 -83l-19 -56l-5 -167l-4 -28q10 11 42 38q83 69 177 54q70 -16 93 -106q20 -100 -19 -254q-220 -6 -379 0h-52zM267 242q-94 0 -148 -120q130 -4 235 0q0 120 -87 120zM408 582q-21 0 -35.5 14.5t-14.5 34.5t14.5 35 t35.5 15q20 0 34.5 -15t14.5 -35t-14.5 -34.5t-34.5 -14.5zM340 472q-21 0 -35.5 14.5t-14.5 34.5t14.5 35t35.5 15q20 0 34.5 -15t14.5 -35t-14.5 -34.5t-34.5 -14.5zM476 472q-21 0 -35.5 14.5t-14.5 34.5t14.5 35t35.5 15q20 0 34.5 -15t14.5 -35t-14.5 -34.5 t-34.5 -14.5z" />
<glyph unicode="&#x69f;" horiz-adv-x="710" d="M495 127v-127h-24q-18 14 -33 34q-3 -24 -8 -34q-220 -5 -379 0h-52v127h52l10 24q-5 162 -13 209l-24 183l117 56l24 -83l-19 -56l-5 -167l-4 -29q9 11 42 39q83 68 176 53q71 -15 94 -104q10 -53 4 -125h42zM267 238q-94 0 -150 -120q132 -3 237 0q0 120 -87 120z M408 582q-21 0 -35.5 14.5t-14.5 34.5t14.5 35t35.5 15q20 0 34.5 -15t14.5 -35t-14.5 -34.5t-34.5 -14.5zM340 472q-21 0 -35.5 14.5t-14.5 34.5t14.5 35t35.5 15q20 0 34.5 -15t14.5 -35t-14.5 -34.5t-34.5 -14.5zM476 472q-21 0 -35.5 14.5t-14.5 34.5t14.5 35t35.5 15 q20 0 34.5 -15t14.5 -35t-14.5 -34.5t-34.5 -14.5z" />
<glyph unicode="&#x69f;" horiz-adv-x="831" d="M308 243q-94 0 -150 -118q131 -5 235 0q0 118 -85 118zM531 127v-127h-24q-18 15 -32 34q-3 -25 -8 -34h-425l-26 127h71l10 23q-7 165 -14 210l-22 183l116 56l24 -82l-18 -57l-6 -167l-4 -29q9 11 42 39q83 68 177 53q71 -15 93 -104q10 -53 4 -125h42zM519 587 q-21 0 -35.5 14.5t-14.5 34.5t14.5 35t35.5 15q20 0 34.5 -15t14.5 -35t-14.5 -34.5t-34.5 -14.5zM451 477q-21 0 -35.5 14.5t-14.5 34.5t14.5 35t35.5 15q20 0 34.5 -15t14.5 -35t-14.5 -34.5t-34.5 -14.5zM587 477q-21 0 -35.5 14.5t-14.5 34.5t14.5 35t35.5 15 q20 0 34.5 -15t14.5 -35t-14.5 -34.5t-34.5 -14.5z" />
<glyph unicode="&#x6a0;" horiz-adv-x="503" d="M48 0h-49v127h40q-35 146 72 235.5t221 -71.5l-63 -23q-103 35 -133 -31.5t19 -111.5q48 -5 191 17l-12 -124q-110 -18 -286 -18zM267 652q-21 0 -35.5 14.5t-14.5 34.5t14.5 35t35.5 15q20 0 34.5 -15t14.5 -35t-14.5 -34.5t-34.5 -14.5zM199 542q-21 0 -35.5 14.5 t-14.5 34.5t14.5 35t35.5 15q20 0 34.5 -15t14.5 -35t-14.5 -34.5t-34.5 -14.5zM335 542q-21 0 -35.5 14.5t-14.5 34.5t14.5 35t35.5 15q20 0 34.5 -15t14.5 -35t-14.5 -34.5t-34.5 -14.5z" />
<glyph unicode="&#x6a0;" horiz-adv-x="521" d="M420 127v-127q-186 -2 -222 46q-67 -44 -139 -46h-60v127h58q61 0 69 12q42 74 -111 112l67 130q269 62 313 -51q35 -91 -76 -203h101zM224 187q98 82 72 97q-18 12 -161 -6q68 -19 89 -91zM277 624q-21 0 -35.5 14.5t-14.5 34.5t14.5 35t35.5 15q20 0 34.5 -15t14.5 -35 t-14.5 -34.5t-34.5 -14.5zM209 514q-21 0 -35.5 14.5t-14.5 34.5t14.5 35t35.5 15q20 0 34.5 -15t14.5 -35t-14.5 -34.5t-34.5 -14.5zM345 514q-21 0 -35.5 14.5t-14.5 34.5t14.5 35t35.5 15q20 0 34.5 -15t14.5 -35t-14.5 -34.5t-34.5 -14.5z" />
<glyph unicode="&#x6a0;" horiz-adv-x="531" d="M370 0q-111 0 -146 76q-55 -31 -69 -56.5t-15 -50.5q-7 -96 99 -132q86 -29 194 -14q25 5 48 10l-42 -63q-127 -74 -262 -47q-152 32 -153 185q0 58 13 88.5t31.5 51t60 51.5t52.5 41q20 26 -19 60q-36 35 -109 53l65 131q21 5 31 6q237 43 286 -62q45 -99 -120 -200 q-3 -2 127 -1h26v-127h-98zM171 281q68 -21 91 -92q98 82 71 98q-16 11 -162 -6zM297 624q-21 0 -35.5 14.5t-14.5 34.5t14.5 35t35.5 15q20 0 34.5 -15t14.5 -35t-14.5 -34.5t-34.5 -14.5zM229 514q-21 0 -35.5 14.5t-14.5 34.5t14.5 35t35.5 15q20 0 34.5 -15t14.5 -35 t-14.5 -34.5t-34.5 -14.5zM365 514q-21 0 -35.5 14.5t-14.5 34.5t14.5 35t35.5 15q20 0 34.5 -15t14.5 -35t-14.5 -34.5t-34.5 -14.5z" />
<glyph unicode="&#x6a1;" horiz-adv-x="447" d="M0 -5l10 82q33 0 75.5 0.5t82.5 4t63 11.5q32 11 51.5 28.5t29.5 45.5q-18 -6 -38.5 -8.5t-40.5 -2.5q-76 0 -117.5 36t-41.5 91q0 38 12 76.5t34 70.5t53 51.5t69 19.5q54 0 89.5 -35t53 -91.5t17.5 -119.5q0 -75 -25.5 -128.5t-84.5 -88.5q-31 -18 -77.5 -27.5 t-101.5 -12.5t-113 -3zM153 303q0 -31 20 -49.5t69 -18.5q43 0 82 12v14q0 42 -11 78t-31 58t-48 22q-23 0 -41.5 -17.5t-29 -44.5t-10.5 -54z" />
<glyph unicode="&#x6a1;" horiz-adv-x="495" d="M0 -5l10 82q34 0 70.5 1t70.5 5q-24 22 -47 57t-23 85q0 54 25 97t65 68t85 25q49 0 86 -27t57.5 -68.5t20.5 -86.5q0 -47 -19 -84t-51 -65q40 -3 82 -5t73 -2q21 0 30.5 -11.5t9.5 -27.5t-14 -29.5t-36 -13.5q-61 0 -127 9.5t-116 23.5q-16 -6 -33 -11 q-46 -13 -105 -17.5t-114 -4.5zM163 223q0 -39 24 -68.5t54 -47.5q41 18 69 48t28 72q0 23 -11 47.5t-30 41.5t-44 17q-24 0 -44.5 -16t-33 -41.5t-12.5 -52.5z" />
<glyph unicode="&#x6a1;" horiz-adv-x="1098" d="M390 -21q-178 0 -269 47t-91 156q0 37 9 78.5t19 78.5l75 -19q-6 -22 -13.5 -55.5t-7.5 -59.5q0 -52 26.5 -83.5t92.5 -46t185 -14.5q110 0 197 6.5t141 15.5q-24 20 -47 54.5t-23 84.5q0 54 24.5 97.5t64.5 69.5t86 26q49 0 86 -27.5t57.5 -70t20.5 -87.5 q0 -47 -19 -83.5t-52 -63.5q41 -3 83 -4.5t73 -1.5q21 0 30.5 -11.5t9.5 -27.5t-14 -29.5t-36 -13.5q-129 0 -242 33q-16 -6 -34 -11q-30 -9 -95.5 -17.5t-153 -14.5t-183.5 -6zM766 220q0 -40 25.5 -67.5t56.5 -44.5q39 18 66 46.5t27 69.5q0 23 -11 48t-30 43t-44 18 q-24 0 -44.5 -17t-33 -43t-12.5 -53z" />
<glyph unicode="&#x6a2;" horiz-adv-x="447" d="M0 -5l10 82q33 0 75.5 0.5t82.5 4t63 11.5q32 11 51.5 28.5t29.5 45.5q-18 -6 -38.5 -8.5t-40.5 -2.5q-76 0 -117.5 36t-41.5 91q0 38 12 76.5t34 70.5t53 51.5t69 19.5q54 0 89.5 -35t53 -91.5t17.5 -119.5q0 -75 -25.5 -128.5t-84.5 -88.5q-31 -18 -77.5 -27.5 t-101.5 -12.5t-113 -3zM153 303q0 -31 20 -49.5t69 -18.5q43 0 82 12v14q0 42 -11 78t-31 58t-48 22q-23 0 -41.5 -17.5t-29 -44.5t-10.5 -54zM202 -191q-21 0 -35.5 14.5t-14.5 34.5t14.5 35t35.5 15q20 0 34.5 -15t14.5 -35t-14.5 -34.5t-34.5 -14.5z" />
<glyph unicode="&#x6a2;" horiz-adv-x="495" d="M0 -5l10 82q34 0 70.5 1t70.5 5q-24 22 -47 57t-23 85q0 54 25 97t65 68t85 25q49 0 86 -27t57.5 -68.5t20.5 -86.5q0 -47 -19 -84t-51 -65q40 -3 82 -5t73 -2q21 0 30.5 -11.5t9.5 -27.5t-14 -29.5t-36 -13.5q-61 0 -127 9.5t-116 23.5q-16 -6 -33 -11 q-46 -13 -105 -17.5t-114 -4.5zM163 223q0 -39 24 -68.5t54 -47.5q41 18 69 48t28 72q0 23 -11 47.5t-30 41.5t-44 17q-24 0 -44.5 -16t-33 -41.5t-12.5 -52.5zM243 -191q-21 0 -35.5 14.5t-14.5 34.5t14.5 35t35.5 15q20 0 34.5 -15t14.5 -35t-14.5 -34.5t-34.5 -14.5z" />
<glyph unicode="&#x6a2;" horiz-adv-x="1098" d="M390 -21q-178 0 -269 47t-91 156q0 37 9 78.5t19 78.5l75 -19q-6 -22 -13.5 -55.5t-7.5 -59.5q0 -52 26.5 -83.5t92.5 -46t185 -14.5q110 0 197 6.5t141 15.5q-24 20 -47 54.5t-23 84.5q0 54 24.5 97.5t64.5 69.5t86 26q49 0 86 -27.5t57.5 -70t20.5 -87.5 q0 -47 -19 -83.5t-52 -63.5q41 -3 83 -4.5t73 -1.5q21 0 30.5 -11.5t9.5 -27.5t-14 -29.5t-36 -13.5q-129 0 -242 33q-16 -6 -34 -11q-30 -9 -95.5 -17.5t-153 -14.5t-183.5 -6zM766 220q0 -40 25.5 -67.5t56.5 -44.5q39 18 66 46.5t27 69.5q0 23 -11 48t-30 43t-44 18 q-24 0 -44.5 -17t-33 -43t-12.5 -53zM460 -211q-21 0 -35.5 14.5t-14.5 34.5t14.5 35t35.5 15q20 0 34.5 -15t14.5 -35t-14.5 -34.5t-34.5 -14.5z" />
<glyph unicode="&#x6a3;" horiz-adv-x="447" d="M0 -5l10 82q33 0 75.5 0.5t82.5 4t63 11.5q32 11 51.5 28.5t29.5 45.5q-18 -6 -38.5 -8.5t-40.5 -2.5q-76 0 -117.5 36t-41.5 91q0 38 12 76.5t34 70.5t53 51.5t69 19.5q54 0 89.5 -35t53 -91.5t17.5 -119.5q0 -75 -25.5 -128.5t-84.5 -88.5q-31 -18 -77.5 -27.5 t-101.5 -12.5t-113 -3zM153 303q0 -31 20 -49.5t69 -18.5q43 0 82 12v14q0 42 -11 78t-31 58t-48 22q-23 0 -41.5 -17.5t-29 -44.5t-10.5 -54zM223 604q-21 0 -35.5 14.5t-14.5 34.5t14.5 35t35.5 15q20 0 34.5 -15t14.5 -35t-14.5 -34.5t-34.5 -14.5zM202 -191 q-21 0 -35.5 14.5t-14.5 34.5t14.5 35t35.5 15q20 0 34.5 -15t14.5 -35t-14.5 -34.5t-34.5 -14.5z" />
<glyph unicode="&#x6a3;" horiz-adv-x="495" d="M0 -5l10 82q34 0 70.5 1t70.5 5q-24 22 -47 57t-23 85q0 54 25 97t65 68t85 25q49 0 86 -27t57.5 -68.5t20.5 -86.5q0 -47 -19 -84t-51 -65q40 -3 82 -5t73 -2q21 0 30.5 -11.5t9.5 -27.5t-14 -29.5t-36 -13.5q-61 0 -127 9.5t-116 23.5q-16 -6 -33 -11 q-46 -13 -105 -17.5t-114 -4.5zM163 223q0 -39 24 -68.5t54 -47.5q41 18 69 48t28 72q0 23 -11 47.5t-30 41.5t-44 17q-24 0 -44.5 -16t-33 -41.5t-12.5 -52.5zM247 518q-21 0 -35.5 14.5t-14.5 34.5t14.5 35t35.5 15q20 0 34.5 -15t14.5 -35t-14.5 -34.5t-34.5 -14.5z M243 -191q-21 0 -35.5 14.5t-14.5 34.5t14.5 35t35.5 15q20 0 34.5 -15t14.5 -35t-14.5 -34.5t-34.5 -14.5z" />
<glyph unicode="&#x6a3;" horiz-adv-x="1098" d="M390 -21q-178 0 -269 47t-91 156q0 37 9 78.5t19 78.5l75 -19q-6 -22 -13.5 -55.5t-7.5 -59.5q0 -52 26.5 -83.5t92.5 -46t185 -14.5q110 0 197 6.5t141 15.5q-24 20 -47 54.5t-23 84.5q0 54 24.5 97.5t64.5 69.5t86 26q49 0 86 -27.5t57.5 -70t20.5 -87.5 q0 -47 -19 -83.5t-52 -63.5q41 -3 83 -4.5t73 -1.5q21 0 30.5 -11.5t9.5 -27.5t-14 -29.5t-36 -13.5q-129 0 -242 33q-16 -6 -34 -11q-30 -9 -95.5 -17.5t-153 -14.5t-183.5 -6zM766 220q0 -40 25.5 -67.5t56.5 -44.5q39 18 66 46.5t27 69.5q0 23 -11 48t-30 43t-44 18 q-24 0 -44.5 -17t-33 -43t-12.5 -53zM850 518q-21 0 -35.5 14.5t-14.5 34.5t14.5 35t35.5 15q20 0 34.5 -15t14.5 -35t-14.5 -34.5t-34.5 -14.5zM460 -211q-21 0 -35.5 14.5t-14.5 34.5t14.5 35t35.5 15q20 0 34.5 -15t14.5 -35t-14.5 -34.5t-34.5 -14.5z" />
<glyph unicode="&#x6a5;" horiz-adv-x="447" d="M0 -5l10 82q33 0 75.5 0.5t82.5 4t63 11.5q32 11 51.5 28.5t29.5 45.5q-18 -6 -38.5 -8.5t-40.5 -2.5q-76 0 -117.5 36t-41.5 91q0 38 12 76.5t34 70.5t53 51.5t69 19.5q54 0 89.5 -35t53 -91.5t17.5 -119.5q0 -75 -25.5 -128.5t-84.5 -88.5q-31 -18 -77.5 -27.5 t-101.5 -12.5t-113 -3zM153 303q0 -31 20 -49.5t69 -18.5q43 0 82 12v14q0 42 -11 78t-31 58t-48 22q-23 0 -41.5 -17.5t-29 -44.5t-10.5 -54zM134 -194q-21 0 -35.5 14.5t-14.5 34.5t14.5 35t35.5 15q20 0 34.5 -15t14.5 -35t-14.5 -34.5t-34.5 -14.5zM270 -194 q-21 0 -35.5 14.5t-14.5 34.5t14.5 35t35.5 15q20 0 34.5 -15t14.5 -35t-14.5 -34.5t-34.5 -14.5zM202 -304q-21 0 -35.5 14.5t-14.5 34.5t14.5 35t35.5 15q20 0 34.5 -15t14.5 -35t-14.5 -34.5t-34.5 -14.5z" />
<glyph unicode="&#x6a5;" horiz-adv-x="495" d="M0 -5l10 82q34 0 70.5 1t70.5 5q-24 22 -47 57t-23 85q0 54 25 97t65 68t85 25q49 0 86 -27t57.5 -68.5t20.5 -86.5q0 -47 -19 -84t-51 -65q40 -3 82 -5t73 -2q21 0 30.5 -11.5t9.5 -27.5t-14 -29.5t-36 -13.5q-61 0 -127 9.5t-116 23.5q-16 -6 -33 -11 q-46 -13 -105 -17.5t-114 -4.5zM163 223q0 -39 24 -68.5t54 -47.5q41 18 69 48t28 72q0 23 -11 47.5t-30 41.5t-44 17q-24 0 -44.5 -16t-33 -41.5t-12.5 -52.5zM175 -194q-21 0 -35.5 14.5t-14.5 34.5t14.5 35t35.5 15q20 0 34.5 -15t14.5 -35t-14.5 -34.5t-34.5 -14.5z M311 -194q-21 0 -35.5 14.5t-14.5 34.5t14.5 35t35.5 15q20 0 34.5 -15t14.5 -35t-14.5 -34.5t-34.5 -14.5zM243 -304q-21 0 -35.5 14.5t-14.5 34.5t14.5 35t35.5 15q20 0 34.5 -15t14.5 -35t-14.5 -34.5t-34.5 -14.5z" />
<glyph unicode="&#x6a5;" horiz-adv-x="1098" d="M390 -21q-178 0 -269 47t-91 156q0 37 9 78.5t19 78.5l75 -19q-6 -22 -13.5 -55.5t-7.5 -59.5q0 -52 26.5 -83.5t92.5 -46t185 -14.5q110 0 197 6.5t141 15.5q-24 20 -47 54.5t-23 84.5q0 54 24.5 97.5t64.5 69.5t86 26q49 0 86 -27.5t57.5 -70t20.5 -87.5 q0 -47 -19 -83.5t-52 -63.5q41 -3 83 -4.5t73 -1.5q21 0 30.5 -11.5t9.5 -27.5t-14 -29.5t-36 -13.5q-129 0 -242 33q-16 -6 -34 -11q-30 -9 -95.5 -17.5t-153 -14.5t-183.5 -6zM766 220q0 -40 25.5 -67.5t56.5 -44.5q39 18 66 46.5t27 69.5q0 23 -11 48t-30 43t-44 18 q-24 0 -44.5 -17t-33 -43t-12.5 -53zM392 -214q-21 0 -35.5 14.5t-14.5 34.5t14.5 35t35.5 15q20 0 34.5 -15t14.5 -35t-14.5 -34.5t-34.5 -14.5zM528 -214q-21 0 -35.5 14.5t-14.5 34.5t14.5 35t35.5 15q20 0 34.5 -15t14.5 -35t-14.5 -34.5t-34.5 -14.5zM460 -324 q-21 0 -35.5 14.5t-14.5 34.5t14.5 35t35.5 15q20 0 34.5 -15t14.5 -35t-14.5 -34.5t-34.5 -14.5z" />
<glyph unicode="&#x6a7;" horiz-adv-x="808" d="M326 -272q-79 0 -146.5 24.5t-108.5 76.5t-41 136q0 23 9 73.5t48 121.5l73 -34q-23 -47 -33.5 -81t-10.5 -65q0 -62 31.5 -99t84 -53t116.5 -16q116 0 189.5 41.5t93.5 102.5q6 17 10 39h-72q-45 0 -83 12.5t-61 40.5t-25 73q-1 37 11.5 74t35.5 68t54 49.5t67 18.5 q67 0 114 -61t50 -193h86q21 0 30.5 -11.5t9.5 -27.5t-14 -29.5t-36 -13.5h-85q-5 -23 -13 -48t-19 -48q-32 -62 -86.5 -100t-125.5 -54.5t-153 -16.5zM607 77h43q0 83 -26 128t-64 45q-21 0 -39 -16.5t-29.5 -42.5t-11.5 -55q0 -35 31.5 -47t95.5 -12zM569 434 q-21 0 -35.5 14.5t-14.5 34.5t14.5 35t35.5 15q20 0 34.5 -15t14.5 -35t-14.5 -34.5t-34.5 -14.5z" />
<glyph unicode="&#x6a8;" horiz-adv-x="808" d="M326 -272q-79 0 -146.5 24.5t-108.5 76.5t-41 136q0 23 9 73.5t48 121.5l73 -34q-23 -47 -33.5 -81t-10.5 -65q0 -62 31.5 -99t84 -53t116.5 -16q116 0 189.5 41.5t93.5 102.5q6 17 10 39h-72q-45 0 -83 12.5t-61 40.5t-25 73q-1 37 11.5 74t35.5 68t54 49.5t67 18.5 q67 0 114 -61t50 -193h86q21 0 30.5 -11.5t9.5 -27.5t-14 -29.5t-36 -13.5h-85q-5 -23 -13 -48t-19 -48q-32 -62 -86.5 -100t-125.5 -54.5t-153 -16.5zM607 77h43q0 83 -26 128t-64 45q-21 0 -39 -16.5t-29.5 -42.5t-11.5 -55q0 -35 31.5 -47t95.5 -12zM571 544 q-21 0 -35.5 14.5t-14.5 34.5t14.5 35t35.5 15q20 0 34.5 -15t14.5 -35t-14.5 -34.5t-34.5 -14.5zM503 434q-21 0 -35.5 14.5t-14.5 34.5t14.5 35t35.5 15q20 0 34.5 -15t14.5 -35t-14.5 -34.5t-34.5 -14.5zM639 434q-21 0 -35.5 14.5t-14.5 34.5t14.5 35t35.5 15 q20 0 34.5 -15t14.5 -35t-14.5 -34.5t-34.5 -14.5z" />
<glyph unicode="&#x6aa;" horiz-adv-x="763" d="M0 -5l10 82h281q110 0 187.5 2.5t119 15t41.5 40.5q0 18 -18 36.5t-68.5 33t-148.5 20.5q-107 7 -172 18t-94 33t-29 60q0 41 30 76.5t82.5 65t119.5 53t141 40.5l16 -72q-92 -21 -161.5 -47.5t-108 -53.5t-38.5 -50q0 -14 20.5 -22.5t67.5 -14.5t126 -13q95 -7 155 -21 t94 -33.5t47 -44.5t13 -54q0 -62 -45 -94.5t-138 -44t-239 -11.5h-291z" />
<glyph unicode="&#x6aa;" horiz-adv-x="838" d="M0 -5l10 82h281q110 0 187.5 2.5t119 15t41.5 40.5q0 18 -18 36.5t-68.5 33t-148.5 20.5q-107 7 -172 18t-94 33t-29 60q0 41 30 76.5t82.5 65t119.5 53t141 40.5l16 -72q-92 -21 -161.5 -47.5t-108 -53.5t-38.5 -50q0 -14 20.5 -22.5t67.5 -14.5t126 -13q95 -7 155 -21 t94 -33.5t47 -44.5t13 -54q0 -25 -7 -45v0q35 -14 72.5 -18.5t69.5 -4.5q21 0 30.5 -11.5t9.5 -27.5t-14 -29.5t-36 -13.5t-55 4t-68 13.5t-64 26.5q-49 -26 -138 -35t-222 -9h-291z" />
<glyph unicode="&#x6aa;" horiz-adv-x="1091" d="M546 -15q-48 0 -112.5 1t-134 3t-133.5 6t-111 9l6 80q67 -4 147.5 -8t167 -6.5t170.5 -2.5q164 0 256 12.5t92 55.5q0 18 -18 36.5t-68.5 33t-148.5 20.5q-107 7 -172 18t-94 33t-29 60q0 41 30 76.5t82.5 65t119.5 53t141 40.5l16 -72q-92 -21 -161.5 -47.5t-108 -53.5 t-38.5 -50q0 -14 20.5 -22.5t67.5 -14.5t126 -13q95 -7 155 -21t94 -33.5t47 -44.5t13 -54q0 -25 -7 -46q35 -14 71.5 -18t68.5 -4q21 0 30.5 -11.5t9.5 -27.5t-14 -29.5t-36 -13.5t-54 3.5t-66 13t-63 25.5q-49 -29 -138.5 -40.5t-223.5 -11.5z" />
<glyph unicode="&#x6ab;" horiz-adv-x="412" d="M0 -5l10 82h94q59 0 93.5 6.5t51 17t22 23t5.5 25.5q0 23 -17.5 57t-71.5 88q-37 38 -74 67t-61 49t-24 29q0 23 5.5 43t15.5 31q40 43 125.5 86.5t213.5 107.5l34 -74q-19 -9 -35 -17q16 -12 26 -30.5t10 -40.5q0 -37 -26 -63t-63 -26t-63 26t-26 63v1 q-46 -23 -77.5 -41.5t-58.5 -37.5q117 -95 179.5 -170.5t62.5 -152.5q0 -22 -8 -48t-34 -49t-78 -37.5t-140 -14.5h-91zM334 507q17 0 29 11t12 27q0 17 -12 28.5t-29 11.5t-29 -11.5t-12 -28.5q0 -16 12 -27t29 -11z" />
<glyph unicode="&#x6ab;" horiz-adv-x="508" d="M0 -5l10 82h77q83 0 123 9t52.5 24t12.5 31q0 24 -18 53t-46 59.5t-59.5 60.5t-59.5 55t-46 43.5t-18 26.5q0 23 5.5 43t15.5 31q27 29 79.5 60.5t120.5 65t139 68.5l34 -74l-32 -16q16 -12 26 -30.5t10 -40.5q0 -37 -26 -63t-63 -26t-63 26t-26 63v1q-41 -21 -78 -41.5 t-68 -42.5q55 -47 103 -91t89 -94.5t75 -114.5q21 -39 49 -57t55.5 -23.5t44.5 -5.5q21 0 30.5 -11.5t9.5 -27.5t-14 -29.5t-36 -13.5q-24 0 -55.5 6.5t-63.5 25t-56 54.5q-20 -29 -50 -48t-78 -28.5t-122 -9.5h-83zM337 508q17 0 29 11t12 27q0 17 -12 28.5t-29 11.5 t-29 -11.5t-12 -28.5q0 -16 12 -27t29 -11z" />
<glyph unicode="&#x6ab;" horiz-adv-x="975" d="M390 -21q-178 0 -269 47t-91 156q0 37 9 78.5t19 78.5l75 -19q-6 -22 -13.5 -55.5t-7.5 -59.5q0 -52 26.5 -83.5t92.5 -46t185 -14.5q125 0 196 13t100.5 32t29.5 35q0 24 -18 53t-46 59.5t-59.5 60.5t-59.5 55t-46 43.5t-18 26.5q0 23 5.5 43t15.5 31q27 29 79.5 60.5 t120.5 65t139 68.5l34 -74l-32 -16q16 -12 26 -30.5t10 -40.5q0 -37 -26 -63t-63 -26t-63 26t-26 63v1q-41 -21 -78 -41.5t-68 -42.5q55 -47 103 -91t89 -94.5t75 -114.5q21 -39 49 -57t55.5 -23.5t44.5 -5.5q21 0 30.5 -11.5t9.5 -27.5t-14 -29.5t-36 -13.5q-24 0 -56 6.5 t-63.5 25t-55.5 54.5q-17 -22 -45 -41t-74.5 -32.5t-117.5 -21t-173 -7.5zM804 508q17 0 29 11t12 27q0 17 -12 28.5t-29 11.5t-29 -11.5t-12 -28.5q0 -16 12 -27t29 -11z" />
<glyph unicode="&#x6ac;" horiz-adv-x="412" d="M-1 0v127h283q3 60 -90 92q-36 14 -72 19l-27 -10l-55 34q-14 104 23 153q132 112 359 196v-125q-223 -58 -270 -138q159 -47 213 -113q79 -98 7 -235h-371zM203 713q-21 0 -35.5 14.5t-14.5 34.5t14.5 35t35.5 15q20 0 34.5 -15t14.5 -35t-14.5 -34.5t-34.5 -14.5z" />
<glyph unicode="&#x6ac;" horiz-adv-x="508" d="M452 0q-28 0 -63 49q-8 -26 -19 -49h-371v127h282q4 60 -89 92q-37 14 -72 19l-27 -10l-56 34q-13 104 24 153q130 112 359 196v-125q-223 -58 -270 -138q159 -49 211 -114q34 -41 37 -107h79v-127h-25zM171 713q-21 0 -35.5 14.5t-14.5 34.5t14.5 35t35.5 15 q20 0 34.5 -15t14.5 -35t-14.5 -34.5t-34.5 -14.5z" />
<glyph unicode="&#x6ac;" horiz-adv-x="922" d="M240 374q0 27 8 45q19 46 66 51t84 -31l-38 -24q-19 8 -33 8q-33 0 -33 -42q0 -21 26 -36q60 13 90 15v-62q-50 0 -180 -34v45q18 12 29 17q-19 21 -19 48zM504 126q0 48 -55 429l142 44l24 -82l-19 -55q10 -158 12 -335h69v-127h-39q-15 11 -33 35l-3 -35q-45 0 -134 -1 h-136q-308 10 -248 167q26 81 32 101l59 41q-5 -16 -10 -103q-3 -72 188 -79h151zM467 631q-21 0 -35.5 14.5t-14.5 34.5t14.5 35t35.5 15q20 0 34.5 -15t14.5 -35t-14.5 -34.5t-34.5 -14.5z" />
<glyph unicode="&#x6ae;" horiz-adv-x="412" d="M-1 0v127h283q3 60 -90 92q-36 14 -72 19l-27 -10l-55 34q-14 104 23 153q132 112 359 196v-125q-223 -58 -270 -138q159 -47 213 -113q79 -98 7 -235h-371zM95 -189q-21 0 -35.5 14.5t-14.5 34.5t14.5 35t35.5 15q20 0 34.5 -15t14.5 -35t-14.5 -34.5t-34.5 -14.5z M231 -189q-21 0 -35.5 14.5t-14.5 34.5t14.5 35t35.5 15q20 0 34.5 -15t14.5 -35t-14.5 -34.5t-34.5 -14.5zM163 -299q-21 0 -35.5 14.5t-14.5 34.5t14.5 35t35.5 15q20 0 34.5 -15t14.5 -35t-14.5 -34.5t-34.5 -14.5z" />
<glyph unicode="&#x6ae;" horiz-adv-x="508" d="M452 0q-28 0 -63 49q-8 -26 -19 -49h-371v127h282q4 60 -89 92q-37 14 -72 19l-27 -10l-56 34q-13 104 24 153q130 112 359 196v-125q-223 -58 -270 -138q159 -49 211 -114q34 -41 37 -107h79v-127h-25zM95 -189q-21 0 -35.5 14.5t-14.5 34.5t14.5 35t35.5 15 q20 0 34.5 -15t14.5 -35t-14.5 -34.5t-34.5 -14.5zM231 -189q-21 0 -35.5 14.5t-14.5 34.5t14.5 35t35.5 15q20 0 34.5 -15t14.5 -35t-14.5 -34.5t-34.5 -14.5zM163 -299q-21 0 -35.5 14.5t-14.5 34.5t14.5 35t35.5 15q20 0 34.5 -15t14.5 -35t-14.5 -34.5t-34.5 -14.5z" />
<glyph unicode="&#x6ae;" horiz-adv-x="922" d="M240 374q0 27 8 45q19 46 66 51t84 -31l-38 -24q-19 8 -33 8q-33 0 -33 -42q0 -21 26 -36q60 13 90 15v-62q-50 0 -180 -34v45q18 12 29 17q-19 21 -19 48zM504 126q0 48 -55 429l142 44l24 -82l-19 -55q10 -158 12 -335h69v-127h-39q-15 11 -33 35l-3 -35q-45 0 -134 -1 h-136q-308 10 -248 167q26 81 32 101l59 41q-5 -16 -10 -103q-3 -72 188 -79h151zM342 -210q-21 0 -35.5 14.5t-14.5 34.5t14.5 35t35.5 15q20 0 34.5 -15t14.5 -35t-14.5 -34.5t-34.5 -14.5zM478 -210q-21 0 -35.5 14.5t-14.5 34.5t14.5 35t35.5 15q20 0 34.5 -15t14.5 -35 t-14.5 -34.5t-34.5 -14.5zM410 -320q-21 0 -35.5 14.5t-14.5 34.5t14.5 35t35.5 15q20 0 34.5 -15t14.5 -35t-14.5 -34.5t-34.5 -14.5z" />
<glyph unicode="&#x6b0;" horiz-adv-x="412" d="M-1 550l-37 56q58 35 152.5 91.5t223.5 123.5l28 -61q-130 -69 -218 -120.5t-149 -89.5zM0 -5l10 82h94q59 0 93.5 6.5t51 17t22 23t5.5 25.5q0 23 -17.5 57t-71.5 88q-37 38 -74 67t-61 49t-24 29q0 23 5.5 43t15.5 31q40 43 125.5 86.5t213.5 107.5l34 -74 q-17 -8 -31 -15q16 -12 26 -30.5t10 -40.5q0 -37 -26 -63t-63 -26t-63 26t-26 63v1q-48 -24 -80 -42.5t-60 -38.5q117 -95 179.5 -170.5t62.5 -152.5q0 -22 -8 -48t-34 -49t-78 -37.5t-140 -14.5h-91zM338 509q17 0 29 11t12 27q0 17 -12 28.5t-29 11.5t-29 -11.5t-12 -28.5 q0 -16 12 -27t29 -11z" />
<glyph unicode="&#x6b0;" horiz-adv-x="508" d="M-1 550l-37 56q58 35 152.5 91.5t223.5 123.5l28 -61q-130 -69 -218 -120.5t-149 -89.5zM0 -5l10 82h77q83 0 123 9t52.5 24t12.5 31q0 24 -18 53t-46 59.5t-59.5 60.5t-59.5 55t-46 43.5t-18 26.5q0 23 5.5 43t15.5 31q27 29 79.5 60.5t120.5 65t139 68.5l34 -74 q-8 -4 -16.5 -8.5t-17.5 -8.5q16 -12 26 -30.5t10 -40.5q0 -37 -26 -63t-63 -26t-63 26t-26 63v1q-40 -20 -76.5 -41t-67.5 -42q55 -47 103 -91t89 -94.5t75 -114.5q21 -39 49 -57t55.5 -23.5t44.5 -5.5q21 0 30.5 -11.5t9.5 -27.5t-14 -29.5t-36 -13.5q-24 0 -55.5 6.5 t-63.5 25t-56 54.5q-20 -29 -50 -48t-78 -28.5t-122 -9.5h-83zM335 507q17 0 29 11t12 27q0 17 -12 28.5t-29 11.5t-29 -11.5t-12 -28.5q0 -16 12 -27t29 -11z" />
<glyph unicode="&#x6b0;" horiz-adv-x="975" d="M462 550l-37 56q58 35 152.5 91.5t223.5 123.5l28 -61q-130 -69 -218 -120.5t-149 -89.5zM390 -21q-178 0 -269 47t-91 156q0 37 9 78.5t19 78.5l75 -19q-6 -22 -13.5 -55.5t-7.5 -59.5q0 -52 26.5 -83.5t92.5 -46t185 -14.5q125 0 196 13t100.5 32t29.5 35q0 24 -18 53 t-46 59.5t-59.5 60.5t-59.5 55t-46 43.5t-18 26.5q0 23 5.5 43t15.5 31q27 29 79.5 60.5t120.5 65t139 68.5l34 -74l-26 -13q16 -12 26 -30.5t10 -40.5q0 -37 -26 -63t-63 -26t-63 26t-26 63v1q-42 -21 -81 -43t-71 -44q55 -47 103 -91t89 -94.5t75 -114.5q21 -39 49 -57 t55.5 -23.5t44.5 -5.5q21 0 30.5 -11.5t9.5 -27.5t-14 -29.5t-36 -13.5q-24 0 -56 6.5t-63.5 25t-55.5 54.5q-17 -22 -45 -41t-74.5 -32.5t-117.5 -21t-173 -7.5zM810 511q17 0 29 11t12 27q0 17 -12 28.5t-29 11.5t-29 -11.5t-12 -28.5q0 -16 12 -27t29 -11z" />
<glyph unicode="&#x6b2;" horiz-adv-x="412" d="M-1 550l-37 56q58 35 152.5 91.5t223.5 123.5l28 -61q-130 -69 -218 -120.5t-149 -89.5zM0 -5l10 82h94q59 0 93.5 6.5t51 17t22 23t5.5 25.5q0 23 -17.5 57t-71.5 88q-37 38 -74 67t-61 49t-24 29q0 23 5.5 43t15.5 31q40 43 125.5 86.5t213.5 107.5l34 -74 q-91 -44 -148.5 -72.5t-95 -50t-69.5 -43.5q117 -95 179.5 -170.5t62.5 -152.5q0 -22 -8 -48t-34 -49t-78 -37.5t-140 -14.5h-91zM235 -189q-21 0 -35.5 14.5t-14.5 34.5t14.5 35t35.5 15q20 0 34.5 -15t14.5 -35t-14.5 -34.5t-34.5 -14.5zM98 -189q-21 0 -35.5 14.5 t-14.5 34.5t14.5 35t35.5 15q20 0 34.5 -15t14.5 -35t-14.5 -34.5t-34.5 -14.5z" />
<glyph unicode="&#x6b2;" horiz-adv-x="508" d="M-1 550l-37 56q58 35 152.5 91.5t223.5 123.5l28 -61q-130 -69 -218 -120.5t-149 -89.5zM0 -5l10 82h77q83 0 123 9t52.5 24t12.5 31q0 24 -18 53t-46 59.5t-59.5 60.5t-59.5 55t-46 43.5t-18 26.5q0 23 5.5 43t15.5 31q27 29 79.5 60.5t120.5 65t139 68.5l34 -74 q-88 -44 -172.5 -85t-147.5 -85q55 -47 103 -91t89 -94.5t75 -114.5q21 -39 49 -57t55.5 -23.5t44.5 -5.5q21 0 30.5 -11.5t9.5 -27.5t-14 -29.5t-36 -13.5q-24 0 -55.5 6.5t-63.5 25t-56 54.5q-20 -29 -50 -48t-78 -28.5t-122 -9.5h-83zM235 -189q-21 0 -35.5 14.5 t-14.5 34.5t14.5 35t35.5 15q20 0 34.5 -15t14.5 -35t-14.5 -34.5t-34.5 -14.5zM98 -189q-21 0 -35.5 14.5t-14.5 34.5t14.5 35t35.5 15q20 0 34.5 -15t14.5 -35t-14.5 -34.5t-34.5 -14.5z" />
<glyph unicode="&#x6b2;" horiz-adv-x="975" d="M462 550l-37 56q58 35 152.5 91.5t223.5 123.5l28 -61q-130 -69 -218 -120.5t-149 -89.5zM390 -21q-178 0 -269 47t-91 156q0 37 9 78.5t19 78.5l75 -19q-6 -22 -13.5 -55.5t-7.5 -59.5q0 -52 26.5 -83.5t92.5 -46t185 -14.5q125 0 196 13t100.5 32t29.5 35q0 24 -18 53 t-46 59.5t-59.5 60.5t-59.5 55t-46 43.5t-18 26.5q0 23 5.5 43t15.5 31q27 29 79.5 60.5t120.5 65t139 68.5l34 -74q-88 -44 -172.5 -85t-147.5 -85q55 -47 103 -91t89 -94.5t75 -114.5q21 -39 49 -57t55.5 -23.5t44.5 -5.5q21 0 30.5 -11.5t9.5 -27.5t-14 -29.5t-36 -13.5 q-24 0 -56 6.5t-63.5 25t-55.5 54.5q-17 -22 -45 -41t-74.5 -32.5t-117.5 -21t-173 -7.5zM482 -210q-21 0 -35.5 14.5t-14.5 34.5t14.5 35t35.5 15q20 0 34.5 -15t14.5 -35t-14.5 -34.5t-34.5 -14.5zM345 -210q-21 0 -35.5 14.5t-14.5 34.5t14.5 35t35.5 15q20 0 34.5 -15 t14.5 -35t-14.5 -34.5t-34.5 -14.5z" />
<glyph unicode="&#x6b4;" horiz-adv-x="412" d="M82 872q-21 0 -35.5 14.5t-14.5 34.5t14.5 35t35.5 15q20 0 34.5 -15t14.5 -35t-14.5 -34.5t-34.5 -14.5zM187 798q-21 0 -35.5 14.5t-14.5 34.5t14.5 35t35.5 15q20 0 34.5 -15t14.5 -35t-14.5 -34.5t-34.5 -14.5zM72 747q-21 0 -35.5 14.5t-14.5 34.5t14.5 35t35.5 15 q20 0 34.5 -15t14.5 -35t-14.5 -34.5t-34.5 -14.5zM-1 550l-37 56q58 35 152.5 91.5t223.5 123.5l28 -61q-130 -69 -218 -120.5t-149 -89.5zM0 -5l10 82h94q59 0 93.5 6.5t51 17t22 23t5.5 25.5q0 23 -17.5 57t-71.5 88q-37 38 -74 67t-61 49t-24 29q0 23 5.5 43t15.5 31 q40 43 125.5 86.5t213.5 107.5l34 -74q-91 -44 -148.5 -72.5t-95 -50t-69.5 -43.5q117 -95 179.5 -170.5t62.5 -152.5q0 -22 -8 -48t-34 -49t-78 -37.5t-140 -14.5h-91z" />
<glyph unicode="&#x6b4;" horiz-adv-x="508" d="M77 872q-21 0 -35.5 14.5t-14.5 34.5t14.5 35t35.5 15q20 0 34.5 -15t14.5 -35t-14.5 -34.5t-34.5 -14.5zM182 798q-21 0 -35.5 14.5t-14.5 34.5t14.5 35t35.5 15q20 0 34.5 -15t14.5 -35t-14.5 -34.5t-34.5 -14.5zM67 747q-21 0 -35.5 14.5t-14.5 34.5t14.5 35t35.5 15 q20 0 34.5 -15t14.5 -35t-14.5 -34.5t-34.5 -14.5zM-1 550l-37 56q58 35 152.5 91.5t223.5 123.5l28 -61q-130 -69 -218 -120.5t-149 -89.5zM0 -5l10 82h77q83 0 123 9t52.5 24t12.5 31q0 24 -18 53t-46 59.5t-59.5 60.5t-59.5 55t-46 43.5t-18 26.5q0 23 5.5 43t15.5 31 q27 29 79.5 60.5t120.5 65t139 68.5l34 -74q-88 -44 -172.5 -85t-147.5 -85q55 -47 103 -91t89 -94.5t75 -114.5q21 -39 49 -57t55.5 -23.5t44.5 -5.5q21 0 30.5 -11.5t9.5 -27.5t-14 -29.5t-36 -13.5q-24 0 -55.5 6.5t-63.5 25t-56 54.5q-20 -29 -50 -48t-78 -28.5 t-122 -9.5h-83z" />
<glyph unicode="&#x6b4;" horiz-adv-x="975" d="M534 874q-21 0 -35.5 14.5t-14.5 34.5t14.5 35t35.5 15q20 0 34.5 -15t14.5 -35t-14.5 -34.5t-34.5 -14.5zM639 800q-21 0 -35.5 14.5t-14.5 34.5t14.5 35t35.5 15q20 0 34.5 -15t14.5 -35t-14.5 -34.5t-34.5 -14.5zM524 749q-21 0 -35.5 14.5t-14.5 34.5t14.5 35 t35.5 15q20 0 34.5 -15t14.5 -35t-14.5 -34.5t-34.5 -14.5zM462 550l-37 56q58 35 152.5 91.5t223.5 123.5l28 -61q-130 -69 -218 -120.5t-149 -89.5zM390 -21q-178 0 -269 47t-91 156q0 37 9 78.5t19 78.5l75 -19q-6 -22 -13.5 -55.5t-7.5 -59.5q0 -52 26.5 -83.5t92.5 -46 t185 -14.5q125 0 196 13t100.5 32t29.5 35q0 24 -18 53t-46 59.5t-59.5 60.5t-59.5 55t-46 43.5t-18 26.5q0 23 5.5 43t15.5 31q27 29 79.5 60.5t120.5 65t139 68.5l34 -74q-88 -44 -172.5 -85t-147.5 -85q55 -47 103 -91t89 -94.5t75 -114.5q21 -39 49 -57t55.5 -23.5 t44.5 -5.5q21 0 30.5 -11.5t9.5 -27.5t-14 -29.5t-36 -13.5q-24 0 -56 6.5t-63.5 25t-55.5 54.5q-17 -22 -45 -41t-74.5 -32.5t-117.5 -21t-173 -7.5z" />
<glyph unicode="&#x6b5;" horiz-adv-x="260" d="M186 0h-187v127h76q-2 110 -48 428l142 44l24 -81l-18 -58q10 -154 11 -334v-126zM102 848q-9 20 -25 53.5t-32.5 67t-29.5 54.5l46 25q7 -12 20 -36.5t27.5 -52t24.5 -49.5q11 26 24 55.5t24 53t16 31.5l45 -19q-5 -10 -16 -32.5t-23.5 -50t-24 -53t-17.5 -41.5z" />
<glyph unicode="&#x6b5;" horiz-adv-x="300" d="M256 127v-127h-39q-17 14 -31 32v-32h-187v127h76q-2 111 -48 428l142 44l25 -81l-19 -56q10 -156 11 -335h70zM116 848q-9 20 -25 53.5t-32.5 67t-29.5 54.5l46 25q7 -12 20 -36.5t27.5 -52t24.5 -49.5q11 26 24 55.5t24 53t16 31.5l45 -19q-5 -10 -16 -32.5t-23.5 -50 t-24 -53t-17.5 -41.5z" />
<glyph unicode="&#x6b5;" horiz-adv-x="730" d="M493 127v-127h-24q-14 13 -26 28q-1 -13 -3 -22q-22 -212 -222 -218q-80 0 -144 66q-64 70 -46 149q25 80 32 100l58 42q-5 -17 -10 -103q0 -110 107 -119q136 8 131 83q-19 307 -67 550l144 44l24 -83l-19 -53l16 -337h49zM279 591q-9 20 -25 53.5t-32.5 67t-29.5 54.5 l46 25q7 -12 20 -36.5t27.5 -52t24.5 -49.5q11 26 24 55.5t24 53t16 31.5l45 -19q-5 -10 -16 -32.5t-23.5 -50t-24 -53t-17.5 -41.5z" />
<glyph unicode="&#x6b6;" horiz-adv-x="260" d="M186 0h-187v127h76q-2 110 -48 428l142 44l24 -81l-18 -58q10 -154 11 -334v-126zM131 817q-21 0 -35.5 14.5t-14.5 34.5t14.5 35t35.5 15q20 0 34.5 -15t14.5 -35t-14.5 -34.5t-34.5 -14.5z" />
<glyph unicode="&#x6b6;" horiz-adv-x="300" d="M256 127v-127h-39q-17 14 -31 32v-32h-187v127h76q-2 111 -48 428l142 44l25 -81l-19 -56q10 -156 11 -335h70zM145 817q-21 0 -35.5 14.5t-14.5 34.5t14.5 35t35.5 15q20 0 34.5 -15t14.5 -35t-14.5 -34.5t-34.5 -14.5z" />
<glyph unicode="&#x6b6;" horiz-adv-x="730" d="M493 127v-127h-24q-14 13 -26 28q-1 -13 -3 -22q-22 -212 -222 -218q-80 0 -144 66q-64 70 -46 149q25 80 32 100l58 42q-5 -17 -10 -103q0 -110 107 -119q136 8 131 83q-19 307 -67 550l144 44l24 -83l-19 -53l16 -337h49zM308 560q-21 0 -35.5 14.5t-14.5 34.5t14.5 35 t35.5 15q20 0 34.5 -15t14.5 -35t-14.5 -34.5t-34.5 -14.5z" />
<glyph unicode="&#x6b7;" horiz-adv-x="260" d="M186 0h-187v127h76q-2 110 -48 428l142 44l24 -81l-18 -58q10 -154 11 -334v-126zM133 927q-21 0 -35.5 14.5t-14.5 34.5t14.5 35t35.5 15q20 0 34.5 -15t14.5 -35t-14.5 -34.5t-34.5 -14.5zM65 817q-21 0 -35.5 14.5t-14.5 34.5t14.5 35t35.5 15q20 0 34.5 -15t14.5 -35 t-14.5 -34.5t-34.5 -14.5zM201 817q-21 0 -35.5 14.5t-14.5 34.5t14.5 35t35.5 15q20 0 34.5 -15t14.5 -35t-14.5 -34.5t-34.5 -14.5z" />
<glyph unicode="&#x6b7;" horiz-adv-x="300" d="M256 127v-127h-39q-17 14 -31 32v-32h-187v127h76q-2 111 -48 428l142 44l25 -81l-19 -56q10 -156 11 -335h70zM147 927q-21 0 -35.5 14.5t-14.5 34.5t14.5 35t35.5 15q20 0 34.5 -15t14.5 -35t-14.5 -34.5t-34.5 -14.5zM79 817q-21 0 -35.5 14.5t-14.5 34.5t14.5 35 t35.5 15q20 0 34.5 -15t14.5 -35t-14.5 -34.5t-34.5 -14.5zM215 817q-21 0 -35.5 14.5t-14.5 34.5t14.5 35t35.5 15q20 0 34.5 -15t14.5 -35t-14.5 -34.5t-34.5 -14.5z" />
<glyph unicode="&#x6b7;" horiz-adv-x="730" d="M493 127v-127h-24q-14 13 -26 28q-1 -13 -3 -22q-22 -212 -222 -218q-80 0 -144 66q-64 70 -46 149q25 80 32 100l58 42q-5 -17 -10 -103q0 -110 107 -119q136 8 131 83q-19 307 -67 550l144 44l24 -83l-19 -53l16 -337h49zM310 670q-21 0 -35.5 14.5t-14.5 34.5t14.5 35 t35.5 15q20 0 34.5 -15t14.5 -35t-14.5 -34.5t-34.5 -14.5zM242 560q-21 0 -35.5 14.5t-14.5 34.5t14.5 35t35.5 15q20 0 34.5 -15t14.5 -35t-14.5 -34.5t-34.5 -14.5zM378 560q-21 0 -35.5 14.5t-14.5 34.5t14.5 35t35.5 15q20 0 34.5 -15t14.5 -35t-14.5 -34.5 t-34.5 -14.5z" />
<glyph unicode="&#x6b8;" horiz-adv-x="260" d="M186 0h-187v127h76q-2 110 -48 428l142 44l24 -81l-18 -58q10 -154 11 -334v-126zM62 -189q-21 0 -35.5 14.5t-14.5 34.5t14.5 35t35.5 15q20 0 34.5 -15t14.5 -35t-14.5 -34.5t-34.5 -14.5zM198 -189q-21 0 -35.5 14.5t-14.5 34.5t14.5 35t35.5 15q20 0 34.5 -15 t14.5 -35t-14.5 -34.5t-34.5 -14.5zM130 -299q-21 0 -35.5 14.5t-14.5 34.5t14.5 35t35.5 15q20 0 34.5 -15t14.5 -35t-14.5 -34.5t-34.5 -14.5z" />
<glyph unicode="&#x6b8;" horiz-adv-x="300" d="M256 127v-127h-39q-17 14 -31 32v-32h-187v127h76q-2 111 -48 428l142 44l25 -81l-19 -56q10 -156 11 -335h70zM87 -189q-21 0 -35.5 14.5t-14.5 34.5t14.5 35t35.5 15q20 0 34.5 -15t14.5 -35t-14.5 -34.5t-34.5 -14.5zM223 -189q-21 0 -35.5 14.5t-14.5 34.5t14.5 35 t35.5 15q20 0 34.5 -15t14.5 -35t-14.5 -34.5t-34.5 -14.5zM155 -299q-21 0 -35.5 14.5t-14.5 34.5t14.5 35t35.5 15q20 0 34.5 -15t14.5 -35t-14.5 -34.5t-34.5 -14.5z" />
<glyph unicode="&#x6b8;" horiz-adv-x="730" d="M493 127v-127h-24q-14 13 -26 28q-1 -13 -3 -22q-22 -212 -222 -218q-80 0 -144 66q-64 70 -46 149q25 80 32 100l58 42q-5 -17 -10 -103q0 -110 107 -119q136 8 131 83q-19 307 -67 550l144 44l24 -83l-19 -53l16 -337h49zM230 -421q-21 0 -35.5 14.5t-14.5 34.5 t14.5 35t35.5 15q20 0 34.5 -15t14.5 -35t-14.5 -34.5t-34.5 -14.5zM366 -421q-21 0 -35.5 14.5t-14.5 34.5t14.5 35t35.5 15q20 0 34.5 -15t14.5 -35t-14.5 -34.5t-34.5 -14.5zM298 -531q-21 0 -35.5 14.5t-14.5 34.5t14.5 35t35.5 15q20 0 34.5 -15t14.5 -35t-14.5 -34.5 t-34.5 -14.5z" />
<glyph unicode="&#x6b9;" horiz-adv-x="269" d="M96 547l71 -72q-25 -40 -71 -72l-72 72q46 32 72 72zM-1 0v127h128q-3 67 -55 182l141 45q23 -188 11 -354h-225zM107 -191q-21 0 -35.5 14.5t-14.5 34.5t14.5 35t35.5 15q20 0 34.5 -15t14.5 -35t-14.5 -34.5t-34.5 -14.5z" />
<glyph unicode="&#x6b9;" horiz-adv-x="343" d="M96 547l71 -72q-25 -40 -71 -72l-72 72q46 32 72 72zM295 127v-127h-35q-16 15 -31 34q0 -4 -2 -34h-228v127h131q-5 68 -56 182l142 44q15 -119 15 -226h64zM170 -191q-21 0 -35.5 14.5t-14.5 34.5t14.5 35t35.5 15q20 0 34.5 -15t14.5 -35t-14.5 -34.5t-34.5 -14.5z " />
<glyph unicode="&#x6b9;" horiz-adv-x="730" d="M226 380l71 -72q-25 -40 -71 -72l-72 72q46 32 72 72zM504 127v-127h-25q-16 15 -31 35q-11 -71 -62 -132q-65 -62 -156 -65q-61 0 -115 39q-91 67 -68 162q24 79 31 101l57 40q-5 -21 -10 -101q0 -66 42 -98q26 -20 66 -22q136 8 129 85q-10 110 -42 198l122 37 q15 -74 13 -152h49zM313 -418q-21 0 -35.5 14.5t-14.5 34.5t14.5 35t35.5 15q20 0 34.5 -15t14.5 -35t-14.5 -34.5t-34.5 -14.5z" />
<glyph unicode="&#x6bc;" horiz-adv-x="299" d="M148 507q-21 0 -35.5 14.5t-14.5 34.5t14.5 35t35.5 15q20 0 34.5 -15t14.5 -35t-14.5 -34.5t-34.5 -14.5zM0 -5l10 82q59 0 92 4.5t47 23t14 58.5q0 38 -17.5 95.5t-39.5 114.5l81 30q13 -32 24.5 -73t19.5 -81t8 -70q0 -86 -40 -128q19 -12 30.5 -32t11.5 -44 q0 -37 -26 -63t-63 -26t-63 26t-26 63q0 12 3 23q-30 -3 -66 -3zM152 -63q17 0 29 11t12 27q0 17 -12 28.5t-29 11.5t-29 -11.5t-12 -28.5q0 -16 12 -27t29 -11z" />
<glyph unicode="&#x6bc;" horiz-adv-x="373" d="M197 386q-21 0 -35.5 14.5t-14.5 34.5t14.5 35t35.5 15q20 0 34.5 -15t14.5 -35t-14.5 -34.5t-34.5 -14.5zM0 -5l10 82q50 0 78 7.5t42.5 29t23.5 62.5t22 107l78 -15q-6 -27 -13.5 -62t-7.5 -59q0 -15 2 -28t15 -22t44 -14.5t89 -5.5q21 0 30.5 -11.5t9.5 -27.5 t-14 -29.5t-36 -13.5q-65 0 -101.5 7.5t-54 22t-25.5 36.5q-7 -11 -16 -20q18 -12 29 -31.5t11 -42.5q0 -37 -26 -63t-63 -26t-63 26t-26 63q0 15 5 29q-19 -1 -43 -1zM127 -71q17 0 29 11t12 27q0 17 -12 28.5t-29 11.5t-29 -11.5t-12 -28.5q0 -16 12 -27t29 -11z" />
<glyph unicode="&#x6bc;" horiz-adv-x="730" d="M332 398q-21 0 -35.5 14.5t-14.5 34.5t14.5 35t35.5 15q20 0 34.5 -15t14.5 -35t-14.5 -34.5t-34.5 -14.5zM30 -1q0 36 10 80t32 97l72 -28q-16 -42 -24 -77t-8 -65q0 -55 27.5 -89.5t74 -50.5t102.5 -16q91 0 142.5 25.5t73 65.5t21.5 85q0 66 -14.5 121.5t-31.5 114.5 l81 22q16 -57 22.5 -82.5t10.5 -41.5q11 -37 29 -54.5t41.5 -23t48.5 -5.5q21 0 30.5 -11.5t9.5 -27.5t-14 -29.5t-36 -13.5q-31 0 -54.5 8.5t-39.5 21.5q-6 -59 -31.5 -114t-81 -92.5t-151.5 -47.5q22 -11 36 -32.5t14 -47.5q0 -37 -26 -63t-63 -26t-63 26t-26 63 q0 25 12.5 45.5t32.5 32.5q-70 3 -129 29.5t-94.5 76.5t-35.5 124zM333 -347q17 0 29 11t12 27q0 17 -12 28.5t-29 11.5t-29 -11.5t-12 -28.5q0 -16 12 -27t29 -11z" />
<glyph unicode="&#x6bd;" horiz-adv-x="730" d="M30 -1q0 36 10 80t32 97l72 -28q-16 -42 -24 -77t-8 -65q0 -55 27.5 -89.5t74 -50.5t102.5 -16q91 0 142.5 25.5t73 65.5t21.5 85q0 66 -14.5 121.5t-31.5 114.5l81 22q16 -57 22.5 -82.5t10.5 -41.5q11 -37 29 -54.5t41.5 -23t48.5 -5.5q21 0 30.5 -11.5t9.5 -27.5 t-14 -29.5t-36 -13.5q-31 0 -54.5 8.5t-39.5 21.5q-5 -49 -23 -95t-54.5 -82.5t-96.5 -58t-149 -21.5q-75 0 -139.5 25t-104 76.5t-39.5 129.5zM334 508q-21 0 -35.5 14.5t-14.5 34.5t14.5 35t35.5 15q20 0 34.5 -15t14.5 -35t-14.5 -34.5t-34.5 -14.5zM266 398 q-21 0 -35.5 14.5t-14.5 34.5t14.5 35t35.5 15q20 0 34.5 -15t14.5 -35t-14.5 -34.5t-34.5 -14.5zM402 398q-21 0 -35.5 14.5t-14.5 34.5t14.5 35t35.5 15q20 0 34.5 -15t14.5 -35t-14.5 -34.5t-34.5 -14.5z" />
<glyph unicode="&#x6bf;" horiz-adv-x="589" d="M78 127q77 0 94.5 6t51 27.5t34.5 25.5q-50 39 -52 39q-55 30 -78 36q-44 11 -73 -26l-35 -12q2 84 20 114q57 89 175 9q16 -11 82.5 -61.5t106.5 -59.5l10 -2l-28 -73q-35 -5 -66 -34l-39 -45q-56 -62 -137 -71q-9 -1 -65 0h-80v127h79zM211 -189q-21 0 -35.5 14.5 t-14.5 34.5t14.5 35t35.5 15q20 0 34.5 -15t14.5 -35t-14.5 -34.5t-34.5 -14.5zM347 -189q-21 0 -35.5 14.5t-14.5 34.5t14.5 35t35.5 15q20 0 34.5 -15t14.5 -35t-14.5 -34.5t-34.5 -14.5zM279 -299q-21 0 -35.5 14.5t-14.5 34.5t14.5 35t35.5 15q20 0 34.5 -15t14.5 -35 t-14.5 -34.5t-34.5 -14.5zM167 455q-21 0 -35.5 14.5t-14.5 34.5t14.5 35t35.5 15q20 0 34.5 -15t14.5 -35t-14.5 -34.5t-34.5 -14.5z" />
<glyph unicode="&#x6bf;" horiz-adv-x="637" d="M-1 0v127h79q78 -1 95.5 6t51 28.5t35.5 24.5q-51 39 -53 40q-55 31 -78 37q-44 12 -74 -27l-35 -12q1 85 20 114.5t46 40.5q51 21 129 -31q17 -11 82.5 -61t108.5 -61l10 -2l-29 -73q-29 -5 -54 -24h100v-127q-120 0 -173 49q-17 -14 -30 -20q-46 -24 -85 -29 q-9 -1 -65 0h-81zM193 -189q-21 0 -35.5 14.5t-14.5 34.5t14.5 35t35.5 15q20 0 34.5 -15t14.5 -35t-14.5 -34.5t-34.5 -14.5zM329 -189q-21 0 -35.5 14.5t-14.5 34.5t14.5 35t35.5 15q20 0 34.5 -15t14.5 -35t-14.5 -34.5t-34.5 -14.5zM261 -299q-21 0 -35.5 14.5 t-14.5 34.5t14.5 35t35.5 15q20 0 34.5 -15t14.5 -35t-14.5 -34.5t-34.5 -14.5zM157 455q-21 0 -35.5 14.5t-14.5 34.5t14.5 35t35.5 15q20 0 34.5 -15t14.5 -35t-14.5 -34.5t-34.5 -14.5z" />
<glyph unicode="&#x6bf;" horiz-adv-x="719" d="M380 -394q-70 0 -136.5 16t-119 49.5t-83.5 84.5t-31 120q0 92 48 171t133 139.5t197 97.5q-49 16 -105.5 32.5t-141.5 16.5q-30 0 -52.5 -5t-42.5 -10l-14 74q26 11 58.5 17.5t65.5 6.5q52 0 91.5 -8.5t74.5 -20.5t71.5 -24.5t81.5 -21t106 -9.5h9l2 -82q-29 0 -60 -4 q7 -58 25 -92.5t44.5 -50.5t59.5 -21t68 -5q21 0 30.5 -11.5t9.5 -27.5t-13.5 -29.5t-35.5 -13.5q-43 0 -86.5 6t-80.5 29t-60.5 71.5t-26.5 132.5q-66 -15 -132.5 -45.5t-121 -74.5t-87.5 -101t-33 -127q0 -52 25 -89.5t67.5 -61.5t96 -35t109.5 -11q99 0 201 40l28 -68 q-58 -28 -119 -41.5t-120 -13.5zM271 -113q-21 0 -35.5 14.5t-14.5 34.5t14.5 35t35.5 15q20 0 34.5 -15t14.5 -35t-14.5 -34.5t-34.5 -14.5zM407 -113q-21 0 -35.5 14.5t-14.5 34.5t14.5 35t35.5 15q20 0 34.5 -15t14.5 -35t-14.5 -34.5t-34.5 -14.5zM339 -223 q-21 0 -35.5 14.5t-14.5 34.5t14.5 35t35.5 15q20 0 34.5 -15t14.5 -35t-14.5 -34.5t-34.5 -14.5zM312 519q-21 0 -35.5 14.5t-14.5 34.5t14.5 35t35.5 15q20 0 34.5 -15t14.5 -35t-14.5 -34.5t-34.5 -14.5z" />
<glyph unicode="&#x6c2;" horiz-adv-x="269" d="M0 -5l10 82q49 0 78 6t42 24.5t13 55.5q0 38 -17.5 95.5t-39.5 114.5l81 30q13 -32 24.5 -73t19.5 -81t8 -70q0 -100 -53.5 -142t-165.5 -42zM136 -27l26 -26q-43 -24 -44 -61h3q18 0 30 -8.5t12 -24.5q0 -13 -10 -27t-33 -14q-19 0 -32.5 14t-13.5 42q0 25 14.5 57 t47.5 48zM17 564l-12 54q15 3 26 6t21 5q-19 13 -33 34t-14 46q0 45 31.5 68t71.5 23q23 0 47 -8l-8 -50q-10 2 -19 4t-20 2q-49 0 -49 -36q0 -26 19.5 -43t38.5 -22q38 11 67 22l16 -51q-24 -9 -56.5 -19t-65.5 -19t-61 -16z" />
<glyph unicode="&#x6c2;" horiz-adv-x="438" d="M251 -269q-46 32 -76.5 83t-47 108.5t-20.5 106.5q-30 -34 -107 -34l9 82q16 0 36.5 3.5t41 19.5t35.5 56l67 -17q-14 -53 -11 -107.5t21 -103t48 -83.5q0 70 18.5 122t62.5 81t120 29q20 0 30 -11.5t10 -27.5t-13.5 -29.5t-34.5 -13.5q-55 0 -83 -22.5t-37.5 -69 t-9.5 -118.5zM66 293l-12 54q15 3 26 6t21 5q-19 13 -33 34t-14 46q0 45 31.5 68t71.5 23q23 0 47 -8l-8 -50q-10 2 -19 4t-20 2q-49 0 -49 -36q0 -26 19.5 -43t38.5 -22q38 11 67 22l16 -51q-24 -9 -56.5 -19t-65.5 -19t-61 -16z" />
<glyph unicode="&#x6c2;" horiz-adv-x="479" d="M479 -5q-57 0 -91.5 17t-56 47.5t-37.5 72.5t-34 91q-4 13 -19 18t-32 5q-26 0 -51.5 -11t-42 -33t-16.5 -54q0 -28 8.5 -53.5t19.5 -57.5l-72 -20q-13 35 -24 65.5t-11 73.5q0 55 31 93.5t78 58.5t94 20q17 0 36.5 -3t36 -14.5t24.5 -36.5q16 -45 28.5 -81.5t28.5 -62.5 t42.5 -39.5t69.5 -13.5q21 0 30.5 -11.5t9.5 -27.5t-14 -29.5t-36 -13.5zM105 440l-12 54q15 3 26 6t21 5q-19 13 -33 34t-14 46q0 45 31.5 68t71.5 23q23 0 47 -8l-8 -50q-10 2 -19 4t-20 2q-49 0 -49 -36q0 -26 19.5 -43t38.5 -22q38 11 67 22l16 -51q-24 -9 -56.5 -19 t-65.5 -19t-61 -16z" />
<glyph unicode="&#x6c3;" horiz-adv-x="479" d="M479 -5q-57 0 -91.5 17t-56 47.5t-37.5 72.5t-34 91q-4 13 -19 18t-32 5q-26 0 -51.5 -11t-42 -33t-16.5 -54q0 -28 8.5 -53.5t19.5 -57.5l-72 -20q-13 35 -24 65.5t-11 73.5q0 55 31 93.5t78 58.5t94 20q17 0 36.5 -3t36 -14.5t24.5 -36.5q16 -45 28.5 -81.5t28.5 -62.5 t42.5 -39.5t69.5 -13.5q21 0 30.5 -11.5t9.5 -27.5t-14 -29.5t-36 -13.5zM266 433q-21 0 -35.5 14.5t-14.5 34.5t14.5 35t35.5 15q20 0 34.5 -15t14.5 -35t-14.5 -34.5t-34.5 -14.5zM129 433q-21 0 -35.5 14.5t-14.5 34.5t14.5 35t35.5 15q20 0 34.5 -15t14.5 -35 t-14.5 -34.5t-34.5 -14.5z" />
<glyph unicode="&#x6c4;" horiz-adv-x="472" d="M482 77q21 0 30.5 -11.5t9.5 -27.5t-14 -29.5t-36 -13.5h-81q-13 -83 -57.5 -132.5t-112.5 -72t-151 -22.5h-12t-12 1l-6 79q10 0 19 1q-12 21 -12 45q0 37 26 63t63 26t63 -26t26 -63q0 -8 -1 -15q32 16 53 44t30 72h-74q-45 0 -83.5 13t-62 40.5t-23.5 72.5q0 38 13 75 t35.5 67.5t53 49t66.5 18.5q67 0 114 -61t50 -193h86zM271 77h43q0 83 -26 128t-64 45q-21 0 -39 -16t-29.5 -42t-11.5 -55q0 -35 31.5 -47.5t95.5 -12.5zM136 -144q17 0 29 11t12 27q0 17 -12 28.5t-29 11.5t-29 -11.5t-12 -28.5q0 -16 12 -27t29 -11z" />
<glyph unicode="&#x6ca;" horiz-adv-x="472" d="M98 177q-4 -57 98 -55q3 42 -14 79.5t-55 21.5q-27 -14 -29 -46zM348 127v-127h-63q-15 -78 -84 -181h-182q162 133 190 181v14q-181 12 -195 136q-3 64 38.5 128.5t98.5 56.5q72 -10 112 -81q26 -49 34 -127h51zM303 434q-21 0 -35.5 14.5t-14.5 34.5t14.5 35t35.5 15 q20 0 34.5 -15t14.5 -35t-14.5 -34.5t-34.5 -14.5zM166 434q-21 0 -35.5 14.5t-14.5 34.5t14.5 35t35.5 15q20 0 34.5 -15t14.5 -35t-14.5 -34.5t-34.5 -14.5z" />
<glyph unicode="&#x6cd;" horiz-adv-x="850" d="M440 -269q-79 0 -146.5 23.5t-108.5 75t-41 135.5q0 14 3 39.5t14 60.5l-151 -54l9 82l182 64l68 -31q-23 -47 -33.5 -81t-10.5 -65q0 -62 32.5 -99t86.5 -53t118 -16q77 0 140.5 21t101.5 59t38 88q0 26 -40 45t-112 39l19 83q104 -40 162 -55t89 -15q21 0 30.5 -11.5 t9.5 -27.5t-14 -29.5t-36 -13.5h-37q2 -9 3 -14.5t1 -14.5q0 -64 -45 -117.5t-129.5 -85.5t-202.5 -32z" />
<glyph unicode="&#x6ce;" horiz-adv-x="299" d="M119 538q-9 20 -25 53.5t-32.5 67t-29.5 54.5l46 25q7 -12 20 -36.5t27.5 -52t24.5 -49.5q11 26 24 55.5t24 53t16 31.5l45 -19q-5 -10 -16 -32.5t-23.5 -50t-24 -53t-17.5 -41.5zM0 -5l10 82q59 0 92 4.5t47 23t14 58.5q0 38 -17.5 95.5t-39.5 114.5l81 30 q13 -32 24.5 -73t19.5 -81t8 -70q0 -100 -56 -142t-183 -42zM185 -194q-21 0 -35.5 14.5t-14.5 34.5t14.5 35t35.5 15q20 0 34.5 -15t14.5 -35t-14.5 -34.5t-34.5 -14.5zM48 -194q-21 0 -35.5 14.5t-14.5 34.5t14.5 35t35.5 15q20 0 34.5 -15t14.5 -35t-14.5 -34.5 t-34.5 -14.5z" />
<glyph unicode="&#x6ce;" horiz-adv-x="373" d="M168 417q-9 20 -25 53.5t-32.5 67t-29.5 54.5l46 25q7 -12 20 -36.5t27.5 -52t24.5 -49.5q11 26 24 55.5t24 53t16 31.5l45 -19q-5 -10 -16 -32.5t-23.5 -50t-24 -53t-17.5 -41.5zM0 -5l10 82q50 0 78 7.5t42.5 29t23.5 62.5t22 107l78 -15q-6 -27 -13.5 -62t-7.5 -59 q0 -15 2 -28t15 -22t44 -14.5t89 -5.5q21 0 30.5 -11.5t9.5 -27.5t-14 -29.5t-36 -13.5q-65 0 -101.5 7.5t-54 22t-25.5 36.5q-29 -41 -71.5 -53.5t-120.5 -12.5zM252 -194q-21 0 -35.5 14.5t-14.5 34.5t14.5 35t35.5 15q20 0 34.5 -15t14.5 -35t-14.5 -34.5t-34.5 -14.5z M115 -194q-21 0 -35.5 14.5t-14.5 34.5t14.5 35t35.5 15q20 0 34.5 -15t14.5 -35t-14.5 -34.5t-34.5 -14.5z" />
<glyph unicode="&#x6ce;" horiz-adv-x="736" d="M443 127v-127l-25 -1q34 -48 -28 -142q-63 -98 -175 -91q-190 9 -175 179q8 82 61 190l64 42q-29 -100 -38 -123q-34 -116 37 -156q36 -18 110 -2.5t90 48.5q-15 51 -85 79q5 36 19 122q55 -20 111 -18h34zM188 284q-9 20 -25 53.5t-32.5 67t-29.5 54.5l46 25 q7 -12 20 -36.5t27.5 -52t24.5 -49.5q11 26 24 55.5t24 53t16 31.5l45 -19q-5 -10 -16 -32.5t-23.5 -50t-24 -53t-17.5 -41.5z" />
<glyph unicode="&#x6cf;" horiz-adv-x="472" d="M98 177q-4 -57 98 -55q3 42 -14 79.5t-55 21.5q-27 -14 -29 -46zM348 127v-127h-63q-15 -78 -84 -181h-182q162 133 190 181v14q-181 12 -195 136q-3 64 38.5 128.5t98.5 56.5q72 -10 112 -81q26 -49 34 -127h51zM233 434q-21 0 -35.5 14.5t-14.5 34.5t14.5 35t35.5 15 q20 0 34.5 -15t14.5 -35t-14.5 -34.5t-34.5 -14.5z" />
<glyph unicode="&#x6d1;" horiz-adv-x="736" d="M443 127v-127l-25 -1q34 -48 -28 -142q-63 -98 -175 -91q-190 9 -175 179q8 82 61 190l64 42q-29 -100 -38 -123q-34 -116 37 -156q36 -18 110 -2.5t90 48.5q-15 51 -85 79q5 36 19 122q55 -20 111 -18h34zM258 -421q-21 0 -35.5 14.5t-14.5 34.5t14.5 35t35.5 15 q20 0 34.5 -15t14.5 -35t-14.5 -34.5t-34.5 -14.5zM394 -421q-21 0 -35.5 14.5t-14.5 34.5t14.5 35t35.5 15q20 0 34.5 -15t14.5 -35t-14.5 -34.5t-34.5 -14.5zM326 -531q-21 0 -35.5 14.5t-14.5 34.5t14.5 35t35.5 15q20 0 34.5 -15t14.5 -35t-14.5 -34.5t-34.5 -14.5z" />
<glyph unicode="&#x6ee;" horiz-adv-x="532" d="M377 127v-127h-22q-19 14 -32 35l-4 -15q0 -5 -3 -20q-132 -4 -286 0v127q106 -20 196 0q-25 115 -73 204l121 53q53 -130 55 -257h48zM186 779l59 6q9 -20 25 -53.5t33 -67t29 -54.5l-46 -25q-7 12 -20 36.5t-27.5 52t-24.5 49.5q-11 -26 -24 -55.5t-24 -53t-16 -31.5 l-45 19q5 10 16 32.5t24 50t24 53t17 41.5z" />
<glyph unicode="&#x6ef;" horiz-adv-x="396" d="M290 127v-127h-12q-16 13 -29 29q-3 -55 -11 -80q-24 -77 -65 -136h-184q150 122 179 212q-2 2 -83 207l132 41q25 -99 32 -146h41zM128 673l59 6q9 -20 25 -53.5t33 -67t29 -54.5l-46 -25q-7 12 -20 36.5t-27.5 52t-24.5 49.5q-11 -26 -24 -55.5t-24 -53t-16 -31.5 l-45 19q5 10 16 32.5t24 50t24 53t17 41.5z" />
<glyph unicode="&#x6fa;" horiz-adv-x="784" d="M427 0q-46 0 -77 43q0 -18 -3 -43h-91q-63 0 -144 43q-50 -43 -66 -43h-47v127h58q4 20 -4 98l102 38q1 -28 -9 -136h103q0 38 -34 137l134 38q2 -32 2 -175q44 -6 111 0q-4 39 -42 161l135 63q16 -111 15 -224l-2 -93q0 -10 -3 -34h-138zM431 545q-21 0 -35.5 14.5 t-14.5 34.5t14.5 35t35.5 15q20 0 34.5 -15t14.5 -35t-14.5 -34.5t-34.5 -14.5zM363 435q-21 0 -35.5 14.5t-14.5 34.5t14.5 35t35.5 15q20 0 34.5 -15t14.5 -35t-14.5 -34.5t-34.5 -14.5zM499 435q-21 0 -35.5 14.5t-14.5 34.5t14.5 35t35.5 15q20 0 34.5 -15t14.5 -35 t-14.5 -34.5t-34.5 -14.5zM386 -191q-21 0 -35.5 14.5t-14.5 34.5t14.5 35t35.5 15q20 0 34.5 -15t14.5 -35t-14.5 -34.5t-34.5 -14.5z" />
<glyph unicode="&#x6fa;" horiz-adv-x="850" d="M570 127h54v-127h-24q-16 14 -32 34q0 -10 -3 -34h-138q-46 0 -77 43q0 -18 -3 -43h-91q-63 0 -144 43q-50 -43 -66 -43h-47v127h58q4 20 -4 98l102 38q1 -28 -9 -136h103q0 38 -34 137l134 38q2 -32 2 -175q44 -6 111 0q-4 39 -42 161l135 63q15 -111 15 -224zM431 545 q-21 0 -35.5 14.5t-14.5 34.5t14.5 35t35.5 15q20 0 34.5 -15t14.5 -35t-14.5 -34.5t-34.5 -14.5zM363 435q-21 0 -35.5 14.5t-14.5 34.5t14.5 35t35.5 15q20 0 34.5 -15t14.5 -35t-14.5 -34.5t-34.5 -14.5zM499 435q-21 0 -35.5 14.5t-14.5 34.5t14.5 35t35.5 15 q20 0 34.5 -15t14.5 -35t-14.5 -34.5t-34.5 -14.5zM386 -191q-21 0 -35.5 14.5t-14.5 34.5t14.5 35t35.5 15q20 0 34.5 -15t14.5 -35t-14.5 -34.5t-34.5 -14.5z" />
<glyph unicode="&#x6fa;" horiz-adv-x="1269" d="M535 127q0 36 -41 142l135 35q1 -26 5 -84.5t4 -92.5q17 -2 55 -1t43 1q2 32 -10.5 87t-29.5 99l140 42q13 -91 15.5 -140t5.5 -88h54v-127h-23q-20 15 -34 34v-16q-1 -12 0 -18h-142q-15 0 -37 9t-40 33v-42h-119q-15 0 -37 9t-41 33v-42q-9 -115 -88 -180 q-46 -35 -129 -35q-55 0 -101.5 28.5t-71 79.5t-12 99t29.5 95l59 43q-7 -32 -8.5 -100t32 -93.5t71.5 -26.5q94 1 113 80q15 64 -0.5 134t-34.5 109l132 38q13 -76 12 -144h93zM824 545q-21 0 -35.5 14.5t-14.5 34.5t14.5 35t35.5 15q20 0 34.5 -15t14.5 -35t-14.5 -34.5 t-34.5 -14.5zM756 435q-21 0 -35.5 14.5t-14.5 34.5t14.5 35t35.5 15q20 0 34.5 -15t14.5 -35t-14.5 -34.5t-34.5 -14.5zM892 435q-21 0 -35.5 14.5t-14.5 34.5t14.5 35t35.5 15q20 0 34.5 -15t14.5 -35t-14.5 -34.5t-34.5 -14.5zM848 -186q-21 0 -35.5 14.5t-14.5 34.5 t14.5 35t35.5 15q20 0 34.5 -15t14.5 -35t-14.5 -34.5t-34.5 -14.5z" />
<glyph unicode="&#x6fb;" horiz-adv-x="903" d="M310 597l71 -71q-25 -42 -71 -72l-73 72q47 31 73 71zM43 0h-44v127h58q2 16 -6 84l102 36q7 -38 -7 -116l10 -4q34 89 103 159q93 96 204 75q69 -12 93 -104q19 -97 -20 -257q-200 -21 -387 5q-16 -41 -15 -51l-23 25q5 17 10 32q-14 8 -23 13q-23 -24 -55 -24zM371 243 q-101 0 -167 -118q177 -23 255 0q0 118 -88 118zM484 -204q-21 0 -35.5 14.5t-14.5 34.5t14.5 35t35.5 15q20 0 34.5 -15t14.5 -35t-14.5 -34.5t-34.5 -14.5z" />
<glyph unicode="&#x6fb;" horiz-adv-x="949" d="M44 0h-45v127h59q3 18 -6 84l102 36q6 -38 -6 -116l10 -3q34 88 103 158q91 98 202 76q71 -13 93 -105q10 -53 4 -130h41v-127h-26q-16 16 -31 37q-4 -18 -7 -34q-201 -23 -387 2q-7 -21 -11 -32t-4 -19l-23 25q4 19 10 34q-13 6 -22 11q-24 -24 -56 -24zM373 243 q-103 0 -168 -118q178 -23 254 0q0 118 -86 118zM308 596l72 -73q-25 -40 -72 -71l-72 71q47 33 72 73zM484 -204q-21 0 -35.5 14.5t-14.5 34.5t14.5 35t35.5 15q20 0 34.5 -15t14.5 -35t-14.5 -34.5t-34.5 -14.5z" />
<glyph unicode="&#x6fb;" horiz-adv-x="1352" d="M669 239q-104 0 -163 -119q184 -17 250 3q0 116 -87 116zM449 126h4q31 83 104 158q77 77 156 81q115 -6 140 -110q13 -52 5 -128h40v-127h-24q-17 15 -31 35q-4 -18 -10 -34q-243 -25 -386 0q-24 -226 -218 -226q-81 0 -143 62.5t-44 141.5q25 79 31 99l59 42 q-5 -18 -10 -102q0 -110 107 -121q166 10 112 220q-16 68 -35 99l134 39q9 -49 9 -129zM606 596l73 -73q-25 -40 -73 -71l-71 71q46 33 71 73zM904 -199q-21 0 -35.5 14.5t-14.5 34.5t14.5 35t35.5 15q20 0 34.5 -15t14.5 -35t-14.5 -34.5t-34.5 -14.5z" />
<glyph unicode="&#x6fc;" horiz-adv-x="503" d="M48 0h-49v127h40q-35 146 72 235.5t221 -71.5l-63 -23q-103 35 -133 -31.5t19 -111.5q48 -5 191 17l-12 -124q-110 -18 -286 -18zM132 586l72 -72q-25 -40 -72 -72l-70 72q45 32 70 72zM279 -191q-21 0 -35.5 14.5t-14.5 34.5t14.5 35t35.5 15q20 0 34.5 -15t14.5 -35 t-14.5 -34.5t-34.5 -14.5z" />
<glyph unicode="&#x6fc;" horiz-adv-x="521" d="M199 622l72 -70q-25 -42 -72 -73l-72 73q47 30 72 70zM420 127v-127q-186 -2 -222 46q-67 -44 -139 -46h-60v127h58q61 0 69 12q42 74 -111 112l67 130q269 62 313 -51q35 -91 -76 -203h101zM224 187q98 82 72 97q-18 12 -161 -6q68 -19 89 -91zM251 -191 q-21 0 -35.5 14.5t-14.5 34.5t14.5 35t35.5 15q20 0 34.5 -15t14.5 -35t-14.5 -34.5t-34.5 -14.5z" />
<glyph unicode="&#x6fc;" horiz-adv-x="531" d="M370 0q-111 0 -146 76q-55 -31 -69 -56.5t-15 -50.5q-7 -96 99 -132q86 -29 194 -14q25 5 48 10l-42 -63q-127 -74 -262 -47q-152 32 -153 185q0 58 13 88.5t31.5 51t60 51.5t52.5 41q20 26 -19 60q-36 35 -109 53l65 131q21 5 31 6q237 43 286 -62q45 -99 -120 -200 q-3 -2 127 -1h26v-127h-98zM171 281q68 -21 91 -92q98 82 71 98q-16 11 -162 -6zM303 -188q-21 0 -35.5 14.5t-14.5 34.5t14.5 35t35.5 15q20 0 34.5 -15t14.5 -35t-14.5 -34.5t-34.5 -14.5zM295 514q-21 0 -35.5 14.5t-14.5 34.5t14.5 35t35.5 15q20 0 34.5 -15t14.5 -35 t-14.5 -34.5t-34.5 -14.5z" />
<glyph unicode="&#x6ff;" horiz-adv-x="574" d="M106 200q-1 -9 52 -63q20 14 25.5 45.5t-13.5 47.5q-55 4 -64 -30zM253 208q-3 -51 -38 -91q15 -10 46 -15.5t34 2.5q7 29 -42 104zM-1 0v127h50q-20 32 -22 55q-5 67 53 117q59 48 119 29q-9 13 -20 25l59 82q146 -151 148 -303q3 -92 -35 -153q-142 -4 -215 39 q-41 -17 -78 -18h-59zM203 779l59 6q9 -20 25 -53.5t33 -67t29 -54.5l-46 -25q-7 12 -20 36.5t-27.5 52t-24.5 49.5q-11 -26 -24 -55.5t-24 -53t-16 -31.5l-45 19q5 10 16 32.5t24 50t24 53t17 41.5z" />
<glyph unicode="&#x6ff;" horiz-adv-x="507" d="M88 199q-2 -8 49 -62q21 14 27 45t-13 48q-55 3 -63 -31zM233 206q-3 -47 -38 -90q15 -10 46 -16t34 3q6 29 -42 103zM-1 0v127h30q-20 30 -21 55q-6 67 53 116t120 29q-10 13 -22 26l60 81q146 -151 147 -303v-4h37v-127h-22q-15 13 -27 32q-19 -47 -23 -55 q-142 -3 -215 41q-39 -17 -78 -18h-39zM247 738l59 6q9 -20 25 -53.5t33 -67t29 -54.5l-46 -25q-7 12 -20 36.5t-27.5 52t-24.5 49.5q-11 -26 -24 -55.5t-24 -53t-16 -31.5l-45 19q5 10 16 32.5t24 50t24 53t17 41.5z" />
<glyph unicode="&#x6ff;" horiz-adv-x="614" d="M152 -5q-38 0 -71 8t-66 23l23 67q34 -11 65 -15.5t65 -4.5h22q3 76 22.5 139t49.5 108.5t65.5 70.5t71.5 25q49 0 84 -43t35 -122q0 -37 -14 -78.5t-53 -74.5q40 -9 82.5 -15t90.5 -6q21 0 30.5 -11.5t9.5 -27.5t-14 -29.5t-36 -13.5q-34 0 -77 5q23 -34 25.5 -71.5 t-14 -70.5t-50 -54t-84.5 -21q-86 0 -148 53t-74 161q-21 -2 -40 -2zM392 334q-20 0 -47 -32t-49 -88.5t-26 -129.5q48 7 85.5 24.5t59 49.5t21.5 84q0 21 -4.5 42t-14.5 35.5t-25 14.5zM416 -135q26 0 51 15t25 55q0 25 -12.5 45.5t-43.5 33.5t-88 13q-17 0 -36 -2.5 t-40 -6.5q6 -50 22 -80t37.5 -46t43.5 -21.5t41 -5.5zM365 738l59 6q9 -20 25 -53.5t33 -67t29 -54.5l-46 -25q-7 12 -20 36.5t-27.5 52t-24.5 49.5q-11 -26 -24 -55.5t-24 -53t-16 -31.5l-45 19q5 10 16 32.5t24 50t24 53t17 41.5z" />
<glyph unicode="&#x671;" horiz-adv-x="235" arabic-form="isolated" d="M103 731q-22 0 -52.5 2t-57.5 5.5t-41 5.5l7 51q9 -1 23 -3t31 -3q14 30 34.5 60t48 50.5t64.5 20.5q32 0 60.5 -20t28.5 -67q0 -24 -12 -47.5t-43.5 -39t-90.5 -15.5zM156 866q-25 0 -48 -23t-42 -59q21 -1 37 -1q57 0 74.5 13t17.5 32q0 20 -12 29t-27 9zM89 0l-17 644 h81l17 -644h-81z" />
<glyph unicode="&#x671;" horiz-adv-x="235" arabic-form="final" d="M103 731q-22 0 -52.5 2t-57.5 5.5t-41 5.5l7 51q9 -1 23 -3t31 -3q14 30 34.5 60t48 50.5t64.5 20.5q32 0 60.5 -20t28.5 -67q0 -24 -12 -47.5t-43.5 -39t-90.5 -15.5zM156 866q-25 0 -48 -23t-42 -59q21 -1 37 -1q57 0 74.5 13t17.5 32q0 20 -12 29t-27 9zM89 0l-17 644 h81l17 -644h-81z" />
<glyph unicode="&#x67b;" horiz-adv-x="993" arabic-form="isolated" d="M390 -21q-178 0 -269 47t-91 156q0 37 9 78.5t19 78.5l75 -19q-6 -22 -13.5 -55.5t-7.5 -59.5q0 -52 26.5 -83.5t92.5 -46t185 -14.5q233 0 340.5 25.5t107.5 94.5q0 38 -14 88t-36 107l77 27q19 -49 35.5 -105t16.5 -101q0 -59 -27 -100.5t-90 -67.5t-169.5 -38 t-266.5 -12zM486 -212q-21 0 -35.5 14.5t-14.5 34.5t14.5 35t35.5 15q20 0 34.5 -15t14.5 -35t-14.5 -34.5t-34.5 -14.5zM487 -341q-21 0 -35.5 14.5t-14.5 34.5t14.5 35t35.5 15q20 0 34.5 -15t14.5 -35t-14.5 -34.5t-34.5 -14.5z" />
<glyph unicode="&#x67b;" horiz-adv-x="1093" arabic-form="final" d="M390 -21q-178 0 -269 47t-91 156q0 37 9 78.5t19 78.5l75 -19q-6 -22 -13.5 -55.5t-7.5 -59.5q0 -52 26.5 -83.5t92.5 -46t185 -14.5q61 0 129 7.5t135.5 27t128.5 53.5t107 86l63 -37q-9 -23 -12 -36.5t-3 -24.5q0 -15 11 -28.5t41.5 -22.5t86.5 -9q21 0 30.5 -11.5 t9.5 -27.5t-14 -29.5t-36 -13.5q-88 0 -144.5 26t-57.5 85q-83 -64 -215 -95.5t-286 -31.5zM463 -212q-21 0 -35.5 14.5t-14.5 34.5t14.5 35t35.5 15q20 0 34.5 -15t14.5 -35t-14.5 -34.5t-34.5 -14.5zM464 -341q-21 0 -35.5 14.5t-14.5 34.5t14.5 35t35.5 15q20 0 34.5 -15 t14.5 -35t-14.5 -34.5t-34.5 -14.5z" />
<glyph unicode="&#x67b;" horiz-adv-x="269" arabic-form="initial" d="M0 -5l10 82q49 0 78 6t42 24.5t13 55.5q0 38 -17.5 95.5t-39.5 114.5l81 30q13 -32 24.5 -73t19.5 -81t8 -70q0 -100 -53.5 -142t-165.5 -42zM107 -192q-21 0 -35.5 14.5t-14.5 34.5t14.5 35t35.5 15q20 0 34.5 -15t14.5 -35t-14.5 -34.5t-34.5 -14.5zM108 -321 q-21 0 -35.5 14.5t-14.5 34.5t14.5 35t35.5 15q20 0 34.5 -15t14.5 -35t-14.5 -34.5t-34.5 -14.5z" />
<glyph unicode="&#x67b;" horiz-adv-x="343" arabic-form="medial" d="M0 -5l10 82q42 0 66 7.5t36.5 29t21.5 62.5t22 107l78 -15q-6 -27 -13.5 -62t-7.5 -59q0 -20 9 -36t39 -25t92 -9q21 0 30.5 -11.5t9.5 -27.5t-14 -29.5t-36 -13.5q-79 0 -117 17t-52 51q-30 -42 -69 -55t-105 -13zM170 -192q-21 0 -35.5 14.5t-14.5 34.5t14.5 35 t35.5 15q20 0 34.5 -15t14.5 -35t-14.5 -34.5t-34.5 -14.5zM171 -321q-21 0 -35.5 14.5t-14.5 34.5t14.5 35t35.5 15q20 0 34.5 -15t14.5 -35t-14.5 -34.5t-34.5 -14.5z" />
<glyph unicode="&#x67e;" horiz-adv-x="993" arabic-form="isolated" d="M390 -21q-178 0 -269 47t-91 156q0 37 9 78.5t19 78.5l75 -19q-6 -22 -13.5 -55.5t-7.5 -59.5q0 -52 26.5 -83.5t92.5 -46t185 -14.5q233 0 340.5 25.5t107.5 94.5q0 38 -14 88t-36 107l77 27q19 -49 35.5 -105t16.5 -101q0 -59 -27 -100.5t-90 -67.5t-169.5 -38 t-266.5 -12zM418 -214q-21 0 -35.5 14.5t-14.5 34.5t14.5 35t35.5 15q20 0 34.5 -15t14.5 -35t-14.5 -34.5t-34.5 -14.5zM554 -214q-21 0 -35.5 14.5t-14.5 34.5t14.5 35t35.5 15q20 0 34.5 -15t14.5 -35t-14.5 -34.5t-34.5 -14.5zM486 -324q-21 0 -35.5 14.5t-14.5 34.5 t14.5 35t35.5 15q20 0 34.5 -15t14.5 -35t-14.5 -34.5t-34.5 -14.5z" />
<glyph unicode="&#x67e;" horiz-adv-x="1093" arabic-form="final" d="M390 -21q-178 0 -269 47t-91 156q0 37 9 78.5t19 78.5l75 -19q-6 -22 -13.5 -55.5t-7.5 -59.5q0 -52 26.5 -83.5t92.5 -46t185 -14.5q61 0 129 7.5t135.5 27t128.5 53.5t107 86l63 -37q-9 -23 -12 -36.5t-3 -24.5q0 -15 11 -28.5t41.5 -22.5t86.5 -9q21 0 30.5 -11.5 t9.5 -27.5t-14 -29.5t-36 -13.5q-88 0 -144.5 26t-57.5 85q-83 -64 -215 -95.5t-286 -31.5zM395 -214q-21 0 -35.5 14.5t-14.5 34.5t14.5 35t35.5 15q20 0 34.5 -15t14.5 -35t-14.5 -34.5t-34.5 -14.5zM531 -214q-21 0 -35.5 14.5t-14.5 34.5t14.5 35t35.5 15q20 0 34.5 -15 t14.5 -35t-14.5 -34.5t-34.5 -14.5zM463 -324q-21 0 -35.5 14.5t-14.5 34.5t14.5 35t35.5 15q20 0 34.5 -15t14.5 -35t-14.5 -34.5t-34.5 -14.5z" />
<glyph unicode="&#x67e;" horiz-adv-x="299" arabic-form="initial" d="M0 -5l10 82q59 0 92 4.5t47 23t14 58.5q0 38 -17.5 95.5t-39.5 114.5l81 30q13 -32 24.5 -73t19.5 -81t8 -70q0 -100 -56 -142t-183 -42zM45 -194q-21 0 -35.5 14.5t-14.5 34.5t14.5 35t35.5 15q20 0 34.5 -15t14.5 -35t-14.5 -34.5t-34.5 -14.5zM181 -194 q-21 0 -35.5 14.5t-14.5 34.5t14.5 35t35.5 15q20 0 34.5 -15t14.5 -35t-14.5 -34.5t-34.5 -14.5zM113 -304q-21 0 -35.5 14.5t-14.5 34.5t14.5 35t35.5 15q20 0 34.5 -15t14.5 -35t-14.5 -34.5t-34.5 -14.5z" />
<glyph unicode="&#x67e;" horiz-adv-x="373" arabic-form="medial" d="M0 -5l10 82q50 0 78 7.5t42.5 29t23.5 62.5t22 107l78 -15q-6 -27 -13.5 -62t-7.5 -59q0 -15 2 -28t15 -22t44 -14.5t89 -5.5q21 0 30.5 -11.5t9.5 -27.5t-14 -29.5t-36 -13.5q-65 0 -101.5 7.5t-54 22t-25.5 36.5q-29 -41 -71.5 -53.5t-120.5 -12.5zM112 -194 q-21 0 -35.5 14.5t-14.5 34.5t14.5 35t35.5 15q20 0 34.5 -15t14.5 -35t-14.5 -34.5t-34.5 -14.5zM248 -194q-21 0 -35.5 14.5t-14.5 34.5t14.5 35t35.5 15q20 0 34.5 -15t14.5 -35t-14.5 -34.5t-34.5 -14.5zM180 -304q-21 0 -35.5 14.5t-14.5 34.5t14.5 35t35.5 15 q20 0 34.5 -15t14.5 -35t-14.5 -34.5t-34.5 -14.5z" />
<glyph unicode="&#x680;" horiz-adv-x="993" arabic-form="isolated" d="M390 -21q-178 0 -269 47t-91 156q0 37 9 78.5t19 78.5l75 -19q-6 -22 -13.5 -55.5t-7.5 -59.5q0 -52 26.5 -83.5t92.5 -46t185 -14.5q233 0 340.5 25.5t107.5 94.5q0 38 -14 88t-36 107l77 27q19 -49 35.5 -105t16.5 -101q0 -59 -27 -100.5t-90 -67.5t-169.5 -38 t-266.5 -12zM558 -212q-21 0 -35.5 14.5t-14.5 34.5t14.5 35t35.5 15q20 0 34.5 -15t14.5 -35t-14.5 -34.5t-34.5 -14.5zM422 -212q-21 0 -35.5 14.5t-14.5 34.5t14.5 35t35.5 15q20 0 34.5 -15t14.5 -35t-14.5 -34.5t-34.5 -14.5zM558 -337q-21 0 -35.5 14.5t-14.5 34.5 t14.5 35t35.5 15q20 0 34.5 -15t14.5 -35t-14.5 -34.5t-34.5 -14.5zM422 -337q-21 0 -35.5 14.5t-14.5 34.5t14.5 35t35.5 15q20 0 34.5 -15t14.5 -35t-14.5 -34.5t-34.5 -14.5z" />
<glyph unicode="&#x680;" horiz-adv-x="1093" arabic-form="final" d="M390 -21q-178 0 -269 47t-91 156q0 37 9 78.5t19 78.5l75 -19q-6 -22 -13.5 -55.5t-7.5 -59.5q0 -52 26.5 -83.5t92.5 -46t185 -14.5q61 0 129 7.5t135.5 27t128.5 53.5t107 86l63 -37q-9 -23 -12 -36.5t-3 -24.5q0 -15 11 -28.5t41.5 -22.5t86.5 -9q21 0 30.5 -11.5 t9.5 -27.5t-14 -29.5t-36 -13.5q-88 0 -144.5 26t-57.5 85q-83 -64 -215 -95.5t-286 -31.5zM535 -212q-21 0 -35.5 14.5t-14.5 34.5t14.5 35t35.5 15q20 0 34.5 -15t14.5 -35t-14.5 -34.5t-34.5 -14.5zM399 -212q-21 0 -35.5 14.5t-14.5 34.5t14.5 35t35.5 15q20 0 34.5 -15 t14.5 -35t-14.5 -34.5t-34.5 -14.5zM535 -337q-21 0 -35.5 14.5t-14.5 34.5t14.5 35t35.5 15q20 0 34.5 -15t14.5 -35t-14.5 -34.5t-34.5 -14.5zM399 -337q-21 0 -35.5 14.5t-14.5 34.5t14.5 35t35.5 15q20 0 34.5 -15t14.5 -35t-14.5 -34.5t-34.5 -14.5z" />
<glyph unicode="&#x680;" horiz-adv-x="299" arabic-form="initial" d="M0 -5l10 82q59 0 92 4.5t47 23t14 58.5q0 38 -17.5 95.5t-39.5 114.5l81 30q13 -32 24.5 -73t19.5 -81t8 -70q0 -100 -56 -142t-183 -42zM185 -192q-21 0 -35.5 14.5t-14.5 34.5t14.5 35t35.5 15q20 0 34.5 -15t14.5 -35t-14.5 -34.5t-34.5 -14.5zM49 -192 q-21 0 -35.5 14.5t-14.5 34.5t14.5 35t35.5 15q20 0 34.5 -15t14.5 -35t-14.5 -34.5t-34.5 -14.5zM185 -317q-21 0 -35.5 14.5t-14.5 34.5t14.5 35t35.5 15q20 0 34.5 -15t14.5 -35t-14.5 -34.5t-34.5 -14.5zM49 -317q-21 0 -35.5 14.5t-14.5 34.5t14.5 35t35.5 15 q20 0 34.5 -15t14.5 -35t-14.5 -34.5t-34.5 -14.5z" />
<glyph unicode="&#x680;" horiz-adv-x="373" arabic-form="medial" d="M0 -5l10 82q50 0 78 7.5t42.5 29t23.5 62.5t22 107l78 -15q-6 -27 -13.5 -62t-7.5 -59q0 -15 2 -28t15 -22t44 -14.5t89 -5.5q21 0 30.5 -11.5t9.5 -27.5t-14 -29.5t-36 -13.5q-65 0 -101.5 7.5t-54 22t-25.5 36.5q-29 -41 -71.5 -53.5t-120.5 -12.5zM252 -192 q-21 0 -35.5 14.5t-14.5 34.5t14.5 35t35.5 15q20 0 34.5 -15t14.5 -35t-14.5 -34.5t-34.5 -14.5zM116 -192q-21 0 -35.5 14.5t-14.5 34.5t14.5 35t35.5 15q20 0 34.5 -15t14.5 -35t-14.5 -34.5t-34.5 -14.5zM252 -317q-21 0 -35.5 14.5t-14.5 34.5t14.5 35t35.5 15 q20 0 34.5 -15t14.5 -35t-14.5 -34.5t-34.5 -14.5zM116 -317q-21 0 -35.5 14.5t-14.5 34.5t14.5 35t35.5 15q20 0 34.5 -15t14.5 -35t-14.5 -34.5t-34.5 -14.5z" />
<glyph unicode="&#x67a;" horiz-adv-x="993" arabic-form="isolated" d="M390 -21q-178 0 -269 47t-91 156q0 37 9 78.5t19 78.5l75 -19q-6 -22 -13.5 -55.5t-7.5 -59.5q0 -52 26.5 -83.5t92.5 -46t185 -14.5q233 0 340.5 25.5t107.5 94.5q0 38 -14 88t-36 107l77 27q19 -49 35.5 -105t16.5 -101q0 -59 -27 -100.5t-90 -67.5t-169.5 -38 t-266.5 -12zM486 530q-21 0 -35.5 14.5t-14.5 34.5t14.5 35t35.5 15q20 0 34.5 -15t14.5 -35t-14.5 -34.5t-34.5 -14.5zM487 401q-21 0 -35.5 14.5t-14.5 34.5t14.5 35t35.5 15q20 0 34.5 -15t14.5 -35t-14.5 -34.5t-34.5 -14.5z" />
<glyph unicode="&#x67a;" horiz-adv-x="1093" arabic-form="final" d="M390 -21q-178 0 -269 47t-91 156q0 37 9 78.5t19 78.5l75 -19q-6 -22 -13.5 -55.5t-7.5 -59.5q0 -52 26.5 -83.5t92.5 -46t185 -14.5q61 0 129 7.5t135.5 27t128.5 53.5t107 86l63 -37q-9 -23 -12 -36.5t-3 -24.5q0 -15 11 -28.5t41.5 -22.5t86.5 -9q21 0 30.5 -11.5 t9.5 -27.5t-14 -29.5t-36 -13.5q-88 0 -144.5 26t-57.5 85q-83 -64 -215 -95.5t-286 -31.5zM487 530q-21 0 -35.5 14.5t-14.5 34.5t14.5 35t35.5 15q20 0 34.5 -15t14.5 -35t-14.5 -34.5t-34.5 -14.5zM488 401q-21 0 -35.5 14.5t-14.5 34.5t14.5 35t35.5 15q20 0 34.5 -15 t14.5 -35t-14.5 -34.5t-34.5 -14.5z" />
<glyph unicode="&#x67a;" horiz-adv-x="269" arabic-form="initial" d="M0 -5l10 82q49 0 78 6t42 24.5t13 55.5q0 38 -17.5 95.5t-39.5 114.5l81 30q13 -32 24.5 -73t19.5 -81t8 -70q0 -100 -53.5 -142t-165.5 -42zM127 636q-21 0 -35.5 14.5t-14.5 34.5t14.5 35t35.5 15q20 0 34.5 -15t14.5 -35t-14.5 -34.5t-34.5 -14.5zM128 507 q-21 0 -35.5 14.5t-14.5 34.5t14.5 35t35.5 15q20 0 34.5 -15t14.5 -35t-14.5 -34.5t-34.5 -14.5z" />
<glyph unicode="&#x67a;" horiz-adv-x="343" arabic-form="medial" d="M0 -5l10 82q42 0 66 7.5t36.5 29t21.5 62.5t22 107l78 -15q-6 -27 -13.5 -62t-7.5 -59q0 -20 9 -36t39 -25t92 -9q21 0 30.5 -11.5t9.5 -27.5t-14 -29.5t-36 -13.5q-79 0 -117 17t-52 51q-30 -42 -69 -55t-105 -13zM186 515q-21 0 -35.5 14.5t-14.5 34.5t14.5 35t35.5 15 q20 0 34.5 -15t14.5 -35t-14.5 -34.5t-34.5 -14.5zM187 386q-21 0 -35.5 14.5t-14.5 34.5t14.5 35t35.5 15q20 0 34.5 -15t14.5 -35t-14.5 -34.5t-34.5 -14.5z" />
<glyph unicode="&#x67f;" horiz-adv-x="993" arabic-form="isolated" d="M390 -21q-178 0 -269 47t-91 156q0 37 9 78.5t19 78.5l75 -19q-6 -22 -13.5 -55.5t-7.5 -59.5q0 -52 26.5 -83.5t92.5 -46t185 -14.5q233 0 340.5 25.5t107.5 94.5q0 38 -14 88t-36 107l77 27q19 -49 35.5 -105t16.5 -101q0 -59 -27 -100.5t-90 -67.5t-169.5 -38 t-266.5 -12zM421 526q-21 0 -35.5 14.5t-14.5 34.5t14.5 35t35.5 15q20 0 34.5 -15t14.5 -35t-14.5 -34.5t-34.5 -14.5zM557 526q-21 0 -35.5 14.5t-14.5 34.5t14.5 35t35.5 15q20 0 34.5 -15t14.5 -35t-14.5 -34.5t-34.5 -14.5zM421 401q-21 0 -35.5 14.5t-14.5 34.5 t14.5 35t35.5 15q20 0 34.5 -15t14.5 -35t-14.5 -34.5t-34.5 -14.5zM557 401q-21 0 -35.5 14.5t-14.5 34.5t14.5 35t35.5 15q20 0 34.5 -15t14.5 -35t-14.5 -34.5t-34.5 -14.5z" />
<glyph unicode="&#x67f;" horiz-adv-x="1093" arabic-form="final" d="M390 -21q-178 0 -269 47t-91 156q0 37 9 78.5t19 78.5l75 -19q-6 -22 -13.5 -55.5t-7.5 -59.5q0 -52 26.5 -83.5t92.5 -46t185 -14.5q61 0 129 7.5t135.5 27t128.5 53.5t107 86l63 -37q-9 -23 -12 -36.5t-3 -24.5q0 -15 11 -28.5t41.5 -22.5t86.5 -9q21 0 30.5 -11.5 t9.5 -27.5t-14 -29.5t-36 -13.5q-88 0 -144.5 26t-57.5 85q-83 -64 -215 -95.5t-286 -31.5zM422 526q-21 0 -35.5 14.5t-14.5 34.5t14.5 35t35.5 15q20 0 34.5 -15t14.5 -35t-14.5 -34.5t-34.5 -14.5zM558 526q-21 0 -35.5 14.5t-14.5 34.5t14.5 35t35.5 15q20 0 34.5 -15 t14.5 -35t-14.5 -34.5t-34.5 -14.5zM422 401q-21 0 -35.5 14.5t-14.5 34.5t14.5 35t35.5 15q20 0 34.5 -15t14.5 -35t-14.5 -34.5t-34.5 -14.5zM558 401q-21 0 -35.5 14.5t-14.5 34.5t14.5 35t35.5 15q20 0 34.5 -15t14.5 -35t-14.5 -34.5t-34.5 -14.5z" />
<glyph unicode="&#x67f;" horiz-adv-x="299" arabic-form="initial" d="M82 632q-21 0 -35.5 14.5t-14.5 34.5t14.5 35t35.5 15q20 0 34.5 -15t14.5 -35t-14.5 -34.5t-34.5 -14.5zM218 632q-21 0 -35.5 14.5t-14.5 34.5t14.5 35t35.5 15q20 0 34.5 -15t14.5 -35t-14.5 -34.5t-34.5 -14.5zM82 507q-21 0 -35.5 14.5t-14.5 34.5t14.5 35t35.5 15 q20 0 34.5 -15t14.5 -35t-14.5 -34.5t-34.5 -14.5zM218 507q-21 0 -35.5 14.5t-14.5 34.5t14.5 35t35.5 15q20 0 34.5 -15t14.5 -35t-14.5 -34.5t-34.5 -14.5zM0 -5l10 82q59 0 92 4.5t47 23t14 58.5q0 38 -17.5 95.5t-39.5 114.5l81 30q13 -32 24.5 -73t19.5 -81t8 -70 q0 -100 -56 -142t-183 -42z" />
<glyph unicode="&#x67f;" horiz-adv-x="373" arabic-form="medial" d="M131 511q-21 0 -35.5 14.5t-14.5 34.5t14.5 35t35.5 15q20 0 34.5 -15t14.5 -35t-14.5 -34.5t-34.5 -14.5zM267 511q-21 0 -35.5 14.5t-14.5 34.5t14.5 35t35.5 15q20 0 34.5 -15t14.5 -35t-14.5 -34.5t-34.5 -14.5zM131 386q-21 0 -35.5 14.5t-14.5 34.5t14.5 35 t35.5 15q20 0 34.5 -15t14.5 -35t-14.5 -34.5t-34.5 -14.5zM267 386q-21 0 -35.5 14.5t-14.5 34.5t14.5 35t35.5 15q20 0 34.5 -15t14.5 -35t-14.5 -34.5t-34.5 -14.5zM0 -5l10 82q50 0 78 7.5t42.5 29t23.5 62.5t22 107l78 -15q-6 -27 -13.5 -62t-7.5 -59q0 -15 2 -28 t15 -22t44 -14.5t89 -5.5q21 0 30.5 -11.5t9.5 -27.5t-14 -29.5t-36 -13.5q-65 0 -101.5 7.5t-54 22t-25.5 36.5q-29 -41 -71.5 -53.5t-120.5 -12.5z" />
<glyph unicode="&#x679;" horiz-adv-x="993" arabic-form="isolated" d="M390 -21q-178 0 -269 47t-91 156q0 37 9 78.5t19 78.5l75 -19q-6 -22 -13.5 -55.5t-7.5 -59.5q0 -52 26.5 -83.5t92.5 -46t185 -14.5q233 0 340.5 25.5t107.5 94.5q0 38 -14 88t-36 107l77 27q19 -49 35.5 -105t16.5 -101q0 -59 -27 -100.5t-90 -67.5t-169.5 -38 t-266.5 -12zM490 429q-18 0 -42.5 1.5t-46.5 3.5l-33 3l2 58q6 -1 13 -1.5t15 -1.5q10 18 22 34l-5 162h55l5 -106q18 13 37.5 20.5t39.5 7.5q38 0 60 -23t22 -57q0 -20 -11.5 -43.5t-42.5 -40.5t-90 -17zM544 551q-18 0 -35 -11t-31.5 -26t-22.5 -26q16 -1 28 -1 q49 0 71 10.5t22 27.5q0 14 -9 20t-23 6z" />
<glyph unicode="&#x679;" horiz-adv-x="1093" arabic-form="final" d="M390 -21q-178 0 -269 47t-91 156q0 37 9 78.5t19 78.5l75 -19q-6 -22 -13.5 -55.5t-7.5 -59.5q0 -52 26.5 -83.5t92.5 -46t185 -14.5q61 0 129 7.5t135.5 27t128.5 53.5t107 86l63 -37q-9 -23 -12 -36.5t-3 -24.5q0 -15 11 -28.5t41.5 -22.5t86.5 -9q21 0 30.5 -11.5 t9.5 -27.5t-14 -29.5t-36 -13.5q-88 0 -144.5 26t-57.5 85q-83 -64 -215 -95.5t-286 -31.5zM491 429q-18 0 -42.5 1.5t-46.5 3.5l-33 3l2 58q6 -1 13 -1.5t15 -1.5q10 18 22 34l-5 162h55l5 -106q18 13 37.5 20.5t39.5 7.5q38 0 60 -23t22 -57q0 -20 -11.5 -43.5 t-42.5 -40.5t-90 -17zM545 551q-18 0 -35 -11t-31.5 -26t-22.5 -26q16 -1 28 -1q49 0 71 10.5t22 27.5q0 14 -9 20t-23 6z" />
<glyph unicode="&#x679;" horiz-adv-x="299" arabic-form="initial" d="M151 535q-18 0 -42.5 1.5t-46.5 3.5l-33 3l2 58q6 -1 13 -1.5t15 -1.5q10 18 22 34l-5 162h55l5 -106q18 13 37.5 20.5t39.5 7.5q38 0 60 -23t22 -57q0 -20 -11.5 -43.5t-42.5 -40.5t-90 -17zM205 657q-18 0 -35 -11t-31.5 -26t-22.5 -26q16 -1 28 -1q49 0 71 10.5 t22 27.5q0 14 -9 20t-23 6zM0 -5l10 82q59 0 92 4.5t47 23t14 58.5q0 38 -17.5 95.5t-39.5 114.5l81 30q13 -32 24.5 -73t19.5 -81t8 -70q0 -100 -56 -142t-183 -42z" />
<glyph unicode="&#x679;" horiz-adv-x="343" arabic-form="medial" d="M0 -5l10 82q42 0 66 7.5t36.5 29t21.5 62.5t22 107l78 -15q-6 -27 -13.5 -62t-7.5 -59q0 -20 9 -36t39 -25t92 -9q21 0 30.5 -11.5t9.5 -27.5t-14 -29.5t-36 -13.5q-79 0 -117 17t-52 51q-30 -42 -69 -55t-105 -13zM190 414q-18 0 -42.5 1.5t-46.5 3.5l-33 3l2 58 q6 -1 13 -1.5t15 -1.5q10 18 22 34l-5 162h55l5 -106q18 13 37.5 20.5t39.5 7.5q38 0 60 -23t22 -57q0 -20 -11.5 -43.5t-42.5 -40.5t-90 -17zM244 536q-18 0 -35 -11t-31.5 -26t-22.5 -26q16 -1 28 -1q49 0 71 10.5t22 27.5q0 14 -9 20t-23 6z" />
<glyph unicode="&#x6a4;" horiz-adv-x="983" arabic-form="isolated" d="M390 -21q-178 0 -269 47t-91 156q0 37 9 78.5t19 78.5l75 -19q-6 -22 -13.5 -55.5t-7.5 -59.5q0 -52 26.5 -83.5t92.5 -46t185 -14.5h124.5t119.5 2t96.5 7t56.5 15q34 22 43 84q-20 -7 -42.5 -10t-44.5 -3q-76 0 -117.5 31.5t-41.5 95.5q0 38 12 76.5t34 70.5t53 51.5 t69 19.5q54 0 89.5 -35t53 -91.5t17.5 -119.5q0 -75 -14.5 -132.5t-49.5 -92.5q-19 -19 -66.5 -29.5t-114.5 -15t-145 -5.5t-158 -1zM689 303q0 -31 20 -49.5t69 -18.5q43 0 82 12v14q0 42 -11 78t-31 58t-48 22q-23 0 -41.5 -17.5t-29 -44.5t-10.5 -54zM761 714 q-21 0 -35.5 14.5t-14.5 34.5t14.5 35t35.5 15q20 0 34.5 -15t14.5 -35t-14.5 -34.5t-34.5 -14.5zM693 604q-21 0 -35.5 14.5t-14.5 34.5t14.5 35t35.5 15q20 0 34.5 -15t14.5 -35t-14.5 -34.5t-34.5 -14.5zM829 604q-21 0 -35.5 14.5t-14.5 34.5t14.5 35t35.5 15 q20 0 34.5 -15t14.5 -35t-14.5 -34.5t-34.5 -14.5z" />
<glyph unicode="&#x6a4;" horiz-adv-x="1098" arabic-form="final" d="M390 -21q-178 0 -269 47t-91 156q0 37 9 78.5t19 78.5l75 -19q-6 -22 -13.5 -55.5t-7.5 -59.5q0 -52 26.5 -83.5t92.5 -46t185 -14.5q110 0 197 6.5t141 15.5q-24 20 -47 54.5t-23 84.5q0 54 24.5 97.5t64.5 69.5t86 26q49 0 86 -27.5t57.5 -70t20.5 -87.5 q0 -47 -19 -83.5t-52 -63.5q41 -3 83 -4.5t73 -1.5q21 0 30.5 -11.5t9.5 -27.5t-14 -29.5t-36 -13.5q-129 0 -242 33q-16 -6 -34 -11q-30 -9 -95.5 -17.5t-153 -14.5t-183.5 -6zM766 220q0 -40 25.5 -67.5t56.5 -44.5q39 18 66 46.5t27 69.5q0 23 -11 48t-30 43t-44 18 q-24 0 -44.5 -17t-33 -43t-12.5 -53zM852 628q-21 0 -35.5 14.5t-14.5 34.5t14.5 35t35.5 15q20 0 34.5 -15t14.5 -35t-14.5 -34.5t-34.5 -14.5zM784 518q-21 0 -35.5 14.5t-14.5 34.5t14.5 35t35.5 15q20 0 34.5 -15t14.5 -35t-14.5 -34.5t-34.5 -14.5zM920 518 q-21 0 -35.5 14.5t-14.5 34.5t14.5 35t35.5 15q20 0 34.5 -15t14.5 -35t-14.5 -34.5t-34.5 -14.5z" />
<glyph unicode="&#x6a4;" horiz-adv-x="447" arabic-form="initial" d="M0 -5l10 82q33 0 75.5 0.5t82.5 4t63 11.5q32 11 51.5 28.5t29.5 45.5q-18 -6 -38.5 -8.5t-40.5 -2.5q-76 0 -117.5 36t-41.5 91q0 38 12 76.5t34 70.5t53 51.5t69 19.5q54 0 89.5 -35t53 -91.5t17.5 -119.5q0 -75 -25.5 -128.5t-84.5 -88.5q-31 -18 -77.5 -27.5 t-101.5 -12.5t-113 -3zM153 303q0 -31 20 -49.5t69 -18.5q43 0 82 12v14q0 42 -11 78t-31 58t-48 22q-23 0 -41.5 -17.5t-29 -44.5t-10.5 -54zM225 714q-21 0 -35.5 14.5t-14.5 34.5t14.5 35t35.5 15q20 0 34.5 -15t14.5 -35t-14.5 -34.5t-34.5 -14.5zM157 604 q-21 0 -35.5 14.5t-14.5 34.5t14.5 35t35.5 15q20 0 34.5 -15t14.5 -35t-14.5 -34.5t-34.5 -14.5zM293 604q-21 0 -35.5 14.5t-14.5 34.5t14.5 35t35.5 15q20 0 34.5 -15t14.5 -35t-14.5 -34.5t-34.5 -14.5z" />
<glyph unicode="&#x6a4;" horiz-adv-x="495" arabic-form="medial" d="M0 -5l10 82q34 0 70.5 1t70.5 5q-24 22 -47 57t-23 85q0 54 25 97t65 68t85 25q49 0 86 -27t57.5 -68.5t20.5 -86.5q0 -47 -19 -84t-51 -65q40 -3 82 -5t73 -2q21 0 30.5 -11.5t9.5 -27.5t-14 -29.5t-36 -13.5q-61 0 -127 9.5t-116 23.5q-16 -6 -33 -11 q-46 -13 -105 -17.5t-114 -4.5zM163 223q0 -39 24 -68.5t54 -47.5q41 18 69 48t28 72q0 23 -11 47.5t-30 41.5t-44 17q-24 0 -44.5 -16t-33 -41.5t-12.5 -52.5zM249 628q-21 0 -35.5 14.5t-14.5 34.5t14.5 35t35.5 15q20 0 34.5 -15t14.5 -35t-14.5 -34.5t-34.5 -14.5z M181 518q-21 0 -35.5 14.5t-14.5 34.5t14.5 35t35.5 15q20 0 34.5 -15t14.5 -35t-14.5 -34.5t-34.5 -14.5zM317 518q-21 0 -35.5 14.5t-14.5 34.5t14.5 35t35.5 15q20 0 34.5 -15t14.5 -35t-14.5 -34.5t-34.5 -14.5z" />
<glyph unicode="&#x6a6;" horiz-adv-x="983" arabic-form="isolated" d="M390 -21q-178 0 -269 47t-91 156q0 37 9 78.5t19 78.5l75 -19q-6 -22 -13.5 -55.5t-7.5 -59.5q0 -52 26.5 -83.5t92.5 -46t185 -14.5h124.5t119.5 2t96.5 7t56.5 15q34 22 43 84q-20 -7 -42.5 -10t-44.5 -3q-76 0 -117.5 31.5t-41.5 95.5q0 38 12 76.5t34 70.5t53 51.5 t69 19.5q54 0 89.5 -35t53 -91.5t17.5 -119.5q0 -75 -14.5 -132.5t-49.5 -92.5q-19 -19 -66.5 -29.5t-114.5 -15t-145 -5.5t-158 -1zM689 303q0 -31 20 -49.5t69 -18.5q43 0 82 12v14q0 42 -11 78t-31 58t-48 22q-23 0 -41.5 -17.5t-29 -44.5t-10.5 -54zM693 729 q-21 0 -35.5 14.5t-14.5 34.5t14.5 35t35.5 15q20 0 34.5 -15t14.5 -35t-14.5 -34.5t-34.5 -14.5zM829 729q-21 0 -35.5 14.5t-14.5 34.5t14.5 35t35.5 15q20 0 34.5 -15t14.5 -35t-14.5 -34.5t-34.5 -14.5zM693 604q-21 0 -35.5 14.5t-14.5 34.5t14.5 35t35.5 15 q20 0 34.5 -15t14.5 -35t-14.5 -34.5t-34.5 -14.5zM829 604q-21 0 -35.5 14.5t-14.5 34.5t14.5 35t35.5 15q20 0 34.5 -15t14.5 -35t-14.5 -34.5t-34.5 -14.5z" />
<glyph unicode="&#x6a6;" horiz-adv-x="1098" arabic-form="final" d="M390 -21q-178 0 -269 47t-91 156q0 37 9 78.5t19 78.5l75 -19q-6 -22 -13.5 -55.5t-7.5 -59.5q0 -52 26.5 -83.5t92.5 -46t185 -14.5q110 0 197 6.5t141 15.5q-24 20 -47 54.5t-23 84.5q0 54 24.5 97.5t64.5 69.5t86 26q49 0 86 -27.5t57.5 -70t20.5 -87.5 q0 -47 -19 -83.5t-52 -63.5q41 -3 83 -4.5t73 -1.5q21 0 30.5 -11.5t9.5 -27.5t-14 -29.5t-36 -13.5q-129 0 -242 33q-16 -6 -34 -11q-30 -9 -95.5 -17.5t-153 -14.5t-183.5 -6zM766 220q0 -40 25.5 -67.5t56.5 -44.5q39 18 66 46.5t27 69.5q0 23 -11 48t-30 43t-44 18 q-24 0 -44.5 -17t-33 -43t-12.5 -53zM784 643q-21 0 -35.5 14.5t-14.5 34.5t14.5 35t35.5 15q20 0 34.5 -15t14.5 -35t-14.5 -34.5t-34.5 -14.5zM920 643q-21 0 -35.5 14.5t-14.5 34.5t14.5 35t35.5 15q20 0 34.5 -15t14.5 -35t-14.5 -34.5t-34.5 -14.5zM784 518 q-21 0 -35.5 14.5t-14.5 34.5t14.5 35t35.5 15q20 0 34.5 -15t14.5 -35t-14.5 -34.5t-34.5 -14.5zM920 518q-21 0 -35.5 14.5t-14.5 34.5t14.5 35t35.5 15q20 0 34.5 -15t14.5 -35t-14.5 -34.5t-34.5 -14.5z" />
<glyph unicode="&#x6a6;" horiz-adv-x="447" arabic-form="initial" d="M0 -5l10 82q33 0 75.5 0.5t82.5 4t63 11.5q32 11 51.5 28.5t29.5 45.5q-18 -6 -38.5 -8.5t-40.5 -2.5q-76 0 -117.5 36t-41.5 91q0 38 12 76.5t34 70.5t53 51.5t69 19.5q54 0 89.5 -35t53 -91.5t17.5 -119.5q0 -75 -25.5 -128.5t-84.5 -88.5q-31 -18 -77.5 -27.5 t-101.5 -12.5t-113 -3zM153 303q0 -31 20 -49.5t69 -18.5q43 0 82 12v14q0 42 -11 78t-31 58t-48 22q-23 0 -41.5 -17.5t-29 -44.5t-10.5 -54zM157 729q-21 0 -35.5 14.5t-14.5 34.5t14.5 35t35.5 15q20 0 34.5 -15t14.5 -35t-14.5 -34.5t-34.5 -14.5zM293 729 q-21 0 -35.5 14.5t-14.5 34.5t14.5 35t35.5 15q20 0 34.5 -15t14.5 -35t-14.5 -34.5t-34.5 -14.5zM157 604q-21 0 -35.5 14.5t-14.5 34.5t14.5 35t35.5 15q20 0 34.5 -15t14.5 -35t-14.5 -34.5t-34.5 -14.5zM293 604q-21 0 -35.5 14.5t-14.5 34.5t14.5 35t35.5 15 q20 0 34.5 -15t14.5 -35t-14.5 -34.5t-34.5 -14.5z" />
<glyph unicode="&#x6a6;" horiz-adv-x="495" arabic-form="medial" d="M0 -5l10 82q34 0 70.5 1t70.5 5q-24 22 -47 57t-23 85q0 54 25 97t65 68t85 25q49 0 86 -27t57.5 -68.5t20.5 -86.5q0 -47 -19 -84t-51 -65q40 -3 82 -5t73 -2q21 0 30.5 -11.5t9.5 -27.5t-14 -29.5t-36 -13.5q-61 0 -127 9.5t-116 23.5q-16 -6 -33 -11 q-46 -13 -105 -17.5t-114 -4.5zM163 223q0 -39 24 -68.5t54 -47.5q41 18 69 48t28 72q0 23 -11 47.5t-30 41.5t-44 17q-24 0 -44.5 -16t-33 -41.5t-12.5 -52.5zM181 643q-21 0 -35.5 14.5t-14.5 34.5t14.5 35t35.5 15q20 0 34.5 -15t14.5 -35t-14.5 -34.5t-34.5 -14.5z M317 643q-21 0 -35.5 14.5t-14.5 34.5t14.5 35t35.5 15q20 0 34.5 -15t14.5 -35t-14.5 -34.5t-34.5 -14.5zM181 518q-21 0 -35.5 14.5t-14.5 34.5t14.5 35t35.5 15q20 0 34.5 -15t14.5 -35t-14.5 -34.5t-34.5 -14.5zM317 518q-21 0 -35.5 14.5t-14.5 34.5t14.5 35t35.5 15 q20 0 34.5 -15t14.5 -35t-14.5 -34.5t-34.5 -14.5z" />
<glyph unicode="&#x684;" horiz-adv-x="639" arabic-form="isolated" d="M360 -394q-70 0 -133.5 16t-112 49.5t-76.5 84.5t-28 120q0 92 43 171t123.5 139.5t191.5 97.5q-49 16 -102.5 32.5t-124.5 16.5q-30 0 -52.5 -5t-42.5 -10l-14 74q26 11 58.5 17.5t65.5 6.5q46 0 82 -8.5t68.5 -20.5t68.5 -24.5t80.5 -21t105.5 -9.5h9l2 -82 q-58 0 -123.5 -15.5t-128.5 -46t-114.5 -74.5t-82.5 -101t-31 -127t38 -113.5t101.5 -63.5t138.5 -20q99 0 201 40l28 -68q-58 -28 -119 -41.5t-120 -13.5zM366 -53q-21 0 -35.5 14.5t-14.5 34.5t14.5 35t35.5 15q20 0 34.5 -15t14.5 -35t-14.5 -34.5t-34.5 -14.5zM367 -181 q-21 0 -35.5 14.5t-14.5 34.5t14.5 35t35.5 15q20 0 34.5 -15t14.5 -35t-14.5 -34.5t-34.5 -14.5z" />
<glyph unicode="&#x684;" horiz-adv-x="649" arabic-form="final" d="M360 -394q-70 0 -133.5 16t-112 49.5t-76.5 84.5t-28 120q0 92 43 171t123.5 139.5t191.5 97.5q-49 16 -102.5 32.5t-124.5 16.5q-30 0 -52.5 -5t-42.5 -10l-14 74q26 11 58.5 17.5t65.5 6.5q46 0 82 -8.5t68.5 -20.5t68.5 -24.5t80.5 -21t105.5 -9.5h9l2 -82 q-52 0 -109 -12q8 -56 26 -88.5t44.5 -48t58.5 -20t67 -4.5q21 0 30.5 -11.5t9.5 -27.5t-13.5 -29.5t-35.5 -13.5q-42 0 -84.5 6t-79 27t-60.5 66.5t-29 125.5q-58 -20 -113 -51t-98 -73t-68.5 -94.5t-25.5 -115.5q0 -70 38 -113.5t101.5 -63.5t138.5 -20q99 0 201 40 l28 -68q-58 -28 -119 -41.5t-120 -13.5zM321 -82q-21 0 -35.5 14.5t-14.5 34.5t14.5 35t35.5 15q20 0 34.5 -15t14.5 -35t-14.5 -34.5t-34.5 -14.5zM322 -210q-21 0 -35.5 14.5t-14.5 34.5t14.5 35t35.5 15q20 0 34.5 -15t14.5 -35t-14.5 -34.5t-34.5 -14.5z" />
<glyph unicode="&#x684;" horiz-adv-x="589" arabic-form="initial" d="M78 127q77 0 94.5 6t51 27.5t34.5 25.5q-50 39 -52 39q-55 30 -78 36q-44 11 -73 -26l-35 -12q2 84 20 114q57 89 175 9q16 -11 82.5 -61.5t106.5 -59.5l10 -2l-28 -73q-35 -5 -66 -34l-39 -45q-56 -62 -137 -71q-9 -1 -65 0h-80v127h79zM279 -187q-21 0 -35.5 14.5 t-14.5 34.5t14.5 35t35.5 15q20 0 34.5 -15t14.5 -35t-14.5 -34.5t-34.5 -14.5zM280 -316q-21 0 -35.5 14.5t-14.5 34.5t14.5 35t35.5 15q20 0 34.5 -15t14.5 -35t-14.5 -34.5t-34.5 -14.5z" />
<glyph unicode="&#x684;" horiz-adv-x="637" arabic-form="medial" d="M-1 0v127h79q78 -1 95.5 6t51 28.5t35.5 24.5q-51 39 -53 40q-55 31 -78 37q-44 12 -74 -27l-35 -12q1 85 20 114.5t46 40.5q51 21 129 -31q17 -11 82.5 -61t108.5 -61l10 -2l-29 -73q-29 -5 -54 -24h100v-127q-120 0 -173 49q-17 -14 -30 -20q-46 -24 -85 -29 q-9 -1 -65 0h-81zM261 -187q-21 0 -35.5 14.5t-14.5 34.5t14.5 35t35.5 15q20 0 34.5 -15t14.5 -35t-14.5 -34.5t-34.5 -14.5zM262 -316q-21 0 -35.5 14.5t-14.5 34.5t14.5 35t35.5 15q20 0 34.5 -15t14.5 -35t-14.5 -34.5t-34.5 -14.5z" />
<glyph unicode="&#x683;" horiz-adv-x="659" arabic-form="isolated" d="M380 -394q-70 0 -136.5 16t-119 49.5t-83.5 84.5t-31 120q0 92 48 171t133 139.5t197 97.5q-49 16 -105.5 32.5t-141.5 16.5q-30 0 -52.5 -5t-42.5 -10l-14 74q26 11 58.5 17.5t65.5 6.5q52 0 91.5 -8.5t74.5 -20.5t71.5 -24.5t81.5 -21t106 -9.5h9l2 -82 q-58 0 -125.5 -15.5t-133.5 -46t-120.5 -74.5t-87.5 -101t-33 -127q0 -52 25 -89.5t67.5 -61.5t96 -35t109.5 -11q99 0 201 40l28 -68q-58 -28 -119 -41.5t-120 -13.5zM445 -115q-21 0 -35.5 14.5t-14.5 34.5t14.5 35t35.5 15q20 0 34.5 -15t14.5 -35t-14.5 -34.5 t-34.5 -14.5zM308 -115q-21 0 -35.5 14.5t-14.5 34.5t14.5 35t35.5 15q20 0 34.5 -15t14.5 -35t-14.5 -34.5t-34.5 -14.5z" />
<glyph unicode="&#x683;" horiz-adv-x="719" arabic-form="final" d="M380 -394q-70 0 -136.5 16t-119 49.5t-83.5 84.5t-31 120q0 92 48 171t133 139.5t197 97.5q-49 16 -105.5 32.5t-141.5 16.5q-30 0 -52.5 -5t-42.5 -10l-14 74q26 11 58.5 17.5t65.5 6.5q52 0 91.5 -8.5t74.5 -20.5t71.5 -24.5t81.5 -21t106 -9.5h9l2 -82q-29 0 -60 -4 q7 -58 25 -92.5t44.5 -50.5t59.5 -21t68 -5q21 0 30.5 -11.5t9.5 -27.5t-13.5 -29.5t-35.5 -13.5q-43 0 -86.5 6t-80.5 29t-60.5 71.5t-26.5 132.5q-66 -15 -132.5 -45.5t-121 -74.5t-87.5 -101t-33 -127q0 -52 25 -89.5t67.5 -61.5t96 -35t109.5 -11q99 0 201 40l28 -68 q-58 -28 -119 -41.5t-120 -13.5zM407 -146q-21 0 -35.5 14.5t-14.5 34.5t14.5 35t35.5 15q20 0 34.5 -15t14.5 -35t-14.5 -34.5t-34.5 -14.5zM270 -146q-21 0 -35.5 14.5t-14.5 34.5t14.5 35t35.5 15q20 0 34.5 -15t14.5 -35t-14.5 -34.5t-34.5 -14.5z" />
<glyph unicode="&#x683;" horiz-adv-x="589" arabic-form="initial" d="M78 127q77 0 94.5 6t51 27.5t34.5 25.5q-50 39 -52 39q-55 30 -78 36q-44 11 -73 -26l-35 -12q2 84 20 114q57 89 175 9q16 -11 82.5 -61.5t106.5 -59.5l10 -2l-28 -73q-35 -5 -66 -34l-39 -45q-56 -62 -137 -71q-9 -1 -65 0h-80v127h79zM351 -189q-21 0 -35.5 14.5 t-14.5 34.5t14.5 35t35.5 15q20 0 34.5 -15t14.5 -35t-14.5 -34.5t-34.5 -14.5zM214 -189q-21 0 -35.5 14.5t-14.5 34.5t14.5 35t35.5 15q20 0 34.5 -15t14.5 -35t-14.5 -34.5t-34.5 -14.5z" />
<glyph unicode="&#x683;" horiz-adv-x="637" arabic-form="medial" d="M-1 0v127h79q78 -1 95.5 6t51 28.5t35.5 24.5q-51 39 -53 40q-55 31 -78 37q-44 12 -74 -27l-35 -12q1 85 20 114.5t46 40.5q51 21 129 -31q17 -11 82.5 -61t108.5 -61l10 -2l-29 -73q-29 -5 -54 -24h100v-127q-120 0 -173 49q-17 -14 -30 -20q-46 -24 -85 -29 q-9 -1 -65 0h-81zM333 -189q-21 0 -35.5 14.5t-14.5 34.5t14.5 35t35.5 15q20 0 34.5 -15t14.5 -35t-14.5 -34.5t-34.5 -14.5zM196 -189q-21 0 -35.5 14.5t-14.5 34.5t14.5 35t35.5 15q20 0 34.5 -15t14.5 -35t-14.5 -34.5t-34.5 -14.5z" />
<glyph unicode="&#x686;" horiz-adv-x="659" arabic-form="isolated" d="M380 -394q-70 0 -136.5 16t-119 49.5t-83.5 84.5t-31 120q0 92 48 171t133 139.5t197 97.5q-49 16 -105.5 32.5t-141.5 16.5q-30 0 -52.5 -5t-42.5 -10l-14 74q26 11 58.5 17.5t65.5 6.5q52 0 91.5 -8.5t74.5 -20.5t71.5 -24.5t81.5 -21t106 -9.5h9l2 -82 q-58 0 -125.5 -15.5t-133.5 -46t-120.5 -74.5t-87.5 -101t-33 -127q0 -52 25 -89.5t67.5 -61.5t96 -35t109.5 -11q99 0 201 40l28 -68q-58 -28 -119 -41.5t-120 -13.5zM309 -83q-21 0 -35.5 14.5t-14.5 34.5t14.5 35t35.5 15q20 0 34.5 -15t14.5 -35t-14.5 -34.5 t-34.5 -14.5zM445 -83q-21 0 -35.5 14.5t-14.5 34.5t14.5 35t35.5 15q20 0 34.5 -15t14.5 -35t-14.5 -34.5t-34.5 -14.5zM377 -193q-21 0 -35.5 14.5t-14.5 34.5t14.5 35t35.5 15q20 0 34.5 -15t14.5 -35t-14.5 -34.5t-34.5 -14.5z" />
<glyph unicode="&#x686;" horiz-adv-x="719" arabic-form="final" d="M380 -394q-70 0 -136.5 16t-119 49.5t-83.5 84.5t-31 120q0 92 48 171t133 139.5t197 97.5q-49 16 -105.5 32.5t-141.5 16.5q-30 0 -52.5 -5t-42.5 -10l-14 74q26 11 58.5 17.5t65.5 6.5q52 0 91.5 -8.5t74.5 -20.5t71.5 -24.5t81.5 -21t106 -9.5h9l2 -82q-29 0 -60 -4 q7 -58 25 -92.5t44.5 -50.5t59.5 -21t68 -5q21 0 30.5 -11.5t9.5 -27.5t-13.5 -29.5t-35.5 -13.5q-43 0 -86.5 6t-80.5 29t-60.5 71.5t-26.5 132.5q-66 -15 -132.5 -45.5t-121 -74.5t-87.5 -101t-33 -127q0 -52 25 -89.5t67.5 -61.5t96 -35t109.5 -11q99 0 201 40l28 -68 q-58 -28 -119 -41.5t-120 -13.5zM271 -113q-21 0 -35.5 14.5t-14.5 34.5t14.5 35t35.5 15q20 0 34.5 -15t14.5 -35t-14.5 -34.5t-34.5 -14.5zM407 -113q-21 0 -35.5 14.5t-14.5 34.5t14.5 35t35.5 15q20 0 34.5 -15t14.5 -35t-14.5 -34.5t-34.5 -14.5zM339 -223 q-21 0 -35.5 14.5t-14.5 34.5t14.5 35t35.5 15q20 0 34.5 -15t14.5 -35t-14.5 -34.5t-34.5 -14.5z" />
<glyph unicode="&#x686;" horiz-adv-x="589" arabic-form="initial" d="M78 127q77 0 94.5 6t51 27.5t34.5 25.5q-50 39 -52 39q-55 30 -78 36q-44 11 -73 -26l-35 -12q2 84 20 114q57 89 175 9q16 -11 82.5 -61.5t106.5 -59.5l10 -2l-28 -73q-35 -5 -66 -34l-39 -45q-56 -62 -137 -71q-9 -1 -65 0h-80v127h79zM211 -189q-21 0 -35.5 14.5 t-14.5 34.5t14.5 35t35.5 15q20 0 34.5 -15t14.5 -35t-14.5 -34.5t-34.5 -14.5zM347 -189q-21 0 -35.5 14.5t-14.5 34.5t14.5 35t35.5 15q20 0 34.5 -15t14.5 -35t-14.5 -34.5t-34.5 -14.5zM279 -299q-21 0 -35.5 14.5t-14.5 34.5t14.5 35t35.5 15q20 0 34.5 -15t14.5 -35 t-14.5 -34.5t-34.5 -14.5z" />
<glyph unicode="&#x686;" horiz-adv-x="637" arabic-form="medial" d="M-1 0v127h79q78 -1 95.5 6t51 28.5t35.5 24.5q-51 39 -53 40q-55 31 -78 37q-44 12 -74 -27l-35 -12q1 85 20 114.5t46 40.5q51 21 129 -31q17 -11 82.5 -61t108.5 -61l10 -2l-29 -73q-29 -5 -54 -24h100v-127q-120 0 -173 49q-17 -14 -30 -20q-46 -24 -85 -29 q-9 -1 -65 0h-81zM193 -189q-21 0 -35.5 14.5t-14.5 34.5t14.5 35t35.5 15q20 0 34.5 -15t14.5 -35t-14.5 -34.5t-34.5 -14.5zM329 -189q-21 0 -35.5 14.5t-14.5 34.5t14.5 35t35.5 15q20 0 34.5 -15t14.5 -35t-14.5 -34.5t-34.5 -14.5zM261 -299q-21 0 -35.5 14.5 t-14.5 34.5t14.5 35t35.5 15q20 0 34.5 -15t14.5 -35t-14.5 -34.5t-34.5 -14.5z" />
<glyph unicode="&#x687;" horiz-adv-x="659" arabic-form="isolated" d="M380 -394q-70 0 -136.5 16t-119 49.5t-83.5 84.5t-31 120q0 92 48 171t133 139.5t197 97.5q-49 16 -105.5 32.5t-141.5 16.5q-30 0 -52.5 -5t-42.5 -10l-14 74q26 11 58.5 17.5t65.5 6.5q52 0 91.5 -8.5t74.5 -20.5t71.5 -24.5t81.5 -21t106 -9.5h9l2 -82 q-58 0 -125.5 -15.5t-133.5 -46t-120.5 -74.5t-87.5 -101t-33 -127q0 -52 25 -89.5t67.5 -61.5t96 -35t109.5 -11q99 0 201 40l28 -68q-58 -28 -119 -41.5t-120 -13.5zM329 -60q-21 0 -35.5 14.5t-14.5 34.5t14.5 35t35.5 15q20 0 34.5 -15t14.5 -35t-14.5 -34.5 t-34.5 -14.5zM465 -60q-21 0 -35.5 14.5t-14.5 34.5t14.5 35t35.5 15q20 0 34.5 -15t14.5 -35t-14.5 -34.5t-34.5 -14.5zM329 -185q-21 0 -35.5 14.5t-14.5 34.5t14.5 35t35.5 15q20 0 34.5 -15t14.5 -35t-14.5 -34.5t-34.5 -14.5zM465 -185q-21 0 -35.5 14.5t-14.5 34.5 t14.5 35t35.5 15q20 0 34.5 -15t14.5 -35t-14.5 -34.5t-34.5 -14.5z" />
<glyph unicode="&#x687;" horiz-adv-x="719" arabic-form="final" d="M380 -394q-70 0 -136.5 16t-119 49.5t-83.5 84.5t-31 120q0 92 48 171t133 139.5t197 97.5q-49 16 -105.5 32.5t-141.5 16.5q-30 0 -52.5 -5t-42.5 -10l-14 74q26 11 58.5 17.5t65.5 6.5q52 0 91.5 -8.5t74.5 -20.5t71.5 -24.5t81.5 -21t106 -9.5h9l2 -82q-29 0 -60 -4 q7 -58 25 -92.5t44.5 -50.5t59.5 -21t68 -5q21 0 30.5 -11.5t9.5 -27.5t-13.5 -29.5t-35.5 -13.5q-43 0 -86.5 6t-80.5 29t-60.5 71.5t-26.5 132.5q-66 -15 -132.5 -45.5t-121 -74.5t-87.5 -101t-33 -127q0 -52 25 -89.5t67.5 -61.5t96 -35t109.5 -11q99 0 201 40l28 -68 q-58 -28 -119 -41.5t-120 -13.5zM271 -98q-21 0 -35.5 14.5t-14.5 34.5t14.5 35t35.5 15q20 0 34.5 -15t14.5 -35t-14.5 -34.5t-34.5 -14.5zM407 -98q-21 0 -35.5 14.5t-14.5 34.5t14.5 35t35.5 15q20 0 34.5 -15t14.5 -35t-14.5 -34.5t-34.5 -14.5zM271 -223 q-21 0 -35.5 14.5t-14.5 34.5t14.5 35t35.5 15q20 0 34.5 -15t14.5 -35t-14.5 -34.5t-34.5 -14.5zM407 -223q-21 0 -35.5 14.5t-14.5 34.5t14.5 35t35.5 15q20 0 34.5 -15t14.5 -35t-14.5 -34.5t-34.5 -14.5z" />
<glyph unicode="&#x687;" horiz-adv-x="589" arabic-form="initial" d="M78 127q77 0 94.5 6t51 27.5t34.5 25.5q-50 39 -52 39q-55 30 -78 36q-44 11 -73 -26l-35 -12q2 84 20 114q57 89 175 9q16 -11 82.5 -61.5t106.5 -59.5l10 -2l-28 -73q-35 -5 -66 -34l-39 -45q-56 -62 -137 -71q-9 -1 -65 0h-80v127h79zM351 -187q-21 0 -35.5 14.5 t-14.5 34.5t14.5 35t35.5 15q20 0 34.5 -15t14.5 -35t-14.5 -34.5t-34.5 -14.5zM215 -187q-21 0 -35.5 14.5t-14.5 34.5t14.5 35t35.5 15q20 0 34.5 -15t14.5 -35t-14.5 -34.5t-34.5 -14.5zM351 -312q-21 0 -35.5 14.5t-14.5 34.5t14.5 35t35.5 15q20 0 34.5 -15t14.5 -35 t-14.5 -34.5t-34.5 -14.5zM215 -312q-21 0 -35.5 14.5t-14.5 34.5t14.5 35t35.5 15q20 0 34.5 -15t14.5 -35t-14.5 -34.5t-34.5 -14.5z" />
<glyph unicode="&#x687;" horiz-adv-x="637" arabic-form="medial" d="M-1 0v127h79q78 -1 95.5 6t51 28.5t35.5 24.5q-51 39 -53 40q-55 31 -78 37q-44 12 -74 -27l-35 -12q1 85 20 114.5t46 40.5q51 21 129 -31q17 -11 82.5 -61t108.5 -61l10 -2l-29 -73q-29 -5 -54 -24h100v-127q-120 0 -173 49q-17 -14 -30 -20q-46 -24 -85 -29 q-9 -1 -65 0h-81zM333 -187q-21 0 -35.5 14.5t-14.5 34.5t14.5 35t35.5 15q20 0 34.5 -15t14.5 -35t-14.5 -34.5t-34.5 -14.5zM197 -187q-21 0 -35.5 14.5t-14.5 34.5t14.5 35t35.5 15q20 0 34.5 -15t14.5 -35t-14.5 -34.5t-34.5 -14.5zM333 -312q-21 0 -35.5 14.5 t-14.5 34.5t14.5 35t35.5 15q20 0 34.5 -15t14.5 -35t-14.5 -34.5t-34.5 -14.5zM197 -312q-21 0 -35.5 14.5t-14.5 34.5t14.5 35t35.5 15q20 0 34.5 -15t14.5 -35t-14.5 -34.5t-34.5 -14.5z" />
<glyph unicode="&#x68d;" horiz-adv-x="477" arabic-form="isolated" d="M271 384q81 -197 42 -384q-132 -4 -286 0v130q106 -22 197 0q-25 112 -74 201zM298 -194q-21 0 -35.5 14.5t-14.5 34.5t14.5 35t35.5 15q20 0 34.5 -15t14.5 -35t-14.5 -34.5t-34.5 -14.5zM161 -194q-21 0 -35.5 14.5t-14.5 34.5t14.5 35t35.5 15q20 0 34.5 -15t14.5 -35 t-14.5 -34.5t-34.5 -14.5z" />
<glyph unicode="&#x68d;" horiz-adv-x="532" arabic-form="final" d="M377 127v-127h-22q-19 14 -32 35l-4 -15q0 -5 -3 -20q-132 -4 -286 0v127q106 -20 196 0q-25 115 -73 204l121 53q53 -130 55 -257h48zM306 -194q-21 0 -35.5 14.5t-14.5 34.5t14.5 35t35.5 15q20 0 34.5 -15t14.5 -35t-14.5 -34.5t-34.5 -14.5zM169 -194 q-21 0 -35.5 14.5t-14.5 34.5t14.5 35t35.5 15q20 0 34.5 -15t14.5 -35t-14.5 -34.5t-34.5 -14.5z" />
<glyph unicode="&#x68c;" horiz-adv-x="477" arabic-form="isolated" d="M271 384q81 -197 42 -384q-132 -4 -286 0v130q106 -22 197 0q-25 112 -74 201zM286 560q-21 0 -35.5 14.5t-14.5 34.5t14.5 35t35.5 15q20 0 34.5 -15t14.5 -35t-14.5 -34.5t-34.5 -14.5zM149 560q-21 0 -35.5 14.5t-14.5 34.5t14.5 35t35.5 15q20 0 34.5 -15t14.5 -35 t-14.5 -34.5t-34.5 -14.5z" />
<glyph unicode="&#x68c;" horiz-adv-x="532" arabic-form="final" d="M377 127v-127h-22q-19 14 -32 35l-4 -15q0 -5 -3 -20q-132 -4 -286 0v127q106 -20 196 0q-25 115 -73 204l121 53q53 -130 55 -257h48zM291 560q-21 0 -35.5 14.5t-14.5 34.5t14.5 35t35.5 15q20 0 34.5 -15t14.5 -35t-14.5 -34.5t-34.5 -14.5zM154 560q-21 0 -35.5 14.5 t-14.5 34.5t14.5 35t35.5 15q20 0 34.5 -15t14.5 -35t-14.5 -34.5t-34.5 -14.5z" />
<glyph unicode="&#x68e;" horiz-adv-x="477" arabic-form="isolated" d="M271 384q81 -197 42 -384q-132 -4 -286 0v130q106 -22 197 0q-25 112 -74 201zM218 670q-21 0 -35.5 14.5t-14.5 34.5t14.5 35t35.5 15q20 0 34.5 -15t14.5 -35t-14.5 -34.5t-34.5 -14.5zM150 560q-21 0 -35.5 14.5t-14.5 34.5t14.5 35t35.5 15q20 0 34.5 -15t14.5 -35 t-14.5 -34.5t-34.5 -14.5zM286 560q-21 0 -35.5 14.5t-14.5 34.5t14.5 35t35.5 15q20 0 34.5 -15t14.5 -35t-14.5 -34.5t-34.5 -14.5z" />
<glyph unicode="&#x68e;" horiz-adv-x="532" arabic-form="final" d="M377 127v-127h-22q-19 14 -32 35l-4 -15q0 -5 -3 -20q-132 -4 -286 0v127q106 -20 196 0q-25 115 -73 204l121 53q53 -130 55 -257h48zM223 670q-21 0 -35.5 14.5t-14.5 34.5t14.5 35t35.5 15q20 0 34.5 -15t14.5 -35t-14.5 -34.5t-34.5 -14.5zM155 560q-21 0 -35.5 14.5 t-14.5 34.5t14.5 35t35.5 15q20 0 34.5 -15t14.5 -35t-14.5 -34.5t-34.5 -14.5zM291 560q-21 0 -35.5 14.5t-14.5 34.5t14.5 35t35.5 15q20 0 34.5 -15t14.5 -35t-14.5 -34.5t-34.5 -14.5z" />
<glyph unicode="&#x688;" horiz-adv-x="477" arabic-form="isolated" d="M271 384q81 -197 42 -384q-132 -4 -286 0v130q106 -22 197 0q-25 112 -74 201zM219 588q-18 0 -42.5 1.5t-46.5 3.5l-33 3l2 58q6 -1 13 -1.5t15 -1.5q10 18 22 34l-5 162h55l5 -106q18 13 37.5 20.5t39.5 7.5q38 0 60 -23t22 -57q0 -20 -11.5 -43.5t-42.5 -40.5t-90 -17 zM273 710q-18 0 -35 -11t-31.5 -26t-22.5 -26q16 -1 28 -1q49 0 71 10.5t22 27.5q0 14 -9 20t-23 6z" />
<glyph unicode="&#x688;" horiz-adv-x="532" arabic-form="final" d="M377 127v-127h-22q-19 14 -32 35l-4 -15q0 -5 -3 -20q-132 -4 -286 0v127q106 -20 196 0q-25 115 -73 204l121 53q53 -130 55 -257h48zM224 588q-18 0 -42.5 1.5t-46.5 3.5l-33 3l2 58q6 -1 13 -1.5t15 -1.5q10 18 22 34l-5 162h55l5 -106q18 13 37.5 20.5t39.5 7.5 q38 0 60 -23t22 -57q0 -20 -11.5 -43.5t-42.5 -40.5t-90 -17zM278 710q-18 0 -35 -11t-31.5 -26t-22.5 -26q16 -1 28 -1q49 0 71 10.5t22 27.5q0 14 -9 20t-23 6z" />
<glyph unicode="&#x698;" horiz-adv-x="367" arabic-form="isolated" d="M248 127q14 -102 -11 -178.5t-65 -135.5h-183q149 122 179 212q-4 7 -83 207l132 41q25 -98 31 -146zM179 564q-21 0 -35.5 14.5t-14.5 34.5t14.5 35t35.5 15q20 0 34.5 -15t14.5 -35t-14.5 -34.5t-34.5 -14.5zM111 454q-21 0 -35.5 14.5t-14.5 34.5t14.5 35t35.5 15 q20 0 34.5 -15t14.5 -35t-14.5 -34.5t-34.5 -14.5zM247 454q-21 0 -35.5 14.5t-14.5 34.5t14.5 35t35.5 15q20 0 34.5 -15t14.5 -35t-14.5 -34.5t-34.5 -14.5z" />
<glyph unicode="&#x698;" horiz-adv-x="396" arabic-form="final" d="M290 127v-127h-12q-16 13 -29 29q-3 -55 -11 -80q-24 -77 -65 -136h-184q150 122 179 212q-2 2 -83 207l132 41q25 -99 32 -146h41zM165 564q-21 0 -35.5 14.5t-14.5 34.5t14.5 35t35.5 15q20 0 34.5 -15t14.5 -35t-14.5 -34.5t-34.5 -14.5zM97 454q-21 0 -35.5 14.5 t-14.5 34.5t14.5 35t35.5 15q20 0 34.5 -15t14.5 -35t-14.5 -34.5t-34.5 -14.5zM233 454q-21 0 -35.5 14.5t-14.5 34.5t14.5 35t35.5 15q20 0 34.5 -15t14.5 -35t-14.5 -34.5t-34.5 -14.5z" />
<glyph unicode="&#x691;" horiz-adv-x="367" arabic-form="isolated" d="M248 127q14 -102 -11 -178.5t-65 -135.5h-183q149 122 179 212q-4 7 -83 207l132 41q25 -98 31 -146zM180 482q-18 0 -42.5 1.5t-46.5 3.5l-33 3l2 58q6 -1 13 -1.5t15 -1.5q10 18 22 34l-5 162h55l5 -106q18 13 37.5 20.5t39.5 7.5q38 0 60 -23t22 -57 q0 -20 -11.5 -43.5t-42.5 -40.5t-90 -17zM234 604q-18 0 -35 -11t-31.5 -26t-22.5 -26q16 -1 28 -1q49 0 71 10.5t22 27.5q0 14 -9 20t-23 6z" />
<glyph unicode="&#x691;" horiz-adv-x="396" arabic-form="final" d="M290 127v-127h-12q-16 13 -29 29q-3 -55 -11 -80q-24 -77 -65 -136h-184q150 122 179 212q-2 2 -83 207l132 41q25 -99 32 -146h41zM166 482q-18 0 -42.5 1.5t-46.5 3.5l-33 3l2 58q6 -1 13 -1.5t15 -1.5q10 18 22 34l-5 162h55l5 -106q18 13 37.5 20.5t39.5 7.5 q38 0 60 -23t22 -57q0 -20 -11.5 -43.5t-42.5 -40.5t-90 -17zM220 604q-18 0 -35 -11t-31.5 -26t-22.5 -26q16 -1 28 -1q49 0 71 10.5t22 27.5q0 14 -9 20t-23 6z" />
<glyph unicode="&#x6a9;" horiz-adv-x="877" arabic-form="isolated" d="M390 -21q-178 0 -269 47t-91 156q0 37 9 78.5t19 78.5l75 -19q-6 -22 -13.5 -55.5t-7.5 -59.5q0 -52 26.5 -83.5t92.5 -46t185 -14.5q98 0 161.5 6t99 17t50 27.5t14.5 37.5q0 23 -17.5 57t-71.5 88q-37 38 -74 67t-61 49t-24 29q0 23 5.5 43t15.5 31q40 43 125.5 86.5 t213.5 107.5l34 -74q-91 -44 -148.5 -72.5t-95 -50t-69.5 -43.5q117 -95 179.5 -170.5t62.5 -152.5q0 -23 -7 -47t-30.5 -45t-69.5 -37.5t-124 -26t-195 -9.5z" />
<glyph unicode="&#x6a9;" horiz-adv-x="975" arabic-form="final" d="M390 -21q-178 0 -269 47t-91 156q0 37 9 78.5t19 78.5l75 -19q-6 -22 -13.5 -55.5t-7.5 -59.5q0 -52 26.5 -83.5t92.5 -46t185 -14.5q125 0 196 13t100.5 32t29.5 35q0 24 -18 53t-46 59.5t-59.5 60.5t-59.5 55t-46 43.5t-18 26.5q0 23 5.5 43t15.5 31q27 29 79.5 60.5 t120.5 65t139 68.5l34 -74q-88 -44 -172.5 -85t-147.5 -85q55 -47 103 -91t89 -94.5t75 -114.5q21 -39 49 -57t55.5 -23.5t44.5 -5.5q21 0 30.5 -11.5t9.5 -27.5t-14 -29.5t-36 -13.5q-24 0 -56 6.5t-63.5 25t-55.5 54.5q-17 -22 -45 -41t-74.5 -32.5t-117.5 -21t-173 -7.5z " />
<glyph unicode="&#x6a9;" horiz-adv-x="412" arabic-form="initial" d="M-1 0v127h283q3 60 -90 92q-36 14 -72 19l-27 -10l-55 34q-14 104 23 153q132 112 359 196v-125q-223 -58 -270 -138q159 -47 213 -113q79 -98 7 -235h-371z" />
<glyph unicode="&#x6a9;" horiz-adv-x="508" arabic-form="medial" d="M452 0q-28 0 -63 49q-8 -26 -19 -49h-371v127h282q4 60 -89 92q-37 14 -72 19l-27 -10l-56 34q-13 104 24 153q130 112 359 196v-125q-223 -58 -270 -138q159 -49 211 -114q34 -41 37 -107h79v-127h-25z" />
<glyph unicode="&#x6af;" horiz-adv-x="877" arabic-form="isolated" d="M462 550l-37 56q58 35 152.5 91.5t223.5 123.5l28 -61q-130 -69 -218 -120.5t-149 -89.5zM390 -21q-178 0 -269 47t-91 156q0 37 9 78.5t19 78.5l75 -19q-6 -22 -13.5 -55.5t-7.5 -59.5q0 -52 26.5 -83.5t92.5 -46t185 -14.5q98 0 161.5 6t99 17t50 27.5t14.5 37.5 q0 23 -17.5 57t-71.5 88q-37 38 -74 67t-61 49t-24 29q0 23 5.5 43t15.5 31q40 43 125.5 86.5t213.5 107.5l34 -74q-91 -44 -148.5 -72.5t-95 -50t-69.5 -43.5q117 -95 179.5 -170.5t62.5 -152.5q0 -23 -7 -47t-30.5 -45t-69.5 -37.5t-124 -26t-195 -9.5z" />
<glyph unicode="&#x6af;" horiz-adv-x="975" arabic-form="final" d="M462 550l-37 56q58 35 152.5 91.5t223.5 123.5l28 -61q-130 -69 -218 -120.5t-149 -89.5zM390 -21q-178 0 -269 47t-91 156q0 37 9 78.5t19 78.5l75 -19q-6 -22 -13.5 -55.5t-7.5 -59.5q0 -52 26.5 -83.5t92.5 -46t185 -14.5q125 0 196 13t100.5 32t29.5 35q0 24 -18 53 t-46 59.5t-59.5 60.5t-59.5 55t-46 43.5t-18 26.5q0 23 5.5 43t15.5 31q27 29 79.5 60.5t120.5 65t139 68.5l34 -74q-88 -44 -172.5 -85t-147.5 -85q55 -47 103 -91t89 -94.5t75 -114.5q21 -39 49 -57t55.5 -23.5t44.5 -5.5q21 0 30.5 -11.5t9.5 -27.5t-14 -29.5t-36 -13.5 q-24 0 -56 6.5t-63.5 25t-55.5 54.5q-17 -22 -45 -41t-74.5 -32.5t-117.5 -21t-173 -7.5z" />
<glyph unicode="&#x6af;" horiz-adv-x="412" arabic-form="initial" d="M-1 550l-37 56q58 35 152.5 91.5t223.5 123.5l28 -61q-130 -69 -218 -120.5t-149 -89.5zM0 -5l10 82h94q59 0 93.5 6.5t51 17t22 23t5.5 25.5q0 23 -17.5 57t-71.5 88q-37 38 -74 67t-61 49t-24 29q0 23 5.5 43t15.5 31q40 43 125.5 86.5t213.5 107.5l34 -74 q-91 -44 -148.5 -72.5t-95 -50t-69.5 -43.5q117 -95 179.5 -170.5t62.5 -152.5q0 -22 -8 -48t-34 -49t-78 -37.5t-140 -14.5h-91z" />
<glyph unicode="&#x6af;" horiz-adv-x="508" arabic-form="medial" d="M-1 550l-37 56q58 35 152.5 91.5t223.5 123.5l28 -61q-130 -69 -218 -120.5t-149 -89.5zM0 -5l10 82h77q83 0 123 9t52.5 24t12.5 31q0 24 -18 53t-46 59.5t-59.5 60.5t-59.5 55t-46 43.5t-18 26.5q0 23 5.5 43t15.5 31q27 29 79.5 60.5t120.5 65t139 68.5l34 -74 q-88 -44 -172.5 -85t-147.5 -85q55 -47 103 -91t89 -94.5t75 -114.5q21 -39 49 -57t55.5 -23.5t44.5 -5.5q21 0 30.5 -11.5t9.5 -27.5t-14 -29.5t-36 -13.5q-24 0 -55.5 6.5t-63.5 25t-56 54.5q-20 -29 -50 -48t-78 -28.5t-122 -9.5h-83z" />
<glyph unicode="&#x6b3;" horiz-adv-x="877" arabic-form="isolated" d="M462 550l-37 56q58 35 152.5 91.5t223.5 123.5l28 -61q-130 -69 -218 -120.5t-149 -89.5zM390 -21q-178 0 -269 47t-91 156q0 37 9 78.5t19 78.5l75 -19q-6 -22 -13.5 -55.5t-7.5 -59.5q0 -52 26.5 -83.5t92.5 -46t185 -14.5q98 0 161.5 6t99 17t50 27.5t14.5 37.5 q0 23 -17.5 57t-71.5 88q-37 38 -74 67t-61 49t-24 29q0 23 5.5 43t15.5 31q40 43 125.5 86.5t213.5 107.5l34 -74q-91 -44 -148.5 -72.5t-95 -50t-69.5 -43.5q117 -95 179.5 -170.5t62.5 -152.5q0 -23 -7 -47t-30.5 -45t-69.5 -37.5t-124 -26t-195 -9.5zM410 -208 q-21 0 -35.5 14.5t-14.5 34.5t14.5 35t35.5 15q20 0 34.5 -15t14.5 -35t-14.5 -34.5t-34.5 -14.5zM411 -337q-21 0 -35.5 14.5t-14.5 34.5t14.5 35t35.5 15q20 0 34.5 -15t14.5 -35t-14.5 -34.5t-34.5 -14.5z" />
<glyph unicode="&#x6b3;" horiz-adv-x="975" arabic-form="final" d="M462 550l-37 56q58 35 152.5 91.5t223.5 123.5l28 -61q-130 -69 -218 -120.5t-149 -89.5zM390 -21q-178 0 -269 47t-91 156q0 37 9 78.5t19 78.5l75 -19q-6 -22 -13.5 -55.5t-7.5 -59.5q0 -52 26.5 -83.5t92.5 -46t185 -14.5q125 0 196 13t100.5 32t29.5 35q0 24 -18 53 t-46 59.5t-59.5 60.5t-59.5 55t-46 43.5t-18 26.5q0 23 5.5 43t15.5 31q27 29 79.5 60.5t120.5 65t139 68.5l34 -74q-88 -44 -172.5 -85t-147.5 -85q55 -47 103 -91t89 -94.5t75 -114.5q21 -39 49 -57t55.5 -23.5t44.5 -5.5q21 0 30.5 -11.5t9.5 -27.5t-14 -29.5t-36 -13.5 q-24 0 -56 6.5t-63.5 25t-55.5 54.5q-17 -22 -45 -41t-74.5 -32.5t-117.5 -21t-173 -7.5zM410 -208q-21 0 -35.5 14.5t-14.5 34.5t14.5 35t35.5 15q20 0 34.5 -15t14.5 -35t-14.5 -34.5t-34.5 -14.5zM411 -337q-21 0 -35.5 14.5t-14.5 34.5t14.5 35t35.5 15q20 0 34.5 -15 t14.5 -35t-14.5 -34.5t-34.5 -14.5z" />
<glyph unicode="&#x6b3;" horiz-adv-x="412" arabic-form="initial" d="M-1 550l-37 56q58 35 152.5 91.5t223.5 123.5l28 -61q-130 -69 -218 -120.5t-149 -89.5zM0 -5l10 82h94q59 0 93.5 6.5t51 17t22 23t5.5 25.5q0 23 -17.5 57t-71.5 88q-37 38 -74 67t-61 49t-24 29q0 23 5.5 43t15.5 31q40 43 125.5 86.5t213.5 107.5l34 -74 q-91 -44 -148.5 -72.5t-95 -50t-69.5 -43.5q117 -95 179.5 -170.5t62.5 -152.5q0 -22 -8 -48t-34 -49t-78 -37.5t-140 -14.5h-91zM163 -187q-21 0 -35.5 14.5t-14.5 34.5t14.5 35t35.5 15q20 0 34.5 -15t14.5 -35t-14.5 -34.5t-34.5 -14.5zM164 -316q-21 0 -35.5 14.5 t-14.5 34.5t14.5 35t35.5 15q20 0 34.5 -15t14.5 -35t-14.5 -34.5t-34.5 -14.5z" />
<glyph unicode="&#x6b3;" horiz-adv-x="508" arabic-form="medial" d="M-1 550l-37 56q58 35 152.5 91.5t223.5 123.5l28 -61q-130 -69 -218 -120.5t-149 -89.5zM0 -5l10 82h77q83 0 123 9t52.5 24t12.5 31q0 24 -18 53t-46 59.5t-59.5 60.5t-59.5 55t-46 43.5t-18 26.5q0 23 5.5 43t15.5 31q27 29 79.5 60.5t120.5 65t139 68.5l34 -74 q-88 -44 -172.5 -85t-147.5 -85q55 -47 103 -91t89 -94.5t75 -114.5q21 -39 49 -57t55.5 -23.5t44.5 -5.5q21 0 30.5 -11.5t9.5 -27.5t-14 -29.5t-36 -13.5q-24 0 -55.5 6.5t-63.5 25t-56 54.5q-20 -29 -50 -48t-78 -28.5t-122 -9.5h-83zM163 -187q-21 0 -35.5 14.5 t-14.5 34.5t14.5 35t35.5 15q20 0 34.5 -15t14.5 -35t-14.5 -34.5t-34.5 -14.5zM164 -316q-21 0 -35.5 14.5t-14.5 34.5t14.5 35t35.5 15q20 0 34.5 -15t14.5 -35t-14.5 -34.5t-34.5 -14.5z" />
<glyph unicode="&#x6b1;" horiz-adv-x="877" arabic-form="isolated" d="M639 801q-21 0 -35.5 14.5t-14.5 34.5t14.5 35t35.5 15q20 0 34.5 -15t14.5 -35t-14.5 -34.5t-34.5 -14.5zM524 748q-21 0 -35.5 14.5t-14.5 34.5t14.5 35t35.5 15q20 0 34.5 -15t14.5 -35t-14.5 -34.5t-34.5 -14.5zM462 550l-37 56q58 35 152.5 91.5t223.5 123.5l28 -61 q-130 -69 -218 -120.5t-149 -89.5zM390 -21q-178 0 -269 47t-91 156q0 37 9 78.5t19 78.5l75 -19q-6 -22 -13.5 -55.5t-7.5 -59.5q0 -52 26.5 -83.5t92.5 -46t185 -14.5q98 0 161.5 6t99 17t50 27.5t14.5 37.5q0 23 -17.5 57t-71.5 88q-37 38 -74 67t-61 49t-24 29 q0 23 5.5 43t15.5 31q40 43 125.5 86.5t213.5 107.5l34 -74q-91 -44 -148.5 -72.5t-95 -50t-69.5 -43.5q117 -95 179.5 -170.5t62.5 -152.5q0 -23 -7 -47t-30.5 -45t-69.5 -37.5t-124 -26t-195 -9.5z" />
<glyph unicode="&#x6b1;" horiz-adv-x="975" arabic-form="final" d="M639 801q-21 0 -35.5 14.5t-14.5 34.5t14.5 35t35.5 15q20 0 34.5 -15t14.5 -35t-14.5 -34.5t-34.5 -14.5zM524 748q-21 0 -35.5 14.5t-14.5 34.5t14.5 35t35.5 15q20 0 34.5 -15t14.5 -35t-14.5 -34.5t-34.5 -14.5zM462 550l-37 56q58 35 152.5 91.5t223.5 123.5l28 -61 q-130 -69 -218 -120.5t-149 -89.5zM390 -21q-178 0 -269 47t-91 156q0 37 9 78.5t19 78.5l75 -19q-6 -22 -13.5 -55.5t-7.5 -59.5q0 -52 26.5 -83.5t92.5 -46t185 -14.5q125 0 196 13t100.5 32t29.5 35q0 24 -18 53t-46 59.5t-59.5 60.5t-59.5 55t-46 43.5t-18 26.5 q0 23 5.5 43t15.5 31q27 29 79.5 60.5t120.5 65t139 68.5l34 -74q-88 -44 -172.5 -85t-147.5 -85q55 -47 103 -91t89 -94.5t75 -114.5q21 -39 49 -57t55.5 -23.5t44.5 -5.5q21 0 30.5 -11.5t9.5 -27.5t-14 -29.5t-36 -13.5q-24 0 -56 6.5t-63.5 25t-55.5 54.5 q-17 -22 -45 -41t-74.5 -32.5t-117.5 -21t-173 -7.5z" />
<glyph unicode="&#x6b1;" horiz-adv-x="412" arabic-form="initial" d="M187 799q-21 0 -35.5 14.5t-14.5 34.5t14.5 35t35.5 15q20 0 34.5 -15t14.5 -35t-14.5 -34.5t-34.5 -14.5zM72 746q-21 0 -35.5 14.5t-14.5 34.5t14.5 35t35.5 15q20 0 34.5 -15t14.5 -35t-14.5 -34.5t-34.5 -14.5zM-1 550l-37 56q58 35 152.5 91.5t223.5 123.5l28 -61 q-130 -69 -218 -120.5t-149 -89.5zM0 -5l10 82h94q59 0 93.5 6.5t51 17t22 23t5.5 25.5q0 23 -17.5 57t-71.5 88q-37 38 -74 67t-61 49t-24 29q0 23 5.5 43t15.5 31q40 43 125.5 86.5t213.5 107.5l34 -74q-91 -44 -148.5 -72.5t-95 -50t-69.5 -43.5q117 -95 179.5 -170.5 t62.5 -152.5q0 -22 -8 -48t-34 -49t-78 -37.5t-140 -14.5h-91z" />
<glyph unicode="&#x6b1;" horiz-adv-x="508" arabic-form="medial" d="M182 799q-21 0 -35.5 14.5t-14.5 34.5t14.5 35t35.5 15q20 0 34.5 -15t14.5 -35t-14.5 -34.5t-34.5 -14.5zM67 746q-21 0 -35.5 14.5t-14.5 34.5t14.5 35t35.5 15q20 0 34.5 -15t14.5 -35t-14.5 -34.5t-34.5 -14.5zM-1 550l-37 56q58 35 152.5 91.5t223.5 123.5l28 -61 q-130 -69 -218 -120.5t-149 -89.5zM0 -5l10 82h77q83 0 123 9t52.5 24t12.5 31q0 24 -18 53t-46 59.5t-59.5 60.5t-59.5 55t-46 43.5t-18 26.5q0 23 5.5 43t15.5 31q27 29 79.5 60.5t120.5 65t139 68.5l34 -74q-88 -44 -172.5 -85t-147.5 -85q55 -47 103 -91t89 -94.5 t75 -114.5q21 -39 49 -57t55.5 -23.5t44.5 -5.5q21 0 30.5 -11.5t9.5 -27.5t-14 -29.5t-36 -13.5q-24 0 -55.5 6.5t-63.5 25t-56 54.5q-20 -29 -50 -48t-78 -28.5t-122 -9.5h-83z" />
<glyph unicode="&#x6ba;" horiz-adv-x="685" arabic-form="isolated" d="M30 -1q0 36 10 80t32 97l72 -28q-16 -42 -24 -77t-8 -65q0 -52 27 -86t74 -51t106 -17q67 0 112.5 18t72.5 47.5t38.5 65.5t11.5 71q0 38 -14.5 92t-53.5 134l75 38q29 -58 51.5 -121.5t22.5 -131.5q0 -48 -15 -100t-51 -96t-97.5 -71.5t-153.5 -27.5q-78 0 -143.5 24 t-105 75t-39.5 130z" />
<glyph unicode="&#x6ba;" horiz-adv-x="730" arabic-form="final" d="M30 -1q0 36 10 80t32 97l72 -28q-16 -42 -24 -77t-8 -65q0 -55 27.5 -89.5t74 -50.5t102.5 -16q91 0 142.5 25.5t73 65.5t21.5 85q0 66 -14.5 121.5t-31.5 114.5l81 22q16 -57 22.5 -82.5t10.5 -41.5q11 -37 29 -54.5t41.5 -23t48.5 -5.5q21 0 30.5 -11.5t9.5 -27.5 t-14 -29.5t-36 -13.5q-31 0 -54.5 8.5t-39.5 21.5q-5 -49 -23 -95t-54.5 -82.5t-96.5 -58t-149 -21.5q-75 0 -139.5 25t-104 76.5t-39.5 129.5z" />
<glyph unicode="&#x6bb;" horiz-adv-x="685" arabic-form="isolated" d="M30 -1q0 36 10 80t32 97l72 -28q-16 -42 -24 -77t-8 -65q0 -52 27 -86t74 -51t106 -17q67 0 112.5 18t72.5 47.5t38.5 65.5t11.5 71q0 38 -14.5 92t-53.5 134l75 38q29 -58 51.5 -121.5t22.5 -131.5q0 -48 -15 -100t-51 -96t-97.5 -71.5t-153.5 -27.5q-78 0 -143.5 24 t-105 75t-39.5 130zM335 426q-18 0 -42.5 1.5t-46.5 3.5l-33 3l2 58q6 -1 13 -1.5t15 -1.5q10 18 22 34l-5 162h55l5 -106q18 13 37.5 20.5t39.5 7.5q38 0 60 -23t22 -57q0 -20 -11.5 -43.5t-42.5 -40.5t-90 -17zM389 548q-18 0 -35 -11t-31.5 -26t-22.5 -26q16 -1 28 -1 q49 0 71 10.5t22 27.5q0 14 -9 20t-23 6z" />
<glyph unicode="&#x6bb;" horiz-adv-x="730" arabic-form="final" d="M30 -1q0 36 10 80t32 97l72 -28q-16 -42 -24 -77t-8 -65q0 -55 27.5 -89.5t74 -50.5t102.5 -16q91 0 142.5 25.5t73 65.5t21.5 85q0 66 -14.5 121.5t-31.5 114.5l81 22q16 -57 22.5 -82.5t10.5 -41.5q11 -37 29 -54.5t41.5 -23t48.5 -5.5q21 0 30.5 -11.5t9.5 -27.5 t-14 -29.5t-36 -13.5q-31 0 -54.5 8.5t-39.5 21.5q-5 -49 -23 -95t-54.5 -82.5t-96.5 -58t-149 -21.5q-75 0 -139.5 25t-104 76.5t-39.5 129.5zM335 426q-18 0 -42.5 1.5t-46.5 3.5l-33 3l2 58q6 -1 13 -1.5t15 -1.5q10 18 22 34l-5 162h55l5 -106q18 13 37.5 20.5t39.5 7.5 q38 0 60 -23t22 -57q0 -20 -11.5 -43.5t-42.5 -40.5t-90 -17zM389 548q-18 0 -35 -11t-31.5 -26t-22.5 -26q16 -1 28 -1q49 0 71 10.5t22 27.5q0 14 -9 20t-23 6z" />
<glyph unicode="&#x6bb;" horiz-adv-x="299" arabic-form="initial" d="M151 535q-18 0 -42.5 1.5t-46.5 3.5l-33 3l2 58q6 -1 13 -1.5t15 -1.5q10 18 22 34l-5 162h55l5 -106q18 13 37.5 20.5t39.5 7.5q38 0 60 -23t22 -57q0 -20 -11.5 -43.5t-42.5 -40.5t-90 -17zM205 657q-18 0 -35 -11t-31.5 -26t-22.5 -26q16 -1 28 -1q49 0 71 10.5 t22 27.5q0 14 -9 20t-23 6zM0 -5l10 82q59 0 92 4.5t47 23t14 58.5q0 38 -17.5 95.5t-39.5 114.5l81 30q13 -32 24.5 -73t19.5 -81t8 -70q0 -100 -56 -142t-183 -42z" />
<glyph unicode="&#x6bb;" horiz-adv-x="343" arabic-form="medial" d="M0 -5l10 82q42 0 66 7.5t36.5 29t21.5 62.5t22 107l78 -15q-6 -27 -13.5 -62t-7.5 -59q0 -20 9 -36t39 -25t92 -9q21 0 30.5 -11.5t9.5 -27.5t-14 -29.5t-36 -13.5q-79 0 -117 17t-52 51q-30 -42 -69 -55t-105 -13zM190 414q-18 0 -42.5 1.5t-46.5 3.5l-33 3l2 58 q6 -1 13 -1.5t15 -1.5q10 18 22 34l-5 162h55l5 -106q18 13 37.5 20.5t39.5 7.5q38 0 60 -23t22 -57q0 -20 -11.5 -43.5t-42.5 -40.5t-90 -17zM244 536q-18 0 -35 -11t-31.5 -26t-22.5 -26q16 -1 28 -1q49 0 71 10.5t22 27.5q0 14 -9 20t-23 6z" />
<glyph unicode="&#x6c0;" horiz-adv-x="405" arabic-form="isolated" d="M133 126h71q28 0 33 21.5t-23.5 57t-60.5 65.5q-62 -44 -38 -124q5 -20 18 -20zM175 0q-83 0 -118 53q-44 63 -20 138.5t88 114.5l-24 21l81 55q71 -68 96 -103q58 -80 56.5 -154.5t-42.5 -124.5h-117zM117 567l-12 54q15 3 26 6t21 5q-19 13 -33 34t-14 46q0 45 31.5 68 t71.5 23q23 0 47 -8l-8 -50q-10 2 -19 4t-20 2q-49 0 -49 -36q0 -26 19.5 -43t38.5 -22q38 11 67 22l16 -51q-24 -9 -56.5 -19t-65.5 -19t-61 -16z" />
<glyph unicode="&#x6c0;" horiz-adv-x="486" arabic-form="final" d="M244 0v91l-68 -63l-114 49q-38 16 -15 129q8 34 65 73l112 78q-3 17 -5 35l124 46q9 -146 10 -311h55v-127h-164zM239 193q-2 41 -7 86q-112 -70 -124 -92q71 -61 131 6zM153 638l-12 54q15 3 26 6t21 5q-19 13 -33 34t-14 46q0 45 31.5 68t71.5 23q23 0 47 -8l-8 -50 q-10 2 -19 4t-20 2q-49 0 -49 -36q0 -26 19.5 -43t38.5 -22q38 11 67 22l16 -51q-24 -9 -56.5 -19t-65.5 -19t-61 -16z" />
<glyph unicode="&#x6c1;" horiz-adv-x="405" arabic-form="isolated" d="M133 126h71q28 0 33 21.5t-23.5 57t-60.5 65.5q-62 -44 -38 -124q5 -20 18 -20zM175 0q-83 0 -118 53q-44 63 -20 138.5t88 114.5l-24 21l81 55q71 -68 96 -103q58 -80 56.5 -154.5t-42.5 -124.5h-117z" />
<glyph unicode="&#x6c1;" horiz-adv-x="479" arabic-form="final" d="M479 -5q-57 0 -91.5 17t-56 47.5t-37.5 72.5t-34 91q-4 13 -19 18t-32 5q-26 0 -51.5 -11t-42 -33t-16.5 -54q0 -28 8.5 -53.5t19.5 -57.5l-72 -20q-13 35 -24 65.5t-11 73.5q0 55 31 93.5t78 58.5t94 20q17 0 36.5 -3t36 -14.5t24.5 -36.5q16 -45 28.5 -81.5t28.5 -62.5 t42.5 -39.5t69.5 -13.5q21 0 30.5 -11.5t9.5 -27.5t-14 -29.5t-36 -13.5z" />
<glyph unicode="&#x6c1;" horiz-adv-x="269" arabic-form="initial" d="M0 -5l10 82q49 0 78 6t42 24.5t13 55.5q0 38 -17.5 95.5t-39.5 114.5l81 30q13 -32 24.5 -73t19.5 -81t8 -70q0 -100 -53.5 -142t-165.5 -42zM136 -27l26 -26q-43 -24 -44 -61h3q18 0 30 -8.5t12 -24.5q0 -13 -10 -27t-33 -14q-19 0 -32.5 14t-13.5 42q0 25 14.5 57 t47.5 48z" />
<glyph unicode="&#x6c1;" horiz-adv-x="438" arabic-form="medial" d="M251 -269q-46 32 -76.5 83t-47 108.5t-20.5 106.5q-30 -34 -107 -34l9 82q16 0 36.5 3.5t41 19.5t35.5 56l67 -17q-14 -53 -11 -107.5t21 -103t48 -83.5q0 70 18.5 122t62.5 81t120 29q20 0 30 -11.5t10 -27.5t-13.5 -29.5t-34.5 -13.5q-55 0 -83 -22.5t-37.5 -69 t-9.5 -118.5z" />
<glyph unicode="&#x6be;" horiz-adv-x="672" arabic-form="isolated" d="M483 -8q-85 0 -165 43q-43 -21 -88 -32t-83 -11q-49 0 -81.5 12t-50.5 19l23 67q17 -5 44.5 -12t64.5 -7q29 0 54 3.5t46 10.5q-32 30 -51 68.5t-19 84.5q0 57 30.5 103.5t82.5 59.5q-23 18 -49 36l47 62q96 -70 158.5 -123.5t99 -93t54 -69t22.5 -52t5 -42.5 q0 -33 -14.5 -62t-46 -47t-83.5 -18zM252 248q0 -40 20 -71.5t51 -54.5q40 30 58 65.5t18 62.5q0 32 -18.5 58.5t-51.5 26.5q-34 0 -55.5 -27t-21.5 -60zM473 239q0 -47 -21.5 -85.5t-55.5 -67.5q43 -15 83 -15q34 0 50 11.5t16 38.5q0 6 -2.5 20t-17.5 39.5t-52 64.5v-6z " />
<glyph unicode="&#x6be;" horiz-adv-x="614" arabic-form="final" d="M152 -5q-38 0 -71 8t-66 23l23 67q34 -11 65 -15.5t65 -4.5h22q3 76 22.5 139t49.5 108.5t65.5 70.5t71.5 25q49 0 84 -43t35 -122q0 -37 -14 -78.5t-53 -74.5q40 -9 82.5 -15t90.5 -6q21 0 30.5 -11.5t9.5 -27.5t-14 -29.5t-36 -13.5q-34 0 -77 5q23 -34 25.5 -71.5 t-14 -70.5t-50 -54t-84.5 -21q-86 0 -148 53t-74 161q-21 -2 -40 -2zM392 334q-20 0 -47 -32t-49 -88.5t-26 -129.5q48 7 85.5 24.5t59 49.5t21.5 84q0 21 -4.5 42t-14.5 35.5t-25 14.5zM416 -135q26 0 51 15t25 55q0 25 -12.5 45.5t-43.5 33.5t-88 13q-17 0 -36 -2.5 t-40 -6.5q6 -50 22 -80t37.5 -46t43.5 -21.5t41 -5.5z" />
<glyph unicode="&#x6be;" horiz-adv-x="574" arabic-form="initial" d="M106 200q-1 -9 52 -63q20 14 25.5 45.5t-13.5 47.5q-55 4 -64 -30zM253 208q-3 -51 -38 -91q15 -10 46 -15.5t34 2.5q7 29 -42 104zM-1 0v127h50q-20 32 -22 55q-5 67 53 117q59 48 119 29q-9 13 -20 25l59 82q146 -151 148 -303q3 -92 -35 -153q-142 -4 -215 39 q-41 -17 -78 -18h-59z" />
<glyph unicode="&#x6be;" horiz-adv-x="507" arabic-form="medial" d="M88 199q-2 -8 49 -62q21 14 27 45t-13 48q-55 3 -63 -31zM233 206q-3 -47 -38 -90q15 -10 46 -16t34 3q6 29 -42 103zM-1 0v127h30q-20 30 -21 55q-6 67 53 116t120 29q-10 13 -22 26l60 81q146 -151 147 -303v-4h37v-127h-22q-15 13 -27 32q-19 -47 -23 -55 q-142 -3 -215 41q-39 -17 -78 -18h-39z" />
<glyph unicode="&#x6d2;" horiz-adv-x="942" arabic-form="isolated" d="M471 -21q-225 0 -332 40t-107 118q0 37 19 66t44.5 53t45.5 44q25 26 42 53t31.5 49.5t31 36.5t39.5 14q33 0 61 -25t52 -66.5t45 -92.5l-67 -45q-18 44 -43 87t-54 68q-2 -10 -18 -47t-55 -81q-24 -28 -45.5 -44.5t-34.5 -30t-13 -31.5q0 -35 88 -59.5t271 -24.5 q154 0 267 13t168 21l-14 -78q-27 -7 -73 -14t-104 -12.5t-121 -8.5t-124 -3z" />
<glyph unicode="&#x6d2;" horiz-adv-x="549" arabic-form="final" d="M439 -298q-225 0 -332 40t-107 118q0 55 61.5 104.5t186 81t311.5 31.5q21 0 30.5 -11.5t9.5 -27.5t-14 -29.5t-36 -13.5q-100 0 -185 -11t-148.5 -29t-99 -40.5t-35.5 -46.5q0 -35 88 -59.5t271 -24.5q154 0 267 12t168 22l-14 -78q-27 -7 -73 -14t-104 -12.5t-121 -8.5 t-124 -3z" />
<glyph unicode="&#x6d3;" horiz-adv-x="942" arabic-form="isolated" d="M471 -21q-225 0 -332 40t-107 118q0 37 19 66t44.5 53t45.5 44q25 26 42 53t31.5 49.5t31 36.5t39.5 14q33 0 61 -25t52 -66.5t45 -92.5l-67 -45q-18 44 -43 87t-54 68q-2 -10 -18 -47t-55 -81q-24 -28 -45.5 -44.5t-34.5 -30t-13 -31.5q0 -35 88 -59.5t271 -24.5 q154 0 267 13t168 21l-14 -78q-27 -7 -73 -14t-104 -12.5t-121 -8.5t-124 -3zM104 526l-12 54q15 3 26 6t21 5q-19 13 -33 34t-14 46q0 45 31.5 68t71.5 23q23 0 47 -8l-8 -50q-10 2 -19 4t-20 2q-49 0 -49 -36q0 -26 19.5 -43t38.5 -22q38 11 67 22l16 -51 q-24 -9 -56.5 -19t-65.5 -19t-61 -16z" />
<glyph unicode="&#x6d3;" horiz-adv-x="549" arabic-form="final" d="M439 -298q-225 0 -332 40t-107 118q0 55 61.5 104.5t186 81t311.5 31.5q21 0 30.5 -11.5t9.5 -27.5t-14 -29.5t-36 -13.5q-100 0 -185 -11t-148.5 -29t-99 -40.5t-35.5 -46.5q0 -35 88 -59.5t271 -24.5q154 0 267 12t168 22l-14 -78q-27 -7 -73 -14t-104 -12.5t-121 -8.5 t-124 -3zM105 149l-12 54q15 3 26 6t21 5q-19 13 -33 34t-14 46q0 45 31.5 68t71.5 23q23 0 47 -8l-8 -50q-10 2 -19 4t-20 2q-49 0 -49 -36q0 -26 19.5 -43t38.5 -22q38 11 67 22l16 -51q-24 -9 -56.5 -19t-65.5 -19t-61 -16z" />
<glyph unicode="&#x6ad;" horiz-adv-x="882" arabic-form="isolated" d="M220 374q0 27 8 45q19 46 66.5 51t83.5 -31l-38 -24q-18 8 -32 8q-34 0 -35 -42q0 -21 27 -36q61 13 90 15v-62q-49 0 -180 -34v45q18 12 28 17q-18 21 -18 48zM483 126q0 48 -54 429l141 44l25 -82l-19 -55q19 -305 7 -462q-46 0 -137 -1h-134q-308 10 -249 167 q26 81 33 101l58 41q-5 -16 -9 -103q-3 -72 187 -79h151zM469 741q-21 0 -35.5 14.5t-14.5 34.5t14.5 35t35.5 15q20 0 34.5 -15t14.5 -35t-14.5 -34.5t-34.5 -14.5zM401 631q-21 0 -35.5 14.5t-14.5 34.5t14.5 35t35.5 15q20 0 34.5 -15t14.5 -35t-14.5 -34.5t-34.5 -14.5z M537 631q-21 0 -35.5 14.5t-14.5 34.5t14.5 35t35.5 15q20 0 34.5 -15t14.5 -35t-14.5 -34.5t-34.5 -14.5z" />
<glyph unicode="&#x6ad;" horiz-adv-x="922" arabic-form="final" d="M240 374q0 27 8 45q19 46 66 51t84 -31l-38 -24q-19 8 -33 8q-33 0 -33 -42q0 -21 26 -36q60 13 90 15v-62q-50 0 -180 -34v45q18 12 29 17q-19 21 -19 48zM504 126q0 48 -55 429l142 44l24 -82l-19 -55q10 -158 12 -335h69v-127h-39q-15 11 -33 35l-3 -35q-45 0 -134 -1 h-136q-308 10 -248 167q26 81 32 101l59 41q-5 -16 -10 -103q-3 -72 188 -79h151zM469 741q-21 0 -35.5 14.5t-14.5 34.5t14.5 35t35.5 15q20 0 34.5 -15t14.5 -35t-14.5 -34.5t-34.5 -14.5zM401 631q-21 0 -35.5 14.5t-14.5 34.5t14.5 35t35.5 15q20 0 34.5 -15t14.5 -35 t-14.5 -34.5t-34.5 -14.5zM537 631q-21 0 -35.5 14.5t-14.5 34.5t14.5 35t35.5 15q20 0 34.5 -15t14.5 -35t-14.5 -34.5t-34.5 -14.5z" />
<glyph unicode="&#x6ad;" horiz-adv-x="412" arabic-form="initial" d="M157 796q-21 0 -35.5 14.5t-14.5 34.5t14.5 35t35.5 15q20 0 34.5 -15t14.5 -35t-14.5 -34.5t-34.5 -14.5zM262 722q-21 0 -35.5 14.5t-14.5 34.5t14.5 35t35.5 15q20 0 34.5 -15t14.5 -35t-14.5 -34.5t-34.5 -14.5zM147 671q-21 0 -35.5 14.5t-14.5 34.5t14.5 35 t35.5 15q20 0 34.5 -15t14.5 -35t-14.5 -34.5t-34.5 -14.5zM0 -5l10 82h94q59 0 93.5 6.5t51 17t22 23t5.5 25.5q0 23 -17.5 57t-71.5 88q-37 38 -74 67t-61 49t-24 29q0 23 5.5 43t15.5 31q40 43 125.5 86.5t213.5 107.5l34 -74q-91 -44 -148.5 -72.5t-95 -50t-69.5 -43.5 q117 -95 179.5 -170.5t62.5 -152.5q0 -22 -8 -48t-34 -49t-78 -37.5t-140 -14.5h-91z" />
<glyph unicode="&#x6ad;" horiz-adv-x="508" arabic-form="medial" d="M125 796q-21 0 -35.5 14.5t-14.5 34.5t14.5 35t35.5 15q20 0 34.5 -15t14.5 -35t-14.5 -34.5t-34.5 -14.5zM230 722q-21 0 -35.5 14.5t-14.5 34.5t14.5 35t35.5 15q20 0 34.5 -15t14.5 -35t-14.5 -34.5t-34.5 -14.5zM115 671q-21 0 -35.5 14.5t-14.5 34.5t14.5 35 t35.5 15q20 0 34.5 -15t14.5 -35t-14.5 -34.5t-34.5 -14.5zM0 -5l10 82h77q83 0 123 9t52.5 24t12.5 31q0 24 -18 53t-46 59.5t-59.5 60.5t-59.5 55t-46 43.5t-18 26.5q0 23 5.5 43t15.5 31q27 29 79.5 60.5t120.5 65t139 68.5l34 -74q-88 -44 -172.5 -85t-147.5 -85 q55 -47 103 -91t89 -94.5t75 -114.5q21 -39 49 -57t55.5 -23.5t44.5 -5.5q21 0 30.5 -11.5t9.5 -27.5t-14 -29.5t-36 -13.5q-24 0 -55.5 6.5t-63.5 25t-56 54.5q-20 -29 -50 -48t-78 -28.5t-122 -9.5h-83z" />
<glyph unicode="&#x6c7;" horiz-adv-x="447" arabic-form="isolated" d="M292 0q-20 -87 -84 -182h-185q163 133 191 182v13q-185 12 -195 136q-6 69 28 128q40 67 111 57.5t110 -80.5q59 -104 24 -254zM203 122q2 41 -15.5 79t-54.5 22q-29 -13 -29 -46q-4 -57 99 -55zM131 12q-1 -53 -49 -98q-23 -26 -72 -47l-46 29q69 24 91 35l2 4 q-72 54 -30 116q45 47 82 16q25 -20 22 -55zM54 22q-15 -21 23 -43q11 15 13 32.5t-15 19.5q-14 2 -21 -9z" />
<glyph unicode="&#x6c7;" horiz-adv-x="472" arabic-form="final" d="M98 177q-4 -57 98 -55q3 42 -14 79.5t-55 21.5q-27 -14 -29 -46zM348 127v-127h-63q-15 -78 -84 -181h-182q162 133 190 181v14q-181 12 -195 136q-3 64 38.5 128.5t98.5 56.5q72 -10 112 -81q26 -49 34 -127h51zM131 6q-1 -53 -49 -98q-23 -26 -72 -47l-46 29 q69 24 91 35l2 4q-72 54 -30 116q45 47 82 16q25 -20 22 -55zM54 16q-15 -21 23 -43q11 15 13 32.5t-15 19.5q-14 2 -21 -9z" />
<glyph unicode="&#x6c6;" horiz-adv-x="447" arabic-form="isolated" d="M292 0q-20 -87 -84 -182h-185q163 133 191 182v13q-185 12 -195 136q-6 69 28 128q40 67 111 57.5t110 -80.5q59 -104 24 -254zM203 122q2 41 -15.5 79t-54.5 22q-29 -13 -29 -46q-4 -57 99 -55zM204 471q-9 20 -25 53.5t-32.5 67t-29.5 54.5l46 25q7 -12 20 -36.5 t27.5 -52t24.5 -49.5q11 26 24 55.5t24 53t16 31.5l45 -19q-5 -10 -16 -32.5t-23.5 -50t-24 -53t-17.5 -41.5z" />
<glyph unicode="&#x6c6;" horiz-adv-x="472" arabic-form="final" d="M98 177q-4 -57 98 -55q3 42 -14 79.5t-55 21.5q-27 -14 -29 -46zM348 127v-127h-63q-15 -78 -84 -181h-182q162 133 190 181v14q-181 12 -195 136q-3 64 38.5 128.5t98.5 56.5q72 -10 112 -81q26 -49 34 -127h51zM204 465q-9 20 -25 53.5t-32.5 67t-29.5 54.5l46 25 q7 -12 20 -36.5t27.5 -52t24.5 -49.5q11 26 24 55.5t24 53t16 31.5l45 -19q-5 -10 -16 -32.5t-23.5 -50t-24 -53t-17.5 -41.5z" />
<glyph unicode="&#x6c8;" horiz-adv-x="447" arabic-form="isolated" d="M292 0q-20 -87 -84 -182h-185q163 133 191 182v13q-185 12 -195 136q-6 69 28 128q40 67 111 57.5t110 -80.5q59 -104 24 -254zM203 122q2 41 -15.5 79t-54.5 22q-29 -13 -29 -46q-4 -57 99 -55zM205 480l-6 173h55l6 -173h-55z" />
<glyph unicode="&#x6c8;" horiz-adv-x="472" arabic-form="final" d="M98 177q-4 -57 98 -55q3 42 -14 79.5t-55 21.5q-27 -14 -29 -46zM348 127v-127h-63q-15 -78 -84 -181h-182q162 133 190 181v14q-181 12 -195 136q-3 64 38.5 128.5t98.5 56.5q72 -10 112 -81q26 -49 34 -127h51zM205 474l-6 173h55l6 -173h-55z" />
<glyph unicode="&#x677;" horiz-adv-x="597" arabic-form="isolated" d="M353 0q-20 -87 -84 -182h-185q163 133 191 182v13q-185 12 -195 136q-6 69 28 128q40 67 111 57.5t110 -80.5q59 -104 24 -254zM264 122q2 41 -15.5 79t-54.5 22q-29 -13 -29 -46q-4 -57 99 -55zM359 387l-12 54q15 3 26 6t21 5q-19 13 -33 34t-14 46q0 45 31.5 68 t71.5 23q23 0 47 -8l-8 -50q-10 2 -19 4t-20 2q-49 0 -49 -36q0 -26 19.5 -43t38.5 -22q38 11 67 22l16 -51q-24 -9 -56.5 -19t-65.5 -19t-61 -16zM96 -61q-1 -53 -49 -98q-23 -26 -72 -47l-46 29q69 24 91 35l2 4q-72 54 -30 116q45 47 82 16q25 -20 22 -55zM19 -51 q-15 -21 23 -43q11 15 13 32.5t-15 19.5q-14 2 -21 -9z" />
<glyph unicode="&#x6cb;" horiz-adv-x="447" arabic-form="isolated" d="M292 0q-20 -87 -84 -182h-185q163 133 191 182v13q-185 12 -195 136q-6 69 28 128q40 67 111 57.5t110 -80.5q59 -104 24 -254zM203 122q2 41 -15.5 79t-54.5 22q-29 -13 -29 -46q-4 -57 99 -55zM235 550q-21 0 -35.5 14.5t-14.5 34.5t14.5 35t35.5 15q20 0 34.5 -15 t14.5 -35t-14.5 -34.5t-34.5 -14.5zM167 440q-21 0 -35.5 14.5t-14.5 34.5t14.5 35t35.5 15q20 0 34.5 -15t14.5 -35t-14.5 -34.5t-34.5 -14.5zM303 440q-21 0 -35.5 14.5t-14.5 34.5t14.5 35t35.5 15q20 0 34.5 -15t14.5 -35t-14.5 -34.5t-34.5 -14.5z" />
<glyph unicode="&#x6cb;" horiz-adv-x="472" arabic-form="final" d="M98 177q-4 -57 98 -55q3 42 -14 79.5t-55 21.5q-27 -14 -29 -46zM348 127v-127h-63q-15 -78 -84 -181h-182q162 133 190 181v14q-181 12 -195 136q-3 64 38.5 128.5t98.5 56.5q72 -10 112 -81q26 -49 34 -127h51zM235 544q-21 0 -35.5 14.5t-14.5 34.5t14.5 35t35.5 15 q20 0 34.5 -15t14.5 -35t-14.5 -34.5t-34.5 -14.5zM167 434q-21 0 -35.5 14.5t-14.5 34.5t14.5 35t35.5 15q20 0 34.5 -15t14.5 -35t-14.5 -34.5t-34.5 -14.5zM303 434q-21 0 -35.5 14.5t-14.5 34.5t14.5 35t35.5 15q20 0 34.5 -15t14.5 -35t-14.5 -34.5t-34.5 -14.5z" />
<glyph unicode="&#x6c5;" horiz-adv-x="447" arabic-form="isolated" d="M56 -103v59h229q11 21 18 47q-19 -6 -39.5 -8.5t-40.5 -2.5q-76 0 -117.5 31.5t-41.5 95.5q0 38 12 76.5t34 70.5t53 51.5t69 19.5q54 0 89.5 -35t53 -91.5t17.5 -119.5q0 -151 -84 -236.5t-238 -85.5h-12t-12 1l-6 78q59 2 108 12.5t85 36.5h-177zM143 139 q0 -31 20 -49.5t69 -18.5q43 0 82 12v14q0 42 -11 78t-31 58t-48 22q-23 0 -41.5 -17.5t-29 -44.5t-10.5 -54z" />
<glyph unicode="&#x6c5;" horiz-adv-x="472" arabic-form="final" d="M72 -103v59h223q7 18 12 39h-74q-45 0 -83.5 13t-62 40.5t-23.5 72.5q0 38 13 75t35.5 67.5t53 49t66.5 18.5q67 0 114 -61t50 -193h86q21 0 30.5 -11.5t9.5 -27.5t-14 -29.5t-36 -13.5h-81q-13 -83 -57.5 -132.5t-112.5 -72t-151 -22.5h-12t-12 1l-6 79q72 2 125 12 t87 37h-180zM271 77h43q0 83 -26 128t-64 45q-21 0 -39 -16t-29.5 -42t-11.5 -55q0 -35 31.5 -47.5t95.5 -12.5z" />
<glyph unicode="&#x6c9;" horiz-adv-x="447" arabic-form="isolated" d="M292 0q-20 -87 -84 -182h-185q163 133 191 182v13q-185 12 -195 136q-6 69 28 128q40 67 111 57.5t110 -80.5q59 -104 24 -254zM203 122q2 41 -15.5 79t-54.5 22q-29 -13 -29 -46q-4 -57 99 -55zM198 659l59 6q9 -20 25 -53.5t33 -67t29 -54.5l-46 -25q-7 12 -20 36.5 t-27.5 52t-24.5 49.5q-11 -26 -24 -55.5t-24 -53t-16 -31.5l-45 19q5 10 16 32.5t24 50t24 53t17 41.5z" />
<glyph unicode="&#x6c9;" horiz-adv-x="472" arabic-form="final" d="M98 177q-4 -57 98 -55q3 42 -14 79.5t-55 21.5q-27 -14 -29 -46zM348 127v-127h-63q-15 -78 -84 -181h-182q162 133 190 181v14q-181 12 -195 136q-3 64 38.5 128.5t98.5 56.5q72 -10 112 -81q26 -49 34 -127h51zM198 653l59 6q9 -20 25 -53.5t33 -67t29 -54.5l-46 -25 q-7 12 -20 36.5t-27.5 52t-24.5 49.5q-11 -26 -24 -55.5t-24 -53t-16 -31.5l-45 19q5 10 16 32.5t24 50t24 53t17 41.5z" />
<glyph unicode="&#x6d0;" horiz-adv-x="760" arabic-form="isolated" d="M103 94q9 -66 61 -93q32 -16 77 -13q99 15 128 52q-143 82 -135 121q32 198 255 205l-55 -111q-71 -8 -100 -41q-1 -13 35 -38q95 -55 106 -94q16 -47 -51 -130q-68 -71 -170 -85q-69 -9 -136 26q-111 55 -99 151q2 16 16.5 55t20.5 60l46 35q-4 -19 1 -100zM356 -419 q-21 0 -35.5 14.5t-14.5 34.5t14.5 35t35.5 15q20 0 34.5 -15t14.5 -35t-14.5 -34.5t-34.5 -14.5zM357 -548q-21 0 -35.5 14.5t-14.5 34.5t14.5 35t35.5 15q20 0 34.5 -15t14.5 -35t-14.5 -34.5t-34.5 -14.5z" />
<glyph unicode="&#x6d0;" horiz-adv-x="736" arabic-form="final" d="M443 127v-127l-25 -1q34 -48 -28 -142q-63 -98 -175 -91q-190 9 -175 179q8 82 61 190l64 42q-29 -100 -38 -123q-34 -116 37 -156q36 -18 110 -2.5t90 48.5q-15 51 -85 79q5 36 19 122q55 -20 111 -18h34zM326 -419q-21 0 -35.5 14.5t-14.5 34.5t14.5 35t35.5 15 q20 0 34.5 -15t14.5 -35t-14.5 -34.5t-34.5 -14.5zM327 -548q-21 0 -35.5 14.5t-14.5 34.5t14.5 35t35.5 15q20 0 34.5 -15t14.5 -35t-14.5 -34.5t-34.5 -14.5z" />
<glyph unicode="&#x6d0;" horiz-adv-x="269" arabic-form="initial" d="M0 -5l10 82q49 0 78 6t42 24.5t13 55.5q0 38 -17.5 95.5t-39.5 114.5l81 30q13 -32 24.5 -73t19.5 -81t8 -70q0 -100 -53.5 -142t-165.5 -42zM107 -192q-21 0 -35.5 14.5t-14.5 34.5t14.5 35t35.5 15q20 0 34.5 -15t14.5 -35t-14.5 -34.5t-34.5 -14.5zM108 -321 q-21 0 -35.5 14.5t-14.5 34.5t14.5 35t35.5 15q20 0 34.5 -15t14.5 -35t-14.5 -34.5t-34.5 -14.5z" />
<glyph unicode="&#x6d0;" horiz-adv-x="343" arabic-form="medial" d="M0 -5l10 82q42 0 66 7.5t36.5 29t21.5 62.5t22 107l78 -15q-6 -27 -13.5 -62t-7.5 -59q0 -20 9 -36t39 -25t92 -9q21 0 30.5 -11.5t9.5 -27.5t-14 -29.5t-36 -13.5q-79 0 -117 17t-52 51q-30 -42 -69 -55t-105 -13zM170 -192q-21 0 -35.5 14.5t-14.5 34.5t14.5 35 t35.5 15q20 0 34.5 -15t14.5 -35t-14.5 -34.5t-34.5 -14.5zM171 -321q-21 0 -35.5 14.5t-14.5 34.5t14.5 35t35.5 15q20 0 34.5 -15t14.5 -35t-14.5 -34.5t-34.5 -14.5z" />
<glyph unicode="&#x649;" horiz-adv-x="269" arabic-form="initial" d="M0 -5l10 82q49 0 78 6t42 24.5t13 55.5q0 38 -17.5 95.5t-39.5 114.5l81 30q13 -32 24.5 -73t19.5 -81t8 -70q0 -100 -53.5 -142t-165.5 -42z" />
<glyph unicode="&#x649;" horiz-adv-x="343" arabic-form="medial" d="M0 -5l10 82q42 0 66 7.5t36.5 29t21.5 62.5t22 107l78 -15q-6 -27 -13.5 -62t-7.5 -59q0 -20 9 -36t39 -25t92 -9q21 0 30.5 -11.5t9.5 -27.5t-14 -29.5t-36 -13.5q-79 0 -117 17t-52 51q-30 -42 -69 -55t-105 -13z" />
<glyph unicode="&#xfbea;" horiz-adv-x="560" arabic-form="isolated" d="M322 406q15 15 24 23q-22 17 -27 43.5t-1 45.5q9 48 55.5 62t87.5 -14l-32 -31q-19 4 -33 2q-34 -6 -25 -48q4 -21 31 -31q58 24 86 33l12 -61q-48 -9 -169 -68zM290 0v127h118q-3 67 -55 182l141 45q23 -188 11 -354h-215zM242 0h-24l-171 1q11 241 -43 555l142 44 q21 -234 19 -473h77v-127z" />
<glyph unicode="&#xfbeb;" horiz-adv-x="634" arabic-form="final" d="M322 406q15 15 24 23q-22 17 -27 43.5t-1 45.5q9 48 55.5 62t87.5 -14l-32 -31q-19 4 -33 2q-34 -6 -25 -48q4 -21 31 -31q58 24 86 33l12 -61q-48 -9 -169 -68zM563 127v-127h-25q-16 15 -30 34q0 -4 -3 -33l-215 -1v127h118q-5 68 -55 182l141 44q15 -119 16 -226h53z M242 0h-24l-171 1q11 241 -43 555l142 44q21 -234 19 -473h77v-127z" />
<glyph unicode="&#xfbec;" horiz-adv-x="755" arabic-form="isolated" d="M517 406q15 15 24 23q-22 17 -27 43.5t-1 45.5q9 48 55.5 62t87.5 -14l-32 -31q-19 4 -33 2q-34 -6 -25 -48q4 -21 31 -31q58 24 86 33l12 -61q-48 -9 -169 -68zM485 0v127h118q-3 67 -55 182l141 45q23 -188 11 -354h-215zM244 0v91l-68 -63l-114 49q-38 16 -15 129 q8 34 65 73l112 78q-3 17 -5 35l124 46q9 -146 10 -311h55v-127h-164zM239 193q-2 41 -7 86q-112 -70 -124 -92q71 -61 131 6z" />
<glyph unicode="&#xfbed;" horiz-adv-x="829" arabic-form="final" d="M517 406q15 15 24 23q-22 17 -27 43.5t-1 45.5q9 48 55.5 62t87.5 -14l-32 -31q-19 4 -33 2q-34 -6 -25 -48q4 -21 31 -31q58 24 86 33l12 -61q-48 -9 -169 -68zM758 127v-127h-25q-16 15 -30 34q0 -4 -3 -33l-215 -1v127h118q-5 68 -55 182l141 44q15 -119 16 -226h53z M244 0v91l-68 -63l-114 49q-38 16 -15 129q8 34 65 73l112 78q-3 17 -5 35l124 46q9 -146 10 -311h55v-127h-164zM239 193q-2 41 -7 86q-112 -70 -124 -92q71 -61 131 6z" />
<glyph unicode="&#xfbee;" horiz-adv-x="741" arabic-form="isolated" d="M503 406q15 15 24 23q-22 17 -27 43.5t-1 45.5q9 48 55.5 62t87.5 -14l-32 -31q-19 4 -33 2q-34 -6 -25 -48q4 -21 31 -31q58 24 86 33l12 -61q-48 -9 -169 -68zM471 0v127h118q-3 67 -55 182l141 45q23 -188 11 -354h-215zM98 177q-4 -57 98 -55q3 42 -14 79.5t-55 21.5 q-27 -14 -29 -46zM348 127v-127h-63q-15 -78 -84 -181h-182q162 133 190 181v14q-181 12 -195 136q-3 64 38.5 128.5t98.5 56.5q72 -10 112 -81q26 -49 34 -127h51z" />
<glyph unicode="&#xfbef;" horiz-adv-x="815" arabic-form="final" d="M503 406q15 15 24 23q-22 17 -27 43.5t-1 45.5q9 48 55.5 62t87.5 -14l-32 -31q-19 4 -33 2q-34 -6 -25 -48q4 -21 31 -31q58 24 86 33l12 -61q-48 -9 -169 -68zM744 127v-127h-25q-16 15 -30 34q0 -4 -3 -33l-215 -1v127h118q-5 68 -55 182l141 44q15 -119 16 -226h53z M98 177q-4 -57 98 -55q3 42 -14 79.5t-55 21.5q-27 -14 -29 -46zM348 127v-127h-63q-15 -78 -84 -181h-182q162 133 190 181v14q-181 12 -195 136q-3 64 38.5 128.5t98.5 56.5q72 -10 112 -81q26 -49 34 -127h51z" />
<glyph unicode="&#xfbf0;" horiz-adv-x="741" arabic-form="isolated" d="M503 406q15 15 24 23q-22 17 -27 43.5t-1 45.5q9 48 55.5 62t87.5 -14l-32 -31q-19 4 -33 2q-34 -6 -25 -48q4 -21 31 -31q58 24 86 33l12 -61q-48 -9 -169 -68zM471 0v127h118q-3 67 -55 182l141 45q23 -188 11 -354h-215zM98 177q-4 -57 98 -55q3 42 -14 79.5t-55 21.5 q-27 -14 -29 -46zM348 127v-127h-63q-15 -78 -84 -181h-182q162 133 190 181v14q-181 12 -195 136q-3 64 38.5 128.5t98.5 56.5q72 -10 112 -81q26 -49 34 -127h51zM131 6q-1 -53 -49 -98q-23 -26 -72 -47l-46 29q69 24 91 35l2 4q-72 54 -30 116q45 47 82 16q25 -20 22 -55 zM54 16q-15 -21 23 -43q11 15 13 32.5t-15 19.5q-14 2 -21 -9z" />
<glyph unicode="&#xfbf1;" horiz-adv-x="815" arabic-form="final" d="M503 406q15 15 24 23q-22 17 -27 43.5t-1 45.5q9 48 55.5 62t87.5 -14l-32 -31q-19 4 -33 2q-34 -6 -25 -48q4 -21 31 -31q58 24 86 33l12 -61q-48 -9 -169 -68zM744 127v-127h-25q-16 15 -30 34q0 -4 -3 -33l-215 -1v127h118q-5 68 -55 182l141 44q15 -119 16 -226h53z M98 177q-4 -57 98 -55q3 42 -14 79.5t-55 21.5q-27 -14 -29 -46zM348 127v-127h-63q-15 -78 -84 -181h-182q162 133 190 181v14q-181 12 -195 136q-3 64 38.5 128.5t98.5 56.5q72 -10 112 -81q26 -49 34 -127h51zM131 6q-1 -53 -49 -98q-23 -26 -72 -47l-46 29q69 24 91 35 l2 4q-72 54 -30 116q45 47 82 16q25 -20 22 -55zM54 16q-15 -21 23 -43q11 15 13 32.5t-15 19.5q-14 2 -21 -9z" />
<glyph unicode="&#xfbf2;" horiz-adv-x="741" arabic-form="isolated" d="M503 406q15 15 24 23q-22 17 -27 43.5t-1 45.5q9 48 55.5 62t87.5 -14l-32 -31q-19 4 -33 2q-34 -6 -25 -48q4 -21 31 -31q58 24 86 33l12 -61q-48 -9 -169 -68zM471 0v127h118q-3 67 -55 182l141 45q23 -188 11 -354h-215zM98 177q-4 -57 98 -55q3 42 -14 79.5t-55 21.5 q-27 -14 -29 -46zM348 127v-127h-63q-15 -78 -84 -181h-182q162 133 190 181v14q-181 12 -195 136q-3 64 38.5 128.5t98.5 56.5q72 -10 112 -81q26 -49 34 -127h51zM204 465q-9 20 -25 53.5t-32.5 67t-29.5 54.5l46 25q7 -12 20 -36.5t27.5 -52t24.5 -49.5q11 26 24 55.5 t24 53t16 31.5l45 -19q-5 -10 -16 -32.5t-23.5 -50t-24 -53t-17.5 -41.5z" />
<glyph unicode="&#xfbf3;" horiz-adv-x="815" arabic-form="final" d="M503 406q15 15 24 23q-22 17 -27 43.5t-1 45.5q9 48 55.5 62t87.5 -14l-32 -31q-19 4 -33 2q-34 -6 -25 -48q4 -21 31 -31q58 24 86 33l12 -61q-48 -9 -169 -68zM744 127v-127h-25q-16 15 -30 34q0 -4 -3 -33l-215 -1v127h118q-5 68 -55 182l141 44q15 -119 16 -226h53z M98 177q-4 -57 98 -55q3 42 -14 79.5t-55 21.5q-27 -14 -29 -46zM348 127v-127h-63q-15 -78 -84 -181h-182q162 133 190 181v14q-181 12 -195 136q-3 64 38.5 128.5t98.5 56.5q72 -10 112 -81q26 -49 34 -127h51zM204 465q-9 20 -25 53.5t-32.5 67t-29.5 54.5l46 25 q7 -12 20 -36.5t27.5 -52t24.5 -49.5q11 26 24 55.5t24 53t16 31.5l45 -19q-5 -10 -16 -32.5t-23.5 -50t-24 -53t-17.5 -41.5z" />
<glyph unicode="&#xfbf4;" horiz-adv-x="741" arabic-form="isolated" d="M503 406q15 15 24 23q-22 17 -27 43.5t-1 45.5q9 48 55.5 62t87.5 -14l-32 -31q-19 4 -33 2q-34 -6 -25 -48q4 -21 31 -31q58 24 86 33l12 -61q-48 -9 -169 -68zM471 0v127h118q-3 67 -55 182l141 45q23 -188 11 -354h-215zM98 177q-4 -57 98 -55q3 42 -14 79.5t-55 21.5 q-27 -14 -29 -46zM348 127v-127h-63q-15 -78 -84 -181h-182q162 133 190 181v14q-181 12 -195 136q-3 64 38.5 128.5t98.5 56.5q72 -10 112 -81q26 -49 34 -127h51zM205 474l-6 173h55l6 -173h-55z" />
<glyph unicode="&#xfbf5;" horiz-adv-x="815" arabic-form="final" d="M503 406q15 15 24 23q-22 17 -27 43.5t-1 45.5q9 48 55.5 62t87.5 -14l-32 -31q-19 4 -33 2q-34 -6 -25 -48q4 -21 31 -31q58 24 86 33l12 -61q-48 -9 -169 -68zM744 127v-127h-25q-16 15 -30 34q0 -4 -3 -33l-215 -1v127h118q-5 68 -55 182l141 44q15 -119 16 -226h53z M98 177q-4 -57 98 -55q3 42 -14 79.5t-55 21.5q-27 -14 -29 -46zM348 127v-127h-63q-15 -78 -84 -181h-182q162 133 190 181v14q-181 12 -195 136q-3 64 38.5 128.5t98.5 56.5q72 -10 112 -81q26 -49 34 -127h51zM205 474l-6 173h55l6 -173h-55z" />
<glyph unicode="&#xfbf6;" horiz-adv-x="1005" arabic-form="isolated" d="M767 406q15 15 24 23q-22 17 -27 43.5t-1 45.5q9 48 55.5 62t87.5 -14l-32 -31q-19 4 -33 2q-34 -6 -25 -48q4 -21 31 -31q58 24 86 33l12 -61q-48 -9 -169 -68zM735 0v127h118q-3 67 -55 182l141 45q23 -188 11 -354h-215zM443 127v-127l-25 -1q34 -48 -28 -142 q-63 -98 -175 -91q-190 9 -175 179q8 82 61 190l64 42q-29 -100 -38 -123q-34 -116 37 -156q36 -18 110 -2.5t90 48.5q-15 51 -85 79q5 36 19 122q55 -20 111 -18h34zM326 -419q-21 0 -35.5 14.5t-14.5 34.5t14.5 35t35.5 15q20 0 34.5 -15t14.5 -35t-14.5 -34.5 t-34.5 -14.5zM327 -548q-21 0 -35.5 14.5t-14.5 34.5t14.5 35t35.5 15q20 0 34.5 -15t14.5 -35t-14.5 -34.5t-34.5 -14.5z" />
<glyph unicode="&#xfbf7;" horiz-adv-x="1079" arabic-form="final" d="M767 406q15 15 24 23q-22 17 -27 43.5t-1 45.5q9 48 55.5 62t87.5 -14l-32 -31q-19 4 -33 2q-34 -6 -25 -48q4 -21 31 -31q58 24 86 33l12 -61q-48 -9 -169 -68zM1008 127v-127h-25q-16 15 -30 34q0 -4 -3 -33l-215 -1v127h118q-5 68 -55 182l141 44q15 -119 16 -226h53z M443 127v-127l-25 -1q34 -48 -28 -142q-63 -98 -175 -91q-190 9 -175 179q8 82 61 190l64 42q-29 -100 -38 -123q-34 -116 37 -156q36 -18 110 -2.5t90 48.5q-15 51 -85 79q5 36 19 122q55 -20 111 -18h34zM326 -419q-21 0 -35.5 14.5t-14.5 34.5t14.5 35t35.5 15 q20 0 34.5 -15t14.5 -35t-14.5 -34.5t-34.5 -14.5zM327 -548q-21 0 -35.5 14.5t-14.5 34.5t14.5 35t35.5 15q20 0 34.5 -15t14.5 -35t-14.5 -34.5t-34.5 -14.5z" />
<glyph unicode="&#xfbf8;" horiz-adv-x="612" arabic-form="initial" d="M374 406q15 15 24 23q-22 17 -27 43.5t-1 45.5q9 48 55.5 62t87.5 -14l-32 -31q-19 4 -33 2q-34 -6 -25 -48q4 -21 31 -31q58 24 86 33l12 -61q-48 -9 -169 -68zM342 0v127h118q-3 67 -55 182l141 45q23 -188 11 -354h-215zM0 -5l10 82q42 0 66 7.5t36.5 29t21.5 62.5 t22 107l78 -15q-6 -27 -13.5 -62t-7.5 -59q0 -20 9 -36t39 -25t92 -9q21 0 30.5 -11.5t9.5 -27.5t-14 -29.5t-36 -13.5q-79 0 -117 17t-52 51q-30 -42 -69 -55t-105 -13zM170 -192q-21 0 -35.5 14.5t-14.5 34.5t14.5 35t35.5 15q20 0 34.5 -15t14.5 -35t-14.5 -34.5 t-34.5 -14.5zM171 -321q-21 0 -35.5 14.5t-14.5 34.5t14.5 35t35.5 15q20 0 34.5 -15t14.5 -35t-14.5 -34.5t-34.5 -14.5z" />
<glyph unicode="&#xfbf9;" horiz-adv-x="1005" arabic-form="isolated" d="M767 406q15 15 24 23q-22 17 -27 43.5t-1 45.5q9 48 55.5 62t87.5 -14l-32 -31q-19 4 -33 2q-34 -6 -25 -48q4 -21 31 -31q58 24 86 33l12 -61q-48 -9 -169 -68zM735 0v127h118q-3 67 -55 182l141 45q23 -188 11 -354h-215zM443 127v-127l-25 -1q34 -48 -28 -142 q-63 -98 -175 -91q-190 9 -175 179q8 82 61 190l64 42q-29 -100 -38 -123q-34 -116 37 -156q36 -18 110 -2.5t90 48.5q-15 51 -85 79q5 36 19 122q55 -20 111 -18h34z" />
<glyph unicode="&#xfbfa;" horiz-adv-x="1079" arabic-form="final" d="M767 406q15 15 24 23q-22 17 -27 43.5t-1 45.5q9 48 55.5 62t87.5 -14l-32 -31q-19 4 -33 2q-34 -6 -25 -48q4 -21 31 -31q58 24 86 33l12 -61q-48 -9 -169 -68zM1008 127v-127h-25q-16 15 -30 34q0 -4 -3 -33l-215 -1v127h118q-5 68 -55 182l141 44q15 -119 16 -226h53z M443 127v-127l-25 -1q34 -48 -28 -142q-63 -98 -175 -91q-190 9 -175 179q8 82 61 190l64 42q-29 -100 -38 -123q-34 -116 37 -156q36 -18 110 -2.5t90 48.5q-15 51 -85 79q5 36 19 122q55 -20 111 -18h34z" />
<glyph unicode="&#xfbfb;" horiz-adv-x="612" arabic-form="initial" d="M374 406q15 15 24 23q-22 17 -27 43.5t-1 45.5q9 48 55.5 62t87.5 -14l-32 -31q-19 4 -33 2q-34 -6 -25 -48q4 -21 31 -31q58 24 86 33l12 -61q-48 -9 -169 -68zM342 0v127h118q-3 67 -55 182l141 45q23 -188 11 -354h-215zM0 -5l10 82q42 0 66 7.5t36.5 29t21.5 62.5 t22 107l78 -15q-6 -27 -13.5 -62t-7.5 -59q0 -20 9 -36t39 -25t92 -9q21 0 30.5 -11.5t9.5 -27.5t-14 -29.5t-36 -13.5q-79 0 -117 17t-52 51q-30 -42 -69 -55t-105 -13z" />
<glyph unicode="&#x6cc;" horiz-adv-x="760" arabic-form="isolated" d="M103 94q9 -66 61 -93q32 -16 77 -13q99 15 128 52q-143 82 -135 121q32 198 255 205l-55 -111q-71 -8 -100 -41q-1 -13 35 -38q95 -55 106 -94q16 -47 -51 -130q-68 -71 -170 -85q-69 -9 -136 26q-111 55 -99 151q2 16 16.5 55t20.5 60l46 35q-4 -19 1 -100z" />
<glyph unicode="&#x6cc;" horiz-adv-x="736" arabic-form="final" d="M443 127v-127l-25 -1q34 -48 -28 -142q-63 -98 -175 -91q-190 9 -175 179q8 82 61 190l64 42q-29 -100 -38 -123q-34 -116 37 -156q36 -18 110 -2.5t90 48.5q-15 51 -85 79q5 36 19 122q55 -20 111 -18h34z" />
<glyph unicode="&#x6cc;" horiz-adv-x="299" arabic-form="initial" d="M0 -5l10 82q59 0 92 4.5t47 23t14 58.5q0 38 -17.5 95.5t-39.5 114.5l81 30q13 -32 24.5 -73t19.5 -81t8 -70q0 -100 -56 -142t-183 -42zM185 -194q-21 0 -35.5 14.5t-14.5 34.5t14.5 35t35.5 15q20 0 34.5 -15t14.5 -35t-14.5 -34.5t-34.5 -14.5zM48 -194 q-21 0 -35.5 14.5t-14.5 34.5t14.5 35t35.5 15q20 0 34.5 -15t14.5 -35t-14.5 -34.5t-34.5 -14.5z" />
<glyph unicode="&#x6cc;" horiz-adv-x="373" arabic-form="medial" d="M0 -5l10 82q50 0 78 7.5t42.5 29t23.5 62.5t22 107l78 -15q-6 -27 -13.5 -62t-7.5 -59q0 -15 2 -28t15 -22t44 -14.5t89 -5.5q21 0 30.5 -11.5t9.5 -27.5t-14 -29.5t-36 -13.5q-65 0 -101.5 7.5t-54 22t-25.5 36.5q-29 -41 -71.5 -53.5t-120.5 -12.5zM252 -194 q-21 0 -35.5 14.5t-14.5 34.5t14.5 35t35.5 15q20 0 34.5 -15t14.5 -35t-14.5 -34.5t-34.5 -14.5zM115 -194q-21 0 -35.5 14.5t-14.5 34.5t14.5 35t35.5 15q20 0 34.5 -15t14.5 -35t-14.5 -34.5t-34.5 -14.5z" />
<glyph unicode="&#xfc00;" horiz-adv-x="918" arabic-form="isolated" d="M680 406q15 15 24 23q-22 17 -27 43.5t-1 45.5q9 48 55.5 62t87.5 -14l-32 -31q-19 4 -33 2q-34 -6 -25 -48q4 -21 31 -31q58 24 86 33l12 -61q-48 -9 -169 -68zM648 0v127h118q-3 67 -55 182l141 45q23 -188 11 -354h-215zM486 127v-127q-53 -1 -115.5 21t-96.5 60 q-146 -67 -137 -159q8 -85 118 -106q75 -14 177 3q27 4 49 10l-42 -66q-66 -39 -151 -50t-146.5 13t-91 70.5t-29.5 107.5q0 78 56 133q51 60 161 128l71 39q-25 9 -64.5 30.5t-62.5 27.5q-45 12 -75 -26l-35 -12q1 85 20 114q58 90 176 10q17 -11 83 -61.5t108 -60.5l10 -3 l-29 -73q-18 -9 -57 -23h103zM189 -60q45 32 71 73l72 -73q-25 -40 -72 -71z" />
<glyph unicode="&#xfc01;" horiz-adv-x="918" arabic-form="isolated" d="M680 406q15 15 24 23q-22 17 -27 43.5t-1 45.5q9 48 55.5 62t87.5 -14l-32 -31q-19 4 -33 2q-34 -6 -25 -48q4 -21 31 -31q58 24 86 33l12 -61q-48 -9 -169 -68zM648 0v127h118q-3 67 -55 182l141 45q23 -188 11 -354h-215zM486 127v-127q-53 -1 -115.5 21t-96.5 60 q-146 -67 -137 -159q8 -85 118 -106q75 -14 177 3q27 4 49 10l-42 -66q-66 -39 -151 -50t-146.5 13t-91 70.5t-29.5 107.5q0 78 56 133q51 60 161 128l71 39q-25 9 -64.5 30.5t-62.5 27.5q-45 12 -75 -26l-35 -12q1 85 20 114q58 90 176 10q17 -11 83 -61.5t108 -60.5l10 -3 l-29 -73q-18 -9 -57 -23h103z" />
<glyph unicode="&#xfc02;" horiz-adv-x="831" arabic-form="isolated" d="M593 406q15 15 24 23q-22 17 -27 43.5t-1 45.5q9 48 55.5 62t87.5 -14l-32 -31q-19 4 -33 2q-34 -6 -25 -48q4 -21 31 -31q58 24 86 33l12 -61q-48 -9 -169 -68zM561 0v127h118q-3 67 -55 182l141 45q23 -188 11 -354h-215zM278 216q-25 0 -57 -64q22 -16 51 -32 q56 -33 51 30q-3 66 -45 66zM444 127v-127h-24q-16 15 -31 35q-14 -29 -34 -47q-104 10 -171 45q-38 23 -52 6l17 -239l-95 -83q3 146 -30 323q0 44 25 72q40 37 88 38q8 10 13 21q77 162 144 162q46 -1 89 -63t31 -143h30z" />
<glyph unicode="&#xfc03;" horiz-adv-x="1005" arabic-form="isolated" d="M767 406q15 15 24 23q-22 17 -27 43.5t-1 45.5q9 48 55.5 62t87.5 -14l-32 -31q-19 4 -33 2q-34 -6 -25 -48q4 -21 31 -31q58 24 86 33l12 -61q-48 -9 -169 -68zM735 0v127h118q-3 67 -55 182l141 45q23 -188 11 -354h-215zM443 127v-127l-25 -1q34 -48 -28 -142 q-63 -98 -175 -91q-190 9 -175 179q8 82 61 190l64 42q-29 -100 -38 -123q-34 -116 37 -156q36 -18 110 -2.5t90 48.5q-15 51 -85 79q5 36 19 122q55 -20 111 -18h34z" />
<glyph unicode="&#xfc04;" horiz-adv-x="1005" arabic-form="isolated" d="M767 406q15 15 24 23q-22 17 -27 43.5t-1 45.5q9 48 55.5 62t87.5 -14l-32 -31q-19 4 -33 2q-34 -6 -25 -48q4 -21 31 -31q58 24 86 33l12 -61q-48 -9 -169 -68zM735 0v127h118q-3 67 -55 182l141 45q23 -188 11 -354h-215zM291 -282l70 -71q-25 -42 -70 -72l-55 55 q-23 -31 -60 -55l-71 72q45 30 71 71l60 -58q34 26 55 58zM443 127v-127l-25 -1q34 -48 -28 -142q-63 -98 -175 -91q-190 9 -175 179q8 82 61 190l64 42q-29 -100 -38 -123q-34 -116 37 -156q36 -18 110 -2.5t90 48.5q-15 51 -85 79q5 36 19 122q55 -20 111 -18h34z" />
<glyph unicode="&#xfc05;" horiz-adv-x="918" arabic-form="isolated" d="M775 -53l72 -71q-26 -41 -72 -71l-71 71q46 31 71 71zM648 0v127h118q-3 67 -55 182l141 45q23 -188 11 -354h-215zM486 127v-127q-53 -1 -115.5 21t-96.5 60q-146 -67 -137 -159q8 -85 118 -106q75 -14 177 3q27 4 49 10l-42 -66q-66 -39 -151 -50t-146.5 13t-91 70.5 t-29.5 107.5q0 78 56 133q51 60 161 128l71 39q-25 9 -64.5 30.5t-62.5 27.5q-45 12 -75 -26l-35 -12q1 85 20 114q58 90 176 10q17 -11 83 -61.5t108 -60.5l10 -3l-29 -73q-18 -9 -57 -23h103zM189 -60q45 32 71 73l72 -73q-25 -40 -72 -71z" />
<glyph unicode="&#xfc06;" horiz-adv-x="918" arabic-form="isolated" d="M775 -53l72 -71q-26 -41 -72 -71l-71 71q46 31 71 71zM648 0v127h118q-3 67 -55 182l141 45q23 -188 11 -354h-215zM486 127v-127q-53 -1 -115.5 21t-96.5 60q-146 -67 -137 -159q8 -85 118 -106q75 -14 177 3q27 4 49 10l-42 -66q-66 -39 -151 -50t-146.5 13t-91 70.5 t-29.5 107.5q0 78 56 133q51 60 161 128l71 39q-25 9 -64.5 30.5t-62.5 27.5q-45 12 -75 -26l-35 -12q1 85 20 114q58 90 176 10q17 -11 83 -61.5t108 -60.5l10 -3l-29 -73q-18 -9 -57 -23h103z" />
<glyph unicode="&#xfc07;" horiz-adv-x="918" arabic-form="isolated" d="M775 -53l72 -71q-26 -41 -72 -71l-71 71q46 31 71 71zM648 0v127h118q-3 67 -55 182l141 45q23 -188 11 -354h-215zM213 591l71 -72q-25 -40 -71 -72l-71 72q45 32 71 72zM486 127v-127q-53 -1 -115.5 21t-96.5 60q-146 -67 -137 -159q8 -85 118 -106q75 -14 177 3 q27 4 49 10l-42 -66q-66 -39 -151 -50t-146.5 13t-91 70.5t-29.5 107.5q0 78 56 133q51 60 161 128l71 39q-25 9 -64.5 30.5t-62.5 27.5q-45 12 -75 -26l-35 -12q1 85 20 114q58 90 176 10q17 -11 83 -61.5t108 -60.5l10 -3l-29 -73q-18 -9 -57 -23h103z" />
<glyph unicode="&#xfc08;" horiz-adv-x="831" arabic-form="isolated" d="M688 -53l72 -71q-26 -41 -72 -71l-71 71q46 31 71 71zM561 0v127h118q-3 67 -55 182l141 45q23 -188 11 -354h-215zM278 216q-25 0 -57 -64q22 -16 51 -32q56 -33 51 30q-3 66 -45 66zM444 127v-127h-24q-16 15 -31 35q-14 -29 -34 -47q-104 10 -171 45q-38 23 -52 6 l17 -239l-95 -83q3 146 -30 323q0 44 25 72q40 37 88 38q8 10 13 21q77 162 144 162q46 -1 89 -63t31 -143h30z" />
<glyph unicode="&#xfc09;" horiz-adv-x="1005" arabic-form="isolated" d="M862 -53l72 -71q-26 -41 -72 -71l-71 71q46 31 71 71zM735 0v127h118q-3 67 -55 182l141 45q23 -188 11 -354h-215zM443 127v-127l-25 -1q34 -48 -28 -142q-63 -98 -175 -91q-190 9 -175 179q8 82 61 190l64 42q-29 -100 -38 -123q-34 -116 37 -156q36 -18 110 -2.5 t90 48.5q-15 51 -85 79q5 36 19 122q55 -20 111 -18h34z" />
<glyph unicode="&#xfc0a;" horiz-adv-x="1005" arabic-form="isolated" d="M862 -53l72 -71q-26 -41 -72 -71l-71 71q46 31 71 71zM735 0v127h118q-3 67 -55 182l141 45q23 -188 11 -354h-215zM291 -282l70 -71q-25 -42 -70 -72l-55 55q-23 -31 -60 -55l-71 72q45 30 71 71l60 -58q34 26 55 58zM443 127v-127l-25 -1q34 -48 -28 -142 q-63 -98 -175 -91q-190 9 -175 179q8 82 61 190l64 42q-29 -100 -38 -123q-34 -116 37 -156q36 -18 110 -2.5t90 48.5q-15 51 -85 79q5 36 19 122q55 -20 111 -18h34z" />
<glyph unicode="&#xfc0b;" horiz-adv-x="948" arabic-form="isolated" d="M834 547l72 -70q-25 -42 -72 -73l-55 56q-23 -32 -59 -56l-72 73q47 30 72 70l59 -59q34 26 55 59zM648 0v127h128q-3 67 -55 182l141 45q23 -188 11 -354h-225zM486 127v-127q-53 -1 -115.5 21t-96.5 60q-146 -67 -137 -159q8 -85 118 -106q75 -14 177 3q27 4 49 10 l-42 -66q-66 -39 -151 -50t-146.5 13t-91 70.5t-29.5 107.5q0 78 56 133q51 60 161 128l71 39q-25 9 -64.5 30.5t-62.5 27.5q-45 12 -75 -26l-35 -12q1 85 20 114q58 90 176 10q17 -11 83 -61.5t108 -60.5l10 -3l-29 -73q-18 -9 -57 -23h103zM189 -60q45 32 71 73l72 -73 q-25 -40 -72 -71z" />
<glyph unicode="&#xfc0c;" horiz-adv-x="948" arabic-form="isolated" d="M834 547l72 -70q-25 -42 -72 -73l-55 56q-23 -32 -59 -56l-72 73q47 30 72 70l59 -59q34 26 55 59zM648 0v127h128q-3 67 -55 182l141 45q23 -188 11 -354h-225zM486 127v-127q-53 -1 -115.5 21t-96.5 60q-146 -67 -137 -159q8 -85 118 -106q75 -14 177 3q27 4 49 10 l-42 -66q-66 -39 -151 -50t-146.5 13t-91 70.5t-29.5 107.5q0 78 56 133q51 60 161 128l71 39q-25 9 -64.5 30.5t-62.5 27.5q-45 12 -75 -26l-35 -12q1 85 20 114q58 90 176 10q17 -11 83 -61.5t108 -60.5l10 -3l-29 -73q-18 -9 -57 -23h103z" />
<glyph unicode="&#xfc0d;" horiz-adv-x="948" arabic-form="isolated" d="M834 547l72 -70q-25 -42 -72 -73l-55 56q-23 -32 -59 -56l-72 73q47 30 72 70l59 -59q34 26 55 59zM648 0v127h128q-3 67 -55 182l141 45q23 -188 11 -354h-225zM213 591l71 -72q-25 -40 -71 -72l-71 72q45 32 71 72zM486 127v-127q-53 -1 -115.5 21t-96.5 60 q-146 -67 -137 -159q8 -85 118 -106q75 -14 177 3q27 4 49 10l-42 -66q-66 -39 -151 -50t-146.5 13t-91 70.5t-29.5 107.5q0 78 56 133q51 60 161 128l71 39q-25 9 -64.5 30.5t-62.5 27.5q-45 12 -75 -26l-35 -12q1 85 20 114q58 90 176 10q17 -11 83 -61.5t108 -60.5l10 -3 l-29 -73q-18 -9 -57 -23h103z" />
<glyph unicode="&#xfc0e;" horiz-adv-x="861" arabic-form="isolated" d="M747 547l72 -70q-25 -42 -72 -73l-55 56q-23 -32 -59 -56l-72 73q47 30 72 70l59 -59q34 26 55 59zM561 0v127h128q-3 67 -55 182l141 45q23 -188 11 -354h-225zM278 216q-25 0 -57 -64q22 -16 51 -32q56 -33 51 30q-3 66 -45 66zM444 127v-127h-24q-16 15 -31 35 q-14 -29 -34 -47q-104 10 -171 45q-38 23 -52 6l17 -239l-95 -83q3 146 -30 323q0 44 25 72q40 37 88 38q8 10 13 21q77 162 144 162q46 -1 89 -63t31 -143h30z" />
<glyph unicode="&#xfc0f;" horiz-adv-x="1035" arabic-form="isolated" d="M921 547l72 -70q-25 -42 -72 -73l-55 56q-23 -32 -59 -56l-72 73q47 30 72 70l59 -59q34 26 55 59zM735 0v127h128q-3 67 -55 182l141 45q23 -188 11 -354h-225zM443 127v-127l-25 -1q34 -48 -28 -142q-63 -98 -175 -91q-190 9 -175 179q8 82 61 190l64 42 q-29 -100 -38 -123q-34 -116 37 -156q36 -18 110 -2.5t90 48.5q-15 51 -85 79q5 36 19 122q55 -20 111 -18h34z" />
<glyph unicode="&#xfc10;" horiz-adv-x="1035" arabic-form="isolated" d="M921 547l72 -70q-25 -42 -72 -73l-55 56q-23 -32 -59 -56l-72 73q47 30 72 70l59 -59q34 26 55 59zM735 0v127h128q-3 67 -55 182l141 45q23 -188 11 -354h-225zM291 -282l70 -71q-25 -42 -70 -72l-55 55q-23 -31 -60 -55l-71 72q45 30 71 71l60 -58q34 26 55 58z M443 127v-127l-25 -1q34 -48 -28 -142q-63 -98 -175 -91q-190 9 -175 179q8 82 61 190l64 42q-29 -100 -38 -123q-34 -116 37 -156q36 -18 110 -2.5t90 48.5q-15 51 -85 79q5 36 19 122q55 -20 111 -18h34z" />
<glyph unicode="&#xfc11;" horiz-adv-x="948" arabic-form="isolated" d="M776 634l71 -72q-25 -41 -71 -71l-71 71q46 32 71 72zM834 522l72 -70q-25 -42 -72 -72l-55 56q-23 -32 -59 -56l-72 72q47 30 72 70l59 -59q34 26 55 59zM648 0v127h128q-3 67 -55 182l141 45q23 -188 11 -354h-225zM486 127v-127q-53 -1 -115.5 21t-96.5 60 q-146 -67 -137 -159q8 -85 118 -106q75 -14 177 3q27 4 49 10l-42 -66q-66 -39 -151 -50t-146.5 13t-91 70.5t-29.5 107.5q0 78 56 133q51 60 161 128l71 39q-25 9 -64.5 30.5t-62.5 27.5q-45 12 -75 -26l-35 -12q1 85 20 114q58 90 176 10q17 -11 83 -61.5t108 -60.5l10 -3 l-29 -73q-18 -9 -57 -23h103zM189 -60q45 32 71 73l72 -73q-25 -40 -72 -71z" />
<glyph unicode="&#xfc12;" horiz-adv-x="861" arabic-form="isolated" d="M689 634l71 -72q-25 -41 -71 -71l-71 71q46 32 71 72zM747 522l72 -70q-25 -42 -72 -72l-55 56q-23 -32 -59 -56l-72 72q47 30 72 70l59 -59q34 26 55 59zM561 0v127h128q-3 67 -55 182l141 45q23 -188 11 -354h-225zM278 216q-25 0 -57 -64q22 -16 51 -32q56 -33 51 30 q-3 66 -45 66zM444 127v-127h-24q-16 15 -31 35q-14 -29 -34 -47q-104 10 -171 45q-38 23 -52 6l17 -239l-95 -83q3 146 -30 323q0 44 25 72q40 37 88 38q8 10 13 21q77 162 144 162q46 -1 89 -63t31 -143h30z" />
<glyph unicode="&#xfc13;" horiz-adv-x="1035" arabic-form="isolated" d="M863 634l71 -72q-25 -41 -71 -71l-71 71q46 32 71 72zM921 522l72 -70q-25 -42 -72 -72l-55 56q-23 -32 -59 -56l-72 72q47 30 72 70l59 -59q34 26 55 59zM735 0v127h128q-3 67 -55 182l141 45q23 -188 11 -354h-225zM443 127v-127l-25 -1q34 -48 -28 -142 q-63 -98 -175 -91q-190 9 -175 179q8 82 61 190l64 42q-29 -100 -38 -123q-34 -116 37 -156q36 -18 110 -2.5t90 48.5q-15 51 -85 79q5 36 19 122q55 -20 111 -18h34z" />
<glyph unicode="&#xfc14;" horiz-adv-x="1035" arabic-form="isolated" d="M863 634l71 -72q-25 -41 -71 -71l-71 71q46 32 71 72zM921 522l72 -70q-25 -42 -72 -72l-55 56q-23 -32 -59 -56l-72 72q47 30 72 70l59 -59q34 26 55 59zM735 0v127h128q-3 67 -55 182l141 45q23 -188 11 -354h-225zM291 -282l70 -71q-25 -42 -70 -72l-55 55 q-23 -31 -60 -55l-71 72q45 30 71 71l60 -58q34 26 55 58zM443 127v-127l-25 -1q34 -48 -28 -142q-63 -98 -175 -91q-190 9 -175 179q8 82 61 190l64 42q-29 -100 -38 -123q-34 -116 37 -156q36 -18 110 -2.5t90 48.5q-15 51 -85 79q5 36 19 122q55 -20 111 -18h34z" />
<glyph unicode="&#xfc15;" horiz-adv-x="1238" arabic-form="isolated" d="M727 127q77 0 94.5 6t51 27.5t34.5 25.5q-50 39 -52 39q-55 30 -78 36q-44 11 -73 -26l-35 -12q2 84 20 114q57 89 175 9q16 -11 82.5 -61.5t106.5 -59.5l10 -2l-28 -73q-35 -5 -66 -34l-39 -45q-56 -62 -137 -71q-9 -1 -65 0h-80v127h79zM803 -75l73 -72 q-26 -40 -73 -73l-72 73q47 31 72 72zM486 127v-127q-53 -1 -115.5 21t-96.5 60q-146 -67 -137 -159q8 -85 118 -106q75 -14 177 3q27 4 49 10l-42 -66q-66 -39 -151 -50t-146.5 13t-91 70.5t-29.5 107.5q0 78 56 133q51 60 161 128l71 39q-25 9 -64.5 30.5t-62.5 27.5 q-45 12 -75 -26l-35 -12q1 85 20 114q58 90 176 10q17 -11 83 -61.5t108 -60.5l10 -3l-29 -73q-18 -9 -57 -23h103z" />
<glyph unicode="&#xfc16;" horiz-adv-x="1151" arabic-form="isolated" d="M640 127q77 0 94.5 6t51 27.5t34.5 25.5q-50 39 -52 39q-55 30 -78 36q-44 11 -73 -26l-35 -12q2 84 20 114q57 89 175 9q16 -11 82.5 -61.5t106.5 -59.5l10 -2l-28 -73q-35 -5 -66 -34l-39 -45q-56 -62 -137 -71q-9 -1 -65 0h-80v127h79zM716 -75l73 -72 q-26 -40 -73 -73l-72 73q47 31 72 72zM278 216q-25 0 -57 -64q22 -16 51 -32q56 -33 51 30q-3 66 -45 66zM444 127v-127h-24q-16 15 -31 35q-14 -29 -34 -47q-104 10 -171 45q-38 23 -52 6l17 -239l-95 -83q3 146 -30 323q0 44 25 72q40 37 88 38q8 10 13 21q77 162 144 162 q46 -1 89 -63t31 -143h30z" />
<glyph unicode="&#xfc17;" horiz-adv-x="1238" arabic-form="isolated" d="M727 127q77 0 94.5 6t51 27.5t34.5 25.5q-50 39 -52 39q-55 30 -78 36q-44 11 -73 -26l-35 -12q2 84 20 114q57 89 175 9q16 -11 82.5 -61.5t106.5 -59.5l10 -2l-28 -73q-35 -5 -66 -34l-39 -45q-56 -62 -137 -71q-9 -1 -65 0h-80v127h79zM486 127v-127q-53 -1 -115.5 21 t-96.5 60q-146 -67 -137 -159q8 -85 118 -106q75 -14 177 3q27 4 49 10l-42 -66q-66 -39 -151 -50t-146.5 13t-91 70.5t-29.5 107.5q0 78 56 133q51 60 161 128l71 39q-25 9 -64.5 30.5t-62.5 27.5q-45 12 -75 -26l-35 -12q1 85 20 114q58 90 176 10q17 -11 83 -61.5 t108 -60.5l10 -3l-29 -73q-18 -9 -57 -23h103zM189 -60q45 32 71 73l72 -73q-25 -40 -72 -71z" />
<glyph unicode="&#xfc18;" horiz-adv-x="1151" arabic-form="isolated" d="M640 127q77 0 94.5 6t51 27.5t34.5 25.5q-50 39 -52 39q-55 30 -78 36q-44 11 -73 -26l-35 -12q2 84 20 114q57 89 175 9q16 -11 82.5 -61.5t106.5 -59.5l10 -2l-28 -73q-35 -5 -66 -34l-39 -45q-56 -62 -137 -71q-9 -1 -65 0h-80v127h79zM278 216q-25 0 -57 -64 q22 -16 51 -32q56 -33 51 30q-3 66 -45 66zM444 127v-127h-24q-16 15 -31 35q-14 -29 -34 -47q-104 10 -171 45q-38 23 -52 6l17 -239l-95 -83q3 146 -30 323q0 44 25 72q40 37 88 38q8 10 13 21q77 162 144 162q46 -1 89 -63t31 -143h30z" />
<glyph unicode="&#xfc19;" horiz-adv-x="1238" arabic-form="isolated" d="M778 590l71 -72q-25 -40 -71 -73l-71 73q45 32 71 72zM727 127q77 0 94.5 6t51 27.5t34.5 25.5q-50 39 -52 39q-55 30 -78 36q-44 11 -73 -26l-35 -12q2 84 20 114q57 89 175 9q16 -11 82.5 -61.5t106.5 -59.5l10 -2l-28 -73q-35 -5 -66 -34l-39 -45q-56 -62 -137 -71 q-9 -1 -65 0h-80v127h79zM486 127v-127q-53 -1 -115.5 21t-96.5 60q-146 -67 -137 -159q8 -85 118 -106q75 -14 177 3q27 4 49 10l-42 -66q-66 -39 -151 -50t-146.5 13t-91 70.5t-29.5 107.5q0 78 56 133q51 60 161 128l71 39q-25 9 -64.5 30.5t-62.5 27.5q-45 12 -75 -26 l-35 -12q1 85 20 114q58 90 176 10q17 -11 83 -61.5t108 -60.5l10 -3l-29 -73q-18 -9 -57 -23h103zM189 -60q45 32 71 73l72 -73q-25 -40 -72 -71z" />
<glyph unicode="&#xfc1a;" horiz-adv-x="1238" arabic-form="isolated" d="M778 590l71 -72q-25 -40 -71 -73l-71 73q45 32 71 72zM727 127q77 0 94.5 6t51 27.5t34.5 25.5q-50 39 -52 39q-55 30 -78 36q-44 11 -73 -26l-35 -12q2 84 20 114q57 89 175 9q16 -11 82.5 -61.5t106.5 -59.5l10 -2l-28 -73q-35 -5 -66 -34l-39 -45q-56 -62 -137 -71 q-9 -1 -65 0h-80v127h79zM486 127v-127q-53 -1 -115.5 21t-96.5 60q-146 -67 -137 -159q8 -85 118 -106q75 -14 177 3q27 4 49 10l-42 -66q-66 -39 -151 -50t-146.5 13t-91 70.5t-29.5 107.5q0 78 56 133q51 60 161 128l71 39q-25 9 -64.5 30.5t-62.5 27.5q-45 12 -75 -26 l-35 -12q1 85 20 114q58 90 176 10q17 -11 83 -61.5t108 -60.5l10 -3l-29 -73q-18 -9 -57 -23h103z" />
<glyph unicode="&#xfc1b;" horiz-adv-x="1151" arabic-form="isolated" d="M691 590l71 -72q-25 -40 -71 -73l-71 73q45 32 71 72zM640 127q77 0 94.5 6t51 27.5t34.5 25.5q-50 39 -52 39q-55 30 -78 36q-44 11 -73 -26l-35 -12q2 84 20 114q57 89 175 9q16 -11 82.5 -61.5t106.5 -59.5l10 -2l-28 -73q-35 -5 -66 -34l-39 -45q-56 -62 -137 -71 q-9 -1 -65 0h-80v127h79zM278 216q-25 0 -57 -64q22 -16 51 -32q56 -33 51 30q-3 66 -45 66zM444 127v-127h-24q-16 15 -31 35q-14 -29 -34 -47q-104 10 -171 45q-38 23 -52 6l17 -239l-95 -83q3 146 -30 323q0 44 25 72q40 37 88 38q8 10 13 21q77 162 144 162 q46 -1 89 -63t31 -143h30z" />
<glyph unicode="&#xfc1c;" horiz-adv-x="1433" arabic-form="isolated" d="M1076 0q-46 0 -77 43q0 -18 -3 -43h-91q-63 0 -144 43q-50 -43 -66 -43h-47v127h58q4 20 -4 98l102 38q1 -28 -9 -136h103q0 38 -34 137l134 38q2 -32 2 -175q44 -6 111 0q-4 39 -42 161l135 63q16 -111 15 -224l-2 -93q0 -10 -3 -34h-138zM486 127v-127 q-53 -1 -115.5 21t-96.5 60q-146 -67 -137 -159q8 -85 118 -106q75 -14 177 3q27 4 49 10l-42 -66q-66 -39 -151 -50t-146.5 13t-91 70.5t-29.5 107.5q0 78 56 133q51 60 161 128l71 39q-25 9 -64.5 30.5t-62.5 27.5q-45 12 -75 -26l-35 -12q1 85 20 114q58 90 176 10 q17 -11 83 -61.5t108 -60.5l10 -3l-29 -73q-18 -9 -57 -23h103zM189 -60q45 32 71 73l72 -73q-25 -40 -72 -71z" />
<glyph unicode="&#xfc1d;" horiz-adv-x="1433" arabic-form="isolated" d="M1076 0q-46 0 -77 43q0 -18 -3 -43h-91q-63 0 -144 43q-50 -43 -66 -43h-47v127h58q4 20 -4 98l102 38q1 -28 -9 -136h103q0 38 -34 137l134 38q2 -32 2 -175q44 -6 111 0q-4 39 -42 161l135 63q16 -111 15 -224l-2 -93q0 -10 -3 -34h-138zM486 127v-127 q-53 -1 -115.5 21t-96.5 60q-146 -67 -137 -159q8 -85 118 -106q75 -14 177 3q27 4 49 10l-42 -66q-66 -39 -151 -50t-146.5 13t-91 70.5t-29.5 107.5q0 78 56 133q51 60 161 128l71 39q-25 9 -64.5 30.5t-62.5 27.5q-45 12 -75 -26l-35 -12q1 85 20 114q58 90 176 10 q17 -11 83 -61.5t108 -60.5l10 -3l-29 -73q-18 -9 -57 -23h103z" />
<glyph unicode="&#xfc1e;" horiz-adv-x="1433" arabic-form="isolated" d="M1076 0q-46 0 -77 43q0 -18 -3 -43h-91q-63 0 -144 43q-50 -43 -66 -43h-47v127h58q4 20 -4 98l102 38q1 -28 -9 -136h103q0 38 -34 137l134 38q2 -32 2 -175q44 -6 111 0q-4 39 -42 161l135 63q16 -111 15 -224l-2 -93q0 -10 -3 -34h-138zM213 591l71 -72 q-25 -40 -71 -72l-71 72q45 32 71 72zM486 127v-127q-53 -1 -115.5 21t-96.5 60q-146 -67 -137 -159q8 -85 118 -106q75 -14 177 3q27 4 49 10l-42 -66q-66 -39 -151 -50t-146.5 13t-91 70.5t-29.5 107.5q0 78 56 133q51 60 161 128l71 39q-25 9 -64.5 30.5t-62.5 27.5 q-45 12 -75 -26l-35 -12q1 85 20 114q58 90 176 10q17 -11 83 -61.5t108 -60.5l10 -3l-29 -73q-18 -9 -57 -23h103z" />
<glyph unicode="&#xfc1f;" horiz-adv-x="1346" arabic-form="isolated" d="M989 0q-46 0 -77 43q0 -18 -3 -43h-91q-63 0 -144 43q-50 -43 -66 -43h-47v127h58q4 20 -4 98l102 38q1 -28 -9 -136h103q0 38 -34 137l134 38q2 -32 2 -175q44 -6 111 0q-4 39 -42 161l135 63q16 -111 15 -224l-2 -93q0 -10 -3 -34h-138zM278 216q-25 0 -57 -64 q22 -16 51 -32q56 -33 51 30q-3 66 -45 66zM444 127v-127h-24q-16 15 -31 35q-14 -29 -34 -47q-104 10 -171 45q-38 23 -52 6l17 -239l-95 -83q3 146 -30 323q0 44 25 72q40 37 88 38q8 10 13 21q77 162 144 162q46 -1 89 -63t31 -143h30z" />
<glyph unicode="&#xfc20;" horiz-adv-x="1552" arabic-form="isolated" d="M692 0h-44v127h58q2 16 -6 84l102 36q7 -38 -7 -116l10 -4q34 89 103 159q93 96 204 75q69 -12 93 -104q19 -97 -20 -257q-200 -21 -387 5q-16 -41 -15 -51l-23 25q5 17 10 32q-14 8 -23 13q-23 -24 -55 -24zM1020 243q-101 0 -167 -118q177 -23 255 0q0 118 -88 118z M486 127v-127q-53 -1 -115.5 21t-96.5 60q-146 -67 -137 -159q8 -85 118 -106q75 -14 177 3q27 4 49 10l-42 -66q-66 -39 -151 -50t-146.5 13t-91 70.5t-29.5 107.5q0 78 56 133q51 60 161 128l71 39q-25 9 -64.5 30.5t-62.5 27.5q-45 12 -75 -26l-35 -12q1 85 20 114 q58 90 176 10q17 -11 83 -61.5t108 -60.5l10 -3l-29 -73q-18 -9 -57 -23h103z" />
<glyph unicode="&#xfc21;" horiz-adv-x="1465" arabic-form="isolated" d="M605 0h-44v127h58q2 16 -6 84l102 36q7 -38 -7 -116l10 -4q34 89 103 159q93 96 204 75q69 -12 93 -104q19 -97 -20 -257q-200 -21 -387 5q-16 -41 -15 -51l-23 25q5 17 10 32q-14 8 -23 13q-23 -24 -55 -24zM933 243q-101 0 -167 -118q177 -23 255 0q0 118 -88 118z M278 216q-25 0 -57 -64q22 -16 51 -32q56 -33 51 30q-3 66 -45 66zM444 127v-127h-24q-16 15 -31 35q-14 -29 -34 -47q-104 10 -171 45q-38 23 -52 6l17 -239l-95 -83q3 146 -30 323q0 44 25 72q40 37 88 38q8 10 13 21q77 162 144 162q46 -1 89 -63t31 -143h30z" />
<glyph unicode="&#xfc22;" horiz-adv-x="1552" arabic-form="isolated" d="M959 597l71 -71q-25 -42 -71 -72l-73 72q47 31 73 71zM692 0h-44v127h58q2 16 -6 84l102 36q7 -38 -7 -116l10 -4q34 89 103 159q93 96 204 75q69 -12 93 -104q19 -97 -20 -257q-200 -21 -387 5q-16 -41 -15 -51l-23 25q5 17 10 32q-14 8 -23 13q-23 -24 -55 -24z M1020 243q-101 0 -167 -118q177 -23 255 0q0 118 -88 118zM486 127v-127q-53 -1 -115.5 21t-96.5 60q-146 -67 -137 -159q8 -85 118 -106q75 -14 177 3q27 4 49 10l-42 -66q-66 -39 -151 -50t-146.5 13t-91 70.5t-29.5 107.5q0 78 56 133q51 60 161 128l71 39 q-25 9 -64.5 30.5t-62.5 27.5q-45 12 -75 -26l-35 -12q1 85 20 114q58 90 176 10q17 -11 83 -61.5t108 -60.5l10 -3l-29 -73q-18 -9 -57 -23h103zM189 -60q45 32 71 73l72 -73q-25 -40 -72 -71z" />
<glyph unicode="&#xfc23;" horiz-adv-x="1552" arabic-form="isolated" d="M959 597l71 -71q-25 -42 -71 -72l-73 72q47 31 73 71zM692 0h-44v127h58q2 16 -6 84l102 36q7 -38 -7 -116l10 -4q34 89 103 159q93 96 204 75q69 -12 93 -104q19 -97 -20 -257q-200 -21 -387 5q-16 -41 -15 -51l-23 25q5 17 10 32q-14 8 -23 13q-23 -24 -55 -24z M1020 243q-101 0 -167 -118q177 -23 255 0q0 118 -88 118zM486 127v-127q-53 -1 -115.5 21t-96.5 60q-146 -67 -137 -159q8 -85 118 -106q75 -14 177 3q27 4 49 10l-42 -66q-66 -39 -151 -50t-146.5 13t-91 70.5t-29.5 107.5q0 78 56 133q51 60 161 128l71 39 q-25 9 -64.5 30.5t-62.5 27.5q-45 12 -75 -26l-35 -12q1 85 20 114q58 90 176 10q17 -11 83 -61.5t108 -60.5l10 -3l-29 -73q-18 -9 -57 -23h103z" />
<glyph unicode="&#xfc24;" horiz-adv-x="1552" arabic-form="isolated" d="M959 597l71 -71q-25 -42 -71 -72l-73 72q47 31 73 71zM692 0h-44v127h58q2 16 -6 84l102 36q7 -38 -7 -116l10 -4q34 89 103 159q93 96 204 75q69 -12 93 -104q19 -97 -20 -257q-200 -21 -387 5q-16 -41 -15 -51l-23 25q5 17 10 32q-14 8 -23 13q-23 -24 -55 -24z M1020 243q-101 0 -167 -118q177 -23 255 0q0 118 -88 118zM213 591l71 -72q-25 -40 -71 -72l-71 72q45 32 71 72zM486 127v-127q-53 -1 -115.5 21t-96.5 60q-146 -67 -137 -159q8 -85 118 -106q75 -14 177 3q27 4 49 10l-42 -66q-66 -39 -151 -50t-146.5 13t-91 70.5 t-29.5 107.5q0 78 56 133q51 60 161 128l71 39q-25 9 -64.5 30.5t-62.5 27.5q-45 12 -75 -26l-35 -12q1 85 20 114q58 90 176 10q17 -11 83 -61.5t108 -60.5l10 -3l-29 -73q-18 -9 -57 -23h103z" />
<glyph unicode="&#xfc25;" horiz-adv-x="1465" arabic-form="isolated" d="M872 597l71 -71q-25 -42 -71 -72l-73 72q47 31 73 71zM605 0h-44v127h58q2 16 -6 84l102 36q7 -38 -7 -116l10 -4q34 89 103 159q93 96 204 75q69 -12 93 -104q19 -97 -20 -257q-200 -21 -387 5q-16 -41 -15 -51l-23 25q5 17 10 32q-14 8 -23 13q-23 -24 -55 -24z M933 243q-101 0 -167 -118q177 -23 255 0q0 118 -88 118zM278 216q-25 0 -57 -64q22 -16 51 -32q56 -33 51 30q-3 66 -45 66zM444 127v-127h-24q-16 15 -31 35q-14 -29 -34 -47q-104 10 -171 45q-38 23 -52 6l17 -239l-95 -83q3 146 -30 323q0 44 25 72q40 37 88 38 q8 10 13 21q77 162 144 162q46 -1 89 -63t31 -143h30z" />
<glyph unicode="&#xfc26;" horiz-adv-x="1326" arabic-form="isolated" d="M648 0v127h52l10 24q-5 166 -13 213l-24 183l117 55l24 -83l-19 -56l-5 -167l-4 -28q10 11 42 38q83 69 177 54q70 -16 93 -106q20 -100 -19 -254q-220 -6 -379 0h-52zM916 242q-94 0 -148 -120q130 -4 235 0q0 120 -87 120zM486 127v-127q-53 -1 -115.5 21t-96.5 60 q-146 -67 -137 -159q8 -85 118 -106q75 -14 177 3q27 4 49 10l-42 -66q-66 -39 -151 -50t-146.5 13t-91 70.5t-29.5 107.5q0 78 56 133q51 60 161 128l71 39q-25 9 -64.5 30.5t-62.5 27.5q-45 12 -75 -26l-35 -12q1 85 20 114q58 90 176 10q17 -11 83 -61.5t108 -60.5l10 -3 l-29 -73q-18 -9 -57 -23h103z" />
<glyph unicode="&#xfc27;" horiz-adv-x="1239" arabic-form="isolated" d="M561 0v127h52l10 24q-5 166 -13 213l-24 183l117 55l24 -83l-19 -56l-5 -167l-4 -28q10 11 42 38q83 69 177 54q70 -16 93 -106q20 -100 -19 -254q-220 -6 -379 0h-52zM829 242q-94 0 -148 -120q130 -4 235 0q0 120 -87 120zM278 216q-25 0 -57 -64q22 -16 51 -32 q56 -33 51 30q-3 66 -45 66zM444 127v-127h-24q-16 15 -31 35q-14 -29 -34 -47q-104 10 -171 45q-38 23 -52 6l17 -239l-95 -83q3 146 -30 323q0 44 25 72q40 37 88 38q8 10 13 21q77 162 144 162q46 -1 89 -63t31 -143h30z" />
<glyph unicode="&#xfc28;" horiz-adv-x="1239" arabic-form="isolated" d="M858 621l71 -70q-25 -42 -71 -72l-72 72q46 30 72 70zM561 0v127h52l10 24q-5 166 -13 213l-24 183l117 55l24 -83l-19 -56l-5 -167l-4 -28q10 11 42 38q83 69 177 54q70 -16 93 -106q20 -100 -19 -254q-220 -6 -379 0h-52zM829 242q-94 0 -148 -120q130 -4 235 0 q0 120 -87 120zM278 216q-25 0 -57 -64q22 -16 51 -32q56 -33 51 30q-3 66 -45 66zM444 127v-127h-24q-16 15 -31 35q-14 -29 -34 -47q-104 10 -171 45q-38 23 -52 6l17 -239l-95 -83q3 146 -30 323q0 44 25 72q40 37 88 38q8 10 13 21q77 162 144 162q46 -1 89 -63t31 -143 h30z" />
<glyph unicode="&#xfc29;" horiz-adv-x="1152" arabic-form="isolated" d="M697 0h-49v127h40q-35 146 72 235.5t221 -71.5l-63 -23q-103 35 -133 -31.5t19 -111.5q48 -5 191 17l-12 -124q-110 -18 -286 -18zM486 127v-127q-53 -1 -115.5 21t-96.5 60q-146 -67 -137 -159q8 -85 118 -106q75 -14 177 3q27 4 49 10l-42 -66q-66 -39 -151 -50 t-146.5 13t-91 70.5t-29.5 107.5q0 78 56 133q51 60 161 128l71 39q-25 9 -64.5 30.5t-62.5 27.5q-45 12 -75 -26l-35 -12q1 85 20 114q58 90 176 10q17 -11 83 -61.5t108 -60.5l10 -3l-29 -73q-18 -9 -57 -23h103zM189 -60q45 32 71 73l72 -73q-25 -40 -72 -71z" />
<glyph unicode="&#xfc2a;" horiz-adv-x="1065" arabic-form="isolated" d="M610 0h-49v127h40q-35 146 72 235.5t221 -71.5l-63 -23q-103 35 -133 -31.5t19 -111.5q48 -5 191 17l-12 -124q-110 -18 -286 -18zM278 216q-25 0 -57 -64q22 -16 51 -32q56 -33 51 30q-3 66 -45 66zM444 127v-127h-24q-16 15 -31 35q-14 -29 -34 -47q-104 10 -171 45 q-38 23 -52 6l17 -239l-95 -83q3 146 -30 323q0 44 25 72q40 37 88 38q8 10 13 21q77 162 144 162q46 -1 89 -63t31 -143h30z" />
<glyph unicode="&#xfc2b;" horiz-adv-x="1152" arabic-form="isolated" d="M697 0h-49v127h40q-35 146 72 235.5t221 -71.5l-63 -23q-103 35 -133 -31.5t19 -111.5q48 -5 191 17l-12 -124q-110 -18 -286 -18zM781 586l72 -72q-25 -40 -72 -72l-70 72q45 32 70 72zM486 127v-127q-53 -1 -115.5 21t-96.5 60q-146 -67 -137 -159q8 -85 118 -106 q75 -14 177 3q27 4 49 10l-42 -66q-66 -39 -151 -50t-146.5 13t-91 70.5t-29.5 107.5q0 78 56 133q51 60 161 128l71 39q-25 9 -64.5 30.5t-62.5 27.5q-45 12 -75 -26l-35 -12q1 85 20 114q58 90 176 10q17 -11 83 -61.5t108 -60.5l10 -3l-29 -73q-18 -9 -57 -23h103z M189 -60q45 32 71 73l72 -73q-25 -40 -72 -71z" />
<glyph unicode="&#xfc2c;" horiz-adv-x="1065" arabic-form="isolated" d="M610 0h-49v127h40q-35 146 72 235.5t221 -71.5l-63 -23q-103 35 -133 -31.5t19 -111.5q48 -5 191 17l-12 -124q-110 -18 -286 -18zM694 586l72 -72q-25 -40 -72 -72l-70 72q45 32 70 72zM278 216q-25 0 -57 -64q22 -16 51 -32q56 -33 51 30q-3 66 -45 66zM444 127v-127 h-24q-16 15 -31 35q-14 -29 -34 -47q-104 10 -171 45q-38 23 -52 6l17 -239l-95 -83q3 146 -30 323q0 44 25 72q40 37 88 38q8 10 13 21q77 162 144 162q46 -1 89 -63t31 -143h30z" />
<glyph unicode="&#xfc2d;" horiz-adv-x="1096" arabic-form="isolated" d="M754 641l73 -72q-26 -41 -73 -72l-72 72q47 32 72 72zM754 273q0 -11 6 -19q19 -35 92 -28l-3 36t-19 56.5t-50 13.5q-26 -14 -26 -59zM648 0v127h58q106 8 106 13q-149 8 -135 157q4 48 44 95q39 48 86 46q78 -4 108 -86q42 -116 26 -246q-5 -35 -21 -97 q-104 -13 -234 -9h-38zM486 127v-127q-53 -1 -115.5 21t-96.5 60q-146 -67 -137 -159q8 -85 118 -106q75 -14 177 3q27 4 49 10l-42 -66q-66 -39 -151 -50t-146.5 13t-91 70.5t-29.5 107.5q0 78 56 133q51 60 161 128l71 39q-25 9 -64.5 30.5t-62.5 27.5q-45 12 -75 -26 l-35 -12q1 85 20 114q58 90 176 10q17 -11 83 -61.5t108 -60.5l10 -3l-29 -73q-18 -9 -57 -23h103zM189 -60q45 32 71 73l72 -73q-25 -40 -72 -71z" />
<glyph unicode="&#xfc2e;" horiz-adv-x="1096" arabic-form="isolated" d="M754 641l73 -72q-26 -41 -73 -72l-72 72q47 32 72 72zM754 273q0 -11 6 -19q19 -35 92 -28l-3 36t-19 56.5t-50 13.5q-26 -14 -26 -59zM648 0v127h58q106 8 106 13q-149 8 -135 157q4 48 44 95q39 48 86 46q78 -4 108 -86q42 -116 26 -246q-5 -35 -21 -97 q-104 -13 -234 -9h-38zM486 127v-127q-53 -1 -115.5 21t-96.5 60q-146 -67 -137 -159q8 -85 118 -106q75 -14 177 3q27 4 49 10l-42 -66q-66 -39 -151 -50t-146.5 13t-91 70.5t-29.5 107.5q0 78 56 133q51 60 161 128l71 39q-25 9 -64.5 30.5t-62.5 27.5q-45 12 -75 -26 l-35 -12q1 85 20 114q58 90 176 10q17 -11 83 -61.5t108 -60.5l10 -3l-29 -73q-18 -9 -57 -23h103z" />
</font>
</defs>
</svg>
