<?xml version="1.0" standalone="no"?>
<!DOCTYPE svg PUBLIC "-//W3C//DTD SVG 1.1//EN" "http://www.w3.org/Graphics/SVG/1.1/DTD/svg11.dtd" >
<svg xmlns="http://www.w3.org/2000/svg" xmlns:xlink="http://www.w3.org/1999/xlink" version="1.1">
<metadata></metadata>
<defs>
<font id="shorooq_n1regular" horiz-adv-x="0" >
<font-face units-per-em="2048" ascent="1400" descent="-648" />
<missing-glyph horiz-adv-x="225" />
<glyph unicode="&#xfedf;&#xfee0;&#xfeea;" horiz-adv-x="1647" arabic-form="isolated" d="M847 1883l94 31q15 -114 19 -280l-72 -5q0 131 -41 254zM961 1435q10 -26 28 -38q18 -18 42 -18q88 18 76 86q-16 100 -48 178l74 42q57 -228 0 -342q-34 -64 -92 -74q-38 -2 -65 21t-37 37q-2 -4 -6 -8q-34 -62 -82 -68t-84 26q-66 56 -60 136t10 100l32 40 q-2 -20 2 -94q8 -60 32 -80t48 -20q62 10 76 50q-4 16 -2 26t-6 60t-20 70l68 42q14 -44 14 -172zM1581 0h-395q-34 28 -64 66v-66h-627v186l-140 -128l-232 100q-78 32 -32 264q16 70 134 150l228 160q-6 34 -10 70l254 94q18 -298 20 -636h179q-4 228 -98 876l290 90 l52 -166l-40 -114q20 -320 22 -686h233q-4 226 -98 876l290 90l50 -166l-38 -118q20 -316 22 -684v-258zM485 396q-4 84 -14 176q-230 -144 -254 -190q146 -124 268 14z" />
<glyph unicode="&#xfedf;&#xfe82;" horiz-adv-x="890" arabic-form="isolated" d="M17 990q-17 84 0.5 116t52 49t76 12.5t107.5 -26.5q106 -36 147 27l43 18q17 -86 -1 -118q-55 -95 -221 -37q-116 41 -162 -23zM86 186q198 -20 198 20q-98 334 -210 610l232 132q114 -360 178 -672q76 32 108 64q-6 198 -92 796l290 90l50 -168l-38 -112 q22 -648 -36 -764q-136 -270 -540 -256z" />
<glyph unicode="&#xfee0;&#xfe82;" horiz-adv-x="940" arabic-form="final" d="M17 990q-17 84 0.5 116t52 49t76 12.5t107.5 -26.5q106 -36 147 27l43 18q17 -86 -1 -118q-55 -95 -221 -37q-116 41 -162 -23zM838 260h112v-260h-338v70q-164 -152 -366 -144l-144 260q200 -20 200 20q-86 304 -210 610l230 132q124 -390 180 -672q76 32 108 64 q-4 168 -94 796l290 90l50 -168l-38 -112q20 -596 20 -686z" />
<glyph unicode="&#xfedf;&#xfe84;" horiz-adv-x="890" arabic-form="isolated" d="M25 994q31 31 51 47q-46 34 -56 89t-2 93q16 99 112 127t180 -28l-65 -63q-38 9 -68 3q-68 -13 -52 -98q8 -43 65 -63q119 50 177 67l24 -125q-98 -19 -348 -139zM86 186q198 -20 198 20q-98 334 -210 610l232 132q114 -360 178 -672q76 32 108 64q-6 198 -92 796l290 90 l50 -168l-38 -112q22 -648 -36 -764q-136 -270 -540 -256z" />
<glyph unicode="&#xfee0;&#xfe84;" horiz-adv-x="940" arabic-form="final" d="M25 994q31 31 51 47q-46 34 -56.5 89t-1.5 93q17 99 112.5 127.5t179.5 -28.5l-65 -63q-38 9 -68 3q-68 -13 -52 -98q8 -43 65 -63q119 50 177 67l24 -125q-98 -19 -348 -139zM838 260h112v-260h-338v70q-164 -152 -366 -144l-144 260q200 -20 200 20q-86 304 -210 610 l230 132q124 -390 180 -672q76 32 108 64q-4 168 -94 796l290 90l50 -168l-38 -112q20 -596 20 -686z" />
<glyph unicode="&#xfedf;&#xfe88;" horiz-adv-x="890" arabic-form="isolated" d="M206 -531q31 31 50 47q-46 34 -56 89t-2 93q18 100 114 128t179 -29l-65 -63q-39 9 -68 3q-69 -13 -52 -98q8 -43 65 -63q118 50 176 67l25 -125q-99 -19 -348 -139zM86 186q198 -20 198 20q-98 334 -210 610l232 132q114 -360 178 -672q76 32 108 64q-6 198 -92 796 l290 90l50 -168l-38 -112q22 -648 -36 -764q-136 -270 -540 -256z" />
<glyph unicode="&#xfee0;&#xfe88;" horiz-adv-x="940" arabic-form="final" d="M206 -531q31 31 50 47q-45 34 -55.5 89t-2.5 93q18 99 113.5 127.5t179.5 -28.5l-65 -63q-39 9 -68 3q-69 -13 -52 -98q8 -43 65 -63q118 50 176 67l25 -125q-99 -19 -348 -139zM838 260h112v-260h-338v70q-164 -152 -366 -144l-144 260q200 -20 200 20q-86 304 -210 610 l230 132q124 -390 180 -672q76 32 108 64q-4 168 -94 796l290 90l50 -168l-38 -112q20 -596 20 -686z" />
<glyph unicode="&#xfedf;&#xfe8e;" horiz-adv-x="890" arabic-form="isolated" d="M86 186q198 -20 198 20q-98 334 -210 610l232 132q114 -360 178 -672q76 32 108 64q-6 198 -92 796l290 90l50 -168l-38 -112q22 -648 -36 -764q-136 -270 -540 -256z" />
<glyph unicode="&#xfee0;&#xfe8e;" horiz-adv-x="940" arabic-form="final" d="M838 260h112v-260h-338v70q-164 -152 -366 -144l-144 260q200 -20 200 20q-86 304 -210 610l230 132q124 -390 180 -672q76 32 108 64q-4 168 -94 796l290 90l50 -168l-38 -112q20 -596 20 -686z" />
<glyph unicode="&#x621;" horiz-adv-x="663" arabic-form="isolated" d="M46 352.5q0 89.5 22 144.5q60 154 219.5 169t275.5 -99l-125 -83q-57 28 -104 28q-114 0 -114 -141q0 -74 88 -119q196 42 295 51v-204q-159 0 -592 -117v150q57 39 94 55q-59 76 -59 165.5z" />
<glyph unicode="&#x622;" horiz-adv-x="436" arabic-form="isolated" d="M-60 1252q-17 84 0.5 116t52 49t76 12.5t107.5 -26.5q106 -36 147 27l43 18q17 -86 -1 -118q-55 -95 -221 -37q-116 41 -162 -23zM118 2q22 494 -88 1136l290 90q56 -608 36 -1228z" />
<glyph unicode="&#x623;" horiz-adv-x="436" arabic-form="isolated" d="M-36 1300q31 31 51 47q-47 34 -57 89t-1 93q17 99 113 127t179 -28l-65 -63q-38 9 -68 3q-68 -13 -52 -98q8 -43 65 -63q119 50 177 67l24 -125q-98 -19 -348 -139zM118 2q22 494 -88 1136l290 90q56 -608 36 -1228z" />
<glyph unicode="&#x624;" horiz-adv-x="699" arabic-form="isolated" d="M115 1021q0 57 16 91q38 95 134.5 105.5t174.5 -63.5l-78 -50q-37 16 -68 16q-69 0 -69 -86q0 -45 55 -75q115 27 184 32v-128q-105 0 -369 -70v94q34 21 58 34q-38 43 -38 100zM594 -1q-41 -179 -172 -371h-377q334 272 391 371v28q-378 25 -401 279q-13 142 59 262 q82 138 227 118.5t225 -166.5q120 -213 48 -521zM412 250q4 83 -31 161.5t-111 44.5q-59 -26 -61 -94q-7 -117 203 -112z" />
<glyph unicode="&#x625;" horiz-adv-x="436" arabic-form="isolated" d="M86 -454q31 31 50 47q-46 34 -56 89t-2 93q18 99 114 127t179 -28l-65 -63q-39 9 -68 3q-69 -13 -52 -98q8 -43 65 -63q118 50 176 67l25 -125q-99 -19 -348 -139zM118 2q22 494 -88 1136l290 90q56 -608 36 -1228z" />
<glyph unicode="&#x626;" horiz-adv-x="1043" arabic-form="isolated" d="M211 192q18 -136 124 -190q66 -32 158 -26q202 30 262 106q-292 168 -276 248q66 406 522 420l-112 -228q-146 -16 -204 -84q-2 -26 70 -78q194 -112 218 -192q32 -96 -104 -266q-140 -146 -348 -174q-142 -18 -280 52q-228 112 -202 310q4 32 34 112t42 124l94 72 q-8 -40 2 -206zM-1 428q31 31 51 47q-46 34 -56 89t-2 93q16 99 112 127t180 -28l-65 -63q-38 9 -68 3q-68 -13 -52 -98q8 -43 65 -63q119 50 177 67l24 -125q-98 -19 -348 -139z" />
<glyph unicode="&#x627;" horiz-adv-x="451" arabic-form="isolated" d="M118 2q22 494 -88 1136l290 90q56 -608 36 -1228z" />
<glyph unicode="&#x628;" horiz-adv-x="1215" arabic-form="isolated" d="M729 -62l148 -146q-52 -84 -148 -146l-144 146q92 64 144 146zM655 242q118 4 288 18q-14 148 -126 402l290 94q52 -404 22 -756h-490q-632 20 -510 340q50 166 66 206l118 84q-8 -34 -20 -210q-4 -158 362 -178z" />
<glyph unicode="&#x629;" horiz-adv-x="760" arabic-form="isolated" d="M433 1188l146 -146q-52 -84 -146 -146l-104 104q-47 -58 -116 -104l-148 146q94 64 148 146l115 -115q64 52 105 115zM273 258h144q58 0 68 44t-48 117t-124 133q-128 -90 -78 -252q12 -42 38 -42zM359 0q-170 0 -242 108q-90 130 -41 284t179 234l-48 44l166 112 q146 -140 196 -210q118 -164 116 -317t-86 -255h-240z" />
<glyph unicode="&#x62a;" horiz-adv-x="1215" arabic-form="isolated" d="M675 1039l146 -144q-54 -86 -146 -148l-112 112q-48 -64 -122 -112l-146 148q92 62 146 144l121 -120q71 54 113 120zM655 242q118 4 288 18q-14 148 -126 402l290 94q52 -404 22 -756h-490q-632 20 -510 340q50 166 66 206l118 84q-8 -34 -20 -210q-4 -158 362 -178z " />
<glyph unicode="&#x62b;" horiz-adv-x="1215" arabic-form="isolated" d="M686 1038l146 -144q-54 -86 -146 -148l-112 112q-48 -64 -122 -112l-146 148q92 62 146 144l121 -120q71 54 113 120zM568 1258l146 -148q-52 -82 -146 -146l-146 146q94 66 146 148zM655 242q118 4 288 18q-14 148 -126 402l290 94q52 -404 22 -756h-490 q-632 20 -510 340q50 166 66 206l118 84q-8 -34 -20 -210q-4 -158 362 -178z" />
<glyph unicode="&#x62c;" horiz-adv-x="1019" arabic-form="isolated" d="M388 -122q92 66 144 148l148 -148q-52 -82 -148 -146zM28 -205q0 160 114 272q104 121 330 262l144 80q-52 17 -132 61q-80 46 -128 58q-91 24 -151 -53l-73 -26q4 175 42 235q117 182 360 19q33 -23 168 -126t222 -124l20 -5l-58 -149q-36 -18 -173 -71.5t-211 -92.5 q-252 -132 -236.5 -304.5t242.5 -214.5q153 -29 361 4q98 16 99 17l-84 -131q-135 -79 -309.5 -101.5t-300 26t-186 144t-60.5 220.5zM968 -363z" />
<glyph unicode="&#x62d;" horiz-adv-x="1019" arabic-form="isolated" d="M28 -205q0 160 114 272q104 121 330 262l144 80q-52 17 -132 61q-80 46 -128 58q-91 24 -151 -53l-73 -26q4 175 42 235q117 182 360 19q33 -23 168 -126t222 -124l20 -5l-58 -149q-36 -18 -173 -71.5t-211 -92.5q-252 -132 -236.5 -304.5t242.5 -214.5q153 -29 361 4 q98 16 99 17l-84 -131q-135 -79 -309.5 -101.5t-300 26t-186 144t-60.5 220.5zM968 -363z" />
<glyph unicode="&#x62e;" horiz-adv-x="1019" arabic-form="isolated" d="M387 1200l148 -144q-54 -86 -148 -148l-146 148q94 62 146 144zM28 -205q0 160 114 272q104 121 330 262l144 80q-52 17 -132 61q-80 46 -128 58q-91 24 -151 -53l-73 -26q4 175 42 235q117 182 360 19q33 -23 168 -126t222 -124l20 -5l-58 -149q-36 -18 -173 -71.5 t-211 -92.5q-252 -132 -236.5 -304.5t242.5 -214.5q153 -29 361 4q98 16 99 17l-84 -131q-135 -79 -309.5 -101.5t-300 26t-186 144t-60.5 220.5zM968 -363z" />
<glyph unicode="&#x62f;" horiz-adv-x="743" arabic-form="isolated" d="M556 786q166 -404 86 -786q-270 -8 -586 0v266q218 -46 402 0q-52 230 -150 412z" />
<glyph unicode="&#x630;" horiz-adv-x="743" arabic-form="isolated" d="M556 786q166 -404 86 -786q-270 -8 -586 0v266q218 -46 402 0q-52 230 -150 412zM287 1158l148 -148q-52 -82 -148 -148l-146 148q94 66 146 148z" />
<glyph unicode="&#x631;" horiz-adv-x="592" arabic-form="isolated" d="M507 260q28 -208 -22 -365t-132 -277h-376q306 250 368 434q-9 14 -170 424l270 84q50 -202 62 -300z" />
<glyph unicode="&#x632;" horiz-adv-x="592" arabic-form="isolated" d="M147 938l148 -146q-52 -84 -148 -146l-148 146q96 64 148 146zM507 260q28 -208 -22 -365t-132 -277h-376q306 250 368 434q-9 14 -170 424l270 84q50 -202 62 -300z" />
<glyph unicode="&#x633;" horiz-adv-x="1796" arabic-form="isolated" d="M1063 260q0 73 -84 290l276 72q2 -54 10 -173t8 -189q34 -4 113 -2t89 2q5 65 -21.5 178t-60.5 204l286 86q45 -368 36 -728h-290q-30 0 -75 18t-83 68v-86h-244q-30 0 -75 18t-83 68v-86q-18 -236 -182 -368q-94 -72 -264 -72q-112 0 -207 58t-145 163t-25 203t61 194 l120 88q-14 -66 -17 -205t65 -191t146 -54q192 2 232 164q30 132 -1 275t-71 223l270 78q26 -156 26 -296h190z" />
<glyph unicode="&#x634;" horiz-adv-x="1796" arabic-form="isolated" d="M1063 260q0 73 -84 290l276 72q2 -54 10 -173t8 -189q34 -4 113 -2t89 2q5 65 -21.5 178t-60.5 204l286 86q45 -368 36 -728h-290q-30 0 -75 18t-83 68v-86h-244q-30 0 -75 18t-83 68v-86q-18 -236 -182 -368q-94 -72 -264 -72q-112 0 -207 58t-145 163t-25 203t61 194 l120 88q-14 -66 -17 -205t65 -191t146 -54q192 2 232 164q30 132 -1 275t-71 223l270 78q26 -156 26 -296h190zM1230 1070l148 -144q-52 -86 -148 -148l-111 114q-48 -65 -121 -114l-148 148q96 62 148 144l121 -121q69 54 111 121zM1115 1304l146 -148q-52 -84 -146 -148 l-146 148q92 62 146 148z" />
<glyph unicode="&#x635;" horiz-adv-x="1802" arabic-form="isolated" d="M1330 490q-214 0 -334 -244q376 -34 514 6q0 238 -180 238zM882 258h8q66 168 210 324q160 158 322 166q234 -16 286 -226q52 -220 -40 -520q-500 -52 -790 0q-52 -462 -450 -462q-162 0 -290 128t-90 288q50 162 64 204l118 86q-10 -36 -20 -210q0 -228 218 -246 q338 20 230 448q-30 140 -70 204l274 80q20 -100 20 -264z" />
<glyph unicode="&#x636;" horiz-adv-x="1802" arabic-form="isolated" d="M1330 490q-214 0 -334 -244q376 -34 514 6q0 238 -180 238zM882 258h8q66 168 210 324q160 158 322 166q234 -16 286 -226q52 -220 -40 -520q-500 -52 -790 0q-52 -462 -450 -462q-162 0 -290 128t-90 288q50 162 64 204l118 86q-10 -36 -20 -210q0 -228 218 -246 q338 20 230 448q-30 140 -70 204l274 80q20 -100 20 -264zM1206 1210l146 -148q-52 -82 -146 -146l-148 146q94 66 148 148z" />
<glyph unicode="&#x637;" horiz-adv-x="1082" arabic-form="isolated" d="M178 260l20 50q-10 340 -26 436l-48 374l238 112l50 -170l-38 -114l-12 -342l-4 -58q16 22 84 78q168 142 362 112q144 -32 190 -218q40 -204 -40 -520q-450 -12 -776 0h-94l-52 260h146zM620 496q-192 0 -302 -246q266 -8 480 0q0 246 -178 246z" />
<glyph unicode="&#x638;" horiz-adv-x="1082" arabic-form="isolated" d="M678 1272l146 -144q-52 -86 -146 -148l-148 148q94 62 148 144zM178 260l20 50q-10 340 -26 436l-48 374l238 112l50 -170l-38 -114l-12 -342l-4 -58q16 22 84 78q168 142 362 112q144 -32 190 -218q40 -204 -40 -520q-450 -12 -776 0h-94l-52 260h146zM620 496 q-192 0 -302 -246q266 -8 480 0q0 246 -178 246z" />
<glyph unicode="&#x639;" horiz-adv-x="975" arabic-form="isolated" d="M68 -202q0 138 98 250q52 60 172 168q-52 94 -60 137t-10 49q-32 160 32 310q84 190 236 216q172 28 334 -202l-126 -48q-164 58 -237 -16t-49 -184q12 -72 50 -140q136 62 392 82l-22 -194q-558 -100 -574 -348q-26 -356 600 -256q52 10 100 20l-86 -132 q-260 -152 -538 -94q-312 64 -312 382z" />
<glyph unicode="&#x63a;" horiz-adv-x="975" arabic-form="isolated" d="M456 1300l148 -144q-54 -86 -148 -148l-148 148q96 62 148 144zM68 -202q0 138 98 250q52 60 172 168q-52 94 -60 137t-10 49q-32 160 32 310q84 190 236 216q172 28 334 -202l-126 -48q-164 58 -237 -16t-49 -184q12 -72 50 -140q136 62 392 82l-22 -194 q-558 -100 -574 -348q-26 -356 600 -256q52 10 100 20l-86 -132q-260 -152 -538 -94q-312 64 -312 382z" />
<glyph unicode="&#x641;" horiz-adv-x="1269" arabic-form="isolated" d="M863 1296l146 -146q-50 -84 -146 -148l-146 148q92 62 146 146zM1003 448q0 20 -4 42q-4 78 -40 145t-104 31q-52 -28 -50 -120q0 -24 10 -40q40 -70 188 -58zM139 342q54 164 68 206l118 84q-10 -34 -20 -210q-2 -156 352 -176q266 0 262 24q-304 20 -274 322 q8 100 84 194q86 100 184 94q156 -8 220 -174q84 -238 52 -504q-8 -74 -46 -202q-212 -20 -474 -14q-658 0 -526 356z" />
<glyph unicode="&#x642;" horiz-adv-x="1039" arabic-form="isolated" d="M669 1132l148 -144q-52 -86 -148 -148l-102 105q-47 -59 -118 -105l-146 148q94 62 146 144l117 -114q63 51 103 114zM549 348q-6 -118 204 -112q6 104 -30 184t-116 46q-52 -26 -58 -118zM659 688q148 -20 228 -166q102 -186 68 -486q-6 -126 -132 -268 q-118 -116 -303 -136t-317 78q-186 138 -144 332q54 164 68 206l112 80q-6 -40 -16 -206q0 -134 88 -198t233 -40t221 106q22 30 2 62q-364 26 -390 256q-4 134 81 264t201 116z" />
<glyph unicode="&#x643;" horiz-adv-x="1278" arabic-form="isolated" d="M450 766q0 56 16 92q38 94 136 104t172 -62l-78 -50q-36 16 -66 16q-70 0 -70 -86q0 -44 54 -74q124 26 184 32v-128q-100 0 -368 -70v92q36 24 58 36q-38 42 -38 98zM990 258q0 98 -112 878l290 90l50 -168l-38 -112q38 -624 14 -946q-94 0 -280 -2h-276 q-630 20 -508 342q54 166 66 206l120 84q-10 -32 -20 -210q-6 -148 384 -162h310z" />
<glyph unicode="&#x644;" horiz-adv-x="1032" arabic-form="isolated" d="M244 296q-10 -36 -20 -210q0 -226 218 -244q278 16 270 170q-40 626 -136 1124l290 90l54 -168l-40 -110q0 -66 21 -428t3 -508q-48 -434 -458 -446q-162 0 -292 138t-94 302q52 164 64 204z" />
<glyph unicode="&#x645;" horiz-adv-x="899" arabic-form="isolated" d="M544 442q-50 0 -118 -130q46 -32 106 -66q114 -68 108 62q-8 134 -96 134zM244 80l36 -490l-198 -170q8 298 -58 662q0 90 52 148q84 76 178 78q16 20 26 42q160 332 296 332q94 -2 176 -122q88 -122 69 -307t-119 -277q-210 20 -350 92q-78 48 -108 12z" />
<glyph unicode="&#x646;" horiz-adv-x="973" arabic-form="isolated" d="M433 779l146 -148q-52 -82 -146 -148l-148 148q94 66 148 148zM620 490l250 80q44 -218 18 -470q-18 -172 -132 -300q-136 -130 -318 -138q-124 0 -234 80q-186 138 -144 334q54 164 68 204l112 82q-10 -40 -20 -204q0 -138 90 -200q54 -40 134 -46q280 16 266 174 q-20 224 -90 404z" />
<glyph unicode="&#x647;" horiz-adv-x="760" arabic-form="isolated" d="M273 258h144q58 0 68 44t-48 117t-124 133q-128 -90 -78 -252q12 -42 38 -42zM359 0q-170 0 -242 108q-90 130 -41 284t179 234l-48 44l166 112q146 -140 196 -210q118 -164 116 -317t-86 -255h-240z" />
<glyph unicode="&#x648;" horiz-adv-x="699" arabic-form="isolated" d="M597 -1q-41 -179 -172 -371h-377q334 272 391 371v28q-378 25 -401 279q-13 142 59 262q82 138 227 118t225 -166q120 -213 48 -521zM415 250q4 84 -31 162t-111 44q-59 -26 -61 -94q-7 -117 203 -112z" />
<glyph unicode="&#x64a;" horiz-adv-x="1043" arabic-form="isolated" d="M541 -404l144 -148q-52 -82 -144 -148l-106 106q-46 -57 -116 -106l-146 148q92 64 146 148l116 -117q66 52 106 117zM211 192q18 -136 124 -190q66 -32 158 -26q202 30 262 106q-292 168 -276 248q66 406 522 420l-112 -228q-146 -16 -204 -84q-2 -26 70 -78 q194 -112 218 -192q32 -96 -104 -266q-140 -146 -348 -174q-142 -18 -280 52q-228 112 -202 310q4 32 34 112t42 124l94 72q-8 -40 2 -206z" />
<glyph unicode="&#xfe70;" arabic-form="isolated" d="M-194 49l398 187v-119l-398 -187v119zM-194 291l398 187v-114l-398 -192v119z" />
<glyph unicode="&#xfe74;" arabic-form="isolated" d="M-175 -260l362 170v-104l-362 -172v106zM-175 -40l362 170v-104l-362 -172v106z" />
<glyph unicode="&#xfe76;" arabic-form="isolated" d="M-194 49l398 187v-119l-398 -187v119z" />
<glyph unicode="&#xfe78;" arabic-form="isolated" d="M149 273q-3 -108 -99 -201q-47 -53 -148 -97l-95 60q142 50 186 71l5 9q-147 110 -62 237q92 96 168 33q51 -40 45 -112zM-8 293q-30 -43 47 -88q23 31 27 67t-32 39q-27 5 -42 -18z" />
<glyph unicode="&#xfe7a;" arabic-form="isolated" d="M-175 -40l362 170v-104l-362 -172v106z" />
<glyph unicode="&#xfe7c;" arabic-form="isolated" d="M-278 106l19 149l102 15l-19 -145q-5 -45 5.5 -62.5t40.5 -12.5q61 10 67 93l20 145l101 17l-19 -146q-5 -44 7 -61.5t42 -12.5t45 26t20 66l19 145l102 17l-20 -149q-24 -181 -173 -205q-70 -10 -109 36q-57 -64 -124.5 -74.5t-102 29t-23.5 130.5z" />
<glyph unicode="&#xfe7e;" arabic-form="isolated" d="M-83 128q0 -38 95 -37q46 0 52 24v5q0 21 -38 50.5t-54 29.5t-27.5 -5.5t-19.5 -28t-8 -38.5zM-25 298q57 0 108.5 -44t51.5 -84t-26 -91t-52.5 -72.5t-80.5 -21.5t-93.5 24t-39.5 60t20.5 89.5t50.5 96.5t61 43z" />
<glyph unicode="&#x622;" horiz-adv-x="569" arabic-form="final" d="M589 0h-50l-349 2q22 494 -88 1136l290 90q44 -480 38 -968h159v-260zM46 1252q-17 84 0.5 116t52 49t76 12.5t107.5 -26.5q106 -36 147 27l43 18q17 -86 -1 -118q-55 -95 -221 -37q-116 41 -162 -23z" />
<glyph unicode="&#x623;" horiz-adv-x="529" arabic-form="final" d="M549 0h-50l-349 2q22 494 -88 1136l290 90q44 -480 38 -968h159v-260zM14 1300q31 31 51 47q-47 34 -57 89t-1 93q17 99 113 127t179 -28l-65 -63q-38 9 -68 3q-68 -13 -52 -98q8 -43 65 -63q119 50 177 67l24 -125q-98 -19 -348 -139z" />
<glyph unicode="&#x624;" horiz-adv-x="687" arabic-form="final" d="M70 754q31 31 50 47q-45 34 -55.5 89t-2.5 93q18 99 113.5 127.5t179.5 -28.5l-65 -63q-39 9 -68 3q-69 -13 -52 -98q8 -43 65 -63q118 50 176 67l25 -125q-99 -19 -348 -139zM200 362q-8 -116 202 -112q6 86 -29 163t-113 43q-56 -28 -60 -94zM712 260v-260h-128 q-30 -160 -172 -370h-374q332 272 390 372v26q-370 24 -400 280q-6 132 79 263t203 115q148 -20 228 -166q54 -100 70 -260h104z" />
<glyph unicode="&#x625;" horiz-adv-x="529" arabic-form="final" d="M549 0h-50l-349 2q22 494 -88 1136l290 90q44 -480 38 -968h159v-260zM116 -454q31 31 50 47q-46 34 -56 89t-2 93q18 99 114 127t179 -28l-65 -63q-39 9 -68 3q-69 -13 -52 -98q8 -43 65 -63q118 50 176 67l25 -125q-99 -19 -348 -139z" />
<glyph unicode="&#x626;" horiz-adv-x="897" arabic-form="final" d="M75 384q31 31 50 47q-45 34 -55.5 89t-2.5 93q18 99 113.5 127.5t179.5 -28.5l-65 -63q-39 9 -68 3q-69 -13 -52 -98q8 -43 65 -63q118 50 176 67l25 -125q-99 -19 -348 -139zM908 260v-260h-52q70 -100 -58 -292q-130 -200 -358 -188q-390 18 -358 368q16 168 124 388 l132 86q-60 -204 -78 -252q-70 -238 76 -318q74 -36 225 -5t185 99q-30 104 -174 162q10 74 38 248q112 -40 228 -36h70z" />
<glyph unicode="&#x626;" horiz-adv-x="505" arabic-form="initial" d="M63 831q31 31 50 47q-45 34 -55.5 89t-2.5 93q18 99 113.5 127.5t179.5 -28.5l-65 -63q-39 9 -68 3q-69 -13 -52 -98q8 -43 65 -63q118 50 176 67l25 -125q-99 -19 -348 -139zM-2 0v260h242q-6 138 -114 372l290 94q48 -386 22 -726h-440z" />
<glyph unicode="&#x626;" horiz-adv-x="538" arabic-form="medial" d="M63 831q31 31 50 47q-45 34 -55.5 89t-2.5 93q18 99 113.5 127.5t179.5 -28.5l-65 -63q-39 9 -68 3q-69 -13 -52 -98q8 -43 65 -63q118 50 176 67l25 -125q-99 -19 -348 -139zM558 260v-260h-52q-32 30 -62 70q0 -8 -6 -68l-440 -2v260h242q-10 140 -114 372l290 90 q30 -244 32 -462h110z" />
<glyph unicode="&#x627;" horiz-adv-x="476" arabic-form="final" d="M496 0h-50l-349 2q22 494 -88 1136l290 90q44 -480 38 -968h159v-260z" />
<glyph unicode="&#x628;" horiz-adv-x="1270" arabic-form="final" d="M776 -62l144 -146q-52 -84 -144 -146l-148 146q94 64 148 146zM1186 260h104v-260h-48q-34 28 -64 70q-2 -34 -6 -70h-490q-632 20 -510 340q54 166 66 206l120 84q-10 -34 -20 -210q-6 -158 360 -178q118 4 288 18q-14 148 -126 402l290 94q36 -256 36 -496z" />
<glyph unicode="&#x628;" horiz-adv-x="505" arabic-form="initial" d="M258 -108l148 -146q-54 -84 -148 -146l-146 146q94 64 146 146zM-2 0v260h242q-6 138 -114 372l290 94q48 -386 22 -726h-440z" />
<glyph unicode="&#x628;" horiz-adv-x="538" arabic-form="medial" d="M558 260v-260h-52q-32 30 -62 70q0 -8 -6 -68l-440 -2v260h242q-10 140 -114 372l290 90q30 -244 32 -462h110zM238 -108l148 -146q-54 -84 -148 -146l-146 146q94 64 146 146z" />
<glyph unicode="&#x629;" horiz-adv-x="816" arabic-form="final" d="M550 1280l148 -144q-52 -86 -148 -148l-102 105q-47 -59 -118 -105l-148 148q96 62 148 144l117 -114q63 51 103 114zM836 260v-260h-336v186l-140 -128l-232 100q-78 32 -32 264q16 70 134 150l228 160q-6 34 -10 70l254 94q18 -298 20 -636h114zM476 572 q-230 -144 -254 -190q146 -124 268 14q-4 84 -14 176z" />
<glyph unicode="&#x62a;" horiz-adv-x="1270" arabic-form="final" d="M730 1039l146 -144q-54 -86 -146 -148l-112 112q-48 -64 -122 -112l-146 148q92 62 146 144l121 -120q71 54 113 120zM1186 260h104v-260h-48q-34 28 -64 70q-2 -34 -6 -70h-490q-632 20 -510 340q54 166 66 206l120 84q-10 -34 -20 -210q-6 -158 360 -178q118 4 288 18 q-14 148 -126 402l290 94q36 -256 36 -496z" />
<glyph unicode="&#x62a;" horiz-adv-x="568" arabic-form="initial" d="M378 1120l148 -144q-52 -86 -148 -148l-111 114q-48 -65 -121 -114l-148 148q96 62 148 144l121 -121q69 54 111 121zM-2 0v260h263q-6 138 -114 372l290 94q48 -386 22 -726h-461z" />
<glyph unicode="&#x62a;" horiz-adv-x="584" arabic-form="medial" d="M406 1120l148 -144q-52 -86 -148 -148l-111 114q-48 -65 -121 -114l-148 148q96 62 148 144l121 -121q69 54 111 121zM604 260v-260h-72q-32 30 -62 70q0 -8 -6 -70h-466v260h268q-10 140 -114 372l290 90q30 -244 32 -462h130z" />
<glyph unicode="&#x62b;" horiz-adv-x="1270" arabic-form="final" d="M730 1039l146 -144q-54 -86 -146 -148l-112 112q-48 -64 -122 -112l-146 148q92 62 146 144l121 -120q71 54 113 120zM612 1259l146 -148q-52 -82 -146 -146l-146 146q94 66 146 148zM1186 260h104v-260h-48q-34 28 -64 70q-2 -34 -6 -70h-490q-632 20 -510 340 q54 166 66 206l120 84q-10 -34 -20 -210q-6 -158 360 -178q118 4 288 18q-14 148 -126 402l290 94q36 -256 36 -496z" />
<glyph unicode="&#x62b;" horiz-adv-x="568" arabic-form="initial" d="M260 1298l146 -146q-52 -84 -146 -146l-146 146q94 64 146 146zM378 1070l148 -144q-52 -86 -148 -148l-111 114q-48 -65 -121 -114l-148 148q96 62 148 144l121 -121q69 54 111 121zM-2 0v260h263q-6 138 -114 372l290 94q48 -386 22 -726h-461z" />
<glyph unicode="&#x62b;" horiz-adv-x="584" arabic-form="medial" d="M287 1298l146 -146q-52 -84 -146 -146l-146 146q94 64 146 146zM405 1070l148 -144q-52 -86 -148 -148l-111 114q-48 -65 -121 -114l-148 148q96 62 148 144l121 -121q69 54 111 121zM604 260v-260h-72q-32 30 -62 70q0 -8 -6 -70h-466v260h268q-10 140 -114 372l290 90 q30 -244 32 -462h130z" />
<glyph unicode="&#x62c;" horiz-adv-x="976" arabic-form="final" d="M995 260v-260q-109 -3 -236.5 42.5t-196.5 123.5q-298 -137 -282 -326q16 -174 243 -216q154 -29 361 5q55 8 102 20l-86 -135q-136 -79 -310 -101.5t-300 26t-186.5 144t-60.5 220.5q0 160 114 272q104 122 331 263l144 80q-52 18 -132 62t-128 56q-92 24 -152 -52 l-73 -26q3 175 41 235q118 184 361 19q34 -23 169 -126t222 -124l20 -5l-58 -149q-37 -18 -117 -48h210zM388 -122q92 66 144 148l148 -148q-52 -82 -148 -146z" />
<glyph unicode="&#x62c;" horiz-adv-x="896" arabic-form="initial" d="M159 260q158 0 194.5 12.5t105 56.5t70.5 51q-103 79 -107 81q-112 62 -159 74q-91 23 -150 -53l-73 -25q4 173 42 233q117 182 358 19q33 -23 169 -126t219 -122l19 -5l-57 -148q-72 -11 -134 -70l-81 -93q-114 -127 -280 -145q-19 -2 -133 0h-164v260h161zM316 -154 l148 -148q-54 -82 -148 -148l-148 148q96 64 148 148z" />
<glyph unicode="&#x62c;" horiz-adv-x="860" arabic-form="medial" d="M-2 0v260h161q159 -2 196 12.5t105.5 58.5t71.5 50q-104 80 -108 82q-113 63 -160 75q-90 24 -151 -54l-73 -25q3 174 41.5 234.5t95.5 83.5q104 44 264 -65q34 -23 168 -125t222 -124l20 -5l-58 -148q-60 -10 -110 -50h203v-260q-245 0 -353 101q-34 -28 -61 -42 q-94 -50 -176 -59q-19 -2 -133 0h-165zM316 -154l148 -148q-54 -82 -148 -148l-148 148q96 64 148 148z" />
<glyph unicode="&#x62d;" horiz-adv-x="976" arabic-form="final" d="M995 260v-260q-109 -3 -236.5 42.5t-196.5 123.5q-298 -137 -282 -326q16 -174 243 -216q154 -29 361 5q55 8 102 20l-86 -135q-136 -79 -310 -101.5t-300 26t-186.5 144t-60.5 220.5q0 160 114 272q104 122 331 263l144 80q-52 18 -132 62t-128 56q-92 24 -152 -52 l-73 -26q3 175 41 235q118 184 361 19q34 -23 169 -126t222 -124l20 -5l-58 -149q-37 -18 -117 -48h210z" />
<glyph unicode="&#x62d;" horiz-adv-x="896" arabic-form="initial" d="M159 260q158 0 194.5 12.5t105 56.5t70.5 51q-103 79 -107 81q-112 62 -159 74q-91 23 -150 -53l-73 -25q4 173 42 233q117 182 358 19q33 -23 169 -126t219 -122l19 -5l-57 -148q-72 -11 -134 -70l-81 -93q-114 -127 -280 -145q-19 -2 -133 0h-164v260h161z" />
<glyph unicode="&#x62d;" horiz-adv-x="860" arabic-form="medial" d="M-2 0v260h161q159 -2 196 12.5t105.5 58.5t71.5 50q-104 80 -108 82q-113 63 -160 75q-90 24 -151 -54l-73 -25q3 174 41.5 234.5t95.5 83.5q104 44 264 -65q34 -23 168 -125t222 -124l20 -5l-58 -148q-60 -10 -110 -50h203v-260q-245 0 -353 101q-34 -28 -61 -42 q-94 -50 -176 -59q-19 -2 -133 0h-165z" />
<glyph unicode="&#x62e;" horiz-adv-x="976" arabic-form="final" d="M436 1210l146 -148q-52 -82 -146 -146l-146 146q92 66 146 148zM995 260v-260q-109 -3 -236.5 42.5t-196.5 123.5q-298 -137 -282 -326q16 -174 243 -216q154 -29 361 5q55 8 102 20l-86 -135q-136 -79 -310 -101.5t-300 26t-186.5 144t-60.5 220.5q0 160 114 272 q104 122 331 263l144 80q-52 18 -132 62t-128 56q-92 24 -152 -52l-73 -26q3 175 41 235q118 184 361 19q34 -23 169 -126t222 -124l20 -5l-58 -149q-37 -18 -117 -48h210z" />
<glyph unicode="&#x62e;" horiz-adv-x="896" arabic-form="initial" d="M264 1208l146 -148q-52 -82 -146 -148l-146 148q92 66 146 148zM159 260q158 0 194.5 12.5t105 56.5t70.5 51q-103 79 -107 81q-112 62 -159 74q-91 23 -150 -53l-73 -25q4 173 42 233q117 182 358 19q33 -23 169 -126t219 -122l19 -5l-57 -148q-72 -11 -134 -70l-81 -93 q-114 -127 -280 -145q-19 -2 -133 0h-164v260h161z" />
<glyph unicode="&#x62e;" horiz-adv-x="860" arabic-form="medial" d="M250 1208l148 -148q-52 -82 -148 -148l-146 148q94 66 146 148zM-2 0v260h161q159 -2 196 12.5t105.5 58.5t71.5 50q-104 80 -108 82q-113 63 -160 75q-90 24 -151 -54l-73 -25q3 174 41.5 234.5t95.5 83.5q104 44 264 -65q34 -23 168 -125t222 -124l20 -5l-58 -148 q-60 -10 -110 -50h203v-260q-245 0 -353 101q-34 -28 -61 -42q-94 -50 -176 -59q-19 -2 -133 0h-165z" />
<glyph unicode="&#x62f;" horiz-adv-x="763" arabic-form="final" d="M773 260v-260h-46q-38 28 -66 72l-8 -32q0 -10 -6 -40q-270 -8 -586 0v260q218 -40 402 0q-52 236 -150 418l248 108q108 -266 112 -526h100z" />
<glyph unicode="&#x630;" horiz-adv-x="763" arabic-form="final" d="M287 1158l148 -148q-52 -82 -148 -148l-146 148q94 66 146 148zM773 260v-260h-46q-38 28 -66 72l-8 -32q0 -10 -6 -40q-270 -8 -586 0v260q218 -40 402 0q-52 236 -150 418l248 108q108 -266 112 -526h100z" />
<glyph unicode="&#x631;" horiz-adv-x="583" arabic-form="final" d="M593 260v-260h-24q-32 26 -60 60q-6 -112 -22 -164q-50 -158 -132 -278h-378q308 250 368 434q-5 5 -170 424l270 84q52 -202 64 -300h84z" />
<glyph unicode="&#x632;" horiz-adv-x="583" arabic-form="final" d="M147 938l148 -146q-52 -84 -148 -146l-148 146q96 64 148 146zM593 260v-260h-24q-32 26 -60 60q-6 -112 -22 -164q-50 -158 -132 -278h-378q308 250 368 434q-5 5 -170 424l270 84q52 -202 64 -300h84z" />
<glyph unicode="&#x633;" horiz-adv-x="1846" arabic-form="final" d="M1096 260q0 73 -84 290l276 72q2 -54 10 -173t8 -189q34 -4 113 -2t89 2q5 65 -21.5 178t-60.5 204l286 86q26 -186 32 -287t12 -181h110v-260h-48q-40 30 -68 70v-34q-2 -24 -2 -36h-290q-30 0 -75 18t-83 68v-86h-244q-30 0 -75 18t-83 68v-86q-18 -236 -182 -368 q-94 -72 -264 -72q-112 0 -207 58t-145 163t-25 203t61 194l120 88q-14 -66 -17 -205t65 -191t146 -54q192 2 232 164q30 132 -1 275t-71 223l270 78q26 -156 26 -296h190z" />
<glyph unicode="&#x633;" horiz-adv-x="1227" arabic-form="initial" d="M874 0q-94 0 -158 88q-1 -37 -6 -88h-186q-130 0 -294 88q-102 -88 -136 -88h-96v260h118q8 40 -8 200l210 78q2 -58 -18 -278h210q0 78 -70 280l274 78q4 -66 4 -358q90 -12 228 0q-8 80 -86 330l276 128q32 -227 32 -458l-4 -190q0 -20 -6 -70h-284z" />
<glyph unicode="&#x633;" horiz-adv-x="1258" arabic-form="medial" d="M1168 260h110v-260h-50q-32 28 -64 70q0 -20 -6 -70h-284q-94 0 -158 88q-1 -37 -6 -88h-186q-130 0 -294 88q-102 -88 -136 -88h-96v260h118q8 40 -8 200l210 78q2 -58 -18 -278h210q0 78 -70 280l274 78q4 -66 4 -358q90 -12 228 0q-8 80 -86 330l276 128 q32 -227 32 -458z" />
<glyph unicode="&#x634;" horiz-adv-x="1846" arabic-form="final" d="M1268 1070l148 -144q-52 -86 -148 -148l-111 114q-48 -65 -121 -114l-148 148q96 62 148 144l121 -121q69 54 111 121zM1153 1304l146 -148q-52 -84 -146 -148l-146 148q92 62 146 148zM1096 260q0 73 -84 290l276 72q2 -54 10 -173t8 -189q34 -4 113 -2t89 2 q5 65 -21.5 178t-60.5 204l286 86q26 -186 32 -287t12 -181h110v-260h-48q-40 30 -68 70v-34q-2 -24 -2 -36h-290q-30 0 -75 18t-83 68v-86h-244q-30 0 -75 18t-83 68v-86q-18 -236 -182 -368q-94 -72 -264 -72q-112 0 -207 58t-145 163t-25 203t61 194l120 88 q-14 -66 -17 -205t65 -191t146 -54q192 2 232 164q30 132 -1 275t-71 223l270 78q26 -156 26 -296h190z" />
<glyph unicode="&#x634;" horiz-adv-x="1227" arabic-form="initial" d="M874 0q-94 0 -158 88q-1 -37 -6 -88h-186q-130 0 -294 88q-102 -88 -136 -88h-96v260h118q8 40 -8 200l210 78q2 -58 -18 -278h210q0 78 -70 280l274 78q4 -66 4 -358q90 -12 228 0q-8 80 -86 330l276 128q32 -227 32 -458l-4 -190q0 -20 -6 -70h-284zM689 1070l148 -144 q-52 -86 -148 -148l-111 114q-48 -65 -121 -114l-148 148q96 62 148 144l121 -121q69 54 111 121zM574 1304l146 -148q-52 -84 -146 -148l-146 148q92 62 146 148z" />
<glyph unicode="&#x634;" horiz-adv-x="1256" arabic-form="medial" d="M1168 260h110v-260h-50q-32 28 -64 70q0 -20 -6 -70h-284q-94 0 -158 88q-1 -37 -6 -88h-186q-130 0 -294 88q-102 -88 -136 -88h-96v260h118q8 40 -8 200l210 78q2 -58 -18 -278h210q0 78 -70 280l274 78q4 -66 4 -358q90 -12 228 0q-8 80 -86 330l276 128 q32 -227 32 -458zM682 1070l148 -144q-52 -86 -148 -148l-111 114q-48 -65 -121 -114l-148 148q96 62 148 144l121 -121q69 54 111 121zM567 1304l146 -148q-52 -84 -146 -148l-146 148q92 62 146 148z" />
<glyph unicode="&#x635;" horiz-adv-x="1820" arabic-form="final" d="M1370 490q-214 0 -334 -244q376 -34 512 6q0 238 -178 238zM920 258h8q64 170 212 324q158 158 320 166q236 -12 286 -226q26 -106 12 -262h82v-260h-50q-34 30 -64 72q-8 -36 -20 -70q-498 -52 -790 0q-50 -462 -448 -462q-166 0 -292 128t-90 288q52 162 64 204l120 86 q-10 -36 -20 -210q0 -226 218 -246q340 20 230 450q-32 140 -72 202l276 80q18 -100 18 -264z" />
<glyph unicode="&#x635;" horiz-adv-x="1213" arabic-form="initial" d="M88 0h-90v260h118q4 32 -12 172l210 74q14 -78 -14 -238l20 -8q70 182 210 326q190 196 418 154q142 -24 190 -214q38 -198 -40 -526q-410 -42 -792 10q-32 -84 -32 -104l-46 52q10 34 20 64q-28 16 -48 28q-46 -50 -112 -50zM760 498q-206 0 -342 -242q362 -48 522 0 q0 242 -180 242z" />
<glyph unicode="&#x635;" horiz-adv-x="1212" arabic-form="medial" d="M90 0h-92v260h120q6 36 -12 172l210 74q12 -78 -12 -238l20 -6q70 180 210 324q186 200 414 156q146 -26 190 -216q20 -108 8 -266h84v-260h-52q-32 32 -64 76q-8 -36 -14 -70q-412 -48 -792 4q-14 -42 -23 -65t-9 -39l-46 52q8 38 20 68q-26 12 -46 24q-48 -50 -114 -50 zM764 498q-210 0 -344 -242q364 -48 520 0q0 242 -176 242z" />
<glyph unicode="&#x636;" horiz-adv-x="1820" arabic-form="final" d="M1370 490q-214 0 -334 -244q376 -34 512 6q0 238 -178 238zM920 258h8q64 170 212 324q158 158 320 166q236 -12 286 -226q26 -106 12 -262h82v-260h-50q-34 30 -64 72q-8 -36 -20 -70q-498 -52 -790 0q-50 -462 -448 -462q-166 0 -292 128t-90 288q52 162 64 204l120 86 q-10 -36 -20 -210q0 -226 218 -246q340 20 230 450q-32 140 -72 202l276 80q18 -100 18 -264zM1242 1220l148 -148q-52 -82 -148 -146l-146 146q94 66 146 148z" />
<glyph unicode="&#x636;" horiz-adv-x="1213" arabic-form="initial" d="M634 1222l146 -144q-52 -86 -146 -148l-148 148q94 62 148 144zM88 0h-90v260h118q4 32 -12 172l210 74q14 -78 -14 -238l20 -8q70 182 210 326q190 196 418 154q142 -24 190 -214q38 -198 -40 -526q-410 -42 -792 10q-32 -84 -32 -104l-46 52q10 34 20 64q-28 16 -48 28 q-46 -50 -112 -50zM760 498q-206 0 -342 -242q362 -48 522 0q0 242 -180 242z" />
<glyph unicode="&#x636;" horiz-adv-x="1212" arabic-form="medial" d="M90 0h-92v260h120q6 36 -12 172l210 74q12 -78 -12 -238l20 -6q70 180 210 324q186 200 414 156q146 -26 190 -216q20 -108 8 -266h84v-260h-52q-32 32 -64 76q-8 -36 -14 -70q-412 -48 -792 4q-14 -42 -23 -65t-9 -39l-46 52q8 38 20 68q-26 12 -46 24q-48 -50 -114 -50 zM764 498q-210 0 -344 -242q364 -48 520 0q0 242 -176 242zM630 1220l148 -148q-52 -82 -148 -146l-146 146q94 66 146 148z" />
<glyph unicode="&#x637;" horiz-adv-x="1068" arabic-form="final" d="M630 498q-192 0 -306 -242q268 -10 480 0q0 242 -174 242zM1088 260v-260h-50q-36 30 -66 70q-6 -52 -15 -70h-870l-55 260h146l20 48q-14 338 -28 430l-46 374l238 114l50 -168l-38 -116l-12 -342l-8 -60q18 22 86 80q170 140 362 110q146 -30 192 -214q20 -108 8 -256 h86z" />
<glyph unicode="&#x637;" horiz-adv-x="996" arabic-form="initial" d="M-2 0v260h106l20 50q-10 340 -26 436l-48 374l238 112l50 -170l-38 -114l-12 -342l-8 -58q20 22 86 78q170 142 364 112q144 -32 190 -218q40 -204 -40 -520q-450 -12 -776 0h-106zM546 496q-192 0 -302 -246q266 -8 480 0q0 246 -178 246z" />
<glyph unicode="&#x637;" horiz-adv-x="994" arabic-form="medial" d="M1014 260v-260h-50q-36 28 -66 70q-7 -49 -18 -70q-450 -10 -776 0h-106v260h106l20 50q-10 332 -26 428l-48 374l238 114l50 -170l-38 -114l-12 -342l-8 -60q18 22 86 80q170 140 362 110q146 -30 192 -214q20 -108 8 -256h86zM546 488q-192 0 -306 -246q270 -6 484 0 q0 246 -178 246z" />
<glyph unicode="&#x638;" horiz-adv-x="1068" arabic-form="final" d="M630 498q-192 0 -306 -242q268 -10 480 0q0 242 -174 242zM1088 260v-260h-50q-36 30 -66 70q-6 -52 -15 -70h-870l-55 260h146l20 48q-14 338 -28 430l-46 374l238 114l50 -168l-38 -116l-12 -342l-8 -60q18 22 86 80q170 140 362 110q146 -30 192 -214q20 -108 8 -256 h86zM678 1272l146 -144q-52 -86 -146 -148l-148 148q94 62 148 144z" />
<glyph unicode="&#x638;" horiz-adv-x="996" arabic-form="initial" d="M606 1272l146 -144q-52 -86 -146 -148l-148 148q94 62 148 144zM-2 0v260h106l20 50q-10 340 -26 436l-48 374l238 112l50 -170l-38 -114l-12 -342l-8 -58q20 22 86 78q170 142 364 112q144 -32 190 -218q40 -204 -40 -520q-450 -12 -776 0h-106zM546 496 q-192 0 -302 -246q266 -8 480 0q0 246 -178 246z" />
<glyph unicode="&#x638;" horiz-adv-x="994" arabic-form="medial" d="M1014 260v-260h-50q-36 28 -66 70q-7 -49 -18 -70q-450 -10 -776 0h-106v260h106l20 50q-10 332 -26 428l-48 374l238 114l50 -170l-38 -114l-12 -342l-8 -60q18 22 86 80q170 140 362 110q146 -30 192 -214q20 -108 8 -256h86zM546 488q-192 0 -306 -246q270 -6 484 0 q0 246 -178 246zM604 1272l146 -144q-52 -86 -146 -148l-148 148q94 62 148 144z" />
<glyph unicode="&#x639;" horiz-adv-x="928" arabic-form="final" d="M758 0q-228 0 -300 156q-112 -64 -141 -116t-31 -104q-14 -196 204 -270q176 -60 396 -28q52 10 100 20l-86 -130q-260 -152 -538 -96q-312 66 -312 380q0 118 26 181t64 105t123 105t107 83q40 54 -38 124q-74 72 -224 108l134 268q44 10 64 12q486 88 584 -126 q92 -202 -244 -410q-6 -4 260 -2h52v-260h-200zM350 576q140 -44 186 -188q200 168 146 200q-34 22 -332 -12z" />
<glyph unicode="&#x639;" horiz-adv-x="758" arabic-form="initial" d="M98 0h-100v260h82q-72 300 147 483t453 -147l-130 -48q-210 72 -271 -64t39 -228q98 -10 390 34l-24 -254q-226 -36 -586 -36z" />
<glyph unicode="&#x639;" horiz-adv-x="850" arabic-form="medial" d="M860 260v-260q-380 -4 -454 94q-138 -90 -286 -94h-122v260h118q124 0 142 24q86 152 -228 230l138 266q550 127 640 -104q72 -186 -154 -416h206zM458 382q200 168 148 200q-36 24 -330 -12q138 -40 182 -188z" />
<glyph unicode="&#x63a;" horiz-adv-x="928" arabic-form="final" d="M482 1280l148 -144q-52 -86 -148 -148l-146 148q94 62 146 144zM758 0q-228 0 -300 156q-112 -64 -141 -116t-31 -104q-14 -196 204 -270q176 -60 396 -28q52 10 100 20l-86 -130q-260 -152 -538 -96q-312 66 -312 380q0 118 26 181t64 105t123 105t107 83q40 54 -38 124 q-74 72 -224 108l134 268q44 10 64 12q486 88 584 -126q92 -202 -244 -410q-6 -4 260 -2h52v-260h-200zM350 576q140 -44 186 -188q200 168 146 200q-34 22 -332 -12z" />
<glyph unicode="&#x63a;" horiz-adv-x="758" arabic-form="initial" d="M98 0h-100v260h82q-72 300 147 483t453 -147l-130 -48q-210 72 -271 -64t39 -228q98 -10 390 34l-24 -254q-226 -36 -586 -36zM270 1200l148 -148q-52 -82 -148 -146l-144 146q92 66 144 148z" />
<glyph unicode="&#x63a;" horiz-adv-x="850" arabic-form="medial" d="M408 1274l148 -144q-52 -86 -148 -148l-148 148q96 62 148 144zM860 260v-260q-380 -4 -454 94q-138 -90 -286 -94h-122v260h118q124 0 142 24q86 152 -228 230l138 266q550 127 640 -104q72 -186 -154 -416h206zM458 382q200 168 148 200q-36 24 -330 -12 q138 -40 182 -188z" />
<glyph unicode="&#x641;" horiz-adv-x="1396" arabic-form="final" d="M982 1220l148 -144q-50 -86 -148 -148l-144 148q92 62 144 144zM1086 318q124 104 12 218q-42 44 -77 42t-71 -42q-115 -145 136 -218zM1416 260v-260l-108 -2q-150 0 -246 48q-100 -48 -280 -48h-112q-620 -6 -528 308q44 166 54 206l112 94q-8 -34 -6 -214 q6 -154 374 -146q56 6 142 14q-152 172 -10 398q88 138 204 148q158 10 260 -160q90 -148 6 -386h138z" />
<glyph unicode="&#x641;" horiz-adv-x="669" arabic-form="initial" d="M216 1312l148 -146q-54 -84 -148 -148l-148 148q96 64 148 146zM216 560q0 -22 12 -40q38 -72 188 -58q-2 24 -6 74t-39 116t-103 28q-52 -28 -52 -120zM-2 0v260h118q218 16 218 26q-306 16 -276 322q8 98 89 195t177 93q160 -8 220 -176q86 -238 54 -502 q-10 -72 -44 -200q-214 -26 -478 -18h-78z" />
<glyph unicode="&#x641;" horiz-adv-x="700" arabic-form="medial" d="M286 1220l146 -144q-50 -86 -146 -148l-146 148q92 62 146 144zM266 538q-118 -143 134 -218q126 106 16 218q-46 44 -80 42t-70 -42zM720 260v-260h-98q-150 0 -244 48q-92 -46 -340 -48h-40v260h134q-152 176 -6 400q86 138 202 148q160 10 260 -160q90 -148 4 -388 h128z" />
<glyph unicode="&#x642;" horiz-adv-x="1048" arabic-form="final" d="M702 1132l148 -144q-52 -86 -148 -148l-102 105q-47 -59 -118 -105l-146 148q94 62 146 144l117 -114q63 51 103 114zM582 366q-4 -118 206 -114q4 84 -31 162t-115 44q-54 -26 -60 -92zM1068 260v-260h-82q-20 -108 -128 -232q-120 -116 -305 -136t-317 78 q-186 138 -140 332q52 164 64 206l112 80q-6 -40 -16 -206q0 -134 90 -196q86 -66 231 -42t223 106q18 28 10 40q-370 26 -398 278q-6 134 80 264t204 116q144 -20 224 -166q58 -102 72 -262h76z" />
<glyph unicode="&#x642;" horiz-adv-x="669" arabic-form="initial" d="M396 1312l148 -146q-54 -84 -148 -148l-103 105q-47 -58 -117 -105l-148 148q96 64 148 146l116 -115q64 52 104 115zM216 560q0 -22 12 -40q38 -72 188 -58q-2 24 -6 74t-39 116t-103 28q-52 -28 -52 -120zM-2 0v260h118q218 16 218 26q-306 16 -276 322q8 98 89 195 t177 93q160 -8 220 -176q86 -238 54 -502q-10 -72 -44 -200q-214 -26 -478 -18h-78z" />
<glyph unicode="&#x642;" horiz-adv-x="700" arabic-form="medial" d="M400 1220l148 -144q-52 -86 -148 -148l-102 105q-47 -59 -118 -105l-148 148q96 62 148 144l117 -114q63 51 103 114zM266 538q-118 -143 134 -218q126 106 16 218q-46 44 -80 42t-70 -42zM720 260v-260h-98q-150 0 -244 48q-92 -46 -340 -48h-40v260h134 q-152 176 -6 400q86 138 202 148q160 10 260 -160q90 -148 4 -388h128z" />
<glyph unicode="&#x643;" horiz-adv-x="1366" arabic-form="final" d="M492 766q0 56 16 92q38 94 135 104t173 -62l-78 -50q-38 16 -68 16q-68 0 -68 -86q0 -44 54 -74q122 26 184 32v-128q-102 0 -368 -70v92q36 24 58 36q-38 42 -38 98zM1032 258q0 98 -112 878l290 90l50 -168l-40 -112q20 -324 26 -686h140v-260h-80q-30 22 -66 72 l-8 -72q-92 0 -274 -2h-278q-630 20 -508 342q54 166 66 206l120 84q-10 -32 -20 -210q-6 -148 384 -162h310z" />
<glyph unicode="&#x643;" horiz-adv-x="933" arabic-form="initial" d="M-2 0v260h580q6 122 -184 188q-74 28 -148 40l-56 -22l-112 70q-28 212 46 314q270 230 736 402v-256q-456 -118 -552 -284q326 -96 436 -230q162 -200 14 -482h-760z" />
<glyph unicode="&#x643;" horiz-adv-x="956" arabic-form="medial" d="M926 0q-58 0 -130 100q-16 -54 -38 -100h-760v260h578q8 122 -182 188q-76 28 -148 40l-56 -22l-114 70q-26 212 48 314q266 230 736 402v-256q-456 -118 -552 -284q326 -100 432 -232q70 -84 76 -220h160v-260h-50z" />
<glyph unicode="&#x644;" horiz-adv-x="990" arabic-form="final" d="M1010 260v-260h-50q-28 26 -52 58q-2 -26 -6 -46q-46 -434 -456 -446q-164 0 -294 136q-132 144 -94 304q52 164 64 204l120 86q-10 -34 -20 -210q0 -226 218 -244q278 16 268 170q-38 628 -136 1126l294 90l50 -170l-40 -108l34 -690h100z" />
<glyph unicode="&#x644;" horiz-adv-x="486" arabic-form="initial" d="M380 0h-382v260h156q-4 226 -98 876l290 90l50 -166l-38 -118q20 -316 22 -684v-258z" />
<glyph unicode="&#x644;" horiz-adv-x="504" arabic-form="medial" d="M524 260v-260h-80q-34 28 -64 66v-66h-382v260h156q-4 228 -98 876l290 90l52 -166l-40 -114q20 -320 22 -686h144z" />
<glyph unicode="&#x645;" horiz-adv-x="890" arabic-form="final" d="M570 442q-52 0 -118 -130q46 -32 106 -66q114 -68 104 62q-6 134 -92 134zM910 260v-260h-50q-32 30 -64 72q-28 -60 -68 -96q-212 20 -352 92q-78 48 -106 12l36 -490l-196 -170q6 298 -60 662q0 90 50 148q82 76 180 78q16 20 28 42q158 332 294 332q94 -2 182 -129 t64 -293h62z" />
<glyph unicode="&#x645;" horiz-adv-x="758" arabic-form="initial" d="M418 440q-50 0 -118 -130q46 -32 106 -64q118 -68 108 62q-8 132 -96 132zM66 0h-68v260h66q52 0 92 90q158 332 294 330q94 0 180 -122t66 -307t-118 -275q-202 20 -358 100q-62 -76 -154 -76z" />
<glyph unicode="&#x645;" horiz-adv-x="744" arabic-form="medial" d="M420 440q-50 0 -116 -128q44 -32 104 -66q116 -68 108 63t-96 131zM68 0h-70v260h68q50 2 92 90q158 332 296 330q92 0 174 -119t70 -301h66v-260h-50q-36 28 -66 70q-30 -60 -70 -94q-192 20 -354 102q-64 -78 -156 -78z" />
<glyph unicode="&#x646;" horiz-adv-x="1012" arabic-form="final" d="M463 779l146 -148q-52 -82 -146 -148l-148 148q94 66 148 148zM1032 260v-260h-52q-32 30 -62 72q-22 -146 -128 -270q-134 -126 -318 -134q-124 0 -236 80q-186 138 -140 332q50 162 64 206l116 82q-10 -42 -20 -206q0 -136 86 -200q54 -40 136 -46q278 16 264 174 q-20 226 -86 406l250 76q30 -152 26 -312h100z" />
<glyph unicode="&#x646;" horiz-adv-x="568" arabic-form="initial" d="M196 1120l146 -148q-52 -82 -146 -146l-146 146q92 66 146 148zM-2 0v260h263q-6 138 -114 372l290 94q48 -386 22 -726h-461z" />
<glyph unicode="&#x646;" horiz-adv-x="584" arabic-form="medial" d="M196 1120l146 -148q-52 -82 -146 -146l-146 146q92 66 146 148zM604 260v-260h-72q-32 30 -62 70q0 -8 -6 -70h-466v260h268q-10 140 -114 372l290 90q30 -244 32 -462h130z" />
<glyph unicode="&#x647;" horiz-adv-x="816" arabic-form="final" d="M500 0v186l-140 -128l-232 100q-78 32 -32 264q16 70 134 150l228 160q-6 34 -10 70l254 94q18 -298 20 -636h114v-260h-336zM490 396q-4 84 -14 176q-230 -144 -254 -190q146 -124 268 14z" />
<glyph unicode="&#x647;" horiz-adv-x="843" arabic-form="initial" d="M218 410q-2 -18 106 -130q40 28 52 93t-28 99q-112 8 -130 -62zM518 426q-6 -104 -78 -186q30 -20 94 -32t70 4q14 60 -86 214zM-2 0v260h102q-40 66 -44 112q-10 138 108 240q120 98 244 60q-18 26 -42 50l122 168q298 -310 302 -620q6 -188 -72 -314q-290 -8 -440 80 q-84 -34 -160 -36h-120z" />
<glyph unicode="&#x647;" horiz-adv-x="806" arabic-form="medial" d="M180 408q-4 -16 100 -128q44 28 56 92t-26 100q-114 6 -130 -64zM478 422q-6 -97 -78 -184q30 -20 94 -33t70 5q12 60 -86 212zM-2 0v260h62q-40 62 -44 112q-12 138 109 238t245 60q-20 26 -44 52l122 166q298 -310 302 -620v-8h76v-260h-46q-30 26 -54 66 q-38 -96 -48 -114q-290 -6 -440 84q-80 -34 -160 -36h-80z" />
<glyph unicode="&#x648;" horiz-adv-x="682" arabic-form="final" d="M200 362q-8 -116 202 -112q6 86 -29 163t-113 43q-56 -28 -60 -94zM712 260v-260h-128q-30 -160 -172 -370h-374q332 272 390 370v28q-370 24 -400 280q-6 132 79 263t203 115q148 -20 228 -166q54 -100 70 -260h104z" />
<glyph unicode="&#x649;" horiz-adv-x="897" arabic-form="final" d="M908 260v-260l-52 -2q70 -98 -58 -290q-130 -200 -358 -188q-390 18 -358 368q16 168 124 388l132 86q-60 -204 -78 -252q-70 -238 76 -318q74 -36 225 -5t185 99q-30 104 -174 162q10 74 38 248q112 -40 228 -36h70z" />
<glyph unicode="&#x64a;" horiz-adv-x="897" arabic-form="final" d="M596 -578l144 -144q-52 -86 -144 -148l-112 112q-48 -64 -124 -112l-144 148q92 62 144 144l123 -119q69 53 113 119zM908 260v-260l-52 -2q70 -98 -58 -290q-130 -200 -358 -188q-390 18 -358 368q16 168 124 388l132 86q-60 -204 -78 -252q-70 -238 76 -318 q74 -36 225 -5t185 99q-30 104 -174 162q10 74 38 248q112 -40 228 -36h70z" />
<glyph unicode="&#x64a;" horiz-adv-x="615" arabic-form="initial" d="M388 -108l148 -144q-52 -86 -148 -148l-111 114q-48 -65 -121 -114l-148 148q96 62 148 144l121 -121q69 54 111 121zM-2 0v260h312q-6 138 -114 372l290 94q48 -386 22 -726h-510z" />
<glyph unicode="&#x64a;" horiz-adv-x="628" arabic-form="medial" d="M386 -108l148 -144q-54 -86 -148 -148l-112 113q-48 -64 -120 -113l-148 148q94 62 148 144l120 -120q70 53 112 120zM648 260v-260h-72q-32 30 -62 70q0 -8 -6 -70h-510v260h312q-10 140 -114 372l290 90q30 -244 32 -462h130z" />
<glyph unicode=" "  horiz-adv-x="225" />
<glyph unicode="&#x09;" horiz-adv-x="225" />
<glyph unicode="&#xa0;" horiz-adv-x="225" />
<glyph unicode="!" horiz-adv-x="432" d="M67 -26l148 148q92 -66 144 -148l-144 -148q-52 84 -148 148zM66 1138l259 83q10 -400 -8 -975l-212 2q20 458 -39 890z" />
<glyph unicode="&#x22;" horiz-adv-x="405" d="M223 1426l137 45q-5 -159 -38 -389l-102 -8q30 183 3 352zM53 1426l137 45q-5 -159 -38 -389l-102 -8q30 183 3 352z" />
<glyph unicode="#" horiz-adv-x="996" d="M561 501h-103l-23 -103h102zM502 693h103l45 199h193l-46 -199h199l-44 -192h-199l-23 -103h199l-44 -192h-199l-46 -199h-192l45 199h-102l-46 -199h-192l46 199h-199l44 192h199l23 103h-199l44 192h199l46 199h192z" />
<glyph unicode="$" horiz-adv-x="745" d="M76 852q0 180 154 257v189h99v-159q35 6 58 6h29v153h99v-158q74 -7 131 -24l-31 -191q-54 17 -100 26v-259q170 -107 170 -253q0 -194 -170 -272v-167h-99v138q-33 -5 -56 -5h-31v-133h-99v141q-104 16 -170 62l45 186q59 -42 125 -59v279q-154 100 -154 243zM416 745 v216q-54 0 -87 -16v-151q25 -18 54 -32q30 -15 33 -17zM329 317q54 0 87 14v174q-3 3 -7 5l-80 43v-236z" />
<glyph unicode="%" horiz-adv-x="1129" d="M263 801l-216 216l199 198l216 -216zM860 18l-216 216l199 198l216 -216zM199 -44l511 1354l201 -20l-512 -1354z" />
<glyph unicode="&#x66a;" horiz-adv-x="1129" d="M263 801l-216 216l199 198l216 -216zM860 18l-216 216l199 198l216 -216zM199 -44l511 1354l201 -20l-512 -1354z" />
<glyph unicode="&#x26;" horiz-adv-x="1201" d="M282 434q0 -179 198 -179q78 0 138 30l-152 177q-75 88 -106 142q-78 -43 -78 -170zM452 -7q-198 -1 -300 115t-102 309q0 295 243 425q-1 17 -1 33q0 153 84 247t213 93q128 0 229 -43l-41 -269q-68 45 -149 45q-109 0 -109 -115q0 -76 86 -173l178 -203q70 130 80 321 l232 -26q-14 -285 -141 -486l202 -224l-276 -54l-92 104q-139 -99 -336 -99z" />
<glyph unicode="'" horiz-adv-x="190" d="M53 1032l137 45q-5 -159 -38 -389l-102 -8q30 183 3 352z" />
<glyph unicode="(" horiz-adv-x="699" d="M71 466q0 470 308 942l154 -120l-234 -826l234 -826v-8l-154 -110q-308 478 -308 948z" />
<glyph unicode=")" horiz-adv-x="698" d="M654 466q0 -470 -308 -948l-154 110v8l234 826l-234 826l154 120q308 -472 308 -942z" />
<glyph unicode="*" horiz-adv-x="764" d="M86 897l138 160l-204 25l58 241l200 -88l-13 218h239l-14 -218l196 88l58 -241l-204 -25l138 -160l-189 -138l-107 209l-107 -209z" />
<glyph unicode="+" horiz-adv-x="1076" d="M681 458v-327h-231v327h-327v231h327v327h231v-327h327v-231h-327z" />
<glyph unicode="," horiz-adv-x="342" d="M269 184q26 -100 -36 -212q-29 -63 -111 -133l-105 30q119 85 153 122q3 5 3 10q-168 58 -124 201q58 115 147 75q58 -23 73 -93z" />
<glyph unicode="-" horiz-adv-x="837" d="M80 431v246h678v-246h-678z" />
<glyph unicode="&#xad;" horiz-adv-x="837" d="M80 431v246h678v-246h-678z" />
<glyph unicode="." horiz-adv-x="374" d="M22 147l148 148q92 -66 144 -148l-144 -148q-52 84 -148 148z" />
<glyph unicode="/" horiz-adv-x="852" d="M20 0l524 1398h283l-526 -1398h-281z" />
<glyph unicode="0" horiz-adv-x="801" d="M247 484q0 -166 46 -232t110 -67q64 0 108 73q44 72 44 226t-44 227t-108 73t-104 -57q-52 -77 -52 -243zM45 484q0 256 114 388q97 110 241 110t241 -110q115 -132 115 -388t-115 -387q-97 -111 -241 -111t-241 111q-114 131 -114 387z" />
<glyph unicode="1" horiz-adv-x="444" d="M394 2h-221v708h-153v161q194 3 251 119h123v-988z" />
<glyph unicode="2" horiz-adv-x="785" d="M429 982q151 0 223 -92t73 -216q0 -124 -61 -203q-40 -54 -142 -112t-136 -80t-51 -65h400v-214h-685q12 180 86 290q69 107 234 199q78 45 101 65q46 41 46 98q0 114 -103 114q-111 0 -131 -163l-201 61q24 136 110 227t237 91z" />
<glyph unicode="3" horiz-adv-x="781" d="M410 982q138 0 220 -76q72 -72 72 -181q0 -142 -118 -199v-8q66 -24 106 -88t41 -163q0 -99 -55 -170q-84 -109 -275 -109q-96 0 -162 28q-113 48 -189 181l158 113q76 -123 180 -123q52 1 92 29t40 85t-40 86t-101 29h-75v185h93q102 0 102 85q-1 36 -25 66t-77 31 q-106 0 -167 -139l-170 81q99 257 350 257z" />
<glyph unicode="4" horiz-adv-x="810" d="M443 419v472h206v-472h116v-221h-116v-198h-206v198h-398q19 414 118 784h216q-79 -271 -104 -563h168z" />
<glyph unicode="5" horiz-adv-x="754" d="M633 982v-203h-347l-10 -121q68 33 144 33q134 -1 209 -101t75 -251t-78 -252t-227 -101q-107 0 -179 37q-99 51 -170 183l157 120q48 -136 157 -136q63 0 98 46t35 110q-1 64 -41 110t-118 46t-149 -83l-109 91l51 472h502z" />
<glyph unicode="6" horiz-adv-x="784" d="M471 662q124 0 196 -93t72 -253t-91 -244q-91 -86 -229 -86q-183 0 -279 132t-95 357q-1 225 105 366t289 141q102 0 201 -40v-214q-81 56 -165 56q-164 0 -210 -182q51 18 105 39t101 21zM407 186q57 0 95 34t37 102q0 68 -37 104q-36 36 -84 36t-80 -20t-84 -62 q22 -194 153 -194z" />
<glyph unicode="7" horiz-adv-x="849" d="M50 982h764q-89 -405 -346 -982h-255q207 434 303 762h-246v-178h-220v398z" />
<glyph unicode="8" horiz-adv-x="798" d="M263 312q1 -56 35 -91t101 -35t102 35t35 91t-38 87q-38 32 -99 32q-60 0 -98 -32q-38 -31 -38 -87zM398 783q-102 0 -102 -91t102 -91q42 1 73 23t31 68t-31 69q-31 22 -73 22zM86 722q0 102 64 172q82 88 248 88t239 -79t73 -181q0 -141 -114 -197v-4q68 -21 110 -81 t42 -157t-51 -172q-85 -125 -289 -125t-292 105q-66 79 -66 188t45 167t108 75v4q-117 56 -117 197z" />
<glyph unicode="9" horiz-adv-x="784" d="M313 306q-125 0 -197 94t-71 252q0 160 91 245t229 85q182 0 278 -132t96 -356t-106 -366t-289 -142q-101 0 -201 41v214q81 -56 165 -56q165 0 211 182q-51 -17 -105 -39t-101 -22zM376 782q-57 0 -94 -34t-37 -102t37 -104q36 -36 84 -36t80 20t84 63q-23 193 -154 193 z" />
<glyph unicode=":" horiz-adv-x="402" d="M45 540l148 148q92 -66 144 -148l-144 -148q-52 84 -148 148zM45 149l148 148q92 -66 144 -148l-144 -148q-52 84 -148 148z" />
<glyph unicode=";" horiz-adv-x="380" d="M44 540l148 148q92 -66 144 -148l-144 -148q-52 84 -148 148zM307 184q26 -100 -36 -212q-29 -63 -111 -133l-105 30q119 85 153 122q3 5 3 10q-168 58 -124 201q58 115 147 75q58 -23 73 -93z" />
<glyph unicode="&#x37e;" horiz-adv-x="380" d="M44 540l148 148q92 -66 144 -148l-144 -148q-52 84 -148 148zM307 184q26 -100 -36 -212q-29 -63 -111 -133l-105 30q119 85 153 122q3 5 3 10q-168 58 -124 201q58 115 147 75q58 -23 73 -93z" />
<glyph unicode="&#x3c;" horiz-adv-x="1030" d="M563 162l-493 418l495 408h395l-501 -399l501 -427h-397z" />
<glyph unicode="=" horiz-adv-x="1102" d="M995 480v-231h-885v231h885zM110 633v231h885v-231h-885z" />
<glyph unicode="&#x3e;" horiz-adv-x="1030" d="M70 162l501 427l-501 399h395l495 -408l-493 -418h-397z" />
<glyph unicode="?" horiz-adv-x="704" d="M295 -94l-161 166q58 91 161 165l166 -165q-108 -72 -166 -166zM346 1228q108 0 184 -66t105 -168t3 -208t-102 -177q-44 -42 -154 -129q-90 -78 -107 -136l-80 248q11 19 155 153t144 198q0 17 -35 29t-83 12q-136 0 -226 -137l-15 -26q-44 178 -44 183q40 96 77 141 q70 83 178 83z" />
<glyph unicode="@" horiz-adv-x="1319" d="M584 334q0 -68 62 -68q32 0 79 19l2 97l-136 -13q-7 -19 -7 -35zM554 120q-84 0 -132 50t-48 127q0 117 90 176l265 20v37q0 82 -103 82q-77 0 -158 -48l-57 150q132 75 275 75q243 0 243 -219l-4 -238q0 -79 71 -79q56 -1 95 71t39 183q0 206 -123 312t-337 106 q-214 1 -347 -133q-132 -134 -132 -349q-1 -215 117 -331t309 -115q123 0 194 27l18 -145q-96 -28 -217 -28q-248 0 -410 156t-162 435q0 280 182 452t454 172q271 0 437 -148t166 -406q0 -182 -91 -288t-229 -106t-196 83q-125 -81 -209 -81z" />
<glyph unicode="A" horiz-adv-x="1238" d="M633 810q-20 57 -25 117h-15q-7 -78 -23 -117l-108 -294h275zM927 0l-107 300h-429l-108 -300h-264l461 1228h271l467 -1228h-291z" />
<glyph unicode="B" horiz-adv-x="991" d="M430 521h-89v-312q28 -4 124 -4q200 0 200 150q0 166 -235 166zM424 1033q-51 0 -83 -4v-315h71q194 0 194 167q0 152 -182 152zM528 -5q-68 0 -307 9h-139v1216h128q191 9 275 9q179 1 281 -79t102 -231q0 -195 -178 -270v-12q255 -57 255 -300q1 -149 -111 -245 t-306 -97z" />
<glyph unicode="C" horiz-adv-x="1141" d="M675 -10q-255 0 -443 159t-187 453q0 294 199 469q176 157 440 157t411 -84l-79 -248q-130 84 -317 84q-353 0 -353 -390q0 -184 102 -268t274 -84t317 91l56 -255q-165 -84 -420 -84z" />
<glyph unicode="D" horiz-adv-x="1240" d="M508 999q-34 0 -158 -9v-759q103 -9 176 -9q166 0 266 104t101 296q-1 192 -107 285q-106 92 -278 92zM558 -7q-96 0 -354 12h-122v1211h106q247 12 345 12q296 0 479 -156t183 -452q1 -297 -177 -462t-460 -165z" />
<glyph unicode="E" horiz-adv-x="935" d="M885 0h-805v1228h760v-239h-488v-254h434v-234h-434v-262h533v-239z" />
<glyph unicode="F" horiz-adv-x="897" d="M847 990h-495v-329h441v-236h-441v-425h-272v1228h767v-238z" />
<glyph unicode="G" horiz-adv-x="1221" d="M690 -10q-282 0 -464 160q-181 160 -181 456t199 469q176 153 438 153t448 -91l-69 -252q-160 95 -360 95q-355 0 -355 -383q0 -359 367 -359q106 0 167 23v283h271v-482q-179 -72 -461 -72z" />
<glyph unicode="H" horiz-adv-x="1260" d="M903 0v513h-546v-513h-277v1228h277v-475h546v475h277v-1228h-277z" />
<glyph unicode="I" horiz-adv-x="436" d="M80 0v1228h276v-1228h-276z" />
<glyph unicode="J" horiz-adv-x="514" d="M434 195q0 -176 -119 -278t-307 -117l-44 223q220 23 220 198v1007h250v-1033z" />
<glyph unicode="K" horiz-adv-x="1146" d="M347 0h-267v1228h267v-530l433 530h322l-432 -484l466 -744h-309l-343 537l-137 -152v-385z" />
<glyph unicode="L" horiz-adv-x="905" d="M885 0h-805v1228h277v-987h528v-241z" />
<glyph unicode="M" horiz-adv-x="1594" d="M1226 793h-12q-13 -82 -25 -113l-290 -680h-258l-262 680q-17 43 -25 113h-13q0 -71 -2 -91l-52 -702h-237l99 1228h287l320 -815q20 -49 23 -97h16q9 55 25 97l342 815h287l95 -1228h-267l-49 702q-2 20 -2 91z" />
<glyph unicode="N" horiz-adv-x="1232" d="M330 763v-763h-250v1228h291l465 -633q39 -53 57 -98h12q-3 43 -3 93v638h250v-1228h-211l-545 756q-41 59 -57 100h-12q3 -43 3 -93z" />
<glyph unicode="O" horiz-adv-x="1357" d="M680.5 999q-143.5 0 -237.5 -94t-94 -298q0 -388 327 -388q152 -1 242 103t90 296t-92 286q-92 95 -235.5 95zM673 -10q-263 0 -444 160t-181 448t182 458q182 172 453 172t449 -162t177 -451t-187 -457t-449 -168z" />
<glyph unicode="P" horiz-adv-x="976" d="M350 0h-270v1217h145q207 11 291 11q198 0 306 -98t109 -289q0 -191 -139 -306q-119 -99 -294 -99q-40 0 -148 1v-437zM350 643h101q211 0 211 192q0 182 -198 182q-43 0 -114 -3v-371z" />
<glyph unicode="Q" horiz-adv-x="1252" d="M618 1020q-134 0 -216 -88q-84 -88 -84 -268q0 -182 80 -270t218 -88t220 96t81 270t-83 261t-216 87zM42 657q0 259 166 415t413 156t409 -148t162 -397q0 -375 -311 -520v-6l351 -220l-217 -128l-449 297q-212 9 -368 151t-156 400z" />
<glyph unicode="R" horiz-adv-x="1089" d="M465 1019q-36 0 -121 -4v-347h122q89 0 142 50t53 129q0 172 -196 172zM344 468v-468h-264v1217h161q238 11 291 11q184 0 294 -90t110 -257q0 -231 -209 -318v-12l372 -551h-301l-312 468h-142z" />
<glyph unicode="S" horiz-adv-x="889" d="M408 -10q-243 0 -373 86l58 227q135 -88 305 -88t170 121q0 62 -79 115l-176 89q-257 131 -257 329q0 163 117 261t308 98t317 -35l-40 -234q-153 44 -257 44q-179 0 -179 -116q0 -51 82 -99q28 -17 94 -48t87 -43q264 -137 264 -345q-1 -166 -127 -264t-314 -98z" />
<glyph unicode="T" horiz-adv-x="1111" d="M1061 987h-366v-987h-279v987h-366v241h1011v-241z" />
<glyph unicode="U" horiz-adv-x="1175" d="M1095 430q0 -192 -131 -316t-368 -124q-516 0 -516 440v799h276v-738q0 -136 48 -196t188 -60t197 63t57 199v732h249v-799z" />
<glyph unicode="V" horiz-adv-x="1203" d="M764 0h-316l-436 1228h306l269 -815q18 -50 23 -107h18q7 64 22 107l271 815h270z" />
<glyph unicode="W" horiz-adv-x="1883" d="M1520 0h-288l-267 807q-16 46 -18 87h-18q-9 -60 -18 -87l-255 -807h-286l-342 1228h287l207 -771q7 -30 14 -84h16q2 34 16 82l241 773h284l259 -771q13 -39 18 -84h18q3 45 10 82l186 773h271z" />
<glyph unicode="X" horiz-adv-x="1254" d="M914 0l-289 429l-296 -429h-312l462 622l-454 606h352l276 -407l270 407h314l-439 -595l438 -633h-322z" />
<glyph unicode="Y" horiz-adv-x="1169" d="M742 0h-275v459l-453 769h331l229 -440q25 -44 32 -86h18q9 45 32 86l229 440h275l-418 -769v-459z" />
<glyph unicode="Z" horiz-adv-x="1107" d="M50 0v227l657 762h-616v239h942v-211l-666 -778h680v-239h-997z" />
<glyph unicode="[" horiz-adv-x="652" d="M80 -399v2010h522v-241h-212v-1528h212v-241h-522z" />
<glyph unicode="\" horiz-adv-x="852" d="M546 0l-526 1398h283l524 -1398h-281z" />
<glyph unicode="]" horiz-adv-x="652" d="M80 -399v241h212v1528h-212v241h522v-2010h-522z" />
<glyph unicode="^" horiz-adv-x="853" d="M613 265l-191 395l-186 -395l-186 12l267 589h211l275 -589z" />
<glyph unicode="_" horiz-adv-x="678" d="M0 -248v246h678v-246h-678z" />
<glyph unicode="`" horiz-adv-x="300" d="M290 967l-151 -1q-81 186 -112 315l211 -27q-18 -140 52 -287z" />
<glyph unicode="a" horiz-adv-x="713" d="M265 236q0 -71 66 -71q33 0 81 22l2 114l-143 -20q-6 -19 -6 -45zM227 1q-90 0 -142 55t-52 141q0 130 100 199l282 28v35q0 96 -108 96q-81 0 -172 -57l-60 167q145 84 288 84t208 -55t65 -186l-5 -282q0 -53 8 -79l31 -101l-219 -45l-21 68q-113 -68 -203 -68z" />
<glyph unicode="b" horiz-adv-x="814" d="M391 564q-56 0 -94 -23v-330q36 -17 83 -17q152 0 152 196q0 174 -141 174zM499 748q125 0 203 -90t79 -266t-115 -284t-300 -108t-299 75v1153h230v-567q77 87 202 87z" />
<glyph unicode="c" horiz-adv-x="696" d="M408 0q-160 0 -268 100t-107 276q-1 176 111 274t262 98t236 -34l-45 -194q-71 32 -138 32q-173 0 -173 -184q0 -164 162 -164q100 0 165 60l66 -181h2q-113 -83 -273 -83z" />
<glyph unicode="d" horiz-adv-x="821" d="M440 565q-158 1 -158 -189t135 -190q56 0 99 25v337q-36 17 -76 17zM320 0q-115 0 -201 88t-86 268t111 286t260 106q63 0 112 -16v496h230v-1027q0 -89 15 -201h-214l-5 87q-107 -87 -222 -87z" />
<glyph unicode="e" horiz-adv-x="744" d="M482 501q0 100 -94 100q-101 0 -104 -131h198v31zM426 0q-173 0 -283 96t-110 274q-1 176 107 277t255 101t225 -82t79 -214q0 -76 -7 -110h-411l-2 -13q0 -141 172 -141q103 0 194 71l67 -150q-113 -109 -286 -109z" />
<glyph unicode="f" horiz-adv-x="571" d="M489 949q-120 0 -120 -118v-112h174v-188h-174v-531h-232v531h-117v188h117v84q1 165 93 267t224 103q57 0 112 -8v-222q-46 6 -77 6z" />
<glyph unicode="g" horiz-adv-x="793" d="M303 -19q-116 0 -194 105q-77 105 -77 278q0 174 76 280t201 106t190 -130v130h227v-727q0 -178 -110 -275q-110 -96 -263 -96q-195 0 -307 108l67 149q92 -70 195 -70q171 0 182 140v116l-15 -24q-56 -90 -172 -90zM486 430q-6 40 -32 80t-82 39q-56 0 -86.5 -50.5 t-30.5 -142.5q-1 -92 31 -143t86 -51t89 53q32 53 32 114t-7 101z" />
<glyph unicode="h" horiz-adv-x="820" d="M522 0v424q0 131 -118 131q-53 0 -104 -29v-526h-233v1228h233v-571q74 85 196 85q259 0 259 -277v-465h-233z" />
<glyph unicode="i" horiz-adv-x="426" d="M67 1037l148 148q92 -66 144 -148l-144 -148q-52 84 -148 148zM103 0v750h238v-750h-238z" />
<glyph unicode="j" horiz-adv-x="420" d="M57 1037l148 148q92 -66 144 -148l-144 -148q-52 84 -148 148zM353 -52q0 -142 -80 -240t-234 -118l-81 152q165 52 165 213v795h230v-802z" />
<glyph unicode="k" horiz-adv-x="850" d="M301 0h-234v1228h234v-766l281 283l244 -36l-295 -266q161 -189 303 -414l-250 -46q-115 188 -220 312l-63 -56v-239z" />
<glyph unicode="l" horiz-adv-x="367" d="M67 0v1228h233v-1228h-233z" />
<glyph unicode="m" horiz-adv-x="1240" d="M939 0v428q0 133 -99 133q-55 0 -101 -30v-531h-236v428q0 133 -99 133q-52 0 -102 -30v-531h-235v750h232v-85q91 85 191 85q154 0 212 -112q107 112 224 112q249 0 249 -281v-469h-236z" />
<glyph unicode="n" horiz-adv-x="822" d="M522 0v428q0 133 -115 133q-55 0 -104 -30v-531h-236v750h232v-84q91 84 195 84q263 0 263 -280v-470h-235z" />
<glyph unicode="o" horiz-adv-x="838" d="M416 188q135 0 135 190q-1 190 -133 189q-132 1 -132 -189t130 -190zM411 0q-167 0 -273 98t-105 268q0 170 111 277q112 107 282 107t274 -98t105 -270q1 -174 -113 -278t-281 -104z" />
<glyph unicode="p" horiz-adv-x="815" d="M386 573q-47 0 -89 -33v-337q30 -21 85 -21q150 0 150 196t-146 195zM429 0q-90 0 -132 17v-417h-230v1150h227v-96q74 96 206 96t208 -94q74 -94 74 -267t-108 -281t-245 -108z" />
<glyph unicode="q" horiz-adv-x="813" d="M438 566q-156 0 -156 -190t133 -190q61 0 101 25v332q-30 23 -78 23zM516 -400v460q-96 -60 -208 -60t-194 92t-81 266q0 176 110 284q109 108 283 107q174 0 320 -46v-1103h-230z" />
<glyph unicode="r" horiz-adv-x="581" d="M462 510q-101 0 -161 -64v-446h-234v750h231v-119q87 119 206 119q36 0 61 -8l-17 -246q-47 14 -86 14z" />
<glyph unicode="s" horiz-adv-x="619" d="M583 244q0 -106 -82 -175t-235 -69t-226 41l44 175q90 -42 200 -42q68 0 68 49q0 28 -48 49l-106 39q-155 63 -155 210q-1 101 89 165t212 64t206 -19l-36 -187q-83 31 -164 31t-81 -39q0 -27 49 -48q15 -6 50 -19l58 -21q157 -65 157 -204z" />
<glyph unicode="t" horiz-adv-x="593" d="M379 0q-248 0 -248 254v304h-111v191h111v191h236v-191h181v-191h-181v-249q0 -110 90 -110q38 0 84 17l30 -178q-76 -38 -192 -38z" />
<glyph unicode="u" horiz-adv-x="828" d="M309 0q-244 0 -244 270v480h233v-449q0 -100 99 -100q63 0 118 48v501h233v-554q0 -77 22 -196h-238l-9 79q-115 -79 -214 -79z" />
<glyph unicode="v" horiz-adv-x="787" d="M513 0h-247l-267 750h259l126 -394q11 -30 15 -82h15q3 32 19 82l121 394h238z" />
<glyph unicode="w" horiz-adv-x="1266" d="M1022 0h-234l-126 411q-15 52 -17 79h-20q-4 -37 -17 -79l-138 -411h-235l-219 750h245l100 -386q11 -42 14 -73h18q4 23 21 73l124 386h217l133 -386q12 -34 20 -73h19q2 31 14 73l90 386h221z" />
<glyph unicode="x" horiz-adv-x="825" d="M529 0l-143 233l-137 -233h-251l260 368l-251 382h292l128 -226l131 226h251l-257 -356l275 -394h-298z" />
<glyph unicode="y" horiz-adv-x="802" d="M560 115q-173 -444 -460 -525l-115 199q221 35 301 211h-43l-217 750h254l102 -421q10 -46 13 -75h14q7 38 20 75l148 421h230z" />
<glyph unicode="z" horiz-adv-x="732" d="M27 0v173l375 377h-360v198h648v-176l-390 -373h388l2 -199h-663z" />
<glyph unicode="{" horiz-adv-x="656" d="M480 -508q-370 0 -370 345q0 89 79 283t79 243q0 91 -188 91v274q188 0 188 94q0 49 -79 239t-79 285q0 345 370 345q67 0 126 -9v-241q-37 2 -83 2q-135 0 -135 -134q0 -56 78 -222q78 -165 77 -261t-53 -152t-202 -73v-20q151 -19 203 -74t52 -148q1 -93 -77 -263 t-78 -223q0 -134 135 -134q44 0 83 2v-240q-70 -9 -126 -9z" />
<glyph unicode="|" horiz-adv-x="304" d="M40 -217v1562h224v-1562h-224z" />
<glyph unicode="}" horiz-adv-x="656" d="M163 -261q135 0 135 134q0 53 -78 223t-77 263q0 93 52 148t203 74v20q-150 17 -202 73t-53 152q0 96 77 261q78 166 78 222q0 134 -135 134q-46 0 -83 -2v241q59 9 126 9q370 0 370 -345q0 -95 -79 -285t-79 -239q0 -94 188 -94v-274q-188 0 -188 -91q0 -49 79 -243 t79 -283q0 -345 -370 -345q-56 0 -126 9v240q39 -2 83 -2z" />
<glyph unicode="~" horiz-adv-x="774" d="M546 266q-60 0 -164 40q-103 40 -134 39q-51 0 -84 -92l-104 31q48 215 177 215q51 -1 149 -41t134 -40q54 0 79 96l115 -26q-12 -102 -60 -162t-108 -60z" />
<glyph unicode="&#xa9;" horiz-adv-x="1171" d="M608 245q-126 1 -218 77t-92 223t92 229t221 82q128 0 202 -41l-34 -144q-71 40 -160 40q-154 0 -154 -168q0 -154 162 -154q86 0 164 44l27 -149q-83 -39 -210 -39zM586 101q186 -1 311 127t125 314t-125 314t-311 128t-311 -128q-126 -128 -126 -313.5t125.5 -313.5 t311.5 -128zM1112 543q0 -221 -152 -373t-374 -152t-374 152t-152 373t152 373t374 152t374 -152t152 -373z" />
<glyph unicode="&#xbc;" horiz-adv-x="1584" d="M668 0h-184l559 1105h183zM1442 144v-144h-169v144h-286l-15 165l301 399l175 -10l-324 -419h149v150h169v-150h82v-135h-82zM60 415v152h168v394l-145 -29l-15 139l198 42h142v-546h140v-152h-488z" />
<glyph unicode="&#xbd;" horiz-adv-x="1719" d="M1130 0v139q184 121 252 191t68 138q0 94 -110 94q-81 0 -162 -35l-26 142q87 42 212 42q124 0 196 -57t72 -158q0 -182 -258 -344h285l-14 -152h-515zM668 0h-184l559 1105h183zM60 415v152h168v394l-145 -29l-15 139l198 42h142v-546h140v-152h-488z" />
<glyph unicode="&#xbe;" horiz-adv-x="1584" d="M362 1117q118 0 182 -53t65 -130q0 -102 -100 -143v-4q56 -17 90 -63t34 -116t-46 -122q-72 -77 -232 -77q-81 0 -136 20q-95 34 -159 129l133 80q64 -88 152 -88q44 0 77 20t33 62q1 42 -33 62t-85 20h-63v131h78q85 0 85 61q0 26 -20 48t-65 22q-89 0 -140 -100 l-144 58q84 183 294 183zM668 0h-184l559 1105h183zM1442 144v-144h-169v144h-286l-15 165l301 399l175 -10l-324 -419h149v150h169v-150h82v-135h-82z" />
<glyph unicode="&#x60c;" horiz-adv-x="475" d="M146 106q-27 99 36 212q29 63 110 133l105 -30q-118 -85 -153 -122q-2 -5 -2 -10q167 -58 124 -201q-58 -115 -148 -75q-58 22 -72 93z" />
<glyph unicode="&#x61b;" horiz-adv-x="402" d="M90 449q-24 89 32 190q26 56 99 119l93 -27q-106 -76 -136 -109q-2 -5 -2 -9q150 -52 110 -180q-52 -103 -131 -67q-52 20 -65 83zM45 147l148 148q92 -66 144 -148l-144 -148q-52 84 -148 148z" />
<glyph unicode="&#x61f;" horiz-adv-x="520" d="M196 147l148 148q92 -66 144 -148l-144 -148q-52 84 -148 148zM165 862q1 -54 119 -164t128 -126l-66 -205q-14 48 -89 112q-15 13 -61 50t-66 57q-63 59 -84 146t2 172q22 86 86 140t154 54t146 -69q31 -37 64 -116q0 -4 -36 -152l-13 22q-74 113 -187 113 q-39 0 -68 -10t-29 -24z" />
<glyph unicode="&#x640;" horiz-adv-x="349" d="M-4 0v260h356v-260h-356z" />
<glyph unicode="&#x649;" horiz-adv-x="1043" d="M211 192q18 -136 124 -190q66 -32 158 -26q202 30 262 106q-292 168 -276 248q66 406 522 420l-112 -228q-146 -16 -204 -84q-2 -26 70 -78q194 -112 218 -192q32 -96 -104 -266q-140 -146 -348 -174q-142 -18 -280 52q-228 112 -202 310q4 32 34 112t42 124l94 72 q-8 -40 2 -206z" />
<glyph unicode="&#xffef;" horiz-adv-x="1043" d="M211 192q18 -136 124 -190q66 -32 158 -26q202 30 262 106q-292 168 -276 248q66 406 522 420l-112 -228q-146 -16 -204 -84q-2 -26 70 -78q194 -112 218 -192q32 -96 -104 -266q-140 -146 -348 -174q-142 -18 -280 52q-228 112 -202 310q4 32 34 112t42 124l94 72 q-8 -40 2 -206z" />
<glyph unicode="&#x64c;" d="M77 220q20 33 19 70t-38 38q-28 -2 -39 -26q-22 -43 58 -82zM-47 68q50 12 90 51q3 9 3 10q-160 88 -89 227q78 109 163 53q53 -34 60 -113t-68 -194q-35 -54 -77.5 -89t-78 -37.5t-54.5 10.5q-16 13 -22 41q-8 29 -14 43q-13 30 -54 -1t-48 -35h-1l25 89q7 15 34 35 q73 55 91 -34q2 -4 12 -29q11 -25 28 -27z" />
<glyph unicode="&#x660;" horiz-adv-x="561" d="M290 187l-240 240l221 220l240 -240z" />
<glyph unicode="&#x661;" horiz-adv-x="500" d="M259 -215q-7 271 -67 562t-153 541l233 382q134 -356 160 -610t-19 -733z" />
<glyph unicode="&#x662;" horiz-adv-x="808" d="M194 1242q8 0 59 -115q70 -160 214 -160q106 0 221 247l69 21q0 -178 -57 -395q-40 -147 -102 -204t-134 -57q98 -228 98 -502q0 -96 -10 -192l-100 -112q-36 297 -201 653q-69 149 -178 356q3 36 47 211l12 46q54 203 62 203z" />
<glyph unicode="&#x663;" horiz-adv-x="835" d="M342 995q78 0 99 113q14 71 15 77l56 15q-4 -95 15 -166q15 -47 76 -47q70 0 103 140q2 9 10 49t10 49l54 15q2 -12 2 -184t-35 -296q-49 -173 -129 -170q-29 0 -77 30q-70 -57 -99 -63q81 -242 81 -502q0 -68 -8 -161l-138 -123l-3 25q-28 242 -130 536t-204 469 l143 441q8 -20 29 -84t33 -90q35 -73 97 -73z" />
<glyph unicode="&#x664;" horiz-adv-x="826" d="M348 743q0 -19 100 -90q21 -16 23 -30l7 -60q-21 -68 -77 -174t-57 -147q0 -56 165 -74t258 -12l14 -39q-102 -190 -173 -282l-59 -38q-36 -7 -157 -9t-205 56q-85 58 -83 144t68 219t66 151q1 23 -87 88q-87 64 -86 136t63 188t150 221q148 161 242 201t93 38l-42 -281 q-95 -53 -159 -113t-64 -93z" />
<glyph unicode="&#x665;" horiz-adv-x="759" d="M306 -65q-153 0 -206 93q-35 64 -35 209q0 253 109 494q137 299 264 299q110 0 202 -238t93 -444q0 -208 -69 -292q-37 -47 -144 -84t-214 -37zM418 699q-49 0 -114 -130t-65 -214q1 -83 25 -109t94 -26t136 22t67 57q-1 109 -45 255t-98 145z" />
<glyph unicode="&#x666;" horiz-adv-x="753" d="M506 -221q-71 154 -87 568q-5 103 -26 252l-18 222q-147 -36 -358 30l-7 353q5 -5 75 -31q71 -25 167 -21t160 22t78 18q72 3 76 -101q1 -6 4 -67t7 -122q48 -513 152 -912zM10 1204q-1 1 0 1v-1z" />
<glyph unicode="&#x667;" horiz-adv-x="852" d="M384 -213q-103 417 -157 554t-226 422l112 479q21 0 113 -233t191 -622q36 153 130 478q43 125 101 251t80 126l81 -479q-83 -135 -117 -201q-117 -229 -189 -653z" />
<glyph unicode="&#x668;" horiz-adv-x="835" d="M473 1241q20 -75 71 -281q50 -206 110 -359q60 -154 158 -313l-138 -521q-34 31 -58 93t-78 318t-125 601q-59 -348 -108 -566q-103 -446 -136 -446l-157 440q78 122 164 336t129 424q14 66 26 125z" />
<glyph unicode="&#x669;" horiz-adv-x="721" d="M399 685q-10 190 -95 186q-48 -3 -84 -54t-34 -93q3 -62 92 -57t121 18zM353 1241q75 7 157 -112q45 -81 59 -233l12 -248q15 -279 124 -659l-224 -206q-51 147 -59 299t1 390q-27 -68 -85 -104t-122 -39q-164 -8 -174 194q-13 253 136 537q88 172 175 181z" />
<glyph unicode="&#x66b;" horiz-adv-x="295" d="M62 162l211 27q-31 -129 -112 -315l-151 1q70 147 52 287z" />
<glyph unicode="&#x66c;" horiz-adv-x="295" d="M62 162l211 27q-31 -129 -112 -315l-151 1q70 147 52 287z" />
<glyph unicode="&#x6d4;" horiz-adv-x="592" d="M150 147l148 148q92 -66 144 -148l-144 -148q-52 84 -148 148z" />
<glyph unicode="&#x2000;" horiz-adv-x="957" />
<glyph unicode="&#x2001;" horiz-adv-x="1914" />
<glyph unicode="&#x2002;" horiz-adv-x="957" />
<glyph unicode="&#x2003;" horiz-adv-x="1914" />
<glyph unicode="&#x2004;" horiz-adv-x="638" />
<glyph unicode="&#x2005;" horiz-adv-x="478" />
<glyph unicode="&#x2006;" horiz-adv-x="319" />
<glyph unicode="&#x2007;" horiz-adv-x="319" />
<glyph unicode="&#x2008;" horiz-adv-x="239" />
<glyph unicode="&#x2009;" horiz-adv-x="382" />
<glyph unicode="&#x200a;" horiz-adv-x="106" />
<glyph unicode="&#x2010;" horiz-adv-x="837" d="M80 431v246h678v-246h-678z" />
<glyph unicode="&#x2011;" horiz-adv-x="837" d="M80 431v246h678v-246h-678z" />
<glyph unicode="&#x2012;" horiz-adv-x="837" d="M80 431v246h678v-246h-678z" />
<glyph unicode="&#x2013;" horiz-adv-x="1183" d="M80 431v246h1024v-246h-1024z" />
<glyph unicode="&#x2014;" horiz-adv-x="2207" d="M80 431v246h2048v-246h-2048z" />
<glyph unicode="&#x201c;" horiz-adv-x="529" d="M35 1410l202 48q12 -234 -8 -570l-152 2q22 266 -42 520zM289 1410l202 48q12 -234 -8 -570l-152 2q22 266 -42 520z" />
<glyph unicode="&#x201d;" horiz-adv-x="529" d="M35 1410l202 48q12 -234 -8 -570l-152 2q22 266 -42 520zM289 1410l202 48q12 -234 -8 -570l-152 2q22 266 -42 520z" />
<glyph unicode="&#x202f;" horiz-adv-x="382" />
<glyph unicode="&#x205f;" horiz-adv-x="478" />
<glyph />
<glyph horiz-adv-x="1632" d="M456 -44l511 1354l201 -20l-512 -1354zM217 803q-1 -142 39 -199t94 -57q54 1 92 63t38 193t-38 193t-92 63q-54 0 -94 -57t-39 -199zM45 803q0 217 90 321q89 104 213 104t214 -104t90 -321t-90 -321t-214 -104t-213 104q-90 104 -90 321zM1152 403q0 -142 39 -199 t94 -57q55 1 93 63t37 193q1 131 -37 193t-93 63q-55 0 -94 -57t-39 -199zM980 403q0 218 97 331q83 94 206 94t213 -104t91 -321q-1 -217 -91 -321t-213 -104t-206 94q-97 113 -97 331z" />
<glyph horiz-adv-x="1370" d="M556 -580l144 -148q-52 -82 -144 -146l-113 111q-48 -61 -123 -111l-144 146q92 66 144 148l122 -122q70 56 114 122zM958 560q0 -22 12 -40q38 -72 188 -58q-2 24 -6 74t-39 116t-103 28q-52 -28 -52 -120zM1106 1166q-54 -84 -148 -148l-148 148q96 64 148 146z M676 -114q0 104 -144 162q10 74 38 248q112 -40 228 -36h60q218 16 218 26q-306 16 -276 322q8 98 89 195t177 93q160 -8 220 -176q86 -238 54 -502q-10 -72 -44 -200q-210 -26 -430 -18l-50 -2q70 -98 -34 -300q-154 -190 -382 -178q-390 18 -358 368q16 168 124 388 l132 86q-60 -204 -78 -252q-70 -238 76 -318q74 -36 227 -5t153 99z" />
<glyph horiz-adv-x="1370" d="M958 560q0 -22 12 -40q38 -72 188 -58q-2 24 -6 74t-39 116t-103 28q-52 -28 -52 -120zM1106 1166q-54 -84 -148 -148l-148 148q96 64 148 146zM676 -114q0 104 -144 162q10 74 38 248q112 -40 228 -36h60q218 16 218 26q-306 16 -276 322q8 98 89 195t177 93 q160 -8 220 -176q86 -238 54 -502q-10 -72 -44 -200q-210 -26 -430 -18l-50 -2q70 -98 -34 -300q-154 -190 -382 -178q-390 18 -358 368q16 168 124 388l132 86q-60 -204 -78 -252q-70 -238 76 -318q74 -36 227 -5t153 99z" />
<glyph horiz-adv-x="1358" d="M1252 0h-202l-194 -8q70 -98 -34 -300q-154 -190 -382 -178q-390 18 -358 368q16 168 124 388l132 86q-60 -204 -78 -252q-70 -238 76 -318q74 -36 227 -5t153 99q0 104 -144 162q10 74 38 248q132 -74 412 -34q-2 228 -94 878l290 90l50 -168l-38 -112q20 -320 22 -688 v-256zM596 -580l144 -148q-52 -82 -144 -146l-113 111q-48 -61 -123 -111l-144 146q92 66 144 148l122 -122q70 56 114 122z" />
<glyph horiz-adv-x="1352" d="M716 -114q0 104 -144 162q10 74 38 248q132 -74 422 -36q-2 228 -96 876l290 90l52 -166l-40 -114q20 -320 22 -686h112v-260h-50q-32 28 -62 66v-66h-202l-202 -2q70 -98 -34 -300q-154 -190 -382 -178q-390 18 -358 368q16 168 124 388l132 86q-60 -204 -78 -252 q-70 -238 76 -318q74 -36 227 -5t153 99zM596 -580l144 -148q-52 -82 -144 -146l-113 111q-48 -61 -123 -111l-144 146q92 66 144 148l122 -122q70 56 114 122z" />
<glyph horiz-adv-x="1358" d="M1252 0h-202l-194 -8q70 -98 -34 -300q-154 -190 -382 -178q-390 18 -358 368q16 168 124 388l132 86q-60 -204 -78 -252q-70 -238 76 -318q74 -36 227 -5t153 99q0 104 -144 162q10 74 38 248q132 -74 412 -34q-2 228 -94 878l290 90l50 -168l-38 -112q20 -320 22 -688 v-256z" />
<glyph horiz-adv-x="1352" d="M716 -114q0 104 -144 162q10 74 38 248q132 -74 422 -36q-2 228 -96 876l290 90l52 -166l-40 -114q20 -320 22 -686h112v-260h-50q-32 28 -62 66v-66h-202l-202 -2q70 -98 -34 -300q-154 -190 -382 -178q-390 18 -358 368q16 168 124 388l132 86q-60 -204 -78 -252 q-70 -238 76 -318q74 -36 227 -5t153 99z" />
<glyph horiz-adv-x="1639" d="M540 -520l146 -144q-54 -86 -146 -148l-112 112q-48 -64 -122 -112l-146 148q92 62 146 144l121 -120q71 54 113 120zM1312 470q-6 -102 -74 -184q30 -20 92 -33t68 5q14 60 -86 212zM1016 456q-6 -16 102 -128q42 28 53 91t-25 101q-116 8 -130 -64zM706 -68 q0 104 -134 160q10 78 38 250q170 -74 288 -36q-40 64 -48 114q-10 138 110 238t246 60q-18 28 -46 52l126 166q296 -308 302 -618q2 -190 -76 -318q-290 -8 -436 80q-140 -48 -266 -34q86 -106 -12 -294q-130 -200 -358 -186q-390 20 -358 370q16 164 124 384l132 90 q-60 -204 -78 -254q-70 -236 76 -316q74 -40 222 -9t148 101z" />
<glyph horiz-adv-x="1639" d="M1312 470q-6 -102 -74 -184q30 -20 92 -33t68 5q14 60 -86 212zM1016 456q-6 -16 102 -128q42 28 53 91t-25 101q-116 8 -130 -64zM706 -68q0 104 -134 160q10 78 38 250q170 -74 288 -36q-40 64 -48 114q-10 138 110 238t246 60q-18 28 -46 52l126 166 q296 -308 302 -618q2 -190 -76 -318q-290 -8 -436 80q-140 -48 -266 -34q86 -106 -12 -294q-130 -200 -358 -186q-390 20 -358 370q16 164 124 384l132 90q-60 -204 -78 -254q-70 -236 76 -316q74 -40 222 -9t148 101z" />
<glyph horiz-adv-x="1088" d="M828 -62l144 -146q-52 -84 -144 -146l-148 146q96 64 148 146zM1098 260v-260h-52q-34 30 -64 70q0 -8 -4 -70h-376q-32 26 -60 60q-6 -112 -22 -164q-50 -158 -132 -278h-378q306 250 368 434q0 -4 -170 424l270 84q52 -202 64 -300h238q-10 140 -114 372l290 90 q30 -244 32 -462h110z" />
<glyph horiz-adv-x="1088" d="M1098 260v-260h-52q-34 30 -64 70q0 -8 -4 -70h-376q-32 26 -60 60q-6 -112 -22 -164q-50 -158 -132 -278h-378q306 250 368 434q0 -4 -170 424l270 84q52 -202 64 -300h238q-10 140 -114 372l290 90q30 -244 32 -462h110zM836 1070l146 -144q-52 -86 -146 -148l-112 113 q-48 -64 -122 -113l-146 148q94 62 146 144l121 -120q69 54 113 120z" />
<glyph horiz-adv-x="1088" d="M1098 260v-260h-52q-34 30 -64 70q0 -8 -4 -70h-376q-32 26 -60 60q-6 -112 -22 -164q-50 -158 -132 -278h-378q306 250 368 434q0 -4 -170 424l270 84q52 -202 64 -300h238q-10 140 -114 372l290 90q30 -244 32 -462h110zM787 1298l144 -146q-52 -84 -144 -146l-148 146 q96 64 148 146zM905 1070l146 -144q-52 -86 -146 -148l-112 113q-48 -64 -122 -113l-146 148q94 62 146 144l121 -120q69 54 113 120z" />
<glyph horiz-adv-x="1088" d="M1098 260v-260h-52q-34 30 -64 70q0 -8 -4 -70h-376q-32 26 -60 60q-6 -112 -22 -164q-50 -158 -132 -278h-378q306 250 368 434q0 -4 -170 424l270 84q52 -202 64 -300h238q-10 140 -114 372l290 90q30 -244 32 -462h110zM716 1120l144 -148q-52 -82 -144 -146l-148 146 q94 66 148 148z" />
<glyph horiz-adv-x="1088" d="M940 -58l144 -144q-52 -86 -144 -148l-112 112q-48 -64 -124 -112l-144 148q92 62 144 144l123 -120q71 54 113 120zM1098 260v-260h-52q-34 30 -64 70q0 -8 -4 -70h-376q-32 26 -60 60q-6 -112 -22 -164q-50 -158 -132 -278h-378q306 250 368 434q0 -4 -170 424l270 84 q52 -202 64 -300h238q-10 140 -114 372l290 90q30 -244 32 -462h110z" />
<glyph horiz-adv-x="1088" d="M609 757q31 31 50 47q-45 34 -55.5 89t-2.5 93q18 99 113.5 127.5t179.5 -28.5l-65 -63q-39 9 -68 3q-69 -13 -52 -98q8 -43 65 -63q118 50 176 67l25 -125q-99 -19 -348 -139zM1098 260v-260h-52q-34 30 -64 70q0 -8 -4 -70h-376q-32 26 -60 60q-6 -112 -22 -164 q-50 -158 -132 -278h-378q306 250 368 434q0 -4 -170 424l270 84q52 -202 64 -300h238q-10 140 -114 372l290 90q30 -244 32 -462h110z" />
<glyph horiz-adv-x="1088" d="M1098 260v-260h-52q-34 30 -64 70q0 -8 -4 -70h-376q-32 26 -60 60q-6 -112 -22 -164q-50 -158 -132 -278h-378q306 250 368 434q0 -4 -170 424l270 84q52 -202 64 -300h238q-10 140 -114 372l290 90q30 -244 32 -462h110zM180 942l148 -144q-52 -86 -148 -148l-144 148 q92 62 144 144zM828 -62l144 -146q-52 -84 -144 -146l-148 146q96 64 148 146z" />
<glyph horiz-adv-x="1088" d="M1098 260v-260h-52q-34 30 -64 70q0 -8 -4 -70h-376q-32 26 -60 60q-6 -112 -22 -164q-50 -158 -132 -278h-378q306 250 368 434q0 -4 -170 424l270 84q52 -202 64 -300h238q-10 140 -114 372l290 90q30 -244 32 -462h110zM836 1070l146 -144q-52 -86 -146 -148l-112 113 q-48 -64 -122 -113l-146 148q94 62 146 144l121 -120q69 54 113 120zM180 942l148 -144q-52 -86 -148 -148l-144 148q92 62 144 144z" />
<glyph horiz-adv-x="1088" d="M1098 260v-260h-52q-34 30 -64 70q0 -8 -4 -70h-376q-32 26 -60 60q-6 -112 -22 -164q-50 -158 -132 -278h-378q306 250 368 434q0 -4 -170 424l270 84q52 -202 64 -300h238q-10 140 -114 372l290 90q30 -244 32 -462h110zM718 1298l144 -146q-52 -84 -144 -146l-148 146 q96 64 148 146zM836 1070l146 -144q-52 -86 -146 -148l-112 113q-48 -64 -122 -113l-146 148q94 62 146 144l121 -120q69 54 113 120zM180 942l148 -144q-52 -86 -148 -148l-144 148q92 62 144 144z" />
<glyph horiz-adv-x="1088" d="M1098 260v-260h-52q-34 30 -64 70q0 -8 -4 -70h-376q-32 26 -60 60q-6 -112 -22 -164q-50 -158 -132 -278h-378q306 250 368 434q0 -4 -170 424l270 84q52 -202 64 -300h238q-10 140 -114 372l290 90q30 -244 32 -462h110zM180 942l148 -144q-52 -86 -148 -148l-144 148 q92 62 144 144zM716 1120l144 -148q-52 -82 -144 -146l-148 146q94 66 148 148z" />
<glyph horiz-adv-x="1088" d="M180 942l148 -144q-52 -86 -148 -148l-144 148q92 62 144 144zM940 -58l144 -144q-52 -86 -144 -148l-112 112q-48 -64 -124 -112l-144 148q92 62 144 144l123 -120q71 54 113 120zM1098 260v-260h-52q-34 30 -64 70q0 -8 -4 -70h-376q-32 26 -60 60q-6 -112 -22 -164 q-50 -158 -132 -278h-378q306 250 368 434q0 -4 -170 424l270 84q52 -202 64 -300h238q-10 140 -114 372l290 90q30 -244 32 -462h110z" />
<glyph horiz-adv-x="1088" d="M609 757q31 31 50 47q-45 34 -55.5 89t-2.5 93q18 99 113.5 127.5t179.5 -28.5l-65 -63q-39 9 -68 3q-69 -13 -52 -98q8 -43 65 -63q118 50 176 67l25 -125q-99 -19 -348 -139zM1098 260v-260h-52q-34 30 -64 70q0 -8 -4 -70h-376q-32 26 -60 60q-6 -112 -22 -164 q-50 -158 -132 -278h-378q306 250 368 434q0 -4 -170 424l270 84q52 -202 64 -300h238q-10 140 -114 372l290 90q30 -244 32 -462h110zM180 942l148 -144q-52 -86 -148 -148l-144 148q92 62 144 144z" />
<glyph horiz-adv-x="1432" d="M433 779l146 -148q-52 -82 -146 -148l-148 148q94 66 148 148zM1158 -62l148 -146q-54 -84 -148 -146l-146 146q94 64 146 146zM1442 260v-260h-52q-32 28 -62 70q0 -8 -6 -70h-382q-32 30 -62 72q-22 -146 -128 -270q-134 -126 -318 -134q-124 0 -236 80 q-186 138 -140 332q50 162 64 206l116 82q-10 -42 -20 -206q0 -136 86 -200q54 -40 136 -46q278 16 264 174q-20 226 -86 406l250 76q30 -152 26 -312h234q-10 140 -116 372l290 90q30 -244 32 -462h110z" />
<glyph horiz-adv-x="1432" d="M1442 260v-260h-52q-32 28 -62 70q0 -8 -6 -70h-382q-32 30 -62 72q-22 -146 -128 -270q-134 -126 -318 -134q-124 0 -236 80q-186 138 -140 332q50 162 64 206l116 82q-10 -42 -20 -206q0 -136 86 -200q54 -40 136 -46q278 16 264 174q-20 226 -86 406l250 76 q30 -152 26 -312h234q-10 140 -116 372l290 90q30 -244 32 -462h110zM1180 1070l148 -144q-52 -86 -148 -148l-111 114q-48 -65 -121 -114l-148 148q96 62 148 144l121 -121q69 54 111 121zM436 888l146 -148q-52 -82 -146 -148l-148 148q94 66 148 148z" />
<glyph horiz-adv-x="1432" d="M433 779l146 -148q-52 -82 -146 -148l-148 148q94 66 148 148zM1442 260v-260h-52q-32 28 -62 70q0 -8 -6 -70h-382q-32 30 -62 72q-22 -146 -128 -270q-134 -126 -318 -134q-124 0 -236 80q-186 138 -140 332q50 162 64 206l116 82q-10 -42 -20 -206q0 -136 86 -200 q54 -40 136 -46q278 16 264 174q-20 226 -86 406l250 76q30 -152 26 -312h234q-10 140 -116 372l290 90q30 -244 32 -462h110zM1062 1298l146 -146q-52 -84 -146 -146l-146 146q94 64 146 146zM1180 1070l148 -144q-52 -86 -148 -148l-111 114q-48 -65 -121 -114l-148 148 q96 62 148 144l121 -121q69 54 111 121z" />
<glyph horiz-adv-x="1432" d="M433 779l146 -148q-52 -82 -146 -148l-148 148q94 66 148 148zM1442 260v-260h-52q-32 28 -62 70q0 -8 -6 -70h-382q-32 30 -62 72q-22 -146 -128 -270q-134 -126 -318 -134q-124 0 -236 80q-186 138 -140 332q50 162 64 206l116 82q-10 -42 -20 -206q0 -136 86 -200 q54 -40 136 -46q278 16 264 174q-20 226 -86 406l250 76q30 -152 26 -312h234q-10 140 -116 372l290 90q30 -244 32 -462h110zM1056 1120l146 -148q-52 -82 -146 -146l-146 146q92 66 146 148z" />
<glyph horiz-adv-x="1432" d="M1273 -58l146 -144q-52 -86 -146 -148l-111 112q-49 -64 -123 -112l-146 148q94 62 146 144l123 -119q69 53 111 119zM433 779l146 -148q-52 -82 -146 -148l-148 148q94 66 148 148zM1442 260v-260h-52q-32 28 -62 70q0 -8 -6 -70h-382q-32 30 -62 72q-22 -146 -128 -270 q-134 -126 -318 -134q-124 0 -236 80q-186 138 -140 332q50 162 64 206l116 82q-10 -42 -20 -206q0 -136 86 -200q54 -40 136 -46q278 16 264 174q-20 226 -86 406l250 76q30 -152 26 -312h234q-10 140 -116 372l290 90q30 -244 32 -462h110z" />
<glyph horiz-adv-x="1432" d="M433 779l146 -148q-52 -82 -146 -148l-148 148q94 66 148 148zM958 762q31 31 50 47q-45 34 -55.5 89t-2.5 93q18 99 113.5 127.5t179.5 -28.5l-65 -63q-39 9 -68 3q-69 -13 -52 -98q8 -43 65 -63q118 50 176 67l25 -125q-99 -19 -348 -139zM1442 260v-260h-52 q-32 28 -62 70q0 -8 -6 -70h-382q-32 30 -62 72q-22 -146 -128 -270q-134 -126 -318 -134q-124 0 -236 80q-186 138 -140 332q50 162 64 206l116 82q-10 -42 -20 -206q0 -136 86 -200q54 -40 136 -46q278 16 264 174q-20 226 -86 406l250 76q30 -152 26 -312h234 q-10 140 -116 372l290 90q30 -244 32 -462h110z" />
<glyph horiz-adv-x="1242" d="M1046 -152l146 -146q-52 -84 -146 -146l-146 146q92 64 146 146zM716 -114q0 104 -144 162q10 74 38 248q132 -74 298 -36q-8 138 -116 372l290 94q48 -386 24 -726h-200l-50 -2q70 -98 -34 -300q-154 -190 -382 -178q-390 18 -358 368q16 168 124 388l132 86 q-60 -204 -78 -252q-70 -238 76 -318q74 -36 227 -5t153 99zM596 -580l144 -148q-52 -82 -144 -146l-113 111q-48 -61 -123 -111l-144 146q92 66 144 148l122 -122q70 56 114 122z" />
<glyph horiz-adv-x="1180" d="M982 1070l148 -144q-52 -86 -148 -148l-110 113q-49 -64 -122 -113l-148 148q96 62 148 144l121 -120q69 54 111 120zM716 -114q0 104 -144 162q10 74 38 248q132 -74 298 -36q-8 138 -116 372l290 94q48 -386 24 -726h-200l-50 -2q70 -98 -34 -300q-154 -190 -382 -178 q-390 18 -358 368q16 168 124 388l132 86q-60 -204 -78 -252q-70 -238 76 -318q74 -36 227 -5t153 99zM596 -580l144 -148q-52 -82 -144 -146l-113 111q-48 -61 -123 -111l-144 146q92 66 144 148l122 -122q70 56 114 122z" />
<glyph horiz-adv-x="1180" d="M866 1298l144 -146q-52 -84 -144 -146l-148 146q94 64 148 146zM982 1070l148 -144q-52 -86 -148 -148l-110 113q-49 -64 -122 -113l-148 148q96 62 148 144l121 -120q69 54 111 120zM716 -114q0 104 -144 162q10 74 38 248q132 -74 298 -36q-8 138 -116 372l290 94 q48 -386 24 -726h-200l-50 -2q70 -98 -34 -300q-154 -190 -382 -178q-390 18 -358 368q16 168 124 388l132 86q-60 -204 -78 -252q-70 -238 76 -318q74 -36 227 -5t153 99zM596 -580l144 -148q-52 -82 -144 -146l-113 111q-48 -61 -123 -111l-144 146q92 66 144 148 l122 -122q70 56 114 122z" />
<glyph horiz-adv-x="1172" d="M862 1120l148 -148q-52 -82 -148 -146l-144 146q92 66 144 148zM716 -114q0 104 -144 162q10 74 38 248q132 -74 298 -36q-8 138 -116 372l290 94q48 -386 24 -726h-200l-50 -2q70 -98 -34 -300q-154 -190 -382 -178q-390 18 -358 368q16 168 124 388l132 86 q-60 -204 -78 -252q-70 -238 76 -318q74 -36 227 -5t153 99zM596 -580l144 -148q-52 -82 -144 -146l-113 111q-48 -61 -123 -111l-144 146q92 66 144 148l122 -122q70 56 114 122z" />
<glyph horiz-adv-x="1320" d="M596 -580l144 -148q-52 -82 -144 -146l-113 111q-48 -61 -123 -111l-144 146q92 66 144 148l122 -122q70 56 114 122zM1122 -334l148 -146q-52 -84 -148 -148l-110 114q-49 -63 -122 -114l-148 148q96 62 148 146l122 -122q68 54 110 122zM716 -114q0 104 -144 162 q10 74 38 248q132 -74 298 -36q-8 138 -116 372l290 94q48 -386 24 -726h-200l-50 -2q70 -98 -34 -300q-154 -190 -382 -178q-390 18 -358 368q16 168 124 388l132 86q-60 -204 -78 -252q-70 -238 76 -318q74 -36 227 -5t153 99z" />
<glyph horiz-adv-x="1172" d="M742 1002q0 56 16 90q38 96 135 106t173 -62l-78 -50q-38 14 -68 14q-68 0 -68 -84q0 -46 54 -76q122 28 184 32v-126q-102 0 -368 -70v92q36 22 58 34q-38 44 -38 100zM716 -114q0 104 -144 162q10 74 38 248q132 -74 298 -36q-8 138 -116 372l290 94q48 -386 24 -726 h-200l-50 -2q70 -98 -34 -300q-154 -190 -382 -178q-390 18 -358 368q16 168 124 388l132 86q-60 -204 -78 -252q-70 -238 76 -318q74 -36 227 -5t153 99zM596 -580l144 -148q-52 -82 -144 -146l-113 111q-48 -61 -123 -111l-144 146q92 66 144 148l122 -122q70 56 114 122z " />
<glyph horiz-adv-x="1242" d="M1046 -152l146 -146q-52 -84 -146 -146l-146 146q92 64 146 146zM716 -114q0 104 -144 162q10 74 38 248q132 -74 298 -36q-8 138 -116 372l290 94q48 -386 24 -726h-200l-50 -2q70 -98 -34 -300q-154 -190 -382 -178q-390 18 -358 368q16 168 124 388l132 86 q-60 -204 -78 -252q-70 -238 76 -318q74 -36 227 -5t153 99z" />
<glyph horiz-adv-x="1180" d="M982 1070l148 -144q-52 -86 -148 -148l-110 113q-49 -64 -122 -113l-148 148q96 62 148 144l121 -120q69 54 111 120zM716 -114q0 104 -144 162q10 74 38 248q132 -74 298 -36q-8 138 -116 372l290 94q48 -386 24 -726h-200l-50 -2q70 -98 -34 -300q-154 -190 -382 -178 q-390 18 -358 368q16 168 124 388l132 86q-60 -204 -78 -252q-70 -238 76 -318q74 -36 227 -5t153 99z" />
<glyph horiz-adv-x="1180" d="M866 1298l144 -146q-52 -84 -144 -146l-148 146q94 64 148 146zM982 1070l148 -144q-52 -86 -148 -148l-110 113q-49 -64 -122 -113l-148 148q96 62 148 144l121 -120q69 54 111 120zM716 -114q0 104 -144 162q10 74 38 248q132 -74 298 -36q-8 138 -116 372l290 94 q48 -386 24 -726h-200l-50 -2q70 -98 -34 -300q-154 -190 -382 -178q-390 18 -358 368q16 168 124 388l132 86q-60 -204 -78 -252q-70 -238 76 -318q74 -36 227 -5t153 99z" />
<glyph horiz-adv-x="1172" d="M862 1120l148 -148q-52 -82 -148 -146l-144 146q92 66 144 148zM716 -114q0 104 -144 162q10 74 38 248q132 -74 298 -36q-8 138 -116 372l290 94q48 -386 24 -726h-200l-50 -2q70 -98 -34 -300q-154 -190 -382 -178q-390 18 -358 368q16 168 124 388l132 86 q-60 -204 -78 -252q-70 -238 76 -318q74 -36 227 -5t153 99z" />
<glyph horiz-adv-x="1320" d="M1122 -334l148 -146q-52 -84 -148 -148l-110 114q-49 -63 -122 -114l-148 148q96 62 148 146l122 -122q68 54 110 122zM716 -114q0 104 -144 162q10 74 38 248q132 -74 298 -36q-8 138 -116 372l290 94q48 -386 24 -726h-200l-50 -2q70 -98 -34 -300q-154 -190 -382 -178 q-390 18 -358 368q16 168 124 388l132 86q-60 -204 -78 -252q-70 -238 76 -318q74 -36 227 -5t153 99z" />
<glyph horiz-adv-x="1172" d="M742 1002q0 56 16 90q38 96 135 106t173 -62l-78 -50q-38 14 -68 14q-68 0 -68 -84q0 -46 54 -76q122 28 184 32v-126q-102 0 -368 -70v92q36 22 58 34q-38 44 -38 100zM716 -114q0 104 -144 162q10 74 38 248q132 -74 298 -36q-8 138 -116 372l290 94q48 -386 24 -726 h-200l-50 -2q70 -98 -34 -300q-154 -190 -382 -178q-390 18 -358 368q16 168 124 388l132 86q-60 -204 -78 -252q-70 -238 76 -318q74 -36 227 -5t153 99z" />
<glyph horiz-adv-x="2021" d="M1668 0q-92 0 -158 88q8 -88 -4 -88h-190q-128 0 -294 88q-100 -88 -166 -90q70 -98 -34 -300q-154 -190 -382 -178q-390 18 -358 368q16 168 124 388l132 86q-60 -204 -78 -252q-70 -238 76 -318q74 -36 227 -5t153 99q0 104 -144 162q10 74 38 248q132 -74 298 -36 q10 40 -8 170l212 78q4 -28 -16 -248h206q0 78 -66 250l270 78q4 -36 4 -328q92 -12 228 0q-6 80 -51 220t-51 190l290 92q54 -430 26 -762h-284zM596 -580l144 -148q-52 -82 -144 -146l-113 111q-48 -61 -123 -111l-144 146q92 66 144 148l122 -122q70 56 114 122z" />
<glyph horiz-adv-x="2021" d="M1668 0q-92 0 -158 88q8 -88 -4 -88h-190q-128 0 -294 88q-100 -88 -166 -90q70 -98 -34 -300q-154 -190 -382 -178q-390 18 -358 368q16 168 124 388l132 86q-60 -204 -78 -252q-70 -238 76 -318q74 -36 227 -5t153 99q0 104 -144 162q10 74 38 248q132 -74 298 -36 q10 40 -8 170l212 78q4 -28 -16 -248h206q0 78 -66 250l270 78q4 -36 4 -328q92 -12 228 0q-6 80 -51 220t-51 190l290 92q54 -430 26 -762h-284zM596 -580l144 -148q-52 -82 -144 -146l-113 111q-48 -61 -123 -111l-144 146q92 66 144 148l122 -122q70 56 114 122z M1440 1348l148 -148q-52 -84 -148 -148l-144 148q92 62 144 148zM1552 1120l148 -148q-52 -82 -148 -146l-103 104q-47 -57 -117 -104l-146 146q94 66 146 148l117 -117q63 54 103 117z" />
<glyph horiz-adv-x="1915" d="M716 -114q0 104 -144 162q10 74 38 248q108 -74 182 -26q30 20 14 158l210 72q12 -74 -14 -238l20 -4q70 182 210 322q188 200 416 158q144 -26 190 -218h2q38 -198 -40 -520q-412 -48 -792 6q-16 -44 -24 -65t-8 -41l-46 52q8 40 20 68q-42 -28 -94 -22q70 -98 -34 -300 q-154 -190 -382 -178q-390 18 -358 368q16 168 124 388l132 86q-60 -204 -78 -252q-70 -238 76 -318q74 -36 227 -5t153 99zM1462 496q-210 0 -342 -246q362 -44 520 0q0 246 -178 246zM596 -580l144 -148q-52 -82 -144 -146l-113 111q-48 -61 -123 -111l-144 146 q92 66 144 148l122 -122q70 56 114 122z" />
<glyph horiz-adv-x="1915" d="M1330 1216l148 -146q-52 -84 -148 -148l-148 148q96 62 148 146zM716 -114q0 104 -144 162q10 74 38 248q108 -74 182 -26q30 20 14 158l210 72q12 -74 -14 -238l20 -4q70 182 210 322q188 200 416 158q144 -26 190 -218h2q38 -198 -40 -520q-412 -48 -792 6 q-16 -44 -24 -65t-8 -41l-46 52q8 40 20 68q-42 -28 -94 -22q70 -98 -34 -300q-154 -190 -382 -178q-390 18 -358 368q16 168 124 388l132 86q-60 -204 -78 -252q-70 -238 76 -318q74 -36 227 -5t153 99zM1462 496q-210 0 -342 -246q362 -44 520 0q0 246 -178 246zM596 -580 l144 -148q-52 -82 -144 -146l-113 111q-48 -61 -123 -111l-144 146q92 66 144 148l122 -122q70 56 114 122z" />
<glyph horiz-adv-x="2050" d="M596 -580l144 -148q-52 -82 -144 -146l-113 111q-48 -61 -123 -111l-144 146q92 66 144 148l122 -122q70 56 114 122zM1302 260q0 78 -66 250l270 78q4 -36 4 -328q92 -12 228 0q-6 80 -51 220t-51 190l290 92q22 -186 34 -382q0 -40 2 -120h108v-260h-50q-32 28 -62 70 q0 -20 -6 -70h-284q-92 0 -158 88q8 -88 -4 -88h-190q-128 0 -294 88q-100 -88 -166 -90q70 -98 -34 -300q-154 -190 -382 -178q-390 18 -358 368q16 168 124 388l132 86q-60 -204 -78 -252q-70 -238 76 -318q74 -36 227 -5t153 99q0 104 -144 162q10 74 38 248 q132 -74 298 -36q10 40 -8 170l212 78q4 -28 -16 -248h206z" />
<glyph horiz-adv-x="2050" d="M1302 260q0 78 -66 250l270 78q4 -36 4 -328q92 -12 228 0q-6 80 -51 220t-51 190l290 92q22 -186 34 -382q0 -40 2 -120h108v-260h-50q-32 28 -62 70q0 -20 -6 -70h-284q-92 0 -158 88q8 -88 -4 -88h-190q-128 0 -294 88q-100 -88 -166 -90q70 -98 -34 -300 q-154 -190 -382 -178q-390 18 -358 368q16 168 124 388l132 86q-60 -204 -78 -252q-70 -238 76 -318q74 -36 227 -5t153 99q0 104 -144 162q10 74 38 248q132 -74 298 -36q10 40 -8 170l212 78q4 -28 -16 -248h206zM596 -580l144 -148q-52 -82 -144 -146l-113 111 q-48 -61 -123 -111l-144 146q92 66 144 148l122 -122q70 56 114 122zM1440 1348l148 -148q-52 -84 -148 -148l-144 148q92 62 144 148zM1552 1120l148 -148q-52 -82 -148 -146l-103 104q-47 -57 -117 -104l-146 146q94 66 146 148l117 -117q63 54 103 117z" />
<glyph horiz-adv-x="1910" d="M716 -114q0 104 -144 162q10 74 38 248q108 -74 182 -26q30 20 14 158l210 72q12 -74 -14 -238l20 -4q70 182 210 322q188 200 416 158q144 -26 190 -218q20 -104 8 -260h84v-260h-52q-32 28 -66 72l-12 -72q-412 -48 -792 6q-16 -44 -24 -65t-8 -41l-46 52q8 40 20 68 q-42 -28 -94 -22q70 -98 -34 -300q-154 -190 -382 -178q-390 18 -358 368q16 168 124 388l132 86q-60 -204 -78 -252q-70 -238 76 -318q74 -36 227 -5t153 99zM1462 496q-210 0 -342 -246q362 -44 520 0q0 246 -178 246zM596 -580l144 -148q-52 -82 -144 -146l-113 111 q-48 -61 -123 -111l-144 146q92 66 144 148l122 -122q70 56 114 122z" />
<glyph horiz-adv-x="1910" d="M1330 1216l148 -146q-52 -84 -148 -148l-148 148q96 62 148 146zM716 -114q0 104 -144 162q10 74 38 248q108 -74 182 -26q30 20 14 158l210 72q12 -74 -14 -238l20 -4q70 182 210 322q188 200 416 158q144 -26 190 -218q20 -104 8 -260h84v-260h-52q-32 28 -66 72 l-12 -72q-412 -48 -792 6q-16 -44 -24 -65t-8 -41l-46 52q8 40 20 68q-42 -28 -94 -22q70 -98 -34 -300q-154 -190 -382 -178q-390 18 -358 368q16 168 124 388l132 86q-60 -204 -78 -252q-70 -238 76 -318q74 -36 227 -5t153 99zM1462 496q-210 0 -342 -246q362 -44 520 0 q0 246 -178 246zM596 -580l144 -148q-52 -82 -144 -146l-113 111q-48 -61 -123 -111l-144 146q92 66 144 148l122 -122q70 56 114 122z" />
<glyph horiz-adv-x="2021" d="M1668 0q-92 0 -158 88q8 -88 -4 -88h-190q-128 0 -294 88q-100 -88 -166 -90q70 -98 -34 -300q-154 -190 -382 -178q-390 18 -358 368q16 168 124 388l132 86q-60 -204 -78 -252q-70 -238 76 -318q74 -36 227 -5t153 99q0 104 -144 162q10 74 38 248q132 -74 298 -36 q10 40 -8 170l212 78q4 -28 -16 -248h206q0 78 -66 250l270 78q4 -36 4 -328q92 -12 228 0q-6 80 -51 220t-51 190l290 92q54 -430 26 -762h-284z" />
<glyph horiz-adv-x="2021" d="M1668 0q-92 0 -158 88q8 -88 -4 -88h-190q-128 0 -294 88q-100 -88 -166 -90q70 -98 -34 -300q-154 -190 -382 -178q-390 18 -358 368q16 168 124 388l132 86q-60 -204 -78 -252q-70 -238 76 -318q74 -36 227 -5t153 99q0 104 -144 162q10 74 38 248q132 -74 298 -36 q10 40 -8 170l212 78q4 -28 -16 -248h206q0 78 -66 250l270 78q4 -36 4 -328q92 -12 228 0q-6 80 -51 220t-51 190l290 92q54 -430 26 -762h-284zM1440 1348l148 -148q-52 -84 -148 -148l-144 148q92 62 144 148zM1552 1120l148 -148q-52 -82 -148 -146l-103 104 q-47 -57 -117 -104l-146 146q94 66 146 148l117 -117q63 54 103 117z" />
<glyph horiz-adv-x="1915" d="M716 -114q0 104 -144 162q10 74 38 248q108 -74 182 -26q30 20 14 158l210 72q12 -74 -14 -238l20 -4q70 182 210 322q188 200 416 158q144 -26 190 -218h2q38 -198 -40 -520q-412 -48 -792 6q-16 -44 -24 -65t-8 -41l-46 52q8 40 20 68q-42 -28 -94 -22q70 -98 -34 -300 q-154 -190 -382 -178q-390 18 -358 368q16 168 124 388l132 86q-60 -204 -78 -252q-70 -238 76 -318q74 -36 227 -5t153 99zM1462 496q-210 0 -342 -246q362 -44 520 0q0 246 -178 246z" />
<glyph horiz-adv-x="1915" d="M1330 1216l148 -146q-52 -84 -148 -148l-148 148q96 62 148 146zM716 -114q0 104 -144 162q10 74 38 248q108 -74 182 -26q30 20 14 158l210 72q12 -74 -14 -238l20 -4q70 182 210 322q188 200 416 158q144 -26 190 -218h2q38 -198 -40 -520q-412 -48 -792 6 q-16 -44 -24 -65t-8 -41l-46 52q8 40 20 68q-42 -28 -94 -22q70 -98 -34 -300q-154 -190 -382 -178q-390 18 -358 368q16 168 124 388l132 86q-60 -204 -78 -252q-70 -238 76 -318q74 -36 227 -5t153 99zM1462 496q-210 0 -342 -246q362 -44 520 0q0 246 -178 246z" />
<glyph horiz-adv-x="2050" d="M1302 260q0 78 -66 250l270 78q4 -36 4 -328q92 -12 228 0q-6 80 -51 220t-51 190l290 92q22 -186 34 -382q0 -40 2 -120h108v-260h-50q-32 28 -62 70q0 -20 -6 -70h-284q-92 0 -158 88q8 -88 -4 -88h-190q-128 0 -294 88q-100 -88 -166 -90q70 -98 -34 -300 q-154 -190 -382 -178q-390 18 -358 368q16 168 124 388l132 86q-60 -204 -78 -252q-70 -238 76 -318q74 -36 227 -5t153 99q0 104 -144 162q10 74 38 248q132 -74 298 -36q10 40 -8 170l212 78q4 -28 -16 -248h206z" />
<glyph horiz-adv-x="2050" d="M1302 260q0 78 -66 250l270 78q4 -36 4 -328q92 -12 228 0q-6 80 -51 220t-51 190l290 92q22 -186 34 -382q0 -40 2 -120h108v-260h-50q-32 28 -62 70q0 -20 -6 -70h-284q-92 0 -158 88q8 -88 -4 -88h-190q-128 0 -294 88q-100 -88 -166 -90q70 -98 -34 -300 q-154 -190 -382 -178q-390 18 -358 368q16 168 124 388l132 86q-60 -204 -78 -252q-70 -238 76 -318q74 -36 227 -5t153 99q0 104 -144 162q10 74 38 248q132 -74 298 -36q10 40 -8 170l212 78q4 -28 -16 -248h206zM1440 1348l148 -148q-52 -84 -148 -148l-144 148 q92 62 144 148zM1552 1120l148 -148q-52 -82 -148 -146l-103 104q-47 -57 -117 -104l-146 146q94 66 146 148l117 -117q63 54 103 117z" />
<glyph horiz-adv-x="1878" d="M676 -114q0 104 -144 162q10 74 38 248q108 -74 182 -26q30 20 14 158l210 72q12 -74 -14 -238l20 -4q70 182 210 322q188 200 416 158q144 -26 190 -218q20 -104 8 -260h84v-260h-52q-32 28 -66 72l-12 -72q-412 -48 -792 6q-16 -44 -24 -65t-8 -41l-46 52q8 40 20 68 q-42 -28 -94 -22q70 -98 -34 -300q-154 -190 -382 -178q-390 18 -358 368q16 168 124 388l132 86q-60 -204 -78 -252q-70 -238 76 -318q74 -36 227 -5t153 99zM1422 496q-210 0 -342 -246q362 -44 520 0q0 246 -178 246z" />
<glyph horiz-adv-x="1878" d="M1290 1216l148 -146q-52 -84 -148 -148l-148 148q96 62 148 146zM676 -114q0 104 -144 162q10 74 38 248q108 -74 182 -26q30 20 14 158l210 72q12 -74 -14 -238l20 -4q70 182 210 322q188 200 416 158q144 -26 190 -218q20 -104 8 -260h84v-260h-52q-32 28 -66 72 l-12 -72q-412 -48 -792 6q-16 -44 -24 -65t-8 -41l-46 52q8 40 20 68q-42 -28 -94 -22q70 -98 -34 -300q-154 -190 -382 -178q-390 18 -358 368q16 168 124 388l132 86q-60 -204 -78 -252q-70 -238 76 -318q74 -36 227 -5t153 99zM1422 496q-210 0 -342 -246q362 -44 520 0 q0 246 -178 246z" />
<glyph horiz-adv-x="1828" d="M1475 1q-94 0 -158 88q-1 -37 -6 -88h-186q-130 0 -294 88q-102 -88 -136 -88h-93v-1h-2v1h-1v2q-30 25 -57 57q-6 -112 -22 -164q-50 -158 -132 -278h-378q308 250 368 434q-3 4 -170 424l270 84q52 -202 64 -300h57v1h118q8 40 -8 200l210 78q2 -58 -18 -278h210 q0 78 -70 280l274 78q4 -66 4 -358q90 -12 228 0q-8 80 -86 330l276 128q32 -227 32 -458l-4 -190q0 -20 -6 -70h-284z" />
<glyph horiz-adv-x="1828" d="M1475 1q-94 0 -158 88q-1 -37 -6 -88h-186q-130 0 -294 88q-102 -88 -136 -88h-93v-1h-2v1h-1v2q-30 25 -57 57q-6 -112 -22 -164q-50 -158 -132 -278h-378q308 250 368 434q-3 4 -170 424l270 84q52 -202 64 -300h57v1h118q8 40 -8 200l210 78q2 -58 -18 -278h210 q0 78 -70 280l274 78q4 -66 4 -358q90 -12 228 0q-8 80 -86 330l276 128q32 -227 32 -458l-4 -190q0 -20 -6 -70h-284zM1284 1070l148 -144q-52 -86 -148 -148l-111 114q-48 -65 -121 -114l-148 148q96 62 148 144l121 -121q69 54 111 121zM1169 1304l146 -148 q-52 -84 -146 -148l-146 148q92 62 146 148z" />
<glyph horiz-adv-x="1763" d="M1310 498q-210 0 -342 -242q362 -48 520 0q0 242 -178 242zM656 0q-46 0 -74 60q-6 -112 -22 -164q-50 -158 -132 -278h-378q308 250 368 434q-6 9 -170 424l270 84q52 -202 64 -300q28 -12 50 0q34 40 20 172l210 74q14 -78 -12 -238l20 -6q70 180 210 324 q188 200 416 156q144 -26 190 -216h2q38 -198 -40 -520q-412 -48 -792 4q-16 -42 -25 -65t-9 -39l-44 52q8 38 20 68q-28 12 -48 24q-48 -50 -94 -50z" />
<glyph horiz-adv-x="1763" d="M1178 1220l148 -148q-54 -82 -148 -146l-148 146q96 66 148 148zM1310 498q-210 0 -342 -242q362 -48 520 0q0 242 -178 242zM656 0q-46 0 -74 60q-6 -112 -22 -164q-50 -158 -132 -278h-378q308 250 368 434q-6 9 -170 424l270 84q52 -202 64 -300q28 -12 50 0 q34 40 20 172l210 74q14 -78 -12 -238l20 -6q70 180 210 324q188 200 416 156q144 -26 190 -216h2q38 -198 -40 -520q-412 -48 -792 4q-16 -42 -25 -65t-9 -39l-44 52q8 38 20 68q-28 12 -48 24q-48 -50 -94 -50z" />
<glyph horiz-adv-x="1870" d="M1770 260h110v-260h-50q-32 28 -64 70q0 -20 -6 -70h-284q-94 0 -158 88q-1 -37 -6 -88h-186q-130 0 -294 88q-15 -65 -92 -88h-140v2q-31 25 -58 58q-6 -112 -22 -164q-50 -158 -132 -278h-378q308 250 368 434q-3 4 -170 424l270 84q52 -202 64 -300h176q8 40 -8 200 l210 78q2 -58 -18 -278h210q0 78 -70 280l274 78q4 -66 4 -358q90 -12 228 0q-8 80 -86 330l276 128q32 -227 32 -458z" />
<glyph horiz-adv-x="1870" d="M1770 260h110v-260h-50q-32 28 -64 70q0 -20 -6 -70h-284q-94 0 -158 88q-1 -37 -6 -88h-186q-130 0 -294 88q-15 -65 -92 -88h-140v2q-31 25 -58 58q-6 -112 -22 -164q-50 -158 -132 -278h-378q308 250 368 434q-3 4 -170 424l270 84q52 -202 64 -300h176q8 40 -8 200 l210 78q2 -58 -18 -278h210q0 78 -70 280l274 78q4 -66 4 -358q90 -12 228 0q-8 80 -86 330l276 128q32 -227 32 -458zM1284 1070l148 -144q-52 -86 -148 -148l-111 114q-48 -65 -121 -114l-148 148q96 62 148 144l121 -121q69 54 111 121zM1169 1304l146 -148 q-52 -84 -146 -148l-146 148q92 62 146 148z" />
<glyph horiz-adv-x="1728" d="M1270 492q-210 0 -342 -242q362 -48 520 0q0 242 -178 242zM1738 260v-260h-52q-34 28 -66 70q-8 -34 -12 -70q-412 -48 -792 6q-16 -44 -25 -66t-9 -40l-44 52q8 38 20 68q-28 12 -48 26q-48 -50 -94 -50t-74 60q-6 -114 -22 -166q-50 -158 -132 -278h-378 q308 250 368 435q-6 9 -170 423l270 86q52 -204 64 -300q28 -14 50 0q34 40 20 172l210 72q14 -78 -12 -238l20 -2q70 178 210 320q188 200 416 158q144 -28 190 -218q20 -108 6 -260h86z" />
<glyph horiz-adv-x="1728" d="M1270 492q-210 0 -342 -242q362 -48 520 0q0 242 -178 242zM1738 260v-260h-52q-34 28 -66 70q-8 -34 -12 -70q-412 -48 -792 6q-16 -44 -25 -66t-9 -40l-44 52q8 38 20 68q-28 12 -48 26q-48 -50 -94 -50t-74 60q-6 -114 -22 -166q-50 -158 -132 -278h-378 q308 250 368 435q-6 9 -170 423l270 86q52 -204 64 -300q28 -14 50 0q34 40 20 172l210 72q14 -78 -12 -238l20 -2q70 178 210 320q188 200 416 158q144 -28 190 -218q20 -108 6 -260h86zM1138 1220l148 -148q-54 -82 -148 -146l-148 146q96 66 148 148z" />
<glyph horiz-adv-x="1510" d="M540 -520l146 -144q-54 -86 -146 -148l-112 112q-48 -64 -122 -112l-146 148q92 62 146 144l121 -120q71 54 113 120zM706 -68q0 104 -134 160q10 78 38 250q170 -74 222 -46q-72 302 140 480q226 186 460 -144l-130 -46q-210 72 -271 -64t39 -230q98 -10 390 36 l-24 -256q-258 -50 -626 -26q86 -106 -12 -294q-130 -200 -358 -186q-390 20 -358 370q16 164 124 384l132 90q-60 -204 -78 -254q-70 -236 76 -316q74 -40 222 -9t148 101z" />
<glyph horiz-adv-x="1510" d="M706 -68q0 104 -134 160q10 78 38 250q170 -74 222 -46q-72 302 140 480q226 186 460 -144l-130 -46q-210 72 -271 -64t39 -230q98 -10 390 36l-24 -256q-258 -50 -626 -26q86 -106 -12 -294q-130 -200 -358 -186q-390 20 -358 370q16 164 124 384l132 90 q-60 -204 -78 -254q-70 -236 76 -316q74 -40 222 -9t148 101z" />
<glyph horiz-adv-x="1510" d="M1022 1238l148 -148q-52 -82 -148 -148l-144 148q92 66 144 148zM540 -520l146 -144q-54 -86 -146 -148l-112 112q-48 -64 -122 -112l-146 148q92 62 146 144l121 -120q71 54 113 120zM706 -68q0 104 -134 160q10 78 38 250q170 -74 222 -46q-72 302 140 480 q226 186 460 -144l-130 -46q-210 72 -271 -64t39 -230q98 -10 390 36l-24 -256q-258 -50 -626 -26q86 -106 -12 -294q-130 -200 -358 -186q-390 20 -358 370q16 164 124 384l132 90q-60 -204 -78 -254q-70 -236 76 -316q74 -40 222 -9t148 101z" />
<glyph horiz-adv-x="1510" d="M1022 1238l148 -148q-52 -82 -148 -148l-144 148q92 66 144 148zM706 -68q0 104 -134 160q10 78 38 250q170 -74 222 -46q-72 302 140 480q226 186 460 -144l-130 -46q-210 72 -271 -64t39 -230q98 -10 390 36l-24 -256q-258 -50 -626 -26q86 -106 -12 -294 q-130 -200 -358 -186q-390 20 -358 370q16 164 124 384l132 90q-60 -204 -78 -254q-70 -236 76 -316q74 -40 222 -9t148 101z" />
<glyph horiz-adv-x="1431" d="M1226 -62l144 -146q-52 -84 -144 -146l-148 146q94 64 148 146zM1362 2h-220l-110 -2h-52q-32 30 -62 72q-22 -146 -128 -270q-134 -126 -318 -134q-124 0 -236 80q-186 138 -140 332q50 162 64 206l116 82q-10 -42 -20 -206q0 -136 86 -200q54 -40 136 -46 q278 16 264 174q-20 226 -86 406l250 76q30 -152 26 -310h234q-10 138 -116 370l290 94q50 -385 22 -724zM476 888l146 -148q-52 -82 -146 -148l-148 148q94 66 148 148z" />
<glyph horiz-adv-x="1431" d="M487 779l146 -148q-52 -82 -146 -148l-148 148q94 66 148 148zM1362 2h-220l-110 -2h-52q-32 30 -62 72q-22 -146 -128 -270q-134 -126 -318 -134q-124 0 -236 80q-186 138 -140 332q50 162 64 206l116 82q-10 -42 -20 -206q0 -136 86 -200q54 -40 136 -46 q278 16 264 174q-20 226 -86 406l250 76q30 -152 26 -310h234q-10 138 -116 370l290 94q50 -385 22 -724zM1220 1070l148 -144q-52 -86 -148 -148l-111 114q-48 -65 -121 -114l-148 148q96 62 148 144l121 -121q69 54 111 121z" />
<glyph horiz-adv-x="1431" d="M487 779l146 -148q-52 -82 -146 -148l-148 148q94 66 148 148zM1362 2h-220l-110 -2h-52q-32 30 -62 72q-22 -146 -128 -270q-134 -126 -318 -134q-124 0 -236 80q-186 138 -140 332q50 162 64 206l116 82q-10 -42 -20 -206q0 -136 86 -200q54 -40 136 -46 q278 16 264 174q-20 226 -86 406l250 76q30 -152 26 -310h234q-10 138 -116 370l290 94q50 -385 22 -724zM1102 1298l146 -146q-52 -84 -146 -146l-146 146q94 64 146 146zM1220 1070l148 -144q-52 -86 -148 -148l-111 114q-48 -65 -121 -114l-148 148q96 62 148 144 l121 -121q69 54 111 121z" />
<glyph horiz-adv-x="1431" d="M487 779l146 -148q-52 -82 -146 -148l-148 148q94 66 148 148zM1122 1112l146 -146q-52 -84 -146 -148l-146 148q94 64 146 146zM1362 2h-220l-110 -2h-52q-32 30 -62 72q-22 -146 -128 -270q-134 -126 -318 -134q-124 0 -236 80q-186 138 -140 332q50 162 64 206l116 82 q-10 -42 -20 -206q0 -136 86 -200q54 -40 136 -46q278 16 264 174q-20 226 -86 406l250 76q30 -152 26 -310h234q-10 138 -116 370l290 94q50 -385 22 -724z" />
<glyph horiz-adv-x="1498" d="M487 779l146 -148q-52 -82 -146 -148l-148 148q94 66 148 148zM1300 -58l148 -144q-52 -86 -148 -148l-111 114q-48 -65 -121 -114l-148 148q96 62 148 144l121 -121q69 54 111 121zM1362 2h-220l-110 -2h-52q-32 30 -62 72q-22 -146 -128 -270q-134 -126 -318 -134 q-124 0 -236 80q-186 138 -140 332q50 162 64 206l116 82q-10 -42 -20 -206q0 -136 86 -200q54 -40 136 -46q278 16 264 174q-20 226 -86 406l250 76q30 -152 26 -310h234q-10 138 -116 370l290 94q50 -385 22 -724z" />
<glyph horiz-adv-x="1431" d="M487 779l146 -148q-52 -82 -146 -148l-148 148q94 66 148 148zM958 762q31 31 50 47q-46 34 -56 89t-2 93q18 99 114 127t179 -28l-65 -63q-39 9 -68 3q-69 -13 -52 -98q8 -43 65 -63q118 50 176 67l25 -125q-99 -19 -348 -139zM1362 2h-220l-110 -2h-52q-32 30 -62 72 q-22 -146 -128 -270q-134 -126 -318 -134q-124 0 -236 80q-186 138 -140 332q50 162 64 206l116 82q-10 -42 -20 -206q0 -136 86 -200q54 -40 136 -46q278 16 264 174q-20 226 -86 406l250 76q30 -152 26 -310h234q-10 138 -116 370l290 94q50 -385 22 -724z" />
<glyph d="M-201 669l474 108l-27 -126l-474 -110zM-278 106l19 149l102 15l-19 -145q-5 -45 5.5 -62.5t40.5 -12.5q61 10 67 93l20 145l101 17l-19 -146q-5 -44 7 -61.5t42 -12.5t45 26t20 66l19 145l102 17l-20 -149q-24 -181 -173 -205q-70 -10 -109 36q-57 -64 -124.5 -74.5 t-102 29t-23.5 130.5zM-221 449l474 108l-27 -126l-474 -110z" />
<glyph d="M-278 106l19 149l102 15l-19 -145q-5 -45 5.5 -62.5t40.5 -12.5q61 10 67 93l20 145l101 17l-19 -146q-5 -44 7 -61.5t42 -12.5t45 26t20 66l19 145l102 17l-20 -149q-24 -181 -173 -205q-70 -10 -109 36q-57 -64 -124.5 -74.5t-102 29t-23.5 130.5zM78 562q19 33 16 69 q2 38 -36 39q-28 -2 -39 -26q-22 -43 59 -82zM-47 410q50 12 90 51q3 9 3 10q-160 88 -89 227q78 109 163 53q54 -34 60 -113t-68 -194q-35 -54 -77.5 -89t-78 -37.5t-54.5 10.5q-16 13 -22 41q-8 29 -14 43q-13 30 -54 -1t-48 -35h-1l25 89q7 15 34 35q73 55 91 -34 q2 -4 7.5 -17t8.5 -20q11 -17 24 -19z" />
<glyph d="M-267 273l474 108l-27 -126l-474 -110zM-278 553l19 149l102 15l-19 -145q-5 -45 5.5 -62.5t40.5 -12.5q61 10 67 93l20 145l101 17l-19 -146q-5 -44 7 -61.5t42 -12.5t45 26t20 66l19 145l102 17l-20 -149q-24 -181 -173 -205q-70 -10 -109 36q-57 -64 -124.5 -74.5 t-102 29t-23.5 130.5zM-287 73l474 108l-27 -126l-474 -110z" />
<glyph d="M-278 106l19 149l102 15l-19 -145q-5 -45 5.5 -62.5t40.5 -12.5q61 10 67 93l20 145l101 17l-19 -146q-5 -44 7 -61.5t42 -12.5t45 26t20 66l19 145l102 17l-20 -149q-24 -181 -173 -205q-70 -10 -109 36q-57 -64 -124.5 -74.5t-102 29t-23.5 130.5zM-221 469l474 108 l-27 -126l-474 -110z" />
<glyph d="M-278 106l19 149l102 15l-19 -145q-5 -45 5.5 -62.5t40.5 -12.5q61 10 67 93l20 145l101 17l-19 -146q-5 -44 7 -61.5t42 -12.5t45 26t20 66l19 145l102 17l-20 -149q-24 -181 -173 -205q-70 -10 -109 36q-57 -64 -124.5 -74.5t-102 29t-23.5 130.5zM155 599 q-4 -108 -99 -201q-48 -53 -149 -97l-94 60q141 50 185 71l6 9q-148 110 -62 237q92 96 168 33q51 -40 45 -112zM-2 599q-30 -43 46 -88q23 30 27 66.5t-31 39.5q-27 5 -42 -18z" />
<glyph d="M-257 73l474 108l-27 -126l-474 -110zM-278 343l19 149l102 15l-19 -145q-5 -45 5.5 -62.5t40.5 -12.5q61 10 67 93l20 145l101 17l-19 -146q-5 -44 7 -61.5t42 -12.5t45 26t20 66l19 145l102 17l-20 -149q-24 -181 -173 -205q-70 -10 -109 36q-57 -64 -124.5 -74.5 t-102 29t-23.5 130.5z" />
<glyph d="M-278 106l19 149l102 15l-19 -145q-5 -45 5.5 -62.5t40.5 -12.5q61 10 67 93l20 145l101 17l-19 -146q-5 -44 7 -61.5t42 -12.5t45 26t20 66l19 145l102 17l-20 -149q-24 -181 -173 -205q-70 -10 -109 36q-57 -64 -124.5 -74.5t-102 29t-23.5 130.5zM-18 568 q-16 0 -27.5 -5.5t-20 -27.5t-8.5 -38.5t25 -27t65.5 -10.5t49 9.5t8.5 25t-38 45t-54 29.5zM-15 666q57 0 108 -44t51 -84t-26 -91.5t-53.5 -73t-80 -21.5t-92 23.5t-39.5 60t20 90.5t50.5 97t61.5 43z" />
<glyph horiz-adv-x="1447" />
</font>
</defs>
</svg>
