<svg xmlns="http://www.w3.org/2000/svg" xmlns:xlink="http://www.w3.org/1999/xlink" version="1.1"><metadata/><defs><font id="vip_strickregular" horiz-adv-x="1741"><font-face ascent="1638" descent="-410" units-per-em="2048"/><glyph horiz-adv-x="508"/><glyph horiz-adv-x="0"/><glyph horiz-adv-x="0"/><glyph horiz-adv-x="508"/><glyph horiz-adv-x="508"/><glyph horiz-adv-x="508"/><glyph d="M0 410v871q90 -8 154 -51q153 -102 153 -358v-462h-307zM10 186q0 60 42.5 102.5t102.5 42.5q59 0 101.5 -42.5t42.5 -102.5q0 -59 -42.5 -101.5t-101.5 -42.5q-60 0 -102.5 42.5t-42.5 101.5z" horiz-adv-x="512" unicode="!"/><glyph d="M0 1432v204h102v-204h-102zM205 1432v204h102v-204h-102z" horiz-adv-x="512" unicode="&quot;"/><glyph d="M0 102v103h102v512h-102v102h102v103h308v-103h307v103h307v-103h102v-102h-102v-512h102v-103h-102v-102h-307v102h-307v-102h-308v102h-102zM410 205h307v512h-307v-512z" horiz-adv-x="1331" unicode="#"/><glyph d="M0 574v41q0 256 256 358q106 43 256 51h205v205h102v-205h205v-102h-205v-246h717v-61q0 -256 -256 -359q-106 -43 -256 -51h-205v-205h-102v205h-205v102h205v267h-717zM309 676h408v246h-205q-51 -6 -92 -31q-94 -61 -111 -215zM819 307h205q55 7 96 33q97 68 107 234 h-408v-267z" unicode="$"/><glyph d="M0 0l922 1126h204l-921 -1126h-205zM0 922q0 84 60.5 144t144.5 60t144.5 -60t60.5 -144t-60.5 -144.5t-144.5 -60.5t-144.5 60.5t-60.5 144.5zM717 205q0 84 60.5 144.5t144.5 60.5t144 -60.5t60 -144.5t-60 -144.5t-144 -60.5t-144.5 60.5t-60.5 144.5z" horiz-adv-x="1331" unicode="%"/><glyph d="M0 410q0 256 256 358q106 43 256 51h512q150 -8 256 -51q256 -102 256 -358q0 -201 -158 -308h348v-102h-514q-49 3 -94 9q-45 -6 -94 -9h-512q-150 8 -256 51q-256 103 -256 359zM309 369q15 -248 203 -267h346q-141 96 -156 267h-393zM309 471h391v246h-188 q-51 -6 -92 -31q-94 -61 -111 -215zM1007 471h220q-25 227 -203 246h-17v-246zM1008 369q10 -175 109 -236q1 1 3 2q97 68 107 234h-219z" unicode="&amp;"/><glyph d="M0 1432v204h102v-204h-102z" horiz-adv-x="307" unicode="'"/><glyph d="M0 307v717q0 256 256 358q106 43 256 52v-103q-205 -22 -205 -307v-717q0 -284 205 -307v-102q-150 8 -256 51q-256 102 -256 358z" horiz-adv-x="717" unicode="("/><glyph d="M0 0q205 23 205 307v717q0 285 -205 307v103q150 -9 256 -52q256 -102 256 -358v-717q0 -256 -256 -358q-106 -43 -256 -51v102z" horiz-adv-x="717" unicode=")"/><glyph d="M0 614v103h121l-90 92l71 72l103 -103v144h102v-125l84 84l74 -72l-92 -92h139v-103h-143l96 -96l-74 -72l-84 84v-120h-102v139l-103 -103l-71 72l94 96h-125z" horiz-adv-x="717" unicode="*"/><glyph d="M0 410v102h205v205h102v-205h205v-102h-205v-205h-102v205h-205z" horiz-adv-x="717" unicode="+"/><glyph d="M0 -205v410q0 43 29.5 72.5t72.5 29.5t73 -29.5t30 -72.5v-205q0 -84 -60.5 -144.5t-144.5 -60.5z" horiz-adv-x="410" unicode=","/><glyph d="M0 410v102h717v-102h-717z" horiz-adv-x="922" unicode="-"/><glyph d="M0 102q0 43 29.5 73t72.5 30t73 -30t30 -73t-30 -72.5t-73 -29.5t-72.5 29.5t-29.5 72.5z" horiz-adv-x="410" unicode="."/><glyph d="M0 0l512 1331h205l-512 -1331h-205z" horiz-adv-x="922" unicode="/"/><glyph d="M0 410q0 256 256 358q106 43 256 51h512q150 -8 256 -51q256 -102 256 -358t-256 -359q-106 -43 -256 -51h-512q-150 8 -256 51q-256 103 -256 359zM307 410q0 -285 205 -308h512q8 0 41 9l-682 544q-76 -80 -76 -245zM471 709l682 -545q76 80 76 246q0 284 -205 307 h-512q-8 0 -41 -8z" unicode="0"/><glyph d="M0 0v922q90 -9 154 -52q153 -102 153 -358v-512h-307z" horiz-adv-x="512" unicode="1"/><glyph d="M0 410v61h1227q-25 227 -203 246h-512v102h512q150 -8 256 -51q256 -102 256 -358v-41h-1227q15 -248 203 -267h512v-102h-512q-150 8 -256 51q-256 103 -256 359z" unicode="2"/><glyph d="M0 0v102h922q51 7 92 31q94 62 110 215h-899v103h899q-14 247 -202 266h-922v102h922q149 -8 256 -51q256 -102 256 -358t-256 -359q-107 -43 -256 -51h-922z" horiz-adv-x="1638" unicode="3"/><glyph d="M0 410v409h307v-409q0 -285 205 -308h512v717h307v-1024h-307v205h-512q-150 8 -256 51q-256 103 -256 359z" horiz-adv-x="1536" unicode="4"/><glyph d="M0 369v41q0 256 256 358q106 43 256 51h512v-102h-512q-51 -6 -92 -31q-94 -61 -111 -215h1227v-61q0 -256 -256 -359q-106 -43 -256 -51h-512v102h512q55 7 96 33q97 68 107 234h-1227z" unicode="5"/><glyph d="M0 369v41q0 256 256 358q106 43 256 51h512v-102h-512q-51 -6 -92 -31q-94 -61 -111 -215h1227v-61q0 -256 -256 -359q-106 -43 -256 -51h-512q-139 8 -244 47q-245 90 -266 322h-2zM309 369q15 -248 203 -267h512q55 7 96 33q97 68 107 234h-918z" unicode="6"/><glyph d="M0 348v103h612q-14 247 -202 266h-410v102h410q149 -8 256 -51q256 -102 256 -358v-615h-308v553h-614z" horiz-adv-x="1126" unicode="7"/><glyph d="M0 410q0 256 256 358q106 43 256 51h512q150 -8 256 -51q256 -102 256 -358t-256 -359q-106 -43 -256 -51h-512q-150 8 -256 51q-256 103 -256 359zM309 369q15 -248 203 -267h512q55 7 96 33q97 68 107 234h-918zM309 471h918q-25 227 -203 246h-512q-51 -6 -92 -31 q-94 -61 -111 -215z" unicode="8"/><glyph d="M0 348v62q0 256 256 358q106 43 256 51h512q139 -8 244 -45q245 -92 266 -323h2v-41q0 -256 -256 -359q-106 -43 -256 -51h-512v102h512q51 7 92 31q94 62 111 215h-1227zM309 451h918q-15 247 -203 266h-512q-55 -6 -96 -33q-97 -68 -107 -233z" unicode="9"/><glyph d="M0 315q0 43 29.5 72.5t72.5 29.5t73 -29.5t30 -72.5t-30 -73t-73 -30t-72.5 30t-29.5 73zM0 724q0 43 29.5 73t72.5 30t73 -30t30 -73t-30 -72.5t-73 -29.5t-72.5 29.5t-29.5 72.5z" horiz-adv-x="410" unicode=":"/><glyph d="M0 -15v410q0 43 29.5 72.5t72.5 29.5t73 -29.5t30 -72.5v-205q0 -84 -60.5 -144.5t-144.5 -60.5zM0 804q0 43 29.5 73t72.5 30t73 -30t30 -73t-30 -72.5t-73 -29.5t-72.5 29.5t-29.5 72.5z" horiz-adv-x="410" unicode=";"/><glyph d="M0 430l332 332l63 -64l-270 -268l272 -270l-63 -64z" horiz-adv-x="614" unicode="&lt;"/><glyph d="M0 307v103h717v-103h-717zM0 512v102h717v-102h-717z" horiz-adv-x="922" unicode="="/><glyph d="M0 160l63 -64l334 334l-334 332l-61 -64l268 -268z" horiz-adv-x="614" unicode="&gt;"/><glyph d="M10 1117v102h604q150 -8 256 -51q256 -102 256 -458v-41h-589v-229h-307v331h587q-24 327 -203 346h-604zM230 195q0 63 45 108t109 45q63 0 108 -45t45 -108q0 -64 -45 -109t-108 -45q-64 0 -109 45t-45 109z" horiz-adv-x="1331" unicode="?"/><glyph d="M0 410q0 256 256 358q106 43 256 51h512q150 -8 256 -51q256 -102 256 -358v-410h-1024q-150 8 -256 51q-256 103 -256 359zM307 410q0 -285 205 -308h717v308q0 284 -205 307h-512q-205 -23 -205 -307zM573 410q0 84 60.5 144t144.5 60t144.5 -60t60.5 -144 t-60.5 -144.5t-144.5 -60.5t-144.5 60.5t-60.5 144.5zM674 405q0 -44 31.5 -75.5t75.5 -31.5t75.5 31.5t31.5 75.5t-31.5 75.5t-75.5 31.5t-75.5 -31.5t-31.5 -75.5z" unicode="@"/><glyph d="M0 0v410q0 256 256 358q106 43 256 51h512q150 -8 256 -51q256 -102 256 -358v-410h-307v354h-922v-354h-307zM309 457h918q-19 241 -203 260h-512q-53 -6 -94 -33q-96 -66 -109 -227z" unicode="A"/><glyph d="M0 0v819h1024q150 -8 256 -51q256 -102 256 -358t-256 -359q-106 -43 -256 -51h-1024zM307 102h717q102 127 203 256v-2h-920v-254zM307 459h920q-19 239 -203 258h-717v-258z" unicode="B"/><glyph d="M0 410q0 256 256 358q106 43 256 51h717v-102h-717q-205 -23 -205 -307q0 -285 205 -308h717v-102h-717q-150 8 -256 51q-256 103 -256 359z" horiz-adv-x="1434" unicode="C"/><glyph d="M0 0h1024q150 8 256 51q256 103 256 359t-256 358q-106 43 -256 51h-1024v-819zM307 102v615h717q205 -23 205 -307q0 -285 -205 -308h-717z" unicode="D"/><glyph d="M0 410q0 256 256 358q106 43 256 51h717v-102h-717q-53 -6 -94 -33q-96 -63 -109 -225h920v-103h-920q21 -235 203 -254h717v-102h-717q-150 8 -256 51q-256 103 -256 359z" horiz-adv-x="1434" unicode="E"/><glyph d="M0 0v410q0 256 256 358q106 43 256 51h614v-102h-614q-53 -6 -94 -33q-96 -63 -109 -227h817v-103h-819v-354h-307z" horiz-adv-x="1331" unicode="F"/><glyph d="M0 410q0 256 256 358q106 43 256 51h819v-102h-819q-205 -23 -205 -307q0 -285 205 -308h512q47 4 84 25q88 51 113 180h-299v103h614q0 -256 -256 -359q-106 -43 -256 -51h-512q-150 8 -256 51q-256 103 -256 359z" unicode="G"/><glyph d="M0 0v819h307v-362h717v362h307v-819h-307v354h-717v-354h-307z" horiz-adv-x="1536" unicode="H"/><glyph d="M0 0v819h307v-819h-307z" horiz-adv-x="512" unicode="I"/><glyph d="M0 0v102h410q204 23 204 308v409h308v-409q0 -256 -256 -359q-107 -43 -256 -51h-410z" horiz-adv-x="1126" unicode="J"/><glyph d="M0 0v819h307v-307h307q205 23 205 307h307q0 -256 -256 -358q-106 -43 -256 -51q150 -9 256 -52q256 -102 256 -358h-307q0 285 -205 307h-307v-307h-307z" horiz-adv-x="1229" unicode="K"/><glyph d="M0 410q0 -256 256 -359q106 -43 256 -51h614v102h-614q-205 23 -205 308v409h-307v-409z" horiz-adv-x="1331" unicode="L"/><glyph d="M0 0v410q0 256 256 358q106 43 256 51h512q150 -8 256 -51q256 -102 256 -358v-410h-307v410q0 284 -205 307h-102v-717h-308v717h-102q-205 -23 -205 -307v-410h-307z" unicode="M"/><glyph d="M0 0v410q0 256 256 358q106 43 256 51h512q150 -8 256 -51q256 -102 256 -358v-410h-307v410q0 284 -205 307h-512q-205 -23 -205 -307v-410h-307z" unicode="N"/><glyph d="M0 410q0 256 256 358q106 43 256 51h512q150 -8 256 -51q256 -102 256 -358t-256 -359q-106 -43 -256 -51h-512q-150 8 -256 51q-256 103 -256 359zM307 410q0 -285 205 -308h512q205 23 205 308q0 284 -205 307h-512q-205 -23 -205 -307z" unicode="O"/><glyph d="M0 -307v717q0 256 256 358q106 43 256 51h512q150 -8 256 -51q256 -102 256 -358t-256 -359q-106 -43 -256 -51h-717v-307h-307zM307 102h717q205 23 205 308q0 284 -205 307h-512q-205 -23 -205 -307v-308z" unicode="P"/><glyph d="M0 410q0 256 256 358q106 43 256 51h512q150 -8 256 -51q256 -102 256 -358v-717h-307v307h-717q-150 8 -256 51q-256 103 -256 359zM307 410q0 -285 205 -308h717v308q0 284 -205 307h-512q-205 -23 -205 -307z" unicode="Q"/><glyph d="M0 0v410q0 256 256 358q106 43 256 51h614v-102h-614q-205 -23 -205 -307v-410h-307z" horiz-adv-x="1331" unicode="R"/><glyph d="M0 369v41q0 256 256 358q106 43 256 51h614v-102h-614q-51 -6 -92 -31q-94 -61 -111 -215h1227v-61q0 -256 -256 -359q-106 -43 -256 -51h-614v102h614q55 7 96 33q97 68 107 234h-1227z" unicode="S"/><glyph d="M0 717v102h1331v-102h-512v-717h-307v717h-512z" horiz-adv-x="1536" unicode="T"/><glyph d="M0 410q0 -256 256 -359q106 -43 256 -51h512q150 8 256 51q256 103 256 359v409h-307v-409q0 -285 -205 -308h-512q-205 23 -205 308v409h-307v-409z" unicode="U"/><glyph d="M0 410v409h307v-409q0 -285 225 -308q226 23 226 308v409h307v-409q0 -193 -266 -320q-111 -53 -267 -90q-155 37 -266 90q-266 127 -266 320z" horiz-adv-x="1253" unicode="V"/><glyph d="M0 410v409h307v-409q0 -285 205 -308h102v717h308v-717h102q205 23 205 308v409h307v-409q0 -256 -256 -359q-106 -43 -256 -51h-512q-150 8 -256 51q-256 103 -256 359z" unicode="W"/><glyph d="M0 0q0 256 256 358q106 43 256 52q-150 8 -256 51q-256 102 -256 358h307q0 -284 205 -327h205q205 43 205 327h307q0 -256 -256 -358q-107 -43 -256 -51q149 -9 256 -52q256 -102 256 -358h-307q0 285 -205 328h-205q-205 -43 -205 -328h-307z" horiz-adv-x="1434" unicode="X"/><glyph d="M0 410v409h307v-409q0 -285 205 -308h512v717h307v-819q0 -256 -256 -358q-106 -43 -256 -52h-307v103h307q205 22 205 307h-512q-150 8 -256 51q-256 103 -256 359z" horiz-adv-x="1536" unicode="Y"/><glyph d="M0 410q0 -256 256 -359q106 -43 256 -51h614v102h-614q-55 7 -96 33q-97 68 -107 234h1227v41q0 256 -256 358q-106 43 -256 51h-614v-102h614q51 -4 92 -31q94 -61 111 -215h-1227v-61z" unicode="Z"/><glyph d="M0 307v717q0 256 256 358q106 43 256 52v-103q-205 -22 -205 -307v-717q0 -284 205 -307v-102q-150 8 -256 51q-256 102 -256 358z" horiz-adv-x="717" unicode="["/><glyph d="M0 1331h205l512 -1331h-205z" horiz-adv-x="922" unicode="\"/><glyph d="M0 0q205 23 205 307v717q0 285 -205 307v103q150 -9 256 -52q256 -102 256 -358v-717q0 -256 -256 -358q-106 -43 -256 -51v102z" horiz-adv-x="717" unicode="]"/><glyph d="M0 922v122l205 205l205 -205v-122l-205 204z" horiz-adv-x="614" unicode="^"/><glyph d="M0 0h717v-102h-717v102z" horiz-adv-x="922" unicode="_"/><glyph d="M0 1126h184l205 -204h-184z" horiz-adv-x="614" unicode="`"/><glyph d="M0 410q0 256 256 358q106 43 256 51h512q150 -8 256 -51q256 -102 256 -358v-410h-1024q-150 8 -256 51q-256 103 -256 359zM307 410q0 -285 205 -308h717v308q0 284 -205 307h-512q-205 -23 -205 -307z" unicode="a"/><glyph d="M0 410v716h307v-307h717q150 -8 256 -51q256 -102 256 -358t-256 -359q-106 -43 -256 -51h-512q-150 8 -256 51q-256 103 -256 359zM307 410q0 -285 205 -308h512q205 23 205 308q0 284 -205 307h-717v-307z" unicode="b"/><glyph d="M0 410q0 256 256 358q106 43 256 51h717v-102h-717q-205 -23 -205 -307q0 -285 205 -308h717v-102h-717q-150 8 -256 51q-256 103 -256 359z" horiz-adv-x="1434" unicode="c"/><glyph d="M0 410q0 256 256 358q106 43 256 51h717v307h307v-716q0 -256 -256 -359q-106 -43 -256 -51h-512q-150 8 -256 51q-256 103 -256 359zM307 410q0 -285 205 -308h512q205 23 205 308v307h-717q-205 -23 -205 -307z" unicode="d"/><glyph d="M0 410q0 256 256 358q106 43 256 51h512q150 -8 256 -51q256 -102 256 -358h-1229q0 -285 205 -308h307v-102h-307q-150 8 -256 51q-256 103 -256 359zM315 512h906q-37 190 -197 205h-512q-47 -4 -84 -25q-88 -51 -113 -180z" unicode="e"/><glyph d="M0 0v922q0 256 256 358q106 43 256 51h410v-102h-410q-205 -23 -205 -307v-103h512v-102h-512v-717h-307z" horiz-adv-x="1126" unicode="f"/><glyph d="M0 410q0 256 256 358q106 43 256 51h512q150 -8 256 -51q256 -102 256 -358v-410q0 -256 -256 -358q-106 -43 -256 -52h-307v103h307q205 22 205 307h-717q-150 8 -256 51q-256 103 -256 359zM307 410q0 -285 205 -308h717v308q0 284 -205 307h-512q-205 -23 -205 -307z" unicode="g"/><glyph d="M0 0v1126h307v-307h512q150 -8 256 -51q256 -102 256 -358v-410h-307v410q0 284 -205 307h-512v-717h-307z" horiz-adv-x="1536" unicode="h"/><glyph d="M0 0v819h307v-819h-307z" horiz-adv-x="512" unicode="i"/><glyph d="M0 -328q205 43 205 328v819h307v-819q0 -256 -256 -358q-106 -43 -256 -52v82z" horiz-adv-x="717" unicode="j"/><glyph d="M0 0v1024h307v-512h307q205 23 205 307h307q0 -256 -256 -358q-106 -43 -256 -51q150 -9 256 -52q256 -102 256 -358h-307q0 285 -205 307h-307v-307h-307z" horiz-adv-x="1229" unicode="k"/><glyph d="M0 410v921h307v-1331q-90 8 -153 51q-154 103 -154 359z" horiz-adv-x="512" unicode="l"/><glyph d="M0 0v819h1004q155 -8 266 -51q266 -102 266 -358v-410h-307v410q0 284 -225 307h-82v-717h-308v717h-307v-717h-307z" unicode="m"/><glyph d="M0 0v819h799q155 -8 266 -51q266 -102 266 -358v-410h-307v410q0 284 -225 307h-492v-717h-307z" horiz-adv-x="1536" unicode="n"/><glyph d="M0 410q0 256 256 358q106 43 256 51h512q150 -8 256 -51q256 -102 256 -358t-256 -359q-106 -43 -256 -51h-512q-150 8 -256 51q-256 103 -256 359zM307 410q0 -285 205 -308h512q205 23 205 308q0 284 -205 307h-512q-205 -23 -205 -307z" unicode="o"/><glyph d="M0 -307v717q0 256 256 358q106 43 256 51h512q150 -8 256 -51q256 -102 256 -358t-256 -359q-106 -43 -256 -51h-717v-307h-307zM307 102h717q205 23 205 308q0 284 -205 307h-512q-205 -23 -205 -307v-308z" unicode="p"/><glyph d="M0 410q0 256 256 358q106 43 256 51h512q150 -8 256 -51q256 -102 256 -358v-717h-307v307h-717q-150 8 -256 51q-256 103 -256 359zM307 410q0 -285 205 -308h717v308q0 284 -205 307h-512q-205 -23 -205 -307z" unicode="q"/><glyph d="M0 0v410q0 256 256 358q106 43 256 51h410v-102h-410q-205 -23 -205 -307v-410h-307z" horiz-adv-x="1126" unicode="r"/><glyph d="M0 369v41q0 256 256 358q106 43 256 51h614v-102h-614q-51 -6 -92 -31q-94 -61 -111 -215h1227v-61q0 -256 -256 -359q-106 -43 -256 -51h-614v102h614q55 7 96 33q97 68 107 234h-1227z" unicode="s"/><glyph d="M0 410v921h307v-512h410v-102h-410v-307q0 -285 205 -308h410v-102h-410q-150 8 -256 51q-256 103 -256 359z" horiz-adv-x="1126" unicode="t"/><glyph d="M0 410v409h307v-409q0 -285 225 -308h492v717h307v-819h-799q-155 8 -266 51q-266 103 -266 359z" horiz-adv-x="1536" unicode="u"/><glyph d="M0 410v409h307v-409q0 -285 225 -308q226 23 226 308v409h307v-409q0 -193 -266 -320q-111 -53 -267 -90q-155 37 -266 90q-266 127 -266 320z" horiz-adv-x="1253" unicode="v"/><glyph d="M0 410v409h307v-409q0 -285 205 -308h102v717h308v-717h102q205 23 205 308v409h307v-409q0 -256 -256 -359q-106 -43 -256 -51h-512q-150 8 -256 51q-256 103 -256 359z" unicode="w"/><glyph d="M0 0q0 256 256 358q106 43 256 52q-150 8 -256 51q-256 102 -256 358h307q0 -284 205 -327h205q205 43 205 327h307q0 -256 -256 -358q-107 -43 -256 -51q149 -9 256 -52q256 -102 256 -358h-307q0 285 -205 328h-205q-205 -43 -205 -328h-307z" horiz-adv-x="1434" unicode="x"/><glyph d="M0 410v409h307v-409q0 -285 205 -308h512v717h307v-819q0 -256 -256 -358q-106 -43 -256 -52h-307v103h307q205 22 205 307h-512q-150 8 -256 51q-256 103 -256 359z" horiz-adv-x="1536" unicode="y"/><glyph d="M0 410q0 -256 256 -359q106 -43 256 -51h614v102h-614q-55 7 -96 33q-97 68 -107 234h1227v41q0 256 -256 358q-106 43 -256 51h-614v-102h614q51 -4 92 -31q94 -61 111 -215h-1227v-61z" unicode="z"/><glyph d="M0 676q0 43 29.5 72.5t72.5 29.5v246q0 256 256 358q107 43 256 52v-103q-204 -22 -204 -307v-717q0 -284 204 -307v-102q-149 8 -256 51q-256 102 -256 358v266q-43 0 -72.5 30t-29.5 73z" horiz-adv-x="819" unicode="{"/><glyph d="M0 0v1331h205v-1331h-205z" horiz-adv-x="410" unicode="|"/><glyph d="M0 0q205 23 205 307v717q0 285 -205 307v103q150 -9 256 -52q256 -102 256 -358v-246q43 0 72.5 -29.5t29.5 -72.5t-29.5 -73t-72.5 -30v-266q0 -256 -256 -358q-106 -43 -256 -51v102z" horiz-adv-x="819" unicode="}"/><glyph d="M0 922v102q29 25 102 61q48 11 105 -55q63 -72 98 -72q43 0 105 66v-102q-99 -66 -105 -66q-35 0 -98 72q-57 65 -105 55q-43 -10 -102 -61z" horiz-adv-x="614" unicode="~"/><glyph d="M0 410v102h717v-102h-717z" horiz-adv-x="922" unicode="­"/><glyph horiz-adv-x="818"/><glyph horiz-adv-x="1636"/><glyph horiz-adv-x="818"/><glyph horiz-adv-x="1636"/><glyph horiz-adv-x="545"/><glyph horiz-adv-x="409"/><glyph horiz-adv-x="272"/><glyph horiz-adv-x="272"/><glyph horiz-adv-x="204"/><glyph horiz-adv-x="327"/><glyph horiz-adv-x="90"/><glyph d="M0 410v102h717v-102h-717z" horiz-adv-x="922" unicode="‐"/><glyph d="M0 410v102h717v-102h-717z" horiz-adv-x="922" unicode="‑"/><glyph d="M0 410v102h717v-102h-717z" horiz-adv-x="922" unicode="‒"/><glyph d="M0 410v102h1024v-102h-1024z" horiz-adv-x="1229" unicode="–"/><glyph d="M0 410v102h2048v-102h-2048z" horiz-adv-x="2253" unicode="—"/><glyph horiz-adv-x="327"/><glyph horiz-adv-x="409"/><glyph d="M0 0v820h820v-820h-820z" horiz-adv-x="820" unicode="◼"/></font>
</defs>
</svg>
