<?xml version="1.0" standalone="no"?>
<!DOCTYPE svg PUBLIC "-//W3C//DTD SVG 1.1//EN" "http://www.w3.org/Graphics/SVG/1.1/DTD/svg11.dtd" >
<svg xmlns="http://www.w3.org/2000/svg" xmlns:xlink="http://www.w3.org/1999/xlink" version="1.1">
<metadata></metadata>
<defs>
<font id="sukar-blackblack" horiz-adv-x="1176" >
<font-face units-per-em="2048" ascent="1638" descent="-410" />
<missing-glyph horiz-adv-x="508" />
<glyph unicode="&#x651;&#x64c;" horiz-adv-x="0" arabic-form="isolated" d="M-177 687q101 0 111 -97l2 -22q1 -47 32 -47h1l-4 42q-1 8 -1 17q0 65 48.5 114t125.5 49t128.5 -43.5t51.5 -118t-44.5 -120t-119.5 -50.5l-162 -13q-10 -1 -17 -1q-133 0 -147 145q-5 54 -43 54q-23 0 -70 -22l-22 82q74 31 130 31zM81 587v-6l3 -49l66 5q63 5 63 49v6 q-3 42 -57 42h-14q-61 -5 -61 -47zM-249 224q0 73 70 73q20 0 42 -9l25 -11l-10 -24q-11 -29 -11 -75v-20q0 -62 33 -62h2q34 0 34 62v49q0 73 70 73q20 0 42 -9l25 -11l-10 -25q-11 -28 -11 -74v-3q0 -62 33 -62h4q34 0 34 62v66q0 73 70 73q20 0 42 -9l25 -11l-10 -24 q-11 -29 -11 -75v-21q0 -66 -40 -111.5t-109 -45.5h-5q-53 0 -91 29q-38 -29 -91 -29h-3q-66 0 -107.5 44.5t-41.5 113.5v66z" />
<glyph unicode="&#x651;&#x64d;" horiz-adv-x="0" arabic-form="isolated" d="M-244 677q0 73 70 73q20 0 42 -9l25 -10l-10 -25q-11 -29 -11 -75v-20q0 -62 33 -62h2q34 0 34 62v49q0 73 70 73q20 0 42 -9l25 -11l-10 -25q-11 -28 -11 -74v-3q0 -62 33 -62h4q34 0 34 62v66q0 73 70 73q20 0 42 -9l25 -10l-10 -25q-11 -29 -11 -75v-21 q-1 -66 -40.5 -111.5t-108.5 -45.5h-5q-53 0 -91 29q-38 -29 -91 -29h-3q-66 0 -107.5 44.5t-41.5 113.5v66zM-163 0q-83 0 -83 93q0 22 13 64q49 -15 88 -15t70 3l237 18q12 1 35 1t43.5 -17t25.5 -63v-10q0 -32 -13 -66q-49 15 -88 15t-69 -3h-1l-237 -19q-13 -1 -21 -1z M-163 214q-83 0 -83 93q0 21 13 63q61 -14 94.5 -14t63.5 2l237 19q12 1 35 1t43.5 -17t25.5 -64v-10q0 -30 -13 -66q-49 15 -88 15t-69 -3h-1l-237 -18q-13 -1 -21 -1z" />
<glyph unicode="&#x651;&#x64e;" horiz-adv-x="0" arabic-form="isolated" d="M-244 224q0 73 70 73q20 0 42 -9l25 -11l-10 -24q-11 -29 -11 -75v-20q0 -62 33 -62h2q33 0 33 62v49q0 73 71 73q19 0 42 -9l25 -11l-10 -25q-11 -28 -11 -74v-3q0 -62 33 -62h4q34 0 34 62v66q0 73 70 73q20 0 42 -9l25 -11l-10 -24q-11 -29 -11 -75v-21 q0 -66 -40 -111.5t-109 -45.5h-5q-53 0 -91 29q-38 -29 -91 -29h-3q-66 0 -108 44q-41 44 -41 114v66zM165 405q-39 0 -69 -3h-1l-237 -18q-10 -1 -34 -1t-47 19t-23 57t13 80q65 -15 96 -15t62 3l237 19q10 1 34 1t44.5 -17t25.5 -64v-9q0 -25 -13 -67q-49 15 -88 15z" />
<glyph unicode="&#x651;&#x64f;" horiz-adv-x="0" arabic-form="isolated" d="M-159 518h23l55 4l-5 41v14q0 68 48 117t125.5 49t129 -44t51.5 -117.5t-44.5 -119.5t-119.5 -51l-163 -13l-110 -8q-7 -1 -24 -1q-53 0 -53 78q0 20 13 62q36 -11 74 -11zM95 634q-65 0 -65 -47v-6l4 -49l65 5q64 4 64 50v5q-3 42 -68 42zM-244 224q0 73 70 73 q20 0 43 -9l25 -11l-10 -24q-12 -29 -12 -75v-20q0 -62 34 -62h2q33 0 33 62v49q0 73 70 73q20 0 43 -9l24 -11l-9 -25q-12 -28 -12 -74v-3q0 -62 34 -62h4q33 0 33 62v66q0 73 71 73q20 0 42 -9l25 -11l-10 -24q-11 -29 -11 -75v-21q-1 -66 -40.5 -111.5t-108.5 -45.5h-6 q-52 0 -91 29q-37 -29 -91 -29h-3q-65 0 -107 44.5t-42 113.5v66z" />
<glyph unicode="&#x651;&#x650;" horiz-adv-x="0" arabic-form="isolated" d="M-244 463q0 74 70 74q20 0 42 -10l25 -10l-10 -25q-11 -28 -11 -74v-21q0 -62 33 -62h2q33 0 33 62v49q0 73 70 73q20 0 43 -9l25 -10l-10 -25q-11 -29 -11 -75v-3q0 -62 33 -62h4q34 0 34 62v66q0 74 70 74q20 0 42 -10l25 -10l-10 -25q-11 -28 -11 -74v-21 q-1 -67 -40.5 -112t-108.5 -46h-5q-53 0 -91 30q-38 -29 -91 -30h-3q-66 0 -107.5 44.5t-41.5 113.5v66zM-163 0q-83 0 -83 93q0 22 13 64q49 -15 88.5 -15t69.5 3l237 18q11 1 34.5 1t44 -17t25.5 -63v-10q0 -32 -13 -66q-49 15 -88 15t-69 -3h-1l-237 -19q-13 -1 -21 -1z " />
<glyph unicode="&#x651;&#x64b;" horiz-adv-x="0" arabic-form="isolated" d="M-242 224q0 73 70 73q20 0 42 -9l25 -10l-10 -25q-11 -29 -11 -75v-20q0 -62 33 -62h2q34 0 34 62v49q0 73 70 73q19 0 42 -9l25 -11l-10 -25q-11 -28 -11 -74v-3q0 -62 33 -62h4q34 0 34 62v66q0 73 70 73q20 0 42 -9l25 -10l-10 -25q-11 -29 -11 -75v-21 q0 -66 -40 -111.5t-109 -45.5h-5q-53 0 -91 29q-38 -29 -91 -29h-3q-66 0 -108 44q-41 45 -41 114v66zM-161 383q-83 0 -83 93q0 21 13 63q65 -15 96 -15t62 3l237 19q12 1 34.5 1t43.5 -17t26 -64v-10q0 -30 -13 -66q-49 15 -87.5 15t-69.5 -3l-238 -18q-11 -1 -21 -1z M167 619q-39 0 -69 -3l-238 -19q-10 -1 -34 -1t-47 19t-23 57.5t13 80.5q49 -15 88 -15t70 3l237 19q10 1 34 1t44.5 -17t25.5 -64v-10q0 -32 -13 -66q-49 15 -88 15z" />
<glyph unicode="&#xfedf;&#xfee0;&#xfeea;" horiz-adv-x="2632" arabic-form="isolated" d="M1603 1797q-1 81 67 81q31 0 74 -18q-23 -54 -23 -127v-64q-1 -81 -69 -81q-30 0 -72 18q23 64 23 127v64zM1779 1450q0 73 70 73q20 0 43 -9l24 -10l-9 -25q-12 -29 -12 -75v-21q0 -65 -40 -111t-109 -46h-5q-53 0 -91 29q-38 -29 -91 -29h-3q-65 0 -107 44t-42 114v66 q0 73 70 73q20 0 43 -9l24 -10l-10 -25q-11 -29 -11 -75v-20q0 -62 34 -62h2q33 0 33 62v49q0 73 70 73q20 0 43 -10l24 -10l-10 -25q-11 -28 -11 -74v-3q0 -62 34 -62h4q33 0 33 62v66zM2369 1375q95 0 191 -29q-37 -133 -37 -322v-525q-1 -215 -131 -357t-350 -142h-94 q-193 0 -322 115q-129 -115 -323 -115h-101q-194 0 -322 115q-129 -115 -338 -115q-210 0 -340 142t-130 357q0 213 130 357t351 144h484v-501q0 -299 166 -299h98q166 0 166 299v485q0 161 163 161q96 0 191 -29q-37 -132 -37 -321v-296q0 -299 166 -299h90q166 0 166 299 v715q0 161 163 161zM721 800h-167q-166 0 -166 -300q0 -132 43 -216t124 -84t123 84t43 216v300z" />
<glyph unicode="&#xfedf;&#xfe82;" horiz-adv-x="1264" arabic-form="isolated" d="M273 1542q0 59 71 96q49 26 81.5 26t45.5 -2h2l1 -1l123 -46q40 4 56 51q3 9 5 11l4 11l11 -4q88 -23 92 -79v-7q0 -59 -85 -104q-36 -19 -67.5 -19t-45.5 2h-1l-125 47q-36 -3 -60 -62l-5 -11q-99 27 -103 83v8zM1068 1375q95 0 191 -29q-37 -132 -37 -322v-525 q-1 -214 -130.5 -356.5t-350.5 -142.5h-435q-162 0 -203 94q-7 17 -7 36q0 60 75 137q65 -67 181 -67h387q166 0 166 299v715q0 161 163 161zM677 494q0 -161 -162 -161q-95 0 -191 29q37 132 37 322v530q0 161 163 161q94 0 191 -30q-38 -132 -38 -321v-530z" />
<glyph unicode="&#xfee0;&#xfe82;" horiz-adv-x="1417" arabic-form="final" d="M273 1542q0 59 71 96q49 26 81.5 26t45.5 -2h2l1 -1l123 -46q39 4 57 51q2 10 8 22l11 -4q88 -23 92 -79v-7q0 -59 -85 -104q-36 -19 -67.5 -19t-45.5 2h-1l-125 47q-36 -3 -60 -62l-5 -11q-99 27 -103 83v8zM1438 200v-200h-52q-194 0 -322 116q-129 -116 -323 -116 h-435q-162 0 -203 94q-7 17 -7 36q0 60 75 137q64 -67 177 -67h391q166 0 166 299v715q0 161 163 161q95 0 191 -30q-37 -131 -37 -321v-526q0 -298 166 -298h50zM677 494q0 -161 -162 -161q-95 0 -192 29q38 132 38 322v530q0 161 163 161q94 0 191 -30q-38 -132 -38 -321 v-530z" />
<glyph unicode="&#xfedf;&#xfe84;" horiz-adv-x="1258" arabic-form="isolated" d="M641 1475h-199q-18 0 -26.5 -5t-21.5 -60q-64 16 -77.5 31t-13.5 42q0 54 54 84q18 10 36 15q-14 36 -14 95t47 112t126 53h1q52 -1 91 -22q57 -29 57 -83t-61 -67l-20 -4l-12 -2q-13 53 -22.5 58.5t-28.5 5.5h-5q-36 0 -36 -69.5t36 -69.5h78q13 0 19 5l23 25l24 -24 q28 -30 28 -48q0 -72 -83 -72zM1062 1375q94 0 191 -29q-37 -133 -37 -322v-525q-1 -214 -131 -356.5t-350 -142.5h-435q-162 0 -203 94q-7 17 -7 36q0 60 75 137q65 -67 181 -67h387q82 0 124 83.5t42 215.5v715q0 161 163 161zM671 494q0 -161 -162 -161q-95 0 -192 29 q38 132 38 322v530q0 161 162 161q95 0 192 -30q-38 -131 -38 -321v-530z" />
<glyph unicode="&#xfee0;&#xfe84;" horiz-adv-x="1417" arabic-form="final" d="M647 1475h-199q-18 0 -26.5 -5t-21.5 -60q-64 16 -78 31t-14 42q0 54 55 84q18 10 36 15q-14 36 -14 95t47 112t126 53h1q52 -1 91 -22q57 -29 57 -83t-61 -67l-20 -4l-12 -2q-13 53 -22.5 58.5t-29.5 5.5h-4q-36 0 -36 -69.5t36 -69.5h78q13 0 19 5l14 16l9 9l24 -24 q28 -30 28 -48q0 -72 -83 -72zM1438 200v-200h-52q-194 0 -323 116q-128 -116 -322 -116h-435q-162 0 -203 94q-7 17 -7 36q0 61 75 137q64 -67 177 -67h391q166 0 166 299v715q0 161 163 161q95 0 191 -30q-37 -131 -37 -321v-526q0 -298 166 -298h50zM677 494 q0 -161 -163 -161q-94 0 -191 29q38 132 38 322v530q0 161 162 161q95 0 192 -30q-38 -132 -38 -321v-530z" />
<glyph unicode="&#xfedf;&#xfe88;" horiz-adv-x="1264" arabic-form="isolated" d="M601 -464h-199q-18 0 -26.5 -5t-21.5 -59q-58 10 -74.5 27.5t-16.5 44.5q0 54 54 84q18 10 36 15q-14 36 -14 95t47 112t113 52.5t114 -25.5t48 -79t-61 -67l-20 -4l-12 -2q-13 52 -22.5 58t-28.5 7h-4q-37 0 -37 -70t37 -70h77q14 0 19 5l24 25l23 -24q28 -28 28 -47 t-5 -30q-18 -43 -78 -43zM1068 1374q95 0 191 -29q-37 -132 -37 -322v-524q-1 -214 -130.5 -356.5t-350.5 -142.5h-435q-162 0 -203 94q-7 17 -7 36q0 60 75 136q65 -67 181 -67h387q166 0 166 300v714q0 161 163 161zM677 494q0 -161 -162 -161q-95 0 -192 29 q38 131 38 321v530q0 161 162 161q95 0 192 -29q-38 -132 -38 -322v-529z" />
<glyph unicode="&#xfee0;&#xfe88;" horiz-adv-x="1417" arabic-form="final" d="M339 -262q0 59 47.5 112t126.5 53h1q51 -1 99 -26t48 -79.5t-61 -66.5l-20 -4l-12 -2q-9 51 -20 57.5t-31 7.5h-4q-37 0 -37 -70t37 -70h77q14 0 19 5l24 25l24 -24q28 -30 28 -48t-5 -29q-19 -43 -79 -43h-198q-18 0 -28.5 -6.5t-19.5 -57.5l-33 6q-59 13 -59 74t90 91 q-14 36 -14 95zM1438 199v-199h-52q-194 0 -323 115q-128 -115 -322 -115h-435q-162 0 -203 94q-7 17 -7 36q0 60 75 136q65 -67 181 -67h387q166 0 166 300v714q0 161 163 161q95 0 191 -29q-37 -132 -37 -321v-526q0 -299 166 -299h50zM677 494q0 -161 -163 -161 q-94 0 -191 29q38 132 38 321v530q0 161 162 161q95 0 192 -29q-38 -132 -38 -322v-529z" />
<glyph unicode="&#xfedf;&#xfe8e;" horiz-adv-x="1264" arabic-form="isolated" d="M1068 1374q95 0 191 -29q-37 -132 -37 -322v-524q0 -215 -130 -357t-351 -142h-435q-162 0 -203 94q-7 17 -7 36q0 60 75 136q65 -67 181 -67h387q166 0 166 300v714q0 161 163 161zM677 494q0 -161 -162 -161q-95 0 -192 29q38 131 38 321v530q0 161 162 161 q95 0 192 -29q-38 -132 -38 -322v-529z" />
<glyph unicode="&#xfee0;&#xfe8e;" horiz-adv-x="1417" arabic-form="final" d="M1438 199v-199h-52q-194 0 -323 115q-128 -115 -322 -115h-435q-162 0 -203 94q-7 17 -7 36q0 60 75 136q65 -67 181 -67h387q166 0 166 300v714q0 161 163 161q95 0 191 -29q-37 -132 -37 -321v-526q0 -299 166 -299h50zM677 494q0 -161 -163 -161q-94 0 -191 29 q38 132 38 321v530q0 161 162 161q95 0 192 -29q-38 -132 -38 -322v-529z" />
<glyph unicode="&#x622;" horiz-adv-x="682" arabic-form="final" d="M76 1541q0 60 71 97q50 26 82 26t46 -2h1l1 -1l123 -46q40 4 57 51l8 22l12 -4q88 -25 92 -79v-5q0 -61 -86 -106q-36 -19 -67.5 -19t-44.5 2h-2l-1 1l-123 46q-40 -3 -65 -73q-100 25 -104 83v7zM699 200v-200h-52q-220 0 -350 142.5t-131 356.5v714q0 162 163 162 q95 0 191 -30q-37 -132 -37 -321v-525q0 -299 166 -299h50z" />
<glyph unicode="&#x623;" horiz-adv-x="661" arabic-form="final" d="M428 1475h-199q-18 0 -27 -5.5t-21 -59.5q-63 16 -77 31t-14 42q0 54 54 84q18 10 36 15q-14 36 -14 95t47 112t113 52.5t105 -21.5q57 -29 57 -83t-61 -67l-20 -4l-12 -2q-13 52 -22.5 58t-28.5 6h-4q-37 0 -37 -69.5t37 -69.5h77q13 0 19 5l23 25l24 -24q28 -27 28 -47 q0 -72 -83 -73zM678 200v-200h-52q-221 0 -350.5 142.5t-130.5 356.5v714q0 162 163 162q95 0 191 -30q-37 -132 -37 -321v-525q0 -299 166 -299h50z" />
<glyph unicode="&#x624;" horiz-adv-x="1309" arabic-form="final" d="M749 1122h-198q-18 0 -29 -6.5t-19 -58.5q-64 16 -78 31t-14 42q0 54 55 84q17 9 36 14q-14 36 -14 95.5t47 112t126 52.5h1q52 0 99.5 -25.5t47.5 -79.5t-60 -66l-20 -4l-12 -2q-13 52 -22.5 58t-29.5 6h-4q-37 0 -37 -70t37 -70h78q13 0 19 6l23 24l24 -24 q28 -28 28 -47q0 -72 -84 -72zM1325 0h-220q-1 -213 -131 -355t-350 -142h-130q-162 0 -203 95q-7 17 -7 36q0 60 75 136q66 -67 181 -67h82q166 0 167 297h-168q-222 0 -351.5 143.5t-129.5 358t130.5 356.5t353 142t352 -142t129.5 -356v-302h220v-200zM789 500 q0 132 -42.5 216.5t-123.5 84.5t-124 -85t-43 -216q0 -300 166 -300h167v300z" />
<glyph unicode="&#x625;" horiz-adv-x="684" arabic-form="final" d="M72 -456q0 71 90 99q-14 36 -14 95t47 112t113 52.5t114 -25.5t48 -79t-61 -67l-20 -4l-12 -2q-13 52 -22.5 58t-28.5 7h-4q-37 0 -37 -70t36 -70h78q13 0 19 5l23 25l24 -24q28 -28 28 -47t-5 -30q-18 -43 -78 -43h-199q-18 0 -26.5 -5.5t-21.5 -58.5q-59 10 -75 27.5 t-16 44.5zM700 199v-199h-52q-220 0 -349.5 142.5t-130.5 356.5v714q0 161 162 161q95 0 192 -29q-38 -132 -38 -321v-525q0 -300 166 -300h50z" />
<glyph unicode="&#x626;" horiz-adv-x="1705" arabic-form="final" d="M410 633h-199q-35 0 -41 -32l-4 -20l-3 -13q-63 16 -77 31t-14 42q0 54 54 84q17 9 36 14q-14 36 -14 95.5t47 112t113 52.5t105 -21q57 -29 57 -83t-61 -67l-20 -4l-12 -2l-2 12l-5 20q-4 20 -14.5 26t-29.5 6h-4q-37 0 -37 -70t37 -70h77q14 0 19 6l15 15l8 9l24 -24 q28 -26 28 -46q0 -73 -83 -73zM1725 0h-193q-63 -217 -252.5 -357t-436.5 -140h-4q-299 0 -506.5 198t-207.5 479v191q0 161 162 161q95 0 192 -29q-38 -133 -38 -322v-1q0 -207 102 -342t298 -135q295 0 377 297h-138q-162 0 -203 95q-7 17 -7 36q0 60 75 136 q65 -67 181 -67h599v-200z" />
<glyph unicode="&#x626;" horiz-adv-x="570" arabic-form="initial" d="M481 1101h-198q-18 -1 -28 -7t-14 -25l-4 -21l-2 -12l-12 2l-21 5q-59 11 -59 65.5t55 83.5q17 10 36 15q-14 36 -14 95t46.5 112t126.5 53h1q52 -1 99.5 -26t47.5 -80t-60 -65l-21 -4l-12 -2q-8 50 -19.5 57t-31.5 7h-4q-37 0 -37 -70t37 -70h78q13 0 18 6l24 24l24 -24 q28 -28 28 -47q0 -72 -84 -72zM512 649v-150q-1 -214 -130.5 -356.5t-350.5 -142.5h-51v200h49q166 0 167 299v340q0 161 162 161q95 0 192 -29q-38 -132 -38 -322z" />
<glyph unicode="&#x626;" horiz-adv-x="709" arabic-form="medial" d="M143 1109q0 70 91 99q-14 36 -14 95t47 112t126 53h1q52 -1 100 -26t48 -79t-61 -67l-20 -4l-12 -2q-13 53 -22.5 58.5t-28.5 5.5h-5q-36 0 -36 -69.5t36 -69.5h78q13 0 19 5l14 16l9 9l24 -24q28 -30 28 -48q0 -72 -83 -72h-199q-18 0 -28 -6t-13 -26l-5 -20l-2 -12 q-59 10 -75.5 27.5t-16.5 44.5zM728 200v-200h-51q-194 0 -323 115q-129 -115 -323 -115h-51v200h49q166 0 167 299v340q0 161 162 161q95 0 192 -29q-38 -133 -38 -322v-150q1 -299 166 -299h50z" />
<glyph unicode="&#x627;" horiz-adv-x="666" arabic-form="final" d="M682 200v-200h-51q-221 0 -351 142t-130 357v714q0 162 162 162q95 0 192 -30q-38 -132 -38 -321v-525q0 -299 166 -299h50z" />
<glyph unicode="&#x628;" horiz-adv-x="1935" arabic-form="final" d="M1957 200v-200h-52q-194 0 -323 116q-128 -116 -322 -116h-707q-221 0 -350.5 143t-130.5 356v193q0 161 162 161q96 0 192 -29q-38 -132 -38 -322v-3q0 -299 166 -299h704q166 0 166 299v340q0 161 163 161q95 0 191 -29q-37 -132 -37 -322v-150q0 -299 166 -299h50z M760 -328.5q0 72.5 50.5 121.5t117.5 49t115 -49t48 -120.5t-50.5 -120.5t-117.5 -49t-115 48t-48 120.5z" />
<glyph unicode="&#x628;" horiz-adv-x="639" arabic-form="initial" d="M516 649v-150q-1 -213 -130.5 -356t-350.5 -143h-51v200h50q166 0 166 299v340q0 161 162 161q96 0 192 -29q-38 -133 -38 -322zM184 -328.5q0 72.5 50 121.5q51 49 118 49t115 -49t48 -120.5t-50.5 -120.5t-117.5 -49t-115 48t-48 120.5z" />
<glyph unicode="&#x628;" horiz-adv-x="717" arabic-form="medial" d="M732 200v-200h-51q-195 0 -323 116q-129 -116 -323 -116h-51v200h50q166 0 166 299v340q0 161 162 161q96 0 192 -29q-38 -132 -38 -322v-150q1 -299 166 -299h50zM192 -328.5q0 72.5 50.5 121.5t118 49t115.5 -49t48 -120.5t-51 -120.5t-118 -49t-115 48t-48 120.5z" />
<glyph unicode="&#x629;" horiz-adv-x="1237" arabic-form="final" d="M216 1284.5q0 72.5 51 121.5t118 49t115 -49t48 -120.5t-51 -120.5t-118 -49t-115 48t-48 120.5zM956 1285.5q0 -71.5 -50.5 -120.5t-117.5 -49t-115 48.5t-48 120.5t50 121q51 49 118 49t115 -49t48 -120.5zM1253 200v-200h-52q-193 0 -321 115q-129 -115 -338 -115 t-339.5 142.5t-130.5 356.5t129.5 357.5t351.5 143.5h484v-501q0 -299 166 -299h50zM721 800h-167q-82 0 -124 -84t-42 -215.5t43 -216t124 -84.5t123.5 84t42.5 216v300z" />
<glyph unicode="&#x62a;" horiz-adv-x="1939" arabic-form="final" d="M1957 200v-200h-52q-194 0 -323 116q-129 -116 -322 -116h-707q-221 0 -351 142.5t-130 356.5v193q0 161 162 161q96 0 191 -29q-37 -133 -37 -322v-3q0 -299 166 -299h704q166 0 166 299v340q0 161 163 161q95 0 191 -29q-38 -132 -38 -322v-150q1 -299 167 -299h50z M567 1284.5q0 72.5 50 121.5q51 49 118 49t115 -49t48 -120.5t-50.5 -120.5t-117.5 -49t-115 48t-48 120.5zM975 1284.5q0 72.5 51 121.5t118 49t115 -49t48 -120.5t-51 -120.5t-118 -49t-115 48t-48 120.5z" />
<glyph unicode="&#x62a;" horiz-adv-x="756" arabic-form="initial" d="M636 649v-150q-1 -214 -130.5 -356.5t-350.5 -142.5h-171v200h169q166 0 167 299v340q0 161 162 161q96 0 191 -29q-37 -133 -37 -322zM342 1285.5q0 -71.5 -50.5 -120.5t-118 -49t-115.5 48t-48 120.5t51 121.5t118 49t115 -49t48 -120.5zM419 1284.5q0 72.5 51 121.5 t117.5 49t115 -49t48.5 -120.5t-51 -120.5t-118 -49t-115 48t-48 120.5z" />
<glyph unicode="&#x62a;" horiz-adv-x="786" arabic-form="medial" d="M802 200v-200h-86q-194 0 -323 116q-129 -116 -323 -116h-86v200h85q166 0 166 299v340q0 161 163 161q95 0 191 -29q-38 -132 -38 -322v-150q1 -299 166 -299h85zM23 1284.5q0 72.5 50.5 121.5t118 49t115.5 -49t48 -120.5t-51 -120.5t-118 -49t-115 48t-48 120.5z M763 1285.5q0 -71.5 -50.5 -120.5t-118 -49t-115 48t-47.5 120.5t50 121.5q51 49 118 49t115 -49t48 -120.5z" />
<glyph unicode="&#x62b;" horiz-adv-x="1939" arabic-form="final" d="M1957 200v-200h-52q-194 0 -323 115q-128 -115 -323 -115h-706q-221 0 -351 142.5t-130 356.5v193q0 161 162 161q95 0 192 -29q-38 -133 -38 -322v-3q1 -299 166 -299h704q166 0 166 299v340q0 161 163 161q95 0 191 -29q-38 -132 -38 -322v-151q1 -298 167 -298h50z M567 1284.5q0 72.5 50 121.5q51 49 118 49t115 -49t48 -120.5t-50.5 -120.5t-117.5 -49t-115 48t-48 120.5zM975 1284.5q0 72.5 51 121.5t118 49t115 -49t48 -120.5t-50.5 -120.5t-118 -49t-115.5 48t-48 120.5zM771 1630.5q0 72.5 50.5 121.5t117.5 49t115.5 -49 t48.5 -120.5t-51 -120.5t-118 -49t-115 48t-48 120.5z" />
<glyph unicode="&#x62b;" horiz-adv-x="839" arabic-form="initial" d="M303 1630.5q0 72.5 50 121.5q51 49 118 49t115 -49t48 -120.5t-50.5 -120.5t-117.5 -49t-115 48t-48 120.5zM724 649v-150q-1 -214 -130.5 -356.5t-350.5 -142.5h-253v200h251q166 0 167 299v340q0 161 162 161q95 0 191 -29q-37 -132 -37 -322zM430 1285.5 q0 -71.5 -50.5 -120.5t-118 -49t-115.5 48.5t-48 120.5t51 121t118 49t115 -49t48 -120.5zM507 1284.5q0 72.5 51 121.5t118 49t115 -49t48 -120.5t-51 -120.5t-118 -49t-115 48t-48 120.5z" />
<glyph unicode="&#x62b;" horiz-adv-x="963" arabic-form="medial" d="M315 1630.5q0 72.5 51 121.5t118 49t115 -49t48 -120.5t-51 -120.5t-118 -49t-115 48t-48 120.5zM972 200v-200h-168q-194 0 -323 115q-129 -115 -323 -115h-168v200h167q165 0 166 299v340q0 161 163 161q95 0 191 -29q-38 -132 -38 -322v-151q1 -298 167 -298h166z M111 1284.5q0 72.5 50.5 121.5t117.5 49t115.5 -49t48.5 -120.5t-51 -120.5t-118 -49t-115 48t-48 120.5zM520 1284.5q0 72.5 50 121.5q51 49 118 49t115 -49t48 -120.5t-50.5 -120.5t-117.5 -49t-115 48t-48 120.5z" />
<glyph unicode="&#x62c;" horiz-adv-x="1280" arabic-form="final" d="M694 -221.5q0 72.5 51 121t117.5 48.5t114.5 -48.5t48 -120.5t-50.5 -120.5t-117.5 -48.5t-115 48t-48 120.5zM1311 200v-200h-916q-54 0 -88.5 -35t-34.5 -113t34.5 -113t88.5 -36h29q116 0 181 67q76 -76 76 -136q0 -19 -7 -36q-41 -95 -203 -95h-75q-133 0 -228 92 t-96 255v4q1 162 96 254t225 92h359q-27 106 -27 232v151q0 117 -30 171.5t-126.5 54.5t-125.5 -21q-46 -34 -57 -139q-181 6 -181 154q0 95 93 140q119 57 265 57q277 0 378 -80.5t101 -274.5v-287q0 -90 6 -158h263z" />
<glyph unicode="&#x62c;" horiz-adv-x="1030" arabic-form="initial" d="M-19 0v200h721q-27 106 -27 232v151q0 117 -30 171.5t-126.5 54.5t-125.5 -21q-46 -34 -57 -139q-181 6 -181 154q0 95 93 140q119 57 265 57q277 0 378 -80.5t101 -274.5v-287q0 -209 31 -303q-74 -55 -169 -55h-873zM456 -328.5q0 72.5 51 121.5t118 49t115 -49 t48 -120.5t-51 -120.5t-118 -49t-115 48t-48 120.5z" />
<glyph unicode="&#x62c;" horiz-adv-x="1237" arabic-form="medial" d="M1267 200v-200h-1286v200h721q-27 106 -27 232v151q0 117 -30 171.5t-126.5 54.5t-125.5 -21q-46 -34 -57 -139q-181 6 -181 154q0 95 93 140q119 57 265 57q277 0 378 -80.5t101 -274.5v-287q0 -90 6 -158h269zM456 -328.5q0 72.5 51 121.5t118 49t115 -49t48 -120.5 t-51 -120.5t-118 -49t-115 48t-48 120.5z" />
<glyph unicode="&#x62d;" horiz-adv-x="1280" arabic-form="final" d="M1311 200v-200h-916q-54 0 -88.5 -35t-34.5 -113t34.5 -113t88.5 -36h139q116 0 181 67q76 -76 76 -136q0 -19 -7 -36q-41 -95 -203 -95h-185q-133 0 -228 92t-96 255v4q1 162 96 254t225 92h359q-27 106 -27 232v151q0 117 -30 171.5t-126.5 54.5t-125.5 -21 q-46 -34 -57 -139q-181 6 -181 154q0 95 93 140q119 57 265 57q277 0 378 -80.5t101 -274.5v-287q0 -90 6 -158h263z" />
<glyph unicode="&#x62d;" horiz-adv-x="1030" arabic-form="initial" d="M-19 0v200h721q-27 106 -27 232v151q0 117 -30 171q-31 54 -127 55q-96 0 -125 -21q-46 -34 -57 -139q-181 6 -181 154q0 95 93 140q119 57 265 57q277 0 378 -80t101 -275v-287q0 -209 31 -303q-74 -55 -169 -55h-873z" />
<glyph unicode="&#x62d;" horiz-adv-x="1237" arabic-form="medial" d="M1267 200v-200h-1286v200h721q-27 106 -27 232v151q0 117 -30 171.5t-126.5 54.5t-125.5 -21q-46 -34 -57 -139q-181 6 -181 154q0 95 93 140q119 57 265 57q277 0 378 -80.5t101 -274.5v-287q0 -90 6 -158h269z" />
<glyph unicode="&#x62e;" horiz-adv-x="1280" arabic-form="final" d="M1311 200v-200h-916q-54 0 -88.5 -35t-34.5 -113t34.5 -113t88.5 -36h139q116 0 181 67q76 -76 76 -136q0 -19 -7 -36q-41 -95 -203 -95h-185q-133 0 -228 92t-96 255v4q1 162 96 254t225 92h359q-27 106 -27 232v151q0 117 -30 171.5t-126.5 54.5t-125.5 -21 q-46 -34 -57 -139q-181 6 -181 154q0 95 93 140q119 57 265 57q277 0 378 -80.5t101 -274.5v-287q0 -90 6 -158h263zM435 1285.5q0 72.5 50.5 121.5t117.5 49t115 -49t48 -121t-50.5 -120.5t-117.5 -48.5t-115 48t-48 120.5z" />
<glyph unicode="&#x62e;" horiz-adv-x="1030" arabic-form="initial" d="M-19 0v200h721q-27 106 -27 232v151q0 117 -30 171.5t-126.5 54.5t-125.5 -21q-46 -34 -57 -139q-181 6 -181 154q0 95 93 140q119 57 265 57q277 0 378 -80.5t101 -274.5v-287q0 -209 31 -303q-74 -55 -169 -55h-873zM387 1285.5q0 72.5 50.5 121.5t117.5 49t115 -49 t48 -120.5t-50.5 -120.5t-117.5 -49t-115 48t-48 120.5z" />
<glyph unicode="&#x62e;" horiz-adv-x="1237" arabic-form="medial" d="M1267 200v-200h-1286v200h721q-27 106 -27 232v151q0 117 -30 171.5t-126.5 54.5t-125.5 -21q-46 -34 -57 -139q-181 6 -181 154q0 95 93 140q119 57 265 57q277 0 378 -80.5t101 -274.5v-287q0 -90 6 -158h269zM390 1285.5q0 72.5 51 121.5t118 49t115 -49t48 -120.5 t-50.5 -120.5t-118 -49t-115.5 48t-48 120.5z" />
<glyph unicode="&#x62f;" horiz-adv-x="1279" arabic-form="final" d="M1295 200v-200h-52q-193 0 -322 115q-128 -114 -324 -115h-237q-162 0 -203 94q-7 17 -7 36q0 61 75 137q64 -67 177 -67h195q165 1 165 299t-166 301h-17q-98 0 -133 -22q-65 -43 -67 -150q-153 18 -153 168q0 84 97 144t265 60h8q224 0 354 -142t129 -357v-2 q0 -299 166 -299h50z" />
<glyph unicode="&#x630;" horiz-adv-x="1279" arabic-form="final" d="M1295 200v-200h-52q-193 0 -322 115q-127 -114 -324 -115h-237q-162 0 -203 94q-7 17 -7 36q0 60 75 137q64 -67 177 -67h195q166 1 166 299t-167 301h-17q-98 0 -132 -22q-66 -43 -68 -150q-153 18 -153 168q0 85 97 144.5t265 59.5h8q224 0 353.5 -142t129.5 -357v-2 q0 -299 166 -299h50zM420 1284.5q0 72.5 50 121.5q51 49 118 49t115 -49t48 -120.5t-50.5 -120.5t-117.5 -49t-115 48t-48 120.5z" />
<glyph unicode="&#x631;" horiz-adv-x="868" arabic-form="final" d="M892 0h-220q-1 -213 -131 -355t-350 -142h-52q-161 0 -202 95q-7 17 -7 36q0 60 75 136q65 -67 181 -67h3q166 0 167 299v837q0 161 162 161q95 0 192 -29q-38 -132 -38 -322v-449h220v-200z" />
<glyph unicode="&#x632;" horiz-adv-x="868" arabic-form="final" d="M892 0h-220q-1 -213 -130.5 -355t-350.5 -142h-51q-162 0 -203 95q-7 17 -7 36q0 60 75 136q65 -67 181 -67h3q167 0 167 299v837q0 161 163 161q94 0 191 -29q-38 -132 -38 -322v-449h220v-200zM518 1454q67 0 115 -48.5t48 -120t-50.5 -120.5t-118 -49t-115 48 t-47.5 120t50 122q51 48 118 48z" />
<glyph unicode="&#x633;" horiz-adv-x="3080" arabic-form="final" d="M3097 200v-200h-51q-195 0 -323 116q-129 -116 -323 -116h-78q-194 0 -322 116q-129 -116 -323 -116h-277q-56 -220 -231 -358t-420 -139h-4q-295 0 -484 196t-189 481v191q0 161 162 161q95 0 192 -29q-38 -132 -38 -322v-1q1 -477 359 -477t359 477v512q0 161 162 161 q95 0 191 -29q-37 -133 -37 -322v-302h253q166 0 166 299v193q0 161 163 161q95 0 191 -29q-37 -131 -37 -316v-9q0 -299 166 -299h75q165 0 166 299v340q0 161 163 161q94 0 191 -29q-38 -131 -38 -322v-150q0 -299 166 -299h50z" />
<glyph unicode="&#x633;" horiz-adv-x="2007" arabic-form="initial" d="M1811 1000q95 0 191 -29q-37 -133 -37 -322v-150q-1 -215 -131 -357t-350 -142h-78q-194 0 -323 115q-128 -115 -322 -115h-80q-195 0 -323 115q-129 -115 -323 -115h-51v200h50q165 0 166 299v193q0 161 162 161q95 0 191 -29q-36 -130 -37 -316v-9q0 -299 166 -299h77 q166 0 166 299v193q0 161 163 161q95 0 191 -29q-37 -131 -37 -316v-9q0 -299 166 -299h74q166 0 167 299v340q0 161 162 161z" />
<glyph unicode="&#x633;" horiz-adv-x="2165" arabic-form="medial" d="M2181 200v-200h-51q-195 0 -323 115q-129 -115 -323 -115h-78q-194 0 -322 115q-129 -115 -323 -115h-80q-195 0 -323 115q-129 -115 -323 -115h-51v200h50q165 0 166 299v193q0 161 162 161q95 0 192 -29q-37 -131 -38 -316v-9q1 -299 166 -299h77q166 0 166 299v193 q0 161 163 161q95 0 191 -29q-37 -131 -37 -316v-9q0 -299 166 -299h74q166 0 167 299v340q0 161 162 161q95 0 191 -29q-37 -132 -37 -322v-150q0 -299 166 -299h50z" />
<glyph unicode="&#x634;" horiz-adv-x="3080" arabic-form="final" d="M3097 200v-200h-51q-194 0 -323 116q-128 -116 -323 -116h-78q-194 0 -322 116q-129 -116 -323 -116h-277q-56 -220 -231 -358.5t-420 -138.5h-4q-295 0 -483.5 196t-189.5 481v191q0 161 162 161q95 0 192 -29q-38 -133 -38 -322v-1q0 -477 358.5 -477t359.5 477v512 q0 161 162 161q95 0 192 -29q-38 -132 -38 -322v-302h253q166 0 166 299v193q0 161 163 161q95 0 191 -29q-37 -131 -37 -316v-9q0 -299 166 -299h75q166 0 166 299v340q0 161 163 161q94 0 191 -29q-38 -132 -38 -322v-150q0 -299 166 -299h50zM1838 1630.5 q0 72.5 50 121.5q51 49 118 49t115 -49t48 -120.5t-50.5 -120.5t-117.5 -49t-115 48t-48 120.5zM1633 1285.5q0 72.5 51 121t118 48.5t115 -49t48 -120t-51 -120t-118 -49t-115 48t-48 120.5zM2042 1285q0 72 50.5 121t117.5 49t115 -48.5t48 -120t-50.5 -120.5t-117.5 -49 t-115 48t-48 120z" />
<glyph unicode="&#x634;" horiz-adv-x="2008" arabic-form="initial" d="M1253 1631.5q0 -71.5 -50.5 -120.5t-117.5 -49t-115 48t-48 120.5t50 121.5q51 49 118 49t115 -49t48 -120.5zM880 1116q-67 0 -115 48t-48 120.5t51 121.5t118 49t115 -49t48 -120.5t-51 -120.5t-118 -49zM1126 1284.5q0 72.5 50.5 121.5t117.5 49t115.5 -49 t48.5 -120.5t-51 -120.5t-118 -49t-115 48t-48 120.5zM1811 1000q94 0 192 -29q-38 -132 -38 -322v-150q-1 -214 -130.5 -356.5t-350.5 -142.5h-78q-194 0 -323 115q-128 -115 -322 -115h-80q-194 0 -323 115q-129 -115 -323 -115h-51v200h50q165 0 166 299v193 q0 161 162 161q95 0 192 -29q-37 -130 -38 -316v-9q1 -299 166 -299h77q166 0 166 299v193q0 161 163 161q95 0 191 -29q-37 -130 -37 -316v-9q0 -299 166 -299h74q167 0 167 299v340q0 161 162 161z" />
<glyph unicode="&#x634;" horiz-adv-x="2165" arabic-form="medial" d="M921 1630.5q0 72.5 51 121.5t118 49t115 -49t48 -120.5t-50.5 -120.5t-117.5 -49t-116 48q-48 48 -48 120.5zM717 1284.5q0 72.5 51 121.5t118 49t115 -49t48 -120.5t-51 -120.5t-118 -49t-115 48t-48 120.5zM1126 1284.5q0 72.5 50.5 121.5t117.5 49t115 -49t48 -120.5 t-50.5 -120.5t-117.5 -49t-115 48t-48 120.5zM2181 200v-200h-51q-195 0 -323 115q-129 -115 -323 -115h-78q-194 0 -323 115q-128 -115 -322 -115h-80q-195 0 -323 115q-129 -115 -323 -115h-51v200h49q166 0 167 299v193q0 161 162 161q95 0 191 -29q-36 -131 -37 -316v-9 q0 -299 166 -299h77q166 0 166 299v193q0 161 163 161q95 0 191 -29q-37 -131 -37 -316v-9q0 -299 166 -299h74q82 0 124.5 83.5t42.5 215.5v340q0 161 162 161q95 0 191 -29q-37 -132 -37 -322v-150q0 -299 166 -299h50z" />
<glyph unicode="&#x635;" horiz-adv-x="2689" arabic-form="final" d="M2489 502q0 -174 -84 -302h304v-200h-92q-179 0 -304 100q-124 -99 -306 -100h-607q-57 -220 -231.5 -358.5t-419.5 -138.5h-4q-295 0 -484 196t-189 481v191q0 161 162 161q95 0 192 -29q-38 -132 -38 -322v-1q1 -477 358.5 -477t359.5 474v662q0 161 162 161 q95 0 191 -29q-33 -119 -37 -284q286 303 585 313q224 0 353 -142t129 -356zM2007 200q166 0 166 300q0 132 -42 216.5t-120.5 84.5t-181.5 -51q-215 -105 -407 -383v-167h585z" />
<glyph unicode="&#x635;" horiz-adv-x="1620" arabic-form="initial" d="M1615 501q0 -215 -128.5 -357.5t-353.5 -143.5h-1164v200h262v639q0 161 163 161q94 0 191 -29q-34 -118 -37 -285q286 304 584 314q224 0 353.5 -142t129.5 -357zM1132 200q166 0 166 300q0 132 -42 216t-120.5 84t-181.5 -51q-215 -105 -407 -382v-167h585z" />
<glyph unicode="&#x635;" horiz-adv-x="1802" arabic-form="medial" d="M1615 501q0 -173 -85 -301h304v-200h-92q-179 0 -303 99q-125 -98 -306 -99h-1164v200h262v639q0 161 163 161q95 0 191 -29q-34 -119 -37 -285q287 304 585 314q223 0 352.5 -142t129.5 -357zM1132 200q167 0 167 300q0 132 -42.5 216t-121 84t-181.5 -51 q-215 -105 -407 -382v-167h585z" />
<glyph unicode="&#x636;" horiz-adv-x="2689" arabic-form="final" d="M2489 502q0 -174 -84 -302h304v-200h-92q-179 0 -304 100q-124 -99 -306 -100h-607q-56 -220 -231 -358.5t-420 -138.5h-4q-295 0 -484 196t-189 481v191q0 161 162 161q95 0 192 -29q-38 -132 -38 -322v-1q0 -477 358 -477t360 474v662q0 161 162 161q95 0 192 -29 q-34 -119 -38 -284q292 303 585 313q224 0 353 -142t129 -356zM2007 200q166 0 166 300q0 132 -42 216.5t-120.5 84.5t-181.5 -51q-215 -105 -407 -383v-167h585zM1630 1285.5q0 72.5 50 121.5q51 48 118 48t115 -48.5t48 -120t-50.5 -120.5t-117.5 -49t-115 48t-48 120.5z " />
<glyph unicode="&#x636;" horiz-adv-x="1620" arabic-form="initial" d="M755 1284.5q0 72.5 51 121.5t118 49t115 -49t48 -120.5t-50.5 -120.5t-118 -49t-115.5 48t-48 120.5zM1133 1000q223 0 352.5 -142t129.5 -357t-128.5 -357.5t-353.5 -143.5h-1164v200h262v639q0 161 163 161q95 0 191 -29q-34 -119 -37 -285q286 304 584 314h1z M1132 200q167 0 167 300q0 132 -42.5 216t-121 84t-181.5 -51q-215 -105 -406 -382v-167h584z" />
<glyph unicode="&#x636;" horiz-adv-x="1802" arabic-form="medial" d="M1615 501q0 -173 -85 -301h304v-200h-92q-179 0 -303 99q-125 -98 -306 -99h-1164v200h262v639q0 161 163 161q95 0 191 -29q-34 -119 -37 -285q286 304 585 314q223 0 352.5 -142t129.5 -357zM1132 200q167 0 167 300q0 132 -42.5 216t-121 84t-181.5 -51 q-215 -105 -406 -382v-167h584zM755 1284.5q0 72.5 50.5 121.5t117.5 49t115 -49t48 -120.5t-50.5 -120.5t-117.5 -49t-115 48t-48 120.5z" />
<glyph unicode="&#x637;" horiz-adv-x="1952" arabic-form="final" d="M1982 200v-200h-92q-179 0 -304 100q-124 -99 -306 -100h-974q-162 0 -203 94q-7 17 -7 36q0 61 75 137q64 -67 177 -67h30v1013q0 161 163 161q94 0 191 -29q-38 -132 -38 -321v-338q160 170 337 252q126 58 248 62q224 0 353.5 -142t129.5 -357q0 -173 -85 -301h305z M1279 200q166 0 166 300q0 132 -42 216t-120.5 84t-181.5 -51q-215 -105 -407 -382v-167h585z" />
<glyph unicode="&#x637;" horiz-adv-x="1620" arabic-form="initial" d="M1615 501q0 -215 -128.5 -357.5t-353.5 -143.5h-1164v200h262v1013q0 161 163 161q95 0 191 -29q-37 -132 -37 -321v-338q287 304 585 314q223 0 352.5 -142t129.5 -357zM1132 200q166 0 166 300q0 132 -42 216t-120.5 84t-181.5 -51q-215 -105 -406 -382v-167h584z" />
<glyph unicode="&#x637;" horiz-adv-x="1804" arabic-form="medial" d="M1835 200v-200h-92q-179 0 -304 100q-124 -99 -306 -100h-1164v200h262v1013q0 161 163 161q95 0 191 -29q-37 -132 -37 -321v-338q156 168 336 252q126 58 249 62q223 0 352.5 -142t129.5 -357q0 -174 -85 -301h305zM1132 200q167 0 167 300q0 132 -42.5 216t-121 84 t-181.5 -51q-215 -105 -406 -382v-167h584z" />
<glyph unicode="&#x638;" horiz-adv-x="1952" arabic-form="final" d="M1762 501q0 -173 -85 -301h305v-200h-92q-180 0 -304 100q-124 -99 -306 -100h-974q-162 0 -203 94q-7 17 -7 36q0 60 75 137q64 -67 177 -67h30v1013q0 162 163 162q94 0 191 -30q-38 -132 -38 -321v-338q292 304 585 314q224 0 353.5 -142t129.5 -357zM1279 200 q166 0 166 300q0 132 -42 216t-120.5 84t-181.5 -51q-215 -105 -407 -382v-167h585zM931 1284.5q0 72.5 51 121.5t117.5 49t115 -49t48.5 -120.5t-51 -120.5t-118 -49t-115 48t-48 120.5z" />
<glyph unicode="&#x638;" horiz-adv-x="1620" arabic-form="initial" d="M784 1284.5q0 72.5 51 121.5t118 49t115 -49t48 -120.5t-51 -120.5t-118 -49t-115 48t-48 120.5zM1133 1000q223 0 352.5 -142t129.5 -357t-128.5 -357.5t-353.5 -143.5h-1164v200h262v1013q0 161 163 161q95 0 191 -29q-38 -132 -38 -321v-338q160 170 337 252 q126 58 248 62h1zM1132 200q166 0 166 300q0 132 -42 216t-120.5 84t-181.5 -51q-215 -105 -407 -382v-167h585z" />
<glyph unicode="&#x638;" horiz-adv-x="1804" arabic-form="medial" d="M784 1284.5q0 72.5 51 121.5t118 49t115 -49t48 -120.5t-50.5 -120.5t-118 -49t-115.5 48t-48 120.5zM1835 200v-200h-92q-179 0 -304 100q-124 -99 -306 -100h-1164v200h262v1013q0 161 163 161q95 0 191 -29q-37 -132 -37 -321v-338q156 168 336 252q126 58 249 62 q223 0 352.5 -142t129.5 -357q0 -174 -85 -301h305zM1132 200q167 0 167 300q0 132 -42.5 216t-121 84t-181.5 -51q-215 -105 -406 -382v-167h584z" />
<glyph unicode="&#x639;" horiz-adv-x="1415" arabic-form="final" d="M271 -148q0 -78 35 -113t89 -36h107q116 0 181 67q76 -76 76 -136q0 -19 -7 -36q-41 -95 -203 -95h-153q-133 0 -228 92t-96 255v3q1 164 96 255.5t225 91.5h35l-118 492q-26 114 -108 163q63 100 126 107l393 38q223 0 352.5 -142t129.5 -356q0 -174 -85 -302h328v-200 h-1051q-54 -1 -89 -35.5t-35 -112.5zM720 200q166 0 166 300q0 132 -42 216t-123 85l-142 -22l139 -579h2z" />
<glyph unicode="&#x639;" horiz-adv-x="1138" arabic-form="initial" d="M1133 204q0 -85 -96.5 -144.5t-265.5 -59.5h-802v200h332q-85 128 -85 301q0 215 129.5 357t353.5 142h8q168 0 265 -59.5t97 -144.5q0 -150 -153 -168q-2 107 -67 150q-35 22 -133 22h-17q-166 -3 -166 -301.5t165 -298.5l65 -1h9q105 0 141 23q65 42 67 150 q153 -18 153 -168z" />
<glyph unicode="&#x639;" horiz-adv-x="1391" arabic-form="medial" d="M1422 200v-200h-1453v200h428l-118 491q-26 115 -108 164q62 99 126 107l393 38q222 0 352 -142t130 -357q0 -173 -85 -301h335zM689 200q167 0 167 300q0 132 -42 216t-124 84l-142 -22l139 -578h2z" />
<glyph unicode="&#x63a;" horiz-adv-x="1415" arabic-form="final" d="M271 -148q0 -78 35 -113t89 -36h107q116 0 181 67q76 -76 76 -136q0 -19 -7 -36q-41 -95 -203 -95h-153q-133 0 -228 92t-96 255v3q1 164 96 255.5t225 91.5h35l-118 492q-26 114 -108 163q63 100 126 107l393 38q223 0 352.5 -142t129.5 -356q0 -174 -85 -302h328v-200 h-1051q-54 -1 -89 -35.5t-35 -112.5zM720 200q166 0 166 300q0 132 -42 216t-123 85l-142 -22l139 -579h2zM716 1455q67 0 115 -49t48 -120.5t-50.5 -120t-117.5 -48.5t-115 47.5t-48 120.5t50 122q51 48 118 48z" />
<glyph unicode="&#x63a;" horiz-adv-x="1138" arabic-form="initial" d="M520 1284.5q0 72.5 50 121.5q51 49 118 49t115 -49t48 -120.5t-50.5 -120.5t-117.5 -49t-115 48t-48 120.5zM1133 204q0 -85 -96.5 -144.5t-265.5 -59.5h-802v200h332q-85 128 -85 301q0 215 129.5 357t353.5 142h8q168 0 265 -59.5t97 -144.5q0 -150 -153 -168 q-2 107 -67 150q-35 22 -133 22h-17q-166 -3 -166 -301.5t165 -298.5l65 -1h9q105 0 141 23q65 42 67 150q153 -18 153 -168z" />
<glyph unicode="&#x63a;" horiz-adv-x="1391" arabic-form="medial" d="M1422 200v-200h-1453v200h428l-118 491q-26 115 -108 164q62 99 126 107l393 38q223 0 352.5 -142t129.5 -357q0 -173 -85 -301h335zM689 200q167 0 167 300q0 132 -42.5 216t-123.5 84l-142 -22l139 -578h2zM524 1284.5q0 72.5 50 121.5q51 49 118 49t115 -49t48 -120.5 t-50.5 -120.5t-117.5 -49t-115 48t-48 120.5z" />
<glyph unicode="&#x641;" horiz-adv-x="2331" arabic-form="final" d="M2351 200v-200h-1798q-221 0 -350.5 142.5t-130.5 356.5v193q0 161 163 161q95 0 191 -29q-38 -132 -38 -322v-3q1 -299 167 -299h570v301q0 215 129.5 357t352 142t353 -142.5t130.5 -356.5q0 -170 -88 -301h349zM1607 200q166 0 166 300q0 131 -42.5 215.5t-124 84.5 t-123.5 -84t-42 -216v-300h166zM1605.5 1116q-66.5 0 -114.5 48t-48 120.5t50 121.5q51 49 118 49t115 -49t48 -120.5t-51 -120.5t-117.5 -49z" />
<glyph unicode="&#x641;" horiz-adv-x="1185" arabic-form="initial" d="M215 501q0 215 129.5 357t352 142t353 -142.5t130.5 -356.5t-129.5 -357.5t-351.5 -143.5h-719v200h235v301zM697 200q167 0 167 300q0 131 -43 215.5t-124 84.5t-123.5 -84t-42.5 -216v-300h166zM681 1116q-67 0 -115 48t-48 120.5t50.5 121.5t117.5 49t115.5 -49 t48.5 -120.5t-51 -120.5t-118 -49z" />
<glyph unicode="&#x641;" horiz-adv-x="1380" arabic-form="medial" d="M1401 200v-200h-1421v200h225v301q0 215 129.5 357t352 142t353 -142.5t130.5 -356.5q0 -170 -88 -301h319zM687 200q167 0 167 300q0 131 -43 215.5t-124 84.5t-123.5 -84t-42.5 -216v-300h166zM856 1285.5q0 -71.5 -50.5 -120.5t-117.5 -49t-115 48t-48 120.5t50 121.5 q51 49 118 49t115 -49t48 -120.5z" />
<glyph unicode="&#x642;" horiz-adv-x="1778" arabic-form="final" d="M878 1455q67 0 115 -48.5t48 -120.5t-50.5 -120.5t-118 -48.5t-115 47.5t-47.5 120t50 122.5q51 48 118 48zM1281 1117q-67 0 -115 47.5t-48 120t51 121.5t117.5 49t115.5 -48q48 -50 48 -121t-51 -120t-118 -49zM1809 0h-269q-64 -215 -266.5 -356t-452.5 -141h-4 q-302 0 -523.5 199.5t-221.5 477.5v191q0 161 162 161q95 0 192 -29q-38 -132 -38 -322v-1q0 -202 116 -339.5t315 -137.5q152 0 259.5 82t146.5 215h-143q-221 0 -351 143.5t-130 357.5t131 356.5t353.5 142.5t352 -142t129.5 -356v-302h242v-200zM1250 500 q0 132 -42 216.5t-123 84.5t-124 -85t-43 -216q0 -300 166 -300h166v300z" />
<glyph unicode="&#x642;" horiz-adv-x="1175" arabic-form="initial" d="M205 501q0 215 129.5 357t352 142t353 -142.5t130.5 -356.5t-129.5 -357.5t-351.5 -143.5h-699v200h215v301zM687 200q167 0 167 300q0 131 -43 215.5t-124 84.5t-123.5 -84t-42.5 -216v-300h166zM651 1285.5q0 -71.5 -50.5 -120.5t-117.5 -49t-115 48t-48 120.5 t50.5 121.5t117.5 49t115 -49t48 -120.5zM891.5 1116q-66.5 0 -114.5 48t-48 120.5t50 121.5q51 49 118 49t115 -49t48 -120.5t-51 -120.5t-117.5 -49z" />
<glyph unicode="&#x642;" horiz-adv-x="1380" arabic-form="medial" d="M1401 200v-200h-1421v200h225v301q0 215 129.5 357t352 142t353 -142.5t130.5 -356.5q0 -170 -88 -301h319zM687 200q167 0 167 300q0 131 -43 215.5t-124 84.5t-123.5 -84t-42.5 -216v-300h166zM470 1116q-67 0 -114.5 48t-47.5 120.5t50 121.5q51 49 118 49t115 -49 t48 -120.5t-51 -120.5t-118 -49zM879 1116q-67 0 -115 48t-48 120.5t51 121.5t117.5 49t115 -49t48.5 -120.5t-51 -120.5t-118 -49z" />
<glyph unicode="&#x643;" horiz-adv-x="1935" arabic-form="final" d="M699 751q0 71 90 99q-14 35 -14 94.5t47 112.5t113 52.5t105 -21.5q57 -30 57 -83.5t-61 -66.5l-20 -4l-12 -2q-8 51 -20 57.5t-31 6.5h-4q-37 0 -37 -70t37 -70h77q14 0 19 6l24 24l23 -24q28 -26 28 -46q0 -73 -83 -73h-199q-34 0 -41 -32l-4 -20l-2 -13 q-64 15 -78 30.5t-14 42.5zM1957 200v-200h-52q-194 0 -323 115q-128 -115 -322 -115h-707q-221 0 -351 142.5t-130 356.5v193q0 161 162 161q95 0 192 -29q-38 -132 -38 -322v-3q0 -299 166 -299h704q166 0 166 299v715q0 161 163 161q95 0 191 -30q-37 -131 -37 -321v-526 q0 -298 166 -298h50z" />
<glyph unicode="&#x643;" horiz-adv-x="1191" arabic-form="initial" d="M971 0h-1002v200h763l-455 361q-90 87 -90 178q0 57 45 106l369 262q205 162 256 268q133 -96 153 -160q10 -30 10 -57q0 -71 -66 -127l-441 -316l305 -258q249 -212 368 -235q-72 -160 -142 -200q-39 -22 -73 -22z" />
<glyph unicode="&#x643;" horiz-adv-x="1227" arabic-form="medial" d="M1258 200v-200h-1289v200h721l-461 362q-91 86 -91 177q0 57 45 106l370 262q205 162 256 268q132 -96 153 -160q9 -29 9 -56q0 -72 -65 -128l-442 -316l204 -171q249 -212 368 -235q-12 -39 -55 -109h277z" />
<glyph unicode="&#x644;" horiz-adv-x="1665" arabic-form="final" d="M1695 0h-296q-57 -220 -231 -358t-419 -139h-4q-295 0 -484 196t-189 481v191q0 161 162 161q95 0 192 -29q-38 -132 -38 -321v-2q0 -477 359 -477t359 477v1034q0 161 162 161q95 0 191 -29q-37 -133 -37 -322v-824h273v-200z" />
<glyph unicode="&#x644;" horiz-adv-x="555" arabic-form="initial" d="M512 1024v-525q-1 -214 -130.5 -356.5t-350.5 -142.5h-51v200h50q165 0 166 299v715q0 161 162 161q96 0 192 -29q-38 -133 -38 -322z" />
<glyph unicode="&#x644;" horiz-adv-x="709" arabic-form="medial" d="M728 200v-200h-51q-194 0 -323 115q-129 -115 -323 -115h-51v200h49q166 0 167 299v715q0 161 162 161q96 0 192 -29q-38 -133 -38 -322v-526q1 -298 166 -298h50z" />
<glyph unicode="&#x645;" horiz-adv-x="1587" arabic-form="final" d="M1608 199v-199h-52q-193 0 -322 115q-129 -115 -326 -115q-329 0 -443 290q-2 -1 -6 -6q-33 -42 -33 -126v-494q0 -161 -163 -161q-95 0 -191 29q37 132 37 321v360q0 148 90 228t228 80q7 207 136.5 343t349.5 136t349.5 -142t129.5 -357v-2q0 -300 166 -300h50z M743 500q0 -301 166.5 -301t166.5 301q0 132 -42.5 216t-123.5 84t-124 -84.5t-43 -215.5z" />
<glyph unicode="&#x645;" horiz-adv-x="1166" arabic-form="initial" d="M196 501q0 214 130.5 356.5t353 142.5t352 -142t129.5 -357t-129 -358t-339 -143t-339 115q-129 -115 -323 -115h-51v200h49q166 0 167 299v2zM512 500q0 -300 166.5 -300t166.5 300q0 132 -42.5 216t-123.5 84t-124 -84.5t-43 -215.5z" />
<glyph unicode="&#x645;" horiz-adv-x="1356" arabic-form="medial" d="M1377 200v-200h-51q-194 0 -323 115q-129 -115 -324.5 -115t-324.5 115q-129 -115 -323 -115h-51v200h49q166 0 167 299v2q0 214 130.5 356.5t353 142.5t352 -142t129.5 -357v-2q0 -299 166 -299h50zM512 500q0 -300 166.5 -300t166.5 300q0 132 -42.5 216t-123.5 84 t-124 -84.5t-43 -215.5z" />
<glyph unicode="&#x646;" horiz-adv-x="1634" arabic-form="final" d="M589 577.5q0 72.5 51 121.5t118 49t115 -49t48 -120.5t-51 -120.5t-118 -49t-115 48t-48 120.5zM1666 0h-266q-56 -220 -231 -358.5t-420 -138.5h-4q-295 0 -484 196t-189 481v191q0 161 162 161q95 0 192 -29q-38 -132 -38 -321v-2q1 -477 359 -477t359 477v512 q0 161 162 161q95 0 191 -29q-37 -132 -37 -322v-302h244v-200z" />
<glyph unicode="&#x646;" horiz-adv-x="555" arabic-form="initial" d="M198 1284.5q0 72.5 51 121.5t118 49t115 -49t48 -120.5t-51 -120.5t-118 -49t-115 48t-48 120.5zM512 649v-150q-1 -214 -130.5 -356.5t-350.5 -142.5h-51v200h49q166 0 167 299v340q0 161 162 161q96 0 192 -29q-38 -132 -38 -322z" />
<glyph unicode="&#x646;" horiz-adv-x="717" arabic-form="medial" d="M203 1284.5q0 72.5 50 121.5q51 49 118 49t115 -49t48 -120.5t-50.5 -120.5t-117.5 -49t-115 48t-48 120.5zM732 200v-200h-51q-194 0 -323 115q-128 -115 -323 -115h-51v200h50q165 0 166 299v340q0 161 162 161q96 0 192 -29q-38 -133 -38 -322v-151q1 -298 166 -298 h50z" />
<glyph unicode="&#x647;" horiz-adv-x="1270" arabic-form="final" d="M1253 200v-200h-51q-194 0 -322 115q-129 -115 -338 -115q-210 0 -340 142t-130 357q0 213 130 357t351 144h484v-501q0 -299 166 -299h50zM721 800h-167q-166 0 -166 -300q0 -132 43 -216t124 -84t123 84t43 216v300z" />
<glyph unicode="&#x647;" horiz-adv-x="1254" arabic-form="initial" d="M532 200q-173 262 -173 360q-1 95 93 157q50 33 101 33q131 0 212 -122q60 -90 60 -206.5t-89 -221.5h31q165 0 165 300q0 132 -42 216t-124 84h-326q-112 0 -176 -67q-76 76 -76 136q0 19 7 36q41 95 203 95h369q223 -1 352.5 -142.5t129.5 -356.5t-128.5 -357.5 t-353.5 -143.5h-119l-48 80l-52 -80h-579v200h563zM702 369q0 35 -22.5 68.5t-63.5 33.5q-15 0 -34.5 -13t-19.5 -49.5t79 -157.5q61 43 61 118z" />
<glyph unicode="&#x647;" horiz-adv-x="1438" arabic-form="medial" d="M553 750q132 0 212 -122q60 -91 60 -207t-89 -221h31q165 0 165 300q0 132 -42 216t-124 84h-325q-113 0 -177 -67q-76 76 -76 136q0 19 7 36q41 95 203 95h369q223 -1 352.5 -142.5t129.5 -356.5q0 -174 -85 -301h304v-200h-92q-179 0 -304 99q-124 -98 -305 -99h-119 l-48 80l-53 -80h-578v200h563q-173 260 -173 357.5t105 166.5q38 26 89 26zM701 370q0 34 -22 67.5t-63 33.5q-55 0 -55 -60q0 -42 79 -160q61 42 61 119z" />
<glyph unicode="&#x648;" horiz-adv-x="1305" arabic-form="final" d="M1325 0h-220q-1 -213 -131 -355t-350 -142h-130q-162 0 -203 95q-7 17 -7 36q0 60 75 136q66 -67 181 -67h82q165 0 167 297h-168q-221 0 -351 144t-130 358t130 356t354 142q222 0 352 -142t129 -356v-302h220v-200zM789 500q-1 132 -43 216t-123 85q-81 0 -124 -85 t-43 -216q0 -300 166 -300h167v300z" />
<glyph unicode="&#x649;" horiz-adv-x="1652" arabic-form="final" d="M1672 0h-193q-63 -218 -253 -358t-436 -139h-4q-298 -1 -506 197t-208 479v191q0 161 162 161q95 0 192 -29q-38 -132 -38 -321v-2q0 -207 102 -342t298 -135q295 0 377 298h-138q-162 0 -203 94q-7 17 -7 36q0 60 75 136q66 -67 181 -67h599v-199z" />
<glyph unicode="&#x64a;" horiz-adv-x="1652" arabic-form="final" d="M417 -733.5q0 72.5 50.5 121.5t117.5 49t115 -49t48 -120.5t-50.5 -120.5t-117.5 -49t-115 48t-48 120.5zM826 -733.5q0 72.5 50 121.5q51 49 118 49t115 -49t48 -120.5t-50.5 -120.5t-117.5 -49t-115 48t-48 120.5zM1672 0h-193q-63 -218 -252.5 -357.5t-436.5 -139.5 h-4q-299 0 -506.5 197.5t-207.5 478.5v191q0 161 162 161q95 0 192 -29q-38 -132 -38 -321v-2q0 -207 102 -342t298 -135q295 0 377 298h-138q-162 0 -203 94q-7 17 -7 36q0 60 75 136q66 -67 181 -67h599v-199z" />
<glyph unicode="&#x64a;" horiz-adv-x="905" arabic-form="initial" d="M55 -328.5q0 72.5 51 121.5t118 49t115 -49t48 -120.5t-51 -120.5t-118 -49t-115 48t-48 120.5zM464 -328.5q0 72.5 50.5 121.5t117.5 49t115 -49t48 -120.5t-50.5 -120.5t-117.5 -49t-115 48t-48 120.5zM778 649v-150q-1 -213 -130.5 -356t-350.5 -143h-317v200h315 q166 0 167 299v340q0 161 162 161q95 0 191 -29q-37 -132 -37 -322z" />
<glyph unicode="&#x64a;" horiz-adv-x="872" arabic-form="medial" d="M68 -328.5q0 72.5 51 121.5t118 49t115 -49t48 -120.5t-51 -120.5t-118 -49t-115 48t-48 120.5zM808 -327.5q0 -71.5 -50.5 -120.5t-118 -49t-115 48t-47.5 120.5t50 121.5q51 49 118 49t115 -49t48 -120.5zM893 200v-200h-132q-194 0 -323 116q-129 -116 -323 -116h-135 v200h134q166 0 166 299v340q0 161 163 161q94 0 191 -29q-38 -132 -38 -322v-150q1 -299 167 -299h130z" />
<glyph unicode="&#xd;" horiz-adv-x="508" />
<glyph unicode=" "  horiz-adv-x="508" />
<glyph unicode="&#x09;" horiz-adv-x="508" />
<glyph unicode="&#xa0;" horiz-adv-x="508" />
<glyph unicode="!" horiz-adv-x="645" d="M326 1421q174 0 174 -153q0 -64 -16 -218t-17 -312q0 -158 27 -230q-78 -39 -151 -39t-121 33t-48 94l2 178q0 475 -43 625q94 22 193 22zM336 -20q-76 0 -129 51t-53 129t56 131t131 53t129 -53t54 -130t-56 -129t-132 -52z" />
<glyph unicode="&#x22;" horiz-adv-x="887" d="M367 1397q0 -127 -43 -365q-19 -100 -136 -100q-55 0 -104 16q6 42 6 112t-14 187t-15 161q0 101 153 101t153 -112zM829 1397q0 -127 -43 -365q-18 -100 -135 -100q-55 0 -104 16q6 38 6 110q-1 72 -15 189t-14 161q0 101 152 101t153 -112z" />
<glyph unicode="#" d="M718 27q-95 0 -95 84q1 39 23 153t22 133q-80 2 -148 2h-84q-18 -179 -18 -247t2 -103q-41 -22 -90 -22q-50 1 -70 23t-20 52t45 295q-152 -6 -291 -53q-8 30 -8 90t41 88t143 29l141 -2l29 246q-92 -3 -139 -13t-152 -41q-8 31 -8 89t42 88t142 30l133 -2q33 268 37 359 q41 8 80 8q39 -1 67 -23t29 -54q0 -32 -53 -294h223q31 264 37 363q41 8 80 8q40 -1 68 -23t28 -60t-51 -282q29 2 287 19q0 -121 -36 -157t-103 -36q-9 0 -53 6t-121 8q-19 -88 -39 -239q71 2 297 20q0 -119 -34 -155q-34 -37 -106 -37l-178 14q-6 -99 -6 -205t2 -137 q-41 -22 -95 -22zM573 799h-79q-29 -172 -39 -254q161 0 237 4q6 31 31 246q-66 4 -150 4z" />
<glyph unicode="$" d="M420 1022q0 -104 100 -162v309q-44 -18 -72 -58t-28 -89zM758 356q0 109 -119 164v-344q119 43 119 180zM117 168q-1 44 27 76t60 48t95 44q25 -66 83 -113t138 -57v395q-171 55 -209 85q-97 76 -125 139q-44 102 -45 223q-1 154 107 246t270 114q-2 51 -10 135 q35 10 51 10q78 0 78 -79v-60q143 -6 258 -55t115 -131q0 -129 -195 -164q-21 59 -71 101t-107 55v-371q77 -23 111 -36t100 -48t101 -74q33 -39 61 -107t28 -153q0 -163 -100 -275t-297 -132q0 -4 12 -138l-45 -6q-82 0 -88 80v62q-168 6 -286 60t-117 126z" />
<glyph unicode="%" horiz-adv-x="1808" d="M524 1010q0 78 -28 140t-77 62q-50 0 -82 -47t-32 -125q1 -78 29 -142t80 -64t80 49q30 49 30 127zM417 682q-161 0 -256 92t-95 249t95 248t256 91t255 -92t94 -248t-94 -248t-255 -92zM1407 1342q0 -34 -21 -66l-477 -758q-186 -295 -352 -586q-127 27 -135 88 q0 35 24 70l478 756q211 332 350 586q51 -2 92 -29t41 -61zM1499 307q1 79 -27 141t-78 62t-82 -47t-32 -125t28 -142t80 -65q52 0 82 49t29 127zM1392 -20q-160 0 -256 92t-96 248t96 248q96 91 256 91t254 -92q94 -91 95 -247q-1 -156 -95 -248t-254 -92z" />
<glyph unicode="&#x26;" horiz-adv-x="1378" d="M66 350q0 201 213 350q-132 190 -132 346t113 244q112 88 306 88t293 -76t99 -184q0 -174 -170 -310q-66 -53 -188 -126q129 -164 268 -279q11 62 11 111t-29 139q65 39 137 39q189 0 189 -137q0 -85 -20 -145t-75 -150q127 -63 246 -63q12 -54 12 -82q0 -135 -145 -135 t-313 92q-133 -90 -327 -90t-341 99t-147 269zM549 1190q-49 0 -84 -42t-35 -126t70 -197q155 113 155 242q-1 53 -29 88t-77 35zM373 375q-1 -99 71 -152t172 -53q54 0 99 14q-160 131 -303 318q-39 -60 -39 -127z" />
<glyph unicode="'" horiz-adv-x="571" d="M408 1397q0 -127 -43 -365q-19 -100 -136 -100q-55 0 -104 16q6 42 6 112q-1 70 -15 187t-14 161q0 101 153 101t153 -112z" />
<glyph unicode="(" horiz-adv-x="690" d="M119 541q0 174 50 357q51 183 121 310t143 208t117 81t83 -47q-101 -141 -167 -390t-65 -512q-1 -263 63 -518t169 -399q-39 -47 -84 -47t-119 83t-144 211t-118 308q-49 180 -49 355z" />
<glyph unicode=")" horiz-adv-x="727" d="M514 541q0 -175 -49 -355t-119 -308t-144 -211t-118 -83q-45 0 -84 47q104 144 168 399t63 518q1 263 -65 512t-166 390q39 47 83 47q45 0 117 -81t143 -208t121 -310t50 -357z" />
<glyph unicode="*" horiz-adv-x="829" d="M401 1522q127 0 127 -95q0 -73 -20 -155q145 106 172 133q90 -78 90 -135q0 -86 -244 -148q144 -133 215 -186q-22 -42 -61 -70t-86 -28t-87 46t-93 146q-76 -135 -133 -227q-60 20 -106 56t-46 75q0 70 174 196q-153 56 -256 84q8 56 43 101t86 45q80 0 158 -82 q-22 175 -33 225q64 19 100 19z" />
<glyph unicode="+" d="M672 598q215 0 426 23q8 -25 8 -81t-30 -92t-78 -36t-152 10t-176 10q0 -162 22 -414q-43 -8 -90 -8t-84 26t-37 79q1 16 9 101t12 218q-94 0 -422 -22q-8 43 -8 88t26 83t80 38q17 -1 110 -9t218 -12q0 211 -25 414q27 8 83 8t92 -28t36 -78q0 -48 -10 -146t-10 -172z " />
<glyph unicode="," horiz-adv-x="528" d="M76 128q0 60 50 106t137 45q87 0 137 -66t51 -166q-1 -143 -95 -262t-243 -119q-76 0 -76 80q0 10 4 43h10q55 0 96 44t41 93q0 84 -92 99q-20 43 -20 103z" />
<glyph unicode="-" horiz-adv-x="580" d="M387 637q88 0 160 31q22 -62 22 -120t-42 -96q-42 -36 -111 -36l-174 14q-78 0 -176 -33q-15 72 -15 122t37 90t117 40l166 -12h16z" />
<glyph unicode="." horiz-adv-x="520" d="M250 -20q-76 0 -130 54t-54 136t57 137t133 55t130 -55t54 -136t-57 -136t-133 -55z" />
<glyph unicode="/" horiz-adv-x="510" d="M152 -242q-97 0 -97 82q0 13 56 346t114 752q58 420 70 569l61 11q107 0 107 -80l-154 -992q-67 -456 -86 -677q-45 -11 -71 -11z" />
<glyph unicode="0" d="M803 647q1 201 -57 365t-160 164q-97 0 -158 -126t-61 -328t57 -372t160 -170q98 0 158 133t61 334zM586 -20q-246 0 -390 189t-145 509q1 320 145 510t390 190t392 -190t146 -508q0 -320 -146 -510t-392 -190z" />
<glyph unicode="1" d="M172 1208q0 127 104 140q242 30 361 30q49 0 87 -24t38 -78q0 -16 -8 -221t-9 -418v-107q0 -225 15 -337q131 0 203 8q18 -41 18 -90q0 -115 -100 -115l-406 4q-192 0 -274 -2q-21 57 -21 100q0 101 139 101h119l4 526q0 236 -6 432q-221 -22 -256 -29q-8 54 -8 80z" />
<glyph unicode="2" d="M725 951q0 223 -167 223q-77 0 -161 -54t-133 -133q-151 43 -151 162q-1 81 155 155t336 74t307 -101t127 -288q0 -113 -72 -255q-37 -72 -142 -187t-195 -189q-90 -73 -168 -137q3 -2 149 -2q146 1 254 9t217 44q27 -71 27 -120q0 -92 -58 -124t-380 -32l-482 4 q-108 0 -108 123q0 35 12 92q395 346 514 481t119 255z" />
<glyph unicode="3" d="M1028 389q0 -165 -150 -287t-409 -122q-358 0 -358 149q1 47 37 89t92 58q24 -42 90 -70t150 -28q85 0 156 54t71 158q0 102 -73 170t-191 67q-118 1 -138 49q-10 24 -10 63t6 68q179 -1 271 69t92 164q0 68 -39 103t-105 35t-135 -46q-68 -46 -90 -116q-76 10 -117 50 t-41 87q0 85 123 155q124 70 314 70t300 -93t111 -222q0 -219 -240 -318q163 -65 223 -150t60 -206z" />
<glyph unicode="4" d="M803 1378q96 0 149 -14q0 -6 -9 -152t-9 -464v-142q149 12 199 35q20 -57 20 -133t-47 -98t-172 -23q0 -221 49 -381q-77 -26 -181 -26t-140 40t-37 142q0 10 4 227q-359 0 -506 12q-57 5 -75 35t-19 67q0 38 4 79q84 143 267 391t278 342q69 63 225 63zM462 596 q95 0 167 6q0 189 6 404q-17 -21 -123 -150t-190 -258q45 -2 140 -2z" />
<glyph unicode="5" d="M565 915q217 0 338 -130t121 -326q0 -127 -51 -225t-137 -151q-169 -106 -381 -106q-147 0 -249 39t-102 105q0 43 38 83t96 54q59 -86 192 -86q132 0 202 75t70 187t-94 202q-94 89 -274 89q-55 0 -137 -14q-21 30 -21 99t27 550q73 -4 401 -4t381 16q31 -60 31 -114 t-43 -91t-119 -37q-156 0 -371 13l-30 -236q51 8 112 8z" />
<glyph unicode="6" d="M582 -20q-269 0 -380 184q-98 162 -98 384t79 404t244 304t382 122q90 0 130 -26t40 -80q0 -55 -12 -115q-47 14 -131 14q-192 1 -294 -119t-118 -300q117 90 248 90q184 -2 288 -121t103 -293q0 -174 -127 -311t-354 -137zM606 182q60 0 98 60t39 152q-1 91 -39 170 t-116 79t-166 -47q0 -301 87 -381q37 -33 97 -33z" />
<glyph unicode="7" d="M233 1130q-73 0 -111 40t-38 96t25 106q114 -16 262 -16q614 0 735 4q18 -33 18 -75t-12 -79q-59 -178 -547 -1085q-43 -81 -79 -111t-80 -30q-152 0 -275 118q174 164 382 497t294 546q-297 -11 -574 -11z" />
<glyph unicode="8" d="M592 -20q-234 0 -361 108t-127 262q0 152 78 235t228 150q-124 60 -188 143t-64 211q0 129 127 209t319 80t304 -88q114 -88 114 -211q0 -92 -66 -176t-186 -135q152 -68 230 -165t79 -251q0 -154 -127 -264q-126 -108 -360 -108zM586 182q82 0 126 52t44 132t-50 158 t-147 125q-57 -35 -97 -119t-40 -166t41 -132t123 -50zM473 1081q0 -61 47 -131t103 -94q88 62 88 199q0 114 -121 121q-117 0 -117 -95z" />
<glyph unicode="9" d="M586 1378q135 0 231 -49q97 -49 149 -135q98 -160 97 -383q0 -223 -79 -405t-244 -304t-382 -122q-90 0 -130 26t-40 81q0 56 13 114q47 -15 131 -15q192 0 294 120t117 300q-116 -90 -247 -90q-184 2 -288 121t-104 293t127 311t355 137zM562 1176q-60 0 -99 -60 t-39 -152t39 -170t117 -79q78 0 165 47q-1 301 -87 381q-36 33 -96 33z" />
<glyph unicode=":" horiz-adv-x="520" d="M250 -20q-76 0 -130 54t-54 136t57 137t133 55t130 -55t54 -136t-57 -136t-133 -55zM250 610q-76 0 -130 54t-54 137q0 82 57 137t133 55t130 -55t54 -136q0 -80 -57 -136t-133 -56z" />
<glyph unicode=";" horiz-adv-x="553" d="M258 610q-76 0 -130 54t-54 137q0 82 57 137t133 55t130 -55t55 -136q1 -80 -57 -136t-134 -56zM76 128q0 60 50 106t137 45q87 0 137 -66t51 -166q-1 -143 -95 -262t-243 -119q-76 0 -76 80q0 10 4 43h10q55 0 96 44t41 93q0 84 -92 99q-20 43 -20 103z" />
<glyph unicode="&#x3c;" d="M763 14q-40 0 -75 33l-461 473l465 443q39 32 78 32q39 -1 80 -31t59 -69q-85 -75 -268 -221q-182 -146 -190 -154q77 -79 454 -405q-22 -43 -62 -72t-80 -29z" />
<glyph unicode="=" d="M1038 736q0 -48 -28 -84t-70 -36q-41 0 -166 12q-126 12 -272 11q-146 0 -357 -23q-8 42 -8 88q-1 46 25 84t80 37q8 0 139 -10t319 -10t328 20q10 -41 10 -89zM1038 335q0 -48 -28 -84t-70 -36q-41 -1 -166 11q-126 12 -272 12t-357 -23q-8 43 -8 88q-1 45 25 83t80 38 q8 0 139 -10t319 -11q188 0 328 21q10 -41 10 -89z" />
<glyph unicode="&#x3e;" d="M406 995q38 0 77 -32l465 -443l-461 -473q-34 -33 -74 -33t-80 29t-63 72q370 320 455 405q-8 8 -196 158t-263 217q19 39 60 69q42 30 80 31z" />
<glyph unicode="?" horiz-adv-x="864" d="M402 469q-80 0 -122 37q-42 38 -42 102t44 138t97 128q53 52 97 124t44 132q0 116 -114 115q-54 0 -100 -42t-58 -111q-195 22 -195 137q1 90 107 141t256 51q303 -1 393 -157q29 -50 29 -124t-30 -142t-72 -111t-84 -83q-101 -96 -101 -198q0 -43 14 -94 q-83 -43 -163 -43zM414 -20q-76 0 -130 51t-53 129t57 131t131 53t129 -53t54 -130t-56 -129t-132 -52z" />
<glyph unicode="@" horiz-adv-x="1718" d="M851 725q-54 0 -93 -77t-39 -170q0 -173 74 -173q65 0 114 113q7 44 23 150t20 130q-45 27 -99 27zM678 111q-94 1 -154 75t-61 215q0 209 122 357t311 149q189 0 335 -94q-74 -295 -74 -461q1 -112 53 -112t101 108t49 298q0 188 -102 298t-298 109q-196 1 -340 -105 t-216 -260t-72 -292q0 -261 141 -358t313 -97q115 1 206 35t108 85q106 -41 106 -118q0 -68 -124 -118t-256 -50q-132 1 -223 19t-181 62t-156 110t-106 170q-41 104 -41 243q-1 139 59 287t166 269t270 197q166 76 359 76q284 0 454 -146t170 -376q0 -229 -137 -387 t-338 -158q-155 0 -200 158q-99 -188 -244 -188z" />
<glyph unicode="A" horiz-adv-x="1257" d="M588 383q-58 0 -156 8q-139 -336 -168 -428q-208 29 -240 78q-16 25 -16 65t71 205q278 651 390 1032q96 15 158 15q172 0 221 -150q151 -466 264 -758t170 -405q-96 -65 -204 -65t-142 77q-22 54 -60 152t-71 178q-159 -4 -217 -4zM652 586q68 0 108 4q-33 112 -78 290 t-53 205q-127 -442 -144 -495q99 -4 167 -4z" />
<glyph unicode="B" d="M125 758q0 416 -27 596q176 24 337 24t261 -18t186 -56q85 -38 133 -109t48 -169q0 -213 -219 -285q142 -47 206 -130t64 -221t-79 -234q-144 -176 -445 -176t-498 129q33 233 33 649zM595 188q87 0 141 56t55 158q-1 100 -61 166t-181 67q-66 0 -119 -6q0 -94 -16 -389 q94 -52 181 -52zM508 821q104 1 170 49t65 138t-67 126t-136 37q-70 0 -108 -6q8 -127 8 -340q23 -4 68 -4z" />
<glyph unicode="C" horiz-adv-x="1288" d="M1231 195q-1 -60 -51 -105q-50 -46 -124 -68q-268 -80 -520 -6q-292 86 -404 331q-66 142 -66 333q0 328 194 513t528 185q178 0 300 -64t122 -159q0 -72 -59 -117t-158 -57q-35 94 -111 142t-161 48q-141 0 -233 -129q-92 -128 -91 -338q-1 -210 93 -364t262 -154 q94 0 181 43t142 133q156 -71 156 -167z" />
<glyph unicode="D" horiz-adv-x="1350" d="M436 764q0 -283 -28 -520q112 -58 210 -58q160 0 245 130t85 325q0 265 -110 399t-314 134q-49 0 -96 -7q8 -120 8 -403zM430 1378q197 0 341 -34t263 -112q118 -77 184 -216t66 -334q0 -306 -184 -504t-512 -198q-326 0 -500 129q27 188 29 617t-25 628q141 24 338 24z " />
<glyph unicode="E" horiz-adv-x="1090" d="M115 868q0 289 -27 478q264 18 549 18t373 -33q39 -14 39 -88t-25 -133q-135 43 -457 43q-41 0 -143 -4q8 -66 8 -315h162q131 0 242 12q12 -26 12 -94t-35 -98t-125 -29h-256q0 -346 17 -416q90 -4 145 -4q334 0 430 47q25 -62 25 -136q-1 -74 -55 -98q-54 -22 -216 -22 q-490 0 -558 3t-88 29t-21 89l4 342v409z" />
<glyph unicode="F" horiz-adv-x="1049" d="M117 868q0 273 -29 478q264 18 549 18t373 -33q39 -14 39 -88t-25 -133q-135 43 -457 43q-41 0 -143 -4q8 -66 8 -336h162q131 0 242 12q12 -25 12 -93t-35 -98t-125 -30h-256v-188q0 -238 49 -393q-17 -9 -77 -19t-93 -10q-118 0 -158 42t-40 154l4 269v409z" />
<glyph unicode="G" horiz-adv-x="1321" d="M1241 187q0 -85 -129 -146t-328 -61q-330 0 -524 186t-194 514t194 513t528 185q178 0 300 -64t122 -159q0 -70 -58 -116t-159 -58q-35 94 -111 142t-161 48q-135 -1 -229 -127t-95 -338t93 -366t260 -154q137 0 192 78q-2 176 -16 342q80 17 135 17q192 0 192 -119 q0 -6 -6 -119t-6 -198z" />
<glyph unicode="H" horiz-adv-x="1364" d="M106 883q0 225 -18 465q78 16 159 16t135 -26t54 -85q0 -9 -7 -159t-7 -252q78 -4 246 -4t243 4v41q0 225 -18 465q78 16 159 16t135 -26t54 -85q0 -9 -7 -165t-7 -261v-411q0 -230 49 -393q-76 -29 -152 -29t-102 5t-56 21q-58 31 -59 150l4 303v168q-77 -4 -242 -4 t-247 4v-225q0 -230 49 -393q-75 -29 -151 -29t-103 5t-57 21q-58 31 -58 150l4 303v410z" />
<glyph unicode="I" horiz-adv-x="528" d="M106 883q0 225 -18 465q78 16 159 16t135 -28t54 -85q0 -11 -7 -165t-7 -259v-411q0 -230 49 -393q-75 -29 -151 -29t-103 5t-57 21q-58 31 -58 150l4 303v410z" />
<glyph unicode="J" horiz-adv-x="594" d="M328 1364q72 0 126 -28q52 -28 52 -83q0 -1 -7 -157t-7 -267v-610q0 -108 -32 -194q-56 -147 -178 -217q-93 -52 -171 -52t-116 52t-46 147q147 25 188 97t41 227l-2 604q0 225 -18 465q98 16 170 16z" />
<glyph unicode="K" horiz-adv-x="1257" d="M106 883q0 225 -18 465q78 16 159 16t135 -26t54 -85q0 -9 -7 -165t-7 -261q166 117 328 273t211 278q97 -30 129 -64t32 -81q0 -135 -424 -445q236 -368 361 -518q65 -75 125 -75q6 0 55 6q18 -56 18 -92q0 -65 -60 -97q-59 -32 -159 -32t-211 104q-145 137 -370 539 q-4 -2 -35 -23v-184q0 -230 49 -393q-75 -29 -151 -29t-103 5t-57 21q-58 31 -58 150l4 303v410z" />
<glyph unicode="L" horiz-adv-x="1040" d="M106 883q0 225 -18 465q78 16 159 16t135 -26t54 -85q0 -11 -7 -163t-7 -256v-402q0 -158 16 -223q90 -4 148 -4q334 0 430 47q24 -62 24 -136t-54 -98q-54 -22 -216 -22q-489 0 -558 3q-70 3 -90 29t-20 89l4 342v424z" />
<glyph unicode="M" horiz-adv-x="1681" d="M127 989q0 230 -39 361q129 18 205 18q186 0 242 -123q109 -244 209 -609q32 -114 100 -364q114 545 321 996q27 58 87 78t162 20t177 -16q-37 -123 -37 -457v-477q0 -266 39 -396q-106 -26 -176 -26q-184 0 -184 153q0 25 2 201t2 502q-182 -514 -244 -834 q-57 -20 -139 -20q-168 0 -199 76q-39 94 -121 376t-133 412v-444q0 -277 39 -406q-73 -16 -143 -16q-174 0 -174 117l4 362v516z" />
<glyph unicode="N" horiz-adv-x="1358" d="M1231 477q0 -282 14 -469q-65 -14 -127 -14q-174 0 -235 96q-79 125 -225 385t-238 408v-467q0 -260 43 -396q-60 -26 -158 -26t-141 30t-43 111l6 338v410q0 329 -39 454q98 29 178 29q148 0 221 -90q150 -186 449 -713l-2 320q0 280 -14 467q86 14 127 14 q200 0 200 -119l-16 -418v-350z" />
<glyph unicode="O" horiz-adv-x="1491" d="M1090 641q0 299 -145 447q-81 82 -200 83q-159 -1 -253 -121t-95 -286q0 -166 32 -286t113 -206t199 -86q165 0 257 126t92 329zM744 -20q-310 0 -494 190t-184 510t183 508q183 190 495 190t497 -190q184 -190 184 -508q0 -320 -185 -510q-186 -190 -496 -190z" />
<glyph unicode="P" horiz-adv-x="1104" d="M117 883q0 286 -29 471q176 24 352 24q635 0 635 -442q0 -219 -128 -346t-308 -127q-107 0 -207 61v-137q0 -209 49 -364q-63 -29 -180 -29t-153 45t-35 131l4 303v410zM555 664q88 0 137 70t49 199q1 130 -61 184t-191 54q-24 0 -65 -8q8 -94 8 -327v-142 q66 -30 123 -30z" />
<glyph unicode="Q" horiz-adv-x="1491" d="M1078 -344q-150 0 -290 84t-170 250q-258 37 -405 220t-147 486q0 302 183 492t495 190t497 -190q184 -190 184 -494q1 -304 -155 -490t-422 -218q39 -121 203 -121q73 1 144 29t108 77q45 -28 75 -73t29 -91q0 -67 -89 -109q-90 -42 -240 -42zM1090 641q0 299 -145 447 q-81 82 -200 83q-159 -1 -253 -121t-95 -286q0 -166 32 -286t113 -206t199 -86q165 0 257 126t92 329z" />
<glyph unicode="R" horiz-adv-x="1190" d="M1184 109q0 -129 -232 -129q-98 0 -166 69q-129 131 -266 508q-39 14 -39 57t23 97q22 -6 53 -6q90 1 137 71t47 186t-59 161q-59 46 -182 46q-33 0 -78 -4q6 -82 6 -391v-366q0 -232 49 -385q-75 -29 -185 -29t-146 44t-37 132l4 303v410q0 274 -25 471q176 24 352 24 q633 0 633 -428q0 -278 -248 -375q101 -245 176 -331q43 -49 107 -49q27 0 57 6q19 -51 19 -92z" />
<glyph unicode="S" horiz-adv-x="1120" d="M574 1167q-158 0 -158 -145q0 -66 48 -111t118 -67t155 -54q84 -32 155 -69t119 -115t48 -194t-46 -203q-46 -88 -126 -136q-155 -93 -355 -93t-336 53t-137 139q0 64 35 102t119 84q51 -72 153 -120t192 -48q192 0 192 160q0 78 -67 125t-161 76t-188 69t-161 132 t-67 217q0 228 168 324q148 85 340 85q193 0 314 -49t121 -137q-1 -52 -51 -100t-140 -72q-33 59 -121 103q-89 44 -163 44z" />
<glyph unicode="T" horiz-adv-x="1116" d="M401 825q0 179 -6 326q-262 0 -385 -12q-10 31 -10 85t14 78q30 52 185 52h440q344 0 467 8q10 -45 10 -94q0 -117 -155 -117h-234q-10 -195 -10 -379v-383q0 -207 49 -366q-90 -29 -192 -29t-140 44q-37 44 -37 132l4 276v379z" />
<glyph unicode="U" horiz-adv-x="1395" d="M942 913q0 209 -18 435q78 16 164 16t135 -30t49 -81l-6 -159q-9 -162 -9 -344v-220q1 -219 11 -317t39 -190q-75 -29 -181 -29t-143 34t-47 130q-86 -84 -198 -131t-210 -47q-192 0 -304 91t-111 322l18 633q0 193 -35 309q76 29 176 29t146 -45q45 -45 45 -168 q1 -45 -13 -317t-14 -428q0 -105 58 -159t136 -54q77 0 166 46t144 107l2 245v322z" />
<glyph unicode="V" horiz-adv-x="1280" d="M1077 1378q189 0 189 -127q0 -195 -136 -557t-272 -551q-108 -149 -278 -149q-91 0 -150 14q-66 324 -202 705t-255 536q125 115 232 115q74 0 114 -68q146 -243 308 -1060q101 166 203 472t102 527q0 65 -12 121q86 22 157 22z" />
<glyph unicode="W" horiz-adv-x="2054" d="M1010 1378q188 0 188 -127q0 -63 -16 -155q127 -224 239 -860q89 166 181 472t92 527q0 65 -13 121q86 22 158 22q189 0 189 -127q0 -195 -128 -557t-260 -551q-102 -149 -262 -149q-86 0 -143 14q-82 416 -164 692q-127 -364 -260 -557q-102 -149 -262 -149 q-86 0 -143 14q-62 326 -191 706t-242 535q125 115 232 115q74 0 114 -68q72 -136 147 -450t126 -610q90 166 181 472t91 527q0 65 -12 121q86 22 158 22z" />
<glyph unicode="X" horiz-adv-x="1313" d="M281 1378q69 0 117 -30t89 -103q105 -184 183 -377q202 338 223 510q297 -32 297 -153q0 -69 -182 -284q-39 -46 -108 -124t-95 -108q121 -205 262 -363t238 -217q-123 -149 -261 -149q-110 0 -161 98q-219 403 -248 463q-99 -113 -191 -278t-112 -283q-121 10 -208 48 t-87 107t116 203t217 236t128 133q-113 182 -243 318t-222 196q129 157 248 157z" />
<glyph unicode="Y" horiz-adv-x="1157" d="M204 1370q114 0 184 -122q69 -122 222 -447q72 110 157 310t87 267q295 -30 295 -153q0 -39 -43 -107q-44 -69 -70 -109q-59 -88 -291 -393v-200q0 -230 50 -393q-76 -29 -152 -29q-77 0 -103 5t-56 21q-58 31 -58 150l4 303v129q-299 563 -444 627q104 141 218 141z" />
<glyph unicode="Z" horiz-adv-x="1161" d="M76 1238q0 93 71 108q91 20 398 20t555 -39q35 -35 35 -80t-45 -108q-566 -764 -680 -901l-41 -48q424 0 700 68q39 -88 39 -149q0 -95 -164 -109q-134 -12 -402 -12t-470 24q-37 44 -37 96t53 130q580 809 682 923q-415 0 -651 -57q-43 90 -43 134z" />
<glyph unicode="[" horiz-adv-x="774" d="M614 -219q68 -1 88 -25t19 -68q0 -44 -8 -77h-514v1864h514q8 -25 8 -75q1 -50 -21 -72t-90 -21q-68 0 -143 4v-1534q79 4 147 4z" />
<glyph unicode="\" horiz-adv-x="510" d="M61 1438q0 80 107 80q35 0 61 -11q34 -387 206 -1461l34 -206q0 -82 -96 -82q-27 0 -72 11q-18 221 -86 677q-154 949 -154 992z" />
<glyph unicode="]" horiz-adv-x="733" d="M150 1307q-68 -1 -90 21t-21 72q0 50 8 75h514v-1864h-514q-8 33 -8 77q-1 44 19 68t88 25q68 0 147 -4v1534q-75 -4 -143 -4z" />
<glyph unicode="^" horiz-adv-x="1087" d="M1055 846q-68 -68 -112 -68t-92 39t-78 65q-31 26 -67 63t-86 87t-73 80q-15 -14 -68 -72q-98 -107 -183 -184q-85 -78 -140 -78q-56 0 -123 68q57 86 230 263t282 273q110 -100 281 -275t229 -261z" />
<glyph unicode="_" horiz-adv-x="1096" d="M420 -295q-234 0 -414 -16q-6 30 -6 62q0 33 18 59t56 26q6 0 129 -7t213 -7h291q260 0 383 14q6 -18 6 -58t-20 -64t-54 -25l-309 16h-293z" />
<glyph unicode="`" horiz-adv-x="551" d="M469 1176q0 -48 -80 -105q-76 55 -202 119q-127 64 -191 112q-64 46 -64 99q0 80 138 145q74 -96 237 -193q162 -96 162 -177z" />
<glyph unicode="a" horiz-adv-x="1012" d="M365 267q1 -45 25 -71t61 -26q86 0 143 51q-2 19 -2 77t6 132q-187 -31 -218 -89q-15 -28 -15 -74zM606 104q-107 -124 -298 -124q-95 0 -172 72t-77 202q1 129 47 182t125 80q156 49 369 62q0 124 -28 174t-115 51q-51 0 -109 -43t-86 -117q-180 33 -180 154 q0 82 118 139t308 57t292 -82t103 -272l-4 -277q0 -235 39 -352q-90 -24 -160 -24q-147 0 -172 118z" />
<glyph unicode="b" horiz-adv-x="1114" d="M578 176q182 0 182 316q0 202 -70 272q-33 33 -80 33q-80 0 -184 -80l2 -275q0 -157 -8 -223q86 -43 158 -43zM127 559q0 779 -47 936q96 27 172 27q176 0 176 -133q0 -73 -3 -281t-3 -227q119 110 256 110q184 0 284 -134t101 -352q0 -217 -129 -371t-381 -154t-440 139 q14 123 14 440z" />
<glyph unicode="c" horiz-adv-x="977" d="M575 174q65 0 121 32t76 87q92 -33 121 -63t29 -74q0 -84 -98 -130t-257 -46q-229 0 -369 128t-139 357q1 135 47 239t120 166q146 122 333 123q129 0 247 -53t118 -147q0 -125 -201 -150q-17 70 -65 111t-114 41t-122 -77q-55 -77 -55 -226q0 -318 208 -318z" />
<glyph unicode="d" horiz-adv-x="1114" d="M563 799q-92 0 -145 -81q-53 -82 -53 -222t53 -235t137 -95t139 61q-4 422 -4 527q-61 45 -127 45zM862 -14q-132 0 -160 118q-54 -56 -124 -90t-134 -34q-157 0 -271 143t-114 358t117 363t291 149q115 0 231 -69q4 130 4 280t-16 291q94 27 137 27q191 0 191 -131 l-19 -934q0 -324 39 -447q-98 -24 -172 -24z" />
<glyph unicode="e" horiz-adv-x="1008" d="M559 799q-74 -1 -129 -67t-57 -195q172 12 218 53t46 123q-1 32 -23 59t-55 27zM586 993q142 1 252 -75t110 -226q0 -303 -434 -303q-39 0 -141 4q0 -117 58 -170t144 -53q152 0 236 98q47 -22 77 -60t30 -77q0 -61 -73 -98t-141 -45t-133 -8q-225 0 -369 124t-143 377 q0 168 79 288q78 120 192 172t256 52z" />
<glyph unicode="f" horiz-adv-x="793" d="M6 856q0 115 166 115q0 181 36 269q36 89 83 131q104 93 327 93q222 0 222 -106q0 -68 -72 -144q-51 54 -142 54t-123 -54t-32 -167v-78q182 4 270 16q15 -29 15 -90t-38 -87t-124 -28t-123 -2v-395q0 -252 37 -373q-70 -16 -164 -16t-135 24t-41 82l4 676 q-39 0 -149 -12q-17 43 -17 92z" />
<glyph unicode="g" horiz-adv-x="1221" d="M647 -127h-274q-19 -49 -19 -92q0 -100 183 -100q133 -1 201 35t69 87q0 70 -160 70zM542 399q160 0 160 186q0 93 -45 153t-122 59q-162 0 -162 -172q0 -97 43 -161t126 -65zM537 203q-35 0 -88 4q-21 -55 -21 -80q0 -41 135 -41h238q127 0 215 -62t88 -196 q0 -154 -176 -249t-414 -95t-352 70t-115 172q0 81 123 200q-47 33 -47 79t46 118t107 133q-100 49 -155 140t-55 210q0 166 134 276t328 111q194 0 326 -92q100 121 215 121q55 0 90 -33t35 -84t-20 -112q-30 6 -80 6t-121 -33q35 -74 35 -160q0 -186 -138 -294t-333 -109z " />
<glyph unicode="h" horiz-adv-x="1116" d="M586 797q-86 0 -191 -101q4 -262 4 -410t11 -284q-68 -6 -121 -6q-205 0 -205 98q0 8 5 142t5 280v500q0 293 -14 479q78 27 161 27t126 -27t43 -104l-15 -433v-90q129 123 281 123t242 -80t90 -227l-7 -365q0 -176 35 -299q-88 -26 -178 -26q-164 0 -164 125l13 510 q0 84 -34 126t-87 42z" />
<glyph unicode="i" horiz-adv-x="526" d="M261 979q83 -1 126 -27t43 -104l-14 -432q0 -291 35 -396q-87 -26 -177 -26t-128 34t-37 99l6 346q0 293 -15 479q78 27 161 27zM260 1065q-76 1 -130 55t-54 136t57 136q57 56 133 56t130 -56t55 -136t-57 -136t-134 -55z" />
<glyph unicode="j" horiz-adv-x="582" d="M312 1065q-76 1 -130 55t-55 136t57 136q58 56 134 56t130 -56t54 -136t-58 -136q-56 -56 -132 -55zM311 979q88 1 128 -29t40 -98q0 -10 -7 -146t-7 -317l8 -536q1 -181 -113 -276t-327 -95q-111 0 -205 34t-94 99q0 37 18 67t68 74q24 -32 82 -58t122 -26q62 0 104 39 t42 127l-6 635q0 293 -14 479q73 27 161 27z" />
<glyph unicode="k" horiz-adv-x="1145" d="M94 1016q0 293 -14 479q78 27 161 27t126 -27t43 -104q0 -15 -8 -155t-7 -411q172 164 355 164q106 -1 182 -73t76 -182t-70 -202t-201 -112q80 -154 122 -203q41 -49 99 -49t123 18q27 -53 27 -100q0 -46 -68 -76t-143 -30q-76 0 -121 14t-90 59q-86 90 -199 353 q-45 10 -45 55q0 26 23 86q41 -8 80 -8q82 0 126 46t44 100q1 54 -25 82t-69 28q-93 0 -226 -133v-160q0 -293 15 -479q-78 -27 -161 -27t-126 26t-43 105l14 432v457z" />
<glyph unicode="l" horiz-adv-x="510" d="M94 1016q0 293 -14 479q78 27 161 27t126 -27t43 -104l-15 -433v-561q0 -270 35 -377q-86 -26 -176 -26t-128 34t-38 99l6 324v565z" />
<glyph unicode="m" horiz-adv-x="1671" d="M1157 797q-76 0 -166 -101q4 -262 4 -410t11 -284q-68 -6 -121 -6q-205 0 -205 98q0 10 5 150t5 274v115q0 84 -30 124t-74 40q-76 0 -166 -101q4 -262 4 -410t10 -284q-67 -6 -121 -6q-204 0 -204 98q0 8 5 144t5 280q0 334 -39 434q84 27 160 27q149 0 170 -121 q125 133 282 133q197 0 269 -157q126 157 303 157q131 0 215 -80t84 -227l-7 -365q0 -176 35 -299q-88 -26 -178 -26q-164 0 -164 125l13 510q0 84 -29 126t-76 42z" />
<glyph unicode="n" horiz-adv-x="1141" d="M610 797q-86 0 -190 -101q4 -262 4 -410t10 -284q-67 -6 -121 -6q-204 0 -204 98q0 8 5 144t5 280q0 334 -39 434q84 27 160 27q149 0 170 -121q134 133 288 133t244 -80t90 -227l-6 -365q0 -176 35 -299q-88 -26 -178 -26q-164 0 -164 125l12 510q1 84 -33 126t-88 42z " />
<glyph unicode="o" horiz-adv-x="1112" d="M748 454q0 136 -52 240t-140 103q-89 0 -139 -84q-50 -85 -50 -221t50 -225t140 -89q91 0 141 70t50 206zM555 -20q-223 0 -359 135t-137 365q1 230 137 372q136 141 359 141t361 -141q138 -142 137 -372q1 -230 -137 -365t-361 -135z" />
<glyph unicode="p" horiz-adv-x="1118" d="M578 174q90 0 130 98t40 238q0 141 -39 214t-101 73q-104 0 -188 -103q2 -176 2 -473q66 -47 156 -47zM220 979q66 0 98 -7q30 -7 59 -41t33 -95q46 77 118 117t156 40q176 0 276 -130t99 -333q-1 -304 -177 -463q-96 -87 -232 -87t-232 90q0 -360 14 -448t27 -124 q-70 -16 -168 -16t-137 26t-39 91l6 911q0 326 -41 432q74 37 140 37z" />
<glyph unicode="q" horiz-adv-x="1120" d="M554 795q-81 0 -133 -73q-52 -72 -52 -216t52 -236t130 -92t154 88q4 248 24 475q-94 54 -175 54zM442 -20q-156 0 -270 146q-113 146 -113 347q1 240 143 380t353 140q279 0 481 -159q-32 -351 -32 -786t36 -540q-84 -26 -174 -26q-174 0 -174 129q0 102 4 270t4 219 q-102 -120 -258 -120z" />
<glyph unicode="r" horiz-adv-x="829" d="M241 979q83 -1 126 -27t43 -104v-27q56 66 132 119t144 53q68 1 100 -27t33 -73q0 -84 -74 -164q-71 45 -133 45q-90 0 -211 -125q-6 -121 -6 -233q0 -291 35 -396q-86 -26 -176 -26t-128 34t-38 99l6 346q0 293 -14 479q78 27 161 27z" />
<glyph unicode="s" horiz-adv-x="893" d="M484 797q-48 -1 -80 -25t-33 -72q0 -48 48 -78q49 -28 117 -46t136 -42q68 -26 118 -86q48 -60 48 -151q0 -157 -124 -237t-292 -80q-369 0 -369 172q0 110 166 172q21 -74 78 -111t121 -37q137 0 137 98q-1 48 -73 78t-158 48q-86 20 -159 88t-73 184q0 145 124 233 t291 88q167 -1 265 -75q59 -44 59 -103t-50 -99t-150 -52q-17 63 -58 98t-89 35z" />
<glyph unicode="t" horiz-adv-x="877" d="M199 371v409q-107 -2 -183 -14q-16 45 -16 86q0 121 166 121h29q-5 125 -13 209q66 26 136 26t101 -5t61 -33t30 -73q0 -44 -6 -126q213 0 338 16q14 -29 14 -88q0 -108 -121 -115q-78 -4 -235 -4q-6 -202 -6 -328t2 -152t11 -62q17 -69 93 -70q102 0 164 61 q84 -59 84 -119t-70 -94q-70 -36 -170 -36q-223 0 -316 98t-93 293z" />
<glyph unicode="u" horiz-adv-x="1133" d="M1016 416q0 -260 37 -396q-101 -26 -169 -26t-115 30q-46 30 -50 87q-150 -131 -324 -131q-289 0 -289 288l7 365q0 213 -33 319q80 27 166 27q176 0 176 -125l-12 -473q0 -97 32 -151t78 -54q105 0 195 96q-2 80 -2 283t-15 397q82 27 161 27q79 -1 124 -25t45 -102 l-12 -289v-147z" />
<glyph unicode="v" horiz-adv-x="1014" d="M809 993q80 1 120 -25t40 -87q1 -119 -93 -381t-190 -391q-82 -115 -242 -115q-63 0 -135 18q-45 226 -153 516t-176 369q94 86 200 86t160 -123q102 -252 184 -563q146 383 146 602q0 33 -6 64q65 30 145 30z" />
<glyph unicode="w" horiz-adv-x="1563" d="M756 993q162 0 162 -100q0 -49 -9 -90q135 -268 185 -506q123 377 123 602q0 33 -7 64q68 30 147 30q79 1 120 -25t41 -87q0 -119 -90 -380t-179 -392q-75 -115 -229 -115q-64 0 -127 18q-39 193 -94 410q-72 -200 -149 -314t-230 -114q-64 0 -127 18q-45 228 -145 518 t-168 367q94 86 200 86t160 -123q92 -278 154 -563q122 377 122 602q0 33 -6 64q66 30 146 30z" />
<glyph unicode="x" horiz-adv-x="979" d="M889 870q0 -102 -262 -393q139 -239 334 -375q-39 -48 -59 -68q-54 -54 -146 -54q-90 0 -146 83q-69 109 -151 283q-4 -6 -33 -49t-37 -57q-9 -14 -31 -54q-54 -93 -71 -206q-238 4 -238 114q0 44 40 110t97 131t170 179q-76 127 -166 220t-157 136q82 123 205 123 q92 0 141 -75q70 -109 139 -273q109 201 113 348q258 -14 258 -123z" />
<glyph unicode="y" horiz-adv-x="1038" d="M844 993q153 0 153 -102q-1 -97 -73 -327q-166 -526 -482 -984q-61 -92 -143 -92q-104 0 -201 125q172 129 320 362q-277 766 -418 904q133 104 229 104q47 -1 75 -21t54 -78t92 -282q66 -223 103 -391q55 169 101 369t46 269t-6 114q70 30 150 30z" />
<glyph unicode="z" horiz-adv-x="1012" d="M448 -12q-216 0 -380 24q-35 42 -35 104t45 107l534 557q-61 4 -92 4q-211 0 -428 -65q-51 185 45 221q59 25 303 25t459 -41q33 -34 33 -94t-35 -95l-543 -573h15q206 0 510 82q24 -62 24 -113q1 -51 -19 -77t-42 -36q-22 -8 -64 -16q-114 -14 -330 -14z" />
<glyph unicode="{" horiz-adv-x="836" d="M512 371v-367q0 -50 6 -72q14 -50 150 -51q50 1 74 -21t24 -73t-8 -76q-27 -2 -74 -2q-236 1 -338 57t-102 171v428q0 61 -38 115t-114 55v102q76 -1 116 55t40 117v428q0 115 102 171t336 56q47 0 74 -2q8 -24 8 -76t-24 -72q-24 -22 -102 -22t-104 -24t-26 -99v-364 q0 -73 -52 -137t-108 -82q56 -20 108 -84t52 -131z" />
<glyph unicode="|" horiz-adv-x="1178" d="M500 618v35q0 686 -25 846q47 10 88 10q135 0 135 -112q0 -11 -10 -301t-10 -715v-35q0 -686 24 -846q-47 -10 -88 -10q-135 0 -135 113q1 10 11 316q10 305 10 699z" />
<glyph unicode="}" horiz-adv-x="807" d="M295 805v364q0 51 -7 73q-16 50 -151 50q-51 0 -75 22t-23 72q0 52 8 76q27 2 74 2q235 0 337 -56t101 -171v-428q0 -61 40 -117t116 -55v-102q-76 -1 -114 -55t-38 -115v-428q-1 -115 -103 -171t-337 -57q-47 0 -74 2q-8 25 -8 76q-1 51 23 73t88 21q64 1 97 15 q34 14 40 36t6 72v367q0 67 52 131t108 84q-56 18 -108 82t-52 137z" />
<glyph unicode="~" horiz-adv-x="1225" d="M53 547q0 168 262 168q113 0 292 -41t265 -41q150 0 230 72q69 -74 69 -151t-93 -118q-92 -41 -192 -41t-270 41t-262 41q-151 0 -231 -71q-70 73 -70 141z" />
<glyph unicode="&#xad;" horiz-adv-x="580" d="M387 637q88 0 160 31q22 -62 22 -120t-42 -96q-42 -36 -111 -36l-174 14q-78 0 -176 -33q-15 72 -15 122t37 90t117 40l166 -12h16z" />
<glyph unicode="&#x60c;" horiz-adv-x="557" d="M446 150q0 -60 -50 -105t-137 -45t-137 66t-50 165q0 145 94 263t244 118q75 0 75 -80q0 -10 -4 -43h-10q-55 0 -96 -44t-41 -93q0 -84 92 -98q20 -44 20 -104z" />
<glyph unicode="&#x61b;" horiz-adv-x="518" d="M260 381q76 -1 130 -55t54 -136t-57 -136q-57 -56 -133 -56t-130 56t-54 136t57 136t133 55zM442 864q0 -60 -50 -106q-50 -45 -137 -45q-87 -1 -137 65t-50 166q0 143 94 262t244 119q75 0 75 -80q0 -10 -4 -43h-10q-55 0 -96 -44t-41 -93q0 -84 92 -98q20 -43 20 -103z " />
<glyph unicode="&#x621;" horiz-adv-x="1325" d="M1229 130q0 -19 -7 -36q-41 -94 -203 -94h-577q-115 0 -150 -22q-65 -43 -67 -150q-153 18 -153 168q0 85 101 147q75 46 213 55q-86 128 -86 303q0 215 130 357t353 142h8q168 0 265 -60t97 -144q0 -150 -153 -168q-2 108 -67 150q-35 22 -133 22h-17q-167 -3 -167 -301 t166 -299h195q112 0 177 67q75 -76 75 -137z" />
<glyph unicode="&#x622;" horiz-adv-x="638" d="M140 1541q0 60 71 97q50 26 82 26t46 -2h1l1 -1l123 -46q40 4 57 51l8 22l12 -4q88 -25 92 -79v-5q0 -61 -86 -106q-36 -19 -67.5 -19t-45.5 2h-1l-1 1l-123 46q-40 -3 -65 -73q-100 25 -104 83v7zM391 1375q95 0 191 -30q-37 -132 -37 -321v-863q0 -161 -163 -161 q-95 0 -191 29q37 132 37 322v863q0 161 163 161z" />
<glyph unicode="&#x623;" horiz-adv-x="596" d="M508 1475h-199q-18 0 -27 -5.5t-21 -59.5q-63 16 -77 31t-14 42q0 54 54 84q18 10 36 15q-14 36 -14 95t47 112t113 52.5t105 -21.5q57 -29 57 -83t-61 -67l-20 -4l-12 -2q-13 53 -22.5 58.5t-28.5 5.5h-4q-37 0 -37 -69.5t36 -69.5h78q13 0 19 5l23 25l24 -24 q28 -27 28 -47q0 -72 -83 -73zM385 1375q95 0 191 -30q-38 -131 -38 -321v-863q0 -161 -162 -161q-95 0 -191 29q37 132 37 322v863q0 161 163 161z" />
<glyph unicode="&#x624;" d="M411 1130q0 73 91 98q-14 37 -14 95.5t47 111.5t126 53h1q52 0 99.5 -25.5t47.5 -79.5t-60 -66l-20 -4l-12 -2q-13 52 -22.5 58t-29.5 6h-4q-36 0 -36 -70t36 -70h78q13 0 19 6l23 24l24 -24q28 -28 28 -47q0 -72 -83 -72h-199q-18 0 -29 -6.5t-19 -58.5l-12 3l-21 4 q-59 13 -59 66zM624 -497h-130q-162 0 -203 95q-7 17 -7 36q0 60 75 136q66 -67 181 -67h82q165 0 167 297h-168q-222 0 -351.5 143.5t-129.5 358t130.5 356.5t353 142t352 -142t129.5 -356v-500q-1 -213 -130.5 -356t-350.5 -143zM789 500q0 132 -42.5 216.5t-123.5 84.5 t-124 -85t-43 -216q0 -300 166 -300h167v300z" />
<glyph unicode="&#x625;" horiz-adv-x="587" d="M130 -456q0 69 90 99q-14 36 -14 95t47 112t127 53h1q51 -1 99 -26t48 -79.5t-61 -66.5l-20 -4l-12 -2q-9 51 -20 57.5t-31 7.5h-4q-37 0 -37 -70t37 -70h77q14 0 19 5l24 25l24 -24q28 -30 28 -48t-5 -29q-19 -43 -79 -43h-198q-18 0 -28.5 -6.5t-19.5 -57.5 q-58 9 -75 27t-17 45zM390 1374q95 0 192 -29q-38 -133 -38 -322v-862q0 -161 -162 -161q-95 0 -192 29q38 132 38 321v863q0 161 162 161z" />
<glyph unicode="&#x626;" horiz-adv-x="1589" d="M72 641q0 71 90 99q-14 36 -14 95t47 112t113 52.5t105 -21.5q57 -30 57 -83.5t-61 -66.5l-20 -4l-12 -2q-8 51 -20 57.5t-31 6.5h-4q-37 0 -37 -70t37 -70h77q13 0 19 6l15 15l8 9l10 -9l14 -15q28 -26 28 -46q0 -73 -83 -73h-199q-34 0 -41 -32l-4 -20l-3 -13 q-63 16 -77 31t-14 42zM1554 131q0 -5 -1 -10q-22 -261 -225.5 -439.5t-485.5 -178.5h-5q-299 0 -506 198t-208 479v191q0 161 163 161q95 0 191 -29q-38 -132 -38 -322v-1q1 -207 103 -342t298 -135q295 0 377 297h-111q-225 1 -353.5 144t-128.5 357.5t129.5 356.5 t353.5 142h8q168 0 265 -59.5t97 -143.5q0 -151 -153 -168q-2 107 -67 149q-35 23 -134 23h-16q-166 -3 -166 -301.5t165 -299.5h191q116 0 181 67q76 -76 76 -136z" />
<glyph unicode="&#x627;" horiz-adv-x="586" d="M390 1375q95 0 191 -30q-37 -131 -37 -321v-863q0 -161 -163 -161q-95 0 -191 29q37 132 37 322v863q0 161 163 161z" />
<glyph unicode="&#x628;" horiz-adv-x="1783" d="M1587 1000q95 0 191 -29q-37 -132 -37 -322v-150q-1 -214 -130.5 -356.5t-350.5 -142.5h-707q-221 0 -350.5 143t-130.5 356v193q0 161 163 161q95 0 191 -29q-38 -133 -38 -322v-3q1 -299 167 -299h703q166 0 166 299v340q0 161 163 161zM760 -328.5q0 72.5 50.5 121.5 t118 49t115.5 -49t48 -120.5t-51 -120.5t-118 -49t-115 48t-48 120.5z" />
<glyph unicode="&#x629;" horiz-adv-x="1042" d="M216 1284.5q0 72.5 51 121.5t118 49t115 -49t48 -120.5t-51 -120.5t-118 -49t-115 48t-48 120.5zM625 1284.5q0 72.5 50 121.5q51 49 118 49t115 -49t48 -120.5t-50.5 -120.5t-117.5 -49t-115 48t-48 120.5zM1037 498q0 -214 -129.5 -356t-352 -142t-353 142.5 t-130.5 356.5t129.5 357.5t351.5 143.5h484v-502zM721 800h-167q-82 0 -124 -84t-42 -215.5t43 -216t124 -84.5t123.5 84t42.5 216v300z" />
<glyph unicode="&#x62a;" horiz-adv-x="1783" d="M567 1284.5q0 72.5 50.5 121.5t117.5 49t115 -49t48 -120.5t-50.5 -120.5t-117.5 -49t-115 48t-48 120.5zM975 1284.5q0 72.5 51 121.5t118 49t115 -49t48 -120.5t-51 -120.5t-118 -49t-115 48t-48 120.5zM1587 1000q95 0 191 -29q-37 -132 -37 -322v-150 q-1 -214 -131 -356.5t-350 -142.5h-707q-221 0 -350.5 142.5t-130.5 356.5v193q0 161 163 161q94 0 191 -29q-38 -133 -38 -322v-3q1 -299 166 -299h704q166 0 166 299v340q0 161 163 161z" />
<glyph unicode="&#x62b;" horiz-adv-x="1783" d="M567 1284.5q0 72.5 50 121.5q51 49 118 49t115 -49t48 -120.5t-50.5 -120.5t-117.5 -49t-115 48t-48 120.5zM975 1284.5q0 72.5 51 121.5t118 49t115 -49t48 -120.5t-51 -120.5t-118 -49t-115 48t-48 120.5zM1587 1000q95 0 191 -29q-38 -133 -38 -322v-150 q0 -214 -130 -356.5t-351 -142.5h-706q-221 0 -351 142.5t-130 356.5v193q0 161 162 161q95 0 192 -29q-38 -133 -38 -322v-3q0 -299 166 -299h704q166 0 166 299v340q0 161 163 161zM771 1630.5q0 72.5 51 121.5t117.5 49t114.5 -49t48 -120.5t-50.5 -120.5t-117.5 -49 t-115 48t-48 120.5z" />
<glyph unicode="&#x62c;" horiz-adv-x="1078" d="M694 -221.5q0 72.5 51 121t117.5 48.5t114.5 -48.5t48 -120.5t-50.5 -120.5t-117.5 -48.5t-115 48t-48 120.5zM395 0q-54 0 -88.5 -35t-34.5 -113t34.5 -113t88.5 -36h29q116 0 181 67q76 -76 76 -136q0 -19 -7 -36q-41 -95 -203 -95h-75q-133 0 -228 92t-96 255v4 q1 162 96 254t225 92h359q-27 106 -27 232v151q0 117 -30 171.5t-126.5 54.5t-125.5 -21q-46 -34 -57 -139q-181 6 -181 154q0 95 93 140q119 57 265 57q277 0 378 -80.5t101 -274.5v-287q0 -209 31 -303q-74 -55 -169 -55h-509z" />
<glyph unicode="&#x62d;" horiz-adv-x="1078" d="M395 0q-55 0 -89 -35t-34 -113t34 -113t89 -36h139q116 0 181 67q76 -76 76 -136q0 -19 -7 -36q-41 -95 -203 -95h-185q-133 0 -228 92t-96 255v4q1 162 96 254t225 92h359q-27 106 -27 232v151q0 117 -30 171q-31 54 -127 55q-96 0 -125 -21q-46 -34 -57 -139 q-181 6 -181 154q0 95 93 140q119 57 265 57q277 0 378 -80t101 -275v-287q0 -209 31 -303q-74 -55 -169 -55h-509z" />
<glyph unicode="&#x62e;" horiz-adv-x="1078" d="M395 0q-54 0 -88.5 -35t-34.5 -113t34.5 -113t88.5 -36h139q116 0 181 67q76 -76 76 -136q0 -19 -7 -36q-41 -95 -203 -95h-185q-133 0 -228 92t-96 255v4q1 162 96 254t225 92h359q-27 106 -27 232v151q0 117 -30 171.5t-126.5 54.5t-125.5 -21q-46 -34 -57 -139 q-181 6 -181 154q0 95 93 140q119 57 265 57q277 0 378 -80.5t101 -274.5v-287q0 -209 31 -303q-74 -55 -169 -55h-509zM435 1285.5q0 72.5 50.5 121.5t117.5 49t115 -49t48 -121t-50.5 -120.5t-117.5 -48.5t-115 48t-48 120.5z" />
<glyph unicode="&#x62f;" horiz-adv-x="1084" d="M596 1000q224 0 354 -142t130 -357q-2 -215 -130 -357t-353 -144h-237q-162 0 -203 94q-7 17 -7 36q0 61 75 137q64 -67 177 -67h195q166 1 166 299t-167 301h-17q-98 0 -133 -22q-65 -43 -67 -150q-153 18 -153 168q0 84 97 144t265 60h8z" />
<glyph unicode="&#x630;" horiz-adv-x="1084" d="M596 1000q224 0 353.5 -142t129.5 -357t-128.5 -357.5t-353.5 -143.5h-237q-162 0 -203 94q-7 17 -7 36q0 60 75 137q64 -67 177 -67h195q166 1 166 299t-167 301h-17q-98 0 -133 -22q-65 -43 -67 -150q-153 18 -153 168q0 85 97 144.5t265 59.5h8zM420 1284.5 q0 72.5 50 121.5q51 49 118 49t115 -49t48 -120.5t-50.5 -120.5t-117.5 -49t-115 48t-48 120.5z" />
<glyph unicode="&#x631;" horiz-adv-x="782" d="M519 1000q94 0 191 -29q-38 -132 -38 -322v-647q0 -213 -130 -356t-351 -143h-51q-162 0 -203 95q-7 17 -7 36q0 60 75 136q65 -67 181 -67h4q166 0 166 299v837q0 161 163 161z" />
<glyph unicode="&#x632;" horiz-adv-x="782" d="M350 1284.5q0 72.5 50 121.5q51 48 118 48t115 -48.5t48 -120t-50.5 -120.5t-117.5 -49t-115 48t-48 120.5zM519 1000q95 0 191 -29q-38 -132 -38 -322v-647q-1 -213 -130.5 -356t-350.5 -143h-51q-162 0 -203 95q-7 17 -7 36q0 60 75 136q65 -67 181 -67h4 q166 0 166 299v837q0 161 163 161z" />
<glyph unicode="&#x633;" horiz-adv-x="2924" d="M2728 1000q94 0 191 -29q-38 -133 -38 -321v-151q-1 -213 -131 -356t-350 -143h-78q-194 0 -322 116q-129 -116 -323 -116h-277q-56 -220 -231 -358t-420 -139h-4q-295 0 -483 196t-190 481v191q0 161 162 161q95 0 192 -29q-38 -132 -38 -322v-1q2 -477 360 -477 t358 477v512q0 161 162 161q95 0 192 -29q-38 -132 -38 -322v-302h253q166 0 166 299v193q0 161 163 161q95 0 191 -29q-37 -130 -37 -316v-9q0 -299 166 -299h75q165 0 166 299v340q0 161 163 161z" />
<glyph unicode="&#x634;" horiz-adv-x="2924" d="M2727 1000q95 0 192 -29q-38 -132 -38 -321v-151q-1 -213 -130.5 -356t-350.5 -143h-78q-194 0 -322 116q-129 -116 -323 -116h-277q-56 -220 -231 -358.5t-420 -138.5h-4q-295 0 -484 196t-189 481v191q0 161 162 161q95 0 192 -29q-38 -132 -38 -322v-1 q1 -477 359.5 -477t358.5 477v512q0 161 162 161q95 0 191 -29q-37 -133 -37 -322v-302h253q166 0 166 299v193q0 161 163 161q95 0 191 -29q-37 -130 -37 -316v-9q0 -299 166 -299h75q165 0 166 299v340q0 161 162 161zM1838 1630.5q0 72.5 50 121.5q51 49 118 49t115 -49 t48 -120.5t-50.5 -120.5t-117.5 -49t-115 48t-48 120.5zM1633 1285q0 72 51 121t118 49t115 -48.5t48 -120.5t-51 -120.5t-118 -48.5t-115 48t-48 120zM2042 1285q0 72 51 121t117.5 49t114.5 -48.5t48 -120.5t-50.5 -120.5t-117.5 -48.5t-115 48t-48 120z" />
<glyph unicode="&#x635;" horiz-adv-x="2494" d="M1422 687q286 303 585 313q223 0 352.5 -142t129.5 -356.5t-128.5 -357.5t-353.5 -144h-607q-57 -220 -231.5 -358.5t-419.5 -138.5h-4q-295 0 -484 196t-189 481v191q0 161 162 161q94 0 192 -29q-38 -132 -38 -322v-1q1 -477 358.5 -477t359.5 474v662q0 161 162 161 q95 0 191 -29q-33 -119 -37 -284zM2007 199q166 0 166 300q0 132 -42 216.5t-120.5 84.5t-181.5 -51q-215 -105 -407 -383v-167h585z" />
<glyph unicode="&#x636;" horiz-adv-x="2494" d="M1630 1285.5q0 72.5 50.5 121t117.5 48.5t115 -48.5t48 -120t-50.5 -120.5t-117.5 -49t-115 48t-48 120.5zM2489 501.5q0 -214.5 -128.5 -357.5t-353.5 -144h-607q-56 -220 -231 -358.5t-420 -138.5h-4q-295 0 -484 196t-189 481v191q0 161 162 161q95 0 192 -29 q-38 -131 -38 -322v-1q1 -477 358.5 -477t359.5 474v662q0 161 162 161q95 0 191 -29q-33 -119 -37 -284q291 303 585 313q224 0 353 -142t129 -356.5zM2007 200q166 0 166 300q0 132 -42 216.5t-120.5 84.5t-181.5 -51q-215 -105 -407 -383v-167h585z" />
<glyph unicode="&#x637;" horiz-adv-x="1766" d="M694 686q287 304 585 314q223 0 352.5 -142t129.5 -357t-128.5 -357.5t-353.5 -143.5h-973q-162 0 -203 94q-7 17 -7 36q0 61 75 137q64 -67 177 -67h29v1013q0 161 163 161q95 0 191 -29q-37 -132 -37 -321v-338zM1278 200q167 0 167 300q0 132 -42.5 216t-120.5 84 t-182 -51q-214 -105 -406 -382v-167h584z" />
<glyph unicode="&#x638;" horiz-adv-x="1766" d="M931 1284.5q0 72.5 51 121.5t118 49t115 -49t48 -120.5t-51 -120.5t-118 -49t-115 48t-48 120.5zM694 686q287 304 585 314q223 0 352.5 -142t129.5 -357t-128.5 -357.5t-353.5 -143.5h-973q-162 0 -203 94q-7 17 -7 36q0 60 75 137q65 -67 177 -67h30v1013 q0 162 162 162q94 0 191 -30q-37 -132 -37 -321v-338zM1279 200q166 0 166 300q0 132 -42.5 216t-120.5 84t-181 -51q-215 -105 -407 -382v-167h585z" />
<glyph unicode="&#x639;" horiz-adv-x="1096" d="M1091 204q0 -85 -97 -144.5t-265 -59.5h-334q-55 -1 -89.5 -35.5t-34.5 -113t35 -113t89 -35.5h112q112 0 177 67q75 -76 75 -136q0 -19 -7 -36q-41 -95 -203 -95h-153q-133 0 -228 92.5t-96 254.5v3q1 163 98 257q44 43 105 67q-101 133 -101 336t129.5 345t352.5 142h9 q168 0 265 -59.5t97 -143.5q0 -151 -154 -169q-2 108 -67 150q-34 23 -134 23h-16q-166 -3 -166 -301.5t165 -299.5h81q100 0 134 23q66 42 67 149q154 -17 154 -168z" />
<glyph unicode="&#x63a;" horiz-adv-x="1096" d="M1091 204q0 -85 -97 -144.5t-265 -59.5h-334q-55 -1 -89.5 -35.5t-34.5 -113t35 -113t89 -35.5h111q113 0 177 67q76 -76 76 -136q0 -19 -7 -36q-41 -95 -203 -95h-153q-133 0 -228 92t-96 255v3q1 164 98 257q44 43 105 67q-101 133 -101 336t129.5 345t352.5 142h9 q167 0 264.5 -59.5t97.5 -143.5q0 -151 -154 -169q-2 108 -67 150q-34 23 -134 23h-16q-166 -3 -166 -301.5t165 -299.5h81q100 0 134 23q66 42 67 149q154 -17 154 -168zM640 1117q-67 0 -115 47.5t-48 120t51 121.5t118 49t115 -49t48 -120t-51 -120t-118 -49z" />
<glyph unicode="&#x640;" horiz-adv-x="406" d="M-20 200h447v-200h-447v200z" />
<glyph unicode="&#x641;" horiz-adv-x="2095" d="M1125 501q0 215 129.5 357t352 142t353 -142.5t130.5 -356.5t-130 -357.5t-351 -143.5h-1056q-221 0 -350.5 142.5t-130.5 356.5v193q0 161 163 161q94 0 191 -29q-38 -132 -38 -322v-3q1 -299 167 -299h570v301zM1607 200q166 0 166 300q0 131 -42.5 215.5t-124 84.5 t-123.5 -84t-42 -216v-300h166zM1778 1285.5q0 -71.5 -50.5 -120.5t-117.5 -49t-115 48t-48 120.5t50 121.5q51 49 118 49t115 -49t48 -120.5z" />
<glyph unicode="&#x642;" horiz-adv-x="1572" d="M878 1455q67 0 115 -48.5t48 -120.5t-50.5 -120.5t-117.5 -48.5t-115 47.5t-48 120.5t50.5 121.5t117.5 48.5zM1287 1455q67 0 115 -49t48 -120.5t-51 -120t-118 -48.5t-115 47.5t-48 120t51 121.5t118 49zM1082 0q-221 0 -351 143.5t-130 358t131 356.5t353.5 142 t352 -142t129.5 -356v-321q0 -93 -27 -181q-64 -215 -266.5 -356t-452.5 -141h-4q-302 0 -523.5 199.5t-221.5 477.5v191q0 161 162 161q95 0 192 -29q-38 -132 -38 -322v-1q0 -202 116 -339.5t315 -137.5q152 0 259.5 82t146.5 215h-143zM1250 200v300q0 132 -42 216.5 t-123 84.5t-124 -85t-43 -216q0 -300 166 -300h166z" />
<glyph unicode="&#x643;" horiz-adv-x="1783" d="M699 751q0 69 90 99q-14 36 -14 95t47 112t113 52.5t105 -21.5q57 -30 57 -83.5t-61 -66.5l-20 -4l-12 -2l-2 12l-5 20q-4 20 -14.5 26t-29.5 6h-4q-37 0 -37 -70t37 -70h77q14 0 19 6l24 24l23 -24q28 -26 28 -46q0 -73 -83 -73h-199q-35 0 -41 -32l-4 -20l-3 -13 q-64 16 -77.5 31t-13.5 42zM1587 1375q94 0 191 -29q-38 -133 -38 -322v-525q0 -214 -130 -356.5t-351 -142.5h-706q-221 0 -351 142.5t-130 356.5v193q0 161 162 161q95 0 192 -29q-38 -132 -38 -322v-3q0 -299 166 -299h704q166 0 166 299v714q0 162 163 162z" />
<glyph unicode="&#x644;" horiz-adv-x="1464" d="M1268 1374q95 0 191 -29q-37 -132 -37 -322v-844q-2 -285 -190 -481t-483 -196h-4q-295 0 -484 196t-189 481v191q0 161 162 161q95 0 191 -29q-37 -133 -37 -321v-2q1 -477 359 -477t359 477v1034q0 161 162 161z" />
<glyph unicode="&#x645;" horiz-adv-x="1397" d="M426 158v-494q0 -161 -163 -161q-95 0 -191 29q37 132 37 322v360q0 148 90 227.5t228 80.5q7 207 136.5 342.5t349.5 135.5t349.5 -142t129.5 -357t-129.5 -358t-354.5 -143q-329 0 -443 291q-39 -39 -39 -133zM909 200q166 0 166 300q0 132 -42 216.5t-123 84.5 t-124 -85t-43 -216q0 -300 166 -300z" />
<glyph unicode="&#x646;" horiz-adv-x="1464" d="M589 576.5q0 72.5 51 121.5t118 49t115 -49t48 -120.5t-51 -120.5t-118 -49t-115 48t-48 120.5zM1268 852q94 0 191 -29q-37 -133 -37 -322v-322q-1 -285 -189.5 -481t-483.5 -196h-4q-295 0 -484 196t-189 481v191q0 161 162 161q95 0 191 -29q-37 -132 -37 -322v-1 q1 -477 359.5 -477t358.5 477v512q0 161 162 161z" />
<glyph unicode="&#x647;" horiz-adv-x="1042" d="M1037 498q1 -214 -129 -356t-352 -142t-354 142q-130 142 -130 357q0 213 130 357t351 144h484v-502zM721 800h-167q-166 0 -166 -300q0 -132 43 -216t124 -84t123 84t43 216v300z" />
<glyph unicode="&#x648;" horiz-adv-x="1186" d="M634 -497h-130q-162 0 -203 95q-7 17 -7 36q0 60 75 136q66 -67 181 -67h82q166 0 167 297h-168q-222 0 -351.5 143.5t-129.5 358t130.5 356.5t353 142t352 -142t129.5 -356v-500q-1 -213 -130.5 -356t-350.5 -143zM799 500q0 132 -42.5 216.5t-123.5 84.5t-124 -85 t-43 -216q0 -300 166 -300h167v300z" />
<glyph unicode="&#x649;" horiz-adv-x="1537" d="M1502 129v-9q-22 -262 -226 -440t-486 -178h-4q-298 0 -506 198t-208 479v191q0 161 162 161q96 0 192 -29q-38 -132 -38 -322v-1q0 -207 102 -342t298 -135q296 0 377 298h-111q-224 0 -352 143t-129 357t129 357q130 142 353 142h9q168 1 265 -59t97 -144 q0 -151 -154 -168q-1 107 -67 149q-34 23 -134 23h-16q-166 -4 -166 -302t165 -299h192q115 0 181 67q75 -76 75 -137z" />
<glyph unicode="&#x64a;" horiz-adv-x="1537" d="M417 -733.5q0 72.5 50.5 121.5t117.5 49t115 -49t48 -120.5t-50.5 -120.5t-117.5 -49t-115 48t-48 120.5zM826 -733.5q0 72.5 50 121.5q51 49 118 49t115 -49t48 -120.5t-50.5 -120.5t-117.5 -49t-115 48t-48 120.5zM1502 129v-9q-22 -261 -225.5 -439.5t-486.5 -178.5 h-4q-299 0 -506.5 198t-207.5 479v191q0 161 162 161q96 0 192 -29q-38 -132 -38 -322v-1q0 -207 102 -342t298 -135q296 0 377 298h-111q-224 0 -352.5 143t-128.5 357.5t129.5 356.5t352.5 142h9q168 0 265 -59.5t97 -143.5q0 -151 -154 -168q-1 107 -67 149 q-34 23 -134 23h-16q-166 -3 -166 -301.5t165 -299.5h192q115 0 181 67q75 -76 75 -137z" />
<glyph unicode="&#x64b;" horiz-adv-x="0" d="M145.5 23q-30.5 0 -62.5 -3l-237 -19q-11 -1 -34.5 -1t-46.5 19t-23 57.5t13 80.5q49 -15 88 -15t70 3l237 18q11 1 21 1q83 0 83 -93q0 -21 -13 -63q-65 15 -95.5 15zM-188 214q-24 0 -47 19t-23 57t13 80q65 -15 96 -15t62 3l237 19q10 1 34 1t47 -19t23 -57.5 t-13 -80.5q-49 15 -88 15t-70 -3l-237 -18q-10 -1 -34 -1z" />
<glyph unicode="&#x64c;" horiz-adv-x="0" d="M-96 124h2l-5 42q-1 8 -1 16q0 65 48.5 114.5t125.5 49.5t129 -44t52 -117.5t-44.5 -119.5t-119.5 -52l-163 -12q-9 -1 -17 -1q-64 0 -102 37t-44 99t-44 62q-26 0 -70 -22l-22 83q90 30 131 30q100 0 110 -96v-1l2 -21q1 -47 32 -47zM82 237q-65 0 -65 -47v-6l4 -49 l65 4q64 6 64 51v5q-3 42 -68 42z" />
<glyph unicode="&#x64d;" horiz-adv-x="0" d="M155.5 -356q-38.5 0 -70.5 -3l-237 -19q-11 -1 -34.5 -1t-46.5 19t-23 57.5t13 80.5q49 -15 88 -15t70 3l237 18q11 1 34 1t44 -16.5t26 -63.5v-9q0 -25 -13 -67q-49 15 -87.5 15zM155 -143q-39 0 -70 -3l-237 -18q-10 -1 -34 -1t-47 19t-23 57t13 80q65 -15 96 -15t62 3 l237 19q10 1 34 1t44.5 -17t25.5 -64v-9q0 -22 -13 -67q-49 15 -88 15z" />
<glyph unicode="&#x64e;" horiz-adv-x="0" d="M145.5 23q-30.5 0 -62.5 -3l-237 -19q-11 -1 -34.5 -1t-46.5 19t-23 57.5t13 80.5q49 -15 88 -15t70 3l237 18q11 1 21 1q83 0 83 -93q0 -21 -13 -63q-65 15 -95.5 15z" />
<glyph unicode="&#x64f;" horiz-adv-x="0" d="M-97 191q0 65 48.5 114t125.5 49t125.5 -41t54.5 -112v-14q0 -68 -44 -114t-119 -52l-273 -20q-7 -1 -24 -1q-45 0 -53 67v9q0 25 12 64q42 -12 75 -12l23 1l54 4l-4 41q-1 8 -1 17zM84.5 245q-64.5 0 -64.5 -47v-6l4 -49l65 5q63 4 63 47v8q-3 42 -67.5 42z" />
<glyph unicode="&#x650;" horiz-adv-x="0" d="M155 -143q-39 0 -70 -3l-237 -18q-10 -1 -34 -1t-47 19t-23 57t13 80q65 -15 96 -15t62 3l237 19q10 1 34 1t44.5 -17t25.5 -64v-9q0 -22 -13 -67q-49 15 -88 15z" />
<glyph unicode="&#x651;" horiz-adv-x="0" d="M-244 224q0 73 70 73q20 0 43 -9l24 -10l-10 -25q-11 -29 -11 -75v-20q0 -62 34 -62h2q33 0 33 62v49q0 73 70 73q20 0 43 -9l24 -11l-9 -25q-12 -28 -12 -74v-3q0 -62 34 -62h4q33 0 34 62v66q0 73 70 73q20 0 42 -9l25 -10l-10 -25q-11 -29 -11 -75v-21 q-1 -66 -41 -111.5t-109 -45.5h-5q-53 0 -91 29q-38 -29 -91 -29h-3q-65 0 -106.5 44.5t-42.5 113.5v66z" />
<glyph unicode="&#x652;" horiz-adv-x="0" d="M2 0q-76 0 -120 50t-44 126t46 124t120 48t118 -50t44 -124t-44 -124t-120 -50zM2 228q-46 0 -46 -60t46 -60t46 60t-46 60z" />
<glyph unicode="&#x660;" d="M803 647q1 201 -57 365t-160 164q-97 0 -158 -126t-61 -328t57 -372t160 -170q98 0 158 133t61 334zM586 -20q-246 0 -390 189t-145 509q1 320 145 510t390 190t392 -190t146 -508q0 -320 -146 -510t-392 -190z" />
<glyph unicode="&#x661;" d="M172 1208q0 127 104 140q242 30 361 30q49 0 87 -24t38 -78q0 -16 -8 -221t-9 -418v-107q0 -225 15 -337q131 0 203 8q18 -41 18 -90q0 -115 -100 -115l-406 4q-192 0 -274 -2q-21 57 -21 100q0 101 139 101h119l4 526q0 236 -6 432q-221 -22 -256 -29q-8 54 -8 80z" />
<glyph unicode="&#x662;" d="M725 951q0 223 -167 223q-77 0 -161 -54t-133 -133q-151 43 -151 162q-1 81 155 155t336 74t307 -101t127 -288q0 -113 -72 -255q-37 -72 -142 -187t-195 -189q-90 -73 -168 -137q3 -2 149 -2q146 1 254 9t217 44q27 -71 27 -120q0 -92 -58 -124t-380 -32l-482 4 q-108 0 -108 123q0 35 12 92q395 346 514 481t119 255z" />
<glyph unicode="&#x663;" d="M1028 389q0 -165 -150 -287t-409 -122q-358 0 -358 149q1 47 37 89t92 58q24 -42 90 -70t150 -28q85 0 156 54t71 158q0 102 -73 170t-191 67q-118 1 -138 49q-10 24 -10 63t6 68q179 -1 271 69t92 164q0 68 -39 103t-105 35t-135 -46q-68 -46 -90 -116q-76 10 -117 50 t-41 87q0 85 123 155q124 70 314 70t300 -93t111 -222q0 -219 -240 -318q163 -65 223 -150t60 -206z" />
<glyph unicode="&#x664;" d="M803 1378q96 0 149 -14q0 -6 -9 -152t-9 -464v-142q149 12 199 35q20 -57 20 -133t-47 -98t-172 -23q0 -221 49 -381q-77 -26 -181 -26t-140 40t-37 142q0 10 4 227q-359 0 -506 12q-57 5 -75 35t-19 67q0 38 4 79q84 143 267 391t278 342q69 63 225 63zM462 596 q95 0 167 6q0 189 6 404q-17 -21 -123 -150t-190 -258q45 -2 140 -2z" />
<glyph unicode="&#x665;" d="M565 915q217 0 338 -130t121 -326q0 -127 -51 -225t-137 -151q-169 -106 -381 -106q-147 0 -249 39t-102 105q0 43 38 83t96 54q59 -86 192 -86q132 0 202 75t70 187t-94 202q-94 89 -274 89q-55 0 -137 -14q-21 30 -21 99t27 550q73 -4 401 -4t381 16q31 -60 31 -114 t-43 -91t-119 -37q-156 0 -371 13l-30 -236q51 8 112 8z" />
<glyph unicode="&#x666;" d="M582 -20q-269 0 -380 184q-98 162 -98 384t79 404t244 304t382 122q90 0 130 -26t40 -80q0 -55 -12 -115q-47 14 -131 14q-192 1 -294 -119t-118 -300q117 90 248 90q184 -2 288 -121t103 -293q0 -174 -127 -311t-354 -137zM606 182q60 0 98 60t39 152q-1 91 -39 170 t-116 79t-166 -47q0 -301 87 -381q37 -33 97 -33z" />
<glyph unicode="&#x667;" d="M233 1130q-73 0 -111 40t-38 96t25 106q114 -16 262 -16q614 0 735 4q18 -33 18 -75t-12 -79q-59 -178 -547 -1085q-43 -81 -79 -111t-80 -30q-152 0 -275 118q174 164 382 497t294 546q-297 -11 -574 -11z" />
<glyph unicode="&#x668;" d="M592 -20q-234 0 -361 108t-127 262q0 152 78 235t228 150q-124 60 -188 143t-64 211q0 129 127 209t319 80t304 -88q114 -88 114 -211q0 -92 -66 -176t-186 -135q152 -68 230 -165t79 -251q0 -154 -127 -264q-126 -108 -360 -108zM586 182q82 0 126 52t44 132t-50 158 t-147 125q-57 -35 -97 -119t-40 -166t41 -132t123 -50zM473 1081q0 -61 47 -131t103 -94q88 62 88 199q0 114 -121 121q-117 0 -117 -95z" />
<glyph unicode="&#x669;" d="M586 1378q135 0 231 -49q97 -49 149 -135q98 -160 97 -383q0 -223 -79 -405t-244 -304t-382 -122q-90 0 -130 26t-40 81q0 56 13 114q47 -15 131 -15q192 0 294 120t117 300q-116 -90 -247 -90q-184 2 -288 121t-104 293t127 311t355 137zM562 1176q-60 0 -99 -60 t-39 -152t39 -170t117 -79q78 0 165 47q-1 301 -87 381q-36 33 -96 33z" />
<glyph unicode="&#x66a;" horiz-adv-x="1755" d="M483 738q1 64 -25 115q-26 52 -70 52t-72 -39q-28 -38 -29 -102t25 -118t71 -54t73 41t27 105zM386 449q-146 1 -233 81t-87 218t87 218q87 81 233 81t234 -81q88 -80 87 -218q1 -138 -87 -218t-234 -81zM1354 1014q0 -30 -29 -70l-379 -489q-250 -318 -409 -547 q-123 37 -123 102q0 31 28 68l379 485q258 328 410 547q43 -6 83 -36t40 -60zM1466 268q0 64 -26 116t-69 52q-45 0 -73 -39t-28 -103t26 -117q26 -54 70 -54t72 41q28 40 28 104zM1370 -20q-146 0 -234 80q-87 80 -87 218t87 219q88 81 234 81t233 -81t87 -219t-87 -218 t-233 -80z" />
<glyph unicode="&#x2000;" horiz-adv-x="939" />
<glyph unicode="&#x2001;" horiz-adv-x="1878" />
<glyph unicode="&#x2002;" horiz-adv-x="939" />
<glyph unicode="&#x2003;" horiz-adv-x="1878" />
<glyph unicode="&#x2004;" horiz-adv-x="626" />
<glyph unicode="&#x2005;" horiz-adv-x="469" />
<glyph unicode="&#x2006;" horiz-adv-x="313" />
<glyph unicode="&#x2007;" horiz-adv-x="313" />
<glyph unicode="&#x2008;" horiz-adv-x="234" />
<glyph unicode="&#x2009;" horiz-adv-x="375" />
<glyph unicode="&#x200a;" horiz-adv-x="104" />
<glyph unicode="&#x2010;" horiz-adv-x="580" d="M387 637q88 0 160 31q22 -62 22 -120t-42 -96q-42 -36 -111 -36l-174 14q-78 0 -176 -33q-15 72 -15 122t37 90t117 40l166 -12h16z" />
<glyph unicode="&#x2011;" horiz-adv-x="580" d="M387 637q88 0 160 31q22 -62 22 -120t-42 -96q-42 -36 -111 -36l-174 14q-78 0 -176 -33q-15 72 -15 122t37 90t117 40l166 -12h16z" />
<glyph unicode="&#x2012;" horiz-adv-x="580" d="M387 637q88 0 160 31q22 -62 22 -120t-42 -96q-42 -36 -111 -36l-174 14q-78 0 -176 -33q-15 72 -15 122t37 90t117 40l166 -12h16z" />
<glyph unicode="&#x2013;" horiz-adv-x="1086" d="M715 637q174 0 317 31q43 -62 43 -120t-83 -96q-83 -36 -219 -36l-344 14q-155 0 -348 -33q-30 72 -30 122t73 90t231 40l329 -12h31z" />
<glyph unicode="&#x2014;" horiz-adv-x="2110" d="M1379 637q348 0 633 31q87 -62 87 -120t-166 -96q-166 -36 -439 -36l-688 14q-308 0 -696 -33q-59 72 -59 122t146.5 90t462.5 40l656 -12h63z" />
<glyph unicode="&#x202f;" horiz-adv-x="375" />
<glyph unicode="&#x205f;" horiz-adv-x="469" />
<glyph unicode="&#x25fc;" horiz-adv-x="995" d="M0 995h995v-995h-995v995z" />
<glyph horiz-adv-x="0" />
<glyph horiz-adv-x="0" />
<glyph horiz-adv-x="0" />
<glyph horiz-adv-x="0" />
</font>
</defs>
</svg>
