<?xml version="1.0" standalone="no"?>
<!DOCTYPE svg PUBLIC "-//W3C//DTD SVG 1.1//EN" "http://www.w3.org/Graphics/SVG/1.1/DTD/svg11.dtd" >
<svg xmlns="http://www.w3.org/2000/svg" xmlns:xlink="http://www.w3.org/1999/xlink" version="1.1">
<metadata></metadata>
<defs>
<font id="sukarregularregular" horiz-adv-x="1096" >
<font-face units-per-em="2048" ascent="1638" descent="-410" />
<missing-glyph horiz-adv-x="508" />
<glyph unicode="&#xd;" horiz-adv-x="508" />
<glyph horiz-adv-x="0" />
<glyph horiz-adv-x="0" />
<glyph unicode=" "  horiz-adv-x="508" />
<glyph unicode="&#x09;" horiz-adv-x="508" />
<glyph unicode="&#xa0;" horiz-adv-x="508" />
<glyph unicode="!" horiz-adv-x="637" d="M205 108q0 56 37 94t88 38t87 -38t36 -94t-36 -92t-87 -36t-88 36t-37 92zM207 1389q72 14 106 14q97 0 97 -100q0 -58 -18 -231t-19 -320v-90q0 -164 33 -254q-41 -21 -76 -21q-82 0 -84 98q-2 27 -2 232q0 516 -37 672z" />
<glyph unicode="&#x22;" horiz-adv-x="707" d="M102 1438q0 28 28 50t67 21t63 -23t25 -90q0 -68 -39 -323q-14 -88 -68 -88q-28 0 -53 8q6 37 6 122q-1 85 -15 189t-14 134zM442 1438q0 28 28 50t66 21t64 -23q25 -22 25 -90t-39 -323q-14 -88 -69 -88q-28 0 -52 8q6 37 6 122q-1 85 -15 189t-14 134z" />
<glyph unicode="#" d="M29 479q-1 82 117 82t182 -2l30 238q-170 -9 -274 -37q-6 20 -6 67q0 82 129 82l166 -2q30 226 37 342q28 6 55 6q63 0 63 -65q0 -14 -51 -285h234q2 19 18 157t19 187q28 6 55 6q63 0 63 -65q0 -4 -49 -281q242 11 279 13q-2 -45 -6 -69q-4 -23 -26 -47q-24 -24 -54 -24 t-215 11q-19 -111 -35 -234q186 8 287 14q-5 -63 -14 -89t-31 -38q-22 -10 -48 -10t-211 10q-20 -178 -20 -225t8 -121q-29 -16 -65 -16q-62 0 -62 68q0 30 43 299q-53 2 -174 2h-65q-23 -203 -23 -241t8 -112q-28 -16 -65 -16q-62 0 -62 68q0 30 43 299q-170 -9 -274 -37 q-6 20 -6 65zM422 557q190 0 244 2q12 74 30 238q-53 2 -174 2h-63q-27 -150 -37 -242z" />
<glyph unicode="$" d="M125 168q-1 40 23 62t73 46q31 -65 105 -111t159 -61v512q-77 24 -125 46t-102 65q-108 84 -108 281q0 154 93 246t240 112q-4 96 -8 141q21 6 35 6q55 0 55 -55v-84q129 0 237 -50t109 -136q0 -78 -108 -98q-29 61 -95 104t-143 53v-487q213 -60 295 -146t82 -240 t-102 -270q-102 -114 -273 -122q4 -91 8 -138l-30 -4q-60 0 -60 56v84q-143 4 -251 59t-109 129zM297 1028q0 -98 48 -150t140 -90v461q-84 -11 -136 -67t-52 -154zM565 100q101 6 165 70t65 176q-1 113 -59 163t-171 85v-494z" />
<glyph unicode="%" horiz-adv-x="1540" d="M102 1023q0 157 79 248t213 91t213 -92t79 -248t-79 -248t-213 -92t-213 92t-79 249zM233 1042q0 -98 42 -178t116 -80t117 64t43 160q0 98 -41 176q-40 78 -112 78t-118 -62t-47 -158zM293 2q0 25 16 49l606 957q156 247 246 409q35 -3 63 -21t29 -42q0 -24 -14 -45 l-606 -959q-146 -229 -246 -409q-88 18 -94 61zM854 320q0 156 79 248q79 91 213 91t213 -92q79 -91 79 -247t-79 -248t-213 -92t-213 92t-79 248zM985 339q0 -97 42 -177t116 -80t117 64t43 160q0 97 -41 175t-113 78q-72 1 -118 -61t-46 -159z" />
<glyph unicode="&#x26;" horiz-adv-x="1262" d="M102 350q0 119 58 202t164 157q-146 217 -146 357t100 226t246 86t226 -76t79 -184q-1 -66 -27 -128t-58 -102q-64 -82 -246 -194q176 -256 368 -420q37 80 37 176t-18 136q45 24 73 24q89 0 89 -121q0 -167 -80 -290q127 -84 229 -84q4 -21 4 -51t-24 -56 q-24 -28 -76 -28q-101 0 -238 104q-137 -104 -317 -104q-179 0 -311 98t-132 272zM256 374q0 -128 86 -204t214 -76t218 66q-211 200 -387 452q-131 -110 -131 -238zM319 1079q0 -90 121 -295q80 54 124 88t83 96q39 60 39 130t-43 122t-131 52q-193 0 -193 -193z" />
<glyph unicode="'" horiz-adv-x="489" d="M123 1438q-1 28 27 50t67 21t63 -23t25 -90q0 -68 -39 -323q-14 -88 -68 -88q-28 0 -53 8q7 37 7 122t-14 189t-15 134z" />
<glyph unicode="(" horiz-adv-x="702" d="M184 541q0 174 42 354t100 308t118 211q62 83 100 83t70 -47q-126 -143 -204 -398q-78 -256 -78 -520t80 -512t202 -389q-32 -47 -69 -47t-97 81t-120 208t-102 311t-42 357z" />
<glyph unicode=")" horiz-adv-x="655" d="M41 -369q123 141 203 389t80 512t-78 520q-78 255 -205 398q33 47 71 47t99 -83t119 -211t99 -308q42 -180 42 -354q0 -173 -42 -357q-41 -184 -101 -311t-120 -208t-98 -81q-36 0 -69 47z" />
<glyph unicode="*" horiz-adv-x="831" d="M72 1233q8 47 32 85t54 38q28 0 54 -13t150 -98q-4 55 -30 266q35 11 65 11q97 0 97 -80q0 -21 -27 -203q41 27 213 152q59 -52 59 -103q0 -50 -52 -78t-189 -77q45 -48 213 -195q-47 -84 -113 -84q-28 0 -52 28t-70 101q-46 74 -64 102q-33 -45 -156 -256q-38 15 -70 43 t-32 59q0 29 30 63t79 82q50 48 65 63q-66 28 -256 94z" />
<glyph unicode="+" d="M100 505q0 33 18 59t56 26l315 -15q0 263 -16 404q19 6 59 6q40 -1 64 -21q25 -20 25 -53l-15 -338q242 0 383 17q6 -18 6 -58q-1 -40 -21 -65t-52 -25l-318 15q0 -224 17 -404q-31 -6 -64 -6q-33 -1 -59 19t-25 55l14 338q-202 -2 -381 -17q-6 31 -6 63z" />
<glyph unicode="," horiz-adv-x="465" d="M55 -231q0 16 2 24h11q65 0 108 49t43 113q0 100 -100 121q-21 34 -21 72t35 68t86 30t89 -47t38 -161t-70 -222t-167 -109q-54 0 -54 62z" />
<glyph unicode="-" horiz-adv-x="471" d="M51 524q-1 32 17 54q18 24 57 24l170 -8q96 0 160 14q6 -18 6 -57q-1 -39 -21 -61t-53 -23l-158 10q-96 0 -172 -16q-6 31 -6 63z" />
<glyph unicode="." horiz-adv-x="473" d="M102 108q0 56 37 94t89 38t86 -38q36 -38 36 -94t-36 -92q-34 -36 -86 -36t-89 36t-37 92z" />
<glyph unicode="/" horiz-adv-x="528" d="M86 -193q0 15 193 1231q45 299 61 475l43 7q74 0 74 -56l-193 -1233q-45 -299 -61 -475q-27 -6 -49 -6q-68 0 -68 57z" />
<glyph unicode="0" d="M61 678q-1 320 131 510t355 190t355 -190t132 -508q0 -320 -132 -510t-355 -190t-355 189t-131 509zM215 741q0 -352 145 -540q78 -101 185 -101q149 0 241 156t91 387q0 332 -148 516q-76 98 -182 98q-144 1 -238 -149t-94 -367z" />
<glyph unicode="1" d="M238 1257q0 78 79 89q220 32 256 32q89 0 89 -78q0 -16 -8 -221t-9 -442v-127q0 -268 14 -399q142 0 213 8q9 -25 9 -45q0 -78 -80 -78l-328 4q-156 0 -219 -2q-10 31 -10 49q0 70 118 70h140l4 608q0 289 -6 516q-221 -22 -256 -29q-6 25 -6 45z" />
<glyph unicode="2" d="M84 96q0 19 2 27q418 387 546 541t128 294t-74 218t-170 79q-96 0 -182 -48t-139 -126q-78 11 -78 68q0 81 128 155q129 74 283 74t270 -98t115 -276q-1 -107 -33 -197q-32 -91 -119 -197t-197 -210t-312 -271q70 -4 234 -4t264 10t200 47q29 -51 29 -95t-51 -62 q-78 -29 -354 -29t-396 4q-94 0 -94 96z" />
<glyph unicode="3" d="M133 106q0 66 76 76q71 -82 231 -82t244 85t84 200t-98 199t-273 84q-30 0 -45 4q-35 6 -35 67q0 17 2 29q203 0 305 81t101 180q1 99 -59 163t-145 65q-85 -1 -157 -41t-116 -118q-40 0 -64 20t-24 47q0 73 112 143t268 70q154 0 248 -93t95 -222q-1 -96 -55 -180 t-162 -138q148 -65 204 -151t56 -205q0 -165 -129 -287t-355 -122q-153 0 -231 38t-78 88z" />
<glyph unicode="4" d="M90 524q0 29 4 58q88 152 291 422t293 350q29 24 80 24t88 -4q0 -6 -10 -158t-9 -468v-183q152 13 201 35q16 -37 16 -88q0 -50 -44 -66t-171 -18q0 -303 39 -432q-37 -16 -90 -16q-54 0 -74 26t-20 100t4 320q-434 0 -551 14q-47 6 -47 84zM236 559q106 -6 224 -6t228 6 q0 277 6 627q-86 -94 -217 -274t-241 -353z" />
<glyph unicode="5" d="M125 106q0 66 76 76q69 -82 230 -82t246 100t85 232q0 134 -98 232t-269 98q-88 0 -170 -10q-20 20 -20 74t26 534q59 -4 305 -4t328 16q21 -31 21 -69q0 -91 -159 -91t-380 13l-29 -359q78 13 146 13q225 0 341 -116q116 -117 116 -313t-129 -333t-357 -137 q-153 0 -231 38t-78 88z" />
<glyph unicode="6" d="M121 563q0 316 168 559q80 116 207 186t278 70q84 0 84 -71q0 -23 -8 -60q-57 8 -82 8q-219 1 -346 -167t-146 -412q146 125 312 125q166 -1 278 -105t111 -277q0 -173 -118 -306t-312 -133q-121 0 -207 49t-131 135q-88 162 -88 399zM274 561q7 -334 144 -422 q59 -39 145 -39q121 0 189 85t67 211t-75 207t-204 81t-266 -123z" />
<glyph unicode="7" d="M109 1303q0 28 20 69q100 -16 229 -16q516 0 621 4q16 -33 16 -75t-12 -79q-65 -205 -547 -1085q-40 -77 -72 -109t-67 -32q-59 0 -131 79q174 183 382 555t294 609q-314 -11 -578 -11q-155 0 -155 91z" />
<glyph unicode="8" d="M102 350q0 152 77 243t214 150q-123 68 -180 144t-57 203q0 128 112 208t268 80q158 0 271 -80t113 -211q0 -221 -248 -325q151 -72 227 -165t76 -247q1 -154 -113 -262t-323 -108t-323 108t-114 262zM256 368q0 -114 77 -191t205 -77t204 77t75 189q1 112 -75 183 q-76 72 -236 141q-126 -55 -188 -132q-62 -76 -62 -190zM305 1081q0 -159 264 -266q201 86 201 266q0 84 -68 130t-166 46q-96 0 -164 -46t-67 -130z" />
<glyph unicode="9" d="M90 941q0 173 118 306t312 133q239 0 340 -184q86 -162 86 -399q0 -316 -168 -559q-80 -116 -207 -186t-278 -70q-84 0 -84 71q0 23 8 60q57 -9 82 -9q219 0 346 168t146 412q-146 -125 -312 -125q-165 1 -277 105t-112 277zM248 964q0 -126 74 -207t205 -81 q130 0 266 123q-7 334 -146 422q-57 39 -143 39q-120 0 -188 -85t-68 -211z" />
<glyph unicode=":" horiz-adv-x="473" d="M102 108q0 56 37 94t89 38t86 -38q36 -38 36 -94t-36 -92q-34 -36 -86 -36t-89 36t-37 92zM102 848q0 55 37 93t89 38t86 -38q36 -38 36 -93t-36 -92q-34 -37 -86 -37t-89 37t-37 92z" />
<glyph unicode=";" horiz-adv-x="504" d="M55 -231q0 16 2 24h11q65 0 108 49t43 113q0 100 -100 121q-21 34 -21 72t35 68t86 30t89 -47t38 -161t-70 -222t-167 -109q-54 0 -54 62zM96 848q0 55 37 93t88 38t87 -38t36 -93t-36 -92t-87 -37t-88 37t-37 92z" />
<glyph unicode="&#x3c;" d="M217 514l449 430q26 23 54 23q28 1 56 -21t41 -49l-444 -383q76 -76 444 -408q-37 -69 -100 -69q-29 0 -51 22z" />
<glyph unicode="=" d="M141 300q1 32 19 58t55 27q6 0 129 -7t301 -7t303 14q6 -18 6 -58q0 -41 -20 -65t-53 -24l-320 16q-233 0 -414 -16q-6 30 -6 62zM141 710q1 32 19 58q18 27 55 27q6 1 129 -7t301 -8t303 15q6 -19 6 -59t-20 -64t-53 -25l-320 17q-233 0 -414 -17q-6 31 -6 63z" />
<glyph unicode="&#x3e;" d="M246 106q368 332 444 408l-444 383q14 27 42 49t55 21q28 0 54 -23l449 -430l-449 -455q-22 -22 -51 -22q-63 0 -100 69z" />
<glyph unicode="?" horiz-adv-x="782" d="M82 1223q0 82 90 130t222 48t224 -55q123 -72 123 -218q-1 -92 -33 -166t-78 -120q-46 -47 -93 -90q-111 -105 -111 -215q0 -62 23 -129q-43 -21 -78 -21q-95 0 -95 131t111 256q45 51 92 103q111 124 111 256q0 86 -72 129q-42 24 -112 24t-140 -42t-90 -111 q-94 14 -94 90zM248 108q0 56 37 94t88 38t87 -38t36 -94t-36 -92t-87 -36t-88 36t-37 92z" />
<glyph unicode="@" horiz-adv-x="1763" d="M182 369q0 149 58 297t158 269q102 121 260 197t346 76q264 0 420 -146t155 -371q0 -224 -134 -387q-133 -163 -271 -163t-177 158q-104 -188 -254 -188q-99 1 -163 75t-64 215q0 209 108 357t278 149q169 0 298 -94q-76 -303 -76 -461q0 -112 81 -112t156 108t75 308 q0 198 -114 318t-349 120q-191 0 -345 -112t-230 -274t-76 -350t120 -322t353 -134q111 0 205 45t126 119q88 -37 88 -99q0 -80 -124 -135t-289 -55q-303 0 -461 170t-158 422zM659 444q0 -90 31 -149t84 -59q52 0 110 47t101 135q7 54 21 166t18 145q-70 57 -155 57 t-147 -94t-63 -248z" />
<glyph unicode="A" horiz-adv-x="1128" d="M10 36q0 27 88 232q295 695 408 1084q39 6 88 6q50 0 70 -18t43 -91q129 -415 259 -754t199 -475q-57 -40 -98 -40q-66 0 -88 55q-39 100 -141 393q-230 -4 -279 -4t-254 4q-137 -346 -172 -471q-123 26 -123 79zM356 549q160 -4 268 -4t171 4q-70 182 -211 616 q-18 -47 -94 -262t-134 -354z" />
<glyph unicode="B" horiz-adv-x="1120" d="M141 109q33 233 33 649t-27 596q153 24 351 24t340 -82q141 -81 141 -275q0 -199 -178 -280q227 -96 227 -350q0 -195 -126 -303t-308 -108q-297 0 -453 129zM299 178q39 -30 113 -52t145 -22q133 0 223 75t90 211t-101 212t-241 76t-202 -10q0 -164 -27 -490zM319 1245 q9 -172 9 -461q65 -4 112 -4q381 0 381 234q0 239 -362 239q-49 0 -140 -8z" />
<glyph unicode="C" horiz-adv-x="1233" d="M100 688q0 320 174 505t471 185q161 0 269 -64t108 -159q0 -84 -116 -102q-39 100 -123 150t-178 50q-193 -1 -315 -153t-122 -396t123 -422t344 -178q99 0 184 43t134 127q90 -36 90 -105t-117 -129t-289 -60q-289 0 -463 194t-174 514z" />
<glyph unicode="D" horiz-adv-x="1300" d="M135 109q29 186 31 616v58q0 386 -25 571q123 24 300 24t304 -34t233 -112q222 -162 222 -550q0 -306 -164 -504t-454 -198t-447 129zM293 178q109 -74 255 -74q274 0 386 183q94 155 94 354q0 305 -152 459q-151 153 -428 153h-4q-45 0 -131 -8q9 -141 9 -465t-29 -602z " />
<glyph unicode="E" horiz-adv-x="995" d="M135 1346q219 18 481 18t297 -31q19 -16 19 -59t-17 -84q-116 43 -380 43q-109 0 -226 -6q8 -90 8 -434h162q172 0 246 8q8 -17 8 -63q0 -39 -21 -54q-22 -16 -72 -18t-142 -2h-181q0 -447 15 -537q90 -4 145 -4q344 0 441 47q16 -41 16 -84t-19 -59q-37 -31 -315 -31 t-338 3t-82 29q-20 26 -20 89l4 342v409q0 293 -29 478z" />
<glyph unicode="F" horiz-adv-x="932" d="M135 1346q219 18 481 18t297 -31q19 -16 19 -59t-17 -84q-116 43 -380 43q-109 0 -226 -6q8 -90 8 -244v-211h162q170 0 246 8q8 -16 8 -64q-1 -48 -33 -60t-151 -13h-232v-227q0 -277 39 -406q-37 -16 -96 -16q-60 0 -80 26t-20 91l4 362v395q0 293 -29 478z" />
<glyph unicode="G" horiz-adv-x="1260" d="M100 688q0 320 174 505t471 185q161 0 269 -64t108 -159q0 -84 -116 -102q-39 100 -123 150t-178 50q-193 -1 -315 -153t-122 -396t123 -422t342 -178q164 0 264 99q-4 256 -14 413q35 7 74 7q100 0 100 -78l-6 -131q-8 -131 -8 -240q0 -74 -117 -134t-289 -60 q-289 0 -463 194t-174 514z" />
<glyph unicode="H" horiz-adv-x="1284" d="M135 1358q35 6 84 6q100 0 100 -78q0 -10 -8 -156t-8 -329q99 -4 327 -4t326 4v104q-2 295 -14 453q35 6 84 6q100 0 100 -78q0 -12 -8 -154t-8 -305v-411q0 -277 39 -406q-37 -16 -97 -16t-80 26t-20 91l4 362v207q-104 -4 -330 -4t-323 4v-264q0 -277 39 -406 q-36 -16 -96 -16t-80 26t-21 91l5 362v410q0 288 -15 475z" />
<glyph unicode="I" horiz-adv-x="453" d="M135 1358q35 6 84 6q100 0 100 -78q0 -12 -8 -154t-8 -305v-411q0 -277 39 -406q-36 -16 -96 -16t-80 26t-21 91l5 362v410q0 288 -15 475z" />
<glyph unicode="J" horiz-adv-x="455" d="M-78 -127q119 25 178 86q43 45 50 182q2 45 2 138l-2 604q0 288 -15 475q35 6 84 6q100 0 100 -78q0 -10 -8 -141t-8 -283v-635q0 -294 -164 -420q-73 -51 -133 -51q-76 0 -84 117z" />
<glyph unicode="K" horiz-adv-x="1055" d="M135 1358q41 6 70 6q114 0 114 -78q0 -10 -8 -166t-8 -354q176 141 344 312t205 282q106 -19 106 -78q0 -58 -143 -210t-336 -314q228 -379 375 -559q25 -31 39 -43q45 -43 106 -43q25 0 48 6q8 -29 8 -61t-35 -56q-35 -22 -86 -22q-88 0 -179 98t-171 219t-146 223 t-86 133q-35 -26 -49 -37v-200q0 -277 39 -406q-32 -16 -94 -16t-82 28t-21 89l5 362v410q0 288 -15 475z" />
<glyph unicode="L" horiz-adv-x="879" d="M135 1358q35 6 84 6q100 0 100 -78q0 -12 -8 -154t-8 -305v-184q0 -426 14 -516q86 -4 136 -4q319 0 411 47q15 -43 15 -85t-19 -58q-35 -31 -297 -31q-263 0 -321 3t-78 29q-19 25 -19 83v6l5 342v424q0 288 -15 475z" />
<glyph unicode="M" horiz-adv-x="1632" d="M135 1350q66 16 119 16q86 0 145 -98q80 -140 162 -340t128 -339q46 -138 130 -401q63 254 171 549t241 531q55 98 149 98q70 0 115 -16q-37 -123 -37 -457v-477q0 -277 39 -406q-37 -16 -96 -16q-101 0 -101 92q0 39 2 297t3 760q-189 -379 -412 -1139q-25 -8 -55 -8 q-80 0 -103 53q-49 111 -185 493t-243 597v-723q0 -277 39 -406q-37 -16 -86 -16q-50 0 -70 26t-20 91l4 362v516q0 230 -39 361z" />
<glyph unicode="N" horiz-adv-x="1288" d="M135 1350q39 16 88 16t72 -14q87 -54 313 -428t385 -680q-12 147 -12 516v123q0 288 -14 475q34 6 63 6q100 0 100 -78q0 -12 -8 -154t-8 -305v-350q0 -289 14 -475q-32 -8 -67 -8q-70 0 -107 55q-84 129 -290 495t-355 586q-2 -77 -2 -714q0 -277 39 -406 q-37 -16 -86 -16q-50 0 -70 26t-20 91l4 362v410q0 342 -39 467z" />
<glyph unicode="O" horiz-adv-x="1458" d="M100 680q0 320 170 508q170 190 458 190t459 -190q171 -188 171 -508t-171 -510t-459 -190t-458 190t-170 510zM268 732q0 -234 103 -423q51 -93 142 -149t212 -56q221 0 341 148t120 386q0 236 -103 417q-51 90 -143 144t-211 54q-211 0 -336 -144q-125 -143 -125 -377z " />
<glyph unicode="P" horiz-adv-x="1032" d="M135 1354q152 24 305 24q549 0 549 -442q0 -214 -128 -326q-129 -112 -287 -112t-259 65v-147q0 -277 39 -406q-37 -16 -96 -16q-60 0 -80 26t-20 91l4 362v410q0 282 -27 471zM307 1245q8 -119 8 -418v-153q91 -51 217 -51q126 1 206 81q79 80 79 218q0 188 -88 260 q-87 71 -269 71h-5q-54 0 -148 -8z" />
<glyph unicode="Q" horiz-adv-x="1458" d="M100 688q0 310 170 500t458 190t459 -190t171 -499q0 -311 -152 -497t-413 -208q25 -90 87 -136q61 -45 141 -45h4q83 1 126 17t100 61q21 -12 41 -43t19 -51q0 -51 -83 -80t-188 -29q-148 0 -248 82t-126 222q-260 20 -413 208t-153 498zM268 732q0 -234 103 -423 q51 -93 142 -149t212 -56q221 0 341 148t120 386q0 236 -103 417q-51 90 -143 144t-211 54q-211 0 -336 -144q-125 -143 -125 -377z" />
<glyph unicode="R" horiz-adv-x="1085" d="M135 1354q152 24 305 24q549 0 549 -407q0 -167 -92 -271t-244 -133q0 -1 35 -75q34 -74 48 -98t54 -104q40 -79 80 -118q54 -59 131 -59q25 0 56 6q18 -37 18 -62q0 -77 -153 -77q-84 0 -156 81q-38 45 -66 80t-68 109t-56 106t-56 116q-39 85 -45 97q-57 9 -57 45 q0 19 10 56q57 -11 96 -11q138 0 216 81q77 79 77 228q0 156 -86 220t-264 65q-66 0 -160 -8q8 -119 8 -418v-411q0 -277 39 -406q-37 -16 -96 -16q-60 0 -80 26t-20 91l4 362v410q0 282 -27 471z" />
<glyph unicode="S" horiz-adv-x="1061" d="M92 172q0 47 51 80q17 10 54 29q39 -76 140 -124t211 -48t191 62q82 63 82 169q-1 106 -73 162t-176 86q-104 28 -206 63q-104 35 -176 118t-73 220q0 189 124 289t316 100q141 0 261 -49t120 -133t-117 -104q-35 67 -125 111t-190 44t-171 -57q-71 -56 -71 -154t52 -152 t130 -76t170 -52t170 -64q78 -32 130 -112t53 -193q0 -221 -152 -319q-135 -88 -308 -88t-295 56t-122 136z" />
<glyph unicode="T" horiz-adv-x="952" d="M0 1282q0 40 22 54t70 16q49 2 217 2h242q323 0 395 6q6 -18 6 -56t-22 -52t-76 -17q-55 -2 -285 -2q-14 -293 -14 -406v-411q0 -277 39 -406q-36 -16 -96 -16t-80 26t-21 91l4 362v410q0 190 -6 350q-291 0 -389 -8q-6 18 -6 57z" />
<glyph unicode="U" horiz-adv-x="1319" d="M147 1348q41 16 97 16t82 -24q28 -24 28 -96q0 -73 -15 -373q-15 -301 -15 -455t82 -230q81 -75 185 -75h3q104 0 215 49t180 114l2 263v346q0 288 -14 475q35 6 84 6q100 0 100 -78q0 -4 -8 -148t-8 -483t6 -447t33 -198q-38 -16 -96 -16t-80 26q-21 25 -21 89v6v22 q-83 -69 -197 -113t-210 -44q-192 0 -304 91t-112 322l18 633q0 195 -35 322z" />
<glyph unicode="V" horiz-adv-x="1143" d="M-41 1288q87 76 149 76t99 -88q81 -182 189 -518t169 -584q121 134 256 494t135 596q0 73 -8 102q58 12 96 12q78 0 78 -100q0 -225 -143 -603t-293 -569q-51 -68 -86 -90q-36 -22 -70 -22t-79 4q-65 330 -223 756t-269 534z" />
<glyph unicode="W" horiz-adv-x="1929" d="M-41 1288q85 76 147 76t99 -88q76 -178 172 -510t155 -592q111 132 234 492t123 596q0 73 -8 104q57 12 94 12q80 0 80 -88q0 -59 -11 -116q136 -213 320 -1000q110 136 234 494t124 594q0 73 -8 104q58 12 94 12q80 0 80 -88q0 -237 -134 -613t-279 -571 q-51 -68 -83 -90t-67 -22t-76 4q-80 430 -256 903q-65 -227 -163 -449t-168 -318q-72 -96 -104 -118t-66 -22t-74 4q-60 328 -208 755t-251 535z" />
<glyph unicode="X" horiz-adv-x="1180" d="M51 88q0 121 455 619q-301 483 -445 575q78 96 152 96q43 0 104 -86q132 -188 297 -463q115 141 205 301t103 246q145 -28 145 -114q0 -56 -119 -225t-260 -328q320 -545 479 -641q-77 -88 -133 -88t-114 79q-121 160 -340 525q-117 -114 -238 -302t-149 -302 q-142 26 -142 108z" />
<glyph unicode="Y" horiz-adv-x="1026" d="M-20 1268q72 98 126 98t101 -70q123 -178 328 -557q97 129 209 345t116 292q156 -10 156 -92q0 -52 -156 -290t-272 -378v-174q0 -299 39 -432q-37 -16 -97 -16t-80 26t-20 91q2 188 4 364v127q-297 559 -454 666z" />
<glyph unicode="Z" d="M53 120q0 60 51 124l773 985q-97 12 -250 12q-289 0 -512 -55q-21 49 -21 86q0 57 60 74q86 20 362 20t506 -39q33 -37 33 -84t-35 -92l-827 -1034q73 -8 165 -8q398 0 648 65q20 -53 20 -93t-35 -56q-77 -37 -397 -37t-504 24q-37 48 -37 108z" />
<glyph unicode="[" horiz-adv-x="778" d="M307 -389v1864h381q8 -17 8 -54q0 -65 -89 -65t-165 4v-1634q78 4 146 4t88 -18t20 -48q0 -31 -8 -53h-381z" />
<glyph unicode="\" horiz-adv-x="528" d="M72 1464q0 56 73 56q25 0 43 -7q17 -176 62 -475q192 -1216 192 -1231q0 -57 -67 -57q-23 0 -49 6q-17 176 -62 475q-192 1203 -192 1233z" />
<glyph unicode="]" horiz-adv-x="717" d="M61 -336q1 66 89 66t165 -4v1634q-75 -4 -142 -4t-89 15t-23 50q0 35 9 54h381v-1864h-381q-9 22 -9 53z" />
<glyph unicode="^" horiz-adv-x="963" d="M51 887q47 79 193 243t237 252q91 -88 237 -252t193 -243q-33 -33 -49 -33t-38 14t-53 38q-31 26 -59 52t-65 63q-37 39 -61 63t-58 61t-45 47q-315 -338 -377 -338q-22 0 -55 33z" />
<glyph unicode="_" d="M0 -249q0 33 18 59t56 26q6 0 129 -7t213 -7h291q260 0 383 14q6 -18 6 -58t-20 -64t-54 -25l-309 16h-293q-234 0 -414 -16q-6 30 -6 62z" />
<glyph unicode="`" horiz-adv-x="412" d="M-102 1350q0 47 71 88q76 -84 160 -148t121 -95t37 -61t-33 -59q-56 43 -156 99t-150 92q-50 37 -50 84z" />
<glyph unicode="a" horiz-adv-x="950" d="M92 268q0 105 49 154t135 74q154 41 390 55q0 175 -43 241t-183 66q-56 0 -118 -37t-93 -106q-94 18 -94 82q1 80 99 128t252 48t235 -73q82 -73 82 -261l-4 -277q0 -235 39 -352q-33 -16 -79 -16q-47 0 -65 22t-24 68q-127 -104 -262 -104q-316 0 -316 288zM236 268 q0 -92 53 -136t135 -44q139 0 235 92q-2 28 -2 104t7 162q-60 -6 -90 -10t-80 -10t-74 -12t-60 -16t-54 -24q-18 -12 -44 -34t-26 -72z" />
<glyph unicode="b" horiz-adv-x="1040" d="M123 1516q24 6 74 6q92 0 92 -78q0 -26 -2 -270t-2 -310q149 109 313 109t264 -116q99 -115 99 -339q0 -230 -111 -384t-328 -154t-381 139q15 123 15 373t-10 598t-23 426zM283 201q121 -107 261 -107t206 118q67 120 67 296q0 170 -73 259q-74 91 -185 91 q-147 0 -272 -108l2 -304q0 -163 -6 -245z" />
<glyph unicode="c" horiz-adv-x="915" d="M92 465q0 129 41 231t109 160q137 117 301 117q105 0 199 -47t94 -133q0 -74 -99 -88q-21 73 -87 113t-140 40q-116 0 -194 -102t-78 -285q0 -185 82 -281t215 -96q61 0 125 26t90 81q81 -33 81 -82q0 -67 -93 -103t-210 -36q-186 0 -311 122t-125 363z" />
<glyph unicode="d" horiz-adv-x="1057" d="M92 479q0 219 126 357q125 137 301 137h3q123 0 238 -70q4 131 4 298t-16 315q32 6 73 6q92 0 92 -78l-18 -987q0 -342 39 -447q-33 -16 -78 -16q-86 0 -90 102q-124 -116 -278 -116t-275 140t-121 359zM236 493q0 -171 86 -288t208 -117t230 117q-4 528 -4 592 q-109 61 -211 61q-145 0 -227 -97t-82 -268z" />
<glyph unicode="e" horiz-adv-x="963" d="M92 468q0 245 136 375t321 130q143 0 232 -81t89 -175q0 -93 -28 -147t-75 -84t-155 -52q-108 -20 -370 -20q35 -320 305 -320q143 0 203 107q81 -33 81 -91t-93 -94t-208 -36q-192 0 -315 122t-123 366zM240 516q292 0 390 45t99 145q0 58 -54 106t-134 48 q-123 0 -210 -84t-91 -260z" />
<glyph unicode="f" horiz-adv-x="621" d="M10 883q0 57 76 65q45 4 90 4q0 308 86 410t250 102q74 0 127 -22t53 -62q0 -39 -41 -94q-69 64 -171 64t-136 -72q-33 -72 -33 -229v-97q199 0 279 9q8 -17 8 -53t-22 -50t-78 -16t-187 -2v-426q0 -273 39 -404q-37 -16 -86 -16q-48 0 -70 24t-22 82l4 738 q-67 0 -160 -11q-6 21 -6 56z" />
<glyph unicode="g" horiz-adv-x="1061" d="M72 -266q0 110 135 217q-62 45 -62 94q0 78 142 236q-197 88 -197 325q0 156 110 262q109 105 269 105h3q161 0 263 -80q86 115 185 115q40 0 70 -18t30 -51q0 -32 -16 -75q-17 4 -72 4t-131 -41q67 -94 67 -221q0 -168 -114 -266t-275 -98q-61 0 -112 12 q-31 -37 -55 -84q-23 -45 -23 -70q0 -53 135 -53h235q304 0 304 -219q-1 -154 -149 -249t-348 -95t-297 70t-97 180zM215 -268q0 -133 248 -133q180 0 274 57t94 133q-1 77 -39 101t-120 24h-211q-117 0 -170 10q-76 -112 -76 -192zM233 625q1 -117 65 -193t188 -76t182 58 q57 57 57 168q0 119 -67 198q-66 78 -181 78q-244 0 -244 -233z" />
<glyph unicode="h" horiz-adv-x="1034" d="M123 74q0 16 10 342t10 648t-16 452q33 6 74 6q92 0 92 -75t-14 -601q147 127 329 127q277 0 277 -320l-8 -334q0 -188 34 -309q-41 -16 -87 -16t-70 24t-23 80l12 551q0 93 -55 151q-56 58 -122 58t-150 -38t-137 -97q-9 -291 -9 -424t15 -297q-33 -6 -70 -6 q-92 0 -92 78z" />
<glyph unicode="i" horiz-adv-x="436" d="M109 1176q1 48 33 78q32 32 74 32t72 -32t31 -78q-1 -46 -33 -78q-31 -31 -71 -31h-3q-42 1 -72 31t-31 78zM135 952q33 6 70 6q96 0 96 -77q0 -11 -8 -156t-8 -365t39 -350q-38 -16 -88 -16t-70 26t-21 91l5 362q0 293 -15 479z" />
<glyph unicode="j" horiz-adv-x="461" d="M-276 -411q0 46 53 85q84 -86 211 -86q82 0 132 60t50 190l-6 635q0 293 -14 479q32 6 69 6q96 0 96 -77q0 -9 -8 -133t-8 -359l8 -536q0 -181 -90 -276t-258 -95q-95 0 -165 30t-70 77zM127 1176q0 48 33 78q32 32 74 32t73 -32t31 -78t-33 -78q-32 -31 -72 -31h-3 q-42 1 -72 31t-31 78z" />
<glyph unicode="k" horiz-adv-x="977" d="M123 1516q33 6 72 6q94 0 94 -82q0 -26 -7 -205q-8 -201 -8 -399q146 137 314 137q132 0 202 -73q70 -72 70 -188t-76 -207t-215 -106q109 -181 163 -237t118 -56q33 0 53 9q19 -37 19 -67t-43 -49t-82 -19q-80 0 -148 73q-67 74 -144 202t-89 151q-54 6 -54 43 q0 22 11 49q65 -15 104 -15q113 1 175 63q61 61 61 136q0 78 -42 127t-114 49q-71 0 -149 -42t-134 -105v-297q0 -273 39 -404q-37 -16 -86 -16t-71 24t-21 82l4 586v238q0 483 -16 592z" />
<glyph unicode="l" horiz-adv-x="436" d="M123 1516q33 6 72 6q94 0 94 -83q0 -30 -7 -239q-8 -236 -8 -467v-319q0 -273 39 -404q-37 -16 -86 -16t-71 24t-21 82l4 586v238q0 483 -16 592z" />
<glyph unicode="m" horiz-adv-x="1583" d="M123 942q41 16 74 16q94 0 94 -102q63 51 151 84t170 33q168 0 228 -133q54 55 154 94t199 39q99 -1 169 -69t70 -220l-7 -365q0 -188 35 -309q-41 -16 -87 -16q-45 0 -69 24t-24 80l12 531q0 117 -48 173t-126 56q-119 0 -254 -108q4 -279 4 -444t13 -304q-33 -6 -70 -6 q-92 0 -92 78q0 8 5 133t5 422q0 229 -180 229q-117 0 -252 -113q4 -278 4 -441t12 -302q-32 -6 -69 -6q-92 0 -92 78q0 8 5 150t5 284q0 336 -39 434z" />
<glyph unicode="n" horiz-adv-x="1063" d="M123 942q41 16 74 16q94 0 94 -102q61 47 157 82t204 35q106 -1 182 -69t77 -220l-6 -365q0 -188 35 -309q-41 -16 -87 -16q-45 0 -69 24t-24 80l12 531q0 113 -56 171t-145 58q-139 0 -274 -113q4 -278 4 -441t12 -302q-32 -6 -69 -6q-92 0 -92 78q0 8 5 150t5 284 q0 336 -39 434z" />
<glyph unicode="o" horiz-adv-x="1075" d="M92 475q0 225 123 361t323 137q200 -1 322 -137q123 -136 123 -361t-123 -360q-122 -135 -322 -135t-323 135t-123 360zM236 496q0 -168 80 -285t222 -117t222 96t80 265q0 167 -82 285t-224 118t-220 -97t-78 -265z" />
<glyph unicode="p" horiz-adv-x="1059" d="M123 942q37 16 80 16q88 0 88 -102q155 117 316 117h3q159 0 258 -109t99 -330q0 -323 -195 -475q-102 -79 -234 -79t-241 69q1 -348 15 -431t26 -120q-37 -16 -89 -16q-53 0 -73 26t-20 91l6 911q0 324 -39 432zM297 745q4 -450 4 -589q94 -62 246 -62q92 0 158 62 q116 114 116 344q-1 184 -71 271t-195 87t-258 -113z" />
<glyph unicode="q" horiz-adv-x="1061" d="M92 484q0 222 127 355q127 134 318 134q229 0 399 -139q-33 -351 -33 -792t35 -544q-41 -16 -90 -16q-90 0 -90 104t4 273q4 170 4 221q-110 -100 -270 -100t-282 141t-122 363zM236 494q0 -170 85 -285t214 -115t233 113q2 221 20 553q-106 98 -264 98q-120 0 -204 -97 t-84 -267z" />
<glyph unicode="r" horiz-adv-x="645" d="M123 952q33 6 70 6q88 0 88 -77q0 -4 -1 -28t-1 -44q40 63 109 113t126 51q111 0 111 -80q0 -39 -41 -92q-44 39 -100 39t-114 -45t-96 -119q-2 -70 -2 -304t39 -362q-37 -16 -87 -16t-70 26t-21 91l4 362q0 293 -14 479z" />
<glyph unicode="s" horiz-adv-x="838" d="M82 143q0 60 92 86q24 -65 98 -100t162 -35t142 39t55 111q-1 72 -55 104t-132 50t-155 42q-79 24 -133 88q-54 66 -54 180t106 189q106 76 220 76q115 0 207 -43q92 -42 92 -112t-92 -93q-23 59 -93 96t-142 37t-124 -38q-51 -37 -51 -102q0 -68 55 -102q54 -34 132 -52 t155 -42q79 -24 133 -86t54 -160q0 -144 -104 -220t-240 -76q-134 0 -231 47t-97 116z" />
<glyph unicode="t" horiz-adv-x="721" d="M0 886q0 40 30 53t105 13h58q-5 138 -13 230q31 6 68 6q98 0 98 -78q0 -29 -8 -160q260 0 344 11q8 -17 8 -53t-22 -50t-80 -16t-254 -2q-4 -222 -4 -432t40 -264q40 -56 129 -56t150 62q37 -39 37 -78q0 -40 -53 -66t-129 -26q-170 0 -240 98t-71 293q4 370 4 471 q-7 0 -191 -15q-6 19 -6 59z" />
<glyph unicode="u" horiz-adv-x="1061" d="M123 942q41 16 87 16t70 -24t23 -80l-12 -530q0 -110 54 -170t140 -60q148 0 277 113q-2 87 -2 327t-15 418q33 6 70 6q92 0 92 -77l-8 -465q0 -260 39 -406q-41 -16 -76 -16q-94 0 -94 102q-147 -116 -326 -116q-290 0 -290 288l6 365q0 186 -35 309z" />
<glyph unicode="v" horiz-adv-x="899" d="M-6 907q60 56 112 56t88 -85t121 -325q84 -240 125 -406q84 109 169 345t85 407q0 33 -6 64q31 10 66 10q75 0 75 -78q0 -139 -101 -417t-208 -404q-40 -48 -66 -64t-58 -16t-62 6q-48 236 -156 534t-184 373z" />
<glyph unicode="w" horiz-adv-x="1419" d="M-6 907q60 56 112 56t82 -72q37 -92 111 -334t111 -410q75 109 153 345t78 405q0 35 -6 66q31 10 65 10q76 0 76 -82t-2 -96q46 -79 108 -273t101 -375q75 109 153 345t78 405q0 35 -6 66q31 10 66 10q76 0 76 -76t-36 -215t-87 -274q-131 -324 -236 -398 q-24 -16 -54 -16t-60 6q-54 270 -162 586q-113 -357 -236 -512q-39 -48 -63 -64t-52 -16q-30 0 -61 6q-45 236 -143 535t-166 372z" />
<glyph unicode="x" horiz-adv-x="887" d="M51 56q0 56 67 139q68 83 96 117t90 102t67 73q-207 340 -314 408q64 78 111 78t90 -55q98 -146 205 -320q79 100 139 208t68 167q114 -21 114 -78q0 -92 -264 -391q217 -371 336 -445q-60 -79 -108 -79t-89 57q-79 108 -233 360q-84 -96 -166 -220t-98 -197 q-111 18 -111 76z" />
<glyph unicode="y" horiz-adv-x="903" d="M0 897q72 66 118 66t79 -66q49 -98 145 -343t143 -407q88 191 155 410t67 346q0 10 -5 60q31 10 68 10q72 0 72 -89q0 -90 -73 -320t-173 -443q-180 -383 -340 -582q-41 -53 -89 -53t-104 82q63 38 165 158t178 241q-72 238 -195 542t-211 388z" />
<glyph unicode="z" horiz-adv-x="930" d="M51 116q0 62 45 107l596 613q-114 12 -221 12q-213 0 -360 -49q-17 41 -17 81v9q2 45 52 61q47 15 227 15h23q202 0 378 -41q33 -34 33 -94t-35 -95l-604 -629q70 -6 137 -6q219 0 455 62q18 -37 18 -73q0 -59 -53 -77q-92 -24 -300 -24t-343 24q-31 42 -31 104z" />
<glyph unicode="{" horiz-adv-x="872" d="M143 535v102q115 -1 175 55t61 117v428q1 119 65 173t242 54q47 0 74 -2q8 -16 8 -52t-24 -52t-102 -15q-78 -1 -104 -27t-26 -104v-407q0 -65 -44 -133t-95 -86q51 -18 96 -86t45 -131v-408q0 -43 3 -61t18 -39q21 -31 127 -31t106 -66q0 -36 -8 -53q-27 -2 -74 -2 q-178 1 -244 55t-65 173v428q1 61 -59 115t-175 55z" />
<glyph unicode="|" d="M469 1501q33 6 61 6q95 0 95 -77q1 -10 -7 -246t-8 -465v-631q0 -483 17 -592q-33 -6 -62 -6q-94 0 -94 78q0 8 7 185t7 526v630q0 484 -16 592z" />
<glyph unicode="}" horiz-adv-x="827" d="M61 -236q0 36 24 50q24 16 78 16t86 6t46 26t17 38t3 61v408q-1 63 45 131t97 86q-51 18 -95 86t-45 133v407q0 40 -3 60q-11 71 -124 71q-81 -1 -105 15t-24 52t9 52q26 2 73 2q179 0 243 -54t65 -173v-428q0 -61 60 -117t175 -55v-102q-115 -1 -174 -55t-59 -115v-428 q1 -119 -65 -173t-245 -55q-47 0 -73 2q-9 17 -9 53z" />
<glyph unicode="~" horiz-adv-x="1118" d="M82 547q0 127 201 127q104 0 267 -41t238 -41q136 0 209 72q39 -52 39 -109t-74 -88t-155 -31t-237 41t-240 41q-135 0 -209 -72q-39 52 -39 101z" />
<glyph unicode="&#xad;" horiz-adv-x="471" d="M51 524q-1 32 17 54q18 24 57 24l170 -8q96 0 160 14q6 -18 6 -57q-1 -39 -21 -61t-53 -23l-158 10q-96 0 -172 -16q-6 31 -6 63z" />
<glyph unicode="&#x2000;" horiz-adv-x="761" />
<glyph unicode="&#x2001;" horiz-adv-x="1522" />
<glyph unicode="&#x2002;" horiz-adv-x="761" />
<glyph unicode="&#x2003;" horiz-adv-x="1522" />
<glyph unicode="&#x2004;" horiz-adv-x="507" />
<glyph unicode="&#x2005;" horiz-adv-x="380" />
<glyph unicode="&#x2006;" horiz-adv-x="253" />
<glyph unicode="&#x2007;" horiz-adv-x="253" />
<glyph unicode="&#x2008;" horiz-adv-x="190" />
<glyph unicode="&#x2009;" horiz-adv-x="304" />
<glyph unicode="&#x200a;" horiz-adv-x="84" />
<glyph unicode="&#x2010;" horiz-adv-x="471" d="M51 524q-1 32 17 54q18 24 57 24l170 -8q96 0 160 14q6 -18 6 -57q-1 -39 -21 -61t-53 -23l-158 10q-96 0 -172 -16q-6 31 -6 63z" />
<glyph unicode="&#x2011;" horiz-adv-x="471" d="M51 524q-1 32 17 54q18 24 57 24l170 -8q96 0 160 14q6 -18 6 -57q-1 -39 -21 -61t-53 -23l-158 10q-96 0 -172 -16q-6 31 -6 63z" />
<glyph unicode="&#x2012;" horiz-adv-x="471" d="M51 524q-1 32 17 54q18 24 57 24l170 -8q96 0 160 14q6 -18 6 -57q-1 -39 -21 -61t-53 -23l-158 10q-96 0 -172 -16q-6 31 -6 63z" />
<glyph unicode="&#x2013;" horiz-adv-x="1084" d="M50 524q-2 32 43 54q45 24 142 24l424 -8q240 0 400 14q15 -18 15 -57q-2 -39 -52 -61t-133 -23l-394 10q-240 0 -430 -16q-15 31 -15 63z" />
<glyph unicode="&#x2014;" horiz-adv-x="2108" d="M50 524q-5 32 85 54q90 24 285 24l849 -8q479 0 799 14q30 -18 30 -57q-5 -39 -105 -61t-265 -23l-789 10q-479 0 -859 -16q-30 31 -30 63z" />
<glyph unicode="&#x202f;" horiz-adv-x="304" />
<glyph unicode="&#x205f;" horiz-adv-x="380" />
<glyph unicode="&#x25fc;" horiz-adv-x="975" d="M0 0v975h975v-975h-975z" />
</font>
</defs>
</svg>
