<svg xmlns="http://www.w3.org/2000/svg" xmlns:xlink="http://www.w3.org/1999/xlink" version="1.1"><metadata/><defs><font id="sukar-blackblack" horiz-adv-x="1176"><font-face ascent="1638" descent="-410" units-per-em="2048"/><glyph horiz-adv-x="508"/><glyph horiz-adv-x="0"/><glyph horiz-adv-x="0"/><glyph horiz-adv-x="508"/><glyph horiz-adv-x="508"/><glyph horiz-adv-x="508"/><glyph d="M133 1399q94 22 193 22q174 0 174 -153q0 -64 -16 -218t-17 -312q0 -158 27 -230q-78 -39 -151 -39t-121 33t-48 94l2 178q0 475 -43 625zM154 160q0 78 56 131t131 53t129 -53t54 -130t-56 -129t-132 -52t-129 51t-53 129z" horiz-adv-x="645" unicode="!"/><glyph d="M61 1408q0 101 153 101t153 -112q0 -127 -43 -365q-19 -100 -136 -100q-55 0 -104 16q6 42 6 112t-14 187t-15 161zM524 1408q0 101 152 101t153 -112q0 -127 -43 -365q-18 -100 -135 -100q-55 0 -104 16q6 38 6 110q-1 72 -15 189t-14 161z" horiz-adv-x="887" unicode="&quot;"/><glyph d="M-14 434q0 60 41 88t143 29l141 -2l29 246q-92 -3 -139 -13t-152 -41q-8 31 -8 89t42 88t142 30l133 -2q33 268 37 359q41 8 80 8q39 -1 67 -23t29 -54q0 -32 -53 -294h223q31 264 37 363q41 8 80 8q40 -1 68 -23t28 -60t-51 -282q29 2 287 19q0 -121 -36 -157t-103 -36 q-9 0 -53 6t-121 8q-19 -88 -39 -239q71 2 297 20q0 -119 -34 -155q-34 -37 -106 -37l-178 14q-6 -99 -6 -205t2 -137q-41 -22 -95 -22q-95 0 -95 84q1 39 23 153t22 133q-80 2 -148 2h-84q-18 -179 -18 -247t2 -103q-41 -22 -90 -22q-50 1 -70 23t-20 52t45 295 q-152 -6 -291 -53q-8 30 -8 90zM455 545q161 0 237 4q6 31 31 246q-66 4 -150 4h-79q-29 -172 -39 -254z" unicode="#"/><glyph d="M117 168q-1 44 27 76t60 48t95 44q25 -66 83 -113t138 -57v395q-171 55 -209 85q-97 76 -125 139q-44 102 -45 223q-1 154 107 246t270 114q-2 51 -10 135q35 10 51 10q78 0 78 -79v-60q143 -6 258 -55t115 -131q0 -129 -195 -164q-21 59 -71 101t-107 55v-371 q77 -23 111 -36t100 -48t101 -74q33 -39 61 -107t28 -153q0 -163 -100 -275t-297 -132q0 -4 12 -138l-45 -6q-82 0 -88 80v62q-168 6 -286 60t-117 126zM420 1022q0 -104 100 -162v309q-44 -18 -72 -58t-28 -89zM639 176q119 43 119 180q0 109 -119 164v-344z" unicode="$"/><glyph d="M66 1023q0 157 95 248t256 91t255 -92t94 -248t-94 -248t-255 -92t-256 92t-95 249zM305 1040q1 -78 29 -142t80 -64t80 49q30 49 30 127t-28 140t-77 62q-50 0 -82 -47t-32 -125zM422 20q0 35 24 70l478 756q211 332 350 586q51 -2 92 -29t41 -61t-21 -66l-477 -758 q-186 -295 -352 -586q-127 27 -135 88zM1040 320q0 156 96 248q96 91 256 91t254 -92q94 -91 95 -247q-1 -156 -95 -248t-254 -92t-256 92t-96 248zM1280 338q0 -78 28 -142t80 -65q52 0 82 49t29 127q1 79 -27 141t-78 62t-82 -47t-32 -125z" horiz-adv-x="1808" unicode="%"/><glyph d="M66 350q0 201 213 350q-132 190 -132 346t113 244q112 88 306 88t293 -76t99 -184q0 -174 -170 -310q-66 -53 -188 -126q129 -164 268 -279q11 62 11 111t-29 139q65 39 137 39q189 0 189 -137q0 -85 -20 -145t-75 -150q127 -63 246 -63q12 -54 12 -82q0 -135 -145 -135 t-313 92q-133 -90 -327 -90t-341 99t-147 269zM373 375q-1 -99 71 -152t172 -53q54 0 99 14q-160 131 -303 318q-39 -60 -39 -127zM430 1022q0 -84 70 -197q155 113 155 242q-1 53 -29 88t-77 35t-84 -42t-35 -126z" horiz-adv-x="1378" unicode="&amp;"/><glyph d="M102 1408q0 101 153 101t153 -112q0 -127 -43 -365q-19 -100 -136 -100q-55 0 -104 16q6 42 6 112q-1 70 -15 187t-14 161z" horiz-adv-x="571" unicode="'"/><glyph d="M119 541q0 174 50 357q51 183 121 310t143 208t117 81t83 -47q-101 -141 -167 -390t-65 -512q-1 -263 63 -518t169 -399q-39 -47 -84 -47t-119 83t-144 211t-118 308q-49 180 -49 355z" horiz-adv-x="690" unicode="("/><glyph d="M0 -369q104 144 168 399t63 518q1 263 -65 512t-166 390q39 47 83 47q45 0 117 -81t143 -208t121 -310t50 -357q0 -175 -49 -355t-119 -308t-144 -211t-118 -83q-45 0 -84 47z" horiz-adv-x="727" unicode=")"/><glyph d="M47 1214q8 56 43 101t86 45q80 0 158 -82q-22 175 -33 225q64 19 100 19q127 0 127 -95q0 -73 -20 -155q145 106 172 133q90 -78 90 -135q0 -86 -244 -148q144 -133 215 -186q-22 -42 -61 -70t-86 -28t-87 46t-93 146q-76 -135 -133 -227q-60 20 -106 56t-46 75 q0 70 174 196q-153 56 -256 84z" horiz-adv-x="829" unicode="*"/><glyph d="M72 500q0 45 26 83t80 38q17 -1 110 -9t218 -12q0 211 -25 414q27 8 83 8t92 -28t36 -78q0 -48 -10 -146t-10 -172q215 0 426 23q8 -25 8 -81t-30 -92t-78 -36t-152 10t-176 10q0 -162 22 -414q-43 -8 -90 -8t-84 26t-37 79q1 16 9 101t12 218q-94 0 -422 -22 q-8 43 -8 88z" unicode="+"/><glyph d="M37 -254q0 10 4 43h10q55 0 96 44t41 93q0 84 -92 99q-20 43 -20 103t50 106t137 45q87 0 137 -66t51 -166q-1 -143 -95 -262t-243 -119q-76 0 -76 80z" horiz-adv-x="528" unicode=","/><glyph d="M51 519q0 50 37 90t117 40l166 -12h16q88 0 160 31q22 -62 22 -120t-42 -96q-42 -36 -111 -36l-174 14q-78 0 -176 -33q-15 72 -15 122z" horiz-adv-x="580" unicode="-"/><glyph d="M66 170q0 82 57 137t133 55t130 -55t54 -136t-57 -136t-133 -55t-130 54t-54 136z" horiz-adv-x="520" unicode="."/><glyph d="M55 -160q0 13 56 346t114 752q58 420 70 569l61 11q107 0 107 -80l-154 -992q-67 -456 -86 -677q-45 -11 -71 -11q-97 0 -97 82z" horiz-adv-x="510" unicode="/"/><glyph d="M51 678q1 320 145 510t390 190t392 -190t146 -508q0 -320 -146 -510t-392 -190t-390 189t-145 509zM367 722q0 -202 57 -372t160 -170q98 0 158 133t61 334t-57 365t-160 164q-97 0 -158 -126t-61 -328z" unicode="0"/><glyph d="M172 1208q0 127 104 140q242 30 361 30q49 0 87 -24t38 -78q0 -16 -8 -221t-9 -418v-107q0 -225 15 -337q131 0 203 8q18 -41 18 -90q0 -115 -100 -115l-406 4q-192 0 -274 -2q-21 57 -21 100q0 101 139 101h119l4 526q0 236 -6 432q-221 -22 -256 -29q-8 54 -8 80z" unicode="1"/><glyph d="M80 123q0 35 12 92q395 346 514 481t119 255q0 223 -167 223q-77 0 -161 -54t-133 -133q-151 43 -151 162q-1 81 155 155t336 74t307 -101t127 -288q0 -113 -72 -255q-37 -72 -142 -187t-195 -189q-90 -73 -168 -137q3 -2 149 -2q146 1 254 9t217 44q27 -71 27 -120 q0 -92 -58 -124t-380 -32l-482 4q-108 0 -108 123z" unicode="2"/><glyph d="M111 129q1 47 37 89t92 58q24 -42 90 -70t150 -28q85 0 156 54t71 158q0 102 -73 170t-191 67q-118 1 -138 49q-10 24 -10 63t6 68q179 -1 271 69t92 164q0 68 -39 103t-105 35t-135 -46q-68 -46 -90 -116q-76 10 -117 50t-41 87q0 85 123 155q124 70 314 70t300 -93 t111 -222q0 -219 -240 -318q163 -65 223 -150t60 -206q0 -165 -150 -287t-409 -122q-358 0 -358 149z" unicode="3"/><glyph d="M29 503q0 38 4 79q84 143 267 391t278 342q69 63 225 63q96 0 149 -14q0 -6 -9 -152t-9 -464v-142q149 12 199 35q20 -57 20 -133t-47 -98t-172 -23q0 -221 49 -381q-77 -26 -181 -26t-140 40t-37 142q0 10 4 227q-359 0 -506 12q-57 5 -75 35t-19 67zM322 598 q45 -2 140 -2t167 6q0 189 6 404q-17 -21 -123 -150t-190 -258z" unicode="4"/><glyph d="M104 121q0 43 38 83t96 54q59 -86 192 -86q132 0 202 75t70 187t-94 202q-94 89 -274 89q-55 0 -137 -14q-21 30 -21 99t27 550q73 -4 401 -4t381 16q31 -60 31 -114t-43 -91t-119 -37q-156 0 -371 13l-30 -236q51 8 112 8q217 0 338 -130t121 -326q0 -127 -51 -225 t-137 -151q-169 -106 -381 -106q-147 0 -249 39t-102 105z" unicode="5"/><glyph d="M104 548q0 222 79 404t244 304t382 122q90 0 130 -26t40 -80q0 -55 -12 -115q-47 14 -131 14q-192 1 -294 -119t-118 -300q117 90 248 90q184 -2 288 -121t103 -293q0 -174 -127 -311t-354 -137q-269 0 -380 184q-98 162 -98 384zM422 596q0 -301 87 -381q37 -33 97 -33 t98 60t39 152q-1 91 -39 170t-116 79t-166 -47z" unicode="6"/><glyph d="M84 1266q0 56 25 106q114 -16 262 -16q614 0 735 4q18 -33 18 -75t-12 -79q-59 -178 -547 -1085q-43 -81 -79 -111t-80 -30q-152 0 -275 118q174 164 382 497t294 546q-297 -11 -574 -11q-73 0 -111 40t-38 96z" unicode="7"/><glyph d="M104 350q0 152 78 235t228 150q-124 60 -188 143t-64 211q0 129 127 209t319 80t304 -88q114 -88 114 -211q0 -92 -66 -176t-186 -135q152 -68 230 -165t79 -251q0 -154 -127 -264q-126 -108 -360 -108t-361 108t-127 262zM422 364q0 -82 41 -132t123 -50t126 52t44 132 t-50 158t-147 125q-57 -35 -97 -119t-40 -166zM473 1081q0 -61 47 -131t103 -94q88 62 88 199q0 114 -121 121q-117 0 -117 -95z" unicode="8"/><glyph d="M104 930q0 174 127 311t355 137q135 0 231 -49q97 -49 149 -135q98 -160 97 -383q0 -223 -79 -405t-244 -304t-382 -122q-90 0 -130 26t-40 81q0 56 13 114q47 -15 131 -15q192 0 294 120t117 300q-116 -90 -247 -90q-184 2 -288 121t-104 293zM424 964q0 -92 39 -170 t117 -79q78 0 165 47q-1 301 -87 381q-36 33 -96 33t-99 -60t-39 -152z" unicode="9"/><glyph d="M66 170q0 82 57 137t133 55t130 -55t54 -136t-57 -136t-133 -55t-130 54t-54 136zM66 801q0 82 57 137t133 55t130 -55t54 -136q0 -80 -57 -136t-133 -56t-130 54t-54 137z" horiz-adv-x="520" unicode=":"/><glyph d="M37 -254q0 10 4 43h10q55 0 96 44t41 93q0 84 -92 99q-20 43 -20 103t50 106t137 45q87 0 137 -66t51 -166q-1 -143 -95 -262t-243 -119q-76 0 -76 80zM74 801q0 82 57 137t133 55t130 -55t55 -136q1 -80 -57 -136t-134 -56t-130 54t-54 137z" horiz-adv-x="553" unicode=";"/><glyph d="M227 520l465 443q39 32 78 32q39 -1 80 -31t59 -69q-85 -75 -268 -221q-182 -146 -190 -154q77 -79 454 -405q-22 -43 -62 -72t-80 -29t-75 33z" unicode="&lt;"/><glyph d="M137 303q-1 45 25 83t80 38q8 0 139 -10t319 -11q188 0 328 21q10 -41 10 -89t-28 -84t-70 -36q-41 -1 -166 11q-126 12 -272 12t-357 -23q-8 43 -8 88zM137 704q-1 46 25 84t80 37q8 0 139 -10t319 -10t328 20q10 -41 10 -89t-28 -84t-70 -36q-41 0 -166 12 q-126 12 -272 11q-146 0 -357 -23q-8 42 -8 88z" unicode="="/><glyph d="M266 895q19 39 60 69q42 30 80 31q38 0 77 -32l465 -443l-461 -473q-34 -33 -74 -33t-80 29t-63 72q370 320 455 405q-8 8 -196 158t-263 217z" unicode="&gt;"/><glyph d="M53 1229q1 90 107 141t256 51q303 -1 393 -157q29 -50 29 -124t-30 -142t-72 -111t-84 -83q-101 -96 -101 -198q0 -43 14 -94q-83 -43 -163 -43t-122 37q-42 38 -42 102t44 138t97 128q53 52 97 124t44 132q0 116 -114 115q-54 0 -100 -42t-58 -111q-195 22 -195 137z M231 160q1 78 57 131t131 53t129 -53t54 -130t-56 -129t-132 -52t-130 51t-53 129z" horiz-adv-x="864" unicode="?"/><glyph d="M119 379q-1 139 59 287t166 269t270 197q166 76 359 76q284 0 454 -146t170 -376q0 -229 -137 -387t-338 -158q-155 0 -200 158q-99 -188 -244 -188q-94 1 -154 75t-61 215q0 209 122 357t311 149q189 0 335 -94q-74 -295 -74 -461q1 -112 53 -112t101 108t49 298 q0 188 -102 298t-298 109q-196 1 -340 -105t-216 -260t-72 -292q0 -261 141 -358t313 -97q115 1 206 35t108 85q106 -41 106 -118q0 -68 -124 -118t-256 -50q-132 1 -223 19t-181 62t-156 110t-106 170q-41 104 -41 243zM719 478q0 -173 74 -173q65 0 114 113q7 44 23 150 t20 130q-45 27 -99 27t-93 -77t-39 -170z" horiz-adv-x="1718" unicode="@"/><glyph d="M8 106q0 40 71 205q278 651 390 1032q96 15 158 15q172 0 221 -150q151 -466 264 -758t170 -405q-96 -65 -204 -65t-142 77q-22 54 -60 152t-71 178q-159 -4 -217 -4t-156 8q-139 -336 -168 -428q-208 29 -240 78q-16 25 -16 65zM485 590q99 -4 167 -4t108 4 q-33 112 -78 290t-53 205q-127 -442 -144 -495z" horiz-adv-x="1257" unicode="A"/><glyph d="M92 109q33 233 33 649t-27 596q176 24 337 24t261 -18t186 -56q85 -38 133 -109t48 -169q0 -213 -219 -285q142 -47 206 -130t64 -221t-79 -234q-144 -176 -445 -176t-498 129zM414 240q94 -52 181 -52t141 56t55 158q-1 100 -61 166t-181 67q-66 0 -119 -6 q0 -94 -16 -389zM432 1165q8 -127 8 -340q23 -4 68 -4q104 1 170 49q65 47 65 135q0 92 -67 129q-66 36 -136 37q-70 0 -108 -6z" unicode="B"/><glyph d="M66 680q0 328 194 513t528 185q178 0 300 -64t122 -159q0 -72 -59 -117t-158 -57q-35 94 -111 142t-161 48q-141 0 -233 -129q-92 -128 -91 -338q-1 -210 93 -364t262 -154q94 0 181 43t142 133q156 -71 156 -167q-1 -60 -51 -105q-50 -46 -124 -68q-139 -42 -274 -42 q-125 0 -246 36q-292 86 -404 331q-66 142 -66 333z" horiz-adv-x="1288" unicode="C"/><glyph d="M88 109q27 188 29 617v58q0 385 -25 570q141 24 338 24t341 -34t263 -112q118 -77 184 -216t66 -334q0 -306 -184 -504t-512 -198q-326 0 -500 129zM408 244q112 -58 210 -58q160 0 245 130t85 325q0 265 -110 399t-314 134q-49 0 -96 -7q8 -120 8 -403t-28 -520z" horiz-adv-x="1350" unicode="D"/><glyph d="M88 1346q264 18 549 18t373 -33q39 -14 39 -88t-25 -133q-135 43 -457 43q-41 0 -143 -4q8 -66 8 -315h162q131 0 242 12q12 -26 12 -94t-35 -98q-34 -29 -119 -29h-6h-256q0 -346 17 -416q90 -4 145 -4q334 0 430 47q25 -62 25 -136q-1 -74 -55 -98q-54 -22 -216 -22 q-490 0 -558 3t-88 29t-21 89l4 342v409q0 289 -27 478z" horiz-adv-x="1090" unicode="E"/><glyph d="M88 1346q264 18 549 18t373 -33q39 -14 39 -88t-25 -133q-135 43 -457 43q-41 0 -143 -4q8 -66 8 -336h162q131 0 242 12q12 -25 12 -93t-35 -98t-125 -30h-256v-188q0 -238 49 -393q-17 -9 -77 -19t-93 -10q-118 0 -158 42t-40 154l4 269v409q0 273 -29 478z" horiz-adv-x="1049" unicode="F"/><glyph d="M66 680q0 328 194 513t528 185q178 0 300 -64t122 -159q0 -70 -58 -116t-159 -58q-35 94 -111 142t-161 48q-135 -1 -229 -127q-95 -127 -95 -342q0 -210 93 -362q94 -154 260 -154q137 0 192 78q-2 176 -16 342q80 17 135 17q192 0 192 -119q0 -6 -6 -119t-6 -198 t-129 -146t-328 -61q-330 0 -524 186t-194 514z" horiz-adv-x="1321" unicode="G"/><glyph d="M88 1348q78 16 159 16t135 -26t54 -85q0 -9 -7 -159t-7 -252q78 -4 246 -4t243 4v41q0 225 -18 465q78 16 159 16t135 -26t54 -85q0 -9 -7 -165t-7 -261v-411q0 -230 49 -393q-76 -29 -152 -29t-102 5t-56 21q-58 31 -59 150l4 303v168q-77 -4 -242 -4t-247 4v-225 q0 -230 49 -393q-75 -29 -151 -29t-103 5t-57 21q-58 31 -58 150l4 303v410q0 225 -18 465z" horiz-adv-x="1364" unicode="H"/><glyph d="M88 1348q78 16 159 16t135 -28t54 -85q0 -11 -7 -165t-7 -259v-411q0 -230 49 -393q-75 -29 -151 -29t-103 5t-57 21q-58 31 -58 150l4 303v410q0 225 -18 465z" horiz-adv-x="528" unicode="I"/><glyph d="M-51 -45q147 25 188 97t41 227l-2 604q0 225 -18 465q98 16 170 16t126 -28q52 -28 52 -83q0 -1 -7 -157t-7 -267v-610q0 -108 -32 -194q-56 -147 -178 -217q-93 -52 -171 -52t-116 52t-46 147z" horiz-adv-x="594" unicode="J"/><glyph d="M88 1348q78 16 159 16t135 -26t54 -85q0 -9 -7 -165t-7 -261q166 117 328 273t211 278q97 -30 129 -64t32 -81q0 -135 -424 -445q236 -368 361 -518q65 -75 125 -75q6 0 55 6q18 -56 18 -92q0 -65 -60 -97q-59 -32 -159 -32t-211 104q-145 137 -370 539q-4 -2 -35 -23 v-184q0 -230 49 -393q-75 -29 -151 -29t-103 5t-57 21q-58 31 -58 150l4 303v410q0 225 -18 465z" horiz-adv-x="1257" unicode="K"/><glyph d="M88 1348q78 16 159 16t135 -26t54 -85q0 -11 -7 -163t-7 -256v-402q0 -158 16 -223q90 -4 148 -4q334 0 430 47q24 -62 24 -136t-54 -98q-54 -22 -216 -22q-489 0 -558 3q-70 3 -90 29t-20 89l4 342v424q0 225 -18 465z" horiz-adv-x="1040" unicode="L"/><glyph d="M88 1350q129 18 205 18q186 0 242 -123q109 -244 209 -609q32 -114 100 -364q114 545 321 996q27 58 87 78t162 20t177 -16q-37 -123 -37 -457v-477q0 -266 39 -396q-106 -26 -176 -26q-184 0 -184 153q0 25 2 201t2 502q-182 -514 -244 -834q-57 -20 -139 -20 q-168 0 -199 76q-39 94 -121 376t-133 412v-444q0 -277 39 -406q-73 -16 -143 -16q-174 0 -174 117l4 362v516q0 230 -39 361z" horiz-adv-x="1681" unicode="M"/><glyph d="M88 1337q98 29 178 29q148 0 221 -90q150 -186 449 -713l-2 320q0 280 -14 467q86 14 127 14q200 0 200 -119l-16 -418v-350q0 -282 14 -469q-65 -14 -127 -14q-174 0 -235 96q-79 125 -225 385t-238 408v-467q0 -260 43 -396q-60 -26 -158 -26t-141 30t-43 111l6 338 v410q0 329 -39 454z" horiz-adv-x="1358" unicode="N"/><glyph d="M66 680q0 320 183 508q183 190 495 190t497 -190q184 -190 184 -508q0 -320 -185 -510q-186 -190 -496 -190t-494 190t-184 510zM397 764q0 -166 32 -286t113 -206t199 -86q165 0 257 126t92 329q0 299 -145 447q-81 82 -200 83q-159 -1 -253 -121t-95 -286z" horiz-adv-x="1491" unicode="O"/><glyph d="M88 1354q176 24 352 24q635 0 635 -442q0 -219 -128 -346t-308 -127q-107 0 -207 61v-137q0 -209 49 -364q-63 -29 -180 -29t-153 45t-35 131l4 303v410q0 286 -29 471zM424 1163q8 -94 8 -327v-142q66 -30 123 -30q88 0 137 70t49 203q0 127 -61 180q-62 54 -191 54 q-24 0 -65 -8z" horiz-adv-x="1104" unicode="P"/><glyph d="M66 696q0 302 183 492t495 190t497 -190q184 -190 184 -498q0 -301 -155 -486q-156 -186 -422 -218q39 -121 203 -121q73 1 144 29t108 77q45 -28 75 -73q29 -44 29 -88q0 -70 -89 -112q-90 -42 -240 -42t-290 84t-170 250q-258 37 -405 220t-147 486zM397 764 q0 -166 32 -286t113 -206t199 -86q165 0 257 126t92 329q0 299 -145 447q-81 82 -200 83q-159 -1 -253 -121t-95 -286z" horiz-adv-x="1491" unicode="Q"/><glyph d="M88 1354q176 24 352 24q633 0 633 -428q0 -278 -248 -375q101 -245 176 -331q43 -49 107 -49q27 0 57 6q19 -51 19 -92q0 -129 -232 -129q-98 0 -166 69q-129 131 -266 508q-39 14 -39 57t23 97q22 -6 53 -6q90 1 137 71t47 186t-59 161q-59 46 -182 46q-33 0 -78 -4 q6 -82 6 -391v-366q0 -232 49 -385q-75 -29 -185 -29t-146 44t-37 132l4 303v410q0 274 -25 471z" horiz-adv-x="1190" unicode="R"/><glyph d="M59 172q0 64 35 102t119 84q51 -72 153 -120t192 -48q192 0 192 160q0 78 -67 125t-161 76t-188 69t-161 132t-67 217q0 228 168 324q148 85 340 85q193 0 314 -49t121 -137q-1 -52 -51 -100t-140 -72q-33 59 -121 103q-89 44 -163 44q-158 0 -158 -145q0 -66 48 -111 t118 -67t155 -54q84 -32 155 -69t119 -115t48 -194t-46 -203q-46 -88 -126 -136q-155 -93 -355 -93t-336 53t-137 139z" horiz-adv-x="1120" unicode="S"/><glyph d="M0 1224q0 54 14 78q30 52 185 52h440q344 0 467 8q10 -45 10 -94q0 -117 -155 -117h-234q-10 -195 -10 -379v-383q0 -207 49 -366q-90 -29 -192 -29t-140 44q-37 44 -37 132l4 276v379q0 179 -6 326q-262 0 -385 -12q-10 31 -10 85z" horiz-adv-x="1116" unicode="T"/><glyph d="M96 1335q76 29 176 29t146 -45q45 -45 45 -168v-7q0 -56 -13 -310q-14 -272 -14 -428q0 -105 58 -159t136 -54q77 0 166 46t144 107l2 245v322q0 209 -18 435q78 16 164 16t135 -30t49 -81l-6 -159q-9 -162 -9 -344v-220q1 -219 11 -317t39 -190q-75 -29 -181 -29 t-143 34t-47 130q-86 -84 -198 -131t-210 -47q-192 0 -304 91t-111 322l18 633q0 193 -35 309z" horiz-adv-x="1395" unicode="U"/><glyph d="M-27 1249q125 115 232 115q74 0 114 -68q146 -243 308 -1060q101 166 203 472t102 527q0 65 -12 121q86 22 157 22q189 0 189 -127q0 -195 -136 -557t-272 -551q-108 -149 -278 -149q-91 0 -150 14q-66 324 -202 705t-255 536z" horiz-adv-x="1280" unicode="V"/><glyph d="M-27 1249q125 115 232 115q74 0 114 -68q72 -136 147 -450t126 -610q90 166 181 472t91 527q0 65 -12 121q86 22 158 22q188 0 188 -127q0 -63 -16 -155q127 -224 239 -860q89 166 181 472t92 527q0 65 -13 121q86 22 158 22q189 0 189 -127q0 -195 -128 -557t-260 -551 q-102 -149 -262 -149q-86 0 -143 14q-82 416 -164 692q-127 -364 -260 -557q-102 -149 -262 -149q-86 0 -143 14q-62 326 -191 706t-242 535z" horiz-adv-x="2054" unicode="W"/><glyph d="M33 1221q129 157 248 157q69 0 117 -30t89 -103q105 -184 183 -377q202 338 223 510q297 -32 297 -153q0 -69 -182 -284q-39 -46 -108 -124t-95 -108q121 -205 262 -363t238 -217q-123 -149 -261 -149q-110 0 -161 98q-219 403 -248 463q-99 -113 -191 -278t-112 -283 q-121 10 -208 48t-87 107t116 203t217 236t128 133q-113 182 -243 318t-222 196z" horiz-adv-x="1313" unicode="X"/><glyph d="M-14 1229q104 141 218 141t184 -122q69 -122 222 -447q72 110 157 310t87 267q295 -30 295 -153q0 -39 -43 -107q-44 -69 -70 -109q-59 -88 -291 -393v-200q0 -230 50 -393q-76 -29 -152 -29q-77 0 -103 5t-56 21q-58 31 -58 150l4 303v129q-299 563 -444 627z" horiz-adv-x="1157" unicode="Y"/><glyph d="M35 108q0 52 53 130q580 809 682 923q-415 0 -651 -57q-43 90 -43 134q0 93 71 108q91 20 398 20t555 -39q35 -35 35 -80t-45 -108q-566 -764 -680 -901l-41 -48q424 0 700 68q39 -88 39 -149q0 -95 -164 -109q-134 -12 -402 -12t-470 24q-37 44 -37 96z" horiz-adv-x="1161" unicode="Z"/><glyph d="M199 -389v1864h514q8 -25 8 -75q1 -50 -21 -72t-90 -21q-68 0 -143 4v-1534q79 4 147 4q68 -1 88 -25t19 -68q0 -44 -8 -77h-514z" horiz-adv-x="774" unicode="["/><glyph d="M61 1438q0 80 107 80q35 0 61 -11q34 -387 206 -1461l34 -206q0 -82 -96 -82q-27 0 -72 11q-18 221 -86 677q-154 949 -154 992z" horiz-adv-x="510" unicode="\"/><glyph d="M39 -312q-1 44 19 68t88 25q68 0 147 -4v1534q-75 -4 -143 -4q-68 -1 -90 21t-21 72q0 50 8 75h514v-1864h-514q-8 33 -8 77z" horiz-adv-x="733" unicode="]"/><glyph d="M33 846q57 86 230 263t282 273q110 -100 281 -275t229 -261q-68 -68 -112 -68t-92 39t-78 65q-31 26 -67 63t-86 87t-73 80q-15 -14 -68 -72q-98 -107 -183 -184q-85 -78 -140 -78q-56 0 -123 68z" horiz-adv-x="1087" unicode="^"/><glyph d="M0 -249q0 33 18 59t56 26q6 0 129 -7t213 -7h291q260 0 383 14q6 -18 6 -58t-20 -64t-54 -25l-309 16h-293q-234 0 -414 -16q-6 30 -6 62z" horiz-adv-x="1096" unicode="_"/><glyph d="M-68 1401q0 80 138 145q74 -96 237 -193q162 -96 162 -177q0 -48 -80 -105q-76 55 -202 119q-127 64 -191 112q-64 46 -64 99z" horiz-adv-x="551" unicode="`"/><glyph d="M59 254q1 129 47 182t125 80q156 49 369 62q0 124 -28 174t-115 51q-51 0 -109 -43t-86 -117q-180 33 -180 154q0 82 118 139t308 57t292 -82t103 -272l-4 -277q0 -235 39 -352q-90 -24 -160 -24q-147 0 -172 118q-107 -124 -298 -124q-95 0 -172 72t-77 202zM365 267 q1 -45 25 -71t61 -26q86 0 143 51q-2 19 -2 77t6 132q-187 -31 -218 -89q-15 -28 -15 -74z" horiz-adv-x="1012" unicode="a"/><glyph d="M80 1495q96 27 172 27q176 0 176 -133q0 -73 -3 -281t-3 -227q119 110 256 110q184 0 284 -134t101 -352q0 -217 -129 -371t-381 -154t-440 139q14 123 14 440q0 779 -47 936zM420 219q86 -43 158 -43q182 0 182 316q0 202 -70 272q-33 33 -80 33q-80 0 -184 -80l2 -275 q0 -157 -8 -223z" horiz-adv-x="1114" unicode="b"/><glyph d="M106 704q46 104 120 166q146 122 333 123q129 0 247 -53t118 -147q0 -125 -201 -150q-17 70 -65 111t-114 41t-122 -77q-55 -77 -55 -226q0 -318 208 -318q65 0 121 32t76 87q92 -33 121 -63t29 -74q0 -84 -98 -130t-257 -46q-229 0 -369 128q-139 127 -139 354 q0 136 47 242z" horiz-adv-x="977" unicode="c"/><glyph d="M59 481q0 215 117 363t291 149q115 0 231 -69q4 130 4 280t-16 291q94 27 137 27q191 0 191 -131l-19 -934q0 -324 39 -447q-98 -24 -172 -24q-132 0 -160 118q-54 -56 -124 -90t-134 -34q-157 0 -271 143t-114 358zM365 496q0 -140 53 -235t137 -95t139 61 q-4 422 -4 527q-61 45 -127 45q-92 0 -145 -81q-53 -82 -53 -222z" horiz-adv-x="1114" unicode="d"/><glyph d="M138 769q78 120 192 172t256 52h4q140 0 248 -75q110 -76 110 -226q0 -303 -434 -303q-39 0 -141 4q0 -117 58 -170t144 -53q152 0 236 98q47 -22 77 -60t30 -77q0 -61 -73 -98t-141 -45t-133 -8q-225 0 -369 124q-143 123 -143 374q0 171 79 291zM373 537q172 12 218 53 t46 123q-1 32 -23 59t-55 27q-74 -1 -129 -67t-57 -195z" horiz-adv-x="1008" unicode="e"/><glyph d="M6 856q0 115 166 115q0 181 36 269q36 89 83 131q104 93 327 93q222 0 222 -106q0 -68 -72 -144q-51 54 -142 54t-123 -54t-32 -167v-78q182 4 270 16q15 -29 15 -90t-38 -87t-124 -28t-123 -2v-395q0 -252 37 -373q-70 -16 -164 -16t-135 24t-41 82l4 676 q-39 0 -149 -12q-17 43 -17 92z" horiz-adv-x="793" unicode="f"/><glyph d="M47 -274q0 81 123 200q-47 33 -47 79t46 118t107 133q-100 49 -155 140t-55 210q0 166 134 276t328 111q194 0 326 -92q100 121 215 121q55 0 90 -33t35 -84t-20 -112q-30 6 -80 6t-121 -33q35 -74 35 -160q0 -186 -138 -294t-333 -109q-35 0 -88 4q-21 -55 -21 -80 q0 -41 135 -41h238q127 0 215 -62t88 -196q0 -154 -176 -249t-414 -95t-352 70t-115 172zM354 -219q0 -100 183 -100h7q128 0 194 35q68 36 69 87q0 70 -160 70h-274q-19 -49 -19 -92zM373 625q0 -97 43 -161t126 -65q160 0 160 186q0 93 -45 153q-44 59 -119 59h-3 q-162 0 -162 -172z" horiz-adv-x="1221" unicode="g"/><glyph d="M80 1495q78 27 161 27t126 -27t43 -104l-15 -433v-90q129 123 281 123t242 -80t90 -227l-7 -365q0 -176 35 -299q-88 -26 -178 -26q-164 0 -164 125l13 510q0 84 -34 126t-87 42q-86 0 -191 -101q4 -262 4 -410t11 -284q-68 -6 -121 -6q-205 0 -205 98q0 8 5 142t5 280 v500q0 293 -14 479z" horiz-adv-x="1116" unicode="h"/><glyph d="M76 1256q0 82 57 136q57 56 133 56t130 -56q55 -57 55 -139q0 -78 -57 -133t-131 -55h-3q-76 1 -130 55t-54 136zM100 952q78 27 161 27q83 -1 126 -27t43 -104l-14 -432q0 -291 35 -396q-87 -26 -177 -26t-128 34t-37 99l6 346q0 293 -15 479z" horiz-adv-x="526" unicode="i"/><glyph d="M-266 -385q0 37 18 67t68 74q24 -32 82 -58t122 -26q62 0 104 39t42 127l-6 635q0 293 -14 479q73 27 161 27h6q83 0 122 -29q40 -30 40 -98q0 -10 -7 -146t-7 -317l8 -536q1 -181 -113 -276t-327 -95q-111 0 -205 34t-94 99zM127 1259q0 80 57 133q58 56 134 56t130 -56 t54 -136t-58 -136q-55 -55 -129 -55h-3q-76 1 -130 55q-55 55 -55 139z" horiz-adv-x="582" unicode="j"/><glyph d="M80 127l14 432v457q0 293 -14 479q78 27 161 27t126 -27t43 -104q0 -15 -8 -155q-7 -124 -7 -352v-59q172 164 355 164q106 -1 182 -73t76 -182t-70 -202t-201 -112q80 -154 122 -203q41 -49 99 -49t123 18q27 -53 27 -100q0 -46 -68 -76t-143 -30q-76 0 -121 14t-90 59 q-86 90 -199 353q-45 10 -45 55q0 26 23 86q41 -8 80 -8q82 0 126 46t44 104q0 51 -25 78q-26 28 -69 28q-93 0 -226 -133v-160q0 -293 15 -479q-78 -27 -161 -27t-126 26t-43 105z" horiz-adv-x="1145" unicode="k"/><glyph d="M80 1495q78 27 161 27t126 -27t43 -104l-15 -433v-561q0 -270 35 -377q-86 -26 -176 -26t-128 34t-38 99l6 324v565q0 293 -14 479z" horiz-adv-x="510" unicode="l"/><glyph d="M80 952q84 27 160 27q149 0 170 -121q125 133 282 133q197 0 269 -157q126 157 303 157q131 0 215 -80t84 -227l-7 -365q0 -176 35 -299q-88 -26 -178 -26q-164 0 -164 125l13 510q0 84 -29 126t-76 42q-76 0 -166 -101q4 -262 4 -410t11 -284q-68 -6 -121 -6 q-205 0 -205 98q0 10 5 150t5 274v115q0 84 -30 124t-74 40q-76 0 -166 -101q4 -262 4 -410t10 -284q-67 -6 -121 -6q-204 0 -204 98q0 8 5 144t5 280q0 334 -39 434z" horiz-adv-x="1671" unicode="m"/><glyph d="M80 952q84 27 160 27q149 0 170 -121q134 133 288 133t244 -80t90 -227l-6 -365q0 -176 35 -299q-88 -26 -178 -26q-164 0 -164 125l12 510q1 84 -33 126t-88 42q-86 0 -190 -101q4 -262 4 -410t10 -284q-67 -6 -121 -6q-204 0 -204 98q0 8 5 144t5 280q0 334 -39 434z" horiz-adv-x="1141" unicode="n"/><glyph d="M59 480q1 230 137 372q136 141 359 141t361 -141q138 -142 137 -372q1 -230 -137 -365t-361 -135t-359 135t-137 365zM367 492q0 -136 50 -225t140 -89q91 0 141 70t50 206t-52 240q-52 103 -138 103h-2q-89 0 -139 -84q-50 -85 -50 -221z" horiz-adv-x="1112" unicode="o"/><glyph d="M80 942q74 37 140 37t98 -7q30 -7 59 -41t33 -95q46 77 118 117t156 40q176 0 276 -130q99 -129 99 -329q0 -307 -177 -467q-96 -87 -232 -87t-232 90q0 -360 14 -448t27 -124q-70 -16 -168 -16t-137 26t-39 91l6 911q0 326 -41 432zM420 694q2 -176 2 -473 q66 -47 156 -47t130 98t40 238q0 141 -39 214t-101 73q-104 0 -188 -103z" horiz-adv-x="1118" unicode="p"/><glyph d="M59 473q1 240 143 380t353 140q279 0 481 -159q-32 -351 -32 -786t36 -540q-84 -26 -174 -26q-174 0 -174 129q0 102 4 270t4 219q-102 -120 -258 -120t-270 146q-113 146 -113 347zM369 506q0 -144 52 -236t130 -92t154 88q4 248 24 475q-94 54 -175 54t-133 -73 q-52 -72 -52 -216z" horiz-adv-x="1120" unicode="q"/><glyph d="M80 952q78 27 161 27q83 -1 126 -27t43 -104v-27q56 66 132 119t144 53h5q64 0 95 -27q32 -28 33 -73q0 -84 -74 -164q-71 45 -133 45q-90 0 -211 -125q-6 -121 -6 -233q0 -291 35 -396q-86 -26 -176 -26t-128 34t-38 99l6 346q0 293 -14 479z" horiz-adv-x="829" unicode="r"/><glyph d="M53 152q0 110 166 172q21 -74 78 -111t121 -37q137 0 137 98q-1 48 -73 78t-158 48q-86 20 -159 88t-73 184q0 145 124 233t291 88q167 -1 265 -75q59 -44 59 -103t-50 -99t-150 -52q-17 63 -58 98t-89 35q-48 -1 -80 -25t-33 -72q0 -48 48 -78q49 -28 117 -46t136 -42 q68 -26 118 -86q48 -60 48 -151q0 -157 -124 -237t-292 -80q-369 0 -369 172z" horiz-adv-x="893" unicode="s"/><glyph d="M0 852q0 121 166 121h29q-5 125 -13 209q66 26 136 26t101 -5t61 -33t30 -73q0 -44 -6 -126q213 0 338 16q14 -29 14 -88q0 -108 -121 -115q-78 -4 -235 -4q-6 -202 -6 -328t2 -152t11 -62q17 -69 93 -70q102 0 164 61q84 -59 84 -119t-70 -94q-70 -36 -170 -36 q-223 0 -316 98t-93 293v409q-107 -2 -183 -14q-16 45 -16 86z" horiz-adv-x="877" unicode="t"/><glyph d="M80 952q80 27 166 27q176 0 176 -125l-12 -473q0 -97 32 -151t78 -54q105 0 195 96q-2 80 -2 283t-15 397q82 27 161 27q79 -1 124 -25t45 -102l-12 -289v-147q0 -260 37 -396q-101 -26 -169 -26t-115 30q-46 30 -50 87q-150 -131 -324 -131q-289 0 -289 288l7 365 q0 213 -33 319z" horiz-adv-x="1133" unicode="u"/><glyph d="M-20 897q94 86 200 86t160 -123q102 -252 184 -563q146 383 146 602q0 33 -6 64q65 30 145 30h6q76 0 114 -25q40 -26 40 -90q0 -119 -93 -378q-94 -262 -190 -391q-82 -115 -242 -115q-63 0 -135 18q-45 226 -153 516t-176 369z" horiz-adv-x="1014" unicode="v"/><glyph d="M-20 897q94 86 200 86t160 -123q92 -278 154 -563q122 377 122 602q0 33 -6 64q66 30 146 30q162 0 162 -100q0 -49 -9 -90q135 -268 185 -506q123 377 123 602q0 33 -7 64q68 30 147 30h6q75 0 114 -25q41 -26 41 -87q0 -119 -90 -380t-179 -392q-75 -115 -229 -115 q-64 0 -127 18q-39 193 -94 410q-72 -200 -149 -314t-230 -114q-64 0 -127 18q-45 228 -145 518t-168 367z" horiz-adv-x="1563" unicode="w"/><glyph d="M33 870q82 123 205 123q92 0 141 -75q70 -109 139 -273q109 201 113 348q258 -14 258 -123q0 -102 -262 -393q139 -239 334 -375q-39 -48 -59 -68q-54 -54 -146 -54q-90 0 -146 83q-69 109 -151 283q-4 -6 -33 -49t-37 -57q-9 -14 -31 -54q-54 -93 -71 -206 q-238 4 -238 114q0 44 40 110t97 131t170 179q-76 127 -166 220t-157 136z" horiz-adv-x="979" unicode="x"/><glyph d="M0 879q133 104 229 104q47 -1 75 -21t54 -78t92 -282q66 -223 103 -391q55 169 101 369t46 269t-6 114q70 30 150 30q153 0 153 -102q-1 -97 -73 -327q-166 -526 -482 -984q-61 -92 -143 -92q-104 0 -201 125q172 129 320 362q-277 766 -418 904z" horiz-adv-x="1038" unicode="y"/><glyph d="M33 116q0 62 45 107l534 557q-61 4 -92 4q-211 0 -428 -65q-18 64 -18 110q0 87 63 111q59 25 303 25t459 -41q33 -34 33 -94t-35 -95l-543 -573h15q206 0 510 82q24 -62 24 -118q0 -47 -19 -72q-20 -26 -42 -36q-22 -8 -64 -16q-114 -14 -330 -14t-380 24 q-35 42 -35 104z" horiz-adv-x="1012" unicode="z"/><glyph d="M92 535v102q76 -1 116 55t40 117v428q0 115 102 171t336 56q47 0 74 -2q8 -24 8 -76t-24 -72q-24 -22 -102 -22t-104 -24t-26 -99v-364q0 -73 -52 -137t-108 -82q56 -20 108 -84t52 -131v-367q0 -50 6 -72q14 -50 150 -51q50 1 74 -21t24 -73t-8 -76q-27 -2 -74 -2 q-236 1 -338 57t-102 171v428q0 61 -38 115t-114 55z" horiz-adv-x="836" unicode="{"/><glyph d="M475 1499q47 10 88 10q135 0 135 -112q0 -11 -10 -301t-10 -715v-35q0 -686 24 -846q-47 -10 -88 -10q-135 0 -135 113q1 10 11 316q10 305 10 699v35q0 686 -25 846z" horiz-adv-x="1178" unicode="|"/><glyph d="M39 1386q0 52 8 76q27 2 74 2q235 0 337 -56t101 -171v-428q0 -61 40 -117t116 -55v-102q-76 -1 -114 -55t-38 -115v-428q-1 -115 -103 -171t-337 -57q-47 0 -74 2q-8 25 -8 76q-1 51 23 73t88 21q64 1 97 15q34 14 40 36t6 72v367q0 67 52 131t108 84q-56 18 -108 82 t-52 137v364q0 51 -7 73q-16 50 -151 50q-51 0 -75 22t-23 72z" horiz-adv-x="807" unicode="}"/><glyph d="M53 547q0 168 262 168q113 0 292 -41t265 -41q150 0 230 72q69 -74 69 -151t-93 -118q-92 -41 -192 -41t-270 41t-262 41q-151 0 -231 -71q-70 73 -70 141z" horiz-adv-x="1225" unicode="~"/><glyph d="M51 519q0 50 37 90t117 40l166 -12h16q88 0 160 31q22 -62 22 -120t-42 -96q-42 -36 -111 -36l-174 14q-78 0 -176 -33q-15 72 -15 122z" horiz-adv-x="580" unicode="­"/><glyph horiz-adv-x="773"/><glyph horiz-adv-x="1546"/><glyph horiz-adv-x="773"/><glyph horiz-adv-x="1546"/><glyph horiz-adv-x="515"/><glyph horiz-adv-x="386"/><glyph horiz-adv-x="257"/><glyph horiz-adv-x="257"/><glyph horiz-adv-x="193"/><glyph horiz-adv-x="309"/><glyph horiz-adv-x="85"/><glyph d="M51 519q0 50 37 90t117 40l166 -12h16q88 0 160 31q22 -62 22 -120t-42 -96q-42 -36 -111 -36l-174 14q-78 0 -176 -33q-15 72 -15 122z" horiz-adv-x="580" unicode="‐"/><glyph d="M51 519q0 50 37 90t117 40l166 -12h16q88 0 160 31q22 -62 22 -120t-42 -96q-42 -36 -111 -36l-174 14q-78 0 -176 -33q-15 72 -15 122z" horiz-adv-x="580" unicode="‑"/><glyph d="M51 519q0 50 37 90t117 40l166 -12h16q88 0 160 31q22 -62 22 -120t-42 -96q-42 -36 -111 -36l-174 14q-78 0 -176 -33q-15 72 -15 122z" horiz-adv-x="580" unicode="‒"/><glyph d="M51 519q0 50 73 90t231 40l329 -12h31q174 0 317 31q43 -62 43 -120t-83 -96q-83 -36 -219 -36l-344 14q-155 0 -348 -33q-30 72 -30 122z" horiz-adv-x="1086" unicode="–"/><glyph d="M51 519q0 50 146.5 90t462.5 40l656 -12h63q348 0 633 31q87 -62 87 -120t-166 -96q-166 -36 -439 -36l-688 14q-308 0 -696 -33q-59 72 -59 122z" horiz-adv-x="2110" unicode="—"/><glyph horiz-adv-x="309"/><glyph horiz-adv-x="386"/><glyph d="M0 0v995h995v-995h-995z" horiz-adv-x="995" unicode="◼"/></font>
</defs>
</svg>
