<?xml version="1.0" standalone="no"?>
<!DOCTYPE svg PUBLIC "-//W3C//DTD SVG 1.1//EN" "http://www.w3.org/Graphics/SVG/1.1/DTD/svg11.dtd" >
<svg xmlns="http://www.w3.org/2000/svg" xmlns:xlink="http://www.w3.org/1999/xlink" version="1.1">
<metadata></metadata>
<defs>
<font id="djadli_tachkiliregular" horiz-adv-x="1091" >
<font-face units-per-em="2048" ascent="1400" descent="-648" />
<missing-glyph horiz-adv-x="225" />
<glyph horiz-adv-x="0" />
<glyph unicode="&#xd;" horiz-adv-x="682" />
<glyph unicode=" "  horiz-adv-x="225" />
<glyph unicode="&#x09;" horiz-adv-x="225" />
<glyph unicode="&#xa0;" horiz-adv-x="225" />
<glyph unicode="!" horiz-adv-x="532" d="M65 402l149 664l234 -36l-38 -684zM74 159l16 177l273 -44l5 -205l-99 -49z" />
<glyph unicode="&#x22;" horiz-adv-x="552" d="M45 1039l414 333l59 -215l-366 -221z" />
<glyph unicode="#" horiz-adv-x="1459" d="M63 73l103 152l292 -12l32 75l35 119l-352 -17l137 143l249 -12l95 322l139 -35l-116 -293l124 -6l82 5l123 338l139 -11l-129 -318l353 32l-49 -137l-317 17l-24 -2l-89 -215l251 4l-43 -109l-206 5l-45 -3l-18 -42l-83 -305l-97 104l86 236l-232 -13l-9 -22l-100 -363 l-80 162l92 218zM553 214l221 3l76 209l-215 -13z" />
<glyph unicode="$" horiz-adv-x="1127" d="M157 -22l85 266l157 -258l63 416l-249 340l111 190l214 -27l23 157l100 -12l-28 -157l86 -11l36 239l113 -71l-34 -183l76 -73l54 -31l-51 -203l-115 120l-14 -72v-1l-49 -271l242 -247l-16 -158l-302 -68l-34 -313l-117 -6l46 297l-97 -22l-29 -269l-75 129l18 121z M414 759l83 -131l18 114zM477 -7l106 10l29 245l-86 64l-38 -217zM564 521l93 -86l38 289h-2l-88 9zM675 14h146l-128 152z" />
<glyph unicode="%" horiz-adv-x="711" d="M121 685q9 17 25 41t24 38q6 14 6 17q0 2 12 -8q12 -11 32 -25t36 -26t7 -31q-8 -19 -33 -55t-21 -42q-2 1 -33 25q-30 24 -47 36t-8 30zM202 -179l152 1071l88 -188q-4 -34 -8 -86t-12 -116q-6 -62 -16 -132t-22 -140q-63 -348 -182 -409zM416 42q10 18 26 42t22 38 t6 16t12 -8t33 -24q20 -14 36 -27q16 -12 7 -31q-8 -19 -33 -55q-25 -35 -21 -41q-2 1 -33 24q-30 24 -47 36t-8 30z" />
<glyph unicode="&#x26;" horiz-adv-x="1201" d="M50 267q0 295 243 425q-1 17 -1 33q0 153 84 247t213 93q128 0 229 -43l-41 -269q-68 45 -149 45q-109 0 -109 -115q0 -76 86 -173l178 -203q70 130 80 321l232 -26q-14 -285 -141 -486l202 -224l-276 -54l-92 104q-139 -99 -336 -99q-198 -1 -300 115t-102 309zM282 284 q0 -179 198 -179q78 0 138 30l-152 177q-75 88 -106 142q-78 -43 -78 -170z" />
<glyph unicode="'" horiz-adv-x="552" d="M45 1039l414 333l59 -215l-366 -221z" />
<glyph unicode="(" horiz-adv-x="699" d="M71 316q0 470 308 942l154 -120l-234 -826l234 -826v-8l-154 -110q-308 478 -308 948z" />
<glyph unicode=")" horiz-adv-x="698" d="M192 -514l234 826l-234 826l154 120q308 -472 308 -942t-308 -948l-154 110v8z" />
<glyph unicode="*" horiz-adv-x="764" d="M20 932l58 241l200 -88l-13 218h239l-14 -218l196 88l58 -241l-204 -25l138 -160l-189 -138l-107 209l-107 -209l-189 138l138 160z" />
<glyph unicode="+" horiz-adv-x="819" d="M81 644l253 -23l-76 141l248 76l70 -152l151 48l38 -284l-211 31l76 -123l-232 -43l-10 156l-243 -76z" />
<glyph unicode="," horiz-adv-x="413" d="M36 73l41 268l266 -13l-34 -331l-198 -89l73 120z" />
<glyph unicode="-" horiz-adv-x="512" d="M36 354l50 190l389 -67l15 -93z" />
<glyph unicode="." horiz-adv-x="575" d="M69 281l248 107l145 -317l-333 50z" />
<glyph unicode="/" horiz-adv-x="852" d="M20 -150l524 1398h283l-526 -1398h-281z" />
<glyph unicode="0" horiz-adv-x="737" d="M55 170v586l156 210l358 -3l175 -272l-112 -534l-451 -122zM412 425l3 -261l116 29l6 246z" />
<glyph unicode="1" horiz-adv-x="620" d="M-73 70l20 153l177 46l56 423l-149 91l99 116l400 9l-56 -642l166 -110l7 -136z" />
<glyph unicode="2" horiz-adv-x="890" d="M-38 378l533 217l-66 64l-175 -78l-267 149l423 239l214 -7l68 -375l-228 -92l388 -20l-149 -446l-556 8z" />
<glyph unicode="3" horiz-adv-x="839" d="M10 49l20 439l289 26l62 -240l134 18l-70 176l-96 69l92 99l-130 -26l-152 163l527 268l42 -310l-237 -133l271 15l107 -351z" />
<glyph unicode="4" horiz-adv-x="913" d="M-6 548l387 408l152 -128l177 24l57 -431l104 33l4 -108l-91 -8l29 -288l-428 25l57 242l-354 -8zM381 416l70 -12v115z" />
<glyph unicode="5" d="M6 494l430 22l48 -116l134 4l-67 139l-540 31l317 473l371 -196l89 -151l-170 -46l-147 81l-18 -152l376 99l250 -425l-179 -94l-358 170l-308 -326z" />
<glyph unicode="6" horiz-adv-x="940" d="M-24 219l34 328l460 449l83 -14l-113 -264l372 -93l108 -455l-538 -263zM333 434l152 -63l93 176l-152 107z" />
<glyph unicode="7" horiz-adv-x="1044" d="M-86 945l357 113l230 -307l194 334l362 -242l-399 -868l-453 172l393 615l-97 -65l-85 59l31 -107l-296 -125z" />
<glyph unicode="8" horiz-adv-x="782" d="M36 721l125 245l482 4l177 -305l-254 -139l239 -201l-157 -299l-573 71l-26 319l171 154zM184 416l178 -56l24 162l-98 -15zM230 675l62 -100l114 12l-7 130z" />
<glyph unicode="9" horiz-adv-x="804" d="M47 527l260 422l159 -109l260 67l98 -887l-401 -37l-367 273l70 34l300 -160l6 272zM335 499l93 -44l14 148z" />
<glyph unicode=":" horiz-adv-x="509" d="M94 -159l98 257l242 -142l-146 -211zM98 237l113 227l227 -113l-160 -256z" />
<glyph unicode=";" horiz-adv-x="641" d="M159 131l158 258l181 -141l-111 -228zM170 -94l180 124l162 -221l-10 -4l1 -1l-236 -351l-80 110l92 158z" />
<glyph unicode="&#x3c;" horiz-adv-x="401" d="M-219 382l364 567l171 -346l-198 -237l191 -189l-210 -280z" />
<glyph unicode="=" horiz-adv-x="830" d="M36 51l72 190l563 -67l21 -93zM36 354l72 190l563 -67l21 -93z" />
<glyph unicode="&#x3e;" horiz-adv-x="401" d="M-219 243l199 236l-191 190l211 279l317 -485l-366 -566z" />
<glyph unicode="?" horiz-adv-x="864" d="M45 746l94 288l412 20l275 -374l-267 -91l198 -235l-425 -73l-37 221l210 194l-98 41l-46 -114zM403 244l321 65l-17 -222h-218z" />
<glyph unicode="@" horiz-adv-x="1319" d="M40 292q0 280 182 452t454 172q271 0 437 -148t166 -406q0 -182 -91 -288t-229 -106t-196 83q-125 -81 -209 -81t-132 50t-48 127q0 117 90 176l265 20v37q0 82 -103 82q-77 0 -158 -48l-57 150q132 75 275 75q243 0 243 -219l-4 -238q0 -79 71 -79q56 -1 95 71t39 183 q0 206 -123 312t-337 106q-214 1 -347 -133q-132 -134 -132 -349q-1 -215 117 -331t309 -115q123 0 194 27l18 -145q-96 -28 -217 -28q-248 0 -410 156t-162 435zM584 184q0 -68 62 -68q32 0 79 19l2 97l-136 -13q-7 -19 -7 -35z" />
<glyph unicode="A" horiz-adv-x="989" d="M10 413l370 261l-156 139l-118 6l-46 50l305 149l313 -159l171 -94l147 -288l-68 -529l85 -93l-42 -42l-421 116l50 413l-252 83l-47 -50l-21 56l121 68l196 -39l-29 102l-139 75l-195 -152l135 -456l-199 -53z" />
<glyph unicode="B" horiz-adv-x="1038" d="M36 507l165 366l-93 113l89 57l317 -205l179 129l125 -209l-103 -175l161 -50l161 -397l-367 -187l-276 130l-260 -105l13 86l54 49l-98 139zM385 431l53 -129l130 -32l36 256l-184 39zM425 624l175 -18l-91 178z" />
<glyph unicode="C" horiz-adv-x="978" d="M20 79l62 435l217 351l210 -50l5 180l129 149l447 -175l-211 -184l23 -241l-297 -136l-96 220l-66 -427l142 -73l92 118l275 -18l-4 -207l-290 54l-187 -218z" />
<glyph unicode="D" horiz-adv-x="960" d="M43 970l320 94l97 -131l318 -221l169 -420l-200 -224l-237 -9l-86 33l10 47l94 -38l119 14l-50 407l-175 86l-21 -549l-278 -80l-77 400l56 301l193 3l-205 109z" />
<glyph unicode="E" d="M-8 801l410 220l279 -299l103 64l87 -19l-322 -445l-303 191l133 -206l-108 -146l425 112l376 15l14 -386l-347 -49l-43 117l-514 -74l-77 88l156 299z" />
<glyph unicode="F" horiz-adv-x="1155" d="M10 283l47 270l109 283l-106 54l21 71l478 -118l205 120l431 -82l-122 -337l-405 33l9 209l-120 -11l-134 23l-74 -299l142 50l193 -115l-186 -135l-146 120l136 -283l69 -35l-346 -202z" />
<glyph unicode="G" horiz-adv-x="1148" d="M24 355l110 451l378 247l177 -316l112 156l76 9l-36 -223l-170 -54l-73 117l-123 -89l56 -287l117 17l-4 99l-69 -4l-20 61l426 166l257 -240l-100 -82l-423 86l299 -250l-93 -227l-219 -39l-48 346l-149 -223l-328 -60z" />
<glyph unicode="H" horiz-adv-x="1239" d="M4 707l223 363l470 -255l-160 -293l201 -32l-79 185l169 219l449 -81l-192 -408l-225 29l228 -304l-163 -91l-150 386l-201 -7l205 -417l-329 -103l-345 65l140 363z" />
<glyph unicode="I" horiz-adv-x="739" d="M-6 920l94 126l251 -59l314 115l91 -52l-34 -260l-65 -36l-119 -16l15 -317l93 10l49 -150l-60 -223l-427 -74l-148 188l44 140l142 37l-53 342l-82 -9l-49 45z" />
<glyph unicode="J" d="M-43 843l280 170l277 -185l138 142l472 -21l-282 -1003l-346 24l8 75l-234 -101l-209 407l355 71l115 -238l153 671l-145 -96l-114 60l-9 -187l-332 -55z" />
<glyph unicode="K" horiz-adv-x="1169" d="M36 762l138 249l285 -134l42 -76l-56 -195l198 68l-168 237l114 168l467 -168l-32 -54l-102 -26l92 -187l-62 -84l-309 -68l233 -440l19 96l343 34l50 -393l-118 -92l-481 34l-84 741l-142 -34l4 -214l154 -119l2 -91l-381 -149l-190 122z" />
<glyph unicode="L" d="M-20 249l231 281l-158 225l71 204l310 27l40 -251l-101 -26l108 -203l-117 -281l126 50l77 -52l-13 249l357 110l149 -320l-250 -266l-329 203l-374 -179z" />
<glyph unicode="M" horiz-adv-x="1122" d="M-53 873l454 128l201 -255l189 181l371 -137l-284 -378l243 -437l74 33l57 -16l-163 -202l-367 116l-116 519l112 304l-104 -95l-102 112l21 -306l-34 -538l-527 19l-12 38l83 41l127 400z" />
<glyph unicode="N" horiz-adv-x="1093" d="M12 367l81 539l378 -68l8 -62l-44 -92l209 -360l-118 396l51 145l326 56l63 -76l-192 -62l310 -550l-460 -114l-228 498l-27 -207l129 -204l-330 -205z" />
<glyph unicode="O" horiz-adv-x="913" d="M24 703l265 296l372 10l220 -258l-26 -571l-319 -151l-344 59zM429 115l87 -32l59 38l-71 204h-44z" />
<glyph unicode="P" horiz-adv-x="1017" d="M34 463l152 504l429 54l63 -76h241l245 -313l-201 -232l-415 -22l-4 53l210 23l22 98l-232 22l-46 -178l81 -233l-268 -214l-121 31z" />
<glyph unicode="Q" horiz-adv-x="888" d="M36 243l8 431l266 301l409 -71l132 -323l-93 -374l129 -217l53 82l320 -96l-270 -348l-342 77v442l-299 -108zM598 218l79 -21l6 128l-66 7z" />
<glyph unicode="R" horiz-adv-x="1388" d="M22 565l235 338l257 -106l-14 -54l208 113l178 -75l-9 -335l-104 -97l-200 -44l344 -94l104 264l358 -135l52 -339l-444 -49l-476 329l77 -170l-344 -78l-163 178zM504 342l135 36l25 90l-38 47l-115 -85z" />
<glyph unicode="S" horiz-adv-x="919" d="M24 433l29 432l316 41v-67l156 207l56 -123l136 -34l42 -214l-297 28l-96 60l-9 -138l254 21l223 -131l47 -169l-76 -253l-300 50l49 -127l-343 -80l-184 363l322 64l97 -134l75 163l-171 103z" />
<glyph unicode="T" horiz-adv-x="1155" d="M-12 880l370 174l298 -253l79 -17l378 238l166 -153l-106 -263l-321 -96l-46 152l118 139l-172 -60l139 -459l125 6l32 -45l-57 -111l-451 -4l-54 86l164 541l-210 71l88 -214l-312 -60l-97 22z" />
<glyph unicode="U" horiz-adv-x="1093" d="M40 292l21 565l50 62l350 -154l73 -81l-21 -469l116 20l-20 330l362 246l45 -148l-17 -617l108 -25l-75 -86l-354 7l-44 198l-294 -119z" />
<glyph unicode="V" horiz-adv-x="1292" d="M4 923l102 102l485 -172l164 -663l152 679l91 38l243 -38l21 -80l-76 -242l-86 -23l-151 11l-172 -522l-194 11z" />
<glyph unicode="W" horiz-adv-x="1191" d="M28 320l161 621h-61l-59 62l511 103l56 -120l-120 -522l49 62l57 -24l68 -89l-33 388l64 148l404 -121l8 -68l-114 -29l139 -608l-578 12l-3 189l-85 -194l-311 -12z" />
<glyph unicode="X" horiz-adv-x="1380" d="M32 824l4 86l425 63l224 -332l80 215l402 89l184 -107l-501 -327l465 -321l-72 -161l-429 44l-125 308l-152 -343l-470 85l45 134l448 240l-179 90z" />
<glyph unicode="Y" d="M28 907l413 153l98 -73l-114 -465l126 46l-38 167l54 202l233 54l228 -641l-259 -389l-370 88l-12 -70l-72 -22l-145 286l283 171l236 -289l-118 393l-306 -172l-221 108l133 437l-83 -38z" />
<glyph unicode="Z" horiz-adv-x="1376" d="M-51 849l46 108l581 -134l317 168l405 -138l-745 -641l218 130l198 -126l30 100l301 64l166 -328l-505 -111l-218 325l-403 -339l-242 259l24 88l653 573l-207 -78l-180 24l77 -176l-77 -87l-370 42z" />
<glyph unicode="[" horiz-adv-x="838" d="M56 530q74 92 155 102q37 4 62 -20t25 -82q0 -59 -25 -82t-62 -19q-80 9 -155 101zM298 324q6 63 23 118q16 55 25 88q-9 34 -19 68q-36 125 -29 211q15 147 145 300t179 197t142 93q-268 -186 -334 -414q-20 -72 -11 -147q9 -74 17 -118t10 -88q4 -5 6 -9t4 -9 q37 62 37 130q1 68 -3 108t-2 82q5 94 46 175q42 81 149 154q13 7 13 -3t-12 -42t-38 -106q-25 -74 -19 -141q11 -123 -25 -227t-104 -214q147 -231 129 -444q-17 -158 23 -247q12 -26 29 -38q-153 101 -181 241q-16 80 -10 143q5 64 5 131t-37 130l-4 -8t-6 -11 q-3 -42 -16 -130q-13 -87 -13 -132q0 -47 13 -91q31 -106 107 -207t227 -206q-106 62 -144 96q-42 35 -83 83t-101 118q-156 182 -138 366zM679 -199q2 -1 4 -3q-2 2 -4 3z" />
<glyph unicode="\" horiz-adv-x="852" d="M20 1248h283l524 -1398h-281z" />
<glyph unicode="]" horiz-adv-x="856" d="M56 -339q221 153 298 319q49 106 49 168q-1 62 -7 105t-14 86t-8 88q-4 7 -6 11l-4 8q-37 -63 -37 -130q-1 -66 3 -108q8 -86 -8 -166q-29 -141 -181 -241q72 51 52 285q-16 182 75 352q26 48 54 92q-70 112 -93 182q-46 136 -36 264q7 78 -57 242q-12 32 -12 42t13 3 q153 -106 184 -246q17 -78 12 -141q-6 -64 -6 -132t37 -130q2 5 4 9t6 9q0 44 8 88t18 117t-6 133q-33 118 -111 222q-77 103 -227 207q94 -50 143 -93q49 -44 178 -197q164 -193 144 -371q-7 -62 -22 -119q-16 -56 -25 -89q8 -33 18 -67q36 -130 29 -218 q-14 -142 -143 -294q-54 -63 -95 -111t-81 -83q-40 -34 -146 -96zM137 -202q2 2 4 3q-2 -1 -4 -3zM522 530q0 60 24 83t62 19q79 -10 156 -102q-76 -90 -156 -100q-36 -4 -61 18t-25 82z" />
<glyph unicode="^" horiz-adv-x="853" d="M50 127l267 589h211l275 -589l-190 -12l-191 395l-186 -395z" />
<glyph unicode="_" horiz-adv-x="678" d="M0 -152h678v-246h-678v246z" />
<glyph unicode="`" horiz-adv-x="692" d="M120 1053l460 -80l-4 -139l-438 94z" />
<glyph unicode="a" horiz-adv-x="884" d="M-8 779l75 78l361 -211l99 125l396 -141l-156 -465l61 -33v-57l-342 8l-25 61l-98 -86l-284 -33l-66 412l383 65l90 -24l-8 116l-42 -29l-61 29v-54l-308 -38zM388 440l19 -148l58 -32l25 165z" />
<glyph unicode="b" horiz-adv-x="874" d="M-71 897l421 133l187 -133l-22 -50l-98 26l27 -401l147 98l276 -143l-89 -371l-281 -14l-67 104l-13 -73l-264 36zM452 222l54 -19l40 264l-85 -71z" />
<glyph unicode="c" horiz-adv-x="667" d="M-32 573l273 42l-75 71l273 100l266 -201l-193 -175l-210 143l125 -326l179 48l30 -56l-443 -190l-112 84z" />
<glyph unicode="d" horiz-adv-x="1030" d="M16 659l402 67l58 -130l-26 384l137 91l412 -76l-13 -37l-81 -31l9 -702l89 -79l-17 -67l-393 44l-28 58l-410 -117l-117 121zM382 199l157 23l-45 289l-90 130z" />
<glyph unicode="e" horiz-adv-x="901" d="M10 309l204 544l513 -43l166 -345l-80 -167l-356 86l65 -280l65 194l253 -70l-80 -263l-184 -7l-33 66l-232 -82zM484 433l141 -32l53 161l-86 59z" />
<glyph unicode="f" horiz-adv-x="595" d="M-75 929l442 114l301 -220l-39 -107l-171 64l21 -355l65 -8l35 -71l-85 -10l-11 -253l-270 -4l-64 259l-110 -2l-25 52l104 37z" />
<glyph unicode="g" horiz-adv-x="788" d="M-36 222l201 150l-172 118l113 252l405 17l44 -41l68 144l290 -38l-60 -230l-245 35l110 -200l-193 -181l-275 -29l103 -163l137 133l466 -127l-189 -479l-711 80l14 59l201 -2l148 318l-285 -183zM315 537l148 -150l168 91l-85 146l-151 68z" />
<glyph unicode="h" horiz-adv-x="892" d="M-79 953l478 148l-27 -663l367 254l123 -81l-16 -485l75 -43l5 -65l-452 -97l49 517l-151 -75l47 -186l-308 -87l-172 205l201 -22l-102 558l-53 68z" />
<glyph unicode="i" horiz-adv-x="620" d="M12 383l111 215l-73 69l98 75l335 -119l-17 -363h103l29 -112l-544 -221l-25 127l66 61zM190 910l201 57l173 -94l21 -140l-119 -66l-214 70z" />
<glyph unicode="j" horiz-adv-x="501" d="M-149 -157l66 42l156 -46v691l-95 -8l-46 72l396 107l165 -64l-95 -844l-348 -126zM50 891l218 150l168 -114l-20 -142l-308 -103z" />
<glyph unicode="k" horiz-adv-x="839" d="M-18 56l96 69l-80 373l221 467l-50 22l-19 31l344 31l99 -142l-156 -374l255 191l88 -8l8 -95l-275 -137l203 18l144 -156l-198 -248l54 -31l-28 -53l-377 -3l160 415l-156 -4l64 -156l-88 -214l-281 -45z" />
<glyph unicode="l" horiz-adv-x="671" d="M53 258l98 625l-64 6l-34 68l421 64l77 -84l-9 -718l97 5l50 -122h-591z" />
<glyph unicode="m" horiz-adv-x="1089" d="M-34 610l290 112l73 -143l160 83l60 -80l106 166l350 -153l17 -400h84l16 -80l-199 -136l-201 54l-2 510l-93 52l-58 -43l43 -306l78 -34l-4 -116l-303 -13l-7 106l54 306l-84 7l-6 -456l-284 60l46 213z" />
<glyph unicode="n" horiz-adv-x="1021" d="M-4 270l100 345l-69 44v50l388 32l-2 -142l372 160l173 -260l-110 -439l172 45l35 -108l-511 -97l-75 79l160 458l-47 121l-163 -25l59 -403l-344 -104z" />
<glyph unicode="o" horiz-adv-x="692" d="M22 380l54 294l161 63l372 -122l29 -445l-362 -180l-181 48zM428 464l44 -274l121 15l-28 268z" />
<glyph unicode="p" horiz-adv-x="851" d="M-36 613l350 141l58 -95l82 116l341 -66l25 -601l-308 -83l-133 185l58 -412l62 -69l-45 -75l-396 87l29 757l-94 25zM397 577l15 -300l83 -91l-50 494z" />
<glyph unicode="q" horiz-adv-x="913" d="M-10 636l406 106l84 -150l180 184l283 -97l-7 -37l-69 4l56 -770l80 -20l20 -43l-182 -117l-248 63l-52 466l-50 -132l-414 -10zM374 309l67 -34l72 21l-52 253l-80 83z" />
<glyph unicode="r" horiz-adv-x="905" d="M-28 581l376 166l45 -166l111 225l367 -34l-34 -342l-54 -45l-268 88l9 152l-102 -132l93 -435l-65 -58l-430 102l69 210z" />
<glyph unicode="s" horiz-adv-x="636" d="M10 674l307 9l-44 93l263 37l7 -169l53 -37l-113 -91l-157 78l6 -110l227 -58l64 -225l-204 -78l37 -123l-243 -56l-179 259l149 108l207 -134l-84 163l-259 17z" />
<glyph unicode="t" horiz-adv-x="669" d="M-32 223l151 398l-134 23l54 85l118 -11l91 217l-43 69l43 54l243 -26l22 -324l108 21l10 -75l-130 -10l18 -449l166 54l16 -69l-399 -200z" />
<glyph unicode="u" horiz-adv-x="794" d="M-8 173l149 486l-78 44l31 44l311 -81l2 -153l-115 -261h154l18 440l295 -25l-104 -404l95 -24l11 -50l-272 -126l-37 151l-370 -172z" />
<glyph unicode="v" horiz-adv-x="776" d="M-8 502l130 261l162 -9l142 -420l68 425l271 -41l12 -98l-158 -52l-57 -426l-317 -118l-142 466l-85 -33z" />
<glyph unicode="w" horiz-adv-x="954" d="M-126 634l440 79l126 -5l-23 -498l73 73l58 -44l-44 430l367 53l88 -576l-322 -126l-167 141l-107 -141l-313 -11l-20 523l-136 40z" />
<glyph unicode="x" horiz-adv-x="983" d="M4 166l359 230l-359 187l34 106l347 80l96 -301l26 160l409 43l46 -130l-347 -169l190 -10l211 -313l-475 -24l-48 321l-50 -256l-58 -83l-297 53z" />
<glyph unicode="y" horiz-adv-x="884" d="M2 351l152 290l-117 63l54 44l420 -146l-111 -399l125 72l26 429l286 9l13 -912l-469 -223l-268 174l134 103l264 -143l22 465l-317 -130z" />
<glyph unicode="z" horiz-adv-x="872" d="M-81 709l252 70l160 -91l382 102l29 -196l-415 -425l190 37l36 173l304 4l35 -300l-314 -17l-50 86l-361 -106l-154 185l396 424l-82 -38l-99 50l12 -173l-152 -44z" />
<glyph unicode="{" horiz-adv-x="656" d="M80 454v274q188 0 188 94q0 49 -79 239t-79 285q0 345 370 345q67 0 126 -9v-241q-37 2 -83 2q-135 0 -135 -134q0 -56 78 -222q78 -165 77 -261t-53 -152t-202 -73v-20q151 -19 203 -74t52 -148q1 -93 -77 -263t-78 -223q0 -134 135 -134q44 0 83 2v-240q-70 -9 -126 -9 q-370 0 -370 345q0 89 79 283t79 243q0 91 -188 91z" />
<glyph unicode="|" horiz-adv-x="304" d="M40 -217v1562h224v-1562h-224z" />
<glyph unicode="}" horiz-adv-x="656" d="M80 -259q39 -2 83 -2q135 0 135 134q0 53 -78 223t-77 263q0 93 52 148t203 74v20q-150 17 -202 73t-53 152q0 96 77 261q78 166 78 222q0 134 -135 134q-46 0 -83 -2v241q59 9 126 9q370 0 370 -345q0 -95 -79 -285t-79 -239q0 -94 188 -94v-274q-188 0 -188 -91 q0 -49 79 -243t79 -283q0 -345 -370 -345q-56 0 -126 9v240z" />
<glyph unicode="~" horiz-adv-x="774" d="M60 284q48 215 177 215q51 -1 149 -41t134 -40q54 0 79 96l115 -26q-12 -102 -60 -162t-108 -60t-164 40q-103 40 -134 39q-51 0 -84 -92z" />
<glyph unicode="&#xa9;" horiz-adv-x="1171" d="M60 543q0 221 152 373t374 152t374 -152t152 -373t-152 -373t-374 -152t-374 152t-152 373zM149 542.5q0 -185.5 125.5 -313.5t311.5 -128q186 -1 311 127t125 314t-125 314t-311 128t-311 -128q-126 -128 -126 -313.5zM298 545q0 147 92 229t221 82q128 0 202 -41 l-34 -144q-71 40 -160 40q-154 0 -154 -168q0 -154 162 -154q86 0 164 44l27 -149q-83 -39 -210 -39q-126 1 -218 77t-92 223z" />
<glyph unicode="&#xad;" horiz-adv-x="512" d="M36 354l50 190l389 -67l15 -93z" />
<glyph unicode="&#xbc;" horiz-adv-x="1584" d="M60 415v152h168v394l-145 -29l-15 139l198 42h142v-546h140v-152h-488zM484 0l559 1105h183l-558 -1105h-184zM972 309l301 399l175 -10l-324 -419h149v150h169v-150h82v-135h-82v-144h-169v144h-286z" />
<glyph unicode="&#xbd;" horiz-adv-x="1719" d="M60 415v152h168v394l-145 -29l-15 139l198 42h142v-546h140v-152h-488zM484 0l559 1105h183l-558 -1105h-184zM1130 0v139q184 121 252 191t68 138q0 94 -110 94q-81 0 -162 -35l-26 142q87 42 212 42q124 0 196 -57t72 -158q0 -182 -258 -344h285l-14 -152h-515z" />
<glyph unicode="&#xbe;" horiz-adv-x="1584" d="M60 558l133 80q64 -88 152 -88q44 0 77 20t33 62q1 42 -33 62t-85 20h-63v131h78q85 0 85 61q0 26 -20 48t-65 22q-89 0 -140 -100l-144 58q84 183 294 183q118 0 182 -53t65 -130q0 -102 -100 -143v-4q56 -17 90 -63t34 -116t-46 -122q-72 -77 -232 -77q-81 0 -136 20 q-95 34 -159 129zM484 0l559 1105h183l-558 -1105h-184zM972 309l301 399l175 -10l-324 -419h149v150h169v-150h82v-135h-82v-144h-169v144h-286z" />
<glyph unicode="&#x2000;" horiz-adv-x="845" />
<glyph unicode="&#x2001;" horiz-adv-x="1691" />
<glyph unicode="&#x2002;" horiz-adv-x="845" />
<glyph unicode="&#x2003;" horiz-adv-x="1691" />
<glyph unicode="&#x2004;" horiz-adv-x="563" />
<glyph unicode="&#x2005;" horiz-adv-x="422" />
<glyph unicode="&#x2006;" horiz-adv-x="281" />
<glyph unicode="&#x2007;" horiz-adv-x="281" />
<glyph unicode="&#x2008;" horiz-adv-x="211" />
<glyph unicode="&#x2009;" horiz-adv-x="338" />
<glyph unicode="&#x200a;" horiz-adv-x="93" />
<glyph unicode="&#x2010;" horiz-adv-x="512" d="M36 354l50 190l389 -67l15 -93z" />
<glyph unicode="&#x2011;" horiz-adv-x="512" d="M36 354l50 190l389 -67l15 -93z" />
<glyph unicode="&#x2012;" horiz-adv-x="512" d="M36 354l50 190l389 -67l15 -93z" />
<glyph unicode="&#x2013;" horiz-adv-x="1082" d="M36 354l113 190l877 -67l34 -93z" />
<glyph unicode="&#x2014;" horiz-adv-x="2106" d="M36 354l226 190l1754 -67l68 -93z" />
<glyph unicode="&#x201c;" horiz-adv-x="552" d="M45 1039l414 333l59 -215l-366 -221z" />
<glyph unicode="&#x201d;" horiz-adv-x="552" d="M45 1039l414 333l59 -215l-366 -221z" />
<glyph unicode="&#x202f;" horiz-adv-x="338" />
<glyph unicode="&#x205f;" horiz-adv-x="422" />
<glyph unicode="&#x25fc;" horiz-adv-x="770" d="M0 0v770h770v-770h-770z" />
</font>
</defs>
</svg>
