<?xml version="1.0" standalone="no"?>
<!DOCTYPE svg PUBLIC "-//W3C//DTD SVG 1.1//EN" "http://www.w3.org/Graphics/SVG/1.1/DTD/svg11.dtd" >
<svg xmlns="http://www.w3.org/2000/svg" xmlns:xlink="http://www.w3.org/1999/xlink" version="1.1">
<metadata></metadata>
<defs>
<font id="djadli_tachkiliregular" horiz-adv-x="0" >
<font-face units-per-em="2048" ascent="1400" descent="-648" />
<missing-glyph horiz-adv-x="225" />
<glyph unicode="&#xfedf;&#xfee0;&#xfeea;" horiz-adv-x="1757" arabic-form="isolated" d="M1150 1567l-257 -30l-135 -32l-11 96l381 45zM790 1420l85 10l-12 -83l62 72h47l87 -64l-87 115l77 28l116 -166l-72 -59l-146 54l-79 -86l-95 33zM575 421l-340 -86l64 -81h229zM709 0l-217 -103l15 104h-338l-169 318l129 201l473 171l113 23l102 -251l-47 -209l109 1 h99l-122 802l223 148l135 -251l-81 -49l116 -650h100l101 18l-123 724l-40 74l247 205l126 -296l-62 -55q37 -196 69 -386t71 -382l-123 -157h-455l-52 41l-39 -41h-360z" />
<glyph unicode="&#xfedf;&#xfe82;" horiz-adv-x="933" arabic-form="isolated" d="M216 1000l325 -678l-166 -85l12 -31l224 -15l-104 687l-57 122l214 201l173 -247l-87 -95l141 -686l-112 -172l-605 -23l-77 230l161 70l-240 635zM196 1367l188 -67l100 45l71 -146l-152 -47l-164 44l-274 -130l-17 143z" />
<glyph unicode="&#xfee0;&#xfe82;" horiz-adv-x="933" arabic-form="final" d="M196 1367l188 -67l100 45l71 -146l-152 -47l-164 44l-274 -130l-17 143zM936 254v-254h-75l-38 61l-42 -62l-605 -23l-76 230l160 70l-239 635l197 87l325 -678l-165 -84l12 -32l223 -15l-103 687l-57 122l213 201v-1l174 -246l-88 -95l121 -603h63z" />
<glyph unicode="&#xfedf;&#xfe84;" horiz-adv-x="933" arabic-form="isolated" d="M216 1000l325 -678l-166 -85l12 -31l224 -15l-104 687l-57 122l214 201l173 -247l-87 -95l141 -686l-112 -172l-605 -23l-77 230l161 70l-240 635zM388 1206l-61 -99l-246 -45l-70 141l149 -9l-184 104l69 173l276 26l35 -197l-131 40z" />
<glyph unicode="&#xfee0;&#xfe84;" horiz-adv-x="933" arabic-form="final" d="M388 1206l-61 -99l-246 -45l-70 141l149 -9l-184 104l69 173l276 26l35 -197l-131 40zM936 254v-254h-75l-38 61l-42 -62l-605 -23l-76 230l160 70l-239 635l197 87l325 -678l-165 -84l12 -32l223 -15l-103 687l-57 122l213 201v-1l174 -246l-88 -95l121 -603h63z" />
<glyph unicode="&#xfedf;&#xfe88;" horiz-adv-x="933" arabic-form="isolated" d="M216 1000l325 -678l-166 -85l12 -31l224 -15l-104 687l-57 122l214 201l173 -247l-87 -95l141 -686l-112 -172l-605 -23l-77 230l161 70l-240 635zM542 -394l-60 -98l-246 -45l-71 141l149 -9l-183 104l57 226l287 -27l35 -197l-130 40z" />
<glyph unicode="&#xfee0;&#xfe88;" horiz-adv-x="933" arabic-form="final" d="M542 -394l-60 -98l-246 -45l-71 141l149 -9l-183 104l57 226l287 -27l35 -197l-130 40zM936 254v-254h-75l-38 61l-42 -62l-605 -23l-76 230l160 70l-239 635l197 87l325 -678l-165 -84l12 -32l223 -15l-103 687l-57 122l213 201v-1l174 -246l-88 -95l121 -603h63z" />
<glyph unicode="&#xfedf;&#xfe8e;" horiz-adv-x="933" arabic-form="isolated" d="M216 1000l325 -678l-166 -85l12 -31l224 -15l-104 687l-57 122l214 201l173 -247l-87 -95l141 -686l-112 -172l-605 -23l-77 230l161 70l-240 635z" />
<glyph unicode="&#xfee0;&#xfe8e;" horiz-adv-x="933" arabic-form="final" d="M936 254v-254h-75l-38 61l-42 -62l-605 -23l-76 230l160 70l-239 635l197 87l325 -678l-165 -84l12 -32l223 -15l-103 687l-57 122l213 201v-1l174 -246l-88 -95l121 -603h63z" />
<glyph unicode="&#xfe70;" arabic-form="isolated" d="M185 300l-256 -30l-99 -28l-3 83l338 40zM201 165l-257 -30l-135 -32l-11 96l381 45z" />
<glyph unicode="&#xfe74;" arabic-form="isolated" d="M185 -144l-256 -30l-99 -28l-3 83l338 40zM201 -279l-257 -30l-135 -32l-11 96l381 45z" />
<glyph unicode="&#xfe76;" arabic-form="isolated" d="M201 165l-257 -30l-135 -32l-11 96l381 45z" />
<glyph unicode="&#xfe78;" arabic-form="isolated" d="M77 307l-85 26l9 -99zM130 346l-25 -209l-208 -35l-25 37l141 33l26 18l-89 6l-57 146l113 78z" />
<glyph unicode="&#xfe7a;" arabic-form="isolated" d="M184 -144l-256 -30l-98 -28l-4 83l339 40z" />
<glyph unicode="&#xfe7c;" arabic-form="isolated" d="M-158 304l84 10l-12 -83l62 72h47l88 -64l-88 115l77 28l116 -166l-72 -59l-146 54l-79 -86l-95 33z" />
<glyph unicode="&#xfe7e;" arabic-form="isolated" d="M-72 221l77 -37l69 80l-151 46zM-129 214l8 129l140 43l116 -79l-40 -147l-99 -36z" />
<glyph unicode="&#x621;" horiz-adv-x="801" arabic-form="isolated" d="M721 283l-126 -192l-389 -88l-80 254l156 -47l108 41l-307 186l92 265l479 10l-31 -239l-159 -18z" />
<glyph unicode="&#x622;" horiz-adv-x="469" arabic-form="isolated" d="M447 143l-251 -153l-178 1038l212 172l135 -329l-58 -41zM40 1478l196 -75l101 36l79 -143l-153 -35l-170 51l-273 -106l-25 137z" />
<glyph unicode="&#x622;" horiz-adv-x="546" arabic-form="final" d="M163 1511l169 -106l108 23l38 -158l-159 -14l-151 78l-295 -67l14 143zM549 254v-254h-327v1l-3 -2l-130 885l-80 15l29 262l243 10l170 -917h98z" />
<glyph unicode="&#x623;" horiz-adv-x="469" arabic-form="isolated" d="M307 830l140 -687l-251 -153l-178 1038l212 172l135 -329zM280 1386l-61 -98l-246 -45l-71 140l150 -9l-184 104l69 173l275 27l36 -197l-131 40z" />
<glyph unicode="&#x623;" horiz-adv-x="546" arabic-form="final" d="M549 254v-254h-327v1l-3 -2l-130 885l-80 15l29 262l243 10l170 -917h98zM276 1384l-60 -98l-282 -45l-35 140l149 -9l-183 104l69 149l275 51l35 -197l-130 40z" />
<glyph unicode="&#x624;" horiz-adv-x="790" arabic-form="isolated" d="M434 218l-78 149l-102 -162l94 -59zM710 97l-134 -429l-204 -152l-265 87l-27 130l177 190l53 -153l137 34l38 142l-324 25l-138 163l88 301l320 220l190 -328l152 -121zM418 762l-96 -148l-288 -30l-40 153l104 8l70 6l-201 155l52 178l328 -6l-23 -160l-81 -11z" />
<glyph unicode="&#x624;" horiz-adv-x="729" arabic-form="final" d="M465 932l-96 -119l-288 -70l-40 124l104 8l70 6l-201 155l52 151l328 -6l-23 -133l-81 -11zM468 254l-112 113l-102 -113h214zM732 254v-254h-31l-105 -226l-340 -112l-257 186l300 12l186 139h-53l-271 -28l-189 259l183 395l276 126l276 -497h25z" />
<glyph unicode="&#x625;" horiz-adv-x="469" arabic-form="isolated" d="M447 143l-251 -153l-178 1038l212 172l135 -329l-58 -41zM435 -342l-61 -98l-246 -46l-71 141l149 -9l-183 104l57 227l287 -28l35 -196l-130 40z" />
<glyph unicode="&#x625;" horiz-adv-x="546" arabic-form="final" d="M549 254v-254h-327v1l-3 -2l-130 885l-80 15l29 262l243 10l170 -917h98zM431 -344l-60 -98l-246 -46l-71 141l149 -9l-183 104l57 227l287 -28l35 -196l-130 40z" />
<glyph unicode="&#x626;" horiz-adv-x="1394" arabic-form="isolated" d="M554 747l-50 -83l-138 -21l-100 -18l22 65l17 44l57 3l-155 88l58 125l233 43l52 -112l-133 -20zM678 -299l-179 -117l-150 189l178 169zM982 -181l-129 -228l-190 154l141 183zM918 935h2l414 -259l-119 -318l-238 183l66 80l-66 31l-169 -172l558 -199l-60 -283l-4 2 l-1147 -17l-155 236l181 388l259 -184l-172 -183l445 14l329 -101l-439 184l-127 246l441 353z" />
<glyph unicode="&#x626;" horiz-adv-x="1433" arabic-form="final" d="M576 719l-51 -83l-238 -38l-26 105l123 6l-155 88l58 126l233 42l-29 -125l-52 -7zM584 -320l-214 -94l-107 202l170 134zM906 -255l-163 -168l-174 148l141 182zM-4 217l181 388l259 -184l-172 -183l342 14l200 -101l-207 184l-127 246l442 250l235 -105l218 -472h69 l-51 -254l-83 50l-329 497l-169 -69l326 -199l-60 -278l-4 2l-914 -22z" />
<glyph unicode="&#x626;" horiz-adv-x="464" arabic-form="initial" d="M-3 0v254h176l-112 409l312 -62l59 -438l-145 -163h-290zM432 834l-61 -99l-246 -45l-70 141l149 -9l-184 104l69 173l276 26l35 -197l-131 40z" />
<glyph unicode="&#x626;" horiz-adv-x="521" arabic-form="medial" d="M-3 0v254h115l63 43l-124 290l260 93l136 -426h77v-254h-145l-66 52l-39 -52h-277zM432 834l-61 -99l-246 -45l-70 141l149 -9l-184 104l69 173l276 26l35 -197l-131 40z" />
<glyph unicode="&#x627;" horiz-adv-x="469" arabic-form="isolated" d="M447 143l-251 -153l-178 1038l212 172l135 -329l-58 -41z" />
<glyph unicode="&#x627;" horiz-adv-x="546" arabic-form="final" d="M549 254v-254h-327v1l-3 -2l-130 885l-80 15l29 262l243 10l170 -917h98z" />
<glyph unicode="&#x628;" horiz-adv-x="1474" arabic-form="isolated" d="M686 -23l-641 23l-66 254h1l151 404l259 -114l-84 -290h429l148 20l208 -20l-61 386l311 -62l112 -438l-194 -135zM724 -480l-180 143l113 227l228 -113z" />
<glyph unicode="&#x628;" horiz-adv-x="1528" arabic-form="final" d="M1531 254v-254l-210 -1l-60 64l-50 -72l-470 -30l-55 30l-478 9l-3 -4l-6 4h-8v5l-194 135l85 438l312 62l-35 -386l784 38l-84 252l260 114l151 -404h61zM470 -223l228 113l112 -227l-179 -143z" />
<glyph unicode="&#x628;" horiz-adv-x="464" arabic-form="initial" d="M-3 0v254h176l-112 409l312 -62l59 -438l-145 -163h-290zM157 -71l248 54l54 -248l-209 -94z" />
<glyph unicode="&#x628;" horiz-adv-x="521" arabic-form="medial" d="M-3 254h115l63 43l-124 290l260 93l136 -426h77v-254h-145l-66 52l-39 -52h-277v254zM311 -424l-179 142l112 228l228 -113z" />
<glyph unicode="&#x629;" horiz-adv-x="770" arabic-form="isolated" d="M511 885l-169 134l107 202l214 -94zM219 1214l134 -132l-91 -196l-203 114zM299 448l-41 -110l118 -116l113 250zM439 802l-52 -128l225 -27l138 -163l-195 -484l-315 -10l-246 360l223 510z" />
<glyph unicode="&#x629;" horiz-adv-x="824" arabic-form="final" d="M568 793l-168 134l106 214l214 -106zM827 0h-118l-238 -103l14 104h-316l-169 318l129 201l448 194l175 -215l-3 -245l78 1v-255zM533 421l-298 -86l64 -81h208zM274 793l-168 134l106 214l214 -106z" />
<glyph unicode="&#x62a;" horiz-adv-x="1474" arabic-form="isolated" d="M1259 5l-573 -28l-641 23l-66 254h1l151 404l259 -114l-84 -290h429l148 20l208 -20l-61 386l311 -62l112 -438zM409 860l204 114l90 -196l-192 -139zM667 886l214 106l106 -214l-169 -134z" />
<glyph unicode="&#x62a;" horiz-adv-x="1528" arabic-form="final" d="M1531 254v-254l-210 -1l-60 64l-50 -72l-470 -30l-55 30l-478 9l-3 -4l-6 4h-8v5l-194 135l85 438l312 62l-35 -386l784 38l-84 252l260 114l151 -404h61zM960 728l-193 139l91 196l204 -114zM652 733l-168 134l106 214l214 -106z" />
<glyph unicode="&#x62a;" horiz-adv-x="464" arabic-form="initial" d="M375 738l-192 138l90 196l204 -114zM68 743l-169 133l106 215l214 -107zM-3 0v254h176l-112 409l312 -62l59 -438l-145 -163h-290z" />
<glyph unicode="&#x62a;" horiz-adv-x="521" arabic-form="medial" d="M-48 931l204 114l90 -196l-192 -139zM210 957l214 106l106 -214l-169 -134zM-3 0v254h115l63 43l-124 290l260 93l136 -426h77v-254h-145l-66 52l-39 -52h-277z" />
<glyph unicode="&#x62b;" horiz-adv-x="1474" arabic-form="isolated" d="M409 860l204 114l90 -196l-192 -139zM1014 756l-217 -99l-100 217l173 129zM880 1032l-209 -115l-116 208l220 131zM1259 5l-573 -28l-641 23l-66 254h1l151 404l259 -114l-84 -290h429l148 20l208 -20l-61 386l311 -62l112 -438z" />
<glyph unicode="&#x62b;" horiz-adv-x="1528" arabic-form="final" d="M488 830l204 114l90 -196l-192 -139zM1093 726l-217 -99l-100 217l173 129zM959 1002l-209 -115l-116 208l220 131zM1531 254v-254l-210 -1l-60 64l-50 -72l-470 -30l-55 30l-478 9l-3 -4l-6 4h-8v5l-194 135l85 438l312 62l-35 -386l784 38l-84 252l260 114l151 -404h61 z" />
<glyph unicode="&#x62b;" horiz-adv-x="464" arabic-form="initial" d="M-86 942l204 114l90 -196l-192 -139zM519 838l-217 -99l-100 217l173 129zM385 1114l-209 -115l-116 208l220 131zM-3 0v254h176l-112 409l312 -62l59 -438l-145 -163h-290z" />
<glyph unicode="&#x62b;" horiz-adv-x="521" arabic-form="medial" d="M-86 926l204 114l90 -196l-192 -139zM519 822l-217 -99l-100 217l173 129zM385 1098l-209 -115l-116 208l220 131zM-3 0v254h115l63 43l-124 290l260 93l136 -426h77v-254h-145l-66 52l-39 -52h-277z" />
<glyph unicode="&#x62c;" horiz-adv-x="967" arabic-form="isolated" d="M329 158l238 18l19 -238l-206 -61zM619 573l-321 147l50 -108l-310 -89l-16 310l243 196l682 -448l-145 -229l-506 -128l-106 -302l399 -140l79 361l234 -166l-86 -293l-281 -157l-614 253l149 681z" />
<glyph unicode="&#x62c;" horiz-adv-x="1014" arabic-form="final" d="M575 168l-139 -225l-157 125l114 155zM1017 254v-254h-227l-296 254l-196 -30l-63 -289l287 -18l40 173l201 -173l-191 -292l-574 155l-12 441l91 195l632 101l-398 219l157 -174l-243 -79l-162 237l175 257l736 -305l-89 -368l-119 -21l113 -29h138z" />
<glyph unicode="&#x62c;" horiz-adv-x="1024" arabic-form="initial" d="M700 317l-346 166l87 -134l-306 -5l-50 249l82 256l838 -423l-116 -354l-614 -72h-278l1 255h161zM277 -118l255 128l74 -202l-201 -127z" />
<glyph unicode="&#x62c;" horiz-adv-x="961" arabic-form="medial" d="M964 254v-254h-339l-75 105l-493 -105h-60l1 254h58l488 132l-310 187l131 -135l-255 -118l-84 185l82 395l565 -298l276 5l-96 -303l-163 -50h274zM650 -232l-214 -106l-106 214l168 134z" />
<glyph unicode="&#x62d;" horiz-adv-x="967" arabic-form="isolated" d="M619 573l-321 147l50 -108l-310 -89l-16 310l243 196l682 -448l-145 -229l-506 -128l-106 -302l399 -140l79 361l234 -166l-86 -293l-281 -157l-614 253l149 681z" />
<glyph unicode="&#x62d;" horiz-adv-x="1014" arabic-form="final" d="M1017 254v-254h-227l-296 254l-196 -30l-63 -289l287 -18l40 173l201 -173l-191 -292l-574 155l-12 441l91 195l632 101l-398 219l157 -174l-243 -79l-162 237l175 257l736 -305l-89 -368l-119 -21l113 -29h138z" />
<glyph unicode="&#x62d;" horiz-adv-x="1024" arabic-form="initial" d="M700 317l-346 166l87 -134l-306 -5l-50 249l82 256l838 -423l-116 -354l-614 -72h-278l1 255h161z" />
<glyph unicode="&#x62d;" horiz-adv-x="961" arabic-form="medial" d="M964 254v-254h-339l-75 105l-493 -105h-60l1 254h58l488 132l-310 187l131 -135l-255 -118l-84 185l82 395l565 -298l276 5l-96 -303l-163 -50h274z" />
<glyph unicode="&#x62e;" horiz-adv-x="967" arabic-form="isolated" d="M764 970l-211 -42l-94 221l219 93zM619 573l-321 147l50 -108l-310 -89l-16 310l243 196l682 -448l-145 -229l-506 -128l-106 -302l399 -140l79 361l234 -166l-86 -293l-281 -157l-614 253l149 681z" />
<glyph unicode="&#x62e;" horiz-adv-x="1014" arabic-form="final" d="M1017 254v-254h-227l-296 254l-196 -30l-63 -289l287 -18l40 173l201 -173l-191 -292l-574 155l-12 441l91 195l632 101l-398 219l157 -174l-243 -79l-162 237l175 257l736 -305l-89 -368l-119 -21l113 -29h138zM795 1059l-214 -107l-106 214l169 134z" />
<glyph unicode="&#x62e;" horiz-adv-x="1024" arabic-form="initial" d="M700 317l-346 166l87 -134l-306 -5l-50 249l82 256l838 -423l-116 -354l-614 -72h-278l1 255h161zM450 833l151 241l169 -134l-106 -214z" />
<glyph unicode="&#x62e;" horiz-adv-x="961" arabic-form="medial" d="M964 254v-254h-339l-75 105l-493 -105h-60l1 254h58l488 132l-310 187l131 -135l-255 -118l-84 185l82 395l565 -298l276 5l-96 -303l-163 -50h274zM340 1039l214 106l106 -214l-169 -134z" />
<glyph unicode="&#x62f;" horiz-adv-x="1080" arabic-form="isolated" d="M169 0v5l-169 187l189 257l260 -145l-87 -50h320l-323 358l140 347l561 -705v-1l-128 -253h-746l-3 -4l-6 4h-8z" />
<glyph unicode="&#x62f;" horiz-adv-x="1184" arabic-form="final" d="M1187 254v-254h-157l-46 40l-77 -40h-722l-3 -4l-6 4h-8v5l-168 213l188 231l260 -145l-35 -50h346l-393 365l156 324l578 -689h87z" />
<glyph unicode="&#x630;" horiz-adv-x="1080" arabic-form="isolated" d="M169 0v5l-169 187l189 257l260 -145l-87 -50h320l-323 358l140 347l561 -705v-1l-128 -253h-746l-3 -4l-6 4h-8zM514 1377l138 -195l-157 -154l-196 163z" />
<glyph unicode="&#x630;" horiz-adv-x="1184" arabic-form="final" d="M331 1209l164 202l194 -139l-138 -194zM1187 254v-254h-157l-46 40l-77 -40h-722l-3 -4l-6 4h-8v5l-168 213l188 231l260 -145l-35 -50h346l-393 365l156 324l578 -689h87z" />
<glyph unicode="&#x631;" horiz-adv-x="564" arabic-form="isolated" d="M308 587l236 -460l-277 -472l-264 87l-55 233l228 -67l136 175l-185 247z" />
<glyph unicode="&#x631;" horiz-adv-x="498" arabic-form="final" d="M501 254v-254h-54l54 -218l-263 -247l-244 50l-5 254l194 -97l89 73l-202 392l153 300l112 -220l62 -33h104z" />
<glyph unicode="&#x632;" horiz-adv-x="564" arabic-form="isolated" d="M308 587l236 -460l-277 -472l-264 87l-55 233l228 -67l136 175l-185 247zM112 901l214 106l106 -214l-169 -134z" />
<glyph unicode="&#x632;" horiz-adv-x="498" arabic-form="final" d="M501 254v-254h-54l54 -218l-263 -247l-244 50l-5 254l194 -97l89 73l-202 392l153 300l112 -220l62 -33h104zM27 685l151 242l169 -134l-106 -214z" />
<glyph unicode="&#x633;" horiz-adv-x="1796" arabic-form="isolated" d="M1023 679l-30 -300l121 123l154 12l237 -251l-193 404l304 -73l160 -453l-253 -202l-382 279l-215 -310l-231 125l29 310l-40 -139l-220 -335l-502 197l24 503l192 92l276 -6l-85 -252l-126 35l-77 -162l208 -141l418 488z" />
<glyph unicode="&#x633;" horiz-adv-x="1886" arabic-form="final" d="M1889 254v-254h-119l-19 47l-135 -108l-382 279l-216 -310l-230 125l29 310l-26 -117l-234 -357l-503 197l-54 477l193 93l276 -6l-85 -253l-125 35v-136l207 -141l418 488l232 56l-30 -300l120 123l155 12l237 -248l-194 427l304 -74l125 -365h56z" />
<glyph unicode="&#x633;" horiz-adv-x="1305" arabic-form="initial" d="M-3 0v254h44l251 332l6 36l245 -11l-42 -232l138 171l154 -36l220 -175l-194 354l304 -74l161 -478l-253 -202l-340 305l-258 -336l-232 125l58 311l-68 -219l-117 -126l-2 1h-75z" />
<glyph unicode="&#x633;" horiz-adv-x="1293" arabic-form="medial" d="M1296 254v-254h-119l-75 176l35 -146l-114 -91l-382 279l-216 -310l-231 125l37 216l-42 -117l-124 -133l-1 1h-74v254h43l251 332l6 36l245 -11l-43 -232l121 123l155 12l236 -175l-193 328l304 -73l128 -340h53z" />
<glyph unicode="&#x634;" horiz-adv-x="1796" arabic-form="isolated" d="M1023 679l-30 -300l121 123l154 12l237 -251l-193 404l304 -73l160 -453l-253 -202l-382 279l-215 -310l-231 125l29 310l-40 -139l-220 -335l-502 197l24 503l192 92l276 -6l-85 -252l-126 35l-77 -162l208 -141l418 488zM1376 711l-192 139l90 196l204 -114zM1069 716 l-169 134l106 214l214 -106zM1157 1367l184 -177l-159 -178l-178 160z" />
<glyph unicode="&#x634;" horiz-adv-x="1886" arabic-form="final" d="M948 942l204 114l90 -196l-192 -139zM1553 838l-217 -99l-100 217l173 129zM1419 1114l-209 -115l-116 208l220 131zM1889 254v-254h-119l-19 47l-135 -108l-382 279l-216 -310l-230 125l29 310l-26 -117l-234 -357l-503 197l-54 477l193 93l276 -6l-85 -253l-125 35 v-136l207 -141l418 488l232 56l-30 -300l120 123l155 12l237 -248l-194 427l304 -74l125 -365h56z" />
<glyph unicode="&#x634;" horiz-adv-x="1305" arabic-form="initial" d="M385 927l204 114l90 -196l-192 -139zM990 823l-217 -99l-100 217l173 129zM856 1099l-209 -115l-116 208l220 131zM-3 0v254h44l251 332l6 36l245 -11l-42 -232l138 171l154 -36l220 -175l-194 354l304 -74l161 -478l-253 -202l-340 305l-258 -336l-232 125l58 311 l-68 -219l-117 -126l-2 1h-75z" />
<glyph unicode="&#x634;" horiz-adv-x="1300" arabic-form="medial" d="M385 942l204 114l90 -196l-192 -139zM990 838l-217 -99l-100 217l173 129zM856 1114l-209 -115l-116 208l220 131zM1303 254v-254h-119l-75 176l35 -146l-114 -91l-382 279l-216 -310l-231 125l37 216l-42 -117l-124 -133l-1 1h-74v254h43l251 332l6 36l245 -11l-43 -232 l121 123l155 12l236 -175l-193 328l304 -73l128 -340h53z" />
<glyph unicode="&#x635;" horiz-adv-x="1761" arabic-form="isolated" d="M1441 254l61 104l-454 92l55 -196h338zM61 485l283 16l-54 -424l365 41l-175 254h275l69 -53l-75 173l162 257q183 -45 356.5 -89.5t357.5 -86.5l116 -219l-161 -361l-404 45l41 -150l-251 61l-53 159l19 -100l-111 -146l-731 -52l-99 251zM480 372h-2l-1 5z" />
<glyph unicode="&#x635;" horiz-adv-x="1747" arabic-form="final" d="M1440 254l52 113l-454 92l63 -205h339zM1750 254v-254l-359 1l-211 33l28 -137l-285 76l-44 116l15 -124l-83 -94l-731 -52l-99 251l71 424l283 16l-55 -424l365 41l-96 208l197 -6l69 -53l-65 242l171 244q431 -116 685 -166l129 -201l-67 -141h82z" />
<glyph unicode="&#x635;" horiz-adv-x="1259" arabic-form="initial" d="M585 251l280 -1l109 134l-465 66zM-3 0v254l49 2l-22 53l210 27l21 -82h59l-110 262l131 248l786 -203l117 -189l-186 -372l-359 4l-80 125l58 -133l-18 -108l-247 109l-6 17l-129 -14h-274z" />
<glyph unicode="&#x635;" horiz-adv-x="1310" arabic-form="medial" d="M556 285l307 -31l65 111l-421 111zM1313 254v-255l-653 1l-45 70l61 -182l-298 109l-1 3h-380v254h20l-17 158l217 -55l10 -103h67l-92 286l133 228l796 -141l139 -190l-108 -183h151z" />
<glyph unicode="&#x636;" horiz-adv-x="1761" arabic-form="isolated" d="M1103 254h338l61 104l-454 92zM-9 61l70 424l283 16l-54 -424l365 41l-175 254h275l69 -53l-75 173l162 257q183 -45 356.5 -89.5t357.5 -86.5l116 -219l-161 -361l-404 45l41 -150l-251 61l-53 159l19 -100l-111 -146l-731 -52zM1113 980l214 106l106 -214l-169 -134z M480 372h-2l-1 5z" />
<glyph unicode="&#x636;" horiz-adv-x="1747" arabic-form="final" d="M1101 254h339l52 113l-454 92zM1750 254v-254l-359 1l-211 33l28 -137l-285 76l-44 116l15 -124l-83 -94l-731 -52l-99 251l71 424l283 16l-55 -424l365 41l-96 208l197 -6l69 -53l-65 242l171 244q431 -116 685 -166l129 -201l-67 -141h82zM1103 989l214 106l106 -214 l-169 -134z" />
<glyph unicode="&#x636;" horiz-adv-x="1259" arabic-form="initial" d="M585 251l280 -1l109 134l-465 66zM-3 0v254l49 2l-22 53l210 27l21 -82h59l-110 262l131 248l786 -203l117 -189l-186 -372l-359 4l-80 125l58 -133l-18 -108l-247 109l-6 17l-129 -14h-274zM825 1010l37 -236l-235 -37l-77 201z" />
<glyph unicode="&#x636;" horiz-adv-x="1310" arabic-form="medial" d="M556 285l307 -31l65 111l-421 111zM1313 254v-255l-653 1l-45 70l61 -182l-298 109l-1 3h-380v254h20l-17 158l217 -55l10 -103h67l-92 286l133 228l796 -141l139 -190l-108 -183h151zM826 759l-265 107l101 190l230 -67z" />
<glyph unicode="&#x637;" horiz-adv-x="1166" arabic-form="isolated" d="M110 527l125 251l116 -23l-80 448l204 55l138 -510l-75 -31l479 -95l129 -201l-200 -382l-375 -31l-18 -110l-260 128l-5 -78l-201 52l-97 311l224 -57zM530 257l286 32l95 148l-476 48l113 -314z" />
<glyph unicode="&#x637;" horiz-adv-x="1126" arabic-form="final" d="M444 251l354 38l76 162l-542 42l135 -332zM1129 254v-254h-143l-57 52l-28 -52h-380l-13 -77l-173 77h-87l-4 -52l-217 52l-26 306l168 -52h16l-94 273l99 251l115 -19l-93 535l218 -92l137 -454l-57 -24l471 -81l126 -184l-85 -183l38 -22h69z" />
<glyph unicode="&#x637;" horiz-adv-x="1038" arabic-form="initial" d="M307 485l86 -231l25 -100l-12 100h246l93 138zM-3 0v254h131l-94 282l99 252l121 -19l-99 525l219 45l130 -541l-102 -65l483 -126l133 -203l-244 -404h-311l-12 -77l-173 77h-281z" />
<glyph unicode="&#x637;" horiz-adv-x="1083" arabic-form="medial" d="M313 511l101 -215l42 -172l-16 130h230l112 205zM1086 0h-238l-34 63l-42 -63h-277l-12 -77l-173 77h-313v254h163l-94 273l99 251l115 -19l-93 535h218l130 -496l-101 -65l143 -24h1l343 -61l155 -175l-132 -218l142 -1v-254z" />
<glyph unicode="&#x638;" horiz-adv-x="1166" arabic-form="isolated" d="M110 527l125 251l116 -23l-80 448l204 55l138 -510l-75 -31l479 -95l129 -201l-200 -382l-375 -31l-18 -110l-260 128l-5 -78l-201 52l-97 311l224 -57zM530 257l286 32l95 148l-476 48l113 -314zM640 987l215 106l106 -214l-169 -134z" />
<glyph unicode="&#x638;" horiz-adv-x="1126" arabic-form="final" d="M444 251l354 38l76 162l-542 42l135 -332zM1129 254v-254h-143l-57 52l-28 -52h-380l-13 -77l-173 77h-87l-4 -52l-217 52l-26 306l168 -52h16l-94 273l99 251l115 -19l-93 535l218 -92l137 -454l-57 -24l471 -81l126 -184l-85 -183l38 -22h69zM596 987l214 106l106 -214 l-169 -134z" />
<glyph unicode="&#x638;" horiz-adv-x="1038" arabic-form="initial" d="M307 485l86 -231l25 -100l-12 100h246l93 138zM-3 0v254h131l-94 282l99 252l121 -19l-99 525l219 45l130 -541l-102 -65l483 -126l133 -203l-244 -404h-311l-12 -77l-173 77h-281zM539 852l151 241l169 -134l-106 -214z" />
<glyph unicode="&#x638;" horiz-adv-x="1083" arabic-form="medial" d="M313 511l101 -215l42 -172l-16 130h230l112 205zM1086 0h-238l-34 63l-42 -63h-277l-12 -77l-173 77h-313v254h163l-94 273l99 251l115 -19l-93 535h218l130 -496l-101 -65l143 -24h1l343 -61l155 -175l-132 -218l142 -1v-254zM597 987l214 106l106 -214l-169 -134z" />
<glyph unicode="&#x639;" horiz-adv-x="1056" arabic-form="isolated" d="M328 253l-167 292l165 276l546 1l55 -279l-236 -208l-33 181h-197l152 -244l395 34l-97 -305l-332 -1l-247 -76l100 -212l277 25l17 168l310 -139l-57 -231l-715 -23l-264 605z" />
<glyph unicode="&#x639;" horiz-adv-x="980" arabic-form="final" d="M417 371l131 -97l108 118q-32 -4 -60 -5q-114 -4 -179 -16zM983 254v-254h-406l-246 -1l-2 -1l101 -299l185 23l5 58l259 50l-56 -308l-561 -23l-255 553l286 119l-140 215l-22 229l716 57l109 -255l-145 -163h172z" />
<glyph unicode="&#x639;" horiz-adv-x="1058" arabic-form="initial" d="M-3 0v254h238l-189 257l14 225l745 104l157 -271l-314 -131l-32 78h-198l152 -244l228 -1l239 51l-129 -374l-505 52h-406z" />
<glyph unicode="&#x639;" horiz-adv-x="947" arabic-form="medial" d="M337 371l131 -97l109 118zM950 254v-254h-953v254h179l-103 107l-22 254q507 50 718 69l159 -267l-158 -163h180z" />
<glyph unicode="&#x63a;" horiz-adv-x="1056" arabic-form="isolated" d="M328 253l-167 292l165 276l546 1l55 -279l-236 -208l-33 181h-197l152 -244l395 34l-97 -305l-332 -1l-247 -76l100 -212l277 25l17 168l310 -139l-57 -231l-715 -23l-264 605zM609 1132l-50 -234l-233 50v215z" />
<glyph unicode="&#x63a;" horiz-adv-x="980" arabic-form="final" d="M417 371l131 -97l108 118q-32 -4 -60 -5q-114 -4 -179 -16zM983 254v-254h-406l-246 -1l-2 -1l101 -299l185 23l5 58l259 50l-56 -308l-561 -23l-255 553l286 119l-140 215l-22 229l716 57l109 -255l-145 -163h172zM393 961l214 106l106 -214l-169 -134z" />
<glyph unicode="&#x63a;" horiz-adv-x="1058" arabic-form="initial" d="M-3 0v254h238l-189 257l14 225l745 104l157 -271l-314 -131l-32 78h-198l152 -244l228 -1l239 51l-129 -374l-505 52h-406zM231 1132l283 31l1 -215l-234 -50z" />
<glyph unicode="&#x63a;" horiz-adv-x="947" arabic-form="medial" d="M337 371l131 -97l109 118zM950 254v-254h-953v254h179l-103 107l-22 254q507 50 718 69l159 -267l-158 -163h180zM439 1067l169 -134l-106 -214l-214 107z" />
<glyph unicode="&#x641;" horiz-adv-x="1215" arabic-form="isolated" d="M878 238l123 117l-145 114l-89 -99zM657 0l-572 19l-85 402l131 247l239 14l91 -252l-201 9l2 -191l352 -27l-62 303l338 220l285 -251l20 -259l-173 -234h-365zM712 1016zM712 1016l214 108l106 -214l-169 -134z" />
<glyph unicode="&#x641;" horiz-adv-x="1373" arabic-form="final" d="M912 1208l169 -134l-106 -214l-213 132zM908 317l156 91l-139 128l-76 -140zM1376 254v-254h-505l-45 51l-219 -84h-494l-113 421l131 247l239 14l91 -251l-201 9l3 -192l409 27l-92 129l148 376l290 45l229 -298l33 -246l-125 -85l166 91h55z" />
<glyph unicode="&#x641;" horiz-adv-x="782" arabic-form="initial" d="M276 1080l213 132l106 -214l-169 -134zM501 469l-90 74l-132 -1l-12 -87l182 -94zM-3 0v254h170l170 -31l-121 40l-176 69l71 370l381 91l270 -401l-245 -392h-520z" />
<glyph unicode="&#x641;" horiz-adv-x="838" arabic-form="medial" d="M505 1181l77 -167l-215 -162l-115 243zM391 295l109 83l-103 134l-107 -92zM-3 0v254h103l-56 134l203 336l339 37l160 -262l-26 -195l-42 -141l44 91h119v-254h-421l-71 51l-237 -51h-115z" />
<glyph unicode="&#x642;" horiz-adv-x="1215" arabic-form="isolated" d="M878 238l123 117l-145 114l-89 -99zM657 0l-572 19l-85 402l131 247l239 14l91 -252l-201 9l2 -191l352 -27l-62 303l338 220l285 -251l20 -259l-173 -234h-365zM572 969l200 128l103 -178l-170 -145zM1115 815l-230 31l44 207l195 14z" />
<glyph unicode="&#x642;" horiz-adv-x="1373" arabic-form="final" d="M908 317l156 91l-139 128l-76 -140zM1376 254v-254h-505l-45 51l-219 -84h-494l-113 421l131 247l239 14l91 -251l-201 9l3 -192l409 27l-92 129l148 376l290 45l229 -298l33 -246l-125 -85l166 91h55zM625 944l151 241l169 -133l-106 -203zM1229 1071l-161 -215 l-134 133l91 196z" />
<glyph unicode="&#x642;" horiz-adv-x="782" arabic-form="initial" d="M501 469l-90 74l-132 -1l-12 -87l182 -94zM-3 0v254h170l170 -31l-121 40l-176 69l71 370l381 91l270 -401l-245 -392h-520zM674 1007l-196 -127l-137 183l146 158zM58 1038l184 144l120 -179l-112 -153z" />
<glyph unicode="&#x642;" horiz-adv-x="838" arabic-form="medial" d="M391 295l109 83l-103 134l-107 -92zM-3 0v254h103l-56 134l203 336l339 37l160 -262l-26 -195l-42 -141l44 91h119v-254h-421l-71 51l-237 -51h-115zM750 1106l-152 -242l-169 134l107 202zM146 979l160 214l134 -132l-91 -196z" />
<glyph unicode="&#x643;" horiz-adv-x="1157" arabic-form="isolated" d="M366 554l-51 -83l-238 -38l23 64l17 43l57 4l-104 139l59 126l254 -74l-18 -101l-136 34zM162 397l112 -157l531 -34l-225 364l-16 -7h-84l-155 356l586 314l226 -166l-195 -157l-17 73l-172 -154l301 -656l-115 -172l-863 -23l-76 230z" />
<glyph unicode="&#x643;" horiz-adv-x="1197" arabic-form="final" d="M1200 254v-254h-214l-65 49l-34 -50l-768 -23l-76 230l137 189l112 -157l435 36l-181 294l-16 -7h-84l-121 241l644 424l208 -265l-196 -157l-30 117l-232 -94l246 -559l59 -14h176zM303 521l-51 -83l-238 -38l39 108l83 3l-181 113l58 100l233 43l61 -124l-142 -8z" />
<glyph unicode="&#x643;" horiz-adv-x="986" arabic-form="initial" d="M-3 0v254h317l303 -101l-439 236l-127 245l655 436l227 -106l-195 -209l-17 70l-338 -293l584 -276l-111 -258l-5 2h-854z" />
<glyph unicode="&#x643;" horiz-adv-x="928" arabic-form="medial" d="M931 254v-254h-31l-105 51l-43 -53l-4 2h-751v254h213l330 -101l-388 210l-127 246l656 487l148 -158l-195 -209l-16 70l-261 -267l495 -278h79z" />
<glyph unicode="&#x644;" horiz-adv-x="971" arabic-form="isolated" d="M723 1351q142 -818 220 -1191l1 -2l-124 -155h-3l-170 -208l-530 234l-117 294l97 296l290 15l2 -214l-179 -135l399 -186l59 75l-136 825l-102 120z" />
<glyph unicode="&#x644;" horiz-adv-x="1103" arabic-form="final" d="M1106 254v-254h-149l-52 41l-218 -248l-621 205l-66 254h1l125 404l311 15l-8 -253l-77 35l-102 -201l399 -155l126 159l-121 799l222 148l135 -251l-81 -49l117 -649h59z" />
<glyph unicode="&#x644;" horiz-adv-x="498" arabic-form="initial" d="M-3 0v254h86l92 19l-123 724l-40 74l247 205l126 -296l-62 -55q37 -196 69 -386t71 -382l-123 -157h-343z" />
<glyph unicode="&#x644;" horiz-adv-x="521" arabic-form="medial" d="M524 255v-255h-189l-52 41l-39 -41h-247v255h156l-122 802l223 148l135 -251l-81 -49l116 -650h100z" />
<glyph unicode="&#x645;" horiz-adv-x="984" arabic-form="isolated" d="M563 254l103 16l51 102l-180 57zM877 0h-570l148 -316l57 -1l21 -195l-235 -146l-299 747l118 165h166l3 227l160 240l471 -152l32 -281z" />
<glyph unicode="&#x645;" horiz-adv-x="978" arabic-form="final" d="M563 254l103 16l51 102l-180 57zM981 254v-254h-674l148 -316l57 -1l21 -195l-235 -146l-299 747l118 165h166l3 227l160 240l471 -152l9 -315h55z" />
<glyph unicode="&#x645;" horiz-adv-x="778" arabic-form="initial" d="M480 254v141l-231 31l77 -172h154zM-3 254h49l-29 224l114 215l368 -54l261 -171l-153 -462h-163l-172 -124l-108 118h-167v254z" />
<glyph unicode="&#x645;" horiz-adv-x="835" arabic-form="medial" d="M507 263v135l-206 31l51 -166h155zM-3 263h124l-46 218l83 215l367 -54l223 -268l-33 -120h123v-254h-261l-111 -74l-276 77h-193v260z" />
<glyph unicode="&#x646;" horiz-adv-x="1166" arabic-form="isolated" d="M1023 0h-7l-7 -4l-522 -158l-421 162l-66 254l128 456l337 -37l-213 -419l321 -103l283 129l-113 411l286 -61l110 -271l-116 -354v-5zM549 657l-180 143l113 227l228 -113z" />
<glyph unicode="&#x646;" horiz-adv-x="1178" arabic-form="final" d="M1181 254v-254h-207l-469 -175l-297 135l-210 481l166 248l312 -101l-167 -154l158 -335l345 155l-84 290l260 114l151 -404h42zM458 915l250 42l42 -251l-213 -83z" />
<glyph unicode="&#x646;" horiz-adv-x="464" arabic-form="initial" d="M-3 0v254h176l-112 409l312 -62l59 -438l-145 -163h-290zM23 1021l249 49l49 -248l-211 -91z" />
<glyph unicode="&#x646;" horiz-adv-x="521" arabic-form="medial" d="M-3 254h115l63 43l-124 290l260 93l136 -426h77v-254h-145l-66 52l-39 -52h-277v254zM278 733l-180 143l113 227l228 -113z" />
<glyph unicode="&#x647;" horiz-adv-x="770" arabic-form="isolated" d="M299 448l-41 -110l118 -116l113 250zM439 802l-52 -128l225 -27l138 -163l-195 -484l-315 -10l-246 360l223 510z" />
<glyph unicode="&#x647;" horiz-adv-x="824" arabic-form="final" d="M827 0h-118l-238 -103l14 104h-316l-169 318l129 201l448 194l175 -215l-3 -245l78 1v-255zM533 421l-298 -86l64 -81h208z" />
<glyph unicode="&#x647;" horiz-adv-x="961" arabic-form="initial" d="M534 311l-104 106l3 -162zM-3 254h196l94 -53l-79 68l-61 267l120 140l-102 -90l-132 239l241 177l345 53l320 -420l-81 -402l-366 -233h-495v254zM569 687l127 -263l53 78l-266 353l-171 -152z" />
<glyph unicode="&#x647;" horiz-adv-x="1024" arabic-form="medial" d="M619 339l-98 77l-26 -108zM1028 254v-254h-433l-75 61l-153 -73l-370 12v254h274l-9 303l-41 -238l-217 179l8 190l306 314l189 53l476 -368l-4 -376l-151 -75l72 18h128zM510 696l266 -219l43 25l-319 324l-173 -146z" />
<glyph unicode="&#x648;" horiz-adv-x="818" arabic-form="isolated" d="M478 224l-86 165l-113 -178l103 -65zM782 91l-148 -401l-308 -154l-209 155l-30 144l196 65l3 -129l206 69l42 85l-385 12l-125 195l98 332l353 242z" />
<glyph unicode="&#x648;" horiz-adv-x="729" arabic-form="final" d="M468 254l-112 113l-102 -113h214zM732 254v-254h-31l-105 -226l-340 -112l-257 186l300 12l186 139h-53l-271 -28l-189 259l183 395l276 126l276 -497h25z" />
<glyph unicode="&#x649;" horiz-adv-x="1394" arabic-form="final" d="M-4 217l181 388l259 -184l-172 -183l342 14l200 -101l-207 184l-127 246l442 250v-2l1 1h1l233 -104l218 -472h69l-51 -254l-83 50l-329 497l-169 -69l326 -199l-60 -278l-4 2l-914 -22z" />
<glyph unicode="&#x64a;" horiz-adv-x="1394" arabic-form="isolated" d="M678 -299l-179 -117l-150 189l178 169zM982 -181l-129 -228l-190 154l141 183zM918 935h2l414 -259l-119 -318l-238 183l66 80l-66 31l-169 -172l558 -199l-60 -283l-4 2l-1147 -17l-155 236l181 388l259 -184l-172 -183l445 14l329 -101l-439 184l-127 246l441 353z" />
<glyph unicode="&#x64a;" horiz-adv-x="1433" arabic-form="final" d="M678 -299l-179 -117l-150 189l178 169zM920 -101l23 -261l-243 19l12 231zM1436 254v-254h-51l-83 50l-329 497l-169 -69l326 -199l-60 -278l-4 2l-914 -22l-156 236l181 388l259 -184l-172 -183l342 14l200 -101l-207 184l-127 246l442 250v-2l1 1h1l233 -104l218 -472 h69z" />
<glyph unicode="&#x64a;" horiz-adv-x="464" arabic-form="initial" d="M-3 0v254h176l-112 409l312 -62l59 -438l-145 -163h-290zM570 -246l-204 -114l-90 195l192 139zM312 -273l-214 -106l-106 214l169 134z" />
<glyph unicode="&#x64a;" horiz-adv-x="521" arabic-form="medial" d="M-3 254h115l63 43l-124 290l260 93l136 -426h77v-254h-145l-66 52l-39 -52h-277v254zM394 -43l169 -134l-106 -214l-214 106zM-10 -258l102 220l192 -139l-91 -195z" />
<glyph unicode="&#xd;" horiz-adv-x="682" />
<glyph unicode=" "  horiz-adv-x="225" />
<glyph unicode="&#x09;" horiz-adv-x="225" />
<glyph unicode="&#xa0;" horiz-adv-x="225" />
<glyph unicode="!" horiz-adv-x="532" d="M90 336l273 -44l5 -205l-99 -49l-195 121zM448 1030l-38 -684l-345 56l149 664z" />
<glyph unicode="&#x22;" horiz-adv-x="552" d="M459 1372l59 -215l-366 -221l-107 103z" />
<glyph unicode="#" horiz-adv-x="1459" d="M635 413l-82 -199l221 3l76 209zM793 808l-116 -293l124 -6l82 5l123 338l139 -11l-129 -318l353 32l-49 -137l-317 17l-24 -2l-89 -215l251 4l-43 -109l-206 5l-45 -3l-18 -42l-83 -305l-97 104l86 236l-232 -13l-9 -22l-100 -363l-80 162l92 218l-343 -17l103 152 l292 -12l32 75l35 119l-352 -17l137 143l249 -12l95 322z" />
<glyph unicode="$" horiz-adv-x="1127" d="M515 742l-101 17l83 -131zM657 435l38 289h-2l-88 9l-41 -212zM583 3l29 245l-86 64l-38 -217l-11 -102zM693 166l-18 -152h146zM868 1050l-34 -183l76 -73l54 -31l-51 -203l-115 120l-14 -72v-1l-49 -271l242 -247l-16 -158l-302 -68l-34 -313l-117 -6l46 297l-97 -22 l-29 -269l-75 129l18 121l-214 178l85 266l157 -258l63 416l-249 340l111 190l214 -27l23 157l100 -12l-28 -157l86 -11l36 239z" />
<glyph unicode="%" horiz-adv-x="711" d="M504 -48q-2 1 -33 24q-30 24 -47 36t-8 30q10 18 26 42t22 38t6 16t12 -8t33 -24q20 -14 36 -27q16 -12 7 -31q-8 -19 -33 -55q-25 -35 -21 -41zM209 594q-2 1 -33 25q-30 24 -47 36t-8 30q9 17 25 41t24 38q6 14 6 17q0 2 12 -8q12 -11 32 -25t36 -26t7 -31 q-8 -19 -33 -55t-21 -42zM354 892l88 -188q-4 -34 -8 -86t-12 -116q-6 -62 -16 -132t-22 -140q-63 -348 -182 -409z" />
<glyph unicode="&#x26;" horiz-adv-x="1201" d="M282 284q0 -179 198 -179q78 0 138 30l-152 177q-75 88 -106 142q-78 -43 -78 -170zM452 -157q-198 -1 -300 115t-102 309q0 295 243 425q-1 17 -1 33q0 153 84 247t213 93q128 0 229 -43l-41 -269q-68 45 -149 45q-109 0 -109 -115q0 -76 86 -173l178 -203 q70 130 80 321l232 -26q-14 -285 -141 -486l202 -224l-276 -54l-92 104q-139 -99 -336 -99z" />
<glyph unicode="'" horiz-adv-x="552" d="M459 1372l59 -215l-366 -221l-107 103z" />
<glyph unicode="(" horiz-adv-x="699" d="M71 316q0 470 308 942l154 -120l-234 -826l234 -826v-8l-154 -110q-308 478 -308 948z" />
<glyph unicode=")" horiz-adv-x="698" d="M654 316q0 -470 -308 -948l-154 110v8l234 826l-234 826l154 120q308 -472 308 -942z" />
<glyph unicode="*" horiz-adv-x="764" d="M86 747l138 160l-204 25l58 241l200 -88l-13 218h239l-14 -218l196 88l58 -241l-204 -25l138 -160l-189 -138l-107 209l-107 -209z" />
<glyph unicode="+" horiz-adv-x="819" d="M258 762l248 76l70 -152l151 48l38 -284l-211 31l76 -123l-232 -43l-10 156l-243 -76l-64 249l253 -23z" />
<glyph unicode="," horiz-adv-x="413" d="M77 341l266 -13l-34 -331l-198 -89l73 120l-148 45z" />
<glyph unicode="-" horiz-adv-x="512" d="M36 354l50 190l389 -67l15 -93z" />
<glyph unicode="." horiz-adv-x="575" d="M69 281l248 107l145 -317l-333 50z" />
<glyph unicode="/" horiz-adv-x="852" d="M20 -150l524 1398h283l-526 -1398h-281z" />
<glyph unicode="0" horiz-adv-x="737" d="M537 439l-125 -14l3 -261l116 29zM55 756l156 210l358 -3l175 -272l-112 -534l-451 -122l-126 135v586z" />
<glyph unicode="1" horiz-adv-x="620" d="M640 156l7 -136l-720 50l20 153l177 46l56 423l-149 91l99 116l400 9l-56 -642z" />
<glyph unicode="2" horiz-adv-x="890" d="M410 969l214 -7l68 -375l-228 -92l388 -20l-149 -446l-556 8l-185 341l533 217l-66 64l-175 -78l-267 149z" />
<glyph unicode="3" horiz-adv-x="839" d="M686 1041l42 -310l-237 -133l271 15l107 -351l-859 -213l20 439l289 26l62 -240l134 18l-70 176l-96 69l92 99l-130 -26l-152 163z" />
<glyph unicode="4" horiz-adv-x="913" d="M451 519l-70 -103l70 -12v115zM533 828l177 24l57 -431l104 33l4 -108l-91 -8l29 -288l-428 25l57 242l-354 -8l-94 239l387 408z" />
<glyph unicode="5" horiz-adv-x="1091" d="M788 700l-170 -46l-147 81l-18 -152l376 99l250 -425l-179 -94l-358 170l-308 -326l-228 487l430 22l48 -116l134 4l-67 139l-540 31l317 473l371 -196z" />
<glyph unicode="6" horiz-adv-x="940" d="M426 654l-93 -220l152 -63l93 176zM553 982l-113 -264l372 -93l108 -455l-538 -263l-406 312l34 328l460 449z" />
<glyph unicode="7" horiz-adv-x="1044" d="M271 1058l230 -307l194 334l362 -242l-399 -868l-453 172l393 615l-97 -65l-85 59l31 -107l-296 -125l-237 421z" />
<glyph unicode="8" horiz-adv-x="782" d="M399 717l-169 -42l62 -100l114 12zM288 507l-104 -91l178 -56l24 162zM220 570l-184 151l125 245l482 4l177 -305l-254 -139l239 -201l-157 -299l-573 71l-26 319z" />
<glyph unicode="9" horiz-adv-x="804" d="M335 499l93 -44l14 148zM726 907l98 -887l-401 -37l-367 273l70 34l300 -160l6 272l-385 125l260 422l159 -109z" />
<glyph unicode=":" horiz-adv-x="509" d="M192 98l242 -142l-146 -211l-194 96zM438 351l-160 -256l-180 142l113 227z" />
<glyph unicode=";" horiz-adv-x="641" d="M512 -191l-10 -4l1 -1l-236 -351l-80 110l92 158l-109 185l180 124zM159 131l158 258l181 -141l-111 -228z" />
<glyph unicode="&#x3c;" horiz-adv-x="401" d="M99 -103l-318 485l364 567l171 -346l-198 -237l191 -189z" />
<glyph unicode="=" horiz-adv-x="830" d="M36 51l72 190l563 -67l21 -93zM36 354l72 190l563 -67l21 -93z" />
<glyph unicode="&#x3e;" horiz-adv-x="401" d="M0 948l317 -485l-366 -566l-170 346l199 236l-191 190z" />
<glyph unicode="?" horiz-adv-x="864" d="M724 309l-17 -222h-218l-86 157zM139 1034l412 20l275 -374l-267 -91l198 -235l-425 -73l-37 221l210 194l-98 41l-46 -114l-316 123z" />
<glyph unicode="@" horiz-adv-x="1319" d="M584 184q0 -68 62 -68q32 0 79 19l2 97l-136 -13q-7 -19 -7 -35zM554 -30q-84 0 -132 50t-48 127q0 117 90 176l265 20v37q0 82 -103 82q-77 0 -158 -48l-57 150q132 75 275 75q243 0 243 -219l-4 -238q0 -79 71 -79q56 -1 95 71t39 183q0 206 -123 312t-337 106 q-214 1 -347 -133q-132 -134 -132 -349q-1 -215 117 -331t309 -115q123 0 194 27l18 -145q-96 -28 -217 -28q-248 0 -410 156t-162 435q0 280 182 452t454 172q271 0 437 -148t166 -406q0 -182 -91 -288t-229 -106t-196 83q-125 -81 -209 -81z" />
<glyph unicode="A" horiz-adv-x="989" d="M849 765l147 -288l-68 -529l85 -93l-42 -42l-421 116l50 413l-252 83l-47 -50l-21 56l121 68l196 -39l-29 102l-139 75l-195 -152l135 -456l-199 -53l-160 437l370 261l-156 139l-118 6l-46 50l305 149l313 -159z" />
<glyph unicode="B" horiz-adv-x="1038" d="M420 565l-35 -134l53 -129l130 -32l36 256zM509 784l-84 -160l175 -18zM693 967l125 -209l-103 -175l161 -50l161 -397l-367 -187l-276 130l-260 -105l13 86l54 49l-98 139l-67 259l165 366l-93 113l89 57l317 -205z" />
<glyph unicode="C" horiz-adv-x="978" d="M509 815l5 180l129 149l447 -175l-211 -184l23 -241l-297 -136l-96 220l-66 -427l142 -73l92 118l275 -18l-4 -207l-290 54l-187 -218l-451 222l62 435l217 351z" />
<glyph unicode="D" horiz-adv-x="960" d="M295 683l-205 109l-47 178l320 94l97 -131l318 -221l169 -420l-200 -224l-237 -9l-86 33l10 47l94 -38l119 14l-50 407l-175 86l-21 -549l-278 -80l-77 400l56 301z" />
<glyph unicode="E" horiz-adv-x="1091" d="M784 786l87 -19l-322 -445l-303 191l133 -206l-108 -146l425 112l376 15l14 -386l-347 -49l-43 117l-514 -74l-77 88l156 299l-269 518l410 220l279 -299z" />
<glyph unicode="F" horiz-adv-x="1155" d="M166 836l-106 54l21 71l478 -118l205 120l431 -82l-122 -337l-405 33l9 209l-120 -11l-134 23l-74 -299l142 50l193 -115l-186 -135l-146 120l136 -283l69 -35l-346 -202l-201 384l47 270z" />
<glyph unicode="G" horiz-adv-x="1148" d="M598 742l-123 -89l56 -287l117 17l-4 99l-69 -4l-20 61l426 166l257 -240l-100 -82l-423 86l299 -250l-93 -227l-219 -39l-48 346l-149 -223l-328 -60l-153 339l110 451l378 247l177 -316l112 156l76 9l-36 -223l-170 -54z" />
<glyph unicode="H" horiz-adv-x="1239" d="M537 522l201 -32l-79 185l169 219l449 -81l-192 -408l-225 29l228 -304l-163 -91l-150 386l-201 -7l205 -417l-329 -103l-345 65l140 363l-241 381l223 363l470 -255z" />
<glyph unicode="I" horiz-adv-x="739" d="M99 682l-49 45l-56 193l94 126l251 -59l314 115l91 -52l-34 -260l-65 -36l-119 -16l15 -317l93 10l49 -150l-60 -223l-427 -74l-148 188l44 140l142 37l-53 342z" />
<glyph unicode="J" horiz-adv-x="1091" d="M652 970l472 -21l-282 -1003l-346 24l8 75l-234 -101l-209 407l355 71l115 -238l153 671l-145 -96l-114 60l-9 -187l-332 -55l-127 266l280 170l277 -185z" />
<glyph unicode="K" horiz-adv-x="1169" d="M445 606l198 68l-168 237l114 168l467 -168l-32 -54l-102 -26l92 -187l-62 -84l-309 -68l233 -440l19 96l343 34l50 -393l-118 -92l-481 34l-84 741l-142 -34l4 -214l154 -119l2 -91l-381 -149l-190 122l-16 775l138 249l285 -134l42 -76z" />
<glyph unicode="L" horiz-adv-x="1091" d="M124 959l310 27l40 -251l-101 -26l108 -203l-117 -281l126 50l77 -52l-13 249l357 110l149 -320l-250 -266l-329 203l-374 -179l-127 229l231 281l-158 225z" />
<glyph unicode="M" horiz-adv-x="1122" d="M791 927l371 -137l-284 -378l243 -437l74 33l57 -16l-163 -202l-367 116l-116 519l112 304l-104 -95l-102 112l21 -306l-34 -538l-527 19l-12 38l83 41l127 400l-223 473l454 128l201 -255z" />
<glyph unicode="N" horiz-adv-x="1093" d="M396 617l-27 -207l129 -204l-330 -205l-156 366l81 539l378 -68l8 -62l-44 -92l209 -360l-118 396l51 145l326 56l63 -76l-192 -62l310 -550l-460 -114z" />
<glyph unicode="O" horiz-adv-x="913" d="M429 115l87 -32l59 38l-71 204h-44zM661 1009l220 -258l-26 -571l-319 -151l-344 59l-168 615l265 296z" />
<glyph unicode="P" horiz-adv-x="1017" d="M579 163l-268 -214l-121 31l-156 483l152 504l429 54l63 -76h241l245 -313l-201 -232l-415 -22l-4 53l210 23l22 98l-232 22l-46 -178z" />
<glyph unicode="Q" horiz-adv-x="888" d="M683 325l-66 7l-19 -114l79 -21zM44 674l266 301l409 -71l132 -323l-93 -374l129 -217l53 82l320 -96l-270 -348l-342 77v442l-299 -108l-313 204z" />
<glyph unicode="R" horiz-adv-x="1388" d="M511 430l-7 -88l135 36l25 90l-38 47zM514 797l-14 -54l208 113l178 -75l-9 -335l-104 -97l-200 -44l344 -94l104 264l358 -135l52 -339l-444 -49l-476 329l77 -170l-344 -78l-163 178l-59 354l235 338z" />
<glyph unicode="S" horiz-adv-x="919" d="M525 1046l56 -123l136 -34l42 -214l-297 28l-96 60l-9 -138l254 21l223 -131l47 -169l-76 -253l-300 50l49 -127l-343 -80l-184 363l322 64l97 -134l75 163l-171 103l-326 -62l29 432l316 41v-67z" />
<glyph unicode="T" horiz-adv-x="1155" d="M735 784l378 238l166 -153l-106 -263l-321 -96l-46 152l118 139l-172 -60l139 -459l125 6l32 -45l-57 -111l-451 -4l-54 86l164 541l-210 71l88 -214l-312 -60l-97 22l-131 306l370 174l298 -253z" />
<glyph unicode="U" horiz-adv-x="1093" d="M534 684l-21 -469l116 20l-20 330l362 246l45 -148l-17 -617l108 -25l-75 -86l-354 7l-44 198l-294 -119l-300 271l21 565l50 62l350 -154z" />
<glyph unicode="V" horiz-adv-x="1292" d="M755 190l152 679l91 38l243 -38l21 -80l-76 -242l-86 -23l-151 11l-172 -522l-194 11l-579 899l102 102l485 -172z" />
<glyph unicode="W" horiz-adv-x="1191" d="M565 526l57 -24l68 -89l-33 388l64 148l404 -121l8 -68l-114 -29l139 -608l-578 12l-3 189l-85 -194l-311 -12l-153 202l161 621h-61l-59 62l511 103l56 -120l-120 -522z" />
<glyph unicode="X" horiz-adv-x="1380" d="M381 587l-349 237l4 86l425 63l224 -332l80 215l402 89l184 -107l-501 -327l465 -321l-72 -161l-429 44l-125 308l-152 -343l-470 85l45 134l448 240z" />
<glyph unicode="Y" horiz-adv-x="1091" d="M571 518l-306 -172l-221 108l133 437l-83 -38l-66 54l413 153l98 -73l-114 -465l126 46l-38 167l54 202l233 54l228 -641l-259 -389l-370 88l-12 -70l-72 -22l-145 286l283 171l236 -289z" />
<glyph unicode="Z" horiz-adv-x="1376" d="M388 793l77 -176l-77 -87l-370 42l-69 277l46 108l581 -134l317 168l405 -138l-745 -641l218 130l198 -126l30 100l301 64l166 -328l-505 -111l-218 325l-403 -339l-242 259l24 88l653 573l-207 -78z" />
<glyph unicode="[" horiz-adv-x="838" d="M298 530q0 -59 -25 -82t-62 -19q-80 9 -155 101q74 92 155 102q37 4 62 -20t25 -82zM493 744q1 68 -3 108t-2 82q5 94 46 175q42 81 149 154q13 7 13 -3t-12 -42t-38 -106q-25 -74 -19 -141q11 -123 -25 -227t-104 -214q147 -231 129 -444q-17 -158 23 -247 q12 -26 29 -38q-153 101 -181 241q-16 80 -10 143q5 64 5 131t-37 130l-4 -8t-6 -11q-3 -42 -16 -130q-13 -87 -13 -132q0 -47 13 -91q31 -106 107 -207t227 -206q-106 62 -144 96q-42 35 -83 83t-101 118q-156 182 -138 366q6 63 23 118q16 55 25 88q-9 34 -19 68 q-36 125 -29 211q15 147 145 300t179 197t142 93q-268 -186 -334 -414q-20 -72 -11 -147q9 -74 17 -118t10 -88q4 -5 6 -9t4 -9q37 62 37 130zM679 -199q2 -1 4 -3q-2 2 -4 3z" />
<glyph unicode="\" horiz-adv-x="852" d="M546 -150l-526 1398h283l524 -1398h-281z" />
<glyph unicode="]" horiz-adv-x="856" d="M522 530q0 60 24 83t62 19q79 -10 156 -102q-76 -90 -156 -100q-36 -4 -61 18t-25 82zM327 316q-1 -66 3 -108q8 -86 -8 -166q-29 -141 -181 -241q72 51 52 285q-16 182 75 352q26 48 54 92q-70 112 -93 182q-46 136 -36 264q7 78 -57 242q-12 32 -12 42t13 3 q153 -106 184 -246q17 -78 12 -141q-6 -64 -6 -132t37 -130q2 5 4 9t6 9q0 44 8 88t18 117t-6 133q-33 118 -111 222q-77 103 -227 207q94 -50 143 -93q49 -44 178 -197q164 -193 144 -371q-7 -62 -22 -119q-16 -56 -25 -89q8 -33 18 -67q36 -130 29 -218 q-14 -142 -143 -294q-54 -63 -95 -111t-81 -83q-40 -34 -146 -96q221 153 298 319q49 106 49 168q-1 62 -7 105t-14 86t-8 88q-4 7 -6 11l-4 8q-37 -63 -37 -130zM141 -199q-2 -1 -4 -3q2 2 4 3z" />
<glyph unicode="^" horiz-adv-x="853" d="M613 115l-191 395l-186 -395l-186 12l267 589h211l275 -589z" />
<glyph unicode="_" horiz-adv-x="678" d="M0 -398v246h678v-246h-678z" />
<glyph unicode="`" horiz-adv-x="692" d="M138 928l-18 125l460 -80l-4 -139z" />
<glyph unicode="a" horiz-adv-x="884" d="M407 292l58 -32l25 165l-102 15zM375 540l-308 -38l-75 277l75 78l361 -211l99 125l396 -141l-156 -465l61 -33v-57l-342 8l-25 61l-98 -86l-284 -33l-66 412l383 65l90 -24l-8 116l-42 -29l-61 29v-54z" />
<glyph unicode="b" horiz-adv-x="874" d="M461 396l-9 -174l54 -19l40 264zM153 109l-224 788l421 133l187 -133l-22 -50l-98 26l27 -401l147 98l276 -143l-89 -371l-281 -14l-67 104l-13 -73z" />
<glyph unicode="c" horiz-adv-x="667" d="M302 553l125 -326l179 48l30 -56l-443 -190l-112 84l-113 460l273 42l-75 71l273 100l266 -201l-193 -175z" />
<glyph unicode="d" horiz-adv-x="1030" d="M382 199l157 23l-45 289l-90 130zM450 980l137 91l412 -76l-13 -37l-81 -31l9 -702l89 -79l-17 -67l-393 44l-28 58l-410 -117l-117 121l-22 474l402 67l58 -130z" />
<glyph unicode="e" horiz-adv-x="901" d="M484 433l141 -32l53 161l-86 59zM522 104l65 194l253 -70l-80 -263l-184 -7l-33 66l-232 -82l-301 367l204 544l513 -43l166 -345l-80 -167l-356 86z" />
<glyph unicode="f" horiz-adv-x="595" d="M118 425l-193 504l442 114l301 -220l-39 -107l-171 64l21 -355l65 -8l35 -71l-85 -10l-11 -253l-270 -4l-64 259l-110 -2l-25 52z" />
<glyph unicode="g" horiz-adv-x="788" d="M395 692l-80 -155l148 -150l168 91l-85 146zM165 372l-172 118l113 252l405 17l44 -41l68 144l290 -38l-60 -230l-245 35l110 -200l-193 -181l-275 -29l103 -163l137 133l466 -127l-189 -479l-711 80l14 59l201 -2l148 318l-285 -183l-170 367z" />
<glyph unicode="h" horiz-adv-x="892" d="M372 438l367 254l123 -81l-16 -485l75 -43l5 -65l-452 -97l49 517l-151 -75l47 -186l-308 -87l-172 205l201 -22l-102 558l-53 68l-64 54l478 148z" />
<glyph unicode="i" horiz-adv-x="620" d="M190 910l201 57l173 -94l21 -140l-119 -66l-214 70zM466 260h103l29 -112l-544 -221l-25 127l66 61l-83 268l111 215l-73 69l98 75l335 -119z" />
<glyph unicode="j" horiz-adv-x="501" d="M50 891l218 150l168 -114l-20 -142l-308 -103zM328 701l165 -64l-95 -844l-348 -126l-199 176l66 42l156 -46v691l-95 -8l-46 72z" />
<glyph unicode="k" horiz-adv-x="839" d="M437 533l255 191l88 -8l8 -95l-275 -137l203 18l144 -156l-198 -248l54 -31l-28 -53l-377 -3l160 415l-156 -4l64 -156l-88 -214l-281 -45l-28 49l96 69l-80 373l221 467l-50 22l-19 31l344 31l99 -142z" />
<glyph unicode="l" horiz-adv-x="671" d="M53 258l98 625l-64 6l-34 68l421 64l77 -84l-9 -718l97 5l50 -122h-591z" />
<glyph unicode="m" horiz-adv-x="1089" d="M489 662l60 -80l106 166l350 -153l17 -400h84l16 -80l-199 -136l-201 54l-2 510l-93 52l-58 -43l43 -306l78 -34l-4 -116l-303 -13l-7 106l54 306l-84 7l-6 -456l-284 60l46 213l-136 291l290 112l73 -143z" />
<glyph unicode="n" horiz-adv-x="1021" d="M785 759l173 -260l-110 -439l172 45l35 -108l-511 -97l-75 79l160 458l-47 121l-163 -25l59 -403l-344 -104l-138 244l100 345l-69 44v50l388 32l-2 -142z" />
<glyph unicode="o" horiz-adv-x="692" d="M565 473l-137 -9l44 -274l121 15zM76 674l161 63l372 -122l29 -445l-362 -180l-181 48l-73 342z" />
<glyph unicode="p" horiz-adv-x="851" d="M445 680l-48 -103l15 -300l83 -91zM372 659l82 116l341 -66l25 -601l-308 -83l-133 185l58 -412l62 -69l-45 -75l-396 87l29 757l-94 25l-29 90l350 141z" />
<glyph unicode="q" horiz-adv-x="913" d="M374 309l67 -34l72 21l-52 253l-80 83zM660 776l283 -97l-7 -37l-69 4l56 -770l80 -20l20 -43l-182 -117l-248 63l-52 466l-50 -132l-414 -10l-87 553l406 106l84 -150z" />
<glyph unicode="r" horiz-adv-x="905" d="M504 806l367 -34l-34 -342l-54 -45l-268 88l9 152l-102 -132l93 -435l-65 -58l-430 102l69 210l-117 269l376 166l45 -166z" />
<glyph unicode="s" horiz-adv-x="636" d="M326 594l6 -110l227 -58l64 -225l-204 -78l37 -123l-243 -56l-179 259l149 108l207 -134l-84 163l-259 17l-37 317l307 9l-44 93l263 37l7 -169l53 -37l-113 -91z" />
<glyph unicode="t" horiz-adv-x="669" d="M-15 644l54 85l118 -11l91 217l-43 69l43 54l243 -26l22 -324l108 21l10 -75l-130 -10l18 -449l166 54l16 -69l-399 -200l-334 243l151 398z" />
<glyph unicode="u" horiz-adv-x="794" d="M750 239l11 -50l-272 -126l-37 151l-370 -172l-90 131l149 486l-78 44l31 44l311 -81l2 -153l-115 -261h154l18 440l295 -25l-104 -404z" />
<glyph unicode="v" horiz-adv-x="776" d="M-8 502l130 261l162 -9l142 -420l68 425l271 -41l12 -98l-158 -52l-57 -426l-317 -118l-142 466l-85 -33z" />
<glyph unicode="w" horiz-adv-x="954" d="M440 708l-23 -498l73 73l58 -44l-44 430l367 53l88 -576l-322 -126l-167 141l-107 -141l-313 -11l-20 523l-136 40l-20 62l440 79z" />
<glyph unicode="x" horiz-adv-x="983" d="M363 396l-359 187l34 106l347 80l96 -301l26 160l409 43l46 -130l-347 -169l190 -10l211 -313l-475 -24l-48 321l-50 -256l-58 -83l-297 53l-84 106z" />
<glyph unicode="y" horiz-adv-x="884" d="M525 275l26 429l286 9l13 -912l-469 -223l-268 174l134 103l264 -143l22 465l-317 -130l-214 304l152 290l-117 63l54 44l420 -146l-111 -399z" />
<glyph unicode="z" horiz-adv-x="872" d="M409 655l-82 -38l-99 50l12 -173l-152 -44l-169 259l252 70l160 -91l382 102l29 -196l-415 -425l190 37l36 173l304 4l35 -300l-314 -17l-50 86l-361 -106l-154 185z" />
<glyph unicode="{" horiz-adv-x="656" d="M480 -508q-370 0 -370 345q0 89 79 283t79 243q0 91 -188 91v274q188 0 188 94q0 49 -79 239t-79 285q0 345 370 345q67 0 126 -9v-241q-37 2 -83 2q-135 0 -135 -134q0 -56 78 -222q78 -165 77 -261t-53 -152t-202 -73v-20q151 -19 203 -74t52 -148q1 -93 -77 -263 t-78 -223q0 -134 135 -134q44 0 83 2v-240q-70 -9 -126 -9z" />
<glyph unicode="|" horiz-adv-x="304" d="M40 -217v1562h224v-1562h-224z" />
<glyph unicode="}" horiz-adv-x="656" d="M163 -261q135 0 135 134q0 53 -78 223t-77 263q0 93 52 148t203 74v20q-150 17 -202 73t-53 152q0 96 77 261q78 166 78 222q0 134 -135 134q-46 0 -83 -2v241q59 9 126 9q370 0 370 -345q0 -95 -79 -285t-79 -239q0 -94 188 -94v-274q-188 0 -188 -91q0 -49 79 -243 t79 -283q0 -345 -370 -345q-56 0 -126 9v240q39 -2 83 -2z" />
<glyph unicode="~" horiz-adv-x="774" d="M546 266q-60 0 -164 40q-103 40 -134 39q-51 0 -84 -92l-104 31q48 215 177 215q51 -1 149 -41t134 -40q54 0 79 96l115 -26q-12 -102 -60 -162t-108 -60z" />
<glyph unicode="&#xa9;" horiz-adv-x="1171" d="M608 245q-126 1 -218 77t-92 223t92 229t221 82q128 0 202 -41l-34 -144q-71 40 -160 40q-154 0 -154 -168q0 -154 162 -154q86 0 164 44l27 -149q-83 -39 -210 -39zM586 101q186 -1 311 127t125 314t-125 314t-311 128t-311 -128q-126 -128 -126 -313.5t125.5 -313.5 t311.5 -128zM1112 543q0 -221 -152 -373t-374 -152t-374 152t-152 373t152 373t374 152t374 -152t152 -373z" />
<glyph unicode="&#xad;" horiz-adv-x="512" d="M36 354l50 190l389 -67l15 -93z" />
<glyph unicode="&#xbc;" horiz-adv-x="1584" d="M668 0h-184l559 1105h183zM1442 144v-144h-169v144h-286l-15 165l301 399l175 -10l-324 -419h149v150h169v-150h82v-135h-82zM60 415v152h168v394l-145 -29l-15 139l198 42h142v-546h140v-152h-488z" />
<glyph unicode="&#xbd;" horiz-adv-x="1719" d="M1130 0v139q184 121 252 191t68 138q0 94 -110 94q-81 0 -162 -35l-26 142q87 42 212 42q124 0 196 -57t72 -158q0 -182 -258 -344h285l-14 -152h-515zM668 0h-184l559 1105h183zM60 415v152h168v394l-145 -29l-15 139l198 42h142v-546h140v-152h-488z" />
<glyph unicode="&#xbe;" horiz-adv-x="1584" d="M362 1117q118 0 182 -53t65 -130q0 -102 -100 -143v-4q56 -17 90 -63t34 -116t-46 -122q-72 -77 -232 -77q-81 0 -136 20q-95 34 -159 129l133 80q64 -88 152 -88q44 0 77 20t33 62q1 42 -33 62t-85 20h-63v131h78q85 0 85 61q0 26 -20 48t-65 22q-89 0 -140 -100 l-144 58q84 183 294 183zM668 0h-184l559 1105h183zM1442 144v-144h-169v144h-286l-15 165l301 399l175 -10l-324 -419h149v150h169v-150h82v-135h-82z" />
<glyph unicode="&#x60c;" horiz-adv-x="641" d="M160 184l10 4l-1 1l238 350l80 -111l-93 -157l107 -186l-180 -123z" />
<glyph unicode="&#x61b;" horiz-adv-x="641" d="M160 184l10 4l-1 1l238 350l80 -111l-93 -157l107 -186l-180 -123zM511 -140l-160 -257l-180 142l113 227z" />
<glyph unicode="&#x61f;" horiz-adv-x="767" d="M462 899l226 -306l-238 -78l-4 170l-62 1l-91 -96l317 -303l-104 -247l-209 -20l50 296l-269 130l79 344zM617 -66l-163 -192l-184 106l115 171z" />
<glyph unicode="&#x640;" horiz-adv-x="318" d="M-3 254h324v-254h-324v254z" />
<glyph unicode="&#x64c;" d="M196 307l-85 26l9 -99zM-40 295l-67 44l-50 -72l65 -19zM6 346l-37 -210l-154 -41l-13 45l94 38l3 22h-95l-37 134l89 72zM249 346l-25 -209l-208 -35l-25 37l141 33l26 18l-89 6l-57 146l113 78z" />
<glyph unicode="&#x660;" horiz-adv-x="401" d="M356 251l-129 -228l-190 154l141 183z" />
<glyph unicode="&#x661;" horiz-adv-x="515" d="M389 195l-157 -204l-184 855l231 157z" />
<glyph unicode="&#x662;" horiz-adv-x="761" d="M46 864l172 143l400 25l120 -225l-440 -40l185 -522l-187 -278z" />
<glyph unicode="&#x663;" horiz-adv-x="921" d="M62 755l94 281l326 -218l268 221l87 -341l-275 -132l-308 90l223 -470l-222 -184z" />
<glyph unicode="&#x664;" horiz-adv-x="755" d="M345 790q-6 -14 -4 -27l241 18l9 -236l-271 -182l108 -133l243 171l-10 -300l-358 -99l-169 236l8 109l92 199l-187 212l331 352l275 -77z" />
<glyph unicode="&#x665;" horiz-adv-x="784" d="M570 0l-418 14l-105 297l55 294l170 137l-18 45l151 272l307 -464l10 -345zM269 427l-71 -171l257 -11l84 162l-174 215l-2 -5h-1l57 -115z" />
<glyph unicode="&#x666;" horiz-adv-x="893" d="M498 -23l-222 184l368 495l-308 -90l-275 132l87 341l268 -221l326 218l94 -281z" />
<glyph unicode="&#x667;" horiz-adv-x="887" d="M834 655q-19 -82 -62 -226q-93 -310 -120 -431l-201 60l-432 616l102 170l423 -461l57 630z" />
<glyph unicode="&#x668;" horiz-adv-x="830" d="M-1 259q31 57 103 251q71 195 120 324t86 195l178 -112l287 -740l-236 -159l-149 695l-267 -707z" />
<glyph unicode="&#x669;" horiz-adv-x="767" d="M547 963l166 -798l-209 -165l-30 240l-2 138l-363 -22l-86 198l232 479zM456 498l-18 302l-183 -269l162 64z" />
<glyph unicode="&#x66a;" horiz-adv-x="694" d="M555 38q-37 -26 -79 -26t-58 26q-6 10 -12 29q-7 19 -10 27q-2 8 -6 22q-8 31 21 67q30 36 64 47q-31 52 14 146q-23 -66 61 -146q49 -47 58 -79q8 -32 -4 -60q-12 -27 -49 -53zM515 162q-12 7 -44 -16t-34 -54q23 -25 57 -12q34 12 47 25t10 26q-4 18 -19 32t-26 27 q4 -8 9 -28zM242 666q-47 -52 -100 -52q-52 0 -68 25q-4 9 -8 19t-15 38q-19 47 13 85q32 37 67 51q-31 52 14 146q-17 -54 23 -105q18 -23 38 -43q81 -78 52 -137q-4 -15 -16 -27zM171 764q-13 5 -44 -16q-32 -21 -34 -54q23 -25 72 -8q49 18 41 51q-3 14 -18 28t-26 27 q4 -8 9 -28zM381 1026q-2 3 25 3t75 30q-36 -215 -103 -504q-68 -290 -84 -381t-4 -138l-108 -43z" />
<glyph unicode="&#x66b;" horiz-adv-x="295" d="M62 162l211 27q-31 -129 -112 -315l-151 1q70 147 52 287z" />
<glyph unicode="&#x66c;" horiz-adv-x="295" d="M62 162l211 27q-31 -129 -112 -315l-151 1q70 147 52 287z" />
<glyph unicode="&#x6d4;" horiz-adv-x="592" d="M150 147l148 148q92 -66 144 -148l-144 -148q-52 84 -148 148z" />
<glyph unicode="&#x2000;" horiz-adv-x="845" />
<glyph unicode="&#x2001;" horiz-adv-x="1691" />
<glyph unicode="&#x2002;" horiz-adv-x="845" />
<glyph unicode="&#x2003;" horiz-adv-x="1691" />
<glyph unicode="&#x2004;" horiz-adv-x="563" />
<glyph unicode="&#x2005;" horiz-adv-x="422" />
<glyph unicode="&#x2006;" horiz-adv-x="281" />
<glyph unicode="&#x2007;" horiz-adv-x="281" />
<glyph unicode="&#x2008;" horiz-adv-x="211" />
<glyph unicode="&#x2009;" horiz-adv-x="338" />
<glyph unicode="&#x200a;" horiz-adv-x="93" />
<glyph unicode="&#x2010;" horiz-adv-x="512" d="M36 354l50 190l389 -67l15 -93z" />
<glyph unicode="&#x2011;" horiz-adv-x="512" d="M36 354l50 190l389 -67l15 -93z" />
<glyph unicode="&#x2012;" horiz-adv-x="512" d="M36 354l50 190l389 -67l15 -93z" />
<glyph unicode="&#x2013;" horiz-adv-x="1082" d="M36 354l113 190l877 -67l34 -93z" />
<glyph unicode="&#x2014;" horiz-adv-x="2106" d="M36 354l226 190l1754 -67l68 -93z" />
<glyph unicode="&#x201c;" horiz-adv-x="552" d="M459 1372l59 -215l-366 -221l-107 103z" />
<glyph unicode="&#x201d;" horiz-adv-x="552" d="M459 1372l59 -215l-366 -221l-107 103z" />
<glyph unicode="&#x202f;" horiz-adv-x="338" />
<glyph unicode="&#x205f;" horiz-adv-x="422" />
<glyph unicode="&#x25fc;" horiz-adv-x="770" d="M0 770h770v-770h-770v770z" />
<glyph unicode="&#xffef;" horiz-adv-x="1394" d="M918 935h2l414 -259l-119 -318l-238 183l66 80l-66 31l-169 -172l558 -199l-60 -283l-4 2l-1147 -17l-155 236l181 388l259 -184l-172 -183l445 14l329 -101l-439 184l-127 246l441 353z" />
<glyph />
<glyph d="M185 586l-256 -30l-99 -28l-3 83l338 40zM201 451l-257 -30l-135 -32l-11 96l381 45zM-159 304l85 10l-12 -83l62 72h47l87 -64l-87 115l77 28l116 -166l-72 -59l-146 54l-79 -86l-95 33z" />
<glyph d="M196 619l-85 26l9 -99zM-40 607l-67 44l-50 -72l65 -19zM6 658l-37 -210l-154 -41l-13 45l94 38l3 22h-95l-37 134l89 72zM249 658l-25 -209l-208 -35l-25 37l141 33l26 18l-89 6l-57 146l113 78zM-159 304l85 10l-12 -83l62 72h47l87 -64l-87 115l77 28l116 -166 l-72 -59l-146 54l-79 -86l-95 33z" />
<glyph d="M185 296l-256 -30l-99 -28l-3 83l338 40zM201 161l-257 -30l-135 -32l-11 96l381 45zM-159 576l85 10l-12 -83l62 72h47l87 -64l-87 115l77 28l116 -166l-72 -59l-146 54l-79 -86l-95 33z" />
<glyph d="M201 451l-257 -30l-135 -32l-11 96l381 45zM-159 304l85 10l-12 -83l62 72h47l87 -64l-87 115l77 28l116 -166l-72 -59l-146 54l-79 -86l-95 33z" />
<glyph d="M91 619l-85 26l9 -99zM144 658l-25 -209l-208 -35l-25 37l141 33l26 18l-89 6l-57 146l113 78zM-158 304l84 10l-12 -83l62 72h47l88 -64l-88 115l77 28l116 -166l-72 -59l-146 54l-79 -86l-95 33z" />
<glyph d="M201 161l-257 -30l-135 -32l-11 96l381 45zM-159 444l85 10l-12 -83l62 72h47l87 -64l-87 115l77 28l116 -166l-72 -59l-146 54l-79 -86l-95 33z" />
<glyph d="M-72 489l77 -37l69 80l-151 46zM-129 482l8 129l140 43l116 -79l-40 -147l-99 -36zM-158 304l84 10l-12 -83l62 72h47l88 -64l-88 115l77 28l116 -166l-72 -59l-146 54l-79 -86l-95 33z" />
<glyph horiz-adv-x="1447" />
</font>
</defs>
</svg>
