<svg xmlns="http://www.w3.org/2000/svg" xmlns:xlink="http://www.w3.org/1999/xlink" version="1.1"><metadata/><defs><font id="kfgqpcuthmantahanaskhregular" horiz-adv-x="804"><font-face ascent="1638" descent="-410" units-per-em="2048"/><glyph horiz-adv-x="0"/><glyph horiz-adv-x="682"/><glyph horiz-adv-x="401"/><glyph horiz-adv-x="401"/><glyph horiz-adv-x="401"/><glyph d="M98 865.5q0 102.5 86 102.5t85.5 -111.5t-19 -193.5t-29 -146t-17.5 -267h-42q-5 156 -7 172l-17 135q-5 24 -9.5 44t-8.5 42t-13 71t-9 151.5zM110 112q0 32 22 54.5t46 22.5t38 -6t24.5 -16.5t16.5 -24.5t6 -30t-6 -30t-16.5 -24.5t-24.5 -16.5t-38 -6t-46 22.5 t-22 54.5z" horiz-adv-x="382" unicode="!"/><glyph d="M78 1101.5q6 34.5 42 34.5q51 0 47 -52.5t-16 -143.5t-15 -183h-32q-4 92 -16 183q-16 127 -10 161.5zM273.5 1098q6.5 38 41.5 38q52 0 47.5 -58.5t-17 -155t-13.5 -165.5h-33q-1 69 -15 172q-17 131 -10.5 169z" horiz-adv-x="423" unicode="&quot;"/><glyph d="M90 412v85h193l71 325h-264v85h281l74 341h82l-71 -341h345l72 341h83l-71 -341h180v-85h-198l-69 -325h267v-85h-286l-73 -341h-83l72 341h-346l-72 -341h-83l72 341h-176zM368 497h345l70 325h-344z" horiz-adv-x="1163" unicode="#"/><glyph d="M65 285q0 22 16 37t40 15t39.5 -17.5t30 -44t32 -56t46.5 -53.5v472q-185 119 -185 244q0 82 52 144t133 92v123h61v-106q55 8 114 0v106h63v-121q126 -39 157 -87.5t31 -72.5t-18.5 -41.5t-40.5 -17.5t-38 12t-30 30.5t-28.5 41t-32.5 43.5v-368q230 -135 230 -292 q0 -99 -65 -173.5t-165 -104.5v-160h-63v147q-10 -2 -12 -2h-25q-44 0 -77 7v-152h-61v169q-85 26 -144.5 79t-59.5 107zM192 946q0 -75 77 -135v251q-77 -41 -77 -116zM330 133q26 -9 52 -9t62 6v397q-27 17 -56 35.5t-58 35.5v-465zM330 766q38 -24 114 -67v375 q-28 12 -60 12t-54 -2v-318zM507 153q49 24 82 67.5t33 97.5t-32 91.5t-83 75.5v-332z" horiz-adv-x="819" unicode="$"/><glyph d="M222 -26l731 1304h124l-732 -1304h-123zM351 1128q0 49 34.5 83.5t71.5 34.5q60 0 95 -33.5t35 -71.5q0 -63 -34 -97t-71 -34t-59 9t-47 35t-25 74zM711 116q0 24 9 46t25 37.5t38 25t46 9.5t46 -9.5t37.5 -25t25 -37.5t9.5 -46t-9.5 -46t-25 -38t-37.5 -25.5t-46 -9.5 t-46 9.5t-38 25.5t-25 38t-9 46z" horiz-adv-x="1260" unicode="%"/><glyph d="M66 348q0 126 70 223.5t190 130.5q-94 78 -99 177q-5 98 54.5 167t161.5 81t170 -44.5t68 -146.5q0 -140 -173 -214q119 -79 269 -295q104 143 200 324q13 25 -7.5 29t-25.5 4h-54v44h296v-44q-135 0 -155 -33q-84 -181 -221 -371q12 -17 73.5 -131.5t118 -109t88 26.5 t49.5 31l20 -38q-130 -99 -195.5 -99t-101.5 28q-63 49 -135 191q-154 -195 -312 -213q-143 -12 -246 71.5t-103 210.5zM223 398q0 -102 76.5 -166.5t170.5 -53.5t156.5 73t71.5 73q-108 158 -183.5 225t-131.5 108q-160 -55 -160 -259zM343 896.5q0 -64.5 34 -104.5t80 -32 t79.5 61t33.5 102t-9 76t-24.5 45t-36 26.5t-43.5 3.5t-44 -21t-45.5 -54t-24.5 -102.5z" horiz-adv-x="1269" unicode="&amp;"/><glyph d="M75 1061q-22 98 9.5 127.5t71.5 29.5q115 0 77 -172q-42 -192 -52 -333h-51q-3 71 -22 174z" horiz-adv-x="308" unicode="'"/><glyph d="M91 526q-6 374 156 587.5t270 309.5l52 -40q-309 -387 -303 -853t303 -840l-52 -35q-422 367 -426 871z" horiz-adv-x="692" unicode="("/><glyph d="M123 -310q297 374 303 840t-303 853l52 40q430 -382 426 -897q-9 -508 -426 -871z" horiz-adv-x="692" unicode=")"/><glyph d="M23 937q0 49 64 40q87 -20 133 -26q4 13 9 22q-25 22 -55.5 40.5t-46.5 28.5t-24.5 18t-13 18.5t-3 22t18 28t36.5 7.5t54 -63.5t54 -78.5l24 8q-4 35 -16 88q-15 69 -7.5 90t36.5 21q46 0 44.5 -28.5t-14 -82.5t-13.5 -88q1 0 21 -8q27 33 54 76q26 43 33 51.5t17 13 t22 3t28 -17.5t7 -37t-32 -36t-53 -33.5t-56 -40.5q5 -5 10 -22q44 6 92 16q64 14 85.5 6.5t21.5 -37.5q0 -42 -11 -42l-188 28q-5 -18 -10 -22q32 -27 113 -75q6 -6 14 -13.5t16.5 -23.5t-8.5 -34q-44 -46 -81 15q-36 60 -74 111q-9 -7 -21 -10q1 -33 9 -67.5t12 -54.5 q18 -76 -38 -76q-48 0 -39 64q22 100 26 134q-11 2 -24 10q-20 -27 -39 -56.5t-30 -46.5q-43 -67 -75 -33q-36 38 -15 56.5t27 24.5q26 16 56.5 34.5t55.5 40.5q-6 9 -9 22l-98 -14q-99 -14 -99 29zM254 936q0 -14 9.5 -23t23.5 -9t23.5 9t9.5 23t-9.5 24t-23.5 10 t-23.5 -10t-9.5 -24z" horiz-adv-x="578" unicode="*"/><glyph d="M73 368v87h270v268h85v-268h269v-87h-269v-269h-85v269h-270z" horiz-adv-x="781" unicode="+"/><glyph d="M91 121q6 46 38 65q63 39 119 -17q55 -57 34 -167q-24 -124 -131 -176q-42 -25 -52 -7q-7 8 20 30q81 51 101 137q6 28 -3 57q-49 -25 -90 3t-36 75z" horiz-adv-x="372" unicode=","/><glyph d="M82 375v87h638v-87h-638z" unicode="-"/><glyph d="M82 136q0 52 27 72.5t80 20.5t79 -20.5t26 -72.5t-26 -74t-79 -22t-80 22t-27 74z" horiz-adv-x="400" unicode="."/><glyph d="M42 -338l391 1498h66l-392 -1498h-65z" horiz-adv-x="554" unicode="/"/><glyph d="M65 567q0 90 6 325t317 237q223 2 275 -135.5t57 -237t5 -189.5t-5 -189.5t-57 -237t-275 -135.5q-311 2 -317 237t-6 325zM178 567q0 -59 2.5 -248t210.5 -191t215.5 187.5t7.5 318.5q0 375 -223 372q-208 -2 -210.5 -191t-2.5 -248z" horiz-adv-x="800" unicode="0"/><glyph d="M75 882q146 63 286 244h83v-1126h-137v879q-117 -87 -223 -122z" horiz-adv-x="547" unicode="1"/><glyph d="M103 1v128q0 6 129.5 127.5t170.5 160.5t95 90t67 68q62 76 78 157.5t-11 142.5q-53 115 -177 113q-122 -7 -173 -74t-64 -107l-97 48q25 126 121.5 198t218.5 75t216.5 -77t100.5 -226q8 -230 -182.5 -409.5t-238.5 -220t-62 -54.5h519l-36 -140h-675z" horiz-adv-x="906" unicode="2"/><glyph d="M82 221l110 72q45 -119 146 -137t146 5t77.5 61.5t13.5 118.5t-96 131.5t-191 34.5l-1 126q97 -17 184 25.5t105 129.5q18 88 -20 138.5t-89 57.5q-86 13 -150.5 -22.5t-96.5 -112.5l-115 68q65 151 221.5 197.5t254.5 -27t121 -179.5q24 -105 -16 -197.5t-131 -140.5 q139 -72 153.5 -209.5t-25.5 -204.5t-120 -126.5t-247.5 -11.5t-233.5 203z" horiz-adv-x="793" unicode="3"/><glyph d="M80 278l19 127l490 721h114v-712h161l-33 -136h-128v-278h-132v278h-491zM240 414h331v493z" horiz-adv-x="953" unicode="4"/><glyph d="M100 215l128 58q33 -63 88.5 -94t109.5 -31q101 0 164 61.5t62 164.5q-1 102 -58 166t-160 64t-196 -59l-125 3l95 574h553l-41 -141h-414l-51 -288q87 60 174 59q160 -3 264 -116t101 -270t-110 -262.5t-254 -107.5q-95 -1 -184.5 50t-145.5 169z" horiz-adv-x="876" unicode="5"/><glyph d="M86 583q10 379 147 461t247 84t178.5 -52.5t114.5 -158.5l-103 -68q-27 72 -83.5 105.5t-119.5 33.5t-153.5 -62t-90.5 -289q62 86 207 97q173 4 264.5 -107.5t85.5 -263.5q-5 -152 -96.5 -257t-270.5 -105q-102 0 -171.5 54.5t-116.5 166t-39 361.5zM217 373 q4 -97 64.5 -157.5t152.5 -60.5t150 60.5t62 136.5q6 130 -58.5 184.5t-162.5 53.5t-155 -60.5t-53 -156.5z" horiz-adv-x="880" unicode="6"/><glyph d="M93 978l34 148h650l-14 -139q-56 -130 -125 -254.5t-171 -328.5t-110 -404h-148q11 288 183.5 585.5t219.5 392.5h-519z" horiz-adv-x="884" unicode="7"/><glyph d="M68 282q-5 84 34.5 164t128.5 126q-138 76 -136 242q2 134 86 223t214 89t227.5 -104.5t69.5 -252t-133 -197.5q93 -49 132 -131.5t31 -158.5q-15 -135 -112 -209.5t-220 -72.5t-218.5 78t-103.5 204zM215.5 265q19.5 -78 73 -109t99.5 -31q89 0 145.5 61.5t50.5 146.5 t-60.5 133t-126.5 48q-112 3 -156.5 -84t-25 -165zM222 804q7 -83 57.5 -128.5t98.5 -45.5q82 0 134.5 47t59.5 127t-38 140.5t-140 60.5t-137.5 -59.5t-34.5 -141.5z" horiz-adv-x="818" unicode="8"/><glyph d="M84 214l102 68q42 -101 109.5 -119.5t94.5 -18.5q145 0 206 109.5t54 247.5q-69 -96 -206 -96q-171 -6 -257 105.5t-82 265.5t87 254t261 100q102 0 172.5 -53.5t118 -164t42.5 -357.5q-7 -386 -143.5 -468t-250.5 -83t-187 53t-121 157zM238 786q-5 -132 56 -186.5 t156 -52.5t151.5 61.5t51.5 157.5t-67 154.5t-153 56.5t-141.5 -57.5t-53.5 -133.5z" horiz-adv-x="880" unicode="9"/><glyph d="M131 121q0 18 7 33.5t18.5 27.5t27.5 18.5t34 6.5t34.5 -6.5t28 -18.5t18.5 -27.5t7 -33.5t-7 -34t-18.5 -27.5t-28 -18.5t-34.5 -7t-34 7t-27.5 18.5t-18.5 27.5t-7 34zM131 605q0 18 7 34t18.5 27.5t27.5 18.5t34 7t34.5 -7t28 -18.5t18.5 -27.5t7 -34t-7 -33.5 t-18.5 -27.5t-28 -19t-34.5 -7t-34 7t-27.5 19t-18.5 27.5t-7 33.5z" horiz-adv-x="438" unicode=":"/><glyph d="M100 190.5q0 53.5 41 84.5q31 20 67.5 18.5t63.5 -24.5q51 -43 61.5 -119.5t-9.5 -133.5q-38 -108 -120 -162q-49 -31 -60 -13q-7 9 19 35q93 77 99.5 141t-6.5 97q-26 -18 -56 -18t-54 14q-46 27 -46 80.5zM133 734q0 19 7.5 36t20 30t29.5 20t37 7t37 -7t30 -20t20 -30 t7 -36t-7 -36t-20 -30t-30 -20t-37 -7t-37 7t-29.5 20t-20 30t-7.5 36z" horiz-adv-x="452" unicode=";"/><glyph d="M120 582v149l889 385v-112l-797 -347l797 -346v-112z" horiz-adv-x="1161" unicode="&lt;"/><glyph d="M83 281v89h639v-89h-639zM83 458v87h639v-87h-639z" unicode="="/><glyph d="M120 199v112l797 346l-797 347v112l889 -385v-149z" horiz-adv-x="1161" unicode="&gt;"/><glyph d="M79 -173v1314h394v-97h-252v-1120h252v-97h-394z" horiz-adv-x="576" unicode="["/><glyph d="M42 1160h66l391 -1498h-65z" horiz-adv-x="554" unicode="\"/><glyph d="M79 1043v97h394v-1313h-393v96h252v1120h-253z" horiz-adv-x="576" unicode="]"/><glyph d="M75 18.5q0 181.5 129 374.5q7 11 17 0t5 -21q-85 -168 -77.5 -303t119.5 -206q138 -89 354 -53q146 24 310 112q60 32 115.5 73.5t58.5 60.5q-7 41 -132.5 55.5t-161.5 17t-58.5 4t-29.5 1.5q0 43 20.5 78.5t31.5 41.5q154 62 196 100t44.5 61.5t-0.5 40.5t-9 34 t-13.5 32.5t-14.5 30.5q-23 -55 -64.5 -85.5t-79.5 -30.5q-64 0 -104 47.5t-40 116.5t51 168t121 99t133.5 -91.5t77.5 -151.5q54 -232 -57 -377q169 -30 161 -166q-8 -115 -118.5 -215.5t-270 -162t-274.5 -61.5q-213 0 -326.5 97t-113.5 278.5zM326 -618l81 115q4 6 7 6 t7 -4l120 -91l82 105q6 8 12 3l127 -106q7 -5 0 -14l-76 -106q-8 -9 -19 -1l-119 93l-78 -107q-7 -9 -15 -3l-127 98q-7 5 -2 12zM612 1114l74 102q6 14 16 4l121 -88l74 107q6 10 14 2l127 -91q6 -6 0 -16l-69 -102q-11 -8 -19 -2l-121 86l-71 -103q-6 -6 -17 -6l-127 94 q-10 5 -2 13zM766 645q16 -46 72 -57t92 25q9 6 0.5 27.5t-43.5 52.5q-35 26 -70 23q-39 -9 -51 -71z" horiz-adv-x="1268" unicode="_"/><glyph d="M88 388v56q149 17 166 90t16.5 118t-14.5 123q-14 77 -7 125.5t37 117.5t114 128.5t188 61.5v-47q-231 -48 -217 -183.5t23 -185.5q21 -117 -36.5 -228.5t-173.5 -147.5q117 -36 174 -148t34 -239q-35 -201 26 -268t170 -90v-47q-159 3 -242 105.5t-93.5 176.5t3.5 149 t14.5 195.5t-182.5 137.5z" horiz-adv-x="672" unicode="{"/><glyph d="M88 -329q231 49 217 184t-23 185q-21 116 35.5 228.5t174.5 147.5q-118 35 -174.5 147t-33.5 240q36 200 -25 267.5t-171 90.5v47q79 -1 147 -37t142.5 -128.5t46.5 -239.5q-19 -106 -19 -174.5t40 -121t143 -63.5v-56q-183 -17 -182.5 -135t16.5 -208q16 -89 -5 -161 t-67.5 -129.5t-114.5 -93.5t-147 -37v47z" horiz-adv-x="677" unicode="}"/><glyph d="M79 583q0 236 140 433l46 -17q-83 -192 -83 -414t83 -414l-46 -15q-140 191 -140 427zM286 581q0 236 140 433l46 -17q-83 -192 -83 -414t83 -414l-46 -15q-140 191 -140 427z" horiz-adv-x="578" unicode="«"/><glyph d="M82 375v87h638v-87h-638z" unicode="­"/><glyph d="M53 980q0 40 14.5 75.5t39.5 61.5t58.5 41.5t71.5 15.5t72 -15.5t59 -41.5t39.5 -61.5t14.5 -75.5t-14.5 -75t-39.5 -61.5t-59 -41.5t-72 -15t-71.5 15t-58.5 41.5t-39.5 61.5t-14.5 75zM119 980q0 -26 9 -48t25 -39t37.5 -26.5t46.5 -9.5t46.5 9.5t37.5 26.5t25.5 39 t9.5 48t-9.5 48.5t-25.5 39.5t-37.5 26.5t-46.5 9.5t-46.5 -9.5t-37.5 -26.5t-25 -39.5t-9 -48.5z" horiz-adv-x="466" unicode="°"/><glyph d="M16.5 1164q1.5 164 127 283t348.5 119h523v-97h-143v-1677h-98v1677h-186v-1677h-96v969q-225 0 -351 119.5t-124.5 283.5z" horiz-adv-x="1039" unicode="¶"/><glyph d="M169 791q1 94 97 94t96 -95t-97 -95q-42 0 -69 22t-27 74z" horiz-adv-x="532" unicode="·"/><glyph d="M109 169q83 192 83 414t-83 414l46 17q140 -197 140 -433t-140 -427zM316 171q83 192 83 414t-83 414l46 17q140 -197 140 -433t-140 -427z" horiz-adv-x="585" unicode="»"/><glyph d="M93 853l109 110l339 -339l337 336l107 -107l-337 -336l337 -337l-110 -109l-336 336l-337 -336l-107 107l337 337z" horiz-adv-x="1094" unicode="×"/><glyph d="M96 431v102h891v-102h-891zM439 187q0 32 8 51t21.5 33t32.5 22t40 8t40 -8t33 -22t22 -33t8 -51.5t-30.5 -61.5t-72.5 -29q-43 0 -72.5 29.5t-29.5 61.5zM439 754q0 32 8 51t21.5 33t32.5 22t40 8t40 -8t33 -22t22 -33t8 -51.5t-30.5 -61.5t-72.5 -29q-43 0 -72.5 29.5 t-29.5 61.5z" horiz-adv-x="1081" unicode="÷"/><glyph horiz-adv-x="783"/><glyph horiz-adv-x="1566"/><glyph horiz-adv-x="783"/><glyph horiz-adv-x="1566"/><glyph horiz-adv-x="522"/><glyph horiz-adv-x="391"/><glyph horiz-adv-x="261"/><glyph horiz-adv-x="261"/><glyph horiz-adv-x="195"/><glyph horiz-adv-x="313"/><glyph horiz-adv-x="87"/><glyph d="M82 375v87h638v-87h-638z" unicode="‐"/><glyph d="M82 375v87h638v-87h-638z" unicode="‑"/><glyph d="M82 375v87h638v-87h-638z" unicode="‒"/><glyph d="M82 375v87h1024v-87h-1024z" horiz-adv-x="1190" unicode="–"/><glyph d="M82 375v87h2048v-87h-2048z" horiz-adv-x="2214" unicode="—"/><glyph d="M91 1131q-10 81 11 145q40 118 130 176q52 34 65 14q8 -8 -21 -38q-100 -86 -111 -186q-4 -36 10 -72q59 41 120 3q50 -28 50 -86t-45 -93q-32 -21 -72 -19t-70 27q-57 48 -67 129z" horiz-adv-x="438" unicode="‘"/><glyph d="M86 1361q0 58 45 93q33 21 73 19t69 -27q57 -48 68 -130t-11 -144q-40 -118 -131 -176q-52 -34 -65 -14q-8 8 21 38q100 86 111 186q4 36 -10 72q-59 -41 -120 -3q-50 28 -50 86z" horiz-adv-x="424" unicode="’"/><glyph d="M91 1131q-10 81 11 145q40 118 130 176q52 34 65 14q8 -8 -21 -38q-100 -86 -111 -186q-4 -36 10 -72q59 41 120 3q50 -28 50 -86t-45 -93q-32 -21 -72 -19t-70 27q-57 48 -67 129zM501 1131q-10 81 11 145q40 118 130 176q52 34 65 14q8 -8 -21 -38q-100 -86 -111 -186 q-4 -36 10 -72q59 41 120 3q50 -28 50 -86t-45 -93q-32 -21 -72 -19t-70 27q-57 48 -67 129z" horiz-adv-x="832" unicode="“"/><glyph d="M65 1363q0 58 45 93q32 21 72 19t70 -27q57 -48 67 -129t-11 -145q-40 -118 -130 -176q-52 -34 -65 -14q-8 8 21 38q100 86 111 186q4 36 -10 72q-59 -41 -120 -3q-50 28 -50 86zM475 1363q0 58 45 93q32 21 72 19t70 -27q57 -48 67 -129t-11 -145q-40 -118 -130 -176 q-52 -34 -65 -14q-8 8 21 38q100 86 111 186q4 36 -10 72q-59 -41 -120 -3q-50 28 -50 86z" horiz-adv-x="827" unicode="”"/><glyph horiz-adv-x="313"/><glyph d="M71 577l309 381l30 -12l-194 -369l194 -369l-30 -12z" horiz-adv-x="484" unicode="‹"/><glyph d="M71 208l194 369l-194 369l30 12l309 -381l-309 -381z" horiz-adv-x="469" unicode="›"/><glyph horiz-adv-x="391"/><glyph d="M0 0z" horiz-adv-x="500" unicode="◼"/></font>
</defs>
</svg>
