<?xml version="1.0" standalone="no"?>
<!DOCTYPE svg PUBLIC "-//W3C//DTD SVG 1.1//EN" "http://www.w3.org/Graphics/SVG/1.1/DTD/svg11.dtd" >
<svg xmlns="http://www.w3.org/2000/svg" xmlns:xlink="http://www.w3.org/1999/xlink" version="1.1">
<metadata></metadata>
<defs>
<font id="tajawalextralight" horiz-adv-x="0" >
<font-face units-per-em="1000" ascent="645" descent="-355" />
<missing-glyph horiz-adv-x="213" />
<glyph unicode="ff" horiz-adv-x="572" d="M387 453v70q0 57 27 89t76 32q28 0 67 -21l-12 -22q-33 21 -56 21q-75 0 -75 -97v-72h97v-22h-97v-431h-27v431h-259v-431h-27v431h-59v22h59v70q0 57 27 89t76 32q28 0 67 -21l-12 -22q-33 21 -56 21q-75 0 -75 -97v-72h259z" />
<glyph unicode="fi" horiz-adv-x="489" d="M399 454v-454h-27v431h-244v-431h-27v431h-59v22h59v70q0 57 27 89t76 32q28 0 67 -21l-12 -22q-33 21 -56 21q-75 0 -75 -97v-72zM360 617q0 28 28 28q27 0 27 -28q0 -27 -27 -27q-28 0 -28 27z" />
<glyph unicode="fl" horiz-adv-x="473" d="M42 453h59v70q0 57 27 89t76 32q28 0 67 -21l-12 -22q-33 21 -56 21q-75 0 -75 -97v-72h97v-22h-97v-431h-27v431h-59v22zM391 645v-645h-27v630z" />
<glyph unicode="ffi" horiz-adv-x="775" d="M387 453v70q0 57 27 89t76 32q28 0 67 -21l-12 -22q-33 21 -56 21q-75 0 -75 -97v-72h244v1h27v-454h-27v431h-244v-431h-27v431h-259v-431h-27v431h-59v22h59v70q0 57 27 89t76 32q28 0 67 -21l-12 -22q-33 21 -56 21q-75 0 -75 -97v-72h259zM646 617q0 28 28 28 q27 0 27 -28q0 -27 -27 -27q-28 0 -28 27z" />
<glyph unicode="&#x627;&#xfedf;&#xfee0;&#xfeea;" horiz-adv-x="1283" arabic-form="isolated" d="M664 949v-94l-16 -9v94zM657 702q-14 -17 -36 -17q-42 0 -42 44v13l16 9v-23q0 -26 27 -26q26 0 26 22v33l17 9v-42q0 -22 27 -22q26 0 26 26v39l16 9v-47q0 -44 -42 -44q-23 0 -35 17zM958 565l28 14v-420q0 -74 -41.5 -116.5t-113.5 -42.5h-25q-107 0 -145 88 q-34 -88 -141 -88h-25q-121 0 -151 107q-57 -73 -146 -73q-82 0 -128 62q-40 54 -40 137q0 95 51 150q45 50 118 50q86 0 137 -61v79l27 15v-302q0 -142 138 -142h12q134 0 134 138v405l27 14v-415q0 -142 138 -142h12q134 0 134 138v405zM336 334q-56 76 -139 76 q-62 0 -100.5 -48.5t-38.5 -127.5q0 -80 40 -129q38 -46 99 -46q84 0 141 77q-2 18 -2 29v169zM1166 0v631l27 14v-645h-27z" />
<glyph unicode="&#xfedf;&#xfe82;" horiz-adv-x="559" arabic-form="isolated" d="M441 631l28 14v-486q0 -74 -41.5 -116.5t-112.5 -42.5h-295l12 22h166v479l27 14v-493h83q133 0 133 138v471zM292 624q-20 -43 -50 -43q-23 0 -49 20q-18 14 -29 14q-17 0 -35 -29l-16 5q20 43 50 43q19 0 41 -18q20 -16 37 -16q18 0 35 29z" />
<glyph unicode="&#xfee0;&#xfe82;" horiz-adv-x="607" arabic-form="final" d="M606 22h11v-22h-17q-108 0 -144 87q-36 -87 -141 -87h-295l12 22h166v479l27 14v-493h83q133 0 133 138v471l28 14v-486v-13q8 -124 137 -124zM292 624q-20 -43 -50 -43q-23 0 -49 20q-18 14 -29 14q-17 0 -35 -29l-16 5q20 43 50 43q19 0 41 -18q20 -16 37 -16 q18 0 35 29z" />
<glyph unicode="&#xfedf;&#xfe84;" horiz-adv-x="559" arabic-form="isolated" d="M261 631l-11 -20h-133l11 20h22q-9 16 -9 32q0 26 20 45.5t46 19.5q16 0 33 -9v-24q-16 11 -32 11q-17 0 -29.5 -11.5t-12.5 -26.5q0 -19 15 -37h80zM441 631l28 14v-486q0 -74 -41.5 -116.5t-112.5 -42.5h-295l12 22h166v479l27 14v-493h83q133 0 133 138v471z" />
<glyph unicode="&#xfee0;&#xfe84;" horiz-adv-x="607" arabic-form="final" d="M261 631l-11 -20h-133l11 20h22q-9 16 -9 32q0 26 20 45.5t46 19.5q16 0 33 -9v-24q-16 11 -32 11q-17 0 -29.5 -11.5t-12.5 -26.5q0 -19 15 -37h80zM606 22h11v-22h-17q-108 0 -144 87q-36 -87 -141 -87h-295l12 22h166v479l27 14v-493h83q133 0 133 138v471l28 14v-486 v-13q8 -124 137 -124z" />
<glyph unicode="&#xfedf;&#xfe88;" horiz-adv-x="559" arabic-form="isolated" d="M441 631l28 14v-486q0 -74 -41.5 -116.5t-112.5 -42.5h-295l12 22h166v479l27 14v-493h83q133 0 133 138v471zM245 -138q-16 11 -32 11q-17 0 -29.5 -11.5t-12.5 -26.5q0 -19 15 -37h80l-11 -20h-133l11 20h22q-9 16 -9 32q0 26 20 45.5t46 19.5q16 0 33 -9v-24z" />
<glyph unicode="&#xfee0;&#xfe88;" horiz-adv-x="607" arabic-form="final" d="M606 22h11v-22h-17q-108 0 -144 87q-36 -87 -141 -87h-295l12 22h166v479l27 14v-493h83q133 0 133 138v471l28 14v-486v-13q8 -124 137 -124zM245 -138q-16 11 -32 11q-17 0 -29.5 -11.5t-12.5 -26.5q0 -19 15 -37h80l-11 -20h-133l11 20h22q-9 16 -9 32q0 26 20 45.5 t46 19.5q16 0 33 -9v-24z" />
<glyph unicode="&#xfedf;&#xfe8e;" horiz-adv-x="559" arabic-form="isolated" d="M441 631l28 14v-486q0 -74 -41.5 -116.5t-112.5 -42.5h-295l12 22h166v479l27 14v-493h83q133 0 133 138v471z" />
<glyph unicode="&#xfee0;&#xfe8e;" horiz-adv-x="607" arabic-form="final" d="M606 22h11v-22h-17q-108 0 -144 87q-36 -87 -141 -87h-295l12 22h166v479l27 14v-493h83q133 0 133 138v471l28 14v-486v-13q8 -124 137 -124z" />
<glyph unicode="&#x67e;" horiz-adv-x="898" arabic-form="final" d="M897 22h11v-22h-17q-109 0 -145 89q-37 -89 -147 -89h-357q-70 0 -111 44t-41 118v151l28 15v-158q0 -148 137 -148h341q136 0 136 148v233l27 15v-254q0 -142 138 -142zM399 -116q22 0 22 -24t-22 -24q-24 0 -24 24t24 24zM486 -116q23 0 23 -24t-23 -24t-23 24t23 24z M442 -191q20 0 20 -23q0 -21 -20 -21q-21 0 -21 21q0 23 21 23z" />
<glyph unicode="&#x67e;" horiz-adv-x="256" arabic-form="initial" d="M-10 0v22h11q138 0 138 142v239l27 15v-253q0 -79 -45 -123q-42 -42 -114 -42h-17zM26 -163q-23 0 -23 23q0 25 23 25t23 -25q0 -23 -23 -23zM114 -163q-23 0 -23 23q0 25 23 25t23 -25q0 -23 -23 -23zM70 -235q-21 0 -21 22t21 22q20 0 20 -22t-20 -22z" />
<glyph unicode="&#x67e;" horiz-adv-x="305" arabic-form="medial" d="M304 22h11v-22h-17q-108 0 -145 90q-37 -90 -146 -90h-17v22h11q138 0 138 142v239l27 15v-254q0 -142 138 -142zM58 -115q23 0 23 -25q0 -23 -23 -23t-23 23q0 25 23 25zM146 -115q22 0 22 -25q0 -23 -22 -23q-24 0 -24 23q0 25 24 25zM102 -191q20 0 20 -22t-20 -22 q-22 0 -22 22t22 22z" />
<glyph unicode="&#x6a4;" horiz-adv-x="925" arabic-form="final" d="M664 652q-21 0 -21 22t21 22q20 0 20 -22t-20 -22zM621 576q-24 0 -24 25q0 23 24 23q22 0 22 -23q0 -25 -22 -25zM708 576q-23 0 -23 25q0 23 23 23t23 -23q0 -25 -23 -25zM715 22h220v-22h-220q-21 0 -50 6q-28 -6 -50 -6h-373q-70 0 -111 44t-41 118v151l28 15v-158 q0 -148 137 -148h361h4q-57 28 -92.5 85t-35.5 121q0 95 51 149q46 49 122 49q87 0 134 -63q39 -52 39 -135q0 -64 -35 -121t-92 -85h4zM651 33l14 -5q2 1 7 3q5 1 7 2q60 21 97.5 75t37.5 118q0 82 -42 131q-40 46 -107 46t-107.5 -48.5t-40.5 -128.5q0 -64 37.5 -118 t96.5 -75z" />
<glyph unicode="&#x6a4;" horiz-adv-x="522" arabic-form="initial" d="M282 652q-21 0 -21 22t21 22q20 0 20 -22t-20 -22zM239 576q-24 0 -24 25q0 23 24 23q22 0 22 -23q0 -25 -22 -25zM326 576q-23 0 -23 25q0 23 23 23t23 -23q0 -25 -23 -25zM-10 0v22h189q-70 62 -70 190q0 106 53 164q46 50 123 50q73 0 115 -43.5t42 -120.5v-101 q-2 -75 -44 -118t-115 -43h-293zM415 252q0 151 -130 151q-70 0 -109 -51t-39 -141q0 -86 39 -139q38 -50 98 -50q141 0 141 144v86z" />
<glyph unicode="&#x6a4;" horiz-adv-x="544" arabic-form="medial" d="M282 652q-21 0 -21 22t21 22q20 0 20 -22t-20 -22zM239 576q-24 0 -24 25q0 23 24 23q22 0 22 -23q0 -25 -22 -25zM326 576q-23 0 -23 25q0 23 23 23t23 -23q0 -25 -23 -25zM321 22h233v-22h-232q-21 0 -50 6q-28 -6 -50 -6h-232v22h232h5q-57 28 -92.5 85t-35.5 121 q0 95 51 149q46 49 122 49q87 0 134 -63q39 -52 39 -135q0 -64 -35.5 -121t-92.5 -85h4zM258 33l14 -5q2 1 7 3q5 1 7 2q59 21 96.5 75t37.5 118q0 82 -42 131q-39 46 -106 46q-68 0 -108.5 -48.5t-40.5 -128.5q0 -64 38 -118t97 -75z" />
<glyph unicode="&#x649;" horiz-adv-x="256" arabic-form="initial" d="M-10 0v22h11q138 0 138 142v239l27 15v-253q0 -79 -45 -123q-42 -42 -114 -42h-17z" />
<glyph unicode="&#x649;" horiz-adv-x="305" arabic-form="medial" d="M304 22h11v-22h-17q-108 0 -145 90q-37 -90 -146 -90h-17v22h11q138 0 138 142v239l27 15v-254q0 -142 138 -142z" />
<glyph unicode="&#xfc59;" horiz-adv-x="949" arabic-form="isolated" d="M627 0q-5 -82 -82 -136q-76 -54 -200 -54q-146 0 -220 86q-55 64 -55 159q0 90 48 155l29 6q-54 -76 -54 -166q0 -97 71 -158q69 -58 181 -58q129 0 199 60q52 44 56 106h-106l11 22h189q138 0 138 142v239l27 15v-253q0 -79 -45 -123q-42 -42 -114 -42h-73zM715 -163 q-24 0 -24 25q0 23 24 23q22 0 22 -23q0 -25 -22 -25zM802 -163q-23 0 -23 25q0 23 23 23t23 -23q0 -25 -23 -25z" />
<glyph unicode="&#xfc5a;" horiz-adv-x="949" arabic-form="isolated" d="M627 0q-5 -82 -82 -136q-76 -54 -200 -54q-146 0 -220 86q-55 64 -55 159q0 90 48 155l29 6q-54 -76 -54 -166q0 -97 71 -158q69 -58 181 -58q129 0 199 60q52 44 56 106h-106l11 22h189q138 0 138 142v239l27 15v-253q0 -79 -45 -123q-42 -42 -114 -42h-73zM291 -331 q-23 0 -23 24t23 24t23 -24t-23 -24zM379 -331q-23 0 -23 24t23 24t23 -24t-23 -24zM715 -163q-24 0 -24 25q0 23 24 23q22 0 22 -23q0 -25 -22 -25zM802 -163q-23 0 -23 25q0 23 23 23t23 -23q0 -25 -23 -25z" />
<glyph unicode="&#xfc5e;" arabic-form="isolated" d="M40 731l-22 -36l-10 1l30 49h13q15 -42 56 -42q8 0 16 2q-38 16 -38 58q0 18 11.5 30.5t29.5 12.5q42 0 42 -43q0 -31 -19.5 -52t-48.5 -21q-45 0 -60 41zM132 715q20 17 20 44q0 35 -26 35t-26 -35q0 -32 32 -44zM137 608v39l16 9v-47q0 -44 -42 -44q-23 0 -35 17 q-14 -17 -36 -17q-42 0 -42 44v13l16 9v-23q0 -26 27 -26q26 0 26 22v33l17 9v-42q0 -22 27 -22q26 0 26 26z" />
<glyph unicode="&#xfc5f;" arabic-form="isolated" d="M69 712q-14 -17 -36 -17q-42 0 -42 44v13l16 9v-23q0 -26 27 -26q26 0 26 22v33l17 9v-42q0 -22 27 -22q26 0 26 26v39l16 9v-47q0 -44 -42 -44q-23 0 -35 17zM7 607l7 16l139 26l-7 -16zM0 565l8 16l139 26l-8 -16z" />
<glyph unicode="&#xfc60;" arabic-form="isolated" d="M145 745l-8 -16l-139 -26l8 16zM137 647l16 9v-47q0 -44 -42 -44q-23 0 -35 17q-14 -17 -36 -17q-42 0 -42 44v13l16 9v-23q0 -26 27 -26q26 0 26 22v33l17 9v-42q0 -22 27 -22q26 0 26 26v39z" />
<glyph unicode="&#xfc61;" arabic-form="isolated" d="M93 727q-22 18 -22 49q0 18 11.5 30.5t29.5 12.5q42 0 42 -43q0 -57 -48 -65l-108 -20l9 19zM114 729q24 16 24 43q0 34 -26 34t-26 -34q0 -30 28 -43zM137 608v39l16 9v-47q0 -44 -42 -44q-23 0 -35 17q-14 -17 -36 -17q-42 0 -42 44v13l16 9v-23q0 -26 27 -26 q26 0 26 22v33l17 9v-42q0 -22 27 -22q26 0 26 26z" />
<glyph unicode="&#xfc62;" arabic-form="isolated" d="M134 719l16 9v-47q0 -44 -42 -44q-23 0 -35 17q-14 -17 -36 -17q-42 0 -42 44v13l16 9v-23q0 -26 27 -26q26 0 26 22v33l17 9v-42q0 -22 27 -22q26 0 26 26v39zM0 565l8 16l139 26l-8 -16z" />
<glyph unicode="&#xfc63;" arabic-form="isolated" d="M155 824v-94l-16 -9v94zM148 577q-14 -17 -36 -17q-42 0 -42 44v13l16 9v-23q0 -26 27 -26q26 0 26 22v33l17 9v-42q0 -22 27 -22q26 0 26 26v39l16 9v-47q0 -44 -42 -44q-23 0 -35 17z" />
<glyph unicode="&#xfc95;" horiz-adv-x="983" arabic-form="final" d="M627 0q-5 -82 -82 -136q-76 -54 -200 -54q-146 0 -220 86q-55 64 -55 159q0 90 48 155l29 6q-54 -76 -54 -166q0 -97 71 -158q69 -58 181 -58q129 0 199 60q52 44 56 106h-106l11 22h174q138 0 138 142v239l27 15v-254q0 -142 138 -142h11v-22h-17q-108 0 -145 90 q-37 -90 -146 -90h-58zM775 -115q23 0 23 -25q0 -23 -23 -23t-23 23q0 25 23 25zM863 -115q22 0 22 -25q0 -23 -22 -23q-24 0 -24 23q0 25 24 25z" />
<glyph unicode="&#xfc96;" horiz-adv-x="983" arabic-form="final" d="M627 0q-5 -82 -82 -136q-76 -54 -200 -54q-146 0 -220 86q-55 64 -55 159q0 90 48 155l29 6q-54 -76 -54 -166q0 -97 71 -158q69 -58 181 -58q129 0 199 60q52 44 56 106h-106l11 22h174q138 0 138 142v239l27 15v-254q0 -142 138 -142h11v-22h-17q-108 0 -145 90 q-37 -90 -146 -90h-58zM291 -331q-23 0 -23 24t23 24t23 -24t-23 -24zM379 -331q-23 0 -23 24t23 24t23 -24t-23 -24zM775 -115q23 0 23 -25q0 -23 -23 -23t-23 23q0 25 23 25zM863 -115q22 0 22 -25q0 -23 -22 -23q-24 0 -24 23q0 25 24 25z" />
<glyph unicode="&#x622;" horiz-adv-x="256" arabic-form="final" d="M190 745q-20 -43 -50 -43q-23 0 -49 20q-18 14 -29 14q-17 0 -35 -29l-16 5q20 43 50 43q19 0 41 -18q20 -16 37 -16q18 0 35 29zM249 0q-74 0 -116.5 44t-42.5 121v465l27 15v-481q0 -142 138 -142h11v-22h-17z" />
<glyph unicode="&#x623;" horiz-adv-x="256" arabic-form="final" d="M30 657l11 21h22q-9 17 -9 33q0 25 20 44.5t45 19.5q17 0 34 -9v-24q-16 10 -32 10q-18 0 -30.5 -11.5t-12.5 -27.5q0 -18 16 -35h80l-11 -21h-133zM249 0q-74 0 -116.5 44t-42.5 121v425l27 15v-441q0 -142 138 -142h11v-22h-17z" />
<glyph unicode="&#x624;" horiz-adv-x="501" arabic-form="final" d="M285 580l-11 -20h-133l11 20h22q-9 16 -9 32q0 26 20 45.5t46 19.5q16 0 33 -9v-24q-16 11 -32 11q-17 0 -29.5 -11.5t-12.5 -26.5q0 -19 15 -37h80zM511 22v-22h-108v-4q0 -85 -62 -140q-54 -47 -127 -47q-55 0 -106 24v26q52 -27 105 -27t92 27q31 23 51 61.5t20 75.5 v4h-43q-34 1 -58 1q-215 0 -215 211q0 107 53 164q48 50 129 50q76 0 118.5 -43t42.5 -121v-240h108zM376 253q0 150 -134 150q-82 0 -122 -61q-32 -50 -32 -131q0 -181 185 -188q24 0 59 -1h44v231z" />
<glyph unicode="&#x625;" horiz-adv-x="256" arabic-form="final" d="M249 0q-74 0 -116.5 44t-42.5 121v465l27 15v-481q0 -142 138 -142h11v-22h-17zM95 -212l11 20h22q-9 16 -9 32q0 26 20 45.5t46 19.5q16 0 33 -9v-24q-16 11 -32 11q-17 0 -29.5 -11.5t-12.5 -26.5q0 -19 15 -37h80l-11 -20h-133z" />
<glyph unicode="&#x626;" horiz-adv-x="605" arabic-form="final" d="M126 338l11 20h23q-9 16 -9 33q0 25 19.5 44.5t45.5 19.5q16 0 33 -9v-24q-16 10 -33 10q-16 0 -28.5 -11.5t-12.5 -27.5q0 -18 15 -35h81l-11 -20h-134zM627 0q-5 -82 -82 -136q-76 -54 -200 -54q-146 0 -220 86q-55 64 -55 159q0 90 48 155l29 6q-54 -76 -54 -166 q0 -97 71 -158q69 -58 181 -58q129 0 199 60q52 44 56 106h-106l11 22h125v-22h-3z" />
<glyph unicode="&#x626;" horiz-adv-x="233" arabic-form="initial" d="M51 560l11 21h22q-9 16 -9 32q0 26 20 45.5t46 19.5q16 0 33 -9v-24q-16 10 -32 10q-18 0 -30 -11t-12 -27q0 -19 15 -36h80l-11 -21h-133zM-10 0v22h11q138 0 138 142v239l27 15v-253q0 -79 -45 -123q-42 -42 -114 -42h-17z" />
<glyph unicode="&#x626;" horiz-adv-x="305" arabic-form="medial" d="M213 581l-11 -21h-134l11 21h23q-9 17 -9 33q0 26 19.5 45t45.5 19q17 0 34 -9v-24q-17 10 -33 10q-17 0 -29.5 -11.5t-12.5 -27.5q0 -18 15 -35h81zM304 22h11v-22h-17q-108 0 -145 90q-37 -90 -146 -90h-17v22h11q138 0 138 142v239l27 15v-254q0 -142 138 -142z" />
<glyph unicode="&#x627;" horiz-adv-x="256" arabic-form="final" d="M249 0q-74 0 -116.5 44t-42.5 121v465l27 15v-481q0 -142 138 -142h11v-22h-17z" />
<glyph unicode="&#x628;" horiz-adv-x="878" arabic-form="final" d="M897 22h11v-22h-17q-109 0 -145 89q-37 -89 -147 -89h-357q-70 0 -111 44t-41 118v151l28 15v-158q0 -148 137 -148h341q136 0 136 148v233l27 15v-254q0 -142 138 -142zM366 -115q22 0 22 -24t-22 -24q-24 0 -24 24t24 24z" />
<glyph unicode="&#x628;" horiz-adv-x="256" arabic-form="initial" d="M-10 0v22h11q138 0 138 142v239l27 15v-253q0 -79 -45 -123q-42 -42 -114 -42h-17zM105 -163q-24 0 -24 24t24 24q22 0 22 -24t-22 -24z" />
<glyph unicode="&#x628;" horiz-adv-x="305" arabic-form="medial" d="M304 22h11v-22h-17q-108 0 -145 90q-37 -90 -146 -90h-17v22h11q138 0 138 142v239l27 15v-254q0 -142 138 -142zM130 -115q22 0 22 -24t-22 -24q-24 0 -24 24t24 24z" />
<glyph unicode="&#x629;" horiz-adv-x="502" arabic-form="final" d="M203 565q-24 0 -24 25q0 23 24 23q22 0 22 -23q0 -25 -22 -25zM290 565q-23 0 -23 25q0 23 23 23t23 -23q0 -25 -23 -25zM501 22h11v-22h-17q-119 0 -151 104q-56 -74 -146 -74q-82 0 -128 63q-40 54 -40 137q0 94 51 150q45 49 118 49q86 0 137 -60v79l27 14v-298 q0 -142 138 -142zM336 331q-55 75 -139 75q-62 0 -100.5 -48.5t-38.5 -126.5q0 -80 40 -129q38 -46 99 -46q85 0 141 77q-2 20 -2 32v166z" />
<glyph unicode="&#x62a;" horiz-adv-x="878" arabic-form="final" d="M351 465q-24 0 -24 25q0 23 24 23q22 0 22 -23q0 -25 -22 -25zM439 465q-24 0 -24 25q0 23 24 23q22 0 22 -23q0 -25 -22 -25zM897 22h11v-22h-17q-109 0 -145 89q-37 -89 -147 -89h-357q-70 0 -111 44t-41 118v151l28 15v-158q0 -148 137 -148h341q136 0 136 148v233 l27 15v-254q0 -142 138 -142z" />
<glyph unicode="&#x62a;" horiz-adv-x="256" arabic-form="initial" d="M55 570q-24 0 -24 25q0 23 24 23q22 0 22 -23q0 -25 -22 -25zM142 570q-23 0 -23 25q0 23 23 23t23 -23q0 -25 -23 -25zM-10 0v22h11q138 0 138 142v239l27 15v-253q0 -79 -45 -123q-42 -42 -114 -42h-17z" />
<glyph unicode="&#x62a;" horiz-adv-x="305" arabic-form="medial" d="M109 573q-24 0 -24 25q0 24 24 24q22 0 22 -24q0 -25 -22 -25zM197 573q-24 0 -24 25q0 24 24 24q22 0 22 -24q0 -25 -22 -25zM304 22h11v-22h-17q-108 0 -145 90q-37 -90 -146 -90h-17v22h11q138 0 138 142v239l27 15v-254q0 -142 138 -142z" />
<glyph unicode="&#x62b;" horiz-adv-x="878" arabic-form="final" d="M389 541q-25 0 -25 26q0 25 25 25q24 0 24 -25q0 -26 -24 -26zM346 465q-24 0 -24 25q0 23 24 23q22 0 22 -23q0 -25 -22 -25zM434 465q-24 0 -24 25q0 23 24 23q22 0 22 -23q0 -25 -22 -25zM897 22h11v-22h-17q-109 0 -145 89q-37 -89 -147 -89h-357q-70 0 -111 44 t-41 118v151l28 15v-158q0 -148 137 -148h341q136 0 136 148v233l27 15v-254q0 -142 138 -142z" />
<glyph unicode="&#x62b;" horiz-adv-x="256" arabic-form="initial" d="M98 646q-21 0 -21 22t21 22q20 0 20 -22t-20 -22zM55 570q-24 0 -24 25q0 23 24 23q22 0 22 -23q0 -25 -22 -25zM142 570q-23 0 -23 25q0 23 23 23t23 -23q0 -25 -23 -25zM-10 0v22h11q138 0 138 142v239l27 15v-253q0 -79 -45 -123q-42 -42 -114 -42h-17z" />
<glyph unicode="&#x62b;" horiz-adv-x="305" arabic-form="medial" d="M157 649q-25 0 -25 26q0 25 25 25q24 0 24 -25q0 -26 -24 -26zM114 573q-24 0 -24 25q0 24 24 24q22 0 22 -24q0 -25 -22 -25zM201 573q-23 0 -23 25q0 24 23 24t23 -24q0 -25 -23 -25zM304 22h11v-22h-17q-108 0 -145 90q-37 -90 -146 -90h-17v22h11q138 0 138 142v239 l27 15v-254q0 -142 138 -142z" />
<glyph unicode="&#x62c;" horiz-adv-x="660" arabic-form="final" d="M675 22h15v-22h-16q-90 0 -142.5 22t-96.5 79q-39 -15 -118 -29q-76 -13 -111 -27.5t-61 -41.5q-53 -58 -53 -154q0 -92 64 -150q56 -52 138 -52q123 0 183 50v-22q-79 -50 -180 -50q-107 0 -172 75q-55 63 -55 152q0 98 62 163q31 33 71.5 49.5t122.5 30.5 q93 16 137 37.5t75 66.5q-100 204 -251 204q-87 0 -160 -86v35q80 74 159 74h2q152 0 264 -208v-35q-42 -50 -99 -77q38 -47 87 -65.5t135 -18.5zM268 -152q0 26 26 26q25 0 25 -26q0 -27 -25 -27q-26 0 -26 27z" />
<glyph unicode="&#x62c;" horiz-adv-x="535" arabic-form="initial" d="M-10 0v22h100q245 0 380 177q-101 204 -250 204q-88 0 -161 -86v35q80 74 159 74h2q152 0 265 -208v-35q-143 -183 -396 -183h-99zM237 -163q-24 0 -24 24t24 24q22 0 22 -24t-22 -24z" />
<glyph unicode="&#x62c;" horiz-adv-x="627" arabic-form="medial" d="M622 22h15v-22h-16q-86 0 -137 19.5t-96 70.5q-125 -90 -299 -90h-99v22h100q245 0 380 177q-101 204 -250 204q-88 0 -161 -86v35q80 74 159 74h2q152 0 265 -208v-35q-33 -43 -80 -81q37 -45 85 -62.5t132 -17.5zM237 -115q22 0 22 -24t-22 -24q-24 0 -24 24t24 24z " />
<glyph unicode="&#x62d;" horiz-adv-x="680" arabic-form="final" d="M675 22h15v-22h-16q-90 0 -142.5 22t-96.5 79q-39 -15 -118 -29q-76 -13 -111 -27.5t-61 -41.5q-53 -58 -53 -154q0 -92 64 -150q56 -52 138 -52q123 0 183 50v-22q-79 -50 -180 -50q-107 0 -172 75q-55 63 -55 152q0 98 62 163q31 33 71.5 49.5t122.5 30.5 q93 16 137 37.5t75 66.5q-100 204 -251 204q-87 0 -160 -86v35q80 74 159 74h2q152 0 264 -208v-35q-42 -50 -99 -77q38 -47 87 -65.5t135 -18.5z" />
<glyph unicode="&#x62d;" horiz-adv-x="535" arabic-form="initial" d="M-10 0v22h100q245 0 380 177q-101 204 -250 204q-88 0 -161 -86v35q80 74 159 74h2q152 0 265 -208v-35q-143 -183 -396 -183h-99z" />
<glyph unicode="&#x62d;" horiz-adv-x="627" arabic-form="medial" d="M622 22h15v-22h-16q-86 0 -137 19.5t-96 70.5q-125 -90 -299 -90h-99v22h100q245 0 380 177q-101 204 -250 204q-88 0 -161 -86v35q80 74 159 74h2q152 0 265 -208v-35q-33 -43 -80 -81q37 -45 85 -62.5t132 -17.5z" />
<glyph unicode="&#x62e;" horiz-adv-x="680" arabic-form="final" d="M329 570q-24 0 -24 24t24 24q22 0 22 -24t-22 -24zM675 22h15v-22h-16q-90 0 -142.5 22t-96.5 79q-39 -15 -118 -29q-76 -13 -111 -27.5t-61 -41.5q-53 -58 -53 -154q0 -92 64 -150q56 -52 138 -52q123 0 183 50v-22q-79 -50 -180 -50q-107 0 -172 75q-55 63 -55 152 q0 98 62 163q31 33 71.5 49.5t122.5 30.5q93 16 137 37.5t75 66.5q-100 204 -251 204q-87 0 -160 -86v35q80 74 159 74h2q152 0 264 -208v-35q-42 -50 -99 -77q38 -47 87 -65.5t135 -18.5z" />
<glyph unicode="&#x62e;" horiz-adv-x="535" arabic-form="initial" d="M263 570q-24 0 -24 24t24 24q22 0 22 -24t-22 -24zM-10 0v22h100q245 0 380 177q-101 204 -250 204q-88 0 -161 -86v35q80 74 159 74h2q152 0 265 -208v-35q-143 -183 -396 -183h-99z" />
<glyph unicode="&#x62e;" horiz-adv-x="627" arabic-form="medial" d="M263 570q-24 0 -24 24t24 24q22 0 22 -24t-22 -24zM622 22h15v-22h-16q-86 0 -137 19.5t-96 70.5q-125 -90 -299 -90h-99v22h100q245 0 380 177q-101 204 -250 204q-88 0 -161 -86v35q80 74 159 74h2q152 0 265 -208v-35q-33 -43 -80 -81q37 -45 85 -62.5t132 -17.5z" />
<glyph unicode="&#x62f;" horiz-adv-x="499" arabic-form="final" d="M10 0l12 22h207q58 0 81 29.5t23 103.5q0 171 -143 251l13 21q158 -90 158 -259v-8v-3q0 -135 134 -135h14v-22h-21q-96 0 -138 70q-31 -70 -118 -70h-222z" />
<glyph unicode="&#x630;" horiz-adv-x="499" arabic-form="final" d="M208 570q-24 0 -24 24t24 24q22 0 22 -24t-22 -24zM10 0l12 22h207q58 0 81 29.5t23 103.5q0 171 -143 251l13 21q158 -90 158 -259v-8v-3q0 -135 134 -135h14v-22h-21q-96 0 -138 70q-31 -70 -118 -70h-222z" />
<glyph unicode="&#x631;" horiz-adv-x="327" arabic-form="final" d="M326 22h11v-22h-17q-89 0 -131 62v-24q0 -105 -53 -168q-50 -60 -137 -60q-55 0 -106 25v25q52 -27 105 -27q51 0 89 26q74 48 74 179v365l27 15v-1l1 1v-277q11 -119 137 -119z" />
<glyph unicode="&#x632;" horiz-adv-x="327" arabic-form="final" d="M167 570q-24 0 -24 24t24 24q22 0 22 -24t-22 -24zM326 22h11v-22h-17q-89 0 -131 62v-24q0 -105 -53 -168q-50 -60 -137 -60q-55 0 -106 25v25q52 -27 105 -27q51 0 89 26q74 48 74 179v365l27 15v-1l1 1v-277q11 -119 137 -119z" />
<glyph unicode="&#x633;" horiz-adv-x="1366" arabic-form="final" d="M1328 22h48v-22h-55q-107 0 -141 87q-37 -87 -145 -87h-27q-109 0 -145 89q-36 -89 -145 -89h-27q-90 0 -132 63v-24q0 -109 -75 -172q-67 -57 -172 -57q-123 0 -190 86q-52 66 -52 159q0 90 48 155l29 6q-54 -76 -54 -166q0 -96 66 -160q61 -58 153 -58q109 0 169 66 q51 55 51 141v277l27 15v-167q0 -142 137 -142h16q137 0 137 142v196l28 14v-210q0 -142 137 -142h16q137 0 137 142v239l27 15v-258q0 -138 134 -138z" />
<glyph unicode="&#x633;" horiz-adv-x="925" arabic-form="initial" d="M-10 0v22h45q137 0 137 142v152l27 15v-167q0 -142 138 -142h15q138 0 138 142v196l27 14v-210q0 -142 137 -142h16q137 0 137 142v239l28 15v-253q0 -78 -45 -123q-42 -42 -114 -42h-2h-25q-105 0 -146 80q-41 -80 -147 -80h-25q-104 0 -145 80q-41 -80 -146 -80h-50z " />
<glyph unicode="&#x633;" horiz-adv-x="1007" arabic-form="medial" d="M-10 0v22h45q137 0 137 142v152l27 15v-167q0 -142 138 -142h15q138 0 138 142v196l27 14v-210q0 -142 137 -142h16q137 0 137 142v239l28 15v-258q0 -138 133 -138h49v-22h-56q-101 0 -142 79q-40 -79 -145 -79h-25q-105 0 -146 80q-41 -80 -147 -80h-25q-104 0 -145 80 q-41 -80 -146 -80h-50z" />
<glyph unicode="&#x634;" horiz-adv-x="1366" arabic-form="final" d="M858 599q-21 0 -21 22t21 22q20 0 20 -22t-20 -22zM815 523q-24 0 -24 25q0 24 24 24q22 0 22 -24q0 -25 -22 -25zM903 523q-24 0 -24 25q0 24 24 24q22 0 22 -24q0 -25 -22 -25zM1328 22h48v-22h-55q-107 0 -141 87q-37 -87 -145 -87h-27q-109 0 -145 89 q-36 -89 -145 -89h-27q-90 0 -132 63v-24q0 -109 -75 -172q-67 -57 -172 -57q-123 0 -190 86q-52 66 -52 159q0 90 48 155l29 6q-54 -76 -54 -166q0 -96 66 -160q61 -58 153 -58q109 0 169 66q51 55 51 141v277l27 15v-167q0 -142 137 -142h16q137 0 137 142v196l28 14v-210 q0 -142 137 -142h16q137 0 137 142v239l27 15v-258q0 -138 134 -138z" />
<glyph unicode="&#x634;" horiz-adv-x="925" arabic-form="initial" d="M505 599q-22 0 -22 22t22 22q20 0 20 -22t-20 -22zM461 523q-23 0 -23 25q0 24 23 24t23 -24q0 -25 -23 -25zM549 523q-23 0 -23 25q0 24 23 24t23 -24q0 -25 -23 -25zM-10 0v22h45q137 0 137 142v152l27 15v-167q0 -142 138 -142h15q138 0 138 142v196l27 14v-210 q0 -142 137 -142h16q137 0 137 142v239l28 15v-253q0 -78 -45 -123q-42 -42 -114 -42h-2h-25q-105 0 -146 80q-41 -80 -147 -80h-25q-104 0 -145 80q-41 -80 -146 -80h-50z" />
<glyph unicode="&#x634;" horiz-adv-x="1007" arabic-form="medial" d="M505 599q-22 0 -22 22t22 22q20 0 20 -22t-20 -22zM461 523q-23 0 -23 25q0 24 23 24t23 -24q0 -25 -23 -25zM549 523q-23 0 -23 25q0 24 23 24t23 -24q0 -25 -23 -25zM-10 0v22h45q137 0 137 142v152l27 15v-167q0 -142 138 -142h15q138 0 138 142v196l27 14v-210 q0 -142 137 -142h16q137 0 137 142v239l28 15v-258q0 -138 133 -138h49v-22h-56q-101 0 -142 79q-40 -79 -145 -79h-25q-105 0 -146 80q-41 -80 -147 -80h-25q-104 0 -145 80q-41 -80 -146 -80h-50z" />
<glyph unicode="&#x635;" horiz-adv-x="1378" arabic-form="final" d="M1377 22h11v-22h-17q-109 0 -145 89q-37 -89 -146 -89h-389q-90 0 -132 63v-24q0 -109 -75 -172q-67 -57 -172 -57q-123 0 -190 86q-52 66 -52 159q0 90 48 155l29 6q-54 -76 -54 -166q0 -96 66 -160q61 -58 153 -58q109 0 169 66q51 55 51 141v277l27 15v-167 q0 -113 88 -136q28 158 121 271q103 127 247 127q108 0 171 -74q53 -63 53 -158v-28q0 -144 138 -144zM1075 22q137 0 137 148v24q0 98 -62 157q-54 52 -134 52q-140 0 -240 -137q-74 -99 -108 -242q18 -2 28 -2h379z" />
<glyph unicode="&#x635;" horiz-adv-x="924" arabic-form="initial" d="M255 27q28 158 121 272q103 127 246 127q108 0 171 -74q53 -63 53 -158v-32q0 -75 -42.5 -118.5t-116.5 -43.5h-389q-110 0 -145 89q-36 -89 -146 -89h-17v22h11q138 0 138 142v152l27 15v-167q0 -113 89 -137zM819 170v24q0 98 -62 157q-54 52 -134 52q-139 0 -240 -137 q-74 -100 -109 -242q18 -2 29 -2h379q137 0 137 148z" />
<glyph unicode="&#x635;" horiz-adv-x="985" arabic-form="medial" d="M984 22h11v-22h-17q-109 0 -145 89q-37 -89 -146 -89h-389q-110 0 -145 89q-36 -89 -146 -89h-17v22h11q138 0 138 142v152l27 15v-167q0 -113 89 -137q28 158 121 272q103 127 246 127q108 0 171 -74q53 -63 53 -158v-28q0 -144 138 -144zM682 22q137 0 137 148v24 q0 98 -62 157q-54 52 -134 52q-139 0 -240 -137q-74 -100 -109 -242q18 -2 29 -2h379z" />
<glyph unicode="&#x636;" horiz-adv-x="1378" arabic-form="final" d="M1007 570q-24 0 -24 24t24 24q22 0 22 -24t-22 -24zM1377 22h11v-22h-17q-109 0 -145 89q-37 -89 -146 -89h-389q-90 0 -132 63v-24q0 -109 -75 -172q-67 -57 -172 -57q-123 0 -190 86q-52 66 -52 159q0 90 48 155l29 6q-54 -76 -54 -166q0 -96 66 -160q61 -58 153 -58 q109 0 169 66q51 55 51 141v277l27 15v-167q0 -113 88 -136q28 158 121 271q103 127 247 127q108 0 171 -74q53 -63 53 -158v-28q0 -144 138 -144zM1075 22q137 0 137 148v24q0 98 -62 157q-54 52 -134 52q-140 0 -240 -137q-74 -99 -108 -242q18 -2 28 -2h379z" />
<glyph unicode="&#x636;" horiz-adv-x="924" arabic-form="initial" d="M634 570q-24 0 -24 24t24 24q22 0 22 -24t-22 -24zM255 27q28 158 121 272q103 127 246 127q108 0 171 -74q53 -63 53 -158v-32q0 -75 -42.5 -118.5t-116.5 -43.5h-389q-110 0 -145 89q-36 -89 -146 -89h-17v22h11q138 0 138 142v152l27 15v-167q0 -113 89 -137zM819 170 v24q0 98 -62 157q-54 52 -134 52q-139 0 -240 -137q-74 -100 -109 -242q18 -2 29 -2h379q137 0 137 148z" />
<glyph unicode="&#x636;" horiz-adv-x="985" arabic-form="medial" d="M634 570q-24 0 -24 24t24 24q22 0 22 -24t-22 -24zM984 22h11v-22h-17q-109 0 -145 89q-37 -89 -146 -89h-389q-110 0 -145 89q-36 -89 -146 -89h-17v22h11q138 0 138 142v152l27 15v-167q0 -113 89 -137q28 158 121 272q103 127 246 127q108 0 171 -74q53 -63 53 -158 v-28q0 -144 138 -144zM682 22q137 0 137 148v24q0 98 -62 157q-54 52 -134 52q-139 0 -240 -137q-74 -100 -109 -242q18 -2 29 -2h379z" />
<glyph unicode="&#x637;" horiz-adv-x="896" arabic-form="final" d="M895 22h11v-22h-17q-103 0 -141 80q-24 -80 -115 -80h-613l12 22h129v609l27 14v-523q48 134 133 215q93 89 212 89q107 0 170 -74q54 -64 54 -158v-28q0 -144 138 -144zM730 194q0 98 -62 157q-54 52 -134 52q-139 0 -242 -139q-77 -102 -109 -242h443q57 0 80.5 29.5 t23.5 101.5v41z" />
<glyph unicode="&#x637;" horiz-adv-x="839" arabic-form="initial" d="M191 119q47 134 133 217q94 90 213 90q107 0 170 -74q54 -64 54 -158v-41q0 -153 -124 -153h-647v22h174v609l27 14v-526zM734 194q0 98 -62 157q-54 52 -134 52q-139 0 -242 -139q-77 -102 -109 -242h443q57 0 80.5 29.5t23.5 101.5v41z" />
<glyph unicode="&#x637;" horiz-adv-x="900" arabic-form="medial" d="M899 22h11v-22h-17q-103 0 -141 80q-24 -80 -115 -80h-647v22h175v609l27 14v-523q48 134 133 215q93 89 212 89q107 0 170 -74q54 -64 54 -158v-28q0 -144 138 -144zM734 194q0 98 -62 157q-54 52 -134 52q-139 0 -242 -139q-77 -102 -109 -242h443q57 0 80.5 29.5 t23.5 101.5v41z" />
<glyph unicode="&#x638;" horiz-adv-x="896" arabic-form="final" d="M895 22h11v-22h-17q-103 0 -141 80q-24 -80 -115 -80h-613l12 22h129v609l27 14v-523q48 134 133 215q93 89 212 89q107 0 170 -74q54 -64 54 -158v-28q0 -144 138 -144zM730 194q0 98 -62 157q-54 52 -134 52q-139 0 -242 -139q-77 -102 -109 -242h443q57 0 80.5 29.5 t23.5 101.5v41zM525 570q-24 0 -24 24t24 24q22 0 22 -24t-22 -24z" />
<glyph unicode="&#x638;" horiz-adv-x="839" arabic-form="initial" d="M191 119q47 134 133 217q94 90 213 90q107 0 170 -74q54 -64 54 -158v-41q0 -153 -124 -153h-647v22h174v609l27 14v-526zM734 194q0 98 -62 157q-54 52 -134 52q-139 0 -242 -139q-77 -102 -109 -242h443q57 0 80.5 29.5t23.5 101.5v41zM530 570q-24 0 -24 24t24 24 q22 0 22 -24t-22 -24z" />
<glyph unicode="&#x638;" horiz-adv-x="900" arabic-form="medial" d="M899 22h11v-22h-17q-103 0 -141 80q-24 -80 -115 -80h-647v22h175v609l27 14v-523q48 134 133 215q93 89 212 89q107 0 170 -74q54 -64 54 -158v-28q0 -144 138 -144zM734 194q0 98 -62 157q-54 52 -134 52q-139 0 -242 -139q-77 -102 -109 -242h443q57 0 80.5 29.5 t23.5 101.5v41zM530 570q-24 0 -24 24t24 24q22 0 22 -24t-22 -24z" />
<glyph unicode="&#x639;" horiz-adv-x="649" arabic-form="final" d="M310 26q-15 -8 -48 -24q-83 -40 -113 -71q-44 -46 -44 -115q0 -72 50 -121q49 -48 127 -48q123 0 183 50v-22q-79 -50 -180 -50t-158 70q-44 53 -44 124q0 67 32 107.5t120 83.5q36 18 52 28q-97 54 -206 197q-8 11 -12 16v35q103 140 237 140q133 0 238 -142v-33 q-121 -152 -211 -212q43 -17 88 -17h238v-22h-236q-56 0 -113 26zM82 268q131 -170 226 -217q104 71 223 217q-42 63 -103 99t-125 36q-123 0 -221 -135z" />
<glyph unicode="&#x639;" horiz-adv-x="538" arabic-form="initial" d="M488 22v-22h-498v22h220q-111 53 -111 202q0 100 65 156q52 45 123 46q99 0 153 -74v-36q-53 87 -150 87h-3q-72 0 -117 -51q-44 -48 -44 -128q0 -92 53 -148q51 -54 134 -54h175z" />
<glyph unicode="&#x639;" horiz-adv-x="684" arabic-form="medial" d="M457 22h238l-1 -22h-235q-57 0 -116 28q-61 -28 -117 -28h-236v22h238q44 0 90 18q-95 54 -200 194q-8 11 -13 17v35q103 140 237 140q133 0 238 -142v-33q-5 -6 -13 -17q-105 -140 -200 -194q46 -18 90 -18zM117 268q128 -166 226 -216q94 48 224 216 q-41 62 -102.5 98.5t-125.5 36.5q-121 0 -222 -135z" />
<glyph unicode="&#x63a;" horiz-adv-x="649" arabic-form="final" d="M313 570q-24 0 -24 24t24 24q22 0 22 -24t-22 -24zM310 26q-15 -8 -48 -24q-83 -40 -113 -71q-44 -46 -44 -115q0 -72 50 -121q49 -48 127 -48q123 0 183 50v-22q-79 -50 -180 -50t-158 70q-44 53 -44 124q0 67 32 107.5t120 83.5q36 18 52 28q-97 54 -206 197 q-8 11 -12 16v35q103 140 237 140q133 0 238 -142v-33q-121 -152 -211 -212q43 -17 88 -17h238v-22h-236q-56 0 -113 26zM82 268q131 -170 226 -217q104 71 223 217q-42 63 -103 99t-125 36q-123 0 -221 -135z" />
<glyph unicode="&#x63a;" horiz-adv-x="538" arabic-form="initial" d="M281 570q-24 0 -24 24t24 24q22 0 22 -24t-22 -24zM488 22v-22h-498v22h220q-111 53 -111 202q0 100 65 156q52 45 123 46q99 0 153 -74v-36q-53 87 -150 87h-3q-72 0 -117 -51q-44 -48 -44 -128q0 -92 53 -148q51 -54 134 -54h175z" />
<glyph unicode="&#x63a;" horiz-adv-x="684" arabic-form="medial" d="M342 570q-24 0 -24 24t24 24q22 0 22 -24t-22 -24zM457 22h238l-1 -22h-235q-57 0 -116 28q-61 -28 -117 -28h-236v22h238q44 0 90 18q-95 54 -200 194q-8 11 -13 17v35q103 140 237 140q133 0 238 -142v-33q-5 -6 -13 -17q-105 -140 -200 -194q46 -18 90 -18zM117 268 q128 -166 226 -216q94 48 224 216q-41 62 -102.5 98.5t-125.5 36.5q-121 0 -222 -135z" />
<glyph unicode="&#x641;" horiz-adv-x="925" arabic-form="final" d="M670 574q-24 0 -24 24t24 24q22 0 22 -24t-22 -24zM715 22h220v-22h-220q-21 0 -50 6q-28 -6 -50 -6h-373q-70 0 -111 44t-41 118v151l28 15v-158q0 -148 137 -148h361h4q-57 28 -92.5 85t-35.5 121q0 95 51 149q46 49 122 49q87 0 134 -63q39 -52 39 -135 q0 -64 -35 -121t-92 -85h4zM651 33l14 -5q2 1 7 3q5 1 7 2q60 21 97.5 75t37.5 118q0 82 -42 131q-40 46 -107 46t-107.5 -48.5t-40.5 -128.5q0 -64 37.5 -118t96.5 -75z" />
<glyph unicode="&#x641;" horiz-adv-x="522" arabic-form="initial" d="M289 575q-24 0 -24 24t24 24q22 0 22 -24t-22 -24zM-10 0v22h189q-70 62 -70 190q0 106 53 164q46 50 123 50q73 0 115 -43.5t42 -120.5v-101q-2 -75 -44 -118t-115 -43h-293zM415 252q0 151 -130 151q-70 0 -109 -51t-39 -141q0 -86 39 -139q38 -50 98 -50 q141 0 141 144v86z" />
<glyph unicode="&#x641;" horiz-adv-x="544" arabic-form="medial" d="M276 575q-24 0 -24 24t24 24q22 0 22 -24t-22 -24zM321 22h233v-22h-232q-21 0 -50 6q-28 -6 -50 -6h-232v22h232h5q-57 28 -92.5 85t-35.5 121q0 95 51 149q46 49 122 49q87 0 134 -63q39 -52 39 -135q0 -64 -35.5 -121t-92.5 -85h4zM258 33l14 -5q2 1 7 3q5 1 7 2 q59 21 96.5 75t37.5 118q0 82 -42 131q-39 46 -106 46q-68 0 -108.5 -48.5t-40.5 -128.5q0 -64 38 -118t97 -75z" />
<glyph unicode="&#x642;" horiz-adv-x="722" arabic-form="final" d="M429 573q-24 0 -24 25q0 23 24 23q22 0 22 -23q0 -25 -22 -25zM516 573q-23 0 -23 25q0 23 23 23t23 -23q0 -25 -23 -25zM625 0q-16 -190 -280 -190q-146 0 -220 86q-55 64 -55 159q0 90 48 155l29 6q-54 -76 -54 -166q0 -99 71 -160q68 -58 181 -58q134 0 196 47 q52 40 59 120l-33 1q-158 2 -219 53q-57 48 -57 159q0 106 53 164q46 50 123 50q73 0 115 -43.5t42 -120.5v-240h108v-22h-107zM597 22v230q0 151 -130 151q-70 0 -109 -51t-39 -141q0 -104 54 -145.5t192 -44.5z" />
<glyph unicode="&#x642;" horiz-adv-x="522" arabic-form="initial" d="M242 573q-24 0 -24 25q0 23 24 23q22 0 22 -23q0 -25 -22 -25zM329 573q-23 0 -23 25q0 23 23 23t23 -23q0 -25 -23 -25zM-10 0v22h189q-70 62 -70 190q0 106 53 164q46 50 123 50q73 0 115 -43.5t42 -120.5v-101q-2 -75 -44 -118t-115 -43h-293zM415 252q0 151 -130 151 q-70 0 -109 -51t-39 -141q0 -86 39 -139q38 -50 98 -50q141 0 141 144v86z" />
<glyph unicode="&#x642;" horiz-adv-x="544" arabic-form="medial" d="M229 573q-24 0 -24 25q0 23 24 23q22 0 22 -23q0 -25 -22 -25zM316 573q-23 0 -23 25q0 23 23 23t23 -23q0 -25 -23 -25zM321 22h233v-22h-232q-21 0 -50 6q-28 -6 -50 -6h-232v22h232h5q-57 28 -92.5 85t-35.5 121q0 95 51 149q46 49 122 49q87 0 134 -63 q39 -52 39 -135q0 -64 -35.5 -121t-92.5 -85h4zM258 33l14 -5q2 1 7 3q5 1 7 2q59 21 96.5 75t37.5 118q0 82 -42 131q-39 46 -106 46q-68 0 -108.5 -48.5t-40.5 -128.5q0 -64 38 -118t97 -75z" />
<glyph unicode="&#x643;" horiz-adv-x="897" arabic-form="final" d="M896 22h11v-22h-17q-109 0 -145 89q-37 -89 -146 -89h-357q-70 0 -111 44t-41 118v151l28 15v-158q0 -148 137 -148h341q135 0 135 148v460l27 15v-481q0 -142 138 -142zM395 455q6 1 19 1q37 0 59 -19.5t22 -52.5q0 -28 -16.5 -45t-44.5 -17h-108l11 21h96q42 0 42 40 q0 50 -62 50q-23 0 -49 -8v22l80 89h22z" />
<glyph unicode="&#x643;" horiz-adv-x="452" arabic-form="initial" d="M104 389q29 6 60 6q89 0 149 -43q79 -57 79 -167v-22q0 -76 -43 -119.5t-117 -43.5h-242v22h239q135 0 135 149v14q0 90 -60 137q-54 43 -140 43q-55 0 -107 -18v28l243 270h31z" />
<glyph unicode="&#x643;" horiz-adv-x="520" arabic-form="medial" d="M529 22h1v-22h-7q-108 0 -145 88q-36 -88 -146 -88h-242v22h239q135 0 135 149v14q0 90 -62 139q-54 42 -139 42q-55 0 -106 -19v28l243 270h31l-228 -256q29 6 60 6q97 0 160 -50q69 -57 69 -160v-21q0 -142 137 -142z" />
<glyph unicode="&#x644;" horiz-adv-x="688" arabic-form="final" d="M687 22h11v-22h-17q-86 0 -128 58v-24q0 -106 -74 -168q-65 -56 -170 -56q-121 0 -187 86q-52 68 -52 161q0 90 49 154l27 5q-53 -76 -53 -164q0 -97 65 -161q61 -59 151 -59q107 0 166 64q50 54 50 138v94v503l28 14v-524q20 -99 134 -99z" />
<glyph unicode="&#x644;" horiz-adv-x="259" arabic-form="initial" d="M-10 0v22h18q134 0 134 138v471l27 14v-486q0 -74 -41 -116.5t-113 -42.5h-25z" />
<glyph unicode="&#x644;" horiz-adv-x="308" arabic-form="medial" d="M307 22h11v-22h-17q-107 0 -145 88q-34 -88 -141 -88h-25v22h18q134 0 134 138v471l27 14v-481q0 -142 138 -142z" />
<glyph unicode="&#x645;" horiz-adv-x="597" arabic-form="final" d="M595 22h12v-22h-17q-111 0 -146 92q-35 -89 -140 -92h-119q-138 0 -138 -142v-158l-27 -15v173q0 78 45 123q42 41 114 41h32q-86 52 -86 190q0 106 53 164q46 50 123 50q73 0 115 -43.5t42 -120.5v-98q0 -142 137 -142zM431 252q0 151 -130 151q-70 0 -109 -51t-39 -141 q0 -91 39 -142q37 -47 98 -47q141 0 141 146v84z" />
<glyph unicode="&#x645;" horiz-adv-x="547" arabic-form="initial" d="M139 262q0 77 41.5 120.5t115.5 43.5q88 0 135 -65q41 -56 41 -149q0 -105 -52 -162q-46 -50 -120 -50q-110 0 -147 91q-35 -91 -146 -91h-17v22h11q138 0 138 142v2v6v90zM166 168q0 -146 140 -146q64 0 101 50.5t37 138.5q0 93 -42 144q-38 48 -106 48 q-130 0 -130 -151v-84z" />
<glyph unicode="&#x645;" horiz-adv-x="629" arabic-form="medial" d="M627 22h12v-22h-17q-113 0 -148 96q-39 -116 -160 -116q-120 0 -159 116q-35 -96 -148 -96h-17v22h11q138 0 138 142v38q0 114 52 173q46 51 123 51q89 0 135 -67q41 -58 41 -157v-38q0 -142 137 -142zM314 2q67 0 108 54.5t41 144.5q0 100 -42 153q-38 49 -107 49 q-71 0 -109.5 -52.5t-38.5 -149.5q0 -99 41 -151q38 -48 107 -48z" />
<glyph unicode="&#x646;" horiz-adv-x="698" arabic-form="final" d="M312 472q-24 0 -24 24t24 24q22 0 22 -24t-22 -24zM697 22h11v-22h-17q-89 0 -132 64v-25q0 -109 -75 -172q-67 -57 -172 -57q-123 0 -190 86q-52 66 -52 159q0 90 48 155l29 6q-54 -76 -54 -166q0 -96 66 -160q61 -58 153 -58q109 0 169 66q51 55 51 141v364l27 15v-254 q0 -142 138 -142z" />
<glyph unicode="&#x646;" horiz-adv-x="256" arabic-form="initial" d="M143 570q-24 0 -24 24t24 24q22 0 22 -24t-22 -24zM-10 0v22h11q138 0 138 142v239l27 15v-253q0 -79 -45 -123q-42 -42 -114 -42h-17z" />
<glyph unicode="&#x646;" horiz-adv-x="305" arabic-form="medial" d="M150 570q-24 0 -24 24t24 24q22 0 22 -24t-22 -24zM304 22h11v-22h-17q-108 0 -145 90q-37 -90 -146 -90h-17v22h11q138 0 138 142v239l27 15v-254q0 -142 138 -142z" />
<glyph unicode="&#x647;" horiz-adv-x="502" arabic-form="final" d="M501 22h11v-22h-17q-119 0 -151 104q-56 -74 -146 -74q-82 0 -128 63q-40 54 -40 137q0 94 51 150q45 49 118 49q86 0 137 -60v79l27 14v-298q0 -142 138 -142zM336 331q-55 75 -139 75q-62 0 -100.5 -48.5t-38.5 -126.5q0 -80 40 -129q38 -46 99 -46q85 0 141 77 q-2 20 -2 32v166z" />
<glyph unicode="&#x647;" horiz-adv-x="588" arabic-form="initial" d="M92 281q19 95 86 144q52 39 118 39q92 0 155 -69q60 -65 60 -166v-67q0 -75 -42.5 -118.5t-115.5 -43.5h-81q-35 0 -65 10q-30 -10 -63 -10h-154v22h154q10 0 28 2q-102 51 -102 166q0 54 22 91zM483 170v59q0 103 -67 163q-53 48 -123 48q-120 0 -168 -121q34 26 83 26 q62 0 99.5 -42.5t37.5 -112.5q0 -115 -103 -166q20 -2 30 -2h75q136 0 136 148zM208 31q110 35 110 156q0 58 -30 93t-80 35q-51 0 -81 -34.5t-30 -93.5q0 -121 111 -156z" />
<glyph unicode="&#x647;" horiz-adv-x="649" arabic-form="medial" d="M648 22h11v-22h-17q-107 0 -145 88q-36 -88 -144 -88h-81q-35 0 -65 10q-30 -10 -63 -10h-154v22h154q10 0 28 2q-102 51 -102 166q0 54 22 91q19 95 86 144q52 39 118 39q92 0 155 -69q60 -65 60 -166v-65q0 -142 137 -142zM347 22q136 0 136 148v59q0 103 -67 163 q-53 48 -123 48q-120 0 -168 -121q34 26 83 26q62 0 99.5 -42.5t37.5 -112.5q0 -115 -103 -166q20 -2 30 -2h75zM208 31q110 35 110 156q0 58 -30 93t-80 35q-51 0 -81 -34.5t-30 -93.5q0 -121 111 -156z" />
<glyph unicode="&#x648;" horiz-adv-x="501" arabic-form="final" d="M511 22v-22h-108v-4q0 -85 -62 -140q-54 -47 -127 -47q-55 0 -106 24v26q52 -27 105 -27t92 27q31 23 51 61.5t20 75.5v4h-43q-34 1 -58 1q-215 0 -215 211q0 107 53 164q48 50 129 50q76 0 118.5 -43t42.5 -121v-240h108zM376 253q0 150 -134 150q-82 0 -122 -61 q-32 -50 -32 -131q0 -181 185 -188q24 0 59 -1h44v231z" />
<glyph unicode="&#x649;" horiz-adv-x="605" arabic-form="final" d="M627 0q-5 -82 -82 -136q-76 -54 -200 -54q-146 0 -220 86q-55 64 -55 159q0 90 48 155l29 6q-54 -76 -54 -166q0 -97 71 -158q69 -58 181 -58q129 0 199 60q52 44 56 106h-106l11 22h125v-22h-3z" />
<glyph unicode="&#x64a;" horiz-adv-x="605" arabic-form="final" d="M627 0q-5 -82 -82 -136q-76 -54 -200 -54q-146 0 -220 86q-55 64 -55 159q0 90 48 155l29 6q-54 -76 -54 -166q0 -97 71 -158q69 -58 181 -58q129 0 199 60q52 44 56 106h-106l11 22h125v-22h-3zM291 -331q-23 0 -23 24t23 24t23 -24t-23 -24zM379 -331q-23 0 -23 24 t23 24t23 -24t-23 -24z" />
<glyph unicode="&#x64a;" horiz-adv-x="256" arabic-form="initial" d="M-10 0v22h11q138 0 138 142v239l27 15v-253q0 -79 -45 -123q-42 -42 -114 -42h-17zM22 -163q-24 0 -24 25q0 23 24 23q22 0 22 -23q0 -25 -22 -25zM109 -163q-23 0 -23 25q0 23 23 23t23 -23q0 -25 -23 -25z" />
<glyph unicode="&#x64a;" horiz-adv-x="305" arabic-form="medial" d="M304 22h11v-22h-17q-108 0 -145 90q-37 -90 -146 -90h-17v22h11q138 0 138 142v239l27 15v-254q0 -142 138 -142zM97 -115q23 0 23 -25q0 -23 -23 -23t-23 23q0 25 23 25zM185 -115q22 0 22 -25q0 -23 -22 -23q-24 0 -24 23q0 25 24 25z" />
<glyph />
<glyph horiz-adv-x="213" />
<glyph unicode=" "  horiz-adv-x="213" />
<glyph unicode="&#x09;" horiz-adv-x="213" />
<glyph unicode="&#xa0;" horiz-adv-x="213" />
<glyph unicode="!" horiz-adv-x="174" d="M73 131v502h27v-502h-27zM87 -1q-21 0 -21 22q0 23 21 23t21 -22q0 -23 -21 -23z" />
<glyph unicode="&#x22;" horiz-adv-x="222" d="M70 519v113l24 13v-113zM129 519v113l23 13v-113z" />
<glyph unicode="#" horiz-adv-x="497" d="M344 158l-32 -158h-27l31 158h-188l-32 -158h-28l33 158h-86v22h91l50 252h-105v22h109l32 155h27l-31 -155h189l31 155h28l-32 -155h78v-22h-82l-50 -252h97v-22h-103zM184 432l-51 -252h190l50 252h-189z" />
<glyph unicode="$" horiz-adv-x="493" d="M244 644v56h27v-57q57 -3 128 -42l-16 -21q-69 35 -112 36v-269q86 -37 121.5 -77.5t35.5 -100.5q0 -81 -49 -126q-40 -36 -108 -52v-65h-27v63h-7q-84 0 -175 55l14 19q99 -48 153 -48q7 0 15 1v312q-4 2 -15 6l-6 2q-87 30 -122 59q-41 33 -43 98q1 79 69 122 q46 29 117 29zM244 617q-65 -2 -106 -29q-53 -35 -53 -97q0 -59 53 -91q21 -13 106 -45v262zM271 19q116 16 130 133v14q0 107 -130 152v-299z" />
<glyph unicode="%" horiz-adv-x="666" d="M173 0l293 565h33l-294 -565h-32zM616 156q0 -68 -29 -109t-78 -41q-52 0 -81.5 39.5t-29.5 109.5q0 66 29.5 104t81.5 38q48 0 77.5 -39t29.5 -102zM425 153q0 -55 23 -90t59 -35t59 35t23 89v2q0 53 -23.5 87t-58.5 34q-36 0 -59 -34t-23 -87v-1zM268 412 q0 -69 -29 -109.5t-78 -40.5q-52 0 -81.5 39.5t-29.5 109.5q0 66 29.5 104t81.5 38q48 0 77.5 -39.5t29.5 -101.5zM77 409q0 -55 23 -90t59 -35t59 35t23 89v2q-1 53 -24 87t-58 34q-36 0 -59 -34t-23 -87v-1z" />
<glyph unicode="&#x26;" horiz-adv-x="572" d="M449 329h27v-37q0 -110 -25 -197l70 -95h-30l-55 69q-57 -81 -157 -81h-4q-92 1 -147 57q-48 49 -50 122v6q0 51 24.5 89t87.5 84l-14 18q-40 52 -52.5 79.5t-12.5 64.5v3v2q1 60 37 96t95 37h4q52 0 119 -36l-11 -20q-62 34 -103 34h-10q-46 -3 -75 -31t-29 -70 q1 -55 24 -94q14 -23 56 -72l213 -246q18 64 18 163v55zM208 331q-57 -42 -79.5 -77t-23.5 -82v-2q0 -73 55 -120q48 -40 116 -40h6q49 1 77 16.5t61 59.5z" />
<glyph unicode="'" horiz-adv-x="164" d="M70 519v113l24 13v-113z" />
<glyph unicode="(" horiz-adv-x="368" d="M229 645h21q-79 -128 -105.5 -207t-26.5 -188q0 -107 26 -184.5t106 -207.5h-21q-81 118 -109.5 199t-28.5 193q0 113 28.5 195t109.5 200z" />
<glyph unicode=")" horiz-adv-x="368" d="M112 645h19q139 -186 139 -393v-2q-1 -111 -33 -201t-106 -191h-19q75 120 103 203t28 189q0 108 -28.5 193.5t-102.5 201.5z" />
<glyph unicode="*" horiz-adv-x="339" d="M181 643l42 -14l-50 -121l126 25l3 -40l-128 4l62 -114l-39 -12l-33 123l-90 -95l-28 34l111 69l-120 55l25 37l103 -85z" />
<glyph unicode="+" horiz-adv-x="516" d="M245 216h-203v22h203v216h27v-216h202v-22h-202v-216h-27v216z" />
<glyph unicode="," horiz-adv-x="182" d="M86 -75l-12 9q28 26 28 56q0 5 -1 15v1q-8 -16 -23 -15q-22 0 -22 28q0 26 26 26q32 0 33 -43v-2v-2q0 -42 -29 -73z" />
<glyph unicode="-" horiz-adv-x="245" d="M220 230h-195v22h195v-22z" />
<glyph unicode="." horiz-adv-x="222" d="M111 -5q-21 0 -21 22q0 23 21 23t21 -22q0 -23 -21 -23z" />
<glyph unicode="/" horiz-adv-x="327" d="M328 633l-319 -663h-31l321 663h29z" />
<glyph unicode="0" horiz-adv-x="523" d="M477 315q0 -159 -63 -248q-57 -79 -149 -79q-109 0 -167 102q-50 86 -50 225q0 154 66 247q59 83 151 83q103 0 162 -107q50 -90 50 -223zM263 623h-2q-92 -1 -141 -93q-44 -80 -45 -213v-4v-3q0 -147 57 -229q50 -71 130 -71q93 0 144 94q44 82 44 215v2q0 147 -58 230 q-50 72 -129 72z" />
<glyph unicode="1" horiz-adv-x="375" d="M233 633v-633h-27v601l-152 -83l-16 21l169 94h26z" />
<glyph unicode="2" horiz-adv-x="480" d="M52 0v20l209 227q79 86 99 122t20 89v8q-1 67 -41 106t-108 39h-1q-61 0 -144 -48l-14 17q79 53 155 53h14q80 -3 126 -56q40 -46 40 -115v-2q-1 -65 -21 -98t-141 -167l-157 -173h311v-22h-347z" />
<glyph unicode="3" horiz-adv-x="496" d="M69 572l-14 18q74 50 153 50h3q80 0 129 -47q42 -41 43 -101v-3q0 -109 -128 -149q82 -21 118.5 -60t37.5 -106v-2q0 -83 -62 -134q-55 -44 -137 -46h-10q-79 0 -154 55l14 17q81 -50 142 -50h2q84 0 134 50q44 44 44 108v2q-1 69 -51.5 110t-137.5 41h-67v22h67 q71 0 119 46q42 41 42 97v2q-1 57 -42.5 91.5t-110.5 34.5h-4q-56 0 -130 -46z" />
<glyph unicode="4" horiz-adv-x="547" d="M35 163l306 470h29v-462h127v-22h-127v-149h-27v149h-308v14zM71 171h272v421z" />
<glyph unicode="5" horiz-adv-x="539" d="M409 611h-261v-214q53 7 98 7q100 0 158 -63q50 -54 50 -139q0 -5 -1 -7q-2 -92 -62 -146q-53 -47 -133 -49q-4 -1 -11 -1q-79 0 -157 51l11 19q75 -47 140 -47h2q93 0 141 51q42 45 42 123v3q0 91 -57 140q-51 43 -137 43q-35 0 -111 -13v264h288v-22z" />
<glyph unicode="6" horiz-adv-x="547" d="M437 603l-13 -18q-56 38 -102 38q-112 0 -166 -114q-36 -77 -38 -187q86 88 169 88q85 -1 133 -64q41 -54 41 -141v-4q0 -99 -57 -160q-50 -53 -122 -53q-94 0 -149 98q-47 85 -47 212q1 158 71 257q61 86 151 90h11q59 0 118 -42zM118 285q3 -118 36 -186 q44 -88 136 -89q61 1 102 55t42 135v4q0 85 -45 137q-39 45 -99 47h-2q-42 0 -90 -29t-80 -74z" />
<glyph unicode="7" horiz-adv-x="404" d="M42 611v22h328v-17l-261 -616h-28l261 611h-300z" />
<glyph unicode="8" horiz-adv-x="560" d="M231 349q-70 35 -99 69t-29 81q0 69 55 113q48 38 117 38h1q84 0 132 -54q38 -42 38 -97v-1q0 -48 -30 -82.5t-102 -68.5q146 -57 148 -168q0 -85 -60 -141q-54 -50 -131 -50q-83 1 -137 63q-48 53 -48 125v1q0 58 34 98.5t111 73.5zM276 356q77 30 110 63.5t33 81.5v2v1 q-1 53 -41.5 88.5t-100.5 35.5h-1q-60 -1 -103 -36.5t-43 -87.5v-2q0 -91 146 -146zM270 338q-82 -25 -119 -63.5t-38 -98.5v-2q0 -69 54 -120q47 -44 107 -44q69 0 119 55q43 47 43 107q0 3 -1 4q-3 115 -165 162z" />
<glyph unicode="9" horiz-adv-x="547" d="M105 32l13 20q59 -43 108 -43q7 0 14 1q78 7 119.5 74t56.5 213q-76 -72 -153 -72q-4 0 -6 1q-72 0 -124 55q-53 57 -53 151q0 96 60 159q52 54 119 54q95 0 145 -96q42 -81 42 -213v-2q0 -167 -63 -261q-54 -82 -142 -85h-10q-68 0 -126 44zM418 336v2q0 141 -51 219 q-43 66 -111 66q-61 0 -107 -64q-40 -56 -42 -126v-5q0 -79 51 -133q44 -47 102 -47q88 0 158 88z" />
<glyph unicode=":" horiz-adv-x="182" d="M111 235q-21 0 -21 22q0 23 21 23t21 -22q0 -23 -21 -23zM111 -5q-21 0 -21 22q0 23 21 23t21 -22q0 -23 -21 -23z" />
<glyph unicode=";" horiz-adv-x="163" d="M87 -75l-13 9q29 26 29 56q0 5 -2 15v1q-7 -16 -22 -15q-23 0 -23 28q0 26 26 26q32 0 33 -43v-2v-2q0 -42 -28 -73zM74 282q26 -4 26 -26q0 -25 -25 -25q-26 0 -26 25q0 22 25 26z" />
<glyph unicode="&#x3c;" horiz-adv-x="517" d="M446 445l-375 -203l375 -225v-27l-404 239v26l404 218v-28z" />
<glyph unicode="=" horiz-adv-x="489" d="M447 295h-405v22h405v-22zM447 138h-405v22h405v-22z" />
<glyph unicode="&#x3e;" horiz-adv-x="517" d="M446 241l-375 202v29l404 -219v-25l-404 -240v28z" />
<glyph unicode="?" horiz-adv-x="349" d="M135 51q30 -2 30 -29q0 -30 -30 -30q-29 0 -29 30q0 27 29 29zM148 154h-27v69q0 44 8 60.5t45 46.5q12 10 25 21q81 72 84 144v6q0 55 -31 87.5t-85 33.5h-2h-2q-42 0 -107 -39l-11 18q65 43 124 43q64 0 102.5 -39.5t38.5 -105.5q0 -50 -20 -85.5t-77 -86.5l-13 -12 q-39 -35 -45.5 -47t-6.5 -49v-65z" />
<glyph unicode="@" horiz-adv-x="685" d="M439 49q-40 -61 -105 -61h-1q-54 0 -87 38.5t-34 101.5v2q0 67 34 107t91 41h3q43 0 92 -34l10 33h16v-181q0 -38 17.5 -63.5t45.5 -25.5h2q39 1 63.5 46t24.5 115v1q0 129 -80 206q-69 66 -173 66h-3q-126 -1 -209 -101q-71 -86 -71 -204q0 -134 87 -217q76 -73 189 -75 h7q17 0 32 2v-22q-16 -2 -37 -2h-3q-134 1 -223 102q-77 88 -79 209v7q0 146 100 241q86 82 207 82h1q132 0 212 -94q70 -81 70 -201q0 -89 -37 -139q-32 -44 -82 -44h-2q-50 1 -78 64zM431 217q-50 37 -92 38h-2q-43 0 -70.5 -33.5t-27.5 -87.5q0 -57 26 -90.5t69 -33.5h1 q41 0 68.5 31.5t27.5 76.5v99z" />
<glyph unicode="A" horiz-adv-x="528" d="M244 633h42l222 -633h-27l-57 161h-319l-57 -161h-27zM264 615l-151 -432h304z" />
<glyph unicode="B" horiz-adv-x="509" d="M90 6v622q78 12 145 12q99 0 150 -47q45 -40 45 -110q0 -3 -1 -5q-1 -54 -25 -84t-87 -57l6 -1q129 -34 129 -168v-3v-2q-3 -168 -217 -170h-7q-55 0 -138 13zM117 605v-259h126q72 0 116 38t44 100q0 129 -169 134h-16q-42 0 -101 -13zM117 324v-296q67 -13 105 -13h16 q184 5 187 148v4q0 73 -47 115t-128 42h-133z" />
<glyph unicode="C" horiz-adv-x="531" d="M472 594l-12 -20q-80 49 -140 49h-10q-113 -4 -177 -97q-56 -82 -56 -207v-4q1 -148 77 -233q65 -71 164 -72h2q68 0 146 55l14 -19q-76 -58 -164 -58h-1q-127 0 -201 100q-64 88 -64 222q0 158 82 252q71 82 178 83h5q81 0 157 -51z" />
<glyph unicode="D" horiz-adv-x="588" d="M90 1v632q86 12 134 12q154 0 235 -96q71 -84 72 -226v-5q0 -167 -90 -253q-78 -76 -213 -77h-5q-47 0 -133 13zM117 610v-587q71 -13 103 -13h5q142 2 215 91q64 79 64 210v8q-2 152 -86 233q-74 70 -195 71h-2q-39 0 -104 -13z" />
<glyph unicode="E" horiz-adv-x="526" d="M94 633h343v-22h-316v-270h267v-22h-267v-297h329v-22h-356v633z" />
<glyph unicode="F" horiz-adv-x="507" d="M94 0v633h343v-22h-316v-269h267v-22h-267v-320h-27z" />
<glyph unicode="G" horiz-adv-x="592" d="M479 588l-11 -17q-80 47 -141 47h-9q-119 -4 -184 -94q-57 -79 -57 -204v-9q3 -144 76 -223q65 -69 169 -72q6 -1 12 -1q61 0 139 42v237h-123v22h150v-271q-90 -51 -173 -51h-3q-132 0 -208 99q-66 87 -66 222q0 155 83 245q71 79 180 80h2q86 0 164 -52z" />
<glyph unicode="H" horiz-adv-x="605" d="M117 0h-27v633h27v-292h371v292h27v-633h-27v319h-371v-319z" />
<glyph unicode="I" horiz-adv-x="215" d="M125 633v-633h-27v633h27z" />
<glyph unicode="J" horiz-adv-x="201" d="M110 633v-678q0 -123 -95 -123h-1q-40 0 -92 29l14 20q45 -27 76 -27q71 0 71 107v672h27z" />
<glyph unicode="K" horiz-adv-x="448" d="M90 0v633h27v-295l265 295h35l-271 -300l252 -333h-32l-249 329v-329h-27z" />
<glyph unicode="L" horiz-adv-x="447" d="M90 0v633h27v-611h265v-22h-292z" />
<glyph unicode="M" horiz-adv-x="713" d="M117 568v-568h-27v633h30q44 -110 103 -258q74 -183 134 -342q57 151 133 340q60 148 105 260h28v-633h-27v567q-71 -186 -165 -410q-37 -89 -65 -157h-18q-23 57 -63 152l-8 19q-92 220 -160 397z" />
<glyph unicode="N" horiz-adv-x="559" d="M117 0h-27v633h26q192 -341 326 -585v585h27v-633h-26q-128 226 -326 581v-581z" />
<glyph unicode="O" horiz-adv-x="623" d="M314 645q130 0 202 -114q57 -89 57 -212q0 -145 -75 -240q-72 -91 -186 -91q-129 0 -203 116q-59 91 -59 215q0 143 74 235q71 90 188 91h2zM77 320v-1q0 -146 74 -233q64 -75 161 -76h1q111 0 176 96q57 84 57 212v1q0 149 -72 232q-62 72 -161 72h-1q-114 -1 -179 -95 q-56 -82 -56 -208z" />
<glyph unicode="P" horiz-adv-x="489" d="M90 0v631q89 14 137 14q102 0 157 -55q48 -48 48 -126q0 -3 -1 -8q-2 -90 -67 -137q-56 -42 -147 -42h-3q-44 1 -97 14v-291h-27zM117 610v-297q48 -13 88 -14h2q193 0 197 156q1 6 1 9q0 158 -186 159h-3q-44 0 -99 -13z" />
<glyph unicode="Q" horiz-adv-x="623" d="M407 7l125 -116h-33l-112 109q-32 -10 -75 -12q-129 0 -203 116q-59 91 -59 215q0 143 74 235q71 90 188 91h2q130 0 202 -114q57 -89 57 -212q-2 -69 -15 -115q-13 -49 -36 -89q-44 -77 -115 -108zM77 320v-1q0 -146 74 -233q64 -75 161 -76h1q111 0 176 96 q57 84 57 212v1q0 149 -72 232q-62 72 -161 72h-1q-114 -1 -179 -95q-56 -82 -56 -208z" />
<glyph unicode="R" horiz-adv-x="503" d="M299 290l132 -290h-30l-129 284q-34 -7 -69 -7q-38 0 -86 12v-289h-27v633q88 12 134 12q106 0 160 -57q47 -49 47 -132q0 -64 -35 -108t-97 -58zM117 613v-301q49 -13 88 -13q199 0 199 156q0 168 -185 168q-47 0 -102 -10z" />
<glyph unicode="S" horiz-adv-x="458" d="M50 44l12 19q98 -45 159 -45h2q72 0 115.5 35t49.5 99q1 9 1 18q0 57 -38 93.5t-126 65.5q-89 29 -128 59q-52 42 -52 107q0 66 51.5 108t132.5 42q79 0 156 -44l-15 -21q-73 35 -133 35h-7q-72 -1 -115 -33.5t-43 -85.5v-5q2 -45 37 -74.5t118 -56.5q103 -34 146 -76 t43 -109q0 -10 -1 -21q-6 -76 -55.5 -120.5t-130.5 -45.5h-7q-83 0 -172 56z" />
<glyph unicode="T" horiz-adv-x="485" d="M25 611v22h449v-22h-219v-611h-27v611h-203z" />
<glyph unicode="U" horiz-adv-x="605" d="M90 634l27 -1v-390q0 -233 187 -233q185 0 185 233v390h27v-380q0 -265 -212 -265q-214 0 -214 266v380z" />
<glyph unicode="V" horiz-adv-x="516" d="M50 633l208 -598l206 598h30l-226 -633h-21l-226 633h29z" />
<glyph unicode="W" horiz-adv-x="910" d="M438 633h32l175 -602l214 602h29l-230 -633h-29l-174 603l-174 -603h-27l-233 633h29l217 -601z" />
<glyph unicode="X" horiz-adv-x="518" d="M266 353l188 280h30l-204 -302l218 -331h-32l-199 311l-218 -311h-30l231 331l-192 302h28z" />
<glyph unicode="Y" horiz-adv-x="486" d="M22 633h29l191 -354l192 354h29l-208 -379v-254h-27v253z" />
<glyph unicode="Z" horiz-adv-x="441" d="M408 612l-350 -590h355v-22h-386v19l352 592h-343v22h372v-21z" />
<glyph unicode="[" horiz-adv-x="349" d="M246 -140h-155v785h155v-22h-128v-741h128v-22z" />
<glyph unicode="\" horiz-adv-x="327" d="M285 -30l-320 663h29l321 -663h-30z" />
<glyph unicode="]" horiz-adv-x="349" d="M104 645h155v-785h-155v22h128v741h-128v22z" />
<glyph unicode="^" horiz-adv-x="363" d="M164 609h34l131 -280h-28l-119 259l-121 -259h-27z" />
<glyph unicode="_" horiz-adv-x="373" d="M368 -52h-363v22h363v-22z" />
<glyph unicode="`" horiz-adv-x="127" d="M90 565l-67 90h38l45 -90h-16z" />
<glyph unicode="a" horiz-adv-x="470" d="M386 0h-21l-4 57q-75 -69 -163 -69q-68 0 -108 36.5t-40 98.5q0 154 205 154h104v11q0 155 -136 155q-64 0 -130 -52l-14 18q72 56 145 56q162 0 162 -183v-282zM359 255h-100q-93 0 -140 -37q-42 -33 -42 -91q0 -54 35 -85.5t94 -31.5q83 0 153 75v170z" />
<glyph unicode="b" horiz-adv-x="504" d="M97 0h-19v627l27 15v-239q65 62 145 62q101 0 156 -69q47 -61 47 -160q0 -118 -63 -184q-56 -58 -147 -58q-74 0 -140 58zM105 81q63 -65 140 -65q90 0 139 67q42 57 42 149q0 106 -53 162q-46 49 -123 49q-79 0 -145 -68v-294z" />
<glyph unicode="c" horiz-adv-x="450" d="M394 430l-11 -21q-61 35 -124 35q-84 0 -137 -72q-47 -62 -47 -150q0 -102 62 -161q54 -51 137 -51q55 0 122 36l12 -20q-63 -38 -139 -38q-104 0 -167 74q-54 65 -54 163q0 110 69 180q60 61 146 61q63 0 131 -36z" />
<glyph unicode="d" horiz-adv-x="502" d="M406 0l-7 52q-61 -64 -142 -64q-105 0 -161 76q-48 65 -48 172q0 113 65 176q57 54 145 54q81 0 139 -61v225l27 13v-643h-18zM397 82v292q-64 70 -139 70q-90 0 -140 -67q-43 -58 -43 -151q0 -107 55 -165q49 -51 127 -51q76 0 140 72z" />
<glyph unicode="e" horiz-adv-x="458" d="M410 217h-335q2 -42 12 -74q41 -130 186 -130q68 0 126 41l13 -19q-63 -44 -142 -44q-109 0 -169 72q-53 63 -53 162q0 110 60 180q52 61 127 61q86 0 134 -73q41 -65 41 -168v-8zM77 239h306q-3 93 -41 150q-37 55 -108 55q-63 0 -105 -52q-46 -59 -52 -153z" />
<glyph unicode="f" horiz-adv-x="286" d="M42 453h59v70q0 119 100 121h3q28 0 67 -21l-12 -22q-33 21 -56 21h-1q-74 -1 -74 -97v-72h97v-22h-97v-431h-27v431h-59v22z" />
<glyph unicode="g" horiz-adv-x="517" d="M411 408l8 46h20v-430q0 -215 -186 -215q-77 0 -153 57l16 20q66 -55 138 -55q158 0 158 193v18q-68 -54 -145 -54q-97 0 -154 76q-50 65 -50 163q0 113 67 180q58 59 146 59q39 0 67.5 -12t67.5 -46zM412 74v299q-65 71 -141 71q-86 0 -137 -69q-44 -60 -44 -150 q0 -103 57 -162q50 -53 126 -53q78 0 139 64z" />
<glyph unicode="h" horiz-adv-x="508" d="M435 0h-27v268q0 85 -39.5 130.5t-113.5 45.5q-81 0 -150 -82v-362h-27v630l27 13v-246q78 69 151 69q90 0 138 -58q41 -50 41 -135v-273z" />
<glyph unicode="i" horiz-adv-x="203" d="M113 454v-454h-27v454h27zM74 617q0 28 28 28q27 0 27 -28q0 -27 -27 -27q-28 0 -28 27z" />
<glyph unicode="j" horiz-adv-x="203" d="M110 454v-524q0 -121 -101 -121h-1q-31 0 -69 20l10 20q31 -18 55 -18h2q77 1 77 96v527h27zM72 617q0 28 28 28q27 0 27 -28q0 -27 -27 -27q-28 0 -28 27z" />
<glyph unicode="k" horiz-adv-x="426" d="M105 279l184 175h38l-194 -181l258 -273h-37l-249 267v-267h-27v630l27 15v-366z" />
<glyph unicode="l" horiz-adv-x="187" d="M105 645v-645h-27v630z" />
<glyph unicode="m" horiz-adv-x="780" d="M707 0h-27v275q0 80 -37.5 124t-106.5 45h-2h-3q-62 0 -140 -58q20 -52 20 -113v-273h-27v272q0 169 -129 172h-2h-3q-38 0 -69.5 -17t-75.5 -61v-366h-27v454h20l7 -52q49 39 78 51.5t69 12.5h1q42 0 68.5 -12t57.5 -45q86 57 153 57h3q172 -2 172 -194v-272z" />
<glyph unicode="n" horiz-adv-x="508" d="M435 0h-27v268q0 176 -150 176q-45 0 -79 -18.5t-74 -65.5v-360h-27v454h20l7 -58q74 70 157 70q173 0 173 -193v-273z" />
<glyph unicode="o" horiz-adv-x="523" d="M475 226q0 -107 -64 -175q-58 -63 -150 -63q-105 0 -164 80q-49 65 -49 158q0 109 65 178q59 62 148 62q101 0 162 -79q52 -67 52 -161zM75 226q0 -98 61 -161q52 -55 126 -55q84 0 139 70q47 61 47 146q0 101 -62 164q-52 54 -125 54q-86 0 -139 -69q-47 -61 -47 -149z " />
<glyph unicode="p" horiz-adv-x="523" d="M78 454h20l7 -57q44 39 81 54t88 15q97 0 151 -71q46 -61 46 -159q0 -118 -63 -187q-57 -61 -145 -61q-81 0 -158 65v-241h-27v642zM105 85q77 -75 152 -75q91 0 143 67q44 59 44 154q0 108 -53 164q-47 49 -127 49q-85 0 -159 -80v-279z" />
<glyph unicode="q" horiz-adv-x="518" d="M441 453v-651h-27v249q-76 -63 -163 -63q-98 0 -155 79q-48 67 -48 168q0 109 63 174q54 57 137 57q92 0 166 -70l7 57h20zM414 85v279q-79 80 -159 80q-90 0 -138 -67q-42 -58 -42 -150q0 -108 55 -166q49 -51 128 -51q90 0 156 75z" />
<glyph unicode="r" horiz-adv-x="363" d="M338 436l-20 -20q-42 28 -74 28h-1q-36 0 -65 -18t-73 -67v-359h-27v454h20l7 -59q42 41 71 56t68 15h2q42 0 92 -30z" />
<glyph unicode="s" horiz-adv-x="392" d="M299 408q-64 36 -115 36q-52 0 -82.5 -24.5t-30.5 -65.5q0 -36 26.5 -59t101.5 -51q84 -31 114.5 -58t30.5 -70q0 -58 -42.5 -93t-112.5 -35q-68 0 -142 38l8 23q74 -39 126 -39q63 0 99.5 28t36.5 76q0 35 -28 58t-104 51q-80 29 -110.5 56.5t-30.5 72.5q0 51 38 82.5 t100 31.5q58 0 128 -35z" />
<glyph unicode="t" horiz-adv-x="326" d="M141 431v-324q0 -95 77 -95q28 0 56 15l10 -18q-36 -19 -70 -19q-100 0 -100 120v321h-72v22h72v110l27 12v-122h145v-22h-145z" />
<glyph unicode="u" horiz-adv-x="497" d="M419 454v-454h-18l-8 56q-70 -68 -157 -68q-158 0 -158 194v272h27v-270q0 -174 133 -174q87 0 154 79v365h27z" />
<glyph unicode="v" horiz-adv-x="407" d="M224 0h-39l-168 454h26l162 -436l158 436h27z" />
<glyph unicode="w" horiz-adv-x="674" d="M200 0h-34l-150 454h27l139 -431l144 431h34l133 -431l138 431h27l-148 -454h-33l-135 430z" />
<glyph unicode="x" horiz-adv-x="388" d="M196 259l135 195h31l-151 -215l161 -239h-31l-145 219l-146 -219h-32l163 239l-144 215h31z" />
<glyph unicode="y" horiz-adv-x="426" d="M411 454l-200 -526q-25 -65 -52.5 -92t-69.5 -27q-34 0 -74 18l13 21q26 -17 59 -17q38 0 62 31t54 116l8 22h-11l-184 454h30l173 -441l164 441h28z" />
<glyph unicode="z" horiz-adv-x="394" d="M366 0h-337v22l301 410h-283v22h313v-25l-301 -407h307v-22z" />
<glyph unicode="{" horiz-adv-x="348" d="M48 239v36q61 21 86 59t25 108v40q0 93 27 126.5t106 35.5h-1v-29h1q-9 1 -13 1q-55 0 -74 -27.5t-19 -106.5v-40q0 -73 -28 -115.5t-94 -69.5q68 -34 95 -75.5t27 -112.5v-44q0 -81 19 -108.5t75 -27.5q3 0 12 1h-1v-29h1q-79 2 -106 36t-27 128v44q0 63 -25.5 102.5 t-85.5 67.5z" />
<glyph unicode="|" horiz-adv-x="203" d="M113 662v-841h-27v841h27z" />
<glyph unicode="}" horiz-adv-x="348" d="M300 239q-64 -34 -87.5 -70t-23.5 -100v-44q0 -94 -27 -127.5t-106 -36.5h1v28h-1h14q55 0 73.5 28t18.5 108v44q0 72 25 110.5t96 77.5q-70 33 -95.5 72t-25.5 113v40q0 79 -19 106.5t-73 27.5h-14h1v28h-1q79 -3 106 -36t27 -126v-40q0 -71 23 -105.5t88 -61.5v-36z " />
<glyph unicode="~" horiz-adv-x="460" d="M44 220l-16 10q43 65 96 65h2q35 -1 109 -37l10 -6q59 -29 93 -29q30 0 46 10t34 40l18 -10q-22 -36 -41.5 -49t-51.5 -13h-2h-1q-42 0 -113 37q-7 3 -10 5q-56 30 -88 30q-47 0 -85 -53z" />
<glyph unicode="&#xa1;" horiz-adv-x="174" d="M73 327h27v-502h-27v502zM87 459q21 0 21 -23q0 -22 -21 -22t-21 23q0 22 21 22z" />
<glyph unicode="&#xa2;" horiz-adv-x="459" d="M287 -11v-41h-27v42q-106 12 -161 79q-49 59 -49 153q0 67 27 122q38 76 110 105q29 12 73 15v48h27v-47q52 -8 105 -35l-11 -21q-51 21 -94 27v-419q49 4 107 30l12 -21q-56 -31 -119 -37zM260 439q-84 -10 -129 -61q-54 -62 -54 -154q0 -95 54 -150q47 -48 129 -58v423 z" />
<glyph unicode="&#xa3;" horiz-adv-x="455" d="M322 338h-174v-316h259v-22h-363v22h77v316h-79v22h79v82q0 199 155 199q63 0 121 -47l-15 -19q-50 44 -104 44q-68 0 -99 -44t-31 -140v-75h174v-22z" />
<glyph unicode="&#xa4;" horiz-adv-x="454" d="M417 104l-82 79q-47 -34 -102 -34q-56 0 -105 35l-78 -77l-10 11l-8 9l75 78q-33 46 -33 97q0 50 37 99l-80 85l18 20l82 -83q51 34 100 34h2q49 0 98 -34l83 82q2 1 4 1q5 0 10.5 -6t5.5 -11q0 -2 -1 -3l-79 -82q34 -50 34 -102q0 -50 -35 -97l81 -78q2 -2 2 -5 q0 -16 -19 -18zM101 301q0 -60 35.5 -95t96.5 -35t94.5 34.5t33.5 96.5t-34 97.5t-94 35.5q-59 0 -95 -36.5t-37 -96.5v-1z" />
<glyph unicode="&#xa5;" horiz-adv-x="486" d="M256 0h-27v154h-194v22h194v71l-13 26h-181v22h171l-186 338h30l185 -338h15l187 338h30l-188 -338h161v-22h-171l-13 -26v-71h184v-22h-184v-154z" />
<glyph unicode="&#xa6;" horiz-adv-x="216" d="M92 207h27v-406h-27v406zM119 684v-369h-27v369h27z" />
<glyph unicode="&#xa7;" horiz-adv-x="420" d="M66 -104l9 18q67 -32 124 -32q58 0 94 28.5t38 75.5v6q0 43 -29 72t-101 56q-82 31 -110 57q-41 36 -41 96q0 80 89 133q-66 50 -67 112v2q0 56 38.5 90.5t101.5 34.5h1q60 0 125 -32l-10 -18q-63 28 -114 28t-83 -27.5t-32 -70.5v-1q1 -45 31.5 -73t112.5 -60 q70 -28 98.5 -59.5t28.5 -80.5v-5q-1 -39 -20.5 -66.5t-68.5 -57.5q43 -28 60 -56t17 -69v-1q0 -62 -42.5 -99t-113.5 -37h-1q-65 0 -135 36zM157 396q-80 -56 -80 -120q0 -43 31.5 -73t104.5 -56q35 -13 47 -17q47 31 64.5 53.5t18.5 52.5v5q0 77 -98 118l-47 20z" />
<glyph unicode="&#xa8;" horiz-adv-x="249" d="M34 617q0 28 27 28q28 0 28 -28q0 -27 -28 -27q-27 0 -27 27zM162 617q0 28 28 28q27 0 27 -28q0 -27 -27 -27q-28 0 -28 27z" />
<glyph unicode="&#xa9;" horiz-adv-x="697" d="M480 460l-14 -24q-60 44 -105 44q-69 0 -111 -45t-42 -119v-1q0 -80 48 -127q42 -40 107 -40q48 0 113 40l9 -17q-68 -45 -124 -45h-3q-82 0 -133 61q-44 53 -44 127q0 86 57 140q49 47 120 48h3h2q52 0 117 -42zM48 315q0 135 97 224q85 78 204 78q132 0 223 -100 q77 -86 77 -202q0 -133 -99 -223q-86 -78 -201 -78q-135 0 -224 100q-77 86 -77 201zM75 315q0 -126 90 -208q77 -71 185 -71q124 0 204 91q68 78 68 188q0 128 -89 209q-77 71 -186 71q-124 0 -203 -91q-69 -78 -69 -189z" />
<glyph unicode="&#xaa;" horiz-adv-x="268" d="M221 406h-20l-5 42q-31 -48 -79 -48q-30 0 -50.5 20.5t-20.5 50.5v2q2 76 122 76h29v1q0 32 -18 53t-46 21q-29 0 -65 -31l-17 21q42 32 83 32q87 -1 87 -101v-139zM194 527h-28q-91 0 -93 -55v-2q0 -21 14.5 -34.5t36.5 -13.5h1h2q45 2 67 58v47z" />
<glyph unicode="&#xab;" horiz-adv-x="416" d="M221 29q-99 46 -171 197q71 151 171 198v-25q-93 -54 -145 -173q53 -120 145 -172v-25zM376 29q-97 45 -171 197q74 152 171 198v-26q-91 -50 -144 -172q54 -122 144 -171v-26z" />
<glyph unicode="&#xac;" horiz-adv-x="446" d="M42 187v22h362v-209h-27v187h-335z" />
<glyph unicode="&#xad;" horiz-adv-x="245" d="M220 230h-195v22h195v-22z" />
<glyph unicode="&#xae;" horiz-adv-x="413" d="M201 473h-21v-63h-24v157h42q61 0 61 -47q0 -31 -31 -44l37 -66h-29zM180 547v-54h24q30 0 30 25q0 29 -30 29h-24zM207 322q-72 0 -120 54q-42 46 -42 108q0 71 54 120q46 41 108 41q72 0 120 -53q43 -46 43 -108q0 -72 -54 -120q-47 -42 -109 -42zM207 620 q-56 0 -95.5 -40t-39.5 -96q0 -57 39.5 -97t95.5 -40t95.5 40t39.5 97t-39.5 96.5t-95.5 39.5z" />
<glyph unicode="&#xaf;" horiz-adv-x="200" d="M184 611h-168v22h168v-22z" />
<glyph unicode="&#xb0;" horiz-adv-x="274" d="M25 541q0 44 34 77.5t78 33.5t78 -34t34 -77q0 -46 -33.5 -79.5t-78.5 -33.5q-44 0 -78 34t-34 79zM138 630q-34 0 -60 -27t-26 -62q0 -36 26 -63.5t60 -27.5t59 27.5t25 64.5q0 35 -25 61.5t-59 26.5z" />
<glyph unicode="&#xb1;" horiz-adv-x="489" d="M229 271h-187v22h187v161h27v-161h191v-22h-191v-162h-27v162zM447 0h-405v22h405v-22z" />
<glyph unicode="&#xb2;" horiz-adv-x="306" d="M62 316v28l93 90q72 71 72 116q0 30 -19.5 48.5t-51.5 18.5q-38 0 -86 -38l-10 21q53 37 95 39h3q43 0 69.5 -26.5t26.5 -67.5q0 -29 -13 -50.5t-63 -72.5l-81 -84h162v-22h-197z" />
<glyph unicode="&#xb3;" horiz-adv-x="321" d="M136 481v22h20q83 0 83 59q0 57 -70 58h-3h-2q-37 0 -83 -32l-12 18q54 35 100 36h2q43 0 68.5 -22t26.5 -59v-1q0 -42 -43 -67q49 -26 49 -81q0 -42 -27.5 -68.5t-71.5 -26.5h-4q-45 1 -100 35l13 19q45 -32 89 -32q74 0 74 68v1q0 73 -87 73h-22z" />
<glyph unicode="&#xb4;" horiz-adv-x="131" d="M42 565h-21l47 95h44z" />
<glyph unicode="&#xb5;" horiz-adv-x="513" d="M105 -177h-27v631h27v-310q0 -58 33 -96t84 -38q91 0 141 105v339h27v-362q0 -36 16 -59t41 -23q21 0 36 14l10 -19q-21 -17 -48 -17t-47 19q-26 24 -31 69q-61 -88 -146 -88q-76 0 -116 64v-229z" />
<glyph unicode="&#xb6;" horiz-adv-x="380" d="M298 0h-18v633h18v-633zM240 0v376h-43q-66 0 -108.5 35t-42.5 90q0 56 44 94t108 38h59v-633h-17z" />
<glyph unicode="&#xb7;" horiz-adv-x="148" d="M76 308q-15 0 -26 10.5t-11 23.5q0 15 11 25.5t26 10.5q13 0 23 -11t10 -25q0 -13 -10.5 -23.5t-22.5 -10.5z" />
<glyph unicode="&#xb8;" horiz-adv-x="200" d="M83 -35q15 3 26 3q29 0 47.5 -17.5t18.5 -43.5q0 -30 -24.5 -48.5t-63.5 -18.5q-32 0 -62 15l9 25q23 -18 54 -18q60 0 60 44q0 41 -58 41h-2q-15 0 -38 -3l18 70l21 -4z" />
<glyph unicode="&#xb9;" horiz-adv-x="204" d="M116 633v-315h-27v281l-42 -31l-19 19l61 46h27z" />
<glyph unicode="&#xba;" horiz-adv-x="286" d="M145 400q-48 0 -80 35t-32 87q0 55 31 89t81 34q48 0 78 -34t30 -89q0 -52 -31 -87t-77 -35zM226 521v1q0 45 -22.5 73t-58.5 28t-60.5 -28.5t-24.5 -71.5v-1q0 -43 25 -71.5t62 -28.5q35 0 57 27.5t22 71.5z" />
<glyph unicode="&#xbb;" horiz-adv-x="416" d="M40 29v26q90 49 144 171q-53 122 -144 172v26q97 -46 171 -198q-74 -152 -171 -197zM195 29v26q92 50 145 171q-53 122 -145 172v26q100 -47 171 -198q-72 -151 -171 -197z" />
<glyph unicode="&#xbc;" horiz-adv-x="732" d="M431 98l177 220h23v-217h64v-22h-63v-79h-27v79h-174v19zM469 101h135v169zM536 633l-382 -663h-32l384 663h30zM158 633v-315h-27v281l-42 -31l-19 19l61 46h27z" />
<glyph unicode="&#xbd;" horiz-adv-x="766" d="M538 633l-383 -663h-32l385 663h30zM158 633v-315h-27v281l-42 -31l-19 19l61 46h27zM494 3v28l93 91q70 68 72 112v4q0 30 -19.5 48t-51.5 18q-38 0 -86 -38l-10 21q52 38 94 39h4q42 0 69 -26t27 -68q0 -29 -13.5 -50.5t-62.5 -72.5l-81 -84h162v-22h-197z" />
<glyph unicode="&#xbe;" horiz-adv-x="782" d="M477 98l177 220h23v-217h63v-22h-63v-79h-27v79h-173v19zM515 101h135v169zM613 633l-382 -663h-34l385 663h31zM136 481v22h20q82 0 83 58v1q0 57 -70 58h-3h-2q-37 0 -83 -32l-12 18q54 35 100 36h2q43 0 68.5 -22t26.5 -59v-1q0 -42 -43 -67q49 -26 49 -81 q0 -42 -27.5 -68.5t-71.5 -26.5h-4q-45 1 -100 35l13 19q45 -32 89 -32q74 0 74 68v1q0 73 -87 73h-22z" />
<glyph unicode="&#xbf;" horiz-adv-x="367" d="M228 465q31 0 31 -31q0 -30 -31 -30q-30 0 -30 30q0 31 30 31zM212 298h27v-69q0 -44 -8 -60.5t-44 -46.5q-13 -10 -25 -21q-82 -72 -84 -144v-6q0 -55 31 -87.5t84 -33.5h2h2q43 0 108 39l11 -18q-66 -43 -125 -43q-64 0 -102 39.5t-38 105.5q0 50 20 85.5t77 86.5 l12 12q39 35 45.5 47t6.5 49v65z" />
<glyph unicode="&#xc0;" horiz-adv-x="528" d="M182 818h44l41 -90h-18zM244 633h42l222 -633h-27l-57 161h-319l-57 -161h-27zM264 615l-151 -432h304z" />
<glyph unicode="&#xc1;" horiz-adv-x="528" d="M339 818l-67 -90h-18l42 90h43zM244 633h42l222 -633h-27l-57 161h-319l-57 -161h-27zM264 615l-151 -432h304z" />
<glyph unicode="&#xc2;" horiz-adv-x="528" d="M278 818l62 -90h-33l-42 62l-47 -62h-31l63 90h28zM244 633h42l222 -633h-27l-57 161h-319l-57 -161h-27zM264 615l-151 -432h304z" />
<glyph unicode="&#xc3;" horiz-adv-x="528" d="M163 732l-20 12q34 61 80 61q19 0 64 -25l4 -2q43 -27 50 -27q23 1 50 53l19 -14q-35 -61 -71 -61q-20 0 -58 25l-8 6q-32 23 -50 23h-1q-34 0 -59 -51zM244 633h42l222 -633h-27l-57 161h-319l-57 -161h-27zM264 615l-151 -432h304z" />
<glyph unicode="&#xc4;" horiz-adv-x="528" d="M176 784q2 29 28 29q30 0 30 -29t-30 -29q-26 0 -28 29zM304 784q2 29 29 29q28 0 28 -29t-28 -29q-27 0 -29 29zM244 633h42l222 -633h-27l-57 161h-319l-57 -161h-27zM264 615l-151 -432h304z" />
<glyph unicode="&#xc5;" horiz-adv-x="528" d="M207 761q0 29 18 47t46 18q27 0 46 -19t19 -46q0 -26 -19 -45t-46 -19q-28 0 -46 18t-18 46zM233 761q0 -38 37 -38q16 0 27.5 11t11.5 27t-11.5 27.5t-27.5 11.5q-37 0 -37 -39zM244 633h42l222 -633h-27l-57 161h-319l-57 -161h-27zM264 615l-151 -432h304z" />
<glyph unicode="&#xc6;" horiz-adv-x="727" d="M658 633v-22h-313v-270h264v-22h-264v-291h326v-22h-353v169h-192l-76 -169h-30l282 627h356zM313 608l-176 -411h181v411h-5z" />
<glyph unicode="&#xc7;" horiz-adv-x="566" d="M313 -11l-4 -24q15 3 26 3q29 0 47.5 -17.5t18.5 -43.5q0 -30 -24.5 -48.5t-63.5 -18.5q-32 0 -62 15l9 25q24 -18 54 -18q60 0 60 44q0 41 -58 41h-1q-16 0 -39 -3l13 48q-86 19 -133.5 55.5t-76.5 107.5q-28 65 -29 156v7q0 152 83 245q72 81 177 82h3q83 0 159 -51 l-12 -20q-80 49 -140 49h-10q-113 -4 -177 -97q-56 -82 -56 -207v-3v-1q1 -147 73 -227q63 -69 166 -69q72 0 150 46l14 -19q-77 -57 -153 -57h-10h-4z" />
<glyph unicode="&#xc8;" horiz-adv-x="526" d="M94 633h343v-22h-316v-270h267v-22h-267v-297h329v-22h-356v633zM186 818h44l41 -90h-18z" />
<glyph unicode="&#xc9;" horiz-adv-x="526" d="M94 633h343v-22h-316v-270h267v-22h-267v-297h329v-22h-356v633zM325 818l-67 -90h-17l41 90h43z" />
<glyph unicode="&#xca;" horiz-adv-x="526" d="M94 633h343v-22h-316v-270h267v-22h-267v-297h329v-22h-356v633zM279 818l62 -90h-32l-43 62l-46 -62h-31l63 90h27z" />
<glyph unicode="&#xcb;" horiz-adv-x="526" d="M94 633h343v-22h-316v-270h267v-22h-267v-297h329v-22h-356v633zM159 784q2 29 28 29q29 0 29 -29t-29 -29q-26 0 -28 29zM286 784q2 29 30 29t28 -29t-28 -29q-27 0 -30 29z" />
<glyph unicode="&#xcc;" horiz-adv-x="215" d="M125 633v-633h-27v633h27zM31 818h43l42 -90h-18z" />
<glyph unicode="&#xcd;" horiz-adv-x="215" d="M125 633v-633h-27v633h27zM190 818l-67 -90h-18l42 90h43z" />
<glyph unicode="&#xce;" horiz-adv-x="215" d="M125 633v-633h-27v633h27zM123 818l61 -90h-32l-42 62l-47 -62h-31l63 90h28z" />
<glyph unicode="&#xcf;" horiz-adv-x="215" d="M125 633v-633h-27v633h27zM14 784q2 29 29 29q29 0 29 -29t-29 -29q-27 0 -29 29zM142 784q2 29 29 29q29 0 29 -29t-29 -29q-27 0 -29 29z" />
<glyph unicode="&#xd0;" horiz-adv-x="620" d="M123 340v289q88 12 132 12h3q157 0 240 -95q72 -82 73 -223v-5q0 -165 -92 -250q-80 -75 -217 -76h-8q-42 0 -131 15v311h-82v22h82zM150 340h161v-22h-161v-294q73 -10 101 -10h8q145 2 220 90q65 77 65 206v9q-3 150 -88 230q-75 69 -199 70h-4q-36 0 -103 -13v-266z " />
<glyph unicode="&#xd1;" horiz-adv-x="559" d="M117 0h-27v633h23l329 -580v580h27v-633h-22l-330 576v-576zM169 732l-18 11q32 62 79 62h1q30 0 64 -23l5 -4q27 -18 48 -18q26 0 51 43l18 -12q-33 -62 -72 -62h-1q-16 1 -56 22q-4 2 -8 5q-33 20 -51 20q-38 0 -60 -44z" />
<glyph unicode="&#xd2;" horiz-adv-x="623" d="M314 645q130 0 202 -114q57 -89 57 -212q0 -145 -75 -240q-72 -91 -186 -91q-129 0 -203 116q-59 91 -59 215q0 143 74 235q71 90 188 91h2zM77 320v-1q0 -146 74 -233q64 -75 161 -76h1q111 0 176 96q57 84 57 212v1q0 149 -72 232q-62 72 -161 72h-1q-114 -1 -179 -95 q-56 -82 -56 -208zM230 818h43l41 -90h-18z" />
<glyph unicode="&#xd3;" horiz-adv-x="623" d="M314 645q130 0 202 -114q57 -89 57 -212q0 -145 -75 -240q-72 -91 -186 -91q-129 0 -203 116q-59 91 -59 215q0 143 74 235q71 90 188 91h2zM77 320v-1q0 -146 74 -233q64 -75 161 -76h1q111 0 176 96q57 84 57 212v1q0 149 -72 232q-62 72 -161 72h-1q-114 -1 -179 -95 q-56 -82 -56 -208zM375 818l-66 -90h-18l41 90h43z" />
<glyph unicode="&#xd4;" horiz-adv-x="623" d="M314 645q130 0 202 -114q57 -89 57 -212q0 -145 -75 -240q-72 -91 -186 -91q-129 0 -203 116q-59 91 -59 215q0 143 74 235q71 90 188 91h2zM77 320v-1q0 -146 74 -233q64 -75 161 -76h1q111 0 176 96q57 84 57 212v1q0 149 -72 232q-62 72 -161 72h-1q-114 -1 -179 -95 q-56 -82 -56 -208zM327 818l61 -90h-32l-42 62l-47 -62h-31l63 90h28z" />
<glyph unicode="&#xd5;" horiz-adv-x="623" d="M314 645q130 0 202 -114q57 -89 57 -212q0 -145 -75 -240q-72 -91 -186 -91q-129 0 -203 116q-59 91 -59 215q0 143 74 235q71 90 188 91h2zM77 320v-1q0 -146 74 -233q64 -75 161 -76h1q111 0 176 96q57 84 57 212v1q0 149 -72 232q-62 72 -161 72h-1q-114 -1 -179 -95 q-56 -82 -56 -208zM198 732l-19 11q32 62 79 62h1q30 0 64 -23l5 -4q27 -18 48 -18q26 0 51 43l18 -12q-33 -62 -72 -62h-1q-16 1 -55 22q-5 2 -9 5q-33 20 -51 20q-38 0 -59 -44z" />
<glyph unicode="&#xd6;" horiz-adv-x="623" d="M314 645q130 0 202 -114q57 -89 57 -212q0 -145 -75 -240q-72 -91 -186 -91q-129 0 -203 116q-59 91 -59 215q0 143 74 235q71 90 188 91h2zM77 320v-1q0 -146 74 -233q64 -75 161 -76h1q111 0 176 96q57 84 57 212v1q0 149 -72 232q-62 72 -161 72h-1q-114 -1 -179 -95 q-56 -82 -56 -208zM219 784q2 29 28 29q30 0 30 -29t-30 -29q-26 0 -28 29zM347 784q2 29 29 29q28 0 28 -29t-28 -29q-27 0 -29 29z" />
<glyph unicode="&#xd7;" horiz-adv-x="501" d="M253 215l-184 -194l-18 16l187 194l-174 192l17 16l172 -190l181 188l18 -14l-183 -192l180 -198l-17 -17z" />
<glyph unicode="&#xd8;" horiz-adv-x="623" d="M441 604l18 41h29l-28 -57q64 -61 90 -132q21 -61 23 -139v-9q0 -145 -83 -239q-72 -81 -172 -81h-5q-66 1 -127 41l-28 -59h-28l38 75q-76 72 -102 162q-15 51 -16 115v9q0 143 83 235q73 79 175 79h2q67 -1 131 -41zM431 583q-59 39 -121 40h-3q-108 0 -173 -94 q-57 -81 -57 -200v-8q2 -106 40 -178q21 -40 61 -77zM196 50q59 -39 117 -40h2h2q107 0 172 95q57 83 57 204v8q-2 108 -39 178q-20 38 -58 73z" />
<glyph unicode="&#xd9;" horiz-adv-x="605" d="M90 634l27 -1v-392q0 -231 187 -231q185 0 185 231v392h27v-374q0 -270 -212 -271h-1q-213 0 -213 272v374zM243 818h43l41 -90h-17z" />
<glyph unicode="&#xda;" horiz-adv-x="605" d="M90 634l27 -1v-392q0 -231 187 -231q185 0 185 231v392h27v-374q0 -270 -212 -271h-1q-213 0 -213 272v374zM357 818l-67 -90h-18l42 90h43z" />
<glyph unicode="&#xdb;" horiz-adv-x="605" d="M90 634l27 -1v-392q0 -231 187 -231q185 0 185 231v392h27v-374q0 -270 -212 -271h-1q-213 0 -213 272v374zM317 818l62 -90h-33l-42 62l-47 -62h-31l63 90h28z" />
<glyph unicode="&#xdc;" horiz-adv-x="605" d="M90 634l27 -1v-392q0 -231 187 -231q185 0 185 231v392h27v-374q0 -270 -212 -271h-1q-213 0 -213 272v374zM215 784q2 29 28 29q29 0 29 -29t-29 -29q-26 0 -28 29zM343 784q2 29 29 29q28 0 28 -29t-28 -29q-27 0 -29 29z" />
<glyph unicode="&#xdd;" horiz-adv-x="486" d="M24 633h25l193 -357l194 357h26l-206 -376v-257h-27v256zM320 818l-67 -90h-18l42 90h43z" />
<glyph unicode="&#xde;" horiz-adv-x="533" d="M90 0v633h27v-128q42 19 104 22h14q98 0 151 -56q47 -49 47 -129q0 -98 -63 -151q-54 -46 -144 -46q-40 0 -109 18v-163h-27zM117 482v-296q65 -19 114 -19q175 0 175 172v4q-2 162 -173 162h-10q-47 -1 -106 -23z" />
<glyph unicode="&#xdf;" horiz-adv-x="479" d="M174 9l8 21q43 -20 82 -20h1q57 0 96.5 43.5t39.5 106.5q0 73 -53 123q-45 42 -106 42h-11v23h9q54 0 94 43.5t40 101.5q0 57 -39.5 94.5t-100.5 37.5q-59 0 -94 -37t-35 -101v-487h-27v481q0 166 154 166h1q80 -1 127 -50q41 -43 41 -108v-2q0 -112 -118 -148 q78 -22 111.5 -62.5t33.5 -111.5v-3q-1 -81 -49 -130q-42 -44 -103 -44h-2q-42 0 -100 21z" />
<glyph unicode="&#xe0;" horiz-adv-x="470" d="M162 655h43l42 -90h-18zM386 0h-21l-4 57q-75 -69 -163 -69q-68 0 -108 36.5t-40 98.5q0 154 205 154h104v11q0 155 -136 155q-64 0 -130 -52l-14 18q72 56 145 56q162 0 162 -183v-282zM359 255h-100q-93 0 -140 -37q-42 -33 -42 -91q0 -54 35 -85.5t94 -31.5 q83 0 153 75v170z" />
<glyph unicode="&#xe1;" horiz-adv-x="470" d="M296 655l-67 -90h-17l41 90h43zM386 0h-21l-4 57q-75 -69 -163 -69q-68 0 -108 36.5t-40 98.5q0 154 205 154h104v11q0 155 -136 155q-64 0 -130 -52l-14 18q72 56 145 56q162 0 162 -183v-282zM359 255h-100q-93 0 -140 -37q-42 -33 -42 -91q0 -54 35 -85.5t94 -31.5 q83 0 153 75v170z" />
<glyph unicode="&#xe2;" horiz-adv-x="470" d="M238 655l61 -90h-32l-42 62l-47 -62h-31l63 90h28zM386 0h-21l-4 57q-75 -69 -163 -69q-68 0 -108 36.5t-40 98.5q0 154 205 154h104v11q0 155 -136 155q-64 0 -130 -52l-14 18q72 56 145 56q162 0 162 -183v-282zM359 255h-100q-93 0 -140 -37q-42 -33 -42 -91 q0 -54 35 -85.5t94 -31.5q83 0 153 75v170z" />
<glyph unicode="&#xe3;" horiz-adv-x="470" d="M125 571l-17 10q34 62 77 62q18 0 41 -9l27 -17q38 -28 57 -28q16 0 45 51l18 -9q-35 -63 -71 -63q-19 0 -58 25q-3 2 -7 4l-1 1q-34 23 -52 23q-34 0 -59 -50zM386 0h-21l-4 57q-75 -69 -163 -69q-68 0 -108 36.5t-40 98.5q0 154 205 154h104v11q0 155 -136 155 q-64 0 -130 -52l-14 18q72 56 145 56q162 0 162 -183v-282zM359 255h-100q-93 0 -140 -37q-42 -33 -42 -91q0 -54 35 -85.5t94 -31.5q83 0 153 75v170z" />
<glyph unicode="&#xe4;" horiz-adv-x="470" d="M133 619q2 29 29 29q29 0 29 -29t-29 -29q-26 0 -29 29zM261 619q2 29 29 29q29 0 29 -29t-29 -29q-26 0 -29 29zM386 0h-21l-4 57q-75 -69 -163 -69q-68 0 -108 36.5t-40 98.5q0 154 205 154h104v11q0 155 -136 155q-64 0 -130 -52l-14 18q72 56 145 56q162 0 162 -183 v-282zM359 255h-100q-93 0 -140 -37q-42 -33 -42 -91q0 -54 35 -85.5t94 -31.5q83 0 153 75v170z" />
<glyph unicode="&#xe5;" horiz-adv-x="470" d="M171 595q0 28 18 46t47 18q27 0 45.5 -18.5t18.5 -45.5t-18.5 -45.5t-45.5 -18.5q-28 0 -46.5 18t-18.5 46zM198 595q0 -39 36 -39q17 0 28.5 11.5t11.5 27.5t-11.5 27.5t-28.5 11.5q-36 0 -36 -39zM386 0h-21l-4 57q-75 -69 -163 -69q-68 0 -108 36.5t-40 98.5 q0 154 205 154h104v11q0 155 -136 155q-64 0 -130 -52l-14 18q72 56 145 56q162 0 162 -183v-282zM359 255h-100q-93 0 -140 -37q-42 -33 -42 -91q0 -54 35 -85.5t94 -31.5q83 0 153 75v170z" />
<glyph unicode="&#xe6;" horiz-adv-x="766" d="M379 340q21 46 48 74q47 51 115 51q73 0 119 -52q56 -65 56 -187v-9h-331q1 -35 5 -60q25 -144 183 -144q62 0 135 40l11 -18q-73 -44 -148 -44q-79 0 -134 40q-31 22 -56 60q-54 -55 -96 -77.5t-92 -22.5q-67 0 -107.5 36.5t-40.5 97.5q0 152 205 152h104v15 q0 151 -134 151q-61 0 -133 -50l-12 15q70 57 146 57q73 0 112 -37q31 -30 45 -88zM386 239h305q-5 109 -50 161q-37 43 -99 43q-59 0 -100 -49q-50 -60 -56 -155zM355 255h-104q-89 0 -136 -38q-42 -33 -42 -88q0 -51 35.5 -83.5t91.5 -32.5q79 0 155 86v156z" />
<glyph unicode="&#xe7;" horiz-adv-x="450" d="M214 -6q-75 21 -117 75q-46 60 -49 156q0 110 69 180q60 61 146 61q63 0 131 -36l-11 -21q-61 35 -124 35q-84 0 -137 -72q-47 -62 -47 -150q4 -102 58 -157q51 -52 141 -55q55 0 122 36l12 -20q-63 -38 -139 -38q-20 1 -31 2h-1l-3 -25q15 3 26 3q28 0 47 -17.5 t19 -43.5q0 -30 -24.5 -48.5t-63.5 -18.5q-32 0 -62 15l9 25q23 -18 54 -18q60 0 60 44q0 41 -58 41h-2q-15 0 -38 -3z" />
<glyph unicode="&#xe8;" horiz-adv-x="458" d="M162 655h43l42 -90h-18zM410 217h-335q2 -42 12 -74q41 -130 186 -130q68 0 126 41l13 -19q-63 -44 -142 -44q-109 0 -169 72q-53 63 -53 162q0 110 60 180q52 61 127 61q86 0 134 -73q41 -65 41 -168v-8zM77 239h306q-3 93 -41 150q-37 55 -108 55q-63 0 -105 -52 q-46 -59 -52 -153z" />
<glyph unicode="&#xe9;" horiz-adv-x="458" d="M321 655l-67 -90h-18l42 90h43zM410 217h-335q2 -42 12 -74q41 -130 186 -130q68 0 126 41l13 -19q-63 -44 -142 -44q-109 0 -169 72q-53 63 -53 162q0 110 60 180q52 61 127 61q86 0 134 -73q41 -65 41 -168v-8zM77 239h306q-3 93 -41 150q-37 55 -108 55 q-63 0 -105 -52q-46 -59 -52 -153z" />
<glyph unicode="&#xea;" horiz-adv-x="458" d="M259 655l61 -90h-32l-42 62l-47 -62h-31l63 90h28zM410 217h-335q2 -42 12 -74q41 -130 186 -130q68 0 126 41l13 -19q-63 -44 -142 -44q-109 0 -169 72q-53 63 -53 162q0 110 60 180q52 61 127 61q86 0 134 -73q41 -65 41 -168v-8zM77 239h306q-3 93 -41 150 q-37 55 -108 55q-63 0 -105 -52q-46 -59 -52 -153z" />
<glyph unicode="&#xeb;" horiz-adv-x="458" d="M147 619q2 29 29 29q29 0 29 -29t-29 -29q-26 0 -29 29zM275 619q2 29 29 29q29 0 29 -29t-29 -29q-26 0 -29 29zM410 217h-335q2 -42 12 -74q41 -130 186 -130q68 0 126 41l13 -19q-63 -44 -142 -44q-109 0 -169 72q-53 63 -53 162q0 110 60 180q52 61 127 61 q86 0 134 -73q41 -65 41 -168v-8zM77 239h306q-3 93 -41 150q-37 55 -108 55q-63 0 -105 -52q-46 -59 -52 -153z" />
<glyph unicode="&#xec;" horiz-adv-x="203" d="M114 454v-454h-27v454h27zM26 655h43l42 -90h-18z" />
<glyph unicode="&#xed;" horiz-adv-x="203" d="M114 454v-454h-27v454h27zM178 655l-66 -90h-18l41 90h43z" />
<glyph unicode="&#xee;" horiz-adv-x="203" d="M114 454v-454h-27v454h27zM118 655l61 -90h-32l-42 62l-47 -62h-31l63 90h28z" />
<glyph unicode="&#xef;" horiz-adv-x="203" d="M117 454v-454h-27v454h27zM7 621q2 32 31 32q32 0 32 -32q0 -31 -32 -31q-28 0 -31 31zM135 621q2 32 32 32q31 0 31 -32q0 -31 -31 -31q-29 0 -32 31z" />
<glyph unicode="&#xf0;" horiz-adv-x="503" d="M271 570q-39 32 -105 65l19 11q60 -25 108 -65l113 57l17 -16l-111 -58q16 -16 31 -36q84 -112 84 -250v-21q-7 -131 -45 -194q-47 -75 -148 -75q-94 0 -147 77q-39 58 -39 127q0 122 71 178q50 39 126 39q43 0 86 -23q34 -17 68 -49q-18 103 -79 183q-14 19 -30 33 l-128 -66l-17 20zM403 307q-42 40 -78 59q-40 21 -81 21q-81 0 -125 -50.5t-44 -142.5q0 -83 50 -137q43 -47 105 -47q112 0 150 106q23 62 23 179v6v6z" />
<glyph unicode="&#xf1;" horiz-adv-x="508" d="M147 589l-19 11q32 58 80 58h2q33 0 62 -20l5 -3q35 -23 49 -23q25 0 51 48l18 -12q-33 -62 -72 -62h-2q-15 0 -55 21q-5 3 -8 5q-34 20 -51 20q-39 0 -60 -43zM435 0h-27v268q0 176 -150 176q-45 0 -79 -18.5t-74 -65.5v-360h-27v454h20l7 -58q74 70 157 70 q173 0 173 -193v-273z" />
<glyph unicode="&#xf2;" horiz-adv-x="523" d="M189 655h43l42 -90h-18zM475 226q0 -107 -64 -175q-58 -63 -150 -63q-105 0 -164 80q-49 65 -49 158q0 109 65 178q59 62 148 62q101 0 162 -79q52 -67 52 -161zM75 226q0 -98 61 -161q52 -55 126 -55q84 0 139 70q47 61 47 146q0 101 -62 164q-52 54 -125 54 q-86 0 -139 -69q-47 -61 -47 -149z" />
<glyph unicode="&#xf3;" horiz-adv-x="523" d="M329 655l-67 -90h-18l42 90h43zM475 226q0 -107 -64 -175q-58 -63 -150 -63q-105 0 -164 80q-49 65 -49 158q0 109 65 178q59 62 148 62q101 0 162 -79q52 -67 52 -161zM75 226q0 -98 61 -161q52 -55 126 -55q84 0 139 70q47 61 47 146q0 101 -62 164q-52 54 -125 54 q-86 0 -139 -69q-47 -61 -47 -149z" />
<glyph unicode="&#xf4;" horiz-adv-x="523" d="M282 655l62 -90h-32l-43 62l-46 -62h-31l62 90h28zM475 226q0 -107 -64 -175q-58 -63 -150 -63q-105 0 -164 80q-49 65 -49 158q0 109 65 178q59 62 148 62q101 0 162 -79q52 -67 52 -161zM75 226q0 -98 61 -161q52 -55 126 -55q84 0 139 70q47 61 47 146q0 101 -62 164 q-52 54 -125 54q-86 0 -139 -69q-47 -61 -47 -149z" />
<glyph unicode="&#xf5;" horiz-adv-x="523" d="M121 600q33 62 82 63h1q31 0 64 -23q1 -1 3 -2q1 -2 2 -2q28 -19 48 -19q26 0 51 44l20 -13q-35 -62 -74 -62h-2q-14 0 -55 22l-8 4q-34 20 -50 20q-41 1 -61 -44zM475 226q0 -107 -64 -175q-58 -63 -150 -63q-105 0 -164 80q-49 65 -49 158q0 109 65 178q59 62 148 62 q101 0 162 -79q52 -67 52 -161zM75 226q0 -98 61 -161q52 -55 126 -55q84 0 139 70q47 61 47 146q0 101 -62 164q-52 54 -125 54q-86 0 -139 -69q-47 -61 -47 -149z" />
<glyph unicode="&#xf6;" horiz-adv-x="523" d="M168 619q2 29 28 29q29 0 29 -29t-29 -29q-26 0 -28 29zM296 619q1 29 29 29t28 -29t-28 -29q-27 0 -29 29zM475 226q0 -107 -64 -175q-58 -63 -150 -63q-105 0 -164 80q-49 65 -49 158q0 109 65 178q59 62 148 62q101 0 162 -79q52 -67 52 -161zM75 226q0 -98 61 -161 q52 -55 126 -55q84 0 139 70q47 61 47 146q0 101 -62 164q-52 54 -125 54q-86 0 -139 -69q-47 -61 -47 -149z" />
<glyph unicode="&#xf7;" horiz-adv-x="356" d="M45 201v22h266v-22h-266zM179 272q-24 0 -24 25q0 24 24 24q22 0 22 -24q0 -25 -22 -25zM179 92q-24 0 -24 25q0 24 24 24q22 0 22 -24q0 -25 -22 -25z" />
<glyph unicode="&#xf8;" horiz-adv-x="523" d="M176 5l-16 -35h-26l20 46q-51 31 -79 88q-24 50 -27 122q0 109 65 178q59 62 148 62q51 -2 88 -19l19 43h28l-25 -55q50 -33 76 -87q25 -50 28 -122q0 -107 -64 -175q-58 -63 -150 -63q-48 2 -85 17zM186 28q32 -16 76 -18q84 0 139 70q47 61 47 146q-3 75 -32 125 q-22 37 -56 61zM339 425q-33 17 -78 19q-86 0 -139 -69q-47 -61 -47 -149q3 -73 31 -122q22 -39 59 -64z" />
<glyph unicode="&#xf9;" horiz-adv-x="497" d="M171 655h43l41 -90h-18zM419 454v-454h-18l-8 56q-70 -68 -157 -68q-158 0 -158 194v272h27v-270q0 -174 133 -174q87 0 154 79v365h27z" />
<glyph unicode="&#xfa;" horiz-adv-x="497" d="M304 655l-66 -90h-18l41 90h43zM419 454v-454h-18l-8 56q-70 -68 -157 -68q-158 0 -158 194v272h27v-270q0 -174 133 -174q87 0 154 79v365h27z" />
<glyph unicode="&#xfb;" horiz-adv-x="497" d="M265 655l61 -90h-32l-42 62l-47 -62h-31l63 90h28zM419 454v-454h-18l-8 56q-70 -68 -157 -68q-158 0 -158 194v272h27v-270q0 -174 133 -174q87 0 154 79v365h27z" />
<glyph unicode="&#xfc;" horiz-adv-x="497" d="M159 619q2 29 28 29q29 0 29 -29t-29 -29q-26 0 -28 29zM287 619q2 29 29 29q28 0 28 -29t-28 -29q-27 0 -29 29zM419 454v-454h-18l-8 56q-70 -68 -157 -68q-158 0 -158 194v272h27v-270q0 -174 133 -174q87 0 154 79v365h27z" />
<glyph unicode="&#xfd;" horiz-adv-x="426" d="M280 655l-67 -90h-18l41 90h44zM411 454l-200 -526q-25 -65 -52.5 -92t-69.5 -27q-34 0 -74 18l13 21q26 -17 59 -17q38 0 62 31t54 116l8 22h-11l-184 454h30l173 -441l164 441h28z" />
<glyph unicode="&#xfe;" horiz-adv-x="527" d="M78 621l27 14v-257q44 50 81 69t88 19q97 0 151 -71q46 -61 46 -159q0 -118 -63 -187q-57 -61 -145 -61t-158 76v-261h-27v818zM105 96q70 -86 152 -86q91 0 143 67q44 59 44 154q0 108 -53 164q-47 49 -127 49q-90 0 -159 -98v-250z" />
<glyph unicode="&#xff;" horiz-adv-x="426" d="M122 621q3 32 31 32q32 0 32 -32q0 -31 -32 -31q-28 0 -31 31zM250 621q2 32 32 32q31 0 31 -32q0 -31 -31 -31q-29 0 -32 31zM411 454l-200 -526q-25 -65 -52.5 -92t-69.5 -27q-34 0 -74 18l13 21q26 -17 59 -17q38 0 62 31t54 116l8 22h-11l-184 454h30l173 -441 l164 441h28z" />
<glyph unicode="&#x131;" horiz-adv-x="201" d="M116 454v-454h-27v454h27z" />
<glyph unicode="&#x141;" horiz-adv-x="429" d="M125 333l173 71v-25l-173 -71v-286h264v-22h-291v295l-73 -30v26l73 29v313h27v-300z" />
<glyph unicode="&#x142;" horiz-adv-x="231" d="M124 379l81 40v-26l-81 -40v-353h-27v338l-72 -35v26l72 35v261q13 6 26 16l1 1v-263z" />
<glyph unicode="&#x152;" horiz-adv-x="853" d="M768 626v-22h-312v-263h264v-22h-264v-290h325v-22h-353q-56 -12 -123 -12q-119 0 -191 102q-61 88 -61 216q0 154 80 245q70 80 179 80q56 0 115 -12h341zM429 26v581q-58 9 -117 9q-113 0 -177 -96q-55 -82 -55 -207q0 -140 72 -223q62 -73 156 -73q63 0 121 9z" />
<glyph unicode="&#x153;" horiz-adv-x="855" d="M806 225v-8h-335q2 -42 12 -74q40 -130 186 -130q67 0 126 41l13 -19q-63 -44 -142 -44q-99 0 -159 60q-34 35 -50 85q-6 -16 -12 -30q-37 -74 -105 -102q-35 -14 -83 -16q-104 0 -162 80q-47 65 -47 158q0 110 63 178q57 62 146 62q89 -3 144 -59q36 -36 55 -91 q15 52 48 90q50 57 126 60q87 0 134 -73q42 -65 42 -168zM75 226q0 -99 58 -161q51 -55 125 -55q84 0 138 70q47 61 47 146q0 101 -61 164q-52 54 -125 54q-85 0 -137 -69q-45 -60 -45 -149zM472 239h306q-3 93 -41 150q-37 55 -107 55q-63 0 -105 -52q-47 -59 -53 -153z " />
<glyph unicode="&#x160;" horiz-adv-x="458" d="M250 742h-28l-63 91h31l47 -63l42 63h33zM50 44l12 19q98 -45 159 -45h2q72 0 115.5 35t49.5 99q1 9 1 18q0 57 -38 93.5t-126 65.5q-89 29 -128 59q-52 42 -52 107q0 66 51.5 108t132.5 42q79 0 156 -44l-15 -21q-73 35 -133 35h-7q-72 -1 -115 -33.5t-43 -85.5v-5 q2 -45 37 -74.5t118 -56.5q103 -34 146 -76t43 -109q0 -10 -1 -21q-6 -76 -55.5 -120.5t-130.5 -45.5h-7q-83 0 -172 56z" />
<glyph unicode="&#x161;" horiz-adv-x="392" d="M203 565h-28l-62 90h31l46 -62l43 62h32zM299 408q-64 36 -115 36q-52 0 -82.5 -24.5t-30.5 -65.5q0 -36 26.5 -59t101.5 -51q84 -31 114.5 -58t30.5 -70q0 -58 -42.5 -93t-112.5 -35q-68 0 -142 38l8 23q74 -39 126 -39q63 0 99.5 28t36.5 76q0 35 -28 58t-104 51 q-80 29 -110.5 56.5t-30.5 72.5q0 51 38 82.5t100 31.5q58 0 128 -35z" />
<glyph unicode="&#x178;" horiz-adv-x="486" d="M151 792q2 29 29 29q29 0 29 -29t-29 -29q-26 0 -29 29zM279 792q2 29 29 29q29 0 29 -29t-29 -29q-26 0 -29 29zM22 633h29l191 -354l192 354h29l-208 -379v-254h-27v253z" />
<glyph unicode="&#x17d;" horiz-adv-x="436" d="M234 742h-28l-62 91h31l46 -63l43 63h32zM404 612l-350 -590h355v-22h-386v19l352 592h-343v22h372v-21z" />
<glyph unicode="&#x17e;" horiz-adv-x="387" d="M359 0h-337v22l301 410h-283v22h313v-25l-301 -407h307v-22zM217 565h-28l-63 90h31l47 -62l42 62h32z" />
<glyph unicode="&#x192;" horiz-adv-x="367" d="M174 -20v451h-59v22h59v70q0 121 103 121q28 0 67 -23l-12 -19q-33 20 -56 20h-1q-74 -1 -74 -98v-71h97v-22h-97v-453q-11 -116 -104 -116q-28 0 -67 23l12 18q33 -19 56 -19h1q69 0 75 96z" />
<glyph unicode="&#x2c6;" horiz-adv-x="159" d="M94 655l61 -90h-32l-42 62l-47 -62h-31l63 90h28z" />
<glyph unicode="&#x2c7;" horiz-adv-x="159" d="M94 565h-28l-63 90h31l47 -63l42 63h32z" />
<glyph unicode="&#x2d8;" horiz-adv-x="208" d="M172 646h17q-9 -92 -85 -92h-1q-76 0 -84 92h17q7 -71 67 -72h1q59 0 68 72z" />
<glyph unicode="&#x2d9;" horiz-adv-x="60" d="M5 620q2 26 25 26q26 0 26 -26q0 -25 -26 -25q-23 0 -25 25z" />
<glyph unicode="&#x2da;" horiz-adv-x="166" d="M19 595q0 28 18 46t46 18q27 0 46 -18.5t19 -45.5t-19 -45.5t-46 -18.5q-28 0 -46 18t-18 46zM45 595q0 -39 37 -39q16 0 27.5 11.5t11.5 27.5t-11.5 27.5t-27.5 11.5q-37 0 -37 -39z" />
<glyph unicode="&#x2db;" horiz-adv-x="153" d="M68 4h27q-50 -56 -50 -91q0 -42 38 -42q17 0 47 15l10 -21q-34 -22 -57 -22h-1q-27 0 -45.5 19t-18.5 48v2q1 44 50 92z" />
<glyph unicode="&#x2dc;" horiz-adv-x="283" d="M27 589l-19 11q32 61 79 62h2q29 0 63 -24l5 -3q33 -22 48 -22q26 0 51 47l19 -12q-34 -62 -73 -62h-1q-16 0 -56 23l-1 1q-4 2 -7 4q-34 22 -52 22q-37 0 -58 -47z" />
<glyph unicode="&#x2dd;" horiz-adv-x="230" d="M110 655l-67 -90h-18l41 90h44zM200 655l-67 -90h-17l41 90h43z" />
<glyph unicode="&#x3c0;" horiz-adv-x="544" d="M405 0v432h-273v-432h-27v432h-63v22h460v-22h-70v-432h-27z" />
<glyph unicode="&#x60c;" horiz-adv-x="167" d="M87 39q24 0 24 -21q0 -23 -22 -23q-24 0 -24 36v63l9 6v-61h13z" />
<glyph unicode="&#x61b;" horiz-adv-x="178" d="M111 40q21 0 21 -22q0 -23 -21 -23t-21 22q0 23 21 23zM110 272q24 0 24 -21q0 -23 -22 -23q-24 0 -24 36v63l9 6v-61h13z" />
<glyph unicode="&#x61f;" horiz-adv-x="411" d="M218 99q25 49 25 90q0 37 -19 67t-74 78q-31 28 -45 42q-53 53 -53 127q0 65 41.5 107t105.5 42q73 0 132 -52v-37q-3 3 -11 9q-64 51 -125 51q-50 0 -82.5 -32t-32.5 -81q0 -61 47 -107q9 -9 32 -30q64 -57 88.5 -96t24.5 -84t-23 -94h-31zM229 -1q-21 0 -21 22 q0 23 21 23t21 -22q0 -23 -21 -23z" />
<glyph unicode="&#x621;" horiz-adv-x="493" d="M35 -46v26q35 30 117 41q-63 79 -63 172q0 73 32.5 123.5t88.5 65.5q20 5 41 5q85 0 139 -72v-35q-56 82 -143 82q-15 0 -29 -3q-102 -25 -102 -162q0 -107 77 -174q12 1 33 1h10q136 0 207 55l1 -28q-85 -51 -212 -51q-129 0 -197 -46z" />
<glyph unicode="&#x622;" horiz-adv-x="207" d="M190 745q-20 -43 -50 -43q-23 0 -49 20q-18 14 -29 14q-17 0 -35 -29l-16 5q20 43 50 43q19 0 41 -18q20 -16 37 -16q18 0 35 29zM90 0v631l27 14v-645h-27z" />
<glyph unicode="&#x623;" horiz-adv-x="207" d="M29 657l11 21h23q-9 17 -9 33q0 26 19.5 45t45.5 19q17 0 34 -9v-24q-17 10 -33 10q-17 0 -29.5 -11.5t-12.5 -27.5q0 -18 16 -35h80l-11 -21h-134zM90 0v591l27 14v-605h-27z" />
<glyph unicode="&#x624;" horiz-adv-x="473" d="M285 580l-11 -20h-133l11 20h22q-9 16 -9 32q0 26 20 45.5t46 19.5q16 0 33 -9v-24q-16 11 -32 11q-17 0 -29.5 -11.5t-12.5 -26.5q0 -19 15 -37h80zM366 59q-47 -52 -138 -52q-83 0 -128 64q-40 56 -40 147q0 102 53 158q46 50 123 50q74 0 115.5 -43.5t41.5 -120.5 v-224q0 -169 -118 -218q-34 -11 -71 -11q-55 0 -106 24v26q52 -27 105 -27t92 27q71 53 71 179v21zM366 252q0 151 -130 151q-69 0 -109.5 -50t-40.5 -136q0 -87 41 -138q38 -46 100 -46q108 0 139 64v155z" />
<glyph unicode="&#x625;" horiz-adv-x="207" d="M90 0v631l27 14v-645h-27zM25 -212l11 20h22q-9 16 -9 32q0 26 20 45.5t46 19.5q16 0 33 -9v-24q-16 11 -32 11q-17 0 -29.5 -11.5t-12.5 -26.5q0 -19 15 -37h80l-11 -20h-133z" />
<glyph unicode="&#x626;" horiz-adv-x="685" d="M60 340l11 21h23q-9 16 -9 32q0 26 20 46q20 18 46 18q16 0 33 -8v-25q-17 11 -33 11q-17 0 -29.5 -11.5t-12.5 -27.5q0 -18 15 -35h81l-11 -21h-134zM592 318q-60 76 -142 76q-49 0 -79 -32t-30 -85v-2q1 -54 31.5 -83.5t114.5 -59.5q81 -29 109.5 -56.5t28.5 -76.5 q0 -80 -78 -135q-78 -54 -202 -54q-146 0 -220 86q-55 64 -55 159q0 90 48 155l29 6q-54 -76 -54 -166q0 -99 71 -160q68 -58 181 -58q129 0 200 61q53 45 53 105q0 37 -24.5 58.5t-97.5 46.5q-85 30 -117 59q-47 41 -47 113q0 70 52 110q40 32 91 32q80 0 137 -62v-37z" />
<glyph unicode="&#x627;" horiz-adv-x="207" d="M90 0v631l27 14v-645h-27z" />
<glyph unicode="&#x628;" horiz-adv-x="849" d="M242 0q-70 0 -111 44t-41 118v151l28 15v-158q0 -148 137 -148h341q136 0 136 148v233l27 15v-256q0 -75 -43 -118.5t-117 -43.5h-357zM400 -163q-24 0 -24 24t24 24q22 0 22 -24t-22 -24z" />
<glyph unicode="&#x629;" horiz-adv-x="492" d="M194 565q-24 0 -24 25q0 23 24 23q22 0 22 -23q0 -25 -22 -25zM282 565q-24 0 -24 25q0 23 24 23q22 0 22 -23q0 -25 -22 -25zM239 0q-84 0 -131 56q-40 48 -40 125q0 183 176 245q176 -62 176 -245q0 -88 -52 -138q-45 -43 -119 -43h-10zM235 22h19q63 0 101 43.5 t38 116.5q0 157 -149 221q-148 -64 -148 -222q0 -73 37.5 -116t101.5 -43z" />
<glyph unicode="&#x62a;" horiz-adv-x="849" d="M351 465q-24 0 -24 25q0 23 24 23q22 0 22 -23q0 -25 -22 -25zM439 465q-24 0 -24 25q0 23 24 23q22 0 22 -23q0 -25 -22 -25zM242 0q-70 0 -111 44t-41 118v151l28 15v-158q0 -148 137 -148h341q136 0 136 148v233l27 15v-256q0 -75 -43 -118.5t-117 -43.5h-357z" />
<glyph unicode="&#x62b;" horiz-adv-x="849" d="M389 541q-25 0 -25 26q0 25 25 25q24 0 24 -25q0 -26 -24 -26zM346 465q-24 0 -24 25q0 23 24 23q22 0 22 -23q0 -25 -22 -25zM434 465q-24 0 -24 25q0 23 24 23q22 0 22 -23q0 -25 -22 -25zM242 0q-70 0 -111 44t-41 118v151l28 15v-158q0 -148 137 -148h341 q136 0 136 148v233l27 15v-256q0 -75 -43 -118.5t-117 -43.5h-357z" />
<glyph unicode="&#x62c;" horiz-adv-x="602" d="M477 -325q-79 -50 -180 -50q-107 0 -172 75q-55 63 -55 152q0 98 62 163q31 33 71 49.5t123 30.5q95 17 138 38t74 66q-100 204 -251 204q-87 0 -160 -86v35q80 74 159 74h2q153 0 264 -208v-35q-37 -46 -85 -69t-147 -41q-77 -14 -112.5 -28t-62.5 -42q-53 -58 -53 -154 q0 -92 64 -150q56 -52 138 -52q123 0 183 50v-22zM294 -179q-26 0 -26 27q0 26 26 26q25 0 25 -26q0 -27 -25 -27z" />
<glyph unicode="&#x62d;" horiz-adv-x="602" d="M477 -325q-79 -50 -180 -50q-107 0 -172 75q-55 63 -55 152q0 98 62 163q31 33 71.5 49.5t122.5 30.5q93 16 137 37.5t75 66.5q-100 204 -251 204q-87 0 -160 -86v35q80 74 159 74h2q152 0 264 -208v-35q-37 -46 -85.5 -69.5t-146.5 -40.5q-77 -14 -113 -28.5t-62 -41.5 q-53 -58 -53 -154q0 -92 64 -150q56 -52 138 -52q123 0 183 50v-22z" />
<glyph unicode="&#x62e;" horiz-adv-x="602" d="M329 570q-24 0 -24 24t24 24q22 0 22 -24t-22 -24zM477 -325q-79 -50 -180 -50q-107 0 -172 75q-55 63 -55 152q0 98 62 163q31 33 71.5 49.5t122.5 30.5q93 16 137 37.5t75 66.5q-100 204 -251 204q-87 0 -160 -86v35q80 74 159 74h2q152 0 264 -208v-35 q-37 -46 -85.5 -69.5t-146.5 -40.5q-77 -14 -113 -28.5t-62 -41.5q-53 -58 -53 -154q0 -92 64 -150q56 -52 138 -52q123 0 183 50v-22z" />
<glyph unicode="&#x62f;" horiz-adv-x="431" d="M10 0l12 22h207q58 0 81 29.5t23 103.5q0 171 -143 252l13 20q158 -91 158 -273q0 -154 -129 -154h-222z" />
<glyph unicode="&#x630;" horiz-adv-x="431" d="M208 570q-24 0 -24 24t24 24q22 0 22 -24t-22 -24zM10 0l12 22h207q58 0 81 29.5t23 103.5q0 171 -143 252l13 20q158 -91 158 -273q0 -154 -129 -154h-222z" />
<glyph unicode="&#x631;" horiz-adv-x="279" d="M189 38q0 -180 -134 -220q-26 -8 -56 -8q-55 0 -106 25v25q52 -27 105 -27q51 0 89 26q74 48 74 179v365l28 15v-380z" />
<glyph unicode="&#x632;" horiz-adv-x="279" d="M167 570q-24 0 -24 24t24 24q22 0 22 -24t-22 -24zM189 38q0 -180 -134 -220q-26 -8 -56 -8q-55 0 -106 25v25q52 -27 105 -27q51 0 89 26q74 48 74 179v365l28 15v-380z" />
<glyph unicode="&#x633;" horiz-adv-x="1284" d="M1167 403l27 15v-253q0 -79 -45 -123q-42 -42 -114 -42h-27q-109 0 -145 89q-36 -89 -145 -89h-27q-90 0 -132 63v-24q0 -109 -75 -172q-67 -57 -172 -57q-123 0 -190 86q-52 66 -52 159q0 90 48 155l29 6q-54 -76 -54 -166q0 -96 66 -160q61 -58 153 -58q109 0 169 66 q51 55 51 141v277l27 15v-167q0 -142 137 -142h16q137 0 137 142v196l28 14v-210q0 -142 137 -142h16q137 0 137 142v239z" />
<glyph unicode="&#x634;" horiz-adv-x="1284" d="M858 599q-21 0 -21 22t21 22q20 0 20 -22t-20 -22zM815 523q-24 0 -24 25q0 24 24 24q22 0 22 -24q0 -25 -22 -25zM903 523q-24 0 -24 25q0 24 24 24q22 0 22 -24q0 -25 -22 -25zM1167 403l27 15v-253q0 -79 -45 -123q-42 -42 -114 -42h-27q-109 0 -145 89 q-36 -89 -145 -89h-27q-90 0 -132 63v-24q0 -109 -75 -172q-67 -57 -172 -57q-123 0 -190 86q-52 66 -52 159q0 90 48 155l29 6q-54 -76 -54 -166q0 -96 66 -160q61 -58 153 -58q109 0 169 66q51 55 51 141v277l27 15v-167q0 -142 137 -142h16q137 0 137 142v196l28 14v-210 q0 -142 137 -142h16q137 0 137 142v239z" />
<glyph unicode="&#x635;" horiz-adv-x="1317" d="M647 28q28 158 121 271q103 127 247 127q108 0 171 -74q53 -63 53 -158v-32q0 -75 -42.5 -118.5t-116.5 -43.5h-389q-90 0 -132 63v-24q0 -109 -75 -172q-67 -57 -172 -57q-123 0 -190 86q-52 66 -52 159q0 90 48 155l29 6q-54 -76 -54 -166q0 -96 66 -160 q61 -58 153 -58q109 0 169 66q51 55 51 141v277l27 15v-167q0 -113 88 -136zM1212 170v24q0 98 -62 157q-54 52 -134 52q-140 0 -240 -137q-74 -99 -108 -242q18 -2 28 -2h379q137 0 137 148z" />
<glyph unicode="&#x636;" horiz-adv-x="1317" d="M1007 570q-24 0 -24 24t24 24q22 0 22 -24t-22 -24zM647 28q28 158 121 271q103 127 247 127q108 0 171 -74q53 -63 53 -158v-32q0 -75 -42.5 -118.5t-116.5 -43.5h-389q-90 0 -132 63v-24q0 -109 -75 -172q-67 -57 -172 -57q-123 0 -190 86q-52 66 -52 159q0 90 48 155 l29 6q-54 -76 -54 -166q0 -96 66 -160q61 -58 153 -58q109 0 169 66q51 55 51 141v277l27 15v-167q0 -113 88 -136zM1212 170v24q0 98 -62 157q-54 52 -134 52q-140 0 -240 -137q-74 -99 -108 -242q18 -2 28 -2h379q137 0 137 148z" />
<glyph unicode="&#x637;" horiz-adv-x="835" d="M188 122q48 134 133 215q94 89 212 89q107 0 170 -74q54 -64 54 -158v-41q0 -153 -124 -153h-613l12 22h129v609l27 14v-523zM730 194q0 98 -62 157q-54 52 -134 52q-139 0 -242 -139q-77 -102 -109 -242h443q57 0 80.5 29.5t23.5 101.5v41z" />
<glyph unicode="&#x638;" horiz-adv-x="835" d="M188 122q48 134 133 215q94 89 212 89q107 0 170 -74q54 -64 54 -158v-41q0 -153 -124 -153h-613l12 22h129v609l27 14v-523zM730 194q0 98 -62 157q-54 52 -134 52q-139 0 -242 -139q-77 -102 -109 -242h443q57 0 80.5 29.5t23.5 101.5v41zM525 570q-24 0 -24 24t24 24 q22 0 22 -24t-22 -24z" />
<glyph unicode="&#x639;" horiz-adv-x="535" d="M485 -325q-79 -50 -181 -50q-118 0 -184 75q-50 56 -50 129q0 66 37 116t100 70q-56 25 -88 80.5t-32 128.5q0 100 66 156q52 45 123 46q99 0 153 -74v-36q-53 87 -150 87q-73 0 -119 -50q-45 -49 -45 -129q0 -92 53 -148q51 -54 133 -54h176v-22h-174q-107 0 -163 -58 q-44 -46 -44 -112q0 -78 57 -131q57 -52 149 -52q123 0 183 50v-22z" />
<glyph unicode="&#x63a;" horiz-adv-x="535" d="M286 570q-24 0 -24 24t24 24q22 0 22 -24t-22 -24zM485 -325q-79 -50 -181 -50q-118 0 -184 75q-50 56 -50 129q0 66 37 116t100 70q-56 25 -88 80.5t-32 128.5q0 100 66 156q52 45 123 46q99 0 153 -74v-36q-53 87 -150 87q-73 0 -119 -50q-45 -49 -45 -129 q0 -92 53 -148q51 -54 133 -54h176v-22h-174q-107 0 -163 -58q-44 -46 -44 -112q0 -78 57 -131q57 -52 149 -52q123 0 183 50v-22z" />
<glyph unicode="&#x640;" horiz-adv-x="116" d="M-10 0v22h136v-22h-136z" />
<glyph unicode="&#x641;" horiz-adv-x="905" d="M672 574q-24 0 -24 24t24 24q22 0 22 -24t-22 -24zM237 0q-67 0 -107 42.5t-40 114.5v151l27 15v-158q0 -143 134 -143h312q-71 62 -71 190q0 106 53 164q46 50 123 50q73 0 115 -43.5t42 -120.5v-100q0 -75 -43 -118.5t-117 -43.5h-428zM798 252q0 151 -130 151 q-70 0 -109 -51t-39 -141q0 -86 40 -139q37 -50 98 -50q140 0 140 150v80z" />
<glyph unicode="&#x642;" horiz-adv-x="704" d="M425 573q-24 0 -24 25q0 23 24 23q22 0 22 -23q0 -25 -22 -25zM512 573q-23 0 -23 25q0 23 23 23t23 -23q0 -25 -23 -25zM624 39q0 -111 -80 -172q-73 -57 -199 -57q-146 0 -220 86q-55 64 -55 159q0 90 48 155l29 6q-54 -76 -54 -166q0 -99 71 -160q68 -58 181 -58 q133 0 199 65q54 54 54 143v13q-45 -46 -139 -46q-82 0 -128 66q-40 57 -40 145q0 102 53 158q46 50 123 50q73 0 115 -43.5t42 -120.5v-223zM597 252q0 151 -130 151q-69 0 -108.5 -49.5t-39.5 -136.5t40 -138q37 -46 98 -46q107 0 140 62v157z" />
<glyph unicode="&#x643;" horiz-adv-x="848" d="M731 630l27 15v-483q0 -75 -42.5 -118.5t-116.5 -43.5h-357q-70 0 -111 44t-41 118v151l28 15v-158q0 -148 137 -148h341q135 0 135 148v460zM395 455q6 1 19 1q37 0 59 -19.5t22 -52.5q0 -28 -16.5 -45t-44.5 -17h-108l11 21h96q42 0 42 40q0 50 -62 50q-23 0 -49 -8v22 l80 89h22z" />
<glyph unicode="&#x644;" horiz-adv-x="643" d="M553 34q0 -106 -74 -168q-65 -56 -170 -56q-121 0 -187 86q-52 68 -52 161q0 90 49 154l27 5q-53 -76 -53 -164q0 -97 65 -161q61 -59 151 -59q107 0 166 64q50 54 50 138v597l28 14v-611z" />
<glyph unicode="&#x645;" horiz-adv-x="538" d="M211 22q-86 52 -86 190q0 106 53 164q46 50 123 50q73 0 115 -43.5t42 -120.5v-90q0 -79 -42 -125q-40 -45 -112 -47h-119q-138 0 -138 -142v-158l-27 -15v173q0 78 45 123q42 41 114 41h32zM431 168v84q0 151 -130 151q-70 0 -109 -51t-39 -141q0 -91 39 -142 q37 -47 98 -47q141 0 141 146z" />
<glyph unicode="&#x646;" horiz-adv-x="649" d="M320 458q-24 0 -24 24t24 24q22 0 22 -24t-22 -24zM559 39q0 -109 -75 -172q-67 -57 -172 -57q-123 0 -190 86q-52 66 -52 159q0 90 48 155l29 6q-54 -76 -54 -166q0 -96 66 -160q61 -58 153 -58q109 0 169 66q51 55 51 141v364l27 15v-379z" />
<glyph unicode="&#x647;" horiz-adv-x="492" d="M241 0q-84 0 -131 56q-40 48 -40 125q0 183 176 245q176 -62 176 -245q0 -88 -52 -138q-45 -43 -119 -43h-10zM237 22h19q63 0 101 43.5t38 116.5q0 157 -149 221q-148 -64 -148 -222q0 -73 37.5 -116t101.5 -43z" />
<glyph unicode="&#x648;" horiz-adv-x="473" d="M366 59q-47 -52 -138 -52q-83 0 -128 64q-40 56 -40 147q0 102 53 158q46 50 123 50q74 0 115.5 -43.5t41.5 -120.5v-224q0 -169 -118 -218q-34 -11 -71 -11q-55 0 -106 24v26q52 -27 105 -27t92 27q71 53 71 179v21zM366 252q0 151 -130 151q-69 0 -109.5 -50 t-40.5 -136q0 -87 41 -138q38 -46 100 -46q108 0 139 64v155z" />
<glyph unicode="&#x649;" horiz-adv-x="685" d="M592 318q-60 76 -142 76q-49 0 -79 -32t-30 -85v-2q1 -54 31.5 -83.5t114.5 -59.5q81 -29 109.5 -56.5t28.5 -76.5q0 -80 -78 -135q-78 -54 -202 -54q-146 0 -220 86q-55 64 -55 159q0 90 48 155l29 6q-54 -76 -54 -166q0 -99 71 -160q68 -58 181 -58q129 0 200 61 q53 45 53 105q0 37 -24.5 58.5t-97.5 46.5q-85 30 -117 59q-47 41 -47 113q0 70 52 110q40 32 91 32q80 0 137 -62v-37z" />
<glyph unicode="&#x64a;" horiz-adv-x="685" d="M592 318q-60 76 -142 76q-49 0 -79 -32t-30 -85v-2q1 -54 31.5 -83.5t114.5 -59.5q81 -29 109.5 -56.5t28.5 -76.5q0 -80 -78 -135q-78 -54 -202 -54q-146 0 -220 86q-55 64 -55 159q0 90 48 155l29 6q-54 -76 -54 -166q0 -99 71 -160q68 -58 181 -58q129 0 200 61 q53 45 53 105q0 37 -24.5 58.5t-97.5 46.5q-85 30 -117 59q-47 41 -47 113q0 70 52 110q40 32 91 32q80 0 137 -62v-37zM291 -331q-23 0 -23 24t23 24t23 -24t-23 -24zM379 -331q-23 0 -23 24t23 24t23 -24t-23 -24z" />
<glyph unicode="&#x64b;" d="M7 607l7 16l139 26l-7 -16zM0 565l8 16l139 26l-8 -16z" />
<glyph unicode="&#x64c;" d="M117 579q-38 16 -38 58q0 18 11.5 30.5t29.5 12.5q42 0 42 -43q0 -31 -19.5 -52t-48.5 -21q-45 0 -60 41l-22 -36l-10 1l30 49h13q15 -42 56 -42q8 0 16 2zM126 589q20 17 20 44q0 35 -26 35t-26 -35q0 -32 32 -44z" />
<glyph unicode="&#x64d;" d="M7 -157l7 16l139 26l-7 -16zM0 -199l8 16l139 26l-8 -16z" />
<glyph unicode="&#x64e;" d="M0 565l8 16l139 26l-8 -16z" />
<glyph unicode="&#x64f;" d="M0 565l9 19l86 17q-22 18 -22 49q0 18 11.5 30.5t29.5 12.5q42 0 42 -43q0 -57 -48 -65zM116 603q24 16 24 43q0 34 -26 34t-26 -34q0 -30 28 -43z" />
<glyph unicode="&#x650;" d="M0 -164l8 16l139 26l-8 -16z" />
<glyph unicode="&#x651;" d="M139 647l16 9v-47q0 -44 -42 -44q-23 0 -35 17q-14 -17 -36 -17q-42 0 -42 44v13l16 9v-23q0 -26 27 -26q26 0 26 22v33l17 9v-42q0 -22 27 -22q26 0 26 26v39z" />
<glyph unicode="&#x652;" d="M48 669q46 -14 46 -64q0 -45 -46 -45q-47 0 -47 48q0 47 47 61zM48 649q-30 -6 -30 -41q0 -32 30 -32t30 32q0 37 -30 41z" />
<glyph unicode="&#x653;" d="M176 707q-20 -43 -50 -43q-23 0 -49 20q-18 14 -29 14q-17 0 -35 -29l-16 5q20 43 50 43q19 0 41 -18q20 -16 37 -16q18 0 35 29z" />
<glyph unicode="&#x654;" d="M1 662l11 20h22q-9 16 -9 32q0 26 20 45.5t46 19.5q16 0 33 -9v-24q-16 11 -32 11q-17 0 -29.5 -11.5t-12.5 -26.5q0 -19 15 -37h80l-11 -20h-133z" />
<glyph unicode="&#x655;" d="M1 -206l11 20h22q-9 16 -9 33q0 25 20 44.5t46 19.5q16 0 33 -9v-24q-16 11 -32 11q-17 0 -29.5 -11.5t-12.5 -26.5q0 -19 15 -37h80l-11 -20h-133z" />
<glyph unicode="&#x660;" horiz-adv-x="151" d="M76 89l-36 36l36 35l35 -35z" />
<glyph unicode="&#x661;" horiz-adv-x="167" d="M70 -15v580h27v-565z" />
<glyph unicode="&#x662;" horiz-adv-x="369" d="M65 -15v470q0 110 118 110h161v-22h-160q-92 0 -92 -86v-458z" />
<glyph unicode="&#x663;" horiz-adv-x="515" d="M485 565v-123q0 -46 -30 -73.5t-80 -27.5q-70 0 -99 46q-29 -46 -95 -46q-54 0 -84 28v-369l-27 -15v580h27v-123q0 -75 84 -75q80 0 80 75v93h30v-93q0 -75 84 -75q80 0 80 75v123h30z" />
<glyph unicode="&#x664;" horiz-adv-x="344" d="M225 0q-92 0 -145 56q-40 43 -40 100q0 100 96 141q-82 40 -84 129q0 60 47.5 99.5t119.5 39.5h66v-24h-69q-60 0 -98 -31.5t-38 -81.5t38 -82t98 -32h44v-31h-40q-68 0 -111 -36t-43 -93q0 -58 42.5 -94t111.5 -36h86l13 -24h-94z" />
<glyph unicode="&#x665;" horiz-adv-x="414" d="M215 487q78 -53 127 -140t49 -174q0 -91 -52 -140q-46 -43 -124 -43q-91 0 -138 58q-40 48 -40 128q0 86 49 172t129 139zM215 453q-64 -45 -104 -120.5t-40 -150.5q0 -80 37.5 -124t106.5 -44q68 0 105 44t37 124q0 76 -39 151t-103 120z" />
<glyph unicode="&#x666;" horiz-adv-x="369" d="M276 -15v472q0 86 -91 86h-160v22h161q118 0 118 -110v-456z" />
<glyph unicode="&#x667;" horiz-adv-x="439" d="M188 0l-168 565h33l163 -546h4l166 546h33l-171 -565h-60z" />
<glyph unicode="&#x668;" horiz-adv-x="439" d="M20 0l168 565h60l171 -565h-33l-166 545h-4l-163 -545h-33z" />
<glyph unicode="&#x669;" horiz-adv-x="372" d="M280 -15v282q-47 -37 -101 -37q-40 0 -75 21q-69 44 -69 147q0 83 37 130t106 47q129 0 129 -147v-429zM280 427q0 124 -101 124q-115 0 -115 -154q0 -62 31.5 -100t81.5 -38h2q58 0 101 42v126z" />
<glyph unicode="&#x66a;" horiz-adv-x="502" d="M430 565h31l-290 -565h-30zM112 491l43 42l41 -42l-41 -43zM399 86l43 42l42 -42l-42 -43z" />
<glyph unicode="&#x66d;" horiz-adv-x="328" d="M169 531q-28 61 -28 79q2 23 28 23t28 -23q0 -18 -28 -79zM170 531q38 55 57 66q3 1 7 1q16 0 24 -17q4 -7 4 -15q0 -13 -10 -19q-11 -7 -68 -14q-1 0 -5 -1q-6 -1 -9 -1zM167 531q-67 7 -82 15q-11 5 -11 20q0 12 8.5 22t18.5 10q6 0 12 -4q14 -10 54 -63zM169 529 q1 -1 1 -2l-1 1v1h-1v1h-4h4l-1 1h1q-1 0 -1 1l1 -1h1h1l-1 -1h4h-3v-1v1h-1v-1zM167 527v1q1 0 1 1q1 0 1 -1l-10 -12q-36 -44 -46 -50q-6 -3 -11 -3q-11 0 -19.5 9t-8.5 21q0 15 11 21q12 8 83 15q-1 -1 -1 -2zM169 529h1h-1zM170 529q66 -7 82 -16q10 -5 10 -18 q0 -8 -5 -17q-8 -17 -20 -17q-6 0 -13 4q-17 11 -55 64h1zM169 528q27 -58 27 -78q0 -23 -28 -23q-27 0 -27 23q0 20 28 78z" />
<glyph unicode="&#x66e;" horiz-adv-x="849" d="M242 0q-70 0 -111 44t-41 118v151l28 15v-158q0 -148 137 -148h341q136 0 136 148v233l27 15v-256q0 -75 -43 -118.5t-117 -43.5h-357z" />
<glyph unicode="&#x670;" d="M0 711v94l16 9v-94z" />
<glyph unicode="&#x67e;" horiz-adv-x="849" d="M242 0q-70 0 -111 44t-41 118v151l28 15v-158q0 -148 137 -148h341q136 0 136 148v233l27 15v-256q0 -75 -43 -118.5t-117 -43.5h-357zM379 -164q-24 0 -24 24t24 24q22 0 22 -24t-22 -24zM466 -164q-23 0 -23 24t23 24t23 -24t-23 -24zM422 -235q-21 0 -21 21 q0 23 21 23q20 0 20 -23q0 -21 -20 -21z" />
<glyph unicode="&#x6a4;" horiz-adv-x="905" d="M664 652q-21 0 -21 22t21 22q20 0 20 -22t-20 -22zM621 576q-24 0 -24 25q0 23 24 23q22 0 22 -23q0 -25 -22 -25zM708 576q-23 0 -23 25q0 23 23 23t23 -23q0 -25 -23 -25zM237 0q-67 0 -107 42.5t-40 114.5v151l27 15v-158q0 -143 134 -143h312q-71 62 -71 190 q0 106 53 164q46 50 123 50q73 0 115 -43.5t42 -120.5v-100q0 -75 -43 -118.5t-117 -43.5h-428zM798 252q0 151 -130 151q-70 0 -109 -51t-39 -141q0 -86 40 -139q37 -50 98 -50q140 0 140 150v80z" />
<glyph unicode="&#x2000;" horiz-adv-x="474" />
<glyph unicode="&#x2001;" horiz-adv-x="949" />
<glyph unicode="&#x2002;" horiz-adv-x="521" />
<glyph unicode="&#x2003;" horiz-adv-x="1042" />
<glyph unicode="&#x2004;" horiz-adv-x="347" />
<glyph unicode="&#x2005;" horiz-adv-x="260" />
<glyph unicode="&#x2006;" horiz-adv-x="69" />
<glyph unicode="&#x2007;" horiz-adv-x="583" />
<glyph unicode="&#x2008;" horiz-adv-x="118" />
<glyph unicode="&#x2009;" horiz-adv-x="130" />
<glyph unicode="&#x200a;" horiz-adv-x="35" />
<glyph unicode="&#x2010;" horiz-adv-x="245" d="M220 230h-195v22h195v-22z" />
<glyph unicode="&#x2011;" horiz-adv-x="222" d="M222 275v-35h-222v35h222z" />
<glyph unicode="&#x2012;" horiz-adv-x="583" d="M510 275v-35h-437v35h437z" />
<glyph unicode="&#x2013;" horiz-adv-x="381" d="M70 211v22h241v-22h-241z" />
<glyph unicode="&#x2014;" horiz-adv-x="622" d="M70 211v22h482v-22h-482z" />
<glyph unicode="&#x2015;" horiz-adv-x="667" d="M667 283v-35h-667v35h667z" />
<glyph unicode="&#x2018;" horiz-adv-x="176" d="M92 563q24 0 24 -23q0 -21 -22 -21q-24 0 -24 39v54l8 12l1 -61h13z" />
<glyph unicode="&#x2019;" horiz-adv-x="176" d="M85 593q-24 0 -24 23q0 21 22 21q24 0 24 -39v-54l-8 -12l-1 61h-13z" />
<glyph unicode="&#x201a;" horiz-adv-x="170" d="M85 0q-24 0 -24 23q0 21 22 21q24 0 24 -39v-54l-8 -12l-1 61h-13z" />
<glyph unicode="&#x201c;" horiz-adv-x="253" d="M92 563q24 0 24 -23q0 -21 -22 -21q-24 0 -24 39v54l8 12l1 -61h13zM169 563q24 0 24 -23q0 -21 -22 -21q-24 0 -24 39v54l8 12l1 -61h13z" />
<glyph unicode="&#x201d;" horiz-adv-x="252" d="M85 593q-24 0 -24 23q0 21 22 21q24 0 24 -39v-54l-8 -12l-1 61h-13zM161 593q-24 0 -24 23q0 21 22 21q24 0 24 -39v-54l-8 -12l-1 61h-13z" />
<glyph unicode="&#x201e;" horiz-adv-x="252" d="M78 0q-24 0 -24 23q0 21 22 21q24 0 24 -39v-54l-8 -12l-1 61h-13zM154 0q-24 0 -24 23q0 21 22 21q24 0 24 -39v-54l-8 -12l-1 61h-13z" />
<glyph unicode="&#x2020;" horiz-adv-x="385" d="M42 431v22h134v180h27v-180h140v-22h-140v-474h-27v474h-134z" />
<glyph unicode="&#x2021;" horiz-adv-x="385" d="M42 156v22h134v253h-134v22h134v199h27v-199h140v-22h-140v-253h140v-22h-140v-200h-27v200h-134z" />
<glyph unicode="&#x2022;" horiz-adv-x="233" d="M118 150q-48 0 -48 49q0 47 48 47q45 0 45 -47q0 -49 -45 -49z" />
<glyph unicode="&#x2026;" horiz-adv-x="403" d="M111 -5q-21 0 -21 22q0 23 21 23t21 -22q0 -23 -21 -23zM224 -5q-21 0 -21 22q0 23 21 23t21 -22q0 -23 -21 -23zM338 -5q-21 0 -21 22q0 23 21 23t21 -22q0 -23 -21 -23z" />
<glyph unicode="&#x202f;" horiz-adv-x="189" />
<glyph unicode="&#x2030;" horiz-adv-x="1038" d="M666 149q0 -161 -118 -161q-59 0 -90.5 42t-31.5 119q0 75 32.5 117.5t89.5 42.5q56 0 87 -42t31 -118zM639 148v2q0 62 -25.5 99.5t-68.5 37.5q-42 0 -67 -37t-25 -100q0 -64 25 -102t68 -38t68 37.5t25 100.5zM287 485q0 -161 -119 -161q-58 0 -90 42t-32 119 q0 75 32.5 117.5t89.5 42.5q56 0 87.5 -42t31.5 -118zM260 484v2q-1 62 -26.5 99.5t-67.5 37.5q-43 0 -68 -37.5t-25 -99.5q0 -65 25.5 -102.5t68.5 -37.5q42 0 67.5 37.5t25.5 100.5zM991 149q0 -161 -119 -161q-58 0 -90 42t-32 119q0 75 32.5 117.5t89.5 42.5t88 -41.5 t31 -118.5zM964 148v2q0 62 -26 99.5t-68 37.5q-43 0 -68 -37t-25 -100q0 -64 25.5 -102t68.5 -38q42 0 67.5 37.5t25.5 100.5zM522 611l-383 -663h-27l384 663h26z" />
<glyph unicode="&#x2039;" horiz-adv-x="261" d="M221 29q-99 46 -171 197q71 151 171 198v-25q-93 -54 -145 -173q53 -120 145 -172v-25z" />
<glyph unicode="&#x203a;" horiz-adv-x="261" d="M40 29v25q91 51 144 172q-52 120 -144 173v25q97 -46 171 -198q-74 -152 -171 -197z" />
<glyph unicode="&#x2044;" horiz-adv-x="358" d="M20 0l291 565h27l-291 -565h-27z" />
<glyph unicode="&#x205f;" horiz-adv-x="237" />
<glyph unicode="&#x20ac;" horiz-adv-x="580" d="M120 255h-78v22h76q-1 15 -1 34q0 34 4 65h-79v22h82q28 156 135 218q48 27 114 29q86 0 162 -51l-12 -20q-79 49 -148 49q-35 -1 -58 -7q-66 -19 -109 -76q-42 -55 -58 -142h297v-22h-300q-3 -36 -3 -61q0 -19 1 -38h302v-22h-300q17 -155 124 -217q45 -26 109 -28 q70 0 148 55l14 -19q-77 -58 -164 -58q-42 1 -69 9q-76 21 -125 84q-54 71 -64 174z" />
<glyph unicode="&#x2122;" horiz-adv-x="500" d="M25 633h140v-13h-64v-223h-17v223h-59v13zM427 633v-238h-19v211l-79 -211h-16l-79 210v-210h-19v238h26l80 -213l82 213h24z" />
<glyph unicode="&#x2126;" horiz-adv-x="582" d="M68 0v22h103q-72 84 -96.5 141t-24.5 139q0 153 75 246q66 81 165 81q116 0 184 -104q58 -89 58 -223q0 -82 -25 -139.5t-96 -140.5h110v-22h-155v23q81 70 110 131.5t29 161.5q0 132 -66 216q-60 75 -149 75q-101 0 -162 -98q-51 -81 -51 -193q0 -102 27 -160t109 -133 v-23h-145z" />
<glyph unicode="&#x2202;" horiz-adv-x="479" d="M103 589l-14 19q65 37 121 37q107 0 166 -93q51 -79 52 -205v-3q0 -147 -42 -242q-50 -114 -153 -114q-90 0 -141 66q-42 55 -42 137q0 99 61 158q53 50 130 50q40 0 77 -16q40 -17 85 -59q1 12 1 25q0 133 -60 208q-53 66 -136 66q-50 0 -105 -34zM402 296 q-38 44 -91 66q-36 15 -71 15q-77 0 -123 -57q-40 -51 -40 -127q0 -89 49 -140q42 -43 107 -43q92 0 137 113q23 58 32 173z" />
<glyph unicode="&#x2206;" horiz-adv-x="541" d="M508 0h-475l220 633h34zM269 616l-200 -594h405z" />
<glyph unicode="&#x220f;" horiz-adv-x="645" d="M555 633v-812h-27v790h-411v-790h-27v812h465z" />
<glyph unicode="&#x2211;" horiz-adv-x="514" d="M316 255l-281 358v22h431v-22h-405l289 -358l-271 -412h400v-22h-428v17z" />
<glyph unicode="&#x2212;" horiz-adv-x="356" d="M45 211v22h266v-22h-266z" />
<glyph unicode="&#x221a;" horiz-adv-x="597" d="M77 306l115 31l82 -329l198 692h23l-199 -700h-40l-84 307l-89 -23z" />
<glyph unicode="&#x221e;" horiz-adv-x="573" d="M271 201q-44 -93 -116 -93q-47 0 -77 33.5t-30 86.5v1q0 51 27 84.5t71 36.5h8q68 0 118 -91q53 90 122 92h3q45 0 75 -34.5t30 -86.5v-2q0 -53 -29.5 -86.5t-75.5 -33.5h-5q-80 0 -121 93zM256 228q-33 100 -97 100h-5q-35 -2 -57 -29.5t-22 -70.5t24 -70.5t62 -27.5h1 q33 1 53.5 22t40.5 76zM283 226q44 -96 106 -96h8q35 3 56 29t22 68v2q0 43 -22 70.5t-58 29.5h-6q-65 0 -106 -103z" />
<glyph unicode="&#x222b;" horiz-adv-x="369" d="M299 618l-9 -16q-26 13 -56 13h-8q-86 0 -86 -93v-595q0 -118 -97 -118q-35 0 -87 22l9 19q31 -19 59 -19h3q86 1 86 100v595q0 117 98 117q36 0 88 -25z" />
<glyph unicode="&#x2248;" horiz-adv-x="458" d="M53 108l-13 6q34 72 82 73q34 0 110 -38q70 -34 105 -34q53 0 83 49l9 -8q-31 -63 -82 -63h-3q-38 0 -114 40q-62 32 -101 32h-2q-43 -1 -74 -57zM51 263l-11 12q34 72 82 72q34 0 110 -38q71 -34 105 -34q53 0 83 49l10 -10q-32 -61 -83 -61h-3q-39 0 -115 40 q-61 32 -100 32h-3q-44 -1 -75 -62z" />
<glyph unicode="&#x2260;" horiz-adv-x="489" d="M154 138h-112v22h127l81 134h-208v22h223l85 138h27l-85 -138h155v-22h-169l-82 -134h251v-22h-266l-83 -138h-28z" />
<glyph unicode="&#x2264;" horiz-adv-x="489" d="M65 273l381 -136v-28l-404 151v26l404 191v-28zM447 0h-405v22h405v-22z" />
<glyph unicode="&#x2265;" horiz-adv-x="489" d="M424 273l-381 176v28l404 -191v-26l-404 -151v28zM447 0h-405v22h405v-22z" />
<glyph unicode="&#x25cc;" horiz-adv-x="428" d="M214 645q15 0 15 -15t-15 -15t-15 15t15 15zM152 631q15 0 15 -15q0 -14 -15 -14t-15 14q0 15 15 15zM276 631q15 0 15 -15q0 -14 -15 -14t-15 14q0 15 15 15zM103 598q15 0 15 -15t-15 -15t-15 15t15 15zM326 598q15 0 15 -15t-15 -15q-16 0 -16 15t16 15zM71 548 q14 0 14 -14q0 -15 -14 -15q-15 0 -15 15q0 14 15 14zM358 548q14 0 14 -14q0 -15 -14 -15q-15 0 -15 15q0 14 15 14zM60 491q15 0 15 -16q0 -14 -15 -14t-15 14q0 16 15 16zM369 491q15 0 15 -16q0 -14 -15 -14t-15 14q0 16 15 16zM71 432q14 0 14 -15q0 -13 -14 -13 q-15 0 -15 13q0 15 15 15zM358 432q14 0 14 -15q0 -13 -14 -13q-15 0 -15 13q0 15 15 15zM103 383q15 0 15 -15q0 -14 -15 -14t-15 14q0 15 15 15zM326 383q15 0 15 -15q0 -14 -15 -14q-16 0 -16 14q0 15 16 15zM152 349q15 0 15 -13q0 -16 -15 -16t-15 16q0 13 15 13z M276 349q15 0 15 -13q0 -16 -15 -16t-15 16q0 13 15 13zM214 337q15 0 15 -16q0 -15 -15 -15t-15 15q0 16 15 16z" />
<glyph unicode="&#x25fc;" horiz-adv-x="455" d="M0 455h455v-455h-455v455z" />
<glyph unicode="&#xe028;" d="M24 10q-24 0 -24 24t24 24q22 0 22 -24t-22 -24z" />
<glyph unicode="&#xe030;" horiz-adv-x="878" d="M897 22h11v-22h-17q-109 0 -145 89q-37 -89 -147 -89h-357q-70 0 -111 44t-41 118v151l28 15v-158q0 -148 137 -148h341q136 0 136 148v233l27 15v-254q0 -142 138 -142z" />
<glyph unicode="&#xe03d;" horiz-adv-x="146" d="M130 0q-74 0 -116.5 44t-42.5 121v238l27 15v-254q0 -142 138 -142h11v-22h-17z" />
<glyph unicode="&#xe03e;" horiz-adv-x="778" d="M515 75q-3 -172 -175 -172q-79 0 -134 42q-106 82 -106 245q0 209 257 339q-76 60 -76 147q0 52 31 84t82 33q53 0 83 -30.5t30 -84.5q0 -83 -93 -150q140 -70 208 -172q56 -84 56 -178q0 -143 -92 -228v16q65 78 65 214q0 213 -263 330q-259 -120 -259 -321 q0 -147 101 -223q47 -36 110 -36q80 0 115.5 35t35.5 113v3q-49 -36 -101 -36q-57 0 -93 40.5t-36 105.5q0 68 37 111t96 43q57 0 90 -34.5t33 -94.5zM385 543q43 22 68 58.5t25 75.5t-22.5 62.5t-60.5 23.5q-41 0 -64 -22t-23 -60q0 -81 77 -138zM491 209q0 105 -97 105 q-47 0 -77 -33.5t-30 -87.5q0 -53 30.5 -86.5t78.5 -33.5q53 0 95 42v94z" />
<glyph unicode="&#xe800;" d="M152 775l-7 -16l-139 -26l7 16zM146 733l-8 -16l-139 -26l8 16zM138 647l16 9v-47q0 -44 -42 -44q-23 0 -35 17q-14 -17 -36 -17q-42 0 -42 44v13l16 9v-23q0 -26 27 -26q26 0 26 22v33l17 9v-42q0 -22 27 -22q26 0 26 26v39z" />
<glyph unicode="&#xfbb2;" d="M24 619q-24 0 -24 24t24 24q22 0 22 -24t-22 -24z" />
<glyph unicode="&#xfbb3;" d="M24 -171q-24 0 -24 24t24 24q22 0 22 -24t-22 -24z" />
<glyph unicode="&#xfbb4;" d="M24 640q-24 0 -24 25q0 23 24 23q22 0 22 -23q0 -25 -22 -25zM111 640q-23 0 -23 25q0 23 23 23t23 -23q0 -25 -23 -25z" />
<glyph unicode="&#xfbb5;" d="M24 -169q-24 0 -24 25q0 23 24 23q22 0 22 -23q0 -25 -22 -25zM111 -169q-23 0 -23 25q0 23 23 23t23 -23q0 -25 -23 -25z" />
<glyph unicode="&#xfbb6;" d="M67 655q-21 0 -21 22t21 22q20 0 20 -22t-20 -22zM24 579q-24 0 -24 25q0 23 24 23q22 0 22 -23q0 -25 -22 -25zM111 579q-23 0 -23 25q0 23 23 23t23 -23q0 -25 -23 -25z" />
<glyph unicode="&#xfbb7;" d="M24 -170q22 0 22 -24t-22 -24q-24 0 -24 24t24 24zM111 -170q23 0 23 -24t-23 -24t-23 24t23 24zM67 -99q20 0 20 -21q0 -23 -20 -23q-21 0 -21 23q0 21 21 21z" />
<glyph unicode="&#xfd3e;" horiz-adv-x="361" d="M239 -36q-86 66 -132.5 159t-46.5 199q0 105 46.5 197.5t132.5 158.5v-23q-70 -63 -109.5 -150.5t-39.5 -180.5q0 -205 149 -338v-22z" />
<glyph unicode="&#xfd3f;" horiz-adv-x="361" d="M120 -36v22q149 133 149 338v4q-5 198 -149 327v23q85 -66 132 -158.5t47 -195.5q0 -107 -46.5 -200.5t-132.5 -159.5z" />
</font>
</defs>
</svg>
