<svg xmlns="http://www.w3.org/2000/svg" xmlns:xlink="http://www.w3.org/1999/xlink" version="1.1"><metadata/><defs><font id="tajawallight" horiz-adv-x="1179"><font-face ascent="1321" descent="-727" units-per-em="2048"/><glyph d="M86 850v80h127v139q0 113 60.5 182.5t156.5 69.5q94 0 178 -57l-35 -58q-76 31 -124 31q-139 0 -140 -168v-139h600v-930h-96v850h-504v-850h-96v850h-127zM788 1247q0 31 21.5 52.5t52.5 21.5t52.5 -21.5t21.5 -52.5t-21.5 -52t-52.5 -21t-52.5 21t-21.5 52z" horiz-adv-x="1085" unicode="ﬁ"/><glyph d="M86 850v80h127v139q0 113 60.5 182.5t156.5 69.5q94 0 178 -57l-35 -58q-76 31 -124 31q-139 0 -140 -168v-139h217v-80h-217v-850h-96v850h-127zM799 0v1268l96 53v-1321h-96z" horiz-adv-x="1054" unicode="ﬂ"/><glyph d="M86 850v80h127v139q0 113 60.5 182.5t156.5 69.5q94 0 178 -57l-35 -58q-76 31 -124 31q-139 0 -140 -168v-139h543v139q0 113 60.5 182.5t156.5 69.5q94 0 178 -57l-35 -58q-76 31 -125 31q-139 0 -139 -168v-139h600v-930h-96v850h-504v-850h-96v850h-543v-850h-96v850 h-127zM1427 1247q0 31 21.5 52.5t52.5 21.5t52.5 -21.5t21.5 -52.5t-21.5 -52t-52.5 -21t-52.5 21t-21.5 52z" horiz-adv-x="1724" unicode="ﬃ"/><glyph horiz-adv-x="0"/><glyph horiz-adv-x="682"/><glyph horiz-adv-x="450"/><glyph horiz-adv-x="450"/><glyph horiz-adv-x="450"/><glyph d="M135 57q0 66 66 66q63 0 63 -66q0 -67 -63 -67q-66 0 -66 67zM150 287v1009h96v-1009h-96z" horiz-adv-x="399" unicode="!"/><glyph d="M143 1028v252l76 41v-252zM291 1028v252l76 41v-252z" horiz-adv-x="509" unicode="&quot;"/><glyph d="M31 311v82h182l92 455h-203v82h220l65 317h86l-65 -317h337l66 317h86l-66 -317h156v-82h-172l-92 -455h195v-82h-213l-64 -311h-86l63 311h-337l-64 -311h-86l66 311h-166zM299 393h338l92 455h-338z" horiz-adv-x="1017" unicode="#"/><glyph d="M133 98l47 68q166 -90 318 -90h10v569q-197 68 -285 153t-88 203q0 137 103.5 225.5t269.5 94.5v113h63v-115q156 -8 291 -96l-51 -68q-106 59 -240 66v-484q193 -78 270 -169t77 -240q0 -141 -95.5 -237.5t-251.5 -113.5v-129h-63v127q-201 4 -375 123zM258 1001 q0 -145 250 -239v457q-250 -14 -250 -218zM571 80q106 16 168 83.5t62 164.5q0 109 -53.5 176t-176.5 119v-543z" horiz-adv-x="1050" unicode="$"/><glyph d="M106 877q0 143 65 225t177 82q102 0 168 -85t66 -220q0 -147 -63.5 -235.5t-170.5 -88.5q-129 0 -192 109q-49 84 -50 213zM193 874q0 -111 41.5 -179t109.5 -68q66 0 109 69t43 178q0 102 -43 169t-109 67q-68 0 -109.5 -66.5t-41.5 -169.5zM373 0l620 1206h101 l-621 -1206h-100zM874 330q0 143 65 225t177 82q102 0 168 -85t66 -220q0 -147 -63.5 -235.5t-170.5 -88.5q-129 0 -192 109q-49 84 -50 213zM961 328q0 -109 41.5 -177.5t109.5 -68.5q66 0 109 68.5t43 177.5q0 102 -43 168.5t-109 66.5q-68 0 -109.5 -65.5t-41.5 -169.5z" horiz-adv-x="1456" unicode="%"/><glyph d="M133 342q0 231 213 363l-29 32q-154 176 -153 303q0 123 89 202t228 79q137 0 256 -82l-39 -74q-115 55 -219 56q-86 0 -139 -49.5t-53 -127.5q0 -113 162 -294l401 -455q33 66 33 270v109h110v-82q0 -272 -69 -381l184 -211h-131l-107 121q-51 -63 -144 -104.5 t-189 -41.5q-178 0 -297 115q-106 102 -107 252zM256 369q0 -133 81 -213t216 -80q152 0 246 123l-391 444q-66 -35 -109 -112.5t-43 -161.5z" horiz-adv-x="1159" unicode="&amp;"/><glyph d="M143 1028v252l76 41v-252z" horiz-adv-x="362" unicode="'"/><glyph d="M186 516q0 217 82 447.5t203 357.5h86q-262 -387 -262 -805t262 -805h-86q-121 127 -203 357.5t-82 447.5z" horiz-adv-x="753" unicode="("/><glyph d="M186 -289q262 387 263 805q0 418 -263 805h86q121 -127 203 -357.5t82 -447.5t-82 -447.5t-203 -357.5h-86z" horiz-adv-x="753" unicode=")"/><glyph d="M66 1126l71 107l185 -164l24 252l131 -39l-100 -223l233 51l11 -121l-244 19l123 -215l-117 -41l-55 235l-164 -186l-84 102l215 125z" horiz-adv-x="686" unicode="*"/><glyph d="M86 424v82h399v424h88v-424h400v-82h-400v-424h-88v424h-399z" horiz-adv-x="1058" unicode="+"/><glyph d="M92 63q0 78 82 78q43 0 70.5 -39t27.5 -96q0 -129 -114 -205l-11 27q76 68 76 143q0 10 -4 31q-25 -20 -47 -20q-33 0 -56.5 23.5t-23.5 57.5z" horiz-adv-x="401" unicode=","/><glyph d="M51 451v81h432v-81h-432z" horiz-adv-x="534" unicode="-"/><glyph d="M178 57q0 72 72 72t72 -72q0 -73 -72 -73q-72 4 -72 73z" horiz-adv-x="497" unicode="."/><glyph d="M-51 -61l653 1357h100l-651 -1357h-102z" horiz-adv-x="669" unicode="/"/><glyph d="M98 645q0 313 140 504q122 172 315 172q217 0 344 -221q106 -184 107 -455q0 -324 -136 -506q-121 -164 -315 -164q-227 0 -350 211q-104 178 -105 459zM221 657q0 -283 94 -438q86 -143 234 -143q170 0 258 184q74 154 74 397q0 276 -99 428q-88 136 -233 136 q-152 0 -240 -151.5t-88 -412.5z" horiz-adv-x="1101" unicode="0"/><glyph d="M61 1100l340 196h113v-1296h-113v1182l-280 -156z" horiz-adv-x="768" unicode="1"/><glyph d="M102 0v104l398 433q227 246 227 428q0 117 -73.5 186.5t-200.5 69.5q-145 0 -271 -82l-49 65q160 117 356 117q166 0 271 -111q90 -98 90 -245q0 -115 -69.5 -228.5t-272.5 -335.5l-279 -301h600v-100h-727z" horiz-adv-x="983" unicode="2"/><glyph d="M96 98l49 66q137 -88 285 -88q139 0 226 80t87 209q1 272 -331 272h-152v102h152q123 0 199.5 69t76.5 179q0 233 -268 234q-127 0 -260 -80l-51 63q139 117 337 117q162 0 267 -98q98 -90 98 -232q0 -100 -69.5 -184t-174.5 -109q135 -23 217 -114.5t82 -221.5 q0 -201 -153 -307q-113 -80 -264 -80q-190 0 -353 123z" horiz-adv-x="1015" unicode="3"/><glyph d="M72 285v98l594 913h122v-911h246v-100h-243v-285h-113v285h-606zM195 385h483v745z" horiz-adv-x="1126" unicode="4"/><glyph d="M150 94l40 62q123 -80 285 -80q156 0 243 84t87 233q0 154 -94.5 240t-259.5 86q-72 0 -201 -23q-16 -2 -35 -6v606h623v-100h-510v-399q74 12 168 12q203 0 321 -117q111 -111 111 -301q0 -199 -144 -319q-117 -96 -274 -97q-211 0 -360 119z" horiz-adv-x="1077" unicode="5"/><glyph d="M150 606q0 338 149 541q129 174 315 174q152 0 281 -96l-41 -60q-111 55 -231 56q-145 0 -242 -136t-111 -374q131 131 291 131q166 0 270 -107q113 -113 113 -321q0 -190 -117 -320q-109 -119 -266 -119q-209 0 -321 209q-90 168 -90 422zM266 584q2 -250 94 -389 q78 -119 201 -119q121 0 190.5 90t69.5 248t-74.5 248t-207.5 90q-78 0 -154 -47t-119 -121z" horiz-adv-x="1093" unicode="6"/><glyph d="M86 1196v100h690v-112l-510 -1184h-119l521 1196h-582z" horiz-adv-x="847" unicode="7"/><glyph d="M150 356q0 123 73.5 217.5t198.5 131.5q-233 113 -234 299q0 145 109 237q102 86 260 86q174 0 279 -108q86 -92 86 -222q-1 -207 -230 -297q121 -35 195 -129t74 -213q0 -174 -134 -284q-115 -98 -276 -99q-182 0 -299 125q-102 106 -102 256zM272 362q0 -121 80 -203.5 t199 -82.5q125 0 206 80t81 202q0 119 -83 206.5t-210 103.5q-117 -18 -195 -105.5t-78 -200.5zM311 1014q0 -213 244 -281q109 23 177.5 98.5t68.5 169.5q0 100 -67.5 160t-180.5 60q-106 0 -174 -57.5t-68 -149.5z" horiz-adv-x="1120" unicode="8"/><glyph d="M150 883q0 190 116 319q109 119 266 119q209 0 322 -209q90 -168 90 -422q0 -338 -149 -540q-129 -174 -316 -175q-152 0 -280 97l41 59q111 -55 231 -55q145 0 242 135q96 137 110 375q-131 -131 -291 -131q-166 0 -270 106q-113 113 -112 322zM272 883q0 -158 75 -248 t208 -90q78 0 153.5 47t118.5 121q-2 250 -94 389q-78 119 -201 119q-121 0 -190.5 -90.5t-69.5 -247.5z" horiz-adv-x="1093" unicode="9"/><glyph d="M178 57q0 72 72 72t72 -72q0 -73 -72 -73q-72 4 -72 73zM178 549q0 72 72 72t72 -72q0 -74 -72 -74q-72 4 -72 74z" horiz-adv-x="415" unicode=":"/><glyph d="M86 551q6 78 80 78q33 0 55.5 -22.5t22.5 -55.5t-22.5 -56.5t-55.5 -23.5q-76 0 -80 80zM90 63q0 78 82 78q43 0 70.5 -39t27.5 -96q0 -129 -114 -205l-11 27q76 68 76 143q0 10 -4 31q-25 -20 -47 -20q-33 0 -56.5 23.5t-23.5 57.5z" horiz-adv-x="358" unicode=";"/><glyph d="M86 438v111l848 426v-96l-768 -385l768 -424v-95z" horiz-adv-x="1058" unicode="&lt;"/><glyph d="M86 270v82h850v-82h-850zM86 578v81h850v-81h-850z" horiz-adv-x="1021" unicode="="/><glyph d="M125 -27v95l768 424l-768 385v96l848 -426v-111z" horiz-adv-x="1058" unicode="&gt;"/><glyph d="M86 1229q127 92 279 92q137 0 220 -84t83 -221q0 -184 -179 -338q-23 -20 -36 -31q-72 -57 -91.5 -93t-19.5 -105v-144h-100v160q0 82 20.5 119t102.5 104q195 158 194 309q0 104 -58.5 164t-160.5 60q-123 0 -223 -54zM205 61q0 35 25.5 60.5t60.5 25.5t60.5 -25.5 t25.5 -60.5t-25.5 -60.5t-60.5 -25.5t-60.5 25.5t-25.5 60.5z" horiz-adv-x="753" unicode="?"/><glyph d="M98 285q0 328 211 516q172 154 422 153q260 0 428 -176q160 -166 160 -424q0 -150 -62 -256q-72 -123 -200 -123q-57 0 -104.5 35t-63.5 92q-25 -55 -86.5 -91t-126.5 -36q-113 0 -181.5 80t-68.5 211q0 141 73.5 230.5t190.5 89.5q96 0 182 -62q2 4 9 25q10 27 14 39h55 v-377q0 -166 123 -166q74 0 117 84t43 225q0 272 -182 416q-137 106 -320 107q-248 0 -401 -168q-145 -160 -146 -418q0 -307 205 -463q150 -113 352 -113q41 0 78 4v-71q-39 -4 -82 -4q-279 0 -461 180q-178 174 -178 461zM514 279q0 -227 178 -228q180 0 180 242v153 q-74 63 -172 64q-186 0 -186 -231z" horiz-adv-x="1417" unicode="@"/><glyph d="M31 0l461 1296h135l458 -1296h-114l-113 311h-596l-110 -311h-121zM291 408h534l-268 776z" horiz-adv-x="1116" unicode="A"/><glyph d="M184 0v1296q154 25 320 25q422 0 422 -344q0 -213 -219 -285v-2q123 -23 192.5 -117t69.5 -237q0 -186 -142 -281q-121 -80 -323 -80q-119 0 -320 25zM297 80q109 -12 217 -12q330 0 330 270q0 141 -82 220t-227 79h-238v-557zM297 735h231q123 0 198 64.5t75 169.5 q0 260 -303 260q-115 0 -201 -12v-482z" horiz-adv-x="1071" unicode="B"/><glyph d="M102 635q0 303 160 502q150 184 381 184q207 0 352 -117l-49 -63q-133 80 -284 80q-205 0 -324 -168q-113 -156 -113 -418q0 -283 148 -436q121 -123 305 -123q166 0 287 96l47 -68q-145 -129 -350 -129q-266 0 -422 205q-137 178 -138 455z" horiz-adv-x="1114" unicode="C"/><glyph d="M184 0v1296q190 25 295 25q328 0 502 -201q149 -171 149 -454q0 -350 -186 -531q-166 -160 -455 -160q-113 0 -305 25zM297 80q98 -12 190 -12q260 0 396 165q125 152 125 420q0 293 -170 449q-139 127 -355 127q-125 0 -186 -12v-1137z" horiz-adv-x="1232" unicode="D"/><glyph d="M184 0v1296h734v-100h-621v-471h522v-100h-522v-525h647v-100h-760z" horiz-adv-x="1077" unicode="E"/><glyph d="M184 0v1296h734v-100h-621v-471h522v-100h-522v-625h-113z" horiz-adv-x="1050" unicode="F"/><glyph d="M102 645q0 295 156 490q150 186 387 186q205 0 350 -117l-49 -63q-137 80 -284 80q-205 0 -326 -168q-111 -158 -111 -416q0 -274 142 -430q121 -131 303 -131q150 0 268 57v438h-233v103h346v-588q-178 -111 -385 -111q-295 0 -447 234q-117 178 -117 436z" horiz-adv-x="1214" unicode="G"/><glyph d="M184 0v1296h113v-571h692v571h113v-1296h-113v625h-692v-625h-113z" horiz-adv-x="1286" unicode="H"/><glyph d="M184 0v1296h113v-1296h-113z" horiz-adv-x="481" unicode="I"/><glyph d="M-174 -274l39 59q70 -37 143 -37q145 0 146 182v1366h112v-1380q0 -123 -58 -191.5t-163 -68.5q-106 0 -219 70z" horiz-adv-x="450" unicode="J"/><glyph d="M184 0v1296h113v-585l508 585h135l-534 -612l528 -684h-141l-496 655v-655h-113z" horiz-adv-x="991" unicode="K"/><glyph d="M184 0v1296h113v-1196h518v-100h-631z" horiz-adv-x="948" unicode="L"/><glyph d="M184 0v1296h133q104 -268 322 -862l18 -49q74 -201 105 -283q27 74 92 250q238 643 358 944h127v-1296h-112v1087q-170 -487 -404 -1087h-123q-233 600 -403 1087v-1087h-113z" horiz-adv-x="1523" unicode="M"/><glyph d="M184 0v1296h109q53 -88 319.5 -550.5t319.5 -559.5v1110h112v-1296h-110q-127 209 -637 1090v-1090h-113z" horiz-adv-x="1228" unicode="N"/><glyph d="M102 649q0 297 156 490q149 182 391 182q274 0 428 -234q119 -182 119 -438q0 -299 -156 -489q-150 -184 -391 -185q-274 0 -428 234q-119 184 -119 440zM225 649q0 -270 121 -428q113 -145 303 -145q217 0 332 186q92 154 92 387q0 270 -121 426q-113 145 -303 146 q-217 0 -332 -187q-92 -152 -92 -385z" horiz-adv-x="1298" unicode="O"/><glyph d="M184 0v1296q182 25 299 25q252 0 365 -133q82 -98 82 -258q0 -180 -117 -283q-115 -100 -328 -100q-92 0 -188 10v-557h-113zM297 651q68 -12 172 -12q340 0 340 291q0 299 -338 299q-98 0 -174 -12v-566z" horiz-adv-x="1032" unicode="P"/><glyph d="M102 649q0 297 156 490q150 182 391 182q274 0 428 -234q119 -182 119 -438q0 -215 -88 -385q-82 -158 -221 -231l248 -260h-131l-211 223q-72 -20 -144 -21q-274 0 -428 234q-119 184 -119 440zM225 649q0 -270 121 -428q113 -145 303 -145q217 0 332 186q92 154 92 387 q0 270 -121 426q-113 145 -303 146q-217 0 -332 -187q-92 -152 -92 -385z" horiz-adv-x="1298" unicode="Q"/><glyph d="M184 0v1296q182 25 299 25q252 0 365 -133q82 -98 82 -258q0 -272 -246 -355l262 -575h-115l-247 551l-2 2q-45 -6 -97 -6q-92 0 -188 10v-557h-113zM297 651q68 -12 172 -12q340 0 340 291q0 299 -338 299q-98 0 -174 -12v-566z" horiz-adv-x="1048" unicode="R"/><glyph d="M102 98l48 68q166 -90 317 -90q137 0 220 68.5t83 183.5q0 119 -63 190q-68 72 -222 125q-201 68 -291 153t-90 205q0 147 119 238q106 82 277 82q184 0 331 -98l-51 -68q-117 66 -266 66q-137 0 -212 -57.5t-75 -162.5q0 -145 256 -241q229 -86 316.5 -179.5 t87.5 -252.5q0 -168 -131 -269q-111 -84 -267 -84q-201 0 -387 123z" horiz-adv-x="989" unicode="S"/><glyph d="M51 1196v100h948v-100h-434v-1196h-112v1196h-402z" horiz-adv-x="1050" unicode="T"/><glyph d="M184 539v757h113v-804q0 -416 338 -416q332 0 332 416v804h116v-757q0 -563 -448 -564q-451 0 -451 564z" horiz-adv-x="1267" unicode="U"/><glyph d="M31 1296h127l387 -1144l383 1144h129l-465 -1296h-96z" horiz-adv-x="1089" unicode="V"/><glyph d="M31 1296h127l366 -1144l322 1144h129l325 -1144l363 1144h129l-438 -1296h-113l-330 1137l-329 -1137h-109z" horiz-adv-x="1822" unicode="W"/><glyph d="M31 0l483 672l-410 624h127l342 -526l355 526h129l-428 -618l450 -678h-133l-377 586l-411 -586h-127z" horiz-adv-x="1110" unicode="X"/><glyph d="M31 1296h116l373 -680l373 680h119l-437 -790v-506h-110v506z" horiz-adv-x="1042" unicode="Y"/><glyph d="M51 0v100l694 1096h-675v100h790v-110l-688 -1086h700v-100h-821z" horiz-adv-x="923" unicode="Z"/><glyph d="M186 -287v1608h351v-92h-254v-1424h254v-92h-351z" horiz-adv-x="714" unicode="["/><glyph d="M-78 1296h101l653 -1357h-103z" horiz-adv-x="669" unicode="\"/><glyph d="M178 -195h254v1424h-254v92h350v-1608h-350v92z" horiz-adv-x="714" unicode="]"/><glyph d="M72 662l276 585h92l279 -585h-90l-234 512l-2 -3l-231 -509h-90z" horiz-adv-x="790" unicode="^"/><glyph d="M10 -61h766v-82h-766v82z" horiz-adv-x="786" unicode="_"/><glyph d="M51 1341h113l98 -208h-55z" horiz-adv-x="313" unicode="`"/><glyph d="M98 258q0 319 451 320h174v16q0 272 -262 272q-133 0 -262 -92l-39 57q123 123 323 123q162 0 249 -99t87 -284v-571h-69l-19 104q-137 -129 -325 -129q-137 0 -222.5 78t-85.5 205zM207 272q0 -98 60.5 -153.5t166.5 -55.5q86 0 170 42t119 102v289h-158 q-193 0 -275.5 -51.5t-82.5 -172.5z" horiz-adv-x="978" unicode="a"/><glyph d="M160 0v1268l96 53v-485q101 118 271 118h3q213 0 332 -153q98 -127 99 -318q0 -256 -142 -393q-117 -115 -291 -115q-172 0 -280 123l-19 -98h-69zM256 203q80 -139 270 -140q147 0 240 117q86 109 86 283q0 201 -102 309q-90 94 -230 94q-84 0 -157.5 -41t-106.5 -104 v-518z" horiz-adv-x="1058" unicode="b"/><glyph d="M98 461q0 225 146 368q127 125 305 125t289 -88l-39 -57q-102 57 -219 57q-184 0 -287 -131q-86 -109 -86 -280q0 -184 110 -291q102 -100 277 -101q119 0 227 66l37 -61q-115 -92 -297 -93q-219 0 -350 152q-113 133 -113 334z" horiz-adv-x="944" unicode="c"/><glyph d="M98 459q0 238 140 377q116 118 291 118h3q172 0 271 -118v432l96 53v-1321h-70l-18 98q-102 -123 -293 -123q-197 0 -317 154q-102 133 -103 330zM207 467q0 -199 106 -311q90 -92 226 -93q188 1 264 140v518q-33 66 -105.5 105.5t-156.5 39.5q-147 0 -244 -116 q-90 -111 -90 -283z" horiz-adv-x="1058" unicode="d"/><glyph d="M98 461q0 217 125 362q115 131 281 131q199 0 299 -174q76 -131 76 -321v-29h-672q4 -170 119 -274q106 -92 268 -93q137 0 240 74l38 -63q-123 -98 -311 -99q-215 0 -346 148q-117 133 -117 338zM209 512h567q-4 170 -75.5 263t-198.5 93q-119 0 -201 -99t-92 -257z" horiz-adv-x="976" unicode="e"/><glyph d="M86 850v80h127v139q0 113 60.5 182.5t156.5 69.5q94 0 178 -57l-35 -58q-76 31 -124 31q-139 0 -140 -168v-139h217v-80h-217v-850h-96v850h-127z" horiz-adv-x="638" unicode="f"/><glyph d="M119 459q0 238 139 377q116 118 292 118h3q172 0 270 -118l21 94h76v-867q0 -454 -396 -454h-2q-201 0 -323 123l39 57q129 -92 262 -92q170 0 246.5 86.5t76.5 279.5v27q-104 -115 -284 -115q-197 0 -318 154q-102 133 -102 330zM227 467q0 -199 107 -311 q90 -92 225 -93q188 1 264 140v518q-33 66 -105.5 105.5t-156.5 39.5q-147 0 -244 -116q-90 -111 -90 -283z" horiz-adv-x="1079" unicode="g"/><glyph d="M160 0v1270l96 51v-487q136 120 300 120h3q176 0 268 -104q90 -102 91 -293v-557h-97v547q0 319 -284 319q-78 0 -158 -41t-123 -100v-725h-96z" horiz-adv-x="1067" unicode="h"/><glyph d="M150 1247q0 31 21.5 52.5t51.5 21.5q31 0 52.5 -21.5t21.5 -52.5t-21.5 -52t-52.5 -21t-52 21t-21 52zM174 0v930h96v-930h-96z" horiz-adv-x="446" unicode="i"/><glyph d="M-131 -334l35 58q70 -31 125 -31q139 0 139 168v1069h96v-1069q0 -113 -60.5 -182.5t-156.5 -69.5q-94 0 -178 57zM141 1247q0 31 21.5 52.5t52.5 21.5t52.5 -21.5t21.5 -52.5t-21.5 -52t-52.5 -21t-52.5 21t-21.5 52z" horiz-adv-x="448" unicode="j"/><glyph d="M160 0v1268l96 53v-733l358 342h140l-400 -361l488 -569h-127l-459 541v-541h-96z" horiz-adv-x="892" unicode="k"/><glyph d="M160 0v1268l96 53v-1321h-96z" horiz-adv-x="415" unicode="l"/><glyph d="M160 0v930h80l8 -101q158 125 307 125q168 0 260 -135q156 135 340 135q166 0 258 -110q88 -104 88 -287v-557h-96v547q0 319 -275 319q-143 0 -276 -123q31 -82 31 -186v-557h-97v547q0 319 -256 319q-164 0 -276 -145v-721h-96z" horiz-adv-x="1650" unicode="m"/><glyph d="M160 0v930h80l8 -105q141 129 319 129q168 0 260 -108q90 -102 91 -289v-557h-97v547q0 319 -278 319q-180 0 -287 -141v-725h-96z" horiz-adv-x="1067" unicode="n"/><glyph d="M98 463q0 223 135 364q122 127 308 127q211 0 338 -161q104 -137 104 -330q0 -221 -135 -361q-121 -127 -307 -127q-213 0 -338 162q-104 135 -105 326zM207 463q0 -182 102 -297q92 -104 232 -105q160 0 254 134q79 110 79 264q0 190 -100 305q-92 104 -233 104 q-162 0 -256 -133q-78 -111 -78 -272z" horiz-adv-x="1081" unicode="o"/><glyph d="M160 -379v1309h80l16 -107q111 131 322 131q197 0 311 -153q96 -129 96 -318q0 -250 -139 -391q-115 -117 -279 -117q-197 0 -311 123v-477h-96zM256 205q39 -61 117 -101.5t159 -40.5q158 0 254 113q90 106 91 287q0 205 -103 311q-86 92 -227 92q-86 0 -167 -42.5 t-124 -110.5v-508z" horiz-adv-x="1083" unicode="p"/><glyph d="M98 453q0 248 144 387q116 114 283 114h3q190 0 295 -118l23 94h74v-1321h-97v489q-123 -123 -317 -123q-184 0 -303 152q-104 133 -105 326zM209 465q0 -199 106 -311q86 -90 213 -91q94 0 177 41.5t118 104.5v510q-41 68 -117.5 107.5t-162.5 39.5q-147 0 -242 -114 q-92 -111 -92 -287z" horiz-adv-x="1079" unicode="q"/><glyph d="M160 0v930h80l8 -105q143 129 272 129q139 0 209 -82l-80 -63q-68 55 -151 55q-127 0 -242 -139v-725h-96z" horiz-adv-x="770" unicode="r"/><glyph d="M98 68l27 55q121 -59 256 -60q242 0 242 181q0 68 -51.5 109.5t-186.5 82.5q-287 88 -287 279q0 104 82 171.5t211 67.5q145 0 266 -80l-30 -57q-98 49 -221 49q-92 0 -145.5 -39t-53.5 -108q0 -74 46 -113t181 -82q162 -51 228.5 -114.5t66.5 -169.5q0 -117 -90 -191 t-231 -74q-176 0 -310 93z" horiz-adv-x="827" unicode="s"/><glyph d="M86 848v82h145v213l95 49v-262h292v-82h-292v-621q0 -168 139 -168q55 0 125 31l35 -57q-84 -57 -179 -58q-96 0 -156.5 70t-60.5 182v621h-143z" horiz-adv-x="710" unicode="t"/><glyph d="M160 373v557h96v-547q0 -319 246 -320q178 0 286 146v721h97v-930h-80l-8 104q-141 -129 -320 -129q-145 0 -235 121q-82 109 -82 277z" horiz-adv-x="1044" unicode="u"/><glyph d="M31 930h108l299 -819l293 819h109l-346 -930h-117z" horiz-adv-x="870" unicode="v"/><glyph d="M31 930h108l254 -821l254 821h123l238 -821l252 821h108l-301 -930h-121l-239 821l-252 -821h-121z" horiz-adv-x="1398" unicode="w"/><glyph d="M31 0l327 483l-282 447h108l238 -371l258 371h108l-305 -441l322 -489h-109l-274 416l-281 -416h-110z" horiz-adv-x="835" unicode="x"/><glyph d="M31 930h108l324 -840l303 840h108l-407 -1075q-92 -246 -250 -246q-98 0 -180 57l35 58q74 -31 127 -31q66 0 107.5 50t99.5 196l24 61h-33z" horiz-adv-x="905" unicode="y"/><glyph d="M51 0v86l588 762h-553v82h668v-90l-588 -758h600v-82h-715z" horiz-adv-x="817" unicode="z"/><glyph d="M98 475v96q104 16 162.5 100.5t58.5 219.5v90q0 195 61.5 267.5t225.5 72.5h21v-92h-21q-117 0 -152.5 -46t-35.5 -202v-90q0 -262 -232 -369q125 -57 178.5 -143t53.5 -227v-97q0 -156 35.5 -203t152.5 -47h21v-92h-21q-180 0 -239 94q-47 72 -48 248v97 q0 127 -59.5 213.5t-161.5 109.5z" horiz-adv-x="743" unicode="{"/><glyph d="M184 -367v1723h88v-1723h-88z" horiz-adv-x="456" unicode="|"/><glyph d="M117 -195h20q117 0 153 47.5t36 202.5v97q0 141 53 227t178 143q-231 106 -231 369v90q0 156 -36 202t-153 46h-20v92h20q180 0 240 -92q47 -74 47 -248v-90q0 -135 58.5 -219.5t162.5 -100.5v-96q-102 -23 -161.5 -109.5t-59.5 -213.5v-97q0 -195 -61.5 -268.5 t-225.5 -73.5h-20v92z" horiz-adv-x="743" unicode="}"/><glyph d="M86 449q59 166 186 165q72 0 230 -71q135 -61 196 -62q109 0 156 97l25 -15q-47 -166 -164 -166q-74 0 -203 58q-16 6 -29 12q-16 6 -26 12q-109 51 -183 51q-100 0 -163 -100z" horiz-adv-x="964" unicode="~"/><glyph d="M135 877q0 67 66 67q63 0 63 -67q0 -66 -63 -66q-66 0 -66 66zM150 -362v1009h96v-1009h-96z" horiz-adv-x="399" unicode="¡"/><glyph d="M98 461q0 219 140 362q123 125 294 131v95h64v-97q143 -10 242 -86l-39 -57q-96 53 -203 57v-803q117 0 225 66l37 -61q-100 -83 -262 -91v-83h-64v81q-209 12 -327 162q-106 129 -107 324zM207 455q0 -164 87 -267.5t238 -119.5v794q-150 -14 -237.5 -124.5 t-87.5 -282.5z" horiz-adv-x="956" unicode="¢"/><glyph d="M86 662v90h150v129q0 440 342 440q164 0 288 -111l-49 -69q-111 78 -223 78q-244 0 -244 -322v-145h338v-90h-338v-562h508v-100h-768v100h146v562h-150z" horiz-adv-x="952" unicode="£"/><glyph d="M55 1034q0 12 21.5 34t36.5 22q2 0 4 -3l174 -172q90 63 209 64q117 0 207 -64l172 170q4 4 8 5q16 0 35.5 -18.5t19.5 -33.5q0 -6 -4 -10l-170 -168q74 -94 74 -215q0 -117 -70 -207l170 -164q2 -2 2 -8q0 -16 -19.5 -39.5t-31.5 -23.5q-6 0 -8 4l-174 170 q-84 -66 -211 -66q-129 0 -213 66l-166 -164q-2 -2 -6 -2q-12 0 -35 24.5t-23 38.5v2l166 164q-68 86 -67 205q0 117 73 211l-172 170q-2 4 -2 8zM248 645q0 -117 68.5 -185.5t185.5 -68.5t181.5 66.5t64.5 187.5t-66 189.5t-180 68.5q-115 0 -184.5 -70.5t-69.5 -187.5z" horiz-adv-x="974" unicode="¤"/><glyph d="M63 1294h115l273 -528l268 528h115l-328 -647h225v-92h-225v-82h225v-90h-225v-383h-119v383h-219v90h219v82h-219v92h219z" horiz-adv-x="899" unicode="¥"/><glyph d="M184 -393v833h88v-833h-88zM184 625v759h88v-759h-88z" horiz-adv-x="456" unicode="¦"/><glyph d="M102 551q0 168 183 264q-139 92 -140 236q0 125 81 197.5t218 72.5q156 0 277 -80l-25 -35l-8 -14q-96 45 -217 45q-102 0 -162.5 -47t-60.5 -127q0 -78 60.5 -134.5t205.5 -111.5q150 -55 212 -128t62 -187q1 -152 -163 -240q139 -78 139 -244q0 -137 -91 -221t-239 -84 q-164 0 -297 88l27 49q109 -47 231 -47q266 0 267 197q0 84 -55.5 137t-184.5 99q-172 57 -246 129.5t-74 185.5zM203 582q0 -94 58 -152.5t204 -107.5q23 -8 63 -23q18 -6 35 -12q49 20 91 80.5t42 115.5q0 156 -188 228l-16 6q-14 6 -21 8q-100 38 -141 61 q-127 -84 -127 -204z" horiz-adv-x="890" unicode="§"/><glyph d="M70 1247q0 31 21.5 52.5t51.5 21.5q31 0 52.5 -21.5t21.5 -52.5t-21.5 -52t-52.5 -21t-52 21t-21 52zM356 1247q0 31 21.5 52.5t52.5 21.5t52.5 -21.5t21.5 -52.5t-21.5 -52t-52.5 -21t-52.5 21t-21.5 52z" horiz-adv-x="573" unicode="¨"/><glyph d="M98 645q0 272 205 459q176 160 412 160q272 0 456 -205q160 -176 160 -414q0 -272 -205 -457q-176 -160 -411 -159q-272 0 -457 204q-160 176 -160 412zM184 645q0 -242 174 -399q152 -137 361 -137q240 0 395 176q131 152 131 360q0 242 -174 399q-152 137 -360 138 q-242 0 -396 -176q-131 -150 -131 -361zM367 637q0 176 116 291q102 100 250 100q139 0 250 -88l-25 -53q-102 57 -213 57q-145 0 -219 -108q-57 -84 -57 -205q0 -125 82 -207t209 -82q117 0 205 61l32 -61q-117 -88 -270 -88q-166 0 -272 129q-88 106 -88 254z" horiz-adv-x="1429" unicode="©"/><glyph d="M68 969q0 158 249 157h56v4q0 123 -119 123q-63 0 -133 -51l-37 49q88 70 188 70q190 0 191 -207v-283h-72l-12 82q-49 -94 -156 -94q-68 0 -111.5 42t-43.5 108zM156 975q0 -84 96 -84q92 0 119 92v90h-49q-166 0 -166 -98z" horiz-adv-x="548" unicode="ª"/><glyph d="M106 485q72 162 182.5 281t223.5 158v-93q-197 -102 -305 -346q109 -242 305 -344v-92q-113 39 -223.5 158t-182.5 278zM487 485q74 162 184.5 281t221.5 158v-93q-195 -102 -305 -346q111 -242 305 -344v-92q-111 39 -221.5 158t-184.5 278z" horiz-adv-x="978" unicode="«"/><glyph d="M86 334v110h764v-444h-117v334h-647z" horiz-adv-x="935" unicode="¬"/><glyph d="M51 451v81h432v-81h-432z" horiz-adv-x="534" unicode="­"/><glyph d="M92 991q0 145 111 246q94 84 221 84q147 0 246 -109q86 -94 86 -221q0 -147 -111 -246q-94 -86 -221 -86q-147 0 -246 111q-86 94 -86 221zM156 991q0 -113 77.5 -191.5t190.5 -78.5t190.5 79t77.5 191q0 111 -78.5 190t-189.5 79t-189.5 -79t-78.5 -190zM313 840v321 h101q121 0 121 -96q0 -70 -64 -94l74 -131h-66l-65 123h-47v-123h-54zM367 1014h49q63 0 63 47q0 53 -63 53h-49v-100z" horiz-adv-x="847" unicode="®"/><glyph d="M33 1217v79h377v-79h-377z" horiz-adv-x="442" unicode="¯"/><glyph d="M51 1104q0 96 67.5 163.5t164.5 67.5q96 0 163.5 -67.5t67.5 -163.5t-67.5 -164t-163.5 -68t-164 68t-68 164zM115 1106q0 -72 49 -122t121 -50q70 0 119 50t49 122t-49.5 121t-118.5 49q-72 0 -121 -49t-49 -121z" horiz-adv-x="565" unicode="°"/><glyph d="M86 0v82h850v-82h-850zM86 532v82h379v316h88v-316h383v-82h-383v-315h-88v315h-379z" horiz-adv-x="1021" unicode="±"/><glyph d="M121 1229q106 92 215 92q98 0 157.5 -54.5t59.5 -144.5q0 -61 -30.5 -113.5t-119.5 -136.5l-143 -137h297v-88h-430v90l201 183q135 123 135 196q0 117 -137 117q-70 0 -168 -55z" horiz-adv-x="677" unicode="²"/><glyph d="M150 727l38 47q74 -43 154 -43q68 0 111 31t43 78q0 121 -152 121h-61v86h61q141 0 141 92q0 94 -135 94q-80 0 -164 -43l-36 45q104 86 219 86q96 0 152.5 -45t56.5 -123q0 -98 -95 -149q106 -33 107 -162q0 -88 -65.5 -143.5t-170.5 -55.5q-104 0 -204 84z" horiz-adv-x="710" unicode="³"/><glyph d="M51 1133l99 208h112l-156 -208h-55z" horiz-adv-x="313" unicode="´"/><glyph d="M160 -365v1295h100v-582q0 -272 227 -272q176 0 261 160v694h100v-731q0 -135 98 -136q41 0 78 17l27 -45q-57 -61 -138 -62q-150 0 -168 160q-104 -158 -276 -158q-141 0 -209 88v-428h-100z" horiz-adv-x="1097" unicode="µ"/><glyph d="M94 1020q0 121 88 198.5t228 77.5h141v-1296h-49v758h-88q-147 0 -233.5 70.5t-86.5 191.5zM614 0v1296h50v-1296h-50z" horiz-adv-x="847" unicode="¶"/><glyph d="M80 717q0 35 25.5 60.5t60.5 25.5t60.5 -25.5t25.5 -60.5t-25.5 -60.5t-60.5 -25.5t-60.5 25.5t-25.5 60.5z" horiz-adv-x="331" unicode="·"/><glyph d="M51 -297l23 68q51 -29 106 -29q102 0 103 76q0 74 -103 73q-37 0 -74 -6l33 135h80l-24 -86q20 4 43 5q135 0 135 -115q0 -66 -52.5 -109t-132.5 -43q-66 0 -137 31z" horiz-adv-x="423" unicode="¸"/><glyph d="M59 1155l170 141h84v-645h-82v531l-110 -90z" horiz-adv-x="518" unicode="¹"/><glyph d="M68 1069q0 113 63.5 182.5t165.5 69.5q100 0 162.5 -70.5t62.5 -181.5q0 -106 -64.5 -178t-160.5 -72q-98 0 -163.5 72t-65.5 178zM160 1069q0 -82 40 -136t99 -54q61 0 97 51t36 139q0 86 -38 139.5t-97 53.5q-61 0 -99 -52.5t-38 -140.5z" horiz-adv-x="589" unicode="º"/><glyph d="M86 49v92q197 102 305 344q-109 244 -305 346v93q113 -39 222.5 -158t183.5 -281q-74 -160 -183.5 -278.5t-222.5 -157.5zM467 49v92q197 102 305 344q-109 244 -305 346v93q113 -39 223.5 -158t181.5 -281q-72 -160 -182 -278.5t-223 -157.5z" horiz-adv-x="978" unicode="»"/><glyph d="M150 1155l169 141h84v-645h-81v531l-111 -90zM311 -61l787 1357h90l-785 -1357h-92zM928 137v88l350 426h84v-426h125v-88h-125v-137h-84v137h-350zM1038 225h240v297z" horiz-adv-x="1593" unicode="¼"/><glyph d="M150 1155l169 141h84v-645h-81v531l-111 -90zM303 -61l787 1357h90l-785 -1357h-92zM1042 582q106 92 215 92q98 0 158 -54.5t60 -144.5q0 -61 -31 -113.5t-119 -136.5l-143 -137h297v-88h-430v90l200 182q135 123 135 197q0 117 -137 117q-70 0 -168 -56z" horiz-adv-x="1638" unicode="½"/><glyph d="M150 727l38 47q74 -43 154 -43q68 0 111 31t43 78q0 121 -152 121h-61v86h61q141 0 141 92q0 94 -135 94q-80 0 -164 -43l-36 45q104 86 219 86q96 0 152.5 -45t56.5 -123q0 -98 -95 -149q106 -33 107 -162q0 -88 -65.5 -143.5t-170.5 -55.5q-104 0 -204 84zM412 -61 l786 1357h90l-784 -1357h-92zM1004 137v88l350 426h84v-426h125v-88h-125v-137h-84v137h-350zM1114 225h240v297z" horiz-adv-x="1683" unicode="¾"/><glyph d="M98 -88q0 184 178 338q23 20 37 31q72 57 91.5 93t19.5 105v144h100v-160q0 -82 -20.5 -119t-102.5 -104q-195 -158 -194 -310q0 -104 58.5 -163.5t160.5 -59.5q123 0 223 53l31 -61q-127 -92 -279 -92q-137 0 -220 84t-83 221zM389 866q0 35 25.5 60.5t60.5 25.5 t60.5 -25.5t25.5 -60.5t-25.5 -60.5t-60.5 -25.5t-60.5 25.5t-25.5 60.5z" horiz-adv-x="778" unicode="¿"/><glyph d="M31 0l461 1296h135l458 -1296h-114l-113 311h-596l-110 -311h-121zM291 408h534l-268 776zM330 1686h112l99 -209h-56z" unicode="À"/><glyph d="M31 0l461 1296h135l458 -1296h-114l-113 311h-596l-110 -311h-121zM291 408h534l-268 776zM532 1477l99 209h112l-155 -209h-56z" unicode="Á"/><glyph d="M31 0l461 1296h135l458 -1296h-114l-113 311h-596l-110 -311h-121zM291 408h534l-268 776zM375 1477l145 209h76l143 -209h-88l-92 137l-98 -137h-86z" unicode="Â"/><glyph d="M31 0l461 1296h135l458 -1296h-114l-113 311h-596l-110 -311h-121zM291 408h534l-268 776zM299 1516q53 137 164 137q61 0 135 -49q66 -43 104 -43q57 0 103 90l43 -29q-55 -137 -154 -137q-37 0 -104 39q-2 0 -4 2q-4 2 -6 2q-4 2 -15 8l-4 2q-66 39 -98 39 q-35 0 -72 -26.5t-49 -61.5z" unicode="Ã"/><glyph d="M31 0l461 1296h135l458 -1296h-114l-113 311h-596l-110 -311h-121zM291 408h534l-268 776zM346 1591q0 31 21.5 52.5t52.5 21.5t52.5 -21.5t21.5 -52.5t-21.5 -52t-52.5 -21t-52.5 21t-21.5 52zM633 1591q0 31 21.5 52.5t52.5 21.5t52 -21.5t21 -52.5t-21.5 -52 t-51.5 -21q-31 0 -52.5 21t-21.5 52z" unicode="Ä"/><glyph d="M31 0l461 1296h135l458 -1296h-114l-113 311h-596l-110 -311h-121zM291 408h534l-268 776zM430 1563q0 53 38 91t91 38t91 -38t38 -91t-38 -91t-91 -38t-91 38t-38 91zM483 1563q0 -31 21.5 -52.5t52.5 -21.5t53.5 21.5t22.5 52.5t-22.5 52t-53.5 21t-52.5 -21t-21.5 -52 z" unicode="Å"/><glyph d="M31 0l569 1296h817v-100h-620v-471h522v-100h-522v-525h647v-100h-760v330h-403l-131 -330h-119zM324 426h360v766h-29z" horiz-adv-x="1550" unicode="Æ"/><glyph d="M98 635q0 303 160 502q150 184 381 184q207 0 352 -117l-49 -63q-133 80 -285 80q-205 0 -323 -168q-113 -156 -113 -418q0 -283 148 -436q121 -123 305 -123q166 0 287 96l47 -68q-139 -123 -336 -129l-10 -41q20 4 43 5q135 0 135 -115q0 -66 -52.5 -109t-132.5 -43 q-66 0 -137 31l23 68q51 -29 106 -29q102 0 103 76q0 74 -103 73q-37 0 -74 -6l23 95q-240 23 -377 221q-121 176 -121 434z" horiz-adv-x="1159" unicode="Ç"/><glyph d="M168 0v1296h733v-100h-620v-471h522v-100h-522v-525h647v-100h-760zM360 1688h113l98 -209h-55z" horiz-adv-x="1077" unicode="È"/><glyph d="M168 0v1296h733v-100h-620v-471h522v-100h-522v-525h647v-100h-760zM461 1468l98 209h113l-156 -209h-55z" horiz-adv-x="1077" unicode="É"/><glyph d="M168 0v1296h733v-100h-620v-471h522v-100h-522v-525h647v-100h-760zM350 1477l146 209h75l144 -209h-88l-92 137l-99 -137h-86z" horiz-adv-x="1077" unicode="Ê"/><glyph d="M168 0v1296h733v-100h-620v-471h522v-100h-522v-525h647v-100h-760zM317 1591q0 31 21.5 52.5t52.5 21.5t52.5 -21.5t21.5 -52.5t-21.5 -52t-52.5 -21t-52.5 21t-21.5 52zM604 1591q0 31 21.5 52.5t52.5 21.5t52.5 -21.5t21.5 -52.5t-21.5 -52t-52.5 -21t-52.5 21 t-21.5 52z" horiz-adv-x="1077" unicode="Ë"/><glyph d="M55 1686h113l98 -209h-55zM184 0v1296h113v-1296h-113z" horiz-adv-x="557" unicode="Ì"/><glyph d="M184 0v1296h113v-1296h-113zM221 1477l98 209h113l-156 -209h-55z" horiz-adv-x="557" unicode="Í"/><glyph d="M59 1499l146 209h76l143 -209h-88l-92 137l-99 -137h-86zM184 0v1296h113v-1296h-113z" horiz-adv-x="557" unicode="Î"/><glyph d="M23 1591q0 31 21.5 52.5t51.5 21.5q31 0 52.5 -21.5t21.5 -52.5t-21.5 -52t-52.5 -21t-52 21t-21 52zM184 0v1296h113v-1296h-113zM309 1591q0 31 21.5 52.5t52.5 21.5t52.5 -21.5t21.5 -52.5t-21.5 -52t-52.5 -21t-52.5 21t-21.5 52z" horiz-adv-x="557" unicode="Ï"/><glyph d="M84 627v90h160v583q190 20 297 21q330 0 503 -201q150 -172 150 -458q0 -346 -186 -527q-166 -160 -455 -160q-104 0 -309 21v631h-160zM358 96q109 -23 195 -22q260 0 393 164q123 147 123 415q0 291 -168 445q-139 125 -354 125q-86 0 -189 -23v-483h316v-90h-316v-531 z" horiz-adv-x="1341" unicode="Ð"/><glyph d="M184 0v1296h109q53 -88 319.5 -550.5t319.5 -559.5v1110h112v-1296h-110q-78 131 -430 735q-164 281 -207 355v-1090h-113zM352 1497q53 137 164 137q61 0 135 -49q66 -43 105 -43q57 0 102 90l43 -28q-55 -137 -153 -138q-37 0 -105 39q-2 0 -4 2q-4 2 -6 2q-4 2 -15 9 l-4 2q-66 39 -98 39q-35 0 -71.5 -27t-49.5 -62z" horiz-adv-x="1382" unicode="Ñ"/><glyph d="M102 649q0 297 156 490q149 182 391 182q274 0 428 -234q119 -182 119 -438q0 -299 -156 -489q-150 -184 -391 -185q-274 0 -428 234q-119 184 -119 440zM225 649q0 -270 121 -428q113 -145 303 -145q217 0 332 186q92 154 92 387q0 270 -121 426q-113 145 -303 146 q-217 0 -332 -187q-92 -152 -92 -385zM459 1683h112l99 -208h-56z" horiz-adv-x="1339" unicode="Ò"/><glyph d="M102 649q0 297 156 490q149 182 391 182q274 0 428 -234q119 -182 119 -438q0 -299 -156 -489q-150 -184 -391 -185q-274 0 -428 234q-119 184 -119 440zM225 649q0 -270 121 -428q113 -145 303 -145q217 0 332 186q92 154 92 387q0 270 -121 426q-113 145 -303 146 q-217 0 -332 -187q-92 -152 -92 -385zM606 1475l99 208h112l-155 -208h-56z" horiz-adv-x="1339" unicode="Ó"/><glyph d="M102 649q0 297 156 490q149 182 391 182q274 0 428 -234q119 -182 119 -438q0 -299 -156 -489q-150 -184 -391 -185q-274 0 -428 234q-119 184 -119 440zM225 649q0 -270 121 -428q113 -145 303 -145q217 0 332 186q92 154 92 387q0 270 -121 426q-113 145 -303 146 q-217 0 -332 -187q-92 -152 -92 -385zM463 1475l145 208h76l143 -208h-88l-92 137l-98 -137h-86z" horiz-adv-x="1339" unicode="Ô"/><glyph d="M102 649q0 297 156 490q149 182 391 182q274 0 428 -234q119 -182 119 -438q0 -299 -156 -489q-150 -184 -391 -185q-274 0 -428 234q-119 184 -119 440zM225 649q0 -270 121 -428q113 -145 303 -145q217 0 332 186q92 154 92 387q0 270 -121 426q-113 145 -303 146 q-217 0 -332 -187q-92 -152 -92 -385zM381 1516q53 137 164 137q61 0 135 -49q66 -43 104 -43q57 0 103 90l43 -29q-55 -137 -154 -137q-37 0 -104 39q-2 0 -4 2q-4 2 -6 2q-4 2 -15 8l-4 2q-66 39 -98 39q-35 0 -72 -26.5t-49 -61.5z" horiz-adv-x="1339" unicode="Õ"/><glyph d="M102 649q0 297 156 490q149 182 391 182q274 0 428 -234q119 -182 119 -438q0 -299 -156 -489q-150 -184 -391 -185q-274 0 -428 234q-119 184 -119 440zM225 649q0 -270 121 -428q113 -145 303 -145q217 0 332 186q92 154 92 387q0 270 -121 426q-113 145 -303 146 q-217 0 -332 -187q-92 -152 -92 -385zM442 1591q0 31 21.5 52.5t52.5 21.5t52.5 -21.5t21.5 -52.5t-21.5 -52t-52.5 -21t-52.5 21t-21.5 52zM729 1591q0 31 21.5 52.5t52.5 21.5t52.5 -21.5t21.5 -52.5t-21.5 -52t-52.5 -21t-52.5 21t-21.5 52z" horiz-adv-x="1339" unicode="Ö"/><glyph d="M86 90l379 385q-55 59 -186 201q-115 121 -166 176q10 10 24 22q25 23 37 39l344 -378q55 57 172 184q123 133 184 196l66 -63l-360 -379q59 -66 157 -174q135 -143 197 -217l-62 -62l-348 394l-368 -394q-20 18 -45 46l-2 2q-14 14 -23 22z" horiz-adv-x="1026" unicode="×"/><glyph d="M102 649q0 297 156 490q150 182 391 182q143 0 260 -72l35 72h100l-61 -125q213 -190 213 -547q0 -299 -156 -489q-150 -184 -391 -185q-129 0 -235 56l-45 -92h-103l70 143q-233 188 -234 567zM225 649q0 -317 158 -471l481 979q-92 63 -215 64q-217 0 -332 -187 q-92 -152 -92 -385zM459 123q82 -47 190 -47q217 0 332 186q92 154 92 387q0 289 -139 447z" horiz-adv-x="1298" unicode="Ø"/><glyph d="M184 539v757h113v-804q0 -416 338 -416q332 0 332 416v804h116v-757q0 -563 -448 -564q-451 0 -451 564zM471 1683h113l98 -208h-55z" horiz-adv-x="1318" unicode="Ù"/><glyph d="M184 539v757h113v-804q0 -416 338 -416q332 0 332 416v804h116v-757q0 -563 -448 -564q-451 0 -451 564zM569 1475l99 208h112l-155 -208h-56z" horiz-adv-x="1318" unicode="Ú"/><glyph d="M184 539v757h113v-804q0 -416 338 -416q332 0 332 416v804h116v-757q0 -563 -448 -564q-451 0 -451 564zM451 1475l145 208h76l143 -208h-88l-92 137l-98 -137h-86z" horiz-adv-x="1318" unicode="Û"/><glyph d="M184 539v757h113v-804q0 -416 338 -416q332 0 332 416v804h116v-757q0 -563 -448 -564q-451 0 -451 564zM422 1593q0 31 21.5 52.5t52.5 21.5t52 -21.5t21 -52.5t-21.5 -52t-51.5 -21q-31 0 -52.5 21t-21.5 52zM709 1593q0 31 21.5 52.5t51.5 21.5q31 0 52.5 -21.5 t21.5 -52.5t-21.5 -52t-52.5 -21t-52 21t-21 52z" horiz-adv-x="1318" unicode="Ü"/><glyph d="M31 1296h116l373 -680l373 680h119l-437 -790v-506h-110v506zM487 1466l99 209h112l-155 -209h-56z" horiz-adv-x="1042" unicode="Ý"/><glyph d="M184 0v1296h111v-241q70 29 188 28q252 0 365 -131q84 -96 84 -254q0 -209 -137 -317q-115 -90 -293 -90q-78 0 -205 22v-313h-113zM297 412q90 -20 205 -21q307 0 307 307q0 285 -324 285q-108 0 -188 -25v-546z" horiz-adv-x="1091" unicode="Þ"/><glyph d="M160 0v965q0 358 332 358q172 0 272 -109q84 -90 84 -219q0 -117 -64.5 -199t-173.5 -100q135 -25 213 -121t78 -239q0 -190 -129 -291q-92 -70 -201 -70q-104 0 -200 41l28 74q72 -27 150 -27q104 0 174 79t70 198q0 133 -82 218t-213 85h-33v82h27q102 0 174.5 79 t72.5 189q0 109 -69.5 177.5t-180.5 68.5q-106 0 -168.5 -65.5t-62.5 -180.5v-993h-98z" horiz-adv-x="1003" unicode="ß"/><glyph d="M98 258q0 319 451 320h174v16q0 272 -262 272q-133 0 -262 -92l-39 57q123 123 323 123q162 0 249 -99t87 -284v-571h-69l-19 104q-137 -129 -325 -129q-137 0 -222.5 78t-85.5 205zM207 272q0 -98 60.5 -153.5t166.5 -55.5q86 0 170 42t119 102v289h-158 q-193 0 -275.5 -51.5t-82.5 -172.5zM326 1331h112l99 -209h-56z" horiz-adv-x="1013" unicode="à"/><glyph d="M98 258q0 319 451 320h174v16q0 272 -262 272q-133 0 -262 -92l-39 57q123 123 323 123q162 0 249 -99t87 -284v-571h-69l-19 104q-137 -129 -325 -129q-137 0 -222.5 78t-85.5 205zM207 272q0 -98 60.5 -153.5t166.5 -55.5q86 0 170 42t119 102v289h-158 q-193 0 -275.5 -51.5t-82.5 -172.5zM432 1122l98 209h113l-156 -209h-55z" horiz-adv-x="1013" unicode="á"/><glyph d="M98 258q0 319 451 320h174v16q0 272 -262 272q-133 0 -262 -92l-39 57q123 123 323 123q162 0 249 -99t87 -284v-571h-69l-19 104q-137 -129 -325 -129q-137 0 -222.5 78t-85.5 205zM207 272q0 -98 60.5 -153.5t166.5 -55.5q86 0 170 42t119 102v289h-158 q-193 0 -275.5 -51.5t-82.5 -172.5zM297 1133l145 208h76l144 -208h-89l-92 137l-98 -137h-86z" horiz-adv-x="1013" unicode="â"/><glyph d="M98 258q0 319 451 320h174v16q0 272 -262 272q-133 0 -262 -92l-39 57q123 123 323 123q162 0 249 -99t87 -284v-571h-69l-19 104q-137 -129 -325 -129q-137 0 -222.5 78t-85.5 205zM207 272q0 -98 60.5 -153.5t166.5 -55.5q86 0 170 42t119 102v289h-158 q-193 0 -275.5 -51.5t-82.5 -172.5zM223 1176q53 137 164 137q61 0 135 -49q66 -43 105 -43q57 0 102 90l43 -29q-55 -137 -154 -137q-37 0 -104 39q-2 0 -4 2q-4 2 -6 2q-4 2 -15 8l-4 2q-66 39 -98 39q-35 0 -71.5 -26.5t-49.5 -61.5z" horiz-adv-x="1013" unicode="ã"/><glyph d="M98 258q0 319 451 320h174v16q0 272 -262 272q-133 0 -262 -92l-39 57q123 123 323 123q162 0 249 -99t87 -284v-571h-69l-19 104q-137 -129 -325 -129q-137 0 -222.5 78t-85.5 205zM207 272q0 -98 60.5 -153.5t166.5 -55.5q86 0 170 42t119 102v289h-158 q-193 0 -275.5 -51.5t-82.5 -172.5zM270 1247q0 31 21.5 52.5t52.5 21.5t52.5 -21.5t21.5 -52.5t-21.5 -52t-52.5 -21t-52.5 21t-21.5 52zM557 1247q0 31 21.5 52.5t52.5 21.5t52.5 -21.5t21.5 -52.5t-21.5 -52t-52.5 -21t-52.5 21t-21.5 52z" horiz-adv-x="1013" unicode="ä"/><glyph d="M98 258q0 319 451 320h174v16q0 272 -262 272q-133 0 -262 -92l-39 57q123 123 323 123q162 0 249 -99t87 -284v-571h-69l-19 104q-137 -129 -325 -129q-137 0 -222.5 78t-85.5 205zM207 272q0 -98 60.5 -153.5t166.5 -55.5q86 0 170 42t119 102v289h-158 q-193 0 -275.5 -51.5t-82.5 -172.5zM360 1217q0 53 38 91t91 38t91 -38t38 -91t-37.5 -91.5t-91.5 -38.5q-53 0 -91 38.5t-38 91.5zM414 1217q0 -31 21.5 -52.5t51.5 -21.5q31 0 53.5 21.5t22.5 52.5t-22.5 52t-53.5 21t-52 -21t-21 -52z" horiz-adv-x="1013" unicode="å"/><glyph d="M98 258q0 319 451 320h174v16q0 272 -262 272q-133 0 -262 -92l-39 57q123 123 323 123q240 0 312 -213q117 213 335 213q199 0 300 -174q76 -131 75 -321v-29h-671q4 -170 118 -274q106 -92 269 -93q137 0 239 74l39 -63q-123 -98 -311 -99q-258 0 -385 189 q-188 -188 -397 -189q-137 0 -222.5 78t-85.5 205zM207 272q0 -98 60.5 -153.5t166.5 -55.5q86 0 170 42t119 102v289h-158q-193 0 -275.5 -51.5t-82.5 -172.5zM836 512h567q-4 170 -76 263t-199 93q-119 0 -200.5 -99t-91.5 -257z" horiz-adv-x="1628" unicode="æ"/><glyph d="M98 461q0 225 146 368q127 125 305 125t289 -88l-39 -57q-102 57 -219 57q-184 0 -287 -131q-86 -109 -86 -280q0 -184 110 -291q102 -100 277 -101q119 0 227 66l37 -61q-115 -92 -297 -93h-24l-11 -41q20 4 43 5q135 0 136 -115q0 -66 -52.5 -109t-132.5 -43 q-66 0 -137 31l23 68q51 -29 106 -29q102 0 102 76q0 74 -102 73q-37 0 -74 -6l25 101q-178 33 -277 174q-88 125 -88 301z" horiz-adv-x="985" unicode="ç"/><glyph d="M98 461q0 217 125 362q115 131 281 131q199 0 299 -174q76 -131 76 -321v-29h-672q4 -170 119 -274q106 -92 268 -93q137 0 240 74l38 -63q-123 -98 -311 -99q-215 0 -346 148q-117 133 -117 338zM209 512h567q-4 170 -75.5 263t-198.5 93q-119 0 -201 -99t-92 -257z M319 1341h113l98 -208h-55z" horiz-adv-x="1048" unicode="è"/><glyph d="M98 461q0 217 125 362q115 131 281 131q199 0 299 -174q76 -131 76 -321v-29h-672q4 -170 119 -274q106 -92 268 -93q137 0 240 74l38 -63q-123 -98 -311 -99q-215 0 -346 148q-117 133 -117 338zM209 512h567q-4 170 -75.5 263t-198.5 93q-119 0 -201 -99t-92 -257z M483 1133l99 208h112l-155 -208h-56z" horiz-adv-x="1048" unicode="é"/><glyph d="M98 461q0 217 125 362q115 131 281 131q199 0 299 -174q76 -131 76 -321v-29h-672q4 -170 119 -274q106 -92 268 -93q137 0 240 74l38 -63q-123 -98 -311 -99q-215 0 -346 148q-117 133 -117 338zM209 512h567q-4 170 -75.5 263t-198.5 93q-119 0 -201 -99t-92 -257z M326 1133l145 208h76l143 -208h-88l-92 137l-98 -137h-86z" horiz-adv-x="1048" unicode="ê"/><glyph d="M98 461q0 217 125 362q115 131 281 131q199 0 299 -174q76 -131 76 -321v-29h-672q4 -170 119 -274q106 -92 268 -93q137 0 240 74l38 -63q-123 -98 -311 -99q-215 0 -346 148q-117 133 -117 338zM209 512h567q-4 170 -75.5 263t-198.5 93q-119 0 -201 -99t-92 -257z M293 1247q0 31 21.5 52.5t52.5 21.5t52 -21.5t21 -52.5t-21.5 -52t-51.5 -21q-31 0 -52.5 21t-21.5 52zM580 1247q0 31 21.5 52.5t51.5 21.5q31 0 52.5 -21.5t21.5 -52.5t-21.5 -52t-52.5 -21t-52 21t-21 52z" horiz-adv-x="1048" unicode="ë"/><glyph d="M86 1341h113l98 -208h-55zM217 0v930h96v-930h-96z" horiz-adv-x="575" unicode="ì"/><glyph d="M223 0v930h96v-930h-96zM242 1133l98 208h113l-156 -208h-55z" horiz-adv-x="559" unicode="í"/><glyph d="M106 1133l146 208h76l143 -208h-88l-92 137l-98 -137h-87zM242 0v930h96v-930h-96z" horiz-adv-x="575" unicode="î"/><glyph d="M47 1247q0 31 21.5 52.5t52.5 21.5t52.5 -21.5t21.5 -52.5t-21.5 -52t-52.5 -21t-52.5 21t-21.5 52zM213 0v930h96v-930h-96zM334 1247q0 31 21.5 52.5t52.5 21.5t52 -21.5t21 -52.5t-21.5 -52t-51.5 -21q-31 0 -52.5 21t-21.5 52z" horiz-adv-x="575" unicode="ï"/><glyph d="M98 383q0 258 148 375q104 82 258 82q176 0 282 -119q-33 227 -184 391l-252 -129l-47 49l252 127q-84 84 -229 125l55 37q135 -25 256 -127l217 117l49 -45l-215 -113q219 -219 219 -588q0 -256 -106 -418q-115 -172 -320 -172q-190 0 -301 160q-82 115 -82 248z M215 414q0 -162 69.5 -256.5t190.5 -94.5q150 0 234 124t84 345q-1 41 -5 84q-104 133 -274 134q-139 0 -219 -89.5t-80 -246.5z" horiz-adv-x="1030" unicode="ð"/><glyph d="M160 0v930h80l8 -105q141 129 319 129q168 0 260 -108q90 -102 91 -289v-557h-97v547q0 319 -278 319q-180 0 -287 -141v-725h-96zM295 1204q53 137 164 137q61 0 135 -49q66 -43 104 -43q57 0 103 90l43 -28q-55 -137 -154 -137q-37 0 -104 38q-2 0 -4 2q-4 2 -7 3 q-4 2 -14 8l-4 2q-66 39 -98 39q-35 0 -72 -27t-49 -61z" horiz-adv-x="1116" unicode="ñ"/><glyph d="M98 463q0 223 135 364q122 127 308 127q211 0 338 -161q104 -137 104 -330q0 -221 -135 -361q-121 -127 -307 -127q-213 0 -338 162q-104 135 -105 326zM207 463q0 -182 102 -297q92 -104 232 -105q160 0 254 134q80 111 79 268q0 186 -100 301q-92 104 -233 104 q-162 0 -256 -133q-78 -111 -78 -272zM365 1341h112l98 -208h-55z" horiz-adv-x="1101" unicode="ò"/><glyph d="M98 463q0 223 135 364q122 127 308 127q211 0 338 -161q104 -137 104 -330q0 -221 -135 -361q-121 -127 -307 -127q-213 0 -338 162q-104 135 -105 326zM207 463q0 -182 102 -297q92 -104 232 -105q160 0 254 134q80 111 79 268q0 186 -100 301q-92 104 -233 104 q-162 0 -256 -133q-78 -111 -78 -272zM498 1133l98 208h113l-156 -208h-55z" horiz-adv-x="1101" unicode="ó"/><glyph d="M98 463q0 223 135 364q122 127 308 127q211 0 338 -161q104 -137 104 -330q0 -221 -135 -361q-121 -127 -307 -127q-213 0 -338 162q-104 135 -105 326zM207 463q0 -182 102 -297q92 -104 232 -105q160 0 254 134q80 111 79 268q0 186 -100 301q-92 104 -233 104 q-162 0 -256 -133q-78 -111 -78 -272zM367 1133l145 208h76l143 -208h-88l-92 137l-98 -137h-86z" horiz-adv-x="1101" unicode="ô"/><glyph d="M98 463q0 223 135 364q122 127 308 127q211 0 338 -161q104 -137 104 -330q0 -221 -135 -361q-121 -127 -307 -127q-213 0 -338 162q-104 135 -105 326zM207 463q0 -182 102 -297q92 -104 232 -105q160 0 254 134q80 111 79 268q0 186 -100 301q-92 104 -233 104 q-162 0 -256 -133q-78 -111 -78 -272zM258 1204q53 137 164 137q61 0 135 -49q66 -43 105 -43q57 0 102 90l43 -28q-55 -137 -154 -137q-37 0 -104 38q-2 0 -4 2l-6 3q-4 2 -15 8l-4 2q-66 39 -98 39q-35 0 -72 -27t-49 -61z" horiz-adv-x="1101" unicode="õ"/><glyph d="M98 463q0 223 135 364q122 127 308 127q211 0 338 -161q104 -137 104 -330q0 -221 -135 -361q-121 -127 -307 -127q-213 0 -338 162q-104 135 -105 326zM207 463q0 -182 102 -297q92 -104 232 -105q160 0 254 134q80 111 79 268q0 186 -100 301q-92 104 -233 104 q-162 0 -256 -133q-78 -111 -78 -272zM336 1247q0 31 21.5 52.5t52.5 21.5t52 -21.5t21 -52.5t-21.5 -52t-51.5 -21q-31 0 -52.5 21t-21.5 52zM623 1247q0 31 21.5 52.5t51.5 21.5q31 0 52.5 -21.5t21.5 -52.5t-21.5 -52t-52.5 -21t-52 21t-21 52z" horiz-adv-x="1101" unicode="ö"/><glyph d="M96 408v90h604v-90h-604zM332 219q0 70 67 70q66 0 66 -70q0 -69 -66 -69q-68 0 -67 69zM332 666q0 68 67 67q66 0 66 -67q0 -70 -66 -70q-68 0 -67 70z" horiz-adv-x="796" unicode="÷"/><glyph d="M98 463q0 223 135 364q121 127 308 127q82 0 159 -30l37 80h88l-53 -115q211 -137 211 -426q0 -221 -135 -361q-121 -127 -307 -127q-86 0 -168 31l-31 -67h-86l47 104q-205 135 -205 420zM207 463q0 -217 135 -330l322 711q-55 25 -123 24q-162 0 -256 -133 q-78 -111 -78 -272zM410 90q61 -29 131 -29q160 0 254 134q80 111 79 268q0 225 -141 338z" horiz-adv-x="1081" unicode="ø"/><glyph d="M160 373v557h96v-547q0 -319 246 -320q178 0 286 146v721h97v-930h-80l-8 104q-141 -129 -320 -129q-145 0 -235 121q-82 109 -82 277zM336 1341h113l98 -208h-55z" horiz-adv-x="1093" unicode="ù"/><glyph d="M160 373v557h96v-547q0 -319 246 -320q178 0 286 146v721h97v-930h-80l-8 104q-141 -129 -320 -129q-145 0 -235 121q-82 109 -82 277zM465 1133l98 208h113l-156 -208h-55z" horiz-adv-x="1093" unicode="ú"/><glyph d="M160 373v557h96v-547q0 -319 246 -320q178 0 286 146v721h97v-930h-80l-8 104q-141 -129 -320 -129q-145 0 -235 121q-82 109 -82 277zM342 1133l145 208h76l144 -208h-89l-92 137l-98 -137h-86z" horiz-adv-x="1093" unicode="û"/><glyph d="M160 373v557h96v-547q0 -319 246 -320q178 0 286 146v721h97v-930h-80l-8 104q-141 -129 -320 -129q-145 0 -235 121q-82 109 -82 277zM309 1247q0 31 21.5 52.5t52.5 21.5t52.5 -21.5t21.5 -52.5t-21.5 -52t-52.5 -21t-52.5 21t-21.5 52zM596 1247q0 31 21.5 52.5 t52.5 21.5t52 -21.5t21 -52.5t-21.5 -52t-51.5 -21q-31 0 -52.5 21t-21.5 52z" horiz-adv-x="1093" unicode="ü"/><glyph d="M31 930h108l324 -840l303 840h108l-407 -1075q-92 -246 -250 -246q-98 0 -180 57l35 58q74 -31 127 -31q66 0 107.5 50t99.5 196l24 61h-33zM406 1122l98 209h112l-155 -209h-55z" horiz-adv-x="905" unicode="ý"/><glyph d="M160 -391v1657l100 51v-526q115 164 324 163q199 0 311 -151q94 -127 94 -320q0 -254 -139 -393q-113 -115 -277 -115q-182 0 -313 131v-497h-100zM260 250q25 -78 105.5 -132.5t171.5 -54.5q154 0 249 113q90 109 91 287q0 203 -103 311q-86 92 -223 92q-123 0 -217 -92 q-64 -63 -74 -112v-412z" horiz-adv-x="1091" unicode="þ"/><glyph d="M31 930h108l324 -840l303 840h108l-407 -1075q-92 -246 -250 -246q-98 0 -180 57l35 58q74 -31 127 -31q66 0 107.5 50t99.5 196l24 61h-33zM242 1247q0 31 21.5 52.5t51.5 21.5q31 0 52.5 -21.5t21.5 -52.5t-21.5 -52t-52.5 -21t-52 21t-21 52zM528 1247q0 31 21.5 52.5 t52.5 21.5t52.5 -21.5t21.5 -52.5t-21.5 -52t-52.5 -21t-52.5 21t-21.5 52z" horiz-adv-x="905" unicode="ÿ"/><glyph d="M102 641q0 303 154 496q147 184 389 184q104 0 201 -21q10 -4 14 -4h733v-104h-622v-465h524v-104h-524v-519h649v-104h-760q-8 -2 -26 -6h-5q-86 -18 -184 -19q-266 0 -420 228q-123 182 -123 438zM225 641q0 -270 125 -426q111 -139 295 -139q133 0 215 33v1083 q-104 29 -215 29q-219 0 -330 -189q-90 -154 -90 -391z" horiz-adv-x="1746" unicode="Œ"/><glyph d="M98 463q0 223 135 364q121 127 308 127q270 0 387 -245q117 246 354 245q199 0 299 -174q76 -131 76 -321v-29h-672q4 -170 119 -274q106 -92 268 -93q137 0 240 74l39 -63q-123 -98 -312 -99q-135 0 -243.5 64.5t-165.5 179.5q-121 -244 -389 -244q-213 0 -338 162 q-104 135 -105 326zM207 463q0 -182 102 -297q92 -104 232 -105q160 0 254 134q80 111 79 268q0 186 -100 301q-92 104 -233 104q-162 0 -256 -133q-78 -111 -78 -272zM987 512h567q-4 170 -75.5 263t-198.5 93q-119 0 -201 -99t-92 -257z" horiz-adv-x="1767" unicode="œ"/><glyph d="M31 1296h116l373 -680l373 680h119l-437 -790v-506h-110v506zM305 1591q0 31 21.5 52.5t52.5 21.5t52.5 -21.5t21.5 -52.5t-21.5 -52t-52.5 -21t-52.5 21t-21.5 52zM592 1591q0 31 21.5 52.5t52.5 21.5t52 -21.5t21 -52.5t-21.5 -52t-51.5 -21q-31 0 -52.5 21t-21.5 52z" horiz-adv-x="1042" unicode="Ÿ"/><glyph d="M8 1133l146 208h75l144 -208h-88l-92 137l-99 -137h-86z" horiz-adv-x="380" unicode="ˆ"/><glyph d="M23 1204q53 137 163 137q61 0 136 -49q66 -43 104 -43q57 0 102 90l43 -28q-55 -137 -153 -137q-37 0 -105 38q-2 0 -4 2l-6 3q-4 2 -14 8l-4 2q-66 39 -99 39q-35 0 -71.5 -27t-48.5 -61z" horiz-adv-x="593" unicode="˜"/><glyph horiz-adv-x="854"/><glyph horiz-adv-x="1708"/><glyph horiz-adv-x="854"/><glyph horiz-adv-x="1708"/><glyph horiz-adv-x="569"/><glyph horiz-adv-x="427"/><glyph horiz-adv-x="284"/><glyph horiz-adv-x="284"/><glyph horiz-adv-x="213"/><glyph horiz-adv-x="341"/><glyph horiz-adv-x="94"/><glyph d="M51 451v81h432v-81h-432z" horiz-adv-x="534" unicode="‐"/><glyph d="M51 451v81h432v-81h-432z" horiz-adv-x="534" unicode="‑"/><glyph d="M51 451v81h432v-81h-432z" horiz-adv-x="534" unicode="‒"/><glyph d="M150 408v90h514v-90h-514z" horiz-adv-x="813" unicode="–"/><glyph d="M150 408v90h1028v-90h-1028z" horiz-adv-x="1327" unicode="—"/><glyph d="M152 1141v184l59 21v-166h16q72 0 72 -68q0 -76 -72 -76q-76 0 -75 105z" horiz-adv-x="430" unicode="‘"/><glyph d="M131 1284q0 76 72 76q76 0 76 -105v-186l-60 -18v166h-16q-72 0 -72 67z" horiz-adv-x="430" unicode="’"/><glyph d="M131 66q0 76 72 75q76 0 76 -104v-187l-60 -18v166h-16q-72 0 -72 68z" horiz-adv-x="430" unicode="‚"/><glyph d="M152 1141v184l59 21v-166h16q72 0 72 -68q0 -76 -72 -76q-76 0 -75 105zM373 1141v184l59 21v-166h17q72 0 71 -68q0 -76 -71 -76q-76 0 -76 105z" horiz-adv-x="651" unicode="“"/><glyph d="M129 1280q0 76 72 76q76 0 75 -105v-184l-59 -18v163h-16q-72 0 -72 68zM350 1280q0 76 72 76q76 0 76 -105v-184l-60 -18v163h-16q-72 0 -72 68z" horiz-adv-x="651" unicode="”"/><glyph d="M131 63q0 76 72 76q76 0 76 -104v-185l-60 -20v166h-16q-72 0 -72 67zM352 63q0 76 72 76q76 0 76 -104v-185l-60 -20v166h-16q-72 0 -72 67z" horiz-adv-x="651" unicode="„"/><glyph d="M152 672q0 53 37.5 91t91.5 38q53 0 91 -38t38 -91t-38 -91t-91 -38t-91 38t-38 91z" horiz-adv-x="561" unicode="•"/><glyph d="M86 61q0 35 25.5 60.5t60.5 25.5t60.5 -25.5t25.5 -60.5t-25.5 -60.5t-60.5 -25.5t-60.5 25.5t-25.5 60.5zM440 61q0 35 26 60.5t60 25.5q35 0 60.5 -25.5t25.5 -60.5t-25.5 -60.5t-60.5 -25.5t-60.5 25.5t-25.5 60.5zM795 61q0 35 25.5 60.5t60.5 25.5t60.5 -25.5 t25.5 -60.5t-26 -60.5t-60 -25.5q-35 0 -60.5 25.5t-25.5 60.5z" horiz-adv-x="1112" unicode="…"/><glyph horiz-adv-x="341"/><glyph d="M106 485q72 162 182.5 281t223.5 158v-93q-197 -102 -305 -346q109 -242 305 -344v-92q-113 39 -223.5 158t-182.5 278z" horiz-adv-x="598" unicode="‹"/><glyph d="M86 49v92q197 102 305 344q-109 244 -305 346v93q113 -39 222.5 -158t183.5 -281q-74 -160 -183.5 -278.5t-222.5 -157.5z" horiz-adv-x="598" unicode="›"/><glyph horiz-adv-x="427"/><glyph d="M86 487v82h137q-2 20 -2 66q0 61 6 119h-141v82h156q51 229 196 360q137 125 324 125q207 0 352 -117l-49 -63q-133 80 -285 80q-158 0 -267.5 -101.5t-147.5 -283.5h571v-82h-586q-6 -57 -6 -119q0 -45 2 -66h590v-82h-580q35 -211 172 -321q113 -90 269 -90 q166 0 286 96l47 -68q-145 -129 -350 -129q-229 0 -381 158q-133 135 -168 354h-145z" horiz-adv-x="1216" unicode="€"/><glyph d="M51 1243v53h324v-53h-135v-432h-62v432h-127zM477 809v487h92l146 -411l143 411h92v-487h-63v410l-139 -410h-68l-139 410v-410h-64z" horiz-adv-x="1110" unicode="™"/><glyph d="M0 0v932h932v-932h-932z" horiz-adv-x="931" unicode="◼"/></font>
</defs>
</svg>
