<?xml version="1.0" standalone="no"?>
<!DOCTYPE svg PUBLIC "-//W3C//DTD SVG 1.1//EN" "http://www.w3.org/Graphics/SVG/1.1/DTD/svg11.dtd" >
<svg xmlns="http://www.w3.org/2000/svg" xmlns:xlink="http://www.w3.org/1999/xlink" version="1.1">
<metadata></metadata>
<defs>
<font id="tajawalmedium" horiz-adv-x="0" >
<font-face units-per-em="1000" ascent="643" descent="-357" />
<missing-glyph horiz-adv-x="233" />
<glyph unicode="ff" horiz-adv-x="718" d="M468 384h-273v-384h-86v384h-67v70h67v64q0 127 116 127q64 0 119 -41l-30 -46q-34 20 -69 20q-50 0 -50 -66v-58h273v64q0 127 116 127q64 0 119 -41l-30 -46q-34 20 -69 20q-50 0 -50 -66v-58h121v-70h-121v-384h-86v384z" />
<glyph unicode="fi" horiz-adv-x="605" d="M439 384h-244v-384h-86v384h-67v70h67v64q0 127 116 127q64 0 119 -41l-30 -46q-34 20 -69 20q-50 0 -50 -66v-58h330v-454h-86v384zM432 594q0 21 15 36t36 15t36.5 -15t15.5 -36q0 -22 -15 -37t-37 -15t-36.5 15t-14.5 37z" />
<glyph unicode="fl" horiz-adv-x="601" d="M42 384v70h67v64q0 127 116 127q64 0 119 -41l-30 -46q-34 20 -69 20q-50 0 -50 -66v-58h121v-70h-121v-384h-86v384h-67zM523 645v-645h-86v599z" />
<glyph unicode="ffi" horiz-adv-x="964" d="M468 384h-273v-384h-86v384h-67v70h67v64q0 127 116 127q64 0 119 -41l-30 -46q-34 20 -69 20q-50 0 -50 -66v-58h273v64q0 127 116 127q64 0 119 -41l-30 -46q-34 20 -69 20q-50 0 -50 -66v-58h330v-454h-86v384h-244v-384h-86v384zM791 594q0 21 15 36t36 15t36.5 -15 t15.5 -36q0 -22 -15 -37t-37 -15t-36.5 15t-14.5 37z" />
<glyph unicode="&#x627;&#xfedf;&#xfee0;&#xfeea;" horiz-adv-x="1371" arabic-form="isolated" d="M717 1016v-141l-49 -26v141zM693 681q-19 -14 -45 -14q-30 0 -49.5 18t-19.5 46v31l49 27v-55q0 -20 20 -20t20 17v44l49 27v-71q0 -17 21 -17q20 0 20 20v51l48 27v-81q0 -28 -19 -46t-49 -18q-26 0 -45 14zM1195 599l86 46v-645h-86v599zM988 190v343l86 46v-390 q0 -90 -53 -141q-49 -48 -131 -48h-69q-85 0 -134 55q-49 -55 -137 -55h-70q-100 0 -145 71q-50 -48 -122 -48q-88 0 -140 66q-43 56 -43 137q0 97 59 157q50 51 122 51q55 0 95 -29v43l87 46v-313q0 -100 97 -100h53q104 0 104 109v343l86 46v-398q0 -100 98 -100h52 q105 0 105 109zM306 313q-38 41 -91 41q-44 0 -72 -36t-28 -93q0 -58 28 -93t73 -35q56 0 92 47q-2 22 -2 34v135z" />
<glyph unicode="&#xfedf;&#xfe82;" horiz-adv-x="638" arabic-form="isolated" d="M363 619q-35 -52 -74 -52q-23 0 -57 21q-25 16 -37 16q-17 0 -42 -32l-33 25q36 51 75 51q20 0 52 -20q26 -16 41 -16q16 0 44 32zM461 599l87 46v-456q0 -89 -53 -141q-50 -48 -131 -48h-344l42 81h146v388l86 46v-434h63q104 0 104 109v409z" />
<glyph unicode="&#xfee0;&#xfe82;" horiz-adv-x="681" arabic-form="final" d="M363 619q-35 -52 -74 -52q-23 0 -57 21q-25 16 -37 16q-17 0 -42 -32l-33 25q36 51 75 51q20 0 52 -20q26 -16 41 -16q16 0 44 32zM645 81h66v-81h-76q-86 0 -133 55q-50 -55 -138 -55h-344l42 81h146v388l86 46v-434h63q104 0 104 109v409l87 46v-456q0 -58 22.5 -83 t74.5 -25z" />
<glyph unicode="&#xfedf;&#xfe84;" horiz-adv-x="638" arabic-form="isolated" d="M337 634l-23 -43h-165l23 43h27q-10 18 -10 38q0 29 22 50.5t52 21.5q25 0 48 -16v-44q-22 17 -42 17q-37 0 -37 -33q0 -17 14 -34h91zM461 599l87 46v-456q0 -89 -53 -141q-50 -48 -131 -48h-344l42 81h146v388l86 46v-434h63q104 0 104 109v409z" />
<glyph unicode="&#xfee0;&#xfe84;" horiz-adv-x="681" arabic-form="final" d="M337 634l-23 -43h-165l23 43h27q-10 18 -10 38q0 29 22 50.5t52 21.5q25 0 48 -16v-44q-22 17 -42 17q-37 0 -37 -33q0 -17 14 -34h91zM645 81h66v-81h-76q-86 0 -133 55q-50 -55 -138 -55h-344l42 81h146v388l86 46v-434h63q104 0 104 109v409l87 46v-456 q0 -58 22.5 -83t74.5 -25z" />
<glyph unicode="&#xfedf;&#xfe88;" horiz-adv-x="638" arabic-form="isolated" d="M461 599l87 46v-456q0 -89 -53 -141q-50 -48 -131 -48h-344l42 81h146v388l86 46v-434h63q104 0 104 109v409zM309 -135q-22 17 -42 17q-37 0 -37 -33q0 -17 14 -34h91l-23 -43h-165l23 43h27q-10 18 -10 38q0 29 22 50.5t52 21.5q25 0 48 -16v-44z" />
<glyph unicode="&#xfee0;&#xfe88;" horiz-adv-x="681" arabic-form="final" d="M645 81h66v-81h-76q-86 0 -133 55q-50 -55 -138 -55h-344l42 81h146v388l86 46v-434h63q104 0 104 109v409l87 46v-456q0 -58 22.5 -83t74.5 -25zM309 -135q-22 17 -42 17q-37 0 -37 -33q0 -17 14 -34h91l-23 -43h-165l23 43h27q-10 18 -10 38q0 29 22 50.5t52 21.5 q25 0 48 -16v-44z" />
<glyph unicode="&#xfedf;&#xfe8e;" horiz-adv-x="638" arabic-form="isolated" d="M461 599l87 46v-456q0 -89 -53 -141q-50 -48 -131 -48h-344l42 81h146v388l86 46v-434h63q104 0 104 109v409z" />
<glyph unicode="&#xfee0;&#xfe8e;" horiz-adv-x="681" arabic-form="final" d="M645 81h66v-81h-76q-86 0 -133 55q-50 -55 -138 -55h-344l42 81h146v388l86 46v-434h63q104 0 104 109v409l87 46v-456q0 -58 22.5 -83t74.5 -25z" />
<glyph unicode="&#x67e;" horiz-adv-x="922" arabic-form="final" d="M886 81h46v-81h-56q-84 0 -131 52q-47 -52 -131 -52h-357q-81 0 -127 54q-40 47 -40 123v121l86 46v-159q0 -104 97 -104h332q97 0 97 104v203l86 46v-253q0 -100 98 -100zM425 -150q0 -48 -48 -48q-49 0 -49 48q0 50 49 50q48 0 48 -50zM504 -100q48 0 48 -50 q0 -48 -48 -48q-49 0 -49 48q0 50 49 50zM440 -218q44 0 44 -46q0 -44 -44 -44t-44 44q0 46 44 46z" />
<glyph unicode="&#x67e;" horiz-adv-x="310" arabic-form="initial" d="M-10 0v81h46q98 0 98 100v207l86 46v-256q0 -85 -51 -134q-47 -44 -123 -44h-56zM25 -198q-49 0 -49 48q0 50 49 50q48 0 48 -50q0 -48 -48 -48zM153 -198q-49 0 -49 48q0 50 49 50q48 0 48 -50q0 -48 -48 -48zM88 -308q-44 0 -44 44q0 46 44 46t44 -46q0 -44 -44 -44z " />
<glyph unicode="&#x67e;" horiz-adv-x="354" arabic-form="medial" d="M318 81h46v-81h-56q-83 0 -131 53q-48 -53 -131 -53h-56v81h46q98 0 98 100v207l86 46v-253q0 -100 98 -100zM100 -150q0 -48 -48 -48q-49 0 -49 48q0 50 49 50q48 0 48 -50zM179 -100q48 0 48 -50q0 -48 -48 -48q-49 0 -49 48q0 50 49 50zM115 -218q44 0 44 -46 q0 -44 -44 -44t-44 44q0 46 44 46z" />
<glyph unicode="&#x6a4;" horiz-adv-x="969" arabic-form="final" d="M697 669q-44 0 -44 45q0 44 44 44t44 -44q0 -45 -44 -45zM634 550q-49 0 -49 50q0 49 49 49q48 0 48 -49q0 -50 -48 -50zM712 600q0 49 49 49q48 0 48 -49q0 -50 -48 -50q-49 0 -49 50zM820 81h159v-81h-216q-40 0 -68 7q-29 -7 -68 -7h-370q-81 0 -127 54 q-40 47 -40 123v121l86 46v-159q0 -104 97 -104h296q-62 71 -62 157q0 98 56 156q50 53 132 53q93 0 145 -68q42 -56 42 -141q0 -86 -62 -157zM695 90q46 16 75.5 59t29.5 93q0 57 -28.5 91t-76.5 34t-76.5 -33.5t-28.5 -91.5q0 -50 29.5 -93t75.5 -59z" />
<glyph unicode="&#x6a4;" horiz-adv-x="546" arabic-form="initial" d="M285 669q-44 0 -44 45q0 44 44 44t44 -44q0 -45 -44 -45zM222 550q-49 0 -49 50q0 49 49 49q48 0 48 -49q0 -50 -48 -50zM349 550q-49 0 -49 50q0 49 49 49q48 0 48 -49q0 -50 -48 -50zM-10 0v81h160q-46 51 -46 142q0 109 57 170q50 54 133 54q85 0 132 -53 q40 -47 40 -123v-95q-1 -83 -49 -131q-47 -45 -125 -45h-302zM380 267q0 100 -86 100q-49 0 -77 -37.5t-28 -104.5q0 -66 27 -105t72 -39q92 0 92 96v90z" />
<glyph unicode="&#x6a4;" horiz-adv-x="563" arabic-form="medial" d="M285 669q-44 0 -44 45q0 44 44 44t44 -44q0 -45 -44 -45zM222 550q-49 0 -49 50q0 49 49 49q48 0 48 -49q0 -50 -48 -50zM300 600q0 49 49 49q48 0 48 -49q0 -50 -48 -50q-49 0 -49 50zM407 81h166v-81h-224q-39 0 -68 7q-28 -7 -68 -7h-223v81h166q-62 71 -62 157 q0 98 55 156q50 53 132 53q94 0 145 -68q43 -56 43 -141q0 -86 -62 -157zM282 90q46 16 75 58.5t29 93.5q0 58 -28.5 91.5t-76.5 33.5t-76.5 -34t-28.5 -91q0 -50 30 -93t76 -59z" />
<glyph unicode="&#x649;" horiz-adv-x="310" arabic-form="initial" d="M-30 0v81h66q98 0 98 100v207l86 46v-256q0 -85 -51 -134q-47 -44 -123 -44h-76z" />
<glyph unicode="&#x649;" horiz-adv-x="354" arabic-form="medial" d="M318 81h66v-81h-76q-83 0 -131 53q-48 -53 -131 -53h-76v81h66q98 0 98 100v207l86 46v-253q0 -100 98 -100z" />
<glyph unicode="&#xfc59;" horiz-adv-x="1042" arabic-form="isolated" d="M670 0v0h-3q-10 -88 -96 -141q-80 -49 -204 -49q-158 0 -238 92q-59 68 -59 168q0 84 42 144l83 18q-45 -71 -45 -153q0 -89 58 -140q57 -51 159 -51q86 0 142 30t68 82h-100l42 81h249q98 0 98 100v207l86 46v-256q0 -85 -51 -134q-47 -44 -123 -44h-108zM755 -199 q-49 0 -49 50q0 49 49 49q48 0 48 -49q0 -50 -48 -50zM882 -199q-49 0 -49 50q0 49 49 49q48 0 48 -49q0 -50 -48 -50z" />
<glyph unicode="&#xfc5a;" horiz-adv-x="1042" arabic-form="isolated" d="M300 -367q-49 0 -49 50q0 49 49 49q48 0 48 -49q0 -50 -48 -50zM427 -367q-49 0 -49 50q0 49 49 49q48 0 48 -49q0 -50 -48 -50zM755 -199q-49 0 -49 50q0 49 49 49q48 0 48 -49q0 -50 -48 -50zM882 -199q-49 0 -49 50q0 49 49 49q48 0 48 -49q0 -50 -48 -50zM670 0v0h-3 q-10 -88 -96 -141q-80 -49 -204 -49q-158 0 -238 92q-59 68 -59 168q0 84 42 144l83 18q-45 -71 -45 -153q0 -89 58 -140q57 -51 159 -51q86 0 142 30t68 82h-100l42 81h249q98 0 98 100v207l86 46v-256q0 -85 -51 -134q-47 -44 -123 -44h-108z" />
<glyph unicode="&#xfc5e;" arabic-form="isolated" d="M165 809q-25 19 -25 55q0 34 20.5 56.5t50.5 22.5q31 0 51.5 -22.5t20.5 -57.5q0 -48 -31.5 -79t-81.5 -31q-54 0 -90 39l-22 -35l-50 32l46 72h23q32 -53 78 -53q5 0 10 1zM215 829q19 15 19 37q0 30 -23 30q-22 0 -22 -30q0 -25 26 -37zM201 632v51l48 27v-81 q0 -28 -19 -46t-49 -18q-26 0 -45 14q-19 -14 -45 -14q-30 0 -49.5 18t-19.5 46v31l49 27v-55q0 -20 20 -20t20 17v44l49 27v-71q0 -17 21 -17q20 0 20 20z" />
<glyph unicode="&#xfc5f;" arabic-form="isolated" d="M133 818q-19 -14 -45 -14q-30 0 -49.5 18t-19.5 46v31l49 27v-55q0 -20 20 -20t20 17v44l49 27v-71q0 -17 21 -17q20 0 20 20v51l48 27v-81q0 -28 -19 -46t-49 -18q-26 0 -45 14zM260 768l-30 -64l-213 -39l30 65zM0 564l30 64l214 39l-30 -64z" />
<glyph unicode="&#xfc60;" arabic-form="isolated" d="M247 854l-30 -64l-214 -39l30 64zM182 632v51l48 27v-81q0 -28 -19 -46t-49 -18q-26 0 -45 14q-19 -14 -45 -14q-30 0 -49.5 18t-19.5 46v31l49 27v-55q0 -20 20 -20t20 17v44l49 27v-71q0 -17 21 -17q20 0 20 20z" />
<glyph unicode="&#xfc61;" arabic-form="isolated" d="M129 820q-17 22 -17 52q0 33 20.5 55.5t50.5 22.5q31 0 51.5 -22t20.5 -56q0 -37 -21 -64t-54 -32l-177 -32l27 58zM185 837q21 14 21 37q0 29 -23 29q-22 0 -22 -29q0 -26 24 -37zM182 632v51l48 27v-81q0 -28 -19 -46t-49 -18q-26 0 -45 14q-19 -14 -45 -14 q-30 0 -49.5 18t-19.5 46v31l49 27v-55q0 -20 20 -20t20 17v44l49 27v-71q0 -17 21 -17q20 0 20 20z" />
<glyph unicode="&#xfc62;" arabic-form="isolated" d="M124 730q-19 -14 -45 -14q-30 0 -49.5 18t-19.5 46v31l49 27v-55q0 -20 20 -20t20 17v44l49 27v-71q0 -17 21 -17q20 0 20 20v51l48 27v-81q0 -28 -19 -46t-49 -18q-26 0 -45 14zM30 629l214 39l-30 -64l-214 -39z" />
<glyph unicode="&#xfc63;" arabic-form="isolated" d="M179 945v-141l-49 -26v141zM155 610q-19 -14 -45 -14q-30 0 -49.5 18t-19.5 46v31l49 27v-55q0 -20 20 -20t20 17v44l49 27v-71q0 -17 21 -17q20 0 20 20v51l48 27v-81q0 -28 -19 -46t-49 -18q-26 0 -45 14z" />
<glyph unicode="&#xfc95;" horiz-adv-x="1060" arabic-form="final" d="M667 0q-10 -88 -96 -141q-80 -49 -204 -49q-158 0 -238 92q-59 68 -59 168q0 84 42 144l83 18q-45 -71 -45 -153q0 -89 58 -140q57 -51 159 -51q86 0 142 30t68 82h-100l42 81h223q98 0 98 100v207l86 46v-253q0 -100 98 -100h66v-81h-76q-83 0 -131 53q-49 -53 -131 -53 h-85zM785 -100q48 0 48 -50q0 -49 -48 -49q-49 0 -49 49q0 50 49 50zM912 -100q48 0 48 -50q0 -49 -48 -49q-49 0 -49 49q0 50 49 50z" />
<glyph unicode="&#xfc96;" horiz-adv-x="1060" arabic-form="final" d="M667 0q-10 -88 -96 -141q-80 -49 -204 -49q-158 0 -238 92q-59 68 -59 168q0 84 42 144l83 18q-45 -71 -45 -153q0 -89 58 -140q57 -51 159 -51q86 0 142 30t68 82h-100l42 81h223q98 0 98 100v207l86 46v-253q0 -100 98 -100h66v-81h-76q-83 0 -131 53q-49 -53 -131 -53 h-85zM300 -367q-49 0 -49 50q0 49 49 49q48 0 48 -49q0 -50 -48 -50zM427 -367q-49 0 -49 50q0 49 49 49q48 0 48 -49q0 -50 -48 -50zM785 -100q48 0 48 -50q0 -49 -48 -49q-49 0 -49 49q0 50 49 50zM912 -100q48 0 48 -50q0 -49 -48 -49q-49 0 -49 49q0 50 49 50z" />
<glyph unicode="&#x622;" horiz-adv-x="310" arabic-form="final" d="M258 752q-35 -52 -74 -52q-23 0 -57 21q-25 16 -37 16q-17 0 -42 -32l-33 25q36 51 75 51q20 0 52 -20q26 -16 41 -16q16 0 44 32zM264 0q-87 0 -134 56q-40 48 -40 122v421l86 46v-464q0 -100 98 -100h66v-81h-76z" />
<glyph unicode="&#x623;" horiz-adv-x="310" arabic-form="final" d="M37 659l23 43h27q-10 18 -10 38q0 29 22 50.5t51 21.5q25 0 48 -16v-44q-21 17 -42 17q-37 0 -37 -34q0 -16 15 -33h91l-23 -43h-165zM264 0q-87 0 -134 56q-40 48 -40 122v381l86 46v-424q0 -100 98 -100h66v-81h-76z" />
<glyph unicode="&#x624;" horiz-adv-x="527" arabic-form="final" d="M323 605l-23 -43h-165l23 43h27q-10 18 -10 38q0 29 22 50.5t52 21.5q25 0 48 -16v-44q-21 17 -42 17q-37 0 -37 -33q0 -17 14 -34h91zM557 81v-81h-124q-4 -86 -74 -142q-59 -46 -134 -46q-62 0 -117 29v76q53 -28 105 -28q53 0 92.5 33t40.5 79q-52 2 -77 4 q-108 6 -163 73q-46 56 -46 145q0 109 58 170q52 54 137 54q89 0 137 -53q41 -47 41 -123v-190h124zM346 265q0 102 -91 102q-52 0 -81 -37.5t-29 -104.5q0 -131 128 -139q24 -3 73 -5v184z" />
<glyph unicode="&#x625;" horiz-adv-x="310" arabic-form="final" d="M264 0q-87 0 -134 56q-40 48 -40 122v421l86 46v-464q0 -100 98 -100h66v-81h-76zM76 -249l23 43h27q-10 18 -10 38q0 29 22 50.5t52 21.5q25 0 48 -16v-44q-22 17 -42 17q-37 0 -37 -33q0 -17 14 -34h91l-23 -43h-165z" />
<glyph unicode="&#x626;" horiz-adv-x="647" arabic-form="final" d="M120 339l23 43h27q-10 18 -10 37q0 30 21.5 51.5t52.5 21.5q25 0 47 -16v-45q-22 17 -43 17q-36 0 -36 -33q0 -17 15 -33h91l-23 -43h-165zM667 0q-10 -88 -96 -141q-80 -49 -204 -49q-158 0 -238 92q-59 68 -59 168q0 84 42 144l83 18q-45 -71 -45 -153q0 -89 58 -140 q57 -51 159 -51q86 0 142 30t68 82h-100l42 81h151v-81h-3z" />
<glyph unicode="&#x626;" horiz-adv-x="297" arabic-form="initial" d="M54 562l23 43h27q-10 18 -10 38q0 29 22 50.5t52 21.5q25 0 48 -16v-44q-22 17 -42 17q-37 0 -37 -33q0 -17 14 -34h91l-23 -43h-165zM-30 0v81h66q98 0 98 100v207l86 46v-256q0 -85 -51 -134q-47 -44 -123 -44h-76z" />
<glyph unicode="&#x626;" horiz-adv-x="354" arabic-form="medial" d="M241 605l-23 -43h-165l23 43h27q-10 18 -10 38q0 29 22 50.5t52 21.5q25 0 48 -16v-44q-22 17 -42 17q-37 0 -37 -33q0 -17 14 -34h91zM318 81h66v-81h-76q-83 0 -131 53q-48 -53 -131 -53h-76v81h66q98 0 98 100v207l86 46v-253q0 -100 98 -100z" />
<glyph unicode="&#x627;" horiz-adv-x="310" arabic-form="final" d="M264 0q-87 0 -134 56q-40 48 -40 122v421l86 46v-464q0 -100 98 -100h66v-81h-76z" />
<glyph unicode="&#x628;" horiz-adv-x="902" arabic-form="final" d="M886 81h46v-81h-56q-84 0 -131 52q-47 -52 -131 -52h-357q-81 0 -127 54q-40 47 -40 123v121l86 46v-159q0 -104 97 -104h332q97 0 97 104v203l86 46v-253q0 -100 98 -100zM403 -100q48 0 48 -49q0 -50 -48 -50q-49 0 -49 50q0 49 49 49z" />
<glyph unicode="&#x628;" horiz-adv-x="310" arabic-form="initial" d="M-30 0v81h66q98 0 98 100v207l86 46v-256q0 -85 -51 -134q-47 -44 -123 -44h-76zM131 -199q-49 0 -49 50q0 49 49 49q48 0 48 -49q0 -50 -48 -50z" />
<glyph unicode="&#x628;" horiz-adv-x="354" arabic-form="medial" d="M318 81h66v-81h-76q-83 0 -131 53q-48 -53 -131 -53h-76v81h66q98 0 98 100v207l86 46v-253q0 -100 98 -100zM171 -100q48 0 48 -49q0 -50 -48 -50q-49 0 -49 50q0 49 49 49z" />
<glyph unicode="&#x629;" horiz-adv-x="526" arabic-form="final" d="M177 565q-49 0 -49 50q0 49 49 49q48 0 48 -49q0 -50 -48 -50zM304 565q-49 0 -49 50q0 49 49 49q48 0 48 -49q0 -50 -48 -50zM490 81h66v-81h-76q-103 0 -148 76q-48 -46 -119 -46q-88 0 -140 66q-43 56 -43 137q0 97 59 156q50 51 122 51q55 0 95 -28v43l87 46v-320 q0 -100 97 -100zM306 319q-37 41 -91 41q-44 0 -72 -35.5t-28 -92.5q0 -58 28 -93t73 -35q56 0 92 46q-2 18 -2 28v141z" />
<glyph unicode="&#x62a;" horiz-adv-x="902" arabic-form="final" d="M358 465q-49 0 -49 50q0 49 49 49q48 0 48 -49q0 -50 -48 -50zM485 465q-49 0 -49 50q0 49 49 49q48 0 48 -49q0 -50 -48 -50zM886 81h46v-81h-56q-84 0 -131 52q-47 -52 -131 -52h-357q-81 0 -127 54q-40 47 -40 123v121l86 46v-159q0 -104 97 -104h332q97 0 97 104v203 l86 46v-253q0 -100 98 -100z" />
<glyph unicode="&#x62a;" horiz-adv-x="310" arabic-form="initial" d="M47 555q-49 0 -49 50q0 49 49 49q48 0 48 -49q0 -50 -48 -50zM174 555q-49 0 -49 50q0 49 49 49q48 0 48 -49q0 -50 -48 -50zM-30 0v81h66q98 0 98 100v207l86 46v-256q0 -85 -51 -134q-47 -44 -123 -44h-76z" />
<glyph unicode="&#x62a;" horiz-adv-x="354" arabic-form="medial" d="M82 548q-49 0 -49 50q0 49 49 49q48 0 48 -49q0 -50 -48 -50zM210 548q-49 0 -49 50q0 49 49 49q48 0 48 -49q0 -50 -48 -50zM318 81h66v-81h-76q-83 0 -131 53q-48 -53 -131 -53h-76v81h66q98 0 98 100v207l86 46v-253q0 -100 98 -100z" />
<glyph unicode="&#x62b;" horiz-adv-x="902" arabic-form="final" d="M431 584q-47 0 -47 47q0 46 47 46q45 0 45 -46q0 -47 -45 -47zM368 465q-49 0 -49 50q0 49 49 49q48 0 48 -49q0 -50 -48 -50zM446 515q0 49 49 49q48 0 48 -49q0 -50 -48 -50q-49 0 -49 50zM886 81h46v-81h-56q-84 0 -131 52q-47 -52 -131 -52h-357q-81 0 -127 54 q-40 47 -40 123v121l86 46v-159q0 -104 97 -104h332q97 0 97 104v203l86 46v-253q0 -100 98 -100z" />
<glyph unicode="&#x62b;" horiz-adv-x="310" arabic-form="initial" d="M110 674q-44 0 -44 45q0 44 44 44t44 -44q0 -45 -44 -45zM47 555q-49 0 -49 50q0 49 49 49q48 0 48 -49q0 -50 -48 -50zM174 555q-49 0 -49 50q0 49 49 49q48 0 48 -49q0 -50 -48 -50zM-30 0v81h66q98 0 98 100v207l86 46v-256q0 -85 -51 -134q-47 -44 -123 -44h-76z" />
<glyph unicode="&#x62b;" horiz-adv-x="354" arabic-form="medial" d="M148 667q-46 0 -46 47q0 46 46 46t46 -46q0 -47 -46 -47zM85 548q-49 0 -49 50q0 49 49 49q48 0 48 -49q0 -50 -48 -50zM163 598q0 49 49 49q48 0 48 -49q0 -50 -48 -50q-49 0 -49 50zM318 81h66v-81h-76q-83 0 -131 53q-48 -53 -131 -53h-76v81h66q98 0 98 100v207 l86 46v-253q0 -100 98 -100z" />
<glyph unicode="&#x62c;" horiz-adv-x="696" arabic-form="final" d="M682 81h44v-81h-45q-85 0 -135.5 20t-93.5 72q-33 -12 -101 -26q-114 -24 -152 -62q-48 -46 -48 -129q0 -84 55 -130q46 -39 118 -39q110 1 184 53v-81q-85 -53 -191 -53q-114 0 -184 76q-63 68 -63 175q0 115 68 183q30 30 69 47t118 34q75 16 110.5 31t61.5 43 q-82 154 -202 154q-80 0 -168 -86v80q84 85 179 85q76 0 148 -56t127 -158v-44q-27 -39 -63 -63q53 -45 164 -45zM273 -122q0 44 45 44q43 0 43 -44q0 -46 -43 -46q-45 0 -45 46z" />
<glyph unicode="&#x62c;" horiz-adv-x="563" arabic-form="initial" d="M-30 0v81h137q203 0 321 134q-83 153 -202 153q-81 0 -167 -86v80q84 85 178 85q77 0 149 -55.5t127 -158.5v-44q-147 -189 -407 -189h-136zM263 -199q-49 0 -49 50q0 49 49 49q48 0 48 -49q0 -50 -48 -50z" />
<glyph unicode="&#x62c;" horiz-adv-x="657" arabic-form="medial" d="M622 81h65v-81h-66q-81 0 -130 18.5t-91 65.5q-126 -84 -294 -84h-136v81h137q203 0 321 134q-83 153 -202 153q-81 0 -167 -86v80q84 85 178 85q77 0 149 -55.5t127 -158.5v-44q-31 -39 -59 -63q54 -45 168 -45zM295 -100q48 0 48 -49q0 -50 -48 -50q-49 0 -49 50 q0 49 49 49z" />
<glyph unicode="&#x62d;" horiz-adv-x="716" arabic-form="final" d="M682 81h64v-81h-65q-85 0 -135.5 20t-93.5 72q-33 -12 -101 -26q-114 -24 -152 -62q-48 -46 -48 -129q0 -84 55 -130q46 -39 118 -39q110 1 184 53v-81q-85 -53 -191 -53q-114 0 -184 76q-63 68 -63 175q0 115 68 183q30 30 69 47t118 34q75 16 110.5 31t61.5 43 q-82 154 -202 154q-80 0 -168 -86v80q84 85 179 85q76 0 148 -56t127 -158v-44q-27 -39 -63 -63q53 -45 164 -45z" />
<glyph unicode="&#x62d;" horiz-adv-x="563" arabic-form="initial" d="M-30 0v81h137q203 0 321 134q-83 153 -202 153q-81 0 -167 -86v80q84 85 178 85q77 0 149 -55.5t127 -158.5v-44q-147 -189 -407 -189h-136z" />
<glyph unicode="&#x62d;" horiz-adv-x="657" arabic-form="medial" d="M622 81h65v-81h-66q-81 0 -130 18.5t-91 65.5q-126 -84 -294 -84h-136v81h137q203 0 321 134q-83 153 -202 153q-81 0 -167 -86v80q84 85 178 85q77 0 149 -55.5t127 -158.5v-44q-31 -39 -59 -63q54 -45 168 -45z" />
<glyph unicode="&#x62e;" horiz-adv-x="716" arabic-form="final" d="M324 555q-49 0 -49 50q0 49 49 49q48 0 48 -49q0 -50 -48 -50zM682 81h64v-81h-65q-85 0 -135.5 20t-93.5 72q-33 -12 -101 -26q-114 -24 -152 -62q-48 -46 -48 -129q0 -84 55 -130q46 -39 118 -39q110 1 184 53v-81q-85 -53 -191 -53q-114 0 -184 76q-63 68 -63 175 q0 115 68 183q30 30 69 47t118 34q75 16 110.5 31t61.5 43q-82 154 -202 154q-80 0 -168 -86v80q84 85 179 85q76 0 148 -56t127 -158v-44q-27 -39 -63 -63q53 -45 164 -45z" />
<glyph unicode="&#x62e;" horiz-adv-x="563" arabic-form="initial" d="M273 555q-49 0 -49 50q0 49 49 49q48 0 48 -49q0 -50 -48 -50zM-30 0v81h137q203 0 321 134q-83 153 -202 153q-81 0 -167 -86v80q84 85 178 85q77 0 149 -55.5t127 -158.5v-44q-147 -189 -407 -189h-136z" />
<glyph unicode="&#x62e;" horiz-adv-x="657" arabic-form="medial" d="M273 555q-49 0 -49 50q0 49 49 49q48 0 48 -49q0 -50 -48 -50zM622 81h65v-81h-66q-81 0 -130 18.5t-91 65.5q-126 -84 -294 -84h-136v81h137q203 0 321 134q-83 153 -202 153q-81 0 -167 -86v80q84 85 178 85q77 0 149 -55.5t127 -158.5v-44q-31 -39 -59 -63 q54 -45 168 -45z" />
<glyph unicode="&#x62f;" horiz-adv-x="522" arabic-form="final" d="M10 0l42 81h178q40 0 56.5 20t16.5 69q0 133 -123 200l44 74q157 -92 164 -254q2 -58 26.5 -83.5t78.5 -25.5h59v-81h-66q-83 0 -130 53q-33 -53 -111 -53h-235z" />
<glyph unicode="&#x630;" horiz-adv-x="522" arabic-form="final" d="M227 555q-49 0 -49 50q0 49 49 49q48 0 48 -49q0 -50 -48 -50zM10 0l42 81h178q40 0 56.5 20t16.5 69q0 133 -123 200l44 74q157 -92 164 -254q2 -58 26.5 -83.5t78.5 -25.5h59v-81h-66q-83 0 -130 53q-33 -53 -111 -53h-235z" />
<glyph unicode="&#x631;" horiz-adv-x="371" arabic-form="final" d="M335 81h66v-81h-76q-51 0 -88 20q-9 -99 -69 -158q-55 -54 -138 -54q-60 0 -117 30v75q51 -28 102 -28q64 0 100 43t36 119v341l86 46v-1l1 1v-273q9 -80 97 -80z" />
<glyph unicode="&#x632;" horiz-adv-x="371" arabic-form="final" d="M180 555q-49 0 -49 50q0 49 49 49q48 0 48 -49q0 -50 -48 -50zM335 81h66v-81h-76q-51 0 -88 20q-9 -99 -69 -158q-55 -54 -138 -54q-60 0 -117 30v75q51 -28 102 -28q64 0 100 43t36 119v341l86 46v-1l1 1v-273q9 -80 97 -80z" />
<glyph unicode="&#x633;" horiz-adv-x="1402" arabic-form="final" d="M1349 81h83v-81h-90q-88 0 -138 55q-47 -55 -133 -55h-67q-84 0 -130 52q-47 -52 -131 -52h-66q-52 0 -90 21q-12 -102 -89 -159q-69 -52 -171 -52q-130 0 -202 92q-55 71 -55 168q0 84 42 144l83 18q-45 -71 -45 -153q0 -84 52 -138q49 -50 125 -50q88 0 136 51 q40 43 40 112v267l86 46v-186q0 -100 97 -100h47q97 0 97 100v174l87 45v-219q0 -100 97 -100h47q97 0 97 100v207l87 46v-244q0 -109 104 -109z" />
<glyph unicode="&#x633;" horiz-adv-x="989" arabic-form="initial" d="M-30 0v81h90q97 0 97 100v140l86 46v-186q0 -100 98 -100h46q98 0 98 100v174l86 45v-219q0 -100 97 -100h47q98 0 98 100v207l86 46v-256q0 -85 -51 -133q-45 -44 -120 -45h-69q-88 0 -131 59q-43 -58 -128 -59h-69q-86 0 -131 59q-43 -59 -131 -59h-99z" />
<glyph unicode="&#x633;" horiz-adv-x="1056" arabic-form="medial" d="M-30 0v81h90q97 0 97 100v140l86 46v-186q0 -100 98 -100h46q98 0 98 100v174l86 45v-219q0 -100 97 -100h47q98 0 98 100v207l86 46v-244q0 -109 104 -109h83v-81h-90q-90 0 -137 61q-42 -60 -131 -61h-69q-88 0 -131 59q-43 -58 -128 -59h-69q-86 0 -131 59 q-43 -59 -131 -59h-99z" />
<glyph unicode="&#x634;" horiz-adv-x="1402" arabic-form="final" d="M873 647q-45 0 -45 45q0 44 45 44q43 0 43 -44q0 -45 -43 -45zM810 528q-49 0 -49 50q0 49 49 49q48 0 48 -49q0 -50 -48 -50zM888 578q0 49 49 49q48 0 48 -49q0 -50 -48 -50q-49 0 -49 50zM1349 81h83v-81h-90q-88 0 -138 55q-47 -55 -133 -55h-67q-84 0 -130 52 q-47 -52 -131 -52h-66q-52 0 -90 21q-12 -102 -89 -159q-69 -52 -171 -52q-130 0 -202 92q-55 71 -55 168q0 84 42 144l83 18q-45 -71 -45 -153q0 -84 52 -138q49 -50 125 -50q88 0 136 51q40 43 40 112v267l86 46v-186q0 -100 97 -100h47q97 0 97 100v174l87 45v-219 q0 -100 97 -100h47q97 0 97 100v207l87 46v-244q0 -109 104 -109z" />
<glyph unicode="&#x634;" horiz-adv-x="989" arabic-form="initial" d="M520 647q-44 0 -44 45q0 44 44 44t44 -44q0 -45 -44 -45zM457 528q-49 0 -49 50q0 49 49 49q48 0 48 -49q0 -50 -48 -50zM584 528q-49 0 -49 50q0 49 49 49q48 0 48 -49q0 -50 -48 -50zM-30 0v81h90q97 0 97 100v140l86 46v-186q0 -100 98 -100h46q98 0 98 100v174l86 45 v-219q0 -100 97 -100h47q98 0 98 100v207l86 46v-256q0 -85 -51 -133q-45 -44 -120 -45h-69q-88 0 -131 59q-43 -58 -128 -59h-69q-86 0 -131 59q-43 -59 -131 -59h-99z" />
<glyph unicode="&#x634;" horiz-adv-x="1056" arabic-form="medial" d="M520 647q-44 0 -44 45q0 44 44 44t44 -44q0 -45 -44 -45zM457 528q-49 0 -49 50q0 49 49 49q48 0 48 -49q0 -50 -48 -50zM584 528q-49 0 -49 50q0 49 49 49q48 0 48 -49q0 -50 -48 -50zM-30 0v81h90q97 0 97 100v140l86 46v-186q0 -100 98 -100h46q98 0 98 100v174l86 45 v-219q0 -100 97 -100h47q98 0 98 100v207l86 46v-244q0 -109 104 -109h83v-81h-90q-90 0 -137 61q-42 -60 -131 -61h-69q-88 0 -131 59q-43 -58 -128 -59h-69q-86 0 -131 59q-43 -59 -131 -59h-99z" />
<glyph unicode="&#x635;" horiz-adv-x="1399" arabic-form="final" d="M1363 81h66v-81h-76q-84 0 -131 52q-47 -52 -131 -52h-414q-52 0 -90 21q-12 -102 -89 -159q-69 -52 -171 -52q-130 0 -202 92q-55 71 -55 168q0 84 42 144l83 18q-45 -71 -45 -153q0 -84 52 -138q49 -50 125 -50q88 0 136 51q40 43 40 112v267l86 46v-186q0 -84 65 -97 q41 152 132 252q103 111 240 111q114 0 182 -79q57 -67 57 -165v-24q0 -98 98 -98zM1086 81q93 0 93 104v18q0 78 -48 124q-42 40 -104 40q-107 0 -192 -97q-65 -76 -99 -189h350z" />
<glyph unicode="&#x635;" horiz-adv-x="966" arabic-form="initial" d="M285 84q40 151 132 252q103 111 240 111q114 0 182 -79q57 -67 57 -165v-26q0 -87 -53 -135q-46 -42 -121 -42h-414q-83 0 -131 53q-48 -53 -131 -53h-76v81h66q98 0 98 100v140l86 46v-186q0 -84 65 -97zM810 185v18q0 78 -48 124q-42 40 -104 40q-106 0 -191 -98 q-65 -75 -100 -188h350q93 0 93 104z" />
<glyph unicode="&#x635;" horiz-adv-x="1030" arabic-form="medial" d="M994 81h66v-81h-76q-84 0 -131 52q-47 -52 -131 -52h-414q-83 0 -131 53q-48 -53 -131 -53h-76v81h66q98 0 98 100v140l86 46v-186q0 -84 65 -97q40 151 132 252q103 111 240 111q114 0 182 -79q57 -67 57 -165v-24q0 -98 98 -98zM717 81q93 0 93 104v18q0 78 -48 124 q-42 40 -104 40q-106 0 -191 -98q-65 -75 -100 -188h350z" />
<glyph unicode="&#x636;" horiz-adv-x="1399" arabic-form="final" d="M1023 555q-49 0 -49 50q0 49 49 49q48 0 48 -49q0 -50 -48 -50zM1363 81h66v-81h-76q-84 0 -131 52q-47 -52 -131 -52h-414q-52 0 -90 21q-12 -102 -89 -159q-69 -52 -171 -52q-130 0 -202 92q-55 71 -55 168q0 84 42 144l83 18q-45 -71 -45 -153q0 -84 52 -138 q49 -50 125 -50q88 0 136 51q40 43 40 112v267l86 46v-186q0 -84 65 -97q41 152 132 252q103 111 240 111q114 0 182 -79q57 -67 57 -165v-24q0 -98 98 -98zM1086 81q93 0 93 104v18q0 78 -48 124q-42 40 -104 40q-107 0 -192 -97q-65 -76 -99 -189h350z" />
<glyph unicode="&#x636;" horiz-adv-x="966" arabic-form="initial" d="M674 555q-49 0 -49 50q0 49 49 49q48 0 48 -49q0 -50 -48 -50zM285 84q40 151 132 252q103 111 240 111q114 0 182 -79q57 -67 57 -165v-26q0 -87 -53 -135q-46 -42 -121 -42h-414q-83 0 -131 53q-48 -53 -131 -53h-76v81h66q98 0 98 100v140l86 46v-186q0 -84 65 -97z M810 185v18q0 78 -48 124q-42 40 -104 40q-106 0 -191 -98q-65 -75 -100 -188h350q93 0 93 104z" />
<glyph unicode="&#x636;" horiz-adv-x="1030" arabic-form="medial" d="M674 555q-49 0 -49 50q0 49 49 49q48 0 48 -49q0 -50 -48 -50zM994 81h66v-81h-76q-84 0 -131 52q-47 -52 -131 -52h-414q-83 0 -131 53q-48 -53 -131 -53h-76v81h66q98 0 98 100v140l86 46v-186q0 -84 65 -97q40 151 132 252q103 111 240 111q114 0 182 -79 q57 -67 57 -165v-24q0 -98 98 -98zM717 81q93 0 93 104v18q0 78 -48 124q-42 40 -104 40q-106 0 -191 -98q-65 -75 -100 -188h350z" />
<glyph unicode="&#x637;" horiz-adv-x="941" arabic-form="final" d="M905 81h66v-81h-76q-80 0 -125 47q-41 -47 -116 -47h-634l43 81h134l3 11v507l86 46v-366q114 168 283 168q113 0 181 -79q58 -67 58 -165v-24q0 -98 97 -98zM721 175v28q0 78 -48 124q-41 40 -103 40q-103 0 -186 -93q-62 -70 -98 -175v-18h361q43 0 58.5 20t15.5 74z " />
<glyph unicode="&#x637;" horiz-adv-x="837" arabic-form="initial" d="M245 279q114 168 283 168q113 0 181 -79q58 -67 58 -165v-32q0 -82 -40 -126.5t-114 -44.5h-643v81h186l3 11v507l86 46v-366zM680 175v28q0 78 -48 124q-41 40 -103 40q-103 0 -186 -93q-62 -70 -98 -175v-18h361q43 0 58.5 20t15.5 74z" />
<glyph unicode="&#x637;" horiz-adv-x="900" arabic-form="medial" d="M864 81h66v-81h-76q-80 0 -125 47q-41 -47 -116 -47h-643v81h186l3 11v507l86 46v-366q114 168 283 168q113 0 181 -79q58 -67 58 -165v-24q0 -98 97 -98zM680 175v28q0 78 -48 124q-41 40 -103 40q-103 0 -186 -93q-62 -70 -98 -175v-18h361q43 0 58.5 20t15.5 74z" />
<glyph unicode="&#x638;" horiz-adv-x="941" arabic-form="final" d="M564 555q-49 0 -49 50q0 49 49 49q48 0 48 -49q0 -50 -48 -50zM905 81h66v-81h-76q-80 0 -125 47q-41 -47 -116 -47h-634l43 81h134l3 11v507l86 46v-366q114 168 283 168q113 0 181 -79q58 -67 58 -165v-24q0 -98 97 -98zM721 175v28q0 78 -48 124q-41 40 -103 40 q-103 0 -186 -93q-62 -70 -98 -175v-18h361q43 0 58.5 20t15.5 74z" />
<glyph unicode="&#x638;" horiz-adv-x="837" arabic-form="initial" d="M522 555q-49 0 -49 50q0 49 49 49q48 0 48 -49q0 -50 -48 -50zM245 279q114 168 283 168q113 0 181 -79q58 -67 58 -165v-32q0 -82 -40 -126.5t-114 -44.5h-643v81h186l3 11v507l86 46v-366zM680 175v28q0 78 -48 124q-41 40 -103 40q-103 0 -186 -93q-62 -70 -98 -175 v-18h361q43 0 58.5 20t15.5 74z" />
<glyph unicode="&#x638;" horiz-adv-x="900" arabic-form="medial" d="M522 555q-49 0 -49 50q0 49 49 49q48 0 48 -49q0 -50 -48 -50zM864 81h66v-81h-76q-80 0 -125 47q-41 -47 -116 -47h-643v81h186l3 11v507l86 46v-366q114 168 283 168q113 0 181 -79q58 -67 58 -165v-24q0 -98 97 -98zM680 175v28q0 78 -48 124q-41 40 -103 40 q-103 0 -186 -93q-62 -70 -98 -175v-18h361q43 0 58.5 20t15.5 74z" />
<glyph unicode="&#x639;" horiz-adv-x="671" arabic-form="final" d="M314 24q-95 -57 -115 -78q-40 -39 -40 -97q0 -64 44 -103.5t114 -39.5q110 1 184 53v-81q-86 -53 -188 -53q-111 0 -178 73q-58 62 -58 153q0 68 36 115.5t127 99.5q-82 60 -168 188v44q49 70 115 109.5t134 39.5q67 0 134 -40.5t115 -110.5v-42q-51 -77 -169 -171 q22 -2 35 -2h264l1 -81h-272q-59 0 -115 24zM152 275q90 -123 164 -163q97 66 174 165q-74 90 -169 91q-96 0 -169 -93z" />
<glyph unicode="&#x639;" horiz-adv-x="559" arabic-form="initial" d="M509 81v-81h-539v81h173q-49 63 -49 155q0 102 70 162q57 48 132 49q106 0 165 -85v-81q-64 86 -155 86q-57 0 -91.5 -36.5t-34.5 -97.5q0 -69 41.5 -110.5t110.5 -41.5h177z" />
<glyph unicode="&#x639;" horiz-adv-x="698" arabic-form="medial" d="M464 81h264v-81h-272q-54 0 -107 21q-53 -21 -108 -21h-271v81h264h14q-72 59 -148 173v44q48 69 114.5 109t133.5 40t134 -40.5t116 -110.5v-42q-76 -114 -149 -173h15zM180 275q92 -126 169 -166q77 41 169 167q-75 91 -170 92q-95 0 -168 -93z" />
<glyph unicode="&#x63a;" horiz-adv-x="671" arabic-form="final" d="M327 555q-49 0 -49 50q0 49 49 49q48 0 48 -49q0 -50 -48 -50zM314 24q-95 -57 -115 -78q-40 -39 -40 -97q0 -64 44 -103.5t114 -39.5q110 1 184 53v-81q-86 -53 -188 -53q-111 0 -178 73q-58 62 -58 153q0 68 36 115.5t127 99.5q-82 60 -168 188v44q49 70 115 109.5 t134 39.5q67 0 134 -40.5t115 -110.5v-42q-51 -77 -169 -171q22 -2 35 -2h264l1 -81h-272q-59 0 -115 24zM152 275q90 -123 164 -163q97 66 174 165q-74 90 -169 91q-96 0 -169 -93z" />
<glyph unicode="&#x63a;" horiz-adv-x="559" arabic-form="initial" d="M293 555q-49 0 -49 50q0 49 49 49q48 0 48 -49q0 -50 -48 -50zM509 81v-81h-539v81h173q-49 63 -49 155q0 102 70 162q57 48 132 49q106 0 165 -85v-81q-64 86 -155 86q-57 0 -91.5 -36.5t-34.5 -97.5q0 -69 41.5 -110.5t110.5 -41.5h177z" />
<glyph unicode="&#x63a;" horiz-adv-x="698" arabic-form="medial" d="M347 555q-49 0 -49 50q0 49 49 49q48 0 48 -49q0 -50 -48 -50zM464 81h264v-81h-272q-54 0 -107 21q-53 -21 -108 -21h-271v81h264h14q-72 59 -148 173v44q48 69 114.5 109t133.5 40t134 -40.5t116 -110.5v-42q-76 -114 -149 -173h15zM180 275q92 -126 169 -166 q77 41 169 167q-75 91 -170 92q-95 0 -168 -93z" />
<glyph unicode="&#x641;" horiz-adv-x="969" arabic-form="final" d="M700 548q-49 0 -49 50q0 49 49 49q48 0 48 -49q0 -50 -48 -50zM820 81h179v-81h-236q-40 0 -68 7q-29 -7 -68 -7h-370q-81 0 -127 54q-40 47 -40 123v121l86 46v-159q0 -104 97 -104h296q-62 71 -62 157q0 98 56 156q50 53 132 53q93 0 145 -68q42 -56 42 -141 q0 -86 -62 -157zM695 90q46 16 75.5 59t29.5 93q0 57 -28.5 91t-76.5 34t-76.5 -33.5t-28.5 -91.5q0 -50 29.5 -93t75.5 -59z" />
<glyph unicode="&#x641;" horiz-adv-x="546" arabic-form="initial" d="M296 549q-49 0 -49 50q0 49 49 49q48 0 48 -49q0 -50 -48 -50zM-30 0v81h180q-46 51 -46 142q0 109 57 170q50 54 133 54q85 0 132 -53q40 -47 40 -123v-95q-1 -83 -49 -131q-47 -45 -125 -45h-322zM380 267q0 100 -86 100q-49 0 -77 -37.5t-28 -104.5q0 -66 27 -105 t72 -39q92 0 92 96v90z" />
<glyph unicode="&#x641;" horiz-adv-x="563" arabic-form="medial" d="M283 549q-49 0 -49 50q0 49 49 49q48 0 48 -49q0 -50 -48 -50zM407 81h186v-81h-244q-39 0 -68 7q-28 -7 -68 -7h-243v81h186q-62 71 -62 157q0 98 55 156q50 53 132 53q94 0 145 -68q43 -56 43 -141q0 -86 -62 -157zM282 90q46 16 75 58.5t29 93.5q0 58 -28.5 91.5 t-76.5 33.5t-76.5 -34t-28.5 -91q0 -50 30 -93t76 -59z" />
<glyph unicode="&#x642;" horiz-adv-x="764" arabic-form="final" d="M428 548q-49 0 -49 50q0 49 49 49q48 0 48 -49q0 -50 -48 -50zM555 548q-49 0 -49 50q0 49 49 49q48 0 48 -49q0 -50 -48 -50zM665 0q-30 -190 -298 -190q-158 0 -238 92q-59 68 -59 168q0 84 42 144l83 18q-45 -71 -45 -153q0 -86 58 -138q57 -50 159 -50q183 0 207 111 l-24 2q-244 15 -244 219q0 109 57 170q51 54 134 54q85 0 131 -53q41 -47 41 -123v-190h125v-81h-129zM583 83v184q0 100 -86 100q-50 0 -77.5 -37.5t-27.5 -104.5q0 -81 48 -112q36 -24 114 -29z" />
<glyph unicode="&#x642;" horiz-adv-x="546" arabic-form="initial" d="M231 548q-49 0 -49 50q0 49 49 49q48 0 48 -49q0 -50 -48 -50zM358 548q-49 0 -49 50q0 49 49 49q48 0 48 -49q0 -50 -48 -50zM-30 0v81h180q-46 51 -46 142q0 109 57 170q50 54 133 54q85 0 132 -53q40 -47 40 -123v-95q-1 -83 -49 -131q-47 -45 -125 -45h-322zM380 267 q0 100 -86 100q-49 0 -77 -37.5t-28 -104.5q0 -66 27 -105t72 -39q92 0 92 96v90z" />
<glyph unicode="&#x642;" horiz-adv-x="563" arabic-form="medial" d="M218 548q-49 0 -49 50q0 49 49 49q48 0 48 -49q0 -50 -48 -50zM345 548q-49 0 -49 50q0 49 49 49q48 0 48 -49q0 -50 -48 -50zM407 81h186v-81h-244q-39 0 -68 7q-28 -7 -68 -7h-243v81h186q-62 71 -62 157q0 98 55 156q50 53 132 53q94 0 145 -68q43 -56 43 -141 q0 -86 -62 -157zM282 90q46 16 75 58.5t29 93.5q0 58 -28.5 91.5t-76.5 33.5t-76.5 -34t-28.5 -91q0 -50 30 -93t76 -59z" />
<glyph unicode="&#x643;" horiz-adv-x="921" arabic-form="final" d="M885 81h66v-81h-76q-84 0 -130 52q-49 -52 -131 -52h-357q-81 0 -127 54q-40 47 -40 123v121l86 46v-159q0 -104 97 -104h332q96 0 96 104v414l87 46v-464q0 -100 97 -100zM444 487q86 -4 86 -85q0 -35 -20.5 -56t-54.5 -21h-132l23 43h105q36 0 36 36q0 44 -56 44 q-29 0 -53 -14v40l84 93h53z" />
<glyph unicode="&#x643;" horiz-adv-x="480" arabic-form="initial" d="M167 423h3h3q113 0 183 -70q64 -63 64 -161v-17q0 -86 -53 -134q-47 -41 -121 -41h-276v81h268q96 0 96 101v9q0 74 -58 114q-46 31 -112 31q-53 0 -107 -19v85l219 243h88z" />
<glyph unicode="&#x643;" horiz-adv-x="544" arabic-form="medial" d="M517 81h57v-81h-66q-84 0 -131 52q-47 -52 -131 -52h-276v81h268q96 0 96 101v9q0 75 -58 114q-46 32 -113 32q-53 0 -106 -20v85l219 243h88l-197 -222h3h3q114 0 184 -69q63 -64 63 -162v-11q0 -100 97 -100z" />
<glyph unicode="&#x644;" horiz-adv-x="742" arabic-form="final" d="M706 81h66v-81h-76q-54 0 -97 24q-14 -103 -93 -162q-70 -52 -173 -52q-134 0 -207 90q-56 70 -56 167q0 85 41 145l86 19q-46 -71 -46 -155q0 -83 53 -136q49 -49 129 -49q91 0 140 54q42 46 42 118v536l87 46v-464q0 -100 104 -100z" />
<glyph unicode="&#x644;" horiz-adv-x="304" arabic-form="initial" d="M-30 0v81h53q104 0 104 109v409l87 46v-456q0 -89 -53 -141q-50 -48 -131 -48h-60z" />
<glyph unicode="&#x644;" horiz-adv-x="347" arabic-form="medial" d="M311 81h66v-81h-76q-86 0 -133 55q-50 -55 -138 -55h-60v81h53q104 0 104 109v409l87 46v-456q0 -58 22.5 -83t74.5 -25z" />
<glyph unicode="&#x645;" horiz-adv-x="643" arabic-form="final" d="M606 81h67v-81h-76q-81 0 -129 50q-47 -48 -133 -50h-131q-98 0 -98 -100v-169l-86 -46v218q0 83 48 131q43 44 114 47q-36 58 -36 142q0 109 57 170q51 54 134 54q85 0 131 -53q41 -47 41 -123v-90q0 -100 97 -100zM423 174v93q0 100 -86 100q-50 0 -77.5 -37.5 t-27.5 -104.5q0 -68 26 -106t73 -38q92 0 92 93z" />
<glyph unicode="&#x645;" horiz-adv-x="571" arabic-form="initial" d="M134 271q0 87 52 135q46 41 120 41q95 0 146 -70q44 -59 44 -154q0 -108 -56 -169q-49 -54 -128 -54q-90 0 -137 50q-48 -50 -129 -50h-76v81h66q98 0 98 100v90zM220 174q0 -93 91 -93q47 0 73.5 38t26.5 106q0 67 -28 104.5t-77 37.5q-86 0 -86 -100v-93z" />
<glyph unicode="&#x645;" horiz-adv-x="651" arabic-form="medial" d="M614 81h67v-81h-76q-83 0 -131 53q-51 -73 -149 -73t-148 72q-47 -52 -131 -52h-76v81h66q98 0 98 100v33q0 116 57 178q50 55 134 55q96 0 148 -71q44 -61 44 -162v-33q0 -100 97 -100zM325 61q49 0 77.5 41t28.5 113q0 152 -106 152q-105 0 -105 -152q0 -154 105 -154z " />
<glyph unicode="&#x646;" horiz-adv-x="723" arabic-form="final" d="M322 451q-49 0 -49 50q0 49 49 49q48 0 48 -49q0 -50 -48 -50zM687 81h66v-81h-76q-52 0 -90 21q-12 -102 -89 -159q-69 -52 -171 -52q-130 0 -202 92q-55 71 -55 168q0 84 42 144l83 18q-45 -71 -45 -153q0 -84 52 -138q49 -50 125 -50q88 0 136 51q40 43 40 112v334 l86 46v-253q0 -100 98 -100z" />
<glyph unicode="&#x646;" horiz-adv-x="310" arabic-form="initial" d="M174 555q-49 0 -49 50q0 49 49 49q48 0 48 -49q0 -50 -48 -50zM-30 0v81h66q98 0 98 100v207l86 46v-256q0 -85 -51 -134q-47 -44 -123 -44h-76z" />
<glyph unicode="&#x646;" horiz-adv-x="354" arabic-form="medial" d="M160 555q-49 0 -49 50q0 49 49 49q48 0 48 -49q0 -50 -48 -50zM318 81h66v-81h-76q-83 0 -131 53q-48 -53 -131 -53h-76v81h66q98 0 98 100v207l86 46v-253q0 -100 98 -100z" />
<glyph unicode="&#x647;" horiz-adv-x="526" arabic-form="final" d="M490 81h66v-81h-76q-103 0 -148 76q-48 -46 -119 -46q-88 0 -140 66q-43 56 -43 137q0 97 59 156q50 51 122 51q55 0 95 -28v43l87 46v-320q0 -100 97 -100zM306 319q-37 41 -91 41q-44 0 -72 -35.5t-28 -92.5q0 -58 28 -93t73 -35q56 0 92 46q-2 18 -2 28v141z" />
<glyph unicode="&#x647;" horiz-adv-x="624" arabic-form="initial" d="M90 297q25 92 95 141q57 39 129 39q106 0 175 -72q65 -68 65 -175v-53q0 -87 -54 -135q-47 -42 -122 -42h-108q-34 0 -64 10q-31 -10 -64 -10h-172v81h129q-38 51 -38 116q0 59 29 100zM467 185v45q0 83 -53 129q-43 38 -103 38q-69 0 -108 -45h3q66 0 105.5 -42.5 t39.5 -112.5q0 -67 -39 -116h63q49 0 70.5 24.5t21.5 79.5zM206 90q82 28 82 112q0 42 -22.5 67.5t-59.5 25.5t-59.5 -25.5t-22.5 -67.5q0 -84 82 -112z" />
<glyph unicode="&#x647;" horiz-adv-x="687" arabic-form="medial" d="M651 81h66v-81h-76q-84 0 -130 52q-49 -52 -133 -52h-108q-34 0 -64 10q-31 -10 -64 -10h-172v81h129q-38 51 -38 116q0 59 29 100q25 92 95 141q57 39 129 39q106 0 175 -72q65 -68 65 -175v-49q0 -100 97 -100zM375 81q49 0 70.5 24.5t21.5 79.5v45q0 83 -53 129 q-43 38 -103 38q-69 0 -108 -45h3q66 0 105.5 -42.5t39.5 -112.5q0 -67 -39 -116h63zM206 90q82 28 82 112q0 42 -22.5 67.5t-59.5 25.5t-59.5 -25.5t-22.5 -67.5q0 -84 82 -112z" />
<glyph unicode="&#x648;" horiz-adv-x="527" arabic-form="final" d="M557 81v-81h-124q-4 -86 -74 -142q-59 -46 -134 -46q-62 0 -117 29v76q53 -28 105 -28q53 0 92.5 33t40.5 79q-52 2 -77 4q-108 6 -163 73q-46 56 -46 145q0 109 58 170q52 54 137 54q89 0 137 -53q41 -47 41 -123v-190h124zM346 265q0 102 -91 102q-52 0 -81 -37.5 t-29 -104.5q0 -131 128 -139q24 -3 73 -5v184z" />
<glyph unicode="&#x649;" horiz-adv-x="647" arabic-form="final" d="M667 0q-10 -88 -96 -141q-80 -49 -204 -49q-158 0 -238 92q-59 68 -59 168q0 84 42 144l83 18q-45 -71 -45 -153q0 -89 58 -140q57 -51 159 -51q86 0 142 30t68 82h-100l42 81h151v-81h-3z" />
<glyph unicode="&#x64a;" horiz-adv-x="647" arabic-form="final" d="M667 0q-10 -88 -96 -141q-80 -49 -204 -49q-158 0 -238 92q-59 68 -59 168q0 84 42 144l83 18q-45 -71 -45 -153q0 -89 58 -140q57 -51 159 -51q86 0 142 30t68 82h-100l42 81h151v-81h-3zM300 -367q-49 0 -49 50q0 49 49 49q48 0 48 -49q0 -50 -48 -50zM427 -367 q-49 0 -49 50q0 49 49 49q48 0 48 -49q0 -50 -48 -50z" />
<glyph unicode="&#x64a;" horiz-adv-x="310" arabic-form="initial" d="M-30 0v81h66q98 0 98 100v207l86 46v-256q0 -85 -51 -134q-47 -44 -123 -44h-76zM23 -199q-49 0 -49 50q0 49 49 49q48 0 48 -49q0 -50 -48 -50zM150 -199q-49 0 -49 50q0 49 49 49q48 0 48 -49q0 -50 -48 -50z" />
<glyph unicode="&#x64a;" horiz-adv-x="354" arabic-form="medial" d="M318 81h66v-81h-76q-83 0 -131 53q-48 -53 -131 -53h-76v81h66q98 0 98 100v207l86 46v-253q0 -100 98 -100zM79 -100q48 0 48 -50q0 -49 -48 -49q-49 0 -49 49q0 50 49 50zM206 -100q48 0 48 -50q0 -49 -48 -49q-49 0 -49 49q0 50 49 50z" />
<glyph />
<glyph horiz-adv-x="233" />
<glyph unicode=" "  horiz-adv-x="233" />
<glyph unicode="&#x09;" horiz-adv-x="233" />
<glyph unicode="&#xa0;" horiz-adv-x="233" />
<glyph unicode="!" horiz-adv-x="238" d="M74 159v474h86v-474h-86zM67 40v2q2 50 53 50q53 0 53 -52q0 -53 -53 -53t-53 53z" />
<glyph unicode="&#x22;" horiz-adv-x="302" d="M70 468v143l64 34v-143zM169 468v143l63 34v-143z" />
<glyph unicode="#" horiz-adv-x="497" d="M342 142l-30 -142h-64l30 142h-126l-30 -142h-64l30 142h-73v70h87l36 171h-90v70h105l33 156h64l-33 -156h126l33 156h64l-33 -156h75v-70h-90l-36 -171h93v-70h-107zM202 383l-36 -171h126l36 171h-126z" />
<glyph unicode="$" horiz-adv-x="550" d="M294 700v-56q87 -3 163 -55l-40 -57q-62 30 -123 33v-189q98 -38 141.5 -86.5t43.5 -118.5q0 -85 -60 -136q-49 -41 -125 -46v-63h-40v63q-92 5 -184 65l40 56q60 -35 144 -38v228q-96 36 -137 78t-41 103q0 68 48.5 112.5t129.5 50.5v56h40zM294 73q87 12 87 102 q0 65 -87 108v-210zM254 564q-80 -13 -80 -78q0 -55 80 -93v171z" />
<glyph unicode="%" horiz-adv-x="746" d="M187 0l304 589h72l-303 -589h-73zM295 429q0 -73 -33 -117t-87 -44q-57 0 -90 42.5t-33 117.5q0 71 33 112t90 41q53 0 86.5 -42t33.5 -110zM236 427q0 44 -18 73.5t-45 29.5q-28 0 -46 -29t-18 -74q0 -49 17.5 -79t46.5 -30q28 0 45.5 30.5t17.5 78.5zM694 162 q0 -73 -33 -117t-87 -44q-58 0 -90.5 43t-32.5 117q0 71 33 112.5t90 41.5q53 0 86.5 -42.5t33.5 -110.5zM636 160q0 45 -18 74.5t-46 29.5t-46 -29.5t-18 -74.5q0 -48 18 -78.5t46 -30.5t46 30.5t18 78.5z" />
<glyph unicode="&#x26;" horiz-adv-x="556" d="M403 329h90v-39q0 -114 -42 -178l100 -112h-103l-44 48q-56 -60 -155 -60q-93 0 -148 59q-46 49 -46 119q0 51 27 100t71 78l-12 13q-69 76 -69 141q0 66 44.5 106t117.5 40q68 0 144 -52l-39 -55q-52 28 -106 28q-77 0 -77 -64q0 -47 63 -121l171 -199q13 26 13 93v55z M199 291q-21 -17 -35.5 -49t-14.5 -60q0 -51 29 -82t76 -31q61 0 94 43z" />
<glyph unicode="'" horiz-adv-x="204" d="M70 468v143l64 34v-143z" />
<glyph unicode="(" horiz-adv-x="368" d="M234 645h77q-134 -182 -134 -389q0 -104 38 -216t96 -180h-77q-59 56 -101 172t-42 224q0 104 40.5 214t102.5 175z" />
<glyph unicode=")" horiz-adv-x="368" d="M57 645h77q62 -65 102.5 -175t40.5 -214q0 -146 -65 -279q-39 -81 -78 -117h-77q58 68 96 180t38 216q0 207 -134 389z" />
<glyph unicode="*" horiz-adv-x="328" d="M152 532l5 114l82 -22l-53 -102l110 32l7 -85l-114 18l63 -95l-79 -31l-17 111l-71 -89l-54 67l103 51l-109 41l48 71z" />
<glyph unicode="+" horiz-adv-x="518" d="M219 192h-177v70h177v192h80v-192h177v-70h-177v-192h-80v192z" />
<glyph unicode="," horiz-adv-x="196" d="M74 -103l-20 39q39 25 39 56v4q-4 -2 -9 -2q-17 0 -29.5 14.5t-12.5 34.5q0 23 15 38.5t37 15.5q60 0 60 -84q0 -39 -22 -71t-58 -45z" />
<glyph unicode="-" horiz-adv-x="290" d="M265 204h-240v70h240v-70z" />
<glyph unicode="." horiz-adv-x="286" d="M91 48v2q2 50 53 50q53 0 53 -52q0 -53 -53 -53t-53 53z" />
<glyph unicode="/" horiz-adv-x="327" d="M365 633l-315 -663h-75l315 663h75z" />
<glyph unicode="0" horiz-adv-x="565" d="M280 -12q-115 0 -178 104q-54 88 -54 223q0 151 71 245q63 85 161 85q111 0 178 -109q55 -91 55 -221q0 -155 -70 -246q-63 -81 -163 -81zM280 565q-64 0 -99 -63.5t-35 -180.5q0 -122 38 -191q36 -62 95 -62q64 0 100 67.5t36 185.5q0 122 -38 186q-35 58 -97 58z" />
<glyph unicode="1" horiz-adv-x="375" d="M285 633v-633h-93v531l-117 -68l-45 69l162 101h93z" />
<glyph unicode="2" horiz-adv-x="480" d="M50 0v81l159 177q72 80 97.5 124.5t25.5 89.5q0 42 -30 68t-80 26q-60 0 -127 -44l-39 56q89 68 182 68q87 0 141 -51q51 -47 51 -123q0 -49 -23 -94.5t-80 -110.5l-166 -190h255v-77h-366z" />
<glyph unicode="3" horiz-adv-x="496" d="M215 298h-90v77h90q107 0 107 97q0 45 -27.5 70t-75.5 25q-60 0 -127 -48l-36 57q74 69 176 69q83 0 137 -48q51 -46 51 -118q0 -50 -26.5 -86t-72.5 -49q124 -34 124 -159q0 -104 -77 -157q-57 -39 -135 -39q-100 0 -186 72l39 55q60 -46 138 -46q56 0 89.5 32t33.5 84 q0 112 -132 112z" />
<glyph unicode="4" horiz-adv-x="555" d="M35 208l278 425h95v-425h112v-77h-112v-131h-92v131h-281v77zM122 208h194v301z" />
<glyph unicode="5" horiz-adv-x="503" d="M409 556h-235v-161q24 4 58 4q104 0 164 -55q56 -51 56 -139q0 -102 -71 -164q-60 -53 -144 -53q-105 0 -187 73l37 56q66 -47 135 -47q64 0 98.5 34t34.5 97q0 124 -145 124q-64 0 -128 -13v321h327v-77z" />
<glyph unicode="6" horiz-adv-x="511" d="M150 365q44 48 117 48q78 0 134 -52q60 -56 60 -157q0 -87 -57 -152q-56 -64 -144 -64q-117 0 -171 109q-39 78 -39 195q0 175 67 268q61 85 168 85q91 0 153 -54l-33 -55q-52 29 -116 29q-61 0 -98.5 -54t-40.5 -146zM145 288q4 -224 114 -224q46 0 75 39.5t29 100.5 q0 135 -112 135q-66 0 -106 -51z" />
<glyph unicode="7" horiz-adv-x="432" d="M301 556h-259v77h354v-81l-238 -552h-98z" />
<glyph unicode="8" horiz-adv-x="524" d="M343 333q131 -39 131 -165q0 -86 -70 -137q-58 -43 -142 -43q-97 0 -158 56q-54 49 -54 124q0 61 38 107.5t97 58.5q-112 38 -112 137q0 84 61 132q52 42 131 42q87 0 143 -54q50 -48 50 -120q0 -46 -31 -83t-84 -55zM264 368q100 29 100 106q0 42 -27 68.5t-70 26.5 q-100 0 -100 -95q0 -74 97 -106zM264 302q-49 -4 -82.5 -41.5t-33.5 -89.5q0 -49 31 -78t83 -29q51 0 82.5 29.5t31.5 77.5q0 51 -32 88.5t-80 42.5z" />
<glyph unicode="9" horiz-adv-x="511" d="M371 268q-44 -48 -117 -48q-78 0 -134 52q-60 56 -60 157q0 87 57 152q56 64 144 64q117 0 171 -109q39 -78 39 -195q0 -175 -67 -268q-61 -85 -168 -85q-91 0 -153 54l33 55q52 -29 116 -29q61 0 98.5 54t40.5 146zM376 345q-4 224 -114 224q-46 0 -75 -39.5t-29 -100.5 q0 -135 112 -135q66 0 106 51z" />
<glyph unicode=":" horiz-adv-x="246" d="M91 288v2q2 50 53 50q53 0 53 -52q0 -53 -53 -53t-53 53zM91 48v2q2 50 53 50q53 0 53 -52q0 -53 -53 -53t-53 53z" />
<glyph unicode=";" horiz-adv-x="196" d="M74 -103l-20 39q39 25 39 56v4q-4 -2 -9 -2q-17 0 -29.5 14.5t-12.5 34.5q0 23 15 38.5t37 15.5q60 0 60 -84q0 -39 -22 -71t-58 -45zM39 288q0 22 15.5 37t36.5 15q24 0 40.5 -15t16.5 -37q0 -57 -57 -57q-23 0 -37.5 16t-14.5 41z" />
<glyph unicode="&#x3c;" horiz-adv-x="517" d="M475 403l-380 -164l380 -177v-75l-433 202v100l433 189v-75z" />
<glyph unicode="=" horiz-adv-x="518" d="M476 262h-434v70h434v-70zM476 122h-434v70h434v-70z" />
<glyph unicode="&#x3e;" horiz-adv-x="517" d="M422 239l-380 164v75l433 -189v-100l-433 -202v75z" />
<glyph unicode="?" horiz-adv-x="403" d="M204 140h-86v95q0 41 11.5 61.5t53.5 53.5q82 66 82 133q0 41 -26 65.5t-70 24.5q-42 0 -96 -32l-31 50q73 54 153 54q69 0 112.5 -43t43.5 -111q0 -97 -78 -162q-3 -2 -9 -7l-6 -6q-36 -29 -45 -45t-9 -52v-79zM109 45q0 21 15.5 36.5t36.5 15.5q24 0 40.5 -15t16.5 -37 q0 -57 -57 -57q-23 0 -37.5 16t-14.5 41z" />
<glyph unicode="@" horiz-adv-x="704" d="M419 -112l1 -60l-24 -1h-16q-142 0 -237 88q-95 87 -95 230q0 156 104 246q85 75 209 75q129 0 215 -86q80 -80 80 -203q0 -74 -33 -128q-39 -61 -109 -61q-34 0 -58.5 17t-29.5 43q-31 -60 -101 -60q-54 0 -89.5 40.5t-35.5 101.5q0 82 49 129q40 37 93 37q41 0 71 -22 l10 23h60v-186q0 -63 39 -63q63 0 63 129q0 117 -83 180q-61 47 -141 47q-110 0 -177 -75q-62 -69 -62 -181q0 -142 93 -212q67 -50 159 -50q10 0 19 1zM406 218q-22 19 -59 19q-67 0 -67 -95q0 -91 63 -91t63 90v77z" />
<glyph unicode="A" horiz-adv-x="576" d="M244 633h88l229 -633h-95l-48 143h-259l-49 -143h-95zM288 521l-103 -301h206z" />
<glyph unicode="B" horiz-adv-x="549" d="M90 1v631q86 13 170 13q119 0 175 -56q45 -45 45 -119q0 -49 -33.5 -87t-82.5 -45v-1q62 -9 98.5 -53.5t36.5 -113.5q0 -90 -73 -139q-63 -43 -166 -43q-92 0 -170 13zM183 564v-191h94q50 0 79.5 23.5t29.5 63.5q0 111 -127 111q-46 0 -76 -7zM183 297v-228q35 -7 89 -7 q129 0 129 109q0 60 -33 93t-93 33h-92z" />
<glyph unicode="C" horiz-adv-x="568" d="M518 61q-84 -73 -183 -73q-144 0 -223 111q-62 88 -62 211q0 140 77 239q76 96 193 96q104 0 190 -69l-37 -56q-68 45 -135 45q-91 0 -143 -75q-47 -68 -47 -180q0 -111 59 -178q54 -62 140 -62q65 0 134 47z" />
<glyph unicode="D" horiz-adv-x="627" d="M90 632q75 13 159 13q165 0 253 -99q75 -84 75 -223q0 -169 -94 -257q-83 -78 -228 -78q-90 0 -165 13v631zM183 69q32 -7 72 -7q113 0 171 72q53 66 53 185q0 128 -74 196q-60 56 -153 56q-41 0 -69 -7v-495z" />
<glyph unicode="E" horiz-adv-x="526" d="M82 633h386v-77h-293v-189h246v-77h-246v-213h306v-77h-399v633z" />
<glyph unicode="F" horiz-adv-x="513" d="M82 0v633h386v-77h-293v-190h246v-77h-246v-289h-93z" />
<glyph unicode="G" horiz-adv-x="594" d="M536 48q-102 -60 -215 -60q-140 0 -214 114q-57 88 -57 213q0 136 79 234q77 96 196 96q99 0 185 -69l-37 -56q-68 45 -140 45q-83 0 -135 -72q-50 -69 -50 -182q0 -121 57 -186q49 -57 132 -57q56 0 109 21v173h-113v81h203v-295z" />
<glyph unicode="H" horiz-adv-x="670" d="M182 0h-92v633h92v-266h305v266h93v-633h-93v290h-305v-290z" />
<glyph unicode="I" horiz-adv-x="272" d="M182 633v-633h-92v633h92z" />
<glyph unicode="J" horiz-adv-x="255" d="M165 633v-666q0 -135 -123 -135q-65 0 -127 43l32 50q38 -22 73 -22q53 0 53 71v659h92z" />
<glyph unicode="K" horiz-adv-x="550" d="M180 308v-308h-90v633h90v-273h1l219 273h113l-244 -298l266 -335h-121l-233 308h-1z" />
<glyph unicode="L" horiz-adv-x="473" d="M90 0v633h93v-556h245v-77h-338z" />
<glyph unicode="M" horiz-adv-x="800" d="M182 521v-521h-92v633h118q77 -160 162 -438q19 -62 29 -95q9 29 20 64q94 300 172 469h119v-633h-93v523q-39 -139 -180 -523h-74q-45 105 -102.5 271.5t-78.5 249.5z" />
<glyph unicode="N" horiz-adv-x="675" d="M182 479v-479h-92v633h81q200 -290 321 -490v490h93v-633h-83q-102 141 -320 479z" />
<glyph unicode="O" horiz-adv-x="654" d="M327 -12q-141 0 -217 111q-60 88 -60 214q0 148 79 242q75 90 198 90q140 0 217 -115q60 -90 60 -217q0 -147 -79 -238q-75 -87 -198 -87zM327 68q93 0 140 77q39 64 39 168q0 121 -51 189q-47 63 -128 63q-92 0 -140 -81q-39 -66 -39 -171q0 -120 51 -185 q47 -60 128 -60z" />
<glyph unicode="P" horiz-adv-x="532" d="M90 0v632q88 13 162 13q230 0 230 -194q0 -105 -70 -159q-57 -44 -146 -44q-43 0 -83 7v-255h-93zM183 564v-234q40 -7 83 -7q118 0 118 128q0 120 -127 120q-46 0 -74 -7z" />
<glyph unicode="Q" horiz-adv-x="654" d="M389 -5q-33 -7 -62 -7q-141 0 -217 110q-60 88 -60 214q0 150 80 244q76 89 197 89q140 0 217 -115q60 -91 60 -218q0 -96 -36.5 -172.5t-100.5 -115.5l124 -131h-108zM148 312q0 -120 51 -185q47 -59 128 -59q93 0 140 76q39 64 39 168q0 121 -51 190q-47 63 -128 63 q-92 0 -140 -81q-39 -67 -39 -172z" />
<glyph unicode="R" horiz-adv-x="529" d="M90 0v632q88 13 162 13q230 0 230 -194q0 -126 -104 -178l126 -273h-94l-114 250q-13 -2 -38 -2q-35 0 -75 7v-255h-93zM183 564v-234q40 -7 75 -7q126 0 126 128q0 120 -127 120q-46 0 -74 -7z" />
<glyph unicode="S" horiz-adv-x="529" d="M402 532q-68 34 -137 34q-49 0 -80 -22.5t-31 -57.5q0 -63 83 -94q124 -46 176 -96.5t52 -124.5q0 -90 -69 -141q-56 -42 -139 -42q-99 0 -206 68l40 57q67 -41 156 -41q122 0 122 103q0 80 -103 115q-108 37 -156.5 82t-48.5 109q0 76 59 122q54 42 142 42q99 0 180 -56 z" />
<glyph unicode="T" horiz-adv-x="538" d="M215 556h-190v77h488v-77h-205v-556h-93v556z" />
<glyph unicode="U" horiz-adv-x="644" d="M554 265q0 -277 -232 -277t-232 277v368h94v-389q0 -176 138 -176t138 176v389h94v-368z" />
<glyph unicode="V" horiz-adv-x="561" d="M113 633l168 -491l167 491h98l-229 -633h-73l-229 633h98z" />
<glyph unicode="W" horiz-adv-x="854" d="M377 633h100l134 -491l130 491h98l-185 -633h-81q-71 216 -146 499q-75 -283 -146 -499h-81l-185 633h98l130 -491z" />
<glyph unicode="X" horiz-adv-x="585" d="M566 633l-208 -306l212 -327h-107l-166 270l-175 -270h-107l227 327l-195 306h107l151 -238l154 238h107z" />
<glyph unicode="Y" horiz-adv-x="551" d="M15 633h99l162 -308l161 308h99l-214 -384v-249h-92v249z" />
<glyph unicode="Z" horiz-adv-x="478" d="M446 552q-123 -176 -254 -391q-44 -72 -54 -84h315v-77h-428v71q100 144 248 378q61 97 70 107h-309v77h412v-81z" />
<glyph unicode="[" horiz-adv-x="349" d="M292 -140h-201v785h201v-70h-117v-645h117v-70z" />
<glyph unicode="\" horiz-adv-x="327" d="M277 -30l-315 663h75l315 -663h-75z" />
<glyph unicode="]" horiz-adv-x="349" d="M57 645h201v-785h-201v70h117v645h-117v70z" />
<glyph unicode="^" horiz-adv-x="428" d="M179 609h70l144 -296h-79l-101 204l-94 -204h-84z" />
<glyph unicode="_" horiz-adv-x="404" d="M399 -100h-394v70h394v-70z" />
<glyph unicode="`" horiz-adv-x="200" d="M118 532l-93 123h90l60 -123h-57z" />
<glyph unicode="a" horiz-adv-x="495" d="M422 0h-67l-10 47q-54 -59 -146 -59q-70 0 -110.5 38.5t-40.5 104.5q0 75 61.5 115.5t174.5 40.5h53v5q0 104 -105 104q-67 0 -125 -43l-26 46q78 67 179 67q162 0 162 -193v-273zM336 229h-44q-154 0 -154 -92q0 -38 22.5 -60t60.5 -22t71 19.5t44 49.5v105z" />
<glyph unicode="b" horiz-adv-x="549" d="M145 0h-67v599l86 46v-239q45 60 129 60q101 0 159 -74q49 -62 49 -156q0 -124 -72 -192q-58 -56 -141 -56q-40 0 -79 17.5t-54 41.5zM164 311v-180q7 -31 39 -54t69 -23q61 0 99 48t38 124q0 87 -40 133q-35 40 -90 40q-38 0 -71 -25t-44 -63z" />
<glyph unicode="c" horiz-adv-x="481" d="M439 46q-58 -58 -156 -58q-112 0 -178 74q-57 65 -57 163q0 110 74 180q64 61 155 61q88 0 155 -54l-24 -48q-53 36 -116 36q-67 0 -110 -50t-43 -128q0 -76 48 -124q44 -43 110 -43q68 0 115 41z" />
<glyph unicode="d" horiz-adv-x="549" d="M404 0l-13 48q-45 -60 -135 -60q-101 0 -159 74q-49 62 -49 156q0 124 72 192q58 56 141 56q76 0 124 -48v177l86 48v-643h-67zM385 143v180q-7 31 -39.5 54t-69.5 23q-61 0 -99 -48t-38 -124q0 -87 40 -133q35 -40 90 -40q38 0 71.5 25.5t44.5 62.5z" />
<glyph unicode="e" horiz-adv-x="512" d="M464 198h-320q7 -66 48 -104.5t105 -38.5q62 0 126 38l26 -49q-70 -56 -166 -56q-110 0 -175 69q-60 64 -60 168q0 106 65 177q59 64 145 64q105 0 161 -79q45 -63 45 -159v-30zM141 265h235q-2 65 -32.5 100.5t-82.5 35.5q-50 0 -82.5 -37t-37.5 -99z" />
<glyph unicode="f" horiz-adv-x="359" d="M42 384v70h67v64q0 127 116 127q64 0 119 -41l-30 -46q-34 20 -69 20q-50 0 -50 -66v-58h121v-70h-121v-384h-86v384h-67z" />
<glyph unicode="g" horiz-adv-x="549" d="M385 43v5q-45 -60 -129 -60q-101 0 -159 74q-49 62 -49 156q0 124 72 192q58 56 141 56q40 0 79 -17.5t54 -41.5l10 47h67v-411q0 -234 -205 -234q-89 0 -173 66l26 46q61 -42 136 -42q130 0 130 164zM385 143v180q-7 31 -39.5 54t-69.5 23q-61 0 -99 -48t-38 -124 q0 -87 40 -133q35 -40 90 -40q38 0 71.5 25.5t44.5 62.5z" />
<glyph unicode="h" horiz-adv-x="545" d="M164 645v-241q56 62 141 62q167 0 167 -196v-270h-86v265q0 127 -112 127q-31 0 -63 -15t-47 -36v-341h-86v599z" />
<glyph unicode="i" horiz-adv-x="246" d="M166 454v-454h-86v454h86zM73 594q0 21 15 36t36 15t36.5 -15t15.5 -36q0 -22 -15 -37t-37 -15t-36.5 15t-14.5 37z" />
<glyph unicode="j" horiz-adv-x="251" d="M171 454v-518q0 -127 -116 -127q-64 0 -119 41l30 46q34 -20 69 -20q50 0 50 66v512h86zM75 594q0 21 15 36t36 15t36.5 -15t15.5 -36q0 -22 -15 -37t-37 -15t-36.5 15t-14.5 37z" />
<glyph unicode="k" horiz-adv-x="456" d="M435 454l-206 -179l212 -275h-101l-176 240v-240h-86v599l86 46v-329l153 138h118z" />
<glyph unicode="l" horiz-adv-x="242" d="M164 645v-645h-86v599z" />
<glyph unicode="m" horiz-adv-x="853" d="M158 409h5q51 57 141 57q113 0 147 -81q58 81 165 81q164 0 164 -194v-272h-86v253q0 75 -26.5 107t-88.5 32t-113 -55q6 -28 6 -65v-272h-86v260q0 69 -27.5 100.5t-88.5 31.5q-29 0 -60 -15t-46 -36v-341h-86v454h72z" />
<glyph unicode="n" horiz-adv-x="545" d="M158 409h5q51 57 142 57q167 0 167 -196v-270h-86v265q0 127 -112 127q-31 0 -63 -15t-47 -36v-341h-86v454h72z" />
<glyph unicode="o" horiz-adv-x="538" d="M270 -12q-103 0 -167 77q-55 66 -55 161q0 110 67 178q60 62 154 62q108 0 170 -79q51 -66 51 -161q0 -109 -70 -178q-62 -60 -150 -60zM268 56q60 0 95.5 46t35.5 124q0 81 -38 129q-35 45 -92 45q-58 0 -94 -48t-36 -126q0 -84 40 -130q35 -40 89 -40z" />
<glyph unicode="p" horiz-adv-x="549" d="M78 454h67l10 -47q56 59 138 59q101 0 159 -74q49 -62 49 -156q0 -124 -72 -192q-58 -56 -141 -56q-79 0 -124 48v-215h-86v633zM164 313v-182q7 -31 39 -54t69 -23q61 0 99 48t38 124q0 87 -40 133q-35 40 -90 40q-37 0 -72 -26.5t-43 -59.5z" />
<glyph unicode="q" horiz-adv-x="549" d="M404 454h67v-633h-86v227q-45 -60 -129 -60q-101 0 -159 74q-49 62 -49 156q0 124 72 192q58 56 141 56q40 0 79 -17.5t54 -41.5zM385 143v180q-7 31 -39.5 54t-69.5 23q-61 0 -99 -48t-38 -124q0 -87 40 -133q35 -40 90 -40q38 0 71.5 25.5t44.5 62.5z" />
<glyph unicode="r" horiz-adv-x="407" d="M160 409h4q47 57 110 57q80 0 118 -62l-72 -45q-33 33 -72 33q-50 0 -84 -51v-341h-86v454h74z" />
<glyph unicode="s" horiz-adv-x="426" d="M325 372q-50 28 -110 28q-33 0 -53 -15.5t-20 -41.5q0 -29 18.5 -44.5t69.5 -29.5q77 -22 107 -47q41 -35 41 -99q0 -61 -44.5 -98t-117.5 -37q-97 0 -168 54l30 48q56 -35 125 -35q92 0 92 70q0 30 -19.5 45.5t-74.5 29.5q-146 36 -146 141q0 54 43.5 89.5t109.5 35.5 q84 0 147 -47z" />
<glyph unicode="t" horiz-adv-x="386" d="M196 384l-1 -264q0 -66 50 -66q35 0 69 20l30 -46q-55 -41 -119 -41q-116 0 -116 127v270h-67v70h68v93l86 45v-138h136v-70h-136z" />
<glyph unicode="u" horiz-adv-x="534" d="M370 454h86v-454h-66l-7 52h-6q-23 -28 -62.5 -46t-77.5 -18q-159 0 -159 194v272h86v-253q0 -139 100 -139q29 0 60 15t46 36v341z" />
<glyph unicode="v" horiz-adv-x="457" d="M266 0h-78l-173 454h90l122 -350l123 350h92z" />
<glyph unicode="w" horiz-adv-x="700" d="M252 0h-85l-152 454h90l104 -351l95 351h94l91 -351l105 351h91l-155 -454h-85l-95 345z" />
<glyph unicode="x" horiz-adv-x="445" d="M428 454l-154 -220l159 -234h-95l-114 172l-119 -172h-95l169 231l-143 223h95l95 -157l107 157h95z" />
<glyph unicode="y" horiz-adv-x="471" d="M456 454l-195 -522q-47 -123 -127 -123q-54 0 -112 43l26 44q34 -20 59 -20q46 0 73 66l23 58h-18l-170 454h89l129 -360l133 360h90z" />
<glyph unicode="z" horiz-adv-x="421" d="M396 0h-371v73l262 311h-246v70h349v-73l-262 -311h268v-70z" />
<glyph unicode="{" horiz-adv-x="390" d="M48 219v69q47 0 75.5 37t28.5 98v51q0 97 32.5 133.5t118.5 36.5h30v-70h-30q-42 0 -54.5 -19t-12.5 -81v-51q0 -67 -21.5 -106.5t-71.5 -63.5q50 -23 71.5 -62t21.5 -107v-53q0 -62 12.5 -81t54.5 -19h30v-70h-30q-95 0 -126 46q-25 37 -25 124v53q0 61 -28.5 98 t-75.5 37z" />
<glyph unicode="|" horiz-adv-x="260" d="M170 662v-841h-80v841h80z" />
<glyph unicode="}" horiz-adv-x="390" d="M342 288v-69q-47 0 -75.5 -37t-28.5 -98v-53q0 -97 -32.5 -133.5t-118.5 -36.5h-30v70h30q42 0 54.5 19t12.5 81v53q0 68 21.5 107t71.5 62q-50 24 -71.5 63.5t-21.5 106.5v51q0 62 -12.5 81t-54.5 19h-30v70h30q95 0 126 -46q25 -37 25 -124v-51q0 -61 28.5 -98 t75.5 -37z" />
<glyph unicode="~" horiz-adv-x="495" d="M453 275q-25 -93 -97 -93q-33 0 -104 29q-12 5 -31 14q-42 18 -70 18q-40 0 -70 -55l-39 27q30 95 107 95q37 0 116 -35q58 -26 82 -26q41 0 62 54z" />
<glyph unicode="&#xa1;" horiz-adv-x="238" d="M74 296h86v-474h-86v474zM67 416q0 52 53 52t53 -53q0 -52 -53 -52q-51 0 -53 50v3z" />
<glyph unicode="&#xa2;" horiz-adv-x="481" d="M296 -12v-40h-40v41q-101 9 -158 81q-50 63 -50 155q0 103 66 172q58 60 142 68v47h40v-47q73 -3 136 -53l-24 -48q-52 35 -112 36v-345h1q68 0 115 41l27 -50q-53 -53 -143 -58zM256 395q-54 -13 -85.5 -60t-31.5 -113q0 -60 32 -104.5t85 -57.5v335z" />
<glyph unicode="&#xa3;" horiz-adv-x="483" d="M362 303h-157v-226h235v-77h-396v77h68v226h-70v70h70v56q2 216 186 216q84 0 170 -69l-37 -56q-68 45 -123 45q-103 0 -103 -129v-63h157v-70z" />
<glyph unicode="&#xa4;" horiz-adv-x="482" d="M337 169q-41 -27 -97 -27q-58 0 -98 27l-73 -72q-3 -3 -8 -3q-10 0 -24.5 14.5t-15.5 25.5q0 5 3 8l71 69q-30 45 -30 99q0 56 32 101l-73 72q-3 3 -3 8q0 10 14.5 24.5t25.5 14.5q4 0 7 -3l75 -74q43 27 97 27q52 0 97 -27l75 73q3 4 8 4q12 0 25 -13t13 -24q0 -5 -3 -8 l-73 -73q31 -45 31 -102q0 -54 -31 -98l74 -72q3 -3 3 -8q0 -12 -13.5 -26.5t-24.5 -14.5q-5 0 -8 3zM241 208q46 0 72 27.5t26 75.5q0 49 -26 76.5t-72 27.5t-74.5 -28.5t-28.5 -75.5t28 -75t75 -28z" />
<glyph unicode="&#xa5;" horiz-adv-x="490" d="M195 0v154h-101v54h101v41h-101v60h99l-161 324h88l125 -243l123 243h89l-164 -324h103v-60h-105v-41h105v-54h-105v-154h-96z" />
<glyph unicode="&#xa6;" horiz-adv-x="236" d="M78 229h80v-409h-80v409zM158 662v-375h-80v375h80z" />
<glyph unicode="&#xa7;" horiz-adv-x="462" d="M344 132q56 -43 56 -120q0 -66 -49 -109t-124 -43q-92 0 -161 51l30 46q52 -28 114 -28q103 0 103 90q0 64 -96 91q-167 48 -167 157q0 88 83 122q-64 48 -64 118q0 62 45 100t118 38q84 0 147 -47l-30 -47q-50 28 -110 28q-38 0 -60.5 -18t-22.5 -48q0 -67 108 -104 q80 -28 114 -66.5t34 -99.5q0 -76 -68 -111zM174 364q-39 -28 -39 -82q4 -42 29 -66t84 -41q25 -7 49 -17q2 0 3 1q29 27 29 77q0 38 -20 61t-69 40q-36 12 -66 27z" />
<glyph unicode="&#xa8;" horiz-adv-x="336" d="M34 594q0 21 15 36t37 15q20 0 35.5 -15.5t15.5 -35.5q0 -22 -15 -37t-36 -15q-23 0 -37.5 14.5t-14.5 37.5zM196 594q0 21 15 36t36 15t36.5 -15t15.5 -36q0 -22 -15 -37t-37 -15t-36.5 15t-14.5 37z" />
<glyph unicode="&#xa9;" horiz-adv-x="699" d="M481 459l-18 -38q-41 28 -93 28q-54 0 -88 -39.5t-34 -101.5q0 -59 35.5 -96.5t91.5 -37.5q52 0 91 33l21 -40q-47 -46 -124 -46q-89 0 -142 59q-45 51 -45 130q0 87 59 143q51 49 123 49q73 0 123 -43zM48 315q0 133 100 224q86 78 201 78q134 0 224 -100 q78 -86 78 -202q0 -133 -100 -223q-86 -78 -202 -78q-133 0 -223 100q-78 86 -78 201zM113 314q0 -107 78 -178q67 -61 160 -61q107 0 178 78q62 68 62 161q0 107 -79 178q-68 61 -161 61q-108 0 -178 -78q-60 -68 -60 -161z" />
<glyph unicode="&#xaa;" horiz-adv-x="268" d="M236 406h-45l-4 30q-27 -36 -70 -36q-37 0 -60.5 20.5t-23.5 52.5q0 38 32.5 59.5t89.5 21.5h27v2q0 46 -48 46q-31 0 -70 -28l-13 37q43 34 92 34q93 0 93 -101v-138zM181 518h-16q-75 0 -75 -42q0 -31 33 -31q46 0 58 45v28z" />
<glyph unicode="&#xab;" horiz-adv-x="545" d="M279 12q-65 10 -128.5 71t-100.5 148q37 87 100.5 148.5t128.5 71.5v-77q-94 -45 -141 -143q47 -97 141 -142v-77zM505 12q-65 10 -128.5 71t-100.5 148q37 87 100.5 148.5t128.5 71.5v-77q-95 -45 -140 -143q46 -99 140 -142v-77z" />
<glyph unicode="&#xac;" horiz-adv-x="477" d="M342 0v153h-300v78h393v-231h-93z" />
<glyph unicode="&#xad;" horiz-adv-x="290" d="M265 204h-240v70h240v-70z" />
<glyph unicode="&#xae;" horiz-adv-x="413" d="M205 470h-14v-60h-40v157h63q55 0 55 -47q0 -31 -26 -43l35 -67h-47zM205 537h-14v-39h14q24 0 24 20q0 19 -24 19zM45 484q0 71 54 120q46 41 108 41q72 0 120 -53q41 -46 41 -108q0 -72 -53 -120q-46 -42 -108 -42q-72 0 -120 54q-42 46 -42 108zM85 484 q0 -52 35.5 -87.5t86.5 -35.5t87 36t36 87q0 50 -36 86t-87 36t-86.5 -35.5t-35.5 -86.5z" />
<glyph unicode="&#xaf;" horiz-adv-x="246" d="M230 568h-214v65h214v-65z" />
<glyph unicode="&#xb0;" horiz-adv-x="280" d="M25 536q0 51 31.5 83.5t82.5 32.5q52 0 84 -32t32 -84q0 -51 -32 -82.5t-84 -31.5q-50 0 -82 32t-32 82zM66 536q0 -33 19.5 -52.5t52.5 -19.5q76 0 76 72q0 75 -76 75q-72 0 -72 -75z" />
<glyph unicode="&#xb1;" horiz-adv-x="518" d="M219 242h-177v70h177v142h80v-142h177v-70h-177v-142h-80v142zM476 0h-434v70h434v-70z" />
<glyph unicode="&#xb2;" horiz-adv-x="377" d="M61 316v60l112 84q53 46 53 77q0 48 -59 48q-40 0 -77 -30l-34 36q58 54 124 54q53 0 86 -28.5t33 -74.5q0 -65 -68 -118l-61 -48h125v-60h-234z" />
<glyph unicode="&#xb3;" horiz-adv-x="394" d="M142 457v59h51q45 0 45 34q0 35 -48 35q-37 0 -80 -24l-32 34q54 50 121 50q112 0 112 -91q0 -24 -17 -42t-43 -21q65 -17 65 -85q0 -40 -35 -66t-89 -26q-61 0 -114 49l34 36q39 -25 75 -25q56 0 56 41q0 42 -53 42h-48z" />
<glyph unicode="&#xb4;" horiz-adv-x="200" d="M175 655l-93 -123h-57l60 123h90z" />
<glyph unicode="&#xb5;" horiz-adv-x="578" d="M164 2v-181h-86v633h86v-253q0 -139 100 -139q29 0 60 15t46 36v341h86v-349q0 -30 6 -40.5t24 -10.5q15 0 37 20l30 -46q-44 -41 -87 -41q-75 0 -90 64q-23 -27 -62.5 -45t-76.5 -18q-40 0 -73 14z" />
<glyph unicode="&#xb6;" horiz-adv-x="476" d="M386 0h-50v633h50v-633zM255 0v359h-43q-166 0 -166 134q0 66 41.5 103t115.5 37h103v-633h-51z" />
<glyph unicode="&#xb7;" horiz-adv-x="187" d="M39 365q0 21 15.5 36.5t36.5 15.5q24 0 40.5 -15t16.5 -37q0 -57 -57 -57q-23 0 -37.5 16t-14.5 41z" />
<glyph unicode="&#xb8;" horiz-adv-x="219" d="M60 -55l15 65h54l-12 -38q9 1 17 1q60 0 60 -59q0 -33 -26 -53.5t-67 -20.5q-39 0 -76 16l13 39q35 -11 59 -11q40 0 40 30q0 33 -44 33q-16 0 -33 -2z" />
<glyph unicode="&#xb9;" horiz-adv-x="306" d="M228 633v-315h-70v230l-79 -72l-44 46l117 111h76z" />
<glyph unicode="&#xba;" horiz-adv-x="291" d="M145 400q-48 0 -80 35t-32 87q0 55 31 89t81 34t81.5 -34.5t31.5 -88.5q0 -53 -32 -87.5t-81 -34.5zM144 444q57 0 57 78q0 79 -56 79q-54 0 -54 -79q0 -78 53 -78z" />
<glyph unicode="&#xbb;" horiz-adv-x="545" d="M40 12v77q93 43 141 142q-47 98 -141 143v77q65 -10 128.5 -71.5t100.5 -148.5q-37 -87 -100.5 -148t-128.5 -71zM266 12v77q94 43 141 142q-45 98 -141 143v77q66 -10 129.5 -71.5t99.5 -148.5q-36 -87 -100 -148t-129 -71z" />
<glyph unicode="&#xbc;" horiz-adv-x="862" d="M494 127l161 191h71v-196h58v-60h-58v-62h-70v62h-162v65zM571 122h85v108zM271 633v-315h-70v230l-79 -72l-44 46l117 111h76zM652 633l-384 -663h-62l384 663h62z" />
<glyph unicode="&#xbd;" horiz-adv-x="861" d="M271 633v-315h-70v230l-79 -72l-44 46l117 111h76zM545 0v60l112 84q53 46 53 77q0 48 -59 48q-40 0 -77 -30l-34 36q58 54 124 54q53 0 86 -28.5t33 -74.5q0 -65 -68 -118l-61 -48h125v-60h-234zM642 633l-384 -663h-62l384 663h62z" />
<glyph unicode="&#xbe;" horiz-adv-x="894" d="M513 127l162 191h70v-196h58v-60h-58v-62h-70v62h-162v65zM590 122h85v108zM142 457v59h51q45 0 45 34q0 35 -48 35q-37 0 -80 -24l-32 34q54 50 121 50q112 0 112 -91q0 -24 -17 -42t-43 -21q65 -17 65 -85q0 -40 -35 -66t-89 -26q-61 0 -114 49l34 36q39 -25 75 -25 q56 0 56 41q0 42 -53 42h-48zM655 633l-384 -663h-62l384 663h62z" />
<glyph unicode="&#xbf;" horiz-adv-x="403" d="M199 313h86v-95q0 -41 -11.5 -61.5t-53.5 -53.5q-82 -66 -82 -133q0 -41 26 -65.5t70 -24.5q42 0 96 32l31 -50q-73 -54 -153 -54q-69 0 -112.5 43t-43.5 111q0 97 78 162q3 2 9 7l6 6q36 29 45 45t9 52v79zM294 408q0 -21 -15.5 -36.5t-36.5 -15.5q-24 0 -40.5 15 t-16.5 37q0 57 57 57q23 0 37.5 -16t14.5 -41z" />
<glyph unicode="&#xc0;" horiz-adv-x="576" d="M244 633h88l229 -633h-95l-48 143h-259l-49 -143h-95zM288 521l-103 -301h206zM255 700l-93 123h90l60 -123h-57z" />
<glyph unicode="&#xc1;" horiz-adv-x="576" d="M244 633h88l229 -633h-95l-48 143h-259l-49 -143h-95zM288 521l-103 -301h206zM412 823l-93 -123h-57l60 123h90z" />
<glyph unicode="&#xc2;" horiz-adv-x="576" d="M332 633l229 -633h-95l-48 143h-259l-49 -143h-95l229 633h88zM185 220h206l-103 301zM259 823h58l85 -123h-67l-46 70h-3l-47 -70h-66z" />
<glyph unicode="&#xc3;" horiz-adv-x="576" d="M332 633l229 -633h-95l-48 143h-259l-49 -143h-95l229 633h88zM185 220h206l-103 301zM428 787q-24 -85 -83 -85q-25 0 -60 20q-2 1 -5 3l-4 2q-28 17 -43 17q-37 0 -53 -44l-33 22q24 85 86 85q26 0 72 -26q2 -1 6 -4q24 -14 34 -14q26 0 49 47z" />
<glyph unicode="&#xc4;" horiz-adv-x="576" d="M244 633h88l229 -633h-95l-48 143h-259l-49 -143h-95zM288 521l-103 -301h206zM153 762q0 21 15 36t37 15q20 0 35.5 -15.5t15.5 -35.5q0 -22 -15 -37t-36 -15q-23 0 -37.5 14.5t-14.5 37.5zM315 762q0 21 15 36t36 15t36.5 -15t15.5 -36q0 -22 -15 -37t-37 -15t-36.5 15 t-14.5 37z" />
<glyph unicode="&#xc5;" horiz-adv-x="576" d="M332 633l229 -633h-95l-48 143h-259l-49 -143h-95l229 633h88zM185 220h206l-103 301zM289 656q-33 0 -57 23.5t-24 57.5t24 57.5t57 23.5q34 0 58 -23.5t24 -57.5t-24 -57.5t-58 -23.5zM289 705q33 2 33 32q0 32 -33 32q-32 0 -32 -32q0 -30 32 -32z" />
<glyph unicode="&#xc6;" horiz-adv-x="812" d="M754 633v-77h-293v-189h246v-77h-246v-213h306v-77h-399v143h-200l-58 -143h-95l271 633h468zM339 556l-139 -336h168v336h-29z" />
<glyph unicode="&#xc7;" horiz-adv-x="566" d="M302 -10q-129 11 -199 119q-55 85 -55 201q0 140 77 239q76 96 193 96q104 0 190 -69l-37 -56q-68 45 -135 45q-91 0 -143 -75q-47 -68 -47 -180q0 -111 59 -178q54 -62 140 -62q65 0 134 47l37 -56q-74 -64 -162 -72l-5 -17q9 1 17 1q60 0 60 -59q0 -33 -26 -53.5 t-67 -20.5q-39 0 -76 16l13 39q35 -11 59 -11q40 0 40 30q0 33 -44 33q-16 0 -33 -2z" />
<glyph unicode="&#xc8;" horiz-adv-x="526" d="M82 633h386v-77h-293v-189h246v-77h-246v-213h306v-77h-399v633zM271 701l-93 123h90l60 -123h-57z" />
<glyph unicode="&#xc9;" horiz-adv-x="526" d="M82 633h386v-77h-293v-189h246v-77h-246v-213h306v-77h-399v633zM367 819l-93 -123h-57l60 123h90z" />
<glyph unicode="&#xca;" horiz-adv-x="526" d="M82 633h386v-77h-293v-189h246v-77h-246v-213h306v-77h-399v633zM246 823h58l85 -123h-67l-46 70h-3l-47 -70h-66z" />
<glyph unicode="&#xcb;" horiz-adv-x="526" d="M82 633h386v-77h-293v-189h246v-77h-246v-213h306v-77h-399v633zM145 762q0 21 15 36t37 15q20 0 35.5 -15.5t15.5 -35.5q0 -22 -15 -37t-36 -15q-23 0 -37.5 14.5t-14.5 37.5zM307 762q0 21 15 36t36 15t36.5 -15t15.5 -36q0 -22 -15 -37t-37 -15t-36.5 15t-14.5 37z " />
<glyph unicode="&#xcc;" horiz-adv-x="272" d="M182 633v-633h-92v633h92zM107 700l-93 123h90l60 -123h-57z" />
<glyph unicode="&#xcd;" horiz-adv-x="272" d="M182 633v-633h-92v633h92zM259 823l-93 -123h-57l60 123h90z" />
<glyph unicode="&#xce;" horiz-adv-x="272" d="M182 0h-92v633h92v-633zM110 834h58l85 -123h-67l-46 70h-3l-47 -70h-66z" />
<glyph unicode="&#xcf;" horiz-adv-x="272" d="M182 633v-633h-92v633h92zM4 762q0 21 15 36t37 15q20 0 35.5 -15.5t15.5 -35.5q0 -22 -15 -37t-36 -15q-23 0 -37.5 14.5t-14.5 37.5zM166 762q0 21 15 36t36 15t36.5 -15t15.5 -36q0 -22 -15 -37t-37 -15t-36.5 15t-14.5 37z" />
<glyph unicode="&#xd0;" horiz-adv-x="655" d="M118 292h-77v70h77v270q75 13 159 13q165 0 253 -99q75 -84 75 -223q0 -169 -94 -257q-83 -78 -228 -78q-90 0 -165 13v291zM211 69q32 -7 72 -7q113 0 171 72q53 66 53 185q0 128 -74 196q-60 56 -153 56q-41 0 -69 -7v-202h150v-70h-150v-223z" />
<glyph unicode="&#xd1;" horiz-adv-x="675" d="M182 479v-479h-92v633h81q200 -290 321 -490v490h93v-633h-83q-102 141 -320 479zM475 778q-24 -85 -83 -85q-25 0 -60 20q-2 1 -5 3l-4 2q-28 17 -43 17q-37 0 -53 -44l-33 22q24 85 86 85q26 0 72 -26q2 -1 6 -4q24 -14 34 -14q26 0 49 47z" />
<glyph unicode="&#xd2;" horiz-adv-x="654" d="M327 -12q-141 0 -217 111q-60 88 -60 214q0 148 79 242q75 90 198 90q140 0 217 -115q60 -90 60 -217q0 -147 -79 -238q-75 -87 -198 -87zM327 68q93 0 140 77q39 64 39 168q0 121 -51 189q-47 63 -128 63q-92 0 -140 -81q-39 -66 -39 -171q0 -120 51 -185 q47 -60 128 -60zM319 699l-93 123h90l60 -123h-57z" />
<glyph unicode="&#xd3;" horiz-adv-x="654" d="M327 -12q-141 0 -217 111q-60 88 -60 214q0 148 79 242q75 90 198 90q140 0 217 -115q60 -90 60 -217q0 -147 -79 -238q-75 -87 -198 -87zM327 68q93 0 140 77q39 64 39 168q0 121 -51 189q-47 63 -128 63q-92 0 -140 -81q-39 -66 -39 -171q0 -120 51 -185 q47 -60 128 -60zM449 822l-93 -123h-57l60 123h90z" />
<glyph unicode="&#xd4;" horiz-adv-x="654" d="M327 -12q-141 0 -217 111q-60 88 -60 214q0 148 79 242q75 90 198 90q140 0 217 -115q60 -90 60 -217q0 -147 -79 -238q-75 -87 -198 -87zM327 68q93 0 140 77q39 64 39 168q0 121 -51 189q-47 63 -128 63q-92 0 -140 -81q-39 -66 -39 -171q0 -120 51 -185 q47 -60 128 -60zM306 822h58l85 -123h-67l-46 70h-3l-47 -70h-66z" />
<glyph unicode="&#xd5;" horiz-adv-x="654" d="M327 -12q-141 0 -217 111q-60 88 -60 214q0 148 79 242q75 90 198 90q140 0 217 -115q60 -90 60 -217q0 -147 -79 -238q-75 -87 -198 -87zM327 68q93 0 140 77q39 64 39 168q0 121 -51 189q-47 63 -128 63q-92 0 -140 -81q-39 -66 -39 -171q0 -120 51 -185 q47 -60 128 -60zM469 787q-24 -85 -83 -85q-25 0 -60 20q-2 1 -5 3l-4 2q-28 17 -43 17q-37 0 -53 -44l-33 22q24 85 86 85q26 0 72 -26q2 -1 6 -4q24 -14 34 -14q26 0 49 47z" />
<glyph unicode="&#xd6;" horiz-adv-x="654" d="M327 -12q-141 0 -217 111q-60 88 -60 214q0 148 79 242q75 90 198 90q140 0 217 -115q60 -90 60 -217q0 -147 -79 -238q-75 -87 -198 -87zM327 68q93 0 140 77q39 64 39 168q0 121 -51 189q-47 63 -128 63q-92 0 -140 -81q-39 -66 -39 -171q0 -120 51 -185 q47 -60 128 -60zM193 762q0 21 15 36t37 15q20 0 35.5 -15.5t15.5 -35.5q0 -22 -15 -37t-36 -15q-23 0 -37.5 14.5t-14.5 37.5zM355 762q0 21 15 36t36 15t36.5 -15t15.5 -36q0 -22 -15 -37t-37 -15t-36.5 15t-14.5 37z" />
<glyph unicode="&#xd7;" horiz-adv-x="501" d="M256 178l-172 -178l-55 55l175 177l-164 172l53 53l160 -172l165 174l53 -55l-166 -173l164 -180l-52 -51z" />
<glyph unicode="&#xd8;" horiz-adv-x="654" d="M508 573q96 -94 96 -260q0 -147 -79 -238q-75 -87 -198 -87q-51 0 -97 16l-17 -34h-75l32 66q-57 42 -88.5 115t-31.5 162q0 148 79 242q75 90 198 90q70 0 126 -31l15 31h75zM416 539q-39 26 -89 26q-92 0 -140 -81q-39 -66 -39 -171q0 -133 61 -197zM266 78 q30 -10 61 -10q93 0 140 77q39 64 39 168q0 106 -41 173z" />
<glyph unicode="&#xd9;" horiz-adv-x="644" d="M554 265q0 -277 -232 -277t-232 277v368h94v-389q0 -176 138 -176t138 176v389h94v-368zM295 699l-93 123h90l60 -123h-57z" />
<glyph unicode="&#xda;" horiz-adv-x="644" d="M554 265q0 -277 -232 -277t-232 277v368h94v-389q0 -176 138 -176t138 176v389h94v-368zM428 822l-93 -123h-57l60 123h90z" />
<glyph unicode="&#xdb;" horiz-adv-x="644" d="M90 265v368h94v-389q0 -176 138 -176t138 176v389h94v-368q0 -277 -232 -277t-232 277zM293 822h58l85 -123h-67l-46 70h-3l-47 -70h-66z" />
<glyph unicode="&#xdc;" horiz-adv-x="644" d="M90 265v368h94v-389q0 -176 138 -176t138 176v389h94v-368q0 -277 -232 -277t-232 277zM188 763q0 21 15 36t37 15q20 0 35.5 -15.5t15.5 -35.5q0 -22 -15 -37t-36 -15q-23 0 -37.5 14.5t-14.5 37.5zM350 763q0 21 15 36t36 15t36.5 -15t15.5 -36q0 -22 -15 -37t-37 -15 t-36.5 15t-14.5 37z" />
<glyph unicode="&#xdd;" horiz-adv-x="551" d="M15 633h99l162 -308l161 308h99l-214 -384v-249h-92v249zM390 818l-93 -123h-57l60 123h90z" />
<glyph unicode="&#xde;" horiz-adv-x="533" d="M90 0v633h92v-108q45 8 70 8q230 0 230 -194q0 -105 -70 -159q-57 -44 -146 -44q-43 0 -83 7v-143h-93zM183 452v-234q40 -7 83 -7q118 0 118 128q0 120 -127 120q-46 0 -74 -7z" />
<glyph unicode="&#xdf;" horiz-adv-x="510" d="M320 336q142 -38 142 -168q0 -95 -68 -145q-48 -35 -108 -35q-44 0 -90 22l19 56l2 -1q2 0 3 -1q32 -10 52 -10q41 0 65.5 32t24.5 84q0 65 -24.5 93t-82.5 28h-35v76h32q92 0 92 113q0 44 -26 71.5t-67 27.5t-64 -26.5t-23 -72.5v-480h-86v466q0 179 174 179 q90 0 142 -54q43 -45 43 -110q0 -52 -31.5 -91t-85.5 -54z" />
<glyph unicode="&#xe0;" horiz-adv-x="495" d="M422 0h-67l-10 47q-54 -59 -146 -59q-70 0 -110.5 38.5t-40.5 104.5q0 75 61.5 115.5t174.5 40.5h53v5q0 104 -105 104q-67 0 -125 -43l-26 46q78 67 179 67q162 0 162 -193v-273zM336 229h-44q-154 0 -154 -92q0 -38 22.5 -60t60.5 -22t71 19.5t44 49.5v105zM235 527 l-93 123h90l60 -123h-57z" />
<glyph unicode="&#xe1;" horiz-adv-x="495" d="M422 0h-67l-10 47q-54 -59 -146 -59q-70 0 -110.5 38.5t-40.5 104.5q0 75 61.5 115.5t174.5 40.5h53v5q0 104 -105 104q-67 0 -125 -43l-26 46q78 67 179 67q162 0 162 -193v-273zM336 229h-44q-154 0 -154 -92q0 -38 22.5 -60t60.5 -22t71 19.5t44 49.5v105zM355 650 l-93 -123h-57l60 123h90z" />
<glyph unicode="&#xe2;" horiz-adv-x="495" d="M422 0h-67l-10 47q-54 -59 -146 -59q-70 0 -110.5 38.5t-40.5 104.5q0 75 61.5 115.5t174.5 40.5h53v5q0 104 -105 104q-67 0 -125 -43l-26 46q78 67 179 67q162 0 162 -193v-273zM336 229h-44q-154 0 -154 -92q0 -38 22.5 -60t60.5 -22t71 19.5t44 49.5v105zM226 655h58 l85 -123h-67l-46 70h-3l-47 -70h-66z" />
<glyph unicode="&#xe3;" horiz-adv-x="495" d="M422 0h-67l-10 47q-54 -59 -146 -59q-70 0 -110.5 38.5t-40.5 104.5q0 75 61.5 115.5t174.5 40.5h53v5q0 104 -105 104q-67 0 -125 -43l-26 46q78 67 179 67q162 0 162 -193v-273zM336 229h-44q-154 0 -154 -92q0 -38 22.5 -60t60.5 -22t71 19.5t44 49.5v105zM390 621 q-24 -85 -83 -85q-25 0 -60 20q-2 1 -5 3l-4 2q-28 17 -43 17q-37 0 -53 -44l-33 22q24 85 86 85q26 0 72 -26q2 -1 6 -4q24 -14 34 -14q26 0 49 47z" />
<glyph unicode="&#xe4;" horiz-adv-x="495" d="M422 0h-67l-10 47q-54 -59 -146 -59q-70 0 -110.5 38.5t-40.5 104.5q0 75 61.5 115.5t174.5 40.5h53v5q0 104 -105 104q-67 0 -125 -43l-26 46q78 67 179 67q162 0 162 -193v-273zM336 229h-44q-154 0 -154 -92q0 -38 22.5 -60t60.5 -22t71 19.5t44 49.5v105zM127 594 q0 21 15 36t37 15q20 0 35.5 -15.5t15.5 -35.5q0 -22 -15 -37t-36 -15q-23 0 -37.5 14.5t-14.5 37.5zM289 594q0 21 15 36t36 15t36.5 -15t15.5 -36q0 -22 -15 -37t-37 -15t-36.5 15t-14.5 37z" />
<glyph unicode="&#xe5;" horiz-adv-x="495" d="M422 0h-67l-10 47q-54 -59 -146 -59q-70 0 -110.5 38.5t-40.5 104.5q0 75 61.5 115.5t174.5 40.5h53v5q0 104 -105 104q-67 0 -125 -43l-26 46q78 67 179 67q162 0 162 -193v-273zM336 229h-44q-154 0 -154 -92q0 -38 22.5 -60t60.5 -22t71 19.5t44 49.5v105zM252 505 q-34 0 -57.5 24t-23.5 57q0 34 23.5 58t57.5 24q33 0 57 -24t24 -58q0 -33 -24 -57t-57 -24zM252 554q32 3 32 32q0 33 -32 33t-32 -33q0 -30 32 -32z" />
<glyph unicode="&#xe6;" horiz-adv-x="795" d="M747 198h-318l3 -31q31 -112 148 -112q62 0 126 38l26 -49q-70 -56 -166 -56q-130 0 -191 94h-1q-61 -94 -175 -94q-70 0 -110.5 38.5t-40.5 104.5q0 75 61.5 115.5t174.5 40.5h53v5q0 104 -105 104q-67 0 -125 -43l-26 46q78 67 179 67q93 0 134 -70q57 70 147 70 q105 0 161 -79q45 -63 45 -159v-30zM336 229h-44q-154 0 -154 -92q0 -38 22.5 -60t60.5 -22t71 19.5t44 49.5v105zM424 265h235q-2 65 -32.5 100.5t-82.5 35.5q-50 0 -82.5 -37t-37.5 -99z" />
<glyph unicode="&#xe7;" horiz-adv-x="481" d="M246 -55l10 44q-101 9 -158 81q-50 63 -50 155q0 110 74 180q64 61 155 61q88 0 155 -54l-24 -48q-53 36 -116 36q-67 0 -110 -50t-43 -128q0 -76 48 -124q44 -43 110 -43q68 0 115 41l27 -50q-49 -49 -131 -57l-5 -17q9 1 17 1q60 0 60 -59q0 -33 -26 -53.5t-67 -20.5 q-39 0 -76 16l13 39q35 -11 59 -11q40 0 40 30q0 33 -44 33q-16 0 -33 -2z" />
<glyph unicode="&#xe8;" horiz-adv-x="512" d="M464 198h-320q7 -66 48 -104.5t105 -38.5q62 0 126 38l26 -49q-70 -56 -166 -56q-110 0 -175 69q-60 64 -60 168q0 106 65 177q59 64 145 64q105 0 161 -79q45 -63 45 -159v-30zM141 265h235q-2 65 -32.5 100.5t-82.5 35.5q-50 0 -82.5 -37t-37.5 -99zM233 532l-93 123 h90l60 -123h-57z" />
<glyph unicode="&#xe9;" horiz-adv-x="512" d="M464 198h-320q7 -66 48 -104.5t105 -38.5q62 0 126 38l26 -49q-70 -56 -166 -56q-110 0 -175 69q-60 64 -60 168q0 106 65 177q59 64 145 64q105 0 161 -79q45 -63 45 -159v-30zM141 265h235q-2 65 -32.5 100.5t-82.5 35.5q-50 0 -82.5 -37t-37.5 -99zM377 655l-93 -123 h-57l60 123h90z" />
<glyph unicode="&#xea;" horiz-adv-x="512" d="M464 198h-320q7 -66 48 -104.5t105 -38.5q62 0 126 38l26 -49q-70 -56 -166 -56q-110 0 -175 69q-60 64 -60 168q0 106 65 177q59 64 145 64q105 0 161 -79q45 -63 45 -159v-30zM141 265h235q-2 65 -32.5 100.5t-82.5 35.5q-50 0 -82.5 -37t-37.5 -99zM225 655h58 l85 -123h-67l-46 70h-3l-47 -70h-66z" />
<glyph unicode="&#xeb;" horiz-adv-x="512" d="M464 198h-320q7 -66 48 -104.5t105 -38.5q62 0 126 38l26 -49q-70 -56 -166 -56q-110 0 -175 69q-60 64 -60 168q0 106 65 177q59 64 145 64q105 0 161 -79q45 -63 45 -159v-30zM141 265h235q-2 65 -32.5 100.5t-82.5 35.5q-50 0 -82.5 -37t-37.5 -99zM125 594 q0 21 15 36t37 15q20 0 35.5 -15.5t15.5 -35.5q0 -22 -15 -37t-36 -15q-23 0 -37.5 14.5t-14.5 37.5zM287 594q0 21 15 36t36 15t36.5 -15t15.5 -36q0 -22 -15 -37t-37 -15t-36.5 15t-14.5 37z" />
<glyph unicode="&#xec;" horiz-adv-x="281" d="M184 454v-454h-86v454h86zM105 532l-93 123h90l60 -123h-57z" />
<glyph unicode="&#xed;" horiz-adv-x="273" d="M263 655l-93 -123h-57l60 123h90zM184 454v-454h-86v454h86z" />
<glyph unicode="&#xee;" horiz-adv-x="281" d="M184 454v-454h-86v454h86zM114 655h58l85 -123h-67l-46 70h-3l-47 -70h-66z" />
<glyph unicode="&#xef;" horiz-adv-x="281" d="M184 454v-454h-86v454h86zM9 594q0 21 15 36t37 15q20 0 35.5 -15.5t15.5 -35.5q0 -22 -15 -37t-36 -15q-23 0 -37.5 14.5t-14.5 37.5zM171 594q0 21 15 36t36 15t36.5 -15t15.5 -36q0 -22 -15 -37t-37 -15t-36.5 15t-14.5 37z" />
<glyph unicode="&#xf0;" horiz-adv-x="503" d="M147 614l45 31q69 -12 128 -50l104 53l44 -43l-99 -50q95 -97 95 -262q0 -137 -56 -219q-57 -86 -163 -86q-99 0 -155 81q-42 60 -42 135q0 115 73 170q50 38 119 38q77 0 128 -53q-10 112 -64 162l-117 -59l-44 43l113 58q-41 28 -109 51zM369 290q-40 54 -112 54 q-55 0 -85 -37t-30 -103q0 -145 98 -145q62 0 96 53.5t34 151.5q0 13 -1 26z" />
<glyph unicode="&#xf1;" horiz-adv-x="545" d="M158 409h5q51 57 142 57q167 0 167 -196v-270h-86v265q0 127 -112 127q-31 0 -63 -15t-47 -36v-341h-86v454h72zM408 635q-24 -85 -83 -85q-25 0 -60 20q-2 1 -5 3l-4 2q-28 17 -43 17q-37 0 -53 -44l-33 22q24 85 86 85q26 0 72 -26q2 -1 6 -4q24 -14 34 -14q26 0 49 47 z" />
<glyph unicode="&#xf2;" horiz-adv-x="538" d="M270 -12q-103 0 -167 77q-55 66 -55 161q0 110 67 178q60 62 154 62q108 0 170 -79q51 -66 51 -161q0 -109 -70 -178q-62 -60 -150 -60zM268 56q60 0 95.5 46t35.5 124q0 81 -38 129q-35 45 -92 45q-58 0 -94 -48t-36 -126q0 -84 40 -130q35 -40 89 -40zM245 532l-93 123 h90l60 -123h-57z" />
<glyph unicode="&#xf3;" horiz-adv-x="538" d="M270 -12q-103 0 -167 77q-55 66 -55 161q0 110 67 178q60 62 154 62q108 0 170 -79q51 -66 51 -161q0 -109 -70 -178q-62 -60 -150 -60zM268 56q60 0 95.5 46t35.5 124q0 81 -38 129q-35 45 -92 45q-58 0 -94 -48t-36 -126q0 -84 40 -130q35 -40 89 -40zM387 655 l-93 -123h-57l60 123h90z" />
<glyph unicode="&#xf4;" horiz-adv-x="538" d="M270 -12q-103 0 -167 77q-55 66 -55 161q0 110 67 178q60 62 154 62q108 0 170 -79q51 -66 51 -161q0 -109 -70 -178q-62 -60 -150 -60zM268 56q60 0 95.5 46t35.5 124q0 81 -38 129q-35 45 -92 45q-58 0 -94 -48t-36 -126q0 -84 40 -130q35 -40 89 -40zM240 655h58 l85 -123h-67l-46 70h-3l-47 -70h-66z" />
<glyph unicode="&#xf5;" horiz-adv-x="538" d="M270 -12q-103 0 -167 77q-55 66 -55 161q0 110 67 178q60 62 154 62q108 0 170 -79q51 -66 51 -161q0 -109 -70 -178q-62 -60 -150 -60zM268 56q60 0 95.5 46t35.5 124q0 81 -38 129q-35 45 -92 45q-58 0 -94 -48t-36 -126q0 -84 40 -130q35 -40 89 -40zM409 635 q-24 -85 -83 -85q-25 0 -60 20q-2 1 -5 3l-4 2q-28 17 -43 17q-37 0 -53 -44l-33 22q24 85 86 85q26 0 72 -26q2 -1 6 -4q24 -14 34 -14q26 0 49 47z" />
<glyph unicode="&#xf6;" horiz-adv-x="538" d="M270 -12q-103 0 -167 77q-55 66 -55 161q0 110 67 178q60 62 154 62q108 0 170 -79q51 -66 51 -161q0 -109 -70 -178q-62 -60 -150 -60zM268 56q60 0 95.5 46t35.5 124q0 81 -38 129q-35 45 -92 45q-58 0 -94 -48t-36 -126q0 -84 40 -130q35 -40 89 -40zM136 594 q0 21 15 36t37 15q20 0 35.5 -15.5t15.5 -35.5q0 -22 -15 -37t-36 -15q-23 0 -37.5 14.5t-14.5 37.5zM298 594q0 21 15 36t36 15t36.5 -15t15.5 -36q0 -22 -15 -37t-37 -15t-36.5 15t-14.5 37z" />
<glyph unicode="&#xf7;" horiz-adv-x="406" d="M204 293q-49 0 -49 49t49 49q47 0 47 -49t-47 -49zM45 171v81h316v-81h-316zM204 25q-49 0 -49 50q0 49 49 49q47 0 47 -49q0 -50 -47 -50z" />
<glyph unicode="&#xf8;" horiz-adv-x="538" d="M196 0l-13 -30h-75l28 62q-88 69 -88 194q0 110 67 178q60 62 154 62q30 0 60 -8l14 32h75l-27 -60q99 -66 99 -204q0 -109 -70 -178q-62 -60 -150 -60q-35 0 -74 12zM225 63q18 -7 43 -7q60 0 95.5 46t35.5 124q0 83 -41 132zM300 396q-20 4 -31 4q-58 0 -94 -48 t-36 -126q0 -74 31 -119z" />
<glyph unicode="&#xf9;" horiz-adv-x="534" d="M370 454h86v-454h-66l-7 52h-6q-23 -28 -62.5 -46t-77.5 -18q-159 0 -159 194v272h86v-253q0 -139 100 -139q29 0 60 15t46 36v341zM239 532l-93 123h90l60 -123h-57z" />
<glyph unicode="&#xfa;" horiz-adv-x="534" d="M370 454h86v-454h-66l-7 52h-6q-23 -28 -62.5 -46t-77.5 -18q-159 0 -159 194v272h86v-253q0 -139 100 -139q29 0 60 15t46 36v341zM383 655l-93 -123h-57l60 123h90z" />
<glyph unicode="&#xfb;" horiz-adv-x="534" d="M370 454h86v-454h-66l-7 52h-6q-23 -28 -62.5 -46t-77.5 -18q-159 0 -159 194v272h86v-253q0 -139 100 -139q29 0 60 15t46 36v341zM238 655h58l85 -123h-67l-46 70h-3l-47 -70h-66z" />
<glyph unicode="&#xfc;" horiz-adv-x="534" d="M456 454v-454h-66l-7 52h-6q-23 -28 -62.5 -46t-77.5 -18q-159 0 -159 194v272h86v-253q0 -139 100 -139q29 0 60 15t46 36v341h86zM134 594q0 21 15 36t37 15q20 0 35.5 -15.5t15.5 -35.5q0 -22 -15 -37t-36 -15q-23 0 -37.5 14.5t-14.5 37.5zM296 594q0 21 15 36t36 15 t36.5 -15t15.5 -36q0 -22 -15 -37t-37 -15t-36.5 15t-14.5 37z" />
<glyph unicode="&#xfd;" horiz-adv-x="471" d="M456 454l-195 -522q-47 -123 -127 -123q-54 0 -112 43l26 44q34 -20 59 -20q46 0 73 66l23 58h-18l-170 454h89l129 -360l133 360h90zM350 650l-93 -123h-57l60 123h90z" />
<glyph unicode="&#xfe;" horiz-adv-x="549" d="M78 600l86 45v-238q56 59 129 59q101 0 159 -74q49 -62 49 -156q0 -124 -72 -192q-58 -56 -141 -56q-79 0 -124 48v-215h-86v779zM164 313v-182q7 -31 39 -54t69 -23q61 0 99 48t38 124q0 87 -40 133q-35 40 -90 40q-37 0 -72 -26.5t-43 -59.5z" />
<glyph unicode="&#xff;" horiz-adv-x="471" d="M456 454l-195 -522q-47 -123 -127 -123q-54 0 -112 43l26 44q34 -20 59 -20q46 0 73 66l23 58h-18l-170 454h89l129 -360l133 360h90zM103 594q0 21 15 36t37 15q20 0 35.5 -15.5t15.5 -35.5q0 -22 -15 -37t-36 -15q-23 0 -37.5 14.5t-14.5 37.5zM265 594q0 21 15 36 t36 15t36.5 -15t15.5 -36q0 -22 -15 -37t-37 -15t-36.5 15t-14.5 37z" />
<glyph unicode="&#x131;" horiz-adv-x="281" d="M184 454v-454h-86v454h86z" />
<glyph unicode="&#x141;" horiz-adv-x="474" d="M343 368l-159 -67v-224h245v-77h-338v262l-66 -27v69l66 27v302h93v-263l159 67v-69z" />
<glyph unicode="&#x142;" horiz-adv-x="278" d="M253 373l-77 -39v-334h-86v291l-65 -32v68l65 32v240l86 46v-243l77 39v-68z" />
<glyph unicode="&#x152;" horiz-adv-x="853" d="M411 0q-37 -12 -84 -12q-141 0 -217 111q-60 88 -60 214q0 148 79 242q75 90 198 90q47 0 86 -12h382v-77h-293v-189h246v-77h-246v-213h306v-77h-397zM409 554q-38 11 -82 11q-92 0 -140 -81q-39 -66 -39 -171q0 -120 51 -185q47 -60 128 -60q49 0 82 18v468z" />
<glyph unicode="&#x153;" horiz-adv-x="863" d="M815 198h-320q7 -66 48 -104.5t105 -38.5q62 0 126 38l26 -49q-70 -56 -166 -56q-127 0 -191 87q-64 -87 -173 -87q-103 0 -167 77q-55 66 -55 161q0 110 67 178q60 62 154 62q113 0 176 -88q60 88 164 88q105 0 161 -79q45 -63 45 -159v-30zM399 226q0 81 -38 129 q-35 45 -92 45q-58 0 -94 -48t-36 -126q0 -84 40 -130q35 -40 89 -40q60 0 95 45.5t36 123.5v1zM492 265h235q-2 65 -32.5 100.5t-82.5 35.5q-50 0 -82.5 -37t-37.5 -99z" />
<glyph unicode="&#x160;" horiz-adv-x="550" d="M417 532q-68 34 -137 34q-49 0 -80 -22.5t-31 -57.5q0 -63 83 -94q124 -46 176 -96.5t52 -124.5q0 -90 -69 -141q-56 -42 -139 -42q-99 0 -206 68l40 57q67 -41 156 -41q122 0 122 103q0 80 -103 115q-108 37 -156.5 82t-48.5 109q0 76 59 122q54 42 142 42q99 0 180 -56 zM239 710l-86 123h66l47 -70h3l46 70h67l-85 -123h-58z" />
<glyph unicode="&#x161;" horiz-adv-x="426" d="M325 372q-50 28 -110 28q-33 0 -53 -15.5t-20 -41.5q0 -29 18.5 -44.5t69.5 -29.5q77 -22 107 -47q41 -35 41 -99q0 -61 -44.5 -98t-117.5 -37q-97 0 -168 54l30 48q56 -35 125 -35q92 0 92 70q0 30 -19.5 45.5t-74.5 29.5q-146 36 -146 141q0 54 43.5 89.5t109.5 35.5 q84 0 147 -47zM224 532h-58l-86 123h62l51 -76h3l51 76h62z" />
<glyph unicode="&#x178;" horiz-adv-x="551" d="M15 633h99l162 -308l161 308h99l-214 -384v-249h-92v249zM142 762q0 21 15 36t37 15q20 0 35.5 -15.5t15.5 -35.5q0 -22 -15 -37t-36 -15q-23 0 -37.5 14.5t-14.5 37.5zM304 762q0 21 15 36t36 15t36.5 -15t15.5 -36q0 -22 -15 -37t-37 -15t-36.5 15t-14.5 37z" />
<glyph unicode="&#x17d;" horiz-adv-x="478" d="M446 552q-123 -176 -254 -391q-44 -72 -54 -84h315v-77h-428v71q100 144 248 378q61 97 70 107h-309v77h412v-81zM259 705h-58l-86 123h62l51 -76h3l51 76h62z" />
<glyph unicode="&#x17e;" horiz-adv-x="421" d="M396 0h-371v73l262 311h-246v70h349v-73l-262 -311h268v-70zM232 532h-58l-86 123h62l51 -76h3l51 76h62z" />
<glyph unicode="&#x192;" horiz-adv-x="401" d="M84 384v70h67v60q0 127 116 127q64 0 119 -41l-30 -46q-34 20 -69 20q-50 0 -50 -66v-54h121v-70h-121v-367q0 -86 -22 -121.5t-74 -35.5t-99 41l30 46q34 -20 49 -20q17 0 23.5 20t6.5 72v365h-67z" />
<glyph unicode="&#x2c6;" horiz-adv-x="236" d="M90 655h58l85 -123h-67l-46 70h-3l-47 -70h-66z" />
<glyph unicode="&#x2c7;" horiz-adv-x="236" d="M147 532h-58l-86 123h62l51 -76h3l51 76h62z" />
<glyph unicode="&#x2d8;" horiz-adv-x="258" d="M181 645h56v-3q0 -51 -29 -80.5t-80 -29.5q-108 0 -108 113h58q4 -62 50 -62q53 0 53 62z" />
<glyph unicode="&#x2d9;" horiz-adv-x="122" d="M5 589q0 23 16.5 39.5t39.5 16.5t39.5 -16.5t16.5 -39.5t-16.5 -39.5t-39.5 -16.5t-39.5 16.5t-16.5 39.5z" />
<glyph unicode="&#x2da;" horiz-adv-x="166" d="M20 589q0 26 18.5 44.5t44.5 18.5t44.5 -18.5t18.5 -44.5t-18.5 -44.5t-44.5 -18.5t-44.5 18.5t-18.5 44.5zM54 589q0 -29 29 -29q30 0 30 29t-30 29q-29 0 -29 -29z" />
<glyph unicode="&#x2db;" horiz-adv-x="204" d="M60 4h54q-1 -2 -4 -5q-35 -47 -35 -81q0 -31 41 -31q20 0 48 8l13 -39q-29 -16 -80 -16q-36 0 -57.5 20.5t-21.5 54.5q0 33 36 81q4 5 6 8z" />
<glyph unicode="&#x2dc;" horiz-adv-x="303" d="M292 635q-24 -85 -83 -85q-25 0 -60 20q-2 1 -5 3l-4 2q-28 17 -43 17q-37 0 -53 -44l-33 22q24 85 86 85q26 0 72 -26q2 -1 6 -4q24 -14 34 -14q26 0 49 47z" />
<glyph unicode="&#x2dd;" horiz-adv-x="340" d="M175 667l-91 -130h-59l60 130h90zM315 667l-101 -130h-59l70 130h90z" />
<glyph unicode="&#x3c0;" horiz-adv-x="567" d="M376 0v384h-191v-384h-86v385h-57v69h483v-70h-63v-384h-86z" />
<glyph unicode="&#x60c;" horiz-adv-x="245" d="M133 117q55 0 57 -57q0 -28 -17.5 -46.5t-45.5 -18.5q-62 0 -62 76v129l42 12l1 -95h25z" />
<glyph unicode="&#x61b;" horiz-adv-x="253" d="M133 371q55 0 57 -57q0 -28 -17.5 -46.5t-45.5 -18.5q-62 0 -62 76v129l42 12l1 -95h25zM144 100q53 0 53 -52q0 -53 -53 -53t-53 55q0 50 53 50z" />
<glyph unicode="&#x61f;" horiz-adv-x="438" d="M218 136q14 31 14 56q0 31 -16.5 57t-67.5 72q-24 23 -37 35q-64 63 -64 145q0 72 50 118q46 42 118 42q78 0 143 -55v-84q-71 62 -136 62q-40 0 -65.5 -24t-25.5 -62q0 -48 40 -88q8 -8 34 -32q58 -53 81.5 -94t23.5 -88q0 -30 -13 -60h-79zM258 -13q-53 0 -53 55 q0 50 53 50t53 -52q0 -53 -53 -53z" />
<glyph unicode="&#x621;" horiz-adv-x="522" d="M35 -58v83q36 27 99 39q-45 68 -45 144q0 95 55 153q50 54 130 54q87 0 144 -70v-83q-64 74 -140 74q-47 0 -75 -33.5t-28 -90.5q0 -82 57 -136q26 2 37 2q128 4 203 59v-80q-85 -57 -222 -57q-134 0 -215 -58z" />
<glyph unicode="&#x622;" horiz-adv-x="266" d="M258 752q-35 -52 -74 -52q-23 0 -57 21q-25 16 -37 16q-17 0 -42 -32l-33 25q36 51 75 51q20 0 52 -20q26 -16 41 -16q16 0 44 32zM90 0v599l86 46v-645h-86z" />
<glyph unicode="&#x623;" horiz-adv-x="266" d="M37 659l23 43h27q-10 18 -10 37q0 30 22 51.5t52 21.5q25 0 48 -16v-44q-22 17 -42 17q-37 0 -37 -33q0 -17 14 -34h91l-23 -43h-165zM90 0v559l86 46v-605h-86z" />
<glyph unicode="&#x624;" horiz-adv-x="503" d="M323 605l-23 -43h-165l23 43h27q-10 18 -10 38q0 29 22 50.5t52 21.5q25 0 48 -16v-44q-21 17 -42 17q-37 0 -37 -33q0 -17 14 -34h91zM336 32q-38 -15 -93 -15q-89 0 -140 67q-43 57 -43 143q0 106 57 166q51 54 134 54q85 0 131 -53q41 -47 41 -123v-218 q0 -113 -59 -179q-56 -62 -149 -62q-62 0 -117 29v76q53 -28 105 -28q59 0 94 37.5t39 105.5zM336 267q0 100 -85 100q-50 0 -78.5 -37t-28.5 -101q0 -63 27.5 -100.5t74.5 -37.5q66 0 90 37v139z" />
<glyph unicode="&#x625;" horiz-adv-x="266" d="M90 0v599l86 46v-645h-86zM37 -249l23 43h27q-10 18 -10 38q0 29 22 50.5t52 21.5q25 0 48 -16v-44q-22 17 -42 17q-37 0 -37 -33q0 -17 14 -34h91l-23 -43h-165z" />
<glyph unicode="&#x626;" horiz-adv-x="727" d="M57 340l23 43h27q-10 18 -10 38q0 29 22 50.5t51 21.5q25 0 48 -16v-44q-21 17 -42 17q-37 0 -37 -34q0 -17 14 -33h92l-23 -43h-165zM623 291q-67 70 -140 70q-39 0 -62 -23t-23 -62q0 -43 26 -67t101 -50q75 -27 102 -51q40 -34 40 -93q0 -94 -89 -152 q-81 -53 -211 -53q-158 0 -238 92q-59 68 -59 168q0 84 42 144l83 18q-45 -71 -45 -153q0 -86 58 -138q57 -50 159 -50q109 0 168 43q46 34 46 82q0 27 -20.5 44t-81.5 38q-84 30 -116 60q-48 44 -48 118q0 81 57 127q44 35 100 35q92 0 151 -67v-80z" />
<glyph unicode="&#x627;" horiz-adv-x="266" d="M90 0v599l86 46v-645h-86z" />
<glyph unicode="&#x628;" horiz-adv-x="878" d="M257 0q-81 0 -127 54q-40 47 -40 123v121l86 46v-159q0 -104 97 -104h332q97 0 97 104v203l86 46v-257q0 -87 -53 -135q-47 -42 -121 -42h-357zM422 -199q-49 0 -49 50q0 49 49 49q48 0 48 -49q0 -50 -48 -50z" />
<glyph unicode="&#x629;" horiz-adv-x="521" d="M194 565q-49 0 -49 50q0 49 49 49q48 0 48 -49q0 -50 -48 -50zM322 565q-49 0 -49 50q0 49 49 49q48 0 48 -49q0 -50 -48 -50zM259 0q-91 0 -142 61q-44 53 -44 135q0 89 49.5 154.5t141.5 96.5q97 -33 146 -104q44 -63 44 -147q0 -95 -56 -149q-50 -47 -129 -47h-10z M256 81h15q45 0 71.5 31t26.5 83q0 120 -105 172q-105 -52 -105 -171q0 -53 26 -84t71 -31z" />
<glyph unicode="&#x62a;" horiz-adv-x="858" d="M358 465q-49 0 -49 50q0 49 49 49q48 0 48 -49q0 -50 -48 -50zM485 465q-49 0 -49 50q0 49 49 49q48 0 48 -49q0 -50 -48 -50zM257 0q-81 0 -127 54q-40 47 -40 123v121l86 46v-159q0 -104 97 -104h332q97 0 97 104v203l86 46v-257q0 -87 -53 -135q-47 -42 -121 -42h-357 z" />
<glyph unicode="&#x62b;" horiz-adv-x="858" d="M431 584q-47 0 -47 47q0 46 47 46q45 0 45 -46q0 -47 -45 -47zM368 465q-49 0 -49 50q0 49 49 49q48 0 48 -49q0 -50 -48 -50zM495 465q-49 0 -49 50q0 49 49 49q48 0 48 -49q0 -50 -48 -50zM257 0q-81 0 -127 54q-40 47 -40 123v121l86 46v-159q0 -104 97 -104h332 q97 0 97 104v203l86 46v-257q0 -87 -53 -135q-47 -42 -121 -42h-357z" />
<glyph unicode="&#x62c;" horiz-adv-x="611" d="M508 -322q-85 -53 -191 -53q-114 0 -184 76q-63 68 -63 175q0 115 68 183q30 30 69 47t118 34q75 16 110.5 31t61.5 43q-82 154 -202 154q-80 0 -168 -86v80q84 85 179 85q76 0 148 -56t127 -158v-44q-33 -50 -80 -75.5t-146 -46.5q-117 -25 -156 -63q-48 -46 -48 -129 q0 -84 55 -130q46 -39 118 -39q110 1 184 53v-81zM324 -168q-44 0 -44 46q0 44 44 44t44 -44q0 -46 -44 -46z" />
<glyph unicode="&#x62d;" horiz-adv-x="631" d="M508 -322q-85 -53 -191 -53q-114 0 -184 76q-63 68 -63 175q0 115 68 183q30 30 69 47t118 34q75 16 110.5 31t61.5 43q-82 154 -202 154q-80 0 -168 -86v80q84 85 179 85q76 0 148 -56t127 -158v-44q-33 -50 -80 -75.5t-146 -46.5q-117 -25 -156 -63q-48 -46 -48 -129 q0 -84 55 -130q46 -39 118 -39q110 1 184 53v-81z" />
<glyph unicode="&#x62e;" horiz-adv-x="631" d="M324 555q-49 0 -49 50q0 49 49 49q48 0 48 -49q0 -50 -48 -50zM508 -322q-85 -53 -191 -53q-114 0 -184 76q-63 68 -63 175q0 115 68 183q30 30 69 47t118 34q75 16 110.5 31t61.5 43q-82 154 -202 154q-80 0 -168 -86v80q84 85 179 85q76 0 148 -56t127 -158v-44 q-33 -50 -80 -75.5t-146 -46.5q-117 -25 -156 -63q-48 -46 -48 -129q0 -84 55 -130q46 -39 118 -39q110 1 184 53v-81z" />
<glyph unicode="&#x62f;" horiz-adv-x="459" d="M10 0l42 81h178q40 0 56.5 20t16.5 69q0 134 -121 203l42 71q165 -94 165 -275q0 -169 -144 -169h-235z" />
<glyph unicode="&#x630;" horiz-adv-x="459" d="M227 555q-49 0 -49 50q0 49 49 49q48 0 48 -49q0 -50 -48 -50zM10 0l42 81h178q40 0 56.5 20t16.5 69q0 134 -121 203l42 71q165 -94 165 -275q0 -169 -144 -169h-235z" />
<glyph unicode="&#x631;" horiz-adv-x="328" d="M238 53q0 -112 -59 -180q-56 -65 -149 -65q-60 0 -117 30v75q51 -28 102 -28q64 0 100 43t36 119v341l87 46v-381z" />
<glyph unicode="&#x632;" horiz-adv-x="328" d="M190 555q-49 0 -49 50q0 49 49 49q48 0 48 -49q0 -50 -48 -50zM238 53q0 -112 -59 -180q-56 -65 -149 -65q-60 0 -117 30v75q51 -28 102 -28q64 0 100 43t36 119v341l87 46v-381z" />
<glyph unicode="&#x633;" horiz-adv-x="1335" d="M1158 388l87 46v-256q0 -85 -51 -134q-47 -44 -123 -44h-67q-84 0 -130 52q-47 -52 -131 -52h-66q-52 0 -90 21q-12 -102 -89 -159q-69 -52 -171 -52q-130 0 -202 92q-55 71 -55 168q0 84 42 144l83 18q-45 -71 -45 -153q0 -84 52 -138q49 -50 125 -50q88 0 136 51 q40 43 40 112v267l86 46v-186q0 -100 97 -100h47q97 0 97 100v174l87 45v-219q0 -100 97 -100h47q97 0 97 100v207z" />
<glyph unicode="&#x634;" horiz-adv-x="1335" d="M873 647q-45 0 -45 45q0 44 45 44q43 0 43 -44q0 -45 -43 -45zM810 528q-49 0 -49 50q0 49 49 49q48 0 48 -49q0 -50 -48 -50zM888 578q0 49 49 49q48 0 48 -49q0 -50 -48 -50q-49 0 -49 50zM1158 388l87 46v-256q0 -85 -51 -134q-47 -44 -123 -44h-67q-84 0 -130 52 q-47 -52 -131 -52h-66q-52 0 -90 21q-12 -102 -89 -159q-69 -52 -171 -52q-130 0 -202 92q-55 71 -55 168q0 84 42 144l83 18q-45 -71 -45 -153q0 -84 52 -138q49 -50 125 -50q88 0 136 51q40 43 40 112v267l86 46v-186q0 -100 97 -100h47q97 0 97 100v174l87 45v-219 q0 -100 97 -100h47q97 0 97 100v207z" />
<glyph unicode="&#x635;" horiz-adv-x="1335" d="M654 84q41 152 132 252q103 111 240 111q114 0 182 -79q57 -67 57 -165v-26q0 -87 -53 -135q-46 -42 -121 -42h-414q-52 0 -90 21q-12 -102 -89 -159q-69 -52 -171 -52q-130 0 -202 92q-55 71 -55 168q0 84 42 144l83 18q-45 -71 -45 -153q0 -84 52 -138q49 -50 125 -50 q88 0 136 51q40 43 40 112v267l86 46v-186q0 -84 65 -97zM1179 185v18q0 78 -48 124q-42 40 -104 40q-107 0 -192 -97q-65 -76 -99 -189h350q93 0 93 104z" />
<glyph unicode="&#x636;" horiz-adv-x="1335" d="M1023 555q-49 0 -49 50q0 49 49 49q48 0 48 -49q0 -50 -48 -50zM654 84q41 152 132 252q103 111 240 111q114 0 182 -79q57 -67 57 -165v-26q0 -87 -53 -135q-46 -42 -121 -42h-414q-52 0 -90 21q-12 -102 -89 -159q-69 -52 -171 -52q-130 0 -202 92q-55 71 -55 168 q0 84 42 144l83 18q-45 -71 -45 -153q0 -84 52 -138q49 -50 125 -50q88 0 136 51q40 43 40 112v267l86 46v-186q0 -84 65 -97zM1179 185v18q0 78 -48 124q-42 40 -104 40q-107 0 -192 -97q-65 -76 -99 -189h350q93 0 93 104z" />
<glyph unicode="&#x637;" horiz-adv-x="878" d="M286 279q114 168 283 168q113 0 181 -79q58 -67 58 -165v-32q0 -82 -40 -126.5t-114 -44.5h-634l43 81h134l3 11v507l86 46v-366zM721 175v28q0 78 -48 124q-41 40 -103 40q-103 0 -186 -93q-62 -70 -98 -175v-18h361q43 0 58.5 20t15.5 74z" />
<glyph unicode="&#x638;" horiz-adv-x="878" d="M564 555q-49 0 -49 50q0 49 49 49q48 0 48 -49q0 -50 -48 -50zM286 279q114 168 283 168q113 0 181 -79q58 -67 58 -165v-32q0 -82 -40 -126.5t-114 -44.5h-634l43 81h134l3 11v507l86 46v-366zM721 175v28q0 78 -48 124q-41 40 -103 40q-103 0 -186 -93 q-62 -70 -98 -175v-18h361q43 0 58.5 20t15.5 74z" />
<glyph unicode="&#x639;" horiz-adv-x="562" d="M512 -322q-84 -53 -188 -53q-120 0 -193 75q-61 64 -61 156q0 60 29.5 110t80.5 77q-94 61 -94 193q0 102 71 162q56 48 132 49q104 0 165 -85v-81q-65 86 -154 86q-57 0 -92 -36.5t-35 -97.5q0 -69 41.5 -110.5t110.5 -41.5h177v-81h-175q-93 0 -139 -50 q-35 -37 -35 -93q0 -68 48.5 -109.5t127.5 -41.5q111 1 183 53v-81z" />
<glyph unicode="&#x63a;" horiz-adv-x="562" d="M305 555q-49 0 -49 50q0 49 49 49q48 0 48 -49q0 -50 -48 -50zM512 -322q-84 -53 -188 -53q-120 0 -193 75q-61 64 -61 156q0 60 29.5 110t80.5 77q-94 61 -94 193q0 102 71 162q56 48 132 49q104 0 165 -85v-81q-65 86 -154 86q-57 0 -92 -36.5t-35 -97.5 q0 -69 41.5 -110.5t110.5 -41.5h177v-81h-175q-93 0 -139 -50q-35 -37 -35 -93q0 -68 48.5 -109.5t127.5 -41.5q111 1 183 53v-81z" />
<glyph unicode="&#x640;" horiz-adv-x="116" d="M-30 0v81h176v-81h-176z" />
<glyph unicode="&#x641;" horiz-adv-x="950" d="M706 548q-49 0 -49 50q0 49 49 49q48 0 48 -49q0 -50 -48 -50zM267 0q-85 0 -134 57q-43 51 -43 130v120l86 46v-158q0 -114 105 -114h273q-47 52 -47 142q0 109 57 170q51 54 134 54q85 0 131 -53q41 -47 41 -123v-94q0 -84 -51 -133q-47 -44 -124 -44h-428zM784 267 q0 100 -86 100q-50 0 -77.5 -37.5t-27.5 -104.5q0 -66 27 -105t72 -39q92 0 92 100v86z" />
<glyph unicode="&#x642;" horiz-adv-x="749" d="M435 548q-49 0 -49 50q0 49 49 49q48 0 48 -49q0 -50 -48 -50zM562 548q-49 0 -49 50q0 49 49 49q48 0 48 -49q0 -50 -48 -50zM669 54q0 -118 -86 -183q-79 -61 -216 -61q-158 0 -238 92q-59 68 -59 168q0 84 42 144l83 18q-45 -71 -45 -153q0 -86 58 -138 q57 -50 159 -50q206 0 213 153q-30 -27 -91 -27q-88 0 -140 68q-43 58 -43 142q0 106 57 166q51 54 134 54q85 0 131 -53q41 -47 41 -123v-217zM583 267q0 100 -86 100q-49 0 -77 -36.5t-28 -101.5q0 -64 27 -101t73 -37q69 0 91 38v138z" />
<glyph unicode="&#x643;" horiz-adv-x="878" d="M701 599l87 46v-468q0 -87 -53 -135q-47 -42 -121 -42h-357q-81 0 -127 54q-40 47 -40 123v121l86 46v-159q0 -104 97 -104h332q96 0 96 104v414zM444 487q86 -4 86 -85q0 -35 -20.5 -56t-54.5 -21h-132l23 43h105q36 0 36 36q0 44 -56 44q-29 0 -53 -14v40l84 93h53z " />
<glyph unicode="&#x644;" horiz-adv-x="692" d="M602 63q0 -119 -83 -190q-73 -63 -186 -63q-134 0 -207 90q-56 70 -56 167q0 85 41 145l86 19q-46 -71 -46 -155q0 -83 53 -136q49 -49 129 -49q91 0 140 54q42 46 42 118v536l87 46v-582z" />
<glyph unicode="&#x645;" horiz-adv-x="589" d="M20 -315v218q0 85 49 132q44 43 122 46q-45 51 -45 142q0 109 57 170q51 54 134 54q85 0 131 -53q41 -47 41 -123v-108q-1 -75 -47 -118t-127 -45h-131q-98 0 -98 -100v-169zM423 267q0 100 -86 100q-50 0 -77.5 -37.5t-27.5 -104.5q0 -68 26 -106t73 -38q92 0 92 93v93z " />
<glyph unicode="&#x646;" horiz-adv-x="679" d="M327 443q-49 0 -49 50q0 49 49 49q48 0 48 -49q0 -50 -48 -50zM589 54q0 -115 -80 -183q-71 -61 -182 -61q-130 0 -202 92q-55 71 -55 168q0 84 42 144l83 18q-45 -71 -45 -153q0 -84 52 -138q49 -50 125 -50q88 0 136 51q40 43 40 112v334l86 46v-380z" />
<glyph unicode="&#x647;" horiz-adv-x="521" d="M256 0q-91 0 -142 61q-44 53 -44 135q0 89 49.5 154.5t141.5 96.5q97 -33 146 -104q44 -63 44 -147q0 -95 -56 -149q-50 -47 -129 -47h-10zM253 81h15q45 0 71.5 31t26.5 83q0 120 -105 172q-105 -52 -105 -171q0 -53 26 -84t71 -31z" />
<glyph unicode="&#x648;" horiz-adv-x="503" d="M336 32q-38 -15 -93 -15q-89 0 -140 67q-43 57 -43 143q0 106 57 166q51 54 134 54q85 0 131 -53q41 -47 41 -123v-218q0 -113 -59 -179q-56 -62 -149 -62q-62 0 -117 29v76q53 -28 105 -28q59 0 94 37.5t39 105.5zM336 267q0 100 -85 100q-50 0 -78.5 -37t-28.5 -101 q0 -63 27.5 -100.5t74.5 -37.5q66 0 90 37v139z" />
<glyph unicode="&#x649;" horiz-adv-x="727" d="M623 291q-67 70 -140 70q-39 0 -62 -23t-23 -62q0 -43 26 -67t101 -50q75 -27 102 -51q40 -34 40 -93q0 -94 -89 -152q-81 -53 -211 -53q-158 0 -238 92q-59 68 -59 168q0 84 42 144l83 18q-45 -71 -45 -153q0 -86 58 -138q57 -50 159 -50q109 0 168 43q46 34 46 82 q0 27 -20.5 44t-81.5 38q-84 30 -116 60q-48 44 -48 118q0 81 57 127q44 35 100 35q92 0 151 -67v-80z" />
<glyph unicode="&#x64a;" horiz-adv-x="727" d="M623 291q-67 70 -140 70q-39 0 -62 -23t-23 -62q0 -43 26 -67t101 -50q75 -27 102 -51q40 -34 40 -93q0 -94 -89 -152q-81 -53 -211 -53q-158 0 -238 92q-59 68 -59 168q0 84 42 144l83 18q-45 -71 -45 -153q0 -86 58 -138q57 -50 159 -50q109 0 168 43q46 34 46 82 q0 27 -20.5 44t-81.5 38q-84 30 -116 60q-48 44 -48 118q0 81 57 127q44 35 100 35q92 0 151 -67v-80zM300 -367q-49 0 -49 50q0 49 49 49q48 0 48 -49q0 -50 -48 -50zM427 -367q-49 0 -49 50q0 49 49 49q48 0 48 -49q0 -50 -48 -50z" />
<glyph unicode="&#x64b;" d="M17 666l30 65l213 38l-30 -64zM0 565l30 64l214 39l-30 -64z" />
<glyph unicode="&#x64c;" d="M158 630q-25 19 -25 55q0 34 20.5 56.5t50.5 22.5q31 0 51.5 -22.5t20.5 -57.5q0 -48 -31.5 -79t-81.5 -31q-54 0 -90 39l-22 -35l-50 32l46 72h23q32 -53 78 -53q5 0 10 1zM208 650q19 15 19 37q0 30 -23 30q-22 0 -22 -30q0 -25 26 -37z" />
<glyph unicode="&#x64d;" d="M17 666l30 65l213 38l-30 -64zM0 565l30 64l214 39l-30 -64z" />
<glyph unicode="&#x64e;" d="M0 565l30 64l214 39l-30 -64z" />
<glyph unicode="&#x64f;" d="M0 565l27 58l99 18q-17 22 -17 52q0 33 20.5 55.5t50.5 22.5q31 0 51.5 -22t20.5 -56q0 -37 -21 -64t-54 -32zM182 658q21 14 21 37q0 29 -23 29q-22 0 -22 -29q0 -26 24 -37z" />
<glyph unicode="&#x650;" d="M0 565l30 64l214 39l-30 -64z" />
<glyph unicode="&#x651;" d="M179 683l48 27v-81q0 -28 -19 -46t-49 -18q-26 0 -45 14q-19 -14 -45 -14q-30 0 -49.5 18t-19.5 46v31l49 27v-55q0 -20 20 -20t20 17v44l49 27v-71q0 -17 21 -17q20 0 20 20v51z" />
<glyph unicode="&#x652;" d="M72 721q31 -8 51 -33.5t20 -56.5t-19.5 -50t-51.5 -19q-33 0 -52.5 18.5t-19.5 50.5q0 31 20.5 56.5t51.5 33.5zM72 671q-25 -8 -25 -36t24 -28q25 0 25 28t-24 36z" />
<glyph unicode="&#x653;" d="M248 720q-35 -52 -74 -52q-23 0 -57 21q-25 16 -37 16q-17 0 -42 -32l-33 25q36 51 75 51q20 0 52 -20q26 -16 41 -16q16 0 44 32z" />
<glyph unicode="&#x654;" d="M-2 656l23 43h27q-10 18 -10 37q0 30 22 51.5t52 21.5q25 0 48 -16v-44q-22 16 -42 16q-37 0 -37 -32q0 -17 14 -34h91l-23 -43h-165z" />
<glyph unicode="&#x655;" d="M-2 656l23 43h27q-10 18 -10 38q0 29 22 50.5t52 21.5q25 0 48 -16v-44q-22 17 -42 17q-37 0 -37 -33q0 -17 14 -34h91l-23 -43h-165z" />
<glyph unicode="&#x660;" horiz-adv-x="264" d="M133 89l-93 93l93 92l91 -92z" />
<glyph unicode="&#x661;" horiz-adv-x="226" d="M70 -15v580h86v-534z" />
<glyph unicode="&#x662;" horiz-adv-x="397" d="M65 -15v443q0 64 38.5 100.5t106.5 36.5h162v-81h-154q-67 0 -67 -61v-392z" />
<glyph unicode="&#x663;" horiz-adv-x="574" d="M544 565v-123q0 -56 -37.5 -91t-97.5 -35q-61 0 -99 33q-36 -33 -95 -33q-35 0 -59 10v-295l-86 -46v580h86v-123q0 -51 58 -51q56 0 56 51v93h80v-93q0 -51 58 -51q56 0 56 51v123h80z" />
<glyph unicode="&#x664;" horiz-adv-x="402" d="M225 0q-93 0 -145 57q-40 45 -40 108q0 82 75 131q-64 40 -64 115q1 66 51.5 110t125.5 44h92v-78h-85q-43 0 -70 -22.5t-27 -57.5q0 -37 27 -60t70 -23h60v-65h-62q-47 0 -77 -24.5t-30 -63.5v-2q0 -41 29.5 -66t77.5 -25h95l49 -78h-152z" />
<glyph unicode="&#x665;" horiz-adv-x="442" d="M35 179q0 90 52.5 176t138.5 137q95 -57 147 -154q43 -80 43 -160v-10q-3 -86 -55 -133q-50 -45 -135 -45q-96 0 -147 57q-41 46 -44 120v12zM226 408q-52 -38 -84 -96.5t-32 -116.5v-3q0 -124 116 -124q112 0 115 118v8q0 60 -31.5 118.5t-83.5 95.5z" />
<glyph unicode="&#x666;" horiz-adv-x="397" d="M245 -15v438q0 61 -66 61h-154v81h162q68 0 106.5 -36.5t38.5 -100.5v-397z" />
<glyph unicode="&#x667;" horiz-adv-x="499" d="M188 0l-168 565h90l136 -464h4l139 464h90l-171 -565h-120z" />
<glyph unicode="&#x668;" horiz-adv-x="499" d="M20 0l168 565h120l171 -565h-90l-139 464h-4l-136 -464h-90z" />
<glyph unicode="&#x669;" horiz-adv-x="422" d="M271 -15v248q-37 -23 -78 -23q-33 0 -63 15q-95 39 -95 163q0 92 50 142q44 45 117 45q72 0 113.5 -43.5t41.5 -120.5v-380zM271 413q0 84 -71 84q-82 0 -82 -106q0 -45 22 -73t58 -29h4q38 0 69 27v97z" />
<glyph unicode="&#x66a;" horiz-adv-x="716" d="M180 0l291 565h70l-291 -565h-70zM283 412q0 -71 -31.5 -113t-83.5 -42q-55 0 -86.5 41t-31.5 113q0 68 31.5 107.5t86.5 39.5q51 0 83 -40.5t32 -105.5zM227 410q0 42 -17.5 70.5t-43.5 28.5q-27 0 -44 -27.5t-17 -71.5q0 -47 17 -76t44 -29t44 29t17 76zM666 156 q0 -71 -31.5 -113t-83.5 -42q-55 0 -86.5 41t-31.5 113q0 68 31.5 107.5t86.5 39.5q51 0 83 -40.5t32 -105.5zM611 154q0 43 -17.5 71t-44.5 28q-26 0 -43.5 -28t-17.5 -71q0 -47 17 -76t44 -29t44.5 29.5t17.5 75.5z" />
<glyph unicode="&#x66d;" horiz-adv-x="349" d="M191 511q1 -2 6 -14q17 -41 17 -53q0 -29 -34 -29q-33 0 -33 29q0 15 24 70q-4 -5 -14 -18q-26 -34 -35 -39q-7 -4 -14 -4q-13 0 -23.5 11.5t-10.5 25.5q0 32 84 39q4 1 6 1q-3 0 -12 1q-78 7 -78 38q0 15 10.5 27t22.5 12q20 0 59 -56q2 -3 3 -4q-23 55 -23 68 q0 29 33 29q34 0 34 -29q0 -12 -18 -56q-3 -6 -4 -9q1 2 5 7q35 49 54 49q13 0 23 -12t10 -27q0 -30 -74 -36q-8 -1 -11 -1q5 -1 16 -2q46 -7 57 -13q12 -8 12 -23t-10 -27t-22 -12q-21 0 -58 53z" />
<glyph unicode="&#x66e;" horiz-adv-x="878" d="M257 0q-81 0 -127 54q-40 47 -40 123v121l86 46v-159q0 -104 97 -104h332q97 0 97 104v203l86 46v-257q0 -87 -53 -135q-47 -42 -121 -42h-357z" />
<glyph unicode="&#x670;" d="M0 677v141l49 26v-141z" />
<glyph unicode="&#x67e;" horiz-adv-x="878" d="M257 0q-81 0 -127 54q-40 47 -40 123v121l86 46v-159q0 -104 97 -104h332q97 0 97 104v203l86 46v-257q0 -87 -53 -135q-47 -42 -121 -42h-357zM387 -198q-49 0 -49 48q0 50 49 50q48 0 48 -50q0 -48 -48 -48zM514 -198q-49 0 -49 48q0 50 49 50q48 0 48 -50 q0 -48 -48 -48zM450 -308q-44 0 -44 44q0 46 44 46t44 -46q0 -44 -44 -44z" />
<glyph unicode="&#x6a4;" horiz-adv-x="950" d="M697 669q-44 0 -44 45q0 44 44 44t44 -44q0 -45 -44 -45zM634 550q-49 0 -49 50q0 49 49 49q48 0 48 -49q0 -50 -48 -50zM761 550q-49 0 -49 50q0 49 49 49q48 0 48 -49q0 -50 -48 -50zM267 0q-85 0 -134 57q-43 51 -43 130v120l86 46v-158q0 -114 105 -114h273 q-47 52 -47 142q0 109 57 170q51 54 134 54q85 0 131 -53q41 -47 41 -123v-94q0 -84 -51 -133q-47 -44 -124 -44h-428zM784 267q0 100 -86 100q-50 0 -77.5 -37.5t-27.5 -104.5q0 -66 27 -105t72 -39q92 0 92 100v86z" />
<glyph unicode="&#x2000;" horiz-adv-x="508" />
<glyph unicode="&#x2001;" horiz-adv-x="1016" />
<glyph unicode="&#x2002;" horiz-adv-x="521" />
<glyph unicode="&#x2003;" horiz-adv-x="1042" />
<glyph unicode="&#x2004;" horiz-adv-x="347" />
<glyph unicode="&#x2005;" horiz-adv-x="260" />
<glyph unicode="&#x2006;" horiz-adv-x="69" />
<glyph unicode="&#x2007;" horiz-adv-x="583" />
<glyph unicode="&#x2008;" horiz-adv-x="265" />
<glyph unicode="&#x2009;" horiz-adv-x="130" />
<glyph unicode="&#x200a;" horiz-adv-x="35" />
<glyph unicode="&#x2010;" horiz-adv-x="290" d="M265 204h-240v70h240v-70z" />
<glyph unicode="&#x2011;" horiz-adv-x="264" d="M264 321v-124h-264v124h264z" />
<glyph unicode="&#x2012;" horiz-adv-x="583" d="M528 321v-124h-472v124h472z" />
<glyph unicode="&#x2013;" horiz-adv-x="381" d="M70 152v81h241v-81h-241z" />
<glyph unicode="&#x2014;" horiz-adv-x="622" d="M70 152v81h482v-81h-482z" />
<glyph unicode="&#x2015;" horiz-adv-x="771" d="M771 321v-124h-771v124h771z" />
<glyph unicode="&#x2018;" horiz-adv-x="255" d="M138 538q55 0 57 -57q0 -28 -17.5 -46.5t-45.5 -18.5q-62 0 -62 76v129l42 12l1 -95h25z" />
<glyph unicode="&#x2019;" horiz-adv-x="255" d="M117 519q-55 0 -57 57q0 28 17.5 46.5t45.5 18.5q62 0 62 -76v-129l-42 -12l-1 95h-25z" />
<glyph unicode="&#x201a;" horiz-adv-x="255" d="M117 -4q-55 0 -57 57q0 29 17.5 47t45.5 18q62 0 62 -76v-129l-42 -12l-1 95h-25z" />
<glyph unicode="&#x201c;" horiz-adv-x="410" d="M138 538q55 0 57 -57q0 -28 -17.5 -46.5t-45.5 -18.5q-62 0 -62 76v129l42 12l1 -95h25zM293 538q55 0 57 -57q0 -28 -17.5 -46.5t-45.5 -18.5q-62 0 -62 76v129l42 12l1 -95h25z" />
<glyph unicode="&#x201d;" horiz-adv-x="412" d="M117 519q-55 0 -57 57q0 28 17.5 46.5t45.5 18.5q62 0 62 -76v-129l-42 -12l-1 95h-25zM274 519q-55 0 -57 57q0 28 17.5 46.5t45.5 18.5q62 0 62 -76v-129l-42 -12l-1 95h-25z" />
<glyph unicode="&#x201e;" horiz-adv-x="412" d="M117 -4q-55 0 -57 57q0 29 17.5 47t45.5 18q62 0 62 -76v-129l-42 -12l-1 95h-25zM274 -4q-55 0 -57 57q0 29 17.5 47t45.5 18q62 0 62 -76v-129l-42 -12l-1 95h-25z" />
<glyph unicode="&#x2020;" horiz-adv-x="424" d="M170 384h-128v70h128v179h80v-179h132v-70h-132v-427h-80v427z" />
<glyph unicode="&#x2021;" horiz-adv-x="424" d="M170 134h-128v70h128v180h-128v70h128v179h80v-179h132v-70h-132v-180h132v-70h-132v-178h-80v178z" />
<glyph unicode="&#x2022;" horiz-adv-x="313" d="M65 328q0 38 26.5 65t64.5 27t65 -27t27 -65t-27 -64.5t-65 -26.5t-64.5 26.5t-26.5 64.5z" />
<glyph unicode="&#x2026;" horiz-adv-x="643" d="M143 -5q-53 0 -53 55q0 50 53 50t53 -52q0 -53 -53 -53zM336 -5q-53 0 -53 55q0 50 53 50t53 -52q0 -53 -53 -53zM530 -5q-53 0 -53 55q0 50 53 50t53 -52q0 -53 -53 -53z" />
<glyph unicode="&#x202f;" horiz-adv-x="203" />
<glyph unicode="&#x2030;" horiz-adv-x="1083" d="M560 -12q-60 0 -99.5 46t-39.5 117q0 77 40 123q38 43 99 43q62 0 100.5 -46t38.5 -120q0 -73 -43 -121q-39 -42 -96 -42zM558 42q63 0 63 109q0 113 -61 113t-61 -113q0 -50 16 -79.5t43 -29.5zM185 316q-60 0 -99.5 46t-39.5 117q0 77 40 123q38 43 99 43 q62 0 100.5 -46t38.5 -120q0 -73 -43 -121q-39 -42 -96 -42zM183 370q63 0 63 109q0 113 -61 113t-61 -113q0 -50 16 -79.5t43 -29.5zM900 -12q-60 0 -99.5 46t-39.5 117q0 77 40 123q38 43 99 43q62 0 100.5 -46t38.5 -120q0 -73 -43 -121q-39 -42 -96 -42zM898 42 q63 0 63 109q0 113 -61 113t-61 -113q0 -50 16 -79.5t43 -29.5zM583 633l-384 -663h-62l384 663h62z" />
<glyph unicode="&#x2039;" horiz-adv-x="319" d="M279 12q-65 10 -128.5 71t-100.5 148q37 87 100.5 148.5t128.5 71.5v-77q-94 -45 -141 -143q47 -97 141 -142v-77z" />
<glyph unicode="&#x203a;" horiz-adv-x="319" d="M40 12v77q94 45 141 142q-47 98 -141 143v77q65 -10 128.5 -71.5t100.5 -148.5q-37 -87 -100.5 -148t-128.5 -71z" />
<glyph unicode="&#x2044;" horiz-adv-x="473" d="M453 633l-384 -663h-62l384 663h62z" />
<glyph unicode="&#x205f;" horiz-adv-x="254" />
<glyph unicode="&#x20ac;" horiz-adv-x="620" d="M116 209h-74v70h63q-1 11 -1 33q0 30 1 42h-63v70h75q28 102 96 163q66 58 153 58q106 0 192 -69l-37 -56q-68 45 -137 45q-58 0 -103 -37.5t-66 -103.5h261v-70h-275q-1 -13 -1 -46q0 -20 1 -29h275v-70h-263q43 -139 186 -139q65 0 134 47l37 -56q-84 -73 -197 -73 q-106 0 -177 73q-57 58 -80 148z" />
<glyph unicode="&#x2122;" horiz-adv-x="609" d="M25 633h190v-50h-68v-188h-54v188h-68v50zM531 633v-238h-53v155l-48 -155h-63l-48 157v-157h-54v238h81l54 -182l49 182h82z" />
<glyph unicode="&#x2126;" horiz-adv-x="614" d="M368 77q43 17 70.5 87t27.5 160q0 118 -49 184q-42 58 -111 58q-79 0 -123 -75q-38 -64 -38 -167t35 -175q27 -57 64 -72l17 -7v-70h-193v77h65q-83 80 -83 241q0 159 85 251q71 76 171 76q122 0 193 -98q65 -89 65 -229q0 -161 -83 -241h72v-77h-202v70z" />
<glyph unicode="&#x2202;" horiz-adv-x="515" d="M368 270q-40 55 -107 55q-113 0 -113 -127q0 -60 28.5 -97.5t73.5 -37.5q108 0 118 207zM88 595q68 50 146 50q119 0 180 -98q51 -81 51 -213q0 -346 -213 -346q-103 0 -160 81q-42 59 -42 133q0 94 60 149q53 48 137 48q76 0 119 -52v10q0 110 -46 165q-36 43 -94 43 q-55 0 -107 -26z" />
<glyph unicode="&#x2206;" horiz-adv-x="653" d="M559 0h-560l234 633h92zM275 538l-152 -460h311l-157 460q0 1 -1 1t-1 -1z" />
<glyph unicode="&#x220f;" horiz-adv-x="668" d="M578 633v-812h-92v736h-304v-736h-92v812h488z" />
<glyph unicode="&#x2211;" horiz-adv-x="540" d="M270 248l-235 302v83h457v-77h-360l235 -304l-223 -356h361v-75h-457v76z" />
<glyph unicode="&#x2212;" horiz-adv-x="518" d="M476 192h-434v70h434v-70z" />
<glyph unicode="&#x221a;" horiz-adv-x="583" d="M75 318l155 46l63 -249q1 -2 2 -5l1 -4l2 3l2 6l150 585h96l-202 -700h-100l-68 258l-73 -23z" />
<glyph unicode="&#x221e;" horiz-adv-x="573" d="M253 225q-21 59 -77 59q-26 0 -43.5 -16t-17.5 -40q0 -25 17.5 -40t45.5 -15q49 0 75 52zM283 292q40 68 114 68q58 0 93 -36t35 -96q0 -56 -35.5 -92.5t-89.5 -36.5q-38 0 -70.5 20t-43.5 51q-31 -71 -109 -71q-57 0 -93 36t-36 93q0 55 35 93t85 38q76 0 115 -67z M315 229q22 -56 86 -56q24 0 41.5 16t17.5 38q0 25 -17 41.5t-43 16.5q-63 0 -85 -56z" />
<glyph unicode="&#x222b;" horiz-adv-x="369" d="M109 -58v576q0 127 116 127q64 0 119 -41l-30 -46q-34 20 -69 20q-50 0 -50 -66v-576q0 -127 -116 -127q-64 0 -119 41l30 46q34 -20 69 -20q50 0 50 66z" />
<glyph unicode="&#x2248;" horiz-adv-x="495" d="M453 167q-25 -93 -97 -93q-33 0 -104 29q-12 5 -35 15q-38 17 -66 17q-40 0 -70 -55l-39 27q30 95 107 95q37 0 116 -35q58 -26 82 -26q41 0 62 54zM453 327q-25 -93 -97 -93q-33 0 -104 29q-12 5 -35 15q-38 17 -66 17q-40 0 -70 -55l-39 27q30 95 107 95q37 0 116 -35 q58 -26 82 -26q41 0 62 54z" />
<glyph unicode="&#x2260;" horiz-adv-x="518" d="M155 122h-113v70h156l44 70h-200v70h243l76 122h75l-76 -122h116v-70h-159l-44 -70h203v-70h-246l-76 -122h-75z" />
<glyph unicode="&#x2264;" horiz-adv-x="518" d="M475 404l-370 -109l370 -112v-75l-433 137v100l433 134v-75zM42 0v70h434v-70h-434z" />
<glyph unicode="&#x2265;" horiz-adv-x="518" d="M413 295l-370 109v75l433 -134v-100l-433 -137v75zM476 0h-434v70h434v-70z" />
<glyph unicode="&#x25cc;" horiz-adv-x="428" d="M214 645q15 0 15 -15t-15 -15t-15 15t15 15zM152 631q15 0 15 -15q0 -14 -15 -14t-15 14q0 15 15 15zM276 631q15 0 15 -15q0 -14 -15 -14t-15 14q0 15 15 15zM103 598q15 0 15 -15t-15 -15t-15 15t15 15zM326 598q15 0 15 -15t-15 -15q-16 0 -16 15t16 15zM71 548 q14 0 14 -14q0 -15 -14 -15q-15 0 -15 15q0 14 15 14zM358 548q14 0 14 -14q0 -15 -14 -15q-15 0 -15 15q0 14 15 14zM60 491q15 0 15 -16q0 -14 -15 -14t-15 14q0 16 15 16zM369 491q15 0 15 -16q0 -14 -15 -14t-15 14q0 16 15 16zM71 432q14 0 14 -15q0 -13 -14 -13 q-15 0 -15 13q0 15 15 15zM358 432q14 0 14 -15q0 -13 -14 -13q-15 0 -15 13q0 15 15 15zM103 383q15 0 15 -15q0 -14 -15 -14t-15 14q0 15 15 15zM326 383q15 0 15 -15q0 -14 -15 -14q-16 0 -16 14q0 15 16 15zM152 349q15 0 15 -13q0 -16 -15 -16t-15 16q0 13 15 13z M276 349q15 0 15 -13q0 -16 -15 -16t-15 16q0 13 15 13zM214 337q15 0 15 -16q0 -15 -15 -15t-15 15q0 16 15 16z" />
<glyph unicode="&#x25fc;" horiz-adv-x="455" d="M0 455h455v-455h-455v455z" />
<glyph unicode="&#xe028;" d="M49 -20q-49 0 -49 50q0 49 49 49q48 0 48 -49q0 -50 -48 -50z" />
<glyph unicode="&#xe030;" horiz-adv-x="922" d="M886 81h66v-81h-76q-84 0 -131 52q-47 -52 -131 -52h-357q-81 0 -127 54q-40 47 -40 123v121l86 46v-159q0 -104 97 -104h332q97 0 97 104v203l86 46v-253q0 -100 98 -100z" />
<glyph unicode="&#xe033;" horiz-adv-x="346" d="M310 81h66v-81h-76q-86 0 -133 55q-40 47 -41 120q-45 -31 -117 -31h-34v81h33q62 0 90 26t28 84v53l87 46v-253q0 -100 97 -100zM172 -100q48 0 48 -49q0 -50 -48 -50q-49 0 -49 50q0 49 49 49z" />
<glyph unicode="&#xe034;" horiz-adv-x="346" d="M105 548q-49 0 -49 50q0 49 49 49q48 0 48 -49q0 -50 -48 -50zM232 548q-49 0 -49 50q0 49 49 49q48 0 48 -49q0 -50 -48 -50zM310 81h66v-81h-76q-86 0 -133 55q-40 47 -41 120q-45 -31 -117 -31h-34v81h33q62 0 90 26t28 84v53l87 46v-253q0 -100 97 -100z" />
<glyph unicode="&#xe035;" horiz-adv-x="346" d="M169 667q-46 0 -46 47q0 46 46 46t46 -46q0 -47 -46 -47zM106 548q-49 0 -49 50q0 49 49 49q48 0 48 -49q0 -50 -48 -50zM185 598q0 49 49 49q48 0 48 -49q0 -50 -48 -50q-49 0 -49 50zM310 81h66v-81h-76q-86 0 -133 55q-40 47 -41 120q-45 -31 -117 -31h-34v81h33 q62 0 90 26t28 84v53l87 46v-253q0 -100 97 -100z" />
<glyph unicode="&#xe036;" horiz-adv-x="358" d="M238 53q0 -112 -59 -180q-56 -65 -149 -65q-60 0 -117 30v75q51 -28 102 -28q64 0 100 43t36 119v341l87 46v-113q0 -51 26 -73.5t85 -22.5h34v-81h-33q-68 0 -112 27v-118z" />
<glyph unicode="&#xe037;" horiz-adv-x="358" d="M190 555q-49 0 -49 50q0 49 49 49q48 0 48 -49q0 -50 -48 -50zM238 53q0 -112 -59 -180q-56 -65 -149 -65q-60 0 -117 30v75q51 -28 102 -28q64 0 100 43t36 119v341l87 46v-113q0 -51 26 -73.5t85 -22.5h34v-81h-33q-68 0 -112 27v-118z" />
<glyph unicode="&#xe038;" horiz-adv-x="709" d="M322 451q-49 0 -49 50q0 49 49 49q48 0 48 -49q0 -50 -48 -50zM589 54q0 -115 -80 -183q-71 -61 -182 -61q-130 0 -202 92q-55 71 -55 168q0 84 42 144l83 18q-45 -71 -45 -153q0 -84 52 -138q49 -50 125 -50q88 0 136 51q40 43 40 112v334l86 46v-120q0 -89 112 -89h33 v-81h-33q-66 0 -112 27v-117z" />
<glyph unicode="&#xe039;" horiz-adv-x="340" d="M172 555q-49 0 -49 50q0 49 49 49q48 0 48 -49q0 -50 -48 -50zM303 81h67v-81h-76q-85 0 -132 54q-40 45 -42 116q-43 -26 -111 -26h-34v81h33q112 0 112 90v73l86 46v-253q0 -100 97 -100z" />
<glyph unicode="&#xe03a;" horiz-adv-x="346" d="M310 81h66v-81h-76q-86 0 -133 55q-40 47 -41 120q-45 -31 -117 -31h-34v81h33q62 0 90 26t28 84v53l87 46v-253q0 -100 97 -100zM113 -100q48 0 48 -50q0 -49 -48 -49q-49 0 -49 49q0 50 49 50zM241 -100q48 0 48 -50q0 -49 -48 -49q-49 0 -49 49q0 50 49 50z" />
<glyph unicode="&#xe03b;" horiz-adv-x="346" d="M275 605l-23 -43h-165l23 43h27q-10 18 -10 38q0 29 22 50.5t52 21.5q25 0 48 -16v-44q-22 17 -42 17q-37 0 -37 -33q0 -17 14 -34h91zM310 81h66v-81h-76q-86 0 -133 55q-40 47 -41 120q-45 -31 -117 -31h-34v81h33q62 0 90 26t28 84v53l87 46v-253q0 -100 97 -100z" />
<glyph unicode="&#xe03d;" horiz-adv-x="699" d="M609 54q0 -115 -80 -183q-71 -61 -182 -61q-130 0 -202 92q-55 71 -55 168q0 84 42 144l83 18q-45 -71 -45 -153q0 -84 52 -138q49 -50 125 -50q88 0 136 51q40 43 40 112v334l86 46v-380z" />
<glyph unicode="&#xe03e;" horiz-adv-x="800" d="M535 75q-3 -177 -185 -177q-84 0 -140 43q-110 83 -110 249q0 211 248 345q-68 56 -68 140q0 56 34 89.5t90 33.5q57 0 90 -32.5t33 -87.5q0 -81 -82 -145q255 -133 255 -355q0 -166 -127 -258v33q72 82 72 224q0 96 -64 178t-183 137q-121 -54 -183 -137 q-56 -76 -56 -166q0 -129 84 -199q45 -37 107 -37q63 0 90.5 24.5t29.5 82.5q-31 -25 -72 -25q-60 0 -98.5 43.5t-38.5 112.5q0 70 40 114.5t103 44.5q62 0 97.5 -36t35.5 -98zM397 561q72 41 72 111q-2 68 -64 68q-66 0 -66 -67q0 -66 58 -112zM471 209q0 82 -67 82 q-34 0 -55.5 -27.5t-21.5 -71.5q0 -43 20 -70.5t51 -27.5q48 0 73 44v71z" />
<glyph unicode="&#xe800;" d="M262 948l-30 -64l-213 -39l30 65zM2 744l30 64l214 39l-30 -64zM181 632v51l48 27v-81q0 -28 -19 -46t-49 -18q-26 0 -45 14q-19 -14 -45 -14q-30 0 -49.5 18t-19.5 46v31l49 27v-55q0 -20 20 -20t20 17v44l49 27v-71q0 -17 21 -17q20 0 20 20z" />
<glyph unicode="&#xfbb2;" d="M49 -20q-49 0 -49 50q0 49 49 49q48 0 48 -49q0 -50 -48 -50z" />
<glyph unicode="&#xfbb3;" d="M49 -20q-49 0 -49 50q0 49 49 49q48 0 48 -49q0 -50 -48 -50z" />
<glyph unicode="&#xfbb4;" d="M49 0q-49 0 -49 50q0 49 49 49q48 0 48 -49q0 -50 -48 -50zM176 0q-49 0 -49 50q0 49 49 49q48 0 48 -49q0 -50 -48 -50z" />
<glyph unicode="&#xfbb5;" d="M49 0q-49 0 -49 50q0 49 49 49q48 0 48 -49q0 -50 -48 -50zM176 0q-49 0 -49 50q0 49 49 49q48 0 48 -49q0 -50 -48 -50z" />
<glyph unicode="&#xfbb6;" d="M112 118q-44 0 -44 45q0 44 44 44t44 -44q0 -45 -44 -45zM49 -1q-49 0 -49 50q0 49 49 49q48 0 48 -49q0 -50 -48 -50zM176 -1q-49 0 -49 50q0 49 49 49q48 0 48 -49q0 -50 -48 -50z" />
<glyph unicode="&#xfbb7;" d="M49 93q-49 0 -49 48q0 50 49 50q48 0 48 -50q0 -48 -48 -48zM176 93q-49 0 -49 48q0 50 49 50q48 0 48 -50q0 -48 -48 -48zM112 -17q-44 0 -44 44q0 46 44 46t44 -46q0 -44 -44 -44z" />
<glyph unicode="&#xfd3e;" horiz-adv-x="403" d="M290 -77q-119 64 -180 183q-50 98 -50 210q0 129 65 236q61 100 166 156v-76q-69 -53 -107.5 -137t-38.5 -182q0 -95 38 -177.5t107 -135.5v-77z" />
<glyph unicode="&#xfd3f;" horiz-adv-x="403" d="M112 -77v77q69 53 107.5 136.5t38.5 179.5q-2 98 -40.5 181t-106.5 135v76q120 -64 181 -184q50 -98 50 -211q0 -129 -66 -236q-61 -98 -164 -154z" />
</font>
</defs>
</svg>
