<?xml version="1.0" standalone="no"?>
<!DOCTYPE svg PUBLIC "-//W3C//DTD SVG 1.1//EN" "http://www.w3.org/Graphics/SVG/1.1/DTD/svg11.dtd" >
<svg xmlns="http://www.w3.org/2000/svg" xmlns:xlink="http://www.w3.org/1999/xlink" version="1.1">
<metadata></metadata>
<defs>
<font id="tajawalblack" horiz-adv-x="0" >
<font-face units-per-em="1000" ascent="643" descent="-357" />
<missing-glyph horiz-adv-x="253" />
<glyph unicode="ff" horiz-adv-x="793" d="M499 333h-247v-333h-150v333h-73v121h73v58q0 70 30 101.5t96 31.5q91 0 167 -62l-56 -78q-44 30 -62 30q-25 0 -25 -41v-40h247v58q0 70 29.5 101.5t95.5 31.5q91 0 167 -62l-55 -78q-45 30 -63 30q-24 0 -24 -41v-40h126v-121h-126v-333h-150v333z" />
<glyph unicode="fi" horiz-adv-x="692" d="M471 333h-219v-333h-150v333h-73v121h73v58q0 70 30 101.5t96 31.5q91 0 167 -62l-56 -78q-44 30 -62 30q-25 0 -25 -41v-40h371v-454h-152v333zM457 582v2q0 37 25 63.5t61 26.5q38 0 64.5 -26t26.5 -64v-2q0 -84 -91 -88q-86 6 -86 88z" />
<glyph unicode="fl" horiz-adv-x="676" d="M29 333v121h73v58q0 70 30 101.5t96 31.5q91 0 167 -62l-56 -78q-44 30 -62 30q-25 0 -25 -41v-40h126v-121h-126v-333h-150v333h-73zM611 645v-645h-150v567z" />
<glyph unicode="ffi" horiz-adv-x="1089" d="M499 333h-247v-333h-150v333h-73v121h73v58q0 70 30 101.5t96 31.5q91 0 167 -62l-56 -78q-44 30 -62 30q-25 0 -25 -41v-40h247v58q0 70 29.5 101.5t95.5 31.5q91 0 167 -62l-55 -78q-45 30 -63 30q-24 0 -24 -41v-40h370v-454h-151v333h-219v-333h-150v333zM853 582v2 q1 37 26 63.5t60 26.5h1q37 0 63.5 -26t26.5 -64v-2q0 -84 -91 -88q-86 6 -86 88z" />
<glyph unicode="&#x627;&#xfedf;&#xfee0;&#xfeea;" horiz-adv-x="1627" arabic-form="isolated" d="M787 1106v-203l-92 -50v203zM741 656q-28 -14 -60 -14q-45 0 -73.5 25.5t-28.5 65.5v55l92 51v-99q0 -10 12 -10t12 10v58l92 51v-109q0 -10 12 -10t12 10v68l92 51v-126q0 -40 -29 -65.5t-75 -25.5q-34 0 -58 14zM1027 491l165 88v-351q0 -106 -65 -169 q-60 -59 -158 -59h-128q-71 0 -121 36q-55 -36 -131 -36h-128q-72 0 -123 38q-40 -29 -106 -29q-96 0 -154 71q-48 58 -48 137q0 101 69 166q57 52 128 52q23 0 40 -4v14l165 87v-328q0 -26 9 -35t35 -9h106q38 0 51.5 14.5t13.5 54.5v262l165 88v-375q0 -26 9 -35t35 -9 h106q38 0 51.5 14.5t13.5 54.5v262zM267 274q-12 5 -27 5q-22 0 -35 -18t-13 -48q0 -65 50 -65q20 0 28 8q-3 20 -3 40v78zM1372 0v557l165 88v-645h-165z" />
<glyph unicode="&#xfedf;&#xfe82;" horiz-adv-x="743" arabic-form="isolated" d="M458 612q-55 -63 -107 -63q-21 0 -65 23q-35 18 -48 18h-1q-18 0 -52 -37l-55 51q57 63 107 63q23 0 70 -24q32 -16 44 -16q17 0 55 37zM488 557l165 88v-417q0 -106 -65 -169q-60 -59 -158 -59h-410l83 160h119v267l165 88v-355h36q38 0 51.5 14.5t13.5 54.5v328z" />
<glyph unicode="&#xfee0;&#xfe82;" horiz-adv-x="780" arabic-form="final" d="M458 612q-55 -63 -107 -63q-21 0 -65 23q-35 18 -48 18h-1q-18 0 -52 -37l-55 51q57 63 107 63q23 0 70 -24q32 -16 44 -16q17 0 55 37zM697 160h93v-160h-108q-71 0 -121 36q-55 -36 -131 -36h-410l83 160h119v267l165 88v-355h36q38 0 51.5 14.5t13.5 54.5v328l165 88 v-441q0 -26 9 -35t35 -9z" />
<glyph unicode="&#xfedf;&#xfe84;" horiz-adv-x="743" arabic-form="isolated" d="M439 638l-39 -73h-207l39 73h33q-12 21 -12 44q0 37 27 62q24 23 60 23t65 -27v-71q-28 25 -54 25q-16 0 -24 -8q-7 -7 -7 -18q0 -14 13 -30h106zM488 557l165 88v-417q0 -106 -65 -169q-60 -59 -158 -59h-410l83 160h119v267l165 88v-355h36q38 0 51.5 14.5t13.5 54.5 v328z" />
<glyph unicode="&#xfee0;&#xfe84;" horiz-adv-x="780" arabic-form="final" d="M439 638l-39 -73h-207l39 73h33q-12 21 -12 44q0 37 27 62q24 23 60 23t65 -27v-71q-28 25 -54 25q-16 0 -24 -8q-7 -7 -7 -18q0 -14 13 -30h106zM697 160h93v-160h-108q-71 0 -121 36q-55 -36 -131 -36h-410l83 160h119v267l165 88v-355h36q38 0 51.5 14.5t13.5 54.5 v328l165 88v-441q0 -26 9 -35t35 -9z" />
<glyph unicode="&#xfedf;&#xfe88;" horiz-adv-x="743" arabic-form="isolated" d="M488 557l165 88v-417q0 -106 -65 -169q-60 -59 -158 -59h-410l83 160h119v267l165 88v-355h36q38 0 51.5 14.5t13.5 54.5v328zM394 -131q-28 25 -54 25q-16 0 -24 -8q-7 -7 -7 -18q0 -14 13 -30h106l-39 -73h-207l39 73h33q-12 21 -12 44q0 37 27 62q24 23 60 23t65 -27 v-71z" />
<glyph unicode="&#xfee0;&#xfe88;" horiz-adv-x="780" arabic-form="final" d="M697 160h93v-160h-108q-71 0 -121 36q-55 -36 -131 -36h-410l83 160h119v267l165 88v-355h36q38 0 51.5 14.5t13.5 54.5v328l165 88v-441q0 -26 9 -35t35 -9zM394 -131q-28 25 -54 25q-16 0 -24 -8q-7 -7 -7 -18q0 -14 13 -30h106l-39 -73h-207l39 73h33q-12 21 -12 44 q0 37 27 62q24 23 60 23t65 -27v-71z" />
<glyph unicode="&#xfedf;&#xfe8e;" horiz-adv-x="743" arabic-form="isolated" d="M488 557l165 88v-417q0 -106 -65 -169q-60 -59 -158 -59h-410l83 160h119v267l165 88v-355h36q38 0 51.5 14.5t13.5 54.5v328z" />
<glyph unicode="&#xfee0;&#xfe8e;" horiz-adv-x="780" arabic-form="final" d="M697 160h93v-160h-108q-71 0 -121 36q-55 -36 -131 -36h-410l83 160h119v267l165 88v-355h36q38 0 51.5 14.5t13.5 54.5v328l165 88v-441q0 -26 9 -35t35 -9z" />
<glyph unicode="&#x67e;" horiz-adv-x="954" arabic-form="final" d="M871 160h93v-160h-108q-64 0 -111 30q-49 -30 -112 -30h-357q-89 0 -141 60q-45 53 -45 136v82l164 87v-161q0 -26 9 -35t35 -9h320q26 0 35 9t9 35v164l165 87v-251q0 -26 9 -35t35 -9zM430 -163q0 -37 -22.5 -59.5t-59.5 -22.5t-60 22.5t-23 59.5t23 60.5t60 23.5 t59.5 -23t22.5 -61zM528 -79q37 0 59.5 -23t22.5 -61q0 -37 -22.5 -59.5t-59.5 -22.5t-60 22.5t-23 59.5t23 60.5t60 23.5zM437 -255q34 0 54.5 -21t20.5 -55q0 -33 -20.5 -53.5t-54.5 -20.5t-54.5 20.5t-20.5 53.5q0 34 20.5 55t54.5 21z" />
<glyph unicode="&#x67e;" horiz-adv-x="382" arabic-form="initial" d="M-10 0v160h93q26 0 35 9t9 35v164l165 87v-259q0 -95 -60 -149q-52 -47 -134 -47h-108zM24 -245q-37 0 -60 22.5t-23 59.5t23 60.5t60 23.5t59.5 -23t22.5 -61q0 -37 -22.5 -59.5t-59.5 -22.5zM204 -245q-37 0 -60 22.5t-23 59.5t23 60.5t60 23.5t59.5 -23t22.5 -61 q0 -37 -22.5 -59.5t-59.5 -22.5zM113 -405q-34 0 -54.5 20.5t-20.5 53.5q0 34 20.5 55t54.5 21t54.5 -21t20.5 -55q0 -33 -20.5 -53.5t-54.5 -20.5z" />
<glyph unicode="&#x67e;" horiz-adv-x="419" arabic-form="medial" d="M336 160h93v-160h-108q-64 0 -111 30q-49 -30 -112 -30h-108v160h93q26 0 35 9t9 35v164l165 87v-251q0 -26 9 -35t35 -9zM126 -163q0 -37 -22.5 -59.5t-59.5 -22.5t-60 22.5t-23 59.5t23 60.5t60 23.5t59.5 -23t22.5 -61zM224 -79q37 0 59.5 -23t22.5 -61 q0 -37 -22.5 -59.5t-59.5 -22.5t-60 22.5t-23 59.5t23 60.5t60 23.5zM133 -255q34 0 54.5 -21t20.5 -55q0 -33 -20.5 -53.5t-54.5 -20.5t-54.5 20.5t-20.5 53.5q0 34 20.5 55t54.5 21z" />
<glyph unicode="&#x6a4;" horiz-adv-x="1028" arabic-form="final" d="M741 691q-34 0 -54.5 20.5t-20.5 55.5q0 34 20.5 54t54.5 20t54.5 -20t20.5 -54t-20.5 -55t-54.5 -21zM652 515q-37 0 -60 23.5t-23 60.5t23 59.5t60 22.5t59.5 -22.5t22.5 -59.5q0 -38 -22.5 -61t-59.5 -23zM749 599q0 37 23 59.5t60 22.5t59.5 -22.5t22.5 -59.5 q0 -38 -22.5 -61t-59.5 -23t-60 23.5t-23 60.5zM920 160h118v-160h-212q-55 0 -92 8q-37 -8 -92 -8h-366q-89 0 -141 60q-45 53 -45 136v82l164 87v-161q0 -26 9 -35t35 -9h250q-21 47 -21 92q0 102 61 165q57 58 146 58q102 0 160 -74q47 -61 47 -149q0 -45 -21 -92z M734 176q47 31 47 87q0 57 -47 57t-47 -56q0 -58 47 -88z" />
<glyph unicode="&#x6a4;" horiz-adv-x="579" arabic-form="initial" d="M290 691q-34 0 -54.5 20.5t-20.5 55.5q0 34 20.5 54t54.5 20t54.5 -20t20.5 -54t-20.5 -55t-54.5 -21zM201 515q-37 0 -60 23.5t-23 60.5t23 59.5t60 22.5t59.5 -22.5t22.5 -59.5q0 -38 -22.5 -61t-59.5 -23zM381 515q-37 0 -60 23.5t-23 60.5t23 59.5t60 22.5 t59.5 -22.5t22.5 -59.5q0 -38 -22.5 -61t-59.5 -23zM-10 0v160h121q-14 37 -14 78q0 112 63 178q56 59 147 59q93 0 146 -60q46 -51 46 -133v-86q0 -88 -52 -142t-142 -54h-315zM334 288q0 32 -27 32q-48 0 -48 -76q0 -84 48 -84q27 0 27 32v96z" />
<glyph unicode="&#x6a4;" horiz-adv-x="588" arabic-form="medial" d="M290 691q-34 0 -54.5 20.5t-20.5 55.5q0 34 20.5 54t54.5 20t54.5 -20t20.5 -54t-20.5 -55t-54.5 -21zM201 515q-37 0 -60 23.5t-23 60.5t23 59.5t60 22.5t59.5 -22.5t22.5 -59.5q0 -38 -22.5 -61t-59.5 -23zM298 599q0 37 23 59.5t60 22.5t59.5 -22.5t22.5 -59.5 q0 -38 -22.5 -61t-59.5 -23t-60 23.5t-23 60.5zM480 160h118v-160h-212q-55 0 -92 8q-37 -8 -92 -8h-212v160h118q-21 47 -21 92q0 102 61 165q57 58 146 58q102 0 160 -74q47 -61 47 -149q0 -45 -21 -92zM294 176q47 31 47 87q0 57 -47 57t-47 -56q0 -58 47 -88z" />
<glyph unicode="&#x649;" horiz-adv-x="382" arabic-form="initial" d="M-10 0v160h93q26 0 35 9t9 35v164l165 87v-259q0 -95 -60 -149q-52 -47 -134 -47h-108z" />
<glyph unicode="&#x649;" horiz-adv-x="419" arabic-form="medial" d="M336 160h93v-160h-108q-64 0 -111 30q-49 -30 -112 -30h-108v160h93q26 0 35 9t9 35v164l165 87v-251q0 -26 9 -35t35 -9z" />
<glyph unicode="&#xfc59;" horiz-adv-x="1171" arabic-form="isolated" d="M819 -247q-37 0 -60 23.5t-23 60.5t23 59.5t60 22.5t59.5 -22.5t22.5 -59.5q0 -38 -22.5 -61t-59.5 -23zM999 -247q-37 0 -60 23.5t-23 60.5t23 59.5t60 22.5t59.5 -22.5t22.5 -59.5q0 -38 -22.5 -61t-59.5 -23zM720 0q-16 -96 -114 -147q-84 -43 -209 -43 q-175 0 -262 99q-65 74 -65 180q0 74 33 131l156 33q-34 -65 -34 -135q0 -158 172 -158q117 0 150 40h-92l83 160h307q26 0 35 9t9 35v164l165 87v-259q0 -95 -60 -149q-53 -47 -134 -47h-140z" />
<glyph unicode="&#xfc5a;" horiz-adv-x="1171" arabic-form="isolated" d="M720 0q-16 -96 -114 -147q-84 -43 -209 -43q-175 0 -262 99q-65 74 -65 180q0 74 33 131l156 33q-34 -65 -34 -135q0 -158 172 -158q117 0 150 40h-92l83 160h307q26 0 35 9t9 35v164l165 87v-259q0 -95 -60 -149q-53 -47 -134 -47h-140zM311 -415q-37 0 -60 23.5 t-23 60.5t23 59.5t60 22.5t59.5 -22.5t22.5 -59.5q0 -38 -22.5 -61t-59.5 -23zM491 -415q-37 0 -60 23.5t-23 60.5t23 59.5t60 22.5t59.5 -22.5t22.5 -59.5q0 -38 -22.5 -61t-59.5 -23zM819 -247q-37 0 -60 23.5t-23 60.5t23 59.5t60 22.5t59.5 -22.5t22.5 -59.5 q0 -38 -22.5 -61t-59.5 -23zM999 -247q-37 0 -60 23.5t-23 60.5t23 59.5t60 22.5t59.5 -22.5t22.5 -59.5q0 -38 -22.5 -61t-59.5 -23z" />
<glyph unicode="&#xfc5e;" arabic-form="isolated" d="M223 948q-9 26 -9 52q0 52 32.5 88.5t78.5 36.5q48 0 80 -37t32 -91q0 -72 -47 -115.5t-124 -43.5q-66 0 -132 36l-21 -34l-103 73l67 102h37q48 -62 109 -67zM328 981q17 12 17 29q0 23 -18 23t-18 -23q0 -18 19 -29zM287 663v68l92 51v-126q0 -40 -29 -65.5t-75 -25.5 q-34 0 -58 14q-28 -14 -60 -14q-45 0 -73.5 25.5t-28.5 65.5v55l92 51v-99q0 -10 12 -10t12 10v58l92 51v-109q0 -10 12 -10t12 10z" />
<glyph unicode="&#xfc5f;" arabic-form="isolated" d="M218 963q-28 -14 -60 -14q-45 0 -73.5 25.5t-28.5 65.5v55l92 51v-99q0 -10 12 -10t12 10v58l92 51v-109q0 -10 12 -10t12 10v68l92 51v-126q0 -40 -29 -65.5t-75 -25.5q-34 0 -58 14zM403 928l-60 -128l-313 -57l60 129zM0 563l60 129l313 56l-60 -128z" />
<glyph unicode="&#xfc60;" arabic-form="isolated" d="M383 1000l-60 -128l-313 -57l60 129zM242 663v68l92 51v-126q0 -40 -29 -65.5t-75 -25.5q-34 0 -58 14q-28 -14 -60 -14q-45 0 -73.5 25.5t-28.5 65.5v55l92 51v-99q0 -10 12 -10t12 10v58l92 51v-109q0 -10 12 -10t12 10z" />
<glyph unicode="&#xfc61;" arabic-form="isolated" d="M177 945q-11 28 -11 55q0 52 32.5 88.5t78.5 36.5q48 0 80 -35.5t32 -89.5q0 -52 -31 -90.5t-78 -45.5l-270 -49l51 109zM280 981q17 12 17 29q0 23 -18 23t-18 -23q0 -18 19 -29zM242 663v68l92 51v-126q0 -40 -29 -65.5t-75 -25.5q-34 0 -58 14q-28 -14 -60 -14 q-45 0 -73.5 25.5t-28.5 65.5v55l92 51v-99q0 -10 12 -10t12 10v58l92 51v-109q0 -10 12 -10t12 10z" />
<glyph unicode="&#xfc62;" arabic-form="isolated" d="M193 836q-28 -14 -60 -14q-45 0 -73.5 25.5t-28.5 65.5v55l92 51v-99q0 -10 12 -10t12 10v58l92 51v-109q0 -10 12 -10t12 10v68l92 51v-126q0 -40 -29 -65.5t-75 -25.5q-34 0 -58 14zM60 693l313 56l-60 -128l-313 -57z" />
<glyph unicode="&#xfc63;" arabic-form="isolated" d="M230 1071v-203l-92 -50v203zM184 621q-28 -14 -60 -14q-45 0 -73.5 25.5t-28.5 65.5v55l92 51v-99q0 -10 12 -10t12 10v58l92 51v-109q0 -10 12 -10t12 10v68l92 51v-126q0 -40 -29 -65.5t-75 -25.5q-34 0 -58 14z" />
<glyph unicode="&#xfc95;" horiz-adv-x="1181" arabic-form="final" d="M720 0q-16 -96 -114 -147q-84 -43 -209 -43q-175 0 -262 99q-65 74 -65 180q0 74 33 131l156 33q-34 -65 -34 -135q0 -158 172 -158q117 0 150 40h-92l83 160h307q26 0 35 9t9 35v164l165 87v-251q0 -26 9 -35t35 -9h93v-160h-108q-64 0 -111 30q-49 -30 -112 -30h-140z M817 -81q37 0 59.5 -22.5t22.5 -59.5q0 -38 -22.5 -61t-59.5 -23t-60 23.5t-23 60.5t23 59.5t60 22.5zM997 -81q37 0 59.5 -22.5t22.5 -59.5q0 -38 -22.5 -61t-59.5 -23t-60 23.5t-23 60.5t23 59.5t60 22.5z" />
<glyph unicode="&#xfc96;" horiz-adv-x="1181" arabic-form="final" d="M720 0q-16 -96 -114 -147q-84 -43 -209 -43q-175 0 -262 99q-65 74 -65 180q0 74 33 131l156 33q-34 -65 -34 -135q0 -158 172 -158q117 0 150 40h-92l83 160h307q26 0 35 9t9 35v164l165 87v-251q0 -26 9 -35t35 -9h93v-160h-108q-64 0 -111 30q-49 -30 -112 -30h-140z M311 -415q-37 0 -60 23.5t-23 60.5t23 59.5t60 22.5t59.5 -22.5t22.5 -59.5q0 -38 -22.5 -61t-59.5 -23zM491 -415q-37 0 -60 23.5t-23 60.5t23 59.5t60 22.5t59.5 -22.5t22.5 -59.5q0 -38 -22.5 -61t-59.5 -23zM817 -81q37 0 59.5 -22.5t22.5 -59.5q0 -38 -22.5 -61 t-59.5 -23t-60 23.5t-23 60.5t23 59.5t60 22.5zM997 -81q37 0 59.5 -22.5t22.5 -59.5q0 -38 -22.5 -61t-59.5 -23t-60 23.5t-23 60.5t23 59.5t60 22.5z" />
<glyph unicode="&#x622;" horiz-adv-x="382" arabic-form="final" d="M349 760q-55 -63 -107 -63q-21 0 -65 23q-35 18 -48 18h-1q-18 0 -52 -37l-55 51q57 63 107 63q23 0 70 -24q32 -16 44 -16q17 0 55 37zM284 0q-94 0 -147 60q-47 53 -47 136v362l165 87v-441q0 -26 9 -35t35 -9h93v-160h-108z" />
<glyph unicode="&#x623;" horiz-adv-x="382" arabic-form="final" d="M47 662l39 73h33q-12 21 -12 44q0 37 27 62q24 23 60 23t65 -27v-71q-28 25 -54 25q-16 0 -24 -8q-7 -7 -7 -18q0 -14 13 -30h106l-39 -73h-207zM284 0q-94 0 -147 60q-47 53 -47 136v322l165 87v-401q0 -26 9 -35t35 -9h93v-160h-108z" />
<glyph unicode="&#x624;" horiz-adv-x="562" arabic-form="final" d="M374 638l-39 -73h-207l39 73h33q-12 21 -12 44q0 37 27 62q24 23 60 23t65 -27v-71q-28 25 -54 25q-16 0 -24 -8q-7 -7 -7 -18q0 -14 13 -30h106zM572 160v-160h-101q-9 -93 -84 -146q-62 -44 -145 -44q-66 0 -133 41v143q65 -38 119 -38q28 0 51.5 14.5t27.5 34.5 q-18 1 -45 5q-97 15 -154 88q-48 62 -48 140q0 113 63 178q57 59 149 59q99 0 153 -60q47 -51 47 -133v-122h100zM307 282q0 38 -35 38q-50 0 -50 -76q0 -62 50 -75q7 -2 24 -5q7 0 11 -1v119z" />
<glyph unicode="&#x625;" horiz-adv-x="382" arabic-form="final" d="M284 0q-94 0 -147 60q-47 53 -47 136v362l165 87v-441q0 -26 9 -35t35 -9h93v-160h-108zM51 -297l39 73h33q-12 21 -12 44q0 37 27 62q24 23 60 23t65 -27v-71q-28 25 -54 25q-16 0 -24 -8q-7 -7 -7 -18q0 -14 13 -30h106l-39 -73h-207z" />
<glyph unicode="&#x626;" horiz-adv-x="703" arabic-form="final" d="M112 340l39 73h33q-12 21 -12 44q0 37 27 62q24 23 60 23t65 -27v-71q-28 25 -54 25q-16 0 -24 -8q-7 -7 -7 -18q0 -14 13 -30h106l-39 -73h-207zM720 0q-16 -96 -114 -147q-84 -43 -209 -43q-175 0 -262 99q-65 74 -65 180q0 74 33 131l156 33q-34 -65 -34 -135 q0 -158 172 -158q117 0 150 40h-92l83 160h185v-160h-3z" />
<glyph unicode="&#x626;" horiz-adv-x="382" arabic-form="initial" d="M59 565l39 73h33q-12 21 -12 44q0 37 27 62q24 23 60 23t65 -27v-71q-28 25 -54 25q-16 0 -24 -8q-7 -7 -7 -18q0 -14 13 -30h106l-39 -73h-207zM-10 0v160h93q26 0 35 9t9 35v164l165 87v-259q0 -95 -60 -149q-52 -47 -134 -47h-108z" />
<glyph unicode="&#x626;" horiz-adv-x="419" arabic-form="medial" d="M341 638l-39 -73h-207l39 73h33q-12 21 -12 44q0 37 27 62q24 23 60 23t65 -27v-71q-28 25 -54 25q-16 0 -24 -8q-7 -7 -7 -18q0 -14 13 -30h106zM336 160h93v-160h-108q-64 0 -111 30q-49 -30 -112 -30h-108v160h93q26 0 35 9t9 35v164l165 87v-251q0 -26 9 -35t35 -9z " />
<glyph unicode="&#x627;" horiz-adv-x="382" arabic-form="final" d="M284 0q-94 0 -147 60q-47 53 -47 136v362l165 87v-441q0 -26 9 -35t35 -9h93v-160h-108z" />
<glyph unicode="&#x628;" horiz-adv-x="934" arabic-form="final" d="M871 160h93v-160h-108q-64 0 -111 30q-49 -30 -112 -30h-357q-89 0 -141 60q-45 53 -45 136v82l164 87v-161q0 -26 9 -35t35 -9h320q26 0 35 9t9 35v164l165 87v-251q0 -26 9 -35t35 -9zM452 -81q37 0 59.5 -22.5t22.5 -59.5q0 -38 -22.5 -61t-59.5 -23t-60 23.5 t-23 60.5t23 59.5t60 22.5z" />
<glyph unicode="&#x628;" horiz-adv-x="382" arabic-form="initial" d="M-10 0v160h93q26 0 35 9t9 35v164l165 87v-259q0 -95 -60 -149q-52 -47 -134 -47h-108zM167 -247q-37 0 -60 23.5t-23 60.5t23 59.5t60 22.5t59.5 -22.5t22.5 -59.5q0 -38 -22.5 -61t-59.5 -23z" />
<glyph unicode="&#x628;" horiz-adv-x="419" arabic-form="medial" d="M336 160h93v-160h-108q-64 0 -111 30q-49 -30 -112 -30h-108v160h93q26 0 35 9t9 35v164l165 87v-251q0 -26 9 -35t35 -9zM227 -81q37 0 59.5 -22.5t22.5 -59.5q0 -38 -22.5 -61t-59.5 -23t-60 23.5t-23 60.5t23 59.5t60 22.5z" />
<glyph unicode="&#x629;" horiz-adv-x="559" arabic-form="final" d="M143 565q-37 0 -60 23.5t-23 60.5t23 59.5t60 22.5t59.5 -22.5t22.5 -59.5q0 -38 -22.5 -61t-59.5 -23zM323 565q-37 0 -60 23.5t-23 60.5t23 59.5t60 22.5t59.5 -22.5t22.5 -59.5q0 -38 -22.5 -61t-59.5 -23zM476 160h93v-160h-108q-84 0 -137 50q-38 -21 -92 -21 q-96 0 -154 71q-48 58 -48 137q0 101 69 166q57 52 128 52q23 0 40 -4v14l165 87v-348q0 -26 9 -35t35 -9zM267 294q-12 5 -27 5q-22 0 -35 -18t-13 -48q0 -65 50 -65q14 0 26 6q-1 7 -1 22v98z" />
<glyph unicode="&#x62a;" horiz-adv-x="934" arabic-form="final" d="M367 465q-37 0 -60 23.5t-23 60.5t23 59.5t60 22.5t59.5 -22.5t22.5 -59.5q0 -38 -22.5 -61t-59.5 -23zM547 465q-37 0 -60 23.5t-23 60.5t23 59.5t60 22.5t59.5 -22.5t22.5 -59.5q0 -38 -22.5 -61t-59.5 -23zM871 160h93v-160h-108q-64 0 -111 30q-49 -30 -112 -30h-357 q-89 0 -141 60q-45 53 -45 136v82l164 87v-161q0 -26 9 -35t35 -9h320q26 0 35 9t9 35v164l165 87v-251q0 -26 9 -35t35 -9z" />
<glyph unicode="&#x62a;" horiz-adv-x="382" arabic-form="initial" d="M37 535q-37 0 -60 23.5t-23 60.5t23 59.5t60 22.5t59.5 -22.5t22.5 -59.5q0 -38 -22.5 -61t-59.5 -23zM217 535q-37 0 -60 23.5t-23 60.5t23 59.5t60 22.5t59.5 -22.5t22.5 -59.5q0 -38 -22.5 -61t-59.5 -23zM-10 0v160h93q26 0 35 9t9 35v164l165 87v-259 q0 -95 -60 -149q-52 -47 -134 -47h-108z" />
<glyph unicode="&#x62a;" horiz-adv-x="419" arabic-form="medial" d="M129 599q0 -38 -22.5 -61t-59.5 -23t-60 23.5t-23 60.5t23 59.5t60 22.5t59.5 -22.5t22.5 -59.5zM227 515q-37 0 -60 23.5t-23 60.5t23 59.5t60 22.5t59.5 -22.5t22.5 -59.5q0 -38 -22.5 -61t-59.5 -23zM336 160h93v-160h-108q-64 0 -111 30q-49 -30 -112 -30h-108v160 h93q26 0 35 9t9 35v164l165 87v-251q0 -26 9 -35t35 -9z" />
<glyph unicode="&#x62b;" horiz-adv-x="934" arabic-form="final" d="M486 641q-34 0 -54.5 21t-20.5 55q0 33 20.5 53.5t54.5 20.5t54.5 -20.5t20.5 -53.5q0 -34 -20.5 -55t-54.5 -21zM397 465q-37 0 -60 23.5t-23 60.5t23 59.5t60 22.5t59.5 -22.5t22.5 -59.5q0 -38 -22.5 -61t-59.5 -23zM494 549q0 37 23 59.5t60 22.5t59.5 -22.5 t22.5 -59.5q0 -38 -22.5 -61t-59.5 -23t-60 23.5t-23 60.5zM871 160h93v-160h-108q-64 0 -111 30q-49 -30 -112 -30h-357q-89 0 -141 60q-45 53 -45 136v82l164 87v-161q0 -26 9 -35t35 -9h320q26 0 35 9t9 35v164l165 87v-251q0 -26 9 -35t35 -9z" />
<glyph unicode="&#x62b;" horiz-adv-x="382" arabic-form="initial" d="M126 711q-34 0 -54.5 20.5t-20.5 55.5q0 34 20.5 54t54.5 20t54.5 -20t20.5 -54t-20.5 -55t-54.5 -21zM37 535q-37 0 -60 23.5t-23 60.5t23 59.5t60 22.5t59.5 -22.5t22.5 -59.5q0 -38 -22.5 -61t-59.5 -23zM217 535q-37 0 -60 23.5t-23 60.5t23 59.5t60 22.5t59.5 -22.5 t22.5 -59.5q0 -38 -22.5 -61t-59.5 -23zM-10 0v160h93q26 0 35 9t9 35v164l165 87v-259q0 -95 -60 -149q-52 -47 -134 -47h-108z" />
<glyph unicode="&#x62b;" horiz-adv-x="419" arabic-form="medial" d="M136 691q-34 0 -54.5 21t-20.5 55q0 33 20.5 53.5t54.5 20.5t54.5 -20.5t20.5 -53.5q0 -34 -20.5 -55t-54.5 -21zM129 599q0 -38 -22.5 -61t-59.5 -23t-60 23.5t-23 60.5t23 59.5t60 22.5t59.5 -22.5t22.5 -59.5zM144 599q0 37 23 59.5t60 22.5t59.5 -22.5t22.5 -59.5 q0 -38 -22.5 -61t-59.5 -23t-60 23.5t-23 60.5zM336 160h93v-160h-108q-64 0 -111 30q-49 -30 -112 -30h-108v160h93q26 0 35 9t9 35v164l165 87v-251q0 -26 9 -35t35 -9z" />
<glyph unicode="&#x62c;" horiz-adv-x="745" arabic-form="final" d="M691 160h84v-160h-85q-77 0 -125 17.5t-90 61.5q-24 -9 -76 -22q-97 -25 -129 -51q-40 -34 -40 -97q0 -124 130 -124h4q92 2 185 56v-158q-92 -58 -205 -58q-125 0 -200 77q-74 76 -74 207q0 137 77 209q58 55 209 91q62 15 86 25q-57 88 -134 88q-76 0 -180 -87v141 q86 99 199 99h2q81 0 157 -58.5t134 -164.5v-56q-7 -14 -17 -29q29 -7 88 -7zM296 -83q0 30 19 49t50 19q30 0 49 -19t19 -49q0 -32 -18.5 -51t-49.5 -19t-50 19.5t-19 50.5z" />
<glyph unicode="&#x62c;" horiz-adv-x="601" arabic-form="initial" d="M-10 0v160h140q149 0 241 77q-57 85 -132 85q-76 0 -180 -87v141q86 99 199 99h2q81 0 157 -58.5t134 -164.5v-56q-73 -94 -183 -145t-239 -51h-139zM298 -247q-37 0 -60 23.5t-23 60.5t23 59.5t60 22.5t59.5 -22.5t22.5 -59.5q0 -38 -22.5 -61t-59.5 -23z" />
<glyph unicode="&#x62c;" horiz-adv-x="696" arabic-form="medial" d="M622 160h84v-160h-85q-76 0 -123 16.5t-87 56.5q-126 -73 -282 -73h-139v160h140q149 0 241 77q-57 85 -132 85q-76 0 -180 -87v141q86 99 199 99h2q81 0 157 -58.5t134 -164.5v-56q-7 -9 -23 -27q30 -9 94 -9zM298 -81q37 0 59.5 -22.5t22.5 -59.5q0 -38 -22.5 -61 t-59.5 -23t-60 23.5t-23 60.5t23 59.5t60 22.5z" />
<glyph unicode="&#x62d;" horiz-adv-x="765" arabic-form="final" d="M691 160h84v-160h-85q-77 0 -125 17.5t-90 61.5q-24 -9 -76 -22q-97 -25 -129 -51q-40 -34 -40 -97q0 -124 130 -124h4q92 2 185 56v-158q-92 -58 -205 -58q-125 0 -200 77q-74 76 -74 207q0 137 77 209q58 55 209 91q62 15 86 25q-57 88 -134 88q-76 0 -180 -87v141 q86 99 199 99h2q81 0 157 -58.5t134 -164.5v-56q-7 -14 -17 -29q29 -7 88 -7z" />
<glyph unicode="&#x62d;" horiz-adv-x="601" arabic-form="initial" d="M-10 0v160h140q149 0 241 77q-57 85 -132 85q-76 0 -180 -87v141q86 99 199 99h2q81 0 157 -58.5t134 -164.5v-56q-73 -94 -183 -145t-239 -51h-139z" />
<glyph unicode="&#x62d;" horiz-adv-x="696" arabic-form="medial" d="M622 160h84v-160h-85q-76 0 -123 16.5t-87 56.5q-126 -73 -282 -73h-139v160h140q149 0 241 77q-57 85 -132 85q-76 0 -180 -87v141q86 99 199 99h2q81 0 157 -58.5t134 -164.5v-56q-7 -9 -23 -27q30 -9 94 -9z" />
<glyph unicode="&#x62e;" horiz-adv-x="765" arabic-form="final" d="M318 535q-37 0 -60 23.5t-23 60.5t23 59.5t60 22.5t59.5 -22.5t22.5 -59.5q0 -38 -22.5 -61t-59.5 -23zM691 160h84v-160h-85q-77 0 -125 17.5t-90 61.5q-24 -9 -76 -22q-97 -25 -129 -51q-40 -34 -40 -97q0 -124 130 -124h4q92 2 185 56v-158q-92 -58 -205 -58 q-125 0 -200 77q-74 76 -74 207q0 137 77 209q58 55 209 91q62 15 86 25q-57 88 -134 88q-76 0 -180 -87v141q86 99 199 99h2q81 0 157 -58.5t134 -164.5v-56q-7 -14 -17 -29q29 -7 88 -7z" />
<glyph unicode="&#x62e;" horiz-adv-x="601" arabic-form="initial" d="M287 535q-37 0 -60 23.5t-23 60.5t23 59.5t60 22.5t59.5 -22.5t22.5 -59.5q0 -38 -22.5 -61t-59.5 -23zM-10 0v160h140q149 0 241 77q-57 85 -132 85q-76 0 -180 -87v141q86 99 199 99h2q81 0 157 -58.5t134 -164.5v-56q-73 -94 -183 -145t-239 -51h-139z" />
<glyph unicode="&#x62e;" horiz-adv-x="696" arabic-form="medial" d="M287 535q-37 0 -60 23.5t-23 60.5t23 59.5t60 22.5t59.5 -22.5t22.5 -59.5q0 -38 -22.5 -61t-59.5 -23zM622 160h84v-160h-85q-76 0 -123 16.5t-87 56.5q-126 -73 -282 -73h-139v160h140q149 0 241 77q-57 85 -132 85q-76 0 -180 -87v141q86 99 199 99h2q81 0 157 -58.5 t134 -164.5v-56q-7 -9 -23 -27q30 -9 94 -9z" />
<glyph unicode="&#x62f;" horiz-adv-x="553" arabic-form="final" d="M10 0l83 160h139q30 0 30 30q0 86 -91 138l81 139q153 -89 172 -238q6 -45 18 -57t49 -12h72v-160h-79q-68 0 -120 30q-39 -30 -101 -30h-253z" />
<glyph unicode="&#x630;" horiz-adv-x="553" arabic-form="final" d="M253 535q-37 0 -60 23.5t-23 60.5t23 59.5t60 22.5t59.5 -22.5t22.5 -59.5q0 -38 -22.5 -61t-59.5 -23zM10 0l83 160h139q30 0 30 30q0 86 -91 138l81 139q153 -89 172 -238q6 -45 18 -57t49 -12h72v-160h-79q-68 0 -120 30q-39 -30 -101 -30h-253z" />
<glyph unicode="&#x631;" horiz-adv-x="430" arabic-form="final" d="M347 160h93v-160h-108q-13 0 -35 2q-25 -126 -128 -176q-45 -21 -96 -21q-68 0 -133 36v143q53 -30 102 -30q20 0 37 5q59 19 59 101v308l165 87v-251q0 -26 9 -35t35 -9z" />
<glyph unicode="&#x632;" horiz-adv-x="430" arabic-form="final" d="M221 535q-37 0 -60 23.5t-23 60.5t23 59.5t60 22.5t59.5 -22.5t22.5 -59.5q0 -38 -22.5 -61t-59.5 -23zM347 160h93v-160h-108q-13 0 -35 2q-25 -126 -128 -176q-45 -21 -96 -21q-68 0 -133 36v143q53 -30 102 -30q20 0 37 5q59 19 59 101v308l165 87v-251q0 -26 9 -35 t35 -9z" />
<glyph unicode="&#x633;" horiz-adv-x="1449" arabic-form="final" d="M1377 160h82v-160h-89q-76 0 -131 36q-45 -33 -112 -36h-128q-64 0 -111 30q-43 -27 -102 -30h-128q-20 0 -38 3q-23 -94 -102 -146q-71 -47 -171 -47q-140 0 -217 99q-60 76 -60 180q0 74 33 131l156 33q-34 -65 -34 -135q0 -67 33 -107.5t89 -40.5q117 0 117 104v254 l165 87v-211q0 -26 9 -35t35 -9h88q26 0 35 9t9 35v144l165 87v-231q0 -26 9 -35t35 -9h89q26 0 35 9t9 35v164l165 87v-226q0 -40 13.5 -54.5t51.5 -14.5z" />
<glyph unicode="&#x633;" horiz-adv-x="1075" arabic-form="initial" d="M-10 0v160h103q26 0 35 9t9 35v124l165 87v-211q0 -26 9 -35t35 -9h88q26 0 35 9t9 35v144l165 87v-231q0 -26 9 -35t35 -9h89q26 0 35 9t9 35v164l165 87v-259q0 -93 -57 -147q-50 -46 -128 -49h-128q-63 0 -112 30q-42 -27 -101 -30h-128q-63 0 -112 30 q-47 -30 -111 -30h-118z" />
<glyph unicode="&#x633;" horiz-adv-x="1122" arabic-form="medial" d="M-10 0v160h103q26 0 35 9t9 35v124l165 87v-211q0 -26 9 -35t35 -9h88q26 0 35 9t9 35v144l165 87v-231q0 -26 9 -35t35 -9h89q26 0 35 9t9 35v164l165 87v-226q0 -40 13.5 -54.5t51.5 -14.5h82v-160h-89q-76 0 -131 36q-45 -33 -112 -36h-128q-63 0 -112 30 q-42 -27 -101 -30h-128q-63 0 -112 30q-47 -30 -111 -30h-118z" />
<glyph unicode="&#x634;" horiz-adv-x="1449" arabic-form="final" d="M892 711q-34 0 -54.5 20.5t-20.5 55.5q0 34 20.5 54t54.5 20t54.5 -20t20.5 -54t-20.5 -55t-54.5 -21zM803 535q-37 0 -60 23.5t-23 60.5t23 59.5t60 22.5t59.5 -22.5t22.5 -59.5q0 -38 -22.5 -61t-59.5 -23zM900 619q0 37 23 59.5t60 22.5t59.5 -22.5t22.5 -59.5 q0 -38 -22.5 -61t-59.5 -23t-60 23.5t-23 60.5zM1377 160h82v-160h-89q-76 0 -131 36q-45 -33 -112 -36h-128q-64 0 -111 30q-43 -27 -102 -30h-128q-20 0 -38 3q-23 -94 -102 -146q-71 -47 -171 -47q-140 0 -217 99q-60 76 -60 180q0 74 33 131l156 33q-34 -65 -34 -135 q0 -67 33 -107.5t89 -40.5q117 0 117 104v254l165 87v-211q0 -26 9 -35t35 -9h88q26 0 35 9t9 35v144l165 87v-231q0 -26 9 -35t35 -9h89q26 0 35 9t9 35v164l165 87v-226q0 -40 13.5 -54.5t51.5 -14.5z" />
<glyph unicode="&#x634;" horiz-adv-x="1075" arabic-form="initial" d="M556 711q-34 0 -54.5 20.5t-20.5 55.5q0 34 20.5 54t54.5 20t54.5 -20t20.5 -54t-20.5 -55t-54.5 -21zM467 535q-37 0 -60 23.5t-23 60.5t23 59.5t60 22.5t59.5 -22.5t22.5 -59.5q0 -38 -22.5 -61t-59.5 -23zM647 535q-37 0 -60 23.5t-23 60.5t23 59.5t60 22.5 t59.5 -22.5t22.5 -59.5q0 -38 -22.5 -61t-59.5 -23zM-10 0v160h103q26 0 35 9t9 35v124l165 87v-211q0 -26 9 -35t35 -9h88q26 0 35 9t9 35v144l165 87v-231q0 -26 9 -35t35 -9h89q26 0 35 9t9 35v164l165 87v-259q0 -93 -57 -147q-50 -46 -128 -49h-128q-63 0 -112 30 q-42 -27 -101 -30h-128q-63 0 -112 30q-47 -30 -111 -30h-118z" />
<glyph unicode="&#x634;" horiz-adv-x="1122" arabic-form="medial" d="M556 711q-34 0 -54.5 20.5t-20.5 55.5q0 34 20.5 54t54.5 20t54.5 -20t20.5 -54t-20.5 -55t-54.5 -21zM467 535q-37 0 -60 23.5t-23 60.5t23 59.5t60 22.5t59.5 -22.5t22.5 -59.5q0 -38 -22.5 -61t-59.5 -23zM647 535q-37 0 -60 23.5t-23 60.5t23 59.5t60 22.5 t59.5 -22.5t22.5 -59.5q0 -38 -22.5 -61t-59.5 -23zM-10 0v160h103q26 0 35 9t9 35v124l165 87v-211q0 -26 9 -35t35 -9h88q26 0 35 9t9 35v144l165 87v-231q0 -26 9 -35t35 -9h89q26 0 35 9t9 35v164l165 87v-226q0 -40 13.5 -54.5t51.5 -14.5h82v-160h-89q-76 0 -131 36 q-45 -33 -112 -36h-128q-63 0 -112 30q-42 -27 -101 -30h-128q-63 0 -112 30q-47 -30 -111 -30h-118z" />
<glyph unicode="&#x635;" horiz-adv-x="1427" arabic-form="final" d="M1344 160h93v-160h-108q-66 0 -111 30q-46 -30 -112 -30h-448q-20 0 -38 3q-23 -94 -102 -146q-71 -47 -171 -47q-140 0 -217 99q-60 76 -60 180q0 74 33 131l156 33q-34 -65 -34 -135q0 -67 33 -107.5t89 -40.5q117 0 117 104v254l165 87v-211q0 -25 8 -34t32 -10 q52 138 144 223q101 92 228 92q123 0 196 -85q63 -72 63 -176v-18q0 -36 44 -36zM1101 160q24 0 29 6.5t5 37.5v10q0 48 -25.5 77t-67.5 29q-60 0 -115.5 -43t-91.5 -117h266z" />
<glyph unicode="&#x635;" horiz-adv-x="1023" arabic-form="initial" d="M332 160q52 138 144 223q101 92 228 92q123 0 196 -85q63 -72 63 -176v-18q0 -96 -60 -149q-52 -47 -134 -47h-448q-64 0 -111 30q-49 -30 -112 -30h-108v160h93q26 0 35 9t9 35v124l165 87v-211q0 -25 8 -34t32 -10zM798 204v10q0 48 -25.5 77t-67.5 29 q-60 0 -115.5 -43t-91.5 -117h266q24 0 29 6.5t5 37.5z" />
<glyph unicode="&#x635;" horiz-adv-x="1090" arabic-form="medial" d="M1007 160h93v-160h-108q-66 0 -111 30q-46 -30 -112 -30h-448q-64 0 -111 30q-49 -30 -112 -30h-108v160h93q26 0 35 9t9 35v124l165 87v-211q0 -25 8 -34t32 -10q52 138 144 223q101 92 228 92q123 0 196 -85q63 -72 63 -176v-18q0 -36 44 -36zM764 160q24 0 29 6.5 t5 37.5v10q0 48 -25.5 77t-67.5 29q-60 0 -115.5 -43t-91.5 -117h266z" />
<glyph unicode="&#x636;" horiz-adv-x="1427" arabic-form="final" d="M1045 535q-37 0 -60 23.5t-23 60.5t23 59.5t60 22.5t59.5 -22.5t22.5 -59.5q0 -38 -22.5 -61t-59.5 -23zM1344 160h93v-160h-108q-66 0 -111 30q-46 -30 -112 -30h-448q-20 0 -38 3q-23 -94 -102 -146q-71 -47 -171 -47q-140 0 -217 99q-60 76 -60 180q0 74 33 131 l156 33q-34 -65 -34 -135q0 -67 33 -107.5t89 -40.5q117 0 117 104v254l165 87v-211q0 -25 8 -34t32 -10q52 138 144 223q101 92 228 92q123 0 196 -85q63 -72 63 -176v-18q0 -36 44 -36zM1101 160q24 0 29 6.5t5 37.5v10q0 48 -25.5 77t-67.5 29q-60 0 -115.5 -43 t-91.5 -117h266z" />
<glyph unicode="&#x636;" horiz-adv-x="1023" arabic-form="initial" d="M727 535q-37 0 -60 23.5t-23 60.5t23 59.5t60 22.5t59.5 -22.5t22.5 -59.5q0 -38 -22.5 -61t-59.5 -23zM332 160q52 138 144 223q101 92 228 92q123 0 196 -85q63 -72 63 -176v-18q0 -96 -60 -149q-52 -47 -134 -47h-448q-64 0 -111 30q-49 -30 -112 -30h-108v160h93 q26 0 35 9t9 35v124l165 87v-211q0 -25 8 -34t32 -10zM798 204v10q0 48 -25.5 77t-67.5 29q-60 0 -115.5 -43t-91.5 -117h266q24 0 29 6.5t5 37.5z" />
<glyph unicode="&#x636;" horiz-adv-x="1090" arabic-form="medial" d="M727 535q-37 0 -60 23.5t-23 60.5t23 59.5t60 22.5t59.5 -22.5t22.5 -59.5q0 -38 -22.5 -61t-59.5 -23zM1007 160h93v-160h-108q-66 0 -111 30q-46 -30 -112 -30h-448q-64 0 -111 30q-49 -30 -112 -30h-108v160h93q26 0 35 9t9 35v124l165 87v-211q0 -25 8 -34t32 -10 q52 138 144 223q101 92 228 92q123 0 196 -85q63 -72 63 -176v-18q0 -36 44 -36zM764 160q24 0 29 6.5t5 37.5v10q0 48 -25.5 77t-67.5 29q-60 0 -115.5 -43t-91.5 -117h266z" />
<glyph unicode="&#x637;" horiz-adv-x="1002" arabic-form="final" d="M20 0l85 160h139v397l165 88v-244q94 74 207 74q123 0 196 -85q63 -72 63 -176v-18q0 -36 44 -36h93v-160h-108q-66 0 -111 30q-46 -30 -112 -30h-661zM410 160h266q24 0 29 6.5t5 37.5v10q0 48 -25.5 77t-67.5 29q-60 0 -115.5 -43t-91.5 -117z" />
<glyph unicode="&#x637;" horiz-adv-x="834" arabic-form="initial" d="M-10 0v160h153v397l165 88v-244q94 74 207 74q123 0 196 -85q63 -72 63 -176v-18q0 -96 -60 -149q-52 -47 -134 -47h-590zM309 160h266q24 0 29 6.5t5 37.5v10q0 48 -25.5 77t-67.5 29q-60 0 -115.5 -43t-91.5 -117z" />
<glyph unicode="&#x637;" horiz-adv-x="901" arabic-form="medial" d="M-10 0v160h153v397l165 88v-244q94 74 207 74q123 0 196 -85q63 -72 63 -176v-18q0 -36 44 -36h93v-160h-108q-66 0 -111 30q-46 -30 -112 -30h-590zM309 160h266q24 0 29 6.5t5 37.5v10q0 48 -25.5 77t-67.5 29q-60 0 -115.5 -43t-91.5 -117z" />
<glyph unicode="&#x638;" horiz-adv-x="1002" arabic-form="final" d="M617 535q-37 0 -60 23.5t-23 60.5t23 59.5t60 22.5t59.5 -22.5t22.5 -59.5q0 -38 -22.5 -61t-59.5 -23zM20 0l85 160h139v397l165 88v-244q94 74 207 74q123 0 196 -85q63 -72 63 -176v-18q0 -36 44 -36h93v-160h-108q-66 0 -111 30q-46 -30 -112 -30h-661zM410 160h266 q24 0 29 6.5t5 37.5v10q0 48 -25.5 77t-67.5 29q-60 0 -115.5 -43t-91.5 -117z" />
<glyph unicode="&#x638;" horiz-adv-x="834" arabic-form="initial" d="M513 535q-37 0 -60 23.5t-23 60.5t23 59.5t60 22.5t59.5 -22.5t22.5 -59.5q0 -38 -22.5 -61t-59.5 -23zM-10 0v160h153v397l165 88v-244q94 74 207 74q123 0 196 -85q63 -72 63 -176v-18q0 -96 -60 -149q-52 -47 -134 -47h-590zM309 160h266q24 0 29 6.5t5 37.5v10 q0 48 -25.5 77t-67.5 29q-60 0 -115.5 -43t-91.5 -117z" />
<glyph unicode="&#x638;" horiz-adv-x="901" arabic-form="medial" d="M513 535q-37 0 -60 23.5t-23 60.5t23 59.5t60 22.5t59.5 -22.5t22.5 -59.5q0 -38 -22.5 -61t-59.5 -23zM-10 0v160h153v397l165 88v-244q94 74 207 74q123 0 196 -85q63 -72 63 -176v-18q0 -36 44 -36h93v-160h-108q-66 0 -111 30q-46 -30 -112 -30h-590zM309 160h266 q24 0 29 6.5t5 37.5v10q0 48 -25.5 77t-67.5 29q-60 0 -115.5 -43t-91.5 -117z" />
<glyph unicode="&#x639;" horiz-adv-x="700" arabic-form="final" d="M323 20q-54 -40 -73.5 -66.5t-19.5 -60.5q0 -51 34.5 -79.5t96.5 -28.5h3q92 2 185 56v-158q-91 -58 -198 -58q-125 0 -205 76q-76 73 -76 192q0 128 119 215q-53 52 -113 150v56q46 71 119.5 116t144.5 45q70 0 144.5 -46t120.5 -117v-54q-30 -49 -89 -98h192l2 -160 h-274q-61 0 -113 20zM432 284q-46 37 -92 37q-52 0 -93 -38q41 -65 83 -91q63 40 102 92z" />
<glyph unicode="&#x639;" horiz-adv-x="588" arabic-form="initial" d="M538 160v-160h-548v160h112q-15 41 -15 91q0 107 77 172q63 52 145 52q112 0 181 -99v-141q-77 85 -161 85h-5q-72 -2 -72 -75q0 -85 106 -85h180z" />
<glyph unicode="&#x639;" horiz-adv-x="717" arabic-form="medial" d="M727 0h-274q-51 0 -96 14q-45 -14 -96 -14h-271v160h169q-24 30 -66 98v56q46 71 119.5 116t144.5 45q70 0 144.5 -46t120.5 -117v-54q-42 -68 -67 -98h170zM450 283q-47 38 -93 38q-52 0 -93 -38q44 -70 93 -97q48 26 93 97z" />
<glyph unicode="&#x63a;" horiz-adv-x="700" arabic-form="final" d="M347 534q-37 0 -60 23.5t-23 60.5t23 59.5t60 22.5t59.5 -22.5t22.5 -59.5q0 -38 -22.5 -61t-59.5 -23zM323 20q-54 -40 -73.5 -66.5t-19.5 -60.5q0 -51 34.5 -79.5t96.5 -28.5h3q92 2 185 56v-158q-91 -58 -198 -58q-125 0 -205 76q-76 73 -76 192q0 128 119 215 q-53 52 -113 150v56q46 71 119.5 116t144.5 45q70 0 144.5 -46t120.5 -117v-54q-30 -49 -89 -98h192l2 -160h-274q-61 0 -113 20zM432 284q-46 37 -92 37q-52 0 -93 -38q41 -65 83 -91q63 40 102 92z" />
<glyph unicode="&#x63a;" horiz-adv-x="588" arabic-form="initial" d="M310 535q-37 0 -60 23.5t-23 60.5t23 59.5t60 22.5t59.5 -22.5t22.5 -59.5q0 -38 -22.5 -61t-59.5 -23zM538 160v-160h-548v160h112q-15 41 -15 91q0 107 77 172q63 52 145 52q112 0 181 -99v-141q-77 85 -161 85h-5q-72 -2 -72 -75q0 -85 106 -85h180z" />
<glyph unicode="&#x63a;" horiz-adv-x="717" arabic-form="medial" d="M355 535q-37 0 -60 23.5t-23 60.5t23 59.5t60 22.5t59.5 -22.5t22.5 -59.5q0 -38 -22.5 -61t-59.5 -23zM727 0h-274q-51 0 -96 14q-45 -14 -96 -14h-271v160h169q-24 30 -66 98v56q46 71 119.5 116t144.5 45q70 0 144.5 -46t120.5 -117v-54q-42 -68 -67 -98h170zM450 283 q-47 38 -93 38q-52 0 -93 -38q44 -70 93 -97q48 26 93 97z" />
<glyph unicode="&#x641;" horiz-adv-x="1028" arabic-form="final" d="M741 515q-37 0 -60 23.5t-23 60.5t23 59.5t60 22.5t59.5 -22.5t22.5 -59.5q0 -38 -22.5 -61t-59.5 -23zM920 160h118v-160h-212q-55 0 -92 8q-37 -8 -92 -8h-366q-89 0 -141 60q-45 53 -45 136v82l164 87v-161q0 -26 9 -35t35 -9h250q-21 47 -21 92q0 102 61 165 q57 58 146 58q102 0 160 -74q47 -61 47 -149q0 -45 -21 -92zM734 176q47 31 47 87q0 57 -47 57t-47 -56q0 -58 47 -88z" />
<glyph unicode="&#x641;" horiz-adv-x="579" arabic-form="initial" d="M305 516q-37 0 -60 23.5t-23 60.5t23 59.5t60 22.5t59.5 -22.5t22.5 -59.5q0 -38 -22.5 -61t-59.5 -23zM-10 0v160h121q-14 37 -14 78q0 112 63 178q56 59 147 59q93 0 146 -60q46 -51 46 -133v-86q0 -88 -52 -142t-142 -54h-315zM334 288q0 32 -27 32q-48 0 -48 -76 q0 -84 48 -84q27 0 27 32v96z" />
<glyph unicode="&#x641;" horiz-adv-x="588" arabic-form="medial" d="M292 515q-37 0 -60 23.5t-23 60.5t23 59.5t60 22.5t59.5 -22.5t22.5 -59.5q0 -38 -22.5 -61t-59.5 -23zM480 160h118v-160h-212q-55 0 -92 8q-37 -8 -92 -8h-212v160h118q-21 47 -21 92q0 102 61 165q57 58 146 58q102 0 160 -74q47 -61 47 -149q0 -45 -21 -92zM294 176 q47 31 47 87q0 57 -47 57t-47 -56q0 -58 47 -88z" />
<glyph unicode="&#x642;" horiz-adv-x="819" arabic-form="final" d="M427 515q-37 0 -60 23.5t-23 60.5t23 59.5t60 22.5t59.5 -22.5t22.5 -59.5q0 -38 -22.5 -61t-59.5 -23zM607 515q-37 0 -60 23.5t-23 60.5t23 59.5t60 22.5t59.5 -22.5t22.5 -59.5q0 -38 -22.5 -61t-59.5 -23zM719 0q-25 -94 -114 -144q-82 -46 -208 -46q-175 0 -262 99 q-65 74 -65 180q0 74 33 131l156 33q-34 -65 -34 -135q0 -148 172 -148q106 0 143 37l-12 3q-97 15 -153 88q-48 62 -48 140q0 112 63 178q56 59 147 59q93 0 146 -60q46 -51 46 -133v-122h100v-160h-110zM564 164v124q0 32 -27 32q-48 0 -48 -76q0 -62 50 -75z" />
<glyph unicode="&#x642;" horiz-adv-x="579" arabic-form="initial" d="M218 515q-37 0 -60 23.5t-23 60.5t23 59.5t60 22.5t59.5 -22.5t22.5 -59.5q0 -38 -22.5 -61t-59.5 -23zM398 515q-37 0 -60 23.5t-23 60.5t23 59.5t60 22.5t59.5 -22.5t22.5 -59.5q0 -38 -22.5 -61t-59.5 -23zM-10 0v160h121q-14 37 -14 78q0 112 63 178q56 59 147 59 q93 0 146 -60q46 -51 46 -133v-86q0 -88 -52 -142t-142 -54h-315zM334 288q0 32 -27 32q-48 0 -48 -76q0 -84 48 -84q27 0 27 32v96z" />
<glyph unicode="&#x642;" horiz-adv-x="588" arabic-form="medial" d="M204 515q-37 0 -60 23.5t-23 60.5t23 59.5t60 22.5t59.5 -22.5t22.5 -59.5q0 -38 -22.5 -61t-59.5 -23zM384 515q-37 0 -60 23.5t-23 60.5t23 59.5t60 22.5t59.5 -22.5t22.5 -59.5q0 -38 -22.5 -61t-59.5 -23zM480 160h118v-160h-212q-55 0 -92 8q-37 -8 -92 -8h-212v160 h118q-21 47 -21 92q0 102 61 165q57 58 146 58q102 0 160 -74q47 -61 47 -149q0 -45 -21 -92zM294 176q47 31 47 87q0 57 -47 57t-47 -56q0 -58 47 -88z" />
<glyph unicode="&#x643;" horiz-adv-x="954" arabic-form="final" d="M871 160h93v-160h-108q-64 0 -111 30q-49 -30 -112 -30h-357q-89 0 -141 60q-45 53 -45 136v82l164 87v-161q0 -26 9 -35t35 -9h320q26 0 35 9t9 35v354l165 87v-441q0 -26 9 -35t35 -9zM505 525q72 -18 72 -98q0 -46 -25.5 -72.5t-69.5 -26.5h-164l39 73h117q30 0 30 31 q0 37 -48 37q-34 0 -59 -24v66l89 98h94z" />
<glyph unicode="&#x643;" horiz-adv-x="518" arabic-form="initial" d="M241 456q59 -11 105 -42q112 -74 112 -212v-10q0 -94 -60 -146q-52 -46 -133 -46h-275v160h259q25 0 34.5 8t9.5 29v3q0 55 -52 82q-32 17 -77 17q-49 0 -107 -21v159l187 208h165z" />
<glyph unicode="&#x643;" horiz-adv-x="575" arabic-form="medial" d="M502 160h83v-160h-98q-65 0 -111 29q-46 -29 -111 -29h-275v160h259q25 0 34.5 8t9.5 29v3q0 55 -52 82q-32 17 -77 17q-49 0 -107 -21v159l187 208h165l-168 -189q59 -11 105 -42q111 -73 112 -210q0 -26 9 -35t35 -9z" />
<glyph unicode="&#x644;" horiz-adv-x="814" arabic-form="final" d="M712 160h112v-160h-108q-31 0 -63 8q-29 -96 -113 -151q-75 -48 -174 -48q-151 0 -233 97q-63 74 -63 175q0 74 31 132l163 37q-36 -61 -36 -143q0 -66 36 -102t102 -36q63 0 99.5 35.5t36.5 97.5v455l165 88v-441v-5q0 -22 9.5 -30.5t35.5 -8.5z" />
<glyph unicode="&#x644;" horiz-adv-x="363" arabic-form="initial" d="M-10 0v160h53q38 0 51.5 14.5t13.5 54.5v328l165 88v-417q0 -106 -65 -169q-60 -59 -158 -59h-60z" />
<glyph unicode="&#x644;" horiz-adv-x="400" arabic-form="medial" d="M317 160h93v-160h-108q-71 0 -121 36q-55 -36 -131 -36h-60v160h53q38 0 51.5 14.5t13.5 54.5v328l165 88v-441q0 -26 9 -35t35 -9z" />
<glyph unicode="&#x645;" horiz-adv-x="704" arabic-form="final" d="M621 160h93v-160h-108q-58 0 -103 25q-49 -25 -126 -25h-1h-147q-26 0 -35 -9t-9 -35v-184l-165 -87v279q0 87 51 140q43 46 114 54q-10 36 -10 80q0 112 63 178q56 59 147 59q93 0 146 -60q46 -51 46 -133v-78q0 -26 9 -35t35 -9zM412 181v107q0 32 -27 32 q-48 0 -48 -76q0 -84 49 -84q26 0 26 21z" />
<glyph unicode="&#x645;" horiz-adv-x="604" arabic-form="initial" d="M127 282q0 94 59 147q52 46 133 46q104 0 161 -76q49 -64 49 -161q0 -113 -62 -179q-54 -59 -140 -59q-77 0 -126 25q-45 -25 -103 -25h-108v160h93q26 0 35 9t9 35v78zM292 181q0 -21 26 -21q49 0 49 84q0 76 -48 76q-27 0 -27 -32v-107z" />
<glyph unicode="&#x645;" horiz-adv-x="680" arabic-form="medial" d="M597 160h93v-160h-108q-62 0 -106 27q-55 -47 -136 -47t-136 47q-43 -27 -106 -27h-108v160h93q26 0 35 9t9 35v26q1 119 64 186q57 59 149 59q106 0 163 -77q49 -65 50 -168v-26q0 -26 9 -35t35 -9zM340 140q48 0 48 94q0 86 -48 86t-48 -86q0 -94 48 -94z" />
<glyph unicode="&#x646;" horiz-adv-x="756" arabic-form="final" d="M337 423q-37 0 -60 23.5t-23 60.5t23 59.5t60 22.5t59.5 -22.5t22.5 -59.5q0 -38 -22.5 -61t-59.5 -23zM673 160h93v-160h-108q-20 0 -38 3q-23 -94 -102 -146q-71 -47 -171 -47q-140 0 -217 99q-60 76 -60 180q0 74 33 131l156 33q-34 -65 -34 -135q0 -67 33 -107.5 t89 -40.5q117 0 117 104v294l165 87v-251q0 -26 9 -35t35 -9z" />
<glyph unicode="&#x646;" horiz-adv-x="382" arabic-form="initial" d="M217 535q-37 0 -60 23.5t-23 60.5t23 59.5t60 22.5t59.5 -22.5t22.5 -59.5q0 -38 -22.5 -61t-59.5 -23zM-10 0v160h93q26 0 35 9t9 35v164l165 87v-259q0 -95 -60 -149q-52 -47 -134 -47h-108z" />
<glyph unicode="&#x646;" horiz-adv-x="419" arabic-form="medial" d="M173 535q-37 0 -60 23.5t-23 60.5t23 59.5t60 22.5t59.5 -22.5t22.5 -59.5q0 -38 -22.5 -61t-59.5 -23zM336 160h93v-160h-108q-64 0 -111 30q-49 -30 -112 -30h-108v160h93q26 0 35 9t9 35v164l165 87v-251q0 -26 9 -35t35 -9z" />
<glyph unicode="&#x647;" horiz-adv-x="559" arabic-form="final" d="M476 160h93v-160h-108q-84 0 -137 50q-38 -21 -92 -21q-96 0 -154 71q-48 58 -48 137q0 101 69 166q57 52 128 52q23 0 40 -4v14l165 87v-348q0 -26 9 -35t35 -9zM267 294q-12 5 -27 5q-22 0 -35 -18t-13 -48q0 -65 50 -65q14 0 26 6q-1 7 -1 22v98z" />
<glyph unicode="&#x647;" horiz-adv-x="671" arabic-form="initial" d="M88 316q28 83 95 131t156 48q123 0 200 -77q72 -73 72 -187v-35q0 -96 -61 -150q-53 -46 -138 -46h-144q-34 0 -64 10q-31 -10 -64 -10h-150v160h64q-5 25 -5 47q0 65 39 109zM446 204v27q0 51 -29 80t-81 29q-18 0 -38 -5q61 -43 61 -128q0 -22 -5 -47h58q24 0 29 6.5 t5 37.5zM204 168q45 16 45 55q0 45 -45 45t-45 -45q0 -39 45 -55z" />
<glyph unicode="&#x647;" horiz-adv-x="738" arabic-form="medial" d="M655 160h93v-160h-108q-65 0 -112 30q-51 -30 -116 -30h-144q-34 0 -64 10q-31 -10 -64 -10h-150v160h64q-5 25 -5 47q0 65 39 109q28 83 95 131t156 48q123 0 200 -77q72 -73 72 -187v-27q0 -26 9 -35t35 -9zM412 160q24 0 29 6.5t5 37.5v27q0 51 -29 80t-81 29 q-18 0 -38 -5q61 -43 61 -128q0 -22 -5 -47h58zM204 168q45 16 45 55q0 45 -45 45t-45 -45q0 -39 45 -55z" />
<glyph unicode="&#x648;" horiz-adv-x="562" arabic-form="final" d="M572 160v-160h-101q-9 -93 -84 -146q-62 -44 -145 -44q-66 0 -133 41v143q65 -38 119 -38q28 0 51.5 14.5t27.5 34.5q-18 1 -45 5q-97 15 -154 88q-48 62 -48 140q0 113 63 178q57 59 149 59q99 0 153 -60q47 -51 47 -133v-122h100zM307 282q0 38 -35 38q-50 0 -50 -76 q0 -62 50 -75q7 -2 24 -5q7 0 11 -1v119z" />
<glyph unicode="&#x649;" horiz-adv-x="703" arabic-form="final" d="M720 0q-16 -96 -114 -147q-84 -43 -209 -43q-175 0 -262 99q-65 74 -65 180q0 74 33 131l156 33q-34 -65 -34 -135q0 -158 172 -158q117 0 150 40h-92l83 160h185v-160h-3z" />
<glyph unicode="&#x64a;" horiz-adv-x="703" arabic-form="final" d="M720 0q-16 -96 -114 -147q-84 -43 -209 -43q-175 0 -262 99q-65 74 -65 180q0 74 33 131l156 33q-34 -65 -34 -135q0 -158 172 -158q117 0 150 40h-92l83 160h185v-160h-3zM311 -415q-37 0 -60 23.5t-23 60.5t23 59.5t60 22.5t59.5 -22.5t22.5 -59.5q0 -38 -22.5 -61 t-59.5 -23zM491 -415q-37 0 -60 23.5t-23 60.5t23 59.5t60 22.5t59.5 -22.5t22.5 -59.5q0 -38 -22.5 -61t-59.5 -23z" />
<glyph unicode="&#x64a;" horiz-adv-x="382" arabic-form="initial" d="M-10 0v160h93q26 0 35 9t9 35v164l165 87v-259q0 -95 -60 -149q-52 -47 -134 -47h-108zM25 -247q-37 0 -60 23.5t-23 60.5t23 59.5t60 22.5t59.5 -22.5t22.5 -59.5q0 -38 -22.5 -61t-59.5 -23zM205 -247q-37 0 -60 23.5t-23 60.5t23 59.5t60 22.5t59.5 -22.5t22.5 -59.5 q0 -38 -22.5 -61t-59.5 -23z" />
<glyph unicode="&#x64a;" horiz-adv-x="419" arabic-form="medial" d="M336 160h93v-160h-108q-64 0 -111 30q-49 -30 -112 -30h-108v160h93q26 0 35 9t9 35v164l165 87v-251q0 -26 9 -35t35 -9zM55 -81q37 0 59.5 -22.5t22.5 -59.5q0 -38 -22.5 -61t-59.5 -23t-60 23.5t-23 60.5t23 59.5t60 22.5zM235 -81q37 0 59.5 -22.5t22.5 -59.5 q0 -38 -22.5 -61t-59.5 -23t-60 23.5t-23 60.5t23 59.5t60 22.5z" />
<glyph />
<glyph horiz-adv-x="253" />
<glyph unicode=" "  horiz-adv-x="253" />
<glyph unicode="&#x09;" horiz-adv-x="253" />
<glyph unicode="&#xa0;" horiz-adv-x="253" />
<glyph unicode="!" horiz-adv-x="323" d="M75 196v437h165v-437h-165zM259 64v-2q0 -41 -26.5 -66.5t-68.5 -25.5q-43 0 -69.5 26.5t-26.5 68.5v4q3 39 29.5 63t66.5 24q42 0 68.5 -26t26.5 -66z" />
<glyph unicode="&#x22;" horiz-adv-x="409" d="M70 399v183l117 63v-183zM222 399v183l117 63v-183z" />
<glyph unicode="#" horiz-adv-x="470" d="M237 450h60l33 159h100l-33 -159h72v-118h-97l-18 -88h82v-120h-107l-26 -124h-99l26 124h-61l-26 -124h-99l26 124h-68v120h93l18 88h-83v118h107l33 159h100zM212 332l-18 -88h61l18 88h-61z" />
<glyph unicode="$" horiz-adv-x="557" d="M245 643v57h54v-56q94 -4 190 -67l-66 -97q-76 32 -126 37v-56v-63l49 -25q84 -42 120 -84.5t36 -99.5v-3q-2 -99 -64 -148q-55 -43 -139 -49v-63h-54v63q-89 11 -191 73l67 90q64 -25 121 -25h3v141q-96 42 -136 87.5t-40 113.5q0 71 46.5 117t129.5 57zM247 419 q1 22 1 48q0 25 -1 48q-36 -12 -36 -49q0 -33 36 -47zM299 131q42 8 42 60q0 35 -42 56v-116z" />
<glyph unicode="%" horiz-adv-x="783" d="M303 412q0 -74 -34 -118t-91 -44q-60 0 -94 43t-34 118q0 71 34.5 112.5t93.5 41.5q55 0 90 -42.5t35 -110.5zM218 410q0 32 -12 54.5t-30 22.5t-30 -22t-12 -55q0 -37 12 -60t30 -23t30 23.5t12 59.5zM190 0l291 565h117l-291 -565h-117zM733 156q0 -74 -34 -118 t-91 -44q-60 0 -94 43t-34 118q0 71 34.5 112.5t93.5 41.5q55 0 90 -42.5t35 -110.5zM648 154q0 32 -12 54.5t-30 22.5t-30 -22t-12 -55q0 -37 12 -60t30 -23t30 23.5t12 59.5z" />
<glyph unicode="&#x26;" horiz-adv-x="578" d="M368 329h147v-39q0 -80 -54 -165q47 -55 116 -125h-169l-23 29q-49 -41 -150 -41t-151 63q-37 47 -37 112q0 101 88 178q-36 49 -48 76.5t-12 62.5q0 77 44 121.5t121 44.5q92 0 176 -72l-56 -87q-64 32 -114 32h-5q-47 0 -47 -48q0 -32 65 -112l97 -119q12 20 12 62v1 v26zM297 134l-90 115q-10 -33 -10 -65q0 -64 55 -64q32 0 45 14z" />
<glyph unicode="'" horiz-adv-x="257" d="M70 399v183l117 63v-183z" />
<glyph unicode="(" horiz-adv-x="422" d="M359 645q-61 -73 -101.5 -182t-40.5 -201q0 -181 123 -391l7 -11h-120l-5 5q-61 48 -102.5 163t-41.5 234q0 103 41 208.5t108 174.5h132z" />
<glyph unicode=")" horiz-adv-x="422" d="M61 645h131q67 -69 108.5 -174.5t41.5 -208.5q0 -210 -120 -371q-13 -17 -30 -31h-120l10 14q121 182 121 388q0 92 -40.5 201t-101.5 182z" />
<glyph unicode="*" horiz-adv-x="321" d="M144 548l-3 98q21 -4 70 -17q23 -6 39 -10q-8 -11 -23 -35q-22 -37 -37 -56l104 45l12 -128q-7 2 -24 7l-6 2q-53 16 -78 22q13 -14 36 -40q20 -22 34 -38q-22 -8 -64 -26q-35 -15 -52 -22q-1 13 -1 29q0 12 1 39v36q-10 -14 -19 -26q-26 -38 -39 -58l-73 93q19 8 61 22 q22 7 37 13q-15 4 -39 11q-43 12 -65 20l69 100q8 -12 24 -32q25 -33 36 -49z" />
<glyph unicode="+" horiz-adv-x="491" d="M176 166h-147v118h147v170h139v-170h148v-118h-148v-166h-139v166z" />
<glyph unicode="," horiz-adv-x="286" d="M47 -27q24 7 41 23q-34 20 -34 70q0 38 26.5 63t68.5 25q37 0 63.5 -30.5t26.5 -74.5q0 -77 -50 -125q-29 -28 -90 -46z" />
<glyph unicode="-" horiz-adv-x="308" d="M297 178h-285v118h285v-118z" />
<glyph unicode="." horiz-adv-x="331" d="M283 89v-2q0 -41 -26.5 -66.5t-68.5 -25.5q-43 0 -69.5 26.5t-26.5 68.5v4q3 39 29.5 63t66.5 24q42 0 68.5 -26t26.5 -66z" />
<glyph unicode="/" horiz-adv-x="347" d="M387 633l-312 -663h-113l309 663h116z" />
<glyph unicode="0" horiz-adv-x="572" d="M283 645q118 0 192 -112q60 -92 60 -218q0 -151 -77 -244q-69 -83 -175 -83q-122 0 -191 107q-57 89 -57 220q0 147 76 243q69 87 172 87zM286 514q-49 0 -70.5 -45t-21.5 -148q0 -97 26 -154q24 -51 62 -51q44 0 69 54.5t25 150.5q0 102 -21 147.5t-69 45.5z" />
<glyph unicode="1" horiz-adv-x="420" d="M326 633v-633h-153v456q-13 -9 -37 -23q-33 -21 -48 -32q-18 31 -51 86l-15 25l-5 9q33 25 101 73l10 7q29 21 45 32h153z" />
<glyph unicode="2" horiz-adv-x="495" d="M49 0v129l128 150q80 94 97.5 122t17.5 60q0 23 -18.5 39t-44.5 16q-57 0 -127 -50l-65 94q107 86 225 86q88 0 138 -45q51 -45 51 -131q0 -85 -76 -188q-30 -42 -137 -160h210v-122h-399z" />
<glyph unicode="3" horiz-adv-x="516" d="M134 274v123h90q35 0 48.5 12.5t13.5 44.5q0 28 -16 45.5t-42 17.5q-63 0 -127 -60l-55 100q88 88 195 88q91 0 149 -50q55 -48 55 -127q0 -52 -13 -76t-52 -45q87 -40 87 -144q0 -125 -81 -178q-56 -36 -144 -36q-45 0 -109 28t-99 63l61 94q50 -51 138 -51q75 0 75 76 q0 75 -84 75h-90z" />
<glyph unicode="4" horiz-adv-x="556" d="M22 240q131 200 259 393h149v-393h99v-122h-99v-118h-153v118h-255v122zM151 240h126v199z" />
<glyph unicode="5" horiz-adv-x="550" d="M461 511h-212v-104q9 2 18 2q234 0 234 -204q0 -94 -72 -159q-66 -58 -159 -58q-59 0 -119.5 26t-102.5 69l64 100q78 -60 145 -60q88 0 88 72q0 93 -129 93q-55 0 -120 -19v364h365v-122z" />
<glyph unicode="6" horiz-adv-x="546" d="M474 578l-52 -98q-74 34 -122 34q-43 0 -70.5 -31.5t-27.5 -81.5v-7q48 21 92 21q203 0 203 -209q0 -88 -56 -151q-61 -67 -169 -67q-224 0 -224 298q0 359 248 359q48 0 99.5 -19t78.5 -48zM203 291v-7v-16v-15q0 -80 15.5 -113.5t51.5 -33.5q26 0 47 30.5t21 69.5 q0 103 -81 103q-30 0 -54 -18z" />
<glyph unicode="7" horiz-adv-x="438" d="M246 511h-216v122h386v-111l-209 -522h-162z" />
<glyph unicode="8" horiz-adv-x="568" d="M185 316q-50 15 -79.5 53.5t-29.5 87.5q0 93 73 146q58 42 138 42q92 0 151 -56q56 -54 56 -139q0 -47 -30 -83t-78 -48q131 -36 131 -164q0 -88 -77 -132q-61 -35 -156 -35q-109 0 -174 47q-62 45 -62 122q0 60 37.5 104t99.5 55zM287 368q22 7 40 34.5t18 52.5 q0 33 -15.5 53.5t-40.5 20.5q-27 0 -45 -21t-18 -53q0 -27 17.5 -52t43.5 -35zM290 264q-83 -30 -83 -95q0 -26 22.5 -44.5t54.5 -18.5q74 0 74 60q0 66 -68 98z" />
<glyph unicode="9" horiz-adv-x="546" d="M76 55l52 98q74 -34 123 -34q43 0 70 31.5t27 81.5v7q-47 -21 -91 -21q-204 0 -204 209q0 88 57 151q61 67 168 67q224 0 224 -298q0 -359 -247 -359q-49 0 -100 19t-79 48zM351 345q0 182 -73 182q-25 0 -45 -30.5t-20 -69.5q0 -103 80 -103q34 0 58 21z" />
<glyph unicode=":" horiz-adv-x="331" d="M283 329v-2q0 -41 -26.5 -66.5t-68.5 -25.5q-43 0 -69.5 26.5t-26.5 68.5v4q3 39 29.5 63t66.5 24q42 0 68.5 -26t26.5 -66zM283 89v-2q0 -41 -26.5 -66.5t-68.5 -25.5q-43 0 -69.5 26.5t-26.5 68.5v4q3 39 29.5 63t66.5 24q42 0 68.5 -26t26.5 -66z" />
<glyph unicode=";" horiz-adv-x="286" d="M51 327q3 42 27.5 67t63.5 25q36 0 62 -27t26 -66q0 -35 -26 -60.5t-62 -25.5q-38 0 -63.5 24t-27.5 63zM47 -27q24 7 41 23q-34 20 -34 70q0 38 26.5 63t68.5 25q37 0 63.5 -30.5t26.5 -74.5q0 -77 -50 -125q-29 -28 -90 -46z" />
<glyph unicode="&#x3c;" horiz-adv-x="529" d="M491 -16l-462 162v175l462 159v-120l-359 -126l359 -127v-123z" />
<glyph unicode="=" horiz-adv-x="520" d="M492 254h-463v118h463v-118zM492 82h-463v120h463v-120z" />
<glyph unicode="&#x3e;" horiz-adv-x="529" d="M38 -16v123l359 127l-359 126v120l462 -159v-175z" />
<glyph unicode="?" horiz-adv-x="410" d="M247 166h-140v56v12v9q0 43 14.5 69.5t55.5 56.5q62 46 62 108q0 25 -17.5 41.5t-44.5 16.5q-22 0 -50.5 -14t-40.5 -30l-57 82q67 72 179 72q87 0 134 -62q34 -45 34 -106q0 -106 -75 -164q-54 -42 -54 -94v-53zM104 61q0 33 22.5 56t55.5 23q30 0 52 -23t22 -56 q0 -30 -22 -51.5t-52 -21.5q-33 0 -55.5 21.5t-22.5 51.5z" />
<glyph unicode="@" horiz-adv-x="694" d="M431 -78l4 -94q-42 -4 -76 -4h-4q-145 3 -237 102q-83 90 -83 226q0 151 104 240q88 74 215 74q132 0 222 -85q84 -79 84 -198q0 -78 -39 -133q-44 -62 -124 -62q-42 0 -68 15.5t-27 40.5q-25 -36 -43 -46t-57 -10q-50 0 -86 43t-36 104q0 86 57 136q44 39 98 39 q32 0 44 -11l10 12h97v-189v-3q0 -35 14 -35q45 0 45 99q0 93 -71 147q-54 40 -120 40q-96 0 -151 -64q-49 -57 -49 -151q0 -135 95 -195q61 -38 149 -41h1h2q16 0 30 3zM365 218q-18 2 -25 2q-34 0 -34 -71q0 -62 30 -62q18 0 23.5 10t5.5 40v81z" />
<glyph unicode="A" horiz-adv-x="597" d="M237 633h124l235 -633h-156q-23 78 -38 125h-208q-29 -86 -39 -125h-153zM301 427q-29 -78 -62 -175h120q-21 64 -58 175z" />
<glyph unicode="B" horiz-adv-x="564" d="M77 1v631q73 13 192 13q129 0 193 -61q50 -48 50 -127q0 -44 -40 -81.5t-85 -37.5h-7v-1q68 -7 108 -49.5t40 -109.5q0 -96 -83 -146q-72 -44 -195 -44q-104 0 -173 13zM231 518v-123h62q38 0 53.5 14t15.5 48q0 66 -86 66q-23 0 -45 -5zM231 273v-156q25 -11 54 -11 q84 0 84 73q0 94 -85 94h-53z" />
<glyph unicode="C" horiz-adv-x="580" d="M535 557l-59 -99q-74 56 -129 56q-69 0 -110 -55t-41 -149q0 -69 38 -124q45 -63 126 -63q48 0 124 47l59 -93q-82 -89 -202 -89q-171 0 -251 125q-53 84 -53 197q0 158 78 246q79 89 227 89q92 0 193 -88z" />
<glyph unicode="D" horiz-adv-x="639" d="M77 1v631q10 4 73.5 8.5t107.5 4.5q174 0 267 -101q77 -84 77 -221q0 -171 -101 -257q-91 -78 -259 -78q-103 0 -165 13zM231 518v-406q18 -4 35 -4h2q174 3 174 211q0 104 -58 159q-47 43 -119 43q-15 0 -34 -3z" />
<glyph unicode="E" horiz-adv-x="558" d="M73 633h431v-122h-277v-125h230v-122h-230v-142h290v-122h-444v633z" />
<glyph unicode="F" horiz-adv-x="545" d="M73 0v633h431v-122h-277v-126h230v-122h-230v-263h-154z" />
<glyph unicode="G" horiz-adv-x="614" d="M535 557l-59 -99q-74 56 -140 56q-59 0 -99.5 -59t-40.5 -144q0 -90 57 -147q46 -46 103 -46q39 0 58 8v106h-113v133h257v-309q-78 -42 -122.5 -55t-111.5 -13q-156 0 -232 118q-55 85 -55 209q0 150 87 244q80 86 204 86q56 0 112 -24t95 -64z" />
<glyph unicode="H" horiz-adv-x="711" d="M77 0v633h151v-247h252v247h154v-633h-154v264h-252v-264h-151z" />
<glyph unicode="I" horiz-adv-x="305" d="M228 633v-633h-151v633h151z" />
<glyph unicode="J" horiz-adv-x="283" d="M206 633v-653q0 -148 -145 -148q-89 0 -159 56l51 85q43 -28 80 -28q22 0 22 42v646h151z" />
<glyph unicode="K" horiz-adv-x="656" d="M221 633v-254l1 2l175 252h189l-218 -298q135 -158 280 -335h-205q-90 120 -217 289h-5v-289h-144v633h144z" />
<glyph unicode="L" horiz-adv-x="504" d="M77 0v633h154v-511h232v-122h-386z" />
<glyph unicode="M" horiz-adv-x="865" d="M788 633v-633h-155v510q-52 -254 -137 -510h-132q-11 42 -45 151q-86 281 -91 352v-503h-151v633h220q93 -295 131 -453q22 88 64 231q40 134 64 222h232z" />
<glyph unicode="N" horiz-adv-x="749" d="M77 0v633h126q228 -288 316 -405v405h154v-633h-130q-167 195 -315 391v-391h-151z" />
<glyph unicode="O" horiz-adv-x="659" d="M330 645q149 0 230 -117q63 -92 63 -221q0 -149 -82 -237q-78 -82 -211 -82q-152 0 -231 106q-62 84 -62 213q0 151 82 246q79 92 211 92zM330 116q133 0 133 191q0 102 -39 157q-35 50 -94 50q-64 0 -99 -54t-35 -153q0 -191 134 -191z" />
<glyph unicode="P" horiz-adv-x="550" d="M77 0v632q7 3 78 8t110 5q249 0 249 -200q0 -135 -92 -194q-56 -35 -124 -35q-17 0 -44 4q-25 3 -23 5v-225h-154zM231 349q23 -10 54 -10q29 0 48 26.5t19 66.5q0 88 -67 89h-4q-33 0 -50 -7v-165z" />
<glyph unicode="Q" horiz-adv-x="674" d="M508 37q58 -67 129 -144h-180l-80 96q-17 -1 -47 -1q-152 0 -231 104q-62 82 -62 209q0 161 86 257q79 87 207 87q150 0 230 -119q63 -93 63 -225q0 -175 -115 -264zM196 301q0 -185 134 -185q133 0 133 185q0 106 -39 162q-35 51 -94 51q-65 0 -99.5 -55t-34.5 -158z " />
<glyph unicode="R" horiz-adv-x="582" d="M77 0v632q7 3 78 8t110 5q249 0 249 -200q0 -111 -77 -185q41 -99 121 -260h-155q-48 112 -101 219q-16 -3 -24 -3q-29 0 -47 7v-223h-154zM231 349q25 -10 59 -10q62 0 62 106q0 76 -66 76q-55 0 -55 -7v-165z" />
<glyph unicode="S" horiz-adv-x="546" d="M37 69l69 95q55 -39 145 -39q94 0 94 71q0 43 -118 83q-164 57 -164 189q0 82 61 131q57 46 153 46q109 0 209 -69q-21 -32 -66 -95q-91 35 -147 35q-66 0 -66 -49q0 -37 107 -81q99 -41 143.5 -88t44.5 -111q0 -102 -76 -155q-61 -44 -154 -44q-108 0 -235 81z" />
<glyph unicode="T" horiz-adv-x="550" d="M191 511h-179v122h526v-122h-192v-511h-155v511z" />
<glyph unicode="U" horiz-adv-x="656" d="M77 633h155v-383q0 -134 96 -134q100 0 100 134v383h151v-366q0 -279 -251 -279t-251 279v366z" />
<glyph unicode="V" horiz-adv-x="583" d="M290 252l134 381h157l-232 -633h-116l-231 633h156z" />
<glyph unicode="W" horiz-adv-x="770" d="M464 633q45 -187 96 -382l53 382h155l-140 -633h-124q-48 181 -120 409q-76 -242 -122 -409h-126l-134 633h154l50 -382q68 256 100 382h158z" />
<glyph unicode="X" horiz-adv-x="634" d="M630 633q-85 -127 -206 -312q66 -107 200 -321h-175l-132 244q-65 -117 -133 -244h-179l208 324q-105 179 -186 309h179q49 -91 119 -214q47 78 126 214h179z" />
<glyph unicode="Y" horiz-adv-x="592" d="M2 633h166q65 -136 130 -270l126 270h166l-215 -382v-251h-155v251q-115 200 -218 382z" />
<glyph unicode="Z" horiz-adv-x="493" d="M475 633v-126l-264 -385h271v-122h-470v106l281 405h-272v122h454z" />
<glyph unicode="[" horiz-adv-x="385" d="M327 -140h-249v785h249v-113h-106v-564h106v-108z" />
<glyph unicode="\" horiz-adv-x="347" d="M-51 633h117l308 -663h-113z" />
<glyph unicode="]" horiz-adv-x="387" d="M59 645h251v-785h-251v108h104v564h-104v113z" />
<glyph unicode="^" horiz-adv-x="469" d="M447 295h-136l-79 131l-62 -131h-148l157 314h111z" />
<glyph unicode="_" horiz-adv-x="409" d="M418 -150h-426v120h426v-120z" />
<glyph unicode="`" horiz-adv-x="247" d="M12 655h144l80 -160h-105z" />
<glyph unicode="a" horiz-adv-x="506" d="M444 0h-121l-10 41q-50 -53 -127 -53q-151 0 -151 149q0 73 62 113q67 43 200 43h1v1q0 37 -12.5 48.5t-52.5 11.5q-70 0 -124 -42q-21 35 -43 78q59 43 105.5 59.5t107.5 16.5q77 0 121 -55q44 -54 44 -149v-262zM293 205q-48 0 -78.5 -18t-30.5 -47v-1q3 -45 37 -46h2 q28 0 48.5 19.5t21.5 46.5v46z" />
<glyph unicode="b" horiz-adv-x="580" d="M65 0v559l150 86v-244q22 37 65 55q26 12 58 12q101 0 156 -67q52 -60 52 -165q0 -134 -76 -199q-57 -49 -144 -49q-80 0 -128 56l-10 -44h-123zM215 182q1 -40 26 -66.5t61 -26.5q84 0 84 137q0 63 -21 99t-57 36q-50 0 -71 -25t-22 -87v-67z" />
<glyph unicode="c" horiz-adv-x="486" d="M454 393l-46 -80q-51 50 -108 50q-50 0 -81.5 -39.5t-31.5 -101.5q0 -57 30 -93.5t77 -36.5q66 0 111 54l53 -81q-79 -77 -175 -77q-119 0 -188 74q-60 64 -60 163q0 110 77 180q67 61 165 61q119 0 177 -73z" />
<glyph unicode="d" horiz-adv-x="574" d="M359 434v126l150 83v-643h-121l-21 48q-14 -25 -49 -42.5t-72 -17.5q-110 0 -166 70q-45 57 -45 149q0 136 78 207q58 52 135 52q66 0 111 -32zM359 286q-15 76 -77 76q-45 0 -70 -35.5t-25 -98.5q0 -135 77 -135q48 0 77 47q18 29 18 51v95z" />
<glyph unicode="e" horiz-adv-x="540" d="M505 179h-307q3 -34 32 -60t64 -26h7q60 0 135 42l35 -78q-30 -29 -85 -49t-103 -20q-119 0 -185 64q-63 62 -63 173q0 107 72 177q67 64 170 64q110 0 172 -69q56 -62 56 -163v-55zM189 282h168q-5 81 -83 81q-74 0 -85 -81z" />
<glyph unicode="f" horiz-adv-x="396" d="M29 333v121h73v58q0 70 30 101.5t96 31.5q91 0 167 -62l-56 -78q-44 30 -62 30q-25 0 -25 -41v-40h126v-121h-126v-333h-150v333h-73z" />
<glyph unicode="g" horiz-adv-x="580" d="M364 59q-45 -71 -126 -71q-99 0 -153 70q-45 58 -45 149q0 136 79 207q58 52 134 52q65 0 110 -31q28 -20 28 -31l10 50h115v-405q0 -110 -57 -174q-59 -66 -167 -66q-119 0 -196 76l36 74q60 -38 137 -38q51 0 73 32.5t22 106.5v-1zM364 286q-3 31 -25.5 53.5 t-51.5 22.5q-44 0 -69 -35.5t-25 -98.5q0 -135 79 -135q40 0 66.5 30.5t26.5 75.5q0 6 -1 11v76z" />
<glyph unicode="h" horiz-adv-x="560" d="M65 562l150 83v-247q3 11 23 28.5t41 27.5q31 14 56 14q89 0 127.5 -47t38.5 -156v-265h-150v260q0 81 -70 81q-47 0 -66 -24v-317h-150v562z" />
<glyph unicode="i" horiz-adv-x="296" d="M60 582v2q0 37 25 63.5t61 26.5q38 0 64.5 -26t26.5 -64v-2q0 -84 -91 -88q-86 6 -86 88zM226 454v-454h-152v454h152z" />
<glyph unicode="j" horiz-adv-x="299" d="M59 582v2q1 37 26 63.5t60 26.5h1q38 0 64 -26t26 -64v-2q0 -84 -91 -88q-86 6 -86 88zM225 454v-512q0 -70 -27 -100q-31 -33 -105 -33q-94 0 -170 60l49 75q47 -27 81 -27h1q21 0 21 41v496h150z" />
<glyph unicode="k" horiz-adv-x="537" d="M531 454l-221 -185q125 -201 169 -269h-166q-64 134 -98 202v-202h-150v567l150 78v-284q50 37 118 93h198z" />
<glyph unicode="l" horiz-adv-x="279" d="M215 645v-645h-150v567z" />
<glyph unicode="m" horiz-adv-x="911" d="M203 411q42 33 71 44t73 11q61 0 108.5 -26t65.5 -69q19 41 68 68t103 27q83 0 121.5 -46.5t38.5 -147.5v-272h-152v229q0 62 -18.5 87.5t-62.5 25.5q-55 0 -89 -44l-4 -298h-150v247q0 54 -18.5 75t-65.5 21q-54 0 -77 -21v-322h-150v454h128z" />
<glyph unicode="n" horiz-adv-x="562" d="M209 411q18 21 58.5 38t74.5 17q88 0 124 -45.5t36 -155.5v-265h-151v260q0 81 -72 81q-48 0 -64 -19v-322h-150v454h128z" />
<glyph unicode="o" horiz-adv-x="527" d="M264 466q114 0 177 -79q52 -65 52 -161q0 -112 -81 -182q-65 -56 -149 -56q-96 0 -165 73q-63 67 -63 165q0 111 67 178q62 62 162 62zM187 226q0 -128 78 -128q76 0 76 128q0 136 -77 136t-77 -136z" />
<glyph unicode="p" horiz-adv-x="554" d="M212 17v-194h-147v631h112l13 -41q38 53 110 53q109 0 169 -73q51 -61 51 -157q0 -126 -78 -195q-60 -53 -143 -53q-33 0 -66 16q-10 5 -17 10q-5 3 -4 3zM212 179q0 -40 18 -65t48 -25q38 0 62 38.5t24 98.5q0 61 -21.5 98t-57.5 37q-73 0 -73 -106v-76z" />
<glyph unicode="q" horiz-adv-x="558" d="M342 -176v222q-12 -24 -43.5 -41t-64.5 -17q-105 0 -157 73q-42 58 -42 151q0 127 73 198q58 56 138 56q45 0 68 -12t54 -50l5 50h120v-630h-151zM342 285q0 32 -21 54.5t-52 22.5q-84 0 -84 -134q0 -135 84 -135q73 0 73 116v76z" />
<glyph unicode="r" horiz-adv-x="440" d="M192 454l13 -35q5 16 34 31.5t54 15.5q96 0 144 -99l-127 -66q-29 41 -63 41q-27 0 -35 -27v-315h-147v454h127z" />
<glyph unicode="s" horiz-adv-x="435" d="M35 55l56 83q43 -45 125 -45q20 0 34 11.5t14 28.5q0 38 -56 45q-74 10 -115 50t-41 100q0 59 48.5 98.5t120.5 39.5q101 0 175 -60l-55 -79q-47 35 -113 35q-33 0 -33 -32v-1v-2q0 -27 51 -39q82 -19 112 -44q42 -36 42 -113q0 -66 -46 -104.5t-125 -38.5 q-116 0 -194 67z" />
<glyph unicode="t" horiz-adv-x="420" d="M343 122l49 -75q-81 -65 -180 -65q-65 0 -93.5 31.5t-28.5 103.5v217h-61v120h62v74q60 32 151 80v-154h125v-120h-126v-195q0 -2 -1 -7v-5q0 -35 24 -35q26 0 79 30z" />
<glyph unicode="u" horiz-adv-x="546" d="M357 52q-6 -25 -47 -44.5t-86 -19.5q-90 0 -124.5 42t-34.5 152v272h147v-231q0 -66 14 -89.5t54 -23.5q13 0 31.5 7t19.5 12v325h150v-454h-110z" />
<glyph unicode="v" horiz-adv-x="482" d="M291 0h-110l-179 454h149l82 -270l91 270h156q-78 -181 -189 -454z" />
<glyph unicode="w" horiz-adv-x="699" d="M287 0h-127l-158 454h149l71 -271q25 135 50 271h148q17 -103 50 -271l74 271h154l-168 -454h-128q-39 174 -59 254q-33 -149 -56 -254z" />
<glyph unicode="x" horiz-adv-x="496" d="M491 454q-52 -75 -159 -228l164 -226h-164l-79 121l-92 -121h-162q115 139 184 223q-44 68 -155 231h159q34 -61 71 -121q47 76 74 121h159z" />
<glyph unicode="y" horiz-adv-x="489" d="M488 454l-188 -519q-46 -126 -134 -126q-74 0 -151 65q24 39 39 70q39 -26 69 -26q16 0 33 23.5t26 58.5h-28l-152 454h147q36 -126 85 -280l106 280h148z" />
<glyph unicode="z" horiz-adv-x="430" d="M418 0h-406v121l219 213h-206v120h387v-123l-223 -213h229v-118z" />
<glyph unicode="{" horiz-adv-x="405" d="M362 -29v-110h-53q-113 0 -146 40q-30 36 -30 136v63q0 55 -20.5 75t-77.5 20v106q98 0 98 103v64q0 113 40 147q36 29 136 29h53v-110h-26h-9h-8q-27 0 -36 -13t-9 -53v-64q0 -128 -59 -156q33 -14 46 -47t13 -101v-63q0 -40 9 -53t36 -13h9h8h26z" />
<glyph unicode="|" horiz-adv-x="293" d="M216 662v-841h-139v841h139z" />
<glyph unicode="}" horiz-adv-x="405" d="M44 536v110h52q113 0 147 -40q30 -36 30 -137v-64q0 -103 98 -103v-105q-57 0 -77.5 -20t-20.5 -75v-63q0 -113 -41 -147q-35 -29 -136 -29h-52v110h25h10q5 -1 8 -1q27 0 35.5 13.5t8.5 53.5v63q0 68 13.5 101t46.5 47q-60 27 -60 155v64q0 40 -8.5 53.5t-35.5 13.5h-9 h-9h-25z" />
<glyph unicode="~" horiz-adv-x="544" d="M442 330l73 -55q-31 -112 -151 -112q-33 0 -118 35q-53 23 -71 23q-46 0 -70 -60l-76 56q28 109 134 109q26 0 93 -24q8 -3 12 -4q84 -30 108 -30q22 0 35.5 13t30.5 49z" />
<glyph unicode="&#xa1;" horiz-adv-x="323" d="M75 268h165v-437h-165v437zM259 400q0 -40 -26.5 -66t-68.5 -26q-40 0 -66.5 24t-29.5 63v5q0 42 26.5 68t69.5 26q42 0 68.5 -25.5t26.5 -66.5v-2z" />
<glyph unicode="&#xa2;" horiz-adv-x="489" d="M289 -15v-37h-52v41q-100 14 -155 86q-47 62 -47 150q0 95 63 163q55 60 139 74v50h52v-48q85 -6 165 -71l-30 -80q-64 49 -133 49h-2v-269h2q64 0 124 56l43 -84q-67 -72 -169 -80zM237 105v247q-50 -34 -50 -130q0 -80 50 -117z" />
<glyph unicode="&#xa3;" horiz-adv-x="542" d="M391 271h-145v-149h213v-122h-428v122h62v149h-64v110h64l-1 45v1q0 218 219 218q54 0 97.5 -19t118.5 -76l-58 -92q-90 59 -145 59q-78 0 -78 -86v-50h145v-110z" />
<glyph unicode="&#xa4;" horiz-adv-x="476" d="M412 82l-73 71q-41 -22 -93 -22q-54 0 -91 21l-71 -70q-3 -3 -7 -3q-12 0 -29.5 18t-17.5 30q0 3 2 5l67 66q-34 48 -34 104q0 60 33 102l-66 65q-2 2 -2 5q0 12 17.5 30t29.5 18q4 0 7 -3l69 -68q41 23 93 23q54 0 97 -23l69 68q3 3 7 3q12 0 29.5 -18t17.5 -30 q0 -3 -2 -5l-68 -67q30 -43 30 -100q0 -54 -32 -101l70 -69q2 -2 2 -5q0 -12 -17.5 -30t-29.5 -18q-4 0 -7 3zM166 302q0 -37 22.5 -60.5t58.5 -23.5q34 0 56 24.5t22 62.5q-1 37 -22.5 60t-55.5 23q-35 0 -57.5 -23.5t-23.5 -60.5v-2z" />
<glyph unicode="&#xa5;" horiz-adv-x="592" d="M2 633h166q49 -106 126 -261h9l121 261h166l-147 -261h87v-118h-153l-2 -3v-49h155v-120h-155v-82h-155v82h-153v120h153v49q-1 0 -1 3h-152v118h84z" />
<glyph unicode="&#xa6;" horiz-adv-x="279" d="M71 239h138v-417h-138v417zM209 662v-385h-138v385h138z" />
<glyph unicode="&#xa7;" horiz-adv-x="469" d="M50 -79l54 75q48 -36 114 -36q30 0 49 16t19 42q0 25 -14 39.5t-54 32.5q-10 4 -32 11l-3 2q-9 3 -14 5q-71 27 -95 49q-37 35 -37 98q0 39 22.5 75t55.5 50q-63 39 -63 118q0 64 52.5 105.5t132.5 41.5q90 0 163 -57l-48 -79q-46 35 -116 35q-50 0 -50 -47 q0 -57 116 -99q131 -47 131 -167q0 -66 -53 -102q26 -29 33.5 -50.5t7.5 -63.5q0 -67 -57 -112q-53 -43 -132 -43q-113 0 -182 61zM301 177q6 13 6 41q0 41 -20.5 64.5t-72.5 40.5q-16 6 -22 9q-23 -35 -23 -65q0 -58 92 -76z" />
<glyph unicode="&#xa8;" horiz-adv-x="393" d="M21 568q0 32 22.5 54.5t55.5 22.5q28 0 50.5 -23.5t22.5 -53.5q0 -32 -21.5 -54.5t-51.5 -22.5q-36 0 -57 21t-21 56zM218 568q0 31 22.5 54t52.5 23q32 0 55 -23t23 -54q0 -34 -22 -55.5t-56 -21.5q-32 0 -53.5 22t-21.5 55z" />
<glyph unicode="&#xa9;" horiz-adv-x="672" d="M468 459l-29 -57q-48 28 -88 28q-39 0 -63 -34t-24 -88q0 -52 26.5 -84.5t69.5 -32.5q42 0 85 33l29 -51q-47 -51 -122 -51q-90 0 -143 48q-52 49 -52 137q0 89 62 146q53 49 126 49q56 0 123 -43zM35 315q0 133 100 224q86 78 201 78q134 0 224 -100q78 -86 78 -202 q0 -133 -100 -223q-86 -78 -202 -78q-133 0 -223 100q-78 86 -78 201zM117 312q0 -98 72 -164q63 -58 151 -58q98 0 168 74q62 64 62 148q0 100 -75 169q-65 59 -149 59q-101 0 -170 -76q-59 -65 -59 -152z" />
<glyph unicode="&#xaa;" horiz-adv-x="262" d="M239 406h-61l-4 30q-26 -36 -84 -36q-29 0 -49.5 22t-20.5 51q0 37 35 62t87 25h27v2q0 24 -34 24q-38 0 -73 -18l-14 43q42 34 98 34q93 0 93 -101v-138zM168 518h-19q-62 0 -62 -42q0 -27 34 -27q47 0 47 42v27z" />
<glyph unicode="&#xab;" horiz-adv-x="718" d="M357 -10h-13q-93 0 -181 80q-76 69 -113 168q43 115 134 186q79 62 160 62h13v-145q-99 -32 -136 -103q37 -71 136 -103v-145zM678 -10h-13q-93 0 -181 80q-76 69 -113 168q43 115 134 186q79 62 160 62h13v-145q-99 -32 -136 -103q37 -71 136 -103v-145z" />
<glyph unicode="&#xac;" horiz-adv-x="482" d="M303 0v135h-274v118h425v-253h-151z" />
<glyph unicode="&#xad;" horiz-adv-x="308" d="M297 178h-285v118h285v-118z" />
<glyph unicode="&#xae;" horiz-adv-x="383" d="M191 470h-6v-60h-51v157h79q52 0 52 -47q0 -24 -28 -43l41 -67h-59zM185 524v-23h3h8q21 0 21 11q0 12 -26 12h-6zM194 322q-72 0 -120 54q-42 46 -42 108q0 72 54 120q46 43 108 43q71 0 118 -54q40 -47 40 -109q0 -72 -52 -120q-44 -42 -106 -42zM194 608 q-54 0 -86.5 -33.5t-32.5 -90.5q0 -56 32.5 -89.5t86.5 -33.5q55 0 86.5 33t31.5 90q0 54 -33.5 89t-84.5 35z" />
<glyph unicode="&#xaf;" horiz-adv-x="267" d="M265 525h-262v108h262v-108z" />
<glyph unicode="&#xb0;" horiz-adv-x="264" d="M12 543q4 53 37.5 86.5t83.5 33.5q48 0 84 -36t36 -84q0 -49 -36 -85.5t-84 -36.5q-49 0 -83.5 34.5t-37.5 87.5zM90 544q3 -43 43 -43q17 0 30 13t13 30t-13 30t-30 13q-40 0 -43 -43z" />
<glyph unicode="&#xb1;" horiz-adv-x="520" d="M193 226h-164v117h164v111h138v-111h161v-117h-161v-101h-138v101zM492 0h-463v113h463v-113z" />
<glyph unicode="&#xb2;" horiz-adv-x="392" d="M49 316v84q167 60 167 121q0 35 -47 35q-33 0 -73 -30l-52 54q63 65 153 65q77 0 111 -51q20 -30 20 -66v-1q-1 -39 -28 -73.5t-72 -52.5h93v-85h-272z" />
<glyph unicode="&#xb3;" horiz-adv-x="394" d="M140 520h33q43 0 43 19t-23 19q-34 0 -79 -26l-52 50q63 63 143 63q58 0 93 -23t35 -61q0 -59 -82 -74q40 -4 63.5 -26t23.5 -56q0 -43 -29.5 -67t-82.5 -24h-4q-102 0 -160 62q40 37 58 54q45 -30 77 -30q24 0 24 20t-55 20h-26v80z" />
<glyph unicode="&#xb4;" horiz-adv-x="247" d="M236 655l-119 -160h-105l79 160h145z" />
<glyph unicode="&#xb5;" horiz-adv-x="614" d="M65 -182v636h145v-213q0 -79 17 -112t59 -33q33 0 77 17v341h147v-331q0 -23 13 -23q14 0 33 12l48 -68q-24 -25 -65 -41t-80 -16q-31 0 -45.5 7.5t-31.5 32.5q-52 -39 -100 -39q-47 0 -72 38v-208h-145z" />
<glyph unicode="&#xb6;" horiz-adv-x="574" d="M498 0h-113v633h113v-633zM357 633v-633h-113v356h-43q-88 0 -128 32.5t-40 102.5q0 68 41 105t116 37h167z" />
<glyph unicode="&#xb7;" horiz-adv-x="204" d="M26 376q0 33 22.5 56t55.5 23q30 0 52 -23t22 -56q0 -30 -22 -51.5t-52 -21.5q-33 0 -55.5 21.5t-22.5 51.5z" />
<glyph unicode="&#xb8;" horiz-adv-x="232" d="M62 10h107l-12 -32l8 -1q56 -8 56 -63q0 -82 -111 -82q-52 0 -98 16l15 57q27 -8 52 -8q37 0 37 23q0 27 -46 27q-17 0 -31 -2z" />
<glyph unicode="&#xb9;" horiz-adv-x="348" d="M278 633v-315h-116v183l-70 -62l-66 80l118 114h134z" />
<glyph unicode="&#xba;" horiz-adv-x="290" d="M150 645q54 0 87.5 -34t33.5 -89q0 -54 -33.5 -88t-86.5 -34q-59 0 -95 33.5t-36 88.5q0 56 35 89.5t95 33.5zM174 522q0 56 -28 56q-30 0 -30 -56t29 -56t29 56z" />
<glyph unicode="&#xbb;" horiz-adv-x="718" d="M40 -10v145q99 32 136 103q-37 71 -136 103v145h13q93 0 181 -80q76 -69 113 -168q-43 -115 -134 -186q-79 -62 -160 -62h-13zM361 -10v145q99 32 136 103q-37 71 -136 103v145h13q93 0 181 -80q76 -69 113 -168q-43 -115 -134 -186q-79 -62 -160 -62h-13z" />
<glyph unicode="&#xbc;" horiz-adv-x="965" d="M740 318h120v-177h54v-90h-54v-51h-116v51h-148v99zM698 142h52v73zM776 633q-142 -240 -389 -663h-87l384 663h92zM316 633v-315h-117v180l-71 -60l-66 79l120 116h134z" />
<glyph unicode="&#xbd;" horiz-adv-x="906" d="M316 633v-315h-117v180l-71 -60l-66 79l120 116h134zM674 633l-386 -663h-87l384 663h89zM556 -1v84q167 60 167 121q0 35 -47 35q-33 0 -74 -30l-51 54q63 65 153 65q77 0 111 -51q20 -30 20 -66v-1q-1 -39 -28 -73.5t-72 -52.5h93v-85h-272z" />
<glyph unicode="&#xbe;" horiz-adv-x="942" d="M708 633l-386 -663h-88l384 663h90zM144 520h29q43 0 43 19t-23 19q-34 0 -79 -26l-52 50q63 63 143 63q58 0 93 -23t35 -61q0 -59 -82 -74q40 -4 63.5 -26t23.5 -56q0 -43 -29.5 -67t-82.5 -24h-4q-102 0 -160 62q40 37 58 54q45 -30 77 -30q24 0 24 20t-55 20h-22v80z M705 318h121v-177h53v-90h-53v-51h-116v51h-148v99zM663 142h53v73z" />
<glyph unicode="&#xbf;" horiz-adv-x="416" d="M167 292h141v-81q0 -48 -13.5 -73t-58.5 -58q-62 -46 -62 -105q0 -22 19.5 -40t43.5 -18q20 0 49 14t42 29l56 -82q-67 -72 -178 -72q-87 0 -134 62q-35 45 -35 104q0 96 78 161q52 43 52 89v70zM315 390q0 -33 -22.5 -56t-55.5 -23q-30 0 -52 23.5t-22 55.5 q0 30 22 51.5t52 21.5q33 0 55.5 -21t22.5 -52z" />
<glyph unicode="&#xc0;" horiz-adv-x="597" d="M122 823h144l79 -160h-105zM237 633h124l235 -633h-156q-23 78 -38 125h-208q-29 -86 -39 -125h-153zM301 427q-29 -78 -62 -175h120q-21 64 -58 175z" />
<glyph unicode="&#xc1;" horiz-adv-x="597" d="M468 823l-119 -160h-105l79 160h145zM237 633h124l235 -633h-156q-23 78 -38 125h-208q-29 -86 -39 -125h-153zM301 427q-29 -78 -62 -175h120q-21 64 -58 175z" />
<glyph unicode="&#xc2;" horiz-adv-x="597" d="M254 823h93q13 -20 42 -62q45 -66 66 -98h-106l-46 77l1 -2l-54 -75h-104zM237 633h124l235 -633h-156q-23 78 -38 125h-208q-29 -86 -39 -125h-153zM301 427q-29 -78 -62 -175h120q-21 64 -58 175z" />
<glyph unicode="&#xc3;" horiz-adv-x="597" d="M204 655l-52 37q18 115 94 115q25 0 58 -25q29 -22 49 -22q12 0 19.5 8.5t26.5 47.5l53 -40q-18 -112 -96 -112q-31 0 -63 19q-31 18 -47 18q-20 0 -37 -35q-2 -5 -5 -11zM237 633h124l235 -633h-156q-23 78 -38 125h-208q-29 -86 -39 -125h-153zM301 427 q-29 -78 -62 -175h120q-21 64 -58 175z" />
<glyph unicode="&#xc4;" horiz-adv-x="597" d="M127 736q0 32 22.5 54.5t55.5 22.5q28 0 50.5 -23.5t22.5 -53.5q0 -32 -21.5 -54.5t-51.5 -22.5q-35 0 -56.5 21t-21.5 56zM324 736q0 31 22.5 54t52.5 23q32 0 55 -23t23 -54q0 -34 -21.5 -55.5t-56.5 -21.5q-32 0 -53.5 22t-21.5 55zM237 633h124l235 -633h-156 q-23 78 -38 125h-208q-29 -86 -39 -125h-153zM301 427q-29 -78 -62 -175h120q-21 64 -58 175z" />
<glyph unicode="&#xc5;" horiz-adv-x="597" d="M298 850q40 0 67.5 -28t27.5 -67t-27.5 -66.5t-67.5 -27.5q-39 0 -66.5 27.5t-27.5 66.5t27.5 67t66.5 28zM298 796q-41 -3 -41 -41q0 -17 12 -29t29 -12q18 0 30 12t12 29q0 39 -42 41zM237 633h124l235 -633h-156q-23 78 -38 125h-208q-29 -86 -39 -125h-153zM301 427 q-29 -78 -62 -175h120q-21 64 -58 175z" />
<glyph unicode="&#xc6;" horiz-adv-x="888" d="M840 633v-122h-275v-125h228v-122h-228v-142h288v-122h-444v113h-206l-47 -113h-154l258 633h580zM254 239h155v274h-54q-49 -128 -101 -274z" />
<glyph unicode="&#xc7;" horiz-adv-x="590" d="M236 -55l18 51q-123 30 -180 143q-39 77 -39 171q0 158 78 246q79 89 227 89q92 0 193 -88l-59 -99q-74 56 -129 56q-69 0 -110 -55t-41 -149q0 -69 38 -124q45 -63 126 -63q48 0 124 47l59 -93q-64 -80 -182 -88l-4 -11l9 -1q55 -8 55 -63q0 -82 -110 -82q-53 0 -99 16 l15 57q2 -1 8 -2h1q35 -6 44 -6q36 0 36 23q0 27 -45 27q-19 0 -33 -2z" />
<glyph unicode="&#xc8;" horiz-adv-x="558" d="M69 633h431v-122h-277v-125h230v-122h-230v-142h290v-122h-444v633zM131 826h145l79 -160h-105z" />
<glyph unicode="&#xc9;" horiz-adv-x="558" d="M69 633h431v-122h-277v-125h230v-122h-230v-142h290v-122h-444v633zM434 819l-118 -160h-105l79 160h144z" />
<glyph unicode="&#xca;" horiz-adv-x="558" d="M69 633h431v-122h-277v-125h230v-122h-230v-142h290v-122h-444v633zM237 823h93q13 -20 42 -62q45 -66 65 -98h-105l-46 77l1 -2l-54 -75h-105z" />
<glyph unicode="&#xcb;" horiz-adv-x="558" d="M69 633h431v-122h-277v-125h230v-122h-230v-142h290v-122h-444v633zM111 748q0 32 22.5 54t55.5 22q28 0 50.5 -23.5t22.5 -52.5q0 -33 -21.5 -55.5t-51.5 -22.5q-35 0 -56.5 21t-21.5 57zM308 748q0 30 22.5 53t52.5 23q32 0 55 -22.5t23 -53.5q0 -35 -21.5 -56.5 t-56.5 -21.5q-32 0 -53.5 22t-21.5 56z" />
<glyph unicode="&#xcc;" horiz-adv-x="305" d="M-16 825h144l80 -160h-105zM228 633v-633h-151v633h151z" />
<glyph unicode="&#xcd;" horiz-adv-x="305" d="M324 823l-119 -160h-105l79 160h145zM228 633v-633h-151v633h151z" />
<glyph unicode="&#xce;" horiz-adv-x="305" d="M106 834h94q13 -20 41 -62q46 -66 66 -98h-105l-46 77v-2l-54 -75h-104zM228 633v-633h-151v633h151z" />
<glyph unicode="&#xcf;" horiz-adv-x="305" d="M-23 736q0 32 22.5 54.5t55.5 22.5q28 0 50.5 -23.5t22.5 -53.5q0 -32 -21.5 -54.5t-51.5 -22.5q-36 0 -57 21t-21 56zM174 736q0 31 22.5 54t52.5 23q32 0 55 -23t23 -54q0 -34 -22 -55.5t-56 -21.5q-32 0 -53.5 22t-21.5 55zM228 633v-633h-151v633h151z" />
<glyph unicode="&#xd0;" horiz-adv-x="675" d="M102 268h-74v113h74v245q0 4 72.5 11.5t108.5 7.5q172 0 265 -101q79 -85 79 -221q0 -169 -99 -257q-87 -78 -239 -78q-40 0 -122 7q-68 6 -65 9v264zM256 527v-146h143v-113h-143v-164h33q91 0 138 61q41 55 41 154q0 105 -59 162q-49 47 -123 47h-3q-12 0 -27 -1z" />
<glyph unicode="&#xd1;" horiz-adv-x="749" d="M265 680l-52 36q19 116 94 116q25 0 58 -26q29 -22 49 -22q13 0 20 9t26 48l53 -41q-18 -112 -96 -112q-30 0 -63 19q-30 18 -47 18q-20 0 -37 -35q-2 -5 -5 -10zM77 0v633h126q228 -288 316 -405v405h154v-633h-130q-167 195 -315 391v-391h-151z" />
<glyph unicode="&#xd2;" horiz-adv-x="659" d="M163 820h145l79 -159h-105zM330 645q149 0 230 -117q63 -92 63 -221q0 -149 -82 -237q-78 -82 -211 -82q-152 0 -231 106q-62 84 -62 213q0 151 82 246q79 92 211 92zM330 116q133 0 133 191q0 102 -39 157q-35 50 -94 50q-64 0 -99 -54t-35 -153q0 -191 134 -191z" />
<glyph unicode="&#xd3;" horiz-adv-x="659" d="M494 824l-118 -160h-105l79 160h144zM330 645q149 0 230 -117q63 -92 63 -221q0 -149 -82 -237q-78 -82 -211 -82q-152 0 -231 106q-62 84 -62 213q0 151 82 246q79 92 211 92zM330 116q133 0 133 191q0 102 -39 157q-35 50 -94 50q-64 0 -99 -54t-35 -153 q0 -191 134 -191z" />
<glyph unicode="&#xd4;" horiz-adv-x="659" d="M287 827h93q13 -20 42 -62q45 -66 65 -98h-105l-46 76v-1l-53 -75h-105zM330 645q149 0 230 -117q63 -92 63 -221q0 -149 -82 -237q-78 -82 -211 -82q-152 0 -231 106q-62 84 -62 213q0 151 82 246q79 92 211 92zM330 116q133 0 133 191q0 102 -39 157q-35 50 -94 50 q-64 0 -99 -54t-35 -153q0 -191 134 -191z" />
<glyph unicode="&#xd5;" horiz-adv-x="659" d="M233 655l-52 37q19 115 94 115q25 0 59 -25q29 -22 48 -22q13 0 20 8.5t26 47.5l53 -40q-17 -112 -95 -112q-31 0 -63 19q-31 18 -48 18q-19 0 -36 -35q-3 -5 -6 -11zM330 645q149 0 230 -117q63 -92 63 -221q0 -149 -82 -237q-78 -82 -211 -82q-152 0 -231 106 q-62 84 -62 213q0 151 82 246q79 92 211 92zM330 116q133 0 133 191q0 102 -39 157q-35 50 -94 50q-64 0 -99 -54t-35 -153q0 -191 134 -191z" />
<glyph unicode="&#xd6;" horiz-adv-x="659" d="M161 746q0 32 22.5 54.5t54.5 22.5q28 0 51 -24t23 -53q0 -32 -21.5 -55t-52.5 -23q-35 0 -56 21.5t-21 56.5zM358 746q0 31 22.5 54t52.5 23q31 0 54.5 -23t23.5 -54q0 -34 -22 -56t-56 -22q-33 0 -54 22t-21 56zM330 645q149 0 230 -117q63 -92 63 -221 q0 -149 -82 -237q-78 -82 -211 -82q-152 0 -231 106q-62 84 -62 213q0 151 82 246q79 92 211 92zM330 116q133 0 133 191q0 102 -39 157q-35 50 -94 50q-64 0 -99 -54t-35 -153q0 -191 134 -191z" />
<glyph unicode="&#xd7;" horiz-adv-x="530" d="M273 140l-159 -158l-92 89l161 161l-152 153l92 88l147 -150l147 155l90 -93l-150 -154l148 -164l-89 -85z" />
<glyph unicode="&#xd8;" horiz-adv-x="659" d="M167 30q-77 50 -110 145q-17 52 -20 132q0 151 82 246q79 92 211 92q74 -3 122 -25l13 25h118l-44 -91q48 -54 69 -133q12 -45 15 -114q0 -149 -82 -237q-78 -82 -211 -82q-44 2 -66 6l-11 -24h-115zM324 116h6q133 0 133 191q-2 49 -8 81zM392 496v0q-26 17 -62 18 q-64 0 -99 -54t-35 -153q2 -102 35 -146q85 181 161 335z" />
<glyph unicode="&#xd9;" horiz-adv-x="656" d="M154 822h144l79 -160h-105zM77 633h155v-383q0 -134 96 -134q100 0 100 134v383h151v-366q0 -279 -251 -279t-251 279v366z" />
<glyph unicode="&#xda;" horiz-adv-x="656" d="M503 822l-119 -160h-105l80 160h144zM77 633h155v-383q0 -134 96 -134q100 0 100 134v383h151v-366q0 -279 -251 -279t-251 279v366z" />
<glyph unicode="&#xdb;" horiz-adv-x="656" d="M278 822h94q13 -20 41 -62q46 -66 66 -98h-105l-46 77v-2l-54 -75h-104zM77 633h155v-383q0 -134 96 -134q100 0 100 134v383h151v-366q0 -279 -251 -279t-251 279v366z" />
<glyph unicode="&#xdc;" horiz-adv-x="656" d="M154 745q0 32 22.5 54.5t55.5 22.5q28 0 50.5 -23.5t22.5 -53.5q0 -32 -21.5 -54.5t-51.5 -22.5q-35 0 -56.5 21t-21.5 56zM351 745q0 31 22.5 54t52.5 23q32 0 55 -23t23 -54q0 -34 -21.5 -55.5t-56.5 -21.5q-32 0 -53.5 22t-21.5 55zM77 633h155v-383q0 -134 96 -134 q100 0 100 134v383h151v-366q0 -279 -251 -279t-251 279v366z" />
<glyph unicode="&#xdd;" horiz-adv-x="592" d="M443 818l-119 -160h-105l79 160h145zM2 633h166q65 -136 130 -270l126 270h166l-215 -382v-251h-155v251q-115 200 -218 382z" />
<glyph unicode="&#xde;" horiz-adv-x="561" d="M77 0v633h153v-92h37q244 0 244 -207q0 -109 -73 -164q-59 -45 -151 -45h-2h-54v-125h-154zM231 426v-183h54q67 0 67 91q0 43 -19.5 67.5t-53.5 24.5h-1h-47z" />
<glyph unicode="&#xdf;" horiz-adv-x="520" d="M236 7l26 86q13 -4 21 -4q26 0 26 87q0 34 -12.5 55.5t-32.5 21.5h-36v133h30q25 0 34.5 18.5t9.5 65.5q0 66 -45 66t-45 -66v-470h-147v455q0 187 193 187q98 0 154 -57q47 -47 47 -115q0 -56 -34 -97t-83 -43q142 -16 142 -156q0 -186 -165 -186q-47 0 -83 19z" />
<glyph unicode="&#xe0;" horiz-adv-x="506" d="M111 655h145l79 -160h-105zM444 0h-121l-10 41q-50 -53 -127 -53q-151 0 -151 149q0 73 62 113q67 43 200 43h1v1q0 37 -12.5 48.5t-52.5 11.5q-70 0 -124 -42q-21 35 -43 78q59 43 105.5 59.5t107.5 16.5q77 0 121 -55q44 -54 44 -149v-262zM293 205q-48 0 -78.5 -18 t-30.5 -47v-1q3 -45 37 -46h2q28 0 48.5 19.5t21.5 46.5v46z" />
<glyph unicode="&#xe1;" horiz-adv-x="506" d="M414 655l-118 -160h-105l79 160h144zM444 0h-121l-10 41q-50 -53 -127 -53q-151 0 -151 149q0 73 62 113q67 43 200 43h1v1q0 37 -12.5 48.5t-52.5 11.5q-70 0 -124 -42q-21 35 -43 78q59 43 105.5 59.5t107.5 16.5q77 0 121 -55q44 -54 44 -149v-262zM293 205 q-48 0 -78.5 -18t-30.5 -47v-1q3 -45 37 -46h2q28 0 48.5 19.5t21.5 46.5v46z" />
<glyph unicode="&#xe2;" horiz-adv-x="506" d="M224 655h93q13 -20 42 -62q45 -66 66 -98h-106l-46 77l1 -2l-54 -75h-104zM444 0h-121l-10 41q-50 -53 -127 -53q-151 0 -151 149q0 73 62 113q67 43 200 43h1v1q0 37 -12.5 48.5t-52.5 11.5q-70 0 -124 -42q-21 35 -43 78q59 43 105.5 59.5t107.5 16.5q77 0 121 -55 q44 -54 44 -149v-262zM293 205q-48 0 -78.5 -18t-30.5 -47v-1q3 -45 37 -46h2q28 0 48.5 19.5t21.5 46.5v46z" />
<glyph unicode="&#xe3;" horiz-adv-x="506" d="M157 500l-53 36q19 115 94 115q26 0 59 -25q29 -22 49 -22q12 0 19 9t26 48l54 -41q-18 -112 -96 -112q-31 0 -63 19q-31 18 -48 18q-19 0 -36 -35q-3 -5 -5 -10zM444 0h-121l-10 41q-50 -53 -127 -53q-151 0 -151 149q0 73 62 113q67 43 200 43h1v1q0 37 -12.5 48.5 t-52.5 11.5q-70 0 -124 -42q-21 35 -43 78q59 43 105.5 59.5t107.5 16.5q77 0 121 -55q44 -54 44 -149v-262zM293 205q-48 0 -78.5 -18t-30.5 -47v-1q3 -45 37 -46h2q28 0 48.5 19.5t21.5 46.5v46z" />
<glyph unicode="&#xe4;" horiz-adv-x="506" d="M93 568q0 32 22.5 54.5t55.5 22.5q28 0 50.5 -23.5t22.5 -53.5q0 -32 -21.5 -54.5t-51.5 -22.5q-35 0 -56.5 21t-21.5 56zM290 568q0 31 22.5 54t52.5 23q32 0 55 -23t23 -54q0 -34 -21.5 -55.5t-56.5 -21.5q-32 0 -53.5 22t-21.5 55zM444 0h-121l-10 41 q-50 -53 -127 -53q-151 0 -151 149q0 73 62 113q67 43 200 43h1v1q0 37 -12.5 48.5t-52.5 11.5q-70 0 -124 -42q-21 35 -43 78q59 43 105.5 59.5t107.5 16.5q77 0 121 -55q44 -54 44 -149v-262zM293 205q-48 0 -78.5 -18t-30.5 -47v-1q3 -45 37 -46h2q28 0 48.5 19.5 t21.5 46.5v46z" />
<glyph unicode="&#xe5;" horiz-adv-x="506" d="M444 0h-121l-10 41q-50 -53 -127 -53q-151 0 -151 149q0 73 62 113q67 43 200 43h1v1q0 37 -12.5 48.5t-52.5 11.5q-70 0 -124 -42q-21 35 -43 78q59 43 105.5 59.5t107.5 16.5q77 0 121 -55q44 -54 44 -149v-262zM293 205q-48 0 -78.5 -18t-30.5 -47v-1q3 -45 37 -46h2 q28 0 48.5 19.5t21.5 46.5v46zM266 677q39 0 66.5 -27.5t27.5 -66.5t-27.5 -67t-66.5 -28q-40 0 -67.5 28t-27.5 67t27.5 66.5t67.5 27.5zM266 624q-42 -3 -42 -41q0 -17 12 -29t30 -12q17 0 29 12t12 29q0 38 -41 41z" />
<glyph unicode="&#xe6;" horiz-adv-x="806" d="M766 179h-308q4 -86 103 -86q60 0 135 42l36 -78q-30 -29 -85.5 -49t-103.5 -20q-57 0 -107 26t-74 68q-60 -94 -176 -94q-151 0 -151 149q0 73 62 113q67 43 200 43h1v1q0 35 -13.5 46t-55.5 11q-65 0 -119 -41q-21 38 -39 76q69 50 109.5 65t104.5 15q68 0 109 -38 q63 38 144 38q228 0 228 -287zM293 205q-46 0 -77.5 -18t-31.5 -44q0 -50 36 -50q30 0 51 19t22 47v46zM449 287h168q-5 76 -83 76q-73 0 -85 -76z" />
<glyph unicode="&#xe7;" horiz-adv-x="486" d="M198 -55l16 50q-88 21 -136 89q-43 59 -43 141q0 110 77 180q67 61 165 61q119 0 177 -73l-46 -80q-51 50 -108 50q-50 0 -81.5 -39.5t-31.5 -101.5q0 -57 30 -93.5t77 -36.5q66 0 111 54l53 -81q-66 -63 -136 -74l-5 -13l9 -1q55 -8 55 -63q0 -82 -110 -82q-53 0 -99 16 l15 57q2 -1 8 -2h1q35 -6 44 -6q36 0 36 23q0 27 -45 27q-19 0 -33 -2z" />
<glyph unicode="&#xe8;" horiz-adv-x="540" d="M111 655h144l80 -160h-105zM505 179h-307q3 -34 32 -60t64 -26h7q60 0 135 42l35 -78q-30 -29 -85 -49t-103 -20q-119 0 -185 64q-63 62 -63 173q0 107 72 177q67 64 170 64q110 0 172 -69q56 -62 56 -163v-55zM189 282h168q-5 81 -83 81q-74 0 -85 -81z" />
<glyph unicode="&#xe9;" horiz-adv-x="540" d="M434 655l-118 -160h-105l79 160h144zM505 179h-307q3 -34 32 -60t64 -26h7q60 0 135 42l35 -78q-30 -29 -85 -49t-103 -20q-119 0 -185 64q-63 62 -63 173q0 107 72 177q67 64 170 64q110 0 172 -69q56 -62 56 -163v-55zM189 282h168q-5 81 -83 81q-74 0 -85 -81z" />
<glyph unicode="&#xea;" horiz-adv-x="540" d="M226 655h94q13 -20 41 -62q46 -66 66 -98h-105l-46 77v-2l-54 -75h-104zM505 179h-307q3 -34 32 -60t64 -26h7q60 0 135 42l35 -78q-30 -29 -85 -49t-103 -20q-119 0 -185 64q-63 62 -63 173q0 107 72 177q67 64 170 64q110 0 172 -69q56 -62 56 -163v-55zM189 282h168 q-5 81 -83 81q-74 0 -85 -81z" />
<glyph unicode="&#xeb;" horiz-adv-x="540" d="M93 568q0 32 22.5 54.5t54.5 22.5q28 0 51 -23.5t23 -53.5q0 -32 -21.5 -54.5t-52.5 -22.5q-35 0 -56 21t-21 56zM290 568q0 31 22.5 54t52.5 23q31 0 54.5 -23t23.5 -54q0 -34 -22 -55.5t-56 -21.5q-33 0 -54 22t-21 55zM505 179h-307q3 -34 32 -60t64 -26h7 q60 0 135 42l35 -78q-30 -29 -85 -49t-103 -20q-119 0 -185 64q-63 62 -63 173q0 107 72 177q67 64 170 64q110 0 172 -69q56 -62 56 -163v-55zM189 282h168q-5 81 -83 81q-74 0 -85 -81z" />
<glyph unicode="&#xec;" horiz-adv-x="302" d="M-14 655h144l80 -160h-105zM229 454v-454h-151v454h151z" />
<glyph unicode="&#xed;" horiz-adv-x="302" d="M325 655l-119 -160h-105l79 160h145zM230 454v-454h-152v454h152z" />
<glyph unicode="&#xee;" horiz-adv-x="296" d="M102 655h94q13 -20 41 -62q46 -66 66 -98h-105l-46 77v-2l-54 -75h-104zM227 454v-454h-152v454h152z" />
<glyph unicode="&#xef;" horiz-adv-x="296" d="M-26 568q0 32 22.5 54.5t55.5 22.5q28 0 50.5 -23.5t22.5 -53.5q0 -32 -21.5 -54.5t-51.5 -22.5q-36 0 -57 21t-21 56zM171 568q0 31 22.5 54t52.5 23q32 0 55 -23t23 -54q0 -34 -22 -55.5t-56 -21.5q-32 0 -53.5 22t-21.5 55zM226 454v-454h-152v454h152z" />
<glyph unicode="&#xf0;" horiz-adv-x="531" d="M115 590l72 55q80 -20 128 -34l106 50l76 -80l-88 -39q74 -90 74 -223q0 -155 -60 -243q-62 -88 -175 -88q-110 0 -169 85q-44 66 -44 157q0 87 62 140q53 46 129 46q70 0 103 -47q1 13 1 29q0 72 -24 88l-108 -53l-79 72l98 52q-35 13 -102 33zM330 271q-27 38 -73 38 q-33 0 -51.5 -27t-18.5 -75q0 -103 59 -103q40 0 57.5 34t26.5 133z" />
<glyph unicode="&#xf1;" horiz-adv-x="562" d="M189 497l-53 37q19 115 94 115q26 0 59 -25q29 -22 49 -22q12 0 19 8.5t26 47.5l54 -40q-18 -112 -96 -112q-31 0 -63 19q-31 18 -48 18q-19 0 -36 -35q-3 -5 -5 -11zM209 411q18 21 58.5 38t74.5 17q88 0 124 -45.5t36 -155.5v-265h-151v260q0 81 -72 81q-48 0 -64 -19 v-322h-150v454h128z" />
<glyph unicode="&#xf2;" horiz-adv-x="527" d="M105 655h145l79 -160h-105zM264 466q114 0 177 -79q52 -65 52 -161q0 -112 -81 -182q-65 -56 -149 -56q-96 0 -165 73q-63 67 -63 165q0 111 67 178q62 62 162 62zM187 226q0 -128 78 -128q76 0 76 128q0 136 -77 136t-77 -136z" />
<glyph unicode="&#xf3;" horiz-adv-x="527" d="M422 655l-119 -160h-105l80 160h144zM264 466q114 0 177 -79q52 -65 52 -161q0 -112 -81 -182q-65 -56 -149 -56q-96 0 -165 73q-63 67 -63 165q0 111 67 178q62 62 162 62zM187 226q0 -128 78 -128q76 0 76 128q0 136 -77 136t-77 -136z" />
<glyph unicode="&#xf4;" horiz-adv-x="527" d="M219 655h93q13 -20 42 -62q45 -66 66 -98h-106l-46 77l1 -2l-54 -75h-104zM264 466q114 0 177 -79q52 -65 52 -161q0 -112 -81 -182q-65 -56 -149 -56q-96 0 -165 73q-63 67 -63 165q0 111 67 178q62 62 162 62zM187 226q0 -128 78 -128q76 0 76 128q0 136 -77 136 t-77 -136z" />
<glyph unicode="&#xf5;" horiz-adv-x="527" d="M169 497l-52 37q18 115 94 115q25 0 58 -25q29 -22 49 -22q12 0 19.5 8.5t26.5 47.5l53 -40q-18 -112 -96 -112q-31 0 -63 19q-31 18 -47 18q-20 0 -37 -35q-2 -5 -5 -11zM264 466q114 0 177 -79q52 -65 52 -161q0 -112 -81 -182q-65 -56 -149 -56q-96 0 -165 73 q-63 67 -63 165q0 111 67 178q62 62 162 62zM187 226q0 -128 78 -128q76 0 76 128q0 136 -77 136t-77 -136z" />
<glyph unicode="&#xf6;" horiz-adv-x="527" d="M97 568q0 32 23 54.5t55 22.5q28 0 50.5 -23.5t22.5 -53.5q0 -32 -21 -54.5t-52 -22.5q-35 0 -56.5 21t-21.5 56zM295 568q0 31 22.5 54t52.5 23q31 0 54 -23t23 -54q0 -34 -21.5 -55.5t-55.5 -21.5q-33 0 -54 22t-21 55zM264 466q114 0 177 -79q52 -65 52 -161 q0 -112 -81 -182q-65 -56 -149 -56q-96 0 -165 73q-63 67 -63 165q0 111 67 178q62 62 162 62zM187 226q0 -128 78 -128q76 0 76 128q0 136 -77 136t-77 -136z" />
<glyph unicode="&#xf7;" horiz-adv-x="488" d="M460 178h-431v118h431v-118zM166 61q0 33 22.5 56t55.5 23q31 0 52.5 -23t21.5 -56q0 -30 -22 -51.5t-52 -21.5q-32 0 -55 21.5t-23 51.5zM168 405q0 33 22.5 56t54.5 23q31 0 53 -23.5t22 -55.5q0 -30 -22 -51.5t-53 -21.5q-32 0 -54.5 21.5t-22.5 51.5z" />
<glyph unicode="&#xf8;" horiz-adv-x="527" d="M126 35q-36 29 -59 68q-29 51 -32 123q0 111 67 178q62 62 162 62q33 -1 54 -5l12 27h86l-25 -56q49 -32 75 -85q24 -49 27 -121q0 -112 -81 -182q-65 -56 -149 -56q-35 1 -63 10l-12 -28h-93zM273 361q-6 1 -9 1q-77 0 -77 -136q1 -33 3 -49zM333 301l-89 -201 q9 -2 21 -2q76 0 76 128q-1 48 -8 75z" />
<glyph unicode="&#xf9;" horiz-adv-x="546" d="M107 655h144l80 -160h-105zM357 52q-6 -25 -47 -44.5t-86 -19.5q-90 0 -124.5 42t-34.5 152v272h147v-231q0 -66 14 -89.5t54 -23.5q13 0 31.5 7t19.5 12v325h150v-454h-110z" />
<glyph unicode="&#xfa;" horiz-adv-x="546" d="M447 655l-119 -160h-105l79 160h145zM357 52q-6 -25 -47 -44.5t-86 -19.5q-90 0 -124.5 42t-34.5 152v272h147v-231q0 -66 14 -89.5t54 -23.5q13 0 31.5 7t19.5 12v325h150v-454h-110z" />
<glyph unicode="&#xfb;" horiz-adv-x="546" d="M231 655h94q13 -20 41 -62q46 -66 66 -98h-105l-46 77v-2l-54 -75h-104zM357 52q-6 -25 -47 -44.5t-86 -19.5q-90 0 -124.5 42t-34.5 152v272h147v-231q0 -66 14 -89.5t54 -23.5q13 0 31.5 7t19.5 12v325h150v-454h-110z" />
<glyph unicode="&#xfc;" horiz-adv-x="546" d="M105 568q0 32 22.5 54.5t55.5 22.5q28 0 50.5 -23.5t22.5 -53.5q0 -32 -21.5 -54.5t-51.5 -22.5q-36 0 -57 21t-21 56zM302 568q0 31 22.5 54t52.5 23q32 0 55 -23t23 -54q0 -34 -22 -55.5t-56 -21.5q-32 0 -53.5 22t-21.5 55zM357 52q-6 -25 -47 -44.5t-86 -19.5 q-90 0 -124.5 42t-34.5 152v272h147v-231q0 -66 14 -89.5t54 -23.5q13 0 31.5 7t19.5 12v325h150v-454h-110z" />
<glyph unicode="&#xfd;" horiz-adv-x="489" d="M407 652l-118 -160h-105l79 160h144zM488 454l-188 -519q-46 -126 -134 -126q-74 0 -151 65q24 39 39 70q39 -26 69 -26q16 0 33 23.5t26 58.5h-28l-152 454h147q36 -126 85 -280l106 280h148z" />
<glyph unicode="&#xfe;" horiz-adv-x="552" d="M65 570l145 77v-208q29 27 83 27q107 0 170 -74q54 -62 54 -156q0 -123 -78 -192q-63 -56 -151 -56q-29 0 -58 10q-22 9 -20 12v-187h-145v747zM210 295v-151v-2q0 -21 20 -37t45 -16q37 0 63 39.5t26 97.5q0 62 -22 98.5t-60 36.5q-49 0 -72 -66z" />
<glyph unicode="&#xff;" horiz-adv-x="489" d="M64 568q0 33 22.5 55t55.5 22q30 0 53.5 -23.5t23.5 -53.5q0 -33 -22 -55t-55 -22q-36 0 -57 21t-21 56zM262 568q0 31 23 54t53 23q31 0 54.5 -23t23.5 -54q0 -33 -22 -55t-56 -22q-33 0 -54.5 22t-21.5 55zM488 454l-188 -519q-46 -126 -134 -126q-74 0 -151 65 q24 39 39 70q39 -26 69 -26q16 0 33 23.5t26 58.5h-28l-152 454h147q36 -126 85 -280l106 280h148z" />
<glyph unicode="&#x131;" horiz-adv-x="335" d="M232 454v-454h-147v454h147z" />
<glyph unicode="&#x141;" horiz-adv-x="487" d="M458 119v-119h-386v225l-60 -27v114l60 27v294h157v-228l146 64v-119l-146 -64v-167h229z" />
<glyph unicode="&#x142;" horiz-adv-x="299" d="M288 347l-71 -37v-310h-146v241l-59 -32v118l59 27v215l146 78v-219l71 39v-120z" />
<glyph unicode="&#x152;" horiz-adv-x="860" d="M400 633h408v-120h-274v-127h230v-120h-230v-147h287v-119h-434q-29 -12 -63 -12q-151 0 -228 112q-59 86 -59 213q0 148 84 243q81 91 212 91q32 -3 67 -14zM383 134v375q-27 5 -50 5q-63 0 -100 -54t-37 -147q0 -197 137 -197q37 0 50 18z" />
<glyph unicode="&#x153;" horiz-adv-x="847" d="M810 179h-311q18 -47 42.5 -66.5t66.5 -19.5h6h5q47 0 118 42l45 -81q-48 -38 -86.5 -52t-93.5 -14q-123 0 -184 45q-73 -45 -153 -45q-102 0 -169 73q-61 66 -61 165q0 110 68 178q61 62 159 62q74 0 157 -46q71 46 147 46q120 0 186 -69q58 -61 58 -163v-55zM187 226 q0 -128 78 -128q76 0 76 128q0 136 -77 136t-77 -136zM495 278h168q-5 85 -83 85q-73 0 -85 -85z" />
<glyph unicode="&#x160;" horiz-adv-x="557" d="M37 69l69 95q55 -39 145 -39q94 0 94 71q0 43 -118 83q-164 57 -164 189q0 82 61 131q57 46 153 46q109 0 209 -69q-21 -32 -66 -95q-91 35 -147 35q-66 0 -66 -49q0 -37 107 -81q99 -41 143.5 -88t44.5 -111q0 -102 -76 -155q-61 -44 -154 -44q-108 0 -235 81zM229 670 l-109 160h105l54 -75l-1 -1l46 76h105q-20 -32 -65 -98q-29 -42 -42 -62h-93z" />
<glyph unicode="&#x161;" horiz-adv-x="435" d="M35 55l56 83q43 -45 125 -45q20 0 34 11.5t14 28.5q0 38 -56 45q-74 10 -115 50t-41 100q0 59 48.5 98.5t120.5 39.5q101 0 175 -60l-55 -79q-47 35 -113 35q-33 0 -33 -32v-1v-2q0 -27 51 -39q82 -19 112 -44q42 -36 42 -113q0 -66 -46 -104.5t-125 -38.5 q-116 0 -194 67zM178 494l-109 160h105l53 -75v-2l46 77h105q-20 -32 -65 -98q-29 -43 -42 -62h-93z" />
<glyph unicode="&#x178;" horiz-adv-x="592" d="M116 736q0 32 22.5 54.5t55.5 22.5q30 0 53 -23.5t23 -53.5q0 -33 -22 -55t-54 -22q-35 0 -56.5 21t-21.5 56zM313 736q0 31 23.5 54t53.5 23q31 0 54.5 -23t23.5 -54q0 -33 -22 -55t-56 -22q-33 0 -55 22t-22 55zM2 633h166q65 -136 130 -270l126 270h166l-215 -382 v-251h-155v251q-115 200 -218 382z" />
<glyph unicode="&#x17d;" horiz-adv-x="493" d="M475 633v-126l-264 -385h271v-122h-470v106l281 405h-272v122h454zM215 666l-108 159h104l54 -74l-1 -2l46 76h106q-21 -32 -66 -98q-28 -42 -42 -61h-93z" />
<glyph unicode="&#x17e;" horiz-adv-x="430" d="M418 0h-406v121l219 213h-206v120h387v-123l-223 -213h229v-118zM180 495l-108 160h104l54 -75l-1 -2l46 77h106q-21 -32 -66 -98q-29 -42 -42 -62h-93z" />
<glyph unicode="&#x192;" horiz-adv-x="491" d="M343 -24v-2v-2q0 -112 -143 -112q-42 0 -94.5 17.5t-87.5 42.5l49 75q46 -26 92 -26h2h3q29 0 29 24v340h-73v121h73v58q0 70 29.5 101.5t96.5 31.5q90 0 167 -62l-56 -78q-45 30 -63 30q-24 0 -24 -41v-40h143v-121h-143v-357z" />
<glyph unicode="&#x2c6;" horiz-adv-x="290" d="M99 655h94l107 -160h-105l-49 77l-51 -77h-104z" />
<glyph unicode="&#x2c7;" horiz-adv-x="293" d="M102 493l-108 160h104l54 -75v-2l46 77h105q-20 -33 -66 -99q-28 -42 -41 -61h-94z" />
<glyph unicode="&#x2d8;" horiz-adv-x="283" d="M7 645h103v-6q0 -50 30 -50h2q32 0 32 56h98v-10q0 -61 -35 -94t-100 -33q-130 0 -130 137z" />
<glyph unicode="&#x2d9;" horiz-adv-x="159" d="M-8 557q0 36 26 62t62 26q34 0 61 -27t27 -61q0 -36 -26 -63t-62 -27q-37 0 -62.5 26t-25.5 64z" />
<glyph unicode="&#x2da;" horiz-adv-x="139" d="M71 682q40 0 67.5 -28t27.5 -67t-27.5 -66.5t-67.5 -27.5q-39 0 -66.5 27.5t-27.5 66.5t27.5 67t66.5 28zM71 628q-41 -3 -41 -41q0 -17 12 -29t29 -12t29 12t12 29q0 39 -41 41z" />
<glyph unicode="&#x2db;" horiz-adv-x="227" d="M57 4h76q-33 -44 -33 -67q0 -36 41 -36q32 0 58 8l19 -64q-48 -15 -91 -15q-56 0 -89 23.5t-33 63.5q0 21 16 48.5t36 38.5z" />
<glyph unicode="&#x2dc;" horiz-adv-x="296" d="M50 503l-52 37q19 115 94 115q25 0 58 -25q30 -22 49 -22q13 0 20 8.5t26 47.5l53 -40q-18 -112 -96 -112q-30 0 -62 19q-31 18 -48 18q-14 0 -20.5 -7.5t-21.5 -38.5z" />
<glyph unicode="&#x2dd;" horiz-adv-x="437" d="M236 686l-114 -175h-110l79 175h145zM425 686l-139 -175h-112l105 175h146z" />
<glyph unicode="&#x3c0;" horiz-adv-x="563" d="M333 0v341h-107v-341h-146v342h-51v112h505v-113h-56v-341h-145z" />
<glyph unicode="&#x60c;" horiz-adv-x="350" d="M195 220q45 0 72.5 -29t27.5 -76q0 -52 -33.5 -86t-83.5 -34q-51 0 -82.5 34.5t-31.5 90.5v230l89 12v-142h42z" />
<glyph unicode="&#x61b;" horiz-adv-x="354" d="M200 501q45 0 72.5 -29t27.5 -76q0 -52 -33.5 -86t-83.5 -34q-51 0 -82.5 34.5t-31.5 90.5v230l89 12v-142h42zM92 90v4q3 39 29.5 63t66.5 24q42 0 68.5 -26t26.5 -66v-2q0 -41 -26.5 -66.5t-68.5 -25.5q-43 0 -69.5 26.5t-26.5 68.5z" />
<glyph unicode="&#x61f;" horiz-adv-x="474" d="M217 185q1 4 1 12q0 26 -16 47.5t-82 84.5q-80 77 -80 170q0 79 59 129q54 45 137 45q85 0 158 -60v-145q-67 64 -136 64q-59 0 -59 -51q0 -28 31 -61l22 -22l2 -1q61 -58 84 -100.5t23 -96.5v-15h-144zM392 64v-2q0 -41 -26.5 -66.5t-68.5 -25.5q-43 0 -69.5 26.5 t-26.5 68.5v4q3 39 29.5 63t66.5 24q42 0 68.5 -26t26.5 -66z" />
<glyph unicode="&#x621;" horiz-adv-x="561" d="M35 -73v159q36 22 76 35q-21 52 -21 107q0 122 77 183q56 44 133 44q90 0 156 -69v-149q-82 67 -138 67h-4q-60 -3 -60 -72q0 -50 30 -85l43 3q103 11 184 64l-1 -149q-85 -65 -235 -65q-140 0 -240 -73z" />
<glyph unicode="&#x622;" horiz-adv-x="345" d="M349 760q-55 -63 -107 -63q-21 0 -65 23q-35 18 -48 18h-1q-18 0 -52 -37l-55 51q57 63 107 63q23 0 70 -24q32 -16 44 -16q17 0 55 37zM90 0v557l165 88v-645h-165z" />
<glyph unicode="&#x623;" horiz-adv-x="345" d="M48 662l39 73h33q-12 21 -12 44q0 37 27 62q24 23 60 23t65 -27v-71q-28 25 -54 25q-16 0 -24 -8q-7 -7 -7 -18q0 -14 13 -30h106l-39 -73h-207zM90 0v517l165 88v-605h-165z" />
<glyph unicode="&#x624;" horiz-adv-x="542" d="M374 638l-39 -73h-207l39 73h33q-12 21 -12 44q0 37 27 62q24 23 60 23t65 -27v-71q-28 25 -54 25q-16 0 -24 -8q-7 -7 -7 -18q0 -14 13 -30h106zM295 31q-11 -1 -33 -1q-96 0 -154 71q-48 58 -48 137q0 112 63 178q56 59 147 59q93 0 146 -60q46 -51 46 -133v-210 q0 -138 -78 -208q-60 -54 -152 -54q-66 0 -133 41v143q65 -38 119 -38q66 0 77 75zM297 288q0 32 -27 32q-48 0 -48 -76q0 -75 50 -75q16 0 25 6v113z" />
<glyph unicode="&#x625;" horiz-adv-x="345" d="M90 0v557l165 88v-645h-165zM54 -297l39 73h33q-12 21 -12 44q0 37 27 62q24 23 60 23t65 -27v-71q-28 25 -54 25q-16 0 -24 -8q-7 -7 -7 -18q0 -14 13 -30h106l-39 -73h-207z" />
<glyph unicode="&#x626;" horiz-adv-x="783" d="M52 340l39 73h33q-12 21 -12 44q0 37 27 62q24 23 60 23t65 -27v-71q-28 25 -54 25q-16 0 -24 -8q-7 -7 -7 -18q0 -14 13 -30h106l-39 -73h-207zM664 256q-76 62 -137 62q-24 0 -39 -11.5t-15 -29.5q0 -29 20.5 -46t80.5 -37q77 -25 106 -51q43 -38 43 -106 q0 -113 -102 -175q-87 -52 -224 -52q-175 0 -262 99q-65 74 -65 180q0 74 33 131l156 33q-34 -65 -34 -135q0 -148 172 -148q162 0 162 69q0 25 -74 51q-82 29 -116 60q-51 47 -51 128q0 95 64 148q49 40 113 40q50 0 96.5 -20.5t72.5 -53.5v-136z" />
<glyph unicode="&#x627;" horiz-adv-x="345" d="M90 0v557l165 88v-645h-165z" />
<glyph unicode="&#x628;" horiz-adv-x="917" d="M276 0q-89 0 -141 60q-45 53 -45 136v82l164 87v-161q0 -26 9 -35t35 -9h320q26 0 35 9t9 35v164l165 87v-259q0 -95 -60 -149q-52 -47 -134 -47h-357zM452 -247q-37 0 -60 23.5t-23 60.5t23 59.5t60 22.5t59.5 -22.5t22.5 -59.5q0 -38 -22.5 -61t-59.5 -23z" />
<glyph unicode="&#x629;" horiz-adv-x="560" d="M195 565q-37 0 -60 23.5t-23 60.5t23 59.5t60 22.5t59.5 -22.5t22.5 -59.5q0 -38 -22.5 -61t-59.5 -23zM375 565q-37 0 -60 23.5t-23 60.5t23 59.5t60 22.5t59.5 -22.5t22.5 -59.5q0 -38 -22.5 -61t-59.5 -23zM285 0q-100 0 -157 68q-48 58 -48 147q0 97 63 168 q55 62 147 92q106 -35 161 -110q49 -66 49 -150q0 -103 -63 -162q-55 -53 -142 -53h-10zM285 160h10q43 0 43 53q0 69 -48 106q-47 -38 -47 -103q0 -56 42 -56z" />
<glyph unicode="&#x62a;" horiz-adv-x="917" d="M367 465q-37 0 -60 23.5t-23 60.5t23 59.5t60 22.5t59.5 -22.5t22.5 -59.5q0 -38 -22.5 -61t-59.5 -23zM547 465q-37 0 -60 23.5t-23 60.5t23 59.5t60 22.5t59.5 -22.5t22.5 -59.5q0 -38 -22.5 -61t-59.5 -23zM276 0q-89 0 -141 60q-45 53 -45 136v82l164 87v-161 q0 -26 9 -35t35 -9h320q26 0 35 9t9 35v164l165 87v-259q0 -95 -60 -149q-52 -47 -134 -47h-357z" />
<glyph unicode="&#x62b;" horiz-adv-x="917" d="M486 641q-34 0 -54.5 21t-20.5 55q0 33 20.5 53.5t54.5 20.5t54.5 -20.5t20.5 -53.5q0 -34 -20.5 -55t-54.5 -21zM397 465q-37 0 -60 23.5t-23 60.5t23 59.5t60 22.5t59.5 -22.5t22.5 -59.5q0 -38 -22.5 -61t-59.5 -23zM577 465q-37 0 -60 23.5t-23 60.5t23 59.5t60 22.5 t59.5 -22.5t22.5 -59.5q0 -38 -22.5 -61t-59.5 -23zM276 0q-89 0 -141 60q-45 53 -45 136v82l164 87v-161q0 -26 9 -35t35 -9h320q26 0 35 9t9 35v164l165 87v-259q0 -95 -60 -149q-52 -47 -134 -47h-357z" />
<glyph unicode="&#x62c;" horiz-adv-x="670" d="M549 -317q-92 -58 -205 -58q-125 0 -200 77q-74 76 -74 207q0 137 77 209q58 55 209 91q62 15 86 25q-57 88 -134 88q-76 0 -180 -87v141q86 99 201 99q81 0 157 -58t134 -165v-56q-26 -54 -72.5 -83.5t-147.5 -55.5q-98 -25 -130 -51q-40 -34 -40 -97q0 -124 130 -124 q93 0 189 56v-158zM365 -153q-31 0 -50 19.5t-19 50.5q0 30 19 49t50 19q30 0 49 -19t19 -49q0 -32 -18.5 -51t-49.5 -19z" />
<glyph unicode="&#x62d;" horiz-adv-x="670" d="M549 -317q-92 -58 -205 -58q-125 0 -200 77q-74 76 -74 207q0 137 77 209q58 55 209 91q62 15 86 25q-57 88 -134 88q-76 0 -180 -87v141q86 99 199 99h2q81 0 157 -58.5t134 -164.5v-56q-26 -54 -72.5 -83.5t-147.5 -55.5q-98 -25 -130 -51q-40 -34 -40 -97 q0 -124 130 -124h4q92 2 185 56v-158z" />
<glyph unicode="&#x62e;" horiz-adv-x="670" d="M318 535q-37 0 -60 23.5t-23 60.5t23 59.5t60 22.5t59.5 -22.5t22.5 -59.5q0 -38 -22.5 -61t-59.5 -23zM549 -317q-92 -58 -205 -58q-125 0 -200 77q-74 76 -74 207q0 137 77 209q58 55 209 91q62 15 86 25q-57 88 -134 88q-76 0 -180 -87v141q86 99 199 99h2 q81 0 157 -58.5t134 -164.5v-56q-26 -54 -72.5 -83.5t-147.5 -55.5q-98 -25 -130 -51q-40 -34 -40 -97q0 -124 130 -124h4q92 2 185 56v-158z" />
<glyph unicode="&#x62f;" horiz-adv-x="496" d="M10 0l83 160h139q30 0 30 30q0 86 -91 138l81 139q175 -102 175 -279q0 -103 -54 -151q-41 -37 -110 -37h-253z" />
<glyph unicode="&#x630;" horiz-adv-x="496" d="M253 535q-37 0 -60 23.5t-23 60.5t23 59.5t60 22.5t59.5 -22.5t22.5 -59.5q0 -38 -22.5 -61t-59.5 -23zM10 0l83 160h139q30 0 30 30q0 86 -91 138l81 139q175 -102 175 -279q0 -103 -54 -151q-41 -37 -110 -37h-253z" />
<glyph unicode="&#x631;" horiz-adv-x="393" d="M303 72q0 -86 -35.5 -151t-98.5 -95q-45 -21 -96 -21q-68 0 -133 36v143q53 -30 102 -30q20 0 37 5q59 19 59 101v307l165 88v-383z" />
<glyph unicode="&#x632;" horiz-adv-x="393" d="M221 535q-37 0 -60 23.5t-23 60.5t23 59.5t60 22.5t59.5 -22.5t22.5 -59.5q0 -38 -22.5 -61t-59.5 -23zM303 72q0 -86 -35.5 -151t-98.5 -95q-45 -21 -96 -21q-68 0 -133 36v143q53 -30 102 -30q20 0 37 5q59 19 59 101v307l165 88v-383z" />
<glyph unicode="&#x633;" horiz-adv-x="1402" d="M1147 368l165 87v-259q0 -93 -57 -147q-50 -46 -128 -49h-128q-64 0 -111 30q-43 -27 -102 -30h-128q-20 0 -38 3q-23 -94 -102 -146q-71 -47 -171 -47q-140 0 -217 99q-60 76 -60 180q0 74 33 131l156 33q-34 -65 -34 -135q0 -67 33 -107.5t89 -40.5q117 0 117 104v254 l165 87v-211q0 -26 9 -35t35 -9h88q26 0 35 9t9 35v144l165 87v-231q0 -26 9 -35t35 -9h89q26 0 35 9t9 35v164z" />
<glyph unicode="&#x634;" horiz-adv-x="1402" d="M892 711q-34 0 -54.5 20.5t-20.5 55.5q0 34 20.5 54t54.5 20t54.5 -20t20.5 -54t-20.5 -55t-54.5 -21zM803 535q-37 0 -60 23.5t-23 60.5t23 59.5t60 22.5t59.5 -22.5t22.5 -59.5q0 -38 -22.5 -61t-59.5 -23zM900 619q0 37 23 59.5t60 22.5t59.5 -22.5t22.5 -59.5 q0 -38 -22.5 -61t-59.5 -23t-60 23.5t-23 60.5zM1147 368l165 87v-259q0 -93 -57 -147q-50 -46 -128 -49h-128q-64 0 -111 30q-43 -27 -102 -30h-128q-20 0 -38 3q-23 -94 -102 -146q-71 -47 -171 -47q-140 0 -217 99q-60 76 -60 180q0 74 33 131l156 33q-34 -65 -34 -135 q0 -67 33 -107.5t89 -40.5q117 0 117 104v254l165 87v-211q0 -26 9 -35t35 -9h88q26 0 35 9t9 35v144l165 87v-231q0 -26 9 -35t35 -9h89q26 0 35 9t9 35v164z" />
<glyph unicode="&#x635;" horiz-adv-x="1360" d="M669 160q52 138 144 223q101 92 228 92q123 0 196 -85q63 -72 63 -176v-18q0 -96 -60 -149q-52 -47 -134 -47h-448q-20 0 -38 3q-23 -94 -102 -146q-71 -47 -171 -47q-140 0 -217 99q-60 76 -60 180q0 74 33 131l156 33q-34 -65 -34 -135q0 -67 33 -107.5t89 -40.5 q117 0 117 104v254l165 87v-211q0 -25 8 -34t32 -10zM1135 204v10q0 48 -25.5 77t-67.5 29q-60 0 -115.5 -43t-91.5 -117h266q24 0 29 6.5t5 37.5z" />
<glyph unicode="&#x636;" horiz-adv-x="1360" d="M1045 535q-37 0 -60 23.5t-23 60.5t23 59.5t60 22.5t59.5 -22.5t22.5 -59.5q0 -38 -22.5 -61t-59.5 -23zM669 160q52 138 144 223q101 92 228 92q123 0 196 -85q63 -72 63 -176v-18q0 -96 -60 -149q-52 -47 -134 -47h-448q-20 0 -38 3q-23 -94 -102 -146 q-71 -47 -171 -47q-140 0 -217 99q-60 76 -60 180q0 74 33 131l156 33q-34 -65 -34 -135q0 -67 33 -107.5t89 -40.5q117 0 117 104v254l165 87v-211q0 -25 8 -34t32 -10zM1135 204v10q0 48 -25.5 77t-67.5 29q-60 0 -115.5 -43t-91.5 -117h266q24 0 29 6.5t5 37.5z" />
<glyph unicode="&#x637;" horiz-adv-x="935" d="M20 0l85 160h139v397l165 88v-244q94 74 207 74q123 0 196 -85q63 -72 63 -176v-18q0 -96 -60 -149q-52 -47 -134 -47h-661zM410 160h266q24 0 29 6.5t5 37.5v10q0 48 -25.5 77t-67.5 29q-60 0 -115.5 -43t-91.5 -117z" />
<glyph unicode="&#x638;" horiz-adv-x="935" d="M617 535q-37 0 -60 23.5t-23 60.5t23 59.5t60 22.5t59.5 -22.5t22.5 -59.5q0 -38 -22.5 -61t-59.5 -23zM20 0l85 160h139v397l165 88v-244q94 74 207 74q123 0 196 -85q63 -72 63 -176v-18q0 -96 -60 -149q-52 -47 -134 -47h-661zM410 160h266q24 0 29 6.5t5 37.5v10 q0 48 -25.5 77t-67.5 29q-60 0 -115.5 -43t-91.5 -117z" />
<glyph unicode="&#x639;" horiz-adv-x="599" d="M549 -317q-91 -58 -198 -58q-125 0 -205 76q-76 73 -76 192q0 112 75 188q-60 68 -60 170q0 107 77 172q63 52 145 52q112 0 181 -99v-141q-77 85 -161 85h-5q-72 -2 -72 -75q0 -85 106 -85h180v-160h-178q-128 0 -128 -107q0 -51 34.5 -79.5t96.5 -28.5h3q92 2 185 56 v-158z" />
<glyph unicode="&#x63a;" horiz-adv-x="599" d="M331 535q-37 0 -60 23.5t-23 60.5t23 59.5t60 22.5t59.5 -22.5t22.5 -59.5q0 -38 -22.5 -61t-59.5 -23zM549 -317q-91 -58 -198 -58q-125 0 -205 76q-76 73 -76 192q0 112 75 188q-60 68 -60 170q0 107 77 172q63 52 145 52q112 0 181 -99v-141q-77 85 -161 85h-5 q-72 -2 -72 -75q0 -85 106 -85h180v-160h-178q-128 0 -128 -107q0 -51 34.5 -79.5t96.5 -28.5h3q92 2 185 56v-158z" />
<glyph unicode="&#x640;" horiz-adv-x="116" d="M-10 0v160h136v-160h-136z" />
<glyph unicode="&#x641;" horiz-adv-x="1010" d="M751 515q-37 0 -60 23.5t-23 60.5t23 59.5t60 22.5t59.5 -22.5t22.5 -59.5q0 -38 -22.5 -61t-59.5 -23zM306 0q-103 0 -163 71q-53 61 -53 155v80l165 88v-160q0 -43 13.5 -58.5t51.5 -15.5h222q-14 37 -14 78q0 112 63 178q56 59 147 59q93 0 146 -60q46 -51 46 -133 v-86q0 -88 -52 -142t-142 -54h-430zM765 288q0 32 -27 32q-48 0 -48 -76q0 -84 48 -84q27 0 27 32v96z" />
<glyph unicode="&#x642;" horiz-adv-x="809" d="M448 515q-37 0 -60 23.5t-23 60.5t23 59.5t60 22.5t59.5 -22.5t22.5 -59.5q0 -38 -22.5 -61t-59.5 -23zM628 515q-37 0 -60 23.5t-23 60.5t23 59.5t60 22.5t59.5 -22.5t22.5 -59.5q0 -38 -22.5 -61t-59.5 -23zM729 74q0 -127 -94 -198q-87 -66 -238 -66q-175 0 -262 99 q-65 74 -65 180q0 74 33 131l156 33q-34 -65 -34 -135q0 -148 172 -148q132 0 159 61q-9 -1 -27 -1q-96 0 -154 71q-48 58 -48 137q0 112 63 178q56 59 147 59q93 0 146 -60q46 -51 46 -133v-208zM564 288q0 32 -27 32q-48 0 -48 -76q0 -75 50 -75q16 0 25 6v113z" />
<glyph unicode="&#x643;" horiz-adv-x="917" d="M662 558l165 87v-449q0 -95 -60 -149q-52 -47 -134 -47h-357q-89 0 -141 60q-45 53 -45 136v82l164 87v-161q0 -26 9 -35t35 -9h320q26 0 35 9t9 35v354zM505 525q72 -18 72 -98q0 -46 -25.5 -72.5t-69.5 -26.5h-164l39 73h117q30 0 30 31q0 37 -48 37q-34 0 -59 -24v66 l89 98h94z" />
<glyph unicode="&#x644;" horiz-adv-x="757" d="M667 102q0 -136 -94 -220q-83 -73 -207 -73q-151 0 -233 97q-63 74 -63 175q0 74 31 132l163 37q-36 -61 -36 -143q0 -66 36 -102t102 -36q63 0 99.5 35.5t36.5 97.5v455l165 88v-543z" />
<glyph unicode="&#x645;" horiz-adv-x="657" d="M185 158q-10 36 -10 80q0 112 63 178q56 59 147 59q93 0 146 -60q46 -51 46 -133v-131q-2 -151 -200 -151h-1h-147q-26 0 -35 -9t-9 -35v-184l-165 -87v279q0 87 51 140q43 46 114 54zM412 181v107q0 32 -27 32q-48 0 -48 -76q0 -84 49 -84q26 0 26 21z" />
<glyph unicode="&#x646;" horiz-adv-x="719" d="M337 423q-37 0 -60 23.5t-23 60.5t23 59.5t60 22.5t59.5 -22.5t22.5 -59.5q0 -38 -22.5 -61t-59.5 -23zM629 74q0 -124 -86 -198q-77 -66 -196 -66q-140 0 -217 99q-60 76 -60 180q0 74 33 131l156 33q-34 -65 -34 -135q0 -67 33 -107.5t89 -40.5q117 0 117 104v294 l165 87v-381z" />
<glyph unicode="&#x647;" horiz-adv-x="560" d="M275 0q-100 0 -157 68q-48 58 -48 147q0 97 63 168q55 62 147 92q106 -35 161 -110q49 -66 49 -150q0 -103 -63 -162q-55 -53 -142 -53h-10zM275 160h10q43 0 43 53q0 69 -48 106q-47 -38 -47 -103q0 -56 42 -56z" />
<glyph unicode="&#x648;" horiz-adv-x="542" d="M295 31q-11 -1 -33 -1q-96 0 -154 71q-48 58 -48 137q0 112 63 178q56 59 147 59q93 0 146 -60q46 -51 46 -133v-210q0 -138 -78 -208q-60 -54 -152 -54q-66 0 -133 41v143q65 -38 119 -38q66 0 77 75zM297 288q0 32 -27 32q-48 0 -48 -76q0 -75 50 -75q16 0 25 6v113z " />
<glyph unicode="&#x649;" horiz-adv-x="783" d="M664 256q-76 62 -137 62q-24 0 -39 -11.5t-15 -29.5q0 -29 20.5 -46t80.5 -37q77 -25 106 -51q43 -38 43 -106q0 -113 -102 -175q-87 -52 -224 -52q-175 0 -262 99q-65 74 -65 180q0 74 33 131l156 33q-34 -65 -34 -135q0 -148 172 -148q162 0 162 69q0 25 -74 51 q-82 29 -116 60q-51 47 -51 128q0 95 64 148q49 40 113 40q50 0 96.5 -20.5t72.5 -53.5v-136z" />
<glyph unicode="&#x64a;" horiz-adv-x="783" d="M664 256q-76 62 -137 62q-24 0 -39 -11.5t-15 -29.5q0 -29 20.5 -46t80.5 -37q77 -25 106 -51q43 -38 43 -106q0 -113 -102 -175q-87 -52 -224 -52q-175 0 -262 99q-65 74 -65 180q0 74 33 131l156 33q-34 -65 -34 -135q0 -148 172 -148q162 0 162 69q0 25 -74 51 q-82 29 -116 60q-51 47 -51 128q0 95 64 148q49 40 113 40q50 0 96.5 -20.5t72.5 -53.5v-136zM311 -415q-37 0 -60 23.5t-23 60.5t23 59.5t60 22.5t59.5 -22.5t22.5 -59.5q0 -38 -22.5 -61t-59.5 -23zM491 -415q-37 0 -60 23.5t-23 60.5t23 59.5t60 22.5t59.5 -22.5 t22.5 -59.5q0 -38 -22.5 -61t-59.5 -23z" />
<glyph unicode="&#x64b;" d="M30 745l60 129l313 56l-60 -128zM0 565l60 129l313 56l-60 -128z" />
<glyph unicode="&#x64c;" d="M213 698q-9 26 -9 52q0 52 32.5 88.5t78.5 36.5q48 0 80 -37t32 -91q0 -72 -47 -115.5t-124 -43.5q-66 0 -132 36l-21 -34l-103 73l67 102h37q48 -62 109 -67zM318 731q17 12 17 29q0 23 -18 23t-18 -23q0 -18 19 -29z" />
<glyph unicode="&#x64d;" d="M30 -250l60 129l313 56l-60 -128zM0 -430l60 129l313 56l-60 -128z" />
<glyph unicode="&#x64e;" d="M0 565l60 129l313 56l-60 -128z" />
<glyph unicode="&#x64f;" d="M0 565l51 109l116 21q-11 28 -11 55q0 52 32.5 88.5t78.5 36.5q48 0 80 -35.5t32 -89.5q0 -52 -31 -90.5t-78 -45.5zM270 731q17 12 17 29q0 23 -18 23t-18 -23q0 -18 19 -29z" />
<glyph unicode="&#x650;" d="M0 -279l60 129l313 56l-60 -128z" />
<glyph unicode="&#x651;" d="M232 731l92 51v-126q0 -40 -29 -65.5t-75 -25.5q-34 0 -58 14q-28 -14 -60 -14q-45 0 -73.5 25.5t-28.5 65.5v55l92 51v-99q0 -10 12 -10t12 10v58l92 51v-109q0 -10 12 -10t12 10v68z" />
<glyph unicode="&#x652;" d="M105 791q46 -11 75.5 -48t29.5 -83q-1 -43 -29.5 -69t-75.5 -26q-48 0 -76.5 25.5t-28.5 68.5q0 47 29.5 84t75.5 48zM105 700q-19 -11 -19 -29q0 -23 18 -23t18 23q0 17 -17 29z" />
<glyph unicode="&#x653;" d="M344 737q-55 -63 -107 -63q-21 0 -65 23q-35 18 -48 18h-1q-18 0 -52 -37l-55 51q57 63 107 63q23 0 70 -24q32 -16 44 -16q17 0 55 37z" />
<glyph unicode="&#x654;" d="M-5 649l39 73h33q-12 21 -12 44q0 37 27 62q24 23 60 23t65 -27v-71q-28 25 -54 25q-16 0 -24 -8q-7 -7 -7 -18q0 -14 13 -30h106l-39 -73h-207z" />
<glyph unicode="&#x655;" d="M-5 -292l39 73h33q-12 21 -12 44q0 38 27 62q24 23 60 23t65 -27v-71q-28 26 -54 26q-16 0 -24 -9q-7 -6 -7 -18q0 -14 13 -30h106l-39 -73h-207z" />
<glyph unicode="&#x660;" horiz-adv-x="415" d="M209 89l-169 170l169 166l166 -166z" />
<glyph unicode="&#x661;" horiz-adv-x="305" d="M70 -15v580h165v-492z" />
<glyph unicode="&#x662;" horiz-adv-x="434" d="M65 -15v407q0 85 56 132q48 41 125 41h163v-160h-146q-33 0 -33 -27v-304z" />
<glyph unicode="&#x663;" horiz-adv-x="653" d="M476 565h147v-123q0 -74 -53 -119q-46 -40 -116 -40q-56 0 -98 25q-42 -25 -96 -25q-17 0 -25 1v-211l-165 -88v580h165v-123q0 -19 23 -19q24 0 24 19v93h147v-93q0 -19 24 -19q23 0 23 19v123z" />
<glyph unicode="&#x664;" horiz-adv-x="479" d="M225 0q-93 0 -144 60q-41 47 -41 116q0 61 46 119q-36 39 -36 93v4q1 73 58 125q53 48 131 48h128v-149h-107q-45 0 -45 -38q0 -40 45 -40h82v-110h-92q-45 0 -45 -38v-1v-1q2 -38 45 -38h107l97 -150h-229z" />
<glyph unicode="&#x665;" horiz-adv-x="480" d="M241 499q105 -53 162 -150q47 -81 47 -167v-2q-1 -89 -58 -141q-55 -49 -151 -49q-110 0 -167 64q-44 50 -44 127q0 100 62 189q56 82 149 129zM241 349q-80 -61 -80 -142q0 -67 80 -67q79 0 79 67q0 82 -79 142z" />
<glyph unicode="&#x666;" horiz-adv-x="434" d="M204 -15v393q0 27 -33 27h-146v160h163q89 0 138 -53q43 -46 43 -120v-318z" />
<glyph unicode="&#x667;" horiz-adv-x="579" d="M188 0l-168 565h165l102 -346h2l104 346h166l-171 -565h-200z" />
<glyph unicode="&#x668;" horiz-adv-x="579" d="M20 0l168 565h200l171 -565h-166l-104 346h-2l-102 -346h-165z" />
<glyph unicode="&#x669;" horiz-adv-x="489" d="M259 -15v202q-22 -3 -42 -3q-28 0 -52 6q-130 33 -130 185q0 104 68 159q53 42 131 42q83 0 138 -54q52 -51 52 -134v-314zM259 394q0 32 -31 32q-15 0 -26.5 -13t-11.5 -31q0 -46 33 -53q4 -1 8 -1q14 0 28 8v58z" />
<glyph unicode="&#x66a;" horiz-adv-x="812" d="M220 332l-120 121l120 119l119 -119zM200 0l291 565h117l-291 -565h-117zM593 12l-120 121l120 119l119 -119z" />
<glyph unicode="&#x66d;" horiz-adv-x="378" d="M222 484q3 -7 6 -16q9 -24 9 -32v-2q0 -34 -42 -34q-41 0 -41 34v2q2 18 19 57l-1 -1q-3 -4 -4 -6q-24 -34 -33 -40t-19 -6q-16 0 -29 14.5t-13 32.5t16 28q13 10 61 16q-46 6 -60 13q-17 10 -17 29t12.5 33.5t28.5 14.5q9 0 18 -6q9 -5 35 -38q-15 30 -15 47v2 q0 34 40 34q42 0 42 -34v-2q0 -8 -8 -29q-3 -7 -5 -13q19 24 32 32q8 4 16 4q16 0 28.5 -14.5t12.5 -32.5q0 -21 -18 -29q-12 -6 -50 -10q3 -1 11 -2l3 -1q31 -5 39 -10q16 -9 16 -29q0 -13 -8 -25q-13 -22 -33 -22q-9 0 -18 6q-10 7 -31 35z" />
<glyph unicode="&#x66e;" horiz-adv-x="917" d="M276 0q-89 0 -141 60q-45 53 -45 136v82l164 87v-161q0 -26 9 -35t35 -9h320q26 0 35 9t9 35v164l165 87v-259q0 -95 -60 -149q-52 -47 -134 -47h-357z" />
<glyph unicode="&#x670;" d="M0 629v203l92 50v-203z" />
<glyph unicode="&#x67e;" horiz-adv-x="917" d="M276 0q-89 0 -141 60q-45 53 -45 136v82l164 87v-161q0 -26 9 -35t35 -9h320q26 0 35 9t9 35v164l165 87v-259q0 -95 -60 -149q-52 -47 -134 -47h-357zM398 -245q-37 0 -60 22.5t-23 59.5t23 60.5t60 23.5t59.5 -23t22.5 -61q0 -37 -22.5 -59.5t-59.5 -22.5zM578 -245 q-37 0 -60 22.5t-23 59.5t23 60.5t60 23.5t59.5 -23t22.5 -61q0 -37 -22.5 -59.5t-59.5 -22.5zM487 -405q-34 0 -54.5 20.5t-20.5 53.5q0 34 20.5 55t54.5 21t54.5 -21t20.5 -55q0 -33 -20.5 -53.5t-54.5 -20.5z" />
<glyph unicode="&#x6a4;" horiz-adv-x="1010" d="M741 691q-34 0 -54.5 20.5t-20.5 55.5q0 34 20.5 54t54.5 20t54.5 -20t20.5 -54t-20.5 -55t-54.5 -21zM652 515q-37 0 -60 23.5t-23 60.5t23 59.5t60 22.5t59.5 -22.5t22.5 -59.5q0 -38 -22.5 -61t-59.5 -23zM832 515q-37 0 -60 23.5t-23 60.5t23 59.5t60 22.5 t59.5 -22.5t22.5 -59.5q0 -38 -22.5 -61t-59.5 -23zM306 0q-103 0 -163 71q-53 61 -53 155v80l165 88v-160q0 -43 13.5 -58.5t51.5 -15.5h222q-14 37 -14 78q0 112 63 178q56 59 147 59q93 0 146 -60q46 -51 46 -133v-86q0 -88 -52 -142t-142 -54h-430zM765 288q0 32 -27 32 q-48 0 -48 -76q0 -84 48 -84q27 0 27 32v96z" />
<glyph unicode="&#x2000;" horiz-adv-x="590" />
<glyph unicode="&#x2001;" horiz-adv-x="1180" />
<glyph unicode="&#x2002;" horiz-adv-x="521" />
<glyph unicode="&#x2003;" horiz-adv-x="1042" />
<glyph unicode="&#x2004;" horiz-adv-x="347" />
<glyph unicode="&#x2005;" horiz-adv-x="260" />
<glyph unicode="&#x2006;" horiz-adv-x="69" />
<glyph unicode="&#x2007;" horiz-adv-x="583" />
<glyph unicode="&#x2008;" horiz-adv-x="265" />
<glyph unicode="&#x2009;" horiz-adv-x="130" />
<glyph unicode="&#x200a;" horiz-adv-x="35" />
<glyph unicode="&#x2010;" horiz-adv-x="308" d="M297 178h-285v118h285v-118z" />
<glyph unicode="&#x2011;" horiz-adv-x="264" d="M264 321v-124h-264v124h264z" />
<glyph unicode="&#x2012;" horiz-adv-x="583" d="M528 321v-124h-472v124h472z" />
<glyph unicode="&#x2013;" horiz-adv-x="409" d="M418 166h-426v118h426v-118z" />
<glyph unicode="&#x2014;" horiz-adv-x="590" d="M599 166h-607v118h607v-118z" />
<glyph unicode="&#x2015;" horiz-adv-x="771" d="M771 321v-124h-771v124h771z" />
<glyph unicode="&#x2018;" horiz-adv-x="361" d="M201 504q45 0 72.5 -29t27.5 -76q0 -52 -33.5 -86t-83.5 -34q-51 0 -82.5 34.5t-31.5 90.5v230l89 12v-142h42z" />
<glyph unicode="&#x2019;" horiz-adv-x="361" d="M160 421q-45 0 -72.5 29t-27.5 76q0 52 33.5 86t83.5 34q51 0 82.5 -34.5t31.5 -90.5v-230l-89 -12v142h-42z" />
<glyph unicode="&#x201a;" horiz-adv-x="361" d="M160 -1q-45 0 -72.5 29t-27.5 76q0 51 33.5 85.5t83.5 34.5q51 0 82.5 -34.5t31.5 -90.5v-230l-89 -12v142h-42z" />
<glyph unicode="&#x201c;" horiz-adv-x="620" d="M201 504q45 0 72.5 -29t27.5 -76q0 -52 -33.5 -86t-83.5 -34q-51 0 -82.5 34.5t-31.5 90.5v230l89 12v-142h42zM460 504q45 0 72.5 -29t27.5 -76q0 -52 -33.5 -86t-83.5 -34q-51 0 -82.5 34.5t-31.5 90.5v230l89 12v-142h42z" />
<glyph unicode="&#x201d;" horiz-adv-x="626" d="M160 421q-45 0 -72.5 29t-27.5 76q0 52 33.5 86t83.5 34q51 0 82.5 -34.5t31.5 -90.5v-230l-89 -12v142h-42zM425 421q-45 0 -72.5 29t-27.5 76q0 52 33.5 86t83.5 34q51 0 82.5 -34.5t31.5 -90.5v-230l-89 -12v142h-42z" />
<glyph unicode="&#x201e;" horiz-adv-x="626" d="M160 -4q-45 0 -72.5 29t-27.5 76q0 52 33.5 86t83.5 34q51 0 82.5 -34.5t31.5 -90.5v-230l-89 -12v142h-42zM425 -4q-45 0 -72.5 29t-27.5 76q0 52 33.5 86t83.5 34q51 0 82.5 -34.5t31.5 -90.5v-230l-89 -12v142h-42z" />
<glyph unicode="&#x2020;" horiz-adv-x="436" d="M29 454h117v179h142v-179h119v-120h-119v-377h-142v377h-117v120z" />
<glyph unicode="&#x2021;" horiz-adv-x="436" d="M146 110h-117v120h117v104h-117v120h117v176h142v-176h119v-120h-119v-104h119v-120h-119v-154h-142v154z" />
<glyph unicode="&#x2022;" horiz-adv-x="420" d="M211 150q-141 0 -141 142q0 141 141 141q139 0 139 -141q0 -142 -139 -142z" />
<glyph unicode="&#x2026;" horiz-adv-x="963" d="M283 89v-2q0 -41 -26.5 -66.5t-68.5 -25.5q-43 0 -69.5 26.5t-26.5 68.5v4q3 39 29.5 63t66.5 24q42 0 68.5 -26t26.5 -66zM583 89v-2q0 -41 -26.5 -66.5t-68.5 -25.5q-43 0 -69.5 26.5t-26.5 68.5v4q3 39 29.5 63t66.5 24q42 0 68.5 -26t26.5 -66zM883 89v-2 q0 -41 -26.5 -66.5t-68.5 -25.5q-43 0 -69.5 26.5t-26.5 68.5v4q3 39 29.5 63t66.5 24q42 0 68.5 -26t26.5 -66z" />
<glyph unicode="&#x202f;" horiz-adv-x="236" />
<glyph unicode="&#x2030;" horiz-adv-x="1120" d="M191 645q79 0 123 -58q35 -47 35 -114q0 -74 -51 -124q-45 -44 -107 -44q-72 0 -117 51q-41 47 -41 117q0 78 44 126q42 46 114 46zM222 510q0 56 -31 56q-35 0 -35 -67v-14v-12q0 -87 28 -87q38 0 38 87v20v17zM568 323q78 0 122 -58q36 -47 36 -114q0 -74 -51 -124 q-45 -44 -107 -44q-73 0 -118 52q-40 46 -40 116q0 79 43 126q43 46 115 46zM602 189q0 57 -34 57q-20 0 -28 -17.5t-8 -64.5v-13q0 -83 32 -83q38 0 38 83v20v18zM612 633l-388 -663h-87l384 663h91zM930 323q79 0 123 -58q35 -47 35 -114q0 -74 -51 -124q-45 -44 -107 -44 q-72 0 -117 52q-41 46 -41 116q0 79 44 126q42 46 114 46zM965 189q0 57 -35 57q-20 0 -27.5 -17.5t-7.5 -64.5v-13q0 -83 32 -83q37 0 37 83v20q1 12 1 18z" />
<glyph unicode="&#x2039;" horiz-adv-x="397" d="M357 -10h-13q-93 0 -181 80q-76 69 -113 168q43 115 134 186q79 62 160 62h13v-145q-99 -32 -136 -103q37 -71 136 -103v-145z" />
<glyph unicode="&#x203a;" horiz-adv-x="397" d="M40 -10v145q99 32 136 103q-37 71 -136 103v145h13q93 0 181 -80q76 -69 113 -168q-43 -115 -134 -186q-79 -62 -160 -62h-13z" />
<glyph unicode="&#x2044;" horiz-adv-x="496" d="M20 0l291 565h165l-291 -565h-165z" />
<glyph unicode="&#x205f;" horiz-adv-x="295" />
<glyph unicode="&#x20ac;" horiz-adv-x="612" d="M237 287h188v-120h-177q6 -8 10 -11q25 -22 50 -29t78 -7q34 0 60.5 9.5t79.5 40.5l56 -93q-53 -49 -97 -69t-98 -20q-208 0 -283 169q-2 3 -4 10h-71v120h56l-1 43h-55v120h72q32 87 96 140q65 55 145 55q65 0 111.5 -18t113.5 -70l-59 -99q-77 56 -134 56 q-36 0 -68 -18.5t-45 -45.5h164v-120h-189z" />
<glyph unicode="&#x2122;" horiz-adv-x="688" d="M12 633h241v-88h-71v-150h-94v150h-76v88zM521 395h-113l-16 109v-109h-89v238h124l40 -153l33 153h124v-238h-87v106z" />
<glyph unicode="&#x2126;" horiz-adv-x="623" d="M302 105v-105h-247v122h44q-27 24 -44.5 79t-17.5 117q0 156 92 250q77 77 183 77q129 0 206 -100q68 -89 68 -227q0 -62 -17 -117t-45 -79h51v-122h-256v105h18q49 0 69.5 50.5t20.5 168.5q0 96 -36 148q-30 44 -79 44q-57 0 -89 -50.5t-32 -141.5q0 -219 90 -219h21z " />
<glyph unicode="&#x2202;" horiz-adv-x="520" d="M321 377q0 58 -25 97.5t-61 39.5q-48 0 -113 -33q-7 15 -20 40q-21 39 -30 61q81 63 171 63q241 0 241 -322q0 -155 -34 -226q-53 -109 -192 -109h-3q-116 1 -176 80q-42 56 -42 124q0 207 199 207q54 0 85 -22zM329 264q-42 23 -81 23q-22 0 -37 -25.5t-15 -61.5 q0 -40 18.5 -67.5t44.5 -27.5q36 0 51 33t19 126z" />
<glyph unicode="&#x2206;" horiz-adv-x="719" d="M624 0h-630q60 160 185 475l12 31l50 127h137q162 -422 246 -633zM299 480l-111 -364h230z" />
<glyph unicode="&#x220f;" horiz-adv-x="664" d="M587 633v-812h-151v698h-208v-698h-151v812h510z" />
<glyph unicode="&#x2211;" horiz-adv-x="539" d="M230 243l-208 272v118h483v-119h-340l197 -267l-189 -309h345v-117h-488v118z" />
<glyph unicode="&#x2212;" horiz-adv-x="520" d="M492 166h-463v118h463v-118z" />
<glyph unicode="&#x221a;" horiz-adv-x="617" d="M62 323l195 52l31 -257l149 582h138l-202 -700h-142l-57 218l-73 -23z" />
<glyph unicode="&#x221e;" horiz-adv-x="608" d="M305 154l-4 -4q-49 -62 -105 -62q-74 0 -117.5 37.5t-43.5 102.5q0 57 44 99t105 42q75 0 112 -61q43 60 125 60q60 0 102.5 -41t42.5 -99q0 -53 -45.5 -96.5t-101.5 -43.5q-64 0 -114 66zM237 219q-1 1 -4 6q-19 29 -43 29q-27 0 -27 -26t31 -26q19 0 38 13q3 3 5 4z M360 229q10 -27 38 -27q44 0 44 25q0 28 -42 28q-27 0 -40 -26z" />
<glyph unicode="&#x222b;" horiz-adv-x="418" d="M392 583l-56 -78q-45 30 -66 30t-21 -41v-552q0 -70 -27 -100q-31 -33 -105 -33q-94 0 -170 60l49 75q46 -27 74 -27t28 41v554q0 71 29.5 102t97.5 31q90 0 167 -62z" />
<glyph unicode="&#x2248;" horiz-adv-x="552" d="M442 384l73 -55q-31 -113 -151 -113q-33 0 -118 36q-53 22 -71 22q-46 0 -70 -60l-76 56q28 110 134 110q26 0 93 -25q8 -2 12 -4q84 -29 108 -29q22 0 35.5 12.5t30.5 49.5zM451 208l73 -55q-31 -113 -151 -113q-33 0 -118 36q-53 22 -71 22q-46 0 -70 -60l-76 56 q27 110 134 110q25 0 93 -25q8 -2 12 -4q83 -29 107 -29q22 0 36 12.5t31 49.5z" />
<glyph unicode="&#x2260;" horiz-adv-x="515" d="M138 102h-109v110h176l18 30h-194v109h262l65 103h116l-63 -103h77v-109h-147l-19 -30h166v-110h-234l-64 -102h-116z" />
<glyph unicode="&#x2264;" horiz-adv-x="515" d="M486 0h-457v109h457v-109zM485 110l-456 123v162l25 5l103 19q209 39 328 62v-111q-151 -24 -362 -55l362 -94v-111z" />
<glyph unicode="&#x2265;" horiz-adv-x="515" d="M486 0h-457v109h457v-109zM486 233l-175 -47l-12 -4l-36 -9q-156 -42 -233 -63v111l361 94l-361 55v111l456 -86v-162z" />
<glyph unicode="&#x25cc;" horiz-adv-x="428" d="M214 645q15 0 15 -15t-15 -15t-15 15t15 15zM152 631q15 0 15 -15q0 -14 -15 -14t-15 14q0 15 15 15zM276 631q15 0 15 -15q0 -14 -15 -14t-15 14q0 15 15 15zM103 598q15 0 15 -15t-15 -15t-15 15t15 15zM326 598q15 0 15 -15t-15 -15q-16 0 -16 15t16 15zM71 548 q14 0 14 -14q0 -15 -14 -15q-15 0 -15 15q0 14 15 14zM358 548q14 0 14 -14q0 -15 -14 -15q-15 0 -15 15q0 14 15 14zM60 491q15 0 15 -16q0 -14 -15 -14t-15 14q0 16 15 16zM369 491q15 0 15 -16q0 -14 -15 -14t-15 14q0 16 15 16zM71 432q14 0 14 -15q0 -13 -14 -13 q-15 0 -15 13q0 15 15 15zM358 432q14 0 14 -15q0 -13 -14 -13q-15 0 -15 13q0 15 15 15zM103 383q15 0 15 -15q0 -14 -15 -14t-15 14q0 15 15 15zM326 383q15 0 15 -15q0 -14 -15 -14q-16 0 -16 14q0 15 16 15zM152 349q15 0 15 -13q0 -16 -15 -16t-15 16q0 13 15 13z M276 349q15 0 15 -13q0 -16 -15 -16t-15 16q0 13 15 13zM214 337q15 0 15 -16q0 -15 -15 -15t-15 15q0 16 15 16z" />
<glyph unicode="&#x25fc;" horiz-adv-x="455" d="M0 455h455v-455h-455v455z" />
<glyph unicode="&#xe028;" d="M83 -59q-37 0 -60 23.5t-23 60.5t23 59.5t60 22.5t59.5 -22.5t22.5 -59.5q0 -38 -22.5 -61t-59.5 -23z" />
<glyph unicode="&#xe030;" horiz-adv-x="954" d="M871 160h93v-160h-108q-64 0 -111 30q-49 -30 -112 -30h-357q-89 0 -141 60q-45 53 -45 136v82l164 87v-161q0 -26 9 -35t35 -9h320q26 0 35 9t9 35v164l165 87v-251q0 -26 9 -35t35 -9z" />
<glyph unicode="&#xe03d;" horiz-adv-x="147" d="M39 0q-94 0 -147 60q-47 53 -47 136v172l165 87v-251q0 -26 9 -35t35 -9h93v-160h-108z" />
<glyph unicode="&#xe03e;" horiz-adv-x="829" d="M562 75q-3 -184 -199 -184q-91 0 -148 45q-115 87 -115 254q0 215 235 353q-56 61 -56 132q0 58 38 93.5t100 36.5h5q60 0 96 -34.5t36 -92.5q0 -77 -67 -138q242 -138 242 -362q0 -202 -173 -298v56q80 85 80 237q0 86 -60 165t-165 131q-112 -49 -167 -134 q-45 -68 -45 -146q0 -107 61 -166q42 -40 103 -40q40 0 56.5 10t21.5 38q-15 -3 -30 -3q-75 0 -117 57q-33 45 -33 106q0 72 44 120q43 46 112 46q68 0 107.5 -38t39.5 -103zM414 585q42 31 42 81q-2 44 -38 44q-38 0 -38 -46q0 -45 34 -79zM444 209q0 52 -27 52 q-36 0 -36 -70q0 -67 30 -67q20 0 33 20v65z" />
<glyph unicode="&#xe800;" d="M410 1180l-60 -128l-313 -57l60 129zM7 815l60 129l313 56l-60 -128zM239 663v68l92 51v-126q0 -40 -29 -65.5t-75 -25.5q-34 0 -58 14q-28 -14 -60 -14q-45 0 -73.5 25.5t-28.5 65.5v55l92 51v-99q0 -10 12 -10t12 10v58l92 51v-109q0 -10 12 -10t12 10z" />
<glyph unicode="&#xfbb2;" d="M83 597q-37 0 -60 23.5t-23 60.5t23 59.5t60 22.5t59.5 -22.5t22.5 -59.5q0 -38 -22.5 -61t-59.5 -23z" />
<glyph unicode="&#xfbb3;" d="M83 -259q-37 0 -60 23.5t-23 60.5t23 59.5t60 22.5t59.5 -22.5t22.5 -59.5q0 -38 -22.5 -61t-59.5 -23z" />
<glyph unicode="&#xfbb4;" d="M83 633q-37 0 -60 23t-23 61q0 36 23 59t60 23t59.5 -23t22.5 -59q0 -38 -22.5 -61t-59.5 -23zM263 633q-37 0 -60 23t-23 61q0 36 23 59t60 23t59.5 -23t22.5 -59q0 -38 -22.5 -61t-59.5 -23z" />
<glyph unicode="&#xfbb5;" d="M83 -270q-37 0 -60 23t-23 61q0 36 23 59t60 23t59.5 -23t22.5 -59q0 -38 -22.5 -61t-59.5 -23zM263 -270q-37 0 -60 23t-23 61q0 36 23 59t60 23t59.5 -23t22.5 -59q0 -38 -22.5 -61t-59.5 -23z" />
<glyph unicode="&#xfbb6;" d="M172 752q-34 0 -54.5 20.5t-20.5 55.5q0 34 20.5 54t54.5 20t54.5 -20t20.5 -54t-20.5 -55t-54.5 -21zM83 576q-37 0 -60 23.5t-23 60.5t23 59.5t60 22.5t59.5 -22.5t22.5 -59.5q0 -38 -22.5 -61t-59.5 -23zM263 576q-37 0 -60 23.5t-23 60.5t23 59.5t60 22.5t59.5 -22.5 t22.5 -59.5q0 -38 -22.5 -61t-59.5 -23z" />
<glyph unicode="&#xfbb7;" d="M83 -267q37 0 59.5 -22.5t22.5 -59.5q0 -38 -22.5 -61t-59.5 -23t-60 23.5t-23 60.5t23 59.5t60 22.5zM263 -267q37 0 59.5 -22.5t22.5 -59.5q0 -38 -22.5 -61t-59.5 -23t-60 23.5t-23 60.5t23 59.5t60 22.5zM172 -107q34 0 54.5 -20.5t20.5 -53.5q0 -34 -20.5 -55 t-54.5 -21t-54.5 21t-20.5 55q0 33 20.5 53.5t54.5 20.5z" />
<glyph unicode="&#xfd3e;" horiz-adv-x="460" d="M359 -132q-152 55 -233 194q-66 112 -66 246q0 156 85 278q80 115 215 163v-148q-66 -39 -104 -119t-38 -179q0 -93 37.5 -169t103.5 -116v-150z" />
<glyph unicode="&#xfd3f;" horiz-adv-x="460" d="M101 -132v150q66 40 104 116t38 165q0 102 -38 182.5t-105 119.5v148q156 -56 236 -199q64 -113 64 -252q0 -152 -86 -272q-80 -111 -213 -158z" />
</font>
</defs>
</svg>
