<?xml version="1.0" standalone="no"?>
<!DOCTYPE svg PUBLIC "-//W3C//DTD SVG 1.1//EN" "http://www.w3.org/Graphics/SVG/1.1/DTD/svg11.dtd" >
<svg xmlns="http://www.w3.org/2000/svg" xmlns:xlink="http://www.w3.org/1999/xlink" version="1.1">
<metadata></metadata>
<defs>
<font id="tajawalextralight" horiz-adv-x="1071" >
<font-face units-per-em="2048" ascent="1321" descent="-727" />
<missing-glyph horiz-adv-x="436" />
<glyph unicode="&#xfb01;" horiz-adv-x="1001" d="M86 883v45h121v143q0 117 55 182.5t156 65.5q57 0 137 -43l-25 -45q-68 43 -114 43q-154 0 -154 -199v-147l555 2v-930h-55v883h-500v-883h-55v883h-121zM737 1264q0 57 58 57q55 0 55 -57q0 -55 -55 -56q-58 1 -58 56z" />
<glyph unicode="&#xfb02;" horiz-adv-x="968" d="M86 883v45h121v143q0 117 55 182.5t156 65.5q57 0 137 -43l-25 -45q-68 43 -114 43q-154 0 -154 -199v-147h199v-45h-199v-883h-55v883h-121zM745 0v1290l56 31v-1321h-56z" />
<glyph unicode="&#xfb03;" horiz-adv-x="1587" d="M86 883v45h121v143q0 117 55 182.5t156 65.5q57 0 137 -43l-25 -45q-68 43 -114 43q-154 0 -154 -199v-147h531v143q0 117 55 182.5t156 65.5q57 0 137 -43l-25 -45q-68 43 -115 43q-154 0 -153 -199v-147h500v2h55v-930h-55v883h-500v-883h-55v883h-531v-883h-55v883 h-121zM1323 1264q0 57 57 57q55 0 56 -57q0 -55 -56 -56q-57 1 -57 56z" />
<glyph horiz-adv-x="0" />
<glyph horiz-adv-x="682" />
<glyph unicode=" "  horiz-adv-x="436" />
<glyph unicode="&#x09;" horiz-adv-x="436" />
<glyph unicode="&#xa0;" horiz-adv-x="436" />
<glyph unicode="!" horiz-adv-x="356" d="M135 43q0 47 43 47t43 -45q0 -47 -43 -47t-43 45zM150 268v1028h55v-1028h-55z" />
<glyph unicode="&#x22;" horiz-adv-x="454" d="M143 1063v231l50 27v-231zM264 1063v231l47 27v-231z" />
<glyph unicode="#" horiz-adv-x="1017" d="M31 324v45h186l102 516h-215v45h224l65 317h56l-64 -317h387l64 317h57l-66 -317h160v-45h-168l-102 -516h198v-45h-210l-66 -324h-55l63 324h-385l-65 -324h-58l68 324h-176zM272 369h390l102 516h-387z" />
<glyph unicode="$" horiz-adv-x="1009" d="M119 1010q2 162 141 250q95 59 240 59v115h55v-117q117 -6 262 -86l-33 -43q-141 72 -229 74v-551q176 -76 249 -159t73 -206q0 -166 -101 -258q-82 -74 -221 -106v-134h-55v129h-15q-172 0 -358 113l29 39q203 -98 313 -98q14 0 31 2v639q-8 4 -31 12l-12 4 q-178 61 -250 121q-84 68 -88 201zM174 1006q0 -121 109 -187q43 -27 217 -92v537q-133 -4 -217 -60q-109 -72 -109 -198zM555 39q238 33 266 272v29q0 219 -266 311v-612z" />
<glyph unicode="%" horiz-adv-x="1363" d="M102 842q0 135 60.5 213t167.5 78q98 0 158.5 -81t60.5 -208q0 -141 -59.5 -224t-159.5 -83q-106 0 -167 80.5t-61 224.5zM158 838q0 -113 47 -184.5t121 -71.5t121 71.5t47 182.5v4q-2 109 -49.5 178t-118.5 69q-74 0 -121 -69.5t-47 -177.5v-2zM354 0l600 1157h68 l-602 -1157h-66zM815 317q0 135 60.5 213t166.5 78q98 0 159 -80t61 -209q0 -139 -59.5 -223t-160.5 -84q-106 0 -166.5 81t-60.5 224zM870 313q0 -113 47.5 -184.5t120.5 -71.5q74 0 121 72t47 182v4q0 109 -48 178.5t-120 69.5q-74 0 -121 -69.5t-47 -178.5v-2z" />
<glyph unicode="&#x26;" horiz-adv-x="1171" d="M160 342v12q0 104 50 182t179 173l-29 36q-82 106 -107.5 163t-25.5 132v7v4q2 123 76 196.5t195 75.5h8q106 0 244 -74l-23 -41q-127 70 -211 70h-20q-94 -6 -153.5 -63.5t-59.5 -143.5q2 -113 49 -192q29 -47 114 -148l437 -504q37 131 37 334v113h55v-76 q0 -225 -51 -403l143 -195h-61l-113 141q-117 -166 -322 -166h-8q-188 2 -301 117q-98 100 -102 250zM215 348q0 -150 113 -246q98 -82 237 -82h13q100 2 157.5 34t124.5 122l-434 502q-117 -86 -163 -157.5t-48 -168.5v-4z" />
<glyph unicode="'" horiz-adv-x="335" d="M143 1063v231l50 27v-231z" />
<glyph unicode="(" horiz-adv-x="753" d="M186 512q0 231 58.5 399t224.5 410h43q-162 -262 -216 -424t-54 -385q0 -219 53 -378t217 -425h-43q-166 242 -224.5 408t-58.5 395z" />
<glyph unicode=")" horiz-adv-x="753" d="M229 -291q154 246 211.5 416t57.5 387q0 221 -58.5 396t-210.5 413h39q285 -381 285 -805v-4q-2 -227 -67.5 -411.5t-217.5 -391.5h-39z" />
<glyph unicode="*" horiz-adv-x="694" d="M76 1141l51 76l211 -175l33 275l86 -29l-103 -248l258 52l6 -82l-262 8l127 -234l-80 -24l-67 252l-184 -195l-58 70l228 141z" />
<glyph unicode="+" horiz-adv-x="1056" d="M86 442v45h416v443h55v-443h414v-45h-414v-442h-55v442h-416z" />
<glyph unicode="," horiz-adv-x="372" d="M115 39q0 53 53 53q66 0 68 -88v-4v-4q-1 -87 -60 -150l-24 19q57 53 57 115q0 10 -2 30v2q-16 -33 -47 -30q-45 0 -45 57z" />
<glyph unicode="-" horiz-adv-x="501" d="M51 471v45h400v-45h-400z" />
<glyph unicode="." horiz-adv-x="454" d="M184 35q0 47 43 47t43 -45q0 -47 -43 -47t-43 45z" />
<glyph unicode="/" horiz-adv-x="669" d="M-45 -61l657 1357h60l-654 -1357h-63z" />
<glyph unicode="0" d="M98 645q0 315 135 506q121 170 310 170q211 0 331 -219q103 -185 103 -457q0 -326 -129 -508q-117 -162 -305 -162q-223 0 -342 209q-102 176 -103 461zM154 635q0 -301 116 -469q102 -145 267 -146q190 0 294 193q90 168 91 440v4q0 301 -119 471q-102 148 -264 148h-4 q-188 -2 -289 -191q-90 -164 -92 -436v-8v-6z" />
<glyph unicode="1" horiz-adv-x="768" d="M78 1104l346 192h53v-1296h-55v1231l-311 -170z" />
<glyph unicode="2" horiz-adv-x="983" d="M106 0v41l429 465q162 176 202.5 249.5t40.5 182.5v16q-2 137 -84 217t-221 80h-2q-125 0 -295 -98l-29 35q162 109 318 108h29q164 -6 258 -114q82 -94 82 -236v-4q-2 -133 -43 -200.5t-289 -342.5l-322 -354h637v-45h-711z" />
<glyph unicode="3" horiz-adv-x="1015" d="M98 96l29 35q166 -102 291 -102h4q172 0 274 102q90 90 90 221v4q-2 141 -105 225.5t-282 84.5h-137v45h137q145 0 244 94q86 84 86 199v4q-2 117 -87 187.5t-226 70.5h-8q-115 -1 -267 -95l-28 37q152 102 313 103h6q164 0 264 -97q86 -84 88 -206v-7q0 -223 -262 -305 q168 -43 243 -122.5t77 -217.5v-4q0 -170 -127 -274q-113 -90 -281 -94h-20q-162 0 -316 112z" />
<glyph unicode="4" horiz-adv-x="1120" d="M72 305v29l626 962h60v-946h260v-45h-260v-305h-56v305h-630zM145 350h557v862z" />
<glyph unicode="5" horiz-adv-x="1103" d="M184 102l23 39q154 -96 287 -96h4q190 0 288 105q86 92 86 251v7q0 186 -116 286q-104 88 -281 88q-72 0 -227 -26v540h590v-45h-535v-438q109 14 201 14q205 0 323 -129q102 -111 103 -284q0 -10 -2 -15q-4 -188 -127 -299q-109 -96 -273 -100q-8 -2 -22 -2 q-162 0 -322 104z" />
<glyph unicode="6" horiz-adv-x="1120" d="M176 610q2 324 146 527q125 176 309 184h22q121 0 242 -86l-27 -37q-115 78 -209 78q-229 0 -340 -234q-74 -158 -77 -383q176 180 346 181q174 -2 272 -131q84 -111 84 -289v-8q0 -203 -117 -328q-102 -109 -249 -109q-193 0 -306 201q-96 174 -96 434zM242 584 q6 -242 73 -381q90 -180 279 -183q125 2 209 113t86 277v8q0 174 -92 280q-80 92 -203 97h-4q-86 0 -184 -59.5t-164 -151.5z" />
<glyph unicode="7" horiz-adv-x="827" d="M86 1251v45h672v-34l-535 -1262h-57l534 1251h-614z" />
<glyph unicode="8" horiz-adv-x="1146" d="M176 360v2q0 119 69.5 202t227.5 151q-143 72 -202.5 141.5t-59.5 165.5q0 141 113 231q98 78 239 78h2q172 0 271 -110q78 -86 77 -199v-2q0 -98 -61 -169t-209 -140q299 -117 303 -344q0 -174 -123 -289q-111 -102 -268 -103q-170 2 -281 129q-98 109 -98 256zM231 356 q0 -141 111 -245q96 -90 219 -91q141 0 244 113q88 96 88 219q0 6 -2 8q-6 236 -338 332q-168 -51 -244 -130t-78 -202v-4zM266 1028q0 -186 299 -299q158 61 225.5 130t67.5 167v4v2q-2 109 -85 181.5t-206 72.5h-2q-123 -2 -211 -74.5t-88 -179.5v-4z" />
<glyph unicode="9" horiz-adv-x="1120" d="M164 885q0 197 123 325q106 111 243 111q195 0 297 -197q86 -166 86 -436v-4q0 -342 -129 -534q-111 -168 -290 -175h-21q-139 1 -258 91l27 40q121 -88 221 -88q14 0 29 2q160 14 244.5 151.5t115.5 436.5q-156 -147 -313 -147q-8 0 -13 2q-147 0 -254 112 q-109 117 -108 310zM219 877q0 -162 105 -273q90 -96 208 -96q181 0 324 180v4q0 289 -104 449q-88 135 -228 135q-125 0 -219 -131q-82 -115 -86 -258v-10z" />
<glyph unicode=":" horiz-adv-x="372" d="M184 35q0 47 43 47t43 -45q0 -47 -43 -47t-43 45zM184 526q0 47 43 47t43 -45q0 -47 -43 -47t-43 45z" />
<glyph unicode=";" horiz-adv-x="333" d="M100 524q1 46 52 54q53 -8 53 -54q0 -51 -51 -51q-53 0 -54 51zM115 39q0 53 53 53q66 0 68 -88v-4v-4q-1 -87 -58 -150l-26 19q59 53 59 115q0 10 -4 30v2q-14 -33 -45 -30q-47 0 -47 57z" />
<glyph unicode="&#x3c;" horiz-adv-x="1058" d="M86 469v53l827 447v-58l-768 -415l768 -461v-55z" />
<glyph unicode="=" horiz-adv-x="1001" d="M86 283v45h829v-45h-829zM86 604v45h829v-45h-829z" />
<glyph unicode="&#x3e;" horiz-adv-x="1058" d="M145 -25v58l768 461l-768 413v60l828 -449v-51z" />
<glyph unicode="?" horiz-adv-x="714" d="M92 1231q133 88 254 88q131 0 210 -81t79 -216q0 -102 -41 -175t-158 -177l-26 -25q-80 -72 -93.5 -96.5t-13.5 -99.5v-134h-55v142q0 90 16.5 123.5t91.5 95.5q25 20 52 43q166 147 172 295v12q0 113 -63.5 179.5t-174.5 68.5h-4h-4q-86 0 -219 -80zM217 45q0 55 59 59 q61 -4 62 -59q0 -61 -62 -61q-59 0 -59 61z" />
<glyph unicode="@" horiz-adv-x="1402" d="M98 272v15q0 299 205 493q176 168 424 168h2q270 0 434 -192q143 -166 144 -412q0 -182 -76 -285q-66 -90 -168 -90h-4q-103 2 -160 131q-82 -125 -215 -125h-2q-111 0 -178.5 79t-69.5 208v4q0 137 69.5 219t186.5 84h6q88 0 189 -69l20 67h33v-370q0 -78 36 -130.5 t93 -52.5h4q80 2 130 94.5t50 235.5v2q0 264 -164 422q-141 135 -354 135h-6q-258 -2 -428 -207q-145 -176 -145 -417q0 -274 178 -445q156 -150 387 -153h14q35 0 66 4v-45q-33 -4 -76 -5h-6q-274 2 -457 209q-158 180 -162 428zM489 274q0 -117 53.5 -185.5t141.5 -68.5h2 q84 0 140.5 65t56.5 157v202q-102 76 -189 78h-4q-88 0 -144.5 -68.5t-56.5 -179.5z" />
<glyph unicode="A" horiz-adv-x="1081" d="M43 0l457 1296h86l454 -1296h-55l-117 330h-653l-117 -330h-55zM231 375h623l-313 885z" />
<glyph unicode="B" horiz-adv-x="1042" d="M184 12v1274q160 25 297 25q203 0 307 -97q92 -82 93 -225q0 -6 -2 -10q-2 -111 -51.5 -172.5t-178.5 -116.5l13 -2q264 -70 264 -344v-6v-4q-6 -344 -445 -348h-14h-8q-111 0 -275 26zM240 57q132 -26 209 -26h6h32q377 10 383 303v8q0 150 -96 236t-262 86h-272v-607z M240 709h258q147 0 237 77.5t90 204.5q0 264 -346 275h-33q-85 0 -206 -27v-530z" />
<glyph unicode="C" horiz-adv-x="1087" d="M102 635q0 324 168 516q145 168 365 170h10q166 0 322 -104l-25 -41q-164 100 -287 100h-20q-231 -8 -363 -199q-115 -168 -114 -424v-8q2 -303 157 -477q133 -145 336 -148h4q139 0 299 113l29 -39q-156 -119 -336 -119h-2q-260 0 -412 205q-131 180 -131 455z" />
<glyph unicode="D" horiz-adv-x="1204" d="M184 2v1294q176 25 275 25q315 0 481 -197q145 -172 147 -462v-11q0 -342 -184 -518q-160 -156 -436 -158h-10q-97 0 -273 27zM240 47q145 -27 211 -27h10q291 4 440 187q131 162 131 430v16q-4 311 -176 477q-152 143 -399 146h-4q-80 0 -213 -27v-1202z" />
<glyph unicode="E" horiz-adv-x="1077" d="M193 0v1296h702v-45h-647v-553h547v-45h-547v-608h674v-45h-729z" />
<glyph unicode="F" horiz-adv-x="1038" d="M193 0v1296h702v-45h-647v-551h547v-45h-547v-655h-55z" />
<glyph unicode="G" horiz-adv-x="1212" d="M102 645q0 317 170 502q145 162 369 164h4q176 -1 336 -107l-23 -35q-164 96 -288 97h-19q-244 -8 -377 -193q-116 -161 -116 -414v-22q6 -295 155 -457q133 -141 346 -147q12 -2 25 -2q125 0 285 86v485h-252v45h307v-555q-184 -104 -354 -104h-6q-270 0 -426 202 q-135 178 -136 455z" />
<glyph unicode="H" horiz-adv-x="1239" d="M184 0v1296h56v-598h759v598h56v-1296h-56v653h-759v-653h-56z" />
<glyph unicode="I" horiz-adv-x="440" d="M201 0v1296h55v-1296h-55z" />
<glyph unicode="J" horiz-adv-x="411" d="M-160 -285l29 41q92 -55 156 -55q145 0 145 219v1376h55v-1388q0 -252 -194 -252h-2q-82 0 -189 59z" />
<glyph unicode="K" horiz-adv-x="917" d="M184 0v1296h56v-604l542 604h72l-555 -614l516 -682h-65l-510 674v-674h-56z" />
<glyph unicode="L" horiz-adv-x="915" d="M184 0v1296h56v-1251h542v-45h-598z" />
<glyph unicode="M" horiz-adv-x="1460" d="M184 0v1296h62q90 -225 211 -528q152 -375 274 -700q117 309 273 696q123 303 215 532h57v-1296h-55v1161q-145 -381 -338 -839q-76 -182 -133 -322h-37q-47 117 -129 311l-17 39q-188 451 -327 813v-1163h-56z" />
<glyph unicode="N" horiz-adv-x="1144" d="M184 0v1296h54q393 -698 667 -1198v1198h56v-1296h-54q-262 463 -667 1190v-1190h-56z" />
<glyph unicode="O" horiz-adv-x="1275" d="M102 653q0 293 152 482q145 184 385 186h4q266 0 414 -234q117 -182 117 -434q0 -297 -154 -491q-147 -186 -381 -187q-264 0 -416 238q-121 186 -121 440zM158 653q0 -299 151 -477q131 -154 330 -156h2q227 0 360 197q117 172 117 434v2q0 305 -147 475 q-127 147 -330 148h-2q-233 -2 -367 -195q-114 -168 -114 -426v-2z" />
<glyph unicode="P" horiz-adv-x="1001" d="M184 0v1292q182 29 281 29q209 0 321 -113q98 -98 99 -258q0 -6 -2 -16q-4 -184 -138 -281q-115 -86 -301 -86h-6q-90 2 -198 29v-596h-56zM240 641q98 -27 180 -29h4q395 0 403 320q2 12 2 18q0 324 -380 326h-7q-89 0 -202 -27v-608z" />
<glyph unicode="Q" horiz-adv-x="1275" d="M102 653q0 293 152 482q145 184 385 186h4q266 0 414 -234q117 -182 117 -434q-4 -141 -31 -235q-27 -100 -74 -182q-90 -159 -235 -222l256 -237h-68l-229 223q-66 -20 -154 -25q-264 0 -416 238q-121 186 -121 440zM158 653q0 -299 151 -477q131 -154 330 -156h2 q227 0 360 197q117 172 117 434v2q0 305 -147 475q-127 147 -330 148h-2q-233 -2 -367 -195q-114 -168 -114 -426v-2z" />
<glyph unicode="R" horiz-adv-x="1030" d="M184 0v1296q180 25 275 25q217 0 327 -117q96 -100 97 -270q0 -131 -72 -221t-199 -119l271 -594h-62l-264 582q-70 -14 -141 -15q-78 0 -176 25v-592h-56zM240 639q100 -27 180 -27q407 0 407 318q0 346 -378 346q-96 -1 -209 -21v-616z" />
<glyph unicode="S" horiz-adv-x="937" d="M92 1014q0 135 105.5 221t271.5 86q162 0 319 -90l-30 -43q-150 72 -273 72h-14q-147 -2 -235.5 -69t-88.5 -175v-10q4 -92 76 -152.5t242 -116.5q211 -70 299 -155.5t88 -223.5q0 -20 -2 -43q-12 -156 -113.5 -247t-267.5 -93h-14q-171 0 -353 115l25 39 q201 -92 326 -92h4q147 0 236 71.5t102 202.5q2 18 2 37q0 117 -78 191.5t-258 134.5q-182 59 -262 121q-106 86 -107 219z" />
<glyph unicode="T" horiz-adv-x="993" d="M51 1251v45h920v-45h-449v-1251h-55v1251h-416z" />
<glyph unicode="U" horiz-adv-x="1239" d="M184 520v778l56 -2v-798q0 -477 383 -478q379 0 378 478v798h56v-778q0 -543 -434 -543q-438 0 -439 545z" />
<glyph unicode="V" horiz-adv-x="1056" d="M43 1296h59l426 -1224l422 1224h62l-463 -1296h-43z" />
<glyph unicode="W" horiz-adv-x="1863" d="M43 1296h59l445 -1230l350 1230h66l358 -1233l438 1233h60l-471 -1296h-60l-356 1235l-357 -1235h-55z" />
<glyph unicode="X" horiz-adv-x="1060" d="M39 0l473 678l-393 618h57l369 -573l385 573h61l-418 -618l447 -678h-66l-407 637l-447 -637h-61z" />
<glyph unicode="Y" horiz-adv-x="995" d="M45 1296h59l392 -725l393 725h59l-426 -776v-520h-55v518z" />
<glyph unicode="Z" horiz-adv-x="903" d="M55 0v39l721 1212h-702v45h762v-43l-717 -1208h727v-45h-791z" />
<glyph unicode="[" horiz-adv-x="714" d="M186 -287v1608h318v-45h-262v-1518h262v-45h-318z" />
<glyph unicode="\" horiz-adv-x="669" d="M-72 1296h60l657 -1357h-61z" />
<glyph unicode="]" horiz-adv-x="714" d="M213 -242h262v1518h-262v45h317v-1608h-317v45z" />
<glyph unicode="^" horiz-adv-x="743" d="M70 674l266 573h70l268 -573h-58l-243 530l-248 -530h-55z" />
<glyph unicode="_" horiz-adv-x="763" d="M10 -61h744v-45h-744v45z" />
<glyph unicode="`" horiz-adv-x="260" d="M47 1341h78l92 -184h-33z" />
<glyph unicode="a" horiz-adv-x="962" d="M102 252q0 315 420 315h213v23q0 317 -278 317q-131 0 -267 -106l-28 37q146 114 294 114h3q332 0 332 -374v-578h-43l-9 117q-154 -141 -333 -142q-139 0 -221.5 75t-82.5 202zM158 260q0 -111 71.5 -175.5t192.5 -64.5q170 0 313 154v348h-205q-190 0 -286 -76 q-86 -68 -86 -186z" />
<glyph unicode="b" horiz-adv-x="1032" d="M160 0v1284l55 31v-490q133 127 297 127q207 0 319 -141q96 -125 97 -328q0 -242 -129 -377q-114 -118 -298 -118h-3q-152 0 -287 118l-12 -106h-39zM215 166q129 -133 287 -133q184 0 284 137q86 117 86 305q0 217 -108 332q-94 100 -252 100q-162 0 -297 -139v-602z " />
<glyph unicode="c" horiz-adv-x="921" d="M98 461q0 225 142 368q123 125 299 125h3q127 0 265 -73l-23 -43q-123 71 -250 71h-4q-172 0 -280 -147q-96 -127 -96 -307q0 -209 127 -330q111 -104 280 -105q113 0 250 74l25 -41q-129 -78 -285 -78q-213 0 -342 152q-111 133 -111 334z" />
<glyph unicode="d" horiz-adv-x="1028" d="M98 483q0 231 133 361q116 110 294 110h3q166 0 285 -125v461l55 27v-1317h-37l-14 106q-125 -131 -291 -131q-215 0 -329 156q-98 133 -99 352zM154 463q0 -219 112 -338q100 -104 260 -105q156 1 287 148v598q-131 143 -285 143q-184 0 -286 -137q-88 -119 -88 -309z " />
<glyph unicode="e" horiz-adv-x="937" d="M98 461q0 225 123 368q106 125 260 125q176 0 275 -149q84 -133 84 -344v-17h-686q4 -86 24 -151q84 -266 381 -266q139 0 258 84l27 -39q-129 -90 -291 -90q-223 0 -346 147q-109 129 -109 332zM158 489h626q-6 190 -84 308q-75 112 -218 112h-3q-129 0 -215 -106 q-94 -121 -106 -314z" />
<glyph unicode="f" horiz-adv-x="585" d="M86 883v45h121v143q0 244 205 248h6q57 0 137 -43l-25 -45q-68 43 -114 43h-2q-152 -2 -152 -199v-147h199v-45h-199v-883h-55v883h-121z" />
<glyph unicode="g" horiz-adv-x="1058" d="M129 465q0 231 137 369q118 120 296 120h3q80 0 138.5 -24t138.5 -94l16 94h41v-881q0 -440 -381 -440q-158 0 -313 117l33 41q135 -113 282 -113q324 0 324 395v37q-139 -111 -297 -111q-199 0 -316 156q-102 133 -102 334zM184 461q0 -211 117 -332q102 -109 258 -109 q160 1 285 132v612q-133 145 -289 145q-176 0 -281 -141q-90 -123 -90 -307z" />
<glyph unicode="h" horiz-adv-x="1040" d="M160 0v1290l55 27v-504q160 141 309 141q184 0 283 -118q84 -102 84 -277v-559h-55v549q0 174 -81 267t-233 93q-166 0 -307 -168v-741h-55z" />
<glyph unicode="i" horiz-adv-x="415" d="M152 1264q0 57 57 57q55 0 55 -57q0 -55 -55 -56q-57 1 -57 56zM176 0v930h55v-930h-55z" />
<glyph unicode="j" horiz-adv-x="415" d="M-125 -350l21 41q63 -37 112 -37h4q158 2 158 196v1080h55v-1073q0 -248 -207 -248h-2q-63 0 -141 41zM147 1264q0 57 58 57q55 0 55 -57q0 -55 -55 -56q-58 1 -58 56z" />
<glyph unicode="k" horiz-adv-x="872" d="M160 0v1290l55 31v-750l377 359h78l-398 -371l529 -559h-76l-510 547v-547h-55z" />
<glyph unicode="l" horiz-adv-x="382" d="M160 0v1290l55 31v-1321h-55z" />
<glyph unicode="m" horiz-adv-x="1597" d="M160 0v930h41l14 -107q100 80 159.5 105.5t141.5 25.5h2q86 0 140.5 -24.5t117.5 -91.5q175 116 312 116h2h6q352 -4 352 -397v-557h-55v563q0 164 -77 254t-218 92h-4h-7q-127 0 -286 -118q41 -106 41 -232v-559h-56v557q0 346 -264 352h-4h-6q-78 0 -142.5 -34.5 t-154.5 -124.5v-750h-55z" />
<glyph unicode="n" horiz-adv-x="1040" d="M160 0v930h41l14 -119q152 143 322 143q354 0 354 -395v-559h-55v549q0 360 -308 360q-92 0 -161.5 -37.5t-151.5 -134.5v-737h-55z" />
<glyph unicode="o" d="M98 463q0 223 133 364q121 127 304 127q207 0 331 -161q107 -137 107 -330q0 -219 -131 -359q-119 -129 -307 -129q-215 0 -336 164q-100 133 -101 324zM154 463q0 -201 125 -330q106 -113 258 -113q172 0 284 144q96 125 97 299q0 207 -127 336q-105 110 -253 110h-3 q-176 0 -285 -141q-96 -125 -96 -305z" />
<glyph unicode="p" d="M160 -385v1315h41l14 -117q90 80 166 110.5t180 30.5q199 0 309 -145q94 -125 95 -326q0 -242 -129 -383q-117 -125 -297 -125q-166 0 -324 134v-494h-55zM215 174q158 -154 311 -154q186 0 293 138q90 121 90 315q0 221 -108 336q-96 100 -260 100q-174 0 -326 -164 v-571z" />
<glyph unicode="q" horiz-adv-x="1060" d="M98 481q0 223 129 357q110 116 278 116h3q188 0 340 -143l14 117h41v-1334h-55v510q-156 -129 -334 -129q-201 0 -317 162q-98 137 -99 344zM154 465q0 -221 112 -340q100 -104 262 -105q185 0 320 154v571q-162 164 -326 164q-184 0 -282 -137q-86 -119 -86 -307z" />
<glyph unicode="r" horiz-adv-x="743" d="M160 0v930h41l14 -121q86 84 145.5 114.5t139.5 30.5h4q86 0 188 -61l-41 -41q-86 57 -151 57h-2q-74 0 -133.5 -36.5t-149.5 -137.5v-735h-55z" />
<glyph unicode="s" horiz-adv-x="802" d="M90 721q0 104 78 168.5t205 64.5q119 0 262 -71l-23 -47q-129 73 -232 73h-3q-106 0 -169 -50t-63 -134q0 -74 54.5 -121t208.5 -104q172 -63 234.5 -118.5t62.5 -143.5q0 -119 -87.5 -191t-230.5 -72q-139 0 -291 78l17 47q152 -80 258 -80q129 0 203.5 57.5t74.5 155.5 q0 72 -57 119t-213 105q-164 59 -226.5 115.5t-62.5 148.5z" />
<glyph unicode="t" horiz-adv-x="667" d="M86 883v45h147v225l56 25v-250h297v-45h-297v-664q0 -194 155 -194h2q57 0 115 30l21 -37q-72 -38 -140 -38h-4q-205 0 -205 245v658h-147z" />
<glyph unicode="u" horiz-adv-x="1017" d="M160 373v557h55v-553q0 -356 272 -357q178 0 316 162v748h55v-930h-37l-16 115q-143 -139 -322 -140q-324 0 -323 398z" />
<glyph unicode="v" horiz-adv-x="833" d="M35 930h53l332 -893l323 893h56l-340 -930h-80z" />
<glyph unicode="w" horiz-adv-x="1380" d="M33 930h55l285 -883l295 883h69l273 -883l282 883h56l-304 -930h-67l-277 881l-290 -881h-70z" />
<glyph unicode="x" horiz-adv-x="794" d="M37 0l334 489l-295 441h63l262 -400l277 400h63l-309 -441l330 -489h-64l-297 449l-299 -449h-65z" />
<glyph unicode="y" horiz-adv-x="872" d="M31 -354l26 43q53 -35 121 -35q78 0 127 63.5t111 237.5l16 45h-22l-377 930h61l355 -903l335 903h58l-410 -1077q-51 -133 -107.5 -188.5t-142.5 -55.5q-70 0 -151 37z" />
<glyph unicode="z" horiz-adv-x="806" d="M59 0v45l617 840h-580v45h641v-51l-616 -834h629v-45h-691z" />
<glyph unicode="{" horiz-adv-x="712" d="M98 489v74q125 43 176.5 121t51.5 221v82q0 190 55 259t217 73h-2v-59h2q-18 2 -27 2q-113 0 -151.5 -56.5t-38.5 -218.5v-82q0 -150 -57.5 -236.5t-192.5 -142.5q139 -70 194.5 -154.5t55.5 -230.5v-90q0 -166 39 -222t153 -56q6 0 25 2h-2v-60h2q-162 4 -217 74 t-55 262v90q0 129 -52.5 210t-175.5 138z" />
<glyph unicode="|" horiz-adv-x="415" d="M176 -367v1723h55v-1723h-55z" />
<glyph unicode="}" horiz-adv-x="712" d="M115 -227h28q113 0 151 57t38 221v90q0 147 51 226t197 159q-143 68 -195.5 148t-52.5 231v82q0 162 -39 218.5t-150 56.5h-28h2v57h-2q162 -6 217 -73.5t55 -258.5v-82q0 -145 47 -216t180 -126v-74q-131 -70 -179 -143.5t-48 -204.5v-90q0 -193 -55.5 -261.5 t-216.5 -74.5h2v58h-2z" />
<glyph unicode="~" horiz-adv-x="942" d="M57 471q88 133 197 133h4q72 -2 223 -76l21 -12q121 -59 190 -59q61 0 94 20.5t70 81.5l37 -20q-45 -74 -85 -100.5t-106 -26.5h-4h-2q-86 0 -231 75q-14 6 -21 11q-115 61 -180 61q-96 1 -174 -108z" />
<glyph unicode="&#xa1;" horiz-adv-x="356" d="M135 895q0 45 43 45t43 -47q0 -45 -43 -45t-43 47zM150 -358v1028h55v-1028h-55z" />
<glyph unicode="&#xa2;" horiz-adv-x="940" d="M102 455q0 137 56 250q78 156 225 215q59 25 149 30v99h56v-97q106 -16 215 -71l-23 -43q-104 43 -192 55v-858q100 8 219 61l24 -43q-114 -64 -243 -76v-83h-56v86q-217 25 -329 161q-100 121 -101 314zM158 459q0 -195 110 -307q96 -98 264 -119v866 q-172 -20 -264 -125q-111 -127 -110 -315z" />
<glyph unicode="&#xa3;" horiz-adv-x="931" d="M86 692v45h162v168q0 408 317 408q129 0 248 -96l-31 -39q-102 90 -213 90q-139 0 -202.5 -90.5t-63.5 -286.5v-154h356v-45h-356v-647h531v-45h-744v45h158v647h-162z" />
<glyph unicode="&#xa4;" horiz-adv-x="929" d="M63 995l37 41l168 -170q104 70 205 70h4q100 0 201 -70l170 168q4 2 8 2q10 0 21.5 -12t11.5 -23q0 -4 -2 -6l-162 -168q70 -102 70 -209q0 -102 -72 -198l166 -160q4 -4 4 -10q0 -33 -39 -37l-168 162q-96 -70 -209 -70q-115 0 -215 72l-160 -158l-20 23l-16 18l153 160 q-68 94 -67 198q0 102 75 203zM207 616q0 -123 72.5 -194.5t197.5 -71.5t193.5 71t68.5 197q0 127 -69.5 200t-192.5 73q-121 0 -194.5 -75t-75.5 -198v-2z" />
<glyph unicode="&#xa5;" horiz-adv-x="995" d="M41 1296h61l379 -692h31l383 692h61l-385 -692h330v-45h-350l-27 -53v-146h377v-45h-377v-315h-55v315h-397v45h397v146l-27 53h-370v45h350z" />
<glyph unicode="&#xa6;" horiz-adv-x="442" d="M188 -408v832h56v-832h-56zM188 645v756h56v-756h-56z" />
<glyph unicode="&#xa7;" horiz-adv-x="860" d="M102 559q0 164 183 272q-135 102 -138 230v4q0 115 79 185.5t208 70.5h2q123 0 256 -66l-20 -36q-129 57 -234 57q-104 0 -169.5 -56.5t-65.5 -144.5v-2q2 -92 64.5 -149.5t230.5 -122.5q143 -57 201.5 -122t58.5 -165v-10q-2 -80 -42 -136.5t-141 -117.5 q88 -57 123 -114.5t35 -141.5v-2q0 -127 -87 -203t-232 -76h-2q-134 0 -277 74l19 37q137 -66 254 -66q119 0 192.5 58.5t77.5 154.5v13q0 88 -59.5 147t-206.5 115q-168 63 -226 116q-84 74 -84 197zM158 565q0 -88 64.5 -149.5t213.5 -114.5q72 -27 96 -35 q96 63 132 109.5t38 107.5v11q0 158 -200 241l-96 41l-84 35q-164 -115 -164 -246z" />
<glyph unicode="&#xa8;" horiz-adv-x="509" d="M70 1264q0 57 55 57q57 0 57 -57q0 -55 -57 -56q-55 1 -55 56zM332 1264q0 57 57 57q55 0 55 -57q0 -55 -55 -56q-57 1 -57 56z" />
<glyph unicode="&#xa9;" horiz-adv-x="1427" d="M98 645q0 276 199 459q174 160 418 160q270 0 456 -205q158 -176 158 -414q0 -272 -203 -457q-176 -160 -411 -159q-276 0 -459 204q-158 176 -158 412zM154 645q0 -258 184 -426q158 -145 379 -145q254 0 418 186q139 160 139 385q0 262 -182 428q-158 145 -381 146 q-254 0 -416 -187q-141 -160 -141 -387zM371 643q0 176 116 287q100 96 246 98h6h4q107 0 240 -86l-29 -49q-123 90 -215 90q-141 0 -227 -92t-86 -244v-2q0 -164 98 -260q86 -82 219 -82q98 0 232 82l18 -35q-139 -92 -254 -92h-6q-168 0 -272 125q-90 109 -90 260z" />
<glyph unicode="&#xaa;" horiz-adv-x="548" d="M94 965v4q4 156 250 155h59v2q0 66 -36.5 109t-94.5 43q-59 0 -133 -64l-35 43q86 66 170 66q178 -2 179 -207v-285h-41l-11 87q-63 -98 -161 -99q-61 0 -103.5 42t-42.5 104zM150 963q0 -43 29.5 -71t74.5 -28h2h4q92 4 137 119v96h-57q-186 0 -190 -112v-4z" />
<glyph unicode="&#xab;" horiz-adv-x="851" d="M102 463q145 309 351 405v-51q-190 -111 -297 -354q109 -246 297 -352v-52q-203 94 -351 404zM420 463q152 311 350 405v-53q-186 -102 -295 -352q111 -250 295 -350v-54q-199 92 -350 404z" />
<glyph unicode="&#xac;" horiz-adv-x="913" d="M86 383v45h741v-428h-55v383h-686z" />
<glyph unicode="&#xad;" horiz-adv-x="501" d="M51 471v45h400v-45h-400z" />
<glyph unicode="&#xae;" horiz-adv-x="845" d="M92 991q0 145 111 246q94 84 221 84q147 0 246 -109q88 -94 88 -221q0 -147 -111 -246q-96 -86 -223 -86q-147 0 -246 111q-86 94 -86 221zM147 991q0 -117 81 -198.5t196 -81.5t195.5 81.5t80.5 198.5t-80.5 198t-195.5 81t-196 -82t-81 -197zM319 840v321h87 q125 0 124 -96q0 -63 -63 -90l76 -135h-60l-71 129h-43v-129h-50zM369 1010h49q61 0 61 51q0 59 -61 59h-49v-110z" />
<glyph unicode="&#xaf;" horiz-adv-x="409" d="M33 1251v45h344v-45h-344z" />
<glyph unicode="&#xb0;" horiz-adv-x="561" d="M51 1108q0 90 69.5 158.5t160.5 68.5q90 0 159.5 -69.5t69.5 -157.5q0 -94 -68.5 -162.5t-160.5 -68.5q-90 0 -160 69.5t-70 161.5zM106 1108q0 -74 53.5 -130t123.5 -56t121 56t51 132q0 72 -51 126t-121 54t-123.5 -55t-53.5 -127z" />
<glyph unicode="&#xb1;" horiz-adv-x="1001" d="M86 0v45h829v-45h-829zM86 555v45h383v330h55v-330h391v-45h-391v-332h-55v332h-383z" />
<glyph unicode="&#xb2;" horiz-adv-x="626" d="M123 1229q109 76 194 80h7q88 0 142 -54.5t54 -138.5q0 -59 -26.5 -103t-128.5 -149l-166 -172h331v-45h-403v58l190 184q147 145 148 237q0 61 -40 99.5t-106 38.5q-78 0 -176 -78z" />
<glyph unicode="&#xb3;" horiz-adv-x="657" d="M141 721l27 39q92 -66 182 -66q152 0 152 140v2q0 150 -178 149h-45v45h40q170 0 170 121q0 117 -143 119h-6h-4q-76 0 -170 -66l-25 37q111 72 205 74h4q88 0 140.5 -45t54.5 -121v-2q0 -86 -88 -137q100 -53 100 -166q0 -86 -56.5 -140.5t-146.5 -54.5h-8 q-92 2 -205 72z" />
<glyph unicode="&#xb4;" horiz-adv-x="268" d="M43 1157l96 195h90l-143 -195h-43z" />
<glyph unicode="&#xb5;" horiz-adv-x="1050" d="M160 -362v1292h55v-635q0 -119 67.5 -197t172.5 -78q186 0 288 216v694h56v-742q0 -74 32.5 -121t83.5 -47q43 0 74 29l21 -39q-43 -35 -99 -35q-55 0 -96 39q-53 49 -63 142q-125 -180 -299 -181q-156 0 -238 131v-468h-55z" />
<glyph unicode="&#xb6;" horiz-adv-x="778" d="M94 1026q0 115 90 192.5t222 77.5h120v-1296h-34v770h-89q-135 0 -222 71.5t-87 184.5zM573 0v1296h37v-1296h-37z" />
<glyph unicode="&#xb7;" horiz-adv-x="303" d="M80 700q0 31 22.5 52.5t53.5 21.5q27 0 47 -22.5t20 -51.5q0 -27 -21 -48t-46 -21q-31 0 -53.5 21.5t-22.5 47.5z" />
<glyph unicode="&#xb8;" horiz-adv-x="409" d="M51 -297l19 51q47 -37 110 -37q123 0 123 90q0 84 -119 84h-4q-31 0 -78 -6l37 144l43 -9l-12 -92q31 6 53 6q59 0 97 -35.5t38 -88.5q0 -61 -50 -99.5t-130 -38.5q-66 0 -127 31z" />
<glyph unicode="&#xb9;" horiz-adv-x="417" d="M57 1202l125 94h56v-645h-56v576l-86 -64z" />
<glyph unicode="&#xba;" horiz-adv-x="585" d="M68 1069q0 113 63.5 182.5t165.5 69.5q98 0 159.5 -69.5t61.5 -182.5q0 -106 -63.5 -178t-157.5 -72q-98 0 -163.5 72t-65.5 178zM123 1069q0 -88 51 -146.5t127 -58.5q72 0 117 56.5t45 146.5v2q0 92 -46 149.5t-120 57.5t-124 -58.5t-50 -146.5v-2z" />
<glyph unicode="&#xbb;" horiz-adv-x="851" d="M82 59v54q184 100 295 350q-109 250 -295 352v53q199 -94 350 -405q-151 -312 -350 -404zM399 59v54q188 102 297 350q-109 250 -297 352v53q205 -96 351 -405q-148 -310 -351 -404z" />
<glyph unicode="&#xbc;" horiz-adv-x="1499" d="M143 1202l125 94h56v-645h-56v576l-86 -64zM250 -61l786 1357h62l-783 -1357h-65zM883 162v39l362 450h47v-444h131v-45h-129v-162h-55v162h-356zM961 207h276v346z" />
<glyph unicode="&#xbd;" horiz-adv-x="1568" d="M143 1202l125 94h56v-645h-56v576l-86 -64zM252 -61l788 1357h62l-785 -1357h-65zM1008 588q106 78 192 80h8q86 0 141.5 -53.5t55.5 -139.5q0 -59 -27.5 -103t-128.5 -149l-166 -172h332v-45h-403v57l190 187q143 139 148 229v8q0 61 -40 98.5t-106 37.5q-78 0 -176 -78 z" />
<glyph unicode="&#xbe;" horiz-adv-x="1601" d="M141 721l27 39q92 -66 182 -66q152 0 152 140v2q0 150 -178 149h-45v45h40q168 0 170 119v2q0 117 -143 119h-6h-4q-76 0 -170 -66l-25 37q111 72 205 74h4q88 0 140.5 -45t54.5 -121v-2q0 -86 -88 -137q100 -53 100 -166q0 -86 -56.5 -140.5t-146.5 -54.5h-8 q-92 2 -205 72zM403 -61l789 1357h63l-782 -1357h-70zM977 162v39l362 450h47v-444h130v-45h-130v-162h-55v162h-354zM1055 207h276v346z" />
<glyph unicode="&#xbf;" horiz-adv-x="751" d="M104 -96q0 102 41 175t158 177l25 25q80 72 93 96t13 100v133h55v-141q0 -90 -16 -124t-90 -95q-27 -20 -51 -43q-168 -147 -172 -295v-12q0 -113 63.5 -179.5t171.5 -68.5h4h4q88 0 222 80l22 -37q-135 -88 -256 -88q-131 0 -209 81t-78 216zM406 889q0 63 61 63 q63 0 63 -63q0 -61 -63 -62q-61 0 -61 62z" />
<glyph unicode="&#xc0;" horiz-adv-x="1081" d="M43 0l457 1296h86l454 -1296h-55l-117 330h-653l-117 -330h-55zM231 375h623l-313 885zM373 1675h90l84 -184h-37z" />
<glyph unicode="&#xc1;" horiz-adv-x="1081" d="M43 0l457 1296h86l454 -1296h-55l-117 330h-653l-117 -330h-55zM231 375h623l-313 885zM520 1491l86 184h88l-137 -184h-37z" />
<glyph unicode="&#xc2;" horiz-adv-x="1081" d="M43 0l457 1296h86l454 -1296h-55l-117 330h-653l-117 -330h-55zM231 375h623l-313 885zM383 1491l129 184h57l127 -184h-67l-86 127l-97 -127h-63z" />
<glyph unicode="&#xc3;" horiz-adv-x="1081" d="M43 0l457 1296h86l454 -1296h-55l-117 330h-653l-117 -330h-55zM231 375h623l-313 885zM293 1524q70 125 164 125q39 0 131 -52l8 -4q88 -55 102 -55q47 2 103 109l39 -29q-72 -125 -146 -125q-41 0 -119 51l-16 12q-66 47 -102 48h-2q-70 -1 -121 -105z" />
<glyph unicode="&#xc4;" horiz-adv-x="1081" d="M43 0l457 1296h86l454 -1296h-55l-117 330h-653l-117 -330h-55zM231 375h623l-313 885zM360 1606q4 59 58 59q61 0 61 -59t-61 -60q-54 1 -58 60zM623 1606q4 59 59 59q57 0 57 -59t-57 -60q-55 1 -59 60z" />
<glyph unicode="&#xc5;" horiz-adv-x="1081" d="M43 0l457 1296h86l454 -1296h-55l-117 330h-653l-117 -330h-55zM231 375h623l-313 885zM424 1559q0 59 37 96t94 37q55 0 94 -39t39 -94q0 -53 -39 -92.5t-94 -39.5q-57 0 -94 37.5t-37 94.5zM477 1559q0 -78 76 -78q33 0 56.5 22.5t23.5 55.5t-23.5 56t-56.5 23 q-76 1 -76 -79z" />
<glyph unicode="&#xc6;" horiz-adv-x="1488" d="M41 12l577 1284h730v-45h-641v-553h540v-45h-540v-596h667v-45h-723v346h-393l-156 -346h-61zM281 403h370v842h-10z" />
<glyph unicode="&#xc7;" horiz-adv-x="1159" d="M102 637v14q0 311 170 502q147 166 363 168h6q170 0 326 -104l-25 -41q-164 100 -287 100h-20q-231 -8 -363 -199q-115 -168 -114 -424v-6v-2q2 -301 149 -465q129 -141 340 -141q147 0 307 94l29 -39q-158 -117 -313 -117h-21h-8l-8 -49q31 6 53 6q59 0 97 -35.5 t38 -88.5q0 -61 -50 -99.5t-130 -38.5q-66 0 -127 31l18 51q49 -37 111 -37q123 0 123 90q0 84 -119 84h-2q-33 0 -80 -6l27 99q-176 39 -273.5 113.5t-156.5 219.5q-57 133 -60 320z" />
<glyph unicode="&#xc8;" horiz-adv-x="1077" d="M193 0v1296h702v-45h-647v-553h547v-45h-547v-608h674v-45h-729zM381 1675h90l84 -184h-37z" />
<glyph unicode="&#xc9;" horiz-adv-x="1077" d="M193 0v1296h702v-45h-647v-553h547v-45h-547v-608h674v-45h-729zM494 1491l84 184h88l-138 -184h-34z" />
<glyph unicode="&#xca;" horiz-adv-x="1077" d="M193 0v1296h702v-45h-647v-553h547v-45h-547v-608h674v-45h-729zM387 1491l129 184h55l127 -184h-65l-88 127l-94 -127h-64z" />
<glyph unicode="&#xcb;" horiz-adv-x="1077" d="M193 0v1296h702v-45h-647v-553h547v-45h-547v-608h674v-45h-729zM326 1606q4 59 57 59q59 0 59 -59t-59 -60q-53 1 -57 60zM586 1606q4 59 61 59t58 -59q0 -59 -58 -60q-55 1 -61 60z" />
<glyph unicode="&#xcc;" horiz-adv-x="440" d="M63 1675h89l86 -184h-37zM201 0v1296h55v-1296h-55z" />
<glyph unicode="&#xcd;" horiz-adv-x="440" d="M201 0v1296h55v-1296h-55zM215 1491l86 184h88l-137 -184h-37z" />
<glyph unicode="&#xce;" horiz-adv-x="440" d="M66 1491l129 184h57l125 -184h-66l-86 127l-96 -127h-63zM201 0v1296h55v-1296h-55z" />
<glyph unicode="&#xcf;" horiz-adv-x="440" d="M29 1606q4 59 59 59q59 0 59 -59t-59 -60q-55 1 -59 60zM201 0v1296h55v-1296h-55zM291 1606q4 59 59 59q59 0 60 -59q0 -59 -60 -60q-55 1 -59 60z" />
<glyph unicode="&#xd0;" horiz-adv-x="1269" d="M84 651v45h168v592q180 25 270 25h6q322 0 492 -195q147 -168 149 -456v-11q0 -338 -188 -512q-164 -154 -444 -155h-17q-86 0 -268 30v637h-168zM307 49q150 -20 207 -20h16q297 4 451 184q133 158 133 422v18q-6 307 -180 471q-154 141 -408 144h-8q-74 0 -211 -27 v-545h330v-45h-330v-602z" />
<glyph unicode="&#xd1;" horiz-adv-x="1144" d="M184 0v1296h47l674 -1187v1187h56v-1296h-46l-675 1180v-1180h-56zM309 1522q66 127 162 127h2q61 0 131 -47l10 -9q55 -37 99 -37q53 0 104 89l37 -25q-68 -127 -147 -127h-2q-33 2 -115 45q-8 4 -17 10q-68 41 -104 41q-78 0 -123 -90z" />
<glyph unicode="&#xd2;" horiz-adv-x="1275" d="M102 653q0 293 152 482q145 184 385 186h4q266 0 414 -234q117 -182 117 -434q0 -297 -154 -491q-147 -186 -381 -187q-264 0 -416 238q-121 186 -121 440zM158 653q0 -299 151 -477q131 -154 330 -156h2q227 0 360 197q117 172 117 434v2q0 305 -147 475 q-127 147 -330 148h-2q-233 -2 -367 -195q-114 -168 -114 -426v-2zM471 1675h88l84 -184h-37z" />
<glyph unicode="&#xd3;" horiz-adv-x="1275" d="M102 653q0 293 152 482q145 184 385 186h4q266 0 414 -234q117 -182 117 -434q0 -297 -154 -491q-147 -186 -381 -187q-264 0 -416 238q-121 186 -121 440zM158 653q0 -299 151 -477q131 -154 330 -156h2q227 0 360 197q117 172 117 434v2q0 305 -147 475 q-127 147 -330 148h-2q-233 -2 -367 -195q-114 -168 -114 -426v-2zM596 1491l84 184h88l-135 -184h-37z" />
<glyph unicode="&#xd4;" horiz-adv-x="1275" d="M102 653q0 293 152 482q145 184 385 186h4q266 0 414 -234q117 -182 117 -434q0 -297 -154 -491q-147 -186 -381 -187q-264 0 -416 238q-121 186 -121 440zM158 653q0 -299 151 -477q131 -154 330 -156h2q227 0 360 197q117 172 117 434v2q0 305 -147 475 q-127 147 -330 148h-2q-233 -2 -367 -195q-114 -168 -114 -426v-2zM483 1491l129 184h58l125 -184h-66l-86 127l-96 -127h-64z" />
<glyph unicode="&#xd5;" horiz-adv-x="1275" d="M102 653q0 293 152 482q145 184 385 186h4q266 0 414 -234q117 -182 117 -434q0 -297 -154 -491q-147 -186 -381 -187q-264 0 -416 238q-121 186 -121 440zM158 653q0 -299 151 -477q131 -154 330 -156h2q227 0 360 197q117 172 117 434v2q0 305 -147 475 q-127 147 -330 148h-2q-233 -2 -367 -195q-114 -168 -114 -426v-2zM367 1522q66 127 161 127h2q61 0 132 -47l10 -9q55 -37 98 -37q53 0 104 89l37 -25q-68 -127 -147 -127h-2q-33 2 -113 45q-10 4 -18 10q-68 41 -105 41q-77 0 -120 -90z" />
<glyph unicode="&#xd6;" horiz-adv-x="1275" d="M102 653q0 293 152 482q145 184 385 186h4q266 0 414 -234q117 -182 117 -434q0 -297 -154 -491q-147 -186 -381 -187q-264 0 -416 238q-121 186 -121 440zM158 653q0 -299 151 -477q131 -154 330 -156h2q227 0 360 197q117 172 117 434v2q0 305 -147 475 q-127 147 -330 148h-2q-233 -2 -367 -195q-114 -168 -114 -426v-2zM449 1606q4 59 57 59q61 0 61 -59t-61 -60q-53 1 -57 60zM711 1606q4 59 59 59q57 0 57 -59t-57 -60q-55 1 -59 60z" />
<glyph unicode="&#xd7;" horiz-adv-x="1026" d="M104 76l383 397l-356 393l35 33l352 -389l371 385l37 -29l-375 -393l369 -405l-35 -35l-367 407l-377 -397z" />
<glyph unicode="&#xd8;" horiz-adv-x="1275" d="M102 659v19q0 293 170 481q150 162 359 162h4q137 -2 268 -84l37 84h59l-57 -117q131 -125 184 -270q43 -125 48 -285v-18q0 -297 -170 -490q-147 -166 -353 -166h-10q-135 2 -260 84l-57 -120h-58l78 153q-156 147 -209 332q-31 104 -33 235zM158 657q4 -217 82 -364 q43 -82 125 -158l518 1059q-121 80 -248 82h-6q-221 0 -355 -193q-117 -166 -116 -409v-17zM401 102q121 -80 240 -82h4h4q219 0 352 195q117 170 117 418v16q-4 221 -80 365q-41 78 -118 149z" />
<glyph unicode="&#xd9;" horiz-adv-x="1239" d="M184 532v766l56 -2v-802q0 -473 383 -474q379 0 378 474v802h56v-766q0 -553 -434 -555h-2q-436 0 -437 557zM498 1675h88l84 -184h-35z" />
<glyph unicode="&#xda;" horiz-adv-x="1239" d="M184 532v766l56 -2v-802q0 -473 383 -474q379 0 378 474v802h56v-766q0 -553 -434 -555h-2q-436 0 -437 557zM557 1491l86 184h88l-137 -184h-37z" />
<glyph unicode="&#xdb;" horiz-adv-x="1239" d="M184 532v766l56 -2v-802q0 -473 383 -474q379 0 378 474v802h56v-766q0 -553 -434 -555h-2q-436 0 -437 557zM463 1491l129 184h57l127 -184h-67l-86 127l-97 -127h-63z" />
<glyph unicode="&#xdc;" horiz-adv-x="1239" d="M184 532v766l56 -2v-802q0 -473 383 -474q379 0 378 474v802h56v-766q0 -553 -434 -555h-2q-436 0 -437 557zM440 1606q4 59 58 59q59 0 59 -59t-59 -60q-54 1 -58 60zM702 1606q4 59 60 59q57 0 57 -59t-57 -60q-56 1 -60 60z" />
<glyph unicode="&#xdd;" horiz-adv-x="995" d="M49 1296h51l396 -731l397 731h53l-422 -770v-526h-55v524zM481 1491l86 184h88l-137 -184h-37z" />
<glyph unicode="&#xde;" horiz-adv-x="1091" d="M184 0v1296h56v-262q86 39 213 45h28q201 0 310 -114q96 -100 96 -265q0 -201 -129 -309q-111 -94 -295 -94q-82 0 -223 37v-334h-56zM240 381q133 -39 233 -39q358 0 358 352v8q-4 332 -354 332h-20q-96 -2 -217 -47v-606z" />
<glyph unicode="&#xdf;" horiz-adv-x="980" d="M160 0v985q0 340 315 340h2q164 -2 260 -102q84 -88 84 -222v-4q0 -229 -241 -303q160 -45 228.5 -128t68.5 -228v-6q-2 -166 -101 -266q-86 -90 -211 -91h-4q-86 0 -205 43l17 43q88 -41 168 -41h2q117 0 197.5 89.5t80.5 218.5q0 150 -108 252q-92 86 -217 86h-23v47 h19q111 0 192.5 89t81.5 208q0 117 -81 193.5t-206 76.5q-121 0 -192.5 -76t-71.5 -207v-997h-55z" />
<glyph unicode="&#xe0;" horiz-adv-x="962" d="M102 252q0 315 420 315h213v23q0 317 -278 317q-131 0 -267 -106l-28 37q147 115 297 114q332 0 332 -374v-578h-43l-9 117q-154 -141 -333 -142q-139 0 -221.5 75t-82.5 202zM158 260q0 -111 71.5 -175.5t192.5 -64.5q170 0 313 154v348h-205q-190 0 -286 -76 q-86 -68 -86 -186zM332 1341h88l86 -184h-37z" />
<glyph unicode="&#xe1;" horiz-adv-x="962" d="M102 252q0 315 420 315h213v23q0 317 -278 317q-131 0 -267 -106l-28 37q147 115 297 114q332 0 332 -374v-578h-43l-9 117q-154 -141 -333 -142q-139 0 -221.5 75t-82.5 202zM158 260q0 -111 71.5 -175.5t192.5 -64.5q170 0 313 154v348h-205q-190 0 -286 -76 q-86 -68 -86 -186zM434 1157l84 184h88l-137 -184h-35z" />
<glyph unicode="&#xe2;" horiz-adv-x="962" d="M102 252q0 315 420 315h213v23q0 317 -278 317q-131 0 -267 -106l-28 37q147 115 297 114q332 0 332 -374v-578h-43l-9 117q-154 -141 -333 -142q-139 0 -221.5 75t-82.5 202zM158 260q0 -111 71.5 -175.5t192.5 -64.5q170 0 313 154v348h-205q-190 0 -286 -76 q-86 -68 -86 -186zM301 1157l129 184h57l125 -184h-65l-86 127l-96 -127h-64z" />
<glyph unicode="&#xe3;" horiz-adv-x="962" d="M102 252q0 315 420 315h213v23q0 317 -278 317q-131 0 -267 -106l-28 37q147 115 297 114q332 0 332 -374v-578h-43l-9 117q-154 -141 -333 -142q-139 0 -221.5 75t-82.5 202zM158 260q0 -111 71.5 -175.5t192.5 -64.5q170 0 313 154v348h-205q-190 0 -286 -76 q-86 -68 -86 -186zM221 1190q70 127 158 127q37 0 84 -19l55 -34q78 -57 117 -58q33 0 92 105l37 -19q-72 -129 -146 -129q-39 0 -118 51q-6 4 -15 9l-2 2q-70 47 -106 47q-70 -1 -121 -103z" />
<glyph unicode="&#xe4;" horiz-adv-x="962" d="M102 252q0 315 420 315h213v23q0 317 -278 317q-131 0 -267 -106l-28 37q147 115 297 114q332 0 332 -374v-578h-43l-9 117q-154 -141 -333 -142q-139 0 -221.5 75t-82.5 202zM158 260q0 -111 71.5 -175.5t192.5 -64.5q170 0 313 154v348h-205q-190 0 -286 -76 q-86 -68 -86 -186zM272 1268q4 59 60 59q59 0 59 -59t-59 -60q-54 1 -60 60zM535 1268q4 59 59 59q59 0 59 -59t-59 -60q-53 1 -59 60z" />
<glyph unicode="&#xe5;" horiz-adv-x="962" d="M102 252q0 315 420 315h213v23q0 317 -278 317q-131 0 -267 -106l-28 37q147 115 297 114q332 0 332 -374v-578h-43l-9 117q-154 -141 -333 -142q-139 0 -221.5 75t-82.5 202zM158 260q0 -111 71.5 -175.5t192.5 -64.5q170 0 313 154v348h-205q-190 0 -286 -76 q-86 -68 -86 -186zM350 1219q0 57 37 94t96 37q55 0 93 -38t38 -93t-37.5 -93.5t-93.5 -38.5q-57 0 -95 37.5t-38 94.5zM406 1219q0 -80 73 -80q35 0 58.5 23.5t23.5 56.5t-23.5 56t-58.5 23q-73 1 -73 -79z" />
<glyph unicode="&#xe6;" horiz-adv-x="1568" d="M94 256q0 311 420 311h213v31q0 309 -274 309q-125 0 -273 -102l-24 31q143 117 299 116q150 0 229 -75q63 -62 92 -181q43 94 98 152q96 104 236 104q150 0 244 -106q115 -133 114 -383v-19h-677q2 -72 10 -122q51 -295 375 -295q127 0 276 82l23 -37q-150 -90 -304 -90 q-162 0 -274 81q-63 45 -115 123q-111 -113 -196.5 -158.5t-188.5 -45.5q-137 0 -220 74.5t-83 199.5zM150 264q0 -104 72.5 -170.5t187.5 -66.5q162 0 317 176v319h-213q-182 0 -278 -78q-86 -68 -86 -180zM791 489h624q-10 223 -102 330q-76 88 -203 88q-121 0 -205 -100 q-102 -123 -114 -318z" />
<glyph unicode="&#xe7;" horiz-adv-x="921" d="M98 461q0 225 142 368q123 125 299 125q129 0 268 -73l-23 -43q-125 72 -254 71q-172 0 -280 -147q-96 -127 -96 -307q8 -209 118 -322q104 -106 289 -113q113 0 250 74l25 -41q-129 -78 -285 -78q-41 2 -64 5h-2l-6 -52q31 6 53 6q57 0 96.5 -35.5t39.5 -88.5 q0 -61 -50.5 -99.5t-130.5 -38.5q-66 0 -127 31l19 51q47 -37 110 -37q123 0 123 90q0 84 -118 84h-5q-31 0 -77 -6l26 103q-154 43 -239 153q-94 123 -101 320z" />
<glyph unicode="&#xe8;" horiz-adv-x="937" d="M98 461q0 225 123 368q106 125 260 125q176 0 275 -149q84 -133 84 -344v-17h-686q4 -86 24 -151q84 -266 381 -266q139 0 258 84l27 -39q-129 -90 -291 -90q-223 0 -346 147q-109 129 -109 332zM158 489h626q-6 190 -84 308q-76 113 -221 112q-129 0 -215 -106 q-94 -121 -106 -314zM332 1341h88l86 -184h-37z" />
<glyph unicode="&#xe9;" horiz-adv-x="937" d="M98 461q0 225 123 368q106 125 260 125q176 0 275 -149q84 -133 84 -344v-17h-686q4 -86 24 -151q84 -266 381 -266q139 0 258 84l27 -39q-129 -90 -291 -90q-223 0 -346 147q-109 129 -109 332zM158 489h626q-6 190 -84 308q-76 113 -221 112q-129 0 -215 -106 q-94 -121 -106 -314zM483 1157l86 184h88l-137 -184h-37z" />
<glyph unicode="&#xea;" horiz-adv-x="937" d="M98 461q0 225 123 368q106 125 260 125q176 0 275 -149q84 -133 84 -344v-17h-686q4 -86 24 -151q84 -266 381 -266q139 0 258 84l27 -39q-129 -90 -291 -90q-223 0 -346 147q-109 129 -109 332zM158 489h626q-6 190 -84 308q-76 113 -221 112q-129 0 -215 -106 q-94 -121 -106 -314zM344 1157l129 184h57l125 -184h-65l-86 127l-96 -127h-64z" />
<glyph unicode="&#xeb;" horiz-adv-x="937" d="M98 461q0 225 123 368q106 125 260 125q176 0 275 -149q84 -133 84 -344v-17h-686q4 -86 24 -151q84 -266 381 -266q139 0 258 84l27 -39q-129 -90 -291 -90q-223 0 -346 147q-109 129 -109 332zM158 489h626q-6 190 -84 308q-76 113 -221 112q-129 0 -215 -106 q-94 -121 -106 -314zM301 1268q4 59 59 59q59 0 60 -59q0 -59 -60 -60q-53 1 -59 60zM563 1268q4 59 60 59q59 0 59 -59t-59 -60q-54 1 -60 60z" />
<glyph unicode="&#xec;" horiz-adv-x="415" d="M53 1341h88l86 -184h-37zM178 0v930h55v-930h-55z" />
<glyph unicode="&#xed;" horiz-adv-x="415" d="M178 0v930h55v-930h-55zM193 1157l83 184h89l-136 -184h-36z" />
<glyph unicode="&#xee;" horiz-adv-x="415" d="M55 1157l129 184h58l125 -184h-66l-86 127l-96 -127h-64zM178 0v930h55v-930h-55z" />
<glyph unicode="&#xef;" horiz-adv-x="415" d="M14 1272q4 66 64 65q66 0 65 -65q0 -63 -65 -64q-58 1 -64 64zM184 0v930h56v-930h-56zM276 1272q4 66 66 65q63 0 64 -65q0 -63 -64 -64q-60 1 -66 64z" />
<glyph unicode="&#xf0;" horiz-adv-x="1030" d="M98 393q0 250 146 365q102 80 258 80q88 0 176 -47q70 -35 139 -101q-37 211 -162 375q-29 39 -61 68l-262 -136l-35 41l258 129q-80 66 -215 133l39 23q123 -51 221 -133l231 117l35 -33l-227 -119q33 -33 63 -74q172 -229 172 -512v-43q-14 -268 -92 -397 q-96 -154 -303 -154q-193 0 -301 158q-80 119 -80 260zM154 397q0 -170 102 -280q88 -96 215 -97q229 0 307 218q47 127 47 366v12v13q-86 82 -159 121q-82 43 -166 43q-166 0 -256 -103.5t-90 -292.5z" />
<glyph unicode="&#xf1;" horiz-adv-x="1040" d="M160 0v930h41l14 -119q152 143 322 143q354 0 354 -395v-559h-55v549q0 360 -308 360q-92 0 -161.5 -37.5t-151.5 -134.5v-737h-55zM262 1229q66 119 164 119h4q68 0 127 -41l10 -7q72 -47 101 -47q51 0 104 99l37 -25q-68 -127 -147 -127h-5q-31 0 -112 43q-10 6 -17 10 q-70 41 -104 41q-80 0 -123 -88z" />
<glyph unicode="&#xf2;" d="M98 463q0 223 133 364q121 127 304 127q207 0 331 -161q107 -137 107 -330q0 -219 -131 -359q-119 -129 -307 -129q-215 0 -336 164q-100 133 -101 324zM154 463q0 -201 125 -330q106 -113 258 -113q172 0 284 144q96 125 97 299q0 207 -127 336q-106 111 -256 110 q-176 0 -285 -141q-96 -125 -96 -305zM387 1341h88l86 -184h-37z" />
<glyph unicode="&#xf3;" d="M98 463q0 223 133 364q121 127 304 127q207 0 331 -161q107 -137 107 -330q0 -219 -131 -359q-119 -129 -307 -129q-215 0 -336 164q-100 133 -101 324zM154 463q0 -201 125 -330q106 -113 258 -113q172 0 284 144q96 125 97 299q0 207 -127 336q-106 111 -256 110 q-176 0 -285 -141q-96 -125 -96 -305zM500 1157l86 184h88l-137 -184h-37z" />
<glyph unicode="&#xf4;" d="M98 463q0 223 133 364q121 127 304 127q207 0 331 -161q107 -137 107 -330q0 -219 -131 -359q-119 -129 -307 -129q-215 0 -336 164q-100 133 -101 324zM154 463q0 -201 125 -330q106 -113 258 -113q172 0 284 144q96 125 97 299q0 207 -127 336q-106 111 -256 110 q-176 0 -285 -141q-96 -125 -96 -305zM393 1157l127 184h58l127 -184h-66l-88 127l-94 -127h-64z" />
<glyph unicode="&#xf5;" d="M98 463q0 223 133 364q121 127 304 127q207 0 331 -161q107 -137 107 -330q0 -219 -131 -359q-119 -129 -307 -129q-215 0 -336 164q-100 133 -101 324zM154 463q0 -201 125 -330q106 -113 258 -113q172 0 284 144q96 125 97 299q0 207 -127 336q-106 111 -256 110 q-176 0 -285 -141q-96 -125 -96 -305zM248 1229q68 127 168 129h2q63 0 131 -47q2 -2 6 -4q2 -4 4 -4q57 -39 98 -39q53 0 105 90l41 -27q-72 -127 -152 -127h-4q-29 0 -112 45q-8 4 -17 8q-70 41 -102 41q-84 2 -125 -90z" />
<glyph unicode="&#xf6;" d="M98 463q0 223 133 364q121 127 304 127q207 0 331 -161q107 -137 107 -330q0 -219 -131 -359q-119 -129 -307 -129q-215 0 -336 164q-100 133 -101 324zM154 463q0 -201 125 -330q106 -113 258 -113q172 0 284 144q96 125 97 299q0 207 -127 336q-106 111 -256 110 q-176 0 -285 -141q-96 -125 -96 -305zM344 1268q4 59 57 59q59 0 60 -59q0 -59 -60 -60q-53 1 -57 60zM606 1268q2 59 60 59q57 0 57 -59t-57 -60q-56 1 -60 60z" />
<glyph unicode="&#xf7;" horiz-adv-x="729" d="M92 412v45h545v-45h-545zM317 240q0 49 50 49q45 0 45 -49q0 -52 -45 -52q-49 0 -50 52zM317 608q0 49 50 49q45 0 45 -49q0 -51 -45 -51q-49 0 -50 51z" />
<glyph unicode="&#xf8;" d="M98 463q0 223 133 364q121 127 304 127q104 -4 180 -39l39 89h57l-51 -113q102 -68 155 -178q51 -102 58 -250q0 -219 -131 -359q-119 -129 -307 -129q-99 4 -175 35l-32 -71h-54l41 94q-104 63 -161 180q-49 102 -56 250zM154 463q6 -150 63 -250q45 -80 121 -131 l356 788q-68 35 -159 39q-176 0 -285 -141q-96 -125 -96 -305zM381 57q66 -33 156 -37q172 0 284 144q96 125 97 299q-6 154 -66 256q-45 76 -115 125z" />
<glyph unicode="&#xf9;" horiz-adv-x="1017" d="M160 373v557h55v-553q0 -356 272 -357q178 0 316 162v748h55v-930h-37l-16 115q-143 -139 -322 -140q-324 0 -323 398zM350 1341h88l84 -184h-37z" />
<glyph unicode="&#xfa;" horiz-adv-x="1017" d="M160 373v557h55v-553q0 -356 272 -357q178 0 316 162v748h55v-930h-37l-16 115q-143 -139 -322 -140q-324 0 -323 398zM451 1157l84 184h88l-136 -184h-36z" />
<glyph unicode="&#xfb;" horiz-adv-x="1017" d="M160 373v557h55v-553q0 -356 272 -357q178 0 316 162v748h55v-930h-37l-16 115q-143 -139 -322 -140q-324 0 -323 398zM356 1157l129 184h58l125 -184h-66l-86 127l-96 -127h-64z" />
<glyph unicode="&#xfc;" horiz-adv-x="1017" d="M160 373v557h55v-553q0 -356 272 -357q178 0 316 162v748h55v-930h-37l-16 115q-143 -139 -322 -140q-324 0 -323 398zM326 1268q4 59 57 59q59 0 59 -59t-59 -60q-53 1 -57 60zM588 1268q4 59 59 59q57 0 58 -59q0 -59 -58 -60q-55 1 -59 60z" />
<glyph unicode="&#xfd;" horiz-adv-x="872" d="M31 -354l26 43q53 -35 121 -35q78 0 127 63.5t111 237.5l16 45h-22l-377 930h61l355 -903l335 903h58l-410 -1077q-51 -133 -107.5 -188.5t-142.5 -55.5q-70 0 -151 37zM399 1157l84 184h90l-137 -184h-37z" />
<glyph unicode="&#xfe;" horiz-adv-x="1079" d="M160 -403v1675l55 28v-526q90 102 166 141t180 39q199 0 309 -145q94 -125 95 -326q0 -242 -129 -383q-117 -125 -297 -125t-324 156v-534h-55zM215 197q143 -176 311 -177q186 0 293 138q90 121 90 315q0 221 -108 336q-96 100 -260 100q-184 0 -326 -200v-512z" />
<glyph unicode="&#xff;" horiz-adv-x="872" d="M31 -354l26 43q53 -35 121 -35q78 0 127 63.5t111 237.5l16 45h-22l-377 930h61l355 -903l335 903h58l-410 -1077q-51 -133 -107.5 -188.5t-142.5 -55.5q-70 0 -151 37zM250 1272q6 66 63 65q66 0 66 -65q0 -63 -66 -64q-57 1 -63 64zM512 1272q4 66 66 65q63 0 63 -65 q0 -63 -63 -64q-60 1 -66 64z" />
<glyph unicode="&#x152;" horiz-adv-x="1746" d="M109 641q0 315 163 502q143 164 367 164q115 0 235 -25h699v-45h-639v-539h541v-45h-541v-594h665v-45h-722q-115 -25 -252 -24q-244 0 -392 209q-125 180 -124 442zM164 641q0 -287 147 -457q127 -150 320 -149q129 0 248 18v1190q-119 18 -240 19q-231 0 -363 -197 q-113 -168 -112 -424z" />
<glyph unicode="&#x153;" horiz-adv-x="1751" d="M98 463q0 225 129 364q117 127 299 127q182 -6 295 -120q74 -74 113 -187q31 106 98 184q102 117 258 123q178 0 275 -149q86 -133 86 -344v-17h-686q4 -86 24 -151q82 -266 381 -266q137 0 258 84l27 -39q-129 -90 -291 -90q-203 0 -326 122q-70 72 -102 175 q-12 -33 -25 -62q-76 -152 -215 -209q-72 -29 -170 -33q-213 0 -331 164q-96 133 -97 324zM154 463q0 -203 118 -330q104 -113 256 -113q172 0 283 144q96 125 96 299q0 207 -125 336q-106 111 -256 110q-174 0 -280 -141q-92 -123 -92 -305zM967 489h626q-6 190 -84 308 q-76 113 -219 112q-129 0 -215 -106q-96 -121 -108 -314z" />
<glyph unicode="&#x178;" horiz-adv-x="995" d="M45 1296h59l392 -725l393 725h59l-426 -776v-520h-55v518zM309 1622q4 59 60 59q59 0 59 -59t-59 -59q-54 0 -60 59zM571 1622q4 59 60 59q59 0 59 -59t-59 -59q-54 0 -60 59z" />
<glyph unicode="&#x2c6;" horiz-adv-x="325" d="M6 1157l129 184h58l124 -184h-65l-86 127l-96 -127h-64z" />
<glyph unicode="&#x2dc;" horiz-adv-x="579" d="M16 1229q66 125 162 127h4q59 0 129 -49l11 -7q68 -45 98 -45q53 0 104 97l39 -25q-70 -127 -149 -127h-2q-33 0 -115 47l-2 2q-8 4 -14 8q-70 45 -107 46q-76 -1 -119 -97z" />
<glyph unicode="&#x2000;" horiz-adv-x="846" />
<glyph unicode="&#x2001;" horiz-adv-x="1692" />
<glyph unicode="&#x2002;" horiz-adv-x="846" />
<glyph unicode="&#x2003;" horiz-adv-x="1692" />
<glyph unicode="&#x2004;" horiz-adv-x="564" />
<glyph unicode="&#x2005;" horiz-adv-x="423" />
<glyph unicode="&#x2006;" horiz-adv-x="282" />
<glyph unicode="&#x2007;" horiz-adv-x="282" />
<glyph unicode="&#x2008;" horiz-adv-x="211" />
<glyph unicode="&#x2009;" horiz-adv-x="338" />
<glyph unicode="&#x200a;" horiz-adv-x="94" />
<glyph unicode="&#x2010;" horiz-adv-x="501" d="M51 471v45h400v-45h-400z" />
<glyph unicode="&#x2011;" horiz-adv-x="501" d="M51 471v45h400v-45h-400z" />
<glyph unicode="&#x2012;" horiz-adv-x="501" d="M51 471v45h400v-45h-400z" />
<glyph unicode="&#x2013;" horiz-adv-x="780" d="M143 432v45h494v-45h-494z" />
<glyph unicode="&#x2014;" horiz-adv-x="1273" d="M143 432v45h987v-45h-987z" />
<glyph unicode="&#x2018;" horiz-adv-x="360" d="M143 1143v110l17 25l2 -125h26q49 0 50 -47q0 -43 -45 -43q-49 0 -50 80z" />
<glyph unicode="&#x2019;" horiz-adv-x="360" d="M125 1262q0 43 45 43q49 0 49 -80v-111l-16 -24l-2 124h-27q-49 0 -49 48z" />
<glyph unicode="&#x201a;" horiz-adv-x="348" d="M125 47q0 43 45 43q49 0 49 -80v-110l-16 -25l-2 125h-27q-49 0 -49 47z" />
<glyph unicode="&#x201c;" horiz-adv-x="518" d="M143 1143v110l17 25l2 -125h26q49 0 50 -47q0 -43 -45 -43q-49 0 -50 80zM301 1143v110l16 25l2 -125h27q49 0 49 -47q0 -43 -45 -43q-49 0 -49 80z" />
<glyph unicode="&#x201d;" horiz-adv-x="516" d="M125 1262q0 43 45 43q49 0 49 -80v-111l-16 -24l-2 124h-27q-49 0 -49 48zM281 1262q0 43 45 43q49 0 49 -80v-111l-17 -24l-2 124h-26q-49 0 -49 48z" />
<glyph unicode="&#x201e;" horiz-adv-x="516" d="M111 47q0 43 45 43q49 0 49 -80v-110l-17 -25l-2 125h-26q-49 0 -49 47zM266 47q0 43 45 43q49 0 49 -80v-110l-16 -25l-2 125h-27q-49 0 -49 47z" />
<glyph unicode="&#x2022;" horiz-adv-x="477" d="M143 408q0 96 99 96q92 0 92 -96q0 -101 -92 -101q-98 0 -99 101z" />
<glyph unicode="&#x2026;" horiz-adv-x="825" d="M184 35q0 47 43 47t43 -45q0 -47 -43 -47t-43 45zM416 35q0 47 43 47t43 -45q0 -47 -43 -47t-43 45zM649 35q0 47 43 47t43 -45q0 -47 -43 -47t-43 45z" />
<glyph unicode="&#x202f;" horiz-adv-x="338" />
<glyph unicode="&#x2039;" horiz-adv-x="534" d="M102 463q145 309 351 405v-51q-190 -111 -297 -354q109 -246 297 -352v-52q-203 94 -351 404z" />
<glyph unicode="&#x203a;" horiz-adv-x="534" d="M82 59v52q186 104 295 352q-106 246 -295 354v51q199 -94 350 -405q-151 -312 -350 -404z" />
<glyph unicode="&#x205f;" horiz-adv-x="423" />
<glyph unicode="&#x20ac;" horiz-adv-x="1187" d="M86 522v45h156q-2 31 -2 70q0 70 8 133h-162v45h168q57 319 276 447q98 55 234 59q176 0 332 -104l-25 -41q-162 100 -303 100q-72 -2 -119 -14q-135 -39 -223 -156q-86 -113 -119 -291h608v-45h-614q-6 -74 -6 -125q0 -39 2 -78h618v-45h-614q35 -317 254 -444 q92 -53 223 -58q143 0 303 113l29 -39q-158 -119 -336 -119q-86 2 -141 19q-156 43 -256 172q-111 145 -131 356h-160z" />
<glyph unicode="&#x2122;" horiz-adv-x="1024" d="M51 1270v26h287v-26h-131v-457h-35v457h-121zM440 809v487h54l163 -436l168 436h49v-487h-38v432l-162 -432h-33l-162 430v-430h-39z" />
<glyph unicode="&#x25fc;" horiz-adv-x="931" d="M0 0v932h932v-932h-932z" />
</font>
</defs>
</svg>
