<?xml version="1.0" standalone="no"?>
<!DOCTYPE svg PUBLIC "-//W3C//DTD SVG 1.1//EN" "http://www.w3.org/Graphics/SVG/1.1/DTD/svg11.dtd" >
<svg xmlns="http://www.w3.org/2000/svg" xmlns:xlink="http://www.w3.org/1999/xlink" version="1.1">
<metadata></metadata>
<defs>
<font id="tajawalbold" horiz-adv-x="0" >
<font-face units-per-em="1000" ascent="643" descent="-357" />
<missing-glyph horiz-adv-x="240" />
<glyph unicode="ff" horiz-adv-x="770" d="M489 352h-259v-352h-126v352h-71v102h71v60q0 131 122 131q80 0 149 -54l-46 -66q-40 26 -68 26q-31 0 -31 -50v-47h259v60q0 131 122 131q80 0 149 -54l-46 -66q-40 26 -68 26q-31 0 -31 -50v-47h124v-102h-124v-352h-126v352z" />
<glyph unicode="fi" horiz-adv-x="637" d="M448 352h-218v-352h-126v352h-71v102h71v60q0 131 122 131q80 0 149 -54l-46 -66q-40 26 -68 26q-31 0 -31 -50v-47h345v-454h-127v352zM433 570q0 32 22.5 55.5t53.5 23.5q33 0 56.5 -23t23.5 -56q0 -35 -22.5 -57t-57.5 -22q-33 0 -54.5 22.5t-21.5 56.5z" />
<glyph unicode="fl" horiz-adv-x="647" d="M33 352v102h71v60q0 131 122 131q80 0 149 -54l-46 -66q-40 26 -68 26q-31 0 -31 -50v-47h124v-102h-124v-352h-126v352h-71zM579 645v-645h-126v579z" />
<glyph unicode="ffi" horiz-adv-x="1022" d="M489 352h-259v-352h-126v352h-71v102h71v60q0 131 122 131q80 0 149 -54l-46 -66q-40 26 -68 26q-31 0 -31 -50v-47h259v60q0 131 122 131q80 0 149 -54l-46 -66q-40 26 -68 26q-31 0 -31 -50v-47h345v-454h-127v352h-218v-352h-126v352zM818 570q0 32 22.5 55.5 t53.5 23.5q33 0 56.5 -23t23.5 -56q0 -35 -22.5 -57t-57.5 -22q-33 0 -54.5 22.5t-21.5 56.5z" />
<glyph unicode="&#x627;&#xfedf;&#xfee0;&#xfeea;" horiz-adv-x="1450" arabic-form="isolated" d="M752 1062v-173l-70 -38v172zM716 668q-22 -14 -51 -14q-38 0 -62 22t-24 56v43l70 39v-78q0 -14 17 -14q16 0 16 13v51l70 39v-90q0 -13 16 -13t16 14v60l71 39v-103q0 -34 -24.5 -56t-62.5 -22q-31 0 -52 14zM1234 578l126 67v-645h-126v578zM1007 209v303l126 67v-371 q0 -97 -59 -155q-55 -53 -144 -53h-99q-78 0 -127 44q-53 -44 -135 -44h-98q-86 0 -137 54q-45 -38 -112 -38q-92 0 -147 69q-45 57 -45 137q0 99 64 160q53 52 125 52q37 0 68 -14v27l125 66v-320q0 -39 16.5 -55.5t54.5 -16.5h79q46 0 65.5 20t19.5 68v303l126 67v-386 q0 -39 16 -55.5t54 -16.5h80q46 0 65 20t19 68zM287 294q-25 22 -59 22q-33 0 -53.5 -26.5t-20.5 -70.5t20 -70t55 -26q40 0 61 28q-3 17 -3 36v107z" />
<glyph unicode="&#xfedf;&#xfe82;" horiz-adv-x="690" arabic-form="isolated" d="M411 615q-46 -57 -91 -57q-21 0 -65 25q-25 14 -37 14h-1q-18 0 -48 -35l-43 38q45 58 90 58q22 0 67 -25q24 -14 37 -14q17 0 49 35zM475 578l126 67v-437q0 -97 -59 -155q-55 -53 -145 -53h-377l63 121h132v327l126 67v-394h49q46 0 65.5 20t19.5 68v369z" />
<glyph unicode="&#xfee0;&#xfe82;" horiz-adv-x="731" arabic-form="final" d="M411 615q-46 -57 -91 -57q-21 0 -65 25q-25 14 -37 14h-1q-18 0 -48 -35l-43 38q45 58 90 58q22 0 67 -25q24 -14 37 -14q17 0 49 35zM671 121h90v-121h-102q-78 0 -127 44q-55 -44 -135 -44h-377l63 121h132v327l126 67v-394h49q46 0 65.5 20t19.5 68v369l126 67v-452 q0 -39 16 -55.5t54 -16.5z" />
<glyph unicode="&#xfedf;&#xfe84;" horiz-adv-x="690" arabic-form="isolated" d="M389 636l-32 -58h-186l32 58h30q-11 20 -11 41q0 32 23.5 55t56.5 23q30 0 56 -21v-58q-24 21 -48 21q-33 0 -33 -30q0 -15 13 -31h99zM475 578l126 67v-437q0 -97 -59 -155q-55 -53 -145 -53h-377l63 121h132v327l126 67v-394h49q46 0 65.5 20t19.5 68v369z" />
<glyph unicode="&#xfee0;&#xfe84;" horiz-adv-x="731" arabic-form="final" d="M389 636l-32 -58h-186l32 58h30q-11 20 -11 41q0 32 23.5 55t56.5 23q30 0 56 -21v-58q-24 21 -48 21q-33 0 -33 -30q0 -15 13 -31h99zM671 121h90v-121h-102q-78 0 -127 44q-55 -44 -135 -44h-377l63 121h132v327l126 67v-394h49q46 0 65.5 20t19.5 68v369l126 67v-452 q0 -39 16 -55.5t54 -16.5z" />
<glyph unicode="&#xfedf;&#xfe88;" horiz-adv-x="690" arabic-form="isolated" d="M475 578l126 67v-437q0 -97 -59 -155q-55 -53 -145 -53h-377l63 121h132v327l126 67v-394h49q46 0 65.5 20t19.5 68v369zM351 -133q-24 21 -48 21q-33 0 -33 -30q0 -15 13 -31h99l-32 -58h-186l32 58h30q-11 20 -11 41q0 32 23.5 55t56.5 23q30 0 56 -21v-58z" />
<glyph unicode="&#xfee0;&#xfe88;" horiz-adv-x="731" arabic-form="final" d="M671 121h90v-121h-102q-78 0 -127 44q-55 -44 -135 -44h-377l63 121h132v327l126 67v-394h49q46 0 65.5 20t19.5 68v369l126 67v-452q0 -39 16 -55.5t54 -16.5zM351 -133q-24 21 -48 21q-33 0 -33 -30q0 -15 13 -31h99l-32 -58h-186l32 58h30q-11 20 -11 41q0 32 23.5 55 t56.5 23q30 0 56 -21v-58z" />
<glyph unicode="&#xfedf;&#xfe8e;" horiz-adv-x="690" arabic-form="isolated" d="M475 578l126 67v-437q0 -97 -59 -155q-55 -53 -145 -53h-377l63 121h132v327l126 67v-394h49q46 0 65.5 20t19.5 68v369z" />
<glyph unicode="&#xfee0;&#xfe8e;" horiz-adv-x="731" arabic-form="final" d="M671 121h90v-121h-102q-78 0 -127 44q-55 -44 -135 -44h-377l63 121h132v327l126 67v-394h49q46 0 65.5 20t19.5 68v369l126 67v-452q0 -39 16 -55.5t54 -16.5z" />
<glyph unicode="&#x67e;" horiz-adv-x="938" arabic-form="final" d="M878 121h70v-121h-82q-74 0 -121 39q-48 -39 -122 -39h-357q-85 0 -133 57q-43 50 -43 129v102l125 66v-160q0 -40 16.5 -56.5t54.5 -16.5h326q38 0 54 17t16 56v184l126 66v-251q0 -39 16 -55.5t54 -16.5zM427 -156q0 -66 -65 -66q-30 0 -48 18t-18 48t18 48.5t48 18.5 q65 0 65 -67zM516 -89q65 0 65 -67q0 -66 -65 -66q-30 0 -48 18t-18 48t18 48.5t48 18.5zM438 -237q59 0 59 -60q0 -59 -59 -59q-60 0 -60 59q0 60 60 60z" />
<glyph unicode="&#x67e;" horiz-adv-x="346" arabic-form="initial" d="M-10 0v121h70q38 0 54 16.5t16 55.5v185l126 66v-257q0 -91 -56 -142q-49 -45 -128 -45h-82zM25 -222q-30 0 -48 18t-18 48t18 48.5t48 18.5q65 0 65 -67q0 -66 -65 -66zM178 -222q-30 0 -48 18t-18 48t18.5 48.5t47.5 18.5q65 0 65 -67q0 -66 -65 -66zM101 -356 q-60 0 -60 59q0 60 60 60q59 0 59 -60q0 -59 -59 -59z" />
<glyph unicode="&#x67e;" horiz-adv-x="386" arabic-form="medial" d="M326 121h70v-121h-82q-73 0 -121 39q-48 -39 -121 -39h-82v121h70q38 0 54 16.5t16 55.5v185l126 66v-251q0 -39 16 -55.5t54 -16.5zM113 -156q0 -66 -65 -66q-30 0 -48 18t-18 48t18 48.5t48 18.5q65 0 65 -67zM202 -89q65 0 65 -67q0 -66 -65 -66q-30 0 -48 18t-18 48 t18 48.5t48 18.5zM124 -237q59 0 59 -60q0 -59 -59 -59q-60 0 -60 59q0 60 60 60z" />
<glyph unicode="&#x6a4;" horiz-adv-x="999" arabic-form="final" d="M719 679q-60 0 -60 61q0 59 60 59q59 0 59 -59q0 -61 -59 -61zM643 532q-30 0 -48 18t-18 49q0 65 66 65q30 0 47.5 -17.5t17.5 -47.5q0 -67 -65 -67zM731 599q0 65 66 65q30 0 47.5 -17.5t17.5 -47.5q0 -67 -65 -67q-30 0 -48 18t-18 49zM874 121h135v-121h-215 q-49 0 -80 7q-29 -7 -80 -7h-368q-85 0 -133 57q-43 50 -43 129v102l125 66v-160q0 -40 16.5 -56.5t54.5 -16.5h269q-38 61 -38 124q0 100 58 161q54 55 139 55q98 0 153 -71q45 -59 45 -145q0 -63 -38 -124zM714 132q34 15 55 48.5t21 71.5q0 92 -76 92t-76 -91 q0 -38 21 -71.5t55 -49.5z" />
<glyph unicode="&#x6a4;" horiz-adv-x="563" arabic-form="initial" d="M288 679q-60 0 -60 61q0 59 60 59q59 0 59 -59q0 -61 -59 -61zM212 532q-30 0 -48 18t-18 49q0 65 66 65q30 0 47.5 -17.5t17.5 -47.5q0 -67 -65 -67zM366 532q-30 0 -48 18t-18 49q0 65 66 65q30 0 47.5 -17.5t17.5 -47.5q0 -67 -65 -67zM-10 0v121h141q-31 43 -31 110 q0 110 60 174q54 56 141 56q89 0 138 -57q44 -49 44 -128v-90q-1 -86 -51 -136q-49 -50 -133 -50h-309zM357 278q0 66 -56 66q-77 0 -77 -109q0 -114 74 -114q59 0 59 64v93z" />
<glyph unicode="&#x6a4;" horiz-adv-x="575" arabic-form="medial" d="M288 679q-60 0 -60 61q0 59 60 59q59 0 59 -59q0 -61 -59 -61zM212 532q-30 0 -48 18t-18 49q0 65 66 65q30 0 47.5 -17.5t17.5 -47.5q0 -67 -65 -67zM300 599q0 65 66 65q30 0 47.5 -17.5t17.5 -47.5q0 -67 -65 -67q-30 0 -48 18t-18 49zM447 121h138v-121h-217 q-51 0 -80 7q-31 -7 -80 -7h-218v121h138q-38 61 -38 124q0 100 59 161q53 55 139 55q98 0 152 -71q45 -58 45 -145q0 -63 -38 -124zM287 132q34 16 55.5 49.5t21.5 70.5q0 43 -20.5 67.5t-55.5 24.5q-76 0 -76 -91q0 -39 21 -72.5t54 -48.5z" />
<glyph unicode="&#x649;" horiz-adv-x="346" arabic-form="initial" d="M-30 0v121h90q38 0 54 16.5t16 55.5v185l126 66v-257q0 -91 -56 -142q-49 -45 -128 -45h-102z" />
<glyph unicode="&#x649;" horiz-adv-x="386" arabic-form="medial" d="M326 121h90v-121h-102q-73 0 -121 39q-48 -39 -121 -39h-102v121h90q38 0 54 16.5t16 55.5v185l126 66v-251q0 -39 16 -55.5t54 -16.5z" />
<glyph unicode="&#xfc59;" horiz-adv-x="1104" arabic-form="isolated" d="M693 0q-12 -92 -104 -144q-83 -46 -207 -46q-166 0 -250 95q-62 71 -62 174q0 79 37 138l120 25q-40 -68 -40 -143q0 -84 50 -129q50 -46 145 -46q148 0 180 76h-96l63 121h276q38 0 54 16.5t16 55.5v185l126 66v-257q0 -91 -56 -142q-49 -45 -128 -45h-124zM795 -223 q-30 0 -48 18t-18 49q0 65 66 65q30 0 47.5 -17.5t17.5 -47.5q0 -67 -65 -67zM949 -223q-30 0 -48 18t-18 49q0 65 66 65q30 0 47.5 -17.5t17.5 -47.5q0 -67 -65 -67z" />
<glyph unicode="&#xfc5a;" horiz-adv-x="1104" arabic-form="isolated" d="M693 0q-12 -92 -104 -144q-83 -46 -207 -46q-166 0 -250 95q-62 71 -62 174q0 79 37 138l120 25q-40 -68 -40 -143q0 -84 50 -129q50 -46 145 -46q148 0 180 76h-96l63 121h276q38 0 54 16.5t16 55.5v185l126 66v-257q0 -91 -56 -142q-49 -45 -128 -45h-124zM315 -411 q-30 0 -48 18.5t-18 48.5q0 29 18 47t48 18t47.5 -17.5t17.5 -47.5q0 -67 -65 -67zM469 -411q-30 0 -48 18t-18 49q0 65 66 65q30 0 47.5 -17.5t17.5 -47.5q0 -67 -65 -67zM795 -223q-30 0 -48 18t-18 49q0 65 66 65q30 0 47.5 -17.5t17.5 -47.5q0 -67 -65 -67zM949 -223 q-30 0 -48 18t-18 49q0 65 66 65q30 0 47.5 -17.5t17.5 -47.5q0 -67 -65 -67z" />
<glyph unicode="&#xfc5e;" arabic-form="isolated" d="M195 879q-18 23 -18 54q0 42 26.5 71.5t64.5 29.5q39 0 65.5 -29.5t26.5 -73.5q0 -60 -39 -97.5t-102 -37.5q-61 0 -112 38l-21 -35l-76 52l56 87h30q42 -59 96 -59h2h1zM272 905q18 14 18 34q0 26 -20 26q-21 0 -21 -26q0 -22 23 -34zM244 647v60l71 39v-103 q0 -34 -24.5 -56t-62.5 -22q-31 0 -52 14q-22 -14 -51 -14q-38 0 -62 22t-24 56v43l70 39v-78q0 -14 17 -14q16 0 16 13v51l70 39v-90q0 -13 16 -13t16 14z" />
<glyph unicode="&#xfc5f;" arabic-form="isolated" d="M174 890q-22 -14 -51 -14q-38 0 -62 22t-24 56v43l70 39v-78q0 -14 17 -14q16 0 16 13v51l70 39v-90q0 -13 16 -13t16 14v60l71 39v-103q0 -34 -24.5 -56t-62.5 -22q-31 0 -52 14zM332 849l-45 -96l-264 -48l45 96zM0 564l45 97l263 47l-45 -96z" />
<glyph unicode="&#xfc60;" arabic-form="isolated" d="M315 927l-45 -96l-263 -48l45 97zM212 647v60l71 39v-103q0 -34 -24.5 -56t-62.5 -22q-31 0 -52 14q-22 -14 -51 -14q-38 0 -62 22t-24 56v43l70 39v-78q0 -14 17 -14q16 0 16 13v51l70 39v-90q0 -13 16 -13t16 14z" />
<glyph unicode="&#xfc61;" arabic-form="isolated" d="M153 883q-14 25 -14 53q0 43 26.5 72.5t64.5 29.5q40 0 66 -29t26 -73t-25.5 -76.5t-65.5 -38.5l-224 -41l39 83zM233 909q19 14 19 33q0 27 -20 27q-21 0 -21 -27q0 -20 22 -33zM212 647v60l71 39v-103q0 -34 -24.5 -56t-62.5 -22q-31 0 -52 14q-22 -14 -51 -14 q-38 0 -62 22t-24 56v43l70 39v-78q0 -14 17 -14q16 0 16 13v51l70 39v-90q0 -13 16 -13t16 14z" />
<glyph unicode="&#xfc62;" arabic-form="isolated" d="M158 783q-22 -14 -51 -14q-38 0 -62 22t-24 56v43l70 39v-78q0 -14 17 -14q16 0 16 13v51l70 39v-90q0 -13 16 -13t16 14v60l71 39v-103q0 -34 -24.5 -56t-62.5 -22q-31 0 -52 14zM45 661l263 47l-45 -96l-263 -48z" />
<glyph unicode="&#xfc63;" arabic-form="isolated" d="M210 1020v-173l-70 -38v172zM174 626q-22 -14 -53 -14q-37 0 -60.5 22t-23.5 56v43l70 39v-78q0 -14 17 -14q16 0 16 13v51l70 39v-90q0 -13 16 -13t16 14v60l71 39v-103q0 -35 -24.5 -56.5t-62.5 -21.5q-31 0 -52 14z" />
<glyph unicode="&#xfc95;" horiz-adv-x="1130" arabic-form="final" d="M693 0q-12 -92 -104 -144q-83 -46 -207 -46q-166 0 -250 95q-62 71 -62 174q0 79 37 138l120 25q-40 -68 -40 -143q0 -84 50 -129q50 -46 145 -46q148 0 180 76h-96l63 121h275q38 0 54 16.5t16 55.5v185l126 66v-251q0 -39 16 -55.5t54 -16.5h90v-121h-102 q-73 0 -121 39q-48 -39 -121 -39h-123zM795 -91q30 0 47.5 -17.5t17.5 -47.5q0 -67 -65 -67q-30 0 -48 18t-18 49q0 65 66 65zM949 -91q30 0 47.5 -17.5t17.5 -47.5q0 -67 -65 -67q-30 0 -48 18t-18 49q0 65 66 65z" />
<glyph unicode="&#xfc96;" horiz-adv-x="1130" arabic-form="final" d="M693 0q-12 -92 -104 -144q-83 -46 -207 -46q-166 0 -250 95q-62 71 -62 174q0 79 37 138l120 25q-40 -68 -40 -143q0 -84 50 -129q50 -46 145 -46q148 0 180 76h-96l63 121h275q38 0 54 16.5t16 55.5v185l126 66v-251q0 -39 16 -55.5t54 -16.5h90v-121h-102 q-73 0 -121 39q-48 -39 -121 -39h-123zM315 -411q-30 0 -48 18.5t-18 48.5q0 29 18 47t48 18t47.5 -17.5t17.5 -47.5q0 -67 -65 -67zM469 -411q-30 0 -48 18t-18 49q0 65 66 65q30 0 47.5 -17.5t17.5 -47.5q0 -67 -65 -67zM795 -91q30 0 47.5 -17.5t17.5 -47.5 q0 -67 -65 -67q-30 0 -48 18t-18 49q0 65 66 65zM949 -91q30 0 47.5 -17.5t17.5 -47.5q0 -67 -65 -67q-30 0 -48 18t-18 49q0 65 66 65z" />
<glyph unicode="&#x622;" horiz-adv-x="346" arabic-form="final" d="M303 755q-46 -57 -91 -57q-21 0 -65 25q-25 14 -37 14h-1q-18 0 -48 -35l-43 38q45 58 90 58q22 0 67 -25q24 -14 37 -14q17 0 49 35zM274 0q-91 0 -141 58q-43 50 -43 129v392l126 66v-452q0 -39 16 -55.5t54 -16.5h90v-121h-102z" />
<glyph unicode="&#x623;" horiz-adv-x="346" arabic-form="final" d="M52 701l32 58h30q-11 20 -11 41q0 32 23.5 55t56.5 23q30 0 56 -21v-58q-24 21 -48 21q-33 0 -33 -30q0 -15 13 -31h99l-32 -58h-186zM274 0q-91 0 -141 58q-43 50 -43 129v392l126 66v-452q0 -39 16 -55.5t54 -16.5h90v-121h-102z" />
<glyph unicode="&#x624;" horiz-adv-x="535" arabic-form="final" d="M349 622l-32 -58h-186l32 58h30q-11 20 -11 41q0 32 23.5 55t56.5 23q30 0 56 -21v-58q-24 21 -48 21q-33 0 -33 -30q0 -15 13 -31h99zM565 121v-121h-123q-7 -90 -80 -144q-60 -44 -140 -44q-63 0 -123 34v109q54 -31 108 -31q42 0 74.5 23t35.5 55q-8 1 -25 2 q-17 2 -26 3q-103 11 -159 81q-47 59 -47 143q0 110 60 174q53 56 140 56q89 0 139 -57q43 -49 43 -128v-155h123zM317 278q0 66 -57 66q-76 0 -76 -109q0 -97 88 -108q14 -3 45 -5v156z" />
<glyph unicode="&#x625;" horiz-adv-x="346" arabic-form="final" d="M274 0q-91 0 -141 58q-43 50 -43 129v392l126 66v-452q0 -39 16 -55.5t54 -16.5h90v-121h-102zM63 -272l32 58h30q-11 20 -11 41q0 32 23.5 55t56.5 23q30 0 56 -21v-58q-24 21 -48 21q-33 0 -33 -30q0 -15 13 -31h99l-32 -58h-186z" />
<glyph unicode="&#x626;" horiz-adv-x="675" arabic-form="final" d="M116 339l31 58h30q-11 20 -11 41q0 32 23.5 55.5t56.5 23.5q31 0 57 -22v-57q-24 21 -48 21q-34 0 -34 -30q0 -15 13 -32h99l-31 -58h-186zM693 0q-12 -92 -104 -144q-83 -46 -207 -46q-166 0 -250 95q-62 71 -62 174q0 79 37 138l120 25q-40 -68 -40 -143q0 -84 50 -129 q50 -46 145 -46q148 0 180 76h-96l63 121h167v-121h-3z" />
<glyph unicode="&#x626;" horiz-adv-x="339" arabic-form="initial" d="M57 564l31 58h30q-11 20 -11 41q0 32 23.5 55t56.5 23q30 0 56 -21v-58q-24 21 -48 21q-33 0 -33 -30q0 -15 13 -31h99l-31 -58h-186zM-30 0v121h90q38 0 54 16.5t16 55.5v185l126 66v-257q0 -91 -56 -142q-49 -45 -128 -45h-102z" />
<glyph unicode="&#x626;" horiz-adv-x="386" arabic-form="medial" d="M271 622l-32 -58h-186l32 58h30q-11 20 -11 41q0 32 23.5 55t56.5 23q30 0 56 -21v-58q-24 21 -48 21q-33 0 -33 -30q0 -15 13 -31h99zM326 121h90v-121h-102q-73 0 -121 39q-48 -39 -121 -39h-102v121h90q38 0 54 16.5t16 55.5v185l126 66v-251q0 -39 16 -55.5t54 -16.5 z" />
<glyph unicode="&#x627;" horiz-adv-x="346" arabic-form="final" d="M274 0q-91 0 -141 58q-43 50 -43 129v392l126 66v-452q0 -39 16 -55.5t54 -16.5h90v-121h-102z" />
<glyph unicode="&#x628;" horiz-adv-x="918" arabic-form="final" d="M878 121h70v-121h-82q-74 0 -121 39q-48 -39 -122 -39h-357q-85 0 -133 57q-43 50 -43 129v102l125 66v-160q0 -40 16.5 -56.5t54.5 -16.5h326q38 0 54 17t16 56v184l126 66v-251q0 -39 16 -55.5t54 -16.5zM427 -91q30 0 47.5 -17.5t17.5 -47.5q0 -67 -65 -67 q-30 0 -48 18t-18 49q0 29 18 47t48 18z" />
<glyph unicode="&#x628;" horiz-adv-x="346" arabic-form="initial" d="M-30 0v121h90q38 0 54 16.5t16 55.5v185l126 66v-257q0 -91 -56 -142q-49 -45 -128 -45h-102zM182 -223q-30 0 -48 18t-18 49q0 29 18 47t48 18t47.5 -17.5t17.5 -47.5q0 -67 -65 -67z" />
<glyph unicode="&#x628;" horiz-adv-x="386" arabic-form="medial" d="M326 121h90v-121h-102q-73 0 -121 39q-48 -39 -121 -39h-102v121h90q38 0 54 16.5t16 55.5v185l126 66v-251q0 -39 16 -55.5t54 -16.5zM199 -91q30 0 47.5 -17.5t17.5 -47.5q0 -67 -65 -67q-30 0 -48 18t-18 49q0 29 18 47t48 18z" />
<glyph unicode="&#x629;" horiz-adv-x="543" arabic-form="final" d="M160 565q-30 0 -48 18t-18 49q0 65 66 65q30 0 47.5 -17.5t17.5 -47.5q0 -67 -65 -67zM314 565q-30 0 -48 18t-18 49q0 65 66 65q30 0 47.5 -17.5t17.5 -47.5q0 -67 -65 -67zM483 121h90v-121h-102q-93 0 -144 62q-43 -33 -105 -33q-92 0 -147 69q-45 57 -45 137 q0 99 64 161q54 52 125 52q37 0 68 -14v26l125 66v-333q0 -39 16.5 -55.5t54.5 -16.5zM287 308q-26 22 -59 22t-53.5 -27t-20.5 -71t20 -70t55 -26q38 0 59 26q-1 8 -1 25v121z" />
<glyph unicode="&#x62a;" horiz-adv-x="918" arabic-form="final" d="M362 465q-30 0 -48 18.5t-18 48.5q0 29 18 47t48 18t47.5 -17.5t17.5 -47.5q0 -67 -65 -67zM516 465q-30 0 -48 18t-18 49q0 65 66 65q30 0 47.5 -17.5t17.5 -47.5q0 -67 -65 -67zM878 121h70v-121h-82q-74 0 -121 39q-48 -39 -122 -39h-357q-85 0 -133 57 q-43 50 -43 129v102l125 66v-160q0 -40 16.5 -56.5t54.5 -16.5h326q38 0 54 17t16 56v184l126 66v-251q0 -39 16 -55.5t54 -16.5z" />
<glyph unicode="&#x62a;" horiz-adv-x="346" arabic-form="initial" d="M42 545q-30 0 -48 18t-18 49q0 65 66 65q30 0 47.5 -17.5t17.5 -47.5q0 -67 -65 -67zM196 545q-30 0 -48 18t-18 49q0 65 66 65q30 0 47.5 -17.5t17.5 -47.5q0 -67 -65 -67zM-30 0v121h90q38 0 54 16.5t16 55.5v185l126 66v-257q0 -91 -56 -142q-49 -45 -128 -45h-102z " />
<glyph unicode="&#x62a;" horiz-adv-x="386" arabic-form="medial" d="M65 532q-30 0 -48 18t-18 49q0 29 18 47t48 18t47.5 -17.5t17.5 -47.5q0 -67 -65 -67zM218 532q-30 0 -48 18.5t-18 48.5q0 29 18.5 47t47.5 18q30 0 47.5 -17.5t17.5 -47.5q0 -67 -65 -67zM326 121h90v-121h-102q-73 0 -121 39q-48 -39 -121 -39h-102v121h90 q38 0 54 16.5t16 55.5v185l126 66v-251q0 -39 16 -55.5t54 -16.5z" />
<glyph unicode="&#x62b;" horiz-adv-x="918" arabic-form="final" d="M458 612q-60 0 -60 62q0 60 60 60q61 0 61 -60q0 -62 -61 -62zM382 465q-30 0 -48 18.5t-18 48.5q0 29 18 47t48 18t47.5 -17.5t17.5 -47.5q0 -67 -65 -67zM470 532q0 65 66 65q30 0 47.5 -17.5t17.5 -47.5q0 -67 -65 -67q-30 0 -48 18t-18 49zM878 121h70v-121h-82 q-74 0 -121 39q-48 -39 -122 -39h-357q-85 0 -133 57q-43 50 -43 129v102l125 66v-160q0 -40 16.5 -56.5t54.5 -16.5h326q38 0 54 17t16 56v184l126 66v-251q0 -39 16 -55.5t54 -16.5z" />
<glyph unicode="&#x62b;" horiz-adv-x="346" arabic-form="initial" d="M118 692q-60 0 -60 61q0 59 60 59q59 0 59 -59q0 -61 -59 -61zM42 545q-30 0 -48 18t-18 49q0 65 66 65q30 0 47.5 -17.5t17.5 -47.5q0 -67 -65 -67zM196 545q-30 0 -48 18t-18 49q0 65 66 65q30 0 47.5 -17.5t17.5 -47.5q0 -67 -65 -67zM-30 0v121h90q38 0 54 16.5 t16 55.5v185l126 66v-257q0 -91 -56 -142q-49 -45 -128 -45h-102z" />
<glyph unicode="&#x62b;" horiz-adv-x="386" arabic-form="medial" d="M142 679q-61 0 -61 62q0 27 16.5 43.5t44.5 16.5q60 0 60 -60q0 -62 -60 -62zM66 532q-30 0 -48 18t-18 49q0 29 18 47t48 18t47.5 -17.5t17.5 -47.5q0 -67 -65 -67zM154 599q0 29 18 47t48 18t47.5 -17.5t17.5 -47.5q0 -67 -65 -67q-30 0 -48 18t-18 49zM326 121h90 v-121h-102q-73 0 -121 39q-48 -39 -121 -39h-102v121h90q38 0 54 16.5t16 55.5v185l126 66v-251q0 -39 16 -55.5t54 -16.5z" />
<glyph unicode="&#x62c;" horiz-adv-x="721" arabic-form="final" d="M686 121h65v-121h-66q-80 0 -129.5 19t-91.5 66q-28 -10 -101 -27q-94 -22 -129 -53q-43 -40 -43 -113q0 -146 153 -146q98 0 184 54v-119q-87 -56 -197 -56q-120 0 -192 76q-69 73 -69 192q0 125 73 196q32 31 69.5 47t133.5 39q87 21 123 49q-69 121 -166 121 q-82 0 -175 -87v111q83 92 189 92q79 0 153 -57t131 -162v-50q-19 -30 -40 -48q39 -23 125 -23zM285 -103q0 56 56 56t56 -56q0 -57 -56 -57t-56 57z" />
<glyph unicode="&#x62c;" horiz-adv-x="582" arabic-form="initial" d="M-30 0v121h149q176 0 280 105q-68 119 -165 119q-80 0 -175 -87v111q84 92 190 92q78 0 152 -57t131 -162v-50q-72 -92 -179.5 -142t-234.5 -50h-148zM280 -223q-30 0 -48 18t-18 49q0 29 18 47t48 18t47.5 -17.5t17.5 -47.5q0 -67 -65 -67z" />
<glyph unicode="&#x62c;" horiz-adv-x="676" arabic-form="medial" d="M622 121h84v-121h-85q-79 0 -126.5 17.5t-88.5 61.5q-125 -79 -288 -79h-148v121h149q176 0 280 105q-68 119 -165 119q-80 0 -175 -87v111q84 92 190 92q78 0 152 -57t131 -162v-50q-16 -21 -42 -47q40 -24 132 -24zM345 -91q30 0 47.5 -17.5t17.5 -47.5q0 -67 -65 -67 q-30 0 -48 18t-18 49q0 29 18 47t48 18z" />
<glyph unicode="&#x62d;" horiz-adv-x="741" arabic-form="final" d="M686 121h85v-121h-86q-80 0 -129.5 19t-91.5 66q-28 -10 -101 -27q-94 -22 -129 -53q-43 -40 -43 -113q0 -146 153 -146q98 0 184 54v-119q-87 -56 -197 -56q-120 0 -192 76q-69 73 -69 192q0 125 73 196q32 31 69.5 47t133.5 39q87 21 123 49q-69 121 -166 121 q-82 0 -175 -87v111q83 92 189 92q79 0 153 -57t131 -162v-50q-19 -30 -40 -48q39 -23 125 -23z" />
<glyph unicode="&#x62d;" horiz-adv-x="582" arabic-form="initial" d="M-30 0v121h149q176 0 280 105q-68 119 -165 119q-80 0 -175 -87v111q84 92 190 92q78 0 152 -57t131 -162v-50q-72 -92 -179.5 -142t-234.5 -50h-148z" />
<glyph unicode="&#x62d;" horiz-adv-x="676" arabic-form="medial" d="M622 121h84v-121h-85q-79 0 -126.5 17.5t-88.5 61.5q-125 -79 -288 -79h-148v121h149q176 0 280 105q-68 119 -165 119q-80 0 -175 -87v111q84 92 190 92q78 0 152 -57t131 -162v-50q-16 -21 -42 -47q40 -24 132 -24z" />
<glyph unicode="&#x62e;" horiz-adv-x="741" arabic-form="final" d="M321 545q-30 0 -48 18t-18 49q0 29 18 47t48 18t47.5 -17.5t17.5 -47.5q0 -67 -65 -67zM686 121h85v-121h-86q-80 0 -129.5 19t-91.5 66q-28 -10 -101 -27q-94 -22 -129 -53q-43 -40 -43 -113q0 -146 153 -146q98 0 184 54v-119q-87 -56 -197 -56q-120 0 -192 76 q-69 73 -69 192q0 125 73 196q32 31 69.5 47t133.5 39q87 21 123 49q-69 121 -166 121q-82 0 -175 -87v111q83 92 189 92q79 0 153 -57t131 -162v-50q-19 -30 -40 -48q39 -23 125 -23z" />
<glyph unicode="&#x62e;" horiz-adv-x="582" arabic-form="initial" d="M280 545q-30 0 -48 18t-18 49q0 29 18 47t48 18t47.5 -17.5t17.5 -47.5q0 -67 -65 -67zM-30 0v121h149q176 0 280 105q-68 119 -165 119q-80 0 -175 -87v111q84 92 190 92q78 0 152 -57t131 -162v-50q-72 -92 -179.5 -142t-234.5 -50h-148z" />
<glyph unicode="&#x62e;" horiz-adv-x="676" arabic-form="medial" d="M280 545q-30 0 -48 18t-18 49q0 29 18 47t48 18t47.5 -17.5t17.5 -47.5q0 -67 -65 -67zM622 121h84v-121h-85q-79 0 -126.5 17.5t-88.5 61.5q-125 -79 -288 -79h-148v121h149q176 0 280 105q-68 119 -165 119q-80 0 -175 -87v111q84 92 190 92q78 0 152 -57t131 -162v-50 q-16 -21 -42 -47q40 -24 132 -24z" />
<glyph unicode="&#x62f;" horiz-adv-x="538" arabic-form="final" d="M10 0l63 121h158q51 0 51 59q0 110 -106 169l62 107q156 -91 168 -247q4 -50 22.5 -69t63.5 -19h76v-121h-83q-74 0 -125 41q-37 -41 -106 -41h-244z" />
<glyph unicode="&#x630;" horiz-adv-x="538" arabic-form="final" d="M240 545q-30 0 -48 18t-18 49q0 29 18 47t48 18t47.5 -17.5t17.5 -47.5q0 -67 -65 -67zM10 0l63 121h158q51 0 51 59q0 110 -106 169l62 107q156 -91 168 -247q4 -50 22.5 -69t63.5 -19h76v-121h-83q-74 0 -125 41q-37 -41 -106 -41h-244z" />
<glyph unicode="&#x631;" horiz-adv-x="401" arabic-form="final" d="M341 121h90v-121h-102q-34 0 -63 9q-13 -96 -77 -152q-58 -50 -139 -50q-63 0 -123 32v110q52 -29 102 -29q55 0 85.5 35.5t30.5 98.5v324l82 43l43 23v-1l1 1v-251q0 -39 16 -55.5t54 -16.5z" />
<glyph unicode="&#x632;" horiz-adv-x="401" arabic-form="final" d="M200 545q-30 0 -48 18t-18 49q0 29 18 47t48 18t47.5 -17.5t17.5 -47.5q0 -67 -65 -67zM341 121h90v-121h-102q-34 0 -63 9q-13 -96 -77 -152q-58 -50 -139 -50q-63 0 -123 32v110q52 -29 102 -29q55 0 85.5 35.5t30.5 98.5v324l82 43l43 23v-1l1 1v-251q0 -39 16 -55.5 t54 -16.5z" />
<glyph unicode="&#x633;" horiz-adv-x="1425" arabic-form="final" d="M1363 121h92v-121h-99q-80 0 -135 44q-47 -42 -124 -44h-95q-74 0 -121 39q-47 -38 -118 -39h-96q-34 0 -63 9q-19 -96 -97 -151q-70 -48 -170 -48q-135 0 -209 95q-58 74 -58 174q0 79 37 138l120 25q-40 -68 -40 -143q0 -76 43 -123q41 -45 107 -45q69 0 107.5 35 t38.5 98v261l126 66v-198q0 -39 16.5 -55.5t54.5 -16.5h67q38 0 54.5 16.5t16.5 55.5v158l125 67v-225q0 -39 16.5 -55.5t54.5 -16.5h68q38 0 54.5 16.5t16.5 55.5v185l125 66v-235q0 -48 19.5 -68t65.5 -20z" />
<glyph unicode="&#x633;" horiz-adv-x="1032" arabic-form="initial" d="M-30 0v121h106q38 0 54.5 16.5t16.5 55.5v132l126 66v-198q0 -39 16 -55.5t54 -16.5h68q38 0 54 16.5t16 55.5v158l126 67v-225q0 -39 16.5 -55.5t54.5 -16.5h68q38 0 54 16.5t16 55.5v185l126 66v-257q0 -89 -54 -140q-47 -45 -124 -47h-99q-74 0 -121 44 q-43 -43 -114 -44h-99q-74 0 -121 44q-47 -44 -121 -44h-119z" />
<glyph unicode="&#x633;" horiz-adv-x="1089" arabic-form="medial" d="M-30 0v121h106q38 0 54.5 16.5t16.5 55.5v132l126 66v-198q0 -39 16 -55.5t54 -16.5h68q38 0 54 16.5t16 55.5v158l126 67v-225q0 -39 16.5 -55.5t54.5 -16.5h68q38 0 54 16.5t16 55.5v185l126 66v-235q0 -48 19.5 -68t65.5 -20h92v-121h-99q-84 0 -135 48 q-45 -47 -121 -48h-99q-74 0 -121 44q-43 -43 -114 -44h-99q-74 0 -121 44q-47 -44 -121 -44h-119z" />
<glyph unicode="&#x634;" horiz-adv-x="1425" arabic-form="final" d="M882 679q-59 0 -59 61q0 59 59 59q60 0 60 -59q0 -61 -60 -61zM806 532q-30 0 -48 18.5t-18 48.5q0 29 18.5 47t47.5 18q30 0 47.5 -17.5t17.5 -47.5q0 -67 -65 -67zM894 599q0 29 18 47t48 18t47.5 -17.5t17.5 -47.5q0 -67 -65 -67q-30 0 -48 18t-18 49zM1363 121h92 v-121h-99q-80 0 -135 44q-47 -42 -124 -44h-95q-74 0 -121 39q-47 -38 -118 -39h-96q-34 0 -63 9q-19 -96 -97 -151q-70 -48 -170 -48q-135 0 -209 95q-58 74 -58 174q0 79 37 138l120 25q-40 -68 -40 -143q0 -76 43 -123q41 -45 107 -45q69 0 107.5 35t38.5 98v261l126 66 v-198q0 -39 16.5 -55.5t54.5 -16.5h67q38 0 54.5 16.5t16.5 55.5v158l125 67v-225q0 -39 16.5 -55.5t54.5 -16.5h68q38 0 54.5 16.5t16.5 55.5v185l125 66v-235q0 -48 19.5 -68t65.5 -20z" />
<glyph unicode="&#x634;" horiz-adv-x="1032" arabic-form="initial" d="M538 679q-60 0 -60 61q0 59 60 59q59 0 59 -59q0 -61 -59 -61zM462 532q-30 0 -48 18t-18 49q0 29 18 47t48 18t47.5 -17.5t17.5 -47.5q0 -67 -65 -67zM616 532q-30 0 -48 18t-18 49q0 29 18 47t48 18t47.5 -17.5t17.5 -47.5q0 -67 -65 -67zM-30 0v121h106 q38 0 54.5 16.5t16.5 55.5v132l126 66v-198q0 -39 16 -55.5t54 -16.5h68q38 0 54 16.5t16 55.5v158l126 67v-225q0 -39 16.5 -55.5t54.5 -16.5h68q38 0 54 16.5t16 55.5v185l126 66v-257q0 -89 -54 -140q-47 -45 -124 -47h-99q-74 0 -121 44q-43 -43 -114 -44h-99 q-74 0 -121 44q-47 -44 -121 -44h-119z" />
<glyph unicode="&#x634;" horiz-adv-x="1089" arabic-form="medial" d="M538 679q-60 0 -60 61q0 59 60 59q59 0 59 -59q0 -61 -59 -61zM462 532q-30 0 -48 18t-18 49q0 29 18 47t48 18t47.5 -17.5t17.5 -47.5q0 -67 -65 -67zM616 532q-30 0 -48 18t-18 49q0 29 18 47t48 18t47.5 -17.5t17.5 -47.5q0 -67 -65 -67zM-30 0v121h106 q38 0 54.5 16.5t16.5 55.5v132l126 66v-198q0 -39 16 -55.5t54 -16.5h68q38 0 54 16.5t16 55.5v158l126 67v-225q0 -39 16.5 -55.5t54.5 -16.5h68q38 0 54 16.5t16 55.5v185l126 66v-235q0 -48 19.5 -68t65.5 -20h92v-121h-99q-84 0 -135 48q-45 -47 -121 -48h-99 q-74 0 -121 44q-43 -43 -114 -44h-99q-74 0 -121 44q-47 -44 -121 -44h-119z" />
<glyph unicode="&#x635;" horiz-adv-x="1413" arabic-form="final" d="M1353 121h90v-121h-102q-73 0 -121 39q-48 -39 -121 -39h-432q-34 0 -63 9q-19 -96 -97 -151q-70 -48 -170 -48q-135 0 -209 95q-58 74 -58 174q0 79 37 138l120 25q-40 -68 -40 -143q0 -76 43 -123q41 -45 107 -45q69 0 107.5 35t38.5 98v261l126 66v-198q0 -64 51 -71 q47 145 140 237q102 102 234 102q118 0 189 -82q60 -69 60 -171v-21q0 -66 70 -66zM1094 121q36 0 49.5 15.5t13.5 57.5v14q0 60 -34 98t-88 38q-78 0 -145.5 -60t-106.5 -163h311z" />
<glyph unicode="&#x635;" horiz-adv-x="995" arabic-form="initial" d="M307 122q48 146 140 237q102 102 234 102q118 0 189 -82q60 -69 60 -171v-22q0 -91 -57 -142q-49 -44 -127 -44h-432q-73 0 -121 39q-48 -39 -121 -39h-102v121h90q38 0 54 16.5t16 55.5v132l126 66v-198q0 -64 51 -71zM804 194v14q0 60 -34 98t-88 38q-78 0 -145.5 -60 t-106.5 -163h311q36 0 49.5 15.5t13.5 57.5z" />
<glyph unicode="&#x635;" horiz-adv-x="1060" arabic-form="medial" d="M1000 121h90v-121h-102q-73 0 -121 39q-48 -39 -121 -39h-432q-73 0 -121 39q-48 -39 -121 -39h-102v121h90q38 0 54 16.5t16 55.5v132l126 66v-198q0 -64 51 -71q48 146 140 237q102 102 234 102q118 0 189 -82q60 -69 60 -171v-21q0 -66 70 -66zM741 121 q36 0 49.5 15.5t13.5 57.5v14q0 60 -34 98t-88 38q-78 0 -145.5 -60t-106.5 -163h311z" />
<glyph unicode="&#x636;" horiz-adv-x="1413" arabic-form="final" d="M1034 545q-30 0 -48 18t-18 49q0 29 18 47t48 18t47.5 -17.5t17.5 -47.5q0 -67 -65 -67zM1353 121h90v-121h-102q-73 0 -121 39q-48 -39 -121 -39h-432q-34 0 -63 9q-19 -96 -97 -151q-70 -48 -170 -48q-135 0 -209 95q-58 74 -58 174q0 79 37 138l120 25 q-40 -68 -40 -143q0 -76 43 -123q41 -45 107 -45q69 0 107.5 35t38.5 98v261l126 66v-198q0 -64 51 -71q47 145 140 237q102 102 234 102q118 0 189 -82q60 -69 60 -171v-21q0 -66 70 -66zM1094 121q36 0 49.5 15.5t13.5 57.5v14q0 60 -34 98t-88 38q-78 0 -145.5 -60 t-106.5 -163h311z" />
<glyph unicode="&#x636;" horiz-adv-x="995" arabic-form="initial" d="M700 545q-30 0 -48 18t-18 49q0 29 18 47t48 18t47.5 -17.5t17.5 -47.5q0 -67 -65 -67zM307 122q48 146 140 237q102 102 234 102q118 0 189 -82q60 -69 60 -171v-22q0 -91 -57 -142q-49 -44 -127 -44h-432q-73 0 -121 39q-48 -39 -121 -39h-102v121h90q38 0 54 16.5 t16 55.5v132l126 66v-198q0 -64 51 -71zM804 194v14q0 60 -34 98t-88 38q-78 0 -145.5 -60t-106.5 -163h311q36 0 49.5 15.5t13.5 57.5z" />
<glyph unicode="&#x636;" horiz-adv-x="1060" arabic-form="medial" d="M700 545q-30 0 -48 18t-18 49q0 29 18 47t48 18t47.5 -17.5t17.5 -47.5q0 -67 -65 -67zM1000 121h90v-121h-102q-73 0 -121 39q-48 -39 -121 -39h-432q-73 0 -121 39q-48 -39 -121 -39h-102v121h90q38 0 54 16.5t16 55.5v132l126 66v-198q0 -64 51 -71q48 146 140 237 q102 102 234 102q118 0 189 -82q60 -69 60 -171v-21q0 -66 70 -66zM741 121q36 0 49.5 15.5t13.5 57.5v14q0 60 -34 98t-88 38q-78 0 -145.5 -60t-106.5 -163h311z" />
<glyph unicode="&#x637;" horiz-adv-x="972" arabic-form="final" d="M912 121h90v-121h-102q-72 0 -118 37q-46 -37 -115 -37h-647l64 121h136l12 34v423l126 67v-288q102 104 234 104q119 0 189 -82q60 -69 60 -171v-21q0 -66 71 -66zM662 121q33 0 43.5 13t10.5 55v19q0 60 -34.5 98t-88.5 38q-69 0 -131.5 -51t-103.5 -141v-31h304z" />
<glyph unicode="&#x637;" horiz-adv-x="835" arabic-form="initial" d="M286 356q103 105 235 105q119 0 189 -82q60 -69 60 -171v-24q0 -94 -54 -143q-45 -41 -120 -41h-626v121h179q4 14 11 31v426l126 67v-289zM645 189v19q0 60 -34.5 98t-88.5 38q-70 0 -132.5 -51.5t-103.5 -142.5v-29h305q33 0 43.5 13t10.5 55z" />
<glyph unicode="&#x637;" horiz-adv-x="901" arabic-form="medial" d="M841 121h90v-121h-102q-72 0 -118 37q-46 -37 -115 -37h-626v121h179l12 34v423l126 67v-288q102 104 234 104q119 0 189 -82q60 -69 60 -171v-21q0 -66 71 -66zM591 121q33 0 43.5 13t10.5 55v19q0 60 -34.5 98t-88.5 38q-69 0 -131.5 -51t-103.5 -141v-31h304z" />
<glyph unicode="&#x638;" horiz-adv-x="972" arabic-form="final" d="M591 545q-30 0 -48 18t-18 49q0 29 18 47t48 18t47.5 -17.5t17.5 -47.5q0 -67 -65 -67zM912 121h90v-121h-102q-72 0 -118 37q-46 -37 -115 -37h-647l64 121h136l12 34v423l126 67v-288q102 104 234 104q119 0 189 -82q60 -69 60 -171v-21q0 -66 71 -66zM662 121 q33 0 43.5 13t10.5 55v19q0 60 -34.5 98t-88.5 38q-69 0 -131.5 -51t-103.5 -141v-31h304z" />
<glyph unicode="&#x638;" horiz-adv-x="835" arabic-form="initial" d="M518 545q-30 0 -48 18t-18 49q0 29 18 47t48 18t47.5 -17.5t17.5 -47.5q0 -67 -65 -67zM286 356q103 105 235 105q119 0 189 -82q60 -69 60 -171v-24q0 -94 -54 -143q-45 -41 -120 -41h-626v121h179q4 14 11 31v426l126 67v-289zM645 189v19q0 60 -34.5 98t-88.5 38 q-70 0 -132.5 -51.5t-103.5 -142.5v-29h305q33 0 43.5 13t10.5 55z" />
<glyph unicode="&#x638;" horiz-adv-x="901" arabic-form="medial" d="M518 545q-30 0 -48 18t-18 49q0 29 18 47t48 18t47.5 -17.5t17.5 -47.5q0 -67 -65 -67zM841 121h90v-121h-102q-72 0 -118 37q-46 -37 -115 -37h-626v121h179l12 34v423l126 67v-288q102 104 234 104q119 0 189 -82q60 -69 60 -171v-21q0 -66 71 -66zM591 121 q33 0 43.5 13t10.5 55v19q0 60 -34.5 98t-88.5 38q-69 0 -131.5 -51t-103.5 -141v-31h304z" />
<glyph unicode="&#x639;" horiz-adv-x="685" arabic-form="final" d="M523 -319q-86 -56 -193 -56q-118 0 -191 74q-67 68 -67 173q0 73 37.5 127t122.5 103q-58 35 -141 134q-11 13 -17 21v57q45 67 114.5 107t141.5 40t142 -40.5t116 -108.5v-55q-62 -74 -153 -131q34 -5 62 -5h217l1 -121h-289q-55 0 -100 26q-72 -33 -102.5 -69 t-30.5 -86q0 -57 39.5 -91t106.5 -34q98 0 184 54v-119zM329 169q75 59 111 119q-60 56 -112 56q-51 0 -107 -56q40 -69 108 -119z" />
<glyph unicode="&#x639;" horiz-adv-x="574" arabic-form="initial" d="M524 121v-121h-554v121h148q-28 55 -28 122q0 106 74 168q60 50 139 50q107 0 173 -92v-111q-73 86 -159 86q-46 0 -73.5 -28.5t-27.5 -76.5q0 -55 34.5 -86.5t94.5 -31.5h179z" />
<glyph unicode="&#x639;" horiz-adv-x="708" arabic-form="medial" d="M461 121h275l2 -121h-289q-51 0 -96 25q-47 -25 -96 -25h-287v121h272q-45 31 -75 59q-17 15 -52 56q-11 13 -18 21v57q44 67 113.5 107t142.5 40q72 0 142 -40.5t116 -108.5v-55q-67 -81 -150 -136zM352 169q75 59 111 119q-60 56 -113 56q-51 0 -106 -56 q39 -69 108 -119z" />
<glyph unicode="&#x63a;" horiz-adv-x="685" arabic-form="final" d="M335 544q-30 0 -48 18t-18 49q0 29 18 47t48 18t47.5 -17.5t17.5 -47.5q0 -67 -65 -67zM523 -319q-86 -56 -193 -56q-118 0 -191 74q-67 68 -67 173q0 73 37.5 127t122.5 103q-58 35 -141 134q-11 13 -17 21v57q45 67 114.5 107t141.5 40t142 -40.5t116 -108.5v-55 q-62 -74 -153 -131q34 -5 62 -5h217l1 -121h-289q-55 0 -100 26q-72 -33 -102.5 -69t-30.5 -86q0 -57 39.5 -91t106.5 -34q98 0 184 54v-119zM329 169q75 59 111 119q-60 56 -112 56q-51 0 -107 -56q40 -69 108 -119z" />
<glyph unicode="&#x63a;" horiz-adv-x="574" arabic-form="initial" d="M302 545q-30 0 -48 18t-18 49q0 29 18 47t48 18t47.5 -17.5t17.5 -47.5q0 -67 -65 -67zM524 121v-121h-554v121h148q-28 55 -28 122q0 106 74 168q60 50 139 50q107 0 173 -92v-111q-73 86 -159 86q-46 0 -73.5 -28.5t-27.5 -76.5q0 -55 34.5 -86.5t94.5 -31.5h179z" />
<glyph unicode="&#x63a;" horiz-adv-x="708" arabic-form="medial" d="M351 545q-30 0 -48 18t-18 49q0 29 18 47t48 18t47.5 -17.5t17.5 -47.5q0 -67 -65 -67zM461 121h275l2 -121h-289q-51 0 -96 25q-47 -25 -96 -25h-287v121h272q-45 31 -75 59q-17 15 -52 56q-11 13 -18 21v57q44 67 113.5 107t142.5 40q72 0 142 -40.5t116 -108.5v-55 q-67 -81 -150 -136zM352 169q75 59 111 119q-60 56 -113 56q-51 0 -106 -56q39 -69 108 -119z" />
<glyph unicode="&#x641;" horiz-adv-x="999" arabic-form="final" d="M721 532q-30 0 -48 18t-18 49q0 29 18 47t48 18t47.5 -17.5t17.5 -47.5q0 -67 -65 -67zM874 121h155v-121h-235q-49 0 -80 7q-29 -7 -80 -7h-368q-85 0 -133 57q-43 50 -43 129v102l125 66v-160q0 -40 16.5 -56.5t54.5 -16.5h269q-38 61 -38 124q0 100 58 161 q54 55 139 55q98 0 153 -71q45 -59 45 -145q0 -63 -38 -124zM714 132q34 15 55 48.5t21 71.5q0 92 -76 92t-76 -91q0 -38 21 -71.5t55 -49.5z" />
<glyph unicode="&#x641;" horiz-adv-x="563" arabic-form="initial" d="M300 533q-30 0 -48 18t-18 49q0 29 18 47t48 18t47.5 -17.5t17.5 -47.5q0 -67 -65 -67zM-30 0v121h161q-31 43 -31 110q0 110 60 174q54 56 141 56q89 0 138 -57q44 -49 44 -128v-90q-1 -86 -51 -136q-49 -50 -133 -50h-329zM357 278q0 66 -56 66q-77 0 -77 -109 q0 -114 74 -114q59 0 59 64v93z" />
<glyph unicode="&#x641;" horiz-adv-x="575" arabic-form="medial" d="M287 532q-30 0 -48 18t-18 49q0 29 18 47t48 18t47.5 -17.5t17.5 -47.5q0 -67 -65 -67zM447 121h158v-121h-237q-51 0 -80 7q-31 -7 -80 -7h-238v121h158q-38 61 -38 124q0 100 59 161q53 55 139 55q98 0 152 -71q45 -58 45 -145q0 -63 -38 -124zM287 132 q34 16 55.5 49.5t21.5 70.5q0 43 -20.5 67.5t-55.5 24.5q-76 0 -76 -91q0 -39 21 -72.5t54 -48.5z" />
<glyph unicode="&#x642;" horiz-adv-x="791" arabic-form="final" d="M427 532q-30 0 -48 18t-18 49q0 65 66 65q30 0 47.5 -17.5t17.5 -47.5q0 -67 -65 -67zM581 532q-30 0 -48 18t-18 49q0 65 66 65q30 0 47.5 -17.5t17.5 -47.5q0 -67 -65 -67zM692 0q-20 -97 -106 -146q-79 -44 -204 -44q-166 0 -250 95q-62 71 -62 174q0 79 37 138 l120 25q-40 -68 -40 -143q0 -79 50 -123q50 -45 145 -45q145 0 175 74l-18 2q-114 12 -172 79q-50 57 -50 145q0 110 60 174q53 56 140 56q89 0 139 -57q43 -49 43 -128v-155h122v-121h-129zM573 123v155q0 66 -56 66q-36 0 -56.5 -29t-20.5 -80q0 -99 106 -108z" />
<glyph unicode="&#x642;" horiz-adv-x="563" arabic-form="initial" d="M225 532q-30 0 -48 18t-18 49q0 65 66 65q30 0 47.5 -17.5t17.5 -47.5q0 -67 -65 -67zM379 532q-30 0 -48 18t-18 49q0 65 66 65q30 0 47.5 -17.5t17.5 -47.5q0 -67 -65 -67zM-30 0v121h160q-30 44 -30 110q0 110 60 174q54 56 141 56q89 0 138 -57q44 -49 44 -128v-90 q-1 -86 -51 -136q-49 -50 -133 -50h-329zM357 278q0 66 -56 66q-77 0 -77 -109q0 -114 74 -114q59 0 59 64v93z" />
<glyph unicode="&#x642;" horiz-adv-x="575" arabic-form="medial" d="M211 532q-30 0 -48 18t-18 49q0 65 66 65q30 0 47.5 -17.5t17.5 -47.5q0 -67 -65 -67zM365 532q-30 0 -48 18t-18 49q0 65 66 65q30 0 47.5 -17.5t17.5 -47.5q0 -67 -65 -67zM447 121h158v-121h-237q-51 0 -80 7q-31 -7 -80 -7h-238v121h158q-38 61 -38 124q0 100 59 161 q53 55 139 55q98 0 152 -71q45 -58 45 -145q0 -63 -38 -124zM287 132q34 16 55.5 49.5t21.5 70.5q0 43 -20.5 67.5t-55.5 24.5q-76 0 -76 -91q0 -39 21 -72.5t54 -48.5z" />
<glyph unicode="&#x643;" horiz-adv-x="938" arabic-form="final" d="M878 121h90v-121h-102q-74 0 -121 39q-48 -39 -122 -39h-357q-85 0 -133 57q-43 50 -43 129v102l125 66v-160q0 -40 16.5 -56.5t54.5 -16.5h326q38 0 54 17t16 56v385l125 66v-452q0 -39 16.5 -55.5t54.5 -16.5zM475 500q72 -12 72 -85q0 -82 -79 -82h-148l31 58h111 q27 0 27 27q0 34 -45 34q-30 0 -56 -16v50l86 95h73z" />
<glyph unicode="&#x643;" horiz-adv-x="499" arabic-form="initial" d="M205 441q75 -6 132 -45q102 -69 102 -199v-13q0 -90 -56 -141q-49 -43 -127 -43h-286v121h273q70 0 70 69v6q0 54 -41.5 88t-108.5 34q-50 0 -106 -20v121l203 226h127z" />
<glyph unicode="&#x643;" horiz-adv-x="559" arabic-form="medial" d="M510 121h79v-121h-92q-73 0 -120 39q-48 -39 -121 -39h-286v121h273q70 0 70 69v6q0 55 -41 88.5t-108 33.5q-51 0 -107 -20v121l203 226h127l-182 -204q79 -8 134 -47q100 -68 100 -197v-4q0 -39 16.5 -55.5t54.5 -16.5z" />
<glyph unicode="&#x644;" horiz-adv-x="778" arabic-form="final" d="M704 121h104v-121h-116q-30 0 -66 15q-22 -99 -103 -156q-73 -50 -173 -50q-142 0 -220 94q-60 72 -60 171q0 78 36 138l124 28q-41 -65 -41 -149q0 -74 43.5 -117.5t117.5 -43.5q73 0 116 41t43 112v495l125 67v-452q0 -39 16 -55.5t54 -16.5z" />
<glyph unicode="&#x644;" horiz-adv-x="333" arabic-form="initial" d="M-30 0v121h63q46 0 65.5 20t19.5 68v369l125 67v-437q0 -97 -59 -155q-54 -53 -144 -53h-70z" />
<glyph unicode="&#x644;" horiz-adv-x="374" arabic-form="medial" d="M314 121h90v-121h-102q-78 0 -127 44q-55 -44 -135 -44h-70v121h63q46 0 65.5 20t19.5 68v369l125 67v-202l1 1v-251q0 -39 16 -55.5t54 -16.5z" />
<glyph unicode="&#x645;" horiz-adv-x="673" arabic-form="final" d="M614 121h89v-121h-102q-68 0 -116 35q-51 -35 -130 -35h-139q-38 0 -54 -16.5t-16 -55.5v-177l-126 -66v249q0 79 43.5 129t117.5 57q-20 49 -20 111q0 110 60 174q53 56 140 56q89 0 139 -57q43 -49 43 -128v-83q0 -39 16.5 -55.5t54.5 -16.5zM417 177v101q0 66 -56 66 q-36 0 -56.5 -29t-20.5 -80q0 -114 75 -114q58 0 58 56z" />
<glyph unicode="&#x645;" horiz-adv-x="588" arabic-form="initial" d="M130 276q0 90 56 141q49 44 126 44q99 0 154 -73q47 -61 47 -157q0 -111 -59 -175q-53 -56 -135 -56q-80 0 -131 35q-48 -35 -116 -35h-102v121h90q38 0 54 16.5t16 55.5v83zM256 177q0 -56 59 -56q74 0 74 114q0 109 -77 109q-56 0 -56 -66v-101z" />
<glyph unicode="&#x645;" horiz-adv-x="665" arabic-form="medial" d="M606 121h89v-121h-102q-72 0 -118 37q-54 -57 -142 -57q-90 0 -142 57q-48 -37 -119 -37h-102v121h90q38 0 54 16.5t16 55.5v29q0 117 61 182q53 57 142 57q101 0 156 -74q46 -63 46 -165v-29q0 -39 16.5 -55.5t54.5 -16.5zM333 101q76 0 76 124q0 119 -76 119 q-77 0 -77 -119q0 -124 77 -124z" />
<glyph unicode="&#x646;" horiz-adv-x="739" arabic-form="final" d="M330 437q-30 0 -48 18t-18 49q0 29 18 47t48 18t47.5 -17.5t17.5 -47.5q0 -67 -65 -67zM679 121h90v-121h-102q-34 0 -63 9q-19 -96 -97 -151q-70 -48 -170 -48q-135 0 -209 95q-58 74 -58 174q0 79 37 138l120 25q-40 -68 -40 -143q0 -76 43 -123q41 -45 107 -45 q69 0 107.5 35t38.5 98v314l126 66v-251q0 -39 16 -55.5t54 -16.5z" />
<glyph unicode="&#x646;" horiz-adv-x="346" arabic-form="initial" d="M196 545q-30 0 -48 18t-18 49q0 29 18 47t48 18t47.5 -17.5t17.5 -47.5q0 -67 -65 -67zM-30 0v121h90q38 0 54 16.5t16 55.5v185l126 66v-257q0 -91 -56 -142q-49 -45 -128 -45h-102z" />
<glyph unicode="&#x646;" horiz-adv-x="386" arabic-form="medial" d="M166 545q-30 0 -48 18t-18 49q0 29 18 47t48 18t47.5 -17.5t17.5 -47.5q0 -67 -65 -67zM326 121h90v-121h-102q-73 0 -121 39q-48 -39 -121 -39h-102v121h90q38 0 54 16.5t16 55.5v185l126 66v-251q0 -39 16 -55.5t54 -16.5z" />
<glyph unicode="&#x647;" horiz-adv-x="543" arabic-form="final" d="M483 121h90v-121h-102q-93 0 -144 62q-43 -33 -105 -33q-92 0 -147 69q-45 57 -45 137q0 99 64 161q54 52 125 52q37 0 68 -14v26l125 66v-333q0 -39 16.5 -55.5t54.5 -16.5zM287 308q-26 22 -59 22t-53.5 -27t-20.5 -71t20 -70t55 -26q38 0 59 26q-1 8 -1 25v121z" />
<glyph unicode="&#x647;" horiz-adv-x="647" arabic-form="initial" d="M88 306q25 84 89.5 132t149.5 48q114 0 187 -75q68 -70 68 -181v-44q0 -91 -57 -142q-50 -44 -130 -44h-126q-34 0 -64 10q-31 -10 -64 -10h-171v121h102q-17 37 -17 81q0 62 33 104zM457 194v36q0 63 -36.5 101t-96.5 38q-41 0 -71 -18q47 -14 74.5 -54t27.5 -95 q0 -44 -17 -81h55q37 0 50.5 15.5t13.5 57.5zM205 130q64 21 64 83q0 31 -17.5 49.5t-46.5 18.5t-46.5 -18.5t-17.5 -49.5q0 -62 64 -83z" />
<glyph unicode="&#x647;" horiz-adv-x="713" arabic-form="medial" d="M653 121h90v-121h-102q-74 0 -122 40q-48 -40 -124 -40h-126q-34 0 -64 10q-31 -10 -64 -10h-171v121h102q-17 37 -17 81q0 62 33 104q25 84 89.5 132t149.5 48q114 0 187 -75q68 -70 68 -181v-37q0 -39 16.5 -55.5t54.5 -16.5zM393 121q37 0 50.5 15.5t13.5 57.5v36 q0 63 -36.5 101t-96.5 38q-41 0 -71 -18q47 -14 74.5 -54t27.5 -95q0 -44 -17 -81h55zM205 130q64 21 64 83q0 31 -17.5 49.5t-46.5 18.5t-46.5 -18.5t-17.5 -49.5q0 -62 64 -83z" />
<glyph unicode="&#x648;" horiz-adv-x="535" arabic-form="final" d="M565 121v-121h-123q-7 -90 -80 -144q-60 -44 -140 -44q-63 0 -123 34v109q54 -31 108 -31q42 0 74.5 23t35.5 55q-8 1 -25 2q-17 2 -26 3q-103 11 -159 81q-47 59 -47 143q0 110 60 174q53 56 140 56q89 0 139 -57q43 -49 43 -128v-155h123zM317 278q0 66 -57 66 q-76 0 -76 -109q0 -97 88 -108q14 -3 45 -5v156z" />
<glyph unicode="&#x649;" horiz-adv-x="675" arabic-form="final" d="M693 0q-12 -92 -104 -144q-83 -46 -207 -46q-166 0 -250 95q-62 71 -62 174q0 79 37 138l120 25q-40 -68 -40 -143q0 -84 50 -129q50 -46 145 -46q148 0 180 76h-96l63 121h167v-121h-3z" />
<glyph unicode="&#x64a;" horiz-adv-x="675" arabic-form="final" d="M693 0q-12 -92 -104 -144q-83 -46 -207 -46q-166 0 -250 95q-62 71 -62 174q0 79 37 138l120 25q-40 -68 -40 -143q0 -84 50 -129q50 -46 145 -46q148 0 180 76h-96l63 121h167v-121h-3zM315 -411q-30 0 -48 18.5t-18 48.5q0 29 18 47t48 18t47.5 -17.5t17.5 -47.5 q0 -67 -65 -67zM469 -411q-30 0 -48 18t-18 49q0 65 66 65q30 0 47.5 -17.5t17.5 -47.5q0 -67 -65 -67z" />
<glyph unicode="&#x64a;" horiz-adv-x="346" arabic-form="initial" d="M-30 0v121h90q38 0 54 16.5t16 55.5v185l126 66v-257q0 -91 -56 -142q-49 -45 -128 -45h-102zM24 -223q-30 0 -48 18t-18 49q0 65 66 65q30 0 47.5 -17.5t17.5 -47.5q0 -67 -65 -67zM178 -223q-30 0 -48 18t-18 49q0 65 66 65q30 0 47.5 -17.5t17.5 -47.5q0 -67 -65 -67z " />
<glyph unicode="&#x64a;" horiz-adv-x="386" arabic-form="medial" d="M326 121h90v-121h-102q-73 0 -121 39q-48 -39 -121 -39h-102v121h90q38 0 54 16.5t16 55.5v185l126 66v-251q0 -39 16 -55.5t54 -16.5zM67 -91q30 0 47.5 -17.5t17.5 -47.5q0 -67 -65 -67q-30 0 -48 18t-18 49q0 65 66 65zM221 -91q30 0 47.5 -17.5t17.5 -47.5 q0 -67 -65 -67q-30 0 -48 18t-18 49q0 65 66 65z" />
<glyph />
<glyph horiz-adv-x="240" />
<glyph unicode=" "  horiz-adv-x="240" />
<glyph unicode="&#x09;" horiz-adv-x="240" />
<glyph unicode="&#xa0;" horiz-adv-x="240" />
<glyph unicode="!" horiz-adv-x="280" d="M74 177v456h126v-456h-126zM215 52v-2q0 -32 -20 -52t-53 -20q-34 0 -54.5 20.5t-20.5 54.5v2q2 31 22.5 50t52.5 19q33 0 53 -20t20 -52z" />
<glyph unicode="&#x22;" horiz-adv-x="356" d="M70 433v163l90 49v-163zM195 433v163l91 49v-163z" />
<glyph unicode="#" horiz-adv-x="477" d="M329 131l-29 -131h-86l30 131h-88l-28 -131h-87q13 63 29 131h-65v101h84l27 119h-81v100h104l33 158h86l-33 -158h85l36 158h85l-34 -158h75v-100h-97l-27 -119h91v-101h-110zM202 351l-26 -119h86l28 119h-88z" />
<glyph unicode="$" horiz-adv-x="567" d="M298 700v-56q95 -3 185 -63l-56 -81q-74 31 -129 33v-141q201 -77 201 -211q0 -95 -65 -147q-53 -43 -136 -45v-63h-49v63q-87 9 -185 70q10 15 32 44q17 22 26 35q10 -8 58 -20t69 -12v178q-94 37 -133.5 80.5t-39.5 108.5q0 70 46.5 115t126.5 54v58h49zM298 107 q62 5 62 68q0 53 -62 85v-153zM249 532q-37 -15 -37 -59q0 -36 37 -60v119z" />
<glyph unicode="%" horiz-adv-x="781" d="M193 0l303 589h98l-303 -589h-98zM305 429q0 -75 -34 -120t-91 -45q-60 0 -94 43.5t-34 120.5q0 73 34.5 115t93.5 42q55 0 90 -43.5t35 -112.5zM232 427q0 39 -15.5 65.5t-38.5 26.5t-38.5 -26t-15.5 -66q0 -43 15 -70.5t39 -27.5t39 27.5t15 70.5zM729 162 q0 -75 -34 -120t-91 -45q-60 0 -94 44t-34 120q0 73 34.5 115.5t93.5 42.5q55 0 90 -44t35 -113zM655 160q0 39 -15 65.5t-38 26.5q-24 0 -39 -25.5t-15 -66.5q0 -43 15 -70.5t39 -27.5q23 0 38 27.5t15 70.5z" />
<glyph unicode="&#x26;" horiz-adv-x="593" d="M369 329h126v-39q0 -93 -50 -170q46 -52 110 -120h-144q-6 6 -14 17q-10 12 -17 19q-52 -48 -152 -48q-98 0 -150 62q-40 47 -40 114q0 103 92 178q-72 72 -72 145t45 115.5t123 42.5q79 0 164 -64q-11 -16 -37 -55q-8 -13 -13 -20q-57 30 -109 30q-29 0 -47 -15t-18 -39 q0 -31 36 -74q6 -7 10 -12q19 -23 51 -63q62 -78 94 -115q12 19 12 74v37zM192 265q-25 -29 -25 -82q0 -82 74 -82q42 0 63 25q-17 23 -53 66q-41 48 -59 73z" />
<glyph unicode="'" horiz-adv-x="230" d="M70 433v163l90 49v-163z" />
<glyph unicode="(" horiz-adv-x="311" d="M296 645q-62 -78 -100.5 -184.5t-38.5 -200.5q0 -154 70 -299q18 -37 39.5 -69t28.5 -32h-110q-8 0 -36.5 40.5t-46.5 76.5q-64 129 -64 283q0 103 41 210t106 175h111z" />
<glyph unicode=")" horiz-adv-x="311" d="M36 -140q9 0 35 42t46 88q57 133 57 270q0 94 -38.5 200.5t-100.5 184.5h111q65 -68 106 -175t41 -210q0 -171 -78 -310q-17 -29 -40 -59.5t-29 -30.5h-110z" />
<glyph unicode="*" horiz-adv-x="300" d="M135 542v104q23 -5 64 -16l12 -3q15 -4 23 -6q-7 -11 -22 -37q-22 -38 -35 -58l106 40l10 -112q-10 2 -30 7q-53 14 -80 19q12 -16 40 -50q17 -22 27 -34q-17 -6 -56 -23q-30 -13 -46 -19q-2 26 -4 73l-1 7q0 17 -1 27q-6 -8 -18 -25l-3 -4q-27 -35 -42 -57l-66 83 q20 9 64 27l10 3q17 7 26 11l-39 13q-45 14 -67 22l61 89q9 -11 27 -32q27 -33 40 -49z" />
<glyph unicode="+" horiz-adv-x="498" d="M190 176h-158v100h158v178h117v-178h159v-100h-159v-176h-117v176z" />
<glyph unicode="," horiz-adv-x="176" d="M61 -105l-32 59q44 17 44 46q-48 0 -48 57q0 29 19.5 48t50.5 19t51 -24.5t20 -61.5q0 -53 -29.5 -93t-75.5 -50z" />
<glyph unicode="-" horiz-adv-x="298" d="M283 188h-268v100h268v-100z" />
<glyph unicode="." horiz-adv-x="328" d="M239 69v-2q0 -32 -20 -52t-53 -20q-34 0 -54.5 20.5t-20.5 54.5v2q2 31 22.5 50t52.5 19q33 0 53 -20t20 -52z" />
<glyph unicode="/" horiz-adv-x="307" d="M377 633l-313 -663h-99l311 663h101z" />
<glyph unicode="0" horiz-adv-x="563" d="M280 645q116 0 186 -111q59 -92 59 -219q0 -153 -75 -245q-66 -82 -170 -82q-119 0 -186 106q-56 88 -56 221q0 148 74 243q67 87 168 87zM282 533q-108 0 -108 -212q0 -107 31 -168q28 -55 74 -55q51 0 80.5 59.5t29.5 163.5q0 212 -107 212z" />
<glyph unicode="1" horiz-adv-x="369" d="M289 633v-633h-131v484q-14 -9 -41 -25q-39 -23 -56 -35q-13 22 -44 73l-6 9q-7 13 -11 19q32 23 101 69q36 24 57 39h131z" />
<glyph unicode="2" horiz-adv-x="466" d="M40 0v111q24 27 64 73q63 70 93 106q67 80 84 109.5t17 65.5q0 30 -22 50t-56 20q-59 0 -130 -48l-55 80q100 79 209 79q87 0 139 -47q51 -46 51 -127q0 -60 -39.5 -125.5t-153.5 -194.5q-28 -32 -41 -47h227v-105h-387z" />
<glyph unicode="3" horiz-adv-x="503" d="M227 283h-95v106h95q40 0 55 11q23 17 23 61q0 34 -20 54.5t-54 20.5q-61 0 -127 -56l-48 84q83 81 188 81q88 0 144 -49q54 -48 54 -124q0 -94 -78 -126q101 -39 101 -150q0 -117 -80 -170q-56 -37 -140 -37q-46 0 -104.5 24.5t-95.5 59.5l53 79q54 -49 138 -49 q43 0 68 24.5t25 66.5q0 89 -102 89z" />
<glyph unicode="4" horiz-adv-x="563" d="M32 228q135 206 266 405h129v-405h104v-105h-104v-123h-130v123h-265v105zM145 228h152v237z" />
<glyph unicode="5" horiz-adv-x="497" d="M418 528h-221v-128q12 5 33 5q110 0 171 -55q58 -53 58 -145q0 -97 -72 -161q-63 -56 -153 -56q-120 0 -209 87l54 83q73 -55 141 -55q105 0 105 94q0 105 -135 105q-47 0 -123 -17v348h351v-105z" />
<glyph unicode="6" horiz-adv-x="518" d="M172 383q34 31 101 31q90 0 144 -52q56 -54 56 -157q0 -87 -57 -151q-59 -66 -159 -66q-131 0 -185 115q-34 73 -34 185q0 357 243 357q46 0 93.5 -17.5t75.5 -44.5l-45 -82q-66 32 -120 32q-51 0 -82 -41t-31 -109zM171 290q5 -104 17 -142q19 -58 67 -58q33 0 57 34 t24 81q0 115 -92 115q-43 0 -73 -30z" />
<glyph unicode="7" horiz-adv-x="421" d="M264 528h-232v105h374v-100l-230 -533h-138z" />
<glyph unicode="8" horiz-adv-x="528" d="M359 322q131 -35 131 -162q0 -87 -74 -134q-61 -38 -151 -38q-105 0 -168 50q-59 46 -59 123q0 72 51 120q38 36 85 42q-109 33 -109 139q0 90 70 141q56 42 137 42q92 0 151 -56q55 -53 55 -134q0 -47 -33.5 -84t-85.5 -49zM270 368q34 10 56 37.5t22 58.5 q0 36 -20.5 58t-52.5 22q-37 0 -59.5 -22.5t-22.5 -59.5q0 -68 77 -94zM273 278q-45 -11 -72 -40.5t-27 -67.5q0 -35 26 -57.5t66 -22.5q38 0 62.5 21.5t24.5 55.5q0 38 -22.5 69t-57.5 42z" />
<glyph unicode="9" horiz-adv-x="518" d="M366 250q-34 -31 -101 -31q-90 0 -144 52q-56 54 -56 157q0 87 57 151q59 66 159 66q131 0 185 -115q34 -73 34 -185q0 -357 -243 -357q-46 0 -93.5 17.5t-75.5 44.5l45 82q66 -32 120 -32q51 0 82 41t31 109zM367 343q-5 104 -17 142q-19 58 -67 58q-33 0 -57 -34 t-24 -81q0 -115 92 -115q43 0 73 30z" />
<glyph unicode=":" horiz-adv-x="288" d="M239 309v-2q0 -32 -20 -52t-53 -20q-34 0 -54.5 20.5t-20.5 54.5v2q2 31 22.5 50t52.5 19q33 0 53 -20t20 -52zM239 69v-2q0 -32 -20 -52t-53 -20q-34 0 -54.5 20.5t-20.5 54.5v2q2 31 22.5 50t52.5 19q33 0 53 -20t20 -52z" />
<glyph unicode=";" horiz-adv-x="199" d="M25 309q0 28 20 48.5t48 20.5t48 -20.5t20 -48.5q0 -29 -19.5 -48t-48.5 -19t-48.5 19t-19.5 48zM64 -105l-32 59q44 17 44 46q-48 0 -48 57q0 29 19.5 48t50.5 19t51 -24.5t20 -61.5q0 -53 -29.5 -93t-75.5 -50z" />
<glyph unicode="&#x3c;" horiz-adv-x="497" d="M483 -15l-451 177v147l451 170v-103l-367 -140l367 -146v-105z" />
<glyph unicode="=" horiz-adv-x="516" d="M484 257h-452v100h452v-100zM484 97h-452v101h452v-101z" />
<glyph unicode="&#x3e;" horiz-adv-x="497" d="M485 162l-451 -177v105l367 146l-367 140v103l451 -170v-147z" />
<glyph unicode="?" horiz-adv-x="397" d="M231 152h-123v75q0 55 12 78.5t57 58.5q70 53 70 115q0 29 -22 49.5t-53 20.5q-48 0 -93 -39l-47 70q70 65 169 65q84 0 129 -58q35 -44 35 -103q0 -91 -74 -165q-6 -6 -16 -15q-44 -39 -44 -85v-67zM99 55q0 29 20 49t48 20t48 -20t20 -49q0 -28 -19.5 -47.5 t-48.5 -19.5t-48.5 19.5t-19.5 47.5z" />
<glyph unicode="@" horiz-adv-x="696" d="M491 119q0 -45 18 -45q47 0 47 107q0 100 -75 156q-56 43 -126 43q-100 0 -158 -67q-53 -61 -53 -160q0 -138 98 -201q65 -42 154 -42q15 0 31 2l3 -84q-39 -3 -64 -3q-145 0 -240 96q-88 90 -88 229q0 153 104 242q87 74 213 74q131 0 220 -85q83 -80 83 -200 q0 -77 -37 -131q-43 -62 -120 -62q-40 0 -65.5 15.5t-27.5 41.5q-22 -33 -42.5 -45t-57.5 -12q-53 0 -89.5 41.5t-36.5 100.5q0 86 56 137q43 39 98 39q35 0 52 -14l10 15h93v-188zM376 218q-14 7 -35 7q-43 0 -43 -78q0 -70 39 -70q22 0 30.5 13t8.5 48v80z" />
<glyph unicode="A" horiz-adv-x="586" d="M238 633h110l233 -633h-133q-17 50 -42 132h-227q-14 -45 -43 -132h-131zM294 462q-28 -79 -77 -222h152q-47 138 -75 222z" />
<glyph unicode="B" horiz-adv-x="555" d="M80 1v631q76 13 184 13q125 0 186 -59q48 -47 48 -124q0 -47 -39 -85.5t-87 -38.5v-1q66 -7 104.5 -51t38.5 -111q0 -94 -79 -144q-69 -43 -184 -43q-100 0 -172 13zM211 533v-146h74q84 0 84 71q0 79 -102 81h-3q-25 0 -53 -6zM211 282v-183q25 -8 71 -8q97 0 97 85 q0 106 -100 106h-68z" />
<glyph unicode="C" horiz-adv-x="572" d="M532 71q-83 -83 -195 -83q-161 0 -240 120q-57 86 -57 202q0 151 78 243q77 92 214 92q96 0 192 -81l-51 -83q-72 52 -131 52q-82 0 -127 -69q-39 -59 -39 -154q0 -84 46 -144q49 -63 131 -63q54 0 128 47z" />
<glyph unicode="D" horiz-adv-x="631" d="M80 632q49 13 173 13q171 0 261 -100q77 -85 77 -222q0 -171 -98 -257q-89 -78 -248 -78q-100 0 -165 13v631zM211 96q20 -5 50 -5q193 0 193 228q0 113 -64 173q-52 48 -132 48q-23 0 -47 -5v-439z" />
<glyph unicode="E" horiz-adv-x="506" d="M64 633h414v-105h-283v-149h236v-105h-236v-169h296v-105h-427v633z" />
<glyph unicode="F" horiz-adv-x="493" d="M64 0v633h414v-105h-283v-150h236v-105h-236v-273h-131z" />
<glyph unicode="G" horiz-adv-x="574" d="M548 53q-117 -65 -227 -65q-150 0 -225 117q-56 86 -56 210q0 145 84 240q79 90 201 90q112 0 199 -81l-51 -83q-72 52 -140 52t-112.5 -63t-44.5 -159q0 -102 57 -162q47 -50 114 -50q42 0 77 13v131h-113v114h237v-304z" />
<glyph unicode="H" horiz-adv-x="692" d="M209 0h-129v633h129v-254h272v254h131v-633h-131v274h-272v-274z" />
<glyph unicode="I" horiz-adv-x="289" d="M209 633v-633h-129v633h129z" />
<glyph unicode="J" horiz-adv-x="269" d="M189 633v-658q0 -143 -137 -143q-80 0 -147 51l44 72q40 -26 77 -26q34 0 34 53v651h129z" />
<glyph unicode="K" horiz-adv-x="596" d="M204 633v-261q132 179 192 261h161q-103 -135 -228 -298q131 -157 275 -335h-174q-92 123 -223 296h-3v-296h-124v633h124z" />
<glyph unicode="L" horiz-adv-x="463" d="M80 0v633h131v-528h237v-105h-368z" />
<glyph unicode="M" horiz-adv-x="837" d="M417 150q56 205 150 483h190v-633h-132v514q-47 -203 -154 -514h-109q-113 343 -153 509v-509h-129v633h182q94 -256 155 -483z" />
<glyph unicode="N" horiz-adv-x="718" d="M209 424v-424h-129v633h109q160 -208 318 -437v437h131v-633h-112q-94 111 -317 424z" />
<glyph unicode="O" horiz-adv-x="654" d="M327 645q146 0 225 -116q62 -91 62 -220q0 -148 -81 -237q-77 -84 -206 -84q-148 0 -225 108q-62 85 -62 213q0 150 81 245q77 91 206 91zM327 98q72 0 111 54.5t39 156.5q0 109 -43 170q-40 54 -107 54q-72 0 -111.5 -59t-39.5 -165q0 -211 151 -211z" />
<glyph unicode="P" horiz-adv-x="540" d="M80 0v632q14 3 79 8t99 5q242 0 242 -198q0 -123 -84 -180q-56 -39 -132 -39q-60 0 -73 8v-236h-131zM211 533v-191q26 -10 65 -10q40 0 63 28.5t23 78.5q0 101 -89 101q-51 0 -62 -7z" />
<glyph unicode="Q" horiz-adv-x="654" d="M379 -8q-28 -4 -52 -4q-147 0 -225 106q-62 85 -62 211q0 157 84 252q77 88 203 88q146 0 225 -118q62 -92 62 -222q0 -186 -123 -273q58 -65 127 -139h-153zM327 98q150 0 150 207q0 112 -43 173q-40 55 -107 55q-72 0 -111.5 -60t-39.5 -168q0 -207 151 -207z" />
<glyph unicode="R" horiz-adv-x="525" d="M80 0v632q14 3 79 8t99 5q242 0 242 -198q0 -107 -87 -182q36 -83 123 -265h-132q-49 107 -106 230q-11 -2 -30 -2q-44 0 -57 8v-236h-131zM211 533v-191q30 -9 65 -9q86 0 86 114q0 93 -89 93q-51 0 -62 -7z" />
<glyph unicode="S" horiz-adv-x="536" d="M472 581q-18 -27 -56 -81q-80 35 -143 35q-83 0 -83 -62q0 -28 19 -44t79 -39q108 -42 155.5 -91t47.5 -118q0 -97 -73 -150q-60 -43 -149 -43q-105 0 -224 76l58 81q58 -39 149 -39q103 0 103 83q0 54 -111 92q-179 60 -179 192q0 80 60 127q56 45 149 45q106 0 198 -64 z" />
<glyph unicode="T" horiz-adv-x="542" d="M198 528h-183v105h512v-105h-197v-528h-132v528z" />
<glyph unicode="U" horiz-adv-x="648" d="M568 266q0 -278 -244 -278t-244 278v367h132v-385q0 -150 112 -150q114 0 114 150v385h130v-367z" />
<glyph unicode="V" horiz-adv-x="569" d="M139 633l146 -422l146 422h135l-231 -633h-100l-230 633h134z" />
<glyph unicode="W" horiz-adv-x="798" d="M467 633q68 -266 110 -422l81 422h135l-157 -633h-108l-130 442l-131 -442h-109l-153 633h134l79 -422q72 262 113 422h136z" />
<glyph unicode="X" horiz-adv-x="609" d="M606 633l-208 -310q110 -176 204 -323h-149l-148 254q-79 -134 -148 -254h-152l216 325l-188 308h152l134 -220q42 67 135 220h152z" />
<glyph unicode="Y" horiz-adv-x="573" d="M5 633h141q70 -142 142 -284l139 284h141l-215 -383v-250h-131v250q-114 200 -217 383z" />
<glyph unicode="Z" horiz-adv-x="484" d="M462 633v-109l-280 -419h287v-105h-454v93q145 213 295 435h-286v105h438z" />
<glyph unicode="[" horiz-adv-x="347" d="M312 -140h-231v785h231v-97h-110v-594h110v-94z" />
<glyph unicode="\" horiz-adv-x="372" d="M313 -30l-313 663h101l311 -663h-99z" />
<glyph unicode="]" horiz-adv-x="348" d="M35 645h232v-785h-232v94h109v594h-109v97z" />
<glyph unicode="^" horiz-adv-x="450" d="M177 609h96l152 -307h-115l-87 158l-74 -158h-124z" />
<glyph unicode="_" horiz-adv-x="404" d="M409 -131h-414v101h414v-101z" />
<glyph unicode="`" horiz-adv-x="226" d="M124 509l-109 146h124l72 -146h-87z" />
<glyph unicode="a" horiz-adv-x="502" d="M434 0h-101l-10 43q-66 -55 -134 -55q-151 0 -151 147q0 73 63 114q64 42 189 42h21v2q0 43 -18 59t-65 16q-66 0 -121 -42q-18 33 -34 65q57 44 99.5 59.5t101.5 15.5q160 0 160 -200v-266zM307 214h-15q-57 0 -92 -20t-35 -53q0 -62 54 -62q33 0 58 19t30 48v68z" />
<glyph unicode="b" horiz-adv-x="561" d="M168 0h-102v574l126 71v-242q21 32 59 50q30 14 66 14q101 0 158 -69q50 -61 50 -162q0 -130 -74 -197q-58 -51 -143 -51q-84 0 -130 57zM192 272v-109q3 -37 30.5 -62t64.5 -25q48 0 76 40t28 110q0 69 -26 109t-72 40q-42 0 -71.5 -30t-29.5 -73z" />
<glyph unicode="c" horiz-adv-x="477" d="M449 58q-71 -70 -168 -70q-116 0 -184 74q-59 65 -59 163q0 110 76 180q66 61 161 61q105 0 169 -66l-38 -68q-51 45 -111 45q-56 0 -92 -43.5t-36 -111.5q0 -63 35.5 -103.5t90.5 -40.5q66 0 113 49z" />
<glyph unicode="d" horiz-adv-x="561" d="M392 0l-18 48q-16 -26 -52 -43t-74 -17q-107 0 -163 71q-47 59 -47 152q0 131 76 202q57 53 137 53q69 0 116 -38v145l126 70v-643h-101zM367 173v127q-7 33 -31.5 54.5t-57.5 21.5q-51 0 -81 -40t-30 -108q0 -149 97 -149q36 0 67 28.5t36 65.5z" />
<glyph unicode="e" horiz-adv-x="526" d="M488 186h-312q4 -46 37.5 -76.5t79.5 -30.5q65 0 136 40l32 -67q-72 -64 -180 -64q-116 0 -181 66q-62 62 -62 171q0 107 70 177q63 64 160 64q108 0 168 -73q52 -62 52 -161v-46zM169 279h193q-5 98 -95 98q-87 0 -98 -98z" />
<glyph unicode="f" horiz-adv-x="385" d="M33 352v102h71v60q0 131 122 131q80 0 149 -54l-46 -66q-40 26 -68 26q-31 0 -31 -50v-47h124v-102h-124v-352h-126v352h-71z" />
<glyph unicode="g" horiz-adv-x="551" d="M356 55q-45 -67 -127 -67q-100 0 -155 71q-47 60 -47 152q0 131 76 202q58 53 137 53q63 0 107 -31q29 -20 29 -30l10 49h97v-407q0 -115 -57 -177q-56 -61 -160 -61q-108 0 -187 72l32 64q61 -40 137 -40q108 0 108 150zM356 300q-4 31 -30.5 53.5t-58.5 22.5 q-50 0 -80 -40t-30 -108q0 -149 98 -149q41 0 71 31.5t30 74.5v115z" />
<glyph unicode="h" horiz-adv-x="551" d="M68 576l126 69v-245q16 31 66 53q33 14 62 14q87 0 126.5 -47.5t39.5 -152.5v-267h-126v262q0 98 -84 98q-61 0 -84 -34v-326h-126v576z" />
<glyph unicode="i" horiz-adv-x="252" d="M190 454v-454h-127v454h127zM48 570q0 32 22.5 55.5t53.5 23.5q33 0 56.5 -23t23.5 -56q0 -35 -22.5 -57t-57.5 -22q-33 0 -54.5 22.5t-21.5 56.5z" />
<glyph unicode="j" horiz-adv-x="263" d="M203 454v-514q0 -69 -30 -100t-96 -31q-83 0 -151 53l42 64q41 -24 77 -24h1q31 0 31 50v502h126zM60 570q0 32 22.5 55.5t53.5 23.5q33 0 56.5 -23t23.5 -56q0 -35 -22.5 -57t-57.5 -22q-33 0 -54.5 22.5t-21.5 56.5z" />
<glyph unicode="k" horiz-adv-x="496" d="M491 454l-215 -183q120 -180 185 -271h-142q-84 144 -127 216v-216h-126v579l126 66v-301q49 39 131 110h168z" />
<glyph unicode="l" horiz-adv-x="262" d="M194 645v-645h-126v579z" />
<glyph unicode="m" horiz-adv-x="886" d="M189 410q56 56 140 56q58 0 102.5 -24.5t61.5 -65.5q22 40 68.5 65t101.5 25q160 0 160 -194v-272h-127v238q0 67 -19.5 94.5t-65.5 27.5q-66 0 -107 -52v-308h-126v252q0 59 -21 83.5t-72 24.5q-30 0 -56.5 -9t-34.5 -22v-329h-126v454h107l9 -44h5z" />
<glyph unicode="n" horiz-adv-x="552" d="M190 410q20 23 60 39.5t76 16.5q86 0 124.5 -47t38.5 -152v-267h-127v262q0 98 -87 98q-22 0 -47 -9.5t-34 -21.5v-329h-126v454h107q5 -26 10 -44h5z" />
<glyph unicode="o" horiz-adv-x="528" d="M264 466q112 0 174 -79q52 -66 52 -161q0 -111 -77 -180q-64 -58 -149 -58q-99 0 -166 74q-60 67 -60 164q0 110 67 178q61 62 159 62zM264 82q97 0 97 144q0 150 -97 150t-97 -150q0 -144 97 -144z" />
<glyph unicode="p" horiz-adv-x="549" d="M163 454l12 -43q42 55 118 55q107 0 167 -72q51 -62 51 -158q0 -126 -76 -194q-60 -54 -147 -54q-26 0 -55 11t-41 25v-202h-124v632h95zM192 277v-116q0 -35 24.5 -60t57.5 -25q45 0 75 43t30 107q0 68 -26.5 108.5t-71.5 40.5q-35 0 -62 -29.5t-27 -68.5z" />
<glyph unicode="q" horiz-adv-x="551" d="M356 -177v224q-5 -20 -42.5 -39.5t-71.5 -19.5q-105 0 -159 73q-45 60 -45 153q0 126 74 196q58 56 141 56q78 0 123 -61l7 49h100v-631h-127zM356 184v111v3q0 28 -25.5 53t-54.5 25q-50 0 -80 -40t-30 -108q0 -149 103 -149q38 0 62.5 28t24.5 72v5z" />
<glyph unicode="r" horiz-adv-x="417" d="M175 454l12 -40q10 21 38.5 36.5t58.5 15.5q90 0 134 -85l-106 -58q-33 38 -70 38q-34 0 -50 -35v-326h-124v454h107z" />
<glyph unicode="s" horiz-adv-x="428" d="M333 344q-49 32 -112 32q-48 0 -48 -41q0 -38 65 -54q81 -20 110 -45q42 -36 42 -108q0 -64 -45.5 -102t-122.5 -38q-109 0 -184 62l46 70q52 -41 125 -41q29 0 47 14t18 37q0 42 -71 55q-152 29 -152 148q0 57 46.5 95t116.5 38q95 0 165 -55z" />
<glyph unicode="t" horiz-adv-x="397" d="M352 353h-130v-225q0 -50 33 -50q30 0 75 26l42 -64q-71 -56 -157 -56q-120 0 -120 132v237h-63v101h64v81q50 27 127 67v-148h129v-101z" />
<glyph unicode="u" horiz-adv-x="538" d="M364 52q-50 -64 -137 -64q-86 0 -122.5 44.5t-36.5 149.5v272h124v-239q0 -68 18 -95.5t62 -27.5q19 0 43 10t29 21v331h126v-454h-94l-11 52h-1z" />
<glyph unicode="v" horiz-adv-x="489" d="M290 0h-98l-177 454h127l97 -300l103 300h132l-19 -47l-22 -54q-93 -230 -143 -353z" />
<glyph unicode="w" horiz-adv-x="716" d="M282 0h-111l-156 454h127l83 -301l67 301h128q15 -72 50 -231l15 -70l86 301h130l-22 -63l-12 -31q-86 -242 -129 -360h-112q-12 46 -30 119q-28 114 -42 169q-12 -46 -33 -133q-26 -107 -39 -155z" />
<glyph unicode="x" horiz-adv-x="479" d="M471 454l-158 -227l161 -227h-138l-93 140l-101 -140h-137q11 13 32 40l16 20q82 104 131 164q-26 41 -89 138q-42 64 -60 92h138l74 -133q19 28 54 82q23 36 33 51h137z" />
<glyph unicode="y" horiz-adv-x="499" d="M484 454q-40 -112 -110 -301q-51 -141 -80 -219q-47 -125 -132 -125q-66 0 -136 57q20 34 34 60q37 -24 65 -24q41 0 73 98h-24l-159 454h125q11 -33 34 -103l6 -16q43 -130 62 -191l116 310h126z" />
<glyph unicode="z" horiz-adv-x="423" d="M408 0h-393v103l235 250h-221v101h373v-104l-238 -250h244v-100z" />
<glyph unicode="{" horiz-adv-x="396" d="M258 94v-59q0 -51 11 -65t53 -14h27v-95h-44q-106 0 -139 42q-28 36 -28 132v59q0 110 -100 110v92q100 0 100 115v59q0 103 34 138.5t133 35.5h44v-95h-27q-42 0 -53 -14t-11 -65v-59q0 -127 -72 -161q39 -17 55.5 -52.5t16.5 -103.5z" />
<glyph unicode="|" horiz-adv-x="277" d="M197 662v-841h-117v841h117z" />
<glyph unicode="}" horiz-adv-x="396" d="M149 36v59q0 68 16.5 103.5t55.5 52.5q-72 34 -72 161v59q0 51 -11 65t-53 14h-27v95h44q106 0 139 -42q28 -36 28 -132v-59q0 -115 100 -115v-92q-100 0 -100 -110v-59q0 -103 -34 -138.5t-133 -35.5h-44v95h27q42 0 53 14t11 65z" />
<glyph unicode="~" horiz-adv-x="508" d="M25 216q28 104 124 104q30 0 109 -31q72 -28 98 -28q39 0 65 59l62 -45q-28 -105 -131 -105q-33 0 -113 33q-62 26 -82 26q-44 0 -70 -58z" />
<glyph unicode="&#xa1;" horiz-adv-x="280" d="M74 288h126v-456h-126v456zM215 413q0 -32 -20 -52t-53 -20q-32 0 -52.5 19t-22.5 50v3q0 33 20.5 53.5t54.5 20.5q33 0 53 -19.5t20 -52.5v-2z" />
<glyph unicode="&#xa2;" horiz-adv-x="487" d="M290 -14v-38h-48v41q-100 12 -156 84q-48 62 -48 152q0 98 64 166q56 60 140 72v49h48v-47q75 -3 154 -65l-28 -68q-60 44 -126 44v-297q76 0 122 50l37 -71q-62 -65 -159 -72zM242 368q-34 -20 -54.5 -59.5t-20.5 -86.5q0 -40 20.5 -78t54.5 -58v282z" />
<glyph unicode="&#xa3;" horiz-adv-x="503" d="M378 283h-149v-178h221v-105h-416v105h64v178h-66v95h66v49q0 218 206 218q50 0 93 -18.5t106 -66.5l-50 -79q-86 54 -137 54q-87 0 -87 -102v-55h149v-95z" />
<glyph unicode="&#xa4;" horiz-adv-x="490" d="M430 91l-79 77q-43 -26 -99 -26q-58 0 -98 25l-76 -75q-3 -3 -6 -3q-11 0 -26.5 16t-15.5 27q0 3 2 4l73 73q-35 48 -35 106q0 61 35 105l-73 73q-2 2 -2 5q0 10 15.5 26t25.5 16q4 0 6 -3l77 -75q44 27 98 27q57 0 101 -27l76 75q2 3 6 3q11 0 26 -15.5t15 -26.5 q0 -3 -1 -5l-75 -74q33 -45 33 -104q0 -55 -33 -105l76 -74q1 -1 1 -4q0 -12 -15 -28t-26 -16q-4 0 -6 3zM156 313q0 -44 27 -71t70 -27t68.5 27.5t25.5 74.5q0 45 -26 72.5t-68 27.5q-43 0 -70 -28.5t-27 -72.5v-3z" />
<glyph unicode="&#xa5;" horiz-adv-x="525" d="M197 0v137h-94v63h94v42h-94v73h90l-160 318h120l111 -217l111 217h118l-161 -318h93v-73h-98v-42h98v-63h-98v-137h-130z" />
<glyph unicode="&#xa6;" horiz-adv-x="228" d="M56 238h116v-417h-116v417zM172 662v-384h-116v384h116z" />
<glyph unicode="&#xa7;" horiz-adv-x="468" d="M372 130q28 -32 36 -53t8 -63q0 -67 -56 -112q-51 -42 -129 -42q-108 0 -177 59l48 68q50 -34 114 -34q76 0 76 65q0 41 -60 70q-16 8 -52 20q-73 26 -100 51q-40 36 -40 99q0 39 22.5 74t56.5 50q-63 41 -63 118q0 64 50.5 104.5t129.5 40.5q89 0 159 -55l-44 -71 q-47 33 -114 33q-58 0 -58 -51q0 -60 114 -101q135 -48 135 -166q0 -73 -56 -104zM188 338q-27 -35 -27 -65q0 -64 97 -86q2 -1 7 -2q2 -1 4 -1q22 -6 32 -11q11 18 11 49q0 38 -22.5 61.5t-83.5 47.5l-6 2q-8 3 -12 5z" />
<glyph unicode="&#xa8;" horiz-adv-x="373" d="M24 578q0 28 20 47.5t48 19.5q25 0 45 -20.5t20 -46.5q0 -28 -19 -48t-46 -20q-30 0 -49 19t-19 49zM208 578q0 27 20 47t46 20q28 0 48 -20t20 -47q0 -30 -19 -49t-49 -19q-28 0 -47 19.5t-19 48.5z" />
<glyph unicode="&#xa9;" horiz-adv-x="679" d="M477 170q-49 -49 -123 -49q-94 0 -145 53q-47 49 -47 134q0 88 61 145q52 49 125 49q63 0 123 -43l-25 -50q-48 28 -90 28q-40 0 -70 -38.5t-30 -90.5q0 -54 29 -89.5t73 -35.5q51 0 93 37zM339 617q134 0 224 -100q78 -86 78 -202q0 -133 -100 -223q-86 -78 -202 -78 q-133 0 -223 100q-78 86 -78 201q0 133 100 224q86 78 201 78zM342 85q101 0 172 75q62 66 62 153q0 103 -77 172q-66 60 -153 60q-104 0 -173 -77q-60 -66 -60 -155q0 -102 75 -169q64 -59 154 -59z" />
<glyph unicode="&#xaa;" horiz-adv-x="248" d="M236 406h-55l-4 30q-27 -36 -79 -36q-32 0 -53.5 21t-21.5 52q0 38 34 61.5t88 23.5h27v2q0 31 -34 31q-39 0 -77 -20l-14 40q43 34 96 34q93 0 93 -101v-138zM171 518h-18q-67 0 -67 -42q0 -32 36 -32q20 0 34.5 13.5t14.5 32.5v28z" />
<glyph unicode="&#xab;" horiz-adv-x="658" d="M331 1q-87 3 -170 81q-72 67 -109 163q43 109 128 179q75 61 151 63v-115q-100 -38 -144 -127q43 -88 144 -128v-116zM617 1q-88 3 -171 81q-71 67 -109 163q43 109 129 179q75 61 151 63v-115q-100 -38 -145 -127q44 -88 145 -128v-116z" />
<glyph unicode="&#xac;" horiz-adv-x="477" d="M316 0v142h-284v103h413v-245h-129z" />
<glyph unicode="&#xad;" horiz-adv-x="298" d="M283 188h-268v100h268v-100z" />
<glyph unicode="&#xae;" horiz-adv-x="391" d="M197 470h-9v-60h-47v157h73q53 0 53 -47q0 -27 -27 -43l39 -67h-55zM197 529h-9v-29h7q27 0 27 14q0 15 -25 15zM197 322q-72 0 -120 54q-42 46 -42 108q0 72 54 120q46 42 108 42q71 0 118 -54q41 -46 41 -108q0 -72 -52 -120q-45 -42 -107 -42zM77 484 q0 -54 33.5 -88.5t86.5 -34.5q54 0 87 34t33 89q0 52 -34.5 87.5t-85.5 35.5q-53 0 -86.5 -34.5t-33.5 -88.5z" />
<glyph unicode="&#xaf;" horiz-adv-x="256" d="M250 541h-244v92h244v-92z" />
<glyph unicode="&#xb0;" horiz-adv-x="258" d="M14 537q0 47 34 81t81 34t81 -34t34 -81q0 -48 -34 -82t-81 -34t-81 34t-34 82zM76 538q0 -23 15 -38t38 -15t38.5 15.5t15.5 37.5q0 23 -15.5 38.5t-38.5 15.5q-22 0 -37.5 -15.5t-15.5 -38.5z" />
<glyph unicode="&#xb1;" horiz-adv-x="516" d="M201 223h-169v101h169v130h116v-130h167v-101h-167v-112h-116v112zM484 0h-452v100h452v-100z" />
<glyph unicode="&#xb2;" horiz-adv-x="367" d="M52 316v76q89 49 114 67q53 38 53 70q0 37 -51 37q-35 0 -76 -29l-45 47q61 61 142 61q58 0 94.5 -31t36.5 -79q0 -49 -22.5 -77.5t-91.5 -65.5h105v-76h-259z" />
<glyph unicode="&#xb3;" horiz-adv-x="356" d="M111 445v75h46h7h5q34 0 34 23t-30 23q-36 0 -80 -25l-46 46q59 58 135 58q57 0 89.5 -24t32.5 -65q0 -51 -74 -65q79 -16 79 -81q0 -96 -117 -96q-89 0 -145 57q34 32 50 48q42 -29 75 -29q36 0 36 29q0 26 -54 26h-43z" />
<glyph unicode="&#xb4;" horiz-adv-x="226" d="M211 655l-109 -146h-87l72 146h124z" />
<glyph unicode="&#xb5;" horiz-adv-x="600" d="M191 17v-198h-123v635h123v-223q0 -78 20.5 -111.5t68.5 -33.5q16 0 44.5 8t39.5 16v344h124v-341q0 -30 19 -30q13 0 35 15l41 -60q-51 -51 -123 -51q-61 0 -82 49q-61 -48 -108 -48q-50 0 -79 29z" />
<glyph unicode="&#xb6;" horiz-adv-x="543" d="M463 0h-89v633h89v-633zM255 0v357h-43q-167 0 -167 135q0 67 41 104t116 37h143v-633h-90z" />
<glyph unicode="&#xb7;" horiz-adv-x="186" d="M25 372q0 29 20 49t48 20t48 -20t20 -49q0 -28 -19.5 -47.5t-48.5 -19.5t-48.5 19.5t-19.5 47.5z" />
<glyph unicode="&#xb8;" horiz-adv-x="211" d="M44 -55l20 65h88l-12 -34h6q28 0 45.5 -17t17.5 -45q0 -37 -28 -58t-76 -21q-49 0 -90 16l14 50q36 -9 55 -9q38 0 38 26q0 29 -45 29q-18 0 -33 -2z" />
<glyph unicode="&#xb9;" horiz-adv-x="325" d="M265 633v-315h-99v199l-74 -65l-58 67l119 114h112z" />
<glyph unicode="&#xba;" horiz-adv-x="273" d="M139 645q52 0 85 -34.5t33 -88.5t-33 -88t-84 -34q-55 0 -89.5 34t-34.5 88q0 56 33.5 89.5t89.5 33.5zM138 585q-40 0 -40 -63q0 -64 38 -64q39 0 39 64q0 63 -37 63z" />
<glyph unicode="&#xbb;" horiz-adv-x="658" d="M42 1v116q101 40 144 128q-44 89 -144 127v115q87 -2 170 -80q72 -67 109 -162q-43 -111 -128 -181q-75 -61 -151 -63zM327 1v116q100 40 144 128q-45 88 -144 127v115q87 -2 170 -80q72 -67 110 -162q-44 -111 -130 -181q-74 -61 -150 -63z" />
<glyph unicode="&#xbc;" horiz-adv-x="891" d="M537 143q20 23 62 72q59 68 88 103h102v-184h55v-79h-55v-55h-99v55h-153v88zM638 134h52v69q-9 -11 -19 -24q-23 -30 -33 -45zM727 633q-262 -454 -387 -663h-78l384 663h81zM278 633v-315h-99v199l-74 -65l-58 67l119 114h112z" />
<glyph unicode="&#xbd;" horiz-adv-x="845" d="M278 633v-315h-99v199l-74 -65l-58 67l119 114h112zM531 0v76q80 43 109 64q57 41 57 73q0 37 -51 37q-50 0 -73 -31l-50 45q65 65 144 65q58 0 94.5 -30.5t36.5 -79.5q0 -85 -114 -143h105v-76h-258zM641 633l-385 -663h-78l384 663h79z" />
<glyph unicode="&#xbe;" horiz-adv-x="877" d="M110 445v75h46q46 0 46 23t-30 23q-36 0 -80 -25l-44 47q58 57 133 57q56 0 89 -23.5t33 -63.5q0 -64 -74 -67q79 -16 79 -81q0 -40 -36.5 -68t-87.5 -28q-87 0 -137 55l49 50q42 -29 75 -29q36 0 36 29q0 26 -54 26h-43zM522 143q37 41 98 112q29 33 56 63h98v-184h56 v-79h-56v-55h-98v55h-154v88zM623 134h53v69q-7 -10 -21 -27q-22 -27 -32 -42zM668 633q-77 -132 -193 -331l-39 -67q-100 -172 -154 -265h-78l384 663h80z" />
<glyph unicode="&#xbf;" horiz-adv-x="397" d="M186 300h123v-75q0 -55 -12 -78.5t-57 -58.5q-70 -53 -70 -115q0 -29 22 -49.5t53 -20.5q48 0 93 39l47 -70q-70 -65 -169 -65q-84 0 -129 58q-35 44 -35 103q0 91 74 165q6 6 16 15q44 39 44 85v67zM318 397q0 -29 -20 -49t-48 -20t-48 20t-20 49q0 28 19.5 47.5 t48.5 19.5t48.5 -19.5t19.5 -47.5z" />
<glyph unicode="&#xc0;" horiz-adv-x="586" d="M238 633h110l233 -633h-133q-11 31 -28 88l-5 15q-6 19 -9 29h-227q-8 -26 -26 -79q-11 -35 -17 -53h-131zM294 462q-17 -50 -56 -162l-21 -60h152l-12 36l-7 18q-39 114 -56 168zM244 677l-109 146h124l72 -146h-87z" />
<glyph unicode="&#xc1;" horiz-adv-x="586" d="M238 633h110l233 -633h-133q-11 31 -28 88l-5 15q-6 19 -9 29h-227q-8 -26 -26 -79q-11 -35 -17 -53h-131zM294 462q-17 -50 -56 -162l-21 -60h152l-12 36l-7 18q-39 114 -56 168zM445 823l-109 -146h-87l72 146h124z" />
<glyph unicode="&#xc2;" horiz-adv-x="586" d="M238 633h110l233 -633h-133q-11 31 -28 88l-5 15q-6 19 -9 29h-227q-8 -26 -26 -79q-11 -35 -17 -53h-131zM294 462q-17 -50 -56 -162l-21 -60h152l-12 36l-7 18q-39 114 -56 168zM254 823h80q17 -25 38 -56q43 -62 61 -90h-91l-46 74l-52 -74h-90z" />
<glyph unicode="&#xc3;" horiz-adv-x="586" d="M238 633h110l233 -633h-133q-11 31 -28 88l-5 15q-6 19 -9 29h-227q-8 -26 -26 -79q-11 -35 -17 -53h-131zM294 462q-17 -50 -56 -162l-21 -60h152l-12 36l-7 18q-39 114 -56 168zM441 780q-20 -102 -91 -102q-28 0 -62 19q-33 20 -49 20q-25 0 -46 -45l-45 31 q21 104 91 104q26 0 63 -26q30 -20 46 -20q21 0 47 53z" />
<glyph unicode="&#xc4;" horiz-adv-x="586" d="M238 633h110l233 -633h-133q-11 31 -28 88l-5 15q-6 19 -9 29h-227q-8 -26 -26 -79q-11 -35 -17 -53h-131zM294 462q-17 -50 -56 -162l-21 -60h152l-12 36l-7 18q-39 114 -56 168zM135 746q0 28 20 47.5t48 19.5q25 0 45 -20.5t20 -46.5q0 -28 -19 -48t-46 -20 q-30 0 -49 19t-19 49zM319 746q0 27 20 47t46 20q28 0 48 -20t20 -47q0 -30 -19 -49t-49 -19q-28 0 -47 19.5t-19 48.5z" />
<glyph unicode="&#xc5;" horiz-adv-x="586" d="M238 633h110l233 -633h-133q-11 31 -28 88l-5 15q-6 19 -9 29h-227q-8 -26 -26 -79q-11 -35 -17 -53h-131zM294 462q-17 -50 -56 -162l-21 -60h152l-12 36l-7 18q-39 114 -56 168zM287 826q35 0 59.5 -25t24.5 -60t-24.5 -59.5t-59.5 -24.5q-36 0 -60.5 24.5t-24.5 59.5 t24.5 60t60.5 25zM287 775q-34 -3 -34 -34q0 -33 34 -33q33 0 33 33q0 32 -33 34z" />
<glyph unicode="&#xc6;" horiz-adv-x="846" d="M806 633v-105h-282v-149h235v-105h-235v-169h295v-105h-427v124h-204l-51 -124h-132l263 633h538zM347 529q-28 -74 -80 -207q-18 -45 -35 -90h160v297h-45z" />
<glyph unicode="&#xc7;" horiz-adv-x="572" d="M257 -55l15 49q-125 23 -187 134q-45 80 -45 182q0 151 78 243q77 92 214 92q96 0 192 -81l-51 -83q-72 52 -131 52q-82 0 -127 -69q-39 -59 -39 -154q0 -84 46 -144q49 -63 131 -63q54 0 128 47l51 -79q-74 -74 -175 -82l-4 -13h6q28 0 45.5 -17t17.5 -45q0 -37 -28 -58 t-76 -21q-49 0 -90 16l14 50q36 -9 55 -9q38 0 38 26q0 29 -45 29q-18 0 -33 -2z" />
<glyph unicode="&#xc8;" horiz-adv-x="506" d="M64 633h414v-105h-283v-149h236v-105h-236v-169h296v-105h-427v633zM248 679l-109 146h124l72 -146h-87z" />
<glyph unicode="&#xc9;" horiz-adv-x="506" d="M64 633h414v-105h-283v-149h236v-105h-236v-169h296v-105h-427v633zM411 819l-109 -146h-87l72 146h124z" />
<glyph unicode="&#xca;" horiz-adv-x="506" d="M64 633h414v-105h-283v-149h236v-105h-236v-169h296v-105h-427v633zM226 823h80q17 -25 38 -56q43 -62 61 -90h-91l-46 74l-52 -74h-90z" />
<glyph unicode="&#xcb;" horiz-adv-x="506" d="M64 633h414v-105h-283v-149h236v-105h-236v-169h296v-105h-427v633zM114 753q0 28 20 47.5t48 19.5q25 0 45 -20.5t20 -46.5q0 -28 -19 -48t-46 -20q-30 0 -49 19t-19 49zM298 753q0 27 20 47t46 20q28 0 48 -20t20 -47q0 -30 -19 -49t-49 -19q-28 0 -47 19.5t-19 48.5z " />
<glyph unicode="&#xcc;" horiz-adv-x="289" d="M209 633v-633h-129v633h129zM104 678l-109 146h124l72 -146h-87z" />
<glyph unicode="&#xcd;" horiz-adv-x="289" d="M209 633v-633h-129v633h129zM295 823l-109 -146h-87l72 146h124z" />
<glyph unicode="&#xce;" horiz-adv-x="289" d="M209 633v-633h-129v633h129zM104 834h80q17 -25 38 -56q43 -62 61 -90h-91l-46 74l-52 -74h-90z" />
<glyph unicode="&#xcf;" horiz-adv-x="289" d="M209 633v-633h-129v633h129zM-16 746q0 28 20 47.5t48 19.5q25 0 45 -20.5t20 -46.5q0 -28 -19 -48t-46 -20q-30 0 -49 19t-19 49zM168 746q0 27 20 47t46 20q28 0 48 -20t20 -47q0 -30 -19 -49t-49 -19q-28 0 -47 19.5t-19 48.5z" />
<glyph unicode="&#xd0;" horiz-adv-x="635" d="M106 277h-75v97h75v254q9 4 74.5 10.5t98.5 6.5q169 0 260 -100q78 -85 78 -222q0 -169 -97 -257q-86 -78 -235 -78q-33 0 -103.5 6t-75.5 9v274zM237 91q9 -3 48 -3q99 0 150 65q46 60 46 166q0 114 -65 175q-53 50 -134 50h-5h-9q-25 0 -31 -3v-167h146v-97h-146v-186z " />
<glyph unicode="&#xd1;" horiz-adv-x="718" d="M209 424v-424h-129v633h109q160 -208 318 -437v437h131v-633h-112q-94 111 -317 424zM494 792q-20 -102 -91 -102q-28 0 -62 19q-33 20 -49 20q-25 0 -46 -45l-45 31q21 104 91 104q26 0 63 -26q30 -20 46 -20q21 0 47 53z" />
<glyph unicode="&#xd2;" horiz-adv-x="654" d="M327 645q146 0 225 -116q62 -91 62 -220q0 -148 -81 -237q-77 -84 -206 -84q-148 0 -225 108q-62 85 -62 213q0 150 81 245q77 91 206 91zM327 98q72 0 111 54.5t39 156.5q0 109 -43 170q-40 54 -107 54q-72 0 -111.5 -59t-39.5 -165q0 -211 151 -211zM288 675l-109 146 h124l72 -146h-87z" />
<glyph unicode="&#xd3;" horiz-adv-x="654" d="M327 645q146 0 225 -116q62 -91 62 -220q0 -148 -81 -237q-77 -84 -206 -84q-148 0 -225 108q-62 85 -62 213q0 150 81 245q77 91 206 91zM327 98q72 0 111 54.5t39 156.5q0 109 -43 170q-40 54 -107 54q-72 0 -111.5 -59t-39.5 -165q0 -211 151 -211zM471 823l-109 -146 h-87l72 146h124z" />
<glyph unicode="&#xd4;" horiz-adv-x="654" d="M327 645q146 0 225 -116q62 -91 62 -220q0 -148 -81 -237q-77 -84 -206 -84q-148 0 -225 108q-62 85 -62 213q0 150 81 245q77 91 206 91zM327 98q72 0 111 54.5t39 156.5q0 109 -43 170q-40 54 -107 54q-72 0 -111.5 -59t-39.5 -165q0 -211 151 -211zM289 825h80 q17 -25 38 -56q43 -62 61 -90h-91l-46 74l-52 -74h-90z" />
<glyph unicode="&#xd5;" horiz-adv-x="654" d="M327 645q146 0 225 -116q62 -91 62 -220q0 -148 -81 -237q-77 -84 -206 -84q-148 0 -225 108q-62 85 -62 213q0 150 81 245q77 91 206 91zM327 98q72 0 111 54.5t39 156.5q0 109 -43 170q-40 54 -107 54q-72 0 -111.5 -59t-39.5 -165q0 -211 151 -211zM469 780 q-20 -102 -91 -102q-28 0 -62 19q-33 20 -49 20q-25 0 -46 -45l-45 31q21 104 91 104q26 0 63 -26q30 -20 46 -20q21 0 47 53z" />
<glyph unicode="&#xd6;" horiz-adv-x="654" d="M327 645q146 0 225 -116q62 -91 62 -220q0 -148 -81 -237q-77 -84 -206 -84q-148 0 -225 108q-62 85 -62 213q0 150 81 245q77 91 206 91zM327 98q72 0 111 54.5t39 156.5q0 109 -43 170q-40 54 -107 54q-72 0 -111.5 -59t-39.5 -165q0 -211 151 -211zM171 752 q0 28 20 47.5t48 19.5q25 0 45 -20.5t20 -46.5q0 -28 -19 -48t-46 -20q-30 0 -49 19t-19 49zM355 752q0 27 20 47t46 20q28 0 48 -20t20 -47q0 -30 -19 -49t-49 -19q-28 0 -47 19.5t-19 48.5z" />
<glyph unicode="&#xd7;" horiz-adv-x="479" d="M247 154l-164 -165l-78 76l166 167l-156 160l77 75l152 -158l154 162l76 -79l-156 -161l154 -170l-75 -72z" />
<glyph unicode="&#xd8;" horiz-adv-x="654" d="M566 645l-40 -84q88 -96 88 -252q0 -149 -82 -237q-80 -84 -215 -84q-21 0 -67 7l-14 -25h-100l29 62q-125 83 -125 277q0 150 81 245q77 91 206 91q67 0 124 -27l13 27h102zM399 512q-33 21 -72 21q-72 0 -111.5 -59t-39.5 -165q0 -111 45 -165q118 246 178 368zM298 96 q8 -3 29 -3q71 0 110.5 56.5t39.5 159.5q0 63 -14 126z" />
<glyph unicode="&#xd9;" horiz-adv-x="648" d="M568 266q0 -278 -244 -278t-244 278v367h132v-385q0 -150 112 -150q114 0 114 150v385h130v-367zM279 676l-109 146h124l72 -146h-87z" />
<glyph unicode="&#xda;" horiz-adv-x="648" d="M568 266q0 -278 -244 -278t-244 278v367h132v-385q0 -150 112 -150q114 0 114 150v385h130v-367zM473 822l-109 -146h-87l72 146h124z" />
<glyph unicode="&#xdb;" horiz-adv-x="648" d="M568 266q0 -278 -244 -278t-244 278v367h132v-385q0 -150 112 -150q114 0 114 150v385h130v-367zM282 822h80q17 -25 38 -56q43 -62 61 -90h-91l-46 74l-52 -74h-90z" />
<glyph unicode="&#xdc;" horiz-adv-x="648" d="M568 266q0 -278 -244 -278t-244 278v367h132v-385q0 -150 112 -150q114 0 114 150v385h130v-367zM165 752q0 28 20 47.5t48 19.5q25 0 45 -20.5t20 -46.5q0 -28 -19 -48t-46 -20q-30 0 -49 19t-19 49zM349 752q0 27 20 47t46 20q28 0 48 -20t20 -47q0 -30 -19 -49 t-49 -19q-28 0 -47 19.5t-19 48.5z" />
<glyph unicode="&#xdd;" horiz-adv-x="573" d="M5 633h141q70 -142 142 -284l139 284h141l-215 -383v-250h-131v250q-114 200 -217 383zM421 818l-109 -146h-87l72 146h124z" />
<glyph unicode="&#xde;" horiz-adv-x="513" d="M80 0v633h130v-98q28 2 38 2h5h5q240 0 240 -201q0 -108 -72 -163q-59 -44 -150 -44q-7 0 -43 2q-19 1 -22 1v-132h-131zM211 436v-202q36 -3 65 -3q86 0 86 105q0 100 -95 100h-56z" />
<glyph unicode="&#xdf;" horiz-adv-x="512" d="M332 332q142 -24 142 -160q0 -100 -58 -148q-44 -36 -111 -36q-46 0 -86 20l24 76q12 -8 37 -8q45 0 45 98q0 93 -68 93h-35v112h32q61 0 61 95q0 36 -17 57t-45 21q-61 0 -61 -78v-474h-124v459q0 184 186 184q94 0 149 -56q46 -46 46 -113q0 -55 -33 -95t-84 -47z" />
<glyph unicode="&#xe0;" horiz-adv-x="502" d="M434 0h-101l-10 43q-66 -55 -134 -55q-151 0 -151 147q0 73 63 114q64 42 189 42h21v2q0 43 -18 59t-65 16q-66 0 -121 -42q-18 33 -34 65q57 44 99.5 59.5t101.5 15.5q160 0 160 -200v-266zM307 214h-15q-57 0 -92 -20t-35 -53q0 -62 54 -62q33 0 58 19t30 48v68z M230 526l-109 146h124l72 -146h-87z" />
<glyph unicode="&#xe1;" horiz-adv-x="502" d="M434 0h-101l-10 43q-66 -55 -134 -55q-151 0 -151 147q0 73 63 114q64 42 189 42h21v2q0 43 -18 59t-65 16q-66 0 -121 -42q-18 33 -34 65q57 44 99.5 59.5t101.5 15.5q160 0 160 -200v-266zM307 214h-15q-57 0 -92 -20t-35 -53q0 -62 54 -62q33 0 58 19t30 48v68z M402 671l-109 -146h-87l72 146h124z" />
<glyph unicode="&#xe2;" horiz-adv-x="502" d="M434 0h-101l-10 43q-66 -55 -134 -55q-151 0 -151 147q0 73 63 114q64 42 189 42h21v2q0 43 -18 59t-65 16q-66 0 -121 -42q-18 33 -34 65q57 44 99.5 59.5t101.5 15.5q160 0 160 -200v-266zM307 214h-15q-57 0 -92 -20t-35 -53q0 -62 54 -62q33 0 58 19t30 48v68z M223 655h80q17 -25 38 -56q43 -62 61 -90h-91l-46 74l-52 -74h-90z" />
<glyph unicode="&#xe3;" horiz-adv-x="502" d="M434 0h-101l-10 43q-66 -55 -134 -55q-151 0 -151 147q0 73 63 114q64 42 189 42h21v2q0 43 -18 59t-65 16q-66 0 -121 -42q-18 33 -34 65q57 44 99.5 59.5t101.5 15.5q160 0 160 -200v-266zM307 214h-15q-57 0 -92 -20t-35 -53q0 -62 54 -62q33 0 58 19t30 48v68z M409 628q-20 -102 -91 -102q-28 0 -62 19q-33 20 -49 20q-25 0 -46 -45l-45 31q21 104 91 104q26 0 63 -26q30 -20 46 -20q21 0 47 53z" />
<glyph unicode="&#xe4;" horiz-adv-x="502" d="M434 0h-101l-10 43q-66 -55 -134 -55q-151 0 -151 147q0 73 63 114q64 42 189 42h21v2q0 43 -18 59t-65 16q-66 0 -121 -42q-18 33 -34 65q57 44 99.5 59.5t101.5 15.5q160 0 160 -200v-266zM307 214h-15q-57 0 -92 -20t-35 -53q0 -62 54 -62q33 0 58 19t30 48v68z M104 578q0 28 20 47.5t48 19.5q25 0 45 -20.5t20 -46.5q0 -28 -19 -48t-46 -20q-30 0 -49 19t-19 49zM288 578q0 27 20 47t46 20q28 0 48 -20t20 -47q0 -30 -19 -49t-49 -19q-28 0 -47 19.5t-19 48.5z" />
<glyph unicode="&#xe5;" horiz-adv-x="502" d="M434 0h-101l-10 43q-66 -55 -134 -55q-151 0 -151 147q0 73 63 114q64 42 189 42h21v2q0 43 -18 59t-65 16q-66 0 -121 -42q-18 33 -34 65q57 44 99.5 59.5t101.5 15.5q160 0 160 -200v-266zM307 214h-15q-57 0 -92 -20t-35 -53q0 -62 54 -62q33 0 58 19t30 48v68z M265 668q35 0 60 -24.5t25 -59.5t-25 -60t-60 -25t-59.5 25t-24.5 60t24.5 59.5t59.5 24.5zM265 617q-33 -2 -33 -33q0 -34 33 -34q34 0 34 34q0 31 -34 33z" />
<glyph unicode="&#xe6;" horiz-adv-x="795" d="M757 186h-312q4 -46 37.5 -76.5t79.5 -30.5q65 0 136 40l32 -67q-72 -64 -180 -64q-59 0 -109 25.5t-76 68.5q-60 -94 -176 -94q-151 0 -151 147q0 73 63 114q64 42 189 42h21v2q0 43 -18 59t-65 16q-66 0 -121 -42q-18 33 -34 65q57 44 99.5 59.5t101.5 15.5 q77 0 118 -50q61 50 145 50q108 0 168 -73q52 -62 52 -161v-46zM307 214h-15q-57 0 -92 -20t-35 -53q0 -62 54 -62q33 0 58 19t30 48v68zM438 279h193q-5 98 -95 98q-87 0 -98 -98z" />
<glyph unicode="&#xe7;" horiz-adv-x="477" d="M214 -55l14 48q-93 16 -145 86q-45 61 -45 146q0 110 76 180q66 61 161 61q105 0 169 -66l-38 -68q-51 45 -111 45q-56 0 -92 -43.5t-36 -111.5q0 -63 35.5 -103.5t90.5 -40.5q66 0 113 49l43 -69q-59 -58 -134 -68l-5 -14h6q28 0 45.5 -17t17.5 -45q0 -37 -28 -58 t-76 -21q-49 0 -90 16l14 50q36 -9 55 -9q38 0 38 26q0 29 -45 29q-18 0 -33 -2z" />
<glyph unicode="&#xe8;" horiz-adv-x="526" d="M488 186h-312q4 -46 37.5 -76.5t79.5 -30.5q65 0 136 40l32 -67q-72 -64 -180 -64q-116 0 -181 66q-62 62 -62 171q0 107 70 177q63 64 160 64q108 0 168 -73q52 -62 52 -161v-46zM169 279h193q-5 98 -95 98q-87 0 -98 -98zM229 509l-109 146h124l72 -146h-87z" />
<glyph unicode="&#xe9;" horiz-adv-x="526" d="M488 186h-312q4 -46 37.5 -76.5t79.5 -30.5q65 0 136 40l32 -67q-72 -64 -180 -64q-116 0 -181 66q-62 62 -62 171q0 107 70 177q63 64 160 64q108 0 168 -73q52 -62 52 -161v-46zM169 279h193q-5 98 -95 98q-87 0 -98 -98zM411 655l-109 -146h-87l72 146h124z" />
<glyph unicode="&#xea;" horiz-adv-x="526" d="M488 186h-312q4 -46 37.5 -76.5t79.5 -30.5q65 0 136 40l32 -67q-72 -64 -180 -64q-116 0 -181 66q-62 62 -62 171q0 107 70 177q63 64 160 64q108 0 168 -73q52 -62 52 -161v-46zM169 279h193q-5 98 -95 98q-87 0 -98 -98zM224 655h80q17 -25 38 -56q43 -62 61 -90h-91 l-46 74l-52 -74h-90z" />
<glyph unicode="&#xeb;" horiz-adv-x="526" d="M488 186h-312q4 -46 37.5 -76.5t79.5 -30.5q65 0 136 40l32 -67q-72 -64 -180 -64q-116 0 -181 66q-62 62 -62 171q0 107 70 177q63 64 160 64q108 0 168 -73q52 -62 52 -161v-46zM169 279h193q-5 98 -95 98q-87 0 -98 -98zM103 578q0 28 20 47.5t48 19.5q25 0 45 -20.5 t20 -46.5q0 -28 -19 -48t-46 -20q-30 0 -49 19t-19 49zM287 578q0 27 20 47t46 20q28 0 48 -20t20 -47q0 -30 -19 -49t-49 -19q-28 0 -47 19.5t-19 48.5z" />
<glyph unicode="&#xec;" horiz-adv-x="261" d="M212 454v-454h-124v454h124zM104 509l-109 146h124l72 -146h-87z" />
<glyph unicode="&#xed;" horiz-adv-x="261" d="M212 454v-454h-124v454h124zM301 655l-109 -146h-87l72 146h124z" />
<glyph unicode="&#xee;" horiz-adv-x="261" d="M212 454v-454h-124v454h124zM108 655h80q17 -25 38 -56q43 -62 61 -90h-91l-46 74l-52 -74h-90z" />
<glyph unicode="&#xef;" horiz-adv-x="261" d="M212 454v-454h-124v454h124zM-2 578q0 28 20 47.5t48 19.5q25 0 45 -20.5t20 -46.5q0 -28 -19 -48t-46 -20q-30 0 -49 19t-19 49zM182 578q0 27 20 47t46 20q28 0 48 -20t20 -47q0 -30 -19 -49t-49 -19q-28 0 -47 19.5t-19 48.5z" />
<glyph unicode="&#xf0;" horiz-adv-x="522" d="M230 559q-14 4 -39 15q-36 15 -66 25q13 11 39 29l6 5q11 8 17 12q69 -13 131 -38q61 28 102 49q11 -11 31 -32q22 -23 33 -34q-21 -10 -61 -28q-21 -10 -31 -15q37 -40 59.5 -105.5t22.5 -132.5q0 -148 -59 -234q-59 -87 -170 -87q-106 0 -164 84q-43 63 -43 148 q0 104 72 157q51 37 114 37q24 0 51 -9q46 -19 67 -40q-3 106 -38 133q-21 -11 -63 -32q-32 -15 -48 -23q-11 10 -36 33q-20 19 -31 29q23 11 63 32q28 16 41 22zM343 278q-30 43 -91 43q-83 0 -83 -116q0 -118 69 -118q100 0 105 191z" />
<glyph unicode="&#xf1;" horiz-adv-x="549" d="M190 410q20 23 60 39.5t76 16.5q86 0 124.5 -47t38.5 -152v-267h-127v262q0 98 -87 98q-22 0 -47 -9.5t-34 -21.5v-329h-126v454h107q5 -26 10 -44h5zM424 628q-20 -102 -91 -102q-28 0 -62 19q-33 20 -49 20q-25 0 -46 -45l-45 31q21 104 91 104q26 0 63 -26 q30 -20 46 -20q21 0 47 53z" />
<glyph unicode="&#xf2;" horiz-adv-x="528" d="M260 466q112 0 174 -79q52 -66 52 -161q0 -111 -77 -180q-64 -58 -149 -58q-99 0 -166 74q-60 67 -60 164q0 110 67 178q61 62 159 62zM260 82q97 0 97 144q0 150 -97 150t-97 -150q0 -144 97 -144zM226 509l-109 146h124l72 -146h-87z" />
<glyph unicode="&#xf3;" horiz-adv-x="528" d="M260 466q112 0 174 -79q52 -66 52 -161q0 -111 -77 -180q-64 -58 -149 -58q-99 0 -166 74q-60 67 -60 164q0 110 67 178q61 62 159 62zM260 82q97 0 97 144q0 150 -97 150t-97 -150q0 -144 97 -144zM403 655l-109 -146h-87l72 146h124z" />
<glyph unicode="&#xf4;" horiz-adv-x="528" d="M260 466q112 0 174 -79q52 -66 52 -161q0 -111 -77 -180q-64 -58 -149 -58q-99 0 -166 74q-60 67 -60 164q0 110 67 178q61 62 159 62zM260 82q97 0 97 144q0 150 -97 150t-97 -150q0 -144 97 -144zM221 655h80q17 -25 38 -56q43 -62 61 -90h-91l-46 74l-52 -74h-90z" />
<glyph unicode="&#xf5;" horiz-adv-x="528" d="M260 466q112 0 174 -79q52 -66 52 -161q0 -111 -77 -180q-64 -58 -149 -58q-99 0 -166 74q-60 67 -60 164q0 110 67 178q61 62 159 62zM260 82q97 0 97 144q0 150 -97 150t-97 -150q0 -144 97 -144zM408 628q-20 -102 -91 -102q-28 0 -62 19q-33 20 -49 20q-25 0 -46 -45 l-45 31q21 104 91 104q26 0 63 -26q30 -20 46 -20q21 0 47 53z" />
<glyph unicode="&#xf6;" horiz-adv-x="528" d="M260 466q112 0 174 -79q52 -66 52 -161q0 -111 -77 -180q-64 -58 -149 -58q-99 0 -166 74q-60 67 -60 164q0 110 67 178q61 62 159 62zM260 82q97 0 97 144q0 150 -97 150t-97 -150q0 -144 97 -144zM106 578q0 28 20 47.5t48 19.5q25 0 45 -20.5t20 -46.5q0 -28 -19 -48 t-46 -20q-30 0 -49 19t-19 49zM290 578q0 27 20 47t46 20q28 0 48 -20t20 -47q0 -30 -19 -49t-49 -19q-28 0 -47 19.5t-19 48.5z" />
<glyph unicode="&#xf7;" horiz-adv-x="458" d="M229 319q-30 0 -48.5 19t-18.5 51q0 30 18.5 48.5t48.5 18.5q31 0 49.5 -18.5t18.5 -48.5q0 -32 -18.5 -51t-49.5 -19zM47 157v126h365v-126h-365zM229 -20q-30 0 -48.5 19t-18.5 50q0 30 18.5 49t48.5 19q31 0 49.5 -19t18.5 -49q0 -31 -18.5 -50t-49.5 -19z" />
<glyph unicode="&#xf8;" horiz-adv-x="520" d="M127 33q-89 69 -89 193q0 111 65 178q60 62 159 62q26 0 57 -7l14 30h82l-27 -61q94 -67 94 -202q0 -111 -75 -180q-62 -58 -147 -58q-35 0 -64 10l-12 -28h-86zM235 85q12 -3 25 -3q93 0 93 144q0 55 -14 92zM281 374q-12 2 -19 2q-45 0 -70 -39.5t-25 -110.5 q0 -47 11 -80z" />
<glyph unicode="&#xf9;" horiz-adv-x="538" d="M364 52q-50 -64 -137 -64q-86 0 -122.5 44.5t-36.5 149.5v272h124v-239q0 -68 18 -95.5t62 -27.5q19 0 43 10t29 21v331h126v-454h-94l-11 52h-1zM220 509l-109 146h124l72 -146h-87z" />
<glyph unicode="&#xfa;" horiz-adv-x="538" d="M364 52q-50 -64 -137 -64q-86 0 -122.5 44.5t-36.5 149.5v272h124v-239q0 -68 18 -95.5t62 -27.5q19 0 43 10t29 21v331h126v-454h-94l-11 52h-1zM421 655l-109 -146h-87l72 146h124z" />
<glyph unicode="&#xfb;" horiz-adv-x="538" d="M364 52q-50 -64 -137 -64q-86 0 -122.5 44.5t-36.5 149.5v272h124v-239q0 -68 18 -95.5t62 -27.5q19 0 43 10t29 21v331h126v-454h-94l-11 52h-1zM232 655h80q17 -25 38 -56q43 -62 61 -90h-91l-46 74l-52 -74h-90z" />
<glyph unicode="&#xfc;" horiz-adv-x="538" d="M364 52q-50 -64 -137 -64q-86 0 -122.5 44.5t-36.5 149.5v272h124v-239q0 -68 18 -95.5t62 -27.5q19 0 43 10t29 21v331h126v-454h-94l-11 52h-1zM114 578q0 28 20 47.5t48 19.5q25 0 45 -20.5t20 -46.5q0 -28 -19 -48t-46 -20q-30 0 -49 19t-19 49zM298 578q0 27 20 47 t46 20q28 0 48 -20t20 -47q0 -30 -19 -49t-49 -19q-28 0 -47 19.5t-19 48.5z" />
<glyph unicode="&#xfd;" horiz-adv-x="479" d="M474 454q-40 -112 -110 -301q-51 -141 -80 -219q-47 -125 -132 -125q-66 0 -136 57q20 34 34 60q37 -24 65 -24q41 0 73 98h-24l-159 454h125q11 -33 34 -103l6 -16q43 -130 62 -191l116 310h126zM384 651l-109 -146h-87l72 146h124z" />
<glyph unicode="&#xfe;" horiz-adv-x="547" d="M68 581q14 8 46 24l7 4l9 5q40 20 61 32v-219q0 -2 1 -2t6 5q37 36 93 36q105 0 166 -74q52 -62 52 -156q0 -123 -76 -192q-60 -56 -147 -56q-28 0 -58.5 10.5t-36.5 21.5v-198h-123v759zM191 302v-163q1 -24 26 -43.5t55 -19.5q46 0 76.5 42.5t30.5 107.5q0 69 -27 109 t-73 40q-28 0 -53.5 -21t-34.5 -52z" />
<glyph unicode="&#xff;" horiz-adv-x="479" d="M474 454q-109 -301 -190 -520q-49 -125 -132 -125q-66 0 -136 57q6 11 17 30q12 20 17 30q37 -24 57 -24h7h1q5 -1 7 -1q22 0 63 99h-21l-85 242l-74 212h125l99 -310q27 71 86 223l33 87h126zM77 578q0 28 19.5 47.5t48.5 19.5q26 0 46.5 -20.5t20.5 -46.5 q0 -29 -19.5 -48.5t-47.5 -19.5q-31 0 -49.5 18.5t-18.5 49.5zM261 578q0 27 20 47t47 20t47.5 -20t20.5 -47q0 -29 -19.5 -48.5t-48.5 -19.5t-48 19.5t-19 48.5z" />
<glyph unicode="&#x131;" horiz-adv-x="260" d="M192 454v-454h-124v454h124z" />
<glyph unicode="&#x141;" horiz-adv-x="477" d="M361 357q-13 -5 -20 -8q-87 -36 -131 -55v-191h235v-103h-368v239q-33 -15 -62 -27v97q20 9 62 27v297h133v-241q8 3 25 11q8 3 12 6q70 31 114 48v-100z" />
<glyph unicode="&#x142;" horiz-adv-x="288" d="M273 357q-19 -11 -49 -25l-9 -5q-10 -5 -15 -8v-319h-124v260q-9 -5 -22 -11q-19 -9 -39 -21v99q11 6 32 15q20 9 29 14v224q7 4 24 14q68 39 100 52v-228l8 4l4 2q48 24 61 33v-100z" />
<glyph unicode="&#x152;" horiz-adv-x="833" d="M394 0q-33 -12 -71 -12q-147 0 -224 111q-59 86 -59 214q0 148 82 242q79 91 207 91q37 0 74 -13h398v-104h-281v-150h236v-104h-236v-172h294v-103h-420zM391 526q-27 7 -62 7q-71 0 -112 -59t-41 -161q0 -215 153 -215q38 0 62 18v410z" />
<glyph unicode="&#x153;" horiz-adv-x="843" d="M421 47q-68 -59 -156 -59q-102 0 -168 74q-59 67 -59 164q0 110 67 178q62 62 158 62q92 0 164 -60q63 60 153 60q114 0 177 -73q53 -62 53 -161v-46h-311q25 -107 122 -107q60 0 128 40l38 -69q-79 -62 -175 -62q-123 0 -191 59zM263 376q-44 0 -70 -40.5t-26 -109.5 q0 -144 95 -144q99 0 99 144q0 70 -26 110t-72 40zM492 279h193q-2 46 -28 72t-70 26q-40 0 -66 -26.5t-29 -71.5z" />
<glyph unicode="&#x160;" horiz-adv-x="536" d="M472 581q-18 -27 -56 -81q-80 35 -143 35q-83 0 -83 -62q0 -28 19 -44t79 -39q108 -42 155.5 -91t47.5 -118q0 -97 -73 -150q-60 -43 -149 -43q-105 0 -224 76l58 81q58 -39 149 -39q103 0 103 83q0 54 -111 92q-179 60 -179 192q0 80 60 127q56 45 149 45q106 0 198 -64 zM305 687h-78l-102 146h82l55 -87h5l57 87h82q-24 -35 -71 -103l-22 -32z" />
<glyph unicode="&#x161;" horiz-adv-x="428" d="M333 344q-49 32 -112 32q-48 0 -48 -41q0 -38 65 -54q81 -20 110 -45q42 -36 42 -108q0 -64 -45.5 -102t-122.5 -38q-109 0 -184 62l46 70q52 -41 125 -41q29 0 47 14t18 37q0 42 -71 55q-152 29 -152 148q0 57 46.5 95t116.5 38q95 0 165 -55zM251 509h-78l-102 146h82 l55 -87h5l57 87h82q-24 -35 -71 -103l-22 -32z" />
<glyph unicode="&#x178;" horiz-adv-x="573" d="M5 633h141q37 -77 118 -236l24 -48q21 44 70 142l13 28q37 74 56 114h141q-38 -68 -125 -223q-51 -91 -90 -160v-250h-131v250q-73 127 -217 383zM124 746q0 28 20 47.5t48 19.5q26 0 46.5 -20.5t20.5 -46.5q0 -29 -19.5 -48.5t-47.5 -19.5q-30 0 -49 19t-19 49zM308 746 q0 27 20 47t47 20t47.5 -20t20.5 -47q0 -29 -19.5 -48.5t-48.5 -19.5t-48 19.5t-19 48.5z" />
<glyph unicode="&#x17d;" horiz-adv-x="484" d="M462 633v-109l-280 -419h287v-105h-454v93q145 213 295 435h-286v105h438zM291 682h-78l-102 146h82l55 -87h5l57 87h82q-24 -35 -71 -103l-22 -32z" />
<glyph unicode="&#x17e;" horiz-adv-x="423" d="M408 0h-393v103l235 250h-221v101h373v-104l-238 -250h244v-100zM255 509h-78l-102 146h82l55 -87h5l57 87h82q-24 -35 -71 -103l-22 -32z" />
<glyph unicode="&#x192;" horiz-adv-x="403" d="M125 3v349h-71v102h71v60q0 131 123 131q80 0 149 -54l-46 -66q-40 26 -68 26q-31 0 -31 -50v-47h134v-102h-134v-361q0 -69 -30 -100t-96 -31q-83 0 -151 53l42 64q41 -24 77 -24h1q30 0 30 50z" />
<glyph unicode="&#x2c6;" horiz-adv-x="266" d="M94 655h80q17 -25 38 -56q43 -62 61 -90h-91l-46 74l-52 -74h-90z" />
<glyph unicode="&#x2c7;" horiz-adv-x="269" d="M174 509h-78l-102 146h82l55 -87h5l57 87h82q-24 -35 -71 -103l-22 -32z" />
<glyph unicode="&#x2d8;" horiz-adv-x="270" d="M257 645v-7q0 -57 -33 -89t-92 -32q-122 0 -122 128h86q0 -58 39 -58q40 0 40 58h82z" />
<glyph unicode="&#x2d9;" horiz-adv-x="142" d="M-5 569q0 31 22.5 53.5t53.5 22.5q30 0 53 -23t23 -53q0 -31 -22.5 -54t-53.5 -23q-32 0 -54 22.5t-22 54.5z" />
<glyph unicode="&#x2da;" horiz-adv-x="146" d="M10 589q0 26 18.5 44.5t44.5 18.5t44.5 -18.5t18.5 -44.5t-18.5 -44.5t-44.5 -18.5t-44.5 18.5t-18.5 44.5zM51 589q0 -22 22 -22q23 0 23 22q0 23 -23 23q-22 0 -22 -23z" />
<glyph unicode="&#x2db;" horiz-adv-x="217" d="M46 4h68q-35 -46 -35 -74q0 -34 41 -34q27 0 54 8l17 -55q-37 -15 -87 -15q-49 0 -77.5 22t-28.5 60q0 44 48 88z" />
<glyph unicode="&#x2dc;" horiz-adv-x="295" d="M294 628q-20 -102 -91 -102q-28 0 -62 19q-33 20 -49 20q-25 0 -46 -45l-45 31q21 104 91 104q26 0 63 -26q30 -20 46 -20q21 0 47 53z" />
<glyph unicode="&#x2dd;" horiz-adv-x="397" d="M211 679l-105 -158h-91l72 158h124zM382 679l-125 -158h-92l92 158h125z" />
<glyph unicode="&#x3c0;" horiz-adv-x="561" d="M347 0v357h-138v-357h-124v358h-53v96h497v-97h-59v-357h-123z" />
<glyph unicode="&#x60c;" horiz-adv-x="298" d="M164 168q35 0 56.5 -22.5t21.5 -58.5q0 -40 -25.5 -66t-63.5 -26q-40 0 -64.5 27.5t-24.5 72.5v163l91 33v-123h9z" />
<glyph unicode="&#x61b;" horiz-adv-x="304" d="M166 -5q-34 0 -54.5 21t-20.5 56q0 30 21 49.5t54 19.5t53 -20.5t20 -53.5q0 -32 -20 -52t-53 -20zM166 435q35 0 56.5 -22.5t21.5 -58.5q0 -40 -25.5 -66t-63.5 -26q-40 0 -64.5 27.5t-24.5 72.5v163l91 33v-123h9z" />
<glyph unicode="&#x61f;" horiz-adv-x="456" d="M217 160q8 17 8 35q0 28 -15.5 50.5t-68.5 73.5q-15 14 -25 23q-73 72 -73 158q0 75 55 123q50 44 127 44q83 0 151 -58v-114q-70 63 -136 63q-34 0 -54.5 -18.5t-20.5 -50.5q0 -36 36 -74q7 -7 33 -32q57 -53 79.5 -94.5t22.5 -90.5q0 -18 -7 -38h-112zM285 -22 q-34 0 -54.5 21t-20.5 56q0 30 21 49.5t54 19.5t53 -20.5t20 -53.5q0 -32 -20 -52t-53 -20z" />
<glyph unicode="&#x621;" horiz-adv-x="542" d="M35 -65v121q40 25 87 36q-32 61 -32 126q0 102 59 162q54 55 140 55q88 0 148 -69v-117q-73 72 -139 72q-37 0 -60 -27.5t-23 -71.5q0 -67 43 -110q7 0 22 1q11 0 18 1q113 7 194 61l-1 -114q-84 -61 -228 -61q-137 0 -228 -65z" />
<glyph unicode="&#x622;" horiz-adv-x="306" d="M303 755q-46 -57 -91 -57q-21 0 -65 25q-25 14 -37 14h-1q-18 0 -48 -35l-43 38q45 58 90 58q22 0 67 -25q24 -14 37 -14q17 0 49 35zM90 0v578l126 67v-645h-126z" />
<glyph unicode="&#x623;" horiz-adv-x="306" d="M52 701l32 58h30q-11 20 -11 41q0 32 23.5 55t56.5 23q30 0 56 -21v-58q-24 21 -48 21q-33 0 -33 -30q0 -15 13 -31h99l-32 -58h-186zM90 0v578l126 67v-645h-126z" />
<glyph unicode="&#x624;" horiz-adv-x="522" d="M349 622l-32 -58h-186l32 58h30q-11 20 -11 41q0 32 23.5 55t56.5 23q30 0 56 -21v-58q-24 21 -48 21q-33 0 -33 -30q0 -15 13 -31h99zM316 29q-31 -6 -64 -6q-92 0 -147 69q-45 58 -45 140q0 110 60 173q53 56 140 56q89 0 139 -57q43 -49 43 -128v-214q0 -118 -62 -186 q-58 -64 -158 -64q-63 0 -123 34v109q54 -31 108 -31q97 0 109 105zM317 278q0 66 -57 66q-36 0 -56.5 -29t-20.5 -79q0 -106 76 -106q40 0 58 20v128z" />
<glyph unicode="&#x625;" horiz-adv-x="306" d="M90 0v578l126 67v-645h-126zM45 -272l32 58h30q-11 20 -11 41q0 32 23.5 55t56.5 23q30 0 56 -21v-58q-24 21 -48 21q-33 0 -33 -30q0 -15 13 -31h99l-32 -58h-186z" />
<glyph unicode="&#x626;" horiz-adv-x="755" d="M54 340l31 58h30q-11 19 -11 40q0 33 23.5 56t56.5 23q31 0 57 -21v-58q-25 21 -49 21q-33 0 -33 -29q0 -16 14 -32h98l-31 -58h-186zM643 274q-72 66 -138 66q-31 0 -50.5 -17.5t-19.5 -46.5q0 -36 23.5 -56t93.5 -45q70 -23 98 -46q45 -37 45 -103q0 -103 -95 -163 q-85 -53 -218 -53q-166 0 -250 95q-62 71 -62 174q0 79 37 138l120 25q-40 -68 -40 -143q0 -79 50 -123q50 -45 145 -45q96 0 146 30q42 26 42 66q0 21 -17.5 34.5t-71.5 32.5q-87 31 -120 64q-45 45 -45 119q0 88 61 137q46 38 107 38q102 0 159 -71v-107z" />
<glyph unicode="&#x627;" horiz-adv-x="306" d="M90 0v578l126 67v-645h-126z" />
<glyph unicode="&#x628;" horiz-adv-x="898" d="M266 0q-85 0 -133 57q-43 50 -43 129v102l125 66v-160q0 -40 16.5 -56.5t54.5 -16.5h326q38 0 54 17t16 56v184l126 66v-258q0 -91 -57 -142q-50 -44 -128 -44h-357zM437 -223q-30 0 -48 18t-18 49q0 29 18 47t48 18t47.5 -17.5t17.5 -47.5q0 -67 -65 -67z" />
<glyph unicode="&#x629;" horiz-adv-x="541" d="M195 565q-30 0 -48 18t-18 49q0 65 66 65q30 0 47.5 -17.5t17.5 -47.5q0 -67 -65 -67zM348 565q-30 0 -48 18.5t-18 48.5q0 29 18 47t48 18t47.5 -17.5t17.5 -47.5q0 -67 -65 -67zM272 0q-95 0 -149 64q-46 55 -46 141q0 90 52 157t148 99q102 -34 154 -107 q47 -64 47 -149q0 -99 -60 -155q-52 -50 -136 -50h-10zM271 121h13q70 0 70 83q0 95 -77 139q-76 -44 -76 -137q0 -85 70 -85z" />
<glyph unicode="&#x62a;" horiz-adv-x="898" d="M362 465q-30 0 -48 18.5t-18 48.5q0 29 18 47t48 18t47.5 -17.5t17.5 -47.5q0 -67 -65 -67zM516 465q-30 0 -48 18t-18 49q0 65 66 65q30 0 47.5 -17.5t17.5 -47.5q0 -67 -65 -67zM266 0q-85 0 -133 57q-43 50 -43 129v102l125 66v-160q0 -40 16.5 -56.5t54.5 -16.5h326 q38 0 54 17t16 56v184l126 66v-258q0 -91 -57 -142q-50 -44 -128 -44h-357z" />
<glyph unicode="&#x62b;" horiz-adv-x="898" d="M458 612q-60 0 -60 62q0 60 60 60q61 0 61 -60q0 -62 -61 -62zM382 465q-30 0 -48 18.5t-18 48.5q0 29 18 47t48 18t47.5 -17.5t17.5 -47.5q0 -67 -65 -67zM536 465q-30 0 -48 18t-18 49q0 65 66 65q30 0 47.5 -17.5t17.5 -47.5q0 -67 -65 -67zM266 0q-85 0 -133 57 q-43 50 -43 129v102l125 66v-160q0 -40 16.5 -56.5t54.5 -16.5h326q38 0 54 17t16 56v184l126 66v-258q0 -91 -57 -142q-50 -44 -128 -44h-357z" />
<glyph unicode="&#x62c;" horiz-adv-x="631" d="M528 -319q-87 -56 -197 -56q-120 0 -192 76q-69 73 -69 192q0 125 73 196q32 31 69.5 47t133.5 39q87 21 123 49q-69 121 -166 121q-82 0 -175 -87v111q83 92 189 92q79 0 153 -57t131 -162v-50q-30 -52 -76.5 -79t-147.5 -51q-107 -25 -143 -57q-43 -40 -43 -113 q0 -146 153 -146q98 0 184 54v-119zM345 -160q-57 0 -57 57q0 56 57 56q55 0 55 -56q0 -57 -55 -57z" />
<glyph unicode="&#x62d;" horiz-adv-x="651" d="M528 -319q-87 -56 -197 -56q-120 0 -192 76q-69 73 -69 192q0 125 73 196q32 31 69.5 47t133.5 39q87 21 123 49q-69 121 -166 121q-82 0 -175 -87v111q83 92 189 92q79 0 153 -57t131 -162v-50q-30 -52 -76.5 -79t-147.5 -51q-107 -25 -143 -57q-43 -40 -43 -113 q0 -146 153 -146q98 0 184 54v-119z" />
<glyph unicode="&#x62e;" horiz-adv-x="651" d="M321 545q-30 0 -48 18t-18 49q0 29 18 47t48 18t47.5 -17.5t17.5 -47.5q0 -67 -65 -67zM528 -319q-87 -56 -197 -56q-120 0 -192 76q-69 73 -69 192q0 125 73 196q32 31 69.5 47t133.5 39q87 21 123 49q-69 121 -166 121q-82 0 -175 -87v111q83 92 189 92q79 0 153 -57 t131 -162v-50q-30 -52 -76.5 -79t-147.5 -51q-107 -25 -143 -57q-43 -40 -43 -113q0 -146 153 -146q98 0 184 54v-119z" />
<glyph unicode="&#x62f;" horiz-adv-x="477" d="M10 0l63 121h158q51 0 51 59q0 111 -106 170l62 106q170 -100 170 -278t-154 -178h-244z" />
<glyph unicode="&#x630;" horiz-adv-x="477" d="M240 545q-30 0 -48 18t-18 49q0 29 18 47t48 18t47.5 -17.5t17.5 -47.5q0 -67 -65 -67zM10 0l63 121h158q51 0 51 59q0 111 -106 170l62 106q170 -100 170 -278t-154 -178h-244z" />
<glyph unicode="&#x631;" horiz-adv-x="360" d="M270 62q0 -116 -64 -188q-59 -67 -156 -67q-63 0 -123 32v110q52 -29 102 -29q55 0 85.5 35.5t30.5 98.5v323l125 67v-382z" />
<glyph unicode="&#x632;" horiz-adv-x="360" d="M205 545q-30 0 -48 18t-18 49q0 29 18 47t48 18t47.5 -17.5t17.5 -47.5q0 -67 -65 -67zM270 62q0 -116 -64 -188q-59 -67 -156 -67q-63 0 -123 32v110q52 -29 102 -29q55 0 85.5 35.5t30.5 98.5v323l125 67v-382z" />
<glyph unicode="&#x633;" horiz-adv-x="1368" d="M1153 378l125 66v-257q0 -90 -55 -141q-48 -45 -126 -46h-95q-74 0 -121 39q-47 -38 -118 -39h-96q-34 0 -63 9q-19 -96 -97 -151q-70 -48 -170 -48q-135 0 -209 95q-58 74 -58 174q0 79 37 138l120 25q-40 -68 -40 -143q0 -76 43 -123q41 -45 107 -45q69 0 107.5 35 t38.5 98v261l126 66v-198q0 -39 16.5 -55.5t54.5 -16.5h67q38 0 54.5 16.5t16.5 55.5v158l125 67v-225q0 -39 16.5 -55.5t54.5 -16.5h68q38 0 54.5 16.5t16.5 55.5v185z" />
<glyph unicode="&#x634;" horiz-adv-x="1368" d="M882 679q-59 0 -59 61q0 59 59 59q60 0 60 -59q0 -61 -60 -61zM806 532q-30 0 -48 18.5t-18 48.5q0 29 18.5 47t47.5 18q30 0 47.5 -17.5t17.5 -47.5q0 -67 -65 -67zM894 599q0 29 18 47t48 18t47.5 -17.5t17.5 -47.5q0 -67 -65 -67q-30 0 -48 18t-18 49zM1153 378 l125 66v-257q0 -90 -55 -141q-48 -45 -126 -46h-95q-74 0 -121 39q-47 -38 -118 -39h-96q-34 0 -63 9q-19 -96 -97 -151q-70 -48 -170 -48q-135 0 -209 95q-58 74 -58 174q0 79 37 138l120 25q-40 -68 -40 -143q0 -76 43 -123q41 -45 107 -45q69 0 107.5 35t38.5 98v261 l126 66v-198q0 -39 16.5 -55.5t54.5 -16.5h67q38 0 54.5 16.5t16.5 55.5v158l125 67v-225q0 -39 16.5 -55.5t54.5 -16.5h68q38 0 54.5 16.5t16.5 55.5v185z" />
<glyph unicode="&#x635;" horiz-adv-x="1348" d="M660 122q47 145 140 237q102 102 234 102q118 0 189 -82q60 -69 60 -171v-22q0 -91 -57 -142q-49 -44 -127 -44h-432q-34 0 -63 9q-19 -96 -97 -151q-70 -48 -170 -48q-135 0 -209 95q-58 74 -58 174q0 79 37 138l120 25q-40 -68 -40 -143q0 -76 43 -123q41 -45 107 -45 q69 0 107.5 35t38.5 98v261l126 66v-198q0 -64 51 -71zM1157 194v14q0 60 -34 98t-88 38q-78 0 -145.5 -60t-106.5 -163h311q36 0 49.5 15.5t13.5 57.5z" />
<glyph unicode="&#x636;" horiz-adv-x="1348" d="M1034 545q-30 0 -48 18t-18 49q0 29 18 47t48 18t47.5 -17.5t17.5 -47.5q0 -67 -65 -67zM660 122q47 145 140 237q102 102 234 102q118 0 189 -82q60 -69 60 -171v-22q0 -91 -57 -142q-49 -44 -127 -44h-432q-34 0 -63 9q-19 -96 -97 -151q-70 -48 -170 -48 q-135 0 -209 95q-58 74 -58 174q0 79 37 138l120 25q-40 -68 -40 -143q0 -76 43 -123q41 -45 107 -45q69 0 107.5 35t38.5 98v261l126 66v-198q0 -64 51 -71zM1157 194v14q0 60 -34 98t-88 38q-78 0 -145.5 -60t-106.5 -163h311q36 0 49.5 15.5t13.5 57.5z" />
<glyph unicode="&#x637;" horiz-adv-x="906" d="M357 356q103 105 235 105q119 0 189 -82q60 -69 60 -171v-24q0 -94 -54 -143q-45 -41 -120 -41h-647l64 121h136q4 14 11 31v426l126 67v-289zM716 189v19q0 60 -34.5 98t-88.5 38q-70 0 -132.5 -51.5t-103.5 -142.5v-29h305q33 0 43.5 13t10.5 55z" />
<glyph unicode="&#x638;" horiz-adv-x="906" d="M591 545q-30 0 -48 18t-18 49q0 29 18 47t48 18t47.5 -17.5t17.5 -47.5q0 -67 -65 -67zM357 356q103 105 235 105q119 0 189 -82q60 -69 60 -171v-24q0 -94 -54 -143q-45 -41 -120 -41h-647l64 121h136q4 14 11 31v426l126 67v-289zM716 189v19q0 60 -34.5 98t-88.5 38 q-70 0 -132.5 -51.5t-103.5 -142.5v-29h305q33 0 43.5 13t10.5 55z" />
<glyph unicode="&#x639;" horiz-adv-x="581" d="M531 -319q-87 -56 -193 -56q-123 0 -199 76q-69 68 -69 174q0 120 93 187q-77 63 -77 181q0 105 74 168q59 50 138 50q109 0 173 -92v-111q-71 86 -161 86q-46 -1 -72.5 -29.5t-26.5 -75.5q0 -55 34.5 -86.5t94.5 -31.5h179v-121h-177q-71 0 -110.5 -33t-39.5 -92 t41.5 -94t112.5 -35q97 0 185 54v-119z" />
<glyph unicode="&#x63a;" horiz-adv-x="581" d="M318 545q-30 0 -48 18t-18 49q0 29 18 47t48 18t47.5 -17.5t17.5 -47.5q0 -67 -65 -67zM531 -319q-87 -56 -193 -56q-123 0 -199 76q-69 68 -69 174q0 120 93 187q-77 63 -77 181q0 105 74 168q59 50 138 50q109 0 173 -92v-111q-71 86 -161 86q-46 -1 -72.5 -29.5 t-26.5 -75.5q0 -55 34.5 -86.5t94.5 -31.5h179v-121h-177q-71 0 -110.5 -33t-39.5 -92t41.5 -94t112.5 -35q97 0 185 54v-119z" />
<glyph unicode="&#x640;" horiz-adv-x="116" d="M-30 0v121h176v-121h-176z" />
<glyph unicode="&#x641;" horiz-adv-x="980" d="M728 532q-30 0 -48 18t-18 49q0 29 18 47t48 18t47.5 -17.5t17.5 -47.5q0 -67 -65 -67zM286 0q-94 0 -149 64q-47 56 -47 142v101l126 67v-160q0 -51 19 -72t65 -21h248q-30 42 -30 110q0 110 60 174q53 56 140 56q89 0 139 -57q43 -49 43 -128v-90q0 -86 -51 -137 q-50 -49 -133 -49h-430zM774 278q0 66 -56 66q-36 0 -56.5 -29t-20.5 -80q0 -114 74 -114q59 0 59 65v92z" />
<glyph unicode="&#x642;" horiz-adv-x="779" d="M441 532q-30 0 -48 18t-18 49q0 65 66 65q30 0 47.5 -17.5t17.5 -47.5q0 -67 -65 -67zM595 532q-30 0 -48 18t-18 49q0 65 66 65q30 0 47.5 -17.5t17.5 -47.5q0 -67 -65 -67zM699 64q0 -123 -90 -191q-83 -63 -227 -63q-166 0 -250 95q-62 71 -62 174q0 79 37 138l120 25 q-40 -68 -40 -143q0 -79 50 -123q50 -45 145 -45q170 0 186 106q-22 -14 -59 -14q-92 0 -147 70q-45 58 -45 139q0 110 60 173q53 56 140 56q89 0 139 -57q43 -49 43 -128v-212zM573 278q0 66 -56 66q-36 0 -56.5 -29t-20.5 -79q0 -106 76 -106q41 0 57 22v126z" />
<glyph unicode="&#x643;" horiz-adv-x="897" d="M682 579l125 66v-459q0 -91 -57 -142q-49 -44 -127 -44h-357q-85 0 -133 57q-43 50 -43 129v102l125 66v-160q0 -40 16.5 -56.5t54.5 -16.5h326q38 0 54 17t16 56v385zM475 500q72 -12 72 -85q0 -82 -79 -82h-148l31 58h111q27 0 27 27q0 34 -45 34q-30 0 -56 -16v50 l86 95h73z" />
<glyph unicode="&#x644;" horiz-adv-x="724" d="M634 83q0 -128 -88 -206q-78 -68 -196 -68q-142 0 -220 94q-60 72 -60 171q0 78 36 138l124 28q-41 -65 -41 -149q0 -74 43.5 -117.5t117.5 -43.5q73 0 116 41t43 112v495l125 67v-562z" />
<glyph unicode="&#x645;" horiz-adv-x="623" d="M20 -315v249q0 85 50 136q44 44 118 50q-27 42 -27 111q0 110 60 174q53 56 140 56q89 0 139 -57q43 -49 43 -128v-119q-1 -74 -50 -115t-138 -42h-139q-38 0 -54 -16.5t-16 -55.5v-177zM417 278q0 66 -56 66q-36 0 -56.5 -29t-20.5 -80q0 -114 75 -114q58 0 58 56v101z " />
<glyph unicode="&#x646;" horiz-adv-x="699" d="M332 433q-30 0 -48 18t-18 49q0 29 18 47t48 18t47.5 -17.5t17.5 -47.5q0 -67 -65 -67zM609 64q0 -120 -83 -191q-74 -63 -189 -63q-135 0 -209 95q-58 74 -58 174q0 79 37 138l120 25q-40 -68 -40 -143q0 -76 43 -123q41 -45 107 -45q69 0 107.5 35t38.5 98v314l126 66 v-380z" />
<glyph unicode="&#x647;" horiz-adv-x="541" d="M265 0q-95 0 -149 64q-46 55 -46 141q0 90 52 157t148 99q102 -34 154 -107q47 -64 47 -149q0 -99 -60 -155q-52 -50 -136 -50h-10zM264 121h13q70 0 70 83q0 95 -77 139q-76 -44 -76 -137q0 -85 70 -85z" />
<glyph unicode="&#x648;" horiz-adv-x="522" d="M316 29q-31 -6 -64 -6q-92 0 -147 69q-45 58 -45 140q0 110 60 173q53 56 140 56q89 0 139 -57q43 -49 43 -128v-214q0 -118 -62 -186q-58 -64 -158 -64q-63 0 -123 34v109q54 -31 108 -31q97 0 109 105zM317 278q0 66 -57 66q-36 0 -56.5 -29t-20.5 -79q0 -106 76 -106 q40 0 58 20v128z" />
<glyph unicode="&#x649;" horiz-adv-x="755" d="M643 274q-72 66 -138 66q-31 0 -50.5 -17.5t-19.5 -46.5q0 -36 23.5 -56t93.5 -45q70 -23 98 -46q45 -37 45 -103q0 -103 -95 -163q-85 -53 -218 -53q-166 0 -250 95q-62 71 -62 174q0 79 37 138l120 25q-40 -68 -40 -143q0 -79 50 -123q50 -45 145 -45q96 0 146 30 q42 26 42 66q0 21 -17.5 34.5t-71.5 32.5q-87 31 -120 64q-45 45 -45 119q0 88 61 137q46 38 107 38q102 0 159 -71v-107z" />
<glyph unicode="&#x64a;" horiz-adv-x="755" d="M643 274q-72 66 -138 66q-31 0 -50.5 -17.5t-19.5 -46.5q0 -36 23.5 -56t93.5 -45q70 -23 98 -46q45 -37 45 -103q0 -103 -95 -163q-85 -53 -218 -53q-166 0 -250 95q-62 71 -62 174q0 79 37 138l120 25q-40 -68 -40 -143q0 -79 50 -123q50 -45 145 -45q96 0 146 30 q42 26 42 66q0 21 -17.5 34.5t-71.5 32.5q-87 31 -120 64q-45 45 -45 119q0 88 61 137q46 38 107 38q102 0 159 -71v-107zM315 -411q-30 0 -48 18.5t-18 48.5q0 29 18 47t48 18t47.5 -17.5t17.5 -47.5q0 -67 -65 -67zM469 -411q-30 0 -48 18t-18 49q0 65 66 65 q30 0 47.5 -17.5t17.5 -47.5q0 -67 -65 -67z" />
<glyph unicode="&#x64b;" d="M23 706l45 96l264 48l-45 -96zM0 565l45 97l263 47l-45 -96z" />
<glyph unicode="&#x64c;" d="M186 664q-18 23 -18 54q0 42 26.5 71.5t64.5 29.5q39 0 65.5 -29.5t26.5 -73.5q0 -60 -39 -97.5t-102 -37.5q-61 0 -112 38l-21 -35l-76 52l56 87h30q42 -59 96 -59h2h1zM263 690q18 14 18 34q0 26 -20 26q-21 0 -21 -26q0 -22 23 -34z" />
<glyph unicode="&#x64d;" d="M23 706l45 96l264 48l-45 -96zM0 565l45 97l263 47l-45 -96z" />
<glyph unicode="&#x64e;" d="M0 565l45 97l263 47l-45 -96z" />
<glyph unicode="&#x64f;" d="M0 565l39 83l107 20q-14 25 -14 53q0 43 26.5 72.5t64.5 29.5q40 0 66 -29t26 -73t-25.5 -76.5t-65.5 -38.5zM226 694q19 14 19 33q0 27 -20 27q-21 0 -21 -27q0 -20 22 -33z" />
<glyph unicode="&#x650;" d="M0 565l45 97l263 47l-45 -96z" />
<glyph unicode="&#x651;" d="M205 707l71 39v-103q0 -34 -24.5 -56t-62.5 -22q-31 0 -52 14q-22 -14 -51 -14q-38 0 -62 22t-24 56v43l70 39v-78q0 -14 17 -14q16 0 16 13v51l70 39v-90q0 -13 16 -13t16 14v60z" />
<glyph unicode="&#x652;" d="M88 756q38 -9 63 -40t26 -70q-1 -38 -25 -60t-64 -22t-64 22t-24 59q0 39 25 70.5t63 40.5zM88 685q-22 -9 -22 -32q0 -26 22 -26q21 0 21 26q0 22 -21 32z" />
<glyph unicode="&#x653;" d="M296 728q-46 -57 -91 -57q-21 0 -65 25q-25 14 -37 14h-1q-18 0 -48 -35l-43 38q45 58 90 58q22 0 67 -25q24 -14 37 -14q17 0 49 35z" />
<glyph unicode="&#x654;" d="M-4 653l32 58h30q-11 20 -11 41q0 32 23.5 55t56.5 23q30 0 56 -21v-58q-24 21 -48 21q-33 0 -33 -30q0 -15 13 -31h99l-32 -58h-186z" />
<glyph unicode="&#x655;" d="M-4 653l32 58h30q-11 20 -11 41q0 32 23.5 55t56.5 23q30 0 56 -21v-58q-24 21 -48 21q-33 0 -33 -30q0 -15 13 -31h99l-32 -58h-186z" />
<glyph unicode="&#x660;" horiz-adv-x="340" d="M171 89l-131 132l131 128l129 -128z" />
<glyph unicode="&#x661;" horiz-adv-x="266" d="M70 -15v580h126v-513z" />
<glyph unicode="&#x662;" horiz-adv-x="415" d="M65 -15v425q0 72 44 113.5t119 41.5h162v-121h-150q-49 0 -49 -43v-348z" />
<glyph unicode="&#x663;" horiz-adv-x="614" d="M470 565h114v-123q0 -63 -42.5 -102.5t-110.5 -39.5q-58 0 -98 28q-39 -28 -96 -28q-24 0 -41 4v-252l-126 -67v580h126v-123q0 -35 40 -35t40 35v93h114v-93q0 -35 41 -35q39 0 39 35v123z" />
<glyph unicode="&#x664;" horiz-adv-x="440" d="M225 0q-93 0 -144 58q-41 47 -41 112q0 73 60 125q-49 42 -49 104v1v2q0 69 54 117q52 46 128 46h111v-113h-97q-31 0 -51 -17t-20 -43q0 -27 20 -44t51 -17h72v-87h-78q-34 0 -55 -18.5t-21 -47.5q1 -28 22 -46t54 -18h101l73 -114h-190z" />
<glyph unicode="&#x665;" horiz-adv-x="461" d="M234 496q100 -56 154 -153q45 -79 45 -162v-7q-2 -88 -57 -137q-52 -47 -142 -47q-104 0 -158 60q-42 48 -44 124v5q0 96 59 186q55 82 143 131zM234 379q-97 -71 -99 -179q0 -96 99 -96q95 0 97 94q0 109 -97 181z" />
<glyph unicode="&#x666;" horiz-adv-x="415" d="M225 -15v416q0 43 -50 43h-150v121h162q75 0 119 -41.5t44 -113.5v-357z" />
<glyph unicode="&#x667;" horiz-adv-x="539" d="M188 0l-168 565h127l120 -405h2l122 405h128l-171 -565h-160z" />
<glyph unicode="&#x668;" horiz-adv-x="539" d="M20 0l168 565h160l171 -565h-128l-122 405h-2l-120 -405h-127z" />
<glyph unicode="&#x669;" horiz-adv-x="456" d="M265 -15v225q-31 -13 -64 -13q-28 0 -53 10q-113 38 -113 175q0 97 59 150q49 44 124 44q79 0 128 -51q45 -48 45 -126v-346zM265 403q0 59 -51 59q-27 0 -43.5 -21t-16.5 -55q0 -72 56 -77h4q27 0 51 17v77z" />
<glyph unicode="&#x66a;" horiz-adv-x="781" d="M193 0l303 589h98l-303 -589h-98zM305 429q0 -75 -34 -120t-91 -45q-60 0 -94 43.5t-34 120.5q0 73 34.5 115t93.5 42q55 0 90 -43.5t35 -112.5zM232 427q0 39 -15.5 65.5t-38.5 26.5t-38.5 -26t-15.5 -66q0 -43 15 -70.5t39 -27.5t39 27.5t15 70.5zM729 162 q0 -75 -34 -120t-91 -45q-60 0 -94 44t-34 120q0 73 34.5 115.5t93.5 42.5q55 0 90 -44t35 -113zM655 160q0 39 -15 65.5t-38 26.5q-24 0 -39 -25.5t-15 -66.5q0 -43 15 -70.5t39 -27.5q23 0 38 27.5t15 70.5z" />
<glyph unicode="&#x66d;" horiz-adv-x="364" d="M205 498q2 -4 7 -17q12 -31 12 -41q0 -32 -38 -32q-37 0 -37 32q2 19 22 64l-9 -13q-29 -44 -51 -44q-15 0 -26.5 13t-11.5 29q0 20 16 28t67 14q-3 0 -12 1q-71 7 -71 39q0 17 11.5 30t25.5 13q8 0 16 -5q9 -6 36 -39q4 -5 6 -7q-19 38 -19 57q0 32 36 32q38 0 38 -32 q0 -10 -15 -46q-2 -5 -3 -8q1 2 5 7q29 40 48 40q15 0 26.5 -13.5t11.5 -29.5q0 -19 -16 -27q-9 -5 -56 -11q-3 -1 -5 -1q3 0 11 -1q67 -7 67 -39q0 -16 -11.5 -29.5t-24.5 -13.5q-21 0 -53 47z" />
<glyph unicode="&#x66e;" horiz-adv-x="898" d="M266 0q-85 0 -133 57q-43 50 -43 129v102l125 66v-160q0 -40 16.5 -56.5t54.5 -16.5h326q38 0 54 17t16 56v184l126 66v-258q0 -91 -57 -142q-50 -44 -128 -44h-357z" />
<glyph unicode="&#x670;" d="M0 652v172l70 39v-173z" />
<glyph unicode="&#x67e;" horiz-adv-x="898" d="M266 0q-85 0 -133 57q-43 50 -43 129v102l125 66v-160q0 -40 16.5 -56.5t54.5 -16.5h326q38 0 54 17t16 56v184l126 66v-258q0 -91 -57 -142q-50 -44 -128 -44h-357zM392 -222q-30 0 -48 18t-18 48t18 48.5t48 18.5q65 0 65 -67q0 -66 -65 -66zM546 -222q-30 0 -48 18 t-18 48t18 48.5t48 18.5q65 0 65 -67q0 -66 -65 -66zM468 -356q-60 0 -60 59q0 60 60 60q59 0 59 -60q0 -59 -59 -59z" />
<glyph unicode="&#x6a4;" horiz-adv-x="980" d="M719 679q-60 0 -60 61q0 59 60 59q59 0 59 -59q0 -61 -59 -61zM643 532q-30 0 -48 18t-18 49q0 65 66 65q30 0 47.5 -17.5t17.5 -47.5q0 -67 -65 -67zM797 532q-30 0 -48 18t-18 49q0 65 66 65q30 0 47.5 -17.5t17.5 -47.5q0 -67 -65 -67zM286 0q-94 0 -149 64 q-47 56 -47 142v101l126 67v-160q0 -51 19 -72t65 -21h248q-30 42 -30 110q0 110 60 174q53 56 140 56q89 0 139 -57q43 -49 43 -128v-90q0 -86 -51 -137q-50 -49 -133 -49h-430zM774 278q0 66 -56 66q-36 0 -56.5 -29t-20.5 -80q0 -114 74 -114q59 0 59 65v92z" />
<glyph unicode="&#x2000;" horiz-adv-x="532" />
<glyph unicode="&#x2001;" horiz-adv-x="1065" />
<glyph unicode="&#x2002;" horiz-adv-x="521" />
<glyph unicode="&#x2003;" horiz-adv-x="1042" />
<glyph unicode="&#x2004;" horiz-adv-x="347" />
<glyph unicode="&#x2005;" horiz-adv-x="260" />
<glyph unicode="&#x2006;" horiz-adv-x="69" />
<glyph unicode="&#x2007;" horiz-adv-x="583" />
<glyph unicode="&#x2008;" horiz-adv-x="265" />
<glyph unicode="&#x2009;" horiz-adv-x="130" />
<glyph unicode="&#x200a;" horiz-adv-x="35" />
<glyph unicode="&#x2010;" horiz-adv-x="298" d="M283 188h-268v100h268v-100z" />
<glyph unicode="&#x2011;" horiz-adv-x="264" d="M264 321v-124h-264v124h264z" />
<glyph unicode="&#x2012;" horiz-adv-x="583" d="M528 321v-124h-472v124h472z" />
<glyph unicode="&#x2013;" horiz-adv-x="397" d="M73 117v126h251v-126h-251z" />
<glyph unicode="&#x2014;" horiz-adv-x="648" d="M73 117v126h502v-126h-502z" />
<glyph unicode="&#x2015;" horiz-adv-x="771" d="M771 321v-124h-771v124h771z" />
<glyph unicode="&#x2018;" horiz-adv-x="321" d="M177 538q35 0 56.5 -22.5t21.5 -58.5q0 -40 -25.5 -66t-63.5 -26q-40 0 -64.5 27.5t-24.5 72.5v173l91 33v-133h9z" />
<glyph unicode="&#x2019;" horiz-adv-x="321" d="M144 494q-35 0 -56.5 22.5t-21.5 58.5q0 40 25.5 66t63.5 26q40 0 64.5 -27.5t24.5 -72.5v-174l-91 -32v133h-9z" />
<glyph unicode="&#x201a;" horiz-adv-x="321" d="M143 -1q-35 0 -56.5 22.5t-21.5 58.5q0 40 25.5 66t63.5 26q40 0 64.5 -27.5t24.5 -72.5v-174l-91 -32v133h-9z" />
<glyph unicode="&#x201c;" horiz-adv-x="536" d="M177 540q35 0 56.5 -22.5t21.5 -58.5q0 -40 -25.5 -66t-63.5 -26q-40 0 -64.5 27.5t-24.5 72.5v174l91 33v-134h9zM393 540q35 0 56.5 -22.5t21.5 -58.5q0 -40 -25.5 -66t-63.5 -26q-40 0 -64.5 27.5t-24.5 72.5v174l91 33v-134h9z" />
<glyph unicode="&#x201d;" horiz-adv-x="541" d="M362 494q-35 0 -56.5 22.5t-21.5 58.5q0 40 25.5 66t63.5 26q40 0 64.5 -27.5t24.5 -72.5v-174l-91 -32v133h-9zM146 494q-35 0 -56.5 22.5t-21.5 58.5q0 40 25.5 66t63.5 26q40 0 64.5 -27.5t24.5 -72.5v-174l-91 -32v133h-9z" />
<glyph unicode="&#x201e;" horiz-adv-x="541" d="M363 -2q-35 0 -56.5 22.5t-21.5 58.5q0 39 25.5 65.5t63.5 26.5q40 0 64.5 -27.5t24.5 -72.5v-174l-91 -33v134h-9zM147 -2q-35 0 -56.5 22.5t-21.5 58.5q0 39 25.5 65.5t63.5 26.5q40 0 64.5 -27.5t24.5 -72.5v-174l-91 -33v134h-9z" />
<glyph unicode="&#x2020;" horiz-adv-x="428" d="M153 353h-121v101h121v179h119v-179h124v-101h-124v-396h-119v396z" />
<glyph unicode="&#x2021;" horiz-adv-x="428" d="M153 119h-121v101h121v133h-121v101h121v177h119v-177h124v-101h-124v-133h124v-101h-124v-163h-119v163z" />
<glyph unicode="&#x2022;" horiz-adv-x="331" d="M44 328q0 50 35 85t85 35q51 0 87 -35t36 -85q0 -49 -36 -84t-87 -35t-85.5 34.5t-34.5 84.5z" />
<glyph unicode="&#x2026;" horiz-adv-x="536" d="M25 55q0 29 20 49t48 20t48 -20t20 -49q0 -28 -19.5 -47.5t-48.5 -19.5t-48.5 19.5t-19.5 47.5zM200 55q0 29 20 49t48 20t48 -20t20 -49q0 -28 -19.5 -47.5t-48.5 -19.5t-48.5 19.5t-19.5 47.5zM375 55q0 29 20 49t48 20t48 -20t20 -49q0 -28 -19.5 -47.5t-48.5 -19.5 t-48.5 19.5t-19.5 47.5z" />
<glyph unicode="&#x202f;" horiz-adv-x="213" />
<glyph unicode="&#x2030;" horiz-adv-x="1108" d="M189 645q67 0 109 -47t42 -123q0 -74 -48 -123q-43 -43 -103 -43q-66 0 -108.5 47t-42.5 119q0 78 42 125q41 45 109 45zM189 576q-45 0 -45 -101q0 -95 40 -95q47 0 47 95q0 57 -9 79t-33 22zM565 253q-45 0 -45 -102q0 -93 42 -93q47 0 47 93q0 59 -9.5 80.5 t-34.5 21.5zM565 321q67 0 109 -47t42 -123q0 -74 -48 -123q-43 -43 -103 -43q-66 0 -108.5 47t-42.5 119q0 78 42 125q41 45 109 45zM601 633l-386 -663h-78l384 663h80zM919 253q-45 0 -45 -102q0 -93 42 -93q47 0 47 93q0 59 -9.5 80.5t-34.5 21.5zM919 321q67 0 109 -47 t42 -123q0 -74 -48 -123q-43 -43 -103 -43q-66 0 -108.5 47t-42.5 119q0 78 42 125q41 45 109 45z" />
<glyph unicode="&#x2039;" horiz-adv-x="373" d="M331 1q-87 3 -170 81q-72 67 -109 163q43 109 128 179q75 61 151 63v-115q-100 -38 -144 -127q43 -88 144 -128v-116z" />
<glyph unicode="&#x203a;" horiz-adv-x="373" d="M42 1v116q101 40 144 128q-44 89 -144 127v115q87 -2 170 -80q72 -67 109 -162q-43 -111 -128 -181q-75 -61 -151 -63z" />
<glyph unicode="&#x2044;" horiz-adv-x="483" d="M461 633l-386 -663h-78l384 663h80z" />
<glyph unicode="&#x205f;" horiz-adv-x="266" />
<glyph unicode="&#x20ac;" horiz-adv-x="626" d="M108 178h-76v101h59q-1 12 -1 34q0 1 -1 9q-1 10 -1 14v3h-56v101h73q32 93 96 149q65 56 148 56q62 0 108 -17.5t105 -63.5q-8 -15 -27 -44q-16 -24 -24 -39q-74 52 -135 52q-73 0 -134 -93h242v-101h-263v-5v-16q1 -10 1 -13q0 -17 1 -26h261v-101h-243q64 -75 158 -75 q34 0 59 9t69 38q9 -15 27 -42q17 -24 24 -37q-93 -83 -198 -83q-196 0 -272 190z" />
<glyph unicode="&#x2122;" horiz-adv-x="655" d="M15 633h222v-74h-70v-164h-79v164h-73v74zM485 395h-94l-28 113v-113h-76v238h108l45 -164l39 164h108v-238h-74v108z" />
<glyph unicode="&#x2126;" horiz-adv-x="616" d="M329 92q111 29 111 232q0 104 -41 162q-35 49 -91 49q-64 0 -100 -56t-36 -155q0 -130 56 -194q28 -33 57 -38v-92h-227v105h52q-70 65 -70 213q0 157 90 250q74 77 178 77q126 0 201 -99q67 -89 67 -228q0 -148 -70 -213h59v-105h-236v92z" />
<glyph unicode="&#x2202;" horiz-adv-x="515" d="M342 266q-42 35 -91 35q-75 0 -75 -102q0 -47 22.5 -78.5t55.5 -31.5q43 0 63 41t25 136zM76 587q76 58 162 58q131 0 191 -103q46 -80 46 -215q0 -153 -38 -231q-54 -108 -185 -108q-111 0 -170 80q-42 57 -42 128q0 101 57 154q51 49 141 49q59 0 98 -33q0 81 -34 128 q-29 39 -72 39q-51 0 -111 -30q-6 11 -17 33q-18 33 -26 51z" />
<glyph unicode="&#x2206;" horiz-adv-x="614" d="M609 0h-604q59 157 193 506l49 127h120q160 -422 242 -633zM299 502l-126 -400h260q-134 404 -134 400z" />
<glyph unicode="&#x220f;" horiz-adv-x="662" d="M582 633v-812h-129v712h-244v-712h-129v812h502z" />
<glyph unicode="&#x2211;" horiz-adv-x="536" d="M243 245l-218 283v105h473v-103h-347l211 -281l-202 -327h351v-101h-476v102z" />
<glyph unicode="&#x2212;" horiz-adv-x="516" d="M484 176h-452v100h452v-100z" />
<glyph unicode="&#x221a;" horiz-adv-x="552" d="M65 321l180 50l45 -256l150 585h122l-202 -700h-126l-61 233l-73 -23z" />
<glyph unicode="&#x221e;" horiz-adv-x="567" d="M231 221q-23 44 -58 44q-40 0 -40 -37t43 -37q33 0 55 30zM279 302q40 63 121 63q59 0 99 -39.5t40 -97.5q0 -54 -42 -95t-97 -41q-34 0 -68 20.5t-46 47.5q-17 -30 -47.5 -49t-61.5 -19q-68 0 -108.5 37t-40.5 99q0 56 40.5 96.5t97.5 40.5q76 0 113 -63zM331 229 q15 -38 56 -38q50 0 50 36q0 39 -49 39q-41 0 -57 -37z" />
<glyph unicode="&#x222b;" horiz-adv-x="407" d="M125 -48v562q0 131 123 131q80 0 149 -54l-46 -66q-40 26 -68 26q-31 0 -31 -50v-561q0 -69 -30 -100t-96 -31q-83 0 -151 53l42 64q41 -24 77 -24h1q30 0 30 50z" />
<glyph unicode="&#x2248;" horiz-adv-x="505" d="M16 269q28 104 124 104q30 0 109 -31q72 -28 98 -28q39 0 65 59l62 -45q-28 -105 -131 -105q-32 0 -125 38q-50 21 -70 21q-44 0 -70 -58zM31 99q28 104 124 104q30 0 109 -31q72 -28 98 -28q39 0 65 59l62 -45q-28 -105 -131 -105q-32 0 -125 38q-50 21 -70 21 q-44 0 -70 -58z" />
<glyph unicode="&#x2260;" horiz-adv-x="516" d="M145 111h-113v101h174l19 30h-193v100h255l70 112h107l-69 -112h89v-100h-153l-19 -30h172v-101h-234l-70 -111h-106z" />
<glyph unicode="&#x2264;" horiz-adv-x="516" d="M484 0h-452v100h452v-100zM483 108l-451 126v148l150 32q198 42 301 65v-103q-166 -31 -364 -67l364 -98v-103z" />
<glyph unicode="&#x2265;" horiz-adv-x="516" d="M484 0h-452v100h452v-100zM484 234l-181 -50q-181 -51 -270 -76v103l363 98l-363 67v103l451 -97v-148z" />
<glyph unicode="&#x25cc;" horiz-adv-x="428" d="M214 645q15 0 15 -15t-15 -15t-15 15t15 15zM152 631q15 0 15 -15q0 -14 -15 -14t-15 14q0 15 15 15zM276 631q15 0 15 -15q0 -14 -15 -14t-15 14q0 15 15 15zM103 598q15 0 15 -15t-15 -15t-15 15t15 15zM326 598q15 0 15 -15t-15 -15q-16 0 -16 15t16 15zM71 548 q14 0 14 -14q0 -15 -14 -15q-15 0 -15 15q0 14 15 14zM358 548q14 0 14 -14q0 -15 -14 -15q-15 0 -15 15q0 14 15 14zM60 491q15 0 15 -16q0 -14 -15 -14t-15 14q0 16 15 16zM369 491q15 0 15 -16q0 -14 -15 -14t-15 14q0 16 15 16zM71 432q14 0 14 -15q0 -13 -14 -13 q-15 0 -15 13q0 15 15 15zM358 432q14 0 14 -15q0 -13 -14 -13q-15 0 -15 13q0 15 15 15zM103 383q15 0 15 -15q0 -14 -15 -14t-15 14q0 15 15 15zM326 383q15 0 15 -15q0 -14 -15 -14q-16 0 -16 14q0 15 16 15zM152 349q15 0 15 -13q0 -16 -15 -16t-15 16q0 13 15 13z M276 349q15 0 15 -13q0 -16 -15 -16t-15 16q0 13 15 13zM214 337q15 0 15 -16q0 -15 -15 -15t-15 15q0 16 15 16z" />
<glyph unicode="&#x25fc;" horiz-adv-x="455" d="M0 455h455v-455h-455v455z" />
<glyph unicode="&#xe028;" d="M66 -39q-30 0 -48 18t-18 49q0 29 18 47t48 18t47.5 -17.5t17.5 -47.5q0 -67 -65 -67z" />
<glyph unicode="&#xe030;" horiz-adv-x="938" d="M878 121h90v-121h-102q-74 0 -121 39q-48 -39 -122 -39h-357q-85 0 -133 57q-43 50 -43 129v102l125 66v-160q0 -40 16.5 -56.5t54.5 -16.5h326q38 0 54 17t16 56v184l126 66v-251q0 -39 16 -55.5t54 -16.5z" />
<glyph unicode="&#xe033;" horiz-adv-x="137" d="M65 0q-91 0 -141 58q-43 50 -43 129v191l126 66v-251q0 -39 16 -55.5t54 -16.5h90v-121h-102zM-52 -223q-30 0 -48 18t-18 49q0 29 18 47t48 18t47.5 -17.5t17.5 -47.5q0 -67 -65 -67z" />
<glyph unicode="&#xe034;" horiz-adv-x="137" d="M-135 532q-30 0 -48 18.5t-18 48.5q0 29 18.5 47t47.5 18q30 0 47.5 -17.5t17.5 -47.5q0 -67 -65 -67zM19 532q-30 0 -48 18t-18 49q0 29 18 47t48 18t47.5 -17.5t17.5 -47.5q0 -67 -65 -67zM65 0q-91 0 -141 58q-43 50 -43 129v191l126 66v-251q0 -39 16 -55.5t54 -16.5 h90v-121h-102z" />
<glyph unicode="&#xe035;" horiz-adv-x="137" d="M-57 679q-61 0 -61 62q0 27 16.5 43.5t44.5 16.5q60 0 60 -60q0 -62 -60 -62zM-133 532q-30 0 -48 18t-18 49q0 29 18 47t48 18t47.5 -17.5t17.5 -47.5q0 -67 -65 -67zM21 532q-30 0 -48 18t-18 49q0 29 18 47t48 18t47.5 -17.5t17.5 -47.5q0 -67 -65 -67zM65 0 q-91 0 -141 58q-43 50 -43 129v191l126 66v-251q0 -39 16 -55.5t54 -16.5h90v-121h-102z" />
<glyph unicode="&#xe036;" horiz-adv-x="619" d="M616 342q0 -212 -230 -212q-68 0 -116 18v-86q0 -116 -64 -188q-59 -67 -156 -67q-63 0 -123 32v110q52 -29 102 -29q55 0 85.5 35.5t30.5 98.5v323l125 67v-102q0 -51 25 -71t90 -20t90 20t25 71h116z" />
<glyph unicode="&#xe037;" horiz-adv-x="619" d="M205 545q-30 0 -48 18t-18 49q0 29 18 47t48 18t47.5 -17.5t17.5 -47.5q0 -67 -65 -67zM616 342q0 -212 -230 -212q-68 0 -116 18v-86q0 -116 -64 -188q-59 -67 -156 -67q-63 0 -123 32v110q52 -29 102 -29q55 0 85.5 35.5t30.5 98.5v323l125 67v-102q0 -51 25 -71 t90 -20t90 20t25 71h116z" />
<glyph unicode="&#xe038;" horiz-adv-x="958" d="M330 437q-30 0 -48 18t-18 49q0 29 18 47t48 18t47.5 -17.5t17.5 -47.5q0 -67 -65 -67zM955 342q0 -212 -231 -212q-67 0 -115 18v-84q0 -120 -83 -191q-74 -63 -189 -63q-135 0 -209 95q-58 74 -58 174q0 79 37 138l120 25q-40 -68 -40 -143q0 -76 43 -123 q41 -45 107 -45q69 0 107.5 35t38.5 98v314l126 66v-102q0 -51 25 -71t90 -20t90 20t25 71h116z" />
<glyph unicode="&#xe039;" horiz-adv-x="137" d="M-43 545q-30 0 -48 18t-18 49q0 29 18 47t48 18t47.5 -17.5t17.5 -47.5q0 -67 -65 -67zM65 0q-91 0 -141 58q-43 50 -43 129v191l126 66v-251q0 -39 16 -55.5t54 -16.5h90v-121h-102z" />
<glyph unicode="&#xe03a;" horiz-adv-x="137" d="M65 0q-91 0 -141 58q-43 50 -43 129v191l126 66v-251q0 -39 16 -55.5t54 -16.5h90v-121h-102zM-120 -223q-30 0 -48 18t-18 49q0 65 66 65q30 0 47.5 -17.5t17.5 -47.5q0 -67 -65 -67zM34 -223q-30 0 -48 18t-18 49q0 65 66 65q30 0 47.5 -17.5t17.5 -47.5q0 -67 -65 -67 z" />
<glyph unicode="&#xe03b;" horiz-adv-x="137" d="M-145 564l32 58h30q-11 20 -11 41q0 32 23.5 55t56.5 23q30 0 56 -21v-58q-24 21 -48 21q-33 0 -33 -30q0 -15 13 -31h99l-32 -58h-186zM65 0q-91 0 -141 58q-43 50 -43 129v191l126 66v-251q0 -39 16 -55.5t54 -16.5h90v-121h-102z" />
<glyph unicode="&#xe03d;" horiz-adv-x="719" d="M629 64q0 -120 -83 -191q-74 -63 -189 -63q-135 0 -209 95q-58 74 -58 174q0 79 37 138l120 25q-40 -68 -40 -143q0 -76 43 -123q41 -45 107 -45q69 0 107.5 35t38.5 98v314l126 66v-380z" />
<glyph unicode="&#xe03e;" horiz-adv-x="814" d="M549 75q-3 -181 -193 -181q-87 0 -144 45q-112 84 -112 251q0 212 241 349q-61 58 -61 136q0 57 35.5 92t94.5 35q60 0 95.5 -33.5t35.5 -90.5q0 -79 -75 -141q248 -137 248 -359q0 -185 -149 -278v45q75 81 75 230q0 92 -62 172t-174 134q-115 -51 -175 -136 q-50 -72 -50 -156q0 -119 72 -182q44 -39 105 -39q52 0 74 17.5t25 59.5q-23 -14 -51 -14q-72 0 -112 56q-31 44 -31 104q0 71 42 118q41 45 107 45q65 0 103 -37.5t38 -100.5zM406 573q56 36 56 96q0 56 -51 56q-52 0 -52 -56t47 -96zM457 209q0 67 -47 67 q-25 0 -40.5 -23.5t-15.5 -60.5q0 -36 14 -59.5t36 -23.5q34 0 53 32v68z" />
<glyph unicode="&#xe800;" d="M337 1065l-45 -96l-264 -48l45 96zM5 780l45 97l263 47l-45 -96zM210 647v60l71 39v-103q0 -34 -24.5 -56t-62.5 -22q-31 0 -52 14q-22 -14 -51 -14q-38 0 -62 22t-24 56v43l70 39v-78q0 -14 17 -14q16 0 16 13v51l70 39v-90q0 -13 16 -13t16 14z" />
<glyph unicode="&#xfbb2;" d="M66 -39q-30 0 -48 18t-18 49q0 29 18 47t48 18t47.5 -17.5t17.5 -47.5q0 -67 -65 -67z" />
<glyph unicode="&#xfbb3;" d="M66 -39q-30 0 -48 18t-18 49q0 29 18 47t48 18t47.5 -17.5t17.5 -47.5q0 -67 -65 -67z" />
<glyph unicode="&#xfbb4;" d="M66 0q-30 0 -48 18t-18 49q0 65 66 65q30 0 47.5 -17.5t17.5 -47.5q0 -67 -65 -67zM220 0q-30 0 -48 18t-18 49q0 65 66 65q30 0 47.5 -17.5t17.5 -47.5q0 -67 -65 -67z" />
<glyph unicode="&#xfbb5;" d="M66 0q-30 0 -48 18t-18 49q0 65 66 65q30 0 47.5 -17.5t17.5 -47.5q0 -67 -65 -67zM220 0q-30 0 -48 18t-18 49q0 65 66 65q30 0 47.5 -17.5t17.5 -47.5q0 -67 -65 -67z" />
<glyph unicode="&#xfbb6;" d="M142 147q-60 0 -60 61q0 59 60 59q59 0 59 -59q0 -61 -59 -61zM66 0q-30 0 -48 18t-18 49q0 65 66 65q30 0 47.5 -17.5t17.5 -47.5q0 -67 -65 -67zM220 0q-30 0 -48 18t-18 49q0 65 66 65q30 0 47.5 -17.5t17.5 -47.5q0 -67 -65 -67z" />
<glyph unicode="&#xfbb7;" d="M66 97q-30 0 -48 18t-18 48t18 48.5t48 18.5q65 0 65 -67q0 -66 -65 -66zM220 97q-30 0 -48 18t-18 48t18 48.5t48 18.5q65 0 65 -67q0 -66 -65 -66zM142 -37q-60 0 -60 59q0 60 60 60q59 0 59 -60q0 -59 -59 -59z" />
<glyph unicode="&#xfd3e;" horiz-adv-x="432" d="M325 -105q-136 60 -207 189q-58 105 -58 228q0 142 75 257q71 107 190 160v-112q-66 -46 -104.5 -128t-39.5 -179q0 -95 38 -174.5t106 -126.5v-114z" />
<glyph unicode="&#xfd3f;" horiz-adv-x="432" d="M106 -105v114q67 47 105.5 125.5t38.5 169.5q0 101 -38 183.5t-106 128.5v113q137 -61 208 -192q57 -106 57 -232q0 -140 -76 -253q-70 -105 -189 -157z" />
</font>
</defs>
</svg>
