<?xml version="1.0" standalone="no"?>
<!DOCTYPE svg PUBLIC "-//W3C//DTD SVG 1.1//EN" "http://www.w3.org/Graphics/SVG/1.1/DTD/svg11.dtd" >
<svg xmlns="http://www.w3.org/2000/svg" xmlns:xlink="http://www.w3.org/1999/xlink" version="1.1">
<metadata></metadata>
<defs>
<font id="tajawallight" horiz-adv-x="0" >
<font-face units-per-em="1000" ascent="645" descent="-355" />
<missing-glyph horiz-adv-x="220" />
<glyph unicode="ff" horiz-adv-x="624" d="M416 415h-265v-415h-47v415h-62v39h62v68q0 55 29.5 89t76.5 34q46 0 87 -28l-17 -28q-37 15 -61 15q-68 0 -68 -82v-68h265v68q0 55 29.5 89t76.5 34q46 0 87 -28l-17 -28q-37 15 -61 15q-68 0 -68 -82v-68h106v-39h-106v-415h-47v415z" />
<glyph unicode="fi" horiz-adv-x="530" d="M397 415h-246v-415h-47v415h-62v39h62v68q0 55 29.5 89t76.5 34q46 0 87 -28l-17 -28q-37 15 -61 15q-68 0 -68 -82v-68h293v-454h-47v415zM385 609q0 15 10.5 25.5t25.5 10.5t25.5 -10.5t10.5 -25.5t-10.5 -25.5t-25.5 -10.5t-25.5 10.5t-10.5 25.5z" />
<glyph unicode="fl" horiz-adv-x="515" d="M42 415v39h62v68q0 55 29.5 89t76.5 34q46 0 87 -28l-17 -28q-37 15 -61 15q-68 0 -68 -82v-68h106v-39h-106v-415h-47v415h-62zM437 645v-645h-47v619z" />
<glyph unicode="ffi" horiz-adv-x="842" d="M416 415h-265v-415h-47v415h-62v39h62v68q0 55 29.5 89t76.5 34q46 0 87 -28l-17 -28q-37 15 -61 15q-68 0 -68 -82v-68h265v68q0 55 29.5 89t76.5 34q46 0 87 -28l-17 -28q-37 15 -61 15q-68 0 -68 -82v-68h293v-454h-47v415h-246v-415h-47v415zM697 609q0 15 10.5 25.5 t25.5 10.5t25.5 -10.5t10.5 -25.5t-10.5 -25.5t-25.5 -10.5t-25.5 10.5t-10.5 25.5z" />
<glyph unicode="&#x627;&#xfedf;&#xfee0;&#xfeea;" horiz-adv-x="1292" arabic-form="isolated" d="M682 972v-110l-27 -15v110zM669 694q-17 -15 -39 -15q-23 0 -37 14t-14 37v19l27 15v-34q0 -24 25 -24q24 0 24 20v37l27 15v-52q0 -20 25 -20q24 0 24 24v43l27 15v-58q0 -23 -14 -37t-37 -14t-38 15zM1155 620l47 25v-645h-47v620zM968 170v384l47 25v-410 q0 -81 -47 -127q-44 -42 -117 -42h-40q-99 0 -140 73q-42 -73 -141 -73h-40q-113 0 -151 93q-53 -63 -136 -63q-84 0 -132 64q-41 54 -41 137q0 95 53 152q47 50 120 50q76 0 123 -49v66l47 25v-305q0 -128 124 -128h26q124 0 124 128v384l47 25v-409q0 -128 124 -128h26 q124 0 124 128zM326 327q-49 64 -123 64q-56 0 -91 -44.5t-35 -115.5q0 -72 34.5 -115.5t91.5 -43.5q74 0 125 66q-2 20 -2 31v158z" />
<glyph unicode="&#xfedf;&#xfe82;" horiz-adv-x="585" arabic-form="isolated" d="M448 620l47 25v-476q0 -81 -47 -127q-44 -42 -117 -42h-311l22 42h159v448l47 25v-473h76q124 0 124 128v450zM316 622q-25 -46 -58 -46q-23 0 -54 23q-18 12 -29 12q-18 0 -38 -30l-21 12q25 46 58 46q19 0 45 -19q22 -16 38 -16q17 0 38 30z" />
<glyph unicode="&#xfee0;&#xfe82;" horiz-adv-x="632" arabic-form="final" d="M619 42h43v-42h-50q-99 0 -140 73q-42 -73 -141 -73h-311l22 42h159v448l47 25v-473h76q124 0 124 128v450l47 25v-475q0 -128 124 -128zM316 622q-25 -46 -58 -46q-23 0 -54 23q-18 12 -29 12q-18 0 -38 -30l-21 12q25 46 58 46q19 0 45 -19q22 -16 38 -16q17 0 38 30z " />
<glyph unicode="&#xfedf;&#xfe84;" horiz-adv-x="585" arabic-form="isolated" d="M287 632l-15 -28h-144l15 28h24q-9 17 -9 34q0 27 20 47t48 20q19 0 38 -11v-31q-18 13 -36 13q-16 0 -28 -11t-12 -26q0 -18 15 -35h84zM448 620l47 25v-476q0 -81 -47 -127q-44 -42 -117 -42h-311l22 42h159v448l47 25v-473h76q124 0 124 128v450z" />
<glyph unicode="&#xfee0;&#xfe84;" horiz-adv-x="632" arabic-form="final" d="M287 632l-15 -28h-144l15 28h24q-9 17 -9 34q0 27 20 47t48 20q19 0 38 -11v-31q-18 13 -36 13q-16 0 -28 -11t-12 -26q0 -18 15 -35h84zM619 42h43v-42h-50q-99 0 -140 73q-42 -73 -141 -73h-311l22 42h159v448l47 25v-473h76q124 0 124 128v450l47 25v-475 q0 -128 124 -128z" />
<glyph unicode="&#xfedf;&#xfe88;" horiz-adv-x="585" arabic-form="isolated" d="M448 620l47 25v-476q0 -81 -47 -127q-44 -42 -117 -42h-311l22 42h159v448l47 25v-473h76q124 0 124 128v450zM266 -137q-18 13 -36 13q-16 0 -28 -11t-12 -26q0 -18 15 -35h84l-15 -28h-144l15 28h24q-9 17 -9 34q0 27 20 47t48 20q19 0 38 -11v-31z" />
<glyph unicode="&#xfee0;&#xfe88;" horiz-adv-x="632" arabic-form="final" d="M619 42h43v-42h-50q-99 0 -140 73q-42 -73 -141 -73h-311l22 42h159v448l47 25v-473h76q124 0 124 128v450l47 25v-475q0 -128 124 -128zM266 -137q-18 13 -36 13q-16 0 -28 -11t-12 -26q0 -18 15 -35h84l-15 -28h-144l15 28h24q-9 17 -9 34q0 27 20 47t48 20 q19 0 38 -11v-31z" />
<glyph unicode="&#xfedf;&#xfe8e;" horiz-adv-x="585" arabic-form="isolated" d="M448 620l47 25v-476q0 -81 -47 -127q-44 -42 -117 -42h-311l22 42h159v448l47 25v-473h76q124 0 124 128v450z" />
<glyph unicode="&#xfee0;&#xfe8e;" horiz-adv-x="632" arabic-form="final" d="M619 42h43v-42h-50q-99 0 -140 73q-42 -73 -141 -73h-311l22 42h159v448l47 25v-473h76q124 0 124 128v450l47 25v-475q0 -128 124 -128z" />
<glyph unicode="&#x67e;" horiz-adv-x="906" arabic-form="final" d="M893 42h23v-42h-30q-98 0 -140 73q-43 -73 -142 -73h-357q-72 0 -114.5 45t-42.5 122v141l47 25v-158q0 -133 124 -133h338q123 0 123 133v223l47 25v-253q0 -128 124 -128zM422 -143q0 -32 -31 -32q-32 0 -32 32q0 33 32 33q31 0 31 -33zM492 -110q31 0 31 -33 q0 -32 -31 -32q-32 0 -32 32q0 33 32 33zM441 -200q28 0 28 -30q0 -29 -28 -29q-29 0 -29 29q0 30 29 30z" />
<glyph unicode="&#x67e;" horiz-adv-x="274" arabic-form="initial" d="M-10 0v42h23q124 0 124 128v228l47 25v-254q0 -81 -47 -127q-44 -42 -117 -42h-30zM26 -175q-32 0 -32 32q0 33 32 33q31 0 31 -33q0 -32 -31 -32zM127 -175q-32 0 -32 32q0 33 32 33q31 0 31 -33q0 -32 -31 -32zM76 -259q-29 0 -29 29q0 30 29 30q28 0 28 -30 q0 -29 -28 -29z" />
<glyph unicode="&#x67e;" horiz-adv-x="321" arabic-form="medial" d="M308 42h23v-42h-30q-99 0 -140 73q-42 -73 -141 -73h-30v42h23q124 0 124 128v228l47 25v-253q0 -128 124 -128zM87 -143q0 -32 -31 -32q-32 0 -32 32q0 33 32 33q31 0 31 -33zM157 -110q31 0 31 -33q0 -32 -31 -32q-32 0 -32 32q0 33 32 33zM106 -200q28 0 28 -30 q0 -29 -28 -29q-29 0 -29 29q0 30 29 30z" />
<glyph unicode="&#x6a4;" horiz-adv-x="940" arabic-form="final" d="M675 657q-29 0 -29 30q0 29 29 29q28 0 28 -29q0 -30 -28 -30zM625 567q-32 0 -32 33q0 32 32 32q31 0 31 -32q0 -33 -31 -33zM694 600q0 32 32 32q31 0 31 -32q0 -33 -31 -33q-32 0 -32 33zM754 42h196v-42h-219q-29 0 -56 7q-27 -7 -56 -7h-372q-72 0 -114.5 45 t-42.5 122v141l47 25v-158q0 -133 124 -133h335q-45 32 -72 83.5t-27 105.5q0 97 52 152q48 50 126 50q89 0 138 -64q40 -54 40 -138q0 -54 -27 -105.5t-72 -83.5zM675 49l9 3q55 19 90 69.5t35 109.5q0 73 -36.5 116.5t-97.5 43.5t-97.5 -43.5t-36.5 -116.5 q0 -59 35 -109.5t90 -69.5z" />
<glyph unicode="&#x6a4;" horiz-adv-x="530" arabic-form="initial" d="M283 657q-29 0 -29 30q0 29 29 29q28 0 28 -29q0 -30 -28 -30zM233 567q-32 0 -32 33q0 32 32 32q31 0 31 -32q0 -33 -31 -33zM334 567q-32 0 -32 33q0 32 32 32q31 0 31 -32q0 -33 -31 -33zM-10 0v42h180q-63 57 -63 174q0 107 54 165q48 52 127 52q75 0 118.5 -45 t43.5 -123v-99q-1 -80 -48 -125q-43 -41 -116 -41h-296zM403 257q0 134 -115 134q-63 0 -98.5 -46.5t-35.5 -128.5q0 -80 36 -128q34 -46 89 -46q124 0 124 128v87z" />
<glyph unicode="&#x6a4;" horiz-adv-x="550" arabic-form="medial" d="M283 657q-29 0 -29 30q0 29 29 29q28 0 28 -29q0 -30 -28 -30zM233 567q-32 0 -32 33q0 32 32 32q31 0 31 -32q0 -33 -31 -33zM302 600q0 32 32 32q31 0 31 -32q0 -33 -31 -33q-32 0 -32 33zM354 42h206v-42h-229q-29 0 -56 7q-27 -7 -56 -7h-229v42h206q-45 32 -72 83.5 t-27 105.5q0 97 52 152q48 50 126 50q89 0 138 -64q40 -54 40 -138q0 -54 -27 -105.5t-72 -83.5zM275 49l9 3q55 19 90 69.5t35 109.5q0 73 -36.5 116.5t-97.5 43.5t-97.5 -43.5t-36.5 -116.5q0 -59 35 -109.5t90 -69.5z" />
<glyph unicode="&#x649;" horiz-adv-x="274" arabic-form="initial" d="M-30 0v42h43q124 0 124 128v228l47 25v-254q0 -81 -47 -127q-44 -42 -117 -42h-50z" />
<glyph unicode="&#x649;" horiz-adv-x="321" arabic-form="medial" d="M308 42h43v-42h-50q-99 0 -140 73q-42 -73 -141 -73h-50v42h43q124 0 124 128v228l47 25v-253q0 -128 124 -128z" />
<glyph unicode="&#xfc59;" horiz-adv-x="986" arabic-form="isolated" d="M640 0q-6 -84 -86 -138q-78 -52 -202 -52q-150 0 -225 88q-57 66 -57 162q0 89 46 151l47 10q-51 -74 -51 -161q0 -95 67 -152q64 -56 173 -56q119 0 185 53q50 39 55 95h-104l22 42h215q124 0 124 128v228l47 25v-254q0 -81 -47 -127q-44 -42 -117 -42h-92zM734 -175 q-32 0 -32 33q0 32 32 32q31 0 31 -32q0 -33 -31 -33zM835 -175q-32 0 -32 33q0 32 32 32q31 0 31 -32q0 -33 -31 -33z" />
<glyph unicode="&#xfc5a;" horiz-adv-x="986" arabic-form="isolated" d="M640 0q-6 -84 -86 -138q-78 -52 -202 -52q-150 0 -225 88q-57 66 -57 162q0 89 46 151l47 10q-51 -74 -51 -161q0 -95 67 -152q64 -56 173 -56q119 0 185 53q50 39 55 95h-104l22 42h215q124 0 124 128v228l47 25v-254q0 -81 -47 -127q-44 -42 -117 -42h-92zM304 -363 q-32 0 -32 33q0 32 32 32q31 0 31 -32q0 -33 -31 -33zM405 -363q-32 0 -32 33q0 32 32 32q31 0 31 -32q0 -33 -31 -33zM734 -175q-32 0 -32 33q0 32 32 32q31 0 31 -32q0 -33 -31 -33zM835 -175q-32 0 -32 33q0 32 32 32q31 0 31 -32q0 -33 -31 -33z" />
<glyph unicode="&#xfc5e;" arabic-form="isolated" d="M53 752l-22 -36l-23 11l35 57h16q21 -46 64 -46q7 0 14 2q-34 17 -34 57q0 23 14.5 39t36.5 16q23 0 37.5 -15.5t14.5 -39.5q0 -37 -23.5 -61.5t-59.5 -24.5q-48 0 -70 41zM159 753q20 17 20 42q0 33 -25 33t-25 -33q0 -30 30 -42zM158 616v43l27 15v-58q0 -23 -14 -37 t-37 -14t-38 15q-17 -15 -39 -15q-23 0 -37 14t-14 37v19l27 15v-34q0 -24 25 -24q24 0 24 20v37l27 15v-52q0 -20 25 -20q24 0 24 24z" />
<glyph unicode="&#xfc5f;" arabic-form="isolated" d="M90 746q-17 -15 -39 -15q-23 0 -37 14t-14 37v19l27 15v-34q0 -24 25 -24q24 0 24 20v37l27 15v-52q0 -20 25 -20q24 0 24 24v43l27 15v-58q0 -23 -14 -37t-37 -14t-38 15zM10 627l15 32l164 30l-15 -32zM0 565l15 32l164 30l-15 -32z" />
<glyph unicode="&#xfc60;" arabic-form="isolated" d="M179 781l-15 -32l-164 -30l15 32zM152 616v43l27 15v-58q0 -23 -14 -37t-37 -14t-38 15q-17 -15 -39 -15q-23 0 -37 14t-14 37v19l27 15v-34q0 -24 25 -24q24 0 24 20v37l27 15v-52q0 -20 25 -20q24 0 24 24z" />
<glyph unicode="&#xfc61;" arabic-form="isolated" d="M105 758q-20 20 -20 50q0 23 14.5 39t36.5 16q23 0 37.5 -15.5t14.5 -39.5q0 -65 -57 -75l-131 -24l15 32zM138 765q23 16 23 41q0 33 -25 33t-25 -33q0 -27 27 -41zM152 616v43l27 15v-58q0 -23 -14 -37t-37 -14t-38 15q-17 -15 -39 -15q-23 0 -37 14t-14 37v19l27 15 v-34q0 -24 25 -24q24 0 24 20v37l27 15v-52q0 -20 25 -20q24 0 24 24z" />
<glyph unicode="&#xfc62;" arabic-form="isolated" d="M152 757l27 15v-58q0 -23 -14 -37t-37 -14t-38 15q-17 -15 -39 -15q-23 0 -37 14t-14 37v19l27 15v-34q0 -24 25 -24q24 0 24 20v37l27 15v-52q0 -20 25 -20q24 0 24 24v43zM0 565l15 32l164 30l-15 -32z" />
<glyph unicode="&#xfc63;" arabic-form="isolated" d="M169 861v-110l-27 -15v110zM156 583q-17 -15 -39 -15q-23 0 -37 14.5t-14 36.5v19l27 15v-34q0 -24 25 -24q24 0 24 20v37l27 15v-52q0 -20 25 -20q24 0 24 24v43l27 15v-58q0 -22 -14 -36.5t-37 -14.5t-38 15z" />
<glyph unicode="&#xfc95;" horiz-adv-x="1003" arabic-form="final" d="M640 0q-6 -84 -86 -138q-78 -52 -202 -52q-150 0 -225 88q-57 66 -57 162q0 89 46 151l47 10q-51 -74 -51 -161q0 -95 67 -152q64 -56 173 -56q119 0 185 53q50 39 55 95h-104l22 42h185q124 0 124 128v228l47 25v-253q0 -128 124 -128h43v-42h-50q-99 0 -140 73 q-42 -73 -141 -73h-62zM773 -110q31 0 31 -33q0 -32 -31 -32q-32 0 -32 32q0 33 32 33zM874 -110q31 0 31 -33q0 -32 -31 -32q-32 0 -32 32q0 33 32 33z" />
<glyph unicode="&#xfc96;" horiz-adv-x="1003" arabic-form="final" d="M640 0q-6 -84 -86 -138q-78 -52 -202 -52q-150 0 -225 88q-57 66 -57 162q0 89 46 151l47 10q-51 -74 -51 -161q0 -95 67 -152q64 -56 173 -56q119 0 185 53q50 39 55 95h-104l22 42h185q124 0 124 128v228l47 25v-253q0 -128 124 -128h43v-42h-50q-99 0 -140 73 q-42 -73 -141 -73h-62zM304 -363q-32 0 -32 33q0 32 32 32q31 0 31 -32q0 -33 -31 -33zM405 -363q-32 0 -32 33q0 32 32 32q31 0 31 -32q0 -33 -31 -33zM773 -110q31 0 31 -33q0 -32 -31 -32q-32 0 -32 32q0 33 32 33zM874 -110q31 0 31 -33q0 -32 -31 -32q-32 0 -32 32 q0 33 32 33z" />
<glyph unicode="&#x622;" horiz-adv-x="274" arabic-form="final" d="M212 747q-25 -46 -58 -46q-23 0 -54 23q-18 12 -29 12q-19 0 -38 -30l-21 12q25 46 58 46q19 0 45 -19q22 -16 38 -16q17 0 38 30zM254 0q-76 0 -120 45.5t-44 123.5v451l47 25v-475q0 -128 124 -128h43v-42h-50z" />
<glyph unicode="&#x623;" horiz-adv-x="274" arabic-form="final" d="M32 698l15 28h24q-9 17 -9 34q0 27 20 47t48 20q19 0 38 -11v-31q-18 13 -36 13q-16 0 -28 -11t-12 -26q0 -18 15 -35h84l-15 -28h-144zM254 0q-76 0 -120 45.5t-44 123.5v451l47 25v-475q0 -128 124 -128h43v-42h-50z" />
<glyph unicode="&#x624;" horiz-adv-x="500" arabic-form="final" d="M298 589l-15 -28h-144l15 28h24q-9 17 -9 34q0 27 20 47t48 20q19 0 38 -11v-31q-18 13 -36 13q-16 0 -28 -11t-12 -26q0 -18 15 -35h84zM403 42h127v-42h-127q0 -86 -66 -142q-56 -48 -130 -48q-57 0 -109 26v42q52 -27 104 -27q66 0 113 48q41 42 41 99v2q-27 0 -83 2 q-213 6 -213 214q0 107 54 165q48 52 127 52q75 0 118.5 -45t43.5 -123v-223zM356 257q0 134 -115 134q-63 0 -98.5 -46.5t-35.5 -128.5q0 -162 166 -172q27 -2 83 -2v215z" />
<glyph unicode="&#x625;" horiz-adv-x="274" arabic-form="final" d="M254 0q-76 0 -120 45.5t-44 123.5v451l47 25v-475q0 -128 124 -128h43v-42h-50zM89 -224l15 28h24q-9 17 -9 34q0 27 20 47t48 20q19 0 38 -11v-31q-18 13 -36 13q-16 0 -28 -11t-12 -26q0 -18 15 -35h84l-15 -28h-144z" />
<glyph unicode="&#x626;" horiz-adv-x="619" arabic-form="final" d="M124 338l15 28h24q-9 17 -9 34q0 27 20 47t48 20q19 0 38 -11v-31q-18 13 -36 13q-16 0 -28 -11t-12 -26q0 -18 15 -35h84l-15 -28h-144zM640 0q-6 -84 -86 -138q-78 -52 -202 -52q-150 0 -225 88q-57 66 -57 162q0 89 46 151l47 10q-51 -74 -51 -161q0 -95 67 -152 q64 -56 173 -56q119 0 185 53q50 39 55 95h-104l22 42h133v-42h-3z" />
<glyph unicode="&#x626;" horiz-adv-x="254" arabic-form="initial" d="M52 561l15 28h24q-9 17 -9 34q0 27 20 47t48 20q19 0 38 -11v-31q-18 13 -36 13q-16 0 -28 -11t-12 -26q0 -18 15 -35h84l-15 -28h-144zM-30 0v42h43q124 0 124 128v228l47 25v-254q0 -81 -47 -127q-44 -42 -117 -42h-50z" />
<glyph unicode="&#x626;" horiz-adv-x="321" arabic-form="medial" d="M211 589l-15 -28h-144l15 28h24q-9 17 -9 34q0 27 20 47t48 20q19 0 38 -11v-31q-18 13 -36 13q-16 0 -28 -11t-12 -26q0 -18 15 -35h84zM308 42h43v-42h-50q-99 0 -140 73q-42 -73 -141 -73h-50v42h43q124 0 124 128v228l47 25v-253q0 -128 124 -128z" />
<glyph unicode="&#x627;" horiz-adv-x="274" arabic-form="final" d="M254 0q-76 0 -120 45.5t-44 123.5v451l47 25v-475q0 -128 124 -128h43v-42h-50z" />
<glyph unicode="&#x628;" horiz-adv-x="886" arabic-form="final" d="M893 42h23v-42h-30q-98 0 -140 73q-43 -73 -142 -73h-357q-72 0 -114.5 45t-42.5 122v141l47 25v-158q0 -133 124 -133h338q123 0 123 133v223l47 25v-253q0 -128 124 -128zM378 -110q31 0 31 -32q0 -33 -31 -33q-32 0 -32 33q0 32 32 32z" />
<glyph unicode="&#x628;" horiz-adv-x="274" arabic-form="initial" d="M-30 0v42h43q124 0 124 128v228l47 25v-254q0 -81 -47 -127q-44 -42 -117 -42h-50zM133 -175q-32 0 -32 33q0 32 32 32q31 0 31 -32q0 -33 -31 -33z" />
<glyph unicode="&#x628;" horiz-adv-x="321" arabic-form="medial" d="M308 42h43v-42h-50q-99 0 -140 73q-42 -73 -141 -73h-50v42h43q124 0 124 128v228l47 25v-253q0 -128 124 -128zM143 -110q31 0 31 -32q0 -33 -31 -33q-32 0 -32 33q0 32 32 32z" />
<glyph unicode="&#x629;" horiz-adv-x="510" arabic-form="final" d="M194 565q-32 0 -32 33q0 32 32 32q31 0 31 -32q0 -33 -31 -33zM295 565q-32 0 -32 33q0 32 32 32q31 0 31 -32q0 -33 -31 -33zM497 42h43v-42h-50q-113 0 -151 93q-53 -63 -136 -63q-84 0 -132 64q-41 54 -41 137q0 95 53 152q47 50 120 50q76 0 123 -49v66l47 25v-305 q0 -128 124 -128zM326 327q-49 64 -123 64q-56 0 -91 -44.5t-35 -115.5q0 -72 34.5 -115.5t91.5 -43.5q74 0 125 66q-2 20 -2 31v158z" />
<glyph unicode="&#x62a;" horiz-adv-x="886" arabic-form="final" d="M353 465q-32 0 -32 33q0 32 32 32q31 0 31 -32q0 -33 -31 -33zM454 465q-32 0 -32 33q0 32 32 32q31 0 31 -32q0 -33 -31 -33zM893 42h23v-42h-30q-98 0 -140 73q-43 -73 -142 -73h-357q-72 0 -114.5 45t-42.5 122v141l47 25v-158q0 -133 124 -133h338q123 0 123 133v223 l47 25v-253q0 -128 124 -128z" />
<glyph unicode="&#x62a;" horiz-adv-x="274" arabic-form="initial" d="M52 565q-32 0 -32 33q0 32 32 32q31 0 31 -32q0 -33 -31 -33zM153 565q-32 0 -32 33q0 32 32 32q31 0 31 -32q0 -33 -31 -33zM-30 0v42h43q124 0 124 128v228l47 25v-254q0 -81 -47 -127q-44 -42 -117 -42h-50z" />
<glyph unicode="&#x62a;" horiz-adv-x="321" arabic-form="medial" d="M100 565q-32 0 -32 33q0 32 32 32q31 0 31 -32q0 -33 -31 -33zM201 565q-32 0 -32 33q0 32 32 32q31 0 31 -32q0 -33 -31 -33zM308 42h43v-42h-50q-99 0 -140 73q-42 -73 -141 -73h-50v42h43q124 0 124 128v228l47 25v-253q0 -128 124 -128z" />
<glyph unicode="&#x62b;" horiz-adv-x="886" arabic-form="final" d="M403 555q-32 0 -32 33q0 32 32 32q31 0 31 -32q0 -33 -31 -33zM353 465q-32 0 -32 33q0 32 32 32q31 0 31 -32q0 -33 -31 -33zM422 498q0 32 32 32q31 0 31 -32q0 -33 -31 -33q-32 0 -32 33zM893 42h23v-42h-30q-98 0 -140 73q-43 -73 -142 -73h-357q-72 0 -114.5 45 t-42.5 122v141l47 25v-158q0 -133 124 -133h338q123 0 123 133v223l47 25v-253q0 -128 124 -128z" />
<glyph unicode="&#x62b;" horiz-adv-x="274" arabic-form="initial" d="M102 655q-29 0 -29 30q0 29 29 29q28 0 28 -29q0 -30 -28 -30zM52 565q-32 0 -32 33q0 32 32 32q31 0 31 -32q0 -33 -31 -33zM153 565q-32 0 -32 33q0 32 32 32q31 0 31 -32q0 -33 -31 -33zM-30 0v42h43q124 0 124 128v228l47 25v-254q0 -81 -47 -127q-44 -42 -117 -42 h-50z" />
<glyph unicode="&#x62b;" horiz-adv-x="321" arabic-form="medial" d="M154 655q-32 0 -32 33q0 32 32 32q31 0 31 -32q0 -33 -31 -33zM104 565q-32 0 -32 33q0 32 32 32q31 0 31 -32q0 -33 -31 -33zM173 598q0 32 32 32q31 0 31 -32q0 -33 -31 -33q-32 0 -32 33zM308 42h43v-42h-50q-99 0 -140 73q-42 -73 -141 -73h-50v42h43q124 0 124 128 v228l47 25v-253q0 -128 124 -128z" />
<glyph unicode="&#x62c;" horiz-adv-x="672" arabic-form="final" d="M677 42h25v-42h-26q-88 0 -139.5 21.5t-95.5 76.5q-36 -14 -122 -30q-114 -22 -156 -65q-51 -53 -51 -145q0 -89 61 -144q52 -47 131 -47q119 0 183 51v-42q-80 -51 -183 -51q-109 0 -176 75q-58 65 -58 160q0 103 64 170q34 35 70 49t144 35q127 24 176 90 q-94 187 -235 187q-85 0 -162 -86v50q81 78 167 78q154 0 268 -210v-38q-36 -45 -88 -73q35 -39 80 -54.5t123 -15.5zM262 -142q0 32 32 32q31 0 31 -32q0 -33 -31 -33q-32 0 -32 33z" />
<glyph unicode="&#x62c;" horiz-adv-x="544" arabic-form="initial" d="M-30 0v42h126q230 0 360 162q-94 187 -235 187q-85 0 -162 -86v50q81 78 167 78q154 0 268 -210v-38q-144 -185 -399 -185h-125zM245 -175q-32 0 -32 33q0 32 32 32q31 0 31 -32q0 -33 -31 -33z" />
<glyph unicode="&#x62c;" horiz-adv-x="637" arabic-form="medial" d="M622 42h45v-42h-46q-85 0 -135 19.5t-93 69.5q-127 -89 -298 -89h-125v42h126q230 0 360 162q-94 187 -235 187q-85 0 -162 -86v50q81 78 167 78q154 0 268 -210v-38q-35 -45 -73 -75q35 -38 79.5 -53t121.5 -15zM245 -110q31 0 31 -32q0 -33 -31 -33q-32 0 -32 33 q0 32 32 32z" />
<glyph unicode="&#x62d;" horiz-adv-x="692" arabic-form="final" d="M677 42h45v-42h-46q-88 0 -139.5 21.5t-95.5 76.5q-36 -14 -122 -30q-114 -22 -156 -65q-51 -53 -51 -145q0 -89 61 -144q52 -47 131 -47q119 0 183 51v-42q-80 -51 -183 -51q-109 0 -176 75q-58 65 -58 160q0 103 64 170q34 35 70 49t144 35q127 24 176 90 q-94 187 -235 187q-85 0 -162 -86v50q81 78 167 78q154 0 268 -210v-38q-36 -45 -88 -73q35 -39 80 -54.5t123 -15.5z" />
<glyph unicode="&#x62d;" horiz-adv-x="544" arabic-form="initial" d="M-30 0v42h126q230 0 360 162q-94 187 -235 187q-85 0 -162 -86v50q81 78 167 78q154 0 268 -210v-38q-144 -185 -399 -185h-125z" />
<glyph unicode="&#x62d;" horiz-adv-x="637" arabic-form="medial" d="M622 42h45v-42h-46q-85 0 -135 19.5t-93 69.5q-127 -89 -298 -89h-125v42h126q230 0 360 162q-94 187 -235 187q-85 0 -162 -86v50q81 78 167 78q154 0 268 -210v-38q-35 -45 -73 -75q35 -38 79.5 -53t121.5 -15z" />
<glyph unicode="&#x62e;" horiz-adv-x="692" arabic-form="final" d="M327 565q-32 0 -32 33q0 32 32 32q31 0 31 -32q0 -33 -31 -33zM677 42h45v-42h-46q-88 0 -139.5 21.5t-95.5 76.5q-36 -14 -122 -30q-114 -22 -156 -65q-51 -53 -51 -145q0 -89 61 -144q52 -47 131 -47q119 0 183 51v-42q-80 -51 -183 -51q-109 0 -176 75q-58 65 -58 160 q0 103 64 170q34 35 70 49t144 35q127 24 176 90q-94 187 -235 187q-85 0 -162 -86v50q81 78 167 78q154 0 268 -210v-38q-36 -45 -88 -73q35 -39 80 -54.5t123 -15.5z" />
<glyph unicode="&#x62e;" horiz-adv-x="544" arabic-form="initial" d="M266 565q-32 0 -32 33q0 32 32 32q31 0 31 -32q0 -33 -31 -33zM-30 0v42h126q230 0 360 162q-94 187 -235 187q-85 0 -162 -86v50q81 78 167 78q154 0 268 -210v-38q-144 -185 -399 -185h-125z" />
<glyph unicode="&#x62e;" horiz-adv-x="637" arabic-form="medial" d="M266 565q-32 0 -32 33q0 32 32 32q31 0 31 -32q0 -33 -31 -33zM622 42h45v-42h-46q-85 0 -135 19.5t-93 69.5q-127 -89 -298 -89h-125v42h126q230 0 360 162q-94 187 -235 187q-85 0 -162 -86v50q81 78 167 78q154 0 268 -210v-38q-35 -45 -73 -75q35 -38 79.5 -53 t121.5 -15z" />
<glyph unicode="&#x62f;" horiz-adv-x="507" arabic-form="final" d="M10 0l22 42h197q52 0 73 26.5t21 91.5q0 158 -138 231l25 42q160 -93 160 -263q0 -128 124 -128h43v-42h-50q-91 0 -135 64q-32 -64 -116 -64h-226z" />
<glyph unicode="&#x630;" horiz-adv-x="507" arabic-form="final" d="M214 565q-32 0 -32 33q0 32 32 32q31 0 31 -32q0 -33 -31 -33zM10 0l22 42h197q52 0 73 26.5t21 91.5q0 158 -138 231l25 42q160 -93 160 -263q0 -128 124 -128h43v-42h-50q-91 0 -135 64q-32 -64 -116 -64h-226z" />
<glyph unicode="&#x631;" horiz-adv-x="342" arabic-form="final" d="M329 42h43v-42h-50q-73 0 -117 42q0 -108 -55 -171q-52 -61 -141 -61q-57 0 -109 26v42q52 -27 104 -27q82 0 123 64q31 50 31 126v357l47 25v-253q0 -128 124 -128z" />
<glyph unicode="&#x632;" horiz-adv-x="342" arabic-form="final" d="M159 565q-32 0 -32 33q0 32 32 32q31 0 31 -32q0 -33 -31 -33zM329 42h43v-42h-50q-73 0 -117 42q0 -108 -55 -171q-52 -61 -141 -61q-57 0 -109 26v42q52 -27 104 -27q82 0 123 64q31 50 31 126v357l47 25v-253q0 -128 124 -128z" />
<glyph unicode="&#x633;" horiz-adv-x="1378" arabic-form="final" d="M1335 42h73v-42h-80q-99 0 -140 73q-42 -73 -141 -73h-40q-99 0 -140 73q-42 -73 -141 -73h-40q-73 0 -117 42q-1 -110 -77 -175q-68 -57 -175 -57q-125 0 -194 88q-53 68 -53 162q0 89 46 151l47 10q-51 -74 -51 -161q0 -92 61 -152q57 -56 144 -56q102 0 158 61 q47 51 47 131v274l47 25v-173q0 -128 124 -128h26q124 0 124 128v188l47 25v-213q0 -128 124 -128h26q124 0 124 128v228l47 25v-253q0 -128 124 -128z" />
<glyph unicode="&#x633;" horiz-adv-x="946" arabic-form="initial" d="M-30 0v42h73q124 0 124 128v148l47 25v-173q0 -128 124 -128h26q124 0 124 128v188l47 25v-213q0 -128 124 -128h26q124 0 124 128v228l47 25v-254q0 -81 -47 -127q-44 -42 -117 -42h-40q-99 0 -140 73q-42 -73 -141 -73h-40q-99 0 -140 73q-42 -73 -141 -73h-80z" />
<glyph unicode="&#x633;" horiz-adv-x="1023" arabic-form="medial" d="M-30 0v42h73q124 0 124 128v148l47 25v-173q0 -128 124 -128h26q124 0 124 128v188l47 25v-213q0 -128 124 -128h26q124 0 124 128v228l47 25v-253q0 -128 124 -128h73v-42h-80q-99 0 -141 73q-41 -73 -140 -73h-40q-99 0 -140 73q-42 -73 -141 -73h-40q-99 0 -140 73 q-42 -73 -141 -73h-80z" />
<glyph unicode="&#x634;" horiz-adv-x="1378" arabic-form="final" d="M863 615q-29 0 -29 30q0 29 29 29q28 0 28 -29q0 -30 -28 -30zM813 525q-32 0 -32 33q0 32 32 32q31 0 31 -32q0 -33 -31 -33zM882 558q0 32 32 32q31 0 31 -32q0 -33 -31 -33q-32 0 -32 33zM1335 42h73v-42h-80q-99 0 -140 73q-42 -73 -141 -73h-40q-99 0 -140 73 q-42 -73 -141 -73h-40q-73 0 -117 42q-1 -110 -77 -175q-68 -57 -175 -57q-125 0 -194 88q-53 68 -53 162q0 89 46 151l47 10q-51 -74 -51 -161q0 -92 61 -152q57 -56 144 -56q102 0 158 61q47 51 47 131v274l47 25v-173q0 -128 124 -128h26q124 0 124 128v188l47 25v-213 q0 -128 124 -128h26q124 0 124 128v228l47 25v-253q0 -128 124 -128z" />
<glyph unicode="&#x634;" horiz-adv-x="946" arabic-form="initial" d="M502 615q-29 0 -29 30q0 29 29 29q28 0 28 -29q0 -30 -28 -30zM452 525q-32 0 -32 33q0 32 32 32q31 0 31 -32q0 -33 -31 -33zM553 525q-32 0 -32 33q0 32 32 32q31 0 31 -32q0 -33 -31 -33zM-30 0v42h73q124 0 124 128v148l47 25v-173q0 -128 124 -128h26q124 0 124 128 v188l47 25v-213q0 -128 124 -128h26q124 0 124 128v228l47 25v-254q0 -81 -47 -127q-44 -42 -117 -42h-40q-99 0 -140 73q-42 -73 -141 -73h-40q-99 0 -140 73q-42 -73 -141 -73h-80z" />
<glyph unicode="&#x634;" horiz-adv-x="1023" arabic-form="medial" d="M502 615q-29 0 -29 30q0 29 29 29q28 0 28 -29q0 -30 -28 -30zM452 525q-32 0 -32 33q0 32 32 32q31 0 31 -32q0 -33 -31 -33zM553 525q-32 0 -32 33q0 32 32 32q31 0 31 -32q0 -33 -31 -33zM-30 0v42h73q124 0 124 128v148l47 25v-173q0 -128 124 -128h26q124 0 124 128 v188l47 25v-213q0 -128 124 -128h26q124 0 124 128v228l47 25v-253q0 -128 124 -128h73v-42h-80q-99 0 -141 73q-41 -73 -140 -73h-40q-99 0 -140 73q-42 -73 -141 -73h-40q-99 0 -140 73q-42 -73 -141 -73h-80z" />
<glyph unicode="&#x635;" horiz-adv-x="1385" arabic-form="final" d="M1372 42h43v-42h-50q-97 0 -140 72q-42 -72 -141 -72h-398q-73 0 -117 42q-1 -110 -77 -175q-68 -57 -175 -57q-125 0 -194 88q-53 68 -53 162q0 89 46 151l47 10q-51 -74 -51 -161q0 -92 61 -152q57 -56 144 -56q102 0 158 61q47 51 47 131v274l47 25v-173 q0 -103 80 -123q33 156 125 265q104 121 245 121q110 0 174 -76q55 -64 55 -160v-27q0 -128 124 -128zM1079 42q122 0 122 133v22q0 91 -57 146q-50 48 -124 48q-129 0 -225 -123q-72 -93 -105 -226h3h386z" />
<glyph unicode="&#x635;" horiz-adv-x="938" arabic-form="initial" d="M265 47q32 156 125 265q102 121 244 121q110 0 174 -76q55 -64 55 -160v-30q0 -83 -50 -128q-43 -39 -114 -39h-398q-99 0 -140 73q-42 -73 -141 -73h-50v42h43q124 0 124 128v148l47 25v-173q0 -103 81 -123zM816 175v22q0 91 -57 146q-50 48 -124 48q-128 0 -224 -124 q-72 -92 -106 -225h3h386q122 0 122 133z" />
<glyph unicode="&#x635;" horiz-adv-x="1000" arabic-form="medial" d="M987 42h43v-42h-50q-97 0 -140 72q-42 -72 -141 -72h-398q-99 0 -140 73q-42 -73 -141 -73h-50v42h43q124 0 124 128v148l47 25v-173q0 -103 81 -123q32 156 125 265q102 121 244 121q110 0 174 -76q55 -64 55 -160v-27q0 -128 124 -128zM694 42q122 0 122 133v22 q0 91 -57 146q-50 48 -124 48q-128 0 -224 -124q-72 -92 -106 -225h3h386z" />
<glyph unicode="&#x636;" horiz-adv-x="1385" arabic-form="final" d="M1012 565q-32 0 -32 33q0 32 32 32q31 0 31 -32q0 -33 -31 -33zM1372 42h43v-42h-50q-97 0 -140 72q-42 -72 -141 -72h-398q-73 0 -117 42q-1 -110 -77 -175q-68 -57 -175 -57q-125 0 -194 88q-53 68 -53 162q0 89 46 151l47 10q-51 -74 -51 -161q0 -92 61 -152 q57 -56 144 -56q102 0 158 61q47 51 47 131v274l47 25v-173q0 -103 80 -123q33 156 125 265q104 121 245 121q110 0 174 -76q55 -64 55 -160v-27q0 -128 124 -128zM1079 42q122 0 122 133v22q0 91 -57 146q-50 48 -124 48q-129 0 -225 -123q-72 -93 -105 -226h3h386z" />
<glyph unicode="&#x636;" horiz-adv-x="938" arabic-form="initial" d="M647 565q-32 0 -32 33q0 32 32 32q31 0 31 -32q0 -33 -31 -33zM265 47q32 156 125 265q102 121 244 121q110 0 174 -76q55 -64 55 -160v-30q0 -83 -50 -128q-43 -39 -114 -39h-398q-99 0 -140 73q-42 -73 -141 -73h-50v42h43q124 0 124 128v148l47 25v-173 q0 -103 81 -123zM816 175v22q0 91 -57 146q-50 48 -124 48q-128 0 -224 -124q-72 -92 -106 -225h3h386q122 0 122 133z" />
<glyph unicode="&#x636;" horiz-adv-x="1000" arabic-form="medial" d="M647 565q-32 0 -32 33q0 32 32 32q31 0 31 -32q0 -33 -31 -33zM987 42h43v-42h-50q-97 0 -140 72q-42 -72 -141 -72h-398q-99 0 -140 73q-42 -73 -141 -73h-50v42h43q124 0 124 128v148l47 25v-173q0 -103 81 -123q32 156 125 265q102 121 244 121q110 0 174 -76 q55 -64 55 -160v-27q0 -128 124 -128zM694 42q122 0 122 133v22q0 91 -57 146q-50 48 -124 48q-128 0 -224 -124q-72 -92 -106 -225h3h386z" />
<glyph unicode="&#x637;" horiz-adv-x="911" arabic-form="final" d="M898 42h43v-42h-50q-91 0 -135 64q-32 -64 -116 -64h-620l22 42h127v578l47 25v-470q53 118 134 185q88 73 195 73q110 0 174 -76q55 -64 55 -160v-27q0 -128 124 -128zM727 160v37q0 91 -57 146q-50 48 -124 48q-127 0 -224 -124q-72 -92 -106 -221v-4h417q52 0 73 26.5 t21 91.5z" />
<glyph unicode="&#x637;" horiz-adv-x="838" arabic-form="initial" d="M204 173q53 118 134 187q88 73 196 73q110 0 174 -76q55 -64 55 -160v-38q0 -159 -134 -159h-659v42h187v578l47 25v-472zM716 160v37q0 91 -57 146q-50 48 -124 48q-128 0 -226 -126q-72 -93 -105 -223h418q52 0 73 26.5t21 91.5z" />
<glyph unicode="&#x637;" horiz-adv-x="900" arabic-form="medial" d="M887 42h43v-42h-50q-91 0 -135 64q-32 -64 -116 -64h-659v42h188v578l47 25v-470q53 118 134 185q88 73 195 73q110 0 174 -76q55 -64 55 -160v-27q0 -128 124 -128zM716 160v37q0 91 -57 146q-50 48 -124 48q-127 0 -224 -124q-72 -92 -106 -221v-4h417q52 0 73 26.5 t21 91.5z" />
<glyph unicode="&#x638;" horiz-adv-x="911" arabic-form="final" d="M898 42h43v-42h-50q-91 0 -135 64q-32 -64 -116 -64h-620l22 42h127v578l47 25v-470q53 118 134 185q88 73 195 73q110 0 174 -76q55 -64 55 -160v-27q0 -128 124 -128zM538 565q-32 0 -32 33q0 32 32 32q31 0 31 -32q0 -33 -31 -33zM727 160v37q0 91 -57 146 q-50 48 -124 48q-127 0 -224 -124q-72 -92 -106 -221v-4h417q52 0 73 26.5t21 91.5z" />
<glyph unicode="&#x638;" horiz-adv-x="838" arabic-form="initial" d="M204 173q53 118 134 187q88 73 196 73q110 0 174 -76q55 -64 55 -160v-38q0 -159 -134 -159h-659v42h187v578l47 25v-472zM527 565q-32 0 -32 33q0 32 32 32q31 0 31 -32q0 -33 -31 -33zM716 160v37q0 91 -57 146q-50 48 -124 48q-128 0 -226 -126q-72 -93 -105 -223h418 q52 0 73 26.5t21 91.5z" />
<glyph unicode="&#x638;" horiz-adv-x="900" arabic-form="medial" d="M887 42h43v-42h-50q-91 0 -135 64q-32 -64 -116 -64h-659v42h188v578l47 25v-470q53 118 134 185q88 73 195 73q110 0 174 -76q55 -64 55 -160v-27q0 -128 124 -128zM527 565q-32 0 -32 33q0 32 32 32q31 0 31 -32q0 -33 -31 -33zM716 160v37q0 91 -57 146 q-50 48 -124 48q-127 0 -224 -124q-72 -92 -106 -221v-4h417q52 0 73 26.5t21 91.5z" />
<glyph unicode="&#x639;" horiz-adv-x="656" arabic-form="final" d="M472 -324q-80 -51 -183 -51q-104 0 -165 71q-48 56 -48 134q0 71 36 115.5t132 93.5q22 11 33 17q-51 31 -109.5 88.5t-97.5 115.5v28q105 145 241 145t242 -146v-27q-91 -121 -212 -201q31 -17 66 -17h279v-42h-279q-60 0 -99 29q-15 -9 -51 -27q-68 -35 -95 -63 q-44 -44 -44 -112q0 -70 49 -116q47 -44 122 -44q119 0 183 51v-42zM311 80q61 41 118.5 97t82.5 98q-88 116 -204 116q-107 0 -197 -116q58 -96 200 -195z" />
<glyph unicode="&#x639;" horiz-adv-x="545" arabic-form="initial" d="M495 42v-42h-525v42h209q-82 63 -82 186q0 100 67 158q53 46 126 47q101 0 157 -78v-51q-57 87 -152 87q-67 0 -109 -45.5t-42 -118.5q0 -84 50 -136q47 -49 125 -49h176z" />
<glyph unicode="&#x639;" horiz-adv-x="689" arabic-form="medial" d="M374 59l5 -2q29 -15 61 -15h279v-42h-279q-51 0 -96 29q-45 -29 -96 -29h-278v42h278q33 1 61 15q-45 27 -95 75q-66 63 -111 128v28q105 145 241 145t242 -146v-27q-94 -122 -212 -201zM344 80q61 41 118.5 97t82.5 98q-88 116 -204 116q-107 0 -197 -116 q58 -96 200 -195z" />
<glyph unicode="&#x63a;" horiz-adv-x="656" arabic-form="final" d="M341 59q31 -17 66 -17h279v-42h-279q-60 0 -99 29q-15 -9 -51 -27q-68 -35 -95 -63q-44 -44 -44 -112q0 -70 49 -116q47 -44 122 -44q119 0 183 51v-42q-80 -51 -183 -51q-104 0 -165 71q-48 56 -48 134q0 71 36 115.5t132 93.5q22 11 33 17q-51 31 -109.5 88.5 t-97.5 115.5v28q105 145 241 145t242 -146v-27q-91 -121 -212 -201zM311 80q61 41 118.5 97t82.5 98q-88 116 -204 116q-107 0 -197 -116q58 -96 200 -195zM311 565q-32 0 -32 33q0 32 32 32q31 0 31 -32q0 -33 -31 -33z" />
<glyph unicode="&#x63a;" horiz-adv-x="545" arabic-form="initial" d="M285 565q-32 0 -32 33q0 32 32 32q31 0 31 -32q0 -33 -31 -33zM495 42v-42h-525v42h209q-82 63 -82 186q0 100 67 158q53 46 126 47q101 0 157 -78v-51q-57 87 -152 87q-67 0 -109 -45.5t-42 -118.5q0 -84 50 -136q47 -49 125 -49h176z" />
<glyph unicode="&#x63a;" horiz-adv-x="689" arabic-form="medial" d="M343 565q-32 0 -32 33q0 32 32 32q31 0 31 -32q0 -33 -31 -33zM374 59l5 -2q29 -15 61 -15h279v-42h-279q-51 0 -96 29q-45 -29 -96 -29h-278v42h278q33 1 61 15q-45 27 -95 75q-66 63 -111 128v28q105 145 241 145t242 -146v-27q-94 -122 -212 -201zM344 80 q61 41 118.5 97t82.5 98q-88 116 -204 116q-107 0 -197 -116q58 -96 200 -195z" />
<glyph unicode="&#x641;" horiz-adv-x="940" arabic-form="final" d="M680 565q-32 0 -32 33q0 32 32 32q31 0 31 -32q0 -33 -31 -33zM754 42h216v-42h-239q-29 0 -56 7q-27 -7 -56 -7h-372q-72 0 -114.5 45t-42.5 122v141l47 25v-158q0 -133 124 -133h335q-45 32 -72 83.5t-27 105.5q0 97 52 152q48 50 126 50q89 0 138 -64q40 -54 40 -138 q0 -54 -27 -105.5t-72 -83.5zM675 49l9 3q55 19 90 69.5t35 109.5q0 73 -36.5 116.5t-97.5 43.5t-97.5 -43.5t-36.5 -116.5q0 -59 35 -109.5t90 -69.5z" />
<glyph unicode="&#x641;" horiz-adv-x="530" arabic-form="initial" d="M291 566q-32 0 -32 33q0 32 32 32q31 0 31 -32q0 -33 -31 -33zM-30 0v42h200q-63 57 -63 174q0 107 54 165q48 52 127 52q75 0 118.5 -45t43.5 -123v-99q-1 -80 -48 -125q-43 -41 -116 -41h-316zM403 257q0 134 -115 134q-63 0 -98.5 -46.5t-35.5 -128.5q0 -80 36 -128 q34 -46 89 -46q124 0 124 128v87z" />
<glyph unicode="&#x641;" horiz-adv-x="550" arabic-form="medial" d="M278 566q-32 0 -32 33q0 32 32 32q31 0 31 -32q0 -33 -31 -33zM354 42h226v-42h-249q-29 0 -56 7q-27 -7 -56 -7h-249v42h226q-45 32 -72 83.5t-27 105.5q0 97 52 152q48 50 126 50q89 0 138 -64q40 -54 40 -138q0 -54 -27 -105.5t-72 -83.5zM275 49l9 3q55 19 90 69.5 t35 109.5q0 73 -36.5 116.5t-97.5 43.5t-97.5 -43.5t-36.5 -116.5q0 -59 35 -109.5t90 -69.5z" />
<glyph unicode="&#x642;" horiz-adv-x="736" arabic-form="final" d="M428 565q-32 0 -32 33q0 32 32 32q31 0 31 -32q0 -33 -31 -33zM529 565q-32 0 -32 33q0 32 32 32q31 0 31 -32q0 -33 -31 -33zM638 0q-19 -190 -286 -190q-150 0 -225 88q-57 66 -57 162q0 89 46 151l47 10q-51 -74 -51 -161q0 -95 67 -152q64 -56 173 -56 q115 0 172.5 35.5t66.5 112.5l-30 1q-149 5 -209 59q-56 49 -56 156t54 165q48 52 127 52q75 0 118.5 -45t43.5 -123v-223h127v-42h-128zM592 42v215q0 134 -115 134q-63 0 -98.5 -46.5t-35.5 -128.5q0 -93 48.5 -132t169.5 -42h31z" />
<glyph unicode="&#x642;" horiz-adv-x="530" arabic-form="initial" d="M238 565q-32 0 -32 33q0 32 32 32q31 0 31 -32q0 -33 -31 -33zM339 565q-32 0 -32 33q0 32 32 32q31 0 31 -32q0 -33 -31 -33zM-30 0v42h200q-63 57 -63 174q0 107 54 165q48 52 127 52q75 0 118.5 -45t43.5 -123v-99q-1 -80 -48 -125q-43 -41 -116 -41h-316zM403 257 q0 134 -115 134q-63 0 -98.5 -46.5t-35.5 -128.5q0 -80 36 -128q34 -46 89 -46q124 0 124 128v87z" />
<glyph unicode="&#x642;" horiz-adv-x="550" arabic-form="medial" d="M225 565q-32 0 -32 33q0 32 32 32q31 0 31 -32q0 -33 -31 -33zM326 565q-32 0 -32 33q0 32 32 32q31 0 31 -32q0 -33 -31 -33zM354 42h226v-42h-249q-29 0 -56 7q-27 -7 -56 -7h-249v42h226q-45 32 -72 83.5t-27 105.5q0 97 52 152q48 50 126 50q89 0 138 -64 q40 -54 40 -138q0 -54 -27 -105.5t-72 -83.5zM275 49l9 3q55 19 90 69.5t35 109.5q0 73 -36.5 116.5t-97.5 43.5t-97.5 -43.5t-36.5 -116.5q0 -59 35 -109.5t90 -69.5z" />
<glyph unicode="&#x643;" horiz-adv-x="905" arabic-form="final" d="M892 42h43v-42h-50q-97 0 -140 72q-42 -72 -141 -72h-357q-72 0 -114.5 45t-42.5 122v141l47 25v-158q0 -133 124 -133h338q122 0 122 133v445l47 25v-475q0 -128 124 -128zM422 456q75 0 75 -66q0 -57 -56 -57h-116l15 28h99q30 0 30 29q0 38 -50 38q-27 0 -50 -10v28 l81 90h32l-70 -80h10z" />
<glyph unicode="&#x643;" horiz-adv-x="461" arabic-form="initial" d="M126 401q21 3 43 3q109 0 173 -65q59 -58 59 -152v-20q0 -83 -50 -128q-43 -39 -114 -39h-267v42h262q122 0 122 133v12q0 86 -63 132q-51 37 -127 37q-55 0 -107 -19v47l235 261h50z" />
<glyph unicode="&#x643;" horiz-adv-x="528" arabic-form="medial" d="M525 42h33v-42h-40q-97 0 -140 72q-42 -72 -141 -72h-267v42h262q122 0 122 133v12q0 86 -63 132q-51 37 -128 37q-54 0 -106 -19v47l235 261h50l-216 -244q21 3 43 3q108 0 173 -65q59 -58 59 -152v-17q0 -128 124 -128z" />
<glyph unicode="&#x644;" horiz-adv-x="706" arabic-form="final" d="M693 42h43v-42h-50q-73 0 -117 42q-1 -110 -77 -175q-68 -57 -175 -57q-125 0 -194 88q-53 68 -53 162q0 89 46 151l47 10q-51 -74 -51 -161q0 -92 61 -152q57 -56 144 -56q102 0 158 61q47 51 47 131v576l47 25v-475q0 -128 124 -128z" />
<glyph unicode="&#x644;" horiz-adv-x="274" arabic-form="initial" d="M-30 0v42h43q124 0 124 128v450l47 25v-476q0 -81 -47 -127q-44 -42 -117 -42h-50z" />
<glyph unicode="&#x644;" horiz-adv-x="321" arabic-form="medial" d="M308 42h43v-42h-50q-99 0 -140 73q-42 -73 -141 -73h-50v42h43q124 0 124 128v450l47 25v-475q0 -128 124 -128z" />
<glyph unicode="&#x645;" horiz-adv-x="612" arabic-form="final" d="M599 42h43v-42h-50q-99 0 -141 73q-40 -70 -137 -73h-123q-124 0 -124 -128v-162l-47 -25v188q0 81 47 127q44 42 117 42h11q-63 57 -63 174q0 107 54 165q48 52 127 52q75 0 118.5 -45t43.5 -123v-95q0 -128 124 -128zM428 257q0 134 -115 134q-63 0 -98.5 -46.5 t-35.5 -128.5q0 -84 36 -131q33 -43 89 -43q124 0 124 128v87z" />
<glyph unicode="&#x645;" horiz-adv-x="555" arabic-form="initial" d="M137 265q0 84 49 129q43 39 113 39q91 0 139 -67q42 -57 42 -150q0 -106 -53 -165q-47 -51 -123 -51q-101 0 -143 73q-42 -73 -141 -73h-50v42h43q124 0 124 128v95zM184 170q0 -128 124 -128q58 0 91.5 46.5t33.5 127.5q0 85 -38 132q-35 43 -96 43q-115 0 -115 -134 v-87z" />
<glyph unicode="&#x645;" horiz-adv-x="636" arabic-form="medial" d="M623 42h43v-42h-50q-102 0 -142 76q-46 -96 -156 -96t-156 96q-40 -76 -142 -76h-50v42h43q124 0 124 128v36q0 114 54 174q47 53 127 53q91 0 139 -68q42 -60 42 -159v-36q0 -128 124 -128zM318 22q61 0 97.5 50t36.5 134q0 92 -38 141q-34 44 -96 44q-64 0 -99 -48 t-35 -137q0 -184 134 -184z" />
<glyph unicode="&#x646;" horiz-adv-x="706" arabic-form="final" d="M315 465q-32 0 -32 33q0 32 32 32q31 0 31 -32q0 -33 -31 -33zM693 42h43v-42h-50q-73 0 -117 42q-1 -110 -77 -175q-68 -57 -175 -57q-125 0 -194 88q-53 68 -53 162q0 89 46 151l47 10q-51 -74 -51 -161q0 -92 61 -152q57 -56 144 -56q102 0 158 61q47 51 47 131v354 l47 25v-253q0 -128 124 -128z" />
<glyph unicode="&#x646;" horiz-adv-x="274" arabic-form="initial" d="M153 565q-32 0 -32 33q0 32 32 32q31 0 31 -32q0 -33 -31 -33zM-30 0v42h43q124 0 124 128v228l47 25v-254q0 -81 -47 -127q-44 -42 -117 -42h-50z" />
<glyph unicode="&#x646;" horiz-adv-x="321" arabic-form="medial" d="M153 565q-32 0 -32 33q0 32 32 32q31 0 31 -32q0 -33 -31 -33zM308 42h43v-42h-50q-99 0 -140 73q-42 -73 -141 -73h-50v42h43q124 0 124 128v228l47 25v-253q0 -128 124 -128z" />
<glyph unicode="&#x647;" horiz-adv-x="510" arabic-form="final" d="M497 42h43v-42h-50q-113 0 -151 93q-53 -63 -136 -63q-84 0 -132 64q-41 54 -41 137q0 95 53 152q47 50 120 50q76 0 123 -49v66l47 25v-305q0 -128 124 -128zM326 327q-49 64 -123 64q-56 0 -91 -44.5t-35 -115.5q0 -72 34.5 -115.5t91.5 -43.5q74 0 125 66q-2 20 -2 31 v158z" />
<glyph unicode="&#x647;" horiz-adv-x="600" arabic-form="initial" d="M91 285q21 94 89 144q54 39 122 39q96 0 161 -70q62 -66 62 -169v-62q0 -83 -50 -128q-43 -39 -114 -39h-90q-34 0 -64 10q-30 -10 -64 -10h-173v42h172q-75 56 -75 150q0 54 24 93zM478 175v54q0 97 -63 153q-49 44 -116 44q-102 0 -148 -89q28 10 56 10q64 0 102 -42.5 t38 -112.5q0 -95 -76 -150h85q122 0 122 133zM207 51q101 33 101 141q0 53 -27.5 84.5t-73.5 31.5t-73.5 -31.5t-27.5 -84.5q0 -108 101 -141z" />
<glyph unicode="&#x647;" horiz-adv-x="662" arabic-form="medial" d="M649 42h43v-42h-50q-97 0 -140 72q-42 -72 -141 -72h-90q-34 0 -64 10q-30 -10 -64 -10h-173v42h172q-75 56 -75 150q0 54 24 93q21 94 89 144q54 39 122 39q96 0 161 -70q62 -66 62 -169v-59q0 -128 124 -128zM356 42q122 0 122 133v54q0 97 -63 153q-49 44 -116 44 q-102 0 -148 -89q28 10 56 10q64 0 102 -42.5t38 -112.5q0 -95 -76 -150h85zM207 51q101 33 101 141q0 53 -27.5 84.5t-73.5 31.5t-73.5 -31.5t-27.5 -84.5q0 -108 101 -141z" />
<glyph unicode="&#x648;" horiz-adv-x="500" arabic-form="final" d="M403 42h127v-42h-127q0 -86 -66 -142q-56 -48 -130 -48q-57 0 -109 26v42q52 -27 104 -27q66 0 113 48q41 42 41 99v2q-27 0 -83 2q-213 6 -213 214q0 107 54 165q48 52 127 52q75 0 118.5 -45t43.5 -123v-223zM356 257q0 134 -115 134q-63 0 -98.5 -46.5t-35.5 -128.5 q0 -162 166 -172q27 -2 83 -2v215z" />
<glyph unicode="&#x649;" horiz-adv-x="619" arabic-form="final" d="M640 0q-6 -84 -86 -138q-78 -52 -202 -52q-150 0 -225 88q-57 66 -57 162q0 89 46 151l47 10q-51 -74 -51 -161q0 -95 67 -152q64 -56 173 -56q119 0 185 53q50 39 55 95h-104l22 42h133v-42h-3z" />
<glyph unicode="&#x64a;" horiz-adv-x="619" arabic-form="final" d="M640 0q-6 -84 -86 -138q-78 -52 -202 -52q-150 0 -225 88q-57 66 -57 162q0 89 46 151l47 10q-51 -74 -51 -161q0 -95 67 -152q64 -56 173 -56q119 0 185 53q50 39 55 95h-104l22 42h133v-42h-3zM304 -363q-32 0 -32 33q0 32 32 32q31 0 31 -32q0 -33 -31 -33zM405 -363 q-32 0 -32 33q0 32 32 32q31 0 31 -32q0 -33 -31 -33z" />
<glyph unicode="&#x64a;" horiz-adv-x="274" arabic-form="initial" d="M-30 0v42h43q124 0 124 128v228l47 25v-254q0 -81 -47 -127q-44 -42 -117 -42h-50zM22 -175q-32 0 -32 33q0 32 32 32q31 0 31 -32q0 -33 -31 -33zM123 -175q-32 0 -32 33q0 32 32 32q31 0 31 -32q0 -33 -31 -33z" />
<glyph unicode="&#x64a;" horiz-adv-x="321" arabic-form="medial" d="M308 42h43v-42h-50q-99 0 -140 73q-42 -73 -141 -73h-50v42h43q124 0 124 128v228l47 25v-253q0 -128 124 -128zM91 -110q31 0 31 -33q0 -32 -31 -32q-32 0 -32 32q0 33 32 33zM192 -110q31 0 31 -33q0 -32 -31 -32q-32 0 -32 32q0 33 32 33z" />
<glyph />
<glyph horiz-adv-x="220" />
<glyph unicode=" "  horiz-adv-x="220" />
<glyph unicode="&#x09;" horiz-adv-x="220" />
<glyph unicode="&#xa0;" horiz-adv-x="220" />
<glyph unicode="!" horiz-adv-x="195" d="M73 140v493h47v-493h-47zM98 -5q-32 0 -32 33q0 32 32 32q31 0 31 -32q0 -33 -31 -33z" />
<glyph unicode="&#x22;" horiz-adv-x="249" d="M70 502v123l37 20v-123zM142 502v123l37 20v-123z" />
<glyph unicode="#" horiz-adv-x="497" d="M344 152l-31 -152h-42l31 152h-165l-31 -152h-42l32 152h-81v40h89l45 222h-99v40h107l32 155h42l-32 -155h165l32 155h42l-32 -155h76v-40h-84l-45 -222h95v-40h-104zM191 414l-45 -222h165l45 222h-165z" />
<glyph unicode="$" horiz-adv-x="513" d="M279 700v-56q76 -4 142 -47l-25 -33q-52 29 -117 32v-236q94 -38 131.5 -82.5t37.5 -117.5q0 -69 -46.5 -116t-122.5 -55v-63h-31v62q-98 2 -183 60l23 33q81 -44 155 -44h5v278q-96 33 -139 74.5t-43 99.5q0 67 50.5 110t131.5 46v55h31zM279 39q52 8 82 41t30 80 q0 53 -26 86t-86 58v-265zM248 595q-122 -7 -122 -106q0 -71 122 -117v223z" />
<glyph unicode="%" horiz-adv-x="711" d="M182 0l303 589h49l-303 -589h-49zM284 429q0 -72 -31 -115t-83 -43q-63 0 -94 53q-24 41 -24 104q0 70 31.5 110t86.5 40q50 0 82 -41.5t32 -107.5zM242 427q0 50 -21 82.5t-53 32.5q-33 0 -53.5 -32.5t-20.5 -82.5q0 -54 20.5 -87.5t53.5 -33.5q32 0 53 34t21 87z M659 162q0 -72 -31 -115t-83 -43q-63 0 -94 53q-24 41 -24 104q0 70 31.5 110t86.5 40q50 0 82 -41.5t32 -107.5zM617 160q0 50 -21 82.5t-53 32.5q-33 0 -53.5 -32t-20.5 -83q0 -53 20.5 -86.5t53.5 -33.5q32 0 53 33.5t21 86.5z" />
<glyph unicode="&#x26;" horiz-adv-x="566" d="M431 329h54v-40q0 -133 -34 -186l90 -103h-64l-52 59q-25 -31 -70.5 -51t-92.5 -20q-87 0 -145 56q-52 50 -52 123q0 113 104 177l-14 16q-75 86 -75 148q0 60 43.5 98.5t111.5 38.5q67 0 125 -40l-19 -36q-56 27 -107 27q-42 0 -68 -24t-26 -62q0 -55 79 -144l196 -222 q16 32 16 132v53zM199 314q-32 -17 -53 -55t-21 -79q0 -65 39.5 -104t105.5 -39q74 0 120 60z" />
<glyph unicode="'" horiz-adv-x="177" d="M70 502v123l37 20v-123z" />
<glyph unicode="(" horiz-adv-x="368" d="M272 645q-128 -189 -128 -393t128 -393h-42q-59 62 -99 174.5t-40 218.5t40 218.5t99 174.5h42z" />
<glyph unicode=")" horiz-adv-x="368" d="M91 -141q128 189 128 393t-128 393h42q59 -62 99 -174.5t40 -218.5t-40 -218.5t-99 -174.5h-42z" />
<glyph unicode="*" horiz-adv-x="335" d="M157 522l12 123l64 -19l-49 -109l114 25l5 -59l-119 9l60 -105l-57 -20l-27 115l-80 -91l-41 50l105 61l-112 48l35 52z" />
<glyph unicode="+" horiz-adv-x="517" d="M237 207h-195v40h195v207h43v-207h195v-40h-195v-207h-43v207z" />
<glyph unicode="," horiz-adv-x="196" d="M72 -84q37 33 37 70q0 5 -2 15q-12 -10 -23 -10q-16 0 -27.5 11.5t-11.5 28.5q0 38 40 38q21 0 34.5 -19t13.5 -47q0 -63 -56 -100z" />
<glyph unicode="-" horiz-adv-x="261" d="M236 220h-211v40h211v-40z" />
<glyph unicode="." horiz-adv-x="243" d="M122 -8q-35 2 -35 36q0 35 35 35t35 -35q0 -36 -35 -36z" />
<glyph unicode="/" horiz-adv-x="327" d="M343 633l-318 -663h-50l319 663h49z" />
<glyph unicode="0" horiz-adv-x="538" d="M270 645q106 0 168 -108q52 -90 52 -222q0 -158 -66 -247q-59 -80 -154 -80q-111 0 -171 103q-51 87 -51 224q0 153 68 246q60 84 154 84zM268 596q-74 0 -117 -74t-43 -201q0 -138 46 -214q42 -70 114 -70q83 0 126 90q36 75 36 194q0 135 -48 209q-43 66 -114 66z" />
<glyph unicode="1" horiz-adv-x="375" d="M251 633v-633h-55v577l-137 -76l-29 36l166 96h55z" />
<glyph unicode="2" horiz-adv-x="480" d="M50 0v51l194 211q111 120 111 209q0 57 -36 91t-98 34q-71 0 -132 -40l-24 32q78 57 174 57q81 0 132 -54q44 -48 44 -120q0 -56 -34 -111.5t-133 -163.5l-136 -147h293v-49h-355z" />
<glyph unicode="3" horiz-adv-x="496" d="M201 311h-74v50h74q60 0 97.5 33.5t37.5 87.5q0 114 -131 114q-62 0 -127 -39l-25 31q68 57 165 57q79 0 130 -48q48 -44 48 -113q0 -49 -34 -90t-85 -53q66 -11 106 -56t40 -108q0 -98 -75 -150q-55 -39 -129 -39q-93 0 -172 60l24 32q67 -43 139 -43q68 0 110.5 39 t42.5 102q0 133 -162 133z" />
<glyph unicode="4" horiz-adv-x="550" d="M35 187l290 446h60v-445h120v-49h-119v-139h-55v139h-296v48zM95 188h236v364z" />
<glyph unicode="5" horiz-adv-x="526" d="M409 584h-249v-195q36 6 82 6q99 0 157 -57q54 -54 54 -147q0 -97 -70 -156q-57 -47 -134 -47q-103 0 -176 58l20 30q60 -39 139 -39q76 0 118.5 41t42.5 114q0 75 -46 117t-127 42q-35 0 -98 -11q-8 -1 -17 -3v296h304v-49z" />
<glyph unicode="6" horiz-adv-x="534" d="M132 347q64 64 142 64q81 0 132 -52q55 -55 55 -157q0 -93 -57 -156q-53 -58 -130 -58q-102 0 -157 102q-44 82 -44 206q0 165 73 264q63 85 154 85q74 0 137 -47l-20 -29q-54 27 -113 27q-71 0 -118 -66q-47 -67 -54 -183zM130 285q1 -122 46 -190q38 -58 98 -58 q59 0 93 44t34 121t-36.5 121t-101.5 44q-38 0 -75 -23t-58 -59z" />
<glyph unicode="7" horiz-adv-x="414" d="M326 584h-284v49h337v-55l-249 -578h-58z" />
<glyph unicode="8" horiz-adv-x="547" d="M338 342q59 -17 95 -63t36 -104q0 -85 -65 -139q-56 -48 -135 -48q-89 0 -146 61q-50 52 -50 125q0 60 36 106t97 64q-114 55 -114 146q0 71 53 116q50 42 127 42q85 0 136 -53q42 -45 42 -108q0 -101 -112 -145zM271 358q53 11 86.5 48t33.5 83q0 49 -33 78t-88 29 q-52 0 -85 -28t-33 -73q0 -104 119 -137zM266 326q-57 -9 -95 -51.5t-38 -97.5q0 -59 39 -99.5t97 -40.5q61 0 100.5 39t39.5 99q0 58 -40.5 100.5t-102.5 50.5z" />
<glyph unicode="9" horiz-adv-x="534" d="M402 286q-64 -64 -142 -64q-81 0 -132 52q-55 55 -55 157q0 93 57 156q53 58 130 58q102 0 157 -102q44 -82 44 -206q0 -165 -73 -264q-63 -85 -154 -85q-74 0 -137 47l20 29q54 -27 113 -27q71 0 118 66q47 67 54 183zM404 348q-1 122 -46 190q-38 58 -98 58 q-59 0 -93 -44t-34 -121t36.5 -121t101.5 -44q38 0 75 23t58 59z" />
<glyph unicode=":" horiz-adv-x="203" d="M122 232q-35 2 -35 36q0 35 35 35t35 -35q0 -36 -35 -36zM122 -8q-35 2 -35 36q0 35 35 35t35 -35q0 -36 -35 -36z" />
<glyph unicode=";" horiz-adv-x="175" d="M71 -84q37 33 37 70q0 5 -2 15q-12 -10 -23 -10q-16 0 -27.5 11.5t-11.5 28.5q0 38 40 38q21 0 34.5 -19t13.5 -47q0 -63 -56 -100zM42 269q3 38 39 38q16 0 27 -11t11 -27t-11 -27.5t-27 -11.5q-37 0 -39 39z" />
<glyph unicode="&#x3c;" horiz-adv-x="517" d="M456 -12l-414 226v54l414 208v-47l-375 -188l375 -207v-46z" />
<glyph unicode="=" horiz-adv-x="499" d="M457 282h-415v40h415v-40zM457 132h-415v40h415v-40z" />
<glyph unicode="&#x3e;" horiz-adv-x="517" d="M475 213l-414 -226v46l375 207l-375 188v47l414 -208v-54z" />
<glyph unicode="?" horiz-adv-x="368" d="M167 149h-49v78q0 40 10 58t50 51q95 77 95 151q0 51 -28.5 80t-78.5 29q-60 0 -109 -26l-15 30q62 45 136 45q67 0 107.5 -41t40.5 -108q0 -90 -87 -165q-11 -10 -18 -15q-35 -28 -44.5 -45.5t-9.5 -51.5v-70zM100 30q0 17 12.5 29.5t29.5 12.5t29.5 -12.5t12.5 -29.5 t-12.5 -29.5t-29.5 -12.5t-29.5 12.5t-12.5 29.5z" />
<glyph unicode="@" horiz-adv-x="692" d="M464 103q0 -81 60 -81q36 0 57 41t21 110q0 133 -89 203q-67 52 -156 52q-121 0 -196 -82q-71 -78 -71 -204q0 -150 100 -226q73 -55 172 -55q20 0 38 2v-35q-19 -2 -40 -2q-136 0 -225 88q-87 85 -87 225q0 160 103 252q84 75 206 75q127 0 209 -86q78 -81 78 -207 q0 -73 -30 -125q-35 -60 -98 -60q-28 0 -51 17t-31 45q-12 -27 -42 -44.5t-62 -17.5q-55 0 -88.5 39t-33.5 103q0 69 36 112.5t93 43.5q47 0 89 -30q1 2 4 12q5 13 7 19h27v-184zM426 218q-36 31 -84 31q-91 0 -91 -113q0 -111 87 -111q88 0 88 118v75z" />
<glyph unicode="A" horiz-adv-x="545" d="M240 633h66l224 -633h-56l-55 152h-291l-54 -152h-59zM272 578l-130 -379h261z" />
<glyph unicode="B" horiz-adv-x="523" d="M90 0v633q75 12 156 12q206 0 206 -168q0 -104 -107 -139v-1q60 -11 94 -57t34 -116q0 -91 -69 -137q-59 -39 -158 -39q-58 0 -156 12zM145 594v-235h113q60 0 96.5 31.5t36.5 82.5q0 127 -148 127q-56 0 -98 -6zM145 311v-272q53 -6 106 -6q161 0 161 132 q0 69 -40 107.5t-111 38.5h-116z" />
<glyph unicode="C" horiz-adv-x="544" d="M494 51q-71 -63 -171 -63q-130 0 -206 100q-67 87 -67 222q0 148 78 245q73 90 186 90q101 0 172 -57l-24 -31q-65 39 -139 39q-100 0 -158 -82q-55 -76 -55 -204q0 -138 72 -213q59 -60 149 -60q81 0 140 47z" />
<glyph unicode="D" horiz-adv-x="602" d="M90 633q93 12 144 12q160 0 245 -98q73 -84 73 -224q0 -169 -91 -257q-81 -78 -222 -78q-55 0 -149 12v633zM145 39q48 -6 93 -6q127 0 193 81q61 74 61 205q0 143 -83 219q-68 62 -173 62q-61 0 -91 -6v-555z" />
<glyph unicode="E" horiz-adv-x="526" d="M90 633h358v-49h-303v-230h255v-49h-255v-256h316v-49h-371v633z" />
<glyph unicode="F" horiz-adv-x="513" d="M90 0v633h358v-49h-303v-230h255v-49h-255v-305h-55z" />
<glyph unicode="G" horiz-adv-x="593" d="M513 42q-87 -54 -188 -54q-144 0 -218 114q-57 87 -57 213q0 144 76 239q73 91 189 91q100 0 171 -57l-24 -31q-67 39 -139 39q-100 0 -159 -82q-54 -77 -54 -203q0 -134 69 -210q59 -64 148 -64q73 0 131 28v214h-114v50h169v-287z" />
<glyph unicode="H" horiz-adv-x="628" d="M145 0h-55v633h55v-279h338v279h55v-633h-55v305h-338v-305z" />
<glyph unicode="I" horiz-adv-x="235" d="M145 633v-633h-55v633h55z" />
<glyph unicode="J" horiz-adv-x="220" d="M130 633v-674q0 -60 -28.5 -93.5t-79.5 -33.5q-52 0 -107 34l19 29q34 -18 70 -18q71 0 71 89v667h55z" />
<glyph unicode="K" horiz-adv-x="484" d="M145 633v-286l248 286h66l-261 -299l258 -334h-69l-242 320v-320h-55v633h55z" />
<glyph unicode="L" horiz-adv-x="463" d="M90 0v633h55v-584h253v-49h-308z" />
<glyph unicode="M" horiz-adv-x="744" d="M372 50q13 36 45 122q116 314 175 461h62v-633h-55v531q-83 -238 -197 -531h-60q-114 293 -197 531v-531h-55v633h65q51 -131 157 -421l9 -24q36 -98 51 -138z" />
<glyph unicode="N" horiz-adv-x="600" d="M145 532v-532h-55v633h53q26 -43 156 -269t156 -273v542h55v-633h-54q-62 102 -311 532z" />
<glyph unicode="O" horiz-adv-x="634" d="M317 645q134 0 209 -114q58 -89 58 -214q0 -146 -76 -239q-73 -90 -191 -90q-134 0 -209 114q-58 90 -58 215q0 145 76 239q73 89 191 89zM317 37q106 0 162 91q45 75 45 189q0 132 -59 208q-55 71 -148 71q-106 0 -162 -91q-45 -74 -45 -188q0 -132 59 -209 q55 -71 148 -71z" />
<glyph unicode="P" horiz-adv-x="504" d="M90 0v633q89 12 146 12q123 0 178 -65q40 -48 40 -126q0 -88 -57 -138q-56 -49 -160 -49q-45 0 -92 5v-272h-55zM145 594v-276q33 -6 84 -6q166 0 166 142q0 146 -165 146q-48 0 -85 -6z" />
<glyph unicode="Q" horiz-adv-x="634" d="M387 -2q-35 -10 -70 -10q-134 0 -209 114q-58 90 -58 215q0 145 76 239q73 89 191 89q134 0 209 -114q58 -89 58 -214q0 -105 -43 -188q-40 -77 -108 -113l121 -127h-64zM317 37q106 0 162 91q45 75 45 189q0 132 -59 208q-55 71 -148 71q-106 0 -162 -91 q-45 -74 -45 -188q0 -132 59 -209q55 -71 148 -71z" />
<glyph unicode="R" horiz-adv-x="512" d="M90 0v633q89 12 146 12q123 0 178 -65q40 -48 40 -126q0 -133 -120 -173l128 -281h-56l-121 269l-1 1q-22 -3 -47 -3q-45 0 -92 5v-272h-55zM145 594v-276q33 -6 84 -6q166 0 166 142q0 146 -165 146q-48 0 -85 -6z" />
<glyph unicode="S" horiz-adv-x="483" d="M381 564q-57 32 -130 32q-67 0 -103.5 -28t-36.5 -79q0 -71 125 -118q112 -42 154.5 -87.5t42.5 -123.5q0 -82 -64 -131q-54 -41 -130 -41q-98 0 -189 60l23 33q81 -44 155 -44q67 0 107.5 33.5t40.5 89.5q0 58 -31 93q-33 35 -108 61q-98 33 -142 74.5t-44 100.5 q0 72 58 116q52 40 135 40q90 0 162 -48z" />
<glyph unicode="T" horiz-adv-x="513" d="M221 584h-196v49h463v-49h-212v-584h-55v584z" />
<glyph unicode="U" horiz-adv-x="619" d="M529 263q0 -275 -219 -275q-220 0 -220 275v370h55v-393q0 -203 165 -203q162 0 162 203v393h57v-370z" />
<glyph unicode="V" horiz-adv-x="532" d="M77 633l189 -559l187 559h63l-227 -633h-47l-227 633h62z" />
<glyph unicode="W" horiz-adv-x="890" d="M476 633l159 -559l177 559h63l-214 -633h-55l-161 555l-161 -555h-53l-216 633h62l179 -559l157 559h63z" />
<glyph unicode="X" horiz-adv-x="542" d="M516 633l-209 -302l220 -331h-65l-184 286l-201 -286h-62l236 328l-200 305h62l167 -257l173 257h63z" />
<glyph unicode="Y" horiz-adv-x="509" d="M15 633h57l182 -332l182 332h58l-213 -386v-247h-54v247z" />
<glyph unicode="Z" horiz-adv-x="451" d="M420 633v-54l-336 -530h342v-49h-401v49l339 535h-330v49h386z" />
<glyph unicode="[" horiz-adv-x="349" d="M262 -140h-171v785h171v-45h-124v-695h124v-45z" />
<glyph unicode="\" horiz-adv-x="327" d="M280 -30l-318 663h49l319 -663h-50z" />
<glyph unicode="]" horiz-adv-x="349" d="M87 645h171v-785h-171v45h124v695h-124v45z" />
<glyph unicode="^" horiz-adv-x="386" d="M170 609h45l136 -286h-44l-114 250l-1 -1l-113 -249h-44z" />
<glyph unicode="_" horiz-adv-x="384" d="M379 -70h-374v40h374v-40z" />
<glyph unicode="`" horiz-adv-x="153" d="M101 553l-76 102h55l48 -102h-27z" />
<glyph unicode="a" horiz-adv-x="478" d="M400 0h-34l-9 51q-67 -63 -159 -63q-67 0 -108.5 38t-41.5 100q0 156 220 156h85v8q0 133 -128 133q-65 0 -128 -45l-19 28q60 60 158 60q79 0 121.5 -48.5t42.5 -138.5v-279zM353 242h-77q-94 0 -134.5 -25t-40.5 -84q0 -48 29.5 -75t81.5 -27q42 0 83 20.5t58 49.5v141 z" />
<glyph unicode="b" horiz-adv-x="517" d="M112 0h-34v619l47 26v-237q50 58 134 58q104 0 162 -75q48 -62 48 -155q0 -125 -69 -192q-57 -56 -142 -56q-84 0 -137 60zM125 352v-253q39 -68 132 -68q72 0 117 57q42 53 42 138q0 98 -50 151q-44 46 -112 46q-41 0 -77 -20t-52 -51z" />
<glyph unicode="c" horiz-adv-x="461" d="M419 33q-56 -45 -145 -45q-107 0 -171 74q-55 65 -55 163q0 110 71 180q62 61 149 61t141 -43l-19 -28q-50 28 -107 28q-90 0 -140 -64q-42 -53 -42 -137q0 -90 54 -142q50 -49 135 -49q58 0 111 32z" />
<glyph unicode="d" horiz-adv-x="517" d="M405 0l-9 48q-50 -60 -143 -60q-96 0 -155 75q-50 65 -50 161q0 116 68 184q57 58 144 58q84 0 132 -58v211l47 26v-645h-34zM392 99v253q-16 32 -51.5 51.5t-76.5 19.5q-72 0 -119 -57q-44 -54 -44 -138q0 -97 52 -152q44 -45 110 -45q92 0 129 68z" />
<glyph unicode="e" horiz-adv-x="477" d="M429 210h-328q2 -83 58 -134q52 -45 131 -45q67 0 117 36l19 -31q-60 -48 -152 -48q-105 0 -169 72q-57 65 -57 165q0 106 61 177q56 64 137 64q97 0 146 -85q37 -64 37 -157v-14zM102 250h277q-2 83 -37 128.5t-97 45.5q-58 0 -98 -48.5t-45 -125.5z" />
<glyph unicode="f" horiz-adv-x="312" d="M42 415v39h62v68q0 55 29.5 89t76.5 34q46 0 87 -28l-17 -28q-37 15 -61 15q-68 0 -68 -82v-68h106v-39h-106v-415h-47v415h-62z" />
<glyph unicode="g" horiz-adv-x="527" d="M402 31v13q-51 -56 -139 -56q-96 0 -155 75q-50 65 -50 161q0 116 68 184q57 58 144 58q84 0 132 -58l10 46h37v-423q0 -222 -194 -222q-98 0 -158 60l19 28q63 -45 128 -45q83 0 120.5 42.5t37.5 136.5zM402 99v253q-16 32 -51.5 51.5t-76.5 19.5q-72 0 -119 -57 q-44 -54 -44 -138q0 -97 52 -152q44 -45 110 -45q92 0 129 68z" />
<glyph unicode="h" horiz-adv-x="521" d="M78 620l47 25v-238q67 59 148 59q86 0 131 -51q44 -50 44 -143v-272h-47v267q0 156 -139 156q-38 0 -77 -20t-60 -49v-354h-47v620z" />
<glyph unicode="i" horiz-adv-x="218" d="M132 454v-454h-47v454h47zM73 609q0 15 10.5 25.5t25.5 10.5t25.5 -10.5t10.5 -25.5t-10.5 -25.5t-25.5 -10.5t-25.5 10.5t-10.5 25.5z" />
<glyph unicode="j" horiz-adv-x="219" d="M129 454v-522q0 -55 -29.5 -89t-76.5 -34q-46 0 -87 28l17 28q34 -15 61 -15q68 0 68 82v522h47zM69 609q0 15 10.5 25.5t25.5 10.5t25.5 -10.5t10.5 -25.5t-10.5 -25.5t-25.5 -10.5t-25.5 10.5t-10.5 25.5z" />
<glyph unicode="k" horiz-adv-x="436" d="M368 454l-195 -176l238 -278h-62l-224 264v-264h-47v619l47 26v-358l175 167h68z" />
<glyph unicode="l" horiz-adv-x="203" d="M125 645v-645h-47v619z" />
<glyph unicode="m" horiz-adv-x="806" d="M121 405q77 61 150 61q82 0 127 -66q76 66 166 66q81 0 126 -54q43 -51 43 -140v-272h-47v267q0 156 -134 156q-70 0 -135 -60q15 -40 15 -91v-272h-47v267q0 156 -125 156q-80 0 -135 -71v-352h-47v454h39z" />
<glyph unicode="n" horiz-adv-x="521" d="M121 403q69 63 156 63q82 0 127 -53q44 -50 44 -141v-272h-47v267q0 156 -136 156q-88 0 -140 -69v-354h-47v454h39z" />
<glyph unicode="o" horiz-adv-x="528" d="M264 466q103 0 165 -79q51 -67 51 -161q0 -108 -66 -176q-59 -62 -150 -62q-104 0 -165 79q-51 66 -51 159q0 109 66 178q59 62 150 62zM264 424q-79 0 -125 -65q-38 -54 -38 -133q0 -89 50 -145q45 -51 113 -51q78 0 124 65q39 54 39 131q0 91 -49 147q-45 51 -114 51z " />
<glyph unicode="p" horiz-adv-x="529" d="M117 454l8 -52q54 64 157 64q96 0 152 -75q47 -63 47 -155q0 -122 -68 -191q-56 -57 -136 -57q-96 0 -152 60v-233h-47v639h39zM125 348v-248q19 -30 57 -49.5t78 -19.5q77 0 124 55q44 52 44 140q0 100 -50 152q-42 45 -111 45q-42 0 -81.5 -21t-60.5 -54z" />
<glyph unicode="q" horiz-adv-x="527" d="M402 -191v239q-60 -60 -155 -60q-90 0 -148 74q-51 65 -51 159q0 121 70 189q57 56 140 56q93 0 144 -58l11 46h36v-645h-47zM402 102v249q-20 33 -57.5 52.5t-79.5 19.5q-72 0 -118 -56q-45 -54 -45 -140q0 -97 52 -152q42 -44 104 -44q46 0 86.5 20t57.5 51z" />
<glyph unicode="r" horiz-adv-x="376" d="M121 403q70 63 133 63q68 0 102 -40l-39 -31q-33 27 -74 27q-62 0 -118 -68v-354h-47v454h39z" />
<glyph unicode="s" horiz-adv-x="404" d="M306 399q-48 24 -108 24q-45 0 -71 -19t-26 -53q0 -36 22.5 -55t88.5 -40q79 -25 111.5 -56t32.5 -83q0 -57 -44 -93t-113 -36q-86 0 -151 45l13 27q59 -29 125 -29q118 0 118 88q0 33 -25 53.5t-91 40.5q-140 43 -140 136q0 51 40 84t103 33q71 0 130 -39z" />
<glyph unicode="t" horiz-adv-x="347" d="M159 414v-303q0 -82 68 -82q27 0 61 15l17 -28q-41 -28 -87 -28q-47 0 -76.5 34t-29.5 89v303h-70v40h71v104l46 24v-128h143v-40h-143z" />
<glyph unicode="u" horiz-adv-x="510" d="M389 51q-69 -63 -156 -63q-71 0 -115 59q-40 53 -40 135v272h47v-267q0 -156 120 -156q87 0 140 71v352h47v-454h-39z" />
<glyph unicode="v" horiz-adv-x="425" d="M241 0h-57l-169 454h53l146 -400l143 400h53z" />
<glyph unicode="w" horiz-adv-x="683" d="M222 0h-59l-148 454h53l124 -401l124 401h60l116 -401l123 401h53l-147 -454h-59l-117 401z" />
<glyph unicode="x" horiz-adv-x="408" d="M385 454l-149 -215l157 -239h-53l-134 203l-137 -203h-54l160 236l-138 218h53l116 -181l126 181h53z" />
<glyph unicode="y" horiz-adv-x="442" d="M427 454l-199 -525q-45 -120 -122 -120q-48 0 -88 28l17 28q36 -15 62 -15q32 0 52.5 24.5t48.5 95.5l12 30h-16l-179 454h53l158 -410l148 410h53z" />
<glyph unicode="z" horiz-adv-x="399" d="M374 0h-349v42l287 372h-270v40h326v-44l-287 -370h293v-40z" />
<glyph unicode="{" horiz-adv-x="363" d="M48 232v47q51 8 79.5 49t28.5 107v44q0 95 30 130.5t110 35.5h10v-45h-10q-57 0 -74.5 -22.5t-17.5 -98.5v-44q0 -128 -113 -180q61 -28 87 -70t26 -111v-47q0 -76 17.5 -99t74.5 -23h10v-45h-10q-88 0 -117 46q-23 35 -23 121v47q0 62 -29 104.5t-79 53.5z" />
<glyph unicode="|" horiz-adv-x="223" d="M133 662v-841h-43v841h43z" />
<glyph unicode="}" horiz-adv-x="363" d="M315 279v-47q-50 -11 -79 -53.5t-29 -104.5v-47q0 -95 -30 -131t-110 -36h-10v45h10q57 0 74.5 23t17.5 99v47q0 69 26 111t87 70q-113 52 -113 180v44q0 76 -17.5 98.5t-74.5 22.5h-10v45h10q88 0 117 -45q23 -36 23 -121v-44q0 -66 28.5 -107t79.5 -49z" />
<glyph unicode="~" horiz-adv-x="471" d="M429 275q-23 -81 -80 -81q-36 0 -99 28q-8 3 -14 6q-8 3 -13 6q-53 25 -89 25q-49 0 -80 -49l-12 9q29 81 91 81q35 0 112 -35q66 -30 96 -30q53 0 76 47z" />
<glyph unicode="&#xa1;" horiz-adv-x="195" d="M73 316h47v-493h-47v493zM98 461q31 0 31 -33q0 -32 -31 -32q-32 0 -32 32q0 33 32 33z" />
<glyph unicode="&#xa2;" horiz-adv-x="467" d="M291 -11v-41h-31v40q-102 6 -160 79q-52 63 -52 158q0 107 68 177q60 61 144 64v46h31v-47q70 -5 118 -42l-19 -28q-47 26 -99 28v-392q57 0 110 32l18 -30q-49 -40 -128 -44zM260 421q-73 -7 -116 -61t-43 -138q0 -80 42.5 -130.5t116.5 -58.5v388z" />
<glyph unicode="&#xa3;" horiz-adv-x="465" d="M336 323h-165v-274h248v-49h-375v49h71v274h-73v44h73v63q0 215 167 215q80 0 141 -54l-24 -34q-54 38 -109 38q-119 0 -119 -157v-71h165v-44z" />
<glyph unicode="&#xa4;" horiz-adv-x="476" d="M432 101l-85 83q-41 -32 -103 -32q-63 0 -104 32l-81 -80q-1 -1 -3 -1q-6 0 -17 12t-11 19v1l81 80q-33 42 -33 100q0 57 36 103l-84 83q-1 2 -1 4q0 6 10.5 16.5t17.5 10.5q1 0 2 -1l85 -84q44 31 102 31q57 0 101 -31l84 83q2 2 4 2q8 0 17.5 -9t9.5 -16q0 -3 -2 -5 l-83 -82q36 -46 36 -105q0 -57 -34 -101l83 -80q1 -1 1 -4q0 -8 -9.5 -19.5t-15.5 -11.5q-3 0 -4 2zM245 191q57 0 88.5 32.5t31.5 91.5t-32 92.5t-88 33.5t-90 -34.5t-34 -91.5t33.5 -90.5t90.5 -33.5z" />
<glyph unicode="&#xa5;" horiz-adv-x="439" d="M189 0v187h-107v44h107v40h-107v45h107l-158 316h56l133 -258l131 258h56l-160 -316h110v-45h-110v-40h110v-44h-110v-187h-58z" />
<glyph unicode="&#xa6;" horiz-adv-x="223" d="M90 215h43v-407h-43v407zM133 676v-371h-43v371h43z" />
<glyph unicode="&#xa7;" horiz-adv-x="435" d="M305 128q68 -38 68 -119q0 -67 -44.5 -108t-116.5 -41q-80 0 -145 43l13 24q53 -23 113 -23q130 0 130 96q0 41 -27 67t-90 48q-84 28 -120 63.5t-36 90.5q0 82 89 129q-68 45 -68 115q0 61 39.5 96.5t106.5 35.5q76 0 135 -39l-12 -17l-4 -7q-47 22 -106 22 q-50 0 -79.5 -23t-29.5 -62q0 -38 29.5 -65.5t100.5 -54.5q73 -27 103.5 -62.5t30.5 -91.5q0 -74 -80 -117zM161 384q-62 -41 -62 -100q0 -46 28.5 -74.5t99.5 -52.5q11 -4 31 -11q9 -3 17 -6q24 10 44.5 39.5t20.5 56.5q0 76 -92 111l-8 3q-7 3 -10 4q-49 19 -69 30z" />
<glyph unicode="&#xa8;" horiz-adv-x="280" d="M34 609q0 15 10.5 25.5t25.5 10.5t25.5 -10.5t10.5 -25.5t-10.5 -25.5t-25.5 -10.5t-25.5 10.5t-10.5 25.5zM174 609q0 15 10.5 25.5t25.5 10.5t25.5 -10.5t10.5 -25.5t-10.5 -25.5t-25.5 -10.5t-25.5 10.5t-10.5 25.5z" />
<glyph unicode="&#xa9;" horiz-adv-x="698" d="M487 167q-57 -43 -132 -43q-81 0 -133 63q-43 52 -43 124q0 86 57 142q50 49 122 49q68 0 122 -43l-12 -26q-50 28 -104 28q-71 0 -107 -53q-28 -41 -28 -100q0 -61 40 -101t102 -40q57 0 100 30zM349 617q133 0 223 -100q78 -86 78 -202q0 -133 -100 -223 q-86 -78 -201 -78q-133 0 -223 100q-78 86 -78 201q0 133 100 224q86 78 201 78zM351 53q117 0 193 86q64 74 64 176q0 118 -85 195q-74 67 -176 67q-118 0 -193 -86q-64 -73 -64 -176q0 -118 85 -195q74 -67 176 -67z" />
<glyph unicode="&#xaa;" horiz-adv-x="268" d="M226 406h-35l-6 40q-24 -46 -76 -46q-33 0 -54.5 20.5t-21.5 52.5q0 77 122 77h27v2q0 60 -58 60q-31 0 -65 -25l-18 24q43 34 92 34q93 0 93 -101v-138zM181 524h-24q-81 0 -81 -48q0 -41 47 -41q45 0 58 45v44z" />
<glyph unicode="&#xab;" horiz-adv-x="478" d="M250 24q-55 19 -109 77t-89 136q35 79 89 137t109 77v-45q-96 -50 -149 -169q53 -118 149 -168v-45zM436 24q-54 19 -108 77t-90 136q36 79 90 137t108 77v-45q-95 -50 -149 -169q54 -118 149 -168v-45z" />
<glyph unicode="&#xac;" horiz-adv-x="457" d="M358 0v163h-316v54h373v-217h-57z" />
<glyph unicode="&#xad;" horiz-adv-x="261" d="M236 220h-211v40h211v-40z" />
<glyph unicode="&#xae;" horiz-adv-x="414" d="M202 470h-23v-60h-26v157h49q59 0 59 -47q0 -34 -31 -46l36 -64h-32zM203 544h-24v-49h24q31 0 31 23q0 26 -31 26zM207 322q-72 0 -120 54q-42 46 -42 108q0 71 54 120q46 41 108 41q72 0 120 -53q42 -46 42 -108q0 -72 -54 -120q-46 -42 -108 -42zM207 615 q-54 0 -92.5 -38.5t-38.5 -92.5q0 -55 38 -93.5t93 -38.5t93 38.5t38 93.5q0 54 -38.5 92.5t-92.5 38.5z" />
<glyph unicode="&#xaf;" horiz-adv-x="216" d="M200 594h-184v39h184v-39z" />
<glyph unicode="&#xb0;" horiz-adv-x="276" d="M25 539q0 47 33 80t80 33t80 -33t33 -80t-33 -80t-80 -33t-80 33t-33 80zM56 540q0 -35 24 -59.5t59 -24.5q34 0 58 24.5t24 59.5t-24 59t-58 24q-35 0 -59 -24t-24 -59z" />
<glyph unicode="&#xb1;" horiz-adv-x="499" d="M227 260h-185v40h185v154h43v-154h187v-40h-187v-154h-43v154zM457 0h-415v40h415v-40z" />
<glyph unicode="&#xb2;" horiz-adv-x="331" d="M62 316v44l98 89q66 60 66 96q0 57 -67 57q-34 0 -82 -27l-18 25q52 45 105 45q48 0 77 -26.5t29 -70.5q0 -30 -15 -55.5t-58 -66.5l-70 -67h145v-43h-210z" />
<glyph unicode="&#xb3;" horiz-adv-x="347" d="M138 469v42h30q69 0 69 45q0 46 -66 46q-39 0 -80 -21l-18 22q51 42 107 42q47 0 74.5 -22t27.5 -60q0 -48 -46 -73q52 -16 52 -79q0 -43 -32 -70t-83 -27t-100 41l19 23q36 -21 75 -21q33 0 54 15t21 38q0 59 -74 59h-30z" />
<glyph unicode="&#xb4;" horiz-adv-x="153" d="M128 655l-76 -102h-27l48 102h55z" />
<glyph unicode="&#xb5;" horiz-adv-x="536" d="M127 31v-209h-49v632h49v-284q0 -133 111 -133q86 0 127 78v339h49v-357q0 -66 48 -66q20 0 38 8l13 -22q-28 -30 -67 -30q-73 0 -82 78q-51 -77 -135 -77q-69 0 -102 43z" />
<glyph unicode="&#xb6;" horiz-adv-x="414" d="M324 0h-24v633h24v-633zM245 0v370h-43q-72 0 -114 34.5t-42 93.5t43 97t111 38h69v-633h-24z" />
<glyph unicode="&#xb7;" horiz-adv-x="162" d="M39 350q0 17 12.5 29.5t29.5 12.5t29.5 -12.5t12.5 -29.5t-12.5 -29.5t-29.5 -12.5t-29.5 12.5t-12.5 29.5z" />
<glyph unicode="&#xb8;" horiz-adv-x="207" d="M52 -56l16 66h39l-12 -42q10 2 21 2q66 0 66 -56q0 -32 -25.5 -53t-64.5 -21q-32 0 -67 15l11 33q25 -14 52 -14q50 0 50 37q0 36 -50 36q-18 0 -36 -3z" />
<glyph unicode="&#xb9;" horiz-adv-x="253" d="M153 633v-315h-40v259l-54 -44l-30 31l83 69h41z" />
<glyph unicode="&#xba;" horiz-adv-x="288" d="M145 645q49 0 79.5 -34.5t30.5 -88.5q0 -52 -31.5 -87t-78.5 -35q-48 0 -80 35t-32 87q0 55 31 89t81 34zM145 616q-30 0 -48.5 -25.5t-18.5 -68.5q0 -40 19.5 -66.5t48.5 -26.5q30 0 47.5 25t17.5 68q0 42 -18.5 68t-47.5 26z" />
<glyph unicode="&#xbb;" horiz-adv-x="478" d="M42 24v45q96 50 149 168q-53 119 -149 169v45q55 -19 108.5 -77t89.5 -137q-36 -78 -89.5 -136t-108.5 -77zM228 24v45q96 50 149 168q-53 119 -149 169v45q55 -19 109 -77t89 -137q-35 -78 -89 -136t-109 -77z" />
<glyph unicode="&#xbc;" horiz-adv-x="778" d="M197 633v-315h-40v259l-54 -44l-30 31l83 69h41zM453 110l171 208h41v-208h61v-43h-61v-67h-41v67h-171v43zM507 110h117v145zM580 633l-383 -663h-45l384 663h44z" />
<glyph unicode="&#xbd;" horiz-adv-x="800" d="M197 633v-315h-40v259l-54 -44l-30 31l83 69h41zM512 0v44l98 89q66 60 66 96q0 57 -67 57q-34 0 -82 -27l-18 25q52 45 105 45q48 0 77 -26.5t29 -70.5q0 -30 -15 -55.5t-58 -66.5l-70 -67h145v-43h-210zM576 633l-383 -663h-45l384 663h44z" />
<glyph unicode="&#xbe;" horiz-adv-x="822" d="M138 469v42h30q69 0 69 45q0 46 -66 46q-39 0 -80 -21l-18 22q51 42 107 42q47 0 74.5 -22t27.5 -60q0 -48 -46 -73q52 -16 52 -79q0 -43 -32 -70t-83 -27t-100 41l19 23q36 -21 75 -21q33 0 54 15t21 38q0 59 -74 59h-30zM490 110l171 208h41v-208h61v-43h-61v-67h-41 v67h-171v43zM544 110h117v145zM629 633l-383 -663h-45l384 663h44z" />
<glyph unicode="&#xbf;" horiz-adv-x="380" d="M207 304h49v-78q0 -40 -10 -58t-50 -51q-95 -77 -95 -151q0 -51 28.5 -80t78.5 -29q60 0 109 26l15 -30q-62 -45 -136 -45q-67 0 -107.5 41t-40.5 108q0 90 87 165q11 10 18 15q35 28 44.5 45.5t9.5 51.5v70zM274 423q0 -17 -12.5 -29.5t-29.5 -12.5t-29.5 12.5 t-12.5 29.5t12.5 29.5t29.5 12.5t29.5 -12.5t12.5 -29.5z" />
<glyph unicode="&#xc0;" horiz-adv-x="576" d="M240 633h66l224 -633h-56l-55 152h-291l-54 -152h-59zM272 578l-130 -379h261zM237 721l-76 102h55l48 -102h-27z" />
<glyph unicode="&#xc1;" horiz-adv-x="576" d="M240 633h66l224 -633h-56l-55 152h-291l-54 -152h-59zM272 578l-130 -379h261zM363 823l-76 -102h-27l48 102h55z" />
<glyph unicode="&#xc2;" horiz-adv-x="576" d="M240 633h66l224 -633h-56l-55 152h-291l-54 -152h-59zM272 578l-130 -379h261zM254 823h37l70 -102h-43l-45 67l-48 -67h-42z" />
<glyph unicode="&#xc3;" horiz-adv-x="576" d="M240 633h66l224 -633h-56l-55 152h-291l-54 -152h-59zM272 578l-130 -379h261zM414 792q-27 -67 -75 -67q-18 0 -51 19q-1 0 -2 1q-2 1 -3 1q-2 1 -7 4l-2 1q-32 19 -48 19q-17 0 -35 -13t-24 -30l-21 13q26 67 80 67q30 0 66 -24q32 -21 51 -21q28 0 50 44z" />
<glyph unicode="&#xc4;" horiz-adv-x="576" d="M240 633h66l224 -633h-56l-55 152h-291l-54 -152h-59zM272 578l-130 -379h261zM169 777q0 15 10.5 25.5t25.5 10.5t25.5 -10.5t10.5 -25.5t-10.5 -25.5t-25.5 -10.5t-25.5 10.5t-10.5 25.5zM309 777q0 15 10.5 25.5t25.5 10.5t25.5 -10.5t10.5 -25.5t-10.5 -25.5 t-25.5 -10.5t-25.5 10.5t-10.5 25.5z" />
<glyph unicode="&#xc5;" horiz-adv-x="576" d="M240 633h66l224 -633h-56l-55 152h-291l-54 -152h-59zM272 578l-130 -379h261zM210 763q0 26 18.5 44.5t44.5 18.5t44.5 -18.5t18.5 -44.5t-18.5 -44.5t-44.5 -18.5t-44.5 18.5t-18.5 44.5zM236 763q0 -15 10.5 -25.5t25.5 -10.5t26 10.5t11 25.5t-11 25.5t-26 10.5 t-25.5 -10.5t-10.5 -25.5z" />
<glyph unicode="&#xc6;" horiz-adv-x="757" d="M692 633v-49h-303v-230h255v-49h-255v-256h316v-49h-371v161h-197l-64 -161h-58l278 633h399zM320 582l-162 -374h176v374h-14z" />
<glyph unicode="&#xc7;" horiz-adv-x="566" d="M280 -56l11 46q-117 11 -184 108q-59 86 -59 212q0 148 78 245q73 90 186 90q101 0 172 -57l-24 -31q-65 39 -139 39q-100 0 -158 -82q-55 -76 -55 -204q0 -138 72 -213q59 -60 149 -60q81 0 140 47l23 -33q-68 -60 -164 -63l-5 -20q10 2 21 2q66 0 66 -56 q0 -32 -25.5 -53t-64.5 -21q-32 0 -67 15l11 33q25 -14 52 -14q50 0 50 37q0 36 -50 36q-18 0 -36 -3z" />
<glyph unicode="&#xc8;" horiz-adv-x="526" d="M82 633h358v-49h-303v-230h255v-49h-255v-256h316v-49h-371v633zM252 722l-76 102h55l48 -102h-27z" />
<glyph unicode="&#xc9;" horiz-adv-x="526" d="M82 633h358v-49h-303v-230h255v-49h-255v-256h316v-49h-371v633zM328 819l-76 -102h-27l48 102h55z" />
<glyph unicode="&#xca;" horiz-adv-x="526" d="M82 633h358v-49h-303v-230h255v-49h-255v-256h316v-49h-371v633zM242 823h37l70 -102h-43l-45 67l-48 -67h-42z" />
<glyph unicode="&#xcb;" horiz-adv-x="526" d="M82 633h358v-49h-303v-230h255v-49h-255v-256h316v-49h-371v633zM155 777q0 15 10.5 25.5t25.5 10.5t25.5 -10.5t10.5 -25.5t-10.5 -25.5t-25.5 -10.5t-25.5 10.5t-10.5 25.5zM295 777q0 15 10.5 25.5t25.5 10.5t25.5 -10.5t10.5 -25.5t-10.5 -25.5t-25.5 -10.5 t-25.5 10.5t-10.5 25.5z" />
<glyph unicode="&#xcc;" horiz-adv-x="272" d="M145 633v-633h-55v633h55zM103 721l-76 102h55l48 -102h-27z" />
<glyph unicode="&#xcd;" horiz-adv-x="272" d="M145 633v-633h-55v633h55zM211 823l-76 -102h-27l48 102h55z" />
<glyph unicode="&#xce;" horiz-adv-x="272" d="M145 633v-633h-55v633h55zM100 834h37l70 -102h-43l-45 67l-48 -67h-42z" />
<glyph unicode="&#xcf;" horiz-adv-x="272" d="M145 633v-633h-55v633h55zM11 777q0 15 10.5 25.5t25.5 10.5t25.5 -10.5t10.5 -25.5t-10.5 -25.5t-25.5 -10.5t-25.5 10.5t-10.5 25.5zM151 777q0 15 10.5 25.5t25.5 10.5t25.5 -10.5t10.5 -25.5t-10.5 -25.5t-25.5 -10.5t-25.5 10.5t-10.5 25.5z" />
<glyph unicode="&#xd0;" horiz-adv-x="655" d="M119 306h-78v44h78v285q93 10 145 10q161 0 246 -98q73 -84 73 -224q0 -169 -91 -257q-81 -78 -222 -78q-51 0 -151 10v308zM175 47q53 -11 95 -11q127 0 192 80q60 72 60 203q0 142 -82 217q-68 61 -173 61q-42 0 -92 -11v-236h154v-44h-154v-259z" />
<glyph unicode="&#xd1;" horiz-adv-x="675" d="M145 532v-532h-55v633h53q26 -43 156 -269t156 -273v542h55v-633h-54q-38 64 -210 359q-80 137 -101 173zM440 783q-27 -67 -75 -67q-18 0 -51 19q-1 0 -2 1q-2 1 -3 1q-2 1 -7 4l-2 1q-32 19 -48 19q-17 0 -35 -13t-24 -30l-21 13q26 67 80 67q30 0 66 -24 q32 -21 51 -21q28 0 50 44z" />
<glyph unicode="&#xd2;" horiz-adv-x="654" d="M317 645q134 0 209 -114q58 -89 58 -214q0 -146 -76 -239q-73 -90 -191 -90q-134 0 -209 114q-58 90 -58 215q0 145 76 239q73 89 191 89zM317 37q106 0 162 91q45 75 45 189q0 132 -59 208q-55 71 -148 71q-106 0 -162 -91q-45 -74 -45 -188q0 -132 59 -209 q55 -71 148 -71zM300 720l-76 102h55l48 -102h-27z" />
<glyph unicode="&#xd3;" horiz-adv-x="654" d="M317 645q134 0 209 -114q58 -89 58 -214q0 -146 -76 -239q-73 -90 -191 -90q-134 0 -209 114q-58 90 -58 215q0 145 76 239q73 89 191 89zM317 37q106 0 162 91q45 75 45 189q0 132 -59 208q-55 71 -148 71q-106 0 -162 -91q-45 -74 -45 -188q0 -132 59 -209 q55 -71 148 -71zM399 822l-76 -102h-27l48 102h55z" />
<glyph unicode="&#xd4;" horiz-adv-x="654" d="M317 645q134 0 209 -114q58 -89 58 -214q0 -146 -76 -239q-73 -90 -191 -90q-134 0 -209 114q-58 90 -58 215q0 145 76 239q73 89 191 89zM317 37q106 0 162 91q45 75 45 189q0 132 -59 208q-55 71 -148 71q-106 0 -162 -91q-45 -74 -45 -188q0 -132 59 -209 q55 -71 148 -71zM297 822h37l70 -102h-43l-45 67l-48 -67h-42z" />
<glyph unicode="&#xd5;" horiz-adv-x="654" d="M317 645q134 0 209 -114q58 -89 58 -214q0 -146 -76 -239q-73 -90 -191 -90q-134 0 -209 114q-58 90 -58 215q0 145 76 239q73 89 191 89zM317 37q106 0 162 91q45 75 45 189q0 132 -59 208q-55 71 -148 71q-106 0 -162 -91q-45 -74 -45 -188q0 -132 59 -209 q55 -71 148 -71zM454 792q-27 -67 -75 -67q-18 0 -51 19q-1 0 -2 1q-2 1 -3 1q-2 1 -7 4l-2 1q-32 19 -48 19q-17 0 -35 -13t-24 -30l-21 13q26 67 80 67q30 0 66 -24q32 -21 51 -21q28 0 50 44z" />
<glyph unicode="&#xd6;" horiz-adv-x="654" d="M317 645q134 0 209 -114q58 -89 58 -214q0 -146 -76 -239q-73 -90 -191 -90q-134 0 -209 114q-58 90 -58 215q0 145 76 239q73 89 191 89zM317 37q106 0 162 91q45 75 45 189q0 132 -59 208q-55 71 -148 71q-106 0 -162 -91q-45 -74 -45 -188q0 -132 59 -209 q55 -71 148 -71zM216 777q0 15 10.5 25.5t25.5 10.5t25.5 -10.5t10.5 -25.5t-10.5 -25.5t-25.5 -10.5t-25.5 10.5t-10.5 25.5zM356 777q0 15 10.5 25.5t25.5 10.5t25.5 -10.5t10.5 -25.5t-10.5 -25.5t-25.5 -10.5t-25.5 10.5t-10.5 25.5z" />
<glyph unicode="&#xd7;" horiz-adv-x="501" d="M256 202l-180 -192q-10 9 -22 22l-1 1l-11 11l185 188q-27 29 -91 98q-56 59 -81 86q5 5 12 11q12 11 18 19l168 -185q27 28 84 90q60 65 90 96l32 -31l-176 -185q29 -32 77 -85q66 -70 96 -106l-30 -30z" />
<glyph unicode="&#xd8;" horiz-adv-x="634" d="M510 645l-30 -61q104 -93 104 -267q0 -146 -76 -239q-73 -90 -191 -90q-63 0 -115 27l-22 -45h-50l34 70q-114 92 -114 277q0 145 76 239q73 89 191 89q70 0 127 -35l17 35h49zM422 565q-45 31 -105 31q-106 0 -162 -91q-45 -74 -45 -188q0 -155 77 -230zM224 60 q40 -23 93 -23q106 0 162 91q45 75 45 189q0 141 -68 218z" />
<glyph unicode="&#xd9;" horiz-adv-x="644" d="M529 263q0 -275 -219 -275q-220 0 -220 275v370h55v-393q0 -203 165 -203q162 0 162 203v393h57v-370zM306 720l-76 102h55l48 -102h-27z" />
<glyph unicode="&#xda;" horiz-adv-x="644" d="M529 263q0 -275 -219 -275q-220 0 -220 275v370h55v-393q0 -203 165 -203q162 0 162 203v393h57v-370zM381 822l-76 -102h-27l48 102h55z" />
<glyph unicode="&#xdb;" horiz-adv-x="644" d="M529 263q0 -275 -219 -275q-220 0 -220 275v370h55v-393q0 -203 165 -203q162 0 162 203v393h57v-370zM291 822h37l70 -102h-43l-45 67l-48 -67h-42z" />
<glyph unicode="&#xdc;" horiz-adv-x="644" d="M529 263q0 -275 -219 -275q-220 0 -220 275v370h55v-393q0 -203 165 -203q162 0 162 203v393h57v-370zM206 778q0 15 10.5 25.5t25.5 10.5t25.5 -10.5t10.5 -25.5t-10.5 -25.5t-25.5 -10.5t-25.5 10.5t-10.5 25.5zM346 778q0 15 10.5 25.5t25.5 10.5t25.5 -10.5 t10.5 -25.5t-10.5 -25.5t-25.5 -10.5t-25.5 10.5t-10.5 25.5z" />
<glyph unicode="&#xdd;" horiz-adv-x="509" d="M15 633h57l182 -332l182 332h58l-213 -386v-247h-54v247zM341 818l-76 -102h-27l48 102h55z" />
<glyph unicode="&#xde;" horiz-adv-x="533" d="M90 0v633h54v-118q34 14 92 14q123 0 178 -64q41 -47 41 -124q0 -102 -67 -155q-56 -44 -143 -44q-38 0 -100 11v-153h-55zM145 468v-267q44 -10 100 -10q150 0 150 150q0 139 -158 139q-53 0 -92 -12z" />
<glyph unicode="&#xdf;" horiz-adv-x="490" d="M298 340q66 -12 104 -59t38 -117q0 -93 -63 -142q-45 -34 -98 -34q-51 0 -98 20l14 36q35 -13 73 -13q51 0 85 38.5t34 96.5q0 65 -40 106.5t-104 41.5h-16v40h13q50 0 85.5 38.5t35.5 92.5q0 53 -34 86.5t-88 33.5q-52 0 -82.5 -32t-30.5 -88v-485h-48v471 q0 175 162 175q84 0 133 -53q41 -44 41 -107q0 -57 -31.5 -97t-84.5 -49z" />
<glyph unicode="&#xe0;" horiz-adv-x="495" d="M400 0h-34l-9 51q-67 -63 -159 -63q-67 0 -108.5 38t-41.5 100q0 156 220 156h85v8q0 133 -128 133q-65 0 -128 -45l-19 28q60 60 158 60q79 0 121.5 -48.5t42.5 -138.5v-279zM353 242h-77q-94 0 -134.5 -25t-40.5 -84q0 -48 29.5 -75t81.5 -27q42 0 83 20.5t58 49.5v141 zM235 548l-76 102h55l48 -102h-27z" />
<glyph unicode="&#xe1;" horiz-adv-x="495" d="M400 0h-34l-9 51q-67 -63 -159 -63q-67 0 -108.5 38t-41.5 100q0 156 220 156h85v8q0 133 -128 133q-65 0 -128 -45l-19 28q60 60 158 60q79 0 121.5 -48.5t42.5 -138.5v-279zM353 242h-77q-94 0 -134.5 -25t-40.5 -84q0 -48 29.5 -75t81.5 -27q42 0 83 20.5t58 49.5v141 zM314 650l-76 -102h-27l48 102h55z" />
<glyph unicode="&#xe2;" horiz-adv-x="495" d="M400 0h-34l-9 51q-67 -63 -159 -63q-67 0 -108.5 38t-41.5 100q0 156 220 156h85v8q0 133 -128 133q-65 0 -128 -45l-19 28q60 60 158 60q79 0 121.5 -48.5t42.5 -138.5v-279zM353 242h-77q-94 0 -134.5 -25t-40.5 -84q0 -48 29.5 -75t81.5 -27q42 0 83 20.5t58 49.5v141 zM216 655h37l70 -102h-43l-45 67l-48 -67h-42z" />
<glyph unicode="&#xe3;" horiz-adv-x="495" d="M400 0h-34l-9 51q-67 -63 -159 -63q-67 0 -108.5 38t-41.5 100q0 156 220 156h85v8q0 133 -128 133q-65 0 -128 -45l-19 28q60 60 158 60q79 0 121.5 -48.5t42.5 -138.5v-279zM353 242h-77q-94 0 -134.5 -25t-40.5 -84q0 -48 29.5 -75t81.5 -27q42 0 83 20.5t58 49.5v141 zM377 626q-27 -67 -75 -67q-18 0 -51 19q-1 0 -2 1q-2 1 -3 1q-2 1 -7 4l-2 1q-32 19 -48 19q-17 0 -35 -13t-24 -30l-21 13q26 67 80 67q30 0 66 -24q32 -21 51 -21q28 0 50 44z" />
<glyph unicode="&#xe4;" horiz-adv-x="495" d="M400 0h-34l-9 51q-67 -63 -159 -63q-67 0 -108.5 38t-41.5 100q0 156 220 156h85v8q0 133 -128 133q-65 0 -128 -45l-19 28q60 60 158 60q79 0 121.5 -48.5t42.5 -138.5v-279zM353 242h-77q-94 0 -134.5 -25t-40.5 -84q0 -48 29.5 -75t81.5 -27q42 0 83 20.5t58 49.5v141 zM132 609q0 15 10.5 25.5t25.5 10.5t25.5 -10.5t10.5 -25.5t-10.5 -25.5t-25.5 -10.5t-25.5 10.5t-10.5 25.5zM272 609q0 15 10.5 25.5t25.5 10.5t25.5 -10.5t10.5 -25.5t-10.5 -25.5t-25.5 -10.5t-25.5 10.5t-10.5 25.5z" />
<glyph unicode="&#xe5;" horiz-adv-x="495" d="M400 0h-34l-9 51q-67 -63 -159 -63q-67 0 -108.5 38t-41.5 100q0 156 220 156h85v8q0 133 -128 133q-65 0 -128 -45l-19 28q60 60 158 60q79 0 121.5 -48.5t42.5 -138.5v-279zM353 242h-77q-94 0 -134.5 -25t-40.5 -84q0 -48 29.5 -75t81.5 -27q42 0 83 20.5t58 49.5v141 zM176 594q0 26 18.5 44.5t44.5 18.5t44.5 -18.5t18.5 -44.5t-18.5 -44.5t-44.5 -18.5t-44.5 18.5t-18.5 44.5zM202 594q0 -15 10.5 -25.5t25.5 -10.5t26 10.5t11 25.5t-11 25.5t-26 10.5t-25.5 -10.5t-10.5 -25.5z" />
<glyph unicode="&#xe6;" horiz-adv-x="795" d="M735 210h-328q2 -83 58 -134q52 -45 131 -45q67 0 117 36l19 -31q-60 -48 -152 -48q-126 0 -188 92q-92 -92 -194 -92q-67 0 -108.5 38t-41.5 100q0 156 220 156h85v8q0 133 -128 133q-65 0 -128 -45l-19 28q60 60 158 60q117 0 152 -104q57 104 164 104q97 0 146 -85 q37 -64 37 -157v-14zM353 242h-77q-94 0 -134.5 -25t-40.5 -84q0 -48 29.5 -75t81.5 -27q42 0 83 20.5t58 49.5v141zM408 250h277q-2 83 -37 128.5t-97 45.5q-58 0 -98 -48.5t-45 -125.5z" />
<glyph unicode="&#xe7;" horiz-adv-x="481" d="M214 -56l12 49q-87 16 -135 85q-43 61 -43 147q0 110 71 180q62 61 149 61t141 -43l-19 -28q-50 28 -107 28q-90 0 -140 -64q-42 -53 -42 -137q0 -90 54 -142q50 -49 135 -49q58 0 111 32l18 -30q-56 -45 -145 -45h-12l-5 -20q10 2 21 2q66 0 66 -56q0 -32 -25.5 -53 t-64.5 -21q-32 0 -67 15l11 33q25 -14 52 -14q50 0 50 37q0 36 -50 36q-18 0 -36 -3z" />
<glyph unicode="&#xe8;" horiz-adv-x="512" d="M429 210h-328q2 -83 58 -134q52 -45 131 -45q67 0 117 36l19 -31q-60 -48 -152 -48q-105 0 -169 72q-57 65 -57 165q0 106 61 177q56 64 137 64q97 0 146 -85q37 -64 37 -157v-14zM102 250h277q-2 83 -37 128.5t-97 45.5q-58 0 -98 -48.5t-45 -125.5zM232 553l-76 102h55 l48 -102h-27z" />
<glyph unicode="&#xe9;" horiz-adv-x="512" d="M429 210h-328q2 -83 58 -134q52 -45 131 -45q67 0 117 36l19 -31q-60 -48 -152 -48q-105 0 -169 72q-57 65 -57 165q0 106 61 177q56 64 137 64q97 0 146 -85q37 -64 37 -157v-14zM102 250h277q-2 83 -37 128.5t-97 45.5q-58 0 -98 -48.5t-45 -125.5zM339 655l-76 -102 h-27l48 102h55z" />
<glyph unicode="&#xea;" horiz-adv-x="512" d="M429 210h-328q2 -83 58 -134q52 -45 131 -45q67 0 117 36l19 -31q-60 -48 -152 -48q-105 0 -169 72q-57 65 -57 165q0 106 61 177q56 64 137 64q97 0 146 -85q37 -64 37 -157v-14zM102 250h277q-2 83 -37 128.5t-97 45.5q-58 0 -98 -48.5t-45 -125.5zM230 655h37l70 -102 h-43l-45 67l-48 -67h-42z" />
<glyph unicode="&#xeb;" horiz-adv-x="512" d="M429 210h-328q2 -83 58 -134q52 -45 131 -45q67 0 117 36l19 -31q-60 -48 -152 -48q-105 0 -169 72q-57 65 -57 165q0 106 61 177q56 64 137 64q97 0 146 -85q37 -64 37 -157v-14zM102 250h277q-2 83 -37 128.5t-97 45.5q-58 0 -98 -48.5t-45 -125.5zM143 609 q0 15 10.5 25.5t25.5 10.5t25.5 -10.5t10.5 -25.5t-10.5 -25.5t-25.5 -10.5t-25.5 10.5t-10.5 25.5zM283 609q0 15 10.5 25.5t25.5 10.5t25.5 -10.5t10.5 -25.5t-10.5 -25.5t-25.5 -10.5t-25.5 10.5t-10.5 25.5z" />
<glyph unicode="&#xec;" horiz-adv-x="281" d="M153 454v-454h-47v454h47zM118 553l-76 102h55l48 -102h-27z" />
<glyph unicode="&#xed;" horiz-adv-x="273" d="M221 655l-76 -102h-27l48 102h55zM156 454v-454h-47v454h47z" />
<glyph unicode="&#xee;" horiz-adv-x="281" d="M165 454v-454h-47v454h47zM123 655h37l70 -102h-43l-45 67l-48 -67h-42z" />
<glyph unicode="&#xef;" horiz-adv-x="281" d="M151 454v-454h-47v454h47zM23 609q0 15 10.5 25.5t25.5 10.5t25.5 -10.5t10.5 -25.5t-10.5 -25.5t-25.5 -10.5t-25.5 10.5t-10.5 25.5zM163 609q0 15 10.5 25.5t25.5 10.5t25.5 -10.5t10.5 -25.5t-10.5 -25.5t-25.5 -10.5t-25.5 10.5t-10.5 25.5z" />
<glyph unicode="&#xf0;" horiz-adv-x="503" d="M159 627l27 18q66 -12 125 -62l106 57l24 -22l-105 -55q107 -107 107 -287q0 -125 -52 -204q-56 -84 -156 -84q-93 0 -147 78q-40 56 -40 121q0 126 72 183q51 40 126 40q86 0 138 -58q-16 111 -90 191l-123 -63l-23 24l123 62q-41 41 -112 61zM385 301q-51 65 -134 65 q-68 0 -107 -43.5t-39 -120.5q0 -79 34 -125t93 -46q73 0 114 60.5t41 168.5q0 20 -2 41z" />
<glyph unicode="&#xf1;" horiz-adv-x="545" d="M121 403q69 63 156 63q82 0 127 -53q44 -50 44 -141v-272h-47v267q0 156 -136 156q-88 0 -140 -69v-354h-47v454h39zM412 640q-27 -67 -75 -67q-18 0 -51 19q-1 0 -2 1q-2 1 -3 1q-2 1 -7 4l-2 1q-32 19 -48 19q-17 0 -35 -13t-24 -30l-21 13q26 67 80 67q30 0 66 -24 q32 -21 51 -21q28 0 50 44z" />
<glyph unicode="&#xf2;" horiz-adv-x="538" d="M264 466q103 0 165 -79q51 -67 51 -161q0 -108 -66 -176q-59 -62 -150 -62q-104 0 -165 79q-51 66 -51 159q0 109 66 178q59 62 150 62zM264 424q-79 0 -125 -65q-38 -54 -38 -133q0 -89 50 -145q45 -51 113 -51q78 0 124 65q39 54 39 131q0 91 -49 147q-45 51 -114 51z M254 553l-76 102h55l48 -102h-27z" />
<glyph unicode="&#xf3;" horiz-adv-x="538" d="M264 466q103 0 165 -79q51 -67 51 -161q0 -108 -66 -176q-59 -62 -150 -62q-104 0 -165 79q-51 66 -51 159q0 109 66 178q59 62 150 62zM264 424q-79 0 -125 -65q-38 -54 -38 -133q0 -89 50 -145q45 -51 113 -51q78 0 124 65q39 54 39 131q0 91 -49 147q-45 51 -114 51z M346 655l-76 -102h-27l48 102h55z" />
<glyph unicode="&#xf4;" horiz-adv-x="538" d="M264 466q103 0 165 -79q51 -67 51 -161q0 -108 -66 -176q-59 -62 -150 -62q-104 0 -165 79q-51 66 -51 159q0 109 66 178q59 62 150 62zM264 424q-79 0 -125 -65q-38 -54 -38 -133q0 -89 50 -145q45 -51 113 -51q78 0 124 65q39 54 39 131q0 91 -49 147q-45 51 -114 51z M250 655h37l70 -102h-43l-45 67l-48 -67h-42z" />
<glyph unicode="&#xf5;" horiz-adv-x="538" d="M264 466q103 0 165 -79q51 -67 51 -161q0 -108 -66 -176q-59 -62 -150 -62q-104 0 -165 79q-51 66 -51 159q0 109 66 178q59 62 150 62zM264 424q-79 0 -125 -65q-38 -54 -38 -133q0 -89 50 -145q45 -51 113 -51q78 0 124 65q39 54 39 131q0 91 -49 147q-45 51 -114 51z M394 640q-27 -67 -75 -67q-18 0 -51 19q-1 0 -2 1q-2 1 -3 1q-2 1 -7 4l-2 1q-32 19 -48 19q-17 0 -35 -13t-24 -30l-21 13q26 67 80 67q30 0 66 -24q32 -21 51 -21q28 0 50 44z" />
<glyph unicode="&#xf6;" horiz-adv-x="538" d="M264 466q103 0 165 -79q51 -67 51 -161q0 -108 -66 -176q-59 -62 -150 -62q-104 0 -165 79q-51 66 -51 159q0 109 66 178q59 62 150 62zM264 424q-79 0 -125 -65q-38 -54 -38 -133q0 -89 50 -145q45 -51 113 -51q78 0 124 65q39 54 39 131q0 91 -49 147q-45 51 -114 51z M164 609q0 15 10.5 25.5t25.5 10.5t25.5 -10.5t10.5 -25.5t-10.5 -25.5t-25.5 -10.5t-25.5 10.5t-10.5 25.5zM304 609q0 15 10.5 25.5t25.5 10.5t25.5 -10.5t10.5 -25.5t-10.5 -25.5t-25.5 -10.5t-25.5 10.5t-10.5 25.5z" />
<glyph unicode="&#xf7;" horiz-adv-x="389" d="M195 291q-33 0 -33 34q0 33 33 33q32 0 32 -33q0 -34 -32 -34zM47 199v44h295v-44h-295zM195 73q-33 0 -33 34t33 34q32 0 32 -34t-32 -34z" />
<glyph unicode="&#xf8;" horiz-adv-x="528" d="M148 21q-100 66 -100 205q0 109 66 178q59 62 150 62q40 0 78 -15l18 39h43l-26 -56q103 -67 103 -208q0 -108 -66 -176q-59 -62 -150 -62q-42 0 -82 15l-15 -33h-42zM200 44q30 -14 64 -14q78 0 124 65q39 54 39 131q0 110 -69 165zM324 412q-27 12 -60 12 q-79 0 -125 -65q-38 -54 -38 -133q0 -106 66 -161z" />
<glyph unicode="&#xf9;" horiz-adv-x="534" d="M389 51q-69 -63 -156 -63q-71 0 -115 59q-40 53 -40 135v272h47v-267q0 -156 120 -156q87 0 140 71v352h47v-454h-39zM240 553l-76 102h55l48 -102h-27z" />
<glyph unicode="&#xfa;" horiz-adv-x="534" d="M330 655l-76 -102h-27l48 102h55zM389 51q-69 -63 -156 -63q-71 0 -115 59q-40 53 -40 135v272h47v-267q0 -156 120 -156q87 0 140 71v352h47v-454h-39z" />
<glyph unicode="&#xfb;" horiz-adv-x="534" d="M389 51q-69 -63 -156 -63q-71 0 -115 59q-40 53 -40 135v272h47v-267q0 -156 120 -156q87 0 140 71v352h47v-454h-39zM238 655h37l70 -102h-43l-45 67l-48 -67h-42z" />
<glyph unicode="&#xfc;" horiz-adv-x="534" d="M389 51q-69 -63 -156 -63q-71 0 -115 59q-40 53 -40 135v272h47v-267q0 -156 120 -156q87 0 140 71v352h47v-454h-39zM151 609q0 15 10.5 25.5t25.5 10.5t25.5 -10.5t10.5 -25.5t-10.5 -25.5t-25.5 -10.5t-25.5 10.5t-10.5 25.5zM291 609q0 15 10.5 25.5t25.5 10.5 t25.5 -10.5t10.5 -25.5t-10.5 -25.5t-25.5 -10.5t-25.5 10.5t-10.5 25.5z" />
<glyph unicode="&#xfd;" horiz-adv-x="442" d="M427 454l-199 -525q-45 -120 -122 -120q-48 0 -88 28l17 28q36 -15 62 -15q32 0 52.5 24.5t48.5 95.5l12 30h-16l-179 454h53l158 -410l148 410h53zM301 650l-76 -102h-27l48 102h55z" />
<glyph unicode="&#xfe;" horiz-adv-x="533" d="M78 618l49 25v-257q56 80 158 80q97 0 152 -74q46 -62 46 -156q0 -124 -68 -192q-55 -56 -135 -56q-89 0 -153 64v-243h-49v809zM127 323v-201q12 -38 51.5 -64.5t83.5 -26.5q75 0 122 55q44 53 44 140q0 99 -50 152q-42 45 -109 45q-60 0 -106 -45q-31 -31 -36 -55z" />
<glyph unicode="&#xff;" horiz-adv-x="442" d="M427 454l-199 -525q-45 -120 -122 -120q-48 0 -88 28l17 28q36 -15 62 -15q32 0 52.5 24.5t48.5 95.5l12 30h-16l-179 454h53l158 -410l148 410h53zM118 609q0 15 10.5 25.5t25.5 10.5t25.5 -10.5t10.5 -25.5t-10.5 -25.5t-25.5 -10.5t-25.5 10.5t-10.5 25.5zM258 609 q0 15 10.5 25.5t25.5 10.5t25.5 -10.5t10.5 -25.5t-10.5 -25.5t-25.5 -10.5t-25.5 10.5t-10.5 25.5z" />
<glyph unicode="&#x131;" horiz-adv-x="281" d="M145 454v-454h-47v454h47z" />
<glyph unicode="&#x141;" horiz-adv-x="445" d="M314 377l-166 -70v-256h255v-51h-309v284l-69 -27v41l69 27v308h54v-285l166 69v-40z" />
<glyph unicode="&#x142;" horiz-adv-x="247" d="M222 388l-80 -41v-347h-49v323l-68 -35v39l68 33v256q24 11 48 26l1 1v-258l80 39v-36z" />
<glyph unicode="&#x152;" horiz-adv-x="853" d="M420 0q-4 -1 -13 -3h-2q-42 -9 -90 -9q-130 0 -205 111q-60 89 -60 214q0 148 75 242q72 90 190 90q51 0 98 -10q5 -2 7 -2h358v-51h-304v-227h256v-51h-256v-253h317v-51h-371zM420 582q-51 14 -105 14q-107 0 -161 -92q-44 -75 -44 -191q0 -132 61 -208q54 -68 144 -68 q65 0 105 16v529z" />
<glyph unicode="&#x153;" horiz-adv-x="863" d="M454 107q-59 -119 -190 -119q-104 0 -165 79q-51 66 -51 159q0 109 66 178q59 62 150 62q132 0 189 -120q57 120 173 120q97 0 146 -85q37 -64 37 -157v-14h-328q2 -83 58 -134q52 -45 131 -45q67 0 117 36l19 -31q-60 -48 -152 -48q-66 0 -119 31.5t-81 87.5zM264 424 q-79 0 -125 -65q-38 -54 -38 -133q0 -89 50 -145q45 -51 113 -51q78 0 124 65q39 54 39 131q0 91 -49 147q-45 51 -114 51zM482 250h277q-2 83 -37 128.5t-97 45.5q-58 0 -98 -48.5t-45 -125.5z" />
<glyph unicode="&#x160;" horiz-adv-x="483" d="M381 564q-57 32 -130 32q-67 0 -103.5 -28t-36.5 -79q0 -71 125 -118q112 -42 154.5 -87.5t42.5 -123.5q0 -82 -64 -131q-54 -41 -130 -41q-98 0 -189 60l23 33q81 -44 155 -44q67 0 107.5 33.5t40.5 89.5q0 58 -31 93q-33 35 -108 61q-98 33 -142 74.5t-44 100.5 q0 72 58 116q52 40 135 40q90 0 162 -48zM229 731l-71 102h42l48 -67l45 67h43l-70 -102h-37z" />
<glyph unicode="&#x161;" horiz-adv-x="404" d="M306 399q-48 24 -108 24q-45 0 -71 -19t-26 -53q0 -36 22.5 -55t88.5 -40q79 -25 111.5 -56t32.5 -83q0 -57 -44 -93t-113 -36q-86 0 -151 45q3 5 6 13l1 2l6 12q59 -29 125 -29q118 0 118 88q0 33 -25 53.5t-91 40.5q-140 43 -140 136q0 51 40 84t103 33q71 0 130 -39z M210 553h-37l-71 102h42l48 -67l45 67h43z" />
<glyph unicode="&#x178;" horiz-adv-x="509" d="M15 633h57l182 -332l182 332h58l-213 -386v-247h-54v247zM149 777q0 15 10.5 25.5t25.5 10.5t25.5 -10.5t10.5 -25.5t-10.5 -25.5t-25.5 -10.5t-25.5 10.5t-10.5 25.5zM289 777q0 15 10.5 25.5t25.5 10.5t25.5 -10.5t10.5 -25.5t-10.5 -25.5t-25.5 -10.5t-25.5 10.5 t-10.5 25.5z" />
<glyph unicode="&#x17d;" horiz-adv-x="451" d="M420 633v-54l-336 -530h342v-49h-401v49l339 535h-330v49h386zM242 726h-37l-71 102h42l48 -67l45 67h43z" />
<glyph unicode="&#x17e;" horiz-adv-x="399" d="M374 0h-349v42l287 372h-270v40h326v-44l-287 -370h293v-40zM221 553h-37l-71 102h42l48 -67l45 67h43z" />
<glyph unicode="&#x192;" horiz-adv-x="379" d="M104 415v39h62v68q0 55 29.5 89t76.5 34q46 0 87 -28l-17 -28q-37 15 -61 15q-68 0 -68 -82v-68h106v-39h-106v-432q0 -55 -29.5 -89t-76.5 -34q-46 0 -87 28l17 28q38 -15 61 -15q68 0 68 82v432h-62z" />
<glyph unicode="&#x2c6;" horiz-adv-x="186" d="M75 655h37l70 -102h-43l-45 67l-48 -67h-42z" />
<glyph unicode="&#x2c7;" horiz-adv-x="186" d="M112 553h-37l-71 102h42l48 -67l45 67h43z" />
<glyph unicode="&#x2d8;" horiz-adv-x="226" d="M206 645q0 -45 -25 -72t-68 -27t-68 27t-25 72h29q1 -33 18.5 -53.5t45.5 -20.5t45.5 20.5t18.5 53.5h29z" />
<glyph unicode="&#x2d9;" horiz-adv-x="82" d="M5 609q0 15 10.5 25.5t25.5 10.5t25.5 -10.5t10.5 -25.5t-10.5 -25.5t-25.5 -10.5t-25.5 10.5t-10.5 25.5z" />
<glyph unicode="&#x2da;" horiz-adv-x="166" d="M20 589q0 26 18.5 44.5t44.5 18.5t44.5 -18.5t18.5 -44.5t-18.5 -44.5t-44.5 -18.5t-44.5 18.5t-18.5 44.5zM46 589q0 -15 10.5 -25.5t25.5 -10.5t26 10.5t11 25.5t-11 25.5t-26 10.5t-25.5 -10.5t-10.5 -25.5z" />
<glyph unicode="&#x2db;" horiz-adv-x="171" d="M63 4h41q-44 -52 -44 -86q0 -40 32 -40q19 0 49 14l12 -31q-34 -19 -66 -19q-31 0 -50 19.5t-19 51.5q0 44 45 91z" />
<glyph unicode="&#x2dc;" horiz-adv-x="290" d="M279 640q-27 -67 -75 -67q-18 0 -51 19q-1 0 -2 1q-2 1 -3 1q-2 1 -7 4l-2 1q-32 19 -48 19q-17 0 -35 -13t-24 -30l-21 13q26 67 80 67q30 0 66 -24q32 -21 51 -21q28 0 50 44z" />
<glyph unicode="&#x2dd;" horiz-adv-x="263" d="M128 655l-76 -102h-27l48 102h55zM238 655l-76 -102h-27l48 102h55z" />
<glyph unicode="&#x3c0;" horiz-adv-x="552" d="M394 0v409h-243v-409h-49v410h-60v44h468v-45h-67v-409h-49z" />
<glyph unicode="&#x60c;" horiz-adv-x="193" d="M102 65q35 0 35 -33q0 -37 -35 -37q-37 0 -37 51v87l29 9v-77h8z" />
<glyph unicode="&#x61b;" horiz-adv-x="203" d="M122 -5q-32 0 -32 33q0 32 32 32q31 0 31 -32q0 -33 -31 -33zM102 305q35 0 35 -33q0 -37 -35 -37q-37 0 -37 51v86l29 10v-77h8z" />
<glyph unicode="&#x61f;" horiz-adv-x="420" d="M218 111q21 43 21 79t-18.5 64t-75.5 80q-24 21 -38 35q-57 57 -57 133q0 67 43.5 110t110.5 43q75 0 136 -53v-53q-46 37 -72.5 49t-63.5 12q-47 0 -77 -29t-30 -75q0 -56 45 -101q9 -9 34 -32q61 -55 85 -94.5t24 -84.5q0 -40 -20 -83h-47zM261 -5q-32 0 -32 33 q0 32 32 32q31 0 31 -32q0 -33 -31 -33z" />
<glyph unicode="&#x621;" horiz-adv-x="503" d="M35 -50v45q36 29 111 40q-57 74 -57 163t50 146q46 52 121 52q84 0 139 -71v-51q-58 80 -141 80q-56 0 -89 -41.5t-33 -110.5q0 -100 70 -161q12 1 34 1q138 0 213 56v-45q-84 -53 -215 -53t-203 -50z" />
<glyph unicode="&#x622;" horiz-adv-x="227" d="M212 747q-25 -46 -58 -46q-23 0 -54 23q-18 12 -29 12q-19 0 -38 -30l-21 12q25 46 58 46q19 0 45 -19q22 -16 38 -16q17 0 38 30zM90 0v620l47 25v-645h-47z" />
<glyph unicode="&#x623;" horiz-adv-x="227" d="M32 698l15 28h24q-9 17 -9 34q0 27 20 47t48 20q19 0 38 -11v-31q-18 13 -36 13q-16 0 -28 -11t-12 -26q0 -18 15 -35h84l-15 -28h-144zM90 0v620l47 25v-645h-47z" />
<glyph unicode="&#x624;" horiz-adv-x="483" d="M298 589l-15 -28h-144l15 28h24q-9 17 -9 34q0 27 20 47t48 20q19 0 38 -11v-31q-18 13 -36 13q-16 0 -28 -11t-12 -26q0 -18 15 -35h84zM356 46q-44 -36 -123 -36q-85 0 -132 65q-41 57 -41 146q0 103 54 161q48 51 127 51q75 0 118.5 -45t43.5 -123v-222 q0 -108 -55 -172q-52 -61 -141 -61q-57 0 -109 26v42q52 -27 104 -27q82 0 123 64q31 50 31 126v5zM356 257q0 134 -115 134q-63 0 -99.5 -45.5t-36.5 -124.5q0 -80 38 -127q34 -42 90 -42q94 0 123 54v151z" />
<glyph unicode="&#x625;" horiz-adv-x="227" d="M90 0v620l47 25v-645h-47zM29 -224l15 28h24q-9 17 -9 34q0 27 20 47t48 20q19 0 38 -11v-31q-18 13 -36 13q-16 0 -28 -11t-12 -26q0 -18 15 -35h84l-15 -28h-144z" />
<glyph unicode="&#x626;" horiz-adv-x="699" d="M59 340l15 28h24q-9 17 -9 34q0 27 20 47t48 20q19 0 38 -11v-31q-18 13 -36 13q-16 0 -28 -11t-12 -26q0 -18 15 -35h84l-15 -28h-144zM602 309q-61 74 -141 74q-46 0 -73.5 -29.5t-27.5 -78.5q0 -60 49 -94q24 -17 104 -46q71 -25 97 -53q29 -30 29 -78q0 -84 -82 -140 q-79 -54 -205 -54q-150 0 -225 88q-57 66 -57 162q0 89 46 151l47 10q-51 -74 -51 -161q0 -95 67 -152q64 -56 173 -56q122 0 189 55q51 41 51 97q0 35 -23.5 54t-102.5 47q-73 26 -104 54q-49 42 -49 116t54 116q41 33 94 33q83 0 141 -64v-51z" />
<glyph unicode="&#x627;" horiz-adv-x="227" d="M90 0v620l47 25v-645h-47z" />
<glyph unicode="&#x628;" horiz-adv-x="859" d="M247 0q-72 0 -114.5 45t-42.5 122v141l47 25v-158q0 -133 124 -133h338q123 0 123 133v223l47 25v-256q0 -82 -51 -128q-43 -39 -114 -39h-357zM407 -175q-32 0 -32 33q0 32 32 32q31 0 31 -32q0 -33 -31 -33z" />
<glyph unicode="&#x629;" horiz-adv-x="502" d="M194 565q-32 0 -32 33q0 32 32 32q31 0 31 -32q0 -33 -31 -33zM295 565q-32 0 -32 33q0 32 32 32q31 0 31 -32q0 -33 -31 -33zM246 0q-87 0 -135 58q-41 49 -41 128q0 183 181 247q181 -64 181 -247q0 -91 -53 -141q-47 -45 -123 -45h-10zM242 42h18q58 0 91.5 39 t33.5 105q0 145 -134 205q-134 -60 -134 -205q0 -66 33.5 -105t91.5 -39z" />
<glyph unicode="&#x62a;" horiz-adv-x="819" d="M353 465q-32 0 -32 33q0 32 32 32q31 0 31 -32q0 -33 -31 -33zM454 465q-32 0 -32 33q0 32 32 32q31 0 31 -32q0 -33 -31 -33zM247 0q-72 0 -114.5 45t-42.5 122v141l47 25v-158q0 -133 124 -133h338q123 0 123 133v223l47 25v-256q0 -82 -51 -128q-43 -39 -114 -39h-357 z" />
<glyph unicode="&#x62b;" horiz-adv-x="819" d="M403 555q-32 0 -32 33q0 32 32 32q31 0 31 -32q0 -33 -31 -33zM353 465q-32 0 -32 33q0 32 32 32q31 0 31 -32q0 -33 -31 -33zM454 465q-32 0 -32 33q0 32 32 32q31 0 31 -32q0 -33 -31 -33zM247 0q-72 0 -114.5 45t-42.5 122v141l47 25v-158q0 -133 124 -133h338 q123 0 123 133v223l47 25v-256q0 -82 -51 -128q-43 -39 -114 -39h-357z" />
<glyph unicode="&#x62c;" horiz-adv-x="592" d="M487 -324q-80 -51 -183 -51q-109 0 -176 75q-58 65 -58 160q0 103 64 170q34 35 70 49t144 35q127 24 176 90q-94 187 -235 187q-85 0 -162 -86v50q81 78 167 78q154 0 268 -210v-38q-38 -50 -84.5 -72t-164.5 -46q-108 -21 -150 -64q-51 -53 -51 -145q0 -89 61 -144 q52 -47 131 -47q119 0 183 51v-42zM304 -175q-32 0 -32 33q0 32 32 32q31 0 31 -32q0 -33 -31 -33z" />
<glyph unicode="&#x62d;" horiz-adv-x="612" d="M487 -324q-80 -51 -183 -51q-109 0 -176 75q-58 65 -58 160q0 103 64 170q34 35 70 49t144 35q127 24 176 90q-94 187 -235 187q-85 0 -162 -86v50q81 78 167 78q154 0 268 -210v-38q-38 -50 -84.5 -72t-164.5 -46q-108 -21 -150 -64q-51 -53 -51 -145q0 -89 61 -144 q52 -47 131 -47q119 0 183 51v-42z" />
<glyph unicode="&#x62e;" horiz-adv-x="612" d="M327 565q-32 0 -32 33q0 32 32 32q31 0 31 -32q0 -33 -31 -33zM487 -324q-80 -51 -183 -51q-109 0 -176 75q-58 65 -58 160q0 103 64 170q34 35 70 49t144 35q127 24 176 90q-94 187 -235 187q-85 0 -162 -86v50q81 78 167 78q154 0 268 -210v-38q-38 -50 -84.5 -72 t-164.5 -46q-108 -21 -150 -64q-51 -53 -51 -145q0 -89 61 -144q52 -47 131 -47q119 0 183 51v-42z" />
<glyph unicode="&#x62f;" horiz-adv-x="440" d="M10 0l22 42h197q52 0 73 26.5t21 91.5q0 159 -136 235l23 38q160 -93 160 -274q0 -159 -134 -159h-226z" />
<glyph unicode="&#x630;" horiz-adv-x="440" d="M214 565q-32 0 -32 33q0 32 32 32q31 0 31 -32q0 -33 -31 -33zM10 0l22 42h197q52 0 73 26.5t21 91.5q0 159 -136 235l23 38q160 -93 160 -274q0 -159 -134 -159h-226z" />
<glyph unicode="&#x631;" horiz-adv-x="295" d="M205 43q0 -108 -55 -172q-52 -61 -141 -61q-57 0 -109 26v42q52 -27 104 -27q82 0 123 64q31 50 31 126v357l47 25v-380z" />
<glyph unicode="&#x632;" horiz-adv-x="295" d="M174 565q-32 0 -32 33q0 32 32 32q31 0 31 -32q0 -33 -31 -33zM205 43q0 -108 -55 -172q-52 -61 -141 -61q-57 0 -109 26v42q52 -27 104 -27q82 0 123 64q31 50 31 126v357l47 25v-380z" />
<glyph unicode="&#x633;" horiz-adv-x="1301" d="M1164 398l47 25v-254q0 -81 -47 -127q-44 -42 -117 -42h-40q-99 0 -140 73q-42 -73 -141 -73h-40q-73 0 -117 42q-1 -110 -77 -175q-68 -57 -175 -57q-125 0 -194 88q-53 68 -53 162q0 89 46 151l47 10q-51 -74 -51 -161q0 -92 61 -152q57 -56 144 -56q102 0 158 61 q47 51 47 131v274l47 25v-173q0 -128 124 -128h26q124 0 124 128v188l47 25v-213q0 -128 124 -128h26q124 0 124 128v228z" />
<glyph unicode="&#x634;" horiz-adv-x="1301" d="M863 615q-29 0 -29 30q0 29 29 29q28 0 28 -29q0 -30 -28 -30zM813 525q-32 0 -32 33q0 32 32 32q31 0 31 -32q0 -33 -31 -33zM882 558q0 32 32 32q31 0 31 -32q0 -33 -31 -33q-32 0 -32 33zM1164 398l47 25v-254q0 -81 -47 -127q-44 -42 -117 -42h-40q-99 0 -140 73 q-42 -73 -141 -73h-40q-73 0 -117 42q-1 -110 -77 -175q-68 -57 -175 -57q-125 0 -194 88q-53 68 -53 162q0 89 46 151l47 10q-51 -74 -51 -161q0 -92 61 -152q57 -56 144 -56q102 0 158 61q47 51 47 131v274l47 25v-173q0 -128 124 -128h26q124 0 124 128v188l47 25v-213 q0 -128 124 -128h26q124 0 124 128v228z" />
<glyph unicode="&#x635;" horiz-adv-x="1323" d="M649 47q33 156 125 265q104 121 245 121q110 0 174 -76q55 -64 55 -160v-30q0 -83 -50 -128q-43 -39 -114 -39h-398q-73 0 -117 42q-1 -110 -77 -175q-68 -57 -175 -57q-125 0 -194 88q-53 68 -53 162q0 89 46 151l47 10q-51 -74 -51 -161q0 -92 61 -152q57 -56 144 -56 q102 0 158 61q47 51 47 131v274l47 25v-173q0 -103 80 -123zM1201 175v22q0 91 -57 146q-50 48 -124 48q-129 0 -225 -123q-72 -93 -105 -226h3h386q122 0 122 133z" />
<glyph unicode="&#x636;" horiz-adv-x="1323" d="M1012 565q-32 0 -32 33q0 32 32 32q31 0 31 -32q0 -33 -31 -33zM649 47q33 156 125 265q104 121 245 121q110 0 174 -76q55 -64 55 -160v-30q0 -83 -50 -128q-43 -39 -114 -39h-398q-73 0 -117 42q-1 -110 -77 -175q-68 -57 -175 -57q-125 0 -194 88q-53 68 -53 162 q0 89 46 151l47 10q-51 -74 -51 -161q0 -92 61 -152q57 -56 144 -56q102 0 158 61q47 51 47 131v274l47 25v-173q0 -103 80 -123zM1201 175v22q0 91 -57 146q-50 48 -124 48q-129 0 -225 -123q-72 -93 -105 -226h3h386q122 0 122 133z" />
<glyph unicode="&#x637;" horiz-adv-x="849" d="M215 173q53 118 134 187q88 73 196 73q110 0 174 -76q55 -64 55 -160v-38q0 -159 -134 -159h-620l22 42h126v578l47 25v-472zM727 160v37q0 91 -57 146q-50 48 -124 48q-128 0 -226 -126q-72 -93 -105 -223h418q52 0 73 26.5t21 91.5z" />
<glyph unicode="&#x638;" horiz-adv-x="849" d="M215 173q53 118 134 187q88 73 196 73q110 0 174 -76q55 -64 55 -160v-38q0 -159 -134 -159h-620l22 42h126v578l47 25v-472zM538 565q-32 0 -32 33q0 32 32 32q31 0 31 -32q0 -33 -31 -33zM727 160v37q0 91 -57 146q-50 48 -124 48q-128 0 -226 -126q-72 -93 -105 -223 h418q52 0 73 26.5t21 91.5z" />
<glyph unicode="&#x639;" horiz-adv-x="544" d="M494 -324q-80 -51 -183 -51q-119 0 -187 75q-54 59 -54 138q0 64 34.5 114t93.5 72q-111 56 -111 204q0 100 67 158q53 46 126 47q101 0 157 -78v-51q-57 87 -152 87q-67 0 -109 -45.5t-42 -118.5q0 -84 50 -136q47 -49 125 -49h176v-42h-174q-102 0 -155 -55 q-41 -43 -41 -106q0 -75 55 -124q54 -48 141 -48q119 0 183 51v-42z" />
<glyph unicode="&#x63a;" horiz-adv-x="544" d="M292 565q-32 0 -32 33q0 32 32 32q31 0 31 -32q0 -33 -31 -33zM494 -324q-80 -51 -183 -51q-119 0 -187 75q-54 59 -54 138q0 64 34.5 114t93.5 72q-111 56 -111 204q0 100 67 158q53 46 126 47q101 0 157 -78v-51q-57 87 -152 87q-67 0 -109 -45.5t-42 -118.5 q0 -84 50 -136q47 -49 125 -49h176v-42h-174q-102 0 -155 -55q-41 -43 -41 -106q0 -75 55 -124q54 -48 141 -48q119 0 183 51v-42z" />
<glyph unicode="&#x640;" horiz-adv-x="116" d="M-30 0v42h176v-42h-176z" />
<glyph unicode="&#x641;" horiz-adv-x="920" d="M683 565q-32 0 -32 33q0 32 32 32q31 0 31 -32q0 -33 -31 -33zM247 0q-72 0 -114.5 45t-42.5 122v141l47 25v-158q0 -133 124 -133h299q-63 57 -63 174q0 107 54 165q48 52 127 52q75 0 118.5 -45t43.5 -123v-98q0 -82 -51 -128q-43 -39 -114 -39h-428zM793 257 q0 134 -115 134q-63 0 -98.5 -46.5t-35.5 -128.5q0 -80 36 -128q34 -46 89 -46q124 0 124 133v82z" />
<glyph unicode="&#x642;" horiz-adv-x="719" d="M428 565q-32 0 -32 33q0 32 32 32q31 0 31 -32q0 -33 -31 -33zM529 565q-32 0 -32 33q0 32 32 32q31 0 31 -32q0 -33 -31 -33zM639 44q0 -113 -82 -176q-75 -58 -205 -58q-150 0 -225 88q-57 66 -57 162q0 89 46 151l47 10q-51 -74 -51 -161q0 -95 67 -152 q64 -56 173 -56q127 0 189 60q51 49 51 131v7q-40 -40 -123 -40q-84 0 -132 67q-41 57 -41 144q0 103 54 161q48 51 127 51q75 0 118.5 -45t43.5 -123v-221zM592 257q0 134 -115 134q-63 0 -98.5 -45.5t-35.5 -124.5q0 -81 37 -127q33 -42 89 -42q94 0 123 54v151z" />
<glyph unicode="&#x643;" horiz-adv-x="858" d="M721 620l47 25v-478q0 -83 -50 -128q-43 -39 -114 -39h-357q-72 0 -114.5 45t-42.5 122v141l47 25v-158q0 -133 124 -133h338q122 0 122 133v445zM422 456q75 0 75 -66q0 -57 -56 -57h-116l15 28h99q30 0 30 29q0 38 -50 38q-27 0 -50 -10v28l81 90h32l-70 -80h10z" />
<glyph unicode="&#x644;" horiz-adv-x="659" d="M569 44q0 -111 -76 -176q-69 -58 -176 -58q-125 0 -194 88q-53 68 -53 162q0 89 46 151l47 10q-51 -74 -51 -161q0 -92 61 -152q57 -56 144 -56q102 0 158 61q47 51 47 131v576l47 25v-601z" />
<glyph unicode="&#x645;" horiz-adv-x="555" d="M20 -315v188q0 83 48 127q45 42 127 42q-63 57 -63 174q0 107 54 165q48 52 127 52q75 0 118.5 -45t43.5 -123v-96q0 -77 -43 -122t-118 -47h-123q-124 0 -124 -128v-162zM428 257q0 134 -115 134q-63 0 -98.5 -46.5t-35.5 -128.5q0 -84 36 -131q33 -43 89 -43 q124 0 124 128v87z" />
<glyph unicode="&#x646;" horiz-adv-x="659" d="M322 453q-32 0 -32 33q0 32 32 32q31 0 31 -32q0 -33 -31 -33zM569 44q0 -111 -76 -176q-69 -58 -176 -58q-125 0 -194 88q-53 68 -53 162q0 89 46 151l47 10q-51 -74 -51 -161q0 -92 61 -152q57 -56 144 -56q102 0 158 61q47 51 47 131v354l47 25v-379z" />
<glyph unicode="&#x647;" horiz-adv-x="502" d="M246 0q-87 0 -135 58q-41 49 -41 128q0 183 181 247q181 -64 181 -247q0 -91 -53 -141q-47 -45 -123 -45h-10zM242 42h18q58 0 91.5 39t33.5 105q0 145 -134 205q-134 -60 -134 -205q0 -66 33.5 -105t91.5 -39z" />
<glyph unicode="&#x648;" horiz-adv-x="483" d="M356 46q-44 -36 -123 -36q-85 0 -132 65q-41 57 -41 146q0 103 54 161q48 51 127 51q75 0 118.5 -45t43.5 -123v-222q0 -108 -55 -172q-52 -61 -141 -61q-57 0 -109 26v42q52 -27 104 -27q82 0 123 64q31 50 31 126v5zM356 257q0 134 -115 134q-63 0 -99.5 -45.5 t-36.5 -124.5q0 -80 38 -127q34 -42 90 -42q94 0 123 54v151z" />
<glyph unicode="&#x649;" horiz-adv-x="699" d="M602 309q-61 74 -141 74q-46 0 -73.5 -29.5t-27.5 -78.5q0 -60 49 -94q24 -17 104 -46q71 -25 97 -53q29 -30 29 -78q0 -84 -82 -140q-79 -54 -205 -54q-150 0 -225 88q-57 66 -57 162q0 89 46 151l47 10q-51 -74 -51 -161q0 -95 67 -152q64 -56 173 -56q122 0 189 55 q51 41 51 97q0 35 -23.5 54t-102.5 47q-73 26 -104 54q-49 42 -49 116t54 116q41 33 94 33q83 0 141 -64v-51z" />
<glyph unicode="&#x64a;" horiz-adv-x="699" d="M602 309q-61 74 -141 74q-46 0 -73.5 -29.5t-27.5 -78.5q0 -60 49 -94q24 -17 104 -46q71 -25 97 -53q29 -30 29 -78q0 -84 -82 -140q-79 -54 -205 -54q-150 0 -225 88q-57 66 -57 162q0 89 46 151l47 10q-51 -74 -51 -161q0 -95 67 -152q64 -56 173 -56q122 0 189 55 q51 41 51 97q0 35 -23.5 54t-102.5 47q-73 26 -104 54q-49 42 -49 116t54 116q41 33 94 33q83 0 141 -64v-51zM304 -363q-32 0 -32 33q0 32 32 32q31 0 31 -32q0 -33 -31 -33zM405 -363q-32 0 -32 33q0 32 32 32q31 0 31 -32q0 -33 -31 -33z" />
<glyph unicode="&#x64b;" d="M10 627l15 32l164 30l-15 -32zM0 565l15 32l164 30l-15 -32z" />
<glyph unicode="&#x64c;" d="M131 596q-34 17 -34 57q0 23 14.5 39t36.5 16q23 0 37.5 -15.5t14.5 -39.5q0 -37 -23.5 -61.5t-59.5 -24.5q-48 0 -70 41l-22 -36l-23 11l35 57h16q21 -46 64 -46q7 0 14 2zM153 609q20 17 20 42q0 33 -25 33t-25 -33q0 -30 30 -42z" />
<glyph unicode="&#x64d;" d="M10 627l15 32l164 30l-15 -32zM0 565l15 32l164 30l-15 -32z" />
<glyph unicode="&#x64e;" d="M0 565l15 32l164 30l-15 -32z" />
<glyph unicode="&#x64f;" d="M0 565l15 32l90 17q-20 20 -20 50q0 23 14.5 39t36.5 16q23 0 37.5 -15.5t14.5 -39.5q0 -65 -57 -75zM138 621q23 16 23 41q0 33 -25 33t-25 -33q0 -27 27 -41z" />
<glyph unicode="&#x650;" d="M0 565l15 32l164 30l-15 -32z" />
<glyph unicode="&#x651;" d="M152 659l27 15v-58q0 -23 -14 -37t-37 -14t-38 15q-17 -15 -39 -15q-23 0 -37 14t-14 37v19l27 15v-34q0 -24 25 -24q24 0 24 20v37l27 15v-52q0 -20 25 -20q24 0 24 24v43z" />
<glyph unicode="&#x652;" d="M55 686q24 -7 39.5 -26.5t15.5 -42.5q0 -56 -55 -56t-55 56q0 23 15.5 42.5t39.5 26.5zM55 656q-28 -6 -28 -39q0 -31 28 -31t28 31q0 33 -28 39z" />
<glyph unicode="&#x653;" d="M200 711q-25 -46 -58 -46q-22 0 -54 23q-18 12 -29 12q-19 0 -38 -30l-21 12q25 46 58 46q19 0 45 -19q22 -16 38 -16q17 0 38 30z" />
<glyph unicode="&#x654;" d="M0 660l15 28h24q-9 17 -9 34q0 27 20 47t48 20q19 0 38 -11v-31q-18 13 -36 13q-16 0 -28 -11t-12 -26q0 -18 15 -35h84l-15 -28h-144z" />
<glyph unicode="&#x655;" d="M0 660l15 28h24q-9 17 -9 34q0 27 20 47t48 20q19 0 38 -11v-31q-18 13 -36 13q-16 0 -28 -11t-12 -26q0 -18 15 -35h84l-15 -28h-144z" />
<glyph unicode="&#x660;" horiz-adv-x="189" d="M95 89l-55 55l55 54l54 -54z" />
<glyph unicode="&#x661;" horiz-adv-x="187" d="M70 -15v580h47v-555z" />
<glyph unicode="&#x662;" horiz-adv-x="378" d="M65 -15v461q0 56 33.5 87.5t93.5 31.5h161v-42h-158q-83 0 -83 -77v-436z" />
<glyph unicode="&#x663;" horiz-adv-x="535" d="M458 565h47v-123q0 -49 -32.5 -79t-86.5 -30q-65 0 -98 39q-34 -39 -96 -39q-43 0 -75 19v-342l-47 -25v580h47v-123q0 -67 75 -67q72 0 72 67v93h47v-93q0 -67 75 -67q72 0 72 67v123z" />
<glyph unicode="&#x664;" horiz-adv-x="363" d="M225 0q-93 0 -145 56q-40 44 -40 103q0 95 89 137q-77 42 -77 125q0 62 48.5 103t121.5 41h75v-42h-75q-54 0 -88.5 -28.5t-34.5 -73.5q0 -46 34.5 -75t88.5 -29h50v-42h-48q-61 0 -99.5 -32.5t-38.5 -83.5q0 -52 38 -84.5t100 -32.5h89l25 -42h-113z" />
<glyph unicode="&#x665;" horiz-adv-x="423" d="M219 489q80 -53 130 -139t50 -174v-14q-6 -85 -55 -130q-46 -42 -125 -42q-82 0 -130 44.5t-52 125.5q-1 9 -1 16q0 88 50.5 174t132.5 139zM219 438q-61 -43 -98.5 -113t-37.5 -139q0 -1 1 -2v-1q1 -151 135 -151q126 0 133 143v10q0 71 -37 140.5t-96 112.5z" />
<glyph unicode="&#x666;" horiz-adv-x="378" d="M266 -15v461q0 77 -83 77h-158v42h161q60 0 93.5 -31.5t33.5 -87.5v-436z" />
<glyph unicode="&#x667;" horiz-adv-x="459" d="M188 0l-168 565h52l154 -523h4l157 523h52l-171 -565h-80z" />
<glyph unicode="&#x668;" horiz-adv-x="459" d="M20 0l168 565h80l171 -565h-52l-157 523h-4l-154 -523h-52z" />
<glyph unicode="&#x669;" horiz-adv-x="389" d="M277 -15v271q-44 -33 -94 -33q-37 0 -70 19q-78 42 -78 153q0 86 41 134q40 46 110 46q138 0 138 -153v-412zM277 422q0 111 -91 111q-104 0 -104 -138q0 -57 28.5 -91.5t74.5 -34.5q52 0 92 37v116z" />
<glyph unicode="&#x66a;" horiz-adv-x="711" d="M182 0l303 589h49l-303 -589h-49zM284 429q0 -72 -31 -115t-83 -43q-63 0 -94 53q-24 41 -24 104q0 70 31.5 110t86.5 40q50 0 82 -41.5t32 -107.5zM242 427q0 50 -21 82.5t-53 32.5q-33 0 -53.5 -32.5t-20.5 -82.5q0 -54 20.5 -87.5t53.5 -33.5q32 0 53 34t21 87z M659 162q0 -72 -31 -115t-83 -43q-63 0 -94 53q-24 41 -24 104q0 70 31.5 110t86.5 40q50 0 82 -41.5t32 -107.5zM617 160q0 50 -21 82.5t-53 32.5q-33 0 -53.5 -32t-20.5 -83q0 -53 20.5 -86.5t53.5 -33.5q32 0 53 33.5t21 86.5z" />
<glyph unicode="&#x66d;" horiz-adv-x="335" d="M175 525q27 -61 27 -77q0 -25 -30 -25q-29 0 -29 25q0 16 27 77l-11 -14q-32 -42 -43 -48q-6 -3 -12 -3q-12 0 -21 10t-9 22q0 31 84 37q9 1 12 1q-3 0 -12 1q-84 6 -84 36q0 13 9 23.5t20 10.5q18 0 64 -64l3 -3q-27 64 -27 78q0 25 29 25q30 0 30 -25q0 -16 -27 -77 q1 1 9 13q37 53 55 53q12 0 21 -10.5t9 -23.5q0 -15 -11 -21t-71 -14q-8 -1 -12 -2q3 0 11 -1q83 -6 83 -35q0 -13 -8.5 -24t-18.5 -11q-23 0 -64 62q-2 2 -3 4z" />
<glyph unicode="&#x66e;" horiz-adv-x="859" d="M247 0q-72 0 -114.5 45t-42.5 122v141l47 25v-158q0 -133 124 -133h338q123 0 123 133v223l47 25v-256q0 -82 -51 -128q-43 -39 -114 -39h-357z" />
<glyph unicode="&#x670;" d="M0 699v110l27 15v-110z" />
<glyph unicode="&#x67e;" horiz-adv-x="859" d="M247 0q-72 0 -114.5 45t-42.5 122v141l47 25v-158q0 -133 124 -133h338q123 0 123 133v223l47 25v-256q0 -82 -51 -128q-43 -39 -114 -39h-357zM381 -175q-32 0 -32 32q0 33 32 33q31 0 31 -33q0 -32 -31 -32zM482 -175q-32 0 -32 32q0 33 32 33q31 0 31 -33 q0 -32 -31 -32zM431 -259q-29 0 -29 29q0 30 29 30q28 0 28 -30q0 -29 -28 -29z" />
<glyph unicode="&#x6a4;" horiz-adv-x="920" d="M675 657q-29 0 -29 30q0 29 29 29q28 0 28 -29q0 -30 -28 -30zM625 567q-32 0 -32 33q0 32 32 32q31 0 31 -32q0 -33 -31 -33zM726 567q-32 0 -32 33q0 32 32 32q31 0 31 -32q0 -33 -31 -33zM247 0q-72 0 -114.5 45t-42.5 122v141l47 25v-158q0 -133 124 -133h299 q-63 57 -63 174q0 107 54 165q48 52 127 52q75 0 118.5 -45t43.5 -123v-98q0 -82 -51 -128q-43 -39 -114 -39h-428zM793 257q0 134 -115 134q-63 0 -98.5 -46.5t-35.5 -128.5q0 -80 36 -128q34 -46 89 -46q124 0 124 133v82z" />
<glyph unicode="&#x2000;" horiz-adv-x="486" />
<glyph unicode="&#x2001;" horiz-adv-x="972" />
<glyph unicode="&#x2002;" horiz-adv-x="521" />
<glyph unicode="&#x2003;" horiz-adv-x="1042" />
<glyph unicode="&#x2004;" horiz-adv-x="347" />
<glyph unicode="&#x2005;" horiz-adv-x="260" />
<glyph unicode="&#x2006;" horiz-adv-x="69" />
<glyph unicode="&#x2007;" horiz-adv-x="583" />
<glyph unicode="&#x2008;" horiz-adv-x="121" />
<glyph unicode="&#x2009;" horiz-adv-x="130" />
<glyph unicode="&#x200a;" horiz-adv-x="35" />
<glyph unicode="&#x2010;" horiz-adv-x="261" d="M236 220h-211v40h211v-40z" />
<glyph unicode="&#x2011;" horiz-adv-x="222" d="M222 275v-35h-222v35h222z" />
<glyph unicode="&#x2012;" horiz-adv-x="583" d="M510 275v-35h-437v35h437z" />
<glyph unicode="&#x2013;" horiz-adv-x="397" d="M73 199v44h251v-44h-251z" />
<glyph unicode="&#x2014;" horiz-adv-x="648" d="M73 199v44h502v-44h-502z" />
<glyph unicode="&#x2015;" horiz-adv-x="667" d="M667 283v-35h-667v35h667z" />
<glyph unicode="&#x2018;" horiz-adv-x="210" d="M111 576q35 0 35 -33q0 -37 -35 -37q-37 0 -37 51v90l29 10v-81h8z" />
<glyph unicode="&#x2019;" horiz-adv-x="210" d="M99 594q-35 0 -35 33q0 37 35 37q37 0 37 -51v-91l-29 -9v81h-8z" />
<glyph unicode="&#x201a;" horiz-adv-x="210" d="M99 -1q-35 0 -35 33q0 37 35 37q37 0 37 -51v-91l-29 -9v81h-8z" />
<glyph unicode="&#x201c;" horiz-adv-x="318" d="M111 576q35 0 35 -33q0 -37 -35 -37q-37 0 -37 51v90l29 10v-81h8zM219 576q35 0 35 -33q0 -37 -35 -37q-37 0 -37 51v90l29 10v-81h8z" />
<glyph unicode="&#x201d;" horiz-adv-x="318" d="M206 592q-35 0 -35 33q0 37 35 37q37 0 37 -51v-90l-29 -9v80h-8zM98 592q-35 0 -35 33q0 37 35 37q37 0 37 -51v-90l-29 -9v80h-8z" />
<glyph unicode="&#x201e;" horiz-adv-x="318" d="M207 -2q-35 0 -35 33q0 37 35 37q37 0 37 -51v-90l-29 -10v81h-8zM99 -2q-35 0 -35 33q0 37 35 37q37 0 37 -51v-90l-29 -10v81h-8z" />
<glyph unicode="&#x2020;" horiz-adv-x="399" d="M175 414h-133v40h133v179h43v-179h139v-40h-139v-457h-43v457z" />
<glyph unicode="&#x2021;" horiz-adv-x="399" d="M175 148h-133v40h133v226h-133v40h133v191h43v-191h139v-40h-139v-226h139v-40h-139v-192h-43v192z" />
<glyph unicode="&#x2022;" horiz-adv-x="274" d="M74 328q0 26 18.5 44.5t44.5 18.5t44.5 -18.5t18.5 -44.5t-18.5 -44.5t-44.5 -18.5t-44.5 18.5t-18.5 44.5z" />
<glyph unicode="&#x2026;" horiz-adv-x="543" d="M215 30q0 17 12.5 29.5t29.5 12.5t29.5 -12.5t12.5 -29.5t-12.5 -29.5t-29.5 -12.5t-29.5 12.5t-12.5 29.5zM42 30q0 17 12.5 29.5t29.5 12.5t29.5 -12.5t12.5 -29.5t-12.5 -29.5t-29.5 -12.5t-29.5 12.5t-12.5 29.5zM388 30q0 17 12.5 29.5t29.5 12.5t29.5 -12.5 t12.5 -29.5t-12.5 -29.5t-29.5 -12.5t-29.5 12.5t-12.5 29.5z" />
<glyph unicode="&#x202f;" horiz-adv-x="194" />
<glyph unicode="&#x2030;" horiz-adv-x="1054" d="M174 645q59 0 92.5 -43.5t33.5 -118.5t-33.5 -118.5t-92.5 -43.5t-93.5 43.5t-34.5 118.5t34.5 118.5t93.5 43.5zM174 607q-36 0 -56.5 -33.5t-20.5 -90.5t20.5 -90.5t56.5 -33.5t57 33.5t21 90.5t-21 90.5t-57 33.5zM552 312q59 0 92.5 -43.5t33.5 -118.5t-33.5 -118.5 t-92.5 -43.5t-93.5 43.5t-34.5 118.5t34.5 118.5t93.5 43.5zM552 274q-36 0 -56.5 -33.5t-20.5 -90.5t20.5 -90.5t56.5 -33.5t57 33.5t21 90.5t-21 90.5t-57 33.5zM882 312q59 0 92.5 -43.5t33.5 -118.5t-33.5 -118.5t-92.5 -43.5t-93.5 43.5t-34.5 118.5t34.5 118.5 t93.5 43.5zM882 274q-36 0 -56.5 -33.5t-20.5 -90.5t20.5 -90.5t56.5 -33.5t57 33.5t21 90.5t-21 90.5t-57 33.5zM546 619l-383 -663h-45l384 663h44z" />
<glyph unicode="&#x2039;" horiz-adv-x="292" d="M250 24q-55 19 -109 77t-89 136q35 79 89 137t109 77v-45q-96 -50 -149 -169q53 -118 149 -168v-45z" />
<glyph unicode="&#x203a;" horiz-adv-x="292" d="M42 24v45q96 50 149 168q-53 119 -149 169v45q55 -19 108.5 -77t89.5 -137q-36 -78 -89.5 -136t-108.5 -77z" />
<glyph unicode="&#x2044;" horiz-adv-x="442" d="M435 633l-383 -663h-45l384 663h44z" />
<glyph unicode="&#x205f;" horiz-adv-x="243" />
<glyph unicode="&#x20ac;" horiz-adv-x="594" d="M113 238h-71v40h67q-1 10 -1 32q0 30 3 58h-69v40h76q25 112 96 176q67 61 158 61q101 0 172 -57l-24 -31q-65 39 -139 39q-77 0 -130.5 -49.5t-72.5 -138.5h279v-40h-286q-3 -28 -3 -58q0 -22 1 -32h288v-40h-283q17 -103 84 -157q55 -44 131 -44q81 0 140 47l23 -33 q-71 -63 -171 -63q-112 0 -186 77q-65 66 -82 173z" />
<glyph unicode="&#x2122;" horiz-adv-x="542" d="M25 633h158v-26h-66v-211h-30v211h-62v26zM365 395h-33l-68 200v-200h-31v238h45l71 -201l70 201h45v-238h-31v200z" />
<glyph unicode="&#x2126;" horiz-adv-x="591" d="M362 48q53 23 86 99.5t33 176.5q0 132 -57 206q-50 66 -130 66q-91 0 -142 -85q-44 -73 -44 -187q0 -88 29 -167q32 -90 90 -109v-48h-159v49h87q-105 105 -105 269q0 161 81 252q66 75 163 75q117 0 185 -97q62 -88 62 -230q0 -165 -104 -269h93v-49h-168v48z" />
<glyph unicode="&#x2202;" horiz-adv-x="495" d="M383 274q-16 34 -52.5 55t-79.5 21q-67 0 -104 -40.5t-37 -113.5t34 -116t92 -43q72 0 112 81q31 63 35 156zM89 603q62 42 130 42q108 0 171 -93q55 -82 55 -212q0 -149 -50 -246q-54 -106 -153 -106q-97 0 -150 70q-42 56 -42 137q0 96 62 154q52 50 126 50 q99 0 153 -74v28q0 132 -61 196q-46 48 -119 48q-54 0 -103 -22z" />
<glyph unicode="&#x2206;" horiz-adv-x="653" d="M531 0h-516l225 633h65zM272 573l-178 -529h361z" />
<glyph unicode="&#x220f;" horiz-adv-x="653" d="M563 633v-812h-56v760h-362v-760h-55v812h473z" />
<glyph unicode="&#x2211;" horiz-adv-x="523" d="M295 250l-260 324v60h440v-51h-383l269 -329l-255 -384h382v-49h-438v50z" />
<glyph unicode="&#x2212;" horiz-adv-x="499" d="M457 207h-415v40h415v-40z" />
<glyph unicode="&#x221a;" horiz-adv-x="592" d="M75 315l133 37l74 -295l178 643h57l-200 -700h-69l-77 284l-80 -22z" />
<glyph unicode="&#x221e;" horiz-adv-x="573" d="M264 228q-9 33 -37.5 53.5t-64.5 20.5t-60.5 -21t-24.5 -53q0 -33 24 -53t63 -20q69 0 100 73zM276 271q21 37 54 60t65 23q52 0 83.5 -34.5t31.5 -91.5q0 -54 -31.5 -88.5t-80.5 -34.5q-43 0 -76 22.5t-46 61.5q-34 -84 -113 -84q-51 0 -83 34t-32 89q0 53 30.5 89 t75.5 36q77 0 122 -82zM288 228q29 -73 111 -73q35 0 59 21t24 51q0 33 -23.5 54.5t-60.5 21.5q-38 0 -68.5 -21t-41.5 -54z" />
<glyph unicode="&#x222b;" horiz-adv-x="369" d="M112 -64v588q0 120 102 120q51 0 100 -33l-3 -3q-3 -4 -4 -7h1q-1 -2 -3 -5q-3 -5 -5 -7q-27 13 -66 13q-74 0 -74 -85v-588q0 -120 -101 -120q-51 0 -99 31q2 4 6 11q1 3 2 4v-1q1 2 2 6l2 4q31 -13 65 -13q75 0 75 85z" />
<glyph unicode="&#x2248;" horiz-adv-x="471" d="M429 167q-23 -81 -80 -81q-36 0 -106 31q-4 2 -7 3t-18 9q-48 22 -84 22q-49 0 -80 -49l-12 9q29 81 91 81q35 0 112 -35q66 -30 96 -30q53 0 76 47zM429 327q-23 -81 -80 -81q-36 0 -106 31q-4 2 -7 3t-18 9q-48 22 -84 22q-49 0 -80 -49l-12 9q29 81 91 81 q35 0 112 -35q66 -30 96 -30q53 0 76 47z" />
<glyph unicode="&#x2260;" horiz-adv-x="499" d="M154 132h-112v40h137l68 110h-205v40h230l82 132h44l-82 -132h141v-40h-165l-68 -110h233v-40h-258l-81 -132h-45z" />
<glyph unicode="&#x2264;" horiz-adv-x="499" d="M457 0h-415v40h415v-40zM456 108l-414 146v54l414 171v-47l-375 -151l375 -127v-46z" />
<glyph unicode="&#x2265;" horiz-adv-x="499" d="M457 0h-415v40h415v-40zM457 254l-414 -146v46l375 127l-375 151v47l414 -171v-54z" />
<glyph unicode="&#x25cc;" horiz-adv-x="428" d="M214 645q15 0 15 -15t-15 -15t-15 15t15 15zM152 631q15 0 15 -15q0 -14 -15 -14t-15 14q0 15 15 15zM276 631q15 0 15 -15q0 -14 -15 -14t-15 14q0 15 15 15zM103 598q15 0 15 -15t-15 -15t-15 15t15 15zM326 598q15 0 15 -15t-15 -15q-16 0 -16 15t16 15zM71 548 q14 0 14 -14q0 -15 -14 -15q-15 0 -15 15q0 14 15 14zM358 548q14 0 14 -14q0 -15 -14 -15q-15 0 -15 15q0 14 15 14zM60 491q15 0 15 -16q0 -14 -15 -14t-15 14q0 16 15 16zM369 491q15 0 15 -16q0 -14 -15 -14t-15 14q0 16 15 16zM71 432q14 0 14 -15q0 -13 -14 -13 q-15 0 -15 13q0 15 15 15zM358 432q14 0 14 -15q0 -13 -14 -13q-15 0 -15 13q0 15 15 15zM103 383q15 0 15 -15q0 -14 -15 -14t-15 14q0 15 15 15zM326 383q15 0 15 -15q0 -14 -15 -14q-16 0 -16 14q0 15 16 15zM152 349q15 0 15 -13q0 -16 -15 -16t-15 16q0 13 15 13z M276 349q15 0 15 -13q0 -16 -15 -16t-15 16q0 13 15 13zM214 337q15 0 15 -16q0 -15 -15 -15t-15 15q0 16 15 16z" />
<glyph unicode="&#x25fc;" horiz-adv-x="455" d="M0 455h455v-455h-455v455z" />
<glyph unicode="&#xe028;" d="M32 0q-32 0 -32 33q0 32 32 32q31 0 31 -32q0 -33 -31 -33z" />
<glyph unicode="&#xe030;" horiz-adv-x="906" d="M893 42h43v-42h-50q-98 0 -140 73q-43 -73 -142 -73h-357q-72 0 -114.5 45t-42.5 122v141l47 25v-158q0 -133 124 -133h338q123 0 123 133v223l47 25v-253q0 -128 124 -128z" />
<glyph unicode="&#xe033;" horiz-adv-x="137" d="M117 0q-76 0 -120 45.5t-44 123.5v229l47 25v-253q0 -128 124 -128h43v-42h-50zM-22 -175q-32 0 -32 33q0 32 32 32q31 0 31 -32q0 -33 -31 -33z" />
<glyph unicode="&#xe034;" horiz-adv-x="137" d="M-74 565q-32 0 -32 33q0 32 32 32q31 0 31 -32q0 -33 -31 -33zM27 565q-32 0 -32 33q0 32 32 32q31 0 31 -32q0 -33 -31 -33zM117 0q-76 0 -120 45.5t-44 123.5v229l47 25v-253q0 -128 124 -128h43v-42h-50z" />
<glyph unicode="&#xe035;" horiz-adv-x="137" d="M-23 655q-32 0 -32 33q0 32 32 32q31 0 31 -32q0 -33 -31 -33zM-73 565q-32 0 -32 33q0 32 32 32q31 0 31 -32q0 -33 -31 -33zM28 565q-32 0 -32 33q0 32 32 32q31 0 31 -32q0 -33 -31 -33zM117 0q-76 0 -120 45.5t-44 123.5v229l47 25v-253q0 -128 124 -128h43v-42h-50z " />
<glyph unicode="&#xe036;" horiz-adv-x="495" d="M448 327h38q0 -83 -43 -127q-41 -43 -116 -43q-77 0 -122 43v-157q0 -108 -55 -172q-52 -61 -141 -61q-57 0 -109 26v42q52 -27 104 -27q82 0 123 64q31 50 31 126v357l47 25v-97q0 -127 122 -127q121 0 121 128z" />
<glyph unicode="&#xe037;" horiz-adv-x="495" d="M174 565q-32 0 -32 33q0 32 32 32q31 0 31 -32q0 -33 -31 -33zM448 327h38q0 -83 -43 -127q-41 -43 -116 -43q-77 0 -122 43v-157q0 -108 -55 -172q-52 -61 -141 -61q-57 0 -109 26v42q52 -27 104 -27q82 0 123 64q31 50 31 126v357l47 25v-97q0 -127 122 -127 q121 0 121 128z" />
<glyph unicode="&#xe038;" horiz-adv-x="859" d="M315 465q-32 0 -32 33q0 32 32 32q31 0 31 -32q0 -33 -31 -33zM812 327h38q0 -83 -43 -127q-41 -43 -116 -43q-77 0 -122 43v-156q0 -111 -76 -176q-69 -58 -176 -58q-125 0 -194 88q-53 68 -53 162q0 89 46 151l47 10q-51 -74 -51 -161q0 -92 61 -152q57 -56 144 -56 q102 0 158 61q47 51 47 131v354l47 25v-97q0 -127 122 -127q121 0 121 128z" />
<glyph unicode="&#xe039;" horiz-adv-x="137" d="M-19 565q-32 0 -32 33q0 32 32 32q31 0 31 -32q0 -33 -31 -33zM117 0q-76 0 -120 45.5t-44 123.5v229l47 25v-253q0 -128 124 -128h43v-42h-50z" />
<glyph unicode="&#xe03a;" horiz-adv-x="137" d="M117 0q-76 0 -120 45.5t-44 123.5v229l47 25v-253q0 -128 124 -128h43v-42h-50zM-72 -175q-32 0 -32 32q0 33 32 33q31 0 31 -33q0 -32 -31 -32zM29 -175q-32 0 -32 32q0 33 32 33q31 0 31 -33q0 -32 -31 -32z" />
<glyph unicode="&#xe03b;" horiz-adv-x="137" d="M-100 561l15 28h24q-9 17 -9 34q0 27 20 47t48 20q19 0 38 -11v-31q-18 13 -36 13q-16 0 -28 -11t-12 -26q0 -18 15 -35h84l-15 -28h-144zM117 0q-76 0 -120 45.5t-44 123.5v229l47 25v-253q0 -128 124 -128h43v-42h-50z" />
<glyph unicode="&#xe03d;" horiz-adv-x="146" d="M117 0q-76 0 -120 45.5t-44 123.5v229l47 25v-253q0 -128 124 -128h43v-42h-50z" />
<glyph unicode="&#xe03e;" horiz-adv-x="785" d="M522 75q-3 -174 -179 -174q-80 0 -136 43q-107 81 -107 246q0 209 254 341q-73 52 -73 144q0 55 31.5 87.5t84.5 32.5q54 0 85.5 -31.5t31.5 -85.5q0 -83 -90 -148q138 -70 205 -172q56 -84 56 -180q0 -150 -103 -238v22q67 78 67 217q0 208 -258 325 q-252 -115 -252 -315q0 -141 95 -215q47 -36 109 -36q75 0 108 31.5t33 104.5q-39 -36 -93 -36q-57 0 -93.5 43t-36.5 110q0 69 38 112.5t98 43.5q59 0 93 -35t34 -96zM389 549q86 46 86 126q0 37 -21 58.5t-56 21.5q-80 0 -80 -78q0 -76 71 -128zM484 209q0 97 -87 97 q-43 0 -70 -31.5t-27 -81.5t26 -82t65 -32q63 0 93 56v74z" />
<glyph unicode="&#xe800;" d="M189 833l-15 -32l-164 -30l15 32zM0 709l15 32l164 30l-15 -32zM152 616v43l27 15v-58q0 -23 -14 -37t-37 -14t-38 15q-17 -15 -39 -15q-23 0 -37 14t-14 37v19l27 15v-34q0 -24 25 -24q24 0 24 20v37l27 15v-52q0 -20 25 -20q24 0 24 24z" />
<glyph unicode="&#xfbb2;" d="M32 0q-32 0 -32 33q0 32 32 32q31 0 31 -32q0 -33 -31 -33z" />
<glyph unicode="&#xfbb3;" d="M32 0q-32 0 -32 33q0 32 32 32q31 0 31 -32q0 -33 -31 -33z" />
<glyph unicode="&#xfbb4;" d="M32 0q-32 0 -32 33q0 32 32 32q31 0 31 -32q0 -33 -31 -33zM133 0q-32 0 -32 33q0 32 32 32q31 0 31 -32q0 -33 -31 -33z" />
<glyph unicode="&#xfbb5;" d="M32 0q-32 0 -32 33q0 32 32 32q31 0 31 -32q0 -33 -31 -33zM133 0q-32 0 -32 33q0 32 32 32q31 0 31 -32q0 -33 -31 -33z" />
<glyph unicode="&#xfbb6;" d="M82 90q-29 0 -29 30q0 29 29 29q28 0 28 -29q0 -30 -28 -30zM32 0q-32 0 -32 33q0 32 32 32q31 0 31 -32q0 -33 -31 -33zM133 0q-32 0 -32 33q0 32 32 32q31 0 31 -32q0 -33 -31 -33z" />
<glyph unicode="&#xfbb7;" d="M32 90q-32 0 -32 32q0 33 32 33q31 0 31 -33q0 -32 -31 -32zM133 90q-32 0 -32 32q0 33 32 33q31 0 31 -33q0 -32 -31 -32zM82 6q-29 0 -29 29q0 30 29 30q28 0 28 -30q0 -29 -28 -29z" />
<glyph unicode="&#xfd3e;" horiz-adv-x="375" d="M256 -50q-93 63 -144.5 160.5t-51.5 209.5q0 115 56 215q51 92 140 153v-41q-70 -60 -109 -146.5t-39 -180.5q0 -203 148 -329v-41z" />
<glyph unicode="&#xfd3f;" horiz-adv-x="375" d="M117 -50v41q148 126 148 329q0 94 -39 180.5t-109 146.5v41q93 -63 144.5 -160t51.5 -208q0 -117 -56 -217q-51 -92 -140 -153z" />
</font>
</defs>
</svg>
