<?xml version="1.0" standalone="no"?>
<!DOCTYPE svg PUBLIC "-//W3C//DTD SVG 1.1//EN" "http://www.w3.org/Graphics/SVG/1.1/DTD/svg11.dtd" >
<svg xmlns="http://www.w3.org/2000/svg" xmlns:xlink="http://www.w3.org/1999/xlink" version="1.1">
<metadata></metadata>
<defs>
<font id="thabitregular" horiz-adv-x="600" >
<font-face units-per-em="1024" ascent="819" descent="-205" />
<missing-glyph horiz-adv-x="637" />
<glyph unicode="ff" d="M600 616l-7 -50q-50 9 -82 9q-23 0 -38 -6.5t-22.5 -13.5t-11 -24t-4 -26t-0.5 -31v-56h145v-47h-145v-324h159v-47h-593v47h158v324h-104v47h104v56q0 22 1 36t9 38.5t23 39t46 26t75 11.5q49 0 126 -18q30 12 40 14q16 4 40 4q30 0 81 -9zM385 418v56q0 63 12 89 q-51 12 -95 12q-27 0 -46 -7t-28 -15t-13.5 -25t-5 -25.5t-0.5 -28.5v-56h176zM209 371v-324h176v324h-176z" />
<glyph unicode="fi" d="M461 418v-371h139v-47h-599v47h138v324h-138v47h138v56q0 28 1.5 46t7.5 40t16.5 34.5t31 21.5t49.5 9q36 0 101 -14l-20 -50q-54 14 -84 14q-19 0 -30.5 -7t-16 -24t-5.5 -30.5t-1 -41.5v-54h272zM411 47v324h-222v-324h222zM388 537v119h73v-119h-73z" />
<glyph unicode="fl" d="M461 610v-563h139v-47h-599v47h138v324h-138v47h138v57q0 25 1.5 41.5t9.5 39t23.5 36t45 23.5t71.5 10q60 0 171 -15zM411 47v513q-79 15 -123 15q-35 0 -56 -6.5t-30 -23t-11 -31.5t-2 -44v-52h140v-47h-140v-324h222z" />
<glyph unicode="&#xfb00;i" d="M2 0v47h79v324h-79v47h79v56q0 23 1 37t8.5 38.5t21.5 38.5t43 25.5t69 11.5t96 -14q11 5 23 10q16 4 31 4q20 0 62 -8l7 -2l-14 -50q-34 10 -55 10q-15 0 -24.5 -6t-14.5 -13.5t-7.5 -23.5t-3 -26.5t-0.5 -31.5v-56h193v-371h81v-47h-596zM131 371v-324h143v324h-143z M131 471v-53h143v51q0 67 10 97q-40 9 -69 9q-24 0 -41 -7t-25 -15.5t-12.5 -25t-5 -26.5t-0.5 -30zM467 47v324h-143v-324h143zM465 537v119h66v-119h-66z" />
<glyph unicode="&#xfb00;l" d="M2 0v47h79v324h-79v47h79v56q0 20 1 33.5t8.5 38t21.5 39.5t44 27.5t71 12.5q46 0 103 -19q20 8 41 14q22 5 46 5q40 0 100 -16v-562h81v-47h-596zM131 371v-324h143v324h-143zM131 471v-53h143v53q0 61 14 89q-32 15 -71 15q-31 0 -50 -9t-26 -28t-8.5 -31t-1.5 -36z M467 47v522q-22 6 -47 6q-28 0 -47 -6t-28.5 -13.5t-14.5 -24t-5.5 -27.5t-0.5 -33v-53h74v-47h-74v-324h143z" />
<glyph unicode="&#xfedf;&#xfe82;" horiz-adv-x="637" arabic-form="isolated" d="M381 762q-2 -3 -20 -67q-17 -65 -18 -65q0 9 -2 31q-3 22 -6 32q-37 -30 -89 -41q-32 -7 -71 -7h-15h-5q-3 -4 -11 -24q-2 -7 -7 -20q-2 1 -5 1q-3 1 -4 1q-3 0 -5 -2v134q18 -12 42 -18t51 -6q35 0 79 15q42 18 86 36zM498 389q0 -56 -12 -111q-6 -32 -21 -78l-2 -6 l2 -5q12 -24 20.5 -56.5t8.5 -60.5v-57h-203v85q37 9 71 35q24 18 54 52l7 8l-5 9q-25 50 -84 110q-55 55 -104 85q-1 0 -2 1q-8 3 -16.5 5t-20.5 2q-4 0 -8 -0.5t-9 -0.5q-1 0 -2.5 0.5t-3.5 1.5q-4 7 -8.5 32.5t-4.5 57.5q0 23 1 33t3 16q30 -16 78 -63q53 -52 111 -124 q55 -68 72 -105l14 -28l13 27q8 15 11 29q4 20 4 54q0 41 -10 109l-10 56l33 47l23 29v-189zM405 124l-29 -26h95l-6 19q-2 8 -4.5 16t-8.5 15l-12 19l-13 -19q-6 -9 -22 -24z" />
<glyph unicode="&#xfee0;&#xfe82;" horiz-adv-x="637" arabic-form="final" d="M274 735q-2 -3 -19.5 -67.5t-18.5 -65.5q0 10 -2 32t-6 32q-37 -30 -89 -41q-31 -8 -71 -8h-15h-5q-2 -4 -10 -24q-3 -6 -8 -19q-2 1 -5 1.5t-4 0.5q-3 0 -5 -2v134q18 -12 42 -18.5t51 -6.5q35 0 79 16zM389 81l-3 9q-18 49 -77 113q-58 62 -103 96l-89 68 q-50 38 -51 39q-11 11 -11 20q0 14 8 53l5 26l128 -70h-60h-14l119 -101q43 -36 96 -114q39 -56 55 -101l4 -11l4 -18l30 40q8 12 8 53q0 43 -19 123q-19 77 -36 130q-13 41 -18 54q8 18 27 54q11 20 20 35l42 -306q10 -71 48 -124q37 -51 75 -51h67v-83h-90q-31 0 -55 22 q-22 20 -33 56l-12 43l-28 -72q-12 -31 -19 -40q-23 -29 -67 -45t-92 -16q-22 0 -56 3q-10 2 -19 3q14 4 31 11q59 23 102 46q44 23 56 33z" />
<glyph unicode="&#xfedf;&#xfe84;" horiz-adv-x="637" arabic-form="isolated" d="M357 622q-1 0 -28 -14q-39 -20 -58 -32q-35 -22 -49 -37v17q1 9 10 32q3 7 10 21q-10 5 -16 13q-10 13 -10 33q0 34 32 81q34 50 67 50q15 0 22 -10t7 -26q0 -13 -5 -26q-4 -12 -10 -16q-4 5 -7 8q-9 6 -20 6q-14 0 -37 -17t-23 -30q0 -8 20 -14t36 -6t45 16q18 10 36 21 zM490 389q0 -56 -12 -111q-6 -32 -21 -78l-2 -6l2 -5q12 -24 20.5 -56.5t8.5 -60.5v-57h-203v85q37 9 71 35q24 18 54 52l7 8l-5 9q-25 50 -84 110q-55 55 -104 85q-1 0 -2 1q-8 3 -16.5 5t-20.5 2q-4 0 -8 -0.5t-9 -0.5q-1 0 -2.5 0.5t-3.5 1.5q-4 7 -8.5 32.5t-4.5 57.5 q0 23 1 33t3 16q30 -16 78 -63q53 -52 111 -124q55 -68 72 -105l14 -28l13 27q8 15 11 29q4 20 4 54q0 41 -10 109l-10 56l33 47l23 29v-189zM397 124l-29 -26h95l-6 19q-2 8 -4.5 16t-8.5 15l-12 19l-13 -19q-6 -9 -22 -24z" />
<glyph unicode="&#xfee0;&#xfe84;" horiz-adv-x="637" arabic-form="final" d="M251 622l-27 -14q-39 -20 -59 -32q-35 -22 -49 -37v17q1 9 10 32q4 7 11 21q-11 5 -17 13q-10 13 -10 33q0 34 32 81q34 50 67 50q16 0 23 -10q6 -10 6 -26q0 -13 -4 -26q-5 -12 -11 -16q-4 5 -7 8q-9 6 -19 6q-15 0 -38 -17q-22 -17 -22 -30q0 -8 19 -14q20 -6 37 -6 q15 0 44 16q18 10 37 21zM389 81l-3 9q-18 49 -77 113q-58 62 -103 96l-89 68q-50 38 -51 39q-11 11 -11 20q0 14 8 53l5 26l128 -70h-60h-14l119 -101q43 -36 96 -114q39 -56 55 -101l4 -11l4 -18l30 40q8 12 8 53q0 43 -19 123q-19 77 -36 130q-13 41 -18 54q8 18 27 54 q11 20 20 35l42 -306q10 -71 48 -124q37 -51 75 -51h67v-83h-90q-31 0 -55 22q-22 20 -33 56l-12 43l-28 -72q-12 -31 -19 -40q-23 -29 -67 -45t-92 -16q-22 0 -56 3q-10 2 -19 3q14 4 31 11q59 23 102 46q44 23 56 33z" />
<glyph unicode="&#xfedf;&#xfe88;" horiz-adv-x="637" arabic-form="isolated" d="M456 -219q-1 0 -28 -14q-39 -21 -59 -33q-34 -21 -48 -36v17q1 9 10 31q3 8 10 21q-10 5 -16 14q-10 13 -10 32q0 35 32 81q34 50 67 50q15 0 22 -10t7 -25q0 -13 -5 -26q-4 -13 -10 -16q-4 5 -7 7q-9 7 -20 7q-14 0 -37 -17t-23 -31q0 -8 20 -14t36 -6t45 16 q18 11 36 21zM490 389q0 -56 -12 -111q-6 -32 -21 -78l-2 -6l2 -5q12 -24 20.5 -56.5t8.5 -60.5v-57h-203v85q37 9 71 35q24 18 54 52l7 8l-5 9q-25 50 -84 110q-55 55 -104 85q-1 0 -2 1q-8 3 -16.5 5t-20.5 2q-4 0 -8 -0.5t-9 -0.5q-1 0 -2.5 0.5t-3.5 1.5q-4 7 -8.5 32.5 t-4.5 57.5q0 23 1 33t3 16q30 -16 78 -63q53 -52 111 -124q55 -68 72 -105l14 -28l13 27q8 15 11 29q4 20 4 54q0 41 -10 109l-10 56l33 47l23 29v-189zM397 124l-29 -26h95l-6 19q-2 8 -4.5 16t-8.5 15l-12 19l-13 -19q-6 -9 -22 -24z" />
<glyph unicode="&#xfee0;&#xfe88;" horiz-adv-x="637" arabic-form="final" d="M456 -219q-1 0 -28 -14q-39 -21 -59 -33q-34 -21 -48 -36v17q1 9 10 31q3 8 10 21q-10 5 -16 14q-10 13 -10 32q0 35 32 81q34 50 67 50q15 0 22 -10t7 -25q0 -13 -5 -26q-4 -13 -10 -16q-4 5 -7 7q-9 7 -20 7q-14 0 -37 -17t-23 -31q0 -8 20 -14t36 -6t45 16 q18 11 36 21zM389 81l-3 9q-18 49 -77 113q-58 62 -103 96l-89 68q-50 38 -51 39q-11 11 -11 20q0 14 8 53l5 26l128 -70h-60h-14l119 -101q43 -36 96 -114q39 -56 55 -101l4 -11l4 -18l30 40q8 12 8 53q0 43 -19 123q-19 77 -36 130q-13 41 -18 54q8 18 27 54q11 20 20 35 l42 -306q10 -71 48 -124q37 -51 75 -51h67v-83h-90q-31 0 -55 22q-22 20 -33 56l-12 43l-28 -72q-12 -31 -19 -40q-23 -29 -67 -45t-92 -16q-22 0 -56 3q-10 2 -19 3q14 4 31 11q59 23 102 46q44 23 56 33z" />
<glyph unicode="&#xfedf;&#xfe8e;" horiz-adv-x="637" arabic-form="isolated" d="M490 389q0 -56 -12 -111q-6 -32 -21 -78l-2 -6l2 -5q12 -24 20.5 -56.5t8.5 -60.5v-57h-203v85q37 9 71 35q24 18 54 52l7 8l-5 9q-25 50 -84 110q-55 55 -104 85q-1 0 -2 1q-8 3 -16.5 5t-20.5 2q-4 0 -8 -0.5t-9 -0.5q-1 0 -2.5 0.5t-3.5 1.5q-4 7 -8.5 32.5t-4.5 57.5 q0 23 1 33t3 16q30 -16 78 -63q53 -52 111 -124q55 -68 72 -105l14 -28l13 27q8 15 11 29q4 20 4 54q0 41 -10 109l-10 56l33 47l23 29v-189zM397 124l-29 -26h95l-6 19q-2 8 -4.5 16t-8.5 15l-12 19l-13 -19q-6 -9 -22 -24z" />
<glyph unicode="&#xfee0;&#xfe8e;" horiz-adv-x="637" arabic-form="final" d="M389 81l-3 9q-18 49 -77 113q-58 62 -103 96l-89 68q-50 38 -51 39q-11 11 -11 20q0 14 8 53l5 26l128 -70h-60h-14l119 -101q43 -36 96 -114q39 -56 55 -101l4 -11l4 -18l30 40q8 12 8 53q0 43 -19 123q-19 77 -36 130q-13 41 -18 54q8 18 27 54q11 20 20 35l42 -306 q10 -71 48 -124q37 -51 75 -51h67v-83h-90q-31 0 -55 22q-22 20 -33 56l-12 43l-28 -72q-12 -31 -19 -40q-23 -29 -67 -45t-92 -16q-22 0 -56 3q-10 2 -19 3q14 4 31 11q59 23 102 46q44 23 56 33z" />
<glyph unicode="&#x651;&#x64b;" horiz-adv-x="0" d="M234 699q0 -23 -4 -45.5t-12 -41t-21.5 -30t-32.5 -11.5q-28 0 -48 14l-15 -22q-8 -11 -16.5 -20t-19.5 -14t-25 -6q-23 0 -40 21t-17 58q0 4 1 13t3 20.5t5 22.5t8 20q2 3 5 2t6 -1q5 0 5 -12.5t1.5 -27t6 -27.5t19.5 -13q11 0 19.5 8.5t15.5 20.5t12 26.5t8 27.5 t4.5 22t2.5 10q1 3 7 3h7q4 0 6 -11t5.5 -23t10.5 -22.5t20 -10.5q15 0 23 15t13 34t6 35l1 17q2 5 8 8t9 3t5 -7.5t4 -17.5t3 -20.5t1 -17.5zM208 975q0 -2 -4 -11t-6 -15q-4 -8 -9 -13.5t-10.5 -9t-11.5 -6.5t-11 -6l-130 -67q-9 -5 -14.5 -7.5t-9 -3t-6 -1.5t-4.5 -5 t-4 -1t-2 5q1 2 2.5 10.5t4.5 14.5q3 7 6 11.5t6.5 7.5t8 6t12.5 6l136 73l12 6l11 6q5 4 9 6t6 2q4 0 6 -1t2 -7zM208 875q0 -2 -4 -11t-6 -15q-7 -16 -20 -23l-22 -13l-130 -67q-9 -4 -15 -7l-9 -3q-4 -1 -6 -2.5t-4 -5t-4 -0.5t-2 6q2 2 3 10.5t4 14.5t6 10.5t6.5 7.5 t8 6t12.5 6l136 73q10 5 22 12.5t16 7.5t6 -1t2 -6z" />
<glyph unicode="&#x651;&#x64c;" horiz-adv-x="0" d="M234 645q0 -23 -4 -45.5t-12 -41t-21.5 -30t-32.5 -11.5q-28 0 -48 14l-15 -22q-8 -11 -16.5 -20t-19.5 -14t-25 -6q-23 0 -40 21t-17 58q0 4 1 13t3 20.5t5 22.5t8 20q2 3 5 2t6 -1q5 0 5 -12.5t1.5 -27t6 -27.5t19.5 -13q11 0 19.5 8.5t15.5 20.5t12 26.5t8 27.5 t4.5 22t2.5 10q1 3 7 3h7q4 0 6 -11t5.5 -23t10.5 -22.5t20 -10.5q15 0 23 15t13 34t6 35l1 17q2 5 8 8t9 3t5 -7.5t4 -17.5t3 -20.5t1 -17.5zM224 772q0 -28 -14 -28q-4 0 -10.5 3.5t-13.5 9.5l-13 10q-7 5 -12 9q-45 -44 -84.5 -69.5t-64.5 -25.5q-5 0 -7.5 2.5t-2.5 5.5 q0 2 4 9.5t8 18t8 22.5t4 23v12.5t-3 12t-8.5 9t-14.5 3.5q-10 0 -16 -7t-9 -15.5t-4 -16.5l-1 -7q-7 0 -8.5 4t-1.5 11q0 10 2 25.5t7 30.5t14 26t24 11q21 0 33 -11t16 -35q1 -7 2 -16.5t0.5 -20.5t-1 -21t-1.5 -18q21 7 41.5 23t35.5 33q-7 5 -15 9.5t-14 11t-10 16 t-4 24.5q0 17 5.5 33.5t16.5 31t26 23.5t32 9q12 0 20.5 -5.5t14.5 -13t8.5 -17.5t2.5 -20q0 -8 -2 -17t-5 -18.5t-7 -18t-8 -14.5q15 -14 22.5 -25.5t7.5 -31.5zM165 850q5 10 5 19.5t-3 17.5t-10 13.5t-17 5.5q-6 0 -9 -4.5t-3 -9.5q0 -9 8 -18.5t29 -23.5z" />
<glyph unicode="&#x651;&#x64e;" horiz-adv-x="0" d="M234 716q0 -23 -4 -45.5t-12 -41t-21.5 -30t-32.5 -11.5q-28 0 -48 14l-15 -22q-8 -11 -16.5 -20t-19.5 -14t-25 -6q-23 0 -40 21t-17 58q0 4 1 13t3 20.5t5 22.5t8 20q2 3 5 2t6 -1q5 0 5 -12.5t1.5 -27t6 -27.5t19.5 -13q11 0 19.5 8.5t15.5 20.5t12 26.5t8 27.5 t4.5 22t2.5 10q1 3 7 3h7q4 0 6 -11t5.5 -23t10.5 -22.5t20 -10.5q15 0 23 15t13 34t6 36l1 16q2 5 8 8t9 3t5 -7.5t4 -17.5t3 -20.5t1 -17.5zM214 892q0 -2 -3 -11t-7 -15q-6 -16 -18 -23l-22 -13l-132 -67l-24 -13q-6 -4 -10 -4q-5 0 -5 5q0 2 1.5 10.5t5.5 14.5t6.5 10.5 t6 7.5t8 6t13.5 6l134 73q12 5 24 12.5t15 7.5q4 0 5.5 -1t1.5 -6z" />
<glyph unicode="&#x651;&#x64f;" horiz-adv-x="0" d="M234 640q0 -23 -4 -45.5t-12 -41t-21.5 -30t-32.5 -11.5q-28 0 -48 14l-15 -22q-8 -11 -16.5 -20t-19.5 -14t-25 -6q-23 0 -40 21t-17 58q0 4 1 13t3 20.5t5 22.5t8 20q2 3 5 2t6 -1q5 0 5 -12.5t1.5 -27t6 -27.5t19.5 -13q11 0 19.5 8.5t15.5 20.5t12 26.5t8 27.5 t4.5 22t2.5 10q1 3 7 3h7q4 0 6 -11t5.5 -23t10.5 -22.5t20 -10.5q15 0 23 15t13 34t6 36l1 16q2 5 8 8t9 3t5 -7.5t4 -17.5t3 -20.5t1 -17.5zM215 788q0 -3 -1.5 -10.5l-3.5 -17.5t-3.5 -20t-3.5 -10q-11 0 -24.5 10.5t-28.5 23.5q-36 -48 -66 -71t-54 -23q-9 0 -21.5 2.5 t-22.5 7.5q16 9 34.5 20.5t36 24.5t34 27.5t28.5 31.5q-18 13 -27 26t-10 31q0 15 7 34t18 36.5t24 29t28 11.5q25 0 35 -18.5t10 -43.5q0 -20 -6 -39.5t-14 -36.5q4 -3 10 -7l9 -7q5 -3 8.5 -6.5t3.5 -5.5zM161 859q0 13 -9.5 23t-23.5 10q-3 0 -5.5 -2.5t-2.5 -6.5 q0 -7 8.5 -19t25.5 -28q2 6 4.5 11.5t2.5 11.5z" />
<glyph unicode="&#x67c;" horiz-adv-x="637" d="M280 -33q0 -22 -8 -42t-22 -35t-33 -24t-42 -9q-32 0 -49.5 23.5t-17.5 74.5q0 21 7 40t20 34t31 23.5t40 8.5q15 0 28.5 -9t23.5 -23t16 -30.5t6 -31.5zM241 -53q0 8 -7 18t-17 19t-22 14.5t-22 5.5q-18 0 -29 -13.5t-11 -29.5q0 -8 5 -15t13 -12t19 -7.5t21 -2.5 q7 0 15.5 2t16.5 5.5t13 7.5t5 8zM285 395l-57 -57l-61 62l57 57zM469 397l-57 -57l-62 61l57 58zM380 97v-82h-389v83h357v15q0 32 -20 65q-7 10 -25 35l25 74q16 -27 29 -63q23 -65 23 -127z" />
<glyph unicode="&#x67c;" horiz-adv-x="637" d="M280 -33q0 -22 -8 -42t-22 -35t-33 -24t-42 -9q-32 0 -49.5 23.5t-17.5 74.5q0 21 7 40t20 34t31 23.5t40 8.5q15 0 28.5 -9t23.5 -23t16 -30.5t6 -31.5zM241 -53q0 8 -7 18t-17 19t-22 14.5t-22 5.5q-18 0 -29 -13.5t-11 -29.5q0 -8 5 -15t13 -12t19 -7.5t21 -2.5 q7 0 15.5 2t16.5 5.5t13 7.5t5 8zM275 391l-57 -57l-61 62l57 57zM459 393l-57 -57l-62 61l57 58zM-8 16v82h328v15q0 30 -23 70q-6 10 -17 28l27 69l9 -18q20 -41 26.5 -70.5t22.5 -50.5q32 -43 93 -43h184v-83h-204q-22 0 -44.5 10.5t-34.5 24.5l-26 30v-65z" />
<glyph unicode="&#x67c;" horiz-adv-x="637" d="M384 -46q0 -22 -8 -42t-22 -35t-33 -24t-42 -9q-32 0 -49.5 23.5t-17.5 74.5q0 21 7 40t20 34t31 23.5t40 8.5q15 0 28.5 -9t23.5 -23t16 -30.5t6 -31.5zM345 -66q0 8 -7 18t-17 19t-22 14.5t-22 5.5q-18 0 -29 -13.5t-11 -29.5q0 -8 5 -15t13 -12t19 -7.5t21 -2.5 q7 0 15.5 2t16.5 5.5t13 7.5t5 8zM139 15q-58 0 -85 24q-30 27 -30 87q0 33 25 89q12 27 24 46q-19 -45 -19 -74q0 -41 22 -62q27 -27 91 -27h352v15q0 30 -23 70q-6 10 -17 28l27 69l9 -18q20 -41 26.5 -69.5t23.5 -51.5q32 -43 67 -43h7v-83h-26q-20 0 -30.5 9.5 t-22.5 24.5l-27 33v-67h-394zM271 305l-57 -57l-61 62l57 57zM455 307l-57 -57l-62 61l57 58z" />
<glyph unicode="&#x681;" horiz-adv-x="637" d="M444 461l-28 -15q-38 -21 -59 -33q-34 -21 -49 -35v17q2 9 11 30q3 8 10 22q-10 5 -17 14q-9 13 -9 32q0 35 32 80q34 50 67 50q15 0 22 -9q7 -10 7 -25q0 -13 -5 -27q-4 -13 -11 -15q-4 5 -6 6q-10 8 -19 8q-16 0 -38 -17q-23 -17 -23 -32q0 -7 20 -13t37 -6q15 0 44 16 l36 20zM365 199q-38 31 -73 47.5t-64 16.5q-25 0 -53 -20l28 64q23 35 47 35q28 0 53 -16q34 -21 96 -79q52 -49 90 -60q19 -6 72 -7l-20 -77h-143q-51 0 -100 -25l-83 -41q-44 -22 -91 -22h-130v83h121q44 0 92 15q34 10 85 31l92 39z" />
<glyph unicode="&#x681;" horiz-adv-x="637" d="M444 461l-28 -15q-38 -21 -59 -33q-34 -21 -49 -35v17q2 9 11 30q3 8 10 22q-10 5 -17 14q-9 13 -9 32q0 35 32 80q34 50 67 50q15 0 22 -9q7 -10 7 -25q0 -13 -5 -27q-4 -13 -11 -15q-4 5 -6 6q-10 8 -19 8q-16 0 -38 -17q-23 -17 -23 -32q0 -7 20 -13t37 -6q15 0 44 16 l36 20zM347 234q-42 31 -54 39q-36 21 -67 21q-20 0 -46 -20q-8 -6 -16 -13l29 79q22 41 43 41q12 0 40 -15q11 -6 49 -39q34 -28 71 -51q38 -24 80 -33t87 -11l-19 -77h-43v-15v-7q2 -16 15 -24q18 -11 50 -11h78v-83h-90q-35 0 -51 17q-12 13 -12 37q-1 28 -1 33v2 q0 26 1 33v18h-63q-60 0 -121 -38l-109 -68q-54 -34 -119 -34h-85v83h72q57 0 112 23q26 11 90 49q49 30 75 38l27 9z" />
<glyph unicode="&#x681;" horiz-adv-x="637" d="M492 458l-28 -15q-38 -21 -59 -33q-34 -21 -49 -35v17q2 9 11 30q3 8 10 22q-10 5 -17 14q-9 13 -9 32q0 35 32 80q34 50 67 50q15 0 22 -9q7 -10 7 -25q0 -13 -5 -27q-4 -13 -11 -15q-4 5 -6 6q-10 8 -19 8q-16 0 -38 -17q-23 -17 -23 -32q0 -7 20 -13t37 -6q15 0 44 16 l36 20zM388 140l-39 -1q-85 -2 -144 -47q-62 -46 -62 -108q0 -64 78 -118t184 -54h115q-40 -34 -73.5 -58t-51.5 -24q-119 0 -196 53q-85 59 -85 164q0 54 30.5 115.5t76.5 95.5q9 7 29 16q26 12 57 25l23 9l-18 16q-29 27 -59 46q-39 25 -68 25q-18 0 -38 -12q-3 -3 -6 -5 q5 17 9 29q25 67 62 67q29 0 69 -37l80 -75q48 -45 99 -45h60l-40 -78h-82l1 -7q2 -17 19 -24q25 -10 83 -10h144v-83h-161q-44 0 -73 45q-17 26 -23 80z" />
<glyph unicode="&#x685;" horiz-adv-x="637" d="M351 446l-57 -58l-61 62l57 58zM504 448l-57 -58l-62 62l57 58zM422 542l-56 -56l-62 62l57 56zM365 199q-38 31 -73 47.5t-64 16.5q-25 0 -53 -20l28 64q23 35 47 35q28 0 53 -16q34 -21 96 -79q52 -49 90 -60q19 -6 72 -7l-20 -77h-143q-51 0 -100 -25l-83 -41 q-44 -22 -91 -22h-130v83h121q44 0 92 15q34 10 85 31l92 39z" />
<glyph unicode="&#x685;" horiz-adv-x="637" d="M351 446l-57 -58l-61 62l57 58zM504 448l-57 -58l-62 62l57 58zM422 542l-56 -56l-62 62l57 56zM347 234q-42 31 -54 39q-36 21 -67 21q-20 0 -46 -20q-8 -6 -16 -13l29 79q22 41 43 41q12 0 40 -15q11 -6 49 -39q34 -28 71 -51q38 -24 80 -33t87 -11l-19 -77h-43v-15v-7 q2 -16 15 -24q18 -11 50 -11h78v-83h-90q-35 0 -51 17q-12 13 -12 37q-1 28 -1 33v2q0 26 1 33v18h-63q-60 0 -121 -38l-109 -68q-54 -34 -119 -34h-85v83h72q57 0 112 23q26 11 90 49q49 30 75 38l27 9z" />
<glyph unicode="&#x685;" horiz-adv-x="637" d="M418 427l-57 -57l-61 62l57 57zM571 429l-57 -57l-62 61l57 58zM489 524l-56 -57l-62 62l57 57zM388 140l-39 -1q-85 -2 -144 -47q-62 -46 -62 -108q0 -64 78 -118t184 -54h115q-40 -34 -73.5 -58t-51.5 -24q-119 0 -196 53q-85 59 -85 164q0 54 30.5 115.5t76.5 95.5 q9 7 29 16q26 12 57 25l23 9l-18 16q-29 27 -59 46q-39 25 -68 25q-18 0 -38 -12q-3 -3 -6 -5q5 17 9 29q25 67 62 67q29 0 69 -37l80 -75q48 -45 99 -45h60l-40 -78h-82l1 -7q2 -17 19 -24q25 -10 83 -10h144v-83h-161q-44 0 -73 45q-17 26 -23 80z" />
<glyph unicode="&#x689;" horiz-adv-x="637" d="M344 -50q0 -22 -8 -42t-22 -35t-33 -24t-41 -9q-32 0 -50 24t-18 74q0 22 7 41t20 34t31 23t40 8q16 0 29 -9t23 -23t16 -30t6 -32zM306 -70q0 8 -7 18t-17 19t-22 15t-22 6q-18 0 -29 -14t-11 -30q0 -8 5 -15t13 -12t19 -7t21 -2q6 0 15 2t17 5t13 7t5 8zM375 42 q0 -10 -5 -18.5t-12 -8.5h-204q-1 0 -4 1t-12.5 17t-9.5 41q0 30 4 48q18 -24 45 -24h140q21 0 34 10.5t13 31t-30 67t-86 88.5l11 92q23 -22 44 -48q38 -46 67 -112t43.5 -85.5t35.5 -31.5t38 -12h146v-83h-162q-47 0 -68 35l-28 46v-54z" />
<glyph unicode="&#x693;" horiz-adv-x="637" d="M438 -269q0 -22 -8 -42t-22 -35t-33 -24t-42 -9q-32 0 -49.5 23.5t-17.5 74.5q0 21 7 40t20 34t31 23.5t40 8.5q15 0 28.5 -9t23.5 -23t16 -30.5t6 -31.5zM399 -289q0 8 -7 18t-17 19t-22 14.5t-22 5.5q-18 0 -29 -13.5t-11 -29.5q0 -8 5 -15t13 -12t19 -7.5t21 -2.5 q7 0 15.5 2t16.5 5.5t13 7.5t5 8zM635 15h-151q-17 0 -30 8q-10 6 -12 8l-18 23v-30q0 -59 -30 -133q-29 -76 -71 -117q-49 -50 -109 -50q-18 0 -39 12t-34 23q100 33 175 100q91 80 91 159q0 34 -31 82q-9 14 -25 33l36 92q15 -34 24 -50q30 -50 59 -62q39 -16 130 -16h35 v-82z" />
<glyph unicode="&#x696;" horiz-adv-x="637" d="M560 -196l-57 -56l-62 61l57 57zM316 44l-58 -56l-62 62l58 56zM635 15h-151q-17 0 -30 8q-10 6 -12 8l-18 23v-30q0 -59 -30 -133q-29 -76 -71 -117q-49 -50 -109 -50q-18 0 -39 12t-34 23q100 33 175 100q91 80 91 159q0 34 -31 82q-9 14 -25 33l36 92q15 -34 24 -50 q30 -50 59 -62q39 -16 130 -16h35v-82z" />
<glyph unicode="&#x69a;" horiz-adv-x="637" d="M478 -104l-57 -56l-62 61l57 57zM464 356l-58 -56l-62 62l58 56zM572 112q-1 -17 -3 -34q-4 -21 -13 -40q-9 -12 -22 -19q-9 -3 -19 -4h-3q-12 0 -23 3t-21 8q-10 8 -18 17q-10 12 -19 26l-13 19l-12 -19q-7 -9 -15 -18q-8 -8 -17 -15q-14 -10 -30 -16q-17 -4 -35 -5h-1 q-18 1 -35 5q-13 5 -24 14q-6 7 -10 16q-5 11 -9 22l-6 24l-18 -17q-14 -12 -28 -22q-17 -11 -34 -21q-19 -9 -38 -16q-8 -2 -17 -4q-8 -1 -17 -1h-82v83h69q24 1 48 7q25 9 48 21q23 14 43 30q21 18 41 38v-27q1 -11 4 -22q5 -11 11 -20q11 -12 25 -20q16 -6 33 -7h1 q21 2 40 10q19 12 33 29q8 12 15 25q7 16 13 33q4 -10 8 -19q4 -8 8 -15q16 -27 38 -48q9 -7 20 -11q10 -4 22 -5h3.5h2.5q7 2 12 5q6 4 10 9t7 12q2 7 2 15q-1 11 -5 21q-6 13 -14 25q-4 6 -9 12t-9 11l23 56q9 -18 16 -37l8 -24q6 -25 11 -50q4 -26 4 -40z" />
<glyph unicode="&#x69a;" horiz-adv-x="637" d="M439 -104l-57 -56l-62 61l57 57zM424 356l-56 -56l-62 62l56 56zM646 98v-83h-38q-18 0 -37 9q-23 10 -33 27l-16 25l-11 -27q-5 -13 -9 -19q-9 -15 -17 -15q-31 0 -52.5 12.5t-40.5 41.5l-13 19l-12 -19q-14 -20 -32 -33q-29 -21 -65 -21q-41 0 -60 19q-13 13 -20 38 l-6 24l-18 -17q-25 -24 -61 -43q-41 -21 -73 -21h-43v83h30q49 0 99 28q42 24 81 65v-24q0 -23 15 -42q21 -27 60 -27q44 0 75 39q18 23 31 57q7 -21 13 -33q31 -63 77 -63h1q5 0 9 1q11 3 19.5 12.5t8.5 26.5q0 21 -17 51q-4 7 -11 19l26 47q5 -9 8 -18q6 -18 14 -51 t27 -56q26 -32 63 -32h28z" />
<glyph unicode="&#x69a;" horiz-adv-x="637" d="M530 -104l-57 -56l-62 61l57 57zM486 356l-56 -56l-62 62l56 56zM537 115q37 0 37 35q0 21 -20 43l-14 15l22 59q36 -52 41 -117q4 -52 33 -52h13v-83h-15q-11 7 -22 43q-3 14 -14.5 14t-16.5 -10q-13 -22 -39 -26h-6q-15 0 -37 9.5t-40 39.5l-14 23l-12 -24 q-9 -17 -30 -35t-35 -18h-38v-36q0 -64 -54 -132q-31 -39 -61 -51q-35 -14 -69 -14q-52 0 -86.5 41.5t-34.5 120.5q0 38 22 96q-5 -26 -5 -43q0 -64 48 -105q31 -27 83 -27q58 0 113 49q16 14 29 44v3q0 52 -66 128l34 82q10 -19 34 -45q27 -30 49 -30t53 39q17 21 29 53 q12 -32 28 -53q29 -36 61 -36z" />
<glyph unicode="&#x6ab;" horiz-adv-x="637" d="M445 475q0 -22 -8 -42t-22 -35t-33 -24t-42 -9q-32 0 -49.5 23.5t-17.5 74.5q0 21 7 40t20 34t31 23.5t40 8.5q15 0 28.5 -9t23.5 -23t16 -30.5t6 -31.5zM406 455q0 8 -7 18t-17 19t-22 14.5t-22 5.5q-18 0 -29 -13.5t-11 -29.5q0 -8 5 -15t13 -12t19 -7.5t21 -2.5 q7 0 15.5 2t16.5 5.5t13 7.5t5 8zM187 347q34 -10 41 -13q24 -10 44 -22q89 -53 125 -112q33 -52 33 -116q0 -26 -7 -43q-11 -26 -26 -26h-405v83h417l-11 22q-15 31 -49 62.5t-76 54.5q-25 13 -45 18t-38 5q-23 0 -38 -6l-15 -5q-8 8 -21 38t-14 46q27 48 89 119 q70 79 154 145q84 67 155 99v-89q-58 -21 -126 -63q-59 -38 -114 -88q-44 -41 -81 -86l-14 -17z" />
<glyph unicode="&#x6ab;" horiz-adv-x="637" d="M392 470q0 -22 -8 -42t-22 -35t-33 -24t-41 -9q-32 0 -50 23t-18 75q0 20 7 39t20 34t31 24t40 9q16 0 29 -9t23 -23t16 -31t6 -31zM354 450q0 8 -7 18t-17 19t-22 14t-22 5q-18 0 -29 -13t-11 -29q0 -8 5 -15t13 -12t19 -8t21 -3q6 0 15 2t17 6t13 8t5 8zM341 136v-58 q0 -32 -6.5 -45.5t-20.5 -13.5h-323v81h327l-4 18q-8 33 -32 62q-26 33 -65 53q-26 14 -46.5 19.5t-36.5 5.5t-23 -2l-19 -7q-7 9 -19 38t-13 45q26 51 81 117q63 76 141 143q74 64 145 97v-92q-53 -22 -119 -66q-60 -40 -107 -84q-37 -35 -73 -78l-14 -17l20 -7 q33 -12 55 -22q29 -14 33 -17q11 -9 82 -63q78 -61 131 -94q79 -49 118 -49h93v-81h-103q-31 0 -85 31q-44 26 -92 66z" />
<glyph unicode="&#x6ab;" horiz-adv-x="637" d="M548 465q0 -22 -8 -42t-22 -35t-33 -24t-43 -9q-32 0 -49 23.5t-17 74.5q0 21 7 40t20 34t31 23.5t40 8.5q14 0 28 -9t24 -23t16 -30.5t6 -31.5zM508 445q0 8 -7 18t-17 19t-22 14.5t-22 5.5q-18 0 -29 -13.5t-11 -29.5q0 -8 5 -15t13 -12t19 -7.5t21 -2.5q8 0 16 2 t16 5.5t13 7.5t5 8zM513 201l44 -53q37 -51 73 -51h17v-81h-27q-25 0 -64 24q-25 17 -35 37l-15 30l-11 26v-58q0 -32 -6.5 -45.5t-20.5 -13.5h-323l-31 -1q-56 -1 -80 37q-21 32 -24 150q0 3 3 5.5t7 2.5q7 -1 7 -10q2 -29 4 -51.5t10 -33.5q7 -8 16.5 -11.5t23.5 -4.5 q14 0 33 -1l31 -1h327l-4 18q-8 33 -32 62q-26 33 -65 53q-26 14 -46.5 19.5t-36.5 5.5t-23 -2l-19 -7q-7 9 -19 38t-13 45q26 51 81 117q63 76 141 143q74 64 145 97v-92q-53 -22 -119 -66q-60 -40 -107 -84q-37 -35 -73 -78l-14 -17l20 -7q33 -12 55 -22q29 -14 33 -17 q25 -20 77 -48q9 -5 60 -54z" />
<glyph unicode="&#x6bc;" horiz-adv-x="637" d="M280 -33q0 -22 -8 -42t-22 -35t-33 -24t-42 -9q-32 0 -49.5 23.5t-17.5 74.5q0 21 7 40t20 34t31 23.5t40 8.5q15 0 28.5 -9t23.5 -23t16 -30.5t6 -31.5zM241 -53q0 8 -7 18t-17 19t-22 14.5t-22 5.5q-18 0 -29 -13.5t-11 -29.5q0 -8 5 -15t13 -12t19 -7.5t21 -2.5 q7 0 15.5 2t16.5 5.5t13 7.5t5 8zM377 412l-57 -57l-62 62l57 57zM404 97v-82h-413v83h381v15q0 32 -20 65q-7 10 -25 35l25 74q16 -27 29 -63q23 -65 23 -127z" />
<glyph unicode="&#x6bc;" horiz-adv-x="637" d="M280 -33q0 -22 -8 -42t-22 -35t-33 -24t-42 -9q-32 0 -49.5 23.5t-17.5 74.5q0 21 7 40t20 34t31 23.5t40 8.5q15 0 28.5 -9t23.5 -23t16 -30.5t6 -31.5zM241 -53q0 8 -7 18t-17 19t-22 14.5t-22 5.5q-18 0 -29 -13.5t-11 -29.5q0 -8 5 -15t13 -12t19 -7.5t21 -2.5 q7 0 15.5 2t16.5 5.5t13 7.5t5 8zM312 388l-57 -57l-62 62l57 57zM-8 15v83h328v15q0 30 -23 70q-6 10 -17 28l27 69l9 -18q20 -41 26.5 -70.5t22.5 -50.5q32 -43 93 -43h186v-83h-206q-22 0 -44.5 10.5t-34.5 24.5l-26 30v-65h-341z" />
<glyph unicode="&#x6bc;" horiz-adv-x="637" d="M359 -200q0 -22 -8 -42t-22 -35t-33 -24t-42 -9q-32 0 -49.5 23.5t-17.5 74.5q0 21 7 40t20 34t31 23.5t40 8.5q15 0 28.5 -9t23.5 -23t16 -30.5t6 -31.5zM320 -220q0 8 -7 18t-17 19t-22 14.5t-22 5.5q-18 0 -29 -13.5t-11 -29.5q0 -8 5 -15t13 -12t19 -7.5t21 -2.5 q7 0 15.5 2t16.5 5.5t13 7.5t5 8zM312 257l-57 -57l-62 62l57 57zM478 46l3 -40q0 -34 -8 -69q-14 -27 -49 -52q-29 -15 -70 -28q-35 -9 -79 -17q-60 -8 -107 -5q-44 9 -74 27q-26 25 -40 57q-11 56 0 120q13 50 34 97q-12 -55 -15 -100q4 -49 26 -82q18 -16 43 -27 q27 -8 62 -11q44 0 98 6q33 5 95 24q30 15 56 36l9 12v10q-8 37 -21 69l-17 29q-7 11 -17 24l31 76q15 -25 29 -44q23 -29 48 -44q23 -9 54 -13q32 -2 74 -3v-83h-82q-34 4 -59 17z" />
<glyph unicode="&#x6c0;" horiz-adv-x="637" arabic-form="final" d="M309 444l-28 -15q-38 -21 -59 -33q-34 -21 -49 -35v17q2 9 11 30q3 8 10 22q-10 5 -17 14q-9 13 -9 32q0 35 32 80q34 50 67 50q15 0 22 -9q7 -10 7 -25q0 -13 -5 -27q-4 -13 -11 -15q-4 5 -6 6q-10 8 -19 8q-16 0 -38 -17q-23 -17 -23 -32q0 -7 20 -13t37 -6q15 0 44 16 l36 20zM642 15h-202q-38 0 -61 33q-19 28 -19 56q0 12 -7 13.5t-9 1.5q-9 0 -13 -9q-7 -18 -29 -35q-26 -22 -52 -22q-32 0 -62.5 32t-30.5 66q0 25 23 57q19 27 55 56q25 21 56 43l11 7l-18 39l41 41q8 -21 19 -59q16 -62 22 -99q12 -73 28 -98q27 -40 83 -40h165v-83z M261 138q27 0 49 12q17 9 32 25l4 4v6q0 16 -11.5 32t-19.5 21q-8 6 -17 6h-1q-26 0 -59.5 -18.5t-44.5 -35.5l-7 -11l10 -8q14 -12 32 -22.5t33 -10.5z" />
<glyph unicode="&#x6cd;" horiz-adv-x="637" d="M155 -151q30 -23 106 -23q65 0 133 16q50 13 94 35l27 13l-28 14q-19 9 -68.5 26.5t-68.5 26.5t-22 13q1 21 15 51q13 26 26 41t51.5 25.5t96.5 10.5h130v-83h-253l107 -50q22 -11 22 -33v-41q0 -46 -50 -82q-43 -31 -117 -49q-64 -17 -115 -17q-84 0 -124 38 q-32 31 -32 88q0 55 10 92q-44 -33 -116 -85l-1 61q98 30 127 63l15 -3q-32 -100 35 -148z" />
<glyph unicode="&#x67e;" horiz-adv-x="637" arabic-form="isolated" d="M302 -104l-61 -62l-57 58l61 62zM486 -106l-62 -62l-57 58l62 62zM390 -220l-61 -62l-57 56l62 62zM155 15q-56 0 -86 25q-35 30 -35 90q0 38 21 89q12 29 26 49q-24 -49 -24 -81q0 -40 25 -62q30 -27 94 -27h395v15q0 31 -19 64v1h-1l-24 34l25 75q15 -26 28 -63 q23 -66 23 -127v-82h-448z" />
<glyph unicode="&#x67e;" horiz-adv-x="637" arabic-form="final" d="M273 -93l-61 -62l-57 57l61 62zM457 -95l-62 -62l-57 58l62 61zM361 -210l-61 -62l-57 57l62 62zM139 15q-58 0 -85 24q-30 27 -30 87q0 33 25 89q12 27 24 46q-19 -45 -19 -74q0 -41 22 -62q27 -27 91 -27h352v15q0 30 -23 70q-6 10 -17 28l27 69l9 -18 q20 -41 26.5 -69.5t23.5 -51.5q32 -43 67 -43h7v-83h-26q-20 0 -30.5 9.5t-22.5 24.5l-27 33v-67h-394z" />
<glyph unicode="&#x67e;" horiz-adv-x="637" arabic-form="initial" d="M273 -93l-61 -62l-57 57l61 62zM457 -95l-62 -62l-57 58l62 61zM361 -210l-61 -62l-57 57l62 62zM404 97v-82h-412v83h380v15q0 32 -20 65q-7 10 -25 35l25 74q16 -27 29 -63q23 -65 23 -127z" />
<glyph unicode="&#x67e;" horiz-adv-x="637" arabic-form="medial" d="M273 -93l-61 -62l-57 57l61 62zM457 -95l-62 -62l-57 58l62 61zM361 -210l-61 -62l-57 57l62 62zM-7 15v83h327v15q0 30 -23 70q-6 10 -17 28l27 69l9 -18q20 -41 26.5 -70.5t22.5 -50.5q32 -43 93 -43h185v-83h-205q-22 0 -44.5 10.5t-34.5 24.5l-26 30v-65h-340z" />
<glyph unicode="&#x679;" horiz-adv-x="637" arabic-form="isolated" d="M390 285h8t7 2q2 1 4 3q3 3 4 6q1 6 1 11q-2 6 -5 12q-3 4 -7 8q-4 3 -9 6q-6 3 -13 6q-7 2 -14 2t-13 -2q-8 -2 -15 -6q-10 -7 -20 -15l-18 -18l-14 -15h104zM426 318v-8q0 -13 -3 -26q-1 -8 -4 -15q-3 -9 -9 -16l-6 -4q-4 -1 -7 -1h-154q-3 0 -6 1q-2 1 -5 3 q-5 4 -10 10q-4 6 -7 13q-3 8 -4 15v1q6 -3 12 -5q5 -1 10 -1h20h11q4 1 7 2q5 4 9 8l6 8l3 5l-1 7q-3 18 -5 36q-3 22 -7 45q-2 17 -7 38q-5 15 -8 25l17 42q3 -9 5 -19l4 -22q3 -17 5 -34q1 -18 3 -35l2 -24l2 -28l2 -18l20 21q8 9 16 17q5 4 10 7q7 6 15 10q6 2 13 3v0 q8 -1 16 -4q8 -5 15 -12q8 -9 14 -20q4 -12 6 -25zM155 15q-56 0 -86 25q-35 30 -35 90q0 38 21 89q12 29 26 49q-24 -49 -24 -81q0 -40 25 -62q30 -27 94 -27h395v15q0 31 -19 64v1h-1l-24 34l25 75q15 -26 28 -63q23 -66 23 -127v-82h-448z" />
<glyph unicode="&#x679;" horiz-adv-x="637" arabic-form="final" d="M364 285h8t7 2q2 1 4 3q3 3 4 6q1 6 1 11q-2 6 -5 12q-3 4 -7 8q-4 3 -9 6q-6 3 -13 6q-7 2 -14 2t-13 -2q-8 -2 -15 -6q-10 -7 -20 -15l-18 -18l-14 -15h104zM400 318v-8q0 -13 -3 -26q-1 -8 -4 -15q-3 -9 -9 -16l-6 -4q-4 -1 -7 -1h-154q-3 0 -6 1q-2 1 -5 3 q-5 4 -10 10q-4 6 -7 13q-3 8 -4 15v1q6 -3 12 -5q5 -1 10 -1h20h11q4 1 7 2q5 4 9 8l6 8l3 5l-1 7q-3 18 -5 36q-3 22 -7 45q-2 17 -7 38q-5 15 -8 25l17 42q3 -9 5 -19l4 -22q3 -17 5 -34q1 -18 3 -35l2 -24l2 -28l2 -18l20 21q8 9 16 17q5 4 10 7q7 6 15 10q6 2 13 3v0 q8 -1 16 -4q8 -5 15 -12q8 -9 14 -20q4 -12 6 -25zM139 15q-58 0 -85 24q-30 27 -30 87q0 33 25 89q12 27 24 46q-19 -45 -19 -74q0 -41 22 -62q27 -27 91 -27h352v15q0 30 -23 70q-6 10 -17 28l27 69l9 -18q20 -41 26.5 -69.5t23.5 -51.5q32 -43 67 -43h7v-83h-26 q-20 0 -30.5 9.5t-22.5 24.5l-27 33v-67h-394z" />
<glyph unicode="&#x679;" horiz-adv-x="637" arabic-form="initial" d="M390 362h8t7 2q2 1 4 3q3 3 4 6q1 6 1 11q-2 6 -5 12q-3 4 -7 8q-4 3 -9 6q-6 3 -13 6q-7 2 -14 2t-13 -2q-8 -2 -15 -6q-10 -7 -20 -15l-18 -18l-14 -15h104zM426 395v-8q0 -13 -3 -26q-1 -8 -4 -15q-3 -9 -9 -16l-6 -4q-4 -1 -7 -1h-154q-3 0 -6 1q-2 1 -5 3 q-5 4 -10 10q-4 6 -7 13q-3 8 -4 15v1q6 -3 12 -5q5 -1 10 -1h20h11q4 1 7 2q5 4 9 8l6 8l3 5l-1 7q-3 18 -5 36q-3 22 -7 45q-2 17 -7 38q-5 15 -8 25l17 42q3 -9 5 -19l4 -22q3 -17 5 -34q1 -18 3 -35l2 -24l2 -28l2 -18l20 21q8 9 16 17q5 4 10 7q7 6 15 10q6 2 13 3v0 q8 -1 16 -4q8 -5 15 -12q8 -9 14 -20q4 -12 6 -25zM404 97v-82h-412v83h380v15q0 32 -20 65q-7 10 -25 35l25 74q16 -27 29 -63q23 -65 23 -127z" />
<glyph unicode="&#x679;" horiz-adv-x="637" arabic-form="medial" d="M368 349h8t7 2q2 1 4 3q3 3 4 6q1 6 1 11q-2 6 -5 12q-3 4 -7 8q-4 3 -9 6q-6 3 -13 6q-7 2 -14 2t-13 -2q-8 -2 -15 -6q-10 -7 -20 -15l-18 -18l-14 -15h104zM404 382v-8q0 -13 -3 -26q-1 -8 -4 -15q-3 -9 -9 -16l-6 -4q-4 -1 -7 -1h-154q-3 0 -6 1q-2 1 -5 3 q-5 4 -10 10q-4 6 -7 13q-3 8 -4 15v1q6 -3 12 -5q5 -1 10 -1h20h11q4 1 7 2q5 4 9 8l6 8l3 5l-1 7q-3 18 -5 36q-3 22 -7 45q-2 17 -7 38q-5 15 -8 25l17 42q3 -9 5 -19l4 -22q3 -17 5 -34q1 -18 3 -35l2 -24l2 -28l2 -18l20 21q8 9 16 17q5 4 10 7q7 6 15 10q6 2 13 3v0 q8 -1 16 -4q8 -5 15 -12q8 -9 14 -20q4 -12 6 -25zM-7 15v83h327v15q0 30 -23 70q-6 10 -17 28l27 69l9 -18q20 -41 26.5 -70.5t22.5 -50.5q32 -43 93 -43h185v-83h-205q-22 0 -44.5 10.5t-34.5 24.5l-26 30v-65h-340z" />
<glyph unicode="&#x6a4;" horiz-adv-x="637" arabic-form="isolated" d="M301 553l-57 -57l-61 62l57 57zM485 555l-57 -57l-62 61l57 58zM389 670l-56 -57l-62 62l57 57zM362 15h-224q-57 0 -85.5 25.5t-28.5 85.5q0 33 18 73t28 58q-37 -91 8 -135q24 -24 89 -24h6h189h147l-88 37q-41 18 -47 36l-1 2l13 92l2 12q12 75 33 122q25 52 54 52 q43 0 89 -87q54 -101 54 -230v-85q0 -19 -8.5 -26.5t-39.5 -7.5h-208zM408 244l4 -4l169 -70q-19 92 -68 137q-27 25 -54 27q-40 2 -51 -90z" />
<glyph unicode="&#x6a4;" horiz-adv-x="637" arabic-form="final" d="M301 553l-57 -57l-61 62l57 57zM485 555l-57 -57l-62 61l57 58zM389 670l-56 -57l-62 62l57 57zM462 126q39 3 81 26l11 10q-15 60 -48 102q-26 27 -46 34q-9 3 -18 3t-18 -5q-18 -9 -31 -29q-24 -34 -37 -95l9 -9q67 -37 97 -37zM122 15q-57 0 -84 24q-30 27 -30 87 q0 33 24 88q12 27 24 46q-19 -44 -19 -73q0 -41 22 -62q27 -27 93 -27h182v48q0 86 30 162q34 86 81 86q32 0 62.5 -38t54.5 -104q30 -79 32 -110l4 -44h49v-83h-39q-32 0 -70.5 8t-64.5 19l-11 5l-10 -5q-22 -9 -79 -18t-100 -9h-151z" />
<glyph unicode="&#x6a4;" horiz-adv-x="637" arabic-form="initial" d="M124 553l-57 -57l-61 62l57 57zM308 555l-57 -57l-62 61l57 58zM212 670l-56 -57l-62 62l57 57zM324 98l-88 37q-41 18 -47 36l-1 2l13 92l2 12q12 75 33 122q25 52 54 52q43 0 89 -87q54 -101 54 -230v-85q0 -19 -8.5 -26.5t-39.5 -7.5h-393v83h332zM223 244l4 -4 l169 -70q-19 92 -68 137q-27 25 -54 27q-40 2 -51 -90z" />
<glyph unicode="&#x6a4;" horiz-adv-x="637" arabic-form="medial" d="M124 553l-57 -57l-61 62l57 57zM308 555l-57 -57l-62 61l57 58zM212 670l-56 -57l-62 62l57 57zM196 146q0 86 30 162q34 86 81 86q32 0 62.5 -38t54.5 -104q30 -79 32 -110l4 -44h184v-83h-174q-32 0 -70.5 8t-64.5 19l-11 5l-10 -5q-22 -9 -79 -18t-100 -9h-144v83h205 v48zM324 126q39 3 81 26l11 10q-15 60 -48 102q-26 27 -46 34q-9 3 -18 3t-18 -5q-18 -9 -31 -29q-24 -34 -37 -95l9 -9q67 -37 97 -37z" />
<glyph unicode="&#x686;" horiz-adv-x="637" arabic-form="final" d="M291 -5l-61 -62l-57 57l61 62zM441 -4l-62 -62l-57 58l62 61zM362 -85l-61 -62l-57 57l62 62zM388 140l-39 -1q-85 -2 -144 -47q-62 -46 -62 -108q0 -64 78 -118t184 -54h115q-40 -34 -73.5 -58t-51.5 -24q-119 0 -196 53q-85 59 -85 164q0 54 30.5 115.5t76.5 95.5 q9 7 29 16q26 12 57 25l23 9l-18 16q-29 27 -59 46q-39 25 -68 25q-18 0 -38 -12q-3 -3 -6 -5q5 17 9 29q25 67 62 67q29 0 69 -37l80 -75q48 -45 99 -45h60l-40 -78h-82l1 -7q2 -17 19 -24q25 -10 83 -10h144v-83h-161q-44 0 -73 45q-17 26 -23 80z" />
<glyph unicode="&#x686;" horiz-adv-x="637" arabic-form="initial" d="M273 -93l-61 -62l-57 57l61 62zM457 -95l-62 -62l-57 58l62 61zM361 -210l-61 -62l-57 57l62 62zM365 199q-38 31 -73 47.5t-64 16.5q-25 0 -53 -20l28 64q23 35 47 35q28 0 53 -16q34 -21 96 -79q52 -49 90 -60q19 -6 72 -7l-20 -77h-143q-51 0 -100 -25l-83 -41 q-44 -22 -91 -22h-130v83h121q44 0 92 15q34 10 85 31l92 39z" />
<glyph unicode="&#x686;" horiz-adv-x="637" arabic-form="medial" d="M273 -93l-61 -62l-57 57l61 62zM457 -95l-62 -62l-57 58l62 61zM361 -210l-61 -62l-57 57l62 62zM347 234q-42 31 -54 39q-36 21 -67 21q-20 0 -46 -20q-8 -6 -16 -13l29 79q22 41 43 41q12 0 40 -15q11 -6 49 -39q34 -28 71 -51q38 -24 80 -33t87 -11l-19 -77h-43v-15 v-7q2 -16 15 -24q18 -11 50 -11h78v-83h-90q-35 0 -51 17q-12 13 -12 37q-1 28 -1 33v2q0 26 1 33v18h-63q-60 0 -121 -38l-109 -68q-54 -34 -119 -34h-85v83h72q57 0 112 23q26 11 90 49q49 30 75 38l27 9z" />
<glyph unicode="&#x688;" horiz-adv-x="637" arabic-form="isolated" d="M376 475h8t7 2q2 1 4 3q3 3 4 6q1 6 1 11q-2 6 -5 12q-3 4 -7 8q-4 3 -9 6q-6 3 -13 6q-7 2 -14 2t-13 -2q-8 -2 -15 -6q-10 -7 -20 -15l-18 -18l-14 -15h104zM412 508v-8q0 -13 -3 -26q-1 -8 -4 -15q-3 -9 -9 -16l-6 -4q-4 -1 -7 -1h-154q-3 0 -6 1q-2 1 -5 3 q-5 4 -10 10q-4 6 -7 13q-3 8 -4 15v1q6 -3 12 -5q5 -1 10 -1h20h11q4 1 7 2q5 4 9 8l6 8l3 5l-1 7q-3 18 -5 36q-3 22 -7 45q-2 17 -7 38q-5 15 -8 25l17 42q3 -9 5 -19l4 -22q3 -17 5 -34q1 -18 3 -35l2 -24l2 -28l2 -18l20 21q8 9 16 17q5 4 10 7q7 6 15 10q6 2 13 3v0 q8 -1 16 -4q8 -5 15 -12q8 -9 14 -20q4 -12 6 -25zM453 77q0 -14 -1 -27q-2 -10 -5 -19q-4 -7 -9 -12q-4 -2 -8 -3t-8 -1h-209q-3 0 -7 1q-3 1 -5 4q-6 6 -10 14q-3 11 -5 24q-2 14 -2 28v6v14q1 5 2 9l5 20l1 -2q7 -8 14 -15q8 -6 17 -11q8 -4 16 -7q9 -2 18 -2h126 q2 0 4 0.5t4 0.5l6 2l6 4q4 4 8 7q4 5 7 11q3 11 2 23q-3 14 -9 28q-14 25 -31 46q-21 21 -42 41q-15 15 -28 30l9 96q11 -10 22 -19l19 -19q13 -14 25 -29q11 -14 21 -29q12 -21 21 -43q9 -27 15 -55q5 -28 8 -56q3 -26 3 -51v-9z" />
<glyph unicode="&#x688;" horiz-adv-x="637" arabic-form="final" d="M320 475h8t7 2q2 1 4 3q3 3 4 6q1 6 1 11q-2 6 -5 12q-3 4 -7 8q-4 3 -9 6q-6 3 -13 6q-7 2 -14 2t-13 -2q-8 -2 -15 -6q-10 -7 -20 -15l-18 -18l-14 -15h104zM356 508v-8q0 -13 -3 -26q-1 -8 -4 -15q-3 -9 -9 -16l-6 -4q-4 -1 -7 -1h-154q-3 0 -6 1q-2 1 -5 3 q-5 4 -10 10q-4 6 -7 13q-3 8 -4 15v1q6 -3 12 -5q5 -1 10 -1h20h11q4 1 7 2q5 4 9 8l6 8l3 5l-1 7q-3 18 -5 36q-3 22 -7 45q-2 17 -7 38q-5 15 -8 25l17 42q3 -9 5 -19l4 -22q3 -17 5 -34q1 -18 3 -35l2 -24l2 -28l2 -18l20 21q8 9 16 17q5 4 10 7q7 6 15 10q6 2 13 3v0 q8 -1 16 -4q8 -5 15 -12q8 -9 14 -20q4 -12 6 -25zM375 42q0 -10 -5 -18.5t-12 -8.5h-204q-1 0 -4 1t-12.5 17t-9.5 41q0 30 4 48q18 -24 45 -24h140q21 0 34 10.5t13 31t-30 67t-86 88.5l11 92q23 -22 44 -48q38 -46 67 -112t43.5 -85.5t35.5 -31.5t38 -12h146v-83h-162 q-47 0 -68 35l-28 46v-54z" />
<glyph unicode="&#x698;" horiz-adv-x="637" arabic-form="isolated" d="M383 372l-57 -58l-61 62l57 58zM536 374l-57 -58l-62 62l57 58zM454 468l-56 -56l-62 62l57 56zM260 -234q-9 1 -19 3q-10 4 -20 9q-10 6 -19 12q-7 6 -15 11q46 18 89 43q34 24 66 51q45 42 80 93q11 27 14 55v7q-2 14 -6 28q-7 21 -19 40q-12 18 -25 35l-14 18l34 101 l2 -3q11 -20 20 -41q8 -20 16 -42q9 -30 14 -61q4 -31 5 -62q-1 -32 -6 -63q-7 -33 -18 -65q-13 -33 -31 -65q-18 -28 -40 -53q-23 -22 -51 -38q-26 -11 -53 -13h-4z" />
<glyph unicode="&#x698;" horiz-adv-x="637" arabic-form="final" d="M366 302l-57 -58l-61 62l57 58zM519 304l-57 -58l-62 62l57 58zM437 398l-56 -56l-62 62l57 56zM635 15h-151q-17 0 -30 8q-10 6 -12 8l-18 23v-30q0 -59 -30 -133q-29 -76 -71 -117q-49 -50 -109 -50q-18 0 -39 12t-34 23q100 33 175 100q91 80 91 159q0 34 -31 82 q-9 14 -25 33l36 92q15 -34 24 -50q30 -50 59 -62q39 -16 130 -16h35v-82z" />
<glyph unicode="&#x691;" horiz-adv-x="637" arabic-form="isolated" d="M449 401h8t7 2q2 1 4 3q3 3 4 6q1 6 1 11q-2 6 -5 12q-3 4 -7 8q-4 3 -9 6q-6 3 -13 6q-7 2 -14 2t-13 -2q-8 -2 -15 -6q-10 -7 -20 -15l-18 -18l-14 -15h104zM485 434v-8q0 -13 -3 -26q-1 -8 -4 -15q-3 -9 -9 -16l-6 -4q-4 -1 -7 -1h-154q-3 0 -6 1q-2 1 -5 3 q-5 4 -10 10q-4 6 -7 13q-3 8 -4 15v1q6 -3 12 -5q5 -1 10 -1h20h11q4 1 7 2q5 4 9 8l6 8l3 5l-1 7q-3 18 -5 36q-3 22 -7 45q-2 17 -7 38q-5 15 -8 25l17 42q3 -9 5 -19l4 -22q3 -17 5 -34q1 -18 3 -35l2 -24l2 -28l2 -18l20 21q8 9 16 17q5 4 10 7q7 6 15 10q6 2 13 3v0 q8 -1 16 -4q8 -5 15 -12q8 -9 14 -20q4 -12 6 -25zM260 -234q-9 1 -19 3q-10 4 -20 9q-10 6 -19 12q-7 6 -15 11q46 18 89 43q34 24 66 51q45 42 80 93q11 27 14 55v7q-2 14 -6 28q-7 21 -19 40q-12 18 -25 35l-14 18l34 101l2 -3q11 -20 20 -41q8 -20 16 -42q9 -30 14 -61 q4 -31 5 -62q-1 -32 -6 -63q-7 -33 -18 -65q-13 -33 -31 -65q-18 -28 -40 -53q-23 -22 -51 -38q-26 -11 -53 -13h-4z" />
<glyph unicode="&#x691;" horiz-adv-x="637" arabic-form="final" d="M436 340h8t7 2q2 1 4 3q3 3 4 6q1 6 1 11q-2 6 -5 12q-3 4 -7 8q-4 3 -9 6q-6 3 -13 6q-7 2 -14 2t-13 -2q-8 -2 -15 -6q-10 -7 -20 -15l-18 -18l-14 -15h104zM472 373v-8q0 -13 -3 -26q-1 -8 -4 -15q-3 -9 -9 -16l-6 -4q-4 -1 -7 -1h-154q-3 0 -6 1q-2 1 -5 3 q-5 4 -10 10q-4 6 -7 13q-3 8 -4 15v1q6 -3 12 -5q5 -1 10 -1h20h11q4 1 7 2q5 4 9 8l6 8l3 5l-1 7q-3 18 -5 36q-3 22 -7 45q-2 17 -7 38q-5 15 -8 25l17 42q3 -9 5 -19l4 -22q3 -17 5 -34q1 -18 3 -35l2 -24l2 -28l2 -18l20 21q8 9 16 17q5 4 10 7q7 6 15 10q6 2 13 3v0 q8 -1 16 -4q8 -5 15 -12q8 -9 14 -20q4 -12 6 -25zM635 15h-151q-17 0 -30 8q-10 6 -12 8l-18 23v-30q0 -59 -30 -133q-29 -76 -71 -117q-49 -50 -109 -50q-18 0 -39 12t-34 23q100 33 175 100q91 80 91 159q0 34 -31 82q-9 14 -25 33l36 92q15 -34 24 -50q30 -50 59 -62 q39 -16 130 -16h35v-82z" />
<glyph unicode="&#x6a9;" horiz-adv-x="637" arabic-form="final" d="M513 201l44 -53q37 -51 73 -51h17v-81h-27q-25 0 -64 24q-25 17 -35 37l-15 30l-11 26v-58q0 -32 -6.5 -45.5t-20.5 -13.5h-323l-31 -1q-56 -1 -80 37q-21 32 -24 150q0 3 3 5.5t7 2.5q7 -1 7 -10q2 -29 4 -51.5t10 -33.5q7 -8 16.5 -11.5t23.5 -4.5q14 0 33 -1l31 -1 h327l-4 18q-8 33 -32 62q-26 33 -65 53q-26 14 -46.5 19.5t-36.5 5.5t-23 -2l-19 -7q-7 9 -19 38t-13 45q26 51 81 117q63 76 141 143q74 64 145 97v-92q-53 -22 -119 -66q-60 -40 -107 -84q-37 -35 -73 -78l-14 -17l20 -7q33 -12 55 -22q29 -14 33 -17q25 -20 77 -48 q9 -5 60 -54z" />
<glyph unicode="&#x6a9;" horiz-adv-x="637" arabic-form="initial" d="M187 347q34 -10 41 -13q24 -10 44 -22q89 -53 125 -112q33 -52 33 -116q0 -26 -7 -43q-11 -26 -26 -26h-405v83h417l-11 22q-15 31 -49 62.5t-76 54.5q-25 13 -45 18t-38 5q-23 0 -38 -6l-15 -5q-8 8 -21 38t-14 46q27 48 89 119q70 79 154 145q84 67 155 99v-89 q-58 -21 -126 -63q-59 -38 -114 -88q-44 -41 -81 -86l-14 -17z" />
<glyph unicode="&#x6a9;" horiz-adv-x="637" arabic-form="medial" d="M341 136v-58q0 -32 -6.5 -45.5t-20.5 -13.5h-323v81h327l-4 18q-8 33 -32 62q-26 33 -65 53q-26 14 -46.5 19.5t-36.5 5.5t-23 -2l-19 -7q-7 9 -19 38t-13 45q26 51 81 117q63 76 141 143q74 64 145 97v-92q-53 -22 -119 -66q-60 -40 -107 -84q-37 -35 -73 -78l-14 -17 l20 -7q33 -12 55 -22q29 -14 33 -17q11 -9 82 -63q78 -61 131 -94q79 -49 118 -49h93v-81h-103q-31 0 -85 31q-44 26 -92 66z" />
<glyph unicode="&#x6af;" horiz-adv-x="637" arabic-form="final" d="M572 810q-2 -27 -8 -63q-114 -61 -218 -153t-168 -196l-17 47q66 113 180.5 212.5t230.5 152.5zM513 201l44 -53q37 -51 73 -51h17v-81h-27q-25 0 -64 24q-25 17 -35 37l-15 30l-11 26v-58q0 -32 -6.5 -45.5t-20.5 -13.5h-323l-31 -1q-56 -1 -80 37q-21 32 -24 150 q0 3 3 5.5t7 2.5q7 -1 7 -10q2 -29 4 -51.5t10 -33.5q7 -8 16.5 -11.5t23.5 -4.5q14 0 33 -1l31 -1h327l-4 18q-8 33 -32 62q-26 33 -65 53q-26 14 -46.5 19.5t-36.5 5.5t-23 -2l-19 -7q-7 9 -19 38t-13 45q26 51 81 117q63 76 141 143q74 64 145 97v-92q-53 -22 -119 -66 q-60 -40 -107 -84q-37 -35 -73 -78l-14 -17l20 -7q33 -12 55 -22q29 -14 33 -17q25 -20 77 -48q9 -5 60 -54z" />
<glyph unicode="&#x6af;" horiz-adv-x="637" arabic-form="initial" d="M465 810q-2 -27 -8 -63q-114 -61 -218 -153t-168 -196l-17 47q66 113 180.5 212.5t230.5 152.5zM187 347q34 -10 41 -13q24 -10 44 -22q89 -53 125 -112q33 -52 33 -116q0 -26 -7 -43q-11 -26 -26 -26h-405v83h417l-11 22q-15 31 -49 62.5t-76 54.5q-25 13 -45 18t-38 5 q-23 0 -38 -6l-15 -5q-8 8 -21 38t-14 46q27 48 89 119q70 79 154 145q84 67 155 99v-89q-58 -21 -126 -63q-59 -38 -114 -88q-44 -41 -81 -86l-14 -17z" />
<glyph unicode="&#x6af;" horiz-adv-x="637" arabic-form="medial" d="M422 814q-2 -27 -8 -63q-114 -61 -218 -153t-168 -196l-17 47q66 113 180.5 212.5t230.5 152.5zM341 136v-58q0 -32 -6.5 -45.5t-20.5 -13.5h-323v81h327l-4 18q-8 33 -32 62q-26 33 -65 53q-26 14 -46.5 19.5t-36.5 5.5t-23 -2l-19 -7q-7 9 -19 38t-13 45q26 51 81 117 q63 76 141 143q74 64 145 97v-92q-53 -22 -119 -66q-60 -40 -107 -84q-37 -35 -73 -78l-14 -17l20 -7q33 -12 55 -22q29 -14 33 -17q11 -9 82 -63q78 -61 131 -94q79 -49 118 -49h93v-81h-103q-31 0 -85 31q-44 26 -92 66z" />
<glyph unicode="&#x6ba;" horiz-adv-x="637" arabic-form="isolated" d="M519 78q-10 28 -28 63q-24 43 -23 49l21 70q20 -41 31 -74q16 -51 16 -92v-44q0 -42 -50 -78q-44 -32 -117 -53q-61 -17 -110 -17q-83 0 -123 40q-35 34 -35 91q0 65 21 130q-4 -28 -4 -47q0 -75 52 -107q39 -24 110 -24q77 0 150 24q69 22 88 48l5 7z" />
<glyph unicode="&#x6ba;" horiz-adv-x="637" arabic-form="final" d="M478 46l3 -40q0 -34 -8 -69q-14 -27 -49 -52q-29 -15 -70 -28q-35 -9 -79 -17q-60 -8 -107 -5q-44 9 -74 27q-26 25 -40 57q-11 56 0 120q13 50 34 97q-12 -55 -15 -100q4 -49 26 -82q18 -16 43 -27q27 -8 62 -11q44 0 98 6q33 5 95 24q30 15 56 36l9 12v10q-8 37 -21 69 l-17 29q-7 11 -17 24l31 76q15 -25 29 -44q23 -29 48 -44q23 -9 54 -13q32 -2 74 -3v-83h-82q-34 4 -59 17z" />
<glyph unicode="&#x6be;" horiz-adv-x="637" arabic-form="isolated" d="M204 141q-14 20 -19.5 31.5t-5.5 32.5q0 43 35 87q25 32 68 64l16 12l-44 33l53 82l31 -27q38 -34 89 -85q55 -55 79 -93q23 -37 40 -79q23 -56 23 -101v-60q0 -22 -21 -39t-48 -17q-35 0 -118 34q-66 27 -90 42l-9 5l-8 -6q-12 -9 -55 -24q-55 -19 -98 -19h-85l51 88h5 q29 0 57 4t47 12l18 7zM491 81q12 0 24.5 2t19.5 13l3 6l-2 6q-11 36 -35 74q-29 45 -62 68l-24 17v-29q0 -24 -9 -52.5t-25 -45.5l-14 -14l18 -9q32 -16 50 -23q34 -13 56 -13zM312 160q18 6 42 27q27 23 43 52l4 7l-4 7q-11 21 -30.5 38.5t-41.5 17.5q-21 0 -57 -22 q-31 -19 -56 -44l-11 -10l10 -11q16 -18 56 -43q21 -13 34 -19l5 -2z" />
<glyph unicode="&#x6be;" horiz-adv-x="637" arabic-form="final" d="M415 74q11 0 21 4.5t16 9.5q1 1 5 6v0l3 6l-2 6q-9 32 -34 73q-28 45 -57 67l-24 19v-31q0 -24 -8.5 -52t-23.5 -45l-13 -14l17 -9q38 -22 44 -25q33 -15 56 -15zM246 157q18 4 41 26q26 24 41 51l4 7l-4 7q-11 21 -29 38t-39 17t-55 -22q-28 -18 -52 -44l-9 -9l8 -11 q17 -19 53 -42q14 -8 30 -17l5 -3zM591 100h53v-85h-71q-10 0 -29.5 7.5t-34.5 18.5l-21 15l-3 -25q-2 -20 -21 -36t-47 -16t-98.5 31t-88.5 46l-9 7l-10 -8q-11 -9 -55 -24.5t-86 -15.5h-50l47 85q35 -1 74 16l17 8l-11 15q-13 18 -18 29.5t-5 32.5q0 72 96 147l15 12 l-41 33l49 78q38 -31 101 -97t83 -100q43 -75 63 -103q52 -71 101 -71z" />
<glyph unicode="&#x6be;" horiz-adv-x="637" arabic-form="initial" d="M204 141q-14 20 -19.5 31.5t-5.5 32.5q0 43 35 87q25 32 68 64l16 12l-44 33l53 82l31 -27q38 -34 89 -85q55 -55 79 -93q23 -37 40 -79q23 -56 23 -101v-60q0 -22 -21 -39t-48 -17q-35 0 -118 34q-66 27 -90 42l-9 5l-8 -6q-12 -9 -55 -24q-55 -19 -98 -19h-129v88h100 q29 0 57 4t47 12l18 7zM491 81q12 0 24.5 2t19.5 13l3 6l-2 6q-11 36 -35 74q-29 45 -62 68l-24 17v-29q0 -24 -9 -52.5t-25 -45.5l-14 -14l18 -9q32 -16 50 -23q34 -13 56 -13zM312 160q18 6 42 27q27 23 43 52l4 7l-4 7q-11 21 -30.5 38.5t-41.5 17.5q-21 0 -57 -22 q-31 -19 -56 -44l-11 -10l10 -11q16 -18 56 -43q21 -13 34 -19l5 -2z" />
<glyph unicode="&#x6be;" horiz-adv-x="637" arabic-form="medial" d="M415 74q11 0 21 4.5t16 9.5q1 1 5 6v0l3 6l-2 6q-9 32 -34 73q-28 45 -57 67l-24 19v-31q0 -24 -8.5 -52t-23.5 -45l-13 -14l17 -9q38 -22 44 -25q33 -15 56 -15zM246 157q18 4 41 26q26 24 41 51l4 7l-4 7q-11 21 -29 38t-39 17t-55 -22q-28 -18 -52 -44l-9 -9l8 -11 q17 -19 53 -42q14 -8 30 -17l5 -3zM591 100h53v-85h-71q-10 0 -29.5 7.5t-34.5 18.5l-21 15l-3 -25q-2 -20 -21 -36t-47 -16t-98.5 31t-88.5 46l-9 7l-10 -8q-11 -9 -55 -24.5t-86 -15.5h-78v85h51q61 0 98 16l17 8l-11 15q-13 18 -18 29.5t-5 32.5q0 72 96 147l15 12 l-41 33l49 78q38 -31 101 -97t83 -100q43 -75 63 -103q52 -71 101 -71z" />
<glyph unicode="&#x6d0;" horiz-adv-x="637" arabic-form="isolated" d="M281 -254l-62 60l57 58l62 -62zM285 -389l-62 62l58 57l61 -62zM364 176q16 -9 81 -26t65 -44v-46q0 -58 -47.5 -95.5t-112 -53.5t-116.5 -16q-87 0 -120.5 33t-32.5 108q1 47 20 110l15 -3q-13 -113 25 -140.5t100 -27.5t149 18q51 10 88 41l11 14l-12 13q-3 3 -68.5 20 t-77.5 31l-0.5 21.5t10.5 61.5q29 106 92 177q43 48 72 48t40 -9q20 -16 2 -93q-1 -7 -4 -16q-14 33 -45.5 33t-63.5 -27q-57 -49 -77 -115l-4 -11z" />
<glyph unicode="&#x6d0;" horiz-adv-x="637" arabic-form="final" d="M281 -422l-62 62l57 56l62 -60zM285 -556l-62 62l58 57l61 -62zM394 15l107 -50q22 -11 22 -33v-41q0 -46 -50 -82q-43 -31 -117 -49q-64 -17 -115 -17q-84 0 -124 38q-32 31 -32 88q0 55 9 88q7 28 19 56v0q-8 -35 -8 -56q0 -76 50 -108q37 -23 106 -23q65 0 133 16 q50 13 94 35l27 13l-28 14q-19 9 -68.5 26.5t-68.5 26.5t-22 13q1 21 15 51q13 26 26 41t51.5 25.5t96.5 10.5h130v-83h-253z" />
<glyph unicode="&#x6d0;" horiz-adv-x="637" arabic-form="initial" d="M281 -160l-62 62l57 56l62 -60zM285 -294l-62 62l58 57l61 -62zM417 97v-82h-424v83h392v15q0 38 -20 65l-24 34l25 75q15 -26 28 -63q23 -66 23 -127z" />
<glyph unicode="&#x6d0;" horiz-adv-x="637" arabic-form="medial" d="M281 -160l-62 62l57 56l62 -60zM285 -294l-62 62l58 57l61 -62zM-9 14v83l329 1v15q0 30 -23 70q-6 10 -17 28l27 69l9 -18q20 -41 26.5 -70.5t22.5 -50.5q31 -43 93 -43l186 -1v-83h-206q-20 0 -45 12q-21 10 -34 24l-26 30v-66h-342z" />
<glyph unicode="&#x6cc;" horiz-adv-x="637" arabic-form="isolated" d="M364 176q16 -9 81 -26t65 -44v-46q0 -58 -47.5 -95.5t-112 -53.5t-116.5 -16q-87 0 -120.5 33t-32.5 108q1 47 20 110l15 -3q-13 -113 25 -140.5t100 -27.5t149 18q51 10 88 41l11 14l-12 13q-3 3 -68.5 20t-77.5 31l-0.5 21.5t10.5 61.5q29 106 92 177q43 48 72 48 t40 -9q20 -16 2 -93q-1 -7 -4 -16q-14 33 -45.5 33t-63.5 -27q-57 -49 -77 -115l-4 -11z" />
<glyph unicode="&#x6cc;" horiz-adv-x="637" arabic-form="final" d="M394 15l107 -50q22 -11 22 -33v-41q0 -46 -50 -82q-43 -31 -117 -49q-64 -17 -115 -17q-84 0 -124 38q-32 31 -32 88q0 55 9 88q7 28 19 56v0q-8 -35 -8 -56q0 -76 50 -108q37 -23 106 -23q65 0 133 16q50 13 94 35l27 13l-28 14q-19 9 -68.5 26.5t-68.5 26.5t-22 13 q1 21 15 51q13 26 26 41t51.5 25.5t96.5 10.5h130v-83h-253z" />
<glyph unicode="&#x6cc;" horiz-adv-x="637" arabic-form="initial" d="M269 -141l-57 -57l-61 62l57 57zM453 -139l-57 -57l-62 61l57 58zM417 97v-82h-424v83h392v15q0 38 -20 65l-24 34l25 75q15 -26 28 -63q23 -66 23 -127z" />
<glyph unicode="&#x6cc;" horiz-adv-x="637" arabic-form="medial" d="M287 -139l-57 -57l-61 62l57 57zM471 -137l-57 -57l-62 61l57 58zM-9 14v83l329 1v15q0 30 -23 70q-6 10 -17 28l27 69l9 -18q20 -41 26.5 -70.5t22.5 -50.5q31 -43 93 -43l186 -1v-83h-206q-20 0 -45 12q-21 10 -34 24l-26 30v-66h-342z" />
<glyph unicode="&#x621;" horiz-adv-x="637" arabic-form="isolated" d="M242 88q17 -14 43.5 -22t63.5 -8q19 0 70 12q5 2 13 4l-31 -59q-9 -2 -35 -8q-41 -10 -76 -23q-22 -8 -33 -13l-63 -31l1 7q4 13 26 36q12 12 22 21l16 14l-19 10q-12 7 -16 10q-14 13 -14 30q0 42 41 94q42 53 85 53q22 0 45 -14q2 -2 10 -9l-30 -49q-3 1 -8 2 q-3 0 -4 1q-30 7 -49 7q-11 0 -30 -15l-1 -1v0l-39 -39z" />
<glyph unicode="&#x622;" horiz-adv-x="637" arabic-form="isolated" d="M444 740q-1 -3 -19 -67l-18 -65q0 9 -2 32q-3 22 -6 31q-38 -30 -89 -41q-32 -7 -72 -7h-14h-5q-3 -4 -11 -24q-3 -7 -8 -20q-1 1 -4 1q-3 1 -4 1q-4 0 -5 -2v134q17 -12 42 -18q24 -6 50 -6q36 0 80 15q42 18 85 36zM368 8l-29 -20q-2 33 -8 89q-8 78 -27 205 q-18 117 -32 185l44 81q19 -51 32 -156q12 -98 17 -243q3 -81 3 -141z" />
<glyph unicode="&#x622;" horiz-adv-x="637" arabic-form="final" d="M387 770q-1 -3 -19 -67l-18 -65q0 9 -2 32q-3 22 -6 31q-38 -30 -89 -41q-32 -7 -72 -7h-14h-5q-3 -4 -11 -24q-3 -7 -8 -20q-1 1 -4 1q-3 1 -4 1q-4 0 -5 -2v134q17 -12 42 -18q24 -6 50 -6q36 0 80 15q42 18 85 36zM656 14h-331q-9 0 -14 5q-9 9 -10 21l-17 145 q-10 85 -25 176q-14 84 -25 113l19 53q7 20 15 38q8 -37 17 -106q10 -78 20 -204q0 -4 3 -45t5 -62q3 -28 19 -42q12 -9 33 -9h291v-83z" />
<glyph unicode="&#x623;" horiz-adv-x="637" arabic-form="isolated" d="M376 602q-1 0 -28 -14q-39 -21 -58 -33q-35 -21 -49 -36v17q0 9 10 31q3 8 10 21q-11 5 -16 14q-10 13 -10 32q0 35 31 81q34 50 68 50q15 0 22 -10t7 -25q0 -13 -5 -26t-10 -16q-4 5 -8 7q-8 7 -19 7q-14 0 -37 -17t-23 -31q0 -8 19.5 -14t36.5 -6q15 0 45 16 q18 10 36 21zM387 8l-19 -21q-2 37 -7 83q-10 93 -27 194q-19 110 -43 178l44 81q20 -50 32 -149q12 -93 17 -233q3 -77 3 -133z" />
<glyph unicode="&#x623;" horiz-adv-x="637" arabic-form="final" d="M329 614q-1 0 -28 -14q-39 -21 -59 -33q-34 -21 -49 -36v17q1 9 11 31q3 8 10 22q-11 4 -17 13q-9 13 -9 32q0 35 31 81q34 50 68 50q15 0 22 -9.5t7 -25.5q0 -13 -5 -26t-11 -16q-4 5 -7 7q-9 7 -19 7q-15 0 -37.5 -17t-22.5 -31q0 -7 19.5 -13.5t36.5 -6.5q15 0 45 17 q18 9 35 20zM639 16l-302 -1q-10 0 -15 5q-9 9 -10 21q-7 64 -16 134q-10 78 -23 156q-13 74 -22 98l18 54q8 22 15 38q9 -35 16 -94q12 -96 18 -183q5 -77 7 -95q3 -29 18 -42q12 -9 33 -9h263v-82z" />
<glyph unicode="&#x624;" horiz-adv-x="637" arabic-form="isolated" d="M352 391l-28 -14q-38 -21 -58 -33q-35 -21 -49 -36v17q0 9 10 31q3 8 10 22q-11 4 -16 13q-10 13 -10 32q0 35 31 81q34 50 68 50q15 0 22 -10q7 -9 7 -25q0 -13 -5 -26t-10 -16q-4 5 -8 7q-8 7 -18 7q-15 0 -38 -17t-23 -31q0 -7 20 -13q19 -7 37 -7q14 0 44 17 q18 9 36 20zM425 50h-113q-5 0 -10 1q-4 1 -9 3q-7 6 -11 15q-4 14 -6.5 28.5t-3.5 29.5q0 28 5 55q6 28 15 55q11 28 29 52q8 8 16 13q10 4 20 5q10 -1 19 -5q8 -5 16 -11q18 -22 31 -49q12 -29 20 -59q8 -39 9 -78v-50q-2 -52 -13 -103q-14 -47 -37 -89q-26 -35 -60 -62 q-37 -19 -79 -20q-16 3 -31 8q-19 10 -35 25q41 15 79 35q37 22 71 48q36 31 63 69q7 16 12 32q3 18 3 35v17zM300 180q-4 -10 -6 -21v-10q1 -6 3 -11q3 -3 6 -5q4 -1 8 -1h114q-1 11 -3 21q-5 13 -12 24q-10 13 -22 24q-12 10 -25 18q-9 4 -19 5q-9 -1 -17 -5 q-7 -6 -12 -13q-9 -12 -15 -26z" />
<glyph unicode="&#x624;" horiz-adv-x="637" arabic-form="final" d="M290 362l-28 -14q-38 -20 -58 -32q-35 -22 -49 -37v17q0 10 10 32q3 7 10 21q-11 5 -16 13q-10 13 -10 33q0 35 31 81q34 50 68 50q15 0 22 -10t7 -26q0 -13 -5 -25q-5 -13 -10 -17q-4 5 -8 8q-8 7 -19 7q-14 0 -37 -18q-23 -17 -23 -30q0 -8 20 -14q19 -6 37 -6 q14 0 44 16l36 20zM642 15h-213v-15q0 -101 -51.5 -177.5t-137.5 -76.5q-30 0 -66 33q84 29 151 83q76 61 86 136l2 17h-124q-40 0 -40 77q0 55 20 110q26 70 65 70q30 0 57 -48t35 -113l2 -13h214v-83zM260 124q4 -26 28 -26h121l-11 22q-12 24 -33 46.5t-45 22.5 q-20 0 -38 -17q-14 -13 -22 -48z" />
<glyph unicode="&#x625;" horiz-adv-x="637" arabic-form="isolated" d="M379 -246q-1 0 -28 -15q-39 -21 -59 -33q-34 -21 -49 -35v17q2 9 11 30q3 8 10 22q-10 5 -17 14q-9 13 -9 32q0 34 32 80q34 50 67 50q15 0 22 -9q7 -10 7 -25q0 -13 -5 -26q-4 -14 -11 -16q-4 5 -6 6q-9 7 -20 7q-15 0 -37 -17q-23 -16 -23 -31q0 -7 20 -13t36 -6t45 16 q18 10 36 21zM348 8l-29 -20q-2 33 -8 89q-8 78 -27 205q-18 117 -32 185l44 81q19 -51 32 -156q12 -98 17 -243q3 -81 3 -141z" />
<glyph unicode="&#x625;" horiz-adv-x="637" arabic-form="final" d="M385 -219q-1 0 -29 -14q-38 -21 -58 -33q-34 -21 -49 -36v17q1 9 11 31q3 8 10 21q-11 5 -17 14q-9 13 -9 32q0 35 31 81q34 50 68 50q15 0 22 -10t7 -25q0 -13 -5 -26t-11 -16q-4 5 -7 7q-9 7 -19 7q-15 0 -37.5 -17t-22.5 -31q0 -8 19.5 -14t36.5 -6q15 0 45 16 q18 11 35 21zM638 15h-323q-9 0 -14 5q-9 9 -10 21l-17 145q-11 86 -25 177q-13 81 -25 112l19 53q9 22 15 38q8 -36 17 -106q12 -95 21 -204q1 -16 3.5 -51.5t4.5 -54.5q3 -30 19 -43q12 -9 32 -9h283v-83z" />
<glyph unicode="&#x626;" horiz-adv-x="637" arabic-form="isolated" d="M228 340l-28 -15q-38 -21 -59 -33q-34 -21 -49 -35v17q2 9 11 30q3 8 10 22q-10 5 -17 14q-9 13 -9 32q0 35 32 80q34 50 67 50q15 0 22 -9q7 -10 7 -25q0 -13 -5 -27q-4 -13 -11 -15q-4 5 -6 6q-10 8 -19 8q-16 0 -38 -17q-23 -17 -23 -32q0 -7 20 -13t37 -6q15 0 44 16 l36 20zM364 176q16 -9 81 -26t65 -44v-46q0 -58 -47.5 -95.5t-112 -53.5t-116.5 -16q-87 0 -120.5 33t-32.5 108q1 47 20 110l15 -3q-13 -113 25 -140.5t100 -27.5t149 18q51 10 88 41l11 14l-12 13q-3 3 -68.5 20t-77.5 31l-0.5 21.5t10.5 61.5q29 106 92 177q43 48 72 48 t40 -9q20 -16 2 -93q-1 -7 -4 -16q-14 33 -45.5 33t-63.5 -27q-57 -49 -77 -115l-4 -11z" />
<glyph unicode="&#x626;" horiz-adv-x="637" arabic-form="final" d="M207 195q-1 0 -28 -15q-39 -21 -59 -33q-35 -21 -49 -35v17q1 9 10 30q3 8 11 22q-11 5 -17 14q-10 13 -10 32q0 35 32 81q34 49 67 49q15 0 22 -9q7 -10 7 -25q0 -14 -4 -27q-5 -13 -11 -16q-4 6 -7 7q-9 8 -19 8q-15 0 -38 -17q-22 -17 -22 -32q0 -7 19 -13 q20 -6 37 -6q15 0 44 16l37 20zM389 15l107 -50q22 -11 22 -33v-41q0 -46 -50 -82q-43 -31 -117 -49q-64 -17 -115 -17q-84 0 -124 38q-32 31 -32 88q0 55 9 88q7 28 19 56v0q-8 -35 -8 -56q0 -76 50 -108q37 -23 106 -23q65 0 133 16q50 13 94 35l27 13l-28 14 q-19 9 -68.5 26.5t-68.5 26.5t-22 13q1 21 15 51q13 26 26 41t51.5 25.5t96.5 10.5h130v-83h-253z" />
<glyph unicode="&#x626;" horiz-adv-x="637" arabic-form="initial" d="M373 386q-1 0 -29 -15q-38 -20 -58 -32q-35 -22 -49 -36v17q1 9 10 31q3 7 11 22q-11 5 -17 13q-9 13 -9 33q0 34 31 80q34 50 68 50q14 0 21.5 -9.5t7.5 -25.5q0 -13 -5 -26t-11 -16q-4 5 -7 7q-9 7 -19 7q-15 0 -37.5 -17t-22.5 -31q0 -7 19.5 -13t36.5 -6q15 0 44 16 q19 9 36 20zM404 97v-82h-416v83h384v15q0 32 -20 65q-7 10 -25 35l25 74q16 -27 29 -63q23 -65 23 -127z" />
<glyph unicode="&#x626;" horiz-adv-x="637" arabic-form="medial" d="M373 386q-1 0 -29 -15q-38 -20 -58 -32q-35 -22 -49 -36v17q1 9 10 31q3 7 11 22q-11 5 -17 13q-9 13 -9 33q0 34 31 80q34 50 68 50q14 0 21.5 -9.5t7.5 -25.5q0 -13 -5 -26t-11 -16q-4 5 -7 7q-9 7 -19 7q-15 0 -37.5 -17t-22.5 -31q0 -7 19.5 -13t36.5 -6q15 0 44 16 q19 9 36 20zM247 334zM-10 15v83h330v15q0 30 -23 70q-6 10 -17 28l27 69l9 -18q20 -41 26.5 -70t22.5 -51q31 -43 90 -43h3h187v-82l-207 -1q-22 0 -45 11q-21 10 -34 24l-26 30v-65h-343z" />
<glyph unicode="&#x627;" horiz-adv-x="637" arabic-form="isolated" d="M367 8l-29 -20q-2 33 -8 89q-8 78 -27 205q-18 117 -32 185l44 81q19 -51 32 -156q12 -98 17 -243q3 -81 3 -141z" />
<glyph unicode="&#x627;" horiz-adv-x="637" arabic-form="final" d="M646 15h-331q-9 0 -14 5q-9 9 -10 21l-17 145q-10 85 -25 176q-14 84 -25 113l19 53q7 20 15 38q8 -37 17 -106q10 -78 20 -204q0 -4 3 -45t5 -62q3 -28 19 -42q12 -9 33 -9h291v-83z" />
<glyph unicode="&#x628;" horiz-adv-x="637" arabic-form="isolated" d="M367 -110l-57 -56l-62 61l57 57zM155 15q-56 0 -86 25q-35 30 -35 90q0 38 21 89q12 29 26 49q-24 -49 -24 -81q0 -40 25 -62q30 -27 94 -27h395v15q0 31 -19 64v1h-1l-24 34l25 75q15 -26 28 -63q23 -66 23 -127v-82h-448z" />
<glyph unicode="&#x628;" horiz-adv-x="637" arabic-form="final" d="M362 -111l-56 -56l-62 61l57 57zM139 15q-58 0 -85 24q-30 27 -30 87q0 33 25 89q12 27 24 46q-19 -45 -19 -74q0 -41 22 -62q27 -27 91 -27h352v15q0 30 -23 70q-6 10 -17 28l27 69l9 -18q20 -41 26.5 -69.5t23.5 -51.5q32 -43 67 -43h7v-83h-26q-20 0 -30.5 9.5 t-22.5 24.5l-27 33v-67h-394z" />
<glyph unicode="&#x628;" horiz-adv-x="637" arabic-form="initial" d="M433 -106l-56 -56l-62 61l57 57zM404 97v-82h-412v83h380v15q0 32 -20 65q-7 10 -25 35l25 74q16 -27 29 -63q23 -65 23 -127z" />
<glyph unicode="&#x628;" horiz-adv-x="637" arabic-form="medial" d="M365 -110l-56 -56l-62 61l57 57zM-7 15v83h327v15q0 30 -23 70q-6 10 -17 28l27 69l9 -18q20 -41 26.5 -70.5t22.5 -50.5q32 -43 93 -43h185v-83h-205q-22 0 -44.5 10.5t-34.5 24.5l-26 30v-65h-340z" />
<glyph unicode="&#x629;" horiz-adv-x="637" arabic-form="isolated" d="M318 525l-57 -57l-61 62l57 57zM502 527l-57 -57l-62 61l57 58zM353 419q86 -172 86 -273.5t-26 -132t-92 -30.5q-132 0 -132 85q0 77 76 177q26 33 56 63l14 14l-39 39zM328 82q95 -4 81 64q-19 94 -74 85t-92 -99q-7 -45 85 -50z" />
<glyph unicode="&#x629;" horiz-adv-x="637" arabic-form="final" d="M205 487l-57 -57l-61 62l57 57zM389 489l-57 -57l-62 61l57 58zM644 16l-177 -1q-36 0 -60 33q-20 28 -20 56q0 12 -7 13.5t-9 1.5q-9 0 -13 -9q-7 -19 -28 -35q-26 -22 -52 -22q-33 0 -63.5 32t-30.5 66q0 25 23 57q20 27 55 56q25 21 56 43l11 7l-18 39l42 41 q8 -21 19 -59q14 -53 21 -99q12 -71 29 -98q26 -40 79 -40h3h140v-82zM288 138q27 0 50 12q17 9 31 25l4 4v6q0 16 -14.5 35.5t-26.5 22.5q-3 1 -6 1h-1q-27 0 -60 -18.5t-44 -35.5l-7 -11l10 -8q14 -12 31.5 -22.5t32.5 -10.5z" />
<glyph unicode="&#x62a;" horiz-adv-x="637" arabic-form="isolated" d="M285 305l-57 -57l-61 62l57 57zM469 307l-57 -57l-62 61l57 58zM155 15q-56 0 -86 25q-35 30 -35 90q0 38 21 89q12 29 26 49q-24 -49 -24 -81q0 -40 25 -62q30 -27 94 -27h395v15q0 31 -19 64v1h-1l-24 34l25 75q15 -26 28 -63q23 -66 23 -127v-82h-448z" />
<glyph unicode="&#x62a;" horiz-adv-x="637" arabic-form="final" d="M271 305l-57 -57l-61 62l57 57zM455 307l-57 -57l-62 61l57 58zM139 15q-58 0 -85 24q-30 27 -30 87q0 33 25 89q12 27 24 46q-19 -45 -19 -74q0 -41 22 -62q27 -27 91 -27h352v15q0 30 -23 70q-6 10 -17 28l27 69l9 -18q20 -41 26.5 -69.5t23.5 -51.5q32 -43 67 -43h7 v-83h-26q-20 0 -30.5 9.5t-22.5 24.5l-27 33v-67h-394z" />
<glyph unicode="&#x62a;" horiz-adv-x="637" arabic-form="initial" d="M285 395l-57 -57l-61 62l57 57zM469 397l-57 -57l-62 61l57 58zM380 97v-82h-389v83h357v15q0 32 -20 65q-7 10 -25 35l25 74q16 -27 29 -63q23 -65 23 -127z" />
<glyph unicode="&#x62a;" horiz-adv-x="637" arabic-form="medial" d="M275 391l-57 -57l-61 62l57 57zM459 393l-57 -57l-62 61l57 58zM-8 16v82h328v15q0 30 -23 70q-6 10 -17 28l27 69l9 -18q20 -41 26.5 -70.5t22.5 -50.5q32 -43 93 -43h184v-83h-204q-22 0 -44.5 10.5t-34.5 24.5l-26 30v-65z" />
<glyph unicode="&#x62b;" horiz-adv-x="637" arabic-form="isolated" d="M286 307l-57 -57l-61 62l57 57zM470 309l-57 -57l-62 61l57 58zM374 424l-56 -57l-62 62l57 57zM155 15q-56 0 -86 25q-35 30 -35 90q0 38 21 89q12 29 26 49q-24 -49 -24 -81q0 -40 25 -62q30 -27 94 -27h395v15q0 31 -19 64v1h-1l-24 34l25 75q15 -26 28 -63 q23 -66 23 -127v-82h-448z" />
<glyph unicode="&#x62b;" horiz-adv-x="637" arabic-form="final" d="M250 304l-57 -57l-61 62l57 57zM434 306l-57 -57l-62 61l57 58zM338 421l-56 -57l-62 62l57 57zM139 15q-58 0 -85 24q-30 27 -30 87q0 33 25 89q12 27 24 46q-19 -45 -19 -74q0 -41 22 -62q27 -27 91 -27h352v15q0 30 -23 70q-6 10 -17 28l27 69l9 -18 q20 -41 26.5 -69.5t23.5 -51.5q32 -43 67 -43h7v-83h-26q-20 0 -30.5 9.5t-22.5 24.5l-27 33v-67h-394z" />
<glyph unicode="&#x62b;" horiz-adv-x="637" arabic-form="initial" d="M285 384l-57 -57l-61 62l57 57zM469 386l-57 -57l-62 61l57 58zM373 501l-56 -57l-62 62l57 57zM380 97v-82l-386 1v82h354v15q0 32 -20 65q-7 10 -25 35l25 74q16 -27 29 -63q23 -65 23 -127z" />
<glyph unicode="&#x62b;" horiz-adv-x="637" arabic-form="medial" d="M270 378l-57 -57l-61 62l57 57zM454 380l-57 -57l-62 61l57 58zM358 495l-56 -57l-62 62l57 57zM-7 15v83h327v15q0 30 -23 70q-6 10 -17 28l27 69l9 -18q20 -41 26.5 -70t22.5 -51q31 -43 90 -43h3h186v-82l-206 -1q-22 0 -45 11q-21 10 -34 24l-26 30v-65h-340z" />
<glyph unicode="&#x62c;" horiz-adv-x="637" arabic-form="isolated" d="M368 -104l-57 -56l-61 61l57 57zM301 147q-29 27 -59 46q-39 25 -68 25q-18 0 -38 -12q-3 -3 -6 -5q5 17 9 29q25 67 62 67q29 0 69 -37l80 -75q48 -45 99 -45h60l-40 -78h-131q-83 0 -144.5 -46.5t-61.5 -108.5q0 -64 78 -118t184 -54h115q-40 -34 -73.5 -58t-51.5 -24 q-119 0 -196 53q-85 59 -85 164q0 54 30.5 115.5t76.5 95.5q9 7 29 16q26 12 57 25l23 9z" />
<glyph unicode="&#x62c;" horiz-adv-x="637" arabic-form="final" d="M383 -35l-57 -57l-62 62l57 57zM388 140l-39 -1q-85 -2 -144 -47q-62 -46 -62 -108q0 -64 78 -118t184 -54h115q-40 -34 -73.5 -58t-51.5 -24q-119 0 -196 53q-85 59 -85 164q0 54 30.5 115.5t76.5 95.5q9 7 29 16q26 12 57 25l23 9l-18 16q-29 27 -59 46q-39 25 -68 25 q-18 0 -38 -12q-3 -3 -6 -5q5 17 9 29q25 67 62 67q29 0 69 -37l80 -75q48 -45 99 -45h60l-40 -78h-82l1 -7q2 -17 19 -24q25 -10 83 -10h144v-83h-161q-44 0 -73 45q-17 26 -23 80z" />
<glyph unicode="&#x62c;" horiz-adv-x="637" arabic-form="initial" d="M361 -105l-57 -57l-61 61l57 57zM365 199q-38 31 -73 47.5t-64 16.5q-25 0 -53 -20l28 64q23 35 47 35q28 0 53 -16q34 -21 96 -79q52 -49 90 -60q19 -6 72 -7l-20 -77h-143q-51 0 -100 -25l-83 -41q-44 -22 -91 -22h-130v83h121q44 0 92 15q34 10 85 31l92 39z" />
<glyph unicode="&#x62c;" horiz-adv-x="637" arabic-form="medial" d="M361 -106l-57 -57l-61 61l57 57zM347 234q-42 31 -54 39q-36 21 -67 21q-20 0 -46 -20q-8 -6 -16 -13l29 79q22 41 43 41q12 0 40 -15q11 -6 49 -39q34 -28 71 -51q38 -24 80 -33t87 -11l-19 -77h-43v-15v-7q2 -16 15 -24q18 -11 50 -11h78v-83h-90q-35 0 -51 17 q-12 13 -12 37q-1 28 -1 33v2q0 26 1 33v18h-63q-60 0 -121 -38l-109 -68q-54 -34 -119 -34h-85v83h72q57 0 112 23q26 11 90 49q49 30 75 38l27 9z" />
<glyph unicode="&#x62d;" horiz-adv-x="637" arabic-form="isolated" d="M301 147q-29 27 -59 46q-39 25 -68 25q-18 0 -38 -12q-3 -3 -6 -5q5 17 9 29q25 67 62 67q29 0 69 -37l80 -75q48 -45 99 -45h60l-40 -78h-131q-83 0 -144.5 -46.5t-61.5 -108.5q0 -64 78 -118t184 -54h115q-40 -34 -73.5 -58t-51.5 -24q-119 0 -196 53q-85 59 -85 164 q0 54 30.5 115.5t76.5 95.5q9 7 29 16q26 12 57 25l23 9z" />
<glyph unicode="&#x62d;" horiz-adv-x="637" arabic-form="final" d="M388 140l-39 -1q-85 -2 -144 -47q-62 -46 -62 -108q0 -64 78 -118t184 -54h115q-40 -34 -73.5 -58t-51.5 -24q-119 0 -196 53q-85 59 -85 164q0 54 30.5 115.5t76.5 95.5q9 7 29 16q26 12 57 25l23 9l-18 16q-29 27 -59 46q-39 25 -68 25q-18 0 -38 -12q-3 -3 -6 -5 q5 17 9 29q25 67 62 67q29 0 69 -37l80 -75q48 -45 99 -45h60l-40 -78h-82l1 -7q2 -17 19 -24q25 -10 83 -10h144v-83h-161q-44 0 -73 45q-17 26 -23 80z" />
<glyph unicode="&#x62d;" horiz-adv-x="637" arabic-form="initial" d="M365 199q-38 31 -73 47.5t-64 16.5q-25 0 -53 -20l28 64q23 35 47 35q28 0 53 -16q34 -21 96 -79q52 -49 90 -60q19 -6 72 -7l-20 -77h-143q-51 0 -100 -25l-83 -41q-44 -22 -91 -22h-130v83h121q44 0 92 15q34 10 85 31l92 39z" />
<glyph unicode="&#x62d;" horiz-adv-x="637" arabic-form="medial" d="M347 234q-42 31 -54 39q-36 21 -67 21q-20 0 -46 -20q-8 -6 -16 -13l29 79q22 41 43 41q12 0 40 -15q11 -6 49 -39q34 -28 71 -51q38 -24 80 -33t87 -11l-19 -77h-43v-15v-7q2 -16 15 -24q18 -11 50 -11h78v-83h-90q-35 0 -51 17q-12 13 -12 37q-1 28 -1 33v2q0 26 1 33 v18h-63q-60 0 -121 -38l-109 -68q-54 -34 -119 -34h-85v83h72q57 0 112 23q26 11 90 49q49 30 75 38l27 9z" />
<glyph unicode="&#x62e;" horiz-adv-x="637" arabic-form="isolated" d="M263 458l-57 -57l-61 61l57 57zM301 147q-29 27 -59 46q-39 25 -68 25q-18 0 -38 -12q-3 -3 -6 -5q5 17 9 29q25 67 62 67q29 0 69 -37l80 -75q48 -45 99 -45h60l-40 -78h-131q-83 0 -144.5 -46.5t-61.5 -108.5q0 -64 78 -118t184 -54h115q-40 -34 -73.5 -58t-51.5 -24 q-119 0 -196 53q-85 59 -85 164q0 54 30.5 115.5t76.5 95.5q9 7 29 16q26 12 57 25l23 9z" />
<glyph unicode="&#x62e;" horiz-adv-x="637" arabic-form="final" d="M265 535l-57 -57l-61 61l57 57zM388 140l-39 -1q-85 -2 -144 -47q-62 -46 -62 -108q0 -64 78 -118t184 -54h115q-40 -34 -73.5 -58t-51.5 -24q-119 0 -196 53q-85 59 -85 164q0 54 30.5 115.5t76.5 95.5q9 7 29 16q26 12 57 25l23 9l-18 16q-29 27 -59 46q-39 25 -68 25 q-18 0 -38 -12q-3 -3 -6 -5q5 17 9 29q25 67 62 67q29 0 69 -37l80 -75q48 -45 99 -45h60l-40 -78h-82l1 -7q2 -17 19 -24q25 -10 83 -10h144v-83h-161q-44 0 -73 45q-17 26 -23 80z" />
<glyph unicode="&#x62e;" horiz-adv-x="637" arabic-form="initial" d="M214 507l-57 -57l-62 61l57 57zM365 199q-38 31 -73 47.5t-64 16.5q-25 0 -53 -20l28 64q23 35 47 35q28 0 53 -16q34 -21 96 -79q52 -49 90 -60q19 -6 72 -7l-20 -77h-143q-51 0 -100 -25l-83 -41q-44 -22 -91 -22h-130v83h121q44 0 92 15q34 10 85 31l92 39z" />
<glyph unicode="&#x62e;" horiz-adv-x="637" arabic-form="medial" d="M200 544l-57 -57l-62 61l57 57zM347 234q-42 31 -54 39q-36 21 -67 21q-20 0 -46 -20q-8 -6 -16 -13l29 79q22 41 43 41q12 0 40 -15q11 -6 49 -39q34 -28 71 -51q38 -24 80 -33t87 -11l-19 -77h-43v-15v-7q2 -16 15 -24q18 -11 50 -11h78v-83h-90q-35 0 -51 17 q-12 13 -12 37q-1 28 -1 33v2q0 26 1 33v18h-63q-60 0 -121 -38l-109 -68q-54 -34 -119 -34h-85v83h72q57 0 112 23q26 11 90 49q49 30 75 38l27 9z" />
<glyph unicode="&#x62f;" horiz-adv-x="637" arabic-form="isolated" d="M453 77q0 -14 -1 -27q-2 -10 -5 -19q-4 -7 -9 -12q-4 -2 -8 -3t-8 -1h-209q-3 0 -7 1q-3 1 -5 4q-6 6 -10 14q-3 11 -5 24q-2 14 -2 28v6v14q1 5 2 9l5 20l1 -2q7 -8 14 -15q8 -6 17 -11q8 -4 16 -7q9 -2 18 -2h126q2 0 4 0.5t4 0.5l6 2l6 4q4 4 8 7q4 5 7 11q3 11 2 23 q-3 14 -9 28q-14 25 -31 46q-21 21 -42 41q-15 15 -28 30l9 96q11 -10 22 -19l19 -19q13 -14 25 -29q11 -14 21 -29q12 -21 21 -43q9 -27 15 -55q5 -28 8 -56q3 -26 3 -51v-9z" />
<glyph unicode="&#x62f;" horiz-adv-x="637" arabic-form="final" d="M375 42q0 -10 -5 -18.5t-12 -8.5h-204q-1 0 -4 1t-12.5 17t-9.5 41q0 30 4 48q18 -24 45 -24h140q21 0 34 10.5t13 31t-30 67t-86 88.5l11 92q23 -22 44 -48q38 -46 67 -112t43.5 -85.5t35.5 -31.5t38 -12h146v-83h-162q-47 0 -68 35l-28 46v-54z" />
<glyph unicode="&#x630;" horiz-adv-x="637" arabic-form="isolated" d="M331 543l-57 -57l-62 61l58 57zM453 77q0 -14 -1 -27q-2 -10 -5 -19q-4 -7 -9 -12q-4 -2 -8 -3t-8 -1h-209q-3 0 -7 1q-3 1 -5 4q-6 6 -10 14q-3 11 -5 24q-2 14 -2 28v6v14q1 5 2 9l5 20l1 -2q7 -8 14 -15q8 -6 17 -11q8 -4 16 -7q9 -2 18 -2h126q2 0 4 0.5t4 0.5l6 2 l6 4q4 4 8 7q4 5 7 11q3 11 2 23q-3 14 -9 28q-14 25 -31 46q-21 21 -42 41q-15 15 -28 30l9 96q11 -10 22 -19l19 -19q13 -14 25 -29q11 -14 21 -29q12 -21 21 -43q9 -27 15 -55q5 -28 8 -56q3 -26 3 -51v-9z" />
<glyph unicode="&#x630;" horiz-adv-x="637" arabic-form="final" d="M207 522l-57 -57l-61 61l57 57zM375 42q0 -10 -5 -18.5t-12 -8.5h-204q-1 0 -4 1t-12.5 17t-9.5 41q0 30 4 48q18 -24 45 -24h140q21 0 34 10.5t13 31t-30 67t-86 88.5l11 92q23 -22 44 -48q38 -46 67 -112t43.5 -85.5t35.5 -31.5t38 -12h146v-83h-162q-47 0 -68 35 l-28 46v-54z" />
<glyph unicode="&#x631;" horiz-adv-x="637" arabic-form="isolated" d="M260 -234q-9 1 -19 3q-10 4 -20 9q-10 6 -19 12q-7 6 -15 11q46 18 89 43q34 24 66 51q45 42 80 93q11 27 14 55v7q-2 14 -6 28q-7 21 -19 40q-12 18 -25 35l-14 18l34 101l2 -3q11 -20 20 -41q8 -20 16 -42q9 -30 14 -61q4 -31 5 -62q-1 -32 -6 -63q-7 -33 -18 -65 q-13 -33 -31 -65q-18 -28 -40 -53q-23 -22 -51 -38q-26 -11 -53 -13h-4z" />
<glyph unicode="&#x631;" horiz-adv-x="637" arabic-form="final" d="M635 15h-151q-17 0 -30 8q-10 6 -12 8l-18 23v-30q0 -59 -30 -133q-29 -76 -71 -117q-49 -50 -109 -50q-18 0 -39 12t-34 23q100 33 175 100q91 80 91 159q0 34 -31 82q-9 14 -25 33l36 92q15 -34 24 -50q30 -50 59 -62q39 -16 130 -16h35v-82z" />
<glyph unicode="&#x632;" horiz-adv-x="637" arabic-form="isolated" d="M373 412l-47 -47l-55 56l47 46zM260 -234q-9 1 -19 3q-10 4 -20 9q-10 6 -19 12q-7 6 -15 11q46 18 89 43q34 24 66 51q45 42 80 93q11 27 14 55v7q-2 14 -6 28q-7 21 -19 40q-12 18 -25 35l-14 18l34 101l2 -3q11 -20 20 -41q8 -20 16 -42q9 -30 14 -61q4 -31 5 -62 q-1 -32 -6 -63q-7 -33 -18 -65q-13 -33 -31 -65q-18 -28 -40 -53q-23 -22 -51 -38q-26 -11 -53 -13h-4z" />
<glyph unicode="&#x632;" horiz-adv-x="637" arabic-form="final" d="M320 353l-47 -46l-56 55l47 47zM635 15h-151q-17 0 -30 8q-10 6 -12 8l-18 23v-30q0 -59 -30 -133q-29 -76 -71 -117q-49 -50 -109 -50q-18 0 -39 12t-34 23q100 33 175 100q91 80 91 159q0 34 -31 82q-9 14 -25 33l36 92q15 -34 24 -50q30 -50 59 -62q39 -16 130 -16h35 v-82z" />
<glyph unicode="&#x633;" horiz-adv-x="637" arabic-form="isolated" d="M370 112q21 1 40 10q19 12 34 29q8 11 15 24q7 14 13 29q6 -16 13 -30q7 -12 15 -24q14 -15 30 -26q15 -7 31 -9h5q2 0 5 1q12 3 21 11q4 5 6 10q1 6 1 12v1v3.5t-1 2.5v1.5v0.5q-3 8 -7 16q-6 10 -13 19l-6 8t-7 7l27 65q6 -12 10 -24q4 -11 7 -22q5 -22 9 -44 q2 -26 2 -52q-1 -21 -4 -42q-4 -14 -10 -26q-9 -11 -20 -21q-4 -3 -8 -5q-5 -1 -10 -1h-8q-8 0 -15 2q-8 2 -16 5q-14 7 -26 16q-11 12 -20 26l-14 24l-13 -26q-4 -8 -10 -16q-8 -8 -17 -16q-11 -9 -23 -15q-16 -7 -33 -9q-22 -1 -43 4v-36q0 -22 -4 -43q-6 -21 -15 -41 q-12 -24 -27 -45q-18 -20 -40 -36q-16 -11 -34 -20q-13 -5 -27 -8q-16 -3 -33 -4h-1h-3q-25 2 -48 11q-23 13 -41 33q-15 23 -24 49q-8 34 -8 69q2 22 5 43q7 27 17 53l7 -7q-9 -26 -10 -54q3 -21 10 -40q15 -26 36 -47q17 -12 36 -20q22 -6 46 -7h0.5h0.5q11 0 22 2 q13 3 26 7q16 7 32 15q13 7 24 16q10 11 18 23q8 14 15 28l1 3v3q0 21 -5 41q-11 26 -28 49q-6 9 -12 17q-8 10 -17 20l34 82q5 -9 11 -18q7 -9 14 -17q15 -17 33 -30q14 -7 29 -10z" />
<glyph unicode="&#x633;" horiz-adv-x="637" arabic-form="final" d="M537 115q37 0 37 35q0 21 -20 43l-14 15l22 59q36 -52 41 -117q4 -52 33 -52h13v-83h-15q-11 7 -22 43q-3 14 -14.5 14t-16.5 -10q-13 -22 -39 -26h-6q-15 0 -37 9.5t-40 39.5l-14 23l-12 -24q-9 -17 -30 -35t-35 -18h-38v-36q0 -64 -54 -132q-31 -39 -61 -51 q-35 -14 -69 -14q-52 0 -86.5 41.5t-34.5 120.5q0 38 22 96q-5 -26 -5 -43q0 -64 48 -105q31 -27 83 -27q58 0 113 49q16 14 29 44v3q0 52 -66 128l34 82q10 -19 34 -45q27 -30 49 -30t53 39q17 21 29 53q12 -32 28 -53q29 -36 61 -36z" />
<glyph unicode="&#x633;" horiz-adv-x="637" arabic-form="initial" d="M572 112q-1 -17 -3 -34q-4 -21 -13 -40q-9 -12 -22 -19q-9 -3 -19 -4h-3q-12 0 -23 3t-21 8q-10 8 -18 17q-10 12 -19 26l-13 19l-12 -19q-7 -9 -15 -18q-8 -8 -17 -15q-14 -10 -30 -16q-17 -4 -35 -5h-1q-18 1 -35 5q-13 5 -24 14q-6 7 -10 16q-5 11 -9 22l-6 24 l-18 -17q-14 -12 -28 -22q-17 -11 -34 -21q-19 -9 -38 -16q-8 -2 -17 -4q-8 -1 -17 -1h-82v83h69q24 1 48 7q25 9 48 21q23 14 43 30q21 18 41 38v-27q1 -11 4 -22q5 -11 11 -20q11 -12 25 -20q16 -6 33 -7h1q21 2 40 10q19 12 33 29q8 12 15 25q7 16 13 33q4 -10 8 -19 q4 -8 8 -15q16 -27 38 -48q9 -7 20 -11q10 -4 22 -5h3.5h2.5q7 2 12 5q6 4 10 9t7 12q2 7 2 15q-1 11 -5 21q-6 13 -14 25q-4 6 -9 12t-9 11l23 56q9 -18 16 -37l8 -24q6 -25 11 -50q4 -26 4 -40z" />
<glyph unicode="&#x633;" horiz-adv-x="637" arabic-form="medial" d="M646 98v-83h-38q-18 0 -37 9q-23 10 -33 27l-16 25l-11 -27q-5 -13 -9 -19q-9 -15 -17 -15q-31 0 -52.5 12.5t-40.5 41.5l-13 19l-12 -19q-14 -20 -32 -33q-29 -21 -65 -21q-41 0 -60 19q-13 13 -20 38l-6 24l-18 -17q-25 -24 -61 -43q-41 -21 -73 -21h-43v83h30 q49 0 99 28q42 24 81 65v-24q0 -23 15 -42q21 -27 60 -27q44 0 75 39q18 23 31 57q7 -21 13 -33q31 -63 77 -63h1q5 0 9 1q11 3 19.5 12.5t8.5 26.5q0 21 -17 51q-4 7 -11 19l26 47q5 -9 8 -18q6 -18 14 -51t27 -56q26 -32 63 -32h28z" />
<glyph unicode="&#x634;" horiz-adv-x="637" arabic-form="isolated" d="M430 354l-57 -57l-61 62l57 57zM614 356l-57 -57l-62 61l57 58zM518 471l-56 -57l-62 62l57 57zM370 112q21 1 40 10q19 12 34 29q8 11 15 24q7 14 13 29q6 -16 13 -30q7 -12 15 -24q14 -15 30 -26q15 -7 31 -9h5q2 0 5 1q12 3 21 11q4 5 6 10q1 6 1 12v1v3.5t-1 2.5v1.5 v0.5q-3 8 -7 16q-6 10 -13 19l-6 8t-7 7l27 65q6 -12 10 -24q4 -11 7 -22q5 -22 9 -44q2 -26 2 -52q-1 -21 -4 -42q-4 -14 -10 -26q-9 -11 -20 -21q-4 -3 -8 -5q-5 -1 -10 -1h-8q-8 0 -15 2q-8 2 -16 5q-14 7 -26 16q-11 12 -20 26l-14 24l-13 -26q-4 -8 -10 -16 q-8 -8 -17 -16q-11 -9 -23 -15q-16 -7 -33 -9q-22 -1 -43 4v-36q0 -22 -4 -43q-6 -21 -15 -41q-12 -24 -27 -45q-18 -20 -40 -36q-16 -11 -34 -20q-13 -5 -27 -8q-16 -3 -33 -4h-1h-3q-25 2 -48 11q-23 13 -41 33q-15 23 -24 49q-8 34 -8 69q2 22 5 43q7 27 17 53l7 -7 q-9 -26 -10 -54q3 -21 10 -40q15 -27 36 -47q17 -12 36 -20q22 -6 46 -7h0.5h0.5q11 0 22 2q13 3 26 7q16 7 32 15q13 7 24 16q10 11 18 23q8 14 15 28l1 3v3q0 21 -5 41q-11 26 -28 49q-6 9 -12 17q-8 10 -17 20l34 82q5 -9 11 -18q7 -9 14 -17q15 -17 33 -30q14 -7 29 -10 z" />
<glyph unicode="&#x634;" horiz-adv-x="637" arabic-form="final" d="M393 341l-57 -57l-61 62l57 57zM577 343l-57 -57l-62 61l57 58zM481 458l-56 -57l-62 62l57 57zM537 115q37 0 37 35q0 21 -20 43l-14 15l22 59q36 -52 41 -117q4 -52 33 -52h13v-83h-15q-11 7 -22 43q-3 14 -14.5 14t-16.5 -10q-13 -22 -39 -26h-6q-15 0 -37 9.5 t-40 39.5l-14 23l-12 -24q-9 -17 -30 -35t-35 -18h-38v-36q0 -64 -54 -132q-31 -39 -61 -51q-35 -14 -69 -14q-52 0 -86.5 41.5t-34.5 120.5q0 38 22 96q-5 -26 -5 -43q0 -64 48 -105q31 -27 83 -27q58 0 113 49q16 14 29 44v3q0 52 -66 128l34 82q10 -19 34 -45 q27 -30 49 -30t53 39q17 21 29 53q12 -32 28 -53q29 -36 61 -36z" />
<glyph unicode="&#x634;" horiz-adv-x="637" arabic-form="initial" d="M354 346l-57 -57l-61 62l57 57zM538 348l-57 -57l-62 61l57 58zM442 463l-56 -57l-62 62l57 57zM572 112q-1 -17 -3 -34q-4 -21 -13 -40q-9 -12 -22 -19q-9 -3 -19 -4h-3q-12 0 -23 3t-21 8q-10 8 -18 17q-10 12 -19 26l-13 19l-12 -19q-7 -9 -15 -18q-8 -8 -17 -15 q-14 -10 -30 -16q-17 -4 -35 -5h-1q-18 1 -35 5q-13 5 -24 14q-6 7 -10 16q-5 11 -9 22l-6 24l-18 -17q-14 -12 -28 -22q-17 -11 -34 -21q-19 -9 -38 -16q-8 -2 -17 -4q-8 -1 -17 -1h-82v83h69q24 1 48 7q25 9 48 21q23 14 43 30q21 18 41 38v-27q1 -11 4 -22q5 -11 11 -20 q11 -12 25 -20q16 -6 33 -7h1q21 2 40 10q19 12 33 29q8 12 15 25q7 16 13 33q4 -10 8 -19q4 -8 8 -15q16 -27 38 -48q9 -7 20 -11q10 -4 22 -5h3.5h2.5q7 2 12 5q6 4 10 9t7 12q2 7 2 15q-1 11 -5 21q-6 13 -14 25q-4 6 -9 12t-9 11l23 56q9 -18 16 -37l8 -24q6 -25 11 -50 q4 -26 4 -40z" />
<glyph unicode="&#x634;" horiz-adv-x="637" arabic-form="medial" d="M303 329l-57 -57l-61 62l57 57zM487 331l-57 -57l-62 61l57 58zM391 446l-56 -57l-62 62l57 57zM646 98v-83h-38q-18 0 -37 9q-23 10 -33 27l-16 25l-11 -27q-5 -13 -9 -19q-9 -15 -17 -15q-31 0 -52.5 12.5t-40.5 41.5l-13 19l-12 -19q-14 -20 -32 -33q-29 -21 -65 -21 q-41 0 -60 19q-13 13 -20 38l-6 24l-18 -17q-25 -24 -61 -43q-41 -21 -73 -21h-43v83h30q49 0 99 28q42 24 81 65v-24q0 -23 15 -42q21 -27 60 -27q44 0 75 39q18 23 31 57q7 -21 13 -33q31 -63 77 -63h1q5 0 9 1q11 3 19.5 12.5t8.5 26.5q0 21 -17 51q-4 7 -11 19l26 47 q5 -9 8 -18q6 -18 14 -51t27 -56q26 -32 63 -32h28z" />
<glyph unicode="&#x635;" horiz-adv-x="637" arabic-form="isolated" d="M332 -15q-1 -28 -7 -55q-15 -39 -40 -73q-18 -19 -38 -35q-14 -11 -31 -19q-17 -7 -36 -11q-17 -3 -35 -3h-6q-22 2 -42 10q-20 13 -36 31q-16 24 -26 50q-7 30 -8 60v10q2 22 6 44t11 44h11q-3 -23 -4 -46v-10q0 -19 5 -37q13 -27 36 -47q17 -12 35 -20q21 -5 42 -6h5 q30 3 58 12q30 14 56 36q8 8 15 18q8 12 14 26v3q0 11 -2 21q-3 11 -7 20q-13 27 -28 51q-7 9 -13 18l-16 18l34 83q5 -9 11 -17q9 -14 20 -28q11 -12 24 -21q6 -4 13 -6t14 -3q4 1 9 3q3 2 5 5l10 18q14 29 29 58q16 29 34 56q11 15 23 29q11 12 25 23q9 5 20 9l12 2 q6 -1 11 -2q8 -2 16 -6q11 -7 21 -16q13 -14 22 -31q8 -19 12 -40q4 -27 4 -55v-8q-2 -44 -6 -87q-1 -10 -2 -21q-1 -8 -3 -16q-1 -2 -3 -5q-2 -1 -4 -3q-1 0 -3 -1h-11h-256v-30zM573 95q3 0 5 1q3 0 5 1l10 8q5 5 8 11q3 8 3 15q-1 17 -6 33q-8 16 -19 31q-12 13 -26 23 q-13 6 -27 9q-19 1 -37 -4q-14 -8 -25 -20q-8 -11 -16 -23q-8 -11 -15 -23l-36 -62h176z" />
<glyph unicode="&#x635;" horiz-adv-x="637" arabic-form="final" d="M620 148q0 -36 -9 -50h32v-83h-52h-259v-30q0 -63 -54 -131q-31 -39 -62 -51q-33 -14 -77 -14t-78 41t-34 120q0 39 22 98q-5 -28 -5 -45q0 -64 48 -105q30 -26 82 -26q59 0 114 48q16 14 29 44v3q0 37 -37 92q-12 18 -29 36l34 83q9 -16 24 -35q32 -43 58 -40q10 1 14 8 t30.5 59t56.5 94t71 42q2 0 22 -8q22 -9 43 -47q16 -28 16 -103zM573 95q9 0 20 10t11 26q0 34 -25.5 63.5t-52.5 32.5q-43 4 -62 -24q-3 -3 -57 -85l-16 -23h182zM49 48q3 14 7 32q3 12 7 24l9 -4q-9 -18 -20 -46z" />
<glyph unicode="&#x635;" horiz-adv-x="637" arabic-form="initial" d="M599 143q0 -50 -9 -85q-10 -43 -29 -43h-248q-62 0 -99 21q-32 19 -50 58l-13 27l-14 -26q-19 -35 -36 -53q-26 -27 -51 -27h-55v83h36q35 0 63 19q23 16 34 33l38 58q6 -12 17 -32q24 -45 47 -55l10 -4l8 8q42 52 49 60q47 53 87 83q54 41 90 41q23 0 48 -12 q33 -16 52 -47q25 -41 25 -107zM542 98q14 0 26 7q3 1 5 3q14 10 14 25v1q0 35 -44 67q-40 29 -73 29q-45 0 -87 -20q-57 -27 -114 -87l-24 -25h297z" />
<glyph unicode="&#x635;" horiz-adv-x="637" arabic-form="medial" d="M542 98q14 0 26 7q3 1 5 3q14 10 14 25v1q0 35 -44 67q-40 29 -73 29q-45 0 -87 -20q-57 -27 -114 -87l-24 -25h297zM598 98h47v-83h-332q-62 0 -99 21q-32 19 -50 58l-13 27l-14 -26q-19 -35 -36 -53q-26 -27 -51 -27h-58v83h39q35 0 63 19q23 16 34 33l38 58 q6 -12 17 -32q24 -45 47 -55l10 -4l8 8q42 52 49 60q47 53 87 83q54 41 90 41q29 0 48 -8q34 -14 52 -43q24 -39 24 -115v-45z" />
<glyph unicode="&#x636;" horiz-adv-x="637" arabic-form="isolated" d="M332 -15q-1 -28 -7 -55q-15 -39 -40 -73q-18 -19 -38 -35q-14 -11 -31 -19q-17 -7 -36 -11q-17 -3 -35 -3h-6q-22 2 -42 10q-20 13 -36 31q-16 24 -26 50q-7 30 -8 60v10q2 22 6 44t11 44h11q-3 -23 -4 -46v-10q0 -19 5 -37q13 -27 36 -47q17 -12 35 -20q21 -5 42 -6h5 q30 3 58 12q30 14 56 36q8 8 15 18q8 12 14 26v3q0 11 -2 21q-3 11 -7 20q-13 27 -28 51q-7 9 -13 18l-16 18l34 83q5 -9 11 -17q9 -14 20 -28q11 -12 24 -21q6 -4 13 -6t14 -3q4 1 9 3q3 2 5 5l10 18q14 29 29 58q16 29 34 56q11 15 23 29q11 12 25 23q9 5 20 9l12 2 q6 -1 11 -2q8 -2 16 -6q11 -7 21 -16q13 -14 22 -31q8 -19 12 -40q4 -27 4 -55v-8q-2 -44 -6 -87q-1 -10 -2 -21q-1 -8 -3 -16q-1 -2 -3 -5q-2 -1 -4 -3q-1 0 -3 -1h-11h-256v-30zM573 95q3 0 5 1q3 0 5 1l10 8q5 5 8 11q3 8 3 15q-1 17 -6 33q-8 16 -19 31q-12 13 -26 23 q-13 6 -27 9q-19 1 -37 -4q-14 -8 -25 -20q-8 -11 -16 -23q-8 -11 -15 -23l-36 -62h176zM398 324l-47 -46l-55 56l47 46z" />
<glyph unicode="&#x636;" horiz-adv-x="637" arabic-form="final" d="M332 -15q-1 -28 -7 -55q-15 -39 -40 -73q-18 -19 -38 -35q-14 -11 -31 -19q-17 -7 -36 -11q-17 -3 -35 -3h-6q-22 2 -42 10q-20 13 -36 31q-16 24 -26 50q-7 30 -8 60v10q2 22 6 44t11 44h11q-3 -23 -4 -46v-10q0 -19 5 -37q13 -27 36 -47q17 -12 35 -20q21 -5 42 -6h5 q30 3 58 12q30 14 56 36q8 8 15 18q8 12 14 26v3q0 11 -2 21q-3 11 -7 20q-13 27 -28 51q-7 9 -13 18l-16 18l34 83q5 -9 11 -17q9 -14 20 -28q11 -12 24 -21q6 -4 13 -6t14 -3q4 1 9 3q3 2 5 5l10 18q14 29 29 58q16 29 34 56q11 15 23 29q11 12 25 23q9 5 20 9l12 2 q6 -1 11 -2q8 -2 16 -6q11 -7 21 -16q13 -14 22 -31q8 -19 12 -40q4 -27 4 -55v-8q-2 -44 -6 -87q-1 -10 -2 -21q-1 -8 -3 -16q-1 -2 -3 -5q-2 -1 -4 -3q-1 0 -3 -1h-11h-256v-30zM573 95q3 0 5 1q3 0 5 1l10 8q5 5 8 11q3 8 3 15q-1 17 -6 33q-8 16 -19 31q-12 13 -26 23 q-13 6 -27 9q-19 1 -37 -4q-14 -8 -25 -20q-8 -11 -16 -23q-8 -11 -15 -23l-36 -62h176zM429 350l-57 -57l-61 61l57 57z" />
<glyph unicode="&#x636;" horiz-adv-x="637" arabic-form="initial" d="M350 390l-57 -57l-61 61l57 57zM599 143q0 -50 -9 -85q-10 -43 -29 -43h-248q-62 0 -99 21q-32 19 -50 58l-13 27l-14 -26q-19 -35 -36 -53q-26 -27 -51 -27h-55v83h36q35 0 63 19q23 16 34 33l38 58q6 -12 17 -32q24 -45 47 -55l10 -4l8 8q42 52 49 60q47 53 87 83 q54 41 90 41q23 0 48 -12q33 -16 52 -47q25 -41 25 -107zM542 98q14 0 26 7q3 1 5 3q14 10 14 25v1q0 35 -44 67q-40 29 -73 29q-45 0 -87 -20q-57 -27 -114 -87l-24 -25h297z" />
<glyph unicode="&#x636;" horiz-adv-x="637" arabic-form="medial" d="M352 395l-57 -57l-62 62l57 57zM542 98q14 0 26 7q3 1 5 3q14 10 14 25v1q0 35 -44 67q-40 29 -73 29q-45 0 -87 -20q-57 -27 -114 -87l-24 -25h297zM598 98h47v-83h-332q-62 0 -99 21q-32 19 -50 58l-13 27l-14 -26q-19 -35 -36 -53q-26 -27 -51 -27h-58v83h39 q35 0 63 19q23 16 34 33l38 58q6 -12 17 -32q24 -45 47 -55l10 -4l8 8q42 52 49 60q47 53 87 83q54 41 90 41q29 0 48 -8q34 -14 52 -43q24 -39 24 -115v-45z" />
<glyph unicode="&#x637;" horiz-adv-x="637" arabic-form="isolated" d="M486 98q10 0 20 1q7 1 15 3q6 4 10 8q5 7 8 14q3 12 3 25q-4 14 -11 26q-7 10 -16 18q-10 8 -21 15q-14 7 -30 13q-16 5 -32 6q-15 -1 -29 -5q-17 -6 -33 -14q-25 -15 -47 -34q-20 -21 -39 -42l-33 -34h235zM569 175q1 -10 1 -20q-1 -30 -7 -59q-4 -18 -10 -35 q-8 -18 -20 -34q-7 -6 -14 -10q-8 -2 -17 -2h-348q-7 0 -14 2q-6 2 -12 6q-13 10 -22 23q-10 15 -17 31q-6 16 -9 33l-1 2l28 -10q12 -3 24 -4h45q12 0 24 1q9 2 16 5q11 8 20 18q7 8 14 18l6 11l-2 17l-10 80q-8 52 -15 103q-7 39 -18 87q-10 34 -17 56l39 95l10 -42 q6 -26 10 -51q6 -39 11 -78q4 -39 7 -78l4 -56q2 -31 5 -62l4 -42l46 50q18 19 38 36q10 9 20 17q17 13 35 23q14 5 29 7h2q18 -2 35 -9q19 -12 35 -28q18 -21 31 -45q10 -27 14 -56z" />
<glyph unicode="&#x637;" horiz-adv-x="637" arabic-form="final" d="M457 98q11 0 21 2q10 3 19 8q12 12 18 28q-2 19 -11 36q-14 17 -32 29q-17 11 -36 20q-15 5 -31 6q-21 -1 -40 -7q-19 -8 -37 -19q-49 -35 -93 -77l-25 -26h247zM643 15h-518q-7 0 -13 1q-7 1 -13 4q-11 8 -18 19q-9 18 -15 37q-7 19 -16 36l28 -10q12 -3 24 -4h45 q12 0 23 3q11 4 20 10q11 8 20 18t17 22v5q-4 44 -10 87q-8 51 -16 103q-8 46 -18 92q-8 28 -18 56l39 95q13 -48 21 -96q8 -61 15 -121q6 -55 8 -110q1 -30 3 -61l3 -29l26 32q19 21 39 40q19 20 39 38q17 13 37 23q16 7 33 8q18 -2 34 -10q19 -11 35 -26q22 -29 33 -64 q4 -19 5 -38l1 -15v-14l-2 -14q0 -8 -2 -16l-4 -18h115v-83z" />
<glyph unicode="&#x637;" horiz-adv-x="637" arabic-form="initial" d="M270 253q20 20 42 38q14 9 28 16q15 5 32 6q17 -2 33 -10q19 -13 35 -30q17 -21 28 -47q7 -29 9 -60q0 -33 -4 -66q-5 -26 -13 -52l-6 -14q-4 -6 -10 -11q-6 -4 -13 -7q-7 -1 -15 -1h-423v83h96q12 0 24 3q10 5 20 11q10 8 19 17q9 11 17 22v5q-5 46 -11 91 q-7 51 -16 102q-7 45 -18 90q-7 27 -17 55l39 95q12 -48 21 -96q10 -61 15 -121l8 -110q2 -28 4 -57l2 -29l26 28l23 23q13 13 25 26zM399 98q9 0 19 2l14 4q8 3 14 7q5 5 8 11q2 6 2 12q1 9 0 18q-5 12 -13 23q-15 16 -33 28q-16 11 -33 18q-15 5 -31 6q-15 -1 -30 -5 q-17 -6 -33 -14q-26 -15 -50 -34q-29 -24 -56 -50l-25 -26h247z" />
<glyph unicode="&#x637;" horiz-adv-x="637" arabic-form="medial" d="M649 15h-661v83h115q12 0 23 3q11 4 20 10q11 8 20 18t17 22v5q-5 46 -11 91q-7 51 -16 102q-7 45 -18 90q-7 27 -17 55l39 95q12 -48 21 -96q9 -61 15 -121q5 -58 9 -116q2 -23 3 -46l2 -34l35 39q23 25 47 49q12 12 25 22q16 11 34 20q16 6 33 7q18 -2 34 -10 q19 -13 36 -30q16 -21 28 -45q8 -26 9 -53q0 -17 -1 -35q0 -12 -2 -25l-2 -17h163v-83zM413 98q11 0 21 2q10 3 19 8q12 11 17 27q-1 20 -11 38q-14 16 -32 29q-17 11 -35 19q-16 5 -32 6q-20 -1 -39 -7q-19 -8 -37 -19q-49 -35 -93 -77l-25 -26h247z" />
<glyph unicode="&#x638;" horiz-adv-x="637" arabic-form="isolated" d="M493 465l-57 -57l-61 62l57 57zM486 98q10 0 20 1q7 1 15 3q6 4 10 8q5 7 8 14q3 12 3 25q-4 14 -11 26q-7 10 -16 18q-10 8 -21 15q-14 7 -30 13q-16 5 -32 6q-15 -1 -29 -5q-17 -6 -33 -14q-25 -15 -47 -34q-20 -21 -39 -42l-33 -34h235zM569 175q1 -10 1 -20 q-1 -30 -7 -59q-4 -18 -10 -35q-8 -18 -20 -34q-7 -6 -14 -10q-8 -2 -17 -2h-348q-7 0 -14 2q-6 2 -12 6q-13 10 -22 23q-10 15 -17 31q-6 16 -9 33l-1 2l28 -10q12 -3 24 -4h45q12 0 24 1q9 2 16 5q11 8 20 18q7 8 14 18l6 11l-2 17l-10 80q-8 52 -15 103q-7 39 -18 87 q-10 34 -17 56l39 95l10 -42q6 -26 10 -51q6 -39 11 -78q4 -39 7 -78l4 -56q2 -31 5 -62l4 -42l46 50q18 19 38 36q10 9 20 17q17 13 35 23q14 5 29 7h2q18 -2 35 -9q19 -12 35 -28q18 -21 31 -45q10 -27 14 -56z" />
<glyph unicode="&#x638;" horiz-adv-x="637" arabic-form="final" d="M442 427l-57 -57l-61 62l57 57zM457 98q11 0 21 2q10 3 19 8q12 12 18 28q-2 19 -11 36q-14 17 -32 29q-17 11 -36 20q-15 5 -31 6q-21 -1 -40 -7q-19 -8 -37 -19q-49 -35 -93 -77l-25 -26h247zM643 15h-518q-7 0 -13 1q-7 1 -13 4q-11 8 -18 19q-9 18 -15 37 q-7 19 -16 36l28 -10q12 -3 24 -4h45q12 0 23 3q11 4 20 10q11 8 20 18t17 22v5q-4 44 -10 87q-8 51 -16 103q-8 46 -18 92q-8 28 -18 56l39 95q13 -48 21 -96q8 -61 15 -121q6 -55 8 -110q1 -30 3 -61l3 -29l26 32q19 21 39 40q19 20 39 38q17 13 37 23q16 7 33 8 q18 -2 34 -10q19 -11 35 -26q22 -29 33 -64q4 -19 5 -38l1 -15v-14l-2 -14q0 -8 -2 -16l-4 -18h115v-83z" />
<glyph unicode="&#x638;" horiz-adv-x="637" arabic-form="initial" d="M402 437l-57 -57l-61 62l57 57zM270 253q20 20 42 38q14 9 28 16q15 5 32 6q17 -2 33 -10q19 -13 35 -30q17 -21 28 -47q7 -29 9 -60q0 -33 -4 -66q-5 -26 -13 -52l-6 -14q-4 -6 -10 -11q-6 -4 -13 -7q-7 -1 -15 -1h-423v83h96q12 0 24 3q10 5 20 11q10 8 19 17 q9 11 17 22v5q-5 46 -11 91q-7 51 -16 102q-7 45 -18 90q-7 27 -17 55l39 95q12 -48 21 -96q10 -61 15 -121l8 -110q2 -28 4 -57l2 -29l26 28l23 23q13 13 25 26zM399 98q9 0 19 2l14 4q8 3 14 7q5 5 8 11q2 6 2 12q1 9 0 18q-5 12 -13 23q-15 16 -33 28q-16 11 -33 18 q-15 5 -31 6q-15 -1 -30 -5q-17 -6 -33 -14q-26 -15 -50 -34q-29 -24 -56 -50l-25 -26h247z" />
<glyph unicode="&#x638;" horiz-adv-x="637" arabic-form="medial" d="M412 425l-57 -57l-61 62l57 57zM649 15h-661v83h115q12 0 23 3q11 4 20 10q11 8 20 18t17 22v5q-5 46 -11 91q-7 51 -16 102q-7 45 -18 90q-7 27 -17 55l39 95q12 -48 21 -96q9 -61 15 -121q5 -58 9 -116q2 -23 3 -46l2 -34l35 39q23 25 47 49q12 12 25 22q16 11 34 20 q16 6 33 7q18 -2 34 -10q19 -13 36 -30q16 -21 28 -45q8 -26 9 -53q0 -17 -1 -35q0 -12 -2 -25l-2 -17h163v-83zM413 98q11 0 21 2q10 3 19 8q12 11 17 27q-1 20 -11 38q-14 16 -32 29q-17 11 -35 19q-16 5 -32 6q-20 -1 -39 -7q-19 -8 -37 -19q-49 -35 -93 -77l-25 -26h247 z" />
<glyph unicode="&#x639;" horiz-adv-x="637" arabic-form="isolated" d="M507 -265q-38 -32 -79 -61q-21 -12 -45 -20q-14 -3 -28 -3h-14q-21 4 -41 11q-23 9 -45 20q-31 15 -60 34q-26 20 -48 46q-19 27 -32 57q-9 31 -11 64q1 26 5 51q7 27 17 53q11 26 24 50q14 22 30 42l9 12l-12 10q-13 11 -26 23q-11 12 -22 25q-9 12 -15 26q-4 14 -5 31 q2 25 10 49q13 26 30 49q17 20 38 36q17 9 35 12h6q12 0 23 -3q14 -5 27 -13q28 -21 50 -48q-18 5 -36 8q-16 2 -33 3h-2q-17 -1 -33 -5q-15 -7 -29 -16q-14 -11 -27 -23q-8 -9 -16 -19q-7 -9 -13 -18q3 -10 9 -18q9 -10 20 -18q11 -10 24 -18q12 -7 26 -13q15 -4 29 -7 q12 -2 24 -2q11 2 23 6l128 48l-22 -79l-23 -8q-39 -13 -77 -29q-30 -12 -58 -26q-22 -14 -42 -31q-19 -18 -35 -40q-13 -21 -22 -44q-7 -19 -8 -39q5 -33 20 -58q27 -31 60 -54q41 -23 85 -40q46 -11 93 -13h114z" />
<glyph unicode="&#x639;" horiz-adv-x="637" arabic-form="final" d="M286 191q12 5 24 9l52 22l34 16q-11 3 -21 7q-18 7 -36 13q-22 4 -43 4q-17 2 -34 2h-2q-16 -1 -32 -3q-8 -2 -16 -5q-6 -1 -12 -3q-4 0 -8 -1q-10 -4 -18 -10q27 -9 52 -22q24 -11 47 -23q6 -3 13 -6zM505 -215q-39 -32 -80 -61q-21 -13 -44 -21q-13 -3 -26 -3 q-12 0 -24 2q-25 6 -48 16q-47 19 -90 43q-38 30 -64 70q-18 43 -21 90q3 51 25 109q30 55 73 100l15 14l-17 10q-23 12 -47 21q-24 7 -49 11l18 43q6 15 12 29q7 14 15 28q12 10 25 17q20 9 41 15q18 4 36 6q15 1 31 1t32 -1q18 -2 36 -6q24 -7 46 -16q14 -6 26 -12 q11 -8 21 -18v-1v-1q0 -11 -3 -21l-8 -28q-5 -13 -10 -25q-4 -7 -8 -13q-3 -1 -6 -3q-6 -2 -11 -4q-7 -2 -14 -5q-8 -4 -16 -7l-25 -12l23 -14q14 -10 28 -18l28 -12q15 -5 30 -7q18 -3 36 -3h152v-83h-168q-26 1 -50 8q-28 9 -55 22q-26 14 -51 30q-21 15 -40 31l-8 7 l-9 -5q-20 -12 -39 -26q-21 -15 -40 -32q-19 -22 -30 -50q-5 -22 -6 -45q3 -39 13 -69q19 -32 48 -56q29 -17 62 -28q59 -15 120 -17h115zM423 184l-6 -3l1 1v1z" />
<glyph unicode="&#x639;" horiz-adv-x="637" arabic-form="initial" d="M188 138q-14 19 -21 30q-15 27 -15 54q0 58 34 106q31 44 63 44q51 0 94 -38q20 -18 37 -43q-16 5 -32 7q-24 4 -68 4q-22 0 -49 -19.5t-49 -39.5l-11 -10l10 -11q35 -39 67.5 -56.5t69.5 -17.5q40 0 118 25l37 11l-11 -26q-14 -35 -27 -53l-81 -30q-22 -8 -72 -23 q-45 -13 -102 -24q-62 -13 -100 -13h-89v83h80q34 0 61 4.5t49 12.5l20 6z" />
<glyph unicode="&#x639;" horiz-adv-x="637" arabic-form="medial" d="M306 331q107 -14 196 -67q-4 -11 -8 -20l-11 -27q-6 -14 -18 -38l-88 -24l31 -18q83 -38 128 -39h110v-83h-127q-107 32 -199 103l-11 10l-10 -11q-75 -69 -197 -102h-111v83h93q74 6 104 21l59 30l-23 14q-44 22 -101 32l13 51l20 44q85 35 150 41zM321 183q49 23 78 30 l30 8l-21 13q-46 22 -102 28q-44 -2 -117 -27l62 -20q33 -11 70 -32z" />
<glyph unicode="&#x63a;" horiz-adv-x="637" arabic-form="isolated" d="M242 499l-57 -56l-62 61l57 57zM507 -265q-38 -32 -79 -61q-21 -12 -45 -20q-14 -3 -28 -3h-14q-21 4 -41 11q-23 9 -45 20q-31 15 -60 34q-26 20 -48 46q-19 27 -32 57q-9 31 -11 64q1 26 5 51q7 27 17 53q11 26 24 50q14 22 30 42l9 12l-12 10q-13 11 -26 23 q-11 12 -22 25q-9 12 -15 26q-4 14 -5 31q2 25 10 49q13 26 30 49q17 20 38 36q17 9 35 12h6q12 0 23 -3q14 -5 27 -13q28 -21 50 -48q-18 5 -36 8q-16 2 -33 3h-2q-17 -1 -33 -5q-15 -7 -29 -16q-14 -11 -27 -23q-8 -9 -16 -19q-7 -9 -13 -18q3 -10 9 -18q9 -10 20 -18 q11 -10 24 -18q12 -7 26 -13q15 -4 29 -7q12 -2 24 -2q11 2 23 6l128 48l-22 -79l-23 -8q-39 -13 -77 -29q-30 -12 -58 -26q-22 -14 -42 -31q-19 -18 -35 -40q-13 -21 -22 -44q-7 -19 -8 -39q5 -33 20 -58q27 -31 60 -54q41 -23 85 -40q46 -11 93 -13h114z" />
<glyph unicode="&#x63a;" horiz-adv-x="637" arabic-form="final" d="M287 485l-58 -58l-61 62l57 57zM286 191q12 5 24 9l52 22l34 16q-11 3 -21 7q-18 7 -36 13q-22 4 -43 4q-17 2 -34 2h-2q-16 -1 -32 -3q-8 -2 -16 -5q-6 -1 -12 -3q-4 0 -8 -1q-10 -4 -18 -10q27 -9 52 -22q24 -11 47 -23q6 -3 13 -6zM505 -215q-39 -32 -80 -61 q-21 -13 -44 -21q-13 -3 -26 -3q-12 0 -24 2q-25 6 -48 16q-47 19 -90 43q-38 30 -64 70q-18 43 -21 90q3 51 25 109q30 55 73 100l15 14l-17 10q-23 12 -47 21q-24 7 -49 11l18 43q6 15 12 29q7 14 15 28q12 10 25 17q20 9 41 15q18 4 36 6q15 1 31 1t32 -1q18 -2 36 -6 q24 -7 46 -16q14 -6 26 -12q11 -8 21 -18v-1v-1q0 -11 -3 -21l-8 -28q-5 -13 -10 -25q-4 -7 -8 -13q-3 -1 -6 -3q-6 -2 -11 -4q-7 -2 -14 -5q-8 -4 -16 -7l-25 -12l23 -14q14 -10 28 -18l28 -12q15 -5 30 -7q18 -3 36 -3h152v-83h-168q-26 1 -50 8q-28 9 -55 22 q-26 14 -51 30q-21 15 -40 31l-8 7l-9 -5q-20 -12 -39 -26q-21 -15 -40 -32q-19 -22 -30 -50q-5 -22 -6 -45q3 -39 13 -69q19 -32 48 -56q29 -17 62 -28q59 -15 120 -17h115zM423 184l-6 -3l1 1v1z" />
<glyph unicode="&#x63a;" horiz-adv-x="637" arabic-form="initial" d="M215 523l-57 -57l-61 62l57 57zM188 138q-14 19 -21 30q-15 27 -15 54q0 58 34 106q31 44 63 44q51 0 94 -38q20 -18 37 -43q-16 5 -32 7q-24 4 -68 4q-22 0 -49 -19.5t-49 -39.5l-11 -10l10 -11q35 -39 67.5 -56.5t69.5 -17.5q40 0 118 25l37 11l-11 -26 q-14 -35 -27 -53l-81 -30q-22 -8 -72 -23q-45 -13 -102 -24q-62 -13 -100 -13h-89v83h80q34 0 61 4.5t49 12.5l20 6z" />
<glyph unicode="&#x63a;" horiz-adv-x="637" arabic-form="medial" d="M276 471l-56 -57l-62 62l57 56zM306 331q107 -14 196 -67q-4 -11 -8 -20l-11 -27q-6 -14 -18 -38l-88 -24l31 -18q83 -38 128 -39h110v-83h-127q-107 32 -199 103l-11 10l-10 -11q-75 -69 -197 -102h-111v83h93q74 6 104 21l59 30l-23 14q-44 22 -101 32l13 51l20 44 q85 35 150 41zM321 183q49 23 78 30l30 8l-21 13q-46 22 -102 28q-44 -2 -117 -27l62 -20q33 -11 70 -32z" />
<glyph unicode="&#x641;" horiz-adv-x="637" arabic-form="isolated" d="M362 15h-224q-57 0 -85.5 25.5t-28.5 85.5q0 33 18 73t28 58q-37 -91 8 -135q24 -24 89 -24h6h189h147l-88 37q-41 18 -47 36l-1 2l13 92l2 12q12 75 33 122q25 52 54 52q43 0 89 -87q54 -101 54 -230v-85q0 -19 -8.5 -26.5t-39.5 -7.5h-208zM408 244l4 -4l169 -70 q-19 92 -68 137q-27 25 -54 27q-40 2 -51 -90zM374 550l-57 -57l-62 61l57 57z" />
<glyph unicode="&#x641;" horiz-adv-x="637" arabic-form="final" d="M462 126q39 3 81 26l11 10q-15 60 -48 102q-26 27 -46 34q-9 3 -18 3t-18 -5q-18 -9 -31 -29q-24 -34 -37 -95l9 -9q67 -37 97 -37zM386 545l-57 -57l-62 61l57 57zM122 15q-57 0 -84 24q-30 27 -30 87q0 33 24 88q12 27 24 46q-19 -44 -19 -73q0 -41 22 -62 q27 -27 93 -27h182v48q0 86 30 162q34 86 81 86q32 0 62.5 -38t54.5 -104q30 -79 32 -110l4 -44h49v-83h-39q-32 0 -70.5 8t-64.5 19l-11 5l-10 -5q-22 -9 -79 -18t-100 -9h-151z" />
<glyph unicode="&#x641;" horiz-adv-x="637" arabic-form="initial" d="M324 98l-88 37q-41 18 -47 36l-1 2l13 92l2 12q12 75 33 122q25 52 54 52q43 0 89 -87q54 -101 54 -230v-85q0 -19 -8.5 -26.5t-39.5 -7.5h-393v83h332zM223 244l4 -4l169 -70q-19 92 -68 137q-27 25 -54 27q-40 2 -51 -90zM189 550l-57 -57l-62 61l57 57z" />
<glyph unicode="&#x641;" horiz-adv-x="637" arabic-form="medial" d="M196 146q0 86 30 162q34 86 81 86q32 0 62.5 -38t54.5 -104q30 -79 32 -110l4 -44h184v-83h-174q-32 0 -70.5 8t-64.5 19l-11 5l-10 -5q-22 -9 -79 -18t-100 -9h-144v83h205v48zM324 126q39 3 81 26l11 10q-15 60 -48 102q-26 27 -46 34q-9 3 -18 3t-18 -5 q-18 -9 -31 -29q-24 -34 -37 -95l9 -9q67 -37 97 -37zM216 536l-57 -57l-62 61l57 57z" />
<glyph unicode="&#x642;" horiz-adv-x="637" arabic-form="isolated" d="M300 449l-57 -57l-61 62l57 57zM484 451l-57 -57l-62 61l57 58zM253 -193q-157 0 -154 157q1 66 17 111h10q-5 -32 -5 -53q0 -75 47 -107q37 -24 112 -24q32 2 64 8.5t66.5 19t61 34.5t37.5 50q7 30 -19 44q-9 7 -59.5 7.5t-86.5 -1.5q-21 0 -29 6t-12 18q-12 33 -12 76 t10 80.5t32.5 63.5t52.5 25q77 0 127 -152q12 -34 20 -82t5 -93q-3 -54 -50 -95q-51 -43 -120 -68t-115 -25zM332 135h26h125q-10 36 -32.5 67.5t-52.5 32.5q-32 1 -50 -25t-25 -64q-2 -11 9 -11z" />
<glyph unicode="&#x642;" horiz-adv-x="637" arabic-form="final" d="M506 14q2 -29 1 -57q-4 -55 -50 -95q-51 -43 -120 -68t-115 -25q-157 0 -154 157q1 66 17 111h10q-5 -32 -5 -53q0 -75 47 -107q40 -25 112 -24q24 0 64 9q32 6 66.5 18.5t61 34.5t37.5 50q6 27 -19 44q-10 8 -59 7q-51 -1 -87 -1q-21 0 -29 6t-12 18q-12 33 -12 76 t10 80.5t32.5 63.5t52.5 25q70 -2 127 -152q7 -16 10 -34h151v-84h-137zM269 411l-57 -57l-61 62l57 57zM453 413l-57 -57l-62 61l57 58zM301 97h26h125q-10 36 -32.5 67.5t-52.5 32.5q-32 1 -50 -25t-25 -64q-2 -11 9 -11z" />
<glyph unicode="&#x642;" horiz-adv-x="637" arabic-form="initial" d="M324 98l-88 37q-41 18 -47 36l-1 2l13 92l2 12q12 75 33 122q25 52 54 52q43 0 89 -87q54 -101 54 -230v-85q0 -19 -8.5 -26.5t-39.5 -7.5h-393v83h332zM223 244l4 -4l169 -70q-19 92 -68 137q-27 25 -54 27q-40 2 -51 -90zM249 574l-57 -57l-61 62l57 57zM433 576 l-57 -57l-62 61l57 58z" />
<glyph unicode="&#x642;" horiz-adv-x="637" arabic-form="medial" d="M196 146q0 86 30 162q34 86 81 86q32 0 62.5 -38t54.5 -104q30 -79 32 -110l4 -44h184v-83h-174q-32 0 -70.5 8t-64.5 19l-11 5l-10 -5q-22 -9 -79 -18t-100 -9h-144v83h205v48zM324 126q39 3 81 26l11 10q-15 60 -48 102q-26 27 -46 34q-9 3 -18 3t-18 -5 q-18 -9 -31 -29q-24 -34 -37 -95l9 -9q67 -37 97 -37zM270 573l-57 -57l-61 62l57 57zM454 575l-57 -57l-62 61l57 58z" />
<glyph unicode="&#x643;" horiz-adv-x="637" arabic-form="isolated" d="M335 287q-6 0 -14 -1.5t-12 -1.5q-21 0 -34 12t-13 29q0 13 2.5 22.5t13.5 29.5q15 26 42 48q31 27 56 27l-14 -61q-24 -6 -36 -10q-34 -14 -34 -28q0 -8 11 -12q6 -1 12 -1q4 0 14.5 0.5t16.5 0.5q16 0 24.5 -3.5t8.5 -14.5q0 -35 -14 -62q-20 -40 -60 -40h-73 q39 19 48 24q42 23 55 42zM543 115q-11 94 -33 205q-25 122 -46 179l47 85q11 -32 23 -97q18 -90 29.5 -200.5t11.5 -180.5v-91h-427q-35 0 -57 19q-28 22 -28 78q0 49 14 91q7 23 17 43q-11 -34 -11 -62q0 -37 23 -61q26 -25 75 -25h364z" />
<glyph unicode="&#x643;" horiz-adv-x="637" arabic-form="final" d="M280 340l30 1q16 0 24.5 -3.5t8.5 -14.5q0 -35 -14 -62q-20 -40 -60 -40h-73q39 19 48 24q42 23 56 42l-27 -3q-21 0 -34 12t-13 27t2.5 24.5t15.5 32.5t42 47.5t54 24.5l-14 -61q-70 -17 -70 -38q0 -13 24 -13zM536 178q15 -35 52 -62l33 -18h22v-83h-24q-5 1 -22.5 10 t-30.5 25l-27 31v-66h-427q-35 0 -60 20.5t-25 73.5q0 75 31 137q-26 -84 12 -123q26 -25 75 -25h364l-2 17q-10 89 -34 209t-45 175l47 85q18 -47 39.5 -170t21.5 -233v-3z" />
<glyph unicode="&#x643;" horiz-adv-x="637" arabic-form="initial" d="M187 347q34 -10 41 -13q24 -10 44 -22q89 -53 125 -112q33 -52 33 -116q0 -26 -7 -43q-11 -26 -26 -26h-405v83h417l-11 22q-15 31 -49 62.5t-76 54.5q-25 13 -45 18t-38 5q-23 0 -38 -6l-15 -5q-8 8 -21 38t-14 46q27 48 89 119q70 79 154 145q84 67 155 99v-89 q-58 -21 -126 -63q-59 -38 -114 -88q-44 -41 -81 -86l-14 -17z" />
<glyph unicode="&#x643;" horiz-adv-x="637" arabic-form="medial" d="M341 136v-58q0 -32 -6.5 -45.5t-20.5 -13.5h-323v81h327l-4 18q-8 33 -32 62q-26 33 -65 53q-26 14 -46.5 19.5t-36.5 5.5t-23 -2l-19 -7q-7 9 -19 38t-13 45q26 51 81 117q63 76 141 143q74 64 145 97v-92q-53 -22 -119 -66q-60 -40 -107 -84q-37 -35 -73 -78l-14 -17 l20 -7q33 -12 55 -22q29 -14 33 -17q11 -9 82 -63q78 -61 131 -94q79 -49 118 -49h93v-81h-103q-31 0 -85 31q-44 26 -92 66z" />
<glyph unicode="&#x644;" horiz-adv-x="637" arabic-form="isolated" d="M140 13q0 -132 147 -132q54 0 113 26t92 60v6q0 48 -18 165q-27 171 -66 327l40 87q32 -100 48 -268t16 -248v-67q0 -66 -79 -118t-181 -52q-57 0 -92 34.5t-35 104.5q0 51 18 109q-3 -18 -3 -34z" />
<glyph unicode="&#x644;" horiz-adv-x="637" arabic-form="final" d="M465 129q9 -13 22 -22q11 -6 23 -8q13 -1 25 -1h110v-83h-122q-5 0 -11 1q-5 1 -10 3q-7 1 -13 3l-6 4l-6 4l-12 12l5 -66l-6 -24q-12 -25 -29 -46q-27 -30 -59 -55q-40 -24 -84 -39q-47 -11 -96 -13q-27 1 -52 9q-23 9 -41 25q-16 20 -26 44q-8 30 -9 61q1 25 4 51 q5 27 13 54q-1 -8 -1 -15q-1 -8 -1 -15q1 -27 8 -54q11 -25 29 -45q23 -18 51 -27q29 -6 59 -6q26 2 52 6q30 8 59 20t57 28q21 14 39 32v6q-2 72 -13 144q-19 106 -39 211q-8 37 -17 73l-16 64l40 86q10 -37 18 -74q11 -53 19 -106q8 -51 15 -103q6 -38 12 -78z" />
<glyph unicode="&#x644;" horiz-adv-x="637" arabic-form="initial" d="M388 15h-397v83h372v15q0 53 -15 140q-12 68 -29 140q-15 60 -25 90l40 79q9 -31 16 -63q16 -70 26 -150q12 -94 12 -172v-162z" />
<glyph unicode="&#x644;" horiz-adv-x="637" arabic-form="medial" d="M324 179q13 -40 58 -63q35 -18 65 -18h197v-83h-223q-19 0 -37 13q-13 9 -35 32l-26 25v-70h-329v83h303v15q0 55 -14 139q-12 70 -29 142q-14 55 -25 89l41 79q8 -31 15 -62q16 -70 26 -146q12 -89 12 -170v-2v-1z" />
<glyph unicode="&#x645;" horiz-adv-x="637" arabic-form="isolated" d="M223 44l17 -81q13 -62 19 -100q9 -58 9 -99q0 -16 -13 -44q-3 62 -19 126q-5 19 -39 123q-19 60 -19 86q0 30 20 61q22 35 55 51q21 10 39 14q5 1 16.5 3.5t17.5 3.5l29 7l-22 19q-14 12 -21 17q-16 10 -29 10q-28 0 -59 -17l-2 -1l6 19q14 43 29 66q21 30 39 30t47 -28 l59 -62q29 -27 52 -37l-35 -95q-25 -1 -69 -6.5t-68 -15.5q-31 -12 -41 -19.5t-14 -14.5q-3 -7 -4 -13v-2v-1z" />
<glyph unicode="&#x645;" horiz-adv-x="637" arabic-form="final" d="M645 15h-158q-13 0 -24 5.5t-23 18.5l-20 21l-6 -28q-4 -18 -14 -26q-9 -7 -21 -7q-37 0 -80 35q-50 41 -50 100v37l-21 -9q-19 -8 -23 -11q-28 -16 -49 -39l-7 -8l5 -9q11 -21 27 -69q17 -52 27 -104q13 -66 13 -126q0 -20 -11 -47q-1 15 -3 36q-7 75 -29 143 q-14 45 -37 96.5t-27 70.5q1 42 38 84q37 40 89 65q50 24 88 24q32 0 49 -34l38 -79q12 -25 33 -41t48 -16h148v-83zM373 84q4 2 10 9h1q3 4 10 18l4 8l-4 7q-16 25 -37 47q-17 16 -29 21q-5 2 -11 2h-5q-16 -3 -27 -11q-10 -7 -16 -19l-6 -11l4 -10q10 -22 39 -43t56 -21 q6 0 11 3z" />
<glyph unicode="&#x645;" horiz-adv-x="637" arabic-form="initial" d="M425 80q13 0 21 8t10 19v6v2v1l-1 2q-12 33 -39 53q-20 15 -42 15h-3q-13 -2 -29 -22l-1 -2l-1 -1v0q-2 -4 -11 -16l-9 -12l12 -9q21 -16 49 -30t44 -14zM481 93q0 -34 -9.5 -65.5t-20.5 -31.5q-34 0 -67 12q-47 17 -83 57l-11 12l-11 -12q-17 -18 -40 -31 q-34 -19 -64 -19h-182v83h179q39 0 65 14q33 18 53 47l1 1q19 35 41 66q33 48 50 48q18 0 37 -12q25 -17 41 -54q21 -46 21 -115z" />
<glyph unicode="&#x645;" horiz-adv-x="637" arabic-form="medial" d="M643 15h-153q-34 0 -55 22l-26 27v-37q0 -13 -9 -27q-7 -11 -10 -13v-1h-2q-33 0 -67 17q-41 19 -68 55l-13 17l-12 -18q-26 -42 -85 -42h-151v83h144q40 0 64 17q29 20 47 55l33 62q19 36 45 36q23 0 46 -37l51 -82q32 -51 78 -51h143v-83zM323 90.5q27 -13.5 40 -13.5 q19 0 34 19l6 7l-5 9q-13 25 -35.5 46t-41.5 21h-2.5t-3 -0.5t-2.5 -0.5q-12 -3 -22 -14q-6 -6 -16 -26l-6 -10l9 -8q18 -16 45 -29.5z" />
<glyph unicode="&#x646;" horiz-adv-x="637" arabic-form="isolated" d="M371 307l-57 -57l-61 62l56 57zM519 78q-10 28 -28 63q-24 43 -23 49l21 70q20 -41 31 -74q16 -51 16 -92v-44q0 -42 -50 -78q-44 -32 -117 -53q-61 -17 -110 -17q-83 0 -123 40q-35 34 -35 91q0 65 21 130q-4 -28 -4 -47q0 -75 52 -107q39 -24 110 -24q77 0 150 24 q69 22 88 48l5 7z" />
<glyph unicode="&#x646;" horiz-adv-x="637" arabic-form="final" d="M312 257l-57 -57l-62 62l57 57zM478 46l3 -40q0 -34 -8 -69q-14 -27 -49 -52q-29 -15 -70 -28q-35 -9 -79 -17q-60 -8 -107 -5q-44 9 -74 27q-26 25 -40 57q-11 56 0 120q13 50 34 97q-12 -55 -15 -100q4 -49 26 -82q18 -16 43 -27q27 -8 62 -11q44 0 98 6q33 5 95 24 q30 15 56 36l9 12v10q-8 37 -21 69l-17 29q-7 11 -17 24l31 76q15 -25 29 -44q23 -29 48 -44q23 -9 54 -13q32 -2 74 -3v-83h-82q-34 4 -59 17z" />
<glyph unicode="&#x646;" horiz-adv-x="637" arabic-form="initial" d="M377 412l-57 -57l-62 62l57 57zM404 97v-82h-413v83h381v15q0 32 -20 65q-7 10 -25 35l25 74q16 -27 29 -63q23 -65 23 -127z" />
<glyph unicode="&#x646;" horiz-adv-x="637" arabic-form="medial" d="M312 388l-57 -57l-62 62l57 57zM-8 15v83h328v15q0 30 -23 70q-6 10 -17 28l27 69l9 -18q20 -41 26.5 -70.5t22.5 -50.5q32 -43 93 -43h186v-83h-206q-22 0 -44.5 10.5t-34.5 24.5l-26 30v-65h-341z" />
<glyph unicode="&#x647;" horiz-adv-x="637" arabic-form="isolated" d="M353 419q86 -172 86 -273.5t-26 -132t-92 -30.5q-132 0 -132 85q0 77 76 177q26 33 56 63l14 14l-39 39zM328 82q95 -4 81 64q-19 94 -74 85t-92 -99q-7 -45 85 -50z" />
<glyph unicode="&#x647;" horiz-adv-x="637" arabic-form="final" d="M642 15h-202q-38 0 -61 33q-19 28 -19 56q0 12 -7 13.5t-9 1.5q-9 0 -13 -9q-7 -18 -29 -35q-26 -22 -52 -22q-32 0 -62.5 32t-30.5 66q0 25 23 57q19 27 55 56q25 21 56 43l11 7l-18 39l41 41q8 -21 19 -59q16 -62 22 -99q12 -73 28 -98q27 -40 83 -40h165v-83zM261 138 q27 0 49 12q17 9 32 25l4 4v6q0 16 -11.5 32t-19.5 21q-8 6 -17 6h-1q-26 0 -59.5 -18.5t-44.5 -35.5l-7 -11l10 -8q14 -12 32 -22.5t33 -10.5z" />
<glyph unicode="&#x647;" horiz-adv-x="637" arabic-form="initial" d="M204 141q-14 20 -19.5 31.5t-5.5 32.5q0 43 35 87q25 32 68 64l16 12l-44 33l53 82l31 -27q38 -34 89 -85q55 -55 79 -93q23 -37 40 -79q23 -56 23 -101v-60q0 -22 -21 -39t-48 -17q-35 0 -118 34q-66 27 -90 42l-9 5l-8 -6q-12 -9 -55 -24q-55 -19 -98 -19h-129v88h100 q29 0 57 4t47 12l18 7zM491 81q12 0 24.5 2t19.5 13l3 6l-2 6q-11 36 -35 74q-29 45 -62 68l-24 17v-29q0 -24 -9 -52.5t-25 -45.5l-14 -14l18 -9q32 -16 50 -23q34 -13 56 -13zM312 160q18 6 42 27q27 23 43 52l4 7l-4 7q-11 21 -30.5 38.5t-41.5 17.5q-21 0 -57 -22 q-31 -19 -56 -44l-11 -10l10 -11q16 -18 56 -43q21 -13 34 -19l5 -2z" />
<glyph unicode="&#x647;" horiz-adv-x="637" arabic-form="medial" d="M415 74q11 0 21 4.5t16 9.5q1 1 5 6v0l3 6l-2 6q-9 32 -34 73q-28 45 -57 67l-24 19v-31q0 -24 -8.5 -52t-23.5 -45l-13 -14l17 -9q38 -22 44 -25q33 -15 56 -15zM246 157q18 4 41 26q26 24 41 51l4 7l-4 7q-11 21 -29 38t-39 17t-55 -22q-28 -18 -52 -44l-9 -9l8 -11 q17 -19 53 -42q14 -8 30 -17l5 -3zM591 100h53v-85h-71q-10 0 -29.5 7.5t-34.5 18.5l-21 15l-3 -25q-2 -20 -21 -36t-47 -16t-98.5 31t-88.5 46l-9 7l-10 -8q-11 -9 -55 -24.5t-86 -15.5h-78v85h51q61 0 98 16l17 8l-11 15q-13 18 -18 29.5t-5 32.5q0 72 96 147l15 12 l-41 33l49 78q38 -31 101 -97t83 -100q43 -75 63 -103q52 -71 101 -71z" />
<glyph unicode="&#x648;" horiz-adv-x="637" arabic-form="isolated" d="M425 50h-113q-5 0 -10 1q-4 1 -9 3q-7 6 -11 15q-4 14 -6.5 28.5t-3.5 29.5q0 28 5 55q6 28 15 55q11 28 29 52q8 8 16 13q10 4 20 5q10 -1 19 -5q8 -5 16 -11q18 -22 31 -49q12 -29 20 -59q8 -39 9 -78v-50q-2 -52 -13 -103q-14 -47 -37 -89q-26 -35 -60 -62 q-37 -19 -79 -20q-16 3 -31 8q-19 10 -35 25q41 15 79 35q37 22 71 48q36 31 63 69q7 16 12 32q3 18 3 35v17zM300 180q-4 -10 -6 -21v-10q1 -6 3 -11q3 -3 6 -5q4 -1 8 -1h114q-1 11 -3 21q-5 13 -12 24q-10 13 -22 24q-12 10 -25 18q-9 4 -19 5q-9 -1 -17 -5 q-7 -6 -12 -13q-9 -12 -15 -26z" />
<glyph unicode="&#x648;" horiz-adv-x="637" arabic-form="final" d="M628 15h-213v-15q0 -101 -51.5 -177.5t-137.5 -76.5q-30 0 -66 33q84 29 151 83q76 61 86 136l2 17h-124q-40 0 -40 77q0 55 20 110q26 70 65 70q30 0 57 -48t35 -113l2 -13h214v-83zM246 124q4 -26 28 -26h121l-11 22q-12 24 -33 46.5t-45 22.5q-20 0 -38 -17 q-14 -13 -22 -48z" />
<glyph unicode="&#x649;" horiz-adv-x="637" arabic-form="isolated" d="M364 176q16 -9 81 -26t65 -44v-46q0 -58 -47.5 -95.5t-112 -53.5t-116.5 -16q-87 0 -120.5 33t-32.5 108q1 47 20 110l15 -3q-13 -113 25 -140.5t100 -27.5t149 18q51 10 88 41l11 14l-12 13q-3 3 -68.5 20t-77.5 31l-0.5 21.5t10.5 61.5q29 106 92 177q43 48 72 48 t40 -9q20 -16 2 -93q-1 -7 -4 -16q-14 33 -45.5 33t-63.5 -27q-57 -49 -77 -115l-4 -11z" />
<glyph unicode="&#x649;" horiz-adv-x="637" arabic-form="final" d="M394 15l107 -50q22 -11 22 -33v-41q0 -46 -50 -82q-43 -31 -117 -49q-64 -17 -115 -17q-84 0 -124 38q-32 31 -32 88q0 55 9 88q7 28 19 56v0q-8 -35 -8 -56q0 -76 50 -108q37 -23 106 -23q65 0 133 16q50 13 94 35l27 13l-28 14q-19 9 -68.5 26.5t-68.5 26.5t-22 13 q1 21 15 51q13 26 26 41t51.5 25.5t96.5 10.5h130v-83h-253z" />
<glyph unicode="&#x64a;" horiz-adv-x="637" arabic-form="isolated" d="M250 -250l-57 -57l-61 62l57 57zM434 -248l-57 -57l-62 61l57 58zM364 176q16 -9 81 -26t65 -44v-46q0 -58 -47.5 -95.5t-112 -53.5t-116.5 -16q-87 0 -120.5 33t-32.5 108q1 47 20 110l15 -3q-13 -113 25 -140.5t100 -27.5t149 18q51 10 88 41l11 14l-12 13 q-3 3 -68.5 20t-77.5 31l-0.5 21.5t10.5 61.5q29 106 92 177q43 48 72 48t40 -9q20 -16 2 -93q-1 -7 -4 -16q-14 33 -45.5 33t-63.5 -27q-57 -49 -77 -115l-4 -11z" />
<glyph unicode="&#x64a;" horiz-adv-x="637" arabic-form="final" d="M231 -406l-57 -57l-61 62l57 57zM415 -404l-57 -57l-62 61l57 58zM394 15l107 -50q22 -11 22 -33v-41q0 -46 -50 -82q-43 -31 -117 -49q-64 -17 -115 -17q-84 0 -124 38q-32 31 -32 88q0 55 9 88q7 28 19 56v0q-8 -35 -8 -56q0 -76 50 -108q37 -23 106 -23q65 0 133 16 q50 13 94 35l27 13l-28 14q-19 9 -68.5 26.5t-68.5 26.5t-22 13q1 21 15 51q13 26 26 41t51.5 25.5t96.5 10.5h130v-83h-253z" />
<glyph unicode="&#x64a;" horiz-adv-x="637" arabic-form="initial" d="M269 -141l-57 -57l-61 62l57 57zM453 -139l-57 -57l-62 61l57 58zM417 97v-82h-424v83h392v15q0 38 -20 65l-24 34l25 75q15 -26 28 -63q23 -66 23 -127z" />
<glyph unicode="&#x64a;" horiz-adv-x="637" arabic-form="medial" d="M287 -139l-57 -57l-61 62l57 57zM471 -137l-57 -57l-62 61l57 58zM-9 14v83l329 1v15q0 30 -23 70q-6 10 -17 28l27 69l9 -18q20 -41 26.5 -70.5t22.5 -50.5q31 -43 93 -43l186 -1v-83h-206q-20 0 -45 12q-21 10 -34 24l-26 30v-66h-342z" />
<glyph unicode="&#xd;" horiz-adv-x="341" />
<glyph unicode=" "  horiz-adv-x="637" />
<glyph unicode="&#x09;" horiz-adv-x="637" />
<glyph unicode="&#xa0;" horiz-adv-x="637" />
<glyph unicode="!" d="M342 571l-19 -378h-46l-18 378h83zM300 106q30 0 49.5 -18t19.5 -44q0 -25 -20 -43t-49 -18t-49 18t-20 44q0 25 20 43t49 18z" />
<glyph unicode="&#x22;" d="M157 563h95l-10 -281h-74zM348 563h95l-11 -281h-74z" />
<glyph unicode="#" d="M201 659h47l-12 -205h145l12 205h47l-12 -205h94v-65h-97l-10 -167h107v-65h-110l-12 -214h-47l12 214h-146l-11 -214h-47l11 214h-94v65h98l10 167h-108v65h111zM378 389h-145l-10 -167h145z" />
<glyph unicode="$" d="M429 547h47q-2 -26 -2 -48q0 -55 11 -146l-46 -5q-7 47 -20 78.5t-32.5 46.5t-31.5 20t-33 10v-204q33 -9 50.5 -14.5t44 -18t40 -26t24 -35.5t10.5 -50q0 -61 -47.5 -98.5t-121.5 -42.5v-150h-48v150q-28 1 -83 19q-15 5 -22 5q-9 0 -11 -5.5t-3 -23.5h-47q5 85 -10 194 h47q4 -24 9.5 -40.5t18.5 -41t38.5 -39.5t62.5 -20v199q-35 9 -55 16.5t-48 24t-42 43t-14 62.5q0 62 43.5 100.5t115.5 44.5v104h48v-104q31 -4 69 -21q19 -9 24 -9q7 0 9.5 4.5t4.5 20.5zM274 313v191q-107 -17 -107 -95q0 -22 8 -38.5t26.5 -27.5t32.5 -16.5t40 -13.5z M322 249v-187q27 3 50 9.5t45 28t22 54.5q0 22 -9 38t-29.5 27t-35 16.5t-43.5 13.5z" />
<glyph unicode="%" d="M401 253q65 0 103.5 -41.5t38.5 -92.5t-39 -92t-103 -41q-65 0 -103 41t-38 92q0 50 38 92t103 42zM401 206q-39 0 -63 -26t-24 -60q0 -35 24 -61t63 -26q41 0 64.5 26t23.5 61q0 34 -23.5 60t-64.5 26zM186 614q65 0 103.5 -41t38.5 -93t-39 -92.5t-103 -40.5 q-63 0 -102 40.5t-39 92.5q0 51 38.5 92.5t102.5 41.5zM187 567q-41 0 -64.5 -26.5t-23.5 -60.5t24 -60t64 -26q39 0 63 25.5t24 60.5t-23.5 61t-63.5 26zM493 420l20 -47l-406 -180l-20 47z" />
<glyph unicode="&#x26;" d="M434 280h95v-47h-60q-23 -67 -52 -122l44 -64h75v-47h-114l-41 60q-63 -68 -138 -68q-66 0 -105.5 44t-39.5 102q0 52 32 96.5t87 65.5q0 3 -4 7q-35 53 -44.5 72.5t-9.5 46.5q0 49 35.5 81.5t93.5 32.5q40 0 79 -17q28 -11 41 -11q16 0 37 8l-46 -72q-61 44 -111 44 q-37 0 -53.5 -19t-16.5 -43q0 -11 5.5 -24.5t11.5 -23t22 -33.5l130 -193q23 50 47 124zM354 100l-110 164q-33 -13 -56.5 -42t-23.5 -72q0 -42 23.5 -74t67.5 -32q52 0 99 56z" />
<glyph unicode="'" d="M243 563h114l-20 -282h-75z" />
<glyph unicode="(" d="M412 649h51q-24 -45 -37.5 -74t-35 -82.5t-32.5 -108t-11 -108.5q0 -70 23 -150t42 -120.5t51 -101.5h-51q-56 84 -90.5 186.5t-34.5 185.5q0 82 34 185t91 188z" />
<glyph unicode=")" d="M189 -96h-52q117 214 117 372q0 54 -11.5 109.5t-33 109t-35.5 82.5t-37 72h52q60 -92 92.5 -192.5t32.5 -180.5q0 -82 -33.5 -183.5t-91.5 -188.5z" />
<glyph unicode="*" d="M266 563h68l-6 -147l140 51l21 -64l-144 -40l93 -116l-55 -41l-83 125l-83 -125l-55 41l93 116l-144 40l21 64l140 -51z" />
<glyph unicode="+" d="M275 533h50v-205h209v-50h-209v-205h-50v205h-209v50h209v205z" />
<glyph unicode="," d="M253 133h104l-109 -242h-71z" />
<glyph unicode="-" d="M194 317h212v-55h-212v55z" />
<glyph unicode="." d="M300 119q30 0 53.5 -19t23.5 -49t-23.5 -49t-53.5 -19q-29 0 -53 18.5t-24 49.5q0 30 23.5 49t53.5 19z" />
<glyph unicode="/" d="M466 702l43 -18l-375 -817l-43 20z" />
<glyph unicode="0" d="M300 621q39 0 70.5 -14t51.5 -39.5t34 -56t21 -68.5t10 -71t3 -69q0 -57 -7.5 -106t-26 -100t-58.5 -81t-98 -30q-47 0 -82.5 21t-55 53t-32 76.5t-16.5 83.5t-4 83q0 36 3 69t10 71t21 68.5t34 56t51.5 39.5t70.5 14zM300 576q-42 0 -71.5 -26.5t-42.5 -71.5t-18 -86 t-5 -88t5 -88.5t18.5 -86.5t42 -71.5t70.5 -26.5t71.5 26.5t43 71.5t18.5 86.5t5 88.5t-5 88.5t-18.5 86t-42.5 71t-71 26.5z" />
<glyph unicode="1" d="M104 533l198 88h32v-574h171v-47h-395v47h174v516l-160 -74z" />
<glyph unicode="2" d="M425 146h47v-146h-390v53q174 150 278 255q34 34 46.5 63.5t12.5 66.5q0 64 -45.5 98.5t-92.5 34.5q-17 0 -37 -5t-42.5 -16t-36 -32.5t-11.5 -50.5h-52v65q74 89 181 89q74 0 132 -52t58 -133q0 -57 -34 -111q-24 -38 -106.5 -117t-183.5 -159v-2h276v99z" />
<glyph unicode="3" d="M84 35l19 44q96 -46 166 -46q59 0 103 36.5t44 99.5q0 32 -11 57.5t-28 38t-27 18t-17 7.5q-37 13 -97 9v47q64 0 96 21q52 35 52 98q0 49 -34 79t-85 30q-49 0 -126 -47l-18 -11l-25 39q50 33 88.5 49.5t81.5 16.5q68 0 119 -42.5t51 -112.5q0 -89 -77 -136 q41 -17 74.5 -57t33.5 -102q0 -83 -57.5 -134t-143.5 -51q-29 0 -58.5 6.5t-51 14.5t-72.5 28z" />
<glyph unicode="4" d="M390 621v-427h90v-48h-90v-99h90v-47h-273v47h135v99h-268v58l248 417h68zM123 194h219v369h-2z" />
<glyph unicode="5" d="M126 606h334v-48h-289v-202q67 28 121 28q89 0 143 -56.5t54 -139.5q0 -33 -10.5 -66t-33.5 -64.5t-66 -51.5t-100 -20q-49 0 -88.5 10.5t-99.5 34.5l18 45q89 -40 166 -40q78 0 119 42t41 108q0 63 -41 107t-110 44q-70 0 -133 -48l-25 14v303z" />
<glyph unicode="6" d="M486 621v-50q-46 0 -89 0.5t-82.5 -14.5t-71 -42.5t-54 -82.5t-31.5 -135l2 -2q56 75 145 75q76 0 125.5 -58t49.5 -136q0 -77 -50.5 -133.5t-126.5 -56.5q-33 0 -66 13.5t-64.5 43t-51 86t-19.5 131.5q0 26 2.5 54t13.5 74.5t30 84.5t56 74.5t87 54.5q73 25 195 19z M158 212q5 -92 50.5 -134t94.5 -42q51 0 87 38t36 102q0 59 -34 101.5t-87 42.5q-13 0 -26.5 -2.5t-37.5 -12t-46 -33.5t-37 -60z" />
<glyph unicode="7" d="M95 606h393v-47l-194 -559h-58l202 559h-294v-92h-49v139z" />
<glyph unicode="8" d="M208 309q-31 16 -60.5 54t-29.5 94q0 68 52.5 116t129.5 48t129.5 -48t52.5 -116q0 -43 -23 -83.5t-67 -64.5q50 -22 75.5 -65.5t25.5 -85.5q0 -64 -51 -118t-142 -54t-142 54t-51 118q0 47 28 89t73 62zM300 574q-63 0 -95.5 -37.5t-32.5 -80.5q0 -48 36 -86t92 -38 q51 0 89.5 34.5t38.5 89.5q0 56 -39 87t-89 31zM300 285q-65 0 -102 -39t-37 -88q0 -51 40.5 -88t98.5 -37t98.5 37t40.5 88q0 49 -37.5 88t-101.5 39z" />
<glyph unicode="9" d="M81 -14v50q46 0 89 -0.5t82.5 14.5t71 42.5t54 82.5t31.5 135l-2 2q-56 -75 -145 -75q-76 0 -125.5 57.5t-49.5 136.5q0 77 50.5 133.5t126.5 56.5q33 0 66 -13.5t64.5 -43t51 -86t19.5 -131.5q0 -26 -2.5 -54t-13.5 -74.5t-30 -84.5t-56 -74.5t-87 -54.5 q-73 -25 -195 -19zM409 395q-5 92 -50.5 134t-94.5 42q-51 0 -87 -38t-36 -102q0 -59 34 -101.5t87 -42.5q13 0 26.5 2.5t37.5 12t46 33.5t37 60z" />
<glyph unicode=":" d="M300 390q30 0 53.5 -19t23.5 -49t-24 -49t-53 -19t-53 18.5t-24 49.5q0 30 24 49t53 19zM300 119q30 0 53.5 -19t23.5 -49t-24 -49t-53 -19t-53 18.5t-24 49.5q0 30 24 49t53 19z" />
<glyph unicode=";" d="M258 134h103l-109 -242h-71zM300 390q30 0 53.5 -19t23.5 -49t-24 -49t-53 -19t-53 18.5t-24 49.5q0 30 24 49t53 19z" />
<glyph unicode="&#x3c;" d="M526 89l-472 219l472 224l20 -45l-381 -179l381 -175z" />
<glyph unicode="=" d="M64 419h472v-50h-472v50zM64 238h472v-50h-472v50z" />
<glyph unicode="&#x3e;" d="M74 527l472 -219l-472 -224l-20 45l381 179l-381 175z" />
<glyph unicode="?" d="M120 435v102q59 20 90.5 27.5t71.5 7.5q90 0 141 -48t51 -116q0 -41 -17.5 -72.5t-49.5 -50.5t-56 -28.5t-58 -18.5v-60h-49v97q11 4 20 5q29 7 43.5 11.5t40 15.5t39 23t24.5 33.5t11 47.5q0 41 -32 76.5t-107 35.5q-52 0 -113 -24v-64h-50zM266 106q29 0 49 -17.5 t20 -43.5q0 -27 -20.5 -44.5t-48.5 -17.5t-48.5 17.5t-20.5 44.5q0 25 20 43t49 18z" />
<glyph unicode="@" d="M512 99l21 -42q-1 0 -3 -1.5t-3 -1.5q-115 -68 -239 -68t-190 79.5t-66 194.5q0 124 74 205t203 81q113 0 185.5 -66.5t72.5 -182.5q0 -85 -40.5 -138t-104.5 -53q-19 0 -28.5 4.5t-39.5 26.5q-11 8 -11 20q-47 -53 -95 -53q-27 0 -52.5 23.5t-25.5 77.5q0 71 44 135 t103 64q33 0 57 -40l9 35h52l-43 -156q-10 -40 -10 -50q0 -13 12.5 -26.5t33.5 -13.5q37 0 64 44t27 106q0 94 -60 145t-152 51q-111 0 -167 -70.5t-56 -169.5q0 -42 11 -80.5t34.5 -72t65 -53.5t96.5 -20q96 0 199 55l15 8q1 0 4 2zM253 153q35 0 64.5 51.5t29.5 99.5 q0 22 -11 36t-25 14q-33 0 -61.5 -52.5t-28.5 -100.5q0 -17 8 -32.5t24 -15.5z" />
<glyph unicode="A" d="M113 563h215l211 -516h51v-47h-205v47h102l-57 139h-261l-56 -139h102v-47h-205v47h53l193 469h-143v47zM413 230l-113 274l-113 -274h226z" />
<glyph unicode="B" d="M45 563h273q97 0 144 -42t47 -103q0 -83 -79 -124q114 -34 114 -140q0 -41 -19.5 -75t-51.5 -51t-64 -22.5t-100 -5.5h-264v47h83v469h-83v47zM316 516h-138v-200h133q46 0 78 11.5t45 29.5t18 33t5 30q0 33 -17.5 55t-46.5 29.5t-44.5 9.5t-32.5 2zM303 269h-125v-222 h129q25 0 39 0.5t39.5 3.5t41 9.5t32.5 18t25 30.5t8 45q0 59 -51 87t-138 28z" />
<glyph unicode="C" d="M561 135l33 -36q-121 -116 -260 -116q-127 0 -198.5 88t-71.5 217t76.5 210.5t191.5 81.5q79 0 128 -43q13 -11 17 -11q10 0 15 48h37q-3 -90 10 -191l-47 -8q-11 64 -33 96q-40 59 -129 59q-96 0 -154 -69.5t-58 -171.5q0 -33 6 -65.5t21 -67.5t38.5 -62t62.5 -44 t88 -17q111 0 227 102z" />
<glyph unicode="D" d="M34 563h250q75 0 121 -14t84 -61q62 -77 62 -196q0 -155 -83 -234q-61 -58 -188 -58h-246v47h79v469h-79v47zM285 516h-122v-469h117q102 0 150 47q67 67 67 195q0 97 -47 162q-29 41 -65 53t-100 12z" />
<glyph unicode="E" d="M57 563h475l4 -184h-46l-10 137h-288v-195h162v73h46v-192h-46v72h-162v-227h298l5 137h46v-184h-484v47h85v469h-85v47z" />
<glyph unicode="F" d="M72 563h469l5 -180h-45l-12 133h-286v-195h162v73h46v-192h-46v72h-162v-227h130v-47h-261v47h81v469h-81v47z" />
<glyph unicode="G" d="M474 574h48q-2 -8 -2 -19q-4 -44 -4 -81q0 -43 6 -91l-43 -8q-3 20 -6.5 34t-15 39t-28 41t-47 28.5t-70.5 12.5q-89 0 -149.5 -70.5t-60.5 -179.5t57.5 -178t166.5 -69q61 0 153 32v135h-148v47h247v-47h-48v-168q-116 -49 -205 -49q-73 0 -129 27t-87 72t-46 94.5 t-15 102.5q0 123 72 212t194 89q72 0 125 -43q13 -12 20 -12t9 7t6 42z" />
<glyph unicode="H" d="M39 563h200v-47h-75v-202h272v202h-75v47h201v-47h-76v-469h76v-47h-201v47h75v220h-272v-220h75v-47h-200v47h75v469h-75v47z" />
<glyph unicode="I" d="M100 563h400v-47h-175v-469h175v-47h-400v47h175v469h-175v47z" />
<glyph unicode="J" d="M205 563h374v-47h-127v-312q0 -113 -29 -157q-22 -32 -60 -48t-75 -16q-80 0 -201 56l-19 8l-9 216h49l4 -97q2 -42 10.5 -63.5t36.5 -38.5q49 -31 118 -31q36 0 60.5 11t37 25t19 41t7.5 44.5t1 49.5v312h-197v47z" />
<glyph unicode="K" d="M60 563h219v-47h-85v-245l252 245h-82v47h195v-47h-45l-217 -211q50 -25 98 -80.5t101 -177.5h92v-47h-128q-17 46 -65 135q-31 52 -60.5 83.5t-71.5 52.5l-69 -66v-158h85v-47h-219v47h84v469h-84v47z" />
<glyph unicode="L" d="M59 563h273v-47h-123v-469h283l14 202h47l-11 -249h-483v47h100v469h-100v47z" />
<glyph unicode="M" d="M8 563h167l114 -339h18l124 339h161v-47h-71l17 -469h61v-47h-212v47h107l-15 469h-18l-140 -372h-52l-130 372h-18l-15 -469h107v-47h-212v47h61l17 469h-71v47z" />
<glyph unicode="N" d="M28 563h171l263 -521h18v474h-112v47h223v-47h-65v-529h-89l-268 529h-17v-469h113v-47h-237v47h78v469h-78v47z" />
<glyph unicode="O" d="M43 281q0 127 71 213t186 86q116 0 186.5 -86.5t70.5 -212.5q0 -125 -70.5 -211.5t-186.5 -86.5q-115 0 -186 86t-71 212zM97 282q0 -98 54.5 -173.5t148.5 -75.5t148.5 74.5t54.5 174.5q0 101 -55 174.5t-148 73.5q-96 0 -149.5 -75.5t-53.5 -172.5z" />
<glyph unicode="P" d="M71 563h229q101 0 148 -26q38 -21 62 -62t24 -87q0 -42 -20.5 -80.5t-52.5 -56.5q-35 -20 -71.5 -25t-131.5 -5h-56v-174h147v-47h-278v47h81v469h-81v47zM300 516h-98v-248h57q55 0 78 0.5t54 7t47 19.5q42 33 42 95q0 38 -18 66t-42 40q-37 20 -120 20z" />
<glyph unicode="Q" d="M516 -52l31 -36q-57 -40 -101 -40q-31 0 -85 24q-45 20 -78 20q-30 0 -53 -9t-65 -32l-23 37q54 35 85 81q-84 26 -134 105t-50 183q0 137 75 218t181 81q110 0 184 -84t74 -219q0 -54 -14.5 -104t-44.5 -94.5t-85.5 -70.5t-129.5 -25q-3 -4 -7 -8l-9 -9l-2 -2h-2v-2 q2 0 9 0.5t13 0.5q39 0 88 -20q52 -21 69 -21q35 0 74 26zM97 282q0 -98 54.5 -173.5t148.5 -75.5t148.5 74.5t54.5 174.5q0 101 -55 174.5t-148 73.5q-96 0 -149.5 -75.5t-53.5 -172.5z" />
<glyph unicode="R" d="M45 563h257q53 0 82 -5t54 -22q26 -18 43.5 -53t17.5 -71q0 -53 -37 -99t-116 -54q36 -34 143 -212h88v-47h-125q-34 74 -96 171q-24 37 -35 51.5t-29 25t-43 10.5h-72v-211h89v-47h-221v47h82v469h-82v47zM300 516h-123v-211h93q25 0 39.5 0.5t44 6t46.5 16t31 33 t14 54.5q0 55 -42 84q-25 17 -103 17z" />
<glyph unicode="S" d="M462 574h45q-9 -39 -9 -72q0 -46 9 -119l-45 -8q-8 59 -31 94q-40 61 -127 61q-72 0 -111.5 -37t-39.5 -81q0 -32 15.5 -54t44 -32.5t46.5 -14t46 -6.5q63 -7 92.5 -13.5t53.5 -22.5q62 -42 62 -116q0 -81 -62 -125.5t-143 -44.5q-82 0 -137 46q-4 4 -8 4q-5 0 -10 -8 q-4 -12 -9 -45h-45q9 43 9 89q0 22 -9 106h45q12 -60 34 -89q40 -53 123 -53t120.5 35t37.5 81q0 25 -10 43.5t-23.5 29t-35 17.5t-35.5 9t-35 4q-34 3 -54.5 6t-56 14t-56.5 26t-37.5 43.5t-16.5 66.5q0 70 57.5 121t141.5 51q72 0 124 -41q19 -14 23 -14q6 0 8 5t7 31 q2 8 2 13z" />
<glyph unicode="T" d="M60 563h480l17 -236l-48 -6l-14 195h-170v-469h121v-47h-292v47h121v469h-170l-14 -195l-48 6z" />
<glyph unicode="U" d="M24 563h224v-47h-102v-282q0 -91 19 -130q34 -71 134 -71q104 0 136 63q20 36 20 128v292h-102v47h224v-47h-72v-292q0 -118 -36 -168q-20 -28 -64 -50.5t-105 -22.5q-115 0 -170 78q-34 49 -34 173v282h-72v47z" />
<glyph unicode="V" d="M6 563h214v-47h-94l177 -460l180 460h-102v47h213v-47h-63l-198 -516h-62l-196 516h-69v47z" />
<glyph unicode="W" d="M2 563h197v-47h-101l56 -420h2l129 364h34l126 -364h2l58 420h-102v47h195v-47h-46l-75 -516h-50l-127 364h-2l-129 -364h-50l-70 516h-47v47z" />
<glyph unicode="X" d="M52 563h194v-47h-82l137 -183l140 183h-76v47h183v-47h-51l-168 -220l186 -249h52v-47h-202v47h90l-154 212l-161 -212h106v-47h-213v47h51l189 249l-168 220h-53v47z" />
<glyph unicode="Y" d="M32 563h196v-47h-76l151 -248l149 248h-78v47h194v-47h-63l-179 -298v-171h118v-47h-287v47h119v171l-181 298h-63v47z" />
<glyph unicode="Z" d="M91 563h402v-41l-349 -475h325v162h47v-209h-432v47l345 469h-291v-146h-47v193z" />
<glyph unicode="[" d="M309 654h176v-50h-126v-648h126v-50h-176v748z" />
<glyph unicode="\" d="M136 705l375 -824l-43 -20l-375 825z" />
<glyph unicode="]" d="M291 -94h-176v50h126v648h-126v50h176v-748z" />
<glyph unicode="^" d="M300 503l-163 -349h-64l190 409h74l190 -409h-64z" />
<glyph unicode="_" d="M-48 -75h696v-50h-696v50z" />
<glyph unicode="`" d="M190 618h107l77 -115h-52z" />
<glyph unicode="a" d="M461 296v-249h89v-47h-139v72q-93 -86 -191 -86q-71 0 -116 43t-45 98q0 23 10.5 47t33 48.5t66 40t102.5 15.5q74 0 140 -13v31q0 14 -1 23.5t-7 27t-18 28t-36.5 19t-58.5 8.5q-75 0 -171 -42l-19 45q108 45 191 45q48 0 82.5 -13t51 -29t25.5 -41.5t10 -38.5t1 -32z M411 139v80q-63 11 -130 11q-46 0 -80.5 -10t-50.5 -22.5t-25 -30t-10.5 -26t-1.5 -15.5q0 -37 32 -64.5t74 -27.5q98 0 192 105z" />
<glyph unicode="b" d="M5 620l142 9v-283h2q67 88 171 88q93 0 158.5 -65t65.5 -158q0 -87 -63 -154t-157 -67q-37 0 -67.5 8.5t-53.5 26t-32.5 26.5t-23.5 26v-77h-130v47h80v531l-92 -5v47zM148 213q0 -71 50.5 -122t124.5 -51q72 0 119.5 51t47.5 121t-48 121t-120 51q-73 0 -123.5 -51 t-50.5 -120z" />
<glyph unicode="c" d="M477 443l46 -5q-9 -60 -9 -92q0 -27 3 -66l-46 -7l-4 17q-3 14 -6 22.5t-13.5 26.5t-25 28t-42.5 19t-65 9q-91 0 -140.5 -53.5t-49.5 -124.5t47.5 -126t138.5 -55q90 0 212 85l26 -38q-130 -97 -243 -97q-103 0 -169 66.5t-66 163.5q0 41 15 81t43 73.5t75 54t106 20.5 q83 0 147 -53q3 -3 4 -3q6 0 10 22q2 13 6 32z" />
<glyph unicode="d" d="M282 608l214 19v-580h85v-47h-135v74h-2q-62 -84 -169 -84q-93 0 -157.5 65.5t-64.5 156.5q0 97 67 159.5t153 62.5q48 0 96 -23t75 -63h2v225l-161 -10zM444 210q0 66 -45.5 120t-123.5 54q-68 0 -118 -48t-50 -123t49.5 -124t118.5 -49t119 49t50 121z" />
<glyph unicode="e" d="M536 101l23 -44q-127 -71 -242 -71q-116 0 -179.5 66.5t-63.5 161.5q0 96 65 163.5t172 67.5q106 0 166.5 -61t60.5 -138q0 -9 -1 -26t-1 -19h-408q1 -24 10 -49t28 -53.5t58.5 -46.5t93.5 -18q84 0 218 67zM128 248h356q-1 56 -45.5 102.5t-127.5 46.5 q-46 0 -82.5 -16.5t-56.5 -42t-30.5 -48t-13.5 -42.5z" />
<glyph unicode="f" d="M97 418h104v56q0 36 4.5 59t19.5 46.5t48 34.5t85 11q62 0 148 -16l-21 -50q-64 16 -140 16q-34 0 -54 -7.5t-28.5 -25.5t-10 -31t-1.5 -40v-53h213v-47h-213v-324h213v-47h-367v47h104v324h-104v47z" />
<glyph unicode="g" d="M422 430h131v-47h-81v-353q0 -96 -50 -141.5t-179 -45.5h-63v47q51 0 77 1t59 5t48.5 12.5t31 24t21 39.5t5.5 58v58h-2q-15 -24 -58 -51t-101 -27q-90 0 -152 63t-62 149q0 90 64 151t150 61q16 0 35 -2t59 -21.5t65 -53.5h2v73zM422 220q0 72 -47 118t-112 46 q-64 0 -113 -46t-49 -115q0 -68 47.5 -115.5t114.5 -47.5q69 0 114 48t45 112z" />
<glyph unicode="h" d="M25 617l147 12v-255q30 22 49.5 34t54 24.5t67.5 12.5q68 0 108 -45.5t40 -119.5v-233h84v-47h-219v47h85v229q0 54 -26 86.5t-70 32.5q-75 0 -173 -80v-268h79v-47h-213v47h84v531l-93 -8z" />
<glyph unicode="i" d="M130 430h197v-383h173v-47h-399v47h176v336h-147v47zM255 537v119h72v-119h-72z" />
<glyph unicode="j" d="M85 430h305v-390q0 -17 -0.5 -28t-4 -33t-10 -37t-20.5 -34t-33 -31t-49.5 -20t-69.5 -8q-54 0 -135 17l11 48q65 -15 127 -15q38 0 65 11t40 24.5t20 37t8 37.5t1 38v336h-255v47zM298 537v119h72v-119h-72z" />
<glyph unicode="k" d="M36 616l149 13v-390l187 142v2h-56v47h209v-47h-78l-168 -129q129 -116 200 -207h84v-47h-208v47h64q-52 62 -178 179l-56 -43v-183h-133v47h83v530l-95 -8z" />
<glyph unicode="l" d="M107 597l218 14v-564h174v-47h-398v47h174v516l-163 -12z" />
<glyph unicode="m" d="M0 430h114v-35l13 11q35 35 86 35q32 0 59 -16.5t41 -46.5q54 63 114 63q26 0 51 -12t38 -31q15 -22 20.5 -46.5t5.5 -79.5v-225h57v-47h-107v272q0 29 -1 43.5t-6.5 35.5t-19.5 30.5t-37 9.5q-51 0 -98 -66v-278h62v-47h-112v276q0 20 -0.5 30t-3.5 29t-9.5 29t-20 18.5 t-32.5 8.5q-51 0 -96 -56v-288h68v-47h-186v47h68v336h-68v47z" />
<glyph unicode="n" d="M34 430h132v-56q32 23 50 34t53 24t69 13q68 0 108.5 -46t40.5 -119v-233h80v-47h-216v47h86v229q0 55 -27 87t-71 32q-72 0 -173 -80v-268h84v-47h-216v47h82v336h-82v47z" />
<glyph unicode="o" d="M52 218q0 96 66 164t182 68q118 0 183 -69t65 -163t-65 -163t-183 -69q-116 0 -182 68.5t-66 163.5zM106 218q0 -75 52 -128.5t142 -53.5q91 0 142.5 54t51.5 128q0 75 -51.5 128.5t-142.5 53.5q-90 0 -142 -53.5t-52 -128.5z" />
<glyph unicode="p" d="M19 430h132v-71h2q62 84 172 84q98 0 160.5 -67t62.5 -157q0 -97 -68 -161.5t-153 -64.5q-105 0 -174 86h-2v-189h149v-47h-281v47h82v493h-82v47zM147 222q0 -82 56 -130.5t122 -48.5q69 0 119 51t50 126q0 68 -44.5 120.5t-123.5 52.5q-77 0 -128 -50.5t-51 -120.5z " />
<glyph unicode="q" d="M581 430v-47h-82v-493h82v-47h-281v47h149v189h-2q-69 -86 -174 -86q-85 0 -153 64.5t-68 161.5q0 90 62.5 157t160.5 67q110 0 172 -84h2v71h132zM453 222q0 70 -51 120.5t-128 50.5q-79 0 -123.5 -52.5t-44.5 -120.5q0 -75 50 -126t119 -51q66 0 122 48.5t56 130.5z " />
<glyph unicode="r" d="M83 430h166v-100q25 25 39.5 38t43.5 34.5t59.5 31.5t64.5 10q29 0 52.5 -9.5t34.5 -19t25 -26.5l-53 -39q-4 4 -4 7q-8 12 -12.5 17.5t-18.5 12.5t-32 7q-30 0 -61 -13t-60 -38t-43 -39.5t-35 -37.5v-219h190v-47h-364v47h124v336h-116v47z" />
<glyph unicode="s" d="M437 450l45 -7q-9 -47 -9 -86q0 -21 5 -63l-44 -5q-4 21 -9 34t-20 32t-47 28.5t-81 9.5q-57 0 -90.5 -21t-33.5 -53q0 -18 6 -31t22 -21.5t30 -14t43.5 -8.5t47.5 -4.5t57 -3.5q13 -1 24.5 -2t35.5 -8t41 -17.5t30.5 -32.5t13.5 -52q0 -67 -58.5 -103t-132.5 -36 q-73 0 -147 42q-3 2 -5 2q-9 0 -20 -42h-44q6 34 6 63q0 30 -6 99l44 5q3 -15 5.5 -26t13.5 -30t27 -31.5t46 -22t69 -9.5q20 0 41 3t47.5 11t43 27t16.5 46q0 22 -9.5 35t-32.5 19.5t-42.5 8.5t-58.5 3q-208 8 -208 129q0 54 49.5 90t127.5 36q68 0 115 -29q9 -9 22 -9 q10 0 18 24z" />
<glyph unicode="t" d="M173 563h50v-147h242v-47h-242v-189q0 -30 0.5 -44.5t6 -37.5t15.5 -33.5t31 -19.5t51 -9q69 0 193 52l18 -45q-126 -57 -206 -57q-79 0 -124 45q-24 24 -29.5 55.5t-5.5 93.5v189h-68v47h68v147z" />
<glyph unicode="u" d="M32 430h132v-265q0 -129 100 -129q83 0 161 87v260h-86v47h136v-383h81v-47h-131v55q-77 -69 -157 -69q-45 0 -77 16.5t-48 44t-22.5 56.5t-6.5 62v218h-82v47z" />
<glyph unicode="v" d="M21 430h213v-47h-81l150 -325l152 325h-79v47h203v-47h-74l-181 -383h-47l-182 383h-74v47z" />
<glyph unicode="w" d="M2 430h179v-47h-83l88 -303h2l98 272h35l99 -276h2l90 307h-84v47h170v-47h-39l-112 -383h-52l-95 258l-93 -258h-49l-113 383h-43v47z" />
<glyph unicode="x" d="M41 430h193v-47h-61l125 -125l125 125h-58v47h184v-47h-61l-157 -158l180 -178h63v-47h-203v47h71l-144 146l-145 -146h70v-47h-197v47h62l176 178l-159 158h-64v47z" />
<glyph unicode="y" d="M24 430h187v-47h-69l158 -304l174 304h-68v47h183v-47h-58l-280 -489h89v-47h-300v47h154l77 133l-186 356h-61v47z" />
<glyph unicode="z" d="M114 430h382v-43l-324 -340h277v92h47v-139h-392v47l321 336h-264v-89h-47v136z" />
<glyph unicode="{" d="M461 652v-48q-24 0 -39.5 -2t-34.5 -8.5t-29 -22.5t-10 -42q0 -29 12 -81l8 -35q5 -35 5 -44q0 -23 -9.5 -42t-19 -27.5t-26.5 -21.5q16 -12 25.5 -21t19.5 -28t10 -41q0 -9 -5 -44l-8 -35q-12 -52 -12 -82q0 -26 10.5 -42t31 -22.5t35 -8t36.5 -1.5v-48q-57 0 -82 8 q-39 13 -61 44.5t-22 71.5q0 22 6 50q5 28 9 41q9 47 9 70q0 54 -85 63v51q85 8 85 65q0 23 -9 68q-15 76 -15 88q0 127 165 127z" />
<glyph unicode="|" d="M327 673v-858h-53v858h53z" />
<glyph unicode="}" d="M139 -95v48q24 0 39.5 2t34.5 8.5t29 22.5t10 42q0 29 -12 81l-8 35q-5 35 -5 44q0 23 9.5 42t19 27.5t26.5 21.5q-16 12 -25.5 21t-19.5 28t-10 41q0 9 5 44l8 35q12 52 12 82q0 26 -10.5 42t-31 22.5t-35 8t-36.5 1.5v48q57 0 82 -8q39 -13 61 -44.5t22 -71.5 q0 -22 -6 -50q-5 -28 -9 -41q-9 -47 -9 -70q0 -55 85 -63v-51q-85 -8 -85 -65q0 -23 9 -68q15 -76 15 -88q0 -127 -165 -127z" />
<glyph unicode="~" d="M481 387l34 -38q-54 -95 -123 -95q-24 0 -94 28q-70 30 -90 30q-19 0 -35.5 -12.5t-26 -26.5t-27.5 -44l-33 39q18 31 30 48t37.5 35t54.5 18t105 -32q63 -26 78 -26q47 0 85 67q0 4 5 9z" />
<glyph unicode="&#xa1;" d="M258 -138l19 378h46l18 -378h-83zM300 327q-30 0 -49.5 18t-19.5 44q0 25 20 43t49 18t49 -18t20 -44q0 -25 -20 -43t-49 -18z" />
<glyph unicode="&#xa2;" d="M332 430v-294q46 8 73 18.5t80 42.5l24 -41q-1 0 -3 -1.5t-3 -1.5q-49 -31 -80 -43t-91 -23v-144h-49v144q-56 12 -84.5 28.5t-52.5 50.5q-35 52 -35 115q0 73 45.5 127.5t126.5 67.5v136h49v-136q29 -2 54 -12t34.5 -17.5t14.5 -12.5q1 0 3 -2t3 -2q4 0 7 9.5t3 13.5 q2 8 2 12l47 -5q-9 -54 -9 -81q0 -15 3 -60l-47 -6q-3 66 -38 92q-34 25 -77 25zM283 137v290q-34 -8 -58.5 -25t-36 -34.5t-18 -39t-7 -30t-0.5 -16.5q0 -53 34 -97q29 -36 86 -48z" />
<glyph unicode="&#xa3;" d="M96 339h91q-26 69 -26 109q0 69 53 116.5t126 47.5q53 0 114 -24q9 -3 11 -3q4 0 8 10h45q-14 -54 -19 -112l-45 -5q2 32 2 33q0 19 -13 28q-42 24 -101 24q-61 0 -96.5 -35t-35.5 -79q0 -35 27 -110h243v-47h-229q9 -40 9 -73q0 -92 -53 -170l2 -2q38 19 71 19 q31 0 77 -18q40 -15 57 -15q35 0 85 41l29 -36q-52 -52 -111 -52q-30 0 -70 15q-49 18 -72 18q-46 0 -113 -39l-33 43q84 86 84 192q0 39 -12 77h-105v47z" />
<glyph unicode="&#xa4;" d="M443 175l82 -80l-35 -34l-81 80q-46 -37 -109 -37q-61 0 -109 37l-81 -80l-35 34l82 80q-35 51 -35 100q0 65 35 115l-82 81l35 33l81 -80q47 37 109 37q59 0 109 -37l81 80l35 -33l-82 -81q36 -50 36 -100q0 -65 -36 -115zM432 283q0 53 -37 92t-95 39q-59 0 -95 -39.5 t-36 -91.5q0 -53 36 -92.5t94 -39.5t95.5 39.5t37.5 92.5z" />
<glyph unicode="&#xa5;" d="M327 139v-92h119v-47h-286v47h119v92h-147v47h147v58h-147v47h147v13l-186 242h-61v47h197v-47h-76l150 -195l147 195h-76v47h194v-47h-60l-181 -242v-13h144v-47h-144v-58h144v-47h-144z" />
<glyph unicode="&#xa6;" d="M327 673v-373h-53v373h53zM327 188v-373h-53v373h53z" />
<glyph unicode="&#xa7;" d="M469 563v-133h-47v86h-115q-74 0 -74 -58q0 -33 36 -60l138 -106q31 -24 45 -37t26 -34t12 -46q0 -31 -19.5 -59.5t-63.5 -37.5q19 -30 19 -60q0 -51 -37 -80t-100 -29h-158v144h47v-97h117q31 0 55 15.5t24 45.5t-41 61l-134 103q-39 30 -57 52.5t-18 54.5q0 35 24 65 t57 37q-24 26 -24 67q0 55 46 86q29 20 94 20h148zM376 253l-128 99q-20 -2 -35 -9t-21.5 -14.5t-10.5 -17t-4.5 -14t-0.5 -8.5q0 -15 9.5 -28.5t40.5 -36.5l136 -105q42 2 59 20t17 36t-12 33.5t-50 44.5z" />
<glyph unicode="&#xa8;" d="M199 513v108h72v-108h-72zM329 513v108h72v-108h-72z" />
<glyph unicode="&#xa9;" d="M430 439v-97h-28q-3 50 -10 60q-18 30 -76 30q-59 0 -92.5 -40t-33.5 -98q0 -60 34 -102.5t89 -42.5q29 0 52 14t31.5 26t17.5 31l24 -10q-17 -45 -55 -68.5t-84 -23.5q-72 0 -116 50t-44 122q0 71 45.5 121t127.5 50q56 0 118 -22zM300 580q120 0 205 -84.5t85 -205.5 t-85 -206t-205 -85t-205 85.5t-85 205.5q0 121 85.5 205.5t204.5 84.5zM300 542q-104 0 -178 -74t-74 -179q0 -104 74 -178t178 -74t178 74t74 178q0 105 -74 179t-178 74z" />
<glyph unicode="&#xaa;" d="M205 521l-14 34q62 25 102 25q91 0 91 -80v-118h43v-36h-81v28q-46 -35 -88 -35q-35 0 -60 22t-25 53q0 36 31 58.5t80 22.5q26 0 62 -5v7q0 25 -13 36t-41 11q-34 0 -87 -23zM346 423v31q-35 5 -57 5q-36 0 -57 -12t-21 -33q0 -16 14 -27.5t33 -11.5q45 0 88 48z M178 302h244v-36h-244v36z" />
<glyph unicode="&#xab;" d="M313 430l33 -36l-194 -167l190 -165l-29 -36l-234 201zM488 430l32 -36l-194 -167l191 -165l-29 -36l-235 201z" />
<glyph unicode="&#xac;" d="M90 438h429v-269h-50v219h-379v50z" />
<glyph unicode="&#xad;" d="M194 317h212v-55h-212v55z" />
<glyph unicode="&#xae;" d="M160 441v25h138q116 0 116 -85q0 -68 -76 -86q22 -16 54 -89q15 -34 24.5 -41t35.5 -6v-24h-40q-27 0 -40 17t-29 59q-20 53 -31.5 63.5t-47.5 10.5h-18v-100q0 -19 7 -23q1 -1 34 -4v-23h-127v23q2 0 7 0.5t7 1.5q19 2 23 5t4 20v233q0 18 -6 20q-3 1 -35 3zM246 421 v-112h23q100 0 100 69q0 64 -82 64q-28 0 -34.5 -3t-6.5 -18zM300 580q120 0 205 -84.5t85 -205.5q0 -119 -85 -204.5t-205 -85.5t-205 85.5t-85 204.5q0 121 85.5 205.5t204.5 84.5zM300 542q-104 0 -178 -73.5t-74 -178.5q0 -104 73.5 -178t178.5 -74t178.5 74t73.5 178 q0 105 -74.5 178.5t-177.5 73.5z" />
<glyph unicode="&#xaf;" d="M130 592h340v-50h-340v50z" />
<glyph unicode="&#xb0;" d="M147 467q0 64 44.5 109t108.5 45t108.5 -45.5t44.5 -108.5t-44.5 -107.5t-108.5 -44.5t-108.5 44t-44.5 108zM202 468q0 -40 29 -69t69 -29q41 0 69.5 28.5t28.5 69.5t-28.5 69.5t-69.5 28.5t-69.5 -28.5t-28.5 -69.5z" />
<glyph unicode="&#xb1;" d="M275 576h50v-196h209v-50h-209v-196h-50v196h-209v50h209v196zM66 81h468v-50h-468v50z" />
<glyph unicode="&#xb2;" d="M367 345h39v-97h-239v39l9 8l112 101q50 46 63 65.5t13 47.5q0 30 -22 51t-53 21q-28 0 -48 -15t-21 -35l1 -12h-42v47q44 55 111 55q49 0 83 -33t34 -80q0 -36 -21 -65t-89 -92l-69 -63h139v57z" />
<glyph unicode="&#xb3;" d="M194 545l-21 34q64 42 107 42q45 0 75 -27.5t30 -68.5q0 -47 -38 -78q56 -34 56 -94q0 -50 -34.5 -82t-88.5 -32q-38 0 -95 24l-19 8l16 37q62 -29 100 -29q34 0 56.5 21t22.5 53q0 68 -81 68h-24v40q44 1 62 14q25 19 25 49q0 25 -18 41t-45 16q-33 0 -71 -26z" />
<glyph unicode="&#xb4;" d="M411 618l-143 -115h-53l89 115h107z" />
<glyph unicode="&#xb5;" d="M36 430h132v-236q0 -46 5.5 -69t22.5 -44q37 -46 99 -46q15 0 30 2.5t34.5 12t34 26t25 47t10.5 71.5v189h-82v47h132v-383h83v-47h-133v69h-2q-49 -84 -134 -84q-42 0 -74 22.5t-49 54.5h-2v-218h-50v539h-82v47z" />
<glyph unicode="&#xb6;" d="M444 533v-580h52v-30h-116v30h19v580h-82v-580h19v-30h-126v30h62v308q-31 -2 -59 4.5t-54.5 22t-42 48t-15.5 78.5q0 36 7 62.5t22.5 42.5t30 25.5t40 13t40.5 4.5t44 1h207v-30h-48zM272 291v242q-22 -1 -33.5 -2.5t-27 -9.5t-22.5 -27.5t-7 -50.5v-60q0 -8 1 -17 t6.5 -24t14 -26.5t26.5 -19t42 -5.5z" />
<glyph unicode="&#xb7;" d="M300 371q30 0 53.5 -19t23.5 -49t-23.5 -49t-53.5 -19q-29 0 -53 18.5t-24 49.5q0 30 23.5 49t53.5 19z" />
<glyph unicode="&#xb8;" d="M325 -2l-3 -23q30 -4 47.5 -19t20 -25t2.5 -18q0 -7 -2 -14.5t-9 -18.5t-25 -18t-44 -7q-42 0 -110 15l7 44q59 -14 102 -14q34 0 34 13t-17.5 17.5t-54.5 7.5l7 60h45z" />
<glyph unicode="&#xb9;" d="M178 567l122 54h26v-333h100v-40h-243v40h102v283l-91 -40z" />
<glyph unicode="&#xba;" d="M172 459q0 53 36 87t92 34t92 -34t36 -87t-36 -86.5t-92 -33.5t-92 33.5t-36 86.5zM212 460q0 -38 24.5 -61.5t63.5 -23.5t63.5 23.5t24.5 61.5q0 37 -24.5 60.5t-63.5 23.5t-63.5 -23.5t-24.5 -60.5zM178 302h244v-36h-244v36z" />
<glyph unicode="&#xbb;" d="M287 430l234 -203l-234 -201l-29 36l190 165l-194 167zM113 430l234 -203l-234 -201l-30 36l191 165l-194 167z" />
<glyph unicode="&#xbc;" d="M535 296v-250h53v-37h-53v-50h53v-36h-158v36h67v50h-159v40l149 247h48zM497 46v195h-2l-115 -195h117zM26 579l103 43h24v-335h76v-38h-191v38h77v288l-73 -30zM570 633l28 -20l-510 -703l-28 22z" />
<glyph unicode="&#xbd;" d="M19 579l104 43h23v-335h76v-38h-191v38h77v288l-73 -30zM556 633l29 -20l-510 -703l-28 22zM556 18h34v-95h-229v39q1 1 9 7q2 2 6.5 6t16 15t25.5 23l88 84q27 27 36.5 45t9.5 41q0 32 -21.5 53t-54.5 21q-26 0 -46.5 -15t-20.5 -34q0 -1 0.5 -4.5t0.5 -7.5h-38v45 q44 54 106 54q49 0 81 -32t32 -80q0 -36 -20.5 -68t-74.5 -81l-62 -55l-19 -18h141v57z" />
<glyph unicode="&#xbe;" d="M504 46v195h-2l-115 -195h117zM542 296v-250h53v-37h-53v-50h53v-36h-158v36h67v50h-159v40l149 247h48zM48 549l-19 32q63 41 107 41q45 0 75.5 -27.5t30.5 -67.5q0 -48 -40 -79q58 -33 58 -94q0 -49 -35 -81t-89 -32q-33 0 -96 24l-18 7l15 35q60 -28 101 -28 q36 0 59 20.5t23 54.5t-22 53t-62 18l-22 -1v37q44 1 62 14q26 18 26 51q0 25 -18.5 41.5t-47.5 16.5t-73 -26zM577 633l28 -20l-510 -703l-28 22z" />
<glyph unicode="&#xbf;" d="M474 -3v-102q-59 -20 -90.5 -27.5t-71.5 -7.5q-90 0 -141 48t-51 116q0 41 17.5 72.5t49.5 50.5t56 28.5t58 18.5v60h49v-97q-11 -4 -20 -5q-29 -7 -43.5 -11.5t-40 -15.5t-39 -23t-24.5 -33.5t-11 -47.5q0 -41 32 -76.5t107 -35.5q52 0 113 24v64h50zM329 327 q-29 0 -49 17.5t-20 43.5q0 27 20.5 44.5t48.5 17.5t48.5 -17.5t20.5 -44.5q0 -25 -20 -43t-49 -18z" />
<glyph unicode="&#xc0;" d="M113 563h215l211 -516h51v-47h-205v47h102l-57 139h-261l-56 -139h102v-47h-205v47h53l193 469h-143v47zM413 230l-113 274l-113 -274h226zM190 751h107l77 -115h-52z" />
<glyph unicode="&#xc1;" d="M113 563h215l211 -516h51v-47h-205v47h102l-57 139h-261l-56 -139h102v-47h-205v47h53l193 469h-143v47zM413 230l-113 274l-113 -274h226zM411 751l-143 -115h-53l89 115h107z" />
<glyph unicode="&#xc2;" d="M113 563h215l211 -516h51v-47h-205v47h102l-57 139h-261l-56 -139h102v-47h-205v47h53l193 469h-143v47zM413 230l-113 274l-113 -274h226zM259 754h77l92 -94l-32 -25l-101 66l-91 -66l-33 24z" />
<glyph unicode="&#xc3;" d="M113 563h215l211 -516h51v-47h-205v47h102l-57 139h-261l-56 -139h102v-47h-205v47h53l193 469h-143v47zM413 230l-113 274l-113 -274h226zM420 752l40 -13q-2 -2 -2 -7q-12 -40 -38.5 -62.5t-59.5 -22.5q-31 0 -71 32q-39 29 -55 29q-32 0 -52 -52l-2 -6l-40 14 q32 89 94 89q34 0 74 -34q36 -27 55 -27q36 0 57 60z" />
<glyph unicode="&#xc4;" d="M113 563h215l211 -516h51v-47h-205v47h102l-57 139h-261l-56 -139h102v-47h-205v47h53l193 469h-143v47zM413 230l-113 274l-113 -274h226zM199 646v108h72v-108h-72zM329 646v108h72v-108h-72z" />
<glyph unicode="&#xc5;" d="M113 563h215l211 -516h51v-47h-205v47h102l-57 139h-261l-56 -139h102v-47h-205v47h53l193 469h-143v47zM413 230l-113 274l-113 -274h226zM300 775q32 0 54 -22t22 -54t-22 -54t-54 -22t-54 22t-22 54t22 54t54 22zM301 737q-16 0 -27.5 -10.5t-11.5 -27.5 q0 -16 11.5 -27t27.5 -11t26.5 11t10.5 27t-10.5 27t-26.5 11z" />
<glyph unicode="&#xc6;" d="M158 563h391v-180h-45l-9 133h-143v-194h65v73h46v-193h-46v73h-65v-228h152l6 139h46v-186h-254v184h-123l-57 -137h89v-47h-192v47h53l189 469h-103v47zM302 231v273h-2l-104 -273h106z" />
<glyph unicode="&#xc7;" d="M354 -17v-8q23 0 46.5 -17.5t23.5 -44.5q0 -7 -2 -14t-9 -18.5t-25 -18.5t-44 -7q-42 0 -110 15l7 44q61 -14 104 -14q32 0 32 13t-17.5 17.5t-54.5 7.5l6 45q-68 7 -118.5 38.5t-77 77.5t-39 93.5t-12.5 95.5q0 129 76.5 210.5t191.5 81.5q64 0 110 -29q2 -1 10 -8 t15 -12t10 -5q10 0 15 48h37q-3 -90 10 -191l-47 -8q-3 20 -6 34t-14.5 39t-27.5 41t-45.5 28.5t-68.5 12.5q-83 0 -147.5 -62.5t-64.5 -178.5q0 -107 54.5 -181.5t161.5 -74.5q111 0 227 102l33 -36q-110 -105 -240 -116z" />
<glyph unicode="&#xc8;" d="M57 563h475l4 -184h-46l-10 137h-288v-195h162v73h46v-192h-46v72h-162v-227h298l5 137h46v-184h-484v47h85v469h-85v47zM190 751h107l77 -115h-52z" />
<glyph unicode="&#xc9;" d="M57 563h475l4 -184h-46l-10 137h-288v-195h162v73h46v-192h-46v72h-162v-227h298l5 137h46v-184h-484v47h85v469h-85v47zM411 751l-143 -115h-53l89 115h107z" />
<glyph unicode="&#xca;" d="M57 563h475l4 -184h-46l-10 137h-288v-195h162v73h46v-192h-46v72h-162v-227h298l5 137h46v-184h-484v47h85v469h-85v47zM259 754h77l92 -94l-32 -25l-101 66l-91 -66l-33 24z" />
<glyph unicode="&#xcb;" d="M57 563h475l4 -184h-46l-10 137h-288v-195h162v73h46v-192h-46v72h-162v-227h298l5 137h46v-184h-484v47h85v469h-85v47zM199 646v108h72v-108h-72zM329 646v108h72v-108h-72z" />
<glyph unicode="&#xcc;" d="M100 563h400v-47h-175v-469h175v-47h-400v47h175v469h-175v47zM190 751h107l77 -115h-52z" />
<glyph unicode="&#xcd;" d="M100 563h400v-47h-175v-469h175v-47h-400v47h175v469h-175v47zM411 751l-143 -115h-53l89 115h107z" />
<glyph unicode="&#xce;" d="M100 563h400v-47h-175v-469h175v-47h-400v47h175v469h-175v47zM259 754h77l92 -94l-32 -25l-101 66l-91 -66l-33 24z" />
<glyph unicode="&#xcf;" d="M100 563h400v-47h-175v-469h175v-47h-400v47h175v469h-175v47zM199 646v108h72v-108h-72zM329 646v108h72v-108h-72z" />
<glyph unicode="&#xd0;" d="M113 274h-79v47h79v195h-79v47h250q75 0 121 -14t84 -61q62 -77 62 -196q0 -155 -83 -234q-61 -58 -188 -58h-246v47h79v227zM329 274h-166v-227h117q102 0 150 47q67 67 67 195q0 97 -47 162q-29 41 -65 53t-100 12h-122v-195h166v-47z" />
<glyph unicode="&#xd1;" d="M28 563h171l263 -521h18v474h-112v47h223v-47h-65v-529h-89l-268 529h-17v-469h113v-47h-237v47h78v469h-78v47zM420 752l40 -13q-2 -2 -2 -7q-12 -40 -38.5 -62.5t-59.5 -22.5q-31 0 -71 32q-39 29 -55 29q-32 0 -52 -52l-2 -6l-40 14q32 89 94 89q34 0 74 -34 q36 -27 55 -27q36 0 57 60z" />
<glyph unicode="&#xd2;" d="M43 281q0 127 71 213t186 86q116 0 186.5 -86.5t70.5 -212.5q0 -125 -70.5 -211.5t-186.5 -86.5q-115 0 -186 86t-71 212zM97 282q0 -98 54.5 -173.5t148.5 -75.5t148.5 74.5t54.5 174.5q0 101 -55 174.5t-148 73.5q-96 0 -149.5 -75.5t-53.5 -172.5zM190 751h107 l77 -115h-52z" />
<glyph unicode="&#xd3;" d="M43 281q0 127 71 213t186 86q116 0 186.5 -86.5t70.5 -212.5q0 -125 -70.5 -211.5t-186.5 -86.5q-115 0 -186 86t-71 212zM97 282q0 -98 54.5 -173.5t148.5 -75.5t148.5 74.5t54.5 174.5q0 101 -55 174.5t-148 73.5q-96 0 -149.5 -75.5t-53.5 -172.5zM411 751l-143 -115 h-53l89 115h107z" />
<glyph unicode="&#xd4;" d="M43 281q0 127 71 213t186 86q116 0 186.5 -86.5t70.5 -212.5q0 -125 -70.5 -211.5t-186.5 -86.5q-115 0 -186 86t-71 212zM97 282q0 -98 54.5 -173.5t148.5 -75.5t148.5 74.5t54.5 174.5q0 101 -55 174.5t-148 73.5q-96 0 -149.5 -75.5t-53.5 -172.5zM259 754h77l92 -94 l-32 -25l-101 66l-91 -66l-33 24z" />
<glyph unicode="&#xd5;" d="M43 281q0 127 71 213t186 86q116 0 186.5 -86.5t70.5 -212.5q0 -125 -70.5 -211.5t-186.5 -86.5q-115 0 -186 86t-71 212zM97 282q0 -98 54.5 -173.5t148.5 -75.5t148.5 74.5t54.5 174.5q0 101 -55 174.5t-148 73.5q-96 0 -149.5 -75.5t-53.5 -172.5zM420 752l40 -13 q-2 -2 -2 -7q-12 -40 -38.5 -62.5t-59.5 -22.5q-31 0 -71 32q-39 29 -55 29q-32 0 -52 -52l-2 -6l-40 14q32 89 94 89q34 0 74 -34q36 -27 55 -27q36 0 57 60z" />
<glyph unicode="&#xd6;" d="M43 281q0 127 71 213t186 86q116 0 186.5 -86.5t70.5 -212.5q0 -125 -70.5 -211.5t-186.5 -86.5q-115 0 -186 86t-71 212zM97 282q0 -98 54.5 -173.5t148.5 -75.5t148.5 74.5t54.5 174.5q0 101 -55 174.5t-148 73.5q-96 0 -149.5 -75.5t-53.5 -172.5zM199 646v108h72 v-108h-72zM329 646v108h72v-108h-72z" />
<glyph unicode="&#xd7;" d="M265 306l-147 147l36 35l146 -146l146 146l36 -35l-147 -147l147 -146l-36 -36l-146 147l-146 -147l-36 36z" />
<glyph unicode="&#xd8;" d="M148 37l-50 -60l-34 27l50 65q-71 93 -71 211q0 127 71 213.5t187 86.5q89 0 162 -62l39 49l35 -26l-44 -56q64 -77 64 -206q0 -123 -70 -209.5t-183 -86.5q-91 0 -156 54zM459 441l-282 -363q54 -45 123 -45q90 0 146.5 71.5t56.5 175.5q0 89 -44 161zM148 112l283 365 q-46 53 -132 53q-91 0 -146.5 -74t-55.5 -173q0 -39 12 -88.5t39 -82.5z" />
<glyph unicode="&#xd9;" d="M24 563h224v-47h-102v-282q0 -91 19 -130q34 -71 134 -71q104 0 136 63q20 36 20 128v292h-102v47h224v-47h-72v-292q0 -118 -36 -168q-20 -28 -64 -50.5t-105 -22.5q-115 0 -170 78q-34 49 -34 173v282h-72v47zM190 751h107l77 -115h-52z" />
<glyph unicode="&#xda;" d="M24 563h224v-47h-102v-282q0 -91 19 -130q34 -71 134 -71q104 0 136 63q20 36 20 128v292h-102v47h224v-47h-72v-292q0 -118 -36 -168q-20 -28 -64 -50.5t-105 -22.5q-115 0 -170 78q-34 49 -34 173v282h-72v47zM411 751l-143 -115h-53l89 115h107z" />
<glyph unicode="&#xdb;" d="M24 563h224v-47h-102v-282q0 -91 19 -130q34 -71 134 -71q104 0 136 63q20 36 20 128v292h-102v47h224v-47h-72v-292q0 -118 -36 -168q-20 -28 -64 -50.5t-105 -22.5q-115 0 -170 78q-34 49 -34 173v282h-72v47zM259 754h77l92 -94l-32 -25l-101 66l-91 -66l-33 24z" />
<glyph unicode="&#xdc;" d="M24 563h224v-47h-102v-282q0 -91 19 -130q34 -71 134 -71q104 0 136 63q20 36 20 128v292h-102v47h224v-47h-72v-292q0 -118 -36 -168q-20 -28 -64 -50.5t-105 -22.5q-115 0 -170 78q-34 49 -34 173v282h-72v47zM199 646v108h72v-108h-72zM329 646v108h72v-108h-72z" />
<glyph unicode="&#xdd;" d="M32 563h196v-47h-76l151 -248l149 248h-78v47h194v-47h-63l-179 -298v-171h118v-47h-287v47h119v171l-181 298h-63v47zM411 751l-143 -115h-53l89 115h107z" />
<glyph unicode="&#xde;" d="M202 47h113v-47h-244v47h81v469h-81v47h244v-47h-113v-51h55q95 0 133.5 -5.5t69.5 -25.5q33 -21 53.5 -58t20.5 -81q0 -45 -21 -84.5t-53 -57.5q-35 -20 -71.5 -25t-131.5 -5h-55v-76zM300 418h-98v-248h57q55 0 78 0.5t54 7t47 19.5q42 33 42 95q0 38 -18 66t-42 40 q-37 20 -120 20z" />
<glyph unicode="&#xdf;" d="M65 47h76v404q0 79 47.5 126.5t114.5 47.5q64 0 103 -41.5t39 -101.5q0 -43 -23.5 -77.5t-59.5 -49.5q19 -7 31 -11.5t37.5 -20.5t41 -35t28.5 -52.5t13 -74.5q0 -70 -43.5 -119t-120.5 -49q-67 0 -115 33v52q60 -35 114 -35q43 0 77 30.5t34 92.5q0 152 -202 160v46 q136 10 136 109q0 41 -24 67.5t-68 26.5q-45 0 -77.5 -31t-32.5 -101v-443h-126v47z" />
<glyph unicode="&#xe0;" d="M461 296v-249h89v-47h-139v72q-93 -86 -191 -86q-71 0 -116 43t-45 98q0 23 10.5 47t33 48.5t66 40t102.5 15.5q74 0 140 -13v31q0 14 -1 23.5t-7 27t-18 28t-36.5 19t-58.5 8.5q-75 0 -171 -42l-19 45q108 45 191 45q48 0 82.5 -13t51 -29t25.5 -41.5t10 -38.5t1 -32z M411 139v80q-63 11 -130 11q-46 0 -80.5 -10t-50.5 -22.5t-25 -30t-10.5 -26t-1.5 -15.5q0 -37 32 -64.5t74 -27.5q98 0 192 105zM190 618h107l77 -115h-52z" />
<glyph unicode="&#xe1;" d="M461 296v-249h89v-47h-139v72q-93 -86 -191 -86q-71 0 -116 43t-45 98q0 23 10.5 47t33 48.5t66 40t102.5 15.5q74 0 140 -13v31q0 14 -1 23.5t-7 27t-18 28t-36.5 19t-58.5 8.5q-75 0 -171 -42l-19 45q108 45 191 45q48 0 82.5 -13t51 -29t25.5 -41.5t10 -38.5t1 -32z M411 139v80q-63 11 -130 11q-46 0 -80.5 -10t-50.5 -22.5t-25 -30t-10.5 -26t-1.5 -15.5q0 -37 32 -64.5t74 -27.5q98 0 192 105zM411 618l-143 -115h-53l89 115h107z" />
<glyph unicode="&#xe2;" d="M461 296v-249h89v-47h-139v72q-93 -86 -191 -86q-71 0 -116 43t-45 98q0 23 10.5 47t33 48.5t66 40t102.5 15.5q74 0 140 -13v31q0 14 -1 23.5t-7 27t-18 28t-36.5 19t-58.5 8.5q-75 0 -171 -42l-19 45q108 45 191 45q48 0 82.5 -13t51 -29t25.5 -41.5t10 -38.5t1 -32z M411 139v80q-63 11 -130 11q-46 0 -80.5 -10t-50.5 -22.5t-25 -30t-10.5 -26t-1.5 -15.5q0 -37 32 -64.5t74 -27.5q98 0 192 105zM239 621h77l92 -94l-32 -25l-101 66l-91 -66l-33 24z" />
<glyph unicode="&#xe3;" d="M461 296v-249h89v-47h-139v72q-93 -86 -191 -86q-71 0 -116 43t-45 98q0 23 10.5 47t33 48.5t66 40t102.5 15.5q74 0 140 -13v31q0 14 -1 23.5t-7 27t-18 28t-36.5 19t-58.5 8.5q-75 0 -171 -42l-19 45q108 45 191 45q48 0 82.5 -13t51 -29t25.5 -41.5t10 -38.5t1 -32z M411 139v80q-63 11 -130 11q-46 0 -80.5 -10t-50.5 -22.5t-25 -30t-10.5 -26t-1.5 -15.5q0 -37 32 -64.5t74 -27.5q98 0 192 105zM420 619l40 -13q-2 -2 -2 -7q-12 -40 -38.5 -62.5t-59.5 -22.5q-31 0 -71 32q-39 29 -55 29q-32 0 -52 -52l-2 -6l-40 14q32 89 94 89 q34 0 74 -34q36 -27 55 -27q36 0 57 60z" />
<glyph unicode="&#xe4;" d="M461 296v-249h89v-47h-139v72q-93 -86 -191 -86q-71 0 -116 43t-45 98q0 23 10.5 47t33 48.5t66 40t102.5 15.5q74 0 140 -13v31q0 14 -1 23.5t-7 27t-18 28t-36.5 19t-58.5 8.5q-75 0 -171 -42l-19 45q108 45 191 45q48 0 82.5 -13t51 -29t25.5 -41.5t10 -38.5t1 -32z M411 139v80q-63 11 -130 11q-46 0 -80.5 -10t-50.5 -22.5t-25 -30t-10.5 -26t-1.5 -15.5q0 -37 32 -64.5t74 -27.5q98 0 192 105zM179 513v108h72v-108h-72zM309 513v108h72v-108h-72z" />
<glyph unicode="&#xe5;" d="M461 296v-249h89v-47h-139v72q-93 -86 -191 -86q-71 0 -116 43t-45 98q0 23 10.5 47t33 48.5t66 40t102.5 15.5q74 0 140 -13v31q0 14 -1 23.5t-7 27t-18 28t-36.5 19t-58.5 8.5q-75 0 -171 -42l-19 45q108 45 191 45q48 0 82.5 -13t51 -29t25.5 -41.5t10 -38.5t1 -32z M411 139v80q-63 11 -130 11q-46 0 -80.5 -10t-50.5 -22.5t-25 -30t-10.5 -26t-1.5 -15.5q0 -37 32 -64.5t74 -27.5q98 0 192 105zM300 642q32 0 54 -22t22 -54t-22 -54t-54 -22t-54 22t-22 54t22 54t54 22zM301 604q-16 0 -27.5 -10.5t-11.5 -27.5q0 -16 11.5 -27t27.5 -11 t26.5 11t10.5 27t-10.5 27t-26.5 11z" />
<glyph unicode="&#xe6;" d="M563 203h-243q2 -48 8 -75.5t24 -51.5q31 -42 85 -42q47 0 113 22l18 -43q-78 -27 -133 -27q-78 0 -129 74q-75 -75 -149 -75q-57 0 -90.5 39t-33.5 92q0 57 42.5 103.5t117.5 46.5q10 0 77 -9v35q0 57 -14.5 83.5t-58.5 26.5t-120 -27l-14 44q81 31 135 31 q49 0 72.5 -20t35.5 -55q16 21 27 33.5t37 27t55 14.5q11 0 22.5 -2t36 -15.5t41.5 -37t29 -73.5t9 -119zM270 89v120q-44 9 -76 9q-60 0 -85.5 -32.5t-25.5 -69.5q0 -33 19 -58t54 -25q49 0 114 56zM320 250h193q-1 73 -24.5 112.5t-64.5 39.5q-40 0 -73 -40 q-14 -17 -21 -36.5t-8 -34t-2 -41.5z" />
<glyph unicode="&#xe7;" d="M330 -13v-13q20 -5 30.5 -20.5t10.5 -34.5q0 -22 -14.5 -42.5t-45.5 -20.5q-26 0 -58 22l22 37q23 -15 32 -15q19 0 19 18q0 17 -21 17q-11 0 -23 -2l4 54q-84 3 -149.5 66t-65.5 163q0 89 62.5 159t176.5 70q72 0 130 -41q1 -1 6.5 -4.5t9.5 -7.5l5 -3q4 0 8 13l8 41 l46 -5q-9 -60 -9 -92q0 -27 3 -66l-46 -7q-9 40 -16 57t-25 32q-41 33 -115 33q-90 0 -140 -53.5t-50 -124.5q0 -72 47.5 -126.5t138.5 -54.5q90 0 212 85l26 -38q-61 -45 -109.5 -67.5t-109.5 -28.5z" />
<glyph unicode="&#xe8;" d="M536 101l23 -44q-127 -71 -242 -71q-116 0 -179.5 66.5t-63.5 161.5q0 96 65 163.5t172 67.5q106 0 166.5 -61t60.5 -138q0 -9 -1 -26t-1 -19h-408q1 -24 10 -49t28 -53.5t58.5 -46.5t93.5 -18q84 0 218 67zM128 248h356q-1 56 -45.5 102.5t-127.5 46.5 q-46 0 -82.5 -16.5t-56.5 -42t-30.5 -48t-13.5 -42.5zM207 618h107l77 -115h-52z" />
<glyph unicode="&#xe9;" d="M536 101l23 -44q-127 -71 -242 -71q-116 0 -179.5 66.5t-63.5 161.5q0 96 65 163.5t172 67.5q106 0 166.5 -61t60.5 -138q0 -9 -1 -26t-1 -19h-408q1 -24 10 -49t28 -53.5t58.5 -46.5t93.5 -18q84 0 218 67zM128 248h356q-1 56 -45.5 102.5t-127.5 46.5 q-46 0 -82.5 -16.5t-56.5 -42t-30.5 -48t-13.5 -42.5zM411 618l-143 -115h-53l89 115h107z" />
<glyph unicode="&#xea;" d="M536 101l23 -44q-127 -71 -242 -71q-116 0 -179.5 66.5t-63.5 161.5q0 96 65 163.5t172 67.5q106 0 166.5 -61t60.5 -138q0 -9 -1 -26t-1 -19h-408q1 -24 10 -49t28 -53.5t58.5 -46.5t93.5 -18q84 0 218 67zM128 248h356q-1 56 -45.5 102.5t-127.5 46.5 q-46 0 -82.5 -16.5t-56.5 -42t-30.5 -48t-13.5 -42.5zM259 621h77l92 -94l-32 -25l-101 66l-91 -66l-33 24z" />
<glyph unicode="&#xeb;" d="M536 101l23 -44q-127 -71 -242 -71q-116 0 -179.5 66.5t-63.5 161.5q0 96 65 163.5t172 67.5q106 0 166.5 -61t60.5 -138q0 -9 -1 -26t-1 -19h-408q1 -24 10 -49t28 -53.5t58.5 -46.5t93.5 -18q84 0 218 67zM128 248h356q-1 56 -45.5 102.5t-127.5 46.5 q-46 0 -82.5 -16.5t-56.5 -42t-30.5 -48t-13.5 -42.5zM199 513v108h72v-108h-72zM329 513v108h72v-108h-72z" />
<glyph unicode="&#xec;" d="M130 430h197v-383h173v-47h-399v47h176v336h-147v47zM190 618h107l77 -115h-52z" />
<glyph unicode="&#xed;" d="M130 430h197v-383h173v-47h-399v47h176v336h-147v47zM411 618l-143 -115h-53l89 115h107z" />
<glyph unicode="&#xee;" d="M130 430h197v-383h173v-47h-399v47h176v336h-147v47zM259 621h77l92 -94l-32 -25l-101 66l-91 -66l-33 24z" />
<glyph unicode="&#xef;" d="M130 430h197v-383h173v-47h-399v47h176v336h-147v47zM199 513v108h72v-108h-72zM329 513v108h72v-108h-72z" />
<glyph unicode="&#xf0;" d="M265 568l-52 -82l-43 30l50 76q-71 33 -111 45l17 49q63 -20 122 -49l41 67l43 -28l-39 -62q255 -155 255 -387q0 -113 -70 -177t-178 -64q-117 0 -182.5 68.5t-65.5 163.5q0 105 71 168.5t168 63.5q81 0 137 -27l2 2q-33 43 -66.5 74t-98.5 69zM106 218 q0 -76 52.5 -130.5t141.5 -54.5q91 0 142.5 55t51.5 130t-52 130t-142 55q-89 0 -141.5 -54.5t-52.5 -130.5z" />
<glyph unicode="&#xf1;" d="M34 430h132v-56q32 23 50 34t53 24t69 13q68 0 108.5 -46t40.5 -119v-233h80v-47h-216v47h86v229q0 55 -27 87t-71 32q-72 0 -173 -80v-268h84v-47h-216v47h82v336h-82v47zM420 619l40 -13q-2 -2 -2 -7q-12 -40 -38.5 -62.5t-59.5 -22.5q-31 0 -71 32q-39 29 -55 29 q-32 0 -52 -52l-2 -6l-40 14q32 89 94 89q34 0 74 -34q36 -27 55 -27q36 0 57 60z" />
<glyph unicode="&#xf2;" d="M52 218q0 96 66 164t182 68q118 0 183 -69t65 -163t-65 -163t-183 -69q-116 0 -182 68.5t-66 163.5zM106 218q0 -75 52 -128.5t142 -53.5q91 0 142.5 54t51.5 128q0 75 -51.5 128.5t-142.5 53.5q-90 0 -142 -53.5t-52 -128.5zM190 618h107l77 -115h-52z" />
<glyph unicode="&#xf3;" d="M52 218q0 96 66 164t182 68q118 0 183 -69t65 -163t-65 -163t-183 -69q-116 0 -182 68.5t-66 163.5zM106 218q0 -75 52 -128.5t142 -53.5q91 0 142.5 54t51.5 128q0 75 -51.5 128.5t-142.5 53.5q-90 0 -142 -53.5t-52 -128.5zM411 618l-143 -115h-53l89 115h107z" />
<glyph unicode="&#xf4;" d="M52 218q0 96 66 164t182 68q118 0 183 -69t65 -163t-65 -163t-183 -69q-116 0 -182 68.5t-66 163.5zM106 218q0 -75 52 -128.5t142 -53.5q91 0 142.5 54t51.5 128q0 75 -51.5 128.5t-142.5 53.5q-90 0 -142 -53.5t-52 -128.5zM259 621h77l92 -94l-32 -25l-101 66l-91 -66 l-33 24z" />
<glyph unicode="&#xf5;" d="M52 218q0 96 66 164t182 68q118 0 183 -69t65 -163t-65 -163t-183 -69q-116 0 -182 68.5t-66 163.5zM106 218q0 -75 52 -128.5t142 -53.5q91 0 142.5 54t51.5 128q0 75 -51.5 128.5t-142.5 53.5q-90 0 -142 -53.5t-52 -128.5zM420 619l40 -13q-2 -2 -2 -7 q-12 -40 -38.5 -62.5t-59.5 -22.5q-31 0 -71 32q-39 29 -55 29q-32 0 -52 -52l-2 -6l-40 14q32 89 94 89q34 0 74 -34q36 -27 55 -27q36 0 57 60z" />
<glyph unicode="&#xf6;" d="M52 218q0 96 66 164t182 68q118 0 183 -69t65 -163t-65 -163t-183 -69q-116 0 -182 68.5t-66 163.5zM106 218q0 -75 52 -128.5t142 -53.5q91 0 142.5 54t51.5 128q0 75 -51.5 128.5t-142.5 53.5q-90 0 -142 -53.5t-52 -128.5zM199 513v108h72v-108h-72zM329 513v108h72 v-108h-72z" />
<glyph unicode="&#xf7;" d="M300 528q18 0 31.5 -13t13.5 -32q0 -18 -13 -31.5t-32 -13.5t-32 13.5t-13 31.5q0 20 13.5 32.5t31.5 12.5zM66 328h468v-50h-468v50zM300 168q17 0 31 -13t14 -32t-13.5 -32t-31.5 -13t-31.5 13t-13.5 32t13.5 32t31.5 13z" />
<glyph unicode="&#xf8;" d="M145 32l-46 -46l-39 37l46 46q-54 65 -54 150q0 94 66 162.5t182 68.5q96 0 152 -45l49 50l38 -38l-46 -46q55 -64 55 -153q0 -96 -66.5 -164t-179.5 -68q-92 0 -157 46zM454 332l-270 -264q18 -11 26.5 -15.5t33 -10.5t56.5 -6q91 0 142.5 54t51.5 128q0 65 -40 114z M144 105l271 264q-3 2 -13 7t-13.5 6.5t-12.5 5.5t-15 5t-16 3.5t-21 3t-24 0.5q-91 0 -142.5 -54.5t-51.5 -127.5q0 -65 38 -113z" />
<glyph unicode="&#xf9;" d="M32 430h132v-265q0 -129 100 -129q83 0 161 87v260h-86v47h136v-383h81v-47h-131v55q-77 -69 -157 -69q-45 0 -77 16.5t-48 44t-22.5 56.5t-6.5 62v218h-82v47zM190 618h107l77 -115h-52z" />
<glyph unicode="&#xfa;" d="M32 430h132v-265q0 -129 100 -129q83 0 161 87v260h-86v47h136v-383h81v-47h-131v55q-77 -69 -157 -69q-45 0 -77 16.5t-48 44t-22.5 56.5t-6.5 62v218h-82v47zM411 618l-143 -115h-53l89 115h107z" />
<glyph unicode="&#xfb;" d="M32 430h132v-265q0 -129 100 -129q83 0 161 87v260h-86v47h136v-383h81v-47h-131v55q-77 -69 -157 -69q-45 0 -77 16.5t-48 44t-22.5 56.5t-6.5 62v218h-82v47zM259 621h77l92 -94l-32 -25l-101 66l-91 -66l-33 24z" />
<glyph unicode="&#xfc;" d="M32 430h132v-265q0 -129 100 -129q83 0 161 87v260h-86v47h136v-383h81v-47h-131v55q-77 -69 -157 -69q-45 0 -77 16.5t-48 44t-22.5 56.5t-6.5 62v218h-82v47zM199 513v108h72v-108h-72zM329 513v108h72v-108h-72z" />
<glyph unicode="&#xfd;" d="M24 430h187v-47h-69l158 -304l174 304h-68v47h183v-47h-58l-280 -489h89v-47h-300v47h154l77 133l-186 356h-61v47zM411 618l-143 -115h-53l89 115h107z" />
<glyph unicode="&#xfe;" d="M151 629v-270h2q59 84 172 84q98 0 160.5 -67t62.5 -157q0 -97 -68 -161.5t-153 -64.5q-105 0 -174 86h-2v-189h149v-47h-281v47h82v687l-89 -4v47zM147 222q0 -82 56 -130.5t122 -48.5q69 0 119 51t50 126q0 68 -44.5 120.5t-123.5 52.5q-77 0 -128 -50.5t-51 -120.5z " />
<glyph unicode="&#xff;" d="M24 430h187v-47h-69l158 -304l174 304h-68v47h183v-47h-58l-280 -489h89v-47h-300v47h154l77 133l-186 356h-61v47zM199 513v108h72v-108h-72zM329 513v108h72v-108h-72z" />
<glyph unicode="&#x100;" d="M113 563h215l211 -516h51v-47h-205v47h102l-57 139h-261l-56 -139h102v-47h-205v47h53l193 469h-143v47zM413 230l-113 274l-113 -274h226zM130 725h340v-50h-340v50z" />
<glyph unicode="&#x101;" d="M461 296v-249h89v-47h-139v72q-93 -86 -191 -86q-71 0 -116 43t-45 98q0 23 10.5 47t33 48.5t66 40t102.5 15.5q74 0 140 -13v31q0 14 -1 23.5t-7 27t-18 28t-36.5 19t-58.5 8.5q-75 0 -171 -42l-19 45q108 45 191 45q48 0 82.5 -13t51 -29t25.5 -41.5t10 -38.5t1 -32z M411 139v80q-63 11 -130 11q-46 0 -80.5 -10t-50.5 -22.5t-25 -30t-10.5 -26t-1.5 -15.5q0 -37 32 -64.5t74 -27.5q98 0 192 105zM130 592h340v-50h-340v50z" />
<glyph unicode="&#x102;" d="M113 563h215l211 -516h51v-47h-205v47h102l-57 139h-261l-56 -139h102v-47h-205v47h53l193 469h-143v47zM413 230l-113 274l-113 -274h226zM138 757h46l2 -3q37 -68 114 -68q75 0 114 68q0 3 2 3h46q-41 -114 -162 -114q-93 0 -142 70q-6 9 -20 44z" />
<glyph unicode="&#x103;" d="M461 296v-249h89v-47h-139v72q-93 -86 -191 -86q-71 0 -116 43t-45 98q0 23 10.5 47t33 48.5t66 40t102.5 15.5q74 0 140 -13v31q0 14 -1 23.5t-7 27t-18 28t-36.5 19t-58.5 8.5q-75 0 -171 -42l-19 45q108 45 191 45q48 0 82.5 -13t51 -29t25.5 -41.5t10 -38.5t1 -32z M411 139v80q-63 11 -130 11q-46 0 -80.5 -10t-50.5 -22.5t-25 -30t-10.5 -26t-1.5 -15.5q0 -37 32 -64.5t74 -27.5q98 0 192 105zM138 624h46l2 -3q37 -68 114 -68q75 0 114 68q0 3 2 3h46q-41 -114 -162 -114q-93 0 -142 70q-6 9 -20 44z" />
<glyph unicode="&#x104;" d="M548 -40l-10 -53q-28 -24 -59 -24q-25 0 -41.5 17t-16.5 41q0 34 35 57v2h-71v47h102l-57 139h-261l-56 -139h102v-47h-205v47h53l193 469h-143v47h215l211 -516h51v-47h-51q-21 -6 -39.5 -18.5t-18.5 -27.5q0 -9 5.5 -14t12.5 -5q10 0 16.5 3.5t32.5 21.5zM413 230 l-113 274l-113 -274h226z" />
<glyph unicode="&#x105;" d="M508 -40l-9 -53q-28 -24 -59 -24q-25 0 -41.5 17t-16.5 41q0 34 35 57v2h-6v72q-93 -86 -191 -86q-71 0 -116 43t-45 98q0 23 10.5 47t33 48.5t66 40t102.5 15.5q74 0 140 -13v31q0 14 -1 23.5t-7 27t-18 28t-36.5 19t-58.5 8.5q-75 0 -171 -42l-19 45q108 45 191 45 q48 0 82.5 -13t51 -29t25.5 -41.5t10 -38.5t1 -32v-249h89v-47h-50q-59 -18 -59 -46q0 -19 19 -19q10 0 16.5 3.5t31.5 21.5zM411 139v80q-63 11 -130 11q-46 0 -80.5 -10t-50.5 -22.5t-25 -30t-10.5 -26t-1.5 -15.5q0 -37 32 -64.5t74 -27.5q98 0 192 105z" />
<glyph unicode="&#x106;" d="M561 135l33 -36q-121 -116 -260 -116q-127 0 -198.5 88t-71.5 217t76.5 210.5t191.5 81.5q79 0 128 -43q13 -11 17 -11q10 0 15 48h37q-3 -90 10 -191l-47 -8q-11 64 -33 96q-40 59 -129 59q-96 0 -154 -69.5t-58 -171.5q0 -33 6 -65.5t21 -67.5t38.5 -62t62.5 -44 t88 -17q111 0 227 102zM441 751l-143 -115h-53l89 115h107z" />
<glyph unicode="&#x107;" d="M477 443l46 -5q-9 -60 -9 -92q0 -27 3 -66l-46 -7l-4 17q-3 14 -6 22.5t-13.5 26.5t-25 28t-42.5 19t-65 9q-91 0 -140.5 -53.5t-49.5 -124.5t47.5 -126t138.5 -55q90 0 212 85l26 -38q-130 -97 -243 -97q-103 0 -169 66.5t-66 163.5q0 41 15 81t43 73.5t75 54t106 20.5 q83 0 147 -53q3 -3 4 -3q6 0 10 22q2 13 6 32zM428 618l-143 -115h-53l89 115h107z" />
<glyph unicode="&#x108;" d="M561 135l33 -36q-121 -116 -260 -116q-127 0 -198.5 88t-71.5 217t76.5 210.5t191.5 81.5q79 0 128 -43q13 -11 17 -11q10 0 15 48h37q-3 -90 10 -191l-47 -8q-11 64 -33 96q-40 59 -129 59q-96 0 -154 -69.5t-58 -171.5q0 -33 6 -65.5t21 -67.5t38.5 -62t62.5 -44 t88 -17q111 0 227 102zM289 754h77l92 -94l-32 -25l-101 66l-91 -66l-33 24z" />
<glyph unicode="&#x109;" d="M477 443l46 -5q-9 -60 -9 -92q0 -27 3 -66l-46 -7l-4 17q-3 14 -6 22.5t-13.5 26.5t-25 28t-42.5 19t-65 9q-91 0 -140.5 -53.5t-49.5 -124.5t47.5 -126t138.5 -55q90 0 212 85l26 -38q-130 -97 -243 -97q-103 0 -169 66.5t-66 163.5q0 41 15 81t43 73.5t75 54t106 20.5 q83 0 147 -53q3 -3 4 -3q6 0 10 22q2 13 6 32zM276 623h77l92 -94l-32 -25l-101 66l-91 -66l-33 24z" />
<glyph unicode="&#x10a;" d="M561 135l33 -36q-121 -116 -260 -116q-127 0 -198.5 88t-71.5 217t76.5 210.5t191.5 81.5q79 0 128 -43q13 -11 17 -11q10 0 15 48h37q-3 -90 10 -191l-47 -8q-11 64 -33 96q-40 59 -129 59q-96 0 -154 -69.5t-58 -171.5q0 -33 6 -65.5t21 -67.5t38.5 -62t62.5 -44 t88 -17q111 0 227 102zM294 646v108h72v-108h-72z" />
<glyph unicode="&#x10b;" d="M477 443l46 -5q-9 -60 -9 -92q0 -27 3 -66l-46 -7l-4 17q-3 14 -6 22.5t-13.5 26.5t-25 28t-42.5 19t-65 9q-91 0 -140.5 -53.5t-49.5 -124.5t47.5 -126t138.5 -55q90 0 212 85l26 -38q-130 -97 -243 -97q-103 0 -169 66.5t-66 163.5q0 41 15 81t43 73.5t75 54t106 20.5 q83 0 147 -53q3 -3 4 -3q6 0 10 22q2 13 6 32zM264 513v108h72v-108h-72z" />
<glyph unicode="&#x10c;" d="M561 135l33 -36q-121 -116 -260 -116q-127 0 -198.5 88t-71.5 217t76.5 210.5t191.5 81.5q79 0 128 -43q13 -11 17 -11q10 0 15 48h37q-3 -90 10 -191l-47 -8q-11 64 -33 96q-40 59 -129 59q-96 0 -154 -69.5t-58 -171.5q0 -33 6 -65.5t21 -67.5t38.5 -62t62.5 -44 t88 -17q111 0 227 102zM370 642h-76l-93 94l32 24l101 -65l92 66l32 -25z" />
<glyph unicode="&#x10d;" d="M477 443l46 -5q-9 -60 -9 -92q0 -27 3 -66l-46 -7l-4 17q-3 14 -6 22.5t-13.5 26.5t-25 28t-42.5 19t-65 9q-91 0 -140.5 -53.5t-49.5 -124.5t47.5 -126t138.5 -55q90 0 212 85l26 -38q-130 -97 -243 -97q-103 0 -169 66.5t-66 163.5q0 41 15 81t43 73.5t75 54t106 20.5 q83 0 147 -53q3 -3 4 -3q6 0 10 22q2 13 6 32zM357 509h-76l-93 94l32 24l101 -65l92 66l32 -25z" />
<glyph unicode="&#x10e;" d="M34 563h250q75 0 121 -14t84 -61q62 -77 62 -196q0 -155 -83 -234q-61 -58 -188 -58h-246v47h79v469h-79v47zM285 516h-122v-469h117q102 0 150 47q67 67 67 195q0 97 -47 162q-29 41 -65 53t-100 12zM340 642h-76l-93 94l32 24l101 -65l92 66l32 -25z" />
<glyph unicode="&#x10f;" d="M282 608l214 19v-580h85v-47h-135v74h-2q-62 -84 -169 -84q-93 0 -157.5 65.5t-64.5 156.5q0 97 67 159.5t153 62.5q48 0 96 -23t75 -63h2v225l-161 -10zM444 210q0 66 -45.5 120t-123.5 54q-68 0 -118 -48t-50 -123t49.5 -124t118.5 -49t119 49t50 121zM357 665h-76 l-93 94l32 24l101 -65l92 66l32 -25z" />
<glyph unicode="&#x111;" d="M282 608l214 19v-107h85v-47h-85v-426h85v-47h-135v74h-2q-62 -84 -169 -84q-93 0 -157.5 65.5t-64.5 156.5q0 97 67 159.5t153 62.5q48 0 96 -23t75 -63h2v125h-241v47h241v53l-161 -10zM444 210q0 66 -45.5 120t-123.5 54q-68 0 -118 -48t-50 -123t49.5 -124t118.5 -49 t119 49t50 121z" />
<glyph unicode="&#x112;" d="M57 563h475l4 -184h-46l-10 137h-288v-195h162v73h46v-192h-46v72h-162v-227h298l5 137h46v-184h-484v47h85v469h-85v47zM130 725h340v-50h-340v50z" />
<glyph unicode="&#x113;" d="M536 101l23 -44q-127 -71 -242 -71q-116 0 -179.5 66.5t-63.5 161.5q0 96 65 163.5t172 67.5q106 0 166.5 -61t60.5 -138q0 -9 -1 -26t-1 -19h-408q1 -24 10 -49t28 -53.5t58.5 -46.5t93.5 -18q84 0 218 67zM128 248h356q-1 56 -45.5 102.5t-127.5 46.5 q-46 0 -82.5 -16.5t-56.5 -42t-30.5 -48t-13.5 -42.5zM147 592h340v-50h-340v50z" />
<glyph unicode="&#x116;" d="M57 563h475l4 -184h-46l-10 137h-288v-195h162v73h46v-192h-46v72h-162v-227h298l5 137h46v-184h-484v47h85v469h-85v47zM264 646v108h72v-108h-72z" />
<glyph unicode="&#x117;" d="M536 101l23 -44q-127 -71 -242 -71q-116 0 -179.5 66.5t-63.5 161.5q0 96 65 163.5t172 67.5q106 0 166.5 -61t60.5 -138q0 -9 -1 -26t-1 -19h-408q1 -24 10 -49t28 -53.5t58.5 -46.5t93.5 -18q84 0 218 67zM128 248h356q-1 56 -45.5 102.5t-127.5 46.5 q-46 0 -82.5 -16.5t-56.5 -42t-30.5 -48t-13.5 -42.5zM264 513v108h72v-108h-72z" />
<glyph unicode="&#x118;" d="M497 -40l-10 -53q-28 -24 -59 -24q-25 0 -41.5 17t-16.5 41q0 34 35 57v2h-348v47h85v469h-85v47h475l4 -184h-46l-10 137h-288v-195h162v73h46v-192h-46v72h-162v-227h298l5 137h46v-184h-53q-21 -6 -39.5 -18.5t-18.5 -27.5q0 -9 5.5 -14t12.5 -5q10 0 16.5 3.5 t32.5 21.5z" />
<glyph unicode="&#x119;" d="M414 -40l-10 -53q-28 -24 -59 -24q-25 0 -41.5 17t-16.5 41q0 23 19 45q-79 3 -133 38.5t-76.5 84t-22.5 105.5q0 96 65 163.5t172 67.5q106 0 166.5 -61t60.5 -138q0 -9 -1 -26t-1 -19h-408q1 -18 6 -37.5t18 -43.5t32.5 -42.5t54 -31t78.5 -12.5q85 0 219 67l23 -44 q-95 -53 -175 -65q-37 -20 -37 -38q0 -9 5.5 -14t12.5 -5q10 0 16.5 3.5t32.5 21.5zM128 248h356q-1 56 -45.5 102.5t-127.5 46.5q-46 0 -82.5 -16.5t-56.5 -42t-30.5 -48t-13.5 -42.5z" />
<glyph unicode="&#x11a;" d="M57 563h475l4 -184h-46l-10 137h-288v-195h162v73h46v-192h-46v72h-162v-227h298l5 137h46v-184h-484v47h85v469h-85v47zM340 642h-76l-93 94l32 24l101 -65l92 66l32 -25z" />
<glyph unicode="&#x11b;" d="M536 101l23 -44q-127 -71 -242 -71q-116 0 -179.5 66.5t-63.5 161.5q0 96 65 163.5t172 67.5q106 0 166.5 -61t60.5 -138q0 -9 -1 -26t-1 -19h-408q1 -24 10 -49t28 -53.5t58.5 -46.5t93.5 -18q84 0 218 67zM128 248h356q-1 56 -45.5 102.5t-127.5 46.5 q-46 0 -82.5 -16.5t-56.5 -42t-30.5 -48t-13.5 -42.5zM340 509h-76l-93 94l32 24l101 -65l92 66l32 -25z" />
<glyph unicode="&#x11c;" d="M474 574h48q-2 -8 -2 -19q-4 -44 -4 -81q0 -43 6 -91l-43 -8q-3 20 -6.5 34t-15 39t-28 41t-47 28.5t-70.5 12.5q-89 0 -149.5 -70.5t-60.5 -179.5t57.5 -178t166.5 -69q61 0 153 32v135h-148v47h247v-47h-48v-168q-116 -49 -205 -49q-73 0 -129 27t-87 72t-46 94.5 t-15 102.5q0 123 72 212t194 89q72 0 125 -43q13 -12 20 -12t9 7t6 42zM289 754h77l92 -94l-32 -25l-101 66l-91 -66l-33 24z" />
<glyph unicode="&#x11d;" d="M422 430h131v-47h-81v-353q0 -96 -50 -141.5t-179 -45.5h-63v47q51 0 77 1t59 5t48.5 12.5t31 24t21 39.5t5.5 58v58h-2q-15 -24 -58 -51t-101 -27q-90 0 -152 63t-62 149q0 90 64 151t150 61q16 0 35 -2t59 -21.5t65 -53.5h2v73zM422 220q0 72 -47 118t-112 46 q-64 0 -113 -46t-49 -115q0 -68 47.5 -115.5t114.5 -47.5q69 0 114 48t45 112zM259 621h77l92 -94l-32 -25l-101 66l-91 -66l-33 24z" />
<glyph unicode="&#x11e;" d="M474 574h48q-2 -8 -2 -19q-4 -44 -4 -81q0 -43 6 -91l-43 -8q-3 20 -6.5 34t-15 39t-28 41t-47 28.5t-70.5 12.5q-89 0 -149.5 -70.5t-60.5 -179.5t57.5 -178t166.5 -69q61 0 153 32v135h-148v47h247v-47h-48v-168q-116 -49 -205 -49q-73 0 -129 27t-87 72t-46 94.5 t-15 102.5q0 123 72 212t194 89q72 0 125 -43q13 -12 20 -12t9 7t6 42zM168 757h46l2 -3q37 -68 114 -68q75 0 114 68q0 3 2 3h46q-41 -114 -162 -114q-93 0 -142 70q-6 9 -20 44z" />
<glyph unicode="&#x11f;" d="M422 430h131v-47h-81v-353q0 -96 -50 -141.5t-179 -45.5h-63v47q51 0 77 1t59 5t48.5 12.5t31 24t21 39.5t5.5 58v58h-2q-15 -24 -58 -51t-101 -27q-90 0 -152 63t-62 149q0 90 64 151t150 61q16 0 35 -2t59 -21.5t65 -53.5h2v73zM422 220q0 72 -47 118t-112 46 q-64 0 -113 -46t-49 -115q0 -68 47.5 -115.5t114.5 -47.5q69 0 114 48t45 112zM138 624h46l2 -3q37 -68 114 -68q75 0 114 68q0 3 2 3h46q-41 -114 -162 -114q-93 0 -142 70q-6 9 -20 44z" />
<glyph unicode="&#x120;" d="M474 574h48q-2 -8 -2 -19q-4 -44 -4 -81q0 -43 6 -91l-43 -8q-3 20 -6.5 34t-15 39t-28 41t-47 28.5t-70.5 12.5q-89 0 -149.5 -70.5t-60.5 -179.5t57.5 -178t166.5 -69q61 0 153 32v135h-148v47h247v-47h-48v-168q-116 -49 -205 -49q-73 0 -129 27t-87 72t-46 94.5 t-15 102.5q0 123 72 212t194 89q72 0 125 -43q13 -12 20 -12t9 7t6 42zM264 646v108h72v-108h-72z" />
<glyph unicode="&#x121;" d="M422 430h131v-47h-81v-353q0 -96 -50 -141.5t-179 -45.5h-63v47q51 0 77 1t59 5t48.5 12.5t31 24t21 39.5t5.5 58v58h-2q-15 -24 -58 -51t-101 -27q-90 0 -152 63t-62 149q0 90 64 151t150 61q16 0 35 -2t59 -21.5t65 -53.5h2v73zM422 220q0 72 -47 118t-112 46 q-64 0 -113 -46t-49 -115q0 -68 47.5 -115.5t114.5 -47.5q69 0 114 48t45 112zM264 513v108h72v-108h-72z" />
<glyph unicode="&#x122;" d="M336 -17l-1 -8q30 -4 47.5 -19t20 -25t2.5 -18q0 -7 -2 -14.5t-9 -18.5t-25 -18t-44 -7q-43 0 -110 15l7 44q56 -14 102 -14q34 0 34 13t-17.5 17.5t-54.5 7.5l6 47q-55 5 -98.5 26.5t-70 52t-44 68.5t-24.5 74.5t-7 72.5q0 123 72 212t194 89q72 0 125 -43 q13 -12 20 -12t9 7t6 42h48q-6 -74 -6 -100q0 -43 6 -91l-43 -8q-3 20 -6.5 34t-15 39t-28 41t-47 28.5t-70.5 12.5q-88 0 -149 -67.5t-61 -183.5q0 -108 57.5 -177t166.5 -69q61 0 153 32v135h-148v47h247v-47h-48v-168q-106 -44 -194 -49z" />
<glyph unicode="&#x124;" d="M39 563h200v-47h-75v-202h272v202h-75v47h201v-47h-76v-469h76v-47h-201v47h75v220h-272v-220h75v-47h-200v47h75v469h-75v47zM259 754h77l92 -94l-32 -25l-101 66l-91 -66l-33 24z" />
<glyph unicode="&#x125;" d="M25 617l147 12v-255q30 22 49.5 34t54 24.5t67.5 12.5q68 0 108 -45.5t40 -119.5v-233h84v-47h-219v47h85v229q0 54 -26 86.5t-70 32.5q-75 0 -173 -80v-268h79v-47h-213v47h84v531l-93 -8zM259 785h77l92 -94l-32 -25l-101 66l-91 -66l-33 24z" />
<glyph unicode="&#x126;" d="M164 445h272v71h-75v47h201v-47h-76v-71h76v-47h-76v-351h76v-47h-201v47h75v220h-272v-220h75v-47h-200v47h75v351h-75v47h75v71h-75v47h200v-47h-75v-71zM436 398h-272v-84h272v84z" />
<glyph unicode="&#x127;" d="M172 520h228v-47h-228v-111q30 21 49 32.5t53.5 24t68.5 12.5q65 0 106.5 -42.5t41.5 -120.5v-221h84v-47h-219v47h85v216q0 54 -25.5 86t-70.5 32q-78 0 -173 -78v-256h79v-47h-213v47h84v426h-97v47h97v58l-93 -8l-4 47l147 12v-109z" />
<glyph unicode="&#x128;" d="M100 563h400v-47h-175v-469h175v-47h-400v47h175v469h-175v47zM420 752l40 -13q-2 -2 -2 -7q-12 -40 -38.5 -62.5t-59.5 -22.5q-31 0 -71 32q-39 29 -55 29q-32 0 -52 -52l-2 -6l-40 14q32 89 94 89q34 0 74 -34q36 -27 55 -27q36 0 57 60z" />
<glyph unicode="&#x129;" d="M130 430h197v-383h173v-47h-399v47h176v336h-147v47zM420 619l40 -13q-2 -2 -2 -7q-12 -40 -38.5 -62.5t-59.5 -22.5q-31 0 -71 32q-39 29 -55 29q-32 0 -52 -52l-2 -6l-40 14q32 89 94 89q34 0 74 -34q36 -27 55 -27q36 0 57 60z" />
<glyph unicode="&#x12a;" d="M100 563h400v-47h-175v-469h175v-47h-400v47h175v469h-175v47zM130 725h340v-50h-340v50z" />
<glyph unicode="&#x12b;" d="M130 430h197v-383h173v-47h-399v47h176v336h-147v47zM130 592h340v-50h-340v50z" />
<glyph unicode="&#x12e;" d="M378 -40l-10 -53q-28 -24 -59 -24q-25 0 -41.5 17t-16.5 41q0 34 35 57v2h-186v47h175v469h-175v47h400v-47h-175v-469h175v-47h-131q-59 -18 -59 -46q0 -9 6 -14t13 -5q10 0 16.5 3.5t32.5 21.5z" />
<glyph unicode="&#x12f;" d="M378 -40l-10 -53q-28 -24 -59 -24q-25 0 -41.5 17t-16.5 41q0 34 35 57v2h-185v47h176v336h-147v47h197v-383h173v-47h-131q-59 -18 -59 -46q0 -9 6 -14t13 -5q10 0 16.5 3.5t32.5 21.5zM254 537v119h73v-119h-73z" />
<glyph unicode="&#x130;" d="M100 563h400v-47h-175v-469h175v-47h-400v47h175v469h-175v47zM264 646v108h72v-108h-72z" />
<glyph unicode="&#x131;" d="M130 430h197v-383h173v-47h-399v47h176v336h-147v47z" />
<glyph unicode="&#x132;" d="M47 563h225v-47h-88v-469h88v-47h-225v47h87v469h-87v47zM357 563h212v-47h-64v-312q0 -33 -0.5 -51t-3 -48.5t-9.5 -48t-17.5 -36.5t-29 -28t-43.5 -9q-72 0 -114 64l-5 168h51v-49q3 -70 7 -88t19 -31q15 -14 37 -14q36 0 47 37.5t11 133.5v312h-98v47z" />
<glyph unicode="&#x133;" d="M146 430h159v-430h-187v47h137v336h-109v47zM233 537v119h72v-119h-72zM342 430h140v-390q0 -17 -0.5 -28t-4 -33t-10 -37t-20.5 -34t-33 -31t-49.5 -20t-69.5 -8q-50 0 -135 17l12 49q59 -16 126 -16q38 0 65 10.5t40 24t20 37.5t8 38t1 38v336h-90v47zM390 537v119h72 v-119h-72z" />
<glyph unicode="&#x134;" d="M205 563h374v-47h-127v-312q0 -113 -29 -157q-22 -32 -60 -48t-75 -16q-80 0 -201 56l-19 8l-9 216h49l4 -97q2 -42 10.5 -63.5t36.5 -38.5q49 -31 118 -31q36 0 60.5 11t37 25t19 41t7.5 44.5t1 49.5v312h-197v47zM359 754h77l92 -94l-32 -25l-101 66l-91 -66l-33 24z " />
<glyph unicode="&#x135;" d="M85 430h305v-390q0 -17 -0.5 -28t-4 -33t-10 -37t-20.5 -34t-33 -31t-49.5 -20t-69.5 -8q-54 0 -135 17l11 48q65 -15 127 -15q38 0 65 11t40 24.5t20 37t8 37.5t1 38v336h-255v47zM202 621h76l93 -94l-32 -25l-101 66l-92 -66l-32 24z" />
<glyph unicode="&#x136;" d="M60 563h219v-47h-85v-245l252 245h-82v47h195v-47h-45l-217 -211q50 -25 98 -80.5t101 -177.5h92v-47h-128q-17 46 -65 135q-31 52 -60.5 83.5t-71.5 52.5l-69 -66v-158h85v-47h-219v47h84v469h-84v47zM349 0l-3 -25q30 -4 47.5 -19t20 -25t2.5 -18q0 -7 -2 -14.5 t-9 -18.5t-25 -18t-44 -7q-42 0 -110 15l7 44q56 -14 102 -14q34 0 34 13t-17.5 17.5t-54.5 7.5l7 62h45z" />
<glyph unicode="&#x137;" d="M36 616l149 13v-390l187 142v2h-56v47h209v-47h-78l-168 -129q129 -116 200 -207h84v-47h-208v47h64q-52 62 -178 179l-56 -43v-183h-133v47h83v530l-95 -8zM302 0l-3 -25q31 -4 48.5 -19t20 -25t2.5 -18q0 -7 -2 -14.5t-9 -18.5t-25 -18t-45 -7q-43 0 -110 15l7 44 q56 -14 103 -14q34 0 34 13t-17.5 17.5t-54.5 7.5l7 62h44z" />
<glyph unicode="&#x138;" d="M185 239l187 142v2h-56v47h210v-47h-79l-168 -129q131 -118 200 -207h84v-47h-207v47h63q-52 62 -178 179l-56 -43v-183h-132v47h82v336h-98v47h148v-191z" />
<glyph unicode="&#x139;" d="M59 563h273v-47h-123v-469h283l14 202h47l-11 -249h-483v47h100v469h-100v47zM311 751l-143 -115h-53l89 115h107z" />
<glyph unicode="&#x13a;" d="M107 597l218 14v-564h174v-47h-398v47h174v516l-163 -12zM399 765l-143 -115h-53l89 115h107z" />
<glyph unicode="&#x13b;" d="M331 0l-3 -25q29 -4 46 -17.5t20.5 -24t3.5 -20.5q0 -11 -3 -21.5t-22.5 -23.5t-54.5 -13q-42 0 -110 15l7 44q56 -14 103 -14q33 0 33 13t-17.5 17.5t-53.5 7.5l7 62h-228v47h100v469h-100v47h273v-47h-123v-469h283l14 202h47l-11 -249h-211z" />
<glyph unicode="&#x13c;" d="M325 0l-3 -25q30 -4 47.5 -19t20 -25t2.5 -18q0 -7 -2 -14.5t-9 -18.5t-25 -18t-44 -7q-42 0 -110 15l7 44q56 -14 102 -14q34 0 34 13t-17.5 17.5t-54.5 7.5l7 62h-179v47h174v516l-163 -12l-5 46l218 14v-564h174v-47h-174z" />
<glyph unicode="&#x13d;" d="M59 563h273v-47h-123v-469h283l14 202h47l-11 -249h-483v47h100v469h-100v47zM240 642h-76l-93 94l32 24l101 -65l92 66l32 -25z" />
<glyph unicode="&#x13e;" d="M107 597l218 14v-564h174v-47h-398v47h174v516l-163 -12zM328 653h-76l-93 94l32 24l101 -65l92 66l32 -25z" />
<glyph unicode="&#x13f;" d="M59 563h273v-47h-123v-469h283l14 202h47l-11 -249h-483v47h100v469h-100v47zM365 381q29 0 52.5 -18.5t23.5 -48.5q0 -31 -23.5 -49.5t-53.5 -18.5q-29 0 -52.5 19t-23.5 49t23.5 48.5t53.5 18.5z" />
<glyph unicode="&#x140;" d="M107 597l218 14v-564h174v-47h-398v47h174v516l-163 -12zM494 373q30 0 53 -19t23 -49q0 -31 -23.5 -49t-52.5 -18t-53 18t-24 49t23.5 49.5t53.5 18.5z" />
<glyph unicode="&#x141;" d="M209 321l191 109l23 -40l-214 -124v-219h283l14 202h47l-11 -249h-483v47h100v197l-79 -46l-21 41l100 59v218h-100v47h273v-47h-123v-195z" />
<glyph unicode="&#x142;" d="M325 352l136 78l23 -40l-159 -92v-251h174v-47h-398v47h174v230l-136 -79l-23 41l159 92v232l-163 -12l-5 46l218 14v-259z" />
<glyph unicode="&#x143;" d="M28 563h171l263 -521h18v474h-112v47h223v-47h-65v-529h-89l-268 529h-17v-469h113v-47h-237v47h78v469h-78v47zM411 751l-143 -115h-53l89 115h107z" />
<glyph unicode="&#x144;" d="M34 430h132v-56q32 23 50 34t53 24t69 13q68 0 108.5 -46t40.5 -119v-233h80v-47h-216v47h86v229q0 55 -27 87t-71 32q-72 0 -173 -80v-268h84v-47h-216v47h82v336h-82v47zM411 618l-143 -115h-53l89 115h107z" />
<glyph unicode="&#x145;" d="M28 563h171l263 -521h18v474h-112v47h223v-47h-65v-529h-89l-268 529h-17v-469h113v-47h-237v47h78v469h-78v47zM334 0l-3 -25q31 -4 48.5 -19t20 -25t2.5 -18q0 -7 -2 -14.5t-9 -18.5t-25 -18t-45 -7q-43 0 -110 15l8 44q54 -14 102 -14q34 0 34 13t-17.5 17.5 t-54.5 7.5l7 62h44z" />
<glyph unicode="&#x146;" d="M34 430h132v-56q32 23 50 34t53 24t69 13q68 0 108.5 -46t40.5 -119v-233h80v-47h-216v47h86v229q0 55 -27 87t-71 32q-72 0 -173 -80v-268h84v-47h-216v47h82v336h-82v47zM325 0l-3 -25q30 -4 47.5 -19t20 -25t2.5 -18q0 -7 -2 -14.5t-9 -18.5t-25 -18t-44 -7 q-42 0 -110 15l7 44q56 -14 102 -14q34 0 34 13t-17.5 17.5t-54.5 7.5l7 62h45z" />
<glyph unicode="&#x147;" d="M28 563h171l263 -521h18v474h-112v47h223v-47h-65v-529h-89l-268 529h-17v-469h113v-47h-237v47h78v469h-78v47zM340 642h-76l-93 94l32 24l101 -65l92 66l32 -25z" />
<glyph unicode="&#x148;" d="M34 430h132v-56q32 23 50 34t53 24t69 13q68 0 108.5 -46t40.5 -119v-233h80v-47h-216v47h86v229q0 55 -27 87t-71 32q-72 0 -173 -80v-268h84v-47h-216v47h82v336h-82v47zM340 509h-76l-93 94l32 24l101 -65l92 66l32 -25z" />
<glyph unicode="&#x14a;" d="M44 563h135v-67q116 80 202 80q73 0 109 -50t36 -115v-390q0 -75 -47.5 -116.5t-108.5 -41.5h-76v50h76q40 0 66 22t33 44t7 42v389q0 52 -26 84t-76 32q-49 0 -101.5 -27.5t-93.5 -68.5v-383h84v-47h-219v47h85v469h-85v47z" />
<glyph unicode="&#x14b;" d="M166 315v-268h84v-47h-216v47h82v336h-82v47h132v-56q32 23 50 34t53 24t69 13q68 0 108.5 -45.5t40.5 -117.5v-261q0 -77 -48 -118.5t-109 -41.5h-67v50h67q52 0 79.5 35t27.5 75v255q0 57 -28 88t-69 31q-31 0 -65.5 -14t-53 -26.5t-55.5 -39.5z" />
<glyph unicode="&#x14c;" d="M43 281q0 127 71 213t186 86q116 0 186.5 -86.5t70.5 -212.5q0 -125 -70.5 -211.5t-186.5 -86.5q-115 0 -186 86t-71 212zM97 282q0 -98 54.5 -173.5t148.5 -75.5t148.5 74.5t54.5 174.5q0 101 -55 174.5t-148 73.5q-96 0 -149.5 -75.5t-53.5 -172.5zM130 725h340v-50 h-340v50z" />
<glyph unicode="&#x14d;" d="M52 218q0 96 66 164t182 68q118 0 183 -69t65 -163t-65 -163t-183 -69q-116 0 -182 68.5t-66 163.5zM106 218q0 -75 52 -128.5t142 -53.5q91 0 142.5 54t51.5 128q0 75 -51.5 128.5t-142.5 53.5q-90 0 -142 -53.5t-52 -128.5zM130 592h340v-50h-340v50z" />
<glyph unicode="&#x150;" d="M43 281q0 127 71 213t186 86q116 0 186.5 -86.5t70.5 -212.5q0 -125 -70.5 -211.5t-186.5 -86.5q-115 0 -186 86t-71 212zM97 282q0 -98 54.5 -173.5t148.5 -75.5t148.5 74.5t54.5 174.5q0 101 -55 174.5t-148 73.5q-96 0 -149.5 -75.5t-53.5 -172.5zM354 750l-130 -113 h-44l98 113h76zM480 750l-130 -113h-44l98 113h76z" />
<glyph unicode="&#x151;" d="M52 218q0 96 66 164t182 68q118 0 183 -69t65 -163t-65 -163t-183 -69q-116 0 -182 68.5t-66 163.5zM106 218q0 -75 52 -128.5t142 -53.5q91 0 142.5 54t51.5 128q0 75 -51.5 128.5t-142.5 53.5q-90 0 -142 -53.5t-52 -128.5zM354 617l-130 -113h-44l98 113h76zM480 617 l-130 -113h-44l98 113h76z" />
<glyph unicode="&#x152;" d="M279 563h258v-180h-44l-9 133h-132v-194h65v73h46v-193h-46v73h-65v-228h146l6 138h46v-185h-308q-73 0 -126.5 46t-76.5 107t-23 124q0 122 73 204t190 82zM302 47v469h-26q-96 0 -151 -68t-55 -168q0 -39 11 -78t32 -74.5t59 -58t86 -22.5h44z" />
<glyph unicode="&#x153;" d="M562 205h-242q-1 -49 10 -85t30 -53.5t37.5 -25.5t37.5 -8q43 0 115 22l18 -43q-79 -27 -131 -27q-95 0 -137 93q-43 -93 -137 -93q-37 0 -65 12.5t-43.5 35.5t-25.5 44.5t-13.5 50t-4.5 41t-1 28.5q0 68 15.5 123t54 93t96.5 38q52 0 82.5 -28t41.5 -55q22 40 55.5 61 t68.5 21q48 0 81.5 -35.5t46 -78.5t12.5 -85q0 -28 -2 -46zM270 211q0 61 -7.5 101t-22 59t-29.5 25.5t-35 6.5q-39 0 -65 -32.5t-36.5 -76.5t-10.5 -94q0 -42 7.5 -77t31 -62.5t59.5 -27.5q108 0 108 178zM320 249h194q0 63 -23 108t-67 45q-11 0 -25 -5.5t-33 -19.5 t-32 -47.5t-14 -80.5z" />
<glyph unicode="&#x154;" d="M45 563h257q53 0 82 -5t54 -22q26 -18 43.5 -53t17.5 -71q0 -53 -37 -99t-116 -54q36 -34 143 -212h88v-47h-125q-34 74 -96 171q-24 37 -35 51.5t-29 25t-43 10.5h-72v-211h89v-47h-221v47h82v469h-82v47zM300 516h-123v-211h93q25 0 39.5 0.5t44 6t46.5 16t31 33 t14 54.5q0 55 -42 84q-25 17 -103 17zM411 751l-143 -115h-53l89 115h107z" />
<glyph unicode="&#x155;" d="M83 430h166v-100q25 25 39.5 38t43.5 34.5t59.5 31.5t64.5 10q29 0 52.5 -9.5t34.5 -19t25 -26.5l-53 -39q-4 4 -4 7q-8 12 -12.5 17.5t-18.5 12.5t-32 7q-30 0 -61 -13t-60 -38t-43 -39.5t-35 -37.5v-219h190v-47h-364v47h124v336h-116v47zM411 618l-143 -115h-53 l89 115h107z" />
<glyph unicode="&#x156;" d="M45 563h257q53 0 82 -5t54 -22q26 -18 43.5 -53t17.5 -71q0 -53 -37 -99t-116 -54q36 -34 143 -212h88v-47h-125q-34 74 -96 171q-24 37 -35 51.5t-29 25t-43 10.5h-72v-211h89v-47h-221v47h82v469h-82v47zM300 516h-123v-211h93q25 0 39.5 0.5t44 6t46.5 16t31 33 t14 54.5q0 55 -42 84q-25 17 -103 17zM336 0l-3 -25q31 -4 48.5 -19t20 -25t2.5 -18q0 -7 -2 -14.5t-9 -18.5t-25 -18t-45 -7q-43 0 -110 15l8 44q54 -14 102 -14q34 0 34 13t-17.5 17.5t-54.5 7.5l7 62h44z" />
<glyph unicode="&#x157;" d="M346 0l-3 -25q31 -4 48 -19t19.5 -24.5t2.5 -18.5q0 -11 -3 -21.5t-22.5 -23.5t-54.5 -13q-43 0 -110 15l7 44q56 -14 103 -14q34 0 34 13t-17.5 17.5t-54.5 7.5l7 62h-227v47h124v336h-116v47h166v-100q25 25 39.5 38t43.5 34.5t59.5 31.5t64.5 10q29 0 52.5 -9.5 t34.5 -19t25 -26.5l-53 -39q-10 15 -16 22.5t-19.5 14.5t-31.5 7q-30 0 -61 -13t-60 -38t-43 -39.5t-35 -37.5v-219h190v-47h-93z" />
<glyph unicode="&#x158;" d="M45 563h257q53 0 82 -5t54 -22q26 -18 43.5 -53t17.5 -71q0 -53 -37 -99t-116 -54q36 -34 143 -212h88v-47h-125q-34 74 -96 171q-24 37 -35 51.5t-29 25t-43 10.5h-72v-211h89v-47h-221v47h82v469h-82v47zM300 516h-123v-211h93q25 0 39.5 0.5t44 6t46.5 16t31 33 t14 54.5q0 55 -42 84q-25 17 -103 17zM340 642h-76l-93 94l32 24l101 -65l92 66l32 -25z" />
<glyph unicode="&#x159;" d="M83 430h166v-100q25 25 39.5 38t43.5 34.5t59.5 31.5t64.5 10q29 0 52.5 -9.5t34.5 -19t25 -26.5l-53 -39q-4 4 -4 7q-8 12 -12.5 17.5t-18.5 12.5t-32 7q-30 0 -61 -13t-60 -38t-43 -39.5t-35 -37.5v-219h190v-47h-364v47h124v336h-116v47zM340 509h-76l-93 94l32 24 l101 -65l92 66l32 -25z" />
<glyph unicode="&#x15a;" d="M462 574h45q-9 -39 -9 -72q0 -46 9 -119l-45 -8q-8 59 -31 94q-40 61 -127 61q-72 0 -111.5 -37t-39.5 -81q0 -32 15.5 -54t44 -32.5t46.5 -14t46 -6.5q63 -7 92.5 -13.5t53.5 -22.5q62 -42 62 -116q0 -81 -62 -125.5t-143 -44.5q-82 0 -137 46q-4 4 -8 4q-5 0 -10 -8 q-4 -12 -9 -45h-45q9 43 9 89q0 22 -9 106h45q12 -60 34 -89q40 -53 123 -53t120.5 35t37.5 81q0 25 -10 43.5t-23.5 29t-35 17.5t-35.5 9t-35 4q-34 3 -54.5 6t-56 14t-56.5 26t-37.5 43.5t-16.5 66.5q0 70 57.5 121t141.5 51q72 0 124 -41q19 -14 23 -14q6 0 8 5t7 31 q2 8 2 13zM411 751l-143 -115h-53l89 115h107z" />
<glyph unicode="&#x15b;" d="M437 450l45 -7q-9 -47 -9 -86q0 -21 5 -63l-44 -5q-4 21 -9 34t-20 32t-47 28.5t-81 9.5q-57 0 -90.5 -21t-33.5 -53q0 -18 6 -31t22 -21.5t30 -14t43.5 -8.5t47.5 -4.5t57 -3.5q13 -1 24.5 -2t35.5 -8t41 -17.5t30.5 -32.5t13.5 -52q0 -67 -58.5 -103t-132.5 -36 q-73 0 -147 42q-3 2 -5 2q-9 0 -20 -42h-44q6 34 6 63q0 30 -6 99l44 5q3 -15 5.5 -26t13.5 -30t27 -31.5t46 -22t69 -9.5q20 0 41 3t47.5 11t43 27t16.5 46q0 22 -9.5 35t-32.5 19.5t-42.5 8.5t-58.5 3q-208 8 -208 129q0 54 49.5 90t127.5 36q68 0 115 -29q9 -9 22 -9 q10 0 18 24zM411 618l-143 -115h-53l89 115h107z" />
<glyph unicode="&#x15c;" d="M462 574h45q-9 -39 -9 -72q0 -46 9 -119l-45 -8q-8 59 -31 94q-40 61 -127 61q-72 0 -111.5 -37t-39.5 -81q0 -32 15.5 -54t44 -32.5t46.5 -14t46 -6.5q63 -7 92.5 -13.5t53.5 -22.5q62 -42 62 -116q0 -81 -62 -125.5t-143 -44.5q-82 0 -137 46q-4 4 -8 4q-5 0 -10 -8 q-4 -12 -9 -45h-45q9 43 9 89q0 22 -9 106h45q12 -60 34 -89q40 -53 123 -53t120.5 35t37.5 81q0 25 -10 43.5t-23.5 29t-35 17.5t-35.5 9t-35 4q-34 3 -54.5 6t-56 14t-56.5 26t-37.5 43.5t-16.5 66.5q0 70 57.5 121t141.5 51q72 0 124 -41q19 -14 23 -14q6 0 8 5t7 31 q2 8 2 13zM259 754h77l92 -94l-32 -25l-101 66l-91 -66l-33 24z" />
<glyph unicode="&#x15d;" d="M437 450l45 -7q-9 -47 -9 -86q0 -21 5 -63l-44 -5q-4 21 -9 34t-20 32t-47 28.5t-81 9.5q-57 0 -90.5 -21t-33.5 -53q0 -18 6 -31t22 -21.5t30 -14t43.5 -8.5t47.5 -4.5t57 -3.5q13 -1 24.5 -2t35.5 -8t41 -17.5t30.5 -32.5t13.5 -52q0 -67 -58.5 -103t-132.5 -36 q-73 0 -147 42q-3 2 -5 2q-9 0 -20 -42h-44q6 34 6 63q0 30 -6 99l44 5q3 -15 5.5 -26t13.5 -30t27 -31.5t46 -22t69 -9.5q20 0 41 3t47.5 11t43 27t16.5 46q0 22 -9.5 35t-32.5 19.5t-42.5 8.5t-58.5 3q-208 8 -208 129q0 54 49.5 90t127.5 36q68 0 115 -29q9 -9 22 -9 q10 0 18 24zM259 621h77l92 -94l-32 -25l-101 66l-91 -66l-33 24z" />
<glyph unicode="&#x15e;" d="M328 -16l-1 -9q31 -4 48.5 -19t20 -25t2.5 -18q0 -7 -2 -14.5t-9 -18.5t-25 -18t-45 -7q-43 0 -110 15l7 44q56 -14 103 -14q34 0 34 13t-17.5 17.5t-54.5 7.5l5 46q-50 4 -89 28q-2 1 -9 6.5t-14 10t-9 4.5q-5 0 -10 -8q-4 -12 -9 -45h-45q9 43 9 89q0 22 -9 106h45 q5 -27 11.5 -44.5t22.5 -43.5t47.5 -40t76.5 -14q75 0 116 32.5t41 82.5q0 31 -13.5 52t-38 31t-43 14t-44.5 7q-34 3 -54.5 6t-56 14t-56.5 26t-37.5 43.5t-16.5 66.5q0 70 57.5 121t141.5 51q72 0 124 -41q19 -14 23 -14q5 0 11 13q6 24 6 36h45q-9 -39 -9 -72 q0 -46 9 -119l-45 -8q-4 25 -9 43t-20.5 48t-48.5 47t-80 17q-68 0 -109.5 -35.5t-41.5 -82.5q0 -32 15.5 -54t44 -32.5t46.5 -14t46 -6.5q63 -7 92.5 -13.5t53.5 -22.5q62 -41 62 -116q0 -60 -43.5 -109.5t-141.5 -59.5z" />
<glyph unicode="&#x15f;" d="M324 -15l-2 -10q31 -4 48.5 -19t20 -25t2.5 -18q0 -7 -2 -14.5t-9 -18.5t-25 -18t-45 -7q-42 0 -110 15l7 44q56 -14 103 -14q34 0 34 13t-17.5 17.5t-54.5 7.5l6 49q-46 8 -79 22l-40 20q-9 0 -20 -42h-44q6 34 6 63q0 30 -6 99l44 5q3 -15 5.5 -26t13.5 -30t27 -31.5 t46 -22t69 -9.5q19 0 40.5 3t47.5 11.5t43 27.5t17 46q0 18 -8 30t-17.5 18t-32 10t-38 5t-47.5 2q-208 8 -208 129q0 54 49.5 90t127.5 36q62 0 104 -23q3 -2 16.5 -8.5t16.5 -6.5q6 0 9.5 6.5t14.5 38.5l45 -7q-9 -47 -9 -86q0 -21 5 -63l-44 -5q-4 17 -6.5 26.5t-13 26.5 t-25.5 26.5t-44 17t-68 7.5q-57 0 -90.5 -21.5t-33.5 -53.5q0 -18 6 -31t22.5 -21.5t29.5 -13.5t44 -8.5t47 -4.5t57 -3q17 -1 34 -4t46 -13t47 -35t18 -61q0 -57 -47.5 -95t-132.5 -43z" />
<glyph unicode="&#x160;" d="M462 574h45q-9 -39 -9 -72q0 -46 9 -119l-45 -8q-8 59 -31 94q-40 61 -127 61q-72 0 -111.5 -37t-39.5 -81q0 -32 15.5 -54t44 -32.5t46.5 -14t46 -6.5q63 -7 92.5 -13.5t53.5 -22.5q62 -42 62 -116q0 -81 -62 -125.5t-143 -44.5q-82 0 -137 46q-4 4 -8 4q-5 0 -10 -8 q-4 -12 -9 -45h-45q9 43 9 89q0 22 -9 106h45q12 -60 34 -89q40 -53 123 -53t120.5 35t37.5 81q0 25 -10 43.5t-23.5 29t-35 17.5t-35.5 9t-35 4q-34 3 -54.5 6t-56 14t-56.5 26t-37.5 43.5t-16.5 66.5q0 70 57.5 121t141.5 51q72 0 124 -41q19 -14 23 -14q6 0 8 5t7 31 q2 8 2 13zM340 642h-76l-93 94l32 24l101 -65l92 66l32 -25z" />
<glyph unicode="&#x161;" d="M437 450l45 -7q-9 -47 -9 -86q0 -21 5 -63l-44 -5q-4 21 -9 34t-20 32t-47 28.5t-81 9.5q-57 0 -90.5 -21t-33.5 -53q0 -18 6 -31t22 -21.5t30 -14t43.5 -8.5t47.5 -4.5t57 -3.5q13 -1 24.5 -2t35.5 -8t41 -17.5t30.5 -32.5t13.5 -52q0 -67 -58.5 -103t-132.5 -36 q-73 0 -147 42q-3 2 -5 2q-9 0 -20 -42h-44q6 34 6 63q0 30 -6 99l44 5q3 -15 5.5 -26t13.5 -30t27 -31.5t46 -22t69 -9.5q20 0 41 3t47.5 11t43 27t16.5 46q0 22 -9.5 35t-32.5 19.5t-42.5 8.5t-58.5 3q-208 8 -208 129q0 54 49.5 90t127.5 36q68 0 115 -29q9 -9 22 -9 q10 0 18 24zM340 509h-76l-93 94l32 24l101 -65l92 66l32 -25z" />
<glyph unicode="&#x162;" d="M315 0l-3 -25q29 -4 46 -17.5t20.5 -24t3.5 -20.5q0 -7 -2 -14.5t-9 -18.5t-25 -18t-44 -7q-42 0 -110 15l7 44q56 -14 102 -14q34 0 34 13t-17.5 17.5t-54.5 7.5l7 62h-116v47h121v469h-170l-14 -195l-48 6l17 236h480l17 -236l-48 -6l-14 195h-170v-469h121v-47h-131z " />
<glyph unicode="&#x163;" d="M345 -14l-1 -11q31 -4 48 -19t19.5 -24.5t2.5 -18.5q0 -11 -3 -21.5t-22.5 -23.5t-54.5 -13q-42 0 -110 15l7 44q56 -14 103 -14q33 0 33 13t-17.5 17.5t-53.5 7.5l6 50q-37 5 -62.5 19.5t-38.5 30t-19.5 43.5t-7.5 46.5t-1 52.5v189h-68v47h68v147h50v-147h242v-47h-242 v-188q0 -30 0.5 -44.5t6 -37.5t15.5 -34t31 -20t51 -9q69 0 193 52l18 -45q-112 -52 -193 -57z" />
<glyph unicode="&#x164;" d="M60 563h480l17 -236l-48 -6l-14 195h-170v-469h121v-47h-292v47h121v469h-170l-14 -195l-48 6zM340 642h-76l-93 94l32 24l101 -65l92 66l32 -25z" />
<glyph unicode="&#x165;" d="M173 563h50v-147h242v-47h-242v-189q0 -30 0.5 -44.5t6 -37.5t15.5 -33.5t31 -19.5t51 -9q69 0 193 52l18 -45q-126 -57 -206 -57q-79 0 -124 45q-24 24 -29.5 55.5t-5.5 93.5v189h-68v47h68v147zM263 601h-76l-93 94l32 24l101 -65l92 66l32 -25z" />
<glyph unicode="&#x166;" d="M325 354h140v-47h-140v-260h123v-47h-294v47h121v260h-140v47h140v162h-170l-13 -195l-49 6l17 236h480l17 -236l-48 -6l-14 195h-170v-162z" />
<glyph unicode="&#x167;" d="M223 306h242v-47h-242v-79q0 -29 1 -45t6.5 -38t16 -33t30.5 -19.5t50 -8.5q68 0 193 52l18 -45q-124 -57 -207 -57q-78 0 -123 45q-24 24 -29.5 55.5t-5.5 93.5v79h-67v47h67v63h-67v47h67v147h50v-147h242v-47h-242v-63z" />
<glyph unicode="&#x168;" d="M24 563h224v-47h-102v-282q0 -91 19 -130q34 -71 134 -71q104 0 136 63q20 36 20 128v292h-102v47h224v-47h-72v-292q0 -118 -36 -168q-20 -28 -64 -50.5t-105 -22.5q-115 0 -170 78q-34 49 -34 173v282h-72v47zM420 752l40 -13q-2 -2 -2 -7q-12 -40 -38.5 -62.5 t-59.5 -22.5q-31 0 -71 32q-39 29 -55 29q-32 0 -52 -52l-2 -6l-40 14q32 89 94 89q34 0 74 -34q36 -27 55 -27q36 0 57 60z" />
<glyph unicode="&#x169;" d="M32 430h132v-265q0 -129 100 -129q83 0 161 87v260h-86v47h136v-383h81v-47h-131v55q-77 -69 -157 -69q-45 0 -77 16.5t-48 44t-22.5 56.5t-6.5 62v218h-82v47zM420 619l40 -13q-2 -2 -2 -7q-12 -40 -38.5 -62.5t-59.5 -22.5q-31 0 -71 32q-39 29 -55 29q-32 0 -52 -52 l-2 -6l-40 14q32 89 94 89q34 0 74 -34q36 -27 55 -27q36 0 57 60z" />
<glyph unicode="&#x16a;" d="M24 563h224v-47h-102v-282q0 -91 19 -130q34 -71 134 -71q104 0 136 63q20 36 20 128v292h-102v47h224v-47h-72v-292q0 -118 -36 -168q-20 -28 -64 -50.5t-105 -22.5q-115 0 -170 78q-34 49 -34 173v282h-72v47zM130 725h340v-50h-340v50z" />
<glyph unicode="&#x16b;" d="M32 430h132v-265q0 -129 100 -129q83 0 161 87v260h-86v47h136v-383h81v-47h-131v55q-77 -69 -157 -69q-45 0 -77 16.5t-48 44t-22.5 56.5t-6.5 62v218h-82v47zM130 592h340v-50h-340v50z" />
<glyph unicode="&#x16c;" d="M24 563h224v-47h-102v-282q0 -91 19 -130q34 -71 134 -71q104 0 136 63q20 36 20 128v292h-102v47h224v-47h-72v-292q0 -118 -36 -168q-20 -28 -64 -50.5t-105 -22.5q-115 0 -170 78q-34 49 -34 173v282h-72v47zM138 757h46l2 -3q37 -68 114 -68q75 0 114 68q0 3 2 3h46 q-41 -114 -162 -114q-93 0 -142 70q-6 9 -20 44z" />
<glyph unicode="&#x16d;" d="M32 430h132v-265q0 -129 100 -129q83 0 161 87v260h-86v47h136v-383h81v-47h-131v55q-77 -69 -157 -69q-45 0 -77 16.5t-48 44t-22.5 56.5t-6.5 62v218h-82v47zM138 624h46l2 -3q37 -68 114 -68q75 0 114 68q0 3 2 3h46q-41 -114 -162 -114q-93 0 -142 70q-6 9 -20 44z " />
<glyph unicode="&#x16e;" d="M24 563h224v-47h-102v-282q0 -91 19 -130q34 -71 134 -71q104 0 136 63q20 36 20 128v292h-102v47h224v-47h-72v-292q0 -118 -36 -168q-20 -28 -64 -50.5t-105 -22.5q-115 0 -170 78q-34 49 -34 173v282h-72v47zM300 775q32 0 54 -22t22 -54t-22 -54t-54 -22t-54 22 t-22 54t22 54t54 22zM301 737q-16 0 -27.5 -10.5t-11.5 -27.5q0 -16 11.5 -27t27.5 -11t26.5 11t10.5 27t-10.5 27t-26.5 11z" />
<glyph unicode="&#x16f;" d="M32 430h132v-265q0 -129 100 -129q83 0 161 87v260h-86v47h136v-383h81v-47h-131v55q-77 -69 -157 -69q-45 0 -77 16.5t-48 44t-22.5 56.5t-6.5 62v218h-82v47zM300 642q32 0 54 -22t22 -54t-22 -54t-54 -22t-54 22t-22 54t22 54t54 22zM301 604q-16 0 -27.5 -10.5 t-11.5 -27.5q0 -16 11.5 -27t27.5 -11t26.5 11t10.5 27t-10.5 27t-26.5 11z" />
<glyph unicode="&#x170;" d="M24 563h224v-47h-102v-282q0 -91 19 -130q34 -71 134 -71q104 0 136 63q20 36 20 128v292h-102v47h224v-47h-72v-292q0 -118 -36 -168q-20 -28 -64 -50.5t-105 -22.5q-115 0 -170 78q-34 49 -34 173v282h-72v47zM354 750l-130 -113h-44l98 113h76zM480 750l-130 -113h-44 l98 113h76z" />
<glyph unicode="&#x171;" d="M32 430h132v-265q0 -129 100 -129q83 0 161 87v260h-86v47h136v-383h81v-47h-131v55q-77 -69 -157 -69q-45 0 -77 16.5t-48 44t-22.5 56.5t-6.5 62v218h-82v47zM354 617l-130 -113h-44l98 113h76zM480 617l-130 -113h-44l98 113h76z" />
<glyph unicode="&#x172;" d="M404 -40l-9 -53q-28 -24 -59 -24q-25 0 -41.5 17t-16.5 41q0 23 16 42q-41 3 -73.5 13.5t-53 24.5t-35 36.5t-21.5 40t-10.5 45.5t-4 42.5t-0.5 40.5v8v282h-72v47h224v-47h-102v-282q0 -34 1 -53.5t9 -51.5t23 -50t45.5 -32t74.5 -14q29 0 51.5 4t38.5 13.5t28 19t19 26 t11 28t5.5 33t2 33t0.5 34.5v292h-102v47h224v-47h-72v-292q0 -106 -22.5 -150.5t-92.5 -75.5q-53 -22 -53 -44q0 -19 19 -19q13 0 48 25z" />
<glyph unicode="&#x173;" d="M514 -40l-10 -53q-26 -24 -58 -24q-25 0 -41.5 17t-16.5 41q0 36 37 61v53q-77 -69 -157 -69q-45 0 -77 16.5t-48 44t-22.5 56.5t-6.5 62v218h-82v47h132v-265q0 -128 100 -128q84 0 161 86v260h-86v47h136v-383h81v-47h-50q-21 -6 -40 -18.5t-19 -27.5q0 -19 19 -19 q13 0 48 25z" />
<glyph unicode="&#x178;" d="M32 563h196v-47h-76l151 -248l149 248h-78v47h194v-47h-63l-179 -298v-171h118v-47h-287v47h119v171l-181 298h-63v47zM199 646v108h72v-108h-72zM329 646v108h72v-108h-72z" />
<glyph unicode="&#x179;" d="M91 563h402v-41l-349 -475h325v162h47v-209h-432v47l345 469h-291v-146h-47v193zM411 751l-143 -115h-53l89 115h107z" />
<glyph unicode="&#x17a;" d="M114 430h382v-43l-324 -340h277v92h47v-139h-392v47l321 336h-264v-89h-47v136zM411 618l-143 -115h-53l89 115h107z" />
<glyph unicode="&#x17b;" d="M91 563h402v-41l-349 -475h325v162h47v-209h-432v47l345 469h-291v-146h-47v193zM264 646v108h72v-108h-72z" />
<glyph unicode="&#x17c;" d="M114 430h382v-43l-324 -340h277v92h47v-139h-392v47l321 336h-264v-89h-47v136zM264 513v108h72v-108h-72z" />
<glyph unicode="&#x17d;" d="M91 563h402v-41l-349 -475h325v162h47v-209h-432v47l345 469h-291v-146h-47v193zM340 642h-76l-93 94l32 24l101 -65l92 66l32 -25z" />
<glyph unicode="&#x17e;" d="M114 430h382v-43l-324 -340h277v92h47v-139h-392v47l321 336h-264v-89h-47v136zM340 509h-76l-93 94l32 24l101 -65l92 66l32 -25z" />
<glyph unicode="&#x192;" d="M509 660l-5 -51q-34 8 -72 8q-43 0 -73.5 -10t-45.5 -23t-23 -35t-9 -35t-1 -34v-55h176v-42h-176v-332q0 -38 -9 -62.5t-35 -44.5q-57 -43 -162 -43q-22 0 -50 4l4 50q40 -6 68 -6q36 0 70 9.5t49 27.5t15 72v325h-107v42h107v60q0 23 2.5 42t15 46t34 45.5t63.5 32 t100 13.5q34 0 64 -4z" />
<glyph unicode="&#x1f5;" d="M422 430h131v-47h-81v-353q0 -96 -50 -141.5t-179 -45.5h-63v47q51 0 77 1t59 5t48.5 12.5t31 24t21 39.5t5.5 58v58h-2q-15 -24 -58 -51t-101 -27q-90 0 -152 63t-62 149q0 90 64 151t150 61q16 0 35 -2t59 -21.5t65 -53.5h2v73zM422 220q0 72 -47 118t-112 46 q-64 0 -113 -46t-49 -115q0 -68 47.5 -115.5t114.5 -47.5q69 0 114 48t45 112zM411 618l-143 -115h-53l89 115h107z" />
<glyph unicode="&#x2c6;" d="M259 621h77l92 -94l-32 -25l-101 66l-91 -66l-33 24z" />
<glyph unicode="&#x2c7;" d="M340 509h-76l-93 94l32 24l101 -65l92 66l32 -25z" />
<glyph unicode="&#x2d8;" d="M138 624h46l2 -3q37 -68 114 -68q75 0 114 68q0 3 2 3h46q-41 -114 -162 -114q-93 0 -142 70q-6 9 -20 44z" />
<glyph unicode="&#x2d9;" d="M264 513v108h72v-108h-72z" />
<glyph unicode="&#x2da;" d="M300 642q32 0 54 -22t22 -54t-22 -54t-54 -22t-54 22t-22 54t22 54t54 22zM301 604q-16 0 -27.5 -10.5t-11.5 -27.5q0 -16 11.5 -27t27.5 -11t26.5 11t10.5 27t-10.5 27t-26.5 11z" />
<glyph unicode="&#x2db;" d="M364 -40l-9 -53q-2 0 -2 -2q-30 -22 -57 -22q-25 0 -41.5 17t-16.5 41q0 49 63 73h94v-4q-42 -10 -51 -14q-14 -6 -20.5 -9t-16.5 -13t-10 -20q0 -19 19 -19q11 0 31 13q2 1 4 2.5t5.5 4t7.5 5.5z" />
<glyph unicode="&#x2dc;" d="M420 619l40 -13q-2 -2 -2 -7q-12 -40 -38.5 -62.5t-59.5 -22.5q-31 0 -71 32q-39 29 -55 29q-32 0 -52 -52l-2 -6l-40 14q32 89 94 89q34 0 74 -34q36 -27 55 -27q36 0 57 60z" />
<glyph unicode="&#x2dd;" d="M354 617l-130 -113h-44l98 113h76zM480 617l-130 -113h-44l98 113h76z" />
<glyph unicode="&#x393;" d="M58 563h474l4 -183h-46l-10 136h-288v-469h86v-47h-220v47h84v469h-84v47z" />
<glyph unicode="&#x398;" d="M164 377h47v-67h178v67h47v-181h-47v67h-178v-67h-47v181zM43 281q0 126 71 212.5t186 86.5q117 0 187 -87t70 -212q0 -124 -70 -211t-187 -87q-116 0 -186.5 86t-70.5 212zM95 282q0 -105 57.5 -178.5t147.5 -73.5q91 0 148 74t57 178q0 103 -57 177t-148 74 q-90 0 -147.5 -73t-57.5 -178z" />
<glyph unicode="&#x3a3;" d="M86 563h393v-183h-47l-9 136h-278l180 -218l-186 -251h293l6 137h46v-184h-398v52l178 246l-178 213v52z" />
<glyph unicode="&#x3a6;" d="M409 563v-47h-85v-42q65 -1 112.5 -19t72.5 -47t36.5 -60.5t11.5 -65.5t-11 -65t-36 -61t-73 -48t-113 -19v-42h85v-47h-219v47h84v42q-63 1 -110 19t-72.5 47t-37 60.5t-11.5 65.5q0 78 55.5 134.5t175.5 58.5v42h-84v47h219zM324 430v-295q180 4 180 148 q0 143 -180 147zM274 135v295q-178 -4 -178 -147q0 -144 178 -148z" />
<glyph unicode="&#x3a9;" d="M32 0v103h47v-56h127v38q-62 17 -98 49q-79 73 -79 187q0 111 79 185t192 74t192 -74.5t79 -185.5q0 -115 -79 -187q-22 -20 -42.5 -29.5t-55.5 -18.5v-38h127v56h47v-103h-221v118q171 39 171 197q0 99 -67 158.5t-151 59.5t-151 -60t-67 -158q0 -161 171 -197v-118 h-221z" />
<glyph unicode="&#x3b1;" d="M494 47h66v-47h-110q-8 48 -11 64q-1 4 -6 30t-6 30q-24 -33 -37.5 -50t-39.5 -41.5t-55.5 -36t-64.5 -11.5q-81 0 -135 70t-54 165q0 97 54.5 164t138.5 67q45 0 83 -19.5t63 -51.5t40 -62t24 -60q47 90 72 190h49q0 -5 -2 -9q-21 -99 -88 -234q-1 -1 -5.5 -10l-5.5 -11 q4 -8 4 -15q11 -39 15 -62l9 -50q0 -4 2 -10zM410 192q-7 46 -28.5 92.5t-61.5 82t-86 35.5q-58 0 -99 -51.5t-41 -130.5t41 -132.5t101 -53.5q84 0 174 158z" />
<glyph unicode="&#x3b4;" d="M470 615v-47h-285v-2l190 -142q38 -29 57 -45t43 -44t34 -59t10 -71q0 -91 -64 -155.5t-155 -64.5q-93 0 -156 65t-63 153q0 39 14 78.5t40 64.5q46 45 82.5 58.5t91.5 13.5v2l-124 89q-27 19 -52 48v58h337zM300 368q-77 0 -121 -48.5t-44 -117.5q0 -70 47 -118.5 t116 -48.5q72 0 119.5 49.5t47.5 119.5q0 72 -46.5 118t-118.5 46z" />
<glyph unicode="&#x3b5;" d="M440 457h41q-6 -63 -6 -99q0 -23 6 -59l-48 -8q-3 20 -5.5 31.5t-11.5 29t-22.5 27t-38.5 16.5t-60 7q-49 0 -75 -18.5t-26 -47.5q0 -41 45 -66q33 -19 110 -21v-48q-53 1 -90.5 -8.5t-54 -25t-23 -28.5t-6.5 -24q0 -31 30.5 -56t95.5 -25q69 0 131 32l8 4l12 -50 q-6 -2 -15 -6q-78 -29 -136 -29q-86 0 -133 35.5t-47 89.5q0 47 31.5 77.5t76.5 38.5v2q-42 11 -65.5 42t-23.5 66q0 47 42 80.5t110 33.5q85 0 130 -41q3 -3 4 -3q7 0 14 51z" />
<glyph unicode="&#x3bc;" d="M36 430h132v-235q0 -48 4.5 -70t18.5 -40q37 -49 103 -49q29 0 60 12.5t47 33.5q28 38 28 113v193h-82v42h132v-389h83v-41h-132v53h-2l-8 -12q-17 -25 -52.5 -40t-71.5 -15q-33 0 -63 13.5t-42 25.5q-16 16 -24 22v-196h-49v537h-82v42z" />
<glyph unicode="&#x3c0;" d="M555 430v-47h-83v-336h83v-47h-205v47h72v336h-244v-336h72v-47h-204v47h82v336h-82v47h509z" />
<glyph unicode="&#x3c3;" d="M592 450v-50l-182 14l-2 -2q123 -64 123 -200q0 -89 -66.5 -158t-163.5 -69q-100 0 -166 71t-66 163q0 57 27.5 108t72.5 82q28 19 71.5 29t68 11t67.5 1h216zM301 400q-77 0 -127.5 -54t-50.5 -130q0 -75 51.5 -128t126.5 -53q71 0 123.5 52.5t52.5 128.5q0 78 -52 131 t-124 53z" />
<glyph unicode="&#x3c4;" d="M306 383v-307q0 -19 7.5 -28.5t27.5 -9.5q31 0 87 30l13 -47l-5 -3q-52 -27 -99 -27q-81 0 -81 77v315h-62q-52 0 -97 -9v48q38 8 87 8h275v-47h-153z" />
<glyph unicode="&#x3c6;" d="M216 435v-49q-45 -19 -68 -49q-42 -55 -42 -121q0 -18 5 -39t18 -49.5t44 -53t75 -35.5v212q0 24 0.5 37.5t3.5 40.5t10.5 44t20 35.5t34 27.5t49.5 9q74 0 128 -69t54 -158q0 -96 -67.5 -166t-182.5 -67v-141h-50v146q-47 8 -83 29t-57 45.5t-34 54t-17.5 53t-4.5 45.5 q0 23 6 49.5t21 59.5t48 61.5t80 43.5q1 1 5 2t4 2zM298 251v-219q55 0 96 19.5t61 50.5t29.5 60.5t9.5 58.5q0 69 -38 123t-89 54q-19 0 -32.5 -9t-20.5 -21.5t-11 -34.5t-4.5 -38.5t-0.5 -43.5z" />
<glyph unicode="&#x60c;" horiz-adv-x="284" d="M213 93q0 -22 -15 -38t-39 -16q-37 0 -61 27q-26 30 -26 81q0 49 26.5 97.5t65.5 75.5l11 -12q-32 -31 -48.5 -63.5t-16.5 -67.5q0 -13 4 -27.5t9 -18.5q18 17 37 17q22 0 37.5 -16.5t15.5 -38.5z" />
<glyph unicode="&#x61b;" horiz-adv-x="284" d="M216 225q0 -22 -15.5 -38t-38.5 -16q-37 0 -61 28q-26 29 -26 81q0 48 26 97t66 75l11 -12q-32 -30 -48.5 -62.5t-16.5 -68.5q0 -13 4 -27t9 -19q17 18 37 18q21 0 37 -17t16 -39zM202 61q0 -21 -14.5 -35.5t-35.5 -14.5t-35.5 14.5t-14.5 35.5t14.5 35.5t35.5 14.5 t35.5 -14.5t14.5 -35.5z" />
<glyph unicode="&#x61f;" horiz-adv-x="614" d="M488 445h-51v66q-65 25 -116 25q-76 0 -109 -36.5t-33 -78.5q0 -27 11 -48.5t25 -34t40 -24t42 -16t44 -11.5q9 -1 20 -5v-100h-50v62q-34 9 -59 18.5t-57.5 29t-50.5 52t-18 74.5q0 69 51.5 118.5t144.5 49.5q28 0 55.5 -4.5t46.5 -10.5t64 -21v-105zM339 109 q29 0 49.5 -18.5t20.5 -44.5q0 -27 -20.5 -45t-49.5 -18t-50 18t-21 45q0 26 20.5 44.5t50.5 18.5z" />
<glyph unicode="&#x621;" horiz-adv-x="637" d="M242 88q17 -14 43.5 -22t63.5 -8q19 0 70 12q5 2 13 4l-31 -59q-9 -2 -35 -8q-41 -10 -76 -23q-22 -8 -33 -13l-63 -31l1 7q4 13 26 36q12 12 22 21l16 14l-19 10q-12 7 -16 10q-14 13 -14 30q0 42 41 94q42 53 85 53q22 0 45 -14q2 -2 10 -9l-30 -49q-3 1 -8 2 q-3 0 -4 1q-30 7 -49 7q-11 0 -30 -15l-1 -1v0l-39 -39z" />
<glyph unicode="&#x622;" horiz-adv-x="637" d="M444 740q-1 -3 -19 -67l-18 -65q0 9 -2 32q-3 22 -6 31q-38 -30 -89 -41q-32 -7 -72 -7h-14h-5q-3 -4 -11 -24q-3 -7 -8 -20q-1 1 -4 1q-3 1 -4 1q-4 0 -5 -2v134q17 -12 42 -18q24 -6 50 -6q36 0 80 15q42 18 85 36zM368 8l-29 -20q-2 33 -8 89q-8 78 -27 205 q-18 117 -32 185l44 81q19 -51 32 -156q12 -98 17 -243q3 -81 3 -141z" />
<glyph unicode="&#x623;" horiz-adv-x="637" d="M376 602q-1 0 -28 -14q-39 -21 -58 -33q-35 -21 -49 -36v17q0 9 10 31q3 8 10 21q-11 5 -16 14q-10 13 -10 32q0 35 31 81q34 50 68 50q15 0 22 -10t7 -25q0 -13 -5 -26t-10 -16q-4 5 -8 7q-8 7 -19 7q-14 0 -37 -17t-23 -31q0 -8 19.5 -14t36.5 -6q15 0 45 16 q18 10 36 21zM387 8l-19 -21q-2 37 -7 83q-10 93 -27 194q-19 110 -43 178l44 81q20 -50 32 -149q12 -93 17 -233q3 -77 3 -133z" />
<glyph unicode="&#x624;" horiz-adv-x="637" d="M352 391l-28 -14q-38 -21 -58 -33q-35 -21 -49 -36v17q0 9 10 31q3 8 10 22q-11 4 -16 13q-10 13 -10 32q0 35 31 81q34 50 68 50q15 0 22 -10q7 -9 7 -25q0 -13 -5 -26t-10 -16q-4 5 -8 7q-8 7 -18 7q-15 0 -38 -17t-23 -31q0 -7 20 -13q19 -7 37 -7q14 0 44 17 q18 9 36 20zM425 50h-113q-5 0 -10 1q-4 1 -9 3q-7 6 -11 15q-4 14 -6.5 28.5t-3.5 29.5q0 28 5 55q6 28 15 55q11 28 29 52q8 8 16 13q10 4 20 5q10 -1 19 -5q8 -5 16 -11q18 -22 31 -49q12 -29 20 -59q8 -39 9 -78v-50q-2 -52 -13 -103q-14 -47 -37 -89q-26 -35 -60 -62 q-37 -19 -79 -20q-16 3 -31 8q-19 10 -35 25q41 15 79 35q37 22 71 48q36 31 63 69q7 16 12 32q3 18 3 35v17zM300 180q-4 -10 -6 -21v-10q1 -6 3 -11q3 -3 6 -5q4 -1 8 -1h114q-1 11 -3 21q-5 13 -12 24q-10 13 -22 24q-12 10 -25 18q-9 4 -19 5q-9 -1 -17 -5 q-7 -6 -12 -13q-9 -12 -15 -26z" />
<glyph unicode="&#x625;" horiz-adv-x="637" d="M379 -246q-1 0 -28 -15q-39 -21 -59 -33q-34 -21 -49 -35v17q2 9 11 30q3 8 10 22q-10 5 -17 14q-9 13 -9 32q0 34 32 80q34 50 67 50q15 0 22 -9q7 -10 7 -25q0 -13 -5 -26q-4 -14 -11 -16q-4 5 -6 6q-9 7 -20 7q-15 0 -37 -17q-23 -16 -23 -31q0 -7 20 -13t36 -6t45 16 q18 10 36 21zM348 8l-29 -20q-2 33 -8 89q-8 78 -27 205q-18 117 -32 185l44 81q19 -51 32 -156q12 -98 17 -243q3 -81 3 -141z" />
<glyph unicode="&#x626;" horiz-adv-x="637" d="M228 340l-28 -15q-38 -21 -59 -33q-34 -21 -49 -35v17q2 9 11 30q3 8 10 22q-10 5 -17 14q-9 13 -9 32q0 35 32 80q34 50 67 50q15 0 22 -9q7 -10 7 -25q0 -13 -5 -27q-4 -13 -11 -15q-4 5 -6 6q-10 8 -19 8q-16 0 -38 -17q-23 -17 -23 -32q0 -7 20 -13t37 -6q15 0 44 16 l36 20zM364 176q16 -9 81 -26t65 -44v-46q0 -58 -47.5 -95.5t-112 -53.5t-116.5 -16q-87 0 -120.5 33t-32.5 108q1 47 20 110l15 -3q-13 -113 25 -140.5t100 -27.5t149 18q51 10 88 41l11 14l-12 13q-3 3 -68.5 20t-77.5 31l-0.5 21.5t10.5 61.5q29 106 92 177q43 48 72 48 t40 -9q20 -16 2 -93q-1 -7 -4 -16q-14 33 -45.5 33t-63.5 -27q-57 -49 -77 -115l-4 -11z" />
<glyph unicode="&#x627;" horiz-adv-x="637" d="M367 8l-29 -20q-2 33 -8 89q-8 78 -27 205q-18 117 -32 185l44 81q19 -51 32 -156q12 -98 17 -243q3 -81 3 -141z" />
<glyph unicode="&#x628;" horiz-adv-x="637" d="M367 -110l-57 -56l-62 61l57 57zM155 15q-56 0 -86 25q-35 30 -35 90q0 38 21 89q12 29 26 49q-24 -49 -24 -81q0 -40 25 -62q30 -27 94 -27h395v15q0 31 -19 64v1h-1l-24 34l25 75q15 -26 28 -63q23 -66 23 -127v-82h-448z" />
<glyph unicode="&#x629;" horiz-adv-x="637" d="M318 525l-57 -57l-61 62l57 57zM502 527l-57 -57l-62 61l57 58zM353 419q86 -172 86 -273.5t-26 -132t-92 -30.5q-132 0 -132 85q0 77 76 177q26 33 56 63l14 14l-39 39zM328 82q95 -4 81 64q-19 94 -74 85t-92 -99q-7 -45 85 -50z" />
<glyph unicode="&#x62a;" horiz-adv-x="637" d="M285 305l-57 -57l-61 62l57 57zM469 307l-57 -57l-62 61l57 58zM155 15q-56 0 -86 25q-35 30 -35 90q0 38 21 89q12 29 26 49q-24 -49 -24 -81q0 -40 25 -62q30 -27 94 -27h395v15q0 31 -19 64v1h-1l-24 34l25 75q15 -26 28 -63q23 -66 23 -127v-82h-448z" />
<glyph unicode="&#x62b;" horiz-adv-x="637" d="M286 307l-57 -57l-61 62l57 57zM470 309l-57 -57l-62 61l57 58zM374 424l-56 -57l-62 62l57 57zM155 15q-56 0 -86 25q-35 30 -35 90q0 38 21 89q12 29 26 49q-24 -49 -24 -81q0 -40 25 -62q30 -27 94 -27h395v15q0 31 -19 64v1h-1l-24 34l25 75q15 -26 28 -63 q23 -66 23 -127v-82h-448z" />
<glyph unicode="&#x62c;" horiz-adv-x="637" d="M368 -104l-57 -56l-61 61l57 57zM301 147q-29 27 -59 46q-39 25 -68 25q-18 0 -38 -12q-3 -3 -6 -5q5 17 9 29q25 67 62 67q29 0 69 -37l80 -75q48 -45 99 -45h60l-40 -78h-131q-83 0 -144.5 -46.5t-61.5 -108.5q0 -64 78 -118t184 -54h115q-40 -34 -73.5 -58t-51.5 -24 q-119 0 -196 53q-85 59 -85 164q0 54 30.5 115.5t76.5 95.5q9 7 29 16q26 12 57 25l23 9z" />
<glyph unicode="&#x62d;" horiz-adv-x="637" d="M301 147q-29 27 -59 46q-39 25 -68 25q-18 0 -38 -12q-3 -3 -6 -5q5 17 9 29q25 67 62 67q29 0 69 -37l80 -75q48 -45 99 -45h60l-40 -78h-131q-83 0 -144.5 -46.5t-61.5 -108.5q0 -64 78 -118t184 -54h115q-40 -34 -73.5 -58t-51.5 -24q-119 0 -196 53q-85 59 -85 164 q0 54 30.5 115.5t76.5 95.5q9 7 29 16q26 12 57 25l23 9z" />
<glyph unicode="&#x62e;" horiz-adv-x="637" d="M263 458l-57 -57l-61 61l57 57zM301 147q-29 27 -59 46q-39 25 -68 25q-18 0 -38 -12q-3 -3 -6 -5q5 17 9 29q25 67 62 67q29 0 69 -37l80 -75q48 -45 99 -45h60l-40 -78h-131q-83 0 -144.5 -46.5t-61.5 -108.5q0 -64 78 -118t184 -54h115q-40 -34 -73.5 -58t-51.5 -24 q-119 0 -196 53q-85 59 -85 164q0 54 30.5 115.5t76.5 95.5q9 7 29 16q26 12 57 25l23 9z" />
<glyph unicode="&#x62f;" horiz-adv-x="637" d="M453 77q0 -14 -1 -27q-2 -10 -5 -19q-4 -7 -9 -12q-4 -2 -8 -3t-8 -1h-209q-3 0 -7 1q-3 1 -5 4q-6 6 -10 14q-3 11 -5 24q-2 14 -2 28v6v14q1 5 2 9l5 20l1 -2q7 -8 14 -15q8 -6 17 -11q8 -4 16 -7q9 -2 18 -2h126q2 0 4 0.5t4 0.5l6 2l6 4q4 4 8 7q4 5 7 11q3 11 2 23 q-3 14 -9 28q-14 25 -31 46q-21 21 -42 41q-15 15 -28 30l9 96q11 -10 22 -19l19 -19q13 -14 25 -29q11 -14 21 -29q12 -21 21 -43q9 -27 15 -55q5 -28 8 -56q3 -26 3 -51v-9z" />
<glyph unicode="&#x630;" horiz-adv-x="637" d="M331 543l-57 -57l-62 61l58 57zM453 77q0 -14 -1 -27q-2 -10 -5 -19q-4 -7 -9 -12q-4 -2 -8 -3t-8 -1h-209q-3 0 -7 1q-3 1 -5 4q-6 6 -10 14q-3 11 -5 24q-2 14 -2 28v6v14q1 5 2 9l5 20l1 -2q7 -8 14 -15q8 -6 17 -11q8 -4 16 -7q9 -2 18 -2h126q2 0 4 0.5t4 0.5l6 2 l6 4q4 4 8 7q4 5 7 11q3 11 2 23q-3 14 -9 28q-14 25 -31 46q-21 21 -42 41q-15 15 -28 30l9 96q11 -10 22 -19l19 -19q13 -14 25 -29q11 -14 21 -29q12 -21 21 -43q9 -27 15 -55q5 -28 8 -56q3 -26 3 -51v-9z" />
<glyph unicode="&#x631;" horiz-adv-x="637" d="M260 -234q-9 1 -19 3q-10 4 -20 9q-10 6 -19 12q-7 6 -15 11q46 18 89 43q34 24 66 51q45 42 80 93q11 27 14 55v7q-2 14 -6 28q-7 21 -19 40q-12 18 -25 35l-14 18l34 101l2 -3q11 -20 20 -41q8 -20 16 -42q9 -30 14 -61q4 -31 5 -62q-1 -32 -6 -63q-7 -33 -18 -65 q-13 -33 -31 -65q-18 -28 -40 -53q-23 -22 -51 -38q-26 -11 -53 -13h-4z" />
<glyph unicode="&#x632;" horiz-adv-x="637" d="M373 412l-47 -47l-55 56l47 46zM260 -234q-9 1 -19 3q-10 4 -20 9q-10 6 -19 12q-7 6 -15 11q46 18 89 43q34 24 66 51q45 42 80 93q11 27 14 55v7q-2 14 -6 28q-7 21 -19 40q-12 18 -25 35l-14 18l34 101l2 -3q11 -20 20 -41q8 -20 16 -42q9 -30 14 -61q4 -31 5 -62 q-1 -32 -6 -63q-7 -33 -18 -65q-13 -33 -31 -65q-18 -28 -40 -53q-23 -22 -51 -38q-26 -11 -53 -13h-4z" />
<glyph unicode="&#x633;" horiz-adv-x="637" d="M370 112q21 1 40 10q19 12 34 29q8 11 15 24q7 14 13 29q6 -16 13 -30q7 -12 15 -24q14 -15 30 -26q15 -7 31 -9h5q2 0 5 1q12 3 21 11q4 5 6 10q1 6 1 12v1v3.5t-1 2.5v1.5v0.5q-3 8 -7 16q-6 10 -13 19l-6 8t-7 7l27 65q6 -12 10 -24q4 -11 7 -22q5 -22 9 -44 q2 -26 2 -52q-1 -21 -4 -42q-4 -14 -10 -26q-9 -11 -20 -21q-4 -3 -8 -5q-5 -1 -10 -1h-8q-8 0 -15 2q-8 2 -16 5q-14 7 -26 16q-11 12 -20 26l-14 24l-13 -26q-4 -8 -10 -16q-8 -8 -17 -16q-11 -9 -23 -15q-16 -7 -33 -9q-22 -1 -43 4v-36q0 -22 -4 -43q-6 -21 -15 -41 q-12 -24 -27 -45q-18 -20 -40 -36q-16 -11 -34 -20q-13 -5 -27 -8q-16 -3 -33 -4h-1h-3q-25 2 -48 11q-23 13 -41 33q-15 23 -24 49q-8 34 -8 69q2 22 5 43q7 27 17 53l7 -7q-9 -26 -10 -54q3 -21 10 -40q15 -26 36 -47q17 -12 36 -20q22 -6 46 -7h0.5h0.5q11 0 22 2 q13 3 26 7q16 7 32 15q13 7 24 16q10 11 18 23q8 14 15 28l1 3v3q0 21 -5 41q-11 26 -28 49q-6 9 -12 17q-8 10 -17 20l34 82q5 -9 11 -18q7 -9 14 -17q15 -17 33 -30q14 -7 29 -10z" />
<glyph unicode="&#x634;" horiz-adv-x="637" d="M430 354l-57 -57l-61 62l57 57zM614 356l-57 -57l-62 61l57 58zM518 471l-56 -57l-62 62l57 57zM370 112q21 1 40 10q19 12 34 29q8 11 15 24q7 14 13 29q6 -16 13 -30q7 -12 15 -24q14 -15 30 -26q15 -7 31 -9h5q2 0 5 1q12 3 21 11q4 5 6 10q1 6 1 12v1v3.5t-1 2.5v1.5 v0.5q-3 8 -7 16q-6 10 -13 19l-6 8t-7 7l27 65q6 -12 10 -24q4 -11 7 -22q5 -22 9 -44q2 -26 2 -52q-1 -21 -4 -42q-4 -14 -10 -26q-9 -11 -20 -21q-4 -3 -8 -5q-5 -1 -10 -1h-8q-8 0 -15 2q-8 2 -16 5q-14 7 -26 16q-11 12 -20 26l-14 24l-13 -26q-4 -8 -10 -16 q-8 -8 -17 -16q-11 -9 -23 -15q-16 -7 -33 -9q-22 -1 -43 4v-36q0 -22 -4 -43q-6 -21 -15 -41q-12 -24 -27 -45q-18 -20 -40 -36q-16 -11 -34 -20q-13 -5 -27 -8q-16 -3 -33 -4h-1h-3q-25 2 -48 11q-23 13 -41 33q-15 23 -24 49q-8 34 -8 69q2 22 5 43q7 27 17 53l7 -7 q-9 -26 -10 -54q3 -21 10 -40q15 -27 36 -47q17 -12 36 -20q22 -6 46 -7h0.5h0.5q11 0 22 2q13 3 26 7q16 7 32 15q13 7 24 16q10 11 18 23q8 14 15 28l1 3v3q0 21 -5 41q-11 26 -28 49q-6 9 -12 17q-8 10 -17 20l34 82q5 -9 11 -18q7 -9 14 -17q15 -17 33 -30q14 -7 29 -10 z" />
<glyph unicode="&#x635;" horiz-adv-x="637" d="M332 -15q-1 -28 -7 -55q-15 -39 -40 -73q-18 -19 -38 -35q-14 -11 -31 -19q-17 -7 -36 -11q-17 -3 -35 -3h-6q-22 2 -42 10q-20 13 -36 31q-16 24 -26 50q-7 30 -8 60v10q2 22 6 44t11 44h11q-3 -23 -4 -46v-10q0 -19 5 -37q13 -27 36 -47q17 -12 35 -20q21 -5 42 -6h5 q30 3 58 12q30 14 56 36q8 8 15 18q8 12 14 26v3q0 11 -2 21q-3 11 -7 20q-13 27 -28 51q-7 9 -13 18l-16 18l34 83q5 -9 11 -17q9 -14 20 -28q11 -12 24 -21q6 -4 13 -6t14 -3q4 1 9 3q3 2 5 5l10 18q14 29 29 58q16 29 34 56q11 15 23 29q11 12 25 23q9 5 20 9l12 2 q6 -1 11 -2q8 -2 16 -6q11 -7 21 -16q13 -14 22 -31q8 -19 12 -40q4 -27 4 -55v-8q-2 -44 -6 -87q-1 -10 -2 -21q-1 -8 -3 -16q-1 -2 -3 -5q-2 -1 -4 -3q-1 0 -3 -1h-11h-256v-30zM573 95q3 0 5 1q3 0 5 1l10 8q5 5 8 11q3 8 3 15q-1 17 -6 33q-8 16 -19 31q-12 13 -26 23 q-13 6 -27 9q-19 1 -37 -4q-14 -8 -25 -20q-8 -11 -16 -23q-8 -11 -15 -23l-36 -62h176z" />
<glyph unicode="&#x636;" horiz-adv-x="637" d="M332 -15q-1 -28 -7 -55q-15 -39 -40 -73q-18 -19 -38 -35q-14 -11 -31 -19q-17 -7 -36 -11q-17 -3 -35 -3h-6q-22 2 -42 10q-20 13 -36 31q-16 24 -26 50q-7 30 -8 60v10q2 22 6 44t11 44h11q-3 -23 -4 -46v-10q0 -19 5 -37q13 -27 36 -47q17 -12 35 -20q21 -5 42 -6h5 q30 3 58 12q30 14 56 36q8 8 15 18q8 12 14 26v3q0 11 -2 21q-3 11 -7 20q-13 27 -28 51q-7 9 -13 18l-16 18l34 83q5 -9 11 -17q9 -14 20 -28q11 -12 24 -21q6 -4 13 -6t14 -3q4 1 9 3q3 2 5 5l10 18q14 29 29 58q16 29 34 56q11 15 23 29q11 12 25 23q9 5 20 9l12 2 q6 -1 11 -2q8 -2 16 -6q11 -7 21 -16q13 -14 22 -31q8 -19 12 -40q4 -27 4 -55v-8q-2 -44 -6 -87q-1 -10 -2 -21q-1 -8 -3 -16q-1 -2 -3 -5q-2 -1 -4 -3q-1 0 -3 -1h-11h-256v-30zM573 95q3 0 5 1q3 0 5 1l10 8q5 5 8 11q3 8 3 15q-1 17 -6 33q-8 16 -19 31q-12 13 -26 23 q-13 6 -27 9q-19 1 -37 -4q-14 -8 -25 -20q-8 -11 -16 -23q-8 -11 -15 -23l-36 -62h176zM398 324l-47 -46l-55 56l47 46z" />
<glyph unicode="&#x637;" horiz-adv-x="637" d="M486 98q10 0 20 1q7 1 15 3q6 4 10 8q5 7 8 14q3 12 3 25q-4 14 -11 26q-7 10 -16 18q-10 8 -21 15q-14 7 -30 13q-16 5 -32 6q-15 -1 -29 -5q-17 -6 -33 -14q-25 -15 -47 -34q-20 -21 -39 -42l-33 -34h235zM569 175q1 -10 1 -20q-1 -30 -7 -59q-4 -18 -10 -35 q-8 -18 -20 -34q-7 -6 -14 -10q-8 -2 -17 -2h-348q-7 0 -14 2q-6 2 -12 6q-13 10 -22 23q-10 15 -17 31q-6 16 -9 33l-1 2l28 -10q12 -3 24 -4h45q12 0 24 1q9 2 16 5q11 8 20 18q7 8 14 18l6 11l-2 17l-10 80q-8 52 -15 103q-7 39 -18 87q-10 34 -17 56l39 95l10 -42 q6 -26 10 -51q6 -39 11 -78q4 -39 7 -78l4 -56q2 -31 5 -62l4 -42l46 50q18 19 38 36q10 9 20 17q17 13 35 23q14 5 29 7h2q18 -2 35 -9q19 -12 35 -28q18 -21 31 -45q10 -27 14 -56z" />
</font>
</defs>
</svg>
