<svg xmlns="http://www.w3.org/2000/svg" xmlns:xlink="http://www.w3.org/1999/xlink" version="1.1"><metadata/><defs><font id="thabitregular" horiz-adv-x="1200"><font-face ascent="1638" descent="-410" units-per-em="2048"/><glyph d="M2 0v94h276v648h-276v94h276v112q0 56 3 92t15 80t33 69t62 43t99 18q72 0 202 -28l-40 -100q-108 28 -168 28q-38 0 -61 -14t-32 -48t-11 -61t-2 -83v-108h544v-742h278v-94h-1198zM378 94h444v648h-444v-648zM776 1074v238h146v-238h-146z" unicode="ﬁ"/><glyph d="M2 0v94h276v648h-276v94h276v114q0 50 3 83t19 78t47 72t90 47t143 20q120 0 342 -30v-1126h278v-94h-1198zM378 94h444v1026q-158 30 -246 30q-70 0 -112 -13t-60 -46t-22 -63t-4 -88v-104h280v-94h-280v-648z" unicode="ﬂ"/><glyph horiz-adv-x="0"/><glyph horiz-adv-x="682"/><glyph horiz-adv-x="1274"/><glyph horiz-adv-x="1274"/><glyph horiz-adv-x="1274"/><glyph d="M462 90q0 50 40 86t98 36q60 0 99 -36t39 -88q0 -50 -40 -86t-98 -36t-98 36t-40 88zM518 1142h166l-38 -756h-92z" unicode="!"/><glyph d="M314 1126h190l-20 -562h-148zM696 1126h190l-22 -562h-148z" unicode="&quot;"/><glyph d="M156 314v130h196l20 334h-216v130h222l24 410h94l-24 -410h290l24 410h94l-24 -410h188v-130h-194l-20 -334h214v-130h-220l-24 -428h-94l24 428h-292l-22 -428h-94l22 428h-188zM446 444h290l20 334h-290z" unicode="#"/><glyph d="M196 406h94q8 -48 19 -81t37 -82t77 -79t125 -40v398q-70 18 -110 33t-96 48t-84 86t-28 125q0 124 87 201t231 89v208h96v-208q62 -8 138 -42q38 -18 48 -18q14 0 19 9t9 41h94q-4 -52 -4 -96q0 -110 22 -292l-92 -10q-14 94 -40 157t-65 93t-63 40t-66 20v-408 q66 -18 101 -29t88 -36t80 -52t48 -71t21 -100q0 -122 -95 -197t-243 -85v-300h-96v300q-56 2 -166 38q-30 10 -44 10q-18 0 -22 -11t-6 -47h-94q10 170 -20 388zM334 818q0 -44 16 -77t53 -55t65 -33t80 -27v382q-214 -34 -214 -190zM644 124q54 6 100 19t90 56t44 109 q0 44 -18 76t-59 54t-70 33t-87 27v-374z" unicode="$"/><glyph d="M90 960q0 102 77 185t205 83q130 0 207 -82t77 -186t-78 -185t-206 -81q-126 0 -204 81t-78 185zM174 480l812 360l40 -94l-812 -360zM198 960q0 -68 48 -120t128 -52q78 0 126 51t48 121t-47 122t-127 52q-82 0 -129 -53t-47 -121zM520 238q0 100 76 184t206 84t207 -83 t77 -185t-78 -184t-206 -82q-130 0 -206 82t-76 184zM628 240q0 -70 48 -122t126 -52q82 0 129 52t47 122q0 68 -47 120t-129 52q-78 0 -126 -52t-48 -120z" unicode="%"/><glyph d="M196 276q0 104 64 193t174 131q0 6 -8 14q-70 106 -89 145t-19 93q0 98 71 163t187 65q80 0 158 -34q56 -22 82 -22q32 0 74 16l-92 -144q-122 88 -222 88q-74 0 -107 -38t-33 -86q0 -22 11 -49t23 -46t44 -67l260 -386q46 100 94 248h190v-94h-120q-46 -134 -104 -244 l88 -128h150v-94h-228l-82 120q-126 -136 -276 -136q-132 0 -211 88t-79 204zM328 300q0 -84 47 -148t135 -64q104 0 198 112l-220 328q-66 -26 -113 -84t-47 -144z" unicode="&amp;"/><glyph d="M486 1126h228l-40 -564h-150z" unicode="'"/><glyph d="M574 552q0 164 68 370t182 376h102q-48 -90 -75 -148t-70 -165t-65 -216t-22 -217q0 -140 46 -300t84 -241t102 -203h-102q-112 168 -181 373t-69 371z" unicode="("/><glyph d="M274 -192q234 428 234 744q0 108 -23 219t-66 218t-71 165t-74 144h104q120 -184 185 -385t65 -361q0 -164 -67 -367t-183 -377h-104z" unicode=")"/><glyph d="M222 806l42 128l280 -102l-12 294h136l-12 -294l280 102l42 -128l-288 -80l186 -232l-110 -82l-166 250l-166 -250l-110 82l186 232z" unicode="*"/><glyph d="M132 556v100h418v410h100v-410h418v-100h-418v-410h-100v410h-418z" unicode="+"/><glyph d="M354 -218l152 484h208l-218 -484h-142z" unicode=","/><glyph d="M388 524v110h424v-110h-424z" unicode="-"/><glyph d="M446 102q0 60 47 98t107 38t107 -38t47 -98t-47 -98t-107 -38q-58 0 -106 37t-48 99z" unicode="."/><glyph d="M182 -226l750 1630l86 -36l-750 -1634z" unicode="/"/><glyph d="M220 606q0 72 6 138t20 142t42 137t68 112t103 79t141 28t141 -28t103 -79t68 -112t42 -137t20 -142t6 -138q0 -114 -15 -212t-52 -200t-117 -162t-196 -60q-94 0 -165 42t-110 106t-64 153t-33 167t-8 166zM326 608q0 -94 10 -177t37 -173t84 -143t141 -53t143 53 t86 143t37 173t10 177t-10 177t-37 172t-85 142t-142 53t-143 -53t-85 -143t-36 -172t-10 -176z" unicode="0"/><glyph d="M208 1066l396 176h64v-1148h342v-94h-790v94h348v1032l-320 -148z" unicode="1"/><glyph d="M164 0v106q348 300 556 510q68 68 93 127t25 133q0 128 -91 197t-185 69q-34 0 -74 -10t-85 -32t-72 -65t-23 -101h-104v130q148 178 362 178q148 0 264 -104t116 -266q0 -114 -68 -222q-48 -76 -213 -234t-367 -318v-4h552v198h94v-292h-780z" unicode="2"/><glyph d="M168 70l38 88q192 -92 332 -92q118 0 206 73t88 199q0 64 -22 115t-56 76t-54 36t-34 15q-74 26 -194 18v94q128 0 192 42q104 70 104 196q0 98 -68 158t-170 60q-98 0 -252 -94l-36 -22l-50 78q100 66 177 99t163 33q136 0 238 -85t102 -225q0 -178 -154 -272 q82 -34 149 -114t67 -204q0 -166 -115 -268t-287 -102q-58 0 -117 13t-102 29t-145 56z" unicode="3"/><glyph d="M148 292v116l496 834h136v-854h180v-96h-180v-198h180v-94h-546v94h270v198h-536zM246 388h438v738h-4z" unicode="4"/><glyph d="M182 62l36 90q178 -80 332 -80q156 0 238 84t82 216q0 126 -82 214t-220 88q-140 0 -266 -96l-50 28v606h668v-96h-578v-404q134 56 242 56q178 0 286 -113t108 -279q0 -66 -21 -132t-67 -129t-132 -103t-200 -40q-98 0 -177 21t-199 69z" unicode="5"/><glyph d="M204 520q0 52 5 108t27 149t60 169t112 149t174 109q146 50 390 38v-100q-92 0 -178 1t-165 -29t-142 -85t-108 -165t-63 -270l4 -4q112 150 290 150q152 0 251 -116t99 -272q0 -154 -101 -267t-253 -113q-66 0 -132 27t-129 86t-102 172t-39 263zM316 424 q10 -184 101 -268t189 -84q102 0 174 76t72 204q0 118 -68 203t-174 85q-26 0 -53 -5t-75 -24t-92 -67t-74 -120z" unicode="6"/><glyph d="M190 934v278h786v-94l-388 -1118h-116l404 1118h-588v-184h-98z" unicode="7"/><glyph d="M214 316q0 94 56 178t146 124q-62 32 -121 108t-59 188q0 136 105 232t259 96t259 -96t105 -232q0 -86 -46 -167t-134 -129q100 -44 151 -131t51 -171q0 -128 -102 -236t-284 -108t-284 108t-102 236zM322 316q0 -102 81 -176t197 -74t197 74t81 176q0 98 -75 176 t-203 78q-130 0 -204 -78t-74 -176zM344 912q0 -96 72 -172t184 -76q102 0 179 69t77 179q0 112 -78 174t-178 62q-126 0 -191 -75t-65 -161z" unicode="8"/><glyph d="M162 -28v100q92 0 178 -1t165 29t142 85t108 165t63 270l-4 4q-112 -150 -290 -150q-152 0 -251 115t-99 273q0 154 101 267t253 113q66 0 132 -27t129 -86t102 -172t39 -263q0 -52 -5 -108t-27 -149t-60 -169t-112 -149t-174 -109q-146 -50 -390 -38zM282 862 q0 -118 68 -203t174 -85q26 0 53 5t75 24t92 67t74 120q-10 184 -101 268t-189 84q-102 0 -174 -76t-72 -204z" unicode="9"/><glyph d="M446 102q0 60 48 98t106 38q60 0 107 -38t47 -98t-48 -98t-106 -38t-106 37t-48 99zM446 644q0 60 48 98t106 38q60 0 107 -38t47 -98t-48 -98t-106 -38t-106 37t-48 99z" unicode=":"/><glyph d="M362 -216l154 484h206l-218 -484h-142zM446 644q0 60 48 98t106 38q60 0 107 -38t47 -98t-48 -98t-106 -38t-106 37t-48 99z" unicode=";"/><glyph d="M108 616l944 448l40 -90l-762 -358l762 -350l-40 -88z" unicode="&lt;"/><glyph d="M128 376v100h944v-100h-944zM128 738v100h944v-100h-944z" unicode="="/><glyph d="M108 258l762 358l-762 350l40 88l944 -438l-944 -448z" unicode="&gt;"/><glyph d="M240 870v204q118 40 181 55t143 15q180 0 282 -96t102 -232q0 -82 -35 -145t-99 -101t-112 -57t-116 -37v-120h-98v194q22 8 40 10q58 14 87 23t80 31t78 46t49 67t22 95q0 82 -64 153t-214 71q-104 0 -226 -48v-128h-100zM394 90q0 50 40 86t98 36t98 -35t40 -87 q0 -54 -41 -89t-97 -35t-97 35t-41 89z" unicode="?"/><glyph d="M64 520q0 248 148 410t406 162q226 0 371 -133t145 -365q0 -170 -81 -276t-209 -106q-38 0 -57 9t-79 53q-22 16 -22 40q-94 -106 -190 -106q-54 0 -105 47t-51 155q0 142 88 270t206 128q66 0 114 -80l18 70h104l-86 -312q-20 -80 -20 -100q0 -26 25 -53t67 -27 q74 0 128 88t54 212q0 188 -120 290t-304 102q-222 0 -334 -141t-112 -339q0 -84 22 -161t69 -144t130 -107t193 -40q192 0 398 110l30 16q2 0 8 4l6 2l42 -84q-2 0 -6 -3t-6 -3q-230 -136 -478 -136t-380 159t-132 389zM442 402q0 -34 16 -65t48 -31q70 0 129 103t59 199 q0 44 -22 72t-50 28q-66 0 -123 -105t-57 -201z" unicode="@"/><glyph d="M20 0v94h106l386 938h-286v94h430l422 -1032h102v-94h-410v94h204l-114 278h-522l-112 -278h204v-94h-410zM374 460h452l-226 548z" unicode="A"/><glyph d="M90 0v94h166v938h-166v94h546q194 0 288 -84t94 -206q0 -166 -158 -248q228 -68 228 -280q0 -82 -39 -150t-103 -102t-128 -45t-200 -11h-528zM356 94h258q50 0 78 1t79 7t82 19t65 36t50 61t16 90q0 118 -102 174t-276 56h-250v-444zM356 632h266q92 0 156 23t90 59 t36 66t10 60q0 66 -35 110t-93 59t-89 19t-65 4h-276v-400z" unicode="B"/><glyph d="M128 576q0 258 153 421t383 163q158 0 256 -86q26 -22 34 -22q20 0 30 96h74q-1 -34 -1 -68q0 -150 21 -314l-94 -16q-22 128 -66 192q-80 118 -258 118q-192 0 -308 -139t-116 -343q0 -66 12 -131t42 -135t77 -124t125 -88t176 -34q222 0 454 204l66 -72 q-242 -232 -520 -232q-254 0 -397 176t-143 434z" unicode="C"/><glyph d="M68 0v94h158v938h-158v94h500q150 0 242 -28t168 -122q124 -154 124 -392q0 -310 -166 -468q-122 -116 -376 -116h-492zM326 94h234q204 0 300 94q134 134 134 390q0 194 -94 324q-58 82 -130 106t-200 24h-244v-938z" unicode="D"/><glyph d="M114 0v94h170v938h-170v94h950l8 -368h-92l-20 274h-576v-390h324v146h92v-384h-92v144h-324v-454h596l10 274h92v-368h-968z" unicode="E"/><glyph d="M144 0v94h162v938h-162v94h938l10 -360h-90l-24 266h-572v-390h324v146h92v-384h-92v144h-324v-454h260v-94h-522z" unicode="F"/><glyph d="M96 558q0 246 144 424t388 178q144 0 250 -86q26 -24 40 -24t18 14t12 84h96q-4 -16 -4 -38q-8 -88 -8 -162q0 -86 12 -182l-86 -16q-6 40 -13 68t-30 78t-56 82t-94 57t-141 25q-178 0 -299 -141t-121 -359t115 -356t333 -138q122 0 306 64v270h-296v94h494v-94h-96 v-336q-232 -98 -410 -98q-146 0 -258 54t-174 144t-92 189t-30 205z" unicode="G"/><glyph d="M78 0v94h150v938h-150v94h400v-94h-150v-404h544v404h-150v94h402v-94h-152v-938h152v-94h-402v94h150v440h-544v-440h150v-94h-400z" unicode="H"/><glyph d="M200 0v94h350v938h-350v94h800v-94h-350v-938h350v-94h-800z" unicode="I"/><glyph d="M118 526h98l8 -194q4 -84 21 -127t73 -77q98 -62 236 -62q72 0 121 22t74 50t38 82t15 89t2 99v624h-394v94h748v-94h-254v-624q0 -226 -58 -314q-44 -64 -120 -96t-150 -32q-160 0 -402 112l-38 16z" unicode="J"/><glyph d="M120 0v94h168v938h-168v94h438v-94h-170v-490l504 490h-164v94h390v-94h-90l-434 -422q100 -50 196 -161t202 -355h184v-94h-256q-34 92 -130 270q-62 104 -121 167t-143 105l-138 -132v-316h170v-94h-438z" unicode="K"/><glyph d="M118 0v94h200v938h-200v94h546v-94h-246v-938h566l28 404h94l-22 -498h-966z" unicode="L"/><glyph d="M2 0v94h122l34 938h-142v94h334l228 -678h36l248 678h322v-94h-142l34 -938h122v-94h-424v94h214l-30 938h-36l-280 -744h-104l-260 744h-36l-30 -938h214v-94h-424z" unicode="M"/><glyph d="M56 0v94h156v938h-156v94h342l526 -1042h36v948h-224v94h446v-94h-130v-1058h-178l-536 1058h-34v-938h226v-94h-474z" unicode="N"/><glyph d="M86 562q0 254 142 426t372 172q232 0 373 -173t141 -425q0 -250 -141 -423t-373 -173q-230 0 -372 172t-142 424zM194 564q0 -196 109 -347t297 -151t297 149t109 349q0 202 -110 349t-296 147q-192 0 -299 -151t-107 -345z" unicode="O"/><glyph d="M142 0v94h162v938h-162v94h458q202 0 296 -52q76 -42 124 -124t48 -174q0 -84 -41 -161t-105 -113q-70 -40 -143 -50t-263 -10h-112v-348h294v-94h-556zM404 536h114q110 0 156 1t108 14t94 39q84 66 84 190q0 76 -36 132t-84 80q-74 40 -240 40h-196v-496z" unicode="P"/><glyph d="M86 562q0 274 150 436t362 162q220 0 368 -168t148 -438q0 -108 -29 -208t-89 -189t-171 -141q-107 -50 -248 -50h-11q-6 -8 -14 -16l-18 -18l-4 -4h-4v-4q4 0 18 1t26 1q78 0 176 -40q104 -42 138 -42q70 0 148 52l62 -72q-114 -80 -202 -80q-62 0 -170 48 q-90 40 -156 40q-60 0 -106 -18t-130 -64l-46 74q108 70 170 162q-168 52 -268 210t-100 366zM194 564q0 -196 109 -347t297 -151t297 149t109 349q0 202 -110 349t-296 147q-192 0 -299 -151t-107 -345z" unicode="Q"/><glyph d="M90 0v94h164v938h-164v94h514q106 0 164 -10t108 -44q52 -36 87 -106t35 -142q0 -106 -74 -198t-232 -108q72 -68 286 -424h176v-94h-250q-68 148 -192 342q-48 74 -70 103t-58 50t-86 21h-144v-422h178v-94h-442zM354 610h186q50 0 79 1t88 12t93 32t62 66t28 109 q0 110 -84 168q-50 34 -206 34h-246v-422z" unicode="R"/><glyph d="M198 -40q18 86 18 178q0 44 -18 212h90q24 -120 68 -178q80 -106 246 -106t241 70t75 162q0 50 -20 87t-47 58t-70 35t-71 18t-70 8q-68 6 -109 12t-112 28t-113 52t-75 87t-33 133q0 140 115 242t283 102q144 0 248 -82q38 -28 46 -28q12 0 16 10t14 62q4 16 4 26h90 q-18 -78 -18 -144q0 -92 18 -238l-90 -16q-16 118 -62 188q-80 122 -254 122q-144 0 -223 -74t-79 -162q0 -64 31 -108t88 -65t93 -28t92 -13q126 -14 185 -27t107 -45q124 -84 124 -232q0 -162 -124 -251t-286 -89q-164 0 -274 92q-8 8 -16 8q-10 0 -20 -16q-8 -24 -18 -90 h-90z" unicode="S"/><glyph d="M86 654l34 472h960l34 -472l-96 -12l-28 390h-340v-938h242v-94h-584v94h242v938h-340l-28 -390z" unicode="T"/><glyph d="M48 1032v94h448v-94h-204v-564q0 -182 38 -260q68 -142 268 -142q208 0 272 126q40 72 40 256v584h-204v94h448v-94h-144v-584q0 -236 -72 -336q-40 -56 -128 -101t-210 -45q-230 0 -340 156q-68 98 -68 346v564h-144z" unicode="U"/><glyph d="M12 1032v94h428v-94h-188l354 -920l360 920h-204v94h426v-94h-126l-396 -1032h-124l-392 1032h-138z" unicode="V"/><glyph d="M4 1032v94h394v-94h-202l112 -840h4l258 728h68l252 -728h4l116 840h-204v94h390v-94h-92l-150 -1032h-100l-254 728h-4l-258 -728h-100l-140 1032h-94z" unicode="W"/><glyph d="M66 0v94h102l378 498l-336 440h-106v94h388v-94h-164l274 -366l280 366h-152v94h366v-94h-102l-336 -440l372 -498h104v-94h-404v94h180l-308 424l-322 -424h212v-94h-426z" unicode="X"/><glyph d="M64 1032v94h392v-94h-152l302 -496l298 496h-156v94h388v-94h-126l-358 -596v-342h236v-94h-574v94h238v342l-362 596h-126z" unicode="Y"/><glyph d="M168 0v94l690 938h-582v-292h-94v386h804v-82l-698 -950h650v324h94v-418h-864z" unicode="Z"/><glyph d="M618 -188v1496h352v-100h-252v-1296h252v-100h-352z" unicode="["/><glyph d="M186 1372l86 38l750 -1648l-86 -40z" unicode="\"/><glyph d="M230 -88h252v1296h-252v100h352v-1496h-352v100z" unicode="]"/><glyph d="M146 308l380 818h148l380 -818h-128l-326 698l-326 -698h-128z" unicode="^"/><glyph d="M-96 -150h1392v-100h-1392v100z" unicode="_"/><glyph d="M380 1236h214l154 -230h-104z" unicode="`"/><glyph d="M118 254q0 46 21 94t66 97t132 80t205 31q148 0 280 -26v62q0 28 -2 47t-14 54t-36 56t-73 38t-117 17q-150 0 -342 -84l-38 90q216 90 382 90q96 0 165 -26t102 -58t51 -83t20 -77t2 -64v-498h178v-94h-278v144q-186 -172 -382 -172q-142 0 -232 86t-90 196zM226 252 q0 -74 64 -129t148 -55q196 0 384 210v160q-126 22 -260 22q-92 0 -161 -20t-101 -45t-50 -60t-21 -52t-3 -31z" unicode="a"/><glyph d="M10 1146v94l284 18v-566h4q134 176 342 176q186 0 317 -130t131 -316q0 -174 -126 -308t-314 -134q-74 0 -135 17t-107 52t-65 53t-47 52v-154h-260v94h160v1062zM296 426q0 -142 101 -244t249 -102q144 0 239 102t95 242t-96 242t-240 102q-146 0 -247 -102t-101 -240z" unicode="b"/><glyph d="M142 432q0 82 30 162t86 147t150 108t212 41q166 0 294 -106q6 -6 8 -6q12 0 20 44q4 26 12 64l92 -10q-18 -120 -18 -184q0 -54 6 -132l-92 -14l-8 34q-6 28 -12 45t-27 53t-50 56t-85 38t-130 18q-182 0 -281 -107t-99 -249t95 -252t277 -110q180 0 424 170l52 -76 q-260 -194 -486 -194q-206 0 -338 133t-132 327z" unicode="c"/><glyph d="M106 424q0 194 134 319t306 125q96 0 192 -46t150 -126h4v450l-322 -20l-6 90l428 38v-1160h170v-94h-270v148h-4q-124 -168 -338 -168q-186 0 -315 131t-129 313zM214 426q0 -150 99 -248t237 -98t238 98t100 242q0 132 -91 240t-247 108q-136 0 -236 -96t-100 -246z" unicode="d"/><glyph d="M148 428q0 192 130 327t344 135q212 0 333 -122t121 -276q0 -18 -2 -52t-2 -38h-816q2 -48 20 -98t56 -107t117 -93t187 -36q168 0 436 134l46 -88q-254 -142 -484 -142q-232 0 -359 133t-127 323zM256 496h712q-2 112 -91 205t-255 93q-92 0 -165 -33t-113 -84t-61 -96 t-27 -85z" unicode="e"/><glyph d="M194 0v94h208v648h-208v94h208v112q0 72 9 118t39 93t96 69t170 22q124 0 296 -32l-42 -100q-128 32 -280 32q-68 0 -108 -15t-57 -51t-20 -62t-3 -80v-106h426v-94h-426v-648h426v-94h-734z" unicode="f"/><glyph d="M94 444q0 180 128 302t300 122q32 0 70 -4t118 -43t130 -107h4v146h262v-94h-162v-706q0 -192 -100 -283t-358 -91h-126v94q102 0 154 2t118 10t97 25t62 48t42 79t11 116v116h-4q-30 -48 -116 -102t-202 -54q-180 0 -304 126t-124 298zM202 446q0 -136 95 -231t229 -95 q138 0 228 96t90 224q0 144 -94 236t-224 92q-128 0 -226 -92t-98 -230z" unicode="g"/><glyph d="M50 1234l294 24v-510q60 44 99 68t108 49t135 25q136 0 216 -91t80 -239v-466h168v-94h-438v94h170v458q0 108 -52 173t-140 65q-150 0 -346 -160v-536h158v-94h-426v94h168v1062l-186 -16z" unicode="h"/><glyph d="M202 0v94h352v672h-294v94h394v-766h346v-94h-798zM510 1074v238h144v-238h-144z" unicode="i"/><glyph d="M136 -268l22 96q130 -30 254 -30q76 0 130 22t80 49t40 74t16 75t2 76v672h-510v94h610v-780q0 -34 -1 -56t-8 -66t-20 -74t-41 -68t-66 -62t-99 -40t-139 -16q-108 0 -270 34zM596 1074v238h144v-238h-144z" unicode="j"/><glyph d="M72 1232l298 26v-780l374 284v4h-112v94h418v-94h-156l-336 -258q258 -232 400 -414h168v-94h-416v94h128q-104 124 -356 358l-112 -86v-366h-266v94h166v1060l-190 -16z" unicode="k"/><glyph d="M202 0v94h348v1032l-326 -24l-10 92l436 28v-1128h348v-94h-796z" unicode="l"/><glyph d="M0 0v94h136v672h-136v94h228v-70l26 22q70 70 172 70q64 0 118 -33t82 -93q108 126 228 126q52 0 102 -24t76 -62q30 -44 41 -93t11 -159v-450h114v-94h-214v544q0 58 -2 87t-13 71t-39 61t-74 19q-102 0 -196 -132v-556h124v-94h-224v552q0 40 -1 60t-7 58t-19 58 t-40 37t-65 17q-102 0 -192 -112v-576h136v-94h-372z" unicode="m"/><glyph d="M68 0v94h164v672h-164v94h264v-112q64 46 100 68t106 48t138 26q136 0 217 -92t81 -238v-466h160v-94h-432v94h172v458q0 110 -54 174t-142 64q-144 0 -346 -160v-536h168v-94h-432z" unicode="n"/><glyph d="M104 436q0 192 132 328t364 136q236 0 366 -138t130 -326t-130 -326t-366 -138q-232 0 -364 137t-132 327zM212 436q0 -150 104 -257t284 -107q182 0 285 108t103 256q0 150 -103 257t-285 107q-180 0 -284 -107t-104 -257z" unicode="o"/><glyph d="M38 -220h164v986h-164v94h264v-142h4q124 168 344 168q196 0 321 -134t125 -314q0 -194 -136 -323t-306 -129q-210 0 -348 172h-4v-378h298v-94h-562v94zM294 444q0 -164 112 -261t244 -97q138 0 238 102t100 252q0 136 -89 241t-247 105q-154 0 -256 -101t-102 -241z" unicode="p"/><glyph d="M104 438q0 180 125 314t321 134q220 0 344 -168h4v142h264v-94h-164v-986h164v-94h-562v94h298v378h-4q-138 -172 -348 -172q-170 0 -306 129t-136 323zM212 440q0 -150 100 -252t238 -102q132 0 244 97t112 261q0 140 -102 241t-256 101q-158 0 -247 -105t-89 -241z" unicode="q"/><glyph d="M150 0v94h248v672h-232v94h332v-200q50 50 79 76t87 69t119 63t129 20q58 0 105 -19t69 -38t50 -53l-106 -78q-8 8 -8 14q-16 24 -25 35t-37 25t-64 14q-60 0 -122 -26t-120 -76t-86 -79t-70 -75v-438h380v-94h-728z" unicode="r"/><glyph d="M194 -26q12 68 12 126q0 60 -12 198l88 10q6 -30 11 -52t27 -60t54 -63t92 -44t138 -19q40 0 82 6t95 22t86 54t33 92q0 44 -19 70t-65 39t-85 17t-117 6q-416 16 -416 258q0 108 99 180t255 72q136 0 230 -58q18 -18 44 -18q20 0 36 48l12 42l90 -14q-18 -94 -18 -172 q0 -42 10 -126l-88 -10q-8 42 -18 68t-40 64t-94 57t-162 19q-114 0 -181 -42t-67 -106q0 -36 12 -62t44 -43t60 -28t87 -17t95 -9t114 -7q26 -2 49 -4t71 -16t82 -35t61 -65t27 -104q0 -134 -117 -206t-265 -72q-146 0 -294 84q-6 4 -10 4q-18 0 -40 -84h-88z" unicode="s"/><glyph d="M210 738v94h136v294h100v-294h484v-94h-484v-378q0 -60 1 -89t12 -75t31 -67t62 -39t102 -18q138 0 386 104l36 -90q-252 -114 -412 -114q-158 0 -248 90q-48 48 -59 111t-11 187v378h-136z" unicode="t"/><glyph d="M64 766v94h264v-530q0 -258 200 -258q166 0 322 174v520h-172v94h272v-766h162v-94h-262v110q-154 -138 -314 -138q-90 0 -154 33t-96 88t-45 113t-13 124v436h-164z" unicode="u"/><glyph d="M42 766v94h426v-94h-162l300 -650l304 650h-158v94h406v-94h-148l-362 -766h-94l-364 766h-148z" unicode="v"/><glyph d="M4 766v94h358v-94h-166l176 -606h4l196 544h70l198 -552h4l180 614h-168v94h340v-94h-78l-224 -766h-104l-190 516l-186 -516h-98l-226 766h-86z" unicode="w"/><glyph d="M52 0v94h124l352 356l-318 316h-128v94h386v-94h-122l250 -250l250 250h-116v94h368v-94h-122l-314 -316l360 -356h126v-94h-406v94h142l-288 292l-290 -292h140v-94h-394z" unicode="x"/><glyph d="M48 766v94h374v-94h-138l316 -608l348 608h-136v94h366v-94h-116l-560 -978h178v-94h-600v94h308l154 266l-372 712h-122z" unicode="y"/><glyph d="M208 0v94l642 672h-528v-178h-94v272h764v-86l-648 -680h554v184h94v-278h-784z" unicode="z"/><glyph d="M470 506v102q170 16 170 130q0 46 -18 136q-30 152 -30 176q0 254 330 254v-96q-48 0 -79 -4t-69 -17t-58 -45t-20 -84q0 -58 24 -162l16 -70q10 -70 10 -88q0 -46 -19 -84t-38 -55t-53 -43q32 -24 51 -42t39 -56t20 -82q0 -18 -10 -88l-16 -70q-24 -104 -24 -164 q0 -52 21 -84t62 -45t70 -16t73 -3v-96q-114 0 -164 16q-78 26 -122 89t-44 143q0 44 12 100q10 56 18 82q18 94 18 140q0 108 -170 126z" unicode="{"/><glyph d="M548 -370v1716h106v-1716h-106z" unicode="|"/><glyph d="M278 -94q48 0 79 4t69 17t58 45t20 84q0 58 -24 162l-16 70q-10 70 -10 88q0 46 19 84t38 55t53 43q-32 24 -51 42t-39 56t-20 82q0 18 10 88l16 70q24 104 24 164q0 52 -21 84t-62 45t-70 16t-73 3v96q114 0 164 -16q78 -26 122 -89t44 -143q0 -44 -12 -100 q-10 -56 -18 -82q-18 -94 -18 -140q0 -110 170 -126v-102q-170 -16 -170 -130q0 -46 18 -136q30 -152 30 -176q0 -254 -330 -254v96z" unicode="}"/><glyph d="M172 536q36 62 60 96t75 70t109 36t210 -64q126 -52 156 -52q94 0 170 134q0 8 10 18l68 -76q-108 -190 -246 -190q-48 0 -188 56q-140 60 -180 60q-38 0 -71 -25t-52 -53t-55 -88z" unicode="~"/><glyph d="M462 778q0 50 40 86t98 36t98 -36t40 -88q0 -50 -40 -86t-98 -36q-60 0 -99 36t-39 88zM516 -276l38 756h92l36 -756h-166z" unicode="¡"/><glyph d="M222 562q0 146 91 255t253 135v272h98v-272q58 -4 108 -24t69 -35t29 -25q2 0 6 -4t6 -4q8 0 14 19t6 27q4 16 4 24l94 -10q-18 -108 -18 -162q0 -30 6 -120l-94 -12q-6 132 -76 184q-68 50 -154 50v-588q92 16 146 37t160 85l48 -82q-2 0 -6 -3t-6 -3q-98 -62 -160 -86 t-182 -46v-288h-98v288q-112 24 -169 57t-105 101q-70 104 -70 230zM326 564q0 -106 68 -194q58 -72 172 -96v580q-68 -16 -117 -50t-72 -69t-36 -78t-14 -60t-1 -33z" unicode="¢"/><glyph d="M192 584v94h182q-52 138 -52 218q0 138 106 233t252 95q106 0 228 -48q18 -6 22 -6q8 0 16 20h90q-28 -108 -38 -224l-90 -10q4 64 4 66q0 38 -26 56q-84 48 -202 48q-122 0 -193 -70t-71 -158q0 -70 54 -220h486v-94h-458q18 -80 18 -146q0 -184 -106 -340l4 -4 q76 38 142 38q62 0 154 -36q80 -30 114 -30q70 0 170 82l58 -72q-104 -104 -222 -104q-60 0 -140 30q-98 36 -144 36q-92 0 -226 -78l-66 86q168 172 168 384q0 78 -24 154h-210z" unicode="£"/><glyph d="M150 190l164 160q-70 102 -70 200q0 130 70 230l-164 162l70 66l162 -160q94 74 218 74q118 0 218 -74l162 160l70 -66l-164 -162q72 -100 72 -200q0 -130 -72 -230l164 -160l-70 -68l-162 160q-92 -74 -218 -74q-122 0 -218 74l-162 -160zM338 566q0 -106 72 -185 t188 -79t191 79t75 185t-74 184t-190 78q-118 0 -190 -79t-72 -183z" unicode="¤"/><glyph d="M64 1092v94h394v-94h-152l300 -390l294 390h-152v94h388v-94h-120l-362 -484v-26h288v-94h-288v-116h288v-94h-288v-184h238v-94h-572v94h238v184h-294v94h294v116h-294v94h294v26l-372 484h-122z" unicode="¥"/><glyph d="M548 -370v746h106v-746h-106zM548 600v746h106v-746h-106z" unicode="¦"/><glyph d="M248 576q0 70 48 130t114 74q-48 52 -48 134q0 110 92 172q58 40 188 40h296v-266h-94v172h-230q-148 0 -148 -116q0 -66 72 -120l276 -212q62 -48 90 -74t52 -68t24 -92q0 -62 -39 -119t-127 -75q38 -60 38 -120q0 -102 -74 -160t-200 -58h-316v288h94v-194h234 q62 0 110 31t48 91t-82 122l-268 206q-78 60 -114 105t-36 109zM352 578q0 -30 19 -57t81 -73l272 -210q84 4 118 40t34 72t-24 67t-100 89l-256 198q-40 -4 -70 -18t-43 -29t-21 -34t-9 -28t-1 -17z" unicode="§"/><glyph d="M398 1026v216h144v-216h-144zM658 1026v216h144v-216h-144z" unicode="¨"/><glyph d="M20 580q0 242 171 411t409 169q240 0 410 -169t170 -411t-170 -412t-410 -170t-410 171t-170 411zM96 578q0 -208 148 -356t356 -148t356 148t148 356q0 210 -148 358t-356 148t-356 -148t-148 -358zM278 580q0 142 91 242t255 100q112 0 236 -44v-194h-56 q-6 100 -20 120q-36 60 -152 60q-118 0 -185 -80t-67 -196q0 -120 68 -205t178 -85q58 0 104 28t63 52t35 62l48 -20q-34 -90 -110 -137t-168 -47q-144 0 -232 100t-88 244z" unicode="©"/><glyph d="M346 828q0 72 62 117t160 45q52 0 124 -10v14q0 50 -26 72t-82 22q-68 0 -174 -46l-28 68q124 50 204 50q182 0 182 -160v-236h86v-72h-162v56q-92 -70 -176 -70q-70 0 -120 44t-50 106zM356 532v72h488v-72h-488zM422 828q0 -32 28 -55t66 -23q90 0 176 96v62 q-70 10 -114 10q-72 0 -114 -24t-42 -66z" unicode="ª"/><glyph d="M158 454l468 406l66 -72l-388 -334l380 -330l-58 -72zM506 454l470 406l64 -72l-388 -334l382 -330l-58 -72z" unicode="«"/><glyph d="M180 776v100h858v-538h-100v438h-758z" unicode="¬"/><glyph d="M388 524v110h424v-110h-424z" unicode="­"/><glyph d="M20 580q0 242 171 411t409 169q240 0 410 -169t170 -411q0 -238 -170 -409t-410 -171t-410 171t-170 409zM96 580q0 -208 147 -356t357 -148t357 148t147 356q0 210 -149 357t-355 147q-208 0 -356 -147t-148 -357zM320 270v46q4 0 14 1t14 3q38 4 46 10t8 40v466 q0 36 -12 40q-6 2 -70 6v50h276q232 0 232 -170q0 -136 -152 -172q44 -32 108 -178q30 -68 49 -82t71 -12v-48h-80q-54 0 -80 34t-58 118q-40 106 -63 127t-95 21h-36v-200q0 -38 14 -46q2 -2 68 -8v-46h-254zM492 618h46q200 0 200 138q0 128 -164 128q-56 0 -69 -6 t-13 -36v-224z" unicode="®"/><glyph d="M260 1084v100h680v-100h-680z" unicode="¯"/><glyph d="M294 934q0 128 89 218t217 90t217 -91t89 -217t-89 -215t-217 -89t-217 88t-89 216zM404 936q0 -80 58 -138t138 -58q82 0 139 57t57 139t-57 139t-139 57t-139 -57t-57 -139z" unicode="°"/><glyph d="M132 62v100h936v-100h-936zM132 660v100h418v392h100v-392h418v-100h-418v-392h-100v392h-418z" unicode="±"/><glyph d="M334 496v78l18 16l224 202q100 92 126 131t26 95q0 60 -44 102t-106 42q-56 0 -96 -30t-42 -70l2 -24h-84v94q88 110 222 110q98 0 166 -66t68 -160q0 -72 -42 -130t-178 -184l-138 -126h278v114h78v-194h-478z" unicode="²"/><glyph d="M332 542l32 74q124 -58 200 -58q68 0 113 42t45 106q0 136 -162 136h-48v80q88 2 124 28q50 38 50 98q0 50 -36 82t-90 32q-66 0 -142 -52l-30 -20l-42 68q128 84 214 84q90 0 150 -55t60 -137q0 -94 -76 -156q112 -68 112 -188q0 -100 -69 -164t-177 -64q-76 0 -190 48z" unicode="³"/><glyph d="M430 1006l178 230h214l-286 -230h-106z" unicode="´"/><glyph d="M72 766v94h264v-472q0 -92 11 -138t45 -88q74 -92 198 -92q30 0 60 5t69 24t68 52t50 94t21 143v378h-164v94h264v-766h166v-94h-266v138h-4q-98 -168 -268 -168q-84 0 -148 45t-98 109h-4v-436h-100v1078h-164z" unicode="µ"/><glyph d="M202 828q0 72 14 125t45 85t60 51t80 26t81 9t88 2h414v-60h-96v-1160h104v-60h-232v60h38v1160h-164v-1160h38v-60h-252v60h124v616q-62 -4 -118 9t-109 44t-84 96t-31 157zM364 766q0 -16 2 -34t13 -48t28 -53t53 -38t84 -11v484q-44 -2 -67 -5t-54 -19t-45 -55 t-14 -101v-120z" unicode="¶"/><glyph d="M446 606q0 60 47 98t107 38t107 -38t47 -98t-47 -98t-107 -38q-58 0 -106 37t-48 99z" unicode="·"/><glyph d="M404 -260l14 88q118 -28 204 -28q68 0 68 26t-35 35t-109 15l14 120h90l-6 -46q60 -8 95 -38t40 -50t5 -36q0 -14 -4 -29t-18 -37t-50 -36t-88 -14q-84 0 -220 30z" unicode="¸"/><glyph d="M356 1134l244 108h52v-666h200v-80h-486v80h204v566l-182 -80z" unicode="¹"/><glyph d="M344 918q0 106 72 174t184 68t184 -68t72 -174t-72 -173t-184 -67t-184 67t-72 173zM356 532v72h488v-72h-488zM424 920q0 -76 49 -123t127 -47t127 47t49 123q0 74 -49 121t-127 47t-127 -47t-49 -121z" unicode="º"/><glyph d="M160 788l66 72l468 -406l-468 -402l-60 72l382 330zM508 788l66 72l468 -406l-468 -402l-58 72l380 330z" unicode="»"/><glyph d="M52 1158l206 86h48v-670h152v-76h-382v76h154v576l-146 -60zM120 -136l1020 1402l56 -40l-1020 -1406zM676 18v80l298 494h96v-500h106v-74h-106v-100h106v-72h-316v72h134v100h-318zM760 92h234v390h-4z" unicode="¼"/><glyph d="M38 1158l208 86h46v-670h152v-76h-382v76h154v576l-146 -60zM94 -136l1018 1402l58 -40l-1020 -1406zM722 -76q2 2 18 14q4 4 13 12t32 30t51 46l176 168q54 54 73 90t19 82q0 64 -43 106t-109 42q-52 0 -93 -30t-41 -68q0 -2 1 -9t1 -15h-76v90q88 108 212 108 q98 0 162 -64t64 -160q0 -72 -41 -136t-149 -162l-124 -110l-38 -36h282v114h68v-190h-458v78z" unicode="½"/><glyph d="M44 544l30 70q120 -56 202 -56q72 0 118 41t46 109t-44 106t-124 36l-44 -2v74q88 2 124 28q52 36 52 102q0 50 -37 83t-95 33t-146 -52l-30 -18l-38 64q126 82 214 82q90 0 151 -55t61 -135q0 -96 -80 -158q116 -66 116 -188q0 -98 -70 -162t-178 -64q-66 0 -192 48z M134 -136l1020 1402l56 -40l-1020 -1406zM690 18v80l298 494h96v-500h106v-74h-106v-100h106v-72h-316v72h134v100h-318zM774 92h234v390h-4z" unicode="¾"/><glyph d="M240 48q0 82 35 145t99 101t112 57t116 37v120h98v-194q-22 -8 -40 -10q-58 -14 -87 -23t-80 -31t-78 -46t-49 -67t-22 -95q0 -82 64 -153t214 -71q104 0 226 48v128h100v-204q-118 -40 -181 -55t-143 -15q-180 0 -282 96t-102 232zM520 776q0 54 41 89t97 35t97 -35 t41 -89q0 -50 -40 -86t-98 -36t-98 35t-40 87z" unicode="¿"/><glyph d="M20 0v94h106l386 938h-286v94h430l422 -1032h102v-94h-410v94h204l-114 278h-522l-112 -278h204v-94h-410zM374 460h452l-226 548zM380 1502h214l154 -230h-104z" unicode="À"/><glyph d="M20 0v94h106l386 938h-286v94h430l422 -1032h102v-94h-410v94h204l-114 278h-522l-112 -278h204v-94h-410zM374 460h452l-226 548zM430 1272l178 230h214l-286 -230h-106z" unicode="Á"/><glyph d="M20 0v94h106l386 938h-286v94h430l422 -1032h102v-94h-410v94h204l-114 278h-522l-112 -278h204v-94h-410zM342 1318l176 190h154l184 -188l-64 -50l-202 132l-182 -132zM374 460h452l-226 548z" unicode="Â"/><glyph d="M20 0v94h106l386 938h-286v94h430l422 -1032h102v-94h-410v94h204l-114 278h-522l-112 -278h204v-94h-410zM280 1328q64 178 188 178q68 0 148 -68q72 -54 110 -54q72 0 114 120l80 -26q-4 -4 -4 -14q-24 -80 -77 -125t-119 -45q-62 0 -142 64q-78 58 -110 58 q-64 0 -104 -104l-4 -12zM374 460h452l-226 548z" unicode="Ã"/><glyph d="M20 0v94h106l386 938h-286v94h430l422 -1032h102v-94h-410v94h204l-114 278h-522l-112 -278h204v-94h-410zM374 460h452l-226 548zM398 1292v216h144v-216h-144zM658 1292v216h144v-216h-144z" unicode="Ä"/><glyph d="M20 0v94h106l386 938h-286v94h430l422 -1032h102v-94h-410v94h204l-114 278h-522l-112 -278h204v-94h-410zM374 460h452l-226 548zM448 1398q0 64 44 108t108 44t108 -44t44 -108t-44 -108t-108 -44t-108 44t-44 108zM524 1398q0 -32 23 -54t55 -22t53 22t21 54t-21 54 t-53 22t-55 -21t-23 -55z" unicode="Å"/><glyph d="M38 0v94h106l378 938h-206v94h782v-360h-90l-18 266h-286v-388h130v146h92v-386h-92v146h-130v-456h304l12 278h92v-372h-508v368h-246l-114 -274h178v-94h-384zM392 462h212v546h-4z" unicode="Æ"/><glyph d="M128 576q0 258 153 421t383 163q128 0 220 -58q4 -2 20 -16t30 -24t20 -10q20 0 30 96h74q-6 -180 20 -382l-94 -16q-6 40 -12 68t-29 78t-55 82t-91 57t-137 25q-166 0 -295 -125t-129 -357q0 -214 109 -363t323 -149q222 0 454 204l66 -72q-220 -210 -480 -232v-16 q46 0 93 -35t47 -89q0 -14 -4 -28t-18 -37t-50 -37t-88 -14q-84 0 -220 30l14 88q122 -28 208 -28q64 0 64 26t-35 35t-109 15l12 90q-136 14 -237 77t-154 155t-78 187t-25 191z" unicode="Ç"/><glyph d="M114 0v94h170v938h-170v94h950l8 -368h-92l-20 274h-576v-390h324v146h92v-384h-92v144h-324v-454h596l10 274h92v-368h-968zM380 1502h214l154 -230h-104z" unicode="È"/><glyph d="M114 0v94h170v938h-170v94h950l8 -368h-92l-20 274h-576v-390h324v146h92v-384h-92v144h-324v-454h596l10 274h92v-368h-968zM430 1272l178 230h214l-286 -230h-106z" unicode="É"/><glyph d="M114 0v94h170v938h-170v94h950l8 -368h-92l-20 274h-576v-390h324v146h92v-384h-92v144h-324v-454h596l10 274h92v-368h-968zM342 1318l176 190h154l184 -188l-64 -50l-202 132l-182 -132z" unicode="Ê"/><glyph d="M114 0v94h170v938h-170v94h950l8 -368h-92l-20 274h-576v-390h324v146h92v-384h-92v144h-324v-454h596l10 274h92v-368h-968zM398 1292v216h144v-216h-144zM658 1292v216h144v-216h-144z" unicode="Ë"/><glyph d="M200 0v94h350v938h-350v94h800v-94h-350v-938h350v-94h-800zM380 1502h214l154 -230h-104z" unicode="Ì"/><glyph d="M200 0v94h350v938h-350v94h800v-94h-350v-938h350v-94h-800zM430 1272l178 230h214l-286 -230h-106z" unicode="Í"/><glyph d="M200 0v94h350v938h-350v94h800v-94h-350v-938h350v-94h-800zM342 1318l176 190h154l184 -188l-64 -50l-202 132l-182 -132z" unicode="Î"/><glyph d="M200 0v94h350v938h-350v94h800v-94h-350v-938h350v-94h-800zM398 1292v216h144v-216h-144zM658 1292v216h144v-216h-144z" unicode="Ï"/><glyph d="M68 0v94h158v454h-158v94h158v390h-158v94h500q150 0 242 -28t168 -122q124 -154 124 -392q0 -310 -166 -468q-122 -116 -376 -116h-492zM326 94h234q204 0 300 94q134 134 134 390q0 194 -94 324q-58 82 -130 106t-200 24h-244v-390h332v-94h-332v-454z" unicode="Ð"/><glyph d="M56 0v94h156v938h-156v94h342l526 -1042h36v948h-224v94h446v-94h-130v-1058h-178l-536 1058h-34v-938h226v-94h-474zM280 1328q64 178 188 178q68 0 148 -68q72 -54 110 -54q72 0 114 120l80 -26q-4 -4 -4 -14q-24 -80 -77 -125t-119 -45q-62 0 -142 64q-78 58 -110 58 q-64 0 -104 -104l-4 -12z" unicode="Ñ"/><glyph d="M86 562q0 254 142 426t372 172q232 0 373 -173t141 -425q0 -250 -141 -423t-373 -173q-230 0 -372 172t-142 424zM194 564q0 -196 109 -347t297 -151t297 149t109 349q0 202 -110 349t-296 147q-192 0 -299 -151t-107 -345zM380 1502h214l154 -230h-104z" unicode="Ò"/><glyph d="M86 562q0 254 142 426t372 172q232 0 373 -173t141 -425q0 -250 -141 -423t-373 -173q-230 0 -372 172t-142 424zM194 564q0 -196 109 -347t297 -151t297 149t109 349q0 202 -110 349t-296 147q-192 0 -299 -151t-107 -345zM430 1272l178 230h214l-286 -230h-106z" unicode="Ó"/><glyph d="M86 562q0 254 142 426t372 172q232 0 373 -173t141 -425q0 -250 -141 -423t-373 -173q-230 0 -372 172t-142 424zM194 564q0 -196 109 -347t297 -151t297 149t109 349q0 202 -110 349t-296 147q-192 0 -299 -151t-107 -345zM342 1318l176 190h154l184 -188l-64 -50 l-202 132l-182 -132z" unicode="Ô"/><glyph d="M86 562q0 254 142 426t372 172q232 0 373 -173t141 -425q0 -250 -141 -423t-373 -173q-230 0 -372 172t-142 424zM194 564q0 -196 109 -347t297 -151t297 149t109 349q0 202 -110 349t-296 147q-192 0 -299 -151t-107 -345zM280 1328q64 178 188 178q68 0 148 -68 q72 -54 110 -54q72 0 114 120l80 -26q-4 -4 -4 -14q-24 -80 -77 -125t-119 -45q-62 0 -142 64q-78 58 -110 58q-64 0 -104 -104l-4 -12z" unicode="Õ"/><glyph d="M86 562q0 254 142 426t372 172q232 0 373 -173t141 -425q0 -250 -141 -423t-373 -173q-230 0 -372 172t-142 424zM194 564q0 -196 109 -347t297 -151t297 149t109 349q0 202 -110 349t-296 147q-192 0 -299 -151t-107 -345zM398 1292v216h144v-216h-144zM658 1292v216 h144v-216h-144z" unicode="Ö"/><glyph d="M236 320l294 292l-294 294l72 70l292 -292l292 292l72 -70l-294 -294l294 -292l-72 -72l-292 294l-292 -294z" unicode="×"/><glyph d="M86 560q0 254 142 427t374 173q178 0 324 -124l78 98l70 -52l-88 -112q128 -154 128 -412q0 -246 -140 -419t-366 -173q-182 0 -312 108l-100 -120l-68 54l100 130q-142 186 -142 422zM194 566q0 -78 24 -177t78 -165l566 730q-92 106 -264 106q-182 0 -293 -148 t-111 -346zM354 156q108 -90 246 -90q180 0 293 143t113 351q0 178 -88 322z" unicode="Ø"/><glyph d="M48 1032v94h448v-94h-204v-564q0 -182 38 -260q68 -142 268 -142q208 0 272 126q40 72 40 256v584h-204v94h448v-94h-144v-584q0 -236 -72 -336q-40 -56 -128 -101t-210 -45q-230 0 -340 156q-68 98 -68 346v564h-144zM380 1502h214l154 -230h-104z" unicode="Ù"/><glyph d="M48 1032v94h448v-94h-204v-564q0 -182 38 -260q68 -142 268 -142q208 0 272 126q40 72 40 256v584h-204v94h448v-94h-144v-584q0 -236 -72 -336q-40 -56 -128 -101t-210 -45q-230 0 -340 156q-68 98 -68 346v564h-144zM430 1272l178 230h214l-286 -230h-106z" unicode="Ú"/><glyph d="M48 1032v94h448v-94h-204v-564q0 -182 38 -260q68 -142 268 -142q208 0 272 126q40 72 40 256v584h-204v94h448v-94h-144v-584q0 -236 -72 -336q-40 -56 -128 -101t-210 -45q-230 0 -340 156q-68 98 -68 346v564h-144zM342 1318l176 190h154l184 -188l-64 -50l-202 132 l-182 -132z" unicode="Û"/><glyph d="M48 1032v94h448v-94h-204v-564q0 -182 38 -260q68 -142 268 -142q208 0 272 126q40 72 40 256v584h-204v94h448v-94h-144v-584q0 -236 -72 -336q-40 -56 -128 -101t-210 -45q-230 0 -340 156q-68 98 -68 346v564h-144zM398 1292v216h144v-216h-144zM658 1292v216h144 v-216h-144z" unicode="Ü"/><glyph d="M64 1032v94h392v-94h-152l302 -496l298 496h-156v94h388v-94h-126l-358 -596v-342h236v-94h-574v94h238v342l-362 596h-126zM430 1272l178 230h214l-286 -230h-106z" unicode="Ý"/><glyph d="M142 0v94h162v938h-162v94h488v-94h-226v-102h110q190 0 267 -11t139 -51q66 -42 107 -116t41 -162q0 -90 -42 -169t-106 -115q-70 -40 -143 -50t-263 -10h-110v-152h226v-94h-488zM404 340h114q110 0 156 1t108 14t94 39q84 66 84 190q0 76 -36 132t-84 80 q-74 40 -240 40h-196v-496z" unicode="Þ"/><glyph d="M130 0v94h152v808q0 158 95 253t229 95q128 0 206 -83t78 -203q0 -86 -47 -155t-119 -99q38 -14 62 -23t75 -41t82 -70t57 -105t26 -149q0 -140 -87 -238t-241 -98q-134 0 -230 66v104q120 -70 228 -70q86 0 154 61t68 185q0 304 -404 320v92q272 20 272 218 q0 82 -48 135t-136 53q-90 0 -155 -62t-65 -202v-886h-252z" unicode="ß"/><glyph d="M118 254q0 46 21 94t66 97t132 80t205 31q148 0 280 -26v62q0 28 -2 47t-14 54t-36 56t-73 38t-117 17q-150 0 -342 -84l-38 90q216 90 382 90q96 0 165 -26t102 -58t51 -83t20 -77t2 -64v-498h178v-94h-278v144q-186 -172 -382 -172q-142 0 -232 86t-90 196zM226 252 q0 -74 64 -129t148 -55q196 0 384 210v160q-126 22 -260 22q-92 0 -161 -20t-101 -45t-50 -60t-21 -52t-3 -31zM380 1236h214l154 -230h-104z" unicode="à"/><glyph d="M118 254q0 46 21 94t66 97t132 80t205 31q148 0 280 -26v62q0 28 -2 47t-14 54t-36 56t-73 38t-117 17q-150 0 -342 -84l-38 90q216 90 382 90q96 0 165 -26t102 -58t51 -83t20 -77t2 -64v-498h178v-94h-278v144q-186 -172 -382 -172q-142 0 -232 86t-90 196zM226 252 q0 -74 64 -129t148 -55q196 0 384 210v160q-126 22 -260 22q-92 0 -161 -20t-101 -45t-50 -60t-21 -52t-3 -31zM430 1006l178 230h214l-286 -230h-106z" unicode="á"/><glyph d="M118 254q0 46 21 94t66 97t132 80t205 31q148 0 280 -26v62q0 28 -2 47t-14 54t-36 56t-73 38t-117 17q-150 0 -342 -84l-38 90q216 90 382 90q96 0 165 -26t102 -58t51 -83t20 -77t2 -64v-498h178v-94h-278v144q-186 -172 -382 -172q-142 0 -232 86t-90 196zM226 252 q0 -74 64 -129t148 -55q196 0 384 210v160q-126 22 -260 22q-92 0 -161 -20t-101 -45t-50 -60t-21 -52t-3 -31zM302 1052l176 190h154l184 -188l-64 -50l-202 132l-182 -132z" unicode="â"/><glyph d="M118 254q0 46 21 94t66 97t132 80t205 31q148 0 280 -26v62q0 28 -2 47t-14 54t-36 56t-73 38t-117 17q-150 0 -342 -84l-38 90q216 90 382 90q96 0 165 -26t102 -58t51 -83t20 -77t2 -64v-498h178v-94h-278v144q-186 -172 -382 -172q-142 0 -232 86t-90 196zM226 252 q0 -74 64 -129t148 -55q196 0 384 210v160q-126 22 -260 22q-92 0 -161 -20t-101 -45t-50 -60t-21 -52t-3 -31zM280 1062q64 178 188 178q68 0 148 -68q72 -54 110 -54q72 0 114 120l80 -26q-4 -4 -4 -14q-24 -80 -77 -125t-119 -45q-62 0 -142 64q-78 58 -110 58 q-64 0 -104 -104l-4 -12z" unicode="ã"/><glyph d="M118 254q0 46 21 94t66 97t132 80t205 31q148 0 280 -26v62q0 28 -2 47t-14 54t-36 56t-73 38t-117 17q-150 0 -342 -84l-38 90q216 90 382 90q96 0 165 -26t102 -58t51 -83t20 -77t2 -64v-498h178v-94h-278v144q-186 -172 -382 -172q-142 0 -232 86t-90 196zM226 252 q0 -74 64 -129t148 -55q196 0 384 210v160q-126 22 -260 22q-92 0 -161 -20t-101 -45t-50 -60t-21 -52t-3 -31zM358 1026v216h144v-216h-144zM618 1026v216h144v-216h-144z" unicode="ä"/><glyph d="M118 254q0 46 21 94t66 97t132 80t205 31q148 0 280 -26v62q0 28 -2 47t-14 54t-36 56t-73 38t-117 17q-150 0 -342 -84l-38 90q216 90 382 90q96 0 165 -26t102 -58t51 -83t20 -77t2 -64v-498h178v-94h-278v144q-186 -172 -382 -172q-142 0 -232 86t-90 196zM226 252 q0 -74 64 -129t148 -55q196 0 384 210v160q-126 22 -260 22q-92 0 -161 -20t-101 -45t-50 -60t-21 -52t-3 -31zM448 1132q0 64 44 108t108 44t108 -44t44 -108t-44 -108t-108 -44t-108 44t-44 108zM524 1132q0 -32 23 -54t55 -22t53 22t21 54t-21 54t-53 22t-55 -21t-23 -55 z" unicode="å"/><glyph d="M66 232q0 114 85 207t235 93q20 0 154 -18v70q0 114 -29 167t-117 53t-240 -54l-28 88q162 62 270 62q98 0 145 -40t71 -110q32 42 54 67t74 54t110 29q22 0 45 -4t72 -31t83 -74t58 -147t18 -238h-486q4 -96 16 -151t48 -103q62 -84 170 -84q94 0 226 44l36 -86 q-156 -54 -266 -54q-156 0 -258 148q-150 -150 -298 -150q-114 0 -181 78t-67 184zM166 232q0 -66 38 -116t108 -50q98 0 228 112v240q-88 18 -152 18q-120 0 -171 -65t-51 -139zM640 500h386q-2 146 -49 225t-129 79q-80 0 -146 -80q-28 -34 -42 -73t-16 -68t-4 -83z" unicode="æ"/><glyph d="M142 432q0 178 125 318t353 140q144 0 260 -82q2 -2 13 -9t19 -15l10 -6q8 0 16 26l16 82l92 -10q-18 -120 -18 -184q0 -54 6 -132l-92 -14q-18 80 -32 114t-50 64q-82 66 -230 66q-180 0 -280 -107t-100 -249q0 -144 95 -253t277 -109q180 0 424 170l52 -76 q-122 -90 -219 -135t-219 -57v-26q40 -10 61 -41t21 -69q0 -44 -29 -85t-91 -41q-52 0 -116 44l44 74q46 -30 64 -30q38 0 38 36q0 34 -42 34q-22 0 -46 -4l8 108q-168 6 -299 132t-131 326z" unicode="ç"/><glyph d="M148 428q0 192 130 327t344 135q212 0 333 -122t121 -276q0 -18 -2 -52t-2 -38h-816q2 -48 20 -98t56 -107t117 -93t187 -36q168 0 436 134l46 -88q-254 -142 -484 -142q-232 0 -359 133t-127 323zM256 496h712q-2 112 -91 205t-255 93q-92 0 -165 -33t-113 -84t-61 -96 t-27 -85zM414 1236h214l154 -230h-104z" unicode="è"/><glyph d="M148 428q0 192 130 327t344 135q212 0 333 -122t121 -276q0 -18 -2 -52t-2 -38h-816q2 -48 20 -98t56 -107t117 -93t187 -36q168 0 436 134l46 -88q-254 -142 -484 -142q-232 0 -359 133t-127 323zM256 496h712q-2 112 -91 205t-255 93q-92 0 -165 -33t-113 -84t-61 -96 t-27 -85zM430 1006l178 230h214l-286 -230h-106z" unicode="é"/><glyph d="M148 428q0 192 130 327t344 135q212 0 333 -122t121 -276q0 -18 -2 -52t-2 -38h-816q2 -48 20 -98t56 -107t117 -93t187 -36q168 0 436 134l46 -88q-254 -142 -484 -142q-232 0 -359 133t-127 323zM256 496h712q-2 112 -91 205t-255 93q-92 0 -165 -33t-113 -84t-61 -96 t-27 -85zM342 1052l176 190h154l184 -188l-64 -50l-202 132l-182 -132z" unicode="ê"/><glyph d="M148 428q0 192 130 327t344 135q212 0 333 -122t121 -276q0 -18 -2 -52t-2 -38h-816q2 -48 20 -98t56 -107t117 -93t187 -36q168 0 436 134l46 -88q-254 -142 -484 -142q-232 0 -359 133t-127 323zM256 496h712q-2 112 -91 205t-255 93q-92 0 -165 -33t-113 -84t-61 -96 t-27 -85zM398 1026v216h144v-216h-144zM658 1026v216h144v-216h-144z" unicode="ë"/><glyph d="M202 0v94h352v672h-294v94h394v-766h346v-94h-798zM380 1236h214l154 -230h-104z" unicode="ì"/><glyph d="M202 0v94h352v672h-294v94h394v-766h346v-94h-798zM430 1006l178 230h214l-286 -230h-106z" unicode="í"/><glyph d="M202 0v94h352v672h-294v94h394v-766h346v-94h-798zM342 1052l176 190h154l184 -188l-64 -50l-202 132l-182 -132z" unicode="î"/><glyph d="M202 0v94h352v672h-294v94h394v-766h346v-94h-798zM398 1026v216h144v-216h-144zM658 1026v216h144v-216h-144z" unicode="ï"/><glyph d="M104 436q0 210 142 337t336 127q162 0 274 -54l4 4q-66 86 -133 148t-197 138l-104 -164l-86 60l100 152q-142 66 -222 90l34 98q126 -40 244 -98l82 134l86 -56l-78 -124q510 -310 510 -774q0 -226 -140 -354t-356 -128q-234 0 -365 137t-131 327zM212 436 q0 -152 105 -261t283 -109q182 0 285 110t103 260t-104 260t-284 110q-178 0 -283 -109t-105 -261z" unicode="ð"/><glyph d="M68 0v94h164v672h-164v94h264v-112q64 46 100 68t106 48t138 26q136 0 217 -92t81 -238v-466h160v-94h-432v94h172v458q0 110 -54 174t-142 64q-144 0 -346 -160v-536h168v-94h-432zM280 1062q64 178 188 178q68 0 148 -68q72 -54 110 -54q72 0 114 120l80 -26 q-4 -4 -4 -14q-24 -80 -77 -125t-119 -45q-62 0 -142 64q-78 58 -110 58q-64 0 -104 -104l-4 -12z" unicode="ñ"/><glyph d="M104 436q0 192 132 328t364 136q236 0 366 -138t130 -326t-130 -326t-366 -138q-232 0 -364 137t-132 327zM212 436q0 -150 104 -257t284 -107q182 0 285 108t103 256q0 150 -103 257t-285 107q-180 0 -284 -107t-104 -257zM380 1236h214l154 -230h-104z" unicode="ò"/><glyph d="M104 436q0 192 132 328t364 136q236 0 366 -138t130 -326t-130 -326t-366 -138q-232 0 -364 137t-132 327zM212 436q0 -150 104 -257t284 -107q182 0 285 108t103 256q0 150 -103 257t-285 107q-180 0 -284 -107t-104 -257zM430 1006l178 230h214l-286 -230h-106z" unicode="ó"/><glyph d="M104 436q0 192 132 328t364 136q236 0 366 -138t130 -326t-130 -326t-366 -138q-232 0 -364 137t-132 327zM212 436q0 -150 104 -257t284 -107q182 0 285 108t103 256q0 150 -103 257t-285 107q-180 0 -284 -107t-104 -257zM342 1052l176 190h154l184 -188l-64 -50 l-202 132l-182 -132z" unicode="ô"/><glyph d="M104 436q0 192 132 328t364 136q236 0 366 -138t130 -326t-130 -326t-366 -138q-232 0 -364 137t-132 327zM212 436q0 -150 104 -257t284 -107q182 0 285 108t103 256q0 150 -103 257t-285 107q-180 0 -284 -107t-104 -257zM280 1062q64 178 188 178q68 0 148 -68 q72 -54 110 -54q72 0 114 120l80 -26q-4 -4 -4 -14q-24 -80 -77 -125t-119 -45q-62 0 -142 64q-78 58 -110 58q-64 0 -104 -104l-4 -12z" unicode="õ"/><glyph d="M104 436q0 192 132 328t364 136q236 0 366 -138t130 -326t-130 -326t-366 -138q-232 0 -364 137t-132 327zM212 436q0 -150 104 -257t284 -107q182 0 285 108t103 256q0 150 -103 257t-285 107q-180 0 -284 -107t-104 -257zM398 1026v216h144v-216h-144zM658 1026v216 h144v-216h-144z" unicode="ö"/><glyph d="M132 556v100h936v-100h-936zM510 246q0 38 27 64t63 26q34 0 62 -26t28 -64t-27 -64t-63 -26t-63 26t-27 64zM510 966q0 40 27 65t63 25t63 -26t27 -64q0 -36 -26 -63t-64 -27t-64 27t-26 63z" unicode="÷"/><glyph d="M104 438q0 188 132 325t364 137q192 0 304 -90l98 100l76 -76l-92 -92q110 -128 110 -306q0 -192 -133 -328t-359 -136q-184 0 -314 92l-92 -92l-78 74l92 92q-108 130 -108 300zM212 436q0 -130 76 -226l542 528q-6 4 -26 14t-27 13t-25 11t-30 10t-32 7t-42 6t-48 1 q-182 0 -285 -109t-103 -255zM368 136q36 -22 53 -31t66 -21t113 -12q182 0 285 108t103 256q0 130 -80 228z" unicode="ø"/><glyph d="M64 766v94h264v-530q0 -258 200 -258q166 0 322 174v520h-172v94h272v-766h162v-94h-262v110q-154 -138 -314 -138q-90 0 -154 33t-96 88t-45 113t-13 124v436h-164zM380 1236h214l154 -230h-104z" unicode="ù"/><glyph d="M64 766v94h264v-530q0 -258 200 -258q166 0 322 174v520h-172v94h272v-766h162v-94h-262v110q-154 -138 -314 -138q-90 0 -154 33t-96 88t-45 113t-13 124v436h-164zM430 1006l178 230h214l-286 -230h-106z" unicode="ú"/><glyph d="M64 766v94h264v-530q0 -258 200 -258q166 0 322 174v520h-172v94h272v-766h162v-94h-262v110q-154 -138 -314 -138q-90 0 -154 33t-96 88t-45 113t-13 124v436h-164zM342 1052l176 190h154l184 -188l-64 -50l-202 132l-182 -132z" unicode="û"/><glyph d="M64 766v94h264v-530q0 -258 200 -258q166 0 322 174v520h-172v94h272v-766h162v-94h-262v110q-154 -138 -314 -138q-90 0 -154 33t-96 88t-45 113t-13 124v436h-164zM398 1026v216h144v-216h-144zM658 1026v216h144v-216h-144z" unicode="ü"/><glyph d="M48 766v94h374v-94h-138l316 -608l348 608h-136v94h366v-94h-116l-560 -978h178v-94h-600v94h308l154 266l-372 712h-122zM430 1006l178 230h214l-286 -230h-106z" unicode="ý"/><glyph d="M24 1146v94l278 18v-540h4q118 168 344 168q196 0 321 -134t125 -314q0 -194 -136 -323t-306 -129q-210 0 -348 172h-4v-378h298v-94h-562v94h164v1374zM294 444q0 -164 112 -261t244 -97q138 0 238 102t100 252q0 136 -89 241t-247 105q-154 0 -256 -101t-102 -241z" unicode="þ"/><glyph d="M48 766v94h374v-94h-138l316 -608l348 608h-136v94h366v-94h-116l-560 -978h178v-94h-600v94h308l154 266l-372 712h-122zM398 1026v216h144v-216h-144zM658 1026v216h144v-216h-144z" unicode="ÿ"/><glyph d="M32 554q0 244 146 408t380 164h516v-360h-88l-18 266h-264v-388h130v146h92v-386h-92v146h-130v-456h292l12 276h92v-370h-616q-146 0 -253 92t-153 214t-46 248zM140 560q0 -78 22 -156t64 -149t118 -116t172 -45h88v938h-52q-192 0 -302 -136t-110 -336z" unicode="Œ"/><glyph d="M20 394q0 136 31 246t108 186t193 76q104 0 165 -56t83 -110q44 80 111 122t137 42q96 0 163 -71t92 -157t25 -170q0 -56 -4 -92h-484q-2 -98 20 -170t60 -107t75 -51t75 -16q86 0 230 44l36 -86q-158 -54 -262 -54q-190 0 -274 186q-86 -186 -274 -186q-74 0 -130 25 t-87 71t-51 89t-27 100t-9 82t-2 57zM128 400q0 -84 15 -154t62 -125t119 -55q216 0 216 356q0 122 -15 202t-44 118t-59 51t-70 13q-78 0 -130 -65t-73 -153t-21 -188zM640 498h388q0 126 -46 216t-134 90q-22 0 -50 -11t-66 -39t-64 -95t-28 -161z" unicode="œ"/><glyph d="M64 1032v94h392v-94h-152l302 -496l298 496h-156v94h388v-94h-126l-358 -596v-342h236v-94h-574v94h238v342l-362 596h-126zM398 1292v216h144v-216h-144zM658 1292v216h144v-216h-144z" unicode="Ÿ"/><glyph d="M342 1052l176 190h154l184 -188l-64 -50l-202 132l-182 -132z" unicode="ˆ"/><glyph d="M280 1062q64 178 188 178q68 0 148 -68q72 -54 110 -54q72 0 114 120l80 -26q-4 -4 -4 -14q-24 -80 -77 -125t-119 -45q-62 0 -142 64q-78 58 -110 58q-64 0 -104 -104l-4 -12z" unicode="˜"/><glyph horiz-adv-x="775"/><glyph horiz-adv-x="1550"/><glyph horiz-adv-x="775"/><glyph horiz-adv-x="1550"/><glyph horiz-adv-x="516"/><glyph horiz-adv-x="387"/><glyph horiz-adv-x="258"/><glyph horiz-adv-x="258"/><glyph horiz-adv-x="193"/><glyph horiz-adv-x="310"/><glyph horiz-adv-x="86"/><glyph d="M388 524v110h424v-110h-424z" unicode="‐"/><glyph d="M388 524v110h424v-110h-424z" unicode="‑"/><glyph d="M388 524v110h424v-110h-424z" unicode="‒"/><glyph d="M176 524v110h848v-110h-848z" unicode="–"/><glyph d="M-96 524v110h1392v-110h-1392z" unicode="—"/><glyph d="M352 640l216 486h142l-152 -486h-206z" unicode="‘"/><glyph d="M354 640l152 486h208l-218 -486h-142z" unicode="’"/><glyph d="M354 -218l152 484h208l-218 -484h-142z" unicode="‚"/><glyph d="M314 640l218 486h142l-154 -486h-206zM660 640l216 486h142l-152 -486h-206z" unicode="“"/><glyph d="M182 640l152 486h208l-218 -486h-142zM526 640l154 486h206l-218 -486h-142z" unicode="”"/><glyph d="M182 -218l152 484h208l-218 -484h-142zM526 -218l154 484h206l-218 -484h-142z" unicode="„"/><glyph d="M400 564q0 -82 59 -141t141 -59t141 59t59 141t-59 141t-141 59t-141 -59t-59 -141z" unicode="•"/><glyph d="M46 102q0 60 47 98t107 38t107 -38t47 -98t-47 -98t-107 -38q-58 0 -106 37t-48 99zM446 102q0 60 47 98t107 38t107 -38t47 -98t-47 -98t-107 -38q-58 0 -106 37t-48 99zM846 102q0 60 47 98t107 38t107 -38t47 -98t-47 -98t-107 -38q-58 0 -106 37t-48 99z" unicode="…"/><glyph horiz-adv-x="310"/><glyph d="M332 454l468 406l66 -72l-388 -334l382 -332l-60 -70z" unicode="‹"/><glyph d="M334 788l64 72l470 -406l-470 -402l-58 70l382 332z" unicode="›"/><glyph horiz-adv-x="387"/><glyph d="M4 972q10 70 10 114v40h454l-4 -56l4 -66v-32h-52q-2 40 -5 58t-20 31t-51 13h-62v-470q0 -8 2 -11t14 -5t38 -2h30v-48h-252v48q62 0 74 4t12 26v458q-92 2 -112 -14t-28 -88h-52zM512 538v48q64 0 64 20v452q0 20 -54 20v48h146l182 -446l196 446h150v-48 q-58 0 -64 -10q-2 -4 -2 -8v-444q0 -18 10 -22t56 -8v-48h-220v48q26 0 35 1t20 4t13 9t2 16v386h-4l-192 -464h-28l-188 464h-4v-376q0 -26 11 -32t59 -8v-48h-188z" unicode="™"/><glyph d="M0 0v860h860v-860h-860z" horiz-adv-x="860" unicode="◼"/><glyph d="M4 0v94h158v648h-158v94h158v112q0 46 2 74t17 77t43 77t86 51t138 23t192 -28q22 10 46 20q32 8 62 8q40 0 124 -16l14 -4l-28 -100q-68 20 -110 20q-30 0 -49 -12t-29 -27t-15 -47t-6 -53t-1 -63v-112h386v-742h162v-94h-1192zM262 94h286v648h-286v-648zM262 836h286 v102q0 134 20 194q-80 18 -138 18q-48 0 -82 -14t-50 -31t-25 -50t-10 -53t-1 -60v-106zM648 94h286v648h-286v-648zM930 1074v238h132v-238h-132z" unicode="ﬃ"/><glyph d="M4 0v94h158v648h-158v94h158v112q0 40 2 67t17 76t43 79t88 55t142 25q92 0 206 -38q40 16 82 28q44 10 92 10q80 0 200 -32v-1124h162v-94h-1192zM262 94h286v648h-286v-648zM262 836h286v106q0 122 28 178q-64 30 -142 30q-62 0 -100 -18t-52 -56t-17 -62t-3 -72v-106z M648 94h286v1044q-44 12 -94 12q-56 0 -94 -12t-57 -27t-29 -48t-11 -55t-1 -66v-106h148v-94h-148v-648z" unicode="ﬄ"/></font>
</defs>
</svg>
