<?xml version="1.0" standalone="no"?>
<!DOCTYPE svg PUBLIC "-//W3C//DTD SVG 1.1//EN" "http://www.w3.org/Graphics/SVG/1.1/DTD/svg11.dtd" >
<svg xmlns="http://www.w3.org/2000/svg" xmlns:xlink="http://www.w3.org/1999/xlink" version="1.1">
<metadata></metadata>
<defs>
<font id="thabit-boldbold" horiz-adv-x="1200" >
<font-face units-per-em="2048" ascent="1638" descent="-410" />
<missing-glyph horiz-adv-x="1274" />
<glyph unicode="&#xfb01;" d="M32 0v164h232v554h-232v164h232v74q0 56 3 94t15 87t34 78t64 50t102 21q68 0 154 -26q2 0 15 -4t15 -6l-66 -172q-86 36 -114 36q-30 0 -39 -34t-9 -124v-74h500v-718h230v-164h-1136zM438 164h326v554h-326v-554zM716 1090v254h222v-254h-222z" />
<glyph unicode="&#xfb02;" d="M32 0v164h232v554h-232v164h232v76q0 52 3 87t22 86t52 81t99 52t160 22q24 0 96 -7t150 -15t92 -10v-1090h230v-164h-1136zM438 164h326v934q-88 16 -172 16q-106 0 -130 -32t-24 -132v-68h218v-164h-218v-554z" />
<glyph horiz-adv-x="0" />
<glyph horiz-adv-x="1274" />
<glyph unicode=" "  horiz-adv-x="1274" />
<glyph unicode="&#x09;" horiz-adv-x="1274" />
<glyph unicode="&#xa0;" horiz-adv-x="1274" />
<glyph unicode="!" d="M426 126q0 64 51 110t123 46t123 -46t51 -110q0 -66 -50 -112t-124 -46t-124 46t-50 112zM480 1182h242l-40 -808h-164z" />
<glyph unicode="&#x22;" d="M284 1166h264l-22 -622h-218zM652 1166h264l-22 -622h-218z" />
<glyph unicode="#" d="M100 242v196h188l18 312h-200v196h212l22 370h174l-22 -370h304l22 370h170l-22 -370h182v-196h-196l-14 -312h200v-196h-212l-22 -388h-170l22 388h-304l-28 -388h-170l28 388h-182zM460 438h306l16 312h-302z" />
<glyph unicode="$" d="M186 470h160q6 -50 13 -80t26 -79t54 -76t87 -31v310q-58 16 -98 32t-95 50t-85 92t-30 134q0 134 92 216t216 98v208h142v-208q90 -18 142 -92l14 92h148q-12 -156 -12 -192q0 -96 20 -246l-156 -18q-8 72 -21 120t-47 95t-88 63v-312q56 -14 89 -24t84 -35t80 -55 t51 -80t22 -114q0 -42 -13 -83t-45 -89t-101 -85t-167 -51v-292h-142v292q-92 26 -150 94l-18 -108h-162q14 122 14 184q0 92 -24 270zM382 830q0 -58 37 -88t107 -52v276q-144 -20 -144 -136zM668 202q162 24 162 138q0 58 -42 90t-120 48v-276z" />
<glyph unicode="%" d="M42 980q0 114 86 201t218 87t218 -87t86 -201q0 -112 -83 -200t-221 -88q-140 0 -222 88t-82 200zM164 500l850 376l56 -110l-850 -376zM192 980q0 -62 42 -107t112 -45q68 0 111 44t43 108q0 60 -43 106t-111 46q-70 0 -112 -46t-42 -106zM550 260q0 112 83 200t221 88 t221 -89t83 -199q0 -112 -84 -200t-220 -88t-220 87t-84 201zM700 260q0 -58 40 -105t114 -47q72 0 113 47t41 105q0 60 -42 106t-112 46q-72 0 -113 -47t-41 -105z" />
<glyph unicode="&#x26;" d="M172 304q0 220 212 332q-94 138 -94 230q0 104 81 180t209 76q72 0 148 -30q4 -2 26 -11t24 -11q48 -20 84 -20q18 0 68 10l-134 -206q-132 98 -224 98q-48 0 -66 -21t-18 -43q0 -40 40 -100q4 -6 17 -26t28 -41t17 -25l176 -264q30 74 56 158q0 2 4 14t4 14h250v-170 h-126q-34 -104 -76 -178l70 -106h158v-164h-288l-66 94q-114 -108 -262 -108q-150 0 -234 99t-84 219zM382 336q0 -66 39 -119t101 -53q70 0 132 72l-174 260q-98 -60 -98 -160z" />
<glyph unicode="'" d="M448 1166h304l-44 -622h-216z" />
<glyph unicode="(" d="M536 574q0 182 73 385t157 331q4 4 24 34l6 8h184q-60 -114 -91 -177t-75 -171t-64 -208t-20 -202q0 -134 42 -280t83 -233t125 -247h-184q-2 4 -6 9t-8 11q-110 162 -178 366t-68 374z" />
<glyph unicode=")" d="M220 -186l14 28q70 132 110 216t83 234t43 282t-41 275t-82 231t-127 252h186q0 -8 6 -8q142 -218 197 -416t55 -334q0 -230 -116 -500q-48 -108 -142 -260h-186z" />
<glyph unicode="*" d="M186 784l66 202l252 -92l-12 272h216l-12 -272l254 92l64 -202l-262 -70l170 -212l-170 -126l-152 226l-152 -226l-170 126l170 212z" />
<glyph unicode="+" d="M108 536v176h404v394h176v-394h404v-176h-404v-394h-176v394h-404z" />
<glyph unicode="," d="M308 -212l174 548h288l-246 -548h-216z" />
<glyph unicode="-" d="M378 506v184h444v-184h-444z" />
<glyph unicode="." d="M412 138q0 76 58 123t130 47q70 0 129 -47t59 -123t-57 -123t-131 -47q-72 0 -130 47t-58 123z" />
<glyph unicode="/" d="M144 -196l756 1644l156 -66l-758 -1648z" />
<glyph unicode="0" d="M194 626q0 70 6 134t20 142t44 142t72 118t110 85t154 31q102 0 179 -46t119 -113t68 -161t33 -170t7 -162q0 -70 -5 -133t-19 -142t-44 -143t-73 -119t-111 -86t-154 -31q-102 0 -179 46t-119 114t-68 162t-33 171t-7 161zM376 626q0 -80 8 -151t29 -154t69 -133 t118 -50q224 0 224 488q0 486 -224 486q-86 0 -144 -78q-36 -50 -58 -164t-22 -244z" />
<glyph unicode="1" d="M170 1088l426 190h108v-1114h332v-164h-842v164h336v898l-290 -130z" />
<glyph unicode="2" d="M140 0v164q306 258 548 500q104 104 104 222q0 92 -62 154t-166 62q-40 0 -83 -10t-85 -48t-42 -96q0 -22 4 -42h-180v174q162 198 392 198q168 0 286 -116t118 -282q0 -94 -41 -175t-109 -153t-222 -212l-194 -176h396v196h168v-360h-832z" />
<glyph unicode="3" d="M132 86l68 160q208 -104 340 -104q98 0 171 58t73 168q0 100 -65 156t-179 56q-44 0 -104 -4v166q44 0 70 2t73 13t74 29t49 56t22 92q0 86 -59 128t-133 42q-64 0 -117 -24t-175 -100l-88 144q78 52 125 79t118 51t139 24q146 0 257 -93t111 -243q0 -68 -23 -125 t-41 -80t-50 -55q82 -48 128 -132t46 -180q0 -178 -124 -288t-304 -110q-58 0 -120 14t-97 27t-105 41z" />
<glyph unicode="4" d="M88 330v160l484 788h242v-778h192v-170h-192v-166h192v-164h-626v164h260v166h-552zM264 500h376v620h-4z" />
<glyph unicode="5" d="M146 76l62 162q2 0 6 -2q10 -4 12 -6q196 -84 324 -84q148 0 210 77t62 175q0 110 -69 183t-183 73q-126 0 -254 -104l-92 52v648h724v-172h-558v-294q94 36 194 36q186 0 304 -120t118 -296q0 -72 -24 -144t-73 -138t-140 -108t-209 -42q-70 0 -142 15t-118 31t-154 58z " />
<glyph unicode="6" d="M178 538q0 142 45 305t163 281q154 154 464 154q26 0 152 -6v-172q-86 4 -156 4q-46 0 -75 -2t-86 -12t-98 -35t-87 -66t-77 -111t-45 -164q104 76 230 76q160 0 269 -122t109 -292q0 -168 -109 -287t-271 -119q-56 0 -112 17t-114 58t-102 104t-72 163t-28 226zM364 438 q10 -146 83 -220t157 -74t141 64t57 168q0 96 -54 168t-138 72q-24 0 -51 -6t-64 -22t-73 -55t-58 -95z" />
<glyph unicode="7" d="M180 906v344h836v-136l-386 -1114h-194l388 1080h-472v-174h-172z" />
<glyph unicode="8" d="M188 344q0 84 43 165t117 131q-138 112 -138 282q0 150 114 253t276 103t276 -103t114 -253q0 -172 -138 -282q82 -56 121 -136t39 -158q0 -142 -110 -258t-302 -116q-190 0 -301 116t-111 256zM368 340q0 -82 67 -142t165 -60t165 60t67 142q0 80 -63 142t-169 62 q-108 0 -170 -62t-62 -142zM390 920q0 -82 63 -142t147 -60t147 59t63 143q0 86 -61 137t-149 51t-149 -52t-61 -136z" />
<glyph unicode="9" d="M134 -24l12 172q86 -4 144 -4q46 0 75 2t86 12t98 35t87 66t77 111t45 164q-104 -76 -230 -76q-160 0 -269 122t-109 292q0 168 109 287t271 119q56 0 112 -17t114 -58t102 -104t72 -163t28 -226q0 -142 -45 -305t-163 -281q-154 -154 -464 -154q-26 0 -152 6zM334 872 q0 -96 54 -168t138 -72q24 0 51 6t64 22t73 55t58 95q-10 146 -83 220t-157 74t-141 -64t-57 -168z" />
<glyph unicode=":" d="M412 138q0 78 59 124t129 46q72 0 130 -46t58 -124q0 -76 -58 -123t-130 -47t-130 47t-58 123zM412 662q0 74 56 122t132 48t132 -48t56 -122q0 -76 -58 -123t-130 -47t-130 47t-58 123z" />
<glyph unicode=";" d="M318 -210l172 548h288l-244 -548h-216zM414 668q0 74 55 122t131 48q74 0 131 -47t57 -123t-58 -123t-130 -47t-129 48t-57 122z" />
<glyph unicode="&#x3c;" d="M10 638l1022 474l74 -158l-698 -318l696 -326l-72 -160z" />
<glyph unicode="=" d="M108 362v176h984v-176h-984zM108 712v176h984v-176h-984z" />
<glyph unicode="&#x3e;" d="M64 954l74 158l1022 -474l-1024 -488l-70 160l694 326z" />
<glyph unicode="?" d="M214 840v266q4 2 58 20q174 58 292 58q192 0 302 -104t110 -252q0 -72 -28 -132t-62 -94t-91 -65t-88 -41t-83 -26v-112h-172v244l8 2q6 2 8 2q42 10 54 12q52 12 77 19t71 26t68 39t41 54t19 76q0 84 -64 131t-148 47q-106 0 -158 -20l-40 -14v-136h-174zM362 126 q0 64 49 111t123 47q72 0 123 -46t51 -112t-51 -112t-123 -46t-122 46t-50 112z" />
<glyph unicode="@" d="M44 562q0 170 52 296t138 194t182 100t202 32q236 0 386 -140t150 -378q0 -188 -91 -295t-213 -107q-106 0 -168 86q-88 -92 -186 -92q-62 0 -119 55t-57 169q0 150 93 284t219 134q56 0 108 -52l10 42h146l-92 -338q-20 -50 -20 -92q0 -20 20 -40t50 -20q66 0 114 81 t48 195q0 186 -116 281t-286 95q-124 0 -214 -49t-134 -127t-63 -154t-19 -152q0 -50 7 -102t33 -119t67 -117t117 -85t176 -35q84 0 171 24t137 46t140 70l62 -120q-262 -156 -518 -156q-238 0 -385 156t-147 430zM462 476q0 -24 10 -51t34 -27q58 0 112 97t54 185 q0 36 -15 58t-35 22q-52 0 -106 -97t-54 -187z" />
<glyph unicode="A" d="M0 0v164h116l342 838h-258v164h482l406 -1002h112v-164h-474v164h176l-78 196h-450l-78 -196h178v-164h-474zM442 524h318l-160 382z" />
<glyph unicode="B" d="M68 0v164h162v838h-162v164h568q200 0 300 -86q106 -92 106 -234q0 -146 -108 -228q178 -92 178 -276q0 -70 -21 -126t-50 -91t-77 -61t-87 -38t-97 -18t-87 -7t-75 -1h-550zM404 164h210q80 0 130 5t97 21t69 51t22 91q0 192 -326 192h-202v-360zM404 688h218q44 0 74 4 t75 18t69 51t24 95q0 146 -232 146h-228v-314z" />
<glyph unicode="C" d="M104 596q0 274 163 439t361 165q68 0 126 -21t88 -43t76 -62l12 112h166q-10 -126 -10 -194q0 -114 20 -250l-166 -22q-8 54 -14 83t-26 79t-47 77t-78 48t-119 21q-152 0 -260 -115t-108 -315q0 -190 96 -324t280 -134q94 0 190 42t143 79t109 95l116 -128 q-268 -260 -556 -260q-258 0 -410 180t-152 448z" />
<glyph unicode="D" d="M46 0v164h154v838h-154v164h522q152 0 250 -30t178 -130q126 -158 126 -404q0 -314 -170 -480q-126 -122 -390 -122h-516zM374 164h188q180 0 262 82q114 114 114 354q0 178 -78 290q-48 72 -110 92t-180 20h-196v-838z" />
<glyph unicode="E" d="M90 0v164h166v838h-166v164h996l10 -432h-166l-18 268h-482v-306h236v144h166v-450h-166v142h-236v-368h500l10 270h166v-434h-1016z" />
<glyph unicode="F" d="M124 0v164h152v838h-152v164h980l12 -430h-162l-24 266h-480v-306h236v144h166v-450h-166v142h-236v-368h254v-164h-580z" />
<glyph unicode="G" d="M74 578q0 270 158 446t380 176q166 0 276 -124l12 110h160q-8 -100 -8 -196q0 -128 24 -248l-168 -22q-6 48 -11 78t-24 79t-47 77t-80 51t-122 23q-158 0 -262 -123t-104 -325q0 -196 100 -318t290 -122q116 0 260 54v198h-288v164h556v-164h-94v-318 q-246 -106 -436 -106q-188 0 -321 91t-192 226t-59 293z" />
<glyph unicode="H" d="M56 0v164h146v838h-146v164h464v-164h-144v-318h448v318h-144v164h464v-164h-146v-838h146v-164h-464v164h144v356h-448v-356h144v-164h-464z" />
<glyph unicode="I" d="M176 0v164h338v838h-338v164h850v-164h-338v-838h338v-164h-850z" />
<glyph unicode="J" d="M94 588h172l10 -226q4 -74 21 -111t65 -65q82 -46 194 -46q58 0 97 16t60 38t31 67t12 78t2 95v568h-380v164h802v-164h-248v-568q0 -230 -62 -324q-94 -142 -308 -142q-204 0 -448 130z" />
<glyph unicode="K" d="M96 0v164h164v838h-164v164h502v-164h-164v-360l370 360h-120v164h456v-164h-110l-370 -366q80 -50 148 -135t102 -149t94 -188h192v-164h-314q-156 402 -346 516l-102 -96v-256h164v-164h-502z" />
<glyph unicode="L" d="M96 0v164h192v838h-192v164h606v-164h-240v-838h472l26 396h170l-26 -560h-1008z" />
<glyph unicode="M" d="M6 0v164h116l12 838h-128v164h384l198 -588h36l184 588h384v-164h-124l12 -838h116v-164h-494v164h210l-10 712h-24l-190 -568h-176l-188 568h-24l-10 -712h210v-164h-494z" />
<glyph unicode="N" d="M10 0v164h156v838h-156v164h382l468 -866h34v702h-200v164h494v-164h-134v-1026h-214l-478 880h-36v-692h202v-164h-518z" />
<glyph unicode="O" d="M64 582q0 260 149 439t387 179q240 0 388 -178t148 -438t-149 -438t-387 -178t-387 177t-149 437zM248 584q0 -184 96 -314t256 -130t256 129t96 315q0 180 -95 312t-257 132q-160 0 -256 -131t-96 -313z" />
<glyph unicode="P" d="M162 0v164h154v838h-154v164h478q204 0 304 -56q84 -46 136 -135t52 -187q0 -88 -45 -173t-113 -123q-78 -44 -153 -55t-261 -11h-70v-262h284v-164h-612zM490 590h72q146 0 205 10t101 32q28 14 54 59t26 103t-28 106t-66 68q-62 34 -212 34h-152v-412z" />
<glyph unicode="Q" d="M66 590q0 280 156 445t376 165q226 0 381 -168t155 -450q0 -140 -39 -251t-93 -172t-122 -101t-115 -52t-83 -14v-4h26q34 -28 84 -46t86 -18q58 0 152 70l104 -128l-18 -12q-50 -34 -71 -46t-68 -29t-93 -17q-74 0 -182 48q-78 34 -134 34q-54 0 -95 -16t-131 -68 q-2 0 -8 -4t-8 -6l-84 144q54 32 79 51t73 71q-124 58 -188 138q-140 174 -140 436zM250 590q0 -218 99 -331t243 -113q30 0 60 4t89 28t101 66t75 129t33 207q0 110 -28 195t-68 131t-92 76t-91 38t-73 8q-52 0 -106 -20t-111 -65t-94 -137t-37 -216z" />
<glyph unicode="R" d="M70 0v164h156v838h-156v164h534q108 0 169 -11t117 -49q58 -40 95 -114t37 -154q0 -22 -2 -42t-16 -65t-38 -80t-77 -73t-125 -60q78 -108 224 -354h188v-164h-308q-84 182 -194 348q-64 96 -94 123t-78 27h-102v-334h174v-164h-504zM400 662h148q158 0 222 42 q68 46 68 140q0 92 -57 125t-177 33h-204v-340z" />
<glyph unicode="S" d="M170 830q0 154 128 262t284 108q154 0 272 -126l16 112h160q-8 -88 -8 -172q0 -80 12 -224q4 -12 4 -48l-158 -22q-6 48 -11 75t-23 78t-45 80t-77 52t-116 23q-126 0 -192 -60t-66 -134q0 -50 26 -83t77 -50t80 -23t81 -12q182 -22 240 -46q28 -12 54 -28 q142 -90 142 -260q0 -154 -122 -259t-298 -105q-76 0 -133 20t-81 40t-56 54l-16 -120h-162q6 60 6 134q0 150 -16 320h160q26 -276 272 -276q104 0 185 47t81 141q0 58 -37 94t-82 47t-117 19q-44 4 -71 8t-81 15t-90 25t-82 40t-74 59t-47 83t-19 112z" />
<glyph unicode="T" d="M62 638l38 528h1002l38 -528l-172 -24l-26 388h-254v-838h236v-164h-642v164h232v838h-254l-26 -388z" />
<glyph unicode="U" d="M30 1002v164h508v-164h-196v-510q0 -66 2 -104t16 -92t40 -83t77 -51t123 -22t123 22t77 51t40 83t16 92t2 104v510h-196v164h508v-164h-138v-510q0 -252 -72 -356q-66 -98 -144 -133t-216 -35q-102 0 -201 39t-159 129q-72 106 -72 356v510h-138z" />
<glyph unicode="V" d="M0 1002v164h492v-164h-164l278 -754l284 754h-180v164h490v-164h-132l-378 -1002h-172l-374 1002h-144z" />
<glyph unicode="W" d="M0 1002v164h460v-164h-192l68 -610h4l204 528h120l198 -528h4l72 610h-194v164h456v-164h-94l-130 -1002h-158l-224 614h-4l-216 -614h-158l-120 1002h-96z" />
<glyph unicode="X" d="M44 0v164h118l336 446l-294 392h-122v164h452v-164h-118l186 -260l190 260h-106v164h432v-164h-118l-296 -392l332 -446h120v-164h-470v164h136l-220 310l-232 -310h164v-164h-490z" />
<glyph unicode="Y" d="M42 1002v164h458v-164h-116l222 -370l218 370h-120v164h454v-164h-140l-330 -554v-284h228v-164h-632v164h232v284l-334 554h-140z" />
<glyph unicode="Z" d="M144 0v140l628 862h-442v-286h-174v450h856v-132l-636 -870h506v316h174v-480h-912z" />
<glyph unicode="[" d="M580 -182v1526h416v-178h-242v-1174h242v-174h-416z" />
<glyph unicode="\" d="M144 1386l154 68l758 -1662l-156 -70z" />
<glyph unicode="]" d="M204 -8h242v1174h-242v178h416v-1526h-416v174z" />
<glyph unicode="^" d="M126 306l334 860h268l346 -860h-214l-266 656l-254 -656h-214z" />
<glyph unicode="_" d="M-96 -150h1392v-100h-1392v100z" />
<glyph unicode="`" d="M312 1276v8h298l210 -196h-174z" />
<glyph unicode="a" d="M96 284q0 50 22 103t70 106t142 87t218 34q84 0 228 -16q0 38 -4 59t-20 54t-59 49t-113 16q-138 0 -350 -92l-68 160q254 104 420 104q186 0 277 -87t91 -247v-450h172v-164h-346v96q-170 -124 -330 -124q-152 0 -251 95t-99 217zM276 282q0 -54 51 -96t117 -42 q170 0 332 180v104q-154 22 -208 22q-80 0 -138 -16t-87 -36t-45 -47t-19 -42t-3 -27z" />
<glyph unicode="b" d="M0 1276l340 20v-492q134 110 294 110q196 0 335 -137t139 -331q0 -182 -133 -324t-333 -142q-166 0 -302 108v-88h-328v164h154v950l-154 -8zM340 448q0 -120 87 -208t213 -88q124 0 204 86t80 208t-83 209t-203 87q-124 0 -211 -88t-87 -206z" />
<glyph unicode="c" d="M118 452q0 190 132 336t356 146q154 0 284 -110l18 110l156 -16q-12 -108 -12 -200q0 -84 12 -176l-168 -22q-10 62 -18 93t-33 72t-77 59t-134 18q-100 0 -171 -35t-103 -88t-45 -99t-13 -86q0 -120 79 -215t239 -95q72 0 154 32t135 64t129 86l96 -136 q-284 -218 -522 -218q-216 0 -355 138t-139 342z" />
<glyph unicode="d" d="M88 448q0 202 140 334t322 132q164 0 296 -104v298l-322 -24l18 170l478 42v-1132h162v-164h-336v84q-122 -104 -292 -104q-196 0 -331 139t-135 329zM272 450q0 -128 83 -213t201 -85q116 0 201 84t85 210q0 110 -76 203t-210 93q-116 0 -200 -81t-84 -211z" />
<glyph unicode="e" d="M122 448q0 202 137 344t361 142q222 0 349 -131t127 -293q0 -68 -6 -122h-784q10 -42 23 -71t46 -75t99 -72t156 -26q198 0 442 144l80 -154q-280 -162 -518 -162q-240 0 -376 138t-136 338zM318 552h594q-56 210 -290 210q-226 0 -304 -210z" />
<glyph unicode="f" d="M168 0v164h202v558h-202v164h202v70q0 54 4 91t23 86t53 79t101 52t161 22q126 0 330 -34l-70 -172q-160 34 -282 34q-54 0 -85 -8t-44 -34t-15 -46t-2 -72v-68h412v-164h-412v-558h412v-164h-788z" />
<glyph unicode="g" d="M72 464q0 190 135 320t317 130q154 0 272 -94v86h332v-164h-158v-652q0 -226 -113 -310t-325 -84h-208v164q302 0 362 22q32 12 54 31t33 37t16 50t6 53t1 61q-120 -98 -274 -98q-188 0 -319 132t-131 316zM256 466q0 -116 80 -197t192 -81q116 0 192 82t76 192 q0 122 -79 201t-187 79t-191 -79t-83 -197z" />
<glyph unicode="h" d="M24 1268l368 28v-474q158 112 290 112q148 0 238 -100t90 -258v-412h162v-164h-504v164h168v404q0 82 -38 138t-112 56q-112 0 -294 -136v-462h152v-164h-492v164h166v948l-180 -12z" />
<glyph unicode="i" d="M176 0v164h340v578h-286v164h460v-742h334v-164h-848zM478 1080v264h212v-264h-212z" />
<glyph unicode="j" d="M104 -250l40 168q194 -38 272 -38q64 0 108 16t66 37t34 59t14 64t2 70v616h-496v164h670v-788q0 -410 -400 -410q-114 0 -310 42zM564 1080v264h212v-264h-212z" />
<glyph unicode="k" d="M48 1264l370 32v-714l252 156v4h-90v164h494v-164h-132l-320 -216q112 -94 342 -362h182v-164h-478v164h74q-116 130 -258 260l-66 -50v-374h-334v164h160v948l-180 -16z" />
<glyph unicode="l" d="M176 0v164h336v952l-312 -20l-16 166l502 34v-1132h336v-164h-846z" />
<glyph unicode="m" d="M0 0v164h114v578h-114v164h286v-66q106 94 192 94q96 0 164 -94q36 30 55 44t65 32t92 18q254 0 254 -370v-400h92v-164h-266v564q0 56 -2 82t-9 58t-26 45t-51 13t-63 -20t-42 -33t-43 -51v-494h118v-164h-292v572q0 40 -2 63t-9 58t-26 52t-51 17q-58 0 -148 -86v-512 h138v-164h-426z" />
<glyph unicode="n" d="M42 0v164h166v578h-162v164h336v-84q160 112 290 112q148 0 238 -100t90 -260v-410h162v-164h-504v164h168v402q0 84 -40 140t-110 56q-52 0 -112 -25t-88 -44t-94 -67v-462h152v-164h-492z" />
<glyph unicode="o" d="M82 460q0 206 141 347t377 141q240 0 379 -144t139 -344q0 -196 -136 -342t-382 -146q-242 0 -380 144t-138 344zM266 460q0 -130 89 -223t245 -93q160 0 247 94t87 222t-87 222t-247 94q-158 0 -246 -92t-88 -224z" />
<glyph unicode="p" d="M20 -140h158v882h-158v164h332v-76q122 104 298 104q206 0 337 -142t131 -328q0 -206 -143 -342t-323 -136q-170 0 -300 110v-236h288v-164h-620v164zM344 468q0 -142 96 -226t208 -84q118 0 202 88t84 218q0 118 -74 208t-210 90q-132 0 -219 -87t-87 -207z" />
<glyph unicode="q" d="M84 464q0 186 131 328t337 142q176 0 298 -104v76h332v-164h-158v-882h158v-164h-620v164h288v236q-130 -110 -300 -110q-180 0 -323 136t-143 342zM268 464q0 -130 84 -218t202 -88q112 0 208 84t96 226q0 120 -87 207t-219 87q-136 0 -210 -90t-74 -208z" />
<glyph unicode="r" d="M124 0v164h240v578h-222v164h396v-148q56 54 95 84t113 61t154 31q70 0 130 -24t84 -44t58 -54l-178 -136q-50 86 -128 86q-24 0 -51 -9t-53 -23t-53 -34t-49 -39t-45 -41t-37 -36t-26 -28l-14 -14v-374h370v-164h-784z" />
<glyph unicode="s" d="M172 656q0 134 117 206t251 72q142 0 266 -94l26 112l156 -26q-20 -100 -20 -174q0 -64 20 -144l-156 -22q-8 14 -10 26l-16 46q-36 104 -244 104q-210 0 -210 -112q0 -36 20 -59t67 -35t73 -15t88 -7q116 -8 157 -12t95 -18t88 -40q96 -72 96 -192q0 -128 -112 -214 t-286 -86q-72 0 -132 19t-84 35t-64 48l-24 -104l-156 10q20 120 20 190q0 72 -20 156l156 18q20 -94 80 -147t192 -53q112 0 181 35t69 97q0 54 -51 70t-191 24q-222 14 -310 66q-58 34 -95 93t-37 127z" />
<glyph unicode="t" d="M186 722v164h132v280h174v-280h456v-164h-456v-336q0 -56 1 -80t9 -63t23 -55t46 -30t77 -14q56 0 116 14t97 28t115 46l64 26l66 -158q-278 -128 -442 -128q-174 0 -262 90q-54 58 -69 133t-15 191v336h-132z" />
<glyph unicode="u" d="M44 742v164h330v-548q0 -214 164 -214q56 0 109 26t77 47t78 75v450h-164v164h338v-742h156v-164h-330v62q-126 -90 -262 -90q-76 0 -147 29t-111 79q-82 102 -82 278v384h-156z" />
<glyph unicode="v" d="M22 742v164h490v-164h-134l228 -498l232 498h-130v164h470v-164h-156l-350 -742h-142l-350 742h-158z" />
<glyph unicode="w" d="M0 742v164h424v-164h-148l110 -424h4l156 424h122l160 -424h4l112 424h-150v164h406v-164h-84l-202 -742h-158l-154 436h-4l-150 -436h-152l-204 742h-92z" />
<glyph unicode="x" d="M30 0v164h144l304 310l-282 268h-136v164h464v-164h-84l156 -150l168 150h-90v164h446v-164h-132l-274 -268l320 -310h136v-164h-472v164h92l-194 192l-196 -192h92v-164h-462z" />
<glyph unicode="y" d="M28 742v164h438v-164h-108l244 -468l268 468h-104v164h430v-164h-126l-502 -874h150v-164h-660v164h310l132 226l-340 648h-132z" />
<glyph unicode="z" d="M182 0v144l568 598h-374v-174h-174v338h816v-134l-574 -608h400v184h174v-348h-836z" />
<glyph unicode="{" d="M436 492v170q50 4 78 9t57 25t29 56q0 12 -2 29t-4 33t-5 29t-5 21l-2 10q-28 130 -28 180q0 48 14 94t48 91t101 72t159 27q6 0 30 -1t44 -1v-170q-54 0 -77 -1t-57 -7t-48 -17t-25 -31t-11 -52q0 -24 24 -148l14 -70q12 -84 12 -94q0 -90 -80 -170q80 -86 80 -172 q0 -28 -26 -162q-24 -124 -24 -148q0 -32 12 -53t26 -32t48 -16t58 -6t74 -1v-168q-136 -6 -210 16q-88 26 -137 99t-49 161q0 58 28 186q18 90 18 126q0 76 -164 86z" />
<glyph unicode="|" d="M502 -368v1714h196v-1714h-196z" />
<glyph unicode="}" d="M250 -14q50 0 74 1t58 6t48 16t26 32t12 53q0 44 -38 220q-12 84 -12 92q0 88 80 174q-80 86 -80 170q0 34 26 156q24 132 24 154q0 30 -11 50t-25 31t-48 17t-57 7t-77 1v172q142 4 210 -18q84 -26 135 -97t51 -163q0 -58 -28 -184q-18 -80 -18 -128q0 -26 15 -43 t45 -25t49 -11t55 -7v-170q-46 -2 -75 -7t-59 -26t-30 -57q0 -50 18 -122q28 -130 28 -180q0 -108 -56 -175t-130 -91q-76 -22 -210 -16v168z" />
<glyph unicode="~" d="M154 570q0 2 3 6t3 6q26 46 44 73t52 64t77 56t93 19q68 0 210 -62q118 -52 146 -52q40 0 70 32t76 112l118 -134q0 -2 -3 -6t-3 -6q-28 -46 -45 -69t-51 -61t-74 -55t-88 -17t-196 60q-128 54 -160 54q-42 0 -72 -31t-68 -101l-14 -26z" />
<glyph unicode="&#xa1;" d="M426 792q0 62 49 109t125 47q74 0 124 -46t50 -110t-50 -111t-124 -47q-76 0 -125 48t-49 110zM480 -264l38 806h164l40 -806h-242z" />
<glyph unicode="&#xa2;" d="M212 580q0 168 100 275t232 135v270h142v-258q86 -20 146 -96l16 108l146 -12q-18 -198 -18 -242q0 -56 6 -138l-150 -22q-8 52 -12 77t-15 59t-25 48t-37 26t-57 12v-474q76 12 170 64q10 4 53 32t47 30l84 -144q-176 -126 -354 -156v-284h-142v284q-160 30 -246 146 t-86 260zM376 584q0 -36 10 -77t51 -92t107 -67v470q-68 -22 -109 -74t-50 -89t-9 -71z" />
<glyph unicode="&#xa3;" d="M166 566v168h158q-32 100 -32 170q0 156 117 257t261 101q108 0 230 -56l8 28l164 -8q-46 -160 -60 -320l-158 18q8 32 8 102q0 32 -67 48t-117 16q-96 0 -154 -55t-58 -129q0 -56 42 -172h482v-168h-436q8 -52 8 -100q0 -152 -66 -270q48 12 70 12q60 0 158 -38 q64 -26 96 -26q34 0 64 17t90 65l16 14l104 -130q-10 -10 -14 -12q-38 -36 -64 -57t-79 -43t-113 -22q-64 0 -146 30q-88 34 -126 34q-74 0 -228 -90l-106 138q176 176 176 368q0 50 -14 110h-214z" />
<glyph unicode="&#xa4;" d="M108 224l166 162l-26 48q-32 64 -32 140q0 104 32 168l26 46l-166 162l124 120l162 -158l44 22q60 36 148 36q106 0 176 -36l42 -22l162 158l124 -120l-164 -160q66 -94 58 -216q-6 -120 -60 -188l166 -162l-124 -120l-162 160q-104 -60 -204 -60q-98 0 -206 60 l-162 -160zM386 588q0 -88 59 -151t155 -63q94 0 154 63t60 151q0 84 -58 148t-156 64q-100 0 -157 -65t-57 -147z" />
<glyph unicode="&#xa5;" d="M44 1060v164h458v-164h-108l216 -318l220 318h-128v164h454v-164h-136l-318 -432h268v-128h-280v-96h280v-128h-280v-112h232v-164h-632v164h230v112h-284v128h284v96h-284v128h274l-328 432h-138z" />
<glyph unicode="&#xa6;" d="M502 -368v750h196v-750h-196zM502 596v750h196v-750h-196z" />
<glyph unicode="&#xa7;" d="M222 598q0 58 15 86t89 104q12 12 30 12q-52 72 -52 150q0 216 294 216h366v-342h-170v166h-204q-64 0 -85 -7t-21 -41q0 -40 80 -104l268 -208q94 -74 134 -128t40 -128q0 -52 -12 -76t-70 -92q-22 -28 -64 -28q0 -22 24 -68q16 -32 16 -78q0 -74 -30 -122t-84 -66 t-88 -22t-82 -4h-382v360h166v-178h216q44 0 62 2t30 11t12 31q0 48 -82 112l-258 202q-88 68 -123 116t-35 124zM398 594q0 -14 3 -21t22 -25t61 -50l248 -192q96 18 96 76q0 34 -106 116l-238 184q-26 -4 -56 -29t-30 -59z" />
<glyph unicode="&#xa8;" d="M356 1066v230h192v-230h-192zM652 1066v230h192v-230h-192z" />
<glyph unicode="&#xa9;" d="M14 612q0 242 172 414t414 172q244 0 415 -172t171 -414q0 -244 -172 -415t-414 -171t-414 171t-172 415zM130 612q0 -196 138 -333t332 -137t332 137t138 333q0 194 -138 332t-332 138t-332 -138t-138 -332zM272 606q0 144 93 243t259 99q102 0 242 -50v-200h-92 q-4 60 -37 109t-103 49q-78 0 -129 -60t-51 -168q0 -122 56 -192t138 -70q114 0 166 110l76 -30q-72 -182 -292 -182q-150 0 -238 99t-88 243z" />
<glyph unicode="&#xaa;" d="M326 850q0 80 67 129t175 49q36 0 108 -6q-2 38 -22 54t-70 16q-66 0 -184 -52l-42 102q142 58 228 58q198 0 198 -182v-218h88v-106h-196v38q-80 -52 -160 -52t-135 49t-55 121zM338 502v108h524v-108h-524zM438 848q0 -24 24 -42t54 -18q74 0 160 86v40q-62 8 -98 8 q-64 0 -102 -20t-38 -54z" />
<glyph unicode="&#xab;" d="M86 482l516 444l108 -128l-366 -316l374 -318l-116 -128zM480 482l516 444l108 -128l-366 -316l374 -318l-116 -128z" />
<glyph unicode="&#xac;" d="M154 748v176h908v-598h-176v422h-732z" />
<glyph unicode="&#xad;" d="M378 506v184h444v-184h-444z" />
<glyph unicode="&#xae;" d="M14 612q0 242 172 414t414 172q244 0 415 -172t171 -414q0 -244 -172 -415t-414 -171t-414 171t-172 415zM130 612q0 -196 138 -333t332 -137t332 137t138 333q0 194 -138 332t-332 138t-332 -138t-138 -332zM320 306v68q48 0 59 4t11 28v424q0 24 -6 29t-32 5h-32v72 h284q234 0 234 -166q0 -116 -120 -162q40 -30 86 -124q40 -88 56 -100q8 -10 46 -10v-68h-92q-62 0 -89 24t-65 116q-42 106 -64 120q-12 8 -58 8v-158q0 -38 12 -40q6 -2 54 -2v-68h-284zM538 648q38 2 57 4t45 12t38 33t12 61q0 36 -12 59t-35 32t-38 11t-39 2 q-20 0 -24 -6t-4 -28v-180z" />
<glyph unicode="&#xaf;" d="M258 1100v170h684v-170h-684z" />
<glyph unicode="&#xb0;" d="M288 966q0 130 91 221t221 91q128 0 220 -91t92 -221t-91 -222t-221 -92t-221 91t-91 223zM448 966q0 -64 44 -109t108 -45t108 45t44 109q0 62 -44 107t-108 45t-108 -45t-44 -107z" />
<glyph unicode="&#xb1;" d="M108 46v176h984v-176h-984zM108 650v176h404v376h176v-376h404v-176h-404v-376h-176v376h-404z" />
<glyph unicode="&#xb2;" d="M316 492v106l24 20q46 38 224 202q96 88 121 125t25 89t-39 89t-93 37q-50 0 -86 -26t-36 -60l6 -36h-124v116q102 124 242 124q104 0 178 -72t74 -174q0 -80 -50 -154q-26 -38 -176 -174l-106 -96h218v114h112v-230h-514z" />
<glyph unicode="&#xb3;" d="M308 548l46 106q134 -64 210 -64q62 0 102 36t40 94t-38 91t-108 31l-64 -2v116q98 0 130 24q42 30 42 84q0 42 -30 69t-76 27q-58 0 -134 -48l-48 -30l-60 98q88 58 137 78t103 20q96 0 162 -61t66 -149q0 -86 -64 -156q102 -68 102 -190q0 -106 -75 -176t-191 -70 q-92 0 -198 48z" />
<glyph unicode="&#xb4;" d="M420 1088l210 196h298v-8l-334 -188h-174z" />
<glyph unicode="&#xb5;" d="M52 742v164h326v-492q0 -80 9 -120t37 -76q64 -86 174 -86q84 0 155 63t71 219v328h-162v164h326v-742h162v-164h-326v98h-4q-76 -128 -216 -128t-222 128h-4v-404h-164v1048h-162z" />
<glyph unicode="&#xb6;" d="M144 854q0 176 132 260q84 52 308 52h472v-98h-106v-1126h106v-100h-260v1226h-100v-1226h-286v100h130v594q-148 -10 -252 44q-76 40 -110 119t-34 155zM438 770q0 -46 10 -77t28 -44t31 -17t33 -6v442q-102 0 -102 -142v-156z" />
<glyph unicode="&#xb7;" d="M412 626q0 76 58 123t130 47q70 0 129 -47t59 -123t-57 -123t-131 -47q-72 0 -130 47t-58 123z" />
<glyph unicode="&#xb8;" d="M446 -304l22 138q162 -36 224 -36q28 0 36 8q14 16 -70 28q-8 2 -42 6l-28 4l20 168h146l-6 -48q36 0 93 -42t57 -114q0 -20 -7 -41t-24 -48t-60 -44t-103 -17q-104 0 -240 34q-2 0 -10 2z" />
<glyph unicode="&#xb9;" d="M332 1160l264 118h72v-672h202v-114h-522v114h204v526l-174 -78z" />
<glyph unicode="&#xba;" d="M324 940q0 114 77 187t199 73q120 0 198 -73t78 -187t-78 -187t-198 -73t-198 73t-78 187zM338 502v110h524v-110h-524zM440 940q0 -68 45 -110t115 -42t115 42t45 110t-44 110t-116 42q-70 0 -115 -42t-45 -110z" />
<glyph unicode="&#xbb;" d="M88 798l116 128l516 -446l-516 -444l-108 128l366 316zM482 798l116 128l516 -446l-516 -444l-108 128l366 316z" />
<glyph unicode="&#xbc;" d="M2 1190l216 96h72v-654h132v-114h-398v114h150v510l-124 -56zM72 -116l1040 1430l96 -66l-1044 -1436zM668 8v104l300 496h124v-486h104v-114h-104v-56h104v-110h-374v110h156v56h-310zM804 122h174v320h-4z" />
<glyph unicode="&#xbd;" d="M2 1190l216 96h72v-654h132v-114h-398v114h150v510l-124 -56zM32 -116l1040 1430l96 -66l-1044 -1436zM684 -54l24 20l220 196q98 90 122 124t24 84t-38 86t-92 36q-46 0 -83 -24t-37 -54l2 -22l2 -20h-122v116q102 120 240 120q104 0 177 -70t73 -170q0 -78 -44 -140 t-182 -180l-102 -92h214v112h112v-226h-510v104z" />
<glyph unicode="&#xbe;" d="M6 572l46 106q130 -62 206 -62q62 0 102 35t40 91q0 118 -144 118l-46 -2h-20v114h18q86 2 112 24q42 30 42 82q0 40 -30 66t-78 26q-52 0 -130 -48l-46 -28l-60 96q86 56 135 76t101 20q98 0 163 -59t65 -147t-64 -152q100 -66 100 -186q0 -104 -74 -172t-188 -68 q-80 0 -196 48zM106 -116l1040 1430l94 -66l-1042 -1436zM694 8v104l300 496h124v-486h106v-114h-106v-56h106v-110h-376v110h156v56h-310zM832 122h172v320h-4z" />
<glyph unicode="&#xbf;" d="M212 90q0 72 28 132t62 94t91 65t88 41t83 26v112h172v-244l-8 -2q-6 -2 -8 -2q-42 -10 -54 -12q-52 -12 -77 -19t-71 -26t-68 -39t-41 -54t-19 -76q0 -84 64 -131t148 -47q98 0 158 20l40 14v136h174v-266q-4 -2 -58 -20q-166 -58 -292 -58q-192 0 -302 104t-110 252z M480 792q0 66 51 112t123 46t122 -46t50 -112q0 -64 -49 -111t-123 -47q-72 0 -123 46t-51 112z" />
<glyph unicode="&#xc0;" d="M0 0v164h116l342 838h-258v164h482l406 -1002h112v-164h-474v164h176l-78 196h-450l-78 -196h178v-164h-474zM312 1536v8h298l210 -196h-174zM442 524h318l-160 382z" />
<glyph unicode="&#xc1;" d="M0 0v164h116l342 838h-258v164h482l406 -1002h112v-164h-474v164h176l-78 196h-450l-78 -196h178v-164h-474zM420 1348l210 196h298v-8l-334 -188h-174zM442 524h318l-160 382z" />
<glyph unicode="&#xc2;" d="M0 0v164h116l342 838h-258v164h482l406 -1002h112v-164h-474v164h176l-78 196h-450l-78 -196h178v-164h-474zM324 1394l186 170h172l196 -170l-104 -64l-182 96l-162 -96zM442 524h318l-160 382z" />
<glyph unicode="&#xc3;" d="M0 0v164h116l342 838h-258v164h482l406 -1002h112v-164h-474v164h176l-78 196h-450l-78 -196h178v-164h-474zM248 1366q16 44 28 69t39 64t67 58t92 19q70 0 162 -64q54 -42 88 -42q32 0 50 26t40 84l138 -42q-14 -42 -25 -67t-38 -65t-71 -61t-102 -21q-70 0 -156 60 q-62 44 -86 44q-46 0 -80 -92q-2 0 -4 -8t-4 -8zM442 524h318l-160 382z" />
<glyph unicode="&#xc4;" d="M0 0v164h116l342 838h-258v164h482l406 -1002h112v-164h-474v164h176l-78 196h-450l-78 -196h178v-164h-474zM356 1326v230h192v-230h-192zM442 524h318l-160 382zM652 1326v230h192v-230h-192z" />
<glyph unicode="&#xc5;" d="M0 0v164h116l342 838h-258v164h482l406 -1002h112v-164h-474v164h176l-78 196h-450l-78 -196h178v-164h-474zM424 1468q0 74 51 126t125 52t126 -52t52 -126t-52 -125t-126 -51t-125 51t-51 125zM442 524h318l-160 382zM536 1468q0 -26 19 -45t45 -19t45 19t19 45 q0 28 -18 46t-46 18q-26 0 -45 -19t-19 -45z" />
<glyph unicode="&#xc6;" d="M4 0v164h114l308 838h-178v164h942v-432h-142l-16 268h-304v-336h84v162h154v-448h-154v132h-84v-348h304l16 272h142v-436h-634v358h-214l-70 -194h154v-164h-422zM384 512h172v460h-4z" />
<glyph unicode="&#xc7;" d="M104 596q0 274 163 439t361 165q68 0 126 -21t88 -43t76 -62l12 112h166q-10 -126 -10 -194q0 -114 20 -250l-166 -22l-12 69t-17 67t-31 68t-47 52t-74 40t-103 12q-152 0 -260 -115t-108 -315q0 -190 96 -322t280 -132q72 0 140 20t128 58t94 65t80 69l116 -128 q-112 -106 -219 -169t-263 -87v-8q150 -38 150 -168q0 -72 -47 -117t-147 -45q-110 0 -258 38l22 138q192 -36 230 -36q36 0 36 24t-58 34q-4 0 -23 3t-40 6t-25 3l14 128q-212 20 -351 192t-139 432z" />
<glyph unicode="&#xc8;" d="M90 0v164h166v838h-166v164h996l10 -432h-166l-18 268h-482v-306h236v144h166v-450h-166v142h-236v-368h500l10 270h166v-434h-1016zM312 1536v8h298l210 -196h-174z" />
<glyph unicode="&#xc9;" d="M90 0v164h166v838h-166v164h996l10 -432h-166l-18 268h-482v-306h236v144h166v-450h-166v142h-236v-368h500l10 270h166v-434h-1016zM420 1348l210 196h298v-8l-334 -188h-174z" />
<glyph unicode="&#xca;" d="M90 0v164h166v838h-166v164h996l10 -432h-166l-18 268h-482v-306h236v144h166v-450h-166v142h-236v-368h500l10 270h166v-434h-1016zM324 1394l186 170h172l196 -170l-104 -64l-182 96l-162 -96z" />
<glyph unicode="&#xcb;" d="M90 0v164h166v838h-166v164h996l10 -432h-166l-18 268h-482v-306h236v144h166v-450h-166v142h-236v-368h500l10 270h166v-434h-1016zM356 1326v230h192v-230h-192zM652 1326v230h192v-230h-192z" />
<glyph unicode="&#xcc;" d="M176 0v164h338v838h-338v164h850v-164h-338v-838h338v-164h-850zM312 1536v8h298l210 -196h-174z" />
<glyph unicode="&#xcd;" d="M176 0v164h338v838h-338v164h850v-164h-338v-838h338v-164h-850zM420 1348l210 196h298v-8l-334 -188h-174z" />
<glyph unicode="&#xce;" d="M176 0v164h338v838h-338v164h850v-164h-338v-838h338v-164h-850zM324 1394l186 170h172l196 -170l-104 -64l-182 96l-162 -96z" />
<glyph unicode="&#xcf;" d="M176 0v164h338v838h-338v164h850v-164h-338v-838h338v-164h-850zM356 1326v230h192v-230h-192zM652 1326v230h192v-230h-192z" />
<glyph unicode="&#xd0;" d="M46 0v164h154v354h-154v168h154v316h-154v164h522q152 0 250 -30t178 -130q126 -158 126 -404q0 -314 -170 -480q-126 -122 -390 -122h-516zM374 164h188q180 0 262 82q114 114 114 354q0 178 -78 290q-48 72 -110 92t-180 20h-196v-316h292v-168h-292v-354z" />
<glyph unicode="&#xd1;" d="M10 0v164h156v838h-156v164h382l468 -866h34v702h-200v164h494v-164h-134v-1026h-214l-478 880h-36v-692h202v-164h-518zM248 1366q16 44 28 69t39 64t67 58t92 19q70 0 162 -64q54 -42 88 -42q32 0 50 26t40 84l138 -42q-14 -42 -25 -67t-38 -65t-71 -61t-102 -21 q-70 0 -156 60q-62 44 -86 44q-46 0 -80 -92q-2 0 -4 -8t-4 -8z" />
<glyph unicode="&#xd2;" d="M64 582q0 260 149 439t387 179q240 0 388 -178t148 -438t-149 -438t-387 -178t-387 177t-149 437zM248 584q0 -184 96 -314t256 -130t256 129t96 315q0 180 -95 312t-257 132q-160 0 -256 -131t-96 -313zM312 1536v8h298l210 -196h-174z" />
<glyph unicode="&#xd3;" d="M64 582q0 260 149 439t387 179q240 0 388 -178t148 -438t-149 -438t-387 -178t-387 177t-149 437zM248 584q0 -184 96 -314t256 -130t256 129t96 315q0 180 -95 312t-257 132q-160 0 -256 -131t-96 -313zM420 1348l210 196h298v-8l-334 -188h-174z" />
<glyph unicode="&#xd4;" d="M64 582q0 260 149 439t387 179q240 0 388 -178t148 -438t-149 -438t-387 -178t-387 177t-149 437zM248 584q0 -184 96 -314t256 -130t256 129t96 315q0 180 -95 312t-257 132q-160 0 -256 -131t-96 -313zM324 1394l186 170h172l196 -170l-104 -64l-182 96l-162 -96z" />
<glyph unicode="&#xd5;" d="M64 582q0 260 149 439t387 179q240 0 388 -178t148 -438t-149 -438t-387 -178t-387 177t-149 437zM248 584q0 -184 96 -314t256 -130t256 129t96 315q0 180 -95 312t-257 132q-160 0 -256 -131t-96 -313zM248 1366q16 44 28 69t39 64t67 58t92 19q70 0 162 -64 q54 -42 88 -42q32 0 50 26t40 84l138 -42q-14 -42 -25 -67t-38 -65t-71 -61t-102 -21q-70 0 -156 60q-62 44 -86 44q-46 0 -80 -92q-2 0 -4 -8t-4 -8z" />
<glyph unicode="&#xd6;" d="M64 582q0 260 149 439t387 179q240 0 388 -178t148 -438t-149 -438t-387 -178t-387 177t-149 437zM248 584q0 -184 96 -314t256 -130t256 129t96 315q0 180 -95 312t-257 132q-160 0 -256 -131t-96 -313zM356 1326v230h192v-230h-192zM652 1326v230h192v-230h-192z" />
<glyph unicode="&#xd7;" d="M190 346l286 286l-286 286l124 124l286 -286l286 286l124 -124l-286 -286l286 -286l-124 -122l-286 286l-286 -286z" />
<glyph unicode="&#xd8;" d="M64 586q0 256 148 435t386 179q182 0 312 -104l72 96l130 -96l-90 -120q114 -178 114 -392q0 -264 -149 -440t-385 -176q-174 0 -292 90l-92 -118l-130 100l104 132q-128 160 -128 414zM248 588q0 -154 62 -264l492 634q-88 70 -202 70q-162 0 -257 -133t-95 -307z M416 196q64 -56 186 -56q148 0 251 124t103 326q0 112 -54 232z" />
<glyph unicode="&#xd9;" d="M30 1002v164h508v-164h-196v-510q0 -66 2 -104t16 -92t40 -83t77 -51t123 -22t123 22t77 51t40 83t16 92t2 104v510h-196v164h508v-164h-138v-510q0 -252 -72 -356q-66 -98 -144 -133t-216 -35q-102 0 -201 39t-159 129q-72 106 -72 356v510h-138zM312 1536v8h298 l210 -196h-174z" />
<glyph unicode="&#xda;" d="M30 1002v164h508v-164h-196v-510q0 -66 2 -104t16 -92t40 -83t77 -51t123 -22t123 22t77 51t40 83t16 92t2 104v510h-196v164h508v-164h-138v-510q0 -252 -72 -356q-66 -98 -144 -133t-216 -35q-102 0 -201 39t-159 129q-72 106 -72 356v510h-138zM420 1348l210 196h298 v-8l-334 -188h-174z" />
<glyph unicode="&#xdb;" d="M30 1002v164h508v-164h-196v-510q0 -66 2 -104t16 -92t40 -83t77 -51t123 -22t123 22t77 51t40 83t16 92t2 104v510h-196v164h508v-164h-138v-510q0 -252 -72 -356q-66 -98 -144 -133t-216 -35q-102 0 -201 39t-159 129q-72 106 -72 356v510h-138zM324 1394l186 170h172 l196 -170l-104 -64l-182 96l-162 -96z" />
<glyph unicode="&#xdc;" d="M30 1002v164h508v-164h-196v-510q0 -66 2 -104t16 -92t40 -83t77 -51t123 -22t123 22t77 51t40 83t16 92t2 104v510h-196v164h508v-164h-138v-510q0 -252 -72 -356q-66 -98 -144 -133t-216 -35q-102 0 -201 39t-159 129q-72 106 -72 356v510h-138zM356 1326v230h192v-230 h-192zM652 1326v230h192v-230h-192z" />
<glyph unicode="&#xdd;" d="M42 1002v164h458v-164h-116l222 -370l218 370h-120v164h454v-164h-140l-330 -554v-284h228v-164h-632v164h232v284l-334 554h-140zM420 1348l210 196h298v-8l-334 -188h-174z" />
<glyph unicode="&#xde;" d="M162 0v164h154v838h-154v164h574v-164h-246v-82h150q64 0 101 -2t105 -10t110 -30t87 -57t67 -96t22 -141q0 -92 -40 -171t-114 -111q-60 -26 -142 -36t-276 -10h-70v-92h246v-164h-574zM490 408h130q186 0 267 32t81 144q0 64 -27 104t-81 56t-92 19t-104 3h-174v-358z " />
<glyph unicode="&#xdf;" d="M106 0v164h148v742q0 170 100 275t254 105q144 0 228 -94t84 -224q0 -146 -118 -234q248 -104 248 -382q0 -170 -83 -275t-235 -105q-144 0 -230 98v190q114 -114 214 -114q50 0 84 25t46 67t16 68t4 52q0 262 -364 274v164q238 12 238 174q0 64 -35 102t-101 38 q-94 0 -135 -61t-41 -153v-896h-322z" />
<glyph unicode="&#xe0;" d="M96 284q0 50 22 103t70 106t142 87t218 34q84 0 228 -16q0 38 -4 59t-20 54t-59 49t-113 16q-138 0 -350 -92l-68 160q254 104 420 104q186 0 277 -87t91 -247v-450h172v-164h-346v96q-170 -124 -330 -124q-152 0 -251 95t-99 217zM276 282q0 -54 51 -96t117 -42 q170 0 332 180v104q-154 22 -208 22q-80 0 -138 -16t-87 -36t-45 -47t-19 -42t-3 -27zM312 1276v8h298l210 -196h-174z" />
<glyph unicode="&#xe1;" d="M96 284q0 50 22 103t70 106t142 87t218 34q84 0 228 -16q0 38 -4 59t-20 54t-59 49t-113 16q-138 0 -350 -92l-68 160q254 104 420 104q186 0 277 -87t91 -247v-450h172v-164h-346v96q-170 -124 -330 -124q-152 0 -251 95t-99 217zM276 282q0 -54 51 -96t117 -42 q170 0 332 180v104q-154 22 -208 22q-80 0 -138 -16t-87 -36t-45 -47t-19 -42t-3 -27zM420 1088l210 196h298v-8l-334 -188h-174z" />
<glyph unicode="&#xe2;" d="M96 284q0 50 22 103t70 106t142 87t218 34q84 0 228 -16q0 38 -4 59t-20 54t-59 49t-113 16q-138 0 -350 -92l-68 160q254 104 420 104q186 0 277 -87t91 -247v-450h172v-164h-346v96q-170 -124 -330 -124q-152 0 -251 95t-99 217zM276 282q0 -54 51 -96t117 -42 q170 0 332 180v104q-154 22 -208 22q-80 0 -138 -16t-87 -36t-45 -47t-19 -42t-3 -27zM324 1134l186 170h172l196 -170l-104 -64l-182 96l-162 -96z" />
<glyph unicode="&#xe3;" d="M96 284q0 50 22 103t70 106t142 87t218 34q84 0 228 -16q0 38 -4 59t-20 54t-59 49t-113 16q-138 0 -350 -92l-68 160q254 104 420 104q186 0 277 -87t91 -247v-450h172v-164h-346v96q-170 -124 -330 -124q-152 0 -251 95t-99 217zM248 1106q16 44 28 69t39 64t67 58 t92 19q70 0 162 -64q54 -42 88 -42q32 0 50 26t40 84l138 -42q-14 -42 -25 -67t-38 -65t-71 -61t-102 -21q-70 0 -156 60q-62 44 -86 44q-46 0 -80 -92q-2 0 -4 -8t-4 -8zM276 282q0 -54 51 -96t117 -42q170 0 332 180v104q-154 22 -208 22q-80 0 -138 -16t-87 -36t-45 -47 t-19 -42t-3 -27z" />
<glyph unicode="&#xe4;" d="M96 284q0 50 22 103t70 106t142 87t218 34q84 0 228 -16q0 38 -4 59t-20 54t-59 49t-113 16q-138 0 -350 -92l-68 160q254 104 420 104q186 0 277 -87t91 -247v-450h172v-164h-346v96q-170 -124 -330 -124q-152 0 -251 95t-99 217zM276 282q0 -54 51 -96t117 -42 q170 0 332 180v104q-154 22 -208 22q-80 0 -138 -16t-87 -36t-45 -47t-19 -42t-3 -27zM356 1066v230h192v-230h-192zM652 1066v230h192v-230h-192z" />
<glyph unicode="&#xe5;" d="M96 284q0 50 22 103t70 106t142 87t218 34q84 0 228 -16q0 38 -4 59t-20 54t-59 49t-113 16q-138 0 -350 -92l-68 160q254 104 420 104q186 0 277 -87t91 -247v-450h172v-164h-346v96q-170 -124 -330 -124q-152 0 -251 95t-99 217zM276 282q0 -54 51 -96t117 -42 q170 0 332 180v104q-154 22 -208 22q-80 0 -138 -16t-87 -36t-45 -47t-19 -42t-3 -27zM424 1208q0 74 51 126t125 52t126 -52t52 -126t-52 -125t-126 -51t-125 51t-51 125zM536 1208q0 -26 19 -45t45 -19t45 19t19 45q0 28 -18 46t-46 18q-26 0 -45 -19t-19 -45z" />
<glyph unicode="&#xe6;" d="M16 260q0 120 92 223t256 103q38 0 134 -12q0 118 -20 160t-86 42q-98 0 -270 -66l-52 162q196 76 330 76q64 0 110 -18t66 -37t44 -53q92 108 234 108q130 0 223 -104t93 -316q0 -72 -8 -132h-490q14 -128 57 -190t163 -62q100 0 224 50l64 -156q-2 -2 -12 -6 q-4 -2 -6 -2q-174 -58 -290 -58q-170 0 -268 128q-156 -128 -296 -128q-136 0 -214 87t-78 201zM196 256q0 -46 24 -79t76 -33q92 0 202 76v192q-100 10 -130 10q-84 0 -128 -43t-44 -123zM672 560h324q-2 40 -7 68t-18 67t-44 60t-79 21q-44 0 -78 -17t-51 -38t-28 -57 t-14 -55t-5 -49z" />
<glyph unicode="&#xe7;" d="M118 456q0 190 132 336t356 146q154 0 284 -110l18 110l156 -16q-12 -108 -12 -200q0 -84 12 -176l-168 -22q-10 62 -18 93t-33 72t-77 59t-134 18q-100 0 -171 -35t-103 -88t-45 -99t-13 -86q0 -120 79 -216t239 -96q164 0 418 180l96 -136q-236 -178 -420 -208v-18 q148 -36 148 -168q0 -74 -48 -118t-146 -44q-110 0 -258 38l22 138q192 -36 230 -36q36 0 36 24t-58 34q-4 0 -22 3t-40 6t-26 3l16 130q-212 18 -331 160t-119 322z" />
<glyph unicode="&#xe8;" d="M122 448q0 202 137 344t361 142q222 0 349 -131t127 -293q0 -68 -6 -122h-784q10 -42 23 -71t46 -75t99 -72t156 -26q198 0 442 144l80 -154q-280 -162 -518 -162q-240 0 -376 138t-136 338zM318 552h594q-56 210 -290 210q-226 0 -304 -210zM352 1276v8h298l210 -196 h-174z" />
<glyph unicode="&#xe9;" d="M122 448q0 202 137 344t361 142q222 0 349 -131t127 -293q0 -68 -6 -122h-784q10 -42 23 -71t46 -75t99 -72t156 -26q198 0 442 144l80 -154q-280 -162 -518 -162q-240 0 -376 138t-136 338zM318 552h594q-56 210 -290 210q-226 0 -304 -210zM420 1088l210 196h298v-8 l-334 -188h-174z" />
<glyph unicode="&#xea;" d="M122 448q0 202 137 344t361 142q222 0 349 -131t127 -293q0 -68 -6 -122h-784q10 -42 23 -71t46 -75t99 -72t156 -26q198 0 442 144l80 -154q-280 -162 -518 -162q-240 0 -376 138t-136 338zM318 552h594q-56 210 -290 210q-226 0 -304 -210zM324 1134l186 170h172 l196 -170l-104 -64l-182 96l-162 -96z" />
<glyph unicode="&#xeb;" d="M122 448q0 202 137 344t361 142q222 0 349 -131t127 -293q0 -68 -6 -122h-784q10 -42 23 -71t46 -75t99 -72t156 -26q198 0 442 144l80 -154q-280 -162 -518 -162q-240 0 -376 138t-136 338zM318 552h594q-56 210 -290 210q-226 0 -304 -210zM356 1066v230h192v-230h-192 zM652 1066v230h192v-230h-192z" />
<glyph unicode="&#xec;" d="M176 0v164h340v578h-286v164h460v-742h334v-164h-848zM312 1276v8h298l210 -196h-174z" />
<glyph unicode="&#xed;" d="M176 0v164h340v578h-286v164h460v-742h334v-164h-848zM420 1088l210 196h298v-8l-334 -188h-174z" />
<glyph unicode="&#xee;" d="M176 0v164h340v578h-286v164h460v-742h334v-164h-848zM324 1134l186 170h172l196 -170l-104 -64l-182 96l-162 -96z" />
<glyph unicode="&#xef;" d="M176 0v164h340v578h-286v164h460v-742h334v-164h-848zM356 1066v230h192v-230h-192zM652 1066v230h192v-230h-192z" />
<glyph unicode="&#xf0;" d="M84 456q0 216 147 351t351 135q144 0 248 -72l4 4q-104 140 -298 256l-104 -166l-134 76l102 156q-104 48 -220 86l72 134q118 -32 248 -96l84 136l128 -86l-80 -116l32 -20q84 -56 127 -88t105 -100t108 -152q112 -214 112 -430q0 -212 -139 -352t-377 -140 q-242 0 -379 143t-137 341zM262 456q0 -134 90 -229t248 -95q160 0 249 97t89 227t-89 227t-249 97q-158 0 -248 -95t-90 -229z" />
<glyph unicode="&#xf1;" d="M42 0v164h166v578h-162v164h336v-84q160 112 290 112q148 0 238 -100t90 -260v-410h162v-164h-504v164h168v402q0 84 -40 140t-110 56q-52 0 -112 -25t-88 -44t-94 -67v-462h152v-164h-492zM248 1106q16 44 28 69t39 64t67 58t92 19q70 0 162 -64q54 -42 88 -42 q32 0 50 26t40 84l138 -42q-14 -42 -25 -67t-38 -65t-71 -61t-102 -21q-70 0 -156 60q-62 44 -86 44q-46 0 -80 -92q-2 0 -4 -8t-4 -8z" />
<glyph unicode="&#xf2;" d="M82 460q0 206 141 347t377 141q240 0 379 -144t139 -344q0 -196 -136 -342t-382 -146q-242 0 -380 144t-138 344zM266 460q0 -130 89 -223t245 -93q160 0 247 94t87 222t-87 222t-247 94q-158 0 -246 -92t-88 -224zM312 1276v8h298l210 -196h-174z" />
<glyph unicode="&#xf3;" d="M82 460q0 206 141 347t377 141q240 0 379 -144t139 -344q0 -196 -136 -342t-382 -146q-242 0 -380 144t-138 344zM266 460q0 -130 89 -223t245 -93q160 0 247 94t87 222t-87 222t-247 94q-158 0 -246 -92t-88 -224zM420 1088l210 196h298v-8l-334 -188h-174z" />
<glyph unicode="&#xf4;" d="M82 460q0 206 141 347t377 141q240 0 379 -144t139 -344q0 -196 -136 -342t-382 -146q-242 0 -380 144t-138 344zM266 460q0 -130 89 -223t245 -93q160 0 247 94t87 222t-87 222t-247 94q-158 0 -246 -92t-88 -224zM324 1134l186 170h172l196 -170l-104 -64l-182 96 l-162 -96z" />
<glyph unicode="&#xf5;" d="M82 460q0 206 141 347t377 141q240 0 379 -144t139 -344q0 -196 -136 -342t-382 -146q-242 0 -380 144t-138 344zM248 1106q16 44 28 69t39 64t67 58t92 19q70 0 162 -64q54 -42 88 -42q32 0 50 26t40 84l138 -42q-14 -42 -25 -67t-38 -65t-71 -61t-102 -21 q-70 0 -156 60q-62 44 -86 44q-46 0 -80 -92q-2 0 -4 -8t-4 -8zM266 460q0 -130 89 -223t245 -93q160 0 247 94t87 222t-87 222t-247 94q-158 0 -246 -92t-88 -224z" />
<glyph unicode="&#xf6;" d="M82 460q0 206 141 347t377 141q240 0 379 -144t139 -344q0 -196 -136 -342t-382 -146q-242 0 -380 144t-138 344zM266 460q0 -130 89 -223t245 -93q160 0 247 94t87 222t-87 222t-247 94q-158 0 -246 -92t-88 -224zM356 1066v230h192v-230h-192zM652 1066v230h192v-230 h-192z" />
<glyph unicode="&#xf7;" d="M108 538v176h984v-176h-984zM474 280q0 52 36 88t90 36t90 -37t36 -87q0 -52 -36 -90t-90 -38t-90 38t-36 90zM474 974q0 50 36 88t90 38t90 -37t36 -89q0 -50 -36 -88t-90 -38t-90 38t-36 88z" />
<glyph unicode="&#xf8;" d="M82 462q0 202 141 344t375 142q178 0 304 -80l90 90l108 -108l-84 -84q102 -132 102 -304q0 -200 -136 -345t-382 -145q-170 0 -296 82l-98 -102l-106 102l90 94q-108 132 -108 314zM266 462q0 -98 54 -184l456 456q-80 42 -178 42q-156 0 -244 -93t-88 -221zM434 180 q48 -36 168 -36q156 0 244 94t88 224q0 24 -2 44t-5 33t-10 29t-9 22t-12 23t-12 21z" />
<glyph unicode="&#xf9;" d="M44 742v164h330v-548q0 -214 164 -214q56 0 109 26t77 47t78 75v450h-164v164h338v-742h156v-164h-330v62q-126 -90 -262 -90q-76 0 -147 29t-111 79q-82 102 -82 278v384h-156zM312 1276v8h298l210 -196h-174z" />
<glyph unicode="&#xfa;" d="M44 742v164h330v-548q0 -214 164 -214q56 0 109 26t77 47t78 75v450h-164v164h338v-742h156v-164h-330v62q-126 -90 -262 -90q-76 0 -147 29t-111 79q-82 102 -82 278v384h-156zM420 1088l210 196h298v-8l-334 -188h-174z" />
<glyph unicode="&#xfb;" d="M44 742v164h330v-548q0 -214 164 -214q56 0 109 26t77 47t78 75v450h-164v164h338v-742h156v-164h-330v62q-126 -90 -262 -90q-76 0 -147 29t-111 79q-82 102 -82 278v384h-156zM324 1134l186 170h172l196 -170l-104 -64l-182 96l-162 -96z" />
<glyph unicode="&#xfc;" d="M44 742v164h330v-548q0 -214 164 -214q56 0 109 26t77 47t78 75v450h-164v164h338v-742h156v-164h-330v62q-126 -90 -262 -90q-76 0 -147 29t-111 79q-82 102 -82 278v384h-156zM356 1066v230h192v-230h-192zM652 1066v230h192v-230h-192z" />
<glyph unicode="&#xfd;" d="M28 742v164h438v-164h-108l244 -468l268 468h-104v164h430v-164h-126l-502 -874h150v-164h-660v164h310l132 226l-340 648h-132zM420 1088l210 196h298v-8l-334 -188h-174z" />
<glyph unicode="&#xfe;" d="M-2 1242l354 20v-432q122 104 298 104q206 0 337 -142t131 -328q0 -206 -143 -342t-323 -136q-170 0 -300 110v-236h288v-164h-620v164h158v1224l-160 -10zM344 468q0 -142 96 -226t208 -84q118 0 202 88t84 218q0 118 -74 208t-210 90q-132 0 -219 -87t-87 -207z" />
<glyph unicode="&#xff;" d="M28 742v164h438v-164h-108l244 -468l268 468h-104v164h430v-164h-126l-502 -874h150v-164h-660v164h310l132 226l-340 648h-132zM356 1066v230h192v-230h-192zM652 1066v230h192v-230h-192z" />
<glyph unicode="&#x152;" d="M6 572q0 106 32 210t90 191t154 140t212 53h686l8 -432h-142l-16 268h-272v-300h66v126h154v-426h-154v126h-66v-364h276l12 272h150v-436h-702q-78 0 -116 3t-90 25t-98 66q-184 174 -184 478zM190 562q0 -174 75 -294t201 -120q22 0 44 5t48 30t26 65v680q0 22 -2 32 t-10 25t-30 21t-60 6q-116 0 -204 -129t-88 -321z" />
<glyph unicode="&#x153;" d="M6 444q0 96 18 181t57 161t112 120t175 44q170 0 250 -112q88 112 222 112q92 0 159 -51t97 -128t43 -139t13 -112q0 -48 -10 -124h-442q16 -252 170 -252q90 0 164 30q36 12 52 20l18 6l60 -162l-20 -8q-144 -58 -278 -58q-164 0 -258 122q-88 -122 -258 -122 q-162 0 -248 114q-96 128 -96 358zM186 454q0 -310 178 -310q100 0 136 87t36 229q0 174 -37 246t-131 72q-182 0 -182 -324zM674 560h298q-2 114 -41 166t-91 52q-58 0 -109 -49t-57 -169z" />
<glyph unicode="&#x178;" d="M42 1002v164h458v-164h-116l222 -370l218 370h-120v164h454v-164h-140l-330 -554v-284h228v-164h-632v164h232v284l-334 554h-140zM356 1326v230h192v-230h-192zM652 1326v230h192v-230h-192z" />
<glyph unicode="&#x2c6;" d="M324 1134l186 170h172l196 -170l-104 -64l-182 96l-162 -96z" />
<glyph unicode="&#x2dc;" d="M248 1106q16 44 28 69t39 64t67 58t92 19q70 0 162 -64q54 -42 88 -42q32 0 50 26t40 84l138 -42q-14 -42 -25 -67t-38 -65t-71 -61t-102 -21q-70 0 -156 60q-62 44 -86 44q-46 0 -80 -92q-2 0 -4 -8t-4 -8z" />
<glyph unicode="&#x2000;" horiz-adv-x="823" />
<glyph unicode="&#x2001;" horiz-adv-x="1646" />
<glyph unicode="&#x2002;" horiz-adv-x="823" />
<glyph unicode="&#x2003;" horiz-adv-x="1646" />
<glyph unicode="&#x2004;" horiz-adv-x="548" />
<glyph unicode="&#x2005;" horiz-adv-x="411" />
<glyph unicode="&#x2006;" horiz-adv-x="274" />
<glyph unicode="&#x2007;" horiz-adv-x="274" />
<glyph unicode="&#x2008;" horiz-adv-x="205" />
<glyph unicode="&#x2009;" horiz-adv-x="329" />
<glyph unicode="&#x200a;" horiz-adv-x="91" />
<glyph unicode="&#x2010;" d="M378 506v184h444v-184h-444z" />
<glyph unicode="&#x2011;" d="M378 506v184h444v-184h-444z" />
<glyph unicode="&#x2012;" d="M378 506v184h444v-184h-444z" />
<glyph unicode="&#x2013;" d="M152 506v184h896v-184h-896z" />
<glyph unicode="&#x2014;" d="M-96 506v184h1392v-184h-1392z" />
<glyph unicode="&#x2018;" d="M306 618l244 548h216l-172 -548h-288z" />
<glyph unicode="&#x2019;" d="M308 618l174 548h288l-246 -548h-216z" />
<glyph unicode="&#x201a;" d="M308 -212l174 548h288l-246 -548h-216z" />
<glyph unicode="&#x201c;" d="M162 618l246 548h216l-174 -548h-288zM572 618l246 548h216l-172 -548h-290z" />
<glyph unicode="&#x201d;" d="M104 618l172 548h288l-244 -548h-216zM514 618l172 548h288l-244 -548h-216z" />
<glyph unicode="&#x201e;" d="M104 -212l172 548h288l-244 -548h-216zM514 -212l172 548h288l-244 -548h-216z" />
<glyph unicode="&#x2022;" d="M376 568q0 -94 65 -159t157 -65q94 0 159 66t65 158t-65 157t-159 65t-158 -65t-64 -157z" />
<glyph unicode="&#x2026;" d="M30 138q0 76 52 123t118 47t118 -46t52 -124t-52 -124t-118 -46t-118 47t-52 123zM430 138q0 76 52 123t118 47q64 0 117 -46t53 -124t-53 -124t-117 -46q-66 0 -118 47t-52 123zM830 138q0 78 52 124t118 46t118 -46t52 -124t-52 -124t-118 -46t-118 46t-52 124z" />
<glyph unicode="&#x202f;" horiz-adv-x="329" />
<glyph unicode="&#x2039;" d="M282 482l518 444l108 -128l-366 -316l374 -318l-116 -128z" />
<glyph unicode="&#x203a;" d="M284 798l116 128l518 -446l-518 -444l-108 128l366 316z" />
<glyph unicode="&#x205f;" horiz-adv-x="411" />
<glyph unicode="&#x2122;" d="M0 974q10 128 10 192h472q2 -98 10 -192h-74q-2 68 -18 88t-88 18v-452q0 -24 12 -28t64 -4v-78h-284v78q52 0 64 4t12 28v452q-70 2 -87 -18t-19 -88h-74zM552 518v78q42 0 51 6t9 34v414q0 32 -8 37t-52 5v74h194l128 -382h4l128 382h190v-74q-40 0 -49 -4t-9 -26v-434 q0 -20 9 -24t49 -8v-78h-244v78q44 2 53 6t9 26v326h-4l-134 -436h-42l-144 436h-4v-318q0 -22 4 -30t24 -10h32v-78h-194z" />
<glyph unicode="&#x25fc;" horiz-adv-x="910" d="M0 0v910h910v-910h-910z" />
<glyph unicode="&#xfb03;" d="M0 0v164h132v554h-132v164h132v74q0 46 2 76t19 84t48 86t96 58t155 26q98 0 164 -26q18 8 50 20q26 6 60 6q56 0 108 -26l-44 -162q-24 16 -48 16q-34 0 -43 -24t-9 -134v-74h384v-718h126v-164h-1200zM306 164h210v554h-210v-554zM306 882h210v74q0 66 10 150 q-44 8 -82 8q-90 0 -114 -33t-24 -127v-72zM690 164h210v554h-210v-554zM890 1080v264h184v-264h-184z" />
<glyph unicode="&#xfb04;" d="M0 0v164h132v554h-132v164h132v74q0 50 2 79t19 83t48 85t97 57t160 26q104 0 202 -34q50 18 84 26q38 8 104 8q94 0 226 -34v-1088h126v-164h-1200zM306 164h210v552h-210v-552zM306 880h210v72q0 92 14 154q-52 8 -78 8q-54 0 -85 -8t-44 -34t-15 -47t-2 -73v-72z M690 164h210v944q-48 6 -66 6q-98 0 -121 -32t-23 -130v-72h116v-164h-116v-552z" />
</font>
</defs>
</svg>
