<svg xmlns="http://www.w3.org/2000/svg" xmlns:xlink="http://www.w3.org/1999/xlink" version="1.1"><metadata/><defs><font id="themixarabregular" horiz-adv-x="675"><font-face ascent="1638" descent="-410" units-per-em="2048"/><glyph horiz-adv-x="0"/><glyph horiz-adv-x="1024"/><glyph horiz-adv-x="446"/><glyph horiz-adv-x="446"/><glyph horiz-adv-x="446"/><glyph d="M184 102q0 51 35 86t88 35t88 -34.5t35 -86.5q0 -51 -35 -85.5t-88 -34.5t-88 34.5t-35 85.5zM199 1448h219l-31 -1104h-156z" horiz-adv-x="616" unicode="!"/><glyph d="M106 1513h195l-31 -471h-135zM449 1513h194l-29 -471h-137z" horiz-adv-x="749" unicode="&quot;"/><glyph d="M59 391v131h312l41 381h-295v131h309l37 348h155l-36 -348h299l37 348h157l-37 -348h295v-131h-307l-41 -381h293v-131h-307l-41 -391h-158l41 391h-299l-41 -391h-158l41 391h-297zM528 522h299l41 381h-299z" horiz-adv-x="1396" unicode="#"/><glyph d="M119 926q0 68 23.5 125t66.5 102t103.5 74.5t133.5 42.5v215h138v-207q123 -4 217 -25l-13 -163q-57 18 -117.5 27t-113.5 9q-70 0 -119 -15t-77.5 -39.5t-42 -56.5t-13.5 -67q0 -66 43 -107.5t108.5 -72.5t141.5 -60.5t141.5 -71.5t108.5 -106.5t43 -164.5 q0 -141 -90 -243t-254 -132v-266h-137v258q-72 2 -133.5 8t-120.5 22l12 172q55 -23 131 -35t135 -12q113 0 188.5 48t75.5 155q0 70 -43 111t-107.5 71.5t-139 59t-139 70.5t-107.5 106.5t-43 167.5z" horiz-adv-x="1001" unicode="$"/><glyph d="M88 1061q0 86 27.5 151.5t74 109.5t106.5 67.5t124 23.5q66 0 124 -17.5t101 -56.5t67.5 -100t24.5 -149q0 -84 -27.5 -151t-74.5 -113t-108.5 -69.5t-127.5 -23.5q-68 0 -124 19.5t-98 59.5t-65.5 101.5t-23.5 147.5zM250 47l975 1383l131 -95l-975 -1382zM252 1075 q0 -209 156 -209q74 0 119.5 56.5t45.5 154.5q0 106 -39.5 154.5t-121.5 48.5q-68 0 -114 -55.5t-46 -149.5zM877 297q0 86 27.5 151.5t73.5 109.5t106.5 67.5t123.5 23.5q66 0 124.5 -17.5t101.5 -56t67.5 -100t24.5 -149.5q0 -84 -28 -150.5t-75 -113t-108.5 -70 t-126.5 -23.5q-68 0 -124 19.5t-98 59.5t-65.5 101.5t-23.5 147.5zM1040 311q0 -209 156 -209q74 0 120 56.5t46 154.5q0 106 -40 154.5t-122 48.5q-68 0 -114 -55t-46 -150z" horiz-adv-x="1636" unicode="%"/><glyph d="M106 1513h195l-31 -471h-135z" horiz-adv-x="407" unicode="'"/><glyph d="M143 582q0 225 62.5 478t220.5 509h170q-135 -219 -203.5 -467t-68.5 -510q0 -543 276 -987h-176q-82 133 -136.5 260t-87 249t-45 238.5t-12.5 229.5z" horiz-adv-x="620" unicode="("/><glyph d="M33 -395q274 442 274 985q0 262 -69.5 510t-204.5 469h174q158 -256 219 -509t61 -476q0 -113 -12 -230.5t-45 -239.5t-86 -249t-137 -260h-174z" horiz-adv-x="620" unicode=")"/><glyph d="M78 1096l211 92l-211 94l69 119l185 -135l-23 229h137l-24 -229l186 135l68 -119l-211 -92l211 -94l-70 -119l-184 135l22 -229h-137l23 229l-185 -135z" horiz-adv-x="765" unicode="*"/><glyph d="M55 451v153h432v449h175v-449h436v-153h-436v-451h-175v451h-432z" horiz-adv-x="1153" unicode="+"/><glyph d="M53 -246q98 106 110.5 178t-22.5 117q-20 27 -23 58.5t9 59.5t39 46t63 18q57 0 93 -45t33 -119.5t-54 -174t-170 -207.5z" horiz-adv-x="466" unicode=","/><glyph d="M96 440v148h484v-148h-484z" unicode="-"/><glyph d="M143 109q0 53 37 90t90 37t90 -37t37 -90t-36.5 -90t-90.5 -37q-53 0 -90 36.5t-37 90.5z" horiz-adv-x="540" unicode="."/><glyph d="M82 0l528 1382h178l-526 -1382h-180z" horiz-adv-x="858" unicode="/"/><glyph d="M104 516q0 129 44.5 231.5t118 175t172 110.5t204.5 38q131 0 226.5 -41t158 -111.5t93 -167.5t30.5 -208q0 -131 -43 -235.5t-118 -177.5t-174 -111.5t-210 -38.5q-106 0 -198.5 31.5t-160 97t-105.5 167t-38 240.5zM291 532q0 -82 19.5 -154.5t59.5 -125.5t103.5 -84 t149.5 -31q70 0 131 28t108 79t75 123.5t28 162.5q0 82 -20.5 153t-61.5 122t-103.5 80.5t-146.5 29.5q-70 0 -132.5 -26.5t-109.5 -75.5t-73.5 -119.5t-26.5 -161.5z" horiz-adv-x="1255" unicode="0"/><glyph d="M51 936l303 117h150v-1053h-191v877l-231 -99z" horiz-adv-x="692" unicode="1"/><glyph d="M109 0v147l270 228q127 102 192.5 177t65.5 165q0 86 -55.5 142t-163.5 56q-72 0 -142.5 -24.5t-115.5 -52.5l-27 159q68 33 148.5 53.5t175.5 20.5q188 0 284.5 -90t96.5 -231q0 -115 -65.5 -210.5t-197.5 -201.5l-215 -178l-4 -2q37 2 94.5 4t127 3t148.5 1h159v-166 h-776z" horiz-adv-x="987" unicode="2"/><glyph d="M92 -381l19 164q37 -10 82 -18.5t96 -8.5q86 0 150.5 21.5t107.5 59.5t64.5 90.5t21.5 111.5q0 78 -33 131t-94.5 85t-148.5 42t-193 0v147q209 0 325.5 65.5t116.5 201.5q0 96 -61.5 150t-167.5 54q-66 0 -127.5 -17t-114.5 -46l-18 158q70 29 142.5 43t150.5 14 q102 0 175.5 -25.5t121 -70.5t71 -103.5t23.5 -124.5q0 -119 -69.5 -206.5t-180.5 -133.5v-2q131 -23 205.5 -115t74.5 -223q0 -98 -36.5 -183t-108.5 -147.5t-175 -99t-239 -36.5q-94 0 -180 22z" horiz-adv-x="944" unicode="3"/><glyph d="M33 152l569 903h238v-889h245v-166h-245v-393h-183v393h-596zM211 164q43 0 108.5 1t132 1h124h83.5v708h-2z" horiz-adv-x="1114" unicode="4"/><glyph d="M119 -391l16 168q31 -6 69 -10.5t77 -4.5q94 0 164.5 22.5t117.5 62.5t70.5 94.5t23.5 117.5t-24.5 116.5t-73.5 93.5t-121.5 62.5t-167.5 22.5h-54.5t-55.5 -2v701h651v-181h-477v-362q127 0 224 -32t162.5 -88t99.5 -133t34 -169q0 -106 -44 -196.5t-122 -156 t-185.5 -102t-236.5 -36.5q-76 0 -147 12z" horiz-adv-x="956" unicode="5"/><glyph d="M135 569q0 219 54.5 383t151.5 272.5t230.5 164t292.5 55.5q16 0 45 -1t49 -3v-164q-29 4 -56.5 7t-55.5 3q-111 0 -195 -33.5t-145.5 -95t-101 -148.5t-60.5 -192q-4 -16 -8 -33.5t-8 -46.5l2 -2q47 78 134 123t204 45q98 0 177 -30.5t134 -88t84 -136.5t29 -177 q0 -106 -36 -197.5t-101.5 -156t-156.5 -101t-202 -36.5q-217 0 -339 155.5t-122 433.5zM346 461q0 -63 16.5 -121.5t50 -104t86 -72t122.5 -26.5q63 0 114 23.5t86 64.5t54.5 97t19.5 122q0 139 -70.5 218t-197.5 79q-70 0 -123 -23.5t-88 -63.5t-52.5 -90t-17.5 -103z" horiz-adv-x="1191" unicode="6"/><glyph d="M51 872v181h830v-156q-125 -281 -233.5 -605.5t-190.5 -684.5h-209q90 360 199.5 679.5t228.5 590.5q-25 -2 -102.5 -3.5t-174 -1.5h-192.5h-156z" horiz-adv-x="940" unicode="7"/><glyph d="M115 334q0 72 25.5 129t66.5 104t91 86t101 72h-2q-125 72 -193.5 158t-68.5 204q0 80 32 148t89 116t138 74.5t179 26.5q96 0 172 -24.5t129.5 -68.5t81 -104.5t27.5 -134.5q0 -111 -65.5 -196.5t-202.5 -171.5q55 -33 107 -70t94 -83t68 -102t26 -130q0 -94 -37 -166 t-101.5 -121t-148.5 -74.5t-180 -25.5q-104 0 -184 26.5t-134.5 73.5t-82 112.5t-27.5 141.5zM311 354q0 -98 67.5 -158.5t186.5 -60.5q104 0 177 54.5t73 152.5q0 102 -73.5 171t-194.5 134h-2q-104 -61 -169 -131t-65 -162zM328 1098q0 -86 63.5 -146.5t177.5 -124.5h2 q117 74 169.5 135.5t52.5 139.5q0 82 -58.5 140t-171.5 58t-174 -58t-61 -144z" horiz-adv-x="1128" unicode="8"/><glyph d="M100 578q0 104 35 194t99.5 156.5t153.5 103.5t200 37q102 0 188 -35t148.5 -107.5t97.5 -184t35 -267.5q0 -215 -52.5 -380t-148.5 -275.5t-233.5 -166.5t-309.5 -56q-23 0 -57.5 3t-65.5 9v170q29 -8 67 -13.5t67 -5.5q219 0 339.5 112t170.5 323q4 20 8 50.5t8 53.5 h-2q-49 -72 -135 -114t-193 -42q-98 0 -176 31t-132 87t-83 137t-29 180zM295 608q0 -143 70.5 -221t199.5 -78q63 0 115.5 22.5t89.5 59.5t56.5 85t19.5 99q0 147 -70.5 242.5t-206.5 95.5q-61 0 -111 -23.5t-87 -65.5t-56.5 -97t-19.5 -119z" horiz-adv-x="1191" unicode="9"/><glyph d="M135 109q0 53 38 90t91 37t90 -37t37 -90t-37 -90t-90 -37t-91 36.5t-38 90.5zM135 707q0 53 38 90t91 37t90 -37t37 -90t-37 -90t-90 -37t-91 36.5t-38 90.5z" horiz-adv-x="526" unicode=":"/><glyph d="M115 516l647 590l119 -119l-529 -469l529 -457l-117 -124z" horiz-adv-x="1026" unicode="&lt;"/><glyph d="M145 268v152h908v-152h-908zM145 618v152h908v-152h-908z" horiz-adv-x="1200" unicode="="/><glyph d="M143 53l529 469l-529 457l117 125l649 -580l-647 -590z" horiz-adv-x="1026" unicode="&gt;"/><glyph d="M139 631q0 170 61.5 313t168 246.5t247 162t297.5 58.5q158 0 279 -48t204 -130t125 -190.5t42 -229.5q0 -119 -30 -206t-83 -144t-127 -86t-162 -29q-57 0 -96 16.5t-62.5 44t-31.5 61.5t-2 71h-4q-12 -33 -38 -68t-61 -62.5t-78 -45t-92 -17.5q-98 0 -140 61.5 t-42 178.5q0 96 26.5 182t78 150.5t129 102.5t178.5 38q59 0 119.5 -8.5t107.5 -18.5l-63 -354q-20 -111 7 -155t93 -44q98 0 154.5 76t56.5 248q0 90 -29 174t-89 149.5t-153.5 104.5t-224.5 39q-125 0 -234.5 -46t-191.5 -129t-129 -199t-47 -253q0 -119 35 -218 t103.5 -171t170 -113t232.5 -41q76 0 150.5 11.5t148.5 36.5v-144q-63 -23 -153.5 -34t-166.5 -11q-162 0 -288.5 49t-215 137.5t-134.5 212t-46 271.5zM666 616q0 -131 71 -131q78 0 140.5 98.5t95.5 264.5l16 82q-20 6 -45.5 8t-54.5 2q-57 0 -100.5 -31.5t-70 -81 t-39.5 -105.5t-13 -106z" horiz-adv-x="1705" unicode="@"/><glyph d="M176 -408v1987h406v-141h-234v-1700h234v-146h-406z" horiz-adv-x="659" unicode="["/><glyph d="M66 1382h170l534 -1382h-174z" horiz-adv-x="837" unicode="\"/><glyph d="M78 -262h233v1700h-233v141h405v-1987h-405v146z" horiz-adv-x="659" unicode="]"/><glyph d="M127 770l338 612h147l355 -610l-138 -70l-294 543l-283 -543z" horiz-adv-x="1095" unicode="^"/><glyph d="M0 -371h1024v-145h-1024v145z" horiz-adv-x="1024" unicode="_"/><glyph d="M59 575v146q61 4 102.5 15.5t67 36t36.5 66.5t11 103v240q0 88 16.5 161.5t53.5 126t98.5 81t151.5 28.5h37v-141q-53 0 -89 -12.5t-57.5 -41t-31 -76.5t-9.5 -120v-238q0 -137 -48 -209.5t-142 -89.5v-4q92 -14 141 -91t49 -212v-356q0 -72 9.5 -120t31 -77t57.5 -41 t89 -12v-146h-37q-176 0 -248 99.5t-72 300.5v358q0 121 -49 170t-168 55z" horiz-adv-x="698" unicode="{"/><glyph d="M211 -512v2048h145v-2048h-145z" horiz-adv-x="571" unicode="|"/><glyph d="M78 -262q53 0 89 12t57.5 41t30.5 77t9 120v356q0 135 49 212t142 91v4q-190 25 -191 291v246q0 72 -9 120t-30.5 76.5t-57.5 41t-89 12.5v141h37q90 0 151.5 -28.5t98 -81t53 -126t16.5 -161.5v-232q0 -66 11.5 -108.5t37 -68t66.5 -37t102 -15.5v-146q-119 -6 -168 -55 t-49 -170v-358q0 -201 -71.5 -300.5t-247.5 -99.5h-37v146z" horiz-adv-x="692" unicode="}"/><glyph d="M100 592q47 41 117 77t158 36q76 0 130 -20.5t102 -45.5t96.5 -45.5t111.5 -20.5q51 0 105.5 29t101.5 70l61 -131q-53 -55 -124.5 -91t-155.5 -36q-76 0 -132.5 20.5t-106.5 45t-98 45t-106 20.5q-66 0 -115.5 -29t-84.5 -59z" horiz-adv-x="1185" unicode="~"/><glyph d="M88 559q0 199 104.5 333t290.5 163v188h146v-180q51 -2 104 -11.5t107 -29.5l-15 -160q-100 51 -229 51q-147 0 -232 -90t-85 -254q0 -70 16 -130t53 -106t97.5 -73t146.5 -27q66 0 128 16.5t111 45.5l15 -162q-45 -20 -100.5 -35.5t-116.5 -19.5v-217h-146v217 q-193 18 -294 143t-101 338z" horiz-adv-x="931" unicode="¢"/><glyph d="M119 0v139q117 84 177 168t60 205q0 20 -3 59t-9 109h-223v141h207q-6 59 -14.5 130t-8.5 122q0 201 94.5 288t272.5 87q37 0 82 -4t84 -12l-11 -152q-82 18 -149 18q-96 0 -142.5 -57t-46.5 -156q0 -47 7.5 -116.5t15.5 -147.5h293v-141h-279q4 -41 7.5 -78t3.5 -65 q0 -125 -48.5 -212t-144.5 -171q33 4 76 6t90 2h375v-162h-766z" horiz-adv-x="1011" unicode="£"/><glyph d="M78 1382h205l219 -454q63 -131 104 -248h2q25 68 55.5 136.5t65.5 133.5l213 432h199l-398 -786h291v-125h-336v-143h336v-125h-336v-203h-186v203h-338v125h338v143h-338v125h293z" horiz-adv-x="1210" unicode="¥"/><glyph d="M145 727q0 90 38 163t98 120q-27 35 -43.5 87t-16.5 101q0 66 21.5 124t66.5 102t116 71t167 27q37 0 75 -4.5t66 -10.5l-14 -155q-63 18 -135 18q-88 0 -128 -43t-40 -121q0 -51 32.5 -104t82 -108.5t106.5 -117t106.5 -127t82 -139t32.5 -155.5q0 -86 -38 -158 t-95 -119q25 -37 44 -91t19 -112q0 -57 -21.5 -115.5t-68.5 -104.5t-120.5 -74.5t-178.5 -28.5q-37 0 -78.5 5t-72.5 13l14 164q33 -10 71 -17t77 -7q98 0 141 47t43 118q0 53 -33 107.5t-83 111t-108.5 116t-108.5 125t-83 138t-33 154.5zM317 748q0 -47 21.5 -95.5 t61.5 -102.5t97.5 -119.5t131.5 -145.5q25 20 42 62t17 85q0 57 -27.5 111.5t-71.5 110t-99.5 115.5t-110.5 130q-61 -45 -62 -151z" horiz-adv-x="1011" unicode="§"/><glyph d="M82 684q0 143 54 268t147.5 218.5t218.5 146.5t268 53t269 -53t219.5 -145.5t146.5 -216.5t53 -267t-54 -268t-147.5 -218t-218.5 -147.5t-268 -54.5q-145 0 -271 53t-218.5 145.5t-145.5 217.5t-53 268zM229 688q0 -113 42 -213t116 -175t172 -118t211 -43t212 43 t173 117t116 173t42 212t-42 212t-116 174t-173 118t-212 43t-211 -42t-172 -116t-116 -173t-42 -212zM446 676q0 74 19.5 141.5t62.5 119.5t111 83t164 31q47 0 87 -7.5t75 -19.5l-17 -131q-66 33 -147 33q-106 0 -151.5 -70t-45.5 -174q0 -111 45 -169t144 -58 q86 0 159 30l21 -127q-94 -35 -203 -34q-84 0 -145.5 26.5t-101.5 72.5t-58.5 111.5t-18.5 141.5z" horiz-adv-x="1548" unicode="©"/><glyph d="M98 864q0 117 109.5 183.5t296.5 66.5v37q0 20 -4 41.5t-17.5 40t-40 30t-69.5 11.5q-59 0 -115.5 -15.5t-103.5 -37.5l-15 135q53 20 119 31.5t137 11.5q76 0 127 -19.5t82 -51.5t44.5 -73t13.5 -84v-78.5t-1.5 -94t-1.5 -93.5v-78q29 -4 61 -7t60 -7v-98 q-59 -8 -134 -12.5t-140 -0.5q0 51 10 109l-2 2q-20 -49 -78.5 -87t-128.5 -38q-106 0 -157.5 49t-51.5 127zM254 889q0 -35 22.5 -56.5t63.5 -21.5q43 0 74.5 20.5t51 48t29 59.5t9.5 52v19q-135 0 -192.5 -32t-57.5 -89z" horiz-adv-x="827" unicode="ª"/><glyph d="M111 504l235 373l139 -78l-194 -293l192 -291l-143 -78zM506 504l254 368l135 -77l-209 -289l207 -285l-139 -80z" horiz-adv-x="1042" unicode="«"/><glyph d="M96 440v148h484v-148h-484z" unicode="­"/><glyph d="M123 1087q0 92 36 174t97 143.5t143 96.5t176 35t176.5 -35t143.5 -95t96 -142t35 -177q0 -92 -36 -174t-97.5 -142t-143 -96t-174.5 -36q-94 0 -177 35t-144 95t-96 142t-35 176zM248 1090q0 -68 25.5 -128.5t69.5 -106.5t104.5 -73.5t127.5 -27.5q68 0 128.5 26.5 t104.5 70.5t69.5 104.5t25.5 127.5q0 68 -25.5 129.5t-69.5 107.5t-104.5 72.5t-128.5 26.5t-128 -25.5t-104 -70.5t-69.5 -105.5t-25.5 -127.5zM424 856v467h162q86 0 122.5 -34t36.5 -89q0 -57 -29.5 -90t-78.5 -43q8 -10 18.5 -26.5t20.5 -34.5l88 -150h-123l-109 195h-8 v-195h-100zM524 1116h29q47 0 66.5 22.5t19.5 49.5q0 29 -15.5 43t-56.5 14h-43v-129z" horiz-adv-x="1150" unicode="®"/><glyph d="M109 1247q0 61 23.5 110.5t62 83.5t89 51t101.5 17q70 0 120 -20.5t83 -56t49 -82t16 -99.5q0 -61 -23.5 -109t-62.5 -82t-90 -52.5t-104 -18.5q-123 0 -193.5 69.5t-70.5 188.5zM254 1249q0 -66 35 -102.5t90 -36.5q57 0 94 39t37 100q0 25 -6 49.5t-21.5 45t-40 34 t-61.5 13.5q-53 0 -90 -39t-37 -103z" horiz-adv-x="770" unicode="°"/><glyph d="M94 559v154h406v407h176v-407h405v-154h-405v-412h-176v412h-406zM104 29h967v-156h-967v156z" horiz-adv-x="1175" unicode="±"/><glyph d="M135 948q0 94 33 174t93.5 137.5t144 90t186.5 32.5v-876q-117 0 -203 36t-142.5 96t-84 140t-27.5 170zM596 -53h149v1435h312v-143h-146v-1436h-315v144z" horiz-adv-x="1179" unicode="¶"/><glyph d="M109 590q0 55 38 93t93 38t93 -38t38 -93t-38 -93t-93 -38t-93 38t-38 93z" horiz-adv-x="479" unicode="·"/><glyph d="M98 1036q0 82 26 149.5t70 115t105 74t135 26.5q59 0 116.5 -15.5t101.5 -54.5t72 -104.5t28 -165.5q0 -84 -26 -152.5t-72 -117t-108.5 -75t-137.5 -26.5q-137 0 -223.5 80t-86.5 266zM256 1051q0 -43 8 -83t26.5 -73t50.5 -52.5t79 -19.5q74 0 123 54.5t49 171.5 q0 43 -8.5 82.5t-27.5 69.5t-51 48.5t-79 18.5q-31 0 -61.5 -12.5t-54 -39t-39 -67.5t-15.5 -98z" horiz-adv-x="858" unicode="º"/><glyph d="M147 219l209 289l-206 285l139 79l250 -362l-256 -369zM559 213l193 295l-193 289l143 80l230 -367l-236 -373z" horiz-adv-x="1042" unicode="»"/><glyph d="M119 1245l213 82h104v-635h-133v512l-164 -69zM131 53l1032 1301l117 -88l-1026 -1295zM756 217l276 408h166v-398h111v-114h-111v-113h-127v113h-305zM891 227h180v260z" horiz-adv-x="1484" unicode="¼"/><glyph d="M119 1245l213 82h104v-635h-133v512l-164 -69zM131 53l1032 1301l117 -88l-1026 -1295zM879 557q47 23 93 36t105 13q66 0 111 -17.5t73.5 -44t42 -60t13.5 -64.5q0 -29 -5 -56.5t-20.5 -56t-43 -59.5t-74.5 -68l-97 -74q51 4 112.5 5.5t174.5 1.5v-115h-481v113l139 98 q92 66 122 109.5t30 72.5q0 45 -28 73t-87 28q-100 0 -160 -48z" horiz-adv-x="1488" unicode="½"/><glyph d="M109 731l20 103q20 -6 49 -11.5t58 -5.5q61 0 97 25.5t36 62.5q0 47 -52.5 79t-166.5 15v78h28q90 0 133 31t43 63q0 35 -24.5 56.5t-77.5 21.5q-29 0 -60.5 -8t-54.5 -20l-22 98q35 14 87 23.5t107 9.5q76 0 131.5 -42t55.5 -108q0 -53 -27 -96t-76 -66q53 -10 92 -49 t39 -92q0 -23 -10 -54.5t-40 -60t-81 -49t-133 -20.5q-39 0 -84 5t-67 11zM131 53l1032 1301l117 -88l-1026 -1295zM756 217l276 408h166v-398h111v-114h-111v-113h-127v113h-305zM891 227h180v260z" horiz-adv-x="1495" unicode="¾"/><glyph d="M53 956l123 125l346 -346l338 336l109 -108l-338 -336l348 -348l-125 -123l-346 346l-336 -334l-109 108l336 334z" horiz-adv-x="1024" unicode="×"/><glyph d="M94 451v155h1014v-155h-1014zM477 115q0 51 36 87t89 36q51 0 87 -36t36 -87q0 -53 -36 -89t-87 -36q-53 0 -89 35.5t-36 89.5zM477 940q0 51 36 87t89 36q51 0 87 -36t36 -87q0 -53 -36 -89t-87 -36q-53 0 -89 36t-36 89z" horiz-adv-x="1202" unicode="÷"/><glyph horiz-adv-x="789"/><glyph horiz-adv-x="1579"/><glyph horiz-adv-x="789"/><glyph horiz-adv-x="1579"/><glyph horiz-adv-x="526"/><glyph horiz-adv-x="394"/><glyph horiz-adv-x="263"/><glyph horiz-adv-x="263"/><glyph horiz-adv-x="197"/><glyph horiz-adv-x="315"/><glyph horiz-adv-x="87"/><glyph d="M96 440v148h484v-148h-484z" unicode="‐"/><glyph d="M96 440v148h484v-148h-484z" unicode="‑"/><glyph d="M96 440v148h484v-148h-484z" unicode="‒"/><glyph d="M0 512v160h1024v-160h-1024z" horiz-adv-x="1024" unicode="–"/><glyph d="M0 512v160h2048v-160h-2048z" horiz-adv-x="2048" unicode="—"/><glyph d="M112 1153q3 76 54 175t170 208l80 -72q-98 -106 -110.5 -176.5t22.5 -116.5q23 -27 24.5 -59.5t-10.5 -60t-40 -46t-64 -18.5q-55 0 -92 45t-34 121z" horiz-adv-x="497" unicode="‘"/><glyph d="M80 1044q98 106 110.5 177t-22.5 116q-20 29 -23.5 61t9 59.5t40 46t64.5 18.5q55 0 92 -45t34 -121t-54 -175.5t-170 -207.5z" horiz-adv-x="497" unicode="’"/><glyph d="M80 -246q98 106 110.5 178t-22.5 117q-20 27 -23.5 58.5t9 59.5t40 46t64.5 18q55 0 92 -45t34 -119.5t-54 -174t-170 -207.5z" horiz-adv-x="497" unicode="‚"/><glyph d="M112 1153q3 76 54 175t170 208l80 -72q-98 -106 -110.5 -176.5t22.5 -116.5q23 -27 24.5 -59.5t-10.5 -60t-40 -46t-64 -18.5q-55 0 -92 45t-34 121zM501 1153q3 76 54 175t170 208l80 -72q-98 -106 -110.5 -176.5t22.5 -116.5q23 -27 24.5 -59.5t-10.5 -60t-39.5 -46 t-64.5 -18.5q-55 0 -92 45t-34 121z" horiz-adv-x="886" unicode="“"/><glyph d="M80 1044q98 106 110.5 177t-22.5 116q-20 29 -23.5 61t9 59.5t40 46t64.5 18.5q55 0 92 -45t34 -121t-54 -175.5t-170 -207.5zM469 1044q98 106 110.5 177t-22.5 116q-20 29 -23.5 61t9 59.5t40 46t64.5 18.5q55 0 92 -45t34 -121t-54 -175.5t-170 -207.5z" horiz-adv-x="886" unicode="”"/><glyph d="M80 -246q98 106 110.5 178t-22.5 117q-20 27 -23.5 58.5t9 59.5t40 46t64.5 18q55 0 92 -45t34 -119.5t-54 -174t-170 -207.5zM469 -246q98 106 110.5 178t-22.5 117q-20 27 -23.5 58.5t9 59.5t40 46t64.5 18q55 0 92 -45t34 -119.5t-54 -174t-170 -207.5z" horiz-adv-x="886" unicode="„"/><glyph d="M182 598q0 51 19.5 96t53.5 79t78 53.5t95 19.5t96 -19.5t79 -53.5t53.5 -79t19.5 -96t-19.5 -96t-53.5 -79t-79 -53.5t-96 -19.5t-95 19.5t-78 53.5t-53.5 79t-19.5 96z" horiz-adv-x="880" unicode="•"/><glyph d="M143 109q0 53 37 90t90 37t90 -37t37 -90t-36.5 -90t-90.5 -37q-53 0 -90 36.5t-37 90.5zM592 109q0 53 37 90t90 37t90 -37t37 -90t-37 -90t-90 -37t-90 36.5t-37 90.5zM1040 109q0 53 37 90t90 37t90 -37t37 -90t-36.5 -90t-90.5 -37q-53 0 -90 36.5t-37 90.5z" horiz-adv-x="1437" unicode="…"/><glyph horiz-adv-x="315"/><glyph d="M109 504l247 370l138 -77l-203 -291l201 -287l-142 -80z" horiz-adv-x="641" unicode="‹"/><glyph d="M147 217l203 291l-200 287l141 79l241 -364l-247 -371z" horiz-adv-x="641" unicode="›"/><glyph horiz-adv-x="394"/><glyph d="M51 438v137h176v50v61.5t4 58.5h-180v138h203q23 102 68 185t112.5 141.5t158.5 91t208 32.5q80 0 142.5 -12t135.5 -39l-47 -162q-39 14 -68.5 23.5t-57 15.5t-57.5 8t-69 2q-141 0 -217 -79.5t-106 -206.5h379v-138h-402q-2 -23 -2 -45v-45v-42t2 -38h406v-137h-385 q31 -135 113.5 -210.5t230.5 -75.5q76 0 131 15t117 46l49 -160q-78 -33 -158 -51t-184 -18q-223 0 -350.5 118.5t-161.5 335.5h-191z" horiz-adv-x="1167" unicode="€"/><glyph d="M90 1270v112h442v-112h-149v-463h-141v463h-152zM567 807l90 575h177l92 -315l20 -94l19 86l96 323h176l88 -575h-141l-45 301l-15 111l-24 -95l-92 -317h-142l-90 321l-22 91l-6 -76l-50 -336h-131z" horiz-adv-x="1431" unicode="™"/><glyph d="M0 0z" horiz-adv-x="1024" unicode="◼"/></font>
</defs>
</svg>
