<?xml version="1.0" standalone="no"?>
<!DOCTYPE svg PUBLIC "-//W3C//DTD SVG 1.1//EN" "http://www.w3.org/Graphics/SVG/1.1/DTD/svg11.dtd" >
<svg xmlns="http://www.w3.org/2000/svg" xmlns:xlink="http://www.w3.org/1999/xlink" version="1.1">
<metadata></metadata>
<defs>
<font id="decotypethuluthiiregular" horiz-adv-x="947" >
<font-face units-per-em="2048" ascent="1638" descent="-410" />
<missing-glyph horiz-adv-x="327" />
<glyph horiz-adv-x="0" />
<glyph unicode="&#xd;" horiz-adv-x="327" />
<glyph unicode=" "  horiz-adv-x="327" />
<glyph unicode="&#x09;" horiz-adv-x="327" />
<glyph unicode="&#xa0;" horiz-adv-x="327" />
<glyph unicode="!" horiz-adv-x="900" d="M226 1390q0 52 20 86t27 35q14 0 23 -59q10 -58 54 -384t58 -493q5 -57 -13 -91t-27 -33q-23 0 -44 161t-38 304q-16 143 -38 283q-22 139 -22 191zM279 108q0 24 18 82t33 59q16 0 90 -40t74 -58q0 -31 -14 -85t-34 -59q-14 0 -80 22t-84 50q-3 5 -3 29z" />
<glyph unicode="&#x22;" horiz-adv-x="569" d="M120 1274q0 66 47 68q37 2 47 -40q2 -12 2 -58t-12 -145t-16 -199h-40q0 83 -14 211t-14 163zM353 1274q0 66 49 68q42 2 52 -68q0 -35 -16 -156t-15 -218h-42q0 97 -7 165z" />
<glyph unicode="#" horiz-adv-x="821" d="M56 449v53h140l50 243h-190v52h202l52 250h52l-51 -250h272l52 250h53l-53 -250h128v-52h-139l-50 -243h189v-53h-199l-53 -250h-53l53 250h-274l-53 -250h-53l53 250h-128zM248 502h273l50 243h-272z" />
<glyph unicode="$" horiz-adv-x="563" d="M32 200q0 46 41 46q26 0 54 -62t66 -81v351q-139 86 -139 184q0 121 139 161v79h32v-76q46 6 82 0v76h32v-79q144 -40 144 -108q0 -39 -36 -39q-19 0 -60 50t-48 56v-283q85 -52 130 -98t45 -118q0 -143 -175 -189v-118h-32v109q-41 -4 -82 1v-110h-32v118 q-57 12 -109 48t-52 82zM122 684q0 -65 71 -116v205q-71 -24 -71 -89zM225 95q26 -11 82 -9v295l-82 56v-342zM225 547l82 -58v280q-23 14 -82 9v-231zM339 95q101 43 101 135q0 63 -101 135v-270z" />
<glyph unicode="%" horiz-adv-x="853" d="M20 652q0 121 77 181q36 27 80 27q92 0 137 -102q21 -47 21 -106q0 -120 -79 -180q-36 -27 -79 -27q-91 0 -136 103q-21 49 -21 104zM88 652q0 -190 89 -189q89 -1 89 189t-89 190t-89 -190zM102 44l597 837h50l-595 -837h-52zM516 277q0 120 79 180q36 27 78 27 q93 0 138 -103q21 -48 21 -104q0 -122 -79 -180q-37 -28 -80 -28q-91 0 -136 103q-21 48 -21 105zM585 276q0 -190 89 -189q89 -1 89 189t-89 190t-89 -190z" />
<glyph unicode="&#x26;" horiz-adv-x="732" d="M25 193q0 168 103 222q18 10 74 10q-14 29 -14 85t56 87q56 30 118 30q64 1 114 -33t47 -87l-3 -82h161q7 0 -3 -27t-17 -27h-141v-244q0 -94 86 -94q27 0 60 19t36 -3q3 -4 0 -17q-80 -44 -140 -44q-115 0 -115 103v242q0 39 -49 39l-4 25q74 41 74 110q0 39 -30 65 t-78 26q-46 0 -88 -24t-42 -68q0 -45 41 -75l68 -34q-4 -9 -21 -29t-45 -19q-29 32 -77 32t-56 -5q-42 -44 -42 -122q0 -225 156 -225q24 0 81 20l8 -24q-55 -37 -133 -37t-132 42t-53 163z" />
<glyph unicode="(" horiz-adv-x="656" d="M189 543q0 401 117 543q67 81 183 81q30 0 70 -10l20 -46q-20 7 -43 7q-252 0 -252 -575q0 -411 79 -670q63 -206 195 -206h15l30 -44q-41 -7 -70 -7q-126 0 -192 101t-109 317t-43 509z" />
<glyph unicode=")" horiz-adv-x="525" d="M21 1157q46 6 70 6q127 0 193 -100q66 -99 110 -317q42 -218 42 -508q0 -409 -116 -545q-69 -81 -184 -81q-34 0 -67 11l-23 45q16 -6 42 -6q253 0 253 576q0 413 -80 668q-31 98 -83 153t-108 55q-11 0 -17 -2z" />
<glyph unicode="*" horiz-adv-x="1358" d="M72 621q0 84 108 88q21 1 344 -66q6 34 28 62q-251 158 -292 202t-41 79t23 67q38 29 71 29t79 -49q30 -16 200 -288q35 21 66 26q-64 288 -64 348q0 112 84 112q94 0 94 -122q0 -15 -56 -340q34 -7 54 -22q90 141 130 200q86 128 158 128q29 0 58 -22q23 -23 23 -63 q1 -40 -49 -96q-50 -58 -272 -191q18 -23 24 -62q234 50 350 68q99 0 108 -88q0 -90 -118 -90q-21 0 -338 56q-6 -36 -24 -66q260 -161 278 -198q40 -45 40 -80t-22 -64q-24 -23 -60 -23t-86 45q-11 10 -196 274q-27 -18 -60 -24q58 -290 58 -334q0 -109 -94 -118 q-84 0 -84 118q0 60 64 334q-33 6 -64 26q-89 -129 -202 -276q-44 -51 -80 -51t-70 29q-22 29 -22 65t40 75q19 36 290 202q-21 35 -26 68q-309 -58 -338 -58q-114 0 -114 90zM590 607q2 -39 30 -65q29 -26 68 -26q40 2 66 31t24 68q-1 39 -30 65t-68 26q-40 -2 -66 -31 t-24 -68z" />
<glyph unicode="+" horiz-adv-x="870" d="M-8 555q0 7 5 7t23 -9t42 -11t306 -6q0 339 -40 416q-4 6 -4 14t24 8t104 -36q22 -97 28 -400l313 -14q56 -78 56 -93t-13 -15t-47 7t-306 12l-11 -426q-12 -17 -76 -17t-55 28q11 39 23 78q8 46 8 148t-2 186q-147 7 -308 22q-68 44 -70 101z" />
<glyph unicode="-" d="M30 306q0 18 59 92q92 3 301 10q416 0 460 11q43 11 49 11t6 -12t-50 -57t-77 -48t-139 -9q-488 0 -597 -14q-12 -2 -12 16z" />
<glyph unicode="." horiz-adv-x="910" d="M318 90q0 24 18 82t33 59q15 0 89 -40t75 -58q1 -31 -13 -85t-35 -59q-15 0 -81 22t-83 50q-3 5 -3 29z" />
<glyph unicode="/" horiz-adv-x="696" d="M30 -362q0 35 54 223q231 803 508 1577h94q-119 -274 -522 -1608q-41 -136 -31 -211q-43 -16 -68 -16q-35 0 -35 35z" />
<glyph unicode="0" horiz-adv-x="805" d="M8 336q0 210 110 322t278 112t254 -107q87 -107 87 -279q1 -172 -105 -285t-259 -113t-259 101t-106 249zM117 380q0 -136 60 -236t165 -99q145 0 218 111q73 110 73 242q-1 132 -67 218t-180 86t-191 -92q-78 -92 -78 -230z" />
<glyph unicode="1" horiz-adv-x="647" d="M2 706q0 36 25 37q163 -20 237 -20t201 47q29 0 35 -25l6 -22q-28 -24 -62 -31q-63 -22 -102 -22v-609l135 -6q50 -7 94 -20q11 1 11 -25t-29 -24q-209 14 -269 14t-126 -12t-121 -23q-12 1 -29 21q-11 41 19 41q38 13 190 28v613q-68 -10 -190 2q-25 0 -25 36z" />
<glyph unicode="2" horiz-adv-x="799" d="M8 8q0 25 15 25q182 73 269 145q124 104 124 246q0 94 -64 170t-149 76q-86 0 -144 -43q-33 -13 -39 4t-6 31q96 86 231 82t225 -66t91 -182q0 -118 -119 -242q-54 -57 -211 -172q319 0 474 20q30 0 30 -53q0 -64 -59 -63l-653 8l-9 6t-6 8z" />
<glyph unicode="3" horiz-adv-x="659" d="M-20 610q-9 25 0 31q89 96 286 96q100 0 179 -57t79 -150t-52 -165t-144 -152q126 -63 179 -110q85 -75 85 -171q0 -180 -171 -318t-339 -138q-19 0 -46 6t-40 8q-10 26 -10 23q0 18 16 18l86 -4q142 -1 254 91t113 265q-1 109 -89 177t-196 63q-14 19 -14 34t14 15 q219 52 219 297q0 81 -55 141t-141 60t-187 -64q-20 0 -26 4z" />
<glyph unicode="4" horiz-adv-x="821" d="M4 62q3 21 12 30q49 46 267 294t278 306q46 51 53 51q23 0 23 -47v-614h123v-82h-123l-14 -459q-43 -12 -134 -59q-1 72 15 247t16 271h-473q-26 0 -41 33q-5 8 -2 29zM90 82h430v469q-76 -80 -430 -469z" />
<glyph unicode="5" horiz-adv-x="688" d="M-63 -436l2 49q41 0 61 -8q123 -74 190 -74q130 0 230 110q100 111 100 245t-87 226t-199 91q-112 0 -166 -13q-31 0 -31 5q-1 5 -3 11t-1 13l20 410q92 6 262 41q19 4 260 75v-75q-18 -43 -55 -43l-424 -115l-14 -246q74 19 200 19t230 -83t104 -202q0 -208 -123 -356 t-337 -148q-149 0 -219 68z" />
<glyph unicode="6" horiz-adv-x="741" d="M12 428q0 270 158 474t416 253l30 -10l7 -31q-183 -31 -313 -178t-160 -295l172 51l67 10q125 0 205 -92t80 -223q0 -197 -114 -299t-272 -102t-229 189q-47 122 -47 253zM115 401q0 -105 62 -218q76 -138 190 -138q85 -1 150 69t65 154q0 164 -84 262t-224 97 q-43 0 -137 -41q0 -34 -11 -91t-11 -94z" />
<glyph unicode="7" horiz-adv-x="793" d="M0 616l14 78q0 12 20 28t36 15h489l64 8q13 1 31 15t28 14q59 1 59 -37q-159 -258 -692 -915l-35 6l-6 49q493 581 613 774h-398l-105 -16q-15 1 -38 -17t-35 -18l-31 -6z" />
<glyph unicode="8" horiz-adv-x="776" d="M-14 279q0 112 113 215q81 74 194 122q-102 85 -152 154q-51 70 -51 182t103 166q69 37 181 37t189 -41q101 -53 101 -164q0 -76 -68 -162t-178 -141q114 -69 195 -182t81 -186q0 -145 -110 -222t-259 -77q-147 0 -243 76t-96 223zM84 307q0 -115 66 -204t169 -89 q242 0 242 252q0 80 -78 169q-41 48 -170 157q-229 -101 -229 -285zM166 963q0 -136 223 -301q170 94 170 260q0 76 -63 132t-134 56q-196 0 -196 -147z" />
<glyph unicode="9" horiz-adv-x="766" d="M12 380q0 154 93 272t240 118t248 -156t101 -414t-162 -502q-162 -243 -362 -243l-76 4q-32 16 -57 68q0 14 6 20q11 4 16 4q93 -23 160 -20q161 7 265 213t104 453q-28 -65 -110 -121t-171 -56q-151 0 -223 104t-72 256zM100 406q0 -109 88 -203t164 -94q77 0 155 55 t75 86q-21 174 -107 306t-215 132q-80 0 -120 -86t-40 -196z" />
<glyph unicode=":" horiz-adv-x="569" d="M178 699q0 25 18 83t33 58t89 -40t75 -58q1 -30 -13 -84t-35 -60q-15 0 -81 22t-83 50q-3 5 -3 29zM185 118q0 24 18 82t33 59q16 0 90 -40t74 -58q0 -31 -14 -85t-34 -59q-14 0 -80 22t-84 50q-3 5 -3 29z" />
<glyph unicode="&#x3c;" horiz-adv-x="1366" d="M145 743v82l1074 455v-102l-951 -394l951 -393v-102z" />
<glyph unicode="=" horiz-adv-x="870" d="M5 216q0 18 59 92q92 3 301 10q416 0 460 11q43 11 49 11t6 -12t-50 -57t-77 -48t-139 -9q-488 0 -597 -14q-12 -2 -12 16zM31 482q0 18 59 92q92 3 301 10q416 0 460 11q43 11 49 11t6 -12t-50 -57t-77 -48t-139 -9q-488 0 -597 -14q-12 -2 -12 16z" />
<glyph unicode="&#x3e;" horiz-adv-x="1366" d="M145 289v102l951 393l-951 394v102l1074 -455v-82z" />
<glyph unicode="@" horiz-adv-x="1127" d="M58 452q0 237 162 408t405 171q189 0 309 -112t120 -283q0 -172 -88 -306t-242 -134q-92 0 -92 82q0 34 9 86l-2 2q-128 -169 -233 -170q-51 0 -80 42q-30 42 -30 116q0 72 55 172t132 164t143 65q89 1 107 -83l18 67l94 12l-106 -365q-20 -67 -20 -97q0 -49 47 -49 q88 -1 170 116q82 118 82 280t-110 264t-279 102q-227 0 -371 -172t-144 -401q0 -288 227 -419q106 -61 244 -61q220 0 366 152q72 75 116 180h34q-63 -222 -292 -322q-107 -47 -228 -47q-227 0 -375 152t-148 388zM388 353q0 -32 20 -58t50 -26q99 -1 175 131 q77 132 77 228t-76 97q-58 1 -125 -85q-121 -155 -121 -287z" />
<glyph unicode="[" horiz-adv-x="569" d="M111 -435v1510h397v-61h-289v-1388h289v-61h-397z" />
<glyph unicode="\" horiz-adv-x="696" d="M30 1438h94q277 -774 508 -1577q54 -188 54 -223t-35 -35q-25 0 -68 16q10 75 -31 211q-190 629 -312 1018t-210 590z" />
<glyph unicode="]" horiz-adv-x="569" d="M68 -374h288v1388h-288v61h393v-1510h-393v61z" />
<glyph unicode="^" horiz-adv-x="577" d="M22 473l257 430h19l256 -430h-57l-210 351l-208 -351h-57z" />
<glyph unicode="{" horiz-adv-x="1650" d="M255 413q0 44 105 107q0 60 15 108t34 48q136 -144 227 -144q-4 53 -36 94t-113 130q0 16 69 36t146 23q132 395 397 605q89 70 119 70t30 -15q-1 -5 -4 -8q-78 -83 -172 -240q-139 -231 -167 -422q100 -15 100 -45q-141 -118 -141 -221q76 0 215 147q19 0 39 -54 t20 -110q106 -54 106 -100q0 -37 -100 -96q0 -153 -55 -160q-120 128 -221 141q0 -51 47 -113q11 -15 100 -114q0 -22 -108 -45q29 -161 129 -335t219 -278q17 -20 20 -34q0 -15 -31 -15t-122 66q-269 195 -414 584q-209 0 -209 55q132 116 137 223q-45 0 -105 -48 q-12 -9 -110 -99q-36 0 -55 163q-111 52 -111 96zM311 412q0 -24 92 -58q9 -127 24 -127l56 50q61 55 104 71q-94 36 -94 72t92 69q-69 24 -164 113q-12 0 -18 -117q-89 -49 -92 -73zM562 743q80 -64 117 -143q45 82 74 82q19 0 65 -82q24 58 113 150q0 9 -36 16l-40 8 q43 237 175 453q63 95 126 189q-276 -183 -428 -648q-106 0 -136 -4t-30 -21zM573 86q0 -18 66 -18t96 4q139 -433 466 -643q-123 113 -217 287t-120 352q76 6 79 22q-91 80 -125 150q-40 -82 -67 -82q-37 0 -68 82q-23 -59 -110 -154zM622 418q-2 -54 34 -89q36 -36 92 -36 t94 36q38 37 38 89t-36 90t-92 39t-92 -37t-38 -92zM913 492q96 -40 96 -74t-92 -68q52 -17 162 -112q18 0 18 116q89 48 92 74q0 27 -92 57q0 117 -25 127q-57 -54 -90 -80t-69 -40z" />
<glyph unicode="|" horiz-adv-x="1044" d="M479 -348v1782h88v-1782h-88z" />
<glyph unicode="}" horiz-adv-x="1650" d="M394 -612q3 14 20 34q118 104 218 278t130 335q-108 23 -108 45q89 99 100 114q47 62 47 113q-101 -13 -221 -141q-55 7 -55 160q-100 59 -100 96q0 46 106 100q0 56 20 110t39 54q139 -147 215 -147q0 103 -141 221q0 30 100 45q-28 191 -167 422q-94 157 -172 240 q-4 4 -4 8q1 15 31 15t118 -70q265 -210 397 -605q77 -3 146 -23t69 -36q-81 -89 -95 -107q-49 -64 -54 -117q91 0 227 144q19 0 34 -48t15 -108q105 -63 105 -107t-111 -96q-19 -163 -55 -163q-98 90 -110 99q-60 48 -105 48q5 -107 137 -223q0 -55 -209 -55 q-145 -389 -414 -584q-91 -66 -122 -66t-31 15zM468 -571q327 210 466 643q30 -4 96 -4t66 18q-46 48 -70 80t-40 74q-31 -82 -68 -82q-27 0 -67 82q-33 -68 -125 -150q3 -16 79 -22q-27 -178 -121 -352t-216 -287zM480 428q3 -26 92 -74q0 -116 18 -116q70 62 94 80t68 32 q-92 34 -92 68t96 74q-51 20 -159 120q-25 -10 -25 -127q-92 -30 -92 -57zM513 1416q63 -94 127 -189q131 -216 174 -453l-38 -8q-38 -8 -38 -16q89 -92 113 -150q46 82 65 82q29 0 74 -82q36 77 117 143q-1 17 -31 21t-135 4q-152 465 -428 648zM789 418q1 -52 39 -89 q38 -36 93 -36t91 36q36 35 35 89q-2 54 -38 92q-35 38 -91 37t-92 -39t-37 -90zM1082 348q43 -16 104 -71l56 -50q15 0 24 127q92 34 92 58q-3 24 -92 73q-6 117 -18 117q-95 -89 -164 -113q92 -33 92 -69t-94 -72z" />
<glyph unicode="&#xab;" horiz-adv-x="834" d="M124 445l6 59l15 51l36 87l11 18l8 18l26 38l32 40l37 35q32 36 63 52l47 24q-36 -44 -59 -95q-15 -18 -22 -39l-11 -32q-6 -11 -10 -36l-12 -31l-6 -28q-7 -11 -7 -25l-4 -29q-8 -49 -8 -107q0 -235 145 -429l-57 32l-67 45l-29 28q-64 69 -97 153l-16 41l-10 40 q-10 28 -10 46zM445 445l4 58l10 41l44 98l32 55q8 18 16 26l27 28l26 30l18 18l25 22l28 21l27 14q2 4 24 11q-139 -193 -139 -423t145 -428q-131 58 -189 146q-98 148 -98 283z" />
<glyph unicode="&#xad;" d="M30 306q0 18 59 92q92 3 301 10q416 0 460 11q43 11 49 11t6 -12t-50 -57t-77 -48t-139 -9q-488 0 -597 -14q-12 -2 -12 16z" />
<glyph unicode="&#xb7;" horiz-adv-x="327" d="M97 690q1 60 67 61q66 -1 66 -61t-66 -60t-67 60z" />
<glyph unicode="&#xbb;" horiz-adv-x="834" d="M124 16q145 198 145 428t-139 423q22 -7 24 -11l27 -14l28 -21l25 -22l18 -18l26 -30l27 -28q8 -8 16 -26l32 -55l44 -98l10 -41l4 -58q0 -135 -98 -283q-58 -88 -189 -146zM445 16q145 194 145 429q0 58 -8 107l-4 29q0 14 -7 25l-6 28l-12 31q-4 25 -10 36l-11 32 q-7 21 -22 39q-23 51 -59 95l47 -24q31 -16 63 -52l37 -35l32 -40l26 -38l8 -18l11 -18l36 -87l15 -51l6 -59l-1 -44q0 -18 -10 -46l-10 -40l-16 -41q-33 -84 -97 -153l-29 -28l-37 -26z" />
<glyph unicode="&#xd7;" horiz-adv-x="870" d="M3 128q0 13 16 28l312 291q-52 50 -186 176q-26 19 -55 43t-29 27q0 18 113 36q11 -7 232 -211q109 105 302 263q112 -43 112 -66q0 -8 -14 -12q-85 -27 -323 -266q122 -112 278 -247q5 -4 27 -14t22 -15t-5 -11q-31 -36 -117 -17q-30 7 -280 232q-78 -76 -125 -118 q-58 -58 -163 -152q-6 -5 -28 -5q-89 0 -89 38z" />
<glyph unicode="&#xf7;" d="M55 386q0 18 59 92q92 3 301 10q416 0 460 11q43 11 49 11t6 -12t-50 -57t-77 -48t-139 -9q-488 0 -597 -14q-12 -2 -12 16zM374 100q0 24 18 82t33 59q15 0 89 -40t75 -58q1 -31 -13 -85t-35 -59q-15 0 -81 22t-83 50q-3 5 -3 29zM374 770q0 24 18 82t33 59q15 0 89 -40 t75 -58q1 -31 -13 -85t-35 -59q-15 0 -81 22t-83 50q-3 5 -3 29z" />
<glyph unicode="&#x2000;" horiz-adv-x="755" />
<glyph unicode="&#x2001;" horiz-adv-x="1511" />
<glyph unicode="&#x2002;" horiz-adv-x="755" />
<glyph unicode="&#x2003;" horiz-adv-x="1511" />
<glyph unicode="&#x2004;" horiz-adv-x="503" />
<glyph unicode="&#x2005;" horiz-adv-x="377" />
<glyph unicode="&#x2006;" horiz-adv-x="251" />
<glyph unicode="&#x2007;" horiz-adv-x="251" />
<glyph unicode="&#x2008;" horiz-adv-x="188" />
<glyph unicode="&#x2009;" horiz-adv-x="302" />
<glyph unicode="&#x200a;" horiz-adv-x="83" />
<glyph unicode="&#x2010;" d="M30 306q0 18 59 92q92 3 301 10q416 0 460 11q43 11 49 11t6 -12t-50 -57t-77 -48t-139 -9q-488 0 -597 -14q-12 -2 -12 16z" />
<glyph unicode="&#x2011;" d="M30 306q0 18 59 92q92 3 301 10q416 0 460 11q43 11 49 11t6 -12t-50 -57t-77 -48t-139 -9q-488 0 -597 -14q-12 -2 -12 16z" />
<glyph unicode="&#x2012;" d="M30 306q0 18 59 92q92 3 301 10q416 0 460 11q43 11 49 11t6 -12t-50 -57t-77 -48t-139 -9q-488 0 -597 -14q-12 -2 -12 16z" />
<glyph unicode="&#x2013;" horiz-adv-x="1024" d="M-12 594v90h1048v-90h-1048z" />
<glyph unicode="&#x2014;" horiz-adv-x="2048" d="M-12 594v90h2072v-90h-2072z" />
<glyph unicode="&#x2018;" horiz-adv-x="532" d="M139 1180q0 131 110 229q53 47 118 72l14 -37q-158 -93 -158 -205q0 -43 29 -43l49 6q92 0 92 -92q0 -44 -33 -72q-32 -28 -88 -28t-94 50t-39 120z" />
<glyph unicode="&#x2019;" horiz-adv-x="532" d="M139 1383q0 41 33 69q32 28 88 29q56 0 94 -51t39 -135q-1 -83 -65 -165t-162 -120l-14 37q157 91 157 204q0 43 -28 43l-50 -6q-38 0 -65 27t-27 68z" />
<glyph unicode="&#x201a;" horiz-adv-x="532" d="M139 200q0 42 33 69q32 28 88 28t94 -51t39 -135q-1 -83 -65 -165t-162 -120l-14 37q157 91 157 205q0 43 -28 43l-50 -7q-39 0 -65 27t-27 69z" />
<glyph unicode="&#x201c;" horiz-adv-x="569" d="M24 1020q0 76 60 174q60 100 136 149q23 15 36 15t13 -8q0 -13 -25 -39q-34 -30 -94 -112q-45 -89 -45 -110t8 -40q24 -20 88 -42t64 -36q1 -31 -13 -85t-35 -59q-25 0 -95 28t-70 47q-28 42 -28 118zM304 1020q0 76 60 174q60 100 136 149q23 15 36 15t13 -8 q0 -13 -25 -39q-34 -30 -94 -112q-45 -89 -45 -110t8 -40q24 -20 88 -42t64 -36q1 -31 -13 -85t-35 -59q-25 0 -95 28t-70 47q-28 42 -28 118z" />
<glyph unicode="&#x201d;" horiz-adv-x="569" d="M18 555q0 13 25 39q34 30 94 112q45 89 45 110t-8 40q-24 20 -88 42t-64 36q0 30 14 84t34 60q25 0 95 -28t70 -47q28 -41 28 -117q-1 -76 -61 -176t-135 -148q-23 -15 -36 -15t-13 8zM298 555q0 13 25 39q34 30 94 112q45 89 45 110t-8 40q-24 20 -88 42t-64 36 q0 30 14 84t34 60q25 0 95 -28t70 -47q28 -41 28 -117q-1 -76 -61 -176t-135 -148q-23 -15 -36 -15t-13 8z" />
<glyph unicode="&#x201e;" horiz-adv-x="981" d="M139 200q0 42 33 69q32 28 88 28t94 -51t39 -135q-1 -83 -65 -165t-162 -120l-14 37q157 91 157 205q0 43 -28 43l-50 -7q-39 0 -65 27t-27 69zM604 200q0 42 33 69q33 28 89 28t94 -51t38 -135q0 -83 -64 -165t-163 -120l-15 37q158 91 158 205q0 43 -29 43l-49 -7 q-40 0 -66 27t-26 69z" />
<glyph unicode="&#x2022;" horiz-adv-x="725" d="M113 768q0 106 73 178t179 72q171 0 231 -152q18 -45 18 -98q0 -145 -123 -218q-57 -34 -126 -34q-107 0 -179 72t-73 180z" />
<glyph unicode="&#x2026;" horiz-adv-x="2048" d="M241 201q0 96 104 96q104 -1 104 -97t-104 -96q-44 0 -74 27t-30 70zM923 201q0 96 104 96q104 -1 104 -97t-104 -96q-44 0 -74 27t-30 70zM1602 201q0 96 104 96q104 -1 104 -97t-104 -96q-44 0 -74 27t-30 70z" />
<glyph unicode="&#x202f;" horiz-adv-x="302" />
<glyph unicode="&#x2039;" horiz-adv-x="469" d="M70 578l301 376h37l-195 -376l195 -377h-37z" />
<glyph unicode="&#x203a;" horiz-adv-x="469" d="M61 201l195 377l-195 376h37l301 -376l-301 -377h-37z" />
<glyph unicode="&#x205f;" horiz-adv-x="377" />
<glyph unicode="&#x2122;" horiz-adv-x="1060" d="M45 1294l10 100h364l12 -100h-18q-10 70 -96 70h-36v-290q0 -38 8 -50t43 -16v-17h-187v17q20 2 28 5q23 9 23 61v290h-40q-81 0 -94 -70h-17zM464 991v17q46 0 54 23q4 12 4 43v233q0 57 -16 63t-42 6v18h145l136 -287l132 287h139v-18q-11 -1 -30 -4q-24 -7 -24 -65 v-233q0 -53 14 -59t40 -7v-17h-199v17q38 2 49 14t11 52l-2 245l-151 -328h-17l-154 324v-241q-1 -38 7 -52t41 -14h18v-17h-155z" />
<glyph unicode="&#x25fc;" horiz-adv-x="500" d="M0 0z" />
</font>
</defs>
</svg>
