<?xml version="1.0" standalone="no"?>
<!DOCTYPE svg PUBLIC "-//W3C//DTD SVG 1.1//EN" "http://www.w3.org/Graphics/SVG/1.1/DTD/svg11.dtd" >
<svg xmlns="http://www.w3.org/2000/svg" xmlns:xlink="http://www.w3.org/1999/xlink" version="1.1">
<metadata></metadata>
<defs>
<font id="toyoraljanahregular" horiz-adv-x="1138" >
<font-face units-per-em="2048" ascent="1544" descent="-504" />
<missing-glyph horiz-adv-x="409" />
<glyph horiz-adv-x="1024" />
<glyph horiz-adv-x="1024" />
<glyph horiz-adv-x="682" />
<glyph unicode="&#xd;" horiz-adv-x="681" />
<glyph unicode=" "  horiz-adv-x="409" />
<glyph unicode="&#x09;" horiz-adv-x="409" />
<glyph unicode="&#xa0;" horiz-adv-x="409" />
<glyph unicode="!" horiz-adv-x="684" d="M154 1223q-13 27 8 51q22 24 45 29q57 5 115 -179t89 -357q30 -173 35 -253q12 -110 -20 -236t-119 -172q-35 -18 -49 -10q-23 18 6 54q96 88 70 350q-43 440 -180 723zM274 -117q-6 63 73 71t85 -60q8 -56 -60 -63q-30 -3 -63 14t-35 38z" />
<glyph unicode="&#x22;" horiz-adv-x="493" d="M96 948q0 18 21 33q57 43 57 172q0 21 -3 43t20 41q24 18 49 18q39 0 39 -58q1 -58 -39 -140t-93 -123q-14 -10 -24 -10q-27 0 -27 24zM233 948q0 18 19 33q57 43 57 172q0 21 -3 43t22 40t49 19q39 0 39 -59t-40 -141t-91 -121q-16 -10 -27 -10q-25 0 -25 24z" />
<glyph unicode="#" horiz-adv-x="1517" d="M84 801q0 25 29 37q174 70 509 117q95 170 191 274q8 14 32 14q24 -1 40 -23t-2 -42q-77 -81 -158 -210q144 15 282 17q105 199 214 315q13 12 35 12t38 -21q16 -22 -4 -42q-92 -99 -188 -265q174 -4 284 -32q33 -8 32 -47t-32 -39h-10q-122 31 -320 36 q-53 -98 -117 -239q58 2 114 3q209 0 344 -35q33 -8 31 -47t-33 -39h-11q-143 37 -391 37q-45 0 -90 -2q-118 -279 -141 -465q-4 -31 -29 -31q-35 0 -28 47q20 185 120 447q-207 -9 -315 -31q-135 -310 -158 -502q-2 -33 -26 -33q-37 0 -31 47q21 197 131 475 q-175 -30 -289 -75q-12 -4 -18 -4q-27 1 -27 27t31 34q137 56 333 92q67 159 125 272q-282 -31 -454 -100q-12 -4 -16 -4q-27 0 -27 25zM543 623q162 26 314 36q58 140 108 244q-146 -1 -286 -13q-63 -111 -97 -185t-39 -82z" />
<glyph unicode="$" horiz-adv-x="739" d="M96 465q0 73 100 191t210 180q23 94 49 157q11 23 35 23t39 -14t8 -33q-23 -55 -33 -95h20q29 0 78 -26t49 -64q0 -39 -37 -39q-2 -1 -40 17t-51 20t-46 -8q-39 -156 -59 -328q219 -18 219 -157q0 -86 -78 -164q-76 -68 -168 -100q4 -95 11 -145q8 -50 -20 -50t-34 35 q-12 80 -14 143q-41 -4 -75 -4t-81 34t-47 91q0 23 22 57t40 33q18 0 24 -2l-20 -78q0 -47 57 -47q33 0 78 12q-4 129 6 271l-84 4q-51 4 -96 18q-61 29 -62 68zM199 494q0 -46 145 -43q16 150 37 272q-72 -51 -127 -117t-55 -112zM391 123q178 68 178 153q1 43 -37 67 t-81 28l-41 2q-16 -133 -19 -250z" />
<glyph unicode="%" horiz-adv-x="1280" d="M96 -170q0 12 6 25q88 205 314 512t452 520q-45 4 -77 12q-49 -164 -146 -186q-10 -2 -31 -2q-90 0 -90 104q0 63 41 141t74 78q9 0 16 -2q8 43 60 43q84 1 86 -112q104 -11 147 -2q72 61 125 98q10 8 36 8t38 -28q13 -28 -19 -53t-104 -79q-240 -193 -508 -531 t-360 -554q-12 -27 -33 -27q-27 0 -27 35zM471 37q0 69 40 145t75 76h8q8 10 32 22t38 13q82 0 84 -111q0 -47 -45 -138t-111 -107q-25 -4 -33 -5q-88 0 -88 105zM541 46q0 -56 22 -56q41 0 82 77t41 127q0 91 -69 25l-37 -57q-39 -60 -39 -116zM596 828q0 -60 20 -60 q70 0 115 150q-55 22 -71 59q-1 -2 -3 -4q-61 -85 -61 -145zM709 1022q-1 -31 32 -45q-4 47 -22 47q-10 4 -10 -2z" />
<glyph unicode="&#x26;" horiz-adv-x="1073" d="M61 180q0 49 21 92q47 98 138 174t175 97q-180 82 -180 213q0 43 23 92q82 178 317 178q88 0 183 -54t96 -112q0 -18 -20 -34t-41 -17q-22 0 -34 20q-69 127 -219 127t-207 -118q-12 -27 -12 -54q0 -72 100 -135l19 -10q18 -8 59 -30t69 -36t79 -14q108 0 108 -59 q0 -37 -45 -37l-119 14q-84 -4 -90 0q-67 1 -179 -63t-155 -152q-18 -41 -18 -76q0 -84 94 -147q76 -55 187 -72q45 -4 63 -4q172 0 265 107t51 276q-30 -10 -82 -20t-154 -41q-68 -27 -68 -70l29 -78q0 -29 -29 -28q-9 -1 -35 45t-26 67q0 90 127 144q39 13 118 37t119 36 q127 53 127 142q0 59 -59 94t-59 47q0 29 42 29t99 -60t57 -125q0 -141 -157 -202q26 -81 26 -144q0 -182 -156 -270t-337 -68q-111 16 -210 102t-100 197z" />
<glyph unicode="'" horiz-adv-x="311" d="M57 621q0 18 19 32q57 43 57 172q0 35 -3 50t22 33t49 20q39 0 39 -58t-39 -141q-39 -82 -92 -123q-14 -10 -27 -10q-25 0 -25 25z" />
<glyph unicode="(" horiz-adv-x="616" d="M96 303q0 173 33 315t120 300t204 235q10 6 18 6q27 0 39 -33q14 -31 -4 -53q-324 -377 -324 -803q0 -332 205 -393q14 -20 14 -41q0 -49 -61 -33q-129 31 -195 197q-49 131 -49 303z" />
<glyph unicode=")" horiz-adv-x="524" d="M18 -186q0 12 9 20q229 266 307 604q29 125 28 250q0 332 -204 393q-14 20 -15 41q0 49 62 33q129 -27 194 -197q49 -134 49 -304t-32 -312q-33 -142 -120 -301q-87 -158 -204 -236q-20 -14 -47 -14t-27 23z" />
<glyph unicode="*" horiz-adv-x="755" d="M45 850q0 18 14 18h7q100 -31 274 -34q-35 47 -86 132t-51 96t12 11q4 0 61 -93t97 -140q193 233 239 233q23 0 23 -18q0 -6 -8 -13q-102 -70 -217 -211h28q150 0 246 27h4q14 0 14 -10q0 -20 -99 -34t-195 -13q53 -70 186 -187l39 -36q0 -20 -23 -21q-6 0 -10 4 q-98 66 -227 227q-56 -67 -104 -149t-52 -82q-10 0 -10 14q0 53 137 228q-109 0 -204 13t-95 38z" />
<glyph unicode="+" horiz-adv-x="1132" d="M118 229q-20 56 64 93q100 35 291 49l86 6q-23 139 -70 282q-23 70 23 84q41 16 76 -34l14 -31q35 -96 49 -289v-10q166 0 303 -51q52 -20 68 -52t-13 -43q-30 -9 -87 11q-127 49 -265 49q10 -219 -49 -385q-20 -52 -52 -68t-42 14t10 87q63 158 47 350 q-160 -14 -368 -82q-70 -23 -85 20z" />
<glyph unicode="," horiz-adv-x="419" d="M74 -133q0 23 32 35t67 69q34 57 44 125q7 33 59 33t52 -39q-4 -55 -70 -135t-139 -109q-45 -14 -45 21z" />
<glyph unicode="-" horiz-adv-x="1091" d="M83 112q-15 44 38 78l26 13q100 35 291 49q301 25 482 -43q53 -20 68 -52q16 -32 -14 -42t-87 10q-268 111 -721 -35q-68 -22 -83 22z" />
<glyph unicode="&#xad;" horiz-adv-x="1091" d="M83 112q-15 44 38 78l26 13q100 35 291 49q301 25 482 -43q53 -20 68 -52q16 -32 -14 -42t-87 10q-268 111 -721 -35q-68 -22 -83 22z" />
<glyph unicode="." horiz-adv-x="235" d="M51 43q0 53 55 53q80 0 80 -45q0 -71 -59 -71q-23 0 -49 18t-27 45z" />
<glyph unicode="/" horiz-adv-x="1443" d="M90 -127q0 10 8 31q131 305 492 762q373 465 653 657q14 8 41 8t45 -31q18 -37 -14 -57q-283 -193 -653 -639q-373 -444 -500 -739q-14 -31 -39 -31q-33 0 -33 39z" />
<glyph unicode="0" horiz-adv-x="1064" d="M102 322q-6 258 62 462q94 297 328 375q12 4 38 -7t27 -34q0 -7 -2 -14q46 31 98 31q150 0 244 -201q76 -168 76 -338q0 -250 -121 -479q-143 -283 -387 -283q-158 0 -268 199q-88 156 -95 289zM242 745q-113 -330 6 -628q84 -213 248 -213t280 243q105 217 105 416 t-56 336q-74 168 -200 168q-63 0 -97 -117q-14 -14 -27 -14t-23 17t-4 47q7 30 30 59q-11 -4 -25 -8q-141 -37 -237 -306z" />
<glyph unicode="1" horiz-adv-x="821" d="M164 -119q0 47 221 133q-45 72 -45 181v131q0 238 52 460t52 275q-32 -6 -78 -78t-79 -72q-47 0 -47 42t102 127t138 85t64 -19t28 -48t-56 -230q-96 -348 -96 -637q0 -201 74 -200q98 0 152 -35t50 -92q-145 71 -262 28q-57 -20 -135 -58t-90 -40q-45 0 -45 47z" />
<glyph unicode="2" horiz-adv-x="1236" d="M170 838q0 37 37 61q10 6 33 17t34 18q326 166 551 166q137 0 225 -66t89 -200q0 -106 -144 -254q-92 -92 -301 -248q-142 -102 -284 -214t-142 -165q0 -8 43 -8q43 1 240 65t273 64t139 -33q82 -41 81 -104q0 -41 -47 -78h-53q29 70 29 73q0 51 -154 52q-96 0 -219 -43 q-16 -6 -91 -36q-75 -31 -129 -51t-94 -20q-38 0 -77 35q-35 35 -35 74q0 80 143 209q84 70 293 230t308 259q129 135 129 233q0 147 -166 148q-246 0 -576 -199q-66 -41 -76 -41q-59 0 -59 56z" />
<glyph unicode="3" horiz-adv-x="1460" d="M172 148q0 18 20 24t37 -18q43 -106 151 -166t250 -60t312 95q190 104 191 247q0 166 -349 166q-12 0 -110 -15t-131 -15t-33 30q0 49 70 70q27 6 137 35q174 59 338 164q211 135 211 253q0 76 -73 114t-169 32q-195 -12 -360 -86q-111 -47 -166 -98q-16 -16 -43 -17 q-55 0 -56 47q0 70 206 152t413 82q340 0 340 -234q0 -156 -213 -295q-74 -49 -252 -139q315 -20 315 -254q0 -162 -190 -295t-354 -133q-373 0 -484 281q-8 15 -8 33z" />
<glyph unicode="4" horiz-adv-x="1206" d="M82 336q0 21 38 95t54 110q117 291 160 561q29 139 74 139q55 0 55 -80t-90 -346t-162 -403q391 109 586 204q19 130 79 358t99 228q55 0 55 -53q0 -39 -64 -237t-71 -281q63 16 124 -16q60 -32 93 -87l-18 -61q-101 101 -222 57q-26 -190 -26 -246v-96t2 -78t7 -55 q5 -16 14 -47q18 -61 106 -156q-72 -14 -121 12q-109 58 -113 310q-1 59 19 178t20 158q-231 -57 -532 -185q-80 -37 -101 -36q-66 0 -65 53z" />
<glyph unicode="5" horiz-adv-x="1222" d="M125 -31q0 50 34 97t52 47q39 0 25 -56q-20 -14 -31 -47l-2 -20q0 -70 129 -70q188 0 413 148t271 329q8 27 8 62q0 86 -61 137q-63 51 -160 51q-182 0 -524 -194q-68 -41 -89 -41q-53 0 -53 34q0 25 47 101q96 154 156 379q0 4 3 13t5 17q-54 -31 -72 -30q-51 0 -51 43 v12q12 39 173 107q162 68 272 92q110 25 248 24q61 0 101 -38t40 -83t-39 -55q-18 -4 -29 12q-8 16 -2 31v12q0 41 -104 41q-158 0 -428 -123q-51 -201 -158 -395l-20 -41q289 166 489 166q150 -1 249 -63t99 -191q0 -49 -14 -98q-62 -233 -312 -389t-458 -156t-207 135z " />
<glyph unicode="6" horiz-adv-x="966" d="M66 238q0 268 127 518q78 150 206 278q160 162 303 162q51 0 109 -24t61 -68q2 -23 -12 -34t-32 -11t-83 16q-55 18 -90 19q-87 0 -203 -128t-165 -239q-150 -340 -144 -516q6 -299 170 -299q77 0 177 95t143 177q98 193 96 320q-6 158 -134 158t-247 -168t-115 -308 q0 -39 25 -77q23 -45 23 -50q0 -35 -37 -34q-34 0 -58 60t-28 112q-2 180 129 358t313 178q106 0 162 -74q49 -59 55 -165q4 -201 -139 -416q-158 -244 -352 -244q-72 0 -129 39q-61 37 -86 104q-45 111 -45 261z" />
<glyph unicode="7" d="M137 1102q0 47 58 47q37 0 83 -14t87 -19q336 -12 583 25q55 10 56 -39q0 -8 -9 -33q-14 -6 -59 -29q-74 -40 -186 -190t-187 -279q-197 -336 -235 -594q-10 -57 -17 -116q-25 -27 -47 -27q-49 0 -49 80q-1 222 205 580t399 553h-8q-98 -12 -352 -25q-322 -10 -322 80z " />
<glyph unicode="8" horiz-adv-x="1255" d="M129 662q0 100 182 221q143 94 344 172t287 78t148 -62q61 -63 61 -158q0 -31 -31 -128t-65 -97q-57 0 -58 45q0 25 41 88q39 63 39 113q0 109 -135 108q-160 0 -442 -146t-281 -265q0 -45 299 -131q36 -8 96 -28t68 -26q18 0 110 86t117 115q16 16 17 35l-4 23 q-2 16 6 34q32 33 56 -14q14 -29 15 -51q1 -74 -196 -240l-17 -16q117 -51 164 -113q39 -47 39 -115q0 -166 -172 -270q-141 -86 -293 -86q-244 0 -243 156q0 137 321 397q-36 16 -142 47t-171 58q-160 70 -160 170zM358 -12q0 -78 181 -78q89 0 233 90t143 190 q0 43 -94 109q-88 57 -116 57q-27 0 -187 -156t-160 -212z" />
<glyph unicode="9" horiz-adv-x="968" d="M127 610q0 186 137 400q146 238 312 238t239 -183q55 -131 55 -330l-2 -67q-18 -279 -151 -523q-166 -311 -395 -311q-43 0 -116 36t-73 85q0 33 25 33q18 0 32 -15q70 -66 123 -65q227 0 371 387q104 285 104 489q0 111 -30 215q-51 170 -166 170q-42 1 -146 -77 t-160 -226t-57 -301q0 -195 125 -194q129 0 240 176q100 166 100 313q0 98 -55 125q-16 5 -16 23t17 32t34 9q58 -31 76 -87t18 -153q0 -141 -115 -315q-131 -199 -305 -199q-8 0 -20 6q-113 0 -164 125q-37 86 -37 184z" />
<glyph unicode=":" horiz-adv-x="376" d="M70 -92q0 63 63 63q94 0 94 -53q1 -84 -69 -84q-31 0 -60 22t-28 52zM147 473q0 63 64 64q94 0 94 -56q1 -82 -69 -82q-31 0 -60 22t-29 52z" />
<glyph unicode=";" horiz-adv-x="561" d="M55 -135q0 27 35 39q45 18 85 87t52 144q6 39 76 39q27 0 40 -11t11 -36q0 -63 -80 -159t-163 -128q-55 -20 -56 25zM301 664q0 63 64 63q96 0 96 -55q0 -84 -72 -84q-27 0 -57 22t-31 54z" />
<glyph unicode="&#x3c;" horiz-adv-x="1026" d="M118 296q9 38 34 62q66 72 235 177q260 160 449 180q57 7 85 -13t6 -46t-83 -31q-287 -25 -606 -338q297 -313 606 -340q61 -6 83 -32t-6 -45t-85 -13q-188 20 -449 180q-170 104 -235 176q-43 45 -34 83z" />
<glyph unicode="=" horiz-adv-x="1071" d="M85 60q-15 44 38 79q91 45 317 62q301 25 482 -43q53 -20 68 -52t-14 -43q-30 -9 -87 11q-268 111 -721 -35q-68 -23 -83 21zM85 366q-15 44 38 78q91 45 317 62q301 25 482 -43q53 -20 68 -52q16 -32 -14 -42t-87 10q-268 111 -721 -35q-68 -22 -83 22z" />
<glyph unicode="&#x3e;" horiz-adv-x="989" d="M91 -85q22 26 83 32q309 27 606 340q-319 313 -606 338q-61 5 -83 31t6 45t85 14q188 -20 449 -180q170 -104 235 -177q25 -24 34 -62t-34 -83q-66 -72 -235 -176q-260 -160 -449 -180q-57 -6 -85 13t-6 45z" />
<glyph unicode="?" horiz-adv-x="927" d="M-63 806q-1 50 157 141t254 118t203 27q287 0 287 -213q0 -123 -205 -285q-49 -41 -166 -123q-217 -154 -217 -225q0 -33 31 -37q55 -8 55 -35q0 -39 -49 -39t-82 36t-33 85q0 84 152 211q47 35 141 109t141 108q152 123 152 199q0 137 -209 137q-183 0 -457 -192 q-104 -73 -110 -72q-45 0 -45 50zM197 -92q-1 57 67 57t68 -53q0 -16 -28 -34t-44 -17q-63 0 -63 47z" />
<glyph unicode="@" horiz-adv-x="1579" d="M84 507q0 191 109 361t283 272t355 103q182 0 346 -125q209 -159 214 -440q0 -211 -113 -350q-121 -154 -293 -92q-98 37 -96 231q-274 -342 -434 -342q-88 0 -88 104q0 201 264 513t391 229q41 -29 41 -112t-47 -83q-41 0 -74 52t14 71q-91 -31 -290 -289 q-211 -268 -211 -368q0 -33 28 -33q70 0 248 215q39 45 117 139q68 90 78 162q6 49 57 49q70 0 57 -67q-49 -251 -49 -319t37 -79q20 -4 31 -4q102 0 170 150q68 151 33 323t-162 281q-115 94 -269 94q-243 0 -439 -198t-195 -439q0 -174 100 -312t255 -209t327 -71 q219 0 368 117q147 121 148 291q-1 66 -13 104t-12 41q0 35 27 37q27 6 45 -27q68 -151 40 -271t-121 -205t-221 -131t-261 -46q-197 0 -376 81t-299 241t-120 351z" />
<glyph unicode="A" horiz-adv-x="1122" d="M-78 -172q0 27 162 342q49 104 57 123q-57 -23 -85 -42t-52 -20q-51 0 -51 52q0 37 95 69t138 47q24 47 80 172t162 340q123 240 240 240q55 0 94 -70q27 -45 39 -96q31 -150 51 -467q201 -18 201 -141q0 -43 -35 -62q-14 -7 -24 -7q-23 0 -23 36q0 2 10 33q0 55 -133 55 q12 0 16 -22q68 -465 146 -465q14 0 30 10q31 25 45 25h6q31 0 31 -43q0 -29 -42 -47q-40 -17 -65 -17h-3q-186 2 -244 557q-12 2 -74 2t-248 -42t-192 -54q-23 -57 -79 -188t-114 -281q-41 -98 -86 -98q-53 0 -53 59zM309 440q246 70 453 86q-6 101 -31 320 q-35 221 -86 221q-76 0 -336 -627z" />
<glyph unicode="B" horiz-adv-x="1339" d="M-14 729q0 39 125 137q340 268 633 268q292 0 292 -195q0 -136 -243 -339q73 14 163 14t190 -48q99 -48 99 -144q0 -176 -256 -359t-438 -208q-233 -29 -260 -29q-207 0 -207 139q0 88 70 131q28 0 34 -4t15 -35q-45 -51 -45 -92q0 -47 135 -47q205 0 442 100 q119 47 262 172q168 141 168 228q0 104 -209 104q-154 0 -309 -55q-13 -6 -117 -52t-122 -46q-59 0 -60 22q0 29 94 84q494 279 494 483q0 49 -52 76t-122 27q-291 0 -637 -322q-71 -65 -88 -65q-51 0 -51 55zM170 288q0 96 50 344t104 248t55 -53q-1 -24 -19 -57 q-102 -199 -102 -545q0 -150 107 -180q16 -16 16 -31q0 -30 -46 -30h-3q-78 0 -123 118q-39 90 -39 186z" />
<glyph unicode="C" horiz-adv-x="1112" d="M98 193v73q0 156 99 367q97 219 257 380t326 161q39 0 97 -29q59 -29 59 -60t-20 -49t-32 -18q-14 0 -68 24q-52 23 -84 23h-3q-168 0 -353 -305t-186 -504q0 -143 46 -233q55 -115 157 -115t230 72q186 106 319 358q24 41 48 41t32 -43q-6 -29 -66 -133t-84 -133 q-82 -104 -206 -174t-256 -70t-222 114t-90 253z" />
<glyph unicode="D" horiz-adv-x="1269" d="M-117 815q0 37 92 88q295 172 633 172q215 0 391 -134t177 -349q0 -260 -206 -503t-468 -243q-100 0 -146 35q-4 3 -5 7q-28 -35 -52 -35q-104 0 -160 204q-41 147 -41 285v137q0 79 31 231t66 152q55 0 55 -61q0 -34 -31 -148q-31 -160 -31 -293q0 -434 152 -434l37 7 q2 1 4 1q0 -1 -1 -1l81 -15q221 0 425 222t204 448q0 184 -144 292t-342 109q-133 0 -285 -43t-258 -115q-105 -71 -118 -71q-59 0 -60 55z" />
<glyph unicode="E" horiz-adv-x="1009" d="M-96 852q0 44 179 122t327 126q39 12 136 26q96 14 144 15q48 0 98 -32t50 -77t-22 -78q-22 -34 -36 -34q-30 -1 -30 36q2 8 2 35t-22 37t-85 10q-145 0 -390 -79q27 -14 28 -60l-25 -111q-22 -104 -47 -266q19 2 113 35t143 33q156 0 176 -74l-8 -47h-9q-34 0 -50 21 q-18 24 -67 24q-50 0 -173 -30t-129 -54q-10 -33 -9.5 -112.5t9.5 -204.5q4 -78 14 -109q23 -53 89 -53t220 40t228 40t134 -46t60 -124l-45 -25q-49 109 -176 109q-74 0 -218 -37t-220 -37q-185 0 -185 209q0 84 6 174q5 90 7 129q-51 -31 -70 -31q-45 0 -45 60 q0 35 117 86q4 52 28 291q10 99 40 148q-7 -3 -15 -5t-106 -69q-97 -66 -111 -66q-55 0 -55 55z" />
<glyph unicode="F" horiz-adv-x="1024" d="M-76 871q0 54 107 94q493 196 684 196h2q80 0 135 -26q80 -37 80 -103t-45 -76q-27 14 -27 54q0 59 -164 59q-80 0 -240 -41t-236 -78q24 -11 24 -36t-25 -123q-25 -99 -38 -159t-13 -140q14 0 83 16t115 16t93 -14q68 -23 67 -68l-26 -26q-31 2 -67 19q-37 17 -67 17 t-116 -14t-86 -32q0 -540 117 -540q4 0 8 1h12q43 0 43 -35q0 -16 -19 -28t-36 -11q-213 0 -217 563q-77 -41 -80 -41q-51 0 -51 44t51 69q57 20 88 31q10 68 20 189q10 120 15 167t26 92q-19 -11 -43 -24l-75 -43q-37 -20 -50 -23q-49 0 -49 54z" />
<glyph unicode="G" horiz-adv-x="1284" d="M100 295q0 297 187 600q213 348 497 348q43 0 93 -24q61 -27 61 -68q0 -23 -15 -40t-27 -17t-24 4q-63 39 -127 39q-111 0 -243 -130t-223 -333q-90 -203 -91 -395q0 -127 58 -234q63 -125 170 -125q225 0 436 268t231 486q1 12 1 23q0 51 -25 51q-39 0 -385 -211 q-72 -43 -86 -43q-47 0 -47 52t235 166q233 113 296 113h1q102 0 103 -123q0 -38 -12 -98t-13 -72q-53 -379 -53 -559q0 -171 53 -171q3 0 6 1q8 1 14 1q39 0 39 -36q0 -42 -57 -42q-154 0 -154 282q0 98 33 277q-125 -223 -237 -314q-152 -129 -377 -129q-156 0 -246 164 q-72 133 -72 289z" />
<glyph unicode="H" horiz-adv-x="1400" d="M10 -125l2 4l8 29h41q20 -33 41 -33q94 0 146 236q29 145 35 286q-88 -45 -121 -45q-43 0 -43 47q0 37 59 62q8 4 92 26q4 -2 13 -2q3 86 3 109v8q-1 10 -6 165t-47 316q-6 27 -6 52q0 63 58 63q45 0 68 -175t24 -290v-203l2 -10q227 72 358 86q211 20 224 21l90 -6 q16 156 69 351t111 195q45 0 45 -59q0 -25 -10 -66q-101 -255 -115 -436q66 -29 86 -49q39 -33 39 -75t-20 -66t-39 -25q-25 0 -35 41l20 43q-6 31 -59 43q-6 -16 -6 -59q0 -30 3 -73q7 -104 13 -189q27 -221 100 -222q20 0 35 21h49q8 -31 9 -35q0 -27 -34 -44t-59 -17 q-147 0 -190 260q-14 72 -23 368q-37 6 -137 7q-166 0 -526 -103q-10 -127 -55 -348q-59 -283 -211 -283q-25 0 -58 19q-43 20 -43 55z" />
<glyph unicode="I" horiz-adv-x="962" d="M55 1041q0 60 233 125q234 66 316 66t162 -26q106 -33 106 -88t-26 -55q-31 0 -47 47t-156 47q-68 0 -137 -12q18 -17 12 -60q-78 -495 -78 -633q0 -406 95 -407l77 4q84 0 162 -24q106 -33 107 -101q-1 -27 -17 -37q-12 -4 -45 -4q-14 88 -187 88t-417 -106 q-55 -23 -61 -23q-54 0 -54 58t332 125q-82 106 -82 430q0 225 33 446q2 41 20 193q2 12 16 31q-33 -9 -133 -45t-142 -62q-42 -25 -48 -25q-41 0 -41 48z" />
<glyph unicode="J" horiz-adv-x="681" d="M-455 -266v10q0 51 37 51q20 0 27 -37q12 -86 81 -146t152 -61q283 0 424 336q104 253 104 571t-46 644q-3 39 14 56q-96 -30 -184 -68q-86 -37 -93 -37q-55 0 -55 45q0 62 240 120t321 58q79 0 139 -34t60 -99q0 -12 -22 -40t-48 3q2 6 2 16q0 53 -49 70q-23 8 -87 8 t-144 -19q18 -10 23 -30t11 -139t7 -287q0 -612 -127 -903q-53 -123 -154 -225q-117 -123 -241 -134l-51 -4l-23 -2h-2q-104 0 -209 86t-107 191z" />
<glyph unicode="K" horiz-adv-x="1130" d="M92 309q0 257 38 541t106 285q51 0 51 -54v-8q-104 -266 -105 -657q0 -29 2 -134q2 -106 40 -234t81 -128h8q34 0 60 -16q-7 -56 -58 -56q-106 0 -165 136q-46 98 -52 187t-6 138zM193 537q33 25 47 26h45q102 11 232 113t216 211q2 5 40 71q90 156 119 156h1 q17 -2 33 -22t14 -35q-4 -55 -133 -228q-63 -84 -192 -182t-236 -137q19 -18 117 -148t200 -225q145 -143 232 -145q18 0 49 15t67 32l21 -33q-3 -40 -67 -66q-55 -23 -98 -23q-7 0 -13 1q-145 10 -369 279q-70 86 -162 190q-84 86 -157 105z" />
<glyph unicode="L" horiz-adv-x="1077" d="M-82 -119q0 25 109 84q23 10 24 12q121 96 121 451q0 211 -8 295l-23 278q0 63 38 115q36 51 97 51h2h2q62 0 157 -71q97 -72 97 -127t-51 -56q-35 0 -94 91q-55 92 -115 92q-33 0 -33 -84q0 -15 1 -33q18 -406 18 -408v-311q0 -135 -67 -256q283 104 501 105 q92 0 189 -52q117 -61 116 -147q1 -45 -71 -45l2 41v7q0 97 -254 97q-205 0 -453 -84q-2 0 -16 -6t-47 -19t-106 -42t-83 -29q-53 0 -53 51z" />
<glyph unicode="M" horiz-adv-x="1828" d="M-131 779q0 54 141 166t189 112q96 0 120 -166q9 -51 8 -160q0 -121 -10 -315q215 631 390 631q119 0 153 -263q14 -92 14 -360q31 141 46 190q45 172 137 347q128 239 251 239h1q147 0 166 -317l22 -412q18 -311 19 -315q29 -250 100 -250q12 0 42 26t38 25q8 0 24 -11 t8 -43q-9 -32 -55 -53q-38 -20 -67 -20q-86 0 -129 82q-70 141 -86 864q-9 344 -91 344t-204 -297q-63 -156 -138 -413q-69 -238 -69 -375v-21q1 -7 1 -15q0 -29 -13 -56q-14 -45 -52 -45q-49 0 -49 92q0 48 9 177q9 127 9 245q0 158 -16 302q-27 250 -84 251 q-55 0 -157 -228q-182 -418 -220 -649q-2 -37 -20 -186q-12 -51 -66 -52q-55 0 -55 62v6q2 4 3 15q6 70 16 124q36 333 36 713v21q0 184 -49 184q-35 0 -98 -76l-86 -111q-51 -63 -76 -63q-53 0 -53 54z" />
<glyph unicode="N" horiz-adv-x="1220" d="M-106 764q0 56 135 160t190 104q117 0 117 -156v-10l-4 -407q37 119 110 329q135 354 271 355q94 0 127 -144q8 -33 24 -213q4 -102 35 -430q43 -338 109 -338q10 0 32 18t43 23l35 -16q-4 -45 -44 -76t-68 -31q-109 0 -162 195q-31 119 -46 349t-38 429q-27 160 -74 160 q-37 0 -143 -279q-121 -303 -154 -417q-72 -246 -72 -439v-9q0 -68 -55 -68h-2q-57 0 -57 67q0 68 13 194t13 197l17 430q0 203 -45 203q-53 0 -207 -184q-35 -45 -43 -48t-19 -3q-10 0 -24 19t-14 36z" />
<glyph unicode="O" horiz-adv-x="1122" d="M94 328q0 121 41 256q41 115 62 170q-1 13 -1 26q0 186 133 320q129 130 292 130q16 0 32 -1q164 -8 273 -193q92 -156 92 -321q0 -295 -137 -545q-169 -307 -445 -307q-188 0 -274 155q-68 121 -68 310zM186 320q0 -138 54 -246q63 -129 182 -129q238 0 379 268 q117 225 117 494q0 147 -72 280q-86 150 -215 161q-12 1 -23 1q-116 0 -211 -93q-105 -102 -117 -214q4 24 36 62t56 38t40 -16t16 -41t-69 -104t-69 -87t22 -26t30 -19l49 6q23 0 23 -20q0 -53 -60 -53t-100 34q-68 -158 -68 -296z" />
<glyph unicode="P" horiz-adv-x="1247" d="M-104 914q0 20 55 73q51 43 76 62q211 139 354 197q141 57 340 57h7q204 -1 312 -101q108 -99 108 -256q0 -160 -156 -322q-154 -160 -308 -210q-151 -49 -215 -49h-3h-4q-60 0 -112 31q-53 31 -53 87q0 31 22 58h48q-2 -86 67 -86q205 0 410 166q217 172 217 364 q0 123 -113 186q-94 55 -260 55t-358 -106q-113 -61 -322 -231q-40 -31 -56 -31t-36 18t-20 38zM111 440q0 283 22 473q9 82 63 82t54 -57q0 -42 -14 -102t-15 -70q-26 -174 -26 -338v-12q0 -518 165 -518q10 0 17 2l31 -31q-17 -47 -54 -47q-139 0 -196 168 q-39 111 -39 272z" />
<glyph unicode="Q" horiz-adv-x="1150" d="M104 332q0 121 41 256q41 115 62 170q-1 13 -1 27q0 185 132 319q130 132 298 132q14 0 28 -1q164 -13 264 -183t100 -351t-80 -402t-229 -336q87 -53 143 -53t60 6v2q0 31 4 43t22 25q51 -18 51 -64t-44 -76q-43 -28 -82 -28h-3q-72 0 -202 88l-19 12q-94 -51 -203 -51 q-188 0 -274 156q-68 121 -68 309zM256 67q60 -118 176 -118q68 0 133 24q-102 61 -183 61t-81 50q0 49 89 49t253 -119q137 94 211 298t74 375t-72 304q-86 150 -215 161q-12 1 -23 1q-115 0 -211 -93q-105 -102 -117 -214q5 26 37 64t55 38q24 0 40 -16t16 -42t-68 -105 t-69 -87q0 -8 22 -26t29 -19l49 6q23 0 23 -20q0 -53 -60 -53t-100 37q-69 -158 -69 -301q0 -134 61 -255z" />
<glyph unicode="R" horiz-adv-x="1251" d="M-121 908q0 15 8 24q135 131 399 248q264 116 456 116t294 -87t102 -249t-188 -344q-158 -152 -315 -200q-59 -18 -121 -35q53 -74 76 -102q96 -129 244 -263q89 -77 170 -77h2q20 0 49 16t71 37l21 -33q-5 -47 -71 -71t-109 -25q-176 0 -365 262q-53 74 -131 157 q-77 83 -113 92q-72 18 -72 58q0 4 1 8q4 31 55 31t84 -12q206 18 410 182t217 346q1 12 1 24q0 104 -80 154q-89 55 -231 56q-297 0 -712 -301q-84 -61 -88 -62q-18 0 -41 18t-23 32zM166 264q2 313 70 647q14 82 65 82t51 -57q0 -27 -41 -174q-55 -258 -55 -520 q0 -346 129 -346h16l31 -31q-18 -47 -57 -47q-209 0 -209 430v16z" />
<glyph unicode="S" horiz-adv-x="1024" d="M51 573q0 212 275 427q276 216 471 217q157 0 157 -195v-2q0 -33 -20 -76t-47 -43q-17 1 -35 19t-16 35t3 31t4 26q3 13 3 18v2q0 96 -66 96q-122 0 -376 -210t-254 -328q0 -49 100 -80q38 -12 236 -47t284 -76q131 -61 131 -186t-148 -241t-286 -116h-47q-86 0 -170 58 t-84 145q0 27 16 69t35 42q37 0 37 -35l-14 -64q0 -55 51 -86q49 -30 115 -30h4q135 0 266 84t131 206q0 66 -111 103q-55 18 -191 40t-319 64q-135 47 -135 133z" />
<glyph unicode="T" d="M-121 954q0 49 203 125q202 76 354 113t270 37t216 -29q131 -39 131 -119q0 -63 -45 -90q-16 -14 -31 -14q-23 0 -16 41l16 43q0 84 -293 84q-236 0 -550 -157q-166 -83 -200 -83q-55 0 -55 49zM356 356v172q0 18 27 424q8 143 78 146q53 0 53 -62q0 -32 -20 -100 q-47 -165 -47 -401q0 -97 8 -205q2 -84 30 -260q23 -92 41 -121q35 -49 92 -55q27 -2 27 -20q1 -18 -17 -31t-42 -13q-125 0 -187 215q-43 143 -43 311z" />
<glyph unicode="U" horiz-adv-x="1230" d="M66 907q4 47 92 121t147 102q43 25 88 25t69 -46t25 -93q0 -130 -119 -490q-118 -357 -118 -527q0 -91 18 -91q160 0 459 631q51 111 94 272q14 37 31 117q4 80 10 135q18 92 72 92q53 0 53 -59q0 -36 -29 -152q-16 -84 -24 -156t-8 -303q6 -97 19 -305t91 -209 q33 0 49 54q8 25 27 24q33 0 33 -45t-32 -75q-31 -29 -70 -29h-3q-127 0 -178 241q-31 141 -31 334q1 22 5 100q-80 -236 -236 -464q-186 -279 -326 -279q-66 0 -98 51q-26 38 -26 97q0 121 71 391q172 569 172 665q0 39 -26 39q-39 0 -121 -88q-4 -6 -70 -84 q-41 -41 -59 -41q-31 0 -51 45z" />
<glyph unicode="V" horiz-adv-x="1226" d="M-110 807q0 45 98 137q100 92 147 110q45 17 78 17h4q90 0 154 -192q37 -109 84 -390q16 -117 57 -330q41 -212 72 -212q37 0 73 157q70 291 166 594q152 459 238 459q25 1 44 -21t9 -40q-78 -113 -133 -256q-121 -324 -174 -537t-105 -391q-23 -66 -106 -66 q-88 0 -160 256q-18 59 -69 334q-104 559 -185 559q-47 -1 -131 -117t-112 -116q-49 0 -49 45z" />
<glyph unicode="W" horiz-adv-x="1640" d="M-150 664q4 80 136 210q131 135 204 136q199 0 199 -495q0 -167 -8 -329q96 268 223 522t205 255q65 0 65 -64q0 -20 -16 -49q-4 -41 -4 -82q0 -246 72 -526q86 -330 209 -330q139 0 229 317q70 240 70 436t-41 347q-66 221 -203 221q-43 0 -92 -51q-29 0 -33 2t-18 26 q2 43 73 74q55 27 101 27q139 0 231 -183q72 -141 82 -294v-50q0 -301 -92 -589q-115 -362 -303 -363q-195 0 -299 406q-74 287 -74 569q0 10 2 16q-43 -43 -201 -385q-92 -207 -153 -444q-12 -55 -15 -74q-10 -106 -51 -115q-6 -2 -20 -2q-54 0 -54 60v6l23 281 q0 350 -8 440q-25 340 -107 340q-45 0 -116 -96q-31 -47 -97 -142q-39 -53 -78 -57z" />
<glyph unicode="X" horiz-adv-x="1251" d="M92 -51q0 140 283 514q98 131 98 135q0 24 -132 235t-174 279t-42 92q0 59 57 60q37 0 64 -45q0 -2 80 -160l96 -193q61 -113 113 -184q80 96 298 351t267 255q16 0 34 -16t19 -38q0 -22 -14 -36q-50 -52 -208 -212q-345 -348 -345 -386q0 -23 155 -227 q193 -258 310 -258q29 1 53 29t41 28q35 0 35 -42t-56 -72q-54 -29 -103 -29h-3q-137 0 -285 188q-37 51 -107 151t-106 150q-141 -193 -205 -299q-122 -205 -122 -326q0 -25 36 -69l-24 -37q-49 5 -81 65t-32 97z" />
<glyph unicode="Y" horiz-adv-x="1081" d="M-86 962q0 50 162 168q161 117 226 117h1q115 0 115 -126t-80 -404q-31 -96 -125 -414q-37 -143 -37 -228t43 -85q72 0 256 315q319 547 332 836v55q-2 27 -2 53q0 60 51 60q57 0 94 -267q37 -268 37 -356q0 -412 -37 -653q-57 -365 -217 -619q-168 -270 -450 -270 q-109 0 -203 88q-94 82 -135 205q-4 31 -2 37q4 36 26 22t49 -55q125 -205 258 -205q291 0 461 404q119 276 140 589q18 241 18 395t-37 355q-12 -39 -67 -225q-91 -290 -269 -564t-313 -274q-129 0 -129 168q0 109 79 375q79 265 119 413t40 218t-33 71q-37 0 -170 -125 t-156 -125q-45 1 -45 51z" />
<glyph unicode="Z" horiz-adv-x="1431" d="M84 -39q0 80 133 225q61 70 183 185t468 403q345 288 365 289q19 -1 35 -13t21 -21l1 9q0 59 -168 60q-120 0 -268 -35t-338 -88t-221 -53q-57 0 -57 57q0 29 53 51q90 31 223 55l227 41q251 54 361 54t174 -31q84 -41 84 -119q0 -49 -24 -82t-40 -33q-29 0 -22 35l7 38 q-36 -41 -171 -146q-940 -750 -940 -860q0 -14 27 -15q4 0 475 148q227 65 345 65t212 -66t94 -173q0 -40 -31 -99q-14 -18 -32 -18q-29 0 -29 35q0 10 7 27t7 51q0 68 -84 110q-71 39 -185 39t-280 -47q-106 -35 -304 -107t-220 -73q-88 0 -88 102z" />
<glyph unicode="[" horiz-adv-x="751" d="M57 1280q10 47 86 66q152 39 267 34q86 0 159 -26q100 -33 101 -88q0 -55 -27 -56q-29 0 -45 43q-18 51 -160 52q-68 0 -135 -11q17 -18 10 -61l-45 -287q-43 -284 -43 -614t94 -330l78 4q86 0 162 -24q106 -33 107 -101q-1 -29 -15 -37q-12 -4 -47 -4q-14 88 -174 88 q-59 0 -109 -11t-57 -11q-57 0 -57 45q0 16 14 29q-80 106 -80 458t39 611q4 78 21 192q4 16 16 34q-34 -9 -72 -23t-59 -9q-35 6 -29 37z" />
<glyph unicode="\" horiz-adv-x="1198" d="M68 -170q0 12 6 25q113 264 423 653t547 551q10 8 34 8t40 -29t-12 -47q-244 -164 -555 -542q-318 -379 -424 -627q-12 -27 -33 -27q-27 0 -26 35z" />
<glyph unicode="]" horiz-adv-x="681" d="M35 1329q0 10 2 14q16 53 300 53t310 -81q12 -39 -29 -39q-6 0 -34 8t-64 14q4 -16 0 -38l-47 -289q-53 -367 -53 -665t92 -298q37 0 37 -35q0 -41 -72 -57q-172 -39 -255 -75t-93 -36q-51 1 -51 57t332 128q-72 102 -72 410t47 675q2 37 21 191q2 14 12 28t13 16 q-45 4 -155 0t-200 -24q-41 -8 -41 43z" />
<glyph unicode="^" horiz-adv-x="1228" d="M96 510l453 887h131l453 -887h-146l-373 739l-372 -739h-146z" />
<glyph unicode="_" horiz-adv-x="477" d="M25 -231q0 39 28 38h369q29 0 29 -38q-1 -13 -9 -25t-20 -12h-369q-12 0 -20 11t-8 26z" />
<glyph unicode="`" horiz-adv-x="454" d="M74 1153q0 39 52 39t58 -33q10 -68 44 -125t67 -69t33 -35q0 -35 -45 -21q-74 29 -142 109q-63 80 -67 135z" />
<glyph unicode="a" horiz-adv-x="835" d="M91 313q134 211 300 353q120 103 197 103q29 0 53 -15q39 -25 39 -112t-66 -93h-5q-40 0 -40 33q1 6 13 32t10 55q-2 30 -6 29q-102 -18 -330 -313q-225 -297 -225 -405q0 -39 35 -39q88 0 278 229q137 166 145 178q55 76 66 148q6 47 49 47q53 0 53 -44q0 -8 -2 -18 q-51 -256 -51 -319q0 -104 47 -117q16 -4 35 6q12 8 16 19q10 43 44 43t32 -27q0 -12 -6 -27q-31 -79 -113 -79h-2q-27 0 -45 8q-98 33 -98 227q0 29 2 43q-94 -125 -223 -248q-156 -143 -248 -143q-29 -1 -59 21q-29 21 -29 81q0 133 134 344z" />
<glyph unicode="b" horiz-adv-x="897" d="M-45 233q0 182 94 552t154 370q18 0 41 -14q22 -15 22 -31t-2 -20q-106 -272 -123 -322q-106 -322 -106 -567q0 -49 12 -92q106 178 260 311q188 164 348 164q51 0 110 -35q58 -34 58 -101q0 -162 -231 -391t-385 -229q-125 0 -125 92q0 51 49 103q12 12 34 12t21 -17 q0 -14 -20 -42t-21 -46q0 -27 39 -26q125 0 342 217t217 332q0 63 -84 63q-205 0 -501 -393l-4 -4q-73 -123 -105 -123q-66 0 -88 92q-6 41 -6 145z" />
<glyph unicode="c" horiz-adv-x="684" d="M-31 135q0 152 135 367q158 250 330 250q28 0 96 -30t70 -75q2 -18 -15 -32q-17 -13 -37 -13t-54 37t-70 37q-125 0 -256 -234q-117 -206 -117 -330q0 -120 107 -120q108 0 210 67t173 177q6 12 17 12q10 0 22 -16t8 -27q-10 -35 -110 -134t-124 -110q-100 -55 -127 -55 q-2 0 -26 -4l-25 -2q-106 0 -156 70t-51 165z" />
<glyph unicode="d" horiz-adv-x="933" d="M-43 -41q0 84 91 267t228 331t261 148q45 0 96 -35q6 32 25 140t34 185q39 205 86 205q18 0 36 -16t20 -30q0 -14 -25 -97q-131 -442 -131 -854q0 -236 72 -236l59 31q16 -16 16 -36t-30 -42q-29 -16 -54 -16q-147 0 -147 342q0 44 2 73l-39 -47q-327 -417 -476 -417h-1 h-21q-102 0 -102 104zM51 -66q88 0 291 203t233 273q29 68 29 120q0 40 -17 69q-17 30 -40 34q-8 2 -17 2q-112 0 -300 -269q-201 -289 -201 -402q0 -30 22 -30z" />
<glyph unicode="e" horiz-adv-x="681" d="M-39 139q10 158 164 381q166 244 303 244q46 0 68 -37t22 -72q0 -98 -86 -231q-100 -156 -229 -156q-61 0 -94 27l-5 2q-18 -16 -40 -98q-21 -78 -21 -140v-6q-1 -80 103 -80t236 115t187 240h33q20 -18 14 -35q-57 -168 -193 -282q-135 -113 -269 -113h-2q-98 0 -148 66 q-44 58 -44 149q0 13 1 26zM133 354q0 -10 47 -14h5q78 0 168 114q93 118 93 208q1 38 -35 29t-65 -46q-213 -250 -213 -291z" />
<glyph unicode="f" horiz-adv-x="507" d="M-51 324q-1 16 19 32t145 74l20 10q31 346 55 449q78 305 263 305q65 0 113 -68t48 -141q0 -72 -34 -88q-23 9 -26 29t-5 36t-4 27q-2 41 -35 86q-33 51 -72 51q-175 0 -211 -657q13 2 51 11t62 9q92 0 119 -67q6 -12 6 -32t-14 -21q-18 -5 -43 25t-62 30t-78 -14 t-50 -28t-9 -72q0 -60 15 -220t16 -172q0 -68 -56 -68q-50 0 -50 57q0 7 1 15q2 12 2 20t-10 406l-141 -76q-35 0 -35 52z" />
<glyph unicode="g" horiz-adv-x="815" d="M-66 -352q0 59 41 59q29 0 29 -35v-11q0 -112 76 -200q80 -92 178 -92q203 0 301 299q61 193 62 383q0 381 -68 381q-4 0 -87 -126t-136 -191q-133 -152 -242 -152q-55 0 -90 43q-29 41 -29 92q0 172 218 446q217 273 357 273h1q57 0 90 -63q27 -45 27 -97q0 -86 -48 -86 q-50 0 -50 81q0 11 1 24v9q0 54 -22 54q-76 0 -207 -147q-92 -104 -150 -203q-41 -47 -90 -146t-49 -151t16 -53q74 0 195 129q49 53 172 211t154 158q72 0 104 -203q25 -139 25 -268v-5q0 -325 -129 -551q-130 -228 -308 -229q-129 0 -235 117t-107 250z" />
<glyph unicode="h" horiz-adv-x="700" d="M-14 120q0 216 68 638t130 424q51 0 52 -49l-16 -53q-8 -30 -34 -104t-41 -165q-61 -356 -71 -614l10 22q164 403 301 404q115 0 143 -336q6 -78 25 -217q16 -86 45 -86q18 0 44 18t28 18q31 0 30 -30q0 -27 -40 -48t-64 -22q-125 0 -158 332q-6 78 -24 217 q-16 84 -37 84q-59 0 -152 -188q-127 -258 -145 -476q-2 -14 -20 -29q-18 -16 -34 -16q-17 0 -24 17q-16 43 -16 259z" />
<glyph unicode="i" horiz-adv-x="319" d="M2 225q0 92 23 232q33 192 91 192h1q47 0 47 -53q0 -22 -30 -94t-42 -248q2 -42 2 -67t-2 -33q14 -76 27 -127q29 -84 78 -84q12 0 22 12t35 22q20 -19 20 -39t-30 -40t-58 -21q-94 0 -147 152q-37 104 -37 196zM72 947q0 22 16 41t39 20q53 0 53 -60q0 -59 -53 -59h-2 q-23 0 -38 18t-15 40z" />
<glyph unicode="j" horiz-adv-x="342" d="M-518 -385q0 49 35 49t32 -39v-15q0 -93 71 -176q77 -89 181 -89q221 0 324 342q65 219 65 470t-49 441q-6 20 6 54t50 34q79 0 79 -463v-12q0 -172 -8 -231q-29 -268 -139 -476q-129 -239 -285 -239t-259 101t-103 249zM160 854q0 43 52 43t52 -37q0 -55 -47 -55 q-57 0 -57 49z" />
<glyph unicode="k" horiz-adv-x="786" d="M-35 344v8q0 85 57 457q60 391 117 391q8 0 32 -17t24 -31t-2 -17q-137 -393 -138 -781q0 -209 45 -356q20 -70 52 -78q45 -12 45 -37q1 -12 -13 -23t-26 -7q-121 29 -166 204q-23 90 -27 287zM76 262q0 6 64 70t138 158q73 95 138 258q23 53 49 53q53 0 53 -62 q0 -117 -313 -446q215 -39 321 -88q182 -90 183 -250q-1 -16 -15 -61t-35 -52l-17 4q1 0 1 -2q-16 10 -16 25l18 65q0 143 -188 216q-129 49 -264 49q-12 0 -35 -2h-37q-45 0 -45 65z" />
<glyph unicode="l" horiz-adv-x="370" d="M4 336q0 266 32 555t77 289q53 0 53 -60q0 -6 -6 -35l-13 -73q-6 -33 -26 -166q-29 -252 -29 -553q0 -375 131 -375q25 0 37 19h23l18 -19v2q4 -4 4 -22q-35 -43 -88 -43q-78 0 -137 90q-76 125 -76 391z" />
<glyph unicode="m" horiz-adv-x="1275" d="M-76 29q0 388 32 508t64 120q23 0 41 -16t15 -31q-59 -217 -62 -448q111 199 154 264q124 192 193 192h1q82 0 82 -193v-9q-4 -23 -6 -97q-6 -70 -6 -129t17 -102q37 12 115 118t138 206q136 233 198 233t77 -117q10 -123 16 -223q18 -272 97 -276q28 1 52 31t38 30 q28 0 28 -36t-46 -62t-75 -27q-88 0 -143 129q-45 96 -45 180v15l2 86q1 32 1 58q0 122 -23 122q-3 0 -49 -73q-46 -74 -94 -148t-66 -102t-23 -33q-137 -193 -219 -193q-76 0 -86 170v15q0 59 10 284q4 55 -10 55q-35 0 -175 -256t-149 -348q-2 -37 -47 -37q-20 0 -37 66 q-10 55 -10 74z" />
<glyph unicode="n" horiz-adv-x="788" d="M-49 -45q0 6 34 227t42 350q10 84 61 84q31 0 38 -15t11 -31t6 -21l-61 -305l18 30q219 373 312 373q88 0 116 -129q6 -63 18 -185t21 -190q20 -143 68 -143q18 0 53 35l39 -12q2 -37 -35 -66q-29 -18 -51 -18q-147 0 -182 331q-26 301 -51 301q-35 0 -170 -214 t-195 -400q-14 -49 -49 -49q-43 0 -43 40v7z" />
<glyph unicode="o" horiz-adv-x="638" d="M-16 115q0 162 76 343t141 181q20 0 33 -5q4 34 70 66q64 31 93 31h2q172 0 172 -260q0 -122 -110 -321q-133 -238 -285 -250q-12 -1 -23 -1q-73 0 -118 56q-51 65 -51 160zM63 145q0 -174 80 -174q121 0 238 222q100 188 100 305q0 168 -82 168q-63 0 -135 -68l-5 2 q1 -6 1 -14t-35 -56q-162 -211 -162 -385z" />
<glyph unicode="p" horiz-adv-x="759" d="M-10 -106q0 154 51 688q14 149 85 149h1q47 0 47 -49q0 -8 -2 -12l-49 -256q209 305 416 305q137 0 137 -195q0 -164 -147 -362q-146 -197 -282 -197h-1q-102 0 -103 105q0 35 21 84h43l-6 -86q0 -25 28 -25q129 0 250 207q107 180 107 290t-56 111q-111 0 -253 -175 t-162 -279q-37 -174 -41 -430v-25q0 -317 100 -317q6 0 64 22v-39q0 -20 -31 -34t-41 -11q-88 10 -133 125q-39 92 -41 213q-2 39 -2 193z" />
<glyph unicode="q" horiz-adv-x="833" d="M-70 61q0 152 244 444t358 292q96 0 97 -129q0 -94 -56 -95q-45 0 -45 52v12q25 75 25 78q0 12 -12 12q-45 0 -226 -190q-75 -83 -189 -251t-114 -251q0 -10 15 -10q78 0 270 178t217 256q12 49 22 79t52 31q57 0 57 -61h-4q4 -2 2 -6l-6 -21q-141 -521 -141 -801 q0 -70 18 -124q29 -90 90 -91q51 0 76 52q29 49 39 49q33 0 33 -44t-50 -82t-98 -38q-109 0 -162 115q-36 80 -36 177v5q0 186 88 606l2 6q-286 -368 -442 -368h-1h-20q-47 0 -75 41t-28 77z" />
<glyph unicode="r" horiz-adv-x="538" d="M-12 -10q18 207 18 345t-18 320q-2 20 17 42t47 22t42 -33q10 -29 8 -47q-12 -93 -12 -161v-19q127 323 271 323h1q98 0 113 -88q2 -10 2 -18q0 -35 -37 -35q-14 0 -20 12q-8 26 -10 37q-2 20 -27 21q-53 0 -137 -118q-84 -117 -121 -223q-35 -101 -35 -234v-15 q0 -2 6 -166q0 -21 -19 -37t-40 -16q-50 0 -50 68q0 9 1 20z" />
<glyph unicode="s" horiz-adv-x="565" d="M-45 354q0 102 158 257t270 155q29 0 78 -26t49 -66t-37 -39q-6 0 -39 17t-53 22h-7q-67 0 -189 -104q-128 -110 -128 -187q0 -43 150 -43q289 0 289 -160q0 -115 -121 -201q-120 -85 -237 -85h-3q-53 0 -94 32q-51 33 -51 92q0 27 22 60t39 33q18 0 23 -2 q-4 -37 -12 -53t-7 -27q0 -45 56 -45q85 0 201 58t116 126q0 42 -38 66t-81 28l-196 6q-53 4 -105 25t-53 61z" />
<glyph unicode="t" horiz-adv-x="577" d="M162 541l20 4q4 27 12 99t11 108q16 139 69 139q46 0 48 -57l-43 -254q51 10 97 10t91 -24t45 -64q0 -10 -2 -15l-2 -2l-4 -8q-6 -2 -8 -3t0 -3h-2q-4 -2 -12 -2t-19 10q-20 49 -69 49t-124 -45v-16q-10 -67 -10 -163q0 -41 2 -87q8 -270 123 -270q31 0 57 33t37 32 q33 0 33 -30q0 -35 -59 -70q-51 -27 -76 -27q-92 0 -148 101q-60 108 -60 304q0 76 9 165q-55 -20 -100 -54t-58 -34q-26 0 -26 53q0 41 168 121z" />
<glyph unicode="u" horiz-adv-x="804" d="M-33 96q0 59 63 315t109 261q25 0 44 -14t19 -26q0 -13 -5 -30l-19 -47q-131 -348 -131 -492q0 -86 31 -86h1q39 0 117 99q78 100 166 270t89 264q2 33 21 61t44 27q51 0 51 -51q0 -8 -17 -103t-18 -171q0 -322 99 -322q25 1 45 21t43 34q23 -23 22 -32q0 -39 -46 -64 q-44 -24 -68 -24h-2q-158 0 -187 348l-2 18q-104 -223 -141 -280q-111 -168 -232 -168q-96 0 -96 192z" />
<glyph unicode="v" horiz-adv-x="675" d="M-64 601q-2 21 21 38q16 10 33 10q41 0 133 -221q6 -12 75 -192t69 -189l36 90q109 274 141 340q119 229 232 230q45 0 45 -39q0 -18 -27 -25q-6 -2 -16 2h-2h-2q-59 0 -185 -258q-27 -59 -75 -178t-76 -178q-55 -129 -84 -129t-70 114q-12 43 -82 244q-63 144 -114 232 q-50 88 -52 109z" />
<glyph unicode="w" horiz-adv-x="1046" d="M-17 161q5 87 23 288q23 163 75 163h1q47 0 47 -59q0 -10 -2 -18q-66 -303 -66 -431q-2 -32 -2 -56q0 -68 17 -68q59 0 160 210q63 131 112 271q31 104 35 123q23 71 52 71h1q12 0 33 -10q29 -16 25 -41q-1 -13 -1 -28q0 -89 52 -242q74 -221 184 -221h1q55 0 108 149 q53 147 53 288v5q0 25 -4 61q-14 135 -74 136q-33 -13 -43 -13q-45 -1 -45 17t36 38q34 19 63 19h3q80 0 123 -123q33 -86 33 -189t-70 -263q-86 -205 -188 -205t-197 160q-63 111 -110 256q-45 -117 -125 -302q-119 -260 -207 -260q-63 0 -90 113q-14 58 -14 124q0 18 1 37 z" />
<glyph unicode="x" horiz-adv-x="862" d="M-31 -41q0 97 115 271q116 176 124 178q-39 48 -137 168t-98 167q1 15 13 31t24 17q31 0 141 -152t117 -152q2 0 146 199q143 199 180 199q18 0 35 -23q10 -20 10 -38t-158 -195q-157 -178 -157 -203t138 -155t165 -138q6 0 30 -12q23 -6 43 -6t56 32q39 7 39 -23v-1 q0 -29 -53 -53q-54 -24 -70 -25q-133 0 -398 305q-61 -63 -143 -211t-82 -217q0 -18 17 -63l-39 -15q-17 14 -37 54q-21 42 -21 61z" />
<glyph unicode="y" horiz-adv-x="712" d="M-227 -334q0 43 34 43q19 -1 27 -23t16 -55q31 -84 99 -141t151 -63q14 -1 28 -1q199 0 316 240q102 211 103 465q0 174 -49 432q-94 -238 -146 -332q-137 -262 -264 -262h-1q-97 0 -97 145q0 146 74 405t133 265q20 2 43 -15q22 -17 22 -29t-2 -13q-59 -92 -123 -264 q-63 -169 -63 -329q0 -93 26 -93h1q32 0 89 89q58 90 82 136q174 280 174 438q0 17 -2 33q-1 8 -1 16q0 54 53 54q55 0 65 -102l2 -15q25 -227 49 -268q24 -42 24 -284t-101 -476q-138 -319 -392 -319q-150 0 -260 117t-110 206z" />
<glyph unicode="z" horiz-adv-x="823" d="M-55 -10q0 102 454 432q198 145 219 164q-17 1 -35 1q-96 0 -243 -26q-176 -31 -208 -41t-42 -10q-61 0 -61 49q0 25 41 47q37 16 51 17q63 0 442 36q139 0 139 -71q0 -33 -90 -111q-92 -74 -156 -120q-63 -46 -263 -197q-147 -117 -160 -162q16 0 30 -2q369 100 452 100 t144 -26q92 -41 93 -113q0 -6 -17 -39q-16 0 -32 11q-15 11 -15 24q0 70 -133 70q-98 0 -446 -115q-72 -23 -80 -23q-46 1 -46 47q0 5 1 11v4q-39 20 -39 43z" />
<glyph unicode="{" horiz-adv-x="606" d="M96 303q0 173 33 315t120 300t204 235q10 6 18 6q27 0 39 -33q14 -31 -4 -53q-324 -377 -324 -803q0 -332 205 -393q14 -20 14 -41q0 -49 -61 -33q-129 31 -195 197q-49 131 -49 303z" />
<glyph unicode="|" horiz-adv-x="454" d="M154 -29v1565h147v-1565h-147z" />
<glyph unicode="}" horiz-adv-x="536" d="M18 -186q0 12 9 20q229 266 307 604q29 125 28 250q0 332 -204 393q-14 20 -15 41q0 49 62 33q129 -27 194 -197q49 -134 49 -304t-32 -312q-33 -142 -120 -301q-87 -158 -204 -236q-20 -14 -47 -14t-27 23z" />
<glyph unicode="~" horiz-adv-x="1228" d="M143 489q-1 9 53 65t76 71q68 61 157 61t209 -66t183 -49q29 8 88 44t85 36t40 -20t-6 -41q-127 -129 -260 -129q-50 0 -78 12t-112 52t-147 40q-62 0 -132 -43q-39 -32 -65 -50t-50 -17q-41 0 -41 34z" />
<glyph unicode="&#xa1;" horiz-adv-x="684" />
<glyph unicode="&#xa2;" horiz-adv-x="815" d="M92 99q0 103 96 291t224 269q18 82 51 166q11 23 35 23t38 -14t9 -33q-20 -49 -35 -99q30 4 54 4t88 -28q64 -29 69 -76q2 -18 -16 -35q-16 -10 -35 -10t-54 37q-36 37 -68 37t-61 -15q-80 -319 -88 -649q156 57 263 226q10 10 20 10q10 -1 21 -17t8 -26 q-9 -35 -113 -136t-121 -108q-18 -12 -78 -43q0 -102 13 -174q6 -37 -22 -37t-34 35q-10 82 -16 164l-43 -6q-105 0 -155 70t-50 174zM174 78q0 -131 109 -131q18 0 55 4q-4 299 49 586q-85 -93 -149 -243t-64 -216z" />
<glyph unicode="&#xa3;" />
<glyph unicode="&#xa4;" />
<glyph unicode="&#xa5;" />
<glyph unicode="&#xa6;" horiz-adv-x="454" />
<glyph unicode="&#xa7;" />
<glyph unicode="&#xa8;" horiz-adv-x="454" />
<glyph unicode="&#xa9;" horiz-adv-x="1638" />
<glyph unicode="&#xaa;" horiz-adv-x="665" />
<glyph unicode="&#xab;" d="M205 539l336 399l77 -57l-241 -342l223 -332l-80 -47zM553 539l336 399l78 -57l-242 -342l223 -332l-80 -47z" />
<glyph unicode="&#xac;" horiz-adv-x="1228" />
<glyph unicode="&#xae;" horiz-adv-x="1638" />
<glyph unicode="&#xaf;" horiz-adv-x="454" d="M-53 1237v123h561v-123h-561z" />
<glyph unicode="&#xb0;" horiz-adv-x="819" d="M117 1124q0 123 85 208t208 85q124 0 208 -85t84 -208t-85 -208t-207 -85t-208 85q-85 85 -85 208zM227 1124q-1 -76 53 -129t130 -53t129 53t53 129t-53 129t-129 53t-130 -52q-54 -54 -53 -130z" />
<glyph unicode="&#xb1;" horiz-adv-x="1228" />
<glyph unicode="&#xb2;" horiz-adv-x="739" />
<glyph unicode="&#xb3;" horiz-adv-x="739" />
<glyph unicode="&#xb4;" horiz-adv-x="440" d="M74 930q0 23 32 35t67 69q34 57 44 125q7 33 59 33t52 -39q-4 -55 -70 -135t-139 -109q-45 -14 -45 21z" />
<glyph unicode="&#xb5;" />
<glyph unicode="&#xb6;" horiz-adv-x="1228" />
<glyph unicode="&#xb7;" horiz-adv-x="569" d="M156 598q0 53 38 91t91 38t91 -38t38 -91t-38 -91t-91 -38t-91 38t-38 91z" />
<glyph unicode="&#xb8;" horiz-adv-x="454" />
<glyph unicode="&#xb9;" horiz-adv-x="739" d="M94 1186l299 231h121l-12 -850h-135l12 717l-217 -176z" />
<glyph unicode="&#xba;" horiz-adv-x="741" d="M47 1087q0 143 87 237q86 94 234 93q148 0 237 -86t89 -229q0 -142 -87 -236t-234 -94t-237 86q-89 86 -89 229zM182 1094q0 -98 49 -160t133 -64q84 0 140 64q55 64 55 162t-49 160t-133 62q-83 0 -139 -62q-56 -64 -56 -162z" />
<glyph unicode="&#xbb;" d="M172 217l242 342l-224 332l80 47l316 -379l-336 -399zM520 217l242 342l-223 332l79 47l316 -379l-336 -399z" />
<glyph unicode="&#xbc;" horiz-adv-x="1708" />
<glyph unicode="&#xbd;" horiz-adv-x="1708" />
<glyph unicode="&#xbe;" horiz-adv-x="1708" />
<glyph unicode="&#xbf;" horiz-adv-x="876" d="M-131 -610q0 109 154 241q94 72 264 200t170 189q0 37 -31 39q-55 10 -55 33q0 41 48 41t81 -36t32 -85q0 -84 -151 -211q-213 -166 -281 -217q-152 -127 -151 -198q0 -137 209 -138q182 0 452 189q108 76 115 76q45 1 45 -51t-158 -142t-254 -117q-94 -27 -204 -26 q-285 0 -285 213zM375 354q0 16 25 34q26 17 46 18q63 0 64 -48q0 -57 -68 -57t-67 53z" />
<glyph unicode="&#xc0;" horiz-adv-x="1366" d="M-78 -172q0 27 162 342q49 104 57 123q-57 -23 -83 -42t-54 -20q-51 0 -51 52q0 37 95 69t138 47q24 47 80 172t162 340q123 240 240 240q55 0 94 -70q27 -45 39 -96q31 -150 51 -467q201 -18 201 -141q0 -43 -35 -62q-47 -23 -47 29q0 2 10 33q0 55 -133 55q12 0 16 -22 q68 -465 146 -465q14 0 30 10q31 25 45 25q37 4 37 -43q0 -29 -42 -47t-68 -17q-186 2 -244 557q-12 2 -76 2t-248 -42t-190 -54q-23 -57 -79 -188t-114 -281q-41 -98 -86 -98q-53 0 -53 59zM309 440q246 70 453 86q-6 101 -31 320q-35 221 -86 221q-76 0 -336 -627z M530 1489q0 39 52 39t59 -33q10 -68 44 -125t71 -72q29 -10 28 -32q0 -35 -45 -21q-74 29 -141 109q-66 80 -68 135z" />
<glyph unicode="&#xc1;" horiz-adv-x="1366" d="M-78 -172q0 27 162 342q49 104 57 123q-57 -23 -85 -42t-52 -20q-51 0 -51 52q0 37 95 69t138 47q24 47 80 172t162 340q123 240 240 240q55 0 94 -70q27 -45 39 -96q31 -150 51 -467q201 -18 201 -141q0 -43 -35 -62q-47 -23 -47 29q0 2 10 33q0 55 -133 55q12 0 16 -22 q68 -465 146 -465q14 0 30 10q31 25 45 25q37 4 37 -43q0 -29 -42 -47t-68 -17q-186 2 -244 557q-12 2 -74 2t-248 -42t-192 -54q-23 -57 -79 -188t-114 -281q-41 -98 -86 -98q-53 0 -53 59zM309 440q246 70 453 86q-6 101 -31 320q-35 221 -86 221q-76 0 -336 -627z M530 1266q0 23 29 32q37 14 71 72t44 125q6 33 58 33t52 -39q-2 -55 -68 -135t-141 -109q-45 -14 -45 21z" />
<glyph unicode="&#xc2;" horiz-adv-x="1366" d="M-78 -172q0 27 162 342q49 104 57 123q-57 -23 -85 -42t-52 -20q-51 0 -51 52q0 37 95 69t138 47q24 47 80 172t162 340q123 240 240 240q55 0 94 -70q27 -45 39 -96q31 -150 51 -467q201 -18 201 -141q0 -43 -35 -62q-47 -23 -47 29q0 2 10 33q0 55 -133 55q12 0 16 -22 q68 -465 146 -465q14 0 30 10q31 25 45 25q37 4 37 -43q0 -29 -42 -47t-68 -17q-186 2 -244 557q-12 2 -74 2t-248 -42t-192 -54q-23 -57 -79 -188t-114 -281q-41 -98 -86 -98q-53 0 -53 59zM309 440q246 70 453 86q-6 101 -31 320q-35 221 -86 221q-76 0 -336 -627z M451 1532q0 6 28 47q31 41 54 65t67 25q42 0 104 -46t93 -34q10 2 43 29t46 27t19 -15q8 -12 -2 -28q-66 -90 -133 -91q-26 1 -49 15q-98 59 -134 59t-83 -59q-20 -18 -33 -19q-20 0 -20 25z" />
<glyph unicode="&#xc3;" horiz-adv-x="1366" d="M-78 -172q0 27 162 342q49 104 57 123q-57 -23 -85 -42t-52 -20q-51 0 -51 52q0 37 95 69t138 47q24 47 80 172t162 340q123 240 240 240q55 0 94 -70q27 -45 39 -96q31 -150 51 -467q201 -18 201 -141q0 -43 -35 -62q-47 -23 -47 29q0 2 10 33q0 55 -133 55q12 0 16 -22 q68 -465 146 -465q14 0 30 10q31 25 45 25q37 4 37 -43q0 -29 -42 -47t-68 -17q-186 2 -244 557q-12 2 -74 2t-248 -42t-192 -54q-23 -57 -79 -188t-114 -281q-41 -98 -86 -98q-53 0 -53 59zM309 440q246 70 453 86q-6 101 -31 320q-35 221 -86 221q-76 0 -336 -627z M334 1516q10 94 62 155t125 61t173 -36q100 -37 129 -37q97 0 105 94h106q-12 -93 -67 -155t-130 -62t-173 37t-138 37t-64 -28t-30 -66h-98z" />
<glyph unicode="&#xc4;" horiz-adv-x="1366" d="M-78 -172q0 27 162 342q49 104 57 123q-57 -23 -85 -42t-52 -20q-51 0 -51 52q0 37 95 69t138 47q24 47 80 172t162 340q123 240 240 240q55 0 94 -70q27 -45 39 -96q31 -150 51 -467q201 -18 201 -141q0 -43 -35 -62q-47 -23 -47 29q0 2 10 33q0 55 -133 55q12 0 16 -22 q68 -465 146 -465q14 0 30 10q31 25 45 25q37 4 37 -43q0 -29 -42 -47t-68 -17q-186 2 -244 557q-12 2 -74 2t-248 -42t-192 -54q-23 -57 -79 -188t-114 -281q-41 -98 -86 -98q-53 0 -53 59zM309 440q246 70 453 86q-6 101 -31 320q-35 221 -86 221q-76 0 -336 -627z" />
<glyph unicode="&#xc5;" horiz-adv-x="1366" d="M-78 -172q0 27 162 342q49 104 57 123q-57 -23 -85 -42t-52 -20q-51 0 -51 52q0 37 95 69t138 47q24 47 80 172t162 340q123 240 240 240q55 0 94 -70q27 -45 39 -96q31 -150 51 -467q201 -18 201 -141q0 -43 -35 -62q-47 -23 -47 29q0 2 10 33q0 55 -133 55q12 0 16 -22 q68 -465 146 -465q14 0 30 10q31 25 45 25q37 4 37 -43q0 -29 -42 -47t-68 -17q-186 2 -244 557q-12 2 -74 2t-248 -42t-192 -54q-23 -57 -79 -188t-114 -281q-41 -98 -86 -98q-53 0 -53 59zM309 440q246 70 453 86q-6 101 -31 320q-35 221 -86 221q-76 0 -336 -627z M475 1710q-1 86 61 148t148 61q86 0 147 -61q61 -62 61 -148t-60 -147q-62 -61 -148 -61t-148 60q-62 62 -61 148zM561 1710q0 -51 36 -87t87 -36t87 36t36 87t-36 87t-87 36t-87 -36t-36 -87z" />
<glyph unicode="&#xc6;" horiz-adv-x="1820" />
<glyph unicode="&#xc7;" horiz-adv-x="1366" />
<glyph unicode="&#xc8;" horiz-adv-x="1024" d="M-96 852q0 44 179 122t327 126q39 12 136 26q96 14 144 15q48 0 98 -32t50 -77t-22 -78q-22 -34 -36 -34q-30 -1 -30 36q2 8 2 35t-22 37t-85 10q-145 0 -390 -79q27 -14 28 -60l-25 -111q-22 -104 -47 -266q19 2 113 35t143 33q156 0 176 -74l-8 -47q-41 -3 -59 21 t-67 24q-50 0 -173 -30t-129 -54q-19 -66 0 -317q4 -78 14 -109q23 -53 89 -53t220 40t228 40t134 -46t60 -124l-45 -25q-49 109 -176 109q-74 0 -218 -37t-220 -37q-187 0 -185 213q0 80 6 170q5 90 7 129q-51 -31 -70 -31q-45 0 -45 60q0 35 117 86q4 52 28 291 q10 99 40 148q-7 -3 -15 -5t-106 -69t-111 -66q-55 0 -55 55zM358 1489q0 39 52 39t59 -33q10 -68 44 -125t71 -72q29 -10 28 -32q0 -35 -45 -21q-74 29 -141 109q-66 80 -68 135z" />
<glyph unicode="&#xc9;" horiz-adv-x="1024" d="M-96 852q0 44 179 122t327 126q39 12 136 26q96 14 144 15q48 0 98 -32t50 -77t-22 -78q-22 -34 -36 -34q-30 -1 -30 36q2 8 2 35t-22 37t-85 10q-145 0 -390 -79q27 -14 28 -60l-25 -111q-22 -104 -47 -266q19 2 113 35t143 33q156 0 176 -74l-8 -47q-41 -3 -59 21 t-67 24q-50 0 -173 -30t-129 -54q-19 -66 0 -317q4 -78 14 -109q23 -53 89 -53t220 40t228 40t134 -46t60 -124l-45 -25q-49 109 -176 109q-74 0 -218 -37t-220 -37q-187 0 -185 213q0 80 6 170q5 90 7 129q-51 -31 -70 -31q-45 0 -45 60q0 35 117 86q4 52 28 291 q10 99 40 148q-7 -3 -15 -5t-106 -69t-111 -66q-55 0 -55 55zM358 1266q0 23 29 32q37 14 71 72t44 125q6 33 58 33t52 -39q-2 -55 -68 -135t-141 -109q-45 -14 -45 21z" />
<glyph unicode="&#xca;" horiz-adv-x="1024" d="M-96 852q0 44 179 122t327 126q39 12 136 26q96 14 144 15q48 0 98 -32t50 -77t-22 -78q-22 -34 -36 -34q-30 -1 -30 36q2 8 2 35t-22 37t-85 10q-145 0 -390 -79q27 -14 28 -60l-25 -111q-22 -104 -47 -266q19 2 113 35t143 33q156 0 176 -74l-8 -47q-41 -3 -59 21 t-67 24q-50 0 -173 -30t-129 -54q-19 -66 0 -317q4 -78 14 -109q23 -53 89 -53t220 40t228 40t134 -46t60 -124l-45 -25q-49 109 -176 109q-74 0 -218 -37t-220 -37q-187 0 -185 213q0 80 6 170q5 90 7 129q-51 -31 -70 -31q-45 0 -45 60q0 35 117 86q4 52 28 291 q10 99 40 148q-7 -3 -15 -5t-106 -69t-111 -66q-55 0 -55 55zM279 1532q0 6 28 47q31 41 54 65t67 25q42 0 104 -46t93 -34q10 2 43 29t46 27t19 -15q8 -12 -2 -28q-66 -90 -133 -91q-26 1 -49 15q-98 59 -134 59t-83 -59q-20 -18 -33 -19q-20 0 -20 25z" />
<glyph unicode="&#xcb;" horiz-adv-x="1024" d="M-96 852q0 44 179 122t327 126q39 12 136 26q96 14 144 15q48 0 98 -32t50 -77t-22 -78q-22 -34 -36 -34q-30 -1 -30 36q2 8 2 35t-22 37t-85 10q-145 0 -390 -79q27 -14 28 -60l-25 -111q-22 -104 -47 -266q19 2 113 35t143 33q156 0 176 -74l-8 -47q-41 -3 -59 21 t-67 24q-50 0 -173 -30t-129 -54q-19 -66 0 -317q4 -78 14 -109q23 -53 89 -53t220 40t228 40t134 -46t60 -124l-45 -25q-49 109 -176 109q-74 0 -218 -37t-220 -37q-187 0 -185 213q0 80 6 170q5 90 7 129q-51 -31 -70 -31q-45 0 -45 60q0 35 117 86q4 52 28 291 q10 99 40 148q-7 -3 -15 -5t-106 -69t-111 -66q-55 0 -55 55z" />
<glyph unicode="&#xcc;" horiz-adv-x="569" d="M55 1040q-1 60 233 126t316 66t162 -26q106 -33 106 -88t-26 -55q-31 0 -47 47t-156 47q-68 0 -137 -12q18 -17 12 -60q-78 -495 -78 -633q0 -406 95 -407l77 4q84 0 162 -24q106 -33 107 -101q-1 -27 -17 -37q-12 -4 -45 -4q-14 88 -187 88t-417 -106q-55 -23 -61 -23 q-54 0 -54 58t332 125q-82 106 -82 430q0 225 33 446q2 41 20 193q2 12 16 31q-33 -9 -133 -45t-142 -62q-42 -25 -48 -25q-41 0 -41 47zM131 1489q0 39 52 39t59 -33q10 -68 44 -125t70 -72q29 -10 29 -32q0 -35 -45 -21q-74 29 -141 109q-63 80 -68 135z" />
<glyph unicode="&#xcd;" horiz-adv-x="569" d="M55 1040q-1 60 233 126t316 66t162 -26q106 -33 106 -88t-26 -55q-31 0 -47 47t-156 47q-68 0 -137 -12q18 -17 12 -60q-78 -495 -78 -633q0 -406 95 -407l77 4q84 0 162 -24q106 -33 107 -101q-1 -27 -17 -37q-12 -4 -45 -4q-14 88 -187 88t-417 -106q-55 -23 -61 -23 q-54 0 -54 58t332 125q-82 106 -82 430q0 225 33 446q2 41 20 193q2 12 16 31q-33 -9 -133 -45t-142 -62q-42 -25 -48 -25q-41 0 -41 47zM131 1266q0 23 29 32q36 14 70 72t44 125q6 33 58 33t53 -39q-3 -55 -69 -135t-140 -109q-45 -14 -45 21z" />
<glyph unicode="&#xce;" horiz-adv-x="569" d="M51 1532q0 6 29 47q31 41 54 65t66 25q42 0 104 -46t93 -34q10 2 43 29t46 27q12 1 20 -13t-2 -30q-66 -90 -133 -91q-26 1 -49 15q-98 59 -131 59t-87 -59q-23 -18 -32 -19q-20 0 -21 25zM55 1040q-1 60 233 126t316 66t162 -26q106 -33 106 -88t-26 -55q-31 0 -47 47 t-156 47q-68 0 -137 -12q18 -17 12 -60q-78 -495 -78 -633q0 -406 95 -407l77 4q84 0 162 -24q106 -33 107 -101q-1 -27 -17 -37q-12 -4 -45 -4q-14 88 -187 88t-417 -106q-55 -23 -61 -23q-54 0 -54 58t332 125q-82 106 -82 430q0 225 33 446q2 41 20 193q2 12 16 31 q-33 -9 -133 -45t-142 -62q-42 -25 -48 -25q-41 0 -41 47z" />
<glyph unicode="&#xcf;" horiz-adv-x="569" d="M55 1040q-1 60 233 126t316 66t162 -26q106 -33 106 -88t-26 -55q-31 0 -47 47t-156 47q-68 0 -137 -12q18 -17 12 -60q-78 -495 -78 -633q0 -406 95 -407l77 4q84 0 162 -24q106 -33 107 -101q-1 -27 -17 -37q-12 -4 -45 -4q-14 88 -187 88t-417 -106q-55 -23 -61 -23 q-54 0 -54 58t332 125q-82 106 -82 430q0 225 33 446q2 41 20 193q2 12 16 31q-33 -9 -133 -45t-142 -62q-42 -25 -48 -25q-41 0 -41 47z" />
<glyph unicode="&#xd0;" horiz-adv-x="1478" />
<glyph unicode="&#xd1;" horiz-adv-x="1478" d="M-106 764q0 56 135 160t190 104q121 0 117 -166l-4 -407q37 119 110 329q135 354 271 355q94 0 127 -144q8 -33 24 -213q4 -102 35 -430q43 -338 109 -338q10 0 32 18t43 23l35 -16q-4 -45 -44 -76t-68 -31q-109 0 -162 195q-31 119 -46 349t-38 429q-27 160 -74 160 q-37 0 -143 -279q-121 -303 -154 -417q-72 -246 -72 -439q4 -78 -57 -77q-57 0 -57 67q0 68 13 194t13 197l17 430q0 203 -45 203q-53 0 -207 -184q-35 -45 -43 -48t-19 -3q-10 0 -24 19t-14 36zM389 1516q11 94 63 155t125 61t173 -36q100 -37 129 -37q96 0 104 94h107 q-12 -93 -68 -155t-130 -62t-172 37t-138 37q-39 0 -64 -28t-31 -66h-98z" />
<glyph unicode="&#xd2;" horiz-adv-x="1708" d="M94 328q0 121 41 256q41 115 62 170q-10 203 132 346t324 129q164 -8 273 -193q92 -156 92 -321q0 -295 -137 -545q-169 -307 -445 -307q-188 0 -274 155q-68 121 -68 310zM186 320q0 -138 54 -246q63 -129 182 -129q238 0 379 268q117 225 117 494q0 147 -72 280 q-86 150 -215 161q-129 10 -234 -92t-117 -214q4 24 36 62t56 38t40 -16t16 -41t-69 -104t-69 -87t22 -26t30 -19l49 6q23 0 23 -20q0 -53 -60 -53t-100 34q-68 -158 -68 -296zM700 1489q0 39 52 39t59 -33q10 -68 44 -125t71 -72q29 -10 28 -32q0 -35 -45 -21 q-74 29 -141 109q-63 80 -68 135z" />
<glyph unicode="&#xd3;" horiz-adv-x="1708" d="M94 328q0 121 41 256q41 115 62 170q-10 203 132 346t324 129q164 -8 273 -193q92 -156 92 -321q0 -295 -137 -545q-169 -307 -445 -307q-188 0 -274 155q-68 121 -68 310zM186 320q0 -138 54 -246q63 -129 182 -129q238 0 379 268q117 225 117 494q0 147 -72 280 q-86 150 -215 161q-129 10 -234 -92t-117 -214q4 24 36 62t56 38t40 -16t16 -41t-69 -104t-69 -87t22 -26t30 -19l49 6q23 0 23 -20q0 -53 -60 -53t-100 34q-68 -158 -68 -296zM700 1266q0 23 29 32q37 14 71 72t44 125q6 33 58 33t52 -39q-4 -55 -67 -135 q-68 -80 -142 -109q-45 -14 -45 21z" />
<glyph unicode="&#xd4;" horiz-adv-x="1708" d="M94 328q0 121 41 256q41 115 62 170q-10 203 132 346t324 129q164 -8 273 -193q92 -156 92 -321q0 -295 -137 -545q-169 -307 -445 -307q-188 0 -274 155q-68 121 -68 310zM186 320q0 -138 54 -246q63 -129 182 -129q238 0 379 268q117 225 117 494q0 147 -72 280 q-86 150 -215 161q-129 10 -234 -92t-117 -214q4 24 36 62t56 38t40 -16t16 -41t-69 -104t-69 -87t22 -26t30 -19l49 6q23 0 23 -20q0 -53 -60 -53t-100 34q-68 -158 -68 -296zM621 1532q0 6 28 47q31 41 54 65t66 25q43 0 105 -46t93 -34q10 2 43 29t46 27t19 -15 q8 -12 -2 -28q-66 -90 -133 -91q-26 1 -49 15q-98 59 -134 59t-83 -59q-23 -18 -33 -19q-20 0 -20 25z" />
<glyph unicode="&#xd5;" horiz-adv-x="1708" d="M94 328q0 121 41 256q41 115 62 170q-10 203 132 346t324 129q164 -8 273 -193q92 -156 92 -321q0 -295 -137 -545q-169 -307 -445 -307q-188 0 -274 155q-68 121 -68 310zM186 320q0 -138 54 -246q63 -129 182 -129q238 0 379 268q117 225 117 494q0 147 -72 280 q-86 150 -215 161q-129 10 -234 -92t-117 -214q4 24 36 62t56 38t40 -16t16 -41t-69 -104t-69 -87t22 -26t30 -19l49 6q23 0 23 -20q0 -53 -60 -53t-100 34q-68 -158 -68 -296zM504 1516q10 94 62 155t125 61t173 -36q100 -37 129 -37q97 0 105 94h106q-12 -93 -67 -155 t-130 -62t-173 37t-138 37t-64 -28t-30 -66h-98z" />
<glyph unicode="&#xd6;" horiz-adv-x="1708" d="M94 328q0 121 41 256q41 115 62 170q-10 203 132 346t324 129q164 -8 273 -193q92 -156 92 -321q0 -295 -137 -545q-169 -307 -445 -307q-188 0 -274 155q-68 121 -68 310zM186 320q0 -138 54 -246q63 -129 182 -129q238 0 379 268q117 225 117 494q0 147 -72 280 q-86 150 -215 161q-129 10 -234 -92t-117 -214q4 24 36 62t56 38t40 -16t16 -41t-69 -104t-69 -87t22 -26t30 -19l49 6q23 0 23 -20q0 -53 -60 -53t-100 34q-68 -158 -68 -296z" />
<glyph unicode="&#xd7;" horiz-adv-x="997" d="M164 -124q12 30 69 56q111 45 205 134q-197 209 -264 344q-33 70 5 102t75 -12q8 -10 14 -23q113 -223 230 -348q104 115 219 338q35 63 82 40t12 -108q-60 -126 -252 -331q84 -78 193 -125q57 -25 69 -56q13 -31 -19 -39t-87 13q-113 51 -217 145q-109 -102 -228 -156 q-55 -20 -87 -12q-31 8 -19 38z" />
<glyph unicode="&#xd8;" horiz-adv-x="1708" />
<glyph unicode="&#xd9;" horiz-adv-x="1478" d="M66 907q4 47 92 121t147 102q43 25 88 25t69 -46t25 -93q0 -130 -119 -490t-118 -530q0 -88 18 -88q160 0 459 631q51 111 94 272q14 37 31 117q4 80 10 135q18 92 72 92t53 -61q0 -34 -29 -150q-16 -84 -24 -156t-8 -303l18 -292q14 -221 92 -222q33 0 49 54q8 25 27 24 q33 0 33 -45t-32 -75t-73 -29q-127 0 -178 241q-31 141 -31 334q1 22 5 100q-80 -236 -236 -464q-186 -279 -326 -279q-66 0 -98 51q-27 39 -26 101q0 117 71 387q172 569 172 665q0 39 -26 39q-39 0 -121 -88q-4 -6 -70 -84q-41 -41 -59 -41q-31 0 -51 45zM586 1489 q0 39 52 39t58 -33q10 -68 44 -125t71 -72q29 -10 29 -32q0 -35 -45 -21q-74 29 -142 109q-63 80 -67 135z" />
<glyph unicode="&#xda;" horiz-adv-x="1478" d="M66 907q4 47 92 121t147 102q43 25 88 25t69 -46t25 -93q0 -130 -119 -490t-118 -530q0 -88 18 -88q160 0 459 631q51 111 94 272q14 37 31 117q4 80 10 135q18 92 72 92t53 -61q0 -34 -29 -150q-16 -84 -24 -156t-8 -303q6 -97 19 -305t91 -209q33 0 49 54q8 25 27 24 q33 0 33 -45t-32 -75t-73 -29q-127 0 -178 241q-31 141 -31 334q1 22 5 100q-80 -236 -236 -464q-186 -279 -326 -279q-66 0 -98 51q-27 39 -26 101q0 117 71 387q172 569 172 665q0 39 -26 39q-39 0 -121 -88q-4 -6 -70 -84q-41 -41 -59 -41q-31 0 -51 45zM586 1266 q0 22 32 34t67 70q34 58 44 125q7 33 59 33t52 -39q-4 -55 -70 -135t-139 -109q-45 -14 -45 21z" />
<glyph unicode="&#xdb;" horiz-adv-x="1478" d="M66 907q4 47 92 121t147 102q43 25 88 25t69 -46t25 -93q0 -130 -119 -490t-118 -530q0 -88 18 -88q160 0 459 631q51 111 94 272q14 37 31 117q4 80 10 135q18 92 72 92t53 -61q0 -34 -29 -150q-16 -84 -24 -156t-8 -303q6 -97 19 -305t91 -209q33 0 49 54q8 25 27 24 q33 0 33 -45t-32 -75t-73 -29q-127 0 -178 241q-31 141 -31 334q1 22 5 100q-80 -236 -236 -464q-186 -279 -326 -279q-66 0 -98 51q-27 39 -26 101q0 117 71 387q172 569 172 665q0 39 -26 39q-39 0 -121 -88q-4 -6 -70 -84q-41 -41 -59 -41q-31 0 -51 45zM506 1528 q0 20 65 98q40 43 82 43q43 0 105 -46t94 -34q10 2 43 29t46 27q13 1 21 -13t-4 -30q-66 -90 -133 -91q-26 1 -49 15q-98 59 -128 59q-30 -1 -55 -25t-34 -34q-23 -18 -33 -19q-20 1 -20 21z" />
<glyph unicode="&#xdc;" horiz-adv-x="1478" d="M66 907q4 47 92 121t147 102q43 25 88 25t69 -46t25 -93q0 -130 -119 -490t-118 -530q0 -88 18 -88q160 0 459 631q51 111 94 272q14 37 31 117q4 80 10 135q18 92 72 92t53 -61q0 -34 -29 -150q-16 -84 -24 -156t-8 -303q6 -97 19 -305t91 -209q33 0 49 54q8 25 27 24 q33 0 33 -45t-32 -75t-73 -29q-127 0 -178 241q-31 141 -31 334q1 22 5 100q-80 -236 -236 -464q-186 -279 -326 -279q-66 0 -98 51q-27 39 -26 101q0 117 71 387q172 569 172 665q0 39 -26 39q-39 0 -121 -88q-4 -6 -70 -84q-41 -41 -59 -41q-31 0 -51 45z" />
<glyph unicode="&#xdd;" horiz-adv-x="1251" d="M-86 962q0 50 162 168t227 117q115 0 115 -126t-80 -404q-31 -96 -125 -414q-37 -143 -37 -228t43 -85q72 0 256 315q319 547 332 836v55q-2 27 -2 53q0 59 51 60q57 1 94 -267t37 -356q0 -412 -37 -653q-57 -365 -217 -619q-168 -270 -450 -270q-109 0 -203 88 q-94 82 -135 205q-4 31 -2 37q4 36 26 22t49 -55q125 -205 258 -205q291 0 461 404q119 276 140 589q18 241 18 395t-37 355q-12 -39 -67 -225q-91 -290 -269 -564t-313 -274q-129 0 -129 168q0 109 79 375q79 265 119 413t40 218t-33 71q-37 0 -170 -125t-156 -125 q-45 1 -45 51zM473 1266q0 23 29 32q36 14 70 72t44 125q6 33 58 33t53 -39q-3 -55 -69 -135t-140 -109q-45 -14 -45 21z" />
<glyph unicode="&#xde;" />
<glyph unicode="&#xdf;" />
<glyph unicode="&#xe0;" horiz-adv-x="1024" d="M-43 -27q0 129 134 340t300 353t250 88q39 -25 39 -112t-66 -93q-45 -2 -45 33q1 6 13 32t10 55q-2 30 -6 29q-102 -18 -330 -313q-225 -297 -225 -405q0 -39 35 -39q88 0 278 229q137 166 145 178q55 76 66 148q6 47 49 47q63 0 51 -62q-51 -256 -51 -319 q0 -104 47 -117q16 -4 35 6q12 8 16 19q10 43 44 43t32 -27q0 -10 -6 -27q-31 -80 -115 -79q-27 0 -45 8q-98 33 -98 227q0 29 2 43q-94 -125 -223 -248q-156 -143 -248 -143q-29 -1 -59 21t-29 85zM358 1153q0 39 52 39t59 -33q10 -68 44 -125t67 -69t32 -35q0 -35 -45 -21 q-74 29 -141 109q-66 80 -68 135z" />
<glyph unicode="&#xe1;" horiz-adv-x="1024" d="M-43 -27q0 129 134 340t300 353t250 88q39 -25 39 -112t-66 -93q-45 -2 -45 33q1 6 13 32t10 55q-2 30 -6 29q-102 -18 -330 -313q-225 -297 -225 -405q0 -39 35 -39q88 0 278 229q137 166 145 178q55 76 66 148q6 47 49 47q63 0 51 -62q-51 -256 -51 -319 q0 -104 47 -117q16 -4 35 6q12 8 16 19q10 43 44 43t32 -27q0 -12 -6 -27q-31 -80 -115 -79q-27 0 -45 8q-98 33 -98 227q0 29 2 43q-94 -125 -223 -248q-156 -143 -248 -143q-29 -1 -59 21t-29 85zM358 930q0 23 33 35t67 69t44 125q6 33 58 33t52 -39q-2 -55 -68 -135 t-141 -109q-45 -14 -45 21z" />
<glyph unicode="&#xe2;" horiz-adv-x="1024" d="M-43 -27q0 129 134 340t300 353t250 88q39 -25 39 -112t-66 -93q-45 -2 -45 33q1 6 13 32t10 55q-2 30 -6 29q-102 -18 -330 -313q-225 -297 -225 -405q0 -39 35 -39q88 0 278 229q137 166 145 178q55 76 66 148q6 47 49 47q63 0 51 -62q-51 -256 -51 -319 q0 -104 47 -117q16 -4 35 6q12 8 16 19q10 43 44 43t32 -27q0 -12 -6 -27q-31 -80 -115 -79q-27 0 -45 8q-98 33 -98 227q0 29 2 43q-94 -125 -223 -248q-156 -143 -248 -143q-29 -1 -59 21t-29 85zM279 1196q0 6 28 47q31 41 54 65t67 25q42 0 104 -46t93 -34q10 2 43 29 t46 27t19 -15q8 -12 -2 -28q-66 -90 -133 -90q-26 0 -49 14q-98 59 -127 59q-30 0 -56 -24t-34 -35q-20 -18 -33 -19q-20 0 -20 25z" />
<glyph unicode="&#xe3;" horiz-adv-x="1024" d="M-43 -27q0 129 134 340t300 353t250 88q39 -25 39 -112t-66 -93q-45 -2 -45 33q1 6 13 32t10 55q-2 30 -6 29q-102 -18 -330 -313q-225 -297 -225 -405q0 -39 35 -39q88 0 278 229q137 166 145 178q55 76 66 148q6 47 49 47q63 0 51 -62q-51 -256 -51 -319 q0 -104 47 -117q16 -4 35 6q12 8 16 19q10 43 44 43t32 -27q0 -12 -6 -27q-31 -80 -115 -79q-27 0 -45 8q-98 33 -98 227q0 29 2 43q-94 -125 -223 -248q-156 -143 -248 -143q-29 -1 -59 21t-29 85zM162 1180q10 94 62 155t125 61t173 -36q100 -37 129 -37q97 0 105 94h106 q-12 -94 -67 -155q-55 -62 -130 -62t-173 37t-138 37t-64 -28t-30 -66h-98z" />
<glyph unicode="&#xe4;" horiz-adv-x="1024" d="M-43 -27q0 129 134 340t300 353t250 88q39 -25 39 -112t-66 -93q-45 -2 -45 33q1 6 13 32t10 55q-2 30 -6 29q-102 -18 -330 -313q-225 -297 -225 -405q0 -39 35 -39q88 0 278 229q137 166 145 178q55 76 66 148q6 47 49 47q63 0 51 -62q-51 -256 -51 -319 q0 -104 47 -117q16 -4 35 6q12 8 16 19q10 43 44 43t32 -27q0 -12 -6 -27q-31 -80 -115 -79q-27 0 -45 8q-98 33 -98 227q0 29 2 43q-94 -125 -223 -248q-156 -143 -248 -143q-29 -1 -59 21t-29 85z" />
<glyph unicode="&#xe5;" horiz-adv-x="1024" d="M-43 -27q0 129 134 340t300 353t250 88q39 -25 39 -112t-66 -93q-45 -2 -45 33q1 6 13 32t10 55q-2 30 -6 29q-102 -18 -330 -313q-225 -297 -225 -405q0 -39 35 -39q88 0 278 229q137 166 145 178q55 76 66 148q6 47 49 47q63 0 51 -62q-51 -256 -51 -319 q0 -104 47 -117q16 -4 35 6q12 8 16 19q10 43 44 43t32 -27q0 -12 -6 -27q-31 -80 -115 -79q-27 0 -45 8q-98 33 -98 227q0 29 2 43q-94 -125 -223 -248q-156 -143 -248 -143q-29 -1 -59 21t-29 85zM324 1343q0 85 61 147t147 62t148 -61t61 -147q0 -86 -61 -148 q-62 -61 -148 -61t-147 61t-61 147zM410 1343q0 -51 36 -87t86 -36q51 0 88 36q36 36 35 87q0 51 -35 88q-36 35 -88 35t-87 -35q-35 -37 -35 -88z" />
<glyph unicode="&#xe6;" horiz-adv-x="1593" />
<glyph unicode="&#xe7;" horiz-adv-x="909" />
<glyph unicode="&#xe8;" horiz-adv-x="1024" d="M-39 139q10 158 164 381q166 244 303 244q46 0 68 -37t22 -72q0 -98 -86 -231q-100 -156 -229 -156q-61 0 -94 27l-5 2q-18 -16 -40 -98t-21 -146q-1 -80 103 -80t236 115t187 240h33q20 -18 14 -35q-57 -168 -193 -282t-271 -113q-98 0 -148 66t-43 175zM133 354 q0 -10 47 -14q80 -4 173 114t93 208q1 38 -35 29t-65 -46q-213 -250 -213 -291zM358 1153q0 39 52 39t59 -33q10 -68 44 -125t67 -69t32 -35q0 -35 -45 -21q-74 29 -141 109q-66 80 -68 135z" />
<glyph unicode="&#xe9;" horiz-adv-x="1024" d="M-39 139q10 158 164 381q166 244 303 244q46 0 68 -37t22 -72q0 -98 -86 -231q-100 -156 -229 -156q-61 0 -94 27l-5 2q-18 -16 -40 -98t-21 -146q-1 -80 103 -80t236 115t187 240h33q20 -18 14 -35q-57 -168 -193 -282t-271 -113q-98 0 -148 66t-43 175zM133 354 q0 -10 47 -14q80 -4 173 114t93 208q1 38 -35 29t-65 -46q-213 -250 -213 -291zM358 930q0 23 33 35t67 69t44 125q6 33 58 33t52 -39q-2 -55 -68 -135t-141 -109q-45 -14 -45 21z" />
<glyph unicode="&#xea;" horiz-adv-x="1024" d="M-39 139q10 158 164 381q166 244 303 244q46 0 68 -37t22 -72q0 -98 -86 -231q-100 -156 -229 -156q-61 0 -94 27l-5 2q-18 -16 -40 -98t-21 -146q-1 -80 103 -80t236 115t187 240h33q20 -18 14 -35q-57 -168 -193 -282t-271 -113q-98 0 -148 66t-43 175zM133 354 q0 -10 47 -14q80 -4 173 114t93 208q1 38 -35 29t-65 -46q-213 -250 -213 -291zM279 1196q0 6 28 47q31 41 54 65t67 25q42 0 104 -46t93 -34q10 2 43 29t46 27t19 -15q8 -12 -2 -28q-66 -90 -133 -90q-26 0 -49 14q-98 59 -127 59q-30 0 -56 -24t-34 -35q-20 -18 -33 -19 q-20 0 -20 25z" />
<glyph unicode="&#xeb;" horiz-adv-x="1024" d="M-39 139q10 158 164 381q166 244 303 244q46 0 68 -37t22 -72q0 -98 -86 -231q-100 -156 -229 -156q-61 0 -94 27l-5 2q-18 -16 -40 -98t-21 -146q-1 -80 103 -80t236 115t187 240h33q20 -18 14 -35q-57 -168 -193 -282t-271 -113q-98 0 -148 66t-43 175zM133 354 q0 -10 47 -14q80 -4 173 114t93 208q1 38 -35 29t-65 -46q-213 -250 -213 -291z" />
<glyph unicode="&#xec;" horiz-adv-x="454" />
<glyph unicode="&#xed;" horiz-adv-x="454" />
<glyph unicode="&#xee;" horiz-adv-x="454" />
<glyph unicode="&#xef;" horiz-adv-x="454" />
<glyph unicode="&#xf0;" />
<glyph unicode="&#xf1;" d="M-49 -45q0 6 34 227t42 350q10 84 61 84q31 0 38 -15t11 -31t6 -21l-61 -305l18 30q219 373 312 373q88 0 116 -129q6 -63 18 -185t21 -190q20 -143 68 -143q18 0 53 35l39 -12q2 -37 -35 -66q-29 -18 -51 -18q-147 0 -182 331q-26 301 -51 301q-35 0 -170 -214 t-195 -400q-14 -49 -49 -49q-47 0 -43 47zM219 1180q11 94 63 155t125 61t173 -36q100 -37 129 -37q96 0 104 94h107q-12 -94 -68 -155q-56 -62 -130 -62t-172 37t-138 37q-39 0 -64 -28t-31 -66h-98z" />
<glyph unicode="&#xf2;" d="M-16 115q0 162 76 343t141 181q20 0 33 -5q4 34 70 66t95 31q166 0 172 -256q2 -123 -110 -325q-133 -238 -285 -250q-90 -10 -141 55t-51 160zM63 145q0 -174 80 -174q121 0 238 222q100 188 100 305q0 168 -82 168q-63 0 -135 -68l-5 2q1 -6 1 -14t-35 -56 q-162 -211 -162 -385zM416 1153q0 39 52 39t58 -33q10 -68 44 -125t67 -69t33 -35q0 -35 -45 -21q-74 29 -142 109q-66 80 -67 135z" />
<glyph unicode="&#xf3;" d="M-16 115q0 162 76 343t141 181q20 0 33 -5q4 34 70 66t95 31q166 0 172 -256q2 -123 -110 -325q-133 -238 -285 -250q-90 -10 -141 55t-51 160zM63 145q0 -174 80 -174q121 0 238 222q100 188 100 305q0 168 -82 168q-63 0 -135 -68l-5 2q1 -6 1 -14t-35 -56 q-162 -211 -162 -385zM416 930q0 23 32 35t67 69q34 57 44 125q7 33 59 33t52 -39q-2 -55 -68 -135t-141 -109q-45 -14 -45 21z" />
<glyph unicode="&#xf4;" d="M-16 115q0 162 76 343t141 181q20 0 33 -5q4 34 70 66t95 31q166 0 172 -256q2 -123 -110 -325q-133 -238 -285 -250q-90 -10 -141 55t-51 160zM63 145q0 -174 80 -174q121 0 238 222q100 188 100 305q0 168 -82 168q-63 0 -135 -68l-5 2q1 -6 1 -14t-35 -56 q-162 -211 -162 -385zM336 1192q0 20 65 98q40 43 83 43q44 0 106 -46t92 -34q10 2 43 29t46 27q13 1 21 -13t-4 -30q-66 -90 -133 -90q-26 0 -49 14q-98 59 -133 59t-84 -59q-20 -18 -33 -19q-20 1 -20 21z" />
<glyph unicode="&#xf5;" d="M-16 115q0 162 76 343t141 181q20 0 33 -5q4 34 70 66t95 31q166 0 172 -256q2 -123 -110 -325q-133 -238 -285 -250q-90 -10 -141 55t-51 160zM63 145q0 -174 80 -174q121 0 238 222q100 188 100 305q0 168 -82 168q-63 0 -135 -68l-5 2q1 -6 1 -14t-35 -56 q-162 -211 -162 -385zM219 1180q11 94 63 155t125 61t173 -36q100 -37 129 -37q96 0 104 94h107q-12 -94 -68 -155q-56 -62 -130 -62t-172 37t-138 37q-39 0 -64 -28t-31 -66h-98z" />
<glyph unicode="&#xf6;" d="M-16 115q0 162 76 343t141 181q20 0 33 -5q4 34 70 66t95 31q166 0 172 -256q2 -123 -110 -325q-133 -238 -285 -250q-90 -10 -141 55t-51 160zM63 145q0 -174 80 -174q121 0 238 222q100 188 100 305q0 168 -82 168q-63 0 -135 -68l-5 2q1 -6 1 -14t-35 -56 q-162 -211 -162 -385z" />
<glyph unicode="&#xf7;" horiz-adv-x="1130" d="M114 117q-17 50 66 86q96 37 291 51q103 12 235 5t246 -48q52 -20 68 -52t-14 -42t-86 10q-270 109 -721 -37q-68 -23 -85 27zM471 -86q0 66 68 66q102 0 102 -56q0 -90 -76 -90q-29 0 -63 23q-31 25 -31 57zM471 494q0 68 68 67q102 0 102 -57q0 -90 -76 -90 q-29 0 -61 22t-33 58z" />
<glyph unicode="&#xf8;" />
<glyph unicode="&#xf9;" d="M-33 96q0 59 63 315t109 261q25 0 44 -14t19 -26q0 -13 -5 -30l-19 -47q-131 -348 -131 -492q0 -86 31 -86q39 -1 118 99q78 100 166 270t89 264q2 33 21 61t44 27q51 0 51 -51q0 -8 -17 -103t-18 -171q0 -322 99 -322q25 1 45 21t43 34q23 -23 22 -32q0 -39 -46 -64 t-70 -24q-158 0 -187 348l-2 18q-104 -223 -141 -280q-111 -168 -232 -168q-96 0 -96 192zM416 1153q0 39 52 39t58 -33q10 -68 44 -125t67 -69t33 -35q0 -35 -45 -21q-74 29 -142 109q-66 80 -67 135z" />
<glyph unicode="&#xfa;" d="M-33 96q0 59 63 315t109 261q25 0 44 -14t19 -26q0 -13 -5 -30l-19 -47q-131 -348 -131 -492q0 -86 31 -86q39 -1 118 99q78 100 166 270t89 264q2 33 21 61t44 27q51 0 51 -51q0 -8 -17 -103t-18 -171q0 -322 99 -322q25 1 45 21t43 34q23 -23 22 -32q0 -39 -46 -64 t-70 -24q-158 0 -187 348l-2 18q-104 -223 -141 -280q-111 -168 -232 -168q-96 0 -96 192zM416 930q0 23 32 35t67 69q34 57 44 125q7 33 59 33t52 -39q-2 -55 -68 -135t-141 -109q-45 -14 -45 21z" />
<glyph unicode="&#xfb;" d="M-33 96q0 59 63 315t109 261q25 0 44 -14t19 -26q0 -13 -5 -30l-19 -47q-131 -348 -131 -492q0 -86 31 -86q39 -1 118 99q78 100 166 270t89 264q2 33 21 61t44 27q51 0 51 -51q0 -8 -17 -103t-18 -171q0 -322 99 -322q25 1 45 21t43 34q23 -23 22 -32q0 -39 -46 -64 t-70 -24q-158 0 -187 348l-2 18q-104 -223 -141 -280q-111 -168 -232 -168q-96 0 -96 192zM336 1192q0 20 65 98q40 43 83 43q44 0 106 -46t92 -34q10 2 43 29t46 27q13 1 21 -13t-4 -30q-66 -90 -133 -90q-26 0 -49 14q-98 59 -133 59t-84 -59q-20 -18 -33 -19 q-20 1 -20 21z" />
<glyph unicode="&#xfc;" d="M-33 96q0 59 63 315t109 261q25 0 44 -14t19 -26q0 -13 -5 -30l-19 -47q-131 -348 -131 -492q0 -86 31 -86q39 -1 118 99q78 100 166 270t89 264q2 33 21 61t44 27q51 0 51 -51q0 -8 -17 -103t-18 -171q0 -322 99 -322q25 1 45 21t43 34q23 -23 22 -32q0 -39 -46 -64 t-70 -24q-158 0 -187 348l-2 18q-104 -223 -141 -280q-111 -168 -232 -168q-96 0 -96 192z" />
<glyph unicode="&#xfd;" horiz-adv-x="1024" d="M-227 -334q0 43 34 43q19 -1 27 -23t16 -55q31 -84 99 -141t151 -63q219 -18 344 239q102 211 103 465q0 174 -49 432q-94 -238 -146 -332q-137 -262 -264 -262q-98 -1 -98 145t74 405t133 265q20 2 43 -15q22 -17 22 -29t-2 -13q-59 -92 -123 -264t-63 -334 q0 -88 26 -88q32 -1 90 89t82 136q193 311 172 471q-8 70 52 70q55 0 65 -102l2 -15q25 -227 49 -268q24 -42 24 -284t-101 -476q-138 -319 -392 -319q-150 0 -260 117t-110 206zM358 930q0 23 33 35t67 69t44 125q6 33 58 33t52 -39q-2 -55 -68 -135t-141 -109 q-45 -14 -45 21z" />
<glyph unicode="&#xfe;" />
<glyph unicode="&#xff;" horiz-adv-x="1024" d="M-227 -334q0 43 34 43q19 -1 27 -23t16 -55q31 -84 99 -141t151 -63q219 -18 344 239q102 211 103 465q0 174 -49 432q-94 -238 -146 -332q-137 -262 -264 -262q-98 -1 -98 145t74 405t133 265q20 2 43 -15q22 -17 22 -29t-2 -13q-59 -92 -123 -264t-63 -334 q0 -88 26 -88q32 -1 90 89t82 136q193 311 172 471q-8 70 52 70q55 0 65 -102l2 -15q25 -227 49 -268q24 -42 24 -284t-101 -476q-138 -319 -392 -319q-150 0 -260 117t-110 206z" />
<glyph unicode="&#x152;" horiz-adv-x="2048" />
<glyph unicode="&#x153;" horiz-adv-x="1820" />
<glyph unicode="&#x178;" horiz-adv-x="1251" d="M-86 962q0 50 162 168t227 117q115 0 115 -126t-80 -404q-31 -96 -125 -414q-37 -143 -37 -228t43 -85q72 0 256 315q319 547 332 836v55q-2 27 -2 53q0 59 51 60q57 1 94 -267t37 -356q0 -412 -37 -653q-57 -365 -217 -619q-168 -270 -450 -270q-109 0 -203 88 q-94 82 -135 205q-4 31 -2 37q4 36 26 22t49 -55q125 -205 258 -205q291 0 461 404q119 276 140 589q18 241 18 395t-37 355q-12 -39 -67 -225q-91 -290 -269 -564t-313 -274q-129 0 -129 168q0 109 79 375q79 265 119 413t40 218t-33 71q-37 0 -170 -125t-156 -125 q-45 1 -45 51z" />
<glyph unicode="&#x2c6;" horiz-adv-x="454" d="M-6 1192q0 20 65 98q40 43 82 43q43 0 105 -46t94 -34q10 2 43 29t46 27q13 1 21 -13t-4 -30q-66 -90 -133 -90q-26 0 -49 14q-98 59 -133 59t-84 -59q-23 -18 -33 -19q-20 1 -20 21z" />
<glyph unicode="&#x2dc;" horiz-adv-x="454" d="M-123 1180q11 94 63 155t125 61t173 -36q100 -37 129 -37q96 0 104 94h107q-12 -94 -68 -155q-56 -62 -130 -62t-172 37t-138 37q-39 0 -64 -28t-31 -66h-98z" />
<glyph unicode="&#x2000;" horiz-adv-x="959" />
<glyph unicode="&#x2001;" horiz-adv-x="1919" />
<glyph unicode="&#x2002;" horiz-adv-x="959" />
<glyph unicode="&#x2003;" horiz-adv-x="1919" />
<glyph unicode="&#x2004;" horiz-adv-x="639" />
<glyph unicode="&#x2005;" horiz-adv-x="479" />
<glyph unicode="&#x2006;" horiz-adv-x="319" />
<glyph unicode="&#x2007;" horiz-adv-x="319" />
<glyph unicode="&#x2008;" horiz-adv-x="239" />
<glyph unicode="&#x2009;" horiz-adv-x="383" />
<glyph unicode="&#x200a;" horiz-adv-x="106" />
<glyph unicode="&#x2010;" horiz-adv-x="1091" d="M83 112q-15 44 38 78l26 13q100 35 291 49q301 25 482 -43q53 -20 68 -52q16 -32 -14 -42t-87 10q-268 111 -721 -35q-68 -22 -83 22z" />
<glyph unicode="&#x2011;" horiz-adv-x="1091" d="M83 112q-15 44 38 78l26 13q100 35 291 49q301 25 482 -43q53 -20 68 -52q16 -32 -14 -42t-87 10q-268 111 -721 -35q-68 -22 -83 22z" />
<glyph unicode="&#x2012;" horiz-adv-x="1091" d="M83 112q-15 44 38 78l26 13q100 35 291 49q301 25 482 -43q53 -20 68 -52q16 -32 -14 -42t-87 10q-268 111 -721 -35q-68 -22 -83 22z" />
<glyph unicode="&#x2013;" horiz-adv-x="1024" />
<glyph unicode="&#x2014;" horiz-adv-x="2048" />
<glyph unicode="&#x2018;" horiz-adv-x="333" d="M72 846q0 60 40 141q40 82 91 121q16 10 31 10q14 0 18 -19t-16 -38q-57 -43 -58 -172q0 -17 3 -41t-21 -43q-25 -18 -49 -19q-39 0 -39 60z" />
<glyph unicode="&#x2019;" horiz-adv-x="284" d="M41 803q0 16 18 33q57 43 58 172q0 20 -3 42t21 42q25 18 49 18q39 0 39 -59t-40 -141t-91 -122q-16 -10 -26 -10q-25 0 -25 25z" />
<glyph unicode="&#x201a;" horiz-adv-x="421" d="M74 102q0 39 52 39t58 -32q10 -68 44 -125q34 -58 67 -70t33 -35q0 -34 -45 -20q-74 29 -142 108q-63 80 -67 135z" />
<glyph unicode="&#x201c;" horiz-adv-x="468" d="M70 830q0 58 40 142t91 122q14 10 29 10q14 0 20 -20t-19 -37q-57 -45 -57 -175q0 -18 3 -40t-21 -41q-24 -18 -47 -19q-39 0 -39 58zM205 831q0 59 40 141t91 122q16 10 26 10q23 0 25 -20t-18 -37q-57 -45 -58 -175q0 -18 3 -40q2 -22 -22 -41q-24 -18 -48 -19 q-39 0 -39 59z" />
<glyph unicode="&#x201d;" horiz-adv-x="454" d="M61 772q0 18 19 33q57 45 57 174q0 19 -3 41t22 40t49 19q39 0 39 -59t-40 -141t-91 -121q-16 -10 -27 -10q-25 0 -25 24zM197 772q0 18 20 33q57 45 57 174q0 19 -3 41t22 40t47 19q39 0 39 -58t-40 -142t-91 -121q-14 -10 -25 -10q-27 0 -26 24z" />
<glyph unicode="&#x201e;" horiz-adv-x="618" d="M74 102q0 39 52 39t58 -32q10 -68 44 -125q34 -58 67 -70t33 -35q0 -34 -45 -20q-74 29 -142 108q-63 80 -67 135zM264 102q0 39 52 39t59 -32q10 -68 44 -125t70 -72q29 -10 29 -33q0 -34 -45 -20q-74 29 -141 108q-66 80 -68 135z" />
<glyph unicode="&#x2022;" horiz-adv-x="1024" d="M158 709q0 147 103 250t251 103t250 -102q104 -104 104 -251t-103 -251t-251 -104t-251 104t-103 251z" />
<glyph unicode="&#x2026;" horiz-adv-x="2048" d="M248 0v197h188v-197h-188zM930 0v197h188v-197h-188zM1612 0v197h188v-197h-188z" />
<glyph unicode="&#x202f;" horiz-adv-x="383" />
<glyph unicode="&#x2039;" horiz-adv-x="569" d="M66 539l335 399l78 -57l-241 -342l223 -332l-80 -47z" />
<glyph unicode="&#x203a;" horiz-adv-x="569" d="M90 217l242 342l-223 332l79 47l316 -379l-336 -399z" />
<glyph unicode="&#x205f;" horiz-adv-x="479" />
<glyph unicode="&#x20ac;" />
<glyph unicode="&#x2122;" horiz-adv-x="2027" />
<glyph unicode="&#x25fc;" horiz-adv-x="885" d="M0 0v885h885v-885h-885z" />
<glyph unicode="&#xfb01;" />
<glyph unicode="&#xfb02;" />
</font>
</defs>
</svg>
